0, 0, Header, 1, 9, 192
1, 0, Start_track
1, 0, Title_t, "Move On Up"
1, 0, Title_t, "Curtis Mayfield"
1, 0, SMPTE_offset, 96, 0, 3, 0, 0
1, 0, MIDI_port, 0
1, 0, System_exclusive, 10, 65, 16, 66, 18, 64, 0, 127, 0, 65, 247
1, 0, MIDI_port, 0
1, 0, System_exclusive, 137, 65, 16, 66, 18, 72, 0, 0, 0, 4, 0, 0, 7, 15, 5, 4, 4, 2, 4, 0, 4, 0, 0, 0, 2, 0, 2, 8, 6, 3, 2, 9, 2, 0, 3, 1, 3, 9, 3, 9, 3, 3, 2, 0, 4, 8, 4, 13, 4, 13, 5, 3, 2, 0, 2, 0, 0, 2, 0, 4, 0, 2, 0, 4, 0, 3, 0, 3, 0, 2, 0, 1, 0, 1, 0, 0, 0, 0, 0, 0, 0, 0, 0, 0, 0, 0, 0, 0, 0, 0, 0, 0, 0, 4, 0, 4, 0, 0, 4, 0, 4, 0, 0, 0, 0, 0, 0, 0, 0, 2, 0, 0, 4, 0, 0, 8, 5, 0, 0, 3, 1, 3, 0, 0, 0, 0, 0, 0, 0, 0, 0, 0, 0, 0, 0, 0, 71, 247
1, 0, MIDI_port, 0
1, 0, Time_signature, 4, 2, 24, 8
1, 0, Key_signature, 0, "major"
1, 0, Tempo, 428571
1, 0, End_track
2, 0, Start_track
2, 0, MIDI_port, 0
2, 0, Control_c, 9, 121, 0
2, 2, Control_c, 9, 67, 0
2, 3, Control_c, 9, 64, 0
2, 4, Control_c, 9, 100, 0
2, 5, Control_c, 9, 101, 0
2, 6, Control_c, 9, 6, 12
2, 7, Control_c, 9, 11, 127
2, 8, Control_c, 9, 1, 0
2, 10, Control_c, 9, 11, 127
2, 12, Pitch_bend_c, 9, 8192
2, 237, Control_c, 9, 0, 0
2, 238, Control_c, 9, 32, 0
2, 239, Program_c, 9, 0
2, 240, Control_c, 9, 7, 114
2, 240, Control_c, 9, 10, 64
2, 584, Control_c, 9, 11, 127
2, 586, Control_c, 9, 91, 0
2, 588, Control_c, 9, 93, 0
2, 3072, Note_on_c, 9, 42, 112
2, 3073, Note_on_c, 9, 42, 0
2, 3264, Note_on_c, 9, 42, 112
2, 3265, Note_on_c, 9, 42, 0
2, 3456, Note_on_c, 9, 42, 116
2, 3456, Note_on_c, 9, 36, 112
2, 3457, Note_on_c, 9, 36, 0
2, 3457, Note_on_c, 9, 42, 0
2, 3648, Note_on_c, 9, 39, 100
2, 3648, Note_on_c, 9, 42, 100
2, 3648, Note_on_c, 9, 40, 124
2, 3649, Note_on_c, 9, 40, 0
2, 3649, Note_on_c, 9, 42, 0
2, 3649, Note_on_c, 9, 39, 0
2, 3744, Note_on_c, 9, 49, 116
2, 3744, Note_on_c, 9, 36, 127
2, 3745, Note_on_c, 9, 36, 0
2, 3745, Note_on_c, 9, 49, 0
2, 3936, Note_on_c, 9, 42, 44
2, 3936, Note_on_c, 9, 36, 68
2, 3937, Note_on_c, 9, 36, 0
2, 3937, Note_on_c, 9, 42, 0
2, 4032, Note_on_c, 9, 39, 100
2, 4032, Note_on_c, 9, 42, 100
2, 4032, Note_on_c, 9, 40, 112
2, 4033, Note_on_c, 9, 40, 0
2, 4033, Note_on_c, 9, 42, 0
2, 4033, Note_on_c, 9, 39, 0
2, 4128, Note_on_c, 9, 42, 54
2, 4129, Note_on_c, 9, 42, 0
2, 4176, Note_on_c, 9, 36, 59
2, 4177, Note_on_c, 9, 36, 0
2, 4224, Note_on_c, 9, 42, 116
2, 4224, Note_on_c, 9, 36, 124
2, 4225, Note_on_c, 9, 36, 0
2, 4225, Note_on_c, 9, 42, 0
2, 4320, Note_on_c, 9, 42, 61
2, 4320, Note_on_c, 9, 36, 80
2, 4321, Note_on_c, 9, 36, 0
2, 4321, Note_on_c, 9, 42, 0
2, 4416, Note_on_c, 9, 39, 100
2, 4416, Note_on_c, 9, 42, 116
2, 4416, Note_on_c, 9, 40, 112
2, 4417, Note_on_c, 9, 40, 0
2, 4417, Note_on_c, 9, 42, 0
2, 4417, Note_on_c, 9, 39, 0
2, 4512, Note_on_c, 9, 42, 61
2, 4513, Note_on_c, 9, 42, 0
2, 4608, Note_on_c, 9, 42, 116
2, 4608, Note_on_c, 9, 36, 112
2, 4609, Note_on_c, 9, 36, 0
2, 4609, Note_on_c, 9, 42, 0
2, 4704, Note_on_c, 9, 42, 61
2, 4704, Note_on_c, 9, 36, 59
2, 4705, Note_on_c, 9, 36, 0
2, 4705, Note_on_c, 9, 42, 0
2, 4800, Note_on_c, 9, 39, 100
2, 4800, Note_on_c, 9, 42, 116
2, 4800, Note_on_c, 9, 40, 124
2, 4801, Note_on_c, 9, 40, 0
2, 4801, Note_on_c, 9, 42, 0
2, 4801, Note_on_c, 9, 39, 0
2, 4896, Note_on_c, 9, 42, 54
2, 4897, Note_on_c, 9, 42, 0
2, 4944, Note_on_c, 9, 36, 59
2, 4945, Note_on_c, 9, 36, 0
2, 4992, Note_on_c, 9, 42, 116
2, 4992, Note_on_c, 9, 36, 124
2, 4993, Note_on_c, 9, 36, 0
2, 4993, Note_on_c, 9, 42, 0
2, 5088, Note_on_c, 9, 42, 71
2, 5088, Note_on_c, 9, 36, 68
2, 5089, Note_on_c, 9, 36, 0
2, 5089, Note_on_c, 9, 42, 0
2, 5184, Note_on_c, 9, 39, 100
2, 5184, Note_on_c, 9, 42, 100
2, 5184, Note_on_c, 9, 40, 124
2, 5185, Note_on_c, 9, 40, 0
2, 5185, Note_on_c, 9, 42, 0
2, 5185, Note_on_c, 9, 39, 0
2, 5280, Note_on_c, 9, 46, 100
2, 5281, Note_on_c, 9, 46, 0
2, 5328, Note_on_c, 9, 36, 35
2, 5329, Note_on_c, 9, 36, 0
2, 5376, Note_on_c, 9, 42, 100
2, 5376, Note_on_c, 9, 36, 124
2, 5377, Note_on_c, 9, 36, 0
2, 5377, Note_on_c, 9, 42, 0
2, 5472, Note_on_c, 9, 42, 83
2, 5472, Note_on_c, 9, 36, 52
2, 5473, Note_on_c, 9, 36, 0
2, 5473, Note_on_c, 9, 42, 0
2, 5568, Note_on_c, 9, 39, 100
2, 5568, Note_on_c, 9, 42, 100
2, 5568, Note_on_c, 9, 40, 124
2, 5569, Note_on_c, 9, 40, 0
2, 5569, Note_on_c, 9, 42, 0
2, 5569, Note_on_c, 9, 39, 0
2, 5664, Note_on_c, 9, 42, 71
2, 5665, Note_on_c, 9, 42, 0
2, 5712, Note_on_c, 9, 36, 68
2, 5713, Note_on_c, 9, 36, 0
2, 5760, Note_on_c, 9, 42, 116
2, 5760, Note_on_c, 9, 36, 124
2, 5761, Note_on_c, 9, 36, 0
2, 5761, Note_on_c, 9, 42, 0
2, 5856, Note_on_c, 9, 42, 61
2, 5856, Note_on_c, 9, 36, 80
2, 5857, Note_on_c, 9, 36, 0
2, 5857, Note_on_c, 9, 42, 0
2, 5952, Note_on_c, 9, 39, 116
2, 5952, Note_on_c, 9, 42, 116
2, 5952, Note_on_c, 9, 40, 124
2, 5953, Note_on_c, 9, 40, 0
2, 5953, Note_on_c, 9, 42, 0
2, 5953, Note_on_c, 9, 39, 0
2, 6048, Note_on_c, 9, 42, 61
2, 6049, Note_on_c, 9, 42, 0
2, 6096, Note_on_c, 9, 36, 59
2, 6097, Note_on_c, 9, 36, 0
2, 6144, Note_on_c, 9, 42, 116
2, 6144, Note_on_c, 9, 36, 112
2, 6145, Note_on_c, 9, 36, 0
2, 6145, Note_on_c, 9, 42, 0
2, 6240, Note_on_c, 9, 42, 48
2, 6240, Note_on_c, 9, 36, 95
2, 6241, Note_on_c, 9, 36, 0
2, 6241, Note_on_c, 9, 42, 0
2, 6336, Note_on_c, 9, 39, 116
2, 6336, Note_on_c, 9, 42, 100
2, 6336, Note_on_c, 9, 40, 124
2, 6337, Note_on_c, 9, 40, 0
2, 6337, Note_on_c, 9, 42, 0
2, 6337, Note_on_c, 9, 39, 0
2, 6432, Note_on_c, 9, 42, 83
2, 6433, Note_on_c, 9, 42, 0
2, 6480, Note_on_c, 9, 36, 43
2, 6481, Note_on_c, 9, 36, 0
2, 6528, Note_on_c, 9, 42, 116
2, 6528, Note_on_c, 9, 36, 112
2, 6529, Note_on_c, 9, 36, 0
2, 6529, Note_on_c, 9, 42, 0
2, 6624, Note_on_c, 9, 42, 48
2, 6624, Note_on_c, 9, 36, 95
2, 6625, Note_on_c, 9, 36, 0
2, 6625, Note_on_c, 9, 42, 0
2, 6720, Note_on_c, 9, 39, 100
2, 6720, Note_on_c, 9, 42, 100
2, 6720, Note_on_c, 9, 40, 124
2, 6721, Note_on_c, 9, 40, 0
2, 6721, Note_on_c, 9, 42, 0
2, 6721, Note_on_c, 9, 39, 0
2, 6816, Note_on_c, 9, 46, 116
2, 6816, Note_on_c, 9, 36, 59
2, 6817, Note_on_c, 9, 36, 0
2, 6817, Note_on_c, 9, 46, 0
2, 6912, Note_on_c, 9, 42, 83
2, 6912, Note_on_c, 9, 36, 124
2, 6913, Note_on_c, 9, 36, 0
2, 6913, Note_on_c, 9, 42, 0
2, 7008, Note_on_c, 9, 42, 44
2, 7008, Note_on_c, 9, 36, 68
2, 7009, Note_on_c, 9, 36, 0
2, 7009, Note_on_c, 9, 42, 0
2, 7104, Note_on_c, 9, 39, 100
2, 7104, Note_on_c, 9, 42, 100
2, 7104, Note_on_c, 9, 40, 112
2, 7105, Note_on_c, 9, 40, 0
2, 7105, Note_on_c, 9, 42, 0
2, 7105, Note_on_c, 9, 39, 0
2, 7200, Note_on_c, 9, 42, 54
2, 7201, Note_on_c, 9, 42, 0
2, 7248, Note_on_c, 9, 36, 59
2, 7249, Note_on_c, 9, 36, 0
2, 7296, Note_on_c, 9, 42, 116
2, 7296, Note_on_c, 9, 36, 124
2, 7297, Note_on_c, 9, 36, 0
2, 7297, Note_on_c, 9, 42, 0
2, 7392, Note_on_c, 9, 42, 61
2, 7392, Note_on_c, 9, 36, 80
2, 7393, Note_on_c, 9, 36, 0
2, 7393, Note_on_c, 9, 42, 0
2, 7488, Note_on_c, 9, 39, 100
2, 7488, Note_on_c, 9, 42, 116
2, 7488, Note_on_c, 9, 40, 112
2, 7489, Note_on_c, 9, 40, 0
2, 7489, Note_on_c, 9, 42, 0
2, 7489, Note_on_c, 9, 39, 0
2, 7584, Note_on_c, 9, 42, 61
2, 7585, Note_on_c, 9, 42, 0
2, 7680, Note_on_c, 9, 42, 116
2, 7680, Note_on_c, 9, 36, 112
2, 7681, Note_on_c, 9, 36, 0
2, 7681, Note_on_c, 9, 42, 0
2, 7776, Note_on_c, 9, 42, 61
2, 7776, Note_on_c, 9, 36, 59
2, 7777, Note_on_c, 9, 36, 0
2, 7777, Note_on_c, 9, 42, 0
2, 7872, Note_on_c, 9, 39, 100
2, 7872, Note_on_c, 9, 42, 116
2, 7872, Note_on_c, 9, 40, 124
2, 7873, Note_on_c, 9, 40, 0
2, 7873, Note_on_c, 9, 42, 0
2, 7873, Note_on_c, 9, 39, 0
2, 7968, Note_on_c, 9, 42, 54
2, 7969, Note_on_c, 9, 42, 0
2, 8016, Note_on_c, 9, 36, 59
2, 8017, Note_on_c, 9, 36, 0
2, 8064, Note_on_c, 9, 42, 116
2, 8064, Note_on_c, 9, 36, 124
2, 8065, Note_on_c, 9, 36, 0
2, 8065, Note_on_c, 9, 42, 0
2, 8160, Note_on_c, 9, 42, 71
2, 8160, Note_on_c, 9, 36, 68
2, 8161, Note_on_c, 9, 36, 0
2, 8161, Note_on_c, 9, 42, 0
2, 8256, Note_on_c, 9, 39, 100
2, 8256, Note_on_c, 9, 42, 100
2, 8256, Note_on_c, 9, 40, 124
2, 8257, Note_on_c, 9, 40, 0
2, 8257, Note_on_c, 9, 42, 0
2, 8257, Note_on_c, 9, 39, 0
2, 8352, Note_on_c, 9, 46, 100
2, 8353, Note_on_c, 9, 46, 0
2, 8400, Note_on_c, 9, 36, 35
2, 8401, Note_on_c, 9, 36, 0
2, 8448, Note_on_c, 9, 42, 100
2, 8448, Note_on_c, 9, 36, 124
2, 8449, Note_on_c, 9, 36, 0
2, 8449, Note_on_c, 9, 42, 0
2, 8544, Note_on_c, 9, 42, 83
2, 8544, Note_on_c, 9, 36, 52
2, 8545, Note_on_c, 9, 36, 0
2, 8545, Note_on_c, 9, 42, 0
2, 8640, Note_on_c, 9, 39, 100
2, 8640, Note_on_c, 9, 42, 100
2, 8640, Note_on_c, 9, 40, 124
2, 8641, Note_on_c, 9, 40, 0
2, 8641, Note_on_c, 9, 42, 0
2, 8641, Note_on_c, 9, 39, 0
2, 8736, Note_on_c, 9, 42, 71
2, 8737, Note_on_c, 9, 42, 0
2, 8784, Note_on_c, 9, 36, 68
2, 8785, Note_on_c, 9, 36, 0
2, 8832, Note_on_c, 9, 42, 116
2, 8832, Note_on_c, 9, 36, 124
2, 8833, Note_on_c, 9, 36, 0
2, 8833, Note_on_c, 9, 42, 0
2, 8928, Note_on_c, 9, 42, 61
2, 8928, Note_on_c, 9, 36, 80
2, 8929, Note_on_c, 9, 36, 0
2, 8929, Note_on_c, 9, 42, 0
2, 9024, Note_on_c, 9, 39, 116
2, 9024, Note_on_c, 9, 42, 116
2, 9024, Note_on_c, 9, 40, 124
2, 9025, Note_on_c, 9, 40, 0
2, 9025, Note_on_c, 9, 42, 0
2, 9025, Note_on_c, 9, 39, 0
2, 9120, Note_on_c, 9, 42, 61
2, 9121, Note_on_c, 9, 42, 0
2, 9168, Note_on_c, 9, 36, 59
2, 9169, Note_on_c, 9, 36, 0
2, 9216, Note_on_c, 9, 42, 116
2, 9216, Note_on_c, 9, 36, 112
2, 9217, Note_on_c, 9, 36, 0
2, 9217, Note_on_c, 9, 42, 0
2, 9312, Note_on_c, 9, 42, 48
2, 9312, Note_on_c, 9, 36, 95
2, 9313, Note_on_c, 9, 36, 0
2, 9313, Note_on_c, 9, 42, 0
2, 9408, Note_on_c, 9, 39, 116
2, 9408, Note_on_c, 9, 42, 100
2, 9408, Note_on_c, 9, 40, 124
2, 9409, Note_on_c, 9, 40, 0
2, 9409, Note_on_c, 9, 42, 0
2, 9409, Note_on_c, 9, 39, 0
2, 9504, Note_on_c, 9, 42, 83
2, 9505, Note_on_c, 9, 42, 0
2, 9552, Note_on_c, 9, 36, 43
2, 9553, Note_on_c, 9, 36, 0
2, 9600, Note_on_c, 9, 42, 116
2, 9600, Note_on_c, 9, 36, 112
2, 9601, Note_on_c, 9, 36, 0
2, 9601, Note_on_c, 9, 42, 0
2, 9792, Note_on_c, 9, 39, 100
2, 9792, Note_on_c, 9, 42, 100
2, 9792, Note_on_c, 9, 40, 124
2, 9793, Note_on_c, 9, 40, 0
2, 9793, Note_on_c, 9, 42, 0
2, 9793, Note_on_c, 9, 39, 0
2, 9888, Note_on_c, 9, 49, 116
2, 9888, Note_on_c, 9, 36, 127
2, 9889, Note_on_c, 9, 36, 0
2, 9889, Note_on_c, 9, 49, 0
2, 10080, Note_on_c, 9, 42, 44
2, 10080, Note_on_c, 9, 36, 68
2, 10081, Note_on_c, 9, 36, 0
2, 10081, Note_on_c, 9, 42, 0
2, 10176, Note_on_c, 9, 39, 100
2, 10176, Note_on_c, 9, 42, 100
2, 10176, Note_on_c, 9, 40, 112
2, 10177, Note_on_c, 9, 40, 0
2, 10177, Note_on_c, 9, 42, 0
2, 10177, Note_on_c, 9, 39, 0
2, 10272, Note_on_c, 9, 42, 54
2, 10273, Note_on_c, 9, 42, 0
2, 10320, Note_on_c, 9, 36, 59
2, 10321, Note_on_c, 9, 36, 0
2, 10368, Note_on_c, 9, 42, 116
2, 10368, Note_on_c, 9, 36, 124
2, 10369, Note_on_c, 9, 36, 0
2, 10369, Note_on_c, 9, 42, 0
2, 10464, Note_on_c, 9, 42, 61
2, 10464, Note_on_c, 9, 36, 80
2, 10465, Note_on_c, 9, 36, 0
2, 10465, Note_on_c, 9, 42, 0
2, 10560, Note_on_c, 9, 39, 100
2, 10560, Note_on_c, 9, 42, 116
2, 10560, Note_on_c, 9, 40, 112
2, 10561, Note_on_c, 9, 40, 0
2, 10561, Note_on_c, 9, 42, 0
2, 10561, Note_on_c, 9, 39, 0
2, 10656, Note_on_c, 9, 42, 61
2, 10657, Note_on_c, 9, 42, 0
2, 10752, Note_on_c, 9, 42, 116
2, 10752, Note_on_c, 9, 36, 112
2, 10753, Note_on_c, 9, 36, 0
2, 10753, Note_on_c, 9, 42, 0
2, 10848, Note_on_c, 9, 42, 61
2, 10848, Note_on_c, 9, 36, 59
2, 10849, Note_on_c, 9, 36, 0
2, 10849, Note_on_c, 9, 42, 0
2, 10944, Note_on_c, 9, 39, 100
2, 10944, Note_on_c, 9, 42, 116
2, 10944, Note_on_c, 9, 40, 124
2, 10945, Note_on_c, 9, 40, 0
2, 10945, Note_on_c, 9, 42, 0
2, 10945, Note_on_c, 9, 39, 0
2, 11040, Note_on_c, 9, 42, 54
2, 11041, Note_on_c, 9, 42, 0
2, 11088, Note_on_c, 9, 36, 59
2, 11089, Note_on_c, 9, 36, 0
2, 11136, Note_on_c, 9, 42, 116
2, 11136, Note_on_c, 9, 36, 124
2, 11137, Note_on_c, 9, 36, 0
2, 11137, Note_on_c, 9, 42, 0
2, 11232, Note_on_c, 9, 42, 71
2, 11232, Note_on_c, 9, 36, 68
2, 11233, Note_on_c, 9, 36, 0
2, 11233, Note_on_c, 9, 42, 0
2, 11328, Note_on_c, 9, 39, 100
2, 11328, Note_on_c, 9, 42, 100
2, 11328, Note_on_c, 9, 40, 124
2, 11329, Note_on_c, 9, 40, 0
2, 11329, Note_on_c, 9, 42, 0
2, 11329, Note_on_c, 9, 39, 0
2, 11424, Note_on_c, 9, 46, 100
2, 11425, Note_on_c, 9, 46, 0
2, 11472, Note_on_c, 9, 36, 35
2, 11473, Note_on_c, 9, 36, 0
2, 11520, Note_on_c, 9, 42, 100
2, 11520, Note_on_c, 9, 36, 124
2, 11521, Note_on_c, 9, 36, 0
2, 11521, Note_on_c, 9, 42, 0
2, 11616, Note_on_c, 9, 42, 83
2, 11616, Note_on_c, 9, 36, 52
2, 11617, Note_on_c, 9, 36, 0
2, 11617, Note_on_c, 9, 42, 0
2, 11712, Note_on_c, 9, 39, 100
2, 11712, Note_on_c, 9, 42, 100
2, 11712, Note_on_c, 9, 40, 124
2, 11713, Note_on_c, 9, 40, 0
2, 11713, Note_on_c, 9, 42, 0
2, 11713, Note_on_c, 9, 39, 0
2, 11808, Note_on_c, 9, 42, 71
2, 11809, Note_on_c, 9, 42, 0
2, 11856, Note_on_c, 9, 36, 68
2, 11857, Note_on_c, 9, 36, 0
2, 11904, Note_on_c, 9, 42, 116
2, 11904, Note_on_c, 9, 36, 124
2, 11905, Note_on_c, 9, 36, 0
2, 11905, Note_on_c, 9, 42, 0
2, 12000, Note_on_c, 9, 42, 61
2, 12000, Note_on_c, 9, 36, 80
2, 12001, Note_on_c, 9, 36, 0
2, 12001, Note_on_c, 9, 42, 0
2, 12096, Note_on_c, 9, 39, 116
2, 12096, Note_on_c, 9, 42, 116
2, 12096, Note_on_c, 9, 40, 124
2, 12097, Note_on_c, 9, 40, 0
2, 12097, Note_on_c, 9, 42, 0
2, 12097, Note_on_c, 9, 39, 0
2, 12192, Note_on_c, 9, 42, 61
2, 12193, Note_on_c, 9, 42, 0
2, 12240, Note_on_c, 9, 36, 59
2, 12241, Note_on_c, 9, 36, 0
2, 12288, Note_on_c, 9, 42, 116
2, 12288, Note_on_c, 9, 36, 112
2, 12289, Note_on_c, 9, 36, 0
2, 12289, Note_on_c, 9, 42, 0
2, 12384, Note_on_c, 9, 42, 48
2, 12384, Note_on_c, 9, 36, 95
2, 12385, Note_on_c, 9, 36, 0
2, 12385, Note_on_c, 9, 42, 0
2, 12480, Note_on_c, 9, 39, 116
2, 12480, Note_on_c, 9, 42, 100
2, 12480, Note_on_c, 9, 40, 124
2, 12481, Note_on_c, 9, 40, 0
2, 12481, Note_on_c, 9, 42, 0
2, 12481, Note_on_c, 9, 39, 0
2, 12576, Note_on_c, 9, 42, 83
2, 12577, Note_on_c, 9, 42, 0
2, 12624, Note_on_c, 9, 36, 43
2, 12625, Note_on_c, 9, 36, 0
2, 12672, Note_on_c, 9, 42, 116
2, 12672, Note_on_c, 9, 36, 112
2, 12673, Note_on_c, 9, 36, 0
2, 12673, Note_on_c, 9, 42, 0
2, 12768, Note_on_c, 9, 42, 48
2, 12768, Note_on_c, 9, 36, 95
2, 12769, Note_on_c, 9, 36, 0
2, 12769, Note_on_c, 9, 42, 0
2, 12864, Note_on_c, 9, 39, 100
2, 12864, Note_on_c, 9, 42, 100
2, 12864, Note_on_c, 9, 40, 124
2, 12865, Note_on_c, 9, 40, 0
2, 12865, Note_on_c, 9, 42, 0
2, 12865, Note_on_c, 9, 39, 0
2, 12960, Note_on_c, 9, 46, 116
2, 12960, Note_on_c, 9, 36, 59
2, 12961, Note_on_c, 9, 36, 0
2, 12961, Note_on_c, 9, 46, 0
2, 13056, Note_on_c, 9, 42, 83
2, 13056, Note_on_c, 9, 36, 124
2, 13057, Note_on_c, 9, 36, 0
2, 13057, Note_on_c, 9, 42, 0
2, 13152, Note_on_c, 9, 42, 44
2, 13152, Note_on_c, 9, 36, 68
2, 13153, Note_on_c, 9, 36, 0
2, 13153, Note_on_c, 9, 42, 0
2, 13248, Note_on_c, 9, 39, 100
2, 13248, Note_on_c, 9, 42, 100
2, 13248, Note_on_c, 9, 40, 112
2, 13249, Note_on_c, 9, 40, 0
2, 13249, Note_on_c, 9, 42, 0
2, 13249, Note_on_c, 9, 39, 0
2, 13344, Note_on_c, 9, 42, 54
2, 13345, Note_on_c, 9, 42, 0
2, 13392, Note_on_c, 9, 36, 59
2, 13393, Note_on_c, 9, 36, 0
2, 13440, Note_on_c, 9, 42, 116
2, 13440, Note_on_c, 9, 36, 124
2, 13441, Note_on_c, 9, 36, 0
2, 13441, Note_on_c, 9, 42, 0
2, 13536, Note_on_c, 9, 42, 61
2, 13536, Note_on_c, 9, 36, 80
2, 13537, Note_on_c, 9, 36, 0
2, 13537, Note_on_c, 9, 42, 0
2, 13632, Note_on_c, 9, 39, 100
2, 13632, Note_on_c, 9, 42, 116
2, 13632, Note_on_c, 9, 40, 112
2, 13633, Note_on_c, 9, 40, 0
2, 13633, Note_on_c, 9, 42, 0
2, 13633, Note_on_c, 9, 39, 0
2, 13728, Note_on_c, 9, 42, 61
2, 13729, Note_on_c, 9, 42, 0
2, 13824, Note_on_c, 9, 42, 116
2, 13824, Note_on_c, 9, 36, 112
2, 13825, Note_on_c, 9, 36, 0
2, 13825, Note_on_c, 9, 42, 0
2, 13920, Note_on_c, 9, 42, 61
2, 13920, Note_on_c, 9, 36, 59
2, 13921, Note_on_c, 9, 36, 0
2, 13921, Note_on_c, 9, 42, 0
2, 14016, Note_on_c, 9, 39, 100
2, 14016, Note_on_c, 9, 42, 116
2, 14016, Note_on_c, 9, 40, 124
2, 14017, Note_on_c, 9, 40, 0
2, 14017, Note_on_c, 9, 42, 0
2, 14017, Note_on_c, 9, 39, 0
2, 14112, Note_on_c, 9, 42, 54
2, 14113, Note_on_c, 9, 42, 0
2, 14160, Note_on_c, 9, 36, 59
2, 14161, Note_on_c, 9, 36, 0
2, 14208, Note_on_c, 9, 42, 116
2, 14208, Note_on_c, 9, 36, 124
2, 14209, Note_on_c, 9, 36, 0
2, 14209, Note_on_c, 9, 42, 0
2, 14304, Note_on_c, 9, 42, 71
2, 14304, Note_on_c, 9, 36, 68
2, 14305, Note_on_c, 9, 36, 0
2, 14305, Note_on_c, 9, 42, 0
2, 14400, Note_on_c, 9, 39, 100
2, 14400, Note_on_c, 9, 42, 100
2, 14400, Note_on_c, 9, 40, 124
2, 14401, Note_on_c, 9, 40, 0
2, 14401, Note_on_c, 9, 42, 0
2, 14401, Note_on_c, 9, 39, 0
2, 14496, Note_on_c, 9, 46, 100
2, 14497, Note_on_c, 9, 46, 0
2, 14544, Note_on_c, 9, 36, 35
2, 14545, Note_on_c, 9, 36, 0
2, 14592, Note_on_c, 9, 42, 100
2, 14592, Note_on_c, 9, 36, 124
2, 14593, Note_on_c, 9, 36, 0
2, 14593, Note_on_c, 9, 42, 0
2, 14688, Note_on_c, 9, 42, 83
2, 14688, Note_on_c, 9, 36, 52
2, 14689, Note_on_c, 9, 36, 0
2, 14689, Note_on_c, 9, 42, 0
2, 14784, Note_on_c, 9, 39, 100
2, 14784, Note_on_c, 9, 42, 100
2, 14784, Note_on_c, 9, 40, 124
2, 14785, Note_on_c, 9, 40, 0
2, 14785, Note_on_c, 9, 42, 0
2, 14785, Note_on_c, 9, 39, 0
2, 14880, Note_on_c, 9, 42, 71
2, 14881, Note_on_c, 9, 42, 0
2, 14928, Note_on_c, 9, 36, 68
2, 14929, Note_on_c, 9, 36, 0
2, 14976, Note_on_c, 9, 42, 116
2, 14976, Note_on_c, 9, 36, 124
2, 14977, Note_on_c, 9, 36, 0
2, 14977, Note_on_c, 9, 42, 0
2, 15072, Note_on_c, 9, 42, 61
2, 15072, Note_on_c, 9, 36, 80
2, 15073, Note_on_c, 9, 36, 0
2, 15073, Note_on_c, 9, 42, 0
2, 15168, Note_on_c, 9, 39, 116
2, 15168, Note_on_c, 9, 42, 116
2, 15168, Note_on_c, 9, 40, 124
2, 15169, Note_on_c, 9, 40, 0
2, 15169, Note_on_c, 9, 42, 0
2, 15169, Note_on_c, 9, 39, 0
2, 15264, Note_on_c, 9, 42, 61
2, 15265, Note_on_c, 9, 42, 0
2, 15312, Note_on_c, 9, 36, 59
2, 15313, Note_on_c, 9, 36, 0
2, 15360, Note_on_c, 9, 42, 116
2, 15360, Note_on_c, 9, 36, 112
2, 15361, Note_on_c, 9, 36, 0
2, 15361, Note_on_c, 9, 42, 0
2, 15456, Note_on_c, 9, 42, 48
2, 15456, Note_on_c, 9, 36, 95
2, 15457, Note_on_c, 9, 36, 0
2, 15457, Note_on_c, 9, 42, 0
2, 15552, Note_on_c, 9, 39, 116
2, 15552, Note_on_c, 9, 42, 100
2, 15552, Note_on_c, 9, 40, 124
2, 15553, Note_on_c, 9, 40, 0
2, 15553, Note_on_c, 9, 42, 0
2, 15553, Note_on_c, 9, 39, 0
2, 15648, Note_on_c, 9, 42, 83
2, 15649, Note_on_c, 9, 42, 0
2, 15696, Note_on_c, 9, 36, 43
2, 15697, Note_on_c, 9, 36, 0
2, 15744, Note_on_c, 9, 42, 116
2, 15744, Note_on_c, 9, 36, 112
2, 15745, Note_on_c, 9, 36, 0
2, 15745, Note_on_c, 9, 42, 0
2, 15840, Note_on_c, 9, 42, 48
2, 15840, Note_on_c, 9, 36, 95
2, 15841, Note_on_c, 9, 36, 0
2, 15841, Note_on_c, 9, 42, 0
2, 15936, Note_on_c, 9, 39, 100
2, 15936, Note_on_c, 9, 42, 100
2, 15936, Note_on_c, 9, 40, 124
2, 15937, Note_on_c, 9, 40, 0
2, 15937, Note_on_c, 9, 42, 0
2, 15937, Note_on_c, 9, 39, 0
2, 16032, Note_on_c, 9, 46, 116
2, 16032, Note_on_c, 9, 36, 59
2, 16033, Note_on_c, 9, 36, 0
2, 16033, Note_on_c, 9, 46, 0
2, 16128, Note_on_c, 9, 42, 83
2, 16128, Note_on_c, 9, 36, 124
2, 16129, Note_on_c, 9, 36, 0
2, 16129, Note_on_c, 9, 42, 0
2, 16224, Note_on_c, 9, 42, 44
2, 16224, Note_on_c, 9, 36, 68
2, 16225, Note_on_c, 9, 36, 0
2, 16225, Note_on_c, 9, 42, 0
2, 16320, Note_on_c, 9, 39, 100
2, 16320, Note_on_c, 9, 42, 100
2, 16320, Note_on_c, 9, 40, 112
2, 16321, Note_on_c, 9, 40, 0
2, 16321, Note_on_c, 9, 42, 0
2, 16321, Note_on_c, 9, 39, 0
2, 16416, Note_on_c, 9, 42, 54
2, 16417, Note_on_c, 9, 42, 0
2, 16464, Note_on_c, 9, 36, 59
2, 16465, Note_on_c, 9, 36, 0
2, 16512, Note_on_c, 9, 42, 116
2, 16512, Note_on_c, 9, 36, 124
2, 16513, Note_on_c, 9, 36, 0
2, 16513, Note_on_c, 9, 42, 0
2, 16608, Note_on_c, 9, 42, 61
2, 16608, Note_on_c, 9, 36, 80
2, 16609, Note_on_c, 9, 36, 0
2, 16609, Note_on_c, 9, 42, 0
2, 16704, Note_on_c, 9, 39, 100
2, 16704, Note_on_c, 9, 42, 116
2, 16704, Note_on_c, 9, 40, 112
2, 16705, Note_on_c, 9, 40, 0
2, 16705, Note_on_c, 9, 42, 0
2, 16705, Note_on_c, 9, 39, 0
2, 16800, Note_on_c, 9, 42, 61
2, 16801, Note_on_c, 9, 42, 0
2, 16896, Note_on_c, 9, 42, 116
2, 16896, Note_on_c, 9, 36, 112
2, 16897, Note_on_c, 9, 36, 0
2, 16897, Note_on_c, 9, 42, 0
2, 16992, Note_on_c, 9, 42, 61
2, 16992, Note_on_c, 9, 36, 59
2, 16993, Note_on_c, 9, 36, 0
2, 16993, Note_on_c, 9, 42, 0
2, 17088, Note_on_c, 9, 39, 100
2, 17088, Note_on_c, 9, 42, 116
2, 17088, Note_on_c, 9, 40, 124
2, 17089, Note_on_c, 9, 40, 0
2, 17089, Note_on_c, 9, 42, 0
2, 17089, Note_on_c, 9, 39, 0
2, 17184, Note_on_c, 9, 42, 54
2, 17185, Note_on_c, 9, 42, 0
2, 17232, Note_on_c, 9, 36, 59
2, 17233, Note_on_c, 9, 36, 0
2, 17280, Note_on_c, 9, 42, 116
2, 17280, Note_on_c, 9, 36, 124
2, 17281, Note_on_c, 9, 36, 0
2, 17281, Note_on_c, 9, 42, 0
2, 17376, Note_on_c, 9, 42, 71
2, 17376, Note_on_c, 9, 36, 68
2, 17377, Note_on_c, 9, 36, 0
2, 17377, Note_on_c, 9, 42, 0
2, 17472, Note_on_c, 9, 39, 100
2, 17472, Note_on_c, 9, 42, 100
2, 17472, Note_on_c, 9, 40, 124
2, 17473, Note_on_c, 9, 40, 0
2, 17473, Note_on_c, 9, 42, 0
2, 17473, Note_on_c, 9, 39, 0
2, 17568, Note_on_c, 9, 46, 100
2, 17569, Note_on_c, 9, 46, 0
2, 17616, Note_on_c, 9, 36, 35
2, 17617, Note_on_c, 9, 36, 0
2, 17664, Note_on_c, 9, 42, 100
2, 17664, Note_on_c, 9, 36, 124
2, 17665, Note_on_c, 9, 36, 0
2, 17665, Note_on_c, 9, 42, 0
2, 17760, Note_on_c, 9, 42, 83
2, 17760, Note_on_c, 9, 36, 52
2, 17761, Note_on_c, 9, 36, 0
2, 17761, Note_on_c, 9, 42, 0
2, 17856, Note_on_c, 9, 39, 100
2, 17856, Note_on_c, 9, 42, 100
2, 17856, Note_on_c, 9, 40, 124
2, 17857, Note_on_c, 9, 40, 0
2, 17857, Note_on_c, 9, 42, 0
2, 17857, Note_on_c, 9, 39, 0
2, 17952, Note_on_c, 9, 42, 71
2, 17953, Note_on_c, 9, 42, 0
2, 18000, Note_on_c, 9, 36, 68
2, 18001, Note_on_c, 9, 36, 0
2, 18048, Note_on_c, 9, 42, 116
2, 18048, Note_on_c, 9, 36, 124
2, 18049, Note_on_c, 9, 36, 0
2, 18049, Note_on_c, 9, 42, 0
2, 18144, Note_on_c, 9, 42, 61
2, 18144, Note_on_c, 9, 36, 80
2, 18145, Note_on_c, 9, 36, 0
2, 18145, Note_on_c, 9, 42, 0
2, 18240, Note_on_c, 9, 39, 116
2, 18240, Note_on_c, 9, 42, 116
2, 18240, Note_on_c, 9, 40, 124
2, 18241, Note_on_c, 9, 40, 0
2, 18241, Note_on_c, 9, 42, 0
2, 18241, Note_on_c, 9, 39, 0
2, 18336, Note_on_c, 9, 42, 61
2, 18337, Note_on_c, 9, 42, 0
2, 18384, Note_on_c, 9, 36, 59
2, 18385, Note_on_c, 9, 36, 0
2, 18432, Note_on_c, 9, 42, 116
2, 18432, Note_on_c, 9, 36, 112
2, 18433, Note_on_c, 9, 36, 0
2, 18433, Note_on_c, 9, 42, 0
2, 18528, Note_on_c, 9, 42, 48
2, 18528, Note_on_c, 9, 36, 95
2, 18529, Note_on_c, 9, 36, 0
2, 18529, Note_on_c, 9, 42, 0
2, 18624, Note_on_c, 9, 39, 116
2, 18624, Note_on_c, 9, 42, 100
2, 18624, Note_on_c, 9, 40, 124
2, 18625, Note_on_c, 9, 40, 0
2, 18625, Note_on_c, 9, 42, 0
2, 18625, Note_on_c, 9, 39, 0
2, 18720, Note_on_c, 9, 42, 83
2, 18721, Note_on_c, 9, 42, 0
2, 18768, Note_on_c, 9, 36, 43
2, 18769, Note_on_c, 9, 36, 0
2, 18816, Note_on_c, 9, 42, 116
2, 18816, Note_on_c, 9, 36, 112
2, 18817, Note_on_c, 9, 36, 0
2, 18817, Note_on_c, 9, 42, 0
2, 18912, Note_on_c, 9, 42, 48
2, 18912, Note_on_c, 9, 36, 95
2, 18913, Note_on_c, 9, 36, 0
2, 18913, Note_on_c, 9, 42, 0
2, 19008, Note_on_c, 9, 39, 100
2, 19008, Note_on_c, 9, 42, 100
2, 19008, Note_on_c, 9, 40, 124
2, 19009, Note_on_c, 9, 40, 0
2, 19009, Note_on_c, 9, 42, 0
2, 19009, Note_on_c, 9, 39, 0
2, 19104, Note_on_c, 9, 46, 116
2, 19104, Note_on_c, 9, 36, 59
2, 19105, Note_on_c, 9, 36, 0
2, 19105, Note_on_c, 9, 46, 0
2, 19200, Note_on_c, 9, 42, 83
2, 19200, Note_on_c, 9, 36, 124
2, 19201, Note_on_c, 9, 36, 0
2, 19201, Note_on_c, 9, 42, 0
2, 19296, Note_on_c, 9, 42, 44
2, 19296, Note_on_c, 9, 36, 68
2, 19297, Note_on_c, 9, 36, 0
2, 19297, Note_on_c, 9, 42, 0
2, 19392, Note_on_c, 9, 39, 100
2, 19392, Note_on_c, 9, 42, 100
2, 19392, Note_on_c, 9, 40, 112
2, 19393, Note_on_c, 9, 40, 0
2, 19393, Note_on_c, 9, 42, 0
2, 19393, Note_on_c, 9, 39, 0
2, 19488, Note_on_c, 9, 42, 54
2, 19489, Note_on_c, 9, 42, 0
2, 19536, Note_on_c, 9, 36, 59
2, 19537, Note_on_c, 9, 36, 0
2, 19584, Note_on_c, 9, 42, 116
2, 19584, Note_on_c, 9, 36, 124
2, 19585, Note_on_c, 9, 36, 0
2, 19585, Note_on_c, 9, 42, 0
2, 19680, Note_on_c, 9, 42, 61
2, 19680, Note_on_c, 9, 36, 80
2, 19681, Note_on_c, 9, 36, 0
2, 19681, Note_on_c, 9, 42, 0
2, 19776, Note_on_c, 9, 39, 100
2, 19776, Note_on_c, 9, 42, 116
2, 19776, Note_on_c, 9, 40, 112
2, 19777, Note_on_c, 9, 40, 0
2, 19777, Note_on_c, 9, 42, 0
2, 19777, Note_on_c, 9, 39, 0
2, 19872, Note_on_c, 9, 42, 61
2, 19873, Note_on_c, 9, 42, 0
2, 19968, Note_on_c, 9, 42, 116
2, 19968, Note_on_c, 9, 36, 112
2, 19969, Note_on_c, 9, 36, 0
2, 19969, Note_on_c, 9, 42, 0
2, 20064, Note_on_c, 9, 42, 61
2, 20064, Note_on_c, 9, 36, 59
2, 20065, Note_on_c, 9, 36, 0
2, 20065, Note_on_c, 9, 42, 0
2, 20160, Note_on_c, 9, 39, 100
2, 20160, Note_on_c, 9, 42, 116
2, 20160, Note_on_c, 9, 40, 124
2, 20161, Note_on_c, 9, 40, 0
2, 20161, Note_on_c, 9, 42, 0
2, 20161, Note_on_c, 9, 39, 0
2, 20256, Note_on_c, 9, 42, 54
2, 20257, Note_on_c, 9, 42, 0
2, 20304, Note_on_c, 9, 36, 59
2, 20305, Note_on_c, 9, 36, 0
2, 20352, Note_on_c, 9, 42, 116
2, 20352, Note_on_c, 9, 36, 124
2, 20353, Note_on_c, 9, 36, 0
2, 20353, Note_on_c, 9, 42, 0
2, 20448, Note_on_c, 9, 42, 71
2, 20448, Note_on_c, 9, 36, 68
2, 20449, Note_on_c, 9, 36, 0
2, 20449, Note_on_c, 9, 42, 0
2, 20544, Note_on_c, 9, 39, 100
2, 20544, Note_on_c, 9, 42, 100
2, 20544, Note_on_c, 9, 40, 124
2, 20545, Note_on_c, 9, 40, 0
2, 20545, Note_on_c, 9, 42, 0
2, 20545, Note_on_c, 9, 39, 0
2, 20640, Note_on_c, 9, 46, 100
2, 20641, Note_on_c, 9, 46, 0
2, 20688, Note_on_c, 9, 36, 35
2, 20689, Note_on_c, 9, 36, 0
2, 20736, Note_on_c, 9, 42, 100
2, 20736, Note_on_c, 9, 36, 124
2, 20737, Note_on_c, 9, 36, 0
2, 20737, Note_on_c, 9, 42, 0
2, 20832, Note_on_c, 9, 42, 83
2, 20832, Note_on_c, 9, 36, 52
2, 20833, Note_on_c, 9, 36, 0
2, 20833, Note_on_c, 9, 42, 0
2, 20928, Note_on_c, 9, 39, 100
2, 20928, Note_on_c, 9, 42, 100
2, 20928, Note_on_c, 9, 40, 124
2, 20929, Note_on_c, 9, 40, 0
2, 20929, Note_on_c, 9, 42, 0
2, 20929, Note_on_c, 9, 39, 0
2, 21024, Note_on_c, 9, 42, 71
2, 21025, Note_on_c, 9, 42, 0
2, 21072, Note_on_c, 9, 36, 68
2, 21073, Note_on_c, 9, 36, 0
2, 21120, Note_on_c, 9, 42, 116
2, 21120, Note_on_c, 9, 36, 124
2, 21121, Note_on_c, 9, 36, 0
2, 21121, Note_on_c, 9, 42, 0
2, 21216, Note_on_c, 9, 42, 61
2, 21216, Note_on_c, 9, 36, 80
2, 21217, Note_on_c, 9, 36, 0
2, 21217, Note_on_c, 9, 42, 0
2, 21312, Note_on_c, 9, 39, 116
2, 21312, Note_on_c, 9, 42, 116
2, 21312, Note_on_c, 9, 40, 124
2, 21313, Note_on_c, 9, 40, 0
2, 21313, Note_on_c, 9, 42, 0
2, 21313, Note_on_c, 9, 39, 0
2, 21408, Note_on_c, 9, 42, 61
2, 21409, Note_on_c, 9, 42, 0
2, 21456, Note_on_c, 9, 36, 59
2, 21457, Note_on_c, 9, 36, 0
2, 21504, Note_on_c, 9, 42, 116
2, 21504, Note_on_c, 9, 36, 112
2, 21505, Note_on_c, 9, 36, 0
2, 21505, Note_on_c, 9, 42, 0
2, 21600, Note_on_c, 9, 42, 48
2, 21600, Note_on_c, 9, 36, 95
2, 21601, Note_on_c, 9, 36, 0
2, 21601, Note_on_c, 9, 42, 0
2, 21696, Note_on_c, 9, 39, 116
2, 21696, Note_on_c, 9, 42, 100
2, 21696, Note_on_c, 9, 40, 124
2, 21697, Note_on_c, 9, 40, 0
2, 21697, Note_on_c, 9, 42, 0
2, 21697, Note_on_c, 9, 39, 0
2, 21792, Note_on_c, 9, 42, 83
2, 21793, Note_on_c, 9, 42, 0
2, 21840, Note_on_c, 9, 36, 43
2, 21841, Note_on_c, 9, 36, 0
2, 21888, Note_on_c, 9, 42, 116
2, 21888, Note_on_c, 9, 36, 112
2, 21889, Note_on_c, 9, 36, 0
2, 21889, Note_on_c, 9, 42, 0
2, 21984, Note_on_c, 9, 42, 48
2, 21984, Note_on_c, 9, 36, 95
2, 21985, Note_on_c, 9, 36, 0
2, 21985, Note_on_c, 9, 42, 0
2, 22080, Note_on_c, 9, 39, 100
2, 22080, Note_on_c, 9, 42, 100
2, 22080, Note_on_c, 9, 40, 124
2, 22081, Note_on_c, 9, 40, 0
2, 22081, Note_on_c, 9, 42, 0
2, 22081, Note_on_c, 9, 39, 0
2, 22176, Note_on_c, 9, 46, 116
2, 22176, Note_on_c, 9, 36, 59
2, 22177, Note_on_c, 9, 36, 0
2, 22177, Note_on_c, 9, 46, 0
2, 22272, Note_on_c, 9, 42, 83
2, 22272, Note_on_c, 9, 36, 124
2, 22273, Note_on_c, 9, 36, 0
2, 22273, Note_on_c, 9, 42, 0
2, 22368, Note_on_c, 9, 42, 44
2, 22368, Note_on_c, 9, 36, 68
2, 22369, Note_on_c, 9, 36, 0
2, 22369, Note_on_c, 9, 42, 0
2, 22464, Note_on_c, 9, 39, 100
2, 22464, Note_on_c, 9, 42, 100
2, 22464, Note_on_c, 9, 40, 112
2, 22465, Note_on_c, 9, 40, 0
2, 22465, Note_on_c, 9, 42, 0
2, 22465, Note_on_c, 9, 39, 0
2, 22560, Note_on_c, 9, 42, 54
2, 22561, Note_on_c, 9, 42, 0
2, 22608, Note_on_c, 9, 36, 59
2, 22609, Note_on_c, 9, 36, 0
2, 22656, Note_on_c, 9, 42, 116
2, 22656, Note_on_c, 9, 36, 124
2, 22657, Note_on_c, 9, 36, 0
2, 22657, Note_on_c, 9, 42, 0
2, 22752, Note_on_c, 9, 42, 61
2, 22752, Note_on_c, 9, 36, 80
2, 22753, Note_on_c, 9, 36, 0
2, 22753, Note_on_c, 9, 42, 0
2, 22848, Note_on_c, 9, 39, 100
2, 22848, Note_on_c, 9, 42, 116
2, 22848, Note_on_c, 9, 40, 112
2, 22849, Note_on_c, 9, 40, 0
2, 22849, Note_on_c, 9, 42, 0
2, 22849, Note_on_c, 9, 39, 0
2, 22944, Note_on_c, 9, 42, 61
2, 22945, Note_on_c, 9, 42, 0
2, 23040, Note_on_c, 9, 42, 116
2, 23040, Note_on_c, 9, 36, 112
2, 23041, Note_on_c, 9, 36, 0
2, 23041, Note_on_c, 9, 42, 0
2, 23136, Note_on_c, 9, 42, 61
2, 23136, Note_on_c, 9, 36, 59
2, 23137, Note_on_c, 9, 36, 0
2, 23137, Note_on_c, 9, 42, 0
2, 23232, Note_on_c, 9, 39, 100
2, 23232, Note_on_c, 9, 42, 116
2, 23232, Note_on_c, 9, 40, 124
2, 23233, Note_on_c, 9, 40, 0
2, 23233, Note_on_c, 9, 42, 0
2, 23233, Note_on_c, 9, 39, 0
2, 23328, Note_on_c, 9, 42, 54
2, 23329, Note_on_c, 9, 42, 0
2, 23376, Note_on_c, 9, 36, 59
2, 23377, Note_on_c, 9, 36, 0
2, 23424, Note_on_c, 9, 42, 116
2, 23424, Note_on_c, 9, 36, 124
2, 23425, Note_on_c, 9, 36, 0
2, 23425, Note_on_c, 9, 42, 0
2, 23520, Note_on_c, 9, 42, 71
2, 23520, Note_on_c, 9, 36, 68
2, 23521, Note_on_c, 9, 36, 0
2, 23521, Note_on_c, 9, 42, 0
2, 23616, Note_on_c, 9, 39, 100
2, 23616, Note_on_c, 9, 42, 100
2, 23616, Note_on_c, 9, 40, 124
2, 23617, Note_on_c, 9, 40, 0
2, 23617, Note_on_c, 9, 42, 0
2, 23617, Note_on_c, 9, 39, 0
2, 23712, Note_on_c, 9, 46, 100
2, 23713, Note_on_c, 9, 46, 0
2, 23760, Note_on_c, 9, 36, 35
2, 23761, Note_on_c, 9, 36, 0
2, 23808, Note_on_c, 9, 42, 100
2, 23808, Note_on_c, 9, 36, 124
2, 23809, Note_on_c, 9, 36, 0
2, 23809, Note_on_c, 9, 42, 0
2, 23904, Note_on_c, 9, 42, 83
2, 23904, Note_on_c, 9, 36, 52
2, 23905, Note_on_c, 9, 36, 0
2, 23905, Note_on_c, 9, 42, 0
2, 24000, Note_on_c, 9, 39, 100
2, 24000, Note_on_c, 9, 42, 100
2, 24000, Note_on_c, 9, 40, 124
2, 24001, Note_on_c, 9, 40, 0
2, 24001, Note_on_c, 9, 42, 0
2, 24001, Note_on_c, 9, 39, 0
2, 24096, Note_on_c, 9, 42, 71
2, 24097, Note_on_c, 9, 42, 0
2, 24144, Note_on_c, 9, 36, 68
2, 24145, Note_on_c, 9, 36, 0
2, 24192, Note_on_c, 9, 42, 116
2, 24192, Note_on_c, 9, 36, 124
2, 24193, Note_on_c, 9, 36, 0
2, 24193, Note_on_c, 9, 42, 0
2, 24288, Note_on_c, 9, 42, 61
2, 24288, Note_on_c, 9, 36, 80
2, 24289, Note_on_c, 9, 36, 0
2, 24289, Note_on_c, 9, 42, 0
2, 24384, Note_on_c, 9, 39, 116
2, 24384, Note_on_c, 9, 42, 116
2, 24384, Note_on_c, 9, 40, 124
2, 24385, Note_on_c, 9, 40, 0
2, 24385, Note_on_c, 9, 42, 0
2, 24385, Note_on_c, 9, 39, 0
2, 24480, Note_on_c, 9, 42, 61
2, 24481, Note_on_c, 9, 42, 0
2, 24528, Note_on_c, 9, 36, 59
2, 24529, Note_on_c, 9, 36, 0
2, 24576, Note_on_c, 9, 42, 116
2, 24576, Note_on_c, 9, 36, 112
2, 24577, Note_on_c, 9, 36, 0
2, 24577, Note_on_c, 9, 42, 0
2, 24672, Note_on_c, 9, 42, 48
2, 24672, Note_on_c, 9, 36, 95
2, 24673, Note_on_c, 9, 36, 0
2, 24673, Note_on_c, 9, 42, 0
2, 24768, Note_on_c, 9, 39, 116
2, 24768, Note_on_c, 9, 42, 100
2, 24768, Note_on_c, 9, 40, 124
2, 24769, Note_on_c, 9, 40, 0
2, 24769, Note_on_c, 9, 42, 0
2, 24769, Note_on_c, 9, 39, 0
2, 24864, Note_on_c, 9, 42, 83
2, 24865, Note_on_c, 9, 42, 0
2, 24912, Note_on_c, 9, 36, 43
2, 24913, Note_on_c, 9, 36, 0
2, 24960, Note_on_c, 9, 42, 116
2, 24960, Note_on_c, 9, 36, 112
2, 24961, Note_on_c, 9, 36, 0
2, 24961, Note_on_c, 9, 42, 0
2, 25056, Note_on_c, 9, 42, 48
2, 25056, Note_on_c, 9, 36, 95
2, 25057, Note_on_c, 9, 36, 0
2, 25057, Note_on_c, 9, 42, 0
2, 25152, Note_on_c, 9, 39, 100
2, 25152, Note_on_c, 9, 42, 100
2, 25152, Note_on_c, 9, 40, 124
2, 25153, Note_on_c, 9, 40, 0
2, 25153, Note_on_c, 9, 42, 0
2, 25153, Note_on_c, 9, 39, 0
2, 25248, Note_on_c, 9, 46, 116
2, 25248, Note_on_c, 9, 36, 59
2, 25249, Note_on_c, 9, 36, 0
2, 25249, Note_on_c, 9, 46, 0
2, 25344, Note_on_c, 9, 42, 83
2, 25344, Note_on_c, 9, 36, 124
2, 25345, Note_on_c, 9, 36, 0
2, 25345, Note_on_c, 9, 42, 0
2, 25440, Note_on_c, 9, 42, 44
2, 25440, Note_on_c, 9, 36, 68
2, 25441, Note_on_c, 9, 36, 0
2, 25441, Note_on_c, 9, 42, 0
2, 25536, Note_on_c, 9, 39, 100
2, 25536, Note_on_c, 9, 42, 100
2, 25536, Note_on_c, 9, 40, 112
2, 25537, Note_on_c, 9, 40, 0
2, 25537, Note_on_c, 9, 42, 0
2, 25537, Note_on_c, 9, 39, 0
2, 25632, Note_on_c, 9, 42, 54
2, 25633, Note_on_c, 9, 42, 0
2, 25680, Note_on_c, 9, 36, 59
2, 25681, Note_on_c, 9, 36, 0
2, 25728, Note_on_c, 9, 42, 116
2, 25728, Note_on_c, 9, 36, 124
2, 25729, Note_on_c, 9, 36, 0
2, 25729, Note_on_c, 9, 42, 0
2, 25824, Note_on_c, 9, 42, 61
2, 25824, Note_on_c, 9, 36, 80
2, 25825, Note_on_c, 9, 36, 0
2, 25825, Note_on_c, 9, 42, 0
2, 25920, Note_on_c, 9, 39, 100
2, 25920, Note_on_c, 9, 42, 116
2, 25920, Note_on_c, 9, 40, 112
2, 25921, Note_on_c, 9, 40, 0
2, 25921, Note_on_c, 9, 42, 0
2, 25921, Note_on_c, 9, 39, 0
2, 26016, Note_on_c, 9, 42, 61
2, 26017, Note_on_c, 9, 42, 0
2, 26112, Note_on_c, 9, 42, 116
2, 26112, Note_on_c, 9, 36, 112
2, 26113, Note_on_c, 9, 36, 0
2, 26113, Note_on_c, 9, 42, 0
2, 26208, Note_on_c, 9, 42, 61
2, 26208, Note_on_c, 9, 36, 59
2, 26209, Note_on_c, 9, 36, 0
2, 26209, Note_on_c, 9, 42, 0
2, 26304, Note_on_c, 9, 39, 100
2, 26304, Note_on_c, 9, 42, 116
2, 26304, Note_on_c, 9, 40, 124
2, 26305, Note_on_c, 9, 40, 0
2, 26305, Note_on_c, 9, 42, 0
2, 26305, Note_on_c, 9, 39, 0
2, 26400, Note_on_c, 9, 42, 54
2, 26401, Note_on_c, 9, 42, 0
2, 26448, Note_on_c, 9, 36, 59
2, 26449, Note_on_c, 9, 36, 0
2, 26496, Note_on_c, 9, 42, 116
2, 26496, Note_on_c, 9, 36, 124
2, 26497, Note_on_c, 9, 36, 0
2, 26497, Note_on_c, 9, 42, 0
2, 26592, Note_on_c, 9, 42, 71
2, 26592, Note_on_c, 9, 36, 68
2, 26593, Note_on_c, 9, 36, 0
2, 26593, Note_on_c, 9, 42, 0
2, 26688, Note_on_c, 9, 39, 100
2, 26688, Note_on_c, 9, 42, 100
2, 26688, Note_on_c, 9, 40, 124
2, 26689, Note_on_c, 9, 40, 0
2, 26689, Note_on_c, 9, 42, 0
2, 26689, Note_on_c, 9, 39, 0
2, 26784, Note_on_c, 9, 46, 100
2, 26785, Note_on_c, 9, 46, 0
2, 26832, Note_on_c, 9, 36, 35
2, 26833, Note_on_c, 9, 36, 0
2, 26880, Note_on_c, 9, 42, 100
2, 26880, Note_on_c, 9, 36, 124
2, 26881, Note_on_c, 9, 36, 0
2, 26881, Note_on_c, 9, 42, 0
2, 26976, Note_on_c, 9, 42, 83
2, 26976, Note_on_c, 9, 36, 52
2, 26977, Note_on_c, 9, 36, 0
2, 26977, Note_on_c, 9, 42, 0
2, 27072, Note_on_c, 9, 39, 100
2, 27072, Note_on_c, 9, 42, 100
2, 27072, Note_on_c, 9, 40, 124
2, 27073, Note_on_c, 9, 40, 0
2, 27073, Note_on_c, 9, 42, 0
2, 27073, Note_on_c, 9, 39, 0
2, 27168, Note_on_c, 9, 42, 71
2, 27169, Note_on_c, 9, 42, 0
2, 27216, Note_on_c, 9, 36, 68
2, 27217, Note_on_c, 9, 36, 0
2, 27264, Note_on_c, 9, 42, 116
2, 27264, Note_on_c, 9, 36, 124
2, 27265, Note_on_c, 9, 36, 0
2, 27265, Note_on_c, 9, 42, 0
2, 27360, Note_on_c, 9, 42, 61
2, 27360, Note_on_c, 9, 36, 80
2, 27361, Note_on_c, 9, 36, 0
2, 27361, Note_on_c, 9, 42, 0
2, 27456, Note_on_c, 9, 39, 116
2, 27456, Note_on_c, 9, 42, 116
2, 27456, Note_on_c, 9, 40, 124
2, 27457, Note_on_c, 9, 40, 0
2, 27457, Note_on_c, 9, 42, 0
2, 27457, Note_on_c, 9, 39, 0
2, 27552, Note_on_c, 9, 42, 61
2, 27553, Note_on_c, 9, 42, 0
2, 27600, Note_on_c, 9, 36, 59
2, 27601, Note_on_c, 9, 36, 0
2, 27648, Note_on_c, 9, 42, 116
2, 27648, Note_on_c, 9, 36, 112
2, 27649, Note_on_c, 9, 36, 0
2, 27649, Note_on_c, 9, 42, 0
2, 27744, Note_on_c, 9, 42, 48
2, 27744, Note_on_c, 9, 36, 95
2, 27745, Note_on_c, 9, 36, 0
2, 27745, Note_on_c, 9, 42, 0
2, 27840, Note_on_c, 9, 39, 116
2, 27840, Note_on_c, 9, 42, 100
2, 27840, Note_on_c, 9, 40, 124
2, 27841, Note_on_c, 9, 40, 0
2, 27841, Note_on_c, 9, 42, 0
2, 27841, Note_on_c, 9, 39, 0
2, 27936, Note_on_c, 9, 42, 83
2, 27937, Note_on_c, 9, 42, 0
2, 27984, Note_on_c, 9, 36, 43
2, 27985, Note_on_c, 9, 36, 0
2, 28032, Note_on_c, 9, 42, 116
2, 28032, Note_on_c, 9, 36, 112
2, 28033, Note_on_c, 9, 36, 0
2, 28033, Note_on_c, 9, 42, 0
2, 28128, Note_on_c, 9, 42, 48
2, 28128, Note_on_c, 9, 36, 95
2, 28129, Note_on_c, 9, 36, 0
2, 28129, Note_on_c, 9, 42, 0
2, 28224, Note_on_c, 9, 39, 100
2, 28224, Note_on_c, 9, 42, 100
2, 28224, Note_on_c, 9, 40, 124
2, 28225, Note_on_c, 9, 40, 0
2, 28225, Note_on_c, 9, 42, 0
2, 28225, Note_on_c, 9, 39, 0
2, 28320, Note_on_c, 9, 46, 116
2, 28320, Note_on_c, 9, 36, 59
2, 28321, Note_on_c, 9, 36, 0
2, 28321, Note_on_c, 9, 46, 0
2, 28416, Note_on_c, 9, 42, 83
2, 28416, Note_on_c, 9, 36, 124
2, 28417, Note_on_c, 9, 36, 0
2, 28417, Note_on_c, 9, 42, 0
2, 28512, Note_on_c, 9, 42, 44
2, 28512, Note_on_c, 9, 36, 68
2, 28513, Note_on_c, 9, 36, 0
2, 28513, Note_on_c, 9, 42, 0
2, 28608, Note_on_c, 9, 39, 100
2, 28608, Note_on_c, 9, 42, 100
2, 28608, Note_on_c, 9, 40, 112
2, 28609, Note_on_c, 9, 40, 0
2, 28609, Note_on_c, 9, 42, 0
2, 28609, Note_on_c, 9, 39, 0
2, 28704, Note_on_c, 9, 42, 54
2, 28705, Note_on_c, 9, 42, 0
2, 28752, Note_on_c, 9, 36, 59
2, 28753, Note_on_c, 9, 36, 0
2, 28800, Note_on_c, 9, 42, 116
2, 28800, Note_on_c, 9, 36, 124
2, 28801, Note_on_c, 9, 36, 0
2, 28801, Note_on_c, 9, 42, 0
2, 28896, Note_on_c, 9, 42, 61
2, 28896, Note_on_c, 9, 36, 80
2, 28897, Note_on_c, 9, 36, 0
2, 28897, Note_on_c, 9, 42, 0
2, 28992, Note_on_c, 9, 39, 100
2, 28992, Note_on_c, 9, 42, 116
2, 28992, Note_on_c, 9, 40, 112
2, 28993, Note_on_c, 9, 40, 0
2, 28993, Note_on_c, 9, 42, 0
2, 28993, Note_on_c, 9, 39, 0
2, 29088, Note_on_c, 9, 42, 61
2, 29089, Note_on_c, 9, 42, 0
2, 29184, Note_on_c, 9, 42, 116
2, 29184, Note_on_c, 9, 36, 112
2, 29185, Note_on_c, 9, 36, 0
2, 29185, Note_on_c, 9, 42, 0
2, 29280, Note_on_c, 9, 42, 61
2, 29280, Note_on_c, 9, 36, 59
2, 29281, Note_on_c, 9, 36, 0
2, 29281, Note_on_c, 9, 42, 0
2, 29376, Note_on_c, 9, 39, 100
2, 29376, Note_on_c, 9, 42, 116
2, 29376, Note_on_c, 9, 40, 124
2, 29377, Note_on_c, 9, 40, 0
2, 29377, Note_on_c, 9, 42, 0
2, 29377, Note_on_c, 9, 39, 0
2, 29472, Note_on_c, 9, 42, 54
2, 29473, Note_on_c, 9, 42, 0
2, 29520, Note_on_c, 9, 36, 59
2, 29521, Note_on_c, 9, 36, 0
2, 29568, Note_on_c, 9, 42, 116
2, 29568, Note_on_c, 9, 36, 124
2, 29569, Note_on_c, 9, 36, 0
2, 29569, Note_on_c, 9, 42, 0
2, 29664, Note_on_c, 9, 42, 71
2, 29664, Note_on_c, 9, 36, 68
2, 29665, Note_on_c, 9, 36, 0
2, 29665, Note_on_c, 9, 42, 0
2, 29760, Note_on_c, 9, 39, 100
2, 29760, Note_on_c, 9, 42, 100
2, 29760, Note_on_c, 9, 40, 124
2, 29761, Note_on_c, 9, 40, 0
2, 29761, Note_on_c, 9, 42, 0
2, 29761, Note_on_c, 9, 39, 0
2, 29856, Note_on_c, 9, 46, 100
2, 29857, Note_on_c, 9, 46, 0
2, 29904, Note_on_c, 9, 36, 35
2, 29905, Note_on_c, 9, 36, 0
2, 29952, Note_on_c, 9, 42, 100
2, 29952, Note_on_c, 9, 36, 124
2, 29953, Note_on_c, 9, 36, 0
2, 29953, Note_on_c, 9, 42, 0
2, 30048, Note_on_c, 9, 42, 83
2, 30048, Note_on_c, 9, 36, 52
2, 30049, Note_on_c, 9, 36, 0
2, 30049, Note_on_c, 9, 42, 0
2, 30144, Note_on_c, 9, 39, 100
2, 30144, Note_on_c, 9, 42, 100
2, 30144, Note_on_c, 9, 40, 124
2, 30145, Note_on_c, 9, 40, 0
2, 30145, Note_on_c, 9, 42, 0
2, 30145, Note_on_c, 9, 39, 0
2, 30240, Note_on_c, 9, 42, 71
2, 30241, Note_on_c, 9, 42, 0
2, 30288, Note_on_c, 9, 36, 68
2, 30289, Note_on_c, 9, 36, 0
2, 30336, Note_on_c, 9, 42, 116
2, 30336, Note_on_c, 9, 36, 124
2, 30337, Note_on_c, 9, 36, 0
2, 30337, Note_on_c, 9, 42, 0
2, 30432, Note_on_c, 9, 42, 61
2, 30432, Note_on_c, 9, 36, 80
2, 30433, Note_on_c, 9, 36, 0
2, 30433, Note_on_c, 9, 42, 0
2, 30528, Note_on_c, 9, 39, 116
2, 30528, Note_on_c, 9, 42, 116
2, 30528, Note_on_c, 9, 40, 124
2, 30529, Note_on_c, 9, 40, 0
2, 30529, Note_on_c, 9, 42, 0
2, 30529, Note_on_c, 9, 39, 0
2, 30624, Note_on_c, 9, 42, 61
2, 30625, Note_on_c, 9, 42, 0
2, 30672, Note_on_c, 9, 36, 59
2, 30673, Note_on_c, 9, 36, 0
2, 30720, Note_on_c, 9, 42, 116
2, 30720, Note_on_c, 9, 36, 112
2, 30721, Note_on_c, 9, 36, 0
2, 30721, Note_on_c, 9, 42, 0
2, 30816, Note_on_c, 9, 42, 48
2, 30816, Note_on_c, 9, 36, 95
2, 30817, Note_on_c, 9, 36, 0
2, 30817, Note_on_c, 9, 42, 0
2, 30912, Note_on_c, 9, 39, 116
2, 30912, Note_on_c, 9, 42, 100
2, 30912, Note_on_c, 9, 40, 124
2, 30913, Note_on_c, 9, 40, 0
2, 30913, Note_on_c, 9, 42, 0
2, 30913, Note_on_c, 9, 39, 0
2, 31008, Note_on_c, 9, 42, 83
2, 31009, Note_on_c, 9, 42, 0
2, 31056, Note_on_c, 9, 36, 43
2, 31057, Note_on_c, 9, 36, 0
2, 31104, Note_on_c, 9, 42, 116
2, 31104, Note_on_c, 9, 36, 112
2, 31105, Note_on_c, 9, 36, 0
2, 31105, Note_on_c, 9, 42, 0
2, 31200, Note_on_c, 9, 42, 48
2, 31200, Note_on_c, 9, 36, 95
2, 31201, Note_on_c, 9, 36, 0
2, 31201, Note_on_c, 9, 42, 0
2, 31296, Note_on_c, 9, 39, 100
2, 31296, Note_on_c, 9, 42, 100
2, 31296, Note_on_c, 9, 40, 124
2, 31297, Note_on_c, 9, 40, 0
2, 31297, Note_on_c, 9, 42, 0
2, 31297, Note_on_c, 9, 39, 0
2, 31392, Note_on_c, 9, 46, 116
2, 31392, Note_on_c, 9, 36, 59
2, 31393, Note_on_c, 9, 36, 0
2, 31393, Note_on_c, 9, 46, 0
2, 31488, Note_on_c, 9, 42, 83
2, 31488, Note_on_c, 9, 36, 124
2, 31489, Note_on_c, 9, 36, 0
2, 31489, Note_on_c, 9, 42, 0
2, 31584, Note_on_c, 9, 42, 44
2, 31584, Note_on_c, 9, 36, 68
2, 31585, Note_on_c, 9, 36, 0
2, 31585, Note_on_c, 9, 42, 0
2, 31680, Note_on_c, 9, 39, 100
2, 31680, Note_on_c, 9, 42, 100
2, 31680, Note_on_c, 9, 40, 112
2, 31681, Note_on_c, 9, 40, 0
2, 31681, Note_on_c, 9, 42, 0
2, 31681, Note_on_c, 9, 39, 0
2, 31776, Note_on_c, 9, 42, 54
2, 31777, Note_on_c, 9, 42, 0
2, 31824, Note_on_c, 9, 36, 59
2, 31825, Note_on_c, 9, 36, 0
2, 31872, Note_on_c, 9, 42, 116
2, 31872, Note_on_c, 9, 36, 124
2, 31873, Note_on_c, 9, 36, 0
2, 31873, Note_on_c, 9, 42, 0
2, 31968, Note_on_c, 9, 42, 61
2, 31968, Note_on_c, 9, 36, 80
2, 31969, Note_on_c, 9, 36, 0
2, 31969, Note_on_c, 9, 42, 0
2, 32064, Note_on_c, 9, 39, 100
2, 32064, Note_on_c, 9, 42, 116
2, 32064, Note_on_c, 9, 40, 112
2, 32065, Note_on_c, 9, 40, 0
2, 32065, Note_on_c, 9, 42, 0
2, 32065, Note_on_c, 9, 39, 0
2, 32160, Note_on_c, 9, 42, 61
2, 32161, Note_on_c, 9, 42, 0
2, 32256, Note_on_c, 9, 42, 116
2, 32256, Note_on_c, 9, 36, 112
2, 32257, Note_on_c, 9, 36, 0
2, 32257, Note_on_c, 9, 42, 0
2, 32352, Note_on_c, 9, 42, 61
2, 32352, Note_on_c, 9, 36, 59
2, 32353, Note_on_c, 9, 36, 0
2, 32353, Note_on_c, 9, 42, 0
2, 32448, Note_on_c, 9, 39, 100
2, 32448, Note_on_c, 9, 42, 116
2, 32448, Note_on_c, 9, 40, 124
2, 32449, Note_on_c, 9, 40, 0
2, 32449, Note_on_c, 9, 42, 0
2, 32449, Note_on_c, 9, 39, 0
2, 32544, Note_on_c, 9, 42, 54
2, 32545, Note_on_c, 9, 42, 0
2, 32592, Note_on_c, 9, 36, 59
2, 32593, Note_on_c, 9, 36, 0
2, 32640, Note_on_c, 9, 42, 116
2, 32640, Note_on_c, 9, 36, 124
2, 32641, Note_on_c, 9, 36, 0
2, 32641, Note_on_c, 9, 42, 0
2, 32736, Note_on_c, 9, 42, 71
2, 32736, Note_on_c, 9, 36, 68
2, 32737, Note_on_c, 9, 36, 0
2, 32737, Note_on_c, 9, 42, 0
2, 32832, Note_on_c, 9, 39, 100
2, 32832, Note_on_c, 9, 42, 100
2, 32832, Note_on_c, 9, 40, 124
2, 32833, Note_on_c, 9, 40, 0
2, 32833, Note_on_c, 9, 42, 0
2, 32833, Note_on_c, 9, 39, 0
2, 32928, Note_on_c, 9, 46, 100
2, 32929, Note_on_c, 9, 46, 0
2, 32976, Note_on_c, 9, 36, 35
2, 32977, Note_on_c, 9, 36, 0
2, 33024, Note_on_c, 9, 42, 100
2, 33024, Note_on_c, 9, 36, 124
2, 33025, Note_on_c, 9, 36, 0
2, 33025, Note_on_c, 9, 42, 0
2, 33120, Note_on_c, 9, 42, 83
2, 33120, Note_on_c, 9, 36, 52
2, 33121, Note_on_c, 9, 36, 0
2, 33121, Note_on_c, 9, 42, 0
2, 33216, Note_on_c, 9, 39, 100
2, 33216, Note_on_c, 9, 42, 100
2, 33216, Note_on_c, 9, 40, 124
2, 33217, Note_on_c, 9, 40, 0
2, 33217, Note_on_c, 9, 42, 0
2, 33217, Note_on_c, 9, 39, 0
2, 33312, Note_on_c, 9, 42, 71
2, 33313, Note_on_c, 9, 42, 0
2, 33360, Note_on_c, 9, 36, 68
2, 33361, Note_on_c, 9, 36, 0
2, 33408, Note_on_c, 9, 42, 116
2, 33408, Note_on_c, 9, 36, 124
2, 33409, Note_on_c, 9, 36, 0
2, 33409, Note_on_c, 9, 42, 0
2, 33504, Note_on_c, 9, 42, 61
2, 33504, Note_on_c, 9, 36, 80
2, 33505, Note_on_c, 9, 36, 0
2, 33505, Note_on_c, 9, 42, 0
2, 33600, Note_on_c, 9, 39, 116
2, 33600, Note_on_c, 9, 42, 116
2, 33600, Note_on_c, 9, 40, 124
2, 33601, Note_on_c, 9, 40, 0
2, 33601, Note_on_c, 9, 42, 0
2, 33601, Note_on_c, 9, 39, 0
2, 33696, Note_on_c, 9, 42, 61
2, 33697, Note_on_c, 9, 42, 0
2, 33744, Note_on_c, 9, 36, 59
2, 33745, Note_on_c, 9, 36, 0
2, 33792, Note_on_c, 9, 42, 116
2, 33792, Note_on_c, 9, 36, 112
2, 33793, Note_on_c, 9, 36, 0
2, 33793, Note_on_c, 9, 42, 0
2, 33888, Note_on_c, 9, 42, 48
2, 33888, Note_on_c, 9, 36, 95
2, 33889, Note_on_c, 9, 36, 0
2, 33889, Note_on_c, 9, 42, 0
2, 33984, Note_on_c, 9, 39, 116
2, 33984, Note_on_c, 9, 42, 100
2, 33984, Note_on_c, 9, 40, 124
2, 33985, Note_on_c, 9, 40, 0
2, 33985, Note_on_c, 9, 42, 0
2, 33985, Note_on_c, 9, 39, 0
2, 34080, Note_on_c, 9, 42, 83
2, 34081, Note_on_c, 9, 42, 0
2, 34128, Note_on_c, 9, 36, 43
2, 34129, Note_on_c, 9, 36, 0
2, 34176, Note_on_c, 9, 42, 116
2, 34176, Note_on_c, 9, 36, 112
2, 34177, Note_on_c, 9, 36, 0
2, 34177, Note_on_c, 9, 42, 0
2, 34272, Note_on_c, 9, 42, 48
2, 34272, Note_on_c, 9, 36, 95
2, 34273, Note_on_c, 9, 36, 0
2, 34273, Note_on_c, 9, 42, 0
2, 34368, Note_on_c, 9, 39, 100
2, 34368, Note_on_c, 9, 42, 100
2, 34368, Note_on_c, 9, 40, 124
2, 34369, Note_on_c, 9, 40, 0
2, 34369, Note_on_c, 9, 42, 0
2, 34369, Note_on_c, 9, 39, 0
2, 34464, Note_on_c, 9, 46, 116
2, 34464, Note_on_c, 9, 36, 59
2, 34465, Note_on_c, 9, 36, 0
2, 34465, Note_on_c, 9, 46, 0
2, 34560, Note_on_c, 9, 42, 83
2, 34560, Note_on_c, 9, 36, 124
2, 34561, Note_on_c, 9, 36, 0
2, 34561, Note_on_c, 9, 42, 0
2, 34656, Note_on_c, 9, 42, 44
2, 34656, Note_on_c, 9, 36, 68
2, 34657, Note_on_c, 9, 36, 0
2, 34657, Note_on_c, 9, 42, 0
2, 34752, Note_on_c, 9, 39, 100
2, 34752, Note_on_c, 9, 42, 100
2, 34752, Note_on_c, 9, 40, 112
2, 34753, Note_on_c, 9, 40, 0
2, 34753, Note_on_c, 9, 42, 0
2, 34753, Note_on_c, 9, 39, 0
2, 34848, Note_on_c, 9, 42, 54
2, 34849, Note_on_c, 9, 42, 0
2, 34896, Note_on_c, 9, 36, 59
2, 34897, Note_on_c, 9, 36, 0
2, 34944, Note_on_c, 9, 42, 116
2, 34944, Note_on_c, 9, 36, 124
2, 34945, Note_on_c, 9, 36, 0
2, 34945, Note_on_c, 9, 42, 0
2, 35040, Note_on_c, 9, 42, 61
2, 35040, Note_on_c, 9, 36, 80
2, 35041, Note_on_c, 9, 36, 0
2, 35041, Note_on_c, 9, 42, 0
2, 35136, Note_on_c, 9, 39, 100
2, 35136, Note_on_c, 9, 42, 116
2, 35136, Note_on_c, 9, 40, 112
2, 35137, Note_on_c, 9, 40, 0
2, 35137, Note_on_c, 9, 42, 0
2, 35137, Note_on_c, 9, 39, 0
2, 35232, Note_on_c, 9, 42, 61
2, 35233, Note_on_c, 9, 42, 0
2, 35328, Note_on_c, 9, 42, 116
2, 35328, Note_on_c, 9, 36, 112
2, 35329, Note_on_c, 9, 36, 0
2, 35329, Note_on_c, 9, 42, 0
2, 35424, Note_on_c, 9, 42, 61
2, 35424, Note_on_c, 9, 36, 59
2, 35425, Note_on_c, 9, 36, 0
2, 35425, Note_on_c, 9, 42, 0
2, 35520, Note_on_c, 9, 39, 100
2, 35520, Note_on_c, 9, 42, 116
2, 35520, Note_on_c, 9, 40, 124
2, 35521, Note_on_c, 9, 40, 0
2, 35521, Note_on_c, 9, 42, 0
2, 35521, Note_on_c, 9, 39, 0
2, 35616, Note_on_c, 9, 42, 54
2, 35617, Note_on_c, 9, 42, 0
2, 35664, Note_on_c, 9, 36, 59
2, 35665, Note_on_c, 9, 36, 0
2, 35712, Note_on_c, 9, 42, 116
2, 35712, Note_on_c, 9, 36, 124
2, 35713, Note_on_c, 9, 36, 0
2, 35713, Note_on_c, 9, 42, 0
2, 35808, Note_on_c, 9, 42, 71
2, 35808, Note_on_c, 9, 36, 68
2, 35809, Note_on_c, 9, 36, 0
2, 35809, Note_on_c, 9, 42, 0
2, 35904, Note_on_c, 9, 39, 100
2, 35904, Note_on_c, 9, 42, 100
2, 35904, Note_on_c, 9, 40, 124
2, 35905, Note_on_c, 9, 40, 0
2, 35905, Note_on_c, 9, 42, 0
2, 35905, Note_on_c, 9, 39, 0
2, 36000, Note_on_c, 9, 46, 100
2, 36001, Note_on_c, 9, 46, 0
2, 36048, Note_on_c, 9, 36, 35
2, 36049, Note_on_c, 9, 36, 0
2, 36096, Note_on_c, 9, 42, 100
2, 36096, Note_on_c, 9, 36, 124
2, 36097, Note_on_c, 9, 36, 0
2, 36097, Note_on_c, 9, 42, 0
2, 36192, Note_on_c, 9, 42, 83
2, 36192, Note_on_c, 9, 36, 52
2, 36193, Note_on_c, 9, 36, 0
2, 36193, Note_on_c, 9, 42, 0
2, 36288, Note_on_c, 9, 39, 100
2, 36288, Note_on_c, 9, 42, 100
2, 36288, Note_on_c, 9, 40, 124
2, 36289, Note_on_c, 9, 40, 0
2, 36289, Note_on_c, 9, 42, 0
2, 36289, Note_on_c, 9, 39, 0
2, 36384, Note_on_c, 9, 42, 71
2, 36385, Note_on_c, 9, 42, 0
2, 36432, Note_on_c, 9, 36, 68
2, 36433, Note_on_c, 9, 36, 0
2, 36480, Note_on_c, 9, 42, 116
2, 36480, Note_on_c, 9, 36, 124
2, 36481, Note_on_c, 9, 36, 0
2, 36481, Note_on_c, 9, 42, 0
2, 36576, Note_on_c, 9, 42, 61
2, 36576, Note_on_c, 9, 36, 80
2, 36577, Note_on_c, 9, 36, 0
2, 36577, Note_on_c, 9, 42, 0
2, 36672, Note_on_c, 9, 39, 116
2, 36672, Note_on_c, 9, 42, 116
2, 36672, Note_on_c, 9, 40, 124
2, 36673, Note_on_c, 9, 40, 0
2, 36673, Note_on_c, 9, 42, 0
2, 36673, Note_on_c, 9, 39, 0
2, 36768, Note_on_c, 9, 42, 61
2, 36769, Note_on_c, 9, 42, 0
2, 36816, Note_on_c, 9, 36, 59
2, 36817, Note_on_c, 9, 36, 0
2, 36864, Note_on_c, 9, 42, 116
2, 36864, Note_on_c, 9, 36, 112
2, 36865, Note_on_c, 9, 36, 0
2, 36865, Note_on_c, 9, 42, 0
2, 36960, Note_on_c, 9, 42, 48
2, 36960, Note_on_c, 9, 36, 95
2, 36961, Note_on_c, 9, 36, 0
2, 36961, Note_on_c, 9, 42, 0
2, 37056, Note_on_c, 9, 39, 116
2, 37056, Note_on_c, 9, 42, 100
2, 37056, Note_on_c, 9, 40, 124
2, 37057, Note_on_c, 9, 40, 0
2, 37057, Note_on_c, 9, 42, 0
2, 37057, Note_on_c, 9, 39, 0
2, 37152, Note_on_c, 9, 42, 83
2, 37153, Note_on_c, 9, 42, 0
2, 37200, Note_on_c, 9, 36, 43
2, 37201, Note_on_c, 9, 36, 0
2, 37248, Note_on_c, 9, 42, 116
2, 37248, Note_on_c, 9, 36, 112
2, 37249, Note_on_c, 9, 36, 0
2, 37249, Note_on_c, 9, 42, 0
2, 37344, Note_on_c, 9, 42, 48
2, 37344, Note_on_c, 9, 36, 95
2, 37345, Note_on_c, 9, 36, 0
2, 37345, Note_on_c, 9, 42, 0
2, 37440, Note_on_c, 9, 39, 100
2, 37440, Note_on_c, 9, 42, 100
2, 37440, Note_on_c, 9, 40, 124
2, 37441, Note_on_c, 9, 40, 0
2, 37441, Note_on_c, 9, 42, 0
2, 37441, Note_on_c, 9, 39, 0
2, 37536, Note_on_c, 9, 46, 116
2, 37536, Note_on_c, 9, 36, 59
2, 37537, Note_on_c, 9, 36, 0
2, 37537, Note_on_c, 9, 46, 0
2, 37632, Note_on_c, 9, 42, 83
2, 37632, Note_on_c, 9, 36, 124
2, 37633, Note_on_c, 9, 36, 0
2, 37633, Note_on_c, 9, 42, 0
2, 37728, Note_on_c, 9, 42, 44
2, 37728, Note_on_c, 9, 36, 68
2, 37729, Note_on_c, 9, 36, 0
2, 37729, Note_on_c, 9, 42, 0
2, 37824, Note_on_c, 9, 39, 100
2, 37824, Note_on_c, 9, 42, 100
2, 37824, Note_on_c, 9, 40, 112
2, 37825, Note_on_c, 9, 40, 0
2, 37825, Note_on_c, 9, 42, 0
2, 37825, Note_on_c, 9, 39, 0
2, 37920, Note_on_c, 9, 42, 54
2, 37921, Note_on_c, 9, 42, 0
2, 37968, Note_on_c, 9, 36, 59
2, 37969, Note_on_c, 9, 36, 0
2, 38016, Note_on_c, 9, 42, 116
2, 38016, Note_on_c, 9, 36, 124
2, 38017, Note_on_c, 9, 36, 0
2, 38017, Note_on_c, 9, 42, 0
2, 38112, Note_on_c, 9, 42, 61
2, 38112, Note_on_c, 9, 36, 80
2, 38113, Note_on_c, 9, 36, 0
2, 38113, Note_on_c, 9, 42, 0
2, 38208, Note_on_c, 9, 39, 100
2, 38208, Note_on_c, 9, 42, 116
2, 38208, Note_on_c, 9, 40, 112
2, 38209, Note_on_c, 9, 40, 0
2, 38209, Note_on_c, 9, 42, 0
2, 38209, Note_on_c, 9, 39, 0
2, 38304, Note_on_c, 9, 42, 61
2, 38305, Note_on_c, 9, 42, 0
2, 38400, Note_on_c, 9, 42, 116
2, 38400, Note_on_c, 9, 36, 112
2, 38401, Note_on_c, 9, 36, 0
2, 38401, Note_on_c, 9, 42, 0
2, 38496, Note_on_c, 9, 42, 61
2, 38496, Note_on_c, 9, 36, 59
2, 38497, Note_on_c, 9, 36, 0
2, 38497, Note_on_c, 9, 42, 0
2, 38592, Note_on_c, 9, 39, 100
2, 38592, Note_on_c, 9, 42, 116
2, 38592, Note_on_c, 9, 40, 124
2, 38593, Note_on_c, 9, 40, 0
2, 38593, Note_on_c, 9, 42, 0
2, 38593, Note_on_c, 9, 39, 0
2, 38688, Note_on_c, 9, 42, 54
2, 38689, Note_on_c, 9, 42, 0
2, 38736, Note_on_c, 9, 36, 59
2, 38737, Note_on_c, 9, 36, 0
2, 38784, Note_on_c, 9, 42, 116
2, 38784, Note_on_c, 9, 36, 124
2, 38785, Note_on_c, 9, 36, 0
2, 38785, Note_on_c, 9, 42, 0
2, 38880, Note_on_c, 9, 42, 71
2, 38880, Note_on_c, 9, 36, 68
2, 38881, Note_on_c, 9, 36, 0
2, 38881, Note_on_c, 9, 42, 0
2, 38976, Note_on_c, 9, 39, 100
2, 38976, Note_on_c, 9, 42, 100
2, 38976, Note_on_c, 9, 40, 124
2, 38977, Note_on_c, 9, 40, 0
2, 38977, Note_on_c, 9, 42, 0
2, 38977, Note_on_c, 9, 39, 0
2, 39072, Note_on_c, 9, 46, 100
2, 39073, Note_on_c, 9, 46, 0
2, 39120, Note_on_c, 9, 36, 35
2, 39121, Note_on_c, 9, 36, 0
2, 39168, Note_on_c, 9, 42, 100
2, 39168, Note_on_c, 9, 36, 124
2, 39169, Note_on_c, 9, 36, 0
2, 39169, Note_on_c, 9, 42, 0
2, 39264, Note_on_c, 9, 42, 83
2, 39264, Note_on_c, 9, 36, 52
2, 39265, Note_on_c, 9, 36, 0
2, 39265, Note_on_c, 9, 42, 0
2, 39360, Note_on_c, 9, 39, 100
2, 39360, Note_on_c, 9, 42, 100
2, 39360, Note_on_c, 9, 40, 124
2, 39361, Note_on_c, 9, 40, 0
2, 39361, Note_on_c, 9, 42, 0
2, 39361, Note_on_c, 9, 39, 0
2, 39456, Note_on_c, 9, 42, 71
2, 39457, Note_on_c, 9, 42, 0
2, 39504, Note_on_c, 9, 36, 68
2, 39505, Note_on_c, 9, 36, 0
2, 39552, Note_on_c, 9, 42, 116
2, 39552, Note_on_c, 9, 36, 124
2, 39553, Note_on_c, 9, 36, 0
2, 39553, Note_on_c, 9, 42, 0
2, 39648, Note_on_c, 9, 42, 61
2, 39648, Note_on_c, 9, 36, 80
2, 39649, Note_on_c, 9, 36, 0
2, 39649, Note_on_c, 9, 42, 0
2, 39744, Note_on_c, 9, 39, 116
2, 39744, Note_on_c, 9, 42, 116
2, 39744, Note_on_c, 9, 40, 124
2, 39745, Note_on_c, 9, 40, 0
2, 39745, Note_on_c, 9, 42, 0
2, 39745, Note_on_c, 9, 39, 0
2, 39840, Note_on_c, 9, 42, 61
2, 39841, Note_on_c, 9, 42, 0
2, 39888, Note_on_c, 9, 36, 59
2, 39889, Note_on_c, 9, 36, 0
2, 39936, Note_on_c, 9, 42, 116
2, 39936, Note_on_c, 9, 36, 112
2, 39937, Note_on_c, 9, 36, 0
2, 39937, Note_on_c, 9, 42, 0
2, 40032, Note_on_c, 9, 42, 48
2, 40032, Note_on_c, 9, 36, 95
2, 40033, Note_on_c, 9, 36, 0
2, 40033, Note_on_c, 9, 42, 0
2, 40128, Note_on_c, 9, 39, 116
2, 40128, Note_on_c, 9, 42, 100
2, 40128, Note_on_c, 9, 40, 124
2, 40129, Note_on_c, 9, 40, 0
2, 40129, Note_on_c, 9, 42, 0
2, 40129, Note_on_c, 9, 39, 0
2, 40224, Note_on_c, 9, 42, 83
2, 40225, Note_on_c, 9, 42, 0
2, 40272, Note_on_c, 9, 36, 43
2, 40273, Note_on_c, 9, 36, 0
2, 40320, Note_on_c, 9, 42, 116
2, 40320, Note_on_c, 9, 36, 112
2, 40321, Note_on_c, 9, 36, 0
2, 40321, Note_on_c, 9, 42, 0
2, 40416, Note_on_c, 9, 42, 48
2, 40416, Note_on_c, 9, 36, 95
2, 40417, Note_on_c, 9, 36, 0
2, 40417, Note_on_c, 9, 42, 0
2, 40512, Note_on_c, 9, 39, 100
2, 40512, Note_on_c, 9, 42, 100
2, 40512, Note_on_c, 9, 40, 124
2, 40513, Note_on_c, 9, 40, 0
2, 40513, Note_on_c, 9, 42, 0
2, 40513, Note_on_c, 9, 39, 0
2, 40608, Note_on_c, 9, 46, 116
2, 40608, Note_on_c, 9, 36, 59
2, 40609, Note_on_c, 9, 36, 0
2, 40609, Note_on_c, 9, 46, 0
2, 40704, Note_on_c, 9, 42, 83
2, 40704, Note_on_c, 9, 36, 124
2, 40705, Note_on_c, 9, 36, 0
2, 40705, Note_on_c, 9, 42, 0
2, 40800, Note_on_c, 9, 42, 44
2, 40800, Note_on_c, 9, 36, 68
2, 40801, Note_on_c, 9, 36, 0
2, 40801, Note_on_c, 9, 42, 0
2, 40896, Note_on_c, 9, 39, 100
2, 40896, Note_on_c, 9, 42, 100
2, 40896, Note_on_c, 9, 40, 112
2, 40897, Note_on_c, 9, 40, 0
2, 40897, Note_on_c, 9, 42, 0
2, 40897, Note_on_c, 9, 39, 0
2, 40992, Note_on_c, 9, 42, 54
2, 40993, Note_on_c, 9, 42, 0
2, 41040, Note_on_c, 9, 36, 59
2, 41041, Note_on_c, 9, 36, 0
2, 41088, Note_on_c, 9, 42, 116
2, 41088, Note_on_c, 9, 36, 124
2, 41089, Note_on_c, 9, 36, 0
2, 41089, Note_on_c, 9, 42, 0
2, 41184, Note_on_c, 9, 42, 61
2, 41184, Note_on_c, 9, 36, 80
2, 41185, Note_on_c, 9, 36, 0
2, 41185, Note_on_c, 9, 42, 0
2, 41280, Note_on_c, 9, 39, 100
2, 41280, Note_on_c, 9, 42, 116
2, 41280, Note_on_c, 9, 40, 112
2, 41281, Note_on_c, 9, 40, 0
2, 41281, Note_on_c, 9, 42, 0
2, 41281, Note_on_c, 9, 39, 0
2, 41376, Note_on_c, 9, 42, 61
2, 41377, Note_on_c, 9, 42, 0
2, 41472, Note_on_c, 9, 42, 116
2, 41472, Note_on_c, 9, 36, 112
2, 41473, Note_on_c, 9, 36, 0
2, 41473, Note_on_c, 9, 42, 0
2, 41568, Note_on_c, 9, 42, 61
2, 41568, Note_on_c, 9, 36, 59
2, 41569, Note_on_c, 9, 36, 0
2, 41569, Note_on_c, 9, 42, 0
2, 41664, Note_on_c, 9, 39, 100
2, 41664, Note_on_c, 9, 42, 116
2, 41664, Note_on_c, 9, 40, 124
2, 41665, Note_on_c, 9, 40, 0
2, 41665, Note_on_c, 9, 42, 0
2, 41665, Note_on_c, 9, 39, 0
2, 41760, Note_on_c, 9, 42, 54
2, 41761, Note_on_c, 9, 42, 0
2, 41808, Note_on_c, 9, 36, 59
2, 41809, Note_on_c, 9, 36, 0
2, 41856, Note_on_c, 9, 42, 116
2, 41856, Note_on_c, 9, 36, 124
2, 41857, Note_on_c, 9, 36, 0
2, 41857, Note_on_c, 9, 42, 0
2, 41952, Note_on_c, 9, 42, 71
2, 41952, Note_on_c, 9, 36, 68
2, 41953, Note_on_c, 9, 36, 0
2, 41953, Note_on_c, 9, 42, 0
2, 42048, Note_on_c, 9, 39, 100
2, 42048, Note_on_c, 9, 42, 100
2, 42048, Note_on_c, 9, 40, 124
2, 42049, Note_on_c, 9, 40, 0
2, 42049, Note_on_c, 9, 42, 0
2, 42049, Note_on_c, 9, 39, 0
2, 42144, Note_on_c, 9, 46, 100
2, 42145, Note_on_c, 9, 46, 0
2, 42192, Note_on_c, 9, 36, 35
2, 42193, Note_on_c, 9, 36, 0
2, 42240, Note_on_c, 9, 42, 100
2, 42240, Note_on_c, 9, 36, 124
2, 42241, Note_on_c, 9, 36, 0
2, 42241, Note_on_c, 9, 42, 0
2, 42336, Note_on_c, 9, 42, 83
2, 42336, Note_on_c, 9, 36, 52
2, 42337, Note_on_c, 9, 36, 0
2, 42337, Note_on_c, 9, 42, 0
2, 42432, Note_on_c, 9, 39, 100
2, 42432, Note_on_c, 9, 42, 100
2, 42432, Note_on_c, 9, 40, 124
2, 42433, Note_on_c, 9, 40, 0
2, 42433, Note_on_c, 9, 42, 0
2, 42433, Note_on_c, 9, 39, 0
2, 42528, Note_on_c, 9, 42, 71
2, 42529, Note_on_c, 9, 42, 0
2, 42576, Note_on_c, 9, 36, 68
2, 42577, Note_on_c, 9, 36, 0
2, 42624, Note_on_c, 9, 42, 116
2, 42624, Note_on_c, 9, 36, 124
2, 42625, Note_on_c, 9, 36, 0
2, 42625, Note_on_c, 9, 42, 0
2, 42720, Note_on_c, 9, 42, 61
2, 42720, Note_on_c, 9, 36, 80
2, 42721, Note_on_c, 9, 36, 0
2, 42721, Note_on_c, 9, 42, 0
2, 42816, Note_on_c, 9, 39, 116
2, 42816, Note_on_c, 9, 42, 116
2, 42816, Note_on_c, 9, 40, 124
2, 42817, Note_on_c, 9, 40, 0
2, 42817, Note_on_c, 9, 42, 0
2, 42817, Note_on_c, 9, 39, 0
2, 42912, Note_on_c, 9, 42, 61
2, 42913, Note_on_c, 9, 42, 0
2, 42960, Note_on_c, 9, 36, 59
2, 42961, Note_on_c, 9, 36, 0
2, 43008, Note_on_c, 9, 42, 116
2, 43008, Note_on_c, 9, 36, 112
2, 43009, Note_on_c, 9, 36, 0
2, 43009, Note_on_c, 9, 42, 0
2, 43104, Note_on_c, 9, 42, 48
2, 43104, Note_on_c, 9, 36, 95
2, 43105, Note_on_c, 9, 36, 0
2, 43105, Note_on_c, 9, 42, 0
2, 43200, Note_on_c, 9, 39, 116
2, 43200, Note_on_c, 9, 42, 100
2, 43200, Note_on_c, 9, 40, 124
2, 43201, Note_on_c, 9, 40, 0
2, 43201, Note_on_c, 9, 42, 0
2, 43201, Note_on_c, 9, 39, 0
2, 43296, Note_on_c, 9, 42, 83
2, 43297, Note_on_c, 9, 42, 0
2, 43344, Note_on_c, 9, 36, 43
2, 43345, Note_on_c, 9, 36, 0
2, 43392, Note_on_c, 9, 42, 116
2, 43392, Note_on_c, 9, 36, 112
2, 43393, Note_on_c, 9, 36, 0
2, 43393, Note_on_c, 9, 42, 0
2, 43488, Note_on_c, 9, 42, 48
2, 43488, Note_on_c, 9, 36, 95
2, 43489, Note_on_c, 9, 36, 0
2, 43489, Note_on_c, 9, 42, 0
2, 43584, Note_on_c, 9, 39, 100
2, 43584, Note_on_c, 9, 42, 100
2, 43584, Note_on_c, 9, 40, 124
2, 43585, Note_on_c, 9, 40, 0
2, 43585, Note_on_c, 9, 42, 0
2, 43585, Note_on_c, 9, 39, 0
2, 43680, Note_on_c, 9, 46, 116
2, 43680, Note_on_c, 9, 36, 59
2, 43681, Note_on_c, 9, 36, 0
2, 43681, Note_on_c, 9, 46, 0
2, 43776, Note_on_c, 9, 42, 83
2, 43776, Note_on_c, 9, 36, 124
2, 43777, Note_on_c, 9, 36, 0
2, 43777, Note_on_c, 9, 42, 0
2, 43872, Note_on_c, 9, 42, 44
2, 43872, Note_on_c, 9, 36, 68
2, 43873, Note_on_c, 9, 36, 0
2, 43873, Note_on_c, 9, 42, 0
2, 43968, Note_on_c, 9, 39, 100
2, 43968, Note_on_c, 9, 42, 100
2, 43968, Note_on_c, 9, 40, 112
2, 43969, Note_on_c, 9, 40, 0
2, 43969, Note_on_c, 9, 42, 0
2, 43969, Note_on_c, 9, 39, 0
2, 44064, Note_on_c, 9, 42, 54
2, 44065, Note_on_c, 9, 42, 0
2, 44112, Note_on_c, 9, 36, 59
2, 44113, Note_on_c, 9, 36, 0
2, 44160, Note_on_c, 9, 42, 116
2, 44160, Note_on_c, 9, 36, 124
2, 44161, Note_on_c, 9, 36, 0
2, 44161, Note_on_c, 9, 42, 0
2, 44256, Note_on_c, 9, 42, 61
2, 44256, Note_on_c, 9, 36, 80
2, 44257, Note_on_c, 9, 36, 0
2, 44257, Note_on_c, 9, 42, 0
2, 44352, Note_on_c, 9, 39, 100
2, 44352, Note_on_c, 9, 42, 116
2, 44352, Note_on_c, 9, 40, 112
2, 44353, Note_on_c, 9, 40, 0
2, 44353, Note_on_c, 9, 42, 0
2, 44353, Note_on_c, 9, 39, 0
2, 44448, Note_on_c, 9, 42, 61
2, 44449, Note_on_c, 9, 42, 0
2, 44544, Note_on_c, 9, 42, 116
2, 44544, Note_on_c, 9, 36, 112
2, 44545, Note_on_c, 9, 36, 0
2, 44545, Note_on_c, 9, 42, 0
2, 44640, Note_on_c, 9, 42, 61
2, 44640, Note_on_c, 9, 36, 59
2, 44641, Note_on_c, 9, 36, 0
2, 44641, Note_on_c, 9, 42, 0
2, 44736, Note_on_c, 9, 39, 100
2, 44736, Note_on_c, 9, 42, 116
2, 44736, Note_on_c, 9, 40, 124
2, 44737, Note_on_c, 9, 40, 0
2, 44737, Note_on_c, 9, 42, 0
2, 44737, Note_on_c, 9, 39, 0
2, 44832, Note_on_c, 9, 42, 54
2, 44833, Note_on_c, 9, 42, 0
2, 44880, Note_on_c, 9, 36, 59
2, 44881, Note_on_c, 9, 36, 0
2, 44928, Note_on_c, 9, 42, 116
2, 44928, Note_on_c, 9, 36, 124
2, 44929, Note_on_c, 9, 36, 0
2, 44929, Note_on_c, 9, 42, 0
2, 45024, Note_on_c, 9, 42, 71
2, 45024, Note_on_c, 9, 36, 68
2, 45025, Note_on_c, 9, 36, 0
2, 45025, Note_on_c, 9, 42, 0
2, 45120, Note_on_c, 9, 39, 100
2, 45120, Note_on_c, 9, 42, 100
2, 45120, Note_on_c, 9, 40, 124
2, 45121, Note_on_c, 9, 40, 0
2, 45121, Note_on_c, 9, 42, 0
2, 45121, Note_on_c, 9, 39, 0
2, 45216, Note_on_c, 9, 46, 100
2, 45217, Note_on_c, 9, 46, 0
2, 45264, Note_on_c, 9, 36, 35
2, 45265, Note_on_c, 9, 36, 0
2, 45312, Note_on_c, 9, 42, 100
2, 45312, Note_on_c, 9, 36, 124
2, 45313, Note_on_c, 9, 36, 0
2, 45313, Note_on_c, 9, 42, 0
2, 45408, Note_on_c, 9, 42, 83
2, 45408, Note_on_c, 9, 36, 52
2, 45409, Note_on_c, 9, 36, 0
2, 45409, Note_on_c, 9, 42, 0
2, 45504, Note_on_c, 9, 39, 100
2, 45504, Note_on_c, 9, 42, 100
2, 45504, Note_on_c, 9, 40, 124
2, 45505, Note_on_c, 9, 40, 0
2, 45505, Note_on_c, 9, 42, 0
2, 45505, Note_on_c, 9, 39, 0
2, 45600, Note_on_c, 9, 42, 71
2, 45601, Note_on_c, 9, 42, 0
2, 45648, Note_on_c, 9, 36, 68
2, 45649, Note_on_c, 9, 36, 0
2, 45696, Note_on_c, 9, 42, 116
2, 45696, Note_on_c, 9, 36, 124
2, 45697, Note_on_c, 9, 36, 0
2, 45697, Note_on_c, 9, 42, 0
2, 45792, Note_on_c, 9, 42, 61
2, 45792, Note_on_c, 9, 36, 80
2, 45793, Note_on_c, 9, 36, 0
2, 45793, Note_on_c, 9, 42, 0
2, 45888, Note_on_c, 9, 39, 116
2, 45888, Note_on_c, 9, 42, 116
2, 45888, Note_on_c, 9, 40, 124
2, 45889, Note_on_c, 9, 40, 0
2, 45889, Note_on_c, 9, 42, 0
2, 45889, Note_on_c, 9, 39, 0
2, 45984, Note_on_c, 9, 42, 61
2, 45985, Note_on_c, 9, 42, 0
2, 46032, Note_on_c, 9, 36, 59
2, 46033, Note_on_c, 9, 36, 0
2, 46080, Note_on_c, 9, 42, 116
2, 46080, Note_on_c, 9, 36, 112
2, 46081, Note_on_c, 9, 36, 0
2, 46081, Note_on_c, 9, 42, 0
2, 46176, Note_on_c, 9, 42, 48
2, 46176, Note_on_c, 9, 36, 95
2, 46177, Note_on_c, 9, 36, 0
2, 46177, Note_on_c, 9, 42, 0
2, 46272, Note_on_c, 9, 39, 116
2, 46272, Note_on_c, 9, 42, 100
2, 46272, Note_on_c, 9, 40, 124
2, 46273, Note_on_c, 9, 40, 0
2, 46273, Note_on_c, 9, 42, 0
2, 46273, Note_on_c, 9, 39, 0
2, 46368, Note_on_c, 9, 42, 83
2, 46369, Note_on_c, 9, 42, 0
2, 46416, Note_on_c, 9, 36, 43
2, 46417, Note_on_c, 9, 36, 0
2, 46464, Note_on_c, 9, 42, 116
2, 46464, Note_on_c, 9, 36, 112
2, 46465, Note_on_c, 9, 36, 0
2, 46465, Note_on_c, 9, 42, 0
2, 46560, Note_on_c, 9, 42, 48
2, 46560, Note_on_c, 9, 36, 95
2, 46561, Note_on_c, 9, 36, 0
2, 46561, Note_on_c, 9, 42, 0
2, 46656, Note_on_c, 9, 39, 100
2, 46656, Note_on_c, 9, 42, 100
2, 46656, Note_on_c, 9, 40, 124
2, 46657, Note_on_c, 9, 40, 0
2, 46657, Note_on_c, 9, 42, 0
2, 46657, Note_on_c, 9, 39, 0
2, 46752, Note_on_c, 9, 46, 116
2, 46752, Note_on_c, 9, 36, 59
2, 46753, Note_on_c, 9, 36, 0
2, 46753, Note_on_c, 9, 46, 0
2, 46848, Note_on_c, 9, 42, 83
2, 46848, Note_on_c, 9, 36, 124
2, 46849, Note_on_c, 9, 36, 0
2, 46849, Note_on_c, 9, 42, 0
2, 46944, Note_on_c, 9, 42, 44
2, 46944, Note_on_c, 9, 36, 68
2, 46945, Note_on_c, 9, 36, 0
2, 46945, Note_on_c, 9, 42, 0
2, 47040, Note_on_c, 9, 39, 100
2, 47040, Note_on_c, 9, 42, 100
2, 47040, Note_on_c, 9, 40, 112
2, 47041, Note_on_c, 9, 40, 0
2, 47041, Note_on_c, 9, 42, 0
2, 47041, Note_on_c, 9, 39, 0
2, 47136, Note_on_c, 9, 42, 54
2, 47137, Note_on_c, 9, 42, 0
2, 47184, Note_on_c, 9, 36, 59
2, 47185, Note_on_c, 9, 36, 0
2, 47232, Note_on_c, 9, 42, 116
2, 47232, Note_on_c, 9, 36, 124
2, 47233, Note_on_c, 9, 36, 0
2, 47233, Note_on_c, 9, 42, 0
2, 47328, Note_on_c, 9, 42, 61
2, 47328, Note_on_c, 9, 36, 80
2, 47329, Note_on_c, 9, 36, 0
2, 47329, Note_on_c, 9, 42, 0
2, 47424, Note_on_c, 9, 39, 100
2, 47424, Note_on_c, 9, 42, 116
2, 47424, Note_on_c, 9, 40, 112
2, 47425, Note_on_c, 9, 40, 0
2, 47425, Note_on_c, 9, 42, 0
2, 47425, Note_on_c, 9, 39, 0
2, 47520, Note_on_c, 9, 42, 61
2, 47521, Note_on_c, 9, 42, 0
2, 47616, Note_on_c, 9, 42, 116
2, 47616, Note_on_c, 9, 36, 112
2, 47617, Note_on_c, 9, 36, 0
2, 47617, Note_on_c, 9, 42, 0
2, 47712, Note_on_c, 9, 42, 61
2, 47712, Note_on_c, 9, 36, 59
2, 47713, Note_on_c, 9, 36, 0
2, 47713, Note_on_c, 9, 42, 0
2, 47808, Note_on_c, 9, 39, 100
2, 47808, Note_on_c, 9, 42, 116
2, 47808, Note_on_c, 9, 40, 124
2, 47809, Note_on_c, 9, 40, 0
2, 47809, Note_on_c, 9, 42, 0
2, 47809, Note_on_c, 9, 39, 0
2, 47904, Note_on_c, 9, 42, 54
2, 47905, Note_on_c, 9, 42, 0
2, 47952, Note_on_c, 9, 36, 59
2, 47953, Note_on_c, 9, 36, 0
2, 48000, Note_on_c, 9, 42, 116
2, 48000, Note_on_c, 9, 36, 124
2, 48001, Note_on_c, 9, 36, 0
2, 48001, Note_on_c, 9, 42, 0
2, 48096, Note_on_c, 9, 42, 71
2, 48096, Note_on_c, 9, 36, 68
2, 48097, Note_on_c, 9, 36, 0
2, 48097, Note_on_c, 9, 42, 0
2, 48192, Note_on_c, 9, 39, 100
2, 48192, Note_on_c, 9, 42, 100
2, 48192, Note_on_c, 9, 40, 124
2, 48193, Note_on_c, 9, 40, 0
2, 48193, Note_on_c, 9, 42, 0
2, 48193, Note_on_c, 9, 39, 0
2, 48288, Note_on_c, 9, 46, 100
2, 48289, Note_on_c, 9, 46, 0
2, 48336, Note_on_c, 9, 36, 35
2, 48337, Note_on_c, 9, 36, 0
2, 48384, Note_on_c, 9, 42, 100
2, 48384, Note_on_c, 9, 36, 124
2, 48385, Note_on_c, 9, 36, 0
2, 48385, Note_on_c, 9, 42, 0
2, 48480, Note_on_c, 9, 42, 83
2, 48480, Note_on_c, 9, 36, 52
2, 48481, Note_on_c, 9, 36, 0
2, 48481, Note_on_c, 9, 42, 0
2, 48576, Note_on_c, 9, 39, 100
2, 48576, Note_on_c, 9, 42, 100
2, 48576, Note_on_c, 9, 40, 124
2, 48577, Note_on_c, 9, 40, 0
2, 48577, Note_on_c, 9, 42, 0
2, 48577, Note_on_c, 9, 39, 0
2, 48672, Note_on_c, 9, 42, 71
2, 48673, Note_on_c, 9, 42, 0
2, 48720, Note_on_c, 9, 36, 68
2, 48721, Note_on_c, 9, 36, 0
2, 48768, Note_on_c, 9, 42, 116
2, 48768, Note_on_c, 9, 36, 124
2, 48769, Note_on_c, 9, 36, 0
2, 48769, Note_on_c, 9, 42, 0
2, 48864, Note_on_c, 9, 42, 61
2, 48864, Note_on_c, 9, 36, 80
2, 48865, Note_on_c, 9, 36, 0
2, 48865, Note_on_c, 9, 42, 0
2, 48960, Note_on_c, 9, 39, 116
2, 48960, Note_on_c, 9, 42, 116
2, 48960, Note_on_c, 9, 40, 124
2, 48961, Note_on_c, 9, 40, 0
2, 48961, Note_on_c, 9, 42, 0
2, 48961, Note_on_c, 9, 39, 0
2, 49056, Note_on_c, 9, 42, 61
2, 49057, Note_on_c, 9, 42, 0
2, 49104, Note_on_c, 9, 36, 59
2, 49105, Note_on_c, 9, 36, 0
2, 49152, Note_on_c, 9, 42, 116
2, 49152, Note_on_c, 9, 36, 112
2, 49153, Note_on_c, 9, 36, 0
2, 49153, Note_on_c, 9, 42, 0
2, 49248, Note_on_c, 9, 42, 48
2, 49248, Note_on_c, 9, 36, 95
2, 49249, Note_on_c, 9, 36, 0
2, 49249, Note_on_c, 9, 42, 0
2, 49344, Note_on_c, 9, 39, 116
2, 49344, Note_on_c, 9, 42, 100
2, 49344, Note_on_c, 9, 40, 124
2, 49345, Note_on_c, 9, 40, 0
2, 49345, Note_on_c, 9, 42, 0
2, 49345, Note_on_c, 9, 39, 0
2, 49440, Note_on_c, 9, 42, 83
2, 49441, Note_on_c, 9, 42, 0
2, 49488, Note_on_c, 9, 36, 43
2, 49489, Note_on_c, 9, 36, 0
2, 49536, Note_on_c, 9, 42, 116
2, 49536, Note_on_c, 9, 36, 112
2, 49537, Note_on_c, 9, 36, 0
2, 49537, Note_on_c, 9, 42, 0
2, 49632, Note_on_c, 9, 42, 48
2, 49632, Note_on_c, 9, 36, 95
2, 49633, Note_on_c, 9, 36, 0
2, 49633, Note_on_c, 9, 42, 0
2, 49728, Note_on_c, 9, 39, 100
2, 49728, Note_on_c, 9, 42, 100
2, 49728, Note_on_c, 9, 40, 124
2, 49729, Note_on_c, 9, 40, 0
2, 49729, Note_on_c, 9, 42, 0
2, 49729, Note_on_c, 9, 39, 0
2, 49824, Note_on_c, 9, 46, 116
2, 49824, Note_on_c, 9, 36, 59
2, 49825, Note_on_c, 9, 36, 0
2, 49825, Note_on_c, 9, 46, 0
2, 49920, Note_on_c, 9, 42, 83
2, 49920, Note_on_c, 9, 36, 124
2, 49921, Note_on_c, 9, 36, 0
2, 49921, Note_on_c, 9, 42, 0
2, 50016, Note_on_c, 9, 42, 44
2, 50016, Note_on_c, 9, 36, 68
2, 50017, Note_on_c, 9, 36, 0
2, 50017, Note_on_c, 9, 42, 0
2, 50112, Note_on_c, 9, 39, 100
2, 50112, Note_on_c, 9, 42, 100
2, 50112, Note_on_c, 9, 40, 112
2, 50113, Note_on_c, 9, 40, 0
2, 50113, Note_on_c, 9, 42, 0
2, 50113, Note_on_c, 9, 39, 0
2, 50208, Note_on_c, 9, 42, 54
2, 50209, Note_on_c, 9, 42, 0
2, 50256, Note_on_c, 9, 36, 59
2, 50257, Note_on_c, 9, 36, 0
2, 50304, Note_on_c, 9, 42, 116
2, 50304, Note_on_c, 9, 36, 124
2, 50305, Note_on_c, 9, 36, 0
2, 50305, Note_on_c, 9, 42, 0
2, 50400, Note_on_c, 9, 42, 61
2, 50400, Note_on_c, 9, 36, 80
2, 50401, Note_on_c, 9, 36, 0
2, 50401, Note_on_c, 9, 42, 0
2, 50496, Note_on_c, 9, 39, 100
2, 50496, Note_on_c, 9, 42, 116
2, 50496, Note_on_c, 9, 40, 112
2, 50497, Note_on_c, 9, 40, 0
2, 50497, Note_on_c, 9, 42, 0
2, 50497, Note_on_c, 9, 39, 0
2, 50592, Note_on_c, 9, 42, 61
2, 50593, Note_on_c, 9, 42, 0
2, 50688, Note_on_c, 9, 42, 116
2, 50688, Note_on_c, 9, 36, 112
2, 50689, Note_on_c, 9, 36, 0
2, 50689, Note_on_c, 9, 42, 0
2, 50784, Note_on_c, 9, 42, 61
2, 50784, Note_on_c, 9, 36, 59
2, 50785, Note_on_c, 9, 36, 0
2, 50785, Note_on_c, 9, 42, 0
2, 50880, Note_on_c, 9, 39, 100
2, 50880, Note_on_c, 9, 42, 116
2, 50880, Note_on_c, 9, 40, 124
2, 50881, Note_on_c, 9, 40, 0
2, 50881, Note_on_c, 9, 42, 0
2, 50881, Note_on_c, 9, 39, 0
2, 50976, Note_on_c, 9, 42, 54
2, 50977, Note_on_c, 9, 42, 0
2, 51024, Note_on_c, 9, 36, 59
2, 51025, Note_on_c, 9, 36, 0
2, 51072, Note_on_c, 9, 42, 116
2, 51072, Note_on_c, 9, 36, 124
2, 51073, Note_on_c, 9, 36, 0
2, 51073, Note_on_c, 9, 42, 0
2, 51168, Note_on_c, 9, 42, 71
2, 51168, Note_on_c, 9, 36, 68
2, 51169, Note_on_c, 9, 36, 0
2, 51169, Note_on_c, 9, 42, 0
2, 51264, Note_on_c, 9, 39, 100
2, 51264, Note_on_c, 9, 42, 100
2, 51264, Note_on_c, 9, 40, 124
2, 51265, Note_on_c, 9, 40, 0
2, 51265, Note_on_c, 9, 42, 0
2, 51265, Note_on_c, 9, 39, 0
2, 51360, Note_on_c, 9, 46, 100
2, 51361, Note_on_c, 9, 46, 0
2, 51408, Note_on_c, 9, 36, 35
2, 51409, Note_on_c, 9, 36, 0
2, 51456, Note_on_c, 9, 42, 100
2, 51456, Note_on_c, 9, 36, 124
2, 51457, Note_on_c, 9, 36, 0
2, 51457, Note_on_c, 9, 42, 0
2, 51552, Note_on_c, 9, 42, 83
2, 51552, Note_on_c, 9, 36, 52
2, 51553, Note_on_c, 9, 36, 0
2, 51553, Note_on_c, 9, 42, 0
2, 51648, Note_on_c, 9, 39, 100
2, 51648, Note_on_c, 9, 42, 100
2, 51648, Note_on_c, 9, 40, 124
2, 51649, Note_on_c, 9, 40, 0
2, 51649, Note_on_c, 9, 42, 0
2, 51649, Note_on_c, 9, 39, 0
2, 51744, Note_on_c, 9, 42, 71
2, 51745, Note_on_c, 9, 42, 0
2, 51792, Note_on_c, 9, 36, 68
2, 51793, Note_on_c, 9, 36, 0
2, 51840, Note_on_c, 9, 42, 116
2, 51840, Note_on_c, 9, 36, 124
2, 51841, Note_on_c, 9, 36, 0
2, 51841, Note_on_c, 9, 42, 0
2, 51936, Note_on_c, 9, 42, 61
2, 51936, Note_on_c, 9, 36, 80
2, 51937, Note_on_c, 9, 36, 0
2, 51937, Note_on_c, 9, 42, 0
2, 52032, Note_on_c, 9, 39, 116
2, 52032, Note_on_c, 9, 42, 116
2, 52032, Note_on_c, 9, 40, 124
2, 52033, Note_on_c, 9, 40, 0
2, 52033, Note_on_c, 9, 42, 0
2, 52033, Note_on_c, 9, 39, 0
2, 52128, Note_on_c, 9, 42, 61
2, 52129, Note_on_c, 9, 42, 0
2, 52176, Note_on_c, 9, 36, 59
2, 52177, Note_on_c, 9, 36, 0
2, 52224, Note_on_c, 9, 42, 116
2, 52224, Note_on_c, 9, 36, 112
2, 52225, Note_on_c, 9, 36, 0
2, 52225, Note_on_c, 9, 42, 0
2, 52320, Note_on_c, 9, 42, 48
2, 52320, Note_on_c, 9, 36, 95
2, 52321, Note_on_c, 9, 36, 0
2, 52321, Note_on_c, 9, 42, 0
2, 52416, Note_on_c, 9, 39, 116
2, 52416, Note_on_c, 9, 42, 100
2, 52416, Note_on_c, 9, 40, 124
2, 52417, Note_on_c, 9, 40, 0
2, 52417, Note_on_c, 9, 42, 0
2, 52417, Note_on_c, 9, 39, 0
2, 52512, Note_on_c, 9, 42, 83
2, 52513, Note_on_c, 9, 42, 0
2, 52560, Note_on_c, 9, 36, 43
2, 52561, Note_on_c, 9, 36, 0
2, 52608, Note_on_c, 9, 42, 116
2, 52608, Note_on_c, 9, 36, 112
2, 52609, Note_on_c, 9, 36, 0
2, 52609, Note_on_c, 9, 42, 0
2, 52704, Note_on_c, 9, 42, 48
2, 52704, Note_on_c, 9, 36, 95
2, 52705, Note_on_c, 9, 36, 0
2, 52705, Note_on_c, 9, 42, 0
2, 52800, Note_on_c, 9, 39, 100
2, 52800, Note_on_c, 9, 42, 100
2, 52800, Note_on_c, 9, 40, 124
2, 52801, Note_on_c, 9, 40, 0
2, 52801, Note_on_c, 9, 42, 0
2, 52801, Note_on_c, 9, 39, 0
2, 52896, Note_on_c, 9, 46, 116
2, 52896, Note_on_c, 9, 36, 59
2, 52897, Note_on_c, 9, 36, 0
2, 52897, Note_on_c, 9, 46, 0
2, 52992, Note_on_c, 9, 42, 83
2, 52992, Note_on_c, 9, 36, 124
2, 52993, Note_on_c, 9, 36, 0
2, 52993, Note_on_c, 9, 42, 0
2, 53088, Note_on_c, 9, 42, 44
2, 53088, Note_on_c, 9, 36, 68
2, 53089, Note_on_c, 9, 36, 0
2, 53089, Note_on_c, 9, 42, 0
2, 53184, Note_on_c, 9, 39, 100
2, 53184, Note_on_c, 9, 42, 100
2, 53184, Note_on_c, 9, 40, 112
2, 53185, Note_on_c, 9, 40, 0
2, 53185, Note_on_c, 9, 42, 0
2, 53185, Note_on_c, 9, 39, 0
2, 53280, Note_on_c, 9, 42, 54
2, 53281, Note_on_c, 9, 42, 0
2, 53328, Note_on_c, 9, 36, 59
2, 53329, Note_on_c, 9, 36, 0
2, 53376, Note_on_c, 9, 42, 116
2, 53376, Note_on_c, 9, 36, 124
2, 53377, Note_on_c, 9, 36, 0
2, 53377, Note_on_c, 9, 42, 0
2, 53472, Note_on_c, 9, 42, 61
2, 53472, Note_on_c, 9, 36, 80
2, 53473, Note_on_c, 9, 36, 0
2, 53473, Note_on_c, 9, 42, 0
2, 53568, Note_on_c, 9, 39, 100
2, 53568, Note_on_c, 9, 42, 116
2, 53568, Note_on_c, 9, 40, 112
2, 53569, Note_on_c, 9, 40, 0
2, 53569, Note_on_c, 9, 42, 0
2, 53569, Note_on_c, 9, 39, 0
2, 53664, Note_on_c, 9, 42, 61
2, 53665, Note_on_c, 9, 42, 0
2, 53760, Note_on_c, 9, 42, 116
2, 53760, Note_on_c, 9, 36, 112
2, 53761, Note_on_c, 9, 36, 0
2, 53761, Note_on_c, 9, 42, 0
2, 53856, Note_on_c, 9, 42, 61
2, 53856, Note_on_c, 9, 36, 59
2, 53857, Note_on_c, 9, 36, 0
2, 53857, Note_on_c, 9, 42, 0
2, 53952, Note_on_c, 9, 39, 100
2, 53952, Note_on_c, 9, 42, 116
2, 53952, Note_on_c, 9, 40, 124
2, 53953, Note_on_c, 9, 40, 0
2, 53953, Note_on_c, 9, 42, 0
2, 53953, Note_on_c, 9, 39, 0
2, 54048, Note_on_c, 9, 42, 54
2, 54049, Note_on_c, 9, 42, 0
2, 54096, Note_on_c, 9, 36, 59
2, 54097, Note_on_c, 9, 36, 0
2, 54144, Note_on_c, 9, 42, 116
2, 54144, Note_on_c, 9, 36, 124
2, 54145, Note_on_c, 9, 36, 0
2, 54145, Note_on_c, 9, 42, 0
2, 54240, Note_on_c, 9, 42, 71
2, 54240, Note_on_c, 9, 36, 68
2, 54241, Note_on_c, 9, 36, 0
2, 54241, Note_on_c, 9, 42, 0
2, 54336, Note_on_c, 9, 39, 100
2, 54336, Note_on_c, 9, 42, 100
2, 54336, Note_on_c, 9, 40, 124
2, 54337, Note_on_c, 9, 40, 0
2, 54337, Note_on_c, 9, 42, 0
2, 54337, Note_on_c, 9, 39, 0
2, 54432, Note_on_c, 9, 46, 100
2, 54433, Note_on_c, 9, 46, 0
2, 54480, Note_on_c, 9, 36, 35
2, 54481, Note_on_c, 9, 36, 0
2, 54528, Note_on_c, 9, 42, 100
2, 54528, Note_on_c, 9, 36, 124
2, 54529, Note_on_c, 9, 36, 0
2, 54529, Note_on_c, 9, 42, 0
2, 54624, Note_on_c, 9, 42, 83
2, 54624, Note_on_c, 9, 36, 52
2, 54625, Note_on_c, 9, 36, 0
2, 54625, Note_on_c, 9, 42, 0
2, 54720, Note_on_c, 9, 39, 100
2, 54720, Note_on_c, 9, 42, 100
2, 54720, Note_on_c, 9, 40, 124
2, 54721, Note_on_c, 9, 40, 0
2, 54721, Note_on_c, 9, 42, 0
2, 54721, Note_on_c, 9, 39, 0
2, 54816, Note_on_c, 9, 42, 71
2, 54817, Note_on_c, 9, 42, 0
2, 54864, Note_on_c, 9, 36, 68
2, 54865, Note_on_c, 9, 36, 0
2, 54912, Note_on_c, 9, 42, 116
2, 54912, Note_on_c, 9, 36, 124
2, 54913, Note_on_c, 9, 36, 0
2, 54913, Note_on_c, 9, 42, 0
2, 55008, Note_on_c, 9, 42, 61
2, 55008, Note_on_c, 9, 36, 80
2, 55009, Note_on_c, 9, 36, 0
2, 55009, Note_on_c, 9, 42, 0
2, 55104, Note_on_c, 9, 39, 116
2, 55104, Note_on_c, 9, 42, 116
2, 55104, Note_on_c, 9, 40, 124
2, 55105, Note_on_c, 9, 40, 0
2, 55105, Note_on_c, 9, 42, 0
2, 55105, Note_on_c, 9, 39, 0
2, 55200, Note_on_c, 9, 42, 61
2, 55201, Note_on_c, 9, 42, 0
2, 55248, Note_on_c, 9, 36, 59
2, 55249, Note_on_c, 9, 36, 0
2, 55296, Note_on_c, 9, 42, 116
2, 55296, Note_on_c, 9, 36, 112
2, 55297, Note_on_c, 9, 36, 0
2, 55297, Note_on_c, 9, 42, 0
2, 55392, Note_on_c, 9, 42, 48
2, 55392, Note_on_c, 9, 36, 95
2, 55393, Note_on_c, 9, 36, 0
2, 55393, Note_on_c, 9, 42, 0
2, 55488, Note_on_c, 9, 39, 116
2, 55488, Note_on_c, 9, 42, 100
2, 55488, Note_on_c, 9, 40, 124
2, 55489, Note_on_c, 9, 40, 0
2, 55489, Note_on_c, 9, 42, 0
2, 55489, Note_on_c, 9, 39, 0
2, 55584, Note_on_c, 9, 42, 83
2, 55585, Note_on_c, 9, 42, 0
2, 55632, Note_on_c, 9, 36, 43
2, 55633, Note_on_c, 9, 36, 0
2, 55680, Note_on_c, 9, 42, 116
2, 55680, Note_on_c, 9, 36, 112
2, 55681, Note_on_c, 9, 36, 0
2, 55681, Note_on_c, 9, 42, 0
2, 55776, Note_on_c, 9, 42, 48
2, 55776, Note_on_c, 9, 36, 95
2, 55777, Note_on_c, 9, 36, 0
2, 55777, Note_on_c, 9, 42, 0
2, 55872, Note_on_c, 9, 39, 100
2, 55872, Note_on_c, 9, 42, 100
2, 55872, Note_on_c, 9, 40, 124
2, 55873, Note_on_c, 9, 40, 0
2, 55873, Note_on_c, 9, 42, 0
2, 55873, Note_on_c, 9, 39, 0
2, 55968, Note_on_c, 9, 46, 116
2, 55968, Note_on_c, 9, 36, 59
2, 55969, Note_on_c, 9, 36, 0
2, 55969, Note_on_c, 9, 46, 0
2, 56064, Note_on_c, 9, 42, 83
2, 56064, Note_on_c, 9, 36, 124
2, 56065, Note_on_c, 9, 36, 0
2, 56065, Note_on_c, 9, 42, 0
2, 56160, Note_on_c, 9, 42, 44
2, 56160, Note_on_c, 9, 36, 68
2, 56161, Note_on_c, 9, 36, 0
2, 56161, Note_on_c, 9, 42, 0
2, 56256, Note_on_c, 9, 39, 100
2, 56256, Note_on_c, 9, 42, 100
2, 56256, Note_on_c, 9, 40, 112
2, 56257, Note_on_c, 9, 40, 0
2, 56257, Note_on_c, 9, 42, 0
2, 56257, Note_on_c, 9, 39, 0
2, 56352, Note_on_c, 9, 42, 54
2, 56353, Note_on_c, 9, 42, 0
2, 56400, Note_on_c, 9, 36, 59
2, 56401, Note_on_c, 9, 36, 0
2, 56448, Note_on_c, 9, 42, 116
2, 56448, Note_on_c, 9, 36, 124
2, 56449, Note_on_c, 9, 36, 0
2, 56449, Note_on_c, 9, 42, 0
2, 56544, Note_on_c, 9, 42, 61
2, 56544, Note_on_c, 9, 36, 80
2, 56545, Note_on_c, 9, 36, 0
2, 56545, Note_on_c, 9, 42, 0
2, 56640, Note_on_c, 9, 39, 100
2, 56640, Note_on_c, 9, 42, 116
2, 56640, Note_on_c, 9, 40, 112
2, 56641, Note_on_c, 9, 40, 0
2, 56641, Note_on_c, 9, 42, 0
2, 56641, Note_on_c, 9, 39, 0
2, 56736, Note_on_c, 9, 42, 61
2, 56737, Note_on_c, 9, 42, 0
2, 56832, Note_on_c, 9, 42, 116
2, 56832, Note_on_c, 9, 36, 112
2, 56833, Note_on_c, 9, 36, 0
2, 56833, Note_on_c, 9, 42, 0
2, 56928, Note_on_c, 9, 42, 61
2, 56928, Note_on_c, 9, 36, 59
2, 56929, Note_on_c, 9, 36, 0
2, 56929, Note_on_c, 9, 42, 0
2, 57024, Note_on_c, 9, 39, 100
2, 57024, Note_on_c, 9, 42, 116
2, 57024, Note_on_c, 9, 40, 124
2, 57025, Note_on_c, 9, 40, 0
2, 57025, Note_on_c, 9, 42, 0
2, 57025, Note_on_c, 9, 39, 0
2, 57120, Note_on_c, 9, 42, 54
2, 57121, Note_on_c, 9, 42, 0
2, 57168, Note_on_c, 9, 36, 59
2, 57169, Note_on_c, 9, 36, 0
2, 57216, Note_on_c, 9, 42, 116
2, 57216, Note_on_c, 9, 36, 124
2, 57217, Note_on_c, 9, 36, 0
2, 57217, Note_on_c, 9, 42, 0
2, 57312, Note_on_c, 9, 42, 71
2, 57312, Note_on_c, 9, 36, 68
2, 57313, Note_on_c, 9, 36, 0
2, 57313, Note_on_c, 9, 42, 0
2, 57408, Note_on_c, 9, 39, 100
2, 57408, Note_on_c, 9, 42, 100
2, 57408, Note_on_c, 9, 40, 124
2, 57409, Note_on_c, 9, 40, 0
2, 57409, Note_on_c, 9, 42, 0
2, 57409, Note_on_c, 9, 39, 0
2, 57504, Note_on_c, 9, 46, 100
2, 57505, Note_on_c, 9, 46, 0
2, 57552, Note_on_c, 9, 36, 35
2, 57553, Note_on_c, 9, 36, 0
2, 57600, Note_on_c, 9, 42, 100
2, 57600, Note_on_c, 9, 36, 124
2, 57601, Note_on_c, 9, 36, 0
2, 57601, Note_on_c, 9, 42, 0
2, 57696, Note_on_c, 9, 42, 83
2, 57696, Note_on_c, 9, 36, 52
2, 57697, Note_on_c, 9, 36, 0
2, 57697, Note_on_c, 9, 42, 0
2, 57792, Note_on_c, 9, 39, 100
2, 57792, Note_on_c, 9, 42, 100
2, 57792, Note_on_c, 9, 40, 124
2, 57793, Note_on_c, 9, 40, 0
2, 57793, Note_on_c, 9, 42, 0
2, 57793, Note_on_c, 9, 39, 0
2, 57888, Note_on_c, 9, 42, 71
2, 57889, Note_on_c, 9, 42, 0
2, 57936, Note_on_c, 9, 36, 68
2, 57937, Note_on_c, 9, 36, 0
2, 57984, Note_on_c, 9, 42, 116
2, 57984, Note_on_c, 9, 36, 124
2, 57985, Note_on_c, 9, 36, 0
2, 57985, Note_on_c, 9, 42, 0
2, 58080, Note_on_c, 9, 42, 61
2, 58080, Note_on_c, 9, 36, 80
2, 58081, Note_on_c, 9, 36, 0
2, 58081, Note_on_c, 9, 42, 0
2, 58176, Note_on_c, 9, 39, 116
2, 58176, Note_on_c, 9, 42, 116
2, 58176, Note_on_c, 9, 40, 124
2, 58177, Note_on_c, 9, 40, 0
2, 58177, Note_on_c, 9, 42, 0
2, 58177, Note_on_c, 9, 39, 0
2, 58272, Note_on_c, 9, 42, 61
2, 58273, Note_on_c, 9, 42, 0
2, 58320, Note_on_c, 9, 36, 59
2, 58321, Note_on_c, 9, 36, 0
2, 58368, Note_on_c, 9, 42, 116
2, 58368, Note_on_c, 9, 36, 112
2, 58369, Note_on_c, 9, 36, 0
2, 58369, Note_on_c, 9, 42, 0
2, 58464, Note_on_c, 9, 42, 48
2, 58464, Note_on_c, 9, 36, 95
2, 58465, Note_on_c, 9, 36, 0
2, 58465, Note_on_c, 9, 42, 0
2, 58560, Note_on_c, 9, 39, 116
2, 58560, Note_on_c, 9, 42, 100
2, 58560, Note_on_c, 9, 40, 124
2, 58561, Note_on_c, 9, 40, 0
2, 58561, Note_on_c, 9, 42, 0
2, 58561, Note_on_c, 9, 39, 0
2, 58656, Note_on_c, 9, 42, 83
2, 58657, Note_on_c, 9, 42, 0
2, 58704, Note_on_c, 9, 36, 43
2, 58705, Note_on_c, 9, 36, 0
2, 58752, Note_on_c, 9, 42, 116
2, 58752, Note_on_c, 9, 36, 112
2, 58753, Note_on_c, 9, 36, 0
2, 58753, Note_on_c, 9, 42, 0
2, 58848, Note_on_c, 9, 42, 48
2, 58848, Note_on_c, 9, 36, 95
2, 58849, Note_on_c, 9, 36, 0
2, 58849, Note_on_c, 9, 42, 0
2, 58944, Note_on_c, 9, 39, 100
2, 58944, Note_on_c, 9, 42, 100
2, 58944, Note_on_c, 9, 40, 124
2, 58945, Note_on_c, 9, 40, 0
2, 58945, Note_on_c, 9, 42, 0
2, 58945, Note_on_c, 9, 39, 0
2, 59040, Note_on_c, 9, 46, 116
2, 59040, Note_on_c, 9, 36, 59
2, 59041, Note_on_c, 9, 36, 0
2, 59041, Note_on_c, 9, 46, 0
2, 59136, Note_on_c, 9, 42, 83
2, 59136, Note_on_c, 9, 36, 124
2, 59137, Note_on_c, 9, 36, 0
2, 59137, Note_on_c, 9, 42, 0
2, 59232, Note_on_c, 9, 42, 44
2, 59232, Note_on_c, 9, 36, 68
2, 59233, Note_on_c, 9, 36, 0
2, 59233, Note_on_c, 9, 42, 0
2, 59328, Note_on_c, 9, 39, 100
2, 59328, Note_on_c, 9, 42, 100
2, 59328, Note_on_c, 9, 40, 112
2, 59329, Note_on_c, 9, 40, 0
2, 59329, Note_on_c, 9, 42, 0
2, 59329, Note_on_c, 9, 39, 0
2, 59424, Note_on_c, 9, 42, 54
2, 59425, Note_on_c, 9, 42, 0
2, 59472, Note_on_c, 9, 36, 59
2, 59473, Note_on_c, 9, 36, 0
2, 59520, Note_on_c, 9, 42, 116
2, 59520, Note_on_c, 9, 36, 124
2, 59521, Note_on_c, 9, 36, 0
2, 59521, Note_on_c, 9, 42, 0
2, 59616, Note_on_c, 9, 42, 61
2, 59616, Note_on_c, 9, 36, 80
2, 59617, Note_on_c, 9, 36, 0
2, 59617, Note_on_c, 9, 42, 0
2, 59712, Note_on_c, 9, 39, 100
2, 59712, Note_on_c, 9, 42, 116
2, 59712, Note_on_c, 9, 40, 112
2, 59713, Note_on_c, 9, 40, 0
2, 59713, Note_on_c, 9, 42, 0
2, 59713, Note_on_c, 9, 39, 0
2, 59808, Note_on_c, 9, 42, 61
2, 59809, Note_on_c, 9, 42, 0
2, 59904, Note_on_c, 9, 42, 116
2, 59904, Note_on_c, 9, 36, 112
2, 59905, Note_on_c, 9, 36, 0
2, 59905, Note_on_c, 9, 42, 0
2, 60000, Note_on_c, 9, 42, 61
2, 60000, Note_on_c, 9, 36, 59
2, 60001, Note_on_c, 9, 36, 0
2, 60001, Note_on_c, 9, 42, 0
2, 60096, Note_on_c, 9, 39, 100
2, 60096, Note_on_c, 9, 42, 116
2, 60096, Note_on_c, 9, 40, 124
2, 60097, Note_on_c, 9, 40, 0
2, 60097, Note_on_c, 9, 42, 0
2, 60097, Note_on_c, 9, 39, 0
2, 60192, Note_on_c, 9, 42, 54
2, 60193, Note_on_c, 9, 42, 0
2, 60240, Note_on_c, 9, 36, 59
2, 60241, Note_on_c, 9, 36, 0
2, 60288, Note_on_c, 9, 42, 116
2, 60288, Note_on_c, 9, 36, 124
2, 60289, Note_on_c, 9, 36, 0
2, 60289, Note_on_c, 9, 42, 0
2, 60384, Note_on_c, 9, 42, 71
2, 60384, Note_on_c, 9, 36, 68
2, 60385, Note_on_c, 9, 36, 0
2, 60385, Note_on_c, 9, 42, 0
2, 60480, Note_on_c, 9, 39, 100
2, 60480, Note_on_c, 9, 42, 100
2, 60480, Note_on_c, 9, 40, 124
2, 60481, Note_on_c, 9, 40, 0
2, 60481, Note_on_c, 9, 42, 0
2, 60481, Note_on_c, 9, 39, 0
2, 60576, Note_on_c, 9, 46, 100
2, 60577, Note_on_c, 9, 46, 0
2, 60624, Note_on_c, 9, 36, 35
2, 60625, Note_on_c, 9, 36, 0
2, 60672, Note_on_c, 9, 42, 100
2, 60672, Note_on_c, 9, 36, 124
2, 60673, Note_on_c, 9, 36, 0
2, 60673, Note_on_c, 9, 42, 0
2, 60768, Note_on_c, 9, 42, 83
2, 60768, Note_on_c, 9, 36, 52
2, 60769, Note_on_c, 9, 36, 0
2, 60769, Note_on_c, 9, 42, 0
2, 60864, Note_on_c, 9, 39, 100
2, 60864, Note_on_c, 9, 42, 100
2, 60864, Note_on_c, 9, 40, 124
2, 60865, Note_on_c, 9, 40, 0
2, 60865, Note_on_c, 9, 42, 0
2, 60865, Note_on_c, 9, 39, 0
2, 60960, Note_on_c, 9, 42, 71
2, 60961, Note_on_c, 9, 42, 0
2, 61008, Note_on_c, 9, 36, 68
2, 61009, Note_on_c, 9, 36, 0
2, 61056, Note_on_c, 9, 42, 116
2, 61056, Note_on_c, 9, 36, 124
2, 61057, Note_on_c, 9, 36, 0
2, 61057, Note_on_c, 9, 42, 0
2, 61152, Note_on_c, 9, 42, 61
2, 61152, Note_on_c, 9, 36, 80
2, 61153, Note_on_c, 9, 36, 0
2, 61153, Note_on_c, 9, 42, 0
2, 61248, Note_on_c, 9, 39, 116
2, 61248, Note_on_c, 9, 42, 116
2, 61248, Note_on_c, 9, 40, 124
2, 61249, Note_on_c, 9, 40, 0
2, 61249, Note_on_c, 9, 42, 0
2, 61249, Note_on_c, 9, 39, 0
2, 61344, Note_on_c, 9, 42, 61
2, 61345, Note_on_c, 9, 42, 0
2, 61392, Note_on_c, 9, 36, 59
2, 61393, Note_on_c, 9, 36, 0
2, 61440, Note_on_c, 9, 42, 116
2, 61440, Note_on_c, 9, 36, 112
2, 61441, Note_on_c, 9, 36, 0
2, 61441, Note_on_c, 9, 42, 0
2, 61536, Note_on_c, 9, 42, 48
2, 61536, Note_on_c, 9, 36, 95
2, 61537, Note_on_c, 9, 36, 0
2, 61537, Note_on_c, 9, 42, 0
2, 61632, Note_on_c, 9, 39, 116
2, 61632, Note_on_c, 9, 42, 100
2, 61632, Note_on_c, 9, 40, 124
2, 61633, Note_on_c, 9, 40, 0
2, 61633, Note_on_c, 9, 42, 0
2, 61633, Note_on_c, 9, 39, 0
2, 61728, Note_on_c, 9, 42, 83
2, 61729, Note_on_c, 9, 42, 0
2, 61776, Note_on_c, 9, 36, 43
2, 61777, Note_on_c, 9, 36, 0
2, 61824, Note_on_c, 9, 42, 116
2, 61824, Note_on_c, 9, 36, 112
2, 61825, Note_on_c, 9, 36, 0
2, 61825, Note_on_c, 9, 42, 0
2, 61920, Note_on_c, 9, 42, 48
2, 61920, Note_on_c, 9, 36, 95
2, 61921, Note_on_c, 9, 36, 0
2, 61921, Note_on_c, 9, 42, 0
2, 62016, Note_on_c, 9, 39, 100
2, 62016, Note_on_c, 9, 42, 100
2, 62016, Note_on_c, 9, 40, 124
2, 62017, Note_on_c, 9, 40, 0
2, 62017, Note_on_c, 9, 42, 0
2, 62017, Note_on_c, 9, 39, 0
2, 62112, Note_on_c, 9, 46, 116
2, 62112, Note_on_c, 9, 36, 59
2, 62113, Note_on_c, 9, 36, 0
2, 62113, Note_on_c, 9, 46, 0
2, 62208, Note_on_c, 9, 42, 83
2, 62208, Note_on_c, 9, 36, 124
2, 62209, Note_on_c, 9, 36, 0
2, 62209, Note_on_c, 9, 42, 0
2, 62304, Note_on_c, 9, 42, 44
2, 62304, Note_on_c, 9, 36, 68
2, 62305, Note_on_c, 9, 36, 0
2, 62305, Note_on_c, 9, 42, 0
2, 62400, Note_on_c, 9, 39, 100
2, 62400, Note_on_c, 9, 42, 100
2, 62400, Note_on_c, 9, 40, 112
2, 62401, Note_on_c, 9, 40, 0
2, 62401, Note_on_c, 9, 42, 0
2, 62401, Note_on_c, 9, 39, 0
2, 62496, Note_on_c, 9, 42, 54
2, 62497, Note_on_c, 9, 42, 0
2, 62544, Note_on_c, 9, 36, 59
2, 62545, Note_on_c, 9, 36, 0
2, 62592, Note_on_c, 9, 42, 116
2, 62592, Note_on_c, 9, 36, 124
2, 62593, Note_on_c, 9, 36, 0
2, 62593, Note_on_c, 9, 42, 0
2, 62688, Note_on_c, 9, 42, 61
2, 62688, Note_on_c, 9, 36, 80
2, 62689, Note_on_c, 9, 36, 0
2, 62689, Note_on_c, 9, 42, 0
2, 62784, Note_on_c, 9, 39, 100
2, 62784, Note_on_c, 9, 42, 116
2, 62784, Note_on_c, 9, 40, 112
2, 62785, Note_on_c, 9, 40, 0
2, 62785, Note_on_c, 9, 42, 0
2, 62785, Note_on_c, 9, 39, 0
2, 62880, Note_on_c, 9, 42, 61
2, 62881, Note_on_c, 9, 42, 0
2, 62976, Note_on_c, 9, 42, 116
2, 62976, Note_on_c, 9, 36, 112
2, 62977, Note_on_c, 9, 36, 0
2, 62977, Note_on_c, 9, 42, 0
2, 63072, Note_on_c, 9, 42, 61
2, 63072, Note_on_c, 9, 36, 59
2, 63073, Note_on_c, 9, 36, 0
2, 63073, Note_on_c, 9, 42, 0
2, 63168, Note_on_c, 9, 39, 100
2, 63168, Note_on_c, 9, 42, 116
2, 63168, Note_on_c, 9, 40, 124
2, 63169, Note_on_c, 9, 40, 0
2, 63169, Note_on_c, 9, 42, 0
2, 63169, Note_on_c, 9, 39, 0
2, 63264, Note_on_c, 9, 42, 54
2, 63265, Note_on_c, 9, 42, 0
2, 63312, Note_on_c, 9, 36, 59
2, 63313, Note_on_c, 9, 36, 0
2, 63360, Note_on_c, 9, 42, 116
2, 63360, Note_on_c, 9, 36, 124
2, 63361, Note_on_c, 9, 36, 0
2, 63361, Note_on_c, 9, 42, 0
2, 63456, Note_on_c, 9, 42, 71
2, 63456, Note_on_c, 9, 36, 68
2, 63457, Note_on_c, 9, 36, 0
2, 63457, Note_on_c, 9, 42, 0
2, 63552, Note_on_c, 9, 39, 100
2, 63552, Note_on_c, 9, 42, 100
2, 63552, Note_on_c, 9, 40, 124
2, 63553, Note_on_c, 9, 40, 0
2, 63553, Note_on_c, 9, 42, 0
2, 63553, Note_on_c, 9, 39, 0
2, 63648, Note_on_c, 9, 46, 100
2, 63649, Note_on_c, 9, 46, 0
2, 63696, Note_on_c, 9, 36, 35
2, 63697, Note_on_c, 9, 36, 0
2, 63744, Note_on_c, 9, 42, 100
2, 63744, Note_on_c, 9, 36, 124
2, 63745, Note_on_c, 9, 36, 0
2, 63745, Note_on_c, 9, 42, 0
2, 63840, Note_on_c, 9, 42, 83
2, 63840, Note_on_c, 9, 36, 52
2, 63841, Note_on_c, 9, 36, 0
2, 63841, Note_on_c, 9, 42, 0
2, 63936, Note_on_c, 9, 39, 100
2, 63936, Note_on_c, 9, 42, 100
2, 63936, Note_on_c, 9, 40, 124
2, 63937, Note_on_c, 9, 40, 0
2, 63937, Note_on_c, 9, 42, 0
2, 63937, Note_on_c, 9, 39, 0
2, 64032, Note_on_c, 9, 42, 71
2, 64033, Note_on_c, 9, 42, 0
2, 64080, Note_on_c, 9, 36, 68
2, 64081, Note_on_c, 9, 36, 0
2, 64128, Note_on_c, 9, 42, 116
2, 64128, Note_on_c, 9, 36, 124
2, 64129, Note_on_c, 9, 36, 0
2, 64129, Note_on_c, 9, 42, 0
2, 64224, Note_on_c, 9, 42, 61
2, 64224, Note_on_c, 9, 36, 80
2, 64225, Note_on_c, 9, 36, 0
2, 64225, Note_on_c, 9, 42, 0
2, 64320, Note_on_c, 9, 39, 116
2, 64320, Note_on_c, 9, 42, 116
2, 64320, Note_on_c, 9, 40, 124
2, 64321, Note_on_c, 9, 40, 0
2, 64321, Note_on_c, 9, 42, 0
2, 64321, Note_on_c, 9, 39, 0
2, 64416, Note_on_c, 9, 42, 61
2, 64417, Note_on_c, 9, 42, 0
2, 64464, Note_on_c, 9, 36, 59
2, 64465, Note_on_c, 9, 36, 0
2, 64512, Note_on_c, 9, 42, 116
2, 64512, Note_on_c, 9, 36, 112
2, 64513, Note_on_c, 9, 36, 0
2, 64513, Note_on_c, 9, 42, 0
2, 64608, Note_on_c, 9, 42, 48
2, 64608, Note_on_c, 9, 36, 95
2, 64609, Note_on_c, 9, 36, 0
2, 64609, Note_on_c, 9, 42, 0
2, 64704, Note_on_c, 9, 39, 116
2, 64704, Note_on_c, 9, 42, 100
2, 64704, Note_on_c, 9, 40, 124
2, 64705, Note_on_c, 9, 40, 0
2, 64705, Note_on_c, 9, 42, 0
2, 64705, Note_on_c, 9, 39, 0
2, 64800, Note_on_c, 9, 42, 83
2, 64801, Note_on_c, 9, 42, 0
2, 64848, Note_on_c, 9, 36, 43
2, 64849, Note_on_c, 9, 36, 0
2, 64896, Note_on_c, 9, 42, 116
2, 64896, Note_on_c, 9, 36, 112
2, 64897, Note_on_c, 9, 36, 0
2, 64897, Note_on_c, 9, 42, 0
2, 64992, Note_on_c, 9, 42, 48
2, 64992, Note_on_c, 9, 36, 95
2, 64993, Note_on_c, 9, 36, 0
2, 64993, Note_on_c, 9, 42, 0
2, 65088, Note_on_c, 9, 39, 100
2, 65088, Note_on_c, 9, 42, 100
2, 65088, Note_on_c, 9, 40, 124
2, 65089, Note_on_c, 9, 40, 0
2, 65089, Note_on_c, 9, 42, 0
2, 65089, Note_on_c, 9, 39, 0
2, 65184, Note_on_c, 9, 46, 116
2, 65184, Note_on_c, 9, 36, 59
2, 65185, Note_on_c, 9, 36, 0
2, 65185, Note_on_c, 9, 46, 0
2, 65280, Note_on_c, 9, 42, 83
2, 65280, Note_on_c, 9, 36, 124
2, 65281, Note_on_c, 9, 36, 0
2, 65281, Note_on_c, 9, 42, 0
2, 65376, Note_on_c, 9, 42, 44
2, 65376, Note_on_c, 9, 36, 68
2, 65377, Note_on_c, 9, 36, 0
2, 65377, Note_on_c, 9, 42, 0
2, 65472, Note_on_c, 9, 39, 100
2, 65472, Note_on_c, 9, 42, 100
2, 65472, Note_on_c, 9, 40, 112
2, 65473, Note_on_c, 9, 40, 0
2, 65473, Note_on_c, 9, 42, 0
2, 65473, Note_on_c, 9, 39, 0
2, 65568, Note_on_c, 9, 42, 54
2, 65569, Note_on_c, 9, 42, 0
2, 65616, Note_on_c, 9, 36, 59
2, 65617, Note_on_c, 9, 36, 0
2, 65664, Note_on_c, 9, 42, 116
2, 65664, Note_on_c, 9, 36, 124
2, 65665, Note_on_c, 9, 36, 0
2, 65665, Note_on_c, 9, 42, 0
2, 65760, Note_on_c, 9, 42, 61
2, 65760, Note_on_c, 9, 36, 80
2, 65761, Note_on_c, 9, 36, 0
2, 65761, Note_on_c, 9, 42, 0
2, 65856, Note_on_c, 9, 39, 100
2, 65856, Note_on_c, 9, 42, 116
2, 65856, Note_on_c, 9, 40, 112
2, 65857, Note_on_c, 9, 40, 0
2, 65857, Note_on_c, 9, 42, 0
2, 65857, Note_on_c, 9, 39, 0
2, 65952, Note_on_c, 9, 46, 61
2, 65953, Note_on_c, 9, 46, 0
2, 66048, Note_on_c, 9, 42, 116
2, 66048, Note_on_c, 9, 36, 112
2, 66049, Note_on_c, 9, 36, 0
2, 66049, Note_on_c, 9, 42, 0
2, 66144, Note_on_c, 9, 42, 61
2, 66144, Note_on_c, 9, 36, 59
2, 66145, Note_on_c, 9, 36, 0
2, 66145, Note_on_c, 9, 42, 0
2, 66240, Note_on_c, 9, 39, 100
2, 66240, Note_on_c, 9, 42, 116
2, 66240, Note_on_c, 9, 40, 124
2, 66241, Note_on_c, 9, 40, 0
2, 66241, Note_on_c, 9, 42, 0
2, 66241, Note_on_c, 9, 39, 0
2, 66336, Note_on_c, 9, 42, 54
2, 66337, Note_on_c, 9, 42, 0
2, 66384, Note_on_c, 9, 36, 59
2, 66385, Note_on_c, 9, 36, 0
2, 66432, Note_on_c, 9, 42, 116
2, 66432, Note_on_c, 9, 36, 124
2, 66433, Note_on_c, 9, 36, 0
2, 66433, Note_on_c, 9, 42, 0
2, 66528, Note_on_c, 9, 42, 71
2, 66528, Note_on_c, 9, 36, 68
2, 66529, Note_on_c, 9, 36, 0
2, 66529, Note_on_c, 9, 42, 0
2, 66624, Note_on_c, 9, 39, 100
2, 66624, Note_on_c, 9, 42, 100
2, 66624, Note_on_c, 9, 40, 124
2, 66625, Note_on_c, 9, 40, 0
2, 66625, Note_on_c, 9, 42, 0
2, 66625, Note_on_c, 9, 39, 0
2, 66720, Note_on_c, 9, 46, 100
2, 66721, Note_on_c, 9, 46, 0
2, 66768, Note_on_c, 9, 36, 35
2, 66769, Note_on_c, 9, 36, 0
2, 66816, Note_on_c, 9, 42, 100
2, 66816, Note_on_c, 9, 36, 124
2, 66817, Note_on_c, 9, 36, 0
2, 66817, Note_on_c, 9, 42, 0
2, 66912, Note_on_c, 9, 42, 83
2, 66912, Note_on_c, 9, 36, 52
2, 66913, Note_on_c, 9, 36, 0
2, 66913, Note_on_c, 9, 42, 0
2, 67008, Note_on_c, 9, 39, 100
2, 67008, Note_on_c, 9, 42, 100
2, 67008, Note_on_c, 9, 40, 124
2, 67009, Note_on_c, 9, 40, 0
2, 67009, Note_on_c, 9, 42, 0
2, 67009, Note_on_c, 9, 39, 0
2, 67104, Note_on_c, 9, 42, 71
2, 67105, Note_on_c, 9, 42, 0
2, 67152, Note_on_c, 9, 36, 68
2, 67153, Note_on_c, 9, 36, 0
2, 67200, Note_on_c, 9, 42, 116
2, 67200, Note_on_c, 9, 36, 124
2, 67201, Note_on_c, 9, 36, 0
2, 67201, Note_on_c, 9, 42, 0
2, 67296, Note_on_c, 9, 42, 61
2, 67296, Note_on_c, 9, 36, 80
2, 67297, Note_on_c, 9, 36, 0
2, 67297, Note_on_c, 9, 42, 0
2, 67392, Note_on_c, 9, 39, 116
2, 67392, Note_on_c, 9, 42, 116
2, 67392, Note_on_c, 9, 40, 124
2, 67393, Note_on_c, 9, 40, 0
2, 67393, Note_on_c, 9, 42, 0
2, 67393, Note_on_c, 9, 39, 0
2, 67488, Note_on_c, 9, 46, 61
2, 67489, Note_on_c, 9, 46, 0
2, 67536, Note_on_c, 9, 36, 59
2, 67537, Note_on_c, 9, 36, 0
2, 67584, Note_on_c, 9, 42, 116
2, 67584, Note_on_c, 9, 36, 112
2, 67585, Note_on_c, 9, 36, 0
2, 67585, Note_on_c, 9, 42, 0
2, 67680, Note_on_c, 9, 42, 48
2, 67680, Note_on_c, 9, 36, 95
2, 67681, Note_on_c, 9, 36, 0
2, 67681, Note_on_c, 9, 42, 0
2, 67776, Note_on_c, 9, 39, 116
2, 67776, Note_on_c, 9, 42, 100
2, 67776, Note_on_c, 9, 40, 124
2, 67777, Note_on_c, 9, 40, 0
2, 67777, Note_on_c, 9, 42, 0
2, 67777, Note_on_c, 9, 39, 0
2, 67872, Note_on_c, 9, 42, 83
2, 67873, Note_on_c, 9, 42, 0
2, 67920, Note_on_c, 9, 36, 43
2, 67921, Note_on_c, 9, 36, 0
2, 67968, Note_on_c, 9, 42, 116
2, 67968, Note_on_c, 9, 36, 112
2, 67969, Note_on_c, 9, 36, 0
2, 67969, Note_on_c, 9, 42, 0
2, 68064, Note_on_c, 9, 42, 48
2, 68064, Note_on_c, 9, 36, 95
2, 68065, Note_on_c, 9, 36, 0
2, 68065, Note_on_c, 9, 42, 0
2, 68160, Note_on_c, 9, 39, 100
2, 68160, Note_on_c, 9, 42, 100
2, 68160, Note_on_c, 9, 40, 124
2, 68161, Note_on_c, 9, 40, 0
2, 68161, Note_on_c, 9, 42, 0
2, 68161, Note_on_c, 9, 39, 0
2, 68256, Note_on_c, 9, 46, 116
2, 68256, Note_on_c, 9, 36, 59
2, 68257, Note_on_c, 9, 36, 0
2, 68257, Note_on_c, 9, 46, 0
2, 68352, Note_on_c, 9, 42, 83
2, 68352, Note_on_c, 9, 36, 124
2, 68353, Note_on_c, 9, 36, 0
2, 68353, Note_on_c, 9, 42, 0
2, 68448, Note_on_c, 9, 42, 44
2, 68448, Note_on_c, 9, 36, 68
2, 68449, Note_on_c, 9, 36, 0
2, 68449, Note_on_c, 9, 42, 0
2, 68544, Note_on_c, 9, 39, 100
2, 68544, Note_on_c, 9, 42, 100
2, 68544, Note_on_c, 9, 40, 112
2, 68545, Note_on_c, 9, 40, 0
2, 68545, Note_on_c, 9, 42, 0
2, 68545, Note_on_c, 9, 39, 0
2, 68640, Note_on_c, 9, 42, 54
2, 68641, Note_on_c, 9, 42, 0
2, 68688, Note_on_c, 9, 36, 59
2, 68689, Note_on_c, 9, 36, 0
2, 68736, Note_on_c, 9, 42, 116
2, 68736, Note_on_c, 9, 36, 124
2, 68737, Note_on_c, 9, 36, 0
2, 68737, Note_on_c, 9, 42, 0
2, 68832, Note_on_c, 9, 42, 61
2, 68832, Note_on_c, 9, 36, 80
2, 68833, Note_on_c, 9, 36, 0
2, 68833, Note_on_c, 9, 42, 0
2, 68928, Note_on_c, 9, 39, 100
2, 68928, Note_on_c, 9, 42, 116
2, 68928, Note_on_c, 9, 40, 112
2, 68929, Note_on_c, 9, 40, 0
2, 68929, Note_on_c, 9, 42, 0
2, 68929, Note_on_c, 9, 39, 0
2, 69024, Note_on_c, 9, 46, 61
2, 69025, Note_on_c, 9, 46, 0
2, 69120, Note_on_c, 9, 42, 116
2, 69120, Note_on_c, 9, 36, 112
2, 69121, Note_on_c, 9, 36, 0
2, 69121, Note_on_c, 9, 42, 0
2, 69216, Note_on_c, 9, 42, 61
2, 69216, Note_on_c, 9, 36, 59
2, 69217, Note_on_c, 9, 36, 0
2, 69217, Note_on_c, 9, 42, 0
2, 69312, Note_on_c, 9, 39, 100
2, 69312, Note_on_c, 9, 42, 116
2, 69312, Note_on_c, 9, 40, 124
2, 69313, Note_on_c, 9, 40, 0
2, 69313, Note_on_c, 9, 42, 0
2, 69313, Note_on_c, 9, 39, 0
2, 69408, Note_on_c, 9, 42, 54
2, 69409, Note_on_c, 9, 42, 0
2, 69456, Note_on_c, 9, 36, 59
2, 69457, Note_on_c, 9, 36, 0
2, 69504, Note_on_c, 9, 42, 116
2, 69504, Note_on_c, 9, 36, 124
2, 69505, Note_on_c, 9, 36, 0
2, 69505, Note_on_c, 9, 42, 0
2, 69600, Note_on_c, 9, 42, 71
2, 69600, Note_on_c, 9, 36, 68
2, 69601, Note_on_c, 9, 36, 0
2, 69601, Note_on_c, 9, 42, 0
2, 69696, Note_on_c, 9, 39, 100
2, 69696, Note_on_c, 9, 42, 100
2, 69696, Note_on_c, 9, 40, 124
2, 69697, Note_on_c, 9, 40, 0
2, 69697, Note_on_c, 9, 42, 0
2, 69697, Note_on_c, 9, 39, 0
2, 69792, Note_on_c, 9, 46, 100
2, 69793, Note_on_c, 9, 46, 0
2, 69840, Note_on_c, 9, 36, 35
2, 69841, Note_on_c, 9, 36, 0
2, 69888, Note_on_c, 9, 42, 100
2, 69888, Note_on_c, 9, 36, 124
2, 69889, Note_on_c, 9, 36, 0
2, 69889, Note_on_c, 9, 42, 0
2, 69984, Note_on_c, 9, 42, 83
2, 69984, Note_on_c, 9, 36, 52
2, 69985, Note_on_c, 9, 36, 0
2, 69985, Note_on_c, 9, 42, 0
2, 70080, Note_on_c, 9, 39, 100
2, 70080, Note_on_c, 9, 42, 100
2, 70080, Note_on_c, 9, 40, 124
2, 70081, Note_on_c, 9, 40, 0
2, 70081, Note_on_c, 9, 42, 0
2, 70081, Note_on_c, 9, 39, 0
2, 70176, Note_on_c, 9, 42, 71
2, 70177, Note_on_c, 9, 42, 0
2, 70224, Note_on_c, 9, 36, 68
2, 70225, Note_on_c, 9, 36, 0
2, 70272, Note_on_c, 9, 42, 116
2, 70272, Note_on_c, 9, 36, 124
2, 70273, Note_on_c, 9, 36, 0
2, 70273, Note_on_c, 9, 42, 0
2, 70368, Note_on_c, 9, 42, 61
2, 70368, Note_on_c, 9, 36, 80
2, 70369, Note_on_c, 9, 36, 0
2, 70369, Note_on_c, 9, 42, 0
2, 70464, Note_on_c, 9, 39, 116
2, 70464, Note_on_c, 9, 42, 116
2, 70464, Note_on_c, 9, 40, 124
2, 70465, Note_on_c, 9, 40, 0
2, 70465, Note_on_c, 9, 42, 0
2, 70465, Note_on_c, 9, 39, 0
2, 70560, Note_on_c, 9, 46, 61
2, 70561, Note_on_c, 9, 46, 0
2, 70608, Note_on_c, 9, 36, 59
2, 70609, Note_on_c, 9, 36, 0
2, 70656, Note_on_c, 9, 42, 116
2, 70656, Note_on_c, 9, 36, 112
2, 70657, Note_on_c, 9, 36, 0
2, 70657, Note_on_c, 9, 42, 0
2, 70752, Note_on_c, 9, 42, 48
2, 70752, Note_on_c, 9, 36, 95
2, 70753, Note_on_c, 9, 36, 0
2, 70753, Note_on_c, 9, 42, 0
2, 70848, Note_on_c, 9, 39, 116
2, 70848, Note_on_c, 9, 42, 100
2, 70848, Note_on_c, 9, 40, 124
2, 70849, Note_on_c, 9, 40, 0
2, 70849, Note_on_c, 9, 42, 0
2, 70849, Note_on_c, 9, 39, 0
2, 70944, Note_on_c, 9, 42, 83
2, 70945, Note_on_c, 9, 42, 0
2, 70992, Note_on_c, 9, 36, 43
2, 70993, Note_on_c, 9, 36, 0
2, 71040, Note_on_c, 9, 42, 116
2, 71040, Note_on_c, 9, 36, 112
2, 71041, Note_on_c, 9, 36, 0
2, 71041, Note_on_c, 9, 42, 0
2, 71136, Note_on_c, 9, 42, 48
2, 71136, Note_on_c, 9, 36, 95
2, 71137, Note_on_c, 9, 36, 0
2, 71137, Note_on_c, 9, 42, 0
2, 71232, Note_on_c, 9, 39, 100
2, 71232, Note_on_c, 9, 42, 100
2, 71232, Note_on_c, 9, 40, 124
2, 71233, Note_on_c, 9, 40, 0
2, 71233, Note_on_c, 9, 42, 0
2, 71233, Note_on_c, 9, 39, 0
2, 71328, Note_on_c, 9, 46, 116
2, 71328, Note_on_c, 9, 36, 59
2, 71329, Note_on_c, 9, 36, 0
2, 71329, Note_on_c, 9, 46, 0
2, 71424, Note_on_c, 9, 42, 83
2, 71424, Note_on_c, 9, 36, 124
2, 71425, Note_on_c, 9, 36, 0
2, 71425, Note_on_c, 9, 42, 0
2, 71520, Note_on_c, 9, 42, 44
2, 71520, Note_on_c, 9, 36, 68
2, 71521, Note_on_c, 9, 36, 0
2, 71521, Note_on_c, 9, 42, 0
2, 71616, Note_on_c, 9, 39, 100
2, 71616, Note_on_c, 9, 42, 100
2, 71616, Note_on_c, 9, 40, 112
2, 71617, Note_on_c, 9, 40, 0
2, 71617, Note_on_c, 9, 42, 0
2, 71617, Note_on_c, 9, 39, 0
2, 71712, Note_on_c, 9, 42, 54
2, 71713, Note_on_c, 9, 42, 0
2, 71760, Note_on_c, 9, 36, 59
2, 71761, Note_on_c, 9, 36, 0
2, 71808, Note_on_c, 9, 42, 116
2, 71808, Note_on_c, 9, 36, 124
2, 71809, Note_on_c, 9, 36, 0
2, 71809, Note_on_c, 9, 42, 0
2, 71904, Note_on_c, 9, 42, 61
2, 71904, Note_on_c, 9, 36, 80
2, 71905, Note_on_c, 9, 36, 0
2, 71905, Note_on_c, 9, 42, 0
2, 72000, Note_on_c, 9, 39, 100
2, 72000, Note_on_c, 9, 42, 116
2, 72000, Note_on_c, 9, 40, 112
2, 72001, Note_on_c, 9, 40, 0
2, 72001, Note_on_c, 9, 42, 0
2, 72001, Note_on_c, 9, 39, 0
2, 72096, Note_on_c, 9, 46, 61
2, 72097, Note_on_c, 9, 46, 0
2, 72192, Note_on_c, 9, 42, 116
2, 72192, Note_on_c, 9, 36, 112
2, 72193, Note_on_c, 9, 36, 0
2, 72193, Note_on_c, 9, 42, 0
2, 72288, Note_on_c, 9, 42, 61
2, 72288, Note_on_c, 9, 36, 59
2, 72289, Note_on_c, 9, 36, 0
2, 72289, Note_on_c, 9, 42, 0
2, 72384, Note_on_c, 9, 39, 100
2, 72384, Note_on_c, 9, 42, 116
2, 72384, Note_on_c, 9, 40, 124
2, 72385, Note_on_c, 9, 40, 0
2, 72385, Note_on_c, 9, 42, 0
2, 72385, Note_on_c, 9, 39, 0
2, 72480, Note_on_c, 9, 42, 54
2, 72481, Note_on_c, 9, 42, 0
2, 72528, Note_on_c, 9, 36, 59
2, 72529, Note_on_c, 9, 36, 0
2, 72576, Note_on_c, 9, 42, 116
2, 72576, Note_on_c, 9, 36, 124
2, 72577, Note_on_c, 9, 36, 0
2, 72577, Note_on_c, 9, 42, 0
2, 72672, Note_on_c, 9, 42, 71
2, 72672, Note_on_c, 9, 36, 68
2, 72673, Note_on_c, 9, 36, 0
2, 72673, Note_on_c, 9, 42, 0
2, 72768, Note_on_c, 9, 39, 100
2, 72768, Note_on_c, 9, 42, 100
2, 72768, Note_on_c, 9, 40, 124
2, 72769, Note_on_c, 9, 40, 0
2, 72769, Note_on_c, 9, 42, 0
2, 72769, Note_on_c, 9, 39, 0
2, 72864, Note_on_c, 9, 46, 100
2, 72865, Note_on_c, 9, 46, 0
2, 72912, Note_on_c, 9, 36, 35
2, 72913, Note_on_c, 9, 36, 0
2, 72960, Note_on_c, 9, 42, 100
2, 72960, Note_on_c, 9, 36, 124
2, 72961, Note_on_c, 9, 36, 0
2, 72961, Note_on_c, 9, 42, 0
2, 73056, Note_on_c, 9, 42, 83
2, 73056, Note_on_c, 9, 36, 52
2, 73057, Note_on_c, 9, 36, 0
2, 73057, Note_on_c, 9, 42, 0
2, 73152, Note_on_c, 9, 39, 100
2, 73152, Note_on_c, 9, 42, 100
2, 73152, Note_on_c, 9, 40, 124
2, 73153, Note_on_c, 9, 40, 0
2, 73153, Note_on_c, 9, 42, 0
2, 73153, Note_on_c, 9, 39, 0
2, 73248, Note_on_c, 9, 42, 71
2, 73249, Note_on_c, 9, 42, 0
2, 73296, Note_on_c, 9, 36, 68
2, 73297, Note_on_c, 9, 36, 0
2, 73344, Note_on_c, 9, 42, 116
2, 73344, Note_on_c, 9, 36, 124
2, 73345, Note_on_c, 9, 36, 0
2, 73345, Note_on_c, 9, 42, 0
2, 73440, Note_on_c, 9, 42, 61
2, 73440, Note_on_c, 9, 36, 80
2, 73441, Note_on_c, 9, 36, 0
2, 73441, Note_on_c, 9, 42, 0
2, 73536, Note_on_c, 9, 39, 116
2, 73536, Note_on_c, 9, 42, 116
2, 73536, Note_on_c, 9, 40, 124
2, 73537, Note_on_c, 9, 40, 0
2, 73537, Note_on_c, 9, 42, 0
2, 73537, Note_on_c, 9, 39, 0
2, 73632, Note_on_c, 9, 46, 61
2, 73633, Note_on_c, 9, 46, 0
2, 73680, Note_on_c, 9, 36, 59
2, 73681, Note_on_c, 9, 36, 0
2, 73728, Note_on_c, 9, 42, 116
2, 73728, Note_on_c, 9, 36, 112
2, 73729, Note_on_c, 9, 36, 0
2, 73729, Note_on_c, 9, 42, 0
2, 73824, Note_on_c, 9, 42, 48
2, 73824, Note_on_c, 9, 36, 95
2, 73825, Note_on_c, 9, 36, 0
2, 73825, Note_on_c, 9, 42, 0
2, 73920, Note_on_c, 9, 39, 116
2, 73920, Note_on_c, 9, 42, 100
2, 73920, Note_on_c, 9, 40, 124
2, 73921, Note_on_c, 9, 40, 0
2, 73921, Note_on_c, 9, 42, 0
2, 73921, Note_on_c, 9, 39, 0
2, 74016, Note_on_c, 9, 42, 83
2, 74017, Note_on_c, 9, 42, 0
2, 74064, Note_on_c, 9, 36, 43
2, 74065, Note_on_c, 9, 36, 0
2, 74112, Note_on_c, 9, 42, 116
2, 74112, Note_on_c, 9, 36, 112
2, 74113, Note_on_c, 9, 36, 0
2, 74113, Note_on_c, 9, 42, 0
2, 74208, Note_on_c, 9, 42, 48
2, 74208, Note_on_c, 9, 36, 95
2, 74209, Note_on_c, 9, 36, 0
2, 74209, Note_on_c, 9, 42, 0
2, 74304, Note_on_c, 9, 39, 100
2, 74304, Note_on_c, 9, 42, 100
2, 74304, Note_on_c, 9, 40, 124
2, 74305, Note_on_c, 9, 40, 0
2, 74305, Note_on_c, 9, 42, 0
2, 74305, Note_on_c, 9, 39, 0
2, 74400, Note_on_c, 9, 46, 116
2, 74400, Note_on_c, 9, 36, 59
2, 74401, Note_on_c, 9, 36, 0
2, 74401, Note_on_c, 9, 46, 0
2, 74496, Note_on_c, 9, 42, 83
2, 74496, Note_on_c, 9, 36, 124
2, 74497, Note_on_c, 9, 36, 0
2, 74497, Note_on_c, 9, 42, 0
2, 74592, Note_on_c, 9, 42, 44
2, 74592, Note_on_c, 9, 36, 68
2, 74593, Note_on_c, 9, 36, 0
2, 74593, Note_on_c, 9, 42, 0
2, 74688, Note_on_c, 9, 39, 100
2, 74688, Note_on_c, 9, 42, 100
2, 74688, Note_on_c, 9, 40, 112
2, 74689, Note_on_c, 9, 40, 0
2, 74689, Note_on_c, 9, 42, 0
2, 74689, Note_on_c, 9, 39, 0
2, 74784, Note_on_c, 9, 42, 54
2, 74785, Note_on_c, 9, 42, 0
2, 74832, Note_on_c, 9, 36, 59
2, 74833, Note_on_c, 9, 36, 0
2, 74880, Note_on_c, 9, 42, 116
2, 74880, Note_on_c, 9, 36, 124
2, 74881, Note_on_c, 9, 36, 0
2, 74881, Note_on_c, 9, 42, 0
2, 74976, Note_on_c, 9, 42, 61
2, 74976, Note_on_c, 9, 36, 80
2, 74977, Note_on_c, 9, 36, 0
2, 74977, Note_on_c, 9, 42, 0
2, 75072, Note_on_c, 9, 39, 100
2, 75072, Note_on_c, 9, 42, 116
2, 75072, Note_on_c, 9, 40, 112
2, 75073, Note_on_c, 9, 40, 0
2, 75073, Note_on_c, 9, 42, 0
2, 75073, Note_on_c, 9, 39, 0
2, 75168, Note_on_c, 9, 46, 61
2, 75169, Note_on_c, 9, 46, 0
2, 75264, Note_on_c, 9, 42, 116
2, 75264, Note_on_c, 9, 36, 112
2, 75265, Note_on_c, 9, 36, 0
2, 75265, Note_on_c, 9, 42, 0
2, 75360, Note_on_c, 9, 42, 61
2, 75360, Note_on_c, 9, 36, 59
2, 75361, Note_on_c, 9, 36, 0
2, 75361, Note_on_c, 9, 42, 0
2, 75456, Note_on_c, 9, 39, 100
2, 75456, Note_on_c, 9, 42, 116
2, 75456, Note_on_c, 9, 40, 124
2, 75457, Note_on_c, 9, 40, 0
2, 75457, Note_on_c, 9, 42, 0
2, 75457, Note_on_c, 9, 39, 0
2, 75552, Note_on_c, 9, 42, 54
2, 75553, Note_on_c, 9, 42, 0
2, 75600, Note_on_c, 9, 36, 59
2, 75601, Note_on_c, 9, 36, 0
2, 75648, Note_on_c, 9, 42, 116
2, 75648, Note_on_c, 9, 36, 124
2, 75649, Note_on_c, 9, 36, 0
2, 75649, Note_on_c, 9, 42, 0
2, 75744, Note_on_c, 9, 42, 71
2, 75744, Note_on_c, 9, 36, 68
2, 75745, Note_on_c, 9, 36, 0
2, 75745, Note_on_c, 9, 42, 0
2, 75840, Note_on_c, 9, 39, 100
2, 75840, Note_on_c, 9, 42, 100
2, 75840, Note_on_c, 9, 40, 124
2, 75841, Note_on_c, 9, 40, 0
2, 75841, Note_on_c, 9, 42, 0
2, 75841, Note_on_c, 9, 39, 0
2, 75936, Note_on_c, 9, 46, 100
2, 75937, Note_on_c, 9, 46, 0
2, 75984, Note_on_c, 9, 36, 35
2, 75985, Note_on_c, 9, 36, 0
2, 76032, Note_on_c, 9, 42, 100
2, 76032, Note_on_c, 9, 36, 124
2, 76033, Note_on_c, 9, 36, 0
2, 76033, Note_on_c, 9, 42, 0
2, 76128, Note_on_c, 9, 42, 83
2, 76128, Note_on_c, 9, 36, 52
2, 76129, Note_on_c, 9, 36, 0
2, 76129, Note_on_c, 9, 42, 0
2, 76224, Note_on_c, 9, 39, 100
2, 76224, Note_on_c, 9, 42, 100
2, 76224, Note_on_c, 9, 40, 124
2, 76225, Note_on_c, 9, 40, 0
2, 76225, Note_on_c, 9, 42, 0
2, 76225, Note_on_c, 9, 39, 0
2, 76320, Note_on_c, 9, 42, 71
2, 76321, Note_on_c, 9, 42, 0
2, 76368, Note_on_c, 9, 36, 68
2, 76369, Note_on_c, 9, 36, 0
2, 76416, Note_on_c, 9, 42, 116
2, 76416, Note_on_c, 9, 36, 124
2, 76417, Note_on_c, 9, 36, 0
2, 76417, Note_on_c, 9, 42, 0
2, 76512, Note_on_c, 9, 42, 61
2, 76512, Note_on_c, 9, 36, 80
2, 76513, Note_on_c, 9, 36, 0
2, 76513, Note_on_c, 9, 42, 0
2, 76608, Note_on_c, 9, 39, 116
2, 76608, Note_on_c, 9, 42, 116
2, 76608, Note_on_c, 9, 40, 124
2, 76609, Note_on_c, 9, 40, 0
2, 76609, Note_on_c, 9, 42, 0
2, 76609, Note_on_c, 9, 39, 0
2, 76704, Note_on_c, 9, 46, 61
2, 76705, Note_on_c, 9, 46, 0
2, 76752, Note_on_c, 9, 36, 59
2, 76753, Note_on_c, 9, 36, 0
2, 76800, Note_on_c, 9, 42, 116
2, 76800, Note_on_c, 9, 36, 112
2, 76801, Note_on_c, 9, 36, 0
2, 76801, Note_on_c, 9, 42, 0
2, 76896, Note_on_c, 9, 46, 48
2, 76896, Note_on_c, 9, 36, 95
2, 76897, Note_on_c, 9, 36, 0
2, 76897, Note_on_c, 9, 46, 0
2, 76992, Note_on_c, 9, 39, 116
2, 76992, Note_on_c, 9, 42, 100
2, 76992, Note_on_c, 9, 40, 124
2, 76993, Note_on_c, 9, 40, 0
2, 76993, Note_on_c, 9, 42, 0
2, 76993, Note_on_c, 9, 39, 0
2, 77088, Note_on_c, 9, 42, 83
2, 77089, Note_on_c, 9, 42, 0
2, 77136, Note_on_c, 9, 36, 43
2, 77137, Note_on_c, 9, 36, 0
2, 77184, Note_on_c, 9, 42, 116
2, 77184, Note_on_c, 9, 36, 112
2, 77185, Note_on_c, 9, 36, 0
2, 77185, Note_on_c, 9, 42, 0
2, 77376, Note_on_c, 9, 39, 100
2, 77376, Note_on_c, 9, 42, 100
2, 77376, Note_on_c, 9, 40, 124
2, 77377, Note_on_c, 9, 40, 0
2, 77377, Note_on_c, 9, 42, 0
2, 77377, Note_on_c, 9, 39, 0
2, 77472, Note_on_c, 9, 49, 116
2, 77472, Note_on_c, 9, 36, 127
2, 77473, Note_on_c, 9, 36, 0
2, 77473, Note_on_c, 9, 49, 0
2, 77664, Note_on_c, 9, 42, 44
2, 77664, Note_on_c, 9, 36, 68
2, 77665, Note_on_c, 9, 36, 0
2, 77665, Note_on_c, 9, 42, 0
2, 77760, Note_on_c, 9, 39, 100
2, 77760, Note_on_c, 9, 42, 100
2, 77760, Note_on_c, 9, 40, 112
2, 77761, Note_on_c, 9, 40, 0
2, 77761, Note_on_c, 9, 42, 0
2, 77761, Note_on_c, 9, 39, 0
2, 77856, Note_on_c, 9, 42, 54
2, 77857, Note_on_c, 9, 42, 0
2, 77904, Note_on_c, 9, 36, 59
2, 77905, Note_on_c, 9, 36, 0
2, 77952, Note_on_c, 9, 42, 116
2, 77952, Note_on_c, 9, 36, 124
2, 77953, Note_on_c, 9, 36, 0
2, 77953, Note_on_c, 9, 42, 0
2, 78048, Note_on_c, 9, 42, 61
2, 78048, Note_on_c, 9, 36, 80
2, 78049, Note_on_c, 9, 36, 0
2, 78049, Note_on_c, 9, 42, 0
2, 78144, Note_on_c, 9, 39, 100
2, 78144, Note_on_c, 9, 42, 116
2, 78144, Note_on_c, 9, 40, 112
2, 78145, Note_on_c, 9, 40, 0
2, 78145, Note_on_c, 9, 42, 0
2, 78145, Note_on_c, 9, 39, 0
2, 78240, Note_on_c, 9, 42, 61
2, 78241, Note_on_c, 9, 42, 0
2, 78336, Note_on_c, 9, 42, 116
2, 78336, Note_on_c, 9, 36, 112
2, 78337, Note_on_c, 9, 36, 0
2, 78337, Note_on_c, 9, 42, 0
2, 78432, Note_on_c, 9, 42, 61
2, 78432, Note_on_c, 9, 36, 59
2, 78433, Note_on_c, 9, 36, 0
2, 78433, Note_on_c, 9, 42, 0
2, 78528, Note_on_c, 9, 39, 100
2, 78528, Note_on_c, 9, 42, 116
2, 78528, Note_on_c, 9, 40, 124
2, 78529, Note_on_c, 9, 40, 0
2, 78529, Note_on_c, 9, 42, 0
2, 78529, Note_on_c, 9, 39, 0
2, 78624, Note_on_c, 9, 42, 54
2, 78625, Note_on_c, 9, 42, 0
2, 78672, Note_on_c, 9, 36, 59
2, 78673, Note_on_c, 9, 36, 0
2, 78720, Note_on_c, 9, 42, 116
2, 78720, Note_on_c, 9, 36, 124
2, 78721, Note_on_c, 9, 36, 0
2, 78721, Note_on_c, 9, 42, 0
2, 78816, Note_on_c, 9, 42, 71
2, 78816, Note_on_c, 9, 36, 68
2, 78817, Note_on_c, 9, 36, 0
2, 78817, Note_on_c, 9, 42, 0
2, 78912, Note_on_c, 9, 39, 100
2, 78912, Note_on_c, 9, 42, 100
2, 78912, Note_on_c, 9, 40, 124
2, 78913, Note_on_c, 9, 40, 0
2, 78913, Note_on_c, 9, 42, 0
2, 78913, Note_on_c, 9, 39, 0
2, 79008, Note_on_c, 9, 46, 100
2, 79009, Note_on_c, 9, 46, 0
2, 79056, Note_on_c, 9, 36, 35
2, 79057, Note_on_c, 9, 36, 0
2, 79104, Note_on_c, 9, 42, 100
2, 79104, Note_on_c, 9, 36, 124
2, 79105, Note_on_c, 9, 36, 0
2, 79105, Note_on_c, 9, 42, 0
2, 79200, Note_on_c, 9, 42, 83
2, 79200, Note_on_c, 9, 36, 52
2, 79201, Note_on_c, 9, 36, 0
2, 79201, Note_on_c, 9, 42, 0
2, 79296, Note_on_c, 9, 39, 100
2, 79296, Note_on_c, 9, 42, 100
2, 79296, Note_on_c, 9, 40, 124
2, 79297, Note_on_c, 9, 40, 0
2, 79297, Note_on_c, 9, 42, 0
2, 79297, Note_on_c, 9, 39, 0
2, 79392, Note_on_c, 9, 42, 71
2, 79393, Note_on_c, 9, 42, 0
2, 79440, Note_on_c, 9, 36, 68
2, 79441, Note_on_c, 9, 36, 0
2, 79488, Note_on_c, 9, 42, 116
2, 79488, Note_on_c, 9, 36, 124
2, 79489, Note_on_c, 9, 36, 0
2, 79489, Note_on_c, 9, 42, 0
2, 79584, Note_on_c, 9, 42, 61
2, 79584, Note_on_c, 9, 36, 80
2, 79585, Note_on_c, 9, 36, 0
2, 79585, Note_on_c, 9, 42, 0
2, 79680, Note_on_c, 9, 39, 116
2, 79680, Note_on_c, 9, 42, 116
2, 79680, Note_on_c, 9, 40, 124
2, 79681, Note_on_c, 9, 40, 0
2, 79681, Note_on_c, 9, 42, 0
2, 79681, Note_on_c, 9, 39, 0
2, 79776, Note_on_c, 9, 42, 61
2, 79777, Note_on_c, 9, 42, 0
2, 79824, Note_on_c, 9, 36, 59
2, 79825, Note_on_c, 9, 36, 0
2, 79872, Note_on_c, 9, 42, 116
2, 79872, Note_on_c, 9, 36, 112
2, 79873, Note_on_c, 9, 36, 0
2, 79873, Note_on_c, 9, 42, 0
2, 79968, Note_on_c, 9, 42, 48
2, 79968, Note_on_c, 9, 36, 95
2, 79969, Note_on_c, 9, 36, 0
2, 79969, Note_on_c, 9, 42, 0
2, 80064, Note_on_c, 9, 39, 116
2, 80064, Note_on_c, 9, 42, 100
2, 80064, Note_on_c, 9, 40, 124
2, 80065, Note_on_c, 9, 40, 0
2, 80065, Note_on_c, 9, 42, 0
2, 80065, Note_on_c, 9, 39, 0
2, 80160, Note_on_c, 9, 42, 83
2, 80161, Note_on_c, 9, 42, 0
2, 80208, Note_on_c, 9, 36, 43
2, 80209, Note_on_c, 9, 36, 0
2, 80256, Note_on_c, 9, 42, 116
2, 80256, Note_on_c, 9, 36, 112
2, 80257, Note_on_c, 9, 36, 0
2, 80257, Note_on_c, 9, 42, 0
2, 80352, Note_on_c, 9, 42, 48
2, 80352, Note_on_c, 9, 36, 95
2, 80353, Note_on_c, 9, 36, 0
2, 80353, Note_on_c, 9, 42, 0
2, 80448, Note_on_c, 9, 39, 100
2, 80448, Note_on_c, 9, 42, 100
2, 80448, Note_on_c, 9, 40, 124
2, 80449, Note_on_c, 9, 40, 0
2, 80449, Note_on_c, 9, 42, 0
2, 80449, Note_on_c, 9, 39, 0
2, 80544, Note_on_c, 9, 46, 116
2, 80544, Note_on_c, 9, 36, 59
2, 80545, Note_on_c, 9, 36, 0
2, 80545, Note_on_c, 9, 46, 0
2, 80640, Note_on_c, 9, 42, 83
2, 80640, Note_on_c, 9, 36, 124
2, 80641, Note_on_c, 9, 36, 0
2, 80641, Note_on_c, 9, 42, 0
2, 80736, Note_on_c, 9, 42, 44
2, 80736, Note_on_c, 9, 36, 68
2, 80737, Note_on_c, 9, 36, 0
2, 80737, Note_on_c, 9, 42, 0
2, 80832, Note_on_c, 9, 39, 100
2, 80832, Note_on_c, 9, 42, 100
2, 80832, Note_on_c, 9, 40, 112
2, 80833, Note_on_c, 9, 40, 0
2, 80833, Note_on_c, 9, 42, 0
2, 80833, Note_on_c, 9, 39, 0
2, 80928, Note_on_c, 9, 42, 54
2, 80929, Note_on_c, 9, 42, 0
2, 80976, Note_on_c, 9, 36, 59
2, 80977, Note_on_c, 9, 36, 0
2, 81024, Note_on_c, 9, 42, 116
2, 81024, Note_on_c, 9, 36, 124
2, 81025, Note_on_c, 9, 36, 0
2, 81025, Note_on_c, 9, 42, 0
2, 81120, Note_on_c, 9, 42, 61
2, 81120, Note_on_c, 9, 36, 80
2, 81121, Note_on_c, 9, 36, 0
2, 81121, Note_on_c, 9, 42, 0
2, 81216, Note_on_c, 9, 39, 100
2, 81216, Note_on_c, 9, 42, 116
2, 81216, Note_on_c, 9, 40, 112
2, 81217, Note_on_c, 9, 40, 0
2, 81217, Note_on_c, 9, 42, 0
2, 81217, Note_on_c, 9, 39, 0
2, 81312, Note_on_c, 9, 42, 61
2, 81313, Note_on_c, 9, 42, 0
2, 81408, Note_on_c, 9, 42, 116
2, 81408, Note_on_c, 9, 36, 112
2, 81409, Note_on_c, 9, 36, 0
2, 81409, Note_on_c, 9, 42, 0
2, 81504, Note_on_c, 9, 42, 61
2, 81504, Note_on_c, 9, 36, 59
2, 81505, Note_on_c, 9, 36, 0
2, 81505, Note_on_c, 9, 42, 0
2, 81600, Note_on_c, 9, 39, 100
2, 81600, Note_on_c, 9, 42, 116
2, 81600, Note_on_c, 9, 40, 124
2, 81601, Note_on_c, 9, 40, 0
2, 81601, Note_on_c, 9, 42, 0
2, 81601, Note_on_c, 9, 39, 0
2, 81696, Note_on_c, 9, 42, 54
2, 81697, Note_on_c, 9, 42, 0
2, 81744, Note_on_c, 9, 36, 59
2, 81745, Note_on_c, 9, 36, 0
2, 81792, Note_on_c, 9, 42, 116
2, 81792, Note_on_c, 9, 36, 124
2, 81793, Note_on_c, 9, 36, 0
2, 81793, Note_on_c, 9, 42, 0
2, 81888, Note_on_c, 9, 42, 71
2, 81888, Note_on_c, 9, 36, 68
2, 81889, Note_on_c, 9, 36, 0
2, 81889, Note_on_c, 9, 42, 0
2, 81984, Note_on_c, 9, 39, 100
2, 81984, Note_on_c, 9, 42, 100
2, 81984, Note_on_c, 9, 40, 124
2, 81985, Note_on_c, 9, 40, 0
2, 81985, Note_on_c, 9, 42, 0
2, 81985, Note_on_c, 9, 39, 0
2, 82080, Note_on_c, 9, 46, 100
2, 82081, Note_on_c, 9, 46, 0
2, 82128, Note_on_c, 9, 36, 35
2, 82129, Note_on_c, 9, 36, 0
2, 82176, Note_on_c, 9, 42, 100
2, 82176, Note_on_c, 9, 36, 124
2, 82177, Note_on_c, 9, 36, 0
2, 82177, Note_on_c, 9, 42, 0
2, 82272, Note_on_c, 9, 42, 83
2, 82272, Note_on_c, 9, 36, 52
2, 82273, Note_on_c, 9, 36, 0
2, 82273, Note_on_c, 9, 42, 0
2, 82368, Note_on_c, 9, 39, 100
2, 82368, Note_on_c, 9, 42, 100
2, 82368, Note_on_c, 9, 40, 124
2, 82369, Note_on_c, 9, 40, 0
2, 82369, Note_on_c, 9, 42, 0
2, 82369, Note_on_c, 9, 39, 0
2, 82464, Note_on_c, 9, 42, 71
2, 82465, Note_on_c, 9, 42, 0
2, 82512, Note_on_c, 9, 36, 68
2, 82513, Note_on_c, 9, 36, 0
2, 82560, Note_on_c, 9, 42, 116
2, 82560, Note_on_c, 9, 36, 124
2, 82561, Note_on_c, 9, 36, 0
2, 82561, Note_on_c, 9, 42, 0
2, 82656, Note_on_c, 9, 42, 61
2, 82656, Note_on_c, 9, 36, 80
2, 82657, Note_on_c, 9, 36, 0
2, 82657, Note_on_c, 9, 42, 0
2, 82752, Note_on_c, 9, 39, 116
2, 82752, Note_on_c, 9, 42, 116
2, 82752, Note_on_c, 9, 40, 124
2, 82753, Note_on_c, 9, 40, 0
2, 82753, Note_on_c, 9, 42, 0
2, 82753, Note_on_c, 9, 39, 0
2, 82848, Note_on_c, 9, 42, 61
2, 82849, Note_on_c, 9, 42, 0
2, 82896, Note_on_c, 9, 36, 59
2, 82897, Note_on_c, 9, 36, 0
2, 82944, Note_on_c, 9, 42, 116
2, 82944, Note_on_c, 9, 36, 112
2, 82945, Note_on_c, 9, 36, 0
2, 82945, Note_on_c, 9, 42, 0
2, 83040, Note_on_c, 9, 42, 48
2, 83040, Note_on_c, 9, 36, 95
2, 83041, Note_on_c, 9, 36, 0
2, 83041, Note_on_c, 9, 42, 0
2, 83136, Note_on_c, 9, 39, 116
2, 83136, Note_on_c, 9, 42, 100
2, 83136, Note_on_c, 9, 40, 124
2, 83137, Note_on_c, 9, 40, 0
2, 83137, Note_on_c, 9, 42, 0
2, 83137, Note_on_c, 9, 39, 0
2, 83232, Note_on_c, 9, 42, 83
2, 83233, Note_on_c, 9, 42, 0
2, 83280, Note_on_c, 9, 36, 43
2, 83281, Note_on_c, 9, 36, 0
2, 83328, Note_on_c, 9, 42, 116
2, 83328, Note_on_c, 9, 36, 112
2, 83329, Note_on_c, 9, 36, 0
2, 83329, Note_on_c, 9, 42, 0
2, 83424, Note_on_c, 9, 42, 48
2, 83424, Note_on_c, 9, 36, 95
2, 83425, Note_on_c, 9, 36, 0
2, 83425, Note_on_c, 9, 42, 0
2, 83520, Note_on_c, 9, 39, 100
2, 83520, Note_on_c, 9, 42, 100
2, 83520, Note_on_c, 9, 40, 124
2, 83521, Note_on_c, 9, 40, 0
2, 83521, Note_on_c, 9, 42, 0
2, 83521, Note_on_c, 9, 39, 0
2, 83616, Note_on_c, 9, 46, 116
2, 83616, Note_on_c, 9, 36, 59
2, 83617, Note_on_c, 9, 36, 0
2, 83617, Note_on_c, 9, 46, 0
2, 83712, Note_on_c, 9, 42, 83
2, 83712, Note_on_c, 9, 36, 124
2, 83713, Note_on_c, 9, 36, 0
2, 83713, Note_on_c, 9, 42, 0
2, 83808, Note_on_c, 9, 42, 44
2, 83808, Note_on_c, 9, 36, 68
2, 83809, Note_on_c, 9, 36, 0
2, 83809, Note_on_c, 9, 42, 0
2, 83904, Note_on_c, 9, 39, 100
2, 83904, Note_on_c, 9, 42, 100
2, 83904, Note_on_c, 9, 40, 112
2, 83905, Note_on_c, 9, 40, 0
2, 83905, Note_on_c, 9, 42, 0
2, 83905, Note_on_c, 9, 39, 0
2, 84000, Note_on_c, 9, 42, 54
2, 84001, Note_on_c, 9, 42, 0
2, 84048, Note_on_c, 9, 36, 59
2, 84049, Note_on_c, 9, 36, 0
2, 84096, Note_on_c, 9, 42, 116
2, 84096, Note_on_c, 9, 36, 124
2, 84097, Note_on_c, 9, 36, 0
2, 84097, Note_on_c, 9, 42, 0
2, 84192, Note_on_c, 9, 42, 61
2, 84192, Note_on_c, 9, 36, 80
2, 84193, Note_on_c, 9, 36, 0
2, 84193, Note_on_c, 9, 42, 0
2, 84288, Note_on_c, 9, 39, 100
2, 84288, Note_on_c, 9, 42, 116
2, 84288, Note_on_c, 9, 40, 112
2, 84289, Note_on_c, 9, 40, 0
2, 84289, Note_on_c, 9, 42, 0
2, 84289, Note_on_c, 9, 39, 0
2, 84384, Note_on_c, 9, 42, 61
2, 84385, Note_on_c, 9, 42, 0
2, 84480, Note_on_c, 9, 42, 116
2, 84480, Note_on_c, 9, 36, 112
2, 84481, Note_on_c, 9, 36, 0
2, 84481, Note_on_c, 9, 42, 0
2, 84576, Note_on_c, 9, 42, 61
2, 84576, Note_on_c, 9, 36, 59
2, 84577, Note_on_c, 9, 36, 0
2, 84577, Note_on_c, 9, 42, 0
2, 84672, Note_on_c, 9, 39, 100
2, 84672, Note_on_c, 9, 42, 116
2, 84672, Note_on_c, 9, 40, 124
2, 84673, Note_on_c, 9, 40, 0
2, 84673, Note_on_c, 9, 42, 0
2, 84673, Note_on_c, 9, 39, 0
2, 84768, Note_on_c, 9, 42, 54
2, 84769, Note_on_c, 9, 42, 0
2, 84816, Note_on_c, 9, 36, 59
2, 84817, Note_on_c, 9, 36, 0
2, 84864, Note_on_c, 9, 42, 116
2, 84864, Note_on_c, 9, 36, 124
2, 84865, Note_on_c, 9, 36, 0
2, 84865, Note_on_c, 9, 42, 0
2, 84960, Note_on_c, 9, 42, 71
2, 84960, Note_on_c, 9, 36, 68
2, 84961, Note_on_c, 9, 36, 0
2, 84961, Note_on_c, 9, 42, 0
2, 85056, Note_on_c, 9, 39, 100
2, 85056, Note_on_c, 9, 42, 100
2, 85056, Note_on_c, 9, 40, 124
2, 85057, Note_on_c, 9, 40, 0
2, 85057, Note_on_c, 9, 42, 0
2, 85057, Note_on_c, 9, 39, 0
2, 85152, Note_on_c, 9, 46, 100
2, 85153, Note_on_c, 9, 46, 0
2, 85200, Note_on_c, 9, 36, 35
2, 85201, Note_on_c, 9, 36, 0
2, 85248, Note_on_c, 9, 42, 100
2, 85248, Note_on_c, 9, 36, 124
2, 85249, Note_on_c, 9, 36, 0
2, 85249, Note_on_c, 9, 42, 0
2, 85344, Note_on_c, 9, 42, 83
2, 85344, Note_on_c, 9, 36, 52
2, 85345, Note_on_c, 9, 36, 0
2, 85345, Note_on_c, 9, 42, 0
2, 85440, Note_on_c, 9, 39, 100
2, 85440, Note_on_c, 9, 42, 100
2, 85440, Note_on_c, 9, 40, 124
2, 85441, Note_on_c, 9, 40, 0
2, 85441, Note_on_c, 9, 42, 0
2, 85441, Note_on_c, 9, 39, 0
2, 85536, Note_on_c, 9, 42, 71
2, 85537, Note_on_c, 9, 42, 0
2, 85584, Note_on_c, 9, 36, 68
2, 85585, Note_on_c, 9, 36, 0
2, 85632, Note_on_c, 9, 42, 116
2, 85632, Note_on_c, 9, 36, 124
2, 85633, Note_on_c, 9, 36, 0
2, 85633, Note_on_c, 9, 42, 0
2, 85728, Note_on_c, 9, 42, 61
2, 85728, Note_on_c, 9, 36, 80
2, 85729, Note_on_c, 9, 36, 0
2, 85729, Note_on_c, 9, 42, 0
2, 85824, Note_on_c, 9, 39, 116
2, 85824, Note_on_c, 9, 42, 116
2, 85824, Note_on_c, 9, 40, 124
2, 85825, Note_on_c, 9, 40, 0
2, 85825, Note_on_c, 9, 42, 0
2, 85825, Note_on_c, 9, 39, 0
2, 85920, Note_on_c, 9, 42, 61
2, 85921, Note_on_c, 9, 42, 0
2, 85968, Note_on_c, 9, 36, 59
2, 85969, Note_on_c, 9, 36, 0
2, 86016, Note_on_c, 9, 42, 116
2, 86016, Note_on_c, 9, 36, 112
2, 86017, Note_on_c, 9, 36, 0
2, 86017, Note_on_c, 9, 42, 0
2, 86112, Note_on_c, 9, 42, 48
2, 86112, Note_on_c, 9, 36, 95
2, 86113, Note_on_c, 9, 36, 0
2, 86113, Note_on_c, 9, 42, 0
2, 86208, Note_on_c, 9, 39, 116
2, 86208, Note_on_c, 9, 42, 100
2, 86208, Note_on_c, 9, 40, 124
2, 86209, Note_on_c, 9, 40, 0
2, 86209, Note_on_c, 9, 42, 0
2, 86209, Note_on_c, 9, 39, 0
2, 86304, Note_on_c, 9, 42, 83
2, 86305, Note_on_c, 9, 42, 0
2, 86352, Note_on_c, 9, 36, 43
2, 86353, Note_on_c, 9, 36, 0
2, 86400, Note_on_c, 9, 42, 116
2, 86400, Note_on_c, 9, 36, 112
2, 86401, Note_on_c, 9, 36, 0
2, 86401, Note_on_c, 9, 42, 0
2, 86496, Note_on_c, 9, 42, 48
2, 86496, Note_on_c, 9, 36, 95
2, 86497, Note_on_c, 9, 36, 0
2, 86497, Note_on_c, 9, 42, 0
2, 86592, Note_on_c, 9, 39, 100
2, 86592, Note_on_c, 9, 42, 100
2, 86592, Note_on_c, 9, 40, 124
2, 86593, Note_on_c, 9, 40, 0
2, 86593, Note_on_c, 9, 42, 0
2, 86593, Note_on_c, 9, 39, 0
2, 86688, Note_on_c, 9, 46, 116
2, 86688, Note_on_c, 9, 36, 59
2, 86689, Note_on_c, 9, 36, 0
2, 86689, Note_on_c, 9, 46, 0
2, 86784, Note_on_c, 9, 42, 83
2, 86784, Note_on_c, 9, 36, 124
2, 86785, Note_on_c, 9, 36, 0
2, 86785, Note_on_c, 9, 42, 0
2, 86880, Note_on_c, 9, 42, 44
2, 86880, Note_on_c, 9, 36, 68
2, 86881, Note_on_c, 9, 36, 0
2, 86881, Note_on_c, 9, 42, 0
2, 86976, Note_on_c, 9, 39, 100
2, 86976, Note_on_c, 9, 42, 100
2, 86976, Note_on_c, 9, 40, 112
2, 86977, Note_on_c, 9, 40, 0
2, 86977, Note_on_c, 9, 42, 0
2, 86977, Note_on_c, 9, 39, 0
2, 87072, Note_on_c, 9, 42, 54
2, 87073, Note_on_c, 9, 42, 0
2, 87120, Note_on_c, 9, 36, 59
2, 87121, Note_on_c, 9, 36, 0
2, 87168, Note_on_c, 9, 42, 116
2, 87168, Note_on_c, 9, 36, 124
2, 87169, Note_on_c, 9, 36, 0
2, 87169, Note_on_c, 9, 42, 0
2, 87264, Note_on_c, 9, 42, 61
2, 87264, Note_on_c, 9, 36, 80
2, 87265, Note_on_c, 9, 36, 0
2, 87265, Note_on_c, 9, 42, 0
2, 87360, Note_on_c, 9, 39, 100
2, 87360, Note_on_c, 9, 42, 116
2, 87360, Note_on_c, 9, 40, 112
2, 87361, Note_on_c, 9, 40, 0
2, 87361, Note_on_c, 9, 42, 0
2, 87361, Note_on_c, 9, 39, 0
2, 87456, Note_on_c, 9, 42, 61
2, 87457, Note_on_c, 9, 42, 0
2, 87552, Note_on_c, 9, 42, 116
2, 87552, Note_on_c, 9, 36, 112
2, 87553, Note_on_c, 9, 36, 0
2, 87553, Note_on_c, 9, 42, 0
2, 87648, Note_on_c, 9, 42, 61
2, 87648, Note_on_c, 9, 36, 59
2, 87649, Note_on_c, 9, 36, 0
2, 87649, Note_on_c, 9, 42, 0
2, 87744, Note_on_c, 9, 39, 100
2, 87744, Note_on_c, 9, 42, 116
2, 87744, Note_on_c, 9, 40, 124
2, 87745, Note_on_c, 9, 40, 0
2, 87745, Note_on_c, 9, 42, 0
2, 87745, Note_on_c, 9, 39, 0
2, 87840, Note_on_c, 9, 42, 54
2, 87841, Note_on_c, 9, 42, 0
2, 87888, Note_on_c, 9, 36, 59
2, 87889, Note_on_c, 9, 36, 0
2, 87936, Note_on_c, 9, 42, 116
2, 87936, Note_on_c, 9, 36, 124
2, 87937, Note_on_c, 9, 36, 0
2, 87937, Note_on_c, 9, 42, 0
2, 88032, Note_on_c, 9, 42, 71
2, 88032, Note_on_c, 9, 36, 68
2, 88033, Note_on_c, 9, 36, 0
2, 88033, Note_on_c, 9, 42, 0
2, 88128, Note_on_c, 9, 39, 100
2, 88128, Note_on_c, 9, 42, 100
2, 88128, Note_on_c, 9, 40, 124
2, 88129, Note_on_c, 9, 40, 0
2, 88129, Note_on_c, 9, 42, 0
2, 88129, Note_on_c, 9, 39, 0
2, 88224, Note_on_c, 9, 46, 100
2, 88225, Note_on_c, 9, 46, 0
2, 88272, Note_on_c, 9, 36, 35
2, 88273, Note_on_c, 9, 36, 0
2, 88320, Note_on_c, 9, 42, 100
2, 88320, Note_on_c, 9, 36, 124
2, 88321, Note_on_c, 9, 36, 0
2, 88321, Note_on_c, 9, 42, 0
2, 88416, Note_on_c, 9, 42, 83
2, 88416, Note_on_c, 9, 36, 52
2, 88417, Note_on_c, 9, 36, 0
2, 88417, Note_on_c, 9, 42, 0
2, 88512, Note_on_c, 9, 39, 100
2, 88512, Note_on_c, 9, 42, 100
2, 88512, Note_on_c, 9, 40, 124
2, 88513, Note_on_c, 9, 40, 0
2, 88513, Note_on_c, 9, 42, 0
2, 88513, Note_on_c, 9, 39, 0
2, 88608, Note_on_c, 9, 42, 71
2, 88609, Note_on_c, 9, 42, 0
2, 88656, Note_on_c, 9, 36, 68
2, 88657, Note_on_c, 9, 36, 0
2, 88704, Note_on_c, 9, 42, 116
2, 88704, Note_on_c, 9, 36, 124
2, 88705, Note_on_c, 9, 36, 0
2, 88705, Note_on_c, 9, 42, 0
2, 88800, Note_on_c, 9, 42, 61
2, 88800, Note_on_c, 9, 36, 80
2, 88801, Note_on_c, 9, 36, 0
2, 88801, Note_on_c, 9, 42, 0
2, 88896, Note_on_c, 9, 39, 116
2, 88896, Note_on_c, 9, 42, 116
2, 88896, Note_on_c, 9, 40, 124
2, 88897, Note_on_c, 9, 40, 0
2, 88897, Note_on_c, 9, 42, 0
2, 88897, Note_on_c, 9, 39, 0
2, 88992, Note_on_c, 9, 42, 61
2, 88993, Note_on_c, 9, 42, 0
2, 89040, Note_on_c, 9, 36, 59
2, 89041, Note_on_c, 9, 36, 0
2, 89088, Note_on_c, 9, 42, 116
2, 89088, Note_on_c, 9, 36, 112
2, 89089, Note_on_c, 9, 36, 0
2, 89089, Note_on_c, 9, 42, 0
2, 89184, Note_on_c, 9, 42, 48
2, 89184, Note_on_c, 9, 36, 95
2, 89185, Note_on_c, 9, 36, 0
2, 89185, Note_on_c, 9, 42, 0
2, 89280, Note_on_c, 9, 39, 116
2, 89280, Note_on_c, 9, 42, 100
2, 89280, Note_on_c, 9, 40, 124
2, 89281, Note_on_c, 9, 40, 0
2, 89281, Note_on_c, 9, 42, 0
2, 89281, Note_on_c, 9, 39, 0
2, 89376, Note_on_c, 9, 42, 83
2, 89377, Note_on_c, 9, 42, 0
2, 89424, Note_on_c, 9, 36, 43
2, 89425, Note_on_c, 9, 36, 0
2, 89472, Note_on_c, 9, 42, 116
2, 89472, Note_on_c, 9, 36, 112
2, 89473, Note_on_c, 9, 36, 0
2, 89473, Note_on_c, 9, 42, 0
2, 89664, Note_on_c, 9, 39, 100
2, 89664, Note_on_c, 9, 42, 100
2, 89664, Note_on_c, 9, 40, 124
2, 89665, Note_on_c, 9, 40, 0
2, 89665, Note_on_c, 9, 42, 0
2, 89665, Note_on_c, 9, 39, 0
2, 89760, Note_on_c, 9, 49, 104
2, 89760, Note_on_c, 9, 36, 127
2, 89761, Note_on_c, 9, 36, 0
2, 89761, Note_on_c, 9, 49, 0
2, 91008, Note_on_c, 9, 40, 95
2, 91008, Note_on_c, 9, 36, 112
2, 91009, Note_on_c, 9, 36, 0
2, 91009, Note_on_c, 9, 40, 0
2, 91009, End_track
3, 0, Start_track
3, 0, MIDI_port, 0
3, 3936, Note_on_c, 9, 61, 70
3, 3937, Note_on_c, 9, 61, 0
3, 4032, Note_on_c, 9, 60, 70
3, 4033, Note_on_c, 9, 60, 0
3, 4080, Note_on_c, 9, 61, 70
3, 4081, Note_on_c, 9, 61, 0
3, 4128, Note_on_c, 9, 64, 77
3, 4129, Note_on_c, 9, 64, 0
3, 4176, Note_on_c, 9, 64, 77
3, 4177, Note_on_c, 9, 64, 0
3, 4224, Note_on_c, 9, 63, 77
3, 4225, Note_on_c, 9, 63, 0
3, 4320, Note_on_c, 9, 62, 77
3, 4321, Note_on_c, 9, 62, 0
3, 4368, Note_on_c, 9, 63, 77
3, 4369, Note_on_c, 9, 63, 0
3, 4464, Note_on_c, 9, 62, 77
3, 4465, Note_on_c, 9, 62, 0
3, 4512, Note_on_c, 9, 64, 77
3, 4513, Note_on_c, 9, 64, 0
3, 4560, Note_on_c, 9, 64, 77
3, 4561, Note_on_c, 9, 64, 0
3, 4656, Note_on_c, 9, 61, 70
3, 4657, Note_on_c, 9, 61, 0
3, 4704, Note_on_c, 9, 60, 70
3, 4705, Note_on_c, 9, 60, 0
3, 4800, Note_on_c, 9, 60, 70
3, 4801, Note_on_c, 9, 60, 0
3, 4848, Note_on_c, 9, 61, 70
3, 4849, Note_on_c, 9, 61, 0
3, 4896, Note_on_c, 9, 64, 77
3, 4897, Note_on_c, 9, 64, 0
3, 4944, Note_on_c, 9, 64, 77
3, 4945, Note_on_c, 9, 64, 0
3, 4992, Note_on_c, 9, 63, 77
3, 4993, Note_on_c, 9, 63, 0
3, 5088, Note_on_c, 9, 62, 77
3, 5089, Note_on_c, 9, 62, 0
3, 5136, Note_on_c, 9, 63, 77
3, 5137, Note_on_c, 9, 63, 0
3, 5232, Note_on_c, 9, 62, 77
3, 5233, Note_on_c, 9, 62, 0
3, 5280, Note_on_c, 9, 64, 77
3, 5281, Note_on_c, 9, 64, 0
3, 5328, Note_on_c, 9, 64, 77
3, 5329, Note_on_c, 9, 64, 0
3, 5376, Note_on_c, 9, 60, 70
3, 5377, Note_on_c, 9, 60, 0
3, 5472, Note_on_c, 9, 61, 70
3, 5473, Note_on_c, 9, 61, 0
3, 5568, Note_on_c, 9, 60, 70
3, 5569, Note_on_c, 9, 60, 0
3, 5616, Note_on_c, 9, 61, 70
3, 5617, Note_on_c, 9, 61, 0
3, 5664, Note_on_c, 9, 64, 77
3, 5665, Note_on_c, 9, 64, 0
3, 5712, Note_on_c, 9, 64, 77
3, 5713, Note_on_c, 9, 64, 0
3, 5760, Note_on_c, 9, 63, 77
3, 5761, Note_on_c, 9, 63, 0
3, 5856, Note_on_c, 9, 62, 77
3, 5857, Note_on_c, 9, 62, 0
3, 5904, Note_on_c, 9, 63, 77
3, 5905, Note_on_c, 9, 63, 0
3, 6000, Note_on_c, 9, 62, 77
3, 6001, Note_on_c, 9, 62, 0
3, 6048, Note_on_c, 9, 64, 77
3, 6049, Note_on_c, 9, 64, 0
3, 6096, Note_on_c, 9, 64, 77
3, 6097, Note_on_c, 9, 64, 0
3, 6192, Note_on_c, 9, 61, 70
3, 6193, Note_on_c, 9, 61, 0
3, 6240, Note_on_c, 9, 60, 70
3, 6241, Note_on_c, 9, 60, 0
3, 6336, Note_on_c, 9, 60, 70
3, 6337, Note_on_c, 9, 60, 0
3, 6384, Note_on_c, 9, 61, 70
3, 6385, Note_on_c, 9, 61, 0
3, 6432, Note_on_c, 9, 64, 77
3, 6433, Note_on_c, 9, 64, 0
3, 6480, Note_on_c, 9, 64, 77
3, 6481, Note_on_c, 9, 64, 0
3, 6528, Note_on_c, 9, 63, 77
3, 6529, Note_on_c, 9, 63, 0
3, 6624, Note_on_c, 9, 62, 77
3, 6625, Note_on_c, 9, 62, 0
3, 6672, Note_on_c, 9, 63, 77
3, 6673, Note_on_c, 9, 63, 0
3, 6768, Note_on_c, 9, 62, 77
3, 6769, Note_on_c, 9, 62, 0
3, 6816, Note_on_c, 9, 64, 77
3, 6817, Note_on_c, 9, 64, 0
3, 6864, Note_on_c, 9, 64, 77
3, 6865, Note_on_c, 9, 64, 0
3, 6912, Note_on_c, 9, 60, 70
3, 6913, Note_on_c, 9, 60, 0
3, 7008, Note_on_c, 9, 61, 70
3, 7009, Note_on_c, 9, 61, 0
3, 7104, Note_on_c, 9, 60, 70
3, 7105, Note_on_c, 9, 60, 0
3, 7152, Note_on_c, 9, 61, 70
3, 7153, Note_on_c, 9, 61, 0
3, 7200, Note_on_c, 9, 64, 77
3, 7201, Note_on_c, 9, 64, 0
3, 7248, Note_on_c, 9, 64, 77
3, 7249, Note_on_c, 9, 64, 0
3, 7296, Note_on_c, 9, 63, 77
3, 7297, Note_on_c, 9, 63, 0
3, 7392, Note_on_c, 9, 62, 77
3, 7393, Note_on_c, 9, 62, 0
3, 7440, Note_on_c, 9, 63, 77
3, 7441, Note_on_c, 9, 63, 0
3, 7536, Note_on_c, 9, 62, 77
3, 7537, Note_on_c, 9, 62, 0
3, 7584, Note_on_c, 9, 64, 77
3, 7585, Note_on_c, 9, 64, 0
3, 7632, Note_on_c, 9, 64, 77
3, 7633, Note_on_c, 9, 64, 0
3, 7728, Note_on_c, 9, 61, 70
3, 7729, Note_on_c, 9, 61, 0
3, 7776, Note_on_c, 9, 60, 70
3, 7777, Note_on_c, 9, 60, 0
3, 7872, Note_on_c, 9, 60, 70
3, 7873, Note_on_c, 9, 60, 0
3, 7920, Note_on_c, 9, 61, 70
3, 7921, Note_on_c, 9, 61, 0
3, 7968, Note_on_c, 9, 64, 77
3, 7969, Note_on_c, 9, 64, 0
3, 8016, Note_on_c, 9, 64, 77
3, 8017, Note_on_c, 9, 64, 0
3, 8064, Note_on_c, 9, 63, 77
3, 8065, Note_on_c, 9, 63, 0
3, 8160, Note_on_c, 9, 62, 77
3, 8161, Note_on_c, 9, 62, 0
3, 8208, Note_on_c, 9, 63, 77
3, 8209, Note_on_c, 9, 63, 0
3, 8304, Note_on_c, 9, 62, 77
3, 8305, Note_on_c, 9, 62, 0
3, 8352, Note_on_c, 9, 64, 77
3, 8353, Note_on_c, 9, 64, 0
3, 8400, Note_on_c, 9, 64, 77
3, 8401, Note_on_c, 9, 64, 0
3, 8448, Note_on_c, 9, 60, 70
3, 8449, Note_on_c, 9, 60, 0
3, 8544, Note_on_c, 9, 61, 70
3, 8545, Note_on_c, 9, 61, 0
3, 8640, Note_on_c, 9, 60, 70
3, 8641, Note_on_c, 9, 60, 0
3, 8688, Note_on_c, 9, 61, 70
3, 8689, Note_on_c, 9, 61, 0
3, 8736, Note_on_c, 9, 64, 77
3, 8737, Note_on_c, 9, 64, 0
3, 8784, Note_on_c, 9, 64, 77
3, 8785, Note_on_c, 9, 64, 0
3, 8832, Note_on_c, 9, 63, 77
3, 8833, Note_on_c, 9, 63, 0
3, 8928, Note_on_c, 9, 62, 77
3, 8929, Note_on_c, 9, 62, 0
3, 8976, Note_on_c, 9, 63, 77
3, 8977, Note_on_c, 9, 63, 0
3, 9072, Note_on_c, 9, 62, 77
3, 9073, Note_on_c, 9, 62, 0
3, 9120, Note_on_c, 9, 64, 77
3, 9121, Note_on_c, 9, 64, 0
3, 9168, Note_on_c, 9, 64, 77
3, 9169, Note_on_c, 9, 64, 0
3, 9696, Note_on_c, 9, 62, 77
3, 9697, Note_on_c, 9, 62, 0
3, 9744, Note_on_c, 9, 63, 77
3, 9745, Note_on_c, 9, 63, 0
3, 9840, Note_on_c, 9, 62, 77
3, 9841, Note_on_c, 9, 62, 0
3, 9888, Note_on_c, 9, 64, 77
3, 9889, Note_on_c, 9, 64, 0
3, 9936, Note_on_c, 9, 64, 77
3, 9937, Note_on_c, 9, 64, 0
3, 9984, Note_on_c, 9, 60, 70
3, 9985, Note_on_c, 9, 60, 0
3, 10080, Note_on_c, 9, 61, 70
3, 10081, Note_on_c, 9, 61, 0
3, 10176, Note_on_c, 9, 60, 70
3, 10177, Note_on_c, 9, 60, 0
3, 10224, Note_on_c, 9, 61, 70
3, 10225, Note_on_c, 9, 61, 0
3, 10272, Note_on_c, 9, 64, 77
3, 10273, Note_on_c, 9, 64, 0
3, 10320, Note_on_c, 9, 64, 77
3, 10321, Note_on_c, 9, 64, 0
3, 10368, Note_on_c, 9, 63, 77
3, 10369, Note_on_c, 9, 63, 0
3, 10464, Note_on_c, 9, 62, 77
3, 10465, Note_on_c, 9, 62, 0
3, 10512, Note_on_c, 9, 63, 77
3, 10513, Note_on_c, 9, 63, 0
3, 10608, Note_on_c, 9, 62, 77
3, 10609, Note_on_c, 9, 62, 0
3, 10656, Note_on_c, 9, 64, 77
3, 10657, Note_on_c, 9, 64, 0
3, 10704, Note_on_c, 9, 64, 77
3, 10705, Note_on_c, 9, 64, 0
3, 10800, Note_on_c, 9, 61, 70
3, 10801, Note_on_c, 9, 61, 0
3, 10848, Note_on_c, 9, 60, 70
3, 10849, Note_on_c, 9, 60, 0
3, 10944, Note_on_c, 9, 60, 70
3, 10945, Note_on_c, 9, 60, 0
3, 10992, Note_on_c, 9, 61, 70
3, 10993, Note_on_c, 9, 61, 0
3, 11040, Note_on_c, 9, 64, 77
3, 11041, Note_on_c, 9, 64, 0
3, 11088, Note_on_c, 9, 64, 77
3, 11089, Note_on_c, 9, 64, 0
3, 11136, Note_on_c, 9, 63, 77
3, 11137, Note_on_c, 9, 63, 0
3, 11232, Note_on_c, 9, 62, 77
3, 11233, Note_on_c, 9, 62, 0
3, 11280, Note_on_c, 9, 63, 77
3, 11281, Note_on_c, 9, 63, 0
3, 11376, Note_on_c, 9, 62, 77
3, 11377, Note_on_c, 9, 62, 0
3, 11424, Note_on_c, 9, 64, 77
3, 11425, Note_on_c, 9, 64, 0
3, 11472, Note_on_c, 9, 64, 77
3, 11473, Note_on_c, 9, 64, 0
3, 11520, Note_on_c, 9, 60, 70
3, 11521, Note_on_c, 9, 60, 0
3, 11616, Note_on_c, 9, 61, 70
3, 11617, Note_on_c, 9, 61, 0
3, 11712, Note_on_c, 9, 60, 70
3, 11713, Note_on_c, 9, 60, 0
3, 11760, Note_on_c, 9, 61, 70
3, 11761, Note_on_c, 9, 61, 0
3, 11808, Note_on_c, 9, 64, 77
3, 11809, Note_on_c, 9, 64, 0
3, 11856, Note_on_c, 9, 64, 77
3, 11857, Note_on_c, 9, 64, 0
3, 11904, Note_on_c, 9, 63, 77
3, 11905, Note_on_c, 9, 63, 0
3, 12000, Note_on_c, 9, 62, 77
3, 12001, Note_on_c, 9, 62, 0
3, 12048, Note_on_c, 9, 63, 77
3, 12049, Note_on_c, 9, 63, 0
3, 12144, Note_on_c, 9, 62, 77
3, 12145, Note_on_c, 9, 62, 0
3, 12192, Note_on_c, 9, 64, 77
3, 12193, Note_on_c, 9, 64, 0
3, 12240, Note_on_c, 9, 64, 77
3, 12241, Note_on_c, 9, 64, 0
3, 12336, Note_on_c, 9, 61, 70
3, 12337, Note_on_c, 9, 61, 0
3, 12384, Note_on_c, 9, 60, 70
3, 12385, Note_on_c, 9, 60, 0
3, 12480, Note_on_c, 9, 60, 70
3, 12481, Note_on_c, 9, 60, 0
3, 12528, Note_on_c, 9, 61, 70
3, 12529, Note_on_c, 9, 61, 0
3, 12576, Note_on_c, 9, 64, 77
3, 12577, Note_on_c, 9, 64, 0
3, 12624, Note_on_c, 9, 64, 77
3, 12625, Note_on_c, 9, 64, 0
3, 12672, Note_on_c, 9, 63, 77
3, 12673, Note_on_c, 9, 63, 0
3, 12768, Note_on_c, 9, 62, 77
3, 12769, Note_on_c, 9, 62, 0
3, 12816, Note_on_c, 9, 63, 77
3, 12817, Note_on_c, 9, 63, 0
3, 12912, Note_on_c, 9, 62, 77
3, 12913, Note_on_c, 9, 62, 0
3, 12960, Note_on_c, 9, 64, 77
3, 12961, Note_on_c, 9, 64, 0
3, 13008, Note_on_c, 9, 64, 77
3, 13009, Note_on_c, 9, 64, 0
3, 13056, Note_on_c, 9, 60, 70
3, 13057, Note_on_c, 9, 60, 0
3, 13152, Note_on_c, 9, 61, 70
3, 13153, Note_on_c, 9, 61, 0
3, 13248, Note_on_c, 9, 60, 70
3, 13249, Note_on_c, 9, 60, 0
3, 13296, Note_on_c, 9, 61, 70
3, 13297, Note_on_c, 9, 61, 0
3, 13344, Note_on_c, 9, 64, 77
3, 13345, Note_on_c, 9, 64, 0
3, 13392, Note_on_c, 9, 64, 77
3, 13393, Note_on_c, 9, 64, 0
3, 13440, Note_on_c, 9, 63, 77
3, 13441, Note_on_c, 9, 63, 0
3, 13536, Note_on_c, 9, 62, 77
3, 13537, Note_on_c, 9, 62, 0
3, 13584, Note_on_c, 9, 63, 77
3, 13585, Note_on_c, 9, 63, 0
3, 13680, Note_on_c, 9, 62, 77
3, 13681, Note_on_c, 9, 62, 0
3, 13728, Note_on_c, 9, 64, 77
3, 13729, Note_on_c, 9, 64, 0
3, 13776, Note_on_c, 9, 64, 77
3, 13777, Note_on_c, 9, 64, 0
3, 13872, Note_on_c, 9, 61, 70
3, 13873, Note_on_c, 9, 61, 0
3, 13920, Note_on_c, 9, 60, 70
3, 13921, Note_on_c, 9, 60, 0
3, 14016, Note_on_c, 9, 60, 70
3, 14017, Note_on_c, 9, 60, 0
3, 14064, Note_on_c, 9, 61, 70
3, 14065, Note_on_c, 9, 61, 0
3, 14112, Note_on_c, 9, 64, 77
3, 14113, Note_on_c, 9, 64, 0
3, 14160, Note_on_c, 9, 64, 77
3, 14161, Note_on_c, 9, 64, 0
3, 14208, Note_on_c, 9, 63, 77
3, 14209, Note_on_c, 9, 63, 0
3, 14304, Note_on_c, 9, 62, 77
3, 14305, Note_on_c, 9, 62, 0
3, 14352, Note_on_c, 9, 63, 77
3, 14353, Note_on_c, 9, 63, 0
3, 14448, Note_on_c, 9, 62, 77
3, 14449, Note_on_c, 9, 62, 0
3, 14496, Note_on_c, 9, 64, 77
3, 14497, Note_on_c, 9, 64, 0
3, 14544, Note_on_c, 9, 64, 77
3, 14545, Note_on_c, 9, 64, 0
3, 14592, Note_on_c, 9, 60, 70
3, 14593, Note_on_c, 9, 60, 0
3, 14688, Note_on_c, 9, 61, 70
3, 14689, Note_on_c, 9, 61, 0
3, 14784, Note_on_c, 9, 60, 70
3, 14785, Note_on_c, 9, 60, 0
3, 14832, Note_on_c, 9, 61, 70
3, 14833, Note_on_c, 9, 61, 0
3, 14880, Note_on_c, 9, 64, 77
3, 14881, Note_on_c, 9, 64, 0
3, 14928, Note_on_c, 9, 64, 77
3, 14929, Note_on_c, 9, 64, 0
3, 14976, Note_on_c, 9, 63, 77
3, 14977, Note_on_c, 9, 63, 0
3, 15072, Note_on_c, 9, 62, 77
3, 15073, Note_on_c, 9, 62, 0
3, 15120, Note_on_c, 9, 63, 77
3, 15121, Note_on_c, 9, 63, 0
3, 15216, Note_on_c, 9, 62, 77
3, 15217, Note_on_c, 9, 62, 0
3, 15264, Note_on_c, 9, 64, 77
3, 15265, Note_on_c, 9, 64, 0
3, 15312, Note_on_c, 9, 64, 77
3, 15313, Note_on_c, 9, 64, 0
3, 15408, Note_on_c, 9, 61, 70
3, 15409, Note_on_c, 9, 61, 0
3, 15456, Note_on_c, 9, 60, 70
3, 15457, Note_on_c, 9, 60, 0
3, 15552, Note_on_c, 9, 60, 70
3, 15553, Note_on_c, 9, 60, 0
3, 15600, Note_on_c, 9, 61, 70
3, 15601, Note_on_c, 9, 61, 0
3, 15648, Note_on_c, 9, 64, 77
3, 15649, Note_on_c, 9, 64, 0
3, 15696, Note_on_c, 9, 64, 77
3, 15697, Note_on_c, 9, 64, 0
3, 15744, Note_on_c, 9, 63, 77
3, 15745, Note_on_c, 9, 63, 0
3, 15840, Note_on_c, 9, 62, 77
3, 15841, Note_on_c, 9, 62, 0
3, 15888, Note_on_c, 9, 63, 77
3, 15889, Note_on_c, 9, 63, 0
3, 15984, Note_on_c, 9, 62, 77
3, 15985, Note_on_c, 9, 62, 0
3, 16032, Note_on_c, 9, 64, 77
3, 16033, Note_on_c, 9, 64, 0
3, 16080, Note_on_c, 9, 64, 77
3, 16081, Note_on_c, 9, 64, 0
3, 16128, Note_on_c, 9, 60, 70
3, 16129, Note_on_c, 9, 60, 0
3, 16224, Note_on_c, 9, 61, 70
3, 16225, Note_on_c, 9, 61, 0
3, 16320, Note_on_c, 9, 60, 70
3, 16321, Note_on_c, 9, 60, 0
3, 16368, Note_on_c, 9, 61, 70
3, 16369, Note_on_c, 9, 61, 0
3, 16416, Note_on_c, 9, 64, 77
3, 16417, Note_on_c, 9, 64, 0
3, 16464, Note_on_c, 9, 64, 77
3, 16465, Note_on_c, 9, 64, 0
3, 16512, Note_on_c, 9, 63, 77
3, 16513, Note_on_c, 9, 63, 0
3, 16608, Note_on_c, 9, 62, 77
3, 16609, Note_on_c, 9, 62, 0
3, 16656, Note_on_c, 9, 63, 77
3, 16657, Note_on_c, 9, 63, 0
3, 16752, Note_on_c, 9, 62, 77
3, 16753, Note_on_c, 9, 62, 0
3, 16800, Note_on_c, 9, 64, 77
3, 16801, Note_on_c, 9, 64, 0
3, 16848, Note_on_c, 9, 64, 77
3, 16849, Note_on_c, 9, 64, 0
3, 16944, Note_on_c, 9, 61, 70
3, 16945, Note_on_c, 9, 61, 0
3, 16992, Note_on_c, 9, 60, 70
3, 16993, Note_on_c, 9, 60, 0
3, 17088, Note_on_c, 9, 60, 70
3, 17089, Note_on_c, 9, 60, 0
3, 17136, Note_on_c, 9, 61, 70
3, 17137, Note_on_c, 9, 61, 0
3, 17184, Note_on_c, 9, 64, 77
3, 17185, Note_on_c, 9, 64, 0
3, 17232, Note_on_c, 9, 64, 77
3, 17233, Note_on_c, 9, 64, 0
3, 17280, Note_on_c, 9, 63, 77
3, 17281, Note_on_c, 9, 63, 0
3, 17376, Note_on_c, 9, 62, 77
3, 17377, Note_on_c, 9, 62, 0
3, 17424, Note_on_c, 9, 63, 77
3, 17425, Note_on_c, 9, 63, 0
3, 17520, Note_on_c, 9, 62, 77
3, 17521, Note_on_c, 9, 62, 0
3, 17568, Note_on_c, 9, 64, 77
3, 17569, Note_on_c, 9, 64, 0
3, 17616, Note_on_c, 9, 64, 77
3, 17617, Note_on_c, 9, 64, 0
3, 17664, Note_on_c, 9, 60, 70
3, 17665, Note_on_c, 9, 60, 0
3, 17760, Note_on_c, 9, 61, 70
3, 17761, Note_on_c, 9, 61, 0
3, 17856, Note_on_c, 9, 60, 70
3, 17857, Note_on_c, 9, 60, 0
3, 17904, Note_on_c, 9, 61, 70
3, 17905, Note_on_c, 9, 61, 0
3, 17952, Note_on_c, 9, 64, 77
3, 17953, Note_on_c, 9, 64, 0
3, 18000, Note_on_c, 9, 64, 77
3, 18001, Note_on_c, 9, 64, 0
3, 18048, Note_on_c, 9, 63, 77
3, 18049, Note_on_c, 9, 63, 0
3, 18144, Note_on_c, 9, 62, 77
3, 18145, Note_on_c, 9, 62, 0
3, 18192, Note_on_c, 9, 63, 77
3, 18193, Note_on_c, 9, 63, 0
3, 18288, Note_on_c, 9, 62, 77
3, 18289, Note_on_c, 9, 62, 0
3, 18336, Note_on_c, 9, 64, 77
3, 18337, Note_on_c, 9, 64, 0
3, 18384, Note_on_c, 9, 64, 77
3, 18385, Note_on_c, 9, 64, 0
3, 18480, Note_on_c, 9, 61, 70
3, 18481, Note_on_c, 9, 61, 0
3, 18528, Note_on_c, 9, 60, 70
3, 18529, Note_on_c, 9, 60, 0
3, 18624, Note_on_c, 9, 60, 70
3, 18625, Note_on_c, 9, 60, 0
3, 18672, Note_on_c, 9, 61, 70
3, 18673, Note_on_c, 9, 61, 0
3, 18720, Note_on_c, 9, 64, 77
3, 18721, Note_on_c, 9, 64, 0
3, 18768, Note_on_c, 9, 64, 77
3, 18769, Note_on_c, 9, 64, 0
3, 18816, Note_on_c, 9, 63, 77
3, 18817, Note_on_c, 9, 63, 0
3, 18912, Note_on_c, 9, 62, 77
3, 18913, Note_on_c, 9, 62, 0
3, 18960, Note_on_c, 9, 63, 77
3, 18961, Note_on_c, 9, 63, 0
3, 19056, Note_on_c, 9, 62, 77
3, 19057, Note_on_c, 9, 62, 0
3, 19104, Note_on_c, 9, 64, 77
3, 19105, Note_on_c, 9, 64, 0
3, 19152, Note_on_c, 9, 64, 77
3, 19153, Note_on_c, 9, 64, 0
3, 19200, Note_on_c, 9, 60, 70
3, 19201, Note_on_c, 9, 60, 0
3, 19296, Note_on_c, 9, 61, 70
3, 19297, Note_on_c, 9, 61, 0
3, 19392, Note_on_c, 9, 60, 70
3, 19393, Note_on_c, 9, 60, 0
3, 19440, Note_on_c, 9, 61, 70
3, 19441, Note_on_c, 9, 61, 0
3, 19488, Note_on_c, 9, 64, 77
3, 19489, Note_on_c, 9, 64, 0
3, 19536, Note_on_c, 9, 64, 77
3, 19537, Note_on_c, 9, 64, 0
3, 19584, Note_on_c, 9, 63, 77
3, 19585, Note_on_c, 9, 63, 0
3, 19680, Note_on_c, 9, 62, 77
3, 19681, Note_on_c, 9, 62, 0
3, 19728, Note_on_c, 9, 63, 77
3, 19729, Note_on_c, 9, 63, 0
3, 19824, Note_on_c, 9, 62, 77
3, 19825, Note_on_c, 9, 62, 0
3, 19872, Note_on_c, 9, 64, 77
3, 19873, Note_on_c, 9, 64, 0
3, 19920, Note_on_c, 9, 64, 77
3, 19921, Note_on_c, 9, 64, 0
3, 20016, Note_on_c, 9, 61, 70
3, 20017, Note_on_c, 9, 61, 0
3, 20064, Note_on_c, 9, 60, 70
3, 20065, Note_on_c, 9, 60, 0
3, 20160, Note_on_c, 9, 60, 70
3, 20161, Note_on_c, 9, 60, 0
3, 20208, Note_on_c, 9, 61, 70
3, 20209, Note_on_c, 9, 61, 0
3, 20256, Note_on_c, 9, 64, 77
3, 20257, Note_on_c, 9, 64, 0
3, 20304, Note_on_c, 9, 64, 77
3, 20305, Note_on_c, 9, 64, 0
3, 20352, Note_on_c, 9, 63, 77
3, 20353, Note_on_c, 9, 63, 0
3, 20448, Note_on_c, 9, 62, 77
3, 20449, Note_on_c, 9, 62, 0
3, 20496, Note_on_c, 9, 63, 77
3, 20497, Note_on_c, 9, 63, 0
3, 20592, Note_on_c, 9, 62, 77
3, 20593, Note_on_c, 9, 62, 0
3, 20640, Note_on_c, 9, 64, 77
3, 20641, Note_on_c, 9, 64, 0
3, 20688, Note_on_c, 9, 64, 77
3, 20689, Note_on_c, 9, 64, 0
3, 20736, Note_on_c, 9, 60, 70
3, 20737, Note_on_c, 9, 60, 0
3, 20832, Note_on_c, 9, 61, 70
3, 20833, Note_on_c, 9, 61, 0
3, 20928, Note_on_c, 9, 60, 70
3, 20929, Note_on_c, 9, 60, 0
3, 20976, Note_on_c, 9, 61, 70
3, 20977, Note_on_c, 9, 61, 0
3, 21024, Note_on_c, 9, 64, 77
3, 21025, Note_on_c, 9, 64, 0
3, 21072, Note_on_c, 9, 64, 77
3, 21073, Note_on_c, 9, 64, 0
3, 21120, Note_on_c, 9, 63, 77
3, 21121, Note_on_c, 9, 63, 0
3, 21216, Note_on_c, 9, 62, 77
3, 21217, Note_on_c, 9, 62, 0
3, 21264, Note_on_c, 9, 63, 77
3, 21265, Note_on_c, 9, 63, 0
3, 21360, Note_on_c, 9, 62, 77
3, 21361, Note_on_c, 9, 62, 0
3, 21408, Note_on_c, 9, 64, 77
3, 21409, Note_on_c, 9, 64, 0
3, 21456, Note_on_c, 9, 64, 77
3, 21457, Note_on_c, 9, 64, 0
3, 21552, Note_on_c, 9, 61, 70
3, 21553, Note_on_c, 9, 61, 0
3, 21600, Note_on_c, 9, 60, 70
3, 21601, Note_on_c, 9, 60, 0
3, 21696, Note_on_c, 9, 60, 70
3, 21697, Note_on_c, 9, 60, 0
3, 21744, Note_on_c, 9, 61, 70
3, 21745, Note_on_c, 9, 61, 0
3, 21792, Note_on_c, 9, 64, 77
3, 21793, Note_on_c, 9, 64, 0
3, 21840, Note_on_c, 9, 64, 77
3, 21841, Note_on_c, 9, 64, 0
3, 21888, Note_on_c, 9, 63, 77
3, 21889, Note_on_c, 9, 63, 0
3, 21984, Note_on_c, 9, 62, 77
3, 21985, Note_on_c, 9, 62, 0
3, 22032, Note_on_c, 9, 63, 77
3, 22033, Note_on_c, 9, 63, 0
3, 22128, Note_on_c, 9, 62, 77
3, 22129, Note_on_c, 9, 62, 0
3, 22176, Note_on_c, 9, 64, 77
3, 22177, Note_on_c, 9, 64, 0
3, 22224, Note_on_c, 9, 64, 77
3, 22225, Note_on_c, 9, 64, 0
3, 22272, Note_on_c, 9, 60, 70
3, 22273, Note_on_c, 9, 60, 0
3, 22368, Note_on_c, 9, 61, 70
3, 22369, Note_on_c, 9, 61, 0
3, 22464, Note_on_c, 9, 60, 70
3, 22465, Note_on_c, 9, 60, 0
3, 22512, Note_on_c, 9, 61, 70
3, 22513, Note_on_c, 9, 61, 0
3, 22560, Note_on_c, 9, 64, 77
3, 22561, Note_on_c, 9, 64, 0
3, 22608, Note_on_c, 9, 64, 77
3, 22609, Note_on_c, 9, 64, 0
3, 22656, Note_on_c, 9, 63, 77
3, 22657, Note_on_c, 9, 63, 0
3, 22752, Note_on_c, 9, 62, 77
3, 22753, Note_on_c, 9, 62, 0
3, 22800, Note_on_c, 9, 63, 77
3, 22801, Note_on_c, 9, 63, 0
3, 22896, Note_on_c, 9, 62, 77
3, 22897, Note_on_c, 9, 62, 0
3, 22944, Note_on_c, 9, 64, 77
3, 22945, Note_on_c, 9, 64, 0
3, 22992, Note_on_c, 9, 64, 77
3, 22993, Note_on_c, 9, 64, 0
3, 23088, Note_on_c, 9, 61, 70
3, 23089, Note_on_c, 9, 61, 0
3, 23136, Note_on_c, 9, 60, 70
3, 23137, Note_on_c, 9, 60, 0
3, 23232, Note_on_c, 9, 60, 70
3, 23233, Note_on_c, 9, 60, 0
3, 23280, Note_on_c, 9, 61, 70
3, 23281, Note_on_c, 9, 61, 0
3, 23328, Note_on_c, 9, 64, 77
3, 23329, Note_on_c, 9, 64, 0
3, 23376, Note_on_c, 9, 64, 77
3, 23377, Note_on_c, 9, 64, 0
3, 23424, Note_on_c, 9, 63, 77
3, 23425, Note_on_c, 9, 63, 0
3, 23520, Note_on_c, 9, 62, 77
3, 23521, Note_on_c, 9, 62, 0
3, 23568, Note_on_c, 9, 63, 77
3, 23569, Note_on_c, 9, 63, 0
3, 23664, Note_on_c, 9, 62, 77
3, 23665, Note_on_c, 9, 62, 0
3, 23712, Note_on_c, 9, 64, 77
3, 23713, Note_on_c, 9, 64, 0
3, 23760, Note_on_c, 9, 64, 77
3, 23761, Note_on_c, 9, 64, 0
3, 23808, Note_on_c, 9, 60, 70
3, 23809, Note_on_c, 9, 60, 0
3, 23904, Note_on_c, 9, 61, 70
3, 23905, Note_on_c, 9, 61, 0
3, 24000, Note_on_c, 9, 60, 70
3, 24001, Note_on_c, 9, 60, 0
3, 24048, Note_on_c, 9, 61, 70
3, 24049, Note_on_c, 9, 61, 0
3, 24096, Note_on_c, 9, 64, 77
3, 24097, Note_on_c, 9, 64, 0
3, 24144, Note_on_c, 9, 64, 77
3, 24145, Note_on_c, 9, 64, 0
3, 24192, Note_on_c, 9, 63, 77
3, 24193, Note_on_c, 9, 63, 0
3, 24288, Note_on_c, 9, 62, 77
3, 24289, Note_on_c, 9, 62, 0
3, 24336, Note_on_c, 9, 63, 77
3, 24337, Note_on_c, 9, 63, 0
3, 24432, Note_on_c, 9, 62, 77
3, 24433, Note_on_c, 9, 62, 0
3, 24480, Note_on_c, 9, 64, 77
3, 24481, Note_on_c, 9, 64, 0
3, 24528, Note_on_c, 9, 64, 77
3, 24529, Note_on_c, 9, 64, 0
3, 24624, Note_on_c, 9, 61, 70
3, 24625, Note_on_c, 9, 61, 0
3, 24672, Note_on_c, 9, 60, 70
3, 24673, Note_on_c, 9, 60, 0
3, 24768, Note_on_c, 9, 60, 70
3, 24769, Note_on_c, 9, 60, 0
3, 24816, Note_on_c, 9, 61, 70
3, 24817, Note_on_c, 9, 61, 0
3, 24864, Note_on_c, 9, 64, 77
3, 24865, Note_on_c, 9, 64, 0
3, 24912, Note_on_c, 9, 64, 77
3, 24913, Note_on_c, 9, 64, 0
3, 24960, Note_on_c, 9, 63, 77
3, 24961, Note_on_c, 9, 63, 0
3, 25056, Note_on_c, 9, 62, 77
3, 25057, Note_on_c, 9, 62, 0
3, 25104, Note_on_c, 9, 63, 77
3, 25105, Note_on_c, 9, 63, 0
3, 25200, Note_on_c, 9, 62, 77
3, 25201, Note_on_c, 9, 62, 0
3, 25248, Note_on_c, 9, 64, 77
3, 25249, Note_on_c, 9, 64, 0
3, 25296, Note_on_c, 9, 64, 77
3, 25297, Note_on_c, 9, 64, 0
3, 25344, Note_on_c, 9, 60, 70
3, 25345, Note_on_c, 9, 60, 0
3, 25440, Note_on_c, 9, 61, 70
3, 25441, Note_on_c, 9, 61, 0
3, 25536, Note_on_c, 9, 60, 70
3, 25537, Note_on_c, 9, 60, 0
3, 25584, Note_on_c, 9, 61, 70
3, 25585, Note_on_c, 9, 61, 0
3, 25632, Note_on_c, 9, 64, 77
3, 25633, Note_on_c, 9, 64, 0
3, 25680, Note_on_c, 9, 64, 77
3, 25681, Note_on_c, 9, 64, 0
3, 25728, Note_on_c, 9, 63, 77
3, 25729, Note_on_c, 9, 63, 0
3, 25824, Note_on_c, 9, 62, 77
3, 25825, Note_on_c, 9, 62, 0
3, 25872, Note_on_c, 9, 63, 77
3, 25873, Note_on_c, 9, 63, 0
3, 25968, Note_on_c, 9, 62, 77
3, 25969, Note_on_c, 9, 62, 0
3, 26016, Note_on_c, 9, 64, 77
3, 26017, Note_on_c, 9, 64, 0
3, 26064, Note_on_c, 9, 64, 77
3, 26065, Note_on_c, 9, 64, 0
3, 26160, Note_on_c, 9, 61, 70
3, 26161, Note_on_c, 9, 61, 0
3, 26208, Note_on_c, 9, 60, 70
3, 26209, Note_on_c, 9, 60, 0
3, 26304, Note_on_c, 9, 60, 70
3, 26305, Note_on_c, 9, 60, 0
3, 26352, Note_on_c, 9, 61, 70
3, 26353, Note_on_c, 9, 61, 0
3, 26400, Note_on_c, 9, 64, 77
3, 26401, Note_on_c, 9, 64, 0
3, 26448, Note_on_c, 9, 64, 77
3, 26449, Note_on_c, 9, 64, 0
3, 26496, Note_on_c, 9, 63, 77
3, 26497, Note_on_c, 9, 63, 0
3, 26592, Note_on_c, 9, 62, 77
3, 26593, Note_on_c, 9, 62, 0
3, 26640, Note_on_c, 9, 63, 77
3, 26641, Note_on_c, 9, 63, 0
3, 26736, Note_on_c, 9, 62, 77
3, 26737, Note_on_c, 9, 62, 0
3, 26784, Note_on_c, 9, 64, 77
3, 26785, Note_on_c, 9, 64, 0
3, 26832, Note_on_c, 9, 64, 77
3, 26833, Note_on_c, 9, 64, 0
3, 26880, Note_on_c, 9, 60, 70
3, 26881, Note_on_c, 9, 60, 0
3, 26976, Note_on_c, 9, 61, 70
3, 26977, Note_on_c, 9, 61, 0
3, 27072, Note_on_c, 9, 60, 70
3, 27073, Note_on_c, 9, 60, 0
3, 27120, Note_on_c, 9, 61, 70
3, 27121, Note_on_c, 9, 61, 0
3, 27168, Note_on_c, 9, 64, 77
3, 27169, Note_on_c, 9, 64, 0
3, 27216, Note_on_c, 9, 64, 77
3, 27217, Note_on_c, 9, 64, 0
3, 27264, Note_on_c, 9, 63, 77
3, 27265, Note_on_c, 9, 63, 0
3, 27360, Note_on_c, 9, 62, 77
3, 27361, Note_on_c, 9, 62, 0
3, 27408, Note_on_c, 9, 63, 77
3, 27409, Note_on_c, 9, 63, 0
3, 27504, Note_on_c, 9, 62, 77
3, 27505, Note_on_c, 9, 62, 0
3, 27552, Note_on_c, 9, 64, 77
3, 27553, Note_on_c, 9, 64, 0
3, 27600, Note_on_c, 9, 64, 77
3, 27601, Note_on_c, 9, 64, 0
3, 27696, Note_on_c, 9, 61, 70
3, 27697, Note_on_c, 9, 61, 0
3, 27744, Note_on_c, 9, 60, 70
3, 27745, Note_on_c, 9, 60, 0
3, 27840, Note_on_c, 9, 60, 70
3, 27841, Note_on_c, 9, 60, 0
3, 27888, Note_on_c, 9, 61, 70
3, 27889, Note_on_c, 9, 61, 0
3, 27936, Note_on_c, 9, 64, 77
3, 27937, Note_on_c, 9, 64, 0
3, 27984, Note_on_c, 9, 64, 77
3, 27985, Note_on_c, 9, 64, 0
3, 28032, Note_on_c, 9, 63, 77
3, 28033, Note_on_c, 9, 63, 0
3, 28128, Note_on_c, 9, 62, 77
3, 28129, Note_on_c, 9, 62, 0
3, 28176, Note_on_c, 9, 63, 77
3, 28177, Note_on_c, 9, 63, 0
3, 28272, Note_on_c, 9, 62, 77
3, 28273, Note_on_c, 9, 62, 0
3, 28320, Note_on_c, 9, 64, 77
3, 28321, Note_on_c, 9, 64, 0
3, 28368, Note_on_c, 9, 64, 77
3, 28369, Note_on_c, 9, 64, 0
3, 28416, Note_on_c, 9, 60, 70
3, 28417, Note_on_c, 9, 60, 0
3, 28512, Note_on_c, 9, 61, 70
3, 28513, Note_on_c, 9, 61, 0
3, 28608, Note_on_c, 9, 60, 70
3, 28609, Note_on_c, 9, 60, 0
3, 28656, Note_on_c, 9, 61, 70
3, 28657, Note_on_c, 9, 61, 0
3, 28704, Note_on_c, 9, 64, 77
3, 28705, Note_on_c, 9, 64, 0
3, 28752, Note_on_c, 9, 64, 77
3, 28753, Note_on_c, 9, 64, 0
3, 28800, Note_on_c, 9, 63, 77
3, 28801, Note_on_c, 9, 63, 0
3, 28896, Note_on_c, 9, 62, 77
3, 28897, Note_on_c, 9, 62, 0
3, 28944, Note_on_c, 9, 63, 77
3, 28945, Note_on_c, 9, 63, 0
3, 29040, Note_on_c, 9, 62, 77
3, 29041, Note_on_c, 9, 62, 0
3, 29088, Note_on_c, 9, 64, 77
3, 29089, Note_on_c, 9, 64, 0
3, 29136, Note_on_c, 9, 64, 77
3, 29137, Note_on_c, 9, 64, 0
3, 29232, Note_on_c, 9, 61, 70
3, 29233, Note_on_c, 9, 61, 0
3, 29280, Note_on_c, 9, 60, 70
3, 29281, Note_on_c, 9, 60, 0
3, 29376, Note_on_c, 9, 60, 70
3, 29377, Note_on_c, 9, 60, 0
3, 29424, Note_on_c, 9, 61, 70
3, 29425, Note_on_c, 9, 61, 0
3, 29472, Note_on_c, 9, 64, 77
3, 29473, Note_on_c, 9, 64, 0
3, 29520, Note_on_c, 9, 64, 77
3, 29521, Note_on_c, 9, 64, 0
3, 29568, Note_on_c, 9, 63, 77
3, 29569, Note_on_c, 9, 63, 0
3, 29664, Note_on_c, 9, 62, 77
3, 29665, Note_on_c, 9, 62, 0
3, 29712, Note_on_c, 9, 63, 77
3, 29713, Note_on_c, 9, 63, 0
3, 29808, Note_on_c, 9, 62, 77
3, 29809, Note_on_c, 9, 62, 0
3, 29856, Note_on_c, 9, 64, 77
3, 29857, Note_on_c, 9, 64, 0
3, 29904, Note_on_c, 9, 64, 77
3, 29905, Note_on_c, 9, 64, 0
3, 29952, Note_on_c, 9, 60, 70
3, 29953, Note_on_c, 9, 60, 0
3, 30048, Note_on_c, 9, 61, 70
3, 30049, Note_on_c, 9, 61, 0
3, 30144, Note_on_c, 9, 60, 70
3, 30145, Note_on_c, 9, 60, 0
3, 30192, Note_on_c, 9, 61, 70
3, 30193, Note_on_c, 9, 61, 0
3, 30240, Note_on_c, 9, 64, 77
3, 30241, Note_on_c, 9, 64, 0
3, 30288, Note_on_c, 9, 64, 77
3, 30289, Note_on_c, 9, 64, 0
3, 30336, Note_on_c, 9, 63, 77
3, 30337, Note_on_c, 9, 63, 0
3, 30432, Note_on_c, 9, 62, 77
3, 30433, Note_on_c, 9, 62, 0
3, 30480, Note_on_c, 9, 63, 77
3, 30481, Note_on_c, 9, 63, 0
3, 30576, Note_on_c, 9, 62, 77
3, 30577, Note_on_c, 9, 62, 0
3, 30624, Note_on_c, 9, 64, 77
3, 30625, Note_on_c, 9, 64, 0
3, 30672, Note_on_c, 9, 64, 77
3, 30673, Note_on_c, 9, 64, 0
3, 30768, Note_on_c, 9, 61, 70
3, 30769, Note_on_c, 9, 61, 0
3, 30816, Note_on_c, 9, 60, 70
3, 30817, Note_on_c, 9, 60, 0
3, 30912, Note_on_c, 9, 60, 70
3, 30913, Note_on_c, 9, 60, 0
3, 30960, Note_on_c, 9, 61, 70
3, 30961, Note_on_c, 9, 61, 0
3, 31008, Note_on_c, 9, 64, 77
3, 31009, Note_on_c, 9, 64, 0
3, 31056, Note_on_c, 9, 64, 77
3, 31057, Note_on_c, 9, 64, 0
3, 31104, Note_on_c, 9, 63, 77
3, 31105, Note_on_c, 9, 63, 0
3, 31200, Note_on_c, 9, 62, 77
3, 31201, Note_on_c, 9, 62, 0
3, 31248, Note_on_c, 9, 63, 77
3, 31249, Note_on_c, 9, 63, 0
3, 31344, Note_on_c, 9, 62, 77
3, 31345, Note_on_c, 9, 62, 0
3, 31392, Note_on_c, 9, 64, 77
3, 31393, Note_on_c, 9, 64, 0
3, 31440, Note_on_c, 9, 64, 77
3, 31441, Note_on_c, 9, 64, 0
3, 31488, Note_on_c, 9, 60, 70
3, 31489, Note_on_c, 9, 60, 0
3, 31584, Note_on_c, 9, 61, 70
3, 31585, Note_on_c, 9, 61, 0
3, 31680, Note_on_c, 9, 60, 70
3, 31681, Note_on_c, 9, 60, 0
3, 31728, Note_on_c, 9, 61, 70
3, 31729, Note_on_c, 9, 61, 0
3, 31776, Note_on_c, 9, 64, 77
3, 31777, Note_on_c, 9, 64, 0
3, 31824, Note_on_c, 9, 64, 77
3, 31825, Note_on_c, 9, 64, 0
3, 31872, Note_on_c, 9, 63, 77
3, 31873, Note_on_c, 9, 63, 0
3, 31968, Note_on_c, 9, 62, 77
3, 31969, Note_on_c, 9, 62, 0
3, 32016, Note_on_c, 9, 63, 77
3, 32017, Note_on_c, 9, 63, 0
3, 32112, Note_on_c, 9, 62, 77
3, 32113, Note_on_c, 9, 62, 0
3, 32160, Note_on_c, 9, 64, 77
3, 32161, Note_on_c, 9, 64, 0
3, 32208, Note_on_c, 9, 64, 77
3, 32209, Note_on_c, 9, 64, 0
3, 32304, Note_on_c, 9, 61, 70
3, 32305, Note_on_c, 9, 61, 0
3, 32352, Note_on_c, 9, 60, 70
3, 32353, Note_on_c, 9, 60, 0
3, 32448, Note_on_c, 9, 60, 70
3, 32449, Note_on_c, 9, 60, 0
3, 32496, Note_on_c, 9, 61, 70
3, 32497, Note_on_c, 9, 61, 0
3, 32544, Note_on_c, 9, 64, 77
3, 32545, Note_on_c, 9, 64, 0
3, 32592, Note_on_c, 9, 64, 77
3, 32593, Note_on_c, 9, 64, 0
3, 32640, Note_on_c, 9, 63, 77
3, 32641, Note_on_c, 9, 63, 0
3, 32736, Note_on_c, 9, 62, 77
3, 32737, Note_on_c, 9, 62, 0
3, 32784, Note_on_c, 9, 63, 77
3, 32785, Note_on_c, 9, 63, 0
3, 32880, Note_on_c, 9, 62, 77
3, 32881, Note_on_c, 9, 62, 0
3, 32928, Note_on_c, 9, 64, 77
3, 32929, Note_on_c, 9, 64, 0
3, 32976, Note_on_c, 9, 64, 77
3, 32977, Note_on_c, 9, 64, 0
3, 33024, Note_on_c, 9, 60, 70
3, 33025, Note_on_c, 9, 60, 0
3, 33120, Note_on_c, 9, 61, 70
3, 33121, Note_on_c, 9, 61, 0
3, 33216, Note_on_c, 9, 60, 70
3, 33217, Note_on_c, 9, 60, 0
3, 33264, Note_on_c, 9, 61, 70
3, 33265, Note_on_c, 9, 61, 0
3, 33312, Note_on_c, 9, 64, 77
3, 33313, Note_on_c, 9, 64, 0
3, 33360, Note_on_c, 9, 64, 77
3, 33361, Note_on_c, 9, 64, 0
3, 33408, Note_on_c, 9, 63, 77
3, 33409, Note_on_c, 9, 63, 0
3, 33504, Note_on_c, 9, 62, 77
3, 33505, Note_on_c, 9, 62, 0
3, 33552, Note_on_c, 9, 63, 77
3, 33553, Note_on_c, 9, 63, 0
3, 33648, Note_on_c, 9, 62, 77
3, 33649, Note_on_c, 9, 62, 0
3, 33696, Note_on_c, 9, 64, 77
3, 33697, Note_on_c, 9, 64, 0
3, 33744, Note_on_c, 9, 64, 77
3, 33745, Note_on_c, 9, 64, 0
3, 33840, Note_on_c, 9, 61, 70
3, 33841, Note_on_c, 9, 61, 0
3, 33888, Note_on_c, 9, 60, 70
3, 33889, Note_on_c, 9, 60, 0
3, 33984, Note_on_c, 9, 60, 70
3, 33985, Note_on_c, 9, 60, 0
3, 34032, Note_on_c, 9, 61, 70
3, 34033, Note_on_c, 9, 61, 0
3, 34080, Note_on_c, 9, 64, 77
3, 34081, Note_on_c, 9, 64, 0
3, 34128, Note_on_c, 9, 64, 77
3, 34129, Note_on_c, 9, 64, 0
3, 34176, Note_on_c, 9, 63, 77
3, 34177, Note_on_c, 9, 63, 0
3, 34272, Note_on_c, 9, 62, 77
3, 34273, Note_on_c, 9, 62, 0
3, 34320, Note_on_c, 9, 63, 77
3, 34321, Note_on_c, 9, 63, 0
3, 34416, Note_on_c, 9, 62, 77
3, 34417, Note_on_c, 9, 62, 0
3, 34464, Note_on_c, 9, 64, 77
3, 34465, Note_on_c, 9, 64, 0
3, 34512, Note_on_c, 9, 64, 77
3, 34513, Note_on_c, 9, 64, 0
3, 34560, Note_on_c, 9, 60, 70
3, 34561, Note_on_c, 9, 60, 0
3, 34656, Note_on_c, 9, 61, 70
3, 34657, Note_on_c, 9, 61, 0
3, 34752, Note_on_c, 9, 60, 70
3, 34753, Note_on_c, 9, 60, 0
3, 34800, Note_on_c, 9, 61, 70
3, 34801, Note_on_c, 9, 61, 0
3, 34848, Note_on_c, 9, 64, 77
3, 34849, Note_on_c, 9, 64, 0
3, 34896, Note_on_c, 9, 64, 77
3, 34897, Note_on_c, 9, 64, 0
3, 34944, Note_on_c, 9, 63, 77
3, 34945, Note_on_c, 9, 63, 0
3, 35040, Note_on_c, 9, 62, 77
3, 35041, Note_on_c, 9, 62, 0
3, 35088, Note_on_c, 9, 63, 77
3, 35089, Note_on_c, 9, 63, 0
3, 35184, Note_on_c, 9, 62, 77
3, 35185, Note_on_c, 9, 62, 0
3, 35232, Note_on_c, 9, 64, 77
3, 35233, Note_on_c, 9, 64, 0
3, 35280, Note_on_c, 9, 64, 77
3, 35281, Note_on_c, 9, 64, 0
3, 35376, Note_on_c, 9, 61, 70
3, 35377, Note_on_c, 9, 61, 0
3, 35424, Note_on_c, 9, 60, 70
3, 35425, Note_on_c, 9, 60, 0
3, 35520, Note_on_c, 9, 60, 70
3, 35521, Note_on_c, 9, 60, 0
3, 35568, Note_on_c, 9, 61, 70
3, 35569, Note_on_c, 9, 61, 0
3, 35616, Note_on_c, 9, 64, 77
3, 35617, Note_on_c, 9, 64, 0
3, 35664, Note_on_c, 9, 64, 77
3, 35665, Note_on_c, 9, 64, 0
3, 35712, Note_on_c, 9, 63, 77
3, 35713, Note_on_c, 9, 63, 0
3, 35808, Note_on_c, 9, 62, 77
3, 35809, Note_on_c, 9, 62, 0
3, 35856, Note_on_c, 9, 63, 77
3, 35857, Note_on_c, 9, 63, 0
3, 35952, Note_on_c, 9, 62, 77
3, 35953, Note_on_c, 9, 62, 0
3, 36000, Note_on_c, 9, 64, 77
3, 36001, Note_on_c, 9, 64, 0
3, 36048, Note_on_c, 9, 64, 77
3, 36049, Note_on_c, 9, 64, 0
3, 36096, Note_on_c, 9, 60, 70
3, 36097, Note_on_c, 9, 60, 0
3, 36192, Note_on_c, 9, 61, 70
3, 36193, Note_on_c, 9, 61, 0
3, 36288, Note_on_c, 9, 60, 70
3, 36289, Note_on_c, 9, 60, 0
3, 36336, Note_on_c, 9, 61, 70
3, 36337, Note_on_c, 9, 61, 0
3, 36384, Note_on_c, 9, 64, 77
3, 36385, Note_on_c, 9, 64, 0
3, 36432, Note_on_c, 9, 64, 77
3, 36433, Note_on_c, 9, 64, 0
3, 36480, Note_on_c, 9, 63, 77
3, 36481, Note_on_c, 9, 63, 0
3, 36576, Note_on_c, 9, 62, 77
3, 36577, Note_on_c, 9, 62, 0
3, 36624, Note_on_c, 9, 63, 77
3, 36625, Note_on_c, 9, 63, 0
3, 36720, Note_on_c, 9, 62, 77
3, 36721, Note_on_c, 9, 62, 0
3, 36768, Note_on_c, 9, 64, 77
3, 36769, Note_on_c, 9, 64, 0
3, 36816, Note_on_c, 9, 64, 77
3, 36817, Note_on_c, 9, 64, 0
3, 36912, Note_on_c, 9, 61, 70
3, 36913, Note_on_c, 9, 61, 0
3, 36960, Note_on_c, 9, 60, 70
3, 36961, Note_on_c, 9, 60, 0
3, 37056, Note_on_c, 9, 60, 70
3, 37057, Note_on_c, 9, 60, 0
3, 37104, Note_on_c, 9, 61, 70
3, 37105, Note_on_c, 9, 61, 0
3, 37152, Note_on_c, 9, 64, 77
3, 37153, Note_on_c, 9, 64, 0
3, 37200, Note_on_c, 9, 64, 77
3, 37201, Note_on_c, 9, 64, 0
3, 37248, Note_on_c, 9, 63, 77
3, 37249, Note_on_c, 9, 63, 0
3, 37344, Note_on_c, 9, 62, 77
3, 37345, Note_on_c, 9, 62, 0
3, 37392, Note_on_c, 9, 63, 77
3, 37393, Note_on_c, 9, 63, 0
3, 37488, Note_on_c, 9, 62, 77
3, 37489, Note_on_c, 9, 62, 0
3, 37536, Note_on_c, 9, 64, 77
3, 37537, Note_on_c, 9, 64, 0
3, 37584, Note_on_c, 9, 64, 77
3, 37585, Note_on_c, 9, 64, 0
3, 37632, Note_on_c, 9, 60, 70
3, 37633, Note_on_c, 9, 60, 0
3, 37728, Note_on_c, 9, 61, 70
3, 37729, Note_on_c, 9, 61, 0
3, 37824, Note_on_c, 9, 60, 70
3, 37825, Note_on_c, 9, 60, 0
3, 37872, Note_on_c, 9, 61, 70
3, 37873, Note_on_c, 9, 61, 0
3, 37920, Note_on_c, 9, 64, 77
3, 37921, Note_on_c, 9, 64, 0
3, 37968, Note_on_c, 9, 64, 77
3, 37969, Note_on_c, 9, 64, 0
3, 38016, Note_on_c, 9, 63, 77
3, 38017, Note_on_c, 9, 63, 0
3, 38112, Note_on_c, 9, 62, 77
3, 38113, Note_on_c, 9, 62, 0
3, 38160, Note_on_c, 9, 63, 77
3, 38161, Note_on_c, 9, 63, 0
3, 38256, Note_on_c, 9, 62, 77
3, 38257, Note_on_c, 9, 62, 0
3, 38304, Note_on_c, 9, 64, 77
3, 38305, Note_on_c, 9, 64, 0
3, 38352, Note_on_c, 9, 64, 77
3, 38353, Note_on_c, 9, 64, 0
3, 38448, Note_on_c, 9, 61, 70
3, 38449, Note_on_c, 9, 61, 0
3, 38496, Note_on_c, 9, 60, 70
3, 38497, Note_on_c, 9, 60, 0
3, 38592, Note_on_c, 9, 60, 70
3, 38593, Note_on_c, 9, 60, 0
3, 38640, Note_on_c, 9, 61, 70
3, 38641, Note_on_c, 9, 61, 0
3, 38688, Note_on_c, 9, 64, 77
3, 38689, Note_on_c, 9, 64, 0
3, 38736, Note_on_c, 9, 64, 77
3, 38737, Note_on_c, 9, 64, 0
3, 38784, Note_on_c, 9, 63, 77
3, 38785, Note_on_c, 9, 63, 0
3, 38880, Note_on_c, 9, 62, 77
3, 38881, Note_on_c, 9, 62, 0
3, 38928, Note_on_c, 9, 63, 77
3, 38929, Note_on_c, 9, 63, 0
3, 39024, Note_on_c, 9, 62, 77
3, 39025, Note_on_c, 9, 62, 0
3, 39072, Note_on_c, 9, 64, 77
3, 39073, Note_on_c, 9, 64, 0
3, 39120, Note_on_c, 9, 64, 77
3, 39121, Note_on_c, 9, 64, 0
3, 39168, Note_on_c, 9, 60, 70
3, 39169, Note_on_c, 9, 60, 0
3, 39264, Note_on_c, 9, 61, 70
3, 39265, Note_on_c, 9, 61, 0
3, 39360, Note_on_c, 9, 60, 70
3, 39361, Note_on_c, 9, 60, 0
3, 39408, Note_on_c, 9, 61, 70
3, 39409, Note_on_c, 9, 61, 0
3, 39456, Note_on_c, 9, 64, 77
3, 39457, Note_on_c, 9, 64, 0
3, 39504, Note_on_c, 9, 64, 77
3, 39505, Note_on_c, 9, 64, 0
3, 39552, Note_on_c, 9, 63, 77
3, 39553, Note_on_c, 9, 63, 0
3, 39648, Note_on_c, 9, 62, 77
3, 39649, Note_on_c, 9, 62, 0
3, 39696, Note_on_c, 9, 63, 77
3, 39697, Note_on_c, 9, 63, 0
3, 39792, Note_on_c, 9, 62, 77
3, 39793, Note_on_c, 9, 62, 0
3, 39840, Note_on_c, 9, 64, 77
3, 39841, Note_on_c, 9, 64, 0
3, 39888, Note_on_c, 9, 64, 77
3, 39889, Note_on_c, 9, 64, 0
3, 39984, Note_on_c, 9, 61, 70
3, 39985, Note_on_c, 9, 61, 0
3, 40032, Note_on_c, 9, 60, 70
3, 40033, Note_on_c, 9, 60, 0
3, 40128, Note_on_c, 9, 60, 70
3, 40129, Note_on_c, 9, 60, 0
3, 40176, Note_on_c, 9, 61, 70
3, 40177, Note_on_c, 9, 61, 0
3, 40224, Note_on_c, 9, 64, 77
3, 40225, Note_on_c, 9, 64, 0
3, 40272, Note_on_c, 9, 64, 77
3, 40273, Note_on_c, 9, 64, 0
3, 40320, Note_on_c, 9, 63, 77
3, 40321, Note_on_c, 9, 63, 0
3, 40416, Note_on_c, 9, 62, 77
3, 40417, Note_on_c, 9, 62, 0
3, 40464, Note_on_c, 9, 63, 77
3, 40465, Note_on_c, 9, 63, 0
3, 40560, Note_on_c, 9, 62, 77
3, 40561, Note_on_c, 9, 62, 0
3, 40608, Note_on_c, 9, 64, 77
3, 40609, Note_on_c, 9, 64, 0
3, 40656, Note_on_c, 9, 64, 77
3, 40657, Note_on_c, 9, 64, 0
3, 40704, Note_on_c, 9, 60, 70
3, 40705, Note_on_c, 9, 60, 0
3, 40800, Note_on_c, 9, 61, 70
3, 40801, Note_on_c, 9, 61, 0
3, 40896, Note_on_c, 9, 60, 70
3, 40897, Note_on_c, 9, 60, 0
3, 40944, Note_on_c, 9, 61, 70
3, 40945, Note_on_c, 9, 61, 0
3, 40992, Note_on_c, 9, 64, 77
3, 40993, Note_on_c, 9, 64, 0
3, 41040, Note_on_c, 9, 64, 77
3, 41041, Note_on_c, 9, 64, 0
3, 41088, Note_on_c, 9, 63, 77
3, 41089, Note_on_c, 9, 63, 0
3, 41184, Note_on_c, 9, 62, 77
3, 41185, Note_on_c, 9, 62, 0
3, 41232, Note_on_c, 9, 63, 77
3, 41233, Note_on_c, 9, 63, 0
3, 41328, Note_on_c, 9, 62, 77
3, 41329, Note_on_c, 9, 62, 0
3, 41376, Note_on_c, 9, 64, 77
3, 41377, Note_on_c, 9, 64, 0
3, 41424, Note_on_c, 9, 64, 77
3, 41425, Note_on_c, 9, 64, 0
3, 41520, Note_on_c, 9, 61, 70
3, 41521, Note_on_c, 9, 61, 0
3, 41568, Note_on_c, 9, 60, 70
3, 41569, Note_on_c, 9, 60, 0
3, 41664, Note_on_c, 9, 60, 70
3, 41665, Note_on_c, 9, 60, 0
3, 41712, Note_on_c, 9, 61, 70
3, 41713, Note_on_c, 9, 61, 0
3, 41760, Note_on_c, 9, 64, 77
3, 41761, Note_on_c, 9, 64, 0
3, 41808, Note_on_c, 9, 64, 77
3, 41809, Note_on_c, 9, 64, 0
3, 41856, Note_on_c, 9, 63, 77
3, 41857, Note_on_c, 9, 63, 0
3, 41952, Note_on_c, 9, 62, 77
3, 41953, Note_on_c, 9, 62, 0
3, 42000, Note_on_c, 9, 63, 77
3, 42001, Note_on_c, 9, 63, 0
3, 42096, Note_on_c, 9, 62, 77
3, 42097, Note_on_c, 9, 62, 0
3, 42144, Note_on_c, 9, 64, 77
3, 42145, Note_on_c, 9, 64, 0
3, 42192, Note_on_c, 9, 64, 77
3, 42193, Note_on_c, 9, 64, 0
3, 42240, Note_on_c, 9, 60, 70
3, 42241, Note_on_c, 9, 60, 0
3, 42336, Note_on_c, 9, 61, 70
3, 42337, Note_on_c, 9, 61, 0
3, 42432, Note_on_c, 9, 60, 70
3, 42433, Note_on_c, 9, 60, 0
3, 42480, Note_on_c, 9, 61, 70
3, 42481, Note_on_c, 9, 61, 0
3, 42528, Note_on_c, 9, 64, 77
3, 42529, Note_on_c, 9, 64, 0
3, 42576, Note_on_c, 9, 64, 77
3, 42577, Note_on_c, 9, 64, 0
3, 42624, Note_on_c, 9, 63, 77
3, 42625, Note_on_c, 9, 63, 0
3, 42720, Note_on_c, 9, 62, 77
3, 42721, Note_on_c, 9, 62, 0
3, 42768, Note_on_c, 9, 63, 77
3, 42769, Note_on_c, 9, 63, 0
3, 42864, Note_on_c, 9, 62, 77
3, 42865, Note_on_c, 9, 62, 0
3, 42912, Note_on_c, 9, 64, 77
3, 42913, Note_on_c, 9, 64, 0
3, 42960, Note_on_c, 9, 64, 77
3, 42961, Note_on_c, 9, 64, 0
3, 43056, Note_on_c, 9, 61, 70
3, 43057, Note_on_c, 9, 61, 0
3, 43104, Note_on_c, 9, 60, 70
3, 43105, Note_on_c, 9, 60, 0
3, 43200, Note_on_c, 9, 60, 70
3, 43201, Note_on_c, 9, 60, 0
3, 43248, Note_on_c, 9, 61, 70
3, 43249, Note_on_c, 9, 61, 0
3, 43296, Note_on_c, 9, 64, 77
3, 43297, Note_on_c, 9, 64, 0
3, 43344, Note_on_c, 9, 64, 77
3, 43345, Note_on_c, 9, 64, 0
3, 43392, Note_on_c, 9, 63, 77
3, 43393, Note_on_c, 9, 63, 0
3, 43488, Note_on_c, 9, 62, 77
3, 43489, Note_on_c, 9, 62, 0
3, 43536, Note_on_c, 9, 63, 77
3, 43537, Note_on_c, 9, 63, 0
3, 43632, Note_on_c, 9, 62, 77
3, 43633, Note_on_c, 9, 62, 0
3, 43680, Note_on_c, 9, 64, 77
3, 43681, Note_on_c, 9, 64, 0
3, 43728, Note_on_c, 9, 64, 77
3, 43729, Note_on_c, 9, 64, 0
3, 43776, Note_on_c, 9, 60, 70
3, 43777, Note_on_c, 9, 60, 0
3, 43872, Note_on_c, 9, 61, 70
3, 43873, Note_on_c, 9, 61, 0
3, 43968, Note_on_c, 9, 60, 70
3, 43969, Note_on_c, 9, 60, 0
3, 44016, Note_on_c, 9, 61, 70
3, 44017, Note_on_c, 9, 61, 0
3, 44064, Note_on_c, 9, 64, 77
3, 44065, Note_on_c, 9, 64, 0
3, 44112, Note_on_c, 9, 64, 77
3, 44113, Note_on_c, 9, 64, 0
3, 44160, Note_on_c, 9, 63, 77
3, 44161, Note_on_c, 9, 63, 0
3, 44256, Note_on_c, 9, 62, 77
3, 44257, Note_on_c, 9, 62, 0
3, 44304, Note_on_c, 9, 63, 77
3, 44305, Note_on_c, 9, 63, 0
3, 44400, Note_on_c, 9, 62, 77
3, 44401, Note_on_c, 9, 62, 0
3, 44448, Note_on_c, 9, 64, 77
3, 44449, Note_on_c, 9, 64, 0
3, 44496, Note_on_c, 9, 64, 77
3, 44497, Note_on_c, 9, 64, 0
3, 44592, Note_on_c, 9, 61, 70
3, 44593, Note_on_c, 9, 61, 0
3, 44640, Note_on_c, 9, 60, 70
3, 44641, Note_on_c, 9, 60, 0
3, 44736, Note_on_c, 9, 60, 70
3, 44737, Note_on_c, 9, 60, 0
3, 44784, Note_on_c, 9, 61, 70
3, 44785, Note_on_c, 9, 61, 0
3, 44832, Note_on_c, 9, 64, 77
3, 44833, Note_on_c, 9, 64, 0
3, 44880, Note_on_c, 9, 64, 77
3, 44881, Note_on_c, 9, 64, 0
3, 44928, Note_on_c, 9, 63, 77
3, 44929, Note_on_c, 9, 63, 0
3, 45024, Note_on_c, 9, 62, 77
3, 45025, Note_on_c, 9, 62, 0
3, 45072, Note_on_c, 9, 63, 77
3, 45073, Note_on_c, 9, 63, 0
3, 45168, Note_on_c, 9, 62, 77
3, 45169, Note_on_c, 9, 62, 0
3, 45216, Note_on_c, 9, 64, 77
3, 45217, Note_on_c, 9, 64, 0
3, 45264, Note_on_c, 9, 64, 77
3, 45265, Note_on_c, 9, 64, 0
3, 45312, Note_on_c, 9, 60, 70
3, 45313, Note_on_c, 9, 60, 0
3, 45408, Note_on_c, 9, 61, 70
3, 45409, Note_on_c, 9, 61, 0
3, 45504, Note_on_c, 9, 60, 70
3, 45505, Note_on_c, 9, 60, 0
3, 45552, Note_on_c, 9, 61, 70
3, 45553, Note_on_c, 9, 61, 0
3, 45600, Note_on_c, 9, 64, 77
3, 45601, Note_on_c, 9, 64, 0
3, 45648, Note_on_c, 9, 64, 77
3, 45649, Note_on_c, 9, 64, 0
3, 45696, Note_on_c, 9, 63, 77
3, 45697, Note_on_c, 9, 63, 0
3, 45792, Note_on_c, 9, 62, 77
3, 45793, Note_on_c, 9, 62, 0
3, 45840, Note_on_c, 9, 63, 77
3, 45841, Note_on_c, 9, 63, 0
3, 45936, Note_on_c, 9, 62, 77
3, 45937, Note_on_c, 9, 62, 0
3, 45984, Note_on_c, 9, 64, 77
3, 45985, Note_on_c, 9, 64, 0
3, 46032, Note_on_c, 9, 64, 77
3, 46033, Note_on_c, 9, 64, 0
3, 46128, Note_on_c, 9, 61, 70
3, 46129, Note_on_c, 9, 61, 0
3, 46176, Note_on_c, 9, 60, 70
3, 46177, Note_on_c, 9, 60, 0
3, 46272, Note_on_c, 9, 60, 70
3, 46273, Note_on_c, 9, 60, 0
3, 46320, Note_on_c, 9, 61, 70
3, 46321, Note_on_c, 9, 61, 0
3, 46368, Note_on_c, 9, 64, 77
3, 46369, Note_on_c, 9, 64, 0
3, 46416, Note_on_c, 9, 64, 77
3, 46417, Note_on_c, 9, 64, 0
3, 46464, Note_on_c, 9, 63, 77
3, 46465, Note_on_c, 9, 63, 0
3, 46560, Note_on_c, 9, 62, 77
3, 46561, Note_on_c, 9, 62, 0
3, 46608, Note_on_c, 9, 63, 77
3, 46609, Note_on_c, 9, 63, 0
3, 46704, Note_on_c, 9, 62, 77
3, 46705, Note_on_c, 9, 62, 0
3, 46752, Note_on_c, 9, 64, 77
3, 46753, Note_on_c, 9, 64, 0
3, 46800, Note_on_c, 9, 64, 77
3, 46801, Note_on_c, 9, 64, 0
3, 46848, Note_on_c, 9, 60, 70
3, 46849, Note_on_c, 9, 60, 0
3, 46944, Note_on_c, 9, 61, 70
3, 46945, Note_on_c, 9, 61, 0
3, 47040, Note_on_c, 9, 60, 70
3, 47041, Note_on_c, 9, 60, 0
3, 47088, Note_on_c, 9, 61, 70
3, 47089, Note_on_c, 9, 61, 0
3, 47136, Note_on_c, 9, 64, 77
3, 47137, Note_on_c, 9, 64, 0
3, 47184, Note_on_c, 9, 64, 77
3, 47185, Note_on_c, 9, 64, 0
3, 47232, Note_on_c, 9, 63, 77
3, 47233, Note_on_c, 9, 63, 0
3, 47328, Note_on_c, 9, 62, 77
3, 47329, Note_on_c, 9, 62, 0
3, 47376, Note_on_c, 9, 63, 77
3, 47377, Note_on_c, 9, 63, 0
3, 47472, Note_on_c, 9, 62, 77
3, 47473, Note_on_c, 9, 62, 0
3, 47520, Note_on_c, 9, 64, 77
3, 47521, Note_on_c, 9, 64, 0
3, 47568, Note_on_c, 9, 64, 77
3, 47569, Note_on_c, 9, 64, 0
3, 47664, Note_on_c, 9, 61, 70
3, 47665, Note_on_c, 9, 61, 0
3, 47712, Note_on_c, 9, 60, 70
3, 47713, Note_on_c, 9, 60, 0
3, 47808, Note_on_c, 9, 60, 70
3, 47809, Note_on_c, 9, 60, 0
3, 47856, Note_on_c, 9, 61, 70
3, 47857, Note_on_c, 9, 61, 0
3, 47904, Note_on_c, 9, 64, 77
3, 47905, Note_on_c, 9, 64, 0
3, 47952, Note_on_c, 9, 64, 77
3, 47953, Note_on_c, 9, 64, 0
3, 48000, Note_on_c, 9, 63, 77
3, 48001, Note_on_c, 9, 63, 0
3, 48096, Note_on_c, 9, 62, 77
3, 48097, Note_on_c, 9, 62, 0
3, 48144, Note_on_c, 9, 63, 77
3, 48145, Note_on_c, 9, 63, 0
3, 48240, Note_on_c, 9, 62, 77
3, 48241, Note_on_c, 9, 62, 0
3, 48288, Note_on_c, 9, 64, 77
3, 48289, Note_on_c, 9, 64, 0
3, 48336, Note_on_c, 9, 64, 77
3, 48337, Note_on_c, 9, 64, 0
3, 48384, Note_on_c, 9, 60, 70
3, 48385, Note_on_c, 9, 60, 0
3, 48480, Note_on_c, 9, 61, 70
3, 48481, Note_on_c, 9, 61, 0
3, 48576, Note_on_c, 9, 60, 70
3, 48577, Note_on_c, 9, 60, 0
3, 48624, Note_on_c, 9, 61, 70
3, 48625, Note_on_c, 9, 61, 0
3, 48672, Note_on_c, 9, 64, 77
3, 48673, Note_on_c, 9, 64, 0
3, 48720, Note_on_c, 9, 64, 77
3, 48721, Note_on_c, 9, 64, 0
3, 48768, Note_on_c, 9, 63, 77
3, 48769, Note_on_c, 9, 63, 0
3, 48864, Note_on_c, 9, 62, 77
3, 48865, Note_on_c, 9, 62, 0
3, 48912, Note_on_c, 9, 63, 77
3, 48913, Note_on_c, 9, 63, 0
3, 49008, Note_on_c, 9, 62, 77
3, 49009, Note_on_c, 9, 62, 0
3, 49056, Note_on_c, 9, 64, 77
3, 49057, Note_on_c, 9, 64, 0
3, 49104, Note_on_c, 9, 64, 77
3, 49105, Note_on_c, 9, 64, 0
3, 49200, Note_on_c, 9, 61, 70
3, 49201, Note_on_c, 9, 61, 0
3, 49248, Note_on_c, 9, 60, 70
3, 49249, Note_on_c, 9, 60, 0
3, 49344, Note_on_c, 9, 60, 70
3, 49345, Note_on_c, 9, 60, 0
3, 49392, Note_on_c, 9, 61, 70
3, 49393, Note_on_c, 9, 61, 0
3, 49440, Note_on_c, 9, 64, 77
3, 49441, Note_on_c, 9, 64, 0
3, 49488, Note_on_c, 9, 64, 77
3, 49489, Note_on_c, 9, 64, 0
3, 49536, Note_on_c, 9, 63, 77
3, 49537, Note_on_c, 9, 63, 0
3, 49632, Note_on_c, 9, 62, 77
3, 49633, Note_on_c, 9, 62, 0
3, 49680, Note_on_c, 9, 63, 77
3, 49681, Note_on_c, 9, 63, 0
3, 49776, Note_on_c, 9, 62, 77
3, 49777, Note_on_c, 9, 62, 0
3, 49824, Note_on_c, 9, 64, 77
3, 49825, Note_on_c, 9, 64, 0
3, 49872, Note_on_c, 9, 64, 77
3, 49873, Note_on_c, 9, 64, 0
3, 49920, Note_on_c, 9, 60, 70
3, 49921, Note_on_c, 9, 60, 0
3, 50016, Note_on_c, 9, 61, 70
3, 50017, Note_on_c, 9, 61, 0
3, 50112, Note_on_c, 9, 60, 70
3, 50113, Note_on_c, 9, 60, 0
3, 50160, Note_on_c, 9, 61, 70
3, 50161, Note_on_c, 9, 61, 0
3, 50208, Note_on_c, 9, 64, 77
3, 50209, Note_on_c, 9, 64, 0
3, 50256, Note_on_c, 9, 64, 77
3, 50257, Note_on_c, 9, 64, 0
3, 50304, Note_on_c, 9, 63, 77
3, 50305, Note_on_c, 9, 63, 0
3, 50400, Note_on_c, 9, 62, 77
3, 50401, Note_on_c, 9, 62, 0
3, 50448, Note_on_c, 9, 63, 77
3, 50449, Note_on_c, 9, 63, 0
3, 50544, Note_on_c, 9, 62, 77
3, 50545, Note_on_c, 9, 62, 0
3, 50592, Note_on_c, 9, 64, 77
3, 50593, Note_on_c, 9, 64, 0
3, 50640, Note_on_c, 9, 64, 77
3, 50641, Note_on_c, 9, 64, 0
3, 50736, Note_on_c, 9, 61, 70
3, 50737, Note_on_c, 9, 61, 0
3, 50784, Note_on_c, 9, 60, 70
3, 50785, Note_on_c, 9, 60, 0
3, 50880, Note_on_c, 9, 60, 70
3, 50881, Note_on_c, 9, 60, 0
3, 50928, Note_on_c, 9, 61, 70
3, 50929, Note_on_c, 9, 61, 0
3, 50976, Note_on_c, 9, 64, 77
3, 50977, Note_on_c, 9, 64, 0
3, 51024, Note_on_c, 9, 64, 77
3, 51025, Note_on_c, 9, 64, 0
3, 51072, Note_on_c, 9, 63, 77
3, 51073, Note_on_c, 9, 63, 0
3, 51168, Note_on_c, 9, 62, 77
3, 51169, Note_on_c, 9, 62, 0
3, 51216, Note_on_c, 9, 63, 77
3, 51217, Note_on_c, 9, 63, 0
3, 51312, Note_on_c, 9, 62, 77
3, 51313, Note_on_c, 9, 62, 0
3, 51360, Note_on_c, 9, 64, 77
3, 51361, Note_on_c, 9, 64, 0
3, 51408, Note_on_c, 9, 64, 77
3, 51409, Note_on_c, 9, 64, 0
3, 51456, Note_on_c, 9, 60, 70
3, 51457, Note_on_c, 9, 60, 0
3, 51552, Note_on_c, 9, 61, 70
3, 51553, Note_on_c, 9, 61, 0
3, 51648, Note_on_c, 9, 60, 70
3, 51649, Note_on_c, 9, 60, 0
3, 51696, Note_on_c, 9, 61, 70
3, 51697, Note_on_c, 9, 61, 0
3, 51744, Note_on_c, 9, 64, 77
3, 51745, Note_on_c, 9, 64, 0
3, 51792, Note_on_c, 9, 64, 77
3, 51793, Note_on_c, 9, 64, 0
3, 51840, Note_on_c, 9, 63, 77
3, 51841, Note_on_c, 9, 63, 0
3, 51936, Note_on_c, 9, 62, 77
3, 51937, Note_on_c, 9, 62, 0
3, 51984, Note_on_c, 9, 63, 77
3, 51985, Note_on_c, 9, 63, 0
3, 52080, Note_on_c, 9, 62, 77
3, 52081, Note_on_c, 9, 62, 0
3, 52128, Note_on_c, 9, 64, 77
3, 52129, Note_on_c, 9, 64, 0
3, 52176, Note_on_c, 9, 64, 77
3, 52177, Note_on_c, 9, 64, 0
3, 52272, Note_on_c, 9, 61, 70
3, 52273, Note_on_c, 9, 61, 0
3, 52320, Note_on_c, 9, 60, 70
3, 52321, Note_on_c, 9, 60, 0
3, 52416, Note_on_c, 9, 60, 70
3, 52417, Note_on_c, 9, 60, 0
3, 52464, Note_on_c, 9, 61, 70
3, 52465, Note_on_c, 9, 61, 0
3, 52512, Note_on_c, 9, 64, 77
3, 52513, Note_on_c, 9, 64, 0
3, 52560, Note_on_c, 9, 64, 77
3, 52561, Note_on_c, 9, 64, 0
3, 52608, Note_on_c, 9, 63, 77
3, 52609, Note_on_c, 9, 63, 0
3, 52704, Note_on_c, 9, 62, 77
3, 52705, Note_on_c, 9, 62, 0
3, 52752, Note_on_c, 9, 63, 77
3, 52753, Note_on_c, 9, 63, 0
3, 52848, Note_on_c, 9, 62, 77
3, 52849, Note_on_c, 9, 62, 0
3, 52896, Note_on_c, 9, 64, 77
3, 52897, Note_on_c, 9, 64, 0
3, 52944, Note_on_c, 9, 64, 77
3, 52945, Note_on_c, 9, 64, 0
3, 52992, Note_on_c, 9, 60, 70
3, 52993, Note_on_c, 9, 60, 0
3, 53088, Note_on_c, 9, 61, 70
3, 53089, Note_on_c, 9, 61, 0
3, 53184, Note_on_c, 9, 60, 70
3, 53185, Note_on_c, 9, 60, 0
3, 53232, Note_on_c, 9, 61, 70
3, 53233, Note_on_c, 9, 61, 0
3, 53280, Note_on_c, 9, 64, 77
3, 53281, Note_on_c, 9, 64, 0
3, 53328, Note_on_c, 9, 64, 77
3, 53329, Note_on_c, 9, 64, 0
3, 53376, Note_on_c, 9, 63, 77
3, 53377, Note_on_c, 9, 63, 0
3, 53472, Note_on_c, 9, 62, 77
3, 53473, Note_on_c, 9, 62, 0
3, 53520, Note_on_c, 9, 63, 77
3, 53521, Note_on_c, 9, 63, 0
3, 53616, Note_on_c, 9, 62, 77
3, 53617, Note_on_c, 9, 62, 0
3, 53664, Note_on_c, 9, 64, 77
3, 53665, Note_on_c, 9, 64, 0
3, 53712, Note_on_c, 9, 64, 77
3, 53713, Note_on_c, 9, 64, 0
3, 53808, Note_on_c, 9, 61, 70
3, 53809, Note_on_c, 9, 61, 0
3, 53856, Note_on_c, 9, 60, 70
3, 53857, Note_on_c, 9, 60, 0
3, 53952, Note_on_c, 9, 60, 70
3, 53953, Note_on_c, 9, 60, 0
3, 54000, Note_on_c, 9, 61, 70
3, 54001, Note_on_c, 9, 61, 0
3, 54048, Note_on_c, 9, 64, 77
3, 54049, Note_on_c, 9, 64, 0
3, 54096, Note_on_c, 9, 64, 77
3, 54097, Note_on_c, 9, 64, 0
3, 54144, Note_on_c, 9, 63, 77
3, 54145, Note_on_c, 9, 63, 0
3, 54240, Note_on_c, 9, 62, 77
3, 54241, Note_on_c, 9, 62, 0
3, 54288, Note_on_c, 9, 63, 77
3, 54289, Note_on_c, 9, 63, 0
3, 54384, Note_on_c, 9, 62, 77
3, 54385, Note_on_c, 9, 62, 0
3, 54432, Note_on_c, 9, 64, 77
3, 54433, Note_on_c, 9, 64, 0
3, 54480, Note_on_c, 9, 64, 77
3, 54481, Note_on_c, 9, 64, 0
3, 54528, Note_on_c, 9, 60, 70
3, 54529, Note_on_c, 9, 60, 0
3, 54624, Note_on_c, 9, 61, 70
3, 54625, Note_on_c, 9, 61, 0
3, 54720, Note_on_c, 9, 60, 70
3, 54721, Note_on_c, 9, 60, 0
3, 54768, Note_on_c, 9, 61, 70
3, 54769, Note_on_c, 9, 61, 0
3, 54816, Note_on_c, 9, 64, 77
3, 54817, Note_on_c, 9, 64, 0
3, 54864, Note_on_c, 9, 64, 77
3, 54865, Note_on_c, 9, 64, 0
3, 54912, Note_on_c, 9, 63, 77
3, 54913, Note_on_c, 9, 63, 0
3, 55008, Note_on_c, 9, 62, 77
3, 55009, Note_on_c, 9, 62, 0
3, 55056, Note_on_c, 9, 63, 77
3, 55057, Note_on_c, 9, 63, 0
3, 55152, Note_on_c, 9, 62, 77
3, 55153, Note_on_c, 9, 62, 0
3, 55200, Note_on_c, 9, 64, 77
3, 55201, Note_on_c, 9, 64, 0
3, 55248, Note_on_c, 9, 64, 77
3, 55249, Note_on_c, 9, 64, 0
3, 55344, Note_on_c, 9, 61, 70
3, 55345, Note_on_c, 9, 61, 0
3, 55392, Note_on_c, 9, 60, 70
3, 55393, Note_on_c, 9, 60, 0
3, 55488, Note_on_c, 9, 60, 70
3, 55489, Note_on_c, 9, 60, 0
3, 55536, Note_on_c, 9, 61, 70
3, 55537, Note_on_c, 9, 61, 0
3, 55584, Note_on_c, 9, 64, 77
3, 55585, Note_on_c, 9, 64, 0
3, 55632, Note_on_c, 9, 64, 77
3, 55633, Note_on_c, 9, 64, 0
3, 55680, Note_on_c, 9, 63, 77
3, 55681, Note_on_c, 9, 63, 0
3, 55776, Note_on_c, 9, 62, 77
3, 55777, Note_on_c, 9, 62, 0
3, 55824, Note_on_c, 9, 63, 77
3, 55825, Note_on_c, 9, 63, 0
3, 55920, Note_on_c, 9, 62, 77
3, 55921, Note_on_c, 9, 62, 0
3, 55968, Note_on_c, 9, 64, 77
3, 55969, Note_on_c, 9, 64, 0
3, 56016, Note_on_c, 9, 64, 77
3, 56017, Note_on_c, 9, 64, 0
3, 56064, Note_on_c, 9, 60, 70
3, 56065, Note_on_c, 9, 60, 0
3, 56160, Note_on_c, 9, 61, 70
3, 56161, Note_on_c, 9, 61, 0
3, 56256, Note_on_c, 9, 60, 70
3, 56257, Note_on_c, 9, 60, 0
3, 56304, Note_on_c, 9, 61, 70
3, 56305, Note_on_c, 9, 61, 0
3, 56352, Note_on_c, 9, 64, 77
3, 56353, Note_on_c, 9, 64, 0
3, 56400, Note_on_c, 9, 64, 77
3, 56401, Note_on_c, 9, 64, 0
3, 56448, Note_on_c, 9, 63, 77
3, 56449, Note_on_c, 9, 63, 0
3, 56544, Note_on_c, 9, 62, 77
3, 56545, Note_on_c, 9, 62, 0
3, 56592, Note_on_c, 9, 63, 77
3, 56593, Note_on_c, 9, 63, 0
3, 56688, Note_on_c, 9, 62, 77
3, 56689, Note_on_c, 9, 62, 0
3, 56736, Note_on_c, 9, 64, 77
3, 56737, Note_on_c, 9, 64, 0
3, 56784, Note_on_c, 9, 64, 77
3, 56785, Note_on_c, 9, 64, 0
3, 56880, Note_on_c, 9, 61, 70
3, 56881, Note_on_c, 9, 61, 0
3, 56928, Note_on_c, 9, 60, 70
3, 56929, Note_on_c, 9, 60, 0
3, 57024, Note_on_c, 9, 60, 70
3, 57025, Note_on_c, 9, 60, 0
3, 57072, Note_on_c, 9, 61, 70
3, 57073, Note_on_c, 9, 61, 0
3, 57120, Note_on_c, 9, 64, 77
3, 57121, Note_on_c, 9, 64, 0
3, 57168, Note_on_c, 9, 64, 77
3, 57169, Note_on_c, 9, 64, 0
3, 57216, Note_on_c, 9, 63, 77
3, 57217, Note_on_c, 9, 63, 0
3, 57312, Note_on_c, 9, 62, 77
3, 57313, Note_on_c, 9, 62, 0
3, 57360, Note_on_c, 9, 63, 77
3, 57361, Note_on_c, 9, 63, 0
3, 57456, Note_on_c, 9, 62, 77
3, 57457, Note_on_c, 9, 62, 0
3, 57504, Note_on_c, 9, 64, 77
3, 57505, Note_on_c, 9, 64, 0
3, 57552, Note_on_c, 9, 64, 77
3, 57553, Note_on_c, 9, 64, 0
3, 57600, Note_on_c, 9, 60, 70
3, 57601, Note_on_c, 9, 60, 0
3, 57696, Note_on_c, 9, 61, 70
3, 57697, Note_on_c, 9, 61, 0
3, 57792, Note_on_c, 9, 60, 70
3, 57793, Note_on_c, 9, 60, 0
3, 57840, Note_on_c, 9, 61, 70
3, 57841, Note_on_c, 9, 61, 0
3, 57888, Note_on_c, 9, 64, 77
3, 57889, Note_on_c, 9, 64, 0
3, 57936, Note_on_c, 9, 64, 77
3, 57937, Note_on_c, 9, 64, 0
3, 57984, Note_on_c, 9, 63, 77
3, 57985, Note_on_c, 9, 63, 0
3, 58080, Note_on_c, 9, 62, 77
3, 58081, Note_on_c, 9, 62, 0
3, 58128, Note_on_c, 9, 63, 77
3, 58129, Note_on_c, 9, 63, 0
3, 58224, Note_on_c, 9, 62, 77
3, 58225, Note_on_c, 9, 62, 0
3, 58272, Note_on_c, 9, 64, 77
3, 58273, Note_on_c, 9, 64, 0
3, 58320, Note_on_c, 9, 64, 77
3, 58321, Note_on_c, 9, 64, 0
3, 58416, Note_on_c, 9, 61, 70
3, 58417, Note_on_c, 9, 61, 0
3, 58464, Note_on_c, 9, 60, 70
3, 58465, Note_on_c, 9, 60, 0
3, 58560, Note_on_c, 9, 60, 70
3, 58561, Note_on_c, 9, 60, 0
3, 58608, Note_on_c, 9, 61, 70
3, 58609, Note_on_c, 9, 61, 0
3, 58656, Note_on_c, 9, 64, 77
3, 58657, Note_on_c, 9, 64, 0
3, 58704, Note_on_c, 9, 64, 77
3, 58705, Note_on_c, 9, 64, 0
3, 58752, Note_on_c, 9, 63, 77
3, 58753, Note_on_c, 9, 63, 0
3, 58848, Note_on_c, 9, 62, 77
3, 58849, Note_on_c, 9, 62, 0
3, 58896, Note_on_c, 9, 63, 77
3, 58897, Note_on_c, 9, 63, 0
3, 58992, Note_on_c, 9, 62, 77
3, 58993, Note_on_c, 9, 62, 0
3, 59040, Note_on_c, 9, 64, 77
3, 59041, Note_on_c, 9, 64, 0
3, 59088, Note_on_c, 9, 64, 77
3, 59089, Note_on_c, 9, 64, 0
3, 59136, Note_on_c, 9, 60, 70
3, 59137, Note_on_c, 9, 60, 0
3, 59232, Note_on_c, 9, 61, 70
3, 59233, Note_on_c, 9, 61, 0
3, 59328, Note_on_c, 9, 60, 70
3, 59329, Note_on_c, 9, 60, 0
3, 59376, Note_on_c, 9, 61, 70
3, 59377, Note_on_c, 9, 61, 0
3, 59424, Note_on_c, 9, 64, 77
3, 59425, Note_on_c, 9, 64, 0
3, 59472, Note_on_c, 9, 64, 77
3, 59473, Note_on_c, 9, 64, 0
3, 59520, Note_on_c, 9, 63, 77
3, 59521, Note_on_c, 9, 63, 0
3, 59616, Note_on_c, 9, 62, 77
3, 59617, Note_on_c, 9, 62, 0
3, 59664, Note_on_c, 9, 63, 77
3, 59665, Note_on_c, 9, 63, 0
3, 59760, Note_on_c, 9, 62, 77
3, 59761, Note_on_c, 9, 62, 0
3, 59808, Note_on_c, 9, 64, 77
3, 59809, Note_on_c, 9, 64, 0
3, 59856, Note_on_c, 9, 64, 77
3, 59857, Note_on_c, 9, 64, 0
3, 59952, Note_on_c, 9, 61, 70
3, 59953, Note_on_c, 9, 61, 0
3, 60000, Note_on_c, 9, 60, 70
3, 60001, Note_on_c, 9, 60, 0
3, 60096, Note_on_c, 9, 60, 70
3, 60097, Note_on_c, 9, 60, 0
3, 60144, Note_on_c, 9, 61, 70
3, 60145, Note_on_c, 9, 61, 0
3, 60192, Note_on_c, 9, 64, 77
3, 60193, Note_on_c, 9, 64, 0
3, 60240, Note_on_c, 9, 64, 77
3, 60241, Note_on_c, 9, 64, 0
3, 60288, Note_on_c, 9, 63, 77
3, 60289, Note_on_c, 9, 63, 0
3, 60384, Note_on_c, 9, 62, 77
3, 60385, Note_on_c, 9, 62, 0
3, 60432, Note_on_c, 9, 63, 77
3, 60433, Note_on_c, 9, 63, 0
3, 60528, Note_on_c, 9, 62, 77
3, 60529, Note_on_c, 9, 62, 0
3, 60576, Note_on_c, 9, 64, 77
3, 60577, Note_on_c, 9, 64, 0
3, 60624, Note_on_c, 9, 64, 77
3, 60625, Note_on_c, 9, 64, 0
3, 60672, Note_on_c, 9, 60, 70
3, 60673, Note_on_c, 9, 60, 0
3, 60768, Note_on_c, 9, 61, 70
3, 60769, Note_on_c, 9, 61, 0
3, 60864, Note_on_c, 9, 60, 70
3, 60865, Note_on_c, 9, 60, 0
3, 60912, Note_on_c, 9, 61, 70
3, 60913, Note_on_c, 9, 61, 0
3, 60960, Note_on_c, 9, 64, 77
3, 60961, Note_on_c, 9, 64, 0
3, 61008, Note_on_c, 9, 64, 77
3, 61009, Note_on_c, 9, 64, 0
3, 61056, Note_on_c, 9, 63, 77
3, 61057, Note_on_c, 9, 63, 0
3, 61152, Note_on_c, 9, 62, 77
3, 61153, Note_on_c, 9, 62, 0
3, 61200, Note_on_c, 9, 63, 77
3, 61201, Note_on_c, 9, 63, 0
3, 61296, Note_on_c, 9, 62, 77
3, 61297, Note_on_c, 9, 62, 0
3, 61344, Note_on_c, 9, 64, 77
3, 61345, Note_on_c, 9, 64, 0
3, 61392, Note_on_c, 9, 64, 77
3, 61393, Note_on_c, 9, 64, 0
3, 61488, Note_on_c, 9, 61, 70
3, 61489, Note_on_c, 9, 61, 0
3, 61536, Note_on_c, 9, 60, 70
3, 61537, Note_on_c, 9, 60, 0
3, 61632, Note_on_c, 9, 60, 70
3, 61633, Note_on_c, 9, 60, 0
3, 61680, Note_on_c, 9, 61, 70
3, 61681, Note_on_c, 9, 61, 0
3, 61728, Note_on_c, 9, 64, 77
3, 61729, Note_on_c, 9, 64, 0
3, 61776, Note_on_c, 9, 64, 77
3, 61777, Note_on_c, 9, 64, 0
3, 61824, Note_on_c, 9, 63, 77
3, 61825, Note_on_c, 9, 63, 0
3, 61920, Note_on_c, 9, 62, 77
3, 61921, Note_on_c, 9, 62, 0
3, 61968, Note_on_c, 9, 63, 77
3, 61969, Note_on_c, 9, 63, 0
3, 62064, Note_on_c, 9, 62, 77
3, 62065, Note_on_c, 9, 62, 0
3, 62112, Note_on_c, 9, 64, 77
3, 62113, Note_on_c, 9, 64, 0
3, 62160, Note_on_c, 9, 64, 77
3, 62161, Note_on_c, 9, 64, 0
3, 62208, Note_on_c, 9, 60, 70
3, 62209, Note_on_c, 9, 60, 0
3, 62304, Note_on_c, 9, 61, 70
3, 62305, Note_on_c, 9, 61, 0
3, 62400, Note_on_c, 9, 60, 70
3, 62401, Note_on_c, 9, 60, 0
3, 62448, Note_on_c, 9, 61, 70
3, 62449, Note_on_c, 9, 61, 0
3, 62496, Note_on_c, 9, 64, 77
3, 62497, Note_on_c, 9, 64, 0
3, 62544, Note_on_c, 9, 64, 77
3, 62545, Note_on_c, 9, 64, 0
3, 62592, Note_on_c, 9, 63, 77
3, 62593, Note_on_c, 9, 63, 0
3, 62688, Note_on_c, 9, 62, 77
3, 62689, Note_on_c, 9, 62, 0
3, 62736, Note_on_c, 9, 63, 77
3, 62737, Note_on_c, 9, 63, 0
3, 62832, Note_on_c, 9, 62, 77
3, 62833, Note_on_c, 9, 62, 0
3, 62880, Note_on_c, 9, 64, 77
3, 62881, Note_on_c, 9, 64, 0
3, 62928, Note_on_c, 9, 64, 77
3, 62929, Note_on_c, 9, 64, 0
3, 63024, Note_on_c, 9, 61, 70
3, 63025, Note_on_c, 9, 61, 0
3, 63072, Note_on_c, 9, 60, 70
3, 63073, Note_on_c, 9, 60, 0
3, 63168, Note_on_c, 9, 60, 70
3, 63169, Note_on_c, 9, 60, 0
3, 63216, Note_on_c, 9, 61, 70
3, 63217, Note_on_c, 9, 61, 0
3, 63264, Note_on_c, 9, 64, 77
3, 63265, Note_on_c, 9, 64, 0
3, 63312, Note_on_c, 9, 64, 77
3, 63313, Note_on_c, 9, 64, 0
3, 63360, Note_on_c, 9, 63, 77
3, 63361, Note_on_c, 9, 63, 0
3, 63456, Note_on_c, 9, 62, 77
3, 63457, Note_on_c, 9, 62, 0
3, 63504, Note_on_c, 9, 63, 77
3, 63505, Note_on_c, 9, 63, 0
3, 63600, Note_on_c, 9, 62, 77
3, 63601, Note_on_c, 9, 62, 0
3, 63648, Note_on_c, 9, 64, 77
3, 63649, Note_on_c, 9, 64, 0
3, 63696, Note_on_c, 9, 64, 77
3, 63697, Note_on_c, 9, 64, 0
3, 63744, Note_on_c, 9, 60, 70
3, 63745, Note_on_c, 9, 60, 0
3, 63840, Note_on_c, 9, 61, 70
3, 63841, Note_on_c, 9, 61, 0
3, 63936, Note_on_c, 9, 60, 70
3, 63937, Note_on_c, 9, 60, 0
3, 63984, Note_on_c, 9, 61, 70
3, 63985, Note_on_c, 9, 61, 0
3, 64032, Note_on_c, 9, 64, 77
3, 64033, Note_on_c, 9, 64, 0
3, 64080, Note_on_c, 9, 64, 77
3, 64081, Note_on_c, 9, 64, 0
3, 64128, Note_on_c, 9, 63, 77
3, 64129, Note_on_c, 9, 63, 0
3, 64224, Note_on_c, 9, 62, 77
3, 64225, Note_on_c, 9, 62, 0
3, 64272, Note_on_c, 9, 63, 77
3, 64273, Note_on_c, 9, 63, 0
3, 64368, Note_on_c, 9, 62, 77
3, 64369, Note_on_c, 9, 62, 0
3, 64416, Note_on_c, 9, 64, 77
3, 64417, Note_on_c, 9, 64, 0
3, 64464, Note_on_c, 9, 64, 77
3, 64465, Note_on_c, 9, 64, 0
3, 64560, Note_on_c, 9, 61, 70
3, 64561, Note_on_c, 9, 61, 0
3, 64608, Note_on_c, 9, 60, 70
3, 64609, Note_on_c, 9, 60, 0
3, 64704, Note_on_c, 9, 60, 70
3, 64705, Note_on_c, 9, 60, 0
3, 64752, Note_on_c, 9, 61, 70
3, 64753, Note_on_c, 9, 61, 0
3, 64800, Note_on_c, 9, 64, 77
3, 64801, Note_on_c, 9, 64, 0
3, 64848, Note_on_c, 9, 64, 77
3, 64849, Note_on_c, 9, 64, 0
3, 64896, Note_on_c, 9, 63, 77
3, 64897, Note_on_c, 9, 63, 0
3, 64992, Note_on_c, 9, 62, 77
3, 64993, Note_on_c, 9, 62, 0
3, 65040, Note_on_c, 9, 63, 77
3, 65041, Note_on_c, 9, 63, 0
3, 65136, Note_on_c, 9, 62, 77
3, 65137, Note_on_c, 9, 62, 0
3, 65184, Note_on_c, 9, 64, 77
3, 65185, Note_on_c, 9, 64, 0
3, 65232, Note_on_c, 9, 64, 77
3, 65233, Note_on_c, 9, 64, 0
3, 65280, Note_on_c, 9, 60, 70
3, 65281, Note_on_c, 9, 60, 0
3, 65376, Note_on_c, 9, 61, 70
3, 65376, Note_on_c, 9, 65, 70
3, 65377, Note_on_c, 9, 65, 0
3, 65377, Note_on_c, 9, 61, 0
3, 65472, Note_on_c, 9, 60, 70
3, 65473, Note_on_c, 9, 60, 0
3, 65520, Note_on_c, 9, 61, 70
3, 65520, Note_on_c, 9, 65, 70
3, 65521, Note_on_c, 9, 65, 0
3, 65521, Note_on_c, 9, 61, 0
3, 65568, Note_on_c, 9, 64, 77
3, 65569, Note_on_c, 9, 64, 0
3, 65616, Note_on_c, 9, 64, 77
3, 65617, Note_on_c, 9, 64, 0
3, 65664, Note_on_c, 9, 63, 77
3, 65664, Note_on_c, 9, 65, 70
3, 65665, Note_on_c, 9, 65, 0
3, 65665, Note_on_c, 9, 63, 0
3, 65760, Note_on_c, 9, 62, 77
3, 65761, Note_on_c, 9, 62, 0
3, 65808, Note_on_c, 9, 63, 77
3, 65809, Note_on_c, 9, 63, 0
3, 65904, Note_on_c, 9, 62, 77
3, 65905, Note_on_c, 9, 62, 0
3, 65952, Note_on_c, 9, 64, 77
3, 65952, Note_on_c, 9, 66, 57
3, 65953, Note_on_c, 9, 66, 0
3, 65953, Note_on_c, 9, 64, 0
3, 66000, Note_on_c, 9, 64, 77
3, 66001, Note_on_c, 9, 64, 0
3, 66048, Note_on_c, 9, 66, 70
3, 66049, Note_on_c, 9, 66, 0
3, 66096, Note_on_c, 9, 61, 70
3, 66097, Note_on_c, 9, 61, 0
3, 66144, Note_on_c, 9, 60, 70
3, 66144, Note_on_c, 9, 66, 58
3, 66145, Note_on_c, 9, 66, 0
3, 66145, Note_on_c, 9, 60, 0
3, 66240, Note_on_c, 9, 60, 70
3, 66240, Note_on_c, 9, 66, 70
3, 66241, Note_on_c, 9, 66, 0
3, 66241, Note_on_c, 9, 60, 0
3, 66288, Note_on_c, 9, 61, 70
3, 66288, Note_on_c, 9, 66, 58
3, 66289, Note_on_c, 9, 66, 0
3, 66289, Note_on_c, 9, 61, 0
3, 66336, Note_on_c, 9, 64, 77
3, 66337, Note_on_c, 9, 64, 0
3, 66384, Note_on_c, 9, 64, 77
3, 66384, Note_on_c, 9, 66, 103
3, 66385, Note_on_c, 9, 66, 0
3, 66385, Note_on_c, 9, 64, 0
3, 66432, Note_on_c, 9, 63, 77
3, 66433, Note_on_c, 9, 63, 0
3, 66480, Note_on_c, 9, 65, 70
3, 66481, Note_on_c, 9, 65, 0
3, 66528, Note_on_c, 9, 62, 77
3, 66529, Note_on_c, 9, 62, 0
3, 66576, Note_on_c, 9, 63, 77
3, 66577, Note_on_c, 9, 63, 0
3, 66672, Note_on_c, 9, 62, 77
3, 66673, Note_on_c, 9, 62, 0
3, 66720, Note_on_c, 9, 64, 77
3, 66720, Note_on_c, 9, 65, 70
3, 66721, Note_on_c, 9, 65, 0
3, 66721, Note_on_c, 9, 64, 0
3, 66744, Note_on_c, 9, 65, 70
3, 66745, Note_on_c, 9, 65, 0
3, 66768, Note_on_c, 9, 64, 77
3, 66768, Note_on_c, 9, 65, 70
3, 66769, Note_on_c, 9, 65, 0
3, 66769, Note_on_c, 9, 64, 0
3, 66792, Note_on_c, 9, 65, 78
3, 66793, Note_on_c, 9, 65, 0
3, 66816, Note_on_c, 9, 60, 70
3, 66816, Note_on_c, 9, 65, 94
3, 66817, Note_on_c, 9, 65, 0
3, 66817, Note_on_c, 9, 60, 0
3, 66912, Note_on_c, 9, 61, 70
3, 66912, Note_on_c, 9, 65, 70
3, 66913, Note_on_c, 9, 65, 0
3, 66913, Note_on_c, 9, 61, 0
3, 67008, Note_on_c, 9, 60, 70
3, 67008, Note_on_c, 9, 65, 80
3, 67009, Note_on_c, 9, 65, 0
3, 67009, Note_on_c, 9, 60, 0
3, 67056, Note_on_c, 9, 61, 70
3, 67057, Note_on_c, 9, 61, 0
3, 67104, Note_on_c, 9, 64, 77
3, 67104, Note_on_c, 9, 66, 70
3, 67105, Note_on_c, 9, 66, 0
3, 67105, Note_on_c, 9, 64, 0
3, 67152, Note_on_c, 9, 64, 77
3, 67152, Note_on_c, 9, 65, 70
3, 67153, Note_on_c, 9, 65, 0
3, 67153, Note_on_c, 9, 64, 0
3, 67200, Note_on_c, 9, 63, 77
3, 67201, Note_on_c, 9, 63, 0
3, 67248, Note_on_c, 9, 65, 70
3, 67249, Note_on_c, 9, 65, 0
3, 67296, Note_on_c, 9, 62, 77
3, 67297, Note_on_c, 9, 62, 0
3, 67344, Note_on_c, 9, 63, 77
3, 67345, Note_on_c, 9, 63, 0
3, 67440, Note_on_c, 9, 62, 77
3, 67441, Note_on_c, 9, 62, 0
3, 67488, Note_on_c, 9, 64, 77
3, 67489, Note_on_c, 9, 64, 0
3, 67536, Note_on_c, 9, 64, 77
3, 67536, Note_on_c, 9, 65, 70
3, 67537, Note_on_c, 9, 65, 0
3, 67537, Note_on_c, 9, 64, 0
3, 67632, Note_on_c, 9, 61, 70
3, 67632, Note_on_c, 9, 65, 70
3, 67633, Note_on_c, 9, 65, 0
3, 67633, Note_on_c, 9, 61, 0
3, 67680, Note_on_c, 9, 60, 70
3, 67681, Note_on_c, 9, 60, 0
3, 67776, Note_on_c, 9, 60, 70
3, 67776, Note_on_c, 9, 65, 70
3, 67777, Note_on_c, 9, 65, 0
3, 67777, Note_on_c, 9, 60, 0
3, 67824, Note_on_c, 9, 61, 70
3, 67825, Note_on_c, 9, 61, 0
3, 67872, Note_on_c, 9, 64, 77
3, 67872, Note_on_c, 9, 65, 70
3, 67873, Note_on_c, 9, 65, 0
3, 67873, Note_on_c, 9, 64, 0
3, 67920, Note_on_c, 9, 64, 77
3, 67921, Note_on_c, 9, 64, 0
3, 67968, Note_on_c, 9, 63, 77
3, 67968, Note_on_c, 9, 65, 70
3, 67969, Note_on_c, 9, 65, 0
3, 67969, Note_on_c, 9, 63, 0
3, 68064, Note_on_c, 9, 62, 77
3, 68064, Note_on_c, 9, 65, 70
3, 68065, Note_on_c, 9, 65, 0
3, 68065, Note_on_c, 9, 62, 0
3, 68112, Note_on_c, 9, 63, 77
3, 68113, Note_on_c, 9, 63, 0
3, 68160, Note_on_c, 9, 65, 70
3, 68161, Note_on_c, 9, 65, 0
3, 68208, Note_on_c, 9, 62, 77
3, 68209, Note_on_c, 9, 62, 0
3, 68256, Note_on_c, 9, 64, 77
3, 68257, Note_on_c, 9, 64, 0
3, 68304, Note_on_c, 9, 64, 77
3, 68304, Note_on_c, 9, 66, 57
3, 68305, Note_on_c, 9, 66, 0
3, 68305, Note_on_c, 9, 64, 0
3, 68352, Note_on_c, 9, 60, 70
3, 68352, Note_on_c, 9, 66, 70
3, 68353, Note_on_c, 9, 66, 0
3, 68353, Note_on_c, 9, 60, 0
3, 68448, Note_on_c, 9, 61, 70
3, 68448, Note_on_c, 9, 66, 85
3, 68449, Note_on_c, 9, 66, 0
3, 68449, Note_on_c, 9, 61, 0
3, 68544, Note_on_c, 9, 60, 70
3, 68544, Note_on_c, 9, 66, 83
3, 68545, Note_on_c, 9, 66, 0
3, 68545, Note_on_c, 9, 60, 0
3, 68592, Note_on_c, 9, 61, 70
3, 68593, Note_on_c, 9, 61, 0
3, 68640, Note_on_c, 9, 64, 77
3, 68641, Note_on_c, 9, 64, 0
3, 68688, Note_on_c, 9, 64, 77
3, 68688, Note_on_c, 9, 66, 81
3, 68689, Note_on_c, 9, 66, 0
3, 68689, Note_on_c, 9, 64, 0
3, 68736, Note_on_c, 9, 63, 77
3, 68737, Note_on_c, 9, 63, 0
3, 68784, Note_on_c, 9, 65, 93
3, 68785, Note_on_c, 9, 65, 0
3, 68832, Note_on_c, 9, 62, 77
3, 68833, Note_on_c, 9, 62, 0
3, 68880, Note_on_c, 9, 63, 77
3, 68881, Note_on_c, 9, 63, 0
3, 68928, Note_on_c, 9, 66, 81
3, 68929, Note_on_c, 9, 66, 0
3, 68976, Note_on_c, 9, 62, 77
3, 68977, Note_on_c, 9, 62, 0
3, 69024, Note_on_c, 9, 64, 77
3, 69024, Note_on_c, 9, 66, 82
3, 69025, Note_on_c, 9, 66, 0
3, 69025, Note_on_c, 9, 64, 0
3, 69072, Note_on_c, 9, 64, 77
3, 69073, Note_on_c, 9, 64, 0
3, 69120, Note_on_c, 9, 65, 97
3, 69121, Note_on_c, 9, 65, 0
3, 69168, Note_on_c, 9, 61, 70
3, 69169, Note_on_c, 9, 61, 0
3, 69216, Note_on_c, 9, 60, 70
3, 69216, Note_on_c, 9, 65, 98
3, 69217, Note_on_c, 9, 65, 0
3, 69217, Note_on_c, 9, 60, 0
3, 69312, Note_on_c, 9, 60, 70
3, 69312, Note_on_c, 9, 65, 70
3, 69313, Note_on_c, 9, 65, 0
3, 69313, Note_on_c, 9, 60, 0
3, 69360, Note_on_c, 9, 61, 70
3, 69360, Note_on_c, 9, 66, 87
3, 69361, Note_on_c, 9, 66, 0
3, 69361, Note_on_c, 9, 61, 0
3, 69408, Note_on_c, 9, 64, 77
3, 69409, Note_on_c, 9, 64, 0
3, 69456, Note_on_c, 9, 64, 77
3, 69457, Note_on_c, 9, 64, 0
3, 69504, Note_on_c, 9, 63, 77
3, 69505, Note_on_c, 9, 63, 0
3, 69552, Note_on_c, 9, 65, 70
3, 69553, Note_on_c, 9, 65, 0
3, 69576, Note_on_c, 9, 65, 70
3, 69577, Note_on_c, 9, 65, 0
3, 69600, Note_on_c, 9, 62, 77
3, 69600, Note_on_c, 9, 65, 70
3, 69601, Note_on_c, 9, 65, 0
3, 69601, Note_on_c, 9, 62, 0
3, 69624, Note_on_c, 9, 65, 70
3, 69625, Note_on_c, 9, 65, 0
3, 69648, Note_on_c, 9, 63, 77
3, 69648, Note_on_c, 9, 65, 70
3, 69649, Note_on_c, 9, 65, 0
3, 69649, Note_on_c, 9, 63, 0
3, 69696, Note_on_c, 9, 66, 87
3, 69697, Note_on_c, 9, 66, 0
3, 69744, Note_on_c, 9, 62, 77
3, 69745, Note_on_c, 9, 62, 0
3, 69792, Note_on_c, 9, 64, 77
3, 69792, Note_on_c, 9, 66, 87
3, 69793, Note_on_c, 9, 66, 0
3, 69793, Note_on_c, 9, 64, 0
3, 69840, Note_on_c, 9, 64, 77
3, 69841, Note_on_c, 9, 64, 0
3, 69888, Note_on_c, 9, 60, 70
3, 69888, Note_on_c, 9, 65, 70
3, 69889, Note_on_c, 9, 65, 0
3, 69889, Note_on_c, 9, 60, 0
3, 69984, Note_on_c, 9, 61, 70
3, 69984, Note_on_c, 9, 65, 70
3, 69985, Note_on_c, 9, 65, 0
3, 69985, Note_on_c, 9, 61, 0
3, 70080, Note_on_c, 9, 60, 70
3, 70081, Note_on_c, 9, 60, 0
3, 70128, Note_on_c, 9, 61, 70
3, 70129, Note_on_c, 9, 61, 0
3, 70176, Note_on_c, 9, 64, 77
3, 70176, Note_on_c, 9, 66, 58
3, 70177, Note_on_c, 9, 66, 0
3, 70177, Note_on_c, 9, 64, 0
3, 70224, Note_on_c, 9, 64, 77
3, 70224, Note_on_c, 9, 65, 70
3, 70225, Note_on_c, 9, 65, 0
3, 70225, Note_on_c, 9, 64, 0
3, 70272, Note_on_c, 9, 63, 77
3, 70273, Note_on_c, 9, 63, 0
3, 70320, Note_on_c, 9, 65, 70
3, 70321, Note_on_c, 9, 65, 0
3, 70368, Note_on_c, 9, 62, 77
3, 70369, Note_on_c, 9, 62, 0
3, 70416, Note_on_c, 9, 63, 77
3, 70417, Note_on_c, 9, 63, 0
3, 70464, Note_on_c, 9, 65, 70
3, 70465, Note_on_c, 9, 65, 0
3, 70512, Note_on_c, 9, 62, 77
3, 70513, Note_on_c, 9, 62, 0
3, 70560, Note_on_c, 9, 64, 77
3, 70560, Note_on_c, 9, 66, 70
3, 70561, Note_on_c, 9, 66, 0
3, 70561, Note_on_c, 9, 64, 0
3, 70608, Note_on_c, 9, 64, 77
3, 70609, Note_on_c, 9, 64, 0
3, 70656, Note_on_c, 9, 65, 83
3, 70657, Note_on_c, 9, 65, 0
3, 70704, Note_on_c, 9, 61, 70
3, 70705, Note_on_c, 9, 61, 0
3, 70752, Note_on_c, 9, 60, 70
3, 70752, Note_on_c, 9, 65, 82
3, 70753, Note_on_c, 9, 65, 0
3, 70753, Note_on_c, 9, 60, 0
3, 70848, Note_on_c, 9, 60, 70
3, 70848, Note_on_c, 9, 65, 81
3, 70849, Note_on_c, 9, 65, 0
3, 70849, Note_on_c, 9, 60, 0
3, 70896, Note_on_c, 9, 61, 70
3, 70897, Note_on_c, 9, 61, 0
3, 70944, Note_on_c, 9, 64, 77
3, 70944, Note_on_c, 9, 66, 68
3, 70945, Note_on_c, 9, 66, 0
3, 70945, Note_on_c, 9, 64, 0
3, 70992, Note_on_c, 9, 64, 77
3, 70992, Note_on_c, 9, 65, 80
3, 70993, Note_on_c, 9, 65, 0
3, 70993, Note_on_c, 9, 64, 0
3, 71040, Note_on_c, 9, 63, 77
3, 71041, Note_on_c, 9, 63, 0
3, 71088, Note_on_c, 9, 65, 80
3, 71089, Note_on_c, 9, 65, 0
3, 71136, Note_on_c, 9, 62, 77
3, 71137, Note_on_c, 9, 62, 0
3, 71184, Note_on_c, 9, 63, 77
3, 71185, Note_on_c, 9, 63, 0
3, 71232, Note_on_c, 9, 65, 79
3, 71233, Note_on_c, 9, 65, 0
3, 71280, Note_on_c, 9, 62, 77
3, 71281, Note_on_c, 9, 62, 0
3, 71328, Note_on_c, 9, 64, 77
3, 71328, Note_on_c, 9, 66, 65
3, 71329, Note_on_c, 9, 66, 0
3, 71329, Note_on_c, 9, 64, 0
3, 71376, Note_on_c, 9, 64, 77
3, 71377, Note_on_c, 9, 64, 0
3, 71424, Note_on_c, 9, 60, 70
3, 71424, Note_on_c, 9, 66, 57
3, 71425, Note_on_c, 9, 66, 0
3, 71425, Note_on_c, 9, 60, 0
3, 71472, Note_on_c, 9, 66, 57
3, 71473, Note_on_c, 9, 66, 0
3, 71496, Note_on_c, 9, 66, 57
3, 71497, Note_on_c, 9, 66, 0
3, 71520, Note_on_c, 9, 61, 70
3, 71520, Note_on_c, 9, 66, 58
3, 71521, Note_on_c, 9, 66, 0
3, 71521, Note_on_c, 9, 61, 0
3, 71544, Note_on_c, 9, 66, 64
3, 71545, Note_on_c, 9, 66, 0
3, 71616, Note_on_c, 9, 60, 70
3, 71616, Note_on_c, 9, 66, 84
3, 71617, Note_on_c, 9, 66, 0
3, 71617, Note_on_c, 9, 60, 0
3, 71664, Note_on_c, 9, 61, 70
3, 71665, Note_on_c, 9, 61, 0
3, 71712, Note_on_c, 9, 64, 77
3, 71713, Note_on_c, 9, 64, 0
3, 71760, Note_on_c, 9, 64, 77
3, 71760, Note_on_c, 9, 66, 87
3, 71761, Note_on_c, 9, 66, 0
3, 71761, Note_on_c, 9, 64, 0
3, 71784, Note_on_c, 9, 66, 74
3, 71785, Note_on_c, 9, 66, 0
3, 71808, Note_on_c, 9, 63, 77
3, 71808, Note_on_c, 9, 66, 64
3, 71809, Note_on_c, 9, 66, 0
3, 71809, Note_on_c, 9, 63, 0
3, 71832, Note_on_c, 9, 66, 57
3, 71833, Note_on_c, 9, 66, 0
3, 71856, Note_on_c, 9, 66, 57
3, 71857, Note_on_c, 9, 66, 0
3, 71880, Note_on_c, 9, 66, 57
3, 71881, Note_on_c, 9, 66, 0
3, 71904, Note_on_c, 9, 62, 77
3, 71904, Note_on_c, 9, 66, 57
3, 71905, Note_on_c, 9, 66, 0
3, 71905, Note_on_c, 9, 62, 0
3, 71928, Note_on_c, 9, 66, 57
3, 71929, Note_on_c, 9, 66, 0
3, 71952, Note_on_c, 9, 63, 77
3, 71953, Note_on_c, 9, 63, 0
3, 72048, Note_on_c, 9, 62, 77
3, 72049, Note_on_c, 9, 62, 0
3, 72096, Note_on_c, 9, 64, 77
3, 72097, Note_on_c, 9, 64, 0
3, 72144, Note_on_c, 9, 64, 77
3, 72144, Note_on_c, 9, 65, 70
3, 72145, Note_on_c, 9, 65, 0
3, 72145, Note_on_c, 9, 64, 0
3, 72192, Note_on_c, 9, 66, 70
3, 72193, Note_on_c, 9, 66, 0
3, 72240, Note_on_c, 9, 61, 70
3, 72241, Note_on_c, 9, 61, 0
3, 72288, Note_on_c, 9, 60, 70
3, 72288, Note_on_c, 9, 66, 70
3, 72289, Note_on_c, 9, 66, 0
3, 72289, Note_on_c, 9, 60, 0
3, 72384, Note_on_c, 9, 60, 70
3, 72384, Note_on_c, 9, 66, 87
3, 72385, Note_on_c, 9, 66, 0
3, 72385, Note_on_c, 9, 60, 0
3, 72432, Note_on_c, 9, 61, 70
3, 72433, Note_on_c, 9, 61, 0
3, 72480, Note_on_c, 9, 64, 77
3, 72481, Note_on_c, 9, 64, 0
3, 72528, Note_on_c, 9, 64, 77
3, 72528, Note_on_c, 9, 66, 87
3, 72529, Note_on_c, 9, 66, 0
3, 72529, Note_on_c, 9, 64, 0
3, 72576, Note_on_c, 9, 63, 77
3, 72577, Note_on_c, 9, 63, 0
3, 72624, Note_on_c, 9, 65, 70
3, 72625, Note_on_c, 9, 65, 0
3, 72672, Note_on_c, 9, 62, 77
3, 72673, Note_on_c, 9, 62, 0
3, 72720, Note_on_c, 9, 63, 77
3, 72721, Note_on_c, 9, 63, 0
3, 72816, Note_on_c, 9, 62, 77
3, 72817, Note_on_c, 9, 62, 0
3, 72864, Note_on_c, 9, 64, 77
3, 72865, Note_on_c, 9, 64, 0
3, 72912, Note_on_c, 9, 64, 77
3, 72912, Note_on_c, 9, 65, 70
3, 72913, Note_on_c, 9, 65, 0
3, 72913, Note_on_c, 9, 64, 0
3, 72960, Note_on_c, 9, 60, 70
3, 72960, Note_on_c, 9, 66, 70
3, 72961, Note_on_c, 9, 66, 0
3, 72961, Note_on_c, 9, 60, 0
3, 73056, Note_on_c, 9, 61, 70
3, 73056, Note_on_c, 9, 66, 58
3, 73057, Note_on_c, 9, 66, 0
3, 73057, Note_on_c, 9, 61, 0
3, 73152, Note_on_c, 9, 60, 70
3, 73152, Note_on_c, 9, 66, 87
3, 73153, Note_on_c, 9, 66, 0
3, 73153, Note_on_c, 9, 60, 0
3, 73200, Note_on_c, 9, 61, 70
3, 73201, Note_on_c, 9, 61, 0
3, 73248, Note_on_c, 9, 64, 77
3, 73249, Note_on_c, 9, 64, 0
3, 73296, Note_on_c, 9, 64, 77
3, 73296, Note_on_c, 9, 66, 87
3, 73297, Note_on_c, 9, 66, 0
3, 73297, Note_on_c, 9, 64, 0
3, 73344, Note_on_c, 9, 63, 77
3, 73344, Note_on_c, 9, 66, 85
3, 73345, Note_on_c, 9, 66, 0
3, 73345, Note_on_c, 9, 63, 0
3, 73368, Note_on_c, 9, 66, 76
3, 73369, Note_on_c, 9, 66, 0
3, 73392, Note_on_c, 9, 66, 67
3, 73393, Note_on_c, 9, 66, 0
3, 73416, Note_on_c, 9, 66, 58
3, 73417, Note_on_c, 9, 66, 0
3, 73440, Note_on_c, 9, 62, 77
3, 73440, Note_on_c, 9, 66, 57
3, 73441, Note_on_c, 9, 66, 0
3, 73441, Note_on_c, 9, 62, 0
3, 73464, Note_on_c, 9, 66, 57
3, 73465, Note_on_c, 9, 66, 0
3, 73488, Note_on_c, 9, 63, 77
3, 73489, Note_on_c, 9, 63, 0
3, 73584, Note_on_c, 9, 62, 77
3, 73584, Note_on_c, 9, 65, 70
3, 73585, Note_on_c, 9, 65, 0
3, 73585, Note_on_c, 9, 62, 0
3, 73608, Note_on_c, 9, 65, 70
3, 73609, Note_on_c, 9, 65, 0
3, 73632, Note_on_c, 9, 64, 77
3, 73632, Note_on_c, 9, 65, 70
3, 73633, Note_on_c, 9, 65, 0
3, 73633, Note_on_c, 9, 64, 0
3, 73656, Note_on_c, 9, 65, 70
3, 73657, Note_on_c, 9, 65, 0
3, 73680, Note_on_c, 9, 64, 77
3, 73680, Note_on_c, 9, 65, 70
3, 73681, Note_on_c, 9, 65, 0
3, 73681, Note_on_c, 9, 64, 0
3, 73776, Note_on_c, 9, 61, 70
3, 73776, Note_on_c, 9, 65, 70
3, 73777, Note_on_c, 9, 65, 0
3, 73777, Note_on_c, 9, 61, 0
3, 73824, Note_on_c, 9, 60, 70
3, 73825, Note_on_c, 9, 60, 0
3, 73872, Note_on_c, 9, 66, 57
3, 73873, Note_on_c, 9, 66, 0
3, 73920, Note_on_c, 9, 60, 70
3, 73920, Note_on_c, 9, 65, 70
3, 73921, Note_on_c, 9, 65, 0
3, 73921, Note_on_c, 9, 60, 0
3, 73968, Note_on_c, 9, 61, 70
3, 73969, Note_on_c, 9, 61, 0
3, 74016, Note_on_c, 9, 64, 77
3, 74016, Note_on_c, 9, 66, 57
3, 74017, Note_on_c, 9, 66, 0
3, 74017, Note_on_c, 9, 64, 0
3, 74064, Note_on_c, 9, 64, 77
3, 74064, Note_on_c, 9, 65, 70
3, 74065, Note_on_c, 9, 65, 0
3, 74065, Note_on_c, 9, 64, 0
3, 74112, Note_on_c, 9, 63, 77
3, 74113, Note_on_c, 9, 63, 0
3, 74160, Note_on_c, 9, 65, 70
3, 74161, Note_on_c, 9, 65, 0
3, 74208, Note_on_c, 9, 62, 77
3, 74209, Note_on_c, 9, 62, 0
3, 74256, Note_on_c, 9, 63, 77
3, 74256, Note_on_c, 9, 66, 58
3, 74257, Note_on_c, 9, 66, 0
3, 74257, Note_on_c, 9, 63, 0
3, 74304, Note_on_c, 9, 65, 70
3, 74305, Note_on_c, 9, 65, 0
3, 74352, Note_on_c, 9, 62, 77
3, 74353, Note_on_c, 9, 62, 0
3, 74400, Note_on_c, 9, 64, 77
3, 74400, Note_on_c, 9, 66, 87
3, 74401, Note_on_c, 9, 66, 0
3, 74401, Note_on_c, 9, 64, 0
3, 74448, Note_on_c, 9, 64, 77
3, 74449, Note_on_c, 9, 64, 0
3, 74496, Note_on_c, 9, 60, 70
3, 74496, Note_on_c, 9, 65, 70
3, 74497, Note_on_c, 9, 65, 0
3, 74497, Note_on_c, 9, 60, 0
3, 74592, Note_on_c, 9, 61, 70
3, 74592, Note_on_c, 9, 65, 80
3, 74593, Note_on_c, 9, 65, 0
3, 74593, Note_on_c, 9, 61, 0
3, 74688, Note_on_c, 9, 60, 70
3, 74689, Note_on_c, 9, 60, 0
3, 74736, Note_on_c, 9, 61, 70
3, 74736, Note_on_c, 9, 65, 70
3, 74737, Note_on_c, 9, 65, 0
3, 74737, Note_on_c, 9, 61, 0
3, 74760, Note_on_c, 9, 65, 70
3, 74761, Note_on_c, 9, 65, 0
3, 74784, Note_on_c, 9, 64, 77
3, 74784, Note_on_c, 9, 65, 70
3, 74785, Note_on_c, 9, 65, 0
3, 74785, Note_on_c, 9, 64, 0
3, 74808, Note_on_c, 9, 65, 71
3, 74809, Note_on_c, 9, 65, 0
3, 74832, Note_on_c, 9, 64, 77
3, 74832, Note_on_c, 9, 65, 79
3, 74833, Note_on_c, 9, 65, 0
3, 74833, Note_on_c, 9, 64, 0
3, 74880, Note_on_c, 9, 63, 77
3, 74881, Note_on_c, 9, 63, 0
3, 74976, Note_on_c, 9, 62, 77
3, 74977, Note_on_c, 9, 62, 0
3, 75024, Note_on_c, 9, 63, 77
3, 75025, Note_on_c, 9, 63, 0
3, 75120, Note_on_c, 9, 62, 77
3, 75121, Note_on_c, 9, 62, 0
3, 75168, Note_on_c, 9, 64, 77
3, 75169, Note_on_c, 9, 64, 0
3, 75216, Note_on_c, 9, 64, 77
3, 75216, Note_on_c, 9, 66, 58
3, 75217, Note_on_c, 9, 66, 0
3, 75217, Note_on_c, 9, 64, 0
3, 75264, Note_on_c, 9, 65, 80
3, 75265, Note_on_c, 9, 65, 0
3, 75312, Note_on_c, 9, 61, 70
3, 75313, Note_on_c, 9, 61, 0
3, 75360, Note_on_c, 9, 60, 70
3, 75360, Note_on_c, 9, 65, 70
3, 75361, Note_on_c, 9, 65, 0
3, 75361, Note_on_c, 9, 60, 0
3, 75456, Note_on_c, 9, 60, 70
3, 75456, Note_on_c, 9, 65, 70
3, 75457, Note_on_c, 9, 65, 0
3, 75457, Note_on_c, 9, 60, 0
3, 75504, Note_on_c, 9, 61, 70
3, 75505, Note_on_c, 9, 61, 0
3, 75552, Note_on_c, 9, 64, 77
3, 75553, Note_on_c, 9, 64, 0
3, 75600, Note_on_c, 9, 64, 77
3, 75600, Note_on_c, 9, 65, 70
3, 75601, Note_on_c, 9, 65, 0
3, 75601, Note_on_c, 9, 64, 0
3, 75648, Note_on_c, 9, 63, 77
3, 75649, Note_on_c, 9, 63, 0
3, 75696, Note_on_c, 9, 65, 70
3, 75697, Note_on_c, 9, 65, 0
3, 75744, Note_on_c, 9, 62, 77
3, 75745, Note_on_c, 9, 62, 0
3, 75792, Note_on_c, 9, 63, 77
3, 75792, Note_on_c, 9, 66, 87
3, 75793, Note_on_c, 9, 66, 0
3, 75793, Note_on_c, 9, 63, 0
3, 75888, Note_on_c, 9, 62, 77
3, 75888, Note_on_c, 9, 66, 70
3, 75889, Note_on_c, 9, 66, 0
3, 75889, Note_on_c, 9, 62, 0
3, 75936, Note_on_c, 9, 64, 77
3, 75937, Note_on_c, 9, 64, 0
3, 75984, Note_on_c, 9, 64, 77
3, 75984, Note_on_c, 9, 66, 57
3, 75985, Note_on_c, 9, 66, 0
3, 75985, Note_on_c, 9, 64, 0
3, 76032, Note_on_c, 9, 60, 70
3, 76032, Note_on_c, 9, 65, 70
3, 76033, Note_on_c, 9, 65, 0
3, 76033, Note_on_c, 9, 60, 0
3, 76128, Note_on_c, 9, 61, 70
3, 76128, Note_on_c, 9, 65, 70
3, 76129, Note_on_c, 9, 65, 0
3, 76129, Note_on_c, 9, 61, 0
3, 76224, Note_on_c, 9, 60, 70
3, 76225, Note_on_c, 9, 60, 0
3, 76272, Note_on_c, 9, 61, 70
3, 76273, Note_on_c, 9, 61, 0
3, 76320, Note_on_c, 9, 64, 77
3, 76321, Note_on_c, 9, 64, 0
3, 76368, Note_on_c, 9, 64, 77
3, 76368, Note_on_c, 9, 65, 80
3, 76369, Note_on_c, 9, 65, 0
3, 76369, Note_on_c, 9, 64, 0
3, 76416, Note_on_c, 9, 63, 77
3, 76417, Note_on_c, 9, 63, 0
3, 76512, Note_on_c, 9, 62, 77
3, 76513, Note_on_c, 9, 62, 0
3, 76560, Note_on_c, 9, 63, 77
3, 76561, Note_on_c, 9, 63, 0
3, 76656, Note_on_c, 9, 62, 77
3, 76657, Note_on_c, 9, 62, 0
3, 76704, Note_on_c, 9, 64, 77
3, 76705, Note_on_c, 9, 64, 0
3, 76752, Note_on_c, 9, 64, 77
3, 76752, Note_on_c, 9, 66, 70
3, 76753, Note_on_c, 9, 66, 0
3, 76753, Note_on_c, 9, 64, 0
3, 76800, Note_on_c, 9, 65, 80
3, 76801, Note_on_c, 9, 65, 0
3, 76848, Note_on_c, 9, 61, 70
3, 76849, Note_on_c, 9, 61, 0
3, 76896, Note_on_c, 9, 60, 70
3, 76896, Note_on_c, 9, 65, 80
3, 76897, Note_on_c, 9, 65, 0
3, 76897, Note_on_c, 9, 60, 0
3, 76992, Note_on_c, 9, 60, 70
3, 76992, Note_on_c, 9, 65, 95
3, 76993, Note_on_c, 9, 65, 0
3, 76993, Note_on_c, 9, 60, 0
3, 77040, Note_on_c, 9, 61, 70
3, 77041, Note_on_c, 9, 61, 0
3, 77088, Note_on_c, 9, 64, 77
3, 77088, Note_on_c, 9, 65, 70
3, 77089, Note_on_c, 9, 65, 0
3, 77089, Note_on_c, 9, 64, 0
3, 77136, Note_on_c, 9, 64, 77
3, 77137, Note_on_c, 9, 64, 0
3, 77184, Note_on_c, 9, 63, 77
3, 77185, Note_on_c, 9, 63, 0
3, 77280, Note_on_c, 9, 62, 77
3, 77281, Note_on_c, 9, 62, 0
3, 77328, Note_on_c, 9, 63, 77
3, 77329, Note_on_c, 9, 63, 0
3, 77424, Note_on_c, 9, 62, 77
3, 77425, Note_on_c, 9, 62, 0
3, 77472, Note_on_c, 9, 64, 77
3, 77473, Note_on_c, 9, 64, 0
3, 77520, Note_on_c, 9, 64, 77
3, 77521, Note_on_c, 9, 64, 0
3, 77568, Note_on_c, 9, 60, 70
3, 77569, Note_on_c, 9, 60, 0
3, 77664, Note_on_c, 9, 61, 70
3, 77664, Note_on_c, 9, 65, 70
3, 77665, Note_on_c, 9, 65, 0
3, 77665, Note_on_c, 9, 61, 0
3, 77760, Note_on_c, 9, 60, 70
3, 77761, Note_on_c, 9, 60, 0
3, 77808, Note_on_c, 9, 61, 70
3, 77808, Note_on_c, 9, 65, 70
3, 77809, Note_on_c, 9, 65, 0
3, 77809, Note_on_c, 9, 61, 0
3, 77856, Note_on_c, 9, 64, 77
3, 77857, Note_on_c, 9, 64, 0
3, 77904, Note_on_c, 9, 64, 77
3, 77905, Note_on_c, 9, 64, 0
3, 77952, Note_on_c, 9, 63, 77
3, 77952, Note_on_c, 9, 65, 70
3, 77953, Note_on_c, 9, 65, 0
3, 77953, Note_on_c, 9, 63, 0
3, 78048, Note_on_c, 9, 62, 77
3, 78049, Note_on_c, 9, 62, 0
3, 78096, Note_on_c, 9, 63, 77
3, 78097, Note_on_c, 9, 63, 0
3, 78192, Note_on_c, 9, 62, 77
3, 78193, Note_on_c, 9, 62, 0
3, 78240, Note_on_c, 9, 64, 77
3, 78240, Note_on_c, 9, 66, 57
3, 78241, Note_on_c, 9, 66, 0
3, 78241, Note_on_c, 9, 64, 0
3, 78288, Note_on_c, 9, 64, 77
3, 78289, Note_on_c, 9, 64, 0
3, 78336, Note_on_c, 9, 66, 60
3, 78337, Note_on_c, 9, 66, 0
3, 78384, Note_on_c, 9, 61, 70
3, 78385, Note_on_c, 9, 61, 0
3, 78432, Note_on_c, 9, 60, 70
3, 78432, Note_on_c, 9, 66, 57
3, 78433, Note_on_c, 9, 66, 0
3, 78433, Note_on_c, 9, 60, 0
3, 78528, Note_on_c, 9, 60, 70
3, 78528, Note_on_c, 9, 66, 60
3, 78529, Note_on_c, 9, 66, 0
3, 78529, Note_on_c, 9, 60, 0
3, 78576, Note_on_c, 9, 61, 70
3, 78576, Note_on_c, 9, 66, 57
3, 78577, Note_on_c, 9, 66, 0
3, 78577, Note_on_c, 9, 61, 0
3, 78624, Note_on_c, 9, 64, 77
3, 78625, Note_on_c, 9, 64, 0
3, 78672, Note_on_c, 9, 64, 77
3, 78672, Note_on_c, 9, 66, 93
3, 78673, Note_on_c, 9, 66, 0
3, 78673, Note_on_c, 9, 64, 0
3, 78720, Note_on_c, 9, 63, 77
3, 78721, Note_on_c, 9, 63, 0
3, 78768, Note_on_c, 9, 65, 70
3, 78769, Note_on_c, 9, 65, 0
3, 78816, Note_on_c, 9, 62, 77
3, 78817, Note_on_c, 9, 62, 0
3, 78864, Note_on_c, 9, 63, 77
3, 78865, Note_on_c, 9, 63, 0
3, 78960, Note_on_c, 9, 62, 77
3, 78961, Note_on_c, 9, 62, 0
3, 79008, Note_on_c, 9, 64, 77
3, 79008, Note_on_c, 9, 65, 70
3, 79009, Note_on_c, 9, 65, 0
3, 79009, Note_on_c, 9, 64, 0
3, 79032, Note_on_c, 9, 65, 70
3, 79033, Note_on_c, 9, 65, 0
3, 79056, Note_on_c, 9, 64, 77
3, 79056, Note_on_c, 9, 65, 70
3, 79057, Note_on_c, 9, 65, 0
3, 79057, Note_on_c, 9, 64, 0
3, 79080, Note_on_c, 9, 65, 70
3, 79081, Note_on_c, 9, 65, 0
3, 79104, Note_on_c, 9, 60, 70
3, 79104, Note_on_c, 9, 65, 84
3, 79105, Note_on_c, 9, 65, 0
3, 79105, Note_on_c, 9, 60, 0
3, 79200, Note_on_c, 9, 61, 70
3, 79200, Note_on_c, 9, 65, 70
3, 79201, Note_on_c, 9, 65, 0
3, 79201, Note_on_c, 9, 61, 0
3, 79296, Note_on_c, 9, 60, 70
3, 79296, Note_on_c, 9, 65, 70
3, 79297, Note_on_c, 9, 65, 0
3, 79297, Note_on_c, 9, 60, 0
3, 79344, Note_on_c, 9, 61, 70
3, 79345, Note_on_c, 9, 61, 0
3, 79392, Note_on_c, 9, 64, 77
3, 79392, Note_on_c, 9, 66, 60
3, 79393, Note_on_c, 9, 66, 0
3, 79393, Note_on_c, 9, 64, 0
3, 79440, Note_on_c, 9, 64, 77
3, 79440, Note_on_c, 9, 65, 70
3, 79441, Note_on_c, 9, 65, 0
3, 79441, Note_on_c, 9, 64, 0
3, 79488, Note_on_c, 9, 63, 77
3, 79489, Note_on_c, 9, 63, 0
3, 79536, Note_on_c, 9, 65, 70
3, 79537, Note_on_c, 9, 65, 0
3, 79584, Note_on_c, 9, 62, 77
3, 79585, Note_on_c, 9, 62, 0
3, 79632, Note_on_c, 9, 63, 77
3, 79633, Note_on_c, 9, 63, 0
3, 79728, Note_on_c, 9, 62, 77
3, 79729, Note_on_c, 9, 62, 0
3, 79776, Note_on_c, 9, 64, 77
3, 79777, Note_on_c, 9, 64, 0
3, 79824, Note_on_c, 9, 64, 77
3, 79824, Note_on_c, 9, 65, 70
3, 79825, Note_on_c, 9, 65, 0
3, 79825, Note_on_c, 9, 64, 0
3, 79920, Note_on_c, 9, 61, 70
3, 79920, Note_on_c, 9, 65, 70
3, 79921, Note_on_c, 9, 65, 0
3, 79921, Note_on_c, 9, 61, 0
3, 79968, Note_on_c, 9, 60, 70
3, 79969, Note_on_c, 9, 60, 0
3, 80064, Note_on_c, 9, 60, 70
3, 80064, Note_on_c, 9, 65, 70
3, 80065, Note_on_c, 9, 65, 0
3, 80065, Note_on_c, 9, 60, 0
3, 80112, Note_on_c, 9, 61, 70
3, 80113, Note_on_c, 9, 61, 0
3, 80160, Note_on_c, 9, 64, 77
3, 80160, Note_on_c, 9, 65, 70
3, 80161, Note_on_c, 9, 65, 0
3, 80161, Note_on_c, 9, 64, 0
3, 80208, Note_on_c, 9, 64, 77
3, 80209, Note_on_c, 9, 64, 0
3, 80256, Note_on_c, 9, 63, 77
3, 80256, Note_on_c, 9, 65, 70
3, 80257, Note_on_c, 9, 65, 0
3, 80257, Note_on_c, 9, 63, 0
3, 80352, Note_on_c, 9, 62, 77
3, 80352, Note_on_c, 9, 65, 70
3, 80353, Note_on_c, 9, 65, 0
3, 80353, Note_on_c, 9, 62, 0
3, 80400, Note_on_c, 9, 63, 77
3, 80401, Note_on_c, 9, 63, 0
3, 80448, Note_on_c, 9, 65, 70
3, 80449, Note_on_c, 9, 65, 0
3, 80496, Note_on_c, 9, 62, 77
3, 80497, Note_on_c, 9, 62, 0
3, 80544, Note_on_c, 9, 64, 77
3, 80545, Note_on_c, 9, 64, 0
3, 80592, Note_on_c, 9, 64, 77
3, 80592, Note_on_c, 9, 66, 57
3, 80593, Note_on_c, 9, 66, 0
3, 80593, Note_on_c, 9, 64, 0
3, 80640, Note_on_c, 9, 60, 70
3, 80640, Note_on_c, 9, 66, 60
3, 80641, Note_on_c, 9, 66, 0
3, 80641, Note_on_c, 9, 60, 0
3, 80736, Note_on_c, 9, 61, 70
3, 80736, Note_on_c, 9, 66, 75
3, 80737, Note_on_c, 9, 66, 0
3, 80737, Note_on_c, 9, 61, 0
3, 80832, Note_on_c, 9, 60, 70
3, 80832, Note_on_c, 9, 66, 73
3, 80833, Note_on_c, 9, 66, 0
3, 80833, Note_on_c, 9, 60, 0
3, 80880, Note_on_c, 9, 61, 70
3, 80881, Note_on_c, 9, 61, 0
3, 80928, Note_on_c, 9, 64, 77
3, 80929, Note_on_c, 9, 64, 0
3, 80976, Note_on_c, 9, 64, 77
3, 80976, Note_on_c, 9, 66, 71
3, 80977, Note_on_c, 9, 66, 0
3, 80977, Note_on_c, 9, 64, 0
3, 81024, Note_on_c, 9, 63, 77
3, 81025, Note_on_c, 9, 63, 0
3, 81072, Note_on_c, 9, 65, 83
3, 81073, Note_on_c, 9, 65, 0
3, 81120, Note_on_c, 9, 62, 77
3, 81121, Note_on_c, 9, 62, 0
3, 81168, Note_on_c, 9, 63, 77
3, 81169, Note_on_c, 9, 63, 0
3, 81216, Note_on_c, 9, 66, 71
3, 81217, Note_on_c, 9, 66, 0
3, 81264, Note_on_c, 9, 62, 77
3, 81265, Note_on_c, 9, 62, 0
3, 81312, Note_on_c, 9, 64, 77
3, 81312, Note_on_c, 9, 66, 72
3, 81313, Note_on_c, 9, 66, 0
3, 81313, Note_on_c, 9, 64, 0
3, 81360, Note_on_c, 9, 64, 77
3, 81361, Note_on_c, 9, 64, 0
3, 81408, Note_on_c, 9, 65, 87
3, 81409, Note_on_c, 9, 65, 0
3, 81456, Note_on_c, 9, 61, 70
3, 81457, Note_on_c, 9, 61, 0
3, 81504, Note_on_c, 9, 60, 70
3, 81504, Note_on_c, 9, 65, 88
3, 81505, Note_on_c, 9, 65, 0
3, 81505, Note_on_c, 9, 60, 0
3, 81600, Note_on_c, 9, 60, 70
3, 81600, Note_on_c, 9, 65, 70
3, 81601, Note_on_c, 9, 65, 0
3, 81601, Note_on_c, 9, 60, 0
3, 81648, Note_on_c, 9, 61, 70
3, 81648, Note_on_c, 9, 66, 77
3, 81649, Note_on_c, 9, 66, 0
3, 81649, Note_on_c, 9, 61, 0
3, 81696, Note_on_c, 9, 64, 77
3, 81697, Note_on_c, 9, 64, 0
3, 81744, Note_on_c, 9, 64, 77
3, 81745, Note_on_c, 9, 64, 0
3, 81792, Note_on_c, 9, 63, 77
3, 81793, Note_on_c, 9, 63, 0
3, 81840, Note_on_c, 9, 65, 70
3, 81841, Note_on_c, 9, 65, 0
3, 81864, Note_on_c, 9, 65, 70
3, 81865, Note_on_c, 9, 65, 0
3, 81888, Note_on_c, 9, 62, 77
3, 81888, Note_on_c, 9, 65, 70
3, 81889, Note_on_c, 9, 65, 0
3, 81889, Note_on_c, 9, 62, 0
3, 81912, Note_on_c, 9, 65, 70
3, 81913, Note_on_c, 9, 65, 0
3, 81936, Note_on_c, 9, 63, 77
3, 81936, Note_on_c, 9, 65, 70
3, 81937, Note_on_c, 9, 65, 0
3, 81937, Note_on_c, 9, 63, 0
3, 81984, Note_on_c, 9, 66, 77
3, 81985, Note_on_c, 9, 66, 0
3, 82032, Note_on_c, 9, 62, 77
3, 82033, Note_on_c, 9, 62, 0
3, 82080, Note_on_c, 9, 64, 77
3, 82080, Note_on_c, 9, 66, 77
3, 82081, Note_on_c, 9, 66, 0
3, 82081, Note_on_c, 9, 64, 0
3, 82128, Note_on_c, 9, 64, 77
3, 82129, Note_on_c, 9, 64, 0
3, 82176, Note_on_c, 9, 60, 70
3, 82176, Note_on_c, 9, 65, 70
3, 82177, Note_on_c, 9, 65, 0
3, 82177, Note_on_c, 9, 60, 0
3, 82272, Note_on_c, 9, 61, 70
3, 82272, Note_on_c, 9, 65, 70
3, 82273, Note_on_c, 9, 65, 0
3, 82273, Note_on_c, 9, 61, 0
3, 82368, Note_on_c, 9, 60, 70
3, 82369, Note_on_c, 9, 60, 0
3, 82416, Note_on_c, 9, 61, 70
3, 82417, Note_on_c, 9, 61, 0
3, 82464, Note_on_c, 9, 64, 77
3, 82464, Note_on_c, 9, 66, 57
3, 82465, Note_on_c, 9, 66, 0
3, 82465, Note_on_c, 9, 64, 0
3, 82512, Note_on_c, 9, 64, 77
3, 82512, Note_on_c, 9, 65, 70
3, 82513, Note_on_c, 9, 65, 0
3, 82513, Note_on_c, 9, 64, 0
3, 82560, Note_on_c, 9, 63, 77
3, 82561, Note_on_c, 9, 63, 0
3, 82608, Note_on_c, 9, 65, 70
3, 82609, Note_on_c, 9, 65, 0
3, 82656, Note_on_c, 9, 62, 77
3, 82657, Note_on_c, 9, 62, 0
3, 82704, Note_on_c, 9, 63, 77
3, 82705, Note_on_c, 9, 63, 0
3, 82752, Note_on_c, 9, 65, 70
3, 82753, Note_on_c, 9, 65, 0
3, 82800, Note_on_c, 9, 62, 77
3, 82801, Note_on_c, 9, 62, 0
3, 82848, Note_on_c, 9, 64, 77
3, 82848, Note_on_c, 9, 66, 60
3, 82849, Note_on_c, 9, 66, 0
3, 82849, Note_on_c, 9, 64, 0
3, 82896, Note_on_c, 9, 64, 77
3, 82897, Note_on_c, 9, 64, 0
3, 82944, Note_on_c, 9, 65, 73
3, 82945, Note_on_c, 9, 65, 0
3, 82992, Note_on_c, 9, 61, 70
3, 82993, Note_on_c, 9, 61, 0
3, 83040, Note_on_c, 9, 60, 70
3, 83040, Note_on_c, 9, 65, 72
3, 83041, Note_on_c, 9, 65, 0
3, 83041, Note_on_c, 9, 60, 0
3, 83136, Note_on_c, 9, 60, 70
3, 83136, Note_on_c, 9, 65, 71
3, 83137, Note_on_c, 9, 65, 0
3, 83137, Note_on_c, 9, 60, 0
3, 83184, Note_on_c, 9, 61, 70
3, 83185, Note_on_c, 9, 61, 0
3, 83232, Note_on_c, 9, 64, 77
3, 83232, Note_on_c, 9, 66, 58
3, 83233, Note_on_c, 9, 66, 0
3, 83233, Note_on_c, 9, 64, 0
3, 83280, Note_on_c, 9, 64, 77
3, 83280, Note_on_c, 9, 65, 70
3, 83281, Note_on_c, 9, 65, 0
3, 83281, Note_on_c, 9, 64, 0
3, 83328, Note_on_c, 9, 63, 77
3, 83329, Note_on_c, 9, 63, 0
3, 83376, Note_on_c, 9, 65, 70
3, 83377, Note_on_c, 9, 65, 0
3, 83424, Note_on_c, 9, 62, 77
3, 83425, Note_on_c, 9, 62, 0
3, 83472, Note_on_c, 9, 63, 77
3, 83473, Note_on_c, 9, 63, 0
3, 83520, Note_on_c, 9, 65, 70
3, 83521, Note_on_c, 9, 65, 0
3, 83568, Note_on_c, 9, 62, 77
3, 83569, Note_on_c, 9, 62, 0
3, 83616, Note_on_c, 9, 64, 77
3, 83616, Note_on_c, 9, 66, 57
3, 83617, Note_on_c, 9, 66, 0
3, 83617, Note_on_c, 9, 64, 0
3, 83664, Note_on_c, 9, 64, 77
3, 83665, Note_on_c, 9, 64, 0
3, 83712, Note_on_c, 9, 60, 70
3, 83712, Note_on_c, 9, 66, 57
3, 83713, Note_on_c, 9, 66, 0
3, 83713, Note_on_c, 9, 60, 0
3, 83760, Note_on_c, 9, 66, 57
3, 83761, Note_on_c, 9, 66, 0
3, 83784, Note_on_c, 9, 66, 57
3, 83785, Note_on_c, 9, 66, 0
3, 83808, Note_on_c, 9, 61, 70
3, 83808, Note_on_c, 9, 66, 57
3, 83809, Note_on_c, 9, 66, 0
3, 83809, Note_on_c, 9, 61, 0
3, 83832, Note_on_c, 9, 66, 57
3, 83833, Note_on_c, 9, 66, 0
3, 83904, Note_on_c, 9, 60, 70
3, 83904, Note_on_c, 9, 66, 74
3, 83905, Note_on_c, 9, 66, 0
3, 83905, Note_on_c, 9, 60, 0
3, 83952, Note_on_c, 9, 61, 70
3, 83953, Note_on_c, 9, 61, 0
3, 84000, Note_on_c, 9, 64, 77
3, 84001, Note_on_c, 9, 64, 0
3, 84048, Note_on_c, 9, 64, 77
3, 84048, Note_on_c, 9, 66, 77
3, 84049, Note_on_c, 9, 66, 0
3, 84049, Note_on_c, 9, 64, 0
3, 84072, Note_on_c, 9, 66, 64
3, 84073, Note_on_c, 9, 66, 0
3, 84096, Note_on_c, 9, 63, 77
3, 84096, Note_on_c, 9, 66, 57
3, 84097, Note_on_c, 9, 66, 0
3, 84097, Note_on_c, 9, 63, 0
3, 84120, Note_on_c, 9, 66, 57
3, 84121, Note_on_c, 9, 66, 0
3, 84144, Note_on_c, 9, 66, 57
3, 84145, Note_on_c, 9, 66, 0
3, 84168, Note_on_c, 9, 66, 57
3, 84169, Note_on_c, 9, 66, 0
3, 84192, Note_on_c, 9, 62, 77
3, 84192, Note_on_c, 9, 66, 57
3, 84193, Note_on_c, 9, 66, 0
3, 84193, Note_on_c, 9, 62, 0
3, 84216, Note_on_c, 9, 66, 57
3, 84217, Note_on_c, 9, 66, 0
3, 84240, Note_on_c, 9, 63, 77
3, 84241, Note_on_c, 9, 63, 0
3, 84336, Note_on_c, 9, 62, 77
3, 84337, Note_on_c, 9, 62, 0
3, 84384, Note_on_c, 9, 64, 77
3, 84385, Note_on_c, 9, 64, 0
3, 84432, Note_on_c, 9, 64, 77
3, 84432, Note_on_c, 9, 65, 70
3, 84433, Note_on_c, 9, 65, 0
3, 84433, Note_on_c, 9, 64, 0
3, 84480, Note_on_c, 9, 66, 60
3, 84481, Note_on_c, 9, 66, 0
3, 84528, Note_on_c, 9, 61, 70
3, 84529, Note_on_c, 9, 61, 0
3, 84576, Note_on_c, 9, 60, 70
3, 84576, Note_on_c, 9, 66, 60
3, 84577, Note_on_c, 9, 66, 0
3, 84577, Note_on_c, 9, 60, 0
3, 84672, Note_on_c, 9, 60, 70
3, 84672, Note_on_c, 9, 66, 77
3, 84673, Note_on_c, 9, 66, 0
3, 84673, Note_on_c, 9, 60, 0
3, 84720, Note_on_c, 9, 61, 70
3, 84721, Note_on_c, 9, 61, 0
3, 84768, Note_on_c, 9, 64, 77
3, 84769, Note_on_c, 9, 64, 0
3, 84816, Note_on_c, 9, 64, 77
3, 84816, Note_on_c, 9, 66, 77
3, 84817, Note_on_c, 9, 66, 0
3, 84817, Note_on_c, 9, 64, 0
3, 84864, Note_on_c, 9, 63, 77
3, 84865, Note_on_c, 9, 63, 0
3, 84912, Note_on_c, 9, 65, 70
3, 84913, Note_on_c, 9, 65, 0
3, 84960, Note_on_c, 9, 62, 77
3, 84961, Note_on_c, 9, 62, 0
3, 85008, Note_on_c, 9, 63, 77
3, 85009, Note_on_c, 9, 63, 0
3, 85104, Note_on_c, 9, 62, 77
3, 85105, Note_on_c, 9, 62, 0
3, 85152, Note_on_c, 9, 64, 77
3, 85153, Note_on_c, 9, 64, 0
3, 85200, Note_on_c, 9, 64, 77
3, 85200, Note_on_c, 9, 65, 70
3, 85201, Note_on_c, 9, 65, 0
3, 85201, Note_on_c, 9, 64, 0
3, 85248, Note_on_c, 9, 60, 70
3, 85248, Note_on_c, 9, 66, 60
3, 85249, Note_on_c, 9, 66, 0
3, 85249, Note_on_c, 9, 60, 0
3, 85344, Note_on_c, 9, 61, 70
3, 85344, Note_on_c, 9, 66, 57
3, 85345, Note_on_c, 9, 66, 0
3, 85345, Note_on_c, 9, 61, 0
3, 85440, Note_on_c, 9, 60, 70
3, 85440, Note_on_c, 9, 66, 77
3, 85441, Note_on_c, 9, 66, 0
3, 85441, Note_on_c, 9, 60, 0
3, 85488, Note_on_c, 9, 61, 70
3, 85489, Note_on_c, 9, 61, 0
3, 85536, Note_on_c, 9, 64, 77
3, 85537, Note_on_c, 9, 64, 0
3, 85584, Note_on_c, 9, 64, 77
3, 85584, Note_on_c, 9, 66, 77
3, 85585, Note_on_c, 9, 66, 0
3, 85585, Note_on_c, 9, 64, 0
3, 85632, Note_on_c, 9, 63, 77
3, 85632, Note_on_c, 9, 66, 75
3, 85633, Note_on_c, 9, 66, 0
3, 85633, Note_on_c, 9, 63, 0
3, 85656, Note_on_c, 9, 66, 66
3, 85657, Note_on_c, 9, 66, 0
3, 85680, Note_on_c, 9, 66, 57
3, 85681, Note_on_c, 9, 66, 0
3, 85704, Note_on_c, 9, 66, 57
3, 85705, Note_on_c, 9, 66, 0
3, 85728, Note_on_c, 9, 62, 77
3, 85728, Note_on_c, 9, 66, 57
3, 85729, Note_on_c, 9, 66, 0
3, 85729, Note_on_c, 9, 62, 0
3, 85752, Note_on_c, 9, 66, 57
3, 85753, Note_on_c, 9, 66, 0
3, 85776, Note_on_c, 9, 63, 77
3, 85777, Note_on_c, 9, 63, 0
3, 85872, Note_on_c, 9, 62, 77
3, 85872, Note_on_c, 9, 65, 70
3, 85873, Note_on_c, 9, 65, 0
3, 85873, Note_on_c, 9, 62, 0
3, 85896, Note_on_c, 9, 65, 70
3, 85897, Note_on_c, 9, 65, 0
3, 85920, Note_on_c, 9, 64, 77
3, 85920, Note_on_c, 9, 65, 70
3, 85921, Note_on_c, 9, 65, 0
3, 85921, Note_on_c, 9, 64, 0
3, 85944, Note_on_c, 9, 65, 70
3, 85945, Note_on_c, 9, 65, 0
3, 85968, Note_on_c, 9, 64, 77
3, 85968, Note_on_c, 9, 65, 70
3, 85969, Note_on_c, 9, 65, 0
3, 85969, Note_on_c, 9, 64, 0
3, 86064, Note_on_c, 9, 61, 70
3, 86064, Note_on_c, 9, 65, 70
3, 86065, Note_on_c, 9, 65, 0
3, 86065, Note_on_c, 9, 61, 0
3, 86112, Note_on_c, 9, 60, 70
3, 86113, Note_on_c, 9, 60, 0
3, 86160, Note_on_c, 9, 66, 57
3, 86161, Note_on_c, 9, 66, 0
3, 86208, Note_on_c, 9, 60, 70
3, 86208, Note_on_c, 9, 65, 70
3, 86209, Note_on_c, 9, 65, 0
3, 86209, Note_on_c, 9, 60, 0
3, 86256, Note_on_c, 9, 61, 70
3, 86257, Note_on_c, 9, 61, 0
3, 86304, Note_on_c, 9, 64, 77
3, 86304, Note_on_c, 9, 66, 57
3, 86305, Note_on_c, 9, 66, 0
3, 86305, Note_on_c, 9, 64, 0
3, 86352, Note_on_c, 9, 64, 77
3, 86352, Note_on_c, 9, 65, 70
3, 86353, Note_on_c, 9, 65, 0
3, 86353, Note_on_c, 9, 64, 0
3, 86400, Note_on_c, 9, 63, 77
3, 86401, Note_on_c, 9, 63, 0
3, 86448, Note_on_c, 9, 65, 70
3, 86449, Note_on_c, 9, 65, 0
3, 86496, Note_on_c, 9, 62, 77
3, 86497, Note_on_c, 9, 62, 0
3, 86544, Note_on_c, 9, 63, 77
3, 86544, Note_on_c, 9, 66, 57
3, 86545, Note_on_c, 9, 66, 0
3, 86545, Note_on_c, 9, 63, 0
3, 86592, Note_on_c, 9, 65, 70
3, 86593, Note_on_c, 9, 65, 0
3, 86640, Note_on_c, 9, 62, 77
3, 86641, Note_on_c, 9, 62, 0
3, 86688, Note_on_c, 9, 64, 77
3, 86688, Note_on_c, 9, 66, 77
3, 86689, Note_on_c, 9, 66, 0
3, 86689, Note_on_c, 9, 64, 0
3, 86736, Note_on_c, 9, 64, 77
3, 86737, Note_on_c, 9, 64, 0
3, 86784, Note_on_c, 9, 60, 70
3, 86784, Note_on_c, 9, 65, 70
3, 86785, Note_on_c, 9, 65, 0
3, 86785, Note_on_c, 9, 60, 0
3, 86880, Note_on_c, 9, 61, 70
3, 86880, Note_on_c, 9, 65, 70
3, 86881, Note_on_c, 9, 65, 0
3, 86881, Note_on_c, 9, 61, 0
3, 86976, Note_on_c, 9, 60, 70
3, 86977, Note_on_c, 9, 60, 0
3, 87024, Note_on_c, 9, 61, 70
3, 87024, Note_on_c, 9, 65, 70
3, 87025, Note_on_c, 9, 65, 0
3, 87025, Note_on_c, 9, 61, 0
3, 87048, Note_on_c, 9, 65, 70
3, 87049, Note_on_c, 9, 65, 0
3, 87072, Note_on_c, 9, 64, 77
3, 87072, Note_on_c, 9, 65, 70
3, 87073, Note_on_c, 9, 65, 0
3, 87073, Note_on_c, 9, 64, 0
3, 87096, Note_on_c, 9, 65, 70
3, 87097, Note_on_c, 9, 65, 0
3, 87120, Note_on_c, 9, 64, 77
3, 87120, Note_on_c, 9, 65, 70
3, 87121, Note_on_c, 9, 65, 0
3, 87121, Note_on_c, 9, 64, 0
3, 87168, Note_on_c, 9, 63, 77
3, 87169, Note_on_c, 9, 63, 0
3, 87264, Note_on_c, 9, 62, 77
3, 87265, Note_on_c, 9, 62, 0
3, 87312, Note_on_c, 9, 63, 77
3, 87313, Note_on_c, 9, 63, 0
3, 87408, Note_on_c, 9, 62, 77
3, 87409, Note_on_c, 9, 62, 0
3, 87456, Note_on_c, 9, 64, 77
3, 87457, Note_on_c, 9, 64, 0
3, 87504, Note_on_c, 9, 64, 77
3, 87504, Note_on_c, 9, 66, 57
3, 87505, Note_on_c, 9, 66, 0
3, 87505, Note_on_c, 9, 64, 0
3, 87552, Note_on_c, 9, 65, 70
3, 87553, Note_on_c, 9, 65, 0
3, 87600, Note_on_c, 9, 61, 70
3, 87601, Note_on_c, 9, 61, 0
3, 87648, Note_on_c, 9, 60, 70
3, 87648, Note_on_c, 9, 65, 70
3, 87649, Note_on_c, 9, 65, 0
3, 87649, Note_on_c, 9, 60, 0
3, 87744, Note_on_c, 9, 60, 70
3, 87744, Note_on_c, 9, 65, 70
3, 87745, Note_on_c, 9, 65, 0
3, 87745, Note_on_c, 9, 60, 0
3, 87792, Note_on_c, 9, 61, 70
3, 87793, Note_on_c, 9, 61, 0
3, 87840, Note_on_c, 9, 64, 77
3, 87841, Note_on_c, 9, 64, 0
3, 87888, Note_on_c, 9, 64, 77
3, 87888, Note_on_c, 9, 65, 70
3, 87889, Note_on_c, 9, 65, 0
3, 87889, Note_on_c, 9, 64, 0
3, 87936, Note_on_c, 9, 63, 77
3, 87937, Note_on_c, 9, 63, 0
3, 87984, Note_on_c, 9, 65, 70
3, 87985, Note_on_c, 9, 65, 0
3, 88032, Note_on_c, 9, 62, 77
3, 88033, Note_on_c, 9, 62, 0
3, 88080, Note_on_c, 9, 63, 77
3, 88080, Note_on_c, 9, 66, 77
3, 88081, Note_on_c, 9, 66, 0
3, 88081, Note_on_c, 9, 63, 0
3, 88176, Note_on_c, 9, 62, 77
3, 88176, Note_on_c, 9, 66, 60
3, 88177, Note_on_c, 9, 66, 0
3, 88177, Note_on_c, 9, 62, 0
3, 88224, Note_on_c, 9, 64, 77
3, 88225, Note_on_c, 9, 64, 0
3, 88272, Note_on_c, 9, 64, 77
3, 88272, Note_on_c, 9, 66, 57
3, 88273, Note_on_c, 9, 66, 0
3, 88273, Note_on_c, 9, 64, 0
3, 88320, Note_on_c, 9, 60, 70
3, 88320, Note_on_c, 9, 65, 70
3, 88321, Note_on_c, 9, 65, 0
3, 88321, Note_on_c, 9, 60, 0
3, 88416, Note_on_c, 9, 61, 70
3, 88416, Note_on_c, 9, 65, 70
3, 88417, Note_on_c, 9, 65, 0
3, 88417, Note_on_c, 9, 61, 0
3, 88512, Note_on_c, 9, 60, 70
3, 88513, Note_on_c, 9, 60, 0
3, 88560, Note_on_c, 9, 61, 70
3, 88561, Note_on_c, 9, 61, 0
3, 88608, Note_on_c, 9, 64, 77
3, 88609, Note_on_c, 9, 64, 0
3, 88656, Note_on_c, 9, 64, 77
3, 88656, Note_on_c, 9, 65, 70
3, 88657, Note_on_c, 9, 65, 0
3, 88657, Note_on_c, 9, 64, 0
3, 88704, Note_on_c, 9, 63, 77
3, 88705, Note_on_c, 9, 63, 0
3, 88800, Note_on_c, 9, 62, 77
3, 88801, Note_on_c, 9, 62, 0
3, 88848, Note_on_c, 9, 63, 77
3, 88849, Note_on_c, 9, 63, 0
3, 88944, Note_on_c, 9, 62, 77
3, 88945, Note_on_c, 9, 62, 0
3, 88992, Note_on_c, 9, 64, 77
3, 88993, Note_on_c, 9, 64, 0
3, 89040, Note_on_c, 9, 64, 77
3, 89040, Note_on_c, 9, 66, 60
3, 89041, Note_on_c, 9, 66, 0
3, 89041, Note_on_c, 9, 64, 0
3, 89088, Note_on_c, 9, 65, 70
3, 89089, Note_on_c, 9, 65, 0
3, 89184, Note_on_c, 9, 65, 70
3, 89185, Note_on_c, 9, 65, 0
3, 89280, Note_on_c, 9, 65, 85
3, 89281, Note_on_c, 9, 65, 0
3, 89376, Note_on_c, 9, 65, 70
3, 89377, Note_on_c, 9, 65, 0
3, 91200, Note_on_c, 9, 65, 70
3, 91201, Note_on_c, 9, 65, 0
3, 91224, Note_on_c, 9, 65, 70
3, 91225, Note_on_c, 9, 65, 0
3, 91248, Note_on_c, 9, 65, 70
3, 91249, Note_on_c, 9, 65, 0
3, 91272, Note_on_c, 9, 65, 70
3, 91273, Note_on_c, 9, 65, 0
3, 92158, Control_c, 9, 123, 0
3, 92158, End_track
4, 0, Start_track
4, 0, MIDI_port, 0
4, 0, Control_c, 0, 121, 0
4, 2, Control_c, 0, 67, 0
4, 3, Control_c, 0, 64, 0
4, 4, Control_c, 0, 100, 0
4, 5, Control_c, 0, 101, 0
4, 6, Control_c, 0, 6, 12
4, 7, Control_c, 0, 11, 127
4, 8, Control_c, 0, 1, 0
4, 10, Control_c, 0, 11, 127
4, 12, Pitch_bend_c, 0, 8192
4, 192, Control_c, 0, 0, 0
4, 193, Control_c, 0, 32, 0
4, 194, Program_c, 0, 25
4, 195, Control_c, 0, 7, 88
4, 195, Control_c, 0, 10, 64
4, 584, Control_c, 0, 11, 127
4, 586, Control_c, 0, 91, 24
4, 588, Control_c, 0, 93, 0
4, 3456, Note_on_c, 0, 57, 83
4, 3456, Note_on_c, 0, 64, 80
4, 3456, Note_on_c, 0, 61, 95
4, 3552, Note_on_c, 0, 61, 0
4, 3552, Note_on_c, 0, 64, 0
4, 3552, Note_on_c, 0, 57, 0
4, 3552, Note_on_c, 0, 61, 80
4, 3552, Note_on_c, 0, 57, 83
4, 3552, Note_on_c, 0, 64, 80
4, 3600, Note_on_c, 0, 64, 0
4, 3600, Note_on_c, 0, 57, 0
4, 3600, Note_on_c, 0, 61, 0
4, 3600, Note_on_c, 0, 57, 100
4, 3600, Note_on_c, 0, 61, 95
4, 3600, Note_on_c, 0, 64, 95
4, 3648, Note_on_c, 0, 64, 0
4, 3648, Note_on_c, 0, 61, 0
4, 3648, Note_on_c, 0, 57, 0
4, 3648, Note_on_c, 0, 61, 124
4, 3648, Note_on_c, 0, 57, 100
4, 3648, Note_on_c, 0, 64, 95
4, 3696, Note_on_c, 0, 64, 0
4, 3696, Note_on_c, 0, 57, 0
4, 3696, Note_on_c, 0, 61, 0
4, 3744, Note_on_c, 0, 55, 116
4, 3744, Note_on_c, 0, 62, 100
4, 3744, Note_on_c, 0, 59, 112
4, 3792, Note_on_c, 0, 59, 0
4, 3792, Note_on_c, 0, 62, 0
4, 3792, Note_on_c, 0, 55, 0
4, 3936, Note_on_c, 0, 59, 80
4, 3936, Note_on_c, 0, 62, 61
4, 3936, Note_on_c, 0, 55, 71
4, 3984, Note_on_c, 0, 55, 0
4, 3984, Note_on_c, 0, 62, 0
4, 3984, Note_on_c, 0, 59, 0
4, 3984, Note_on_c, 0, 55, 100
4, 3984, Note_on_c, 0, 59, 80
4, 3984, Note_on_c, 0, 62, 100
4, 4032, Note_on_c, 0, 62, 0
4, 4032, Note_on_c, 0, 59, 0
4, 4032, Note_on_c, 0, 55, 0
4, 4032, Note_on_c, 0, 55, 100
4, 4032, Note_on_c, 0, 59, 80
4, 4032, Note_on_c, 0, 62, 83
4, 4080, Note_on_c, 0, 62, 0
4, 4080, Note_on_c, 0, 59, 0
4, 4080, Note_on_c, 0, 55, 0
4, 4128, Note_on_c, 0, 59, 80
4, 4128, Note_on_c, 0, 62, 71
4, 4128, Note_on_c, 0, 55, 71
4, 4176, Note_on_c, 0, 55, 0
4, 4176, Note_on_c, 0, 62, 0
4, 4176, Note_on_c, 0, 59, 0
4, 4176, Note_on_c, 0, 55, 100
4, 4176, Note_on_c, 0, 59, 95
4, 4176, Note_on_c, 0, 62, 100
4, 4224, Note_on_c, 0, 62, 0
4, 4224, Note_on_c, 0, 59, 0
4, 4224, Note_on_c, 0, 55, 0
4, 4224, Note_on_c, 0, 55, 100
4, 4224, Note_on_c, 0, 59, 112
4, 4224, Note_on_c, 0, 62, 116
4, 4272, Note_on_c, 0, 62, 0
4, 4272, Note_on_c, 0, 59, 0
4, 4272, Note_on_c, 0, 55, 0
4, 4320, Note_on_c, 0, 59, 80
4, 4320, Note_on_c, 0, 62, 71
4, 4320, Note_on_c, 0, 55, 100
4, 4368, Note_on_c, 0, 55, 0
4, 4368, Note_on_c, 0, 62, 0
4, 4368, Note_on_c, 0, 59, 0
4, 4368, Note_on_c, 0, 55, 83
4, 4368, Note_on_c, 0, 62, 71
4, 4368, Note_on_c, 0, 59, 80
4, 4416, Note_on_c, 0, 59, 0
4, 4416, Note_on_c, 0, 62, 0
4, 4416, Note_on_c, 0, 55, 0
4, 4416, Note_on_c, 0, 55, 100
4, 4416, Note_on_c, 0, 62, 83
4, 4416, Note_on_c, 0, 59, 112
4, 4464, Note_on_c, 0, 59, 0
4, 4464, Note_on_c, 0, 62, 0
4, 4464, Note_on_c, 0, 55, 0
4, 4512, Note_on_c, 0, 59, 80
4, 4512, Note_on_c, 0, 55, 83
4, 4512, Note_on_c, 0, 62, 61
4, 4560, Note_on_c, 0, 62, 0
4, 4560, Note_on_c, 0, 55, 0
4, 4560, Note_on_c, 0, 59, 0
4, 4560, Note_on_c, 0, 55, 83
4, 4560, Note_on_c, 0, 62, 83
4, 4560, Note_on_c, 0, 59, 80
4, 4608, Note_on_c, 0, 59, 0
4, 4608, Note_on_c, 0, 62, 0
4, 4608, Note_on_c, 0, 55, 0
4, 4608, Note_on_c, 0, 55, 116
4, 4608, Note_on_c, 0, 59, 112
4, 4608, Note_on_c, 0, 62, 83
4, 4656, Note_on_c, 0, 62, 0
4, 4656, Note_on_c, 0, 59, 0
4, 4656, Note_on_c, 0, 55, 0
4, 4704, Note_on_c, 0, 59, 80
4, 4704, Note_on_c, 0, 55, 71
4, 4704, Note_on_c, 0, 62, 71
4, 4752, Note_on_c, 0, 62, 0
4, 4752, Note_on_c, 0, 55, 0
4, 4752, Note_on_c, 0, 59, 0
4, 4752, Note_on_c, 0, 55, 83
4, 4752, Note_on_c, 0, 59, 95
4, 4752, Note_on_c, 0, 62, 83
4, 4800, Note_on_c, 0, 62, 0
4, 4800, Note_on_c, 0, 59, 0
4, 4800, Note_on_c, 0, 55, 0
4, 4800, Note_on_c, 0, 55, 116
4, 4800, Note_on_c, 0, 59, 112
4, 4800, Note_on_c, 0, 62, 100
4, 4848, Note_on_c, 0, 62, 0
4, 4848, Note_on_c, 0, 59, 0
4, 4848, Note_on_c, 0, 55, 0
4, 4896, Note_on_c, 0, 59, 95
4, 4896, Note_on_c, 0, 55, 83
4, 4896, Note_on_c, 0, 62, 71
4, 4944, Note_on_c, 0, 62, 0
4, 4944, Note_on_c, 0, 55, 0
4, 4944, Note_on_c, 0, 59, 0
4, 4944, Note_on_c, 0, 55, 100
4, 4944, Note_on_c, 0, 59, 80
4, 4944, Note_on_c, 0, 62, 83
4, 4992, Note_on_c, 0, 62, 0
4, 4992, Note_on_c, 0, 59, 0
4, 4992, Note_on_c, 0, 55, 0
4, 4992, Note_on_c, 0, 64, 95
4, 4992, Note_on_c, 0, 61, 95
4, 4992, Note_on_c, 0, 57, 100
4, 5088, Note_on_c, 0, 61, 0
4, 5088, Note_on_c, 0, 64, 0
4, 5088, Note_on_c, 0, 57, 61
4, 5088, Note_on_c, 0, 61, 80
4, 5088, Note_on_c, 0, 64, 80
4, 5136, Note_on_c, 0, 64, 0
4, 5136, Note_on_c, 0, 61, 0
4, 5136, Note_on_c, 0, 57, 0
4, 5136, Note_on_c, 0, 64, 95
4, 5136, Note_on_c, 0, 57, 83
4, 5136, Note_on_c, 0, 61, 80
4, 5184, Note_on_c, 0, 61, 0
4, 5184, Note_on_c, 0, 57, 0
4, 5184, Note_on_c, 0, 64, 0
4, 5184, Note_on_c, 0, 57, 0
4, 5184, Note_on_c, 0, 57, 116
4, 5184, Note_on_c, 0, 64, 80
4, 5184, Note_on_c, 0, 61, 112
4, 5232, Note_on_c, 0, 61, 0
4, 5232, Note_on_c, 0, 64, 0
4, 5232, Note_on_c, 0, 57, 0
4, 5280, Note_on_c, 0, 57, 100
4, 5280, Note_on_c, 0, 66, 80
4, 5280, Note_on_c, 0, 62, 100
4, 5472, Note_on_c, 0, 62, 0
4, 5472, Note_on_c, 0, 66, 0
4, 5472, Note_on_c, 0, 57, 0
4, 5472, Note_on_c, 0, 57, 100
4, 5472, Note_on_c, 0, 66, 80
4, 5472, Note_on_c, 0, 62, 83
4, 5520, Note_on_c, 0, 62, 0
4, 5520, Note_on_c, 0, 66, 0
4, 5520, Note_on_c, 0, 57, 0
4, 5520, Note_on_c, 0, 57, 83
4, 5520, Note_on_c, 0, 66, 80
4, 5520, Note_on_c, 0, 62, 83
4, 5568, Note_on_c, 0, 62, 0
4, 5568, Note_on_c, 0, 66, 0
4, 5568, Note_on_c, 0, 57, 0
4, 5568, Note_on_c, 0, 57, 100
4, 5568, Note_on_c, 0, 62, 116
4, 5568, Note_on_c, 0, 66, 95
4, 5616, Note_on_c, 0, 66, 0
4, 5616, Note_on_c, 0, 62, 0
4, 5616, Note_on_c, 0, 57, 0
4, 5664, Note_on_c, 0, 57, 71
4, 5664, Note_on_c, 0, 62, 83
4, 5664, Note_on_c, 0, 66, 80
4, 5712, Note_on_c, 0, 66, 0
4, 5712, Note_on_c, 0, 62, 0
4, 5712, Note_on_c, 0, 57, 0
4, 5712, Note_on_c, 0, 57, 83
4, 5712, Note_on_c, 0, 66, 80
4, 5712, Note_on_c, 0, 62, 83
4, 5760, Note_on_c, 0, 62, 0
4, 5760, Note_on_c, 0, 66, 0
4, 5760, Note_on_c, 0, 57, 0
4, 5760, Note_on_c, 0, 57, 83
4, 5760, Note_on_c, 0, 66, 95
4, 5760, Note_on_c, 0, 62, 100
4, 5808, Note_on_c, 0, 62, 0
4, 5808, Note_on_c, 0, 66, 0
4, 5808, Note_on_c, 0, 57, 0
4, 5856, Note_on_c, 0, 66, 68
4, 5856, Note_on_c, 0, 62, 83
4, 5856, Note_on_c, 0, 57, 83
4, 5904, Note_on_c, 0, 57, 0
4, 5904, Note_on_c, 0, 62, 0
4, 5904, Note_on_c, 0, 66, 0
4, 5904, Note_on_c, 0, 62, 83
4, 5904, Note_on_c, 0, 57, 83
4, 5904, Note_on_c, 0, 66, 68
4, 5952, Note_on_c, 0, 66, 0
4, 5952, Note_on_c, 0, 57, 0
4, 5952, Note_on_c, 0, 62, 0
4, 5952, Note_on_c, 0, 57, 83
4, 5952, Note_on_c, 0, 66, 80
4, 5952, Note_on_c, 0, 62, 100
4, 6000, Note_on_c, 0, 62, 0
4, 6000, Note_on_c, 0, 66, 0
4, 6000, Note_on_c, 0, 57, 0
4, 6048, Note_on_c, 0, 57, 61
4, 6048, Note_on_c, 0, 62, 71
4, 6048, Note_on_c, 0, 66, 68
4, 6096, Note_on_c, 0, 66, 0
4, 6096, Note_on_c, 0, 62, 0
4, 6096, Note_on_c, 0, 57, 0
4, 6096, Note_on_c, 0, 57, 100
4, 6096, Note_on_c, 0, 66, 95
4, 6096, Note_on_c, 0, 62, 100
4, 6144, Note_on_c, 0, 62, 0
4, 6144, Note_on_c, 0, 66, 0
4, 6144, Note_on_c, 0, 57, 0
4, 6144, Note_on_c, 0, 66, 112
4, 6144, Note_on_c, 0, 57, 83
4, 6144, Note_on_c, 0, 62, 100
4, 6192, Note_on_c, 0, 62, 0
4, 6192, Note_on_c, 0, 57, 0
4, 6192, Note_on_c, 0, 66, 0
4, 6240, Note_on_c, 0, 66, 80
4, 6240, Note_on_c, 0, 57, 83
4, 6240, Note_on_c, 0, 62, 100
4, 6288, Note_on_c, 0, 62, 0
4, 6288, Note_on_c, 0, 57, 0
4, 6288, Note_on_c, 0, 66, 0
4, 6288, Note_on_c, 0, 66, 80
4, 6288, Note_on_c, 0, 57, 83
4, 6288, Note_on_c, 0, 62, 83
4, 6336, Note_on_c, 0, 62, 0
4, 6336, Note_on_c, 0, 57, 0
4, 6336, Note_on_c, 0, 66, 0
4, 6336, Note_on_c, 0, 66, 112
4, 6336, Note_on_c, 0, 62, 100
4, 6336, Note_on_c, 0, 57, 100
4, 6384, Note_on_c, 0, 57, 0
4, 6384, Note_on_c, 0, 62, 0
4, 6384, Note_on_c, 0, 66, 0
4, 6432, Note_on_c, 0, 66, 68
4, 6432, Note_on_c, 0, 57, 83
4, 6432, Note_on_c, 0, 62, 100
4, 6480, Note_on_c, 0, 62, 0
4, 6480, Note_on_c, 0, 57, 0
4, 6480, Note_on_c, 0, 66, 0
4, 6480, Note_on_c, 0, 57, 83
4, 6480, Note_on_c, 0, 66, 80
4, 6480, Note_on_c, 0, 62, 83
4, 6528, Note_on_c, 0, 62, 0
4, 6528, Note_on_c, 0, 66, 0
4, 6528, Note_on_c, 0, 57, 0
4, 6528, Note_on_c, 0, 57, 83
4, 6528, Note_on_c, 0, 64, 80
4, 6528, Note_on_c, 0, 61, 95
4, 6624, Note_on_c, 0, 61, 0
4, 6624, Note_on_c, 0, 64, 0
4, 6624, Note_on_c, 0, 57, 0
4, 6624, Note_on_c, 0, 61, 80
4, 6624, Note_on_c, 0, 57, 83
4, 6624, Note_on_c, 0, 64, 80
4, 6672, Note_on_c, 0, 64, 0
4, 6672, Note_on_c, 0, 57, 0
4, 6672, Note_on_c, 0, 61, 0
4, 6672, Note_on_c, 0, 57, 100
4, 6672, Note_on_c, 0, 61, 95
4, 6672, Note_on_c, 0, 64, 95
4, 6720, Note_on_c, 0, 64, 0
4, 6720, Note_on_c, 0, 61, 0
4, 6720, Note_on_c, 0, 57, 0
4, 6720, Note_on_c, 0, 61, 124
4, 6720, Note_on_c, 0, 57, 100
4, 6720, Note_on_c, 0, 64, 95
4, 6768, Note_on_c, 0, 64, 0
4, 6768, Note_on_c, 0, 57, 0
4, 6768, Note_on_c, 0, 61, 0
4, 6816, Note_on_c, 0, 55, 116
4, 6816, Note_on_c, 0, 62, 100
4, 6816, Note_on_c, 0, 59, 112
4, 6864, Note_on_c, 0, 59, 0
4, 6864, Note_on_c, 0, 62, 0
4, 6864, Note_on_c, 0, 55, 0
4, 7008, Note_on_c, 0, 59, 80
4, 7008, Note_on_c, 0, 62, 61
4, 7008, Note_on_c, 0, 55, 71
4, 7056, Note_on_c, 0, 55, 0
4, 7056, Note_on_c, 0, 62, 0
4, 7056, Note_on_c, 0, 59, 0
4, 7056, Note_on_c, 0, 55, 100
4, 7056, Note_on_c, 0, 59, 80
4, 7056, Note_on_c, 0, 62, 100
4, 7104, Note_on_c, 0, 62, 0
4, 7104, Note_on_c, 0, 59, 0
4, 7104, Note_on_c, 0, 55, 0
4, 7104, Note_on_c, 0, 55, 100
4, 7104, Note_on_c, 0, 59, 80
4, 7104, Note_on_c, 0, 62, 83
4, 7152, Note_on_c, 0, 62, 0
4, 7152, Note_on_c, 0, 59, 0
4, 7152, Note_on_c, 0, 55, 0
4, 7200, Note_on_c, 0, 59, 80
4, 7200, Note_on_c, 0, 62, 71
4, 7200, Note_on_c, 0, 55, 71
4, 7248, Note_on_c, 0, 55, 0
4, 7248, Note_on_c, 0, 62, 0
4, 7248, Note_on_c, 0, 59, 0
4, 7248, Note_on_c, 0, 55, 100
4, 7248, Note_on_c, 0, 59, 95
4, 7248, Note_on_c, 0, 62, 100
4, 7296, Note_on_c, 0, 62, 0
4, 7296, Note_on_c, 0, 59, 0
4, 7296, Note_on_c, 0, 55, 0
4, 7296, Note_on_c, 0, 55, 100
4, 7296, Note_on_c, 0, 59, 112
4, 7296, Note_on_c, 0, 62, 116
4, 7344, Note_on_c, 0, 62, 0
4, 7344, Note_on_c, 0, 59, 0
4, 7344, Note_on_c, 0, 55, 0
4, 7392, Note_on_c, 0, 59, 80
4, 7392, Note_on_c, 0, 62, 71
4, 7392, Note_on_c, 0, 55, 100
4, 7440, Note_on_c, 0, 55, 0
4, 7440, Note_on_c, 0, 62, 0
4, 7440, Note_on_c, 0, 59, 0
4, 7440, Note_on_c, 0, 55, 83
4, 7440, Note_on_c, 0, 62, 71
4, 7440, Note_on_c, 0, 59, 80
4, 7488, Note_on_c, 0, 59, 0
4, 7488, Note_on_c, 0, 62, 0
4, 7488, Note_on_c, 0, 55, 0
4, 7488, Note_on_c, 0, 55, 100
4, 7488, Note_on_c, 0, 62, 83
4, 7488, Note_on_c, 0, 59, 112
4, 7536, Note_on_c, 0, 59, 0
4, 7536, Note_on_c, 0, 62, 0
4, 7536, Note_on_c, 0, 55, 0
4, 7584, Note_on_c, 0, 59, 80
4, 7584, Note_on_c, 0, 55, 83
4, 7584, Note_on_c, 0, 62, 61
4, 7632, Note_on_c, 0, 62, 0
4, 7632, Note_on_c, 0, 55, 0
4, 7632, Note_on_c, 0, 59, 0
4, 7632, Note_on_c, 0, 55, 83
4, 7632, Note_on_c, 0, 62, 83
4, 7632, Note_on_c, 0, 59, 80
4, 7680, Note_on_c, 0, 59, 0
4, 7680, Note_on_c, 0, 62, 0
4, 7680, Note_on_c, 0, 55, 0
4, 7680, Note_on_c, 0, 55, 116
4, 7680, Note_on_c, 0, 59, 112
4, 7680, Note_on_c, 0, 62, 83
4, 7728, Note_on_c, 0, 62, 0
4, 7728, Note_on_c, 0, 59, 0
4, 7728, Note_on_c, 0, 55, 0
4, 7776, Note_on_c, 0, 59, 80
4, 7776, Note_on_c, 0, 55, 71
4, 7776, Note_on_c, 0, 62, 71
4, 7824, Note_on_c, 0, 62, 0
4, 7824, Note_on_c, 0, 55, 0
4, 7824, Note_on_c, 0, 59, 0
4, 7824, Note_on_c, 0, 55, 83
4, 7824, Note_on_c, 0, 59, 95
4, 7824, Note_on_c, 0, 62, 83
4, 7872, Note_on_c, 0, 62, 0
4, 7872, Note_on_c, 0, 59, 0
4, 7872, Note_on_c, 0, 55, 0
4, 7872, Note_on_c, 0, 55, 116
4, 7872, Note_on_c, 0, 59, 112
4, 7872, Note_on_c, 0, 62, 100
4, 7920, Note_on_c, 0, 62, 0
4, 7920, Note_on_c, 0, 59, 0
4, 7920, Note_on_c, 0, 55, 0
4, 7968, Note_on_c, 0, 59, 95
4, 7968, Note_on_c, 0, 55, 83
4, 7968, Note_on_c, 0, 62, 71
4, 8016, Note_on_c, 0, 62, 0
4, 8016, Note_on_c, 0, 55, 0
4, 8016, Note_on_c, 0, 59, 0
4, 8016, Note_on_c, 0, 55, 100
4, 8016, Note_on_c, 0, 59, 80
4, 8016, Note_on_c, 0, 62, 83
4, 8064, Note_on_c, 0, 62, 0
4, 8064, Note_on_c, 0, 59, 0
4, 8064, Note_on_c, 0, 55, 0
4, 8064, Note_on_c, 0, 64, 95
4, 8064, Note_on_c, 0, 61, 95
4, 8064, Note_on_c, 0, 57, 100
4, 8160, Note_on_c, 0, 61, 0
4, 8160, Note_on_c, 0, 64, 0
4, 8160, Note_on_c, 0, 57, 61
4, 8160, Note_on_c, 0, 61, 80
4, 8160, Note_on_c, 0, 64, 80
4, 8208, Note_on_c, 0, 64, 0
4, 8208, Note_on_c, 0, 61, 0
4, 8208, Note_on_c, 0, 57, 0
4, 8208, Note_on_c, 0, 64, 95
4, 8208, Note_on_c, 0, 57, 83
4, 8208, Note_on_c, 0, 61, 80
4, 8256, Note_on_c, 0, 61, 0
4, 8256, Note_on_c, 0, 57, 0
4, 8256, Note_on_c, 0, 64, 0
4, 8256, Note_on_c, 0, 57, 0
4, 8256, Note_on_c, 0, 57, 116
4, 8256, Note_on_c, 0, 64, 80
4, 8256, Note_on_c, 0, 61, 112
4, 8304, Note_on_c, 0, 61, 0
4, 8304, Note_on_c, 0, 64, 0
4, 8304, Note_on_c, 0, 57, 0
4, 8352, Note_on_c, 0, 57, 100
4, 8352, Note_on_c, 0, 66, 80
4, 8352, Note_on_c, 0, 62, 100
4, 8544, Note_on_c, 0, 62, 0
4, 8544, Note_on_c, 0, 66, 0
4, 8544, Note_on_c, 0, 57, 0
4, 8544, Note_on_c, 0, 57, 100
4, 8544, Note_on_c, 0, 66, 80
4, 8544, Note_on_c, 0, 62, 83
4, 8592, Note_on_c, 0, 62, 0
4, 8592, Note_on_c, 0, 66, 0
4, 8592, Note_on_c, 0, 57, 0
4, 8592, Note_on_c, 0, 57, 83
4, 8592, Note_on_c, 0, 66, 80
4, 8592, Note_on_c, 0, 62, 83
4, 8640, Note_on_c, 0, 62, 0
4, 8640, Note_on_c, 0, 66, 0
4, 8640, Note_on_c, 0, 57, 0
4, 8640, Note_on_c, 0, 57, 100
4, 8640, Note_on_c, 0, 62, 116
4, 8640, Note_on_c, 0, 66, 95
4, 8688, Note_on_c, 0, 66, 0
4, 8688, Note_on_c, 0, 62, 0
4, 8688, Note_on_c, 0, 57, 0
4, 8736, Note_on_c, 0, 57, 71
4, 8736, Note_on_c, 0, 62, 83
4, 8736, Note_on_c, 0, 66, 80
4, 8784, Note_on_c, 0, 66, 0
4, 8784, Note_on_c, 0, 62, 0
4, 8784, Note_on_c, 0, 57, 0
4, 8784, Note_on_c, 0, 57, 83
4, 8784, Note_on_c, 0, 66, 80
4, 8784, Note_on_c, 0, 62, 83
4, 8832, Note_on_c, 0, 62, 0
4, 8832, Note_on_c, 0, 66, 0
4, 8832, Note_on_c, 0, 57, 0
4, 8832, Note_on_c, 0, 57, 83
4, 8832, Note_on_c, 0, 66, 95
4, 8832, Note_on_c, 0, 62, 100
4, 8880, Note_on_c, 0, 62, 0
4, 8880, Note_on_c, 0, 66, 0
4, 8880, Note_on_c, 0, 57, 0
4, 8928, Note_on_c, 0, 66, 68
4, 8928, Note_on_c, 0, 62, 83
4, 8928, Note_on_c, 0, 57, 83
4, 8976, Note_on_c, 0, 57, 0
4, 8976, Note_on_c, 0, 62, 0
4, 8976, Note_on_c, 0, 66, 0
4, 8976, Note_on_c, 0, 62, 83
4, 8976, Note_on_c, 0, 57, 83
4, 8976, Note_on_c, 0, 66, 68
4, 9024, Note_on_c, 0, 66, 0
4, 9024, Note_on_c, 0, 57, 0
4, 9024, Note_on_c, 0, 62, 0
4, 9024, Note_on_c, 0, 57, 83
4, 9024, Note_on_c, 0, 66, 80
4, 9024, Note_on_c, 0, 62, 100
4, 9072, Note_on_c, 0, 62, 0
4, 9072, Note_on_c, 0, 66, 0
4, 9072, Note_on_c, 0, 57, 0
4, 9120, Note_on_c, 0, 57, 61
4, 9120, Note_on_c, 0, 62, 71
4, 9120, Note_on_c, 0, 66, 68
4, 9168, Note_on_c, 0, 66, 0
4, 9168, Note_on_c, 0, 62, 0
4, 9168, Note_on_c, 0, 57, 0
4, 9168, Note_on_c, 0, 57, 100
4, 9168, Note_on_c, 0, 66, 95
4, 9168, Note_on_c, 0, 62, 100
4, 9216, Note_on_c, 0, 62, 0
4, 9216, Note_on_c, 0, 66, 0
4, 9216, Note_on_c, 0, 57, 0
4, 9216, Note_on_c, 0, 66, 112
4, 9216, Note_on_c, 0, 57, 83
4, 9216, Note_on_c, 0, 62, 100
4, 9264, Note_on_c, 0, 62, 0
4, 9264, Note_on_c, 0, 57, 0
4, 9264, Note_on_c, 0, 66, 0
4, 9312, Note_on_c, 0, 66, 80
4, 9312, Note_on_c, 0, 57, 83
4, 9312, Note_on_c, 0, 62, 100
4, 9360, Note_on_c, 0, 62, 0
4, 9360, Note_on_c, 0, 57, 0
4, 9360, Note_on_c, 0, 66, 0
4, 9360, Note_on_c, 0, 66, 80
4, 9360, Note_on_c, 0, 57, 83
4, 9360, Note_on_c, 0, 62, 83
4, 9408, Note_on_c, 0, 62, 0
4, 9408, Note_on_c, 0, 57, 0
4, 9408, Note_on_c, 0, 66, 0
4, 9408, Note_on_c, 0, 66, 112
4, 9408, Note_on_c, 0, 62, 100
4, 9408, Note_on_c, 0, 57, 100
4, 9456, Note_on_c, 0, 57, 0
4, 9456, Note_on_c, 0, 62, 0
4, 9456, Note_on_c, 0, 66, 0
4, 9504, Note_on_c, 0, 66, 68
4, 9504, Note_on_c, 0, 57, 83
4, 9504, Note_on_c, 0, 62, 100
4, 9552, Note_on_c, 0, 62, 0
4, 9552, Note_on_c, 0, 57, 0
4, 9552, Note_on_c, 0, 66, 0
4, 9552, Note_on_c, 0, 57, 83
4, 9552, Note_on_c, 0, 66, 80
4, 9552, Note_on_c, 0, 62, 83
4, 9600, Note_on_c, 0, 62, 0
4, 9600, Note_on_c, 0, 66, 0
4, 9600, Note_on_c, 0, 57, 0
4, 9600, Note_on_c, 0, 57, 83
4, 9600, Note_on_c, 0, 64, 80
4, 9600, Note_on_c, 0, 61, 95
4, 9696, Note_on_c, 0, 61, 0
4, 9696, Note_on_c, 0, 64, 0
4, 9696, Note_on_c, 0, 57, 0
4, 9696, Note_on_c, 0, 61, 80
4, 9696, Note_on_c, 0, 57, 83
4, 9696, Note_on_c, 0, 64, 80
4, 9744, Note_on_c, 0, 64, 0
4, 9744, Note_on_c, 0, 57, 0
4, 9744, Note_on_c, 0, 61, 0
4, 9744, Note_on_c, 0, 57, 100
4, 9744, Note_on_c, 0, 61, 95
4, 9744, Note_on_c, 0, 64, 95
4, 9792, Note_on_c, 0, 64, 0
4, 9792, Note_on_c, 0, 61, 0
4, 9792, Note_on_c, 0, 57, 0
4, 9792, Note_on_c, 0, 61, 124
4, 9792, Note_on_c, 0, 57, 100
4, 9792, Note_on_c, 0, 64, 95
4, 9840, Note_on_c, 0, 64, 0
4, 9840, Note_on_c, 0, 57, 0
4, 9840, Note_on_c, 0, 61, 0
4, 9888, Note_on_c, 0, 55, 116
4, 9888, Note_on_c, 0, 62, 100
4, 9888, Note_on_c, 0, 59, 112
4, 9936, Note_on_c, 0, 59, 0
4, 9936, Note_on_c, 0, 62, 0
4, 9936, Note_on_c, 0, 55, 0
4, 10080, Note_on_c, 0, 59, 80
4, 10080, Note_on_c, 0, 62, 61
4, 10080, Note_on_c, 0, 55, 71
4, 10128, Note_on_c, 0, 55, 0
4, 10128, Note_on_c, 0, 62, 0
4, 10128, Note_on_c, 0, 59, 0
4, 10128, Note_on_c, 0, 55, 100
4, 10128, Note_on_c, 0, 59, 80
4, 10128, Note_on_c, 0, 62, 100
4, 10176, Note_on_c, 0, 62, 0
4, 10176, Note_on_c, 0, 59, 0
4, 10176, Note_on_c, 0, 55, 0
4, 10176, Note_on_c, 0, 55, 100
4, 10176, Note_on_c, 0, 59, 80
4, 10176, Note_on_c, 0, 62, 83
4, 10224, Note_on_c, 0, 62, 0
4, 10224, Note_on_c, 0, 59, 0
4, 10224, Note_on_c, 0, 55, 0
4, 10272, Note_on_c, 0, 59, 80
4, 10272, Note_on_c, 0, 62, 71
4, 10272, Note_on_c, 0, 55, 71
4, 10320, Note_on_c, 0, 55, 0
4, 10320, Note_on_c, 0, 62, 0
4, 10320, Note_on_c, 0, 59, 0
4, 10320, Note_on_c, 0, 55, 100
4, 10320, Note_on_c, 0, 59, 95
4, 10320, Note_on_c, 0, 62, 100
4, 10368, Note_on_c, 0, 62, 0
4, 10368, Note_on_c, 0, 59, 0
4, 10368, Note_on_c, 0, 55, 0
4, 10368, Note_on_c, 0, 55, 100
4, 10368, Note_on_c, 0, 59, 112
4, 10368, Note_on_c, 0, 62, 116
4, 10416, Note_on_c, 0, 62, 0
4, 10416, Note_on_c, 0, 59, 0
4, 10416, Note_on_c, 0, 55, 0
4, 10464, Note_on_c, 0, 59, 80
4, 10464, Note_on_c, 0, 62, 71
4, 10464, Note_on_c, 0, 55, 100
4, 10512, Note_on_c, 0, 55, 0
4, 10512, Note_on_c, 0, 62, 0
4, 10512, Note_on_c, 0, 59, 0
4, 10512, Note_on_c, 0, 55, 83
4, 10512, Note_on_c, 0, 62, 71
4, 10512, Note_on_c, 0, 59, 80
4, 10560, Note_on_c, 0, 59, 0
4, 10560, Note_on_c, 0, 62, 0
4, 10560, Note_on_c, 0, 55, 0
4, 10560, Note_on_c, 0, 55, 100
4, 10560, Note_on_c, 0, 62, 83
4, 10560, Note_on_c, 0, 59, 112
4, 10608, Note_on_c, 0, 59, 0
4, 10608, Note_on_c, 0, 62, 0
4, 10608, Note_on_c, 0, 55, 0
4, 10656, Note_on_c, 0, 59, 80
4, 10656, Note_on_c, 0, 55, 83
4, 10656, Note_on_c, 0, 62, 61
4, 10704, Note_on_c, 0, 62, 0
4, 10704, Note_on_c, 0, 55, 0
4, 10704, Note_on_c, 0, 59, 0
4, 10704, Note_on_c, 0, 55, 83
4, 10704, Note_on_c, 0, 62, 83
4, 10704, Note_on_c, 0, 59, 80
4, 10752, Note_on_c, 0, 59, 0
4, 10752, Note_on_c, 0, 62, 0
4, 10752, Note_on_c, 0, 55, 0
4, 10752, Note_on_c, 0, 55, 116
4, 10752, Note_on_c, 0, 59, 112
4, 10752, Note_on_c, 0, 62, 83
4, 10800, Note_on_c, 0, 62, 0
4, 10800, Note_on_c, 0, 59, 0
4, 10800, Note_on_c, 0, 55, 0
4, 10848, Note_on_c, 0, 59, 80
4, 10848, Note_on_c, 0, 55, 71
4, 10848, Note_on_c, 0, 62, 71
4, 10896, Note_on_c, 0, 62, 0
4, 10896, Note_on_c, 0, 55, 0
4, 10896, Note_on_c, 0, 59, 0
4, 10896, Note_on_c, 0, 55, 83
4, 10896, Note_on_c, 0, 59, 95
4, 10896, Note_on_c, 0, 62, 83
4, 10944, Note_on_c, 0, 62, 0
4, 10944, Note_on_c, 0, 59, 0
4, 10944, Note_on_c, 0, 55, 0
4, 10944, Note_on_c, 0, 55, 116
4, 10944, Note_on_c, 0, 59, 112
4, 10944, Note_on_c, 0, 62, 100
4, 10992, Note_on_c, 0, 62, 0
4, 10992, Note_on_c, 0, 59, 0
4, 10992, Note_on_c, 0, 55, 0
4, 11040, Note_on_c, 0, 59, 95
4, 11040, Note_on_c, 0, 55, 83
4, 11040, Note_on_c, 0, 62, 71
4, 11088, Note_on_c, 0, 62, 0
4, 11088, Note_on_c, 0, 55, 0
4, 11088, Note_on_c, 0, 59, 0
4, 11088, Note_on_c, 0, 55, 100
4, 11088, Note_on_c, 0, 59, 80
4, 11088, Note_on_c, 0, 62, 83
4, 11136, Note_on_c, 0, 62, 0
4, 11136, Note_on_c, 0, 59, 0
4, 11136, Note_on_c, 0, 55, 0
4, 11136, Note_on_c, 0, 64, 95
4, 11136, Note_on_c, 0, 61, 95
4, 11136, Note_on_c, 0, 57, 100
4, 11232, Note_on_c, 0, 61, 0
4, 11232, Note_on_c, 0, 64, 0
4, 11232, Note_on_c, 0, 57, 61
4, 11232, Note_on_c, 0, 61, 80
4, 11232, Note_on_c, 0, 64, 80
4, 11280, Note_on_c, 0, 64, 0
4, 11280, Note_on_c, 0, 61, 0
4, 11280, Note_on_c, 0, 57, 0
4, 11280, Note_on_c, 0, 64, 95
4, 11280, Note_on_c, 0, 57, 83
4, 11280, Note_on_c, 0, 61, 80
4, 11328, Note_on_c, 0, 61, 0
4, 11328, Note_on_c, 0, 57, 0
4, 11328, Note_on_c, 0, 64, 0
4, 11328, Note_on_c, 0, 57, 0
4, 11328, Note_on_c, 0, 57, 116
4, 11328, Note_on_c, 0, 64, 80
4, 11328, Note_on_c, 0, 61, 112
4, 11376, Note_on_c, 0, 61, 0
4, 11376, Note_on_c, 0, 64, 0
4, 11376, Note_on_c, 0, 57, 0
4, 11424, Note_on_c, 0, 57, 100
4, 11424, Note_on_c, 0, 66, 80
4, 11424, Note_on_c, 0, 62, 100
4, 11616, Note_on_c, 0, 62, 0
4, 11616, Note_on_c, 0, 66, 0
4, 11616, Note_on_c, 0, 57, 0
4, 11616, Note_on_c, 0, 57, 100
4, 11616, Note_on_c, 0, 66, 80
4, 11616, Note_on_c, 0, 62, 83
4, 11664, Note_on_c, 0, 62, 0
4, 11664, Note_on_c, 0, 66, 0
4, 11664, Note_on_c, 0, 57, 0
4, 11664, Note_on_c, 0, 57, 83
4, 11664, Note_on_c, 0, 66, 80
4, 11664, Note_on_c, 0, 62, 83
4, 11712, Note_on_c, 0, 62, 0
4, 11712, Note_on_c, 0, 66, 0
4, 11712, Note_on_c, 0, 57, 0
4, 11712, Note_on_c, 0, 57, 100
4, 11712, Note_on_c, 0, 62, 116
4, 11712, Note_on_c, 0, 66, 95
4, 11760, Note_on_c, 0, 66, 0
4, 11760, Note_on_c, 0, 62, 0
4, 11760, Note_on_c, 0, 57, 0
4, 11808, Note_on_c, 0, 57, 71
4, 11808, Note_on_c, 0, 62, 83
4, 11808, Note_on_c, 0, 66, 80
4, 11856, Note_on_c, 0, 66, 0
4, 11856, Note_on_c, 0, 62, 0
4, 11856, Note_on_c, 0, 57, 0
4, 11856, Note_on_c, 0, 57, 83
4, 11856, Note_on_c, 0, 66, 80
4, 11856, Note_on_c, 0, 62, 83
4, 11904, Note_on_c, 0, 62, 0
4, 11904, Note_on_c, 0, 66, 0
4, 11904, Note_on_c, 0, 57, 0
4, 11904, Note_on_c, 0, 57, 83
4, 11904, Note_on_c, 0, 66, 95
4, 11904, Note_on_c, 0, 62, 100
4, 11952, Note_on_c, 0, 62, 0
4, 11952, Note_on_c, 0, 66, 0
4, 11952, Note_on_c, 0, 57, 0
4, 12000, Note_on_c, 0, 66, 68
4, 12000, Note_on_c, 0, 62, 83
4, 12000, Note_on_c, 0, 57, 83
4, 12048, Note_on_c, 0, 57, 0
4, 12048, Note_on_c, 0, 62, 0
4, 12048, Note_on_c, 0, 66, 0
4, 12048, Note_on_c, 0, 62, 83
4, 12048, Note_on_c, 0, 57, 83
4, 12048, Note_on_c, 0, 66, 68
4, 12096, Note_on_c, 0, 66, 0
4, 12096, Note_on_c, 0, 57, 0
4, 12096, Note_on_c, 0, 62, 0
4, 12096, Note_on_c, 0, 57, 83
4, 12096, Note_on_c, 0, 66, 80
4, 12096, Note_on_c, 0, 62, 100
4, 12144, Note_on_c, 0, 62, 0
4, 12144, Note_on_c, 0, 66, 0
4, 12144, Note_on_c, 0, 57, 0
4, 12192, Note_on_c, 0, 57, 61
4, 12192, Note_on_c, 0, 62, 71
4, 12192, Note_on_c, 0, 66, 68
4, 12240, Note_on_c, 0, 66, 0
4, 12240, Note_on_c, 0, 62, 0
4, 12240, Note_on_c, 0, 57, 0
4, 12240, Note_on_c, 0, 57, 100
4, 12240, Note_on_c, 0, 66, 95
4, 12240, Note_on_c, 0, 62, 100
4, 12288, Note_on_c, 0, 62, 0
4, 12288, Note_on_c, 0, 66, 0
4, 12288, Note_on_c, 0, 57, 0
4, 12288, Note_on_c, 0, 66, 112
4, 12288, Note_on_c, 0, 57, 83
4, 12288, Note_on_c, 0, 62, 100
4, 12336, Note_on_c, 0, 62, 0
4, 12336, Note_on_c, 0, 57, 0
4, 12336, Note_on_c, 0, 66, 0
4, 12384, Note_on_c, 0, 66, 80
4, 12384, Note_on_c, 0, 57, 83
4, 12384, Note_on_c, 0, 62, 100
4, 12432, Note_on_c, 0, 62, 0
4, 12432, Note_on_c, 0, 57, 0
4, 12432, Note_on_c, 0, 66, 0
4, 12432, Note_on_c, 0, 66, 80
4, 12432, Note_on_c, 0, 57, 83
4, 12432, Note_on_c, 0, 62, 83
4, 12480, Note_on_c, 0, 62, 0
4, 12480, Note_on_c, 0, 57, 0
4, 12480, Note_on_c, 0, 66, 0
4, 12480, Note_on_c, 0, 66, 112
4, 12480, Note_on_c, 0, 62, 100
4, 12480, Note_on_c, 0, 57, 100
4, 12528, Note_on_c, 0, 57, 0
4, 12528, Note_on_c, 0, 62, 0
4, 12528, Note_on_c, 0, 66, 0
4, 12576, Note_on_c, 0, 66, 68
4, 12576, Note_on_c, 0, 57, 83
4, 12576, Note_on_c, 0, 62, 100
4, 12624, Note_on_c, 0, 62, 0
4, 12624, Note_on_c, 0, 57, 0
4, 12624, Note_on_c, 0, 66, 0
4, 12624, Note_on_c, 0, 57, 83
4, 12624, Note_on_c, 0, 66, 80
4, 12624, Note_on_c, 0, 62, 83
4, 12672, Note_on_c, 0, 62, 0
4, 12672, Note_on_c, 0, 66, 0
4, 12672, Note_on_c, 0, 57, 0
4, 12672, Note_on_c, 0, 57, 83
4, 12672, Note_on_c, 0, 64, 80
4, 12672, Note_on_c, 0, 61, 95
4, 12768, Note_on_c, 0, 61, 0
4, 12768, Note_on_c, 0, 64, 0
4, 12768, Note_on_c, 0, 57, 0
4, 12768, Note_on_c, 0, 61, 80
4, 12768, Note_on_c, 0, 57, 83
4, 12768, Note_on_c, 0, 64, 80
4, 12816, Note_on_c, 0, 64, 0
4, 12816, Note_on_c, 0, 57, 0
4, 12816, Note_on_c, 0, 61, 0
4, 12816, Note_on_c, 0, 57, 100
4, 12816, Note_on_c, 0, 61, 95
4, 12816, Note_on_c, 0, 64, 95
4, 12864, Note_on_c, 0, 64, 0
4, 12864, Note_on_c, 0, 61, 0
4, 12864, Note_on_c, 0, 57, 0
4, 12864, Note_on_c, 0, 61, 124
4, 12864, Note_on_c, 0, 57, 100
4, 12864, Note_on_c, 0, 64, 95
4, 12912, Note_on_c, 0, 64, 0
4, 12912, Note_on_c, 0, 57, 0
4, 12912, Note_on_c, 0, 61, 0
4, 12960, Note_on_c, 0, 55, 116
4, 12960, Note_on_c, 0, 62, 100
4, 12960, Note_on_c, 0, 59, 112
4, 13008, Note_on_c, 0, 59, 0
4, 13008, Note_on_c, 0, 62, 0
4, 13008, Note_on_c, 0, 55, 0
4, 13152, Note_on_c, 0, 59, 80
4, 13152, Note_on_c, 0, 62, 61
4, 13152, Note_on_c, 0, 55, 71
4, 13200, Note_on_c, 0, 55, 0
4, 13200, Note_on_c, 0, 62, 0
4, 13200, Note_on_c, 0, 59, 0
4, 13200, Note_on_c, 0, 55, 100
4, 13200, Note_on_c, 0, 59, 80
4, 13200, Note_on_c, 0, 62, 100
4, 13248, Note_on_c, 0, 62, 0
4, 13248, Note_on_c, 0, 59, 0
4, 13248, Note_on_c, 0, 55, 0
4, 13248, Note_on_c, 0, 55, 100
4, 13248, Note_on_c, 0, 59, 80
4, 13248, Note_on_c, 0, 62, 83
4, 13296, Note_on_c, 0, 62, 0
4, 13296, Note_on_c, 0, 59, 0
4, 13296, Note_on_c, 0, 55, 0
4, 13344, Note_on_c, 0, 59, 80
4, 13344, Note_on_c, 0, 62, 71
4, 13344, Note_on_c, 0, 55, 71
4, 13392, Note_on_c, 0, 55, 0
4, 13392, Note_on_c, 0, 62, 0
4, 13392, Note_on_c, 0, 59, 0
4, 13392, Note_on_c, 0, 55, 100
4, 13392, Note_on_c, 0, 59, 95
4, 13392, Note_on_c, 0, 62, 100
4, 13440, Note_on_c, 0, 62, 0
4, 13440, Note_on_c, 0, 59, 0
4, 13440, Note_on_c, 0, 55, 0
4, 13440, Note_on_c, 0, 55, 100
4, 13440, Note_on_c, 0, 59, 112
4, 13440, Note_on_c, 0, 62, 116
4, 13488, Note_on_c, 0, 62, 0
4, 13488, Note_on_c, 0, 59, 0
4, 13488, Note_on_c, 0, 55, 0
4, 13536, Note_on_c, 0, 59, 80
4, 13536, Note_on_c, 0, 62, 71
4, 13536, Note_on_c, 0, 55, 100
4, 13584, Note_on_c, 0, 55, 0
4, 13584, Note_on_c, 0, 62, 0
4, 13584, Note_on_c, 0, 59, 0
4, 13584, Note_on_c, 0, 55, 83
4, 13584, Note_on_c, 0, 62, 71
4, 13584, Note_on_c, 0, 59, 80
4, 13632, Note_on_c, 0, 59, 0
4, 13632, Note_on_c, 0, 62, 0
4, 13632, Note_on_c, 0, 55, 0
4, 13632, Note_on_c, 0, 55, 100
4, 13632, Note_on_c, 0, 62, 83
4, 13632, Note_on_c, 0, 59, 112
4, 13680, Note_on_c, 0, 59, 0
4, 13680, Note_on_c, 0, 62, 0
4, 13680, Note_on_c, 0, 55, 0
4, 13728, Note_on_c, 0, 59, 80
4, 13728, Note_on_c, 0, 55, 83
4, 13728, Note_on_c, 0, 62, 61
4, 13776, Note_on_c, 0, 62, 0
4, 13776, Note_on_c, 0, 55, 0
4, 13776, Note_on_c, 0, 59, 0
4, 13776, Note_on_c, 0, 55, 83
4, 13776, Note_on_c, 0, 62, 83
4, 13776, Note_on_c, 0, 59, 80
4, 13824, Note_on_c, 0, 59, 0
4, 13824, Note_on_c, 0, 62, 0
4, 13824, Note_on_c, 0, 55, 0
4, 13824, Note_on_c, 0, 55, 116
4, 13824, Note_on_c, 0, 59, 112
4, 13824, Note_on_c, 0, 62, 83
4, 13872, Note_on_c, 0, 62, 0
4, 13872, Note_on_c, 0, 59, 0
4, 13872, Note_on_c, 0, 55, 0
4, 13920, Note_on_c, 0, 59, 80
4, 13920, Note_on_c, 0, 55, 71
4, 13920, Note_on_c, 0, 62, 71
4, 13968, Note_on_c, 0, 62, 0
4, 13968, Note_on_c, 0, 55, 0
4, 13968, Note_on_c, 0, 59, 0
4, 13968, Note_on_c, 0, 55, 83
4, 13968, Note_on_c, 0, 59, 95
4, 13968, Note_on_c, 0, 62, 83
4, 14016, Note_on_c, 0, 62, 0
4, 14016, Note_on_c, 0, 59, 0
4, 14016, Note_on_c, 0, 55, 0
4, 14016, Note_on_c, 0, 55, 116
4, 14016, Note_on_c, 0, 59, 112
4, 14016, Note_on_c, 0, 62, 100
4, 14064, Note_on_c, 0, 62, 0
4, 14064, Note_on_c, 0, 59, 0
4, 14064, Note_on_c, 0, 55, 0
4, 14112, Note_on_c, 0, 59, 95
4, 14112, Note_on_c, 0, 55, 83
4, 14112, Note_on_c, 0, 62, 71
4, 14160, Note_on_c, 0, 62, 0
4, 14160, Note_on_c, 0, 55, 0
4, 14160, Note_on_c, 0, 59, 0
4, 14160, Note_on_c, 0, 55, 100
4, 14160, Note_on_c, 0, 59, 80
4, 14160, Note_on_c, 0, 62, 83
4, 14208, Note_on_c, 0, 62, 0
4, 14208, Note_on_c, 0, 59, 0
4, 14208, Note_on_c, 0, 55, 0
4, 14208, Note_on_c, 0, 64, 95
4, 14208, Note_on_c, 0, 61, 95
4, 14208, Note_on_c, 0, 57, 100
4, 14304, Note_on_c, 0, 61, 0
4, 14304, Note_on_c, 0, 64, 0
4, 14304, Note_on_c, 0, 57, 61
4, 14304, Note_on_c, 0, 61, 80
4, 14304, Note_on_c, 0, 64, 80
4, 14352, Note_on_c, 0, 64, 0
4, 14352, Note_on_c, 0, 61, 0
4, 14352, Note_on_c, 0, 57, 0
4, 14352, Note_on_c, 0, 64, 95
4, 14352, Note_on_c, 0, 57, 83
4, 14352, Note_on_c, 0, 61, 80
4, 14400, Note_on_c, 0, 61, 0
4, 14400, Note_on_c, 0, 57, 0
4, 14400, Note_on_c, 0, 64, 0
4, 14400, Note_on_c, 0, 57, 0
4, 14400, Note_on_c, 0, 57, 116
4, 14400, Note_on_c, 0, 64, 80
4, 14400, Note_on_c, 0, 61, 112
4, 14448, Note_on_c, 0, 61, 0
4, 14448, Note_on_c, 0, 64, 0
4, 14448, Note_on_c, 0, 57, 0
4, 14496, Note_on_c, 0, 57, 100
4, 14496, Note_on_c, 0, 66, 80
4, 14496, Note_on_c, 0, 62, 100
4, 14688, Note_on_c, 0, 62, 0
4, 14688, Note_on_c, 0, 66, 0
4, 14688, Note_on_c, 0, 57, 0
4, 14688, Note_on_c, 0, 57, 100
4, 14688, Note_on_c, 0, 66, 80
4, 14688, Note_on_c, 0, 62, 83
4, 14736, Note_on_c, 0, 62, 0
4, 14736, Note_on_c, 0, 66, 0
4, 14736, Note_on_c, 0, 57, 0
4, 14736, Note_on_c, 0, 57, 83
4, 14736, Note_on_c, 0, 66, 80
4, 14736, Note_on_c, 0, 62, 83
4, 14784, Note_on_c, 0, 62, 0
4, 14784, Note_on_c, 0, 66, 0
4, 14784, Note_on_c, 0, 57, 0
4, 14784, Note_on_c, 0, 57, 100
4, 14784, Note_on_c, 0, 62, 116
4, 14784, Note_on_c, 0, 66, 95
4, 14832, Note_on_c, 0, 66, 0
4, 14832, Note_on_c, 0, 62, 0
4, 14832, Note_on_c, 0, 57, 0
4, 14880, Note_on_c, 0, 57, 71
4, 14880, Note_on_c, 0, 62, 83
4, 14880, Note_on_c, 0, 66, 80
4, 14928, Note_on_c, 0, 66, 0
4, 14928, Note_on_c, 0, 62, 0
4, 14928, Note_on_c, 0, 57, 0
4, 14928, Note_on_c, 0, 57, 83
4, 14928, Note_on_c, 0, 66, 80
4, 14928, Note_on_c, 0, 62, 83
4, 14976, Note_on_c, 0, 62, 0
4, 14976, Note_on_c, 0, 66, 0
4, 14976, Note_on_c, 0, 57, 0
4, 14976, Note_on_c, 0, 57, 83
4, 14976, Note_on_c, 0, 66, 95
4, 14976, Note_on_c, 0, 62, 100
4, 15024, Note_on_c, 0, 62, 0
4, 15024, Note_on_c, 0, 66, 0
4, 15024, Note_on_c, 0, 57, 0
4, 15072, Note_on_c, 0, 66, 68
4, 15072, Note_on_c, 0, 62, 83
4, 15072, Note_on_c, 0, 57, 83
4, 15120, Note_on_c, 0, 57, 0
4, 15120, Note_on_c, 0, 62, 0
4, 15120, Note_on_c, 0, 66, 0
4, 15120, Note_on_c, 0, 62, 83
4, 15120, Note_on_c, 0, 57, 83
4, 15120, Note_on_c, 0, 66, 68
4, 15168, Note_on_c, 0, 66, 0
4, 15168, Note_on_c, 0, 57, 0
4, 15168, Note_on_c, 0, 62, 0
4, 15168, Note_on_c, 0, 57, 83
4, 15168, Note_on_c, 0, 66, 80
4, 15168, Note_on_c, 0, 62, 100
4, 15216, Note_on_c, 0, 62, 0
4, 15216, Note_on_c, 0, 66, 0
4, 15216, Note_on_c, 0, 57, 0
4, 15264, Note_on_c, 0, 57, 61
4, 15264, Note_on_c, 0, 62, 71
4, 15264, Note_on_c, 0, 66, 68
4, 15312, Note_on_c, 0, 66, 0
4, 15312, Note_on_c, 0, 62, 0
4, 15312, Note_on_c, 0, 57, 0
4, 15312, Note_on_c, 0, 57, 100
4, 15312, Note_on_c, 0, 66, 95
4, 15312, Note_on_c, 0, 62, 100
4, 15360, Note_on_c, 0, 62, 0
4, 15360, Note_on_c, 0, 66, 0
4, 15360, Note_on_c, 0, 57, 0
4, 15360, Note_on_c, 0, 66, 112
4, 15360, Note_on_c, 0, 57, 83
4, 15360, Note_on_c, 0, 62, 100
4, 15408, Note_on_c, 0, 62, 0
4, 15408, Note_on_c, 0, 57, 0
4, 15408, Note_on_c, 0, 66, 0
4, 15456, Note_on_c, 0, 66, 80
4, 15456, Note_on_c, 0, 57, 83
4, 15456, Note_on_c, 0, 62, 100
4, 15504, Note_on_c, 0, 62, 0
4, 15504, Note_on_c, 0, 57, 0
4, 15504, Note_on_c, 0, 66, 0
4, 15504, Note_on_c, 0, 66, 80
4, 15504, Note_on_c, 0, 57, 83
4, 15504, Note_on_c, 0, 62, 83
4, 15552, Note_on_c, 0, 62, 0
4, 15552, Note_on_c, 0, 57, 0
4, 15552, Note_on_c, 0, 66, 0
4, 15552, Note_on_c, 0, 66, 112
4, 15552, Note_on_c, 0, 62, 100
4, 15552, Note_on_c, 0, 57, 100
4, 15600, Note_on_c, 0, 57, 0
4, 15600, Note_on_c, 0, 62, 0
4, 15600, Note_on_c, 0, 66, 0
4, 15648, Note_on_c, 0, 66, 68
4, 15648, Note_on_c, 0, 57, 83
4, 15648, Note_on_c, 0, 62, 100
4, 15696, Note_on_c, 0, 62, 0
4, 15696, Note_on_c, 0, 57, 0
4, 15696, Note_on_c, 0, 66, 0
4, 15696, Note_on_c, 0, 57, 83
4, 15696, Note_on_c, 0, 66, 80
4, 15696, Note_on_c, 0, 62, 83
4, 15744, Note_on_c, 0, 62, 0
4, 15744, Note_on_c, 0, 66, 0
4, 15744, Note_on_c, 0, 57, 0
4, 15744, Note_on_c, 0, 57, 83
4, 15744, Note_on_c, 0, 64, 80
4, 15744, Note_on_c, 0, 61, 95
4, 15840, Note_on_c, 0, 61, 0
4, 15840, Note_on_c, 0, 64, 0
4, 15840, Note_on_c, 0, 57, 0
4, 15840, Note_on_c, 0, 61, 80
4, 15840, Note_on_c, 0, 57, 83
4, 15840, Note_on_c, 0, 64, 80
4, 15888, Note_on_c, 0, 64, 0
4, 15888, Note_on_c, 0, 57, 0
4, 15888, Note_on_c, 0, 61, 0
4, 15888, Note_on_c, 0, 57, 100
4, 15888, Note_on_c, 0, 61, 95
4, 15888, Note_on_c, 0, 64, 95
4, 15936, Note_on_c, 0, 64, 0
4, 15936, Note_on_c, 0, 61, 0
4, 15936, Note_on_c, 0, 57, 0
4, 15936, Note_on_c, 0, 61, 124
4, 15936, Note_on_c, 0, 57, 100
4, 15936, Note_on_c, 0, 64, 95
4, 15984, Note_on_c, 0, 64, 0
4, 15984, Note_on_c, 0, 57, 0
4, 15984, Note_on_c, 0, 61, 0
4, 16032, Note_on_c, 0, 55, 116
4, 16032, Note_on_c, 0, 62, 100
4, 16032, Note_on_c, 0, 59, 112
4, 16080, Note_on_c, 0, 59, 0
4, 16080, Note_on_c, 0, 62, 0
4, 16080, Note_on_c, 0, 55, 0
4, 16224, Note_on_c, 0, 59, 80
4, 16224, Note_on_c, 0, 62, 61
4, 16224, Note_on_c, 0, 55, 71
4, 16272, Note_on_c, 0, 55, 0
4, 16272, Note_on_c, 0, 62, 0
4, 16272, Note_on_c, 0, 59, 0
4, 16272, Note_on_c, 0, 55, 100
4, 16272, Note_on_c, 0, 59, 80
4, 16272, Note_on_c, 0, 62, 100
4, 16320, Note_on_c, 0, 62, 0
4, 16320, Note_on_c, 0, 59, 0
4, 16320, Note_on_c, 0, 55, 0
4, 16320, Note_on_c, 0, 55, 100
4, 16320, Note_on_c, 0, 59, 80
4, 16320, Note_on_c, 0, 62, 83
4, 16368, Note_on_c, 0, 62, 0
4, 16368, Note_on_c, 0, 59, 0
4, 16368, Note_on_c, 0, 55, 0
4, 16416, Note_on_c, 0, 59, 80
4, 16416, Note_on_c, 0, 62, 71
4, 16416, Note_on_c, 0, 55, 71
4, 16464, Note_on_c, 0, 55, 0
4, 16464, Note_on_c, 0, 62, 0
4, 16464, Note_on_c, 0, 59, 0
4, 16464, Note_on_c, 0, 55, 100
4, 16464, Note_on_c, 0, 59, 95
4, 16464, Note_on_c, 0, 62, 100
4, 16512, Note_on_c, 0, 62, 0
4, 16512, Note_on_c, 0, 59, 0
4, 16512, Note_on_c, 0, 55, 0
4, 16512, Note_on_c, 0, 55, 100
4, 16512, Note_on_c, 0, 59, 112
4, 16512, Note_on_c, 0, 62, 116
4, 16560, Note_on_c, 0, 62, 0
4, 16560, Note_on_c, 0, 59, 0
4, 16560, Note_on_c, 0, 55, 0
4, 16608, Note_on_c, 0, 59, 80
4, 16608, Note_on_c, 0, 62, 71
4, 16608, Note_on_c, 0, 55, 100
4, 16656, Note_on_c, 0, 55, 0
4, 16656, Note_on_c, 0, 62, 0
4, 16656, Note_on_c, 0, 59, 0
4, 16656, Note_on_c, 0, 55, 83
4, 16656, Note_on_c, 0, 62, 71
4, 16656, Note_on_c, 0, 59, 80
4, 16704, Note_on_c, 0, 59, 0
4, 16704, Note_on_c, 0, 62, 0
4, 16704, Note_on_c, 0, 55, 0
4, 16704, Note_on_c, 0, 55, 100
4, 16704, Note_on_c, 0, 62, 83
4, 16704, Note_on_c, 0, 59, 112
4, 16752, Note_on_c, 0, 59, 0
4, 16752, Note_on_c, 0, 62, 0
4, 16752, Note_on_c, 0, 55, 0
4, 16800, Note_on_c, 0, 59, 80
4, 16800, Note_on_c, 0, 55, 83
4, 16800, Note_on_c, 0, 62, 61
4, 16848, Note_on_c, 0, 62, 0
4, 16848, Note_on_c, 0, 55, 0
4, 16848, Note_on_c, 0, 59, 0
4, 16848, Note_on_c, 0, 55, 83
4, 16848, Note_on_c, 0, 62, 83
4, 16848, Note_on_c, 0, 59, 80
4, 16896, Note_on_c, 0, 59, 0
4, 16896, Note_on_c, 0, 62, 0
4, 16896, Note_on_c, 0, 55, 0
4, 16896, Note_on_c, 0, 55, 116
4, 16896, Note_on_c, 0, 59, 112
4, 16896, Note_on_c, 0, 62, 83
4, 16944, Note_on_c, 0, 62, 0
4, 16944, Note_on_c, 0, 59, 0
4, 16944, Note_on_c, 0, 55, 0
4, 16992, Note_on_c, 0, 59, 80
4, 16992, Note_on_c, 0, 55, 71
4, 16992, Note_on_c, 0, 62, 71
4, 17040, Note_on_c, 0, 62, 0
4, 17040, Note_on_c, 0, 55, 0
4, 17040, Note_on_c, 0, 59, 0
4, 17040, Note_on_c, 0, 55, 83
4, 17040, Note_on_c, 0, 59, 95
4, 17040, Note_on_c, 0, 62, 83
4, 17088, Note_on_c, 0, 62, 0
4, 17088, Note_on_c, 0, 59, 0
4, 17088, Note_on_c, 0, 55, 0
4, 17088, Note_on_c, 0, 55, 116
4, 17088, Note_on_c, 0, 59, 112
4, 17088, Note_on_c, 0, 62, 100
4, 17136, Note_on_c, 0, 62, 0
4, 17136, Note_on_c, 0, 59, 0
4, 17136, Note_on_c, 0, 55, 0
4, 17184, Note_on_c, 0, 59, 95
4, 17184, Note_on_c, 0, 55, 83
4, 17184, Note_on_c, 0, 62, 71
4, 17232, Note_on_c, 0, 62, 0
4, 17232, Note_on_c, 0, 55, 0
4, 17232, Note_on_c, 0, 59, 0
4, 17232, Note_on_c, 0, 55, 100
4, 17232, Note_on_c, 0, 59, 80
4, 17232, Note_on_c, 0, 62, 83
4, 17280, Note_on_c, 0, 62, 0
4, 17280, Note_on_c, 0, 59, 0
4, 17280, Note_on_c, 0, 55, 0
4, 17280, Note_on_c, 0, 64, 95
4, 17280, Note_on_c, 0, 61, 95
4, 17280, Note_on_c, 0, 57, 100
4, 17376, Note_on_c, 0, 61, 0
4, 17376, Note_on_c, 0, 64, 0
4, 17376, Note_on_c, 0, 57, 61
4, 17376, Note_on_c, 0, 61, 80
4, 17376, Note_on_c, 0, 64, 80
4, 17424, Note_on_c, 0, 64, 0
4, 17424, Note_on_c, 0, 61, 0
4, 17424, Note_on_c, 0, 57, 0
4, 17424, Note_on_c, 0, 64, 95
4, 17424, Note_on_c, 0, 57, 83
4, 17424, Note_on_c, 0, 61, 80
4, 17472, Note_on_c, 0, 61, 0
4, 17472, Note_on_c, 0, 57, 0
4, 17472, Note_on_c, 0, 64, 0
4, 17472, Note_on_c, 0, 57, 0
4, 17472, Note_on_c, 0, 57, 116
4, 17472, Note_on_c, 0, 64, 80
4, 17472, Note_on_c, 0, 61, 112
4, 17520, Note_on_c, 0, 61, 0
4, 17520, Note_on_c, 0, 64, 0
4, 17520, Note_on_c, 0, 57, 0
4, 17568, Note_on_c, 0, 57, 100
4, 17568, Note_on_c, 0, 66, 80
4, 17568, Note_on_c, 0, 62, 100
4, 17760, Note_on_c, 0, 62, 0
4, 17760, Note_on_c, 0, 66, 0
4, 17760, Note_on_c, 0, 57, 0
4, 17760, Note_on_c, 0, 57, 100
4, 17760, Note_on_c, 0, 66, 80
4, 17760, Note_on_c, 0, 62, 83
4, 17808, Note_on_c, 0, 62, 0
4, 17808, Note_on_c, 0, 66, 0
4, 17808, Note_on_c, 0, 57, 0
4, 17808, Note_on_c, 0, 57, 83
4, 17808, Note_on_c, 0, 66, 80
4, 17808, Note_on_c, 0, 62, 83
4, 17856, Note_on_c, 0, 62, 0
4, 17856, Note_on_c, 0, 66, 0
4, 17856, Note_on_c, 0, 57, 0
4, 17856, Note_on_c, 0, 57, 100
4, 17856, Note_on_c, 0, 62, 116
4, 17856, Note_on_c, 0, 66, 95
4, 17904, Note_on_c, 0, 66, 0
4, 17904, Note_on_c, 0, 62, 0
4, 17904, Note_on_c, 0, 57, 0
4, 17952, Note_on_c, 0, 57, 71
4, 17952, Note_on_c, 0, 62, 83
4, 17952, Note_on_c, 0, 66, 80
4, 18000, Note_on_c, 0, 66, 0
4, 18000, Note_on_c, 0, 62, 0
4, 18000, Note_on_c, 0, 57, 0
4, 18000, Note_on_c, 0, 57, 83
4, 18000, Note_on_c, 0, 66, 80
4, 18000, Note_on_c, 0, 62, 83
4, 18048, Note_on_c, 0, 62, 0
4, 18048, Note_on_c, 0, 66, 0
4, 18048, Note_on_c, 0, 57, 0
4, 18048, Note_on_c, 0, 57, 83
4, 18048, Note_on_c, 0, 66, 95
4, 18048, Note_on_c, 0, 62, 100
4, 18096, Note_on_c, 0, 62, 0
4, 18096, Note_on_c, 0, 66, 0
4, 18096, Note_on_c, 0, 57, 0
4, 18144, Note_on_c, 0, 66, 68
4, 18144, Note_on_c, 0, 62, 83
4, 18144, Note_on_c, 0, 57, 83
4, 18192, Note_on_c, 0, 57, 0
4, 18192, Note_on_c, 0, 62, 0
4, 18192, Note_on_c, 0, 66, 0
4, 18192, Note_on_c, 0, 62, 83
4, 18192, Note_on_c, 0, 57, 83
4, 18192, Note_on_c, 0, 66, 68
4, 18240, Note_on_c, 0, 66, 0
4, 18240, Note_on_c, 0, 57, 0
4, 18240, Note_on_c, 0, 62, 0
4, 18240, Note_on_c, 0, 57, 83
4, 18240, Note_on_c, 0, 66, 80
4, 18240, Note_on_c, 0, 62, 100
4, 18288, Note_on_c, 0, 62, 0
4, 18288, Note_on_c, 0, 66, 0
4, 18288, Note_on_c, 0, 57, 0
4, 18336, Note_on_c, 0, 57, 61
4, 18336, Note_on_c, 0, 62, 71
4, 18336, Note_on_c, 0, 66, 68
4, 18384, Note_on_c, 0, 66, 0
4, 18384, Note_on_c, 0, 62, 0
4, 18384, Note_on_c, 0, 57, 0
4, 18384, Note_on_c, 0, 57, 100
4, 18384, Note_on_c, 0, 66, 95
4, 18384, Note_on_c, 0, 62, 100
4, 18432, Note_on_c, 0, 62, 0
4, 18432, Note_on_c, 0, 66, 0
4, 18432, Note_on_c, 0, 57, 0
4, 18432, Note_on_c, 0, 66, 112
4, 18432, Note_on_c, 0, 57, 83
4, 18432, Note_on_c, 0, 62, 100
4, 18480, Note_on_c, 0, 62, 0
4, 18480, Note_on_c, 0, 57, 0
4, 18480, Note_on_c, 0, 66, 0
4, 18528, Note_on_c, 0, 66, 80
4, 18528, Note_on_c, 0, 57, 83
4, 18528, Note_on_c, 0, 62, 100
4, 18576, Note_on_c, 0, 62, 0
4, 18576, Note_on_c, 0, 57, 0
4, 18576, Note_on_c, 0, 66, 0
4, 18576, Note_on_c, 0, 66, 80
4, 18576, Note_on_c, 0, 57, 83
4, 18576, Note_on_c, 0, 62, 83
4, 18624, Note_on_c, 0, 62, 0
4, 18624, Note_on_c, 0, 57, 0
4, 18624, Note_on_c, 0, 66, 0
4, 18624, Note_on_c, 0, 66, 112
4, 18624, Note_on_c, 0, 62, 100
4, 18624, Note_on_c, 0, 57, 100
4, 18672, Note_on_c, 0, 57, 0
4, 18672, Note_on_c, 0, 62, 0
4, 18672, Note_on_c, 0, 66, 0
4, 18720, Note_on_c, 0, 66, 68
4, 18720, Note_on_c, 0, 57, 83
4, 18720, Note_on_c, 0, 62, 100
4, 18768, Note_on_c, 0, 62, 0
4, 18768, Note_on_c, 0, 57, 0
4, 18768, Note_on_c, 0, 66, 0
4, 18768, Note_on_c, 0, 57, 83
4, 18768, Note_on_c, 0, 66, 80
4, 18768, Note_on_c, 0, 62, 83
4, 18816, Note_on_c, 0, 62, 0
4, 18816, Note_on_c, 0, 66, 0
4, 18816, Note_on_c, 0, 57, 0
4, 18816, Note_on_c, 0, 57, 83
4, 18816, Note_on_c, 0, 64, 80
4, 18816, Note_on_c, 0, 61, 95
4, 18912, Note_on_c, 0, 61, 0
4, 18912, Note_on_c, 0, 64, 0
4, 18912, Note_on_c, 0, 57, 0
4, 18912, Note_on_c, 0, 61, 80
4, 18912, Note_on_c, 0, 57, 83
4, 18912, Note_on_c, 0, 64, 80
4, 18960, Note_on_c, 0, 64, 0
4, 18960, Note_on_c, 0, 57, 0
4, 18960, Note_on_c, 0, 61, 0
4, 18960, Note_on_c, 0, 57, 100
4, 18960, Note_on_c, 0, 61, 95
4, 18960, Note_on_c, 0, 64, 95
4, 19008, Note_on_c, 0, 64, 0
4, 19008, Note_on_c, 0, 61, 0
4, 19008, Note_on_c, 0, 57, 0
4, 19008, Note_on_c, 0, 61, 124
4, 19008, Note_on_c, 0, 57, 100
4, 19008, Note_on_c, 0, 64, 95
4, 19056, Note_on_c, 0, 64, 0
4, 19056, Note_on_c, 0, 57, 0
4, 19056, Note_on_c, 0, 61, 0
4, 19104, Note_on_c, 0, 55, 116
4, 19104, Note_on_c, 0, 62, 100
4, 19104, Note_on_c, 0, 59, 112
4, 19152, Note_on_c, 0, 59, 0
4, 19152, Note_on_c, 0, 62, 0
4, 19152, Note_on_c, 0, 55, 0
4, 19296, Note_on_c, 0, 59, 80
4, 19296, Note_on_c, 0, 62, 61
4, 19296, Note_on_c, 0, 55, 71
4, 19344, Note_on_c, 0, 55, 0
4, 19344, Note_on_c, 0, 62, 0
4, 19344, Note_on_c, 0, 59, 0
4, 19344, Note_on_c, 0, 55, 100
4, 19344, Note_on_c, 0, 59, 80
4, 19344, Note_on_c, 0, 62, 100
4, 19392, Note_on_c, 0, 62, 0
4, 19392, Note_on_c, 0, 59, 0
4, 19392, Note_on_c, 0, 55, 0
4, 19392, Note_on_c, 0, 55, 100
4, 19392, Note_on_c, 0, 59, 80
4, 19392, Note_on_c, 0, 62, 83
4, 19440, Note_on_c, 0, 62, 0
4, 19440, Note_on_c, 0, 59, 0
4, 19440, Note_on_c, 0, 55, 0
4, 19488, Note_on_c, 0, 59, 80
4, 19488, Note_on_c, 0, 62, 71
4, 19488, Note_on_c, 0, 55, 71
4, 19536, Note_on_c, 0, 55, 0
4, 19536, Note_on_c, 0, 62, 0
4, 19536, Note_on_c, 0, 59, 0
4, 19536, Note_on_c, 0, 55, 100
4, 19536, Note_on_c, 0, 59, 95
4, 19536, Note_on_c, 0, 62, 100
4, 19584, Note_on_c, 0, 62, 0
4, 19584, Note_on_c, 0, 59, 0
4, 19584, Note_on_c, 0, 55, 0
4, 19584, Note_on_c, 0, 55, 100
4, 19584, Note_on_c, 0, 59, 112
4, 19584, Note_on_c, 0, 62, 116
4, 19632, Note_on_c, 0, 62, 0
4, 19632, Note_on_c, 0, 59, 0
4, 19632, Note_on_c, 0, 55, 0
4, 19680, Note_on_c, 0, 59, 80
4, 19680, Note_on_c, 0, 62, 71
4, 19680, Note_on_c, 0, 55, 100
4, 19728, Note_on_c, 0, 55, 0
4, 19728, Note_on_c, 0, 62, 0
4, 19728, Note_on_c, 0, 59, 0
4, 19728, Note_on_c, 0, 55, 83
4, 19728, Note_on_c, 0, 62, 71
4, 19728, Note_on_c, 0, 59, 80
4, 19776, Note_on_c, 0, 59, 0
4, 19776, Note_on_c, 0, 62, 0
4, 19776, Note_on_c, 0, 55, 0
4, 19776, Note_on_c, 0, 55, 100
4, 19776, Note_on_c, 0, 62, 83
4, 19776, Note_on_c, 0, 59, 112
4, 19824, Note_on_c, 0, 59, 0
4, 19824, Note_on_c, 0, 62, 0
4, 19824, Note_on_c, 0, 55, 0
4, 19872, Note_on_c, 0, 59, 80
4, 19872, Note_on_c, 0, 55, 83
4, 19872, Note_on_c, 0, 62, 61
4, 19920, Note_on_c, 0, 62, 0
4, 19920, Note_on_c, 0, 55, 0
4, 19920, Note_on_c, 0, 59, 0
4, 19920, Note_on_c, 0, 55, 83
4, 19920, Note_on_c, 0, 62, 83
4, 19920, Note_on_c, 0, 59, 80
4, 19968, Note_on_c, 0, 59, 0
4, 19968, Note_on_c, 0, 62, 0
4, 19968, Note_on_c, 0, 55, 0
4, 19968, Note_on_c, 0, 55, 116
4, 19968, Note_on_c, 0, 59, 112
4, 19968, Note_on_c, 0, 62, 83
4, 20016, Note_on_c, 0, 62, 0
4, 20016, Note_on_c, 0, 59, 0
4, 20016, Note_on_c, 0, 55, 0
4, 20064, Note_on_c, 0, 59, 80
4, 20064, Note_on_c, 0, 55, 71
4, 20064, Note_on_c, 0, 62, 71
4, 20112, Note_on_c, 0, 62, 0
4, 20112, Note_on_c, 0, 55, 0
4, 20112, Note_on_c, 0, 59, 0
4, 20112, Note_on_c, 0, 55, 83
4, 20112, Note_on_c, 0, 59, 95
4, 20112, Note_on_c, 0, 62, 83
4, 20160, Note_on_c, 0, 62, 0
4, 20160, Note_on_c, 0, 59, 0
4, 20160, Note_on_c, 0, 55, 0
4, 20160, Note_on_c, 0, 55, 116
4, 20160, Note_on_c, 0, 59, 112
4, 20160, Note_on_c, 0, 62, 100
4, 20208, Note_on_c, 0, 62, 0
4, 20208, Note_on_c, 0, 59, 0
4, 20208, Note_on_c, 0, 55, 0
4, 20256, Note_on_c, 0, 59, 95
4, 20256, Note_on_c, 0, 55, 83
4, 20256, Note_on_c, 0, 62, 71
4, 20304, Note_on_c, 0, 62, 0
4, 20304, Note_on_c, 0, 55, 0
4, 20304, Note_on_c, 0, 59, 0
4, 20304, Note_on_c, 0, 55, 100
4, 20304, Note_on_c, 0, 59, 80
4, 20304, Note_on_c, 0, 62, 83
4, 20352, Note_on_c, 0, 62, 0
4, 20352, Note_on_c, 0, 59, 0
4, 20352, Note_on_c, 0, 55, 0
4, 20352, Note_on_c, 0, 64, 95
4, 20352, Note_on_c, 0, 61, 95
4, 20352, Note_on_c, 0, 57, 100
4, 20448, Note_on_c, 0, 61, 0
4, 20448, Note_on_c, 0, 64, 0
4, 20448, Note_on_c, 0, 57, 61
4, 20448, Note_on_c, 0, 61, 80
4, 20448, Note_on_c, 0, 64, 80
4, 20496, Note_on_c, 0, 64, 0
4, 20496, Note_on_c, 0, 61, 0
4, 20496, Note_on_c, 0, 57, 0
4, 20496, Note_on_c, 0, 64, 95
4, 20496, Note_on_c, 0, 57, 83
4, 20496, Note_on_c, 0, 61, 80
4, 20544, Note_on_c, 0, 61, 0
4, 20544, Note_on_c, 0, 57, 0
4, 20544, Note_on_c, 0, 64, 0
4, 20544, Note_on_c, 0, 57, 0
4, 20544, Note_on_c, 0, 57, 116
4, 20544, Note_on_c, 0, 64, 80
4, 20544, Note_on_c, 0, 61, 112
4, 20592, Note_on_c, 0, 61, 0
4, 20592, Note_on_c, 0, 64, 0
4, 20592, Note_on_c, 0, 57, 0
4, 20640, Note_on_c, 0, 57, 100
4, 20640, Note_on_c, 0, 66, 80
4, 20640, Note_on_c, 0, 62, 100
4, 20832, Note_on_c, 0, 62, 0
4, 20832, Note_on_c, 0, 66, 0
4, 20832, Note_on_c, 0, 57, 0
4, 20832, Note_on_c, 0, 57, 100
4, 20832, Note_on_c, 0, 66, 80
4, 20832, Note_on_c, 0, 62, 83
4, 20880, Note_on_c, 0, 62, 0
4, 20880, Note_on_c, 0, 66, 0
4, 20880, Note_on_c, 0, 57, 0
4, 20880, Note_on_c, 0, 57, 83
4, 20880, Note_on_c, 0, 66, 80
4, 20880, Note_on_c, 0, 62, 83
4, 20928, Note_on_c, 0, 62, 0
4, 20928, Note_on_c, 0, 66, 0
4, 20928, Note_on_c, 0, 57, 0
4, 20928, Note_on_c, 0, 57, 100
4, 20928, Note_on_c, 0, 62, 116
4, 20928, Note_on_c, 0, 66, 95
4, 20976, Note_on_c, 0, 66, 0
4, 20976, Note_on_c, 0, 62, 0
4, 20976, Note_on_c, 0, 57, 0
4, 21024, Note_on_c, 0, 57, 71
4, 21024, Note_on_c, 0, 62, 83
4, 21024, Note_on_c, 0, 66, 80
4, 21072, Note_on_c, 0, 66, 0
4, 21072, Note_on_c, 0, 62, 0
4, 21072, Note_on_c, 0, 57, 0
4, 21072, Note_on_c, 0, 57, 83
4, 21072, Note_on_c, 0, 66, 80
4, 21072, Note_on_c, 0, 62, 83
4, 21120, Note_on_c, 0, 62, 0
4, 21120, Note_on_c, 0, 66, 0
4, 21120, Note_on_c, 0, 57, 0
4, 21120, Note_on_c, 0, 57, 83
4, 21120, Note_on_c, 0, 66, 95
4, 21120, Note_on_c, 0, 62, 100
4, 21168, Note_on_c, 0, 62, 0
4, 21168, Note_on_c, 0, 66, 0
4, 21168, Note_on_c, 0, 57, 0
4, 21216, Note_on_c, 0, 66, 68
4, 21216, Note_on_c, 0, 62, 83
4, 21216, Note_on_c, 0, 57, 83
4, 21264, Note_on_c, 0, 57, 0
4, 21264, Note_on_c, 0, 62, 0
4, 21264, Note_on_c, 0, 66, 0
4, 21264, Note_on_c, 0, 62, 83
4, 21264, Note_on_c, 0, 57, 83
4, 21264, Note_on_c, 0, 66, 68
4, 21312, Note_on_c, 0, 66, 0
4, 21312, Note_on_c, 0, 57, 0
4, 21312, Note_on_c, 0, 62, 0
4, 21312, Note_on_c, 0, 57, 83
4, 21312, Note_on_c, 0, 66, 80
4, 21312, Note_on_c, 0, 62, 100
4, 21360, Note_on_c, 0, 62, 0
4, 21360, Note_on_c, 0, 66, 0
4, 21360, Note_on_c, 0, 57, 0
4, 21408, Note_on_c, 0, 57, 61
4, 21408, Note_on_c, 0, 62, 71
4, 21408, Note_on_c, 0, 66, 68
4, 21456, Note_on_c, 0, 66, 0
4, 21456, Note_on_c, 0, 62, 0
4, 21456, Note_on_c, 0, 57, 0
4, 21456, Note_on_c, 0, 57, 100
4, 21456, Note_on_c, 0, 66, 95
4, 21456, Note_on_c, 0, 62, 100
4, 21504, Note_on_c, 0, 62, 0
4, 21504, Note_on_c, 0, 66, 0
4, 21504, Note_on_c, 0, 57, 0
4, 21504, Note_on_c, 0, 66, 112
4, 21504, Note_on_c, 0, 57, 83
4, 21504, Note_on_c, 0, 62, 100
4, 21552, Note_on_c, 0, 62, 0
4, 21552, Note_on_c, 0, 57, 0
4, 21552, Note_on_c, 0, 66, 0
4, 21600, Note_on_c, 0, 66, 80
4, 21600, Note_on_c, 0, 57, 83
4, 21600, Note_on_c, 0, 62, 100
4, 21648, Note_on_c, 0, 62, 0
4, 21648, Note_on_c, 0, 57, 0
4, 21648, Note_on_c, 0, 66, 0
4, 21648, Note_on_c, 0, 66, 80
4, 21648, Note_on_c, 0, 57, 83
4, 21648, Note_on_c, 0, 62, 83
4, 21696, Note_on_c, 0, 62, 0
4, 21696, Note_on_c, 0, 57, 0
4, 21696, Note_on_c, 0, 66, 0
4, 21696, Note_on_c, 0, 66, 112
4, 21696, Note_on_c, 0, 62, 100
4, 21696, Note_on_c, 0, 57, 100
4, 21744, Note_on_c, 0, 57, 0
4, 21744, Note_on_c, 0, 62, 0
4, 21744, Note_on_c, 0, 66, 0
4, 21792, Note_on_c, 0, 66, 68
4, 21792, Note_on_c, 0, 57, 83
4, 21792, Note_on_c, 0, 62, 100
4, 21840, Note_on_c, 0, 62, 0
4, 21840, Note_on_c, 0, 57, 0
4, 21840, Note_on_c, 0, 66, 0
4, 21840, Note_on_c, 0, 57, 83
4, 21840, Note_on_c, 0, 66, 80
4, 21840, Note_on_c, 0, 62, 83
4, 21888, Note_on_c, 0, 62, 0
4, 21888, Note_on_c, 0, 66, 0
4, 21888, Note_on_c, 0, 57, 0
4, 21888, Note_on_c, 0, 57, 83
4, 21888, Note_on_c, 0, 64, 80
4, 21888, Note_on_c, 0, 61, 95
4, 21984, Note_on_c, 0, 61, 0
4, 21984, Note_on_c, 0, 64, 0
4, 21984, Note_on_c, 0, 57, 0
4, 21984, Note_on_c, 0, 61, 80
4, 21984, Note_on_c, 0, 57, 83
4, 21984, Note_on_c, 0, 64, 80
4, 22032, Note_on_c, 0, 64, 0
4, 22032, Note_on_c, 0, 57, 0
4, 22032, Note_on_c, 0, 61, 0
4, 22032, Note_on_c, 0, 57, 100
4, 22032, Note_on_c, 0, 61, 95
4, 22032, Note_on_c, 0, 64, 95
4, 22080, Note_on_c, 0, 64, 0
4, 22080, Note_on_c, 0, 61, 0
4, 22080, Note_on_c, 0, 57, 0
4, 22080, Note_on_c, 0, 61, 124
4, 22080, Note_on_c, 0, 57, 100
4, 22080, Note_on_c, 0, 64, 95
4, 22128, Note_on_c, 0, 64, 0
4, 22128, Note_on_c, 0, 57, 0
4, 22128, Note_on_c, 0, 61, 0
4, 22176, Note_on_c, 0, 55, 116
4, 22176, Note_on_c, 0, 62, 100
4, 22176, Note_on_c, 0, 59, 112
4, 22224, Note_on_c, 0, 59, 0
4, 22224, Note_on_c, 0, 62, 0
4, 22224, Note_on_c, 0, 55, 0
4, 22368, Note_on_c, 0, 59, 80
4, 22368, Note_on_c, 0, 62, 61
4, 22368, Note_on_c, 0, 55, 71
4, 22416, Note_on_c, 0, 55, 0
4, 22416, Note_on_c, 0, 62, 0
4, 22416, Note_on_c, 0, 59, 0
4, 22416, Note_on_c, 0, 55, 100
4, 22416, Note_on_c, 0, 59, 80
4, 22416, Note_on_c, 0, 62, 100
4, 22464, Note_on_c, 0, 62, 0
4, 22464, Note_on_c, 0, 59, 0
4, 22464, Note_on_c, 0, 55, 0
4, 22464, Note_on_c, 0, 55, 100
4, 22464, Note_on_c, 0, 59, 80
4, 22464, Note_on_c, 0, 62, 83
4, 22512, Note_on_c, 0, 62, 0
4, 22512, Note_on_c, 0, 59, 0
4, 22512, Note_on_c, 0, 55, 0
4, 22560, Note_on_c, 0, 59, 80
4, 22560, Note_on_c, 0, 62, 71
4, 22560, Note_on_c, 0, 55, 71
4, 22608, Note_on_c, 0, 55, 0
4, 22608, Note_on_c, 0, 62, 0
4, 22608, Note_on_c, 0, 59, 0
4, 22608, Note_on_c, 0, 55, 100
4, 22608, Note_on_c, 0, 59, 95
4, 22608, Note_on_c, 0, 62, 100
4, 22656, Note_on_c, 0, 62, 0
4, 22656, Note_on_c, 0, 59, 0
4, 22656, Note_on_c, 0, 55, 0
4, 22656, Note_on_c, 0, 55, 100
4, 22656, Note_on_c, 0, 59, 112
4, 22656, Note_on_c, 0, 62, 116
4, 22704, Note_on_c, 0, 62, 0
4, 22704, Note_on_c, 0, 59, 0
4, 22704, Note_on_c, 0, 55, 0
4, 22752, Note_on_c, 0, 59, 80
4, 22752, Note_on_c, 0, 62, 71
4, 22752, Note_on_c, 0, 55, 100
4, 22800, Note_on_c, 0, 55, 0
4, 22800, Note_on_c, 0, 62, 0
4, 22800, Note_on_c, 0, 59, 0
4, 22800, Note_on_c, 0, 55, 83
4, 22800, Note_on_c, 0, 62, 71
4, 22800, Note_on_c, 0, 59, 80
4, 22848, Note_on_c, 0, 59, 0
4, 22848, Note_on_c, 0, 62, 0
4, 22848, Note_on_c, 0, 55, 0
4, 22848, Note_on_c, 0, 55, 100
4, 22848, Note_on_c, 0, 62, 83
4, 22848, Note_on_c, 0, 59, 112
4, 22896, Note_on_c, 0, 59, 0
4, 22896, Note_on_c, 0, 62, 0
4, 22896, Note_on_c, 0, 55, 0
4, 22944, Note_on_c, 0, 59, 80
4, 22944, Note_on_c, 0, 55, 83
4, 22944, Note_on_c, 0, 62, 61
4, 22992, Note_on_c, 0, 62, 0
4, 22992, Note_on_c, 0, 55, 0
4, 22992, Note_on_c, 0, 59, 0
4, 22992, Note_on_c, 0, 55, 83
4, 22992, Note_on_c, 0, 62, 83
4, 22992, Note_on_c, 0, 59, 80
4, 23040, Note_on_c, 0, 59, 0
4, 23040, Note_on_c, 0, 62, 0
4, 23040, Note_on_c, 0, 55, 0
4, 23040, Note_on_c, 0, 55, 116
4, 23040, Note_on_c, 0, 59, 112
4, 23040, Note_on_c, 0, 62, 83
4, 23088, Note_on_c, 0, 62, 0
4, 23088, Note_on_c, 0, 59, 0
4, 23088, Note_on_c, 0, 55, 0
4, 23136, Note_on_c, 0, 59, 80
4, 23136, Note_on_c, 0, 55, 71
4, 23136, Note_on_c, 0, 62, 71
4, 23184, Note_on_c, 0, 62, 0
4, 23184, Note_on_c, 0, 55, 0
4, 23184, Note_on_c, 0, 59, 0
4, 23184, Note_on_c, 0, 55, 83
4, 23184, Note_on_c, 0, 59, 95
4, 23184, Note_on_c, 0, 62, 83
4, 23232, Note_on_c, 0, 62, 0
4, 23232, Note_on_c, 0, 59, 0
4, 23232, Note_on_c, 0, 55, 0
4, 23232, Note_on_c, 0, 55, 116
4, 23232, Note_on_c, 0, 59, 112
4, 23232, Note_on_c, 0, 62, 100
4, 23280, Note_on_c, 0, 62, 0
4, 23280, Note_on_c, 0, 59, 0
4, 23280, Note_on_c, 0, 55, 0
4, 23328, Note_on_c, 0, 59, 95
4, 23328, Note_on_c, 0, 55, 83
4, 23328, Note_on_c, 0, 62, 71
4, 23376, Note_on_c, 0, 62, 0
4, 23376, Note_on_c, 0, 55, 0
4, 23376, Note_on_c, 0, 59, 0
4, 23376, Note_on_c, 0, 55, 100
4, 23376, Note_on_c, 0, 59, 80
4, 23376, Note_on_c, 0, 62, 83
4, 23424, Note_on_c, 0, 62, 0
4, 23424, Note_on_c, 0, 59, 0
4, 23424, Note_on_c, 0, 55, 0
4, 23424, Note_on_c, 0, 64, 95
4, 23424, Note_on_c, 0, 61, 95
4, 23424, Note_on_c, 0, 57, 100
4, 23520, Note_on_c, 0, 61, 0
4, 23520, Note_on_c, 0, 64, 0
4, 23520, Note_on_c, 0, 57, 61
4, 23520, Note_on_c, 0, 61, 80
4, 23520, Note_on_c, 0, 64, 80
4, 23568, Note_on_c, 0, 64, 0
4, 23568, Note_on_c, 0, 61, 0
4, 23568, Note_on_c, 0, 57, 0
4, 23568, Note_on_c, 0, 64, 95
4, 23568, Note_on_c, 0, 57, 83
4, 23568, Note_on_c, 0, 61, 80
4, 23616, Note_on_c, 0, 61, 0
4, 23616, Note_on_c, 0, 57, 0
4, 23616, Note_on_c, 0, 64, 0
4, 23616, Note_on_c, 0, 57, 0
4, 23616, Note_on_c, 0, 57, 116
4, 23616, Note_on_c, 0, 64, 80
4, 23616, Note_on_c, 0, 61, 112
4, 23664, Note_on_c, 0, 61, 0
4, 23664, Note_on_c, 0, 64, 0
4, 23664, Note_on_c, 0, 57, 0
4, 23712, Note_on_c, 0, 57, 100
4, 23712, Note_on_c, 0, 66, 80
4, 23712, Note_on_c, 0, 62, 100
4, 23904, Note_on_c, 0, 62, 0
4, 23904, Note_on_c, 0, 66, 0
4, 23904, Note_on_c, 0, 57, 0
4, 23904, Note_on_c, 0, 57, 100
4, 23904, Note_on_c, 0, 66, 80
4, 23904, Note_on_c, 0, 62, 83
4, 23952, Note_on_c, 0, 62, 0
4, 23952, Note_on_c, 0, 66, 0
4, 23952, Note_on_c, 0, 57, 0
4, 23952, Note_on_c, 0, 57, 83
4, 23952, Note_on_c, 0, 66, 80
4, 23952, Note_on_c, 0, 62, 83
4, 24000, Note_on_c, 0, 62, 0
4, 24000, Note_on_c, 0, 66, 0
4, 24000, Note_on_c, 0, 57, 0
4, 24000, Note_on_c, 0, 57, 100
4, 24000, Note_on_c, 0, 62, 116
4, 24000, Note_on_c, 0, 66, 95
4, 24048, Note_on_c, 0, 66, 0
4, 24048, Note_on_c, 0, 62, 0
4, 24048, Note_on_c, 0, 57, 0
4, 24096, Note_on_c, 0, 57, 71
4, 24096, Note_on_c, 0, 62, 83
4, 24096, Note_on_c, 0, 66, 80
4, 24144, Note_on_c, 0, 66, 0
4, 24144, Note_on_c, 0, 62, 0
4, 24144, Note_on_c, 0, 57, 0
4, 24144, Note_on_c, 0, 57, 83
4, 24144, Note_on_c, 0, 66, 80
4, 24144, Note_on_c, 0, 62, 83
4, 24192, Note_on_c, 0, 62, 0
4, 24192, Note_on_c, 0, 66, 0
4, 24192, Note_on_c, 0, 57, 0
4, 24192, Note_on_c, 0, 57, 83
4, 24192, Note_on_c, 0, 66, 95
4, 24192, Note_on_c, 0, 62, 100
4, 24240, Note_on_c, 0, 62, 0
4, 24240, Note_on_c, 0, 66, 0
4, 24240, Note_on_c, 0, 57, 0
4, 24288, Note_on_c, 0, 66, 68
4, 24288, Note_on_c, 0, 62, 83
4, 24288, Note_on_c, 0, 57, 83
4, 24336, Note_on_c, 0, 57, 0
4, 24336, Note_on_c, 0, 62, 0
4, 24336, Note_on_c, 0, 66, 0
4, 24336, Note_on_c, 0, 62, 83
4, 24336, Note_on_c, 0, 57, 83
4, 24336, Note_on_c, 0, 66, 68
4, 24384, Note_on_c, 0, 66, 0
4, 24384, Note_on_c, 0, 57, 0
4, 24384, Note_on_c, 0, 62, 0
4, 24384, Note_on_c, 0, 57, 83
4, 24384, Note_on_c, 0, 66, 80
4, 24384, Note_on_c, 0, 62, 100
4, 24432, Note_on_c, 0, 62, 0
4, 24432, Note_on_c, 0, 66, 0
4, 24432, Note_on_c, 0, 57, 0
4, 24480, Note_on_c, 0, 57, 61
4, 24480, Note_on_c, 0, 62, 71
4, 24480, Note_on_c, 0, 66, 68
4, 24528, Note_on_c, 0, 66, 0
4, 24528, Note_on_c, 0, 62, 0
4, 24528, Note_on_c, 0, 57, 0
4, 24528, Note_on_c, 0, 57, 100
4, 24528, Note_on_c, 0, 66, 95
4, 24528, Note_on_c, 0, 62, 100
4, 24576, Note_on_c, 0, 62, 0
4, 24576, Note_on_c, 0, 66, 0
4, 24576, Note_on_c, 0, 57, 0
4, 24576, Note_on_c, 0, 66, 112
4, 24576, Note_on_c, 0, 57, 83
4, 24576, Note_on_c, 0, 62, 100
4, 24624, Note_on_c, 0, 62, 0
4, 24624, Note_on_c, 0, 57, 0
4, 24624, Note_on_c, 0, 66, 0
4, 24672, Note_on_c, 0, 66, 80
4, 24672, Note_on_c, 0, 57, 83
4, 24672, Note_on_c, 0, 62, 100
4, 24720, Note_on_c, 0, 62, 0
4, 24720, Note_on_c, 0, 57, 0
4, 24720, Note_on_c, 0, 66, 0
4, 24720, Note_on_c, 0, 66, 80
4, 24720, Note_on_c, 0, 57, 83
4, 24720, Note_on_c, 0, 62, 83
4, 24768, Note_on_c, 0, 62, 0
4, 24768, Note_on_c, 0, 57, 0
4, 24768, Note_on_c, 0, 66, 0
4, 24768, Note_on_c, 0, 66, 112
4, 24768, Note_on_c, 0, 62, 100
4, 24768, Note_on_c, 0, 57, 100
4, 24816, Note_on_c, 0, 57, 0
4, 24816, Note_on_c, 0, 62, 0
4, 24816, Note_on_c, 0, 66, 0
4, 24864, Note_on_c, 0, 66, 68
4, 24864, Note_on_c, 0, 57, 83
4, 24864, Note_on_c, 0, 62, 100
4, 24912, Note_on_c, 0, 62, 0
4, 24912, Note_on_c, 0, 57, 0
4, 24912, Note_on_c, 0, 66, 0
4, 24912, Note_on_c, 0, 57, 83
4, 24912, Note_on_c, 0, 66, 80
4, 24912, Note_on_c, 0, 62, 83
4, 24960, Note_on_c, 0, 62, 0
4, 24960, Note_on_c, 0, 66, 0
4, 24960, Note_on_c, 0, 57, 0
4, 24960, Note_on_c, 0, 57, 83
4, 24960, Note_on_c, 0, 64, 80
4, 24960, Note_on_c, 0, 61, 95
4, 25056, Note_on_c, 0, 61, 0
4, 25056, Note_on_c, 0, 64, 0
4, 25056, Note_on_c, 0, 57, 0
4, 25056, Note_on_c, 0, 61, 80
4, 25056, Note_on_c, 0, 57, 83
4, 25056, Note_on_c, 0, 64, 80
4, 25104, Note_on_c, 0, 64, 0
4, 25104, Note_on_c, 0, 57, 0
4, 25104, Note_on_c, 0, 61, 0
4, 25104, Note_on_c, 0, 57, 100
4, 25104, Note_on_c, 0, 61, 95
4, 25104, Note_on_c, 0, 64, 95
4, 25152, Note_on_c, 0, 64, 0
4, 25152, Note_on_c, 0, 61, 0
4, 25152, Note_on_c, 0, 57, 0
4, 25152, Note_on_c, 0, 61, 124
4, 25152, Note_on_c, 0, 57, 100
4, 25152, Note_on_c, 0, 64, 95
4, 25200, Note_on_c, 0, 64, 0
4, 25200, Note_on_c, 0, 57, 0
4, 25200, Note_on_c, 0, 61, 0
4, 25248, Note_on_c, 0, 55, 116
4, 25248, Note_on_c, 0, 62, 100
4, 25248, Note_on_c, 0, 59, 112
4, 25296, Note_on_c, 0, 59, 0
4, 25296, Note_on_c, 0, 62, 0
4, 25296, Note_on_c, 0, 55, 0
4, 25440, Note_on_c, 0, 59, 80
4, 25440, Note_on_c, 0, 62, 61
4, 25440, Note_on_c, 0, 55, 71
4, 25488, Note_on_c, 0, 55, 0
4, 25488, Note_on_c, 0, 62, 0
4, 25488, Note_on_c, 0, 59, 0
4, 25488, Note_on_c, 0, 55, 100
4, 25488, Note_on_c, 0, 59, 80
4, 25488, Note_on_c, 0, 62, 100
4, 25536, Note_on_c, 0, 62, 0
4, 25536, Note_on_c, 0, 59, 0
4, 25536, Note_on_c, 0, 55, 0
4, 25536, Note_on_c, 0, 55, 100
4, 25536, Note_on_c, 0, 59, 80
4, 25536, Note_on_c, 0, 62, 83
4, 25584, Note_on_c, 0, 62, 0
4, 25584, Note_on_c, 0, 59, 0
4, 25584, Note_on_c, 0, 55, 0
4, 25632, Note_on_c, 0, 59, 80
4, 25632, Note_on_c, 0, 62, 71
4, 25632, Note_on_c, 0, 55, 71
4, 25680, Note_on_c, 0, 55, 0
4, 25680, Note_on_c, 0, 62, 0
4, 25680, Note_on_c, 0, 59, 0
4, 25680, Note_on_c, 0, 55, 100
4, 25680, Note_on_c, 0, 59, 95
4, 25680, Note_on_c, 0, 62, 100
4, 25728, Note_on_c, 0, 62, 0
4, 25728, Note_on_c, 0, 59, 0
4, 25728, Note_on_c, 0, 55, 0
4, 25728, Note_on_c, 0, 55, 100
4, 25728, Note_on_c, 0, 59, 112
4, 25728, Note_on_c, 0, 62, 116
4, 25776, Note_on_c, 0, 62, 0
4, 25776, Note_on_c, 0, 59, 0
4, 25776, Note_on_c, 0, 55, 0
4, 25824, Note_on_c, 0, 59, 80
4, 25824, Note_on_c, 0, 62, 71
4, 25824, Note_on_c, 0, 55, 100
4, 25872, Note_on_c, 0, 55, 0
4, 25872, Note_on_c, 0, 62, 0
4, 25872, Note_on_c, 0, 59, 0
4, 25872, Note_on_c, 0, 55, 83
4, 25872, Note_on_c, 0, 62, 71
4, 25872, Note_on_c, 0, 59, 80
4, 25920, Note_on_c, 0, 59, 0
4, 25920, Note_on_c, 0, 62, 0
4, 25920, Note_on_c, 0, 55, 0
4, 25920, Note_on_c, 0, 55, 100
4, 25920, Note_on_c, 0, 62, 83
4, 25920, Note_on_c, 0, 59, 112
4, 25968, Note_on_c, 0, 59, 0
4, 25968, Note_on_c, 0, 62, 0
4, 25968, Note_on_c, 0, 55, 0
4, 26016, Note_on_c, 0, 59, 80
4, 26016, Note_on_c, 0, 55, 83
4, 26016, Note_on_c, 0, 62, 61
4, 26064, Note_on_c, 0, 62, 0
4, 26064, Note_on_c, 0, 55, 0
4, 26064, Note_on_c, 0, 59, 0
4, 26064, Note_on_c, 0, 55, 83
4, 26064, Note_on_c, 0, 62, 83
4, 26064, Note_on_c, 0, 59, 80
4, 26112, Note_on_c, 0, 59, 0
4, 26112, Note_on_c, 0, 62, 0
4, 26112, Note_on_c, 0, 55, 0
4, 26112, Note_on_c, 0, 55, 116
4, 26112, Note_on_c, 0, 59, 112
4, 26112, Note_on_c, 0, 62, 83
4, 26160, Note_on_c, 0, 62, 0
4, 26160, Note_on_c, 0, 59, 0
4, 26160, Note_on_c, 0, 55, 0
4, 26208, Note_on_c, 0, 59, 80
4, 26208, Note_on_c, 0, 55, 71
4, 26208, Note_on_c, 0, 62, 71
4, 26256, Note_on_c, 0, 62, 0
4, 26256, Note_on_c, 0, 55, 0
4, 26256, Note_on_c, 0, 59, 0
4, 26256, Note_on_c, 0, 55, 83
4, 26256, Note_on_c, 0, 59, 95
4, 26256, Note_on_c, 0, 62, 83
4, 26304, Note_on_c, 0, 62, 0
4, 26304, Note_on_c, 0, 59, 0
4, 26304, Note_on_c, 0, 55, 0
4, 26304, Note_on_c, 0, 55, 116
4, 26304, Note_on_c, 0, 59, 112
4, 26304, Note_on_c, 0, 62, 100
4, 26352, Note_on_c, 0, 62, 0
4, 26352, Note_on_c, 0, 59, 0
4, 26352, Note_on_c, 0, 55, 0
4, 26400, Note_on_c, 0, 59, 95
4, 26400, Note_on_c, 0, 55, 83
4, 26400, Note_on_c, 0, 62, 71
4, 26448, Note_on_c, 0, 62, 0
4, 26448, Note_on_c, 0, 55, 0
4, 26448, Note_on_c, 0, 59, 0
4, 26448, Note_on_c, 0, 55, 100
4, 26448, Note_on_c, 0, 59, 80
4, 26448, Note_on_c, 0, 62, 83
4, 26496, Note_on_c, 0, 62, 0
4, 26496, Note_on_c, 0, 59, 0
4, 26496, Note_on_c, 0, 55, 0
4, 26496, Note_on_c, 0, 64, 95
4, 26496, Note_on_c, 0, 61, 95
4, 26496, Note_on_c, 0, 57, 100
4, 26592, Note_on_c, 0, 61, 0
4, 26592, Note_on_c, 0, 64, 0
4, 26592, Note_on_c, 0, 57, 61
4, 26592, Note_on_c, 0, 61, 80
4, 26592, Note_on_c, 0, 64, 80
4, 26640, Note_on_c, 0, 64, 0
4, 26640, Note_on_c, 0, 61, 0
4, 26640, Note_on_c, 0, 57, 0
4, 26640, Note_on_c, 0, 64, 95
4, 26640, Note_on_c, 0, 57, 83
4, 26640, Note_on_c, 0, 61, 80
4, 26688, Note_on_c, 0, 61, 0
4, 26688, Note_on_c, 0, 57, 0
4, 26688, Note_on_c, 0, 64, 0
4, 26688, Note_on_c, 0, 57, 0
4, 26688, Note_on_c, 0, 57, 116
4, 26688, Note_on_c, 0, 64, 80
4, 26688, Note_on_c, 0, 61, 112
4, 26736, Note_on_c, 0, 61, 0
4, 26736, Note_on_c, 0, 64, 0
4, 26736, Note_on_c, 0, 57, 0
4, 26784, Note_on_c, 0, 57, 100
4, 26784, Note_on_c, 0, 66, 80
4, 26784, Note_on_c, 0, 62, 100
4, 26976, Note_on_c, 0, 62, 0
4, 26976, Note_on_c, 0, 66, 0
4, 26976, Note_on_c, 0, 57, 0
4, 26976, Note_on_c, 0, 57, 100
4, 26976, Note_on_c, 0, 66, 80
4, 26976, Note_on_c, 0, 62, 83
4, 27024, Note_on_c, 0, 62, 0
4, 27024, Note_on_c, 0, 66, 0
4, 27024, Note_on_c, 0, 57, 0
4, 27024, Note_on_c, 0, 57, 83
4, 27024, Note_on_c, 0, 66, 80
4, 27024, Note_on_c, 0, 62, 83
4, 27072, Note_on_c, 0, 62, 0
4, 27072, Note_on_c, 0, 66, 0
4, 27072, Note_on_c, 0, 57, 0
4, 27072, Note_on_c, 0, 57, 100
4, 27072, Note_on_c, 0, 62, 116
4, 27072, Note_on_c, 0, 66, 95
4, 27120, Note_on_c, 0, 66, 0
4, 27120, Note_on_c, 0, 62, 0
4, 27120, Note_on_c, 0, 57, 0
4, 27168, Note_on_c, 0, 57, 71
4, 27168, Note_on_c, 0, 62, 83
4, 27168, Note_on_c, 0, 66, 80
4, 27216, Note_on_c, 0, 66, 0
4, 27216, Note_on_c, 0, 62, 0
4, 27216, Note_on_c, 0, 57, 0
4, 27216, Note_on_c, 0, 57, 83
4, 27216, Note_on_c, 0, 66, 80
4, 27216, Note_on_c, 0, 62, 83
4, 27264, Note_on_c, 0, 62, 0
4, 27264, Note_on_c, 0, 66, 0
4, 27264, Note_on_c, 0, 57, 0
4, 27264, Note_on_c, 0, 57, 83
4, 27264, Note_on_c, 0, 66, 95
4, 27264, Note_on_c, 0, 62, 100
4, 27312, Note_on_c, 0, 62, 0
4, 27312, Note_on_c, 0, 66, 0
4, 27312, Note_on_c, 0, 57, 0
4, 27360, Note_on_c, 0, 66, 68
4, 27360, Note_on_c, 0, 62, 83
4, 27360, Note_on_c, 0, 57, 83
4, 27408, Note_on_c, 0, 57, 0
4, 27408, Note_on_c, 0, 62, 0
4, 27408, Note_on_c, 0, 66, 0
4, 27408, Note_on_c, 0, 62, 83
4, 27408, Note_on_c, 0, 57, 83
4, 27408, Note_on_c, 0, 66, 68
4, 27456, Note_on_c, 0, 66, 0
4, 27456, Note_on_c, 0, 57, 0
4, 27456, Note_on_c, 0, 62, 0
4, 27456, Note_on_c, 0, 57, 83
4, 27456, Note_on_c, 0, 66, 80
4, 27456, Note_on_c, 0, 62, 100
4, 27504, Note_on_c, 0, 62, 0
4, 27504, Note_on_c, 0, 66, 0
4, 27504, Note_on_c, 0, 57, 0
4, 27552, Note_on_c, 0, 57, 61
4, 27552, Note_on_c, 0, 62, 71
4, 27552, Note_on_c, 0, 66, 68
4, 27600, Note_on_c, 0, 66, 0
4, 27600, Note_on_c, 0, 62, 0
4, 27600, Note_on_c, 0, 57, 0
4, 27600, Note_on_c, 0, 57, 100
4, 27600, Note_on_c, 0, 66, 95
4, 27600, Note_on_c, 0, 62, 100
4, 27648, Note_on_c, 0, 62, 0
4, 27648, Note_on_c, 0, 66, 0
4, 27648, Note_on_c, 0, 57, 0
4, 27648, Note_on_c, 0, 66, 112
4, 27648, Note_on_c, 0, 57, 83
4, 27648, Note_on_c, 0, 62, 100
4, 27696, Note_on_c, 0, 62, 0
4, 27696, Note_on_c, 0, 57, 0
4, 27696, Note_on_c, 0, 66, 0
4, 27744, Note_on_c, 0, 66, 80
4, 27744, Note_on_c, 0, 57, 83
4, 27744, Note_on_c, 0, 62, 100
4, 27792, Note_on_c, 0, 62, 0
4, 27792, Note_on_c, 0, 57, 0
4, 27792, Note_on_c, 0, 66, 0
4, 27792, Note_on_c, 0, 66, 80
4, 27792, Note_on_c, 0, 57, 83
4, 27792, Note_on_c, 0, 62, 83
4, 27840, Note_on_c, 0, 62, 0
4, 27840, Note_on_c, 0, 57, 0
4, 27840, Note_on_c, 0, 66, 0
4, 27840, Note_on_c, 0, 66, 112
4, 27840, Note_on_c, 0, 62, 100
4, 27840, Note_on_c, 0, 57, 100
4, 27888, Note_on_c, 0, 57, 0
4, 27888, Note_on_c, 0, 62, 0
4, 27888, Note_on_c, 0, 66, 0
4, 27936, Note_on_c, 0, 66, 68
4, 27936, Note_on_c, 0, 57, 83
4, 27936, Note_on_c, 0, 62, 100
4, 27984, Note_on_c, 0, 62, 0
4, 27984, Note_on_c, 0, 57, 0
4, 27984, Note_on_c, 0, 66, 0
4, 27984, Note_on_c, 0, 57, 83
4, 27984, Note_on_c, 0, 66, 80
4, 27984, Note_on_c, 0, 62, 83
4, 28032, Note_on_c, 0, 62, 0
4, 28032, Note_on_c, 0, 66, 0
4, 28032, Note_on_c, 0, 57, 0
4, 28032, Note_on_c, 0, 57, 83
4, 28032, Note_on_c, 0, 64, 80
4, 28032, Note_on_c, 0, 61, 95
4, 28128, Note_on_c, 0, 61, 0
4, 28128, Note_on_c, 0, 64, 0
4, 28128, Note_on_c, 0, 57, 0
4, 28128, Note_on_c, 0, 61, 80
4, 28128, Note_on_c, 0, 57, 83
4, 28128, Note_on_c, 0, 64, 80
4, 28176, Note_on_c, 0, 64, 0
4, 28176, Note_on_c, 0, 57, 0
4, 28176, Note_on_c, 0, 61, 0
4, 28176, Note_on_c, 0, 57, 100
4, 28176, Note_on_c, 0, 61, 95
4, 28176, Note_on_c, 0, 64, 95
4, 28224, Note_on_c, 0, 64, 0
4, 28224, Note_on_c, 0, 61, 0
4, 28224, Note_on_c, 0, 57, 0
4, 28224, Note_on_c, 0, 61, 124
4, 28224, Note_on_c, 0, 57, 100
4, 28224, Note_on_c, 0, 64, 95
4, 28272, Note_on_c, 0, 64, 0
4, 28272, Note_on_c, 0, 57, 0
4, 28272, Note_on_c, 0, 61, 0
4, 28320, Note_on_c, 0, 55, 116
4, 28320, Note_on_c, 0, 62, 100
4, 28320, Note_on_c, 0, 59, 112
4, 28368, Note_on_c, 0, 59, 0
4, 28368, Note_on_c, 0, 62, 0
4, 28368, Note_on_c, 0, 55, 0
4, 28512, Note_on_c, 0, 59, 80
4, 28512, Note_on_c, 0, 62, 61
4, 28512, Note_on_c, 0, 55, 71
4, 28560, Note_on_c, 0, 55, 0
4, 28560, Note_on_c, 0, 62, 0
4, 28560, Note_on_c, 0, 59, 0
4, 28560, Note_on_c, 0, 55, 100
4, 28560, Note_on_c, 0, 59, 80
4, 28560, Note_on_c, 0, 62, 100
4, 28608, Note_on_c, 0, 62, 0
4, 28608, Note_on_c, 0, 59, 0
4, 28608, Note_on_c, 0, 55, 0
4, 28608, Note_on_c, 0, 55, 100
4, 28608, Note_on_c, 0, 59, 80
4, 28608, Note_on_c, 0, 62, 83
4, 28656, Note_on_c, 0, 62, 0
4, 28656, Note_on_c, 0, 59, 0
4, 28656, Note_on_c, 0, 55, 0
4, 28704, Note_on_c, 0, 59, 80
4, 28704, Note_on_c, 0, 62, 71
4, 28704, Note_on_c, 0, 55, 71
4, 28752, Note_on_c, 0, 55, 0
4, 28752, Note_on_c, 0, 62, 0
4, 28752, Note_on_c, 0, 59, 0
4, 28752, Note_on_c, 0, 55, 100
4, 28752, Note_on_c, 0, 59, 95
4, 28752, Note_on_c, 0, 62, 100
4, 28800, Note_on_c, 0, 62, 0
4, 28800, Note_on_c, 0, 59, 0
4, 28800, Note_on_c, 0, 55, 0
4, 28800, Note_on_c, 0, 55, 100
4, 28800, Note_on_c, 0, 59, 112
4, 28800, Note_on_c, 0, 62, 116
4, 28848, Note_on_c, 0, 62, 0
4, 28848, Note_on_c, 0, 59, 0
4, 28848, Note_on_c, 0, 55, 0
4, 28896, Note_on_c, 0, 59, 80
4, 28896, Note_on_c, 0, 62, 71
4, 28896, Note_on_c, 0, 55, 100
4, 28944, Note_on_c, 0, 55, 0
4, 28944, Note_on_c, 0, 62, 0
4, 28944, Note_on_c, 0, 59, 0
4, 28944, Note_on_c, 0, 55, 83
4, 28944, Note_on_c, 0, 62, 71
4, 28944, Note_on_c, 0, 59, 80
4, 28992, Note_on_c, 0, 59, 0
4, 28992, Note_on_c, 0, 62, 0
4, 28992, Note_on_c, 0, 55, 0
4, 28992, Note_on_c, 0, 55, 100
4, 28992, Note_on_c, 0, 62, 83
4, 28992, Note_on_c, 0, 59, 112
4, 29040, Note_on_c, 0, 59, 0
4, 29040, Note_on_c, 0, 62, 0
4, 29040, Note_on_c, 0, 55, 0
4, 29088, Note_on_c, 0, 59, 80
4, 29088, Note_on_c, 0, 55, 83
4, 29088, Note_on_c, 0, 62, 61
4, 29136, Note_on_c, 0, 62, 0
4, 29136, Note_on_c, 0, 55, 0
4, 29136, Note_on_c, 0, 59, 0
4, 29136, Note_on_c, 0, 55, 83
4, 29136, Note_on_c, 0, 62, 83
4, 29136, Note_on_c, 0, 59, 80
4, 29184, Note_on_c, 0, 59, 0
4, 29184, Note_on_c, 0, 62, 0
4, 29184, Note_on_c, 0, 55, 0
4, 29184, Note_on_c, 0, 55, 116
4, 29184, Note_on_c, 0, 59, 112
4, 29184, Note_on_c, 0, 62, 83
4, 29232, Note_on_c, 0, 62, 0
4, 29232, Note_on_c, 0, 59, 0
4, 29232, Note_on_c, 0, 55, 0
4, 29280, Note_on_c, 0, 59, 80
4, 29280, Note_on_c, 0, 55, 71
4, 29280, Note_on_c, 0, 62, 71
4, 29328, Note_on_c, 0, 62, 0
4, 29328, Note_on_c, 0, 55, 0
4, 29328, Note_on_c, 0, 59, 0
4, 29328, Note_on_c, 0, 55, 83
4, 29328, Note_on_c, 0, 59, 95
4, 29328, Note_on_c, 0, 62, 83
4, 29376, Note_on_c, 0, 62, 0
4, 29376, Note_on_c, 0, 59, 0
4, 29376, Note_on_c, 0, 55, 0
4, 29376, Note_on_c, 0, 55, 116
4, 29376, Note_on_c, 0, 59, 112
4, 29376, Note_on_c, 0, 62, 100
4, 29424, Note_on_c, 0, 62, 0
4, 29424, Note_on_c, 0, 59, 0
4, 29424, Note_on_c, 0, 55, 0
4, 29472, Note_on_c, 0, 59, 95
4, 29472, Note_on_c, 0, 55, 83
4, 29472, Note_on_c, 0, 62, 71
4, 29520, Note_on_c, 0, 62, 0
4, 29520, Note_on_c, 0, 55, 0
4, 29520, Note_on_c, 0, 59, 0
4, 29520, Note_on_c, 0, 55, 100
4, 29520, Note_on_c, 0, 59, 80
4, 29520, Note_on_c, 0, 62, 83
4, 29568, Note_on_c, 0, 62, 0
4, 29568, Note_on_c, 0, 59, 0
4, 29568, Note_on_c, 0, 55, 0
4, 29568, Note_on_c, 0, 64, 95
4, 29568, Note_on_c, 0, 61, 95
4, 29568, Note_on_c, 0, 57, 100
4, 29664, Note_on_c, 0, 61, 0
4, 29664, Note_on_c, 0, 64, 0
4, 29664, Note_on_c, 0, 57, 61
4, 29664, Note_on_c, 0, 61, 80
4, 29664, Note_on_c, 0, 64, 80
4, 29712, Note_on_c, 0, 64, 0
4, 29712, Note_on_c, 0, 61, 0
4, 29712, Note_on_c, 0, 57, 0
4, 29712, Note_on_c, 0, 64, 95
4, 29712, Note_on_c, 0, 57, 83
4, 29712, Note_on_c, 0, 61, 80
4, 29760, Note_on_c, 0, 61, 0
4, 29760, Note_on_c, 0, 57, 0
4, 29760, Note_on_c, 0, 64, 0
4, 29760, Note_on_c, 0, 57, 0
4, 29760, Note_on_c, 0, 57, 116
4, 29760, Note_on_c, 0, 64, 80
4, 29760, Note_on_c, 0, 61, 112
4, 29808, Note_on_c, 0, 61, 0
4, 29808, Note_on_c, 0, 64, 0
4, 29808, Note_on_c, 0, 57, 0
4, 29856, Note_on_c, 0, 57, 100
4, 29856, Note_on_c, 0, 66, 80
4, 29856, Note_on_c, 0, 62, 100
4, 30048, Note_on_c, 0, 62, 0
4, 30048, Note_on_c, 0, 66, 0
4, 30048, Note_on_c, 0, 57, 0
4, 30048, Note_on_c, 0, 57, 100
4, 30048, Note_on_c, 0, 66, 80
4, 30048, Note_on_c, 0, 62, 83
4, 30096, Note_on_c, 0, 62, 0
4, 30096, Note_on_c, 0, 66, 0
4, 30096, Note_on_c, 0, 57, 0
4, 30096, Note_on_c, 0, 57, 83
4, 30096, Note_on_c, 0, 66, 80
4, 30096, Note_on_c, 0, 62, 83
4, 30144, Note_on_c, 0, 62, 0
4, 30144, Note_on_c, 0, 66, 0
4, 30144, Note_on_c, 0, 57, 0
4, 30144, Note_on_c, 0, 57, 100
4, 30144, Note_on_c, 0, 62, 116
4, 30144, Note_on_c, 0, 66, 95
4, 30192, Note_on_c, 0, 66, 0
4, 30192, Note_on_c, 0, 62, 0
4, 30192, Note_on_c, 0, 57, 0
4, 30240, Note_on_c, 0, 57, 71
4, 30240, Note_on_c, 0, 62, 83
4, 30240, Note_on_c, 0, 66, 80
4, 30288, Note_on_c, 0, 66, 0
4, 30288, Note_on_c, 0, 62, 0
4, 30288, Note_on_c, 0, 57, 0
4, 30288, Note_on_c, 0, 57, 83
4, 30288, Note_on_c, 0, 66, 80
4, 30288, Note_on_c, 0, 62, 83
4, 30336, Note_on_c, 0, 62, 0
4, 30336, Note_on_c, 0, 66, 0
4, 30336, Note_on_c, 0, 57, 0
4, 30336, Note_on_c, 0, 57, 83
4, 30336, Note_on_c, 0, 66, 95
4, 30336, Note_on_c, 0, 62, 100
4, 30384, Note_on_c, 0, 62, 0
4, 30384, Note_on_c, 0, 66, 0
4, 30384, Note_on_c, 0, 57, 0
4, 30432, Note_on_c, 0, 66, 68
4, 30432, Note_on_c, 0, 62, 83
4, 30432, Note_on_c, 0, 57, 83
4, 30480, Note_on_c, 0, 57, 0
4, 30480, Note_on_c, 0, 62, 0
4, 30480, Note_on_c, 0, 66, 0
4, 30480, Note_on_c, 0, 62, 83
4, 30480, Note_on_c, 0, 57, 83
4, 30480, Note_on_c, 0, 66, 68
4, 30528, Note_on_c, 0, 66, 0
4, 30528, Note_on_c, 0, 57, 0
4, 30528, Note_on_c, 0, 62, 0
4, 30528, Note_on_c, 0, 57, 83
4, 30528, Note_on_c, 0, 66, 80
4, 30528, Note_on_c, 0, 62, 100
4, 30576, Note_on_c, 0, 62, 0
4, 30576, Note_on_c, 0, 66, 0
4, 30576, Note_on_c, 0, 57, 0
4, 30624, Note_on_c, 0, 57, 61
4, 30624, Note_on_c, 0, 62, 71
4, 30624, Note_on_c, 0, 66, 68
4, 30672, Note_on_c, 0, 66, 0
4, 30672, Note_on_c, 0, 62, 0
4, 30672, Note_on_c, 0, 57, 0
4, 30672, Note_on_c, 0, 57, 100
4, 30672, Note_on_c, 0, 66, 95
4, 30672, Note_on_c, 0, 62, 100
4, 30720, Note_on_c, 0, 62, 0
4, 30720, Note_on_c, 0, 66, 0
4, 30720, Note_on_c, 0, 57, 0
4, 30720, Note_on_c, 0, 66, 112
4, 30720, Note_on_c, 0, 57, 83
4, 30720, Note_on_c, 0, 62, 100
4, 30768, Note_on_c, 0, 62, 0
4, 30768, Note_on_c, 0, 57, 0
4, 30768, Note_on_c, 0, 66, 0
4, 30816, Note_on_c, 0, 66, 80
4, 30816, Note_on_c, 0, 57, 83
4, 30816, Note_on_c, 0, 62, 100
4, 30864, Note_on_c, 0, 62, 0
4, 30864, Note_on_c, 0, 57, 0
4, 30864, Note_on_c, 0, 66, 0
4, 30864, Note_on_c, 0, 66, 80
4, 30864, Note_on_c, 0, 57, 83
4, 30864, Note_on_c, 0, 62, 83
4, 30912, Note_on_c, 0, 62, 0
4, 30912, Note_on_c, 0, 57, 0
4, 30912, Note_on_c, 0, 66, 0
4, 30912, Note_on_c, 0, 66, 112
4, 30912, Note_on_c, 0, 62, 100
4, 30912, Note_on_c, 0, 57, 100
4, 30960, Note_on_c, 0, 57, 0
4, 30960, Note_on_c, 0, 62, 0
4, 30960, Note_on_c, 0, 66, 0
4, 31008, Note_on_c, 0, 66, 68
4, 31008, Note_on_c, 0, 57, 83
4, 31008, Note_on_c, 0, 62, 100
4, 31056, Note_on_c, 0, 62, 0
4, 31056, Note_on_c, 0, 57, 0
4, 31056, Note_on_c, 0, 66, 0
4, 31056, Note_on_c, 0, 57, 83
4, 31056, Note_on_c, 0, 66, 80
4, 31056, Note_on_c, 0, 62, 83
4, 31104, Note_on_c, 0, 62, 0
4, 31104, Note_on_c, 0, 66, 0
4, 31104, Note_on_c, 0, 57, 0
4, 31104, Note_on_c, 0, 57, 83
4, 31104, Note_on_c, 0, 64, 80
4, 31104, Note_on_c, 0, 61, 95
4, 31200, Note_on_c, 0, 61, 0
4, 31200, Note_on_c, 0, 64, 0
4, 31200, Note_on_c, 0, 57, 0
4, 31200, Note_on_c, 0, 61, 80
4, 31200, Note_on_c, 0, 57, 83
4, 31200, Note_on_c, 0, 64, 80
4, 31248, Note_on_c, 0, 64, 0
4, 31248, Note_on_c, 0, 57, 0
4, 31248, Note_on_c, 0, 61, 0
4, 31248, Note_on_c, 0, 57, 100
4, 31248, Note_on_c, 0, 61, 95
4, 31248, Note_on_c, 0, 64, 95
4, 31296, Note_on_c, 0, 64, 0
4, 31296, Note_on_c, 0, 61, 0
4, 31296, Note_on_c, 0, 57, 0
4, 31296, Note_on_c, 0, 61, 124
4, 31296, Note_on_c, 0, 57, 100
4, 31296, Note_on_c, 0, 64, 95
4, 31344, Note_on_c, 0, 64, 0
4, 31344, Note_on_c, 0, 57, 0
4, 31344, Note_on_c, 0, 61, 0
4, 31392, Note_on_c, 0, 55, 116
4, 31392, Note_on_c, 0, 62, 100
4, 31392, Note_on_c, 0, 59, 112
4, 31440, Note_on_c, 0, 59, 0
4, 31440, Note_on_c, 0, 62, 0
4, 31440, Note_on_c, 0, 55, 0
4, 31584, Note_on_c, 0, 59, 80
4, 31584, Note_on_c, 0, 62, 61
4, 31584, Note_on_c, 0, 55, 71
4, 31632, Note_on_c, 0, 55, 0
4, 31632, Note_on_c, 0, 62, 0
4, 31632, Note_on_c, 0, 59, 0
4, 31632, Note_on_c, 0, 55, 100
4, 31632, Note_on_c, 0, 59, 80
4, 31632, Note_on_c, 0, 62, 100
4, 31680, Note_on_c, 0, 62, 0
4, 31680, Note_on_c, 0, 59, 0
4, 31680, Note_on_c, 0, 55, 0
4, 31680, Note_on_c, 0, 55, 100
4, 31680, Note_on_c, 0, 59, 80
4, 31680, Note_on_c, 0, 62, 83
4, 31728, Note_on_c, 0, 62, 0
4, 31728, Note_on_c, 0, 59, 0
4, 31728, Note_on_c, 0, 55, 0
4, 31776, Note_on_c, 0, 59, 80
4, 31776, Note_on_c, 0, 62, 71
4, 31776, Note_on_c, 0, 55, 71
4, 31824, Note_on_c, 0, 55, 0
4, 31824, Note_on_c, 0, 62, 0
4, 31824, Note_on_c, 0, 59, 0
4, 31824, Note_on_c, 0, 55, 100
4, 31824, Note_on_c, 0, 59, 95
4, 31824, Note_on_c, 0, 62, 100
4, 31872, Note_on_c, 0, 62, 0
4, 31872, Note_on_c, 0, 59, 0
4, 31872, Note_on_c, 0, 55, 0
4, 31872, Note_on_c, 0, 55, 100
4, 31872, Note_on_c, 0, 59, 112
4, 31872, Note_on_c, 0, 62, 116
4, 31920, Note_on_c, 0, 62, 0
4, 31920, Note_on_c, 0, 59, 0
4, 31920, Note_on_c, 0, 55, 0
4, 31968, Note_on_c, 0, 59, 80
4, 31968, Note_on_c, 0, 62, 71
4, 31968, Note_on_c, 0, 55, 100
4, 32016, Note_on_c, 0, 55, 0
4, 32016, Note_on_c, 0, 62, 0
4, 32016, Note_on_c, 0, 59, 0
4, 32016, Note_on_c, 0, 55, 83
4, 32016, Note_on_c, 0, 62, 71
4, 32016, Note_on_c, 0, 59, 80
4, 32064, Note_on_c, 0, 59, 0
4, 32064, Note_on_c, 0, 62, 0
4, 32064, Note_on_c, 0, 55, 0
4, 32064, Note_on_c, 0, 55, 100
4, 32064, Note_on_c, 0, 62, 83
4, 32064, Note_on_c, 0, 59, 112
4, 32112, Note_on_c, 0, 59, 0
4, 32112, Note_on_c, 0, 62, 0
4, 32112, Note_on_c, 0, 55, 0
4, 32160, Note_on_c, 0, 59, 80
4, 32160, Note_on_c, 0, 55, 83
4, 32160, Note_on_c, 0, 62, 61
4, 32208, Note_on_c, 0, 62, 0
4, 32208, Note_on_c, 0, 55, 0
4, 32208, Note_on_c, 0, 59, 0
4, 32208, Note_on_c, 0, 55, 83
4, 32208, Note_on_c, 0, 62, 83
4, 32208, Note_on_c, 0, 59, 80
4, 32256, Note_on_c, 0, 59, 0
4, 32256, Note_on_c, 0, 62, 0
4, 32256, Note_on_c, 0, 55, 0
4, 32256, Note_on_c, 0, 55, 116
4, 32256, Note_on_c, 0, 59, 112
4, 32256, Note_on_c, 0, 62, 83
4, 32304, Note_on_c, 0, 62, 0
4, 32304, Note_on_c, 0, 59, 0
4, 32304, Note_on_c, 0, 55, 0
4, 32352, Note_on_c, 0, 59, 80
4, 32352, Note_on_c, 0, 55, 71
4, 32352, Note_on_c, 0, 62, 71
4, 32400, Note_on_c, 0, 62, 0
4, 32400, Note_on_c, 0, 55, 0
4, 32400, Note_on_c, 0, 59, 0
4, 32400, Note_on_c, 0, 55, 83
4, 32400, Note_on_c, 0, 59, 95
4, 32400, Note_on_c, 0, 62, 83
4, 32448, Note_on_c, 0, 62, 0
4, 32448, Note_on_c, 0, 59, 0
4, 32448, Note_on_c, 0, 55, 0
4, 32448, Note_on_c, 0, 55, 116
4, 32448, Note_on_c, 0, 59, 112
4, 32448, Note_on_c, 0, 62, 100
4, 32496, Note_on_c, 0, 62, 0
4, 32496, Note_on_c, 0, 59, 0
4, 32496, Note_on_c, 0, 55, 0
4, 32544, Note_on_c, 0, 59, 95
4, 32544, Note_on_c, 0, 55, 83
4, 32544, Note_on_c, 0, 62, 71
4, 32592, Note_on_c, 0, 62, 0
4, 32592, Note_on_c, 0, 55, 0
4, 32592, Note_on_c, 0, 59, 0
4, 32592, Note_on_c, 0, 55, 100
4, 32592, Note_on_c, 0, 59, 80
4, 32592, Note_on_c, 0, 62, 83
4, 32640, Note_on_c, 0, 62, 0
4, 32640, Note_on_c, 0, 59, 0
4, 32640, Note_on_c, 0, 55, 0
4, 32640, Note_on_c, 0, 64, 95
4, 32640, Note_on_c, 0, 61, 95
4, 32640, Note_on_c, 0, 57, 100
4, 32736, Note_on_c, 0, 61, 0
4, 32736, Note_on_c, 0, 64, 0
4, 32736, Note_on_c, 0, 57, 61
4, 32736, Note_on_c, 0, 61, 80
4, 32736, Note_on_c, 0, 64, 80
4, 32784, Note_on_c, 0, 64, 0
4, 32784, Note_on_c, 0, 61, 0
4, 32784, Note_on_c, 0, 57, 0
4, 32784, Note_on_c, 0, 64, 95
4, 32784, Note_on_c, 0, 57, 83
4, 32784, Note_on_c, 0, 61, 80
4, 32832, Note_on_c, 0, 61, 0
4, 32832, Note_on_c, 0, 57, 0
4, 32832, Note_on_c, 0, 64, 0
4, 32832, Note_on_c, 0, 57, 0
4, 32832, Note_on_c, 0, 57, 116
4, 32832, Note_on_c, 0, 64, 80
4, 32832, Note_on_c, 0, 61, 112
4, 32880, Note_on_c, 0, 61, 0
4, 32880, Note_on_c, 0, 64, 0
4, 32880, Note_on_c, 0, 57, 0
4, 32928, Note_on_c, 0, 57, 100
4, 32928, Note_on_c, 0, 66, 80
4, 32928, Note_on_c, 0, 62, 100
4, 33120, Note_on_c, 0, 62, 0
4, 33120, Note_on_c, 0, 66, 0
4, 33120, Note_on_c, 0, 57, 0
4, 33120, Note_on_c, 0, 57, 100
4, 33120, Note_on_c, 0, 66, 80
4, 33120, Note_on_c, 0, 62, 83
4, 33168, Note_on_c, 0, 62, 0
4, 33168, Note_on_c, 0, 66, 0
4, 33168, Note_on_c, 0, 57, 0
4, 33168, Note_on_c, 0, 57, 83
4, 33168, Note_on_c, 0, 66, 80
4, 33168, Note_on_c, 0, 62, 83
4, 33216, Note_on_c, 0, 62, 0
4, 33216, Note_on_c, 0, 66, 0
4, 33216, Note_on_c, 0, 57, 0
4, 33216, Note_on_c, 0, 57, 100
4, 33216, Note_on_c, 0, 62, 116
4, 33216, Note_on_c, 0, 66, 95
4, 33264, Note_on_c, 0, 66, 0
4, 33264, Note_on_c, 0, 62, 0
4, 33264, Note_on_c, 0, 57, 0
4, 33312, Note_on_c, 0, 57, 71
4, 33312, Note_on_c, 0, 62, 83
4, 33312, Note_on_c, 0, 66, 80
4, 33360, Note_on_c, 0, 66, 0
4, 33360, Note_on_c, 0, 62, 0
4, 33360, Note_on_c, 0, 57, 0
4, 33360, Note_on_c, 0, 57, 83
4, 33360, Note_on_c, 0, 66, 80
4, 33360, Note_on_c, 0, 62, 83
4, 33408, Note_on_c, 0, 62, 0
4, 33408, Note_on_c, 0, 66, 0
4, 33408, Note_on_c, 0, 57, 0
4, 33408, Note_on_c, 0, 57, 83
4, 33408, Note_on_c, 0, 66, 95
4, 33408, Note_on_c, 0, 62, 100
4, 33456, Note_on_c, 0, 62, 0
4, 33456, Note_on_c, 0, 66, 0
4, 33456, Note_on_c, 0, 57, 0
4, 33504, Note_on_c, 0, 66, 68
4, 33504, Note_on_c, 0, 62, 83
4, 33504, Note_on_c, 0, 57, 83
4, 33552, Note_on_c, 0, 57, 0
4, 33552, Note_on_c, 0, 62, 0
4, 33552, Note_on_c, 0, 66, 0
4, 33552, Note_on_c, 0, 62, 83
4, 33552, Note_on_c, 0, 57, 83
4, 33552, Note_on_c, 0, 66, 68
4, 33600, Note_on_c, 0, 66, 0
4, 33600, Note_on_c, 0, 57, 0
4, 33600, Note_on_c, 0, 62, 0
4, 33600, Note_on_c, 0, 57, 83
4, 33600, Note_on_c, 0, 66, 80
4, 33600, Note_on_c, 0, 62, 100
4, 33648, Note_on_c, 0, 62, 0
4, 33648, Note_on_c, 0, 66, 0
4, 33648, Note_on_c, 0, 57, 0
4, 33696, Note_on_c, 0, 57, 61
4, 33696, Note_on_c, 0, 62, 71
4, 33696, Note_on_c, 0, 66, 68
4, 33744, Note_on_c, 0, 66, 0
4, 33744, Note_on_c, 0, 62, 0
4, 33744, Note_on_c, 0, 57, 0
4, 33744, Note_on_c, 0, 57, 100
4, 33744, Note_on_c, 0, 66, 95
4, 33744, Note_on_c, 0, 62, 100
4, 33792, Note_on_c, 0, 62, 0
4, 33792, Note_on_c, 0, 66, 0
4, 33792, Note_on_c, 0, 57, 0
4, 33792, Note_on_c, 0, 66, 112
4, 33792, Note_on_c, 0, 57, 83
4, 33792, Note_on_c, 0, 62, 100
4, 33840, Note_on_c, 0, 62, 0
4, 33840, Note_on_c, 0, 57, 0
4, 33840, Note_on_c, 0, 66, 0
4, 33888, Note_on_c, 0, 66, 80
4, 33888, Note_on_c, 0, 57, 83
4, 33888, Note_on_c, 0, 62, 100
4, 33936, Note_on_c, 0, 62, 0
4, 33936, Note_on_c, 0, 57, 0
4, 33936, Note_on_c, 0, 66, 0
4, 33936, Note_on_c, 0, 66, 80
4, 33936, Note_on_c, 0, 57, 83
4, 33936, Note_on_c, 0, 62, 83
4, 33984, Note_on_c, 0, 62, 0
4, 33984, Note_on_c, 0, 57, 0
4, 33984, Note_on_c, 0, 66, 0
4, 33984, Note_on_c, 0, 66, 112
4, 33984, Note_on_c, 0, 62, 100
4, 33984, Note_on_c, 0, 57, 100
4, 34032, Note_on_c, 0, 57, 0
4, 34032, Note_on_c, 0, 62, 0
4, 34032, Note_on_c, 0, 66, 0
4, 34080, Note_on_c, 0, 66, 68
4, 34080, Note_on_c, 0, 57, 83
4, 34080, Note_on_c, 0, 62, 100
4, 34128, Note_on_c, 0, 62, 0
4, 34128, Note_on_c, 0, 57, 0
4, 34128, Note_on_c, 0, 66, 0
4, 34128, Note_on_c, 0, 57, 83
4, 34128, Note_on_c, 0, 66, 80
4, 34128, Note_on_c, 0, 62, 83
4, 34176, Note_on_c, 0, 62, 0
4, 34176, Note_on_c, 0, 66, 0
4, 34176, Note_on_c, 0, 57, 0
4, 34176, Note_on_c, 0, 57, 83
4, 34176, Note_on_c, 0, 64, 80
4, 34176, Note_on_c, 0, 61, 95
4, 34272, Note_on_c, 0, 61, 0
4, 34272, Note_on_c, 0, 64, 0
4, 34272, Note_on_c, 0, 57, 0
4, 34272, Note_on_c, 0, 61, 80
4, 34272, Note_on_c, 0, 57, 83
4, 34272, Note_on_c, 0, 64, 80
4, 34320, Note_on_c, 0, 64, 0
4, 34320, Note_on_c, 0, 57, 0
4, 34320, Note_on_c, 0, 61, 0
4, 34320, Note_on_c, 0, 57, 100
4, 34320, Note_on_c, 0, 61, 95
4, 34320, Note_on_c, 0, 64, 95
4, 34368, Note_on_c, 0, 64, 0
4, 34368, Note_on_c, 0, 61, 0
4, 34368, Note_on_c, 0, 57, 0
4, 34368, Note_on_c, 0, 61, 124
4, 34368, Note_on_c, 0, 57, 100
4, 34368, Note_on_c, 0, 64, 95
4, 34416, Note_on_c, 0, 64, 0
4, 34416, Note_on_c, 0, 57, 0
4, 34416, Note_on_c, 0, 61, 0
4, 34464, Note_on_c, 0, 55, 116
4, 34464, Note_on_c, 0, 62, 100
4, 34464, Note_on_c, 0, 59, 112
4, 34512, Note_on_c, 0, 59, 0
4, 34512, Note_on_c, 0, 62, 0
4, 34512, Note_on_c, 0, 55, 0
4, 34656, Note_on_c, 0, 59, 80
4, 34656, Note_on_c, 0, 62, 61
4, 34656, Note_on_c, 0, 55, 71
4, 34704, Note_on_c, 0, 55, 0
4, 34704, Note_on_c, 0, 62, 0
4, 34704, Note_on_c, 0, 59, 0
4, 34704, Note_on_c, 0, 55, 100
4, 34704, Note_on_c, 0, 59, 80
4, 34704, Note_on_c, 0, 62, 100
4, 34752, Note_on_c, 0, 62, 0
4, 34752, Note_on_c, 0, 59, 0
4, 34752, Note_on_c, 0, 55, 0
4, 34752, Note_on_c, 0, 55, 100
4, 34752, Note_on_c, 0, 59, 80
4, 34752, Note_on_c, 0, 62, 83
4, 34800, Note_on_c, 0, 62, 0
4, 34800, Note_on_c, 0, 59, 0
4, 34800, Note_on_c, 0, 55, 0
4, 34848, Note_on_c, 0, 59, 80
4, 34848, Note_on_c, 0, 62, 71
4, 34848, Note_on_c, 0, 55, 71
4, 34896, Note_on_c, 0, 55, 0
4, 34896, Note_on_c, 0, 62, 0
4, 34896, Note_on_c, 0, 59, 0
4, 34896, Note_on_c, 0, 55, 100
4, 34896, Note_on_c, 0, 59, 95
4, 34896, Note_on_c, 0, 62, 100
4, 34944, Note_on_c, 0, 62, 0
4, 34944, Note_on_c, 0, 59, 0
4, 34944, Note_on_c, 0, 55, 0
4, 34944, Note_on_c, 0, 55, 100
4, 34944, Note_on_c, 0, 59, 112
4, 34944, Note_on_c, 0, 62, 116
4, 34992, Note_on_c, 0, 62, 0
4, 34992, Note_on_c, 0, 59, 0
4, 34992, Note_on_c, 0, 55, 0
4, 35040, Note_on_c, 0, 59, 80
4, 35040, Note_on_c, 0, 62, 71
4, 35040, Note_on_c, 0, 55, 100
4, 35088, Note_on_c, 0, 55, 0
4, 35088, Note_on_c, 0, 62, 0
4, 35088, Note_on_c, 0, 59, 0
4, 35088, Note_on_c, 0, 55, 83
4, 35088, Note_on_c, 0, 62, 71
4, 35088, Note_on_c, 0, 59, 80
4, 35136, Note_on_c, 0, 59, 0
4, 35136, Note_on_c, 0, 62, 0
4, 35136, Note_on_c, 0, 55, 0
4, 35136, Note_on_c, 0, 55, 100
4, 35136, Note_on_c, 0, 62, 83
4, 35136, Note_on_c, 0, 59, 112
4, 35184, Note_on_c, 0, 59, 0
4, 35184, Note_on_c, 0, 62, 0
4, 35184, Note_on_c, 0, 55, 0
4, 35232, Note_on_c, 0, 59, 80
4, 35232, Note_on_c, 0, 55, 83
4, 35232, Note_on_c, 0, 62, 61
4, 35280, Note_on_c, 0, 62, 0
4, 35280, Note_on_c, 0, 55, 0
4, 35280, Note_on_c, 0, 59, 0
4, 35280, Note_on_c, 0, 55, 83
4, 35280, Note_on_c, 0, 62, 83
4, 35280, Note_on_c, 0, 59, 80
4, 35328, Note_on_c, 0, 59, 0
4, 35328, Note_on_c, 0, 62, 0
4, 35328, Note_on_c, 0, 55, 0
4, 35328, Note_on_c, 0, 55, 116
4, 35328, Note_on_c, 0, 59, 112
4, 35328, Note_on_c, 0, 62, 83
4, 35376, Note_on_c, 0, 62, 0
4, 35376, Note_on_c, 0, 59, 0
4, 35376, Note_on_c, 0, 55, 0
4, 35424, Note_on_c, 0, 59, 80
4, 35424, Note_on_c, 0, 55, 71
4, 35424, Note_on_c, 0, 62, 71
4, 35472, Note_on_c, 0, 62, 0
4, 35472, Note_on_c, 0, 55, 0
4, 35472, Note_on_c, 0, 59, 0
4, 35472, Note_on_c, 0, 55, 83
4, 35472, Note_on_c, 0, 59, 95
4, 35472, Note_on_c, 0, 62, 83
4, 35520, Note_on_c, 0, 62, 0
4, 35520, Note_on_c, 0, 59, 0
4, 35520, Note_on_c, 0, 55, 0
4, 35520, Note_on_c, 0, 55, 116
4, 35520, Note_on_c, 0, 59, 112
4, 35520, Note_on_c, 0, 62, 100
4, 35568, Note_on_c, 0, 62, 0
4, 35568, Note_on_c, 0, 59, 0
4, 35568, Note_on_c, 0, 55, 0
4, 35616, Note_on_c, 0, 59, 95
4, 35616, Note_on_c, 0, 55, 83
4, 35616, Note_on_c, 0, 62, 71
4, 35664, Note_on_c, 0, 62, 0
4, 35664, Note_on_c, 0, 55, 0
4, 35664, Note_on_c, 0, 59, 0
4, 35664, Note_on_c, 0, 55, 100
4, 35664, Note_on_c, 0, 59, 80
4, 35664, Note_on_c, 0, 62, 83
4, 35712, Note_on_c, 0, 62, 0
4, 35712, Note_on_c, 0, 59, 0
4, 35712, Note_on_c, 0, 55, 0
4, 35712, Note_on_c, 0, 64, 95
4, 35712, Note_on_c, 0, 61, 95
4, 35712, Note_on_c, 0, 57, 100
4, 35808, Note_on_c, 0, 61, 0
4, 35808, Note_on_c, 0, 64, 0
4, 35808, Note_on_c, 0, 57, 61
4, 35808, Note_on_c, 0, 61, 80
4, 35808, Note_on_c, 0, 64, 80
4, 35856, Note_on_c, 0, 64, 0
4, 35856, Note_on_c, 0, 61, 0
4, 35856, Note_on_c, 0, 57, 0
4, 35856, Note_on_c, 0, 64, 95
4, 35856, Note_on_c, 0, 57, 83
4, 35856, Note_on_c, 0, 61, 80
4, 35904, Note_on_c, 0, 61, 0
4, 35904, Note_on_c, 0, 57, 0
4, 35904, Note_on_c, 0, 64, 0
4, 35904, Note_on_c, 0, 57, 0
4, 35904, Note_on_c, 0, 57, 116
4, 35904, Note_on_c, 0, 64, 80
4, 35904, Note_on_c, 0, 61, 112
4, 35952, Note_on_c, 0, 61, 0
4, 35952, Note_on_c, 0, 64, 0
4, 35952, Note_on_c, 0, 57, 0
4, 36000, Note_on_c, 0, 57, 100
4, 36000, Note_on_c, 0, 66, 80
4, 36000, Note_on_c, 0, 62, 100
4, 36192, Note_on_c, 0, 62, 0
4, 36192, Note_on_c, 0, 66, 0
4, 36192, Note_on_c, 0, 57, 0
4, 36192, Note_on_c, 0, 57, 100
4, 36192, Note_on_c, 0, 66, 80
4, 36192, Note_on_c, 0, 62, 83
4, 36240, Note_on_c, 0, 62, 0
4, 36240, Note_on_c, 0, 66, 0
4, 36240, Note_on_c, 0, 57, 0
4, 36240, Note_on_c, 0, 57, 83
4, 36240, Note_on_c, 0, 66, 80
4, 36240, Note_on_c, 0, 62, 83
4, 36288, Note_on_c, 0, 62, 0
4, 36288, Note_on_c, 0, 66, 0
4, 36288, Note_on_c, 0, 57, 0
4, 36288, Note_on_c, 0, 57, 100
4, 36288, Note_on_c, 0, 62, 116
4, 36288, Note_on_c, 0, 66, 95
4, 36336, Note_on_c, 0, 66, 0
4, 36336, Note_on_c, 0, 62, 0
4, 36336, Note_on_c, 0, 57, 0
4, 36384, Note_on_c, 0, 57, 71
4, 36384, Note_on_c, 0, 62, 83
4, 36384, Note_on_c, 0, 66, 80
4, 36432, Note_on_c, 0, 66, 0
4, 36432, Note_on_c, 0, 62, 0
4, 36432, Note_on_c, 0, 57, 0
4, 36432, Note_on_c, 0, 57, 83
4, 36432, Note_on_c, 0, 66, 80
4, 36432, Note_on_c, 0, 62, 83
4, 36480, Note_on_c, 0, 62, 0
4, 36480, Note_on_c, 0, 66, 0
4, 36480, Note_on_c, 0, 57, 0
4, 36480, Note_on_c, 0, 57, 83
4, 36480, Note_on_c, 0, 66, 95
4, 36480, Note_on_c, 0, 62, 100
4, 36528, Note_on_c, 0, 62, 0
4, 36528, Note_on_c, 0, 66, 0
4, 36528, Note_on_c, 0, 57, 0
4, 36576, Note_on_c, 0, 66, 68
4, 36576, Note_on_c, 0, 62, 83
4, 36576, Note_on_c, 0, 57, 83
4, 36624, Note_on_c, 0, 57, 0
4, 36624, Note_on_c, 0, 62, 0
4, 36624, Note_on_c, 0, 66, 0
4, 36624, Note_on_c, 0, 62, 83
4, 36624, Note_on_c, 0, 57, 83
4, 36624, Note_on_c, 0, 66, 68
4, 36672, Note_on_c, 0, 66, 0
4, 36672, Note_on_c, 0, 57, 0
4, 36672, Note_on_c, 0, 62, 0
4, 36672, Note_on_c, 0, 57, 83
4, 36672, Note_on_c, 0, 66, 80
4, 36672, Note_on_c, 0, 62, 100
4, 36720, Note_on_c, 0, 62, 0
4, 36720, Note_on_c, 0, 66, 0
4, 36720, Note_on_c, 0, 57, 0
4, 36768, Note_on_c, 0, 57, 61
4, 36768, Note_on_c, 0, 62, 71
4, 36768, Note_on_c, 0, 66, 68
4, 36816, Note_on_c, 0, 66, 0
4, 36816, Note_on_c, 0, 62, 0
4, 36816, Note_on_c, 0, 57, 0
4, 36816, Note_on_c, 0, 57, 100
4, 36816, Note_on_c, 0, 66, 95
4, 36816, Note_on_c, 0, 62, 100
4, 36864, Note_on_c, 0, 62, 0
4, 36864, Note_on_c, 0, 66, 0
4, 36864, Note_on_c, 0, 57, 0
4, 36864, Note_on_c, 0, 66, 112
4, 36864, Note_on_c, 0, 57, 83
4, 36864, Note_on_c, 0, 62, 100
4, 36912, Note_on_c, 0, 62, 0
4, 36912, Note_on_c, 0, 57, 0
4, 36912, Note_on_c, 0, 66, 0
4, 36960, Note_on_c, 0, 66, 80
4, 36960, Note_on_c, 0, 57, 83
4, 36960, Note_on_c, 0, 62, 100
4, 37008, Note_on_c, 0, 62, 0
4, 37008, Note_on_c, 0, 57, 0
4, 37008, Note_on_c, 0, 66, 0
4, 37008, Note_on_c, 0, 66, 80
4, 37008, Note_on_c, 0, 57, 83
4, 37008, Note_on_c, 0, 62, 83
4, 37056, Note_on_c, 0, 62, 0
4, 37056, Note_on_c, 0, 57, 0
4, 37056, Note_on_c, 0, 66, 0
4, 37056, Note_on_c, 0, 66, 112
4, 37056, Note_on_c, 0, 62, 100
4, 37056, Note_on_c, 0, 57, 100
4, 37104, Note_on_c, 0, 57, 0
4, 37104, Note_on_c, 0, 62, 0
4, 37104, Note_on_c, 0, 66, 0
4, 37152, Note_on_c, 0, 66, 68
4, 37152, Note_on_c, 0, 57, 83
4, 37152, Note_on_c, 0, 62, 100
4, 37200, Note_on_c, 0, 62, 0
4, 37200, Note_on_c, 0, 57, 0
4, 37200, Note_on_c, 0, 66, 0
4, 37200, Note_on_c, 0, 57, 83
4, 37200, Note_on_c, 0, 66, 80
4, 37200, Note_on_c, 0, 62, 83
4, 37248, Note_on_c, 0, 62, 0
4, 37248, Note_on_c, 0, 66, 0
4, 37248, Note_on_c, 0, 57, 0
4, 37248, Note_on_c, 0, 57, 83
4, 37248, Note_on_c, 0, 64, 80
4, 37248, Note_on_c, 0, 61, 95
4, 37344, Note_on_c, 0, 61, 0
4, 37344, Note_on_c, 0, 64, 0
4, 37344, Note_on_c, 0, 57, 0
4, 37344, Note_on_c, 0, 61, 80
4, 37344, Note_on_c, 0, 57, 83
4, 37344, Note_on_c, 0, 64, 80
4, 37392, Note_on_c, 0, 64, 0
4, 37392, Note_on_c, 0, 57, 0
4, 37392, Note_on_c, 0, 61, 0
4, 37392, Note_on_c, 0, 57, 100
4, 37392, Note_on_c, 0, 61, 95
4, 37392, Note_on_c, 0, 64, 95
4, 37440, Note_on_c, 0, 64, 0
4, 37440, Note_on_c, 0, 61, 0
4, 37440, Note_on_c, 0, 57, 0
4, 37440, Note_on_c, 0, 61, 124
4, 37440, Note_on_c, 0, 57, 100
4, 37440, Note_on_c, 0, 64, 95
4, 37488, Note_on_c, 0, 64, 0
4, 37488, Note_on_c, 0, 57, 0
4, 37488, Note_on_c, 0, 61, 0
4, 37536, Note_on_c, 0, 55, 116
4, 37536, Note_on_c, 0, 62, 100
4, 37536, Note_on_c, 0, 59, 112
4, 37584, Note_on_c, 0, 59, 0
4, 37584, Note_on_c, 0, 62, 0
4, 37584, Note_on_c, 0, 55, 0
4, 37728, Note_on_c, 0, 59, 80
4, 37728, Note_on_c, 0, 62, 61
4, 37728, Note_on_c, 0, 55, 71
4, 37776, Note_on_c, 0, 55, 0
4, 37776, Note_on_c, 0, 62, 0
4, 37776, Note_on_c, 0, 59, 0
4, 37776, Note_on_c, 0, 55, 100
4, 37776, Note_on_c, 0, 59, 80
4, 37776, Note_on_c, 0, 62, 100
4, 37824, Note_on_c, 0, 62, 0
4, 37824, Note_on_c, 0, 59, 0
4, 37824, Note_on_c, 0, 55, 0
4, 37824, Note_on_c, 0, 55, 100
4, 37824, Note_on_c, 0, 59, 80
4, 37824, Note_on_c, 0, 62, 83
4, 37872, Note_on_c, 0, 62, 0
4, 37872, Note_on_c, 0, 59, 0
4, 37872, Note_on_c, 0, 55, 0
4, 37920, Note_on_c, 0, 59, 80
4, 37920, Note_on_c, 0, 62, 71
4, 37920, Note_on_c, 0, 55, 71
4, 37968, Note_on_c, 0, 55, 0
4, 37968, Note_on_c, 0, 62, 0
4, 37968, Note_on_c, 0, 59, 0
4, 37968, Note_on_c, 0, 55, 100
4, 37968, Note_on_c, 0, 59, 95
4, 37968, Note_on_c, 0, 62, 100
4, 38016, Note_on_c, 0, 62, 0
4, 38016, Note_on_c, 0, 59, 0
4, 38016, Note_on_c, 0, 55, 0
4, 38016, Note_on_c, 0, 55, 100
4, 38016, Note_on_c, 0, 59, 112
4, 38016, Note_on_c, 0, 62, 116
4, 38064, Note_on_c, 0, 62, 0
4, 38064, Note_on_c, 0, 59, 0
4, 38064, Note_on_c, 0, 55, 0
4, 38112, Note_on_c, 0, 59, 80
4, 38112, Note_on_c, 0, 62, 71
4, 38112, Note_on_c, 0, 55, 100
4, 38160, Note_on_c, 0, 55, 0
4, 38160, Note_on_c, 0, 62, 0
4, 38160, Note_on_c, 0, 59, 0
4, 38160, Note_on_c, 0, 55, 83
4, 38160, Note_on_c, 0, 62, 71
4, 38160, Note_on_c, 0, 59, 80
4, 38208, Note_on_c, 0, 59, 0
4, 38208, Note_on_c, 0, 62, 0
4, 38208, Note_on_c, 0, 55, 0
4, 38208, Note_on_c, 0, 55, 100
4, 38208, Note_on_c, 0, 62, 83
4, 38208, Note_on_c, 0, 59, 112
4, 38256, Note_on_c, 0, 59, 0
4, 38256, Note_on_c, 0, 62, 0
4, 38256, Note_on_c, 0, 55, 0
4, 38304, Note_on_c, 0, 59, 80
4, 38304, Note_on_c, 0, 55, 83
4, 38304, Note_on_c, 0, 62, 61
4, 38352, Note_on_c, 0, 62, 0
4, 38352, Note_on_c, 0, 55, 0
4, 38352, Note_on_c, 0, 59, 0
4, 38352, Note_on_c, 0, 55, 83
4, 38352, Note_on_c, 0, 62, 83
4, 38352, Note_on_c, 0, 59, 80
4, 38400, Note_on_c, 0, 59, 0
4, 38400, Note_on_c, 0, 62, 0
4, 38400, Note_on_c, 0, 55, 0
4, 38400, Note_on_c, 0, 55, 116
4, 38400, Note_on_c, 0, 59, 112
4, 38400, Note_on_c, 0, 62, 83
4, 38448, Note_on_c, 0, 62, 0
4, 38448, Note_on_c, 0, 59, 0
4, 38448, Note_on_c, 0, 55, 0
4, 38496, Note_on_c, 0, 59, 80
4, 38496, Note_on_c, 0, 55, 71
4, 38496, Note_on_c, 0, 62, 71
4, 38544, Note_on_c, 0, 62, 0
4, 38544, Note_on_c, 0, 55, 0
4, 38544, Note_on_c, 0, 59, 0
4, 38544, Note_on_c, 0, 55, 83
4, 38544, Note_on_c, 0, 59, 95
4, 38544, Note_on_c, 0, 62, 83
4, 38592, Note_on_c, 0, 62, 0
4, 38592, Note_on_c, 0, 59, 0
4, 38592, Note_on_c, 0, 55, 0
4, 38592, Note_on_c, 0, 55, 116
4, 38592, Note_on_c, 0, 59, 112
4, 38592, Note_on_c, 0, 62, 100
4, 38640, Note_on_c, 0, 62, 0
4, 38640, Note_on_c, 0, 59, 0
4, 38640, Note_on_c, 0, 55, 0
4, 38688, Note_on_c, 0, 59, 95
4, 38688, Note_on_c, 0, 55, 83
4, 38688, Note_on_c, 0, 62, 71
4, 38736, Note_on_c, 0, 62, 0
4, 38736, Note_on_c, 0, 55, 0
4, 38736, Note_on_c, 0, 59, 0
4, 38736, Note_on_c, 0, 55, 100
4, 38736, Note_on_c, 0, 59, 80
4, 38736, Note_on_c, 0, 62, 83
4, 38784, Note_on_c, 0, 62, 0
4, 38784, Note_on_c, 0, 59, 0
4, 38784, Note_on_c, 0, 55, 0
4, 38784, Note_on_c, 0, 64, 95
4, 38784, Note_on_c, 0, 61, 95
4, 38784, Note_on_c, 0, 57, 100
4, 38880, Note_on_c, 0, 61, 0
4, 38880, Note_on_c, 0, 64, 0
4, 38880, Note_on_c, 0, 57, 61
4, 38880, Note_on_c, 0, 61, 80
4, 38880, Note_on_c, 0, 64, 80
4, 38928, Note_on_c, 0, 64, 0
4, 38928, Note_on_c, 0, 61, 0
4, 38928, Note_on_c, 0, 57, 0
4, 38928, Note_on_c, 0, 64, 95
4, 38928, Note_on_c, 0, 57, 83
4, 38928, Note_on_c, 0, 61, 80
4, 38976, Note_on_c, 0, 61, 0
4, 38976, Note_on_c, 0, 57, 0
4, 38976, Note_on_c, 0, 64, 0
4, 38976, Note_on_c, 0, 57, 0
4, 38976, Note_on_c, 0, 57, 116
4, 38976, Note_on_c, 0, 64, 80
4, 38976, Note_on_c, 0, 61, 112
4, 39024, Note_on_c, 0, 61, 0
4, 39024, Note_on_c, 0, 64, 0
4, 39024, Note_on_c, 0, 57, 0
4, 39072, Note_on_c, 0, 57, 100
4, 39072, Note_on_c, 0, 66, 80
4, 39072, Note_on_c, 0, 62, 100
4, 39264, Note_on_c, 0, 62, 0
4, 39264, Note_on_c, 0, 66, 0
4, 39264, Note_on_c, 0, 57, 0
4, 39264, Note_on_c, 0, 57, 100
4, 39264, Note_on_c, 0, 66, 80
4, 39264, Note_on_c, 0, 62, 83
4, 39312, Note_on_c, 0, 62, 0
4, 39312, Note_on_c, 0, 66, 0
4, 39312, Note_on_c, 0, 57, 0
4, 39312, Note_on_c, 0, 57, 83
4, 39312, Note_on_c, 0, 66, 80
4, 39312, Note_on_c, 0, 62, 83
4, 39360, Note_on_c, 0, 62, 0
4, 39360, Note_on_c, 0, 66, 0
4, 39360, Note_on_c, 0, 57, 0
4, 39360, Note_on_c, 0, 57, 100
4, 39360, Note_on_c, 0, 62, 116
4, 39360, Note_on_c, 0, 66, 95
4, 39408, Note_on_c, 0, 66, 0
4, 39408, Note_on_c, 0, 62, 0
4, 39408, Note_on_c, 0, 57, 0
4, 39456, Note_on_c, 0, 57, 71
4, 39456, Note_on_c, 0, 62, 83
4, 39456, Note_on_c, 0, 66, 80
4, 39504, Note_on_c, 0, 66, 0
4, 39504, Note_on_c, 0, 62, 0
4, 39504, Note_on_c, 0, 57, 0
4, 39504, Note_on_c, 0, 57, 83
4, 39504, Note_on_c, 0, 66, 80
4, 39504, Note_on_c, 0, 62, 83
4, 39552, Note_on_c, 0, 62, 0
4, 39552, Note_on_c, 0, 66, 0
4, 39552, Note_on_c, 0, 57, 0
4, 39552, Note_on_c, 0, 57, 83
4, 39552, Note_on_c, 0, 66, 95
4, 39552, Note_on_c, 0, 62, 100
4, 39600, Note_on_c, 0, 62, 0
4, 39600, Note_on_c, 0, 66, 0
4, 39600, Note_on_c, 0, 57, 0
4, 39648, Note_on_c, 0, 66, 68
4, 39648, Note_on_c, 0, 62, 83
4, 39648, Note_on_c, 0, 57, 83
4, 39696, Note_on_c, 0, 57, 0
4, 39696, Note_on_c, 0, 62, 0
4, 39696, Note_on_c, 0, 66, 0
4, 39696, Note_on_c, 0, 62, 83
4, 39696, Note_on_c, 0, 57, 83
4, 39696, Note_on_c, 0, 66, 68
4, 39744, Note_on_c, 0, 66, 0
4, 39744, Note_on_c, 0, 57, 0
4, 39744, Note_on_c, 0, 62, 0
4, 39744, Note_on_c, 0, 57, 83
4, 39744, Note_on_c, 0, 66, 80
4, 39744, Note_on_c, 0, 62, 100
4, 39792, Note_on_c, 0, 62, 0
4, 39792, Note_on_c, 0, 66, 0
4, 39792, Note_on_c, 0, 57, 0
4, 39840, Note_on_c, 0, 57, 61
4, 39840, Note_on_c, 0, 62, 71
4, 39840, Note_on_c, 0, 66, 68
4, 39888, Note_on_c, 0, 66, 0
4, 39888, Note_on_c, 0, 62, 0
4, 39888, Note_on_c, 0, 57, 0
4, 39888, Note_on_c, 0, 57, 100
4, 39888, Note_on_c, 0, 66, 95
4, 39888, Note_on_c, 0, 62, 100
4, 39936, Note_on_c, 0, 62, 0
4, 39936, Note_on_c, 0, 66, 0
4, 39936, Note_on_c, 0, 57, 0
4, 39936, Note_on_c, 0, 66, 112
4, 39936, Note_on_c, 0, 57, 83
4, 39936, Note_on_c, 0, 62, 100
4, 39984, Note_on_c, 0, 62, 0
4, 39984, Note_on_c, 0, 57, 0
4, 39984, Note_on_c, 0, 66, 0
4, 40032, Note_on_c, 0, 66, 80
4, 40032, Note_on_c, 0, 57, 83
4, 40032, Note_on_c, 0, 62, 100
4, 40080, Note_on_c, 0, 62, 0
4, 40080, Note_on_c, 0, 57, 0
4, 40080, Note_on_c, 0, 66, 0
4, 40080, Note_on_c, 0, 66, 80
4, 40080, Note_on_c, 0, 57, 83
4, 40080, Note_on_c, 0, 62, 83
4, 40128, Note_on_c, 0, 62, 0
4, 40128, Note_on_c, 0, 57, 0
4, 40128, Note_on_c, 0, 66, 0
4, 40128, Note_on_c, 0, 66, 112
4, 40128, Note_on_c, 0, 62, 100
4, 40128, Note_on_c, 0, 57, 100
4, 40176, Note_on_c, 0, 57, 0
4, 40176, Note_on_c, 0, 62, 0
4, 40176, Note_on_c, 0, 66, 0
4, 40224, Note_on_c, 0, 66, 68
4, 40224, Note_on_c, 0, 57, 83
4, 40224, Note_on_c, 0, 62, 100
4, 40272, Note_on_c, 0, 62, 0
4, 40272, Note_on_c, 0, 57, 0
4, 40272, Note_on_c, 0, 66, 0
4, 40272, Note_on_c, 0, 57, 83
4, 40272, Note_on_c, 0, 66, 80
4, 40272, Note_on_c, 0, 62, 83
4, 40320, Note_on_c, 0, 62, 0
4, 40320, Note_on_c, 0, 66, 0
4, 40320, Note_on_c, 0, 57, 0
4, 40320, Note_on_c, 0, 57, 83
4, 40320, Note_on_c, 0, 64, 80
4, 40320, Note_on_c, 0, 61, 95
4, 40416, Note_on_c, 0, 61, 0
4, 40416, Note_on_c, 0, 64, 0
4, 40416, Note_on_c, 0, 57, 0
4, 40416, Note_on_c, 0, 61, 80
4, 40416, Note_on_c, 0, 57, 83
4, 40416, Note_on_c, 0, 64, 80
4, 40464, Note_on_c, 0, 64, 0
4, 40464, Note_on_c, 0, 57, 0
4, 40464, Note_on_c, 0, 61, 0
4, 40464, Note_on_c, 0, 57, 100
4, 40464, Note_on_c, 0, 61, 95
4, 40464, Note_on_c, 0, 64, 95
4, 40512, Note_on_c, 0, 64, 0
4, 40512, Note_on_c, 0, 61, 0
4, 40512, Note_on_c, 0, 57, 0
4, 40512, Note_on_c, 0, 61, 124
4, 40512, Note_on_c, 0, 57, 100
4, 40512, Note_on_c, 0, 64, 95
4, 40560, Note_on_c, 0, 64, 0
4, 40560, Note_on_c, 0, 57, 0
4, 40560, Note_on_c, 0, 61, 0
4, 40608, Note_on_c, 0, 55, 116
4, 40608, Note_on_c, 0, 62, 100
4, 40608, Note_on_c, 0, 59, 112
4, 40656, Note_on_c, 0, 59, 0
4, 40656, Note_on_c, 0, 62, 0
4, 40656, Note_on_c, 0, 55, 0
4, 40800, Note_on_c, 0, 59, 80
4, 40800, Note_on_c, 0, 62, 61
4, 40800, Note_on_c, 0, 55, 71
4, 40848, Note_on_c, 0, 55, 0
4, 40848, Note_on_c, 0, 62, 0
4, 40848, Note_on_c, 0, 59, 0
4, 40848, Note_on_c, 0, 55, 100
4, 40848, Note_on_c, 0, 59, 80
4, 40848, Note_on_c, 0, 62, 100
4, 40896, Note_on_c, 0, 62, 0
4, 40896, Note_on_c, 0, 59, 0
4, 40896, Note_on_c, 0, 55, 0
4, 40896, Note_on_c, 0, 55, 100
4, 40896, Note_on_c, 0, 59, 80
4, 40896, Note_on_c, 0, 62, 83
4, 40944, Note_on_c, 0, 62, 0
4, 40944, Note_on_c, 0, 59, 0
4, 40944, Note_on_c, 0, 55, 0
4, 40992, Note_on_c, 0, 59, 80
4, 40992, Note_on_c, 0, 62, 71
4, 40992, Note_on_c, 0, 55, 71
4, 41040, Note_on_c, 0, 55, 0
4, 41040, Note_on_c, 0, 62, 0
4, 41040, Note_on_c, 0, 59, 0
4, 41040, Note_on_c, 0, 55, 100
4, 41040, Note_on_c, 0, 59, 95
4, 41040, Note_on_c, 0, 62, 100
4, 41088, Note_on_c, 0, 62, 0
4, 41088, Note_on_c, 0, 59, 0
4, 41088, Note_on_c, 0, 55, 0
4, 41088, Note_on_c, 0, 55, 100
4, 41088, Note_on_c, 0, 59, 112
4, 41088, Note_on_c, 0, 62, 116
4, 41136, Note_on_c, 0, 62, 0
4, 41136, Note_on_c, 0, 59, 0
4, 41136, Note_on_c, 0, 55, 0
4, 41184, Note_on_c, 0, 59, 80
4, 41184, Note_on_c, 0, 62, 71
4, 41184, Note_on_c, 0, 55, 100
4, 41232, Note_on_c, 0, 55, 0
4, 41232, Note_on_c, 0, 62, 0
4, 41232, Note_on_c, 0, 59, 0
4, 41232, Note_on_c, 0, 55, 83
4, 41232, Note_on_c, 0, 62, 71
4, 41232, Note_on_c, 0, 59, 80
4, 41280, Note_on_c, 0, 59, 0
4, 41280, Note_on_c, 0, 62, 0
4, 41280, Note_on_c, 0, 55, 0
4, 41280, Note_on_c, 0, 55, 100
4, 41280, Note_on_c, 0, 62, 83
4, 41280, Note_on_c, 0, 59, 112
4, 41328, Note_on_c, 0, 59, 0
4, 41328, Note_on_c, 0, 62, 0
4, 41328, Note_on_c, 0, 55, 0
4, 41376, Note_on_c, 0, 59, 80
4, 41376, Note_on_c, 0, 55, 83
4, 41376, Note_on_c, 0, 62, 61
4, 41424, Note_on_c, 0, 62, 0
4, 41424, Note_on_c, 0, 55, 0
4, 41424, Note_on_c, 0, 59, 0
4, 41424, Note_on_c, 0, 55, 83
4, 41424, Note_on_c, 0, 62, 83
4, 41424, Note_on_c, 0, 59, 80
4, 41472, Note_on_c, 0, 59, 0
4, 41472, Note_on_c, 0, 62, 0
4, 41472, Note_on_c, 0, 55, 0
4, 41472, Note_on_c, 0, 55, 116
4, 41472, Note_on_c, 0, 59, 112
4, 41472, Note_on_c, 0, 62, 83
4, 41520, Note_on_c, 0, 62, 0
4, 41520, Note_on_c, 0, 59, 0
4, 41520, Note_on_c, 0, 55, 0
4, 41568, Note_on_c, 0, 59, 80
4, 41568, Note_on_c, 0, 55, 71
4, 41568, Note_on_c, 0, 62, 71
4, 41616, Note_on_c, 0, 62, 0
4, 41616, Note_on_c, 0, 55, 0
4, 41616, Note_on_c, 0, 59, 0
4, 41616, Note_on_c, 0, 55, 83
4, 41616, Note_on_c, 0, 59, 95
4, 41616, Note_on_c, 0, 62, 83
4, 41664, Note_on_c, 0, 62, 0
4, 41664, Note_on_c, 0, 59, 0
4, 41664, Note_on_c, 0, 55, 0
4, 41664, Note_on_c, 0, 55, 116
4, 41664, Note_on_c, 0, 59, 112
4, 41664, Note_on_c, 0, 62, 100
4, 41712, Note_on_c, 0, 62, 0
4, 41712, Note_on_c, 0, 59, 0
4, 41712, Note_on_c, 0, 55, 0
4, 41760, Note_on_c, 0, 59, 95
4, 41760, Note_on_c, 0, 55, 83
4, 41760, Note_on_c, 0, 62, 71
4, 41808, Note_on_c, 0, 62, 0
4, 41808, Note_on_c, 0, 55, 0
4, 41808, Note_on_c, 0, 59, 0
4, 41808, Note_on_c, 0, 55, 100
4, 41808, Note_on_c, 0, 59, 80
4, 41808, Note_on_c, 0, 62, 83
4, 41856, Note_on_c, 0, 62, 0
4, 41856, Note_on_c, 0, 59, 0
4, 41856, Note_on_c, 0, 55, 0
4, 41856, Note_on_c, 0, 64, 95
4, 41856, Note_on_c, 0, 61, 95
4, 41856, Note_on_c, 0, 57, 100
4, 41952, Note_on_c, 0, 61, 0
4, 41952, Note_on_c, 0, 64, 0
4, 41952, Note_on_c, 0, 57, 61
4, 41952, Note_on_c, 0, 61, 80
4, 41952, Note_on_c, 0, 64, 80
4, 42000, Note_on_c, 0, 64, 0
4, 42000, Note_on_c, 0, 61, 0
4, 42000, Note_on_c, 0, 57, 0
4, 42000, Note_on_c, 0, 64, 95
4, 42000, Note_on_c, 0, 57, 83
4, 42000, Note_on_c, 0, 61, 80
4, 42048, Note_on_c, 0, 61, 0
4, 42048, Note_on_c, 0, 57, 0
4, 42048, Note_on_c, 0, 64, 0
4, 42048, Note_on_c, 0, 57, 0
4, 42048, Note_on_c, 0, 57, 116
4, 42048, Note_on_c, 0, 64, 80
4, 42048, Note_on_c, 0, 61, 112
4, 42096, Note_on_c, 0, 61, 0
4, 42096, Note_on_c, 0, 64, 0
4, 42096, Note_on_c, 0, 57, 0
4, 42144, Note_on_c, 0, 57, 100
4, 42144, Note_on_c, 0, 66, 80
4, 42144, Note_on_c, 0, 62, 100
4, 42336, Note_on_c, 0, 62, 0
4, 42336, Note_on_c, 0, 66, 0
4, 42336, Note_on_c, 0, 57, 0
4, 42336, Note_on_c, 0, 57, 100
4, 42336, Note_on_c, 0, 66, 80
4, 42336, Note_on_c, 0, 62, 83
4, 42384, Note_on_c, 0, 62, 0
4, 42384, Note_on_c, 0, 66, 0
4, 42384, Note_on_c, 0, 57, 0
4, 42384, Note_on_c, 0, 57, 83
4, 42384, Note_on_c, 0, 66, 80
4, 42384, Note_on_c, 0, 62, 83
4, 42432, Note_on_c, 0, 62, 0
4, 42432, Note_on_c, 0, 66, 0
4, 42432, Note_on_c, 0, 57, 0
4, 42432, Note_on_c, 0, 57, 100
4, 42432, Note_on_c, 0, 62, 116
4, 42432, Note_on_c, 0, 66, 95
4, 42480, Note_on_c, 0, 66, 0
4, 42480, Note_on_c, 0, 62, 0
4, 42480, Note_on_c, 0, 57, 0
4, 42528, Note_on_c, 0, 57, 71
4, 42528, Note_on_c, 0, 62, 83
4, 42528, Note_on_c, 0, 66, 80
4, 42576, Note_on_c, 0, 66, 0
4, 42576, Note_on_c, 0, 62, 0
4, 42576, Note_on_c, 0, 57, 0
4, 42576, Note_on_c, 0, 57, 83
4, 42576, Note_on_c, 0, 66, 80
4, 42576, Note_on_c, 0, 62, 83
4, 42624, Note_on_c, 0, 62, 0
4, 42624, Note_on_c, 0, 66, 0
4, 42624, Note_on_c, 0, 57, 0
4, 42624, Note_on_c, 0, 57, 83
4, 42624, Note_on_c, 0, 66, 95
4, 42624, Note_on_c, 0, 62, 100
4, 42672, Note_on_c, 0, 62, 0
4, 42672, Note_on_c, 0, 66, 0
4, 42672, Note_on_c, 0, 57, 0
4, 42720, Note_on_c, 0, 66, 68
4, 42720, Note_on_c, 0, 62, 83
4, 42720, Note_on_c, 0, 57, 83
4, 42768, Note_on_c, 0, 57, 0
4, 42768, Note_on_c, 0, 62, 0
4, 42768, Note_on_c, 0, 66, 0
4, 42768, Note_on_c, 0, 62, 83
4, 42768, Note_on_c, 0, 57, 83
4, 42768, Note_on_c, 0, 66, 68
4, 42816, Note_on_c, 0, 66, 0
4, 42816, Note_on_c, 0, 57, 0
4, 42816, Note_on_c, 0, 62, 0
4, 42816, Note_on_c, 0, 57, 83
4, 42816, Note_on_c, 0, 66, 80
4, 42816, Note_on_c, 0, 62, 100
4, 42864, Note_on_c, 0, 62, 0
4, 42864, Note_on_c, 0, 66, 0
4, 42864, Note_on_c, 0, 57, 0
4, 42912, Note_on_c, 0, 57, 61
4, 42912, Note_on_c, 0, 62, 71
4, 42912, Note_on_c, 0, 66, 68
4, 42960, Note_on_c, 0, 66, 0
4, 42960, Note_on_c, 0, 62, 0
4, 42960, Note_on_c, 0, 57, 0
4, 42960, Note_on_c, 0, 57, 100
4, 42960, Note_on_c, 0, 66, 95
4, 42960, Note_on_c, 0, 62, 100
4, 43008, Note_on_c, 0, 62, 0
4, 43008, Note_on_c, 0, 66, 0
4, 43008, Note_on_c, 0, 57, 0
4, 43008, Note_on_c, 0, 66, 112
4, 43008, Note_on_c, 0, 57, 83
4, 43008, Note_on_c, 0, 62, 100
4, 43056, Note_on_c, 0, 62, 0
4, 43056, Note_on_c, 0, 57, 0
4, 43056, Note_on_c, 0, 66, 0
4, 43104, Note_on_c, 0, 66, 80
4, 43104, Note_on_c, 0, 57, 83
4, 43104, Note_on_c, 0, 62, 100
4, 43152, Note_on_c, 0, 62, 0
4, 43152, Note_on_c, 0, 57, 0
4, 43152, Note_on_c, 0, 66, 0
4, 43152, Note_on_c, 0, 66, 80
4, 43152, Note_on_c, 0, 57, 83
4, 43152, Note_on_c, 0, 62, 83
4, 43200, Note_on_c, 0, 62, 0
4, 43200, Note_on_c, 0, 57, 0
4, 43200, Note_on_c, 0, 66, 0
4, 43200, Note_on_c, 0, 66, 112
4, 43200, Note_on_c, 0, 62, 100
4, 43200, Note_on_c, 0, 57, 100
4, 43248, Note_on_c, 0, 57, 0
4, 43248, Note_on_c, 0, 62, 0
4, 43248, Note_on_c, 0, 66, 0
4, 43296, Note_on_c, 0, 66, 68
4, 43296, Note_on_c, 0, 57, 83
4, 43296, Note_on_c, 0, 62, 100
4, 43344, Note_on_c, 0, 62, 0
4, 43344, Note_on_c, 0, 57, 0
4, 43344, Note_on_c, 0, 66, 0
4, 43344, Note_on_c, 0, 57, 83
4, 43344, Note_on_c, 0, 66, 80
4, 43344, Note_on_c, 0, 62, 83
4, 43392, Note_on_c, 0, 62, 0
4, 43392, Note_on_c, 0, 66, 0
4, 43392, Note_on_c, 0, 57, 0
4, 43392, Note_on_c, 0, 57, 83
4, 43392, Note_on_c, 0, 64, 80
4, 43392, Note_on_c, 0, 61, 95
4, 43488, Note_on_c, 0, 61, 0
4, 43488, Note_on_c, 0, 64, 0
4, 43488, Note_on_c, 0, 57, 0
4, 43488, Note_on_c, 0, 61, 80
4, 43488, Note_on_c, 0, 57, 83
4, 43488, Note_on_c, 0, 64, 80
4, 43536, Note_on_c, 0, 64, 0
4, 43536, Note_on_c, 0, 57, 0
4, 43536, Note_on_c, 0, 61, 0
4, 43536, Note_on_c, 0, 57, 100
4, 43536, Note_on_c, 0, 61, 95
4, 43536, Note_on_c, 0, 64, 95
4, 43584, Note_on_c, 0, 64, 0
4, 43584, Note_on_c, 0, 61, 0
4, 43584, Note_on_c, 0, 57, 0
4, 43584, Note_on_c, 0, 61, 124
4, 43584, Note_on_c, 0, 57, 100
4, 43584, Note_on_c, 0, 64, 95
4, 43632, Note_on_c, 0, 64, 0
4, 43632, Note_on_c, 0, 57, 0
4, 43632, Note_on_c, 0, 61, 0
4, 43680, Note_on_c, 0, 55, 116
4, 43680, Note_on_c, 0, 62, 100
4, 43680, Note_on_c, 0, 59, 112
4, 43728, Note_on_c, 0, 59, 0
4, 43728, Note_on_c, 0, 62, 0
4, 43728, Note_on_c, 0, 55, 0
4, 43872, Note_on_c, 0, 59, 80
4, 43872, Note_on_c, 0, 62, 61
4, 43872, Note_on_c, 0, 55, 71
4, 43920, Note_on_c, 0, 55, 0
4, 43920, Note_on_c, 0, 62, 0
4, 43920, Note_on_c, 0, 59, 0
4, 43920, Note_on_c, 0, 55, 100
4, 43920, Note_on_c, 0, 59, 80
4, 43920, Note_on_c, 0, 62, 100
4, 43968, Note_on_c, 0, 62, 0
4, 43968, Note_on_c, 0, 59, 0
4, 43968, Note_on_c, 0, 55, 0
4, 43968, Note_on_c, 0, 55, 100
4, 43968, Note_on_c, 0, 59, 80
4, 43968, Note_on_c, 0, 62, 83
4, 44016, Note_on_c, 0, 62, 0
4, 44016, Note_on_c, 0, 59, 0
4, 44016, Note_on_c, 0, 55, 0
4, 44064, Note_on_c, 0, 59, 80
4, 44064, Note_on_c, 0, 62, 71
4, 44064, Note_on_c, 0, 55, 71
4, 44112, Note_on_c, 0, 55, 0
4, 44112, Note_on_c, 0, 62, 0
4, 44112, Note_on_c, 0, 59, 0
4, 44112, Note_on_c, 0, 55, 100
4, 44112, Note_on_c, 0, 59, 95
4, 44112, Note_on_c, 0, 62, 100
4, 44160, Note_on_c, 0, 62, 0
4, 44160, Note_on_c, 0, 59, 0
4, 44160, Note_on_c, 0, 55, 0
4, 44160, Note_on_c, 0, 55, 100
4, 44160, Note_on_c, 0, 59, 112
4, 44160, Note_on_c, 0, 62, 116
4, 44208, Note_on_c, 0, 62, 0
4, 44208, Note_on_c, 0, 59, 0
4, 44208, Note_on_c, 0, 55, 0
4, 44256, Note_on_c, 0, 59, 80
4, 44256, Note_on_c, 0, 62, 71
4, 44256, Note_on_c, 0, 55, 100
4, 44304, Note_on_c, 0, 55, 0
4, 44304, Note_on_c, 0, 62, 0
4, 44304, Note_on_c, 0, 59, 0
4, 44304, Note_on_c, 0, 55, 83
4, 44304, Note_on_c, 0, 62, 71
4, 44304, Note_on_c, 0, 59, 80
4, 44352, Note_on_c, 0, 59, 0
4, 44352, Note_on_c, 0, 62, 0
4, 44352, Note_on_c, 0, 55, 0
4, 44352, Note_on_c, 0, 55, 100
4, 44352, Note_on_c, 0, 62, 83
4, 44352, Note_on_c, 0, 59, 112
4, 44400, Note_on_c, 0, 59, 0
4, 44400, Note_on_c, 0, 62, 0
4, 44400, Note_on_c, 0, 55, 0
4, 44448, Note_on_c, 0, 59, 80
4, 44448, Note_on_c, 0, 55, 83
4, 44448, Note_on_c, 0, 62, 61
4, 44496, Note_on_c, 0, 62, 0
4, 44496, Note_on_c, 0, 55, 0
4, 44496, Note_on_c, 0, 59, 0
4, 44496, Note_on_c, 0, 55, 83
4, 44496, Note_on_c, 0, 62, 83
4, 44496, Note_on_c, 0, 59, 80
4, 44544, Note_on_c, 0, 59, 0
4, 44544, Note_on_c, 0, 62, 0
4, 44544, Note_on_c, 0, 55, 0
4, 44544, Note_on_c, 0, 55, 116
4, 44544, Note_on_c, 0, 59, 112
4, 44544, Note_on_c, 0, 62, 83
4, 44592, Note_on_c, 0, 62, 0
4, 44592, Note_on_c, 0, 59, 0
4, 44592, Note_on_c, 0, 55, 0
4, 44640, Note_on_c, 0, 59, 80
4, 44640, Note_on_c, 0, 55, 71
4, 44640, Note_on_c, 0, 62, 71
4, 44688, Note_on_c, 0, 62, 0
4, 44688, Note_on_c, 0, 55, 0
4, 44688, Note_on_c, 0, 59, 0
4, 44688, Note_on_c, 0, 55, 83
4, 44688, Note_on_c, 0, 59, 95
4, 44688, Note_on_c, 0, 62, 83
4, 44736, Note_on_c, 0, 62, 0
4, 44736, Note_on_c, 0, 59, 0
4, 44736, Note_on_c, 0, 55, 0
4, 44736, Note_on_c, 0, 55, 116
4, 44736, Note_on_c, 0, 59, 112
4, 44736, Note_on_c, 0, 62, 100
4, 44784, Note_on_c, 0, 62, 0
4, 44784, Note_on_c, 0, 59, 0
4, 44784, Note_on_c, 0, 55, 0
4, 44832, Note_on_c, 0, 59, 95
4, 44832, Note_on_c, 0, 55, 83
4, 44832, Note_on_c, 0, 62, 71
4, 44880, Note_on_c, 0, 62, 0
4, 44880, Note_on_c, 0, 55, 0
4, 44880, Note_on_c, 0, 59, 0
4, 44880, Note_on_c, 0, 55, 100
4, 44880, Note_on_c, 0, 59, 80
4, 44880, Note_on_c, 0, 62, 83
4, 44928, Note_on_c, 0, 62, 0
4, 44928, Note_on_c, 0, 59, 0
4, 44928, Note_on_c, 0, 55, 0
4, 44928, Note_on_c, 0, 64, 95
4, 44928, Note_on_c, 0, 61, 95
4, 44928, Note_on_c, 0, 57, 100
4, 45024, Note_on_c, 0, 61, 0
4, 45024, Note_on_c, 0, 64, 0
4, 45024, Note_on_c, 0, 57, 61
4, 45024, Note_on_c, 0, 61, 80
4, 45024, Note_on_c, 0, 64, 80
4, 45072, Note_on_c, 0, 64, 0
4, 45072, Note_on_c, 0, 61, 0
4, 45072, Note_on_c, 0, 57, 0
4, 45072, Note_on_c, 0, 64, 95
4, 45072, Note_on_c, 0, 57, 83
4, 45072, Note_on_c, 0, 61, 80
4, 45120, Note_on_c, 0, 61, 0
4, 45120, Note_on_c, 0, 57, 0
4, 45120, Note_on_c, 0, 64, 0
4, 45120, Note_on_c, 0, 57, 0
4, 45120, Note_on_c, 0, 57, 116
4, 45120, Note_on_c, 0, 64, 80
4, 45120, Note_on_c, 0, 61, 112
4, 45168, Note_on_c, 0, 61, 0
4, 45168, Note_on_c, 0, 64, 0
4, 45168, Note_on_c, 0, 57, 0
4, 45216, Note_on_c, 0, 57, 100
4, 45216, Note_on_c, 0, 66, 80
4, 45216, Note_on_c, 0, 62, 100
4, 45408, Note_on_c, 0, 62, 0
4, 45408, Note_on_c, 0, 66, 0
4, 45408, Note_on_c, 0, 57, 0
4, 45408, Note_on_c, 0, 57, 100
4, 45408, Note_on_c, 0, 66, 80
4, 45408, Note_on_c, 0, 62, 83
4, 45456, Note_on_c, 0, 62, 0
4, 45456, Note_on_c, 0, 66, 0
4, 45456, Note_on_c, 0, 57, 0
4, 45456, Note_on_c, 0, 57, 83
4, 45456, Note_on_c, 0, 66, 80
4, 45456, Note_on_c, 0, 62, 83
4, 45504, Note_on_c, 0, 62, 0
4, 45504, Note_on_c, 0, 66, 0
4, 45504, Note_on_c, 0, 57, 0
4, 45504, Note_on_c, 0, 57, 100
4, 45504, Note_on_c, 0, 62, 116
4, 45504, Note_on_c, 0, 66, 95
4, 45552, Note_on_c, 0, 66, 0
4, 45552, Note_on_c, 0, 62, 0
4, 45552, Note_on_c, 0, 57, 0
4, 45600, Note_on_c, 0, 57, 71
4, 45600, Note_on_c, 0, 62, 83
4, 45600, Note_on_c, 0, 66, 80
4, 45648, Note_on_c, 0, 66, 0
4, 45648, Note_on_c, 0, 62, 0
4, 45648, Note_on_c, 0, 57, 0
4, 45648, Note_on_c, 0, 57, 83
4, 45648, Note_on_c, 0, 66, 80
4, 45648, Note_on_c, 0, 62, 83
4, 45696, Note_on_c, 0, 62, 0
4, 45696, Note_on_c, 0, 66, 0
4, 45696, Note_on_c, 0, 57, 0
4, 45696, Note_on_c, 0, 57, 83
4, 45696, Note_on_c, 0, 66, 95
4, 45696, Note_on_c, 0, 62, 100
4, 45744, Note_on_c, 0, 62, 0
4, 45744, Note_on_c, 0, 66, 0
4, 45744, Note_on_c, 0, 57, 0
4, 45792, Note_on_c, 0, 66, 68
4, 45792, Note_on_c, 0, 62, 83
4, 45792, Note_on_c, 0, 57, 83
4, 45840, Note_on_c, 0, 57, 0
4, 45840, Note_on_c, 0, 62, 0
4, 45840, Note_on_c, 0, 66, 0
4, 45840, Note_on_c, 0, 62, 83
4, 45840, Note_on_c, 0, 57, 83
4, 45840, Note_on_c, 0, 66, 68
4, 45888, Note_on_c, 0, 66, 0
4, 45888, Note_on_c, 0, 57, 0
4, 45888, Note_on_c, 0, 62, 0
4, 45888, Note_on_c, 0, 57, 83
4, 45888, Note_on_c, 0, 66, 80
4, 45888, Note_on_c, 0, 62, 100
4, 45936, Note_on_c, 0, 62, 0
4, 45936, Note_on_c, 0, 66, 0
4, 45936, Note_on_c, 0, 57, 0
4, 45984, Note_on_c, 0, 57, 61
4, 45984, Note_on_c, 0, 62, 71
4, 45984, Note_on_c, 0, 66, 68
4, 46032, Note_on_c, 0, 66, 0
4, 46032, Note_on_c, 0, 62, 0
4, 46032, Note_on_c, 0, 57, 0
4, 46032, Note_on_c, 0, 57, 100
4, 46032, Note_on_c, 0, 66, 95
4, 46032, Note_on_c, 0, 62, 100
4, 46080, Note_on_c, 0, 62, 0
4, 46080, Note_on_c, 0, 66, 0
4, 46080, Note_on_c, 0, 57, 0
4, 46080, Note_on_c, 0, 66, 112
4, 46080, Note_on_c, 0, 57, 83
4, 46080, Note_on_c, 0, 62, 100
4, 46128, Note_on_c, 0, 62, 0
4, 46128, Note_on_c, 0, 57, 0
4, 46128, Note_on_c, 0, 66, 0
4, 46176, Note_on_c, 0, 66, 80
4, 46176, Note_on_c, 0, 57, 83
4, 46176, Note_on_c, 0, 62, 100
4, 46224, Note_on_c, 0, 62, 0
4, 46224, Note_on_c, 0, 57, 0
4, 46224, Note_on_c, 0, 66, 0
4, 46224, Note_on_c, 0, 66, 80
4, 46224, Note_on_c, 0, 57, 83
4, 46224, Note_on_c, 0, 62, 83
4, 46272, Note_on_c, 0, 62, 0
4, 46272, Note_on_c, 0, 57, 0
4, 46272, Note_on_c, 0, 66, 0
4, 46272, Note_on_c, 0, 66, 112
4, 46272, Note_on_c, 0, 62, 100
4, 46272, Note_on_c, 0, 57, 100
4, 46320, Note_on_c, 0, 57, 0
4, 46320, Note_on_c, 0, 62, 0
4, 46320, Note_on_c, 0, 66, 0
4, 46368, Note_on_c, 0, 66, 68
4, 46368, Note_on_c, 0, 57, 83
4, 46368, Note_on_c, 0, 62, 100
4, 46416, Note_on_c, 0, 62, 0
4, 46416, Note_on_c, 0, 57, 0
4, 46416, Note_on_c, 0, 66, 0
4, 46416, Note_on_c, 0, 57, 83
4, 46416, Note_on_c, 0, 66, 80
4, 46416, Note_on_c, 0, 62, 83
4, 46464, Note_on_c, 0, 62, 0
4, 46464, Note_on_c, 0, 66, 0
4, 46464, Note_on_c, 0, 57, 0
4, 46464, Note_on_c, 0, 57, 83
4, 46464, Note_on_c, 0, 64, 80
4, 46464, Note_on_c, 0, 61, 95
4, 46560, Note_on_c, 0, 61, 0
4, 46560, Note_on_c, 0, 64, 0
4, 46560, Note_on_c, 0, 57, 0
4, 46560, Note_on_c, 0, 61, 80
4, 46560, Note_on_c, 0, 57, 83
4, 46560, Note_on_c, 0, 64, 80
4, 46608, Note_on_c, 0, 64, 0
4, 46608, Note_on_c, 0, 57, 0
4, 46608, Note_on_c, 0, 61, 0
4, 46608, Note_on_c, 0, 57, 100
4, 46608, Note_on_c, 0, 61, 95
4, 46608, Note_on_c, 0, 64, 95
4, 46656, Note_on_c, 0, 64, 0
4, 46656, Note_on_c, 0, 61, 0
4, 46656, Note_on_c, 0, 57, 0
4, 46656, Note_on_c, 0, 61, 124
4, 46656, Note_on_c, 0, 57, 100
4, 46656, Note_on_c, 0, 64, 95
4, 46704, Note_on_c, 0, 64, 0
4, 46704, Note_on_c, 0, 57, 0
4, 46704, Note_on_c, 0, 61, 0
4, 46752, Note_on_c, 0, 55, 116
4, 46752, Note_on_c, 0, 62, 100
4, 46752, Note_on_c, 0, 59, 112
4, 46800, Note_on_c, 0, 59, 0
4, 46800, Note_on_c, 0, 62, 0
4, 46800, Note_on_c, 0, 55, 0
4, 46944, Note_on_c, 0, 59, 80
4, 46944, Note_on_c, 0, 62, 61
4, 46944, Note_on_c, 0, 55, 71
4, 46992, Note_on_c, 0, 55, 0
4, 46992, Note_on_c, 0, 62, 0
4, 46992, Note_on_c, 0, 59, 0
4, 46992, Note_on_c, 0, 55, 100
4, 46992, Note_on_c, 0, 59, 80
4, 46992, Note_on_c, 0, 62, 100
4, 47040, Note_on_c, 0, 62, 0
4, 47040, Note_on_c, 0, 59, 0
4, 47040, Note_on_c, 0, 55, 0
4, 47040, Note_on_c, 0, 55, 100
4, 47040, Note_on_c, 0, 59, 80
4, 47040, Note_on_c, 0, 62, 83
4, 47088, Note_on_c, 0, 62, 0
4, 47088, Note_on_c, 0, 59, 0
4, 47088, Note_on_c, 0, 55, 0
4, 47136, Note_on_c, 0, 59, 80
4, 47136, Note_on_c, 0, 62, 71
4, 47136, Note_on_c, 0, 55, 71
4, 47184, Note_on_c, 0, 55, 0
4, 47184, Note_on_c, 0, 62, 0
4, 47184, Note_on_c, 0, 59, 0
4, 47184, Note_on_c, 0, 55, 100
4, 47184, Note_on_c, 0, 59, 95
4, 47184, Note_on_c, 0, 62, 100
4, 47232, Note_on_c, 0, 62, 0
4, 47232, Note_on_c, 0, 59, 0
4, 47232, Note_on_c, 0, 55, 0
4, 47232, Note_on_c, 0, 55, 100
4, 47232, Note_on_c, 0, 59, 112
4, 47232, Note_on_c, 0, 62, 116
4, 47280, Note_on_c, 0, 62, 0
4, 47280, Note_on_c, 0, 59, 0
4, 47280, Note_on_c, 0, 55, 0
4, 47328, Note_on_c, 0, 59, 80
4, 47328, Note_on_c, 0, 62, 71
4, 47328, Note_on_c, 0, 55, 100
4, 47376, Note_on_c, 0, 55, 0
4, 47376, Note_on_c, 0, 62, 0
4, 47376, Note_on_c, 0, 59, 0
4, 47376, Note_on_c, 0, 55, 83
4, 47376, Note_on_c, 0, 62, 71
4, 47376, Note_on_c, 0, 59, 80
4, 47424, Note_on_c, 0, 59, 0
4, 47424, Note_on_c, 0, 62, 0
4, 47424, Note_on_c, 0, 55, 0
4, 47424, Note_on_c, 0, 55, 100
4, 47424, Note_on_c, 0, 62, 83
4, 47424, Note_on_c, 0, 59, 112
4, 47472, Note_on_c, 0, 59, 0
4, 47472, Note_on_c, 0, 62, 0
4, 47472, Note_on_c, 0, 55, 0
4, 47520, Note_on_c, 0, 59, 80
4, 47520, Note_on_c, 0, 55, 83
4, 47520, Note_on_c, 0, 62, 61
4, 47568, Note_on_c, 0, 62, 0
4, 47568, Note_on_c, 0, 55, 0
4, 47568, Note_on_c, 0, 59, 0
4, 47568, Note_on_c, 0, 55, 83
4, 47568, Note_on_c, 0, 62, 83
4, 47568, Note_on_c, 0, 59, 80
4, 47616, Note_on_c, 0, 59, 0
4, 47616, Note_on_c, 0, 62, 0
4, 47616, Note_on_c, 0, 55, 0
4, 47616, Note_on_c, 0, 55, 116
4, 47616, Note_on_c, 0, 59, 112
4, 47616, Note_on_c, 0, 62, 83
4, 47664, Note_on_c, 0, 62, 0
4, 47664, Note_on_c, 0, 59, 0
4, 47664, Note_on_c, 0, 55, 0
4, 47712, Note_on_c, 0, 59, 80
4, 47712, Note_on_c, 0, 55, 71
4, 47712, Note_on_c, 0, 62, 71
4, 47760, Note_on_c, 0, 62, 0
4, 47760, Note_on_c, 0, 55, 0
4, 47760, Note_on_c, 0, 59, 0
4, 47760, Note_on_c, 0, 55, 83
4, 47760, Note_on_c, 0, 59, 95
4, 47760, Note_on_c, 0, 62, 83
4, 47808, Note_on_c, 0, 62, 0
4, 47808, Note_on_c, 0, 59, 0
4, 47808, Note_on_c, 0, 55, 0
4, 47808, Note_on_c, 0, 55, 116
4, 47808, Note_on_c, 0, 59, 112
4, 47808, Note_on_c, 0, 62, 100
4, 47856, Note_on_c, 0, 62, 0
4, 47856, Note_on_c, 0, 59, 0
4, 47856, Note_on_c, 0, 55, 0
4, 47904, Note_on_c, 0, 59, 95
4, 47904, Note_on_c, 0, 55, 83
4, 47904, Note_on_c, 0, 62, 71
4, 47952, Note_on_c, 0, 62, 0
4, 47952, Note_on_c, 0, 55, 0
4, 47952, Note_on_c, 0, 59, 0
4, 47952, Note_on_c, 0, 55, 100
4, 47952, Note_on_c, 0, 59, 80
4, 47952, Note_on_c, 0, 62, 83
4, 48000, Note_on_c, 0, 62, 0
4, 48000, Note_on_c, 0, 59, 0
4, 48000, Note_on_c, 0, 55, 0
4, 48000, Note_on_c, 0, 64, 95
4, 48000, Note_on_c, 0, 61, 95
4, 48000, Note_on_c, 0, 57, 100
4, 48096, Note_on_c, 0, 61, 0
4, 48096, Note_on_c, 0, 64, 0
4, 48096, Note_on_c, 0, 57, 61
4, 48096, Note_on_c, 0, 61, 80
4, 48096, Note_on_c, 0, 64, 80
4, 48144, Note_on_c, 0, 64, 0
4, 48144, Note_on_c, 0, 61, 0
4, 48144, Note_on_c, 0, 57, 0
4, 48144, Note_on_c, 0, 64, 95
4, 48144, Note_on_c, 0, 57, 83
4, 48144, Note_on_c, 0, 61, 80
4, 48192, Note_on_c, 0, 61, 0
4, 48192, Note_on_c, 0, 57, 0
4, 48192, Note_on_c, 0, 64, 0
4, 48192, Note_on_c, 0, 57, 0
4, 48192, Note_on_c, 0, 57, 116
4, 48192, Note_on_c, 0, 64, 80
4, 48192, Note_on_c, 0, 61, 112
4, 48240, Note_on_c, 0, 61, 0
4, 48240, Note_on_c, 0, 64, 0
4, 48240, Note_on_c, 0, 57, 0
4, 48288, Note_on_c, 0, 57, 100
4, 48288, Note_on_c, 0, 66, 80
4, 48288, Note_on_c, 0, 62, 100
4, 48480, Note_on_c, 0, 62, 0
4, 48480, Note_on_c, 0, 66, 0
4, 48480, Note_on_c, 0, 57, 0
4, 48480, Note_on_c, 0, 57, 100
4, 48480, Note_on_c, 0, 66, 80
4, 48480, Note_on_c, 0, 62, 83
4, 48528, Note_on_c, 0, 62, 0
4, 48528, Note_on_c, 0, 66, 0
4, 48528, Note_on_c, 0, 57, 0
4, 48528, Note_on_c, 0, 57, 83
4, 48528, Note_on_c, 0, 66, 80
4, 48528, Note_on_c, 0, 62, 83
4, 48576, Note_on_c, 0, 62, 0
4, 48576, Note_on_c, 0, 66, 0
4, 48576, Note_on_c, 0, 57, 0
4, 48576, Note_on_c, 0, 57, 100
4, 48576, Note_on_c, 0, 62, 116
4, 48576, Note_on_c, 0, 66, 95
4, 48624, Note_on_c, 0, 66, 0
4, 48624, Note_on_c, 0, 62, 0
4, 48624, Note_on_c, 0, 57, 0
4, 48672, Note_on_c, 0, 57, 71
4, 48672, Note_on_c, 0, 62, 83
4, 48672, Note_on_c, 0, 66, 80
4, 48720, Note_on_c, 0, 66, 0
4, 48720, Note_on_c, 0, 62, 0
4, 48720, Note_on_c, 0, 57, 0
4, 48720, Note_on_c, 0, 57, 83
4, 48720, Note_on_c, 0, 66, 80
4, 48720, Note_on_c, 0, 62, 83
4, 48768, Note_on_c, 0, 62, 0
4, 48768, Note_on_c, 0, 66, 0
4, 48768, Note_on_c, 0, 57, 0
4, 48768, Note_on_c, 0, 57, 83
4, 48768, Note_on_c, 0, 66, 95
4, 48768, Note_on_c, 0, 62, 100
4, 48816, Note_on_c, 0, 62, 0
4, 48816, Note_on_c, 0, 66, 0
4, 48816, Note_on_c, 0, 57, 0
4, 48864, Note_on_c, 0, 66, 68
4, 48864, Note_on_c, 0, 62, 83
4, 48864, Note_on_c, 0, 57, 83
4, 48912, Note_on_c, 0, 57, 0
4, 48912, Note_on_c, 0, 62, 0
4, 48912, Note_on_c, 0, 66, 0
4, 48912, Note_on_c, 0, 62, 83
4, 48912, Note_on_c, 0, 57, 83
4, 48912, Note_on_c, 0, 66, 68
4, 48960, Note_on_c, 0, 66, 0
4, 48960, Note_on_c, 0, 57, 0
4, 48960, Note_on_c, 0, 62, 0
4, 48960, Note_on_c, 0, 57, 83
4, 48960, Note_on_c, 0, 66, 80
4, 48960, Note_on_c, 0, 62, 100
4, 49008, Note_on_c, 0, 62, 0
4, 49008, Note_on_c, 0, 66, 0
4, 49008, Note_on_c, 0, 57, 0
4, 49056, Note_on_c, 0, 57, 61
4, 49056, Note_on_c, 0, 62, 71
4, 49056, Note_on_c, 0, 66, 68
4, 49104, Note_on_c, 0, 66, 0
4, 49104, Note_on_c, 0, 62, 0
4, 49104, Note_on_c, 0, 57, 0
4, 49104, Note_on_c, 0, 57, 100
4, 49104, Note_on_c, 0, 66, 95
4, 49104, Note_on_c, 0, 62, 100
4, 49152, Note_on_c, 0, 62, 0
4, 49152, Note_on_c, 0, 66, 0
4, 49152, Note_on_c, 0, 57, 0
4, 49152, Note_on_c, 0, 66, 112
4, 49152, Note_on_c, 0, 57, 83
4, 49152, Note_on_c, 0, 62, 100
4, 49200, Note_on_c, 0, 62, 0
4, 49200, Note_on_c, 0, 57, 0
4, 49200, Note_on_c, 0, 66, 0
4, 49248, Note_on_c, 0, 66, 80
4, 49248, Note_on_c, 0, 57, 83
4, 49248, Note_on_c, 0, 62, 100
4, 49296, Note_on_c, 0, 62, 0
4, 49296, Note_on_c, 0, 57, 0
4, 49296, Note_on_c, 0, 66, 0
4, 49296, Note_on_c, 0, 66, 80
4, 49296, Note_on_c, 0, 57, 83
4, 49296, Note_on_c, 0, 62, 83
4, 49344, Note_on_c, 0, 62, 0
4, 49344, Note_on_c, 0, 57, 0
4, 49344, Note_on_c, 0, 66, 0
4, 49344, Note_on_c, 0, 66, 112
4, 49344, Note_on_c, 0, 62, 100
4, 49344, Note_on_c, 0, 57, 100
4, 49392, Note_on_c, 0, 57, 0
4, 49392, Note_on_c, 0, 62, 0
4, 49392, Note_on_c, 0, 66, 0
4, 49440, Note_on_c, 0, 66, 68
4, 49440, Note_on_c, 0, 57, 83
4, 49440, Note_on_c, 0, 62, 100
4, 49488, Note_on_c, 0, 62, 0
4, 49488, Note_on_c, 0, 57, 0
4, 49488, Note_on_c, 0, 66, 0
4, 49488, Note_on_c, 0, 57, 83
4, 49488, Note_on_c, 0, 66, 80
4, 49488, Note_on_c, 0, 62, 83
4, 49536, Note_on_c, 0, 62, 0
4, 49536, Note_on_c, 0, 66, 0
4, 49536, Note_on_c, 0, 57, 0
4, 49536, Note_on_c, 0, 57, 83
4, 49536, Note_on_c, 0, 64, 80
4, 49536, Note_on_c, 0, 61, 95
4, 49632, Note_on_c, 0, 61, 0
4, 49632, Note_on_c, 0, 64, 0
4, 49632, Note_on_c, 0, 57, 0
4, 49632, Note_on_c, 0, 61, 80
4, 49632, Note_on_c, 0, 57, 83
4, 49632, Note_on_c, 0, 64, 80
4, 49680, Note_on_c, 0, 64, 0
4, 49680, Note_on_c, 0, 57, 0
4, 49680, Note_on_c, 0, 61, 0
4, 49680, Note_on_c, 0, 57, 100
4, 49680, Note_on_c, 0, 61, 95
4, 49680, Note_on_c, 0, 64, 95
4, 49728, Note_on_c, 0, 64, 0
4, 49728, Note_on_c, 0, 61, 0
4, 49728, Note_on_c, 0, 57, 0
4, 49728, Note_on_c, 0, 61, 124
4, 49728, Note_on_c, 0, 57, 100
4, 49728, Note_on_c, 0, 64, 95
4, 49776, Note_on_c, 0, 64, 0
4, 49776, Note_on_c, 0, 57, 0
4, 49776, Note_on_c, 0, 61, 0
4, 49824, Note_on_c, 0, 55, 116
4, 49824, Note_on_c, 0, 62, 100
4, 49824, Note_on_c, 0, 59, 112
4, 49872, Note_on_c, 0, 59, 0
4, 49872, Note_on_c, 0, 62, 0
4, 49872, Note_on_c, 0, 55, 0
4, 50016, Note_on_c, 0, 59, 80
4, 50016, Note_on_c, 0, 62, 61
4, 50016, Note_on_c, 0, 55, 71
4, 50064, Note_on_c, 0, 55, 0
4, 50064, Note_on_c, 0, 62, 0
4, 50064, Note_on_c, 0, 59, 0
4, 50064, Note_on_c, 0, 55, 100
4, 50064, Note_on_c, 0, 59, 80
4, 50064, Note_on_c, 0, 62, 100
4, 50112, Note_on_c, 0, 62, 0
4, 50112, Note_on_c, 0, 59, 0
4, 50112, Note_on_c, 0, 55, 0
4, 50112, Note_on_c, 0, 55, 100
4, 50112, Note_on_c, 0, 59, 80
4, 50112, Note_on_c, 0, 62, 83
4, 50160, Note_on_c, 0, 62, 0
4, 50160, Note_on_c, 0, 59, 0
4, 50160, Note_on_c, 0, 55, 0
4, 50208, Note_on_c, 0, 59, 80
4, 50208, Note_on_c, 0, 62, 71
4, 50208, Note_on_c, 0, 55, 71
4, 50256, Note_on_c, 0, 55, 0
4, 50256, Note_on_c, 0, 62, 0
4, 50256, Note_on_c, 0, 59, 0
4, 50256, Note_on_c, 0, 55, 100
4, 50256, Note_on_c, 0, 59, 95
4, 50256, Note_on_c, 0, 62, 100
4, 50304, Note_on_c, 0, 62, 0
4, 50304, Note_on_c, 0, 59, 0
4, 50304, Note_on_c, 0, 55, 0
4, 50304, Note_on_c, 0, 55, 100
4, 50304, Note_on_c, 0, 59, 112
4, 50304, Note_on_c, 0, 62, 116
4, 50352, Note_on_c, 0, 62, 0
4, 50352, Note_on_c, 0, 59, 0
4, 50352, Note_on_c, 0, 55, 0
4, 50400, Note_on_c, 0, 59, 80
4, 50400, Note_on_c, 0, 62, 71
4, 50400, Note_on_c, 0, 55, 100
4, 50448, Note_on_c, 0, 55, 0
4, 50448, Note_on_c, 0, 62, 0
4, 50448, Note_on_c, 0, 59, 0
4, 50448, Note_on_c, 0, 55, 83
4, 50448, Note_on_c, 0, 62, 71
4, 50448, Note_on_c, 0, 59, 80
4, 50496, Note_on_c, 0, 59, 0
4, 50496, Note_on_c, 0, 62, 0
4, 50496, Note_on_c, 0, 55, 0
4, 50496, Note_on_c, 0, 55, 100
4, 50496, Note_on_c, 0, 62, 83
4, 50496, Note_on_c, 0, 59, 112
4, 50544, Note_on_c, 0, 59, 0
4, 50544, Note_on_c, 0, 62, 0
4, 50544, Note_on_c, 0, 55, 0
4, 50592, Note_on_c, 0, 59, 80
4, 50592, Note_on_c, 0, 55, 83
4, 50592, Note_on_c, 0, 62, 61
4, 50640, Note_on_c, 0, 62, 0
4, 50640, Note_on_c, 0, 55, 0
4, 50640, Note_on_c, 0, 59, 0
4, 50640, Note_on_c, 0, 55, 83
4, 50640, Note_on_c, 0, 62, 83
4, 50640, Note_on_c, 0, 59, 80
4, 50688, Note_on_c, 0, 59, 0
4, 50688, Note_on_c, 0, 62, 0
4, 50688, Note_on_c, 0, 55, 0
4, 50688, Note_on_c, 0, 55, 116
4, 50688, Note_on_c, 0, 59, 112
4, 50688, Note_on_c, 0, 62, 83
4, 50736, Note_on_c, 0, 62, 0
4, 50736, Note_on_c, 0, 59, 0
4, 50736, Note_on_c, 0, 55, 0
4, 50784, Note_on_c, 0, 59, 80
4, 50784, Note_on_c, 0, 55, 71
4, 50784, Note_on_c, 0, 62, 71
4, 50832, Note_on_c, 0, 62, 0
4, 50832, Note_on_c, 0, 55, 0
4, 50832, Note_on_c, 0, 59, 0
4, 50832, Note_on_c, 0, 55, 83
4, 50832, Note_on_c, 0, 59, 95
4, 50832, Note_on_c, 0, 62, 83
4, 50880, Note_on_c, 0, 62, 0
4, 50880, Note_on_c, 0, 59, 0
4, 50880, Note_on_c, 0, 55, 0
4, 50880, Note_on_c, 0, 55, 116
4, 50880, Note_on_c, 0, 59, 112
4, 50880, Note_on_c, 0, 62, 100
4, 50928, Note_on_c, 0, 62, 0
4, 50928, Note_on_c, 0, 59, 0
4, 50928, Note_on_c, 0, 55, 0
4, 50976, Note_on_c, 0, 59, 95
4, 50976, Note_on_c, 0, 55, 83
4, 50976, Note_on_c, 0, 62, 71
4, 51024, Note_on_c, 0, 62, 0
4, 51024, Note_on_c, 0, 55, 0
4, 51024, Note_on_c, 0, 59, 0
4, 51024, Note_on_c, 0, 55, 100
4, 51024, Note_on_c, 0, 59, 80
4, 51024, Note_on_c, 0, 62, 83
4, 51072, Note_on_c, 0, 62, 0
4, 51072, Note_on_c, 0, 59, 0
4, 51072, Note_on_c, 0, 55, 0
4, 51072, Note_on_c, 0, 64, 95
4, 51072, Note_on_c, 0, 61, 95
4, 51072, Note_on_c, 0, 57, 100
4, 51168, Note_on_c, 0, 61, 0
4, 51168, Note_on_c, 0, 64, 0
4, 51168, Note_on_c, 0, 57, 61
4, 51168, Note_on_c, 0, 61, 80
4, 51168, Note_on_c, 0, 64, 80
4, 51216, Note_on_c, 0, 64, 0
4, 51216, Note_on_c, 0, 61, 0
4, 51216, Note_on_c, 0, 57, 0
4, 51216, Note_on_c, 0, 64, 95
4, 51216, Note_on_c, 0, 57, 83
4, 51216, Note_on_c, 0, 61, 80
4, 51264, Note_on_c, 0, 61, 0
4, 51264, Note_on_c, 0, 57, 0
4, 51264, Note_on_c, 0, 64, 0
4, 51264, Note_on_c, 0, 57, 0
4, 51264, Note_on_c, 0, 57, 116
4, 51264, Note_on_c, 0, 64, 80
4, 51264, Note_on_c, 0, 61, 112
4, 51312, Note_on_c, 0, 61, 0
4, 51312, Note_on_c, 0, 64, 0
4, 51312, Note_on_c, 0, 57, 0
4, 51360, Note_on_c, 0, 57, 100
4, 51360, Note_on_c, 0, 66, 80
4, 51360, Note_on_c, 0, 62, 100
4, 51552, Note_on_c, 0, 62, 0
4, 51552, Note_on_c, 0, 66, 0
4, 51552, Note_on_c, 0, 57, 0
4, 51552, Note_on_c, 0, 57, 100
4, 51552, Note_on_c, 0, 66, 80
4, 51552, Note_on_c, 0, 62, 83
4, 51600, Note_on_c, 0, 62, 0
4, 51600, Note_on_c, 0, 66, 0
4, 51600, Note_on_c, 0, 57, 0
4, 51600, Note_on_c, 0, 57, 83
4, 51600, Note_on_c, 0, 66, 80
4, 51600, Note_on_c, 0, 62, 83
4, 51648, Note_on_c, 0, 62, 0
4, 51648, Note_on_c, 0, 66, 0
4, 51648, Note_on_c, 0, 57, 0
4, 51648, Note_on_c, 0, 57, 100
4, 51648, Note_on_c, 0, 62, 116
4, 51648, Note_on_c, 0, 66, 95
4, 51696, Note_on_c, 0, 66, 0
4, 51696, Note_on_c, 0, 62, 0
4, 51696, Note_on_c, 0, 57, 0
4, 51744, Note_on_c, 0, 57, 71
4, 51744, Note_on_c, 0, 62, 83
4, 51744, Note_on_c, 0, 66, 80
4, 51792, Note_on_c, 0, 66, 0
4, 51792, Note_on_c, 0, 62, 0
4, 51792, Note_on_c, 0, 57, 0
4, 51792, Note_on_c, 0, 57, 83
4, 51792, Note_on_c, 0, 66, 80
4, 51792, Note_on_c, 0, 62, 83
4, 51840, Note_on_c, 0, 62, 0
4, 51840, Note_on_c, 0, 66, 0
4, 51840, Note_on_c, 0, 57, 0
4, 51840, Note_on_c, 0, 57, 83
4, 51840, Note_on_c, 0, 66, 95
4, 51840, Note_on_c, 0, 62, 100
4, 51888, Note_on_c, 0, 62, 0
4, 51888, Note_on_c, 0, 66, 0
4, 51888, Note_on_c, 0, 57, 0
4, 51936, Note_on_c, 0, 66, 68
4, 51936, Note_on_c, 0, 62, 83
4, 51936, Note_on_c, 0, 57, 83
4, 51984, Note_on_c, 0, 57, 0
4, 51984, Note_on_c, 0, 62, 0
4, 51984, Note_on_c, 0, 66, 0
4, 51984, Note_on_c, 0, 62, 83
4, 51984, Note_on_c, 0, 57, 83
4, 51984, Note_on_c, 0, 66, 68
4, 52032, Note_on_c, 0, 66, 0
4, 52032, Note_on_c, 0, 57, 0
4, 52032, Note_on_c, 0, 62, 0
4, 52032, Note_on_c, 0, 57, 83
4, 52032, Note_on_c, 0, 66, 80
4, 52032, Note_on_c, 0, 62, 100
4, 52080, Note_on_c, 0, 62, 0
4, 52080, Note_on_c, 0, 66, 0
4, 52080, Note_on_c, 0, 57, 0
4, 52128, Note_on_c, 0, 57, 61
4, 52128, Note_on_c, 0, 62, 71
4, 52128, Note_on_c, 0, 66, 68
4, 52176, Note_on_c, 0, 66, 0
4, 52176, Note_on_c, 0, 62, 0
4, 52176, Note_on_c, 0, 57, 0
4, 52176, Note_on_c, 0, 57, 100
4, 52176, Note_on_c, 0, 66, 95
4, 52176, Note_on_c, 0, 62, 100
4, 52224, Note_on_c, 0, 62, 0
4, 52224, Note_on_c, 0, 66, 0
4, 52224, Note_on_c, 0, 57, 0
4, 52224, Note_on_c, 0, 66, 112
4, 52224, Note_on_c, 0, 57, 83
4, 52224, Note_on_c, 0, 62, 100
4, 52272, Note_on_c, 0, 62, 0
4, 52272, Note_on_c, 0, 57, 0
4, 52272, Note_on_c, 0, 66, 0
4, 52320, Note_on_c, 0, 66, 80
4, 52320, Note_on_c, 0, 57, 83
4, 52320, Note_on_c, 0, 62, 100
4, 52368, Note_on_c, 0, 62, 0
4, 52368, Note_on_c, 0, 57, 0
4, 52368, Note_on_c, 0, 66, 0
4, 52368, Note_on_c, 0, 66, 80
4, 52368, Note_on_c, 0, 57, 83
4, 52368, Note_on_c, 0, 62, 83
4, 52416, Note_on_c, 0, 62, 0
4, 52416, Note_on_c, 0, 57, 0
4, 52416, Note_on_c, 0, 66, 0
4, 52416, Note_on_c, 0, 66, 112
4, 52416, Note_on_c, 0, 62, 100
4, 52416, Note_on_c, 0, 57, 100
4, 52464, Note_on_c, 0, 57, 0
4, 52464, Note_on_c, 0, 62, 0
4, 52464, Note_on_c, 0, 66, 0
4, 52512, Note_on_c, 0, 66, 68
4, 52512, Note_on_c, 0, 57, 83
4, 52512, Note_on_c, 0, 62, 100
4, 52560, Note_on_c, 0, 62, 0
4, 52560, Note_on_c, 0, 57, 0
4, 52560, Note_on_c, 0, 66, 0
4, 52560, Note_on_c, 0, 57, 83
4, 52560, Note_on_c, 0, 66, 80
4, 52560, Note_on_c, 0, 62, 83
4, 52608, Note_on_c, 0, 62, 0
4, 52608, Note_on_c, 0, 66, 0
4, 52608, Note_on_c, 0, 57, 0
4, 52608, Note_on_c, 0, 57, 83
4, 52608, Note_on_c, 0, 64, 80
4, 52608, Note_on_c, 0, 61, 95
4, 52704, Note_on_c, 0, 61, 0
4, 52704, Note_on_c, 0, 64, 0
4, 52704, Note_on_c, 0, 57, 0
4, 52704, Note_on_c, 0, 61, 80
4, 52704, Note_on_c, 0, 57, 83
4, 52704, Note_on_c, 0, 64, 80
4, 52752, Note_on_c, 0, 64, 0
4, 52752, Note_on_c, 0, 57, 0
4, 52752, Note_on_c, 0, 61, 0
4, 52752, Note_on_c, 0, 57, 100
4, 52752, Note_on_c, 0, 61, 95
4, 52752, Note_on_c, 0, 64, 95
4, 52800, Note_on_c, 0, 64, 0
4, 52800, Note_on_c, 0, 61, 0
4, 52800, Note_on_c, 0, 57, 0
4, 52800, Note_on_c, 0, 61, 124
4, 52800, Note_on_c, 0, 57, 100
4, 52800, Note_on_c, 0, 64, 95
4, 52848, Note_on_c, 0, 64, 0
4, 52848, Note_on_c, 0, 57, 0
4, 52848, Note_on_c, 0, 61, 0
4, 52896, Note_on_c, 0, 55, 116
4, 52896, Note_on_c, 0, 62, 100
4, 52896, Note_on_c, 0, 59, 112
4, 52944, Note_on_c, 0, 59, 0
4, 52944, Note_on_c, 0, 62, 0
4, 52944, Note_on_c, 0, 55, 0
4, 53088, Note_on_c, 0, 59, 80
4, 53088, Note_on_c, 0, 62, 61
4, 53088, Note_on_c, 0, 55, 71
4, 53136, Note_on_c, 0, 55, 0
4, 53136, Note_on_c, 0, 62, 0
4, 53136, Note_on_c, 0, 59, 0
4, 53136, Note_on_c, 0, 55, 100
4, 53136, Note_on_c, 0, 59, 80
4, 53136, Note_on_c, 0, 62, 100
4, 53184, Note_on_c, 0, 62, 0
4, 53184, Note_on_c, 0, 59, 0
4, 53184, Note_on_c, 0, 55, 0
4, 53184, Note_on_c, 0, 55, 100
4, 53184, Note_on_c, 0, 59, 80
4, 53184, Note_on_c, 0, 62, 83
4, 53232, Note_on_c, 0, 62, 0
4, 53232, Note_on_c, 0, 59, 0
4, 53232, Note_on_c, 0, 55, 0
4, 53280, Note_on_c, 0, 59, 80
4, 53280, Note_on_c, 0, 62, 71
4, 53280, Note_on_c, 0, 55, 71
4, 53328, Note_on_c, 0, 55, 0
4, 53328, Note_on_c, 0, 62, 0
4, 53328, Note_on_c, 0, 59, 0
4, 53328, Note_on_c, 0, 55, 100
4, 53328, Note_on_c, 0, 59, 95
4, 53328, Note_on_c, 0, 62, 100
4, 53376, Note_on_c, 0, 62, 0
4, 53376, Note_on_c, 0, 59, 0
4, 53376, Note_on_c, 0, 55, 0
4, 53376, Note_on_c, 0, 55, 100
4, 53376, Note_on_c, 0, 59, 112
4, 53376, Note_on_c, 0, 62, 116
4, 53424, Note_on_c, 0, 62, 0
4, 53424, Note_on_c, 0, 59, 0
4, 53424, Note_on_c, 0, 55, 0
4, 53472, Note_on_c, 0, 59, 80
4, 53472, Note_on_c, 0, 62, 71
4, 53472, Note_on_c, 0, 55, 100
4, 53520, Note_on_c, 0, 55, 0
4, 53520, Note_on_c, 0, 62, 0
4, 53520, Note_on_c, 0, 59, 0
4, 53520, Note_on_c, 0, 55, 83
4, 53520, Note_on_c, 0, 62, 71
4, 53520, Note_on_c, 0, 59, 80
4, 53568, Note_on_c, 0, 59, 0
4, 53568, Note_on_c, 0, 62, 0
4, 53568, Note_on_c, 0, 55, 0
4, 53568, Note_on_c, 0, 55, 100
4, 53568, Note_on_c, 0, 62, 83
4, 53568, Note_on_c, 0, 59, 112
4, 53616, Note_on_c, 0, 59, 0
4, 53616, Note_on_c, 0, 62, 0
4, 53616, Note_on_c, 0, 55, 0
4, 53664, Note_on_c, 0, 59, 80
4, 53664, Note_on_c, 0, 55, 83
4, 53664, Note_on_c, 0, 62, 61
4, 53712, Note_on_c, 0, 62, 0
4, 53712, Note_on_c, 0, 55, 0
4, 53712, Note_on_c, 0, 59, 0
4, 53712, Note_on_c, 0, 55, 83
4, 53712, Note_on_c, 0, 62, 83
4, 53712, Note_on_c, 0, 59, 80
4, 53760, Note_on_c, 0, 59, 0
4, 53760, Note_on_c, 0, 62, 0
4, 53760, Note_on_c, 0, 55, 0
4, 53760, Note_on_c, 0, 55, 116
4, 53760, Note_on_c, 0, 59, 112
4, 53760, Note_on_c, 0, 62, 83
4, 53808, Note_on_c, 0, 62, 0
4, 53808, Note_on_c, 0, 59, 0
4, 53808, Note_on_c, 0, 55, 0
4, 53856, Note_on_c, 0, 59, 80
4, 53856, Note_on_c, 0, 55, 71
4, 53856, Note_on_c, 0, 62, 71
4, 53904, Note_on_c, 0, 62, 0
4, 53904, Note_on_c, 0, 55, 0
4, 53904, Note_on_c, 0, 59, 0
4, 53904, Note_on_c, 0, 55, 83
4, 53904, Note_on_c, 0, 59, 95
4, 53904, Note_on_c, 0, 62, 83
4, 53952, Note_on_c, 0, 62, 0
4, 53952, Note_on_c, 0, 59, 0
4, 53952, Note_on_c, 0, 55, 0
4, 53952, Note_on_c, 0, 55, 116
4, 53952, Note_on_c, 0, 59, 112
4, 53952, Note_on_c, 0, 62, 100
4, 54000, Note_on_c, 0, 62, 0
4, 54000, Note_on_c, 0, 59, 0
4, 54000, Note_on_c, 0, 55, 0
4, 54048, Note_on_c, 0, 59, 95
4, 54048, Note_on_c, 0, 55, 83
4, 54048, Note_on_c, 0, 62, 71
4, 54096, Note_on_c, 0, 62, 0
4, 54096, Note_on_c, 0, 55, 0
4, 54096, Note_on_c, 0, 59, 0
4, 54096, Note_on_c, 0, 55, 100
4, 54096, Note_on_c, 0, 59, 80
4, 54096, Note_on_c, 0, 62, 83
4, 54144, Note_on_c, 0, 62, 0
4, 54144, Note_on_c, 0, 59, 0
4, 54144, Note_on_c, 0, 55, 0
4, 54144, Note_on_c, 0, 64, 95
4, 54144, Note_on_c, 0, 61, 95
4, 54144, Note_on_c, 0, 57, 100
4, 54240, Note_on_c, 0, 61, 0
4, 54240, Note_on_c, 0, 64, 0
4, 54240, Note_on_c, 0, 57, 61
4, 54240, Note_on_c, 0, 61, 80
4, 54240, Note_on_c, 0, 64, 80
4, 54288, Note_on_c, 0, 64, 0
4, 54288, Note_on_c, 0, 61, 0
4, 54288, Note_on_c, 0, 57, 0
4, 54288, Note_on_c, 0, 64, 95
4, 54288, Note_on_c, 0, 57, 83
4, 54288, Note_on_c, 0, 61, 80
4, 54336, Note_on_c, 0, 61, 0
4, 54336, Note_on_c, 0, 57, 0
4, 54336, Note_on_c, 0, 64, 0
4, 54336, Note_on_c, 0, 57, 0
4, 54336, Note_on_c, 0, 57, 116
4, 54336, Note_on_c, 0, 64, 80
4, 54336, Note_on_c, 0, 61, 112
4, 54384, Note_on_c, 0, 61, 0
4, 54384, Note_on_c, 0, 64, 0
4, 54384, Note_on_c, 0, 57, 0
4, 54432, Note_on_c, 0, 57, 100
4, 54432, Note_on_c, 0, 66, 80
4, 54432, Note_on_c, 0, 62, 100
4, 54624, Note_on_c, 0, 62, 0
4, 54624, Note_on_c, 0, 66, 0
4, 54624, Note_on_c, 0, 57, 0
4, 54624, Note_on_c, 0, 57, 100
4, 54624, Note_on_c, 0, 66, 80
4, 54624, Note_on_c, 0, 62, 83
4, 54672, Note_on_c, 0, 62, 0
4, 54672, Note_on_c, 0, 66, 0
4, 54672, Note_on_c, 0, 57, 0
4, 54672, Note_on_c, 0, 57, 83
4, 54672, Note_on_c, 0, 66, 80
4, 54672, Note_on_c, 0, 62, 83
4, 54720, Note_on_c, 0, 62, 0
4, 54720, Note_on_c, 0, 66, 0
4, 54720, Note_on_c, 0, 57, 0
4, 54720, Note_on_c, 0, 57, 100
4, 54720, Note_on_c, 0, 62, 116
4, 54720, Note_on_c, 0, 66, 95
4, 54768, Note_on_c, 0, 66, 0
4, 54768, Note_on_c, 0, 62, 0
4, 54768, Note_on_c, 0, 57, 0
4, 54816, Note_on_c, 0, 57, 71
4, 54816, Note_on_c, 0, 62, 83
4, 54816, Note_on_c, 0, 66, 80
4, 54864, Note_on_c, 0, 66, 0
4, 54864, Note_on_c, 0, 62, 0
4, 54864, Note_on_c, 0, 57, 0
4, 54864, Note_on_c, 0, 57, 83
4, 54864, Note_on_c, 0, 66, 80
4, 54864, Note_on_c, 0, 62, 83
4, 54912, Note_on_c, 0, 62, 0
4, 54912, Note_on_c, 0, 66, 0
4, 54912, Note_on_c, 0, 57, 0
4, 54912, Note_on_c, 0, 57, 83
4, 54912, Note_on_c, 0, 66, 95
4, 54912, Note_on_c, 0, 62, 100
4, 54960, Note_on_c, 0, 62, 0
4, 54960, Note_on_c, 0, 66, 0
4, 54960, Note_on_c, 0, 57, 0
4, 55008, Note_on_c, 0, 66, 68
4, 55008, Note_on_c, 0, 62, 83
4, 55008, Note_on_c, 0, 57, 83
4, 55056, Note_on_c, 0, 57, 0
4, 55056, Note_on_c, 0, 62, 0
4, 55056, Note_on_c, 0, 66, 0
4, 55056, Note_on_c, 0, 62, 83
4, 55056, Note_on_c, 0, 57, 83
4, 55056, Note_on_c, 0, 66, 68
4, 55104, Note_on_c, 0, 66, 0
4, 55104, Note_on_c, 0, 57, 0
4, 55104, Note_on_c, 0, 62, 0
4, 55104, Note_on_c, 0, 57, 83
4, 55104, Note_on_c, 0, 66, 80
4, 55104, Note_on_c, 0, 62, 100
4, 55152, Note_on_c, 0, 62, 0
4, 55152, Note_on_c, 0, 66, 0
4, 55152, Note_on_c, 0, 57, 0
4, 55200, Note_on_c, 0, 57, 61
4, 55200, Note_on_c, 0, 62, 71
4, 55200, Note_on_c, 0, 66, 68
4, 55248, Note_on_c, 0, 66, 0
4, 55248, Note_on_c, 0, 62, 0
4, 55248, Note_on_c, 0, 57, 0
4, 55248, Note_on_c, 0, 57, 100
4, 55248, Note_on_c, 0, 66, 95
4, 55248, Note_on_c, 0, 62, 100
4, 55296, Note_on_c, 0, 62, 0
4, 55296, Note_on_c, 0, 66, 0
4, 55296, Note_on_c, 0, 57, 0
4, 55296, Note_on_c, 0, 66, 112
4, 55296, Note_on_c, 0, 57, 83
4, 55296, Note_on_c, 0, 62, 100
4, 55344, Note_on_c, 0, 62, 0
4, 55344, Note_on_c, 0, 57, 0
4, 55344, Note_on_c, 0, 66, 0
4, 55392, Note_on_c, 0, 66, 80
4, 55392, Note_on_c, 0, 57, 83
4, 55392, Note_on_c, 0, 62, 100
4, 55440, Note_on_c, 0, 62, 0
4, 55440, Note_on_c, 0, 57, 0
4, 55440, Note_on_c, 0, 66, 0
4, 55440, Note_on_c, 0, 66, 80
4, 55440, Note_on_c, 0, 57, 83
4, 55440, Note_on_c, 0, 62, 83
4, 55488, Note_on_c, 0, 62, 0
4, 55488, Note_on_c, 0, 57, 0
4, 55488, Note_on_c, 0, 66, 0
4, 55488, Note_on_c, 0, 66, 112
4, 55488, Note_on_c, 0, 62, 100
4, 55488, Note_on_c, 0, 57, 100
4, 55536, Note_on_c, 0, 57, 0
4, 55536, Note_on_c, 0, 62, 0
4, 55536, Note_on_c, 0, 66, 0
4, 55584, Note_on_c, 0, 66, 68
4, 55584, Note_on_c, 0, 57, 83
4, 55584, Note_on_c, 0, 62, 100
4, 55632, Note_on_c, 0, 62, 0
4, 55632, Note_on_c, 0, 57, 0
4, 55632, Note_on_c, 0, 66, 0
4, 55632, Note_on_c, 0, 57, 83
4, 55632, Note_on_c, 0, 66, 80
4, 55632, Note_on_c, 0, 62, 83
4, 55680, Note_on_c, 0, 62, 0
4, 55680, Note_on_c, 0, 66, 0
4, 55680, Note_on_c, 0, 57, 0
4, 55680, Note_on_c, 0, 57, 83
4, 55680, Note_on_c, 0, 64, 80
4, 55680, Note_on_c, 0, 61, 95
4, 55776, Note_on_c, 0, 61, 0
4, 55776, Note_on_c, 0, 64, 0
4, 55776, Note_on_c, 0, 57, 0
4, 55776, Note_on_c, 0, 61, 80
4, 55776, Note_on_c, 0, 57, 83
4, 55776, Note_on_c, 0, 64, 80
4, 55824, Note_on_c, 0, 64, 0
4, 55824, Note_on_c, 0, 57, 0
4, 55824, Note_on_c, 0, 61, 0
4, 55824, Note_on_c, 0, 57, 100
4, 55824, Note_on_c, 0, 61, 95
4, 55824, Note_on_c, 0, 64, 95
4, 55872, Note_on_c, 0, 64, 0
4, 55872, Note_on_c, 0, 61, 0
4, 55872, Note_on_c, 0, 57, 0
4, 55872, Note_on_c, 0, 61, 124
4, 55872, Note_on_c, 0, 57, 100
4, 55872, Note_on_c, 0, 64, 95
4, 55920, Note_on_c, 0, 64, 0
4, 55920, Note_on_c, 0, 57, 0
4, 55920, Note_on_c, 0, 61, 0
4, 55968, Note_on_c, 0, 55, 116
4, 55968, Note_on_c, 0, 62, 100
4, 55968, Note_on_c, 0, 59, 112
4, 56016, Note_on_c, 0, 59, 0
4, 56016, Note_on_c, 0, 62, 0
4, 56016, Note_on_c, 0, 55, 0
4, 56160, Note_on_c, 0, 59, 80
4, 56160, Note_on_c, 0, 62, 61
4, 56160, Note_on_c, 0, 55, 71
4, 56208, Note_on_c, 0, 55, 0
4, 56208, Note_on_c, 0, 62, 0
4, 56208, Note_on_c, 0, 59, 0
4, 56208, Note_on_c, 0, 55, 100
4, 56208, Note_on_c, 0, 59, 80
4, 56208, Note_on_c, 0, 62, 100
4, 56256, Note_on_c, 0, 62, 0
4, 56256, Note_on_c, 0, 59, 0
4, 56256, Note_on_c, 0, 55, 0
4, 56256, Note_on_c, 0, 55, 100
4, 56256, Note_on_c, 0, 59, 80
4, 56256, Note_on_c, 0, 62, 83
4, 56304, Note_on_c, 0, 62, 0
4, 56304, Note_on_c, 0, 59, 0
4, 56304, Note_on_c, 0, 55, 0
4, 56352, Note_on_c, 0, 59, 80
4, 56352, Note_on_c, 0, 62, 71
4, 56352, Note_on_c, 0, 55, 71
4, 56400, Note_on_c, 0, 55, 0
4, 56400, Note_on_c, 0, 62, 0
4, 56400, Note_on_c, 0, 59, 0
4, 56400, Note_on_c, 0, 55, 100
4, 56400, Note_on_c, 0, 59, 95
4, 56400, Note_on_c, 0, 62, 100
4, 56448, Note_on_c, 0, 62, 0
4, 56448, Note_on_c, 0, 59, 0
4, 56448, Note_on_c, 0, 55, 0
4, 56448, Note_on_c, 0, 55, 100
4, 56448, Note_on_c, 0, 59, 112
4, 56448, Note_on_c, 0, 62, 116
4, 56496, Note_on_c, 0, 62, 0
4, 56496, Note_on_c, 0, 59, 0
4, 56496, Note_on_c, 0, 55, 0
4, 56544, Note_on_c, 0, 59, 80
4, 56544, Note_on_c, 0, 62, 71
4, 56544, Note_on_c, 0, 55, 100
4, 56592, Note_on_c, 0, 55, 0
4, 56592, Note_on_c, 0, 62, 0
4, 56592, Note_on_c, 0, 59, 0
4, 56592, Note_on_c, 0, 55, 83
4, 56592, Note_on_c, 0, 62, 71
4, 56592, Note_on_c, 0, 59, 80
4, 56640, Note_on_c, 0, 59, 0
4, 56640, Note_on_c, 0, 62, 0
4, 56640, Note_on_c, 0, 55, 0
4, 56640, Note_on_c, 0, 55, 100
4, 56640, Note_on_c, 0, 62, 83
4, 56640, Note_on_c, 0, 59, 112
4, 56688, Note_on_c, 0, 59, 0
4, 56688, Note_on_c, 0, 62, 0
4, 56688, Note_on_c, 0, 55, 0
4, 56736, Note_on_c, 0, 59, 80
4, 56736, Note_on_c, 0, 55, 83
4, 56736, Note_on_c, 0, 62, 61
4, 56784, Note_on_c, 0, 62, 0
4, 56784, Note_on_c, 0, 55, 0
4, 56784, Note_on_c, 0, 59, 0
4, 56784, Note_on_c, 0, 55, 83
4, 56784, Note_on_c, 0, 62, 83
4, 56784, Note_on_c, 0, 59, 80
4, 56832, Note_on_c, 0, 59, 0
4, 56832, Note_on_c, 0, 62, 0
4, 56832, Note_on_c, 0, 55, 0
4, 56832, Note_on_c, 0, 55, 116
4, 56832, Note_on_c, 0, 59, 112
4, 56832, Note_on_c, 0, 62, 83
4, 56880, Note_on_c, 0, 62, 0
4, 56880, Note_on_c, 0, 59, 0
4, 56880, Note_on_c, 0, 55, 0
4, 56928, Note_on_c, 0, 59, 80
4, 56928, Note_on_c, 0, 55, 71
4, 56928, Note_on_c, 0, 62, 71
4, 56976, Note_on_c, 0, 62, 0
4, 56976, Note_on_c, 0, 55, 0
4, 56976, Note_on_c, 0, 59, 0
4, 56976, Note_on_c, 0, 55, 83
4, 56976, Note_on_c, 0, 59, 95
4, 56976, Note_on_c, 0, 62, 83
4, 57024, Note_on_c, 0, 62, 0
4, 57024, Note_on_c, 0, 59, 0
4, 57024, Note_on_c, 0, 55, 0
4, 57024, Note_on_c, 0, 55, 116
4, 57024, Note_on_c, 0, 59, 112
4, 57024, Note_on_c, 0, 62, 100
4, 57072, Note_on_c, 0, 62, 0
4, 57072, Note_on_c, 0, 59, 0
4, 57072, Note_on_c, 0, 55, 0
4, 57120, Note_on_c, 0, 59, 95
4, 57120, Note_on_c, 0, 55, 83
4, 57120, Note_on_c, 0, 62, 71
4, 57168, Note_on_c, 0, 62, 0
4, 57168, Note_on_c, 0, 55, 0
4, 57168, Note_on_c, 0, 59, 0
4, 57168, Note_on_c, 0, 55, 100
4, 57168, Note_on_c, 0, 59, 80
4, 57168, Note_on_c, 0, 62, 83
4, 57216, Note_on_c, 0, 62, 0
4, 57216, Note_on_c, 0, 59, 0
4, 57216, Note_on_c, 0, 55, 0
4, 57216, Note_on_c, 0, 64, 95
4, 57216, Note_on_c, 0, 61, 95
4, 57216, Note_on_c, 0, 57, 100
4, 57312, Note_on_c, 0, 61, 0
4, 57312, Note_on_c, 0, 64, 0
4, 57312, Note_on_c, 0, 57, 61
4, 57312, Note_on_c, 0, 61, 80
4, 57312, Note_on_c, 0, 64, 80
4, 57360, Note_on_c, 0, 64, 0
4, 57360, Note_on_c, 0, 61, 0
4, 57360, Note_on_c, 0, 57, 0
4, 57360, Note_on_c, 0, 64, 95
4, 57360, Note_on_c, 0, 57, 83
4, 57360, Note_on_c, 0, 61, 80
4, 57408, Note_on_c, 0, 61, 0
4, 57408, Note_on_c, 0, 57, 0
4, 57408, Note_on_c, 0, 64, 0
4, 57408, Note_on_c, 0, 57, 0
4, 57408, Note_on_c, 0, 57, 116
4, 57408, Note_on_c, 0, 64, 80
4, 57408, Note_on_c, 0, 61, 112
4, 57456, Note_on_c, 0, 61, 0
4, 57456, Note_on_c, 0, 64, 0
4, 57456, Note_on_c, 0, 57, 0
4, 57504, Note_on_c, 0, 57, 100
4, 57504, Note_on_c, 0, 66, 80
4, 57504, Note_on_c, 0, 62, 100
4, 57696, Note_on_c, 0, 62, 0
4, 57696, Note_on_c, 0, 66, 0
4, 57696, Note_on_c, 0, 57, 0
4, 57696, Note_on_c, 0, 57, 100
4, 57696, Note_on_c, 0, 66, 80
4, 57696, Note_on_c, 0, 62, 83
4, 57744, Note_on_c, 0, 62, 0
4, 57744, Note_on_c, 0, 66, 0
4, 57744, Note_on_c, 0, 57, 0
4, 57744, Note_on_c, 0, 57, 83
4, 57744, Note_on_c, 0, 66, 80
4, 57744, Note_on_c, 0, 62, 83
4, 57792, Note_on_c, 0, 62, 0
4, 57792, Note_on_c, 0, 66, 0
4, 57792, Note_on_c, 0, 57, 0
4, 57792, Note_on_c, 0, 57, 100
4, 57792, Note_on_c, 0, 62, 116
4, 57792, Note_on_c, 0, 66, 95
4, 57840, Note_on_c, 0, 66, 0
4, 57840, Note_on_c, 0, 62, 0
4, 57840, Note_on_c, 0, 57, 0
4, 57888, Note_on_c, 0, 57, 71
4, 57888, Note_on_c, 0, 62, 83
4, 57888, Note_on_c, 0, 66, 80
4, 57936, Note_on_c, 0, 66, 0
4, 57936, Note_on_c, 0, 62, 0
4, 57936, Note_on_c, 0, 57, 0
4, 57936, Note_on_c, 0, 57, 83
4, 57936, Note_on_c, 0, 66, 80
4, 57936, Note_on_c, 0, 62, 83
4, 57984, Note_on_c, 0, 62, 0
4, 57984, Note_on_c, 0, 66, 0
4, 57984, Note_on_c, 0, 57, 0
4, 57984, Note_on_c, 0, 57, 83
4, 57984, Note_on_c, 0, 66, 95
4, 57984, Note_on_c, 0, 62, 100
4, 58032, Note_on_c, 0, 62, 0
4, 58032, Note_on_c, 0, 66, 0
4, 58032, Note_on_c, 0, 57, 0
4, 58080, Note_on_c, 0, 66, 68
4, 58080, Note_on_c, 0, 62, 83
4, 58080, Note_on_c, 0, 57, 83
4, 58128, Note_on_c, 0, 57, 0
4, 58128, Note_on_c, 0, 62, 0
4, 58128, Note_on_c, 0, 66, 0
4, 58128, Note_on_c, 0, 62, 83
4, 58128, Note_on_c, 0, 57, 83
4, 58128, Note_on_c, 0, 66, 68
4, 58176, Note_on_c, 0, 66, 0
4, 58176, Note_on_c, 0, 57, 0
4, 58176, Note_on_c, 0, 62, 0
4, 58176, Note_on_c, 0, 57, 83
4, 58176, Note_on_c, 0, 66, 80
4, 58176, Note_on_c, 0, 62, 100
4, 58224, Note_on_c, 0, 62, 0
4, 58224, Note_on_c, 0, 66, 0
4, 58224, Note_on_c, 0, 57, 0
4, 58272, Note_on_c, 0, 57, 61
4, 58272, Note_on_c, 0, 62, 71
4, 58272, Note_on_c, 0, 66, 68
4, 58320, Note_on_c, 0, 66, 0
4, 58320, Note_on_c, 0, 62, 0
4, 58320, Note_on_c, 0, 57, 0
4, 58320, Note_on_c, 0, 57, 100
4, 58320, Note_on_c, 0, 66, 95
4, 58320, Note_on_c, 0, 62, 100
4, 58368, Note_on_c, 0, 62, 0
4, 58368, Note_on_c, 0, 66, 0
4, 58368, Note_on_c, 0, 57, 0
4, 58368, Note_on_c, 0, 66, 112
4, 58368, Note_on_c, 0, 57, 83
4, 58368, Note_on_c, 0, 62, 100
4, 58416, Note_on_c, 0, 62, 0
4, 58416, Note_on_c, 0, 57, 0
4, 58416, Note_on_c, 0, 66, 0
4, 58464, Note_on_c, 0, 66, 80
4, 58464, Note_on_c, 0, 57, 83
4, 58464, Note_on_c, 0, 62, 100
4, 58512, Note_on_c, 0, 62, 0
4, 58512, Note_on_c, 0, 57, 0
4, 58512, Note_on_c, 0, 66, 0
4, 58512, Note_on_c, 0, 66, 80
4, 58512, Note_on_c, 0, 57, 83
4, 58512, Note_on_c, 0, 62, 83
4, 58560, Note_on_c, 0, 62, 0
4, 58560, Note_on_c, 0, 57, 0
4, 58560, Note_on_c, 0, 66, 0
4, 58560, Note_on_c, 0, 66, 112
4, 58560, Note_on_c, 0, 62, 100
4, 58560, Note_on_c, 0, 57, 100
4, 58608, Note_on_c, 0, 57, 0
4, 58608, Note_on_c, 0, 62, 0
4, 58608, Note_on_c, 0, 66, 0
4, 58656, Note_on_c, 0, 66, 68
4, 58656, Note_on_c, 0, 57, 83
4, 58656, Note_on_c, 0, 62, 100
4, 58704, Note_on_c, 0, 62, 0
4, 58704, Note_on_c, 0, 57, 0
4, 58704, Note_on_c, 0, 66, 0
4, 58704, Note_on_c, 0, 57, 83
4, 58704, Note_on_c, 0, 66, 80
4, 58704, Note_on_c, 0, 62, 83
4, 58752, Note_on_c, 0, 62, 0
4, 58752, Note_on_c, 0, 66, 0
4, 58752, Note_on_c, 0, 57, 0
4, 58752, Note_on_c, 0, 57, 83
4, 58752, Note_on_c, 0, 64, 80
4, 58752, Note_on_c, 0, 61, 95
4, 58848, Note_on_c, 0, 61, 0
4, 58848, Note_on_c, 0, 64, 0
4, 58848, Note_on_c, 0, 57, 0
4, 58848, Note_on_c, 0, 61, 80
4, 58848, Note_on_c, 0, 57, 83
4, 58848, Note_on_c, 0, 64, 80
4, 58896, Note_on_c, 0, 64, 0
4, 58896, Note_on_c, 0, 57, 0
4, 58896, Note_on_c, 0, 61, 0
4, 58896, Note_on_c, 0, 57, 100
4, 58896, Note_on_c, 0, 61, 95
4, 58896, Note_on_c, 0, 64, 95
4, 58944, Note_on_c, 0, 64, 0
4, 58944, Note_on_c, 0, 61, 0
4, 58944, Note_on_c, 0, 57, 0
4, 58944, Note_on_c, 0, 61, 124
4, 58944, Note_on_c, 0, 57, 100
4, 58944, Note_on_c, 0, 64, 95
4, 58992, Note_on_c, 0, 64, 0
4, 58992, Note_on_c, 0, 57, 0
4, 58992, Note_on_c, 0, 61, 0
4, 59040, Note_on_c, 0, 55, 116
4, 59040, Note_on_c, 0, 62, 100
4, 59040, Note_on_c, 0, 59, 112
4, 59088, Note_on_c, 0, 59, 0
4, 59088, Note_on_c, 0, 62, 0
4, 59088, Note_on_c, 0, 55, 0
4, 59232, Note_on_c, 0, 59, 80
4, 59232, Note_on_c, 0, 62, 61
4, 59232, Note_on_c, 0, 55, 71
4, 59280, Note_on_c, 0, 55, 0
4, 59280, Note_on_c, 0, 62, 0
4, 59280, Note_on_c, 0, 59, 0
4, 59280, Note_on_c, 0, 55, 100
4, 59280, Note_on_c, 0, 59, 80
4, 59280, Note_on_c, 0, 62, 100
4, 59328, Note_on_c, 0, 62, 0
4, 59328, Note_on_c, 0, 59, 0
4, 59328, Note_on_c, 0, 55, 0
4, 59328, Note_on_c, 0, 55, 100
4, 59328, Note_on_c, 0, 59, 80
4, 59328, Note_on_c, 0, 62, 83
4, 59376, Note_on_c, 0, 62, 0
4, 59376, Note_on_c, 0, 59, 0
4, 59376, Note_on_c, 0, 55, 0
4, 59424, Note_on_c, 0, 59, 80
4, 59424, Note_on_c, 0, 62, 71
4, 59424, Note_on_c, 0, 55, 71
4, 59472, Note_on_c, 0, 55, 0
4, 59472, Note_on_c, 0, 62, 0
4, 59472, Note_on_c, 0, 59, 0
4, 59472, Note_on_c, 0, 55, 100
4, 59472, Note_on_c, 0, 59, 95
4, 59472, Note_on_c, 0, 62, 100
4, 59520, Note_on_c, 0, 62, 0
4, 59520, Note_on_c, 0, 59, 0
4, 59520, Note_on_c, 0, 55, 0
4, 59520, Note_on_c, 0, 55, 100
4, 59520, Note_on_c, 0, 59, 112
4, 59520, Note_on_c, 0, 62, 116
4, 59568, Note_on_c, 0, 62, 0
4, 59568, Note_on_c, 0, 59, 0
4, 59568, Note_on_c, 0, 55, 0
4, 59616, Note_on_c, 0, 59, 80
4, 59616, Note_on_c, 0, 62, 71
4, 59616, Note_on_c, 0, 55, 100
4, 59664, Note_on_c, 0, 55, 0
4, 59664, Note_on_c, 0, 62, 0
4, 59664, Note_on_c, 0, 59, 0
4, 59664, Note_on_c, 0, 55, 83
4, 59664, Note_on_c, 0, 62, 71
4, 59664, Note_on_c, 0, 59, 80
4, 59712, Note_on_c, 0, 59, 0
4, 59712, Note_on_c, 0, 62, 0
4, 59712, Note_on_c, 0, 55, 0
4, 59712, Note_on_c, 0, 55, 100
4, 59712, Note_on_c, 0, 62, 83
4, 59712, Note_on_c, 0, 59, 112
4, 59760, Note_on_c, 0, 59, 0
4, 59760, Note_on_c, 0, 62, 0
4, 59760, Note_on_c, 0, 55, 0
4, 59808, Note_on_c, 0, 59, 80
4, 59808, Note_on_c, 0, 55, 83
4, 59808, Note_on_c, 0, 62, 61
4, 59856, Note_on_c, 0, 62, 0
4, 59856, Note_on_c, 0, 55, 0
4, 59856, Note_on_c, 0, 59, 0
4, 59856, Note_on_c, 0, 55, 83
4, 59856, Note_on_c, 0, 62, 83
4, 59856, Note_on_c, 0, 59, 80
4, 59904, Note_on_c, 0, 59, 0
4, 59904, Note_on_c, 0, 62, 0
4, 59904, Note_on_c, 0, 55, 0
4, 59904, Note_on_c, 0, 55, 116
4, 59904, Note_on_c, 0, 59, 112
4, 59904, Note_on_c, 0, 62, 83
4, 59952, Note_on_c, 0, 62, 0
4, 59952, Note_on_c, 0, 59, 0
4, 59952, Note_on_c, 0, 55, 0
4, 60000, Note_on_c, 0, 59, 80
4, 60000, Note_on_c, 0, 55, 71
4, 60000, Note_on_c, 0, 62, 71
4, 60048, Note_on_c, 0, 62, 0
4, 60048, Note_on_c, 0, 55, 0
4, 60048, Note_on_c, 0, 59, 0
4, 60048, Note_on_c, 0, 55, 83
4, 60048, Note_on_c, 0, 59, 95
4, 60048, Note_on_c, 0, 62, 83
4, 60096, Note_on_c, 0, 62, 0
4, 60096, Note_on_c, 0, 59, 0
4, 60096, Note_on_c, 0, 55, 0
4, 60096, Note_on_c, 0, 55, 116
4, 60096, Note_on_c, 0, 59, 112
4, 60096, Note_on_c, 0, 62, 100
4, 60144, Note_on_c, 0, 62, 0
4, 60144, Note_on_c, 0, 59, 0
4, 60144, Note_on_c, 0, 55, 0
4, 60192, Note_on_c, 0, 59, 95
4, 60192, Note_on_c, 0, 55, 83
4, 60192, Note_on_c, 0, 62, 71
4, 60240, Note_on_c, 0, 62, 0
4, 60240, Note_on_c, 0, 55, 0
4, 60240, Note_on_c, 0, 59, 0
4, 60240, Note_on_c, 0, 55, 100
4, 60240, Note_on_c, 0, 59, 80
4, 60240, Note_on_c, 0, 62, 83
4, 60288, Note_on_c, 0, 62, 0
4, 60288, Note_on_c, 0, 59, 0
4, 60288, Note_on_c, 0, 55, 0
4, 60288, Note_on_c, 0, 64, 95
4, 60288, Note_on_c, 0, 61, 95
4, 60288, Note_on_c, 0, 57, 100
4, 60384, Note_on_c, 0, 61, 0
4, 60384, Note_on_c, 0, 64, 0
4, 60384, Note_on_c, 0, 57, 61
4, 60384, Note_on_c, 0, 61, 80
4, 60384, Note_on_c, 0, 64, 80
4, 60432, Note_on_c, 0, 64, 0
4, 60432, Note_on_c, 0, 61, 0
4, 60432, Note_on_c, 0, 57, 0
4, 60432, Note_on_c, 0, 64, 95
4, 60432, Note_on_c, 0, 57, 83
4, 60432, Note_on_c, 0, 61, 80
4, 60480, Note_on_c, 0, 61, 0
4, 60480, Note_on_c, 0, 57, 0
4, 60480, Note_on_c, 0, 64, 0
4, 60480, Note_on_c, 0, 57, 0
4, 60480, Note_on_c, 0, 57, 116
4, 60480, Note_on_c, 0, 64, 80
4, 60480, Note_on_c, 0, 61, 112
4, 60528, Note_on_c, 0, 61, 0
4, 60528, Note_on_c, 0, 64, 0
4, 60528, Note_on_c, 0, 57, 0
4, 60576, Note_on_c, 0, 57, 100
4, 60576, Note_on_c, 0, 66, 80
4, 60576, Note_on_c, 0, 62, 100
4, 60768, Note_on_c, 0, 62, 0
4, 60768, Note_on_c, 0, 66, 0
4, 60768, Note_on_c, 0, 57, 0
4, 60768, Note_on_c, 0, 57, 100
4, 60768, Note_on_c, 0, 66, 80
4, 60768, Note_on_c, 0, 62, 83
4, 60816, Note_on_c, 0, 62, 0
4, 60816, Note_on_c, 0, 66, 0
4, 60816, Note_on_c, 0, 57, 0
4, 60816, Note_on_c, 0, 57, 83
4, 60816, Note_on_c, 0, 66, 80
4, 60816, Note_on_c, 0, 62, 83
4, 60864, Note_on_c, 0, 62, 0
4, 60864, Note_on_c, 0, 66, 0
4, 60864, Note_on_c, 0, 57, 0
4, 60864, Note_on_c, 0, 57, 100
4, 60864, Note_on_c, 0, 62, 116
4, 60864, Note_on_c, 0, 66, 95
4, 60912, Note_on_c, 0, 66, 0
4, 60912, Note_on_c, 0, 62, 0
4, 60912, Note_on_c, 0, 57, 0
4, 60960, Note_on_c, 0, 57, 71
4, 60960, Note_on_c, 0, 62, 83
4, 60960, Note_on_c, 0, 66, 80
4, 61008, Note_on_c, 0, 66, 0
4, 61008, Note_on_c, 0, 62, 0
4, 61008, Note_on_c, 0, 57, 0
4, 61008, Note_on_c, 0, 57, 83
4, 61008, Note_on_c, 0, 66, 80
4, 61008, Note_on_c, 0, 62, 83
4, 61056, Note_on_c, 0, 62, 0
4, 61056, Note_on_c, 0, 66, 0
4, 61056, Note_on_c, 0, 57, 0
4, 61056, Note_on_c, 0, 57, 83
4, 61056, Note_on_c, 0, 66, 95
4, 61056, Note_on_c, 0, 62, 100
4, 61104, Note_on_c, 0, 62, 0
4, 61104, Note_on_c, 0, 66, 0
4, 61104, Note_on_c, 0, 57, 0
4, 61152, Note_on_c, 0, 66, 68
4, 61152, Note_on_c, 0, 62, 83
4, 61152, Note_on_c, 0, 57, 83
4, 61200, Note_on_c, 0, 57, 0
4, 61200, Note_on_c, 0, 62, 0
4, 61200, Note_on_c, 0, 66, 0
4, 61200, Note_on_c, 0, 62, 83
4, 61200, Note_on_c, 0, 57, 83
4, 61200, Note_on_c, 0, 66, 68
4, 61248, Note_on_c, 0, 66, 0
4, 61248, Note_on_c, 0, 57, 0
4, 61248, Note_on_c, 0, 62, 0
4, 61248, Note_on_c, 0, 57, 83
4, 61248, Note_on_c, 0, 66, 80
4, 61248, Note_on_c, 0, 62, 100
4, 61296, Note_on_c, 0, 62, 0
4, 61296, Note_on_c, 0, 66, 0
4, 61296, Note_on_c, 0, 57, 0
4, 61344, Note_on_c, 0, 57, 61
4, 61344, Note_on_c, 0, 62, 71
4, 61344, Note_on_c, 0, 66, 68
4, 61392, Note_on_c, 0, 66, 0
4, 61392, Note_on_c, 0, 62, 0
4, 61392, Note_on_c, 0, 57, 0
4, 61392, Note_on_c, 0, 57, 100
4, 61392, Note_on_c, 0, 66, 95
4, 61392, Note_on_c, 0, 62, 100
4, 61440, Note_on_c, 0, 62, 0
4, 61440, Note_on_c, 0, 66, 0
4, 61440, Note_on_c, 0, 57, 0
4, 61440, Note_on_c, 0, 66, 112
4, 61440, Note_on_c, 0, 57, 83
4, 61440, Note_on_c, 0, 62, 100
4, 61488, Note_on_c, 0, 62, 0
4, 61488, Note_on_c, 0, 57, 0
4, 61488, Note_on_c, 0, 66, 0
4, 61536, Note_on_c, 0, 66, 80
4, 61536, Note_on_c, 0, 57, 83
4, 61536, Note_on_c, 0, 62, 100
4, 61584, Note_on_c, 0, 62, 0
4, 61584, Note_on_c, 0, 57, 0
4, 61584, Note_on_c, 0, 66, 0
4, 61584, Note_on_c, 0, 66, 80
4, 61584, Note_on_c, 0, 57, 83
4, 61584, Note_on_c, 0, 62, 83
4, 61632, Note_on_c, 0, 62, 0
4, 61632, Note_on_c, 0, 57, 0
4, 61632, Note_on_c, 0, 66, 0
4, 61632, Note_on_c, 0, 66, 112
4, 61632, Note_on_c, 0, 62, 100
4, 61632, Note_on_c, 0, 57, 100
4, 61680, Note_on_c, 0, 57, 0
4, 61680, Note_on_c, 0, 62, 0
4, 61680, Note_on_c, 0, 66, 0
4, 61728, Note_on_c, 0, 66, 68
4, 61728, Note_on_c, 0, 57, 83
4, 61728, Note_on_c, 0, 62, 100
4, 61776, Note_on_c, 0, 62, 0
4, 61776, Note_on_c, 0, 57, 0
4, 61776, Note_on_c, 0, 66, 0
4, 61776, Note_on_c, 0, 57, 83
4, 61776, Note_on_c, 0, 66, 80
4, 61776, Note_on_c, 0, 62, 83
4, 61824, Note_on_c, 0, 62, 0
4, 61824, Note_on_c, 0, 66, 0
4, 61824, Note_on_c, 0, 57, 0
4, 61824, Note_on_c, 0, 57, 83
4, 61824, Note_on_c, 0, 64, 80
4, 61824, Note_on_c, 0, 61, 95
4, 61920, Note_on_c, 0, 61, 0
4, 61920, Note_on_c, 0, 64, 0
4, 61920, Note_on_c, 0, 57, 0
4, 61920, Note_on_c, 0, 61, 80
4, 61920, Note_on_c, 0, 57, 83
4, 61920, Note_on_c, 0, 64, 80
4, 61968, Note_on_c, 0, 64, 0
4, 61968, Note_on_c, 0, 57, 0
4, 61968, Note_on_c, 0, 61, 0
4, 61968, Note_on_c, 0, 57, 100
4, 61968, Note_on_c, 0, 61, 95
4, 61968, Note_on_c, 0, 64, 95
4, 62016, Note_on_c, 0, 64, 0
4, 62016, Note_on_c, 0, 61, 0
4, 62016, Note_on_c, 0, 57, 0
4, 62016, Note_on_c, 0, 61, 124
4, 62016, Note_on_c, 0, 57, 100
4, 62016, Note_on_c, 0, 64, 95
4, 62064, Note_on_c, 0, 64, 0
4, 62064, Note_on_c, 0, 57, 0
4, 62064, Note_on_c, 0, 61, 0
4, 62112, Note_on_c, 0, 55, 116
4, 62112, Note_on_c, 0, 62, 100
4, 62112, Note_on_c, 0, 59, 112
4, 62160, Note_on_c, 0, 59, 0
4, 62160, Note_on_c, 0, 62, 0
4, 62160, Note_on_c, 0, 55, 0
4, 62304, Note_on_c, 0, 59, 80
4, 62304, Note_on_c, 0, 62, 61
4, 62304, Note_on_c, 0, 55, 71
4, 62352, Note_on_c, 0, 55, 0
4, 62352, Note_on_c, 0, 62, 0
4, 62352, Note_on_c, 0, 59, 0
4, 62352, Note_on_c, 0, 55, 100
4, 62352, Note_on_c, 0, 59, 80
4, 62352, Note_on_c, 0, 62, 100
4, 62400, Note_on_c, 0, 62, 0
4, 62400, Note_on_c, 0, 59, 0
4, 62400, Note_on_c, 0, 55, 0
4, 62400, Note_on_c, 0, 55, 100
4, 62400, Note_on_c, 0, 59, 80
4, 62400, Note_on_c, 0, 62, 83
4, 62448, Note_on_c, 0, 62, 0
4, 62448, Note_on_c, 0, 59, 0
4, 62448, Note_on_c, 0, 55, 0
4, 62496, Note_on_c, 0, 59, 80
4, 62496, Note_on_c, 0, 62, 71
4, 62496, Note_on_c, 0, 55, 71
4, 62544, Note_on_c, 0, 55, 0
4, 62544, Note_on_c, 0, 62, 0
4, 62544, Note_on_c, 0, 59, 0
4, 62544, Note_on_c, 0, 55, 100
4, 62544, Note_on_c, 0, 59, 95
4, 62544, Note_on_c, 0, 62, 100
4, 62592, Note_on_c, 0, 62, 0
4, 62592, Note_on_c, 0, 59, 0
4, 62592, Note_on_c, 0, 55, 0
4, 62592, Note_on_c, 0, 55, 100
4, 62592, Note_on_c, 0, 59, 112
4, 62592, Note_on_c, 0, 62, 116
4, 62640, Note_on_c, 0, 62, 0
4, 62640, Note_on_c, 0, 59, 0
4, 62640, Note_on_c, 0, 55, 0
4, 62688, Note_on_c, 0, 59, 80
4, 62688, Note_on_c, 0, 62, 71
4, 62688, Note_on_c, 0, 55, 100
4, 62736, Note_on_c, 0, 55, 0
4, 62736, Note_on_c, 0, 62, 0
4, 62736, Note_on_c, 0, 59, 0
4, 62736, Note_on_c, 0, 55, 83
4, 62736, Note_on_c, 0, 62, 71
4, 62736, Note_on_c, 0, 59, 80
4, 62784, Note_on_c, 0, 59, 0
4, 62784, Note_on_c, 0, 62, 0
4, 62784, Note_on_c, 0, 55, 0
4, 62784, Note_on_c, 0, 55, 100
4, 62784, Note_on_c, 0, 62, 83
4, 62784, Note_on_c, 0, 59, 112
4, 62832, Note_on_c, 0, 59, 0
4, 62832, Note_on_c, 0, 62, 0
4, 62832, Note_on_c, 0, 55, 0
4, 62880, Note_on_c, 0, 59, 80
4, 62880, Note_on_c, 0, 55, 83
4, 62880, Note_on_c, 0, 62, 61
4, 62928, Note_on_c, 0, 62, 0
4, 62928, Note_on_c, 0, 55, 0
4, 62928, Note_on_c, 0, 59, 0
4, 62928, Note_on_c, 0, 55, 83
4, 62928, Note_on_c, 0, 62, 83
4, 62928, Note_on_c, 0, 59, 80
4, 62976, Note_on_c, 0, 59, 0
4, 62976, Note_on_c, 0, 62, 0
4, 62976, Note_on_c, 0, 55, 0
4, 62976, Note_on_c, 0, 55, 116
4, 62976, Note_on_c, 0, 59, 112
4, 62976, Note_on_c, 0, 62, 83
4, 63024, Note_on_c, 0, 62, 0
4, 63024, Note_on_c, 0, 59, 0
4, 63024, Note_on_c, 0, 55, 0
4, 63072, Note_on_c, 0, 59, 80
4, 63072, Note_on_c, 0, 55, 71
4, 63072, Note_on_c, 0, 62, 71
4, 63120, Note_on_c, 0, 62, 0
4, 63120, Note_on_c, 0, 55, 0
4, 63120, Note_on_c, 0, 59, 0
4, 63120, Note_on_c, 0, 55, 83
4, 63120, Note_on_c, 0, 59, 95
4, 63120, Note_on_c, 0, 62, 83
4, 63168, Note_on_c, 0, 62, 0
4, 63168, Note_on_c, 0, 59, 0
4, 63168, Note_on_c, 0, 55, 0
4, 63168, Note_on_c, 0, 55, 116
4, 63168, Note_on_c, 0, 59, 112
4, 63168, Note_on_c, 0, 62, 100
4, 63216, Note_on_c, 0, 62, 0
4, 63216, Note_on_c, 0, 59, 0
4, 63216, Note_on_c, 0, 55, 0
4, 63264, Note_on_c, 0, 59, 95
4, 63264, Note_on_c, 0, 55, 83
4, 63264, Note_on_c, 0, 62, 71
4, 63312, Note_on_c, 0, 62, 0
4, 63312, Note_on_c, 0, 55, 0
4, 63312, Note_on_c, 0, 59, 0
4, 63312, Note_on_c, 0, 55, 100
4, 63312, Note_on_c, 0, 59, 80
4, 63312, Note_on_c, 0, 62, 83
4, 63360, Note_on_c, 0, 62, 0
4, 63360, Note_on_c, 0, 59, 0
4, 63360, Note_on_c, 0, 55, 0
4, 63360, Note_on_c, 0, 64, 95
4, 63360, Note_on_c, 0, 61, 95
4, 63360, Note_on_c, 0, 57, 100
4, 63456, Note_on_c, 0, 61, 0
4, 63456, Note_on_c, 0, 64, 0
4, 63456, Note_on_c, 0, 57, 61
4, 63456, Note_on_c, 0, 61, 80
4, 63456, Note_on_c, 0, 64, 80
4, 63504, Note_on_c, 0, 64, 0
4, 63504, Note_on_c, 0, 61, 0
4, 63504, Note_on_c, 0, 57, 0
4, 63504, Note_on_c, 0, 64, 95
4, 63504, Note_on_c, 0, 57, 83
4, 63504, Note_on_c, 0, 61, 80
4, 63552, Note_on_c, 0, 61, 0
4, 63552, Note_on_c, 0, 57, 0
4, 63552, Note_on_c, 0, 64, 0
4, 63552, Note_on_c, 0, 57, 0
4, 63552, Note_on_c, 0, 57, 116
4, 63552, Note_on_c, 0, 64, 80
4, 63552, Note_on_c, 0, 61, 112
4, 63600, Note_on_c, 0, 61, 0
4, 63600, Note_on_c, 0, 64, 0
4, 63600, Note_on_c, 0, 57, 0
4, 63648, Note_on_c, 0, 57, 100
4, 63648, Note_on_c, 0, 66, 80
4, 63648, Note_on_c, 0, 62, 100
4, 63840, Note_on_c, 0, 62, 0
4, 63840, Note_on_c, 0, 66, 0
4, 63840, Note_on_c, 0, 57, 0
4, 63840, Note_on_c, 0, 57, 100
4, 63840, Note_on_c, 0, 66, 80
4, 63840, Note_on_c, 0, 62, 83
4, 63888, Note_on_c, 0, 62, 0
4, 63888, Note_on_c, 0, 66, 0
4, 63888, Note_on_c, 0, 57, 0
4, 63888, Note_on_c, 0, 57, 83
4, 63888, Note_on_c, 0, 66, 80
4, 63888, Note_on_c, 0, 62, 83
4, 63936, Note_on_c, 0, 62, 0
4, 63936, Note_on_c, 0, 66, 0
4, 63936, Note_on_c, 0, 57, 0
4, 63936, Note_on_c, 0, 57, 100
4, 63936, Note_on_c, 0, 62, 116
4, 63936, Note_on_c, 0, 66, 95
4, 63984, Note_on_c, 0, 66, 0
4, 63984, Note_on_c, 0, 62, 0
4, 63984, Note_on_c, 0, 57, 0
4, 64032, Note_on_c, 0, 57, 71
4, 64032, Note_on_c, 0, 62, 83
4, 64032, Note_on_c, 0, 66, 80
4, 64080, Note_on_c, 0, 66, 0
4, 64080, Note_on_c, 0, 62, 0
4, 64080, Note_on_c, 0, 57, 0
4, 64080, Note_on_c, 0, 57, 83
4, 64080, Note_on_c, 0, 66, 80
4, 64080, Note_on_c, 0, 62, 83
4, 64128, Note_on_c, 0, 62, 0
4, 64128, Note_on_c, 0, 66, 0
4, 64128, Note_on_c, 0, 57, 0
4, 64128, Note_on_c, 0, 57, 83
4, 64128, Note_on_c, 0, 66, 95
4, 64128, Note_on_c, 0, 62, 100
4, 64176, Note_on_c, 0, 62, 0
4, 64176, Note_on_c, 0, 66, 0
4, 64176, Note_on_c, 0, 57, 0
4, 64224, Note_on_c, 0, 66, 68
4, 64224, Note_on_c, 0, 62, 83
4, 64224, Note_on_c, 0, 57, 83
4, 64272, Note_on_c, 0, 57, 0
4, 64272, Note_on_c, 0, 62, 0
4, 64272, Note_on_c, 0, 66, 0
4, 64272, Note_on_c, 0, 62, 83
4, 64272, Note_on_c, 0, 57, 83
4, 64272, Note_on_c, 0, 66, 68
4, 64320, Note_on_c, 0, 66, 0
4, 64320, Note_on_c, 0, 57, 0
4, 64320, Note_on_c, 0, 62, 0
4, 64320, Note_on_c, 0, 57, 83
4, 64320, Note_on_c, 0, 66, 80
4, 64320, Note_on_c, 0, 62, 100
4, 64368, Note_on_c, 0, 62, 0
4, 64368, Note_on_c, 0, 66, 0
4, 64368, Note_on_c, 0, 57, 0
4, 64416, Note_on_c, 0, 57, 61
4, 64416, Note_on_c, 0, 62, 71
4, 64416, Note_on_c, 0, 66, 68
4, 64464, Note_on_c, 0, 66, 0
4, 64464, Note_on_c, 0, 62, 0
4, 64464, Note_on_c, 0, 57, 0
4, 64464, Note_on_c, 0, 57, 100
4, 64464, Note_on_c, 0, 66, 95
4, 64464, Note_on_c, 0, 62, 100
4, 64512, Note_on_c, 0, 62, 0
4, 64512, Note_on_c, 0, 66, 0
4, 64512, Note_on_c, 0, 57, 0
4, 64512, Note_on_c, 0, 66, 112
4, 64512, Note_on_c, 0, 57, 83
4, 64512, Note_on_c, 0, 62, 100
4, 64560, Note_on_c, 0, 62, 0
4, 64560, Note_on_c, 0, 57, 0
4, 64560, Note_on_c, 0, 66, 0
4, 64608, Note_on_c, 0, 66, 80
4, 64608, Note_on_c, 0, 57, 83
4, 64608, Note_on_c, 0, 62, 100
4, 64656, Note_on_c, 0, 62, 0
4, 64656, Note_on_c, 0, 57, 0
4, 64656, Note_on_c, 0, 66, 0
4, 64656, Note_on_c, 0, 66, 80
4, 64656, Note_on_c, 0, 57, 83
4, 64656, Note_on_c, 0, 62, 83
4, 64704, Note_on_c, 0, 62, 0
4, 64704, Note_on_c, 0, 57, 0
4, 64704, Note_on_c, 0, 66, 0
4, 64704, Note_on_c, 0, 66, 112
4, 64704, Note_on_c, 0, 62, 100
4, 64704, Note_on_c, 0, 57, 100
4, 64752, Note_on_c, 0, 57, 0
4, 64752, Note_on_c, 0, 62, 0
4, 64752, Note_on_c, 0, 66, 0
4, 64800, Note_on_c, 0, 66, 68
4, 64800, Note_on_c, 0, 57, 83
4, 64800, Note_on_c, 0, 62, 100
4, 64848, Note_on_c, 0, 62, 0
4, 64848, Note_on_c, 0, 57, 0
4, 64848, Note_on_c, 0, 66, 0
4, 64848, Note_on_c, 0, 57, 83
4, 64848, Note_on_c, 0, 66, 80
4, 64848, Note_on_c, 0, 62, 83
4, 64896, Note_on_c, 0, 62, 0
4, 64896, Note_on_c, 0, 66, 0
4, 64896, Note_on_c, 0, 57, 0
4, 64896, Note_on_c, 0, 57, 83
4, 64896, Note_on_c, 0, 64, 80
4, 64896, Note_on_c, 0, 61, 95
4, 64992, Note_on_c, 0, 61, 0
4, 64992, Note_on_c, 0, 64, 0
4, 64992, Note_on_c, 0, 57, 0
4, 64992, Note_on_c, 0, 61, 80
4, 64992, Note_on_c, 0, 57, 83
4, 64992, Note_on_c, 0, 64, 80
4, 65040, Note_on_c, 0, 64, 0
4, 65040, Note_on_c, 0, 57, 0
4, 65040, Note_on_c, 0, 61, 0
4, 65040, Note_on_c, 0, 57, 100
4, 65040, Note_on_c, 0, 61, 95
4, 65040, Note_on_c, 0, 64, 95
4, 65088, Note_on_c, 0, 64, 0
4, 65088, Note_on_c, 0, 61, 0
4, 65088, Note_on_c, 0, 57, 0
4, 65088, Note_on_c, 0, 61, 124
4, 65088, Note_on_c, 0, 57, 100
4, 65088, Note_on_c, 0, 64, 95
4, 65136, Note_on_c, 0, 64, 0
4, 65136, Note_on_c, 0, 57, 0
4, 65136, Note_on_c, 0, 61, 0
4, 65184, Note_on_c, 0, 55, 116
4, 65184, Note_on_c, 0, 62, 100
4, 65184, Note_on_c, 0, 59, 112
4, 65232, Note_on_c, 0, 59, 0
4, 65232, Note_on_c, 0, 62, 0
4, 65232, Note_on_c, 0, 55, 0
4, 77184, Note_on_c, 0, 57, 83
4, 77184, Note_on_c, 0, 64, 80
4, 77184, Note_on_c, 0, 61, 95
4, 77280, Note_on_c, 0, 61, 0
4, 77280, Note_on_c, 0, 64, 0
4, 77280, Note_on_c, 0, 57, 0
4, 77280, Note_on_c, 0, 61, 80
4, 77280, Note_on_c, 0, 57, 83
4, 77280, Note_on_c, 0, 64, 80
4, 77328, Note_on_c, 0, 64, 0
4, 77328, Note_on_c, 0, 57, 0
4, 77328, Note_on_c, 0, 61, 0
4, 77328, Note_on_c, 0, 57, 100
4, 77328, Note_on_c, 0, 61, 95
4, 77328, Note_on_c, 0, 64, 95
4, 77376, Note_on_c, 0, 64, 0
4, 77376, Note_on_c, 0, 61, 0
4, 77376, Note_on_c, 0, 57, 0
4, 77376, Note_on_c, 0, 61, 124
4, 77376, Note_on_c, 0, 57, 100
4, 77376, Note_on_c, 0, 64, 95
4, 77424, Note_on_c, 0, 64, 0
4, 77424, Note_on_c, 0, 57, 0
4, 77424, Note_on_c, 0, 61, 0
4, 77472, Note_on_c, 0, 55, 116
4, 77472, Note_on_c, 0, 62, 100
4, 77472, Note_on_c, 0, 59, 112
4, 77520, Note_on_c, 0, 59, 0
4, 77520, Note_on_c, 0, 62, 0
4, 77520, Note_on_c, 0, 55, 0
4, 77664, Note_on_c, 0, 59, 80
4, 77664, Note_on_c, 0, 62, 61
4, 77664, Note_on_c, 0, 55, 71
4, 77712, Note_on_c, 0, 55, 0
4, 77712, Note_on_c, 0, 62, 0
4, 77712, Note_on_c, 0, 59, 0
4, 77712, Note_on_c, 0, 55, 100
4, 77712, Note_on_c, 0, 59, 80
4, 77712, Note_on_c, 0, 62, 100
4, 77760, Note_on_c, 0, 62, 0
4, 77760, Note_on_c, 0, 59, 0
4, 77760, Note_on_c, 0, 55, 0
4, 77760, Note_on_c, 0, 55, 100
4, 77760, Note_on_c, 0, 59, 80
4, 77760, Note_on_c, 0, 62, 83
4, 77808, Note_on_c, 0, 62, 0
4, 77808, Note_on_c, 0, 59, 0
4, 77808, Note_on_c, 0, 55, 0
4, 77856, Note_on_c, 0, 59, 80
4, 77856, Note_on_c, 0, 62, 71
4, 77856, Note_on_c, 0, 55, 71
4, 77904, Note_on_c, 0, 55, 0
4, 77904, Note_on_c, 0, 62, 0
4, 77904, Note_on_c, 0, 59, 0
4, 77904, Note_on_c, 0, 55, 100
4, 77904, Note_on_c, 0, 59, 95
4, 77904, Note_on_c, 0, 62, 100
4, 77952, Note_on_c, 0, 62, 0
4, 77952, Note_on_c, 0, 59, 0
4, 77952, Note_on_c, 0, 55, 0
4, 77952, Note_on_c, 0, 55, 100
4, 77952, Note_on_c, 0, 59, 112
4, 77952, Note_on_c, 0, 62, 116
4, 78000, Note_on_c, 0, 62, 0
4, 78000, Note_on_c, 0, 59, 0
4, 78000, Note_on_c, 0, 55, 0
4, 78048, Note_on_c, 0, 59, 80
4, 78048, Note_on_c, 0, 62, 71
4, 78048, Note_on_c, 0, 55, 100
4, 78096, Note_on_c, 0, 55, 0
4, 78096, Note_on_c, 0, 62, 0
4, 78096, Note_on_c, 0, 59, 0
4, 78096, Note_on_c, 0, 55, 83
4, 78096, Note_on_c, 0, 62, 71
4, 78096, Note_on_c, 0, 59, 80
4, 78144, Note_on_c, 0, 59, 0
4, 78144, Note_on_c, 0, 62, 0
4, 78144, Note_on_c, 0, 55, 0
4, 78144, Note_on_c, 0, 55, 100
4, 78144, Note_on_c, 0, 62, 83
4, 78144, Note_on_c, 0, 59, 112
4, 78192, Note_on_c, 0, 59, 0
4, 78192, Note_on_c, 0, 62, 0
4, 78192, Note_on_c, 0, 55, 0
4, 78240, Note_on_c, 0, 59, 80
4, 78240, Note_on_c, 0, 55, 83
4, 78240, Note_on_c, 0, 62, 61
4, 78288, Note_on_c, 0, 62, 0
4, 78288, Note_on_c, 0, 55, 0
4, 78288, Note_on_c, 0, 59, 0
4, 78288, Note_on_c, 0, 55, 83
4, 78288, Note_on_c, 0, 62, 83
4, 78288, Note_on_c, 0, 59, 80
4, 78336, Note_on_c, 0, 59, 0
4, 78336, Note_on_c, 0, 62, 0
4, 78336, Note_on_c, 0, 55, 0
4, 78336, Note_on_c, 0, 55, 116
4, 78336, Note_on_c, 0, 59, 112
4, 78336, Note_on_c, 0, 62, 83
4, 78384, Note_on_c, 0, 62, 0
4, 78384, Note_on_c, 0, 59, 0
4, 78384, Note_on_c, 0, 55, 0
4, 78432, Note_on_c, 0, 59, 80
4, 78432, Note_on_c, 0, 55, 71
4, 78432, Note_on_c, 0, 62, 71
4, 78480, Note_on_c, 0, 62, 0
4, 78480, Note_on_c, 0, 55, 0
4, 78480, Note_on_c, 0, 59, 0
4, 78480, Note_on_c, 0, 55, 83
4, 78480, Note_on_c, 0, 59, 95
4, 78480, Note_on_c, 0, 62, 83
4, 78528, Note_on_c, 0, 62, 0
4, 78528, Note_on_c, 0, 59, 0
4, 78528, Note_on_c, 0, 55, 0
4, 78528, Note_on_c, 0, 55, 116
4, 78528, Note_on_c, 0, 59, 112
4, 78528, Note_on_c, 0, 62, 100
4, 78576, Note_on_c, 0, 62, 0
4, 78576, Note_on_c, 0, 59, 0
4, 78576, Note_on_c, 0, 55, 0
4, 78624, Note_on_c, 0, 59, 95
4, 78624, Note_on_c, 0, 55, 83
4, 78624, Note_on_c, 0, 62, 71
4, 78672, Note_on_c, 0, 62, 0
4, 78672, Note_on_c, 0, 55, 0
4, 78672, Note_on_c, 0, 59, 0
4, 78672, Note_on_c, 0, 55, 100
4, 78672, Note_on_c, 0, 59, 80
4, 78672, Note_on_c, 0, 62, 83
4, 78720, Note_on_c, 0, 62, 0
4, 78720, Note_on_c, 0, 59, 0
4, 78720, Note_on_c, 0, 55, 0
4, 78720, Note_on_c, 0, 64, 95
4, 78720, Note_on_c, 0, 61, 95
4, 78720, Note_on_c, 0, 57, 100
4, 78816, Note_on_c, 0, 61, 0
4, 78816, Note_on_c, 0, 64, 0
4, 78816, Note_on_c, 0, 57, 61
4, 78816, Note_on_c, 0, 61, 80
4, 78816, Note_on_c, 0, 64, 80
4, 78864, Note_on_c, 0, 64, 0
4, 78864, Note_on_c, 0, 61, 0
4, 78864, Note_on_c, 0, 57, 0
4, 78864, Note_on_c, 0, 64, 95
4, 78864, Note_on_c, 0, 57, 83
4, 78864, Note_on_c, 0, 61, 80
4, 78912, Note_on_c, 0, 61, 0
4, 78912, Note_on_c, 0, 57, 0
4, 78912, Note_on_c, 0, 64, 0
4, 78912, Note_on_c, 0, 57, 0
4, 78912, Note_on_c, 0, 57, 116
4, 78912, Note_on_c, 0, 64, 80
4, 78912, Note_on_c, 0, 61, 112
4, 78960, Note_on_c, 0, 61, 0
4, 78960, Note_on_c, 0, 64, 0
4, 78960, Note_on_c, 0, 57, 0
4, 79008, Note_on_c, 0, 57, 100
4, 79008, Note_on_c, 0, 66, 80
4, 79008, Note_on_c, 0, 62, 100
4, 79200, Note_on_c, 0, 62, 0
4, 79200, Note_on_c, 0, 66, 0
4, 79200, Note_on_c, 0, 57, 0
4, 79200, Note_on_c, 0, 57, 100
4, 79200, Note_on_c, 0, 66, 80
4, 79200, Note_on_c, 0, 62, 83
4, 79248, Note_on_c, 0, 62, 0
4, 79248, Note_on_c, 0, 66, 0
4, 79248, Note_on_c, 0, 57, 0
4, 79248, Note_on_c, 0, 57, 83
4, 79248, Note_on_c, 0, 66, 80
4, 79248, Note_on_c, 0, 62, 83
4, 79296, Note_on_c, 0, 62, 0
4, 79296, Note_on_c, 0, 66, 0
4, 79296, Note_on_c, 0, 57, 0
4, 79296, Note_on_c, 0, 57, 100
4, 79296, Note_on_c, 0, 62, 116
4, 79296, Note_on_c, 0, 66, 95
4, 79344, Note_on_c, 0, 66, 0
4, 79344, Note_on_c, 0, 62, 0
4, 79344, Note_on_c, 0, 57, 0
4, 79392, Note_on_c, 0, 57, 71
4, 79392, Note_on_c, 0, 62, 83
4, 79392, Note_on_c, 0, 66, 80
4, 79440, Note_on_c, 0, 66, 0
4, 79440, Note_on_c, 0, 62, 0
4, 79440, Note_on_c, 0, 57, 0
4, 79440, Note_on_c, 0, 57, 83
4, 79440, Note_on_c, 0, 66, 80
4, 79440, Note_on_c, 0, 62, 83
4, 79488, Note_on_c, 0, 62, 0
4, 79488, Note_on_c, 0, 66, 0
4, 79488, Note_on_c, 0, 57, 0
4, 79488, Note_on_c, 0, 57, 83
4, 79488, Note_on_c, 0, 66, 95
4, 79488, Note_on_c, 0, 62, 100
4, 79536, Note_on_c, 0, 62, 0
4, 79536, Note_on_c, 0, 66, 0
4, 79536, Note_on_c, 0, 57, 0
4, 79584, Note_on_c, 0, 66, 68
4, 79584, Note_on_c, 0, 62, 83
4, 79584, Note_on_c, 0, 57, 83
4, 79632, Note_on_c, 0, 57, 0
4, 79632, Note_on_c, 0, 62, 0
4, 79632, Note_on_c, 0, 66, 0
4, 79632, Note_on_c, 0, 62, 83
4, 79632, Note_on_c, 0, 57, 83
4, 79632, Note_on_c, 0, 66, 68
4, 79680, Note_on_c, 0, 66, 0
4, 79680, Note_on_c, 0, 57, 0
4, 79680, Note_on_c, 0, 62, 0
4, 79680, Note_on_c, 0, 57, 83
4, 79680, Note_on_c, 0, 66, 80
4, 79680, Note_on_c, 0, 62, 100
4, 79728, Note_on_c, 0, 62, 0
4, 79728, Note_on_c, 0, 66, 0
4, 79728, Note_on_c, 0, 57, 0
4, 79776, Note_on_c, 0, 57, 61
4, 79776, Note_on_c, 0, 62, 71
4, 79776, Note_on_c, 0, 66, 68
4, 79824, Note_on_c, 0, 66, 0
4, 79824, Note_on_c, 0, 62, 0
4, 79824, Note_on_c, 0, 57, 0
4, 79824, Note_on_c, 0, 57, 100
4, 79824, Note_on_c, 0, 66, 95
4, 79824, Note_on_c, 0, 62, 100
4, 79872, Note_on_c, 0, 62, 0
4, 79872, Note_on_c, 0, 66, 0
4, 79872, Note_on_c, 0, 57, 0
4, 79872, Note_on_c, 0, 66, 112
4, 79872, Note_on_c, 0, 57, 83
4, 79872, Note_on_c, 0, 62, 100
4, 79920, Note_on_c, 0, 62, 0
4, 79920, Note_on_c, 0, 57, 0
4, 79920, Note_on_c, 0, 66, 0
4, 79968, Note_on_c, 0, 66, 80
4, 79968, Note_on_c, 0, 57, 83
4, 79968, Note_on_c, 0, 62, 100
4, 80016, Note_on_c, 0, 62, 0
4, 80016, Note_on_c, 0, 57, 0
4, 80016, Note_on_c, 0, 66, 0
4, 80016, Note_on_c, 0, 66, 80
4, 80016, Note_on_c, 0, 57, 83
4, 80016, Note_on_c, 0, 62, 83
4, 80064, Note_on_c, 0, 62, 0
4, 80064, Note_on_c, 0, 57, 0
4, 80064, Note_on_c, 0, 66, 0
4, 80064, Note_on_c, 0, 66, 112
4, 80064, Note_on_c, 0, 62, 100
4, 80064, Note_on_c, 0, 57, 100
4, 80112, Note_on_c, 0, 57, 0
4, 80112, Note_on_c, 0, 62, 0
4, 80112, Note_on_c, 0, 66, 0
4, 80160, Note_on_c, 0, 66, 68
4, 80160, Note_on_c, 0, 57, 83
4, 80160, Note_on_c, 0, 62, 100
4, 80208, Note_on_c, 0, 62, 0
4, 80208, Note_on_c, 0, 57, 0
4, 80208, Note_on_c, 0, 66, 0
4, 80208, Note_on_c, 0, 57, 83
4, 80208, Note_on_c, 0, 66, 80
4, 80208, Note_on_c, 0, 62, 83
4, 80256, Note_on_c, 0, 62, 0
4, 80256, Note_on_c, 0, 66, 0
4, 80256, Note_on_c, 0, 57, 0
4, 80256, Note_on_c, 0, 57, 83
4, 80256, Note_on_c, 0, 64, 80
4, 80256, Note_on_c, 0, 61, 95
4, 80352, Note_on_c, 0, 61, 0
4, 80352, Note_on_c, 0, 64, 0
4, 80352, Note_on_c, 0, 57, 0
4, 80352, Note_on_c, 0, 61, 80
4, 80352, Note_on_c, 0, 57, 83
4, 80352, Note_on_c, 0, 64, 80
4, 80400, Note_on_c, 0, 64, 0
4, 80400, Note_on_c, 0, 57, 0
4, 80400, Note_on_c, 0, 61, 0
4, 80400, Note_on_c, 0, 57, 100
4, 80400, Note_on_c, 0, 61, 95
4, 80400, Note_on_c, 0, 64, 95
4, 80448, Note_on_c, 0, 64, 0
4, 80448, Note_on_c, 0, 61, 0
4, 80448, Note_on_c, 0, 57, 0
4, 80448, Note_on_c, 0, 61, 124
4, 80448, Note_on_c, 0, 57, 100
4, 80448, Note_on_c, 0, 64, 95
4, 80496, Note_on_c, 0, 64, 0
4, 80496, Note_on_c, 0, 57, 0
4, 80496, Note_on_c, 0, 61, 0
4, 80544, Note_on_c, 0, 55, 116
4, 80544, Note_on_c, 0, 62, 100
4, 80544, Note_on_c, 0, 59, 112
4, 80592, Note_on_c, 0, 59, 0
4, 80592, Note_on_c, 0, 62, 0
4, 80592, Note_on_c, 0, 55, 0
4, 80736, Note_on_c, 0, 59, 80
4, 80736, Note_on_c, 0, 62, 61
4, 80736, Note_on_c, 0, 55, 71
4, 80784, Note_on_c, 0, 55, 0
4, 80784, Note_on_c, 0, 62, 0
4, 80784, Note_on_c, 0, 59, 0
4, 80784, Note_on_c, 0, 55, 100
4, 80784, Note_on_c, 0, 59, 80
4, 80784, Note_on_c, 0, 62, 100
4, 80832, Note_on_c, 0, 62, 0
4, 80832, Note_on_c, 0, 59, 0
4, 80832, Note_on_c, 0, 55, 0
4, 80832, Note_on_c, 0, 55, 100
4, 80832, Note_on_c, 0, 59, 80
4, 80832, Note_on_c, 0, 62, 83
4, 80880, Note_on_c, 0, 62, 0
4, 80880, Note_on_c, 0, 59, 0
4, 80880, Note_on_c, 0, 55, 0
4, 80928, Note_on_c, 0, 59, 80
4, 80928, Note_on_c, 0, 62, 71
4, 80928, Note_on_c, 0, 55, 71
4, 80976, Note_on_c, 0, 55, 0
4, 80976, Note_on_c, 0, 62, 0
4, 80976, Note_on_c, 0, 59, 0
4, 80976, Note_on_c, 0, 55, 100
4, 80976, Note_on_c, 0, 59, 95
4, 80976, Note_on_c, 0, 62, 100
4, 81024, Note_on_c, 0, 62, 0
4, 81024, Note_on_c, 0, 59, 0
4, 81024, Note_on_c, 0, 55, 0
4, 81024, Note_on_c, 0, 55, 100
4, 81024, Note_on_c, 0, 59, 112
4, 81024, Note_on_c, 0, 62, 116
4, 81072, Note_on_c, 0, 62, 0
4, 81072, Note_on_c, 0, 59, 0
4, 81072, Note_on_c, 0, 55, 0
4, 81120, Note_on_c, 0, 59, 80
4, 81120, Note_on_c, 0, 62, 71
4, 81120, Note_on_c, 0, 55, 100
4, 81168, Note_on_c, 0, 55, 0
4, 81168, Note_on_c, 0, 62, 0
4, 81168, Note_on_c, 0, 59, 0
4, 81168, Note_on_c, 0, 55, 83
4, 81168, Note_on_c, 0, 62, 71
4, 81168, Note_on_c, 0, 59, 80
4, 81216, Note_on_c, 0, 59, 0
4, 81216, Note_on_c, 0, 62, 0
4, 81216, Note_on_c, 0, 55, 0
4, 81216, Note_on_c, 0, 55, 100
4, 81216, Note_on_c, 0, 62, 83
4, 81216, Note_on_c, 0, 59, 112
4, 81264, Note_on_c, 0, 59, 0
4, 81264, Note_on_c, 0, 62, 0
4, 81264, Note_on_c, 0, 55, 0
4, 81312, Note_on_c, 0, 59, 80
4, 81312, Note_on_c, 0, 55, 83
4, 81312, Note_on_c, 0, 62, 61
4, 81360, Note_on_c, 0, 62, 0
4, 81360, Note_on_c, 0, 55, 0
4, 81360, Note_on_c, 0, 59, 0
4, 81360, Note_on_c, 0, 55, 83
4, 81360, Note_on_c, 0, 62, 83
4, 81360, Note_on_c, 0, 59, 80
4, 81408, Note_on_c, 0, 59, 0
4, 81408, Note_on_c, 0, 62, 0
4, 81408, Note_on_c, 0, 55, 0
4, 81408, Note_on_c, 0, 55, 116
4, 81408, Note_on_c, 0, 59, 112
4, 81408, Note_on_c, 0, 62, 83
4, 81456, Note_on_c, 0, 62, 0
4, 81456, Note_on_c, 0, 59, 0
4, 81456, Note_on_c, 0, 55, 0
4, 81504, Note_on_c, 0, 59, 80
4, 81504, Note_on_c, 0, 55, 71
4, 81504, Note_on_c, 0, 62, 71
4, 81552, Note_on_c, 0, 62, 0
4, 81552, Note_on_c, 0, 55, 0
4, 81552, Note_on_c, 0, 59, 0
4, 81552, Note_on_c, 0, 55, 83
4, 81552, Note_on_c, 0, 59, 95
4, 81552, Note_on_c, 0, 62, 83
4, 81600, Note_on_c, 0, 62, 0
4, 81600, Note_on_c, 0, 59, 0
4, 81600, Note_on_c, 0, 55, 0
4, 81600, Note_on_c, 0, 55, 116
4, 81600, Note_on_c, 0, 59, 112
4, 81600, Note_on_c, 0, 62, 100
4, 81648, Note_on_c, 0, 62, 0
4, 81648, Note_on_c, 0, 59, 0
4, 81648, Note_on_c, 0, 55, 0
4, 81696, Note_on_c, 0, 59, 95
4, 81696, Note_on_c, 0, 55, 83
4, 81696, Note_on_c, 0, 62, 71
4, 81744, Note_on_c, 0, 62, 0
4, 81744, Note_on_c, 0, 55, 0
4, 81744, Note_on_c, 0, 59, 0
4, 81744, Note_on_c, 0, 55, 100
4, 81744, Note_on_c, 0, 59, 80
4, 81744, Note_on_c, 0, 62, 83
4, 81792, Note_on_c, 0, 62, 0
4, 81792, Note_on_c, 0, 59, 0
4, 81792, Note_on_c, 0, 55, 0
4, 81792, Note_on_c, 0, 64, 95
4, 81792, Note_on_c, 0, 61, 95
4, 81792, Note_on_c, 0, 57, 100
4, 81888, Note_on_c, 0, 61, 0
4, 81888, Note_on_c, 0, 64, 0
4, 81888, Note_on_c, 0, 57, 61
4, 81888, Note_on_c, 0, 61, 80
4, 81888, Note_on_c, 0, 64, 80
4, 81936, Note_on_c, 0, 64, 0
4, 81936, Note_on_c, 0, 61, 0
4, 81936, Note_on_c, 0, 57, 0
4, 81936, Note_on_c, 0, 64, 95
4, 81936, Note_on_c, 0, 57, 83
4, 81936, Note_on_c, 0, 61, 80
4, 81984, Note_on_c, 0, 61, 0
4, 81984, Note_on_c, 0, 57, 0
4, 81984, Note_on_c, 0, 64, 0
4, 81984, Note_on_c, 0, 57, 0
4, 81984, Note_on_c, 0, 57, 116
4, 81984, Note_on_c, 0, 64, 80
4, 81984, Note_on_c, 0, 61, 112
4, 82032, Note_on_c, 0, 61, 0
4, 82032, Note_on_c, 0, 64, 0
4, 82032, Note_on_c, 0, 57, 0
4, 82080, Note_on_c, 0, 57, 100
4, 82080, Note_on_c, 0, 66, 80
4, 82080, Note_on_c, 0, 62, 100
4, 82272, Note_on_c, 0, 62, 0
4, 82272, Note_on_c, 0, 66, 0
4, 82272, Note_on_c, 0, 57, 0
4, 82272, Note_on_c, 0, 57, 100
4, 82272, Note_on_c, 0, 66, 80
4, 82272, Note_on_c, 0, 62, 83
4, 82320, Note_on_c, 0, 62, 0
4, 82320, Note_on_c, 0, 66, 0
4, 82320, Note_on_c, 0, 57, 0
4, 82320, Note_on_c, 0, 57, 83
4, 82320, Note_on_c, 0, 66, 80
4, 82320, Note_on_c, 0, 62, 83
4, 82368, Note_on_c, 0, 62, 0
4, 82368, Note_on_c, 0, 66, 0
4, 82368, Note_on_c, 0, 57, 0
4, 82368, Note_on_c, 0, 57, 100
4, 82368, Note_on_c, 0, 62, 116
4, 82368, Note_on_c, 0, 66, 95
4, 82416, Note_on_c, 0, 66, 0
4, 82416, Note_on_c, 0, 62, 0
4, 82416, Note_on_c, 0, 57, 0
4, 82464, Note_on_c, 0, 57, 71
4, 82464, Note_on_c, 0, 62, 83
4, 82464, Note_on_c, 0, 66, 80
4, 82512, Note_on_c, 0, 66, 0
4, 82512, Note_on_c, 0, 62, 0
4, 82512, Note_on_c, 0, 57, 0
4, 82512, Note_on_c, 0, 57, 83
4, 82512, Note_on_c, 0, 66, 80
4, 82512, Note_on_c, 0, 62, 83
4, 82560, Note_on_c, 0, 62, 0
4, 82560, Note_on_c, 0, 66, 0
4, 82560, Note_on_c, 0, 57, 0
4, 82560, Note_on_c, 0, 57, 83
4, 82560, Note_on_c, 0, 66, 95
4, 82560, Note_on_c, 0, 62, 100
4, 82608, Note_on_c, 0, 62, 0
4, 82608, Note_on_c, 0, 66, 0
4, 82608, Note_on_c, 0, 57, 0
4, 82656, Note_on_c, 0, 66, 68
4, 82656, Note_on_c, 0, 62, 83
4, 82656, Note_on_c, 0, 57, 83
4, 82704, Note_on_c, 0, 57, 0
4, 82704, Note_on_c, 0, 62, 0
4, 82704, Note_on_c, 0, 66, 0
4, 82704, Note_on_c, 0, 62, 83
4, 82704, Note_on_c, 0, 57, 83
4, 82704, Note_on_c, 0, 66, 68
4, 82752, Note_on_c, 0, 66, 0
4, 82752, Note_on_c, 0, 57, 0
4, 82752, Note_on_c, 0, 62, 0
4, 82752, Note_on_c, 0, 57, 83
4, 82752, Note_on_c, 0, 66, 80
4, 82752, Note_on_c, 0, 62, 100
4, 82800, Note_on_c, 0, 62, 0
4, 82800, Note_on_c, 0, 66, 0
4, 82800, Note_on_c, 0, 57, 0
4, 82848, Note_on_c, 0, 57, 61
4, 82848, Note_on_c, 0, 62, 71
4, 82848, Note_on_c, 0, 66, 68
4, 82896, Note_on_c, 0, 66, 0
4, 82896, Note_on_c, 0, 62, 0
4, 82896, Note_on_c, 0, 57, 0
4, 82896, Note_on_c, 0, 57, 100
4, 82896, Note_on_c, 0, 66, 95
4, 82896, Note_on_c, 0, 62, 100
4, 82944, Note_on_c, 0, 62, 0
4, 82944, Note_on_c, 0, 66, 0
4, 82944, Note_on_c, 0, 57, 0
4, 82944, Note_on_c, 0, 66, 112
4, 82944, Note_on_c, 0, 57, 83
4, 82944, Note_on_c, 0, 62, 100
4, 82992, Note_on_c, 0, 62, 0
4, 82992, Note_on_c, 0, 57, 0
4, 82992, Note_on_c, 0, 66, 0
4, 83040, Note_on_c, 0, 66, 80
4, 83040, Note_on_c, 0, 57, 83
4, 83040, Note_on_c, 0, 62, 100
4, 83088, Note_on_c, 0, 62, 0
4, 83088, Note_on_c, 0, 57, 0
4, 83088, Note_on_c, 0, 66, 0
4, 83088, Note_on_c, 0, 66, 80
4, 83088, Note_on_c, 0, 57, 83
4, 83088, Note_on_c, 0, 62, 83
4, 83136, Note_on_c, 0, 62, 0
4, 83136, Note_on_c, 0, 57, 0
4, 83136, Note_on_c, 0, 66, 0
4, 83136, Note_on_c, 0, 66, 112
4, 83136, Note_on_c, 0, 62, 100
4, 83136, Note_on_c, 0, 57, 100
4, 83184, Note_on_c, 0, 57, 0
4, 83184, Note_on_c, 0, 62, 0
4, 83184, Note_on_c, 0, 66, 0
4, 83232, Note_on_c, 0, 66, 68
4, 83232, Note_on_c, 0, 57, 83
4, 83232, Note_on_c, 0, 62, 100
4, 83280, Note_on_c, 0, 62, 0
4, 83280, Note_on_c, 0, 57, 0
4, 83280, Note_on_c, 0, 66, 0
4, 83280, Note_on_c, 0, 57, 83
4, 83280, Note_on_c, 0, 66, 80
4, 83280, Note_on_c, 0, 62, 83
4, 83328, Note_on_c, 0, 62, 0
4, 83328, Note_on_c, 0, 66, 0
4, 83328, Note_on_c, 0, 57, 0
4, 83328, Note_on_c, 0, 57, 83
4, 83328, Note_on_c, 0, 64, 80
4, 83328, Note_on_c, 0, 61, 95
4, 83424, Note_on_c, 0, 61, 0
4, 83424, Note_on_c, 0, 64, 0
4, 83424, Note_on_c, 0, 57, 0
4, 83424, Note_on_c, 0, 61, 80
4, 83424, Note_on_c, 0, 57, 83
4, 83424, Note_on_c, 0, 64, 80
4, 83472, Note_on_c, 0, 64, 0
4, 83472, Note_on_c, 0, 57, 0
4, 83472, Note_on_c, 0, 61, 0
4, 83472, Note_on_c, 0, 57, 100
4, 83472, Note_on_c, 0, 61, 95
4, 83472, Note_on_c, 0, 64, 95
4, 83520, Note_on_c, 0, 64, 0
4, 83520, Note_on_c, 0, 61, 0
4, 83520, Note_on_c, 0, 57, 0
4, 83520, Note_on_c, 0, 61, 124
4, 83520, Note_on_c, 0, 57, 100
4, 83520, Note_on_c, 0, 64, 95
4, 83568, Note_on_c, 0, 64, 0
4, 83568, Note_on_c, 0, 57, 0
4, 83568, Note_on_c, 0, 61, 0
4, 83616, Note_on_c, 0, 55, 116
4, 83616, Note_on_c, 0, 62, 100
4, 83616, Note_on_c, 0, 59, 112
4, 83664, Note_on_c, 0, 59, 0
4, 83664, Note_on_c, 0, 62, 0
4, 83664, Note_on_c, 0, 55, 0
4, 83808, Note_on_c, 0, 59, 80
4, 83808, Note_on_c, 0, 62, 61
4, 83808, Note_on_c, 0, 55, 71
4, 83856, Note_on_c, 0, 55, 0
4, 83856, Note_on_c, 0, 62, 0
4, 83856, Note_on_c, 0, 59, 0
4, 83856, Note_on_c, 0, 55, 100
4, 83856, Note_on_c, 0, 59, 80
4, 83856, Note_on_c, 0, 62, 100
4, 83904, Note_on_c, 0, 62, 0
4, 83904, Note_on_c, 0, 59, 0
4, 83904, Note_on_c, 0, 55, 0
4, 83904, Note_on_c, 0, 55, 100
4, 83904, Note_on_c, 0, 59, 80
4, 83904, Note_on_c, 0, 62, 83
4, 83952, Note_on_c, 0, 62, 0
4, 83952, Note_on_c, 0, 59, 0
4, 83952, Note_on_c, 0, 55, 0
4, 84000, Note_on_c, 0, 59, 80
4, 84000, Note_on_c, 0, 62, 71
4, 84000, Note_on_c, 0, 55, 71
4, 84048, Note_on_c, 0, 55, 0
4, 84048, Note_on_c, 0, 62, 0
4, 84048, Note_on_c, 0, 59, 0
4, 84048, Note_on_c, 0, 55, 100
4, 84048, Note_on_c, 0, 59, 95
4, 84048, Note_on_c, 0, 62, 100
4, 84096, Note_on_c, 0, 62, 0
4, 84096, Note_on_c, 0, 59, 0
4, 84096, Note_on_c, 0, 55, 0
4, 84096, Note_on_c, 0, 55, 100
4, 84096, Note_on_c, 0, 59, 112
4, 84096, Note_on_c, 0, 62, 116
4, 84144, Note_on_c, 0, 62, 0
4, 84144, Note_on_c, 0, 59, 0
4, 84144, Note_on_c, 0, 55, 0
4, 84192, Note_on_c, 0, 59, 80
4, 84192, Note_on_c, 0, 62, 71
4, 84192, Note_on_c, 0, 55, 100
4, 84240, Note_on_c, 0, 55, 0
4, 84240, Note_on_c, 0, 62, 0
4, 84240, Note_on_c, 0, 59, 0
4, 84240, Note_on_c, 0, 55, 83
4, 84240, Note_on_c, 0, 62, 71
4, 84240, Note_on_c, 0, 59, 80
4, 84288, Note_on_c, 0, 59, 0
4, 84288, Note_on_c, 0, 62, 0
4, 84288, Note_on_c, 0, 55, 0
4, 84288, Note_on_c, 0, 55, 100
4, 84288, Note_on_c, 0, 62, 83
4, 84288, Note_on_c, 0, 59, 112
4, 84336, Note_on_c, 0, 59, 0
4, 84336, Note_on_c, 0, 62, 0
4, 84336, Note_on_c, 0, 55, 0
4, 84384, Note_on_c, 0, 59, 80
4, 84384, Note_on_c, 0, 55, 83
4, 84384, Note_on_c, 0, 62, 61
4, 84432, Note_on_c, 0, 62, 0
4, 84432, Note_on_c, 0, 55, 0
4, 84432, Note_on_c, 0, 59, 0
4, 84432, Note_on_c, 0, 55, 83
4, 84432, Note_on_c, 0, 62, 83
4, 84432, Note_on_c, 0, 59, 80
4, 84480, Note_on_c, 0, 59, 0
4, 84480, Note_on_c, 0, 62, 0
4, 84480, Note_on_c, 0, 55, 0
4, 84480, Note_on_c, 0, 55, 116
4, 84480, Note_on_c, 0, 59, 112
4, 84480, Note_on_c, 0, 62, 83
4, 84528, Note_on_c, 0, 62, 0
4, 84528, Note_on_c, 0, 59, 0
4, 84528, Note_on_c, 0, 55, 0
4, 84576, Note_on_c, 0, 59, 80
4, 84576, Note_on_c, 0, 55, 71
4, 84576, Note_on_c, 0, 62, 71
4, 84624, Note_on_c, 0, 62, 0
4, 84624, Note_on_c, 0, 55, 0
4, 84624, Note_on_c, 0, 59, 0
4, 84624, Note_on_c, 0, 55, 83
4, 84624, Note_on_c, 0, 59, 95
4, 84624, Note_on_c, 0, 62, 83
4, 84672, Note_on_c, 0, 62, 0
4, 84672, Note_on_c, 0, 59, 0
4, 84672, Note_on_c, 0, 55, 0
4, 84672, Note_on_c, 0, 55, 116
4, 84672, Note_on_c, 0, 59, 112
4, 84672, Note_on_c, 0, 62, 100
4, 84720, Note_on_c, 0, 62, 0
4, 84720, Note_on_c, 0, 59, 0
4, 84720, Note_on_c, 0, 55, 0
4, 84768, Note_on_c, 0, 59, 95
4, 84768, Note_on_c, 0, 55, 83
4, 84768, Note_on_c, 0, 62, 71
4, 84816, Note_on_c, 0, 62, 0
4, 84816, Note_on_c, 0, 55, 0
4, 84816, Note_on_c, 0, 59, 0
4, 84816, Note_on_c, 0, 55, 100
4, 84816, Note_on_c, 0, 59, 80
4, 84816, Note_on_c, 0, 62, 83
4, 84864, Note_on_c, 0, 62, 0
4, 84864, Note_on_c, 0, 59, 0
4, 84864, Note_on_c, 0, 55, 0
4, 84864, Note_on_c, 0, 64, 95
4, 84864, Note_on_c, 0, 61, 95
4, 84864, Note_on_c, 0, 57, 100
4, 84960, Note_on_c, 0, 61, 0
4, 84960, Note_on_c, 0, 64, 0
4, 84960, Note_on_c, 0, 57, 61
4, 84960, Note_on_c, 0, 61, 80
4, 84960, Note_on_c, 0, 64, 80
4, 85008, Note_on_c, 0, 64, 0
4, 85008, Note_on_c, 0, 61, 0
4, 85008, Note_on_c, 0, 57, 0
4, 85008, Note_on_c, 0, 64, 95
4, 85008, Note_on_c, 0, 57, 83
4, 85008, Note_on_c, 0, 61, 80
4, 85056, Note_on_c, 0, 61, 0
4, 85056, Note_on_c, 0, 57, 0
4, 85056, Note_on_c, 0, 64, 0
4, 85056, Note_on_c, 0, 57, 0
4, 85056, Note_on_c, 0, 57, 116
4, 85056, Note_on_c, 0, 64, 80
4, 85056, Note_on_c, 0, 61, 112
4, 85104, Note_on_c, 0, 61, 0
4, 85104, Note_on_c, 0, 64, 0
4, 85104, Note_on_c, 0, 57, 0
4, 85152, Note_on_c, 0, 57, 100
4, 85152, Note_on_c, 0, 66, 80
4, 85152, Note_on_c, 0, 62, 100
4, 85344, Note_on_c, 0, 62, 0
4, 85344, Note_on_c, 0, 66, 0
4, 85344, Note_on_c, 0, 57, 0
4, 85344, Note_on_c, 0, 57, 100
4, 85344, Note_on_c, 0, 66, 80
4, 85344, Note_on_c, 0, 62, 83
4, 85392, Note_on_c, 0, 62, 0
4, 85392, Note_on_c, 0, 66, 0
4, 85392, Note_on_c, 0, 57, 0
4, 85392, Note_on_c, 0, 57, 83
4, 85392, Note_on_c, 0, 66, 80
4, 85392, Note_on_c, 0, 62, 83
4, 85440, Note_on_c, 0, 62, 0
4, 85440, Note_on_c, 0, 66, 0
4, 85440, Note_on_c, 0, 57, 0
4, 85440, Note_on_c, 0, 57, 100
4, 85440, Note_on_c, 0, 62, 116
4, 85440, Note_on_c, 0, 66, 95
4, 85488, Note_on_c, 0, 66, 0
4, 85488, Note_on_c, 0, 62, 0
4, 85488, Note_on_c, 0, 57, 0
4, 85536, Note_on_c, 0, 57, 71
4, 85536, Note_on_c, 0, 62, 83
4, 85536, Note_on_c, 0, 66, 80
4, 85584, Note_on_c, 0, 66, 0
4, 85584, Note_on_c, 0, 62, 0
4, 85584, Note_on_c, 0, 57, 0
4, 85584, Note_on_c, 0, 57, 83
4, 85584, Note_on_c, 0, 66, 80
4, 85584, Note_on_c, 0, 62, 83
4, 85632, Note_on_c, 0, 62, 0
4, 85632, Note_on_c, 0, 66, 0
4, 85632, Note_on_c, 0, 57, 0
4, 85632, Note_on_c, 0, 57, 83
4, 85632, Note_on_c, 0, 66, 95
4, 85632, Note_on_c, 0, 62, 100
4, 85680, Note_on_c, 0, 62, 0
4, 85680, Note_on_c, 0, 66, 0
4, 85680, Note_on_c, 0, 57, 0
4, 85728, Note_on_c, 0, 66, 68
4, 85728, Note_on_c, 0, 62, 83
4, 85728, Note_on_c, 0, 57, 83
4, 85776, Note_on_c, 0, 57, 0
4, 85776, Note_on_c, 0, 62, 0
4, 85776, Note_on_c, 0, 66, 0
4, 85776, Note_on_c, 0, 62, 83
4, 85776, Note_on_c, 0, 57, 83
4, 85776, Note_on_c, 0, 66, 68
4, 85824, Note_on_c, 0, 66, 0
4, 85824, Note_on_c, 0, 57, 0
4, 85824, Note_on_c, 0, 62, 0
4, 85824, Note_on_c, 0, 57, 83
4, 85824, Note_on_c, 0, 66, 80
4, 85824, Note_on_c, 0, 62, 100
4, 85872, Note_on_c, 0, 62, 0
4, 85872, Note_on_c, 0, 66, 0
4, 85872, Note_on_c, 0, 57, 0
4, 85920, Note_on_c, 0, 57, 61
4, 85920, Note_on_c, 0, 62, 71
4, 85920, Note_on_c, 0, 66, 68
4, 85968, Note_on_c, 0, 66, 0
4, 85968, Note_on_c, 0, 62, 0
4, 85968, Note_on_c, 0, 57, 0
4, 85968, Note_on_c, 0, 57, 100
4, 85968, Note_on_c, 0, 66, 95
4, 85968, Note_on_c, 0, 62, 100
4, 86016, Note_on_c, 0, 62, 0
4, 86016, Note_on_c, 0, 66, 0
4, 86016, Note_on_c, 0, 57, 0
4, 86016, Note_on_c, 0, 66, 112
4, 86016, Note_on_c, 0, 57, 83
4, 86016, Note_on_c, 0, 62, 100
4, 86064, Note_on_c, 0, 62, 0
4, 86064, Note_on_c, 0, 57, 0
4, 86064, Note_on_c, 0, 66, 0
4, 86112, Note_on_c, 0, 66, 80
4, 86112, Note_on_c, 0, 57, 83
4, 86112, Note_on_c, 0, 62, 100
4, 86160, Note_on_c, 0, 62, 0
4, 86160, Note_on_c, 0, 57, 0
4, 86160, Note_on_c, 0, 66, 0
4, 86160, Note_on_c, 0, 66, 80
4, 86160, Note_on_c, 0, 57, 83
4, 86160, Note_on_c, 0, 62, 83
4, 86208, Note_on_c, 0, 62, 0
4, 86208, Note_on_c, 0, 57, 0
4, 86208, Note_on_c, 0, 66, 0
4, 86208, Note_on_c, 0, 66, 112
4, 86208, Note_on_c, 0, 62, 100
4, 86208, Note_on_c, 0, 57, 100
4, 86256, Note_on_c, 0, 57, 0
4, 86256, Note_on_c, 0, 62, 0
4, 86256, Note_on_c, 0, 66, 0
4, 86304, Note_on_c, 0, 66, 68
4, 86304, Note_on_c, 0, 57, 83
4, 86304, Note_on_c, 0, 62, 100
4, 86352, Note_on_c, 0, 62, 0
4, 86352, Note_on_c, 0, 57, 0
4, 86352, Note_on_c, 0, 66, 0
4, 86352, Note_on_c, 0, 57, 83
4, 86352, Note_on_c, 0, 66, 80
4, 86352, Note_on_c, 0, 62, 83
4, 86400, Note_on_c, 0, 62, 0
4, 86400, Note_on_c, 0, 66, 0
4, 86400, Note_on_c, 0, 57, 0
4, 86400, Note_on_c, 0, 57, 83
4, 86400, Note_on_c, 0, 64, 80
4, 86400, Note_on_c, 0, 61, 95
4, 86496, Note_on_c, 0, 61, 0
4, 86496, Note_on_c, 0, 64, 0
4, 86496, Note_on_c, 0, 57, 0
4, 86496, Note_on_c, 0, 61, 80
4, 86496, Note_on_c, 0, 57, 83
4, 86496, Note_on_c, 0, 64, 80
4, 86544, Note_on_c, 0, 64, 0
4, 86544, Note_on_c, 0, 57, 0
4, 86544, Note_on_c, 0, 61, 0
4, 86544, Note_on_c, 0, 57, 100
4, 86544, Note_on_c, 0, 61, 95
4, 86544, Note_on_c, 0, 64, 95
4, 86592, Note_on_c, 0, 64, 0
4, 86592, Note_on_c, 0, 61, 0
4, 86592, Note_on_c, 0, 57, 0
4, 86592, Note_on_c, 0, 61, 124
4, 86592, Note_on_c, 0, 57, 100
4, 86592, Note_on_c, 0, 64, 95
4, 86640, Note_on_c, 0, 64, 0
4, 86640, Note_on_c, 0, 57, 0
4, 86640, Note_on_c, 0, 61, 0
4, 86688, Note_on_c, 0, 55, 116
4, 86688, Note_on_c, 0, 62, 100
4, 86688, Note_on_c, 0, 59, 112
4, 86736, Note_on_c, 0, 59, 0
4, 86736, Note_on_c, 0, 62, 0
4, 86736, Note_on_c, 0, 55, 0
4, 86880, Note_on_c, 0, 59, 80
4, 86880, Note_on_c, 0, 62, 61
4, 86880, Note_on_c, 0, 55, 71
4, 86928, Note_on_c, 0, 55, 0
4, 86928, Note_on_c, 0, 62, 0
4, 86928, Note_on_c, 0, 59, 0
4, 86928, Note_on_c, 0, 55, 100
4, 86928, Note_on_c, 0, 59, 80
4, 86928, Note_on_c, 0, 62, 100
4, 86976, Note_on_c, 0, 62, 0
4, 86976, Note_on_c, 0, 59, 0
4, 86976, Note_on_c, 0, 55, 0
4, 86976, Note_on_c, 0, 55, 100
4, 86976, Note_on_c, 0, 59, 80
4, 86976, Note_on_c, 0, 62, 83
4, 87024, Note_on_c, 0, 62, 0
4, 87024, Note_on_c, 0, 59, 0
4, 87024, Note_on_c, 0, 55, 0
4, 87072, Note_on_c, 0, 59, 80
4, 87072, Note_on_c, 0, 62, 71
4, 87072, Note_on_c, 0, 55, 71
4, 87120, Note_on_c, 0, 55, 0
4, 87120, Note_on_c, 0, 62, 0
4, 87120, Note_on_c, 0, 59, 0
4, 87120, Note_on_c, 0, 55, 100
4, 87120, Note_on_c, 0, 59, 95
4, 87120, Note_on_c, 0, 62, 100
4, 87168, Note_on_c, 0, 62, 0
4, 87168, Note_on_c, 0, 59, 0
4, 87168, Note_on_c, 0, 55, 0
4, 87168, Note_on_c, 0, 55, 100
4, 87168, Note_on_c, 0, 59, 112
4, 87168, Note_on_c, 0, 62, 116
4, 87216, Note_on_c, 0, 62, 0
4, 87216, Note_on_c, 0, 59, 0
4, 87216, Note_on_c, 0, 55, 0
4, 87264, Note_on_c, 0, 59, 80
4, 87264, Note_on_c, 0, 62, 71
4, 87264, Note_on_c, 0, 55, 100
4, 87312, Note_on_c, 0, 55, 0
4, 87312, Note_on_c, 0, 62, 0
4, 87312, Note_on_c, 0, 59, 0
4, 87312, Note_on_c, 0, 55, 83
4, 87312, Note_on_c, 0, 62, 71
4, 87312, Note_on_c, 0, 59, 80
4, 87360, Note_on_c, 0, 59, 0
4, 87360, Note_on_c, 0, 62, 0
4, 87360, Note_on_c, 0, 55, 0
4, 87360, Note_on_c, 0, 55, 100
4, 87360, Note_on_c, 0, 62, 83
4, 87360, Note_on_c, 0, 59, 112
4, 87408, Note_on_c, 0, 59, 0
4, 87408, Note_on_c, 0, 62, 0
4, 87408, Note_on_c, 0, 55, 0
4, 87456, Note_on_c, 0, 59, 80
4, 87456, Note_on_c, 0, 55, 83
4, 87456, Note_on_c, 0, 62, 61
4, 87504, Note_on_c, 0, 62, 0
4, 87504, Note_on_c, 0, 55, 0
4, 87504, Note_on_c, 0, 59, 0
4, 87504, Note_on_c, 0, 55, 83
4, 87504, Note_on_c, 0, 62, 83
4, 87504, Note_on_c, 0, 59, 80
4, 87552, Note_on_c, 0, 59, 0
4, 87552, Note_on_c, 0, 62, 0
4, 87552, Note_on_c, 0, 55, 0
4, 87552, Note_on_c, 0, 55, 116
4, 87552, Note_on_c, 0, 59, 112
4, 87552, Note_on_c, 0, 62, 83
4, 87600, Note_on_c, 0, 62, 0
4, 87600, Note_on_c, 0, 59, 0
4, 87600, Note_on_c, 0, 55, 0
4, 87648, Note_on_c, 0, 59, 80
4, 87648, Note_on_c, 0, 55, 71
4, 87648, Note_on_c, 0, 62, 71
4, 87696, Note_on_c, 0, 62, 0
4, 87696, Note_on_c, 0, 55, 0
4, 87696, Note_on_c, 0, 59, 0
4, 87696, Note_on_c, 0, 55, 83
4, 87696, Note_on_c, 0, 59, 95
4, 87696, Note_on_c, 0, 62, 83
4, 87744, Note_on_c, 0, 62, 0
4, 87744, Note_on_c, 0, 59, 0
4, 87744, Note_on_c, 0, 55, 0
4, 87744, Note_on_c, 0, 55, 116
4, 87744, Note_on_c, 0, 59, 112
4, 87744, Note_on_c, 0, 62, 100
4, 87792, Note_on_c, 0, 62, 0
4, 87792, Note_on_c, 0, 59, 0
4, 87792, Note_on_c, 0, 55, 0
4, 87840, Note_on_c, 0, 59, 95
4, 87840, Note_on_c, 0, 55, 83
4, 87840, Note_on_c, 0, 62, 71
4, 87888, Note_on_c, 0, 62, 0
4, 87888, Note_on_c, 0, 55, 0
4, 87888, Note_on_c, 0, 59, 0
4, 87888, Note_on_c, 0, 55, 100
4, 87888, Note_on_c, 0, 59, 80
4, 87888, Note_on_c, 0, 62, 83
4, 87936, Note_on_c, 0, 62, 0
4, 87936, Note_on_c, 0, 59, 0
4, 87936, Note_on_c, 0, 55, 0
4, 87936, Note_on_c, 0, 64, 95
4, 87936, Note_on_c, 0, 61, 95
4, 87936, Note_on_c, 0, 57, 100
4, 88032, Note_on_c, 0, 61, 0
4, 88032, Note_on_c, 0, 64, 0
4, 88032, Note_on_c, 0, 57, 61
4, 88032, Note_on_c, 0, 61, 80
4, 88032, Note_on_c, 0, 64, 80
4, 88080, Note_on_c, 0, 64, 0
4, 88080, Note_on_c, 0, 61, 0
4, 88080, Note_on_c, 0, 57, 0
4, 88080, Note_on_c, 0, 64, 95
4, 88080, Note_on_c, 0, 57, 83
4, 88080, Note_on_c, 0, 61, 80
4, 88128, Note_on_c, 0, 61, 0
4, 88128, Note_on_c, 0, 57, 0
4, 88128, Note_on_c, 0, 64, 0
4, 88128, Note_on_c, 0, 57, 0
4, 88128, Note_on_c, 0, 57, 116
4, 88128, Note_on_c, 0, 64, 80
4, 88128, Note_on_c, 0, 61, 112
4, 88176, Note_on_c, 0, 61, 0
4, 88176, Note_on_c, 0, 64, 0
4, 88176, Note_on_c, 0, 57, 0
4, 88224, Note_on_c, 0, 57, 100
4, 88224, Note_on_c, 0, 66, 80
4, 88224, Note_on_c, 0, 62, 100
4, 88416, Note_on_c, 0, 62, 0
4, 88416, Note_on_c, 0, 66, 0
4, 88416, Note_on_c, 0, 57, 0
4, 88416, Note_on_c, 0, 57, 100
4, 88416, Note_on_c, 0, 66, 80
4, 88416, Note_on_c, 0, 62, 83
4, 88464, Note_on_c, 0, 62, 0
4, 88464, Note_on_c, 0, 66, 0
4, 88464, Note_on_c, 0, 57, 0
4, 88464, Note_on_c, 0, 57, 83
4, 88464, Note_on_c, 0, 66, 80
4, 88464, Note_on_c, 0, 62, 83
4, 88512, Note_on_c, 0, 62, 0
4, 88512, Note_on_c, 0, 66, 0
4, 88512, Note_on_c, 0, 57, 0
4, 88512, Note_on_c, 0, 57, 100
4, 88512, Note_on_c, 0, 62, 116
4, 88512, Note_on_c, 0, 66, 95
4, 88560, Note_on_c, 0, 66, 0
4, 88560, Note_on_c, 0, 62, 0
4, 88560, Note_on_c, 0, 57, 0
4, 88608, Note_on_c, 0, 57, 71
4, 88608, Note_on_c, 0, 62, 83
4, 88608, Note_on_c, 0, 66, 80
4, 88656, Note_on_c, 0, 66, 0
4, 88656, Note_on_c, 0, 62, 0
4, 88656, Note_on_c, 0, 57, 0
4, 88656, Note_on_c, 0, 57, 83
4, 88656, Note_on_c, 0, 66, 80
4, 88656, Note_on_c, 0, 62, 83
4, 88704, Note_on_c, 0, 62, 0
4, 88704, Note_on_c, 0, 66, 0
4, 88704, Note_on_c, 0, 57, 0
4, 88704, Note_on_c, 0, 57, 83
4, 88704, Note_on_c, 0, 66, 95
4, 88704, Note_on_c, 0, 62, 100
4, 88752, Note_on_c, 0, 62, 0
4, 88752, Note_on_c, 0, 66, 0
4, 88752, Note_on_c, 0, 57, 0
4, 88800, Note_on_c, 0, 66, 68
4, 88800, Note_on_c, 0, 62, 83
4, 88800, Note_on_c, 0, 57, 83
4, 88848, Note_on_c, 0, 57, 0
4, 88848, Note_on_c, 0, 62, 0
4, 88848, Note_on_c, 0, 66, 0
4, 88848, Note_on_c, 0, 62, 83
4, 88848, Note_on_c, 0, 57, 83
4, 88848, Note_on_c, 0, 66, 68
4, 88896, Note_on_c, 0, 66, 0
4, 88896, Note_on_c, 0, 57, 0
4, 88896, Note_on_c, 0, 62, 0
4, 88896, Note_on_c, 0, 57, 83
4, 88896, Note_on_c, 0, 66, 80
4, 88896, Note_on_c, 0, 62, 100
4, 88944, Note_on_c, 0, 62, 0
4, 88944, Note_on_c, 0, 66, 0
4, 88944, Note_on_c, 0, 57, 0
4, 88992, Note_on_c, 0, 57, 61
4, 88992, Note_on_c, 0, 62, 71
4, 88992, Note_on_c, 0, 66, 68
4, 89040, Note_on_c, 0, 66, 0
4, 89040, Note_on_c, 0, 62, 0
4, 89040, Note_on_c, 0, 57, 0
4, 89040, Note_on_c, 0, 57, 100
4, 89040, Note_on_c, 0, 66, 95
4, 89040, Note_on_c, 0, 62, 100
4, 89088, Note_on_c, 0, 62, 0
4, 89088, Note_on_c, 0, 66, 0
4, 89088, Note_on_c, 0, 57, 0
4, 89088, Note_on_c, 0, 66, 112
4, 89088, Note_on_c, 0, 57, 83
4, 89088, Note_on_c, 0, 62, 100
4, 89136, Note_on_c, 0, 62, 0
4, 89136, Note_on_c, 0, 57, 0
4, 89136, Note_on_c, 0, 66, 0
4, 89184, Note_on_c, 0, 66, 80
4, 89184, Note_on_c, 0, 57, 83
4, 89184, Note_on_c, 0, 62, 100
4, 89232, Note_on_c, 0, 62, 0
4, 89232, Note_on_c, 0, 57, 0
4, 89232, Note_on_c, 0, 66, 0
4, 89232, Note_on_c, 0, 66, 80
4, 89232, Note_on_c, 0, 57, 83
4, 89232, Note_on_c, 0, 62, 83
4, 89280, Note_on_c, 0, 62, 0
4, 89280, Note_on_c, 0, 57, 0
4, 89280, Note_on_c, 0, 66, 0
4, 89280, Note_on_c, 0, 66, 112
4, 89280, Note_on_c, 0, 62, 100
4, 89280, Note_on_c, 0, 57, 100
4, 89328, Note_on_c, 0, 57, 0
4, 89328, Note_on_c, 0, 62, 0
4, 89328, Note_on_c, 0, 66, 0
4, 89376, Note_on_c, 0, 66, 68
4, 89376, Note_on_c, 0, 57, 83
4, 89376, Note_on_c, 0, 62, 100
4, 89424, Note_on_c, 0, 62, 0
4, 89424, Note_on_c, 0, 57, 0
4, 89424, Note_on_c, 0, 66, 0
4, 89424, Note_on_c, 0, 57, 83
4, 89424, Note_on_c, 0, 66, 80
4, 89424, Note_on_c, 0, 62, 83
4, 89472, Note_on_c, 0, 62, 0
4, 89472, Note_on_c, 0, 66, 0
4, 89472, Note_on_c, 0, 57, 0
4, 89472, Note_on_c, 0, 57, 83
4, 89472, Note_on_c, 0, 64, 80
4, 89472, Note_on_c, 0, 61, 95
4, 89568, Note_on_c, 0, 61, 0
4, 89568, Note_on_c, 0, 64, 0
4, 89568, Note_on_c, 0, 57, 0
4, 89568, Note_on_c, 0, 61, 80
4, 89568, Note_on_c, 0, 57, 83
4, 89568, Note_on_c, 0, 64, 80
4, 89616, Note_on_c, 0, 64, 0
4, 89616, Note_on_c, 0, 57, 0
4, 89616, Note_on_c, 0, 61, 0
4, 89616, Note_on_c, 0, 57, 100
4, 89616, Note_on_c, 0, 61, 95
4, 89616, Note_on_c, 0, 64, 95
4, 89664, Note_on_c, 0, 64, 0
4, 89664, Note_on_c, 0, 61, 0
4, 89664, Note_on_c, 0, 57, 0
4, 89664, Note_on_c, 0, 61, 124
4, 89664, Note_on_c, 0, 57, 100
4, 89664, Note_on_c, 0, 64, 95
4, 89712, Note_on_c, 0, 64, 0
4, 89712, Note_on_c, 0, 57, 0
4, 89712, Note_on_c, 0, 61, 0
4, 89760, Note_on_c, 0, 59, 112
4, 89760, Note_on_c, 0, 62, 100
4, 89760, Note_on_c, 0, 55, 116
4, 91264, Control_c, 0, 123, 0
4, 111680, Note_on_c, 0, 55, 0
4, 111680, Note_on_c, 0, 62, 0
4, 111680, Note_on_c, 0, 59, 0
4, 111680, End_track
5, 0, Start_track
5, 0, MIDI_port, 0
5, 0, Control_c, 1, 121, 0
5, 2, Control_c, 1, 67, 0
5, 3, Control_c, 1, 64, 0
5, 4, Control_c, 1, 100, 0
5, 5, Control_c, 1, 101, 0
5, 6, Control_c, 1, 6, 2
5, 7, Control_c, 1, 11, 127
5, 8, Control_c, 1, 1, 0
5, 10, Control_c, 1, 11, 127
5, 12, Pitch_bend_c, 1, 8192
5, 197, Control_c, 1, 0, 0
5, 198, Control_c, 1, 32, 0
5, 199, Program_c, 1, 35
5, 200, Control_c, 1, 7, 100
5, 200, Control_c, 1, 10, 64
5, 584, Control_c, 1, 11, 127
5, 586, Control_c, 1, 91, 0
5, 588, Control_c, 1, 93, 0
5, 3456, Note_on_c, 1, 42, 122
5, 3717, Note_on_c, 1, 42, 0
5, 3744, Note_on_c, 1, 40, 122
5, 3840, Note_on_c, 1, 40, 122
5, 3869, Note_on_c, 1, 40, 0
5, 3936, Note_on_c, 1, 40, 0
5, 4128, Note_on_c, 1, 52, 122
5, 4199, Note_on_c, 1, 52, 0
5, 4320, Note_on_c, 1, 50, 122
5, 4402, Note_on_c, 1, 50, 0
5, 4512, Note_on_c, 1, 47, 122
5, 4674, Note_on_c, 1, 47, 0
5, 4704, Note_on_c, 1, 45, 122
5, 4733, Note_on_c, 1, 45, 0
5, 4800, Note_on_c, 1, 40, 122
5, 4913, Note_on_c, 1, 40, 0
5, 4992, Note_on_c, 1, 42, 122
5, 5088, Note_on_c, 1, 42, 0
5, 5088, Note_on_c, 1, 45, 122
5, 5134, Note_on_c, 1, 45, 0
5, 5184, Note_on_c, 1, 47, 122
5, 5218, Note_on_c, 1, 47, 0
5, 5280, Note_on_c, 1, 35, 122
5, 5618, Note_on_c, 1, 35, 0
5, 5664, Note_on_c, 1, 47, 122
5, 5718, Note_on_c, 1, 47, 0
5, 5856, Note_on_c, 1, 45, 122
5, 5945, Note_on_c, 1, 45, 0
5, 6048, Note_on_c, 1, 42, 122
5, 6216, Note_on_c, 1, 42, 0
5, 6240, Note_on_c, 1, 38, 122
5, 6317, Note_on_c, 1, 38, 0
5, 6336, Note_on_c, 1, 35, 122
5, 6444, Note_on_c, 1, 35, 0
5, 6528, Note_on_c, 1, 42, 122
5, 6624, Note_on_c, 1, 42, 0
5, 6624, Note_on_c, 1, 45, 122
5, 6670, Note_on_c, 1, 45, 0
5, 6720, Note_on_c, 1, 47, 122
5, 6754, Note_on_c, 1, 47, 0
5, 6816, Note_on_c, 1, 40, 122
5, 6912, Note_on_c, 1, 40, 122
5, 6941, Note_on_c, 1, 40, 0
5, 7008, Note_on_c, 1, 40, 0
5, 7200, Note_on_c, 1, 52, 122
5, 7271, Note_on_c, 1, 52, 0
5, 7392, Note_on_c, 1, 50, 122
5, 7474, Note_on_c, 1, 50, 0
5, 7584, Note_on_c, 1, 47, 122
5, 7746, Note_on_c, 1, 47, 0
5, 7776, Note_on_c, 1, 45, 122
5, 7805, Note_on_c, 1, 45, 0
5, 7872, Note_on_c, 1, 40, 122
5, 7985, Note_on_c, 1, 40, 0
5, 8064, Note_on_c, 1, 42, 122
5, 8160, Note_on_c, 1, 45, 122
5, 8208, Note_on_c, 1, 42, 0
5, 8255, Note_on_c, 1, 45, 0
5, 8256, Note_on_c, 1, 47, 122
5, 8320, Note_on_c, 1, 47, 0
5, 8352, Note_on_c, 1, 35, 122
5, 8690, Note_on_c, 1, 35, 0
5, 8736, Note_on_c, 1, 47, 122
5, 8790, Note_on_c, 1, 47, 0
5, 8928, Note_on_c, 1, 45, 122
5, 9017, Note_on_c, 1, 45, 0
5, 9120, Note_on_c, 1, 42, 122
5, 9288, Note_on_c, 1, 42, 0
5, 9312, Note_on_c, 1, 38, 122
5, 9389, Note_on_c, 1, 38, 0
5, 9408, Note_on_c, 1, 35, 122
5, 9516, Note_on_c, 1, 35, 0
5, 9600, Note_on_c, 1, 42, 122
5, 9861, Note_on_c, 1, 42, 0
5, 9888, Note_on_c, 1, 40, 122
5, 10272, Note_on_c, 1, 40, 0
5, 10272, Note_on_c, 1, 52, 122
5, 10343, Note_on_c, 1, 52, 0
5, 10464, Note_on_c, 1, 50, 122
5, 10546, Note_on_c, 1, 50, 0
5, 10656, Note_on_c, 1, 47, 122
5, 10818, Note_on_c, 1, 47, 0
5, 10848, Note_on_c, 1, 45, 122
5, 10877, Note_on_c, 1, 45, 0
5, 10944, Note_on_c, 1, 40, 122
5, 11057, Note_on_c, 1, 40, 0
5, 11136, Note_on_c, 1, 42, 122
5, 11397, Note_on_c, 1, 42, 0
5, 11424, Note_on_c, 1, 35, 122
5, 11762, Note_on_c, 1, 35, 0
5, 11808, Note_on_c, 1, 47, 122
5, 11862, Note_on_c, 1, 47, 0
5, 12000, Note_on_c, 1, 45, 122
5, 12089, Note_on_c, 1, 45, 0
5, 12192, Note_on_c, 1, 42, 122
5, 12360, Note_on_c, 1, 42, 0
5, 12384, Note_on_c, 1, 38, 122
5, 12461, Note_on_c, 1, 38, 0
5, 12480, Note_on_c, 1, 35, 122
5, 12588, Note_on_c, 1, 35, 0
5, 12672, Note_on_c, 1, 42, 122
5, 12933, Note_on_c, 1, 42, 0
5, 12960, Note_on_c, 1, 40, 122
5, 13344, Note_on_c, 1, 40, 0
5, 13344, Note_on_c, 1, 52, 122
5, 13415, Note_on_c, 1, 52, 0
5, 13536, Note_on_c, 1, 50, 122
5, 13618, Note_on_c, 1, 50, 0
5, 13728, Note_on_c, 1, 47, 122
5, 13890, Note_on_c, 1, 47, 0
5, 13920, Note_on_c, 1, 45, 122
5, 13949, Note_on_c, 1, 45, 0
5, 14016, Note_on_c, 1, 40, 122
5, 14129, Note_on_c, 1, 40, 0
5, 14208, Note_on_c, 1, 42, 122
5, 14469, Note_on_c, 1, 42, 0
5, 14496, Note_on_c, 1, 35, 122
5, 14834, Note_on_c, 1, 35, 0
5, 14880, Note_on_c, 1, 47, 122
5, 14934, Note_on_c, 1, 47, 0
5, 15072, Note_on_c, 1, 45, 122
5, 15161, Note_on_c, 1, 45, 0
5, 15264, Note_on_c, 1, 42, 122
5, 15432, Note_on_c, 1, 42, 0
5, 15456, Note_on_c, 1, 38, 122
5, 15533, Note_on_c, 1, 38, 0
5, 15552, Note_on_c, 1, 35, 122
5, 15660, Note_on_c, 1, 35, 0
5, 15744, Note_on_c, 1, 42, 122
5, 16005, Note_on_c, 1, 42, 0
5, 16032, Note_on_c, 1, 40, 122
5, 16416, Note_on_c, 1, 40, 0
5, 16416, Note_on_c, 1, 52, 122
5, 16487, Note_on_c, 1, 52, 0
5, 16608, Note_on_c, 1, 50, 122
5, 16690, Note_on_c, 1, 50, 0
5, 16800, Note_on_c, 1, 47, 122
5, 16962, Note_on_c, 1, 47, 0
5, 16992, Note_on_c, 1, 45, 122
5, 17021, Note_on_c, 1, 45, 0
5, 17088, Note_on_c, 1, 40, 122
5, 17201, Note_on_c, 1, 40, 0
5, 17280, Note_on_c, 1, 42, 122
5, 17541, Note_on_c, 1, 42, 0
5, 17568, Note_on_c, 1, 35, 122
5, 17906, Note_on_c, 1, 35, 0
5, 17952, Note_on_c, 1, 47, 122
5, 18006, Note_on_c, 1, 47, 0
5, 18144, Note_on_c, 1, 45, 122
5, 18233, Note_on_c, 1, 45, 0
5, 18336, Note_on_c, 1, 42, 122
5, 18504, Note_on_c, 1, 42, 0
5, 18528, Note_on_c, 1, 38, 122
5, 18605, Note_on_c, 1, 38, 0
5, 18624, Note_on_c, 1, 35, 122
5, 18732, Note_on_c, 1, 35, 0
5, 18816, Note_on_c, 1, 42, 122
5, 19077, Note_on_c, 1, 42, 0
5, 19104, Note_on_c, 1, 40, 122
5, 19488, Note_on_c, 1, 40, 0
5, 19488, Note_on_c, 1, 52, 122
5, 19559, Note_on_c, 1, 52, 0
5, 19680, Note_on_c, 1, 50, 122
5, 19762, Note_on_c, 1, 50, 0
5, 19872, Note_on_c, 1, 47, 122
5, 20034, Note_on_c, 1, 47, 0
5, 20064, Note_on_c, 1, 45, 122
5, 20093, Note_on_c, 1, 45, 0
5, 20160, Note_on_c, 1, 40, 122
5, 20273, Note_on_c, 1, 40, 0
5, 20352, Note_on_c, 1, 42, 122
5, 20613, Note_on_c, 1, 42, 0
5, 20640, Note_on_c, 1, 35, 122
5, 20978, Note_on_c, 1, 35, 0
5, 21024, Note_on_c, 1, 47, 122
5, 21078, Note_on_c, 1, 47, 0
5, 21216, Note_on_c, 1, 45, 122
5, 21305, Note_on_c, 1, 45, 0
5, 21408, Note_on_c, 1, 42, 122
5, 21576, Note_on_c, 1, 42, 0
5, 21600, Note_on_c, 1, 38, 122
5, 21677, Note_on_c, 1, 38, 0
5, 21696, Note_on_c, 1, 35, 122
5, 21804, Note_on_c, 1, 35, 0
5, 21888, Note_on_c, 1, 42, 122
5, 22149, Note_on_c, 1, 42, 0
5, 22176, Note_on_c, 1, 40, 122
5, 22512, Note_on_c, 1, 40, 0
5, 22560, Note_on_c, 1, 52, 122
5, 22631, Note_on_c, 1, 52, 0
5, 22752, Note_on_c, 1, 50, 122
5, 22834, Note_on_c, 1, 50, 0
5, 22944, Note_on_c, 1, 47, 122
5, 23106, Note_on_c, 1, 47, 0
5, 23136, Note_on_c, 1, 45, 122
5, 23165, Note_on_c, 1, 45, 0
5, 23232, Note_on_c, 1, 40, 122
5, 23345, Note_on_c, 1, 40, 0
5, 23424, Note_on_c, 1, 42, 122
5, 23685, Note_on_c, 1, 42, 0
5, 23712, Note_on_c, 1, 35, 122
5, 24050, Note_on_c, 1, 35, 0
5, 24096, Note_on_c, 1, 47, 122
5, 24150, Note_on_c, 1, 47, 0
5, 24288, Note_on_c, 1, 45, 122
5, 24377, Note_on_c, 1, 45, 0
5, 24480, Note_on_c, 1, 42, 122
5, 24648, Note_on_c, 1, 42, 0
5, 24672, Note_on_c, 1, 38, 122
5, 24749, Note_on_c, 1, 38, 0
5, 24768, Note_on_c, 1, 35, 122
5, 24876, Note_on_c, 1, 35, 0
5, 24960, Note_on_c, 1, 42, 122
5, 25221, Note_on_c, 1, 42, 0
5, 25248, Note_on_c, 1, 40, 122
5, 25632, Note_on_c, 1, 40, 0
5, 25632, Note_on_c, 1, 52, 122
5, 25703, Note_on_c, 1, 52, 0
5, 25824, Note_on_c, 1, 50, 122
5, 25906, Note_on_c, 1, 50, 0
5, 26016, Note_on_c, 1, 47, 122
5, 26178, Note_on_c, 1, 47, 0
5, 26208, Note_on_c, 1, 45, 122
5, 26237, Note_on_c, 1, 45, 0
5, 26304, Note_on_c, 1, 40, 122
5, 26417, Note_on_c, 1, 40, 0
5, 26496, Note_on_c, 1, 42, 122
5, 26757, Note_on_c, 1, 42, 0
5, 26784, Note_on_c, 1, 35, 122
5, 27122, Note_on_c, 1, 35, 0
5, 27168, Note_on_c, 1, 47, 122
5, 27222, Note_on_c, 1, 47, 0
5, 27360, Note_on_c, 1, 45, 122
5, 27449, Note_on_c, 1, 45, 0
5, 27552, Note_on_c, 1, 42, 122
5, 27720, Note_on_c, 1, 42, 0
5, 27744, Note_on_c, 1, 38, 122
5, 27821, Note_on_c, 1, 38, 0
5, 27840, Note_on_c, 1, 35, 122
5, 27948, Note_on_c, 1, 35, 0
5, 28032, Note_on_c, 1, 42, 122
5, 28293, Note_on_c, 1, 42, 0
5, 28320, Note_on_c, 1, 40, 122
5, 28704, Note_on_c, 1, 40, 0
5, 28704, Note_on_c, 1, 52, 122
5, 28775, Note_on_c, 1, 52, 0
5, 28896, Note_on_c, 1, 50, 122
5, 28978, Note_on_c, 1, 50, 0
5, 29088, Note_on_c, 1, 47, 122
5, 29250, Note_on_c, 1, 47, 0
5, 29280, Note_on_c, 1, 45, 122
5, 29309, Note_on_c, 1, 45, 0
5, 29376, Note_on_c, 1, 40, 122
5, 29489, Note_on_c, 1, 40, 0
5, 29568, Note_on_c, 1, 42, 122
5, 29829, Note_on_c, 1, 42, 0
5, 29856, Note_on_c, 1, 35, 122
5, 30194, Note_on_c, 1, 35, 0
5, 30240, Note_on_c, 1, 47, 122
5, 30294, Note_on_c, 1, 47, 0
5, 30432, Note_on_c, 1, 45, 122
5, 30521, Note_on_c, 1, 45, 0
5, 30624, Note_on_c, 1, 42, 122
5, 30792, Note_on_c, 1, 42, 0
5, 30816, Note_on_c, 1, 38, 122
5, 30893, Note_on_c, 1, 38, 0
5, 30912, Note_on_c, 1, 35, 122
5, 31020, Note_on_c, 1, 35, 0
5, 31104, Note_on_c, 1, 42, 122
5, 31365, Note_on_c, 1, 42, 0
5, 31392, Note_on_c, 1, 40, 122
5, 31776, Note_on_c, 1, 40, 0
5, 31776, Note_on_c, 1, 52, 122
5, 31847, Note_on_c, 1, 52, 0
5, 31968, Note_on_c, 1, 50, 122
5, 32050, Note_on_c, 1, 50, 0
5, 32160, Note_on_c, 1, 47, 122
5, 32322, Note_on_c, 1, 47, 0
5, 32352, Note_on_c, 1, 45, 122
5, 32381, Note_on_c, 1, 45, 0
5, 32448, Note_on_c, 1, 40, 122
5, 32561, Note_on_c, 1, 40, 0
5, 32640, Note_on_c, 1, 42, 122
5, 32901, Note_on_c, 1, 42, 0
5, 32928, Note_on_c, 1, 35, 122
5, 33266, Note_on_c, 1, 35, 0
5, 33312, Note_on_c, 1, 47, 122
5, 33366, Note_on_c, 1, 47, 0
5, 33504, Note_on_c, 1, 45, 122
5, 33593, Note_on_c, 1, 45, 0
5, 33696, Note_on_c, 1, 42, 122
5, 33864, Note_on_c, 1, 42, 0
5, 33888, Note_on_c, 1, 38, 122
5, 33965, Note_on_c, 1, 38, 0
5, 33984, Note_on_c, 1, 35, 122
5, 34092, Note_on_c, 1, 35, 0
5, 34176, Note_on_c, 1, 42, 122
5, 34437, Note_on_c, 1, 42, 0
5, 34464, Note_on_c, 1, 40, 122
5, 34800, Note_on_c, 1, 40, 0
5, 34848, Note_on_c, 1, 52, 122
5, 34919, Note_on_c, 1, 52, 0
5, 35040, Note_on_c, 1, 50, 122
5, 35122, Note_on_c, 1, 50, 0
5, 35232, Note_on_c, 1, 47, 122
5, 35394, Note_on_c, 1, 47, 0
5, 35424, Note_on_c, 1, 45, 122
5, 35453, Note_on_c, 1, 45, 0
5, 35520, Note_on_c, 1, 40, 122
5, 35633, Note_on_c, 1, 40, 0
5, 35712, Note_on_c, 1, 42, 122
5, 35973, Note_on_c, 1, 42, 0
5, 36000, Note_on_c, 1, 35, 122
5, 36338, Note_on_c, 1, 35, 0
5, 36384, Note_on_c, 1, 47, 122
5, 36438, Note_on_c, 1, 47, 0
5, 36576, Note_on_c, 1, 45, 122
5, 36665, Note_on_c, 1, 45, 0
5, 36768, Note_on_c, 1, 42, 122
5, 36936, Note_on_c, 1, 42, 0
5, 36960, Note_on_c, 1, 38, 122
5, 37037, Note_on_c, 1, 38, 0
5, 37056, Note_on_c, 1, 35, 122
5, 37164, Note_on_c, 1, 35, 0
5, 37248, Note_on_c, 1, 42, 122
5, 37509, Note_on_c, 1, 42, 0
5, 37536, Note_on_c, 1, 40, 122
5, 37920, Note_on_c, 1, 40, 0
5, 37920, Note_on_c, 1, 52, 122
5, 37991, Note_on_c, 1, 52, 0
5, 38112, Note_on_c, 1, 50, 122
5, 38194, Note_on_c, 1, 50, 0
5, 38304, Note_on_c, 1, 47, 122
5, 38466, Note_on_c, 1, 47, 0
5, 38496, Note_on_c, 1, 45, 122
5, 38525, Note_on_c, 1, 45, 0
5, 38592, Note_on_c, 1, 40, 122
5, 38705, Note_on_c, 1, 40, 0
5, 38784, Note_on_c, 1, 42, 122
5, 39045, Note_on_c, 1, 42, 0
5, 39072, Note_on_c, 1, 35, 122
5, 39410, Note_on_c, 1, 35, 0
5, 39456, Note_on_c, 1, 47, 122
5, 39510, Note_on_c, 1, 47, 0
5, 39648, Note_on_c, 1, 45, 122
5, 39737, Note_on_c, 1, 45, 0
5, 39840, Note_on_c, 1, 42, 122
5, 40008, Note_on_c, 1, 42, 0
5, 40032, Note_on_c, 1, 38, 122
5, 40109, Note_on_c, 1, 38, 0
5, 40128, Note_on_c, 1, 35, 122
5, 40236, Note_on_c, 1, 35, 0
5, 40320, Note_on_c, 1, 42, 122
5, 40581, Note_on_c, 1, 42, 0
5, 40608, Note_on_c, 1, 40, 122
5, 40992, Note_on_c, 1, 40, 0
5, 40992, Note_on_c, 1, 52, 122
5, 41063, Note_on_c, 1, 52, 0
5, 41184, Note_on_c, 1, 50, 122
5, 41266, Note_on_c, 1, 50, 0
5, 41376, Note_on_c, 1, 47, 122
5, 41538, Note_on_c, 1, 47, 0
5, 41568, Note_on_c, 1, 45, 122
5, 41597, Note_on_c, 1, 45, 0
5, 41664, Note_on_c, 1, 40, 122
5, 41777, Note_on_c, 1, 40, 0
5, 41856, Note_on_c, 1, 42, 122
5, 42117, Note_on_c, 1, 42, 0
5, 42144, Note_on_c, 1, 35, 122
5, 42482, Note_on_c, 1, 35, 0
5, 42528, Note_on_c, 1, 47, 122
5, 42582, Note_on_c, 1, 47, 0
5, 42720, Note_on_c, 1, 45, 122
5, 42809, Note_on_c, 1, 45, 0
5, 42912, Note_on_c, 1, 42, 122
5, 43080, Note_on_c, 1, 42, 0
5, 43104, Note_on_c, 1, 38, 122
5, 43181, Note_on_c, 1, 38, 0
5, 43200, Note_on_c, 1, 35, 122
5, 43308, Note_on_c, 1, 35, 0
5, 43392, Note_on_c, 1, 42, 122
5, 43653, Note_on_c, 1, 42, 0
5, 43680, Note_on_c, 1, 40, 122
5, 44064, Note_on_c, 1, 40, 0
5, 44064, Note_on_c, 1, 52, 122
5, 44135, Note_on_c, 1, 52, 0
5, 44256, Note_on_c, 1, 50, 122
5, 44338, Note_on_c, 1, 50, 0
5, 44448, Note_on_c, 1, 47, 122
5, 44610, Note_on_c, 1, 47, 0
5, 44640, Note_on_c, 1, 45, 122
5, 44669, Note_on_c, 1, 45, 0
5, 44736, Note_on_c, 1, 40, 122
5, 44849, Note_on_c, 1, 40, 0
5, 44928, Note_on_c, 1, 42, 122
5, 45189, Note_on_c, 1, 42, 0
5, 45216, Note_on_c, 1, 35, 122
5, 45554, Note_on_c, 1, 35, 0
5, 45600, Note_on_c, 1, 47, 122
5, 45654, Note_on_c, 1, 47, 0
5, 45792, Note_on_c, 1, 45, 122
5, 45881, Note_on_c, 1, 45, 0
5, 45984, Note_on_c, 1, 42, 122
5, 46152, Note_on_c, 1, 42, 0
5, 46176, Note_on_c, 1, 38, 122
5, 46253, Note_on_c, 1, 38, 0
5, 46272, Note_on_c, 1, 35, 122
5, 46380, Note_on_c, 1, 35, 0
5, 46464, Note_on_c, 1, 42, 122
5, 46725, Note_on_c, 1, 42, 0
5, 46752, Note_on_c, 1, 40, 122
5, 47136, Note_on_c, 1, 40, 0
5, 47136, Note_on_c, 1, 52, 122
5, 47207, Note_on_c, 1, 52, 0
5, 47328, Note_on_c, 1, 50, 122
5, 47410, Note_on_c, 1, 50, 0
5, 47520, Note_on_c, 1, 47, 122
5, 47682, Note_on_c, 1, 47, 0
5, 47712, Note_on_c, 1, 45, 122
5, 47741, Note_on_c, 1, 45, 0
5, 47808, Note_on_c, 1, 40, 122
5, 47921, Note_on_c, 1, 40, 0
5, 48000, Note_on_c, 1, 42, 122
5, 48261, Note_on_c, 1, 42, 0
5, 48288, Note_on_c, 1, 35, 122
5, 48626, Note_on_c, 1, 35, 0
5, 48672, Note_on_c, 1, 47, 122
5, 48726, Note_on_c, 1, 47, 0
5, 48864, Note_on_c, 1, 45, 122
5, 48953, Note_on_c, 1, 45, 0
5, 49056, Note_on_c, 1, 42, 122
5, 49224, Note_on_c, 1, 42, 0
5, 49248, Note_on_c, 1, 38, 122
5, 49325, Note_on_c, 1, 38, 0
5, 49344, Note_on_c, 1, 35, 122
5, 49452, Note_on_c, 1, 35, 0
5, 49536, Note_on_c, 1, 42, 122
5, 49797, Note_on_c, 1, 42, 0
5, 49824, Note_on_c, 1, 40, 122
5, 50208, Note_on_c, 1, 40, 0
5, 50208, Note_on_c, 1, 52, 122
5, 50279, Note_on_c, 1, 52, 0
5, 50400, Note_on_c, 1, 50, 122
5, 50482, Note_on_c, 1, 50, 0
5, 50592, Note_on_c, 1, 47, 122
5, 50754, Note_on_c, 1, 47, 0
5, 50784, Note_on_c, 1, 45, 122
5, 50813, Note_on_c, 1, 45, 0
5, 50880, Note_on_c, 1, 40, 122
5, 51072, Note_on_c, 1, 40, 0
5, 51072, Note_on_c, 1, 42, 122
5, 51168, Note_on_c, 1, 45, 122
5, 51172, Note_on_c, 1, 42, 0
5, 51216, Note_on_c, 1, 45, 0
5, 51264, Note_on_c, 1, 47, 122
5, 51345, Note_on_c, 1, 47, 0
5, 51360, Note_on_c, 1, 35, 122
5, 51698, Note_on_c, 1, 35, 0
5, 51744, Note_on_c, 1, 47, 122
5, 51798, Note_on_c, 1, 47, 0
5, 51936, Note_on_c, 1, 45, 122
5, 52025, Note_on_c, 1, 45, 0
5, 52128, Note_on_c, 1, 42, 122
5, 52296, Note_on_c, 1, 42, 0
5, 52320, Note_on_c, 1, 38, 122
5, 52397, Note_on_c, 1, 38, 0
5, 52416, Note_on_c, 1, 35, 122
5, 52524, Note_on_c, 1, 35, 0
5, 52608, Note_on_c, 1, 42, 122
5, 52869, Note_on_c, 1, 42, 0
5, 52896, Note_on_c, 1, 40, 122
5, 53280, Note_on_c, 1, 40, 0
5, 53280, Note_on_c, 1, 52, 122
5, 53351, Note_on_c, 1, 52, 0
5, 53472, Note_on_c, 1, 50, 122
5, 53554, Note_on_c, 1, 50, 0
5, 53664, Note_on_c, 1, 47, 122
5, 53826, Note_on_c, 1, 47, 0
5, 53856, Note_on_c, 1, 45, 122
5, 53885, Note_on_c, 1, 45, 0
5, 53952, Note_on_c, 1, 40, 122
5, 54065, Note_on_c, 1, 40, 0
5, 54144, Note_on_c, 1, 42, 122
5, 54405, Note_on_c, 1, 42, 0
5, 54432, Note_on_c, 1, 35, 122
5, 54770, Note_on_c, 1, 35, 0
5, 54816, Note_on_c, 1, 47, 122
5, 54870, Note_on_c, 1, 47, 0
5, 55008, Note_on_c, 1, 45, 122
5, 55097, Note_on_c, 1, 45, 0
5, 55200, Note_on_c, 1, 42, 122
5, 55368, Note_on_c, 1, 42, 0
5, 55392, Note_on_c, 1, 38, 122
5, 55469, Note_on_c, 1, 38, 0
5, 55488, Note_on_c, 1, 35, 122
5, 55596, Note_on_c, 1, 35, 0
5, 55680, Note_on_c, 1, 42, 122
5, 55941, Note_on_c, 1, 42, 0
5, 55968, Note_on_c, 1, 40, 122
5, 56352, Note_on_c, 1, 40, 0
5, 56352, Note_on_c, 1, 52, 122
5, 56423, Note_on_c, 1, 52, 0
5, 56544, Note_on_c, 1, 50, 122
5, 56626, Note_on_c, 1, 50, 0
5, 56736, Note_on_c, 1, 47, 122
5, 56898, Note_on_c, 1, 47, 0
5, 56928, Note_on_c, 1, 45, 122
5, 56957, Note_on_c, 1, 45, 0
5, 57024, Note_on_c, 1, 40, 122
5, 57137, Note_on_c, 1, 40, 0
5, 57216, Note_on_c, 1, 42, 122
5, 57477, Note_on_c, 1, 42, 0
5, 57504, Note_on_c, 1, 35, 122
5, 57842, Note_on_c, 1, 35, 0
5, 57888, Note_on_c, 1, 47, 122
5, 57942, Note_on_c, 1, 47, 0
5, 58080, Note_on_c, 1, 45, 122
5, 58169, Note_on_c, 1, 45, 0
5, 58272, Note_on_c, 1, 42, 122
5, 58440, Note_on_c, 1, 42, 0
5, 58464, Note_on_c, 1, 38, 122
5, 58541, Note_on_c, 1, 38, 0
5, 58560, Note_on_c, 1, 35, 122
5, 58668, Note_on_c, 1, 35, 0
5, 58752, Note_on_c, 1, 42, 122
5, 59013, Note_on_c, 1, 42, 0
5, 59040, Note_on_c, 1, 40, 122
5, 59376, Note_on_c, 1, 40, 0
5, 59424, Note_on_c, 1, 52, 122
5, 59495, Note_on_c, 1, 52, 0
5, 59616, Note_on_c, 1, 50, 122
5, 59698, Note_on_c, 1, 50, 0
5, 59808, Note_on_c, 1, 47, 122
5, 59970, Note_on_c, 1, 47, 0
5, 60000, Note_on_c, 1, 45, 122
5, 60029, Note_on_c, 1, 45, 0
5, 60096, Note_on_c, 1, 40, 122
5, 60209, Note_on_c, 1, 40, 0
5, 60288, Note_on_c, 1, 42, 122
5, 60549, Note_on_c, 1, 42, 0
5, 60576, Note_on_c, 1, 35, 122
5, 60914, Note_on_c, 1, 35, 0
5, 60960, Note_on_c, 1, 47, 122
5, 61014, Note_on_c, 1, 47, 0
5, 61152, Note_on_c, 1, 45, 122
5, 61241, Note_on_c, 1, 45, 0
5, 61344, Note_on_c, 1, 42, 122
5, 61512, Note_on_c, 1, 42, 0
5, 61536, Note_on_c, 1, 38, 122
5, 61613, Note_on_c, 1, 38, 0
5, 61632, Note_on_c, 1, 35, 122
5, 61740, Note_on_c, 1, 35, 0
5, 61824, Note_on_c, 1, 42, 122
5, 62085, Note_on_c, 1, 42, 0
5, 62112, Note_on_c, 1, 40, 122
5, 62448, Note_on_c, 1, 40, 0
5, 62496, Note_on_c, 1, 52, 122
5, 62567, Note_on_c, 1, 52, 0
5, 62688, Note_on_c, 1, 50, 122
5, 62770, Note_on_c, 1, 50, 0
5, 62880, Note_on_c, 1, 47, 122
5, 63042, Note_on_c, 1, 47, 0
5, 63072, Note_on_c, 1, 45, 122
5, 63101, Note_on_c, 1, 45, 0
5, 63168, Note_on_c, 1, 40, 122
5, 63281, Note_on_c, 1, 40, 0
5, 63360, Note_on_c, 1, 42, 122
5, 63621, Note_on_c, 1, 42, 0
5, 63648, Note_on_c, 1, 35, 122
5, 63986, Note_on_c, 1, 35, 0
5, 64032, Note_on_c, 1, 47, 122
5, 64086, Note_on_c, 1, 47, 0
5, 64224, Note_on_c, 1, 45, 122
5, 64313, Note_on_c, 1, 45, 0
5, 64416, Note_on_c, 1, 42, 122
5, 64584, Note_on_c, 1, 42, 0
5, 64608, Note_on_c, 1, 38, 122
5, 64685, Note_on_c, 1, 38, 0
5, 64704, Note_on_c, 1, 35, 122
5, 64812, Note_on_c, 1, 35, 0
5, 64896, Note_on_c, 1, 42, 122
5, 65157, Note_on_c, 1, 42, 0
5, 65184, Note_on_c, 1, 40, 122
5, 65309, Note_on_c, 1, 40, 0
5, 77184, Note_on_c, 1, 42, 122
5, 77445, Note_on_c, 1, 42, 0
5, 77472, Note_on_c, 1, 40, 122
5, 77808, Note_on_c, 1, 40, 0
5, 77856, Note_on_c, 1, 52, 122
5, 77927, Note_on_c, 1, 52, 0
5, 78048, Note_on_c, 1, 50, 122
5, 78130, Note_on_c, 1, 50, 0
5, 78240, Note_on_c, 1, 47, 122
5, 78402, Note_on_c, 1, 47, 0
5, 78432, Note_on_c, 1, 45, 122
5, 78461, Note_on_c, 1, 45, 0
5, 78528, Note_on_c, 1, 40, 122
5, 78641, Note_on_c, 1, 40, 0
5, 78720, Note_on_c, 1, 42, 122
5, 78981, Note_on_c, 1, 42, 0
5, 79008, Note_on_c, 1, 35, 122
5, 79346, Note_on_c, 1, 35, 0
5, 79392, Note_on_c, 1, 47, 122
5, 79446, Note_on_c, 1, 47, 0
5, 79584, Note_on_c, 1, 45, 122
5, 79673, Note_on_c, 1, 45, 0
5, 79776, Note_on_c, 1, 42, 122
5, 79944, Note_on_c, 1, 42, 0
5, 79968, Note_on_c, 1, 38, 122
5, 80045, Note_on_c, 1, 38, 0
5, 80064, Note_on_c, 1, 35, 122
5, 80172, Note_on_c, 1, 35, 0
5, 80256, Note_on_c, 1, 42, 122
5, 80517, Note_on_c, 1, 42, 0
5, 80544, Note_on_c, 1, 40, 122
5, 80880, Note_on_c, 1, 40, 0
5, 80928, Note_on_c, 1, 52, 122
5, 80999, Note_on_c, 1, 52, 0
5, 81120, Note_on_c, 1, 50, 122
5, 81202, Note_on_c, 1, 50, 0
5, 81312, Note_on_c, 1, 47, 122
5, 81474, Note_on_c, 1, 47, 0
5, 81504, Note_on_c, 1, 45, 122
5, 81533, Note_on_c, 1, 45, 0
5, 81600, Note_on_c, 1, 40, 122
5, 81713, Note_on_c, 1, 40, 0
5, 81792, Note_on_c, 1, 42, 122
5, 82053, Note_on_c, 1, 42, 0
5, 82080, Note_on_c, 1, 35, 122
5, 82418, Note_on_c, 1, 35, 0
5, 82464, Note_on_c, 1, 47, 122
5, 82518, Note_on_c, 1, 47, 0
5, 82656, Note_on_c, 1, 45, 122
5, 82745, Note_on_c, 1, 45, 0
5, 82848, Note_on_c, 1, 42, 122
5, 83016, Note_on_c, 1, 42, 0
5, 83040, Note_on_c, 1, 38, 122
5, 83117, Note_on_c, 1, 38, 0
5, 83136, Note_on_c, 1, 35, 122
5, 83244, Note_on_c, 1, 35, 0
5, 83328, Note_on_c, 1, 42, 122
5, 83589, Note_on_c, 1, 42, 0
5, 83616, Note_on_c, 1, 40, 122
5, 84000, Note_on_c, 1, 40, 0
5, 84000, Note_on_c, 1, 52, 122
5, 84071, Note_on_c, 1, 52, 0
5, 84192, Note_on_c, 1, 50, 122
5, 84274, Note_on_c, 1, 50, 0
5, 84384, Note_on_c, 1, 47, 122
5, 84546, Note_on_c, 1, 47, 0
5, 84576, Note_on_c, 1, 45, 122
5, 84605, Note_on_c, 1, 45, 0
5, 84672, Note_on_c, 1, 40, 122
5, 84785, Note_on_c, 1, 40, 0
5, 84864, Note_on_c, 1, 42, 122
5, 85125, Note_on_c, 1, 42, 0
5, 85152, Note_on_c, 1, 35, 122
5, 85490, Note_on_c, 1, 35, 0
5, 85536, Note_on_c, 1, 47, 122
5, 85590, Note_on_c, 1, 47, 0
5, 85728, Note_on_c, 1, 45, 122
5, 85817, Note_on_c, 1, 45, 0
5, 85920, Note_on_c, 1, 42, 122
5, 86088, Note_on_c, 1, 42, 0
5, 86112, Note_on_c, 1, 38, 122
5, 86189, Note_on_c, 1, 38, 0
5, 86208, Note_on_c, 1, 35, 122
5, 86316, Note_on_c, 1, 35, 0
5, 86400, Note_on_c, 1, 42, 122
5, 86661, Note_on_c, 1, 42, 0
5, 86688, Note_on_c, 1, 40, 122
5, 87072, Note_on_c, 1, 40, 0
5, 87072, Note_on_c, 1, 52, 122
5, 87143, Note_on_c, 1, 52, 0
5, 87264, Note_on_c, 1, 50, 122
5, 87346, Note_on_c, 1, 50, 0
5, 87456, Note_on_c, 1, 47, 122
5, 87618, Note_on_c, 1, 47, 0
5, 87648, Note_on_c, 1, 45, 122
5, 87677, Note_on_c, 1, 45, 0
5, 87744, Note_on_c, 1, 40, 122
5, 87857, Note_on_c, 1, 40, 0
5, 87936, Note_on_c, 1, 42, 122
5, 88197, Note_on_c, 1, 42, 0
5, 88224, Note_on_c, 1, 35, 122
5, 88562, Note_on_c, 1, 35, 0
5, 88608, Note_on_c, 1, 47, 122
5, 88662, Note_on_c, 1, 47, 0
5, 88800, Note_on_c, 1, 45, 122
5, 88889, Note_on_c, 1, 45, 0
5, 88992, Note_on_c, 1, 42, 122
5, 89160, Note_on_c, 1, 42, 0
5, 89184, Note_on_c, 1, 38, 122
5, 89261, Note_on_c, 1, 38, 0
5, 89280, Note_on_c, 1, 35, 122
5, 89388, Note_on_c, 1, 35, 0
5, 89472, Note_on_c, 1, 42, 122
5, 89733, Note_on_c, 1, 42, 0
5, 89760, Note_on_c, 1, 40, 122
5, 89856, Note_on_c, 1, 40, 0
5, 91056, Note_on_c, 1, 33, 112
5, 91104, Note_on_c, 1, 30, 100
5, 91137, Note_on_c, 1, 33, 0
5, 91172, Note_on_c, 1, 30, 0
5, 91200, Note_on_c, 1, 38, 95
5, 91296, Note_on_c, 1, 35, 124
5, 91302, Note_on_c, 1, 38, 0
5, 91380, Note_on_c, 1, 35, 0
5, 92158, Control_c, 1, 123, 0
5, 92158, End_track
6, 0, Start_track
6, 0, MIDI_port, 0
6, 0, Control_c, 2, 121, 0
6, 2, Control_c, 2, 67, 0
6, 3, Control_c, 2, 64, 0
6, 4, Control_c, 2, 100, 0
6, 5, Control_c, 2, 101, 0
6, 6, Control_c, 2, 6, 12
6, 7, Control_c, 2, 11, 127
6, 8, Control_c, 2, 1, 0
6, 10, Control_c, 2, 11, 127
6, 12, Pitch_bend_c, 2, 8192
6, 202, Control_c, 2, 0, 0
6, 203, Control_c, 2, 32, 0
6, 204, Program_c, 2, 5
6, 205, Control_c, 2, 7, 90
6, 205, Control_c, 2, 10, 64
6, 584, Control_c, 2, 11, 127
6, 586, Control_c, 2, 91, 44
6, 588, Control_c, 2, 93, 54
6, 3456, Note_on_c, 2, 57, 107
6, 3456, Note_on_c, 2, 64, 107
6, 3456, Note_on_c, 2, 61, 107
6, 3456, Note_on_c, 2, 54, 107
6, 3744, Note_on_c, 2, 54, 0
6, 3744, Note_on_c, 2, 57, 0
6, 3744, Note_on_c, 2, 64, 0
6, 3744, Note_on_c, 2, 61, 0
6, 3744, Note_on_c, 2, 62, 107
6, 3744, Note_on_c, 2, 59, 107
6, 3744, Note_on_c, 2, 55, 107
6, 3744, Note_on_c, 2, 52, 107
6, 4992, Note_on_c, 2, 52, 0
6, 4992, Note_on_c, 2, 62, 0
6, 4992, Note_on_c, 2, 59, 0
6, 4992, Note_on_c, 2, 55, 0
6, 4992, Note_on_c, 2, 64, 106
6, 4992, Note_on_c, 2, 54, 106
6, 4992, Note_on_c, 2, 57, 106
6, 4992, Note_on_c, 2, 61, 106
6, 5280, Note_on_c, 2, 61, 0
6, 5280, Note_on_c, 2, 64, 0
6, 5280, Note_on_c, 2, 54, 0
6, 5280, Note_on_c, 2, 57, 0
6, 5280, Note_on_c, 2, 57, 106
6, 5280, Note_on_c, 2, 66, 106
6, 5280, Note_on_c, 2, 59, 106
6, 5280, Note_on_c, 2, 62, 106
6, 6528, Note_on_c, 2, 62, 0
6, 6528, Note_on_c, 2, 57, 0
6, 6528, Note_on_c, 2, 66, 0
6, 6528, Note_on_c, 2, 59, 0
6, 6528, Note_on_c, 2, 57, 106
6, 6528, Note_on_c, 2, 64, 106
6, 6528, Note_on_c, 2, 61, 106
6, 6528, Note_on_c, 2, 54, 106
6, 6816, Note_on_c, 2, 54, 0
6, 6816, Note_on_c, 2, 57, 0
6, 6816, Note_on_c, 2, 64, 0
6, 6816, Note_on_c, 2, 61, 0
6, 6816, Note_on_c, 2, 52, 106
6, 6816, Note_on_c, 2, 55, 106
6, 6816, Note_on_c, 2, 59, 106
6, 6816, Note_on_c, 2, 62, 106
6, 8064, Note_on_c, 2, 62, 0
6, 8064, Note_on_c, 2, 52, 0
6, 8064, Note_on_c, 2, 55, 0
6, 8064, Note_on_c, 2, 59, 0
6, 8064, Note_on_c, 2, 64, 105
6, 8064, Note_on_c, 2, 54, 105
6, 8064, Note_on_c, 2, 57, 105
6, 8064, Note_on_c, 2, 61, 105
6, 8352, Note_on_c, 2, 61, 0
6, 8352, Note_on_c, 2, 64, 0
6, 8352, Note_on_c, 2, 54, 0
6, 8352, Note_on_c, 2, 57, 0
6, 8352, Note_on_c, 2, 57, 105
6, 8352, Note_on_c, 2, 66, 105
6, 8352, Note_on_c, 2, 59, 105
6, 8352, Note_on_c, 2, 62, 105
6, 9600, Note_on_c, 2, 62, 0
6, 9600, Note_on_c, 2, 57, 0
6, 9600, Note_on_c, 2, 66, 0
6, 9600, Note_on_c, 2, 59, 0
6, 9600, Note_on_c, 2, 57, 107
6, 9600, Note_on_c, 2, 64, 107
6, 9600, Note_on_c, 2, 61, 107
6, 9600, Note_on_c, 2, 54, 107
6, 9888, Note_on_c, 2, 54, 0
6, 9888, Note_on_c, 2, 57, 0
6, 9888, Note_on_c, 2, 64, 0
6, 9888, Note_on_c, 2, 61, 0
6, 9888, Note_on_c, 2, 62, 107
6, 9888, Note_on_c, 2, 59, 107
6, 9888, Note_on_c, 2, 55, 107
6, 9888, Note_on_c, 2, 52, 107
6, 11136, Note_on_c, 2, 52, 0
6, 11136, Note_on_c, 2, 62, 0
6, 11136, Note_on_c, 2, 59, 0
6, 11136, Note_on_c, 2, 55, 0
6, 11136, Note_on_c, 2, 64, 106
6, 11136, Note_on_c, 2, 54, 106
6, 11136, Note_on_c, 2, 57, 106
6, 11136, Note_on_c, 2, 61, 106
6, 11424, Note_on_c, 2, 61, 0
6, 11424, Note_on_c, 2, 64, 0
6, 11424, Note_on_c, 2, 54, 0
6, 11424, Note_on_c, 2, 57, 0
6, 11424, Note_on_c, 2, 57, 106
6, 11424, Note_on_c, 2, 66, 106
6, 11424, Note_on_c, 2, 59, 106
6, 11424, Note_on_c, 2, 62, 106
6, 12672, Note_on_c, 2, 62, 0
6, 12672, Note_on_c, 2, 57, 0
6, 12672, Note_on_c, 2, 66, 0
6, 12672, Note_on_c, 2, 59, 0
6, 12672, Note_on_c, 2, 57, 106
6, 12672, Note_on_c, 2, 64, 106
6, 12672, Note_on_c, 2, 61, 106
6, 12672, Note_on_c, 2, 54, 106
6, 12960, Note_on_c, 2, 54, 0
6, 12960, Note_on_c, 2, 57, 0
6, 12960, Note_on_c, 2, 64, 0
6, 12960, Note_on_c, 2, 61, 0
6, 12960, Note_on_c, 2, 52, 106
6, 12960, Note_on_c, 2, 55, 106
6, 12960, Note_on_c, 2, 59, 106
6, 12960, Note_on_c, 2, 62, 106
6, 14208, Note_on_c, 2, 62, 0
6, 14208, Note_on_c, 2, 52, 0
6, 14208, Note_on_c, 2, 55, 0
6, 14208, Note_on_c, 2, 59, 0
6, 14208, Note_on_c, 2, 64, 105
6, 14208, Note_on_c, 2, 54, 105
6, 14208, Note_on_c, 2, 57, 105
6, 14208, Note_on_c, 2, 61, 105
6, 14496, Note_on_c, 2, 61, 0
6, 14496, Note_on_c, 2, 64, 0
6, 14496, Note_on_c, 2, 54, 0
6, 14496, Note_on_c, 2, 57, 0
6, 14496, Note_on_c, 2, 57, 105
6, 14496, Note_on_c, 2, 66, 105
6, 14496, Note_on_c, 2, 59, 105
6, 14496, Note_on_c, 2, 62, 105
6, 15744, Note_on_c, 2, 62, 0
6, 15744, Note_on_c, 2, 57, 0
6, 15744, Note_on_c, 2, 66, 0
6, 15744, Note_on_c, 2, 59, 0
6, 15744, Note_on_c, 2, 57, 107
6, 15744, Note_on_c, 2, 64, 107
6, 15744, Note_on_c, 2, 61, 107
6, 15744, Note_on_c, 2, 54, 107
6, 16032, Note_on_c, 2, 54, 0
6, 16032, Note_on_c, 2, 57, 0
6, 16032, Note_on_c, 2, 64, 0
6, 16032, Note_on_c, 2, 61, 0
6, 16032, Note_on_c, 2, 62, 107
6, 16032, Note_on_c, 2, 59, 107
6, 16032, Note_on_c, 2, 55, 107
6, 16032, Note_on_c, 2, 52, 107
6, 17280, Note_on_c, 2, 52, 0
6, 17280, Note_on_c, 2, 62, 0
6, 17280, Note_on_c, 2, 59, 0
6, 17280, Note_on_c, 2, 55, 0
6, 17280, Note_on_c, 2, 64, 106
6, 17280, Note_on_c, 2, 54, 106
6, 17280, Note_on_c, 2, 57, 106
6, 17280, Note_on_c, 2, 61, 106
6, 17568, Note_on_c, 2, 61, 0
6, 17568, Note_on_c, 2, 64, 0
6, 17568, Note_on_c, 2, 54, 0
6, 17568, Note_on_c, 2, 57, 0
6, 17568, Note_on_c, 2, 57, 106
6, 17568, Note_on_c, 2, 66, 106
6, 17568, Note_on_c, 2, 59, 106
6, 17568, Note_on_c, 2, 62, 106
6, 18816, Note_on_c, 2, 62, 0
6, 18816, Note_on_c, 2, 57, 0
6, 18816, Note_on_c, 2, 66, 0
6, 18816, Note_on_c, 2, 59, 0
6, 18816, Note_on_c, 2, 57, 106
6, 18816, Note_on_c, 2, 64, 106
6, 18816, Note_on_c, 2, 61, 106
6, 18816, Note_on_c, 2, 54, 106
6, 19104, Note_on_c, 2, 54, 0
6, 19104, Note_on_c, 2, 57, 0
6, 19104, Note_on_c, 2, 64, 0
6, 19104, Note_on_c, 2, 61, 0
6, 19104, Note_on_c, 2, 52, 106
6, 19104, Note_on_c, 2, 55, 106
6, 19104, Note_on_c, 2, 59, 106
6, 19104, Note_on_c, 2, 62, 106
6, 20352, Note_on_c, 2, 62, 0
6, 20352, Note_on_c, 2, 52, 0
6, 20352, Note_on_c, 2, 55, 0
6, 20352, Note_on_c, 2, 59, 0
6, 20352, Note_on_c, 2, 64, 105
6, 20352, Note_on_c, 2, 54, 105
6, 20352, Note_on_c, 2, 57, 105
6, 20352, Note_on_c, 2, 61, 105
6, 20640, Note_on_c, 2, 61, 0
6, 20640, Note_on_c, 2, 64, 0
6, 20640, Note_on_c, 2, 54, 0
6, 20640, Note_on_c, 2, 57, 0
6, 20640, Note_on_c, 2, 57, 105
6, 20640, Note_on_c, 2, 66, 105
6, 20640, Note_on_c, 2, 59, 105
6, 20640, Note_on_c, 2, 62, 105
6, 21888, Note_on_c, 2, 62, 0
6, 21888, Note_on_c, 2, 57, 0
6, 21888, Note_on_c, 2, 66, 0
6, 21888, Note_on_c, 2, 59, 0
6, 21888, Note_on_c, 2, 57, 107
6, 21888, Note_on_c, 2, 64, 107
6, 21888, Note_on_c, 2, 61, 107
6, 21888, Note_on_c, 2, 54, 107
6, 22176, Note_on_c, 2, 54, 0
6, 22176, Note_on_c, 2, 57, 0
6, 22176, Note_on_c, 2, 64, 0
6, 22176, Note_on_c, 2, 61, 0
6, 22176, Note_on_c, 2, 62, 107
6, 22176, Note_on_c, 2, 59, 107
6, 22176, Note_on_c, 2, 55, 107
6, 22176, Note_on_c, 2, 52, 107
6, 23424, Note_on_c, 2, 52, 0
6, 23424, Note_on_c, 2, 62, 0
6, 23424, Note_on_c, 2, 59, 0
6, 23424, Note_on_c, 2, 55, 0
6, 23424, Note_on_c, 2, 64, 106
6, 23424, Note_on_c, 2, 54, 106
6, 23424, Note_on_c, 2, 57, 106
6, 23424, Note_on_c, 2, 61, 106
6, 23712, Note_on_c, 2, 61, 0
6, 23712, Note_on_c, 2, 64, 0
6, 23712, Note_on_c, 2, 54, 0
6, 23712, Note_on_c, 2, 57, 0
6, 23712, Note_on_c, 2, 57, 106
6, 23712, Note_on_c, 2, 66, 106
6, 23712, Note_on_c, 2, 59, 106
6, 23712, Note_on_c, 2, 62, 106
6, 24960, Note_on_c, 2, 62, 0
6, 24960, Note_on_c, 2, 57, 0
6, 24960, Note_on_c, 2, 66, 0
6, 24960, Note_on_c, 2, 59, 0
6, 24960, Note_on_c, 2, 57, 106
6, 24960, Note_on_c, 2, 64, 106
6, 24960, Note_on_c, 2, 61, 106
6, 24960, Note_on_c, 2, 54, 106
6, 25248, Note_on_c, 2, 54, 0
6, 25248, Note_on_c, 2, 57, 0
6, 25248, Note_on_c, 2, 64, 0
6, 25248, Note_on_c, 2, 61, 0
6, 25248, Note_on_c, 2, 52, 106
6, 25248, Note_on_c, 2, 55, 106
6, 25248, Note_on_c, 2, 59, 106
6, 25248, Note_on_c, 2, 62, 106
6, 26496, Note_on_c, 2, 62, 0
6, 26496, Note_on_c, 2, 52, 0
6, 26496, Note_on_c, 2, 55, 0
6, 26496, Note_on_c, 2, 59, 0
6, 26496, Note_on_c, 2, 64, 105
6, 26496, Note_on_c, 2, 54, 105
6, 26496, Note_on_c, 2, 57, 105
6, 26496, Note_on_c, 2, 61, 105
6, 26784, Note_on_c, 2, 61, 0
6, 26784, Note_on_c, 2, 64, 0
6, 26784, Note_on_c, 2, 54, 0
6, 26784, Note_on_c, 2, 57, 0
6, 26784, Note_on_c, 2, 57, 105
6, 26784, Note_on_c, 2, 66, 105
6, 26784, Note_on_c, 2, 59, 105
6, 26784, Note_on_c, 2, 62, 105
6, 28032, Note_on_c, 2, 62, 0
6, 28032, Note_on_c, 2, 57, 0
6, 28032, Note_on_c, 2, 66, 0
6, 28032, Note_on_c, 2, 59, 0
6, 28032, Note_on_c, 2, 57, 107
6, 28032, Note_on_c, 2, 64, 107
6, 28032, Note_on_c, 2, 61, 107
6, 28032, Note_on_c, 2, 54, 107
6, 28320, Note_on_c, 2, 54, 0
6, 28320, Note_on_c, 2, 57, 0
6, 28320, Note_on_c, 2, 64, 0
6, 28320, Note_on_c, 2, 61, 0
6, 28320, Note_on_c, 2, 62, 107
6, 28320, Note_on_c, 2, 59, 107
6, 28320, Note_on_c, 2, 55, 107
6, 28320, Note_on_c, 2, 52, 107
6, 29568, Note_on_c, 2, 52, 0
6, 29568, Note_on_c, 2, 62, 0
6, 29568, Note_on_c, 2, 59, 0
6, 29568, Note_on_c, 2, 55, 0
6, 29568, Note_on_c, 2, 64, 106
6, 29568, Note_on_c, 2, 54, 106
6, 29568, Note_on_c, 2, 57, 106
6, 29568, Note_on_c, 2, 61, 106
6, 29856, Note_on_c, 2, 61, 0
6, 29856, Note_on_c, 2, 64, 0
6, 29856, Note_on_c, 2, 54, 0
6, 29856, Note_on_c, 2, 57, 0
6, 29856, Note_on_c, 2, 57, 106
6, 29856, Note_on_c, 2, 66, 106
6, 29856, Note_on_c, 2, 59, 106
6, 29856, Note_on_c, 2, 62, 106
6, 31104, Note_on_c, 2, 62, 0
6, 31104, Note_on_c, 2, 57, 0
6, 31104, Note_on_c, 2, 66, 0
6, 31104, Note_on_c, 2, 59, 0
6, 31104, Note_on_c, 2, 57, 106
6, 31104, Note_on_c, 2, 64, 106
6, 31104, Note_on_c, 2, 61, 106
6, 31104, Note_on_c, 2, 54, 106
6, 31392, Note_on_c, 2, 54, 0
6, 31392, Note_on_c, 2, 57, 0
6, 31392, Note_on_c, 2, 64, 0
6, 31392, Note_on_c, 2, 61, 0
6, 31392, Note_on_c, 2, 52, 106
6, 31392, Note_on_c, 2, 55, 106
6, 31392, Note_on_c, 2, 59, 106
6, 31392, Note_on_c, 2, 62, 106
6, 32640, Note_on_c, 2, 62, 0
6, 32640, Note_on_c, 2, 52, 0
6, 32640, Note_on_c, 2, 55, 0
6, 32640, Note_on_c, 2, 59, 0
6, 32640, Note_on_c, 2, 64, 105
6, 32640, Note_on_c, 2, 54, 105
6, 32640, Note_on_c, 2, 57, 105
6, 32640, Note_on_c, 2, 61, 105
6, 32928, Note_on_c, 2, 61, 0
6, 32928, Note_on_c, 2, 64, 0
6, 32928, Note_on_c, 2, 54, 0
6, 32928, Note_on_c, 2, 57, 0
6, 32928, Note_on_c, 2, 57, 105
6, 32928, Note_on_c, 2, 66, 105
6, 32928, Note_on_c, 2, 59, 105
6, 32928, Note_on_c, 2, 62, 105
6, 34176, Note_on_c, 2, 62, 0
6, 34176, Note_on_c, 2, 57, 0
6, 34176, Note_on_c, 2, 66, 0
6, 34176, Note_on_c, 2, 59, 0
6, 34176, Note_on_c, 2, 57, 107
6, 34176, Note_on_c, 2, 64, 107
6, 34176, Note_on_c, 2, 61, 107
6, 34176, Note_on_c, 2, 54, 107
6, 34464, Note_on_c, 2, 54, 0
6, 34464, Note_on_c, 2, 57, 0
6, 34464, Note_on_c, 2, 64, 0
6, 34464, Note_on_c, 2, 61, 0
6, 34464, Note_on_c, 2, 62, 107
6, 34464, Note_on_c, 2, 59, 107
6, 34464, Note_on_c, 2, 55, 107
6, 34464, Note_on_c, 2, 52, 107
6, 35712, Note_on_c, 2, 52, 0
6, 35712, Note_on_c, 2, 62, 0
6, 35712, Note_on_c, 2, 59, 0
6, 35712, Note_on_c, 2, 55, 0
6, 35712, Note_on_c, 2, 64, 106
6, 35712, Note_on_c, 2, 54, 106
6, 35712, Note_on_c, 2, 57, 106
6, 35712, Note_on_c, 2, 61, 106
6, 36000, Note_on_c, 2, 61, 0
6, 36000, Note_on_c, 2, 64, 0
6, 36000, Note_on_c, 2, 54, 0
6, 36000, Note_on_c, 2, 57, 0
6, 36000, Note_on_c, 2, 57, 106
6, 36000, Note_on_c, 2, 66, 106
6, 36000, Note_on_c, 2, 59, 106
6, 36000, Note_on_c, 2, 62, 106
6, 37248, Note_on_c, 2, 62, 0
6, 37248, Note_on_c, 2, 57, 0
6, 37248, Note_on_c, 2, 66, 0
6, 37248, Note_on_c, 2, 59, 0
6, 37248, Note_on_c, 2, 57, 106
6, 37248, Note_on_c, 2, 64, 106
6, 37248, Note_on_c, 2, 61, 106
6, 37248, Note_on_c, 2, 54, 106
6, 37536, Note_on_c, 2, 54, 0
6, 37536, Note_on_c, 2, 57, 0
6, 37536, Note_on_c, 2, 64, 0
6, 37536, Note_on_c, 2, 61, 0
6, 37536, Note_on_c, 2, 52, 106
6, 37536, Note_on_c, 2, 55, 106
6, 37536, Note_on_c, 2, 59, 106
6, 37536, Note_on_c, 2, 62, 106
6, 38784, Note_on_c, 2, 62, 0
6, 38784, Note_on_c, 2, 52, 0
6, 38784, Note_on_c, 2, 55, 0
6, 38784, Note_on_c, 2, 59, 0
6, 38784, Note_on_c, 2, 64, 105
6, 38784, Note_on_c, 2, 54, 105
6, 38784, Note_on_c, 2, 57, 105
6, 38784, Note_on_c, 2, 61, 105
6, 39072, Note_on_c, 2, 61, 0
6, 39072, Note_on_c, 2, 64, 0
6, 39072, Note_on_c, 2, 54, 0
6, 39072, Note_on_c, 2, 57, 0
6, 39072, Note_on_c, 2, 57, 105
6, 39072, Note_on_c, 2, 66, 105
6, 39072, Note_on_c, 2, 59, 105
6, 39072, Note_on_c, 2, 62, 105
6, 40320, Note_on_c, 2, 62, 0
6, 40320, Note_on_c, 2, 57, 0
6, 40320, Note_on_c, 2, 66, 0
6, 40320, Note_on_c, 2, 59, 0
6, 40320, Note_on_c, 2, 57, 107
6, 40320, Note_on_c, 2, 64, 107
6, 40320, Note_on_c, 2, 61, 107
6, 40320, Note_on_c, 2, 54, 107
6, 40608, Note_on_c, 2, 54, 0
6, 40608, Note_on_c, 2, 57, 0
6, 40608, Note_on_c, 2, 64, 0
6, 40608, Note_on_c, 2, 61, 0
6, 40608, Note_on_c, 2, 62, 107
6, 40608, Note_on_c, 2, 59, 107
6, 40608, Note_on_c, 2, 55, 107
6, 40608, Note_on_c, 2, 52, 107
6, 41856, Note_on_c, 2, 52, 0
6, 41856, Note_on_c, 2, 62, 0
6, 41856, Note_on_c, 2, 59, 0
6, 41856, Note_on_c, 2, 55, 0
6, 41856, Note_on_c, 2, 64, 106
6, 41856, Note_on_c, 2, 54, 106
6, 41856, Note_on_c, 2, 57, 106
6, 41856, Note_on_c, 2, 61, 106
6, 42144, Note_on_c, 2, 61, 0
6, 42144, Note_on_c, 2, 64, 0
6, 42144, Note_on_c, 2, 54, 0
6, 42144, Note_on_c, 2, 57, 0
6, 42144, Note_on_c, 2, 57, 106
6, 42144, Note_on_c, 2, 66, 106
6, 42144, Note_on_c, 2, 59, 106
6, 42144, Note_on_c, 2, 62, 106
6, 43392, Note_on_c, 2, 62, 0
6, 43392, Note_on_c, 2, 57, 0
6, 43392, Note_on_c, 2, 66, 0
6, 43392, Note_on_c, 2, 59, 0
6, 43392, Note_on_c, 2, 57, 106
6, 43392, Note_on_c, 2, 64, 106
6, 43392, Note_on_c, 2, 61, 106
6, 43392, Note_on_c, 2, 54, 106
6, 43680, Note_on_c, 2, 54, 0
6, 43680, Note_on_c, 2, 57, 0
6, 43680, Note_on_c, 2, 64, 0
6, 43680, Note_on_c, 2, 61, 0
6, 43680, Note_on_c, 2, 52, 106
6, 43680, Note_on_c, 2, 55, 106
6, 43680, Note_on_c, 2, 59, 106
6, 43680, Note_on_c, 2, 62, 106
6, 44928, Note_on_c, 2, 62, 0
6, 44928, Note_on_c, 2, 52, 0
6, 44928, Note_on_c, 2, 55, 0
6, 44928, Note_on_c, 2, 59, 0
6, 44928, Note_on_c, 2, 64, 105
6, 44928, Note_on_c, 2, 54, 105
6, 44928, Note_on_c, 2, 57, 105
6, 44928, Note_on_c, 2, 61, 105
6, 45216, Note_on_c, 2, 61, 0
6, 45216, Note_on_c, 2, 64, 0
6, 45216, Note_on_c, 2, 54, 0
6, 45216, Note_on_c, 2, 57, 0
6, 45216, Note_on_c, 2, 57, 105
6, 45216, Note_on_c, 2, 66, 105
6, 45216, Note_on_c, 2, 59, 105
6, 45216, Note_on_c, 2, 62, 105
6, 46464, Note_on_c, 2, 62, 0
6, 46464, Note_on_c, 2, 57, 0
6, 46464, Note_on_c, 2, 66, 0
6, 46464, Note_on_c, 2, 59, 0
6, 46464, Note_on_c, 2, 57, 107
6, 46464, Note_on_c, 2, 64, 107
6, 46464, Note_on_c, 2, 61, 107
6, 46464, Note_on_c, 2, 54, 107
6, 46752, Note_on_c, 2, 54, 0
6, 46752, Note_on_c, 2, 57, 0
6, 46752, Note_on_c, 2, 64, 0
6, 46752, Note_on_c, 2, 61, 0
6, 46752, Note_on_c, 2, 62, 107
6, 46752, Note_on_c, 2, 59, 107
6, 46752, Note_on_c, 2, 55, 107
6, 46752, Note_on_c, 2, 52, 107
6, 48000, Note_on_c, 2, 52, 0
6, 48000, Note_on_c, 2, 62, 0
6, 48000, Note_on_c, 2, 59, 0
6, 48000, Note_on_c, 2, 55, 0
6, 48000, Note_on_c, 2, 64, 106
6, 48000, Note_on_c, 2, 54, 106
6, 48000, Note_on_c, 2, 57, 106
6, 48000, Note_on_c, 2, 61, 106
6, 48288, Note_on_c, 2, 61, 0
6, 48288, Note_on_c, 2, 64, 0
6, 48288, Note_on_c, 2, 54, 0
6, 48288, Note_on_c, 2, 57, 0
6, 48288, Note_on_c, 2, 57, 106
6, 48288, Note_on_c, 2, 66, 106
6, 48288, Note_on_c, 2, 59, 106
6, 48288, Note_on_c, 2, 62, 106
6, 49536, Note_on_c, 2, 62, 0
6, 49536, Note_on_c, 2, 57, 0
6, 49536, Note_on_c, 2, 66, 0
6, 49536, Note_on_c, 2, 59, 0
6, 49536, Note_on_c, 2, 57, 106
6, 49536, Note_on_c, 2, 64, 106
6, 49536, Note_on_c, 2, 61, 106
6, 49536, Note_on_c, 2, 54, 106
6, 49824, Note_on_c, 2, 54, 0
6, 49824, Note_on_c, 2, 57, 0
6, 49824, Note_on_c, 2, 64, 0
6, 49824, Note_on_c, 2, 61, 0
6, 49824, Note_on_c, 2, 52, 106
6, 49824, Note_on_c, 2, 55, 106
6, 49824, Note_on_c, 2, 59, 106
6, 49824, Note_on_c, 2, 62, 106
6, 51072, Note_on_c, 2, 62, 0
6, 51072, Note_on_c, 2, 52, 0
6, 51072, Note_on_c, 2, 55, 0
6, 51072, Note_on_c, 2, 59, 0
6, 51072, Note_on_c, 2, 64, 105
6, 51072, Note_on_c, 2, 54, 105
6, 51072, Note_on_c, 2, 57, 105
6, 51072, Note_on_c, 2, 61, 105
6, 51360, Note_on_c, 2, 61, 0
6, 51360, Note_on_c, 2, 64, 0
6, 51360, Note_on_c, 2, 54, 0
6, 51360, Note_on_c, 2, 57, 0
6, 51360, Note_on_c, 2, 57, 105
6, 51360, Note_on_c, 2, 66, 105
6, 51360, Note_on_c, 2, 59, 105
6, 51360, Note_on_c, 2, 62, 105
6, 52608, Note_on_c, 2, 62, 0
6, 52608, Note_on_c, 2, 57, 0
6, 52608, Note_on_c, 2, 66, 0
6, 52608, Note_on_c, 2, 59, 0
6, 52608, Note_on_c, 2, 57, 107
6, 52608, Note_on_c, 2, 64, 107
6, 52608, Note_on_c, 2, 61, 107
6, 52608, Note_on_c, 2, 54, 107
6, 52896, Note_on_c, 2, 54, 0
6, 52896, Note_on_c, 2, 57, 0
6, 52896, Note_on_c, 2, 64, 0
6, 52896, Note_on_c, 2, 61, 0
6, 52896, Note_on_c, 2, 62, 107
6, 52896, Note_on_c, 2, 59, 107
6, 52896, Note_on_c, 2, 55, 107
6, 52896, Note_on_c, 2, 52, 107
6, 54144, Note_on_c, 2, 52, 0
6, 54144, Note_on_c, 2, 62, 0
6, 54144, Note_on_c, 2, 59, 0
6, 54144, Note_on_c, 2, 55, 0
6, 54144, Note_on_c, 2, 64, 106
6, 54144, Note_on_c, 2, 54, 106
6, 54144, Note_on_c, 2, 57, 106
6, 54144, Note_on_c, 2, 61, 106
6, 54432, Note_on_c, 2, 61, 0
6, 54432, Note_on_c, 2, 64, 0
6, 54432, Note_on_c, 2, 54, 0
6, 54432, Note_on_c, 2, 57, 0
6, 54432, Note_on_c, 2, 57, 106
6, 54432, Note_on_c, 2, 66, 106
6, 54432, Note_on_c, 2, 59, 106
6, 54432, Note_on_c, 2, 62, 106
6, 55680, Note_on_c, 2, 62, 0
6, 55680, Note_on_c, 2, 57, 0
6, 55680, Note_on_c, 2, 66, 0
6, 55680, Note_on_c, 2, 59, 0
6, 55680, Note_on_c, 2, 57, 106
6, 55680, Note_on_c, 2, 64, 106
6, 55680, Note_on_c, 2, 61, 106
6, 55680, Note_on_c, 2, 54, 106
6, 55968, Note_on_c, 2, 54, 0
6, 55968, Note_on_c, 2, 57, 0
6, 55968, Note_on_c, 2, 64, 0
6, 55968, Note_on_c, 2, 61, 0
6, 55968, Note_on_c, 2, 52, 106
6, 55968, Note_on_c, 2, 55, 106
6, 55968, Note_on_c, 2, 59, 106
6, 55968, Note_on_c, 2, 62, 106
6, 57216, Note_on_c, 2, 62, 0
6, 57216, Note_on_c, 2, 52, 0
6, 57216, Note_on_c, 2, 55, 0
6, 57216, Note_on_c, 2, 59, 0
6, 57216, Note_on_c, 2, 64, 105
6, 57216, Note_on_c, 2, 54, 105
6, 57216, Note_on_c, 2, 57, 105
6, 57216, Note_on_c, 2, 61, 105
6, 57504, Note_on_c, 2, 61, 0
6, 57504, Note_on_c, 2, 64, 0
6, 57504, Note_on_c, 2, 54, 0
6, 57504, Note_on_c, 2, 57, 0
6, 57504, Note_on_c, 2, 57, 105
6, 57504, Note_on_c, 2, 66, 105
6, 57504, Note_on_c, 2, 59, 105
6, 57504, Note_on_c, 2, 62, 105
6, 58752, Note_on_c, 2, 62, 0
6, 58752, Note_on_c, 2, 57, 0
6, 58752, Note_on_c, 2, 66, 0
6, 58752, Note_on_c, 2, 59, 0
6, 58752, Note_on_c, 2, 57, 107
6, 58752, Note_on_c, 2, 64, 107
6, 58752, Note_on_c, 2, 61, 107
6, 58752, Note_on_c, 2, 54, 107
6, 59040, Note_on_c, 2, 54, 0
6, 59040, Note_on_c, 2, 57, 0
6, 59040, Note_on_c, 2, 64, 0
6, 59040, Note_on_c, 2, 61, 0
6, 59040, Note_on_c, 2, 62, 107
6, 59040, Note_on_c, 2, 59, 107
6, 59040, Note_on_c, 2, 55, 107
6, 59040, Note_on_c, 2, 52, 107
6, 60288, Note_on_c, 2, 52, 0
6, 60288, Note_on_c, 2, 62, 0
6, 60288, Note_on_c, 2, 59, 0
6, 60288, Note_on_c, 2, 55, 0
6, 60288, Note_on_c, 2, 64, 106
6, 60288, Note_on_c, 2, 54, 106
6, 60288, Note_on_c, 2, 57, 106
6, 60288, Note_on_c, 2, 61, 106
6, 60576, Note_on_c, 2, 61, 0
6, 60576, Note_on_c, 2, 64, 0
6, 60576, Note_on_c, 2, 54, 0
6, 60576, Note_on_c, 2, 57, 0
6, 60576, Note_on_c, 2, 57, 106
6, 60576, Note_on_c, 2, 66, 106
6, 60576, Note_on_c, 2, 59, 106
6, 60576, Note_on_c, 2, 62, 106
6, 61824, Note_on_c, 2, 62, 0
6, 61824, Note_on_c, 2, 57, 0
6, 61824, Note_on_c, 2, 66, 0
6, 61824, Note_on_c, 2, 59, 0
6, 61824, Note_on_c, 2, 57, 106
6, 61824, Note_on_c, 2, 64, 106
6, 61824, Note_on_c, 2, 61, 106
6, 61824, Note_on_c, 2, 54, 106
6, 62112, Note_on_c, 2, 54, 0
6, 62112, Note_on_c, 2, 57, 0
6, 62112, Note_on_c, 2, 64, 0
6, 62112, Note_on_c, 2, 61, 0
6, 62112, Note_on_c, 2, 52, 106
6, 62112, Note_on_c, 2, 55, 106
6, 62112, Note_on_c, 2, 59, 106
6, 62112, Note_on_c, 2, 62, 106
6, 63360, Note_on_c, 2, 62, 0
6, 63360, Note_on_c, 2, 52, 0
6, 63360, Note_on_c, 2, 55, 0
6, 63360, Note_on_c, 2, 59, 0
6, 63360, Note_on_c, 2, 64, 105
6, 63360, Note_on_c, 2, 54, 105
6, 63360, Note_on_c, 2, 57, 105
6, 63360, Note_on_c, 2, 61, 105
6, 63648, Note_on_c, 2, 61, 0
6, 63648, Note_on_c, 2, 64, 0
6, 63648, Note_on_c, 2, 54, 0
6, 63648, Note_on_c, 2, 57, 0
6, 63648, Note_on_c, 2, 57, 105
6, 63648, Note_on_c, 2, 66, 105
6, 63648, Note_on_c, 2, 59, 105
6, 63648, Note_on_c, 2, 62, 105
6, 64896, Note_on_c, 2, 62, 0
6, 64896, Note_on_c, 2, 57, 0
6, 64896, Note_on_c, 2, 66, 0
6, 64896, Note_on_c, 2, 59, 0
6, 64896, Note_on_c, 2, 57, 107
6, 64896, Note_on_c, 2, 64, 107
6, 64896, Note_on_c, 2, 61, 107
6, 64896, Note_on_c, 2, 54, 107
6, 65088, Note_on_c, 2, 64, 0
6, 65136, Note_on_c, 2, 57, 0
6, 65136, Note_on_c, 2, 61, 0
6, 65136, Note_on_c, 2, 54, 0
6, 77184, Note_on_c, 2, 57, 107
6, 77184, Note_on_c, 2, 64, 107
6, 77184, Note_on_c, 2, 61, 107
6, 77184, Note_on_c, 2, 54, 107
6, 77472, Note_on_c, 2, 54, 0
6, 77472, Note_on_c, 2, 57, 0
6, 77472, Note_on_c, 2, 64, 0
6, 77472, Note_on_c, 2, 61, 0
6, 77472, Note_on_c, 2, 62, 107
6, 77472, Note_on_c, 2, 59, 107
6, 77472, Note_on_c, 2, 55, 107
6, 77472, Note_on_c, 2, 52, 107
6, 78720, Note_on_c, 2, 52, 0
6, 78720, Note_on_c, 2, 62, 0
6, 78720, Note_on_c, 2, 59, 0
6, 78720, Note_on_c, 2, 55, 0
6, 78720, Note_on_c, 2, 64, 106
6, 78720, Note_on_c, 2, 54, 106
6, 78720, Note_on_c, 2, 57, 106
6, 78720, Note_on_c, 2, 61, 106
6, 79008, Note_on_c, 2, 61, 0
6, 79008, Note_on_c, 2, 64, 0
6, 79008, Note_on_c, 2, 54, 0
6, 79008, Note_on_c, 2, 57, 0
6, 79008, Note_on_c, 2, 57, 106
6, 79008, Note_on_c, 2, 66, 106
6, 79008, Note_on_c, 2, 59, 106
6, 79008, Note_on_c, 2, 62, 106
6, 80256, Note_on_c, 2, 62, 0
6, 80256, Note_on_c, 2, 57, 0
6, 80256, Note_on_c, 2, 66, 0
6, 80256, Note_on_c, 2, 59, 0
6, 80256, Note_on_c, 2, 57, 106
6, 80256, Note_on_c, 2, 64, 106
6, 80256, Note_on_c, 2, 61, 106
6, 80256, Note_on_c, 2, 54, 106
6, 80544, Note_on_c, 2, 54, 0
6, 80544, Note_on_c, 2, 57, 0
6, 80544, Note_on_c, 2, 64, 0
6, 80544, Note_on_c, 2, 61, 0
6, 80544, Note_on_c, 2, 52, 106
6, 80544, Note_on_c, 2, 55, 106
6, 80544, Note_on_c, 2, 59, 106
6, 80544, Note_on_c, 2, 62, 106
6, 81792, Note_on_c, 2, 62, 0
6, 81792, Note_on_c, 2, 52, 0
6, 81792, Note_on_c, 2, 55, 0
6, 81792, Note_on_c, 2, 59, 0
6, 81792, Note_on_c, 2, 64, 105
6, 81792, Note_on_c, 2, 54, 105
6, 81792, Note_on_c, 2, 57, 105
6, 81792, Note_on_c, 2, 61, 105
6, 82080, Note_on_c, 2, 61, 0
6, 82080, Note_on_c, 2, 64, 0
6, 82080, Note_on_c, 2, 54, 0
6, 82080, Note_on_c, 2, 57, 0
6, 82080, Note_on_c, 2, 57, 105
6, 82080, Note_on_c, 2, 66, 105
6, 82080, Note_on_c, 2, 59, 105
6, 82080, Note_on_c, 2, 62, 105
6, 83328, Note_on_c, 2, 62, 0
6, 83328, Note_on_c, 2, 57, 0
6, 83328, Note_on_c, 2, 66, 0
6, 83328, Note_on_c, 2, 59, 0
6, 83328, Note_on_c, 2, 57, 107
6, 83328, Note_on_c, 2, 64, 107
6, 83328, Note_on_c, 2, 61, 107
6, 83328, Note_on_c, 2, 54, 107
6, 83616, Note_on_c, 2, 54, 0
6, 83616, Note_on_c, 2, 57, 0
6, 83616, Note_on_c, 2, 64, 0
6, 83616, Note_on_c, 2, 61, 0
6, 83616, Note_on_c, 2, 62, 107
6, 83616, Note_on_c, 2, 59, 107
6, 83616, Note_on_c, 2, 55, 107
6, 83616, Note_on_c, 2, 52, 107
6, 84864, Note_on_c, 2, 52, 0
6, 84864, Note_on_c, 2, 62, 0
6, 84864, Note_on_c, 2, 59, 0
6, 84864, Note_on_c, 2, 55, 0
6, 84864, Note_on_c, 2, 64, 106
6, 84864, Note_on_c, 2, 54, 106
6, 84864, Note_on_c, 2, 57, 106
6, 84864, Note_on_c, 2, 61, 106
6, 85152, Note_on_c, 2, 61, 0
6, 85152, Note_on_c, 2, 64, 0
6, 85152, Note_on_c, 2, 54, 0
6, 85152, Note_on_c, 2, 57, 0
6, 85152, Note_on_c, 2, 57, 106
6, 85152, Note_on_c, 2, 66, 106
6, 85152, Note_on_c, 2, 59, 106
6, 85152, Note_on_c, 2, 62, 106
6, 86400, Note_on_c, 2, 62, 0
6, 86400, Note_on_c, 2, 57, 0
6, 86400, Note_on_c, 2, 66, 0
6, 86400, Note_on_c, 2, 59, 0
6, 86400, Note_on_c, 2, 57, 106
6, 86400, Note_on_c, 2, 64, 106
6, 86400, Note_on_c, 2, 61, 106
6, 86400, Note_on_c, 2, 54, 106
6, 86688, Note_on_c, 2, 54, 0
6, 86688, Note_on_c, 2, 57, 0
6, 86688, Note_on_c, 2, 64, 0
6, 86688, Note_on_c, 2, 61, 0
6, 86688, Note_on_c, 2, 52, 106
6, 86688, Note_on_c, 2, 55, 106
6, 86688, Note_on_c, 2, 59, 106
6, 86688, Note_on_c, 2, 62, 106
6, 87936, Note_on_c, 2, 62, 0
6, 87936, Note_on_c, 2, 52, 0
6, 87936, Note_on_c, 2, 55, 0
6, 87936, Note_on_c, 2, 59, 0
6, 87936, Note_on_c, 2, 64, 105
6, 87936, Note_on_c, 2, 54, 105
6, 87936, Note_on_c, 2, 57, 105
6, 87936, Note_on_c, 2, 61, 105
6, 88224, Note_on_c, 2, 61, 0
6, 88224, Note_on_c, 2, 64, 0
6, 88224, Note_on_c, 2, 54, 0
6, 88224, Note_on_c, 2, 57, 0
6, 88224, Note_on_c, 2, 57, 105
6, 88224, Note_on_c, 2, 66, 105
6, 88224, Note_on_c, 2, 59, 105
6, 88224, Note_on_c, 2, 62, 105
6, 89472, Note_on_c, 2, 62, 0
6, 89472, Note_on_c, 2, 57, 0
6, 89472, Note_on_c, 2, 66, 0
6, 89472, Note_on_c, 2, 59, 0
6, 89472, Note_on_c, 2, 57, 107
6, 89472, Note_on_c, 2, 64, 107
6, 89472, Note_on_c, 2, 61, 107
6, 89472, Note_on_c, 2, 54, 107
6, 89760, Note_on_c, 2, 54, 0
6, 89760, Note_on_c, 2, 57, 0
6, 89760, Note_on_c, 2, 64, 0
6, 89760, Note_on_c, 2, 61, 0
6, 89760, Note_on_c, 2, 62, 107
6, 89760, Note_on_c, 2, 59, 107
6, 89760, Note_on_c, 2, 55, 107
6, 89760, Note_on_c, 2, 52, 107
6, 91008, Note_on_c, 2, 52, 0
6, 91008, Note_on_c, 2, 62, 0
6, 91008, Note_on_c, 2, 59, 0
6, 91008, Note_on_c, 2, 55, 0
6, 91008, Note_on_c, 2, 64, 106
6, 91008, Note_on_c, 2, 54, 106
6, 91008, Note_on_c, 2, 57, 106
6, 91008, Note_on_c, 2, 61, 106
6, 91296, Note_on_c, 2, 61, 0
6, 91296, Note_on_c, 2, 64, 0
6, 91296, Note_on_c, 2, 54, 0
6, 91296, Note_on_c, 2, 57, 0
6, 91296, Note_on_c, 2, 57, 106
6, 91296, Note_on_c, 2, 66, 106
6, 91296, Note_on_c, 2, 59, 106
6, 91296, Note_on_c, 2, 62, 106
6, 91344, Note_on_c, 2, 62, 0
6, 91368, Note_on_c, 2, 57, 0
6, 91368, Note_on_c, 2, 66, 0
6, 91368, Note_on_c, 2, 59, 0
6, 92158, Control_c, 2, 123, 0
6, 92158, End_track
7, 0, Start_track
7, 0, MIDI_port, 0
7, 0, Control_c, 3, 121, 0
7, 2, Control_c, 3, 67, 0
7, 3, Control_c, 3, 64, 0
7, 4, Control_c, 3, 100, 0
7, 5, Control_c, 3, 101, 0
7, 6, Control_c, 3, 6, 2
7, 7, Control_c, 3, 11, 127
7, 8, Control_c, 3, 1, 0
7, 10, Control_c, 3, 11, 127
7, 12, Pitch_bend_c, 3, 8192
7, 207, Control_c, 3, 0, 0
7, 208, Control_c, 3, 32, 0
7, 209, Program_c, 3, 48
7, 210, Control_c, 3, 7, 90
7, 210, Control_c, 3, 10, 64
7, 584, Control_c, 3, 11, 127
7, 586, Control_c, 3, 91, 77
7, 588, Control_c, 3, 93, 0
7, 28608, Note_on_c, 3, 83, 112
7, 28645, Note_on_c, 3, 83, 0
7, 28704, Note_on_c, 3, 86, 100
7, 28744, Note_on_c, 3, 86, 0
7, 28800, Note_on_c, 3, 90, 112
7, 28812, Pitch_bend_c, 3, 7359
7, 28819, Pitch_bend_c, 3, 6169
7, 28825, Pitch_bend_c, 3, 4979
7, 28832, Pitch_bend_c, 3, 3551
7, 28841, Pitch_bend_c, 3, 1885
7, 28860, Pitch_bend_c, 3, 1885
7, 28869, Pitch_bend_c, 3, 3789
7, 28881, Pitch_bend_c, 3, 5574
7, 28888, Pitch_bend_c, 3, 7478
7, 28889, Note_on_c, 3, 90, 0
7, 28896, Pitch_bend_c, 3, 7954
7, 28899, Pitch_bend_c, 3, 8192
7, 28972, Pitch_bend_c, 3, 7121
7, 28979, Pitch_bend_c, 3, 5693
7, 28986, Pitch_bend_c, 3, 4860
7, 28992, Note_on_c, 3, 90, 112
7, 28995, Pitch_bend_c, 3, 2361
7, 29011, Pitch_bend_c, 3, 2123
7, 29021, Pitch_bend_c, 3, 3075
7, 29029, Pitch_bend_c, 3, 4265
7, 29036, Pitch_bend_c, 3, 5098
7, 29043, Pitch_bend_c, 3, 7359
7, 29049, Pitch_bend_c, 3, 8073
7, 29053, Pitch_bend_c, 3, 8192
7, 29131, Note_on_c, 3, 90, 0
7, 29184, Note_on_c, 3, 83, 112
7, 29226, Note_on_c, 3, 83, 0
7, 29280, Note_on_c, 3, 88, 124
7, 29366, Note_on_c, 3, 88, 0
7, 30144, Note_on_c, 3, 81, 100
7, 30179, Note_on_c, 3, 81, 0
7, 30240, Note_on_c, 3, 83, 112
7, 30278, Note_on_c, 3, 83, 0
7, 30325, Pitch_bend_c, 3, 6764
7, 30336, Note_on_c, 3, 86, 100
7, 30338, Pitch_bend_c, 3, 5217
7, 30344, Pitch_bend_c, 3, 3789
7, 30352, Pitch_bend_c, 3, 3313
7, 30358, Pitch_bend_c, 3, 3075
7, 30365, Pitch_bend_c, 3, 3075
7, 30372, Pitch_bend_c, 3, 4027
7, 30380, Pitch_bend_c, 3, 5336
7, 30387, Pitch_bend_c, 3, 7121
7, 30393, Pitch_bend_c, 3, 7954
7, 30398, Pitch_bend_c, 3, 8192
7, 30461, Note_on_c, 3, 86, 0
7, 30509, Pitch_bend_c, 3, 6526
7, 30520, Pitch_bend_c, 3, 5574
7, 30526, Pitch_bend_c, 3, 4384
7, 30528, Note_on_c, 3, 86, 116
7, 30535, Pitch_bend_c, 3, 3432
7, 30542, Pitch_bend_c, 3, 2956
7, 30560, Pitch_bend_c, 3, 3908
7, 30569, Pitch_bend_c, 3, 4860
7, 30576, Pitch_bend_c, 3, 6050
7, 30582, Pitch_bend_c, 3, 7121
7, 30589, Pitch_bend_c, 3, 8073
7, 30594, Pitch_bend_c, 3, 8192
7, 30687, Note_on_c, 3, 86, 0
7, 30720, Note_on_c, 3, 83, 112
7, 30797, Note_on_c, 3, 83, 0
7, 47040, Note_on_c, 3, 83, 112
7, 47077, Note_on_c, 3, 83, 0
7, 47136, Note_on_c, 3, 86, 100
7, 47176, Note_on_c, 3, 86, 0
7, 47232, Note_on_c, 3, 90, 112
7, 47244, Pitch_bend_c, 3, 6407
7, 47256, Pitch_bend_c, 3, 4979
7, 47264, Pitch_bend_c, 3, 3789
7, 47270, Pitch_bend_c, 3, 2599
7, 47278, Pitch_bend_c, 3, 1885
7, 47292, Pitch_bend_c, 3, 1885
7, 47301, Pitch_bend_c, 3, 3551
7, 47312, Pitch_bend_c, 3, 5574
7, 47320, Pitch_bend_c, 3, 7240
7, 47321, Note_on_c, 3, 90, 0
7, 47326, Pitch_bend_c, 3, 7954
7, 47331, Pitch_bend_c, 3, 8192
7, 47404, Pitch_bend_c, 3, 7121
7, 47411, Pitch_bend_c, 3, 5693
7, 47418, Pitch_bend_c, 3, 4860
7, 47424, Note_on_c, 3, 90, 112
7, 47427, Pitch_bend_c, 3, 2599
7, 47438, Pitch_bend_c, 3, 2123
7, 47453, Pitch_bend_c, 3, 2837
7, 47459, Pitch_bend_c, 3, 4027
7, 47466, Pitch_bend_c, 3, 5098
7, 47475, Pitch_bend_c, 3, 8073
7, 47485, Pitch_bend_c, 3, 8192
7, 47563, Note_on_c, 3, 90, 0
7, 47616, Note_on_c, 3, 85, 68
7, 47616, Note_on_c, 3, 83, 112
7, 47644, Note_on_c, 3, 85, 0
7, 47658, Note_on_c, 3, 83, 0
7, 47712, Note_on_c, 3, 88, 124
7, 47798, Note_on_c, 3, 88, 0
7, 48576, Note_on_c, 3, 81, 100
7, 48611, Note_on_c, 3, 81, 0
7, 48672, Note_on_c, 3, 83, 112
7, 48710, Note_on_c, 3, 83, 0
7, 48757, Pitch_bend_c, 3, 6764
7, 48768, Note_on_c, 3, 86, 100
7, 48770, Pitch_bend_c, 3, 4027
7, 48782, Pitch_bend_c, 3, 3313
7, 48790, Pitch_bend_c, 3, 3075
7, 48797, Pitch_bend_c, 3, 3075
7, 48804, Pitch_bend_c, 3, 3789
7, 48810, Pitch_bend_c, 3, 4622
7, 48817, Pitch_bend_c, 3, 6883
7, 48824, Pitch_bend_c, 3, 7954
7, 48830, Pitch_bend_c, 3, 8192
7, 48893, Note_on_c, 3, 86, 0
7, 48941, Pitch_bend_c, 3, 6764
7, 48950, Pitch_bend_c, 3, 5574
7, 48958, Pitch_bend_c, 3, 5336
7, 48960, Note_on_c, 3, 86, 116
7, 48964, Pitch_bend_c, 3, 3670
7, 48971, Pitch_bend_c, 3, 3194
7, 48980, Pitch_bend_c, 3, 2956
7, 48992, Pitch_bend_c, 3, 3908
7, 49001, Pitch_bend_c, 3, 5812
7, 49013, Pitch_bend_c, 3, 7121
7, 49021, Pitch_bend_c, 3, 8073
7, 49026, Pitch_bend_c, 3, 8192
7, 49119, Note_on_c, 3, 86, 0
7, 49152, Note_on_c, 3, 83, 112
7, 49229, Note_on_c, 3, 83, 0
7, 92158, Control_c, 3, 123, 0
7, 92158, End_track
8, 0, Start_track
8, 0, MIDI_port, 0
8, 0, Control_c, 4, 121, 0
8, 2, Control_c, 4, 67, 0
8, 3, Control_c, 4, 64, 0
8, 4, Control_c, 4, 100, 0
8, 5, Control_c, 4, 101, 0
8, 6, Control_c, 4, 6, 12
8, 7, Control_c, 4, 11, 127
8, 8, Control_c, 4, 1, 0
8, 10, Control_c, 4, 11, 127
8, 12, Pitch_bend_c, 4, 8192
8, 212, Control_c, 4, 0, 0
8, 213, Control_c, 4, 32, 0
8, 214, Program_c, 4, 61
8, 215, Control_c, 4, 7, 90
8, 215, Control_c, 4, 10, 64
8, 584, Control_c, 4, 11, 127
8, 586, Control_c, 4, 91, 44
8, 588, Control_c, 4, 93, 54
8, 9600, Note_on_c, 4, 83, 127
8, 9600, Note_on_c, 4, 71, 127
8, 9792, Note_on_c, 4, 71, 0
8, 9792, Note_on_c, 4, 83, 0
8, 9792, Note_on_c, 4, 78, 127
8, 9792, Note_on_c, 4, 66, 127
8, 9888, Note_on_c, 4, 66, 0
8, 9888, Note_on_c, 4, 78, 0
8, 9888, Note_on_c, 4, 81, 127
8, 9888, Note_on_c, 4, 69, 127
8, 9938, Note_on_c, 4, 69, 0
8, 9959, Note_on_c, 4, 81, 0
8, 10080, Note_on_c, 4, 78, 127
8, 10080, Note_on_c, 4, 66, 127
8, 10129, Note_on_c, 4, 66, 0
8, 10129, Note_on_c, 4, 78, 0
8, 10272, Note_on_c, 4, 74, 127
8, 10272, Note_on_c, 4, 62, 127
8, 10316, Note_on_c, 4, 74, 0
8, 10334, Note_on_c, 4, 62, 0
8, 10464, Note_on_c, 4, 78, 127
8, 10464, Note_on_c, 4, 66, 127
8, 10545, Note_on_c, 4, 78, 0
8, 10551, Note_on_c, 4, 66, 0
8, 10560, Note_on_c, 4, 71, 127
8, 10560, Note_on_c, 4, 59, 127
8, 10614, Note_on_c, 4, 71, 0
8, 10615, Note_on_c, 4, 59, 0
8, 10752, Note_on_c, 4, 69, 127
8, 10752, Note_on_c, 4, 57, 127
8, 10838, Note_on_c, 4, 57, 0
8, 10841, Note_on_c, 4, 69, 0
8, 10848, Note_on_c, 4, 71, 127
8, 10848, Note_on_c, 4, 59, 127
8, 10912, Note_on_c, 4, 59, 0
8, 10916, Note_on_c, 4, 71, 0
8, 10944, Note_on_c, 4, 74, 127
8, 10944, Note_on_c, 4, 62, 127
8, 11015, Note_on_c, 4, 62, 0
8, 11015, Note_on_c, 4, 74, 0
8, 11136, Note_on_c, 4, 71, 127
8, 11136, Note_on_c, 4, 59, 127
8, 11386, Note_on_c, 4, 71, 0
8, 11399, Note_on_c, 4, 59, 0
8, 11424, Note_on_c, 4, 57, 127
8, 11424, Note_on_c, 4, 69, 127
8, 11508, Note_on_c, 4, 69, 0
8, 11508, Note_on_c, 4, 57, 0
8, 11520, Note_on_c, 4, 71, 127
8, 11520, Note_on_c, 4, 59, 127
8, 11559, Note_on_c, 4, 71, 0
8, 11560, Note_on_c, 4, 59, 0
8, 11616, Note_on_c, 4, 74, 127
8, 11616, Note_on_c, 4, 62, 127
8, 11661, Note_on_c, 4, 74, 0
8, 11665, Note_on_c, 4, 62, 0
8, 11808, Note_on_c, 4, 74, 127
8, 11808, Note_on_c, 4, 62, 127
8, 11975, Note_on_c, 4, 62, 0
8, 11976, Note_on_c, 4, 74, 0
8, 12000, Note_on_c, 4, 76, 127
8, 12000, Note_on_c, 4, 64, 127
8, 12074, Note_on_c, 4, 64, 0
8, 12081, Note_on_c, 4, 76, 0
8, 12096, Note_on_c, 4, 78, 127
8, 12096, Note_on_c, 4, 66, 127
8, 12146, Note_on_c, 4, 66, 0
8, 12150, Note_on_c, 4, 78, 0
8, 12672, Note_on_c, 4, 83, 127
8, 12672, Note_on_c, 4, 71, 127
8, 12864, Note_on_c, 4, 71, 0
8, 12864, Note_on_c, 4, 83, 0
8, 12864, Note_on_c, 4, 78, 127
8, 12864, Note_on_c, 4, 66, 127
8, 12960, Note_on_c, 4, 66, 0
8, 12960, Note_on_c, 4, 78, 0
8, 12960, Note_on_c, 4, 81, 127
8, 12960, Note_on_c, 4, 69, 127
8, 13010, Note_on_c, 4, 69, 0
8, 13031, Note_on_c, 4, 81, 0
8, 13152, Note_on_c, 4, 78, 127
8, 13152, Note_on_c, 4, 66, 127
8, 13201, Note_on_c, 4, 66, 0
8, 13201, Note_on_c, 4, 78, 0
8, 13344, Note_on_c, 4, 74, 127
8, 13344, Note_on_c, 4, 62, 127
8, 13388, Note_on_c, 4, 74, 0
8, 13406, Note_on_c, 4, 62, 0
8, 13536, Note_on_c, 4, 78, 127
8, 13536, Note_on_c, 4, 66, 127
8, 13617, Note_on_c, 4, 78, 0
8, 13623, Note_on_c, 4, 66, 0
8, 13632, Note_on_c, 4, 71, 127
8, 13632, Note_on_c, 4, 59, 127
8, 13686, Note_on_c, 4, 71, 0
8, 13687, Note_on_c, 4, 59, 0
8, 13824, Note_on_c, 4, 69, 127
8, 13824, Note_on_c, 4, 57, 127
8, 13910, Note_on_c, 4, 57, 0
8, 13913, Note_on_c, 4, 69, 0
8, 13920, Note_on_c, 4, 71, 127
8, 13920, Note_on_c, 4, 59, 127
8, 13984, Note_on_c, 4, 59, 0
8, 13988, Note_on_c, 4, 71, 0
8, 14016, Note_on_c, 4, 74, 127
8, 14016, Note_on_c, 4, 62, 127
8, 14087, Note_on_c, 4, 62, 0
8, 14087, Note_on_c, 4, 74, 0
8, 14208, Note_on_c, 4, 71, 127
8, 14208, Note_on_c, 4, 59, 127
8, 14458, Note_on_c, 4, 71, 0
8, 14471, Note_on_c, 4, 59, 0
8, 14496, Note_on_c, 4, 57, 127
8, 14496, Note_on_c, 4, 69, 127
8, 14580, Note_on_c, 4, 69, 0
8, 14580, Note_on_c, 4, 57, 0
8, 14592, Note_on_c, 4, 71, 127
8, 14592, Note_on_c, 4, 59, 127
8, 14631, Note_on_c, 4, 71, 0
8, 14632, Note_on_c, 4, 59, 0
8, 14688, Note_on_c, 4, 74, 127
8, 14688, Note_on_c, 4, 62, 127
8, 14733, Note_on_c, 4, 74, 0
8, 14737, Note_on_c, 4, 62, 0
8, 14880, Note_on_c, 4, 74, 127
8, 14880, Note_on_c, 4, 62, 127
8, 15047, Note_on_c, 4, 62, 0
8, 15048, Note_on_c, 4, 74, 0
8, 15072, Note_on_c, 4, 71, 127
8, 15072, Note_on_c, 4, 59, 127
8, 15146, Note_on_c, 4, 59, 0
8, 15153, Note_on_c, 4, 71, 0
8, 15168, Note_on_c, 4, 74, 127
8, 15168, Note_on_c, 4, 62, 127
8, 15218, Note_on_c, 4, 62, 0
8, 15222, Note_on_c, 4, 74, 0
8, 15744, Note_on_c, 4, 83, 127
8, 15744, Note_on_c, 4, 71, 127
8, 15936, Note_on_c, 4, 71, 0
8, 15936, Note_on_c, 4, 83, 0
8, 15936, Note_on_c, 4, 78, 127
8, 15936, Note_on_c, 4, 66, 127
8, 15966, Note_on_c, 4, 78, 0
8, 15984, Note_on_c, 4, 66, 0
8, 16032, Note_on_c, 4, 81, 127
8, 16032, Note_on_c, 4, 69, 127
8, 16082, Note_on_c, 4, 69, 0
8, 16103, Note_on_c, 4, 81, 0
8, 16224, Note_on_c, 4, 78, 127
8, 16224, Note_on_c, 4, 66, 127
8, 16273, Note_on_c, 4, 66, 0
8, 16273, Note_on_c, 4, 78, 0
8, 16416, Note_on_c, 4, 74, 127
8, 16416, Note_on_c, 4, 62, 127
8, 16460, Note_on_c, 4, 74, 0
8, 16478, Note_on_c, 4, 62, 0
8, 16608, Note_on_c, 4, 78, 127
8, 16608, Note_on_c, 4, 66, 127
8, 16689, Note_on_c, 4, 78, 0
8, 16695, Note_on_c, 4, 66, 0
8, 16704, Note_on_c, 4, 71, 127
8, 16704, Note_on_c, 4, 59, 127
8, 16758, Note_on_c, 4, 71, 0
8, 16759, Note_on_c, 4, 59, 0
8, 16896, Note_on_c, 4, 69, 127
8, 16896, Note_on_c, 4, 57, 127
8, 16982, Note_on_c, 4, 57, 0
8, 16985, Note_on_c, 4, 69, 0
8, 16992, Note_on_c, 4, 71, 127
8, 16992, Note_on_c, 4, 59, 127
8, 17056, Note_on_c, 4, 59, 0
8, 17060, Note_on_c, 4, 71, 0
8, 17088, Note_on_c, 4, 74, 127
8, 17088, Note_on_c, 4, 62, 127
8, 17159, Note_on_c, 4, 62, 0
8, 17159, Note_on_c, 4, 74, 0
8, 17280, Note_on_c, 4, 71, 127
8, 17280, Note_on_c, 4, 59, 127
8, 17530, Note_on_c, 4, 71, 0
8, 17543, Note_on_c, 4, 59, 0
8, 17568, Note_on_c, 4, 57, 127
8, 17568, Note_on_c, 4, 69, 127
8, 17652, Note_on_c, 4, 69, 0
8, 17652, Note_on_c, 4, 57, 0
8, 17664, Note_on_c, 4, 71, 127
8, 17664, Note_on_c, 4, 59, 127
8, 17703, Note_on_c, 4, 71, 0
8, 17704, Note_on_c, 4, 59, 0
8, 17760, Note_on_c, 4, 74, 127
8, 17760, Note_on_c, 4, 62, 127
8, 17805, Note_on_c, 4, 74, 0
8, 17809, Note_on_c, 4, 62, 0
8, 17952, Note_on_c, 4, 74, 127
8, 17952, Note_on_c, 4, 62, 127
8, 18119, Note_on_c, 4, 62, 0
8, 18120, Note_on_c, 4, 74, 0
8, 18144, Note_on_c, 4, 76, 127
8, 18144, Note_on_c, 4, 64, 127
8, 18218, Note_on_c, 4, 64, 0
8, 18225, Note_on_c, 4, 76, 0
8, 18240, Note_on_c, 4, 78, 127
8, 18240, Note_on_c, 4, 66, 127
8, 18290, Note_on_c, 4, 66, 0
8, 18294, Note_on_c, 4, 78, 0
8, 18816, Note_on_c, 4, 83, 127
8, 18816, Note_on_c, 4, 71, 127
8, 19008, Note_on_c, 4, 71, 0
8, 19008, Note_on_c, 4, 83, 0
8, 19008, Note_on_c, 4, 78, 127
8, 19008, Note_on_c, 4, 66, 127
8, 19104, Note_on_c, 4, 66, 0
8, 19104, Note_on_c, 4, 78, 0
8, 19104, Note_on_c, 4, 81, 127
8, 19104, Note_on_c, 4, 69, 127
8, 19152, Note_on_c, 4, 81, 0
8, 19154, Note_on_c, 4, 69, 0
8, 19296, Note_on_c, 4, 78, 127
8, 19296, Note_on_c, 4, 66, 127
8, 19345, Note_on_c, 4, 66, 0
8, 19345, Note_on_c, 4, 78, 0
8, 19488, Note_on_c, 4, 74, 127
8, 19488, Note_on_c, 4, 62, 127
8, 19532, Note_on_c, 4, 74, 0
8, 19550, Note_on_c, 4, 62, 0
8, 19680, Note_on_c, 4, 78, 127
8, 19680, Note_on_c, 4, 66, 127
8, 19761, Note_on_c, 4, 78, 0
8, 19767, Note_on_c, 4, 66, 0
8, 19776, Note_on_c, 4, 71, 127
8, 19776, Note_on_c, 4, 59, 127
8, 19830, Note_on_c, 4, 71, 0
8, 19831, Note_on_c, 4, 59, 0
8, 19968, Note_on_c, 4, 69, 127
8, 19968, Note_on_c, 4, 57, 127
8, 20054, Note_on_c, 4, 57, 0
8, 20057, Note_on_c, 4, 69, 0
8, 20064, Note_on_c, 4, 71, 127
8, 20064, Note_on_c, 4, 59, 127
8, 20128, Note_on_c, 4, 59, 0
8, 20132, Note_on_c, 4, 71, 0
8, 20160, Note_on_c, 4, 74, 127
8, 20160, Note_on_c, 4, 62, 127
8, 20231, Note_on_c, 4, 62, 0
8, 20231, Note_on_c, 4, 74, 0
8, 20352, Note_on_c, 4, 71, 127
8, 20352, Note_on_c, 4, 59, 127
8, 20602, Note_on_c, 4, 71, 0
8, 20615, Note_on_c, 4, 59, 0
8, 20640, Note_on_c, 4, 57, 127
8, 20640, Note_on_c, 4, 69, 127
8, 20724, Note_on_c, 4, 69, 0
8, 20724, Note_on_c, 4, 57, 0
8, 20736, Note_on_c, 4, 71, 127
8, 20736, Note_on_c, 4, 59, 127
8, 20775, Note_on_c, 4, 71, 0
8, 20776, Note_on_c, 4, 59, 0
8, 20832, Note_on_c, 4, 74, 127
8, 20832, Note_on_c, 4, 62, 127
8, 20877, Note_on_c, 4, 74, 0
8, 20881, Note_on_c, 4, 62, 0
8, 21024, Note_on_c, 4, 74, 127
8, 21024, Note_on_c, 4, 62, 127
8, 21191, Note_on_c, 4, 62, 0
8, 21192, Note_on_c, 4, 74, 0
8, 21216, Note_on_c, 4, 71, 127
8, 21216, Note_on_c, 4, 59, 127
8, 21290, Note_on_c, 4, 59, 0
8, 21297, Note_on_c, 4, 71, 0
8, 21312, Note_on_c, 4, 74, 127
8, 21312, Note_on_c, 4, 62, 127
8, 21362, Note_on_c, 4, 62, 0
8, 21366, Note_on_c, 4, 74, 0
8, 34176, Note_on_c, 4, 83, 127
8, 34176, Note_on_c, 4, 71, 127
8, 34368, Note_on_c, 4, 71, 0
8, 34368, Note_on_c, 4, 83, 0
8, 34368, Note_on_c, 4, 78, 127
8, 34368, Note_on_c, 4, 66, 127
8, 34464, Note_on_c, 4, 66, 0
8, 34464, Note_on_c, 4, 78, 0
8, 34464, Note_on_c, 4, 81, 127
8, 34464, Note_on_c, 4, 69, 127
8, 34514, Note_on_c, 4, 69, 0
8, 34535, Note_on_c, 4, 81, 0
8, 34656, Note_on_c, 4, 78, 127
8, 34656, Note_on_c, 4, 66, 127
8, 34705, Note_on_c, 4, 66, 0
8, 34705, Note_on_c, 4, 78, 0
8, 34848, Note_on_c, 4, 74, 127
8, 34848, Note_on_c, 4, 62, 127
8, 34892, Note_on_c, 4, 74, 0
8, 34910, Note_on_c, 4, 62, 0
8, 35040, Note_on_c, 4, 78, 127
8, 35040, Note_on_c, 4, 66, 127
8, 35121, Note_on_c, 4, 78, 0
8, 35127, Note_on_c, 4, 66, 0
8, 35136, Note_on_c, 4, 71, 127
8, 35136, Note_on_c, 4, 59, 127
8, 35190, Note_on_c, 4, 71, 0
8, 35191, Note_on_c, 4, 59, 0
8, 35328, Note_on_c, 4, 69, 127
8, 35328, Note_on_c, 4, 57, 127
8, 35414, Note_on_c, 4, 57, 0
8, 35417, Note_on_c, 4, 69, 0
8, 35424, Note_on_c, 4, 71, 127
8, 35424, Note_on_c, 4, 59, 127
8, 35488, Note_on_c, 4, 59, 0
8, 35492, Note_on_c, 4, 71, 0
8, 35520, Note_on_c, 4, 74, 127
8, 35520, Note_on_c, 4, 62, 127
8, 35591, Note_on_c, 4, 62, 0
8, 35591, Note_on_c, 4, 74, 0
8, 35712, Note_on_c, 4, 71, 127
8, 35712, Note_on_c, 4, 59, 127
8, 35962, Note_on_c, 4, 71, 0
8, 35975, Note_on_c, 4, 59, 0
8, 36000, Note_on_c, 4, 57, 127
8, 36000, Note_on_c, 4, 69, 127
8, 36084, Note_on_c, 4, 69, 0
8, 36084, Note_on_c, 4, 57, 0
8, 36096, Note_on_c, 4, 71, 127
8, 36096, Note_on_c, 4, 59, 127
8, 36135, Note_on_c, 4, 71, 0
8, 36136, Note_on_c, 4, 59, 0
8, 36192, Note_on_c, 4, 74, 127
8, 36192, Note_on_c, 4, 62, 127
8, 36237, Note_on_c, 4, 74, 0
8, 36241, Note_on_c, 4, 62, 0
8, 36384, Note_on_c, 4, 74, 127
8, 36384, Note_on_c, 4, 62, 127
8, 36551, Note_on_c, 4, 62, 0
8, 36552, Note_on_c, 4, 74, 0
8, 36576, Note_on_c, 4, 76, 127
8, 36576, Note_on_c, 4, 64, 127
8, 36650, Note_on_c, 4, 64, 0
8, 36657, Note_on_c, 4, 76, 0
8, 36672, Note_on_c, 4, 78, 127
8, 36672, Note_on_c, 4, 66, 127
8, 36722, Note_on_c, 4, 66, 0
8, 36726, Note_on_c, 4, 78, 0
8, 37248, Note_on_c, 4, 83, 127
8, 37248, Note_on_c, 4, 71, 127
8, 37440, Note_on_c, 4, 71, 0
8, 37440, Note_on_c, 4, 83, 0
8, 37440, Note_on_c, 4, 78, 127
8, 37440, Note_on_c, 4, 66, 127
8, 37536, Note_on_c, 4, 66, 0
8, 37536, Note_on_c, 4, 78, 0
8, 37536, Note_on_c, 4, 81, 127
8, 37536, Note_on_c, 4, 69, 127
8, 37586, Note_on_c, 4, 69, 0
8, 37607, Note_on_c, 4, 81, 0
8, 37728, Note_on_c, 4, 78, 127
8, 37728, Note_on_c, 4, 66, 127
8, 37777, Note_on_c, 4, 66, 0
8, 37777, Note_on_c, 4, 78, 0
8, 37920, Note_on_c, 4, 74, 127
8, 37920, Note_on_c, 4, 62, 127
8, 37964, Note_on_c, 4, 74, 0
8, 37982, Note_on_c, 4, 62, 0
8, 38112, Note_on_c, 4, 78, 127
8, 38112, Note_on_c, 4, 66, 127
8, 38193, Note_on_c, 4, 78, 0
8, 38199, Note_on_c, 4, 66, 0
8, 38208, Note_on_c, 4, 71, 127
8, 38208, Note_on_c, 4, 59, 127
8, 38262, Note_on_c, 4, 71, 0
8, 38263, Note_on_c, 4, 59, 0
8, 38400, Note_on_c, 4, 69, 127
8, 38400, Note_on_c, 4, 57, 127
8, 38486, Note_on_c, 4, 57, 0
8, 38489, Note_on_c, 4, 69, 0
8, 38496, Note_on_c, 4, 71, 127
8, 38496, Note_on_c, 4, 59, 127
8, 38560, Note_on_c, 4, 59, 0
8, 38564, Note_on_c, 4, 71, 0
8, 38592, Note_on_c, 4, 74, 127
8, 38592, Note_on_c, 4, 62, 127
8, 38663, Note_on_c, 4, 62, 0
8, 38663, Note_on_c, 4, 74, 0
8, 38784, Note_on_c, 4, 71, 127
8, 38784, Note_on_c, 4, 59, 127
8, 39034, Note_on_c, 4, 71, 0
8, 39047, Note_on_c, 4, 59, 0
8, 39072, Note_on_c, 4, 57, 127
8, 39072, Note_on_c, 4, 69, 127
8, 39156, Note_on_c, 4, 69, 0
8, 39156, Note_on_c, 4, 57, 0
8, 39168, Note_on_c, 4, 71, 127
8, 39168, Note_on_c, 4, 59, 127
8, 39207, Note_on_c, 4, 71, 0
8, 39208, Note_on_c, 4, 59, 0
8, 39264, Note_on_c, 4, 74, 127
8, 39264, Note_on_c, 4, 62, 127
8, 39309, Note_on_c, 4, 74, 0
8, 39313, Note_on_c, 4, 62, 0
8, 39456, Note_on_c, 4, 74, 127
8, 39456, Note_on_c, 4, 62, 127
8, 39623, Note_on_c, 4, 62, 0
8, 39624, Note_on_c, 4, 74, 0
8, 39648, Note_on_c, 4, 71, 127
8, 39648, Note_on_c, 4, 59, 127
8, 39722, Note_on_c, 4, 59, 0
8, 39729, Note_on_c, 4, 71, 0
8, 39744, Note_on_c, 4, 74, 127
8, 39744, Note_on_c, 4, 62, 127
8, 39794, Note_on_c, 4, 62, 0
8, 39798, Note_on_c, 4, 74, 0
8, 52608, Note_on_c, 4, 83, 127
8, 52608, Note_on_c, 4, 71, 127
8, 52800, Note_on_c, 4, 71, 0
8, 52800, Note_on_c, 4, 83, 0
8, 52800, Note_on_c, 4, 78, 127
8, 52800, Note_on_c, 4, 66, 127
8, 52896, Note_on_c, 4, 66, 0
8, 52896, Note_on_c, 4, 78, 0
8, 52896, Note_on_c, 4, 81, 127
8, 52896, Note_on_c, 4, 69, 127
8, 52946, Note_on_c, 4, 69, 0
8, 52967, Note_on_c, 4, 81, 0
8, 53088, Note_on_c, 4, 78, 127
8, 53088, Note_on_c, 4, 66, 127
8, 53137, Note_on_c, 4, 66, 0
8, 53137, Note_on_c, 4, 78, 0
8, 53280, Note_on_c, 4, 74, 127
8, 53280, Note_on_c, 4, 62, 127
8, 53324, Note_on_c, 4, 74, 0
8, 53342, Note_on_c, 4, 62, 0
8, 53472, Note_on_c, 4, 78, 127
8, 53472, Note_on_c, 4, 66, 127
8, 53553, Note_on_c, 4, 78, 0
8, 53559, Note_on_c, 4, 66, 0
8, 53568, Note_on_c, 4, 71, 127
8, 53568, Note_on_c, 4, 59, 127
8, 53622, Note_on_c, 4, 71, 0
8, 53623, Note_on_c, 4, 59, 0
8, 53760, Note_on_c, 4, 69, 127
8, 53760, Note_on_c, 4, 57, 127
8, 53846, Note_on_c, 4, 57, 0
8, 53849, Note_on_c, 4, 69, 0
8, 53856, Note_on_c, 4, 71, 127
8, 53856, Note_on_c, 4, 59, 127
8, 53920, Note_on_c, 4, 59, 0
8, 53924, Note_on_c, 4, 71, 0
8, 53952, Note_on_c, 4, 74, 127
8, 53952, Note_on_c, 4, 62, 127
8, 54023, Note_on_c, 4, 62, 0
8, 54023, Note_on_c, 4, 74, 0
8, 54144, Note_on_c, 4, 71, 127
8, 54144, Note_on_c, 4, 59, 127
8, 54394, Note_on_c, 4, 71, 0
8, 54407, Note_on_c, 4, 59, 0
8, 54432, Note_on_c, 4, 57, 127
8, 54432, Note_on_c, 4, 69, 127
8, 54516, Note_on_c, 4, 69, 0
8, 54516, Note_on_c, 4, 57, 0
8, 54528, Note_on_c, 4, 71, 127
8, 54528, Note_on_c, 4, 59, 127
8, 54567, Note_on_c, 4, 71, 0
8, 54568, Note_on_c, 4, 59, 0
8, 54624, Note_on_c, 4, 74, 127
8, 54624, Note_on_c, 4, 62, 127
8, 54669, Note_on_c, 4, 74, 0
8, 54673, Note_on_c, 4, 62, 0
8, 54816, Note_on_c, 4, 74, 127
8, 54816, Note_on_c, 4, 62, 127
8, 54983, Note_on_c, 4, 62, 0
8, 54984, Note_on_c, 4, 74, 0
8, 55008, Note_on_c, 4, 76, 127
8, 55008, Note_on_c, 4, 64, 127
8, 55082, Note_on_c, 4, 64, 0
8, 55089, Note_on_c, 4, 76, 0
8, 55104, Note_on_c, 4, 78, 127
8, 55104, Note_on_c, 4, 66, 127
8, 55154, Note_on_c, 4, 66, 0
8, 55158, Note_on_c, 4, 78, 0
8, 55680, Note_on_c, 4, 83, 127
8, 55680, Note_on_c, 4, 71, 127
8, 55872, Note_on_c, 4, 71, 0
8, 55872, Note_on_c, 4, 83, 0
8, 55872, Note_on_c, 4, 78, 127
8, 55872, Note_on_c, 4, 66, 127
8, 55968, Note_on_c, 4, 66, 0
8, 55968, Note_on_c, 4, 78, 0
8, 55968, Note_on_c, 4, 81, 127
8, 55968, Note_on_c, 4, 69, 127
8, 56018, Note_on_c, 4, 69, 0
8, 56039, Note_on_c, 4, 81, 0
8, 56160, Note_on_c, 4, 78, 127
8, 56160, Note_on_c, 4, 66, 127
8, 56209, Note_on_c, 4, 66, 0
8, 56209, Note_on_c, 4, 78, 0
8, 56352, Note_on_c, 4, 74, 127
8, 56352, Note_on_c, 4, 62, 127
8, 56396, Note_on_c, 4, 74, 0
8, 56414, Note_on_c, 4, 62, 0
8, 56544, Note_on_c, 4, 78, 127
8, 56544, Note_on_c, 4, 66, 127
8, 56625, Note_on_c, 4, 78, 0
8, 56631, Note_on_c, 4, 66, 0
8, 56640, Note_on_c, 4, 71, 127
8, 56640, Note_on_c, 4, 59, 127
8, 56694, Note_on_c, 4, 71, 0
8, 56695, Note_on_c, 4, 59, 0
8, 56832, Note_on_c, 4, 69, 127
8, 56832, Note_on_c, 4, 57, 127
8, 56918, Note_on_c, 4, 57, 0
8, 56921, Note_on_c, 4, 69, 0
8, 56928, Note_on_c, 4, 71, 127
8, 56928, Note_on_c, 4, 59, 127
8, 56992, Note_on_c, 4, 59, 0
8, 56996, Note_on_c, 4, 71, 0
8, 57024, Note_on_c, 4, 74, 127
8, 57024, Note_on_c, 4, 62, 127
8, 57095, Note_on_c, 4, 62, 0
8, 57095, Note_on_c, 4, 74, 0
8, 57216, Note_on_c, 4, 71, 127
8, 57216, Note_on_c, 4, 59, 127
8, 57466, Note_on_c, 4, 71, 0
8, 57479, Note_on_c, 4, 59, 0
8, 57504, Note_on_c, 4, 57, 127
8, 57504, Note_on_c, 4, 69, 127
8, 57588, Note_on_c, 4, 69, 0
8, 57588, Note_on_c, 4, 57, 0
8, 57600, Note_on_c, 4, 71, 127
8, 57600, Note_on_c, 4, 59, 127
8, 57639, Note_on_c, 4, 71, 0
8, 57640, Note_on_c, 4, 59, 0
8, 57696, Note_on_c, 4, 74, 127
8, 57696, Note_on_c, 4, 62, 127
8, 57741, Note_on_c, 4, 74, 0
8, 57745, Note_on_c, 4, 62, 0
8, 57888, Note_on_c, 4, 74, 127
8, 57888, Note_on_c, 4, 62, 127
8, 58055, Note_on_c, 4, 62, 0
8, 58056, Note_on_c, 4, 74, 0
8, 58080, Note_on_c, 4, 71, 127
8, 58080, Note_on_c, 4, 59, 127
8, 58154, Note_on_c, 4, 59, 0
8, 58161, Note_on_c, 4, 71, 0
8, 58176, Note_on_c, 4, 74, 127
8, 58176, Note_on_c, 4, 62, 127
8, 58226, Note_on_c, 4, 62, 0
8, 58230, Note_on_c, 4, 74, 0
8, 58752, Note_on_c, 4, 83, 127
8, 58752, Note_on_c, 4, 71, 127
8, 58944, Note_on_c, 4, 71, 0
8, 58944, Note_on_c, 4, 83, 0
8, 58944, Note_on_c, 4, 78, 127
8, 58944, Note_on_c, 4, 66, 127
8, 58974, Note_on_c, 4, 78, 0
8, 58992, Note_on_c, 4, 66, 0
8, 59040, Note_on_c, 4, 81, 127
8, 59040, Note_on_c, 4, 69, 127
8, 59090, Note_on_c, 4, 69, 0
8, 59111, Note_on_c, 4, 81, 0
8, 59232, Note_on_c, 4, 78, 127
8, 59232, Note_on_c, 4, 66, 127
8, 59281, Note_on_c, 4, 66, 0
8, 59281, Note_on_c, 4, 78, 0
8, 59424, Note_on_c, 4, 74, 127
8, 59424, Note_on_c, 4, 62, 127
8, 59468, Note_on_c, 4, 74, 0
8, 59486, Note_on_c, 4, 62, 0
8, 59616, Note_on_c, 4, 78, 127
8, 59616, Note_on_c, 4, 66, 127
8, 59697, Note_on_c, 4, 78, 0
8, 59703, Note_on_c, 4, 66, 0
8, 59712, Note_on_c, 4, 71, 127
8, 59712, Note_on_c, 4, 59, 127
8, 59766, Note_on_c, 4, 71, 0
8, 59767, Note_on_c, 4, 59, 0
8, 59904, Note_on_c, 4, 69, 127
8, 59904, Note_on_c, 4, 57, 127
8, 59990, Note_on_c, 4, 57, 0
8, 59993, Note_on_c, 4, 69, 0
8, 60000, Note_on_c, 4, 71, 127
8, 60000, Note_on_c, 4, 59, 127
8, 60064, Note_on_c, 4, 59, 0
8, 60068, Note_on_c, 4, 71, 0
8, 60096, Note_on_c, 4, 74, 127
8, 60096, Note_on_c, 4, 62, 127
8, 60167, Note_on_c, 4, 62, 0
8, 60167, Note_on_c, 4, 74, 0
8, 60288, Note_on_c, 4, 71, 127
8, 60288, Note_on_c, 4, 59, 127
8, 60538, Note_on_c, 4, 71, 0
8, 60551, Note_on_c, 4, 59, 0
8, 60576, Note_on_c, 4, 57, 127
8, 60576, Note_on_c, 4, 69, 127
8, 60660, Note_on_c, 4, 69, 0
8, 60660, Note_on_c, 4, 57, 0
8, 60672, Note_on_c, 4, 71, 127
8, 60672, Note_on_c, 4, 59, 127
8, 60711, Note_on_c, 4, 71, 0
8, 60712, Note_on_c, 4, 59, 0
8, 60768, Note_on_c, 4, 74, 127
8, 60768, Note_on_c, 4, 62, 127
8, 60813, Note_on_c, 4, 74, 0
8, 60817, Note_on_c, 4, 62, 0
8, 60960, Note_on_c, 4, 74, 127
8, 60960, Note_on_c, 4, 62, 127
8, 61127, Note_on_c, 4, 62, 0
8, 61128, Note_on_c, 4, 74, 0
8, 61152, Note_on_c, 4, 76, 127
8, 61152, Note_on_c, 4, 64, 127
8, 61226, Note_on_c, 4, 64, 0
8, 61233, Note_on_c, 4, 76, 0
8, 61248, Note_on_c, 4, 78, 127
8, 61248, Note_on_c, 4, 66, 127
8, 61298, Note_on_c, 4, 66, 0
8, 61302, Note_on_c, 4, 78, 0
8, 61824, Note_on_c, 4, 83, 127
8, 61824, Note_on_c, 4, 71, 127
8, 62016, Note_on_c, 4, 71, 0
8, 62016, Note_on_c, 4, 83, 0
8, 62016, Note_on_c, 4, 78, 127
8, 62016, Note_on_c, 4, 66, 127
8, 62112, Note_on_c, 4, 66, 0
8, 62112, Note_on_c, 4, 78, 0
8, 62112, Note_on_c, 4, 81, 127
8, 62112, Note_on_c, 4, 69, 127
8, 62160, Note_on_c, 4, 81, 0
8, 62162, Note_on_c, 4, 69, 0
8, 62304, Note_on_c, 4, 78, 127
8, 62304, Note_on_c, 4, 66, 127
8, 62353, Note_on_c, 4, 66, 0
8, 62353, Note_on_c, 4, 78, 0
8, 62496, Note_on_c, 4, 74, 127
8, 62496, Note_on_c, 4, 62, 127
8, 62540, Note_on_c, 4, 74, 0
8, 62558, Note_on_c, 4, 62, 0
8, 62688, Note_on_c, 4, 78, 127
8, 62688, Note_on_c, 4, 66, 127
8, 62769, Note_on_c, 4, 78, 0
8, 62775, Note_on_c, 4, 66, 0
8, 62784, Note_on_c, 4, 71, 127
8, 62784, Note_on_c, 4, 59, 127
8, 62838, Note_on_c, 4, 71, 0
8, 62839, Note_on_c, 4, 59, 0
8, 62976, Note_on_c, 4, 69, 127
8, 62976, Note_on_c, 4, 57, 127
8, 63062, Note_on_c, 4, 57, 0
8, 63065, Note_on_c, 4, 69, 0
8, 63072, Note_on_c, 4, 71, 127
8, 63072, Note_on_c, 4, 59, 127
8, 63136, Note_on_c, 4, 59, 0
8, 63140, Note_on_c, 4, 71, 0
8, 63168, Note_on_c, 4, 74, 127
8, 63168, Note_on_c, 4, 62, 127
8, 63239, Note_on_c, 4, 62, 0
8, 63239, Note_on_c, 4, 74, 0
8, 63360, Note_on_c, 4, 71, 127
8, 63360, Note_on_c, 4, 59, 127
8, 63610, Note_on_c, 4, 71, 0
8, 63623, Note_on_c, 4, 59, 0
8, 63648, Note_on_c, 4, 57, 127
8, 63648, Note_on_c, 4, 69, 127
8, 63732, Note_on_c, 4, 69, 0
8, 63732, Note_on_c, 4, 57, 0
8, 63744, Note_on_c, 4, 71, 127
8, 63744, Note_on_c, 4, 59, 127
8, 63783, Note_on_c, 4, 71, 0
8, 63784, Note_on_c, 4, 59, 0
8, 63840, Note_on_c, 4, 74, 127
8, 63840, Note_on_c, 4, 62, 127
8, 63885, Note_on_c, 4, 74, 0
8, 63889, Note_on_c, 4, 62, 0
8, 64032, Note_on_c, 4, 74, 127
8, 64032, Note_on_c, 4, 62, 127
8, 64199, Note_on_c, 4, 62, 0
8, 64200, Note_on_c, 4, 74, 0
8, 64224, Note_on_c, 4, 71, 127
8, 64224, Note_on_c, 4, 59, 127
8, 64298, Note_on_c, 4, 59, 0
8, 64305, Note_on_c, 4, 71, 0
8, 64320, Note_on_c, 4, 74, 127
8, 64320, Note_on_c, 4, 62, 127
8, 64370, Note_on_c, 4, 62, 0
8, 64374, Note_on_c, 4, 74, 0
8, 64896, Note_on_c, 4, 83, 127
8, 64896, Note_on_c, 4, 71, 127
8, 65088, Note_on_c, 4, 71, 0
8, 65088, Note_on_c, 4, 83, 0
8, 65088, Note_on_c, 4, 78, 127
8, 65088, Note_on_c, 4, 66, 127
8, 65184, Note_on_c, 4, 66, 0
8, 65184, Note_on_c, 4, 78, 0
8, 65184, Note_on_c, 4, 81, 127
8, 65184, Note_on_c, 4, 69, 127
8, 65234, Note_on_c, 4, 69, 0
8, 65255, Note_on_c, 4, 81, 0
8, 77184, Note_on_c, 4, 83, 127
8, 77184, Note_on_c, 4, 71, 127
8, 77376, Note_on_c, 4, 71, 0
8, 77376, Note_on_c, 4, 83, 0
8, 77376, Note_on_c, 4, 78, 127
8, 77376, Note_on_c, 4, 66, 127
8, 77472, Note_on_c, 4, 66, 0
8, 77472, Note_on_c, 4, 78, 0
8, 77472, Note_on_c, 4, 81, 127
8, 77472, Note_on_c, 4, 69, 127
8, 77522, Note_on_c, 4, 69, 0
8, 77543, Note_on_c, 4, 81, 0
8, 77664, Note_on_c, 4, 78, 127
8, 77664, Note_on_c, 4, 66, 127
8, 77713, Note_on_c, 4, 66, 0
8, 77713, Note_on_c, 4, 78, 0
8, 77856, Note_on_c, 4, 74, 127
8, 77856, Note_on_c, 4, 62, 127
8, 77900, Note_on_c, 4, 74, 0
8, 77918, Note_on_c, 4, 62, 0
8, 78048, Note_on_c, 4, 78, 127
8, 78048, Note_on_c, 4, 66, 127
8, 78129, Note_on_c, 4, 78, 0
8, 78135, Note_on_c, 4, 66, 0
8, 78144, Note_on_c, 4, 71, 127
8, 78144, Note_on_c, 4, 59, 127
8, 78198, Note_on_c, 4, 71, 0
8, 78199, Note_on_c, 4, 59, 0
8, 78336, Note_on_c, 4, 69, 127
8, 78336, Note_on_c, 4, 57, 127
8, 78422, Note_on_c, 4, 57, 0
8, 78425, Note_on_c, 4, 69, 0
8, 78432, Note_on_c, 4, 71, 127
8, 78432, Note_on_c, 4, 59, 127
8, 78496, Note_on_c, 4, 59, 0
8, 78500, Note_on_c, 4, 71, 0
8, 78528, Note_on_c, 4, 74, 127
8, 78528, Note_on_c, 4, 62, 127
8, 78599, Note_on_c, 4, 62, 0
8, 78599, Note_on_c, 4, 74, 0
8, 78720, Note_on_c, 4, 71, 127
8, 78720, Note_on_c, 4, 59, 127
8, 78970, Note_on_c, 4, 71, 0
8, 78983, Note_on_c, 4, 59, 0
8, 79008, Note_on_c, 4, 57, 127
8, 79008, Note_on_c, 4, 69, 127
8, 79092, Note_on_c, 4, 69, 0
8, 79092, Note_on_c, 4, 57, 0
8, 79104, Note_on_c, 4, 71, 127
8, 79104, Note_on_c, 4, 59, 127
8, 79143, Note_on_c, 4, 71, 0
8, 79144, Note_on_c, 4, 59, 0
8, 79200, Note_on_c, 4, 74, 127
8, 79200, Note_on_c, 4, 62, 127
8, 79245, Note_on_c, 4, 74, 0
8, 79249, Note_on_c, 4, 62, 0
8, 79392, Note_on_c, 4, 74, 127
8, 79392, Note_on_c, 4, 62, 127
8, 79559, Note_on_c, 4, 62, 0
8, 79560, Note_on_c, 4, 74, 0
8, 79584, Note_on_c, 4, 76, 127
8, 79584, Note_on_c, 4, 64, 127
8, 79658, Note_on_c, 4, 64, 0
8, 79665, Note_on_c, 4, 76, 0
8, 79680, Note_on_c, 4, 78, 127
8, 79680, Note_on_c, 4, 66, 127
8, 79730, Note_on_c, 4, 66, 0
8, 79734, Note_on_c, 4, 78, 0
8, 80256, Note_on_c, 4, 83, 127
8, 80256, Note_on_c, 4, 71, 127
8, 80448, Note_on_c, 4, 71, 0
8, 80448, Note_on_c, 4, 83, 0
8, 80448, Note_on_c, 4, 78, 127
8, 80448, Note_on_c, 4, 66, 127
8, 80544, Note_on_c, 4, 66, 0
8, 80544, Note_on_c, 4, 78, 0
8, 80544, Note_on_c, 4, 81, 127
8, 80544, Note_on_c, 4, 69, 127
8, 80594, Note_on_c, 4, 69, 0
8, 80615, Note_on_c, 4, 81, 0
8, 80736, Note_on_c, 4, 78, 127
8, 80736, Note_on_c, 4, 66, 127
8, 80785, Note_on_c, 4, 66, 0
8, 80785, Note_on_c, 4, 78, 0
8, 80928, Note_on_c, 4, 74, 127
8, 80928, Note_on_c, 4, 62, 127
8, 80972, Note_on_c, 4, 74, 0
8, 80990, Note_on_c, 4, 62, 0
8, 81120, Note_on_c, 4, 78, 127
8, 81120, Note_on_c, 4, 66, 127
8, 81201, Note_on_c, 4, 78, 0
8, 81207, Note_on_c, 4, 66, 0
8, 81216, Note_on_c, 4, 71, 127
8, 81216, Note_on_c, 4, 59, 127
8, 81270, Note_on_c, 4, 71, 0
8, 81271, Note_on_c, 4, 59, 0
8, 81408, Note_on_c, 4, 69, 127
8, 81408, Note_on_c, 4, 57, 127
8, 81494, Note_on_c, 4, 57, 0
8, 81497, Note_on_c, 4, 69, 0
8, 81504, Note_on_c, 4, 71, 127
8, 81504, Note_on_c, 4, 59, 127
8, 81568, Note_on_c, 4, 59, 0
8, 81572, Note_on_c, 4, 71, 0
8, 81600, Note_on_c, 4, 74, 127
8, 81600, Note_on_c, 4, 62, 127
8, 81671, Note_on_c, 4, 62, 0
8, 81671, Note_on_c, 4, 74, 0
8, 81792, Note_on_c, 4, 71, 127
8, 81792, Note_on_c, 4, 59, 127
8, 82042, Note_on_c, 4, 71, 0
8, 82055, Note_on_c, 4, 59, 0
8, 82080, Note_on_c, 4, 57, 127
8, 82080, Note_on_c, 4, 69, 127
8, 82164, Note_on_c, 4, 69, 0
8, 82164, Note_on_c, 4, 57, 0
8, 82176, Note_on_c, 4, 71, 127
8, 82176, Note_on_c, 4, 59, 127
8, 82215, Note_on_c, 4, 71, 0
8, 82216, Note_on_c, 4, 59, 0
8, 82272, Note_on_c, 4, 74, 127
8, 82272, Note_on_c, 4, 62, 127
8, 82317, Note_on_c, 4, 74, 0
8, 82321, Note_on_c, 4, 62, 0
8, 82464, Note_on_c, 4, 74, 127
8, 82464, Note_on_c, 4, 62, 127
8, 82631, Note_on_c, 4, 62, 0
8, 82632, Note_on_c, 4, 74, 0
8, 82656, Note_on_c, 4, 71, 127
8, 82656, Note_on_c, 4, 59, 127
8, 82730, Note_on_c, 4, 59, 0
8, 82737, Note_on_c, 4, 71, 0
8, 82752, Note_on_c, 4, 74, 127
8, 82752, Note_on_c, 4, 62, 127
8, 82802, Note_on_c, 4, 62, 0
8, 82806, Note_on_c, 4, 74, 0
8, 83328, Note_on_c, 4, 83, 127
8, 83328, Note_on_c, 4, 71, 127
8, 83520, Note_on_c, 4, 71, 0
8, 83520, Note_on_c, 4, 83, 0
8, 83520, Note_on_c, 4, 78, 127
8, 83520, Note_on_c, 4, 66, 127
8, 83550, Note_on_c, 4, 78, 0
8, 83568, Note_on_c, 4, 66, 0
8, 83616, Note_on_c, 4, 81, 127
8, 83616, Note_on_c, 4, 69, 127
8, 83666, Note_on_c, 4, 69, 0
8, 83687, Note_on_c, 4, 81, 0
8, 83808, Note_on_c, 4, 78, 127
8, 83808, Note_on_c, 4, 66, 127
8, 83857, Note_on_c, 4, 66, 0
8, 83857, Note_on_c, 4, 78, 0
8, 84000, Note_on_c, 4, 74, 127
8, 84000, Note_on_c, 4, 62, 127
8, 84044, Note_on_c, 4, 74, 0
8, 84062, Note_on_c, 4, 62, 0
8, 84192, Note_on_c, 4, 78, 127
8, 84192, Note_on_c, 4, 66, 127
8, 84273, Note_on_c, 4, 78, 0
8, 84279, Note_on_c, 4, 66, 0
8, 84288, Note_on_c, 4, 71, 127
8, 84288, Note_on_c, 4, 59, 127
8, 84342, Note_on_c, 4, 71, 0
8, 84343, Note_on_c, 4, 59, 0
8, 84480, Note_on_c, 4, 69, 127
8, 84480, Note_on_c, 4, 57, 127
8, 84566, Note_on_c, 4, 57, 0
8, 84569, Note_on_c, 4, 69, 0
8, 84576, Note_on_c, 4, 71, 127
8, 84576, Note_on_c, 4, 59, 127
8, 84640, Note_on_c, 4, 59, 0
8, 84644, Note_on_c, 4, 71, 0
8, 84672, Note_on_c, 4, 74, 127
8, 84672, Note_on_c, 4, 62, 127
8, 84743, Note_on_c, 4, 62, 0
8, 84743, Note_on_c, 4, 74, 0
8, 84864, Note_on_c, 4, 71, 127
8, 84864, Note_on_c, 4, 59, 127
8, 85114, Note_on_c, 4, 71, 0
8, 85127, Note_on_c, 4, 59, 0
8, 85152, Note_on_c, 4, 57, 127
8, 85152, Note_on_c, 4, 69, 127
8, 85236, Note_on_c, 4, 69, 0
8, 85236, Note_on_c, 4, 57, 0
8, 85248, Note_on_c, 4, 71, 127
8, 85248, Note_on_c, 4, 59, 127
8, 85287, Note_on_c, 4, 71, 0
8, 85288, Note_on_c, 4, 59, 0
8, 85344, Note_on_c, 4, 74, 127
8, 85344, Note_on_c, 4, 62, 127
8, 85389, Note_on_c, 4, 74, 0
8, 85393, Note_on_c, 4, 62, 0
8, 85536, Note_on_c, 4, 74, 127
8, 85536, Note_on_c, 4, 62, 127
8, 85703, Note_on_c, 4, 62, 0
8, 85704, Note_on_c, 4, 74, 0
8, 85728, Note_on_c, 4, 76, 127
8, 85728, Note_on_c, 4, 64, 127
8, 85802, Note_on_c, 4, 64, 0
8, 85809, Note_on_c, 4, 76, 0
8, 85824, Note_on_c, 4, 78, 127
8, 85824, Note_on_c, 4, 66, 127
8, 85874, Note_on_c, 4, 66, 0
8, 85878, Note_on_c, 4, 78, 0
8, 86400, Note_on_c, 4, 83, 127
8, 86400, Note_on_c, 4, 71, 127
8, 86592, Note_on_c, 4, 71, 0
8, 86592, Note_on_c, 4, 83, 0
8, 86592, Note_on_c, 4, 78, 127
8, 86592, Note_on_c, 4, 66, 127
8, 86688, Note_on_c, 4, 66, 0
8, 86688, Note_on_c, 4, 78, 0
8, 86688, Note_on_c, 4, 81, 127
8, 86688, Note_on_c, 4, 69, 127
8, 86736, Note_on_c, 4, 81, 0
8, 86738, Note_on_c, 4, 69, 0
8, 86880, Note_on_c, 4, 78, 127
8, 86880, Note_on_c, 4, 66, 127
8, 86929, Note_on_c, 4, 66, 0
8, 86929, Note_on_c, 4, 78, 0
8, 87072, Note_on_c, 4, 74, 127
8, 87072, Note_on_c, 4, 62, 127
8, 87116, Note_on_c, 4, 74, 0
8, 87134, Note_on_c, 4, 62, 0
8, 87264, Note_on_c, 4, 78, 127
8, 87264, Note_on_c, 4, 66, 127
8, 87345, Note_on_c, 4, 78, 0
8, 87351, Note_on_c, 4, 66, 0
8, 87360, Note_on_c, 4, 71, 127
8, 87360, Note_on_c, 4, 59, 127
8, 87414, Note_on_c, 4, 71, 0
8, 87415, Note_on_c, 4, 59, 0
8, 87552, Note_on_c, 4, 69, 127
8, 87552, Note_on_c, 4, 57, 127
8, 87638, Note_on_c, 4, 57, 0
8, 87641, Note_on_c, 4, 69, 0
8, 87648, Note_on_c, 4, 71, 127
8, 87648, Note_on_c, 4, 59, 127
8, 87712, Note_on_c, 4, 59, 0
8, 87716, Note_on_c, 4, 71, 0
8, 87744, Note_on_c, 4, 74, 127
8, 87744, Note_on_c, 4, 62, 127
8, 87815, Note_on_c, 4, 62, 0
8, 87815, Note_on_c, 4, 74, 0
8, 87936, Note_on_c, 4, 71, 127
8, 87936, Note_on_c, 4, 59, 127
8, 88186, Note_on_c, 4, 71, 0
8, 88199, Note_on_c, 4, 59, 0
8, 88224, Note_on_c, 4, 57, 127
8, 88224, Note_on_c, 4, 69, 127
8, 88308, Note_on_c, 4, 69, 0
8, 88308, Note_on_c, 4, 57, 0
8, 88320, Note_on_c, 4, 71, 127
8, 88320, Note_on_c, 4, 59, 127
8, 88359, Note_on_c, 4, 71, 0
8, 88360, Note_on_c, 4, 59, 0
8, 88416, Note_on_c, 4, 74, 127
8, 88416, Note_on_c, 4, 62, 127
8, 88461, Note_on_c, 4, 74, 0
8, 88465, Note_on_c, 4, 62, 0
8, 88608, Note_on_c, 4, 74, 127
8, 88608, Note_on_c, 4, 62, 127
8, 88775, Note_on_c, 4, 62, 0
8, 88776, Note_on_c, 4, 74, 0
8, 88800, Note_on_c, 4, 71, 127
8, 88800, Note_on_c, 4, 59, 127
8, 88874, Note_on_c, 4, 59, 0
8, 88881, Note_on_c, 4, 71, 0
8, 88896, Note_on_c, 4, 74, 127
8, 88896, Note_on_c, 4, 62, 127
8, 88946, Note_on_c, 4, 62, 0
8, 88950, Note_on_c, 4, 74, 0
8, 89472, Note_on_c, 4, 83, 127
8, 89472, Note_on_c, 4, 71, 127
8, 89664, Note_on_c, 4, 71, 0
8, 89664, Note_on_c, 4, 83, 0
8, 89664, Note_on_c, 4, 78, 127
8, 89664, Note_on_c, 4, 66, 127
8, 89760, Note_on_c, 4, 66, 0
8, 89760, Note_on_c, 4, 78, 0
8, 89760, Note_on_c, 4, 81, 127
8, 89760, Note_on_c, 4, 69, 127
8, 89810, Note_on_c, 4, 69, 0
8, 89831, Note_on_c, 4, 81, 0
8, 89952, Note_on_c, 4, 78, 127
8, 89952, Note_on_c, 4, 66, 127
8, 90001, Note_on_c, 4, 66, 0
8, 90001, Note_on_c, 4, 78, 0
8, 90144, Note_on_c, 4, 74, 127
8, 90144, Note_on_c, 4, 62, 127
8, 90188, Note_on_c, 4, 74, 0
8, 90206, Note_on_c, 4, 62, 0
8, 90336, Note_on_c, 4, 78, 127
8, 90336, Note_on_c, 4, 66, 127
8, 90417, Note_on_c, 4, 78, 0
8, 90423, Note_on_c, 4, 66, 0
8, 90432, Note_on_c, 4, 71, 127
8, 90432, Note_on_c, 4, 59, 127
8, 90486, Note_on_c, 4, 71, 0
8, 90487, Note_on_c, 4, 59, 0
8, 90624, Note_on_c, 4, 69, 127
8, 90624, Note_on_c, 4, 57, 127
8, 90710, Note_on_c, 4, 57, 0
8, 90713, Note_on_c, 4, 69, 0
8, 90720, Note_on_c, 4, 71, 127
8, 90720, Note_on_c, 4, 59, 127
8, 90784, Note_on_c, 4, 59, 0
8, 90788, Note_on_c, 4, 71, 0
8, 90816, Note_on_c, 4, 74, 127
8, 90816, Note_on_c, 4, 62, 127
8, 90887, Note_on_c, 4, 62, 0
8, 90887, Note_on_c, 4, 74, 0
8, 91008, Note_on_c, 4, 71, 127
8, 91008, Note_on_c, 4, 59, 127
8, 91200, Note_on_c, 4, 59, 0
8, 91200, Note_on_c, 4, 71, 0
8, 91200, Note_on_c, 4, 69, 127
8, 91200, Note_on_c, 4, 57, 127
8, 91284, Note_on_c, 4, 57, 0
8, 91284, Note_on_c, 4, 69, 0
8, 91296, Note_on_c, 4, 71, 127
8, 91296, Note_on_c, 4, 59, 127
8, 91368, Note_on_c, 4, 59, 0
8, 91368, Note_on_c, 4, 71, 0
8, 92158, Control_c, 4, 123, 0
8, 92158, End_track
9, 0, Start_track
9, 0, MIDI_port, 0
9, 0, Control_c, 5, 121, 0
9, 2, Control_c, 5, 67, 0
9, 3, Control_c, 5, 64, 0
9, 4, Control_c, 5, 100, 0
9, 5, Control_c, 5, 101, 0
9, 6, Control_c, 5, 6, 12
9, 7, Control_c, 5, 11, 127
9, 8, Control_c, 5, 1, 0
9, 10, Control_c, 5, 11, 127
9, 12, Pitch_bend_c, 5, 8192
9, 217, Control_c, 5, 0, 0
9, 218, Control_c, 5, 32, 0
9, 219, Program_c, 5, 18
9, 220, Control_c, 5, 7, 88
9, 220, Control_c, 5, 10, 64
9, 584, Control_c, 5, 11, 127
9, 586, Control_c, 5, 91, 44
9, 588, Control_c, 5, 93, 70
9, 21792, Note_on_c, 5, 78, 100
9, 21792, Note_on_c, 5, 77, 100
9, 21808, Note_on_c, 5, 77, 0
9, 21832, Note_on_c, 5, 78, 0
9, 21984, Note_on_c, 5, 76, 100
9, 22058, Note_on_c, 5, 76, 0
9, 22176, Note_on_c, 5, 74, 100
9, 22176, Note_on_c, 5, 76, 100
9, 22410, Note_on_c, 5, 76, 0
9, 22464, Note_on_c, 5, 74, 100
9, 22481, Note_on_c, 5, 74, 0
9, 22752, Note_on_c, 5, 74, 0
9, 23232, Note_on_c, 5, 69, 100
9, 23252, Note_on_c, 5, 69, 0
9, 23328, Note_on_c, 5, 71, 100
9, 23347, Note_on_c, 5, 71, 0
9, 23424, Note_on_c, 5, 74, 100
9, 23560, Note_on_c, 5, 74, 0
9, 23616, Note_on_c, 5, 71, 100
9, 23629, Note_on_c, 5, 71, 0
9, 23712, Note_on_c, 5, 76, 100
9, 23712, Note_on_c, 5, 74, 100
9, 23715, Note_on_c, 5, 74, 0
9, 23844, Note_on_c, 5, 76, 0
9, 23904, Note_on_c, 5, 71, 100
9, 23943, Note_on_c, 5, 71, 0
9, 24864, Note_on_c, 5, 83, 100
9, 24864, Note_on_c, 5, 81, 100
9, 24887, Note_on_c, 5, 81, 0
9, 24990, Note_on_c, 5, 83, 0
9, 25056, Note_on_c, 5, 78, 100
9, 25100, Note_on_c, 5, 78, 0
9, 25248, Note_on_c, 5, 76, 100
9, 25248, Note_on_c, 5, 76, 0
9, 25248, Note_on_c, 5, 76, 100
9, 25248, Note_on_c, 5, 76, 100
9, 25258, Note_on_c, 5, 76, 0
9, 25440, Note_on_c, 5, 76, 100
9, 25536, Note_on_c, 5, 76, 0
9, 25536, Note_on_c, 5, 74, 100
9, 25565, Note_on_c, 5, 74, 0
9, 25632, Note_on_c, 5, 76, 100
9, 25801, Note_on_c, 5, 76, 0
9, 25824, Note_on_c, 5, 78, 100
9, 25865, Note_on_c, 5, 78, 0
9, 26304, Note_on_c, 5, 69, 100
9, 26320, Note_on_c, 5, 69, 0
9, 26400, Note_on_c, 5, 71, 100
9, 26423, Note_on_c, 5, 71, 0
9, 26496, Note_on_c, 5, 74, 100
9, 26642, Note_on_c, 5, 74, 0
9, 26688, Note_on_c, 5, 71, 100
9, 26721, Note_on_c, 5, 71, 0
9, 26784, Note_on_c, 5, 76, 100
9, 26817, Note_on_c, 5, 76, 0
9, 26976, Note_on_c, 5, 71, 100
9, 27021, Note_on_c, 5, 71, 0
9, 27936, Note_on_c, 5, 81, 100
9, 27951, Note_on_c, 5, 81, 0
9, 28032, Note_on_c, 5, 83, 100
9, 28080, Note_on_c, 5, 83, 0
9, 28128, Note_on_c, 5, 86, 100
9, 28300, Note_on_c, 5, 86, 0
9, 28320, Note_on_c, 5, 90, 100
9, 28329, Note_on_c, 5, 90, 0
9, 29376, Note_on_c, 5, 69, 100
9, 29390, Note_on_c, 5, 69, 0
9, 29472, Note_on_c, 5, 71, 100
9, 29507, Note_on_c, 5, 71, 0
9, 29568, Note_on_c, 5, 74, 100
9, 29747, Note_on_c, 5, 74, 0
9, 29760, Note_on_c, 5, 71, 100
9, 29778, Note_on_c, 5, 71, 0
9, 29856, Note_on_c, 5, 76, 100
9, 29906, Note_on_c, 5, 76, 0
9, 30048, Note_on_c, 5, 71, 100
9, 30087, Note_on_c, 5, 71, 0
9, 31008, Note_on_c, 5, 83, 100
9, 31008, Note_on_c, 5, 81, 100
9, 31033, Note_on_c, 5, 81, 0
9, 31057, Note_on_c, 5, 83, 0
9, 31200, Note_on_c, 5, 81, 100
9, 31244, Note_on_c, 5, 81, 0
9, 31392, Note_on_c, 5, 76, 100
9, 31392, Note_on_c, 5, 78, 100
9, 31401, Note_on_c, 5, 76, 0
9, 31475, Note_on_c, 5, 78, 0
9, 31584, Note_on_c, 5, 76, 100
9, 31656, Note_on_c, 5, 76, 0
9, 31680, Note_on_c, 5, 74, 100
9, 31703, Note_on_c, 5, 74, 0
9, 31776, Note_on_c, 5, 74, 100
9, 31821, Note_on_c, 5, 74, 0
9, 31872, Note_on_c, 5, 76, 100
9, 31968, Note_on_c, 5, 78, 100
9, 32000, Note_on_c, 5, 76, 0
9, 32010, Note_on_c, 5, 78, 0
9, 32448, Note_on_c, 5, 69, 100
9, 32479, Note_on_c, 5, 69, 0
9, 32544, Note_on_c, 5, 71, 100
9, 32576, Note_on_c, 5, 71, 0
9, 32640, Note_on_c, 5, 74, 100
9, 32773, Note_on_c, 5, 74, 0
9, 32832, Note_on_c, 5, 71, 100
9, 32859, Note_on_c, 5, 71, 0
9, 32928, Note_on_c, 5, 76, 100
9, 32928, Note_on_c, 5, 74, 100
9, 32930, Note_on_c, 5, 74, 0
9, 32983, Note_on_c, 5, 76, 0
9, 33120, Note_on_c, 5, 71, 100
9, 33181, Note_on_c, 5, 71, 0
9, 33408, Note_on_c, 5, 71, 100
9, 33549, Note_on_c, 5, 71, 0
9, 33600, Note_on_c, 5, 69, 100
9, 33665, Note_on_c, 5, 69, 0
9, 33696, Note_on_c, 5, 71, 100
9, 33741, Note_on_c, 5, 71, 0
9, 40224, Note_on_c, 5, 78, 100
9, 40224, Note_on_c, 5, 77, 100
9, 40240, Note_on_c, 5, 77, 0
9, 40264, Note_on_c, 5, 78, 0
9, 40416, Note_on_c, 5, 76, 100
9, 40490, Note_on_c, 5, 76, 0
9, 40608, Note_on_c, 5, 74, 100
9, 40608, Note_on_c, 5, 76, 100
9, 40658, Note_on_c, 5, 74, 0
9, 40800, Note_on_c, 5, 76, 0
9, 40800, Note_on_c, 5, 74, 100
9, 40817, Note_on_c, 5, 74, 0
9, 41664, Note_on_c, 5, 69, 100
9, 41684, Note_on_c, 5, 69, 0
9, 41760, Note_on_c, 5, 71, 100
9, 41779, Note_on_c, 5, 71, 0
9, 41856, Note_on_c, 5, 74, 100
9, 41992, Note_on_c, 5, 74, 0
9, 42048, Note_on_c, 5, 71, 100
9, 42061, Note_on_c, 5, 71, 0
9, 42144, Note_on_c, 5, 76, 100
9, 42144, Note_on_c, 5, 74, 100
9, 42147, Note_on_c, 5, 74, 0
9, 42276, Note_on_c, 5, 76, 0
9, 42336, Note_on_c, 5, 71, 100
9, 42375, Note_on_c, 5, 71, 0
9, 43296, Note_on_c, 5, 83, 100
9, 43296, Note_on_c, 5, 81, 100
9, 43319, Note_on_c, 5, 81, 0
9, 43422, Note_on_c, 5, 83, 0
9, 43488, Note_on_c, 5, 78, 100
9, 43532, Note_on_c, 5, 78, 0
9, 43680, Note_on_c, 5, 76, 0
9, 43680, Note_on_c, 5, 76, 100
9, 43680, Note_on_c, 5, 76, 100
9, 43690, Note_on_c, 5, 76, 0
9, 43872, Note_on_c, 5, 76, 100
9, 43968, Note_on_c, 5, 76, 0
9, 43968, Note_on_c, 5, 74, 100
9, 43997, Note_on_c, 5, 74, 0
9, 44064, Note_on_c, 5, 76, 100
9, 44233, Note_on_c, 5, 76, 0
9, 44256, Note_on_c, 5, 78, 100
9, 44297, Note_on_c, 5, 78, 0
9, 44736, Note_on_c, 5, 69, 100
9, 44752, Note_on_c, 5, 69, 0
9, 44832, Note_on_c, 5, 71, 100
9, 44855, Note_on_c, 5, 71, 0
9, 44928, Note_on_c, 5, 74, 100
9, 45074, Note_on_c, 5, 74, 0
9, 45120, Note_on_c, 5, 71, 100
9, 45153, Note_on_c, 5, 71, 0
9, 45216, Note_on_c, 5, 76, 100
9, 45249, Note_on_c, 5, 76, 0
9, 45408, Note_on_c, 5, 71, 100
9, 45453, Note_on_c, 5, 71, 0
9, 46368, Note_on_c, 5, 81, 100
9, 46383, Note_on_c, 5, 81, 0
9, 46464, Note_on_c, 5, 83, 100
9, 46560, Note_on_c, 5, 83, 0
9, 46560, Note_on_c, 5, 86, 100
9, 46732, Note_on_c, 5, 86, 0
9, 46752, Note_on_c, 5, 90, 100
9, 46761, Note_on_c, 5, 90, 0
9, 47808, Note_on_c, 5, 69, 100
9, 47822, Note_on_c, 5, 69, 0
9, 47904, Note_on_c, 5, 71, 100
9, 47939, Note_on_c, 5, 71, 0
9, 48000, Note_on_c, 5, 74, 100
9, 48179, Note_on_c, 5, 74, 0
9, 48192, Note_on_c, 5, 71, 100
9, 48210, Note_on_c, 5, 71, 0
9, 48288, Note_on_c, 5, 74, 100
9, 48288, Note_on_c, 5, 76, 100
9, 48336, Note_on_c, 5, 74, 0
9, 48338, Note_on_c, 5, 76, 0
9, 48480, Note_on_c, 5, 71, 100
9, 48519, Note_on_c, 5, 71, 0
9, 49440, Note_on_c, 5, 83, 100
9, 49440, Note_on_c, 5, 81, 100
9, 49465, Note_on_c, 5, 81, 0
9, 49489, Note_on_c, 5, 83, 0
9, 49632, Note_on_c, 5, 81, 100
9, 49676, Note_on_c, 5, 81, 0
9, 49824, Note_on_c, 5, 78, 100
9, 49824, Note_on_c, 5, 76, 100
9, 49833, Note_on_c, 5, 76, 0
9, 49907, Note_on_c, 5, 78, 0
9, 50016, Note_on_c, 5, 76, 100
9, 50088, Note_on_c, 5, 76, 0
9, 50112, Note_on_c, 5, 74, 100
9, 50135, Note_on_c, 5, 74, 0
9, 50208, Note_on_c, 5, 74, 100
9, 50253, Note_on_c, 5, 74, 0
9, 50304, Note_on_c, 5, 76, 100
9, 50400, Note_on_c, 5, 78, 100
9, 50432, Note_on_c, 5, 76, 0
9, 50442, Note_on_c, 5, 78, 0
9, 50880, Note_on_c, 5, 69, 100
9, 50911, Note_on_c, 5, 69, 0
9, 50976, Note_on_c, 5, 71, 100
9, 51008, Note_on_c, 5, 71, 0
9, 51072, Note_on_c, 5, 74, 100
9, 51205, Note_on_c, 5, 74, 0
9, 51264, Note_on_c, 5, 71, 100
9, 51291, Note_on_c, 5, 71, 0
9, 51360, Note_on_c, 5, 76, 100
9, 51360, Note_on_c, 5, 74, 100
9, 51362, Note_on_c, 5, 74, 0
9, 51415, Note_on_c, 5, 76, 0
9, 51552, Note_on_c, 5, 71, 100
9, 51613, Note_on_c, 5, 71, 0
9, 51840, Note_on_c, 5, 71, 100
9, 51981, Note_on_c, 5, 71, 0
9, 52032, Note_on_c, 5, 69, 100
9, 52097, Note_on_c, 5, 69, 0
9, 52128, Note_on_c, 5, 71, 100
9, 52173, Note_on_c, 5, 71, 0
9, 92158, Note_on_c, 5, 76, 0
9, 92158, Control_c, 5, 123, 0
9, 92158, End_track
0, 0, End_of_file
