0, 0, Header, 1, 10, 192
1, 0, Start_track
1, 0, Time_signature, 4, 2, 24, 8
1, 0, Tempo, 508474
1, 0, End_track
2, 0, Start_track
2, 0, Channel_prefix, 0
2, 0, Text_t, "melody  "
2, 192, Text_t, "melody"
2, 5169, Note_on_c, 0, 69, 127
2, 5240, Note_on_c, 0, 69, 0
2, 5256, Note_on_c, 0, 72, 127
2, 5327, Note_on_c, 0, 72, 0
2, 5376, Note_on_c, 0, 76, 127
2, 5377, Channel_aftertouch_c, 0, 3
2, 5413, Channel_aftertouch_c, 0, 0
2, 5449, Note_on_c, 0, 76, 0
2, 5498, Note_on_c, 0, 76, 127
2, 5508, Channel_aftertouch_c, 0, 1
2, 6103, Note_on_c, 0, 76, 0
2, 7292, Note_on_c, 0, 70, 127
2, 7366, Note_on_c, 0, 70, 0
2, 7372, Note_on_c, 0, 72, 119
2, 7427, Note_on_c, 0, 72, 0
2, 7477, Note_on_c, 0, 72, 127
2, 7512, Channel_aftertouch_c, 0, 0
2, 7538, Note_on_c, 0, 72, 0
2, 7563, Note_on_c, 0, 70, 123
2, 7618, Note_on_c, 0, 70, 0
2, 7663, Note_on_c, 0, 76, 124
2, 7934, Note_on_c, 0, 76, 0
2, 7954, Note_on_c, 0, 70, 119
2, 8024, Note_on_c, 0, 70, 0
2, 8040, Note_on_c, 0, 72, 127
2, 8090, Note_on_c, 0, 72, 0
2, 8140, Note_on_c, 0, 72, 127
2, 8171, Channel_aftertouch_c, 0, 0
2, 8226, Note_on_c, 0, 72, 0
2, 8350, Note_on_c, 0, 72, 127
2, 8355, Channel_aftertouch_c, 0, 0
2, 8381, Channel_aftertouch_c, 0, 0
2, 8548, Channel_aftertouch_c, 0, 0
2, 8745, Channel_aftertouch_c, 0, 0
2, 8956, Note_on_c, 0, 72, 0
2, 11109, Note_on_c, 0, 79, 127
2, 11130, Channel_aftertouch_c, 0, 10
2, 11158, Note_on_c, 0, 79, 0
2, 11163, Channel_aftertouch_c, 0, 0
2, 11213, Note_on_c, 0, 79, 127
2, 11240, Channel_aftertouch_c, 0, 15
2, 11271, Channel_aftertouch_c, 0, 2
2, 11297, Channel_aftertouch_c, 0, 0
2, 11440, Note_on_c, 0, 79, 0
2, 11509, Note_on_c, 0, 77, 127
2, 11544, Channel_aftertouch_c, 0, 0
2, 11590, Note_on_c, 0, 77, 0
2, 11595, Note_on_c, 0, 75, 111
2, 11660, Note_on_c, 0, 75, 0
2, 11685, Note_on_c, 0, 72, 126
2, 11721, Channel_aftertouch_c, 0, 0
2, 11732, Note_on_c, 0, 72, 0
2, 11786, Note_on_c, 0, 72, 127
2, 11808, Channel_aftertouch_c, 0, 11
2, 11834, Channel_aftertouch_c, 0, 8
2, 11860, Channel_aftertouch_c, 0, 0
2, 11886, Note_on_c, 0, 72, 0
2, 11961, Note_on_c, 0, 75, 127
2, 12177, Note_on_c, 0, 75, 0
2, 13242, Note_on_c, 0, 75, 127
2, 13307, Note_on_c, 0, 75, 0
2, 13322, Note_on_c, 0, 77, 124
2, 13357, Channel_aftertouch_c, 0, 0
2, 13378, Note_on_c, 0, 77, 0
2, 13433, Note_on_c, 0, 77, 127
2, 13448, Channel_aftertouch_c, 0, 0
2, 13474, Channel_aftertouch_c, 0, 0
2, 13499, Note_on_c, 0, 77, 0
2, 13515, Note_on_c, 0, 75, 123
2, 13584, Note_on_c, 0, 75, 0
2, 13639, Note_on_c, 0, 79, 127
2, 13665, Channel_aftertouch_c, 0, 6
2, 13692, Channel_aftertouch_c, 0, 0
2, 13981, Note_on_c, 0, 79, 0
2, 14002, Note_on_c, 0, 72, 126
2, 14052, Note_on_c, 0, 72, 0
2, 14097, Note_on_c, 0, 72, 110
2, 14137, Note_on_c, 0, 72, 0
2, 14197, Note_on_c, 0, 72, 127
2, 14222, Channel_aftertouch_c, 0, 0
2, 14233, Note_on_c, 0, 72, 0
2, 14303, Note_on_c, 0, 72, 127
2, 14323, Channel_aftertouch_c, 0, 3
2, 14349, Channel_aftertouch_c, 0, 0
2, 14395, Note_on_c, 0, 72, 0
2, 14494, Note_on_c, 0, 72, 127
2, 14499, Channel_aftertouch_c, 0, 0
2, 14526, Channel_aftertouch_c, 0, 7
2, 14552, Channel_aftertouch_c, 0, 0
2, 14587, Channel_aftertouch_c, 0, 2
2, 14774, Channel_aftertouch_c, 0, 0
2, 15077, Note_on_c, 0, 72, 0
2, 16906, Channel_aftertouch_c, 0, 0
2, 16932, Channel_aftertouch_c, 0, 0
2, 17480, Note_on_c, 0, 77, 127
2, 17495, Channel_aftertouch_c, 0, 2
2, 17522, Channel_aftertouch_c, 0, 0
2, 17547, Note_on_c, 0, 77, 0
2, 17553, Note_on_c, 0, 75, 119
2, 17608, Note_on_c, 0, 75, 0
2, 17658, Note_on_c, 0, 77, 127
2, 17678, Channel_aftertouch_c, 0, 4
2, 17704, Channel_aftertouch_c, 0, 0
2, 17739, Note_on_c, 0, 77, 0
2, 17745, Note_on_c, 0, 75, 119
2, 17805, Note_on_c, 0, 75, 0
2, 17841, Note_on_c, 0, 77, 127
2, 17850, Channel_aftertouch_c, 0, 1
2, 17878, Channel_aftertouch_c, 0, 0
2, 17879, Note_on_c, 0, 77, 0
2, 17938, Note_on_c, 0, 77, 127
2, 17964, Channel_aftertouch_c, 0, 6
2, 17990, Channel_aftertouch_c, 0, 0
2, 18134, Note_on_c, 0, 75, 116
2, 18134, Note_on_c, 0, 77, 0
2, 18204, Note_on_c, 0, 75, 0
2, 18219, Note_on_c, 0, 79, 127
2, 18245, Channel_aftertouch_c, 0, 7
2, 18277, Channel_aftertouch_c, 0, 0
2, 18312, Channel_aftertouch_c, 0, 1
2, 18362, Channel_aftertouch_c, 0, 0
2, 18568, Note_on_c, 0, 79, 0
2, 19398, Note_on_c, 0, 82, 127
2, 19663, Note_on_c, 0, 82, 0
2, 19669, Note_on_c, 0, 75, 102
2, 19753, Note_on_c, 0, 75, 0
2, 19759, Note_on_c, 0, 77, 109
2, 19834, Note_on_c, 0, 77, 0
2, 19845, Note_on_c, 0, 75, 98
2, 19924, Note_on_c, 0, 75, 0
2, 19944, Note_on_c, 0, 77, 124
2, 20019, Note_on_c, 0, 77, 0
2, 20030, Note_on_c, 0, 75, 81
2, 20104, Note_on_c, 0, 75, 0
2, 20130, Note_on_c, 0, 77, 127
2, 20145, Channel_aftertouch_c, 0, 0
2, 20171, Channel_aftertouch_c, 0, 0
2, 20201, Note_on_c, 0, 77, 0
2, 20217, Note_on_c, 0, 75, 74
2, 20258, Note_on_c, 0, 75, 0
2, 20312, Note_on_c, 0, 77, 127
2, 20338, Channel_aftertouch_c, 0, 4
2, 20364, Channel_aftertouch_c, 0, 0
2, 20404, Note_on_c, 0, 77, 0
2, 20498, Note_on_c, 0, 77, 127
2, 20519, Channel_aftertouch_c, 0, 3
2, 20545, Channel_aftertouch_c, 0, 0
2, 20590, Note_on_c, 0, 77, 0
2, 20698, Note_on_c, 0, 76, 127
2, 20708, Channel_aftertouch_c, 0, 0
2, 20734, Channel_aftertouch_c, 0, 0
2, 20916, Note_on_c, 0, 76, 0
2, 20927, Note_on_c, 0, 72, 113
2, 20957, Note_on_c, 0, 72, 0
2, 21016, Note_on_c, 0, 72, 127
2, 21038, Channel_aftertouch_c, 0, 6
2, 21069, Channel_aftertouch_c, 0, 0
2, 21119, Channel_aftertouch_c, 0, 2
2, 21159, Channel_aftertouch_c, 0, 5
2, 21215, Channel_aftertouch_c, 0, 8
2, 21259, Channel_aftertouch_c, 0, 10
2, 21284, Channel_aftertouch_c, 0, 11
2, 21324, Channel_aftertouch_c, 0, 12
2, 21422, Channel_aftertouch_c, 0, 13
2, 21456, Channel_aftertouch_c, 0, 11
2, 21482, Channel_aftertouch_c, 0, 8
2, 21624, Channel_aftertouch_c, 0, 9
2, 21650, Channel_aftertouch_c, 0, 13
2, 21739, Channel_aftertouch_c, 0, 14
2, 21803, Channel_aftertouch_c, 0, 16
2, 21833, Channel_aftertouch_c, 0, 18
2, 21858, Channel_aftertouch_c, 0, 17
2, 21903, Channel_aftertouch_c, 0, 18
2, 21953, Channel_aftertouch_c, 0, 12
2, 22028, Channel_aftertouch_c, 0, 10
2, 22054, Channel_aftertouch_c, 0, 0
2, 22060, Note_on_c, 0, 72, 0
2, 23808, Note_on_c, 0, 75, 123
2, 23868, Note_on_c, 0, 75, 0
2, 23899, Note_on_c, 0, 75, 119
2, 23929, Channel_aftertouch_c, 0, 0
2, 23940, Note_on_c, 0, 75, 0
2, 23990, Note_on_c, 0, 75, 123
2, 24040, Note_on_c, 0, 75, 0
2, 24090, Note_on_c, 0, 75, 119
2, 24126, Channel_aftertouch_c, 0, 0
2, 24146, Note_on_c, 0, 75, 0
2, 24201, Note_on_c, 0, 75, 127
2, 24324, Note_on_c, 0, 75, 0
2, 24369, Note_on_c, 0, 72, 119
2, 24473, Note_on_c, 0, 72, 0
2, 24566, Note_on_c, 0, 72, 127
2, 24646, Note_on_c, 0, 72, 0
2, 24652, Note_on_c, 0, 70, 93
2, 24736, Note_on_c, 0, 70, 0
2, 24751, Note_on_c, 0, 72, 119
2, 24850, Note_on_c, 0, 72, 0
2, 24856, Note_on_c, 0, 70, 111
2, 25024, Note_on_c, 0, 72, 127
2, 25035, Note_on_c, 0, 70, 0
2, 25040, Channel_aftertouch_c, 0, 0
2, 25066, Channel_aftertouch_c, 0, 0
2, 25071, Note_on_c, 0, 72, 0
2, 26868, Note_on_c, 0, 75, 127
2, 26952, Note_on_c, 0, 75, 0
2, 26968, Note_on_c, 0, 75, 113
2, 27043, Note_on_c, 0, 75, 0
2, 27063, Note_on_c, 0, 75, 102
2, 27128, Note_on_c, 0, 75, 0
2, 27149, Note_on_c, 0, 75, 102
2, 27218, Note_on_c, 0, 75, 0
2, 27263, Note_on_c, 0, 75, 108
2, 27382, Note_on_c, 0, 75, 0
2, 27432, Note_on_c, 0, 72, 106
2, 27546, Note_on_c, 0, 72, 0
2, 27640, Note_on_c, 0, 72, 124
2, 27715, Note_on_c, 0, 72, 0
2, 27730, Note_on_c, 0, 70, 82
2, 27810, Note_on_c, 0, 70, 0
2, 27825, Note_on_c, 0, 72, 117
2, 27969, Note_on_c, 0, 72, 0
2, 28019, Note_on_c, 0, 70, 113
2, 28108, Note_on_c, 0, 70, 0
2, 28114, Note_on_c, 0, 72, 126
2, 28155, Channel_aftertouch_c, 0, 0
2, 28205, Note_on_c, 0, 72, 0
2, 29943, Note_on_c, 0, 77, 124
2, 30018, Note_on_c, 0, 77, 0
2, 30028, Note_on_c, 0, 75, 87
2, 30118, Note_on_c, 0, 75, 0
2, 30133, Note_on_c, 0, 77, 121
2, 30212, Note_on_c, 0, 77, 0
2, 30223, Note_on_c, 0, 75, 113
2, 30283, Note_on_c, 0, 75, 0
2, 30348, Note_on_c, 0, 79, 121
2, 30428, Note_on_c, 0, 77, 124
2, 30433, Note_on_c, 0, 79, 0
2, 30448, Channel_aftertouch_c, 0, 0
2, 30483, Channel_aftertouch_c, 0, 0
2, 30523, Note_on_c, 0, 77, 0
2, 30710, Note_on_c, 0, 77, 127
2, 30769, Note_on_c, 0, 77, 0
2, 30794, Note_on_c, 0, 77, 98
2, 30859, Note_on_c, 0, 77, 0
2, 30899, Note_on_c, 0, 75, 119
2, 30988, Note_on_c, 0, 75, 0
2, 31082, Note_on_c, 0, 72, 126
2, 31210, Note_on_c, 0, 72, 0
2, 31284, Note_on_c, 0, 72, 127
2, 31364, Note_on_c, 0, 72, 0
2, 33019, Note_on_c, 0, 75, 127
2, 33094, Note_on_c, 0, 75, 0
2, 33114, Note_on_c, 0, 75, 111
2, 33170, Note_on_c, 0, 75, 0
2, 33215, Note_on_c, 0, 75, 108
2, 33260, Note_on_c, 0, 75, 0
2, 33295, Note_on_c, 0, 75, 100
2, 33336, Note_on_c, 0, 75, 0
2, 33410, Note_on_c, 0, 75, 116
2, 33558, Note_on_c, 0, 75, 0
2, 33588, Note_on_c, 0, 72, 99
2, 33658, Note_on_c, 0, 72, 0
2, 33791, Note_on_c, 0, 72, 124
2, 33861, Note_on_c, 0, 72, 0
2, 33872, Note_on_c, 0, 70, 69
2, 33951, Note_on_c, 0, 70, 0
2, 33972, Note_on_c, 0, 72, 112
2, 34061, Note_on_c, 0, 72, 0
2, 34081, Note_on_c, 0, 70, 96
2, 34254, Note_on_c, 0, 72, 124
2, 34265, Note_on_c, 0, 70, 0
2, 34275, Channel_aftertouch_c, 0, 1
2, 34300, Channel_aftertouch_c, 0, 0
2, 34326, Note_on_c, 0, 72, 0
2, 36088, Note_on_c, 0, 77, 127
2, 36162, Note_on_c, 0, 77, 0
2, 36173, Note_on_c, 0, 75, 87
2, 36253, Note_on_c, 0, 75, 0
2, 36273, Note_on_c, 0, 77, 126
2, 36309, Channel_aftertouch_c, 0, 0
2, 36383, Note_on_c, 0, 77, 0
2, 36472, Note_on_c, 0, 77, 127
2, 36600, Note_on_c, 0, 77, 0
2, 36655, Note_on_c, 0, 75, 123
2, 36739, Note_on_c, 0, 75, 0
2, 36760, Note_on_c, 0, 79, 127
2, 36780, Channel_aftertouch_c, 0, 2
2, 36806, Channel_aftertouch_c, 0, 0
2, 36841, Channel_aftertouch_c, 0, 0
2, 36857, Note_on_c, 0, 79, 0
2, 36917, Note_on_c, 0, 79, 127
2, 36943, Channel_aftertouch_c, 0, 2
2, 36968, Channel_aftertouch_c, 0, 0
2, 37017, Channel_aftertouch_c, 0, 1
2, 37042, Channel_aftertouch_c, 0, 3
2, 37069, Channel_aftertouch_c, 0, 7
2, 37095, Channel_aftertouch_c, 0, 11
2, 37120, Channel_aftertouch_c, 0, 14
2, 37146, Channel_aftertouch_c, 0, 17
2, 37176, Channel_aftertouch_c, 0, 19
2, 37215, Channel_aftertouch_c, 0, 20
2, 37245, Channel_aftertouch_c, 0, 21
2, 37319, Channel_aftertouch_c, 0, 20
2, 37354, Channel_aftertouch_c, 0, 18
2, 37394, Channel_aftertouch_c, 0, 15
2, 37429, Channel_aftertouch_c, 0, 13
2, 37455, Channel_aftertouch_c, 0, 10
2, 37514, Channel_aftertouch_c, 0, 8
2, 37555, Channel_aftertouch_c, 0, 0
2, 37561, Note_on_c, 0, 79, 0
2, 37812, Note_on_c, 0, 77, 127
2, 37848, Note_on_c, 0, 77, 0
2, 37902, Note_on_c, 0, 77, 121
2, 37932, Note_on_c, 0, 77, 0
2, 38001, Note_on_c, 0, 77, 117
2, 38076, Note_on_c, 0, 77, 0
2, 38087, Note_on_c, 0, 75, 83
2, 38166, Note_on_c, 0, 75, 0
2, 38182, Note_on_c, 0, 79, 117
2, 38247, Note_on_c, 0, 79, 0
2, 38394, Note_on_c, 0, 77, 127
2, 38473, Note_on_c, 0, 77, 0
2, 38484, Note_on_c, 0, 75, 80
2, 38558, Note_on_c, 0, 75, 0
2, 38579, Note_on_c, 0, 77, 110
2, 38653, Note_on_c, 0, 77, 0
2, 38684, Note_on_c, 0, 79, 100
2, 38729, Note_on_c, 0, 79, 0
2, 38778, Note_on_c, 0, 79, 126
2, 38799, Channel_aftertouch_c, 0, 1
2, 38825, Channel_aftertouch_c, 0, 0
2, 38914, Note_on_c, 0, 79, 0
2, 38974, Note_on_c, 0, 77, 127
2, 39039, Note_on_c, 0, 77, 0
2, 39069, Note_on_c, 0, 76, 124
2, 39089, Channel_aftertouch_c, 0, 1
2, 39129, Channel_aftertouch_c, 0, 2
2, 39156, Channel_aftertouch_c, 0, 8
2, 39182, Channel_aftertouch_c, 0, 12
2, 39236, Channel_aftertouch_c, 0, 10
2, 39268, Channel_aftertouch_c, 0, 6
2, 39294, Channel_aftertouch_c, 0, 0
2, 39300, Note_on_c, 0, 72, 119
2, 39300, Note_on_c, 0, 76, 0
2, 39317, Channel_aftertouch_c, 0, 0
2, 39343, Channel_aftertouch_c, 0, 0
2, 39393, Channel_aftertouch_c, 0, 2
2, 39457, Channel_aftertouch_c, 0, 0
2, 39507, Channel_aftertouch_c, 0, 0
2, 39566, Channel_aftertouch_c, 0, 0
2, 39934, Note_on_c, 0, 72, 0
2, 39939, Channel_aftertouch_c, 0, 0
2, 42033, Note_on_c, 0, 69, 127
2, 42104, Note_on_c, 0, 69, 0
2, 42120, Note_on_c, 0, 72, 127
2, 42191, Note_on_c, 0, 72, 0
2, 42241, Channel_aftertouch_c, 0, 3
2, 42266, Note_on_c, 0, 76, 127
2, 42277, Channel_aftertouch_c, 0, 0
2, 42372, Channel_aftertouch_c, 0, 1
2, 42399, Channel_aftertouch_c, 0, 0
2, 42871, Note_on_c, 0, 76, 0
2, 44156, Note_on_c, 0, 70, 127
2, 44230, Note_on_c, 0, 70, 0
2, 44236, Note_on_c, 0, 72, 119
2, 44291, Note_on_c, 0, 72, 0
2, 44341, Note_on_c, 0, 72, 127
2, 44376, Channel_aftertouch_c, 0, 0
2, 44402, Note_on_c, 0, 72, 0
2, 44427, Note_on_c, 0, 70, 123
2, 44482, Note_on_c, 0, 70, 0
2, 44527, Note_on_c, 0, 76, 124
2, 44798, Note_on_c, 0, 76, 0
2, 44818, Note_on_c, 0, 70, 119
2, 44888, Note_on_c, 0, 70, 0
2, 44904, Note_on_c, 0, 72, 127
2, 44954, Note_on_c, 0, 72, 0
2, 45004, Note_on_c, 0, 72, 127
2, 45035, Channel_aftertouch_c, 0, 0
2, 45090, Note_on_c, 0, 72, 0
2, 45214, Note_on_c, 0, 72, 127
2, 45219, Channel_aftertouch_c, 0, 0
2, 45245, Channel_aftertouch_c, 0, 0
2, 45412, Channel_aftertouch_c, 0, 0
2, 45609, Channel_aftertouch_c, 0, 0
2, 45820, Note_on_c, 0, 72, 0
2, 47973, Note_on_c, 0, 79, 127
2, 47994, Channel_aftertouch_c, 0, 10
2, 48022, Note_on_c, 0, 79, 0
2, 48027, Channel_aftertouch_c, 0, 0
2, 48077, Note_on_c, 0, 79, 127
2, 48104, Channel_aftertouch_c, 0, 15
2, 48135, Channel_aftertouch_c, 0, 2
2, 48161, Channel_aftertouch_c, 0, 0
2, 48304, Note_on_c, 0, 79, 0
2, 48373, Note_on_c, 0, 77, 127
2, 48408, Channel_aftertouch_c, 0, 0
2, 48454, Note_on_c, 0, 77, 0
2, 48459, Note_on_c, 0, 75, 111
2, 48524, Note_on_c, 0, 75, 0
2, 48549, Note_on_c, 0, 72, 126
2, 48585, Channel_aftertouch_c, 0, 0
2, 48596, Note_on_c, 0, 72, 0
2, 48650, Note_on_c, 0, 72, 127
2, 48672, Channel_aftertouch_c, 0, 11
2, 48698, Channel_aftertouch_c, 0, 8
2, 48724, Channel_aftertouch_c, 0, 0
2, 48750, Note_on_c, 0, 72, 0
2, 48825, Note_on_c, 0, 75, 127
2, 49041, Note_on_c, 0, 75, 0
2, 50106, Note_on_c, 0, 75, 127
2, 50171, Note_on_c, 0, 75, 0
2, 50186, Note_on_c, 0, 77, 124
2, 50221, Channel_aftertouch_c, 0, 0
2, 50242, Note_on_c, 0, 77, 0
2, 50297, Note_on_c, 0, 77, 127
2, 50312, Channel_aftertouch_c, 0, 0
2, 50338, Channel_aftertouch_c, 0, 0
2, 50363, Note_on_c, 0, 77, 0
2, 50379, Note_on_c, 0, 75, 123
2, 50448, Note_on_c, 0, 75, 0
2, 50503, Note_on_c, 0, 79, 127
2, 50529, Channel_aftertouch_c, 0, 6
2, 50556, Channel_aftertouch_c, 0, 0
2, 50845, Note_on_c, 0, 79, 0
2, 50866, Note_on_c, 0, 72, 126
2, 50916, Note_on_c, 0, 72, 0
2, 50961, Note_on_c, 0, 72, 110
2, 51001, Note_on_c, 0, 72, 0
2, 51061, Note_on_c, 0, 72, 127
2, 51086, Channel_aftertouch_c, 0, 0
2, 51097, Note_on_c, 0, 72, 0
2, 51167, Note_on_c, 0, 72, 127
2, 51187, Channel_aftertouch_c, 0, 3
2, 51213, Channel_aftertouch_c, 0, 0
2, 51259, Note_on_c, 0, 72, 0
2, 51358, Note_on_c, 0, 72, 127
2, 51363, Channel_aftertouch_c, 0, 0
2, 51390, Channel_aftertouch_c, 0, 7
2, 51416, Channel_aftertouch_c, 0, 0
2, 51451, Channel_aftertouch_c, 0, 2
2, 51638, Channel_aftertouch_c, 0, 0
2, 51941, Note_on_c, 0, 72, 0
2, 53770, Channel_aftertouch_c, 0, 0
2, 53796, Channel_aftertouch_c, 0, 0
2, 54344, Note_on_c, 0, 77, 127
2, 54359, Channel_aftertouch_c, 0, 2
2, 54386, Channel_aftertouch_c, 0, 0
2, 54411, Note_on_c, 0, 77, 0
2, 54417, Note_on_c, 0, 75, 119
2, 54472, Note_on_c, 0, 75, 0
2, 54522, Note_on_c, 0, 77, 127
2, 54542, Channel_aftertouch_c, 0, 4
2, 54568, Channel_aftertouch_c, 0, 0
2, 54603, Note_on_c, 0, 77, 0
2, 54609, Note_on_c, 0, 75, 119
2, 54669, Note_on_c, 0, 75, 0
2, 54705, Note_on_c, 0, 77, 127
2, 54714, Channel_aftertouch_c, 0, 1
2, 54742, Channel_aftertouch_c, 0, 0
2, 54743, Note_on_c, 0, 77, 0
2, 54802, Note_on_c, 0, 77, 127
2, 54828, Channel_aftertouch_c, 0, 6
2, 54854, Channel_aftertouch_c, 0, 0
2, 54998, Note_on_c, 0, 75, 116
2, 54998, Note_on_c, 0, 77, 0
2, 55068, Note_on_c, 0, 75, 0
2, 55083, Note_on_c, 0, 79, 127
2, 55109, Channel_aftertouch_c, 0, 7
2, 55141, Channel_aftertouch_c, 0, 0
2, 55176, Channel_aftertouch_c, 0, 1
2, 55226, Channel_aftertouch_c, 0, 0
2, 55432, Note_on_c, 0, 79, 0
2, 56262, Note_on_c, 0, 82, 127
2, 56527, Note_on_c, 0, 82, 0
2, 56533, Note_on_c, 0, 75, 102
2, 56617, Note_on_c, 0, 75, 0
2, 56623, Note_on_c, 0, 77, 109
2, 56698, Note_on_c, 0, 77, 0
2, 56709, Note_on_c, 0, 75, 98
2, 56788, Note_on_c, 0, 75, 0
2, 56808, Note_on_c, 0, 77, 124
2, 56883, Note_on_c, 0, 77, 0
2, 56894, Note_on_c, 0, 75, 81
2, 56968, Note_on_c, 0, 75, 0
2, 56994, Note_on_c, 0, 77, 127
2, 57009, Channel_aftertouch_c, 0, 0
2, 57035, Channel_aftertouch_c, 0, 0
2, 57065, Note_on_c, 0, 77, 0
2, 57081, Note_on_c, 0, 75, 74
2, 57122, Note_on_c, 0, 75, 0
2, 57176, Note_on_c, 0, 77, 127
2, 57202, Channel_aftertouch_c, 0, 4
2, 57228, Channel_aftertouch_c, 0, 0
2, 57268, Note_on_c, 0, 77, 0
2, 57362, Note_on_c, 0, 77, 127
2, 57383, Channel_aftertouch_c, 0, 3
2, 57409, Channel_aftertouch_c, 0, 0
2, 57454, Note_on_c, 0, 77, 0
2, 57562, Note_on_c, 0, 76, 127
2, 57572, Channel_aftertouch_c, 0, 0
2, 57598, Channel_aftertouch_c, 0, 0
2, 57780, Note_on_c, 0, 76, 0
2, 57791, Note_on_c, 0, 72, 113
2, 57821, Note_on_c, 0, 72, 0
2, 57880, Note_on_c, 0, 72, 127
2, 57902, Channel_aftertouch_c, 0, 6
2, 57933, Channel_aftertouch_c, 0, 0
2, 57983, Channel_aftertouch_c, 0, 2
2, 58023, Channel_aftertouch_c, 0, 5
2, 58079, Channel_aftertouch_c, 0, 8
2, 58123, Channel_aftertouch_c, 0, 10
2, 58148, Channel_aftertouch_c, 0, 11
2, 58188, Channel_aftertouch_c, 0, 12
2, 58286, Channel_aftertouch_c, 0, 13
2, 58320, Channel_aftertouch_c, 0, 11
2, 58346, Channel_aftertouch_c, 0, 8
2, 58488, Channel_aftertouch_c, 0, 9
2, 58514, Channel_aftertouch_c, 0, 13
2, 58603, Channel_aftertouch_c, 0, 14
2, 58667, Channel_aftertouch_c, 0, 16
2, 58697, Channel_aftertouch_c, 0, 18
2, 58722, Channel_aftertouch_c, 0, 17
2, 58767, Channel_aftertouch_c, 0, 18
2, 58817, Channel_aftertouch_c, 0, 12
2, 58892, Channel_aftertouch_c, 0, 10
2, 58918, Channel_aftertouch_c, 0, 0
2, 58924, Note_on_c, 0, 72, 0
2, 60672, Note_on_c, 0, 75, 123
2, 60732, Note_on_c, 0, 75, 0
2, 60763, Note_on_c, 0, 75, 119
2, 60793, Channel_aftertouch_c, 0, 0
2, 60804, Note_on_c, 0, 75, 0
2, 60854, Note_on_c, 0, 75, 123
2, 60904, Note_on_c, 0, 75, 0
2, 60954, Note_on_c, 0, 75, 119
2, 60990, Channel_aftertouch_c, 0, 0
2, 61010, Note_on_c, 0, 75, 0
2, 61065, Note_on_c, 0, 75, 127
2, 61188, Note_on_c, 0, 75, 0
2, 61233, Note_on_c, 0, 72, 119
2, 61337, Note_on_c, 0, 72, 0
2, 61430, Note_on_c, 0, 72, 127
2, 61510, Note_on_c, 0, 72, 0
2, 61516, Note_on_c, 0, 70, 93
2, 61600, Note_on_c, 0, 70, 0
2, 61615, Note_on_c, 0, 72, 119
2, 61714, Note_on_c, 0, 72, 0
2, 61720, Note_on_c, 0, 70, 111
2, 61888, Note_on_c, 0, 72, 127
2, 61899, Note_on_c, 0, 70, 0
2, 61904, Channel_aftertouch_c, 0, 0
2, 61930, Channel_aftertouch_c, 0, 0
2, 61935, Note_on_c, 0, 72, 0
2, 63732, Note_on_c, 0, 75, 127
2, 63816, Note_on_c, 0, 75, 0
2, 63832, Note_on_c, 0, 75, 113
2, 63907, Note_on_c, 0, 75, 0
2, 63927, Note_on_c, 0, 75, 102
2, 63992, Note_on_c, 0, 75, 0
2, 64013, Note_on_c, 0, 75, 102
2, 64082, Note_on_c, 0, 75, 0
2, 64127, Note_on_c, 0, 75, 108
2, 64246, Note_on_c, 0, 75, 0
2, 64296, Note_on_c, 0, 72, 106
2, 64410, Note_on_c, 0, 72, 0
2, 64504, Note_on_c, 0, 72, 124
2, 64579, Note_on_c, 0, 72, 0
2, 64594, Note_on_c, 0, 70, 82
2, 64674, Note_on_c, 0, 70, 0
2, 64689, Note_on_c, 0, 72, 117
2, 64833, Note_on_c, 0, 72, 0
2, 64883, Note_on_c, 0, 70, 113
2, 64972, Note_on_c, 0, 70, 0
2, 64978, Note_on_c, 0, 72, 126
2, 65019, Channel_aftertouch_c, 0, 0
2, 65069, Note_on_c, 0, 72, 0
2, 66807, Note_on_c, 0, 77, 124
2, 66882, Note_on_c, 0, 77, 0
2, 66892, Note_on_c, 0, 75, 87
2, 66982, Note_on_c, 0, 75, 0
2, 66997, Note_on_c, 0, 77, 121
2, 67076, Note_on_c, 0, 77, 0
2, 67087, Note_on_c, 0, 75, 113
2, 67147, Note_on_c, 0, 75, 0
2, 67212, Note_on_c, 0, 79, 121
2, 67292, Note_on_c, 0, 77, 124
2, 67297, Note_on_c, 0, 79, 0
2, 67312, Channel_aftertouch_c, 0, 0
2, 67347, Channel_aftertouch_c, 0, 0
2, 67387, Note_on_c, 0, 77, 0
2, 67574, Note_on_c, 0, 77, 127
2, 67633, Note_on_c, 0, 77, 0
2, 67658, Note_on_c, 0, 77, 98
2, 67723, Note_on_c, 0, 77, 0
2, 67763, Note_on_c, 0, 75, 119
2, 67852, Note_on_c, 0, 75, 0
2, 67946, Note_on_c, 0, 72, 126
2, 68074, Note_on_c, 0, 72, 0
2, 68148, Note_on_c, 0, 72, 127
2, 68228, Note_on_c, 0, 72, 0
2, 69883, Note_on_c, 0, 75, 127
2, 69958, Note_on_c, 0, 75, 0
2, 69978, Note_on_c, 0, 75, 111
2, 70034, Note_on_c, 0, 75, 0
2, 70079, Note_on_c, 0, 75, 108
2, 70124, Note_on_c, 0, 75, 0
2, 70159, Note_on_c, 0, 75, 100
2, 70200, Note_on_c, 0, 75, 0
2, 70274, Note_on_c, 0, 75, 116
2, 70422, Note_on_c, 0, 75, 0
2, 70452, Note_on_c, 0, 72, 99
2, 70522, Note_on_c, 0, 72, 0
2, 70655, Note_on_c, 0, 72, 124
2, 70725, Note_on_c, 0, 72, 0
2, 70736, Note_on_c, 0, 70, 69
2, 70815, Note_on_c, 0, 70, 0
2, 70836, Note_on_c, 0, 72, 112
2, 70925, Note_on_c, 0, 72, 0
2, 70945, Note_on_c, 0, 70, 96
2, 71118, Note_on_c, 0, 72, 124
2, 71129, Note_on_c, 0, 70, 0
2, 71139, Channel_aftertouch_c, 0, 1
2, 71164, Channel_aftertouch_c, 0, 0
2, 71190, Note_on_c, 0, 72, 0
2, 72952, Note_on_c, 0, 77, 127
2, 73026, Note_on_c, 0, 77, 0
2, 73037, Note_on_c, 0, 75, 87
2, 73117, Note_on_c, 0, 75, 0
2, 73137, Note_on_c, 0, 77, 126
2, 73173, Channel_aftertouch_c, 0, 0
2, 73247, Note_on_c, 0, 77, 0
2, 73336, Note_on_c, 0, 77, 127
2, 73464, Note_on_c, 0, 77, 0
2, 73519, Note_on_c, 0, 75, 123
2, 73603, Note_on_c, 0, 75, 0
2, 73624, Note_on_c, 0, 79, 127
2, 73644, Channel_aftertouch_c, 0, 2
2, 73670, Channel_aftertouch_c, 0, 0
2, 73705, Channel_aftertouch_c, 0, 0
2, 73721, Note_on_c, 0, 79, 0
2, 73781, Note_on_c, 0, 79, 127
2, 73807, Channel_aftertouch_c, 0, 2
2, 73832, Channel_aftertouch_c, 0, 0
2, 73881, Channel_aftertouch_c, 0, 1
2, 73906, Channel_aftertouch_c, 0, 3
2, 73933, Channel_aftertouch_c, 0, 7
2, 73959, Channel_aftertouch_c, 0, 11
2, 73984, Channel_aftertouch_c, 0, 14
2, 74010, Channel_aftertouch_c, 0, 17
2, 74040, Channel_aftertouch_c, 0, 19
2, 74079, Channel_aftertouch_c, 0, 20
2, 74109, Channel_aftertouch_c, 0, 21
2, 74183, Channel_aftertouch_c, 0, 20
2, 74218, Channel_aftertouch_c, 0, 18
2, 74258, Channel_aftertouch_c, 0, 15
2, 74293, Channel_aftertouch_c, 0, 13
2, 74319, Channel_aftertouch_c, 0, 10
2, 74378, Channel_aftertouch_c, 0, 8
2, 74419, Channel_aftertouch_c, 0, 0
2, 74425, Note_on_c, 0, 79, 0
2, 74676, Note_on_c, 0, 77, 127
2, 74712, Note_on_c, 0, 77, 0
2, 74766, Note_on_c, 0, 77, 121
2, 74796, Note_on_c, 0, 77, 0
2, 74865, Note_on_c, 0, 77, 117
2, 74940, Note_on_c, 0, 77, 0
2, 74951, Note_on_c, 0, 75, 83
2, 75030, Note_on_c, 0, 75, 0
2, 75046, Note_on_c, 0, 79, 117
2, 75111, Note_on_c, 0, 79, 0
2, 75258, Note_on_c, 0, 77, 127
2, 75337, Note_on_c, 0, 77, 0
2, 75348, Note_on_c, 0, 75, 80
2, 75422, Note_on_c, 0, 75, 0
2, 75443, Note_on_c, 0, 77, 110
2, 75517, Note_on_c, 0, 77, 0
2, 75548, Note_on_c, 0, 79, 100
2, 75593, Note_on_c, 0, 79, 0
2, 75642, Note_on_c, 0, 79, 126
2, 75663, Channel_aftertouch_c, 0, 1
2, 75689, Channel_aftertouch_c, 0, 0
2, 75778, Note_on_c, 0, 79, 0
2, 75838, Note_on_c, 0, 77, 127
2, 75903, Note_on_c, 0, 77, 0
2, 75933, Note_on_c, 0, 76, 124
2, 75953, Channel_aftertouch_c, 0, 1
2, 75993, Channel_aftertouch_c, 0, 2
2, 76020, Channel_aftertouch_c, 0, 8
2, 76046, Channel_aftertouch_c, 0, 12
2, 76100, Channel_aftertouch_c, 0, 10
2, 76132, Channel_aftertouch_c, 0, 6
2, 76158, Channel_aftertouch_c, 0, 0
2, 76164, Note_on_c, 0, 72, 119
2, 76164, Note_on_c, 0, 76, 0
2, 76181, Channel_aftertouch_c, 0, 0
2, 76207, Channel_aftertouch_c, 0, 0
2, 76257, Channel_aftertouch_c, 0, 2
2, 76321, Channel_aftertouch_c, 0, 0
2, 76371, Channel_aftertouch_c, 0, 0
2, 76430, Channel_aftertouch_c, 0, 0
2, 76798, Note_on_c, 0, 72, 0
2, 76803, Channel_aftertouch_c, 0, 0
2, 76803, End_track
3, 0, Start_track
3, 0, Channel_prefix, 1
3, 0, Text_t, "bass    "
3, 144, Text_t, "bass"
3, 2310, Note_on_c, 1, 36, 110
3, 2540, Note_on_c, 1, 36, 0
3, 2601, Note_on_c, 1, 30, 94
3, 2706, Note_on_c, 1, 30, 0
3, 2795, Note_on_c, 1, 31, 93
3, 2900, Note_on_c, 1, 31, 0
3, 2969, Note_on_c, 1, 34, 114
3, 3065, Pitch_bend_c, 1, 9701
3, 3076, Pitch_bend_c, 1, 14552
3, 3087, Pitch_bend_c, 1, 16383
3, 3217, Pitch_bend_c, 1, 14906
3, 3226, Note_on_c, 1, 34, 0
3, 3229, Pitch_bend_c, 1, 10633
3, 3240, Pitch_bend_c, 1, 8706
3, 3251, Pitch_bend_c, 1, 8192
3, 3371, Note_on_c, 1, 30, 96
3, 3475, Note_on_c, 1, 30, 0
3, 3560, Note_on_c, 1, 31, 94
3, 3660, Note_on_c, 1, 31, 0
3, 3734, Note_on_c, 1, 34, 107
3, 3835, Pitch_bend_c, 1, 9798
3, 3846, Pitch_bend_c, 1, 15227
3, 3857, Pitch_bend_c, 1, 16383
3, 3993, Note_on_c, 1, 34, 0
3, 4007, Pitch_bend_c, 1, 14231
3, 4018, Pitch_bend_c, 1, 10151
3, 4030, Pitch_bend_c, 1, 8609
3, 4041, Pitch_bend_c, 1, 8192
3, 4140, Note_on_c, 1, 30, 97
3, 4249, Note_on_c, 1, 30, 0
3, 4324, Note_on_c, 1, 31, 96
3, 4434, Note_on_c, 1, 31, 0
3, 4503, Note_on_c, 1, 34, 101
3, 4597, Pitch_bend_c, 1, 9637
3, 4608, Pitch_bend_c, 1, 14713
3, 4620, Pitch_bend_c, 1, 16383
3, 4768, Pitch_bend_c, 1, 15452
3, 4770, Note_on_c, 1, 34, 0
3, 4781, Pitch_bend_c, 1, 10729
3, 4792, Pitch_bend_c, 1, 8706
3, 4803, Pitch_bend_c, 1, 8192
3, 4912, Note_on_c, 1, 30, 96
3, 5032, Note_on_c, 1, 30, 0
3, 5096, Note_on_c, 1, 31, 96
3, 5226, Note_on_c, 1, 31, 0
3, 5280, Note_on_c, 1, 34, 97
3, 5375, Note_on_c, 1, 34, 0
3, 5377, Note_on_c, 1, 36, 110
3, 5607, Note_on_c, 1, 36, 0
3, 5673, Note_on_c, 1, 30, 94
3, 5778, Note_on_c, 1, 30, 0
3, 5867, Note_on_c, 1, 31, 93
3, 5972, Note_on_c, 1, 31, 0
3, 6041, Note_on_c, 1, 34, 114
3, 6137, Pitch_bend_c, 1, 9701
3, 6148, Pitch_bend_c, 1, 14552
3, 6159, Pitch_bend_c, 1, 16383
3, 6289, Pitch_bend_c, 1, 14906
3, 6298, Note_on_c, 1, 34, 0
3, 6301, Pitch_bend_c, 1, 10633
3, 6312, Pitch_bend_c, 1, 8706
3, 6323, Pitch_bend_c, 1, 8192
3, 6443, Note_on_c, 1, 30, 96
3, 6547, Note_on_c, 1, 30, 0
3, 6632, Note_on_c, 1, 31, 94
3, 6732, Note_on_c, 1, 31, 0
3, 6806, Note_on_c, 1, 34, 107
3, 6907, Pitch_bend_c, 1, 9798
3, 6918, Pitch_bend_c, 1, 15227
3, 6929, Pitch_bend_c, 1, 16383
3, 7065, Note_on_c, 1, 34, 0
3, 7079, Pitch_bend_c, 1, 14231
3, 7090, Pitch_bend_c, 1, 10151
3, 7102, Pitch_bend_c, 1, 8609
3, 7113, Pitch_bend_c, 1, 8192
3, 7212, Note_on_c, 1, 30, 97
3, 7321, Note_on_c, 1, 30, 0
3, 7396, Note_on_c, 1, 31, 96
3, 7506, Note_on_c, 1, 31, 0
3, 7575, Note_on_c, 1, 34, 101
3, 7669, Pitch_bend_c, 1, 9637
3, 7680, Pitch_bend_c, 1, 14713
3, 7692, Pitch_bend_c, 1, 16383
3, 7840, Pitch_bend_c, 1, 15452
3, 7842, Note_on_c, 1, 34, 0
3, 7853, Pitch_bend_c, 1, 10729
3, 7864, Pitch_bend_c, 1, 8706
3, 7875, Pitch_bend_c, 1, 8192
3, 7984, Note_on_c, 1, 30, 96
3, 8104, Note_on_c, 1, 30, 0
3, 8168, Note_on_c, 1, 31, 96
3, 8298, Note_on_c, 1, 31, 0
3, 8352, Note_on_c, 1, 34, 97
3, 8447, Note_on_c, 1, 34, 0
3, 8449, Note_on_c, 1, 36, 110
3, 8679, Note_on_c, 1, 36, 0
3, 8745, Note_on_c, 1, 30, 94
3, 8850, Note_on_c, 1, 30, 0
3, 8939, Note_on_c, 1, 31, 93
3, 9044, Note_on_c, 1, 31, 0
3, 9113, Note_on_c, 1, 34, 114
3, 9209, Pitch_bend_c, 1, 9701
3, 9220, Pitch_bend_c, 1, 14552
3, 9231, Pitch_bend_c, 1, 16383
3, 9361, Pitch_bend_c, 1, 14906
3, 9370, Note_on_c, 1, 34, 0
3, 9373, Pitch_bend_c, 1, 10633
3, 9384, Pitch_bend_c, 1, 8706
3, 9395, Pitch_bend_c, 1, 8192
3, 9515, Note_on_c, 1, 30, 96
3, 9619, Note_on_c, 1, 30, 0
3, 9704, Note_on_c, 1, 31, 94
3, 9804, Note_on_c, 1, 31, 0
3, 9878, Note_on_c, 1, 34, 107
3, 9979, Pitch_bend_c, 1, 9798
3, 9990, Pitch_bend_c, 1, 15227
3, 10001, Pitch_bend_c, 1, 16383
3, 10137, Note_on_c, 1, 34, 0
3, 10151, Pitch_bend_c, 1, 14231
3, 10162, Pitch_bend_c, 1, 10151
3, 10174, Pitch_bend_c, 1, 8609
3, 10185, Pitch_bend_c, 1, 8192
3, 10284, Note_on_c, 1, 30, 97
3, 10393, Note_on_c, 1, 30, 0
3, 10468, Note_on_c, 1, 31, 96
3, 10578, Note_on_c, 1, 31, 0
3, 10647, Note_on_c, 1, 34, 101
3, 10741, Pitch_bend_c, 1, 9637
3, 10752, Pitch_bend_c, 1, 14713
3, 10764, Pitch_bend_c, 1, 16383
3, 10912, Pitch_bend_c, 1, 15452
3, 10914, Note_on_c, 1, 34, 0
3, 10925, Pitch_bend_c, 1, 10729
3, 10936, Pitch_bend_c, 1, 8706
3, 10947, Pitch_bend_c, 1, 8192
3, 11056, Note_on_c, 1, 30, 96
3, 11176, Note_on_c, 1, 30, 0
3, 11240, Note_on_c, 1, 31, 96
3, 11370, Note_on_c, 1, 31, 0
3, 11424, Note_on_c, 1, 34, 97
3, 11519, Note_on_c, 1, 34, 0
3, 11524, Note_on_c, 1, 29, 99
3, 11743, Note_on_c, 1, 29, 0
3, 11813, Note_on_c, 1, 34, 94
3, 11913, Note_on_c, 1, 34, 0
3, 11998, Note_on_c, 1, 36, 98
3, 12108, Note_on_c, 1, 36, 0
3, 12183, Note_on_c, 1, 39, 103
3, 12274, Note_on_c, 1, 39, 0
3, 12275, Note_on_c, 1, 41, 88
3, 12494, Note_on_c, 1, 41, 0
3, 12582, Note_on_c, 1, 34, 96
3, 12668, Note_on_c, 1, 34, 0
3, 12768, Note_on_c, 1, 36, 96
3, 12862, Note_on_c, 1, 36, 0
3, 12952, Note_on_c, 1, 39, 97
3, 13046, Note_on_c, 1, 39, 0
3, 13047, Note_on_c, 1, 41, 88
3, 13246, Note_on_c, 1, 41, 0
3, 13341, Note_on_c, 1, 34, 92
3, 13431, Note_on_c, 1, 34, 0
3, 13535, Note_on_c, 1, 36, 93
3, 13635, Note_on_c, 1, 36, 0
3, 13725, Note_on_c, 1, 39, 101
3, 13831, Note_on_c, 1, 41, 85
3, 13836, Note_on_c, 1, 39, 0
3, 14041, Note_on_c, 1, 41, 0
3, 14135, Note_on_c, 1, 33, 97
3, 14245, Note_on_c, 1, 33, 0
3, 14320, Note_on_c, 1, 34, 96
3, 14416, Note_on_c, 1, 34, 0
3, 14490, Note_on_c, 1, 35, 98
3, 14590, Note_on_c, 1, 35, 0
3, 14601, Note_on_c, 1, 36, 84
3, 14785, Note_on_c, 1, 36, 0
3, 14884, Note_on_c, 1, 30, 99
3, 14969, Note_on_c, 1, 30, 0
3, 15074, Note_on_c, 1, 31, 93
3, 15169, Note_on_c, 1, 31, 0
3, 15258, Note_on_c, 1, 34, 101
3, 15353, Note_on_c, 1, 36, 84
3, 15359, Note_on_c, 1, 34, 0
3, 15568, Note_on_c, 1, 36, 0
3, 15653, Note_on_c, 1, 30, 101
3, 15739, Note_on_c, 1, 30, 0
3, 15838, Note_on_c, 1, 31, 88
3, 15928, Note_on_c, 1, 31, 0
3, 16018, Note_on_c, 1, 34, 99
3, 16103, Note_on_c, 1, 34, 0
3, 16109, Note_on_c, 1, 36, 84
3, 16352, Note_on_c, 1, 36, 0
3, 16422, Note_on_c, 1, 30, 97
3, 16512, Note_on_c, 1, 30, 0
3, 16607, Note_on_c, 1, 31, 91
3, 16692, Note_on_c, 1, 31, 0
3, 16791, Note_on_c, 1, 34, 101
3, 16891, Note_on_c, 1, 34, 0
3, 16896, Note_on_c, 1, 36, 86
3, 17130, Note_on_c, 1, 36, 0
3, 17195, Note_on_c, 1, 30, 95
3, 17262, Note_on_c, 1, 30, 0
3, 17379, Note_on_c, 1, 31, 88
3, 17453, Note_on_c, 1, 31, 0
3, 17571, Note_on_c, 1, 36, 91
3, 17657, Note_on_c, 1, 36, 0
3, 17664, Note_on_c, 1, 31, 106
3, 17884, Note_on_c, 1, 31, 0
3, 17944, Note_on_c, 1, 34, 91
3, 18065, Note_on_c, 1, 34, 0
3, 18140, Note_on_c, 1, 38, 86
3, 18255, Note_on_c, 1, 38, 0
3, 18324, Note_on_c, 1, 41, 90
3, 18430, Note_on_c, 1, 41, 0
3, 18432, Note_on_c, 1, 43, 82
3, 18611, Note_on_c, 1, 43, 0
3, 18724, Note_on_c, 1, 37, 91
3, 18799, Note_on_c, 1, 37, 0
3, 18816, Note_on_c, 1, 38, 82
3, 18892, Note_on_c, 1, 38, 0
3, 18912, Note_on_c, 1, 41, 65
3, 18993, Note_on_c, 1, 41, 0
3, 19008, Note_on_c, 1, 43, 82
3, 19157, Note_on_c, 1, 43, 0
3, 19200, Note_on_c, 1, 41, 103
3, 19320, Note_on_c, 1, 41, 0
3, 20737, Note_on_c, 1, 36, 110
3, 20967, Note_on_c, 1, 36, 0
3, 21033, Note_on_c, 1, 30, 94
3, 21138, Note_on_c, 1, 30, 0
3, 21227, Note_on_c, 1, 31, 93
3, 21332, Note_on_c, 1, 31, 0
3, 21401, Note_on_c, 1, 34, 114
3, 21497, Pitch_bend_c, 1, 9701
3, 21508, Pitch_bend_c, 1, 14552
3, 21519, Pitch_bend_c, 1, 16383
3, 21649, Pitch_bend_c, 1, 14906
3, 21658, Note_on_c, 1, 34, 0
3, 21661, Pitch_bend_c, 1, 10633
3, 21672, Pitch_bend_c, 1, 8706
3, 21683, Pitch_bend_c, 1, 8192
3, 21803, Note_on_c, 1, 30, 96
3, 21907, Note_on_c, 1, 30, 0
3, 21992, Note_on_c, 1, 31, 94
3, 22092, Note_on_c, 1, 31, 0
3, 22166, Note_on_c, 1, 34, 107
3, 22267, Pitch_bend_c, 1, 9798
3, 22278, Pitch_bend_c, 1, 15227
3, 22289, Pitch_bend_c, 1, 16383
3, 22425, Note_on_c, 1, 34, 0
3, 22439, Pitch_bend_c, 1, 14231
3, 22450, Pitch_bend_c, 1, 10151
3, 22462, Pitch_bend_c, 1, 8609
3, 22473, Pitch_bend_c, 1, 8192
3, 22572, Note_on_c, 1, 30, 97
3, 22681, Note_on_c, 1, 30, 0
3, 22756, Note_on_c, 1, 31, 96
3, 22866, Note_on_c, 1, 31, 0
3, 22935, Note_on_c, 1, 34, 101
3, 23029, Pitch_bend_c, 1, 9637
3, 23040, Pitch_bend_c, 1, 14713
3, 23052, Pitch_bend_c, 1, 16383
3, 23200, Pitch_bend_c, 1, 15452
3, 23202, Note_on_c, 1, 34, 0
3, 23213, Pitch_bend_c, 1, 10729
3, 23224, Pitch_bend_c, 1, 8706
3, 23235, Pitch_bend_c, 1, 8192
3, 23344, Note_on_c, 1, 29, 100
3, 23402, Note_on_c, 1, 29, 0
3, 23424, Note_on_c, 1, 30, 106
3, 23509, Note_on_c, 1, 30, 0
3, 23528, Note_on_c, 1, 31, 108
3, 23602, Note_on_c, 1, 31, 0
3, 23616, Note_on_c, 1, 34, 114
3, 23706, Note_on_c, 1, 34, 0
3, 23712, Note_on_c, 1, 35, 114
3, 23800, Note_on_c, 1, 35, 0
3, 23809, Note_on_c, 1, 36, 115
3, 24039, Note_on_c, 1, 36, 0
3, 24105, Note_on_c, 1, 30, 94
3, 24210, Note_on_c, 1, 30, 0
3, 24299, Note_on_c, 1, 31, 93
3, 24404, Note_on_c, 1, 31, 0
3, 24473, Note_on_c, 1, 34, 114
3, 24569, Pitch_bend_c, 1, 9701
3, 24580, Pitch_bend_c, 1, 14552
3, 24591, Pitch_bend_c, 1, 16383
3, 24721, Pitch_bend_c, 1, 14906
3, 24730, Note_on_c, 1, 34, 0
3, 24733, Pitch_bend_c, 1, 10633
3, 24744, Pitch_bend_c, 1, 8706
3, 24755, Pitch_bend_c, 1, 8192
3, 24875, Note_on_c, 1, 30, 96
3, 24979, Note_on_c, 1, 30, 0
3, 25064, Note_on_c, 1, 31, 94
3, 25164, Note_on_c, 1, 31, 0
3, 25238, Note_on_c, 1, 34, 107
3, 25339, Pitch_bend_c, 1, 9798
3, 25350, Pitch_bend_c, 1, 15227
3, 25361, Pitch_bend_c, 1, 16383
3, 25497, Note_on_c, 1, 34, 0
3, 25511, Pitch_bend_c, 1, 14231
3, 25522, Pitch_bend_c, 1, 10151
3, 25534, Pitch_bend_c, 1, 8609
3, 25545, Pitch_bend_c, 1, 8192
3, 25644, Note_on_c, 1, 30, 97
3, 25753, Note_on_c, 1, 30, 0
3, 25828, Note_on_c, 1, 31, 96
3, 25938, Note_on_c, 1, 31, 0
3, 26007, Note_on_c, 1, 34, 101
3, 26101, Pitch_bend_c, 1, 9637
3, 26112, Pitch_bend_c, 1, 14713
3, 26124, Pitch_bend_c, 1, 16383
3, 26272, Pitch_bend_c, 1, 15452
3, 26274, Note_on_c, 1, 34, 0
3, 26285, Pitch_bend_c, 1, 10729
3, 26296, Pitch_bend_c, 1, 8706
3, 26307, Pitch_bend_c, 1, 8192
3, 26416, Note_on_c, 1, 30, 96
3, 26536, Note_on_c, 1, 30, 0
3, 26600, Note_on_c, 1, 31, 96
3, 26730, Note_on_c, 1, 31, 0
3, 26784, Note_on_c, 1, 34, 97
3, 26879, Note_on_c, 1, 34, 0
3, 26881, Note_on_c, 1, 36, 110
3, 27111, Note_on_c, 1, 36, 0
3, 27177, Note_on_c, 1, 30, 94
3, 27282, Note_on_c, 1, 30, 0
3, 27371, Note_on_c, 1, 31, 93
3, 27476, Note_on_c, 1, 31, 0
3, 27545, Note_on_c, 1, 34, 114
3, 27641, Pitch_bend_c, 1, 9701
3, 27652, Pitch_bend_c, 1, 14552
3, 27663, Pitch_bend_c, 1, 16383
3, 27793, Pitch_bend_c, 1, 14906
3, 27802, Note_on_c, 1, 34, 0
3, 27805, Pitch_bend_c, 1, 10633
3, 27816, Pitch_bend_c, 1, 8706
3, 27827, Pitch_bend_c, 1, 8192
3, 27947, Note_on_c, 1, 30, 96
3, 28051, Note_on_c, 1, 30, 0
3, 28136, Note_on_c, 1, 31, 94
3, 28236, Note_on_c, 1, 31, 0
3, 28310, Note_on_c, 1, 34, 107
3, 28411, Pitch_bend_c, 1, 9798
3, 28422, Pitch_bend_c, 1, 15227
3, 28433, Pitch_bend_c, 1, 16383
3, 28569, Note_on_c, 1, 34, 0
3, 28583, Pitch_bend_c, 1, 14231
3, 28594, Pitch_bend_c, 1, 10151
3, 28606, Pitch_bend_c, 1, 8609
3, 28617, Pitch_bend_c, 1, 8192
3, 28716, Note_on_c, 1, 30, 97
3, 28825, Note_on_c, 1, 30, 0
3, 28900, Note_on_c, 1, 31, 96
3, 29010, Note_on_c, 1, 31, 0
3, 29079, Note_on_c, 1, 34, 101
3, 29173, Pitch_bend_c, 1, 9637
3, 29184, Pitch_bend_c, 1, 14713
3, 29196, Pitch_bend_c, 1, 16383
3, 29344, Pitch_bend_c, 1, 15452
3, 29346, Note_on_c, 1, 34, 0
3, 29357, Pitch_bend_c, 1, 10729
3, 29368, Pitch_bend_c, 1, 8706
3, 29379, Pitch_bend_c, 1, 8192
3, 29488, Note_on_c, 1, 30, 96
3, 29608, Note_on_c, 1, 30, 0
3, 29672, Note_on_c, 1, 31, 96
3, 29802, Note_on_c, 1, 31, 0
3, 29856, Note_on_c, 1, 34, 97
3, 29951, Note_on_c, 1, 34, 0
3, 29956, Note_on_c, 1, 29, 99
3, 30175, Note_on_c, 1, 29, 0
3, 30245, Note_on_c, 1, 34, 94
3, 30345, Note_on_c, 1, 34, 0
3, 30430, Note_on_c, 1, 36, 98
3, 30540, Note_on_c, 1, 36, 0
3, 30615, Note_on_c, 1, 39, 103
3, 30706, Note_on_c, 1, 39, 0
3, 30707, Note_on_c, 1, 41, 88
3, 30926, Note_on_c, 1, 41, 0
3, 31014, Note_on_c, 1, 34, 96
3, 31100, Note_on_c, 1, 34, 0
3, 31200, Note_on_c, 1, 36, 96
3, 31294, Note_on_c, 1, 36, 0
3, 31384, Note_on_c, 1, 39, 97
3, 31478, Note_on_c, 1, 39, 0
3, 31479, Note_on_c, 1, 41, 88
3, 31678, Note_on_c, 1, 41, 0
3, 31773, Note_on_c, 1, 34, 92
3, 31863, Note_on_c, 1, 34, 0
3, 31967, Note_on_c, 1, 36, 93
3, 32067, Note_on_c, 1, 36, 0
3, 32157, Note_on_c, 1, 39, 101
3, 32263, Note_on_c, 1, 41, 85
3, 32268, Note_on_c, 1, 39, 0
3, 32473, Note_on_c, 1, 41, 0
3, 32567, Note_on_c, 1, 33, 97
3, 32677, Note_on_c, 1, 33, 0
3, 32752, Note_on_c, 1, 34, 96
3, 32848, Note_on_c, 1, 34, 0
3, 32922, Note_on_c, 1, 35, 98
3, 33022, Note_on_c, 1, 35, 0
3, 33033, Note_on_c, 1, 36, 84
3, 33217, Note_on_c, 1, 36, 0
3, 33316, Note_on_c, 1, 30, 99
3, 33401, Note_on_c, 1, 30, 0
3, 33506, Note_on_c, 1, 31, 93
3, 33601, Note_on_c, 1, 31, 0
3, 33690, Note_on_c, 1, 34, 101
3, 33785, Note_on_c, 1, 36, 84
3, 33791, Note_on_c, 1, 34, 0
3, 34000, Note_on_c, 1, 36, 0
3, 34085, Note_on_c, 1, 30, 101
3, 34171, Note_on_c, 1, 30, 0
3, 34270, Note_on_c, 1, 31, 88
3, 34360, Note_on_c, 1, 31, 0
3, 34450, Note_on_c, 1, 34, 99
3, 34535, Note_on_c, 1, 34, 0
3, 34541, Note_on_c, 1, 36, 84
3, 34784, Note_on_c, 1, 36, 0
3, 34854, Note_on_c, 1, 30, 97
3, 34944, Note_on_c, 1, 30, 0
3, 35039, Note_on_c, 1, 31, 91
3, 35124, Note_on_c, 1, 31, 0
3, 35223, Note_on_c, 1, 34, 101
3, 35323, Note_on_c, 1, 34, 0
3, 35328, Note_on_c, 1, 36, 86
3, 35562, Note_on_c, 1, 36, 0
3, 35627, Note_on_c, 1, 30, 95
3, 35694, Note_on_c, 1, 30, 0
3, 35811, Note_on_c, 1, 31, 88
3, 35885, Note_on_c, 1, 31, 0
3, 36003, Note_on_c, 1, 36, 91
3, 36089, Note_on_c, 1, 36, 0
3, 36096, Note_on_c, 1, 31, 106
3, 36316, Note_on_c, 1, 31, 0
3, 36376, Note_on_c, 1, 34, 91
3, 36497, Note_on_c, 1, 34, 0
3, 36572, Note_on_c, 1, 38, 86
3, 36687, Note_on_c, 1, 38, 0
3, 36756, Note_on_c, 1, 41, 90
3, 36862, Note_on_c, 1, 41, 0
3, 36864, Note_on_c, 1, 43, 82
3, 37043, Note_on_c, 1, 43, 0
3, 37156, Note_on_c, 1, 37, 91
3, 37231, Note_on_c, 1, 37, 0
3, 37248, Note_on_c, 1, 38, 89
3, 37324, Note_on_c, 1, 38, 0
3, 37344, Note_on_c, 1, 41, 99
3, 37425, Note_on_c, 1, 41, 0
3, 37440, Note_on_c, 1, 43, 112
3, 37531, Note_on_c, 1, 43, 0
3, 37536, Note_on_c, 1, 42, 115
3, 37631, Note_on_c, 1, 42, 0
3, 37632, Note_on_c, 1, 41, 103
3, 37752, Note_on_c, 1, 41, 0
3, 39169, Note_on_c, 1, 36, 110
3, 39399, Note_on_c, 1, 36, 0
3, 39465, Note_on_c, 1, 30, 94
3, 39570, Note_on_c, 1, 30, 0
3, 39659, Note_on_c, 1, 31, 93
3, 39764, Note_on_c, 1, 31, 0
3, 39833, Note_on_c, 1, 34, 114
3, 39929, Pitch_bend_c, 1, 9701
3, 39940, Pitch_bend_c, 1, 14552
3, 39951, Pitch_bend_c, 1, 16383
3, 40081, Pitch_bend_c, 1, 14906
3, 40090, Note_on_c, 1, 34, 0
3, 40093, Pitch_bend_c, 1, 10633
3, 40104, Pitch_bend_c, 1, 8706
3, 40115, Pitch_bend_c, 1, 8192
3, 40235, Note_on_c, 1, 30, 96
3, 40339, Note_on_c, 1, 30, 0
3, 40424, Note_on_c, 1, 31, 94
3, 40524, Note_on_c, 1, 31, 0
3, 40598, Note_on_c, 1, 34, 107
3, 40699, Pitch_bend_c, 1, 9798
3, 40710, Pitch_bend_c, 1, 15227
3, 40721, Pitch_bend_c, 1, 16383
3, 40857, Note_on_c, 1, 34, 0
3, 40871, Pitch_bend_c, 1, 14231
3, 40882, Pitch_bend_c, 1, 10151
3, 40894, Pitch_bend_c, 1, 8609
3, 40905, Pitch_bend_c, 1, 8192
3, 41004, Note_on_c, 1, 30, 97
3, 41113, Note_on_c, 1, 30, 0
3, 41188, Note_on_c, 1, 31, 96
3, 41298, Note_on_c, 1, 31, 0
3, 41367, Note_on_c, 1, 34, 101
3, 41461, Pitch_bend_c, 1, 9637
3, 41472, Pitch_bend_c, 1, 14713
3, 41484, Pitch_bend_c, 1, 16383
3, 41632, Pitch_bend_c, 1, 15452
3, 41634, Note_on_c, 1, 34, 0
3, 41645, Pitch_bend_c, 1, 10729
3, 41656, Pitch_bend_c, 1, 8706
3, 41667, Pitch_bend_c, 1, 8192
3, 41776, Note_on_c, 1, 30, 96
3, 41896, Note_on_c, 1, 30, 0
3, 41960, Note_on_c, 1, 31, 96
3, 42090, Note_on_c, 1, 31, 0
3, 42144, Note_on_c, 1, 34, 97
3, 42239, Note_on_c, 1, 34, 0
3, 42241, Note_on_c, 1, 36, 110
3, 42471, Note_on_c, 1, 36, 0
3, 42537, Note_on_c, 1, 30, 94
3, 42642, Note_on_c, 1, 30, 0
3, 42731, Note_on_c, 1, 31, 93
3, 42836, Note_on_c, 1, 31, 0
3, 42905, Note_on_c, 1, 34, 114
3, 43001, Pitch_bend_c, 1, 9701
3, 43012, Pitch_bend_c, 1, 14552
3, 43023, Pitch_bend_c, 1, 16383
3, 43153, Pitch_bend_c, 1, 14906
3, 43162, Note_on_c, 1, 34, 0
3, 43165, Pitch_bend_c, 1, 10633
3, 43176, Pitch_bend_c, 1, 8706
3, 43187, Pitch_bend_c, 1, 8192
3, 43307, Note_on_c, 1, 30, 96
3, 43411, Note_on_c, 1, 30, 0
3, 43496, Note_on_c, 1, 31, 94
3, 43596, Note_on_c, 1, 31, 0
3, 43670, Note_on_c, 1, 34, 107
3, 43771, Pitch_bend_c, 1, 9798
3, 43782, Pitch_bend_c, 1, 15227
3, 43793, Pitch_bend_c, 1, 16383
3, 43929, Note_on_c, 1, 34, 0
3, 43943, Pitch_bend_c, 1, 14231
3, 43954, Pitch_bend_c, 1, 10151
3, 43966, Pitch_bend_c, 1, 8609
3, 43977, Pitch_bend_c, 1, 8192
3, 44076, Note_on_c, 1, 30, 97
3, 44185, Note_on_c, 1, 30, 0
3, 44260, Note_on_c, 1, 31, 96
3, 44370, Note_on_c, 1, 31, 0
3, 44439, Note_on_c, 1, 34, 101
3, 44533, Pitch_bend_c, 1, 9637
3, 44544, Pitch_bend_c, 1, 14713
3, 44556, Pitch_bend_c, 1, 16383
3, 44704, Pitch_bend_c, 1, 15452
3, 44706, Note_on_c, 1, 34, 0
3, 44717, Pitch_bend_c, 1, 10729
3, 44728, Pitch_bend_c, 1, 8706
3, 44739, Pitch_bend_c, 1, 8192
3, 44848, Note_on_c, 1, 30, 96
3, 44968, Note_on_c, 1, 30, 0
3, 45032, Note_on_c, 1, 31, 96
3, 45162, Note_on_c, 1, 31, 0
3, 45216, Note_on_c, 1, 34, 97
3, 45311, Note_on_c, 1, 34, 0
3, 45313, Note_on_c, 1, 36, 110
3, 45543, Note_on_c, 1, 36, 0
3, 45609, Note_on_c, 1, 30, 94
3, 45714, Note_on_c, 1, 30, 0
3, 45803, Note_on_c, 1, 31, 93
3, 45908, Note_on_c, 1, 31, 0
3, 45977, Note_on_c, 1, 34, 114
3, 46073, Pitch_bend_c, 1, 9701
3, 46084, Pitch_bend_c, 1, 14552
3, 46095, Pitch_bend_c, 1, 16383
3, 46225, Pitch_bend_c, 1, 14906
3, 46234, Note_on_c, 1, 34, 0
3, 46237, Pitch_bend_c, 1, 10633
3, 46248, Pitch_bend_c, 1, 8706
3, 46259, Pitch_bend_c, 1, 8192
3, 46379, Note_on_c, 1, 30, 96
3, 46483, Note_on_c, 1, 30, 0
3, 46568, Note_on_c, 1, 31, 94
3, 46668, Note_on_c, 1, 31, 0
3, 46742, Note_on_c, 1, 34, 107
3, 46843, Pitch_bend_c, 1, 9798
3, 46854, Pitch_bend_c, 1, 15227
3, 46865, Pitch_bend_c, 1, 16383
3, 47001, Note_on_c, 1, 34, 0
3, 47015, Pitch_bend_c, 1, 14231
3, 47026, Pitch_bend_c, 1, 10151
3, 47038, Pitch_bend_c, 1, 8609
3, 47049, Pitch_bend_c, 1, 8192
3, 47148, Note_on_c, 1, 30, 97
3, 47257, Note_on_c, 1, 30, 0
3, 47332, Note_on_c, 1, 31, 96
3, 47442, Note_on_c, 1, 31, 0
3, 47511, Note_on_c, 1, 34, 101
3, 47605, Pitch_bend_c, 1, 9637
3, 47616, Pitch_bend_c, 1, 14713
3, 47628, Pitch_bend_c, 1, 16383
3, 47776, Pitch_bend_c, 1, 15452
3, 47778, Note_on_c, 1, 34, 0
3, 47789, Pitch_bend_c, 1, 10729
3, 47800, Pitch_bend_c, 1, 8706
3, 47811, Pitch_bend_c, 1, 8192
3, 47920, Note_on_c, 1, 30, 96
3, 48040, Note_on_c, 1, 30, 0
3, 48104, Note_on_c, 1, 31, 96
3, 48234, Note_on_c, 1, 31, 0
3, 48288, Note_on_c, 1, 34, 97
3, 48383, Note_on_c, 1, 34, 0
3, 48388, Note_on_c, 1, 29, 99
3, 48607, Note_on_c, 1, 29, 0
3, 48677, Note_on_c, 1, 34, 94
3, 48777, Note_on_c, 1, 34, 0
3, 48862, Note_on_c, 1, 36, 98
3, 48972, Note_on_c, 1, 36, 0
3, 49047, Note_on_c, 1, 39, 103
3, 49138, Note_on_c, 1, 39, 0
3, 49139, Note_on_c, 1, 41, 88
3, 49358, Note_on_c, 1, 41, 0
3, 49446, Note_on_c, 1, 34, 96
3, 49532, Note_on_c, 1, 34, 0
3, 49632, Note_on_c, 1, 36, 96
3, 49726, Note_on_c, 1, 36, 0
3, 49816, Note_on_c, 1, 39, 97
3, 49910, Note_on_c, 1, 39, 0
3, 49911, Note_on_c, 1, 41, 88
3, 50110, Note_on_c, 1, 41, 0
3, 50205, Note_on_c, 1, 34, 92
3, 50295, Note_on_c, 1, 34, 0
3, 50399, Note_on_c, 1, 36, 93
3, 50499, Note_on_c, 1, 36, 0
3, 50589, Note_on_c, 1, 39, 101
3, 50695, Note_on_c, 1, 41, 85
3, 50700, Note_on_c, 1, 39, 0
3, 50905, Note_on_c, 1, 41, 0
3, 50999, Note_on_c, 1, 33, 97
3, 51109, Note_on_c, 1, 33, 0
3, 51184, Note_on_c, 1, 34, 96
3, 51280, Note_on_c, 1, 34, 0
3, 51354, Note_on_c, 1, 35, 98
3, 51454, Note_on_c, 1, 35, 0
3, 51465, Note_on_c, 1, 36, 84
3, 51649, Note_on_c, 1, 36, 0
3, 51748, Note_on_c, 1, 30, 99
3, 51833, Note_on_c, 1, 30, 0
3, 51938, Note_on_c, 1, 31, 93
3, 52033, Note_on_c, 1, 31, 0
3, 52122, Note_on_c, 1, 34, 101
3, 52217, Note_on_c, 1, 36, 84
3, 52223, Note_on_c, 1, 34, 0
3, 52432, Note_on_c, 1, 36, 0
3, 52517, Note_on_c, 1, 30, 101
3, 52603, Note_on_c, 1, 30, 0
3, 52702, Note_on_c, 1, 31, 88
3, 52792, Note_on_c, 1, 31, 0
3, 52882, Note_on_c, 1, 34, 99
3, 52967, Note_on_c, 1, 34, 0
3, 52973, Note_on_c, 1, 36, 84
3, 53216, Note_on_c, 1, 36, 0
3, 53286, Note_on_c, 1, 30, 97
3, 53376, Note_on_c, 1, 30, 0
3, 53471, Note_on_c, 1, 31, 91
3, 53556, Note_on_c, 1, 31, 0
3, 53655, Note_on_c, 1, 34, 101
3, 53755, Note_on_c, 1, 34, 0
3, 53760, Note_on_c, 1, 36, 86
3, 53994, Note_on_c, 1, 36, 0
3, 54059, Note_on_c, 1, 30, 95
3, 54126, Note_on_c, 1, 30, 0
3, 54243, Note_on_c, 1, 31, 88
3, 54317, Note_on_c, 1, 31, 0
3, 54435, Note_on_c, 1, 36, 91
3, 54521, Note_on_c, 1, 36, 0
3, 54528, Note_on_c, 1, 31, 106
3, 54748, Note_on_c, 1, 31, 0
3, 54808, Note_on_c, 1, 34, 91
3, 54929, Note_on_c, 1, 34, 0
3, 55004, Note_on_c, 1, 38, 86
3, 55119, Note_on_c, 1, 38, 0
3, 55188, Note_on_c, 1, 41, 90
3, 55294, Note_on_c, 1, 41, 0
3, 55296, Note_on_c, 1, 43, 82
3, 55475, Note_on_c, 1, 43, 0
3, 55588, Note_on_c, 1, 37, 91
3, 55663, Note_on_c, 1, 37, 0
3, 55680, Note_on_c, 1, 38, 82
3, 55756, Note_on_c, 1, 38, 0
3, 55776, Note_on_c, 1, 41, 65
3, 55857, Note_on_c, 1, 41, 0
3, 55872, Note_on_c, 1, 43, 82
3, 56021, Note_on_c, 1, 43, 0
3, 56064, Note_on_c, 1, 41, 103
3, 56184, Note_on_c, 1, 41, 0
3, 57601, Note_on_c, 1, 36, 110
3, 57831, Note_on_c, 1, 36, 0
3, 57897, Note_on_c, 1, 30, 94
3, 58002, Note_on_c, 1, 30, 0
3, 58091, Note_on_c, 1, 31, 93
3, 58196, Note_on_c, 1, 31, 0
3, 58265, Note_on_c, 1, 34, 114
3, 58361, Pitch_bend_c, 1, 9701
3, 58372, Pitch_bend_c, 1, 14552
3, 58383, Pitch_bend_c, 1, 16383
3, 58513, Pitch_bend_c, 1, 14906
3, 58522, Note_on_c, 1, 34, 0
3, 58525, Pitch_bend_c, 1, 10633
3, 58536, Pitch_bend_c, 1, 8706
3, 58547, Pitch_bend_c, 1, 8192
3, 58667, Note_on_c, 1, 30, 96
3, 58771, Note_on_c, 1, 30, 0
3, 58856, Note_on_c, 1, 31, 94
3, 58956, Note_on_c, 1, 31, 0
3, 59030, Note_on_c, 1, 34, 107
3, 59131, Pitch_bend_c, 1, 9798
3, 59142, Pitch_bend_c, 1, 15227
3, 59153, Pitch_bend_c, 1, 16383
3, 59289, Note_on_c, 1, 34, 0
3, 59303, Pitch_bend_c, 1, 14231
3, 59314, Pitch_bend_c, 1, 10151
3, 59326, Pitch_bend_c, 1, 8609
3, 59337, Pitch_bend_c, 1, 8192
3, 59436, Note_on_c, 1, 30, 97
3, 59545, Note_on_c, 1, 30, 0
3, 59620, Note_on_c, 1, 31, 96
3, 59730, Note_on_c, 1, 31, 0
3, 59799, Note_on_c, 1, 34, 101
3, 59893, Pitch_bend_c, 1, 9637
3, 59904, Pitch_bend_c, 1, 14713
3, 59916, Pitch_bend_c, 1, 16383
3, 60064, Pitch_bend_c, 1, 15452
3, 60066, Note_on_c, 1, 34, 0
3, 60077, Pitch_bend_c, 1, 10729
3, 60088, Pitch_bend_c, 1, 8706
3, 60099, Pitch_bend_c, 1, 8192
3, 60208, Note_on_c, 1, 29, 101
3, 60274, Note_on_c, 1, 29, 0
3, 60288, Note_on_c, 1, 30, 103
3, 60364, Note_on_c, 1, 30, 0
3, 60392, Note_on_c, 1, 31, 107
3, 60468, Note_on_c, 1, 31, 0
3, 60480, Note_on_c, 1, 34, 114
3, 60553, Note_on_c, 1, 34, 0
3, 60576, Note_on_c, 1, 35, 115
3, 60668, Note_on_c, 1, 35, 0
3, 60673, Note_on_c, 1, 36, 117
3, 60903, Note_on_c, 1, 36, 0
3, 60969, Note_on_c, 1, 30, 94
3, 61074, Note_on_c, 1, 30, 0
3, 61163, Note_on_c, 1, 31, 93
3, 61268, Note_on_c, 1, 31, 0
3, 61337, Note_on_c, 1, 34, 114
3, 61433, Pitch_bend_c, 1, 9701
3, 61444, Pitch_bend_c, 1, 14552
3, 61455, Pitch_bend_c, 1, 16383
3, 61585, Pitch_bend_c, 1, 14906
3, 61594, Note_on_c, 1, 34, 0
3, 61597, Pitch_bend_c, 1, 10633
3, 61608, Pitch_bend_c, 1, 8706
3, 61619, Pitch_bend_c, 1, 8192
3, 61739, Note_on_c, 1, 30, 96
3, 61843, Note_on_c, 1, 30, 0
3, 61928, Note_on_c, 1, 31, 94
3, 62028, Note_on_c, 1, 31, 0
3, 62102, Note_on_c, 1, 34, 107
3, 62203, Pitch_bend_c, 1, 9798
3, 62214, Pitch_bend_c, 1, 15227
3, 62225, Pitch_bend_c, 1, 16383
3, 62361, Note_on_c, 1, 34, 0
3, 62375, Pitch_bend_c, 1, 14231
3, 62386, Pitch_bend_c, 1, 10151
3, 62398, Pitch_bend_c, 1, 8609
3, 62409, Pitch_bend_c, 1, 8192
3, 62508, Note_on_c, 1, 30, 97
3, 62617, Note_on_c, 1, 30, 0
3, 62692, Note_on_c, 1, 31, 96
3, 62802, Note_on_c, 1, 31, 0
3, 62871, Note_on_c, 1, 34, 101
3, 62965, Pitch_bend_c, 1, 9637
3, 62976, Pitch_bend_c, 1, 14713
3, 62988, Pitch_bend_c, 1, 16383
3, 63136, Pitch_bend_c, 1, 15452
3, 63138, Note_on_c, 1, 34, 0
3, 63149, Pitch_bend_c, 1, 10729
3, 63160, Pitch_bend_c, 1, 8706
3, 63171, Pitch_bend_c, 1, 8192
3, 63280, Note_on_c, 1, 30, 96
3, 63400, Note_on_c, 1, 30, 0
3, 63464, Note_on_c, 1, 31, 96
3, 63594, Note_on_c, 1, 31, 0
3, 63648, Note_on_c, 1, 34, 97
3, 63743, Note_on_c, 1, 34, 0
3, 63745, Note_on_c, 1, 36, 110
3, 63975, Note_on_c, 1, 36, 0
3, 64041, Note_on_c, 1, 30, 94
3, 64146, Note_on_c, 1, 30, 0
3, 64235, Note_on_c, 1, 31, 93
3, 64340, Note_on_c, 1, 31, 0
3, 64409, Note_on_c, 1, 34, 114
3, 64505, Pitch_bend_c, 1, 9701
3, 64516, Pitch_bend_c, 1, 14552
3, 64527, Pitch_bend_c, 1, 16383
3, 64657, Pitch_bend_c, 1, 14906
3, 64666, Note_on_c, 1, 34, 0
3, 64669, Pitch_bend_c, 1, 10633
3, 64680, Pitch_bend_c, 1, 8706
3, 64691, Pitch_bend_c, 1, 8192
3, 64811, Note_on_c, 1, 30, 96
3, 64915, Note_on_c, 1, 30, 0
3, 65000, Note_on_c, 1, 31, 94
3, 65100, Note_on_c, 1, 31, 0
3, 65174, Note_on_c, 1, 34, 107
3, 65275, Pitch_bend_c, 1, 9798
3, 65286, Pitch_bend_c, 1, 15227
3, 65297, Pitch_bend_c, 1, 16383
3, 65433, Note_on_c, 1, 34, 0
3, 65447, Pitch_bend_c, 1, 14231
3, 65458, Pitch_bend_c, 1, 10151
3, 65470, Pitch_bend_c, 1, 8609
3, 65481, Pitch_bend_c, 1, 8192
3, 65580, Note_on_c, 1, 30, 97
3, 65689, Note_on_c, 1, 30, 0
3, 65764, Note_on_c, 1, 31, 96
3, 65874, Note_on_c, 1, 31, 0
3, 65943, Note_on_c, 1, 34, 101
3, 66037, Pitch_bend_c, 1, 9637
3, 66048, Pitch_bend_c, 1, 14713
3, 66060, Pitch_bend_c, 1, 16383
3, 66208, Pitch_bend_c, 1, 15452
3, 66210, Note_on_c, 1, 34, 0
3, 66221, Pitch_bend_c, 1, 10729
3, 66232, Pitch_bend_c, 1, 8706
3, 66243, Pitch_bend_c, 1, 8192
3, 66352, Note_on_c, 1, 30, 96
3, 66472, Note_on_c, 1, 30, 0
3, 66536, Note_on_c, 1, 31, 96
3, 66666, Note_on_c, 1, 31, 0
3, 66720, Note_on_c, 1, 34, 97
3, 66815, Note_on_c, 1, 34, 0
3, 66820, Note_on_c, 1, 29, 99
3, 67039, Note_on_c, 1, 29, 0
3, 67109, Note_on_c, 1, 34, 94
3, 67209, Note_on_c, 1, 34, 0
3, 67294, Note_on_c, 1, 36, 98
3, 67404, Note_on_c, 1, 36, 0
3, 67479, Note_on_c, 1, 39, 103
3, 67570, Note_on_c, 1, 39, 0
3, 67571, Note_on_c, 1, 41, 88
3, 67790, Note_on_c, 1, 41, 0
3, 67878, Note_on_c, 1, 34, 96
3, 67964, Note_on_c, 1, 34, 0
3, 68064, Note_on_c, 1, 36, 96
3, 68158, Note_on_c, 1, 36, 0
3, 68248, Note_on_c, 1, 39, 97
3, 68342, Note_on_c, 1, 39, 0
3, 68343, Note_on_c, 1, 41, 88
3, 68542, Note_on_c, 1, 41, 0
3, 68637, Note_on_c, 1, 34, 92
3, 68727, Note_on_c, 1, 34, 0
3, 68831, Note_on_c, 1, 36, 93
3, 68931, Note_on_c, 1, 36, 0
3, 69021, Note_on_c, 1, 39, 101
3, 69127, Note_on_c, 1, 41, 85
3, 69132, Note_on_c, 1, 39, 0
3, 69337, Note_on_c, 1, 41, 0
3, 69431, Note_on_c, 1, 33, 97
3, 69541, Note_on_c, 1, 33, 0
3, 69616, Note_on_c, 1, 34, 96
3, 69712, Note_on_c, 1, 34, 0
3, 69786, Note_on_c, 1, 35, 98
3, 69886, Note_on_c, 1, 35, 0
3, 69897, Note_on_c, 1, 36, 84
3, 70081, Note_on_c, 1, 36, 0
3, 70180, Note_on_c, 1, 30, 99
3, 70265, Note_on_c, 1, 30, 0
3, 70370, Note_on_c, 1, 31, 93
3, 70465, Note_on_c, 1, 31, 0
3, 70554, Note_on_c, 1, 34, 101
3, 70649, Note_on_c, 1, 36, 84
3, 70655, Note_on_c, 1, 34, 0
3, 70864, Note_on_c, 1, 36, 0
3, 70949, Note_on_c, 1, 30, 101
3, 71035, Note_on_c, 1, 30, 0
3, 71134, Note_on_c, 1, 31, 88
3, 71224, Note_on_c, 1, 31, 0
3, 71314, Note_on_c, 1, 34, 99
3, 71399, Note_on_c, 1, 34, 0
3, 71405, Note_on_c, 1, 36, 84
3, 71648, Note_on_c, 1, 36, 0
3, 71718, Note_on_c, 1, 30, 97
3, 71808, Note_on_c, 1, 30, 0
3, 71903, Note_on_c, 1, 31, 91
3, 71988, Note_on_c, 1, 31, 0
3, 72087, Note_on_c, 1, 34, 101
3, 72187, Note_on_c, 1, 34, 0
3, 72192, Note_on_c, 1, 36, 86
3, 72426, Note_on_c, 1, 36, 0
3, 72491, Note_on_c, 1, 30, 95
3, 72558, Note_on_c, 1, 30, 0
3, 72675, Note_on_c, 1, 31, 88
3, 72749, Note_on_c, 1, 31, 0
3, 72867, Note_on_c, 1, 36, 91
3, 72953, Note_on_c, 1, 36, 0
3, 72960, Note_on_c, 1, 31, 106
3, 73180, Note_on_c, 1, 31, 0
3, 73240, Note_on_c, 1, 34, 91
3, 73361, Note_on_c, 1, 34, 0
3, 73436, Note_on_c, 1, 38, 86
3, 73551, Note_on_c, 1, 38, 0
3, 73620, Note_on_c, 1, 41, 90
3, 73726, Note_on_c, 1, 41, 0
3, 73728, Note_on_c, 1, 43, 82
3, 73907, Note_on_c, 1, 43, 0
3, 74020, Note_on_c, 1, 37, 91
3, 74095, Note_on_c, 1, 37, 0
3, 74112, Note_on_c, 1, 38, 82
3, 74188, Note_on_c, 1, 38, 0
3, 74208, Note_on_c, 1, 41, 82
3, 74289, Note_on_c, 1, 41, 0
3, 74304, Note_on_c, 1, 43, 82
3, 74393, Note_on_c, 1, 43, 0
3, 74400, Note_on_c, 1, 42, 82
3, 74495, Note_on_c, 1, 42, 0
3, 74496, Note_on_c, 1, 41, 103
3, 74616, Note_on_c, 1, 41, 0
3, 76033, Note_on_c, 1, 36, 110
3, 76263, Note_on_c, 1, 36, 0
3, 76329, Note_on_c, 1, 30, 94
3, 76434, Note_on_c, 1, 30, 0
3, 76523, Note_on_c, 1, 31, 93
3, 76628, Note_on_c, 1, 31, 0
3, 76697, Note_on_c, 1, 34, 114
3, 76793, Pitch_bend_c, 1, 9701
3, 76804, Pitch_bend_c, 1, 14552
3, 76815, Pitch_bend_c, 1, 16383
3, 76945, Pitch_bend_c, 1, 14906
3, 76954, Note_on_c, 1, 34, 0
3, 76957, Pitch_bend_c, 1, 10633
3, 76968, Pitch_bend_c, 1, 8706
3, 76979, Pitch_bend_c, 1, 8192
3, 77099, Note_on_c, 1, 30, 96
3, 77203, Note_on_c, 1, 30, 0
3, 77288, Note_on_c, 1, 31, 94
3, 77388, Note_on_c, 1, 31, 0
3, 77462, Note_on_c, 1, 34, 107
3, 77563, Pitch_bend_c, 1, 9798
3, 77574, Pitch_bend_c, 1, 15227
3, 77585, Pitch_bend_c, 1, 16383
3, 77721, Note_on_c, 1, 34, 0
3, 77735, Pitch_bend_c, 1, 14231
3, 77746, Pitch_bend_c, 1, 10151
3, 77758, Pitch_bend_c, 1, 8609
3, 77769, Pitch_bend_c, 1, 8192
3, 77868, Note_on_c, 1, 30, 97
3, 77977, Note_on_c, 1, 30, 0
3, 78052, Note_on_c, 1, 31, 96
3, 78162, Note_on_c, 1, 31, 0
3, 78231, Note_on_c, 1, 34, 101
3, 78325, Pitch_bend_c, 1, 9637
3, 78336, Pitch_bend_c, 1, 14713
3, 78348, Pitch_bend_c, 1, 16383
3, 78496, Pitch_bend_c, 1, 15452
3, 78498, Note_on_c, 1, 34, 0
3, 78509, Pitch_bend_c, 1, 10729
3, 78520, Pitch_bend_c, 1, 8706
3, 78531, Pitch_bend_c, 1, 8192
3, 78640, Note_on_c, 1, 30, 96
3, 78760, Note_on_c, 1, 30, 0
3, 78824, Note_on_c, 1, 31, 96
3, 78954, Note_on_c, 1, 31, 0
3, 79008, Note_on_c, 1, 34, 97
3, 79103, Note_on_c, 1, 34, 0
3, 79105, Note_on_c, 1, 36, 110
3, 79335, Note_on_c, 1, 36, 0
3, 79401, Note_on_c, 1, 30, 94
3, 79506, Note_on_c, 1, 30, 0
3, 79595, Note_on_c, 1, 31, 93
3, 79700, Note_on_c, 1, 31, 0
3, 79769, Note_on_c, 1, 34, 114
3, 79865, Pitch_bend_c, 1, 9701
3, 79876, Pitch_bend_c, 1, 14552
3, 79887, Pitch_bend_c, 1, 16383
3, 80017, Pitch_bend_c, 1, 14906
3, 80026, Note_on_c, 1, 34, 0
3, 80029, Pitch_bend_c, 1, 10633
3, 80040, Pitch_bend_c, 1, 8706
3, 80051, Pitch_bend_c, 1, 8192
3, 80171, Note_on_c, 1, 30, 96
3, 80275, Note_on_c, 1, 30, 0
3, 80360, Note_on_c, 1, 31, 94
3, 80460, Note_on_c, 1, 31, 0
3, 80534, Note_on_c, 1, 34, 107
3, 80638, Note_on_c, 1, 34, 0
3, 80641, Note_on_c, 1, 36, 110
3, 80871, Note_on_c, 1, 36, 0
3, 80937, Note_on_c, 1, 30, 94
3, 81042, Note_on_c, 1, 30, 0
3, 81131, Note_on_c, 1, 31, 93
3, 81236, Note_on_c, 1, 31, 0
3, 81305, Note_on_c, 1, 34, 114
3, 81401, Pitch_bend_c, 1, 9701
3, 81412, Pitch_bend_c, 1, 14552
3, 81423, Pitch_bend_c, 1, 16383
3, 81553, Pitch_bend_c, 1, 14906
3, 81562, Note_on_c, 1, 34, 0
3, 81565, Pitch_bend_c, 1, 10633
3, 81576, Pitch_bend_c, 1, 8706
3, 81587, Pitch_bend_c, 1, 8192
3, 81707, Note_on_c, 1, 30, 96
3, 81811, Note_on_c, 1, 30, 0
3, 81896, Note_on_c, 1, 31, 94
3, 81996, Note_on_c, 1, 31, 0
3, 82070, Note_on_c, 1, 34, 107
3, 82177, Note_on_c, 1, 36, 110
3, 82178, Note_on_c, 1, 34, 0
3, 82407, Note_on_c, 1, 36, 0
3, 82473, Note_on_c, 1, 30, 94
3, 82578, Note_on_c, 1, 30, 0
3, 82667, Note_on_c, 1, 31, 93
3, 82772, Note_on_c, 1, 31, 0
3, 82841, Note_on_c, 1, 34, 114
3, 82937, Pitch_bend_c, 1, 9701
3, 82948, Pitch_bend_c, 1, 14552
3, 82959, Pitch_bend_c, 1, 16383
3, 83089, Pitch_bend_c, 1, 14906
3, 83098, Note_on_c, 1, 34, 0
3, 83101, Pitch_bend_c, 1, 10633
3, 83112, Pitch_bend_c, 1, 8706
3, 83123, Pitch_bend_c, 1, 8192
3, 83243, Note_on_c, 1, 30, 96
3, 83347, Note_on_c, 1, 30, 0
3, 83432, Note_on_c, 1, 31, 94
3, 83532, Note_on_c, 1, 31, 0
3, 83606, Note_on_c, 1, 34, 107
3, 83713, Note_on_c, 1, 36, 110
3, 83714, Note_on_c, 1, 34, 0
3, 83943, Note_on_c, 1, 36, 0
3, 84009, Note_on_c, 1, 30, 94
3, 84114, Note_on_c, 1, 30, 0
3, 84203, Note_on_c, 1, 31, 93
3, 84308, Note_on_c, 1, 31, 0
3, 84377, Note_on_c, 1, 34, 114
3, 84473, Pitch_bend_c, 1, 9701
3, 84484, Pitch_bend_c, 1, 14552
3, 84495, Pitch_bend_c, 1, 16383
3, 84625, Pitch_bend_c, 1, 14906
3, 84634, Note_on_c, 1, 34, 0
3, 84637, Pitch_bend_c, 1, 10633
3, 84648, Pitch_bend_c, 1, 8706
3, 84659, Pitch_bend_c, 1, 8192
3, 84779, Note_on_c, 1, 30, 96
3, 84883, Note_on_c, 1, 30, 0
3, 84968, Note_on_c, 1, 31, 94
3, 85068, Note_on_c, 1, 31, 0
3, 85142, Note_on_c, 1, 34, 107
3, 85248, Note_on_c, 1, 34, 0
3, 85249, Note_on_c, 1, 36, 110
3, 85479, Note_on_c, 1, 36, 0
3, 85545, Note_on_c, 1, 30, 94
3, 85650, Note_on_c, 1, 30, 0
3, 85739, Note_on_c, 1, 31, 93
3, 85844, Note_on_c, 1, 31, 0
3, 85913, Note_on_c, 1, 34, 114
3, 86009, Pitch_bend_c, 1, 9701
3, 86020, Pitch_bend_c, 1, 14552
3, 86031, Pitch_bend_c, 1, 16383
3, 86161, Pitch_bend_c, 1, 14906
3, 86170, Note_on_c, 1, 34, 0
3, 86173, Pitch_bend_c, 1, 10633
3, 86184, Pitch_bend_c, 1, 8706
3, 86195, Pitch_bend_c, 1, 8192
3, 86315, Note_on_c, 1, 30, 96
3, 86399, Note_on_c, 1, 30, 0
3, 86507, Note_on_c, 1, 31, 88
3, 86688, Note_on_c, 1, 34, 88
3, 86698, Note_on_c, 1, 31, 0
3, 86783, Note_on_c, 1, 34, 0
3, 86784, Note_on_c, 1, 36, 88
3, 86975, Note_on_c, 1, 36, 0
3, 86976, Note_on_c, 1, 36, 88
3, 87071, Note_on_c, 1, 36, 0
3, 87072, Note_on_c, 1, 48, 88
3, 87167, Note_on_c, 1, 48, 0
3, 87168, Note_on_c, 1, 36, 88
3, 87263, Note_on_c, 1, 36, 0
3, 87264, Note_on_c, 1, 48, 88
3, 87359, Note_on_c, 1, 48, 0
3, 87360, Note_on_c, 1, 36, 88
3, 87455, Note_on_c, 1, 36, 0
3, 87456, Note_on_c, 1, 48, 88
3, 87551, Note_on_c, 1, 48, 0
3, 87552, Note_on_c, 1, 36, 88
3, 87647, Note_on_c, 1, 36, 0
3, 87648, Note_on_c, 1, 48, 88
3, 87743, Note_on_c, 1, 48, 0
3, 87744, Note_on_c, 1, 36, 88
3, 87839, Note_on_c, 1, 36, 0
3, 87840, Note_on_c, 1, 48, 88
3, 87935, Note_on_c, 1, 48, 0
3, 87936, Note_on_c, 1, 36, 88
3, 88031, Note_on_c, 1, 36, 0
3, 88032, Note_on_c, 1, 48, 88
3, 88127, Note_on_c, 1, 48, 0
3, 88128, Note_on_c, 1, 36, 88
3, 88223, Note_on_c, 1, 36, 0
3, 88224, Note_on_c, 1, 48, 88
3, 88319, Note_on_c, 1, 48, 0
3, 88320, Note_on_c, 1, 36, 88
3, 88415, Note_on_c, 1, 36, 0
3, 88416, Note_on_c, 1, 48, 88
3, 88511, Note_on_c, 1, 48, 0
3, 88512, Note_on_c, 1, 36, 88
3, 88607, Note_on_c, 1, 36, 0
3, 88608, Note_on_c, 1, 48, 88
3, 88703, Note_on_c, 1, 48, 0
3, 88704, Note_on_c, 1, 36, 88
3, 88799, Note_on_c, 1, 36, 0
3, 88800, Note_on_c, 1, 48, 88
3, 88895, Note_on_c, 1, 48, 0
3, 88896, Note_on_c, 1, 36, 88
3, 88991, Note_on_c, 1, 36, 0
3, 88992, Note_on_c, 1, 48, 88
3, 89087, Note_on_c, 1, 48, 0
3, 89088, Note_on_c, 1, 36, 88
3, 89183, Note_on_c, 1, 36, 0
3, 89183, End_track
4, 0, Start_track
4, 0, Channel_prefix, 2
4, 0, Text_t, "guitar  "
4, 144, Text_t, "guitar"
4, 2304, Note_on_c, 2, 60, 92
4, 2304, Note_on_c, 2, 64, 75
4, 2304, Note_on_c, 2, 72, 75
4, 2304, Channel_aftertouch_c, 2, 0
4, 2328, Channel_aftertouch_c, 2, 0
4, 2428, Note_on_c, 2, 64, 0
4, 2488, Note_on_c, 2, 70, 49
4, 2490, Note_on_c, 2, 72, 0
4, 2494, Note_on_c, 2, 67, 62
4, 2502, Note_on_c, 2, 64, 48
4, 2511, Note_on_c, 2, 70, 0
4, 2517, Note_on_c, 2, 67, 0
4, 2525, Note_on_c, 2, 64, 0
4, 2538, Note_on_c, 2, 60, 0
4, 2679, Note_on_c, 2, 70, 76
4, 2685, Note_on_c, 2, 64, 68
4, 2686, Note_on_c, 2, 67, 76
4, 2702, Note_on_c, 2, 70, 0
4, 2708, Note_on_c, 2, 64, 0
4, 2709, Note_on_c, 2, 67, 0
4, 2873, Note_on_c, 2, 64, 64
4, 2873, Note_on_c, 2, 70, 76
4, 2874, Note_on_c, 2, 67, 82
4, 2896, Note_on_c, 2, 64, 0
4, 2896, Note_on_c, 2, 70, 0
4, 2897, Note_on_c, 2, 67, 0
4, 2968, Note_on_c, 2, 60, 90
4, 2968, Note_on_c, 2, 67, 84
4, 2969, Note_on_c, 2, 72, 78
4, 3003, Channel_aftertouch_c, 2, 0
4, 3197, Note_on_c, 2, 60, 0
4, 3217, Note_on_c, 2, 67, 0
4, 3248, Note_on_c, 2, 72, 0
4, 3253, Note_on_c, 2, 64, 56
4, 3254, Note_on_c, 2, 67, 66
4, 3261, Note_on_c, 2, 70, 53
4, 3277, Note_on_c, 2, 67, 0
4, 3278, Note_on_c, 2, 64, 0
4, 3284, Note_on_c, 2, 70, 0
4, 3449, Note_on_c, 2, 64, 65
4, 3449, Note_on_c, 2, 67, 78
4, 3449, Note_on_c, 2, 70, 76
4, 3472, Note_on_c, 2, 64, 0
4, 3472, Note_on_c, 2, 67, 0
4, 3472, Note_on_c, 2, 70, 0
4, 3637, Note_on_c, 2, 64, 61
4, 3637, Note_on_c, 2, 70, 79
4, 3644, Note_on_c, 2, 67, 73
4, 3660, Note_on_c, 2, 64, 0
4, 3660, Note_on_c, 2, 70, 0
4, 3667, Note_on_c, 2, 67, 0
4, 3736, Note_on_c, 2, 67, 75
4, 3736, Note_on_c, 2, 72, 73
4, 3743, Note_on_c, 2, 60, 96
4, 3749, Channel_aftertouch_c, 2, 0
4, 3776, Channel_aftertouch_c, 2, 0
4, 3985, Note_on_c, 2, 67, 0
4, 4021, Note_on_c, 2, 72, 0
4, 4022, Note_on_c, 2, 60, 0
4, 4025, Note_on_c, 2, 67, 62
4, 4026, Note_on_c, 2, 64, 55
4, 4026, Note_on_c, 2, 70, 52
4, 4048, Note_on_c, 2, 67, 0
4, 4049, Note_on_c, 2, 64, 0
4, 4049, Note_on_c, 2, 70, 0
4, 4214, Note_on_c, 2, 64, 58
4, 4214, Note_on_c, 2, 70, 74
4, 4221, Note_on_c, 2, 67, 73
4, 4237, Note_on_c, 2, 64, 0
4, 4239, Note_on_c, 2, 70, 0
4, 4244, Note_on_c, 2, 67, 0
4, 4398, Note_on_c, 2, 64, 63
4, 4404, Note_on_c, 2, 67, 76
4, 4404, Note_on_c, 2, 70, 76
4, 4421, Note_on_c, 2, 64, 0
4, 4427, Note_on_c, 2, 67, 0
4, 4427, Note_on_c, 2, 70, 0
4, 4498, Note_on_c, 2, 60, 95
4, 4498, Note_on_c, 2, 67, 76
4, 4505, Note_on_c, 2, 72, 70
4, 4530, Channel_aftertouch_c, 2, 0
4, 4735, Note_on_c, 2, 60, 0
4, 4751, Note_on_c, 2, 67, 0
4, 4786, Note_on_c, 2, 67, 65
4, 4786, Note_on_c, 2, 70, 58
4, 4787, Note_on_c, 2, 64, 56
4, 4789, Note_on_c, 2, 72, 0
4, 4810, Note_on_c, 2, 64, 0
4, 4810, Note_on_c, 2, 67, 0
4, 4816, Note_on_c, 2, 70, 0
4, 4981, Note_on_c, 2, 64, 58
4, 4981, Note_on_c, 2, 70, 67
4, 4988, Note_on_c, 2, 67, 64
4, 5004, Note_on_c, 2, 64, 0
4, 5004, Note_on_c, 2, 70, 0
4, 5011, Note_on_c, 2, 67, 0
4, 5175, Note_on_c, 2, 64, 59
4, 5175, Note_on_c, 2, 67, 80
4, 5175, Note_on_c, 2, 70, 76
4, 5198, Note_on_c, 2, 64, 0
4, 5198, Note_on_c, 2, 67, 0
4, 5198, Note_on_c, 2, 70, 0
4, 5376, Note_on_c, 2, 60, 92
4, 5376, Note_on_c, 2, 64, 75
4, 5376, Note_on_c, 2, 72, 75
4, 5376, Channel_aftertouch_c, 2, 0
4, 5400, Channel_aftertouch_c, 2, 0
4, 5500, Note_on_c, 2, 64, 0
4, 5560, Note_on_c, 2, 70, 49
4, 5562, Note_on_c, 2, 72, 0
4, 5566, Note_on_c, 2, 67, 62
4, 5574, Note_on_c, 2, 64, 48
4, 5583, Note_on_c, 2, 70, 0
4, 5589, Note_on_c, 2, 67, 0
4, 5597, Note_on_c, 2, 64, 0
4, 5610, Note_on_c, 2, 60, 0
4, 5751, Note_on_c, 2, 70, 76
4, 5757, Note_on_c, 2, 64, 68
4, 5758, Note_on_c, 2, 67, 76
4, 5774, Note_on_c, 2, 70, 0
4, 5780, Note_on_c, 2, 64, 0
4, 5781, Note_on_c, 2, 67, 0
4, 5945, Note_on_c, 2, 64, 64
4, 5945, Note_on_c, 2, 70, 76
4, 5946, Note_on_c, 2, 67, 82
4, 5968, Note_on_c, 2, 64, 0
4, 5968, Note_on_c, 2, 70, 0
4, 5969, Note_on_c, 2, 67, 0
4, 6040, Note_on_c, 2, 60, 90
4, 6040, Note_on_c, 2, 67, 84
4, 6041, Note_on_c, 2, 72, 78
4, 6075, Channel_aftertouch_c, 2, 0
4, 6269, Note_on_c, 2, 72, 0
4, 6289, Note_on_c, 2, 67, 0
4, 6320, Note_on_c, 2, 60, 0
4, 6325, Note_on_c, 2, 64, 56
4, 6326, Note_on_c, 2, 67, 66
4, 6333, Note_on_c, 2, 70, 53
4, 6349, Note_on_c, 2, 67, 0
4, 6350, Note_on_c, 2, 64, 0
4, 6356, Note_on_c, 2, 70, 0
4, 6521, Note_on_c, 2, 64, 65
4, 6521, Note_on_c, 2, 67, 78
4, 6521, Note_on_c, 2, 70, 76
4, 6544, Note_on_c, 2, 64, 0
4, 6544, Note_on_c, 2, 67, 0
4, 6544, Note_on_c, 2, 70, 0
4, 6709, Note_on_c, 2, 64, 61
4, 6709, Note_on_c, 2, 70, 79
4, 6716, Note_on_c, 2, 67, 73
4, 6732, Note_on_c, 2, 64, 0
4, 6732, Note_on_c, 2, 70, 0
4, 6739, Note_on_c, 2, 67, 0
4, 6808, Note_on_c, 2, 67, 75
4, 6808, Note_on_c, 2, 72, 73
4, 6815, Note_on_c, 2, 60, 96
4, 6821, Channel_aftertouch_c, 2, 0
4, 6848, Channel_aftertouch_c, 2, 0
4, 7057, Note_on_c, 2, 67, 0
4, 7093, Note_on_c, 2, 72, 0
4, 7094, Note_on_c, 2, 60, 0
4, 7097, Note_on_c, 2, 67, 62
4, 7098, Note_on_c, 2, 64, 55
4, 7098, Note_on_c, 2, 70, 52
4, 7120, Note_on_c, 2, 67, 0
4, 7121, Note_on_c, 2, 64, 0
4, 7121, Note_on_c, 2, 70, 0
4, 7286, Note_on_c, 2, 64, 58
4, 7286, Note_on_c, 2, 70, 74
4, 7293, Note_on_c, 2, 67, 73
4, 7309, Note_on_c, 2, 64, 0
4, 7311, Note_on_c, 2, 70, 0
4, 7316, Note_on_c, 2, 67, 0
4, 7470, Note_on_c, 2, 64, 63
4, 7476, Note_on_c, 2, 67, 76
4, 7476, Note_on_c, 2, 70, 76
4, 7493, Note_on_c, 2, 64, 0
4, 7499, Note_on_c, 2, 67, 0
4, 7499, Note_on_c, 2, 70, 0
4, 7570, Note_on_c, 2, 60, 95
4, 7570, Note_on_c, 2, 67, 76
4, 7577, Note_on_c, 2, 72, 70
4, 7602, Channel_aftertouch_c, 2, 0
4, 7807, Note_on_c, 2, 72, 0
4, 7823, Note_on_c, 2, 67, 0
4, 7858, Note_on_c, 2, 67, 65
4, 7858, Note_on_c, 2, 70, 58
4, 7859, Note_on_c, 2, 64, 56
4, 7861, Note_on_c, 2, 60, 0
4, 7882, Note_on_c, 2, 64, 0
4, 7882, Note_on_c, 2, 67, 0
4, 7888, Note_on_c, 2, 70, 0
4, 8053, Note_on_c, 2, 64, 58
4, 8053, Note_on_c, 2, 70, 67
4, 8060, Note_on_c, 2, 67, 64
4, 8076, Note_on_c, 2, 64, 0
4, 8076, Note_on_c, 2, 70, 0
4, 8083, Note_on_c, 2, 67, 0
4, 8247, Note_on_c, 2, 64, 59
4, 8247, Note_on_c, 2, 67, 80
4, 8247, Note_on_c, 2, 70, 76
4, 8270, Note_on_c, 2, 64, 0
4, 8270, Note_on_c, 2, 67, 0
4, 8270, Note_on_c, 2, 70, 0
4, 8448, Note_on_c, 2, 60, 92
4, 8448, Note_on_c, 2, 64, 75
4, 8448, Note_on_c, 2, 72, 75
4, 8448, Channel_aftertouch_c, 2, 0
4, 8472, Channel_aftertouch_c, 2, 0
4, 8572, Note_on_c, 2, 64, 0
4, 8632, Note_on_c, 2, 70, 49
4, 8634, Note_on_c, 2, 72, 0
4, 8638, Note_on_c, 2, 67, 62
4, 8646, Note_on_c, 2, 64, 48
4, 8655, Note_on_c, 2, 70, 0
4, 8661, Note_on_c, 2, 67, 0
4, 8669, Note_on_c, 2, 64, 0
4, 8682, Note_on_c, 2, 60, 0
4, 8823, Note_on_c, 2, 70, 76
4, 8829, Note_on_c, 2, 64, 68
4, 8830, Note_on_c, 2, 67, 76
4, 8846, Note_on_c, 2, 70, 0
4, 8852, Note_on_c, 2, 64, 0
4, 8853, Note_on_c, 2, 67, 0
4, 9017, Note_on_c, 2, 64, 64
4, 9017, Note_on_c, 2, 70, 76
4, 9018, Note_on_c, 2, 67, 82
4, 9040, Note_on_c, 2, 64, 0
4, 9040, Note_on_c, 2, 70, 0
4, 9041, Note_on_c, 2, 67, 0
4, 9112, Note_on_c, 2, 60, 90
4, 9112, Note_on_c, 2, 67, 84
4, 9113, Note_on_c, 2, 72, 78
4, 9147, Channel_aftertouch_c, 2, 0
4, 9341, Note_on_c, 2, 72, 0
4, 9361, Note_on_c, 2, 67, 0
4, 9392, Note_on_c, 2, 60, 0
4, 9397, Note_on_c, 2, 64, 56
4, 9398, Note_on_c, 2, 67, 66
4, 9405, Note_on_c, 2, 70, 53
4, 9421, Note_on_c, 2, 67, 0
4, 9422, Note_on_c, 2, 64, 0
4, 9428, Note_on_c, 2, 70, 0
4, 9593, Note_on_c, 2, 64, 65
4, 9593, Note_on_c, 2, 67, 78
4, 9593, Note_on_c, 2, 70, 76
4, 9616, Note_on_c, 2, 64, 0
4, 9616, Note_on_c, 2, 67, 0
4, 9616, Note_on_c, 2, 70, 0
4, 9781, Note_on_c, 2, 64, 61
4, 9781, Note_on_c, 2, 70, 79
4, 9788, Note_on_c, 2, 67, 73
4, 9804, Note_on_c, 2, 64, 0
4, 9804, Note_on_c, 2, 70, 0
4, 9811, Note_on_c, 2, 67, 0
4, 9880, Note_on_c, 2, 67, 75
4, 9880, Note_on_c, 2, 72, 73
4, 9887, Note_on_c, 2, 60, 96
4, 9893, Channel_aftertouch_c, 2, 0
4, 9920, Channel_aftertouch_c, 2, 0
4, 10129, Note_on_c, 2, 67, 0
4, 10165, Note_on_c, 2, 72, 0
4, 10166, Note_on_c, 2, 60, 0
4, 10169, Note_on_c, 2, 67, 62
4, 10170, Note_on_c, 2, 64, 55
4, 10170, Note_on_c, 2, 70, 52
4, 10192, Note_on_c, 2, 67, 0
4, 10193, Note_on_c, 2, 64, 0
4, 10193, Note_on_c, 2, 70, 0
4, 10358, Note_on_c, 2, 64, 58
4, 10358, Note_on_c, 2, 70, 74
4, 10365, Note_on_c, 2, 67, 73
4, 10381, Note_on_c, 2, 64, 0
4, 10383, Note_on_c, 2, 70, 0
4, 10388, Note_on_c, 2, 67, 0
4, 10542, Note_on_c, 2, 64, 63
4, 10548, Note_on_c, 2, 67, 76
4, 10548, Note_on_c, 2, 70, 76
4, 10565, Note_on_c, 2, 64, 0
4, 10571, Note_on_c, 2, 67, 0
4, 10571, Note_on_c, 2, 70, 0
4, 10642, Note_on_c, 2, 60, 95
4, 10642, Note_on_c, 2, 67, 76
4, 10649, Note_on_c, 2, 72, 70
4, 10674, Channel_aftertouch_c, 2, 0
4, 10879, Note_on_c, 2, 72, 0
4, 10895, Note_on_c, 2, 67, 0
4, 10930, Note_on_c, 2, 67, 65
4, 10930, Note_on_c, 2, 70, 58
4, 10931, Note_on_c, 2, 64, 56
4, 10933, Note_on_c, 2, 60, 0
4, 10954, Note_on_c, 2, 64, 0
4, 10954, Note_on_c, 2, 67, 0
4, 10960, Note_on_c, 2, 70, 0
4, 11125, Note_on_c, 2, 64, 58
4, 11125, Note_on_c, 2, 70, 67
4, 11132, Note_on_c, 2, 67, 64
4, 11148, Note_on_c, 2, 64, 0
4, 11148, Note_on_c, 2, 70, 0
4, 11155, Note_on_c, 2, 67, 0
4, 11319, Note_on_c, 2, 64, 59
4, 11319, Note_on_c, 2, 67, 80
4, 11319, Note_on_c, 2, 70, 76
4, 11342, Note_on_c, 2, 64, 0
4, 11342, Note_on_c, 2, 67, 0
4, 11342, Note_on_c, 2, 70, 0
4, 11406, Note_on_c, 2, 65, 82
4, 11406, Note_on_c, 2, 77, 87
4, 11407, Note_on_c, 2, 69, 84
4, 11419, Channel_aftertouch_c, 2, 3
4, 11446, Channel_aftertouch_c, 2, 0
4, 11645, Note_on_c, 2, 77, 0
4, 11656, Note_on_c, 2, 69, 0
4, 11661, Note_on_c, 2, 65, 0
4, 11702, Note_on_c, 2, 65, 75
4, 11702, Note_on_c, 2, 75, 86
4, 11724, Note_on_c, 2, 65, 0
4, 11739, Note_on_c, 2, 75, 0
4, 11889, Note_on_c, 2, 65, 70
4, 11889, Note_on_c, 2, 75, 82
4, 11916, Note_on_c, 2, 65, 0
4, 11922, Note_on_c, 2, 75, 0
4, 12095, Note_on_c, 2, 65, 70
4, 12095, Note_on_c, 2, 75, 86
4, 12122, Note_on_c, 2, 65, 0
4, 12127, Note_on_c, 2, 75, 0
4, 12173, Note_on_c, 2, 65, 72
4, 12173, Note_on_c, 2, 77, 87
4, 12174, Note_on_c, 2, 69, 80
4, 12191, Channel_aftertouch_c, 2, 4
4, 12218, Channel_aftertouch_c, 2, 0
4, 12264, Channel_aftertouch_c, 2, 0
4, 12413, Note_on_c, 2, 77, 0
4, 12418, Note_on_c, 2, 65, 0
4, 12418, Note_on_c, 2, 69, 0
4, 12469, Note_on_c, 2, 65, 72
4, 12475, Note_on_c, 2, 75, 86
4, 12496, Note_on_c, 2, 65, 0
4, 12511, Note_on_c, 2, 75, 0
4, 12654, Note_on_c, 2, 65, 76
4, 12660, Note_on_c, 2, 75, 79
4, 12687, Note_on_c, 2, 65, 0
4, 12687, Note_on_c, 2, 75, 0
4, 12855, Note_on_c, 2, 65, 66
4, 12855, Note_on_c, 2, 75, 86
4, 12877, Note_on_c, 2, 65, 0
4, 12883, Note_on_c, 2, 75, 0
4, 12942, Note_on_c, 2, 65, 70
4, 12942, Note_on_c, 2, 69, 80
4, 12943, Note_on_c, 2, 77, 84
4, 12971, Channel_aftertouch_c, 2, 0
4, 13189, Note_on_c, 2, 77, 0
4, 13199, Note_on_c, 2, 69, 0
4, 13200, Note_on_c, 2, 65, 0
4, 13250, Note_on_c, 2, 65, 70
4, 13250, Note_on_c, 2, 75, 90
4, 13277, Note_on_c, 2, 65, 0
4, 13287, Note_on_c, 2, 75, 0
4, 13436, Note_on_c, 2, 65, 58
4, 13436, Note_on_c, 2, 75, 79
4, 13463, Note_on_c, 2, 65, 0
4, 13468, Note_on_c, 2, 75, 0
4, 13626, Note_on_c, 2, 75, 86
4, 13632, Note_on_c, 2, 65, 75
4, 13653, Note_on_c, 2, 65, 0
4, 13659, Note_on_c, 2, 75, 0
4, 13714, Note_on_c, 2, 65, 69
4, 13714, Note_on_c, 2, 77, 82
4, 13715, Note_on_c, 2, 69, 76
4, 13955, Note_on_c, 2, 77, 0
4, 13966, Note_on_c, 2, 69, 0
4, 13971, Note_on_c, 2, 65, 0
4, 14016, Note_on_c, 2, 65, 68
4, 14022, Note_on_c, 2, 75, 86
4, 14043, Note_on_c, 2, 65, 0
4, 14054, Note_on_c, 2, 75, 0
4, 14208, Note_on_c, 2, 65, 61
4, 14208, Note_on_c, 2, 75, 79
4, 14237, Note_on_c, 2, 65, 0
4, 14242, Note_on_c, 2, 75, 0
4, 14396, Note_on_c, 2, 75, 82
4, 14402, Note_on_c, 2, 65, 62
4, 14428, Note_on_c, 2, 65, 0
4, 14428, Note_on_c, 2, 75, 0
4, 14488, Note_on_c, 2, 72, 80
4, 14495, Note_on_c, 2, 60, 82
4, 14495, Note_on_c, 2, 67, 80
4, 14522, Channel_aftertouch_c, 2, 0
4, 14725, Note_on_c, 2, 60, 0
4, 14741, Note_on_c, 2, 67, 0
4, 14757, Note_on_c, 2, 72, 0
4, 14777, Note_on_c, 2, 64, 75
4, 14777, Note_on_c, 2, 70, 74
4, 14804, Note_on_c, 2, 70, 0
4, 14809, Note_on_c, 2, 64, 0
4, 14968, Note_on_c, 2, 64, 57
4, 14968, Note_on_c, 2, 70, 76
4, 14990, Note_on_c, 2, 70, 0
4, 14995, Note_on_c, 2, 64, 0
4, 15169, Note_on_c, 2, 64, 61
4, 15169, Note_on_c, 2, 70, 86
4, 15186, Note_on_c, 2, 64, 0
4, 15191, Note_on_c, 2, 70, 0
4, 15247, Note_on_c, 2, 64, 73
4, 15247, Note_on_c, 2, 72, 78
4, 15263, Channel_aftertouch_c, 2, 2
4, 15290, Channel_aftertouch_c, 2, 0
4, 15375, Channel_aftertouch_c, 2, 0
4, 15419, Channel_aftertouch_c, 2, 0
4, 15500, Note_on_c, 2, 64, 0
4, 15515, Note_on_c, 2, 72, 0
4, 15540, Note_on_c, 2, 64, 66
4, 15541, Note_on_c, 2, 70, 82
4, 15572, Note_on_c, 2, 70, 0
4, 15578, Note_on_c, 2, 64, 0
4, 15732, Note_on_c, 2, 64, 72
4, 15733, Note_on_c, 2, 70, 86
4, 15762, Note_on_c, 2, 64, 0
4, 15762, Note_on_c, 2, 70, 0
4, 15926, Note_on_c, 2, 64, 70
4, 15926, Note_on_c, 2, 70, 90
4, 15948, Note_on_c, 2, 64, 0
4, 15954, Note_on_c, 2, 70, 0
4, 16019, Note_on_c, 2, 64, 89
4, 16019, Note_on_c, 2, 72, 91
4, 16037, Channel_aftertouch_c, 2, 9
4, 16064, Channel_aftertouch_c, 2, 0
4, 16268, Note_on_c, 2, 64, 0
4, 16284, Note_on_c, 2, 72, 0
4, 16309, Note_on_c, 2, 64, 70
4, 16309, Note_on_c, 2, 70, 86
4, 16342, Note_on_c, 2, 64, 0
4, 16342, Note_on_c, 2, 70, 0
4, 16506, Note_on_c, 2, 64, 69
4, 16506, Note_on_c, 2, 70, 86
4, 16523, Note_on_c, 2, 64, 0
4, 16529, Note_on_c, 2, 70, 0
4, 16697, Note_on_c, 2, 64, 58
4, 16698, Note_on_c, 2, 70, 86
4, 16715, Note_on_c, 2, 64, 0
4, 16720, Note_on_c, 2, 70, 0
4, 16791, Note_on_c, 2, 64, 89
4, 16791, Note_on_c, 2, 72, 94
4, 16808, Channel_aftertouch_c, 2, 14
4, 16840, Channel_aftertouch_c, 2, 0
4, 16865, Channel_aftertouch_c, 2, 0
4, 16914, Channel_aftertouch_c, 2, 0
4, 17039, Note_on_c, 2, 64, 0
4, 17050, Note_on_c, 2, 72, 0
4, 17075, Note_on_c, 2, 64, 59
4, 17076, Note_on_c, 2, 70, 79
4, 17109, Note_on_c, 2, 70, 0
4, 17110, Note_on_c, 2, 64, 0
4, 17279, Note_on_c, 2, 64, 76
4, 17279, Note_on_c, 2, 70, 90
4, 17305, Note_on_c, 2, 70, 0
4, 17306, Note_on_c, 2, 64, 0
4, 17465, Note_on_c, 2, 64, 70
4, 17465, Note_on_c, 2, 70, 86
4, 17492, Note_on_c, 2, 64, 0
4, 17493, Note_on_c, 2, 70, 0
4, 17559, Note_on_c, 2, 67, 73
4, 17559, Note_on_c, 2, 71, 78
4, 17559, Note_on_c, 2, 79, 91
4, 17566, Channel_aftertouch_c, 2, 0
4, 17593, Channel_aftertouch_c, 2, 0
4, 17683, Channel_aftertouch_c, 2, 0
4, 17807, Channel_aftertouch_c, 2, 0
4, 17828, Note_on_c, 2, 79, 0
4, 17829, Note_on_c, 2, 71, 0
4, 17839, Note_on_c, 2, 77, 62
4, 17845, Note_on_c, 2, 71, 50
4, 17876, Note_on_c, 2, 67, 0
4, 17876, Note_on_c, 2, 71, 0
4, 17877, Note_on_c, 2, 77, 0
4, 18036, Note_on_c, 2, 67, 78
4, 18036, Note_on_c, 2, 71, 82
4, 18037, Note_on_c, 2, 77, 75
4, 18054, Note_on_c, 2, 71, 0
4, 18060, Note_on_c, 2, 67, 0
4, 18060, Note_on_c, 2, 77, 0
4, 18224, Note_on_c, 2, 77, 69
4, 18230, Note_on_c, 2, 67, 66
4, 18231, Note_on_c, 2, 71, 63
4, 18247, Note_on_c, 2, 67, 0
4, 18247, Note_on_c, 2, 71, 0
4, 18253, Note_on_c, 2, 77, 0
4, 18318, Note_on_c, 2, 67, 84
4, 18318, Note_on_c, 2, 71, 87
4, 18319, Note_on_c, 2, 79, 94
4, 18336, Channel_aftertouch_c, 2, 10
4, 18363, Channel_aftertouch_c, 2, 1
4, 18407, Channel_aftertouch_c, 2, 2
4, 18443, Channel_aftertouch_c, 2, 4
4, 18493, Channel_aftertouch_c, 2, 5
4, 18626, Channel_aftertouch_c, 2, 2
4, 18652, Channel_aftertouch_c, 2, 0
4, 18722, Note_on_c, 2, 79, 0
4, 18727, Note_on_c, 2, 71, 0
4, 18733, Note_on_c, 2, 67, 0
4, 18816, Note_on_c, 2, 67, 84
4, 18816, Note_on_c, 2, 71, 89
4, 18816, Note_on_c, 2, 79, 97
4, 18820, Channel_aftertouch_c, 2, 5
4, 18847, Channel_aftertouch_c, 2, 0
4, 18916, Note_on_c, 2, 71, 0
4, 18916, Note_on_c, 2, 79, 0
4, 18927, Note_on_c, 2, 67, 0
4, 19008, Note_on_c, 2, 70, 82
4, 19008, Note_on_c, 2, 73, 82
4, 19008, Note_on_c, 2, 78, 82
4, 19108, Note_on_c, 2, 78, 0
4, 19109, Note_on_c, 2, 73, 0
4, 19111, Note_on_c, 2, 70, 0
4, 19189, Channel_aftertouch_c, 2, 4
4, 19200, Note_on_c, 2, 69, 80
4, 19200, Note_on_c, 2, 72, 94
4, 19200, Note_on_c, 2, 77, 76
4, 19215, Channel_aftertouch_c, 2, 3
4, 19241, Channel_aftertouch_c, 2, 0
4, 19286, Note_on_c, 2, 72, 0
4, 19287, Note_on_c, 2, 69, 0
4, 19287, Note_on_c, 2, 77, 0
4, 20736, Note_on_c, 2, 60, 92
4, 20736, Note_on_c, 2, 64, 75
4, 20736, Note_on_c, 2, 72, 75
4, 20736, Channel_aftertouch_c, 2, 0
4, 20760, Channel_aftertouch_c, 2, 0
4, 20860, Note_on_c, 2, 64, 0
4, 20920, Note_on_c, 2, 70, 49
4, 20922, Note_on_c, 2, 72, 0
4, 20926, Note_on_c, 2, 67, 62
4, 20934, Note_on_c, 2, 64, 48
4, 20943, Note_on_c, 2, 70, 0
4, 20949, Note_on_c, 2, 67, 0
4, 20957, Note_on_c, 2, 64, 0
4, 20970, Note_on_c, 2, 60, 0
4, 21111, Note_on_c, 2, 70, 76
4, 21117, Note_on_c, 2, 64, 68
4, 21118, Note_on_c, 2, 67, 76
4, 21134, Note_on_c, 2, 70, 0
4, 21140, Note_on_c, 2, 64, 0
4, 21141, Note_on_c, 2, 67, 0
4, 21305, Note_on_c, 2, 64, 64
4, 21305, Note_on_c, 2, 70, 76
4, 21306, Note_on_c, 2, 67, 82
4, 21328, Note_on_c, 2, 64, 0
4, 21328, Note_on_c, 2, 70, 0
4, 21329, Note_on_c, 2, 67, 0
4, 21400, Note_on_c, 2, 60, 90
4, 21400, Note_on_c, 2, 67, 84
4, 21401, Note_on_c, 2, 72, 78
4, 21435, Channel_aftertouch_c, 2, 0
4, 21629, Note_on_c, 2, 72, 0
4, 21649, Note_on_c, 2, 67, 0
4, 21680, Note_on_c, 2, 60, 0
4, 21685, Note_on_c, 2, 64, 56
4, 21686, Note_on_c, 2, 67, 66
4, 21693, Note_on_c, 2, 70, 53
4, 21709, Note_on_c, 2, 67, 0
4, 21710, Note_on_c, 2, 64, 0
4, 21716, Note_on_c, 2, 70, 0
4, 21881, Note_on_c, 2, 64, 65
4, 21881, Note_on_c, 2, 67, 78
4, 21881, Note_on_c, 2, 70, 76
4, 21904, Note_on_c, 2, 64, 0
4, 21904, Note_on_c, 2, 67, 0
4, 21904, Note_on_c, 2, 70, 0
4, 22069, Note_on_c, 2, 64, 61
4, 22069, Note_on_c, 2, 70, 79
4, 22076, Note_on_c, 2, 67, 73
4, 22092, Note_on_c, 2, 64, 0
4, 22092, Note_on_c, 2, 70, 0
4, 22099, Note_on_c, 2, 67, 0
4, 22168, Note_on_c, 2, 67, 75
4, 22168, Note_on_c, 2, 72, 73
4, 22175, Note_on_c, 2, 60, 96
4, 22181, Channel_aftertouch_c, 2, 0
4, 22208, Channel_aftertouch_c, 2, 0
4, 22417, Note_on_c, 2, 67, 0
4, 22453, Note_on_c, 2, 72, 0
4, 22454, Note_on_c, 2, 60, 0
4, 22457, Note_on_c, 2, 67, 62
4, 22458, Note_on_c, 2, 64, 55
4, 22458, Note_on_c, 2, 70, 52
4, 22480, Note_on_c, 2, 67, 0
4, 22481, Note_on_c, 2, 64, 0
4, 22481, Note_on_c, 2, 70, 0
4, 22646, Note_on_c, 2, 64, 58
4, 22646, Note_on_c, 2, 70, 74
4, 22653, Note_on_c, 2, 67, 73
4, 22669, Note_on_c, 2, 64, 0
4, 22671, Note_on_c, 2, 70, 0
4, 22676, Note_on_c, 2, 67, 0
4, 22830, Note_on_c, 2, 64, 63
4, 22836, Note_on_c, 2, 67, 76
4, 22836, Note_on_c, 2, 70, 76
4, 22853, Note_on_c, 2, 64, 0
4, 22859, Note_on_c, 2, 67, 0
4, 22859, Note_on_c, 2, 70, 0
4, 22930, Note_on_c, 2, 60, 95
4, 22930, Note_on_c, 2, 67, 76
4, 22937, Note_on_c, 2, 72, 70
4, 22962, Channel_aftertouch_c, 2, 0
4, 23167, Note_on_c, 2, 72, 0
4, 23183, Note_on_c, 2, 67, 0
4, 23218, Note_on_c, 2, 67, 65
4, 23218, Note_on_c, 2, 70, 58
4, 23219, Note_on_c, 2, 64, 56
4, 23221, Note_on_c, 2, 60, 0
4, 23242, Note_on_c, 2, 64, 0
4, 23242, Note_on_c, 2, 67, 0
4, 23248, Note_on_c, 2, 70, 0
4, 23413, Note_on_c, 2, 64, 58
4, 23413, Note_on_c, 2, 70, 67
4, 23420, Note_on_c, 2, 67, 64
4, 23436, Note_on_c, 2, 64, 0
4, 23436, Note_on_c, 2, 70, 0
4, 23443, Note_on_c, 2, 67, 0
4, 23607, Note_on_c, 2, 64, 59
4, 23607, Note_on_c, 2, 67, 80
4, 23607, Note_on_c, 2, 70, 76
4, 23630, Note_on_c, 2, 64, 0
4, 23630, Note_on_c, 2, 67, 0
4, 23630, Note_on_c, 2, 70, 0
4, 23808, Note_on_c, 2, 60, 92
4, 23808, Note_on_c, 2, 64, 75
4, 23808, Note_on_c, 2, 72, 75
4, 23808, Channel_aftertouch_c, 2, 0
4, 23832, Channel_aftertouch_c, 2, 0
4, 23932, Note_on_c, 2, 64, 0
4, 23992, Note_on_c, 2, 70, 49
4, 23994, Note_on_c, 2, 72, 0
4, 23998, Note_on_c, 2, 67, 62
4, 24006, Note_on_c, 2, 64, 48
4, 24015, Note_on_c, 2, 70, 0
4, 24021, Note_on_c, 2, 67, 0
4, 24029, Note_on_c, 2, 64, 0
4, 24042, Note_on_c, 2, 60, 0
4, 24183, Note_on_c, 2, 70, 76
4, 24189, Note_on_c, 2, 64, 68
4, 24190, Note_on_c, 2, 67, 76
4, 24206, Note_on_c, 2, 70, 0
4, 24212, Note_on_c, 2, 64, 0
4, 24213, Note_on_c, 2, 67, 0
4, 24377, Note_on_c, 2, 64, 64
4, 24377, Note_on_c, 2, 70, 76
4, 24378, Note_on_c, 2, 67, 82
4, 24400, Note_on_c, 2, 64, 0
4, 24400, Note_on_c, 2, 70, 0
4, 24401, Note_on_c, 2, 67, 0
4, 24472, Note_on_c, 2, 60, 90
4, 24472, Note_on_c, 2, 67, 84
4, 24473, Note_on_c, 2, 72, 78
4, 24507, Channel_aftertouch_c, 2, 0
4, 24701, Note_on_c, 2, 72, 0
4, 24721, Note_on_c, 2, 67, 0
4, 24752, Note_on_c, 2, 60, 0
4, 24757, Note_on_c, 2, 64, 56
4, 24758, Note_on_c, 2, 67, 66
4, 24765, Note_on_c, 2, 70, 53
4, 24781, Note_on_c, 2, 67, 0
4, 24782, Note_on_c, 2, 64, 0
4, 24788, Note_on_c, 2, 70, 0
4, 24953, Note_on_c, 2, 64, 65
4, 24953, Note_on_c, 2, 67, 78
4, 24953, Note_on_c, 2, 70, 76
4, 24976, Note_on_c, 2, 64, 0
4, 24976, Note_on_c, 2, 67, 0
4, 24976, Note_on_c, 2, 70, 0
4, 25141, Note_on_c, 2, 64, 61
4, 25141, Note_on_c, 2, 70, 79
4, 25148, Note_on_c, 2, 67, 73
4, 25164, Note_on_c, 2, 64, 0
4, 25164, Note_on_c, 2, 70, 0
4, 25171, Note_on_c, 2, 67, 0
4, 25240, Note_on_c, 2, 67, 75
4, 25240, Note_on_c, 2, 72, 73
4, 25247, Note_on_c, 2, 60, 96
4, 25253, Channel_aftertouch_c, 2, 0
4, 25280, Channel_aftertouch_c, 2, 0
4, 25489, Note_on_c, 2, 67, 0
4, 25525, Note_on_c, 2, 72, 0
4, 25526, Note_on_c, 2, 60, 0
4, 25529, Note_on_c, 2, 67, 62
4, 25530, Note_on_c, 2, 64, 55
4, 25530, Note_on_c, 2, 70, 52
4, 25552, Note_on_c, 2, 67, 0
4, 25553, Note_on_c, 2, 64, 0
4, 25553, Note_on_c, 2, 70, 0
4, 25718, Note_on_c, 2, 64, 58
4, 25718, Note_on_c, 2, 70, 74
4, 25725, Note_on_c, 2, 67, 73
4, 25741, Note_on_c, 2, 64, 0
4, 25743, Note_on_c, 2, 70, 0
4, 25748, Note_on_c, 2, 67, 0
4, 25902, Note_on_c, 2, 64, 63
4, 25908, Note_on_c, 2, 67, 76
4, 25908, Note_on_c, 2, 70, 76
4, 25925, Note_on_c, 2, 64, 0
4, 25931, Note_on_c, 2, 67, 0
4, 25931, Note_on_c, 2, 70, 0
4, 26002, Note_on_c, 2, 60, 95
4, 26002, Note_on_c, 2, 67, 76
4, 26009, Note_on_c, 2, 72, 70
4, 26034, Channel_aftertouch_c, 2, 0
4, 26239, Note_on_c, 2, 72, 0
4, 26255, Note_on_c, 2, 67, 0
4, 26290, Note_on_c, 2, 67, 65
4, 26290, Note_on_c, 2, 70, 58
4, 26291, Note_on_c, 2, 64, 56
4, 26293, Note_on_c, 2, 60, 0
4, 26314, Note_on_c, 2, 64, 0
4, 26314, Note_on_c, 2, 67, 0
4, 26320, Note_on_c, 2, 70, 0
4, 26485, Note_on_c, 2, 64, 58
4, 26485, Note_on_c, 2, 70, 67
4, 26492, Note_on_c, 2, 67, 64
4, 26508, Note_on_c, 2, 64, 0
4, 26508, Note_on_c, 2, 70, 0
4, 26515, Note_on_c, 2, 67, 0
4, 26679, Note_on_c, 2, 64, 59
4, 26679, Note_on_c, 2, 67, 80
4, 26679, Note_on_c, 2, 70, 76
4, 26702, Note_on_c, 2, 64, 0
4, 26702, Note_on_c, 2, 67, 0
4, 26702, Note_on_c, 2, 70, 0
4, 26880, Note_on_c, 2, 60, 92
4, 26880, Note_on_c, 2, 64, 75
4, 26880, Note_on_c, 2, 72, 75
4, 26880, Channel_aftertouch_c, 2, 0
4, 26904, Channel_aftertouch_c, 2, 0
4, 27004, Note_on_c, 2, 64, 0
4, 27064, Note_on_c, 2, 70, 49
4, 27066, Note_on_c, 2, 72, 0
4, 27070, Note_on_c, 2, 67, 62
4, 27078, Note_on_c, 2, 64, 48
4, 27087, Note_on_c, 2, 70, 0
4, 27093, Note_on_c, 2, 67, 0
4, 27101, Note_on_c, 2, 64, 0
4, 27114, Note_on_c, 2, 60, 0
4, 27255, Note_on_c, 2, 70, 76
4, 27261, Note_on_c, 2, 64, 68
4, 27262, Note_on_c, 2, 67, 76
4, 27278, Note_on_c, 2, 70, 0
4, 27284, Note_on_c, 2, 64, 0
4, 27285, Note_on_c, 2, 67, 0
4, 27449, Note_on_c, 2, 64, 64
4, 27449, Note_on_c, 2, 70, 76
4, 27450, Note_on_c, 2, 67, 82
4, 27472, Note_on_c, 2, 64, 0
4, 27472, Note_on_c, 2, 70, 0
4, 27473, Note_on_c, 2, 67, 0
4, 27544, Note_on_c, 2, 60, 90
4, 27544, Note_on_c, 2, 67, 84
4, 27545, Note_on_c, 2, 72, 78
4, 27579, Channel_aftertouch_c, 2, 0
4, 27773, Note_on_c, 2, 72, 0
4, 27793, Note_on_c, 2, 67, 0
4, 27824, Note_on_c, 2, 60, 0
4, 27829, Note_on_c, 2, 64, 56
4, 27830, Note_on_c, 2, 67, 66
4, 27837, Note_on_c, 2, 70, 53
4, 27853, Note_on_c, 2, 67, 0
4, 27854, Note_on_c, 2, 64, 0
4, 27860, Note_on_c, 2, 70, 0
4, 28025, Note_on_c, 2, 64, 65
4, 28025, Note_on_c, 2, 67, 78
4, 28025, Note_on_c, 2, 70, 76
4, 28048, Note_on_c, 2, 64, 0
4, 28048, Note_on_c, 2, 67, 0
4, 28048, Note_on_c, 2, 70, 0
4, 28213, Note_on_c, 2, 64, 61
4, 28213, Note_on_c, 2, 70, 79
4, 28220, Note_on_c, 2, 67, 73
4, 28236, Note_on_c, 2, 64, 0
4, 28236, Note_on_c, 2, 70, 0
4, 28243, Note_on_c, 2, 67, 0
4, 28312, Note_on_c, 2, 67, 75
4, 28312, Note_on_c, 2, 72, 73
4, 28319, Note_on_c, 2, 60, 96
4, 28325, Channel_aftertouch_c, 2, 0
4, 28352, Channel_aftertouch_c, 2, 0
4, 28561, Note_on_c, 2, 67, 0
4, 28597, Note_on_c, 2, 72, 0
4, 28598, Note_on_c, 2, 60, 0
4, 28601, Note_on_c, 2, 67, 62
4, 28602, Note_on_c, 2, 64, 55
4, 28602, Note_on_c, 2, 70, 52
4, 28624, Note_on_c, 2, 67, 0
4, 28625, Note_on_c, 2, 64, 0
4, 28625, Note_on_c, 2, 70, 0
4, 28790, Note_on_c, 2, 64, 58
4, 28790, Note_on_c, 2, 70, 74
4, 28797, Note_on_c, 2, 67, 73
4, 28813, Note_on_c, 2, 64, 0
4, 28815, Note_on_c, 2, 70, 0
4, 28820, Note_on_c, 2, 67, 0
4, 28974, Note_on_c, 2, 64, 63
4, 28980, Note_on_c, 2, 67, 76
4, 28980, Note_on_c, 2, 70, 76
4, 28997, Note_on_c, 2, 64, 0
4, 29003, Note_on_c, 2, 67, 0
4, 29003, Note_on_c, 2, 70, 0
4, 29074, Note_on_c, 2, 60, 95
4, 29074, Note_on_c, 2, 67, 76
4, 29081, Note_on_c, 2, 72, 70
4, 29106, Channel_aftertouch_c, 2, 0
4, 29311, Note_on_c, 2, 72, 0
4, 29327, Note_on_c, 2, 67, 0
4, 29362, Note_on_c, 2, 67, 65
4, 29362, Note_on_c, 2, 70, 58
4, 29363, Note_on_c, 2, 64, 56
4, 29365, Note_on_c, 2, 60, 0
4, 29386, Note_on_c, 2, 64, 0
4, 29386, Note_on_c, 2, 67, 0
4, 29392, Note_on_c, 2, 70, 0
4, 29557, Note_on_c, 2, 64, 58
4, 29557, Note_on_c, 2, 70, 67
4, 29564, Note_on_c, 2, 67, 64
4, 29580, Note_on_c, 2, 64, 0
4, 29580, Note_on_c, 2, 70, 0
4, 29587, Note_on_c, 2, 67, 0
4, 29751, Note_on_c, 2, 64, 59
4, 29751, Note_on_c, 2, 67, 80
4, 29751, Note_on_c, 2, 70, 76
4, 29774, Note_on_c, 2, 64, 0
4, 29774, Note_on_c, 2, 67, 0
4, 29774, Note_on_c, 2, 70, 0
4, 29838, Note_on_c, 2, 65, 82
4, 29838, Note_on_c, 2, 77, 87
4, 29839, Note_on_c, 2, 69, 84
4, 29851, Channel_aftertouch_c, 2, 3
4, 29878, Channel_aftertouch_c, 2, 0
4, 30077, Note_on_c, 2, 77, 0
4, 30088, Note_on_c, 2, 69, 0
4, 30093, Note_on_c, 2, 65, 0
4, 30134, Note_on_c, 2, 65, 75
4, 30134, Note_on_c, 2, 75, 86
4, 30156, Note_on_c, 2, 65, 0
4, 30171, Note_on_c, 2, 75, 0
4, 30321, Note_on_c, 2, 65, 70
4, 30321, Note_on_c, 2, 75, 82
4, 30348, Note_on_c, 2, 65, 0
4, 30354, Note_on_c, 2, 75, 0
4, 30527, Note_on_c, 2, 65, 70
4, 30527, Note_on_c, 2, 75, 86
4, 30554, Note_on_c, 2, 65, 0
4, 30559, Note_on_c, 2, 75, 0
4, 30605, Note_on_c, 2, 65, 72
4, 30605, Note_on_c, 2, 77, 87
4, 30606, Note_on_c, 2, 69, 80
4, 30623, Channel_aftertouch_c, 2, 4
4, 30650, Channel_aftertouch_c, 2, 0
4, 30696, Channel_aftertouch_c, 2, 0
4, 30845, Note_on_c, 2, 77, 0
4, 30850, Note_on_c, 2, 65, 0
4, 30850, Note_on_c, 2, 69, 0
4, 30901, Note_on_c, 2, 65, 72
4, 30907, Note_on_c, 2, 75, 86
4, 30928, Note_on_c, 2, 65, 0
4, 30943, Note_on_c, 2, 75, 0
4, 31086, Note_on_c, 2, 65, 76
4, 31092, Note_on_c, 2, 75, 79
4, 31119, Note_on_c, 2, 65, 0
4, 31119, Note_on_c, 2, 75, 0
4, 31287, Note_on_c, 2, 65, 66
4, 31287, Note_on_c, 2, 75, 86
4, 31309, Note_on_c, 2, 65, 0
4, 31315, Note_on_c, 2, 75, 0
4, 31374, Note_on_c, 2, 65, 70
4, 31374, Note_on_c, 2, 69, 80
4, 31375, Note_on_c, 2, 77, 84
4, 31403, Channel_aftertouch_c, 2, 0
4, 31621, Note_on_c, 2, 77, 0
4, 31631, Note_on_c, 2, 69, 0
4, 31632, Note_on_c, 2, 65, 0
4, 31682, Note_on_c, 2, 65, 70
4, 31682, Note_on_c, 2, 75, 90
4, 31709, Note_on_c, 2, 65, 0
4, 31719, Note_on_c, 2, 75, 0
4, 31868, Note_on_c, 2, 65, 58
4, 31868, Note_on_c, 2, 75, 79
4, 31895, Note_on_c, 2, 65, 0
4, 31900, Note_on_c, 2, 75, 0
4, 32058, Note_on_c, 2, 75, 86
4, 32064, Note_on_c, 2, 65, 75
4, 32085, Note_on_c, 2, 65, 0
4, 32091, Note_on_c, 2, 75, 0
4, 32146, Note_on_c, 2, 65, 69
4, 32146, Note_on_c, 2, 77, 82
4, 32147, Note_on_c, 2, 69, 76
4, 32387, Note_on_c, 2, 77, 0
4, 32398, Note_on_c, 2, 69, 0
4, 32403, Note_on_c, 2, 65, 0
4, 32448, Note_on_c, 2, 65, 68
4, 32454, Note_on_c, 2, 75, 86
4, 32475, Note_on_c, 2, 65, 0
4, 32486, Note_on_c, 2, 75, 0
4, 32640, Note_on_c, 2, 65, 61
4, 32640, Note_on_c, 2, 75, 79
4, 32669, Note_on_c, 2, 65, 0
4, 32674, Note_on_c, 2, 75, 0
4, 32828, Note_on_c, 2, 75, 82
4, 32834, Note_on_c, 2, 65, 62
4, 32860, Note_on_c, 2, 65, 0
4, 32860, Note_on_c, 2, 75, 0
4, 32920, Note_on_c, 2, 72, 80
4, 32927, Note_on_c, 2, 60, 82
4, 32927, Note_on_c, 2, 67, 80
4, 32954, Channel_aftertouch_c, 2, 0
4, 33157, Note_on_c, 2, 60, 0
4, 33173, Note_on_c, 2, 67, 0
4, 33189, Note_on_c, 2, 72, 0
4, 33209, Note_on_c, 2, 64, 75
4, 33209, Note_on_c, 2, 70, 74
4, 33236, Note_on_c, 2, 70, 0
4, 33241, Note_on_c, 2, 64, 0
4, 33400, Note_on_c, 2, 64, 57
4, 33400, Note_on_c, 2, 70, 76
4, 33422, Note_on_c, 2, 70, 0
4, 33427, Note_on_c, 2, 64, 0
4, 33601, Note_on_c, 2, 64, 61
4, 33601, Note_on_c, 2, 70, 86
4, 33618, Note_on_c, 2, 64, 0
4, 33623, Note_on_c, 2, 70, 0
4, 33679, Note_on_c, 2, 64, 73
4, 33679, Note_on_c, 2, 72, 78
4, 33695, Channel_aftertouch_c, 2, 2
4, 33722, Channel_aftertouch_c, 2, 0
4, 33807, Channel_aftertouch_c, 2, 0
4, 33851, Channel_aftertouch_c, 2, 0
4, 33932, Note_on_c, 2, 64, 0
4, 33947, Note_on_c, 2, 72, 0
4, 33972, Note_on_c, 2, 64, 66
4, 33973, Note_on_c, 2, 70, 82
4, 34004, Note_on_c, 2, 70, 0
4, 34010, Note_on_c, 2, 64, 0
4, 34164, Note_on_c, 2, 64, 72
4, 34165, Note_on_c, 2, 70, 86
4, 34194, Note_on_c, 2, 64, 0
4, 34194, Note_on_c, 2, 70, 0
4, 34358, Note_on_c, 2, 64, 70
4, 34358, Note_on_c, 2, 70, 90
4, 34380, Note_on_c, 2, 64, 0
4, 34386, Note_on_c, 2, 70, 0
4, 34451, Note_on_c, 2, 64, 89
4, 34451, Note_on_c, 2, 72, 91
4, 34469, Channel_aftertouch_c, 2, 9
4, 34496, Channel_aftertouch_c, 2, 0
4, 34700, Note_on_c, 2, 64, 0
4, 34716, Note_on_c, 2, 72, 0
4, 34741, Note_on_c, 2, 64, 70
4, 34741, Note_on_c, 2, 70, 86
4, 34774, Note_on_c, 2, 64, 0
4, 34774, Note_on_c, 2, 70, 0
4, 34938, Note_on_c, 2, 64, 69
4, 34938, Note_on_c, 2, 70, 86
4, 34955, Note_on_c, 2, 64, 0
4, 34961, Note_on_c, 2, 70, 0
4, 35129, Note_on_c, 2, 64, 58
4, 35130, Note_on_c, 2, 70, 86
4, 35147, Note_on_c, 2, 64, 0
4, 35152, Note_on_c, 2, 70, 0
4, 35223, Note_on_c, 2, 64, 89
4, 35223, Note_on_c, 2, 72, 94
4, 35240, Channel_aftertouch_c, 2, 14
4, 35272, Channel_aftertouch_c, 2, 0
4, 35297, Channel_aftertouch_c, 2, 0
4, 35346, Channel_aftertouch_c, 2, 0
4, 35471, Note_on_c, 2, 64, 0
4, 35482, Note_on_c, 2, 72, 0
4, 35507, Note_on_c, 2, 64, 59
4, 35508, Note_on_c, 2, 70, 79
4, 35541, Note_on_c, 2, 70, 0
4, 35542, Note_on_c, 2, 64, 0
4, 35711, Note_on_c, 2, 64, 76
4, 35711, Note_on_c, 2, 70, 90
4, 35737, Note_on_c, 2, 70, 0
4, 35738, Note_on_c, 2, 64, 0
4, 35897, Note_on_c, 2, 64, 70
4, 35897, Note_on_c, 2, 70, 86
4, 35924, Note_on_c, 2, 64, 0
4, 35925, Note_on_c, 2, 70, 0
4, 35991, Note_on_c, 2, 67, 73
4, 35991, Note_on_c, 2, 71, 78
4, 35991, Note_on_c, 2, 79, 91
4, 35998, Channel_aftertouch_c, 2, 0
4, 36025, Channel_aftertouch_c, 2, 0
4, 36115, Channel_aftertouch_c, 2, 0
4, 36239, Channel_aftertouch_c, 2, 0
4, 36260, Note_on_c, 2, 79, 0
4, 36261, Note_on_c, 2, 71, 0
4, 36271, Note_on_c, 2, 77, 62
4, 36277, Note_on_c, 2, 71, 50
4, 36308, Note_on_c, 2, 67, 0
4, 36308, Note_on_c, 2, 71, 0
4, 36309, Note_on_c, 2, 77, 0
4, 36468, Note_on_c, 2, 67, 78
4, 36468, Note_on_c, 2, 71, 82
4, 36469, Note_on_c, 2, 77, 75
4, 36486, Note_on_c, 2, 71, 0
4, 36492, Note_on_c, 2, 67, 0
4, 36492, Note_on_c, 2, 77, 0
4, 36656, Note_on_c, 2, 77, 69
4, 36662, Note_on_c, 2, 67, 66
4, 36663, Note_on_c, 2, 71, 63
4, 36679, Note_on_c, 2, 67, 0
4, 36679, Note_on_c, 2, 71, 0
4, 36685, Note_on_c, 2, 77, 0
4, 36750, Note_on_c, 2, 67, 84
4, 36750, Note_on_c, 2, 71, 87
4, 36751, Note_on_c, 2, 79, 94
4, 36768, Channel_aftertouch_c, 2, 10
4, 36795, Channel_aftertouch_c, 2, 1
4, 36839, Channel_aftertouch_c, 2, 2
4, 36875, Channel_aftertouch_c, 2, 4
4, 36925, Channel_aftertouch_c, 2, 5
4, 37058, Channel_aftertouch_c, 2, 2
4, 37084, Channel_aftertouch_c, 2, 0
4, 37154, Note_on_c, 2, 79, 0
4, 37159, Note_on_c, 2, 71, 0
4, 37165, Note_on_c, 2, 67, 0
4, 37248, Note_on_c, 2, 67, 84
4, 37248, Note_on_c, 2, 71, 89
4, 37248, Note_on_c, 2, 79, 97
4, 37252, Channel_aftertouch_c, 2, 5
4, 37279, Channel_aftertouch_c, 2, 0
4, 37348, Note_on_c, 2, 71, 0
4, 37348, Note_on_c, 2, 79, 0
4, 37359, Note_on_c, 2, 67, 0
4, 37440, Note_on_c, 2, 70, 82
4, 37440, Note_on_c, 2, 73, 82
4, 37440, Note_on_c, 2, 78, 82
4, 37540, Note_on_c, 2, 78, 0
4, 37541, Note_on_c, 2, 73, 0
4, 37543, Note_on_c, 2, 70, 0
4, 37621, Channel_aftertouch_c, 2, 4
4, 37632, Note_on_c, 2, 69, 80
4, 37632, Note_on_c, 2, 72, 94
4, 37632, Note_on_c, 2, 77, 76
4, 37647, Channel_aftertouch_c, 2, 3
4, 37673, Channel_aftertouch_c, 2, 0
4, 37718, Note_on_c, 2, 72, 0
4, 37719, Note_on_c, 2, 69, 0
4, 37719, Note_on_c, 2, 77, 0
4, 39168, Note_on_c, 2, 60, 92
4, 39168, Note_on_c, 2, 64, 75
4, 39168, Note_on_c, 2, 72, 75
4, 39168, Channel_aftertouch_c, 2, 0
4, 39192, Channel_aftertouch_c, 2, 0
4, 39292, Note_on_c, 2, 64, 0
4, 39352, Note_on_c, 2, 70, 49
4, 39354, Note_on_c, 2, 72, 0
4, 39358, Note_on_c, 2, 67, 62
4, 39366, Note_on_c, 2, 64, 48
4, 39375, Note_on_c, 2, 70, 0
4, 39381, Note_on_c, 2, 67, 0
4, 39389, Note_on_c, 2, 64, 0
4, 39402, Note_on_c, 2, 60, 0
4, 39543, Note_on_c, 2, 70, 76
4, 39549, Note_on_c, 2, 64, 68
4, 39550, Note_on_c, 2, 67, 76
4, 39566, Note_on_c, 2, 70, 0
4, 39572, Note_on_c, 2, 64, 0
4, 39573, Note_on_c, 2, 67, 0
4, 39737, Note_on_c, 2, 64, 64
4, 39737, Note_on_c, 2, 70, 76
4, 39738, Note_on_c, 2, 67, 82
4, 39760, Note_on_c, 2, 64, 0
4, 39760, Note_on_c, 2, 70, 0
4, 39761, Note_on_c, 2, 67, 0
4, 39832, Note_on_c, 2, 60, 90
4, 39832, Note_on_c, 2, 67, 84
4, 39833, Note_on_c, 2, 72, 78
4, 39867, Channel_aftertouch_c, 2, 0
4, 40061, Note_on_c, 2, 72, 0
4, 40081, Note_on_c, 2, 67, 0
4, 40112, Note_on_c, 2, 60, 0
4, 40117, Note_on_c, 2, 64, 56
4, 40118, Note_on_c, 2, 67, 66
4, 40125, Note_on_c, 2, 70, 53
4, 40141, Note_on_c, 2, 67, 0
4, 40142, Note_on_c, 2, 64, 0
4, 40148, Note_on_c, 2, 70, 0
4, 40313, Note_on_c, 2, 64, 65
4, 40313, Note_on_c, 2, 67, 78
4, 40313, Note_on_c, 2, 70, 76
4, 40336, Note_on_c, 2, 64, 0
4, 40336, Note_on_c, 2, 67, 0
4, 40336, Note_on_c, 2, 70, 0
4, 40501, Note_on_c, 2, 64, 61
4, 40501, Note_on_c, 2, 70, 79
4, 40508, Note_on_c, 2, 67, 73
4, 40524, Note_on_c, 2, 64, 0
4, 40524, Note_on_c, 2, 70, 0
4, 40531, Note_on_c, 2, 67, 0
4, 40600, Note_on_c, 2, 67, 75
4, 40600, Note_on_c, 2, 72, 73
4, 40607, Note_on_c, 2, 60, 96
4, 40613, Channel_aftertouch_c, 2, 0
4, 40640, Channel_aftertouch_c, 2, 0
4, 40849, Note_on_c, 2, 67, 0
4, 40885, Note_on_c, 2, 72, 0
4, 40886, Note_on_c, 2, 60, 0
4, 40889, Note_on_c, 2, 67, 62
4, 40890, Note_on_c, 2, 64, 55
4, 40890, Note_on_c, 2, 70, 52
4, 40912, Note_on_c, 2, 67, 0
4, 40913, Note_on_c, 2, 64, 0
4, 40913, Note_on_c, 2, 70, 0
4, 41078, Note_on_c, 2, 64, 58
4, 41078, Note_on_c, 2, 70, 74
4, 41085, Note_on_c, 2, 67, 73
4, 41101, Note_on_c, 2, 64, 0
4, 41103, Note_on_c, 2, 70, 0
4, 41108, Note_on_c, 2, 67, 0
4, 41262, Note_on_c, 2, 64, 63
4, 41268, Note_on_c, 2, 67, 76
4, 41268, Note_on_c, 2, 70, 76
4, 41285, Note_on_c, 2, 64, 0
4, 41291, Note_on_c, 2, 67, 0
4, 41291, Note_on_c, 2, 70, 0
4, 41362, Note_on_c, 2, 60, 95
4, 41362, Note_on_c, 2, 67, 76
4, 41369, Note_on_c, 2, 72, 70
4, 41394, Channel_aftertouch_c, 2, 0
4, 41599, Note_on_c, 2, 72, 0
4, 41615, Note_on_c, 2, 67, 0
4, 41650, Note_on_c, 2, 67, 65
4, 41650, Note_on_c, 2, 70, 58
4, 41651, Note_on_c, 2, 64, 56
4, 41653, Note_on_c, 2, 60, 0
4, 41674, Note_on_c, 2, 64, 0
4, 41674, Note_on_c, 2, 67, 0
4, 41680, Note_on_c, 2, 70, 0
4, 41845, Note_on_c, 2, 64, 58
4, 41845, Note_on_c, 2, 70, 67
4, 41852, Note_on_c, 2, 67, 64
4, 41868, Note_on_c, 2, 64, 0
4, 41868, Note_on_c, 2, 70, 0
4, 41875, Note_on_c, 2, 67, 0
4, 42039, Note_on_c, 2, 64, 59
4, 42039, Note_on_c, 2, 67, 80
4, 42039, Note_on_c, 2, 70, 76
4, 42062, Note_on_c, 2, 64, 0
4, 42062, Note_on_c, 2, 67, 0
4, 42062, Note_on_c, 2, 70, 0
4, 42240, Note_on_c, 2, 60, 109
4, 42240, Note_on_c, 2, 64, 92
4, 42240, Note_on_c, 2, 72, 92
4, 42240, Channel_aftertouch_c, 2, 0
4, 42264, Channel_aftertouch_c, 2, 0
4, 42364, Note_on_c, 2, 64, 0
4, 42424, Note_on_c, 2, 70, 66
4, 42426, Note_on_c, 2, 72, 0
4, 42430, Note_on_c, 2, 67, 79
4, 42438, Note_on_c, 2, 64, 65
4, 42447, Note_on_c, 2, 70, 0
4, 42453, Note_on_c, 2, 67, 0
4, 42461, Note_on_c, 2, 64, 0
4, 42474, Note_on_c, 2, 60, 0
4, 42615, Note_on_c, 2, 70, 93
4, 42621, Note_on_c, 2, 64, 85
4, 42622, Note_on_c, 2, 67, 93
4, 42638, Note_on_c, 2, 70, 0
4, 42644, Note_on_c, 2, 64, 0
4, 42645, Note_on_c, 2, 67, 0
4, 42809, Note_on_c, 2, 64, 81
4, 42809, Note_on_c, 2, 70, 93
4, 42810, Note_on_c, 2, 67, 99
4, 42832, Note_on_c, 2, 64, 0
4, 42832, Note_on_c, 2, 70, 0
4, 42833, Note_on_c, 2, 67, 0
4, 42904, Note_on_c, 2, 60, 107
4, 42904, Note_on_c, 2, 67, 101
4, 42905, Note_on_c, 2, 72, 95
4, 42939, Channel_aftertouch_c, 2, 0
4, 43133, Note_on_c, 2, 72, 0
4, 43153, Note_on_c, 2, 67, 0
4, 43184, Note_on_c, 2, 60, 0
4, 43189, Note_on_c, 2, 64, 73
4, 43190, Note_on_c, 2, 67, 83
4, 43197, Note_on_c, 2, 70, 70
4, 43213, Note_on_c, 2, 67, 0
4, 43214, Note_on_c, 2, 64, 0
4, 43220, Note_on_c, 2, 70, 0
4, 43385, Note_on_c, 2, 64, 82
4, 43385, Note_on_c, 2, 67, 95
4, 43385, Note_on_c, 2, 70, 93
4, 43408, Note_on_c, 2, 64, 0
4, 43408, Note_on_c, 2, 67, 0
4, 43408, Note_on_c, 2, 70, 0
4, 43573, Note_on_c, 2, 64, 78
4, 43573, Note_on_c, 2, 70, 96
4, 43580, Note_on_c, 2, 67, 90
4, 43596, Note_on_c, 2, 64, 0
4, 43596, Note_on_c, 2, 70, 0
4, 43603, Note_on_c, 2, 67, 0
4, 43672, Note_on_c, 2, 67, 92
4, 43672, Note_on_c, 2, 72, 90
4, 43679, Note_on_c, 2, 60, 113
4, 43685, Channel_aftertouch_c, 2, 0
4, 43712, Channel_aftertouch_c, 2, 0
4, 43921, Note_on_c, 2, 67, 0
4, 43957, Note_on_c, 2, 72, 0
4, 43958, Note_on_c, 2, 60, 0
4, 43961, Note_on_c, 2, 67, 79
4, 43962, Note_on_c, 2, 64, 72
4, 43962, Note_on_c, 2, 70, 69
4, 43984, Note_on_c, 2, 67, 0
4, 43985, Note_on_c, 2, 64, 0
4, 43985, Note_on_c, 2, 70, 0
4, 44150, Note_on_c, 2, 64, 75
4, 44150, Note_on_c, 2, 70, 91
4, 44157, Note_on_c, 2, 67, 90
4, 44173, Note_on_c, 2, 64, 0
4, 44175, Note_on_c, 2, 70, 0
4, 44180, Note_on_c, 2, 67, 0
4, 44334, Note_on_c, 2, 64, 80
4, 44340, Note_on_c, 2, 67, 93
4, 44340, Note_on_c, 2, 70, 93
4, 44357, Note_on_c, 2, 64, 0
4, 44363, Note_on_c, 2, 67, 0
4, 44363, Note_on_c, 2, 70, 0
4, 44434, Note_on_c, 2, 60, 112
4, 44434, Note_on_c, 2, 67, 93
4, 44441, Note_on_c, 2, 72, 87
4, 44466, Channel_aftertouch_c, 2, 0
4, 44671, Note_on_c, 2, 72, 0
4, 44687, Note_on_c, 2, 67, 0
4, 44722, Note_on_c, 2, 67, 82
4, 44722, Note_on_c, 2, 70, 75
4, 44723, Note_on_c, 2, 64, 73
4, 44725, Note_on_c, 2, 60, 0
4, 44746, Note_on_c, 2, 64, 0
4, 44746, Note_on_c, 2, 67, 0
4, 44752, Note_on_c, 2, 70, 0
4, 44917, Note_on_c, 2, 64, 75
4, 44917, Note_on_c, 2, 70, 84
4, 44924, Note_on_c, 2, 67, 81
4, 44940, Note_on_c, 2, 64, 0
4, 44940, Note_on_c, 2, 70, 0
4, 44947, Note_on_c, 2, 67, 0
4, 45111, Note_on_c, 2, 64, 76
4, 45111, Note_on_c, 2, 67, 97
4, 45111, Note_on_c, 2, 70, 93
4, 45134, Note_on_c, 2, 64, 0
4, 45134, Note_on_c, 2, 67, 0
4, 45134, Note_on_c, 2, 70, 0
4, 45312, Note_on_c, 2, 60, 109
4, 45312, Note_on_c, 2, 64, 92
4, 45312, Note_on_c, 2, 72, 92
4, 45312, Channel_aftertouch_c, 2, 0
4, 45336, Channel_aftertouch_c, 2, 0
4, 45436, Note_on_c, 2, 64, 0
4, 45496, Note_on_c, 2, 70, 66
4, 45498, Note_on_c, 2, 72, 0
4, 45502, Note_on_c, 2, 67, 79
4, 45510, Note_on_c, 2, 64, 65
4, 45519, Note_on_c, 2, 70, 0
4, 45525, Note_on_c, 2, 67, 0
4, 45533, Note_on_c, 2, 64, 0
4, 45546, Note_on_c, 2, 60, 0
4, 45687, Note_on_c, 2, 70, 93
4, 45693, Note_on_c, 2, 64, 85
4, 45694, Note_on_c, 2, 67, 93
4, 45710, Note_on_c, 2, 70, 0
4, 45716, Note_on_c, 2, 64, 0
4, 45717, Note_on_c, 2, 67, 0
4, 45881, Note_on_c, 2, 64, 81
4, 45881, Note_on_c, 2, 70, 93
4, 45882, Note_on_c, 2, 67, 99
4, 45904, Note_on_c, 2, 64, 0
4, 45904, Note_on_c, 2, 70, 0
4, 45905, Note_on_c, 2, 67, 0
4, 45976, Note_on_c, 2, 60, 107
4, 45976, Note_on_c, 2, 67, 101
4, 45977, Note_on_c, 2, 72, 95
4, 46011, Channel_aftertouch_c, 2, 0
4, 46205, Note_on_c, 2, 72, 0
4, 46225, Note_on_c, 2, 67, 0
4, 46256, Note_on_c, 2, 60, 0
4, 46261, Note_on_c, 2, 64, 73
4, 46262, Note_on_c, 2, 67, 83
4, 46269, Note_on_c, 2, 70, 70
4, 46285, Note_on_c, 2, 67, 0
4, 46286, Note_on_c, 2, 64, 0
4, 46292, Note_on_c, 2, 70, 0
4, 46457, Note_on_c, 2, 64, 82
4, 46457, Note_on_c, 2, 67, 95
4, 46457, Note_on_c, 2, 70, 93
4, 46480, Note_on_c, 2, 64, 0
4, 46480, Note_on_c, 2, 67, 0
4, 46480, Note_on_c, 2, 70, 0
4, 46645, Note_on_c, 2, 64, 78
4, 46645, Note_on_c, 2, 70, 96
4, 46652, Note_on_c, 2, 67, 90
4, 46668, Note_on_c, 2, 64, 0
4, 46668, Note_on_c, 2, 70, 0
4, 46675, Note_on_c, 2, 67, 0
4, 46744, Note_on_c, 2, 67, 92
4, 46744, Note_on_c, 2, 72, 90
4, 46751, Note_on_c, 2, 60, 113
4, 46757, Channel_aftertouch_c, 2, 0
4, 46784, Channel_aftertouch_c, 2, 0
4, 46993, Note_on_c, 2, 67, 0
4, 47029, Note_on_c, 2, 72, 0
4, 47030, Note_on_c, 2, 60, 0
4, 47033, Note_on_c, 2, 67, 79
4, 47034, Note_on_c, 2, 64, 72
4, 47034, Note_on_c, 2, 70, 69
4, 47056, Note_on_c, 2, 67, 0
4, 47057, Note_on_c, 2, 64, 0
4, 47057, Note_on_c, 2, 70, 0
4, 47222, Note_on_c, 2, 64, 75
4, 47222, Note_on_c, 2, 70, 91
4, 47229, Note_on_c, 2, 67, 90
4, 47245, Note_on_c, 2, 64, 0
4, 47247, Note_on_c, 2, 70, 0
4, 47252, Note_on_c, 2, 67, 0
4, 47406, Note_on_c, 2, 64, 80
4, 47412, Note_on_c, 2, 67, 93
4, 47412, Note_on_c, 2, 70, 93
4, 47429, Note_on_c, 2, 64, 0
4, 47435, Note_on_c, 2, 67, 0
4, 47435, Note_on_c, 2, 70, 0
4, 47506, Note_on_c, 2, 60, 112
4, 47506, Note_on_c, 2, 67, 93
4, 47513, Note_on_c, 2, 72, 87
4, 47538, Channel_aftertouch_c, 2, 0
4, 47743, Note_on_c, 2, 72, 0
4, 47759, Note_on_c, 2, 67, 0
4, 47794, Note_on_c, 2, 67, 82
4, 47794, Note_on_c, 2, 70, 75
4, 47795, Note_on_c, 2, 64, 73
4, 47797, Note_on_c, 2, 60, 0
4, 47818, Note_on_c, 2, 64, 0
4, 47818, Note_on_c, 2, 67, 0
4, 47824, Note_on_c, 2, 70, 0
4, 47989, Note_on_c, 2, 64, 75
4, 47989, Note_on_c, 2, 70, 84
4, 47996, Note_on_c, 2, 67, 81
4, 48012, Note_on_c, 2, 64, 0
4, 48012, Note_on_c, 2, 70, 0
4, 48019, Note_on_c, 2, 67, 0
4, 48183, Note_on_c, 2, 64, 76
4, 48183, Note_on_c, 2, 67, 97
4, 48183, Note_on_c, 2, 70, 93
4, 48206, Note_on_c, 2, 64, 0
4, 48206, Note_on_c, 2, 67, 0
4, 48206, Note_on_c, 2, 70, 0
4, 48270, Note_on_c, 2, 65, 99
4, 48270, Note_on_c, 2, 77, 104
4, 48271, Note_on_c, 2, 69, 101
4, 48283, Channel_aftertouch_c, 2, 3
4, 48310, Channel_aftertouch_c, 2, 0
4, 48509, Note_on_c, 2, 77, 0
4, 48520, Note_on_c, 2, 69, 0
4, 48525, Note_on_c, 2, 65, 0
4, 48566, Note_on_c, 2, 65, 92
4, 48566, Note_on_c, 2, 75, 103
4, 48588, Note_on_c, 2, 65, 0
4, 48603, Note_on_c, 2, 75, 0
4, 48753, Note_on_c, 2, 65, 87
4, 48753, Note_on_c, 2, 75, 99
4, 48780, Note_on_c, 2, 65, 0
4, 48786, Note_on_c, 2, 75, 0
4, 48959, Note_on_c, 2, 65, 87
4, 48959, Note_on_c, 2, 75, 103
4, 48986, Note_on_c, 2, 65, 0
4, 48991, Note_on_c, 2, 75, 0
4, 49037, Note_on_c, 2, 65, 89
4, 49037, Note_on_c, 2, 77, 104
4, 49038, Note_on_c, 2, 69, 97
4, 49055, Channel_aftertouch_c, 2, 4
4, 49082, Channel_aftertouch_c, 2, 0
4, 49128, Channel_aftertouch_c, 2, 0
4, 49277, Note_on_c, 2, 77, 0
4, 49282, Note_on_c, 2, 65, 0
4, 49282, Note_on_c, 2, 69, 0
4, 49333, Note_on_c, 2, 65, 89
4, 49339, Note_on_c, 2, 75, 103
4, 49360, Note_on_c, 2, 65, 0
4, 49375, Note_on_c, 2, 75, 0
4, 49518, Note_on_c, 2, 65, 93
4, 49524, Note_on_c, 2, 75, 96
4, 49551, Note_on_c, 2, 65, 0
4, 49551, Note_on_c, 2, 75, 0
4, 49719, Note_on_c, 2, 65, 83
4, 49719, Note_on_c, 2, 75, 103
4, 49741, Note_on_c, 2, 65, 0
4, 49747, Note_on_c, 2, 75, 0
4, 49806, Note_on_c, 2, 65, 87
4, 49806, Note_on_c, 2, 69, 97
4, 49807, Note_on_c, 2, 77, 101
4, 49835, Channel_aftertouch_c, 2, 0
4, 50053, Note_on_c, 2, 77, 0
4, 50063, Note_on_c, 2, 69, 0
4, 50064, Note_on_c, 2, 65, 0
4, 50114, Note_on_c, 2, 65, 87
4, 50114, Note_on_c, 2, 75, 107
4, 50141, Note_on_c, 2, 65, 0
4, 50151, Note_on_c, 2, 75, 0
4, 50300, Note_on_c, 2, 65, 75
4, 50300, Note_on_c, 2, 75, 96
4, 50327, Note_on_c, 2, 65, 0
4, 50332, Note_on_c, 2, 75, 0
4, 50490, Note_on_c, 2, 75, 103
4, 50496, Note_on_c, 2, 65, 92
4, 50517, Note_on_c, 2, 65, 0
4, 50523, Note_on_c, 2, 75, 0
4, 50578, Note_on_c, 2, 65, 86
4, 50578, Note_on_c, 2, 77, 99
4, 50579, Note_on_c, 2, 69, 93
4, 50819, Note_on_c, 2, 77, 0
4, 50830, Note_on_c, 2, 69, 0
4, 50835, Note_on_c, 2, 65, 0
4, 50880, Note_on_c, 2, 65, 85
4, 50886, Note_on_c, 2, 75, 103
4, 50907, Note_on_c, 2, 65, 0
4, 50918, Note_on_c, 2, 75, 0
4, 51072, Note_on_c, 2, 65, 78
4, 51072, Note_on_c, 2, 75, 96
4, 51101, Note_on_c, 2, 65, 0
4, 51106, Note_on_c, 2, 75, 0
4, 51260, Note_on_c, 2, 75, 99
4, 51266, Note_on_c, 2, 65, 79
4, 51292, Note_on_c, 2, 65, 0
4, 51292, Note_on_c, 2, 75, 0
4, 51352, Note_on_c, 2, 72, 97
4, 51359, Note_on_c, 2, 60, 99
4, 51359, Note_on_c, 2, 67, 97
4, 51386, Channel_aftertouch_c, 2, 0
4, 51589, Note_on_c, 2, 60, 0
4, 51605, Note_on_c, 2, 67, 0
4, 51621, Note_on_c, 2, 72, 0
4, 51641, Note_on_c, 2, 64, 92
4, 51641, Note_on_c, 2, 70, 91
4, 51668, Note_on_c, 2, 70, 0
4, 51673, Note_on_c, 2, 64, 0
4, 51832, Note_on_c, 2, 64, 74
4, 51832, Note_on_c, 2, 70, 93
4, 51854, Note_on_c, 2, 70, 0
4, 51859, Note_on_c, 2, 64, 0
4, 52033, Note_on_c, 2, 64, 78
4, 52033, Note_on_c, 2, 70, 103
4, 52050, Note_on_c, 2, 64, 0
4, 52055, Note_on_c, 2, 70, 0
4, 52111, Note_on_c, 2, 64, 90
4, 52111, Note_on_c, 2, 72, 95
4, 52127, Channel_aftertouch_c, 2, 2
4, 52154, Channel_aftertouch_c, 2, 0
4, 52239, Channel_aftertouch_c, 2, 0
4, 52283, Channel_aftertouch_c, 2, 0
4, 52364, Note_on_c, 2, 64, 0
4, 52379, Note_on_c, 2, 72, 0
4, 52404, Note_on_c, 2, 64, 83
4, 52405, Note_on_c, 2, 70, 99
4, 52436, Note_on_c, 2, 70, 0
4, 52442, Note_on_c, 2, 64, 0
4, 52596, Note_on_c, 2, 64, 89
4, 52597, Note_on_c, 2, 70, 103
4, 52626, Note_on_c, 2, 64, 0
4, 52626, Note_on_c, 2, 70, 0
4, 52790, Note_on_c, 2, 64, 87
4, 52790, Note_on_c, 2, 70, 107
4, 52812, Note_on_c, 2, 64, 0
4, 52818, Note_on_c, 2, 70, 0
4, 52883, Note_on_c, 2, 64, 106
4, 52883, Note_on_c, 2, 72, 108
4, 52901, Channel_aftertouch_c, 2, 9
4, 52928, Channel_aftertouch_c, 2, 0
4, 53132, Note_on_c, 2, 64, 0
4, 53148, Note_on_c, 2, 72, 0
4, 53173, Note_on_c, 2, 64, 87
4, 53173, Note_on_c, 2, 70, 103
4, 53206, Note_on_c, 2, 64, 0
4, 53206, Note_on_c, 2, 70, 0
4, 53370, Note_on_c, 2, 64, 86
4, 53370, Note_on_c, 2, 70, 103
4, 53387, Note_on_c, 2, 64, 0
4, 53393, Note_on_c, 2, 70, 0
4, 53561, Note_on_c, 2, 64, 75
4, 53562, Note_on_c, 2, 70, 103
4, 53579, Note_on_c, 2, 64, 0
4, 53584, Note_on_c, 2, 70, 0
4, 53655, Note_on_c, 2, 64, 106
4, 53655, Note_on_c, 2, 72, 111
4, 53672, Channel_aftertouch_c, 2, 14
4, 53704, Channel_aftertouch_c, 2, 0
4, 53729, Channel_aftertouch_c, 2, 0
4, 53778, Channel_aftertouch_c, 2, 0
4, 53903, Note_on_c, 2, 64, 0
4, 53914, Note_on_c, 2, 72, 0
4, 53939, Note_on_c, 2, 64, 76
4, 53940, Note_on_c, 2, 70, 96
4, 53973, Note_on_c, 2, 70, 0
4, 53974, Note_on_c, 2, 64, 0
4, 54143, Note_on_c, 2, 64, 93
4, 54143, Note_on_c, 2, 70, 107
4, 54169, Note_on_c, 2, 70, 0
4, 54170, Note_on_c, 2, 64, 0
4, 54329, Note_on_c, 2, 64, 87
4, 54329, Note_on_c, 2, 70, 103
4, 54356, Note_on_c, 2, 64, 0
4, 54357, Note_on_c, 2, 70, 0
4, 54423, Note_on_c, 2, 67, 90
4, 54423, Note_on_c, 2, 71, 95
4, 54423, Note_on_c, 2, 79, 108
4, 54430, Channel_aftertouch_c, 2, 0
4, 54457, Channel_aftertouch_c, 2, 0
4, 54547, Channel_aftertouch_c, 2, 0
4, 54671, Channel_aftertouch_c, 2, 0
4, 54692, Note_on_c, 2, 79, 0
4, 54693, Note_on_c, 2, 71, 0
4, 54703, Note_on_c, 2, 77, 79
4, 54709, Note_on_c, 2, 71, 67
4, 54740, Note_on_c, 2, 67, 0
4, 54740, Note_on_c, 2, 71, 0
4, 54741, Note_on_c, 2, 77, 0
4, 54900, Note_on_c, 2, 67, 95
4, 54900, Note_on_c, 2, 71, 99
4, 54901, Note_on_c, 2, 77, 92
4, 54918, Note_on_c, 2, 71, 0
4, 54924, Note_on_c, 2, 67, 0
4, 54924, Note_on_c, 2, 77, 0
4, 55088, Note_on_c, 2, 77, 86
4, 55094, Note_on_c, 2, 67, 83
4, 55095, Note_on_c, 2, 71, 80
4, 55111, Note_on_c, 2, 67, 0
4, 55111, Note_on_c, 2, 71, 0
4, 55117, Note_on_c, 2, 77, 0
4, 55182, Note_on_c, 2, 67, 101
4, 55182, Note_on_c, 2, 71, 104
4, 55183, Note_on_c, 2, 79, 111
4, 55200, Channel_aftertouch_c, 2, 10
4, 55227, Channel_aftertouch_c, 2, 1
4, 55271, Channel_aftertouch_c, 2, 2
4, 55307, Channel_aftertouch_c, 2, 4
4, 55357, Channel_aftertouch_c, 2, 5
4, 55490, Channel_aftertouch_c, 2, 2
4, 55516, Channel_aftertouch_c, 2, 0
4, 55586, Note_on_c, 2, 79, 0
4, 55591, Note_on_c, 2, 71, 0
4, 55597, Note_on_c, 2, 67, 0
4, 55680, Note_on_c, 2, 67, 101
4, 55680, Note_on_c, 2, 71, 106
4, 55680, Note_on_c, 2, 79, 114
4, 55684, Channel_aftertouch_c, 2, 5
4, 55711, Channel_aftertouch_c, 2, 0
4, 55780, Note_on_c, 2, 71, 0
4, 55780, Note_on_c, 2, 79, 0
4, 55791, Note_on_c, 2, 67, 0
4, 55872, Note_on_c, 2, 70, 99
4, 55872, Note_on_c, 2, 73, 99
4, 55872, Note_on_c, 2, 78, 99
4, 55972, Note_on_c, 2, 78, 0
4, 55973, Note_on_c, 2, 73, 0
4, 55975, Note_on_c, 2, 70, 0
4, 56053, Channel_aftertouch_c, 2, 4
4, 56064, Note_on_c, 2, 69, 97
4, 56064, Note_on_c, 2, 72, 111
4, 56064, Note_on_c, 2, 77, 93
4, 56079, Channel_aftertouch_c, 2, 3
4, 56105, Channel_aftertouch_c, 2, 0
4, 56150, Note_on_c, 2, 72, 0
4, 56151, Note_on_c, 2, 69, 0
4, 56151, Note_on_c, 2, 77, 0
4, 57600, Note_on_c, 2, 60, 109
4, 57600, Note_on_c, 2, 64, 92
4, 57600, Note_on_c, 2, 72, 92
4, 57600, Channel_aftertouch_c, 2, 0
4, 57624, Channel_aftertouch_c, 2, 0
4, 57724, Note_on_c, 2, 64, 0
4, 57784, Note_on_c, 2, 70, 66
4, 57786, Note_on_c, 2, 72, 0
4, 57790, Note_on_c, 2, 67, 79
4, 57798, Note_on_c, 2, 64, 65
4, 57807, Note_on_c, 2, 70, 0
4, 57813, Note_on_c, 2, 67, 0
4, 57821, Note_on_c, 2, 64, 0
4, 57834, Note_on_c, 2, 60, 0
4, 57975, Note_on_c, 2, 70, 93
4, 57981, Note_on_c, 2, 64, 85
4, 57982, Note_on_c, 2, 67, 93
4, 57998, Note_on_c, 2, 70, 0
4, 58004, Note_on_c, 2, 64, 0
4, 58005, Note_on_c, 2, 67, 0
4, 58169, Note_on_c, 2, 64, 81
4, 58169, Note_on_c, 2, 70, 93
4, 58170, Note_on_c, 2, 67, 99
4, 58192, Note_on_c, 2, 64, 0
4, 58192, Note_on_c, 2, 70, 0
4, 58193, Note_on_c, 2, 67, 0
4, 58264, Note_on_c, 2, 60, 107
4, 58264, Note_on_c, 2, 67, 101
4, 58265, Note_on_c, 2, 72, 95
4, 58299, Channel_aftertouch_c, 2, 0
4, 58493, Note_on_c, 2, 72, 0
4, 58513, Note_on_c, 2, 67, 0
4, 58544, Note_on_c, 2, 60, 0
4, 58549, Note_on_c, 2, 64, 73
4, 58550, Note_on_c, 2, 67, 83
4, 58557, Note_on_c, 2, 70, 70
4, 58573, Note_on_c, 2, 67, 0
4, 58574, Note_on_c, 2, 64, 0
4, 58580, Note_on_c, 2, 70, 0
4, 58745, Note_on_c, 2, 64, 82
4, 58745, Note_on_c, 2, 67, 95
4, 58745, Note_on_c, 2, 70, 93
4, 58768, Note_on_c, 2, 64, 0
4, 58768, Note_on_c, 2, 67, 0
4, 58768, Note_on_c, 2, 70, 0
4, 58933, Note_on_c, 2, 64, 78
4, 58933, Note_on_c, 2, 70, 96
4, 58940, Note_on_c, 2, 67, 90
4, 58956, Note_on_c, 2, 64, 0
4, 58956, Note_on_c, 2, 70, 0
4, 58963, Note_on_c, 2, 67, 0
4, 59032, Note_on_c, 2, 67, 92
4, 59032, Note_on_c, 2, 72, 90
4, 59039, Note_on_c, 2, 60, 113
4, 59045, Channel_aftertouch_c, 2, 0
4, 59072, Channel_aftertouch_c, 2, 0
4, 59281, Note_on_c, 2, 67, 0
4, 59317, Note_on_c, 2, 72, 0
4, 59318, Note_on_c, 2, 60, 0
4, 59321, Note_on_c, 2, 67, 79
4, 59322, Note_on_c, 2, 64, 72
4, 59322, Note_on_c, 2, 70, 69
4, 59344, Note_on_c, 2, 67, 0
4, 59345, Note_on_c, 2, 64, 0
4, 59345, Note_on_c, 2, 70, 0
4, 59510, Note_on_c, 2, 64, 75
4, 59510, Note_on_c, 2, 70, 91
4, 59517, Note_on_c, 2, 67, 90
4, 59533, Note_on_c, 2, 64, 0
4, 59535, Note_on_c, 2, 70, 0
4, 59540, Note_on_c, 2, 67, 0
4, 59694, Note_on_c, 2, 64, 80
4, 59700, Note_on_c, 2, 67, 93
4, 59700, Note_on_c, 2, 70, 93
4, 59717, Note_on_c, 2, 64, 0
4, 59723, Note_on_c, 2, 67, 0
4, 59723, Note_on_c, 2, 70, 0
4, 59794, Note_on_c, 2, 60, 112
4, 59794, Note_on_c, 2, 67, 93
4, 59801, Note_on_c, 2, 72, 87
4, 59826, Channel_aftertouch_c, 2, 0
4, 60031, Note_on_c, 2, 72, 0
4, 60047, Note_on_c, 2, 67, 0
4, 60082, Note_on_c, 2, 67, 82
4, 60082, Note_on_c, 2, 70, 75
4, 60083, Note_on_c, 2, 64, 73
4, 60085, Note_on_c, 2, 60, 0
4, 60106, Note_on_c, 2, 64, 0
4, 60106, Note_on_c, 2, 67, 0
4, 60112, Note_on_c, 2, 70, 0
4, 60277, Note_on_c, 2, 64, 75
4, 60277, Note_on_c, 2, 70, 84
4, 60284, Note_on_c, 2, 67, 81
4, 60300, Note_on_c, 2, 64, 0
4, 60300, Note_on_c, 2, 70, 0
4, 60307, Note_on_c, 2, 67, 0
4, 60471, Note_on_c, 2, 64, 76
4, 60471, Note_on_c, 2, 67, 97
4, 60471, Note_on_c, 2, 70, 93
4, 60494, Note_on_c, 2, 64, 0
4, 60494, Note_on_c, 2, 67, 0
4, 60494, Note_on_c, 2, 70, 0
4, 60672, Note_on_c, 2, 60, 92
4, 60672, Note_on_c, 2, 64, 75
4, 60672, Note_on_c, 2, 72, 75
4, 60672, Channel_aftertouch_c, 2, 0
4, 60696, Channel_aftertouch_c, 2, 0
4, 60796, Note_on_c, 2, 64, 0
4, 60856, Note_on_c, 2, 70, 49
4, 60858, Note_on_c, 2, 72, 0
4, 60862, Note_on_c, 2, 67, 62
4, 60870, Note_on_c, 2, 64, 48
4, 60879, Note_on_c, 2, 70, 0
4, 60885, Note_on_c, 2, 67, 0
4, 60893, Note_on_c, 2, 64, 0
4, 60906, Note_on_c, 2, 60, 0
4, 61047, Note_on_c, 2, 70, 76
4, 61053, Note_on_c, 2, 64, 68
4, 61054, Note_on_c, 2, 67, 76
4, 61070, Note_on_c, 2, 70, 0
4, 61076, Note_on_c, 2, 64, 0
4, 61077, Note_on_c, 2, 67, 0
4, 61241, Note_on_c, 2, 64, 64
4, 61241, Note_on_c, 2, 70, 76
4, 61242, Note_on_c, 2, 67, 82
4, 61264, Note_on_c, 2, 64, 0
4, 61264, Note_on_c, 2, 70, 0
4, 61265, Note_on_c, 2, 67, 0
4, 61336, Note_on_c, 2, 60, 90
4, 61336, Note_on_c, 2, 67, 84
4, 61337, Note_on_c, 2, 72, 78
4, 61371, Channel_aftertouch_c, 2, 0
4, 61565, Note_on_c, 2, 72, 0
4, 61585, Note_on_c, 2, 67, 0
4, 61616, Note_on_c, 2, 60, 0
4, 61621, Note_on_c, 2, 64, 56
4, 61622, Note_on_c, 2, 67, 66
4, 61629, Note_on_c, 2, 70, 53
4, 61645, Note_on_c, 2, 67, 0
4, 61646, Note_on_c, 2, 64, 0
4, 61652, Note_on_c, 2, 70, 0
4, 61817, Note_on_c, 2, 64, 65
4, 61817, Note_on_c, 2, 67, 78
4, 61817, Note_on_c, 2, 70, 76
4, 61840, Note_on_c, 2, 64, 0
4, 61840, Note_on_c, 2, 67, 0
4, 61840, Note_on_c, 2, 70, 0
4, 62005, Note_on_c, 2, 64, 61
4, 62005, Note_on_c, 2, 70, 79
4, 62012, Note_on_c, 2, 67, 73
4, 62028, Note_on_c, 2, 64, 0
4, 62028, Note_on_c, 2, 70, 0
4, 62035, Note_on_c, 2, 67, 0
4, 62104, Note_on_c, 2, 67, 75
4, 62104, Note_on_c, 2, 72, 73
4, 62111, Note_on_c, 2, 60, 96
4, 62117, Channel_aftertouch_c, 2, 0
4, 62144, Channel_aftertouch_c, 2, 0
4, 62353, Note_on_c, 2, 67, 0
4, 62389, Note_on_c, 2, 72, 0
4, 62390, Note_on_c, 2, 60, 0
4, 62393, Note_on_c, 2, 67, 62
4, 62394, Note_on_c, 2, 64, 55
4, 62394, Note_on_c, 2, 70, 52
4, 62416, Note_on_c, 2, 67, 0
4, 62417, Note_on_c, 2, 64, 0
4, 62417, Note_on_c, 2, 70, 0
4, 62582, Note_on_c, 2, 64, 58
4, 62582, Note_on_c, 2, 70, 74
4, 62589, Note_on_c, 2, 67, 73
4, 62605, Note_on_c, 2, 64, 0
4, 62607, Note_on_c, 2, 70, 0
4, 62612, Note_on_c, 2, 67, 0
4, 62766, Note_on_c, 2, 64, 63
4, 62772, Note_on_c, 2, 67, 76
4, 62772, Note_on_c, 2, 70, 76
4, 62789, Note_on_c, 2, 64, 0
4, 62795, Note_on_c, 2, 67, 0
4, 62795, Note_on_c, 2, 70, 0
4, 62866, Note_on_c, 2, 60, 95
4, 62866, Note_on_c, 2, 67, 76
4, 62873, Note_on_c, 2, 72, 70
4, 62898, Channel_aftertouch_c, 2, 0
4, 63103, Note_on_c, 2, 72, 0
4, 63119, Note_on_c, 2, 67, 0
4, 63154, Note_on_c, 2, 67, 65
4, 63154, Note_on_c, 2, 70, 58
4, 63155, Note_on_c, 2, 64, 56
4, 63157, Note_on_c, 2, 60, 0
4, 63178, Note_on_c, 2, 64, 0
4, 63178, Note_on_c, 2, 67, 0
4, 63184, Note_on_c, 2, 70, 0
4, 63349, Note_on_c, 2, 64, 58
4, 63349, Note_on_c, 2, 70, 67
4, 63356, Note_on_c, 2, 67, 64
4, 63372, Note_on_c, 2, 64, 0
4, 63372, Note_on_c, 2, 70, 0
4, 63379, Note_on_c, 2, 67, 0
4, 63543, Note_on_c, 2, 64, 59
4, 63543, Note_on_c, 2, 67, 80
4, 63543, Note_on_c, 2, 70, 76
4, 63566, Note_on_c, 2, 64, 0
4, 63566, Note_on_c, 2, 67, 0
4, 63566, Note_on_c, 2, 70, 0
4, 63744, Note_on_c, 2, 60, 92
4, 63744, Note_on_c, 2, 64, 75
4, 63744, Note_on_c, 2, 72, 75
4, 63744, Channel_aftertouch_c, 2, 0
4, 63768, Channel_aftertouch_c, 2, 0
4, 63868, Note_on_c, 2, 64, 0
4, 63928, Note_on_c, 2, 70, 49
4, 63930, Note_on_c, 2, 72, 0
4, 63934, Note_on_c, 2, 67, 62
4, 63942, Note_on_c, 2, 64, 48
4, 63951, Note_on_c, 2, 70, 0
4, 63957, Note_on_c, 2, 67, 0
4, 63965, Note_on_c, 2, 64, 0
4, 63978, Note_on_c, 2, 60, 0
4, 64119, Note_on_c, 2, 70, 76
4, 64125, Note_on_c, 2, 64, 68
4, 64126, Note_on_c, 2, 67, 76
4, 64142, Note_on_c, 2, 70, 0
4, 64148, Note_on_c, 2, 64, 0
4, 64149, Note_on_c, 2, 67, 0
4, 64313, Note_on_c, 2, 64, 64
4, 64313, Note_on_c, 2, 70, 76
4, 64314, Note_on_c, 2, 67, 82
4, 64336, Note_on_c, 2, 64, 0
4, 64336, Note_on_c, 2, 70, 0
4, 64337, Note_on_c, 2, 67, 0
4, 64408, Note_on_c, 2, 60, 90
4, 64408, Note_on_c, 2, 67, 84
4, 64409, Note_on_c, 2, 72, 78
4, 64443, Channel_aftertouch_c, 2, 0
4, 64637, Note_on_c, 2, 72, 0
4, 64657, Note_on_c, 2, 67, 0
4, 64688, Note_on_c, 2, 60, 0
4, 64693, Note_on_c, 2, 64, 56
4, 64694, Note_on_c, 2, 67, 66
4, 64701, Note_on_c, 2, 70, 53
4, 64717, Note_on_c, 2, 67, 0
4, 64718, Note_on_c, 2, 64, 0
4, 64724, Note_on_c, 2, 70, 0
4, 64889, Note_on_c, 2, 64, 65
4, 64889, Note_on_c, 2, 67, 78
4, 64889, Note_on_c, 2, 70, 76
4, 64912, Note_on_c, 2, 64, 0
4, 64912, Note_on_c, 2, 67, 0
4, 64912, Note_on_c, 2, 70, 0
4, 65077, Note_on_c, 2, 64, 61
4, 65077, Note_on_c, 2, 70, 79
4, 65084, Note_on_c, 2, 67, 73
4, 65100, Note_on_c, 2, 64, 0
4, 65100, Note_on_c, 2, 70, 0
4, 65107, Note_on_c, 2, 67, 0
4, 65176, Note_on_c, 2, 67, 75
4, 65176, Note_on_c, 2, 72, 73
4, 65183, Note_on_c, 2, 60, 96
4, 65189, Channel_aftertouch_c, 2, 0
4, 65216, Channel_aftertouch_c, 2, 0
4, 65425, Note_on_c, 2, 67, 0
4, 65461, Note_on_c, 2, 72, 0
4, 65462, Note_on_c, 2, 60, 0
4, 65465, Note_on_c, 2, 67, 62
4, 65466, Note_on_c, 2, 64, 55
4, 65466, Note_on_c, 2, 70, 52
4, 65488, Note_on_c, 2, 67, 0
4, 65489, Note_on_c, 2, 64, 0
4, 65489, Note_on_c, 2, 70, 0
4, 65654, Note_on_c, 2, 64, 58
4, 65654, Note_on_c, 2, 70, 74
4, 65661, Note_on_c, 2, 67, 73
4, 65677, Note_on_c, 2, 64, 0
4, 65679, Note_on_c, 2, 70, 0
4, 65684, Note_on_c, 2, 67, 0
4, 65838, Note_on_c, 2, 64, 63
4, 65844, Note_on_c, 2, 67, 76
4, 65844, Note_on_c, 2, 70, 76
4, 65861, Note_on_c, 2, 64, 0
4, 65867, Note_on_c, 2, 67, 0
4, 65867, Note_on_c, 2, 70, 0
4, 65938, Note_on_c, 2, 60, 95
4, 65938, Note_on_c, 2, 67, 76
4, 65945, Note_on_c, 2, 72, 70
4, 65970, Channel_aftertouch_c, 2, 0
4, 66175, Note_on_c, 2, 72, 0
4, 66191, Note_on_c, 2, 67, 0
4, 66226, Note_on_c, 2, 67, 65
4, 66226, Note_on_c, 2, 70, 58
4, 66227, Note_on_c, 2, 64, 56
4, 66229, Note_on_c, 2, 60, 0
4, 66250, Note_on_c, 2, 64, 0
4, 66250, Note_on_c, 2, 67, 0
4, 66256, Note_on_c, 2, 70, 0
4, 66421, Note_on_c, 2, 64, 58
4, 66421, Note_on_c, 2, 70, 67
4, 66428, Note_on_c, 2, 67, 64
4, 66444, Note_on_c, 2, 64, 0
4, 66444, Note_on_c, 2, 70, 0
4, 66451, Note_on_c, 2, 67, 0
4, 66615, Note_on_c, 2, 64, 59
4, 66615, Note_on_c, 2, 67, 80
4, 66615, Note_on_c, 2, 70, 76
4, 66638, Note_on_c, 2, 64, 0
4, 66638, Note_on_c, 2, 67, 0
4, 66638, Note_on_c, 2, 70, 0
4, 66702, Note_on_c, 2, 65, 82
4, 66702, Note_on_c, 2, 77, 87
4, 66703, Note_on_c, 2, 69, 84
4, 66715, Channel_aftertouch_c, 2, 3
4, 66742, Channel_aftertouch_c, 2, 0
4, 66941, Note_on_c, 2, 77, 0
4, 66952, Note_on_c, 2, 69, 0
4, 66957, Note_on_c, 2, 65, 0
4, 66998, Note_on_c, 2, 65, 75
4, 66998, Note_on_c, 2, 75, 86
4, 67020, Note_on_c, 2, 65, 0
4, 67035, Note_on_c, 2, 75, 0
4, 67185, Note_on_c, 2, 65, 70
4, 67185, Note_on_c, 2, 75, 82
4, 67212, Note_on_c, 2, 65, 0
4, 67218, Note_on_c, 2, 75, 0
4, 67391, Note_on_c, 2, 65, 70
4, 67391, Note_on_c, 2, 75, 86
4, 67418, Note_on_c, 2, 65, 0
4, 67423, Note_on_c, 2, 75, 0
4, 67469, Note_on_c, 2, 65, 72
4, 67469, Note_on_c, 2, 77, 87
4, 67470, Note_on_c, 2, 69, 80
4, 67487, Channel_aftertouch_c, 2, 4
4, 67514, Channel_aftertouch_c, 2, 0
4, 67560, Channel_aftertouch_c, 2, 0
4, 67709, Note_on_c, 2, 77, 0
4, 67714, Note_on_c, 2, 65, 0
4, 67714, Note_on_c, 2, 69, 0
4, 67765, Note_on_c, 2, 65, 72
4, 67771, Note_on_c, 2, 75, 86
4, 67792, Note_on_c, 2, 65, 0
4, 67807, Note_on_c, 2, 75, 0
4, 67950, Note_on_c, 2, 65, 76
4, 67956, Note_on_c, 2, 75, 79
4, 67983, Note_on_c, 2, 65, 0
4, 67983, Note_on_c, 2, 75, 0
4, 68151, Note_on_c, 2, 65, 66
4, 68151, Note_on_c, 2, 75, 86
4, 68173, Note_on_c, 2, 65, 0
4, 68179, Note_on_c, 2, 75, 0
4, 68238, Note_on_c, 2, 65, 70
4, 68238, Note_on_c, 2, 69, 80
4, 68239, Note_on_c, 2, 77, 84
4, 68267, Channel_aftertouch_c, 2, 0
4, 68485, Note_on_c, 2, 77, 0
4, 68495, Note_on_c, 2, 69, 0
4, 68496, Note_on_c, 2, 65, 0
4, 68546, Note_on_c, 2, 65, 70
4, 68546, Note_on_c, 2, 75, 90
4, 68573, Note_on_c, 2, 65, 0
4, 68583, Note_on_c, 2, 75, 0
4, 68732, Note_on_c, 2, 65, 58
4, 68732, Note_on_c, 2, 75, 79
4, 68759, Note_on_c, 2, 65, 0
4, 68764, Note_on_c, 2, 75, 0
4, 68922, Note_on_c, 2, 75, 86
4, 68928, Note_on_c, 2, 65, 75
4, 68949, Note_on_c, 2, 65, 0
4, 68955, Note_on_c, 2, 75, 0
4, 69010, Note_on_c, 2, 65, 69
4, 69010, Note_on_c, 2, 77, 82
4, 69011, Note_on_c, 2, 69, 76
4, 69251, Note_on_c, 2, 77, 0
4, 69262, Note_on_c, 2, 69, 0
4, 69267, Note_on_c, 2, 65, 0
4, 69312, Note_on_c, 2, 65, 68
4, 69318, Note_on_c, 2, 75, 86
4, 69339, Note_on_c, 2, 65, 0
4, 69350, Note_on_c, 2, 75, 0
4, 69504, Note_on_c, 2, 65, 61
4, 69504, Note_on_c, 2, 75, 79
4, 69533, Note_on_c, 2, 65, 0
4, 69538, Note_on_c, 2, 75, 0
4, 69692, Note_on_c, 2, 75, 82
4, 69698, Note_on_c, 2, 65, 62
4, 69724, Note_on_c, 2, 65, 0
4, 69724, Note_on_c, 2, 75, 0
4, 69784, Note_on_c, 2, 72, 80
4, 69791, Note_on_c, 2, 60, 82
4, 69791, Note_on_c, 2, 67, 80
4, 69818, Channel_aftertouch_c, 2, 0
4, 70021, Note_on_c, 2, 60, 0
4, 70037, Note_on_c, 2, 67, 0
4, 70053, Note_on_c, 2, 72, 0
4, 70073, Note_on_c, 2, 64, 75
4, 70073, Note_on_c, 2, 70, 74
4, 70100, Note_on_c, 2, 70, 0
4, 70105, Note_on_c, 2, 64, 0
4, 70264, Note_on_c, 2, 64, 57
4, 70264, Note_on_c, 2, 70, 76
4, 70286, Note_on_c, 2, 70, 0
4, 70291, Note_on_c, 2, 64, 0
4, 70465, Note_on_c, 2, 64, 61
4, 70465, Note_on_c, 2, 70, 86
4, 70482, Note_on_c, 2, 64, 0
4, 70487, Note_on_c, 2, 70, 0
4, 70543, Note_on_c, 2, 64, 73
4, 70543, Note_on_c, 2, 72, 78
4, 70559, Channel_aftertouch_c, 2, 2
4, 70586, Channel_aftertouch_c, 2, 0
4, 70671, Channel_aftertouch_c, 2, 0
4, 70715, Channel_aftertouch_c, 2, 0
4, 70796, Note_on_c, 2, 64, 0
4, 70811, Note_on_c, 2, 72, 0
4, 70836, Note_on_c, 2, 64, 66
4, 70837, Note_on_c, 2, 70, 82
4, 70868, Note_on_c, 2, 70, 0
4, 70874, Note_on_c, 2, 64, 0
4, 71028, Note_on_c, 2, 64, 72
4, 71029, Note_on_c, 2, 70, 86
4, 71058, Note_on_c, 2, 64, 0
4, 71058, Note_on_c, 2, 70, 0
4, 71222, Note_on_c, 2, 64, 70
4, 71222, Note_on_c, 2, 70, 90
4, 71244, Note_on_c, 2, 64, 0
4, 71250, Note_on_c, 2, 70, 0
4, 71315, Note_on_c, 2, 64, 89
4, 71315, Note_on_c, 2, 72, 91
4, 71333, Channel_aftertouch_c, 2, 9
4, 71360, Channel_aftertouch_c, 2, 0
4, 71564, Note_on_c, 2, 64, 0
4, 71580, Note_on_c, 2, 72, 0
4, 71605, Note_on_c, 2, 64, 70
4, 71605, Note_on_c, 2, 70, 86
4, 71638, Note_on_c, 2, 64, 0
4, 71638, Note_on_c, 2, 70, 0
4, 71802, Note_on_c, 2, 64, 69
4, 71802, Note_on_c, 2, 70, 86
4, 71819, Note_on_c, 2, 64, 0
4, 71825, Note_on_c, 2, 70, 0
4, 71993, Note_on_c, 2, 64, 58
4, 71994, Note_on_c, 2, 70, 86
4, 72011, Note_on_c, 2, 64, 0
4, 72016, Note_on_c, 2, 70, 0
4, 72087, Note_on_c, 2, 64, 89
4, 72087, Note_on_c, 2, 72, 94
4, 72104, Channel_aftertouch_c, 2, 14
4, 72136, Channel_aftertouch_c, 2, 0
4, 72161, Channel_aftertouch_c, 2, 0
4, 72210, Channel_aftertouch_c, 2, 0
4, 72335, Note_on_c, 2, 64, 0
4, 72346, Note_on_c, 2, 72, 0
4, 72371, Note_on_c, 2, 64, 59
4, 72372, Note_on_c, 2, 70, 79
4, 72405, Note_on_c, 2, 70, 0
4, 72406, Note_on_c, 2, 64, 0
4, 72575, Note_on_c, 2, 64, 76
4, 72575, Note_on_c, 2, 70, 90
4, 72601, Note_on_c, 2, 70, 0
4, 72602, Note_on_c, 2, 64, 0
4, 72761, Note_on_c, 2, 64, 70
4, 72761, Note_on_c, 2, 70, 86
4, 72788, Note_on_c, 2, 64, 0
4, 72789, Note_on_c, 2, 70, 0
4, 72855, Note_on_c, 2, 67, 73
4, 72855, Note_on_c, 2, 71, 78
4, 72855, Note_on_c, 2, 79, 91
4, 72862, Channel_aftertouch_c, 2, 0
4, 72889, Channel_aftertouch_c, 2, 0
4, 72979, Channel_aftertouch_c, 2, 0
4, 73103, Channel_aftertouch_c, 2, 0
4, 73124, Note_on_c, 2, 79, 0
4, 73125, Note_on_c, 2, 71, 0
4, 73135, Note_on_c, 2, 77, 62
4, 73141, Note_on_c, 2, 71, 50
4, 73172, Note_on_c, 2, 67, 0
4, 73172, Note_on_c, 2, 71, 0
4, 73173, Note_on_c, 2, 77, 0
4, 73332, Note_on_c, 2, 67, 78
4, 73332, Note_on_c, 2, 71, 82
4, 73333, Note_on_c, 2, 77, 75
4, 73350, Note_on_c, 2, 71, 0
4, 73356, Note_on_c, 2, 67, 0
4, 73356, Note_on_c, 2, 77, 0
4, 73520, Note_on_c, 2, 77, 69
4, 73526, Note_on_c, 2, 67, 66
4, 73527, Note_on_c, 2, 71, 63
4, 73543, Note_on_c, 2, 67, 0
4, 73543, Note_on_c, 2, 71, 0
4, 73549, Note_on_c, 2, 77, 0
4, 73614, Note_on_c, 2, 67, 84
4, 73614, Note_on_c, 2, 71, 87
4, 73615, Note_on_c, 2, 79, 94
4, 73632, Channel_aftertouch_c, 2, 10
4, 73659, Channel_aftertouch_c, 2, 1
4, 73703, Channel_aftertouch_c, 2, 2
4, 73739, Channel_aftertouch_c, 2, 4
4, 73789, Channel_aftertouch_c, 2, 5
4, 73922, Channel_aftertouch_c, 2, 2
4, 73948, Channel_aftertouch_c, 2, 0
4, 74018, Note_on_c, 2, 79, 0
4, 74023, Note_on_c, 2, 71, 0
4, 74029, Note_on_c, 2, 67, 0
4, 74112, Note_on_c, 2, 67, 84
4, 74112, Note_on_c, 2, 71, 89
4, 74112, Note_on_c, 2, 79, 97
4, 74116, Channel_aftertouch_c, 2, 5
4, 74143, Channel_aftertouch_c, 2, 0
4, 74212, Note_on_c, 2, 71, 0
4, 74212, Note_on_c, 2, 79, 0
4, 74223, Note_on_c, 2, 67, 0
4, 74304, Note_on_c, 2, 70, 82
4, 74304, Note_on_c, 2, 73, 82
4, 74304, Note_on_c, 2, 78, 82
4, 74404, Note_on_c, 2, 78, 0
4, 74405, Note_on_c, 2, 73, 0
4, 74407, Note_on_c, 2, 70, 0
4, 74485, Channel_aftertouch_c, 2, 4
4, 74496, Note_on_c, 2, 69, 80
4, 74496, Note_on_c, 2, 72, 94
4, 74496, Note_on_c, 2, 77, 76
4, 74511, Channel_aftertouch_c, 2, 3
4, 74537, Channel_aftertouch_c, 2, 0
4, 74582, Note_on_c, 2, 72, 0
4, 74583, Note_on_c, 2, 69, 0
4, 74583, Note_on_c, 2, 77, 0
4, 76032, Note_on_c, 2, 60, 92
4, 76032, Note_on_c, 2, 64, 75
4, 76032, Note_on_c, 2, 72, 75
4, 76032, Channel_aftertouch_c, 2, 0
4, 76056, Channel_aftertouch_c, 2, 0
4, 76156, Note_on_c, 2, 64, 0
4, 76216, Note_on_c, 2, 70, 49
4, 76218, Note_on_c, 2, 72, 0
4, 76222, Note_on_c, 2, 67, 62
4, 76230, Note_on_c, 2, 64, 48
4, 76239, Note_on_c, 2, 70, 0
4, 76245, Note_on_c, 2, 67, 0
4, 76253, Note_on_c, 2, 64, 0
4, 76266, Note_on_c, 2, 60, 0
4, 76407, Note_on_c, 2, 70, 76
4, 76413, Note_on_c, 2, 64, 68
4, 76414, Note_on_c, 2, 67, 76
4, 76430, Note_on_c, 2, 70, 0
4, 76436, Note_on_c, 2, 64, 0
4, 76437, Note_on_c, 2, 67, 0
4, 76601, Note_on_c, 2, 64, 64
4, 76601, Note_on_c, 2, 70, 76
4, 76602, Note_on_c, 2, 67, 82
4, 76624, Note_on_c, 2, 64, 0
4, 76624, Note_on_c, 2, 70, 0
4, 76625, Note_on_c, 2, 67, 0
4, 76696, Note_on_c, 2, 60, 90
4, 76696, Note_on_c, 2, 67, 84
4, 76697, Note_on_c, 2, 72, 78
4, 76731, Channel_aftertouch_c, 2, 0
4, 76925, Note_on_c, 2, 72, 0
4, 76945, Note_on_c, 2, 67, 0
4, 76976, Note_on_c, 2, 60, 0
4, 76981, Note_on_c, 2, 64, 56
4, 76982, Note_on_c, 2, 67, 66
4, 76989, Note_on_c, 2, 70, 53
4, 77005, Note_on_c, 2, 67, 0
4, 77006, Note_on_c, 2, 64, 0
4, 77012, Note_on_c, 2, 70, 0
4, 77177, Note_on_c, 2, 64, 65
4, 77177, Note_on_c, 2, 67, 78
4, 77177, Note_on_c, 2, 70, 76
4, 77200, Note_on_c, 2, 64, 0
4, 77200, Note_on_c, 2, 67, 0
4, 77200, Note_on_c, 2, 70, 0
4, 77365, Note_on_c, 2, 64, 61
4, 77365, Note_on_c, 2, 70, 79
4, 77372, Note_on_c, 2, 67, 73
4, 77388, Note_on_c, 2, 64, 0
4, 77388, Note_on_c, 2, 70, 0
4, 77395, Note_on_c, 2, 67, 0
4, 77464, Note_on_c, 2, 67, 75
4, 77464, Note_on_c, 2, 72, 73
4, 77471, Note_on_c, 2, 60, 96
4, 77477, Channel_aftertouch_c, 2, 0
4, 77504, Channel_aftertouch_c, 2, 0
4, 77713, Note_on_c, 2, 67, 0
4, 77749, Note_on_c, 2, 72, 0
4, 77750, Note_on_c, 2, 60, 0
4, 77753, Note_on_c, 2, 67, 62
4, 77754, Note_on_c, 2, 64, 55
4, 77754, Note_on_c, 2, 70, 52
4, 77776, Note_on_c, 2, 67, 0
4, 77777, Note_on_c, 2, 64, 0
4, 77777, Note_on_c, 2, 70, 0
4, 77942, Note_on_c, 2, 64, 58
4, 77942, Note_on_c, 2, 70, 74
4, 77949, Note_on_c, 2, 67, 73
4, 77965, Note_on_c, 2, 64, 0
4, 77967, Note_on_c, 2, 70, 0
4, 77972, Note_on_c, 2, 67, 0
4, 78126, Note_on_c, 2, 64, 63
4, 78132, Note_on_c, 2, 67, 76
4, 78132, Note_on_c, 2, 70, 76
4, 78149, Note_on_c, 2, 64, 0
4, 78155, Note_on_c, 2, 67, 0
4, 78155, Note_on_c, 2, 70, 0
4, 78226, Note_on_c, 2, 60, 95
4, 78226, Note_on_c, 2, 67, 76
4, 78233, Note_on_c, 2, 72, 70
4, 78258, Channel_aftertouch_c, 2, 0
4, 78463, Note_on_c, 2, 72, 0
4, 78479, Note_on_c, 2, 67, 0
4, 78514, Note_on_c, 2, 67, 65
4, 78514, Note_on_c, 2, 70, 58
4, 78515, Note_on_c, 2, 64, 56
4, 78517, Note_on_c, 2, 60, 0
4, 78538, Note_on_c, 2, 64, 0
4, 78538, Note_on_c, 2, 67, 0
4, 78544, Note_on_c, 2, 70, 0
4, 78709, Note_on_c, 2, 64, 58
4, 78709, Note_on_c, 2, 70, 67
4, 78716, Note_on_c, 2, 67, 64
4, 78732, Note_on_c, 2, 64, 0
4, 78732, Note_on_c, 2, 70, 0
4, 78739, Note_on_c, 2, 67, 0
4, 78903, Note_on_c, 2, 64, 59
4, 78903, Note_on_c, 2, 67, 80
4, 78903, Note_on_c, 2, 70, 76
4, 78926, Note_on_c, 2, 64, 0
4, 78926, Note_on_c, 2, 67, 0
4, 78926, Note_on_c, 2, 70, 0
4, 79104, Note_on_c, 2, 48, 92
4, 79104, Note_on_c, 2, 52, 75
4, 79104, Note_on_c, 2, 60, 75
4, 79104, Channel_aftertouch_c, 2, 0
4, 79128, Channel_aftertouch_c, 2, 0
4, 79228, Note_on_c, 2, 52, 0
4, 79288, Note_on_c, 2, 58, 49
4, 79290, Note_on_c, 2, 60, 0
4, 79294, Note_on_c, 2, 55, 62
4, 79302, Note_on_c, 2, 52, 48
4, 79311, Note_on_c, 2, 58, 0
4, 79317, Note_on_c, 2, 55, 0
4, 79325, Note_on_c, 2, 52, 0
4, 79338, Note_on_c, 2, 48, 0
4, 79479, Note_on_c, 2, 58, 76
4, 79485, Note_on_c, 2, 52, 68
4, 79486, Note_on_c, 2, 55, 76
4, 79502, Note_on_c, 2, 58, 0
4, 79508, Note_on_c, 2, 52, 0
4, 79509, Note_on_c, 2, 55, 0
4, 79673, Note_on_c, 2, 52, 64
4, 79673, Note_on_c, 2, 58, 76
4, 79674, Note_on_c, 2, 55, 82
4, 79696, Note_on_c, 2, 52, 0
4, 79696, Note_on_c, 2, 58, 0
4, 79697, Note_on_c, 2, 55, 0
4, 79768, Note_on_c, 2, 48, 90
4, 79768, Note_on_c, 2, 55, 84
4, 79769, Note_on_c, 2, 60, 78
4, 79803, Channel_aftertouch_c, 2, 0
4, 79997, Note_on_c, 2, 48, 0
4, 80017, Note_on_c, 2, 55, 0
4, 80048, Note_on_c, 2, 60, 0
4, 80053, Note_on_c, 2, 52, 56
4, 80054, Note_on_c, 2, 55, 66
4, 80061, Note_on_c, 2, 58, 53
4, 80077, Note_on_c, 2, 55, 0
4, 80078, Note_on_c, 2, 52, 0
4, 80084, Note_on_c, 2, 58, 0
4, 80249, Note_on_c, 2, 52, 65
4, 80249, Note_on_c, 2, 55, 78
4, 80249, Note_on_c, 2, 58, 76
4, 80272, Note_on_c, 2, 52, 0
4, 80272, Note_on_c, 2, 55, 0
4, 80272, Note_on_c, 2, 58, 0
4, 80437, Note_on_c, 2, 52, 61
4, 80437, Note_on_c, 2, 58, 79
4, 80444, Note_on_c, 2, 55, 73
4, 80460, Note_on_c, 2, 52, 0
4, 80460, Note_on_c, 2, 58, 0
4, 80467, Note_on_c, 2, 55, 0
4, 80536, Note_on_c, 2, 55, 75
4, 80536, Note_on_c, 2, 60, 73
4, 80543, Note_on_c, 2, 48, 96
4, 80549, Channel_aftertouch_c, 2, 0
4, 80576, Channel_aftertouch_c, 2, 0
4, 80640, Note_on_c, 2, 48, 92
4, 80640, Note_on_c, 2, 52, 75
4, 80640, Note_on_c, 2, 60, 75
4, 80640, Channel_aftertouch_c, 2, 0
4, 80664, Channel_aftertouch_c, 2, 0
4, 80764, Note_on_c, 2, 52, 0
4, 80785, Note_on_c, 2, 55, 0
4, 80821, Note_on_c, 2, 60, 0
4, 80822, Note_on_c, 2, 48, 0
4, 80824, Note_on_c, 2, 58, 49
4, 80826, Note_on_c, 2, 60, 0
4, 80830, Note_on_c, 2, 55, 62
4, 80838, Note_on_c, 2, 52, 48
4, 80847, Note_on_c, 2, 58, 0
4, 80853, Note_on_c, 2, 55, 0
4, 80861, Note_on_c, 2, 52, 0
4, 80874, Note_on_c, 2, 48, 0
4, 81015, Note_on_c, 2, 58, 76
4, 81021, Note_on_c, 2, 52, 68
4, 81022, Note_on_c, 2, 55, 76
4, 81038, Note_on_c, 2, 58, 0
4, 81044, Note_on_c, 2, 52, 0
4, 81045, Note_on_c, 2, 55, 0
4, 81209, Note_on_c, 2, 52, 64
4, 81209, Note_on_c, 2, 58, 76
4, 81210, Note_on_c, 2, 55, 82
4, 81232, Note_on_c, 2, 52, 0
4, 81232, Note_on_c, 2, 58, 0
4, 81233, Note_on_c, 2, 55, 0
4, 81304, Note_on_c, 2, 48, 90
4, 81304, Note_on_c, 2, 55, 84
4, 81305, Note_on_c, 2, 60, 78
4, 81339, Channel_aftertouch_c, 2, 0
4, 81533, Note_on_c, 2, 48, 0
4, 81553, Note_on_c, 2, 55, 0
4, 81584, Note_on_c, 2, 60, 0
4, 81589, Note_on_c, 2, 52, 56
4, 81590, Note_on_c, 2, 55, 66
4, 81597, Note_on_c, 2, 58, 53
4, 81613, Note_on_c, 2, 55, 0
4, 81614, Note_on_c, 2, 52, 0
4, 81620, Note_on_c, 2, 58, 0
4, 81785, Note_on_c, 2, 52, 65
4, 81785, Note_on_c, 2, 55, 78
4, 81785, Note_on_c, 2, 58, 76
4, 81808, Note_on_c, 2, 52, 0
4, 81808, Note_on_c, 2, 55, 0
4, 81808, Note_on_c, 2, 58, 0
4, 81973, Note_on_c, 2, 52, 61
4, 81973, Note_on_c, 2, 58, 79
4, 81980, Note_on_c, 2, 55, 73
4, 81996, Note_on_c, 2, 52, 0
4, 81996, Note_on_c, 2, 58, 0
4, 82003, Note_on_c, 2, 55, 0
4, 82072, Note_on_c, 2, 55, 75
4, 82072, Note_on_c, 2, 60, 73
4, 82079, Note_on_c, 2, 48, 96
4, 82085, Channel_aftertouch_c, 2, 0
4, 82112, Channel_aftertouch_c, 2, 0
4, 82176, Note_on_c, 2, 48, 92
4, 82176, Note_on_c, 2, 52, 75
4, 82176, Note_on_c, 2, 60, 75
4, 82176, Channel_aftertouch_c, 2, 0
4, 82200, Channel_aftertouch_c, 2, 0
4, 82300, Note_on_c, 2, 52, 0
4, 82321, Note_on_c, 2, 55, 0
4, 82357, Note_on_c, 2, 60, 0
4, 82358, Note_on_c, 2, 48, 0
4, 82360, Note_on_c, 2, 58, 49
4, 82362, Note_on_c, 2, 60, 0
4, 82366, Note_on_c, 2, 55, 62
4, 82374, Note_on_c, 2, 52, 48
4, 82383, Note_on_c, 2, 58, 0
4, 82389, Note_on_c, 2, 55, 0
4, 82397, Note_on_c, 2, 52, 0
4, 82410, Note_on_c, 2, 48, 0
4, 82551, Note_on_c, 2, 58, 76
4, 82557, Note_on_c, 2, 52, 68
4, 82558, Note_on_c, 2, 55, 76
4, 82574, Note_on_c, 2, 58, 0
4, 82580, Note_on_c, 2, 52, 0
4, 82581, Note_on_c, 2, 55, 0
4, 82745, Note_on_c, 2, 52, 64
4, 82745, Note_on_c, 2, 58, 76
4, 82746, Note_on_c, 2, 55, 82
4, 82768, Note_on_c, 2, 52, 0
4, 82768, Note_on_c, 2, 58, 0
4, 82769, Note_on_c, 2, 55, 0
4, 82840, Note_on_c, 2, 48, 90
4, 82840, Note_on_c, 2, 55, 84
4, 82841, Note_on_c, 2, 60, 78
4, 82875, Channel_aftertouch_c, 2, 0
4, 83069, Note_on_c, 2, 48, 0
4, 83089, Note_on_c, 2, 55, 0
4, 83120, Note_on_c, 2, 60, 0
4, 83125, Note_on_c, 2, 52, 56
4, 83126, Note_on_c, 2, 55, 66
4, 83133, Note_on_c, 2, 58, 53
4, 83149, Note_on_c, 2, 55, 0
4, 83150, Note_on_c, 2, 52, 0
4, 83156, Note_on_c, 2, 58, 0
4, 83321, Note_on_c, 2, 52, 65
4, 83321, Note_on_c, 2, 55, 78
4, 83321, Note_on_c, 2, 58, 76
4, 83344, Note_on_c, 2, 52, 0
4, 83344, Note_on_c, 2, 55, 0
4, 83344, Note_on_c, 2, 58, 0
4, 83509, Note_on_c, 2, 52, 61
4, 83509, Note_on_c, 2, 58, 79
4, 83516, Note_on_c, 2, 55, 73
4, 83532, Note_on_c, 2, 52, 0
4, 83532, Note_on_c, 2, 58, 0
4, 83539, Note_on_c, 2, 55, 0
4, 83608, Note_on_c, 2, 55, 75
4, 83608, Note_on_c, 2, 60, 73
4, 83615, Note_on_c, 2, 48, 96
4, 83621, Channel_aftertouch_c, 2, 0
4, 83648, Channel_aftertouch_c, 2, 0
4, 83712, Note_on_c, 2, 48, 92
4, 83712, Note_on_c, 2, 52, 75
4, 83712, Note_on_c, 2, 60, 75
4, 83712, Channel_aftertouch_c, 2, 0
4, 83736, Channel_aftertouch_c, 2, 0
4, 83836, Note_on_c, 2, 52, 0
4, 83857, Note_on_c, 2, 55, 0
4, 83893, Note_on_c, 2, 60, 0
4, 83894, Note_on_c, 2, 48, 0
4, 83896, Note_on_c, 2, 58, 49
4, 83898, Note_on_c, 2, 60, 0
4, 83902, Note_on_c, 2, 55, 62
4, 83910, Note_on_c, 2, 52, 48
4, 83919, Note_on_c, 2, 58, 0
4, 83925, Note_on_c, 2, 55, 0
4, 83933, Note_on_c, 2, 52, 0
4, 83946, Note_on_c, 2, 48, 0
4, 84087, Note_on_c, 2, 58, 76
4, 84093, Note_on_c, 2, 52, 68
4, 84094, Note_on_c, 2, 55, 76
4, 84110, Note_on_c, 2, 58, 0
4, 84116, Note_on_c, 2, 52, 0
4, 84117, Note_on_c, 2, 55, 0
4, 84281, Note_on_c, 2, 52, 64
4, 84281, Note_on_c, 2, 58, 76
4, 84282, Note_on_c, 2, 55, 82
4, 84304, Note_on_c, 2, 52, 0
4, 84304, Note_on_c, 2, 58, 0
4, 84305, Note_on_c, 2, 55, 0
4, 84376, Note_on_c, 2, 48, 90
4, 84376, Note_on_c, 2, 55, 84
4, 84377, Note_on_c, 2, 60, 78
4, 84411, Channel_aftertouch_c, 2, 0
4, 84605, Note_on_c, 2, 48, 0
4, 84625, Note_on_c, 2, 55, 0
4, 84656, Note_on_c, 2, 60, 0
4, 84661, Note_on_c, 2, 52, 56
4, 84662, Note_on_c, 2, 55, 66
4, 84669, Note_on_c, 2, 58, 53
4, 84685, Note_on_c, 2, 55, 0
4, 84686, Note_on_c, 2, 52, 0
4, 84692, Note_on_c, 2, 58, 0
4, 84857, Note_on_c, 2, 52, 65
4, 84857, Note_on_c, 2, 55, 78
4, 84857, Note_on_c, 2, 58, 76
4, 84880, Note_on_c, 2, 52, 0
4, 84880, Note_on_c, 2, 55, 0
4, 84880, Note_on_c, 2, 58, 0
4, 85045, Note_on_c, 2, 52, 61
4, 85045, Note_on_c, 2, 58, 79
4, 85052, Note_on_c, 2, 55, 73
4, 85068, Note_on_c, 2, 52, 0
4, 85068, Note_on_c, 2, 58, 0
4, 85075, Note_on_c, 2, 55, 0
4, 85144, Note_on_c, 2, 55, 75
4, 85144, Note_on_c, 2, 60, 73
4, 85151, Note_on_c, 2, 48, 96
4, 85157, Channel_aftertouch_c, 2, 0
4, 85184, Channel_aftertouch_c, 2, 0
4, 85248, Note_on_c, 2, 48, 92
4, 85248, Note_on_c, 2, 52, 75
4, 85248, Note_on_c, 2, 60, 75
4, 85248, Channel_aftertouch_c, 2, 0
4, 85272, Channel_aftertouch_c, 2, 0
4, 85372, Note_on_c, 2, 52, 0
4, 85393, Note_on_c, 2, 55, 0
4, 85429, Note_on_c, 2, 60, 0
4, 85430, Note_on_c, 2, 48, 0
4, 85432, Note_on_c, 2, 58, 49
4, 85434, Note_on_c, 2, 60, 0
4, 85438, Note_on_c, 2, 55, 62
4, 85446, Note_on_c, 2, 52, 48
4, 85455, Note_on_c, 2, 58, 0
4, 85461, Note_on_c, 2, 55, 0
4, 85469, Note_on_c, 2, 52, 0
4, 85482, Note_on_c, 2, 48, 0
4, 85623, Note_on_c, 2, 58, 76
4, 85629, Note_on_c, 2, 52, 68
4, 85630, Note_on_c, 2, 55, 76
4, 85646, Note_on_c, 2, 58, 0
4, 85652, Note_on_c, 2, 52, 0
4, 85653, Note_on_c, 2, 55, 0
4, 85817, Note_on_c, 2, 52, 64
4, 85817, Note_on_c, 2, 58, 76
4, 85818, Note_on_c, 2, 55, 82
4, 85840, Note_on_c, 2, 52, 0
4, 85840, Note_on_c, 2, 58, 0
4, 85841, Note_on_c, 2, 55, 0
4, 85912, Note_on_c, 2, 48, 90
4, 85912, Note_on_c, 2, 55, 84
4, 85913, Note_on_c, 2, 60, 78
4, 85947, Channel_aftertouch_c, 2, 0
4, 86141, Note_on_c, 2, 48, 0
4, 86161, Note_on_c, 2, 55, 0
4, 86192, Note_on_c, 2, 60, 0
4, 86197, Note_on_c, 2, 52, 56
4, 86198, Note_on_c, 2, 55, 66
4, 86205, Note_on_c, 2, 58, 53
4, 86221, Note_on_c, 2, 55, 0
4, 86222, Note_on_c, 2, 52, 0
4, 86228, Note_on_c, 2, 58, 0
4, 86393, Note_on_c, 2, 52, 65
4, 86393, Note_on_c, 2, 55, 78
4, 86393, Note_on_c, 2, 58, 76
4, 86399, Note_on_c, 2, 52, 0
4, 86399, Note_on_c, 2, 55, 0
4, 86399, Note_on_c, 2, 58, 0
4, 86585, Note_on_c, 2, 52, 64
4, 86585, Note_on_c, 2, 58, 76
4, 86586, Note_on_c, 2, 55, 82
4, 86608, Note_on_c, 2, 52, 0
4, 86608, Note_on_c, 2, 58, 0
4, 86609, Note_on_c, 2, 55, 0
4, 86680, Note_on_c, 2, 48, 90
4, 86680, Note_on_c, 2, 55, 84
4, 86681, Note_on_c, 2, 60, 78
4, 86715, Channel_aftertouch_c, 2, 0
4, 86909, Note_on_c, 2, 48, 0
4, 86929, Note_on_c, 2, 55, 0
4, 86960, Note_on_c, 2, 60, 0
4, 86960, End_track
5, 0, Start_track
5, 0, Channel_prefix, 3
5, 0, Text_t, "piano   "
5, 96, Text_t, "piano"
5, 5563, Note_on_c, 3, 76, 117
5, 5563, Note_on_c, 3, 82, 117
5, 5564, Note_on_c, 3, 79, 117
5, 5572, Note_on_c, 3, 84, 117
5, 5578, Channel_aftertouch_c, 3, 10
5, 5604, Channel_aftertouch_c, 3, 0
5, 5633, Channel_aftertouch_c, 3, 0
5, 5658, Channel_aftertouch_c, 3, 0
5, 5659, Note_on_c, 3, 82, 0
5, 5665, Note_on_c, 3, 82, 47
5, 5690, Channel_aftertouch_c, 3, 0
5, 5760, Note_on_c, 3, 82, 0
5, 5765, Note_on_c, 3, 82, 69
5, 5801, Note_on_c, 3, 82, 0
5, 5816, Note_on_c, 3, 82, 53
5, 5847, Note_on_c, 3, 82, 0
5, 5872, Note_on_c, 3, 82, 62
5, 5878, Note_on_c, 3, 79, 0
5, 5893, Note_on_c, 3, 82, 0
5, 5898, Note_on_c, 3, 79, 57
5, 5919, Note_on_c, 3, 82, 65
5, 5925, Note_on_c, 3, 79, 0
5, 5951, Note_on_c, 3, 79, 69
5, 5956, Note_on_c, 3, 82, 0
5, 5971, Note_on_c, 3, 82, 63
5, 5978, Note_on_c, 3, 79, 0
5, 6003, Note_on_c, 3, 79, 68
5, 6004, Note_on_c, 3, 82, 0
5, 6020, Note_on_c, 3, 82, 65
5, 6026, Note_on_c, 3, 79, 0
5, 6031, Note_on_c, 3, 83, 70
5, 6037, Note_on_c, 3, 83, 0
5, 6052, Note_on_c, 3, 79, 61
5, 6058, Note_on_c, 3, 82, 0
5, 6074, Note_on_c, 3, 82, 64
5, 6080, Note_on_c, 3, 79, 0
5, 6100, Note_on_c, 3, 79, 62
5, 6100, Note_on_c, 3, 82, 0
5, 6117, Note_on_c, 3, 84, 0
5, 6122, Note_on_c, 3, 82, 74
5, 6153, Note_on_c, 3, 79, 0
5, 6159, Note_on_c, 3, 76, 0
5, 6159, Note_on_c, 3, 82, 0
5, 7093, Note_on_c, 3, 79, 117
5, 7094, Note_on_c, 3, 76, 117
5, 7094, Note_on_c, 3, 82, 117
5, 7094, Note_on_c, 3, 84, 114
5, 7103, Channel_aftertouch_c, 3, 5
5, 7130, Channel_aftertouch_c, 3, 0
5, 7230, Note_on_c, 3, 79, 0
5, 7250, Note_on_c, 3, 79, 65
5, 7261, Note_on_c, 3, 82, 0
5, 7277, Note_on_c, 3, 82, 55
5, 7307, Note_on_c, 3, 82, 0
5, 7322, Note_on_c, 3, 82, 57
5, 7338, Note_on_c, 3, 79, 0
5, 7349, Note_on_c, 3, 79, 49
5, 7360, Note_on_c, 3, 82, 0
5, 7370, Note_on_c, 3, 82, 61
5, 7385, Note_on_c, 3, 79, 0
5, 7396, Note_on_c, 3, 79, 55
5, 7407, Note_on_c, 3, 82, 0
5, 7422, Note_on_c, 3, 82, 61
5, 7433, Note_on_c, 3, 79, 0
5, 7453, Note_on_c, 3, 79, 62
5, 7484, Note_on_c, 3, 79, 0
5, 7504, Note_on_c, 3, 79, 64
5, 7510, Note_on_c, 3, 82, 0
5, 7530, Note_on_c, 3, 82, 64
5, 7536, Note_on_c, 3, 79, 0
5, 7556, Note_on_c, 3, 79, 63
5, 7592, Note_on_c, 3, 79, 0
5, 7607, Note_on_c, 3, 79, 64
5, 7682, Note_on_c, 3, 82, 0
5, 7697, Note_on_c, 3, 79, 0
5, 7698, Note_on_c, 3, 76, 0
5, 7703, Note_on_c, 3, 84, 0
5, 8642, Note_on_c, 3, 82, 117
5, 8643, Note_on_c, 3, 76, 117
5, 8643, Note_on_c, 3, 79, 117
5, 8643, Note_on_c, 3, 84, 117
5, 8652, Note_on_c, 3, 83, 98
5, 8657, Channel_aftertouch_c, 3, 7
5, 8659, Note_on_c, 3, 83, 0
5, 8680, Channel_aftertouch_c, 3, 0
5, 8701, Note_on_c, 3, 82, 0
5, 8706, Channel_aftertouch_c, 3, 1
5, 8727, Note_on_c, 3, 82, 68
5, 8737, Channel_aftertouch_c, 3, 0
5, 8788, Note_on_c, 3, 79, 0
5, 8798, Note_on_c, 3, 79, 58
5, 8809, Note_on_c, 3, 82, 0
5, 8824, Note_on_c, 3, 82, 62
5, 8884, Note_on_c, 3, 79, 0
5, 8900, Note_on_c, 3, 79, 66
5, 8940, Note_on_c, 3, 79, 0
5, 8950, Note_on_c, 3, 79, 63
5, 8995, Note_on_c, 3, 79, 0
5, 9001, Note_on_c, 3, 79, 59
5, 9144, Note_on_c, 3, 82, 0
5, 9204, Note_on_c, 3, 84, 0
5, 9220, Note_on_c, 3, 76, 0
5, 9220, Note_on_c, 3, 79, 0
5, 10154, Note_on_c, 3, 76, 117
5, 10154, Note_on_c, 3, 79, 117
5, 10154, Note_on_c, 3, 82, 117
5, 10155, Note_on_c, 3, 84, 117
5, 10163, Note_on_c, 3, 83, 78
5, 10169, Channel_aftertouch_c, 3, 4
5, 10170, Note_on_c, 3, 83, 0
5, 10192, Channel_aftertouch_c, 3, 0
5, 10315, Note_on_c, 3, 79, 0
5, 10325, Note_on_c, 3, 79, 50
5, 10341, Note_on_c, 3, 82, 0
5, 10352, Note_on_c, 3, 82, 54
5, 10377, Note_on_c, 3, 82, 0
5, 10402, Note_on_c, 3, 82, 64
5, 10413, Note_on_c, 3, 79, 0
5, 10429, Note_on_c, 3, 79, 67
5, 10444, Note_on_c, 3, 82, 0
5, 10450, Note_on_c, 3, 82, 53
5, 10466, Note_on_c, 3, 79, 0
5, 10481, Note_on_c, 3, 79, 70
5, 10492, Note_on_c, 3, 82, 0
5, 10508, Note_on_c, 3, 82, 64
5, 10519, Note_on_c, 3, 79, 0
5, 10529, Note_on_c, 3, 79, 58
5, 10565, Note_on_c, 3, 79, 0
5, 10585, Note_on_c, 3, 79, 67
5, 10596, Note_on_c, 3, 82, 0
5, 10611, Note_on_c, 3, 82, 64
5, 10618, Note_on_c, 3, 79, 0
5, 10633, Note_on_c, 3, 79, 62
5, 10669, Note_on_c, 3, 79, 0
5, 10684, Note_on_c, 3, 79, 63
5, 10699, Note_on_c, 3, 82, 0
5, 10710, Note_on_c, 3, 82, 63
5, 10755, Note_on_c, 3, 82, 0
5, 10766, Note_on_c, 3, 79, 0
5, 10776, Note_on_c, 3, 76, 0
5, 10777, Note_on_c, 3, 84, 0
5, 11720, Note_on_c, 3, 77, 76
5, 11720, Note_on_c, 3, 81, 77
5, 11720, Note_on_c, 3, 84, 81
5, 11720, Note_on_c, 3, 87, 62
5, 11743, Channel_aftertouch_c, 3, 0
5, 13883, Note_on_c, 3, 81, 0
5, 13888, Note_on_c, 3, 77, 0
5, 13927, Note_on_c, 3, 84, 0
5, 13927, Note_on_c, 3, 87, 0
5, 14779, Note_on_c, 3, 76, 117
5, 14779, Note_on_c, 3, 79, 117
5, 14779, Note_on_c, 3, 82, 117
5, 14780, Note_on_c, 3, 84, 117
5, 14792, Channel_aftertouch_c, 3, 9
5, 14819, Channel_aftertouch_c, 3, 0
5, 14853, Channel_aftertouch_c, 3, 0
5, 14855, Note_on_c, 3, 82, 0
5, 14865, Note_on_c, 3, 82, 62
5, 14905, Note_on_c, 3, 82, 0
5, 14916, Note_on_c, 3, 82, 59
5, 14951, Note_on_c, 3, 82, 0
5, 14971, Note_on_c, 3, 82, 61
5, 14982, Note_on_c, 3, 79, 0
5, 14993, Note_on_c, 3, 79, 55
5, 14998, Note_on_c, 3, 82, 0
5, 15019, Note_on_c, 3, 82, 64
5, 15025, Note_on_c, 3, 79, 0
5, 15045, Note_on_c, 3, 79, 65
5, 15061, Note_on_c, 3, 82, 0
5, 15072, Note_on_c, 3, 82, 59
5, 15078, Note_on_c, 3, 79, 0
5, 15093, Note_on_c, 3, 79, 70
5, 15109, Note_on_c, 3, 82, 0
5, 15119, Note_on_c, 3, 82, 61
5, 15135, Note_on_c, 3, 79, 0
5, 15146, Note_on_c, 3, 79, 58
5, 15161, Note_on_c, 3, 82, 0
5, 15177, Note_on_c, 3, 82, 63
5, 15324, Note_on_c, 3, 82, 0
5, 15344, Note_on_c, 3, 79, 0
5, 15359, Note_on_c, 3, 84, 0
5, 15365, Note_on_c, 3, 76, 0
5, 16308, Note_on_c, 3, 82, 117
5, 16309, Note_on_c, 3, 76, 117
5, 16309, Note_on_c, 3, 79, 117
5, 16316, Channel_aftertouch_c, 3, 2
5, 16317, Note_on_c, 3, 83, 95
5, 16317, Note_on_c, 3, 84, 111
5, 16329, Note_on_c, 3, 83, 0
5, 16340, Channel_aftertouch_c, 3, 0
5, 16366, Note_on_c, 3, 82, 0
5, 16391, Note_on_c, 3, 82, 64
5, 16480, Note_on_c, 3, 82, 0
5, 16491, Note_on_c, 3, 82, 57
5, 16526, Note_on_c, 3, 82, 0
5, 16547, Note_on_c, 3, 82, 60
5, 16587, Note_on_c, 3, 82, 0
5, 16597, Note_on_c, 3, 82, 59
5, 16628, Note_on_c, 3, 82, 0
5, 16653, Note_on_c, 3, 82, 65
5, 16693, Note_on_c, 3, 82, 0
5, 16704, Note_on_c, 3, 82, 61
5, 16715, Note_on_c, 3, 79, 0
5, 16735, Note_on_c, 3, 79, 64
5, 16741, Note_on_c, 3, 82, 0
5, 16756, Note_on_c, 3, 82, 63
5, 16767, Note_on_c, 3, 79, 0
5, 16787, Note_on_c, 3, 79, 64
5, 16798, Note_on_c, 3, 82, 0
5, 16813, Note_on_c, 3, 82, 64
5, 16820, Note_on_c, 3, 79, 0
5, 16845, Note_on_c, 3, 79, 58
5, 16875, Note_on_c, 3, 79, 0
5, 16886, Note_on_c, 3, 82, 0
5, 16891, Note_on_c, 3, 84, 0
5, 16892, Note_on_c, 3, 76, 0
5, 18411, Note_on_c, 3, 79, 96
5, 18412, Note_on_c, 3, 83, 109
5, 18412, Note_on_c, 3, 86, 100
5, 18413, Note_on_c, 3, 89, 104
5, 18768, Note_on_c, 3, 79, 0
5, 18768, Note_on_c, 3, 89, 0
5, 18769, Note_on_c, 3, 86, 0
5, 18770, Note_on_c, 3, 83, 0
5, 18815, Note_on_c, 3, 89, 109
5, 18821, Note_on_c, 3, 79, 109
5, 18821, Note_on_c, 3, 83, 117
5, 18821, Note_on_c, 3, 86, 111
5, 18834, Channel_aftertouch_c, 3, 5
5, 18861, Channel_aftertouch_c, 3, 0
5, 18950, Note_on_c, 3, 89, 0
5, 18960, Note_on_c, 3, 79, 0
5, 18966, Note_on_c, 3, 83, 0
5, 18966, Note_on_c, 3, 86, 0
5, 19011, Note_on_c, 3, 78, 91
5, 19011, Note_on_c, 3, 85, 110
5, 19012, Note_on_c, 3, 82, 96
5, 19152, Note_on_c, 3, 82, 0
5, 19157, Note_on_c, 3, 85, 0
5, 19158, Note_on_c, 3, 78, 0
5, 19188, Note_on_c, 3, 77, 88
5, 19188, Note_on_c, 3, 81, 104
5, 19189, Note_on_c, 3, 84, 109
5, 19211, Channel_aftertouch_c, 3, 7
5, 19238, Channel_aftertouch_c, 3, 0
5, 19293, Note_on_c, 3, 77, 0
5, 19294, Note_on_c, 3, 81, 0
5, 19294, Note_on_c, 3, 84, 0
5, 26494, Note_on_c, 3, 84, 104
5, 26534, Note_on_c, 3, 84, 0
5, 26545, Note_on_c, 3, 82, 85
5, 26590, Note_on_c, 3, 82, 0
5, 26596, Note_on_c, 3, 79, 80
5, 26631, Note_on_c, 3, 79, 0
5, 26642, Note_on_c, 3, 76, 89
5, 26677, Note_on_c, 3, 76, 0
5, 26693, Note_on_c, 3, 74, 92
5, 26723, Note_on_c, 3, 74, 0
5, 26739, Note_on_c, 3, 72, 81
5, 26779, Note_on_c, 3, 72, 0
5, 26785, Note_on_c, 3, 76, 70
5, 26820, Note_on_c, 3, 76, 0
5, 26826, Note_on_c, 3, 79, 73
5, 26856, Note_on_c, 3, 79, 0
5, 26866, Note_on_c, 3, 82, 64
5, 26877, Note_on_c, 3, 82, 0
5, 26883, Note_on_c, 3, 72, 117
5, 26904, Channel_aftertouch_c, 3, 4
5, 26930, Channel_aftertouch_c, 3, 0
5, 27069, Note_on_c, 3, 76, 102
5, 27069, Note_on_c, 3, 79, 107
5, 27070, Note_on_c, 3, 82, 102
5, 27092, Note_on_c, 3, 76, 0
5, 27092, Note_on_c, 3, 79, 0
5, 27092, Note_on_c, 3, 82, 0
5, 27098, Note_on_c, 3, 72, 0
5, 27251, Note_on_c, 3, 70, 85
5, 27251, Note_on_c, 3, 76, 76
5, 27257, Note_on_c, 3, 67, 82
5, 27367, Note_on_c, 3, 70, 0
5, 27372, Note_on_c, 3, 67, 0
5, 27378, Note_on_c, 3, 76, 0
5, 27403, Note_on_c, 3, 67, 93
5, 27404, Note_on_c, 3, 70, 96
5, 27404, Note_on_c, 3, 72, 111
5, 27431, Channel_aftertouch_c, 3, 0
5, 27437, Note_on_c, 3, 67, 0
5, 27442, Note_on_c, 3, 70, 0
5, 27443, Note_on_c, 3, 72, 0
5, 27508, Note_on_c, 3, 67, 68
5, 27534, Note_on_c, 3, 70, 85
5, 27545, Note_on_c, 3, 72, 102
5, 27560, Channel_aftertouch_c, 3, 0
5, 27571, Note_on_c, 3, 70, 0
5, 27587, Note_on_c, 3, 72, 0
5, 27592, Note_on_c, 3, 67, 0
5, 27637, Note_on_c, 3, 72, 98
5, 27643, Note_on_c, 3, 67, 93
5, 27643, Note_on_c, 3, 70, 99
5, 27670, Channel_aftertouch_c, 3, 0
5, 27793, Note_on_c, 3, 70, 0
5, 27794, Note_on_c, 3, 67, 0
5, 27824, Note_on_c, 3, 72, 0
5, 27835, Note_on_c, 3, 67, 104
5, 27835, Note_on_c, 3, 70, 106
5, 27835, Note_on_c, 3, 76, 114
5, 27847, Channel_aftertouch_c, 3, 6
5, 27859, Note_on_c, 3, 70, 0
5, 27865, Note_on_c, 3, 67, 0
5, 27865, Note_on_c, 3, 76, 0
5, 27871, Channel_aftertouch_c, 3, 0
5, 28025, Note_on_c, 3, 67, 102
5, 28025, Note_on_c, 3, 70, 114
5, 28025, Note_on_c, 3, 72, 111
5, 28101, Note_on_c, 3, 67, 0
5, 28131, Note_on_c, 3, 70, 0
5, 28146, Note_on_c, 3, 72, 0
5, 28167, Note_on_c, 3, 67, 76
5, 28168, Note_on_c, 3, 70, 94
5, 28168, Note_on_c, 3, 76, 107
5, 28196, Channel_aftertouch_c, 3, 0
5, 28202, Note_on_c, 3, 67, 0
5, 28202, Note_on_c, 3, 70, 0
5, 28207, Note_on_c, 3, 76, 0
5, 28267, Note_on_c, 3, 67, 80
5, 28298, Note_on_c, 3, 70, 81
5, 28309, Note_on_c, 3, 72, 109
5, 28329, Note_on_c, 3, 67, 0
5, 28335, Note_on_c, 3, 70, 0
5, 28340, Note_on_c, 3, 72, 0
5, 28409, Note_on_c, 3, 67, 100
5, 28410, Note_on_c, 3, 70, 106
5, 28411, Note_on_c, 3, 72, 100
5, 28538, Note_on_c, 3, 67, 0
5, 28538, Note_on_c, 3, 70, 0
5, 28559, Note_on_c, 3, 72, 0
5, 28598, Note_on_c, 3, 72, 111
5, 28599, Note_on_c, 3, 64, 104
5, 28616, Channel_aftertouch_c, 3, 16
5, 28638, Note_on_c, 3, 64, 0
5, 28638, Note_on_c, 3, 72, 0
5, 28648, Channel_aftertouch_c, 3, 0
5, 28796, Note_on_c, 3, 64, 100
5, 28796, Note_on_c, 3, 72, 109
5, 28814, Channel_aftertouch_c, 3, 7
5, 28839, Channel_aftertouch_c, 3, 0
5, 28904, Note_on_c, 3, 64, 0
5, 28914, Note_on_c, 3, 72, 0
5, 28945, Note_on_c, 3, 72, 100
5, 28951, Note_on_c, 3, 64, 93
5, 28956, Channel_aftertouch_c, 3, 3
5, 28982, Channel_aftertouch_c, 3, 0
5, 28983, Note_on_c, 3, 64, 0
5, 28989, Note_on_c, 3, 72, 0
5, 29039, Note_on_c, 3, 64, 76
5, 29039, Note_on_c, 3, 70, 110
5, 29080, Note_on_c, 3, 70, 0
5, 29081, Note_on_c, 3, 72, 104
5, 29096, Channel_aftertouch_c, 3, 4
5, 29108, Note_on_c, 3, 64, 0
5, 29114, Note_on_c, 3, 72, 0
5, 29119, Channel_aftertouch_c, 3, 0
5, 29179, Note_on_c, 3, 64, 96
5, 29179, Note_on_c, 3, 72, 111
5, 29201, Channel_aftertouch_c, 3, 13
5, 29228, Channel_aftertouch_c, 3, 0
5, 29302, Channel_aftertouch_c, 3, 0
5, 29318, Note_on_c, 3, 64, 0
5, 29324, Note_on_c, 3, 72, 0
5, 29373, Note_on_c, 3, 64, 107
5, 29374, Note_on_c, 3, 72, 117
5, 29401, Channel_aftertouch_c, 3, 9
5, 29407, Note_on_c, 3, 64, 0
5, 29413, Note_on_c, 3, 72, 0
5, 29424, Channel_aftertouch_c, 3, 0
5, 29563, Note_on_c, 3, 72, 114
5, 29569, Note_on_c, 3, 64, 109
5, 29585, Channel_aftertouch_c, 3, 12
5, 29611, Channel_aftertouch_c, 3, 0
5, 29656, Note_on_c, 3, 64, 0
5, 29667, Note_on_c, 3, 72, 0
5, 29712, Note_on_c, 3, 64, 96
5, 29712, Note_on_c, 3, 72, 114
5, 29728, Channel_aftertouch_c, 3, 13
5, 29755, Channel_aftertouch_c, 3, 0
5, 29771, Note_on_c, 3, 64, 0
5, 29777, Note_on_c, 3, 72, 0
5, 29807, Note_on_c, 3, 64, 74
5, 29807, Note_on_c, 3, 70, 117
5, 29829, Note_on_c, 3, 64, 0
5, 29849, Note_on_c, 3, 70, 0
5, 29850, Note_on_c, 3, 67, 104
5, 29891, Note_on_c, 3, 67, 0
5, 29906, Note_on_c, 3, 64, 98
5, 29926, Note_on_c, 3, 64, 0
5, 29957, Note_on_c, 3, 65, 102
5, 29978, Channel_aftertouch_c, 3, 5
5, 30005, Channel_aftertouch_c, 3, 0
5, 30138, Note_on_c, 3, 69, 109
5, 30138, Note_on_c, 3, 72, 107
5, 30138, Note_on_c, 3, 75, 99
5, 30165, Note_on_c, 3, 65, 0
5, 30166, Note_on_c, 3, 69, 0
5, 30166, Note_on_c, 3, 72, 0
5, 30172, Note_on_c, 3, 75, 0
5, 30324, Note_on_c, 3, 77, 89
5, 30325, Note_on_c, 3, 69, 95
5, 30332, Note_on_c, 3, 72, 95
5, 30352, Channel_aftertouch_c, 3, 0
5, 30427, Note_on_c, 3, 69, 0
5, 30432, Note_on_c, 3, 72, 0
5, 30438, Note_on_c, 3, 77, 0
5, 30477, Note_on_c, 3, 75, 114
5, 30478, Note_on_c, 3, 69, 100
5, 30510, Channel_aftertouch_c, 3, 0
5, 30526, Note_on_c, 3, 75, 0
5, 30531, Note_on_c, 3, 69, 0
5, 30571, Note_on_c, 3, 72, 102
5, 30602, Note_on_c, 3, 72, 0
5, 30608, Note_on_c, 3, 69, 95
5, 30643, Note_on_c, 3, 69, 0
5, 30707, Note_on_c, 3, 65, 114
5, 30909, Note_on_c, 3, 69, 109
5, 30909, Note_on_c, 3, 72, 104
5, 30909, Note_on_c, 3, 75, 102
5, 30937, Note_on_c, 3, 65, 0
5, 30942, Note_on_c, 3, 69, 0
5, 30943, Note_on_c, 3, 72, 0
5, 30958, Note_on_c, 3, 75, 0
5, 31101, Note_on_c, 3, 69, 107
5, 31101, Note_on_c, 3, 77, 104
5, 31118, Channel_aftertouch_c, 3, 9
5, 31144, Channel_aftertouch_c, 3, 0
5, 31199, Note_on_c, 3, 77, 0
5, 31204, Note_on_c, 3, 69, 0
5, 31240, Note_on_c, 3, 69, 89
5, 31245, Note_on_c, 3, 75, 117
5, 31251, Channel_aftertouch_c, 3, 0
5, 31277, Channel_aftertouch_c, 3, 0
5, 31297, Note_on_c, 3, 69, 0
5, 31303, Note_on_c, 3, 75, 0
5, 31334, Note_on_c, 3, 72, 104
5, 31369, Note_on_c, 3, 72, 0
5, 31380, Note_on_c, 3, 69, 109
5, 31405, Channel_aftertouch_c, 3, 0
5, 31421, Note_on_c, 3, 69, 0
5, 31471, Note_on_c, 3, 65, 117
5, 31486, Channel_aftertouch_c, 3, 1
5, 31513, Channel_aftertouch_c, 3, 0
5, 31680, Note_on_c, 3, 75, 99
5, 31681, Note_on_c, 3, 69, 90
5, 31681, Note_on_c, 3, 72, 93
5, 31718, Note_on_c, 3, 69, 0
5, 31718, Note_on_c, 3, 72, 0
5, 31719, Note_on_c, 3, 75, 0
5, 31724, Note_on_c, 3, 65, 0
5, 31868, Note_on_c, 3, 69, 95
5, 31868, Note_on_c, 3, 77, 90
5, 31879, Channel_aftertouch_c, 3, 0
5, 31906, Channel_aftertouch_c, 3, 0
5, 31990, Note_on_c, 3, 77, 0
5, 32005, Note_on_c, 3, 69, 0
5, 32006, Note_on_c, 3, 75, 99
5, 32052, Note_on_c, 3, 75, 0
5, 32101, Note_on_c, 3, 72, 90
5, 32132, Note_on_c, 3, 72, 0
5, 32142, Note_on_c, 3, 69, 109
5, 32173, Note_on_c, 3, 69, 0
5, 32438, Note_on_c, 3, 69, 107
5, 32438, Note_on_c, 3, 75, 91
5, 32445, Note_on_c, 3, 65, 96
5, 32445, Note_on_c, 3, 72, 111
5, 32476, Note_on_c, 3, 69, 0
5, 32477, Note_on_c, 3, 65, 0
5, 32487, Note_on_c, 3, 72, 0
5, 32498, Note_on_c, 3, 75, 0
5, 32640, Note_on_c, 3, 77, 104
5, 32641, Note_on_c, 3, 69, 107
5, 32657, Channel_aftertouch_c, 3, 10
5, 32684, Channel_aftertouch_c, 3, 0
5, 32724, Note_on_c, 3, 69, 0
5, 32725, Note_on_c, 3, 77, 0
5, 32775, Note_on_c, 3, 77, 117
5, 32810, Channel_aftertouch_c, 3, 0
5, 32817, Note_on_c, 3, 75, 99
5, 32817, Note_on_c, 3, 77, 0
5, 32867, Note_on_c, 3, 75, 0
5, 32873, Note_on_c, 3, 72, 86
5, 32909, Note_on_c, 3, 72, 0
5, 32924, Note_on_c, 3, 69, 85
5, 32950, Note_on_c, 3, 69, 0
5, 32970, Note_on_c, 3, 65, 93
5, 32992, Note_on_c, 3, 65, 0
5, 33023, Note_on_c, 3, 64, 100
5, 33063, Channel_aftertouch_c, 3, 0
5, 33216, Note_on_c, 3, 67, 117
5, 33216, Note_on_c, 3, 72, 114
5, 33222, Channel_aftertouch_c, 3, 0
5, 33239, Note_on_c, 3, 64, 0
5, 33239, Note_on_c, 3, 67, 0
5, 33245, Channel_aftertouch_c, 3, 0
5, 33256, Note_on_c, 3, 72, 0
5, 33409, Note_on_c, 3, 67, 92
5, 33409, Note_on_c, 3, 76, 85
5, 33410, Note_on_c, 3, 70, 99
5, 33515, Note_on_c, 3, 67, 0
5, 33515, Note_on_c, 3, 70, 0
5, 33516, Note_on_c, 3, 76, 0
5, 33546, Note_on_c, 3, 67, 90
5, 33552, Note_on_c, 3, 72, 109
5, 33578, Channel_aftertouch_c, 3, 0
5, 33599, Note_on_c, 3, 67, 0
5, 33605, Note_on_c, 3, 72, 0
5, 33645, Note_on_c, 3, 70, 106
5, 33680, Note_on_c, 3, 67, 109
5, 33687, Note_on_c, 3, 70, 0
5, 33707, Channel_aftertouch_c, 3, 0
5, 33718, Note_on_c, 3, 67, 0
5, 33783, Note_on_c, 3, 60, 111
5, 33824, Channel_aftertouch_c, 3, 0
5, 33977, Note_on_c, 3, 64, 104
5, 33977, Note_on_c, 3, 67, 117
5, 33977, Note_on_c, 3, 70, 110
5, 33995, Note_on_c, 3, 60, 0
5, 34005, Note_on_c, 3, 64, 0
5, 34011, Note_on_c, 3, 67, 0
5, 34011, Note_on_c, 3, 70, 0
5, 34168, Note_on_c, 3, 64, 109
5, 34174, Note_on_c, 3, 72, 107
5, 34190, Channel_aftertouch_c, 3, 9
5, 34217, Channel_aftertouch_c, 3, 0
5, 34272, Note_on_c, 3, 72, 0
5, 34287, Note_on_c, 3, 64, 0
5, 34322, Note_on_c, 3, 70, 114
5, 34377, Note_on_c, 3, 70, 0
5, 34407, Note_on_c, 3, 67, 102
5, 34440, Note_on_c, 3, 67, 0
5, 34451, Note_on_c, 3, 64, 76
5, 34482, Note_on_c, 3, 64, 0
5, 34542, Note_on_c, 3, 60, 114
5, 34744, Note_on_c, 3, 64, 102
5, 34744, Note_on_c, 3, 67, 114
5, 34744, Note_on_c, 3, 70, 106
5, 34752, Note_on_c, 3, 60, 0
5, 34777, Note_on_c, 3, 64, 0
5, 34777, Note_on_c, 3, 67, 0
5, 34778, Note_on_c, 3, 70, 0
5, 34935, Note_on_c, 3, 72, 93
5, 34941, Note_on_c, 3, 64, 90
5, 34942, Note_on_c, 3, 67, 96
5, 35046, Note_on_c, 3, 67, 0
5, 35052, Note_on_c, 3, 64, 0
5, 35062, Note_on_c, 3, 72, 0
5, 35078, Note_on_c, 3, 64, 78
5, 35078, Note_on_c, 3, 70, 102
5, 35114, Note_on_c, 3, 64, 0
5, 35114, Note_on_c, 3, 70, 0
5, 35517, Note_on_c, 3, 67, 107
5, 35553, Note_on_c, 3, 67, 0
5, 35553, Note_on_c, 3, 70, 83
5, 35588, Note_on_c, 3, 70, 0
5, 35604, Note_on_c, 3, 74, 80
5, 35631, Note_on_c, 3, 74, 0
5, 35657, Note_on_c, 3, 72, 98
5, 35698, Note_on_c, 3, 72, 0
5, 35703, Note_on_c, 3, 76, 92
5, 35739, Note_on_c, 3, 76, 0
5, 35744, Note_on_c, 3, 79, 88
5, 35772, Note_on_c, 3, 79, 0
5, 35788, Note_on_c, 3, 76, 102
5, 35819, Note_on_c, 3, 76, 0
5, 35819, Note_on_c, 3, 79, 88
5, 35850, Note_on_c, 3, 79, 0
5, 35855, Note_on_c, 3, 82, 96
5, 35891, Note_on_c, 3, 82, 0
5, 35897, Note_on_c, 3, 79, 84
5, 35927, Note_on_c, 3, 79, 0
5, 35933, Note_on_c, 3, 82, 85
5, 35959, Note_on_c, 3, 84, 100
5, 35965, Note_on_c, 3, 82, 0
5, 35991, Note_on_c, 3, 84, 0
5, 36001, Note_on_c, 3, 86, 95
5, 36038, Note_on_c, 3, 86, 0
5, 36044, Note_on_c, 3, 88, 88
5, 36071, Note_on_c, 3, 88, 0
5, 36096, Note_on_c, 3, 91, 114
5, 36105, Channel_aftertouch_c, 3, 6
5, 36131, Channel_aftertouch_c, 3, 0
5, 36264, Note_on_c, 3, 91, 0
5, 36285, Note_on_c, 3, 91, 109
5, 36291, Note_on_c, 3, 83, 90
5, 36307, Channel_aftertouch_c, 3, 8
5, 36324, Note_on_c, 3, 83, 0
5, 36325, Note_on_c, 3, 91, 0
5, 36330, Channel_aftertouch_c, 3, 0
5, 36365, Note_on_c, 3, 83, 102
5, 36366, Note_on_c, 3, 91, 111
5, 36387, Channel_aftertouch_c, 3, 12
5, 36410, Note_on_c, 3, 83, 0
5, 36415, Channel_aftertouch_c, 3, 0
5, 36416, Note_on_c, 3, 91, 0
5, 36471, Note_on_c, 3, 83, 117
5, 36471, Note_on_c, 3, 91, 111
5, 36493, Channel_aftertouch_c, 3, 12
5, 36505, Note_on_c, 3, 83, 0
5, 36511, Note_on_c, 3, 91, 0
5, 36516, Channel_aftertouch_c, 3, 0
5, 36561, Note_on_c, 3, 91, 114
5, 36566, Channel_aftertouch_c, 3, 0
5, 36568, Note_on_c, 3, 83, 117
5, 36589, Channel_aftertouch_c, 3, 13
5, 36595, Note_on_c, 3, 83, 0
5, 36607, Note_on_c, 3, 91, 0
5, 36612, Channel_aftertouch_c, 3, 0
5, 36657, Note_on_c, 3, 83, 117
5, 36657, Note_on_c, 3, 91, 114
5, 36685, Channel_aftertouch_c, 3, 9
5, 36691, Note_on_c, 3, 83, 0
5, 36698, Note_on_c, 3, 91, 0
5, 36708, Channel_aftertouch_c, 3, 0
5, 36753, Note_on_c, 3, 83, 117
5, 36753, Note_on_c, 3, 91, 111
5, 36775, Channel_aftertouch_c, 3, 9
5, 36782, Note_on_c, 3, 83, 0
5, 36788, Note_on_c, 3, 91, 0
5, 36798, Channel_aftertouch_c, 3, 0
5, 36849, Note_on_c, 3, 83, 117
5, 36849, Note_on_c, 3, 91, 109
5, 36871, Channel_aftertouch_c, 3, 11
5, 36877, Note_on_c, 3, 83, 0
5, 36884, Note_on_c, 3, 91, 0
5, 36894, Channel_aftertouch_c, 3, 0
5, 36944, Note_on_c, 3, 91, 100
5, 36945, Note_on_c, 3, 83, 117
5, 36951, Channel_aftertouch_c, 3, 2
5, 36974, Note_on_c, 3, 83, 0
5, 36979, Channel_aftertouch_c, 3, 0
5, 36980, Note_on_c, 3, 91, 0
5, 37035, Note_on_c, 3, 83, 117
5, 37035, Note_on_c, 3, 91, 117
5, 37052, Channel_aftertouch_c, 3, 15
5, 37069, Note_on_c, 3, 83, 0
5, 37070, Note_on_c, 3, 91, 0
5, 37085, Channel_aftertouch_c, 3, 0
5, 37131, Note_on_c, 3, 83, 117
5, 37131, Note_on_c, 3, 91, 117
5, 37153, Channel_aftertouch_c, 3, 15
5, 37165, Note_on_c, 3, 83, 0
5, 37171, Note_on_c, 3, 91, 0
5, 37181, Channel_aftertouch_c, 3, 0
5, 37227, Note_on_c, 3, 91, 117
5, 37234, Note_on_c, 3, 83, 117
5, 37254, Channel_aftertouch_c, 3, 9
5, 37261, Note_on_c, 3, 83, 0
5, 37267, Note_on_c, 3, 91, 0
5, 37277, Channel_aftertouch_c, 3, 0
5, 37328, Note_on_c, 3, 83, 117
5, 37328, Note_on_c, 3, 91, 117
5, 37350, Channel_aftertouch_c, 3, 15
5, 37362, Note_on_c, 3, 83, 0
5, 37374, Note_on_c, 3, 91, 0
5, 37378, Channel_aftertouch_c, 3, 0
5, 37428, Note_on_c, 3, 82, 102
5, 37429, Note_on_c, 3, 90, 114
5, 37450, Channel_aftertouch_c, 3, 0
5, 37462, Note_on_c, 3, 82, 0
5, 37462, Note_on_c, 3, 90, 0
5, 37516, Note_on_c, 3, 82, 96
5, 37517, Note_on_c, 3, 90, 110
5, 37543, Channel_aftertouch_c, 3, 0
5, 37554, Note_on_c, 3, 82, 0
5, 37560, Note_on_c, 3, 90, 0
5, 37625, Note_on_c, 3, 81, 117
5, 37625, Note_on_c, 3, 89, 117
5, 37652, Channel_aftertouch_c, 3, 16
5, 37678, Channel_aftertouch_c, 3, 0
5, 37690, Note_on_c, 3, 81, 0
5, 37690, Note_on_c, 3, 89, 0
5, 38872, Note_on_c, 3, 87, 106
5, 38897, Note_on_c, 3, 87, 0
5, 38903, Note_on_c, 3, 89, 89
5, 38929, Note_on_c, 3, 87, 69
5, 38934, Note_on_c, 3, 89, 0
5, 38970, Note_on_c, 3, 84, 88
5, 38970, Note_on_c, 3, 87, 0
5, 39001, Note_on_c, 3, 81, 88
5, 39001, Note_on_c, 3, 84, 0
5, 39037, Note_on_c, 3, 81, 0
5, 39043, Note_on_c, 3, 79, 81
5, 39069, Note_on_c, 3, 77, 67
5, 39069, Note_on_c, 3, 79, 0
5, 39100, Note_on_c, 3, 77, 0
5, 39101, Note_on_c, 3, 76, 83
5, 39126, Note_on_c, 3, 76, 0
5, 39152, Note_on_c, 3, 72, 102
5, 39162, Channel_aftertouch_c, 3, 0
5, 39188, Channel_aftertouch_c, 3, 0
5, 39366, Note_on_c, 3, 76, 111
5, 39366, Note_on_c, 3, 79, 114
5, 39366, Note_on_c, 3, 82, 99
5, 39393, Note_on_c, 3, 76, 0
5, 39394, Note_on_c, 3, 72, 0
5, 39394, Note_on_c, 3, 82, 0
5, 39395, Note_on_c, 3, 79, 0
5, 40122, Note_on_c, 3, 76, 102
5, 40122, Note_on_c, 3, 82, 96
5, 40123, Note_on_c, 3, 72, 90
5, 40145, Note_on_c, 3, 82, 0
5, 40150, Note_on_c, 3, 76, 0
5, 40156, Note_on_c, 3, 76, 70
5, 40156, Note_on_c, 3, 82, 63
5, 40188, Note_on_c, 3, 72, 0
5, 40188, Note_on_c, 3, 76, 0
5, 40194, Note_on_c, 3, 82, 0
5, 40317, Note_on_c, 3, 76, 98
5, 40317, Note_on_c, 3, 84, 102
5, 40388, Note_on_c, 3, 76, 0
5, 40388, Note_on_c, 3, 84, 0
5, 40477, Note_on_c, 3, 82, 117
5, 40483, Note_on_c, 3, 76, 107
5, 40494, Note_on_c, 3, 81, 60
5, 40505, Note_on_c, 3, 81, 0
5, 40510, Note_on_c, 3, 82, 0
5, 40516, Note_on_c, 3, 76, 0
5, 40561, Note_on_c, 3, 76, 88
5, 40561, Note_on_c, 3, 84, 93
5, 40604, Note_on_c, 3, 79, 89
5, 40605, Note_on_c, 3, 84, 0
5, 40640, Note_on_c, 3, 76, 0
5, 40641, Note_on_c, 3, 79, 0
5, 40891, Note_on_c, 3, 76, 114
5, 40891, Note_on_c, 3, 84, 93
5, 40914, Note_on_c, 3, 84, 0
5, 40920, Note_on_c, 3, 76, 0
5, 40931, Note_on_c, 3, 76, 76
5, 40931, Note_on_c, 3, 84, 72
5, 40954, Channel_aftertouch_c, 3, 0
5, 40970, Note_on_c, 3, 84, 0
5, 40971, Note_on_c, 3, 76, 0
5, 41080, Note_on_c, 3, 76, 111
5, 41080, Note_on_c, 3, 84, 104
5, 41092, Channel_aftertouch_c, 3, 3
5, 41118, Channel_aftertouch_c, 3, 0
5, 41149, Note_on_c, 3, 84, 0
5, 41159, Note_on_c, 3, 76, 0
5, 41218, Note_on_c, 3, 84, 102
5, 41219, Note_on_c, 3, 76, 107
5, 41236, Channel_aftertouch_c, 3, 10
5, 41267, Channel_aftertouch_c, 3, 0
5, 41283, Note_on_c, 3, 84, 0
5, 41293, Note_on_c, 3, 76, 0
5, 41314, Note_on_c, 3, 82, 99
5, 41350, Note_on_c, 3, 82, 0
5, 41365, Note_on_c, 3, 79, 58
5, 41390, Note_on_c, 3, 79, 0
5, 41406, Note_on_c, 3, 76, 74
5, 41417, Note_on_c, 3, 76, 0
5, 41448, Note_on_c, 3, 72, 95
5, 41474, Channel_aftertouch_c, 3, 8
5, 41505, Channel_aftertouch_c, 3, 0
5, 41654, Note_on_c, 3, 76, 109
5, 41654, Note_on_c, 3, 79, 114
5, 41654, Note_on_c, 3, 82, 99
5, 42165, Note_on_c, 3, 82, 0
5, 42166, Note_on_c, 3, 72, 0
5, 42166, Note_on_c, 3, 76, 0
5, 42166, Note_on_c, 3, 79, 0
5, 42397, Note_on_c, 3, 72, 102
5, 42427, Note_on_c, 3, 72, 0
5, 42433, Note_on_c, 3, 76, 92
5, 42473, Note_on_c, 3, 76, 0
5, 42479, Note_on_c, 3, 79, 85
5, 42519, Note_on_c, 3, 79, 0
5, 42530, Note_on_c, 3, 76, 102
5, 42570, Note_on_c, 3, 76, 0
5, 42581, Note_on_c, 3, 79, 81
5, 42616, Note_on_c, 3, 79, 0
5, 42632, Note_on_c, 3, 84, 93
5, 42736, Note_on_c, 3, 84, 0
5, 42766, Note_on_c, 3, 82, 102
5, 42767, Note_on_c, 3, 76, 98
5, 42832, Note_on_c, 3, 82, 0
5, 42843, Note_on_c, 3, 76, 0
5, 43156, Note_on_c, 3, 67, 107
5, 43187, Note_on_c, 3, 67, 0
5, 43187, Note_on_c, 3, 70, 96
5, 43228, Note_on_c, 3, 72, 85
5, 43234, Note_on_c, 3, 70, 0
5, 43264, Note_on_c, 3, 72, 0
5, 43280, Note_on_c, 3, 72, 80
5, 43285, Note_on_c, 3, 67, 95
5, 43291, Channel_aftertouch_c, 3, 0
5, 43316, Channel_aftertouch_c, 3, 0
5, 43327, Note_on_c, 3, 67, 0
5, 43328, Note_on_c, 3, 72, 0
5, 43373, Note_on_c, 3, 67, 100
5, 43373, Note_on_c, 3, 72, 107
5, 43390, Channel_aftertouch_c, 3, 6
5, 43417, Channel_aftertouch_c, 3, 0
5, 43462, Note_on_c, 3, 70, 72
5, 43462, Note_on_c, 3, 72, 0
5, 43478, Note_on_c, 3, 67, 0
5, 43484, Note_on_c, 3, 70, 0
5, 43519, Note_on_c, 3, 67, 100
5, 43520, Note_on_c, 3, 72, 117
5, 43542, Channel_aftertouch_c, 3, 7
5, 43568, Channel_aftertouch_c, 3, 0
5, 43618, Note_on_c, 3, 72, 0
5, 43624, Note_on_c, 3, 70, 87
5, 43639, Note_on_c, 3, 67, 0
5, 43660, Note_on_c, 3, 70, 0
5, 43660, Note_on_c, 3, 72, 55
5, 43701, Note_on_c, 3, 72, 0
5, 43931, Note_on_c, 3, 67, 104
5, 43931, Note_on_c, 3, 70, 110
5, 43973, Note_on_c, 3, 70, 0
5, 43973, Note_on_c, 3, 72, 102
5, 44004, Note_on_c, 3, 67, 0
5, 44019, Note_on_c, 3, 72, 0
5, 44054, Note_on_c, 3, 72, 100
5, 44055, Note_on_c, 3, 67, 92
5, 44065, Channel_aftertouch_c, 3, 1
5, 44087, Note_on_c, 3, 67, 0
5, 44093, Channel_aftertouch_c, 3, 0
5, 44094, Note_on_c, 3, 72, 0
5, 44148, Note_on_c, 3, 67, 98
5, 44154, Note_on_c, 3, 72, 117
5, 44160, Channel_aftertouch_c, 3, 1
5, 44186, Channel_aftertouch_c, 3, 0
5, 44221, Note_on_c, 3, 72, 0
5, 44227, Note_on_c, 3, 70, 91
5, 44238, Note_on_c, 3, 67, 0
5, 44248, Note_on_c, 3, 70, 0
5, 44293, Note_on_c, 3, 72, 117
5, 44299, Note_on_c, 3, 67, 102
5, 44310, Channel_aftertouch_c, 3, 3
5, 44336, Channel_aftertouch_c, 3, 0
5, 44371, Note_on_c, 3, 67, 0
5, 44372, Note_on_c, 3, 72, 0
5, 44392, Note_on_c, 3, 70, 99
5, 44432, Note_on_c, 3, 67, 68
5, 44433, Note_on_c, 3, 70, 0
5, 44439, Note_on_c, 3, 72, 114
5, 44444, Channel_aftertouch_c, 3, 0
5, 44467, Note_on_c, 3, 67, 0
5, 44471, Channel_aftertouch_c, 3, 0
5, 44473, Note_on_c, 3, 72, 0
5, 44532, Note_on_c, 3, 72, 117
5, 44533, Note_on_c, 3, 67, 104
5, 44554, Channel_aftertouch_c, 3, 5
5, 44581, Channel_aftertouch_c, 3, 0
5, 44865, Note_on_c, 3, 67, 0
5, 44871, Note_on_c, 3, 72, 0
5, 44901, Note_on_c, 3, 72, 107
5, 44907, Note_on_c, 3, 67, 82
5, 44912, Channel_aftertouch_c, 3, 1
5, 44924, Note_on_c, 3, 67, 0
5, 44935, Note_on_c, 3, 72, 0
5, 44935, Channel_aftertouch_c, 3, 0
5, 45005, Note_on_c, 3, 70, 114
5, 45006, Note_on_c, 3, 67, 88
5, 45024, Note_on_c, 3, 67, 0
5, 45029, Note_on_c, 3, 70, 0
5, 45055, Note_on_c, 3, 67, 76
5, 45055, Note_on_c, 3, 72, 109
5, 45089, Channel_aftertouch_c, 3, 0
5, 45095, Note_on_c, 3, 67, 0
5, 45105, Note_on_c, 3, 72, 0
5, 45151, Note_on_c, 3, 67, 83
5, 45151, Note_on_c, 3, 70, 110
5, 45182, Note_on_c, 3, 70, 0
5, 45193, Note_on_c, 3, 72, 109
5, 45219, Channel_aftertouch_c, 3, 10
5, 45251, Channel_aftertouch_c, 3, 0
5, 45252, Note_on_c, 3, 67, 0
5, 45257, Note_on_c, 3, 72, 0
5, 45297, Note_on_c, 3, 72, 102
5, 45298, Note_on_c, 3, 67, 90
5, 45319, Channel_aftertouch_c, 3, 6
5, 45351, Channel_aftertouch_c, 3, 0
5, 45406, Note_on_c, 3, 67, 0
5, 45421, Note_on_c, 3, 72, 0
5, 45461, Note_on_c, 3, 67, 93
5, 45467, Note_on_c, 3, 70, 110
5, 45503, Note_on_c, 3, 72, 114
5, 45509, Note_on_c, 3, 70, 0
5, 45514, Channel_aftertouch_c, 3, 4
5, 45531, Note_on_c, 3, 67, 0
5, 45537, Note_on_c, 3, 72, 0
5, 45542, Channel_aftertouch_c, 3, 0
5, 45592, Note_on_c, 3, 67, 107
5, 45592, Note_on_c, 3, 72, 117
5, 45610, Channel_aftertouch_c, 3, 9
5, 45626, Note_on_c, 3, 67, 0
5, 45632, Note_on_c, 3, 72, 0
5, 45637, Channel_aftertouch_c, 3, 0
5, 45687, Note_on_c, 3, 72, 117
5, 45688, Note_on_c, 3, 67, 107
5, 45710, Channel_aftertouch_c, 3, 6
5, 45736, Channel_aftertouch_c, 3, 0
5, 45762, Note_on_c, 3, 70, 81
5, 45762, Note_on_c, 3, 72, 0
5, 45778, Note_on_c, 3, 67, 0
5, 45793, Note_on_c, 3, 70, 0
5, 45833, Note_on_c, 3, 72, 117
5, 45834, Note_on_c, 3, 67, 104
5, 45850, Channel_aftertouch_c, 3, 11
5, 45882, Channel_aftertouch_c, 3, 0
5, 45883, Note_on_c, 3, 67, 0
5, 45899, Note_on_c, 3, 72, 0
5, 45933, Note_on_c, 3, 67, 74
5, 45934, Note_on_c, 3, 70, 102
5, 45975, Note_on_c, 3, 72, 117
5, 45987, Note_on_c, 3, 70, 0
5, 45992, Channel_aftertouch_c, 3, 10
5, 45998, Note_on_c, 3, 67, 0
5, 46018, Channel_aftertouch_c, 3, 0
5, 46025, Note_on_c, 3, 72, 0
5, 46220, Note_on_c, 3, 82, 106
5, 46221, Note_on_c, 3, 76, 104
5, 46252, Note_on_c, 3, 82, 0
5, 46253, Note_on_c, 3, 84, 96
5, 46273, Channel_aftertouch_c, 3, 0
5, 46299, Channel_aftertouch_c, 3, 0
5, 46300, Note_on_c, 3, 76, 0
5, 46305, Note_on_c, 3, 84, 0
5, 46355, Note_on_c, 3, 76, 98
5, 46355, Note_on_c, 3, 84, 114
5, 46372, Channel_aftertouch_c, 3, 7
5, 46394, Note_on_c, 3, 76, 0
5, 46395, Note_on_c, 3, 84, 0
5, 46400, Channel_aftertouch_c, 3, 0
5, 46450, Note_on_c, 3, 76, 104
5, 46456, Note_on_c, 3, 84, 117
5, 46472, Channel_aftertouch_c, 3, 9
5, 46499, Channel_aftertouch_c, 3, 0
5, 46505, Note_on_c, 3, 76, 0
5, 46510, Note_on_c, 3, 84, 0
5, 46546, Note_on_c, 3, 82, 106
5, 46551, Note_on_c, 3, 76, 56
5, 46567, Note_on_c, 3, 76, 0
5, 46573, Note_on_c, 3, 82, 0
5, 46598, Note_on_c, 3, 76, 92
5, 46598, Note_on_c, 3, 84, 117
5, 46615, Channel_aftertouch_c, 3, 16
5, 46647, Channel_aftertouch_c, 3, 0
5, 46653, Note_on_c, 3, 76, 0
5, 46659, Note_on_c, 3, 84, 0
5, 46698, Note_on_c, 3, 76, 73
5, 46698, Note_on_c, 3, 82, 106
5, 46730, Note_on_c, 3, 82, 0
5, 46736, Note_on_c, 3, 84, 111
5, 46762, Channel_aftertouch_c, 3, 9
5, 46769, Note_on_c, 3, 76, 0
5, 46780, Note_on_c, 3, 84, 0
5, 46785, Channel_aftertouch_c, 3, 0
5, 46835, Note_on_c, 3, 76, 96
5, 46835, Note_on_c, 3, 84, 109
5, 46858, Channel_aftertouch_c, 3, 12
5, 46885, Channel_aftertouch_c, 3, 0
5, 46984, Note_on_c, 3, 76, 0
5, 46989, Note_on_c, 3, 84, 0
5, 47035, Note_on_c, 3, 76, 100
5, 47035, Note_on_c, 3, 84, 107
5, 47056, Channel_aftertouch_c, 3, 10
5, 47083, Channel_aftertouch_c, 3, 0
5, 47109, Note_on_c, 3, 84, 0
5, 47119, Note_on_c, 3, 76, 0
5, 47130, Note_on_c, 3, 82, 94
5, 47160, Note_on_c, 3, 82, 0
5, 47181, Note_on_c, 3, 76, 89
5, 47181, Note_on_c, 3, 84, 111
5, 47198, Channel_aftertouch_c, 3, 13
5, 47229, Channel_aftertouch_c, 3, 0
5, 47235, Note_on_c, 3, 76, 0
5, 47236, Note_on_c, 3, 84, 0
5, 47281, Note_on_c, 3, 76, 75
5, 47282, Note_on_c, 3, 82, 102
5, 47308, Note_on_c, 3, 82, 0
5, 47313, Note_on_c, 3, 84, 100
5, 47324, Channel_aftertouch_c, 3, 0
5, 47347, Note_on_c, 3, 76, 0
5, 47351, Channel_aftertouch_c, 3, 0
5, 47358, Note_on_c, 3, 84, 0
5, 47407, Note_on_c, 3, 84, 109
5, 47413, Note_on_c, 3, 76, 92
5, 47429, Channel_aftertouch_c, 3, 11
5, 47452, Note_on_c, 3, 76, 0
5, 47457, Channel_aftertouch_c, 3, 0
5, 47458, Note_on_c, 3, 84, 0
5, 47503, Note_on_c, 3, 76, 84
5, 47509, Note_on_c, 3, 82, 117
5, 47540, Channel_aftertouch_c, 3, 0
5, 47542, Note_on_c, 3, 76, 0
5, 47557, Note_on_c, 3, 82, 0
5, 47602, Note_on_c, 3, 76, 95
5, 47602, Note_on_c, 3, 84, 111
5, 47630, Channel_aftertouch_c, 3, 13
5, 47656, Channel_aftertouch_c, 3, 0
5, 47701, Note_on_c, 3, 76, 0
5, 47740, Note_on_c, 3, 84, 0
5, 47756, Note_on_c, 3, 76, 96
5, 47787, Note_on_c, 3, 79, 90
5, 47798, Note_on_c, 3, 76, 0
5, 47833, Note_on_c, 3, 79, 0
5, 47838, Note_on_c, 3, 82, 85
5, 47879, Note_on_c, 3, 82, 0
5, 47894, Note_on_c, 3, 79, 95
5, 47930, Note_on_c, 3, 79, 0
5, 47936, Note_on_c, 3, 82, 94
5, 47976, Note_on_c, 3, 82, 0
5, 47987, Note_on_c, 3, 84, 109
5, 48017, Note_on_c, 3, 84, 0
5, 48043, Note_on_c, 3, 84, 88
5, 48073, Note_on_c, 3, 84, 0
5, 48078, Note_on_c, 3, 88, 90
5, 48114, Note_on_c, 3, 88, 0
5, 48120, Note_on_c, 3, 91, 92
5, 48160, Note_on_c, 3, 91, 0
5, 48180, Note_on_c, 3, 94, 89
5, 48236, Note_on_c, 3, 91, 90
5, 48236, Note_on_c, 3, 94, 0
5, 48271, Note_on_c, 3, 91, 0
5, 48287, Note_on_c, 3, 88, 89
5, 48328, Note_on_c, 3, 88, 0
5, 48338, Note_on_c, 3, 84, 86
5, 48359, Note_on_c, 3, 84, 0
5, 48379, Note_on_c, 3, 89, 117
5, 48409, Note_on_c, 3, 89, 0
5, 48563, Note_on_c, 3, 89, 102
5, 48568, Note_on_c, 3, 81, 107
5, 48574, Channel_aftertouch_c, 3, 1
5, 48600, Channel_aftertouch_c, 3, 0
5, 48635, Note_on_c, 3, 89, 0
5, 48636, Note_on_c, 3, 81, 0
5, 48651, Note_on_c, 3, 87, 94
5, 48682, Note_on_c, 3, 87, 0
5, 48697, Note_on_c, 3, 81, 102
5, 48704, Note_on_c, 3, 89, 107
5, 48721, Channel_aftertouch_c, 3, 12
5, 48748, Channel_aftertouch_c, 3, 0
5, 48980, Note_on_c, 3, 89, 0
5, 48990, Note_on_c, 3, 81, 0
5, 49245, Note_on_c, 3, 89, 117
5, 49251, Channel_aftertouch_c, 3, 0
5, 49252, Note_on_c, 3, 77, 117
5, 49274, Channel_aftertouch_c, 3, 0
5, 49275, Note_on_c, 3, 77, 0
5, 49276, Note_on_c, 3, 89, 0
5, 49336, Note_on_c, 3, 89, 114
5, 49337, Note_on_c, 3, 77, 104
5, 49363, Note_on_c, 3, 77, 0
5, 49363, Note_on_c, 3, 89, 0
5, 49384, Note_on_c, 3, 77, 90
5, 49385, Note_on_c, 3, 89, 109
5, 49407, Channel_aftertouch_c, 3, 10
5, 49424, Note_on_c, 3, 77, 0
5, 49424, Note_on_c, 3, 89, 0
5, 49430, Channel_aftertouch_c, 3, 0
5, 49529, Note_on_c, 3, 77, 111
5, 49529, Note_on_c, 3, 89, 117
5, 49557, Channel_aftertouch_c, 3, 0
5, 49559, Note_on_c, 3, 77, 0
5, 49559, Note_on_c, 3, 89, 0
5, 49574, Note_on_c, 3, 77, 82
5, 49580, Note_on_c, 3, 89, 100
5, 49606, Channel_aftertouch_c, 3, 0
5, 49607, Note_on_c, 3, 77, 0
5, 49613, Note_on_c, 3, 89, 0
5, 49677, Note_on_c, 3, 89, 117
5, 49678, Note_on_c, 3, 77, 117
5, 49701, Channel_aftertouch_c, 3, 13
5, 49708, Note_on_c, 3, 77, 0
5, 49708, Note_on_c, 3, 89, 0
5, 49724, Channel_aftertouch_c, 3, 0
5, 49769, Note_on_c, 3, 89, 114
5, 49770, Note_on_c, 3, 77, 95
5, 49792, Channel_aftertouch_c, 3, 0
5, 49798, Note_on_c, 3, 89, 0
5, 49808, Note_on_c, 3, 87, 78
5, 49859, Note_on_c, 3, 84, 95
5, 49859, Note_on_c, 3, 87, 0
5, 49865, Note_on_c, 3, 77, 0
5, 49880, Note_on_c, 3, 84, 0
5, 50111, Note_on_c, 3, 89, 117
5, 50117, Note_on_c, 3, 77, 109
5, 50122, Channel_aftertouch_c, 3, 1
5, 50141, Note_on_c, 3, 77, 0
5, 50141, Note_on_c, 3, 89, 0
5, 50146, Channel_aftertouch_c, 3, 0
5, 50158, Note_on_c, 3, 77, 85
5, 50158, Note_on_c, 3, 89, 96
5, 50169, Channel_aftertouch_c, 3, 2
5, 50187, Note_on_c, 3, 77, 0
5, 50187, Note_on_c, 3, 89, 0
5, 50192, Channel_aftertouch_c, 3, 0
5, 50311, Note_on_c, 3, 89, 117
5, 50312, Note_on_c, 3, 77, 117
5, 50339, Note_on_c, 3, 77, 0
5, 50339, Channel_aftertouch_c, 3, 0
5, 50340, Note_on_c, 3, 89, 0
5, 50351, Note_on_c, 3, 89, 76
5, 50357, Note_on_c, 3, 77, 76
5, 50384, Note_on_c, 3, 77, 0
5, 50389, Channel_aftertouch_c, 3, 0
5, 50390, Note_on_c, 3, 89, 0
5, 50450, Note_on_c, 3, 77, 111
5, 50450, Note_on_c, 3, 89, 117
5, 50474, Channel_aftertouch_c, 3, 11
5, 50476, Note_on_c, 3, 77, 0
5, 50481, Note_on_c, 3, 89, 0
5, 50497, Channel_aftertouch_c, 3, 0
5, 50547, Note_on_c, 3, 77, 95
5, 50548, Note_on_c, 3, 87, 102
5, 50584, Note_on_c, 3, 77, 0
5, 50599, Note_on_c, 3, 77, 64
5, 50605, Note_on_c, 3, 84, 83
5, 50617, Note_on_c, 3, 84, 0
5, 50618, Note_on_c, 3, 87, 0
5, 50629, Note_on_c, 3, 77, 0
5, 50880, Note_on_c, 3, 77, 117
5, 50880, Note_on_c, 3, 89, 117
5, 50904, Channel_aftertouch_c, 3, 0
5, 50905, Note_on_c, 3, 77, 0
5, 50905, Note_on_c, 3, 89, 0
5, 50921, Note_on_c, 3, 89, 93
5, 50927, Note_on_c, 3, 77, 92
5, 50932, Channel_aftertouch_c, 3, 1
5, 50955, Note_on_c, 3, 77, 0
5, 50955, Note_on_c, 3, 89, 0
5, 50960, Channel_aftertouch_c, 3, 0
5, 51020, Note_on_c, 3, 89, 117
5, 51027, Note_on_c, 3, 77, 117
5, 51048, Channel_aftertouch_c, 3, 9
5, 51049, Note_on_c, 3, 77, 0
5, 51055, Note_on_c, 3, 89, 0
5, 51071, Channel_aftertouch_c, 3, 0
5, 51116, Note_on_c, 3, 77, 109
5, 51122, Note_on_c, 3, 89, 117
5, 51138, Channel_aftertouch_c, 3, 10
5, 51150, Note_on_c, 3, 77, 0
5, 51157, Note_on_c, 3, 89, 0
5, 51161, Channel_aftertouch_c, 3, 0
5, 51172, Note_on_c, 3, 87, 89
5, 51213, Note_on_c, 3, 84, 93
5, 51218, Note_on_c, 3, 87, 0
5, 51254, Note_on_c, 3, 84, 0
5, 51265, Note_on_c, 3, 81, 82
5, 51300, Note_on_c, 3, 81, 0
5, 51311, Note_on_c, 3, 77, 89
5, 51346, Note_on_c, 3, 77, 0
5, 51362, Note_on_c, 3, 74, 78
5, 51394, Note_on_c, 3, 74, 0
5, 51410, Note_on_c, 3, 72, 111
5, 51426, Channel_aftertouch_c, 3, 2
5, 51452, Channel_aftertouch_c, 3, 0
5, 51648, Note_on_c, 3, 82, 99
5, 51649, Note_on_c, 3, 76, 114
5, 51649, Note_on_c, 3, 79, 114
5, 51666, Note_on_c, 3, 72, 0
5, 51677, Note_on_c, 3, 76, 0
5, 51682, Note_on_c, 3, 79, 0
5, 51688, Note_on_c, 3, 82, 0
5, 51742, Note_on_c, 3, 84, 98
5, 51743, Note_on_c, 3, 76, 95
5, 51743, Note_on_c, 3, 79, 89
5, 51755, Channel_aftertouch_c, 3, 0
5, 51767, Note_on_c, 3, 79, 0
5, 51782, Channel_aftertouch_c, 3, 0
5, 51881, Note_on_c, 3, 84, 0
5, 51882, Note_on_c, 3, 76, 0
5, 51898, Note_on_c, 3, 84, 104
5, 51904, Note_on_c, 3, 76, 90
5, 51920, Channel_aftertouch_c, 3, 15
5, 51936, Note_on_c, 3, 76, 0
5, 51937, Note_on_c, 3, 84, 0
5, 51947, Channel_aftertouch_c, 3, 0
5, 52022, Note_on_c, 3, 76, 100
5, 52033, Note_on_c, 3, 84, 117
5, 52049, Channel_aftertouch_c, 3, 11
5, 52080, Channel_aftertouch_c, 3, 0
5, 52111, Note_on_c, 3, 84, 0
5, 52116, Note_on_c, 3, 82, 114
5, 52147, Note_on_c, 3, 76, 0
5, 52152, Note_on_c, 3, 82, 0
5, 52217, Note_on_c, 3, 72, 89
5, 52217, Note_on_c, 3, 76, 93
5, 52217, Note_on_c, 3, 79, 93
5, 52279, Note_on_c, 3, 72, 0
5, 52314, Note_on_c, 3, 76, 0
5, 52319, Note_on_c, 3, 79, 0
5, 52403, Note_on_c, 3, 84, 117
5, 52409, Note_on_c, 3, 76, 114
5, 52421, Channel_aftertouch_c, 3, 10
5, 52439, Note_on_c, 3, 76, 0
5, 52439, Note_on_c, 3, 84, 0
5, 52449, Channel_aftertouch_c, 3, 0
5, 52505, Note_on_c, 3, 76, 114
5, 52505, Note_on_c, 3, 84, 114
5, 52532, Channel_aftertouch_c, 3, 17
5, 52559, Channel_aftertouch_c, 3, 0
5, 52609, Note_on_c, 3, 76, 0
5, 52614, Note_on_c, 3, 84, 0
5, 52654, Note_on_c, 3, 82, 114
5, 52655, Note_on_c, 3, 76, 98
5, 52661, Channel_aftertouch_c, 3, 0
5, 52687, Channel_aftertouch_c, 3, 0
5, 52693, Note_on_c, 3, 76, 0
5, 52699, Note_on_c, 3, 82, 0
5, 52744, Note_on_c, 3, 76, 85
5, 52744, Note_on_c, 3, 79, 100
5, 52795, Note_on_c, 3, 79, 0
5, 52796, Note_on_c, 3, 76, 0
5, 52831, Note_on_c, 3, 84, 85
5, 52837, Note_on_c, 3, 76, 90
5, 52868, Note_on_c, 3, 84, 0
5, 52883, Note_on_c, 3, 82, 106
5, 52909, Channel_aftertouch_c, 3, 0
5, 52924, Note_on_c, 3, 76, 0
5, 52930, Note_on_c, 3, 82, 0
5, 53175, Note_on_c, 3, 84, 104
5, 53181, Note_on_c, 3, 76, 107
5, 53208, Channel_aftertouch_c, 3, 0
5, 53209, Note_on_c, 3, 76, 0
5, 53209, Note_on_c, 3, 84, 0
5, 53265, Note_on_c, 3, 76, 95
5, 53276, Channel_aftertouch_c, 3, 1
5, 53277, Note_on_c, 3, 84, 117
5, 53299, Channel_aftertouch_c, 3, 15
5, 53326, Channel_aftertouch_c, 3, 0
5, 53367, Note_on_c, 3, 76, 0
5, 53382, Note_on_c, 3, 84, 0
5, 53417, Note_on_c, 3, 76, 109
5, 53432, Channel_aftertouch_c, 3, 2
5, 53459, Channel_aftertouch_c, 3, 0
5, 53460, Note_on_c, 3, 76, 0
5, 53505, Note_on_c, 3, 79, 102
5, 53536, Note_on_c, 3, 79, 0
5, 53556, Note_on_c, 3, 82, 96
5, 53596, Note_on_c, 3, 82, 0
5, 53607, Note_on_c, 3, 79, 89
5, 53642, Note_on_c, 3, 79, 0
5, 53653, Note_on_c, 3, 76, 98
5, 53688, Note_on_c, 3, 76, 0
5, 53704, Note_on_c, 3, 78, 94
5, 53734, Note_on_c, 3, 78, 0
5, 53750, Note_on_c, 3, 79, 114
5, 53765, Channel_aftertouch_c, 3, 0
5, 53792, Channel_aftertouch_c, 3, 0
5, 53915, Note_on_c, 3, 79, 0
5, 54033, Note_on_c, 3, 76, 111
5, 54073, Note_on_c, 3, 76, 0
5, 54084, Note_on_c, 3, 84, 80
5, 54124, Note_on_c, 3, 84, 0
5, 54135, Note_on_c, 3, 82, 106
5, 54175, Note_on_c, 3, 82, 0
5, 54190, Note_on_c, 3, 79, 76
5, 54226, Note_on_c, 3, 79, 0
5, 54232, Note_on_c, 3, 76, 95
5, 54262, Note_on_c, 3, 76, 0
5, 54283, Note_on_c, 3, 74, 100
5, 54314, Note_on_c, 3, 74, 0
5, 54329, Note_on_c, 3, 72, 107
5, 54379, Note_on_c, 3, 72, 0
5, 54385, Note_on_c, 3, 76, 90
5, 54420, Note_on_c, 3, 76, 0
5, 54431, Note_on_c, 3, 79, 95
5, 54466, Note_on_c, 3, 79, 0
5, 54521, Note_on_c, 3, 79, 117
5, 54536, Channel_aftertouch_c, 3, 1
5, 54562, Channel_aftertouch_c, 3, 0
5, 54647, Note_on_c, 3, 79, 0
5, 54720, Note_on_c, 3, 79, 114
5, 54720, Note_on_c, 3, 91, 109
5, 54733, Channel_aftertouch_c, 3, 4
5, 54743, Note_on_c, 3, 79, 0
5, 54750, Note_on_c, 3, 91, 0
5, 54756, Channel_aftertouch_c, 3, 0
5, 54779, Channel_aftertouch_c, 3, 4
5, 54807, Channel_aftertouch_c, 3, 0
5, 54816, Note_on_c, 3, 79, 100
5, 54816, Note_on_c, 3, 91, 111
5, 54845, Note_on_c, 3, 79, 0
5, 54845, Note_on_c, 3, 91, 0
5, 54845, Channel_aftertouch_c, 3, 8
5, 54868, Channel_aftertouch_c, 3, 0
5, 54901, Channel_aftertouch_c, 3, 19
5, 54912, Note_on_c, 3, 79, 114
5, 54912, Note_on_c, 3, 91, 111
5, 54934, Channel_aftertouch_c, 3, 0
5, 54946, Note_on_c, 3, 79, 0
5, 54952, Note_on_c, 3, 91, 0
5, 54998, Channel_aftertouch_c, 3, 12
5, 55008, Note_on_c, 3, 79, 111
5, 55008, Note_on_c, 3, 91, 109
5, 55021, Channel_aftertouch_c, 3, 0
5, 55036, Note_on_c, 3, 91, 0
5, 55037, Note_on_c, 3, 79, 0
5, 55079, Channel_aftertouch_c, 3, 0
5, 55104, Note_on_c, 3, 79, 107
5, 55104, Note_on_c, 3, 91, 96
5, 55108, Channel_aftertouch_c, 3, 6
5, 55135, Channel_aftertouch_c, 3, 13
5, 55154, Note_on_c, 3, 79, 0
5, 55158, Channel_aftertouch_c, 3, 0
5, 55159, Note_on_c, 3, 91, 0
5, 55200, Note_on_c, 3, 79, 102
5, 55200, Note_on_c, 3, 91, 109
5, 55216, Channel_aftertouch_c, 3, 10
5, 55239, Channel_aftertouch_c, 3, 0
5, 55240, Note_on_c, 3, 79, 0
5, 55245, Note_on_c, 3, 91, 0
5, 55392, Note_on_c, 3, 79, 117
5, 55392, Note_on_c, 3, 91, 117
5, 55405, Channel_aftertouch_c, 3, 14
5, 55421, Note_on_c, 3, 79, 0
5, 55422, Note_on_c, 3, 91, 0
5, 55429, Channel_aftertouch_c, 3, 0
5, 55488, Note_on_c, 3, 79, 117
5, 55488, Note_on_c, 3, 91, 117
5, 55501, Channel_aftertouch_c, 3, 12
5, 55511, Note_on_c, 3, 79, 0
5, 55517, Note_on_c, 3, 91, 0
5, 55527, Channel_aftertouch_c, 3, 0
5, 55584, Note_on_c, 3, 79, 117
5, 55584, Note_on_c, 3, 91, 114
5, 55595, Channel_aftertouch_c, 3, 10
5, 55613, Note_on_c, 3, 79, 0
5, 55613, Note_on_c, 3, 91, 0
5, 55618, Channel_aftertouch_c, 3, 0
5, 55680, Note_on_c, 3, 79, 117
5, 55680, Note_on_c, 3, 91, 117
5, 55687, Note_on_c, 3, 79, 0
5, 55690, Channel_aftertouch_c, 3, 12
5, 55709, Note_on_c, 3, 91, 0
5, 55715, Channel_aftertouch_c, 3, 0
5, 55776, Note_on_c, 3, 79, 117
5, 55776, Note_on_c, 3, 91, 117
5, 55782, Channel_aftertouch_c, 3, 9
5, 55805, Note_on_c, 3, 79, 0
5, 55805, Note_on_c, 3, 91, 0
5, 55805, Channel_aftertouch_c, 3, 0
5, 55872, Note_on_c, 3, 78, 102
5, 55872, Note_on_c, 3, 90, 102
5, 55888, Channel_aftertouch_c, 3, 9
5, 55911, Channel_aftertouch_c, 3, 0
5, 56041, Note_on_c, 3, 90, 0
5, 56048, Note_on_c, 3, 78, 0
5, 56067, Note_on_c, 3, 77, 117
5, 56067, Note_on_c, 3, 89, 117
5, 56095, Channel_aftertouch_c, 3, 17
5, 56122, Channel_aftertouch_c, 3, 0
5, 56445, Note_on_c, 3, 89, 0
5, 56455, Note_on_c, 3, 77, 0
5, 58565, Note_on_c, 3, 84, 117
5, 58597, Channel_aftertouch_c, 3, 0
5, 58603, Note_on_c, 3, 84, 0
5, 58613, Note_on_c, 3, 82, 89
5, 58649, Note_on_c, 3, 79, 82
5, 58655, Note_on_c, 3, 82, 0
5, 58695, Note_on_c, 3, 79, 0
5, 58696, Note_on_c, 3, 76, 92
5, 58731, Note_on_c, 3, 76, 0
5, 58742, Note_on_c, 3, 74, 95
5, 58777, Note_on_c, 3, 74, 0
5, 58793, Note_on_c, 3, 72, 90
5, 58838, Note_on_c, 3, 72, 0
5, 58844, Note_on_c, 3, 76, 95
5, 58880, Note_on_c, 3, 76, 0
5, 58895, Note_on_c, 3, 79, 90
5, 58926, Note_on_c, 3, 79, 0
5, 58946, Note_on_c, 3, 82, 94
5, 58982, Note_on_c, 3, 82, 0
5, 58993, Note_on_c, 3, 72, 98
5, 59033, Note_on_c, 3, 72, 0
5, 59043, Note_on_c, 3, 82, 83
5, 59079, Note_on_c, 3, 82, 0
5, 59124, Note_on_c, 3, 72, 117
5, 59150, Channel_aftertouch_c, 3, 9
5, 59182, Channel_aftertouch_c, 3, 0
5, 59242, Note_on_c, 3, 72, 0
5, 59321, Note_on_c, 3, 72, 111
5, 59321, Note_on_c, 3, 84, 109
5, 59349, Channel_aftertouch_c, 3, 0
5, 59350, Note_on_c, 3, 72, 0
5, 59350, Note_on_c, 3, 84, 0
5, 59366, Note_on_c, 3, 72, 82
5, 59366, Note_on_c, 3, 84, 86
5, 59399, Channel_aftertouch_c, 3, 0
5, 59400, Note_on_c, 3, 72, 0
5, 59400, Note_on_c, 3, 84, 0
5, 59469, Note_on_c, 3, 82, 110
5, 59470, Note_on_c, 3, 72, 107
5, 59481, Channel_aftertouch_c, 3, 3
5, 59508, Channel_aftertouch_c, 3, 0
5, 59548, Note_on_c, 3, 82, 0
5, 59598, Note_on_c, 3, 79, 114
5, 59625, Note_on_c, 3, 72, 0
5, 59630, Channel_aftertouch_c, 3, 0
5, 59631, Note_on_c, 3, 79, 0
5, 59696, Note_on_c, 3, 76, 109
5, 59701, Note_on_c, 3, 72, 104
5, 59800, Note_on_c, 3, 79, 100
5, 59806, Note_on_c, 3, 76, 0
5, 59812, Note_on_c, 3, 72, 0
5, 59822, Note_on_c, 3, 79, 0
5, 59891, Note_on_c, 3, 72, 117
5, 59913, Channel_aftertouch_c, 3, 6
5, 59944, Channel_aftertouch_c, 3, 0
5, 60038, Note_on_c, 3, 72, 0
5, 60092, Note_on_c, 3, 72, 92
5, 60092, Note_on_c, 3, 84, 114
5, 60115, Note_on_c, 3, 84, 0
5, 60121, Channel_aftertouch_c, 3, 0
5, 60122, Note_on_c, 3, 72, 0
5, 60137, Note_on_c, 3, 72, 82
5, 60144, Note_on_c, 3, 84, 96
5, 60170, Channel_aftertouch_c, 3, 0
5, 60171, Note_on_c, 3, 84, 0
5, 60176, Note_on_c, 3, 72, 0
5, 60275, Note_on_c, 3, 72, 104
5, 60275, Note_on_c, 3, 82, 110
5, 60286, Channel_aftertouch_c, 3, 0
5, 60298, Note_on_c, 3, 83, 52
5, 60309, Channel_aftertouch_c, 3, 0
5, 60319, Note_on_c, 3, 83, 0
5, 60335, Note_on_c, 3, 82, 0
5, 60361, Note_on_c, 3, 79, 72
5, 60368, Note_on_c, 3, 72, 0
5, 60368, Note_on_c, 3, 79, 0
5, 60418, Note_on_c, 3, 72, 102
5, 60418, Note_on_c, 3, 79, 117
5, 60425, Channel_aftertouch_c, 3, 1
5, 60451, Channel_aftertouch_c, 3, 0
5, 60467, Note_on_c, 3, 79, 0
5, 60472, Note_on_c, 3, 72, 0
5, 60513, Note_on_c, 3, 76, 114
5, 60553, Note_on_c, 3, 72, 107
5, 60553, Note_on_c, 3, 76, 0
5, 60587, Channel_aftertouch_c, 3, 0
5, 60593, Note_on_c, 3, 72, 0
5, 60858, Note_on_c, 3, 64, 43
5, 60864, Note_on_c, 3, 70, 96
5, 60864, Note_on_c, 3, 72, 92
5, 60865, Note_on_c, 3, 67, 95
5, 60892, Note_on_c, 3, 72, 0
5, 60893, Note_on_c, 3, 67, 0
5, 60898, Note_on_c, 3, 64, 0
5, 60898, Note_on_c, 3, 70, 0
5, 60954, Note_on_c, 3, 67, 96
5, 60954, Note_on_c, 3, 70, 106
5, 60954, Note_on_c, 3, 72, 100
5, 60955, Note_on_c, 3, 64, 90
5, 60978, Note_on_c, 3, 67, 0
5, 60978, Note_on_c, 3, 70, 0
5, 60978, Note_on_c, 3, 72, 0
5, 60979, Note_on_c, 3, 64, 0
5, 61054, Note_on_c, 3, 64, 100
5, 61054, Note_on_c, 3, 70, 117
5, 61055, Note_on_c, 3, 72, 104
5, 61056, Note_on_c, 3, 67, 107
5, 61063, Channel_aftertouch_c, 3, 0
5, 61086, Channel_aftertouch_c, 3, 0
5, 61181, Note_on_c, 3, 64, 0
5, 61181, Note_on_c, 3, 72, 0
5, 61187, Note_on_c, 3, 67, 0
5, 61187, Note_on_c, 3, 70, 0
5, 61257, Note_on_c, 3, 70, 117
5, 61258, Note_on_c, 3, 64, 114
5, 61258, Note_on_c, 3, 67, 117
5, 61258, Note_on_c, 3, 72, 114
5, 61281, Channel_aftertouch_c, 3, 0
5, 61288, Note_on_c, 3, 64, 0
5, 61288, Note_on_c, 3, 67, 0
5, 61288, Note_on_c, 3, 72, 0
5, 61289, Note_on_c, 3, 70, 0
5, 61529, Note_on_c, 3, 76, 117
5, 61536, Note_on_c, 3, 79, 100
5, 61536, Note_on_c, 3, 84, 117
5, 61549, Note_on_c, 3, 79, 0
5, 61554, Channel_aftertouch_c, 3, 19
5, 61581, Channel_aftertouch_c, 3, 0
5, 61606, Note_on_c, 3, 84, 0
5, 61612, Note_on_c, 3, 76, 0
5, 61632, Note_on_c, 3, 76, 76
5, 61632, Note_on_c, 3, 84, 90
5, 61659, Channel_aftertouch_c, 3, 0
5, 61661, Note_on_c, 3, 76, 0
5, 61661, Note_on_c, 3, 84, 0
5, 61726, Note_on_c, 3, 76, 111
5, 61726, Note_on_c, 3, 84, 117
5, 61748, Channel_aftertouch_c, 3, 13
5, 61754, Note_on_c, 3, 76, 0
5, 61760, Note_on_c, 3, 84, 0
5, 61771, Channel_aftertouch_c, 3, 0
5, 61816, Note_on_c, 3, 76, 114
5, 61816, Note_on_c, 3, 84, 114
5, 61839, Channel_aftertouch_c, 3, 15
5, 61845, Note_on_c, 3, 76, 0
5, 61851, Note_on_c, 3, 84, 0
5, 61866, Channel_aftertouch_c, 3, 0
5, 61906, Note_on_c, 3, 84, 117
5, 61907, Note_on_c, 3, 76, 111
5, 61929, Channel_aftertouch_c, 3, 18
5, 61936, Note_on_c, 3, 76, 0
5, 61942, Note_on_c, 3, 84, 0
5, 61957, Channel_aftertouch_c, 3, 0
5, 62003, Note_on_c, 3, 76, 114
5, 62003, Note_on_c, 3, 84, 117
5, 62009, Channel_aftertouch_c, 3, 5
5, 62035, Channel_aftertouch_c, 3, 10
5, 62037, Note_on_c, 3, 76, 0
5, 62042, Note_on_c, 3, 84, 0
5, 62058, Channel_aftertouch_c, 3, 0
5, 62099, Note_on_c, 3, 76, 109
5, 62099, Note_on_c, 3, 82, 117
5, 62115, Channel_aftertouch_c, 3, 5
5, 62142, Channel_aftertouch_c, 3, 0
5, 62197, Note_on_c, 3, 84, 109
5, 62203, Note_on_c, 3, 82, 0
5, 62219, Channel_aftertouch_c, 3, 8
5, 62231, Note_on_c, 3, 76, 0
5, 62231, Note_on_c, 3, 84, 0
5, 62242, Channel_aftertouch_c, 3, 0
5, 62399, Note_on_c, 3, 76, 100
5, 62399, Note_on_c, 3, 82, 110
5, 62399, Note_on_c, 3, 84, 102
5, 62400, Note_on_c, 3, 79, 111
5, 62407, Channel_aftertouch_c, 3, 1
5, 62434, Channel_aftertouch_c, 3, 0
5, 62499, Note_on_c, 3, 82, 0
5, 62499, Note_on_c, 3, 84, 0
5, 62505, Note_on_c, 3, 76, 0
5, 62505, Note_on_c, 3, 79, 0
5, 62590, Note_on_c, 3, 76, 102
5, 62590, Note_on_c, 3, 82, 91
5, 62591, Note_on_c, 3, 72, 96
5, 62591, Note_on_c, 3, 79, 98
5, 62679, Note_on_c, 3, 72, 0
5, 62679, Note_on_c, 3, 76, 0
5, 62679, Note_on_c, 3, 82, 0
5, 62690, Note_on_c, 3, 79, 0
5, 62774, Note_on_c, 3, 76, 102
5, 62774, Note_on_c, 3, 79, 104
5, 62774, Note_on_c, 3, 84, 107
5, 62803, Channel_aftertouch_c, 3, 0
5, 62804, Note_on_c, 3, 79, 0
5, 62810, Note_on_c, 3, 84, 0
5, 62815, Note_on_c, 3, 76, 0
5, 63159, Note_on_c, 3, 76, 107
5, 63159, Note_on_c, 3, 84, 107
5, 63166, Note_on_c, 3, 80, 89
5, 63172, Channel_aftertouch_c, 3, 5
5, 63173, Note_on_c, 3, 80, 0
5, 63200, Channel_aftertouch_c, 3, 0
5, 63425, Note_on_c, 3, 76, 0
5, 63436, Note_on_c, 3, 84, 0
5, 63509, Note_on_c, 3, 84, 117
5, 63515, Channel_aftertouch_c, 3, 2
5, 63543, Channel_aftertouch_c, 3, 15
5, 63570, Channel_aftertouch_c, 3, 0
5, 63576, Note_on_c, 3, 84, 0
5, 63591, Note_on_c, 3, 82, 99
5, 63626, Note_on_c, 3, 82, 0
5, 63642, Note_on_c, 3, 79, 83
5, 63677, Note_on_c, 3, 79, 0
5, 63688, Note_on_c, 3, 76, 102
5, 63728, Note_on_c, 3, 84, 117
5, 63749, Channel_aftertouch_c, 3, 25
5, 63781, Channel_aftertouch_c, 3, 9
5, 63808, Channel_aftertouch_c, 3, 0
5, 63901, Note_on_c, 3, 84, 0
5, 63902, Note_on_c, 3, 76, 0
5, 63927, Note_on_c, 3, 76, 89
5, 63927, Note_on_c, 3, 82, 91
5, 63934, Note_on_c, 3, 84, 111
5, 63945, Channel_aftertouch_c, 3, 4
5, 63946, Note_on_c, 3, 82, 0
5, 63962, Note_on_c, 3, 76, 0
5, 63968, Note_on_c, 3, 84, 0
5, 63968, Channel_aftertouch_c, 3, 0
5, 64219, Note_on_c, 3, 76, 104
5, 64219, Note_on_c, 3, 84, 107
5, 64246, Channel_aftertouch_c, 3, 15
5, 64273, Channel_aftertouch_c, 3, 0
5, 64299, Note_on_c, 3, 82, 64
5, 64304, Note_on_c, 3, 84, 0
5, 64330, Note_on_c, 3, 76, 0
5, 64335, Note_on_c, 3, 82, 0
5, 64395, Note_on_c, 3, 79, 81
5, 64422, Note_on_c, 3, 79, 0
5, 64502, Note_on_c, 3, 72, 100
5, 64502, Note_on_c, 3, 79, 102
5, 64508, Channel_aftertouch_c, 3, 0
5, 64535, Channel_aftertouch_c, 3, 0
5, 64678, Note_on_c, 3, 79, 0
5, 64693, Note_on_c, 3, 76, 100
5, 64694, Note_on_c, 3, 82, 87
5, 64705, Note_on_c, 3, 84, 66
5, 64711, Note_on_c, 3, 84, 0
5, 64717, Note_on_c, 3, 72, 0
5, 64727, Note_on_c, 3, 76, 0
5, 64728, Note_on_c, 3, 82, 0
5, 64900, Note_on_c, 3, 72, 86
5, 64900, Note_on_c, 3, 76, 93
5, 64901, Note_on_c, 3, 82, 96
5, 65037, Note_on_c, 3, 82, 0
5, 65042, Note_on_c, 3, 76, 0
5, 65067, Note_on_c, 3, 76, 77
5, 65073, Note_on_c, 3, 79, 96
5, 65098, Note_on_c, 3, 72, 0
5, 65099, Note_on_c, 3, 76, 0
5, 65105, Note_on_c, 3, 79, 0
5, 65432, Note_on_c, 3, 76, 88
5, 65433, Note_on_c, 3, 79, 88
5, 65433, Note_on_c, 3, 84, 84
5, 65446, Note_on_c, 3, 79, 0
5, 65471, Note_on_c, 3, 79, 70
5, 65843, Note_on_c, 3, 79, 0
5, 65843, Note_on_c, 3, 84, 0
5, 65844, Note_on_c, 3, 76, 0
5, 66138, Note_on_c, 3, 72, 98
5, 66138, Note_on_c, 3, 79, 111
5, 66139, Note_on_c, 3, 76, 114
5, 66159, Note_on_c, 3, 76, 0
5, 66165, Note_on_c, 3, 72, 0
5, 66165, Note_on_c, 3, 72, 82
5, 66165, Note_on_c, 3, 79, 0
5, 66190, Note_on_c, 3, 72, 0
5, 66225, Note_on_c, 3, 77, 76
5, 66231, Note_on_c, 3, 81, 77
5, 66245, Note_on_c, 3, 77, 0
5, 66255, Note_on_c, 3, 81, 0
5, 66337, Note_on_c, 3, 76, 111
5, 66337, Note_on_c, 3, 79, 114
5, 66337, Note_on_c, 3, 84, 104
5, 66360, Note_on_c, 3, 79, 0
5, 66366, Note_on_c, 3, 76, 0
5, 66366, Note_on_c, 3, 84, 0
5, 66529, Note_on_c, 3, 82, 117
5, 66529, Note_on_c, 3, 88, 111
5, 66530, Note_on_c, 3, 79, 111
5, 66557, Channel_aftertouch_c, 3, 0
5, 66559, Note_on_c, 3, 79, 0
5, 66559, Note_on_c, 3, 82, 0
5, 66560, Note_on_c, 3, 88, 0
5, 66678, Note_on_c, 3, 84, 117
5, 66679, Note_on_c, 3, 79, 114
5, 66679, Note_on_c, 3, 82, 117
5, 66691, Channel_aftertouch_c, 3, 6
5, 66708, Note_on_c, 3, 82, 0
5, 66709, Note_on_c, 3, 79, 0
5, 66715, Note_on_c, 3, 84, 0
5, 66720, Channel_aftertouch_c, 3, 0
5, 67005, Note_on_c, 3, 81, 111
5, 67036, Note_on_c, 3, 81, 0
5, 67047, Note_on_c, 3, 84, 90
5, 67082, Note_on_c, 3, 84, 0
5, 67097, Note_on_c, 3, 87, 96
5, 67123, Note_on_c, 3, 87, 0
5, 67143, Note_on_c, 3, 81, 95
5, 67144, Note_on_c, 3, 89, 117
5, 67155, Channel_aftertouch_c, 3, 3
5, 67177, Note_on_c, 3, 81, 0
5, 67183, Note_on_c, 3, 89, 0
5, 67183, Channel_aftertouch_c, 3, 0
5, 67238, Note_on_c, 3, 89, 109
5, 67244, Note_on_c, 3, 81, 98
5, 67271, Channel_aftertouch_c, 3, 0
5, 67272, Note_on_c, 3, 81, 0
5, 67278, Note_on_c, 3, 89, 0
5, 67342, Note_on_c, 3, 81, 100
5, 67342, Note_on_c, 3, 89, 109
5, 67364, Note_on_c, 3, 81, 0
5, 67364, Note_on_c, 3, 89, 0
5, 67385, Note_on_c, 3, 81, 82
5, 67385, Note_on_c, 3, 89, 98
5, 67397, Channel_aftertouch_c, 3, 4
5, 67423, Channel_aftertouch_c, 3, 0
5, 67425, Note_on_c, 3, 89, 0
5, 67430, Note_on_c, 3, 81, 0
5, 67767, Note_on_c, 3, 81, 117
5, 67798, Note_on_c, 3, 81, 0
5, 67804, Note_on_c, 3, 84, 95
5, 67839, Note_on_c, 3, 84, 0
5, 67850, Note_on_c, 3, 87, 102
5, 67880, Note_on_c, 3, 87, 0
5, 67901, Note_on_c, 3, 81, 93
5, 67901, Note_on_c, 3, 89, 117
5, 67913, Channel_aftertouch_c, 3, 4
5, 67935, Note_on_c, 3, 81, 0
5, 67940, Channel_aftertouch_c, 3, 0
5, 67941, Note_on_c, 3, 89, 0
5, 68001, Note_on_c, 3, 89, 111
5, 68006, Note_on_c, 3, 81, 100
5, 68012, Channel_aftertouch_c, 3, 1
5, 68034, Note_on_c, 3, 81, 0
5, 68039, Channel_aftertouch_c, 3, 0
5, 68040, Note_on_c, 3, 89, 0
5, 68095, Note_on_c, 3, 89, 104
5, 68101, Note_on_c, 3, 81, 92
5, 68122, Note_on_c, 3, 81, 0
5, 68122, Note_on_c, 3, 89, 0
5, 68143, Note_on_c, 3, 81, 93
5, 68143, Note_on_c, 3, 89, 107
5, 68160, Channel_aftertouch_c, 3, 11
5, 68187, Channel_aftertouch_c, 3, 0
5, 68192, Note_on_c, 3, 89, 0
5, 68198, Note_on_c, 3, 81, 0
5, 69601, Note_on_c, 3, 89, 104
5, 69641, Note_on_c, 3, 89, 0
5, 69642, Note_on_c, 3, 87, 94
5, 69682, Note_on_c, 3, 87, 0
5, 69697, Note_on_c, 3, 84, 82
5, 69728, Note_on_c, 3, 84, 0
5, 69739, Note_on_c, 3, 81, 92
5, 69774, Note_on_c, 3, 81, 0
5, 69791, Note_on_c, 3, 79, 72
5, 69802, Note_on_c, 3, 79, 0
5, 69823, Note_on_c, 3, 77, 79
5, 69848, Note_on_c, 3, 77, 0
5, 69884, Note_on_c, 3, 72, 102
5, 69905, Channel_aftertouch_c, 3, 5
5, 69932, Channel_aftertouch_c, 3, 0
5, 70074, Note_on_c, 3, 82, 110
5, 70080, Channel_aftertouch_c, 3, 0
5, 70102, Note_on_c, 3, 72, 0
5, 70107, Channel_aftertouch_c, 3, 0
5, 70108, Note_on_c, 3, 82, 0
5, 72565, Note_on_c, 3, 76, 89
5, 72592, Note_on_c, 3, 76, 0
5, 72603, Note_on_c, 3, 79, 64
5, 72628, Note_on_c, 3, 82, 83
5, 72635, Note_on_c, 3, 79, 0
5, 72660, Note_on_c, 3, 82, 0
5, 72665, Note_on_c, 3, 79, 85
5, 72696, Note_on_c, 3, 79, 0
5, 72696, Note_on_c, 3, 82, 87
5, 72728, Note_on_c, 3, 82, 0
5, 72734, Note_on_c, 3, 84, 102
5, 72764, Note_on_c, 3, 84, 0
5, 72770, Note_on_c, 3, 84, 93
5, 72801, Note_on_c, 3, 84, 0
5, 72802, Note_on_c, 3, 86, 81
5, 72832, Note_on_c, 3, 88, 95
5, 72838, Note_on_c, 3, 86, 0
5, 72869, Note_on_c, 3, 88, 0
5, 72874, Note_on_c, 3, 89, 95
5, 72904, Note_on_c, 3, 89, 0
5, 72915, Note_on_c, 3, 90, 106
5, 72951, Note_on_c, 3, 90, 0
5, 72951, Note_on_c, 3, 91, 109
5, 72972, Channel_aftertouch_c, 3, 6
5, 72999, Channel_aftertouch_c, 3, 0
5, 73044, Note_on_c, 3, 91, 0
5, 73152, Note_on_c, 3, 83, 117
5, 73152, Note_on_c, 3, 91, 111
5, 73164, Channel_aftertouch_c, 3, 6
5, 73181, Note_on_c, 3, 83, 0
5, 73186, Note_on_c, 3, 91, 0
5, 73192, Channel_aftertouch_c, 3, 0
5, 73232, Note_on_c, 3, 83, 111
5, 73232, Note_on_c, 3, 91, 107
5, 73249, Channel_aftertouch_c, 3, 7
5, 73266, Note_on_c, 3, 83, 0
5, 73272, Note_on_c, 3, 91, 0
5, 73277, Channel_aftertouch_c, 3, 0
5, 73332, Note_on_c, 3, 83, 117
5, 73332, Note_on_c, 3, 91, 111
5, 73349, Channel_aftertouch_c, 3, 8
5, 73366, Note_on_c, 3, 83, 0
5, 73367, Note_on_c, 3, 91, 0
5, 73372, Channel_aftertouch_c, 3, 0
5, 73426, Note_on_c, 3, 83, 117
5, 73426, Note_on_c, 3, 91, 117
5, 73439, Channel_aftertouch_c, 3, 9
5, 73455, Note_on_c, 3, 83, 0
5, 73461, Note_on_c, 3, 91, 0
5, 73466, Channel_aftertouch_c, 3, 0
5, 73521, Note_on_c, 3, 83, 117
5, 73521, Note_on_c, 3, 91, 114
5, 73538, Channel_aftertouch_c, 3, 8
5, 73550, Note_on_c, 3, 83, 0
5, 73556, Note_on_c, 3, 91, 0
5, 73561, Channel_aftertouch_c, 3, 0
5, 73621, Note_on_c, 3, 91, 117
5, 73622, Note_on_c, 3, 83, 117
5, 73638, Channel_aftertouch_c, 3, 9
5, 73650, Note_on_c, 3, 83, 0
5, 73656, Note_on_c, 3, 91, 0
5, 73661, Channel_aftertouch_c, 3, 0
5, 73716, Note_on_c, 3, 83, 117
5, 73716, Note_on_c, 3, 91, 117
5, 73739, Channel_aftertouch_c, 3, 13
5, 73745, Note_on_c, 3, 83, 0
5, 73751, Note_on_c, 3, 91, 0
5, 73762, Channel_aftertouch_c, 3, 0
5, 73812, Note_on_c, 3, 83, 117
5, 73812, Note_on_c, 3, 91, 117
5, 73834, Channel_aftertouch_c, 3, 11
5, 73841, Note_on_c, 3, 83, 0
5, 73847, Note_on_c, 3, 91, 0
5, 73857, Channel_aftertouch_c, 3, 0
5, 73912, Note_on_c, 3, 83, 117
5, 73912, Note_on_c, 3, 91, 117
5, 73934, Channel_aftertouch_c, 3, 12
5, 73941, Note_on_c, 3, 83, 0
5, 73941, Note_on_c, 3, 91, 0
5, 73957, Channel_aftertouch_c, 3, 0
5, 74002, Note_on_c, 3, 91, 117
5, 74003, Note_on_c, 3, 83, 117
5, 74030, Channel_aftertouch_c, 3, 10
5, 74032, Note_on_c, 3, 83, 0
5, 74037, Note_on_c, 3, 91, 0
5, 74053, Channel_aftertouch_c, 3, 0
5, 74103, Note_on_c, 3, 83, 117
5, 74104, Note_on_c, 3, 91, 117
5, 74121, Channel_aftertouch_c, 3, 12
5, 74132, Note_on_c, 3, 83, 0
5, 74133, Note_on_c, 3, 91, 0
5, 74144, Channel_aftertouch_c, 3, 0
5, 74194, Note_on_c, 3, 83, 117
5, 74194, Note_on_c, 3, 91, 114
5, 74216, Channel_aftertouch_c, 3, 11
5, 74228, Note_on_c, 3, 83, 0
5, 74228, Note_on_c, 3, 91, 0
5, 74239, Channel_aftertouch_c, 3, 0
5, 74299, Note_on_c, 3, 82, 102
5, 74299, Note_on_c, 3, 90, 110
5, 74326, Note_on_c, 3, 90, 0
5, 74327, Note_on_c, 3, 82, 0
5, 74382, Note_on_c, 3, 82, 99
5, 74387, Note_on_c, 3, 90, 110
5, 74413, Note_on_c, 3, 90, 0
5, 74414, Note_on_c, 3, 82, 0
5, 74493, Note_on_c, 3, 81, 117
5, 74493, Note_on_c, 3, 91, 117
5, 74517, Channel_aftertouch_c, 3, 23
5, 74543, Channel_aftertouch_c, 3, 0
5, 74545, Note_on_c, 3, 81, 0
5, 74545, Note_on_c, 3, 91, 0
5, 75748, Note_on_c, 3, 81, 117
5, 75748, Note_on_c, 3, 89, 117
5, 75775, Channel_aftertouch_c, 3, 13
5, 75777, Note_on_c, 3, 81, 0
5, 75777, Note_on_c, 3, 89, 0
5, 75783, Note_on_c, 3, 81, 73
5, 75790, Note_on_c, 3, 81, 0
5, 75800, Channel_aftertouch_c, 3, 0
5, 75910, Channel_aftertouch_c, 3, 1
5, 75910, Note_on_c, 3, 81, 117
5, 75911, Note_on_c, 3, 89, 102
5, 75933, Channel_aftertouch_c, 3, 11
5, 75934, Note_on_c, 3, 81, 0
5, 75935, Note_on_c, 3, 89, 0
5, 75942, Note_on_c, 3, 81, 76
5, 75948, Note_on_c, 3, 81, 0
5, 75959, Channel_aftertouch_c, 3, 0
5, 76239, Note_on_c, 3, 76, 104
5, 76240, Note_on_c, 3, 84, 102
5, 76261, Channel_aftertouch_c, 3, 13
5, 76288, Channel_aftertouch_c, 3, 0
5, 76324, Note_on_c, 3, 84, 0
5, 76329, Note_on_c, 3, 76, 0
5, 76379, Note_on_c, 3, 76, 111
5, 76379, Note_on_c, 3, 84, 114
5, 76396, Channel_aftertouch_c, 3, 20
5, 76423, Note_on_c, 3, 76, 0
5, 76428, Channel_aftertouch_c, 3, 0
5, 76429, Note_on_c, 3, 84, 0
5, 76455, Note_on_c, 3, 82, 99
5, 76490, Note_on_c, 3, 82, 0
5, 76496, Note_on_c, 3, 79, 85
5, 76537, Note_on_c, 3, 79, 0
5, 76547, Note_on_c, 3, 76, 78
5, 76573, Note_on_c, 3, 76, 0
5, 76588, Note_on_c, 3, 74, 95
5, 76619, Note_on_c, 3, 74, 0
5, 76629, Note_on_c, 3, 72, 98
5, 76685, Note_on_c, 3, 72, 0
5, 76710, Note_on_c, 3, 72, 86
5, 76743, Note_on_c, 3, 72, 0
5, 76797, Note_on_c, 3, 72, 104
5, 76830, Channel_aftertouch_c, 3, 0
5, 76846, Note_on_c, 3, 72, 0
5, 76979, Note_on_c, 3, 76, 102
5, 76985, Note_on_c, 3, 84, 98
5, 77010, Note_on_c, 3, 84, 0
5, 77011, Note_on_c, 3, 76, 0
5, 77022, Note_on_c, 3, 76, 79
5, 77022, Note_on_c, 3, 84, 89
5, 77039, Channel_aftertouch_c, 3, 6
5, 77061, Note_on_c, 3, 84, 0
5, 77062, Note_on_c, 3, 76, 0
5, 77066, Channel_aftertouch_c, 3, 0
5, 77132, Note_on_c, 3, 76, 109
5, 77132, Note_on_c, 3, 84, 114
5, 77149, Channel_aftertouch_c, 3, 19
5, 77176, Note_on_c, 3, 76, 0
5, 77181, Channel_aftertouch_c, 3, 0
5, 77182, Note_on_c, 3, 84, 0
5, 77217, Note_on_c, 3, 82, 102
5, 77253, Note_on_c, 3, 82, 0
5, 77263, Note_on_c, 3, 79, 55
5, 77269, Note_on_c, 3, 77, 55
5, 77295, Note_on_c, 3, 77, 0
5, 77300, Note_on_c, 3, 79, 0
5, 77311, Note_on_c, 3, 76, 83
5, 77346, Note_on_c, 3, 76, 0
5, 77357, Note_on_c, 3, 74, 90
5, 77397, Note_on_c, 3, 74, 0
5, 77413, Note_on_c, 3, 72, 70
5, 77439, Note_on_c, 3, 72, 0
5, 77460, Note_on_c, 3, 70, 99
5, 77491, Note_on_c, 3, 70, 0
5, 77511, Note_on_c, 3, 67, 109
5, 77728, Note_on_c, 3, 67, 0
5, 77748, Note_on_c, 3, 70, 114
5, 77749, Note_on_c, 3, 72, 117
5, 77749, Note_on_c, 3, 76, 104
5, 77773, Note_on_c, 3, 70, 0
5, 77778, Note_on_c, 3, 72, 0
5, 77784, Note_on_c, 3, 76, 0
5, 77794, Note_on_c, 3, 67, 95
5, 77830, Note_on_c, 3, 67, 0
5, 77890, Note_on_c, 3, 67, 72
5, 77930, Note_on_c, 3, 70, 99
5, 77930, Note_on_c, 3, 72, 117
5, 77930, Note_on_c, 3, 76, 100
5, 77938, Note_on_c, 3, 67, 0
5, 78000, Note_on_c, 3, 72, 0
5, 78005, Note_on_c, 3, 76, 0
5, 78006, Note_on_c, 3, 70, 0
5, 78031, Note_on_c, 3, 67, 86
5, 78057, Note_on_c, 3, 67, 0
5, 78082, Note_on_c, 3, 72, 117
5, 78082, Note_on_c, 3, 76, 104
5, 78083, Note_on_c, 3, 70, 96
5, 78145, Note_on_c, 3, 70, 0
5, 78150, Note_on_c, 3, 76, 0
5, 78151, Note_on_c, 3, 72, 0
5, 78182, Note_on_c, 3, 67, 86
5, 78197, Note_on_c, 3, 67, 0
5, 78218, Note_on_c, 3, 70, 102
5, 78218, Note_on_c, 3, 72, 117
5, 78218, Note_on_c, 3, 76, 111
5, 78226, Note_on_c, 3, 74, 92
5, 78233, Note_on_c, 3, 74, 0
5, 78237, Channel_aftertouch_c, 3, 0
5, 78259, Note_on_c, 3, 70, 0
5, 78264, Note_on_c, 3, 76, 0
5, 78269, Note_on_c, 3, 72, 0
5, 78314, Note_on_c, 3, 67, 114
5, 78399, Note_on_c, 3, 67, 0
5, 78479, Note_on_c, 3, 67, 92
5, 78494, Note_on_c, 3, 67, 0
5, 78525, Note_on_c, 3, 70, 94
5, 78525, Note_on_c, 3, 72, 107
5, 78525, Note_on_c, 3, 76, 83
5, 78537, Note_on_c, 3, 76, 0
5, 78544, Note_on_c, 3, 70, 0
5, 78544, Note_on_c, 3, 72, 0
5, 78564, Note_on_c, 3, 76, 66
5, 78570, Note_on_c, 3, 70, 53
5, 78571, Note_on_c, 3, 72, 72
5, 78592, Note_on_c, 3, 76, 0
5, 78598, Note_on_c, 3, 70, 0
5, 78598, Note_on_c, 3, 72, 0
5, 78673, Note_on_c, 3, 67, 100
5, 78694, Note_on_c, 3, 67, 0
5, 78715, Note_on_c, 3, 70, 102
5, 78715, Note_on_c, 3, 76, 98
5, 78722, Note_on_c, 3, 72, 117
5, 78781, Note_on_c, 3, 76, 0
5, 78787, Note_on_c, 3, 72, 0
5, 78792, Note_on_c, 3, 70, 0
5, 78813, Note_on_c, 3, 67, 93
5, 78834, Note_on_c, 3, 67, 0
5, 78859, Note_on_c, 3, 70, 106
5, 78859, Note_on_c, 3, 72, 117
5, 78860, Note_on_c, 3, 76, 95
5, 78913, Note_on_c, 3, 76, 0
5, 78929, Note_on_c, 3, 70, 0
5, 78929, Note_on_c, 3, 72, 0
5, 78950, Note_on_c, 3, 67, 92
5, 78970, Note_on_c, 3, 67, 0
5, 78996, Note_on_c, 3, 65, 93
5, 79027, Note_on_c, 3, 65, 0
5, 79037, Note_on_c, 3, 64, 96
5, 79062, Note_on_c, 3, 64, 0
5, 79088, Note_on_c, 3, 60, 88
5, 79286, Note_on_c, 3, 64, 89
5, 79287, Note_on_c, 3, 67, 109
5, 79287, Note_on_c, 3, 70, 96
5, 79309, Note_on_c, 3, 72, 104
5, 79309, Note_on_c, 3, 76, 117
5, 79310, Note_on_c, 3, 79, 117
5, 79310, Note_on_c, 3, 82, 114
5, 79319, Note_on_c, 3, 64, 0
5, 79324, Note_on_c, 3, 70, 0
5, 79330, Note_on_c, 3, 60, 0
5, 79330, Note_on_c, 3, 67, 0
5, 79330, Note_on_c, 3, 76, 0
5, 79330, Note_on_c, 3, 79, 0
5, 79330, Note_on_c, 3, 82, 0
5, 79341, Note_on_c, 3, 72, 0
5, 79352, Note_on_c, 3, 72, 69
5, 79353, Note_on_c, 3, 76, 85
5, 79353, Note_on_c, 3, 79, 81
5, 79353, Note_on_c, 3, 82, 61
5, 79373, Note_on_c, 3, 82, 0
5, 79378, Note_on_c, 3, 72, 0
5, 79379, Note_on_c, 3, 76, 0
5, 79379, Note_on_c, 3, 79, 0
5, 79491, Note_on_c, 3, 72, 98
5, 79491, Note_on_c, 3, 76, 117
5, 79492, Note_on_c, 3, 79, 117
5, 79492, Note_on_c, 3, 82, 106
5, 79511, Note_on_c, 3, 82, 0
5, 79517, Note_on_c, 3, 76, 0
5, 79518, Note_on_c, 3, 72, 0
5, 79518, Note_on_c, 3, 79, 0
5, 79629, Note_on_c, 3, 72, 100
5, 79629, Note_on_c, 3, 76, 114
5, 79629, Note_on_c, 3, 79, 114
5, 79630, Note_on_c, 3, 82, 99
5, 79649, Note_on_c, 3, 72, 0
5, 79655, Note_on_c, 3, 76, 0
5, 79655, Note_on_c, 3, 79, 0
5, 79655, Note_on_c, 3, 82, 0
5, 79776, Note_on_c, 3, 76, 117
5, 79776, Note_on_c, 3, 79, 114
5, 79777, Note_on_c, 3, 72, 104
5, 79777, Note_on_c, 3, 82, 102
5, 79802, Note_on_c, 3, 72, 0
5, 79802, Note_on_c, 3, 76, 0
5, 79802, Note_on_c, 3, 82, 0
5, 79809, Note_on_c, 3, 79, 0
5, 80064, Note_on_c, 3, 82, 106
5, 80065, Note_on_c, 3, 72, 100
5, 80065, Note_on_c, 3, 76, 114
5, 80065, Note_on_c, 3, 79, 117
5, 80080, Note_on_c, 3, 72, 0
5, 80085, Note_on_c, 3, 76, 0
5, 80085, Note_on_c, 3, 79, 0
5, 80086, Note_on_c, 3, 82, 0
5, 80102, Note_on_c, 3, 76, 90
5, 80102, Note_on_c, 3, 82, 74
5, 80103, Note_on_c, 3, 72, 83
5, 80103, Note_on_c, 3, 79, 90
5, 80128, Note_on_c, 3, 82, 0
5, 80129, Note_on_c, 3, 72, 0
5, 80129, Note_on_c, 3, 76, 0
5, 80129, Note_on_c, 3, 79, 0
5, 80256, Note_on_c, 3, 76, 117
5, 80257, Note_on_c, 3, 72, 102
5, 80257, Note_on_c, 3, 82, 110
5, 80258, Note_on_c, 3, 79, 117
5, 80272, Note_on_c, 3, 72, 0
5, 80288, Note_on_c, 3, 76, 0
5, 80288, Note_on_c, 3, 82, 0
5, 80294, Note_on_c, 3, 79, 0
5, 80394, Note_on_c, 3, 76, 114
5, 80395, Note_on_c, 3, 79, 111
5, 80402, Note_on_c, 3, 72, 95
5, 80402, Note_on_c, 3, 82, 102
5, 80419, Note_on_c, 3, 72, 0
5, 80425, Note_on_c, 3, 82, 0
5, 80426, Note_on_c, 3, 76, 0
5, 80426, Note_on_c, 3, 79, 0
5, 80542, Note_on_c, 3, 76, 111
5, 80543, Note_on_c, 3, 72, 102
5, 80543, Note_on_c, 3, 79, 114
5, 80543, Note_on_c, 3, 82, 99
5, 80573, Note_on_c, 3, 72, 0
5, 80573, Note_on_c, 3, 82, 0
5, 80574, Note_on_c, 3, 76, 0
5, 80579, Note_on_c, 3, 79, 0
5, 80845, Note_on_c, 3, 82, 102
5, 80846, Note_on_c, 3, 76, 114
5, 80846, Note_on_c, 3, 79, 114
5, 80847, Note_on_c, 3, 72, 95
5, 80866, Note_on_c, 3, 72, 0
5, 80866, Note_on_c, 3, 76, 0
5, 80866, Note_on_c, 3, 82, 0
5, 80867, Note_on_c, 3, 79, 0
5, 80883, Note_on_c, 3, 76, 89
5, 80890, Note_on_c, 3, 72, 79
5, 80890, Note_on_c, 3, 79, 86
5, 80890, Note_on_c, 3, 82, 69
5, 80904, Note_on_c, 3, 82, 0
5, 80909, Note_on_c, 3, 72, 0
5, 80910, Note_on_c, 3, 79, 0
5, 80911, Note_on_c, 3, 76, 0
5, 81033, Note_on_c, 3, 76, 117
5, 81033, Note_on_c, 3, 79, 114
5, 81033, Note_on_c, 3, 82, 106
5, 81034, Note_on_c, 3, 72, 98
5, 81053, Note_on_c, 3, 72, 0
5, 81058, Note_on_c, 3, 79, 0
5, 81059, Note_on_c, 3, 76, 0
5, 81060, Note_on_c, 3, 82, 0
5, 81165, Note_on_c, 3, 76, 117
5, 81165, Note_on_c, 3, 79, 114
5, 81166, Note_on_c, 3, 72, 102
5, 81166, Note_on_c, 3, 82, 106
5, 81190, Note_on_c, 3, 72, 0
5, 81191, Note_on_c, 3, 76, 0
5, 81191, Note_on_c, 3, 79, 0
5, 81192, Note_on_c, 3, 82, 0
5, 81308, Note_on_c, 3, 72, 107
5, 81308, Note_on_c, 3, 76, 117
5, 81308, Note_on_c, 3, 79, 117
5, 81308, Note_on_c, 3, 82, 106
5, 81323, Channel_aftertouch_c, 3, 0
5, 81334, Note_on_c, 3, 72, 0
5, 81334, Note_on_c, 3, 82, 0
5, 81335, Note_on_c, 3, 76, 0
5, 81335, Note_on_c, 3, 79, 0
5, 81587, Note_on_c, 3, 84, 114
5, 81588, Note_on_c, 3, 72, 107
5, 81610, Note_on_c, 3, 72, 0
5, 81615, Channel_aftertouch_c, 3, 0
5, 81631, Note_on_c, 3, 72, 96
5, 81653, Channel_aftertouch_c, 3, 8
5, 81665, Note_on_c, 3, 72, 0
5, 81665, Note_on_c, 3, 84, 0
5, 81676, Channel_aftertouch_c, 3, 0
5, 81784, Note_on_c, 3, 84, 111
5, 81785, Note_on_c, 3, 72, 114
5, 81798, Channel_aftertouch_c, 3, 8
5, 81811, Note_on_c, 3, 72, 0
5, 81821, Channel_aftertouch_c, 3, 0
5, 81822, Note_on_c, 3, 84, 0
5, 81927, Note_on_c, 3, 72, 117
5, 81927, Note_on_c, 3, 84, 114
5, 81949, Channel_aftertouch_c, 3, 9
5, 81956, Note_on_c, 3, 72, 0
5, 81962, Note_on_c, 3, 84, 0
5, 81972, Channel_aftertouch_c, 3, 0
5, 82067, Note_on_c, 3, 84, 114
5, 82073, Note_on_c, 3, 72, 111
5, 82094, Channel_aftertouch_c, 3, 9
5, 82101, Note_on_c, 3, 72, 0
5, 82113, Note_on_c, 3, 84, 0
5, 82118, Channel_aftertouch_c, 3, 0
5, 82372, Note_on_c, 3, 72, 102
5, 82372, Note_on_c, 3, 76, 114
5, 82373, Note_on_c, 3, 82, 96
5, 82396, Note_on_c, 3, 76, 0
5, 82396, Note_on_c, 3, 82, 0
5, 82397, Note_on_c, 3, 72, 0
5, 82408, Note_on_c, 3, 76, 84
5, 82408, Note_on_c, 3, 82, 65
5, 82415, Note_on_c, 3, 72, 85
5, 82441, Note_on_c, 3, 76, 0
5, 82442, Note_on_c, 3, 72, 0
5, 82443, Note_on_c, 3, 82, 0
5, 82562, Channel_aftertouch_c, 3, 0
5, 82563, Note_on_c, 3, 76, 117
5, 82564, Note_on_c, 3, 72, 117
5, 82564, Note_on_c, 3, 82, 117
5, 82585, Channel_aftertouch_c, 3, 0
5, 82586, Note_on_c, 3, 72, 0
5, 82592, Note_on_c, 3, 76, 0
5, 82597, Note_on_c, 3, 82, 0
5, 82698, Note_on_c, 3, 72, 117
5, 82698, Note_on_c, 3, 76, 117
5, 82698, Note_on_c, 3, 82, 114
5, 82722, Channel_aftertouch_c, 3, 0
5, 82723, Note_on_c, 3, 72, 0
5, 82723, Note_on_c, 3, 76, 0
5, 82729, Note_on_c, 3, 82, 0
5, 82844, Note_on_c, 3, 72, 114
5, 82844, Note_on_c, 3, 76, 117
5, 82844, Note_on_c, 3, 82, 114
5, 82870, Channel_aftertouch_c, 3, 0
5, 82871, Note_on_c, 3, 72, 0
5, 82877, Note_on_c, 3, 76, 0
5, 82882, Note_on_c, 3, 82, 0
5, 83128, Note_on_c, 3, 84, 114
5, 83129, Note_on_c, 3, 72, 117
5, 83143, Channel_aftertouch_c, 3, 6
5, 83150, Note_on_c, 3, 72, 0
5, 83161, Note_on_c, 3, 84, 0
5, 83166, Channel_aftertouch_c, 3, 0
5, 83172, Note_on_c, 3, 84, 64
5, 83178, Note_on_c, 3, 72, 95
5, 83189, Channel_aftertouch_c, 3, 7
5, 83207, Note_on_c, 3, 72, 0
5, 83207, Note_on_c, 3, 84, 0
5, 83218, Channel_aftertouch_c, 3, 0
5, 83322, Note_on_c, 3, 84, 117
5, 83323, Note_on_c, 3, 72, 117
5, 83335, Channel_aftertouch_c, 3, 9
5, 83352, Note_on_c, 3, 72, 0
5, 83358, Note_on_c, 3, 84, 0
5, 83363, Channel_aftertouch_c, 3, 0
5, 83467, Note_on_c, 3, 72, 117
5, 83467, Note_on_c, 3, 84, 114
5, 83490, Channel_aftertouch_c, 3, 11
5, 83497, Note_on_c, 3, 72, 0
5, 83502, Note_on_c, 3, 84, 0
5, 83513, Channel_aftertouch_c, 3, 0
5, 83607, Note_on_c, 3, 84, 107
5, 83608, Note_on_c, 3, 72, 114
5, 83626, Channel_aftertouch_c, 3, 7
5, 83639, Note_on_c, 3, 72, 0
5, 83649, Channel_aftertouch_c, 3, 0
5, 83650, Note_on_c, 3, 84, 0
5, 83901, Note_on_c, 3, 72, 107
5, 83901, Note_on_c, 3, 76, 117
5, 83902, Note_on_c, 3, 82, 110
5, 83925, Note_on_c, 3, 72, 0
5, 83925, Note_on_c, 3, 76, 0
5, 83925, Note_on_c, 3, 82, 0
5, 83941, Note_on_c, 3, 72, 88
5, 83942, Note_on_c, 3, 76, 95
5, 83942, Note_on_c, 3, 82, 69
5, 83971, Note_on_c, 3, 72, 0
5, 83971, Note_on_c, 3, 76, 0
5, 83971, Note_on_c, 3, 82, 0
5, 84092, Note_on_c, 3, 72, 107
5, 84092, Note_on_c, 3, 76, 117
5, 84093, Note_on_c, 3, 82, 110
5, 84116, Note_on_c, 3, 72, 0
5, 84121, Note_on_c, 3, 76, 0
5, 84127, Note_on_c, 3, 82, 0
5, 84232, Note_on_c, 3, 76, 117
5, 84232, Note_on_c, 3, 82, 102
5, 84233, Note_on_c, 3, 72, 111
5, 84250, Channel_aftertouch_c, 3, 0
5, 84257, Note_on_c, 3, 72, 0
5, 84257, Note_on_c, 3, 76, 0
5, 84257, Note_on_c, 3, 82, 0
5, 84377, Note_on_c, 3, 76, 117
5, 84377, Note_on_c, 3, 82, 114
5, 84378, Note_on_c, 3, 72, 111
5, 84396, Channel_aftertouch_c, 3, 0
5, 84402, Note_on_c, 3, 72, 0
5, 84408, Note_on_c, 3, 76, 0
5, 84418, Note_on_c, 3, 82, 0
5, 84663, Note_on_c, 3, 72, 109
5, 84663, Note_on_c, 3, 76, 117
5, 84663, Note_on_c, 3, 82, 110
5, 84683, Note_on_c, 3, 82, 0
5, 84684, Note_on_c, 3, 72, 0
5, 84684, Note_on_c, 3, 76, 0
5, 84705, Note_on_c, 3, 76, 98
5, 84706, Note_on_c, 3, 72, 90
5, 84706, Note_on_c, 3, 82, 69
5, 84735, Note_on_c, 3, 72, 0
5, 84735, Note_on_c, 3, 76, 0
5, 84736, Note_on_c, 3, 82, 0
5, 84862, Note_on_c, 3, 72, 107
5, 84862, Note_on_c, 3, 76, 114
5, 84862, Note_on_c, 3, 82, 106
5, 84893, Note_on_c, 3, 72, 0
5, 84893, Note_on_c, 3, 76, 0
5, 84893, Note_on_c, 3, 82, 0
5, 85003, Note_on_c, 3, 82, 106
5, 85004, Note_on_c, 3, 72, 111
5, 85005, Note_on_c, 3, 76, 117
5, 85028, Note_on_c, 3, 72, 0
5, 85028, Note_on_c, 3, 76, 0
5, 85029, Note_on_c, 3, 82, 0
5, 85143, Note_on_c, 3, 82, 110
5, 85144, Note_on_c, 3, 72, 111
5, 85144, Note_on_c, 3, 76, 117
5, 85167, Channel_aftertouch_c, 3, 0
5, 85178, Note_on_c, 3, 72, 0
5, 85178, Note_on_c, 3, 76, 0
5, 85190, Note_on_c, 3, 82, 0
5, 85444, Note_on_c, 3, 76, 117
5, 85445, Note_on_c, 3, 72, 114
5, 85446, Note_on_c, 3, 82, 114
5, 85468, Note_on_c, 3, 82, 0
5, 85469, Note_on_c, 3, 72, 0
5, 85469, Note_on_c, 3, 76, 0
5, 85480, Note_on_c, 3, 82, 67
5, 85481, Note_on_c, 3, 76, 84
5, 85488, Note_on_c, 3, 72, 85
5, 85509, Note_on_c, 3, 76, 0
5, 85510, Note_on_c, 3, 72, 0
5, 85510, Note_on_c, 3, 82, 0
5, 85636, Note_on_c, 3, 72, 114
5, 85636, Note_on_c, 3, 76, 117
5, 85637, Note_on_c, 3, 82, 117
5, 85657, Channel_aftertouch_c, 3, 0
5, 85663, Note_on_c, 3, 72, 0
5, 85663, Note_on_c, 3, 76, 0
5, 85670, Note_on_c, 3, 82, 0
5, 85780, Note_on_c, 3, 72, 114
5, 85780, Note_on_c, 3, 76, 117
5, 85780, Note_on_c, 3, 82, 110
5, 85801, Channel_aftertouch_c, 3, 0
5, 85807, Note_on_c, 3, 72, 0
5, 85808, Note_on_c, 3, 76, 0
5, 85808, Note_on_c, 3, 82, 0
5, 85919, Note_on_c, 3, 72, 117
5, 85919, Note_on_c, 3, 76, 117
5, 85919, Note_on_c, 3, 82, 114
5, 85945, Channel_aftertouch_c, 3, 0
5, 85946, Note_on_c, 3, 72, 0
5, 85947, Note_on_c, 3, 76, 0
5, 85957, Note_on_c, 3, 82, 0
5, 86195, Note_on_c, 3, 72, 111
5, 86195, Note_on_c, 3, 76, 117
5, 86195, Note_on_c, 3, 82, 114
5, 86215, Note_on_c, 3, 72, 0
5, 86221, Note_on_c, 3, 76, 0
5, 86221, Note_on_c, 3, 82, 0
5, 86237, Note_on_c, 3, 82, 64
5, 86238, Note_on_c, 3, 76, 96
5, 86245, Note_on_c, 3, 72, 89
5, 86267, Note_on_c, 3, 72, 0
5, 86267, Note_on_c, 3, 76, 0
5, 86267, Note_on_c, 3, 82, 0
5, 86399, Note_on_c, 3, 82, 110
5, 86400, Note_on_c, 3, 76, 111
5, 86409, Note_on_c, 3, 72, 92
5, 86419, Note_on_c, 3, 72, 0
5, 86426, Note_on_c, 3, 76, 0
5, 86427, Note_on_c, 3, 82, 0
5, 86538, Note_on_c, 3, 76, 117
5, 86538, Note_on_c, 3, 82, 106
5, 86539, Note_on_c, 3, 72, 117
5, 86560, Channel_aftertouch_c, 3, 0
5, 86565, Note_on_c, 3, 72, 0
5, 86566, Note_on_c, 3, 76, 0
5, 86567, Note_on_c, 3, 82, 0
5, 86687, Note_on_c, 3, 76, 117
5, 86687, Note_on_c, 3, 82, 110
5, 86695, Note_on_c, 3, 72, 111
5, 86709, Channel_aftertouch_c, 3, 0
5, 86716, Note_on_c, 3, 72, 0
5, 86722, Note_on_c, 3, 76, 0
5, 86728, Note_on_c, 3, 82, 0
5, 86951, Note_on_c, 3, 72, 71
5, 86971, Note_on_c, 3, 72, 0
5, 86977, Note_on_c, 3, 84, 96
5, 86990, Note_on_c, 3, 84, 0
5, 86996, Note_on_c, 3, 72, 75
5, 87022, Note_on_c, 3, 72, 0
5, 87023, Note_on_c, 3, 84, 83
5, 87035, Note_on_c, 3, 84, 0
5, 87042, Note_on_c, 3, 72, 76
5, 87063, Note_on_c, 3, 72, 0
5, 87069, Note_on_c, 3, 84, 107
5, 87086, Note_on_c, 3, 84, 0
5, 87092, Note_on_c, 3, 72, 73
5, 87113, Note_on_c, 3, 72, 0
5, 87119, Note_on_c, 3, 84, 109
5, 87130, Note_on_c, 3, 84, 0
5, 87142, Note_on_c, 3, 72, 79
5, 87158, Note_on_c, 3, 72, 0
5, 87164, Note_on_c, 3, 84, 111
5, 87180, Note_on_c, 3, 84, 0
5, 87187, Note_on_c, 3, 72, 83
5, 87208, Note_on_c, 3, 72, 0
5, 87214, Note_on_c, 3, 84, 114
5, 87225, Note_on_c, 3, 84, 0
5, 87236, Note_on_c, 3, 72, 90
5, 87252, Note_on_c, 3, 72, 0
5, 87259, Note_on_c, 3, 84, 109
5, 87275, Note_on_c, 3, 84, 0
5, 87286, Note_on_c, 3, 72, 86
5, 87302, Note_on_c, 3, 72, 0
5, 87308, Note_on_c, 3, 84, 117
5, 87325, Note_on_c, 3, 84, 0
5, 87331, Note_on_c, 3, 72, 88
5, 87352, Note_on_c, 3, 72, 0
5, 87358, Note_on_c, 3, 84, 114
5, 87369, Note_on_c, 3, 84, 0
5, 87380, Note_on_c, 3, 72, 89
5, 87401, Note_on_c, 3, 72, 0
5, 87408, Note_on_c, 3, 84, 111
5, 87419, Note_on_c, 3, 84, 0
5, 87425, Note_on_c, 3, 72, 84
5, 87447, Note_on_c, 3, 72, 0
5, 87453, Note_on_c, 3, 84, 117
5, 87469, Note_on_c, 3, 84, 0
5, 87475, Note_on_c, 3, 72, 85
5, 87496, Note_on_c, 3, 72, 0
5, 87503, Note_on_c, 3, 84, 117
5, 87514, Note_on_c, 3, 84, 0
5, 87525, Note_on_c, 3, 72, 75
5, 87536, Note_on_c, 3, 72, 0
5, 87548, Note_on_c, 3, 84, 109
5, 87564, Note_on_c, 3, 84, 0
5, 87575, Note_on_c, 3, 72, 76
5, 87586, Note_on_c, 3, 72, 0
5, 87597, Note_on_c, 3, 84, 111
5, 87609, Note_on_c, 3, 84, 0
5, 87620, Note_on_c, 3, 72, 89
5, 87636, Note_on_c, 3, 72, 0
5, 87642, Note_on_c, 3, 84, 107
5, 87659, Note_on_c, 3, 84, 0
5, 87670, Note_on_c, 3, 72, 78
5, 87686, Note_on_c, 3, 72, 0
5, 87692, Note_on_c, 3, 84, 117
5, 87703, Note_on_c, 3, 84, 0
5, 87719, Note_on_c, 3, 72, 76
5, 87731, Note_on_c, 3, 72, 0
5, 87742, Note_on_c, 3, 84, 100
5, 87753, Note_on_c, 3, 84, 0
5, 87764, Note_on_c, 3, 72, 84
5, 87781, Note_on_c, 3, 72, 0
5, 87787, Note_on_c, 3, 84, 117
5, 87803, Note_on_c, 3, 84, 0
5, 87814, Note_on_c, 3, 72, 76
5, 87830, Note_on_c, 3, 72, 0
5, 87836, Note_on_c, 3, 84, 111
5, 87853, Note_on_c, 3, 84, 0
5, 87864, Note_on_c, 3, 72, 72
5, 87880, Note_on_c, 3, 72, 0
5, 87886, Note_on_c, 3, 84, 109
5, 87898, Note_on_c, 3, 84, 0
5, 87909, Note_on_c, 3, 72, 88
5, 87930, Note_on_c, 3, 72, 0
5, 87941, Note_on_c, 3, 84, 93
5, 87949, Note_on_c, 3, 84, 0
5, 87961, Note_on_c, 3, 72, 74
5, 87977, Note_on_c, 3, 72, 0
5, 87983, Note_on_c, 3, 84, 114
5, 87996, Note_on_c, 3, 84, 0
5, 88013, Note_on_c, 3, 72, 70
5, 88024, Note_on_c, 3, 72, 0
5, 88035, Note_on_c, 3, 84, 89
5, 88049, Note_on_c, 3, 84, 0
5, 88059, Note_on_c, 3, 72, 86
5, 88076, Note_on_c, 3, 72, 0
5, 88087, Note_on_c, 3, 84, 102
5, 88099, Note_on_c, 3, 84, 0
5, 88110, Note_on_c, 3, 72, 79
5, 88126, Note_on_c, 3, 72, 0
5, 88132, Note_on_c, 3, 84, 109
5, 88149, Note_on_c, 3, 84, 0
5, 88160, Note_on_c, 3, 72, 76
5, 88176, Note_on_c, 3, 72, 0
5, 88182, Note_on_c, 3, 84, 111
5, 88198, Note_on_c, 3, 84, 0
5, 88210, Note_on_c, 3, 72, 69
5, 88226, Note_on_c, 3, 72, 0
5, 88237, Note_on_c, 3, 84, 109
5, 88248, Note_on_c, 3, 84, 0
5, 88260, Note_on_c, 3, 72, 68
5, 88276, Note_on_c, 3, 72, 0
5, 88287, Note_on_c, 3, 84, 111
5, 88298, Note_on_c, 3, 84, 0
5, 88320, Note_on_c, 3, 72, 85
5, 88337, Note_on_c, 3, 72, 0
5, 88337, Note_on_c, 3, 84, 100
5, 88348, Note_on_c, 3, 84, 0
5, 88359, Note_on_c, 3, 72, 84
5, 88381, Note_on_c, 3, 72, 0
5, 88386, Note_on_c, 3, 84, 104
5, 88400, Note_on_c, 3, 84, 0
5, 88416, Note_on_c, 3, 72, 64
5, 88427, Note_on_c, 3, 72, 0
5, 88438, Note_on_c, 3, 84, 107
5, 88450, Note_on_c, 3, 84, 0
5, 88461, Note_on_c, 3, 72, 75
5, 88483, Note_on_c, 3, 72, 0
5, 88494, Note_on_c, 3, 84, 93
5, 88499, Note_on_c, 3, 84, 0
5, 88512, Note_on_c, 3, 72, 70
5, 88529, Note_on_c, 3, 72, 0
5, 88536, Note_on_c, 3, 84, 114
5, 88553, Note_on_c, 3, 84, 0
5, 88560, Note_on_c, 3, 72, 100
5, 88571, Note_on_c, 3, 72, 0
5, 88585, Note_on_c, 3, 84, 79
5, 88606, Note_on_c, 3, 84, 0
5, 88608, Note_on_c, 3, 72, 79
5, 88631, Note_on_c, 3, 72, 0
5, 88632, Note_on_c, 3, 84, 79
5, 88655, Note_on_c, 3, 84, 0
5, 88656, Note_on_c, 3, 72, 84
5, 88677, Note_on_c, 3, 72, 0
5, 88680, Note_on_c, 3, 84, 109
5, 88700, Note_on_c, 3, 84, 0
5, 88704, Note_on_c, 3, 72, 67
5, 88720, Note_on_c, 3, 72, 0
5, 88728, Note_on_c, 3, 84, 95
5, 88739, Note_on_c, 3, 84, 0
5, 88752, Note_on_c, 3, 72, 68
5, 88768, Note_on_c, 3, 72, 0
5, 88776, Note_on_c, 3, 84, 111
5, 88792, Note_on_c, 3, 84, 0
5, 88800, Note_on_c, 3, 72, 78
5, 88821, Note_on_c, 3, 72, 0
5, 88824, Note_on_c, 3, 84, 107
5, 88840, Note_on_c, 3, 84, 0
5, 88848, Note_on_c, 3, 72, 107
5, 88871, Note_on_c, 3, 72, 0
5, 88872, Note_on_c, 3, 84, 107
5, 88895, Note_on_c, 3, 84, 0
5, 88896, Note_on_c, 3, 72, 51
5, 88903, Note_on_c, 3, 72, 0
5, 88920, Note_on_c, 3, 84, 65
5, 88931, Note_on_c, 3, 84, 0
5, 88944, Note_on_c, 3, 72, 104
5, 88961, Note_on_c, 3, 72, 0
5, 88970, Note_on_c, 3, 84, 76
5, 88992, Note_on_c, 3, 72, 109
5, 88992, Note_on_c, 3, 84, 0
5, 89008, Note_on_c, 3, 72, 0
5, 89017, Note_on_c, 3, 84, 76
5, 89033, Note_on_c, 3, 84, 0
5, 89040, Note_on_c, 3, 72, 104
5, 89057, Note_on_c, 3, 72, 0
5, 89064, Note_on_c, 3, 84, 104
5, 89087, Note_on_c, 3, 84, 0
5, 89089, Note_on_c, 3, 72, 88
5, 89089, Note_on_c, 3, 84, 114
5, 89099, Note_on_c, 3, 84, 0
5, 89111, Note_on_c, 3, 72, 0
5, 89111, End_track
6, 0, Start_track
6, 0, Channel_prefix, 4
6, 0, Text_t, "sax     "
6, 48, Text_t, "sax"
6, 6806, Note_on_c, 4, 58, 127
6, 6832, Channel_aftertouch_c, 4, 6
6, 6857, Channel_aftertouch_c, 4, 8
6, 6883, Channel_aftertouch_c, 4, 15
6, 6895, Note_on_c, 4, 60, 127
6, 6910, Channel_aftertouch_c, 4, 13
6, 6917, Note_on_c, 4, 58, 0
6, 6937, Channel_aftertouch_c, 4, 13
6, 6964, Channel_aftertouch_c, 4, 0
6, 6965, Note_on_c, 4, 60, 0
6, 8339, Note_on_c, 4, 58, 127
6, 8354, Channel_aftertouch_c, 4, 6
6, 8377, Channel_aftertouch_c, 4, 0
6, 8428, Note_on_c, 4, 58, 0
6, 8438, Note_on_c, 4, 60, 127
6, 8444, Channel_aftertouch_c, 4, 0
6, 8470, Channel_aftertouch_c, 4, 10
6, 8487, Note_on_c, 4, 60, 0
6, 8498, Channel_aftertouch_c, 4, 0
6, 9871, Note_on_c, 4, 58, 127
6, 9887, Channel_aftertouch_c, 4, 2
6, 9913, Channel_aftertouch_c, 4, 0
6, 9949, Channel_aftertouch_c, 4, 6
6, 9975, Channel_aftertouch_c, 4, 4
6, 9976, Note_on_c, 4, 60, 127
6, 9993, Note_on_c, 4, 58, 0
6, 10008, Channel_aftertouch_c, 4, 11
6, 10034, Channel_aftertouch_c, 4, 0
6, 10036, Note_on_c, 4, 60, 0
6, 11409, Note_on_c, 4, 51, 127
6, 11419, Channel_aftertouch_c, 4, 0
6, 11445, Channel_aftertouch_c, 4, 0
6, 11480, Channel_aftertouch_c, 4, 1
6, 11505, Channel_aftertouch_c, 4, 0
6, 11511, Note_on_c, 4, 53, 127
6, 11528, Note_on_c, 4, 51, 0
6, 11538, Channel_aftertouch_c, 4, 5
6, 11564, Channel_aftertouch_c, 4, 0
6, 11575, Note_on_c, 4, 53, 0
6, 12942, Note_on_c, 4, 51, 127
6, 12964, Channel_aftertouch_c, 4, 5
6, 12994, Channel_aftertouch_c, 4, 5
6, 13021, Channel_aftertouch_c, 4, 14
6, 13032, Note_on_c, 4, 53, 121
6, 13048, Channel_aftertouch_c, 4, 9
6, 13054, Note_on_c, 4, 51, 0
6, 13094, Channel_aftertouch_c, 4, 0
6, 13101, Note_on_c, 4, 53, 0
6, 15249, Note_on_c, 4, 58, 124
6, 15275, Channel_aftertouch_c, 4, 5
6, 15311, Channel_aftertouch_c, 4, 9
6, 15337, Channel_aftertouch_c, 4, 17
6, 15354, Note_on_c, 4, 60, 127
6, 15369, Channel_aftertouch_c, 4, 13
6, 15370, Note_on_c, 4, 58, 0
6, 15396, Channel_aftertouch_c, 4, 12
6, 15423, Channel_aftertouch_c, 4, 0
6, 15424, Note_on_c, 4, 60, 0
6, 16796, Note_on_c, 4, 58, 119
6, 16821, Channel_aftertouch_c, 4, 1
6, 16861, Channel_aftertouch_c, 4, 3
6, 16878, Note_on_c, 4, 60, 127
6, 16895, Note_on_c, 4, 58, 0
6, 16899, Channel_aftertouch_c, 4, 7
6, 16925, Channel_aftertouch_c, 4, 9
6, 16952, Channel_aftertouch_c, 4, 0
6, 16953, Note_on_c, 4, 60, 0
6, 17662, Channel_aftertouch_c, 4, 15
6, 17664, Note_on_c, 4, 55, 127
6, 17688, Channel_aftertouch_c, 4, 17
6, 17733, Channel_aftertouch_c, 4, 21
6, 17758, Channel_aftertouch_c, 4, 23
6, 17802, Channel_aftertouch_c, 4, 24
6, 17832, Channel_aftertouch_c, 4, 25
6, 17862, Channel_aftertouch_c, 4, 27
6, 17917, Channel_aftertouch_c, 4, 29
6, 17952, Channel_aftertouch_c, 4, 31
6, 18035, Channel_aftertouch_c, 4, 33
6, 18119, Channel_aftertouch_c, 4, 34
6, 18178, Channel_aftertouch_c, 4, 35
6, 18217, Channel_aftertouch_c, 4, 36
6, 18296, Channel_aftertouch_c, 4, 37
6, 18335, Channel_aftertouch_c, 4, 38
6, 18419, Channel_aftertouch_c, 4, 39
6, 18468, Channel_aftertouch_c, 4, 40
6, 18503, Channel_aftertouch_c, 4, 41
6, 18552, Channel_aftertouch_c, 4, 39
6, 18578, Channel_aftertouch_c, 4, 36
6, 18609, Channel_aftertouch_c, 4, 31
6, 18639, Channel_aftertouch_c, 4, 28
6, 18734, Channel_aftertouch_c, 4, 18
6, 18761, Channel_aftertouch_c, 4, 0
6, 18770, Note_on_c, 4, 55, 0
6, 18807, Note_on_c, 4, 55, 127
6, 18833, Channel_aftertouch_c, 4, 23
6, 18860, Channel_aftertouch_c, 4, 12
6, 18891, Channel_aftertouch_c, 4, 16
6, 18926, Channel_aftertouch_c, 4, 13
6, 18943, Note_on_c, 4, 55, 0
6, 18953, Channel_aftertouch_c, 4, 0
6, 18993, Note_on_c, 4, 54, 114
6, 19062, Channel_aftertouch_c, 4, 0
6, 19116, Channel_aftertouch_c, 4, 0
6, 19137, Note_on_c, 4, 54, 0
6, 19181, Note_on_c, 4, 53, 117
6, 19208, Channel_aftertouch_c, 4, 11
6, 19282, Channel_aftertouch_c, 4, 9
6, 19308, Channel_aftertouch_c, 4, 0
6, 19310, Note_on_c, 4, 53, 0
6, 21657, Note_on_c, 4, 55, 114
6, 21688, Note_on_c, 4, 60, 92
6, 21694, Note_on_c, 4, 55, 0
6, 21740, Note_on_c, 4, 58, 91
6, 21745, Note_on_c, 4, 60, 0
6, 21775, Note_on_c, 4, 55, 86
6, 21786, Note_on_c, 4, 58, 0
6, 21827, Note_on_c, 4, 55, 0
6, 21862, Note_on_c, 4, 58, 119
6, 21877, Channel_aftertouch_c, 4, 0
6, 21903, Channel_aftertouch_c, 4, 0
6, 21973, Note_on_c, 4, 60, 102
6, 21979, Note_on_c, 4, 58, 0
6, 22004, Channel_aftertouch_c, 4, 0
6, 22015, Note_on_c, 4, 58, 102
6, 22026, Note_on_c, 4, 60, 0
6, 22046, Channel_aftertouch_c, 4, 0
6, 22047, Note_on_c, 4, 60, 82
6, 22057, Note_on_c, 4, 58, 0
6, 22078, Note_on_c, 4, 60, 0
6, 22406, Note_on_c, 4, 55, 86
6, 22447, Note_on_c, 4, 55, 0
6, 22452, Note_on_c, 4, 60, 89
6, 22488, Note_on_c, 4, 58, 83
6, 22494, Note_on_c, 4, 60, 0
6, 22538, Note_on_c, 4, 55, 98
6, 22544, Note_on_c, 4, 58, 0
6, 22584, Note_on_c, 4, 55, 0
6, 22639, Note_on_c, 4, 60, 102
6, 22738, Note_on_c, 4, 58, 67
6, 22749, Note_on_c, 4, 60, 0
6, 22779, Note_on_c, 4, 55, 81
6, 22785, Note_on_c, 4, 58, 0
6, 22820, Note_on_c, 4, 52, 84
6, 22825, Note_on_c, 4, 55, 0
6, 22870, Note_on_c, 4, 52, 0
6, 22876, Note_on_c, 4, 55, 98
6, 22911, Note_on_c, 4, 55, 0
6, 22922, Note_on_c, 4, 48, 98
6, 22967, Note_on_c, 4, 48, 0
6, 23241, Channel_aftertouch_c, 4, 0
6, 23605, Channel_aftertouch_c, 4, 3
6, 23631, Channel_aftertouch_c, 4, 0
6, 23799, Channel_aftertouch_c, 4, 1
6, 43670, Note_on_c, 4, 58, 127
6, 43696, Channel_aftertouch_c, 4, 6
6, 43721, Channel_aftertouch_c, 4, 8
6, 43747, Channel_aftertouch_c, 4, 15
6, 43759, Note_on_c, 4, 60, 127
6, 43774, Channel_aftertouch_c, 4, 13
6, 43781, Note_on_c, 4, 58, 0
6, 43801, Channel_aftertouch_c, 4, 13
6, 43828, Channel_aftertouch_c, 4, 0
6, 43829, Note_on_c, 4, 60, 0
6, 45203, Note_on_c, 4, 58, 127
6, 45218, Channel_aftertouch_c, 4, 6
6, 45241, Channel_aftertouch_c, 4, 0
6, 45292, Note_on_c, 4, 58, 0
6, 45302, Note_on_c, 4, 60, 127
6, 45308, Channel_aftertouch_c, 4, 0
6, 45334, Channel_aftertouch_c, 4, 10
6, 45351, Note_on_c, 4, 60, 0
6, 45362, Channel_aftertouch_c, 4, 0
6, 46735, Note_on_c, 4, 58, 127
6, 46751, Channel_aftertouch_c, 4, 2
6, 46777, Channel_aftertouch_c, 4, 0
6, 46813, Channel_aftertouch_c, 4, 6
6, 46839, Channel_aftertouch_c, 4, 4
6, 46840, Note_on_c, 4, 60, 127
6, 46857, Note_on_c, 4, 58, 0
6, 46872, Channel_aftertouch_c, 4, 11
6, 46898, Channel_aftertouch_c, 4, 0
6, 46900, Note_on_c, 4, 60, 0
6, 48273, Note_on_c, 4, 51, 127
6, 48283, Channel_aftertouch_c, 4, 0
6, 48309, Channel_aftertouch_c, 4, 0
6, 48344, Channel_aftertouch_c, 4, 1
6, 48369, Channel_aftertouch_c, 4, 0
6, 48375, Note_on_c, 4, 53, 127
6, 48392, Note_on_c, 4, 51, 0
6, 48402, Channel_aftertouch_c, 4, 5
6, 48428, Channel_aftertouch_c, 4, 0
6, 48439, Note_on_c, 4, 53, 0
6, 49806, Note_on_c, 4, 51, 127
6, 49828, Channel_aftertouch_c, 4, 5
6, 49858, Channel_aftertouch_c, 4, 5
6, 49885, Channel_aftertouch_c, 4, 14
6, 49896, Note_on_c, 4, 53, 121
6, 49912, Channel_aftertouch_c, 4, 9
6, 49918, Note_on_c, 4, 51, 0
6, 49958, Channel_aftertouch_c, 4, 0
6, 49965, Note_on_c, 4, 53, 0
6, 52113, Note_on_c, 4, 58, 124
6, 52139, Channel_aftertouch_c, 4, 5
6, 52175, Channel_aftertouch_c, 4, 9
6, 52201, Channel_aftertouch_c, 4, 17
6, 52218, Note_on_c, 4, 60, 127
6, 52233, Channel_aftertouch_c, 4, 13
6, 52234, Note_on_c, 4, 58, 0
6, 52260, Channel_aftertouch_c, 4, 12
6, 52287, Channel_aftertouch_c, 4, 0
6, 52288, Note_on_c, 4, 60, 0
6, 53660, Note_on_c, 4, 58, 119
6, 53685, Channel_aftertouch_c, 4, 1
6, 53725, Channel_aftertouch_c, 4, 3
6, 53742, Note_on_c, 4, 60, 127
6, 53759, Note_on_c, 4, 58, 0
6, 53763, Channel_aftertouch_c, 4, 7
6, 53789, Channel_aftertouch_c, 4, 9
6, 53816, Channel_aftertouch_c, 4, 0
6, 53817, Note_on_c, 4, 60, 0
6, 54526, Channel_aftertouch_c, 4, 15
6, 54528, Note_on_c, 4, 55, 127
6, 54552, Channel_aftertouch_c, 4, 17
6, 54597, Channel_aftertouch_c, 4, 21
6, 54622, Channel_aftertouch_c, 4, 23
6, 54666, Channel_aftertouch_c, 4, 24
6, 54696, Channel_aftertouch_c, 4, 25
6, 54726, Channel_aftertouch_c, 4, 27
6, 54781, Channel_aftertouch_c, 4, 29
6, 54816, Channel_aftertouch_c, 4, 31
6, 54899, Channel_aftertouch_c, 4, 33
6, 54983, Channel_aftertouch_c, 4, 34
6, 55042, Channel_aftertouch_c, 4, 35
6, 55081, Channel_aftertouch_c, 4, 36
6, 55160, Channel_aftertouch_c, 4, 37
6, 55199, Channel_aftertouch_c, 4, 38
6, 55283, Channel_aftertouch_c, 4, 39
6, 55332, Channel_aftertouch_c, 4, 40
6, 55367, Channel_aftertouch_c, 4, 41
6, 55416, Channel_aftertouch_c, 4, 39
6, 55442, Channel_aftertouch_c, 4, 36
6, 55473, Channel_aftertouch_c, 4, 31
6, 55503, Channel_aftertouch_c, 4, 28
6, 55598, Channel_aftertouch_c, 4, 18
6, 55625, Channel_aftertouch_c, 4, 0
6, 55634, Note_on_c, 4, 55, 0
6, 55671, Note_on_c, 4, 55, 127
6, 55697, Channel_aftertouch_c, 4, 23
6, 55724, Channel_aftertouch_c, 4, 12
6, 55755, Channel_aftertouch_c, 4, 16
6, 55790, Channel_aftertouch_c, 4, 13
6, 55807, Note_on_c, 4, 55, 0
6, 55817, Channel_aftertouch_c, 4, 0
6, 55857, Note_on_c, 4, 54, 114
6, 55926, Channel_aftertouch_c, 4, 0
6, 55980, Channel_aftertouch_c, 4, 0
6, 56001, Note_on_c, 4, 54, 0
6, 56045, Note_on_c, 4, 53, 117
6, 56072, Channel_aftertouch_c, 4, 11
6, 56146, Channel_aftertouch_c, 4, 9
6, 56172, Channel_aftertouch_c, 4, 0
6, 56174, Note_on_c, 4, 53, 0
6, 58521, Note_on_c, 4, 55, 114
6, 58552, Note_on_c, 4, 60, 92
6, 58558, Note_on_c, 4, 55, 0
6, 58604, Note_on_c, 4, 58, 91
6, 58609, Note_on_c, 4, 60, 0
6, 58639, Note_on_c, 4, 55, 86
6, 58650, Note_on_c, 4, 58, 0
6, 58691, Note_on_c, 4, 55, 0
6, 58726, Note_on_c, 4, 58, 119
6, 58741, Channel_aftertouch_c, 4, 0
6, 58767, Channel_aftertouch_c, 4, 0
6, 58837, Note_on_c, 4, 60, 102
6, 58843, Note_on_c, 4, 58, 0
6, 58868, Channel_aftertouch_c, 4, 0
6, 58879, Note_on_c, 4, 58, 102
6, 58890, Note_on_c, 4, 60, 0
6, 58910, Channel_aftertouch_c, 4, 0
6, 58911, Note_on_c, 4, 60, 82
6, 58921, Note_on_c, 4, 58, 0
6, 58942, Note_on_c, 4, 60, 0
6, 59270, Note_on_c, 4, 55, 86
6, 59311, Note_on_c, 4, 55, 0
6, 59316, Note_on_c, 4, 60, 89
6, 59352, Note_on_c, 4, 58, 83
6, 59358, Note_on_c, 4, 60, 0
6, 59402, Note_on_c, 4, 55, 98
6, 59408, Note_on_c, 4, 58, 0
6, 59448, Note_on_c, 4, 55, 0
6, 59503, Note_on_c, 4, 60, 102
6, 59602, Note_on_c, 4, 58, 67
6, 59613, Note_on_c, 4, 60, 0
6, 59643, Note_on_c, 4, 55, 81
6, 59649, Note_on_c, 4, 58, 0
6, 59684, Note_on_c, 4, 52, 84
6, 59689, Note_on_c, 4, 55, 0
6, 59734, Note_on_c, 4, 52, 0
6, 59740, Note_on_c, 4, 55, 98
6, 59775, Note_on_c, 4, 55, 0
6, 59786, Note_on_c, 4, 48, 98
6, 59831, Note_on_c, 4, 48, 0
6, 60105, Channel_aftertouch_c, 4, 0
6, 60469, Channel_aftertouch_c, 4, 3
6, 60495, Channel_aftertouch_c, 4, 0
6, 60663, Channel_aftertouch_c, 4, 1
6, 60663, End_track
7, 0, Start_track
7, 0, Channel_prefix, 5
7, 0, Text_t, "brass   "
7, 144, Text_t, "brass"
7, 25344, Note_on_c, 5, 72, 117
7, 25344, Note_on_c, 5, 76, 117
7, 25344, Note_on_c, 5, 79, 113
7, 25350, Channel_aftertouch_c, 5, 8
7, 25378, Channel_aftertouch_c, 5, 0
7, 25662, Channel_aftertouch_c, 5, 0
7, 25684, Note_on_c, 5, 72, 0
7, 25689, Channel_aftertouch_c, 5, 0
7, 25705, Note_on_c, 5, 74, 105
7, 25705, Note_on_c, 5, 77, 99
7, 25712, Note_on_c, 5, 70, 106
7, 25716, Note_on_c, 5, 79, 0
7, 25728, Channel_aftertouch_c, 5, 0
7, 25740, Note_on_c, 5, 76, 0
7, 25753, Channel_aftertouch_c, 5, 2
7, 25798, Note_on_c, 5, 70, 0
7, 25809, Note_on_c, 5, 76, 105
7, 25816, Note_on_c, 5, 72, 104
7, 25816, Note_on_c, 5, 79, 107
7, 25828, Channel_aftertouch_c, 5, 5
7, 25829, Note_on_c, 5, 77, 0
7, 25840, Note_on_c, 5, 74, 0
7, 25856, Channel_aftertouch_c, 5, 6
7, 25882, Channel_aftertouch_c, 5, 0
7, 25884, Note_on_c, 5, 72, 0
7, 25889, Note_on_c, 5, 76, 0
7, 25889, Note_on_c, 5, 79, 0
7, 25998, Note_on_c, 5, 76, 117
7, 26004, Note_on_c, 5, 72, 116
7, 26004, Note_on_c, 5, 79, 111
7, 26021, Channel_aftertouch_c, 5, 0
7, 26368, Control_c, 5, 1, 2
7, 26383, Control_c, 5, 1, 28
7, 26398, Control_c, 5, 1, 52
7, 26414, Control_c, 5, 1, 69
7, 26429, Control_c, 5, 1, 80
7, 26444, Control_c, 5, 1, 87
7, 26459, Control_c, 5, 1, 91
7, 26475, Control_c, 5, 1, 96
7, 26495, Control_c, 5, 1, 99
7, 26510, Control_c, 5, 1, 98
7, 26521, Note_on_c, 5, 72, 0
7, 26521, Note_on_c, 5, 79, 0
7, 26522, Note_on_c, 5, 76, 0
7, 26527, Control_c, 5, 1, 65
7, 26542, Control_c, 5, 1, 7
7, 26558, Control_c, 5, 1, 0
7, 28404, Note_on_c, 5, 72, 117
7, 28404, Note_on_c, 5, 76, 117
7, 28410, Channel_aftertouch_c, 5, 0
7, 28411, Note_on_c, 5, 79, 114
7, 28438, Channel_aftertouch_c, 5, 0
7, 28737, Note_on_c, 5, 72, 0
7, 28767, Note_on_c, 5, 79, 0
7, 28778, Note_on_c, 5, 76, 0
7, 28787, Note_on_c, 5, 70, 105
7, 28788, Note_on_c, 5, 77, 99
7, 28789, Note_on_c, 5, 74, 104
7, 28854, Channel_aftertouch_c, 5, 0
7, 28878, Note_on_c, 5, 70, 0
7, 28880, Channel_aftertouch_c, 5, 0
7, 28886, Note_on_c, 5, 79, 105
7, 28887, Note_on_c, 5, 72, 110
7, 28887, Note_on_c, 5, 76, 108
7, 28911, Note_on_c, 5, 74, 0
7, 28911, Channel_aftertouch_c, 5, 10
7, 28921, Note_on_c, 5, 77, 0
7, 28943, Channel_aftertouch_c, 5, 0
7, 28949, Note_on_c, 5, 72, 0
7, 28955, Note_on_c, 5, 76, 0
7, 28955, Note_on_c, 5, 79, 0
7, 29064, Note_on_c, 5, 76, 117
7, 29064, Note_on_c, 5, 79, 114
7, 29065, Note_on_c, 5, 72, 117
7, 29082, Channel_aftertouch_c, 5, 0
7, 29352, Channel_aftertouch_c, 5, 0
7, 29396, Channel_aftertouch_c, 5, 1
7, 29441, Control_c, 5, 1, 3
7, 29456, Control_c, 5, 1, 12
7, 29472, Control_c, 5, 1, 27
7, 29487, Control_c, 5, 1, 48
7, 29502, Control_c, 5, 1, 70
7, 29507, Channel_aftertouch_c, 5, 2
7, 29518, Control_c, 5, 1, 81
7, 29534, Control_c, 5, 1, 89
7, 29534, Channel_aftertouch_c, 5, 5
7, 29551, Control_c, 5, 1, 95
7, 29561, Channel_aftertouch_c, 5, 9
7, 29582, Control_c, 5, 1, 89
7, 29587, Channel_aftertouch_c, 5, 8
7, 29598, Control_c, 5, 1, 57
7, 29599, Note_on_c, 5, 72, 0
7, 29606, Note_on_c, 5, 76, 0
7, 29606, Note_on_c, 5, 79, 0
7, 29611, Channel_aftertouch_c, 5, 0
7, 29617, Control_c, 5, 1, 5
7, 29632, Control_c, 5, 1, 0
7, 31488, Note_on_c, 5, 72, 117
7, 31488, Note_on_c, 5, 77, 117
7, 31489, Note_on_c, 5, 81, 117
7, 31501, Channel_aftertouch_c, 5, 9
7, 31528, Channel_aftertouch_c, 5, 0
7, 31558, Channel_aftertouch_c, 5, 1
7, 31583, Channel_aftertouch_c, 5, 6
7, 31610, Channel_aftertouch_c, 5, 12
7, 31704, Channel_aftertouch_c, 5, 9
7, 31730, Channel_aftertouch_c, 5, 3
7, 31760, Channel_aftertouch_c, 5, 5
7, 31795, Channel_aftertouch_c, 5, 6
7, 31806, Note_on_c, 5, 72, 0
7, 31832, Channel_aftertouch_c, 5, 0
7, 31833, Note_on_c, 5, 81, 0
7, 31843, Note_on_c, 5, 77, 0
7, 31849, Note_on_c, 5, 79, 98
7, 31852, Note_on_c, 5, 75, 99
7, 31856, Note_on_c, 5, 70, 98
7, 31930, Channel_aftertouch_c, 5, 0
7, 31936, Note_on_c, 5, 70, 0
7, 31947, Note_on_c, 5, 77, 105
7, 31947, Note_on_c, 5, 81, 107
7, 31954, Note_on_c, 5, 72, 109
7, 31965, Channel_aftertouch_c, 5, 5
7, 31971, Note_on_c, 5, 79, 0
7, 31980, Note_on_c, 5, 75, 0
7, 31992, Channel_aftertouch_c, 5, 9
7, 32019, Channel_aftertouch_c, 5, 0
7, 32020, Note_on_c, 5, 81, 0
7, 32025, Note_on_c, 5, 72, 0
7, 32025, Note_on_c, 5, 77, 0
7, 32138, Note_on_c, 5, 77, 116
7, 32139, Note_on_c, 5, 72, 115
7, 32140, Note_on_c, 5, 81, 113
7, 32161, Channel_aftertouch_c, 5, 0
7, 32422, Control_c, 5, 1, 2
7, 32437, Control_c, 5, 1, 9
7, 32452, Control_c, 5, 1, 21
7, 32467, Control_c, 5, 1, 36
7, 32482, Control_c, 5, 1, 47
7, 32498, Control_c, 5, 1, 55
7, 32513, Control_c, 5, 1, 62
7, 32528, Control_c, 5, 1, 71
7, 32543, Control_c, 5, 1, 76
7, 32559, Control_c, 5, 1, 81
7, 32574, Control_c, 5, 1, 86
7, 32589, Control_c, 5, 1, 90
7, 32604, Control_c, 5, 1, 95
7, 32620, Control_c, 5, 1, 102
7, 32635, Control_c, 5, 1, 110
7, 32650, Control_c, 5, 1, 108
7, 32661, Note_on_c, 5, 72, 0
7, 32661, Note_on_c, 5, 81, 0
7, 32666, Control_c, 5, 1, 74
7, 32667, Note_on_c, 5, 77, 0
7, 32682, Control_c, 5, 1, 8
7, 32697, Control_c, 5, 1, 0
7, 34544, Note_on_c, 5, 76, 117
7, 34544, Note_on_c, 5, 79, 116
7, 34545, Note_on_c, 5, 72, 117
7, 34557, Channel_aftertouch_c, 5, 6
7, 34583, Channel_aftertouch_c, 5, 0
7, 34687, Channel_aftertouch_c, 5, 0
7, 34722, Channel_aftertouch_c, 5, 0
7, 34821, Channel_aftertouch_c, 5, 0
7, 34847, Channel_aftertouch_c, 5, 2
7, 34877, Note_on_c, 5, 72, 0
7, 34888, Channel_aftertouch_c, 5, 0
7, 34889, Note_on_c, 5, 76, 0
7, 34889, Note_on_c, 5, 79, 0
7, 34920, Note_on_c, 5, 74, 117
7, 34927, Note_on_c, 5, 77, 112
7, 34927, Channel_aftertouch_c, 5, 0
7, 34930, Note_on_c, 5, 70, 112
7, 34953, Channel_aftertouch_c, 5, 6
7, 34984, Channel_aftertouch_c, 5, 3
7, 35021, Channel_aftertouch_c, 5, 0
7, 35022, Note_on_c, 5, 70, 0
7, 35022, Note_on_c, 5, 72, 111
7, 35022, Note_on_c, 5, 76, 107
7, 35023, Note_on_c, 5, 79, 109
7, 35042, Note_on_c, 5, 74, 0
7, 35047, Channel_aftertouch_c, 5, 18
7, 35049, Note_on_c, 5, 77, 0
7, 35074, Channel_aftertouch_c, 5, 12
7, 35100, Channel_aftertouch_c, 5, 0
7, 35101, Note_on_c, 5, 72, 0
7, 35101, Note_on_c, 5, 79, 0
7, 35102, Note_on_c, 5, 76, 0
7, 35211, Note_on_c, 5, 76, 117
7, 35211, Note_on_c, 5, 79, 116
7, 35219, Note_on_c, 5, 72, 117
7, 35224, Channel_aftertouch_c, 5, 5
7, 35251, Channel_aftertouch_c, 5, 0
7, 35492, Channel_aftertouch_c, 5, 0
7, 35516, Control_c, 5, 1, 0
7, 35531, Control_c, 5, 1, 4
7, 35537, Channel_aftertouch_c, 5, 1
7, 35547, Control_c, 5, 1, 11
7, 35562, Control_c, 5, 1, 25
7, 35577, Control_c, 5, 1, 45
7, 35593, Control_c, 5, 1, 60
7, 35598, Channel_aftertouch_c, 5, 2
7, 35608, Control_c, 5, 1, 74
7, 35623, Control_c, 5, 1, 87
7, 35639, Control_c, 5, 1, 94
7, 35654, Control_c, 5, 1, 97
7, 35669, Control_c, 5, 1, 100
7, 35684, Control_c, 5, 1, 103
7, 35705, Channel_aftertouch_c, 5, 3
7, 35725, Control_c, 5, 1, 102
7, 35731, Channel_aftertouch_c, 5, 0
7, 35737, Note_on_c, 5, 72, 0
7, 35737, Note_on_c, 5, 79, 0
7, 35743, Note_on_c, 5, 76, 0
7, 35743, Control_c, 5, 1, 65
7, 35759, Control_c, 5, 1, 6
7, 35774, Control_c, 5, 1, 0
7, 36076, Note_on_c, 5, 79, 112
7, 36077, Note_on_c, 5, 71, 114
7, 36078, Note_on_c, 5, 74, 116
7, 36090, Channel_aftertouch_c, 5, 3
7, 36116, Channel_aftertouch_c, 5, 0
7, 37378, Note_on_c, 5, 74, 0
7, 37384, Note_on_c, 5, 71, 0
7, 37384, Note_on_c, 5, 79, 0
7, 37429, Note_on_c, 5, 70, 108
7, 37429, Note_on_c, 5, 73, 114
7, 37430, Note_on_c, 5, 78, 116
7, 37614, Note_on_c, 5, 69, 105
7, 37614, Note_on_c, 5, 70, 0
7, 37614, Note_on_c, 5, 77, 101
7, 37621, Note_on_c, 5, 78, 0
7, 37622, Note_on_c, 5, 72, 117
7, 37622, Note_on_c, 5, 73, 0
7, 37640, Channel_aftertouch_c, 5, 7
7, 37663, Channel_aftertouch_c, 5, 10
7, 37690, Channel_aftertouch_c, 5, 0
7, 37711, Note_on_c, 5, 72, 0
7, 37711, Note_on_c, 5, 77, 0
7, 37717, Note_on_c, 5, 69, 0
7, 39164, Note_on_c, 5, 60, 116
7, 39164, Note_on_c, 5, 72, 114
7, 39192, Channel_aftertouch_c, 5, 4
7, 39219, Channel_aftertouch_c, 5, 0
7, 39248, Channel_aftertouch_c, 5, 1
7, 39294, Channel_aftertouch_c, 5, 0
7, 39480, Channel_aftertouch_c, 5, 0
7, 39510, Channel_aftertouch_c, 5, 0
7, 39540, Note_on_c, 5, 70, 105
7, 39561, Note_on_c, 5, 72, 0
7, 39566, Channel_aftertouch_c, 5, 1
7, 39601, Channel_aftertouch_c, 5, 0
7, 39651, Channel_aftertouch_c, 5, 0
7, 39910, Note_on_c, 5, 67, 108
7, 39916, Note_on_c, 5, 64, 103
7, 40449, Note_on_c, 5, 64, 0
7, 40450, Note_on_c, 5, 60, 0
7, 40460, Note_on_c, 5, 67, 0
7, 40466, Note_on_c, 5, 70, 0
7, 40501, Note_on_c, 5, 64, 109
7, 40501, Note_on_c, 5, 72, 109
7, 40502, Note_on_c, 5, 67, 115
7, 40536, Channel_aftertouch_c, 5, 0
7, 40700, Note_on_c, 5, 48, 109
7, 40789, Note_on_c, 5, 64, 0
7, 40790, Note_on_c, 5, 72, 0
7, 40791, Note_on_c, 5, 67, 0
7, 40826, Note_on_c, 5, 48, 0
7, 40881, Note_on_c, 5, 64, 116
7, 40881, Note_on_c, 5, 67, 116
7, 40882, Note_on_c, 5, 72, 106
7, 40894, Note_on_c, 5, 64, 0
7, 40894, Note_on_c, 5, 67, 0
7, 40895, Note_on_c, 5, 72, 0
7, 40916, Note_on_c, 5, 67, 110
7, 40916, Note_on_c, 5, 72, 107
7, 40917, Note_on_c, 5, 64, 101
7, 40939, Note_on_c, 5, 67, 0
7, 40944, Note_on_c, 5, 64, 0
7, 40945, Note_on_c, 5, 72, 0
7, 41074, Note_on_c, 5, 67, 117
7, 41074, Note_on_c, 5, 72, 116
7, 41075, Note_on_c, 5, 64, 116
7, 41098, Channel_aftertouch_c, 5, 0
7, 41099, Note_on_c, 5, 64, 0
7, 41099, Note_on_c, 5, 67, 0
7, 41104, Note_on_c, 5, 72, 0
7, 41218, Note_on_c, 5, 67, 117
7, 41218, Note_on_c, 5, 72, 116
7, 41219, Note_on_c, 5, 64, 116
7, 41242, Channel_aftertouch_c, 5, 0
7, 41243, Note_on_c, 5, 67, 0
7, 41244, Note_on_c, 5, 64, 0
7, 41244, Note_on_c, 5, 72, 0
7, 41319, Note_on_c, 5, 64, 110
7, 41319, Note_on_c, 5, 67, 117
7, 41319, Note_on_c, 5, 70, 117
7, 41332, Note_on_c, 5, 55, 114
7, 41358, Channel_aftertouch_c, 5, 2
7, 41388, Channel_aftertouch_c, 5, 1
7, 41418, Channel_aftertouch_c, 5, 0
7, 41448, Channel_aftertouch_c, 5, 0
7, 41453, Note_on_c, 5, 55, 0
7, 41464, Note_on_c, 5, 48, 112
7, 41470, Note_on_c, 5, 64, 0
7, 41470, Note_on_c, 5, 70, 0
7, 41476, Note_on_c, 5, 67, 0
7, 41526, Note_on_c, 5, 48, 0
7, 41660, Note_on_c, 5, 64, 115
7, 41661, Note_on_c, 5, 67, 111
7, 41661, Note_on_c, 5, 72, 109
7, 41674, Note_on_c, 5, 67, 0
7, 41685, Note_on_c, 5, 64, 0
7, 41690, Note_on_c, 5, 72, 0
7, 41696, Note_on_c, 5, 72, 91
7, 41702, Note_on_c, 5, 67, 107
7, 41703, Note_on_c, 5, 64, 93
7, 41729, Note_on_c, 5, 72, 0
7, 41730, Note_on_c, 5, 64, 0
7, 41730, Note_on_c, 5, 67, 0
7, 41849, Note_on_c, 5, 64, 109
7, 41849, Note_on_c, 5, 67, 115
7, 41849, Note_on_c, 5, 72, 108
7, 41867, Note_on_c, 5, 64, 0
7, 41867, Note_on_c, 5, 67, 0
7, 41872, Note_on_c, 5, 72, 0
7, 41996, Note_on_c, 5, 67, 117
7, 41996, Note_on_c, 5, 72, 116
7, 41997, Note_on_c, 5, 64, 117
7, 42025, Channel_aftertouch_c, 5, 0
7, 42026, Note_on_c, 5, 64, 0
7, 42026, Note_on_c, 5, 67, 0
7, 42032, Note_on_c, 5, 72, 0
7, 42096, Note_on_c, 5, 55, 109
7, 42221, Note_on_c, 5, 55, 0
7, 42252, Channel_aftertouch_c, 5, 14
7, 42278, Channel_aftertouch_c, 5, 17
7, 42308, Channel_aftertouch_c, 5, 15
7, 42428, Channel_aftertouch_c, 5, 1
7, 42440, Note_on_c, 5, 67, 116
7, 42440, Note_on_c, 5, 70, 117
7, 42441, Note_on_c, 5, 72, 117
7, 42453, Note_on_c, 5, 70, 0
7, 42453, Channel_aftertouch_c, 5, 0
7, 42459, Note_on_c, 5, 72, 0
7, 42464, Note_on_c, 5, 67, 0
7, 42470, Note_on_c, 5, 72, 109
7, 42476, Note_on_c, 5, 70, 104
7, 42487, Note_on_c, 5, 70, 0
7, 42493, Note_on_c, 5, 72, 0
7, 42524, Note_on_c, 5, 48, 116
7, 42550, Note_on_c, 5, 48, 0
7, 42565, Note_on_c, 5, 48, 110
7, 42601, Channel_aftertouch_c, 5, 0
7, 42608, Note_on_c, 5, 48, 0
7, 42613, Note_on_c, 5, 70, 117
7, 42614, Note_on_c, 5, 67, 117
7, 42614, Note_on_c, 5, 72, 117
7, 42632, Channel_aftertouch_c, 5, 0
7, 42643, Note_on_c, 5, 67, 0
7, 42643, Note_on_c, 5, 70, 0
7, 42644, Note_on_c, 5, 72, 0
7, 42699, Note_on_c, 5, 48, 117
7, 42735, Note_on_c, 5, 48, 0
7, 42761, Note_on_c, 5, 72, 117
7, 42766, Channel_aftertouch_c, 5, 0
7, 42768, Note_on_c, 5, 67, 117
7, 42768, Note_on_c, 5, 70, 117
7, 42790, Channel_aftertouch_c, 5, 0
7, 42791, Note_on_c, 5, 67, 0
7, 42791, Note_on_c, 5, 70, 0
7, 42797, Note_on_c, 5, 72, 0
7, 42848, Note_on_c, 5, 48, 113
7, 42883, Note_on_c, 5, 46, 112
7, 42889, Note_on_c, 5, 70, 117
7, 42890, Note_on_c, 5, 48, 0
7, 42890, Note_on_c, 5, 64, 114
7, 42890, Note_on_c, 5, 67, 117
7, 42908, Channel_aftertouch_c, 5, 3
7, 42935, Channel_aftertouch_c, 5, 0
7, 42985, Note_on_c, 5, 46, 0
7, 42991, Note_on_c, 5, 72, 111
7, 42997, Note_on_c, 5, 48, 117
7, 42997, Note_on_c, 5, 64, 0
7, 43004, Note_on_c, 5, 70, 0
7, 43015, Channel_aftertouch_c, 5, 6
7, 43022, Note_on_c, 5, 67, 0
7, 43033, Note_on_c, 5, 72, 0
7, 43038, Channel_aftertouch_c, 5, 6
7, 43064, Channel_aftertouch_c, 5, 0
7, 43164, Note_on_c, 5, 48, 0
7, 43195, Note_on_c, 5, 67, 117
7, 43195, Note_on_c, 5, 70, 117
7, 43196, Note_on_c, 5, 72, 117
7, 43213, Channel_aftertouch_c, 5, 0
7, 43215, Note_on_c, 5, 67, 0
7, 43215, Note_on_c, 5, 70, 0
7, 43215, Note_on_c, 5, 72, 0
7, 43231, Note_on_c, 5, 70, 109
7, 43232, Note_on_c, 5, 72, 114
7, 43239, Note_on_c, 5, 67, 105
7, 43250, Note_on_c, 5, 67, 0
7, 43255, Note_on_c, 5, 70, 0
7, 43261, Note_on_c, 5, 72, 0
7, 43276, Note_on_c, 5, 48, 115
7, 43292, Note_on_c, 5, 48, 0
7, 43318, Note_on_c, 5, 48, 113
7, 43354, Channel_aftertouch_c, 5, 0
7, 43375, Note_on_c, 5, 48, 0
7, 43381, Note_on_c, 5, 67, 117
7, 43381, Note_on_c, 5, 70, 117
7, 43382, Note_on_c, 5, 72, 117
7, 43405, Channel_aftertouch_c, 5, 0
7, 43406, Note_on_c, 5, 67, 0
7, 43406, Note_on_c, 5, 70, 0
7, 43407, Note_on_c, 5, 72, 0
7, 43472, Note_on_c, 5, 48, 117
7, 43497, Note_on_c, 5, 48, 0
7, 43533, Note_on_c, 5, 70, 117
7, 43533, Note_on_c, 5, 72, 117
7, 43534, Note_on_c, 5, 67, 117
7, 43551, Channel_aftertouch_c, 5, 0
7, 43562, Note_on_c, 5, 67, 0
7, 43562, Note_on_c, 5, 70, 0
7, 43563, Note_on_c, 5, 72, 0
7, 43604, Note_on_c, 5, 48, 114
7, 43649, Note_on_c, 5, 48, 0
7, 43660, Note_on_c, 5, 46, 115
7, 43660, Note_on_c, 5, 64, 115
7, 43660, Note_on_c, 5, 70, 117
7, 43661, Note_on_c, 5, 67, 116
7, 43673, Channel_aftertouch_c, 5, 0
7, 43699, Channel_aftertouch_c, 5, 1
7, 43730, Channel_aftertouch_c, 5, 0
7, 43751, Note_on_c, 5, 46, 0
7, 43761, Note_on_c, 5, 48, 117
7, 43761, Note_on_c, 5, 72, 112
7, 43768, Note_on_c, 5, 64, 0
7, 43769, Note_on_c, 5, 70, 0
7, 43780, Note_on_c, 5, 67, 0
7, 43791, Channel_aftertouch_c, 5, 13
7, 43792, Note_on_c, 5, 72, 0
7, 43817, Channel_aftertouch_c, 5, 10
7, 43844, Channel_aftertouch_c, 5, 7
7, 43870, Channel_aftertouch_c, 5, 0
7, 43916, Note_on_c, 5, 48, 0
7, 43965, Note_on_c, 5, 70, 117
7, 43972, Note_on_c, 5, 67, 117
7, 43972, Note_on_c, 5, 72, 117
7, 43973, Note_on_c, 5, 48, 117
7, 43980, Channel_aftertouch_c, 5, 4
7, 43987, Note_on_c, 5, 67, 0
7, 43987, Note_on_c, 5, 70, 0
7, 43987, Note_on_c, 5, 72, 0
7, 44003, Channel_aftertouch_c, 5, 8
7, 44009, Note_on_c, 5, 70, 108
7, 44010, Note_on_c, 5, 72, 111
7, 44017, Note_on_c, 5, 67, 103
7, 44028, Channel_aftertouch_c, 5, 0
7, 44029, Note_on_c, 5, 67, 0
7, 44034, Note_on_c, 5, 70, 0
7, 44035, Note_on_c, 5, 72, 0
7, 44040, Note_on_c, 5, 48, 0
7, 44101, Note_on_c, 5, 48, 117
7, 44127, Channel_aftertouch_c, 5, 0
7, 44138, Note_on_c, 5, 48, 0
7, 44154, Note_on_c, 5, 67, 116
7, 44154, Note_on_c, 5, 70, 117
7, 44154, Note_on_c, 5, 72, 117
7, 44177, Channel_aftertouch_c, 5, 0
7, 44178, Note_on_c, 5, 67, 0
7, 44183, Note_on_c, 5, 70, 0
7, 44184, Note_on_c, 5, 72, 0
7, 44239, Note_on_c, 5, 48, 117
7, 44265, Channel_aftertouch_c, 5, 0
7, 44276, Note_on_c, 5, 48, 0
7, 44296, Note_on_c, 5, 67, 116
7, 44296, Note_on_c, 5, 70, 117
7, 44297, Note_on_c, 5, 72, 117
7, 44314, Channel_aftertouch_c, 5, 0
7, 44330, Note_on_c, 5, 67, 0
7, 44330, Note_on_c, 5, 70, 0
7, 44336, Note_on_c, 5, 72, 0
7, 44391, Note_on_c, 5, 48, 113
7, 44432, Note_on_c, 5, 46, 111
7, 44432, Note_on_c, 5, 70, 117
7, 44440, Note_on_c, 5, 48, 0
7, 44440, Note_on_c, 5, 64, 113
7, 44440, Note_on_c, 5, 67, 116
7, 44452, Channel_aftertouch_c, 5, 1
7, 44497, Channel_aftertouch_c, 5, 0
7, 44519, Note_on_c, 5, 46, 0
7, 44519, Note_on_c, 5, 67, 0
7, 44525, Note_on_c, 5, 70, 0
7, 44535, Note_on_c, 5, 64, 0
7, 44536, Note_on_c, 5, 48, 117
7, 44536, Note_on_c, 5, 67, 112
7, 44536, Note_on_c, 5, 72, 110
7, 44565, Channel_aftertouch_c, 5, 18
7, 44567, Note_on_c, 5, 67, 0
7, 44588, Note_on_c, 5, 72, 0
7, 44593, Channel_aftertouch_c, 5, 10
7, 44620, Channel_aftertouch_c, 5, 0
7, 44661, Note_on_c, 5, 48, 0
7, 44736, Note_on_c, 5, 67, 116
7, 44736, Note_on_c, 5, 70, 117
7, 44736, Note_on_c, 5, 72, 117
7, 44748, Channel_aftertouch_c, 5, 0
7, 44755, Note_on_c, 5, 70, 0
7, 44760, Note_on_c, 5, 72, 0
7, 44770, Note_on_c, 5, 72, 111
7, 44771, Note_on_c, 5, 70, 106
7, 44793, Note_on_c, 5, 67, 0
7, 44793, Note_on_c, 5, 70, 0
7, 44798, Note_on_c, 5, 72, 0
7, 44829, Note_on_c, 5, 48, 116
7, 44855, Note_on_c, 5, 48, 0
7, 44866, Note_on_c, 5, 48, 110
7, 44891, Channel_aftertouch_c, 5, 0
7, 44903, Note_on_c, 5, 48, 0
7, 44923, Note_on_c, 5, 67, 115
7, 44923, Note_on_c, 5, 70, 117
7, 44924, Note_on_c, 5, 72, 117
7, 44941, Channel_aftertouch_c, 5, 0
7, 44947, Note_on_c, 5, 67, 0
7, 44948, Note_on_c, 5, 70, 0
7, 44953, Note_on_c, 5, 72, 0
7, 45009, Note_on_c, 5, 48, 117
7, 45034, Channel_aftertouch_c, 5, 0
7, 45040, Note_on_c, 5, 48, 0
7, 45067, Note_on_c, 5, 67, 117
7, 45067, Note_on_c, 5, 70, 117
7, 45067, Note_on_c, 5, 72, 117
7, 45090, Channel_aftertouch_c, 5, 0
7, 45095, Note_on_c, 5, 70, 0
7, 45096, Note_on_c, 5, 67, 0
7, 45102, Note_on_c, 5, 72, 0
7, 45147, Note_on_c, 5, 48, 114
7, 45188, Note_on_c, 5, 46, 112
7, 45188, Note_on_c, 5, 70, 117
7, 45189, Note_on_c, 5, 64, 114
7, 45189, Note_on_c, 5, 67, 117
7, 45198, Note_on_c, 5, 48, 0
7, 45208, Channel_aftertouch_c, 5, 2
7, 45234, Channel_aftertouch_c, 5, 0
7, 45265, Channel_aftertouch_c, 5, 0
7, 45280, Note_on_c, 5, 64, 0
7, 45286, Note_on_c, 5, 46, 0
7, 45296, Note_on_c, 5, 72, 107
7, 45297, Note_on_c, 5, 48, 117
7, 45303, Note_on_c, 5, 70, 0
7, 45308, Channel_aftertouch_c, 5, 2
7, 45331, Note_on_c, 5, 67, 0
7, 45336, Channel_aftertouch_c, 5, 10
7, 45342, Note_on_c, 5, 72, 0
7, 45363, Channel_aftertouch_c, 5, 0
7, 45428, Note_on_c, 5, 48, 0
7, 45498, Note_on_c, 5, 67, 116
7, 45498, Note_on_c, 5, 70, 117
7, 45499, Note_on_c, 5, 72, 117
7, 45516, Note_on_c, 5, 70, 0
7, 45516, Note_on_c, 5, 72, 0
7, 45517, Note_on_c, 5, 67, 0
7, 45532, Note_on_c, 5, 70, 108
7, 45533, Note_on_c, 5, 72, 112
7, 45539, Note_on_c, 5, 67, 105
7, 45551, Note_on_c, 5, 67, 0
7, 45557, Note_on_c, 5, 70, 0
7, 45557, Note_on_c, 5, 72, 0
7, 45602, Note_on_c, 5, 48, 115
7, 45623, Note_on_c, 5, 48, 0
7, 45644, Note_on_c, 5, 48, 110
7, 45675, Note_on_c, 5, 48, 0
7, 45690, Note_on_c, 5, 70, 117
7, 45691, Note_on_c, 5, 67, 116
7, 45691, Note_on_c, 5, 72, 117
7, 45714, Channel_aftertouch_c, 5, 0
7, 45715, Note_on_c, 5, 67, 0
7, 45716, Note_on_c, 5, 70, 0
7, 45716, Note_on_c, 5, 72, 0
7, 45776, Note_on_c, 5, 48, 117
7, 45821, Note_on_c, 5, 48, 0
7, 45837, Note_on_c, 5, 70, 117
7, 45838, Note_on_c, 5, 67, 117
7, 45838, Note_on_c, 5, 72, 117
7, 45855, Channel_aftertouch_c, 5, 0
7, 45866, Note_on_c, 5, 67, 0
7, 45866, Note_on_c, 5, 70, 0
7, 45867, Note_on_c, 5, 72, 0
7, 45927, Note_on_c, 5, 48, 117
7, 45963, Note_on_c, 5, 46, 112
7, 45969, Note_on_c, 5, 64, 116
7, 45969, Note_on_c, 5, 67, 117
7, 45969, Note_on_c, 5, 70, 117
7, 45978, Note_on_c, 5, 48, 0
7, 45983, Channel_aftertouch_c, 5, 2
7, 46009, Channel_aftertouch_c, 5, 0
7, 46060, Note_on_c, 5, 46, 0
7, 46066, Note_on_c, 5, 64, 0
7, 46066, Note_on_c, 5, 72, 111
7, 46072, Note_on_c, 5, 48, 117
7, 46079, Note_on_c, 5, 70, 0
7, 46094, Channel_aftertouch_c, 5, 7
7, 46096, Note_on_c, 5, 67, 0
7, 46112, Note_on_c, 5, 72, 0
7, 46128, Channel_aftertouch_c, 5, 0
7, 46247, Note_on_c, 5, 48, 0
7, 46267, Note_on_c, 5, 70, 117
7, 46268, Note_on_c, 5, 67, 116
7, 46268, Note_on_c, 5, 72, 117
7, 46280, Channel_aftertouch_c, 5, 0
7, 46287, Note_on_c, 5, 67, 0
7, 46287, Note_on_c, 5, 70, 0
7, 46287, Note_on_c, 5, 72, 0
7, 46303, Note_on_c, 5, 70, 106
7, 46303, Note_on_c, 5, 72, 111
7, 46325, Note_on_c, 5, 70, 0
7, 46326, Note_on_c, 5, 72, 0
7, 46361, Note_on_c, 5, 48, 115
7, 46382, Note_on_c, 5, 48, 0
7, 46398, Note_on_c, 5, 48, 111
7, 46439, Note_on_c, 5, 48, 0
7, 46459, Note_on_c, 5, 70, 117
7, 46460, Note_on_c, 5, 67, 113
7, 46460, Note_on_c, 5, 72, 117
7, 46478, Note_on_c, 5, 67, 0
7, 46484, Note_on_c, 5, 70, 0
7, 46484, Note_on_c, 5, 72, 0
7, 46549, Note_on_c, 5, 48, 117
7, 46575, Note_on_c, 5, 48, 0
7, 46606, Note_on_c, 5, 67, 116
7, 46606, Note_on_c, 5, 70, 117
7, 46606, Note_on_c, 5, 72, 117
7, 46629, Channel_aftertouch_c, 5, 0
7, 46630, Note_on_c, 5, 70, 0
7, 46636, Note_on_c, 5, 67, 0
7, 46636, Note_on_c, 5, 72, 0
7, 46691, Note_on_c, 5, 48, 116
7, 46732, Note_on_c, 5, 46, 113
7, 46732, Note_on_c, 5, 48, 0
7, 46732, Note_on_c, 5, 70, 117
7, 46733, Note_on_c, 5, 64, 115
7, 46733, Note_on_c, 5, 67, 117
7, 46752, Channel_aftertouch_c, 5, 3
7, 46778, Channel_aftertouch_c, 5, 0
7, 46824, Note_on_c, 5, 46, 0
7, 46830, Note_on_c, 5, 64, 0
7, 46830, Note_on_c, 5, 72, 110
7, 46836, Note_on_c, 5, 48, 117
7, 46842, Note_on_c, 5, 70, 0
7, 46858, Channel_aftertouch_c, 5, 5
7, 46859, Note_on_c, 5, 67, 0
7, 46875, Note_on_c, 5, 72, 0
7, 46891, Channel_aftertouch_c, 5, 0
7, 46976, Note_on_c, 5, 48, 0
7, 47036, Note_on_c, 5, 70, 117
7, 47036, Note_on_c, 5, 72, 117
7, 47037, Note_on_c, 5, 67, 116
7, 47054, Note_on_c, 5, 70, 0
7, 47055, Note_on_c, 5, 67, 0
7, 47055, Note_on_c, 5, 72, 0
7, 47066, Note_on_c, 5, 70, 105
7, 47066, Note_on_c, 5, 72, 112
7, 47093, Note_on_c, 5, 70, 0
7, 47094, Note_on_c, 5, 72, 0
7, 47124, Note_on_c, 5, 48, 114
7, 47145, Note_on_c, 5, 48, 0
7, 47166, Note_on_c, 5, 48, 111
7, 47216, Note_on_c, 5, 48, 0
7, 47217, Note_on_c, 5, 70, 117
7, 47218, Note_on_c, 5, 67, 116
7, 47218, Note_on_c, 5, 72, 117
7, 47235, Channel_aftertouch_c, 5, 0
7, 47241, Note_on_c, 5, 67, 0
7, 47242, Note_on_c, 5, 70, 0
7, 47248, Note_on_c, 5, 72, 0
7, 47302, Note_on_c, 5, 48, 117
7, 47333, Note_on_c, 5, 48, 0
7, 47364, Note_on_c, 5, 67, 116
7, 47364, Note_on_c, 5, 70, 117
7, 47364, Note_on_c, 5, 72, 117
7, 47387, Note_on_c, 5, 67, 0
7, 47393, Note_on_c, 5, 70, 0
7, 47393, Note_on_c, 5, 72, 0
7, 47448, Note_on_c, 5, 48, 117
7, 47489, Note_on_c, 5, 48, 0
7, 47495, Note_on_c, 5, 64, 116
7, 47495, Note_on_c, 5, 67, 117
7, 47495, Note_on_c, 5, 70, 117
7, 47496, Note_on_c, 5, 46, 112
7, 47503, Channel_aftertouch_c, 5, 0
7, 47535, Channel_aftertouch_c, 5, 0
7, 47591, Note_on_c, 5, 46, 0
7, 47591, Note_on_c, 5, 70, 0
7, 47596, Note_on_c, 5, 72, 109
7, 47602, Note_on_c, 5, 48, 117
7, 47609, Note_on_c, 5, 64, 0
7, 47624, Channel_aftertouch_c, 5, 5
7, 47625, Note_on_c, 5, 67, 0
7, 47636, Note_on_c, 5, 72, 0
7, 47652, Channel_aftertouch_c, 5, 0
7, 47747, Note_on_c, 5, 48, 0
7, 47801, Note_on_c, 5, 70, 117
7, 47801, Note_on_c, 5, 72, 117
7, 47802, Note_on_c, 5, 67, 117
7, 47814, Note_on_c, 5, 72, 0
7, 47815, Note_on_c, 5, 67, 0
7, 47820, Note_on_c, 5, 70, 0
7, 47836, Note_on_c, 5, 70, 107
7, 47836, Note_on_c, 5, 72, 110
7, 47863, Note_on_c, 5, 70, 0
7, 47863, Note_on_c, 5, 72, 0
7, 47894, Note_on_c, 5, 48, 116
7, 47919, Note_on_c, 5, 48, 0
7, 47940, Note_on_c, 5, 48, 110
7, 47966, Channel_aftertouch_c, 5, 0
7, 47992, Note_on_c, 5, 48, 0
7, 47998, Note_on_c, 5, 67, 116
7, 47998, Note_on_c, 5, 70, 117
7, 47998, Note_on_c, 5, 72, 117
7, 48016, Note_on_c, 5, 67, 0
7, 48016, Note_on_c, 5, 70, 0
7, 48022, Note_on_c, 5, 72, 0
7, 48077, Note_on_c, 5, 48, 117
7, 48123, Note_on_c, 5, 48, 0
7, 48134, Note_on_c, 5, 67, 113
7, 48134, Note_on_c, 5, 70, 117
7, 48134, Note_on_c, 5, 72, 117
7, 48157, Note_on_c, 5, 70, 0
7, 48162, Note_on_c, 5, 67, 0
7, 48162, Note_on_c, 5, 72, 0
7, 48213, Note_on_c, 5, 48, 116
7, 48264, Note_on_c, 5, 64, 115
7, 48264, Note_on_c, 5, 67, 117
7, 48264, Note_on_c, 5, 70, 117
7, 48265, Note_on_c, 5, 46, 112
7, 48265, Note_on_c, 5, 48, 0
7, 48279, Channel_aftertouch_c, 5, 1
7, 48304, Channel_aftertouch_c, 5, 0
7, 48335, Note_on_c, 5, 46, 0
7, 48371, Note_on_c, 5, 41, 111
7, 48371, Note_on_c, 5, 64, 0
7, 48371, Note_on_c, 5, 67, 0
7, 48378, Note_on_c, 5, 70, 0
7, 48415, Channel_aftertouch_c, 5, 0
7, 48545, Note_on_c, 5, 41, 0
7, 48556, Note_on_c, 5, 69, 117
7, 48556, Note_on_c, 5, 72, 117
7, 48556, Note_on_c, 5, 77, 112
7, 48579, Note_on_c, 5, 69, 0
7, 48579, Note_on_c, 5, 72, 0
7, 48590, Note_on_c, 5, 72, 107
7, 48601, Note_on_c, 5, 69, 105
7, 48617, Note_on_c, 5, 69, 0
7, 48617, Note_on_c, 5, 72, 0
7, 48622, Note_on_c, 5, 77, 0
7, 48648, Note_on_c, 5, 55, 113
7, 48649, Note_on_c, 5, 53, 112
7, 48666, Note_on_c, 5, 55, 0
7, 48671, Note_on_c, 5, 53, 0
7, 48692, Note_on_c, 5, 53, 109
7, 48767, Note_on_c, 5, 77, 116
7, 48768, Note_on_c, 5, 53, 0
7, 48768, Note_on_c, 5, 69, 117
7, 48768, Note_on_c, 5, 72, 117
7, 48788, Note_on_c, 5, 69, 0
7, 48788, Note_on_c, 5, 72, 0
7, 48793, Channel_aftertouch_c, 5, 0
7, 48794, Note_on_c, 5, 77, 0
7, 48845, Note_on_c, 5, 53, 115
7, 48900, Note_on_c, 5, 53, 0
7, 48911, Note_on_c, 5, 72, 117
7, 48911, Note_on_c, 5, 77, 116
7, 48912, Note_on_c, 5, 69, 117
7, 48924, Channel_aftertouch_c, 5, 5
7, 48936, Note_on_c, 5, 69, 0
7, 48937, Note_on_c, 5, 72, 0
7, 48943, Note_on_c, 5, 77, 0
7, 48948, Channel_aftertouch_c, 5, 0
7, 48994, Note_on_c, 5, 53, 111
7, 49024, Note_on_c, 5, 51, 111
7, 49036, Note_on_c, 5, 53, 0
7, 49036, Note_on_c, 5, 72, 117
7, 49036, Note_on_c, 5, 75, 117
7, 49037, Note_on_c, 5, 69, 117
7, 49055, Channel_aftertouch_c, 5, 3
7, 49082, Channel_aftertouch_c, 5, 0
7, 49142, Note_on_c, 5, 77, 111
7, 49148, Note_on_c, 5, 53, 117
7, 49148, Note_on_c, 5, 75, 0
7, 49154, Note_on_c, 5, 51, 0
7, 49160, Channel_aftertouch_c, 5, 0
7, 49166, Note_on_c, 5, 72, 0
7, 49167, Note_on_c, 5, 69, 0
7, 49177, Note_on_c, 5, 77, 0
7, 49183, Channel_aftertouch_c, 5, 0
7, 49278, Note_on_c, 5, 53, 0
7, 49342, Note_on_c, 5, 77, 115
7, 49343, Note_on_c, 5, 69, 116
7, 49343, Note_on_c, 5, 72, 117
7, 49360, Note_on_c, 5, 72, 0
7, 49361, Note_on_c, 5, 69, 0
7, 49376, Note_on_c, 5, 72, 109
7, 49387, Note_on_c, 5, 69, 104
7, 49399, Note_on_c, 5, 69, 0
7, 49404, Note_on_c, 5, 72, 0
7, 49409, Note_on_c, 5, 77, 0
7, 49439, Note_on_c, 5, 53, 114
7, 49456, Note_on_c, 5, 53, 0
7, 49476, Note_on_c, 5, 53, 111
7, 49512, Note_on_c, 5, 53, 0
7, 49528, Note_on_c, 5, 72, 117
7, 49529, Note_on_c, 5, 69, 116
7, 49529, Note_on_c, 5, 77, 116
7, 49537, Note_on_c, 5, 75, 104
7, 49544, Note_on_c, 5, 69, 0
7, 49544, Note_on_c, 5, 75, 0
7, 49550, Note_on_c, 5, 72, 0
7, 49551, Note_on_c, 5, 77, 0
7, 49556, Channel_aftertouch_c, 5, 0
7, 49621, Note_on_c, 5, 53, 117
7, 49651, Note_on_c, 5, 53, 0
7, 49672, Note_on_c, 5, 77, 117
7, 49673, Note_on_c, 5, 72, 117
7, 49680, Note_on_c, 5, 69, 117
7, 49685, Channel_aftertouch_c, 5, 5
7, 49702, Note_on_c, 5, 72, 0
7, 49703, Note_on_c, 5, 69, 0
7, 49708, Channel_aftertouch_c, 5, 0
7, 49709, Note_on_c, 5, 77, 0
7, 49759, Note_on_c, 5, 53, 117
7, 49794, Note_on_c, 5, 53, 0
7, 49805, Note_on_c, 5, 51, 114
7, 49805, Note_on_c, 5, 75, 117
7, 49806, Note_on_c, 5, 69, 116
7, 49806, Note_on_c, 5, 72, 116
7, 49830, Channel_aftertouch_c, 5, 5
7, 49857, Channel_aftertouch_c, 5, 0
7, 49902, Note_on_c, 5, 51, 0
7, 49918, Note_on_c, 5, 53, 117
7, 49918, Note_on_c, 5, 77, 109
7, 49919, Note_on_c, 5, 75, 0
7, 49937, Channel_aftertouch_c, 5, 2
7, 49939, Note_on_c, 5, 69, 0
7, 49939, Note_on_c, 5, 72, 0
7, 49950, Note_on_c, 5, 77, 0
7, 49960, Channel_aftertouch_c, 5, 0
7, 50080, Note_on_c, 5, 53, 0
7, 50115, Note_on_c, 5, 69, 117
7, 50115, Note_on_c, 5, 72, 117
7, 50116, Note_on_c, 5, 77, 115
7, 50129, Note_on_c, 5, 72, 0
7, 50134, Note_on_c, 5, 69, 0
7, 50139, Note_on_c, 5, 77, 0
7, 50145, Note_on_c, 5, 77, 107
7, 50151, Note_on_c, 5, 72, 112
7, 50157, Note_on_c, 5, 69, 105
7, 50173, Note_on_c, 5, 69, 0
7, 50173, Note_on_c, 5, 72, 0
7, 50174, Note_on_c, 5, 77, 0
7, 50209, Note_on_c, 5, 53, 115
7, 50226, Note_on_c, 5, 53, 0
7, 50246, Note_on_c, 5, 53, 111
7, 50282, Note_on_c, 5, 53, 0
7, 50298, Note_on_c, 5, 69, 117
7, 50298, Note_on_c, 5, 72, 117
7, 50298, Note_on_c, 5, 77, 116
7, 50317, Note_on_c, 5, 69, 0
7, 50317, Note_on_c, 5, 72, 0
7, 50323, Channel_aftertouch_c, 5, 0
7, 50324, Note_on_c, 5, 77, 0
7, 50384, Note_on_c, 5, 53, 117
7, 50420, Note_on_c, 5, 53, 0
7, 50441, Note_on_c, 5, 69, 117
7, 50441, Note_on_c, 5, 72, 117
7, 50441, Note_on_c, 5, 77, 116
7, 50453, Channel_aftertouch_c, 5, 4
7, 50465, Note_on_c, 5, 72, 0
7, 50472, Note_on_c, 5, 69, 0
7, 50472, Note_on_c, 5, 77, 0
7, 50477, Channel_aftertouch_c, 5, 0
7, 50523, Note_on_c, 5, 53, 116
7, 50563, Note_on_c, 5, 53, 0
7, 50574, Note_on_c, 5, 75, 117
7, 50575, Note_on_c, 5, 51, 114
7, 50575, Note_on_c, 5, 69, 116
7, 50575, Note_on_c, 5, 72, 117
7, 50589, Channel_aftertouch_c, 5, 0
7, 50615, Channel_aftertouch_c, 5, 0
7, 50665, Note_on_c, 5, 51, 0
7, 50676, Note_on_c, 5, 75, 0
7, 50681, Note_on_c, 5, 53, 117
7, 50681, Note_on_c, 5, 77, 112
7, 50700, Note_on_c, 5, 72, 0
7, 50704, Channel_aftertouch_c, 5, 4
7, 50705, Note_on_c, 5, 69, 0
7, 50711, Note_on_c, 5, 77, 0
7, 50732, Channel_aftertouch_c, 5, 0
7, 50832, Note_on_c, 5, 53, 0
7, 50882, Note_on_c, 5, 69, 117
7, 50883, Note_on_c, 5, 72, 117
7, 50883, Note_on_c, 5, 77, 114
7, 50900, Note_on_c, 5, 72, 0
7, 50906, Note_on_c, 5, 69, 0
7, 50906, Note_on_c, 5, 77, 0
7, 50917, Note_on_c, 5, 72, 109
7, 50917, Note_on_c, 5, 77, 108
7, 50944, Note_on_c, 5, 72, 0
7, 50945, Note_on_c, 5, 77, 0
7, 50975, Note_on_c, 5, 53, 114
7, 50992, Note_on_c, 5, 53, 0
7, 51017, Note_on_c, 5, 53, 111
7, 51047, Note_on_c, 5, 53, 0
7, 51068, Note_on_c, 5, 77, 116
7, 51069, Note_on_c, 5, 69, 117
7, 51069, Note_on_c, 5, 72, 117
7, 51076, Channel_aftertouch_c, 5, 2
7, 51093, Note_on_c, 5, 72, 0
7, 51094, Note_on_c, 5, 69, 0
7, 51099, Channel_aftertouch_c, 5, 0
7, 51100, Note_on_c, 5, 77, 0
7, 51145, Note_on_c, 5, 53, 116
7, 51200, Note_on_c, 5, 53, 0
7, 51206, Note_on_c, 5, 77, 116
7, 51212, Channel_aftertouch_c, 5, 0
7, 51213, Note_on_c, 5, 69, 117
7, 51213, Note_on_c, 5, 72, 117
7, 51236, Note_on_c, 5, 69, 0
7, 51236, Note_on_c, 5, 72, 0
7, 51241, Channel_aftertouch_c, 5, 0
7, 51243, Note_on_c, 5, 77, 0
7, 51293, Note_on_c, 5, 53, 115
7, 51328, Note_on_c, 5, 53, 0
7, 51350, Note_on_c, 5, 69, 116
7, 51350, Note_on_c, 5, 75, 117
7, 51351, Note_on_c, 5, 72, 117
7, 51369, Channel_aftertouch_c, 5, 5
7, 51400, Channel_aftertouch_c, 5, 0
7, 51426, Channel_aftertouch_c, 5, 0
7, 51433, Note_on_c, 5, 69, 0
7, 51438, Note_on_c, 5, 72, 0
7, 51449, Note_on_c, 5, 75, 0
7, 51455, Note_on_c, 5, 67, 109
7, 51455, Note_on_c, 5, 74, 104
7, 51462, Note_on_c, 5, 72, 110
7, 51468, Note_on_c, 5, 48, 116
7, 51490, Channel_aftertouch_c, 5, 6
7, 51496, Note_on_c, 5, 67, 0
7, 51496, Note_on_c, 5, 74, 0
7, 51503, Note_on_c, 5, 72, 0
7, 51518, Channel_aftertouch_c, 5, 0
7, 51588, Note_on_c, 5, 48, 0
7, 51638, Note_on_c, 5, 67, 117
7, 51639, Note_on_c, 5, 72, 117
7, 51646, Note_on_c, 5, 70, 117
7, 51656, Channel_aftertouch_c, 5, 0
7, 51662, Note_on_c, 5, 70, 0
7, 51668, Note_on_c, 5, 72, 0
7, 51678, Note_on_c, 5, 70, 105
7, 51678, Note_on_c, 5, 72, 105
7, 51700, Note_on_c, 5, 67, 0
7, 51706, Note_on_c, 5, 70, 0
7, 51706, Note_on_c, 5, 72, 0
7, 51746, Note_on_c, 5, 48, 116
7, 51772, Note_on_c, 5, 48, 0
7, 51783, Note_on_c, 5, 48, 107
7, 51819, Note_on_c, 5, 48, 0
7, 51834, Note_on_c, 5, 70, 117
7, 51835, Note_on_c, 5, 67, 117
7, 51835, Note_on_c, 5, 72, 117
7, 51853, Channel_aftertouch_c, 5, 0
7, 51859, Note_on_c, 5, 67, 0
7, 51859, Note_on_c, 5, 70, 0
7, 51860, Note_on_c, 5, 72, 0
7, 51916, Note_on_c, 5, 48, 117
7, 51961, Note_on_c, 5, 48, 0
7, 51977, Note_on_c, 5, 70, 117
7, 51977, Note_on_c, 5, 72, 117
7, 51984, Note_on_c, 5, 67, 117
7, 51996, Channel_aftertouch_c, 5, 0
7, 52003, Note_on_c, 5, 67, 0
7, 52003, Note_on_c, 5, 70, 0
7, 52008, Note_on_c, 5, 72, 0
7, 52064, Note_on_c, 5, 48, 117
7, 52099, Note_on_c, 5, 48, 0
7, 52110, Note_on_c, 5, 46, 113
7, 52116, Note_on_c, 5, 70, 117
7, 52117, Note_on_c, 5, 67, 117
7, 52128, Channel_aftertouch_c, 5, 8
7, 52155, Channel_aftertouch_c, 5, 10
7, 52181, Channel_aftertouch_c, 5, 7
7, 52209, Note_on_c, 5, 46, 0
7, 52213, Channel_aftertouch_c, 5, 0
7, 52219, Note_on_c, 5, 48, 117
7, 52220, Note_on_c, 5, 72, 114
7, 52232, Note_on_c, 5, 70, 0
7, 52238, Channel_aftertouch_c, 5, 7
7, 52239, Note_on_c, 5, 67, 0
7, 52249, Note_on_c, 5, 72, 0
7, 52270, Channel_aftertouch_c, 5, 0
7, 52376, Note_on_c, 5, 48, 0
7, 52411, Note_on_c, 5, 70, 117
7, 52417, Note_on_c, 5, 67, 117
7, 52418, Note_on_c, 5, 72, 117
7, 52430, Note_on_c, 5, 67, 0
7, 52430, Note_on_c, 5, 70, 0
7, 52430, Note_on_c, 5, 72, 0
7, 52436, Channel_aftertouch_c, 5, 0
7, 52452, Note_on_c, 5, 70, 109
7, 52453, Note_on_c, 5, 72, 112
7, 52484, Note_on_c, 5, 70, 0
7, 52485, Note_on_c, 5, 72, 0
7, 52510, Note_on_c, 5, 48, 115
7, 52531, Note_on_c, 5, 48, 0
7, 52547, Note_on_c, 5, 48, 110
7, 52582, Note_on_c, 5, 48, 0
7, 52598, Note_on_c, 5, 67, 116
7, 52599, Note_on_c, 5, 70, 117
7, 52599, Note_on_c, 5, 72, 117
7, 52611, Channel_aftertouch_c, 5, 0
7, 52623, Note_on_c, 5, 67, 0
7, 52623, Note_on_c, 5, 70, 0
7, 52623, Note_on_c, 5, 72, 0
7, 52679, Note_on_c, 5, 48, 117
7, 52740, Note_on_c, 5, 67, 113
7, 52740, Note_on_c, 5, 70, 117
7, 52740, Note_on_c, 5, 72, 117
7, 52741, Note_on_c, 5, 48, 0
7, 52768, Note_on_c, 5, 70, 0
7, 52769, Note_on_c, 5, 67, 0
7, 52769, Note_on_c, 5, 72, 0
7, 52840, Note_on_c, 5, 48, 110
7, 52860, Note_on_c, 5, 70, 117
7, 52867, Note_on_c, 5, 46, 113
7, 52867, Note_on_c, 5, 64, 117
7, 52867, Note_on_c, 5, 67, 117
7, 52876, Note_on_c, 5, 48, 0
7, 52886, Channel_aftertouch_c, 5, 8
7, 52919, Channel_aftertouch_c, 5, 0
7, 52964, Note_on_c, 5, 46, 0
7, 52974, Note_on_c, 5, 72, 113
7, 52981, Note_on_c, 5, 48, 117
7, 52981, Note_on_c, 5, 64, 0
7, 52988, Note_on_c, 5, 70, 0
7, 52994, Note_on_c, 5, 67, 0
7, 52999, Channel_aftertouch_c, 5, 5
7, 53010, Note_on_c, 5, 72, 0
7, 53026, Channel_aftertouch_c, 5, 1
7, 53076, Channel_aftertouch_c, 5, 0
7, 53132, Note_on_c, 5, 48, 0
7, 53171, Note_on_c, 5, 70, 117
7, 53172, Note_on_c, 5, 67, 115
7, 53172, Note_on_c, 5, 72, 117
7, 53190, Note_on_c, 5, 67, 0
7, 53190, Note_on_c, 5, 70, 0
7, 53190, Note_on_c, 5, 72, 0
7, 53211, Note_on_c, 5, 70, 109
7, 53212, Note_on_c, 5, 72, 112
7, 53219, Note_on_c, 5, 67, 103
7, 53235, Note_on_c, 5, 67, 0
7, 53240, Note_on_c, 5, 70, 0
7, 53245, Note_on_c, 5, 72, 0
7, 53266, Note_on_c, 5, 48, 112
7, 53282, Note_on_c, 5, 48, 0
7, 53303, Note_on_c, 5, 48, 110
7, 53364, Note_on_c, 5, 48, 0
7, 53365, Note_on_c, 5, 67, 116
7, 53365, Note_on_c, 5, 70, 117
7, 53365, Note_on_c, 5, 72, 117
7, 53383, Channel_aftertouch_c, 5, 0
7, 53384, Note_on_c, 5, 67, 0
7, 53389, Note_on_c, 5, 70, 0
7, 53390, Note_on_c, 5, 72, 0
7, 53455, Note_on_c, 5, 48, 117
7, 53501, Note_on_c, 5, 48, 0
7, 53516, Note_on_c, 5, 70, 117
7, 53517, Note_on_c, 5, 67, 116
7, 53517, Note_on_c, 5, 72, 117
7, 53534, Channel_aftertouch_c, 5, 0
7, 53535, Note_on_c, 5, 70, 0
7, 53540, Note_on_c, 5, 67, 0
7, 53546, Note_on_c, 5, 72, 0
7, 53601, Note_on_c, 5, 48, 116
7, 53637, Note_on_c, 5, 48, 0
7, 53647, Note_on_c, 5, 46, 113
7, 53648, Note_on_c, 5, 67, 117
7, 53648, Note_on_c, 5, 70, 117
7, 53671, Channel_aftertouch_c, 5, 10
7, 53697, Channel_aftertouch_c, 5, 6
7, 53739, Note_on_c, 5, 67, 0
7, 53745, Note_on_c, 5, 46, 0
7, 53755, Channel_aftertouch_c, 5, 0
7, 53756, Note_on_c, 5, 48, 117
7, 53762, Note_on_c, 5, 67, 108
7, 53763, Note_on_c, 5, 72, 113
7, 53770, Note_on_c, 5, 70, 0
7, 53782, Note_on_c, 5, 67, 0
7, 53791, Channel_aftertouch_c, 5, 5
7, 53793, Note_on_c, 5, 72, 0
7, 53818, Channel_aftertouch_c, 5, 0
7, 53918, Note_on_c, 5, 48, 0
7, 53953, Note_on_c, 5, 70, 117
7, 53954, Note_on_c, 5, 67, 117
7, 53954, Note_on_c, 5, 72, 117
7, 53967, Note_on_c, 5, 72, 0
7, 53972, Channel_aftertouch_c, 5, 0
7, 53973, Note_on_c, 5, 67, 0
7, 53973, Note_on_c, 5, 70, 0
7, 53989, Note_on_c, 5, 70, 108
7, 53995, Note_on_c, 5, 72, 113
7, 53996, Note_on_c, 5, 67, 106
7, 54018, Note_on_c, 5, 67, 0
7, 54018, Note_on_c, 5, 70, 0
7, 54018, Note_on_c, 5, 72, 0
7, 54044, Note_on_c, 5, 48, 115
7, 54070, Note_on_c, 5, 48, 0
7, 54080, Note_on_c, 5, 48, 109
7, 54112, Channel_aftertouch_c, 5, 0
7, 54118, Note_on_c, 5, 48, 0
7, 54133, Note_on_c, 5, 67, 116
7, 54133, Note_on_c, 5, 70, 117
7, 54134, Note_on_c, 5, 72, 117
7, 54152, Channel_aftertouch_c, 5, 0
7, 54158, Note_on_c, 5, 67, 0
7, 54158, Note_on_c, 5, 70, 0
7, 54159, Note_on_c, 5, 72, 0
7, 54219, Note_on_c, 5, 48, 117
7, 54260, Note_on_c, 5, 48, 0
7, 54276, Note_on_c, 5, 70, 117
7, 54276, Note_on_c, 5, 72, 117
7, 54284, Note_on_c, 5, 67, 116
7, 54304, Channel_aftertouch_c, 5, 0
7, 54306, Note_on_c, 5, 67, 0
7, 54306, Note_on_c, 5, 70, 0
7, 54312, Note_on_c, 5, 72, 0
7, 54353, Note_on_c, 5, 48, 116
7, 54383, Channel_aftertouch_c, 5, 0
7, 54399, Note_on_c, 5, 46, 111
7, 54405, Note_on_c, 5, 48, 0
7, 54410, Note_on_c, 5, 67, 114
7, 54411, Note_on_c, 5, 70, 117
7, 54411, Note_on_c, 5, 72, 117
7, 54418, Channel_aftertouch_c, 5, 1
7, 54465, Note_on_c, 5, 46, 0
7, 54470, Channel_aftertouch_c, 5, 3
7, 54502, Note_on_c, 5, 67, 0
7, 54502, Note_on_c, 5, 70, 0
7, 54507, Channel_aftertouch_c, 5, 0
7, 54513, Note_on_c, 5, 72, 0
7, 54514, Note_on_c, 5, 55, 117
7, 54546, Channel_aftertouch_c, 5, 12
7, 54616, Channel_aftertouch_c, 5, 8
7, 54690, Channel_aftertouch_c, 5, 7
7, 54717, Channel_aftertouch_c, 5, 0
7, 54718, Note_on_c, 5, 55, 0
7, 54724, Note_on_c, 5, 71, 117
7, 54724, Note_on_c, 5, 74, 117
7, 54725, Note_on_c, 5, 79, 115
7, 54742, Note_on_c, 5, 71, 0
7, 54742, Note_on_c, 5, 74, 0
7, 54758, Note_on_c, 5, 74, 111
7, 54770, Note_on_c, 5, 71, 101
7, 54780, Channel_aftertouch_c, 5, 0
7, 54781, Note_on_c, 5, 71, 0
7, 54782, Note_on_c, 5, 74, 0
7, 54787, Note_on_c, 5, 79, 0
7, 54812, Note_on_c, 5, 55, 115
7, 54843, Note_on_c, 5, 55, 0
7, 54849, Note_on_c, 5, 55, 104
7, 54875, Channel_aftertouch_c, 5, 0
7, 54886, Note_on_c, 5, 55, 0
7, 54906, Note_on_c, 5, 79, 116
7, 54907, Note_on_c, 5, 71, 117
7, 54907, Note_on_c, 5, 74, 117
7, 54914, Channel_aftertouch_c, 5, 3
7, 54926, Note_on_c, 5, 71, 0
7, 54926, Note_on_c, 5, 74, 0
7, 54932, Note_on_c, 5, 79, 0
7, 54937, Channel_aftertouch_c, 5, 0
7, 54983, Note_on_c, 5, 55, 117
7, 55009, Note_on_c, 5, 55, 0
7, 55044, Note_on_c, 5, 71, 117
7, 55044, Note_on_c, 5, 74, 117
7, 55044, Note_on_c, 5, 79, 115
7, 55056, Channel_aftertouch_c, 5, 4
7, 55068, Note_on_c, 5, 71, 0
7, 55069, Note_on_c, 5, 74, 0
7, 55075, Note_on_c, 5, 79, 0
7, 55080, Channel_aftertouch_c, 5, 0
7, 55131, Note_on_c, 5, 55, 117
7, 55151, Note_on_c, 5, 55, 0
7, 55177, Note_on_c, 5, 71, 116
7, 55177, Note_on_c, 5, 74, 117
7, 55177, Note_on_c, 5, 79, 116
7, 55205, Channel_aftertouch_c, 5, 14
7, 55232, Channel_aftertouch_c, 5, 0
7, 55248, Note_on_c, 5, 74, 0
7, 55249, Note_on_c, 5, 71, 0
7, 55254, Note_on_c, 5, 79, 0
7, 55275, Note_on_c, 5, 55, 117
7, 55306, Channel_aftertouch_c, 5, 17
7, 55333, Channel_aftertouch_c, 5, 11
7, 55363, Channel_aftertouch_c, 5, 10
7, 55412, Channel_aftertouch_c, 5, 11
7, 55438, Channel_aftertouch_c, 5, 13
7, 55460, Note_on_c, 5, 55, 0
7, 55465, Channel_aftertouch_c, 5, 0
7, 55477, Note_on_c, 5, 71, 117
7, 55477, Note_on_c, 5, 74, 117
7, 55477, Note_on_c, 5, 79, 117
7, 55496, Note_on_c, 5, 71, 0
7, 55496, Note_on_c, 5, 74, 0
7, 55502, Note_on_c, 5, 79, 0
7, 55513, Note_on_c, 5, 79, 108
7, 55519, Note_on_c, 5, 71, 106
7, 55519, Note_on_c, 5, 74, 111
7, 55535, Channel_aftertouch_c, 5, 0
7, 55547, Note_on_c, 5, 71, 0
7, 55547, Note_on_c, 5, 74, 0
7, 55553, Note_on_c, 5, 79, 0
7, 55578, Note_on_c, 5, 55, 115
7, 55599, Note_on_c, 5, 55, 0
7, 55668, Note_on_c, 5, 55, 117
7, 55668, Note_on_c, 5, 79, 117
7, 55676, Note_on_c, 5, 71, 117
7, 55676, Note_on_c, 5, 74, 117
7, 55695, Channel_aftertouch_c, 5, 32
7, 55721, Channel_aftertouch_c, 5, 16
7, 55747, Channel_aftertouch_c, 5, 14
7, 55773, Channel_aftertouch_c, 5, 9
7, 55785, Note_on_c, 5, 79, 0
7, 55790, Note_on_c, 5, 71, 0
7, 55791, Note_on_c, 5, 74, 0
7, 55796, Channel_aftertouch_c, 5, 0
7, 55802, Note_on_c, 5, 55, 0
7, 55867, Note_on_c, 5, 70, 114
7, 55867, Note_on_c, 5, 78, 117
7, 55868, Note_on_c, 5, 73, 117
7, 55874, Note_on_c, 5, 54, 117
7, 55891, Channel_aftertouch_c, 5, 7
7, 55918, Channel_aftertouch_c, 5, 0
7, 55978, Note_on_c, 5, 73, 0
7, 55984, Note_on_c, 5, 70, 0
7, 55990, Note_on_c, 5, 78, 0
7, 55995, Note_on_c, 5, 54, 0
7, 56060, Note_on_c, 5, 53, 117
7, 56060, Note_on_c, 5, 72, 117
7, 56060, Note_on_c, 5, 77, 115
7, 56061, Note_on_c, 5, 69, 117
7, 56090, Channel_aftertouch_c, 5, 34
7, 56117, Channel_aftertouch_c, 5, 14
7, 56144, Channel_aftertouch_c, 5, 0
7, 56145, Note_on_c, 5, 77, 0
7, 56146, Note_on_c, 5, 69, 0
7, 56146, Note_on_c, 5, 72, 0
7, 56166, Note_on_c, 5, 53, 0
7, 57275, Note_on_c, 5, 75, 117
7, 57280, Channel_aftertouch_c, 5, 1
7, 57281, Note_on_c, 5, 69, 117
7, 57281, Note_on_c, 5, 72, 117
7, 57282, Note_on_c, 5, 79, 117
7, 57306, Channel_aftertouch_c, 5, 0
7, 57337, Note_on_c, 5, 72, 0
7, 57372, Note_on_c, 5, 72, 108
7, 57382, Note_on_c, 5, 75, 0
7, 57393, Note_on_c, 5, 75, 103
7, 57414, Note_on_c, 5, 75, 0
7, 57419, Note_on_c, 5, 79, 0
7, 57439, Note_on_c, 5, 75, 105
7, 57465, Note_on_c, 5, 75, 0
7, 57470, Note_on_c, 5, 72, 0
7, 57471, Note_on_c, 5, 71, 109
7, 57497, Note_on_c, 5, 67, 100
7, 57497, Note_on_c, 5, 71, 0
7, 57514, Note_on_c, 5, 69, 0
7, 57519, Note_on_c, 5, 65, 106
7, 57530, Note_on_c, 5, 67, 0
7, 57535, Note_on_c, 5, 64, 100
7, 57546, Note_on_c, 5, 65, 0
7, 57552, Note_on_c, 5, 62, 100
7, 57563, Note_on_c, 5, 64, 0
7, 57568, Note_on_c, 5, 60, 99
7, 57574, Note_on_c, 5, 62, 0
7, 57579, Note_on_c, 5, 59, 100
7, 57582, Note_on_c, 5, 57, 106
7, 57588, Note_on_c, 5, 57, 0
7, 57590, Note_on_c, 5, 60, 0
7, 57596, Note_on_c, 5, 59, 0
7, 57608, Note_on_c, 5, 48, 116
7, 57645, Channel_aftertouch_c, 5, 5
7, 57686, Channel_aftertouch_c, 5, 2
7, 57712, Channel_aftertouch_c, 5, 0
7, 57758, Channel_aftertouch_c, 5, 2
7, 57783, Channel_aftertouch_c, 5, 0
7, 57789, Note_on_c, 5, 48, 0
7, 57795, Note_on_c, 5, 67, 113
7, 57795, Note_on_c, 5, 70, 115
7, 57796, Note_on_c, 5, 72, 116
7, 57803, Note_on_c, 5, 72, 0
7, 57809, Note_on_c, 5, 67, 0
7, 57809, Note_on_c, 5, 70, 0
7, 57825, Note_on_c, 5, 70, 108
7, 57831, Note_on_c, 5, 67, 105
7, 57831, Note_on_c, 5, 72, 112
7, 57848, Note_on_c, 5, 67, 0
7, 57853, Note_on_c, 5, 70, 0
7, 57854, Note_on_c, 5, 72, 0
7, 57884, Note_on_c, 5, 48, 116
7, 57979, Note_on_c, 5, 48, 0
7, 57980, Note_on_c, 5, 70, 117
7, 57987, Note_on_c, 5, 67, 116
7, 57987, Note_on_c, 5, 72, 117
7, 57994, Note_on_c, 5, 67, 0
7, 57994, Channel_aftertouch_c, 5, 0
7, 58000, Note_on_c, 5, 70, 0
7, 58000, Note_on_c, 5, 72, 0
7, 58066, Note_on_c, 5, 48, 117
7, 58101, Note_on_c, 5, 48, 0
7, 58127, Note_on_c, 5, 70, 117
7, 58127, Note_on_c, 5, 72, 117
7, 58128, Note_on_c, 5, 67, 116
7, 58145, Note_on_c, 5, 67, 0
7, 58146, Note_on_c, 5, 70, 0
7, 58151, Note_on_c, 5, 72, 0
7, 58211, Note_on_c, 5, 48, 112
7, 58242, Note_on_c, 5, 46, 112
7, 58253, Note_on_c, 5, 67, 117
7, 58254, Note_on_c, 5, 48, 0
7, 58254, Note_on_c, 5, 70, 117
7, 58271, Channel_aftertouch_c, 5, 7
7, 58298, Channel_aftertouch_c, 5, 4
7, 58339, Note_on_c, 5, 67, 0
7, 58350, Channel_aftertouch_c, 5, 0
7, 58356, Note_on_c, 5, 46, 0
7, 58361, Note_on_c, 5, 48, 117
7, 58367, Note_on_c, 5, 67, 107
7, 58367, Note_on_c, 5, 72, 112
7, 58375, Note_on_c, 5, 70, 0
7, 58385, Channel_aftertouch_c, 5, 5
7, 58386, Note_on_c, 5, 67, 0
7, 58387, Note_on_c, 5, 72, 0
7, 58413, Channel_aftertouch_c, 5, 0
7, 58538, Note_on_c, 5, 48, 0
7, 58558, Note_on_c, 5, 70, 117
7, 58559, Note_on_c, 5, 67, 116
7, 58559, Note_on_c, 5, 72, 117
7, 58571, Channel_aftertouch_c, 5, 0
7, 58572, Note_on_c, 5, 70, 0
7, 58572, Note_on_c, 5, 72, 0
7, 58578, Note_on_c, 5, 67, 0
7, 58599, Note_on_c, 5, 67, 107
7, 58599, Note_on_c, 5, 70, 112
7, 58599, Note_on_c, 5, 72, 114
7, 58612, Note_on_c, 5, 67, 0
7, 58618, Note_on_c, 5, 70, 0
7, 58624, Note_on_c, 5, 72, 0
7, 58649, Note_on_c, 5, 48, 115
7, 58670, Note_on_c, 5, 48, 0
7, 58686, Note_on_c, 5, 48, 110
7, 58722, Note_on_c, 5, 48, 0
7, 58743, Note_on_c, 5, 67, 115
7, 58743, Note_on_c, 5, 70, 117
7, 58743, Note_on_c, 5, 72, 117
7, 58756, Note_on_c, 5, 67, 0
7, 58761, Note_on_c, 5, 70, 0
7, 58762, Note_on_c, 5, 72, 0
7, 58837, Note_on_c, 5, 48, 114
7, 58863, Note_on_c, 5, 48, 0
7, 58888, Note_on_c, 5, 67, 114
7, 58888, Note_on_c, 5, 72, 117
7, 58910, Note_on_c, 5, 67, 0
7, 58916, Note_on_c, 5, 72, 0
7, 58975, Note_on_c, 5, 48, 116
7, 59016, Note_on_c, 5, 46, 113
7, 59016, Note_on_c, 5, 70, 117
7, 59017, Note_on_c, 5, 67, 116
7, 59025, Note_on_c, 5, 48, 0
7, 59030, Channel_aftertouch_c, 5, 1
7, 59070, Channel_aftertouch_c, 5, 0
7, 59100, Channel_aftertouch_c, 5, 0
7, 59112, Note_on_c, 5, 67, 0
7, 59117, Note_on_c, 5, 46, 0
7, 59127, Note_on_c, 5, 67, 106
7, 59128, Note_on_c, 5, 48, 117
7, 59129, Note_on_c, 5, 72, 113
7, 59137, Note_on_c, 5, 70, 0
7, 59146, Channel_aftertouch_c, 5, 3
7, 59148, Note_on_c, 5, 67, 0
7, 59154, Note_on_c, 5, 72, 0
7, 59175, Channel_aftertouch_c, 5, 1
7, 59206, Channel_aftertouch_c, 5, 0
7, 59286, Note_on_c, 5, 48, 0
7, 59325, Note_on_c, 5, 72, 117
7, 59326, Note_on_c, 5, 67, 116
7, 59347, Note_on_c, 5, 72, 0
7, 59353, Note_on_c, 5, 67, 0
7, 59363, Note_on_c, 5, 72, 110
7, 59370, Note_on_c, 5, 67, 102
7, 59385, Note_on_c, 5, 67, 0
7, 59391, Note_on_c, 5, 72, 0
7, 59416, Note_on_c, 5, 48, 112
7, 59437, Note_on_c, 5, 48, 0
7, 59453, Note_on_c, 5, 48, 106
7, 59494, Note_on_c, 5, 48, 0
7, 59514, Note_on_c, 5, 72, 117
7, 59515, Note_on_c, 5, 67, 114
7, 59531, Note_on_c, 5, 67, 0
7, 59537, Note_on_c, 5, 72, 0
7, 59606, Note_on_c, 5, 48, 112
7, 59632, Note_on_c, 5, 48, 0
7, 59658, Note_on_c, 5, 67, 114
7, 59658, Note_on_c, 5, 72, 117
7, 59675, Channel_aftertouch_c, 5, 0
7, 59681, Note_on_c, 5, 67, 0
7, 59686, Note_on_c, 5, 72, 0
7, 59742, Note_on_c, 5, 48, 115
7, 59787, Note_on_c, 5, 48, 0
7, 59788, Note_on_c, 5, 46, 110
7, 59788, Note_on_c, 5, 67, 115
7, 59788, Note_on_c, 5, 70, 117
7, 59795, Channel_aftertouch_c, 5, 0
7, 59821, Channel_aftertouch_c, 5, 0
7, 59881, Note_on_c, 5, 46, 0
7, 59891, Note_on_c, 5, 48, 117
7, 59898, Note_on_c, 5, 72, 114
7, 59904, Note_on_c, 5, 70, 0
7, 59914, Channel_aftertouch_c, 5, 5
7, 59921, Note_on_c, 5, 67, 0
7, 59927, Note_on_c, 5, 72, 0
7, 59942, Channel_aftertouch_c, 5, 0
7, 60057, Note_on_c, 5, 48, 0
7, 60092, Note_on_c, 5, 67, 113
7, 60092, Note_on_c, 5, 72, 117
7, 60114, Note_on_c, 5, 67, 0
7, 60114, Note_on_c, 5, 72, 0
7, 60135, Note_on_c, 5, 72, 111
7, 60161, Note_on_c, 5, 72, 0
7, 60187, Note_on_c, 5, 48, 105
7, 60193, Note_on_c, 5, 48, 0
7, 60213, Note_on_c, 5, 48, 109
7, 60254, Note_on_c, 5, 48, 0
7, 60275, Note_on_c, 5, 67, 114
7, 60275, Note_on_c, 5, 72, 117
7, 60297, Note_on_c, 5, 67, 0
7, 60302, Note_on_c, 5, 72, 0
7, 60367, Note_on_c, 5, 48, 115
7, 60403, Note_on_c, 5, 48, 0
7, 60424, Note_on_c, 5, 67, 117
7, 60424, Note_on_c, 5, 72, 117
7, 60446, Channel_aftertouch_c, 5, 0
7, 60453, Note_on_c, 5, 67, 0
7, 60453, Note_on_c, 5, 72, 0
7, 60508, Note_on_c, 5, 48, 116
7, 60554, Note_on_c, 5, 67, 115
7, 60554, Note_on_c, 5, 70, 117
7, 60560, Note_on_c, 5, 46, 112
7, 60567, Note_on_c, 5, 48, 0
7, 60578, Channel_aftertouch_c, 5, 2
7, 60639, Note_on_c, 5, 67, 0
7, 60650, Channel_aftertouch_c, 5, 0
7, 60651, Note_on_c, 5, 46, 0
7, 60661, Note_on_c, 5, 48, 117
7, 60661, Note_on_c, 5, 67, 109
7, 60662, Note_on_c, 5, 72, 116
7, 60676, Note_on_c, 5, 70, 0
7, 60703, Note_on_c, 5, 67, 0
7, 60703, Note_on_c, 5, 72, 0
7, 60731, Note_on_c, 5, 48, 0
7, 62208, Note_on_c, 5, 72, 117
7, 62208, Note_on_c, 5, 76, 117
7, 62208, Note_on_c, 5, 79, 113
7, 62214, Channel_aftertouch_c, 5, 8
7, 62242, Channel_aftertouch_c, 5, 0
7, 62526, Channel_aftertouch_c, 5, 0
7, 62548, Note_on_c, 5, 72, 0
7, 62553, Channel_aftertouch_c, 5, 0
7, 62569, Note_on_c, 5, 74, 105
7, 62569, Note_on_c, 5, 77, 99
7, 62576, Note_on_c, 5, 70, 106
7, 62580, Note_on_c, 5, 79, 0
7, 62592, Channel_aftertouch_c, 5, 0
7, 62604, Note_on_c, 5, 76, 0
7, 62617, Channel_aftertouch_c, 5, 2
7, 62662, Note_on_c, 5, 70, 0
7, 62673, Note_on_c, 5, 76, 105
7, 62680, Note_on_c, 5, 72, 104
7, 62680, Note_on_c, 5, 79, 107
7, 62692, Channel_aftertouch_c, 5, 5
7, 62693, Note_on_c, 5, 77, 0
7, 62704, Note_on_c, 5, 74, 0
7, 62720, Channel_aftertouch_c, 5, 6
7, 62746, Channel_aftertouch_c, 5, 0
7, 62748, Note_on_c, 5, 72, 0
7, 62753, Note_on_c, 5, 76, 0
7, 62753, Note_on_c, 5, 79, 0
7, 62862, Note_on_c, 5, 76, 117
7, 62868, Note_on_c, 5, 72, 116
7, 62868, Note_on_c, 5, 79, 111
7, 62885, Channel_aftertouch_c, 5, 0
7, 63232, Control_c, 5, 1, 2
7, 63247, Control_c, 5, 1, 28
7, 63262, Control_c, 5, 1, 52
7, 63278, Control_c, 5, 1, 69
7, 63293, Control_c, 5, 1, 80
7, 63308, Control_c, 5, 1, 87
7, 63323, Control_c, 5, 1, 91
7, 63339, Control_c, 5, 1, 96
7, 63359, Control_c, 5, 1, 99
7, 63374, Control_c, 5, 1, 98
7, 63385, Note_on_c, 5, 72, 0
7, 63385, Note_on_c, 5, 79, 0
7, 63386, Note_on_c, 5, 76, 0
7, 63391, Control_c, 5, 1, 65
7, 63406, Control_c, 5, 1, 7
7, 63422, Control_c, 5, 1, 0
7, 65268, Note_on_c, 5, 72, 117
7, 65268, Note_on_c, 5, 76, 117
7, 65274, Channel_aftertouch_c, 5, 0
7, 65275, Note_on_c, 5, 79, 114
7, 65302, Channel_aftertouch_c, 5, 0
7, 65601, Note_on_c, 5, 72, 0
7, 65631, Note_on_c, 5, 79, 0
7, 65642, Note_on_c, 5, 76, 0
7, 65651, Note_on_c, 5, 70, 105
7, 65652, Note_on_c, 5, 77, 99
7, 65653, Note_on_c, 5, 74, 104
7, 65718, Channel_aftertouch_c, 5, 0
7, 65742, Note_on_c, 5, 70, 0
7, 65744, Channel_aftertouch_c, 5, 0
7, 65750, Note_on_c, 5, 79, 105
7, 65751, Note_on_c, 5, 72, 110
7, 65751, Note_on_c, 5, 76, 108
7, 65775, Note_on_c, 5, 74, 0
7, 65775, Channel_aftertouch_c, 5, 10
7, 65785, Note_on_c, 5, 77, 0
7, 65807, Channel_aftertouch_c, 5, 0
7, 65813, Note_on_c, 5, 72, 0
7, 65819, Note_on_c, 5, 76, 0
7, 65819, Note_on_c, 5, 79, 0
7, 65928, Note_on_c, 5, 76, 117
7, 65928, Note_on_c, 5, 79, 114
7, 65929, Note_on_c, 5, 72, 117
7, 65946, Channel_aftertouch_c, 5, 0
7, 66216, Channel_aftertouch_c, 5, 0
7, 66260, Channel_aftertouch_c, 5, 1
7, 66305, Control_c, 5, 1, 3
7, 66320, Control_c, 5, 1, 12
7, 66336, Control_c, 5, 1, 27
7, 66351, Control_c, 5, 1, 48
7, 66366, Control_c, 5, 1, 70
7, 66371, Channel_aftertouch_c, 5, 2
7, 66382, Control_c, 5, 1, 81
7, 66398, Control_c, 5, 1, 89
7, 66398, Channel_aftertouch_c, 5, 5
7, 66415, Control_c, 5, 1, 95
7, 66425, Channel_aftertouch_c, 5, 9
7, 66446, Control_c, 5, 1, 89
7, 66451, Channel_aftertouch_c, 5, 8
7, 66462, Control_c, 5, 1, 57
7, 66463, Note_on_c, 5, 72, 0
7, 66470, Note_on_c, 5, 76, 0
7, 66470, Note_on_c, 5, 79, 0
7, 66475, Channel_aftertouch_c, 5, 0
7, 66481, Control_c, 5, 1, 5
7, 66496, Control_c, 5, 1, 0
7, 68352, Note_on_c, 5, 72, 117
7, 68352, Note_on_c, 5, 77, 117
7, 68353, Note_on_c, 5, 81, 117
7, 68365, Channel_aftertouch_c, 5, 9
7, 68392, Channel_aftertouch_c, 5, 0
7, 68422, Channel_aftertouch_c, 5, 1
7, 68447, Channel_aftertouch_c, 5, 6
7, 68474, Channel_aftertouch_c, 5, 12
7, 68568, Channel_aftertouch_c, 5, 9
7, 68594, Channel_aftertouch_c, 5, 3
7, 68624, Channel_aftertouch_c, 5, 5
7, 68659, Channel_aftertouch_c, 5, 6
7, 68670, Note_on_c, 5, 72, 0
7, 68696, Channel_aftertouch_c, 5, 0
7, 68697, Note_on_c, 5, 81, 0
7, 68707, Note_on_c, 5, 77, 0
7, 68713, Note_on_c, 5, 79, 98
7, 68716, Note_on_c, 5, 75, 99
7, 68720, Note_on_c, 5, 70, 98
7, 68794, Channel_aftertouch_c, 5, 0
7, 68800, Note_on_c, 5, 70, 0
7, 68811, Note_on_c, 5, 77, 105
7, 68811, Note_on_c, 5, 81, 107
7, 68818, Note_on_c, 5, 72, 109
7, 68829, Channel_aftertouch_c, 5, 5
7, 68835, Note_on_c, 5, 79, 0
7, 68844, Note_on_c, 5, 75, 0
7, 68856, Channel_aftertouch_c, 5, 9
7, 68883, Channel_aftertouch_c, 5, 0
7, 68884, Note_on_c, 5, 81, 0
7, 68889, Note_on_c, 5, 72, 0
7, 68889, Note_on_c, 5, 77, 0
7, 69002, Note_on_c, 5, 77, 116
7, 69003, Note_on_c, 5, 72, 115
7, 69004, Note_on_c, 5, 81, 113
7, 69025, Channel_aftertouch_c, 5, 0
7, 69286, Control_c, 5, 1, 2
7, 69301, Control_c, 5, 1, 9
7, 69316, Control_c, 5, 1, 21
7, 69331, Control_c, 5, 1, 36
7, 69346, Control_c, 5, 1, 47
7, 69362, Control_c, 5, 1, 55
7, 69377, Control_c, 5, 1, 62
7, 69392, Control_c, 5, 1, 71
7, 69407, Control_c, 5, 1, 76
7, 69423, Control_c, 5, 1, 81
7, 69438, Control_c, 5, 1, 86
7, 69453, Control_c, 5, 1, 90
7, 69468, Control_c, 5, 1, 95
7, 69484, Control_c, 5, 1, 102
7, 69499, Control_c, 5, 1, 110
7, 69514, Control_c, 5, 1, 108
7, 69525, Note_on_c, 5, 72, 0
7, 69525, Note_on_c, 5, 81, 0
7, 69530, Control_c, 5, 1, 74
7, 69531, Note_on_c, 5, 77, 0
7, 69546, Control_c, 5, 1, 8
7, 69561, Control_c, 5, 1, 0
7, 71408, Note_on_c, 5, 76, 117
7, 71408, Note_on_c, 5, 79, 116
7, 71409, Note_on_c, 5, 72, 117
7, 71421, Channel_aftertouch_c, 5, 6
7, 71447, Channel_aftertouch_c, 5, 0
7, 71551, Channel_aftertouch_c, 5, 0
7, 71586, Channel_aftertouch_c, 5, 0
7, 71685, Channel_aftertouch_c, 5, 0
7, 71711, Channel_aftertouch_c, 5, 2
7, 71741, Note_on_c, 5, 72, 0
7, 71752, Channel_aftertouch_c, 5, 0
7, 71753, Note_on_c, 5, 76, 0
7, 71753, Note_on_c, 5, 79, 0
7, 71784, Note_on_c, 5, 74, 117
7, 71791, Note_on_c, 5, 77, 112
7, 71791, Channel_aftertouch_c, 5, 0
7, 71794, Note_on_c, 5, 70, 112
7, 71817, Channel_aftertouch_c, 5, 6
7, 71848, Channel_aftertouch_c, 5, 3
7, 71885, Channel_aftertouch_c, 5, 0
7, 71886, Note_on_c, 5, 70, 0
7, 71886, Note_on_c, 5, 72, 111
7, 71886, Note_on_c, 5, 76, 107
7, 71887, Note_on_c, 5, 79, 109
7, 71906, Note_on_c, 5, 74, 0
7, 71911, Channel_aftertouch_c, 5, 18
7, 71913, Note_on_c, 5, 77, 0
7, 71938, Channel_aftertouch_c, 5, 12
7, 71964, Channel_aftertouch_c, 5, 0
7, 71965, Note_on_c, 5, 72, 0
7, 71965, Note_on_c, 5, 79, 0
7, 71966, Note_on_c, 5, 76, 0
7, 72075, Note_on_c, 5, 76, 117
7, 72075, Note_on_c, 5, 79, 116
7, 72083, Note_on_c, 5, 72, 117
7, 72088, Channel_aftertouch_c, 5, 5
7, 72115, Channel_aftertouch_c, 5, 0
7, 72356, Channel_aftertouch_c, 5, 0
7, 72380, Control_c, 5, 1, 0
7, 72395, Control_c, 5, 1, 4
7, 72401, Channel_aftertouch_c, 5, 1
7, 72411, Control_c, 5, 1, 11
7, 72426, Control_c, 5, 1, 25
7, 72441, Control_c, 5, 1, 45
7, 72457, Control_c, 5, 1, 60
7, 72462, Channel_aftertouch_c, 5, 2
7, 72472, Control_c, 5, 1, 74
7, 72487, Control_c, 5, 1, 87
7, 72503, Control_c, 5, 1, 94
7, 72518, Control_c, 5, 1, 97
7, 72533, Control_c, 5, 1, 100
7, 72548, Control_c, 5, 1, 103
7, 72569, Channel_aftertouch_c, 5, 3
7, 72589, Control_c, 5, 1, 102
7, 72595, Channel_aftertouch_c, 5, 0
7, 72601, Note_on_c, 5, 72, 0
7, 72601, Note_on_c, 5, 79, 0
7, 72607, Note_on_c, 5, 76, 0
7, 72607, Control_c, 5, 1, 65
7, 72623, Control_c, 5, 1, 6
7, 72638, Control_c, 5, 1, 0
7, 72940, Note_on_c, 5, 79, 112
7, 72941, Note_on_c, 5, 71, 114
7, 72942, Note_on_c, 5, 74, 116
7, 72954, Channel_aftertouch_c, 5, 3
7, 72980, Channel_aftertouch_c, 5, 0
7, 74242, Note_on_c, 5, 74, 0
7, 74248, Note_on_c, 5, 71, 0
7, 74248, Note_on_c, 5, 79, 0
7, 74293, Note_on_c, 5, 70, 108
7, 74293, Note_on_c, 5, 73, 114
7, 74294, Note_on_c, 5, 78, 116
7, 74478, Note_on_c, 5, 69, 105
7, 74478, Note_on_c, 5, 70, 0
7, 74478, Note_on_c, 5, 77, 101
7, 74485, Note_on_c, 5, 78, 0
7, 74486, Note_on_c, 5, 72, 117
7, 74486, Note_on_c, 5, 73, 0
7, 74504, Channel_aftertouch_c, 5, 7
7, 74527, Channel_aftertouch_c, 5, 10
7, 74554, Channel_aftertouch_c, 5, 0
7, 74575, Note_on_c, 5, 72, 0
7, 74575, Note_on_c, 5, 77, 0
7, 74581, Note_on_c, 5, 69, 0
7, 76028, Note_on_c, 5, 60, 116
7, 76028, Note_on_c, 5, 72, 114
7, 76056, Channel_aftertouch_c, 5, 4
7, 76083, Channel_aftertouch_c, 5, 0
7, 76112, Channel_aftertouch_c, 5, 1
7, 76158, Channel_aftertouch_c, 5, 0
7, 76344, Channel_aftertouch_c, 5, 0
7, 76374, Channel_aftertouch_c, 5, 0
7, 76404, Note_on_c, 5, 70, 105
7, 76425, Note_on_c, 5, 72, 0
7, 76430, Channel_aftertouch_c, 5, 1
7, 76465, Channel_aftertouch_c, 5, 0
7, 76515, Channel_aftertouch_c, 5, 0
7, 76774, Note_on_c, 5, 67, 108
7, 76780, Note_on_c, 5, 64, 103
7, 77313, Note_on_c, 5, 64, 0
7, 77314, Note_on_c, 5, 60, 0
7, 77324, Note_on_c, 5, 67, 0
7, 77330, Note_on_c, 5, 70, 0
7, 77365, Note_on_c, 5, 64, 109
7, 77365, Note_on_c, 5, 72, 109
7, 77366, Note_on_c, 5, 67, 115
7, 77400, Channel_aftertouch_c, 5, 0
7, 77564, Note_on_c, 5, 48, 109
7, 77653, Note_on_c, 5, 64, 0
7, 77654, Note_on_c, 5, 72, 0
7, 77655, Note_on_c, 5, 67, 0
7, 77690, Note_on_c, 5, 48, 0
7, 77745, Note_on_c, 5, 64, 116
7, 77745, Note_on_c, 5, 67, 116
7, 77746, Note_on_c, 5, 72, 106
7, 77758, Note_on_c, 5, 64, 0
7, 77758, Note_on_c, 5, 67, 0
7, 77759, Note_on_c, 5, 72, 0
7, 77780, Note_on_c, 5, 67, 110
7, 77780, Note_on_c, 5, 72, 107
7, 77781, Note_on_c, 5, 64, 101
7, 77803, Note_on_c, 5, 67, 0
7, 77808, Note_on_c, 5, 64, 0
7, 77809, Note_on_c, 5, 72, 0
7, 77938, Note_on_c, 5, 67, 117
7, 77938, Note_on_c, 5, 72, 116
7, 77939, Note_on_c, 5, 64, 116
7, 77962, Channel_aftertouch_c, 5, 0
7, 77963, Note_on_c, 5, 64, 0
7, 77963, Note_on_c, 5, 67, 0
7, 77968, Note_on_c, 5, 72, 0
7, 78082, Note_on_c, 5, 67, 117
7, 78082, Note_on_c, 5, 72, 116
7, 78083, Note_on_c, 5, 64, 116
7, 78106, Channel_aftertouch_c, 5, 0
7, 78107, Note_on_c, 5, 67, 0
7, 78108, Note_on_c, 5, 64, 0
7, 78108, Note_on_c, 5, 72, 0
7, 78183, Note_on_c, 5, 64, 110
7, 78183, Note_on_c, 5, 67, 117
7, 78183, Note_on_c, 5, 70, 117
7, 78196, Note_on_c, 5, 55, 114
7, 78222, Channel_aftertouch_c, 5, 2
7, 78252, Channel_aftertouch_c, 5, 1
7, 78282, Channel_aftertouch_c, 5, 0
7, 78312, Channel_aftertouch_c, 5, 0
7, 78317, Note_on_c, 5, 55, 0
7, 78328, Note_on_c, 5, 48, 112
7, 78334, Note_on_c, 5, 64, 0
7, 78334, Note_on_c, 5, 70, 0
7, 78340, Note_on_c, 5, 67, 0
7, 78390, Note_on_c, 5, 48, 0
7, 78524, Note_on_c, 5, 64, 115
7, 78525, Note_on_c, 5, 67, 111
7, 78525, Note_on_c, 5, 72, 109
7, 78538, Note_on_c, 5, 67, 0
7, 78549, Note_on_c, 5, 64, 0
7, 78554, Note_on_c, 5, 72, 0
7, 78560, Note_on_c, 5, 72, 91
7, 78566, Note_on_c, 5, 67, 107
7, 78567, Note_on_c, 5, 64, 93
7, 78593, Note_on_c, 5, 72, 0
7, 78594, Note_on_c, 5, 64, 0
7, 78594, Note_on_c, 5, 67, 0
7, 78713, Note_on_c, 5, 64, 109
7, 78713, Note_on_c, 5, 67, 115
7, 78713, Note_on_c, 5, 72, 108
7, 78731, Note_on_c, 5, 64, 0
7, 78731, Note_on_c, 5, 67, 0
7, 78736, Note_on_c, 5, 72, 0
7, 78860, Note_on_c, 5, 67, 117
7, 78860, Note_on_c, 5, 72, 116
7, 78861, Note_on_c, 5, 64, 117
7, 78889, Channel_aftertouch_c, 5, 0
7, 78890, Note_on_c, 5, 64, 0
7, 78890, Note_on_c, 5, 67, 0
7, 78896, Note_on_c, 5, 72, 0
7, 78960, Note_on_c, 5, 55, 109
7, 79085, Note_on_c, 5, 55, 0
7, 79104, Note_on_c, 5, 72, 114
7, 79104, Note_on_c, 5, 76, 115
7, 79104, Note_on_c, 5, 79, 107
7, 79110, Channel_aftertouch_c, 5, 8
7, 79138, Channel_aftertouch_c, 5, 0
7, 79422, Channel_aftertouch_c, 5, 0
7, 79444, Note_on_c, 5, 72, 0
7, 79449, Channel_aftertouch_c, 5, 0
7, 79465, Note_on_c, 5, 74, 99
7, 79465, Note_on_c, 5, 77, 93
7, 79472, Note_on_c, 5, 70, 100
7, 79476, Note_on_c, 5, 79, 0
7, 79488, Channel_aftertouch_c, 5, 0
7, 79500, Note_on_c, 5, 76, 0
7, 79513, Channel_aftertouch_c, 5, 2
7, 79558, Note_on_c, 5, 70, 0
7, 79569, Note_on_c, 5, 76, 99
7, 79576, Note_on_c, 5, 72, 98
7, 79576, Note_on_c, 5, 79, 101
7, 79588, Channel_aftertouch_c, 5, 5
7, 79589, Note_on_c, 5, 77, 0
7, 79600, Note_on_c, 5, 74, 0
7, 79616, Channel_aftertouch_c, 5, 6
7, 79642, Channel_aftertouch_c, 5, 0
7, 79644, Note_on_c, 5, 72, 0
7, 79649, Note_on_c, 5, 76, 0
7, 79649, Note_on_c, 5, 79, 0
7, 79758, Note_on_c, 5, 76, 114
7, 79764, Note_on_c, 5, 72, 110
7, 79764, Note_on_c, 5, 79, 105
7, 79781, Channel_aftertouch_c, 5, 0
7, 80128, Control_c, 5, 1, 2
7, 80143, Control_c, 5, 1, 28
7, 80158, Control_c, 5, 1, 52
7, 80174, Control_c, 5, 1, 69
7, 80189, Control_c, 5, 1, 80
7, 80204, Control_c, 5, 1, 87
7, 80219, Control_c, 5, 1, 91
7, 80235, Control_c, 5, 1, 96
7, 80255, Control_c, 5, 1, 99
7, 80270, Control_c, 5, 1, 98
7, 80281, Note_on_c, 5, 72, 0
7, 80281, Note_on_c, 5, 79, 0
7, 80282, Note_on_c, 5, 76, 0
7, 80287, Control_c, 5, 1, 65
7, 80302, Control_c, 5, 1, 7
7, 80318, Control_c, 5, 1, 0
7, 80640, Note_on_c, 5, 72, 114
7, 80640, Note_on_c, 5, 76, 115
7, 80640, Note_on_c, 5, 79, 107
7, 80646, Channel_aftertouch_c, 5, 8
7, 80674, Channel_aftertouch_c, 5, 0
7, 80958, Channel_aftertouch_c, 5, 0
7, 80980, Note_on_c, 5, 72, 0
7, 80985, Channel_aftertouch_c, 5, 0
7, 81001, Note_on_c, 5, 74, 99
7, 81001, Note_on_c, 5, 77, 93
7, 81008, Note_on_c, 5, 70, 100
7, 81012, Note_on_c, 5, 79, 0
7, 81024, Channel_aftertouch_c, 5, 0
7, 81036, Note_on_c, 5, 76, 0
7, 81049, Channel_aftertouch_c, 5, 2
7, 81094, Note_on_c, 5, 70, 0
7, 81105, Note_on_c, 5, 76, 99
7, 81112, Note_on_c, 5, 72, 98
7, 81112, Note_on_c, 5, 79, 101
7, 81124, Channel_aftertouch_c, 5, 5
7, 81125, Note_on_c, 5, 77, 0
7, 81136, Note_on_c, 5, 74, 0
7, 81152, Channel_aftertouch_c, 5, 6
7, 81178, Channel_aftertouch_c, 5, 0
7, 81180, Note_on_c, 5, 72, 0
7, 81185, Note_on_c, 5, 76, 0
7, 81185, Note_on_c, 5, 79, 0
7, 81294, Note_on_c, 5, 76, 114
7, 81300, Note_on_c, 5, 72, 110
7, 81300, Note_on_c, 5, 79, 105
7, 81317, Channel_aftertouch_c, 5, 0
7, 81664, Control_c, 5, 1, 2
7, 81679, Control_c, 5, 1, 28
7, 81694, Control_c, 5, 1, 52
7, 81710, Control_c, 5, 1, 69
7, 81725, Control_c, 5, 1, 80
7, 81740, Control_c, 5, 1, 87
7, 81755, Control_c, 5, 1, 91
7, 81771, Control_c, 5, 1, 96
7, 81791, Control_c, 5, 1, 99
7, 81806, Control_c, 5, 1, 98
7, 81817, Note_on_c, 5, 72, 0
7, 81817, Note_on_c, 5, 79, 0
7, 81818, Note_on_c, 5, 76, 0
7, 81823, Control_c, 5, 1, 65
7, 81838, Control_c, 5, 1, 7
7, 81854, Control_c, 5, 1, 0
7, 82176, Note_on_c, 5, 72, 114
7, 82176, Note_on_c, 5, 76, 115
7, 82176, Note_on_c, 5, 79, 107
7, 82182, Channel_aftertouch_c, 5, 8
7, 82210, Channel_aftertouch_c, 5, 0
7, 82494, Channel_aftertouch_c, 5, 0
7, 82516, Note_on_c, 5, 72, 0
7, 82521, Channel_aftertouch_c, 5, 0
7, 82537, Note_on_c, 5, 74, 99
7, 82537, Note_on_c, 5, 77, 93
7, 82544, Note_on_c, 5, 70, 100
7, 82548, Note_on_c, 5, 79, 0
7, 82560, Channel_aftertouch_c, 5, 0
7, 82572, Note_on_c, 5, 76, 0
7, 82585, Channel_aftertouch_c, 5, 2
7, 82630, Note_on_c, 5, 70, 0
7, 82641, Note_on_c, 5, 76, 99
7, 82648, Note_on_c, 5, 72, 98
7, 82648, Note_on_c, 5, 79, 101
7, 82660, Channel_aftertouch_c, 5, 5
7, 82661, Note_on_c, 5, 77, 0
7, 82672, Note_on_c, 5, 74, 0
7, 82688, Channel_aftertouch_c, 5, 6
7, 82714, Channel_aftertouch_c, 5, 0
7, 82716, Note_on_c, 5, 72, 0
7, 82721, Note_on_c, 5, 76, 0
7, 82721, Note_on_c, 5, 79, 0
7, 82830, Note_on_c, 5, 76, 114
7, 82836, Note_on_c, 5, 72, 110
7, 82836, Note_on_c, 5, 79, 105
7, 82853, Channel_aftertouch_c, 5, 0
7, 83200, Control_c, 5, 1, 2
7, 83215, Control_c, 5, 1, 28
7, 83230, Control_c, 5, 1, 52
7, 83246, Control_c, 5, 1, 69
7, 83261, Control_c, 5, 1, 80
7, 83276, Control_c, 5, 1, 87
7, 83291, Control_c, 5, 1, 91
7, 83307, Control_c, 5, 1, 96
7, 83327, Control_c, 5, 1, 99
7, 83342, Control_c, 5, 1, 98
7, 83353, Note_on_c, 5, 72, 0
7, 83353, Note_on_c, 5, 79, 0
7, 83354, Note_on_c, 5, 76, 0
7, 83359, Control_c, 5, 1, 65
7, 83374, Control_c, 5, 1, 7
7, 83390, Control_c, 5, 1, 0
7, 83712, Note_on_c, 5, 72, 114
7, 83712, Note_on_c, 5, 76, 115
7, 83712, Note_on_c, 5, 79, 107
7, 83718, Channel_aftertouch_c, 5, 8
7, 83746, Channel_aftertouch_c, 5, 0
7, 84030, Channel_aftertouch_c, 5, 0
7, 84052, Note_on_c, 5, 72, 0
7, 84057, Channel_aftertouch_c, 5, 0
7, 84073, Note_on_c, 5, 74, 99
7, 84073, Note_on_c, 5, 77, 93
7, 84080, Note_on_c, 5, 70, 100
7, 84084, Note_on_c, 5, 79, 0
7, 84096, Channel_aftertouch_c, 5, 0
7, 84108, Note_on_c, 5, 76, 0
7, 84121, Channel_aftertouch_c, 5, 2
7, 84166, Note_on_c, 5, 70, 0
7, 84177, Note_on_c, 5, 76, 99
7, 84184, Note_on_c, 5, 72, 98
7, 84184, Note_on_c, 5, 79, 101
7, 84196, Channel_aftertouch_c, 5, 5
7, 84197, Note_on_c, 5, 77, 0
7, 84208, Note_on_c, 5, 74, 0
7, 84224, Channel_aftertouch_c, 5, 6
7, 84250, Channel_aftertouch_c, 5, 0
7, 84252, Note_on_c, 5, 72, 0
7, 84257, Note_on_c, 5, 76, 0
7, 84257, Note_on_c, 5, 79, 0
7, 84366, Note_on_c, 5, 76, 114
7, 84372, Note_on_c, 5, 72, 110
7, 84372, Note_on_c, 5, 79, 105
7, 84389, Channel_aftertouch_c, 5, 0
7, 84736, Control_c, 5, 1, 2
7, 84751, Control_c, 5, 1, 28
7, 84766, Control_c, 5, 1, 52
7, 84782, Control_c, 5, 1, 69
7, 84797, Control_c, 5, 1, 80
7, 84812, Control_c, 5, 1, 87
7, 84827, Control_c, 5, 1, 91
7, 84843, Control_c, 5, 1, 96
7, 84863, Control_c, 5, 1, 99
7, 84878, Control_c, 5, 1, 98
7, 84889, Note_on_c, 5, 72, 0
7, 84889, Note_on_c, 5, 79, 0
7, 84890, Note_on_c, 5, 76, 0
7, 84895, Control_c, 5, 1, 65
7, 84910, Control_c, 5, 1, 7
7, 84926, Control_c, 5, 1, 0
7, 85262, Note_on_c, 5, 72, 117
7, 85262, Note_on_c, 5, 76, 117
7, 85262, Note_on_c, 5, 79, 117
7, 85280, Channel_aftertouch_c, 5, 25
7, 85306, Channel_aftertouch_c, 5, 15
7, 85338, Channel_aftertouch_c, 5, 19
7, 85364, Channel_aftertouch_c, 5, 28
7, 85399, Channel_aftertouch_c, 5, 22
7, 85426, Channel_aftertouch_c, 5, 10
7, 85453, Channel_aftertouch_c, 5, 3
7, 85498, Channel_aftertouch_c, 5, 5
7, 85523, Channel_aftertouch_c, 5, 7
7, 85558, Channel_aftertouch_c, 5, 8
7, 85580, Note_on_c, 5, 76, 0
7, 85584, Channel_aftertouch_c, 5, 12
7, 85586, Note_on_c, 5, 72, 0
7, 85607, Channel_aftertouch_c, 5, 1
7, 85618, Note_on_c, 5, 77, 99
7, 85619, Note_on_c, 5, 70, 100
7, 85619, Note_on_c, 5, 74, 103
7, 85619, Note_on_c, 5, 79, 0
7, 85632, Channel_aftertouch_c, 5, 2
7, 85658, Channel_aftertouch_c, 5, 4
7, 85688, Channel_aftertouch_c, 5, 0
7, 85695, Note_on_c, 5, 70, 0
7, 85710, Note_on_c, 5, 79, 93
7, 85716, Note_on_c, 5, 72, 103
7, 85716, Note_on_c, 5, 76, 104
7, 85729, Note_on_c, 5, 74, 0
7, 85734, Note_on_c, 5, 77, 0
7, 85740, Channel_aftertouch_c, 5, 6
7, 85764, Channel_aftertouch_c, 5, 7
7, 85796, Channel_aftertouch_c, 5, 0
7, 85812, Note_on_c, 5, 72, 0
7, 85812, Note_on_c, 5, 79, 0
7, 85813, Note_on_c, 5, 76, 0
7, 85902, Note_on_c, 5, 76, 117
7, 85903, Note_on_c, 5, 72, 117
7, 85903, Note_on_c, 5, 79, 114
7, 85926, Channel_aftertouch_c, 5, 13
7, 85953, Channel_aftertouch_c, 5, 1
7, 86012, Channel_aftertouch_c, 5, 2
7, 86038, Channel_aftertouch_c, 5, 7
7, 86064, Channel_aftertouch_c, 5, 9
7, 86094, Channel_aftertouch_c, 5, 11
7, 86125, Channel_aftertouch_c, 5, 16
7, 86151, Channel_aftertouch_c, 5, 19
7, 86176, Channel_aftertouch_c, 5, 21
7, 86206, Channel_aftertouch_c, 5, 23
7, 86272, Channel_aftertouch_c, 5, 18
7, 86302, Channel_aftertouch_c, 5, 14
7, 86328, Channel_aftertouch_c, 5, 4
7, 86330, Note_on_c, 5, 72, 0
7, 86346, Note_on_c, 5, 79, 0
7, 86351, Channel_aftertouch_c, 5, 0
7, 86357, Note_on_c, 5, 76, 0
7, 86382, Note_on_c, 5, 70, 105
7, 86382, Note_on_c, 5, 74, 110
7, 86383, Note_on_c, 5, 77, 107
7, 86396, Channel_aftertouch_c, 5, 5
7, 86423, Channel_aftertouch_c, 5, 4
7, 86450, Channel_aftertouch_c, 5, 0
7, 86461, Note_on_c, 5, 70, 0
7, 86476, Note_on_c, 5, 79, 104
7, 86477, Note_on_c, 5, 72, 101
7, 86477, Note_on_c, 5, 76, 104
7, 86489, Channel_aftertouch_c, 5, 3
7, 86490, Note_on_c, 5, 74, 0
7, 86490, Note_on_c, 5, 77, 0
7, 86512, Channel_aftertouch_c, 5, 17
7, 86553, Channel_aftertouch_c, 5, 7
7, 86580, Channel_aftertouch_c, 5, 0
7, 86591, Note_on_c, 5, 72, 0
7, 86596, Note_on_c, 5, 76, 0
7, 86596, Note_on_c, 5, 79, 0
7, 86685, Note_on_c, 5, 82, 112
7, 86686, Note_on_c, 5, 72, 112
7, 86686, Note_on_c, 5, 76, 115
7, 86686, Note_on_c, 5, 79, 117
7, 86694, Channel_aftertouch_c, 5, 4
7, 86720, Channel_aftertouch_c, 5, 8
7, 86731, Note_on_c, 5, 84, 96
7, 86732, Note_on_c, 5, 83, 97
7, 86744, Note_on_c, 5, 83, 0
7, 86754, Channel_aftertouch_c, 5, 14
7, 86781, Channel_aftertouch_c, 5, 22
7, 86807, Channel_aftertouch_c, 5, 29
7, 86834, Channel_aftertouch_c, 5, 36
7, 86899, Channel_aftertouch_c, 5, 39
7, 86929, Channel_aftertouch_c, 5, 41
7, 87009, Channel_aftertouch_c, 5, 44
7, 87039, Channel_aftertouch_c, 5, 47
7, 87074, Channel_aftertouch_c, 5, 51
7, 87099, Channel_aftertouch_c, 5, 52
7, 87158, Channel_aftertouch_c, 5, 53
7, 87266, Channel_aftertouch_c, 5, 51
7, 87291, Channel_aftertouch_c, 5, 48
7, 87444, Channel_aftertouch_c, 5, 50
7, 87469, Channel_aftertouch_c, 5, 51
7, 87498, Channel_aftertouch_c, 5, 52
7, 87529, Channel_aftertouch_c, 5, 55
7, 87560, Channel_aftertouch_c, 5, 59
7, 87587, Channel_aftertouch_c, 5, 64
7, 87612, Channel_aftertouch_c, 5, 69
7, 87638, Channel_aftertouch_c, 5, 73
7, 87669, Channel_aftertouch_c, 5, 76
7, 87705, Channel_aftertouch_c, 5, 78
7, 87734, Channel_aftertouch_c, 5, 80
7, 87764, Channel_aftertouch_c, 5, 81
7, 87828, Channel_aftertouch_c, 5, 83
7, 87980, Channel_aftertouch_c, 5, 84
7, 88010, Channel_aftertouch_c, 5, 85
7, 88079, Channel_aftertouch_c, 5, 84
7, 88105, Channel_aftertouch_c, 5, 82
7, 88134, Channel_aftertouch_c, 5, 81
7, 88159, Channel_aftertouch_c, 5, 79
7, 88208, Channel_aftertouch_c, 5, 78
7, 88263, Channel_aftertouch_c, 5, 76
7, 88293, Channel_aftertouch_c, 5, 74
7, 88303, Control_c, 5, 1, 1
7, 88318, Channel_aftertouch_c, 5, 73
7, 88329, Control_c, 5, 1, 2
7, 88349, Control_c, 5, 1, 6
7, 88364, Control_c, 5, 1, 9
7, 88369, Channel_aftertouch_c, 5, 72
7, 88409, Control_c, 5, 1, 12
7, 88424, Control_c, 5, 1, 20
7, 88440, Control_c, 5, 1, 25
7, 88455, Control_c, 5, 1, 34
7, 88460, Channel_aftertouch_c, 5, 71
7, 88470, Control_c, 5, 1, 40
7, 88485, Control_c, 5, 1, 43
7, 88501, Control_c, 5, 1, 45
7, 88530, Control_c, 5, 1, 47
7, 88546, Control_c, 5, 1, 49
7, 88550, Channel_aftertouch_c, 5, 70
7, 88590, Control_c, 5, 1, 52
7, 88596, Channel_aftertouch_c, 5, 69
7, 88621, Control_c, 5, 1, 53
7, 88649, Control_c, 5, 1, 54
7, 88664, Control_c, 5, 1, 56
7, 88680, Control_c, 5, 1, 58
7, 88705, Control_c, 5, 1, 59
7, 88705, Channel_aftertouch_c, 5, 68
7, 88735, Control_c, 5, 1, 61
7, 88754, Control_c, 5, 1, 65
7, 88770, Control_c, 5, 1, 67
7, 88789, Control_c, 5, 1, 70
7, 88819, Control_c, 5, 1, 71
7, 88834, Channel_aftertouch_c, 5, 67
7, 88839, Control_c, 5, 1, 72
7, 88908, Channel_aftertouch_c, 5, 66
7, 88928, Control_c, 5, 1, 73
7, 88978, Control_c, 5, 1, 75
7, 88997, Control_c, 5, 1, 76
7, 89017, Channel_aftertouch_c, 5, 64
7, 89058, Note_on_c, 5, 84, 0
7, 89065, Note_on_c, 5, 76, 0
7, 89066, Note_on_c, 5, 79, 0
7, 89071, Note_on_c, 5, 82, 0
7, 89090, Channel_aftertouch_c, 5, 63
7, 89113, Note_on_c, 5, 72, 0
7, 89125, Channel_aftertouch_c, 5, 62
7, 89135, Control_c, 5, 1, 75
7, 89169, Control_c, 5, 1, 73
7, 89189, Channel_aftertouch_c, 5, 61
7, 89205, Control_c, 5, 1, 71
7, 89249, Control_c, 5, 1, 70
7, 89264, Control_c, 5, 1, 66
7, 89269, Channel_aftertouch_c, 5, 60
7, 89275, Channel_aftertouch_c, 5, 59
7, 89280, Control_c, 5, 1, 16
7, 89286, Control_c, 5, 1, 7
7, 89291, Control_c, 5, 1, 2
7, 89297, Control_c, 5, 1, 0
7, 89303, Control_c, 5, 1, 0
7, 89303, Channel_aftertouch_c, 5, 17
7, 89328, Channel_aftertouch_c, 5, 0
7, 89328, End_track
8, 0, Start_track
8, 0, Channel_prefix, 9
8, 0, Text_t, "drums   "
8, 96, Text_t, "drums"
8, 2304, Note_on_c, 9, 35, 127
8, 2304, Note_on_c, 9, 42, 116
8, 2320, Note_on_c, 9, 35, 0
8, 2320, Note_on_c, 9, 42, 0
8, 2352, Note_on_c, 9, 42, 118
8, 2368, Note_on_c, 9, 42, 0
8, 2400, Note_on_c, 9, 42, 118
8, 2416, Note_on_c, 9, 42, 0
8, 2496, Note_on_c, 9, 40, 127
8, 2496, Note_on_c, 9, 42, 109
8, 2496, Note_on_c, 9, 44, 125
8, 2512, Note_on_c, 9, 40, 0
8, 2512, Note_on_c, 9, 42, 0
8, 2512, Note_on_c, 9, 44, 0
8, 2592, Note_on_c, 9, 42, 127
8, 2608, Note_on_c, 9, 42, 0
8, 2688, Note_on_c, 9, 42, 111
8, 2704, Note_on_c, 9, 42, 0
8, 2784, Note_on_c, 9, 35, 125
8, 2784, Note_on_c, 9, 42, 116
8, 2784, Note_on_c, 9, 46, 127
8, 2800, Note_on_c, 9, 35, 0
8, 2800, Note_on_c, 9, 42, 0
8, 2800, Note_on_c, 9, 46, 0
8, 2880, Note_on_c, 9, 40, 127
8, 2880, Note_on_c, 9, 44, 127
8, 2896, Note_on_c, 9, 40, 0
8, 2896, Note_on_c, 9, 44, 0
8, 2976, Note_on_c, 9, 35, 125
8, 2976, Note_on_c, 9, 42, 127
8, 2992, Note_on_c, 9, 35, 0
8, 2992, Note_on_c, 9, 42, 0
8, 3072, Note_on_c, 9, 35, 127
8, 3072, Note_on_c, 9, 42, 116
8, 3088, Note_on_c, 9, 35, 0
8, 3088, Note_on_c, 9, 42, 0
8, 3120, Note_on_c, 9, 42, 118
8, 3136, Note_on_c, 9, 42, 0
8, 3168, Note_on_c, 9, 42, 118
8, 3184, Note_on_c, 9, 42, 0
8, 3264, Note_on_c, 9, 40, 127
8, 3264, Note_on_c, 9, 42, 109
8, 3264, Note_on_c, 9, 44, 125
8, 3280, Note_on_c, 9, 40, 0
8, 3280, Note_on_c, 9, 42, 0
8, 3280, Note_on_c, 9, 44, 0
8, 3360, Note_on_c, 9, 42, 127
8, 3376, Note_on_c, 9, 42, 0
8, 3456, Note_on_c, 9, 42, 111
8, 3472, Note_on_c, 9, 42, 0
8, 3552, Note_on_c, 9, 35, 125
8, 3552, Note_on_c, 9, 42, 116
8, 3552, Note_on_c, 9, 46, 127
8, 3568, Note_on_c, 9, 35, 0
8, 3568, Note_on_c, 9, 42, 0
8, 3568, Note_on_c, 9, 46, 0
8, 3648, Note_on_c, 9, 40, 127
8, 3648, Note_on_c, 9, 44, 127
8, 3664, Note_on_c, 9, 40, 0
8, 3664, Note_on_c, 9, 44, 0
8, 3744, Note_on_c, 9, 35, 125
8, 3744, Note_on_c, 9, 42, 127
8, 3760, Note_on_c, 9, 35, 0
8, 3760, Note_on_c, 9, 42, 0
8, 3840, Note_on_c, 9, 35, 127
8, 3840, Note_on_c, 9, 42, 116
8, 3856, Note_on_c, 9, 35, 0
8, 3856, Note_on_c, 9, 42, 0
8, 3888, Note_on_c, 9, 42, 118
8, 3904, Note_on_c, 9, 42, 0
8, 3936, Note_on_c, 9, 42, 118
8, 3952, Note_on_c, 9, 42, 0
8, 4032, Note_on_c, 9, 40, 127
8, 4032, Note_on_c, 9, 42, 109
8, 4032, Note_on_c, 9, 44, 125
8, 4048, Note_on_c, 9, 40, 0
8, 4048, Note_on_c, 9, 42, 0
8, 4048, Note_on_c, 9, 44, 0
8, 4128, Note_on_c, 9, 42, 127
8, 4144, Note_on_c, 9, 42, 0
8, 4224, Note_on_c, 9, 42, 111
8, 4240, Note_on_c, 9, 42, 0
8, 4320, Note_on_c, 9, 35, 125
8, 4320, Note_on_c, 9, 42, 116
8, 4320, Note_on_c, 9, 46, 127
8, 4336, Note_on_c, 9, 35, 0
8, 4336, Note_on_c, 9, 42, 0
8, 4336, Note_on_c, 9, 46, 0
8, 4416, Note_on_c, 9, 40, 127
8, 4416, Note_on_c, 9, 44, 127
8, 4432, Note_on_c, 9, 40, 0
8, 4432, Note_on_c, 9, 44, 0
8, 4512, Note_on_c, 9, 35, 125
8, 4512, Note_on_c, 9, 42, 127
8, 4528, Note_on_c, 9, 35, 0
8, 4528, Note_on_c, 9, 42, 0
8, 4608, Note_on_c, 9, 35, 127
8, 4608, Note_on_c, 9, 42, 116
8, 4624, Note_on_c, 9, 35, 0
8, 4624, Note_on_c, 9, 42, 0
8, 4656, Note_on_c, 9, 42, 118
8, 4672, Note_on_c, 9, 42, 0
8, 4704, Note_on_c, 9, 42, 118
8, 4720, Note_on_c, 9, 42, 0
8, 4800, Note_on_c, 9, 40, 127
8, 4800, Note_on_c, 9, 42, 109
8, 4800, Note_on_c, 9, 44, 125
8, 4816, Note_on_c, 9, 40, 0
8, 4816, Note_on_c, 9, 42, 0
8, 4816, Note_on_c, 9, 44, 0
8, 4896, Note_on_c, 9, 42, 127
8, 4912, Note_on_c, 9, 42, 0
8, 4992, Note_on_c, 9, 42, 111
8, 5008, Note_on_c, 9, 42, 0
8, 5088, Note_on_c, 9, 35, 125
8, 5088, Note_on_c, 9, 42, 116
8, 5088, Note_on_c, 9, 46, 127
8, 5104, Note_on_c, 9, 35, 0
8, 5104, Note_on_c, 9, 42, 0
8, 5104, Note_on_c, 9, 46, 0
8, 5184, Note_on_c, 9, 40, 127
8, 5184, Note_on_c, 9, 44, 127
8, 5200, Note_on_c, 9, 40, 0
8, 5200, Note_on_c, 9, 44, 0
8, 5280, Note_on_c, 9, 35, 125
8, 5280, Note_on_c, 9, 42, 127
8, 5296, Note_on_c, 9, 35, 0
8, 5296, Note_on_c, 9, 42, 0
8, 5376, Note_on_c, 9, 35, 127
8, 5376, Note_on_c, 9, 42, 116
8, 5392, Note_on_c, 9, 35, 0
8, 5392, Note_on_c, 9, 42, 0
8, 5424, Note_on_c, 9, 42, 118
8, 5440, Note_on_c, 9, 42, 0
8, 5472, Note_on_c, 9, 42, 118
8, 5488, Note_on_c, 9, 42, 0
8, 5568, Note_on_c, 9, 40, 127
8, 5568, Note_on_c, 9, 42, 109
8, 5568, Note_on_c, 9, 44, 125
8, 5584, Note_on_c, 9, 40, 0
8, 5584, Note_on_c, 9, 42, 0
8, 5584, Note_on_c, 9, 44, 0
8, 5664, Note_on_c, 9, 42, 127
8, 5680, Note_on_c, 9, 42, 0
8, 5760, Note_on_c, 9, 42, 111
8, 5776, Note_on_c, 9, 42, 0
8, 5856, Note_on_c, 9, 35, 125
8, 5856, Note_on_c, 9, 42, 116
8, 5856, Note_on_c, 9, 46, 127
8, 5872, Note_on_c, 9, 35, 0
8, 5872, Note_on_c, 9, 42, 0
8, 5872, Note_on_c, 9, 46, 0
8, 5952, Note_on_c, 9, 40, 127
8, 5952, Note_on_c, 9, 44, 127
8, 5968, Note_on_c, 9, 40, 0
8, 5968, Note_on_c, 9, 44, 0
8, 6048, Note_on_c, 9, 35, 125
8, 6048, Note_on_c, 9, 42, 127
8, 6064, Note_on_c, 9, 35, 0
8, 6064, Note_on_c, 9, 42, 0
8, 6144, Note_on_c, 9, 35, 127
8, 6144, Note_on_c, 9, 42, 116
8, 6160, Note_on_c, 9, 35, 0
8, 6160, Note_on_c, 9, 42, 0
8, 6192, Note_on_c, 9, 42, 118
8, 6208, Note_on_c, 9, 42, 0
8, 6240, Note_on_c, 9, 42, 118
8, 6256, Note_on_c, 9, 42, 0
8, 6336, Note_on_c, 9, 40, 127
8, 6336, Note_on_c, 9, 42, 109
8, 6336, Note_on_c, 9, 44, 125
8, 6352, Note_on_c, 9, 40, 0
8, 6352, Note_on_c, 9, 42, 0
8, 6352, Note_on_c, 9, 44, 0
8, 6432, Note_on_c, 9, 42, 127
8, 6448, Note_on_c, 9, 42, 0
8, 6528, Note_on_c, 9, 42, 111
8, 6544, Note_on_c, 9, 42, 0
8, 6624, Note_on_c, 9, 35, 125
8, 6624, Note_on_c, 9, 42, 116
8, 6624, Note_on_c, 9, 46, 127
8, 6640, Note_on_c, 9, 35, 0
8, 6640, Note_on_c, 9, 42, 0
8, 6640, Note_on_c, 9, 46, 0
8, 6720, Note_on_c, 9, 40, 127
8, 6720, Note_on_c, 9, 44, 127
8, 6736, Note_on_c, 9, 40, 0
8, 6736, Note_on_c, 9, 44, 0
8, 6816, Note_on_c, 9, 35, 125
8, 6816, Note_on_c, 9, 42, 127
8, 6832, Note_on_c, 9, 35, 0
8, 6832, Note_on_c, 9, 42, 0
8, 6912, Note_on_c, 9, 35, 127
8, 6912, Note_on_c, 9, 42, 116
8, 6928, Note_on_c, 9, 35, 0
8, 6928, Note_on_c, 9, 42, 0
8, 6960, Note_on_c, 9, 42, 118
8, 6976, Note_on_c, 9, 42, 0
8, 7008, Note_on_c, 9, 42, 118
8, 7024, Note_on_c, 9, 42, 0
8, 7104, Note_on_c, 9, 40, 127
8, 7104, Note_on_c, 9, 42, 109
8, 7104, Note_on_c, 9, 44, 125
8, 7120, Note_on_c, 9, 40, 0
8, 7120, Note_on_c, 9, 42, 0
8, 7120, Note_on_c, 9, 44, 0
8, 7200, Note_on_c, 9, 42, 127
8, 7216, Note_on_c, 9, 42, 0
8, 7296, Note_on_c, 9, 42, 111
8, 7312, Note_on_c, 9, 42, 0
8, 7392, Note_on_c, 9, 35, 125
8, 7392, Note_on_c, 9, 42, 116
8, 7392, Note_on_c, 9, 46, 127
8, 7408, Note_on_c, 9, 35, 0
8, 7408, Note_on_c, 9, 42, 0
8, 7408, Note_on_c, 9, 46, 0
8, 7488, Note_on_c, 9, 40, 127
8, 7488, Note_on_c, 9, 44, 127
8, 7504, Note_on_c, 9, 40, 0
8, 7504, Note_on_c, 9, 44, 0
8, 7584, Note_on_c, 9, 35, 125
8, 7584, Note_on_c, 9, 42, 127
8, 7600, Note_on_c, 9, 35, 0
8, 7600, Note_on_c, 9, 42, 0
8, 7680, Note_on_c, 9, 35, 127
8, 7680, Note_on_c, 9, 42, 116
8, 7696, Note_on_c, 9, 35, 0
8, 7696, Note_on_c, 9, 42, 0
8, 7728, Note_on_c, 9, 42, 118
8, 7744, Note_on_c, 9, 42, 0
8, 7776, Note_on_c, 9, 42, 118
8, 7792, Note_on_c, 9, 42, 0
8, 7872, Note_on_c, 9, 40, 127
8, 7872, Note_on_c, 9, 42, 109
8, 7872, Note_on_c, 9, 44, 125
8, 7888, Note_on_c, 9, 40, 0
8, 7888, Note_on_c, 9, 42, 0
8, 7888, Note_on_c, 9, 44, 0
8, 7968, Note_on_c, 9, 42, 127
8, 7984, Note_on_c, 9, 42, 0
8, 8064, Note_on_c, 9, 42, 111
8, 8080, Note_on_c, 9, 42, 0
8, 8160, Note_on_c, 9, 35, 125
8, 8160, Note_on_c, 9, 42, 116
8, 8160, Note_on_c, 9, 46, 127
8, 8176, Note_on_c, 9, 35, 0
8, 8176, Note_on_c, 9, 42, 0
8, 8176, Note_on_c, 9, 46, 0
8, 8256, Note_on_c, 9, 40, 127
8, 8256, Note_on_c, 9, 44, 127
8, 8272, Note_on_c, 9, 40, 0
8, 8272, Note_on_c, 9, 44, 0
8, 8352, Note_on_c, 9, 35, 125
8, 8352, Note_on_c, 9, 42, 127
8, 8368, Note_on_c, 9, 35, 0
8, 8368, Note_on_c, 9, 42, 0
8, 8448, Note_on_c, 9, 35, 127
8, 8448, Note_on_c, 9, 42, 116
8, 8464, Note_on_c, 9, 35, 0
8, 8464, Note_on_c, 9, 42, 0
8, 8496, Note_on_c, 9, 42, 118
8, 8512, Note_on_c, 9, 42, 0
8, 8544, Note_on_c, 9, 42, 118
8, 8560, Note_on_c, 9, 42, 0
8, 8640, Note_on_c, 9, 40, 127
8, 8640, Note_on_c, 9, 42, 109
8, 8640, Note_on_c, 9, 44, 125
8, 8656, Note_on_c, 9, 40, 0
8, 8656, Note_on_c, 9, 42, 0
8, 8656, Note_on_c, 9, 44, 0
8, 8736, Note_on_c, 9, 42, 127
8, 8752, Note_on_c, 9, 42, 0
8, 8832, Note_on_c, 9, 42, 111
8, 8848, Note_on_c, 9, 42, 0
8, 8928, Note_on_c, 9, 35, 125
8, 8928, Note_on_c, 9, 42, 116
8, 8928, Note_on_c, 9, 46, 127
8, 8944, Note_on_c, 9, 35, 0
8, 8944, Note_on_c, 9, 42, 0
8, 8944, Note_on_c, 9, 46, 0
8, 9024, Note_on_c, 9, 40, 127
8, 9024, Note_on_c, 9, 44, 127
8, 9040, Note_on_c, 9, 40, 0
8, 9040, Note_on_c, 9, 44, 0
8, 9120, Note_on_c, 9, 35, 125
8, 9120, Note_on_c, 9, 42, 127
8, 9136, Note_on_c, 9, 35, 0
8, 9136, Note_on_c, 9, 42, 0
8, 9216, Note_on_c, 9, 35, 127
8, 9216, Note_on_c, 9, 42, 116
8, 9232, Note_on_c, 9, 35, 0
8, 9232, Note_on_c, 9, 42, 0
8, 9264, Note_on_c, 9, 42, 118
8, 9280, Note_on_c, 9, 42, 0
8, 9312, Note_on_c, 9, 42, 118
8, 9328, Note_on_c, 9, 42, 0
8, 9408, Note_on_c, 9, 40, 127
8, 9408, Note_on_c, 9, 42, 109
8, 9408, Note_on_c, 9, 44, 125
8, 9424, Note_on_c, 9, 40, 0
8, 9424, Note_on_c, 9, 42, 0
8, 9424, Note_on_c, 9, 44, 0
8, 9504, Note_on_c, 9, 42, 127
8, 9520, Note_on_c, 9, 42, 0
8, 9600, Note_on_c, 9, 42, 111
8, 9616, Note_on_c, 9, 42, 0
8, 9696, Note_on_c, 9, 35, 125
8, 9696, Note_on_c, 9, 42, 116
8, 9696, Note_on_c, 9, 46, 127
8, 9712, Note_on_c, 9, 35, 0
8, 9712, Note_on_c, 9, 42, 0
8, 9712, Note_on_c, 9, 46, 0
8, 9792, Note_on_c, 9, 40, 127
8, 9792, Note_on_c, 9, 44, 127
8, 9808, Note_on_c, 9, 40, 0
8, 9808, Note_on_c, 9, 44, 0
8, 9888, Note_on_c, 9, 35, 125
8, 9888, Note_on_c, 9, 42, 127
8, 9904, Note_on_c, 9, 35, 0
8, 9904, Note_on_c, 9, 42, 0
8, 9984, Note_on_c, 9, 35, 127
8, 9984, Note_on_c, 9, 42, 116
8, 10000, Note_on_c, 9, 35, 0
8, 10000, Note_on_c, 9, 42, 0
8, 10032, Note_on_c, 9, 42, 118
8, 10048, Note_on_c, 9, 42, 0
8, 10080, Note_on_c, 9, 42, 118
8, 10096, Note_on_c, 9, 42, 0
8, 10176, Note_on_c, 9, 40, 124
8, 10176, Note_on_c, 9, 42, 109
8, 10176, Note_on_c, 9, 44, 125
8, 10192, Note_on_c, 9, 40, 0
8, 10192, Note_on_c, 9, 42, 0
8, 10192, Note_on_c, 9, 44, 0
8, 10272, Note_on_c, 9, 42, 127
8, 10288, Note_on_c, 9, 42, 0
8, 10368, Note_on_c, 9, 42, 111
8, 10384, Note_on_c, 9, 42, 0
8, 10464, Note_on_c, 9, 35, 125
8, 10464, Note_on_c, 9, 42, 116
8, 10464, Note_on_c, 9, 46, 127
8, 10480, Note_on_c, 9, 35, 0
8, 10480, Note_on_c, 9, 42, 0
8, 10480, Note_on_c, 9, 46, 0
8, 10560, Note_on_c, 9, 40, 127
8, 10560, Note_on_c, 9, 44, 127
8, 10576, Note_on_c, 9, 40, 0
8, 10576, Note_on_c, 9, 44, 0
8, 10656, Note_on_c, 9, 35, 125
8, 10656, Note_on_c, 9, 42, 127
8, 10672, Note_on_c, 9, 35, 0
8, 10672, Note_on_c, 9, 42, 0
8, 10752, Note_on_c, 9, 35, 127
8, 10752, Note_on_c, 9, 42, 116
8, 10768, Note_on_c, 9, 35, 0
8, 10768, Note_on_c, 9, 42, 0
8, 10800, Note_on_c, 9, 42, 118
8, 10816, Note_on_c, 9, 42, 0
8, 10848, Note_on_c, 9, 42, 118
8, 10864, Note_on_c, 9, 42, 0
8, 10944, Note_on_c, 9, 40, 127
8, 10944, Note_on_c, 9, 42, 109
8, 10944, Note_on_c, 9, 44, 125
8, 10960, Note_on_c, 9, 40, 0
8, 10960, Note_on_c, 9, 42, 0
8, 10960, Note_on_c, 9, 44, 0
8, 11040, Note_on_c, 9, 42, 127
8, 11056, Note_on_c, 9, 42, 0
8, 11136, Note_on_c, 9, 42, 111
8, 11152, Note_on_c, 9, 42, 0
8, 11232, Note_on_c, 9, 35, 125
8, 11232, Note_on_c, 9, 42, 116
8, 11232, Note_on_c, 9, 46, 127
8, 11248, Note_on_c, 9, 35, 0
8, 11248, Note_on_c, 9, 42, 0
8, 11248, Note_on_c, 9, 46, 0
8, 11328, Note_on_c, 9, 40, 127
8, 11328, Note_on_c, 9, 44, 127
8, 11344, Note_on_c, 9, 40, 0
8, 11344, Note_on_c, 9, 44, 0
8, 11424, Note_on_c, 9, 35, 125
8, 11424, Note_on_c, 9, 42, 127
8, 11440, Note_on_c, 9, 35, 0
8, 11440, Note_on_c, 9, 42, 0
8, 11520, Note_on_c, 9, 35, 127
8, 11520, Note_on_c, 9, 42, 116
8, 11536, Note_on_c, 9, 35, 0
8, 11536, Note_on_c, 9, 42, 0
8, 11568, Note_on_c, 9, 42, 118
8, 11584, Note_on_c, 9, 42, 0
8, 11616, Note_on_c, 9, 42, 118
8, 11632, Note_on_c, 9, 42, 0
8, 11712, Note_on_c, 9, 40, 124
8, 11712, Note_on_c, 9, 42, 109
8, 11712, Note_on_c, 9, 44, 125
8, 11728, Note_on_c, 9, 40, 0
8, 11728, Note_on_c, 9, 42, 0
8, 11728, Note_on_c, 9, 44, 0
8, 11808, Note_on_c, 9, 42, 127
8, 11824, Note_on_c, 9, 42, 0
8, 11904, Note_on_c, 9, 42, 111
8, 11920, Note_on_c, 9, 42, 0
8, 12000, Note_on_c, 9, 35, 125
8, 12000, Note_on_c, 9, 42, 116
8, 12000, Note_on_c, 9, 46, 127
8, 12016, Note_on_c, 9, 35, 0
8, 12016, Note_on_c, 9, 42, 0
8, 12016, Note_on_c, 9, 46, 0
8, 12096, Note_on_c, 9, 40, 127
8, 12096, Note_on_c, 9, 44, 127
8, 12112, Note_on_c, 9, 40, 0
8, 12112, Note_on_c, 9, 44, 0
8, 12192, Note_on_c, 9, 35, 125
8, 12192, Note_on_c, 9, 42, 127
8, 12208, Note_on_c, 9, 35, 0
8, 12208, Note_on_c, 9, 42, 0
8, 12288, Note_on_c, 9, 35, 127
8, 12288, Note_on_c, 9, 42, 116
8, 12304, Note_on_c, 9, 35, 0
8, 12304, Note_on_c, 9, 42, 0
8, 12336, Note_on_c, 9, 42, 118
8, 12352, Note_on_c, 9, 42, 0
8, 12384, Note_on_c, 9, 42, 118
8, 12400, Note_on_c, 9, 42, 0
8, 12480, Note_on_c, 9, 40, 127
8, 12480, Note_on_c, 9, 42, 109
8, 12480, Note_on_c, 9, 44, 125
8, 12496, Note_on_c, 9, 40, 0
8, 12496, Note_on_c, 9, 42, 0
8, 12496, Note_on_c, 9, 44, 0
8, 12576, Note_on_c, 9, 42, 127
8, 12592, Note_on_c, 9, 42, 0
8, 12672, Note_on_c, 9, 42, 111
8, 12688, Note_on_c, 9, 42, 0
8, 12768, Note_on_c, 9, 35, 125
8, 12768, Note_on_c, 9, 42, 116
8, 12768, Note_on_c, 9, 46, 127
8, 12784, Note_on_c, 9, 35, 0
8, 12784, Note_on_c, 9, 42, 0
8, 12784, Note_on_c, 9, 46, 0
8, 12864, Note_on_c, 9, 40, 127
8, 12864, Note_on_c, 9, 44, 127
8, 12880, Note_on_c, 9, 40, 0
8, 12880, Note_on_c, 9, 44, 0
8, 12960, Note_on_c, 9, 35, 125
8, 12960, Note_on_c, 9, 42, 127
8, 12976, Note_on_c, 9, 35, 0
8, 12976, Note_on_c, 9, 42, 0
8, 13056, Note_on_c, 9, 35, 127
8, 13056, Note_on_c, 9, 42, 118
8, 13072, Note_on_c, 9, 35, 0
8, 13072, Note_on_c, 9, 42, 0
8, 13104, Note_on_c, 9, 42, 118
8, 13120, Note_on_c, 9, 42, 0
8, 13152, Note_on_c, 9, 42, 118
8, 13168, Note_on_c, 9, 42, 0
8, 13248, Note_on_c, 9, 40, 124
8, 13248, Note_on_c, 9, 42, 109
8, 13248, Note_on_c, 9, 44, 125
8, 13264, Note_on_c, 9, 40, 0
8, 13264, Note_on_c, 9, 42, 0
8, 13264, Note_on_c, 9, 44, 0
8, 13344, Note_on_c, 9, 42, 127
8, 13360, Note_on_c, 9, 42, 0
8, 13440, Note_on_c, 9, 42, 111
8, 13456, Note_on_c, 9, 42, 0
8, 13536, Note_on_c, 9, 35, 125
8, 13536, Note_on_c, 9, 42, 116
8, 13536, Note_on_c, 9, 46, 127
8, 13552, Note_on_c, 9, 35, 0
8, 13552, Note_on_c, 9, 42, 0
8, 13552, Note_on_c, 9, 46, 0
8, 13632, Note_on_c, 9, 40, 127
8, 13632, Note_on_c, 9, 44, 127
8, 13648, Note_on_c, 9, 40, 0
8, 13648, Note_on_c, 9, 44, 0
8, 13728, Note_on_c, 9, 35, 125
8, 13728, Note_on_c, 9, 42, 127
8, 13744, Note_on_c, 9, 35, 0
8, 13744, Note_on_c, 9, 42, 0
8, 13824, Note_on_c, 9, 35, 127
8, 13824, Note_on_c, 9, 42, 116
8, 13840, Note_on_c, 9, 35, 0
8, 13840, Note_on_c, 9, 42, 0
8, 13872, Note_on_c, 9, 42, 118
8, 13888, Note_on_c, 9, 42, 0
8, 13920, Note_on_c, 9, 42, 118
8, 13936, Note_on_c, 9, 42, 0
8, 14016, Note_on_c, 9, 40, 127
8, 14016, Note_on_c, 9, 42, 109
8, 14016, Note_on_c, 9, 44, 125
8, 14032, Note_on_c, 9, 40, 0
8, 14032, Note_on_c, 9, 42, 0
8, 14032, Note_on_c, 9, 44, 0
8, 14112, Note_on_c, 9, 42, 127
8, 14128, Note_on_c, 9, 42, 0
8, 14208, Note_on_c, 9, 42, 111
8, 14224, Note_on_c, 9, 42, 0
8, 14304, Note_on_c, 9, 35, 125
8, 14304, Note_on_c, 9, 42, 116
8, 14304, Note_on_c, 9, 46, 127
8, 14320, Note_on_c, 9, 35, 0
8, 14320, Note_on_c, 9, 42, 0
8, 14320, Note_on_c, 9, 46, 0
8, 14400, Note_on_c, 9, 40, 127
8, 14400, Note_on_c, 9, 44, 127
8, 14416, Note_on_c, 9, 40, 0
8, 14416, Note_on_c, 9, 44, 0
8, 14496, Note_on_c, 9, 35, 125
8, 14496, Note_on_c, 9, 42, 127
8, 14512, Note_on_c, 9, 35, 0
8, 14512, Note_on_c, 9, 42, 0
8, 14592, Note_on_c, 9, 35, 127
8, 14592, Note_on_c, 9, 42, 116
8, 14608, Note_on_c, 9, 35, 0
8, 14608, Note_on_c, 9, 42, 0
8, 14640, Note_on_c, 9, 42, 118
8, 14656, Note_on_c, 9, 42, 0
8, 14688, Note_on_c, 9, 42, 118
8, 14704, Note_on_c, 9, 42, 0
8, 14784, Note_on_c, 9, 40, 127
8, 14784, Note_on_c, 9, 42, 109
8, 14784, Note_on_c, 9, 44, 125
8, 14800, Note_on_c, 9, 40, 0
8, 14800, Note_on_c, 9, 42, 0
8, 14800, Note_on_c, 9, 44, 0
8, 14880, Note_on_c, 9, 42, 127
8, 14896, Note_on_c, 9, 42, 0
8, 14976, Note_on_c, 9, 42, 111
8, 14992, Note_on_c, 9, 42, 0
8, 15072, Note_on_c, 9, 35, 125
8, 15072, Note_on_c, 9, 42, 116
8, 15072, Note_on_c, 9, 46, 127
8, 15088, Note_on_c, 9, 35, 0
8, 15088, Note_on_c, 9, 42, 0
8, 15088, Note_on_c, 9, 46, 0
8, 15168, Note_on_c, 9, 40, 127
8, 15168, Note_on_c, 9, 44, 127
8, 15184, Note_on_c, 9, 40, 0
8, 15184, Note_on_c, 9, 44, 0
8, 15264, Note_on_c, 9, 35, 125
8, 15264, Note_on_c, 9, 42, 127
8, 15280, Note_on_c, 9, 35, 0
8, 15280, Note_on_c, 9, 42, 0
8, 15360, Note_on_c, 9, 35, 127
8, 15360, Note_on_c, 9, 42, 116
8, 15376, Note_on_c, 9, 35, 0
8, 15376, Note_on_c, 9, 42, 0
8, 15408, Note_on_c, 9, 42, 118
8, 15424, Note_on_c, 9, 42, 0
8, 15456, Note_on_c, 9, 42, 118
8, 15472, Note_on_c, 9, 42, 0
8, 15552, Note_on_c, 9, 40, 127
8, 15552, Note_on_c, 9, 42, 109
8, 15552, Note_on_c, 9, 44, 125
8, 15568, Note_on_c, 9, 40, 0
8, 15568, Note_on_c, 9, 42, 0
8, 15568, Note_on_c, 9, 44, 0
8, 15648, Note_on_c, 9, 42, 127
8, 15664, Note_on_c, 9, 42, 0
8, 15744, Note_on_c, 9, 42, 111
8, 15760, Note_on_c, 9, 42, 0
8, 15840, Note_on_c, 9, 35, 125
8, 15840, Note_on_c, 9, 42, 116
8, 15840, Note_on_c, 9, 46, 127
8, 15856, Note_on_c, 9, 35, 0
8, 15856, Note_on_c, 9, 42, 0
8, 15856, Note_on_c, 9, 46, 0
8, 15936, Note_on_c, 9, 40, 127
8, 15936, Note_on_c, 9, 44, 127
8, 15952, Note_on_c, 9, 40, 0
8, 15952, Note_on_c, 9, 44, 0
8, 16032, Note_on_c, 9, 35, 125
8, 16032, Note_on_c, 9, 42, 127
8, 16048, Note_on_c, 9, 35, 0
8, 16048, Note_on_c, 9, 42, 0
8, 16128, Note_on_c, 9, 35, 127
8, 16128, Note_on_c, 9, 42, 116
8, 16144, Note_on_c, 9, 35, 0
8, 16144, Note_on_c, 9, 42, 0
8, 16176, Note_on_c, 9, 42, 118
8, 16192, Note_on_c, 9, 42, 0
8, 16224, Note_on_c, 9, 42, 118
8, 16240, Note_on_c, 9, 42, 0
8, 16320, Note_on_c, 9, 40, 127
8, 16320, Note_on_c, 9, 42, 109
8, 16320, Note_on_c, 9, 44, 125
8, 16336, Note_on_c, 9, 40, 0
8, 16336, Note_on_c, 9, 42, 0
8, 16336, Note_on_c, 9, 44, 0
8, 16416, Note_on_c, 9, 42, 127
8, 16432, Note_on_c, 9, 42, 0
8, 16512, Note_on_c, 9, 42, 111
8, 16528, Note_on_c, 9, 42, 0
8, 16608, Note_on_c, 9, 35, 125
8, 16608, Note_on_c, 9, 42, 116
8, 16608, Note_on_c, 9, 46, 127
8, 16624, Note_on_c, 9, 35, 0
8, 16624, Note_on_c, 9, 42, 0
8, 16624, Note_on_c, 9, 46, 0
8, 16704, Note_on_c, 9, 40, 127
8, 16704, Note_on_c, 9, 44, 127
8, 16720, Note_on_c, 9, 40, 0
8, 16720, Note_on_c, 9, 44, 0
8, 16800, Note_on_c, 9, 35, 125
8, 16800, Note_on_c, 9, 42, 127
8, 16816, Note_on_c, 9, 35, 0
8, 16816, Note_on_c, 9, 42, 0
8, 16896, Note_on_c, 9, 35, 127
8, 16896, Note_on_c, 9, 42, 116
8, 16912, Note_on_c, 9, 35, 0
8, 16912, Note_on_c, 9, 42, 0
8, 16944, Note_on_c, 9, 42, 118
8, 16960, Note_on_c, 9, 42, 0
8, 16992, Note_on_c, 9, 42, 118
8, 17008, Note_on_c, 9, 42, 0
8, 17088, Note_on_c, 9, 40, 127
8, 17088, Note_on_c, 9, 42, 109
8, 17088, Note_on_c, 9, 44, 125
8, 17104, Note_on_c, 9, 40, 0
8, 17104, Note_on_c, 9, 42, 0
8, 17104, Note_on_c, 9, 44, 0
8, 17184, Note_on_c, 9, 42, 127
8, 17200, Note_on_c, 9, 42, 0
8, 17280, Note_on_c, 9, 42, 111
8, 17296, Note_on_c, 9, 42, 0
8, 17376, Note_on_c, 9, 35, 125
8, 17376, Note_on_c, 9, 42, 116
8, 17376, Note_on_c, 9, 46, 127
8, 17392, Note_on_c, 9, 35, 0
8, 17392, Note_on_c, 9, 42, 0
8, 17392, Note_on_c, 9, 46, 0
8, 17472, Note_on_c, 9, 40, 127
8, 17472, Note_on_c, 9, 44, 127
8, 17488, Note_on_c, 9, 40, 0
8, 17488, Note_on_c, 9, 44, 0
8, 17568, Note_on_c, 9, 35, 125
8, 17568, Note_on_c, 9, 42, 127
8, 17584, Note_on_c, 9, 35, 0
8, 17584, Note_on_c, 9, 42, 0
8, 17664, Note_on_c, 9, 35, 127
8, 17664, Note_on_c, 9, 42, 116
8, 17680, Note_on_c, 9, 35, 0
8, 17680, Note_on_c, 9, 42, 0
8, 17712, Note_on_c, 9, 42, 118
8, 17728, Note_on_c, 9, 42, 0
8, 17760, Note_on_c, 9, 42, 118
8, 17776, Note_on_c, 9, 42, 0
8, 17856, Note_on_c, 9, 40, 127
8, 17856, Note_on_c, 9, 42, 109
8, 17856, Note_on_c, 9, 44, 125
8, 17872, Note_on_c, 9, 40, 0
8, 17872, Note_on_c, 9, 42, 0
8, 17872, Note_on_c, 9, 44, 0
8, 17952, Note_on_c, 9, 42, 127
8, 17968, Note_on_c, 9, 42, 0
8, 18048, Note_on_c, 9, 42, 111
8, 18064, Note_on_c, 9, 42, 0
8, 18144, Note_on_c, 9, 35, 125
8, 18144, Note_on_c, 9, 42, 116
8, 18144, Note_on_c, 9, 46, 127
8, 18160, Note_on_c, 9, 35, 0
8, 18160, Note_on_c, 9, 42, 0
8, 18160, Note_on_c, 9, 46, 0
8, 18240, Note_on_c, 9, 40, 127
8, 18240, Note_on_c, 9, 44, 127
8, 18256, Note_on_c, 9, 40, 0
8, 18256, Note_on_c, 9, 44, 0
8, 18336, Note_on_c, 9, 35, 125
8, 18336, Note_on_c, 9, 42, 127
8, 18352, Note_on_c, 9, 35, 0
8, 18352, Note_on_c, 9, 42, 0
8, 18432, Note_on_c, 9, 35, 127
8, 18432, Note_on_c, 9, 42, 116
8, 18448, Note_on_c, 9, 35, 0
8, 18448, Note_on_c, 9, 42, 0
8, 18480, Note_on_c, 9, 42, 118
8, 18496, Note_on_c, 9, 42, 0
8, 18528, Note_on_c, 9, 42, 118
8, 18544, Note_on_c, 9, 42, 0
8, 18624, Note_on_c, 9, 40, 127
8, 18624, Note_on_c, 9, 42, 109
8, 18624, Note_on_c, 9, 44, 125
8, 18640, Note_on_c, 9, 40, 0
8, 18640, Note_on_c, 9, 42, 0
8, 18640, Note_on_c, 9, 44, 0
8, 18720, Note_on_c, 9, 42, 127
8, 18736, Note_on_c, 9, 42, 0
8, 18816, Note_on_c, 9, 42, 111
8, 18832, Note_on_c, 9, 42, 0
8, 18912, Note_on_c, 9, 35, 125
8, 18912, Note_on_c, 9, 42, 116
8, 18912, Note_on_c, 9, 46, 127
8, 18928, Note_on_c, 9, 35, 0
8, 18928, Note_on_c, 9, 42, 0
8, 18928, Note_on_c, 9, 46, 0
8, 19008, Note_on_c, 9, 40, 127
8, 19008, Note_on_c, 9, 44, 127
8, 19024, Note_on_c, 9, 40, 0
8, 19024, Note_on_c, 9, 44, 0
8, 19104, Note_on_c, 9, 35, 125
8, 19104, Note_on_c, 9, 40, 111
8, 19104, Note_on_c, 9, 42, 127
8, 19120, Note_on_c, 9, 35, 0
8, 19120, Note_on_c, 9, 40, 0
8, 19120, Note_on_c, 9, 42, 0
8, 19128, Note_on_c, 9, 40, 111
8, 19144, Note_on_c, 9, 40, 0
8, 19152, Note_on_c, 9, 40, 116
8, 19168, Note_on_c, 9, 40, 0
8, 19176, Note_on_c, 9, 40, 116
8, 19192, Note_on_c, 9, 40, 0
8, 19200, Note_on_c, 9, 35, 127
8, 19200, Note_on_c, 9, 40, 125
8, 19200, Note_on_c, 9, 42, 116
8, 19216, Note_on_c, 9, 35, 0
8, 19216, Note_on_c, 9, 40, 0
8, 19216, Note_on_c, 9, 42, 0
8, 20736, Note_on_c, 9, 35, 127
8, 20736, Note_on_c, 9, 42, 116
8, 20752, Note_on_c, 9, 35, 0
8, 20752, Note_on_c, 9, 42, 0
8, 20784, Note_on_c, 9, 42, 118
8, 20800, Note_on_c, 9, 42, 0
8, 20832, Note_on_c, 9, 42, 118
8, 20848, Note_on_c, 9, 42, 0
8, 20928, Note_on_c, 9, 40, 127
8, 20928, Note_on_c, 9, 42, 109
8, 20928, Note_on_c, 9, 44, 125
8, 20944, Note_on_c, 9, 40, 0
8, 20944, Note_on_c, 9, 42, 0
8, 20944, Note_on_c, 9, 44, 0
8, 21024, Note_on_c, 9, 42, 127
8, 21040, Note_on_c, 9, 42, 0
8, 21120, Note_on_c, 9, 42, 111
8, 21136, Note_on_c, 9, 42, 0
8, 21216, Note_on_c, 9, 35, 125
8, 21216, Note_on_c, 9, 42, 116
8, 21216, Note_on_c, 9, 46, 127
8, 21232, Note_on_c, 9, 35, 0
8, 21232, Note_on_c, 9, 42, 0
8, 21232, Note_on_c, 9, 46, 0
8, 21312, Note_on_c, 9, 40, 127
8, 21312, Note_on_c, 9, 44, 127
8, 21328, Note_on_c, 9, 40, 0
8, 21328, Note_on_c, 9, 44, 0
8, 21408, Note_on_c, 9, 35, 125
8, 21408, Note_on_c, 9, 42, 127
8, 21424, Note_on_c, 9, 35, 0
8, 21424, Note_on_c, 9, 42, 0
8, 21504, Note_on_c, 9, 35, 127
8, 21504, Note_on_c, 9, 42, 116
8, 21520, Note_on_c, 9, 35, 0
8, 21520, Note_on_c, 9, 42, 0
8, 21552, Note_on_c, 9, 42, 118
8, 21568, Note_on_c, 9, 42, 0
8, 21600, Note_on_c, 9, 42, 118
8, 21616, Note_on_c, 9, 42, 0
8, 21696, Note_on_c, 9, 40, 127
8, 21696, Note_on_c, 9, 42, 109
8, 21696, Note_on_c, 9, 44, 125
8, 21712, Note_on_c, 9, 40, 0
8, 21712, Note_on_c, 9, 42, 0
8, 21712, Note_on_c, 9, 44, 0
8, 21792, Note_on_c, 9, 42, 127
8, 21808, Note_on_c, 9, 42, 0
8, 21888, Note_on_c, 9, 42, 111
8, 21904, Note_on_c, 9, 42, 0
8, 21984, Note_on_c, 9, 35, 125
8, 21984, Note_on_c, 9, 42, 116
8, 21984, Note_on_c, 9, 46, 127
8, 22000, Note_on_c, 9, 35, 0
8, 22000, Note_on_c, 9, 42, 0
8, 22000, Note_on_c, 9, 46, 0
8, 22080, Note_on_c, 9, 40, 127
8, 22080, Note_on_c, 9, 44, 127
8, 22096, Note_on_c, 9, 40, 0
8, 22096, Note_on_c, 9, 44, 0
8, 22176, Note_on_c, 9, 35, 125
8, 22176, Note_on_c, 9, 42, 127
8, 22192, Note_on_c, 9, 35, 0
8, 22192, Note_on_c, 9, 42, 0
8, 22272, Note_on_c, 9, 35, 127
8, 22272, Note_on_c, 9, 42, 116
8, 22288, Note_on_c, 9, 35, 0
8, 22288, Note_on_c, 9, 42, 0
8, 22320, Note_on_c, 9, 42, 118
8, 22336, Note_on_c, 9, 42, 0
8, 22368, Note_on_c, 9, 42, 118
8, 22384, Note_on_c, 9, 42, 0
8, 22464, Note_on_c, 9, 40, 127
8, 22464, Note_on_c, 9, 42, 109
8, 22464, Note_on_c, 9, 44, 125
8, 22480, Note_on_c, 9, 40, 0
8, 22480, Note_on_c, 9, 42, 0
8, 22480, Note_on_c, 9, 44, 0
8, 22560, Note_on_c, 9, 42, 127
8, 22576, Note_on_c, 9, 42, 0
8, 22656, Note_on_c, 9, 42, 111
8, 22672, Note_on_c, 9, 42, 0
8, 22752, Note_on_c, 9, 35, 125
8, 22752, Note_on_c, 9, 42, 116
8, 22752, Note_on_c, 9, 46, 127
8, 22768, Note_on_c, 9, 35, 0
8, 22768, Note_on_c, 9, 42, 0
8, 22768, Note_on_c, 9, 46, 0
8, 22848, Note_on_c, 9, 40, 127
8, 22848, Note_on_c, 9, 44, 127
8, 22864, Note_on_c, 9, 40, 0
8, 22864, Note_on_c, 9, 44, 0
8, 22944, Note_on_c, 9, 35, 125
8, 22944, Note_on_c, 9, 42, 127
8, 22960, Note_on_c, 9, 35, 0
8, 22960, Note_on_c, 9, 42, 0
8, 23040, Note_on_c, 9, 35, 127
8, 23040, Note_on_c, 9, 42, 116
8, 23056, Note_on_c, 9, 35, 0
8, 23056, Note_on_c, 9, 42, 0
8, 23088, Note_on_c, 9, 42, 118
8, 23104, Note_on_c, 9, 42, 0
8, 23136, Note_on_c, 9, 42, 118
8, 23152, Note_on_c, 9, 42, 0
8, 23232, Note_on_c, 9, 40, 127
8, 23232, Note_on_c, 9, 42, 109
8, 23232, Note_on_c, 9, 44, 125
8, 23248, Note_on_c, 9, 40, 0
8, 23248, Note_on_c, 9, 42, 0
8, 23248, Note_on_c, 9, 44, 0
8, 23328, Note_on_c, 9, 42, 127
8, 23344, Note_on_c, 9, 42, 0
8, 23424, Note_on_c, 9, 42, 111
8, 23440, Note_on_c, 9, 42, 0
8, 23520, Note_on_c, 9, 35, 125
8, 23520, Note_on_c, 9, 42, 116
8, 23520, Note_on_c, 9, 46, 127
8, 23536, Note_on_c, 9, 35, 0
8, 23536, Note_on_c, 9, 42, 0
8, 23536, Note_on_c, 9, 46, 0
8, 23616, Note_on_c, 9, 40, 127
8, 23616, Note_on_c, 9, 44, 127
8, 23632, Note_on_c, 9, 40, 0
8, 23632, Note_on_c, 9, 44, 0
8, 23712, Note_on_c, 9, 35, 125
8, 23712, Note_on_c, 9, 42, 127
8, 23728, Note_on_c, 9, 35, 0
8, 23728, Note_on_c, 9, 42, 0
8, 23808, Note_on_c, 9, 35, 127
8, 23808, Note_on_c, 9, 42, 116
8, 23824, Note_on_c, 9, 35, 0
8, 23824, Note_on_c, 9, 42, 0
8, 23856, Note_on_c, 9, 42, 118
8, 23872, Note_on_c, 9, 42, 0
8, 23904, Note_on_c, 9, 42, 118
8, 23920, Note_on_c, 9, 42, 0
8, 24000, Note_on_c, 9, 40, 127
8, 24000, Note_on_c, 9, 42, 109
8, 24000, Note_on_c, 9, 44, 125
8, 24016, Note_on_c, 9, 40, 0
8, 24016, Note_on_c, 9, 42, 0
8, 24016, Note_on_c, 9, 44, 0
8, 24096, Note_on_c, 9, 42, 127
8, 24112, Note_on_c, 9, 42, 0
8, 24192, Note_on_c, 9, 42, 111
8, 24208, Note_on_c, 9, 42, 0
8, 24288, Note_on_c, 9, 35, 125
8, 24288, Note_on_c, 9, 42, 116
8, 24288, Note_on_c, 9, 46, 127
8, 24304, Note_on_c, 9, 35, 0
8, 24304, Note_on_c, 9, 42, 0
8, 24304, Note_on_c, 9, 46, 0
8, 24384, Note_on_c, 9, 40, 127
8, 24384, Note_on_c, 9, 44, 127
8, 24400, Note_on_c, 9, 40, 0
8, 24400, Note_on_c, 9, 44, 0
8, 24480, Note_on_c, 9, 35, 125
8, 24480, Note_on_c, 9, 42, 127
8, 24496, Note_on_c, 9, 35, 0
8, 24496, Note_on_c, 9, 42, 0
8, 24576, Note_on_c, 9, 35, 127
8, 24576, Note_on_c, 9, 42, 116
8, 24592, Note_on_c, 9, 35, 0
8, 24592, Note_on_c, 9, 42, 0
8, 24624, Note_on_c, 9, 42, 118
8, 24640, Note_on_c, 9, 42, 0
8, 24672, Note_on_c, 9, 42, 118
8, 24688, Note_on_c, 9, 42, 0
8, 24768, Note_on_c, 9, 40, 127
8, 24768, Note_on_c, 9, 42, 109
8, 24768, Note_on_c, 9, 44, 125
8, 24784, Note_on_c, 9, 40, 0
8, 24784, Note_on_c, 9, 42, 0
8, 24784, Note_on_c, 9, 44, 0
8, 24864, Note_on_c, 9, 42, 127
8, 24880, Note_on_c, 9, 42, 0
8, 24960, Note_on_c, 9, 42, 111
8, 24976, Note_on_c, 9, 42, 0
8, 25056, Note_on_c, 9, 35, 125
8, 25056, Note_on_c, 9, 42, 116
8, 25056, Note_on_c, 9, 46, 127
8, 25072, Note_on_c, 9, 35, 0
8, 25072, Note_on_c, 9, 42, 0
8, 25072, Note_on_c, 9, 46, 0
8, 25152, Note_on_c, 9, 40, 127
8, 25152, Note_on_c, 9, 44, 127
8, 25168, Note_on_c, 9, 40, 0
8, 25168, Note_on_c, 9, 44, 0
8, 25248, Note_on_c, 9, 35, 125
8, 25248, Note_on_c, 9, 42, 127
8, 25264, Note_on_c, 9, 35, 0
8, 25264, Note_on_c, 9, 42, 0
8, 25344, Note_on_c, 9, 35, 127
8, 25344, Note_on_c, 9, 42, 116
8, 25360, Note_on_c, 9, 35, 0
8, 25360, Note_on_c, 9, 42, 0
8, 25392, Note_on_c, 9, 42, 118
8, 25408, Note_on_c, 9, 42, 0
8, 25440, Note_on_c, 9, 42, 118
8, 25456, Note_on_c, 9, 42, 0
8, 25536, Note_on_c, 9, 40, 127
8, 25536, Note_on_c, 9, 42, 109
8, 25536, Note_on_c, 9, 44, 125
8, 25552, Note_on_c, 9, 40, 0
8, 25552, Note_on_c, 9, 42, 0
8, 25552, Note_on_c, 9, 44, 0
8, 25632, Note_on_c, 9, 42, 127
8, 25648, Note_on_c, 9, 42, 0
8, 25728, Note_on_c, 9, 42, 111
8, 25744, Note_on_c, 9, 42, 0
8, 25824, Note_on_c, 9, 35, 125
8, 25824, Note_on_c, 9, 42, 116
8, 25824, Note_on_c, 9, 46, 127
8, 25840, Note_on_c, 9, 35, 0
8, 25840, Note_on_c, 9, 42, 0
8, 25840, Note_on_c, 9, 46, 0
8, 25920, Note_on_c, 9, 40, 127
8, 25920, Note_on_c, 9, 44, 127
8, 25936, Note_on_c, 9, 40, 0
8, 25936, Note_on_c, 9, 44, 0
8, 26016, Note_on_c, 9, 35, 125
8, 26016, Note_on_c, 9, 42, 127
8, 26032, Note_on_c, 9, 35, 0
8, 26032, Note_on_c, 9, 42, 0
8, 26112, Note_on_c, 9, 35, 127
8, 26112, Note_on_c, 9, 42, 116
8, 26128, Note_on_c, 9, 35, 0
8, 26128, Note_on_c, 9, 42, 0
8, 26160, Note_on_c, 9, 42, 118
8, 26176, Note_on_c, 9, 42, 0
8, 26208, Note_on_c, 9, 42, 118
8, 26224, Note_on_c, 9, 42, 0
8, 26304, Note_on_c, 9, 40, 127
8, 26304, Note_on_c, 9, 42, 109
8, 26304, Note_on_c, 9, 44, 125
8, 26320, Note_on_c, 9, 40, 0
8, 26320, Note_on_c, 9, 42, 0
8, 26320, Note_on_c, 9, 44, 0
8, 26400, Note_on_c, 9, 42, 127
8, 26416, Note_on_c, 9, 42, 0
8, 26496, Note_on_c, 9, 42, 111
8, 26512, Note_on_c, 9, 42, 0
8, 26592, Note_on_c, 9, 35, 125
8, 26592, Note_on_c, 9, 42, 116
8, 26592, Note_on_c, 9, 46, 127
8, 26608, Note_on_c, 9, 35, 0
8, 26608, Note_on_c, 9, 42, 0
8, 26608, Note_on_c, 9, 46, 0
8, 26688, Note_on_c, 9, 40, 127
8, 26688, Note_on_c, 9, 44, 127
8, 26704, Note_on_c, 9, 40, 0
8, 26704, Note_on_c, 9, 44, 0
8, 26784, Note_on_c, 9, 35, 125
8, 26784, Note_on_c, 9, 42, 127
8, 26800, Note_on_c, 9, 35, 0
8, 26800, Note_on_c, 9, 42, 0
8, 26880, Note_on_c, 9, 35, 127
8, 26880, Note_on_c, 9, 42, 116
8, 26896, Note_on_c, 9, 35, 0
8, 26896, Note_on_c, 9, 42, 0
8, 26928, Note_on_c, 9, 42, 118
8, 26944, Note_on_c, 9, 42, 0
8, 26976, Note_on_c, 9, 42, 118
8, 26992, Note_on_c, 9, 42, 0
8, 27072, Note_on_c, 9, 40, 127
8, 27072, Note_on_c, 9, 42, 109
8, 27072, Note_on_c, 9, 44, 125
8, 27088, Note_on_c, 9, 40, 0
8, 27088, Note_on_c, 9, 42, 0
8, 27088, Note_on_c, 9, 44, 0
8, 27168, Note_on_c, 9, 42, 127
8, 27184, Note_on_c, 9, 42, 0
8, 27264, Note_on_c, 9, 42, 111
8, 27280, Note_on_c, 9, 42, 0
8, 27360, Note_on_c, 9, 35, 125
8, 27360, Note_on_c, 9, 42, 116
8, 27360, Note_on_c, 9, 46, 127
8, 27376, Note_on_c, 9, 35, 0
8, 27376, Note_on_c, 9, 42, 0
8, 27376, Note_on_c, 9, 46, 0
8, 27456, Note_on_c, 9, 40, 127
8, 27456, Note_on_c, 9, 44, 127
8, 27472, Note_on_c, 9, 40, 0
8, 27472, Note_on_c, 9, 44, 0
8, 27552, Note_on_c, 9, 35, 125
8, 27552, Note_on_c, 9, 42, 127
8, 27568, Note_on_c, 9, 35, 0
8, 27568, Note_on_c, 9, 42, 0
8, 27648, Note_on_c, 9, 35, 127
8, 27648, Note_on_c, 9, 42, 116
8, 27664, Note_on_c, 9, 35, 0
8, 27664, Note_on_c, 9, 42, 0
8, 27696, Note_on_c, 9, 42, 118
8, 27712, Note_on_c, 9, 42, 0
8, 27744, Note_on_c, 9, 42, 118
8, 27760, Note_on_c, 9, 42, 0
8, 27840, Note_on_c, 9, 40, 127
8, 27840, Note_on_c, 9, 42, 109
8, 27840, Note_on_c, 9, 44, 125
8, 27856, Note_on_c, 9, 40, 0
8, 27856, Note_on_c, 9, 42, 0
8, 27856, Note_on_c, 9, 44, 0
8, 27936, Note_on_c, 9, 42, 127
8, 27952, Note_on_c, 9, 42, 0
8, 28032, Note_on_c, 9, 42, 111
8, 28048, Note_on_c, 9, 42, 0
8, 28128, Note_on_c, 9, 35, 125
8, 28128, Note_on_c, 9, 42, 116
8, 28128, Note_on_c, 9, 46, 127
8, 28144, Note_on_c, 9, 35, 0
8, 28144, Note_on_c, 9, 42, 0
8, 28144, Note_on_c, 9, 46, 0
8, 28224, Note_on_c, 9, 40, 127
8, 28224, Note_on_c, 9, 44, 127
8, 28240, Note_on_c, 9, 40, 0
8, 28240, Note_on_c, 9, 44, 0
8, 28320, Note_on_c, 9, 35, 125
8, 28320, Note_on_c, 9, 42, 127
8, 28336, Note_on_c, 9, 35, 0
8, 28336, Note_on_c, 9, 42, 0
8, 28416, Note_on_c, 9, 35, 127
8, 28416, Note_on_c, 9, 42, 116
8, 28432, Note_on_c, 9, 35, 0
8, 28432, Note_on_c, 9, 42, 0
8, 28464, Note_on_c, 9, 42, 118
8, 28480, Note_on_c, 9, 42, 0
8, 28512, Note_on_c, 9, 42, 118
8, 28528, Note_on_c, 9, 42, 0
8, 28608, Note_on_c, 9, 40, 127
8, 28608, Note_on_c, 9, 42, 109
8, 28608, Note_on_c, 9, 44, 125
8, 28624, Note_on_c, 9, 40, 0
8, 28624, Note_on_c, 9, 42, 0
8, 28624, Note_on_c, 9, 44, 0
8, 28704, Note_on_c, 9, 42, 127
8, 28720, Note_on_c, 9, 42, 0
8, 28800, Note_on_c, 9, 42, 111
8, 28816, Note_on_c, 9, 42, 0
8, 28896, Note_on_c, 9, 35, 125
8, 28896, Note_on_c, 9, 42, 116
8, 28896, Note_on_c, 9, 46, 127
8, 28912, Note_on_c, 9, 35, 0
8, 28912, Note_on_c, 9, 42, 0
8, 28912, Note_on_c, 9, 46, 0
8, 28992, Note_on_c, 9, 40, 127
8, 28992, Note_on_c, 9, 44, 127
8, 29008, Note_on_c, 9, 40, 0
8, 29008, Note_on_c, 9, 44, 0
8, 29088, Note_on_c, 9, 35, 125
8, 29088, Note_on_c, 9, 42, 127
8, 29104, Note_on_c, 9, 35, 0
8, 29104, Note_on_c, 9, 42, 0
8, 29184, Note_on_c, 9, 35, 127
8, 29184, Note_on_c, 9, 42, 116
8, 29200, Note_on_c, 9, 35, 0
8, 29200, Note_on_c, 9, 42, 0
8, 29232, Note_on_c, 9, 42, 118
8, 29248, Note_on_c, 9, 42, 0
8, 29280, Note_on_c, 9, 42, 118
8, 29296, Note_on_c, 9, 42, 0
8, 29376, Note_on_c, 9, 40, 127
8, 29376, Note_on_c, 9, 42, 109
8, 29376, Note_on_c, 9, 44, 125
8, 29392, Note_on_c, 9, 40, 0
8, 29392, Note_on_c, 9, 42, 0
8, 29392, Note_on_c, 9, 44, 0
8, 29472, Note_on_c, 9, 42, 127
8, 29488, Note_on_c, 9, 42, 0
8, 29568, Note_on_c, 9, 42, 111
8, 29584, Note_on_c, 9, 42, 0
8, 29664, Note_on_c, 9, 35, 125
8, 29664, Note_on_c, 9, 42, 116
8, 29664, Note_on_c, 9, 46, 127
8, 29680, Note_on_c, 9, 35, 0
8, 29680, Note_on_c, 9, 42, 0
8, 29680, Note_on_c, 9, 46, 0
8, 29760, Note_on_c, 9, 40, 127
8, 29760, Note_on_c, 9, 44, 127
8, 29776, Note_on_c, 9, 40, 0
8, 29776, Note_on_c, 9, 44, 0
8, 29856, Note_on_c, 9, 35, 125
8, 29856, Note_on_c, 9, 42, 127
8, 29872, Note_on_c, 9, 35, 0
8, 29872, Note_on_c, 9, 42, 0
8, 29952, Note_on_c, 9, 35, 127
8, 29952, Note_on_c, 9, 42, 116
8, 29968, Note_on_c, 9, 35, 0
8, 29968, Note_on_c, 9, 42, 0
8, 30000, Note_on_c, 9, 42, 118
8, 30016, Note_on_c, 9, 42, 0
8, 30048, Note_on_c, 9, 42, 118
8, 30064, Note_on_c, 9, 42, 0
8, 30144, Note_on_c, 9, 40, 127
8, 30144, Note_on_c, 9, 42, 109
8, 30144, Note_on_c, 9, 44, 125
8, 30160, Note_on_c, 9, 40, 0
8, 30160, Note_on_c, 9, 42, 0
8, 30160, Note_on_c, 9, 44, 0
8, 30240, Note_on_c, 9, 42, 127
8, 30256, Note_on_c, 9, 42, 0
8, 30336, Note_on_c, 9, 42, 111
8, 30352, Note_on_c, 9, 42, 0
8, 30432, Note_on_c, 9, 35, 125
8, 30432, Note_on_c, 9, 42, 116
8, 30432, Note_on_c, 9, 46, 127
8, 30448, Note_on_c, 9, 35, 0
8, 30448, Note_on_c, 9, 42, 0
8, 30448, Note_on_c, 9, 46, 0
8, 30528, Note_on_c, 9, 40, 127
8, 30528, Note_on_c, 9, 44, 127
8, 30544, Note_on_c, 9, 40, 0
8, 30544, Note_on_c, 9, 44, 0
8, 30624, Note_on_c, 9, 35, 125
8, 30624, Note_on_c, 9, 42, 127
8, 30640, Note_on_c, 9, 35, 0
8, 30640, Note_on_c, 9, 42, 0
8, 30720, Note_on_c, 9, 35, 127
8, 30720, Note_on_c, 9, 42, 116
8, 30736, Note_on_c, 9, 35, 0
8, 30736, Note_on_c, 9, 42, 0
8, 30768, Note_on_c, 9, 42, 118
8, 30784, Note_on_c, 9, 42, 0
8, 30816, Note_on_c, 9, 42, 118
8, 30832, Note_on_c, 9, 42, 0
8, 30912, Note_on_c, 9, 40, 127
8, 30912, Note_on_c, 9, 42, 109
8, 30912, Note_on_c, 9, 44, 125
8, 30928, Note_on_c, 9, 40, 0
8, 30928, Note_on_c, 9, 42, 0
8, 30928, Note_on_c, 9, 44, 0
8, 31008, Note_on_c, 9, 42, 127
8, 31024, Note_on_c, 9, 42, 0
8, 31104, Note_on_c, 9, 42, 111
8, 31120, Note_on_c, 9, 42, 0
8, 31200, Note_on_c, 9, 35, 125
8, 31200, Note_on_c, 9, 42, 116
8, 31200, Note_on_c, 9, 46, 127
8, 31216, Note_on_c, 9, 35, 0
8, 31216, Note_on_c, 9, 42, 0
8, 31216, Note_on_c, 9, 46, 0
8, 31296, Note_on_c, 9, 40, 127
8, 31296, Note_on_c, 9, 44, 127
8, 31312, Note_on_c, 9, 40, 0
8, 31312, Note_on_c, 9, 44, 0
8, 31392, Note_on_c, 9, 35, 125
8, 31392, Note_on_c, 9, 42, 127
8, 31408, Note_on_c, 9, 35, 0
8, 31408, Note_on_c, 9, 42, 0
8, 31488, Note_on_c, 9, 35, 127
8, 31488, Note_on_c, 9, 42, 116
8, 31504, Note_on_c, 9, 35, 0
8, 31504, Note_on_c, 9, 42, 0
8, 31536, Note_on_c, 9, 42, 118
8, 31552, Note_on_c, 9, 42, 0
8, 31584, Note_on_c, 9, 42, 118
8, 31600, Note_on_c, 9, 42, 0
8, 31680, Note_on_c, 9, 40, 127
8, 31680, Note_on_c, 9, 42, 109
8, 31680, Note_on_c, 9, 44, 125
8, 31696, Note_on_c, 9, 40, 0
8, 31696, Note_on_c, 9, 42, 0
8, 31696, Note_on_c, 9, 44, 0
8, 31776, Note_on_c, 9, 42, 127
8, 31792, Note_on_c, 9, 42, 0
8, 31872, Note_on_c, 9, 42, 111
8, 31888, Note_on_c, 9, 42, 0
8, 31968, Note_on_c, 9, 35, 125
8, 31968, Note_on_c, 9, 42, 116
8, 31968, Note_on_c, 9, 46, 127
8, 31984, Note_on_c, 9, 35, 0
8, 31984, Note_on_c, 9, 42, 0
8, 31984, Note_on_c, 9, 46, 0
8, 32064, Note_on_c, 9, 40, 127
8, 32064, Note_on_c, 9, 44, 127
8, 32080, Note_on_c, 9, 40, 0
8, 32080, Note_on_c, 9, 44, 0
8, 32160, Note_on_c, 9, 35, 125
8, 32160, Note_on_c, 9, 42, 127
8, 32176, Note_on_c, 9, 35, 0
8, 32176, Note_on_c, 9, 42, 0
8, 32256, Note_on_c, 9, 35, 127
8, 32256, Note_on_c, 9, 42, 116
8, 32272, Note_on_c, 9, 35, 0
8, 32272, Note_on_c, 9, 42, 0
8, 32304, Note_on_c, 9, 42, 118
8, 32320, Note_on_c, 9, 42, 0
8, 32352, Note_on_c, 9, 42, 118
8, 32368, Note_on_c, 9, 42, 0
8, 32448, Note_on_c, 9, 40, 127
8, 32448, Note_on_c, 9, 42, 109
8, 32448, Note_on_c, 9, 44, 125
8, 32464, Note_on_c, 9, 40, 0
8, 32464, Note_on_c, 9, 42, 0
8, 32464, Note_on_c, 9, 44, 0
8, 32544, Note_on_c, 9, 42, 127
8, 32560, Note_on_c, 9, 42, 0
8, 32640, Note_on_c, 9, 42, 111
8, 32656, Note_on_c, 9, 42, 0
8, 32736, Note_on_c, 9, 35, 125
8, 32736, Note_on_c, 9, 42, 116
8, 32736, Note_on_c, 9, 46, 127
8, 32752, Note_on_c, 9, 35, 0
8, 32752, Note_on_c, 9, 42, 0
8, 32752, Note_on_c, 9, 46, 0
8, 32832, Note_on_c, 9, 40, 127
8, 32832, Note_on_c, 9, 44, 127
8, 32848, Note_on_c, 9, 40, 0
8, 32848, Note_on_c, 9, 44, 0
8, 32928, Note_on_c, 9, 35, 125
8, 32928, Note_on_c, 9, 42, 127
8, 32944, Note_on_c, 9, 35, 0
8, 32944, Note_on_c, 9, 42, 0
8, 33024, Note_on_c, 9, 35, 127
8, 33024, Note_on_c, 9, 42, 116
8, 33040, Note_on_c, 9, 35, 0
8, 33040, Note_on_c, 9, 42, 0
8, 33072, Note_on_c, 9, 42, 118
8, 33088, Note_on_c, 9, 42, 0
8, 33120, Note_on_c, 9, 42, 118
8, 33136, Note_on_c, 9, 42, 0
8, 33216, Note_on_c, 9, 40, 127
8, 33216, Note_on_c, 9, 42, 109
8, 33216, Note_on_c, 9, 44, 125
8, 33232, Note_on_c, 9, 40, 0
8, 33232, Note_on_c, 9, 42, 0
8, 33232, Note_on_c, 9, 44, 0
8, 33312, Note_on_c, 9, 42, 127
8, 33328, Note_on_c, 9, 42, 0
8, 33408, Note_on_c, 9, 42, 111
8, 33424, Note_on_c, 9, 42, 0
8, 33504, Note_on_c, 9, 35, 125
8, 33504, Note_on_c, 9, 42, 116
8, 33504, Note_on_c, 9, 46, 127
8, 33520, Note_on_c, 9, 35, 0
8, 33520, Note_on_c, 9, 42, 0
8, 33520, Note_on_c, 9, 46, 0
8, 33600, Note_on_c, 9, 40, 127
8, 33600, Note_on_c, 9, 44, 127
8, 33616, Note_on_c, 9, 40, 0
8, 33616, Note_on_c, 9, 44, 0
8, 33696, Note_on_c, 9, 35, 125
8, 33696, Note_on_c, 9, 42, 127
8, 33712, Note_on_c, 9, 35, 0
8, 33712, Note_on_c, 9, 42, 0
8, 33792, Note_on_c, 9, 35, 127
8, 33792, Note_on_c, 9, 42, 116
8, 33808, Note_on_c, 9, 35, 0
8, 33808, Note_on_c, 9, 42, 0
8, 33840, Note_on_c, 9, 42, 118
8, 33856, Note_on_c, 9, 42, 0
8, 33888, Note_on_c, 9, 42, 118
8, 33904, Note_on_c, 9, 42, 0
8, 33984, Note_on_c, 9, 40, 127
8, 33984, Note_on_c, 9, 42, 109
8, 33984, Note_on_c, 9, 44, 125
8, 34000, Note_on_c, 9, 40, 0
8, 34000, Note_on_c, 9, 42, 0
8, 34000, Note_on_c, 9, 44, 0
8, 34080, Note_on_c, 9, 42, 127
8, 34096, Note_on_c, 9, 42, 0
8, 34176, Note_on_c, 9, 42, 111
8, 34192, Note_on_c, 9, 42, 0
8, 34272, Note_on_c, 9, 35, 125
8, 34272, Note_on_c, 9, 42, 116
8, 34272, Note_on_c, 9, 46, 127
8, 34288, Note_on_c, 9, 35, 0
8, 34288, Note_on_c, 9, 42, 0
8, 34288, Note_on_c, 9, 46, 0
8, 34368, Note_on_c, 9, 40, 127
8, 34368, Note_on_c, 9, 44, 127
8, 34384, Note_on_c, 9, 40, 0
8, 34384, Note_on_c, 9, 44, 0
8, 34464, Note_on_c, 9, 35, 125
8, 34464, Note_on_c, 9, 42, 127
8, 34480, Note_on_c, 9, 35, 0
8, 34480, Note_on_c, 9, 42, 0
8, 34560, Note_on_c, 9, 35, 127
8, 34560, Note_on_c, 9, 42, 116
8, 34576, Note_on_c, 9, 35, 0
8, 34576, Note_on_c, 9, 42, 0
8, 34608, Note_on_c, 9, 42, 118
8, 34624, Note_on_c, 9, 42, 0
8, 34656, Note_on_c, 9, 42, 118
8, 34672, Note_on_c, 9, 42, 0
8, 34752, Note_on_c, 9, 40, 127
8, 34752, Note_on_c, 9, 42, 109
8, 34752, Note_on_c, 9, 44, 125
8, 34768, Note_on_c, 9, 40, 0
8, 34768, Note_on_c, 9, 42, 0
8, 34768, Note_on_c, 9, 44, 0
8, 34848, Note_on_c, 9, 42, 127
8, 34864, Note_on_c, 9, 42, 0
8, 34944, Note_on_c, 9, 42, 111
8, 34960, Note_on_c, 9, 42, 0
8, 35040, Note_on_c, 9, 35, 125
8, 35040, Note_on_c, 9, 42, 116
8, 35040, Note_on_c, 9, 46, 127
8, 35056, Note_on_c, 9, 35, 0
8, 35056, Note_on_c, 9, 42, 0
8, 35056, Note_on_c, 9, 46, 0
8, 35136, Note_on_c, 9, 40, 127
8, 35136, Note_on_c, 9, 44, 127
8, 35152, Note_on_c, 9, 40, 0
8, 35152, Note_on_c, 9, 44, 0
8, 35232, Note_on_c, 9, 35, 125
8, 35232, Note_on_c, 9, 42, 127
8, 35248, Note_on_c, 9, 35, 0
8, 35248, Note_on_c, 9, 42, 0
8, 35328, Note_on_c, 9, 35, 127
8, 35328, Note_on_c, 9, 42, 116
8, 35344, Note_on_c, 9, 35, 0
8, 35344, Note_on_c, 9, 42, 0
8, 35376, Note_on_c, 9, 42, 118
8, 35392, Note_on_c, 9, 42, 0
8, 35424, Note_on_c, 9, 42, 118
8, 35440, Note_on_c, 9, 42, 0
8, 35520, Note_on_c, 9, 40, 127
8, 35520, Note_on_c, 9, 42, 109
8, 35520, Note_on_c, 9, 44, 125
8, 35536, Note_on_c, 9, 40, 0
8, 35536, Note_on_c, 9, 42, 0
8, 35536, Note_on_c, 9, 44, 0
8, 35616, Note_on_c, 9, 42, 127
8, 35632, Note_on_c, 9, 42, 0
8, 35712, Note_on_c, 9, 42, 111
8, 35728, Note_on_c, 9, 42, 0
8, 35808, Note_on_c, 9, 35, 125
8, 35808, Note_on_c, 9, 42, 116
8, 35808, Note_on_c, 9, 46, 127
8, 35824, Note_on_c, 9, 35, 0
8, 35824, Note_on_c, 9, 42, 0
8, 35824, Note_on_c, 9, 46, 0
8, 35904, Note_on_c, 9, 40, 127
8, 35904, Note_on_c, 9, 44, 127
8, 35920, Note_on_c, 9, 40, 0
8, 35920, Note_on_c, 9, 44, 0
8, 36000, Note_on_c, 9, 35, 125
8, 36000, Note_on_c, 9, 42, 127
8, 36016, Note_on_c, 9, 35, 0
8, 36016, Note_on_c, 9, 42, 0
8, 36096, Note_on_c, 9, 35, 127
8, 36096, Note_on_c, 9, 42, 116
8, 36112, Note_on_c, 9, 35, 0
8, 36112, Note_on_c, 9, 42, 0
8, 36144, Note_on_c, 9, 42, 118
8, 36160, Note_on_c, 9, 42, 0
8, 36192, Note_on_c, 9, 42, 118
8, 36208, Note_on_c, 9, 42, 0
8, 36288, Note_on_c, 9, 40, 127
8, 36288, Note_on_c, 9, 42, 109
8, 36288, Note_on_c, 9, 44, 125
8, 36304, Note_on_c, 9, 40, 0
8, 36304, Note_on_c, 9, 42, 0
8, 36304, Note_on_c, 9, 44, 0
8, 36384, Note_on_c, 9, 42, 127
8, 36400, Note_on_c, 9, 42, 0
8, 36480, Note_on_c, 9, 42, 111
8, 36496, Note_on_c, 9, 42, 0
8, 36576, Note_on_c, 9, 35, 125
8, 36576, Note_on_c, 9, 42, 116
8, 36576, Note_on_c, 9, 46, 127
8, 36592, Note_on_c, 9, 35, 0
8, 36592, Note_on_c, 9, 42, 0
8, 36592, Note_on_c, 9, 46, 0
8, 36672, Note_on_c, 9, 40, 127
8, 36672, Note_on_c, 9, 44, 127
8, 36688, Note_on_c, 9, 40, 0
8, 36688, Note_on_c, 9, 44, 0
8, 36768, Note_on_c, 9, 35, 125
8, 36768, Note_on_c, 9, 42, 127
8, 36784, Note_on_c, 9, 35, 0
8, 36784, Note_on_c, 9, 42, 0
8, 36864, Note_on_c, 9, 35, 127
8, 36864, Note_on_c, 9, 42, 116
8, 36880, Note_on_c, 9, 35, 0
8, 36880, Note_on_c, 9, 42, 0
8, 36912, Note_on_c, 9, 42, 118
8, 36928, Note_on_c, 9, 42, 0
8, 36960, Note_on_c, 9, 42, 118
8, 36976, Note_on_c, 9, 42, 0
8, 37056, Note_on_c, 9, 40, 127
8, 37056, Note_on_c, 9, 42, 109
8, 37056, Note_on_c, 9, 44, 125
8, 37056, Note_on_c, 9, 45, 127
8, 37072, Note_on_c, 9, 40, 0
8, 37072, Note_on_c, 9, 42, 0
8, 37072, Note_on_c, 9, 44, 0
8, 37072, Note_on_c, 9, 45, 0
8, 37104, Note_on_c, 9, 45, 127
8, 37120, Note_on_c, 9, 45, 0
8, 37152, Note_on_c, 9, 45, 127
8, 37168, Note_on_c, 9, 45, 0
8, 37200, Note_on_c, 9, 45, 127
8, 37216, Note_on_c, 9, 45, 0
8, 37248, Note_on_c, 9, 48, 118
8, 37264, Note_on_c, 9, 48, 0
8, 37296, Note_on_c, 9, 48, 118
8, 37312, Note_on_c, 9, 48, 0
8, 37344, Note_on_c, 9, 48, 121
8, 37360, Note_on_c, 9, 48, 0
8, 37392, Note_on_c, 9, 48, 121
8, 37408, Note_on_c, 9, 48, 0
8, 37440, Note_on_c, 9, 40, 127
8, 37456, Note_on_c, 9, 40, 0
8, 37488, Note_on_c, 9, 40, 127
8, 37504, Note_on_c, 9, 40, 0
8, 37536, Note_on_c, 9, 40, 127
8, 37552, Note_on_c, 9, 40, 0
8, 37584, Note_on_c, 9, 40, 127
8, 37600, Note_on_c, 9, 40, 0
8, 37632, Note_on_c, 9, 35, 127
8, 37632, Note_on_c, 9, 40, 127
8, 37648, Note_on_c, 9, 35, 0
8, 37648, Note_on_c, 9, 40, 0
8, 38976, Note_on_c, 9, 40, 127
8, 38976, Note_on_c, 9, 44, 127
8, 38992, Note_on_c, 9, 40, 0
8, 38992, Note_on_c, 9, 44, 0
8, 39072, Note_on_c, 9, 42, 127
8, 39072, Note_on_c, 9, 46, 127
8, 39088, Note_on_c, 9, 42, 0
8, 39088, Note_on_c, 9, 46, 0
8, 39168, Note_on_c, 9, 35, 127
8, 39168, Note_on_c, 9, 42, 116
8, 39184, Note_on_c, 9, 35, 0
8, 39184, Note_on_c, 9, 42, 0
8, 39216, Note_on_c, 9, 42, 118
8, 39232, Note_on_c, 9, 42, 0
8, 39264, Note_on_c, 9, 42, 118
8, 39280, Note_on_c, 9, 42, 0
8, 39360, Note_on_c, 9, 40, 127
8, 39360, Note_on_c, 9, 42, 109
8, 39360, Note_on_c, 9, 44, 125
8, 39376, Note_on_c, 9, 40, 0
8, 39376, Note_on_c, 9, 42, 0
8, 39376, Note_on_c, 9, 44, 0
8, 39456, Note_on_c, 9, 42, 127
8, 39472, Note_on_c, 9, 42, 0
8, 39552, Note_on_c, 9, 42, 111
8, 39568, Note_on_c, 9, 42, 0
8, 39648, Note_on_c, 9, 35, 125
8, 39648, Note_on_c, 9, 42, 116
8, 39648, Note_on_c, 9, 46, 127
8, 39664, Note_on_c, 9, 35, 0
8, 39664, Note_on_c, 9, 42, 0
8, 39664, Note_on_c, 9, 46, 0
8, 39744, Note_on_c, 9, 40, 127
8, 39744, Note_on_c, 9, 44, 127
8, 39760, Note_on_c, 9, 40, 0
8, 39760, Note_on_c, 9, 44, 0
8, 39840, Note_on_c, 9, 35, 125
8, 39840, Note_on_c, 9, 42, 127
8, 39856, Note_on_c, 9, 35, 0
8, 39856, Note_on_c, 9, 42, 0
8, 39936, Note_on_c, 9, 35, 127
8, 39936, Note_on_c, 9, 42, 116
8, 39952, Note_on_c, 9, 35, 0
8, 39952, Note_on_c, 9, 42, 0
8, 39984, Note_on_c, 9, 42, 118
8, 40000, Note_on_c, 9, 42, 0
8, 40032, Note_on_c, 9, 42, 118
8, 40048, Note_on_c, 9, 42, 0
8, 40128, Note_on_c, 9, 40, 127
8, 40128, Note_on_c, 9, 42, 109
8, 40128, Note_on_c, 9, 44, 125
8, 40144, Note_on_c, 9, 40, 0
8, 40144, Note_on_c, 9, 42, 0
8, 40144, Note_on_c, 9, 44, 0
8, 40224, Note_on_c, 9, 42, 127
8, 40240, Note_on_c, 9, 42, 0
8, 40320, Note_on_c, 9, 42, 111
8, 40336, Note_on_c, 9, 42, 0
8, 40416, Note_on_c, 9, 35, 125
8, 40416, Note_on_c, 9, 42, 116
8, 40416, Note_on_c, 9, 46, 127
8, 40432, Note_on_c, 9, 35, 0
8, 40432, Note_on_c, 9, 42, 0
8, 40432, Note_on_c, 9, 46, 0
8, 40512, Note_on_c, 9, 40, 127
8, 40512, Note_on_c, 9, 44, 127
8, 40528, Note_on_c, 9, 40, 0
8, 40528, Note_on_c, 9, 44, 0
8, 40608, Note_on_c, 9, 35, 125
8, 40608, Note_on_c, 9, 42, 127
8, 40624, Note_on_c, 9, 35, 0
8, 40624, Note_on_c, 9, 42, 0
8, 40704, Note_on_c, 9, 35, 127
8, 40704, Note_on_c, 9, 42, 116
8, 40720, Note_on_c, 9, 35, 0
8, 40720, Note_on_c, 9, 42, 0
8, 40752, Note_on_c, 9, 42, 118
8, 40768, Note_on_c, 9, 42, 0
8, 40800, Note_on_c, 9, 42, 118
8, 40816, Note_on_c, 9, 42, 0
8, 40896, Note_on_c, 9, 40, 127
8, 40896, Note_on_c, 9, 42, 109
8, 40896, Note_on_c, 9, 44, 125
8, 40912, Note_on_c, 9, 40, 0
8, 40912, Note_on_c, 9, 42, 0
8, 40912, Note_on_c, 9, 44, 0
8, 40992, Note_on_c, 9, 42, 127
8, 41008, Note_on_c, 9, 42, 0
8, 41088, Note_on_c, 9, 42, 111
8, 41104, Note_on_c, 9, 42, 0
8, 41184, Note_on_c, 9, 35, 125
8, 41184, Note_on_c, 9, 42, 116
8, 41184, Note_on_c, 9, 46, 127
8, 41200, Note_on_c, 9, 35, 0
8, 41200, Note_on_c, 9, 42, 0
8, 41200, Note_on_c, 9, 46, 0
8, 41280, Note_on_c, 9, 40, 127
8, 41280, Note_on_c, 9, 44, 127
8, 41296, Note_on_c, 9, 40, 0
8, 41296, Note_on_c, 9, 44, 0
8, 41376, Note_on_c, 9, 35, 125
8, 41376, Note_on_c, 9, 42, 127
8, 41392, Note_on_c, 9, 35, 0
8, 41392, Note_on_c, 9, 42, 0
8, 41472, Note_on_c, 9, 35, 127
8, 41472, Note_on_c, 9, 42, 116
8, 41488, Note_on_c, 9, 35, 0
8, 41488, Note_on_c, 9, 42, 0
8, 41520, Note_on_c, 9, 42, 118
8, 41536, Note_on_c, 9, 42, 0
8, 41568, Note_on_c, 9, 40, 109
8, 41568, Note_on_c, 9, 42, 118
8, 41584, Note_on_c, 9, 40, 0
8, 41584, Note_on_c, 9, 42, 0
8, 41592, Note_on_c, 9, 40, 123
8, 41608, Note_on_c, 9, 40, 0
8, 41616, Note_on_c, 9, 40, 127
8, 41632, Note_on_c, 9, 40, 0
8, 41640, Note_on_c, 9, 40, 127
8, 41656, Note_on_c, 9, 40, 0
8, 41664, Note_on_c, 9, 40, 127
8, 41664, Note_on_c, 9, 42, 109
8, 41664, Note_on_c, 9, 44, 125
8, 41680, Note_on_c, 9, 40, 0
8, 41680, Note_on_c, 9, 42, 0
8, 41680, Note_on_c, 9, 44, 0
8, 41760, Note_on_c, 9, 40, 109
8, 41760, Note_on_c, 9, 42, 127
8, 41776, Note_on_c, 9, 40, 0
8, 41776, Note_on_c, 9, 42, 0
8, 41784, Note_on_c, 9, 40, 111
8, 41800, Note_on_c, 9, 40, 0
8, 41808, Note_on_c, 9, 40, 116
8, 41824, Note_on_c, 9, 40, 0
8, 41832, Note_on_c, 9, 40, 127
8, 41848, Note_on_c, 9, 40, 0
8, 41856, Note_on_c, 9, 40, 127
8, 41856, Note_on_c, 9, 42, 111
8, 41872, Note_on_c, 9, 40, 0
8, 41872, Note_on_c, 9, 42, 0
8, 41928, Note_on_c, 9, 40, 104
8, 41944, Note_on_c, 9, 40, 0
8, 41952, Note_on_c, 9, 35, 125
8, 41952, Note_on_c, 9, 40, 106
8, 41952, Note_on_c, 9, 42, 116
8, 41952, Note_on_c, 9, 46, 127
8, 41968, Note_on_c, 9, 35, 0
8, 41968, Note_on_c, 9, 40, 0
8, 41968, Note_on_c, 9, 42, 0
8, 41968, Note_on_c, 9, 46, 0
8, 41976, Note_on_c, 9, 40, 116
8, 41992, Note_on_c, 9, 40, 0
8, 42000, Note_on_c, 9, 40, 121
8, 42016, Note_on_c, 9, 40, 0
8, 42024, Note_on_c, 9, 40, 127
8, 42040, Note_on_c, 9, 40, 0
8, 42048, Note_on_c, 9, 40, 127
8, 42048, Note_on_c, 9, 44, 127
8, 42064, Note_on_c, 9, 40, 0
8, 42064, Note_on_c, 9, 44, 0
8, 42096, Note_on_c, 9, 40, 127
8, 42112, Note_on_c, 9, 40, 0
8, 42144, Note_on_c, 9, 35, 125
8, 42144, Note_on_c, 9, 40, 127
8, 42144, Note_on_c, 9, 42, 127
8, 42160, Note_on_c, 9, 35, 0
8, 42160, Note_on_c, 9, 40, 0
8, 42160, Note_on_c, 9, 42, 0
8, 42192, Note_on_c, 9, 40, 127
8, 42208, Note_on_c, 9, 40, 0
8, 42240, Note_on_c, 9, 35, 127
8, 42240, Note_on_c, 9, 40, 127
8, 42240, Note_on_c, 9, 42, 116
8, 42256, Note_on_c, 9, 35, 0
8, 42256, Note_on_c, 9, 40, 0
8, 42256, Note_on_c, 9, 42, 0
8, 42288, Note_on_c, 9, 42, 118
8, 42304, Note_on_c, 9, 42, 0
8, 42336, Note_on_c, 9, 42, 118
8, 42352, Note_on_c, 9, 42, 0
8, 42432, Note_on_c, 9, 40, 127
8, 42432, Note_on_c, 9, 42, 109
8, 42432, Note_on_c, 9, 44, 125
8, 42448, Note_on_c, 9, 40, 0
8, 42448, Note_on_c, 9, 42, 0
8, 42448, Note_on_c, 9, 44, 0
8, 42528, Note_on_c, 9, 42, 127
8, 42544, Note_on_c, 9, 42, 0
8, 42624, Note_on_c, 9, 42, 111
8, 42640, Note_on_c, 9, 42, 0
8, 42720, Note_on_c, 9, 35, 125
8, 42720, Note_on_c, 9, 42, 116
8, 42720, Note_on_c, 9, 46, 127
8, 42736, Note_on_c, 9, 35, 0
8, 42736, Note_on_c, 9, 42, 0
8, 42736, Note_on_c, 9, 46, 0
8, 42816, Note_on_c, 9, 40, 127
8, 42816, Note_on_c, 9, 44, 127
8, 42832, Note_on_c, 9, 40, 0
8, 42832, Note_on_c, 9, 44, 0
8, 42912, Note_on_c, 9, 35, 125
8, 42912, Note_on_c, 9, 42, 127
8, 42928, Note_on_c, 9, 35, 0
8, 42928, Note_on_c, 9, 42, 0
8, 43008, Note_on_c, 9, 35, 127
8, 43008, Note_on_c, 9, 42, 116
8, 43024, Note_on_c, 9, 35, 0
8, 43024, Note_on_c, 9, 42, 0
8, 43056, Note_on_c, 9, 42, 118
8, 43072, Note_on_c, 9, 42, 0
8, 43104, Note_on_c, 9, 42, 118
8, 43120, Note_on_c, 9, 42, 0
8, 43200, Note_on_c, 9, 40, 127
8, 43200, Note_on_c, 9, 42, 109
8, 43200, Note_on_c, 9, 44, 125
8, 43216, Note_on_c, 9, 40, 0
8, 43216, Note_on_c, 9, 42, 0
8, 43216, Note_on_c, 9, 44, 0
8, 43296, Note_on_c, 9, 42, 127
8, 43312, Note_on_c, 9, 42, 0
8, 43392, Note_on_c, 9, 42, 111
8, 43408, Note_on_c, 9, 42, 0
8, 43488, Note_on_c, 9, 35, 125
8, 43488, Note_on_c, 9, 42, 116
8, 43488, Note_on_c, 9, 46, 127
8, 43504, Note_on_c, 9, 35, 0
8, 43504, Note_on_c, 9, 42, 0
8, 43504, Note_on_c, 9, 46, 0
8, 43584, Note_on_c, 9, 40, 127
8, 43584, Note_on_c, 9, 44, 127
8, 43600, Note_on_c, 9, 40, 0
8, 43600, Note_on_c, 9, 44, 0
8, 43680, Note_on_c, 9, 35, 125
8, 43680, Note_on_c, 9, 42, 127
8, 43696, Note_on_c, 9, 35, 0
8, 43696, Note_on_c, 9, 42, 0
8, 43776, Note_on_c, 9, 35, 127
8, 43776, Note_on_c, 9, 42, 116
8, 43792, Note_on_c, 9, 35, 0
8, 43792, Note_on_c, 9, 42, 0
8, 43824, Note_on_c, 9, 42, 118
8, 43840, Note_on_c, 9, 42, 0
8, 43872, Note_on_c, 9, 42, 118
8, 43888, Note_on_c, 9, 42, 0
8, 43968, Note_on_c, 9, 40, 127
8, 43968, Note_on_c, 9, 42, 109
8, 43968, Note_on_c, 9, 44, 125
8, 43984, Note_on_c, 9, 40, 0
8, 43984, Note_on_c, 9, 42, 0
8, 43984, Note_on_c, 9, 44, 0
8, 44064, Note_on_c, 9, 42, 127
8, 44080, Note_on_c, 9, 42, 0
8, 44160, Note_on_c, 9, 42, 111
8, 44176, Note_on_c, 9, 42, 0
8, 44256, Note_on_c, 9, 35, 125
8, 44256, Note_on_c, 9, 42, 116
8, 44256, Note_on_c, 9, 46, 127
8, 44272, Note_on_c, 9, 35, 0
8, 44272, Note_on_c, 9, 42, 0
8, 44272, Note_on_c, 9, 46, 0
8, 44352, Note_on_c, 9, 40, 127
8, 44352, Note_on_c, 9, 44, 127
8, 44368, Note_on_c, 9, 40, 0
8, 44368, Note_on_c, 9, 44, 0
8, 44448, Note_on_c, 9, 35, 125
8, 44448, Note_on_c, 9, 42, 127
8, 44464, Note_on_c, 9, 35, 0
8, 44464, Note_on_c, 9, 42, 0
8, 44544, Note_on_c, 9, 35, 127
8, 44544, Note_on_c, 9, 42, 116
8, 44560, Note_on_c, 9, 35, 0
8, 44560, Note_on_c, 9, 42, 0
8, 44592, Note_on_c, 9, 42, 118
8, 44608, Note_on_c, 9, 42, 0
8, 44640, Note_on_c, 9, 42, 118
8, 44656, Note_on_c, 9, 42, 0
8, 44736, Note_on_c, 9, 40, 127
8, 44736, Note_on_c, 9, 42, 109
8, 44736, Note_on_c, 9, 44, 125
8, 44752, Note_on_c, 9, 40, 0
8, 44752, Note_on_c, 9, 42, 0
8, 44752, Note_on_c, 9, 44, 0
8, 44832, Note_on_c, 9, 42, 127
8, 44848, Note_on_c, 9, 42, 0
8, 44928, Note_on_c, 9, 42, 111
8, 44944, Note_on_c, 9, 42, 0
8, 45024, Note_on_c, 9, 35, 125
8, 45024, Note_on_c, 9, 42, 116
8, 45024, Note_on_c, 9, 46, 127
8, 45040, Note_on_c, 9, 35, 0
8, 45040, Note_on_c, 9, 42, 0
8, 45040, Note_on_c, 9, 46, 0
8, 45120, Note_on_c, 9, 40, 127
8, 45120, Note_on_c, 9, 44, 127
8, 45136, Note_on_c, 9, 40, 0
8, 45136, Note_on_c, 9, 44, 0
8, 45216, Note_on_c, 9, 35, 125
8, 45216, Note_on_c, 9, 42, 127
8, 45232, Note_on_c, 9, 35, 0
8, 45232, Note_on_c, 9, 42, 0
8, 45312, Note_on_c, 9, 35, 127
8, 45312, Note_on_c, 9, 42, 116
8, 45328, Note_on_c, 9, 35, 0
8, 45328, Note_on_c, 9, 42, 0
8, 45360, Note_on_c, 9, 42, 118
8, 45376, Note_on_c, 9, 42, 0
8, 45408, Note_on_c, 9, 42, 118
8, 45424, Note_on_c, 9, 42, 0
8, 45504, Note_on_c, 9, 40, 127
8, 45504, Note_on_c, 9, 42, 109
8, 45504, Note_on_c, 9, 44, 125
8, 45520, Note_on_c, 9, 40, 0
8, 45520, Note_on_c, 9, 42, 0
8, 45520, Note_on_c, 9, 44, 0
8, 45600, Note_on_c, 9, 42, 127
8, 45616, Note_on_c, 9, 42, 0
8, 45696, Note_on_c, 9, 42, 111
8, 45712, Note_on_c, 9, 42, 0
8, 45792, Note_on_c, 9, 35, 125
8, 45792, Note_on_c, 9, 42, 116
8, 45792, Note_on_c, 9, 46, 127
8, 45808, Note_on_c, 9, 35, 0
8, 45808, Note_on_c, 9, 42, 0
8, 45808, Note_on_c, 9, 46, 0
8, 45888, Note_on_c, 9, 40, 127
8, 45888, Note_on_c, 9, 44, 127
8, 45904, Note_on_c, 9, 40, 0
8, 45904, Note_on_c, 9, 44, 0
8, 45984, Note_on_c, 9, 35, 125
8, 45984, Note_on_c, 9, 42, 127
8, 46000, Note_on_c, 9, 35, 0
8, 46000, Note_on_c, 9, 42, 0
8, 46080, Note_on_c, 9, 35, 127
8, 46080, Note_on_c, 9, 42, 116
8, 46096, Note_on_c, 9, 35, 0
8, 46096, Note_on_c, 9, 42, 0
8, 46128, Note_on_c, 9, 42, 118
8, 46144, Note_on_c, 9, 42, 0
8, 46176, Note_on_c, 9, 42, 118
8, 46192, Note_on_c, 9, 42, 0
8, 46272, Note_on_c, 9, 40, 127
8, 46272, Note_on_c, 9, 42, 109
8, 46272, Note_on_c, 9, 44, 125
8, 46288, Note_on_c, 9, 40, 0
8, 46288, Note_on_c, 9, 42, 0
8, 46288, Note_on_c, 9, 44, 0
8, 46368, Note_on_c, 9, 42, 127
8, 46384, Note_on_c, 9, 42, 0
8, 46464, Note_on_c, 9, 42, 111
8, 46480, Note_on_c, 9, 42, 0
8, 46560, Note_on_c, 9, 35, 125
8, 46560, Note_on_c, 9, 42, 116
8, 46560, Note_on_c, 9, 46, 127
8, 46576, Note_on_c, 9, 35, 0
8, 46576, Note_on_c, 9, 42, 0
8, 46576, Note_on_c, 9, 46, 0
8, 46656, Note_on_c, 9, 40, 127
8, 46656, Note_on_c, 9, 44, 127
8, 46672, Note_on_c, 9, 40, 0
8, 46672, Note_on_c, 9, 44, 0
8, 46752, Note_on_c, 9, 35, 125
8, 46752, Note_on_c, 9, 42, 127
8, 46768, Note_on_c, 9, 35, 0
8, 46768, Note_on_c, 9, 42, 0
8, 46848, Note_on_c, 9, 35, 127
8, 46848, Note_on_c, 9, 42, 116
8, 46864, Note_on_c, 9, 35, 0
8, 46864, Note_on_c, 9, 42, 0
8, 46896, Note_on_c, 9, 42, 118
8, 46912, Note_on_c, 9, 42, 0
8, 46944, Note_on_c, 9, 42, 118
8, 46960, Note_on_c, 9, 42, 0
8, 47040, Note_on_c, 9, 40, 127
8, 47040, Note_on_c, 9, 42, 109
8, 47040, Note_on_c, 9, 44, 125
8, 47056, Note_on_c, 9, 40, 0
8, 47056, Note_on_c, 9, 42, 0
8, 47056, Note_on_c, 9, 44, 0
8, 47136, Note_on_c, 9, 42, 127
8, 47152, Note_on_c, 9, 42, 0
8, 47232, Note_on_c, 9, 42, 111
8, 47248, Note_on_c, 9, 42, 0
8, 47328, Note_on_c, 9, 35, 125
8, 47328, Note_on_c, 9, 42, 116
8, 47328, Note_on_c, 9, 46, 127
8, 47344, Note_on_c, 9, 35, 0
8, 47344, Note_on_c, 9, 42, 0
8, 47344, Note_on_c, 9, 46, 0
8, 47424, Note_on_c, 9, 40, 127
8, 47424, Note_on_c, 9, 44, 127
8, 47440, Note_on_c, 9, 40, 0
8, 47440, Note_on_c, 9, 44, 0
8, 47520, Note_on_c, 9, 35, 125
8, 47520, Note_on_c, 9, 42, 127
8, 47536, Note_on_c, 9, 35, 0
8, 47536, Note_on_c, 9, 42, 0
8, 47616, Note_on_c, 9, 35, 127
8, 47616, Note_on_c, 9, 42, 116
8, 47632, Note_on_c, 9, 35, 0
8, 47632, Note_on_c, 9, 42, 0
8, 47664, Note_on_c, 9, 42, 118
8, 47680, Note_on_c, 9, 42, 0
8, 47712, Note_on_c, 9, 42, 118
8, 47728, Note_on_c, 9, 42, 0
8, 47808, Note_on_c, 9, 40, 127
8, 47808, Note_on_c, 9, 42, 109
8, 47808, Note_on_c, 9, 44, 125
8, 47824, Note_on_c, 9, 40, 0
8, 47824, Note_on_c, 9, 42, 0
8, 47824, Note_on_c, 9, 44, 0
8, 47904, Note_on_c, 9, 42, 127
8, 47920, Note_on_c, 9, 42, 0
8, 48000, Note_on_c, 9, 42, 111
8, 48016, Note_on_c, 9, 42, 0
8, 48096, Note_on_c, 9, 35, 125
8, 48096, Note_on_c, 9, 42, 116
8, 48096, Note_on_c, 9, 46, 127
8, 48112, Note_on_c, 9, 35, 0
8, 48112, Note_on_c, 9, 42, 0
8, 48112, Note_on_c, 9, 46, 0
8, 48192, Note_on_c, 9, 40, 127
8, 48192, Note_on_c, 9, 44, 127
8, 48208, Note_on_c, 9, 40, 0
8, 48208, Note_on_c, 9, 44, 0
8, 48288, Note_on_c, 9, 35, 125
8, 48288, Note_on_c, 9, 42, 127
8, 48304, Note_on_c, 9, 35, 0
8, 48304, Note_on_c, 9, 42, 0
8, 48384, Note_on_c, 9, 35, 127
8, 48384, Note_on_c, 9, 42, 116
8, 48400, Note_on_c, 9, 35, 0
8, 48400, Note_on_c, 9, 42, 0
8, 48432, Note_on_c, 9, 42, 118
8, 48448, Note_on_c, 9, 42, 0
8, 48480, Note_on_c, 9, 42, 118
8, 48496, Note_on_c, 9, 42, 0
8, 48576, Note_on_c, 9, 40, 127
8, 48576, Note_on_c, 9, 42, 109
8, 48576, Note_on_c, 9, 44, 125
8, 48592, Note_on_c, 9, 40, 0
8, 48592, Note_on_c, 9, 42, 0
8, 48592, Note_on_c, 9, 44, 0
8, 48672, Note_on_c, 9, 42, 127
8, 48688, Note_on_c, 9, 42, 0
8, 48768, Note_on_c, 9, 42, 111
8, 48784, Note_on_c, 9, 42, 0
8, 48864, Note_on_c, 9, 35, 125
8, 48864, Note_on_c, 9, 42, 116
8, 48864, Note_on_c, 9, 46, 127
8, 48880, Note_on_c, 9, 35, 0
8, 48880, Note_on_c, 9, 42, 0
8, 48880, Note_on_c, 9, 46, 0
8, 48960, Note_on_c, 9, 40, 127
8, 48960, Note_on_c, 9, 44, 127
8, 48976, Note_on_c, 9, 40, 0
8, 48976, Note_on_c, 9, 44, 0
8, 49056, Note_on_c, 9, 35, 125
8, 49056, Note_on_c, 9, 42, 127
8, 49072, Note_on_c, 9, 35, 0
8, 49072, Note_on_c, 9, 42, 0
8, 49152, Note_on_c, 9, 35, 127
8, 49152, Note_on_c, 9, 42, 116
8, 49168, Note_on_c, 9, 35, 0
8, 49168, Note_on_c, 9, 42, 0
8, 49200, Note_on_c, 9, 42, 118
8, 49216, Note_on_c, 9, 42, 0
8, 49248, Note_on_c, 9, 42, 118
8, 49264, Note_on_c, 9, 42, 0
8, 49344, Note_on_c, 9, 40, 127
8, 49344, Note_on_c, 9, 42, 109
8, 49344, Note_on_c, 9, 44, 125
8, 49360, Note_on_c, 9, 40, 0
8, 49360, Note_on_c, 9, 42, 0
8, 49360, Note_on_c, 9, 44, 0
8, 49440, Note_on_c, 9, 42, 127
8, 49456, Note_on_c, 9, 42, 0
8, 49536, Note_on_c, 9, 42, 111
8, 49552, Note_on_c, 9, 42, 0
8, 49632, Note_on_c, 9, 35, 125
8, 49632, Note_on_c, 9, 42, 116
8, 49632, Note_on_c, 9, 46, 127
8, 49648, Note_on_c, 9, 35, 0
8, 49648, Note_on_c, 9, 42, 0
8, 49648, Note_on_c, 9, 46, 0
8, 49728, Note_on_c, 9, 40, 127
8, 49728, Note_on_c, 9, 44, 127
8, 49744, Note_on_c, 9, 40, 0
8, 49744, Note_on_c, 9, 44, 0
8, 49824, Note_on_c, 9, 35, 125
8, 49824, Note_on_c, 9, 42, 127
8, 49840, Note_on_c, 9, 35, 0
8, 49840, Note_on_c, 9, 42, 0
8, 49920, Note_on_c, 9, 35, 127
8, 49920, Note_on_c, 9, 42, 116
8, 49936, Note_on_c, 9, 35, 0
8, 49936, Note_on_c, 9, 42, 0
8, 49968, Note_on_c, 9, 42, 118
8, 49984, Note_on_c, 9, 42, 0
8, 50016, Note_on_c, 9, 42, 118
8, 50032, Note_on_c, 9, 42, 0
8, 50112, Note_on_c, 9, 40, 127
8, 50112, Note_on_c, 9, 42, 109
8, 50112, Note_on_c, 9, 44, 125
8, 50128, Note_on_c, 9, 40, 0
8, 50128, Note_on_c, 9, 42, 0
8, 50128, Note_on_c, 9, 44, 0
8, 50208, Note_on_c, 9, 42, 127
8, 50224, Note_on_c, 9, 42, 0
8, 50304, Note_on_c, 9, 42, 111
8, 50320, Note_on_c, 9, 42, 0
8, 50400, Note_on_c, 9, 35, 125
8, 50400, Note_on_c, 9, 42, 116
8, 50400, Note_on_c, 9, 46, 127
8, 50416, Note_on_c, 9, 35, 0
8, 50416, Note_on_c, 9, 42, 0
8, 50416, Note_on_c, 9, 46, 0
8, 50496, Note_on_c, 9, 40, 127
8, 50496, Note_on_c, 9, 44, 127
8, 50512, Note_on_c, 9, 40, 0
8, 50512, Note_on_c, 9, 44, 0
8, 50592, Note_on_c, 9, 35, 125
8, 50592, Note_on_c, 9, 42, 127
8, 50608, Note_on_c, 9, 35, 0
8, 50608, Note_on_c, 9, 42, 0
8, 50688, Note_on_c, 9, 35, 127
8, 50688, Note_on_c, 9, 42, 116
8, 50704, Note_on_c, 9, 35, 0
8, 50704, Note_on_c, 9, 42, 0
8, 50736, Note_on_c, 9, 42, 118
8, 50752, Note_on_c, 9, 42, 0
8, 50784, Note_on_c, 9, 42, 118
8, 50800, Note_on_c, 9, 42, 0
8, 50880, Note_on_c, 9, 40, 127
8, 50880, Note_on_c, 9, 42, 109
8, 50880, Note_on_c, 9, 44, 125
8, 50896, Note_on_c, 9, 40, 0
8, 50896, Note_on_c, 9, 42, 0
8, 50896, Note_on_c, 9, 44, 0
8, 50976, Note_on_c, 9, 42, 127
8, 50992, Note_on_c, 9, 42, 0
8, 51072, Note_on_c, 9, 42, 111
8, 51088, Note_on_c, 9, 42, 0
8, 51168, Note_on_c, 9, 35, 125
8, 51168, Note_on_c, 9, 42, 116
8, 51168, Note_on_c, 9, 46, 127
8, 51184, Note_on_c, 9, 35, 0
8, 51184, Note_on_c, 9, 42, 0
8, 51184, Note_on_c, 9, 46, 0
8, 51264, Note_on_c, 9, 40, 127
8, 51264, Note_on_c, 9, 44, 127
8, 51280, Note_on_c, 9, 40, 0
8, 51280, Note_on_c, 9, 44, 0
8, 51360, Note_on_c, 9, 35, 125
8, 51360, Note_on_c, 9, 42, 127
8, 51376, Note_on_c, 9, 35, 0
8, 51376, Note_on_c, 9, 42, 0
8, 51456, Note_on_c, 9, 35, 127
8, 51456, Note_on_c, 9, 42, 116
8, 51472, Note_on_c, 9, 35, 0
8, 51472, Note_on_c, 9, 42, 0
8, 51504, Note_on_c, 9, 42, 118
8, 51520, Note_on_c, 9, 42, 0
8, 51552, Note_on_c, 9, 42, 118
8, 51568, Note_on_c, 9, 42, 0
8, 51648, Note_on_c, 9, 40, 127
8, 51648, Note_on_c, 9, 42, 109
8, 51648, Note_on_c, 9, 44, 125
8, 51664, Note_on_c, 9, 40, 0
8, 51664, Note_on_c, 9, 42, 0
8, 51664, Note_on_c, 9, 44, 0
8, 51744, Note_on_c, 9, 42, 127
8, 51760, Note_on_c, 9, 42, 0
8, 51840, Note_on_c, 9, 42, 111
8, 51856, Note_on_c, 9, 42, 0
8, 51936, Note_on_c, 9, 35, 125
8, 51936, Note_on_c, 9, 42, 116
8, 51936, Note_on_c, 9, 46, 127
8, 51952, Note_on_c, 9, 35, 0
8, 51952, Note_on_c, 9, 42, 0
8, 51952, Note_on_c, 9, 46, 0
8, 52032, Note_on_c, 9, 40, 127
8, 52032, Note_on_c, 9, 44, 127
8, 52048, Note_on_c, 9, 40, 0
8, 52048, Note_on_c, 9, 44, 0
8, 52128, Note_on_c, 9, 35, 125
8, 52128, Note_on_c, 9, 42, 127
8, 52144, Note_on_c, 9, 35, 0
8, 52144, Note_on_c, 9, 42, 0
8, 52224, Note_on_c, 9, 35, 127
8, 52224, Note_on_c, 9, 42, 116
8, 52240, Note_on_c, 9, 35, 0
8, 52240, Note_on_c, 9, 42, 0
8, 52272, Note_on_c, 9, 42, 118
8, 52288, Note_on_c, 9, 42, 0
8, 52320, Note_on_c, 9, 42, 118
8, 52336, Note_on_c, 9, 42, 0
8, 52416, Note_on_c, 9, 40, 127
8, 52416, Note_on_c, 9, 42, 109
8, 52416, Note_on_c, 9, 44, 125
8, 52432, Note_on_c, 9, 40, 0
8, 52432, Note_on_c, 9, 42, 0
8, 52432, Note_on_c, 9, 44, 0
8, 52512, Note_on_c, 9, 42, 127
8, 52528, Note_on_c, 9, 42, 0
8, 52608, Note_on_c, 9, 42, 111
8, 52624, Note_on_c, 9, 42, 0
8, 52704, Note_on_c, 9, 35, 125
8, 52704, Note_on_c, 9, 42, 116
8, 52704, Note_on_c, 9, 46, 127
8, 52720, Note_on_c, 9, 35, 0
8, 52720, Note_on_c, 9, 42, 0
8, 52720, Note_on_c, 9, 46, 0
8, 52800, Note_on_c, 9, 40, 127
8, 52800, Note_on_c, 9, 44, 127
8, 52816, Note_on_c, 9, 40, 0
8, 52816, Note_on_c, 9, 44, 0
8, 52896, Note_on_c, 9, 35, 125
8, 52896, Note_on_c, 9, 42, 127
8, 52912, Note_on_c, 9, 35, 0
8, 52912, Note_on_c, 9, 42, 0
8, 52992, Note_on_c, 9, 35, 127
8, 52992, Note_on_c, 9, 42, 116
8, 53008, Note_on_c, 9, 35, 0
8, 53008, Note_on_c, 9, 42, 0
8, 53040, Note_on_c, 9, 42, 118
8, 53056, Note_on_c, 9, 42, 0
8, 53088, Note_on_c, 9, 42, 118
8, 53104, Note_on_c, 9, 42, 0
8, 53184, Note_on_c, 9, 40, 127
8, 53184, Note_on_c, 9, 42, 109
8, 53184, Note_on_c, 9, 44, 125
8, 53200, Note_on_c, 9, 40, 0
8, 53200, Note_on_c, 9, 42, 0
8, 53200, Note_on_c, 9, 44, 0
8, 53280, Note_on_c, 9, 42, 127
8, 53296, Note_on_c, 9, 42, 0
8, 53376, Note_on_c, 9, 42, 111
8, 53392, Note_on_c, 9, 42, 0
8, 53472, Note_on_c, 9, 35, 125
8, 53472, Note_on_c, 9, 42, 116
8, 53472, Note_on_c, 9, 46, 127
8, 53488, Note_on_c, 9, 35, 0
8, 53488, Note_on_c, 9, 42, 0
8, 53488, Note_on_c, 9, 46, 0
8, 53568, Note_on_c, 9, 40, 127
8, 53568, Note_on_c, 9, 44, 127
8, 53584, Note_on_c, 9, 40, 0
8, 53584, Note_on_c, 9, 44, 0
8, 53664, Note_on_c, 9, 35, 125
8, 53664, Note_on_c, 9, 42, 127
8, 53680, Note_on_c, 9, 35, 0
8, 53680, Note_on_c, 9, 42, 0
8, 53760, Note_on_c, 9, 35, 127
8, 53760, Note_on_c, 9, 42, 116
8, 53776, Note_on_c, 9, 35, 0
8, 53776, Note_on_c, 9, 42, 0
8, 53808, Note_on_c, 9, 42, 118
8, 53824, Note_on_c, 9, 42, 0
8, 53856, Note_on_c, 9, 42, 118
8, 53872, Note_on_c, 9, 42, 0
8, 53952, Note_on_c, 9, 40, 127
8, 53952, Note_on_c, 9, 42, 109
8, 53952, Note_on_c, 9, 44, 125
8, 53968, Note_on_c, 9, 40, 0
8, 53968, Note_on_c, 9, 42, 0
8, 53968, Note_on_c, 9, 44, 0
8, 54048, Note_on_c, 9, 42, 127
8, 54064, Note_on_c, 9, 42, 0
8, 54144, Note_on_c, 9, 42, 111
8, 54160, Note_on_c, 9, 42, 0
8, 54240, Note_on_c, 9, 35, 125
8, 54240, Note_on_c, 9, 42, 116
8, 54240, Note_on_c, 9, 46, 127
8, 54256, Note_on_c, 9, 35, 0
8, 54256, Note_on_c, 9, 42, 0
8, 54256, Note_on_c, 9, 46, 0
8, 54336, Note_on_c, 9, 40, 127
8, 54336, Note_on_c, 9, 44, 127
8, 54352, Note_on_c, 9, 40, 0
8, 54352, Note_on_c, 9, 44, 0
8, 54432, Note_on_c, 9, 35, 125
8, 54432, Note_on_c, 9, 42, 127
8, 54448, Note_on_c, 9, 35, 0
8, 54448, Note_on_c, 9, 42, 0
8, 54528, Note_on_c, 9, 35, 127
8, 54528, Note_on_c, 9, 42, 116
8, 54544, Note_on_c, 9, 35, 0
8, 54544, Note_on_c, 9, 42, 0
8, 54576, Note_on_c, 9, 42, 118
8, 54592, Note_on_c, 9, 42, 0
8, 54624, Note_on_c, 9, 42, 118
8, 54640, Note_on_c, 9, 42, 0
8, 54720, Note_on_c, 9, 40, 127
8, 54720, Note_on_c, 9, 42, 109
8, 54720, Note_on_c, 9, 44, 125
8, 54736, Note_on_c, 9, 40, 0
8, 54736, Note_on_c, 9, 42, 0
8, 54736, Note_on_c, 9, 44, 0
8, 54816, Note_on_c, 9, 42, 127
8, 54832, Note_on_c, 9, 42, 0
8, 54912, Note_on_c, 9, 42, 111
8, 54928, Note_on_c, 9, 42, 0
8, 55008, Note_on_c, 9, 35, 125
8, 55008, Note_on_c, 9, 42, 116
8, 55008, Note_on_c, 9, 46, 127
8, 55024, Note_on_c, 9, 35, 0
8, 55024, Note_on_c, 9, 42, 0
8, 55024, Note_on_c, 9, 46, 0
8, 55104, Note_on_c, 9, 40, 127
8, 55104, Note_on_c, 9, 44, 127
8, 55120, Note_on_c, 9, 40, 0
8, 55120, Note_on_c, 9, 44, 0
8, 55200, Note_on_c, 9, 35, 125
8, 55200, Note_on_c, 9, 42, 127
8, 55216, Note_on_c, 9, 35, 0
8, 55216, Note_on_c, 9, 42, 0
8, 55296, Note_on_c, 9, 35, 127
8, 55296, Note_on_c, 9, 42, 116
8, 55312, Note_on_c, 9, 35, 0
8, 55312, Note_on_c, 9, 42, 0
8, 55344, Note_on_c, 9, 42, 118
8, 55360, Note_on_c, 9, 42, 0
8, 55392, Note_on_c, 9, 42, 118
8, 55408, Note_on_c, 9, 42, 0
8, 55488, Note_on_c, 9, 40, 127
8, 55488, Note_on_c, 9, 42, 109
8, 55488, Note_on_c, 9, 44, 125
8, 55504, Note_on_c, 9, 40, 0
8, 55504, Note_on_c, 9, 42, 0
8, 55504, Note_on_c, 9, 44, 0
8, 55584, Note_on_c, 9, 42, 127
8, 55600, Note_on_c, 9, 42, 0
8, 55680, Note_on_c, 9, 42, 111
8, 55696, Note_on_c, 9, 42, 0
8, 55776, Note_on_c, 9, 35, 125
8, 55776, Note_on_c, 9, 42, 116
8, 55776, Note_on_c, 9, 46, 127
8, 55792, Note_on_c, 9, 35, 0
8, 55792, Note_on_c, 9, 42, 0
8, 55792, Note_on_c, 9, 46, 0
8, 55872, Note_on_c, 9, 40, 116
8, 55872, Note_on_c, 9, 44, 127
8, 55888, Note_on_c, 9, 40, 0
8, 55888, Note_on_c, 9, 44, 0
8, 55920, Note_on_c, 9, 40, 121
8, 55936, Note_on_c, 9, 40, 0
8, 55968, Note_on_c, 9, 35, 125
8, 55968, Note_on_c, 9, 40, 125
8, 55968, Note_on_c, 9, 42, 127
8, 55984, Note_on_c, 9, 35, 0
8, 55984, Note_on_c, 9, 40, 0
8, 55984, Note_on_c, 9, 42, 0
8, 56016, Note_on_c, 9, 40, 125
8, 56032, Note_on_c, 9, 40, 0
8, 56064, Note_on_c, 9, 35, 127
8, 56064, Note_on_c, 9, 40, 127
8, 56064, Note_on_c, 9, 42, 116
8, 56080, Note_on_c, 9, 35, 0
8, 56080, Note_on_c, 9, 40, 0
8, 56080, Note_on_c, 9, 42, 0
8, 57408, Note_on_c, 9, 40, 127
8, 57408, Note_on_c, 9, 44, 127
8, 57424, Note_on_c, 9, 40, 0
8, 57424, Note_on_c, 9, 44, 0
8, 57504, Note_on_c, 9, 35, 125
8, 57504, Note_on_c, 9, 42, 127
8, 57520, Note_on_c, 9, 35, 0
8, 57520, Note_on_c, 9, 42, 0
8, 57600, Note_on_c, 9, 35, 127
8, 57600, Note_on_c, 9, 42, 116
8, 57616, Note_on_c, 9, 35, 0
8, 57616, Note_on_c, 9, 42, 0
8, 57648, Note_on_c, 9, 42, 118
8, 57664, Note_on_c, 9, 42, 0
8, 57696, Note_on_c, 9, 42, 118
8, 57712, Note_on_c, 9, 42, 0
8, 57792, Note_on_c, 9, 40, 127
8, 57792, Note_on_c, 9, 42, 109
8, 57792, Note_on_c, 9, 44, 125
8, 57808, Note_on_c, 9, 40, 0
8, 57808, Note_on_c, 9, 42, 0
8, 57808, Note_on_c, 9, 44, 0
8, 57888, Note_on_c, 9, 42, 127
8, 57904, Note_on_c, 9, 42, 0
8, 57984, Note_on_c, 9, 42, 111
8, 58000, Note_on_c, 9, 42, 0
8, 58080, Note_on_c, 9, 35, 125
8, 58080, Note_on_c, 9, 42, 116
8, 58080, Note_on_c, 9, 46, 127
8, 58096, Note_on_c, 9, 35, 0
8, 58096, Note_on_c, 9, 42, 0
8, 58096, Note_on_c, 9, 46, 0
8, 58176, Note_on_c, 9, 40, 127
8, 58176, Note_on_c, 9, 44, 127
8, 58192, Note_on_c, 9, 40, 0
8, 58192, Note_on_c, 9, 44, 0
8, 58272, Note_on_c, 9, 35, 125
8, 58272, Note_on_c, 9, 42, 127
8, 58288, Note_on_c, 9, 35, 0
8, 58288, Note_on_c, 9, 42, 0
8, 58368, Note_on_c, 9, 35, 127
8, 58368, Note_on_c, 9, 42, 116
8, 58384, Note_on_c, 9, 35, 0
8, 58384, Note_on_c, 9, 42, 0
8, 58416, Note_on_c, 9, 42, 118
8, 58432, Note_on_c, 9, 42, 0
8, 58464, Note_on_c, 9, 42, 118
8, 58480, Note_on_c, 9, 42, 0
8, 58560, Note_on_c, 9, 40, 127
8, 58560, Note_on_c, 9, 42, 109
8, 58560, Note_on_c, 9, 44, 125
8, 58576, Note_on_c, 9, 40, 0
8, 58576, Note_on_c, 9, 42, 0
8, 58576, Note_on_c, 9, 44, 0
8, 58656, Note_on_c, 9, 42, 127
8, 58672, Note_on_c, 9, 42, 0
8, 58752, Note_on_c, 9, 42, 111
8, 58768, Note_on_c, 9, 42, 0
8, 58848, Note_on_c, 9, 35, 125
8, 58848, Note_on_c, 9, 42, 116
8, 58848, Note_on_c, 9, 46, 127
8, 58864, Note_on_c, 9, 35, 0
8, 58864, Note_on_c, 9, 42, 0
8, 58864, Note_on_c, 9, 46, 0
8, 58944, Note_on_c, 9, 40, 127
8, 58944, Note_on_c, 9, 44, 127
8, 58960, Note_on_c, 9, 40, 0
8, 58960, Note_on_c, 9, 44, 0
8, 59040, Note_on_c, 9, 35, 125
8, 59040, Note_on_c, 9, 42, 127
8, 59056, Note_on_c, 9, 35, 0
8, 59056, Note_on_c, 9, 42, 0
8, 59136, Note_on_c, 9, 35, 127
8, 59136, Note_on_c, 9, 42, 116
8, 59152, Note_on_c, 9, 35, 0
8, 59152, Note_on_c, 9, 42, 0
8, 59184, Note_on_c, 9, 42, 118
8, 59200, Note_on_c, 9, 42, 0
8, 59232, Note_on_c, 9, 42, 118
8, 59248, Note_on_c, 9, 42, 0
8, 59328, Note_on_c, 9, 40, 127
8, 59328, Note_on_c, 9, 42, 109
8, 59328, Note_on_c, 9, 44, 125
8, 59344, Note_on_c, 9, 40, 0
8, 59344, Note_on_c, 9, 42, 0
8, 59344, Note_on_c, 9, 44, 0
8, 59424, Note_on_c, 9, 42, 127
8, 59440, Note_on_c, 9, 42, 0
8, 59520, Note_on_c, 9, 42, 111
8, 59536, Note_on_c, 9, 42, 0
8, 59616, Note_on_c, 9, 35, 125
8, 59616, Note_on_c, 9, 42, 116
8, 59616, Note_on_c, 9, 46, 127
8, 59632, Note_on_c, 9, 35, 0
8, 59632, Note_on_c, 9, 42, 0
8, 59632, Note_on_c, 9, 46, 0
8, 59712, Note_on_c, 9, 40, 127
8, 59712, Note_on_c, 9, 44, 127
8, 59728, Note_on_c, 9, 40, 0
8, 59728, Note_on_c, 9, 44, 0
8, 59808, Note_on_c, 9, 35, 125
8, 59808, Note_on_c, 9, 42, 127
8, 59824, Note_on_c, 9, 35, 0
8, 59824, Note_on_c, 9, 42, 0
8, 59904, Note_on_c, 9, 35, 127
8, 59904, Note_on_c, 9, 42, 116
8, 59920, Note_on_c, 9, 35, 0
8, 59920, Note_on_c, 9, 42, 0
8, 59952, Note_on_c, 9, 42, 118
8, 59968, Note_on_c, 9, 42, 0
8, 60000, Note_on_c, 9, 42, 118
8, 60016, Note_on_c, 9, 42, 0
8, 60096, Note_on_c, 9, 40, 127
8, 60096, Note_on_c, 9, 42, 109
8, 60096, Note_on_c, 9, 44, 125
8, 60112, Note_on_c, 9, 40, 0
8, 60112, Note_on_c, 9, 42, 0
8, 60112, Note_on_c, 9, 44, 0
8, 60192, Note_on_c, 9, 42, 127
8, 60208, Note_on_c, 9, 42, 0
8, 60288, Note_on_c, 9, 42, 111
8, 60304, Note_on_c, 9, 42, 0
8, 60384, Note_on_c, 9, 35, 125
8, 60384, Note_on_c, 9, 42, 116
8, 60384, Note_on_c, 9, 46, 127
8, 60400, Note_on_c, 9, 35, 0
8, 60400, Note_on_c, 9, 42, 0
8, 60400, Note_on_c, 9, 46, 0
8, 60480, Note_on_c, 9, 40, 127
8, 60480, Note_on_c, 9, 44, 127
8, 60496, Note_on_c, 9, 40, 0
8, 60496, Note_on_c, 9, 44, 0
8, 60576, Note_on_c, 9, 35, 125
8, 60576, Note_on_c, 9, 42, 127
8, 60592, Note_on_c, 9, 35, 0
8, 60592, Note_on_c, 9, 42, 0
8, 60672, Note_on_c, 9, 35, 127
8, 60672, Note_on_c, 9, 42, 116
8, 60688, Note_on_c, 9, 35, 0
8, 60688, Note_on_c, 9, 42, 0
8, 60720, Note_on_c, 9, 42, 118
8, 60736, Note_on_c, 9, 42, 0
8, 60768, Note_on_c, 9, 42, 118
8, 60784, Note_on_c, 9, 42, 0
8, 60864, Note_on_c, 9, 40, 127
8, 60864, Note_on_c, 9, 42, 109
8, 60864, Note_on_c, 9, 44, 125
8, 60880, Note_on_c, 9, 40, 0
8, 60880, Note_on_c, 9, 42, 0
8, 60880, Note_on_c, 9, 44, 0
8, 60960, Note_on_c, 9, 42, 127
8, 60976, Note_on_c, 9, 42, 0
8, 61056, Note_on_c, 9, 42, 111
8, 61072, Note_on_c, 9, 42, 0
8, 61152, Note_on_c, 9, 35, 125
8, 61152, Note_on_c, 9, 42, 116
8, 61152, Note_on_c, 9, 46, 127
8, 61168, Note_on_c, 9, 35, 0
8, 61168, Note_on_c, 9, 42, 0
8, 61168, Note_on_c, 9, 46, 0
8, 61248, Note_on_c, 9, 40, 127
8, 61248, Note_on_c, 9, 44, 127
8, 61264, Note_on_c, 9, 40, 0
8, 61264, Note_on_c, 9, 44, 0
8, 61344, Note_on_c, 9, 35, 125
8, 61344, Note_on_c, 9, 42, 127
8, 61360, Note_on_c, 9, 35, 0
8, 61360, Note_on_c, 9, 42, 0
8, 61440, Note_on_c, 9, 35, 127
8, 61440, Note_on_c, 9, 42, 116
8, 61456, Note_on_c, 9, 35, 0
8, 61456, Note_on_c, 9, 42, 0
8, 61488, Note_on_c, 9, 42, 118
8, 61504, Note_on_c, 9, 42, 0
8, 61536, Note_on_c, 9, 42, 118
8, 61552, Note_on_c, 9, 42, 0
8, 61632, Note_on_c, 9, 40, 127
8, 61632, Note_on_c, 9, 42, 109
8, 61632, Note_on_c, 9, 44, 125
8, 61648, Note_on_c, 9, 40, 0
8, 61648, Note_on_c, 9, 42, 0
8, 61648, Note_on_c, 9, 44, 0
8, 61728, Note_on_c, 9, 42, 127
8, 61744, Note_on_c, 9, 42, 0
8, 61824, Note_on_c, 9, 42, 111
8, 61840, Note_on_c, 9, 42, 0
8, 61920, Note_on_c, 9, 35, 125
8, 61920, Note_on_c, 9, 42, 116
8, 61920, Note_on_c, 9, 46, 127
8, 61936, Note_on_c, 9, 35, 0
8, 61936, Note_on_c, 9, 42, 0
8, 61936, Note_on_c, 9, 46, 0
8, 62016, Note_on_c, 9, 40, 127
8, 62016, Note_on_c, 9, 44, 127
8, 62032, Note_on_c, 9, 40, 0
8, 62032, Note_on_c, 9, 44, 0
8, 62112, Note_on_c, 9, 35, 125
8, 62112, Note_on_c, 9, 42, 127
8, 62128, Note_on_c, 9, 35, 0
8, 62128, Note_on_c, 9, 42, 0
8, 62208, Note_on_c, 9, 35, 127
8, 62208, Note_on_c, 9, 42, 116
8, 62224, Note_on_c, 9, 35, 0
8, 62224, Note_on_c, 9, 42, 0
8, 62256, Note_on_c, 9, 42, 118
8, 62272, Note_on_c, 9, 42, 0
8, 62304, Note_on_c, 9, 42, 118
8, 62320, Note_on_c, 9, 42, 0
8, 62400, Note_on_c, 9, 40, 127
8, 62400, Note_on_c, 9, 42, 109
8, 62400, Note_on_c, 9, 44, 125
8, 62416, Note_on_c, 9, 40, 0
8, 62416, Note_on_c, 9, 42, 0
8, 62416, Note_on_c, 9, 44, 0
8, 62496, Note_on_c, 9, 42, 127
8, 62512, Note_on_c, 9, 42, 0
8, 62592, Note_on_c, 9, 42, 111
8, 62608, Note_on_c, 9, 42, 0
8, 62688, Note_on_c, 9, 35, 125
8, 62688, Note_on_c, 9, 42, 116
8, 62688, Note_on_c, 9, 46, 127
8, 62704, Note_on_c, 9, 35, 0
8, 62704, Note_on_c, 9, 42, 0
8, 62704, Note_on_c, 9, 46, 0
8, 62784, Note_on_c, 9, 40, 127
8, 62784, Note_on_c, 9, 44, 127
8, 62800, Note_on_c, 9, 40, 0
8, 62800, Note_on_c, 9, 44, 0
8, 62880, Note_on_c, 9, 35, 125
8, 62880, Note_on_c, 9, 42, 127
8, 62896, Note_on_c, 9, 35, 0
8, 62896, Note_on_c, 9, 42, 0
8, 62976, Note_on_c, 9, 35, 127
8, 62976, Note_on_c, 9, 42, 116
8, 62992, Note_on_c, 9, 35, 0
8, 62992, Note_on_c, 9, 42, 0
8, 63024, Note_on_c, 9, 42, 118
8, 63040, Note_on_c, 9, 42, 0
8, 63072, Note_on_c, 9, 42, 118
8, 63088, Note_on_c, 9, 42, 0
8, 63168, Note_on_c, 9, 40, 127
8, 63168, Note_on_c, 9, 42, 109
8, 63168, Note_on_c, 9, 44, 125
8, 63184, Note_on_c, 9, 40, 0
8, 63184, Note_on_c, 9, 42, 0
8, 63184, Note_on_c, 9, 44, 0
8, 63264, Note_on_c, 9, 42, 127
8, 63280, Note_on_c, 9, 42, 0
8, 63360, Note_on_c, 9, 42, 111
8, 63376, Note_on_c, 9, 42, 0
8, 63456, Note_on_c, 9, 35, 125
8, 63456, Note_on_c, 9, 42, 116
8, 63456, Note_on_c, 9, 46, 127
8, 63472, Note_on_c, 9, 35, 0
8, 63472, Note_on_c, 9, 42, 0
8, 63472, Note_on_c, 9, 46, 0
8, 63552, Note_on_c, 9, 40, 127
8, 63552, Note_on_c, 9, 44, 127
8, 63568, Note_on_c, 9, 40, 0
8, 63568, Note_on_c, 9, 44, 0
8, 63648, Note_on_c, 9, 35, 125
8, 63648, Note_on_c, 9, 42, 127
8, 63664, Note_on_c, 9, 35, 0
8, 63664, Note_on_c, 9, 42, 0
8, 63744, Note_on_c, 9, 35, 127
8, 63744, Note_on_c, 9, 42, 116
8, 63760, Note_on_c, 9, 35, 0
8, 63760, Note_on_c, 9, 42, 0
8, 63792, Note_on_c, 9, 42, 118
8, 63808, Note_on_c, 9, 42, 0
8, 63840, Note_on_c, 9, 42, 118
8, 63856, Note_on_c, 9, 42, 0
8, 63936, Note_on_c, 9, 40, 127
8, 63936, Note_on_c, 9, 42, 109
8, 63936, Note_on_c, 9, 44, 125
8, 63952, Note_on_c, 9, 40, 0
8, 63952, Note_on_c, 9, 42, 0
8, 63952, Note_on_c, 9, 44, 0
8, 64032, Note_on_c, 9, 42, 127
8, 64048, Note_on_c, 9, 42, 0
8, 64128, Note_on_c, 9, 42, 111
8, 64144, Note_on_c, 9, 42, 0
8, 64224, Note_on_c, 9, 35, 125
8, 64224, Note_on_c, 9, 42, 116
8, 64224, Note_on_c, 9, 46, 127
8, 64240, Note_on_c, 9, 35, 0
8, 64240, Note_on_c, 9, 42, 0
8, 64240, Note_on_c, 9, 46, 0
8, 64320, Note_on_c, 9, 40, 127
8, 64320, Note_on_c, 9, 44, 127
8, 64336, Note_on_c, 9, 40, 0
8, 64336, Note_on_c, 9, 44, 0
8, 64416, Note_on_c, 9, 35, 125
8, 64416, Note_on_c, 9, 42, 127
8, 64432, Note_on_c, 9, 35, 0
8, 64432, Note_on_c, 9, 42, 0
8, 64512, Note_on_c, 9, 35, 127
8, 64512, Note_on_c, 9, 42, 116
8, 64528, Note_on_c, 9, 35, 0
8, 64528, Note_on_c, 9, 42, 0
8, 64560, Note_on_c, 9, 42, 118
8, 64576, Note_on_c, 9, 42, 0
8, 64608, Note_on_c, 9, 42, 118
8, 64624, Note_on_c, 9, 42, 0
8, 64704, Note_on_c, 9, 40, 127
8, 64704, Note_on_c, 9, 42, 109
8, 64704, Note_on_c, 9, 44, 125
8, 64720, Note_on_c, 9, 40, 0
8, 64720, Note_on_c, 9, 42, 0
8, 64720, Note_on_c, 9, 44, 0
8, 64800, Note_on_c, 9, 42, 127
8, 64816, Note_on_c, 9, 42, 0
8, 64896, Note_on_c, 9, 42, 111
8, 64912, Note_on_c, 9, 42, 0
8, 64992, Note_on_c, 9, 35, 125
8, 64992, Note_on_c, 9, 42, 116
8, 64992, Note_on_c, 9, 46, 127
8, 65008, Note_on_c, 9, 35, 0
8, 65008, Note_on_c, 9, 42, 0
8, 65008, Note_on_c, 9, 46, 0
8, 65088, Note_on_c, 9, 40, 127
8, 65088, Note_on_c, 9, 44, 127
8, 65104, Note_on_c, 9, 40, 0
8, 65104, Note_on_c, 9, 44, 0
8, 65184, Note_on_c, 9, 35, 125
8, 65184, Note_on_c, 9, 42, 127
8, 65200, Note_on_c, 9, 35, 0
8, 65200, Note_on_c, 9, 42, 0
8, 65280, Note_on_c, 9, 35, 127
8, 65280, Note_on_c, 9, 42, 116
8, 65296, Note_on_c, 9, 35, 0
8, 65296, Note_on_c, 9, 42, 0
8, 65328, Note_on_c, 9, 42, 118
8, 65344, Note_on_c, 9, 42, 0
8, 65376, Note_on_c, 9, 42, 118
8, 65392, Note_on_c, 9, 42, 0
8, 65472, Note_on_c, 9, 40, 127
8, 65472, Note_on_c, 9, 42, 109
8, 65472, Note_on_c, 9, 44, 125
8, 65488, Note_on_c, 9, 40, 0
8, 65488, Note_on_c, 9, 42, 0
8, 65488, Note_on_c, 9, 44, 0
8, 65568, Note_on_c, 9, 42, 127
8, 65584, Note_on_c, 9, 42, 0
8, 65664, Note_on_c, 9, 42, 111
8, 65680, Note_on_c, 9, 42, 0
8, 65760, Note_on_c, 9, 35, 125
8, 65760, Note_on_c, 9, 42, 116
8, 65760, Note_on_c, 9, 46, 127
8, 65776, Note_on_c, 9, 35, 0
8, 65776, Note_on_c, 9, 42, 0
8, 65776, Note_on_c, 9, 46, 0
8, 65856, Note_on_c, 9, 40, 127
8, 65856, Note_on_c, 9, 44, 127
8, 65872, Note_on_c, 9, 40, 0
8, 65872, Note_on_c, 9, 44, 0
8, 65952, Note_on_c, 9, 35, 125
8, 65952, Note_on_c, 9, 42, 127
8, 65968, Note_on_c, 9, 35, 0
8, 65968, Note_on_c, 9, 42, 0
8, 66048, Note_on_c, 9, 35, 127
8, 66048, Note_on_c, 9, 42, 116
8, 66064, Note_on_c, 9, 35, 0
8, 66064, Note_on_c, 9, 42, 0
8, 66096, Note_on_c, 9, 42, 118
8, 66112, Note_on_c, 9, 42, 0
8, 66144, Note_on_c, 9, 42, 118
8, 66160, Note_on_c, 9, 42, 0
8, 66240, Note_on_c, 9, 40, 127
8, 66240, Note_on_c, 9, 42, 109
8, 66240, Note_on_c, 9, 44, 125
8, 66256, Note_on_c, 9, 40, 0
8, 66256, Note_on_c, 9, 42, 0
8, 66256, Note_on_c, 9, 44, 0
8, 66336, Note_on_c, 9, 42, 127
8, 66352, Note_on_c, 9, 42, 0
8, 66432, Note_on_c, 9, 42, 111
8, 66448, Note_on_c, 9, 42, 0
8, 66528, Note_on_c, 9, 35, 125
8, 66528, Note_on_c, 9, 42, 116
8, 66528, Note_on_c, 9, 46, 127
8, 66544, Note_on_c, 9, 35, 0
8, 66544, Note_on_c, 9, 42, 0
8, 66544, Note_on_c, 9, 46, 0
8, 66624, Note_on_c, 9, 40, 127
8, 66624, Note_on_c, 9, 44, 127
8, 66640, Note_on_c, 9, 40, 0
8, 66640, Note_on_c, 9, 44, 0
8, 66720, Note_on_c, 9, 35, 125
8, 66720, Note_on_c, 9, 42, 127
8, 66736, Note_on_c, 9, 35, 0
8, 66736, Note_on_c, 9, 42, 0
8, 66816, Note_on_c, 9, 35, 127
8, 66816, Note_on_c, 9, 42, 116
8, 66832, Note_on_c, 9, 35, 0
8, 66832, Note_on_c, 9, 42, 0
8, 66864, Note_on_c, 9, 42, 118
8, 66880, Note_on_c, 9, 42, 0
8, 66912, Note_on_c, 9, 42, 118
8, 66928, Note_on_c, 9, 42, 0
8, 67008, Note_on_c, 9, 40, 127
8, 67008, Note_on_c, 9, 42, 109
8, 67008, Note_on_c, 9, 44, 125
8, 67024, Note_on_c, 9, 40, 0
8, 67024, Note_on_c, 9, 42, 0
8, 67024, Note_on_c, 9, 44, 0
8, 67104, Note_on_c, 9, 42, 127
8, 67120, Note_on_c, 9, 42, 0
8, 67200, Note_on_c, 9, 42, 111
8, 67216, Note_on_c, 9, 42, 0
8, 67296, Note_on_c, 9, 35, 125
8, 67296, Note_on_c, 9, 42, 116
8, 67296, Note_on_c, 9, 46, 127
8, 67312, Note_on_c, 9, 35, 0
8, 67312, Note_on_c, 9, 42, 0
8, 67312, Note_on_c, 9, 46, 0
8, 67392, Note_on_c, 9, 40, 127
8, 67392, Note_on_c, 9, 44, 127
8, 67408, Note_on_c, 9, 40, 0
8, 67408, Note_on_c, 9, 44, 0
8, 67488, Note_on_c, 9, 35, 125
8, 67488, Note_on_c, 9, 42, 127
8, 67504, Note_on_c, 9, 35, 0
8, 67504, Note_on_c, 9, 42, 0
8, 67584, Note_on_c, 9, 35, 127
8, 67584, Note_on_c, 9, 42, 116
8, 67600, Note_on_c, 9, 35, 0
8, 67600, Note_on_c, 9, 42, 0
8, 67632, Note_on_c, 9, 42, 118
8, 67648, Note_on_c, 9, 42, 0
8, 67680, Note_on_c, 9, 42, 118
8, 67696, Note_on_c, 9, 42, 0
8, 67776, Note_on_c, 9, 40, 127
8, 67776, Note_on_c, 9, 42, 109
8, 67776, Note_on_c, 9, 44, 125
8, 67792, Note_on_c, 9, 40, 0
8, 67792, Note_on_c, 9, 42, 0
8, 67792, Note_on_c, 9, 44, 0
8, 67872, Note_on_c, 9, 42, 127
8, 67888, Note_on_c, 9, 42, 0
8, 67968, Note_on_c, 9, 42, 111
8, 67984, Note_on_c, 9, 42, 0
8, 68064, Note_on_c, 9, 35, 125
8, 68064, Note_on_c, 9, 42, 116
8, 68064, Note_on_c, 9, 46, 127
8, 68080, Note_on_c, 9, 35, 0
8, 68080, Note_on_c, 9, 42, 0
8, 68080, Note_on_c, 9, 46, 0
8, 68160, Note_on_c, 9, 40, 127
8, 68160, Note_on_c, 9, 44, 127
8, 68176, Note_on_c, 9, 40, 0
8, 68176, Note_on_c, 9, 44, 0
8, 68256, Note_on_c, 9, 35, 125
8, 68256, Note_on_c, 9, 42, 127
8, 68272, Note_on_c, 9, 35, 0
8, 68272, Note_on_c, 9, 42, 0
8, 68352, Note_on_c, 9, 35, 127
8, 68352, Note_on_c, 9, 42, 116
8, 68368, Note_on_c, 9, 35, 0
8, 68368, Note_on_c, 9, 42, 0
8, 68400, Note_on_c, 9, 42, 118
8, 68416, Note_on_c, 9, 42, 0
8, 68448, Note_on_c, 9, 42, 118
8, 68464, Note_on_c, 9, 42, 0
8, 68544, Note_on_c, 9, 40, 127
8, 68544, Note_on_c, 9, 42, 109
8, 68544, Note_on_c, 9, 44, 125
8, 68560, Note_on_c, 9, 40, 0
8, 68560, Note_on_c, 9, 42, 0
8, 68560, Note_on_c, 9, 44, 0
8, 68640, Note_on_c, 9, 42, 127
8, 68656, Note_on_c, 9, 42, 0
8, 68736, Note_on_c, 9, 42, 111
8, 68752, Note_on_c, 9, 42, 0
8, 68832, Note_on_c, 9, 35, 125
8, 68832, Note_on_c, 9, 42, 116
8, 68832, Note_on_c, 9, 46, 127
8, 68848, Note_on_c, 9, 35, 0
8, 68848, Note_on_c, 9, 42, 0
8, 68848, Note_on_c, 9, 46, 0
8, 68928, Note_on_c, 9, 40, 127
8, 68928, Note_on_c, 9, 44, 127
8, 68944, Note_on_c, 9, 40, 0
8, 68944, Note_on_c, 9, 44, 0
8, 69024, Note_on_c, 9, 35, 125
8, 69024, Note_on_c, 9, 42, 127
8, 69040, Note_on_c, 9, 35, 0
8, 69040, Note_on_c, 9, 42, 0
8, 69120, Note_on_c, 9, 35, 127
8, 69120, Note_on_c, 9, 42, 116
8, 69136, Note_on_c, 9, 35, 0
8, 69136, Note_on_c, 9, 42, 0
8, 69168, Note_on_c, 9, 42, 118
8, 69184, Note_on_c, 9, 42, 0
8, 69216, Note_on_c, 9, 42, 118
8, 69232, Note_on_c, 9, 42, 0
8, 69312, Note_on_c, 9, 40, 127
8, 69312, Note_on_c, 9, 42, 109
8, 69312, Note_on_c, 9, 44, 125
8, 69328, Note_on_c, 9, 40, 0
8, 69328, Note_on_c, 9, 42, 0
8, 69328, Note_on_c, 9, 44, 0
8, 69408, Note_on_c, 9, 42, 127
8, 69424, Note_on_c, 9, 42, 0
8, 69504, Note_on_c, 9, 42, 111
8, 69520, Note_on_c, 9, 42, 0
8, 69600, Note_on_c, 9, 35, 125
8, 69600, Note_on_c, 9, 42, 116
8, 69600, Note_on_c, 9, 46, 127
8, 69616, Note_on_c, 9, 35, 0
8, 69616, Note_on_c, 9, 42, 0
8, 69616, Note_on_c, 9, 46, 0
8, 69696, Note_on_c, 9, 40, 127
8, 69696, Note_on_c, 9, 44, 127
8, 69712, Note_on_c, 9, 40, 0
8, 69712, Note_on_c, 9, 44, 0
8, 69792, Note_on_c, 9, 35, 125
8, 69792, Note_on_c, 9, 42, 127
8, 69808, Note_on_c, 9, 35, 0
8, 69808, Note_on_c, 9, 42, 0
8, 69888, Note_on_c, 9, 35, 127
8, 69888, Note_on_c, 9, 42, 116
8, 69904, Note_on_c, 9, 35, 0
8, 69904, Note_on_c, 9, 42, 0
8, 69936, Note_on_c, 9, 42, 118
8, 69952, Note_on_c, 9, 42, 0
8, 69984, Note_on_c, 9, 42, 118
8, 70000, Note_on_c, 9, 42, 0
8, 70080, Note_on_c, 9, 40, 127
8, 70080, Note_on_c, 9, 42, 109
8, 70080, Note_on_c, 9, 44, 125
8, 70096, Note_on_c, 9, 40, 0
8, 70096, Note_on_c, 9, 42, 0
8, 70096, Note_on_c, 9, 44, 0
8, 70176, Note_on_c, 9, 42, 127
8, 70192, Note_on_c, 9, 42, 0
8, 70272, Note_on_c, 9, 42, 111
8, 70288, Note_on_c, 9, 42, 0
8, 70368, Note_on_c, 9, 35, 125
8, 70368, Note_on_c, 9, 42, 116
8, 70368, Note_on_c, 9, 46, 127
8, 70384, Note_on_c, 9, 35, 0
8, 70384, Note_on_c, 9, 42, 0
8, 70384, Note_on_c, 9, 46, 0
8, 70464, Note_on_c, 9, 40, 127
8, 70464, Note_on_c, 9, 44, 127
8, 70480, Note_on_c, 9, 40, 0
8, 70480, Note_on_c, 9, 44, 0
8, 70560, Note_on_c, 9, 35, 125
8, 70560, Note_on_c, 9, 42, 127
8, 70576, Note_on_c, 9, 35, 0
8, 70576, Note_on_c, 9, 42, 0
8, 70656, Note_on_c, 9, 35, 127
8, 70656, Note_on_c, 9, 42, 116
8, 70672, Note_on_c, 9, 35, 0
8, 70672, Note_on_c, 9, 42, 0
8, 70704, Note_on_c, 9, 42, 118
8, 70720, Note_on_c, 9, 42, 0
8, 70752, Note_on_c, 9, 42, 118
8, 70768, Note_on_c, 9, 42, 0
8, 70848, Note_on_c, 9, 40, 127
8, 70848, Note_on_c, 9, 42, 109
8, 70848, Note_on_c, 9, 44, 125
8, 70864, Note_on_c, 9, 40, 0
8, 70864, Note_on_c, 9, 42, 0
8, 70864, Note_on_c, 9, 44, 0
8, 70944, Note_on_c, 9, 42, 127
8, 70960, Note_on_c, 9, 42, 0
8, 71040, Note_on_c, 9, 42, 111
8, 71056, Note_on_c, 9, 42, 0
8, 71136, Note_on_c, 9, 35, 125
8, 71136, Note_on_c, 9, 42, 116
8, 71136, Note_on_c, 9, 46, 127
8, 71152, Note_on_c, 9, 35, 0
8, 71152, Note_on_c, 9, 42, 0
8, 71152, Note_on_c, 9, 46, 0
8, 71232, Note_on_c, 9, 40, 127
8, 71232, Note_on_c, 9, 44, 127
8, 71248, Note_on_c, 9, 40, 0
8, 71248, Note_on_c, 9, 44, 0
8, 71328, Note_on_c, 9, 35, 125
8, 71328, Note_on_c, 9, 42, 127
8, 71344, Note_on_c, 9, 35, 0
8, 71344, Note_on_c, 9, 42, 0
8, 71424, Note_on_c, 9, 35, 127
8, 71424, Note_on_c, 9, 42, 116
8, 71440, Note_on_c, 9, 35, 0
8, 71440, Note_on_c, 9, 42, 0
8, 71472, Note_on_c, 9, 42, 118
8, 71488, Note_on_c, 9, 42, 0
8, 71520, Note_on_c, 9, 42, 118
8, 71536, Note_on_c, 9, 42, 0
8, 71616, Note_on_c, 9, 40, 127
8, 71616, Note_on_c, 9, 42, 109
8, 71616, Note_on_c, 9, 44, 125
8, 71632, Note_on_c, 9, 40, 0
8, 71632, Note_on_c, 9, 42, 0
8, 71632, Note_on_c, 9, 44, 0
8, 71712, Note_on_c, 9, 42, 127
8, 71728, Note_on_c, 9, 42, 0
8, 71808, Note_on_c, 9, 42, 111
8, 71824, Note_on_c, 9, 42, 0
8, 71904, Note_on_c, 9, 35, 125
8, 71904, Note_on_c, 9, 42, 116
8, 71904, Note_on_c, 9, 46, 127
8, 71920, Note_on_c, 9, 35, 0
8, 71920, Note_on_c, 9, 42, 0
8, 71920, Note_on_c, 9, 46, 0
8, 72000, Note_on_c, 9, 40, 127
8, 72000, Note_on_c, 9, 44, 127
8, 72016, Note_on_c, 9, 40, 0
8, 72016, Note_on_c, 9, 44, 0
8, 72096, Note_on_c, 9, 35, 125
8, 72096, Note_on_c, 9, 42, 127
8, 72112, Note_on_c, 9, 35, 0
8, 72112, Note_on_c, 9, 42, 0
8, 72192, Note_on_c, 9, 35, 127
8, 72192, Note_on_c, 9, 42, 116
8, 72208, Note_on_c, 9, 35, 0
8, 72208, Note_on_c, 9, 42, 0
8, 72240, Note_on_c, 9, 42, 118
8, 72256, Note_on_c, 9, 42, 0
8, 72288, Note_on_c, 9, 42, 118
8, 72304, Note_on_c, 9, 42, 0
8, 72384, Note_on_c, 9, 40, 127
8, 72384, Note_on_c, 9, 42, 109
8, 72384, Note_on_c, 9, 44, 125
8, 72400, Note_on_c, 9, 40, 0
8, 72400, Note_on_c, 9, 42, 0
8, 72400, Note_on_c, 9, 44, 0
8, 72480, Note_on_c, 9, 42, 127
8, 72496, Note_on_c, 9, 42, 0
8, 72576, Note_on_c, 9, 42, 111
8, 72592, Note_on_c, 9, 42, 0
8, 72672, Note_on_c, 9, 35, 125
8, 72672, Note_on_c, 9, 42, 116
8, 72672, Note_on_c, 9, 46, 127
8, 72688, Note_on_c, 9, 35, 0
8, 72688, Note_on_c, 9, 42, 0
8, 72688, Note_on_c, 9, 46, 0
8, 72768, Note_on_c, 9, 40, 127
8, 72768, Note_on_c, 9, 44, 127
8, 72784, Note_on_c, 9, 40, 0
8, 72784, Note_on_c, 9, 44, 0
8, 72864, Note_on_c, 9, 35, 125
8, 72864, Note_on_c, 9, 42, 127
8, 72880, Note_on_c, 9, 35, 0
8, 72880, Note_on_c, 9, 42, 0
8, 72960, Note_on_c, 9, 35, 127
8, 72960, Note_on_c, 9, 42, 116
8, 72976, Note_on_c, 9, 35, 0
8, 72976, Note_on_c, 9, 42, 0
8, 73008, Note_on_c, 9, 42, 118
8, 73024, Note_on_c, 9, 42, 0
8, 73056, Note_on_c, 9, 42, 118
8, 73072, Note_on_c, 9, 42, 0
8, 73152, Note_on_c, 9, 40, 127
8, 73152, Note_on_c, 9, 42, 109
8, 73152, Note_on_c, 9, 44, 125
8, 73168, Note_on_c, 9, 40, 0
8, 73168, Note_on_c, 9, 42, 0
8, 73168, Note_on_c, 9, 44, 0
8, 73248, Note_on_c, 9, 42, 127
8, 73264, Note_on_c, 9, 42, 0
8, 73344, Note_on_c, 9, 42, 111
8, 73360, Note_on_c, 9, 42, 0
8, 73440, Note_on_c, 9, 35, 125
8, 73440, Note_on_c, 9, 42, 116
8, 73440, Note_on_c, 9, 46, 127
8, 73456, Note_on_c, 9, 35, 0
8, 73456, Note_on_c, 9, 42, 0
8, 73456, Note_on_c, 9, 46, 0
8, 73536, Note_on_c, 9, 40, 127
8, 73536, Note_on_c, 9, 44, 127
8, 73552, Note_on_c, 9, 40, 0
8, 73552, Note_on_c, 9, 44, 0
8, 73632, Note_on_c, 9, 35, 125
8, 73632, Note_on_c, 9, 42, 127
8, 73648, Note_on_c, 9, 35, 0
8, 73648, Note_on_c, 9, 42, 0
8, 73728, Note_on_c, 9, 35, 127
8, 73728, Note_on_c, 9, 42, 116
8, 73744, Note_on_c, 9, 35, 0
8, 73744, Note_on_c, 9, 42, 0
8, 73776, Note_on_c, 9, 42, 118
8, 73792, Note_on_c, 9, 42, 0
8, 73824, Note_on_c, 9, 42, 118
8, 73840, Note_on_c, 9, 42, 0
8, 73920, Note_on_c, 9, 40, 127
8, 73920, Note_on_c, 9, 42, 109
8, 73920, Note_on_c, 9, 44, 125
8, 73936, Note_on_c, 9, 40, 0
8, 73936, Note_on_c, 9, 42, 0
8, 73936, Note_on_c, 9, 44, 0
8, 74016, Note_on_c, 9, 42, 127
8, 74032, Note_on_c, 9, 42, 0
8, 74112, Note_on_c, 9, 42, 111
8, 74128, Note_on_c, 9, 42, 0
8, 74208, Note_on_c, 9, 35, 125
8, 74208, Note_on_c, 9, 42, 116
8, 74208, Note_on_c, 9, 46, 127
8, 74224, Note_on_c, 9, 35, 0
8, 74224, Note_on_c, 9, 42, 0
8, 74224, Note_on_c, 9, 46, 0
8, 74304, Note_on_c, 9, 40, 127
8, 74304, Note_on_c, 9, 44, 127
8, 74320, Note_on_c, 9, 40, 0
8, 74320, Note_on_c, 9, 44, 0
8, 74352, Note_on_c, 9, 40, 127
8, 74368, Note_on_c, 9, 40, 0
8, 74400, Note_on_c, 9, 35, 125
8, 74400, Note_on_c, 9, 40, 127
8, 74400, Note_on_c, 9, 42, 127
8, 74416, Note_on_c, 9, 35, 0
8, 74416, Note_on_c, 9, 40, 0
8, 74416, Note_on_c, 9, 42, 0
8, 74448, Note_on_c, 9, 40, 127
8, 74464, Note_on_c, 9, 40, 0
8, 74496, Note_on_c, 9, 35, 127
8, 74496, Note_on_c, 9, 40, 127
8, 74496, Note_on_c, 9, 42, 116
8, 74512, Note_on_c, 9, 35, 0
8, 74512, Note_on_c, 9, 40, 0
8, 74512, Note_on_c, 9, 42, 0
8, 75648, Note_on_c, 9, 40, 127
8, 75664, Note_on_c, 9, 40, 0
8, 75672, Note_on_c, 9, 40, 127
8, 75688, Note_on_c, 9, 40, 0
8, 75696, Note_on_c, 9, 40, 127
8, 75712, Note_on_c, 9, 40, 0
8, 75720, Note_on_c, 9, 40, 127
8, 75736, Note_on_c, 9, 40, 0
8, 75744, Note_on_c, 9, 40, 123
8, 75760, Note_on_c, 9, 40, 0
8, 75768, Note_on_c, 9, 40, 123
8, 75784, Note_on_c, 9, 40, 0
8, 75792, Note_on_c, 9, 40, 127
8, 75808, Note_on_c, 9, 40, 0
8, 75840, Note_on_c, 9, 35, 127
8, 75840, Note_on_c, 9, 40, 127
8, 75856, Note_on_c, 9, 35, 0
8, 75856, Note_on_c, 9, 40, 0
8, 75936, Note_on_c, 9, 35, 125
8, 75936, Note_on_c, 9, 40, 127
8, 75936, Note_on_c, 9, 42, 127
8, 75952, Note_on_c, 9, 35, 0
8, 75952, Note_on_c, 9, 40, 0
8, 75952, Note_on_c, 9, 42, 0
8, 75984, Note_on_c, 9, 40, 127
8, 76000, Note_on_c, 9, 40, 0
8, 76032, Note_on_c, 9, 35, 127
8, 76032, Note_on_c, 9, 42, 116
8, 76048, Note_on_c, 9, 35, 0
8, 76048, Note_on_c, 9, 42, 0
8, 76080, Note_on_c, 9, 42, 118
8, 76096, Note_on_c, 9, 42, 0
8, 76128, Note_on_c, 9, 42, 118
8, 76144, Note_on_c, 9, 42, 0
8, 76224, Note_on_c, 9, 40, 127
8, 76224, Note_on_c, 9, 42, 109
8, 76224, Note_on_c, 9, 44, 125
8, 76240, Note_on_c, 9, 40, 0
8, 76240, Note_on_c, 9, 42, 0
8, 76240, Note_on_c, 9, 44, 0
8, 76320, Note_on_c, 9, 42, 127
8, 76336, Note_on_c, 9, 42, 0
8, 76416, Note_on_c, 9, 42, 111
8, 76432, Note_on_c, 9, 42, 0
8, 76512, Note_on_c, 9, 35, 125
8, 76512, Note_on_c, 9, 42, 116
8, 76512, Note_on_c, 9, 46, 127
8, 76528, Note_on_c, 9, 35, 0
8, 76528, Note_on_c, 9, 42, 0
8, 76528, Note_on_c, 9, 46, 0
8, 76608, Note_on_c, 9, 40, 127
8, 76608, Note_on_c, 9, 44, 127
8, 76624, Note_on_c, 9, 40, 0
8, 76624, Note_on_c, 9, 44, 0
8, 76704, Note_on_c, 9, 35, 125
8, 76704, Note_on_c, 9, 42, 127
8, 76720, Note_on_c, 9, 35, 0
8, 76720, Note_on_c, 9, 42, 0
8, 76800, Note_on_c, 9, 35, 127
8, 76800, Note_on_c, 9, 42, 116
8, 76816, Note_on_c, 9, 35, 0
8, 76816, Note_on_c, 9, 42, 0
8, 76848, Note_on_c, 9, 42, 118
8, 76864, Note_on_c, 9, 42, 0
8, 76896, Note_on_c, 9, 42, 118
8, 76912, Note_on_c, 9, 42, 0
8, 76992, Note_on_c, 9, 40, 127
8, 76992, Note_on_c, 9, 42, 109
8, 76992, Note_on_c, 9, 44, 125
8, 77008, Note_on_c, 9, 40, 0
8, 77008, Note_on_c, 9, 42, 0
8, 77008, Note_on_c, 9, 44, 0
8, 77088, Note_on_c, 9, 42, 127
8, 77104, Note_on_c, 9, 42, 0
8, 77184, Note_on_c, 9, 42, 111
8, 77200, Note_on_c, 9, 42, 0
8, 77280, Note_on_c, 9, 35, 125
8, 77280, Note_on_c, 9, 42, 116
8, 77280, Note_on_c, 9, 46, 127
8, 77296, Note_on_c, 9, 35, 0
8, 77296, Note_on_c, 9, 42, 0
8, 77296, Note_on_c, 9, 46, 0
8, 77376, Note_on_c, 9, 40, 127
8, 77376, Note_on_c, 9, 44, 127
8, 77392, Note_on_c, 9, 40, 0
8, 77392, Note_on_c, 9, 44, 0
8, 77472, Note_on_c, 9, 35, 125
8, 77472, Note_on_c, 9, 42, 127
8, 77488, Note_on_c, 9, 35, 0
8, 77488, Note_on_c, 9, 42, 0
8, 77568, Note_on_c, 9, 35, 127
8, 77568, Note_on_c, 9, 42, 116
8, 77584, Note_on_c, 9, 35, 0
8, 77584, Note_on_c, 9, 42, 0
8, 77616, Note_on_c, 9, 42, 118
8, 77632, Note_on_c, 9, 42, 0
8, 77664, Note_on_c, 9, 42, 118
8, 77680, Note_on_c, 9, 42, 0
8, 77760, Note_on_c, 9, 40, 127
8, 77760, Note_on_c, 9, 42, 109
8, 77760, Note_on_c, 9, 44, 125
8, 77776, Note_on_c, 9, 40, 0
8, 77776, Note_on_c, 9, 42, 0
8, 77776, Note_on_c, 9, 44, 0
8, 77856, Note_on_c, 9, 42, 127
8, 77872, Note_on_c, 9, 42, 0
8, 77952, Note_on_c, 9, 42, 111
8, 77968, Note_on_c, 9, 42, 0
8, 78048, Note_on_c, 9, 35, 125
8, 78048, Note_on_c, 9, 42, 116
8, 78048, Note_on_c, 9, 46, 127
8, 78064, Note_on_c, 9, 35, 0
8, 78064, Note_on_c, 9, 42, 0
8, 78064, Note_on_c, 9, 46, 0
8, 78144, Note_on_c, 9, 40, 127
8, 78144, Note_on_c, 9, 44, 127
8, 78160, Note_on_c, 9, 40, 0
8, 78160, Note_on_c, 9, 44, 0
8, 78240, Note_on_c, 9, 35, 125
8, 78240, Note_on_c, 9, 42, 127
8, 78256, Note_on_c, 9, 35, 0
8, 78256, Note_on_c, 9, 42, 0
8, 78336, Note_on_c, 9, 35, 127
8, 78336, Note_on_c, 9, 42, 116
8, 78352, Note_on_c, 9, 35, 0
8, 78352, Note_on_c, 9, 42, 0
8, 78384, Note_on_c, 9, 42, 118
8, 78400, Note_on_c, 9, 42, 0
8, 78432, Note_on_c, 9, 42, 118
8, 78448, Note_on_c, 9, 42, 0
8, 78528, Note_on_c, 9, 40, 127
8, 78528, Note_on_c, 9, 42, 109
8, 78528, Note_on_c, 9, 44, 125
8, 78544, Note_on_c, 9, 40, 0
8, 78544, Note_on_c, 9, 42, 0
8, 78544, Note_on_c, 9, 44, 0
8, 78624, Note_on_c, 9, 42, 127
8, 78640, Note_on_c, 9, 42, 0
8, 78720, Note_on_c, 9, 42, 111
8, 78736, Note_on_c, 9, 42, 0
8, 78816, Note_on_c, 9, 35, 125
8, 78816, Note_on_c, 9, 42, 116
8, 78816, Note_on_c, 9, 46, 127
8, 78832, Note_on_c, 9, 35, 0
8, 78832, Note_on_c, 9, 42, 0
8, 78832, Note_on_c, 9, 46, 0
8, 78912, Note_on_c, 9, 40, 118
8, 78912, Note_on_c, 9, 44, 127
8, 78928, Note_on_c, 9, 40, 0
8, 78928, Note_on_c, 9, 44, 0
8, 78960, Note_on_c, 9, 40, 118
8, 78976, Note_on_c, 9, 40, 0
8, 79008, Note_on_c, 9, 35, 125
8, 79008, Note_on_c, 9, 40, 127
8, 79008, Note_on_c, 9, 42, 127
8, 79024, Note_on_c, 9, 35, 0
8, 79024, Note_on_c, 9, 40, 0
8, 79024, Note_on_c, 9, 42, 0
8, 79056, Note_on_c, 9, 40, 127
8, 79072, Note_on_c, 9, 40, 0
8, 79104, Note_on_c, 9, 35, 127
8, 79104, Note_on_c, 9, 40, 127
8, 79104, Note_on_c, 9, 42, 116
8, 79120, Note_on_c, 9, 35, 0
8, 79120, Note_on_c, 9, 40, 0
8, 79120, Note_on_c, 9, 42, 0
8, 79152, Note_on_c, 9, 42, 118
8, 79168, Note_on_c, 9, 42, 0
8, 79200, Note_on_c, 9, 42, 118
8, 79216, Note_on_c, 9, 42, 0
8, 79296, Note_on_c, 9, 40, 127
8, 79296, Note_on_c, 9, 42, 109
8, 79296, Note_on_c, 9, 44, 125
8, 79312, Note_on_c, 9, 40, 0
8, 79312, Note_on_c, 9, 42, 0
8, 79312, Note_on_c, 9, 44, 0
8, 79392, Note_on_c, 9, 42, 127
8, 79408, Note_on_c, 9, 42, 0
8, 79488, Note_on_c, 9, 42, 111
8, 79504, Note_on_c, 9, 42, 0
8, 79584, Note_on_c, 9, 35, 125
8, 79584, Note_on_c, 9, 42, 116
8, 79584, Note_on_c, 9, 46, 127
8, 79600, Note_on_c, 9, 35, 0
8, 79600, Note_on_c, 9, 42, 0
8, 79600, Note_on_c, 9, 46, 0
8, 79680, Note_on_c, 9, 40, 127
8, 79680, Note_on_c, 9, 44, 127
8, 79696, Note_on_c, 9, 40, 0
8, 79696, Note_on_c, 9, 44, 0
8, 79776, Note_on_c, 9, 35, 125
8, 79776, Note_on_c, 9, 42, 127
8, 79792, Note_on_c, 9, 35, 0
8, 79792, Note_on_c, 9, 42, 0
8, 79872, Note_on_c, 9, 35, 127
8, 79872, Note_on_c, 9, 42, 116
8, 79888, Note_on_c, 9, 35, 0
8, 79888, Note_on_c, 9, 42, 0
8, 79920, Note_on_c, 9, 42, 118
8, 79936, Note_on_c, 9, 42, 0
8, 79968, Note_on_c, 9, 42, 118
8, 79984, Note_on_c, 9, 42, 0
8, 80064, Note_on_c, 9, 40, 127
8, 80064, Note_on_c, 9, 42, 109
8, 80064, Note_on_c, 9, 44, 125
8, 80080, Note_on_c, 9, 40, 0
8, 80080, Note_on_c, 9, 42, 0
8, 80080, Note_on_c, 9, 44, 0
8, 80160, Note_on_c, 9, 42, 127
8, 80176, Note_on_c, 9, 42, 0
8, 80256, Note_on_c, 9, 42, 111
8, 80272, Note_on_c, 9, 42, 0
8, 80352, Note_on_c, 9, 35, 125
8, 80352, Note_on_c, 9, 42, 116
8, 80352, Note_on_c, 9, 46, 127
8, 80368, Note_on_c, 9, 35, 0
8, 80368, Note_on_c, 9, 42, 0
8, 80368, Note_on_c, 9, 46, 0
8, 80448, Note_on_c, 9, 40, 127
8, 80448, Note_on_c, 9, 44, 127
8, 80464, Note_on_c, 9, 40, 0
8, 80464, Note_on_c, 9, 44, 0
8, 80544, Note_on_c, 9, 35, 125
8, 80544, Note_on_c, 9, 42, 127
8, 80560, Note_on_c, 9, 35, 0
8, 80560, Note_on_c, 9, 42, 0
8, 80640, Note_on_c, 9, 35, 127
8, 80640, Note_on_c, 9, 42, 116
8, 80656, Note_on_c, 9, 35, 0
8, 80656, Note_on_c, 9, 42, 0
8, 80688, Note_on_c, 9, 42, 118
8, 80704, Note_on_c, 9, 42, 0
8, 80736, Note_on_c, 9, 42, 118
8, 80752, Note_on_c, 9, 42, 0
8, 80832, Note_on_c, 9, 40, 127
8, 80832, Note_on_c, 9, 42, 109
8, 80832, Note_on_c, 9, 44, 125
8, 80848, Note_on_c, 9, 40, 0
8, 80848, Note_on_c, 9, 42, 0
8, 80848, Note_on_c, 9, 44, 0
8, 80928, Note_on_c, 9, 42, 127
8, 80944, Note_on_c, 9, 42, 0
8, 81024, Note_on_c, 9, 42, 111
8, 81040, Note_on_c, 9, 42, 0
8, 81120, Note_on_c, 9, 35, 125
8, 81120, Note_on_c, 9, 42, 116
8, 81120, Note_on_c, 9, 46, 127
8, 81136, Note_on_c, 9, 35, 0
8, 81136, Note_on_c, 9, 42, 0
8, 81136, Note_on_c, 9, 46, 0
8, 81216, Note_on_c, 9, 40, 127
8, 81216, Note_on_c, 9, 44, 127
8, 81232, Note_on_c, 9, 40, 0
8, 81232, Note_on_c, 9, 44, 0
8, 81312, Note_on_c, 9, 35, 125
8, 81312, Note_on_c, 9, 42, 127
8, 81328, Note_on_c, 9, 35, 0
8, 81328, Note_on_c, 9, 42, 0
8, 81408, Note_on_c, 9, 35, 127
8, 81408, Note_on_c, 9, 42, 116
8, 81424, Note_on_c, 9, 35, 0
8, 81424, Note_on_c, 9, 42, 0
8, 81456, Note_on_c, 9, 42, 118
8, 81472, Note_on_c, 9, 42, 0
8, 81504, Note_on_c, 9, 42, 118
8, 81520, Note_on_c, 9, 42, 0
8, 81600, Note_on_c, 9, 40, 127
8, 81600, Note_on_c, 9, 42, 109
8, 81600, Note_on_c, 9, 44, 125
8, 81616, Note_on_c, 9, 40, 0
8, 81616, Note_on_c, 9, 42, 0
8, 81616, Note_on_c, 9, 44, 0
8, 81696, Note_on_c, 9, 42, 127
8, 81712, Note_on_c, 9, 42, 0
8, 81792, Note_on_c, 9, 42, 111
8, 81808, Note_on_c, 9, 42, 0
8, 81888, Note_on_c, 9, 35, 125
8, 81888, Note_on_c, 9, 42, 116
8, 81888, Note_on_c, 9, 46, 127
8, 81904, Note_on_c, 9, 35, 0
8, 81904, Note_on_c, 9, 42, 0
8, 81904, Note_on_c, 9, 46, 0
8, 81984, Note_on_c, 9, 40, 127
8, 81984, Note_on_c, 9, 44, 127
8, 82000, Note_on_c, 9, 40, 0
8, 82000, Note_on_c, 9, 44, 0
8, 82080, Note_on_c, 9, 35, 125
8, 82080, Note_on_c, 9, 42, 127
8, 82096, Note_on_c, 9, 35, 0
8, 82096, Note_on_c, 9, 42, 0
8, 82176, Note_on_c, 9, 35, 127
8, 82176, Note_on_c, 9, 42, 116
8, 82192, Note_on_c, 9, 35, 0
8, 82192, Note_on_c, 9, 42, 0
8, 82224, Note_on_c, 9, 42, 118
8, 82240, Note_on_c, 9, 42, 0
8, 82272, Note_on_c, 9, 42, 118
8, 82288, Note_on_c, 9, 42, 0
8, 82368, Note_on_c, 9, 40, 127
8, 82368, Note_on_c, 9, 42, 109
8, 82368, Note_on_c, 9, 44, 125
8, 82384, Note_on_c, 9, 40, 0
8, 82384, Note_on_c, 9, 42, 0
8, 82384, Note_on_c, 9, 44, 0
8, 82464, Note_on_c, 9, 42, 127
8, 82480, Note_on_c, 9, 42, 0
8, 82560, Note_on_c, 9, 42, 111
8, 82576, Note_on_c, 9, 42, 0
8, 82656, Note_on_c, 9, 35, 125
8, 82656, Note_on_c, 9, 42, 116
8, 82656, Note_on_c, 9, 46, 127
8, 82672, Note_on_c, 9, 35, 0
8, 82672, Note_on_c, 9, 42, 0
8, 82672, Note_on_c, 9, 46, 0
8, 82752, Note_on_c, 9, 40, 127
8, 82752, Note_on_c, 9, 44, 127
8, 82768, Note_on_c, 9, 40, 0
8, 82768, Note_on_c, 9, 44, 0
8, 82848, Note_on_c, 9, 35, 125
8, 82848, Note_on_c, 9, 42, 127
8, 82864, Note_on_c, 9, 35, 0
8, 82864, Note_on_c, 9, 42, 0
8, 82944, Note_on_c, 9, 35, 127
8, 82944, Note_on_c, 9, 42, 116
8, 82960, Note_on_c, 9, 35, 0
8, 82960, Note_on_c, 9, 42, 0
8, 82992, Note_on_c, 9, 42, 118
8, 83008, Note_on_c, 9, 42, 0
8, 83040, Note_on_c, 9, 42, 118
8, 83056, Note_on_c, 9, 42, 0
8, 83136, Note_on_c, 9, 40, 127
8, 83136, Note_on_c, 9, 42, 109
8, 83136, Note_on_c, 9, 44, 125
8, 83152, Note_on_c, 9, 40, 0
8, 83152, Note_on_c, 9, 42, 0
8, 83152, Note_on_c, 9, 44, 0
8, 83232, Note_on_c, 9, 42, 127
8, 83248, Note_on_c, 9, 42, 0
8, 83328, Note_on_c, 9, 42, 111
8, 83344, Note_on_c, 9, 42, 0
8, 83424, Note_on_c, 9, 35, 125
8, 83424, Note_on_c, 9, 42, 116
8, 83424, Note_on_c, 9, 46, 127
8, 83440, Note_on_c, 9, 35, 0
8, 83440, Note_on_c, 9, 42, 0
8, 83440, Note_on_c, 9, 46, 0
8, 83520, Note_on_c, 9, 40, 127
8, 83520, Note_on_c, 9, 44, 127
8, 83536, Note_on_c, 9, 40, 0
8, 83536, Note_on_c, 9, 44, 0
8, 83616, Note_on_c, 9, 35, 125
8, 83616, Note_on_c, 9, 42, 127
8, 83632, Note_on_c, 9, 35, 0
8, 83632, Note_on_c, 9, 42, 0
8, 83712, Note_on_c, 9, 35, 127
8, 83712, Note_on_c, 9, 42, 116
8, 83728, Note_on_c, 9, 35, 0
8, 83728, Note_on_c, 9, 42, 0
8, 83760, Note_on_c, 9, 42, 118
8, 83776, Note_on_c, 9, 42, 0
8, 83808, Note_on_c, 9, 42, 118
8, 83824, Note_on_c, 9, 42, 0
8, 83904, Note_on_c, 9, 40, 127
8, 83904, Note_on_c, 9, 42, 109
8, 83904, Note_on_c, 9, 44, 125
8, 83920, Note_on_c, 9, 40, 0
8, 83920, Note_on_c, 9, 42, 0
8, 83920, Note_on_c, 9, 44, 0
8, 84000, Note_on_c, 9, 42, 127
8, 84016, Note_on_c, 9, 42, 0
8, 84096, Note_on_c, 9, 42, 111
8, 84112, Note_on_c, 9, 42, 0
8, 84192, Note_on_c, 9, 35, 125
8, 84192, Note_on_c, 9, 42, 116
8, 84192, Note_on_c, 9, 46, 127
8, 84208, Note_on_c, 9, 35, 0
8, 84208, Note_on_c, 9, 42, 0
8, 84208, Note_on_c, 9, 46, 0
8, 84288, Note_on_c, 9, 40, 127
8, 84288, Note_on_c, 9, 44, 127
8, 84304, Note_on_c, 9, 40, 0
8, 84304, Note_on_c, 9, 44, 0
8, 84384, Note_on_c, 9, 35, 125
8, 84384, Note_on_c, 9, 42, 127
8, 84400, Note_on_c, 9, 35, 0
8, 84400, Note_on_c, 9, 42, 0
8, 84480, Note_on_c, 9, 35, 127
8, 84480, Note_on_c, 9, 42, 116
8, 84496, Note_on_c, 9, 35, 0
8, 84496, Note_on_c, 9, 42, 0
8, 84528, Note_on_c, 9, 42, 118
8, 84544, Note_on_c, 9, 42, 0
8, 84576, Note_on_c, 9, 42, 118
8, 84592, Note_on_c, 9, 42, 0
8, 84600, Note_on_c, 9, 40, 127
8, 84616, Note_on_c, 9, 40, 0
8, 84672, Note_on_c, 9, 42, 109
8, 84672, Note_on_c, 9, 44, 125
8, 84688, Note_on_c, 9, 42, 0
8, 84688, Note_on_c, 9, 44, 0
8, 84768, Note_on_c, 9, 40, 109
8, 84768, Note_on_c, 9, 42, 127
8, 84784, Note_on_c, 9, 40, 0
8, 84784, Note_on_c, 9, 42, 0
8, 84792, Note_on_c, 9, 40, 121
8, 84808, Note_on_c, 9, 40, 0
8, 84816, Note_on_c, 9, 40, 123
8, 84832, Note_on_c, 9, 40, 0
8, 84840, Note_on_c, 9, 40, 125
8, 84856, Note_on_c, 9, 40, 0
8, 84864, Note_on_c, 9, 40, 127
8, 84864, Note_on_c, 9, 42, 111
8, 84880, Note_on_c, 9, 40, 0
8, 84880, Note_on_c, 9, 42, 0
8, 84960, Note_on_c, 9, 35, 125
8, 84960, Note_on_c, 9, 40, 111
8, 84960, Note_on_c, 9, 42, 116
8, 84960, Note_on_c, 9, 46, 127
8, 84976, Note_on_c, 9, 35, 0
8, 84976, Note_on_c, 9, 40, 0
8, 84976, Note_on_c, 9, 42, 0
8, 84976, Note_on_c, 9, 46, 0
8, 84984, Note_on_c, 9, 40, 111
8, 85000, Note_on_c, 9, 40, 0
8, 85008, Note_on_c, 9, 40, 111
8, 85024, Note_on_c, 9, 40, 0
8, 85032, Note_on_c, 9, 40, 118
8, 85048, Note_on_c, 9, 40, 0
8, 85056, Note_on_c, 9, 40, 125
8, 85056, Note_on_c, 9, 44, 127
8, 85072, Note_on_c, 9, 40, 0
8, 85072, Note_on_c, 9, 44, 0
8, 85080, Note_on_c, 9, 40, 127
8, 85096, Note_on_c, 9, 40, 0
8, 85104, Note_on_c, 9, 40, 127
8, 85120, Note_on_c, 9, 40, 0
8, 85152, Note_on_c, 9, 35, 125
8, 85152, Note_on_c, 9, 42, 127
8, 85168, Note_on_c, 9, 35, 0
8, 85168, Note_on_c, 9, 42, 0
8, 85200, Note_on_c, 9, 40, 125
8, 85216, Note_on_c, 9, 40, 0
8, 85248, Note_on_c, 9, 35, 127
8, 85248, Note_on_c, 9, 40, 127
8, 85248, Note_on_c, 9, 42, 116
8, 85264, Note_on_c, 9, 35, 0
8, 85264, Note_on_c, 9, 40, 0
8, 85264, Note_on_c, 9, 42, 0
8, 85296, Note_on_c, 9, 42, 118
8, 85312, Note_on_c, 9, 42, 0
8, 85344, Note_on_c, 9, 42, 118
8, 85360, Note_on_c, 9, 42, 0
8, 85440, Note_on_c, 9, 40, 127
8, 85440, Note_on_c, 9, 42, 109
8, 85440, Note_on_c, 9, 44, 125
8, 85456, Note_on_c, 9, 40, 0
8, 85456, Note_on_c, 9, 42, 0
8, 85456, Note_on_c, 9, 44, 0
8, 85536, Note_on_c, 9, 42, 127
8, 85552, Note_on_c, 9, 42, 0
8, 85632, Note_on_c, 9, 42, 111
8, 85648, Note_on_c, 9, 42, 0
8, 85728, Note_on_c, 9, 35, 125
8, 85728, Note_on_c, 9, 42, 116
8, 85728, Note_on_c, 9, 46, 127
8, 85744, Note_on_c, 9, 35, 0
8, 85744, Note_on_c, 9, 42, 0
8, 85744, Note_on_c, 9, 46, 0
8, 85824, Note_on_c, 9, 40, 127
8, 85824, Note_on_c, 9, 44, 127
8, 85840, Note_on_c, 9, 40, 0
8, 85840, Note_on_c, 9, 44, 0
8, 85920, Note_on_c, 9, 35, 125
8, 85920, Note_on_c, 9, 42, 127
8, 85936, Note_on_c, 9, 35, 0
8, 85936, Note_on_c, 9, 42, 0
8, 86016, Note_on_c, 9, 35, 127
8, 86016, Note_on_c, 9, 42, 116
8, 86032, Note_on_c, 9, 35, 0
8, 86032, Note_on_c, 9, 42, 0
8, 86064, Note_on_c, 9, 42, 118
8, 86080, Note_on_c, 9, 42, 0
8, 86112, Note_on_c, 9, 42, 118
8, 86128, Note_on_c, 9, 42, 0
8, 86208, Note_on_c, 9, 40, 127
8, 86208, Note_on_c, 9, 42, 109
8, 86208, Note_on_c, 9, 44, 125
8, 86224, Note_on_c, 9, 40, 0
8, 86224, Note_on_c, 9, 42, 0
8, 86224, Note_on_c, 9, 44, 0
8, 86304, Note_on_c, 9, 42, 127
8, 86320, Note_on_c, 9, 42, 0
8, 86400, Note_on_c, 9, 40, 123
8, 86400, Note_on_c, 9, 42, 111
8, 86416, Note_on_c, 9, 40, 0
8, 86416, Note_on_c, 9, 42, 0
8, 86448, Note_on_c, 9, 40, 125
8, 86464, Note_on_c, 9, 40, 0
8, 86496, Note_on_c, 9, 35, 125
8, 86496, Note_on_c, 9, 40, 127
8, 86496, Note_on_c, 9, 42, 116
8, 86496, Note_on_c, 9, 46, 127
8, 86512, Note_on_c, 9, 35, 0
8, 86512, Note_on_c, 9, 40, 0
8, 86512, Note_on_c, 9, 42, 0
8, 86512, Note_on_c, 9, 46, 0
8, 86544, Note_on_c, 9, 40, 127
8, 86560, Note_on_c, 9, 40, 0
8, 86592, Note_on_c, 9, 40, 127
8, 86592, Note_on_c, 9, 44, 127
8, 86608, Note_on_c, 9, 40, 0
8, 86608, Note_on_c, 9, 44, 0
8, 86640, Note_on_c, 9, 40, 127
8, 86656, Note_on_c, 9, 40, 0
8, 86688, Note_on_c, 9, 35, 125
8, 86688, Note_on_c, 9, 40, 127
8, 86704, Note_on_c, 9, 35, 0
8, 86704, Note_on_c, 9, 40, 0
8, 86736, Note_on_c, 9, 40, 127
8, 86752, Note_on_c, 9, 40, 0
8, 86784, Note_on_c, 9, 40, 102
8, 86784, Note_on_c, 9, 41, 127
8, 86800, Note_on_c, 9, 40, 0
8, 86800, Note_on_c, 9, 41, 0
8, 86808, Note_on_c, 9, 40, 102
8, 86816, Note_on_c, 9, 41, 127
8, 86824, Note_on_c, 9, 40, 0
8, 86832, Note_on_c, 9, 40, 102
8, 86832, Note_on_c, 9, 41, 0
8, 86848, Note_on_c, 9, 40, 0
8, 86848, Note_on_c, 9, 41, 127
8, 86856, Note_on_c, 9, 40, 102
8, 86864, Note_on_c, 9, 41, 0
8, 86872, Note_on_c, 9, 40, 0
8, 86880, Note_on_c, 9, 40, 102
8, 86880, Note_on_c, 9, 41, 127
8, 86896, Note_on_c, 9, 40, 0
8, 86896, Note_on_c, 9, 41, 0
8, 86904, Note_on_c, 9, 40, 102
8, 86912, Note_on_c, 9, 41, 127
8, 86920, Note_on_c, 9, 40, 0
8, 86928, Note_on_c, 9, 40, 102
8, 86928, Note_on_c, 9, 41, 0
8, 86944, Note_on_c, 9, 40, 0
8, 86944, Note_on_c, 9, 41, 127
8, 86952, Note_on_c, 9, 40, 102
8, 86960, Note_on_c, 9, 41, 0
8, 86968, Note_on_c, 9, 40, 0
8, 86976, Note_on_c, 9, 40, 102
8, 86976, Note_on_c, 9, 41, 127
8, 86992, Note_on_c, 9, 40, 0
8, 86992, Note_on_c, 9, 41, 0
8, 87000, Note_on_c, 9, 40, 102
8, 87008, Note_on_c, 9, 41, 127
8, 87016, Note_on_c, 9, 40, 0
8, 87024, Note_on_c, 9, 40, 102
8, 87024, Note_on_c, 9, 41, 0
8, 87040, Note_on_c, 9, 40, 0
8, 87040, Note_on_c, 9, 45, 127
8, 87048, Note_on_c, 9, 40, 102
8, 87056, Note_on_c, 9, 45, 0
8, 87064, Note_on_c, 9, 40, 0
8, 87072, Note_on_c, 9, 40, 102
8, 87072, Note_on_c, 9, 45, 127
8, 87088, Note_on_c, 9, 40, 0
8, 87088, Note_on_c, 9, 45, 0
8, 87096, Note_on_c, 9, 40, 102
8, 87104, Note_on_c, 9, 45, 127
8, 87112, Note_on_c, 9, 40, 0
8, 87120, Note_on_c, 9, 40, 102
8, 87120, Note_on_c, 9, 45, 0
8, 87136, Note_on_c, 9, 40, 0
8, 87136, Note_on_c, 9, 45, 127
8, 87144, Note_on_c, 9, 40, 102
8, 87152, Note_on_c, 9, 45, 0
8, 87160, Note_on_c, 9, 40, 0
8, 87168, Note_on_c, 9, 40, 102
8, 87168, Note_on_c, 9, 45, 127
8, 87184, Note_on_c, 9, 40, 0
8, 87184, Note_on_c, 9, 45, 0
8, 87192, Note_on_c, 9, 40, 102
8, 87200, Note_on_c, 9, 45, 127
8, 87208, Note_on_c, 9, 40, 0
8, 87216, Note_on_c, 9, 40, 102
8, 87216, Note_on_c, 9, 45, 0
8, 87232, Note_on_c, 9, 40, 0
8, 87232, Note_on_c, 9, 45, 127
8, 87240, Note_on_c, 9, 40, 102
8, 87248, Note_on_c, 9, 45, 0
8, 87256, Note_on_c, 9, 40, 0
8, 87264, Note_on_c, 9, 40, 102
8, 87264, Note_on_c, 9, 45, 127
8, 87280, Note_on_c, 9, 40, 0
8, 87280, Note_on_c, 9, 45, 0
8, 87288, Note_on_c, 9, 40, 102
8, 87296, Note_on_c, 9, 48, 127
8, 87304, Note_on_c, 9, 40, 0
8, 87312, Note_on_c, 9, 40, 102
8, 87312, Note_on_c, 9, 48, 0
8, 87328, Note_on_c, 9, 40, 0
8, 87328, Note_on_c, 9, 48, 127
8, 87336, Note_on_c, 9, 40, 102
8, 87344, Note_on_c, 9, 48, 0
8, 87352, Note_on_c, 9, 40, 0
8, 87360, Note_on_c, 9, 40, 102
8, 87360, Note_on_c, 9, 48, 127
8, 87376, Note_on_c, 9, 40, 0
8, 87376, Note_on_c, 9, 48, 0
8, 87384, Note_on_c, 9, 40, 102
8, 87392, Note_on_c, 9, 48, 127
8, 87400, Note_on_c, 9, 40, 0
8, 87408, Note_on_c, 9, 40, 102
8, 87408, Note_on_c, 9, 48, 0
8, 87424, Note_on_c, 9, 40, 0
8, 87424, Note_on_c, 9, 48, 127
8, 87432, Note_on_c, 9, 40, 102
8, 87440, Note_on_c, 9, 48, 0
8, 87448, Note_on_c, 9, 40, 0
8, 87456, Note_on_c, 9, 40, 102
8, 87456, Note_on_c, 9, 48, 127
8, 87472, Note_on_c, 9, 40, 0
8, 87472, Note_on_c, 9, 48, 0
8, 87480, Note_on_c, 9, 40, 102
8, 87488, Note_on_c, 9, 48, 127
8, 87496, Note_on_c, 9, 40, 0
8, 87504, Note_on_c, 9, 40, 102
8, 87504, Note_on_c, 9, 48, 0
8, 87520, Note_on_c, 9, 40, 0
8, 87520, Note_on_c, 9, 48, 127
8, 87528, Note_on_c, 9, 40, 102
8, 87536, Note_on_c, 9, 48, 0
8, 87544, Note_on_c, 9, 40, 0
8, 87552, Note_on_c, 9, 40, 102
8, 87552, Note_on_c, 9, 45, 127
8, 87552, Note_on_c, 9, 57, 127
8, 87568, Note_on_c, 9, 40, 0
8, 87568, Note_on_c, 9, 45, 0
8, 87568, Note_on_c, 9, 57, 0
8, 87576, Note_on_c, 9, 40, 102
8, 87584, Note_on_c, 9, 45, 127
8, 87592, Note_on_c, 9, 40, 0
8, 87600, Note_on_c, 9, 40, 102
8, 87600, Note_on_c, 9, 45, 0
8, 87616, Note_on_c, 9, 40, 0
8, 87616, Note_on_c, 9, 45, 127
8, 87624, Note_on_c, 9, 40, 102
8, 87632, Note_on_c, 9, 45, 0
8, 87640, Note_on_c, 9, 40, 0
8, 87648, Note_on_c, 9, 40, 102
8, 87648, Note_on_c, 9, 45, 127
8, 87664, Note_on_c, 9, 40, 0
8, 87664, Note_on_c, 9, 45, 0
8, 87672, Note_on_c, 9, 40, 102
8, 87680, Note_on_c, 9, 45, 127
8, 87688, Note_on_c, 9, 40, 0
8, 87696, Note_on_c, 9, 40, 102
8, 87696, Note_on_c, 9, 45, 0
8, 87712, Note_on_c, 9, 40, 0
8, 87712, Note_on_c, 9, 45, 127
8, 87720, Note_on_c, 9, 40, 102
8, 87728, Note_on_c, 9, 45, 0
8, 87736, Note_on_c, 9, 40, 0
8, 87744, Note_on_c, 9, 40, 102
8, 87744, Note_on_c, 9, 45, 127
8, 87760, Note_on_c, 9, 40, 0
8, 87760, Note_on_c, 9, 45, 0
8, 87768, Note_on_c, 9, 40, 102
8, 87776, Note_on_c, 9, 45, 127
8, 87784, Note_on_c, 9, 40, 0
8, 87792, Note_on_c, 9, 40, 102
8, 87792, Note_on_c, 9, 45, 0
8, 87808, Note_on_c, 9, 40, 0
8, 87808, Note_on_c, 9, 41, 127
8, 87816, Note_on_c, 9, 40, 102
8, 87824, Note_on_c, 9, 41, 0
8, 87832, Note_on_c, 9, 40, 0
8, 87840, Note_on_c, 9, 40, 102
8, 87840, Note_on_c, 9, 41, 127
8, 87856, Note_on_c, 9, 40, 0
8, 87856, Note_on_c, 9, 41, 0
8, 87864, Note_on_c, 9, 40, 102
8, 87872, Note_on_c, 9, 41, 127
8, 87880, Note_on_c, 9, 40, 0
8, 87888, Note_on_c, 9, 40, 102
8, 87888, Note_on_c, 9, 41, 0
8, 87904, Note_on_c, 9, 40, 0
8, 87904, Note_on_c, 9, 41, 127
8, 87912, Note_on_c, 9, 40, 102
8, 87920, Note_on_c, 9, 41, 0
8, 87928, Note_on_c, 9, 40, 0
8, 87936, Note_on_c, 9, 40, 102
8, 87936, Note_on_c, 9, 41, 127
8, 87952, Note_on_c, 9, 40, 0
8, 87952, Note_on_c, 9, 41, 0
8, 87960, Note_on_c, 9, 40, 102
8, 87968, Note_on_c, 9, 41, 127
8, 87976, Note_on_c, 9, 40, 0
8, 87984, Note_on_c, 9, 40, 102
8, 87984, Note_on_c, 9, 41, 0
8, 88000, Note_on_c, 9, 40, 0
8, 88000, Note_on_c, 9, 41, 127
8, 88008, Note_on_c, 9, 40, 102
8, 88016, Note_on_c, 9, 41, 0
8, 88024, Note_on_c, 9, 40, 0
8, 88032, Note_on_c, 9, 40, 102
8, 88032, Note_on_c, 9, 41, 127
8, 88048, Note_on_c, 9, 40, 0
8, 88048, Note_on_c, 9, 41, 0
8, 88056, Note_on_c, 9, 40, 102
8, 88064, Note_on_c, 9, 45, 127
8, 88072, Note_on_c, 9, 40, 0
8, 88080, Note_on_c, 9, 40, 102
8, 88080, Note_on_c, 9, 45, 0
8, 88096, Note_on_c, 9, 40, 0
8, 88096, Note_on_c, 9, 45, 127
8, 88104, Note_on_c, 9, 40, 102
8, 88112, Note_on_c, 9, 45, 0
8, 88120, Note_on_c, 9, 40, 0
8, 88128, Note_on_c, 9, 40, 102
8, 88128, Note_on_c, 9, 45, 127
8, 88144, Note_on_c, 9, 40, 0
8, 88144, Note_on_c, 9, 45, 0
8, 88152, Note_on_c, 9, 40, 102
8, 88160, Note_on_c, 9, 45, 127
8, 88168, Note_on_c, 9, 40, 0
8, 88176, Note_on_c, 9, 40, 102
8, 88176, Note_on_c, 9, 45, 0
8, 88192, Note_on_c, 9, 40, 0
8, 88192, Note_on_c, 9, 45, 127
8, 88200, Note_on_c, 9, 40, 102
8, 88208, Note_on_c, 9, 45, 0
8, 88216, Note_on_c, 9, 40, 0
8, 88224, Note_on_c, 9, 40, 102
8, 88224, Note_on_c, 9, 45, 127
8, 88240, Note_on_c, 9, 40, 0
8, 88240, Note_on_c, 9, 45, 0
8, 88248, Note_on_c, 9, 40, 102
8, 88256, Note_on_c, 9, 45, 127
8, 88264, Note_on_c, 9, 40, 0
8, 88272, Note_on_c, 9, 40, 102
8, 88272, Note_on_c, 9, 45, 0
8, 88288, Note_on_c, 9, 40, 0
8, 88288, Note_on_c, 9, 45, 127
8, 88296, Note_on_c, 9, 40, 102
8, 88304, Note_on_c, 9, 45, 0
8, 88312, Note_on_c, 9, 40, 0
8, 88320, Note_on_c, 9, 40, 102
8, 88320, Note_on_c, 9, 48, 127
8, 88320, Note_on_c, 9, 57, 127
8, 88336, Note_on_c, 9, 40, 0
8, 88336, Note_on_c, 9, 48, 0
8, 88336, Note_on_c, 9, 57, 0
8, 88344, Note_on_c, 9, 40, 102
8, 88352, Note_on_c, 9, 48, 127
8, 88360, Note_on_c, 9, 40, 0
8, 88368, Note_on_c, 9, 40, 102
8, 88368, Note_on_c, 9, 48, 0
8, 88384, Note_on_c, 9, 40, 0
8, 88384, Note_on_c, 9, 48, 127
8, 88392, Note_on_c, 9, 40, 102
8, 88400, Note_on_c, 9, 48, 0
8, 88408, Note_on_c, 9, 40, 0
8, 88416, Note_on_c, 9, 40, 102
8, 88416, Note_on_c, 9, 48, 127
8, 88432, Note_on_c, 9, 40, 0
8, 88432, Note_on_c, 9, 48, 0
8, 88440, Note_on_c, 9, 40, 102
8, 88448, Note_on_c, 9, 48, 127
8, 88456, Note_on_c, 9, 40, 0
8, 88464, Note_on_c, 9, 40, 102
8, 88464, Note_on_c, 9, 48, 0
8, 88480, Note_on_c, 9, 40, 0
8, 88480, Note_on_c, 9, 48, 127
8, 88488, Note_on_c, 9, 40, 102
8, 88496, Note_on_c, 9, 48, 0
8, 88504, Note_on_c, 9, 40, 0
8, 88512, Note_on_c, 9, 40, 102
8, 88512, Note_on_c, 9, 48, 127
8, 88528, Note_on_c, 9, 40, 0
8, 88528, Note_on_c, 9, 48, 0
8, 88536, Note_on_c, 9, 40, 102
8, 88544, Note_on_c, 9, 48, 127
8, 88552, Note_on_c, 9, 40, 0
8, 88560, Note_on_c, 9, 40, 102
8, 88560, Note_on_c, 9, 48, 0
8, 88576, Note_on_c, 9, 40, 0
8, 88576, Note_on_c, 9, 48, 127
8, 88584, Note_on_c, 9, 40, 102
8, 88592, Note_on_c, 9, 48, 0
8, 88600, Note_on_c, 9, 40, 0
8, 88608, Note_on_c, 9, 40, 102
8, 88608, Note_on_c, 9, 48, 127
8, 88624, Note_on_c, 9, 40, 0
8, 88624, Note_on_c, 9, 48, 0
8, 88632, Note_on_c, 9, 40, 102
8, 88640, Note_on_c, 9, 48, 127
8, 88648, Note_on_c, 9, 40, 0
8, 88656, Note_on_c, 9, 40, 92
8, 88656, Note_on_c, 9, 48, 0
8, 88672, Note_on_c, 9, 40, 0
8, 88672, Note_on_c, 9, 48, 127
8, 88680, Note_on_c, 9, 40, 92
8, 88688, Note_on_c, 9, 48, 0
8, 88696, Note_on_c, 9, 40, 0
8, 88704, Note_on_c, 9, 40, 94
8, 88704, Note_on_c, 9, 45, 127
8, 88704, Note_on_c, 9, 57, 127
8, 88720, Note_on_c, 9, 40, 0
8, 88720, Note_on_c, 9, 45, 0
8, 88720, Note_on_c, 9, 57, 0
8, 88728, Note_on_c, 9, 40, 94
8, 88736, Note_on_c, 9, 45, 127
8, 88744, Note_on_c, 9, 40, 0
8, 88752, Note_on_c, 9, 40, 99
8, 88752, Note_on_c, 9, 45, 0
8, 88768, Note_on_c, 9, 40, 0
8, 88768, Note_on_c, 9, 45, 127
8, 88776, Note_on_c, 9, 40, 99
8, 88784, Note_on_c, 9, 45, 0
8, 88792, Note_on_c, 9, 40, 0
8, 88800, Note_on_c, 9, 40, 109
8, 88800, Note_on_c, 9, 45, 127
8, 88816, Note_on_c, 9, 40, 0
8, 88816, Note_on_c, 9, 45, 0
8, 88824, Note_on_c, 9, 40, 113
8, 88832, Note_on_c, 9, 45, 127
8, 88840, Note_on_c, 9, 40, 0
8, 88848, Note_on_c, 9, 40, 121
8, 88848, Note_on_c, 9, 45, 0
8, 88864, Note_on_c, 9, 40, 0
8, 88864, Note_on_c, 9, 45, 127
8, 88872, Note_on_c, 9, 40, 127
8, 88880, Note_on_c, 9, 45, 0
8, 88888, Note_on_c, 9, 40, 0
8, 88896, Note_on_c, 9, 45, 127
8, 88912, Note_on_c, 9, 45, 0
8, 88928, Note_on_c, 9, 45, 127
8, 88944, Note_on_c, 9, 45, 0
8, 88992, Note_on_c, 9, 40, 127
8, 88992, Note_on_c, 9, 41, 127
8, 89008, Note_on_c, 9, 40, 0
8, 89008, Note_on_c, 9, 41, 0
8, 89024, Note_on_c, 9, 41, 127
8, 89040, Note_on_c, 9, 40, 127
8, 89040, Note_on_c, 9, 41, 0
8, 89056, Note_on_c, 9, 40, 0
8, 89056, Note_on_c, 9, 41, 127
8, 89072, Note_on_c, 9, 41, 0
8, 89088, Note_on_c, 9, 35, 127
8, 89088, Note_on_c, 9, 40, 127
8, 89088, Note_on_c, 9, 41, 127
8, 89088, Note_on_c, 9, 57, 127
8, 89104, Note_on_c, 9, 35, 0
8, 89104, Note_on_c, 9, 40, 0
8, 89104, Note_on_c, 9, 41, 0
8, 89104, Note_on_c, 9, 57, 0
8, 89104, End_track
9, 0, Start_track
9, 0, Channel_prefix, 9
9, 0, Text_t, "count in"
9, 48, Text_t, "count in"
9, 1536, Note_on_c, 9, 37, 68
9, 1552, Note_on_c, 9, 37, 0
9, 1728, Note_on_c, 9, 37, 64
9, 1744, Note_on_c, 9, 37, 0
9, 1920, Note_on_c, 9, 37, 68
9, 1936, Note_on_c, 9, 37, 0
9, 2112, Note_on_c, 9, 37, 68
9, 2128, Note_on_c, 9, 37, 0
9, 2128, End_track
10, 0, Start_track
10, 0, Text_t, "DATA    "
10, 1, Text_t, "Mustang Sally"
10, 15, Text_t, " (C) 1992  MASTER SEQUENCE"
10, 18, System_exclusive, 10, 65, 16, 66, 18, 64, 0, 127, 0, 65, 247
10, 34, System_exclusive, 41, 65, 16, 69, 18, 16, 0, 0, 70, 105, 110, 101, 32, 77, 117, 115, 105, 99, 32, 70, 114, 111, 109, 42, 77, 65, 83, 84, 69, 82, 32, 83, 69, 81, 85, 69, 78, 67, 69, 42, 0, 247
10, 59, System_exclusive, 10, 65, 16, 66, 18, 64, 1, 48, 4, 11, 247
10, 81, System_exclusive, 10, 65, 16, 66, 18, 64, 1, 51, 100, 40, 247
10, 110, System_exclusive, 25, 65, 16, 66, 18, 64, 1, 16, 6, 2, 2, 2, 2, 2, 2, 2, 2, 2, 0, 0, 0, 0, 0, 0, 23, 247
10, 130, System_exclusive, 25, 65, 16, 66, 18, 64, 1, 0, 32, 77, 85, 83, 84, 65, 78, 71, 32, 83, 65, 76, 76, 89, 32, 32, 27, 247
10, 333, Control_c, 0, 121, 0
10, 337, Control_c, 0, 0, 0
10, 341, Program_c, 0, 56
10, 343, Control_c, 0, 7, 110
10, 345, Control_c, 0, 10, 63
10, 347, Control_c, 0, 91, 90
10, 349, Control_c, 0, 93, 32
10, 381, Control_c, 1, 121, 0
10, 385, Control_c, 1, 0, 0
10, 389, Program_c, 1, 33
10, 391, Control_c, 1, 7, 120
10, 393, Control_c, 1, 10, 63
10, 395, Control_c, 1, 91, 20
10, 397, Control_c, 1, 93, 11
10, 429, Control_c, 2, 121, 0
10, 433, Control_c, 2, 0, 0
10, 437, Program_c, 2, 29
10, 439, Control_c, 2, 7, 113
10, 441, Control_c, 2, 10, 22
10, 443, Control_c, 2, 91, 80
10, 445, Control_c, 2, 93, 56
10, 501, Control_c, 3, 121, 0
10, 505, Control_c, 3, 0, 0
10, 509, Program_c, 3, 0
10, 511, Control_c, 3, 7, 121
10, 513, Control_c, 3, 10, 80
10, 515, Control_c, 3, 91, 75
10, 517, Control_c, 3, 93, 0
10, 549, Control_c, 4, 121, 21
10, 553, Control_c, 4, 0, 0
10, 557, Program_c, 4, 66
10, 559, Control_c, 4, 7, 120
10, 561, Control_c, 4, 10, 100
10, 563, Control_c, 4, 91, 81
10, 565, Control_c, 4, 93, 14
10, 621, Control_c, 5, 121, 0
10, 625, Control_c, 5, 0, 0
10, 629, Program_c, 5, 62
10, 631, Control_c, 5, 7, 100
10, 633, Control_c, 5, 10, 45
10, 635, Control_c, 5, 91, 70
10, 637, Control_c, 5, 93, 50
10, 717, Control_c, 9, 121, 0
10, 721, Control_c, 9, 0, 0
10, 725, Program_c, 9, 0
10, 727, Control_c, 9, 7, 100
10, 729, Control_c, 9, 10, 63
10, 731, Control_c, 9, 91, 64
10, 733, Control_c, 9, 93, 0
10, 733, End_track
0, 0, End_of_file
