0, 0, Header, 1, 13, 384
1, 0, Start_track
1, 0, MIDI_port, 0
1, 0, System_exclusive, 5, 126, 127, 9, 1, 247
1, 0, MIDI_port, 0
1, 0, Time_signature, 4, 2, 24, 8
1, 0, Key_signature, 2, "major"
1, 0, Tempo, 659341
1, 0, Marker_t, "MPB(c)...My Boy. (Elvis Presley)"
1, 76050, Tempo, 666667
1, 76300, Tempo, 674157
1, 76341, Tempo, 681818
1, 76377, Tempo, 689655
1, 76411, Tempo, 697674
1, 76442, Tempo, 705882
1, 76468, Tempo, 714286
1, 76492, Tempo, 722892
1, 76514, Tempo, 731707
1, 76532, Tempo, 740741
1, 76548, Tempo, 750000
1, 76560, Tempo, 759494
1, 76570, Tempo, 769231
1, 76578, Tempo, 779221
1, 76585, Tempo, 789474
1, 76593, Tempo, 800000
1, 76600, Tempo, 810811
1, 76607, Tempo, 821918
1, 76614, Tempo, 833333
1, 76621, Tempo, 845070
1, 76628, Tempo, 857143
1, 76634, Tempo, 869565
1, 76641, Tempo, 882353
1, 76648, Tempo, 895522
1, 76654, Tempo, 909091
1, 76660, Tempo, 923077
1, 76667, Tempo, 937500
1, 76673, Tempo, 952381
1, 76679, Tempo, 659341
1, 76679, End_track
2, 0, Start_track
2, 0, Title_t, "Soft karaoke"
2, 0, Text_t, "@KMIDI KARAOKE FILE"
2, 0, End_track
3, 0, Start_track
3, 0, Title_t, "Words"
3, 0, Text_t, "@LENGL"
3, 0, Text_t, "@T MY BOY"
3, 0, Text_t, "@T ELVIS PRESLEY"
3, 5184, Text_t, "\\You're"
3, 5376, Text_t, " sleep"
3, 5568, Text_t, "ing"
3, 5952, Text_t, " son,"
3, 6048, Text_t, " I"
3, 6144, Text_t, " know"
3, 6720, Text_t, "/But,"
3, 6816, Text_t, " re"
3, 6912, Text_t, "al"
3, 7104, Text_t, "ly,"
3, 7488, Text_t, " this"
3, 7584, Text_t, " can't"
3, 7680, Text_t, " wait"
3, 8256, Text_t, "/I"
3, 8448, Text_t, " want"
3, 8640, Text_t, "ed"
3, 9024, Text_t, " to"
3, 9120, Text_t, " ex"
3, 9216, Text_t, "plain"
3, 9792, Text_t, "/Be"
3, 9984, Text_t, "fore"
3, 10176, Text_t, " it"
3, 10368, Text_t, " gets"
3, 10560, Text_t, " too"
3, 10764, Text_t, " late"
3, 13248, Text_t, "/For"
3, 13344, Text_t, " your"
3, 13440, Text_t, " mo"
3, 13536, Text_t, "ther"
3, 13632, Text_t, " and"
3, 13824, Text_t, " me"
3, 14592, Text_t, "/Love"
3, 14784, Text_t, " has"
3, 15168, Text_t, " final"
3, 15264, Text_t, "ly"
3, 15360, Text_t, " died"
3, 15936, Text_t, "/This"
3, 16032, Text_t, " is"
3, 16128, Text_t, " no"
3, 16704, Text_t, " hap"
3, 16800, Text_t, "py"
3, 16896, Text_t, " home"
3, 17472, Text_t, "/But"
3, 17664, Text_t, " God"
3, 17856, Text_t, " knows"
3, 18240, Text_t, " how"
3, 18336, Text_t, " I've"
3, 18432, Text_t, " tried"
3, 20352, Text_t, "\\Be"
3, 20736, Text_t, "cause"
3, 21120, Text_t, " you're"
3, 21504, Text_t, " all"
3, 22080, Text_t, " I"
3, 22272, Text_t, " have,"
3, 22848, Text_t, " my"
3, 23040, Text_t, " boy"
3, 23808, Text_t, "/You"
3, 24096, Text_t, " are"
3, 24384, Text_t, " my"
3, 24576, Text_t, " life,"
3, 25152, Text_t, " my"
3, 25344, Text_t, " pride,"
3, 25920, Text_t, " my"
3, 26112, Text_t, " joy"
3, 27072, Text_t, "/And"
3, 27264, Text_t, " if"
3, 27360, Text_t, " I"
3, 27552, Text_t, " stay,"
3, 28608, Text_t, " I"
3, 28800, Text_t, " stay"
3, 28896, Text_t, " be"
3, 29088, Text_t, "cause"
3, 29760, Text_t, " of"
3, 29952, Text_t, " you,"
3, 30528, Text_t, " my"
3, 30720, Text_t, " boy"
3, 35904, Text_t, "\\I"
3, 36096, Text_t, " know"
3, 36288, Text_t, " it's"
3, 36672, Text_t, " hard"
3, 36768, Text_t, " to"
3, 36864, Text_t, " understand"
3, 37440, Text_t, "/Why"
3, 37632, Text_t, " did"
3, 37824, Text_t, " we"
3, 38208, Text_t, " ev"
3, 38304, Text_t, "er"
3, 38400, Text_t, " start?"
3, 38976, Text_t, "/We're"
3, 39168, Text_t, " more"
3, 39360, Text_t, " like"
3, 39744, Text_t, " strang"
3, 39840, Text_t, "ers"
3, 39936, Text_t, " now"
3, 40512, Text_t, "/Each"
3, 40704, Text_t, " act"
3, 40896, Text_t, "ing"
3, 41088, Text_t, " out"
3, 41280, Text_t, " a"
3, 41472, Text_t, " part"
3, 44064, Text_t, "/I've"
3, 44160, Text_t, " laughed,"
3, 44256, Text_t, " I"
3, 44352, Text_t, " have"
3, 44544, Text_t, " cried"
3, 45312, Text_t, "/I've"
3, 45504, Text_t, " lost"
3, 45888, Text_t, " eve"
3, 45984, Text_t, "ry"
3, 46080, Text_t, " game"
3, 46656, Text_t, "/Tak"
3, 46752, Text_t, "en"
3, 46848, Text_t, " all"
3, 47424, Text_t, " I"
3, 47520, Text_t, " can"
3, 47616, Text_t, " take"
3, 48192, Text_t, "/But"
3, 48384, Text_t, " I'll"
3, 48576, Text_t, " stay"
3, 48960, Text_t, " just"
3, 49056, Text_t, " the"
3, 49152, Text_t, " same"
3, 51072, Text_t, "\\Be"
3, 51456, Text_t, "cause"
3, 51840, Text_t, " you're"
3, 52224, Text_t, " all"
3, 52800, Text_t, " I"
3, 52992, Text_t, " have,"
3, 53568, Text_t, " my"
3, 53760, Text_t, " boy"
3, 54528, Text_t, "/You"
3, 54816, Text_t, " are"
3, 55104, Text_t, " my"
3, 55296, Text_t, " life,"
3, 55872, Text_t, " my"
3, 56064, Text_t, " pride,"
3, 56640, Text_t, " my"
3, 56832, Text_t, " joy"
3, 57792, Text_t, "/And"
3, 57984, Text_t, " if"
3, 58080, Text_t, " I"
3, 58272, Text_t, " stay,"
3, 59328, Text_t, " I"
3, 59520, Text_t, " stay"
3, 59616, Text_t, " be"
3, 59808, Text_t, "cause"
3, 60480, Text_t, " of"
3, 60672, Text_t, " you,"
3, 61248, Text_t, " my"
3, 61440, Text_t, " boy"
3, 65472, Text_t, "\\Sleep"
3, 65664, Text_t, " on,"
3, 66240, Text_t, " you"
3, 66432, Text_t, " have"
3, 66624, Text_t, "n't"
3, 67008, Text_t, " heard"
3, 67104, Text_t, " a"
3, 67200, Text_t, " word"
3, 67776, Text_t, "/Per"
3, 67872, Text_t, "haps"
3, 68160, Text_t, " it's"
3, 68544, Text_t, " just"
3, 68640, Text_t, " as"
3, 68736, Text_t, " well"
3, 69312, Text_t, "/Why"
3, 69504, Text_t, " spoil"
3, 69696, Text_t, " your"
3, 70080, Text_t, " lit"
3, 70176, Text_t, "tle"
3, 70272, Text_t, " dreams"
3, 70848, Text_t, "/Why"
3, 71040, Text_t, " put"
3, 71232, Text_t, " you"
3, 71424, Text_t, " through"
3, 71712, Text_t, " the"
3, 71808, Text_t, " hell"
3, 74304, Text_t, "/Life"
3, 74400, Text_t, " is"
3, 74496, Text_t, " no"
3, 74592, Text_t, " fai"
3, 74688, Text_t, "ry"
3, 74880, Text_t, "tale"
3, 75456, Text_t, "/As"
3, 75648, Text_t, " one"
3, 75840, Text_t, " day"
3, 76224, Text_t, " you"
3, 76320, Text_t, " will"
3, 76416, Text_t, " know"
3, 76992, Text_t, "/But"
3, 77088, Text_t, " now"
3, 77184, Text_t, " you're"
3, 77760, Text_t, " just"
3, 77856, Text_t, " a"
3, 77952, Text_t, " child"
3, 78528, Text_t, "/I'll"
3, 78720, Text_t, " stay"
3, 78912, Text_t, " and"
3, 79296, Text_t, " watch"
3, 79392, Text_t, " you"
3, 79488, Text_t, " grow"
3, 81408, Text_t, "\\Be"
3, 81792, Text_t, "cause"
3, 82176, Text_t, " you're"
3, 82560, Text_t, " all"
3, 83136, Text_t, " I"
3, 83328, Text_t, " have,"
3, 83904, Text_t, " my"
3, 84096, Text_t, " boy"
3, 84864, Text_t, "/You"
3, 85152, Text_t, " are"
3, 85440, Text_t, " my"
3, 85632, Text_t, " life,"
3, 86208, Text_t, " my"
3, 86400, Text_t, " pride,"
3, 86976, Text_t, " my"
3, 87168, Text_t, " joy"
3, 88128, Text_t, "/And"
3, 88320, Text_t, " if"
3, 88416, Text_t, " I"
3, 88608, Text_t, " stay,"
3, 89664, Text_t, " I"
3, 89856, Text_t, " stay"
3, 89952, Text_t, " be"
3, 90144, Text_t, "cause"
3, 90816, Text_t, " of"
3, 91008, Text_t, " you,"
3, 91584, Text_t, " my"
3, 91776, Text_t, " boy"
3, 93696, Text_t, "\\Be"
3, 94080, Text_t, "cause"
3, 94464, Text_t, " you're"
3, 94848, Text_t, " all"
3, 95424, Text_t, " I"
3, 95616, Text_t, " have,"
3, 96192, Text_t, " my"
3, 96384, Text_t, " boy"
3, 97152, Text_t, "/You"
3, 97440, Text_t, " are"
3, 97728, Text_t, " my"
3, 97920, Text_t, " life,"
3, 98496, Text_t, " my"
3, 98688, Text_t, " pride,"
3, 99264, Text_t, " my"
3, 99456, Text_t, " joy"
3, 100416, Text_t, "/And"
3, 100608, Text_t, " if"
3, 100704, Text_t, " I"
3, 100896, Text_t, " stay,"
3, 101952, Text_t, " I"
3, 102144, Text_t, " stay"
3, 102240, Text_t, " be"
3, 102432, Text_t, "cause"
3, 103104, Text_t, " of"
3, 103296, Text_t, " you,"
3, 103872, Text_t, " my"
3, 104064, Text_t, " boy"
3, 104064, End_track
4, 0, Start_track
4, 0, MIDI_port, 0
4, 67, Program_c, 0, 0
4, 68, Control_c, 0, 7, 106
4, 69, Control_c, 0, 10, 58
4, 70, Control_c, 0, 11, 127
4, 71, Control_c, 0, 91, 40
4, 72, Control_c, 0, 93, 0
4, 4423, Note_on_c, 0, 69, 94
4, 4424, Note_on_c, 0, 57, 88
4, 4593, Note_on_c, 0, 57, 0
4, 4612, Note_on_c, 0, 74, 113
4, 4613, Note_on_c, 0, 62, 113
4, 5322, Control_c, 0, 64, 127
4, 5696, Note_on_c, 0, 69, 0
4, 5767, Note_on_c, 0, 69, 83
4, 5774, Note_on_c, 0, 62, 0
4, 5954, Note_on_c, 0, 62, 83
4, 6039, Note_on_c, 0, 74, 0
4, 6044, Note_on_c, 0, 69, 0
4, 6067, Note_on_c, 0, 62, 0
4, 6137, Note_on_c, 0, 69, 91
4, 6138, Note_on_c, 0, 76, 108
4, 6140, Note_on_c, 0, 61, 68
4, 6174, Control_c, 0, 64, 0
4, 6363, Control_c, 0, 64, 127
4, 6591, Note_on_c, 0, 69, 0
4, 6710, Note_on_c, 0, 73, 73
4, 7010, Note_on_c, 0, 61, 0
4, 7102, Note_on_c, 0, 69, 73
4, 7294, Note_on_c, 0, 61, 73
4, 7326, Note_on_c, 0, 76, 0
4, 7328, Note_on_c, 0, 69, 0
4, 7428, Note_on_c, 0, 73, 0
4, 7493, Note_on_c, 0, 61, 0
4, 7678, Note_on_c, 0, 66, 63
4, 7679, Note_on_c, 0, 71, 94
4, 7681, Control_c, 0, 64, 0
4, 7682, Note_on_c, 0, 74, 91
4, 7683, Note_on_c, 0, 59, 75
4, 7977, Control_c, 0, 64, 127
4, 8170, Note_on_c, 0, 59, 0
4, 8248, Note_on_c, 0, 59, 67
4, 8301, Note_on_c, 0, 66, 0
4, 8447, Note_on_c, 0, 66, 76
4, 8474, Note_on_c, 0, 74, 0
4, 8643, Note_on_c, 0, 74, 94
4, 8737, Note_on_c, 0, 71, 0
4, 8832, Note_on_c, 0, 71, 101
4, 8869, Note_on_c, 0, 66, 0
4, 8916, Note_on_c, 0, 59, 0
4, 9025, Note_on_c, 0, 66, 80
4, 9081, Note_on_c, 0, 71, 0
4, 9099, Note_on_c, 0, 74, 0
4, 9219, Note_on_c, 0, 69, 97
4, 9221, Note_on_c, 0, 73, 76
4, 9221, Note_on_c, 0, 54, 63
4, 9233, Control_c, 0, 64, 0
4, 9458, Control_c, 0, 64, 127
4, 9646, Note_on_c, 0, 54, 0
4, 9787, Note_on_c, 0, 54, 57
4, 9856, Note_on_c, 0, 66, 0
4, 9986, Note_on_c, 0, 66, 53
4, 9999, Note_on_c, 0, 69, 0
4, 10094, Note_on_c, 0, 73, 0
4, 10173, Note_on_c, 0, 69, 86
4, 10359, Note_on_c, 0, 54, 0
4, 10362, Note_on_c, 0, 73, 100
4, 10418, Note_on_c, 0, 66, 0
4, 10540, Note_on_c, 0, 69, 0
4, 10557, Note_on_c, 0, 54, 55
4, 10559, Note_on_c, 0, 66, 76
4, 10636, Note_on_c, 0, 73, 0
4, 10648, Note_on_c, 0, 66, 0
4, 10689, Note_on_c, 0, 54, 0
4, 10736, Control_c, 0, 64, 0
4, 10745, Note_on_c, 0, 59, 79
4, 10748, Note_on_c, 0, 66, 59
4, 10749, Note_on_c, 0, 71, 94
4, 10890, Control_c, 0, 64, 127
4, 11065, Note_on_c, 0, 71, 0
4, 11067, Note_on_c, 0, 66, 0
4, 11137, Note_on_c, 0, 71, 104
4, 11139, Note_on_c, 0, 66, 65
4, 11389, Note_on_c, 0, 66, 0
4, 11402, Note_on_c, 0, 71, 0
4, 11510, Note_on_c, 0, 73, 95
4, 11511, Note_on_c, 0, 66, 95
4, 11512, Note_on_c, 0, 71, 108
4, 11642, Note_on_c, 0, 73, 0
4, 11647, Note_on_c, 0, 71, 0
4, 11715, Note_on_c, 0, 66, 0
4, 11909, Note_on_c, 0, 78, 95
4, 11953, Note_on_c, 0, 59, 0
4, 11996, Note_on_c, 0, 78, 0
4, 12287, Note_on_c, 0, 66, 65
4, 12289, Note_on_c, 0, 59, 79
4, 12290, Note_on_c, 0, 71, 104
4, 12298, Control_c, 0, 64, 0
4, 12424, Control_c, 0, 64, 127
4, 12661, Note_on_c, 0, 78, 87
4, 12682, Note_on_c, 0, 71, 0
4, 12716, Note_on_c, 0, 66, 0
4, 12875, Note_on_c, 0, 78, 0
4, 13052, Note_on_c, 0, 71, 108
4, 13053, Note_on_c, 0, 66, 76
4, 13329, Note_on_c, 0, 59, 0
4, 13330, Note_on_c, 0, 66, 0
4, 13335, Note_on_c, 0, 71, 0
4, 13435, Note_on_c, 0, 78, 91
4, 13543, Note_on_c, 0, 78, 0
4, 13641, Note_on_c, 0, 59, 47
4, 13732, Note_on_c, 0, 59, 0
4, 13822, Note_on_c, 0, 66, 95
4, 13823, Note_on_c, 0, 74, 117
4, 13824, Note_on_c, 0, 78, 87
4, 13825, Note_on_c, 0, 55, 86
4, 13860, Control_c, 0, 64, 0
4, 14012, Control_c, 0, 64, 127
4, 14482, Note_on_c, 0, 66, 0
4, 14499, Note_on_c, 0, 74, 0
4, 14555, Note_on_c, 0, 78, 0
4, 14782, Note_on_c, 0, 71, 88
4, 14979, Note_on_c, 0, 66, 91
4, 15002, Note_on_c, 0, 55, 0
4, 15123, Note_on_c, 0, 71, 0
4, 15140, Note_on_c, 0, 66, 0
4, 15167, Note_on_c, 0, 55, 91
4, 15316, Note_on_c, 0, 55, 0
4, 15355, Note_on_c, 0, 69, 104
4, 15356, Note_on_c, 0, 64, 94
4, 15359, Note_on_c, 0, 76, 104
4, 15360, Note_on_c, 0, 54, 87
4, 15366, Control_c, 0, 64, 0
4, 15545, Control_c, 0, 64, 127
4, 15781, Note_on_c, 0, 64, 0
4, 15933, Note_on_c, 0, 64, 75
4, 15957, Note_on_c, 0, 76, 0
4, 16130, Note_on_c, 0, 76, 113
4, 16194, Note_on_c, 0, 69, 0
4, 16315, Note_on_c, 0, 69, 79
4, 16385, Note_on_c, 0, 64, 0
4, 16491, Note_on_c, 0, 54, 0
4, 16513, Note_on_c, 0, 64, 101
4, 16651, Note_on_c, 0, 76, 0
4, 16679, Note_on_c, 0, 69, 0
4, 16688, Note_on_c, 0, 64, 0
4, 16695, Note_on_c, 0, 54, 76
4, 16835, Note_on_c, 0, 54, 0
4, 16899, Note_on_c, 0, 52, 86
4, 16900, Note_on_c, 0, 67, 108
4, 16902, Note_on_c, 0, 62, 104
4, 16902, Note_on_c, 0, 74, 101
4, 16905, Control_c, 0, 64, 0
4, 17139, Control_c, 0, 64, 127
4, 17410, Note_on_c, 0, 52, 0
4, 17464, Note_on_c, 0, 52, 81
4, 17494, Note_on_c, 0, 62, 0
4, 17659, Note_on_c, 0, 62, 94
4, 17684, Note_on_c, 0, 67, 0
4, 17775, Note_on_c, 0, 74, 0
4, 17852, Note_on_c, 0, 67, 91
4, 18042, Note_on_c, 0, 74, 113
4, 18051, Note_on_c, 0, 52, 0
4, 18149, Note_on_c, 0, 67, 0
4, 18167, Note_on_c, 0, 62, 0
4, 18198, Note_on_c, 0, 74, 0
4, 18235, Note_on_c, 0, 52, 83
4, 18374, Note_on_c, 0, 52, 0
4, 18432, Note_on_c, 0, 54, 123
4, 18432, Note_on_c, 0, 42, 123
4, 18454, Control_c, 0, 64, 0
4, 18606, Control_c, 0, 64, 127
4, 18816, Note_on_c, 0, 78, 91
4, 18816, Note_on_c, 0, 66, 80
4, 18816, Note_on_c, 0, 73, 91
4, 18816, Note_on_c, 0, 71, 117
4, 19331, Note_on_c, 0, 73, 0
4, 19342, Note_on_c, 0, 66, 0
4, 19343, Note_on_c, 0, 71, 0
4, 19389, Note_on_c, 0, 78, 0
4, 19392, Note_on_c, 0, 66, 53
4, 19392, Note_on_c, 0, 78, 41
4, 19392, Note_on_c, 0, 73, 83
4, 19392, Note_on_c, 0, 71, 108
4, 19487, Note_on_c, 0, 73, 0
4, 19494, Note_on_c, 0, 71, 0
4, 19495, Note_on_c, 0, 66, 0
4, 19506, Note_on_c, 0, 78, 0
4, 19584, Note_on_c, 0, 78, 71
4, 19584, Note_on_c, 0, 73, 83
4, 19584, Note_on_c, 0, 66, 61
4, 19584, Note_on_c, 0, 71, 108
4, 19706, Note_on_c, 0, 66, 0
4, 19719, Note_on_c, 0, 71, 0
4, 19729, Note_on_c, 0, 73, 0
4, 19735, Note_on_c, 0, 78, 0
4, 19776, Note_on_c, 0, 71, 113
4, 19776, Note_on_c, 0, 78, 80
4, 19776, Note_on_c, 0, 66, 80
4, 19776, Note_on_c, 0, 73, 91
4, 19902, Note_on_c, 0, 66, 0
4, 19902, Note_on_c, 0, 42, 0
4, 19903, Note_on_c, 0, 73, 0
4, 19907, Note_on_c, 0, 71, 0
4, 19913, Note_on_c, 0, 78, 0
4, 19920, Note_on_c, 0, 54, 0
4, 19968, Note_on_c, 0, 73, 100
4, 19968, Note_on_c, 0, 70, 104
4, 19968, Note_on_c, 0, 54, 91
4, 19968, Note_on_c, 0, 66, 100
4, 19978, Control_c, 0, 64, 0
4, 20312, Note_on_c, 0, 70, 0
4, 20318, Note_on_c, 0, 73, 0
4, 20318, Note_on_c, 0, 66, 0
4, 20352, Note_on_c, 0, 73, 110
4, 20352, Note_on_c, 0, 66, 91
4, 20352, Note_on_c, 0, 70, 100
4, 20625, Note_on_c, 0, 70, 0
4, 20655, Note_on_c, 0, 66, 0
4, 20663, Note_on_c, 0, 73, 0
4, 20736, Note_on_c, 0, 66, 95
4, 20736, Note_on_c, 0, 71, 117
4, 20736, Note_on_c, 0, 73, 104
4, 21060, Note_on_c, 0, 71, 0
4, 21071, Note_on_c, 0, 66, 0
4, 21079, Note_on_c, 0, 73, 0
4, 21120, Note_on_c, 0, 66, 91
4, 21120, Note_on_c, 0, 73, 127
4, 21120, Note_on_c, 0, 70, 104
4, 21372, Note_on_c, 0, 70, 0
4, 21372, Note_on_c, 0, 54, 0
4, 21374, Note_on_c, 0, 66, 0
4, 21375, Note_on_c, 0, 73, 0
4, 21504, Note_on_c, 0, 62, 127
4, 21504, Note_on_c, 0, 66, 127
4, 21504, Note_on_c, 0, 59, 127
4, 21504, Note_on_c, 0, 47, 127
4, 21753, Control_c, 0, 64, 127
4, 21825, Note_on_c, 0, 86, 82
4, 21827, Note_on_c, 0, 83, 82
4, 21829, Note_on_c, 0, 78, 82
4, 21850, Note_on_c, 0, 78, 0
4, 21855, Note_on_c, 0, 83, 0
4, 21857, Note_on_c, 0, 86, 0
4, 21883, Note_on_c, 0, 86, 83
4, 21885, Note_on_c, 0, 83, 83
4, 21887, Note_on_c, 0, 78, 83
4, 22163, Note_on_c, 0, 78, 0
4, 22195, Note_on_c, 0, 78, 87
4, 22197, Note_on_c, 0, 74, 87
4, 22199, Note_on_c, 0, 71, 87
4, 22216, Note_on_c, 0, 74, 0
4, 22218, Note_on_c, 0, 71, 0
4, 22219, Note_on_c, 0, 78, 0
4, 22261, Note_on_c, 0, 78, 88
4, 22264, Note_on_c, 0, 74, 88
4, 22265, Note_on_c, 0, 71, 88
4, 22560, Note_on_c, 0, 66, 0
4, 22571, Note_on_c, 0, 71, 0
4, 22589, Note_on_c, 0, 66, 92
4, 22591, Note_on_c, 0, 71, 92
4, 22593, Note_on_c, 0, 74, 92
4, 22594, Note_on_c, 0, 74, 0
4, 22613, Note_on_c, 0, 66, 0
4, 22616, Note_on_c, 0, 71, 0
4, 22617, Note_on_c, 0, 74, 0
4, 22646, Note_on_c, 0, 74, 93
4, 22650, Note_on_c, 0, 71, 93
4, 22652, Note_on_c, 0, 66, 93
4, 22957, Control_c, 0, 64, 0
4, 23022, Note_on_c, 0, 71, 0
4, 23029, Note_on_c, 0, 78, 0
4, 23036, Note_on_c, 0, 74, 0
4, 23040, Note_on_c, 0, 67, 127
4, 23040, Note_on_c, 0, 64, 127
4, 23040, Note_on_c, 0, 59, 127
4, 23040, Note_on_c, 0, 52, 127
4, 23042, Note_on_c, 0, 47, 0
4, 23045, Note_on_c, 0, 59, 0
4, 23046, Note_on_c, 0, 62, 0
4, 23048, Note_on_c, 0, 66, 0
4, 23052, Note_on_c, 0, 83, 0
4, 23058, Note_on_c, 0, 86, 0
4, 23244, Control_c, 0, 64, 127
4, 23373, Note_on_c, 0, 83, 99
4, 23375, Note_on_c, 0, 79, 99
4, 23376, Note_on_c, 0, 74, 99
4, 23398, Note_on_c, 0, 79, 0
4, 23400, Note_on_c, 0, 74, 0
4, 23401, Note_on_c, 0, 83, 0
4, 23425, Note_on_c, 0, 83, 99
4, 23428, Note_on_c, 0, 79, 99
4, 23429, Note_on_c, 0, 74, 99
4, 23658, Note_on_c, 0, 83, 0
4, 23661, Note_on_c, 0, 79, 0
4, 23665, Note_on_c, 0, 74, 0
4, 23759, Note_on_c, 0, 76, 99
4, 23761, Note_on_c, 0, 71, 99
4, 23782, Note_on_c, 0, 71, 0
4, 23783, Note_on_c, 0, 76, 0
4, 23814, Note_on_c, 0, 79, 99
4, 23815, Note_on_c, 0, 76, 99
4, 23817, Note_on_c, 0, 71, 99
4, 24072, Note_on_c, 0, 67, 0
4, 24085, Note_on_c, 0, 79, 0
4, 24086, Note_on_c, 0, 76, 0
4, 24087, Note_on_c, 0, 71, 0
4, 24133, Note_on_c, 0, 71, 99
4, 24135, Note_on_c, 0, 67, 99
4, 24137, Note_on_c, 0, 76, 99
4, 24161, Note_on_c, 0, 76, 0
4, 24162, Note_on_c, 0, 67, 0
4, 24164, Note_on_c, 0, 71, 0
4, 24190, Note_on_c, 0, 76, 99
4, 24194, Note_on_c, 0, 71, 99
4, 24196, Note_on_c, 0, 67, 99
4, 24447, Note_on_c, 0, 52, 0
4, 24452, Note_on_c, 0, 59, 0
4, 24457, Control_c, 0, 64, 0
4, 24458, Note_on_c, 0, 64, 0
4, 24516, Note_on_c, 0, 76, 0
4, 24521, Note_on_c, 0, 71, 0
4, 24523, Note_on_c, 0, 67, 0
4, 24576, Note_on_c, 0, 61, 110
4, 24576, Note_on_c, 0, 69, 127
4, 24576, Note_on_c, 0, 64, 127
4, 24576, Note_on_c, 0, 57, 127
4, 24725, Control_c, 0, 64, 127
4, 24781, Note_on_c, 0, 61, 0
4, 24784, Note_on_c, 0, 64, 0
4, 24799, Note_on_c, 0, 69, 0
4, 24808, Note_on_c, 0, 57, 0
4, 24897, Note_on_c, 0, 76, 102
4, 24900, Note_on_c, 0, 81, 102
4, 24914, Note_on_c, 0, 81, 0
4, 24917, Note_on_c, 0, 76, 0
4, 24951, Note_on_c, 0, 81, 103
4, 24954, Note_on_c, 0, 76, 103
4, 24958, Note_on_c, 0, 73, 103
4, 25188, Note_on_c, 0, 76, 0
4, 25189, Note_on_c, 0, 81, 0
4, 25192, Note_on_c, 0, 73, 0
4, 25259, Note_on_c, 0, 73, 108
4, 25263, Note_on_c, 0, 76, 108
4, 25264, Note_on_c, 0, 69, 108
4, 25283, Note_on_c, 0, 73, 0
4, 25291, Note_on_c, 0, 76, 0
4, 25292, Note_on_c, 0, 69, 0
4, 25332, Note_on_c, 0, 76, 109
4, 25334, Note_on_c, 0, 69, 109
4, 25336, Note_on_c, 0, 73, 109
4, 25542, Note_on_c, 0, 69, 0
4, 25546, Note_on_c, 0, 73, 0
4, 25548, Note_on_c, 0, 76, 0
4, 25651, Note_on_c, 0, 73, 114
4, 25653, Note_on_c, 0, 69, 114
4, 25654, Note_on_c, 0, 64, 114
4, 25671, Note_on_c, 0, 73, 0
4, 25674, Note_on_c, 0, 69, 0
4, 25676, Note_on_c, 0, 64, 0
4, 25718, Note_on_c, 0, 64, 115
4, 25720, Note_on_c, 0, 73, 115
4, 25722, Note_on_c, 0, 69, 115
4, 25972, Note_on_c, 0, 73, 0
4, 25974, Note_on_c, 0, 69, 0
4, 25976, Note_on_c, 0, 64, 0
4, 26046, Control_c, 0, 64, 0
4, 26106, Note_on_c, 0, 61, 100
4, 26108, Note_on_c, 0, 69, 127
4, 26109, Note_on_c, 0, 50, 127
4, 26112, Note_on_c, 0, 66, 110
4, 26234, Control_c, 0, 64, 127
4, 26443, Note_on_c, 0, 78, 101
4, 26445, Note_on_c, 0, 73, 101
4, 26447, Note_on_c, 0, 81, 101
4, 26463, Note_on_c, 0, 78, 0
4, 26465, Note_on_c, 0, 73, 0
4, 26467, Note_on_c, 0, 81, 0
4, 26503, Note_on_c, 0, 81, 102
4, 26505, Note_on_c, 0, 73, 102
4, 26507, Note_on_c, 0, 78, 102
4, 26712, Note_on_c, 0, 73, 0
4, 26715, Note_on_c, 0, 78, 0
4, 26716, Note_on_c, 0, 81, 0
4, 26795, Note_on_c, 0, 73, 104
4, 26800, Note_on_c, 0, 78, 104
4, 26814, Note_on_c, 0, 73, 0
4, 26815, Note_on_c, 0, 78, 0
4, 26869, Note_on_c, 0, 78, 105
4, 26871, Note_on_c, 0, 73, 105
4, 26873, Note_on_c, 0, 69, 105
4, 27072, Note_on_c, 0, 73, 0
4, 27078, Note_on_c, 0, 78, 0
4, 27082, Note_on_c, 0, 69, 0
4, 27126, Note_on_c, 0, 66, 0
4, 27126, Note_on_c, 0, 61, 0
4, 27126, Note_on_c, 0, 69, 0
4, 27188, Note_on_c, 0, 73, 107
4, 27191, Note_on_c, 0, 69, 107
4, 27193, Note_on_c, 0, 66, 107
4, 27205, Note_on_c, 0, 73, 0
4, 27207, Note_on_c, 0, 69, 0
4, 27208, Note_on_c, 0, 66, 0
4, 27256, Note_on_c, 0, 66, 108
4, 27258, Note_on_c, 0, 73, 108
4, 27260, Note_on_c, 0, 69, 108
4, 27484, Note_on_c, 0, 50, 0
4, 27513, Note_on_c, 0, 69, 0
4, 27515, Note_on_c, 0, 73, 0
4, 27516, Note_on_c, 0, 66, 0
4, 27555, Control_c, 0, 64, 0
4, 27648, Note_on_c, 0, 59, 127
4, 27648, Note_on_c, 0, 54, 110
4, 27648, Note_on_c, 0, 62, 127
4, 27648, Note_on_c, 0, 66, 127
4, 27796, Control_c, 0, 64, 127
4, 28546, Note_on_c, 0, 59, 0
4, 28608, Note_on_c, 0, 59, 104
4, 28727, Note_on_c, 0, 59, 0
4, 28734, Note_on_c, 0, 66, 0
4, 28737, Note_on_c, 0, 62, 0
4, 28800, Note_on_c, 0, 59, 127
4, 28800, Note_on_c, 0, 62, 127
4, 28800, Note_on_c, 0, 66, 127
4, 28938, Note_on_c, 0, 54, 0
4, 28992, Note_on_c, 0, 54, 110
4, 29118, Note_on_c, 0, 59, 0
4, 29120, Note_on_c, 0, 54, 0
4, 29123, Note_on_c, 0, 62, 0
4, 29125, Note_on_c, 0, 66, 0
4, 29144, Control_c, 0, 64, 0
4, 29184, Note_on_c, 0, 62, 127
4, 29184, Note_on_c, 0, 49, 127
4, 29184, Note_on_c, 0, 59, 127
4, 29184, Note_on_c, 0, 56, 127
4, 29184, Note_on_c, 0, 65, 127
4, 29305, Control_c, 0, 64, 127
4, 29892, Note_on_c, 0, 56, 0
4, 29952, Note_on_c, 0, 56, 70
4, 30052, Note_on_c, 0, 65, 0
4, 30058, Note_on_c, 0, 62, 0
4, 30078, Note_on_c, 0, 59, 0
4, 30094, Note_on_c, 0, 56, 0
4, 30144, Note_on_c, 0, 62, 108
4, 30144, Note_on_c, 0, 59, 108
4, 30144, Note_on_c, 0, 56, 100
4, 30144, Note_on_c, 0, 65, 108
4, 30264, Note_on_c, 0, 49, 0
4, 30336, Note_on_c, 0, 49, 95
4, 30369, Note_on_c, 0, 62, 0
4, 30372, Note_on_c, 0, 56, 0
4, 30378, Note_on_c, 0, 59, 0
4, 30379, Note_on_c, 0, 65, 0
4, 30432, Note_on_c, 0, 62, 101
4, 30432, Note_on_c, 0, 59, 117
4, 30432, Note_on_c, 0, 56, 100
4, 30432, Note_on_c, 0, 65, 122
4, 30620, Note_on_c, 0, 49, 0
4, 30626, Control_c, 0, 64, 0
4, 30649, Note_on_c, 0, 56, 0
4, 30649, Note_on_c, 0, 62, 0
4, 30649, Note_on_c, 0, 65, 0
4, 30656, Note_on_c, 0, 59, 0
4, 30720, Note_on_c, 0, 66, 127
4, 30720, Note_on_c, 0, 54, 127
4, 30720, Note_on_c, 0, 61, 127
4, 30720, Note_on_c, 0, 59, 127
4, 30878, Control_c, 0, 64, 127
4, 31037, Note_on_c, 0, 78, 85
4, 31038, Note_on_c, 0, 83, 85
4, 31040, Note_on_c, 0, 73, 85
4, 31058, Note_on_c, 0, 78, 0
4, 31060, Note_on_c, 0, 73, 0
4, 31066, Note_on_c, 0, 83, 0
4, 31092, Note_on_c, 0, 83, 87
4, 31097, Note_on_c, 0, 73, 88
4, 31098, Note_on_c, 0, 78, 88
4, 31334, Note_on_c, 0, 78, 0
4, 31335, Note_on_c, 0, 73, 0
4, 31337, Note_on_c, 0, 83, 0
4, 31404, Note_on_c, 0, 73, 99
4, 31406, Note_on_c, 0, 78, 99
4, 31408, Note_on_c, 0, 71, 99
4, 31422, Note_on_c, 0, 78, 0
4, 31425, Note_on_c, 0, 71, 0
4, 31426, Note_on_c, 0, 73, 0
4, 31477, Note_on_c, 0, 73, 101
4, 31479, Note_on_c, 0, 71, 101
4, 31480, Note_on_c, 0, 78, 101
4, 31811, Note_on_c, 0, 78, 0
4, 31812, Note_on_c, 0, 71, 0
4, 31814, Note_on_c, 0, 73, 0
4, 31824, Note_on_c, 0, 61, 0
4, 31832, Note_on_c, 0, 66, 0
4, 31835, Note_on_c, 0, 59, 0
4, 31862, Note_on_c, 0, 61, 115
4, 31864, Note_on_c, 0, 73, 115
4, 31864, Note_on_c, 0, 66, 115
4, 31865, Note_on_c, 0, 78, 116
4, 31866, Note_on_c, 0, 71, 116
4, 31866, Note_on_c, 0, 59, 116
4, 32006, Note_on_c, 0, 54, 0
4, 32046, Control_c, 0, 64, 0
4, 32071, Note_on_c, 0, 54, 123
4, 32161, Note_on_c, 0, 71, 0
4, 32168, Note_on_c, 0, 78, 0
4, 32172, Note_on_c, 0, 73, 0
4, 32179, Note_on_c, 0, 59, 0
4, 32190, Note_on_c, 0, 54, 0
4, 32195, Note_on_c, 0, 66, 0
4, 32197, Note_on_c, 0, 61, 0
4, 32242, Note_on_c, 0, 73, 110
4, 32243, Note_on_c, 0, 78, 127
4, 32245, Note_on_c, 0, 70, 110
4, 32254, Note_on_c, 0, 66, 104
4, 32256, Note_on_c, 0, 61, 104
4, 32258, Note_on_c, 0, 54, 95
4, 32259, Note_on_c, 0, 58, 104
4, 32299, Note_on_c, 0, 70, 0
4, 32347, Note_on_c, 0, 73, 0
4, 32358, Note_on_c, 0, 78, 0
4, 32402, Note_on_c, 0, 66, 0
4, 32403, Note_on_c, 0, 54, 0
4, 32405, Note_on_c, 0, 61, 0
4, 32412, Note_on_c, 0, 58, 0
4, 32640, Note_on_c, 0, 58, 74
4, 32640, Note_on_c, 0, 54, 74
4, 32640, Note_on_c, 0, 61, 74
4, 32832, Note_on_c, 0, 54, 0
4, 32832, Note_on_c, 0, 54, 60
4, 33024, Note_on_c, 0, 61, 0
4, 33024, Note_on_c, 0, 58, 0
4, 33024, Note_on_c, 0, 59, 84
4, 33024, Note_on_c, 0, 62, 84
4, 33216, Note_on_c, 0, 54, 0
4, 33216, Note_on_c, 0, 54, 60
4, 33408, Note_on_c, 0, 62, 0
4, 33408, Note_on_c, 0, 59, 0
4, 33408, Note_on_c, 0, 61, 84
4, 33408, Note_on_c, 0, 64, 84
4, 33600, Note_on_c, 0, 54, 0
4, 33600, Note_on_c, 0, 54, 60
4, 33792, Note_on_c, 0, 54, 0
4, 33792, Note_on_c, 0, 64, 0
4, 33792, Note_on_c, 0, 61, 0
4, 33796, Note_on_c, 0, 57, 75
4, 33797, Note_on_c, 0, 66, 71
4, 33799, Note_on_c, 0, 62, 101
4, 34987, Note_on_c, 0, 66, 0
4, 34992, Note_on_c, 0, 57, 0
4, 34994, Note_on_c, 0, 62, 0
4, 35143, Note_on_c, 0, 69, 94
4, 35144, Note_on_c, 0, 57, 88
4, 35313, Note_on_c, 0, 57, 0
4, 35332, Note_on_c, 0, 74, 113
4, 35333, Note_on_c, 0, 62, 113
4, 36042, Control_c, 0, 64, 127
4, 36416, Note_on_c, 0, 69, 0
4, 36487, Note_on_c, 0, 69, 83
4, 36494, Note_on_c, 0, 62, 0
4, 36674, Note_on_c, 0, 62, 83
4, 36759, Note_on_c, 0, 74, 0
4, 36764, Note_on_c, 0, 69, 0
4, 36787, Note_on_c, 0, 62, 0
4, 36857, Note_on_c, 0, 69, 91
4, 36858, Note_on_c, 0, 76, 108
4, 36860, Note_on_c, 0, 61, 68
4, 36894, Control_c, 0, 64, 0
4, 37083, Control_c, 0, 64, 127
4, 37311, Note_on_c, 0, 69, 0
4, 37430, Note_on_c, 0, 73, 73
4, 37730, Note_on_c, 0, 61, 0
4, 37822, Note_on_c, 0, 69, 73
4, 38014, Note_on_c, 0, 61, 73
4, 38046, Note_on_c, 0, 76, 0
4, 38048, Note_on_c, 0, 69, 0
4, 38148, Note_on_c, 0, 73, 0
4, 38213, Note_on_c, 0, 61, 0
4, 38398, Note_on_c, 0, 66, 63
4, 38399, Note_on_c, 0, 71, 94
4, 38401, Control_c, 0, 64, 0
4, 38402, Note_on_c, 0, 74, 91
4, 38403, Note_on_c, 0, 59, 75
4, 38697, Control_c, 0, 64, 127
4, 38890, Note_on_c, 0, 59, 0
4, 38968, Note_on_c, 0, 59, 67
4, 39021, Note_on_c, 0, 66, 0
4, 39167, Note_on_c, 0, 66, 76
4, 39194, Note_on_c, 0, 74, 0
4, 39363, Note_on_c, 0, 74, 94
4, 39457, Note_on_c, 0, 71, 0
4, 39552, Note_on_c, 0, 71, 101
4, 39589, Note_on_c, 0, 66, 0
4, 39636, Note_on_c, 0, 59, 0
4, 39745, Note_on_c, 0, 66, 80
4, 39801, Note_on_c, 0, 71, 0
4, 39819, Note_on_c, 0, 74, 0
4, 39939, Note_on_c, 0, 69, 97
4, 39941, Note_on_c, 0, 54, 63
4, 39941, Note_on_c, 0, 73, 76
4, 39953, Control_c, 0, 64, 0
4, 40178, Control_c, 0, 64, 127
4, 40366, Note_on_c, 0, 54, 0
4, 40507, Note_on_c, 0, 54, 57
4, 40576, Note_on_c, 0, 66, 0
4, 40706, Note_on_c, 0, 66, 53
4, 40719, Note_on_c, 0, 69, 0
4, 40814, Note_on_c, 0, 73, 0
4, 40893, Note_on_c, 0, 69, 86
4, 41079, Note_on_c, 0, 54, 0
4, 41082, Note_on_c, 0, 73, 100
4, 41138, Note_on_c, 0, 66, 0
4, 41260, Note_on_c, 0, 69, 0
4, 41277, Note_on_c, 0, 54, 55
4, 41279, Note_on_c, 0, 66, 76
4, 41356, Note_on_c, 0, 73, 0
4, 41368, Note_on_c, 0, 66, 0
4, 41409, Note_on_c, 0, 54, 0
4, 41456, Control_c, 0, 64, 0
4, 41465, Note_on_c, 0, 59, 79
4, 41468, Note_on_c, 0, 66, 59
4, 41469, Note_on_c, 0, 71, 94
4, 41610, Control_c, 0, 64, 127
4, 41785, Note_on_c, 0, 71, 0
4, 41787, Note_on_c, 0, 66, 0
4, 41857, Note_on_c, 0, 71, 104
4, 41859, Note_on_c, 0, 66, 65
4, 42109, Note_on_c, 0, 66, 0
4, 42122, Note_on_c, 0, 71, 0
4, 42230, Note_on_c, 0, 73, 95
4, 42231, Note_on_c, 0, 66, 95
4, 42232, Note_on_c, 0, 71, 108
4, 42362, Note_on_c, 0, 73, 0
4, 42367, Note_on_c, 0, 71, 0
4, 42435, Note_on_c, 0, 66, 0
4, 42629, Note_on_c, 0, 78, 95
4, 42673, Note_on_c, 0, 59, 0
4, 42716, Note_on_c, 0, 78, 0
4, 43007, Note_on_c, 0, 66, 65
4, 43009, Note_on_c, 0, 59, 79
4, 43010, Note_on_c, 0, 71, 104
4, 43018, Control_c, 0, 64, 0
4, 43144, Control_c, 0, 64, 127
4, 43381, Note_on_c, 0, 78, 87
4, 43402, Note_on_c, 0, 71, 0
4, 43436, Note_on_c, 0, 66, 0
4, 43595, Note_on_c, 0, 78, 0
4, 43772, Note_on_c, 0, 71, 108
4, 43773, Note_on_c, 0, 66, 76
4, 44049, Note_on_c, 0, 59, 0
4, 44050, Note_on_c, 0, 66, 0
4, 44055, Note_on_c, 0, 71, 0
4, 44155, Note_on_c, 0, 78, 91
4, 44263, Note_on_c, 0, 78, 0
4, 44361, Note_on_c, 0, 59, 47
4, 44452, Note_on_c, 0, 59, 0
4, 44542, Note_on_c, 0, 66, 95
4, 44543, Note_on_c, 0, 74, 117
4, 44544, Note_on_c, 0, 78, 87
4, 44545, Note_on_c, 0, 55, 86
4, 44580, Control_c, 0, 64, 0
4, 44732, Control_c, 0, 64, 127
4, 45202, Note_on_c, 0, 66, 0
4, 45219, Note_on_c, 0, 74, 0
4, 45275, Note_on_c, 0, 78, 0
4, 45502, Note_on_c, 0, 71, 88
4, 45699, Note_on_c, 0, 66, 91
4, 45722, Note_on_c, 0, 55, 0
4, 45843, Note_on_c, 0, 71, 0
4, 45860, Note_on_c, 0, 66, 0
4, 45887, Note_on_c, 0, 55, 91
4, 46036, Note_on_c, 0, 55, 0
4, 46075, Note_on_c, 0, 69, 104
4, 46076, Note_on_c, 0, 64, 94
4, 46079, Note_on_c, 0, 76, 104
4, 46080, Note_on_c, 0, 54, 87
4, 46086, Control_c, 0, 64, 0
4, 46265, Control_c, 0, 64, 127
4, 46501, Note_on_c, 0, 64, 0
4, 46653, Note_on_c, 0, 64, 75
4, 46677, Note_on_c, 0, 76, 0
4, 46850, Note_on_c, 0, 76, 113
4, 46914, Note_on_c, 0, 69, 0
4, 47035, Note_on_c, 0, 69, 79
4, 47105, Note_on_c, 0, 64, 0
4, 47211, Note_on_c, 0, 54, 0
4, 47233, Note_on_c, 0, 64, 101
4, 47371, Note_on_c, 0, 76, 0
4, 47399, Note_on_c, 0, 69, 0
4, 47408, Note_on_c, 0, 64, 0
4, 47415, Note_on_c, 0, 54, 76
4, 47555, Note_on_c, 0, 54, 0
4, 47619, Note_on_c, 0, 52, 86
4, 47620, Note_on_c, 0, 67, 108
4, 47622, Note_on_c, 0, 62, 104
4, 47622, Note_on_c, 0, 74, 101
4, 47625, Control_c, 0, 64, 0
4, 47859, Control_c, 0, 64, 127
4, 48130, Note_on_c, 0, 52, 0
4, 48184, Note_on_c, 0, 52, 81
4, 48214, Note_on_c, 0, 62, 0
4, 48379, Note_on_c, 0, 62, 94
4, 48404, Note_on_c, 0, 67, 0
4, 48495, Note_on_c, 0, 74, 0
4, 48572, Note_on_c, 0, 67, 91
4, 48762, Note_on_c, 0, 74, 113
4, 48771, Note_on_c, 0, 52, 0
4, 48869, Note_on_c, 0, 67, 0
4, 48887, Note_on_c, 0, 62, 0
4, 48918, Note_on_c, 0, 74, 0
4, 48955, Note_on_c, 0, 52, 83
4, 49094, Note_on_c, 0, 52, 0
4, 49152, Note_on_c, 0, 54, 123
4, 49152, Note_on_c, 0, 42, 123
4, 49174, Control_c, 0, 64, 0
4, 49326, Control_c, 0, 64, 127
4, 49536, Note_on_c, 0, 71, 117
4, 49536, Note_on_c, 0, 78, 91
4, 49536, Note_on_c, 0, 73, 91
4, 49536, Note_on_c, 0, 66, 80
4, 50051, Note_on_c, 0, 73, 0
4, 50062, Note_on_c, 0, 66, 0
4, 50063, Note_on_c, 0, 71, 0
4, 50109, Note_on_c, 0, 78, 0
4, 50112, Note_on_c, 0, 78, 41
4, 50112, Note_on_c, 0, 66, 53
4, 50112, Note_on_c, 0, 73, 83
4, 50112, Note_on_c, 0, 71, 108
4, 50207, Note_on_c, 0, 73, 0
4, 50214, Note_on_c, 0, 71, 0
4, 50215, Note_on_c, 0, 66, 0
4, 50226, Note_on_c, 0, 78, 0
4, 50304, Note_on_c, 0, 71, 108
4, 50304, Note_on_c, 0, 66, 61
4, 50304, Note_on_c, 0, 73, 83
4, 50304, Note_on_c, 0, 78, 71
4, 50426, Note_on_c, 0, 66, 0
4, 50439, Note_on_c, 0, 71, 0
4, 50449, Note_on_c, 0, 73, 0
4, 50455, Note_on_c, 0, 78, 0
4, 50496, Note_on_c, 0, 78, 80
4, 50496, Note_on_c, 0, 71, 113
4, 50496, Note_on_c, 0, 66, 80
4, 50496, Note_on_c, 0, 73, 91
4, 50622, Note_on_c, 0, 66, 0
4, 50622, Note_on_c, 0, 42, 0
4, 50623, Note_on_c, 0, 73, 0
4, 50627, Note_on_c, 0, 71, 0
4, 50633, Note_on_c, 0, 78, 0
4, 50640, Note_on_c, 0, 54, 0
4, 50688, Note_on_c, 0, 73, 100
4, 50688, Note_on_c, 0, 70, 104
4, 50688, Note_on_c, 0, 66, 100
4, 50688, Note_on_c, 0, 54, 91
4, 50698, Control_c, 0, 64, 0
4, 51032, Note_on_c, 0, 70, 0
4, 51038, Note_on_c, 0, 73, 0
4, 51038, Note_on_c, 0, 66, 0
4, 51072, Note_on_c, 0, 73, 110
4, 51072, Note_on_c, 0, 70, 100
4, 51072, Note_on_c, 0, 66, 91
4, 51345, Note_on_c, 0, 70, 0
4, 51375, Note_on_c, 0, 66, 0
4, 51383, Note_on_c, 0, 73, 0
4, 51456, Note_on_c, 0, 73, 104
4, 51456, Note_on_c, 0, 66, 95
4, 51456, Note_on_c, 0, 71, 117
4, 51780, Note_on_c, 0, 71, 0
4, 51791, Note_on_c, 0, 66, 0
4, 51799, Note_on_c, 0, 73, 0
4, 51840, Note_on_c, 0, 73, 127
4, 51840, Note_on_c, 0, 70, 104
4, 51840, Note_on_c, 0, 66, 91
4, 52092, Note_on_c, 0, 70, 0
4, 52092, Note_on_c, 0, 54, 0
4, 52094, Note_on_c, 0, 66, 0
4, 52095, Note_on_c, 0, 73, 0
4, 52224, Note_on_c, 0, 62, 127
4, 52224, Note_on_c, 0, 66, 127
4, 52224, Note_on_c, 0, 59, 127
4, 52224, Note_on_c, 0, 47, 127
4, 52473, Control_c, 0, 64, 127
4, 52545, Note_on_c, 0, 86, 82
4, 52547, Note_on_c, 0, 83, 82
4, 52549, Note_on_c, 0, 78, 82
4, 52570, Note_on_c, 0, 78, 0
4, 52575, Note_on_c, 0, 83, 0
4, 52577, Note_on_c, 0, 86, 0
4, 52603, Note_on_c, 0, 86, 83
4, 52605, Note_on_c, 0, 83, 83
4, 52607, Note_on_c, 0, 78, 83
4, 52883, Note_on_c, 0, 78, 0
4, 52915, Note_on_c, 0, 78, 87
4, 52917, Note_on_c, 0, 74, 87
4, 52919, Note_on_c, 0, 71, 87
4, 52936, Note_on_c, 0, 74, 0
4, 52938, Note_on_c, 0, 71, 0
4, 52939, Note_on_c, 0, 78, 0
4, 52981, Note_on_c, 0, 78, 88
4, 52984, Note_on_c, 0, 74, 88
4, 52985, Note_on_c, 0, 71, 88
4, 53280, Note_on_c, 0, 66, 0
4, 53291, Note_on_c, 0, 71, 0
4, 53309, Note_on_c, 0, 66, 92
4, 53311, Note_on_c, 0, 71, 92
4, 53313, Note_on_c, 0, 74, 92
4, 53314, Note_on_c, 0, 74, 0
4, 53333, Note_on_c, 0, 66, 0
4, 53336, Note_on_c, 0, 71, 0
4, 53337, Note_on_c, 0, 74, 0
4, 53366, Note_on_c, 0, 74, 93
4, 53370, Note_on_c, 0, 71, 93
4, 53372, Note_on_c, 0, 66, 93
4, 53677, Control_c, 0, 64, 0
4, 53742, Note_on_c, 0, 71, 0
4, 53749, Note_on_c, 0, 78, 0
4, 53756, Note_on_c, 0, 74, 0
4, 53760, Note_on_c, 0, 67, 127
4, 53760, Note_on_c, 0, 64, 127
4, 53760, Note_on_c, 0, 52, 127
4, 53760, Note_on_c, 0, 59, 127
4, 53762, Note_on_c, 0, 47, 0
4, 53765, Note_on_c, 0, 59, 0
4, 53766, Note_on_c, 0, 62, 0
4, 53768, Note_on_c, 0, 66, 0
4, 53772, Note_on_c, 0, 83, 0
4, 53778, Note_on_c, 0, 86, 0
4, 53964, Control_c, 0, 64, 127
4, 54093, Note_on_c, 0, 83, 99
4, 54095, Note_on_c, 0, 79, 99
4, 54096, Note_on_c, 0, 74, 99
4, 54118, Note_on_c, 0, 79, 0
4, 54120, Note_on_c, 0, 74, 0
4, 54121, Note_on_c, 0, 83, 0
4, 54145, Note_on_c, 0, 83, 99
4, 54148, Note_on_c, 0, 79, 99
4, 54149, Note_on_c, 0, 74, 99
4, 54378, Note_on_c, 0, 83, 0
4, 54381, Note_on_c, 0, 79, 0
4, 54385, Note_on_c, 0, 74, 0
4, 54479, Note_on_c, 0, 76, 99
4, 54481, Note_on_c, 0, 71, 99
4, 54502, Note_on_c, 0, 71, 0
4, 54503, Note_on_c, 0, 76, 0
4, 54534, Note_on_c, 0, 79, 99
4, 54535, Note_on_c, 0, 76, 99
4, 54537, Note_on_c, 0, 71, 99
4, 54792, Note_on_c, 0, 67, 0
4, 54805, Note_on_c, 0, 79, 0
4, 54806, Note_on_c, 0, 76, 0
4, 54807, Note_on_c, 0, 71, 0
4, 54853, Note_on_c, 0, 71, 99
4, 54855, Note_on_c, 0, 67, 99
4, 54857, Note_on_c, 0, 76, 99
4, 54881, Note_on_c, 0, 76, 0
4, 54882, Note_on_c, 0, 67, 0
4, 54884, Note_on_c, 0, 71, 0
4, 54910, Note_on_c, 0, 76, 99
4, 54914, Note_on_c, 0, 71, 99
4, 54916, Note_on_c, 0, 67, 99
4, 55167, Note_on_c, 0, 52, 0
4, 55172, Note_on_c, 0, 59, 0
4, 55177, Control_c, 0, 64, 0
4, 55178, Note_on_c, 0, 64, 0
4, 55236, Note_on_c, 0, 76, 0
4, 55241, Note_on_c, 0, 71, 0
4, 55243, Note_on_c, 0, 67, 0
4, 55296, Note_on_c, 0, 57, 127
4, 55296, Note_on_c, 0, 61, 110
4, 55296, Note_on_c, 0, 69, 127
4, 55296, Note_on_c, 0, 64, 127
4, 55445, Control_c, 0, 64, 127
4, 55501, Note_on_c, 0, 61, 0
4, 55504, Note_on_c, 0, 64, 0
4, 55519, Note_on_c, 0, 69, 0
4, 55528, Note_on_c, 0, 57, 0
4, 55617, Note_on_c, 0, 76, 102
4, 55620, Note_on_c, 0, 81, 102
4, 55634, Note_on_c, 0, 81, 0
4, 55637, Note_on_c, 0, 76, 0
4, 55671, Note_on_c, 0, 81, 103
4, 55674, Note_on_c, 0, 76, 103
4, 55678, Note_on_c, 0, 73, 103
4, 55908, Note_on_c, 0, 76, 0
4, 55909, Note_on_c, 0, 81, 0
4, 55912, Note_on_c, 0, 73, 0
4, 55979, Note_on_c, 0, 73, 108
4, 55983, Note_on_c, 0, 76, 108
4, 55984, Note_on_c, 0, 69, 108
4, 56003, Note_on_c, 0, 73, 0
4, 56011, Note_on_c, 0, 76, 0
4, 56012, Note_on_c, 0, 69, 0
4, 56052, Note_on_c, 0, 76, 109
4, 56054, Note_on_c, 0, 69, 109
4, 56056, Note_on_c, 0, 73, 109
4, 56262, Note_on_c, 0, 69, 0
4, 56266, Note_on_c, 0, 73, 0
4, 56268, Note_on_c, 0, 76, 0
4, 56371, Note_on_c, 0, 73, 114
4, 56373, Note_on_c, 0, 69, 114
4, 56374, Note_on_c, 0, 64, 114
4, 56391, Note_on_c, 0, 73, 0
4, 56394, Note_on_c, 0, 69, 0
4, 56396, Note_on_c, 0, 64, 0
4, 56438, Note_on_c, 0, 64, 115
4, 56440, Note_on_c, 0, 73, 115
4, 56442, Note_on_c, 0, 69, 115
4, 56692, Note_on_c, 0, 73, 0
4, 56694, Note_on_c, 0, 69, 0
4, 56696, Note_on_c, 0, 64, 0
4, 56766, Control_c, 0, 64, 0
4, 56826, Note_on_c, 0, 61, 100
4, 56828, Note_on_c, 0, 69, 127
4, 56829, Note_on_c, 0, 50, 127
4, 56832, Note_on_c, 0, 66, 110
4, 56954, Control_c, 0, 64, 127
4, 57163, Note_on_c, 0, 78, 101
4, 57165, Note_on_c, 0, 73, 101
4, 57167, Note_on_c, 0, 81, 101
4, 57183, Note_on_c, 0, 78, 0
4, 57185, Note_on_c, 0, 73, 0
4, 57187, Note_on_c, 0, 81, 0
4, 57223, Note_on_c, 0, 81, 102
4, 57225, Note_on_c, 0, 73, 102
4, 57227, Note_on_c, 0, 78, 102
4, 57432, Note_on_c, 0, 73, 0
4, 57435, Note_on_c, 0, 78, 0
4, 57436, Note_on_c, 0, 81, 0
4, 57515, Note_on_c, 0, 73, 104
4, 57520, Note_on_c, 0, 78, 104
4, 57534, Note_on_c, 0, 73, 0
4, 57535, Note_on_c, 0, 78, 0
4, 57589, Note_on_c, 0, 78, 105
4, 57591, Note_on_c, 0, 73, 105
4, 57593, Note_on_c, 0, 69, 105
4, 57792, Note_on_c, 0, 73, 0
4, 57798, Note_on_c, 0, 78, 0
4, 57802, Note_on_c, 0, 69, 0
4, 57846, Note_on_c, 0, 66, 0
4, 57846, Note_on_c, 0, 61, 0
4, 57846, Note_on_c, 0, 69, 0
4, 57908, Note_on_c, 0, 73, 107
4, 57911, Note_on_c, 0, 69, 107
4, 57913, Note_on_c, 0, 66, 107
4, 57925, Note_on_c, 0, 73, 0
4, 57927, Note_on_c, 0, 69, 0
4, 57928, Note_on_c, 0, 66, 0
4, 57976, Note_on_c, 0, 66, 108
4, 57978, Note_on_c, 0, 73, 108
4, 57980, Note_on_c, 0, 69, 108
4, 58204, Note_on_c, 0, 50, 0
4, 58233, Note_on_c, 0, 69, 0
4, 58235, Note_on_c, 0, 73, 0
4, 58236, Note_on_c, 0, 66, 0
4, 58275, Control_c, 0, 64, 0
4, 58368, Note_on_c, 0, 59, 127
4, 58368, Note_on_c, 0, 62, 127
4, 58368, Note_on_c, 0, 54, 110
4, 58368, Note_on_c, 0, 66, 127
4, 58516, Control_c, 0, 64, 127
4, 59266, Note_on_c, 0, 59, 0
4, 59328, Note_on_c, 0, 59, 104
4, 59447, Note_on_c, 0, 59, 0
4, 59454, Note_on_c, 0, 66, 0
4, 59457, Note_on_c, 0, 62, 0
4, 59520, Note_on_c, 0, 59, 127
4, 59520, Note_on_c, 0, 62, 127
4, 59520, Note_on_c, 0, 66, 127
4, 59658, Note_on_c, 0, 54, 0
4, 59712, Note_on_c, 0, 54, 110
4, 59838, Note_on_c, 0, 59, 0
4, 59840, Note_on_c, 0, 54, 0
4, 59843, Note_on_c, 0, 62, 0
4, 59845, Note_on_c, 0, 66, 0
4, 59864, Control_c, 0, 64, 0
4, 59904, Note_on_c, 0, 59, 127
4, 59904, Note_on_c, 0, 65, 127
4, 59904, Note_on_c, 0, 49, 127
4, 59904, Note_on_c, 0, 62, 127
4, 59904, Note_on_c, 0, 56, 127
4, 60025, Control_c, 0, 64, 127
4, 60612, Note_on_c, 0, 56, 0
4, 60672, Note_on_c, 0, 56, 70
4, 60772, Note_on_c, 0, 65, 0
4, 60778, Note_on_c, 0, 62, 0
4, 60798, Note_on_c, 0, 59, 0
4, 60814, Note_on_c, 0, 56, 0
4, 60864, Note_on_c, 0, 59, 108
4, 60864, Note_on_c, 0, 56, 100
4, 60864, Note_on_c, 0, 62, 108
4, 60864, Note_on_c, 0, 65, 108
4, 60984, Note_on_c, 0, 49, 0
4, 61056, Note_on_c, 0, 49, 95
4, 61089, Note_on_c, 0, 62, 0
4, 61092, Note_on_c, 0, 56, 0
4, 61098, Note_on_c, 0, 59, 0
4, 61099, Note_on_c, 0, 65, 0
4, 61152, Note_on_c, 0, 56, 100
4, 61152, Note_on_c, 0, 65, 122
4, 61152, Note_on_c, 0, 59, 117
4, 61152, Note_on_c, 0, 62, 101
4, 61340, Note_on_c, 0, 49, 0
4, 61346, Control_c, 0, 64, 0
4, 61369, Note_on_c, 0, 56, 0
4, 61369, Note_on_c, 0, 62, 0
4, 61369, Note_on_c, 0, 65, 0
4, 61376, Note_on_c, 0, 59, 0
4, 61440, Note_on_c, 0, 66, 127
4, 61440, Note_on_c, 0, 59, 127
4, 61440, Note_on_c, 0, 54, 127
4, 61440, Note_on_c, 0, 61, 127
4, 61598, Control_c, 0, 64, 127
4, 61757, Note_on_c, 0, 78, 85
4, 61758, Note_on_c, 0, 83, 85
4, 61760, Note_on_c, 0, 73, 85
4, 61778, Note_on_c, 0, 78, 0
4, 61780, Note_on_c, 0, 73, 0
4, 61786, Note_on_c, 0, 83, 0
4, 61812, Note_on_c, 0, 83, 87
4, 61817, Note_on_c, 0, 73, 88
4, 61818, Note_on_c, 0, 78, 88
4, 62054, Note_on_c, 0, 78, 0
4, 62055, Note_on_c, 0, 73, 0
4, 62057, Note_on_c, 0, 83, 0
4, 62124, Note_on_c, 0, 73, 99
4, 62126, Note_on_c, 0, 78, 99
4, 62128, Note_on_c, 0, 71, 99
4, 62142, Note_on_c, 0, 78, 0
4, 62145, Note_on_c, 0, 71, 0
4, 62146, Note_on_c, 0, 73, 0
4, 62197, Note_on_c, 0, 73, 101
4, 62199, Note_on_c, 0, 71, 101
4, 62200, Note_on_c, 0, 78, 101
4, 62531, Note_on_c, 0, 78, 0
4, 62532, Note_on_c, 0, 71, 0
4, 62534, Note_on_c, 0, 73, 0
4, 62544, Note_on_c, 0, 61, 0
4, 62552, Note_on_c, 0, 66, 0
4, 62555, Note_on_c, 0, 59, 0
4, 62582, Note_on_c, 0, 61, 115
4, 62584, Note_on_c, 0, 73, 115
4, 62584, Note_on_c, 0, 66, 115
4, 62585, Note_on_c, 0, 78, 116
4, 62586, Note_on_c, 0, 59, 116
4, 62586, Note_on_c, 0, 71, 116
4, 62726, Note_on_c, 0, 54, 0
4, 62766, Control_c, 0, 64, 0
4, 62791, Note_on_c, 0, 54, 123
4, 62881, Note_on_c, 0, 71, 0
4, 62888, Note_on_c, 0, 78, 0
4, 62892, Note_on_c, 0, 73, 0
4, 62899, Note_on_c, 0, 59, 0
4, 62910, Note_on_c, 0, 54, 0
4, 62915, Note_on_c, 0, 66, 0
4, 62917, Note_on_c, 0, 61, 0
4, 62962, Note_on_c, 0, 73, 110
4, 62963, Note_on_c, 0, 78, 127
4, 62965, Note_on_c, 0, 70, 110
4, 62974, Note_on_c, 0, 66, 104
4, 62976, Note_on_c, 0, 58, 74
4, 62976, Note_on_c, 0, 54, 74
4, 62976, Note_on_c, 0, 61, 74
4, 63078, Note_on_c, 0, 78, 0
4, 63168, Note_on_c, 0, 54, 0
4, 63168, Note_on_c, 0, 54, 60
4, 63320, Note_on_c, 0, 70, 0
4, 63326, Note_on_c, 0, 66, 0
4, 63326, Note_on_c, 0, 73, 0
4, 63360, Note_on_c, 0, 58, 0
4, 63360, Note_on_c, 0, 61, 0
4, 63360, Note_on_c, 0, 59, 84
4, 63360, Note_on_c, 0, 62, 84
4, 63552, Note_on_c, 0, 54, 0
4, 63552, Note_on_c, 0, 54, 60
4, 63744, Note_on_c, 0, 62, 0
4, 63744, Note_on_c, 0, 59, 0
4, 63744, Note_on_c, 0, 61, 84
4, 63744, Note_on_c, 0, 64, 84
4, 63936, Note_on_c, 0, 54, 0
4, 63936, Note_on_c, 0, 54, 60
4, 64128, Note_on_c, 0, 54, 0
4, 64128, Note_on_c, 0, 64, 0
4, 64128, Note_on_c, 0, 61, 0
4, 64132, Note_on_c, 0, 57, 75
4, 64133, Note_on_c, 0, 66, 71
4, 64135, Note_on_c, 0, 62, 101
4, 65323, Note_on_c, 0, 66, 0
4, 65328, Note_on_c, 0, 57, 0
4, 65330, Note_on_c, 0, 62, 0
4, 65479, Note_on_c, 0, 69, 94
4, 65480, Note_on_c, 0, 57, 88
4, 65649, Note_on_c, 0, 57, 0
4, 65668, Note_on_c, 0, 74, 113
4, 65669, Note_on_c, 0, 62, 113
4, 66378, Control_c, 0, 64, 127
4, 66752, Note_on_c, 0, 69, 0
4, 66823, Note_on_c, 0, 69, 83
4, 66830, Note_on_c, 0, 62, 0
4, 67010, Note_on_c, 0, 62, 83
4, 67095, Note_on_c, 0, 74, 0
4, 67100, Note_on_c, 0, 69, 0
4, 67123, Note_on_c, 0, 62, 0
4, 67193, Note_on_c, 0, 69, 91
4, 67194, Note_on_c, 0, 76, 108
4, 67196, Note_on_c, 0, 61, 68
4, 67230, Control_c, 0, 64, 0
4, 67419, Control_c, 0, 64, 127
4, 67647, Note_on_c, 0, 69, 0
4, 67766, Note_on_c, 0, 73, 73
4, 68066, Note_on_c, 0, 61, 0
4, 68158, Note_on_c, 0, 69, 73
4, 68350, Note_on_c, 0, 61, 73
4, 68382, Note_on_c, 0, 76, 0
4, 68384, Note_on_c, 0, 69, 0
4, 68484, Note_on_c, 0, 73, 0
4, 68549, Note_on_c, 0, 61, 0
4, 68734, Note_on_c, 0, 66, 63
4, 68735, Note_on_c, 0, 71, 94
4, 68737, Control_c, 0, 64, 0
4, 68738, Note_on_c, 0, 74, 91
4, 68739, Note_on_c, 0, 59, 75
4, 69033, Control_c, 0, 64, 127
4, 69226, Note_on_c, 0, 59, 0
4, 69304, Note_on_c, 0, 59, 67
4, 69357, Note_on_c, 0, 66, 0
4, 69503, Note_on_c, 0, 66, 76
4, 69530, Note_on_c, 0, 74, 0
4, 69699, Note_on_c, 0, 74, 94
4, 69793, Note_on_c, 0, 71, 0
4, 69888, Note_on_c, 0, 71, 101
4, 69925, Note_on_c, 0, 66, 0
4, 69972, Note_on_c, 0, 59, 0
4, 70081, Note_on_c, 0, 66, 80
4, 70137, Note_on_c, 0, 71, 0
4, 70155, Note_on_c, 0, 74, 0
4, 70275, Note_on_c, 0, 69, 97
4, 70277, Note_on_c, 0, 54, 63
4, 70277, Note_on_c, 0, 73, 76
4, 70289, Control_c, 0, 64, 0
4, 70514, Control_c, 0, 64, 127
4, 70702, Note_on_c, 0, 54, 0
4, 70843, Note_on_c, 0, 54, 57
4, 70912, Note_on_c, 0, 66, 0
4, 71042, Note_on_c, 0, 66, 53
4, 71055, Note_on_c, 0, 69, 0
4, 71150, Note_on_c, 0, 73, 0
4, 71229, Note_on_c, 0, 69, 86
4, 71415, Note_on_c, 0, 54, 0
4, 71418, Note_on_c, 0, 73, 100
4, 71474, Note_on_c, 0, 66, 0
4, 71596, Note_on_c, 0, 69, 0
4, 71613, Note_on_c, 0, 54, 55
4, 71615, Note_on_c, 0, 66, 76
4, 71692, Note_on_c, 0, 73, 0
4, 71704, Note_on_c, 0, 66, 0
4, 71745, Note_on_c, 0, 54, 0
4, 71792, Control_c, 0, 64, 0
4, 71801, Note_on_c, 0, 59, 79
4, 71804, Note_on_c, 0, 66, 59
4, 71805, Note_on_c, 0, 71, 94
4, 71946, Control_c, 0, 64, 127
4, 72121, Note_on_c, 0, 71, 0
4, 72123, Note_on_c, 0, 66, 0
4, 72193, Note_on_c, 0, 71, 104
4, 72195, Note_on_c, 0, 66, 65
4, 72445, Note_on_c, 0, 66, 0
4, 72458, Note_on_c, 0, 71, 0
4, 72566, Note_on_c, 0, 73, 95
4, 72567, Note_on_c, 0, 66, 95
4, 72568, Note_on_c, 0, 71, 108
4, 72698, Note_on_c, 0, 73, 0
4, 72703, Note_on_c, 0, 71, 0
4, 72771, Note_on_c, 0, 66, 0
4, 72965, Note_on_c, 0, 78, 95
4, 73009, Note_on_c, 0, 59, 0
4, 73052, Note_on_c, 0, 78, 0
4, 73343, Note_on_c, 0, 66, 65
4, 73345, Note_on_c, 0, 59, 79
4, 73346, Note_on_c, 0, 71, 104
4, 73354, Control_c, 0, 64, 0
4, 73480, Control_c, 0, 64, 127
4, 73717, Note_on_c, 0, 78, 87
4, 73738, Note_on_c, 0, 71, 0
4, 73772, Note_on_c, 0, 66, 0
4, 73931, Note_on_c, 0, 78, 0
4, 74108, Note_on_c, 0, 71, 108
4, 74109, Note_on_c, 0, 66, 76
4, 74385, Note_on_c, 0, 59, 0
4, 74386, Note_on_c, 0, 66, 0
4, 74391, Note_on_c, 0, 71, 0
4, 74491, Note_on_c, 0, 78, 91
4, 74599, Note_on_c, 0, 78, 0
4, 74697, Note_on_c, 0, 59, 47
4, 74788, Note_on_c, 0, 59, 0
4, 74878, Note_on_c, 0, 66, 95
4, 74879, Note_on_c, 0, 74, 117
4, 74880, Note_on_c, 0, 78, 87
4, 74881, Note_on_c, 0, 55, 86
4, 74916, Control_c, 0, 64, 0
4, 75068, Control_c, 0, 64, 127
4, 75538, Note_on_c, 0, 66, 0
4, 75555, Note_on_c, 0, 74, 0
4, 75611, Note_on_c, 0, 78, 0
4, 75838, Note_on_c, 0, 71, 88
4, 76035, Note_on_c, 0, 66, 91
4, 76058, Note_on_c, 0, 55, 0
4, 76179, Note_on_c, 0, 71, 0
4, 76196, Note_on_c, 0, 66, 0
4, 76223, Note_on_c, 0, 55, 91
4, 76372, Note_on_c, 0, 55, 0
4, 76411, Note_on_c, 0, 69, 104
4, 76412, Note_on_c, 0, 64, 94
4, 76415, Note_on_c, 0, 76, 104
4, 76416, Note_on_c, 0, 54, 87
4, 76422, Control_c, 0, 64, 0
4, 76601, Control_c, 0, 64, 127
4, 76837, Note_on_c, 0, 64, 0
4, 76989, Note_on_c, 0, 64, 75
4, 77013, Note_on_c, 0, 76, 0
4, 77186, Note_on_c, 0, 76, 113
4, 77250, Note_on_c, 0, 69, 0
4, 77371, Note_on_c, 0, 69, 79
4, 77441, Note_on_c, 0, 64, 0
4, 77547, Note_on_c, 0, 54, 0
4, 77569, Note_on_c, 0, 64, 101
4, 77707, Note_on_c, 0, 76, 0
4, 77735, Note_on_c, 0, 69, 0
4, 77744, Note_on_c, 0, 64, 0
4, 77751, Note_on_c, 0, 54, 76
4, 77891, Note_on_c, 0, 54, 0
4, 77955, Note_on_c, 0, 52, 86
4, 77956, Note_on_c, 0, 67, 108
4, 77958, Note_on_c, 0, 62, 104
4, 77958, Note_on_c, 0, 74, 101
4, 77961, Control_c, 0, 64, 0
4, 78195, Control_c, 0, 64, 127
4, 78466, Note_on_c, 0, 52, 0
4, 78520, Note_on_c, 0, 52, 81
4, 78550, Note_on_c, 0, 62, 0
4, 78715, Note_on_c, 0, 62, 94
4, 78740, Note_on_c, 0, 67, 0
4, 78831, Note_on_c, 0, 74, 0
4, 78908, Note_on_c, 0, 67, 91
4, 79098, Note_on_c, 0, 74, 113
4, 79107, Note_on_c, 0, 52, 0
4, 79205, Note_on_c, 0, 67, 0
4, 79223, Note_on_c, 0, 62, 0
4, 79254, Note_on_c, 0, 74, 0
4, 79291, Note_on_c, 0, 52, 83
4, 79430, Note_on_c, 0, 52, 0
4, 79488, Note_on_c, 0, 54, 123
4, 79488, Note_on_c, 0, 42, 123
4, 79510, Control_c, 0, 64, 0
4, 79662, Control_c, 0, 64, 127
4, 79872, Note_on_c, 0, 71, 117
4, 79872, Note_on_c, 0, 78, 91
4, 79872, Note_on_c, 0, 73, 91
4, 79872, Note_on_c, 0, 66, 80
4, 80387, Note_on_c, 0, 73, 0
4, 80398, Note_on_c, 0, 66, 0
4, 80399, Note_on_c, 0, 71, 0
4, 80445, Note_on_c, 0, 78, 0
4, 80448, Note_on_c, 0, 78, 41
4, 80448, Note_on_c, 0, 66, 53
4, 80448, Note_on_c, 0, 73, 83
4, 80448, Note_on_c, 0, 71, 108
4, 80543, Note_on_c, 0, 73, 0
4, 80550, Note_on_c, 0, 71, 0
4, 80551, Note_on_c, 0, 66, 0
4, 80562, Note_on_c, 0, 78, 0
4, 80640, Note_on_c, 0, 71, 108
4, 80640, Note_on_c, 0, 66, 61
4, 80640, Note_on_c, 0, 73, 83
4, 80640, Note_on_c, 0, 78, 71
4, 80762, Note_on_c, 0, 66, 0
4, 80775, Note_on_c, 0, 71, 0
4, 80785, Note_on_c, 0, 73, 0
4, 80791, Note_on_c, 0, 78, 0
4, 80832, Note_on_c, 0, 78, 80
4, 80832, Note_on_c, 0, 71, 113
4, 80832, Note_on_c, 0, 66, 80
4, 80832, Note_on_c, 0, 73, 91
4, 80958, Note_on_c, 0, 66, 0
4, 80958, Note_on_c, 0, 42, 0
4, 80959, Note_on_c, 0, 73, 0
4, 80963, Note_on_c, 0, 71, 0
4, 80969, Note_on_c, 0, 78, 0
4, 80976, Note_on_c, 0, 54, 0
4, 81024, Note_on_c, 0, 73, 100
4, 81024, Note_on_c, 0, 70, 104
4, 81024, Note_on_c, 0, 66, 100
4, 81024, Note_on_c, 0, 54, 91
4, 81034, Control_c, 0, 64, 0
4, 81368, Note_on_c, 0, 70, 0
4, 81374, Note_on_c, 0, 73, 0
4, 81374, Note_on_c, 0, 66, 0
4, 81408, Note_on_c, 0, 73, 110
4, 81408, Note_on_c, 0, 70, 100
4, 81408, Note_on_c, 0, 66, 91
4, 81681, Note_on_c, 0, 70, 0
4, 81711, Note_on_c, 0, 66, 0
4, 81719, Note_on_c, 0, 73, 0
4, 81792, Note_on_c, 0, 73, 104
4, 81792, Note_on_c, 0, 66, 95
4, 81792, Note_on_c, 0, 71, 117
4, 82116, Note_on_c, 0, 71, 0
4, 82127, Note_on_c, 0, 66, 0
4, 82135, Note_on_c, 0, 73, 0
4, 82176, Note_on_c, 0, 73, 127
4, 82176, Note_on_c, 0, 70, 104
4, 82176, Note_on_c, 0, 66, 91
4, 82428, Note_on_c, 0, 70, 0
4, 82428, Note_on_c, 0, 54, 0
4, 82430, Note_on_c, 0, 66, 0
4, 82431, Note_on_c, 0, 73, 0
4, 82560, Note_on_c, 0, 62, 127
4, 82560, Note_on_c, 0, 66, 127
4, 82560, Note_on_c, 0, 59, 127
4, 82560, Note_on_c, 0, 47, 127
4, 82809, Control_c, 0, 64, 127
4, 82881, Note_on_c, 0, 86, 82
4, 82883, Note_on_c, 0, 83, 82
4, 82885, Note_on_c, 0, 78, 82
4, 82906, Note_on_c, 0, 78, 0
4, 82911, Note_on_c, 0, 83, 0
4, 82913, Note_on_c, 0, 86, 0
4, 82939, Note_on_c, 0, 86, 83
4, 82941, Note_on_c, 0, 83, 83
4, 82943, Note_on_c, 0, 78, 83
4, 83219, Note_on_c, 0, 78, 0
4, 83251, Note_on_c, 0, 78, 87
4, 83253, Note_on_c, 0, 74, 87
4, 83255, Note_on_c, 0, 71, 87
4, 83272, Note_on_c, 0, 74, 0
4, 83274, Note_on_c, 0, 71, 0
4, 83275, Note_on_c, 0, 78, 0
4, 83317, Note_on_c, 0, 78, 88
4, 83320, Note_on_c, 0, 74, 88
4, 83321, Note_on_c, 0, 71, 88
4, 83616, Note_on_c, 0, 66, 0
4, 83627, Note_on_c, 0, 71, 0
4, 83645, Note_on_c, 0, 66, 92
4, 83647, Note_on_c, 0, 71, 92
4, 83649, Note_on_c, 0, 74, 92
4, 83650, Note_on_c, 0, 74, 0
4, 83669, Note_on_c, 0, 66, 0
4, 83672, Note_on_c, 0, 71, 0
4, 83673, Note_on_c, 0, 74, 0
4, 83702, Note_on_c, 0, 74, 93
4, 83706, Note_on_c, 0, 71, 93
4, 83708, Note_on_c, 0, 66, 93
4, 84013, Control_c, 0, 64, 0
4, 84078, Note_on_c, 0, 71, 0
4, 84085, Note_on_c, 0, 78, 0
4, 84092, Note_on_c, 0, 74, 0
4, 84096, Note_on_c, 0, 67, 127
4, 84096, Note_on_c, 0, 64, 127
4, 84096, Note_on_c, 0, 52, 127
4, 84096, Note_on_c, 0, 59, 127
4, 84098, Note_on_c, 0, 47, 0
4, 84101, Note_on_c, 0, 59, 0
4, 84102, Note_on_c, 0, 62, 0
4, 84104, Note_on_c, 0, 66, 0
4, 84108, Note_on_c, 0, 83, 0
4, 84114, Note_on_c, 0, 86, 0
4, 84300, Control_c, 0, 64, 127
4, 84429, Note_on_c, 0, 83, 99
4, 84431, Note_on_c, 0, 79, 99
4, 84432, Note_on_c, 0, 74, 99
4, 84454, Note_on_c, 0, 79, 0
4, 84456, Note_on_c, 0, 74, 0
4, 84457, Note_on_c, 0, 83, 0
4, 84481, Note_on_c, 0, 83, 99
4, 84484, Note_on_c, 0, 79, 99
4, 84485, Note_on_c, 0, 74, 99
4, 84714, Note_on_c, 0, 83, 0
4, 84717, Note_on_c, 0, 79, 0
4, 84721, Note_on_c, 0, 74, 0
4, 84815, Note_on_c, 0, 76, 99
4, 84817, Note_on_c, 0, 71, 99
4, 84838, Note_on_c, 0, 71, 0
4, 84839, Note_on_c, 0, 76, 0
4, 84870, Note_on_c, 0, 79, 99
4, 84871, Note_on_c, 0, 76, 99
4, 84873, Note_on_c, 0, 71, 99
4, 85128, Note_on_c, 0, 67, 0
4, 85141, Note_on_c, 0, 79, 0
4, 85142, Note_on_c, 0, 76, 0
4, 85143, Note_on_c, 0, 71, 0
4, 85189, Note_on_c, 0, 71, 99
4, 85191, Note_on_c, 0, 67, 99
4, 85193, Note_on_c, 0, 76, 99
4, 85217, Note_on_c, 0, 76, 0
4, 85218, Note_on_c, 0, 67, 0
4, 85220, Note_on_c, 0, 71, 0
4, 85246, Note_on_c, 0, 76, 99
4, 85250, Note_on_c, 0, 71, 99
4, 85252, Note_on_c, 0, 67, 99
4, 85503, Note_on_c, 0, 52, 0
4, 85508, Note_on_c, 0, 59, 0
4, 85513, Control_c, 0, 64, 0
4, 85514, Note_on_c, 0, 64, 0
4, 85572, Note_on_c, 0, 76, 0
4, 85577, Note_on_c, 0, 71, 0
4, 85579, Note_on_c, 0, 67, 0
4, 85632, Note_on_c, 0, 57, 127
4, 85632, Note_on_c, 0, 61, 110
4, 85632, Note_on_c, 0, 69, 127
4, 85632, Note_on_c, 0, 64, 127
4, 85781, Control_c, 0, 64, 127
4, 85837, Note_on_c, 0, 61, 0
4, 85840, Note_on_c, 0, 64, 0
4, 85855, Note_on_c, 0, 69, 0
4, 85864, Note_on_c, 0, 57, 0
4, 85953, Note_on_c, 0, 76, 102
4, 85956, Note_on_c, 0, 81, 102
4, 85970, Note_on_c, 0, 81, 0
4, 85973, Note_on_c, 0, 76, 0
4, 86007, Note_on_c, 0, 81, 103
4, 86010, Note_on_c, 0, 76, 103
4, 86014, Note_on_c, 0, 73, 103
4, 86244, Note_on_c, 0, 76, 0
4, 86245, Note_on_c, 0, 81, 0
4, 86248, Note_on_c, 0, 73, 0
4, 86315, Note_on_c, 0, 73, 108
4, 86319, Note_on_c, 0, 76, 108
4, 86320, Note_on_c, 0, 69, 108
4, 86339, Note_on_c, 0, 73, 0
4, 86347, Note_on_c, 0, 76, 0
4, 86348, Note_on_c, 0, 69, 0
4, 86388, Note_on_c, 0, 76, 109
4, 86390, Note_on_c, 0, 69, 109
4, 86392, Note_on_c, 0, 73, 109
4, 86598, Note_on_c, 0, 69, 0
4, 86602, Note_on_c, 0, 73, 0
4, 86604, Note_on_c, 0, 76, 0
4, 86707, Note_on_c, 0, 73, 114
4, 86709, Note_on_c, 0, 69, 114
4, 86710, Note_on_c, 0, 64, 114
4, 86727, Note_on_c, 0, 73, 0
4, 86730, Note_on_c, 0, 69, 0
4, 86732, Note_on_c, 0, 64, 0
4, 86774, Note_on_c, 0, 64, 115
4, 86776, Note_on_c, 0, 73, 115
4, 86778, Note_on_c, 0, 69, 115
4, 87028, Note_on_c, 0, 73, 0
4, 87030, Note_on_c, 0, 69, 0
4, 87032, Note_on_c, 0, 64, 0
4, 87102, Control_c, 0, 64, 0
4, 87162, Note_on_c, 0, 61, 100
4, 87164, Note_on_c, 0, 69, 127
4, 87165, Note_on_c, 0, 50, 127
4, 87168, Note_on_c, 0, 66, 110
4, 87290, Control_c, 0, 64, 127
4, 87499, Note_on_c, 0, 78, 101
4, 87501, Note_on_c, 0, 73, 101
4, 87503, Note_on_c, 0, 81, 101
4, 87519, Note_on_c, 0, 78, 0
4, 87521, Note_on_c, 0, 73, 0
4, 87523, Note_on_c, 0, 81, 0
4, 87559, Note_on_c, 0, 81, 102
4, 87561, Note_on_c, 0, 73, 102
4, 87563, Note_on_c, 0, 78, 102
4, 87768, Note_on_c, 0, 73, 0
4, 87771, Note_on_c, 0, 78, 0
4, 87772, Note_on_c, 0, 81, 0
4, 87851, Note_on_c, 0, 73, 104
4, 87856, Note_on_c, 0, 78, 104
4, 87870, Note_on_c, 0, 73, 0
4, 87871, Note_on_c, 0, 78, 0
4, 87925, Note_on_c, 0, 78, 105
4, 87927, Note_on_c, 0, 73, 105
4, 87929, Note_on_c, 0, 69, 105
4, 88128, Note_on_c, 0, 73, 0
4, 88134, Note_on_c, 0, 78, 0
4, 88138, Note_on_c, 0, 69, 0
4, 88182, Note_on_c, 0, 66, 0
4, 88182, Note_on_c, 0, 61, 0
4, 88182, Note_on_c, 0, 69, 0
4, 88244, Note_on_c, 0, 73, 107
4, 88247, Note_on_c, 0, 69, 107
4, 88249, Note_on_c, 0, 66, 107
4, 88261, Note_on_c, 0, 73, 0
4, 88263, Note_on_c, 0, 69, 0
4, 88264, Note_on_c, 0, 66, 0
4, 88312, Note_on_c, 0, 66, 108
4, 88314, Note_on_c, 0, 73, 108
4, 88316, Note_on_c, 0, 69, 108
4, 88540, Note_on_c, 0, 50, 0
4, 88569, Note_on_c, 0, 69, 0
4, 88571, Note_on_c, 0, 73, 0
4, 88572, Note_on_c, 0, 66, 0
4, 88611, Control_c, 0, 64, 0
4, 88704, Note_on_c, 0, 59, 127
4, 88704, Note_on_c, 0, 62, 127
4, 88704, Note_on_c, 0, 54, 110
4, 88704, Note_on_c, 0, 66, 127
4, 88852, Control_c, 0, 64, 127
4, 89602, Note_on_c, 0, 59, 0
4, 89664, Note_on_c, 0, 59, 104
4, 89783, Note_on_c, 0, 59, 0
4, 89790, Note_on_c, 0, 66, 0
4, 89793, Note_on_c, 0, 62, 0
4, 89856, Note_on_c, 0, 59, 127
4, 89856, Note_on_c, 0, 62, 127
4, 89856, Note_on_c, 0, 66, 127
4, 89994, Note_on_c, 0, 54, 0
4, 90048, Note_on_c, 0, 54, 110
4, 90174, Note_on_c, 0, 59, 0
4, 90176, Note_on_c, 0, 54, 0
4, 90179, Note_on_c, 0, 62, 0
4, 90181, Note_on_c, 0, 66, 0
4, 90200, Control_c, 0, 64, 0
4, 90240, Note_on_c, 0, 59, 127
4, 90240, Note_on_c, 0, 65, 127
4, 90240, Note_on_c, 0, 49, 127
4, 90240, Note_on_c, 0, 62, 127
4, 90240, Note_on_c, 0, 56, 127
4, 90361, Control_c, 0, 64, 127
4, 90948, Note_on_c, 0, 56, 0
4, 91008, Note_on_c, 0, 56, 70
4, 91108, Note_on_c, 0, 65, 0
4, 91114, Note_on_c, 0, 62, 0
4, 91134, Note_on_c, 0, 59, 0
4, 91150, Note_on_c, 0, 56, 0
4, 91200, Note_on_c, 0, 59, 108
4, 91200, Note_on_c, 0, 56, 100
4, 91200, Note_on_c, 0, 62, 108
4, 91200, Note_on_c, 0, 65, 108
4, 91320, Note_on_c, 0, 49, 0
4, 91392, Note_on_c, 0, 49, 95
4, 91425, Note_on_c, 0, 62, 0
4, 91428, Note_on_c, 0, 56, 0
4, 91434, Note_on_c, 0, 59, 0
4, 91435, Note_on_c, 0, 65, 0
4, 91488, Note_on_c, 0, 56, 100
4, 91488, Note_on_c, 0, 65, 122
4, 91488, Note_on_c, 0, 59, 117
4, 91488, Note_on_c, 0, 62, 101
4, 91676, Note_on_c, 0, 49, 0
4, 91682, Control_c, 0, 64, 0
4, 91705, Note_on_c, 0, 56, 0
4, 91705, Note_on_c, 0, 62, 0
4, 91705, Note_on_c, 0, 65, 0
4, 91712, Note_on_c, 0, 59, 0
4, 91776, Note_on_c, 0, 66, 127
4, 91776, Note_on_c, 0, 59, 127
4, 91776, Note_on_c, 0, 54, 127
4, 91776, Note_on_c, 0, 61, 127
4, 91934, Control_c, 0, 64, 127
4, 92093, Note_on_c, 0, 78, 85
4, 92094, Note_on_c, 0, 83, 85
4, 92096, Note_on_c, 0, 73, 85
4, 92114, Note_on_c, 0, 78, 0
4, 92116, Note_on_c, 0, 73, 0
4, 92122, Note_on_c, 0, 83, 0
4, 92148, Note_on_c, 0, 83, 87
4, 92153, Note_on_c, 0, 73, 88
4, 92154, Note_on_c, 0, 78, 88
4, 92390, Note_on_c, 0, 78, 0
4, 92391, Note_on_c, 0, 73, 0
4, 92393, Note_on_c, 0, 83, 0
4, 92460, Note_on_c, 0, 73, 99
4, 92462, Note_on_c, 0, 78, 99
4, 92464, Note_on_c, 0, 71, 99
4, 92478, Note_on_c, 0, 78, 0
4, 92481, Note_on_c, 0, 71, 0
4, 92482, Note_on_c, 0, 73, 0
4, 92533, Note_on_c, 0, 73, 101
4, 92535, Note_on_c, 0, 71, 101
4, 92536, Note_on_c, 0, 78, 101
4, 92867, Note_on_c, 0, 78, 0
4, 92868, Note_on_c, 0, 71, 0
4, 92870, Note_on_c, 0, 73, 0
4, 92880, Note_on_c, 0, 61, 0
4, 92888, Note_on_c, 0, 66, 0
4, 92891, Note_on_c, 0, 59, 0
4, 92918, Note_on_c, 0, 61, 115
4, 92920, Note_on_c, 0, 73, 115
4, 92920, Note_on_c, 0, 66, 115
4, 92921, Note_on_c, 0, 78, 116
4, 92922, Note_on_c, 0, 59, 116
4, 92922, Note_on_c, 0, 71, 116
4, 93062, Note_on_c, 0, 54, 0
4, 93102, Control_c, 0, 64, 0
4, 93127, Note_on_c, 0, 54, 123
4, 93217, Note_on_c, 0, 71, 0
4, 93224, Note_on_c, 0, 78, 0
4, 93228, Note_on_c, 0, 73, 0
4, 93235, Note_on_c, 0, 59, 0
4, 93246, Note_on_c, 0, 54, 0
4, 93251, Note_on_c, 0, 66, 0
4, 93253, Note_on_c, 0, 61, 0
4, 93298, Note_on_c, 0, 73, 110
4, 93299, Note_on_c, 0, 78, 127
4, 93301, Note_on_c, 0, 70, 110
4, 93310, Note_on_c, 0, 66, 104
4, 93312, Note_on_c, 0, 66, 100
4, 93312, Note_on_c, 0, 54, 91
4, 93312, Note_on_c, 0, 70, 104
4, 93312, Note_on_c, 0, 73, 100
4, 93322, Control_c, 0, 64, 0
4, 93355, Note_on_c, 0, 70, 0
4, 93403, Note_on_c, 0, 73, 0
4, 93414, Note_on_c, 0, 78, 0
4, 93458, Note_on_c, 0, 66, 0
4, 93656, Note_on_c, 0, 70, 0
4, 93662, Note_on_c, 0, 73, 0
4, 93662, Note_on_c, 0, 66, 0
4, 93696, Note_on_c, 0, 66, 91
4, 93696, Note_on_c, 0, 73, 110
4, 93696, Note_on_c, 0, 70, 100
4, 93969, Note_on_c, 0, 70, 0
4, 93999, Note_on_c, 0, 66, 0
4, 94007, Note_on_c, 0, 73, 0
4, 94080, Note_on_c, 0, 73, 104
4, 94080, Note_on_c, 0, 66, 95
4, 94080, Note_on_c, 0, 71, 117
4, 94404, Note_on_c, 0, 71, 0
4, 94415, Note_on_c, 0, 66, 0
4, 94423, Note_on_c, 0, 73, 0
4, 94464, Note_on_c, 0, 73, 127
4, 94464, Note_on_c, 0, 70, 104
4, 94464, Note_on_c, 0, 66, 91
4, 94716, Note_on_c, 0, 70, 0
4, 94716, Note_on_c, 0, 54, 0
4, 94718, Note_on_c, 0, 66, 0
4, 94719, Note_on_c, 0, 73, 0
4, 94848, Note_on_c, 0, 66, 127
4, 94848, Note_on_c, 0, 62, 127
4, 94848, Note_on_c, 0, 47, 127
4, 94848, Note_on_c, 0, 59, 127
4, 95097, Control_c, 0, 64, 127
4, 95169, Note_on_c, 0, 86, 82
4, 95171, Note_on_c, 0, 83, 82
4, 95173, Note_on_c, 0, 78, 82
4, 95194, Note_on_c, 0, 78, 0
4, 95199, Note_on_c, 0, 83, 0
4, 95201, Note_on_c, 0, 86, 0
4, 95227, Note_on_c, 0, 86, 83
4, 95229, Note_on_c, 0, 83, 83
4, 95231, Note_on_c, 0, 78, 83
4, 95507, Note_on_c, 0, 78, 0
4, 95539, Note_on_c, 0, 78, 87
4, 95541, Note_on_c, 0, 74, 87
4, 95543, Note_on_c, 0, 71, 87
4, 95560, Note_on_c, 0, 74, 0
4, 95562, Note_on_c, 0, 71, 0
4, 95563, Note_on_c, 0, 78, 0
4, 95605, Note_on_c, 0, 78, 88
4, 95608, Note_on_c, 0, 74, 88
4, 95609, Note_on_c, 0, 71, 88
4, 95904, Note_on_c, 0, 66, 0
4, 95915, Note_on_c, 0, 71, 0
4, 95933, Note_on_c, 0, 66, 92
4, 95935, Note_on_c, 0, 71, 92
4, 95937, Note_on_c, 0, 74, 92
4, 95938, Note_on_c, 0, 74, 0
4, 95957, Note_on_c, 0, 66, 0
4, 95960, Note_on_c, 0, 71, 0
4, 95961, Note_on_c, 0, 74, 0
4, 95990, Note_on_c, 0, 74, 93
4, 95994, Note_on_c, 0, 71, 93
4, 95996, Note_on_c, 0, 66, 93
4, 96301, Control_c, 0, 64, 0
4, 96366, Note_on_c, 0, 71, 0
4, 96373, Note_on_c, 0, 78, 0
4, 96380, Note_on_c, 0, 74, 0
4, 96384, Note_on_c, 0, 52, 127
4, 96384, Note_on_c, 0, 59, 127
4, 96384, Note_on_c, 0, 67, 127
4, 96384, Note_on_c, 0, 64, 127
4, 96386, Note_on_c, 0, 47, 0
4, 96389, Note_on_c, 0, 59, 0
4, 96390, Note_on_c, 0, 62, 0
4, 96392, Note_on_c, 0, 66, 0
4, 96396, Note_on_c, 0, 83, 0
4, 96402, Note_on_c, 0, 86, 0
4, 96588, Control_c, 0, 64, 127
4, 96717, Note_on_c, 0, 83, 99
4, 96719, Note_on_c, 0, 79, 99
4, 96720, Note_on_c, 0, 74, 99
4, 96742, Note_on_c, 0, 79, 0
4, 96744, Note_on_c, 0, 74, 0
4, 96745, Note_on_c, 0, 83, 0
4, 96769, Note_on_c, 0, 83, 99
4, 96772, Note_on_c, 0, 79, 99
4, 96773, Note_on_c, 0, 74, 99
4, 97002, Note_on_c, 0, 83, 0
4, 97005, Note_on_c, 0, 79, 0
4, 97009, Note_on_c, 0, 74, 0
4, 97103, Note_on_c, 0, 76, 99
4, 97105, Note_on_c, 0, 71, 99
4, 97126, Note_on_c, 0, 71, 0
4, 97127, Note_on_c, 0, 76, 0
4, 97158, Note_on_c, 0, 79, 99
4, 97159, Note_on_c, 0, 76, 99
4, 97161, Note_on_c, 0, 71, 99
4, 97416, Note_on_c, 0, 67, 0
4, 97429, Note_on_c, 0, 79, 0
4, 97430, Note_on_c, 0, 76, 0
4, 97431, Note_on_c, 0, 71, 0
4, 97477, Note_on_c, 0, 71, 99
4, 97479, Note_on_c, 0, 67, 99
4, 97481, Note_on_c, 0, 76, 99
4, 97505, Note_on_c, 0, 76, 0
4, 97506, Note_on_c, 0, 67, 0
4, 97508, Note_on_c, 0, 71, 0
4, 97534, Note_on_c, 0, 76, 99
4, 97538, Note_on_c, 0, 71, 99
4, 97540, Note_on_c, 0, 67, 99
4, 97791, Note_on_c, 0, 52, 0
4, 97796, Note_on_c, 0, 59, 0
4, 97801, Control_c, 0, 64, 0
4, 97802, Note_on_c, 0, 64, 0
4, 97860, Note_on_c, 0, 76, 0
4, 97865, Note_on_c, 0, 71, 0
4, 97867, Note_on_c, 0, 67, 0
4, 97920, Note_on_c, 0, 64, 127
4, 97920, Note_on_c, 0, 69, 127
4, 97920, Note_on_c, 0, 61, 110
4, 97920, Note_on_c, 0, 57, 127
4, 98069, Control_c, 0, 64, 127
4, 98125, Note_on_c, 0, 61, 0
4, 98128, Note_on_c, 0, 64, 0
4, 98143, Note_on_c, 0, 69, 0
4, 98152, Note_on_c, 0, 57, 0
4, 98241, Note_on_c, 0, 76, 102
4, 98244, Note_on_c, 0, 81, 102
4, 98258, Note_on_c, 0, 81, 0
4, 98261, Note_on_c, 0, 76, 0
4, 98295, Note_on_c, 0, 81, 103
4, 98298, Note_on_c, 0, 76, 103
4, 98302, Note_on_c, 0, 73, 103
4, 98532, Note_on_c, 0, 76, 0
4, 98533, Note_on_c, 0, 81, 0
4, 98536, Note_on_c, 0, 73, 0
4, 98603, Note_on_c, 0, 73, 108
4, 98607, Note_on_c, 0, 76, 108
4, 98608, Note_on_c, 0, 69, 108
4, 98627, Note_on_c, 0, 73, 0
4, 98635, Note_on_c, 0, 76, 0
4, 98636, Note_on_c, 0, 69, 0
4, 98676, Note_on_c, 0, 76, 109
4, 98678, Note_on_c, 0, 69, 109
4, 98680, Note_on_c, 0, 73, 109
4, 98886, Note_on_c, 0, 69, 0
4, 98890, Note_on_c, 0, 73, 0
4, 98892, Note_on_c, 0, 76, 0
4, 98995, Note_on_c, 0, 73, 114
4, 98997, Note_on_c, 0, 69, 114
4, 98998, Note_on_c, 0, 64, 114
4, 99015, Note_on_c, 0, 73, 0
4, 99018, Note_on_c, 0, 69, 0
4, 99020, Note_on_c, 0, 64, 0
4, 99062, Note_on_c, 0, 64, 115
4, 99064, Note_on_c, 0, 73, 115
4, 99066, Note_on_c, 0, 69, 115
4, 99316, Note_on_c, 0, 73, 0
4, 99318, Note_on_c, 0, 69, 0
4, 99320, Note_on_c, 0, 64, 0
4, 99390, Control_c, 0, 64, 0
4, 99450, Note_on_c, 0, 61, 100
4, 99452, Note_on_c, 0, 69, 127
4, 99453, Note_on_c, 0, 50, 127
4, 99456, Note_on_c, 0, 66, 110
4, 99578, Control_c, 0, 64, 127
4, 99787, Note_on_c, 0, 78, 101
4, 99789, Note_on_c, 0, 73, 101
4, 99791, Note_on_c, 0, 81, 101
4, 99807, Note_on_c, 0, 78, 0
4, 99809, Note_on_c, 0, 73, 0
4, 99811, Note_on_c, 0, 81, 0
4, 99847, Note_on_c, 0, 81, 102
4, 99849, Note_on_c, 0, 73, 102
4, 99851, Note_on_c, 0, 78, 102
4, 100056, Note_on_c, 0, 73, 0
4, 100059, Note_on_c, 0, 78, 0
4, 100060, Note_on_c, 0, 81, 0
4, 100139, Note_on_c, 0, 73, 104
4, 100144, Note_on_c, 0, 78, 104
4, 100158, Note_on_c, 0, 73, 0
4, 100159, Note_on_c, 0, 78, 0
4, 100213, Note_on_c, 0, 78, 105
4, 100215, Note_on_c, 0, 73, 105
4, 100217, Note_on_c, 0, 69, 105
4, 100416, Note_on_c, 0, 73, 0
4, 100422, Note_on_c, 0, 78, 0
4, 100426, Note_on_c, 0, 69, 0
4, 100470, Note_on_c, 0, 66, 0
4, 100470, Note_on_c, 0, 61, 0
4, 100470, Note_on_c, 0, 69, 0
4, 100532, Note_on_c, 0, 73, 107
4, 100535, Note_on_c, 0, 69, 107
4, 100537, Note_on_c, 0, 66, 107
4, 100549, Note_on_c, 0, 73, 0
4, 100551, Note_on_c, 0, 69, 0
4, 100552, Note_on_c, 0, 66, 0
4, 100600, Note_on_c, 0, 66, 108
4, 100602, Note_on_c, 0, 73, 108
4, 100604, Note_on_c, 0, 69, 108
4, 100828, Note_on_c, 0, 50, 0
4, 100857, Note_on_c, 0, 69, 0
4, 100859, Note_on_c, 0, 73, 0
4, 100860, Note_on_c, 0, 66, 0
4, 100899, Control_c, 0, 64, 0
4, 100992, Note_on_c, 0, 54, 110
4, 100992, Note_on_c, 0, 59, 127
4, 100992, Note_on_c, 0, 66, 127
4, 100992, Note_on_c, 0, 62, 127
4, 101140, Control_c, 0, 64, 127
4, 101890, Note_on_c, 0, 59, 0
4, 101952, Note_on_c, 0, 59, 104
4, 102071, Note_on_c, 0, 59, 0
4, 102078, Note_on_c, 0, 66, 0
4, 102081, Note_on_c, 0, 62, 0
4, 102144, Note_on_c, 0, 59, 127
4, 102144, Note_on_c, 0, 62, 127
4, 102144, Note_on_c, 0, 66, 127
4, 102282, Note_on_c, 0, 54, 0
4, 102336, Note_on_c, 0, 54, 110
4, 102462, Note_on_c, 0, 59, 0
4, 102464, Note_on_c, 0, 54, 0
4, 102467, Note_on_c, 0, 62, 0
4, 102469, Note_on_c, 0, 66, 0
4, 102488, Control_c, 0, 64, 0
4, 102528, Note_on_c, 0, 56, 127
4, 102528, Note_on_c, 0, 59, 127
4, 102528, Note_on_c, 0, 65, 127
4, 102528, Note_on_c, 0, 49, 127
4, 102528, Note_on_c, 0, 62, 127
4, 102649, Control_c, 0, 64, 127
4, 103236, Note_on_c, 0, 56, 0
4, 103296, Note_on_c, 0, 56, 70
4, 103396, Note_on_c, 0, 65, 0
4, 103402, Note_on_c, 0, 62, 0
4, 103422, Note_on_c, 0, 59, 0
4, 103438, Note_on_c, 0, 56, 0
4, 103488, Note_on_c, 0, 65, 108
4, 103488, Note_on_c, 0, 56, 100
4, 103488, Note_on_c, 0, 62, 108
4, 103488, Note_on_c, 0, 59, 108
4, 103608, Note_on_c, 0, 49, 0
4, 103680, Note_on_c, 0, 49, 95
4, 103713, Note_on_c, 0, 62, 0
4, 103716, Note_on_c, 0, 56, 0
4, 103722, Note_on_c, 0, 59, 0
4, 103723, Note_on_c, 0, 65, 0
4, 103776, Note_on_c, 0, 56, 100
4, 103776, Note_on_c, 0, 62, 101
4, 103776, Note_on_c, 0, 65, 122
4, 103776, Note_on_c, 0, 59, 117
4, 103964, Note_on_c, 0, 49, 0
4, 103970, Control_c, 0, 64, 0
4, 103993, Note_on_c, 0, 65, 0
4, 103993, Note_on_c, 0, 56, 0
4, 103993, Note_on_c, 0, 62, 0
4, 104000, Note_on_c, 0, 59, 0
4, 104064, Note_on_c, 0, 61, 127
4, 104064, Note_on_c, 0, 54, 127
4, 104064, Note_on_c, 0, 59, 127
4, 104064, Note_on_c, 0, 66, 127
4, 104222, Control_c, 0, 64, 127
4, 104381, Note_on_c, 0, 78, 85
4, 104382, Note_on_c, 0, 83, 85
4, 104384, Note_on_c, 0, 73, 85
4, 104402, Note_on_c, 0, 78, 0
4, 104404, Note_on_c, 0, 73, 0
4, 104410, Note_on_c, 0, 83, 0
4, 104436, Note_on_c, 0, 83, 87
4, 104441, Note_on_c, 0, 73, 88
4, 104442, Note_on_c, 0, 78, 88
4, 104678, Note_on_c, 0, 78, 0
4, 104679, Note_on_c, 0, 73, 0
4, 104681, Note_on_c, 0, 83, 0
4, 104748, Note_on_c, 0, 73, 99
4, 104750, Note_on_c, 0, 78, 99
4, 104752, Note_on_c, 0, 71, 99
4, 104766, Note_on_c, 0, 78, 0
4, 104769, Note_on_c, 0, 71, 0
4, 104770, Note_on_c, 0, 73, 0
4, 104821, Note_on_c, 0, 73, 101
4, 104823, Note_on_c, 0, 71, 101
4, 104824, Note_on_c, 0, 78, 101
4, 105155, Note_on_c, 0, 78, 0
4, 105156, Note_on_c, 0, 71, 0
4, 105158, Note_on_c, 0, 73, 0
4, 105168, Note_on_c, 0, 61, 0
4, 105176, Note_on_c, 0, 66, 0
4, 105179, Note_on_c, 0, 59, 0
4, 105206, Note_on_c, 0, 61, 115
4, 105208, Note_on_c, 0, 73, 115
4, 105208, Note_on_c, 0, 66, 115
4, 105209, Note_on_c, 0, 78, 116
4, 105210, Note_on_c, 0, 71, 116
4, 105210, Note_on_c, 0, 59, 116
4, 105350, Note_on_c, 0, 54, 0
4, 105390, Control_c, 0, 64, 0
4, 105415, Note_on_c, 0, 54, 123
4, 105505, Note_on_c, 0, 71, 0
4, 105512, Note_on_c, 0, 78, 0
4, 105516, Note_on_c, 0, 73, 0
4, 105523, Note_on_c, 0, 59, 0
4, 105534, Note_on_c, 0, 54, 0
4, 105539, Note_on_c, 0, 66, 0
4, 105541, Note_on_c, 0, 61, 0
4, 105586, Note_on_c, 0, 73, 110
4, 105587, Note_on_c, 0, 78, 127
4, 105589, Note_on_c, 0, 70, 110
4, 105598, Note_on_c, 0, 66, 104
4, 105643, Note_on_c, 0, 70, 0
4, 105691, Note_on_c, 0, 73, 0
4, 105702, Note_on_c, 0, 78, 0
4, 105746, Note_on_c, 0, 66, 0
4, 105984, Note_on_c, 0, 42, 103
4, 105984, Note_on_c, 0, 61, 103
4, 105984, Note_on_c, 0, 58, 103
4, 106176, Note_on_c, 0, 54, 103
4, 106313, Note_on_c, 0, 58, 0
4, 106313, Note_on_c, 0, 61, 0
4, 106324, Note_on_c, 0, 42, 0
4, 106368, Note_on_c, 0, 54, 0
4, 106368, Note_on_c, 0, 62, 106
4, 106368, Note_on_c, 0, 59, 106
4, 106368, Note_on_c, 0, 43, 106
4, 106560, Note_on_c, 0, 64, 115
4, 106590, Note_on_c, 0, 62, 0
4, 106615, Note_on_c, 0, 59, 0
4, 106752, Note_on_c, 0, 61, 106
4, 106752, Note_on_c, 0, 42, 106
4, 106752, Note_on_c, 0, 58, 106
4, 106755, Note_on_c, 0, 64, 0
4, 106773, Note_on_c, 0, 43, 0
4, 106944, Note_on_c, 0, 62, 115
4, 106959, Note_on_c, 0, 58, 0
4, 106970, Note_on_c, 0, 61, 0
4, 107126, Note_on_c, 0, 62, 0
4, 107136, Note_on_c, 0, 59, 106
4, 107136, Note_on_c, 0, 47, 106
4, 107136, Note_on_c, 0, 50, 106
4, 107136, Note_on_c, 0, 54, 106
4, 107181, Note_on_c, 0, 42, 0
4, 107924, Note_on_c, 0, 50, 0
4, 108517, Note_on_c, 0, 59, 0
4, 108532, Note_on_c, 0, 47, 0
4, 108534, Note_on_c, 0, 54, 0
4, 108737, Note_on_c, 0, 73, 42
4, 108828, Note_on_c, 0, 74, 67
4, 108918, Note_on_c, 0, 78, 55
4, 109023, Note_on_c, 0, 83, 66
4, 109150, Note_on_c, 0, 85, 28
4, 109308, Note_on_c, 0, 86, 46
4, 109325, Note_on_c, 0, 90, 49
4, 109744, Note_on_c, 0, 95, 53
4, 110348, Note_on_c, 0, 95, 0
4, 110353, Note_on_c, 0, 90, 0
4, 110511, Note_on_c, 0, 73, 0
4, 110513, Note_on_c, 0, 85, 0
4, 110513, Note_on_c, 0, 83, 0
4, 110515, Note_on_c, 0, 74, 0
4, 110519, Note_on_c, 0, 78, 0
4, 110520, Note_on_c, 0, 86, 0
4, 110976, Control_c, 0, 121, 127
4, 110976, MIDI_port, 0
4, 111360, System_exclusive, 5, 126, 127, 9, 1, 247
4, 111360, MIDI_port, 0
4, 111360, End_track
5, 0, Start_track
5, 0, MIDI_port, 0
5, 75, Program_c, 1, 33
5, 76, Control_c, 1, 7, 108
5, 77, Control_c, 1, 10, 63
5, 78, Control_c, 1, 11, 127
5, 79, Control_c, 1, 91, 4
5, 80, Control_c, 1, 93, 10
5, 2880, Note_on_c, 1, 33, 127
5, 3072, Note_on_c, 1, 33, 0
5, 3072, Note_on_c, 1, 38, 127
5, 4416, Note_on_c, 1, 38, 0
5, 4416, Note_on_c, 1, 33, 127
5, 4608, Note_on_c, 1, 33, 0
5, 4608, Note_on_c, 1, 38, 127
5, 5856, Note_on_c, 1, 38, 0
5, 5952, Note_on_c, 1, 38, 127
5, 6144, Note_on_c, 1, 38, 0
5, 6144, Note_on_c, 1, 37, 127
5, 7680, Note_on_c, 1, 37, 0
5, 7680, Note_on_c, 1, 35, 127
5, 8928, Note_on_c, 1, 35, 0
5, 9024, Note_on_c, 1, 35, 127
5, 9216, Note_on_c, 1, 35, 0
5, 9216, Note_on_c, 1, 30, 127
5, 10560, Note_on_c, 1, 30, 0
5, 10560, Note_on_c, 1, 30, 127
5, 10752, Note_on_c, 1, 30, 0
5, 10752, Note_on_c, 1, 35, 127
5, 11040, Note_on_c, 1, 35, 0
5, 11136, Note_on_c, 1, 35, 127
5, 11424, Note_on_c, 1, 35, 0
5, 11520, Note_on_c, 1, 35, 127
5, 11682, Note_on_c, 1, 35, 0
5, 11712, Note_on_c, 1, 35, 33
5, 11808, Note_on_c, 1, 35, 0
5, 11808, Note_on_c, 1, 35, 60
5, 11904, Note_on_c, 1, 35, 0
5, 11904, Note_on_c, 1, 35, 127
5, 12066, Note_on_c, 1, 35, 0
5, 12096, Note_on_c, 1, 35, 33
5, 12192, Note_on_c, 1, 35, 0
5, 12192, Note_on_c, 1, 35, 60
5, 12288, Note_on_c, 1, 35, 0
5, 12288, Note_on_c, 1, 35, 127
5, 12450, Note_on_c, 1, 35, 0
5, 12480, Note_on_c, 1, 35, 41
5, 12576, Note_on_c, 1, 35, 0
5, 12576, Note_on_c, 1, 35, 60
5, 12672, Note_on_c, 1, 35, 0
5, 12672, Note_on_c, 1, 35, 127
5, 12834, Note_on_c, 1, 35, 0
5, 12864, Note_on_c, 1, 35, 48
5, 12960, Note_on_c, 1, 35, 0
5, 12960, Note_on_c, 1, 35, 64
5, 13056, Note_on_c, 1, 35, 0
5, 13056, Note_on_c, 1, 35, 127
5, 13152, Note_on_c, 1, 35, 0
5, 13248, Note_on_c, 1, 35, 127
5, 13632, Note_on_c, 1, 35, 0
5, 13632, Note_on_c, 1, 33, 127
5, 13824, Note_on_c, 1, 33, 0
5, 13824, Note_on_c, 1, 31, 127
5, 14400, Note_on_c, 1, 31, 0
5, 14400, Note_on_c, 1, 38, 127
5, 14592, Note_on_c, 1, 38, 0
5, 14592, Note_on_c, 1, 43, 127
5, 15144, Note_on_c, 1, 43, 0
5, 15168, Note_on_c, 1, 43, 127
5, 15360, Note_on_c, 1, 43, 0
5, 15360, Note_on_c, 1, 42, 127
5, 15912, Note_on_c, 1, 42, 0
5, 15936, Note_on_c, 1, 42, 127
5, 16128, Note_on_c, 1, 42, 0
5, 16128, Note_on_c, 1, 49, 127
5, 16512, Note_on_c, 1, 49, 0
5, 16512, Note_on_c, 1, 42, 127
5, 16896, Note_on_c, 1, 42, 0
5, 16896, Note_on_c, 1, 40, 127
5, 17448, Note_on_c, 1, 40, 0
5, 17472, Note_on_c, 1, 40, 127
5, 17664, Note_on_c, 1, 40, 0
5, 17664, Note_on_c, 1, 47, 127
5, 18048, Note_on_c, 1, 47, 0
5, 18048, Note_on_c, 1, 40, 127
5, 18408, Note_on_c, 1, 40, 0
5, 18432, Note_on_c, 1, 30, 127
5, 19008, Note_on_c, 1, 30, 0
5, 19008, Note_on_c, 1, 42, 127
5, 19350, Note_on_c, 1, 42, 0
5, 19392, Note_on_c, 1, 42, 127
5, 19776, Note_on_c, 1, 42, 0
5, 19776, Note_on_c, 1, 37, 127
5, 19968, Note_on_c, 1, 37, 0
5, 19968, Note_on_c, 1, 30, 127
5, 20316, Note_on_c, 1, 30, 0
5, 20352, Note_on_c, 1, 30, 127
5, 20736, Note_on_c, 1, 30, 0
5, 20736, Note_on_c, 1, 32, 127
5, 21120, Note_on_c, 1, 32, 0
5, 21120, Note_on_c, 1, 34, 127
5, 21504, Note_on_c, 1, 35, 127
5, 21510, Note_on_c, 1, 34, 0
5, 21852, Note_on_c, 1, 35, 0
5, 21888, Note_on_c, 1, 35, 127
5, 22176, Note_on_c, 1, 35, 0
5, 22176, Note_on_c, 1, 30, 127
5, 22272, Note_on_c, 1, 30, 0
5, 22272, Note_on_c, 1, 35, 127
5, 22464, Note_on_c, 1, 35, 0
5, 22464, Note_on_c, 1, 37, 127
5, 22656, Note_on_c, 1, 37, 0
5, 22656, Note_on_c, 1, 38, 127
5, 22848, Note_on_c, 1, 38, 0
5, 22848, Note_on_c, 1, 42, 127
5, 23040, Note_on_c, 1, 42, 0
5, 23040, Note_on_c, 1, 40, 127
5, 23328, Note_on_c, 1, 40, 0
5, 23328, Note_on_c, 1, 35, 127
5, 23424, Note_on_c, 1, 35, 0
5, 23424, Note_on_c, 1, 40, 127
5, 23520, Note_on_c, 1, 40, 0
5, 23520, Note_on_c, 1, 38, 127
5, 23682, Note_on_c, 1, 38, 0
5, 23712, Note_on_c, 1, 38, 127
5, 23808, Note_on_c, 1, 38, 0
5, 23808, Note_on_c, 1, 35, 127
5, 24000, Note_on_c, 1, 35, 0
5, 24000, Note_on_c, 1, 33, 127
5, 24192, Note_on_c, 1, 33, 0
5, 24192, Note_on_c, 1, 31, 127
5, 24384, Note_on_c, 1, 31, 0
5, 24384, Note_on_c, 1, 28, 127
5, 24576, Note_on_c, 1, 28, 0
5, 24576, Note_on_c, 1, 33, 127
5, 24840, Note_on_c, 1, 33, 0
5, 24864, Note_on_c, 1, 33, 127
5, 24960, Note_on_c, 1, 33, 0
5, 24960, Note_on_c, 1, 45, 127
5, 25248, Note_on_c, 1, 45, 0
5, 25248, Note_on_c, 1, 40, 127
5, 25344, Note_on_c, 1, 40, 0
5, 25344, Note_on_c, 1, 33, 127
5, 25536, Note_on_c, 1, 33, 0
5, 25536, Note_on_c, 1, 35, 127
5, 25728, Note_on_c, 1, 35, 0
5, 25728, Note_on_c, 1, 37, 127
5, 25920, Note_on_c, 1, 37, 0
5, 25920, Note_on_c, 1, 40, 127
5, 26112, Note_on_c, 1, 40, 0
5, 26112, Note_on_c, 1, 38, 127
5, 26400, Note_on_c, 1, 38, 0
5, 26400, Note_on_c, 1, 45, 127
5, 26496, Note_on_c, 1, 45, 0
5, 26496, Note_on_c, 1, 54, 127
5, 26592, Note_on_c, 1, 54, 0
5, 26592, Note_on_c, 1, 52, 127
5, 26748, Note_on_c, 1, 52, 0
5, 26784, Note_on_c, 1, 50, 127
5, 26940, Note_on_c, 1, 50, 0
5, 26976, Note_on_c, 1, 50, 127
5, 27072, Note_on_c, 1, 50, 0
5, 27072, Note_on_c, 1, 49, 127
5, 27264, Note_on_c, 1, 49, 0
5, 27264, Note_on_c, 1, 47, 127
5, 27456, Note_on_c, 1, 47, 0
5, 27456, Note_on_c, 1, 45, 127
5, 27648, Note_on_c, 1, 45, 0
5, 27648, Note_on_c, 1, 44, 127
5, 27984, Note_on_c, 1, 44, 0
5, 28032, Note_on_c, 1, 44, 127
5, 28320, Note_on_c, 1, 44, 0
5, 28320, Note_on_c, 1, 39, 127
5, 28416, Note_on_c, 1, 39, 0
5, 28416, Note_on_c, 1, 44, 127
5, 28704, Note_on_c, 1, 44, 0
5, 28704, Note_on_c, 1, 39, 127
5, 28800, Note_on_c, 1, 39, 0
5, 28800, Note_on_c, 1, 44, 127
5, 28992, Note_on_c, 1, 44, 0
5, 28992, Note_on_c, 1, 39, 127
5, 29082, Note_on_c, 1, 39, 0
5, 29088, Note_on_c, 1, 38, 127
5, 29184, Note_on_c, 1, 38, 0
5, 29184, Note_on_c, 1, 37, 127
5, 29532, Note_on_c, 1, 37, 0
5, 29568, Note_on_c, 1, 37, 127
5, 29856, Note_on_c, 1, 37, 0
5, 29856, Note_on_c, 1, 44, 127
5, 29952, Note_on_c, 1, 44, 0
5, 29952, Note_on_c, 1, 37, 127
5, 30078, Note_on_c, 1, 37, 0
5, 30144, Note_on_c, 1, 37, 127
5, 30480, Note_on_c, 1, 37, 0
5, 30528, Note_on_c, 1, 37, 127
5, 30720, Note_on_c, 1, 37, 0
5, 30720, Note_on_c, 1, 42, 127
5, 31050, Note_on_c, 1, 42, 0
5, 31104, Note_on_c, 1, 42, 127
5, 31392, Note_on_c, 1, 42, 0
5, 31392, Note_on_c, 1, 37, 127
5, 31488, Note_on_c, 1, 37, 0
5, 31488, Note_on_c, 1, 42, 127
5, 31554, Note_on_c, 1, 42, 0
5, 31584, Note_on_c, 1, 42, 127
5, 31776, Note_on_c, 1, 42, 0
5, 31776, Note_on_c, 1, 37, 127
5, 31872, Note_on_c, 1, 37, 0
5, 31872, Note_on_c, 1, 42, 127
5, 31938, Note_on_c, 1, 42, 0
5, 31968, Note_on_c, 1, 42, 127
5, 32160, Note_on_c, 1, 42, 0
5, 32160, Note_on_c, 1, 37, 127
5, 32256, Note_on_c, 1, 37, 0
5, 32256, Note_on_c, 1, 42, 127
5, 32388, Note_on_c, 1, 42, 0
5, 33792, Note_on_c, 1, 38, 127
5, 35136, Note_on_c, 1, 38, 0
5, 35136, Note_on_c, 1, 33, 127
5, 35328, Note_on_c, 1, 33, 0
5, 35328, Note_on_c, 1, 38, 127
5, 36576, Note_on_c, 1, 38, 0
5, 36672, Note_on_c, 1, 38, 127
5, 36864, Note_on_c, 1, 38, 0
5, 36864, Note_on_c, 1, 37, 127
5, 38400, Note_on_c, 1, 37, 0
5, 38400, Note_on_c, 1, 35, 127
5, 39648, Note_on_c, 1, 35, 0
5, 39744, Note_on_c, 1, 35, 127
5, 39936, Note_on_c, 1, 35, 0
5, 39936, Note_on_c, 1, 30, 127
5, 41280, Note_on_c, 1, 30, 0
5, 41280, Note_on_c, 1, 30, 127
5, 41472, Note_on_c, 1, 30, 0
5, 41472, Note_on_c, 1, 35, 127
5, 41760, Note_on_c, 1, 35, 0
5, 41856, Note_on_c, 1, 35, 127
5, 42144, Note_on_c, 1, 35, 0
5, 42240, Note_on_c, 1, 35, 127
5, 42402, Note_on_c, 1, 35, 0
5, 42432, Note_on_c, 1, 35, 33
5, 42528, Note_on_c, 1, 35, 0
5, 42528, Note_on_c, 1, 35, 60
5, 42624, Note_on_c, 1, 35, 0
5, 42624, Note_on_c, 1, 35, 127
5, 42786, Note_on_c, 1, 35, 0
5, 42816, Note_on_c, 1, 35, 33
5, 42912, Note_on_c, 1, 35, 0
5, 42912, Note_on_c, 1, 35, 60
5, 43008, Note_on_c, 1, 35, 0
5, 43008, Note_on_c, 1, 35, 127
5, 43170, Note_on_c, 1, 35, 0
5, 43200, Note_on_c, 1, 35, 41
5, 43296, Note_on_c, 1, 35, 0
5, 43296, Note_on_c, 1, 35, 60
5, 43392, Note_on_c, 1, 35, 0
5, 43392, Note_on_c, 1, 35, 127
5, 43554, Note_on_c, 1, 35, 0
5, 43584, Note_on_c, 1, 35, 48
5, 43680, Note_on_c, 1, 35, 0
5, 43680, Note_on_c, 1, 35, 64
5, 43776, Note_on_c, 1, 35, 0
5, 43776, Note_on_c, 1, 35, 127
5, 43872, Note_on_c, 1, 35, 0
5, 43968, Note_on_c, 1, 35, 127
5, 44352, Note_on_c, 1, 35, 0
5, 44352, Note_on_c, 1, 33, 127
5, 44544, Note_on_c, 1, 33, 0
5, 44544, Note_on_c, 1, 31, 127
5, 45120, Note_on_c, 1, 31, 0
5, 45120, Note_on_c, 1, 38, 127
5, 45312, Note_on_c, 1, 38, 0
5, 45312, Note_on_c, 1, 43, 127
5, 45864, Note_on_c, 1, 43, 0
5, 45888, Note_on_c, 1, 43, 127
5, 46080, Note_on_c, 1, 43, 0
5, 46080, Note_on_c, 1, 42, 127
5, 46632, Note_on_c, 1, 42, 0
5, 46656, Note_on_c, 1, 42, 127
5, 46848, Note_on_c, 1, 42, 0
5, 46848, Note_on_c, 1, 49, 127
5, 47232, Note_on_c, 1, 49, 0
5, 47232, Note_on_c, 1, 42, 127
5, 47616, Note_on_c, 1, 42, 0
5, 47616, Note_on_c, 1, 40, 127
5, 48168, Note_on_c, 1, 40, 0
5, 48192, Note_on_c, 1, 40, 127
5, 48384, Note_on_c, 1, 40, 0
5, 48384, Note_on_c, 1, 47, 127
5, 48768, Note_on_c, 1, 47, 0
5, 48768, Note_on_c, 1, 40, 127
5, 49128, Note_on_c, 1, 40, 0
5, 49152, Note_on_c, 1, 30, 127
5, 49728, Note_on_c, 1, 30, 0
5, 49728, Note_on_c, 1, 42, 127
5, 50070, Note_on_c, 1, 42, 0
5, 50112, Note_on_c, 1, 42, 127
5, 50496, Note_on_c, 1, 42, 0
5, 50496, Note_on_c, 1, 37, 127
5, 50688, Note_on_c, 1, 37, 0
5, 50688, Note_on_c, 1, 30, 127
5, 51036, Note_on_c, 1, 30, 0
5, 51072, Note_on_c, 1, 30, 127
5, 51456, Note_on_c, 1, 30, 0
5, 51456, Note_on_c, 1, 32, 127
5, 51840, Note_on_c, 1, 32, 0
5, 51840, Note_on_c, 1, 34, 127
5, 52224, Note_on_c, 1, 35, 127
5, 52230, Note_on_c, 1, 34, 0
5, 52572, Note_on_c, 1, 35, 0
5, 52608, Note_on_c, 1, 35, 127
5, 52896, Note_on_c, 1, 35, 0
5, 52896, Note_on_c, 1, 30, 127
5, 52992, Note_on_c, 1, 30, 0
5, 52992, Note_on_c, 1, 35, 127
5, 53184, Note_on_c, 1, 35, 0
5, 53184, Note_on_c, 1, 37, 127
5, 53376, Note_on_c, 1, 37, 0
5, 53376, Note_on_c, 1, 38, 127
5, 53568, Note_on_c, 1, 38, 0
5, 53568, Note_on_c, 1, 42, 127
5, 53760, Note_on_c, 1, 42, 0
5, 53760, Note_on_c, 1, 40, 127
5, 54048, Note_on_c, 1, 40, 0
5, 54048, Note_on_c, 1, 35, 127
5, 54144, Note_on_c, 1, 35, 0
5, 54144, Note_on_c, 1, 40, 127
5, 54240, Note_on_c, 1, 40, 0
5, 54240, Note_on_c, 1, 38, 127
5, 54402, Note_on_c, 1, 38, 0
5, 54432, Note_on_c, 1, 38, 127
5, 54528, Note_on_c, 1, 38, 0
5, 54528, Note_on_c, 1, 35, 127
5, 54720, Note_on_c, 1, 35, 0
5, 54720, Note_on_c, 1, 33, 127
5, 54912, Note_on_c, 1, 33, 0
5, 54912, Note_on_c, 1, 31, 127
5, 55104, Note_on_c, 1, 31, 0
5, 55104, Note_on_c, 1, 28, 127
5, 55296, Note_on_c, 1, 28, 0
5, 55296, Note_on_c, 1, 33, 127
5, 55560, Note_on_c, 1, 33, 0
5, 55584, Note_on_c, 1, 33, 127
5, 55680, Note_on_c, 1, 33, 0
5, 55680, Note_on_c, 1, 45, 127
5, 55968, Note_on_c, 1, 45, 0
5, 55968, Note_on_c, 1, 40, 127
5, 56064, Note_on_c, 1, 40, 0
5, 56064, Note_on_c, 1, 33, 127
5, 56256, Note_on_c, 1, 33, 0
5, 56256, Note_on_c, 1, 35, 127
5, 56448, Note_on_c, 1, 35, 0
5, 56448, Note_on_c, 1, 37, 127
5, 56640, Note_on_c, 1, 37, 0
5, 56640, Note_on_c, 1, 40, 127
5, 56832, Note_on_c, 1, 40, 0
5, 56832, Note_on_c, 1, 38, 127
5, 57120, Note_on_c, 1, 38, 0
5, 57120, Note_on_c, 1, 45, 127
5, 57216, Note_on_c, 1, 45, 0
5, 57216, Note_on_c, 1, 54, 127
5, 57312, Note_on_c, 1, 54, 0
5, 57312, Note_on_c, 1, 52, 127
5, 57468, Note_on_c, 1, 52, 0
5, 57504, Note_on_c, 1, 50, 127
5, 57660, Note_on_c, 1, 50, 0
5, 57696, Note_on_c, 1, 50, 127
5, 57792, Note_on_c, 1, 50, 0
5, 57792, Note_on_c, 1, 49, 127
5, 57984, Note_on_c, 1, 49, 0
5, 57984, Note_on_c, 1, 47, 127
5, 58176, Note_on_c, 1, 47, 0
5, 58176, Note_on_c, 1, 45, 127
5, 58368, Note_on_c, 1, 45, 0
5, 58368, Note_on_c, 1, 44, 127
5, 58704, Note_on_c, 1, 44, 0
5, 58752, Note_on_c, 1, 44, 127
5, 59040, Note_on_c, 1, 44, 0
5, 59040, Note_on_c, 1, 39, 127
5, 59136, Note_on_c, 1, 39, 0
5, 59136, Note_on_c, 1, 44, 127
5, 59424, Note_on_c, 1, 44, 0
5, 59424, Note_on_c, 1, 39, 127
5, 59520, Note_on_c, 1, 39, 0
5, 59520, Note_on_c, 1, 44, 127
5, 59712, Note_on_c, 1, 44, 0
5, 59712, Note_on_c, 1, 39, 127
5, 59802, Note_on_c, 1, 39, 0
5, 59808, Note_on_c, 1, 38, 127
5, 59904, Note_on_c, 1, 38, 0
5, 59904, Note_on_c, 1, 37, 127
5, 60252, Note_on_c, 1, 37, 0
5, 60288, Note_on_c, 1, 37, 127
5, 60576, Note_on_c, 1, 37, 0
5, 60576, Note_on_c, 1, 44, 127
5, 60672, Note_on_c, 1, 44, 0
5, 60672, Note_on_c, 1, 37, 127
5, 60798, Note_on_c, 1, 37, 0
5, 60864, Note_on_c, 1, 37, 127
5, 61200, Note_on_c, 1, 37, 0
5, 61248, Note_on_c, 1, 37, 127
5, 61440, Note_on_c, 1, 37, 0
5, 61440, Note_on_c, 1, 42, 127
5, 61770, Note_on_c, 1, 42, 0
5, 61824, Note_on_c, 1, 42, 127
5, 62112, Note_on_c, 1, 42, 0
5, 62112, Note_on_c, 1, 37, 127
5, 62208, Note_on_c, 1, 37, 0
5, 62208, Note_on_c, 1, 42, 127
5, 62274, Note_on_c, 1, 42, 0
5, 62304, Note_on_c, 1, 42, 127
5, 62496, Note_on_c, 1, 42, 0
5, 62496, Note_on_c, 1, 37, 127
5, 62592, Note_on_c, 1, 37, 0
5, 62592, Note_on_c, 1, 42, 127
5, 62658, Note_on_c, 1, 42, 0
5, 62688, Note_on_c, 1, 42, 127
5, 62880, Note_on_c, 1, 42, 0
5, 62880, Note_on_c, 1, 37, 127
5, 62976, Note_on_c, 1, 37, 0
5, 64128, Note_on_c, 1, 38, 127
5, 65472, Note_on_c, 1, 38, 0
5, 65472, Note_on_c, 1, 33, 127
5, 65664, Note_on_c, 1, 33, 0
5, 65664, Note_on_c, 1, 38, 127
5, 66912, Note_on_c, 1, 38, 0
5, 67008, Note_on_c, 1, 38, 127
5, 67200, Note_on_c, 1, 38, 0
5, 67200, Note_on_c, 1, 37, 127
5, 68736, Note_on_c, 1, 37, 0
5, 68736, Note_on_c, 1, 35, 127
5, 69984, Note_on_c, 1, 35, 0
5, 70080, Note_on_c, 1, 35, 127
5, 70272, Note_on_c, 1, 35, 0
5, 70272, Note_on_c, 1, 30, 127
5, 71616, Note_on_c, 1, 30, 0
5, 71616, Note_on_c, 1, 30, 127
5, 71808, Note_on_c, 1, 30, 0
5, 71808, Note_on_c, 1, 35, 127
5, 72096, Note_on_c, 1, 35, 0
5, 72192, Note_on_c, 1, 35, 127
5, 72480, Note_on_c, 1, 35, 0
5, 72576, Note_on_c, 1, 35, 127
5, 72738, Note_on_c, 1, 35, 0
5, 72768, Note_on_c, 1, 35, 33
5, 72864, Note_on_c, 1, 35, 0
5, 72864, Note_on_c, 1, 35, 60
5, 72960, Note_on_c, 1, 35, 0
5, 72960, Note_on_c, 1, 35, 127
5, 73122, Note_on_c, 1, 35, 0
5, 73152, Note_on_c, 1, 35, 33
5, 73248, Note_on_c, 1, 35, 0
5, 73248, Note_on_c, 1, 35, 60
5, 73344, Note_on_c, 1, 35, 0
5, 73344, Note_on_c, 1, 35, 127
5, 73506, Note_on_c, 1, 35, 0
5, 73536, Note_on_c, 1, 35, 41
5, 73632, Note_on_c, 1, 35, 0
5, 73632, Note_on_c, 1, 35, 60
5, 73728, Note_on_c, 1, 35, 0
5, 73728, Note_on_c, 1, 35, 127
5, 73890, Note_on_c, 1, 35, 0
5, 73920, Note_on_c, 1, 35, 48
5, 74016, Note_on_c, 1, 35, 0
5, 74016, Note_on_c, 1, 35, 64
5, 74112, Note_on_c, 1, 35, 0
5, 74112, Note_on_c, 1, 35, 127
5, 74208, Note_on_c, 1, 35, 0
5, 74304, Note_on_c, 1, 35, 127
5, 74688, Note_on_c, 1, 35, 0
5, 74688, Note_on_c, 1, 33, 127
5, 74880, Note_on_c, 1, 33, 0
5, 74880, Note_on_c, 1, 31, 127
5, 75456, Note_on_c, 1, 31, 0
5, 75456, Note_on_c, 1, 38, 127
5, 75648, Note_on_c, 1, 38, 0
5, 75648, Note_on_c, 1, 43, 127
5, 76200, Note_on_c, 1, 43, 0
5, 76224, Note_on_c, 1, 43, 127
5, 76416, Note_on_c, 1, 43, 0
5, 76416, Note_on_c, 1, 42, 127
5, 76968, Note_on_c, 1, 42, 0
5, 76992, Note_on_c, 1, 42, 127
5, 77184, Note_on_c, 1, 42, 0
5, 77184, Note_on_c, 1, 49, 127
5, 77568, Note_on_c, 1, 49, 0
5, 77568, Note_on_c, 1, 42, 127
5, 77952, Note_on_c, 1, 42, 0
5, 77952, Note_on_c, 1, 40, 127
5, 78504, Note_on_c, 1, 40, 0
5, 78528, Note_on_c, 1, 40, 127
5, 78720, Note_on_c, 1, 40, 0
5, 78720, Note_on_c, 1, 47, 127
5, 79104, Note_on_c, 1, 47, 0
5, 79104, Note_on_c, 1, 40, 127
5, 79464, Note_on_c, 1, 40, 0
5, 79488, Note_on_c, 1, 30, 127
5, 80064, Note_on_c, 1, 30, 0
5, 80064, Note_on_c, 1, 42, 127
5, 80406, Note_on_c, 1, 42, 0
5, 80448, Note_on_c, 1, 42, 127
5, 80832, Note_on_c, 1, 42, 0
5, 80832, Note_on_c, 1, 37, 127
5, 81024, Note_on_c, 1, 37, 0
5, 81024, Note_on_c, 1, 30, 127
5, 81372, Note_on_c, 1, 30, 0
5, 81408, Note_on_c, 1, 30, 127
5, 81792, Note_on_c, 1, 30, 0
5, 81792, Note_on_c, 1, 32, 127
5, 82176, Note_on_c, 1, 32, 0
5, 82176, Note_on_c, 1, 34, 127
5, 82560, Note_on_c, 1, 35, 127
5, 82566, Note_on_c, 1, 34, 0
5, 82908, Note_on_c, 1, 35, 0
5, 82944, Note_on_c, 1, 35, 127
5, 83232, Note_on_c, 1, 35, 0
5, 83232, Note_on_c, 1, 30, 127
5, 83328, Note_on_c, 1, 30, 0
5, 83328, Note_on_c, 1, 35, 127
5, 83520, Note_on_c, 1, 35, 0
5, 83520, Note_on_c, 1, 37, 127
5, 83712, Note_on_c, 1, 37, 0
5, 83712, Note_on_c, 1, 38, 127
5, 83904, Note_on_c, 1, 38, 0
5, 83904, Note_on_c, 1, 42, 127
5, 84096, Note_on_c, 1, 42, 0
5, 84096, Note_on_c, 1, 40, 127
5, 84384, Note_on_c, 1, 40, 0
5, 84384, Note_on_c, 1, 35, 127
5, 84480, Note_on_c, 1, 35, 0
5, 84480, Note_on_c, 1, 40, 127
5, 84576, Note_on_c, 1, 40, 0
5, 84576, Note_on_c, 1, 38, 127
5, 84738, Note_on_c, 1, 38, 0
5, 84768, Note_on_c, 1, 38, 127
5, 84864, Note_on_c, 1, 38, 0
5, 84864, Note_on_c, 1, 35, 127
5, 85056, Note_on_c, 1, 35, 0
5, 85056, Note_on_c, 1, 33, 127
5, 85248, Note_on_c, 1, 33, 0
5, 85248, Note_on_c, 1, 31, 127
5, 85440, Note_on_c, 1, 31, 0
5, 85440, Note_on_c, 1, 28, 127
5, 85632, Note_on_c, 1, 28, 0
5, 85632, Note_on_c, 1, 33, 127
5, 85896, Note_on_c, 1, 33, 0
5, 85920, Note_on_c, 1, 33, 127
5, 86016, Note_on_c, 1, 33, 0
5, 86016, Note_on_c, 1, 45, 127
5, 86304, Note_on_c, 1, 45, 0
5, 86304, Note_on_c, 1, 40, 127
5, 86400, Note_on_c, 1, 40, 0
5, 86400, Note_on_c, 1, 33, 127
5, 86592, Note_on_c, 1, 33, 0
5, 86592, Note_on_c, 1, 35, 127
5, 86784, Note_on_c, 1, 35, 0
5, 86784, Note_on_c, 1, 37, 127
5, 86976, Note_on_c, 1, 37, 0
5, 86976, Note_on_c, 1, 40, 127
5, 87168, Note_on_c, 1, 40, 0
5, 87168, Note_on_c, 1, 38, 127
5, 87456, Note_on_c, 1, 38, 0
5, 87456, Note_on_c, 1, 45, 127
5, 87552, Note_on_c, 1, 45, 0
5, 87552, Note_on_c, 1, 54, 127
5, 87648, Note_on_c, 1, 54, 0
5, 87648, Note_on_c, 1, 52, 127
5, 87804, Note_on_c, 1, 52, 0
5, 87840, Note_on_c, 1, 50, 127
5, 87996, Note_on_c, 1, 50, 0
5, 88032, Note_on_c, 1, 50, 127
5, 88128, Note_on_c, 1, 50, 0
5, 88128, Note_on_c, 1, 49, 127
5, 88320, Note_on_c, 1, 49, 0
5, 88320, Note_on_c, 1, 47, 127
5, 88512, Note_on_c, 1, 47, 0
5, 88512, Note_on_c, 1, 45, 127
5, 88704, Note_on_c, 1, 45, 0
5, 88704, Note_on_c, 1, 44, 127
5, 89040, Note_on_c, 1, 44, 0
5, 89088, Note_on_c, 1, 44, 127
5, 89376, Note_on_c, 1, 44, 0
5, 89376, Note_on_c, 1, 39, 127
5, 89472, Note_on_c, 1, 39, 0
5, 89472, Note_on_c, 1, 44, 127
5, 89760, Note_on_c, 1, 44, 0
5, 89760, Note_on_c, 1, 39, 127
5, 89856, Note_on_c, 1, 39, 0
5, 89856, Note_on_c, 1, 44, 127
5, 90048, Note_on_c, 1, 44, 0
5, 90048, Note_on_c, 1, 39, 127
5, 90138, Note_on_c, 1, 39, 0
5, 90144, Note_on_c, 1, 38, 127
5, 90240, Note_on_c, 1, 38, 0
5, 90240, Note_on_c, 1, 37, 127
5, 90588, Note_on_c, 1, 37, 0
5, 90624, Note_on_c, 1, 37, 127
5, 90912, Note_on_c, 1, 37, 0
5, 90912, Note_on_c, 1, 44, 127
5, 91008, Note_on_c, 1, 44, 0
5, 91008, Note_on_c, 1, 37, 127
5, 91134, Note_on_c, 1, 37, 0
5, 91200, Note_on_c, 1, 37, 127
5, 91536, Note_on_c, 1, 37, 0
5, 91584, Note_on_c, 1, 37, 127
5, 91776, Note_on_c, 1, 37, 0
5, 91776, Note_on_c, 1, 42, 127
5, 92106, Note_on_c, 1, 42, 0
5, 92160, Note_on_c, 1, 42, 127
5, 92448, Note_on_c, 1, 42, 0
5, 92448, Note_on_c, 1, 37, 127
5, 92544, Note_on_c, 1, 37, 0
5, 92544, Note_on_c, 1, 42, 127
5, 92610, Note_on_c, 1, 42, 0
5, 92640, Note_on_c, 1, 42, 127
5, 92832, Note_on_c, 1, 42, 0
5, 92832, Note_on_c, 1, 37, 127
5, 92928, Note_on_c, 1, 37, 0
5, 92928, Note_on_c, 1, 42, 127
5, 92994, Note_on_c, 1, 42, 0
5, 93024, Note_on_c, 1, 42, 127
5, 93216, Note_on_c, 1, 42, 0
5, 93216, Note_on_c, 1, 37, 127
5, 93312, Note_on_c, 1, 37, 0
5, 93312, Note_on_c, 1, 30, 127
5, 93660, Note_on_c, 1, 30, 0
5, 93696, Note_on_c, 1, 30, 127
5, 94080, Note_on_c, 1, 30, 0
5, 94080, Note_on_c, 1, 32, 127
5, 94464, Note_on_c, 1, 32, 0
5, 94464, Note_on_c, 1, 34, 127
5, 94848, Note_on_c, 1, 35, 127
5, 94854, Note_on_c, 1, 34, 0
5, 95196, Note_on_c, 1, 35, 0
5, 95232, Note_on_c, 1, 35, 127
5, 95520, Note_on_c, 1, 35, 0
5, 95520, Note_on_c, 1, 30, 127
5, 95616, Note_on_c, 1, 30, 0
5, 95616, Note_on_c, 1, 35, 127
5, 95808, Note_on_c, 1, 35, 0
5, 95808, Note_on_c, 1, 37, 127
5, 96000, Note_on_c, 1, 37, 0
5, 96000, Note_on_c, 1, 38, 127
5, 96192, Note_on_c, 1, 38, 0
5, 96192, Note_on_c, 1, 42, 127
5, 96384, Note_on_c, 1, 42, 0
5, 96384, Note_on_c, 1, 40, 127
5, 96672, Note_on_c, 1, 40, 0
5, 96672, Note_on_c, 1, 35, 127
5, 96768, Note_on_c, 1, 35, 0
5, 96768, Note_on_c, 1, 40, 127
5, 96864, Note_on_c, 1, 40, 0
5, 96864, Note_on_c, 1, 38, 127
5, 97026, Note_on_c, 1, 38, 0
5, 97056, Note_on_c, 1, 38, 127
5, 97152, Note_on_c, 1, 38, 0
5, 97152, Note_on_c, 1, 35, 127
5, 97344, Note_on_c, 1, 35, 0
5, 97344, Note_on_c, 1, 33, 127
5, 97536, Note_on_c, 1, 33, 0
5, 97536, Note_on_c, 1, 31, 127
5, 97728, Note_on_c, 1, 31, 0
5, 97728, Note_on_c, 1, 28, 127
5, 97920, Note_on_c, 1, 28, 0
5, 97920, Note_on_c, 1, 33, 127
5, 98184, Note_on_c, 1, 33, 0
5, 98208, Note_on_c, 1, 33, 127
5, 98304, Note_on_c, 1, 33, 0
5, 98304, Note_on_c, 1, 45, 127
5, 98592, Note_on_c, 1, 45, 0
5, 98592, Note_on_c, 1, 40, 127
5, 98688, Note_on_c, 1, 40, 0
5, 98688, Note_on_c, 1, 33, 127
5, 98880, Note_on_c, 1, 33, 0
5, 98880, Note_on_c, 1, 35, 127
5, 99072, Note_on_c, 1, 35, 0
5, 99072, Note_on_c, 1, 37, 127
5, 99264, Note_on_c, 1, 37, 0
5, 99264, Note_on_c, 1, 40, 127
5, 99456, Note_on_c, 1, 40, 0
5, 99456, Note_on_c, 1, 38, 127
5, 99744, Note_on_c, 1, 38, 0
5, 99744, Note_on_c, 1, 45, 127
5, 99840, Note_on_c, 1, 45, 0
5, 99840, Note_on_c, 1, 54, 127
5, 99936, Note_on_c, 1, 54, 0
5, 99936, Note_on_c, 1, 52, 127
5, 100092, Note_on_c, 1, 52, 0
5, 100128, Note_on_c, 1, 50, 127
5, 100284, Note_on_c, 1, 50, 0
5, 100320, Note_on_c, 1, 50, 127
5, 100416, Note_on_c, 1, 50, 0
5, 100416, Note_on_c, 1, 49, 127
5, 100608, Note_on_c, 1, 49, 0
5, 100608, Note_on_c, 1, 47, 127
5, 100800, Note_on_c, 1, 47, 0
5, 100800, Note_on_c, 1, 45, 127
5, 100992, Note_on_c, 1, 45, 0
5, 100992, Note_on_c, 1, 44, 127
5, 101328, Note_on_c, 1, 44, 0
5, 101376, Note_on_c, 1, 44, 127
5, 101664, Note_on_c, 1, 44, 0
5, 101664, Note_on_c, 1, 39, 127
5, 101760, Note_on_c, 1, 39, 0
5, 101760, Note_on_c, 1, 44, 127
5, 102048, Note_on_c, 1, 44, 0
5, 102048, Note_on_c, 1, 39, 127
5, 102144, Note_on_c, 1, 39, 0
5, 102144, Note_on_c, 1, 44, 127
5, 102336, Note_on_c, 1, 44, 0
5, 102336, Note_on_c, 1, 39, 127
5, 102426, Note_on_c, 1, 39, 0
5, 102432, Note_on_c, 1, 38, 127
5, 102528, Note_on_c, 1, 38, 0
5, 102528, Note_on_c, 1, 37, 127
5, 102876, Note_on_c, 1, 37, 0
5, 102912, Note_on_c, 1, 37, 127
5, 103200, Note_on_c, 1, 37, 0
5, 103200, Note_on_c, 1, 44, 127
5, 103296, Note_on_c, 1, 44, 0
5, 103296, Note_on_c, 1, 37, 127
5, 103422, Note_on_c, 1, 37, 0
5, 103488, Note_on_c, 1, 37, 127
5, 103824, Note_on_c, 1, 37, 0
5, 103872, Note_on_c, 1, 37, 127
5, 104064, Note_on_c, 1, 37, 0
5, 104064, Note_on_c, 1, 42, 127
5, 104394, Note_on_c, 1, 42, 0
5, 104448, Note_on_c, 1, 42, 127
5, 104736, Note_on_c, 1, 42, 0
5, 104736, Note_on_c, 1, 37, 127
5, 104832, Note_on_c, 1, 37, 0
5, 104832, Note_on_c, 1, 42, 127
5, 104898, Note_on_c, 1, 42, 0
5, 104928, Note_on_c, 1, 42, 127
5, 105120, Note_on_c, 1, 42, 0
5, 105120, Note_on_c, 1, 37, 127
5, 105216, Note_on_c, 1, 37, 0
5, 105216, Note_on_c, 1, 42, 127
5, 105282, Note_on_c, 1, 42, 0
5, 105312, Note_on_c, 1, 42, 127
5, 105504, Note_on_c, 1, 42, 0
5, 105504, Note_on_c, 1, 37, 127
5, 105600, Note_on_c, 1, 37, 0
5, 105609, Note_on_c, 1, 30, 127
5, 105909, Note_on_c, 1, 30, 0
5, 105984, Note_on_c, 1, 30, 101
5, 106361, Note_on_c, 1, 30, 0
5, 106368, Note_on_c, 1, 31, 101
5, 106752, Note_on_c, 1, 31, 0
5, 106752, Note_on_c, 1, 30, 101
5, 107136, Note_on_c, 1, 30, 0
5, 107136, Note_on_c, 1, 35, 101
5, 110208, Note_on_c, 1, 35, 0
5, 110980, Control_c, 1, 121, 127
5, 110980, End_track
6, 0, Start_track
6, 0, MIDI_port, 0
6, 147, Program_c, 2, 119
6, 148, Control_c, 2, 7, 100
6, 149, Control_c, 2, 10, 64
6, 150, Control_c, 2, 11, 127
6, 151, Control_c, 2, 91, 0
6, 152, Control_c, 2, 93, 10
6, 20736, Note_on_c, 2, 74, 70
6, 20736, Note_on_c, 2, 81, 70
6, 21522, Note_on_c, 2, 81, 0
6, 21522, Note_on_c, 2, 74, 0
6, 51456, Note_on_c, 2, 81, 70
6, 51456, Note_on_c, 2, 74, 70
6, 52242, Note_on_c, 2, 74, 0
6, 52242, Note_on_c, 2, 81, 0
6, 81792, Note_on_c, 2, 81, 70
6, 81792, Note_on_c, 2, 74, 70
6, 82578, Note_on_c, 2, 74, 0
6, 82578, Note_on_c, 2, 81, 0
6, 94080, Note_on_c, 2, 81, 70
6, 94080, Note_on_c, 2, 74, 70
6, 94866, Note_on_c, 2, 74, 0
6, 94866, Note_on_c, 2, 81, 0
6, 111016, Control_c, 2, 121, 127
6, 111016, End_track
7, 0, Start_track
7, 0, MIDI_port, 0
7, 0, Pitch_bend_c, 3, 8192
7, 91, Program_c, 3, 68
7, 92, Control_c, 3, 7, 56
7, 93, Control_c, 3, 10, 64
7, 94, Control_c, 3, 11, 127
7, 95, Control_c, 3, 91, 25
7, 96, Control_c, 3, 93, 0
7, 5184, Note_on_c, 3, 57, 127
7, 5376, Note_on_c, 3, 57, 0
7, 5376, Note_on_c, 3, 62, 127
7, 5568, Note_on_c, 3, 62, 0
7, 5568, Note_on_c, 3, 64, 127
7, 5952, Note_on_c, 3, 64, 0
7, 5952, Note_on_c, 3, 66, 127
7, 6048, Note_on_c, 3, 66, 0
7, 6048, Note_on_c, 3, 67, 127
7, 6144, Note_on_c, 3, 67, 0
7, 6144, Note_on_c, 3, 69, 127
7, 6624, Note_on_c, 3, 69, 0
7, 6720, Note_on_c, 3, 69, 127
7, 6816, Note_on_c, 3, 69, 0
7, 6816, Note_on_c, 3, 69, 127
7, 6912, Note_on_c, 3, 69, 0
7, 6912, Note_on_c, 3, 69, 127
7, 7104, Note_on_c, 3, 69, 0
7, 7104, Note_on_c, 3, 67, 127
7, 7488, Note_on_c, 3, 67, 0
7, 7488, Note_on_c, 3, 66, 127
7, 7584, Note_on_c, 3, 66, 0
7, 7584, Note_on_c, 3, 64, 127
7, 7680, Note_on_c, 3, 64, 0
7, 7680, Note_on_c, 3, 62, 127
7, 8064, Note_on_c, 3, 62, 0
7, 8256, Note_on_c, 3, 62, 127
7, 8352, Note_on_c, 3, 62, 0
7, 8448, Note_on_c, 3, 62, 127
7, 8640, Note_on_c, 3, 62, 0
7, 8640, Note_on_c, 3, 64, 127
7, 9024, Note_on_c, 3, 64, 0
7, 9024, Note_on_c, 3, 66, 127
7, 9120, Note_on_c, 3, 66, 0
7, 9120, Note_on_c, 3, 67, 127
7, 9216, Note_on_c, 3, 67, 0
7, 9216, Note_on_c, 3, 66, 127
7, 9600, Note_on_c, 3, 66, 0
7, 9792, Note_on_c, 3, 66, 127
7, 9888, Note_on_c, 3, 66, 0
7, 9984, Note_on_c, 3, 66, 127
7, 10176, Note_on_c, 3, 66, 0
7, 10176, Note_on_c, 3, 64, 127
7, 10368, Note_on_c, 3, 64, 0
7, 10368, Note_on_c, 3, 62, 127
7, 10560, Note_on_c, 3, 62, 0
7, 10560, Note_on_c, 3, 61, 127
7, 10746, Note_on_c, 3, 61, 0
7, 10764, Note_on_c, 3, 59, 127
7, 12480, Note_on_c, 3, 59, 0
7, 13248, Note_on_c, 3, 71, 127
7, 13344, Note_on_c, 3, 71, 0
7, 13344, Note_on_c, 3, 71, 127
7, 13440, Note_on_c, 3, 71, 0
7, 13440, Note_on_c, 3, 71, 127
7, 13536, Note_on_c, 3, 71, 0
7, 13536, Note_on_c, 3, 71, 127
7, 13632, Note_on_c, 3, 71, 0
7, 13632, Note_on_c, 3, 73, 127
7, 13824, Note_on_c, 3, 73, 0
7, 13824, Note_on_c, 3, 74, 127
7, 14592, Note_on_c, 3, 74, 0
7, 14592, Note_on_c, 3, 76, 127
7, 14784, Note_on_c, 3, 76, 0
7, 14784, Note_on_c, 3, 74, 127
7, 15168, Note_on_c, 3, 74, 0
7, 15168, Note_on_c, 3, 73, 127
7, 15264, Note_on_c, 3, 73, 0
7, 15264, Note_on_c, 3, 71, 127
7, 15360, Note_on_c, 3, 71, 0
7, 15360, Note_on_c, 3, 69, 127
7, 15744, Note_on_c, 3, 69, 0
7, 15936, Note_on_c, 3, 73, 127
7, 16032, Note_on_c, 3, 73, 0
7, 16032, Note_on_c, 3, 73, 127
7, 16128, Note_on_c, 3, 73, 0
7, 16128, Note_on_c, 3, 73, 127
7, 16704, Note_on_c, 3, 73, 0
7, 16704, Note_on_c, 3, 71, 127
7, 16800, Note_on_c, 3, 71, 0
7, 16800, Note_on_c, 3, 69, 127
7, 16896, Note_on_c, 3, 69, 0
7, 16896, Note_on_c, 3, 67, 127
7, 17376, Note_on_c, 3, 67, 0
7, 17472, Note_on_c, 3, 67, 127
7, 17568, Note_on_c, 3, 67, 0
7, 17664, Note_on_c, 3, 67, 127
7, 17760, Note_on_c, 3, 67, 0
7, 17856, Note_on_c, 3, 67, 127
7, 18240, Note_on_c, 3, 67, 0
7, 18240, Note_on_c, 3, 66, 127
7, 18336, Note_on_c, 3, 66, 0
7, 18336, Note_on_c, 3, 64, 127
7, 18432, Note_on_c, 3, 64, 0
7, 18432, Note_on_c, 3, 66, 127
7, 19974, Note_on_c, 3, 66, 0
7, 20352, Note_on_c, 3, 70, 127
7, 20640, Note_on_c, 3, 70, 0
7, 20736, Note_on_c, 3, 71, 127
7, 21024, Note_on_c, 3, 71, 0
7, 21120, Note_on_c, 3, 73, 127
7, 21408, Note_on_c, 3, 73, 0
7, 21504, Note_on_c, 3, 74, 127
7, 21984, Note_on_c, 3, 74, 0
7, 22080, Note_on_c, 3, 73, 127
7, 22176, Note_on_c, 3, 73, 0
7, 22272, Note_on_c, 3, 74, 127
7, 22848, Note_on_c, 3, 74, 0
7, 22848, Note_on_c, 3, 66, 127
7, 22944, Note_on_c, 3, 66, 0
7, 23040, Note_on_c, 3, 67, 127
7, 23520, Note_on_c, 3, 67, 0
7, 23808, Note_on_c, 3, 76, 127
7, 24000, Note_on_c, 3, 76, 0
7, 24096, Note_on_c, 3, 76, 127
7, 24288, Note_on_c, 3, 76, 0
7, 24384, Note_on_c, 3, 74, 127
7, 24480, Note_on_c, 3, 74, 0
7, 24576, Note_on_c, 3, 73, 127
7, 25056, Note_on_c, 3, 73, 0
7, 25152, Note_on_c, 3, 73, 127
7, 25248, Note_on_c, 3, 73, 0
7, 25344, Note_on_c, 3, 73, 127
7, 25920, Note_on_c, 3, 73, 0
7, 25920, Note_on_c, 3, 64, 127
7, 26112, Note_on_c, 3, 64, 0
7, 26112, Note_on_c, 3, 66, 127
7, 26688, Note_on_c, 3, 66, 0
7, 27072, Note_on_c, 3, 66, 127
7, 27168, Note_on_c, 3, 66, 0
7, 27264, Note_on_c, 3, 67, 127
7, 27360, Note_on_c, 3, 67, 0
7, 27360, Note_on_c, 3, 69, 127
7, 27552, Note_on_c, 3, 69, 0
7, 27552, Note_on_c, 3, 71, 127
7, 28512, Note_on_c, 3, 71, 0
7, 28608, Note_on_c, 3, 71, 127
7, 28704, Note_on_c, 3, 71, 0
7, 28800, Note_on_c, 3, 71, 127
7, 28896, Note_on_c, 3, 71, 0
7, 28896, Note_on_c, 3, 73, 127
7, 29088, Note_on_c, 3, 73, 0
7, 29088, Note_on_c, 3, 74, 127
7, 29664, Note_on_c, 3, 74, 0
7, 29760, Note_on_c, 3, 74, 127
7, 29856, Note_on_c, 3, 74, 0
7, 29952, Note_on_c, 3, 73, 127
7, 30528, Note_on_c, 3, 73, 0
7, 30528, Note_on_c, 3, 71, 127
7, 30720, Note_on_c, 3, 71, 0
7, 30720, Note_on_c, 3, 73, 127
7, 32256, Note_on_c, 3, 73, 0
7, 35904, Note_on_c, 3, 57, 127
7, 36096, Note_on_c, 3, 57, 0
7, 36096, Note_on_c, 3, 62, 127
7, 36288, Note_on_c, 3, 62, 0
7, 36288, Note_on_c, 3, 64, 127
7, 36672, Note_on_c, 3, 64, 0
7, 36672, Note_on_c, 3, 66, 127
7, 36768, Note_on_c, 3, 66, 0
7, 36768, Note_on_c, 3, 67, 127
7, 36864, Note_on_c, 3, 67, 0
7, 36864, Note_on_c, 3, 69, 127
7, 37344, Note_on_c, 3, 69, 0
7, 37440, Note_on_c, 3, 69, 127
7, 37536, Note_on_c, 3, 69, 0
7, 37536, Note_on_c, 3, 69, 127
7, 37632, Note_on_c, 3, 69, 0
7, 37632, Note_on_c, 3, 69, 127
7, 37824, Note_on_c, 3, 69, 0
7, 37824, Note_on_c, 3, 67, 127
7, 38208, Note_on_c, 3, 67, 0
7, 38208, Note_on_c, 3, 66, 127
7, 38304, Note_on_c, 3, 66, 0
7, 38304, Note_on_c, 3, 64, 127
7, 38400, Note_on_c, 3, 64, 0
7, 38400, Note_on_c, 3, 62, 127
7, 38784, Note_on_c, 3, 62, 0
7, 38976, Note_on_c, 3, 62, 127
7, 39072, Note_on_c, 3, 62, 0
7, 39168, Note_on_c, 3, 62, 127
7, 39360, Note_on_c, 3, 62, 0
7, 39360, Note_on_c, 3, 64, 127
7, 39744, Note_on_c, 3, 64, 0
7, 39744, Note_on_c, 3, 66, 127
7, 39840, Note_on_c, 3, 66, 0
7, 39840, Note_on_c, 3, 67, 127
7, 39936, Note_on_c, 3, 67, 0
7, 39936, Note_on_c, 3, 66, 127
7, 40320, Note_on_c, 3, 66, 0
7, 40512, Note_on_c, 3, 66, 127
7, 40608, Note_on_c, 3, 66, 0
7, 40704, Note_on_c, 3, 66, 127
7, 40896, Note_on_c, 3, 66, 0
7, 40896, Note_on_c, 3, 64, 127
7, 41088, Note_on_c, 3, 64, 0
7, 41088, Note_on_c, 3, 62, 127
7, 41280, Note_on_c, 3, 62, 0
7, 41280, Note_on_c, 3, 61, 127
7, 41376, Note_on_c, 3, 61, 0
7, 41376, Note_on_c, 3, 59, 127
7, 41472, Note_on_c, 3, 59, 0
7, 41472, Note_on_c, 3, 61, 127
7, 41664, Note_on_c, 3, 61, 0
7, 41664, Note_on_c, 3, 59, 127
7, 43380, Note_on_c, 3, 59, 0
7, 43968, Note_on_c, 3, 71, 127
7, 44064, Note_on_c, 3, 71, 0
7, 44064, Note_on_c, 3, 71, 127
7, 44160, Note_on_c, 3, 71, 0
7, 44160, Note_on_c, 3, 71, 127
7, 44256, Note_on_c, 3, 71, 0
7, 44256, Note_on_c, 3, 71, 127
7, 44352, Note_on_c, 3, 71, 0
7, 44352, Note_on_c, 3, 73, 127
7, 44544, Note_on_c, 3, 73, 0
7, 44544, Note_on_c, 3, 74, 127
7, 45312, Note_on_c, 3, 74, 0
7, 45312, Note_on_c, 3, 76, 127
7, 45504, Note_on_c, 3, 76, 0
7, 45504, Note_on_c, 3, 74, 127
7, 45888, Note_on_c, 3, 74, 0
7, 45888, Note_on_c, 3, 73, 127
7, 45984, Note_on_c, 3, 73, 0
7, 45984, Note_on_c, 3, 71, 127
7, 46080, Note_on_c, 3, 71, 0
7, 46080, Note_on_c, 3, 69, 127
7, 46464, Note_on_c, 3, 69, 0
7, 46656, Note_on_c, 3, 73, 127
7, 46752, Note_on_c, 3, 73, 0
7, 46752, Note_on_c, 3, 73, 127
7, 46848, Note_on_c, 3, 73, 0
7, 46848, Note_on_c, 3, 73, 127
7, 47424, Note_on_c, 3, 73, 0
7, 47424, Note_on_c, 3, 71, 127
7, 47520, Note_on_c, 3, 71, 0
7, 47520, Note_on_c, 3, 69, 127
7, 47616, Note_on_c, 3, 69, 0
7, 47616, Note_on_c, 3, 67, 127
7, 48096, Note_on_c, 3, 67, 0
7, 48192, Note_on_c, 3, 67, 127
7, 48288, Note_on_c, 3, 67, 0
7, 48384, Note_on_c, 3, 67, 127
7, 48480, Note_on_c, 3, 67, 0
7, 48576, Note_on_c, 3, 67, 127
7, 48960, Note_on_c, 3, 67, 0
7, 48960, Note_on_c, 3, 66, 127
7, 49056, Note_on_c, 3, 66, 0
7, 49056, Note_on_c, 3, 64, 127
7, 49152, Note_on_c, 3, 64, 0
7, 49152, Note_on_c, 3, 66, 127
7, 50694, Note_on_c, 3, 66, 0
7, 51072, Note_on_c, 3, 70, 127
7, 51360, Note_on_c, 3, 70, 0
7, 51456, Note_on_c, 3, 71, 127
7, 51744, Note_on_c, 3, 71, 0
7, 51840, Note_on_c, 3, 73, 127
7, 52128, Note_on_c, 3, 73, 0
7, 52224, Note_on_c, 3, 74, 127
7, 52704, Note_on_c, 3, 74, 0
7, 52800, Note_on_c, 3, 73, 127
7, 52896, Note_on_c, 3, 73, 0
7, 52992, Note_on_c, 3, 74, 127
7, 53568, Note_on_c, 3, 74, 0
7, 53568, Note_on_c, 3, 66, 127
7, 53664, Note_on_c, 3, 66, 0
7, 53760, Note_on_c, 3, 67, 127
7, 54240, Note_on_c, 3, 67, 0
7, 54528, Note_on_c, 3, 76, 127
7, 54720, Note_on_c, 3, 76, 0
7, 54816, Note_on_c, 3, 76, 127
7, 55008, Note_on_c, 3, 76, 0
7, 55104, Note_on_c, 3, 74, 127
7, 55200, Note_on_c, 3, 74, 0
7, 55296, Note_on_c, 3, 73, 127
7, 55776, Note_on_c, 3, 73, 0
7, 55872, Note_on_c, 3, 73, 127
7, 55968, Note_on_c, 3, 73, 0
7, 56064, Note_on_c, 3, 73, 127
7, 56640, Note_on_c, 3, 73, 0
7, 56640, Note_on_c, 3, 64, 127
7, 56832, Note_on_c, 3, 64, 0
7, 56832, Note_on_c, 3, 66, 127
7, 57408, Note_on_c, 3, 66, 0
7, 57792, Note_on_c, 3, 66, 127
7, 57888, Note_on_c, 3, 66, 0
7, 57984, Note_on_c, 3, 67, 127
7, 58080, Note_on_c, 3, 67, 0
7, 58080, Note_on_c, 3, 69, 127
7, 58272, Note_on_c, 3, 69, 0
7, 58272, Note_on_c, 3, 71, 127
7, 59232, Note_on_c, 3, 71, 0
7, 59328, Note_on_c, 3, 71, 127
7, 59424, Note_on_c, 3, 71, 0
7, 59520, Note_on_c, 3, 71, 127
7, 59616, Note_on_c, 3, 71, 0
7, 59616, Note_on_c, 3, 73, 127
7, 59808, Note_on_c, 3, 73, 0
7, 59808, Note_on_c, 3, 74, 127
7, 60384, Note_on_c, 3, 74, 0
7, 60480, Note_on_c, 3, 74, 127
7, 60576, Note_on_c, 3, 74, 0
7, 60672, Note_on_c, 3, 73, 127
7, 61248, Note_on_c, 3, 73, 0
7, 61248, Note_on_c, 3, 71, 127
7, 61440, Note_on_c, 3, 71, 0
7, 61440, Note_on_c, 3, 73, 127
7, 62976, Note_on_c, 3, 73, 0
7, 65472, Note_on_c, 3, 57, 127
7, 65664, Note_on_c, 3, 62, 127
7, 65681, Note_on_c, 3, 57, 0
7, 66240, Note_on_c, 3, 57, 127
7, 66432, Note_on_c, 3, 57, 0
7, 66432, Note_on_c, 3, 62, 0
7, 66432, Note_on_c, 3, 62, 127
7, 66624, Note_on_c, 3, 62, 0
7, 66624, Note_on_c, 3, 64, 127
7, 67008, Note_on_c, 3, 64, 0
7, 67008, Note_on_c, 3, 66, 127
7, 67104, Note_on_c, 3, 66, 0
7, 67104, Note_on_c, 3, 67, 127
7, 67200, Note_on_c, 3, 67, 0
7, 67200, Note_on_c, 3, 69, 127
7, 67680, Note_on_c, 3, 69, 0
7, 67776, Note_on_c, 3, 69, 127
7, 67872, Note_on_c, 3, 69, 0
7, 67872, Note_on_c, 3, 69, 127
7, 67968, Note_on_c, 3, 69, 0
7, 67968, Note_on_c, 3, 69, 127
7, 68160, Note_on_c, 3, 69, 0
7, 68160, Note_on_c, 3, 67, 127
7, 68544, Note_on_c, 3, 67, 0
7, 68544, Note_on_c, 3, 66, 127
7, 68640, Note_on_c, 3, 66, 0
7, 68640, Note_on_c, 3, 64, 127
7, 68736, Note_on_c, 3, 64, 0
7, 68736, Note_on_c, 3, 62, 127
7, 69120, Note_on_c, 3, 62, 0
7, 69312, Note_on_c, 3, 62, 127
7, 69408, Note_on_c, 3, 62, 0
7, 69504, Note_on_c, 3, 62, 127
7, 69696, Note_on_c, 3, 62, 0
7, 69696, Note_on_c, 3, 64, 127
7, 70080, Note_on_c, 3, 64, 0
7, 70080, Note_on_c, 3, 66, 127
7, 70176, Note_on_c, 3, 66, 0
7, 70176, Note_on_c, 3, 67, 127
7, 70272, Note_on_c, 3, 67, 0
7, 70272, Note_on_c, 3, 66, 127
7, 70656, Note_on_c, 3, 66, 0
7, 70848, Note_on_c, 3, 66, 127
7, 70944, Note_on_c, 3, 66, 0
7, 71040, Note_on_c, 3, 66, 127
7, 71232, Note_on_c, 3, 66, 0
7, 71232, Note_on_c, 3, 64, 127
7, 71424, Note_on_c, 3, 64, 0
7, 71424, Note_on_c, 3, 62, 127
7, 71616, Note_on_c, 3, 62, 0
7, 71616, Note_on_c, 3, 61, 127
7, 71712, Note_on_c, 3, 61, 0
7, 71712, Note_on_c, 3, 59, 127
7, 71808, Note_on_c, 3, 59, 0
7, 71808, Note_on_c, 3, 61, 127
7, 72000, Note_on_c, 3, 61, 0
7, 72000, Note_on_c, 3, 59, 127
7, 73716, Note_on_c, 3, 59, 0
7, 74304, Note_on_c, 3, 71, 127
7, 74400, Note_on_c, 3, 71, 0
7, 74400, Note_on_c, 3, 71, 127
7, 74496, Note_on_c, 3, 71, 0
7, 74496, Note_on_c, 3, 71, 127
7, 74592, Note_on_c, 3, 71, 0
7, 74592, Note_on_c, 3, 71, 127
7, 74688, Note_on_c, 3, 71, 0
7, 74688, Note_on_c, 3, 73, 127
7, 74880, Note_on_c, 3, 73, 0
7, 74880, Note_on_c, 3, 74, 127
7, 75456, Note_on_c, 3, 76, 127
7, 75648, Note_on_c, 3, 74, 0
7, 75648, Note_on_c, 3, 76, 127
7, 75840, Note_on_c, 3, 76, 0
7, 75840, Note_on_c, 3, 76, 0
7, 75840, Note_on_c, 3, 74, 127
7, 76224, Note_on_c, 3, 74, 0
7, 76224, Note_on_c, 3, 73, 127
7, 76320, Note_on_c, 3, 73, 0
7, 76320, Note_on_c, 3, 71, 127
7, 76416, Note_on_c, 3, 71, 0
7, 76416, Note_on_c, 3, 69, 127
7, 76800, Note_on_c, 3, 69, 0
7, 76992, Note_on_c, 3, 73, 127
7, 77088, Note_on_c, 3, 73, 0
7, 77088, Note_on_c, 3, 73, 127
7, 77184, Note_on_c, 3, 73, 0
7, 77184, Note_on_c, 3, 73, 127
7, 77760, Note_on_c, 3, 73, 0
7, 77760, Note_on_c, 3, 71, 127
7, 77856, Note_on_c, 3, 71, 0
7, 77856, Note_on_c, 3, 69, 127
7, 77952, Note_on_c, 3, 69, 0
7, 77952, Note_on_c, 3, 67, 127
7, 78432, Note_on_c, 3, 67, 0
7, 78528, Note_on_c, 3, 67, 127
7, 78624, Note_on_c, 3, 67, 0
7, 78720, Note_on_c, 3, 67, 127
7, 78816, Note_on_c, 3, 67, 0
7, 78912, Note_on_c, 3, 67, 127
7, 79296, Note_on_c, 3, 67, 0
7, 79296, Note_on_c, 3, 66, 127
7, 79392, Note_on_c, 3, 66, 0
7, 79392, Note_on_c, 3, 64, 127
7, 79488, Note_on_c, 3, 64, 0
7, 79488, Note_on_c, 3, 66, 127
7, 81030, Note_on_c, 3, 66, 0
7, 81408, Note_on_c, 3, 70, 127
7, 81696, Note_on_c, 3, 70, 0
7, 81792, Note_on_c, 3, 71, 127
7, 82080, Note_on_c, 3, 71, 0
7, 82176, Note_on_c, 3, 73, 127
7, 82464, Note_on_c, 3, 73, 0
7, 82560, Note_on_c, 3, 74, 127
7, 83040, Note_on_c, 3, 74, 0
7, 83136, Note_on_c, 3, 73, 127
7, 83232, Note_on_c, 3, 73, 0
7, 83328, Note_on_c, 3, 74, 127
7, 83904, Note_on_c, 3, 74, 0
7, 83904, Note_on_c, 3, 66, 127
7, 84000, Note_on_c, 3, 66, 0
7, 84096, Note_on_c, 3, 67, 127
7, 84576, Note_on_c, 3, 67, 0
7, 84864, Note_on_c, 3, 76, 127
7, 85056, Note_on_c, 3, 76, 0
7, 85152, Note_on_c, 3, 76, 127
7, 85344, Note_on_c, 3, 76, 0
7, 85440, Note_on_c, 3, 74, 127
7, 85536, Note_on_c, 3, 74, 0
7, 85632, Note_on_c, 3, 73, 127
7, 86112, Note_on_c, 3, 73, 0
7, 86208, Note_on_c, 3, 73, 127
7, 86304, Note_on_c, 3, 73, 0
7, 86400, Note_on_c, 3, 73, 127
7, 86976, Note_on_c, 3, 73, 0
7, 86976, Note_on_c, 3, 64, 127
7, 87168, Note_on_c, 3, 64, 0
7, 87168, Note_on_c, 3, 66, 127
7, 87744, Note_on_c, 3, 66, 0
7, 88128, Note_on_c, 3, 66, 127
7, 88224, Note_on_c, 3, 66, 0
7, 88320, Note_on_c, 3, 67, 127
7, 88416, Note_on_c, 3, 67, 0
7, 88416, Note_on_c, 3, 69, 127
7, 88608, Note_on_c, 3, 69, 0
7, 88608, Note_on_c, 3, 71, 127
7, 89568, Note_on_c, 3, 71, 0
7, 89664, Note_on_c, 3, 71, 127
7, 89760, Note_on_c, 3, 71, 0
7, 89856, Note_on_c, 3, 71, 127
7, 89952, Note_on_c, 3, 71, 0
7, 89952, Note_on_c, 3, 73, 127
7, 90144, Note_on_c, 3, 73, 0
7, 90144, Note_on_c, 3, 74, 127
7, 90720, Note_on_c, 3, 74, 0
7, 90816, Note_on_c, 3, 74, 127
7, 90912, Note_on_c, 3, 74, 0
7, 91008, Note_on_c, 3, 73, 127
7, 91584, Note_on_c, 3, 73, 0
7, 91584, Note_on_c, 3, 71, 127
7, 91776, Note_on_c, 3, 71, 0
7, 91776, Note_on_c, 3, 73, 127
7, 93312, Note_on_c, 3, 73, 0
7, 93696, Note_on_c, 3, 70, 127
7, 93984, Note_on_c, 3, 70, 0
7, 94080, Note_on_c, 3, 71, 127
7, 94368, Note_on_c, 3, 71, 0
7, 94464, Note_on_c, 3, 73, 127
7, 94752, Note_on_c, 3, 73, 0
7, 94848, Note_on_c, 3, 74, 127
7, 95328, Note_on_c, 3, 74, 0
7, 95424, Note_on_c, 3, 73, 127
7, 95520, Note_on_c, 3, 73, 0
7, 95616, Note_on_c, 3, 74, 127
7, 96192, Note_on_c, 3, 74, 0
7, 96192, Note_on_c, 3, 66, 127
7, 96288, Note_on_c, 3, 66, 0
7, 96384, Note_on_c, 3, 67, 127
7, 96864, Note_on_c, 3, 67, 0
7, 97152, Note_on_c, 3, 76, 127
7, 97344, Note_on_c, 3, 76, 0
7, 97440, Note_on_c, 3, 76, 127
7, 97632, Note_on_c, 3, 76, 0
7, 97728, Note_on_c, 3, 74, 127
7, 97824, Note_on_c, 3, 74, 0
7, 97920, Note_on_c, 3, 73, 127
7, 98400, Note_on_c, 3, 73, 0
7, 98496, Note_on_c, 3, 73, 127
7, 98592, Note_on_c, 3, 73, 0
7, 98688, Note_on_c, 3, 73, 127
7, 99264, Note_on_c, 3, 73, 0
7, 99264, Note_on_c, 3, 64, 127
7, 99456, Note_on_c, 3, 64, 0
7, 99456, Note_on_c, 3, 66, 127
7, 100032, Note_on_c, 3, 66, 0
7, 100416, Note_on_c, 3, 66, 127
7, 100512, Note_on_c, 3, 66, 0
7, 100608, Note_on_c, 3, 67, 127
7, 100704, Note_on_c, 3, 67, 0
7, 100704, Note_on_c, 3, 69, 127
7, 100896, Note_on_c, 3, 69, 0
7, 100896, Note_on_c, 3, 71, 127
7, 101856, Note_on_c, 3, 71, 0
7, 101952, Note_on_c, 3, 71, 127
7, 102048, Note_on_c, 3, 71, 0
7, 102144, Note_on_c, 3, 71, 127
7, 102240, Note_on_c, 3, 71, 0
7, 102240, Note_on_c, 3, 73, 127
7, 102432, Note_on_c, 3, 73, 0
7, 102432, Note_on_c, 3, 74, 127
7, 103008, Note_on_c, 3, 74, 0
7, 103104, Note_on_c, 3, 74, 127
7, 103200, Note_on_c, 3, 74, 0
7, 103296, Note_on_c, 3, 73, 127
7, 103872, Note_on_c, 3, 73, 0
7, 103872, Note_on_c, 3, 71, 127
7, 104064, Note_on_c, 3, 71, 0
7, 104064, Note_on_c, 3, 73, 127
7, 105600, Note_on_c, 3, 73, 0
7, 110988, Control_c, 3, 121, 127
7, 110988, End_track
8, 0, Start_track
8, 0, MIDI_port, 0
8, 155, Program_c, 4, 25
8, 156, Control_c, 4, 7, 105
8, 157, Control_c, 4, 10, 107
8, 158, Control_c, 4, 11, 127
8, 159, Control_c, 4, 91, 20
8, 160, Control_c, 4, 93, 30
8, 2880, Note_on_c, 4, 45, 80
8, 3072, Note_on_c, 4, 45, 0
8, 3072, Note_on_c, 4, 50, 100
8, 3264, Note_on_c, 4, 54, 80
8, 3456, Note_on_c, 4, 57, 100
8, 3648, Note_on_c, 4, 66, 98
8, 4032, Note_on_c, 4, 62, 98
8, 4224, Note_on_c, 4, 54, 0
8, 4224, Note_on_c, 4, 52, 100
8, 4320, Note_on_c, 4, 52, 0
8, 4320, Note_on_c, 4, 54, 85
8, 4416, Note_on_c, 4, 57, 0
8, 4416, Note_on_c, 4, 57, 80
8, 4608, Note_on_c, 4, 50, 0
8, 4608, Note_on_c, 4, 50, 100
8, 4800, Note_on_c, 4, 54, 0
8, 4800, Note_on_c, 4, 54, 80
8, 4992, Note_on_c, 4, 57, 0
8, 4992, Note_on_c, 4, 57, 100
8, 5184, Note_on_c, 4, 66, 0
8, 5184, Note_on_c, 4, 66, 98
8, 5568, Note_on_c, 4, 62, 0
8, 5568, Note_on_c, 4, 62, 98
8, 5760, Note_on_c, 4, 57, 0
8, 5760, Note_on_c, 4, 57, 88
8, 5952, Note_on_c, 4, 62, 0
8, 5952, Note_on_c, 4, 62, 81
8, 6144, Note_on_c, 4, 62, 0
8, 6144, Note_on_c, 4, 57, 0
8, 6144, Note_on_c, 4, 50, 0
8, 6144, Note_on_c, 4, 54, 0
8, 6144, Note_on_c, 4, 66, 0
8, 6144, Note_on_c, 4, 49, 100
8, 6336, Note_on_c, 4, 52, 80
8, 6528, Note_on_c, 4, 57, 97
8, 6720, Note_on_c, 4, 64, 100
8, 7104, Note_on_c, 4, 61, 80
8, 7296, Note_on_c, 4, 52, 0
8, 7296, Note_on_c, 4, 52, 100
8, 7488, Note_on_c, 4, 57, 0
8, 7488, Note_on_c, 4, 57, 80
8, 7680, Note_on_c, 4, 57, 0
8, 7680, Note_on_c, 4, 52, 0
8, 7680, Note_on_c, 4, 49, 0
8, 7680, Note_on_c, 4, 64, 0
8, 7680, Note_on_c, 4, 61, 0
8, 7680, Note_on_c, 4, 47, 100
8, 7872, Note_on_c, 4, 54, 80
8, 8064, Note_on_c, 4, 59, 94
8, 8256, Note_on_c, 4, 62, 100
8, 8640, Note_on_c, 4, 59, 0
8, 8640, Note_on_c, 4, 59, 80
8, 8832, Note_on_c, 4, 54, 0
8, 8832, Note_on_c, 4, 54, 100
8, 9024, Note_on_c, 4, 59, 0
8, 9024, Note_on_c, 4, 59, 80
8, 9216, Note_on_c, 4, 59, 0
8, 9216, Note_on_c, 4, 54, 0
8, 9216, Note_on_c, 4, 47, 0
8, 9216, Note_on_c, 4, 62, 0
8, 9216, Note_on_c, 4, 42, 100
8, 9408, Note_on_c, 4, 54, 80
8, 9600, Note_on_c, 4, 57, 104
8, 9792, Note_on_c, 4, 66, 100
8, 10176, Note_on_c, 4, 61, 80
8, 10368, Note_on_c, 4, 54, 0
8, 10368, Note_on_c, 4, 54, 100
8, 10560, Note_on_c, 4, 57, 0
8, 10560, Note_on_c, 4, 57, 80
8, 10752, Note_on_c, 4, 57, 0
8, 10752, Note_on_c, 4, 54, 0
8, 10752, Note_on_c, 4, 42, 0
8, 10752, Note_on_c, 4, 66, 0
8, 10752, Note_on_c, 4, 61, 0
8, 10752, Note_on_c, 4, 47, 100
8, 10944, Note_on_c, 4, 54, 80
8, 11136, Note_on_c, 4, 59, 94
8, 11328, Note_on_c, 4, 62, 100
8, 11712, Note_on_c, 4, 59, 0
8, 11712, Note_on_c, 4, 59, 80
8, 11904, Note_on_c, 4, 54, 0
8, 11904, Note_on_c, 4, 54, 100
8, 12096, Note_on_c, 4, 59, 0
8, 12096, Note_on_c, 4, 59, 80
8, 12288, Note_on_c, 4, 47, 0
8, 12288, Note_on_c, 4, 47, 100
8, 12480, Note_on_c, 4, 54, 0
8, 12480, Note_on_c, 4, 54, 80
8, 12672, Note_on_c, 4, 59, 0
8, 12672, Note_on_c, 4, 59, 83
8, 12864, Note_on_c, 4, 54, 0
8, 12864, Note_on_c, 4, 54, 100
8, 13056, Note_on_c, 4, 62, 0
8, 13056, Note_on_c, 4, 62, 97
8, 13248, Note_on_c, 4, 59, 0
8, 13248, Note_on_c, 4, 59, 80
8, 13440, Note_on_c, 4, 54, 0
8, 13440, Note_on_c, 4, 54, 100
8, 13632, Note_on_c, 4, 47, 0
8, 13632, Note_on_c, 4, 47, 80
8, 13824, Note_on_c, 4, 47, 0
8, 13824, Note_on_c, 4, 54, 0
8, 13824, Note_on_c, 4, 62, 0
8, 13824, Note_on_c, 4, 59, 0
8, 13824, Note_on_c, 4, 43, 100
8, 14016, Note_on_c, 4, 59, 80
8, 14208, Note_on_c, 4, 62, 104
8, 14400, Note_on_c, 4, 66, 100
8, 14784, Note_on_c, 4, 62, 0
8, 14784, Note_on_c, 4, 62, 80
8, 14976, Note_on_c, 4, 59, 0
8, 14976, Note_on_c, 4, 59, 100
8, 15168, Note_on_c, 4, 55, 80
8, 15360, Note_on_c, 4, 55, 0
8, 15360, Note_on_c, 4, 66, 0
8, 15360, Note_on_c, 4, 62, 0
8, 15360, Note_on_c, 4, 43, 0
8, 15360, Note_on_c, 4, 59, 0
8, 15360, Note_on_c, 4, 42, 100
8, 15552, Note_on_c, 4, 57, 80
8, 15744, Note_on_c, 4, 61, 73
8, 15936, Note_on_c, 4, 64, 100
8, 16320, Note_on_c, 4, 54, 80
8, 16512, Note_on_c, 4, 57, 0
8, 16512, Note_on_c, 4, 57, 100
8, 16704, Note_on_c, 4, 61, 0
8, 16704, Note_on_c, 4, 61, 80
8, 16896, Note_on_c, 4, 61, 0
8, 16896, Note_on_c, 4, 57, 0
8, 16896, Note_on_c, 4, 42, 0
8, 16896, Note_on_c, 4, 64, 0
8, 16896, Note_on_c, 4, 54, 0
8, 16896, Note_on_c, 4, 40, 100
8, 17088, Note_on_c, 4, 59, 80
8, 17280, Note_on_c, 4, 62, 94
8, 17472, Note_on_c, 4, 67, 100
8, 17856, Note_on_c, 4, 55, 80
8, 18048, Note_on_c, 4, 62, 0
8, 18048, Note_on_c, 4, 62, 100
8, 18240, Note_on_c, 4, 59, 0
8, 18240, Note_on_c, 4, 59, 80
8, 18432, Note_on_c, 4, 59, 0
8, 18432, Note_on_c, 4, 62, 0
8, 18432, Note_on_c, 4, 40, 0
8, 18432, Note_on_c, 4, 67, 0
8, 18432, Note_on_c, 4, 55, 0
8, 18432, Note_on_c, 4, 42, 100
8, 18624, Note_on_c, 4, 54, 80
8, 18816, Note_on_c, 4, 59, 101
8, 19008, Note_on_c, 4, 61, 100
8, 19392, Note_on_c, 4, 66, 80
8, 19584, Note_on_c, 4, 61, 0
8, 19584, Note_on_c, 4, 61, 100
8, 19776, Note_on_c, 4, 59, 0
8, 19776, Note_on_c, 4, 59, 80
8, 19968, Note_on_c, 4, 59, 0
8, 19968, Note_on_c, 4, 61, 0
8, 19968, Note_on_c, 4, 42, 0
8, 19968, Note_on_c, 4, 54, 0
8, 19968, Note_on_c, 4, 66, 0
8, 19968, Note_on_c, 4, 58, 100
8, 19968, Note_on_c, 4, 66, 100
8, 19968, Note_on_c, 4, 54, 100
8, 19968, Note_on_c, 4, 61, 100
8, 20310, Note_on_c, 4, 61, 0
8, 20310, Note_on_c, 4, 58, 0
8, 20352, Note_on_c, 4, 61, 95
8, 20352, Note_on_c, 4, 58, 100
8, 20694, Note_on_c, 4, 58, 0
8, 20694, Note_on_c, 4, 61, 0
8, 20694, Note_on_c, 4, 54, 0
8, 20736, Note_on_c, 4, 61, 68
8, 20736, Note_on_c, 4, 54, 76
8, 20736, Note_on_c, 4, 59, 113
8, 21078, Note_on_c, 4, 59, 0
8, 21078, Note_on_c, 4, 61, 0
8, 21120, Note_on_c, 4, 61, 100
8, 21120, Note_on_c, 4, 58, 100
8, 21504, Note_on_c, 4, 58, 0
8, 21504, Note_on_c, 4, 66, 0
8, 21504, Note_on_c, 4, 54, 0
8, 21504, Note_on_c, 4, 61, 0
8, 21504, Note_on_c, 4, 47, 104
8, 21696, Note_on_c, 4, 54, 71
8, 21888, Note_on_c, 4, 59, 97
8, 22080, Note_on_c, 4, 62, 104
8, 22464, Note_on_c, 4, 59, 0
8, 22464, Note_on_c, 4, 59, 94
8, 22656, Note_on_c, 4, 54, 0
8, 22656, Note_on_c, 4, 54, 76
8, 22848, Note_on_c, 4, 47, 0
8, 22848, Note_on_c, 4, 47, 73
8, 23040, Note_on_c, 4, 47, 0
8, 23040, Note_on_c, 4, 54, 0
8, 23040, Note_on_c, 4, 62, 0
8, 23040, Note_on_c, 4, 59, 0
8, 23040, Note_on_c, 4, 52, 91
8, 23232, Note_on_c, 4, 55, 73
8, 23424, Note_on_c, 4, 59, 83
8, 23616, Note_on_c, 4, 64, 101
8, 24000, Note_on_c, 4, 59, 0
8, 24000, Note_on_c, 4, 59, 86
8, 24192, Note_on_c, 4, 55, 0
8, 24192, Note_on_c, 4, 55, 104
8, 24384, Note_on_c, 4, 52, 0
8, 24384, Note_on_c, 4, 52, 88
8, 24576, Note_on_c, 4, 52, 0
8, 24576, Note_on_c, 4, 55, 0
8, 24576, Note_on_c, 4, 64, 0
8, 24576, Note_on_c, 4, 59, 0
8, 24576, Note_on_c, 4, 45, 88
8, 24768, Note_on_c, 4, 52, 73
8, 24960, Note_on_c, 4, 57, 94
8, 25152, Note_on_c, 4, 61, 73
8, 25536, Note_on_c, 4, 57, 0
8, 25536, Note_on_c, 4, 57, 88
8, 25728, Note_on_c, 4, 52, 0
8, 25728, Note_on_c, 4, 52, 83
8, 25920, Note_on_c, 4, 45, 0
8, 25920, Note_on_c, 4, 45, 83
8, 26112, Note_on_c, 4, 45, 0
8, 26112, Note_on_c, 4, 52, 0
8, 26112, Note_on_c, 4, 61, 0
8, 26112, Note_on_c, 4, 57, 0
8, 26112, Note_on_c, 4, 50, 97
8, 26304, Note_on_c, 4, 54, 80
8, 26496, Note_on_c, 4, 57, 101
8, 26688, Note_on_c, 4, 61, 95
8, 27072, Note_on_c, 4, 57, 0
8, 27072, Note_on_c, 4, 57, 104
8, 27264, Note_on_c, 4, 54, 0
8, 27264, Note_on_c, 4, 54, 87
8, 27456, Note_on_c, 4, 50, 0
8, 27456, Note_on_c, 4, 50, 91
8, 27648, Note_on_c, 4, 50, 0
8, 27648, Note_on_c, 4, 54, 0
8, 27648, Note_on_c, 4, 61, 0
8, 27648, Note_on_c, 4, 57, 0
8, 27648, Note_on_c, 4, 44, 91
8, 27840, Note_on_c, 4, 54, 71
8, 28032, Note_on_c, 4, 59, 97
8, 28224, Note_on_c, 4, 62, 101
8, 28608, Note_on_c, 4, 59, 0
8, 28608, Note_on_c, 4, 59, 94
8, 28800, Note_on_c, 4, 54, 0
8, 28800, Note_on_c, 4, 54, 87
8, 28992, Note_on_c, 4, 54, 0
8, 28992, Note_on_c, 4, 59, 0
8, 28992, Note_on_c, 4, 44, 0
8, 28992, Note_on_c, 4, 62, 0
8, 28992, Note_on_c, 4, 44, 71
8, 29184, Note_on_c, 4, 44, 0
8, 29184, Note_on_c, 4, 49, 91
8, 29376, Note_on_c, 4, 56, 83
8, 29568, Note_on_c, 4, 59, 104
8, 29760, Note_on_c, 4, 65, 101
8, 30144, Note_on_c, 4, 59, 0
8, 30144, Note_on_c, 4, 59, 101
8, 30336, Note_on_c, 4, 56, 0
8, 30336, Note_on_c, 4, 56, 91
8, 30528, Note_on_c, 4, 49, 0
8, 30528, Note_on_c, 4, 49, 87
8, 30720, Note_on_c, 4, 49, 0
8, 30720, Note_on_c, 4, 56, 0
8, 30720, Note_on_c, 4, 65, 0
8, 30720, Note_on_c, 4, 59, 0
8, 30720, Note_on_c, 4, 54, 87
8, 30912, Note_on_c, 4, 59, 83
8, 31104, Note_on_c, 4, 61, 80
8, 31296, Note_on_c, 4, 66, 91
8, 31680, Note_on_c, 4, 61, 0
8, 31680, Note_on_c, 4, 61, 91
8, 31872, Note_on_c, 4, 59, 0
8, 31872, Note_on_c, 4, 59, 104
8, 32064, Note_on_c, 4, 66, 0
8, 32064, Note_on_c, 4, 54, 0
8, 32064, Note_on_c, 4, 54, 95
8, 32256, Note_on_c, 4, 61, 0
8, 32256, Note_on_c, 4, 59, 0
8, 32256, Note_on_c, 4, 58, 87
8, 32257, Note_on_c, 4, 61, 104
8, 32406, Note_on_c, 4, 61, 0
8, 32406, Note_on_c, 4, 58, 0
8, 32406, Note_on_c, 4, 54, 0
8, 33792, Note_on_c, 4, 50, 100
8, 33984, Note_on_c, 4, 54, 80
8, 34176, Note_on_c, 4, 57, 100
8, 34368, Note_on_c, 4, 66, 98
8, 34752, Note_on_c, 4, 62, 98
8, 34944, Note_on_c, 4, 54, 0
8, 34944, Note_on_c, 4, 52, 100
8, 35040, Note_on_c, 4, 52, 0
8, 35040, Note_on_c, 4, 54, 85
8, 35136, Note_on_c, 4, 57, 0
8, 35136, Note_on_c, 4, 57, 80
8, 35328, Note_on_c, 4, 50, 0
8, 35328, Note_on_c, 4, 50, 100
8, 35520, Note_on_c, 4, 54, 0
8, 35520, Note_on_c, 4, 54, 80
8, 35712, Note_on_c, 4, 57, 0
8, 35712, Note_on_c, 4, 57, 100
8, 35904, Note_on_c, 4, 66, 0
8, 35904, Note_on_c, 4, 66, 98
8, 36288, Note_on_c, 4, 62, 0
8, 36288, Note_on_c, 4, 62, 98
8, 36480, Note_on_c, 4, 57, 0
8, 36480, Note_on_c, 4, 57, 88
8, 36672, Note_on_c, 4, 62, 0
8, 36672, Note_on_c, 4, 62, 81
8, 36864, Note_on_c, 4, 62, 0
8, 36864, Note_on_c, 4, 57, 0
8, 36864, Note_on_c, 4, 50, 0
8, 36864, Note_on_c, 4, 54, 0
8, 36864, Note_on_c, 4, 66, 0
8, 36864, Note_on_c, 4, 49, 100
8, 37056, Note_on_c, 4, 52, 80
8, 37248, Note_on_c, 4, 57, 97
8, 37440, Note_on_c, 4, 64, 100
8, 37824, Note_on_c, 4, 61, 80
8, 38016, Note_on_c, 4, 52, 0
8, 38016, Note_on_c, 4, 52, 100
8, 38208, Note_on_c, 4, 57, 0
8, 38208, Note_on_c, 4, 57, 80
8, 38400, Note_on_c, 4, 57, 0
8, 38400, Note_on_c, 4, 52, 0
8, 38400, Note_on_c, 4, 49, 0
8, 38400, Note_on_c, 4, 64, 0
8, 38400, Note_on_c, 4, 61, 0
8, 38400, Note_on_c, 4, 47, 100
8, 38592, Note_on_c, 4, 54, 80
8, 38784, Note_on_c, 4, 59, 94
8, 38976, Note_on_c, 4, 62, 100
8, 39360, Note_on_c, 4, 59, 0
8, 39360, Note_on_c, 4, 59, 80
8, 39552, Note_on_c, 4, 54, 0
8, 39552, Note_on_c, 4, 54, 100
8, 39744, Note_on_c, 4, 59, 0
8, 39744, Note_on_c, 4, 59, 80
8, 39936, Note_on_c, 4, 59, 0
8, 39936, Note_on_c, 4, 54, 0
8, 39936, Note_on_c, 4, 47, 0
8, 39936, Note_on_c, 4, 62, 0
8, 39936, Note_on_c, 4, 42, 100
8, 40128, Note_on_c, 4, 54, 80
8, 40320, Note_on_c, 4, 57, 104
8, 40512, Note_on_c, 4, 66, 100
8, 40896, Note_on_c, 4, 61, 80
8, 41088, Note_on_c, 4, 54, 0
8, 41088, Note_on_c, 4, 54, 100
8, 41280, Note_on_c, 4, 57, 0
8, 41280, Note_on_c, 4, 57, 80
8, 41472, Note_on_c, 4, 57, 0
8, 41472, Note_on_c, 4, 54, 0
8, 41472, Note_on_c, 4, 42, 0
8, 41472, Note_on_c, 4, 66, 0
8, 41472, Note_on_c, 4, 61, 0
8, 41472, Note_on_c, 4, 47, 100
8, 41664, Note_on_c, 4, 54, 80
8, 41856, Note_on_c, 4, 59, 94
8, 42048, Note_on_c, 4, 62, 100
8, 42432, Note_on_c, 4, 59, 0
8, 42432, Note_on_c, 4, 59, 80
8, 42624, Note_on_c, 4, 54, 0
8, 42624, Note_on_c, 4, 54, 100
8, 42816, Note_on_c, 4, 59, 0
8, 42816, Note_on_c, 4, 59, 80
8, 43008, Note_on_c, 4, 47, 0
8, 43008, Note_on_c, 4, 47, 100
8, 43200, Note_on_c, 4, 54, 0
8, 43200, Note_on_c, 4, 54, 80
8, 43392, Note_on_c, 4, 59, 0
8, 43392, Note_on_c, 4, 59, 83
8, 43584, Note_on_c, 4, 54, 0
8, 43584, Note_on_c, 4, 54, 100
8, 43776, Note_on_c, 4, 62, 0
8, 43776, Note_on_c, 4, 62, 97
8, 43968, Note_on_c, 4, 59, 0
8, 43968, Note_on_c, 4, 59, 80
8, 44160, Note_on_c, 4, 54, 0
8, 44160, Note_on_c, 4, 54, 100
8, 44352, Note_on_c, 4, 47, 0
8, 44352, Note_on_c, 4, 47, 80
8, 44544, Note_on_c, 4, 47, 0
8, 44544, Note_on_c, 4, 54, 0
8, 44544, Note_on_c, 4, 62, 0
8, 44544, Note_on_c, 4, 59, 0
8, 44544, Note_on_c, 4, 43, 100
8, 44736, Note_on_c, 4, 59, 80
8, 44928, Note_on_c, 4, 62, 104
8, 45120, Note_on_c, 4, 66, 100
8, 45504, Note_on_c, 4, 62, 0
8, 45504, Note_on_c, 4, 62, 80
8, 45696, Note_on_c, 4, 59, 0
8, 45696, Note_on_c, 4, 59, 100
8, 45888, Note_on_c, 4, 55, 80
8, 46080, Note_on_c, 4, 55, 0
8, 46080, Note_on_c, 4, 66, 0
8, 46080, Note_on_c, 4, 62, 0
8, 46080, Note_on_c, 4, 43, 0
8, 46080, Note_on_c, 4, 59, 0
8, 46080, Note_on_c, 4, 42, 100
8, 46272, Note_on_c, 4, 57, 80
8, 46464, Note_on_c, 4, 61, 73
8, 46656, Note_on_c, 4, 64, 100
8, 47040, Note_on_c, 4, 54, 80
8, 47232, Note_on_c, 4, 57, 0
8, 47232, Note_on_c, 4, 57, 100
8, 47424, Note_on_c, 4, 61, 0
8, 47424, Note_on_c, 4, 61, 80
8, 47616, Note_on_c, 4, 61, 0
8, 47616, Note_on_c, 4, 57, 0
8, 47616, Note_on_c, 4, 42, 0
8, 47616, Note_on_c, 4, 64, 0
8, 47616, Note_on_c, 4, 54, 0
8, 47616, Note_on_c, 4, 40, 100
8, 47808, Note_on_c, 4, 59, 80
8, 48000, Note_on_c, 4, 62, 94
8, 48192, Note_on_c, 4, 67, 100
8, 48576, Note_on_c, 4, 55, 80
8, 48768, Note_on_c, 4, 62, 0
8, 48768, Note_on_c, 4, 62, 100
8, 48960, Note_on_c, 4, 59, 0
8, 48960, Note_on_c, 4, 59, 80
8, 49152, Note_on_c, 4, 59, 0
8, 49152, Note_on_c, 4, 62, 0
8, 49152, Note_on_c, 4, 40, 0
8, 49152, Note_on_c, 4, 67, 0
8, 49152, Note_on_c, 4, 55, 0
8, 49152, Note_on_c, 4, 42, 100
8, 49344, Note_on_c, 4, 54, 80
8, 49536, Note_on_c, 4, 59, 101
8, 49728, Note_on_c, 4, 61, 100
8, 50112, Note_on_c, 4, 66, 80
8, 50304, Note_on_c, 4, 61, 0
8, 50304, Note_on_c, 4, 61, 100
8, 50496, Note_on_c, 4, 59, 0
8, 50496, Note_on_c, 4, 59, 80
8, 50688, Note_on_c, 4, 59, 0
8, 50688, Note_on_c, 4, 61, 0
8, 50688, Note_on_c, 4, 42, 0
8, 50688, Note_on_c, 4, 54, 0
8, 50688, Note_on_c, 4, 66, 0
8, 50688, Note_on_c, 4, 61, 100
8, 50688, Note_on_c, 4, 54, 100
8, 50688, Note_on_c, 4, 58, 100
8, 50688, Note_on_c, 4, 66, 100
8, 51030, Note_on_c, 4, 58, 0
8, 51030, Note_on_c, 4, 61, 0
8, 51072, Note_on_c, 4, 61, 95
8, 51072, Note_on_c, 4, 58, 100
8, 51414, Note_on_c, 4, 58, 0
8, 51414, Note_on_c, 4, 61, 0
8, 51414, Note_on_c, 4, 54, 0
8, 51456, Note_on_c, 4, 61, 68
8, 51456, Note_on_c, 4, 59, 113
8, 51456, Note_on_c, 4, 54, 76
8, 51798, Note_on_c, 4, 59, 0
8, 51798, Note_on_c, 4, 61, 0
8, 51840, Note_on_c, 4, 61, 100
8, 51840, Note_on_c, 4, 58, 100
8, 52224, Note_on_c, 4, 58, 0
8, 52224, Note_on_c, 4, 54, 0
8, 52224, Note_on_c, 4, 66, 0
8, 52224, Note_on_c, 4, 61, 0
8, 52224, Note_on_c, 4, 47, 104
8, 52416, Note_on_c, 4, 54, 71
8, 52608, Note_on_c, 4, 59, 97
8, 52800, Note_on_c, 4, 62, 104
8, 53184, Note_on_c, 4, 59, 0
8, 53184, Note_on_c, 4, 59, 94
8, 53376, Note_on_c, 4, 54, 0
8, 53376, Note_on_c, 4, 54, 76
8, 53568, Note_on_c, 4, 47, 0
8, 53568, Note_on_c, 4, 47, 73
8, 53760, Note_on_c, 4, 47, 0
8, 53760, Note_on_c, 4, 54, 0
8, 53760, Note_on_c, 4, 62, 0
8, 53760, Note_on_c, 4, 59, 0
8, 53760, Note_on_c, 4, 52, 91
8, 53952, Note_on_c, 4, 55, 73
8, 54144, Note_on_c, 4, 59, 83
8, 54336, Note_on_c, 4, 64, 101
8, 54720, Note_on_c, 4, 59, 0
8, 54720, Note_on_c, 4, 59, 86
8, 54912, Note_on_c, 4, 55, 0
8, 54912, Note_on_c, 4, 55, 104
8, 55104, Note_on_c, 4, 52, 0
8, 55104, Note_on_c, 4, 52, 88
8, 55296, Note_on_c, 4, 52, 0
8, 55296, Note_on_c, 4, 55, 0
8, 55296, Note_on_c, 4, 64, 0
8, 55296, Note_on_c, 4, 59, 0
8, 55296, Note_on_c, 4, 45, 88
8, 55488, Note_on_c, 4, 52, 73
8, 55680, Note_on_c, 4, 57, 94
8, 55872, Note_on_c, 4, 61, 73
8, 56256, Note_on_c, 4, 57, 0
8, 56256, Note_on_c, 4, 57, 88
8, 56448, Note_on_c, 4, 52, 0
8, 56448, Note_on_c, 4, 52, 83
8, 56640, Note_on_c, 4, 45, 0
8, 56640, Note_on_c, 4, 45, 83
8, 56832, Note_on_c, 4, 45, 0
8, 56832, Note_on_c, 4, 52, 0
8, 56832, Note_on_c, 4, 61, 0
8, 56832, Note_on_c, 4, 57, 0
8, 56832, Note_on_c, 4, 50, 97
8, 57024, Note_on_c, 4, 54, 80
8, 57216, Note_on_c, 4, 57, 101
8, 57408, Note_on_c, 4, 61, 95
8, 57792, Note_on_c, 4, 57, 0
8, 57792, Note_on_c, 4, 57, 104
8, 57984, Note_on_c, 4, 54, 0
8, 57984, Note_on_c, 4, 54, 87
8, 58176, Note_on_c, 4, 50, 0
8, 58176, Note_on_c, 4, 50, 91
8, 58368, Note_on_c, 4, 50, 0
8, 58368, Note_on_c, 4, 54, 0
8, 58368, Note_on_c, 4, 61, 0
8, 58368, Note_on_c, 4, 57, 0
8, 58368, Note_on_c, 4, 44, 91
8, 58560, Note_on_c, 4, 54, 71
8, 58752, Note_on_c, 4, 59, 97
8, 58944, Note_on_c, 4, 62, 101
8, 59328, Note_on_c, 4, 59, 0
8, 59328, Note_on_c, 4, 59, 94
8, 59520, Note_on_c, 4, 54, 0
8, 59520, Note_on_c, 4, 54, 87
8, 59712, Note_on_c, 4, 54, 0
8, 59712, Note_on_c, 4, 59, 0
8, 59712, Note_on_c, 4, 44, 0
8, 59712, Note_on_c, 4, 62, 0
8, 59712, Note_on_c, 4, 44, 71
8, 59904, Note_on_c, 4, 44, 0
8, 59904, Note_on_c, 4, 49, 91
8, 60096, Note_on_c, 4, 56, 83
8, 60288, Note_on_c, 4, 59, 104
8, 60480, Note_on_c, 4, 65, 101
8, 60864, Note_on_c, 4, 59, 0
8, 60864, Note_on_c, 4, 59, 101
8, 61056, Note_on_c, 4, 56, 0
8, 61056, Note_on_c, 4, 56, 91
8, 61248, Note_on_c, 4, 49, 0
8, 61248, Note_on_c, 4, 49, 87
8, 61440, Note_on_c, 4, 49, 0
8, 61440, Note_on_c, 4, 56, 0
8, 61440, Note_on_c, 4, 65, 0
8, 61440, Note_on_c, 4, 59, 0
8, 61440, Note_on_c, 4, 54, 87
8, 61632, Note_on_c, 4, 59, 83
8, 61824, Note_on_c, 4, 61, 80
8, 62016, Note_on_c, 4, 66, 91
8, 62400, Note_on_c, 4, 61, 0
8, 62400, Note_on_c, 4, 61, 91
8, 62592, Note_on_c, 4, 59, 0
8, 62592, Note_on_c, 4, 59, 104
8, 62784, Note_on_c, 4, 66, 0
8, 62784, Note_on_c, 4, 54, 0
8, 62784, Note_on_c, 4, 54, 95
8, 62976, Note_on_c, 4, 61, 0
8, 62976, Note_on_c, 4, 59, 0
8, 64128, Note_on_c, 4, 50, 100
8, 64320, Note_on_c, 4, 54, 80
8, 64503, Note_on_c, 4, 54, 0
8, 64512, Note_on_c, 4, 57, 100
8, 64704, Note_on_c, 4, 66, 98
8, 65088, Note_on_c, 4, 62, 98
8, 65280, Note_on_c, 4, 54, 0
8, 65280, Note_on_c, 4, 52, 100
8, 65376, Note_on_c, 4, 52, 0
8, 65376, Note_on_c, 4, 54, 85
8, 65472, Note_on_c, 4, 57, 0
8, 65472, Note_on_c, 4, 57, 80
8, 65664, Note_on_c, 4, 50, 0
8, 65664, Note_on_c, 4, 50, 100
8, 65856, Note_on_c, 4, 54, 0
8, 65856, Note_on_c, 4, 54, 80
8, 66048, Note_on_c, 4, 57, 0
8, 66048, Note_on_c, 4, 57, 100
8, 66240, Note_on_c, 4, 66, 0
8, 66240, Note_on_c, 4, 66, 98
8, 66624, Note_on_c, 4, 62, 0
8, 66624, Note_on_c, 4, 62, 98
8, 66816, Note_on_c, 4, 57, 0
8, 66816, Note_on_c, 4, 57, 88
8, 67008, Note_on_c, 4, 62, 0
8, 67008, Note_on_c, 4, 62, 81
8, 67200, Note_on_c, 4, 62, 0
8, 67200, Note_on_c, 4, 57, 0
8, 67200, Note_on_c, 4, 50, 0
8, 67200, Note_on_c, 4, 54, 0
8, 67200, Note_on_c, 4, 66, 0
8, 67200, Note_on_c, 4, 49, 100
8, 67392, Note_on_c, 4, 52, 80
8, 67584, Note_on_c, 4, 57, 97
8, 67776, Note_on_c, 4, 64, 100
8, 68160, Note_on_c, 4, 61, 80
8, 68352, Note_on_c, 4, 52, 0
8, 68352, Note_on_c, 4, 52, 100
8, 68544, Note_on_c, 4, 57, 0
8, 68544, Note_on_c, 4, 57, 80
8, 68736, Note_on_c, 4, 57, 0
8, 68736, Note_on_c, 4, 52, 0
8, 68736, Note_on_c, 4, 49, 0
8, 68736, Note_on_c, 4, 64, 0
8, 68736, Note_on_c, 4, 61, 0
8, 68736, Note_on_c, 4, 47, 100
8, 68928, Note_on_c, 4, 54, 80
8, 69120, Note_on_c, 4, 59, 94
8, 69312, Note_on_c, 4, 62, 100
8, 69696, Note_on_c, 4, 59, 0
8, 69696, Note_on_c, 4, 59, 80
8, 69888, Note_on_c, 4, 54, 0
8, 69888, Note_on_c, 4, 54, 100
8, 70080, Note_on_c, 4, 59, 0
8, 70080, Note_on_c, 4, 59, 80
8, 70272, Note_on_c, 4, 59, 0
8, 70272, Note_on_c, 4, 54, 0
8, 70272, Note_on_c, 4, 47, 0
8, 70272, Note_on_c, 4, 62, 0
8, 70272, Note_on_c, 4, 42, 100
8, 70464, Note_on_c, 4, 54, 80
8, 70656, Note_on_c, 4, 57, 104
8, 70848, Note_on_c, 4, 66, 100
8, 71232, Note_on_c, 4, 61, 80
8, 71424, Note_on_c, 4, 54, 0
8, 71424, Note_on_c, 4, 54, 100
8, 71616, Note_on_c, 4, 57, 0
8, 71616, Note_on_c, 4, 57, 80
8, 71808, Note_on_c, 4, 57, 0
8, 71808, Note_on_c, 4, 54, 0
8, 71808, Note_on_c, 4, 42, 0
8, 71808, Note_on_c, 4, 66, 0
8, 71808, Note_on_c, 4, 61, 0
8, 71808, Note_on_c, 4, 47, 100
8, 72000, Note_on_c, 4, 54, 80
8, 72192, Note_on_c, 4, 59, 94
8, 72384, Note_on_c, 4, 62, 100
8, 72768, Note_on_c, 4, 59, 0
8, 72768, Note_on_c, 4, 59, 80
8, 72960, Note_on_c, 4, 54, 0
8, 72960, Note_on_c, 4, 54, 100
8, 73152, Note_on_c, 4, 59, 0
8, 73152, Note_on_c, 4, 59, 80
8, 73344, Note_on_c, 4, 47, 0
8, 73344, Note_on_c, 4, 47, 100
8, 73536, Note_on_c, 4, 54, 0
8, 73536, Note_on_c, 4, 54, 80
8, 73728, Note_on_c, 4, 59, 0
8, 73728, Note_on_c, 4, 59, 83
8, 73920, Note_on_c, 4, 54, 0
8, 73920, Note_on_c, 4, 54, 100
8, 74112, Note_on_c, 4, 62, 0
8, 74112, Note_on_c, 4, 62, 97
8, 74304, Note_on_c, 4, 59, 0
8, 74304, Note_on_c, 4, 59, 80
8, 74496, Note_on_c, 4, 54, 0
8, 74496, Note_on_c, 4, 54, 100
8, 74688, Note_on_c, 4, 47, 0
8, 74688, Note_on_c, 4, 47, 80
8, 74880, Note_on_c, 4, 47, 0
8, 74880, Note_on_c, 4, 54, 0
8, 74880, Note_on_c, 4, 62, 0
8, 74880, Note_on_c, 4, 59, 0
8, 74880, Note_on_c, 4, 43, 100
8, 75072, Note_on_c, 4, 59, 80
8, 75264, Note_on_c, 4, 62, 104
8, 75456, Note_on_c, 4, 66, 100
8, 75840, Note_on_c, 4, 62, 0
8, 75840, Note_on_c, 4, 62, 80
8, 76032, Note_on_c, 4, 59, 0
8, 76032, Note_on_c, 4, 59, 100
8, 76224, Note_on_c, 4, 55, 80
8, 76416, Note_on_c, 4, 55, 0
8, 76416, Note_on_c, 4, 66, 0
8, 76416, Note_on_c, 4, 62, 0
8, 76416, Note_on_c, 4, 43, 0
8, 76416, Note_on_c, 4, 59, 0
8, 76416, Note_on_c, 4, 42, 100
8, 76608, Note_on_c, 4, 57, 80
8, 76800, Note_on_c, 4, 61, 73
8, 76992, Note_on_c, 4, 64, 100
8, 77376, Note_on_c, 4, 54, 80
8, 77568, Note_on_c, 4, 57, 0
8, 77568, Note_on_c, 4, 57, 100
8, 77760, Note_on_c, 4, 61, 0
8, 77760, Note_on_c, 4, 61, 80
8, 77952, Note_on_c, 4, 61, 0
8, 77952, Note_on_c, 4, 57, 0
8, 77952, Note_on_c, 4, 42, 0
8, 77952, Note_on_c, 4, 64, 0
8, 77952, Note_on_c, 4, 54, 0
8, 77952, Note_on_c, 4, 40, 100
8, 78144, Note_on_c, 4, 59, 80
8, 78336, Note_on_c, 4, 62, 94
8, 78528, Note_on_c, 4, 67, 100
8, 78912, Note_on_c, 4, 55, 80
8, 79104, Note_on_c, 4, 62, 0
8, 79104, Note_on_c, 4, 62, 100
8, 79296, Note_on_c, 4, 59, 0
8, 79296, Note_on_c, 4, 59, 80
8, 79488, Note_on_c, 4, 59, 0
8, 79488, Note_on_c, 4, 62, 0
8, 79488, Note_on_c, 4, 40, 0
8, 79488, Note_on_c, 4, 67, 0
8, 79488, Note_on_c, 4, 55, 0
8, 79488, Note_on_c, 4, 42, 100
8, 79680, Note_on_c, 4, 54, 80
8, 79872, Note_on_c, 4, 59, 101
8, 80064, Note_on_c, 4, 61, 100
8, 80448, Note_on_c, 4, 66, 80
8, 80640, Note_on_c, 4, 61, 0
8, 80640, Note_on_c, 4, 61, 100
8, 80832, Note_on_c, 4, 59, 0
8, 80832, Note_on_c, 4, 59, 80
8, 81024, Note_on_c, 4, 59, 0
8, 81024, Note_on_c, 4, 61, 0
8, 81024, Note_on_c, 4, 42, 0
8, 81024, Note_on_c, 4, 54, 0
8, 81024, Note_on_c, 4, 66, 0
8, 81024, Note_on_c, 4, 61, 100
8, 81024, Note_on_c, 4, 54, 100
8, 81024, Note_on_c, 4, 58, 100
8, 81024, Note_on_c, 4, 66, 100
8, 81366, Note_on_c, 4, 58, 0
8, 81366, Note_on_c, 4, 61, 0
8, 81408, Note_on_c, 4, 61, 95
8, 81408, Note_on_c, 4, 58, 100
8, 81750, Note_on_c, 4, 58, 0
8, 81750, Note_on_c, 4, 61, 0
8, 81750, Note_on_c, 4, 54, 0
8, 81792, Note_on_c, 4, 61, 68
8, 81792, Note_on_c, 4, 59, 113
8, 81792, Note_on_c, 4, 54, 76
8, 82134, Note_on_c, 4, 59, 0
8, 82134, Note_on_c, 4, 61, 0
8, 82176, Note_on_c, 4, 61, 100
8, 82176, Note_on_c, 4, 58, 100
8, 82560, Note_on_c, 4, 58, 0
8, 82560, Note_on_c, 4, 54, 0
8, 82560, Note_on_c, 4, 66, 0
8, 82560, Note_on_c, 4, 61, 0
8, 82560, Note_on_c, 4, 47, 104
8, 82752, Note_on_c, 4, 54, 71
8, 82944, Note_on_c, 4, 59, 97
8, 83136, Note_on_c, 4, 62, 104
8, 83520, Note_on_c, 4, 59, 0
8, 83520, Note_on_c, 4, 59, 94
8, 83712, Note_on_c, 4, 54, 0
8, 83712, Note_on_c, 4, 54, 76
8, 83904, Note_on_c, 4, 47, 0
8, 83904, Note_on_c, 4, 47, 73
8, 84096, Note_on_c, 4, 47, 0
8, 84096, Note_on_c, 4, 54, 0
8, 84096, Note_on_c, 4, 62, 0
8, 84096, Note_on_c, 4, 59, 0
8, 84096, Note_on_c, 4, 52, 91
8, 84288, Note_on_c, 4, 55, 73
8, 84480, Note_on_c, 4, 59, 83
8, 84672, Note_on_c, 4, 64, 101
8, 85056, Note_on_c, 4, 59, 0
8, 85056, Note_on_c, 4, 59, 86
8, 85248, Note_on_c, 4, 55, 0
8, 85248, Note_on_c, 4, 55, 104
8, 85440, Note_on_c, 4, 52, 0
8, 85440, Note_on_c, 4, 52, 88
8, 85632, Note_on_c, 4, 52, 0
8, 85632, Note_on_c, 4, 55, 0
8, 85632, Note_on_c, 4, 64, 0
8, 85632, Note_on_c, 4, 59, 0
8, 85632, Note_on_c, 4, 45, 88
8, 85824, Note_on_c, 4, 52, 73
8, 86016, Note_on_c, 4, 57, 94
8, 86208, Note_on_c, 4, 61, 73
8, 86592, Note_on_c, 4, 57, 0
8, 86592, Note_on_c, 4, 57, 88
8, 86784, Note_on_c, 4, 52, 0
8, 86784, Note_on_c, 4, 52, 83
8, 86976, Note_on_c, 4, 45, 0
8, 86976, Note_on_c, 4, 45, 83
8, 87168, Note_on_c, 4, 45, 0
8, 87168, Note_on_c, 4, 52, 0
8, 87168, Note_on_c, 4, 61, 0
8, 87168, Note_on_c, 4, 57, 0
8, 87168, Note_on_c, 4, 50, 97
8, 87360, Note_on_c, 4, 54, 80
8, 87552, Note_on_c, 4, 57, 101
8, 87744, Note_on_c, 4, 61, 95
8, 88128, Note_on_c, 4, 57, 0
8, 88128, Note_on_c, 4, 57, 104
8, 88320, Note_on_c, 4, 54, 0
8, 88320, Note_on_c, 4, 54, 87
8, 88512, Note_on_c, 4, 50, 0
8, 88512, Note_on_c, 4, 50, 91
8, 88704, Note_on_c, 4, 50, 0
8, 88704, Note_on_c, 4, 54, 0
8, 88704, Note_on_c, 4, 61, 0
8, 88704, Note_on_c, 4, 57, 0
8, 88704, Note_on_c, 4, 44, 91
8, 88896, Note_on_c, 4, 54, 71
8, 89088, Note_on_c, 4, 59, 97
8, 89280, Note_on_c, 4, 62, 101
8, 89664, Note_on_c, 4, 59, 0
8, 89664, Note_on_c, 4, 59, 94
8, 89856, Note_on_c, 4, 54, 0
8, 89856, Note_on_c, 4, 54, 87
8, 90048, Note_on_c, 4, 54, 0
8, 90048, Note_on_c, 4, 59, 0
8, 90048, Note_on_c, 4, 44, 0
8, 90048, Note_on_c, 4, 62, 0
8, 90048, Note_on_c, 4, 44, 71
8, 90240, Note_on_c, 4, 44, 0
8, 90240, Note_on_c, 4, 49, 91
8, 90432, Note_on_c, 4, 56, 83
8, 90624, Note_on_c, 4, 59, 104
8, 90816, Note_on_c, 4, 65, 101
8, 91200, Note_on_c, 4, 59, 0
8, 91200, Note_on_c, 4, 59, 101
8, 91392, Note_on_c, 4, 56, 0
8, 91392, Note_on_c, 4, 56, 91
8, 91584, Note_on_c, 4, 49, 0
8, 91584, Note_on_c, 4, 49, 87
8, 91776, Note_on_c, 4, 49, 0
8, 91776, Note_on_c, 4, 56, 0
8, 91776, Note_on_c, 4, 65, 0
8, 91776, Note_on_c, 4, 59, 0
8, 91776, Note_on_c, 4, 54, 87
8, 91968, Note_on_c, 4, 59, 83
8, 92160, Note_on_c, 4, 61, 80
8, 92352, Note_on_c, 4, 66, 91
8, 92736, Note_on_c, 4, 61, 0
8, 92736, Note_on_c, 4, 61, 91
8, 92928, Note_on_c, 4, 59, 0
8, 92928, Note_on_c, 4, 59, 104
8, 93120, Note_on_c, 4, 66, 0
8, 93120, Note_on_c, 4, 54, 0
8, 93120, Note_on_c, 4, 54, 95
8, 93312, Note_on_c, 4, 61, 0
8, 93312, Note_on_c, 4, 59, 0
8, 93312, Note_on_c, 4, 54, 110
8, 93330, Note_on_c, 4, 54, 0
8, 93504, Note_on_c, 4, 58, 110
8, 93696, Note_on_c, 4, 61, 95
8, 93888, Note_on_c, 4, 66, 110
8, 93892, Note_on_c, 4, 58, 0
8, 93929, Note_on_c, 4, 61, 0
8, 94080, Note_on_c, 4, 61, 127
8, 94080, Note_on_c, 4, 59, 127
8, 94103, Note_on_c, 4, 66, 0
8, 94271, Note_on_c, 4, 59, 0
8, 94272, Note_on_c, 4, 66, 104
8, 94291, Note_on_c, 4, 61, 0
8, 94464, Note_on_c, 4, 64, 117
8, 94464, Note_on_c, 4, 61, 95
8, 94527, Note_on_c, 4, 66, 0
8, 94656, Note_on_c, 4, 66, 104
8, 94682, Note_on_c, 4, 61, 0
8, 94695, Note_on_c, 4, 64, 0
8, 94835, Note_on_c, 4, 66, 0
8, 94839, Note_on_c, 4, 54, 0
8, 94848, Note_on_c, 4, 47, 104
8, 95040, Note_on_c, 4, 54, 71
8, 95232, Note_on_c, 4, 59, 97
8, 95424, Note_on_c, 4, 62, 104
8, 95808, Note_on_c, 4, 59, 0
8, 95808, Note_on_c, 4, 59, 94
8, 96000, Note_on_c, 4, 54, 0
8, 96000, Note_on_c, 4, 54, 76
8, 96192, Note_on_c, 4, 47, 0
8, 96192, Note_on_c, 4, 47, 73
8, 96384, Note_on_c, 4, 47, 0
8, 96384, Note_on_c, 4, 54, 0
8, 96384, Note_on_c, 4, 62, 0
8, 96384, Note_on_c, 4, 59, 0
8, 96384, Note_on_c, 4, 52, 91
8, 96576, Note_on_c, 4, 55, 73
8, 96768, Note_on_c, 4, 59, 83
8, 96960, Note_on_c, 4, 64, 101
8, 97344, Note_on_c, 4, 59, 0
8, 97344, Note_on_c, 4, 59, 86
8, 97536, Note_on_c, 4, 55, 0
8, 97536, Note_on_c, 4, 55, 104
8, 97728, Note_on_c, 4, 52, 0
8, 97728, Note_on_c, 4, 52, 88
8, 97920, Note_on_c, 4, 52, 0
8, 97920, Note_on_c, 4, 55, 0
8, 97920, Note_on_c, 4, 64, 0
8, 97920, Note_on_c, 4, 59, 0
8, 97920, Note_on_c, 4, 45, 88
8, 98112, Note_on_c, 4, 52, 73
8, 98304, Note_on_c, 4, 57, 94
8, 98496, Note_on_c, 4, 61, 73
8, 98880, Note_on_c, 4, 57, 0
8, 98880, Note_on_c, 4, 57, 88
8, 99072, Note_on_c, 4, 52, 0
8, 99072, Note_on_c, 4, 52, 83
8, 99264, Note_on_c, 4, 45, 0
8, 99264, Note_on_c, 4, 45, 83
8, 99456, Note_on_c, 4, 45, 0
8, 99456, Note_on_c, 4, 52, 0
8, 99456, Note_on_c, 4, 61, 0
8, 99456, Note_on_c, 4, 57, 0
8, 99456, Note_on_c, 4, 50, 97
8, 99648, Note_on_c, 4, 54, 80
8, 99840, Note_on_c, 4, 57, 101
8, 100032, Note_on_c, 4, 61, 95
8, 100416, Note_on_c, 4, 57, 0
8, 100416, Note_on_c, 4, 57, 104
8, 100608, Note_on_c, 4, 54, 0
8, 100608, Note_on_c, 4, 54, 87
8, 100800, Note_on_c, 4, 50, 0
8, 100800, Note_on_c, 4, 50, 91
8, 100992, Note_on_c, 4, 50, 0
8, 100992, Note_on_c, 4, 54, 0
8, 100992, Note_on_c, 4, 61, 0
8, 100992, Note_on_c, 4, 57, 0
8, 100992, Note_on_c, 4, 44, 91
8, 101184, Note_on_c, 4, 54, 71
8, 101376, Note_on_c, 4, 59, 97
8, 101568, Note_on_c, 4, 62, 101
8, 101952, Note_on_c, 4, 59, 0
8, 101952, Note_on_c, 4, 59, 94
8, 102144, Note_on_c, 4, 54, 0
8, 102144, Note_on_c, 4, 54, 87
8, 102336, Note_on_c, 4, 54, 0
8, 102336, Note_on_c, 4, 59, 0
8, 102336, Note_on_c, 4, 44, 0
8, 102336, Note_on_c, 4, 62, 0
8, 102336, Note_on_c, 4, 44, 71
8, 102528, Note_on_c, 4, 44, 0
8, 102528, Note_on_c, 4, 49, 91
8, 102720, Note_on_c, 4, 56, 83
8, 102912, Note_on_c, 4, 59, 104
8, 103104, Note_on_c, 4, 65, 101
8, 103488, Note_on_c, 4, 59, 0
8, 103488, Note_on_c, 4, 59, 101
8, 103680, Note_on_c, 4, 56, 0
8, 103680, Note_on_c, 4, 56, 91
8, 103872, Note_on_c, 4, 49, 0
8, 103872, Note_on_c, 4, 49, 87
8, 104064, Note_on_c, 4, 49, 0
8, 104064, Note_on_c, 4, 56, 0
8, 104064, Note_on_c, 4, 65, 0
8, 104064, Note_on_c, 4, 59, 0
8, 104064, Note_on_c, 4, 54, 87
8, 104256, Note_on_c, 4, 59, 83
8, 104448, Note_on_c, 4, 61, 80
8, 104640, Note_on_c, 4, 66, 91
8, 105024, Note_on_c, 4, 61, 0
8, 105024, Note_on_c, 4, 61, 91
8, 105216, Note_on_c, 4, 59, 0
8, 105216, Note_on_c, 4, 59, 104
8, 105408, Note_on_c, 4, 66, 0
8, 105408, Note_on_c, 4, 54, 0
8, 105408, Note_on_c, 4, 54, 95
8, 105600, Note_on_c, 4, 61, 0
8, 105600, Note_on_c, 4, 59, 0
8, 105618, Note_on_c, 4, 54, 0
8, 111020, Control_c, 4, 121, 127
8, 111020, End_track
9, 0, Start_track
9, 0, MIDI_port, 0
9, 163, Program_c, 5, 49
9, 164, Control_c, 5, 7, 89
9, 165, Control_c, 5, 10, 52
9, 166, Control_c, 5, 11, 127
9, 167, Control_c, 5, 91, 104
9, 168, Control_c, 5, 93, 122
9, 2880, Note_on_c, 5, 45, 80
9, 3072, Note_on_c, 5, 45, 0
9, 3072, Note_on_c, 5, 50, 100
9, 3264, Note_on_c, 5, 54, 80
9, 3456, Note_on_c, 5, 57, 100
9, 3648, Note_on_c, 5, 66, 98
9, 4032, Note_on_c, 5, 62, 98
9, 4224, Note_on_c, 5, 54, 0
9, 4224, Note_on_c, 5, 52, 100
9, 4320, Note_on_c, 5, 52, 0
9, 4320, Note_on_c, 5, 54, 85
9, 4416, Note_on_c, 5, 57, 0
9, 4416, Note_on_c, 5, 57, 80
9, 4608, Note_on_c, 5, 50, 0
9, 4608, Note_on_c, 5, 50, 100
9, 4800, Note_on_c, 5, 54, 0
9, 4800, Note_on_c, 5, 54, 80
9, 4992, Note_on_c, 5, 57, 0
9, 4992, Note_on_c, 5, 57, 100
9, 5184, Note_on_c, 5, 66, 0
9, 5184, Note_on_c, 5, 66, 98
9, 5568, Note_on_c, 5, 62, 0
9, 5568, Note_on_c, 5, 62, 98
9, 5760, Note_on_c, 5, 57, 0
9, 5760, Note_on_c, 5, 57, 88
9, 5952, Note_on_c, 5, 62, 0
9, 5952, Note_on_c, 5, 62, 81
9, 6144, Note_on_c, 5, 62, 0
9, 6144, Note_on_c, 5, 57, 0
9, 6144, Note_on_c, 5, 50, 0
9, 6144, Note_on_c, 5, 54, 0
9, 6144, Note_on_c, 5, 66, 0
9, 6144, Note_on_c, 5, 49, 100
9, 6336, Note_on_c, 5, 52, 80
9, 6528, Note_on_c, 5, 57, 97
9, 6720, Note_on_c, 5, 64, 100
9, 7104, Note_on_c, 5, 61, 80
9, 7296, Note_on_c, 5, 52, 0
9, 7296, Note_on_c, 5, 52, 100
9, 7488, Note_on_c, 5, 57, 0
9, 7488, Note_on_c, 5, 57, 80
9, 7680, Note_on_c, 5, 57, 0
9, 7680, Note_on_c, 5, 52, 0
9, 7680, Note_on_c, 5, 49, 0
9, 7680, Note_on_c, 5, 64, 0
9, 7680, Note_on_c, 5, 61, 0
9, 7680, Note_on_c, 5, 47, 100
9, 7872, Note_on_c, 5, 54, 80
9, 8064, Note_on_c, 5, 59, 94
9, 8256, Note_on_c, 5, 62, 100
9, 8640, Note_on_c, 5, 59, 0
9, 8640, Note_on_c, 5, 59, 80
9, 8832, Note_on_c, 5, 54, 0
9, 8832, Note_on_c, 5, 54, 100
9, 9024, Note_on_c, 5, 59, 0
9, 9024, Note_on_c, 5, 59, 80
9, 9216, Note_on_c, 5, 59, 0
9, 9216, Note_on_c, 5, 54, 0
9, 9216, Note_on_c, 5, 47, 0
9, 9216, Note_on_c, 5, 62, 0
9, 9216, Note_on_c, 5, 42, 100
9, 9408, Note_on_c, 5, 54, 80
9, 9600, Note_on_c, 5, 57, 104
9, 9792, Note_on_c, 5, 66, 100
9, 10176, Note_on_c, 5, 61, 80
9, 10368, Note_on_c, 5, 54, 0
9, 10368, Note_on_c, 5, 54, 100
9, 10560, Note_on_c, 5, 57, 0
9, 10560, Note_on_c, 5, 57, 80
9, 10752, Note_on_c, 5, 57, 0
9, 10752, Note_on_c, 5, 54, 0
9, 10752, Note_on_c, 5, 42, 0
9, 10752, Note_on_c, 5, 66, 0
9, 10752, Note_on_c, 5, 61, 0
9, 10752, Note_on_c, 5, 47, 100
9, 10944, Note_on_c, 5, 54, 80
9, 11136, Note_on_c, 5, 59, 94
9, 11328, Note_on_c, 5, 62, 100
9, 11712, Note_on_c, 5, 59, 0
9, 11712, Note_on_c, 5, 59, 80
9, 11904, Note_on_c, 5, 54, 0
9, 11904, Note_on_c, 5, 54, 100
9, 12096, Note_on_c, 5, 59, 0
9, 12096, Note_on_c, 5, 59, 80
9, 12288, Note_on_c, 5, 47, 0
9, 12288, Note_on_c, 5, 47, 100
9, 12480, Note_on_c, 5, 54, 0
9, 12480, Note_on_c, 5, 54, 80
9, 12672, Note_on_c, 5, 59, 0
9, 12672, Note_on_c, 5, 59, 83
9, 12864, Note_on_c, 5, 54, 0
9, 12864, Note_on_c, 5, 54, 100
9, 13056, Note_on_c, 5, 62, 0
9, 13056, Note_on_c, 5, 62, 97
9, 13248, Note_on_c, 5, 59, 0
9, 13248, Note_on_c, 5, 59, 80
9, 13440, Note_on_c, 5, 54, 0
9, 13440, Note_on_c, 5, 54, 100
9, 13632, Note_on_c, 5, 47, 0
9, 13632, Note_on_c, 5, 47, 80
9, 13824, Note_on_c, 5, 47, 0
9, 13824, Note_on_c, 5, 54, 0
9, 13824, Note_on_c, 5, 62, 0
9, 13824, Note_on_c, 5, 59, 0
9, 13824, Note_on_c, 5, 43, 100
9, 14016, Note_on_c, 5, 59, 80
9, 14208, Note_on_c, 5, 62, 104
9, 14400, Note_on_c, 5, 66, 100
9, 14784, Note_on_c, 5, 62, 0
9, 14784, Note_on_c, 5, 62, 80
9, 14976, Note_on_c, 5, 59, 0
9, 14976, Note_on_c, 5, 59, 100
9, 15168, Note_on_c, 5, 55, 80
9, 15360, Note_on_c, 5, 55, 0
9, 15360, Note_on_c, 5, 66, 0
9, 15360, Note_on_c, 5, 62, 0
9, 15360, Note_on_c, 5, 43, 0
9, 15360, Note_on_c, 5, 59, 0
9, 15360, Note_on_c, 5, 42, 100
9, 15552, Note_on_c, 5, 57, 80
9, 15744, Note_on_c, 5, 61, 73
9, 15936, Note_on_c, 5, 64, 100
9, 16320, Note_on_c, 5, 54, 80
9, 16512, Note_on_c, 5, 57, 0
9, 16512, Note_on_c, 5, 57, 100
9, 16704, Note_on_c, 5, 61, 0
9, 16704, Note_on_c, 5, 61, 80
9, 16896, Note_on_c, 5, 61, 0
9, 16896, Note_on_c, 5, 57, 0
9, 16896, Note_on_c, 5, 42, 0
9, 16896, Note_on_c, 5, 64, 0
9, 16896, Note_on_c, 5, 54, 0
9, 16896, Note_on_c, 5, 40, 100
9, 17088, Note_on_c, 5, 59, 80
9, 17280, Note_on_c, 5, 62, 94
9, 17472, Note_on_c, 5, 67, 100
9, 17856, Note_on_c, 5, 55, 80
9, 18048, Note_on_c, 5, 62, 0
9, 18048, Note_on_c, 5, 62, 100
9, 18240, Note_on_c, 5, 59, 0
9, 18240, Note_on_c, 5, 59, 80
9, 18432, Note_on_c, 5, 59, 0
9, 18432, Note_on_c, 5, 62, 0
9, 18432, Note_on_c, 5, 40, 0
9, 18432, Note_on_c, 5, 67, 0
9, 18432, Note_on_c, 5, 55, 0
9, 18432, Note_on_c, 5, 42, 100
9, 18624, Note_on_c, 5, 54, 80
9, 18816, Note_on_c, 5, 59, 101
9, 19008, Note_on_c, 5, 61, 100
9, 19392, Note_on_c, 5, 66, 80
9, 19584, Note_on_c, 5, 61, 0
9, 19584, Note_on_c, 5, 61, 100
9, 19776, Note_on_c, 5, 59, 0
9, 19776, Note_on_c, 5, 59, 80
9, 19968, Note_on_c, 5, 59, 0
9, 19968, Note_on_c, 5, 61, 0
9, 19968, Note_on_c, 5, 42, 0
9, 19968, Note_on_c, 5, 54, 0
9, 19968, Note_on_c, 5, 66, 0
9, 19968, Note_on_c, 5, 54, 100
9, 19968, Note_on_c, 5, 58, 100
9, 19968, Note_on_c, 5, 66, 100
9, 19968, Note_on_c, 5, 61, 100
9, 20310, Note_on_c, 5, 61, 0
9, 20310, Note_on_c, 5, 58, 0
9, 20352, Note_on_c, 5, 58, 100
9, 20352, Note_on_c, 5, 61, 95
9, 20694, Note_on_c, 5, 61, 0
9, 20694, Note_on_c, 5, 58, 0
9, 20694, Note_on_c, 5, 54, 0
9, 20736, Note_on_c, 5, 61, 68
9, 20736, Note_on_c, 5, 54, 76
9, 20736, Note_on_c, 5, 59, 113
9, 21078, Note_on_c, 5, 59, 0
9, 21078, Note_on_c, 5, 61, 0
9, 21120, Note_on_c, 5, 58, 100
9, 21120, Note_on_c, 5, 61, 100
9, 21504, Note_on_c, 5, 61, 0
9, 21504, Note_on_c, 5, 66, 0
9, 21504, Note_on_c, 5, 54, 0
9, 21504, Note_on_c, 5, 58, 0
9, 21504, Note_on_c, 5, 47, 104
9, 21696, Note_on_c, 5, 54, 71
9, 21888, Note_on_c, 5, 59, 97
9, 22080, Note_on_c, 5, 62, 104
9, 22464, Note_on_c, 5, 59, 0
9, 22464, Note_on_c, 5, 59, 94
9, 22656, Note_on_c, 5, 54, 0
9, 22656, Note_on_c, 5, 54, 76
9, 22848, Note_on_c, 5, 47, 0
9, 22848, Note_on_c, 5, 47, 73
9, 23040, Note_on_c, 5, 47, 0
9, 23040, Note_on_c, 5, 54, 0
9, 23040, Note_on_c, 5, 62, 0
9, 23040, Note_on_c, 5, 59, 0
9, 23040, Note_on_c, 5, 52, 91
9, 23232, Note_on_c, 5, 55, 73
9, 23424, Note_on_c, 5, 59, 83
9, 23616, Note_on_c, 5, 64, 101
9, 24000, Note_on_c, 5, 59, 0
9, 24000, Note_on_c, 5, 59, 86
9, 24192, Note_on_c, 5, 55, 0
9, 24192, Note_on_c, 5, 55, 104
9, 24384, Note_on_c, 5, 52, 0
9, 24384, Note_on_c, 5, 52, 88
9, 24576, Note_on_c, 5, 52, 0
9, 24576, Note_on_c, 5, 55, 0
9, 24576, Note_on_c, 5, 64, 0
9, 24576, Note_on_c, 5, 59, 0
9, 24576, Note_on_c, 5, 45, 88
9, 24768, Note_on_c, 5, 52, 73
9, 24960, Note_on_c, 5, 57, 94
9, 25152, Note_on_c, 5, 61, 73
9, 25536, Note_on_c, 5, 57, 0
9, 25536, Note_on_c, 5, 57, 88
9, 25728, Note_on_c, 5, 52, 0
9, 25728, Note_on_c, 5, 52, 83
9, 25920, Note_on_c, 5, 45, 0
9, 25920, Note_on_c, 5, 45, 83
9, 26112, Note_on_c, 5, 45, 0
9, 26112, Note_on_c, 5, 52, 0
9, 26112, Note_on_c, 5, 61, 0
9, 26112, Note_on_c, 5, 57, 0
9, 26112, Note_on_c, 5, 50, 97
9, 26304, Note_on_c, 5, 54, 80
9, 26496, Note_on_c, 5, 57, 101
9, 26688, Note_on_c, 5, 61, 95
9, 27072, Note_on_c, 5, 57, 0
9, 27072, Note_on_c, 5, 57, 104
9, 27264, Note_on_c, 5, 54, 0
9, 27264, Note_on_c, 5, 54, 87
9, 27456, Note_on_c, 5, 50, 0
9, 27456, Note_on_c, 5, 50, 91
9, 27648, Note_on_c, 5, 50, 0
9, 27648, Note_on_c, 5, 54, 0
9, 27648, Note_on_c, 5, 61, 0
9, 27648, Note_on_c, 5, 57, 0
9, 27648, Note_on_c, 5, 44, 91
9, 27840, Note_on_c, 5, 54, 71
9, 28032, Note_on_c, 5, 59, 97
9, 28224, Note_on_c, 5, 62, 101
9, 28608, Note_on_c, 5, 59, 0
9, 28608, Note_on_c, 5, 59, 94
9, 28800, Note_on_c, 5, 54, 0
9, 28800, Note_on_c, 5, 54, 87
9, 28992, Note_on_c, 5, 54, 0
9, 28992, Note_on_c, 5, 59, 0
9, 28992, Note_on_c, 5, 44, 0
9, 28992, Note_on_c, 5, 62, 0
9, 28992, Note_on_c, 5, 44, 71
9, 29184, Note_on_c, 5, 44, 0
9, 29184, Note_on_c, 5, 49, 91
9, 29376, Note_on_c, 5, 56, 83
9, 29568, Note_on_c, 5, 59, 104
9, 29760, Note_on_c, 5, 65, 101
9, 30144, Note_on_c, 5, 59, 0
9, 30144, Note_on_c, 5, 59, 101
9, 30336, Note_on_c, 5, 56, 0
9, 30336, Note_on_c, 5, 56, 91
9, 30528, Note_on_c, 5, 49, 0
9, 30528, Note_on_c, 5, 49, 87
9, 30720, Note_on_c, 5, 49, 0
9, 30720, Note_on_c, 5, 56, 0
9, 30720, Note_on_c, 5, 65, 0
9, 30720, Note_on_c, 5, 59, 0
9, 30720, Note_on_c, 5, 54, 87
9, 30912, Note_on_c, 5, 59, 83
9, 31104, Note_on_c, 5, 61, 80
9, 31296, Note_on_c, 5, 66, 91
9, 31680, Note_on_c, 5, 61, 0
9, 31680, Note_on_c, 5, 61, 91
9, 31872, Note_on_c, 5, 59, 0
9, 31872, Note_on_c, 5, 59, 104
9, 32064, Note_on_c, 5, 66, 0
9, 32064, Note_on_c, 5, 54, 0
9, 32064, Note_on_c, 5, 54, 95
9, 32256, Note_on_c, 5, 61, 0
9, 32256, Note_on_c, 5, 59, 0
9, 32256, Note_on_c, 5, 58, 87
9, 32257, Note_on_c, 5, 61, 104
9, 32406, Note_on_c, 5, 61, 0
9, 32406, Note_on_c, 5, 58, 0
9, 32406, Note_on_c, 5, 54, 0
9, 33792, Note_on_c, 5, 50, 100
9, 33984, Note_on_c, 5, 54, 80
9, 34176, Note_on_c, 5, 57, 100
9, 34368, Note_on_c, 5, 66, 98
9, 34752, Note_on_c, 5, 62, 98
9, 34944, Note_on_c, 5, 54, 0
9, 34944, Note_on_c, 5, 52, 100
9, 35040, Note_on_c, 5, 52, 0
9, 35040, Note_on_c, 5, 54, 85
9, 35136, Note_on_c, 5, 57, 0
9, 35136, Note_on_c, 5, 57, 80
9, 35328, Note_on_c, 5, 50, 0
9, 35328, Note_on_c, 5, 50, 100
9, 35520, Note_on_c, 5, 54, 0
9, 35520, Note_on_c, 5, 54, 80
9, 35712, Note_on_c, 5, 57, 0
9, 35712, Note_on_c, 5, 57, 100
9, 35904, Note_on_c, 5, 66, 0
9, 35904, Note_on_c, 5, 66, 98
9, 36288, Note_on_c, 5, 62, 0
9, 36288, Note_on_c, 5, 62, 98
9, 36480, Note_on_c, 5, 57, 0
9, 36480, Note_on_c, 5, 57, 88
9, 36672, Note_on_c, 5, 62, 0
9, 36672, Note_on_c, 5, 62, 81
9, 36864, Note_on_c, 5, 62, 0
9, 36864, Note_on_c, 5, 57, 0
9, 36864, Note_on_c, 5, 50, 0
9, 36864, Note_on_c, 5, 54, 0
9, 36864, Note_on_c, 5, 66, 0
9, 36864, Note_on_c, 5, 49, 100
9, 37056, Note_on_c, 5, 52, 80
9, 37248, Note_on_c, 5, 57, 97
9, 37440, Note_on_c, 5, 64, 100
9, 37824, Note_on_c, 5, 61, 80
9, 38016, Note_on_c, 5, 52, 0
9, 38016, Note_on_c, 5, 52, 100
9, 38208, Note_on_c, 5, 57, 0
9, 38208, Note_on_c, 5, 57, 80
9, 38400, Note_on_c, 5, 57, 0
9, 38400, Note_on_c, 5, 52, 0
9, 38400, Note_on_c, 5, 49, 0
9, 38400, Note_on_c, 5, 64, 0
9, 38400, Note_on_c, 5, 61, 0
9, 38400, Note_on_c, 5, 47, 100
9, 38592, Note_on_c, 5, 54, 80
9, 38784, Note_on_c, 5, 59, 94
9, 38976, Note_on_c, 5, 62, 100
9, 39360, Note_on_c, 5, 59, 0
9, 39360, Note_on_c, 5, 59, 80
9, 39552, Note_on_c, 5, 54, 0
9, 39552, Note_on_c, 5, 54, 100
9, 39744, Note_on_c, 5, 59, 0
9, 39744, Note_on_c, 5, 59, 80
9, 39936, Note_on_c, 5, 59, 0
9, 39936, Note_on_c, 5, 54, 0
9, 39936, Note_on_c, 5, 47, 0
9, 39936, Note_on_c, 5, 62, 0
9, 39936, Note_on_c, 5, 42, 100
9, 40128, Note_on_c, 5, 54, 80
9, 40320, Note_on_c, 5, 57, 104
9, 40512, Note_on_c, 5, 66, 100
9, 40896, Note_on_c, 5, 61, 80
9, 41088, Note_on_c, 5, 54, 0
9, 41088, Note_on_c, 5, 54, 100
9, 41280, Note_on_c, 5, 57, 0
9, 41280, Note_on_c, 5, 57, 80
9, 41472, Note_on_c, 5, 57, 0
9, 41472, Note_on_c, 5, 54, 0
9, 41472, Note_on_c, 5, 42, 0
9, 41472, Note_on_c, 5, 66, 0
9, 41472, Note_on_c, 5, 61, 0
9, 41472, Note_on_c, 5, 47, 100
9, 41664, Note_on_c, 5, 54, 80
9, 41856, Note_on_c, 5, 59, 94
9, 42048, Note_on_c, 5, 62, 100
9, 42432, Note_on_c, 5, 59, 0
9, 42432, Note_on_c, 5, 59, 80
9, 42624, Note_on_c, 5, 54, 0
9, 42624, Note_on_c, 5, 54, 100
9, 42816, Note_on_c, 5, 59, 0
9, 42816, Note_on_c, 5, 59, 80
9, 43008, Note_on_c, 5, 47, 0
9, 43008, Note_on_c, 5, 47, 100
9, 43200, Note_on_c, 5, 54, 0
9, 43200, Note_on_c, 5, 54, 80
9, 43392, Note_on_c, 5, 59, 0
9, 43392, Note_on_c, 5, 59, 83
9, 43584, Note_on_c, 5, 54, 0
9, 43584, Note_on_c, 5, 54, 100
9, 43776, Note_on_c, 5, 62, 0
9, 43776, Note_on_c, 5, 62, 97
9, 43968, Note_on_c, 5, 59, 0
9, 43968, Note_on_c, 5, 59, 80
9, 44160, Note_on_c, 5, 54, 0
9, 44160, Note_on_c, 5, 54, 100
9, 44352, Note_on_c, 5, 47, 0
9, 44352, Note_on_c, 5, 47, 80
9, 44544, Note_on_c, 5, 47, 0
9, 44544, Note_on_c, 5, 54, 0
9, 44544, Note_on_c, 5, 62, 0
9, 44544, Note_on_c, 5, 59, 0
9, 44544, Note_on_c, 5, 43, 100
9, 44736, Note_on_c, 5, 59, 80
9, 44928, Note_on_c, 5, 62, 104
9, 45120, Note_on_c, 5, 66, 100
9, 45504, Note_on_c, 5, 62, 0
9, 45504, Note_on_c, 5, 62, 80
9, 45696, Note_on_c, 5, 59, 0
9, 45696, Note_on_c, 5, 59, 100
9, 45888, Note_on_c, 5, 55, 80
9, 46080, Note_on_c, 5, 55, 0
9, 46080, Note_on_c, 5, 66, 0
9, 46080, Note_on_c, 5, 62, 0
9, 46080, Note_on_c, 5, 43, 0
9, 46080, Note_on_c, 5, 59, 0
9, 46080, Note_on_c, 5, 42, 100
9, 46272, Note_on_c, 5, 57, 80
9, 46464, Note_on_c, 5, 61, 73
9, 46656, Note_on_c, 5, 64, 100
9, 47040, Note_on_c, 5, 54, 80
9, 47232, Note_on_c, 5, 57, 0
9, 47232, Note_on_c, 5, 57, 100
9, 47424, Note_on_c, 5, 61, 0
9, 47424, Note_on_c, 5, 61, 80
9, 47616, Note_on_c, 5, 61, 0
9, 47616, Note_on_c, 5, 57, 0
9, 47616, Note_on_c, 5, 42, 0
9, 47616, Note_on_c, 5, 64, 0
9, 47616, Note_on_c, 5, 54, 0
9, 47616, Note_on_c, 5, 40, 100
9, 47808, Note_on_c, 5, 59, 80
9, 48000, Note_on_c, 5, 62, 94
9, 48192, Note_on_c, 5, 67, 100
9, 48576, Note_on_c, 5, 55, 80
9, 48768, Note_on_c, 5, 62, 0
9, 48768, Note_on_c, 5, 62, 100
9, 48960, Note_on_c, 5, 59, 0
9, 48960, Note_on_c, 5, 59, 80
9, 49152, Note_on_c, 5, 59, 0
9, 49152, Note_on_c, 5, 62, 0
9, 49152, Note_on_c, 5, 40, 0
9, 49152, Note_on_c, 5, 67, 0
9, 49152, Note_on_c, 5, 55, 0
9, 49152, Note_on_c, 5, 42, 100
9, 49344, Note_on_c, 5, 54, 80
9, 49536, Note_on_c, 5, 59, 101
9, 49728, Note_on_c, 5, 61, 100
9, 50112, Note_on_c, 5, 66, 80
9, 50304, Note_on_c, 5, 61, 0
9, 50304, Note_on_c, 5, 61, 100
9, 50496, Note_on_c, 5, 59, 0
9, 50496, Note_on_c, 5, 59, 80
9, 50688, Note_on_c, 5, 59, 0
9, 50688, Note_on_c, 5, 61, 0
9, 50688, Note_on_c, 5, 42, 0
9, 50688, Note_on_c, 5, 54, 0
9, 50688, Note_on_c, 5, 66, 0
9, 50688, Note_on_c, 5, 66, 100
9, 50688, Note_on_c, 5, 58, 100
9, 50688, Note_on_c, 5, 54, 100
9, 50688, Note_on_c, 5, 61, 100
9, 51030, Note_on_c, 5, 61, 0
9, 51030, Note_on_c, 5, 58, 0
9, 51072, Note_on_c, 5, 58, 100
9, 51072, Note_on_c, 5, 61, 95
9, 51414, Note_on_c, 5, 61, 0
9, 51414, Note_on_c, 5, 58, 0
9, 51414, Note_on_c, 5, 54, 0
9, 51456, Note_on_c, 5, 59, 113
9, 51456, Note_on_c, 5, 54, 76
9, 51456, Note_on_c, 5, 61, 68
9, 51798, Note_on_c, 5, 61, 0
9, 51798, Note_on_c, 5, 59, 0
9, 51840, Note_on_c, 5, 61, 100
9, 51840, Note_on_c, 5, 58, 100
9, 52224, Note_on_c, 5, 58, 0
9, 52224, Note_on_c, 5, 66, 0
9, 52224, Note_on_c, 5, 54, 0
9, 52224, Note_on_c, 5, 61, 0
9, 52224, Note_on_c, 5, 47, 104
9, 52416, Note_on_c, 5, 54, 71
9, 52608, Note_on_c, 5, 59, 97
9, 52800, Note_on_c, 5, 62, 104
9, 53184, Note_on_c, 5, 59, 0
9, 53184, Note_on_c, 5, 59, 94
9, 53376, Note_on_c, 5, 54, 0
9, 53376, Note_on_c, 5, 54, 76
9, 53568, Note_on_c, 5, 47, 0
9, 53568, Note_on_c, 5, 47, 73
9, 53760, Note_on_c, 5, 47, 0
9, 53760, Note_on_c, 5, 54, 0
9, 53760, Note_on_c, 5, 62, 0
9, 53760, Note_on_c, 5, 59, 0
9, 53760, Note_on_c, 5, 52, 91
9, 53952, Note_on_c, 5, 55, 73
9, 54144, Note_on_c, 5, 59, 83
9, 54336, Note_on_c, 5, 64, 101
9, 54720, Note_on_c, 5, 59, 0
9, 54720, Note_on_c, 5, 59, 86
9, 54912, Note_on_c, 5, 55, 0
9, 54912, Note_on_c, 5, 55, 104
9, 55104, Note_on_c, 5, 52, 0
9, 55104, Note_on_c, 5, 52, 88
9, 55296, Note_on_c, 5, 52, 0
9, 55296, Note_on_c, 5, 55, 0
9, 55296, Note_on_c, 5, 64, 0
9, 55296, Note_on_c, 5, 59, 0
9, 55296, Note_on_c, 5, 45, 88
9, 55488, Note_on_c, 5, 52, 73
9, 55680, Note_on_c, 5, 57, 94
9, 55872, Note_on_c, 5, 61, 73
9, 56256, Note_on_c, 5, 57, 0
9, 56256, Note_on_c, 5, 57, 88
9, 56448, Note_on_c, 5, 52, 0
9, 56448, Note_on_c, 5, 52, 83
9, 56640, Note_on_c, 5, 45, 0
9, 56640, Note_on_c, 5, 45, 83
9, 56832, Note_on_c, 5, 45, 0
9, 56832, Note_on_c, 5, 52, 0
9, 56832, Note_on_c, 5, 61, 0
9, 56832, Note_on_c, 5, 57, 0
9, 56832, Note_on_c, 5, 50, 97
9, 57024, Note_on_c, 5, 54, 80
9, 57216, Note_on_c, 5, 57, 101
9, 57408, Note_on_c, 5, 61, 95
9, 57792, Note_on_c, 5, 57, 0
9, 57792, Note_on_c, 5, 57, 104
9, 57984, Note_on_c, 5, 54, 0
9, 57984, Note_on_c, 5, 54, 87
9, 58176, Note_on_c, 5, 50, 0
9, 58176, Note_on_c, 5, 50, 91
9, 58368, Note_on_c, 5, 50, 0
9, 58368, Note_on_c, 5, 54, 0
9, 58368, Note_on_c, 5, 61, 0
9, 58368, Note_on_c, 5, 57, 0
9, 58368, Note_on_c, 5, 44, 91
9, 58560, Note_on_c, 5, 54, 71
9, 58752, Note_on_c, 5, 59, 97
9, 58944, Note_on_c, 5, 62, 101
9, 59328, Note_on_c, 5, 59, 0
9, 59328, Note_on_c, 5, 59, 94
9, 59520, Note_on_c, 5, 54, 0
9, 59520, Note_on_c, 5, 54, 87
9, 59712, Note_on_c, 5, 54, 0
9, 59712, Note_on_c, 5, 59, 0
9, 59712, Note_on_c, 5, 44, 0
9, 59712, Note_on_c, 5, 62, 0
9, 59712, Note_on_c, 5, 44, 71
9, 59904, Note_on_c, 5, 44, 0
9, 59904, Note_on_c, 5, 49, 91
9, 60096, Note_on_c, 5, 56, 83
9, 60288, Note_on_c, 5, 59, 104
9, 60480, Note_on_c, 5, 65, 101
9, 60864, Note_on_c, 5, 59, 0
9, 60864, Note_on_c, 5, 59, 101
9, 61056, Note_on_c, 5, 56, 0
9, 61056, Note_on_c, 5, 56, 91
9, 61248, Note_on_c, 5, 49, 0
9, 61248, Note_on_c, 5, 49, 87
9, 61440, Note_on_c, 5, 49, 0
9, 61440, Note_on_c, 5, 56, 0
9, 61440, Note_on_c, 5, 65, 0
9, 61440, Note_on_c, 5, 59, 0
9, 61440, Note_on_c, 5, 54, 87
9, 61632, Note_on_c, 5, 59, 83
9, 61824, Note_on_c, 5, 61, 80
9, 62016, Note_on_c, 5, 66, 91
9, 62400, Note_on_c, 5, 61, 0
9, 62400, Note_on_c, 5, 61, 91
9, 62592, Note_on_c, 5, 59, 0
9, 62592, Note_on_c, 5, 59, 104
9, 62784, Note_on_c, 5, 66, 0
9, 62784, Note_on_c, 5, 54, 0
9, 62784, Note_on_c, 5, 54, 95
9, 62976, Note_on_c, 5, 61, 0
9, 62976, Note_on_c, 5, 59, 0
9, 64128, Note_on_c, 5, 50, 100
9, 64320, Note_on_c, 5, 54, 80
9, 64503, Note_on_c, 5, 54, 0
9, 64512, Note_on_c, 5, 57, 100
9, 64704, Note_on_c, 5, 66, 98
9, 65088, Note_on_c, 5, 62, 98
9, 65280, Note_on_c, 5, 54, 0
9, 65280, Note_on_c, 5, 52, 100
9, 65376, Note_on_c, 5, 52, 0
9, 65376, Note_on_c, 5, 54, 85
9, 65472, Note_on_c, 5, 57, 0
9, 65472, Note_on_c, 5, 57, 80
9, 65664, Note_on_c, 5, 50, 0
9, 65664, Note_on_c, 5, 50, 100
9, 65856, Note_on_c, 5, 54, 0
9, 65856, Note_on_c, 5, 54, 80
9, 66048, Note_on_c, 5, 57, 0
9, 66048, Note_on_c, 5, 57, 100
9, 66240, Note_on_c, 5, 66, 0
9, 66240, Note_on_c, 5, 66, 98
9, 66624, Note_on_c, 5, 62, 0
9, 66624, Note_on_c, 5, 62, 98
9, 66816, Note_on_c, 5, 57, 0
9, 66816, Note_on_c, 5, 57, 88
9, 67008, Note_on_c, 5, 62, 0
9, 67008, Note_on_c, 5, 62, 81
9, 67200, Note_on_c, 5, 62, 0
9, 67200, Note_on_c, 5, 57, 0
9, 67200, Note_on_c, 5, 50, 0
9, 67200, Note_on_c, 5, 54, 0
9, 67200, Note_on_c, 5, 66, 0
9, 67200, Note_on_c, 5, 49, 100
9, 67392, Note_on_c, 5, 52, 80
9, 67584, Note_on_c, 5, 57, 97
9, 67776, Note_on_c, 5, 64, 100
9, 68160, Note_on_c, 5, 61, 80
9, 68352, Note_on_c, 5, 52, 0
9, 68352, Note_on_c, 5, 52, 100
9, 68544, Note_on_c, 5, 57, 0
9, 68544, Note_on_c, 5, 57, 80
9, 68736, Note_on_c, 5, 57, 0
9, 68736, Note_on_c, 5, 52, 0
9, 68736, Note_on_c, 5, 49, 0
9, 68736, Note_on_c, 5, 64, 0
9, 68736, Note_on_c, 5, 61, 0
9, 68736, Note_on_c, 5, 47, 100
9, 68928, Note_on_c, 5, 54, 80
9, 69120, Note_on_c, 5, 59, 94
9, 69312, Note_on_c, 5, 62, 100
9, 69696, Note_on_c, 5, 59, 0
9, 69696, Note_on_c, 5, 59, 80
9, 69888, Note_on_c, 5, 54, 0
9, 69888, Note_on_c, 5, 54, 100
9, 70080, Note_on_c, 5, 59, 0
9, 70080, Note_on_c, 5, 59, 80
9, 70272, Note_on_c, 5, 59, 0
9, 70272, Note_on_c, 5, 54, 0
9, 70272, Note_on_c, 5, 47, 0
9, 70272, Note_on_c, 5, 62, 0
9, 70272, Note_on_c, 5, 42, 100
9, 70464, Note_on_c, 5, 54, 80
9, 70656, Note_on_c, 5, 57, 104
9, 70848, Note_on_c, 5, 66, 100
9, 71232, Note_on_c, 5, 61, 80
9, 71424, Note_on_c, 5, 54, 0
9, 71424, Note_on_c, 5, 54, 100
9, 71616, Note_on_c, 5, 57, 0
9, 71616, Note_on_c, 5, 57, 80
9, 71808, Note_on_c, 5, 57, 0
9, 71808, Note_on_c, 5, 54, 0
9, 71808, Note_on_c, 5, 42, 0
9, 71808, Note_on_c, 5, 66, 0
9, 71808, Note_on_c, 5, 61, 0
9, 71808, Note_on_c, 5, 47, 100
9, 72000, Note_on_c, 5, 54, 80
9, 72192, Note_on_c, 5, 59, 94
9, 72384, Note_on_c, 5, 62, 100
9, 72768, Note_on_c, 5, 59, 0
9, 72768, Note_on_c, 5, 59, 80
9, 72960, Note_on_c, 5, 54, 0
9, 72960, Note_on_c, 5, 54, 100
9, 73152, Note_on_c, 5, 59, 0
9, 73152, Note_on_c, 5, 59, 80
9, 73344, Note_on_c, 5, 47, 0
9, 73344, Note_on_c, 5, 47, 100
9, 73536, Note_on_c, 5, 54, 0
9, 73536, Note_on_c, 5, 54, 80
9, 73728, Note_on_c, 5, 59, 0
9, 73728, Note_on_c, 5, 59, 83
9, 73920, Note_on_c, 5, 54, 0
9, 73920, Note_on_c, 5, 54, 100
9, 74112, Note_on_c, 5, 62, 0
9, 74112, Note_on_c, 5, 62, 97
9, 74304, Note_on_c, 5, 59, 0
9, 74304, Note_on_c, 5, 59, 80
9, 74496, Note_on_c, 5, 54, 0
9, 74496, Note_on_c, 5, 54, 100
9, 74688, Note_on_c, 5, 47, 0
9, 74688, Note_on_c, 5, 47, 80
9, 74880, Note_on_c, 5, 47, 0
9, 74880, Note_on_c, 5, 54, 0
9, 74880, Note_on_c, 5, 62, 0
9, 74880, Note_on_c, 5, 59, 0
9, 74880, Note_on_c, 5, 43, 100
9, 75072, Note_on_c, 5, 59, 80
9, 75264, Note_on_c, 5, 62, 104
9, 75456, Note_on_c, 5, 66, 100
9, 75840, Note_on_c, 5, 62, 0
9, 75840, Note_on_c, 5, 62, 80
9, 76032, Note_on_c, 5, 59, 0
9, 76032, Note_on_c, 5, 59, 100
9, 76224, Note_on_c, 5, 55, 80
9, 76416, Note_on_c, 5, 55, 0
9, 76416, Note_on_c, 5, 66, 0
9, 76416, Note_on_c, 5, 62, 0
9, 76416, Note_on_c, 5, 43, 0
9, 76416, Note_on_c, 5, 59, 0
9, 76416, Note_on_c, 5, 42, 100
9, 76608, Note_on_c, 5, 57, 80
9, 76800, Note_on_c, 5, 61, 73
9, 76992, Note_on_c, 5, 64, 100
9, 77376, Note_on_c, 5, 54, 80
9, 77568, Note_on_c, 5, 57, 0
9, 77568, Note_on_c, 5, 57, 100
9, 77760, Note_on_c, 5, 61, 0
9, 77760, Note_on_c, 5, 61, 80
9, 77952, Note_on_c, 5, 61, 0
9, 77952, Note_on_c, 5, 57, 0
9, 77952, Note_on_c, 5, 42, 0
9, 77952, Note_on_c, 5, 64, 0
9, 77952, Note_on_c, 5, 54, 0
9, 77952, Note_on_c, 5, 40, 100
9, 78144, Note_on_c, 5, 59, 80
9, 78336, Note_on_c, 5, 62, 94
9, 78528, Note_on_c, 5, 67, 100
9, 78912, Note_on_c, 5, 55, 80
9, 79104, Note_on_c, 5, 62, 0
9, 79104, Note_on_c, 5, 62, 100
9, 79296, Note_on_c, 5, 59, 0
9, 79296, Note_on_c, 5, 59, 80
9, 79488, Note_on_c, 5, 59, 0
9, 79488, Note_on_c, 5, 62, 0
9, 79488, Note_on_c, 5, 40, 0
9, 79488, Note_on_c, 5, 67, 0
9, 79488, Note_on_c, 5, 55, 0
9, 79488, Note_on_c, 5, 42, 100
9, 79680, Note_on_c, 5, 54, 80
9, 79872, Note_on_c, 5, 59, 101
9, 80064, Note_on_c, 5, 61, 100
9, 80448, Note_on_c, 5, 66, 80
9, 80640, Note_on_c, 5, 61, 0
9, 80640, Note_on_c, 5, 61, 100
9, 80832, Note_on_c, 5, 59, 0
9, 80832, Note_on_c, 5, 59, 80
9, 81024, Note_on_c, 5, 59, 0
9, 81024, Note_on_c, 5, 61, 0
9, 81024, Note_on_c, 5, 42, 0
9, 81024, Note_on_c, 5, 54, 0
9, 81024, Note_on_c, 5, 66, 0
9, 81024, Note_on_c, 5, 66, 100
9, 81024, Note_on_c, 5, 58, 100
9, 81024, Note_on_c, 5, 54, 100
9, 81024, Note_on_c, 5, 61, 100
9, 81366, Note_on_c, 5, 61, 0
9, 81366, Note_on_c, 5, 58, 0
9, 81408, Note_on_c, 5, 58, 100
9, 81408, Note_on_c, 5, 61, 95
9, 81750, Note_on_c, 5, 61, 0
9, 81750, Note_on_c, 5, 58, 0
9, 81750, Note_on_c, 5, 54, 0
9, 81792, Note_on_c, 5, 59, 113
9, 81792, Note_on_c, 5, 54, 76
9, 81792, Note_on_c, 5, 61, 68
9, 82134, Note_on_c, 5, 61, 0
9, 82134, Note_on_c, 5, 59, 0
9, 82176, Note_on_c, 5, 61, 100
9, 82176, Note_on_c, 5, 58, 100
9, 82560, Note_on_c, 5, 58, 0
9, 82560, Note_on_c, 5, 66, 0
9, 82560, Note_on_c, 5, 54, 0
9, 82560, Note_on_c, 5, 61, 0
9, 82560, Note_on_c, 5, 47, 104
9, 82752, Note_on_c, 5, 54, 71
9, 82944, Note_on_c, 5, 59, 97
9, 83136, Note_on_c, 5, 62, 104
9, 83520, Note_on_c, 5, 59, 0
9, 83520, Note_on_c, 5, 59, 94
9, 83712, Note_on_c, 5, 54, 0
9, 83712, Note_on_c, 5, 54, 76
9, 83904, Note_on_c, 5, 47, 0
9, 83904, Note_on_c, 5, 47, 73
9, 84096, Note_on_c, 5, 47, 0
9, 84096, Note_on_c, 5, 54, 0
9, 84096, Note_on_c, 5, 62, 0
9, 84096, Note_on_c, 5, 59, 0
9, 84096, Note_on_c, 5, 52, 91
9, 84288, Note_on_c, 5, 55, 73
9, 84480, Note_on_c, 5, 59, 83
9, 84672, Note_on_c, 5, 64, 101
9, 85056, Note_on_c, 5, 59, 0
9, 85056, Note_on_c, 5, 59, 86
9, 85248, Note_on_c, 5, 55, 0
9, 85248, Note_on_c, 5, 55, 104
9, 85440, Note_on_c, 5, 52, 0
9, 85440, Note_on_c, 5, 52, 88
9, 85632, Note_on_c, 5, 52, 0
9, 85632, Note_on_c, 5, 55, 0
9, 85632, Note_on_c, 5, 64, 0
9, 85632, Note_on_c, 5, 59, 0
9, 85632, Note_on_c, 5, 45, 88
9, 85824, Note_on_c, 5, 52, 73
9, 86016, Note_on_c, 5, 57, 94
9, 86208, Note_on_c, 5, 61, 73
9, 86592, Note_on_c, 5, 57, 0
9, 86592, Note_on_c, 5, 57, 88
9, 86784, Note_on_c, 5, 52, 0
9, 86784, Note_on_c, 5, 52, 83
9, 86976, Note_on_c, 5, 45, 0
9, 86976, Note_on_c, 5, 45, 83
9, 87168, Note_on_c, 5, 45, 0
9, 87168, Note_on_c, 5, 52, 0
9, 87168, Note_on_c, 5, 61, 0
9, 87168, Note_on_c, 5, 57, 0
9, 87168, Note_on_c, 5, 50, 97
9, 87360, Note_on_c, 5, 54, 80
9, 87552, Note_on_c, 5, 57, 101
9, 87744, Note_on_c, 5, 61, 95
9, 88128, Note_on_c, 5, 57, 0
9, 88128, Note_on_c, 5, 57, 104
9, 88320, Note_on_c, 5, 54, 0
9, 88320, Note_on_c, 5, 54, 87
9, 88512, Note_on_c, 5, 50, 0
9, 88512, Note_on_c, 5, 50, 91
9, 88704, Note_on_c, 5, 50, 0
9, 88704, Note_on_c, 5, 54, 0
9, 88704, Note_on_c, 5, 61, 0
9, 88704, Note_on_c, 5, 57, 0
9, 88704, Note_on_c, 5, 44, 91
9, 88896, Note_on_c, 5, 54, 71
9, 89088, Note_on_c, 5, 59, 97
9, 89280, Note_on_c, 5, 62, 101
9, 89664, Note_on_c, 5, 59, 0
9, 89664, Note_on_c, 5, 59, 94
9, 89856, Note_on_c, 5, 54, 0
9, 89856, Note_on_c, 5, 54, 87
9, 90048, Note_on_c, 5, 54, 0
9, 90048, Note_on_c, 5, 59, 0
9, 90048, Note_on_c, 5, 44, 0
9, 90048, Note_on_c, 5, 62, 0
9, 90048, Note_on_c, 5, 44, 71
9, 90240, Note_on_c, 5, 44, 0
9, 90240, Note_on_c, 5, 49, 91
9, 90432, Note_on_c, 5, 56, 83
9, 90624, Note_on_c, 5, 59, 104
9, 90816, Note_on_c, 5, 65, 101
9, 91200, Note_on_c, 5, 59, 0
9, 91200, Note_on_c, 5, 59, 101
9, 91392, Note_on_c, 5, 56, 0
9, 91392, Note_on_c, 5, 56, 91
9, 91584, Note_on_c, 5, 49, 0
9, 91584, Note_on_c, 5, 49, 87
9, 91776, Note_on_c, 5, 49, 0
9, 91776, Note_on_c, 5, 56, 0
9, 91776, Note_on_c, 5, 65, 0
9, 91776, Note_on_c, 5, 59, 0
9, 91776, Note_on_c, 5, 54, 87
9, 91968, Note_on_c, 5, 59, 83
9, 92160, Note_on_c, 5, 61, 80
9, 92352, Note_on_c, 5, 66, 91
9, 92736, Note_on_c, 5, 61, 0
9, 92736, Note_on_c, 5, 61, 91
9, 92928, Note_on_c, 5, 59, 0
9, 92928, Note_on_c, 5, 59, 104
9, 93120, Note_on_c, 5, 66, 0
9, 93120, Note_on_c, 5, 54, 0
9, 93120, Note_on_c, 5, 54, 95
9, 93312, Note_on_c, 5, 61, 0
9, 93312, Note_on_c, 5, 59, 0
9, 93312, Note_on_c, 5, 54, 110
9, 93330, Note_on_c, 5, 54, 0
9, 93504, Note_on_c, 5, 58, 110
9, 93696, Note_on_c, 5, 61, 95
9, 93888, Note_on_c, 5, 66, 110
9, 93892, Note_on_c, 5, 58, 0
9, 93929, Note_on_c, 5, 61, 0
9, 94080, Note_on_c, 5, 59, 127
9, 94080, Note_on_c, 5, 61, 127
9, 94103, Note_on_c, 5, 66, 0
9, 94271, Note_on_c, 5, 59, 0
9, 94272, Note_on_c, 5, 66, 104
9, 94291, Note_on_c, 5, 61, 0
9, 94464, Note_on_c, 5, 64, 117
9, 94464, Note_on_c, 5, 61, 95
9, 94527, Note_on_c, 5, 66, 0
9, 94656, Note_on_c, 5, 66, 104
9, 94682, Note_on_c, 5, 61, 0
9, 94695, Note_on_c, 5, 64, 0
9, 94835, Note_on_c, 5, 66, 0
9, 94839, Note_on_c, 5, 54, 0
9, 94848, Note_on_c, 5, 47, 104
9, 95040, Note_on_c, 5, 54, 71
9, 95232, Note_on_c, 5, 59, 97
9, 95424, Note_on_c, 5, 62, 104
9, 95808, Note_on_c, 5, 59, 0
9, 95808, Note_on_c, 5, 59, 94
9, 96000, Note_on_c, 5, 54, 0
9, 96000, Note_on_c, 5, 54, 76
9, 96192, Note_on_c, 5, 47, 0
9, 96192, Note_on_c, 5, 47, 73
9, 96384, Note_on_c, 5, 47, 0
9, 96384, Note_on_c, 5, 54, 0
9, 96384, Note_on_c, 5, 62, 0
9, 96384, Note_on_c, 5, 59, 0
9, 96384, Note_on_c, 5, 52, 91
9, 96576, Note_on_c, 5, 55, 73
9, 96768, Note_on_c, 5, 59, 83
9, 96960, Note_on_c, 5, 64, 101
9, 97344, Note_on_c, 5, 59, 0
9, 97344, Note_on_c, 5, 59, 86
9, 97536, Note_on_c, 5, 55, 0
9, 97536, Note_on_c, 5, 55, 104
9, 97728, Note_on_c, 5, 52, 0
9, 97728, Note_on_c, 5, 52, 88
9, 97920, Note_on_c, 5, 52, 0
9, 97920, Note_on_c, 5, 55, 0
9, 97920, Note_on_c, 5, 64, 0
9, 97920, Note_on_c, 5, 59, 0
9, 97920, Note_on_c, 5, 45, 88
9, 98112, Note_on_c, 5, 52, 73
9, 98304, Note_on_c, 5, 57, 94
9, 98496, Note_on_c, 5, 61, 73
9, 98880, Note_on_c, 5, 57, 0
9, 98880, Note_on_c, 5, 57, 88
9, 99072, Note_on_c, 5, 52, 0
9, 99072, Note_on_c, 5, 52, 83
9, 99264, Note_on_c, 5, 45, 0
9, 99264, Note_on_c, 5, 45, 83
9, 99456, Note_on_c, 5, 45, 0
9, 99456, Note_on_c, 5, 52, 0
9, 99456, Note_on_c, 5, 61, 0
9, 99456, Note_on_c, 5, 57, 0
9, 99456, Note_on_c, 5, 50, 97
9, 99648, Note_on_c, 5, 54, 80
9, 99840, Note_on_c, 5, 57, 101
9, 100032, Note_on_c, 5, 61, 95
9, 100416, Note_on_c, 5, 57, 0
9, 100416, Note_on_c, 5, 57, 104
9, 100608, Note_on_c, 5, 54, 0
9, 100608, Note_on_c, 5, 54, 87
9, 100800, Note_on_c, 5, 50, 0
9, 100800, Note_on_c, 5, 50, 91
9, 100992, Note_on_c, 5, 50, 0
9, 100992, Note_on_c, 5, 54, 0
9, 100992, Note_on_c, 5, 61, 0
9, 100992, Note_on_c, 5, 57, 0
9, 100992, Note_on_c, 5, 44, 91
9, 101184, Note_on_c, 5, 54, 71
9, 101376, Note_on_c, 5, 59, 97
9, 101568, Note_on_c, 5, 62, 101
9, 101952, Note_on_c, 5, 59, 0
9, 101952, Note_on_c, 5, 59, 94
9, 102144, Note_on_c, 5, 54, 0
9, 102144, Note_on_c, 5, 54, 87
9, 102336, Note_on_c, 5, 54, 0
9, 102336, Note_on_c, 5, 59, 0
9, 102336, Note_on_c, 5, 44, 0
9, 102336, Note_on_c, 5, 62, 0
9, 102336, Note_on_c, 5, 44, 71
9, 102528, Note_on_c, 5, 44, 0
9, 102528, Note_on_c, 5, 49, 91
9, 102720, Note_on_c, 5, 56, 83
9, 102912, Note_on_c, 5, 59, 104
9, 103104, Note_on_c, 5, 65, 101
9, 103488, Note_on_c, 5, 59, 0
9, 103488, Note_on_c, 5, 59, 101
9, 103680, Note_on_c, 5, 56, 0
9, 103680, Note_on_c, 5, 56, 91
9, 103872, Note_on_c, 5, 49, 0
9, 103872, Note_on_c, 5, 49, 87
9, 104064, Note_on_c, 5, 49, 0
9, 104064, Note_on_c, 5, 56, 0
9, 104064, Note_on_c, 5, 65, 0
9, 104064, Note_on_c, 5, 59, 0
9, 104064, Note_on_c, 5, 54, 87
9, 104256, Note_on_c, 5, 59, 83
9, 104448, Note_on_c, 5, 61, 80
9, 104640, Note_on_c, 5, 66, 91
9, 105024, Note_on_c, 5, 61, 0
9, 105024, Note_on_c, 5, 61, 91
9, 105216, Note_on_c, 5, 59, 0
9, 105216, Note_on_c, 5, 59, 104
9, 105408, Note_on_c, 5, 66, 0
9, 105408, Note_on_c, 5, 54, 0
9, 105408, Note_on_c, 5, 54, 95
9, 105600, Note_on_c, 5, 61, 0
9, 105600, Note_on_c, 5, 59, 0
9, 105618, Note_on_c, 5, 54, 0
9, 111024, Control_c, 5, 121, 127
9, 111024, End_track
10, 0, Start_track
10, 0, MIDI_port, 0
10, 171, Program_c, 6, 49
10, 172, Control_c, 6, 7, 49
10, 173, Control_c, 6, 10, 64
10, 174, Control_c, 6, 11, 127
10, 175, Control_c, 6, 91, 64
10, 176, Control_c, 6, 93, 0
10, 13824, Note_on_c, 6, 71, 127
10, 13824, Note_on_c, 6, 66, 127
10, 13824, Note_on_c, 6, 59, 127
10, 13824, Note_on_c, 6, 43, 127
10, 15360, Note_on_c, 6, 43, 0
10, 15360, Note_on_c, 6, 71, 0
10, 15360, Note_on_c, 6, 66, 0
10, 15360, Note_on_c, 6, 59, 0
10, 15360, Note_on_c, 6, 42, 127
10, 15360, Note_on_c, 6, 69, 127
10, 15360, Note_on_c, 6, 57, 127
10, 15360, Note_on_c, 6, 64, 127
10, 16896, Note_on_c, 6, 64, 0
10, 16896, Note_on_c, 6, 42, 0
10, 16896, Note_on_c, 6, 69, 0
10, 16896, Note_on_c, 6, 57, 0
10, 16896, Note_on_c, 6, 62, 127
10, 16896, Note_on_c, 6, 55, 127
10, 16896, Note_on_c, 6, 67, 127
10, 16896, Note_on_c, 6, 40, 127
10, 18432, Note_on_c, 6, 40, 0
10, 18432, Note_on_c, 6, 62, 0
10, 18432, Note_on_c, 6, 55, 0
10, 18432, Note_on_c, 6, 67, 0
10, 18432, Note_on_c, 6, 61, 127
10, 18432, Note_on_c, 6, 78, 127
10, 18432, Note_on_c, 6, 42, 127
10, 18432, Note_on_c, 6, 59, 127
10, 18432, Note_on_c, 6, 66, 127
10, 19968, Note_on_c, 6, 59, 0
10, 19968, Note_on_c, 6, 42, 0
10, 19968, Note_on_c, 6, 58, 127
10, 20154, Note_on_c, 6, 58, 0
10, 20160, Note_on_c, 6, 66, 0
10, 20160, Note_on_c, 6, 78, 0
10, 20160, Note_on_c, 6, 61, 0
10, 20352, Note_on_c, 6, 61, 127
10, 20352, Note_on_c, 6, 66, 127
10, 20352, Note_on_c, 6, 78, 127
10, 20352, Note_on_c, 6, 70, 127
10, 20736, Note_on_c, 6, 70, 0
10, 20736, Note_on_c, 6, 61, 0
10, 20736, Note_on_c, 6, 66, 0
10, 20736, Note_on_c, 6, 71, 127
10, 20736, Note_on_c, 6, 62, 127
10, 20736, Note_on_c, 6, 66, 127
10, 21120, Note_on_c, 6, 66, 0
10, 21120, Note_on_c, 6, 62, 0
10, 21120, Note_on_c, 6, 71, 0
10, 21120, Note_on_c, 6, 64, 127
10, 21120, Note_on_c, 6, 73, 127
10, 21120, Note_on_c, 6, 66, 127
10, 21504, Note_on_c, 6, 66, 0
10, 21504, Note_on_c, 6, 78, 0
10, 21504, Note_on_c, 6, 64, 0
10, 21504, Note_on_c, 6, 73, 0
10, 21504, Note_on_c, 6, 74, 117
10, 21504, Note_on_c, 6, 78, 117
10, 21504, Note_on_c, 6, 66, 117
10, 21504, Note_on_c, 6, 71, 117
10, 21504, Note_on_c, 6, 47, 117
10, 23040, Note_on_c, 6, 47, 0
10, 23040, Note_on_c, 6, 66, 0
10, 23040, Note_on_c, 6, 74, 0
10, 23040, Note_on_c, 6, 78, 0
10, 23040, Note_on_c, 6, 71, 0
10, 23040, Note_on_c, 6, 76, 117
10, 23040, Note_on_c, 6, 67, 117
10, 23040, Note_on_c, 6, 52, 117
10, 23040, Note_on_c, 6, 71, 117
10, 24576, Note_on_c, 6, 71, 0
10, 24576, Note_on_c, 6, 76, 0
10, 24576, Note_on_c, 6, 67, 0
10, 24576, Note_on_c, 6, 52, 0
10, 24576, Note_on_c, 6, 64, 117
10, 24576, Note_on_c, 6, 69, 117
10, 24576, Note_on_c, 6, 76, 117
10, 24576, Note_on_c, 6, 45, 117
10, 24576, Note_on_c, 6, 73, 117
10, 26112, Note_on_c, 6, 73, 0
10, 26112, Note_on_c, 6, 76, 0
10, 26112, Note_on_c, 6, 64, 0
10, 26112, Note_on_c, 6, 69, 0
10, 26112, Note_on_c, 6, 45, 0
10, 26112, Note_on_c, 6, 50, 117
10, 26112, Note_on_c, 6, 66, 117
10, 26112, Note_on_c, 6, 69, 117
10, 26112, Note_on_c, 6, 78, 117
10, 26112, Note_on_c, 6, 73, 117
10, 27648, Note_on_c, 6, 73, 0
10, 27648, Note_on_c, 6, 69, 0
10, 27648, Note_on_c, 6, 50, 0
10, 27648, Note_on_c, 6, 66, 0
10, 27648, Note_on_c, 6, 78, 0
10, 27648, Note_on_c, 6, 66, 117
10, 27648, Note_on_c, 6, 44, 117
10, 27648, Note_on_c, 6, 74, 117
10, 27648, Note_on_c, 6, 71, 117
10, 27648, Note_on_c, 6, 78, 117
10, 29184, Note_on_c, 6, 78, 0
10, 29184, Note_on_c, 6, 74, 0
10, 29184, Note_on_c, 6, 66, 0
10, 29184, Note_on_c, 6, 44, 0
10, 29184, Note_on_c, 6, 71, 0
10, 29184, Note_on_c, 6, 77, 117
10, 29184, Note_on_c, 6, 49, 117
10, 29184, Note_on_c, 6, 71, 117
10, 29184, Note_on_c, 6, 74, 117
10, 29184, Note_on_c, 6, 68, 117
10, 30720, Note_on_c, 6, 68, 0
10, 30720, Note_on_c, 6, 71, 0
10, 30720, Note_on_c, 6, 77, 0
10, 30720, Note_on_c, 6, 49, 0
10, 30720, Note_on_c, 6, 74, 0
10, 30720, Note_on_c, 6, 42, 117
10, 30720, Note_on_c, 6, 71, 117
10, 30720, Note_on_c, 6, 73, 117
10, 30720, Note_on_c, 6, 54, 117
10, 30720, Note_on_c, 6, 78, 117
10, 32256, Note_on_c, 6, 78, 0
10, 32256, Note_on_c, 6, 73, 0
10, 32256, Note_on_c, 6, 42, 0
10, 32256, Note_on_c, 6, 71, 0
10, 32256, Note_on_c, 6, 54, 0
10, 32256, Note_on_c, 6, 70, 117
10, 32256, Note_on_c, 6, 78, 117
10, 32256, Note_on_c, 6, 73, 117
10, 32382, Note_on_c, 6, 73, 0
10, 32382, Note_on_c, 6, 78, 0
10, 32382, Note_on_c, 6, 70, 0
10, 32640, Note_on_c, 6, 61, 99
10, 32640, Note_on_c, 6, 58, 99
10, 32640, Note_on_c, 6, 66, 99
10, 32968, Note_on_c, 6, 58, 0
10, 32972, Note_on_c, 6, 61, 0
10, 33024, Note_on_c, 6, 59, 102
10, 33024, Note_on_c, 6, 62, 102
10, 33331, Note_on_c, 6, 59, 0
10, 33370, Note_on_c, 6, 62, 0
10, 33408, Note_on_c, 6, 64, 106
10, 33408, Note_on_c, 6, 61, 106
10, 33723, Note_on_c, 6, 66, 0
10, 33754, Note_on_c, 6, 61, 0
10, 33767, Note_on_c, 6, 64, 0
10, 33792, Note_on_c, 6, 50, 108
10, 33792, Note_on_c, 6, 54, 108
10, 33792, Note_on_c, 6, 57, 108
10, 33792, Note_on_c, 6, 62, 108
10, 36787, Note_on_c, 6, 62, 0
10, 36789, Note_on_c, 6, 57, 0
10, 36790, Note_on_c, 6, 54, 0
10, 36820, Note_on_c, 6, 50, 0
10, 36864, Note_on_c, 6, 61, 96
10, 36864, Note_on_c, 6, 57, 96
10, 36864, Note_on_c, 6, 52, 96
10, 36864, Note_on_c, 6, 49, 96
10, 38400, Note_on_c, 6, 49, 0
10, 38400, Note_on_c, 6, 61, 0
10, 38400, Note_on_c, 6, 57, 0
10, 38400, Note_on_c, 6, 52, 0
10, 38400, Note_on_c, 6, 47, 96
10, 38400, Note_on_c, 6, 62, 96
10, 38400, Note_on_c, 6, 54, 96
10, 38400, Note_on_c, 6, 59, 96
10, 39936, Note_on_c, 6, 59, 0
10, 39936, Note_on_c, 6, 47, 0
10, 39936, Note_on_c, 6, 62, 0
10, 39936, Note_on_c, 6, 54, 0
10, 39936, Note_on_c, 6, 54, 96
10, 39936, Note_on_c, 6, 61, 96
10, 39936, Note_on_c, 6, 42, 96
10, 39936, Note_on_c, 6, 57, 96
10, 41472, Note_on_c, 6, 57, 0
10, 41472, Note_on_c, 6, 54, 0
10, 41472, Note_on_c, 6, 61, 0
10, 41472, Note_on_c, 6, 42, 0
10, 41472, Note_on_c, 6, 47, 96
10, 41472, Note_on_c, 6, 62, 96
10, 41472, Note_on_c, 6, 59, 96
10, 41472, Note_on_c, 6, 54, 96
10, 44352, Note_on_c, 6, 54, 0
10, 44352, Note_on_c, 6, 47, 0
10, 44352, Note_on_c, 6, 62, 0
10, 44352, Note_on_c, 6, 59, 0
10, 44544, Note_on_c, 6, 66, 127
10, 44544, Note_on_c, 6, 59, 127
10, 44544, Note_on_c, 6, 43, 127
10, 44544, Note_on_c, 6, 71, 127
10, 46080, Note_on_c, 6, 71, 0
10, 46080, Note_on_c, 6, 66, 0
10, 46080, Note_on_c, 6, 59, 0
10, 46080, Note_on_c, 6, 43, 0
10, 46080, Note_on_c, 6, 69, 127
10, 46080, Note_on_c, 6, 64, 127
10, 46080, Note_on_c, 6, 57, 127
10, 46080, Note_on_c, 6, 42, 127
10, 47616, Note_on_c, 6, 42, 0
10, 47616, Note_on_c, 6, 69, 0
10, 47616, Note_on_c, 6, 64, 0
10, 47616, Note_on_c, 6, 57, 0
10, 47616, Note_on_c, 6, 40, 127
10, 47616, Note_on_c, 6, 67, 127
10, 47616, Note_on_c, 6, 55, 127
10, 47616, Note_on_c, 6, 62, 127
10, 49152, Note_on_c, 6, 62, 0
10, 49152, Note_on_c, 6, 40, 0
10, 49152, Note_on_c, 6, 67, 0
10, 49152, Note_on_c, 6, 55, 0
10, 49152, Note_on_c, 6, 42, 127
10, 49152, Note_on_c, 6, 61, 127
10, 49152, Note_on_c, 6, 59, 127
10, 49152, Note_on_c, 6, 66, 127
10, 49152, Note_on_c, 6, 78, 127
10, 50688, Note_on_c, 6, 59, 0
10, 50688, Note_on_c, 6, 42, 0
10, 50688, Note_on_c, 6, 58, 127
10, 50874, Note_on_c, 6, 58, 0
10, 50880, Note_on_c, 6, 78, 0
10, 50880, Note_on_c, 6, 66, 0
10, 50880, Note_on_c, 6, 61, 0
10, 51072, Note_on_c, 6, 78, 127
10, 51072, Note_on_c, 6, 70, 127
10, 51072, Note_on_c, 6, 61, 127
10, 51072, Note_on_c, 6, 66, 127
10, 51456, Note_on_c, 6, 66, 0
10, 51456, Note_on_c, 6, 61, 0
10, 51456, Note_on_c, 6, 70, 0
10, 51456, Note_on_c, 6, 71, 127
10, 51456, Note_on_c, 6, 66, 127
10, 51456, Note_on_c, 6, 62, 127
10, 51840, Note_on_c, 6, 62, 0
10, 51840, Note_on_c, 6, 66, 0
10, 51840, Note_on_c, 6, 71, 0
10, 51840, Note_on_c, 6, 73, 127
10, 51840, Note_on_c, 6, 64, 127
10, 51840, Note_on_c, 6, 66, 127
10, 52224, Note_on_c, 6, 66, 0
10, 52224, Note_on_c, 6, 78, 0
10, 52224, Note_on_c, 6, 73, 0
10, 52224, Note_on_c, 6, 64, 0
10, 52224, Note_on_c, 6, 78, 117
10, 52224, Note_on_c, 6, 71, 117
10, 52224, Note_on_c, 6, 66, 117
10, 52224, Note_on_c, 6, 47, 117
10, 52224, Note_on_c, 6, 74, 117
10, 53760, Note_on_c, 6, 74, 0
10, 53760, Note_on_c, 6, 66, 0
10, 53760, Note_on_c, 6, 78, 0
10, 53760, Note_on_c, 6, 71, 0
10, 53760, Note_on_c, 6, 47, 0
10, 53760, Note_on_c, 6, 71, 117
10, 53760, Note_on_c, 6, 76, 117
10, 53760, Note_on_c, 6, 67, 117
10, 53760, Note_on_c, 6, 52, 117
10, 55296, Note_on_c, 6, 52, 0
10, 55296, Note_on_c, 6, 71, 0
10, 55296, Note_on_c, 6, 76, 0
10, 55296, Note_on_c, 6, 67, 0
10, 55296, Note_on_c, 6, 45, 117
10, 55296, Note_on_c, 6, 73, 117
10, 55296, Note_on_c, 6, 76, 117
10, 55296, Note_on_c, 6, 69, 117
10, 55296, Note_on_c, 6, 64, 117
10, 56832, Note_on_c, 6, 64, 0
10, 56832, Note_on_c, 6, 76, 0
10, 56832, Note_on_c, 6, 45, 0
10, 56832, Note_on_c, 6, 73, 0
10, 56832, Note_on_c, 6, 69, 0
10, 56832, Note_on_c, 6, 69, 117
10, 56832, Note_on_c, 6, 78, 117
10, 56832, Note_on_c, 6, 50, 117
10, 56832, Note_on_c, 6, 73, 117
10, 56832, Note_on_c, 6, 66, 117
10, 58368, Note_on_c, 6, 66, 0
10, 58368, Note_on_c, 6, 50, 0
10, 58368, Note_on_c, 6, 69, 0
10, 58368, Note_on_c, 6, 78, 0
10, 58368, Note_on_c, 6, 73, 0
10, 58368, Note_on_c, 6, 71, 117
10, 58368, Note_on_c, 6, 66, 117
10, 58368, Note_on_c, 6, 78, 117
10, 58368, Note_on_c, 6, 44, 117
10, 58368, Note_on_c, 6, 74, 117
10, 59904, Note_on_c, 6, 74, 0
10, 59904, Note_on_c, 6, 78, 0
10, 59904, Note_on_c, 6, 71, 0
10, 59904, Note_on_c, 6, 66, 0
10, 59904, Note_on_c, 6, 44, 0
10, 59904, Note_on_c, 6, 71, 117
10, 59904, Note_on_c, 6, 68, 117
10, 59904, Note_on_c, 6, 77, 117
10, 59904, Note_on_c, 6, 49, 117
10, 59904, Note_on_c, 6, 74, 117
10, 61440, Note_on_c, 6, 74, 0
10, 61440, Note_on_c, 6, 77, 0
10, 61440, Note_on_c, 6, 71, 0
10, 61440, Note_on_c, 6, 68, 0
10, 61440, Note_on_c, 6, 49, 0
10, 61440, Note_on_c, 6, 78, 117
10, 61440, Note_on_c, 6, 71, 117
10, 61440, Note_on_c, 6, 54, 117
10, 61440, Note_on_c, 6, 42, 117
10, 61440, Note_on_c, 6, 73, 117
10, 62976, Note_on_c, 6, 73, 0
10, 62976, Note_on_c, 6, 54, 0
10, 62976, Note_on_c, 6, 78, 0
10, 62976, Note_on_c, 6, 71, 0
10, 62976, Note_on_c, 6, 42, 0
10, 62976, Note_on_c, 6, 61, 99
10, 62976, Note_on_c, 6, 58, 99
10, 62976, Note_on_c, 6, 66, 99
10, 63304, Note_on_c, 6, 58, 0
10, 63308, Note_on_c, 6, 61, 0
10, 63360, Note_on_c, 6, 59, 102
10, 63360, Note_on_c, 6, 62, 102
10, 63667, Note_on_c, 6, 59, 0
10, 63706, Note_on_c, 6, 62, 0
10, 63744, Note_on_c, 6, 64, 106
10, 63744, Note_on_c, 6, 61, 106
10, 64059, Note_on_c, 6, 66, 0
10, 64090, Note_on_c, 6, 61, 0
10, 64103, Note_on_c, 6, 64, 0
10, 64128, Note_on_c, 6, 50, 108
10, 64128, Note_on_c, 6, 54, 108
10, 64128, Note_on_c, 6, 57, 108
10, 64128, Note_on_c, 6, 62, 108
10, 67123, Note_on_c, 6, 62, 0
10, 67125, Note_on_c, 6, 57, 0
10, 67126, Note_on_c, 6, 54, 0
10, 67156, Note_on_c, 6, 50, 0
10, 67200, Note_on_c, 6, 61, 96
10, 67200, Note_on_c, 6, 57, 96
10, 67200, Note_on_c, 6, 52, 96
10, 67200, Note_on_c, 6, 49, 96
10, 68736, Note_on_c, 6, 49, 0
10, 68736, Note_on_c, 6, 61, 0
10, 68736, Note_on_c, 6, 57, 0
10, 68736, Note_on_c, 6, 52, 0
10, 68736, Note_on_c, 6, 47, 96
10, 68736, Note_on_c, 6, 62, 96
10, 68736, Note_on_c, 6, 54, 96
10, 68736, Note_on_c, 6, 59, 96
10, 70272, Note_on_c, 6, 59, 0
10, 70272, Note_on_c, 6, 47, 0
10, 70272, Note_on_c, 6, 62, 0
10, 70272, Note_on_c, 6, 54, 0
10, 70272, Note_on_c, 6, 54, 96
10, 70272, Note_on_c, 6, 61, 96
10, 70272, Note_on_c, 6, 42, 96
10, 70272, Note_on_c, 6, 57, 96
10, 71808, Note_on_c, 6, 57, 0
10, 71808, Note_on_c, 6, 54, 0
10, 71808, Note_on_c, 6, 61, 0
10, 71808, Note_on_c, 6, 42, 0
10, 71808, Note_on_c, 6, 47, 96
10, 71808, Note_on_c, 6, 62, 96
10, 71808, Note_on_c, 6, 59, 96
10, 71808, Note_on_c, 6, 54, 96
10, 74688, Note_on_c, 6, 54, 0
10, 74688, Note_on_c, 6, 47, 0
10, 74688, Note_on_c, 6, 62, 0
10, 74688, Note_on_c, 6, 59, 0
10, 74880, Note_on_c, 6, 66, 127
10, 74880, Note_on_c, 6, 59, 127
10, 74880, Note_on_c, 6, 43, 127
10, 74880, Note_on_c, 6, 71, 127
10, 76416, Note_on_c, 6, 71, 0
10, 76416, Note_on_c, 6, 66, 0
10, 76416, Note_on_c, 6, 59, 0
10, 76416, Note_on_c, 6, 43, 0
10, 76416, Note_on_c, 6, 69, 127
10, 76416, Note_on_c, 6, 64, 127
10, 76416, Note_on_c, 6, 57, 127
10, 76416, Note_on_c, 6, 42, 127
10, 77952, Note_on_c, 6, 42, 0
10, 77952, Note_on_c, 6, 69, 0
10, 77952, Note_on_c, 6, 64, 0
10, 77952, Note_on_c, 6, 57, 0
10, 77952, Note_on_c, 6, 40, 127
10, 77952, Note_on_c, 6, 67, 127
10, 77952, Note_on_c, 6, 55, 127
10, 77952, Note_on_c, 6, 62, 127
10, 79488, Note_on_c, 6, 62, 0
10, 79488, Note_on_c, 6, 40, 0
10, 79488, Note_on_c, 6, 67, 0
10, 79488, Note_on_c, 6, 55, 0
10, 79488, Note_on_c, 6, 42, 127
10, 79488, Note_on_c, 6, 61, 127
10, 79488, Note_on_c, 6, 59, 127
10, 79488, Note_on_c, 6, 66, 127
10, 79488, Note_on_c, 6, 78, 127
10, 81024, Note_on_c, 6, 59, 0
10, 81024, Note_on_c, 6, 42, 0
10, 81024, Note_on_c, 6, 58, 127
10, 81210, Note_on_c, 6, 58, 0
10, 81216, Note_on_c, 6, 78, 0
10, 81216, Note_on_c, 6, 66, 0
10, 81216, Note_on_c, 6, 61, 0
10, 81408, Note_on_c, 6, 78, 127
10, 81408, Note_on_c, 6, 70, 127
10, 81408, Note_on_c, 6, 61, 127
10, 81408, Note_on_c, 6, 66, 127
10, 81792, Note_on_c, 6, 66, 0
10, 81792, Note_on_c, 6, 61, 0
10, 81792, Note_on_c, 6, 70, 0
10, 81792, Note_on_c, 6, 71, 127
10, 81792, Note_on_c, 6, 66, 127
10, 81792, Note_on_c, 6, 62, 127
10, 82176, Note_on_c, 6, 62, 0
10, 82176, Note_on_c, 6, 66, 0
10, 82176, Note_on_c, 6, 71, 0
10, 82176, Note_on_c, 6, 73, 127
10, 82176, Note_on_c, 6, 64, 127
10, 82176, Note_on_c, 6, 66, 127
10, 82560, Note_on_c, 6, 66, 0
10, 82560, Note_on_c, 6, 78, 0
10, 82560, Note_on_c, 6, 73, 0
10, 82560, Note_on_c, 6, 64, 0
10, 82560, Note_on_c, 6, 78, 117
10, 82560, Note_on_c, 6, 71, 117
10, 82560, Note_on_c, 6, 66, 117
10, 82560, Note_on_c, 6, 47, 117
10, 82560, Note_on_c, 6, 74, 117
10, 84096, Note_on_c, 6, 74, 0
10, 84096, Note_on_c, 6, 66, 0
10, 84096, Note_on_c, 6, 78, 0
10, 84096, Note_on_c, 6, 71, 0
10, 84096, Note_on_c, 6, 47, 0
10, 84096, Note_on_c, 6, 71, 117
10, 84096, Note_on_c, 6, 76, 117
10, 84096, Note_on_c, 6, 67, 117
10, 84096, Note_on_c, 6, 52, 117
10, 85632, Note_on_c, 6, 52, 0
10, 85632, Note_on_c, 6, 71, 0
10, 85632, Note_on_c, 6, 76, 0
10, 85632, Note_on_c, 6, 67, 0
10, 85632, Note_on_c, 6, 45, 117
10, 85632, Note_on_c, 6, 73, 117
10, 85632, Note_on_c, 6, 76, 117
10, 85632, Note_on_c, 6, 69, 117
10, 85632, Note_on_c, 6, 64, 117
10, 87168, Note_on_c, 6, 64, 0
10, 87168, Note_on_c, 6, 76, 0
10, 87168, Note_on_c, 6, 45, 0
10, 87168, Note_on_c, 6, 73, 0
10, 87168, Note_on_c, 6, 69, 0
10, 87168, Note_on_c, 6, 69, 117
10, 87168, Note_on_c, 6, 78, 117
10, 87168, Note_on_c, 6, 50, 117
10, 87168, Note_on_c, 6, 73, 117
10, 87168, Note_on_c, 6, 66, 117
10, 88704, Note_on_c, 6, 66, 0
10, 88704, Note_on_c, 6, 50, 0
10, 88704, Note_on_c, 6, 69, 0
10, 88704, Note_on_c, 6, 78, 0
10, 88704, Note_on_c, 6, 73, 0
10, 88704, Note_on_c, 6, 71, 117
10, 88704, Note_on_c, 6, 66, 117
10, 88704, Note_on_c, 6, 78, 117
10, 88704, Note_on_c, 6, 44, 117
10, 88704, Note_on_c, 6, 74, 117
10, 90240, Note_on_c, 6, 74, 0
10, 90240, Note_on_c, 6, 78, 0
10, 90240, Note_on_c, 6, 71, 0
10, 90240, Note_on_c, 6, 66, 0
10, 90240, Note_on_c, 6, 44, 0
10, 90240, Note_on_c, 6, 71, 117
10, 90240, Note_on_c, 6, 68, 117
10, 90240, Note_on_c, 6, 77, 117
10, 90240, Note_on_c, 6, 49, 117
10, 90240, Note_on_c, 6, 74, 117
10, 91776, Note_on_c, 6, 74, 0
10, 91776, Note_on_c, 6, 77, 0
10, 91776, Note_on_c, 6, 71, 0
10, 91776, Note_on_c, 6, 68, 0
10, 91776, Note_on_c, 6, 49, 0
10, 91776, Note_on_c, 6, 78, 117
10, 91776, Note_on_c, 6, 71, 117
10, 91776, Note_on_c, 6, 54, 117
10, 91776, Note_on_c, 6, 42, 117
10, 91776, Note_on_c, 6, 73, 117
10, 93312, Note_on_c, 6, 73, 0
10, 93312, Note_on_c, 6, 54, 0
10, 93312, Note_on_c, 6, 78, 0
10, 93312, Note_on_c, 6, 71, 0
10, 93312, Note_on_c, 6, 42, 0
10, 93312, Note_on_c, 6, 58, 127
10, 93312, Note_on_c, 6, 70, 117
10, 93312, Note_on_c, 6, 78, 117
10, 93312, Note_on_c, 6, 73, 117
10, 93498, Note_on_c, 6, 58, 0
10, 93666, Note_on_c, 6, 70, 0
10, 93666, Note_on_c, 6, 78, 0
10, 93666, Note_on_c, 6, 73, 0
10, 93696, Note_on_c, 6, 66, 127
10, 93696, Note_on_c, 6, 70, 127
10, 93696, Note_on_c, 6, 78, 127
10, 93696, Note_on_c, 6, 61, 127
10, 94080, Note_on_c, 6, 61, 0
10, 94080, Note_on_c, 6, 66, 0
10, 94080, Note_on_c, 6, 70, 0
10, 94080, Note_on_c, 6, 62, 127
10, 94080, Note_on_c, 6, 71, 127
10, 94080, Note_on_c, 6, 66, 127
10, 94464, Note_on_c, 6, 66, 0
10, 94464, Note_on_c, 6, 71, 0
10, 94464, Note_on_c, 6, 62, 0
10, 94464, Note_on_c, 6, 64, 127
10, 94464, Note_on_c, 6, 73, 127
10, 94464, Note_on_c, 6, 66, 127
10, 94848, Note_on_c, 6, 66, 0
10, 94848, Note_on_c, 6, 78, 0
10, 94848, Note_on_c, 6, 64, 0
10, 94848, Note_on_c, 6, 73, 0
10, 94848, Note_on_c, 6, 74, 117
10, 94848, Note_on_c, 6, 47, 117
10, 94848, Note_on_c, 6, 71, 117
10, 94848, Note_on_c, 6, 78, 117
10, 94848, Note_on_c, 6, 66, 117
10, 96384, Note_on_c, 6, 66, 0
10, 96384, Note_on_c, 6, 71, 0
10, 96384, Note_on_c, 6, 74, 0
10, 96384, Note_on_c, 6, 47, 0
10, 96384, Note_on_c, 6, 78, 0
10, 96384, Note_on_c, 6, 76, 117
10, 96384, Note_on_c, 6, 67, 117
10, 96384, Note_on_c, 6, 52, 117
10, 96384, Note_on_c, 6, 71, 117
10, 97920, Note_on_c, 6, 71, 0
10, 97920, Note_on_c, 6, 76, 0
10, 97920, Note_on_c, 6, 67, 0
10, 97920, Note_on_c, 6, 52, 0
10, 97920, Note_on_c, 6, 76, 117
10, 97920, Note_on_c, 6, 45, 117
10, 97920, Note_on_c, 6, 73, 117
10, 97920, Note_on_c, 6, 64, 117
10, 97920, Note_on_c, 6, 69, 117
10, 99456, Note_on_c, 6, 69, 0
10, 99456, Note_on_c, 6, 73, 0
10, 99456, Note_on_c, 6, 76, 0
10, 99456, Note_on_c, 6, 45, 0
10, 99456, Note_on_c, 6, 64, 0
10, 99456, Note_on_c, 6, 73, 117
10, 99456, Note_on_c, 6, 50, 117
10, 99456, Note_on_c, 6, 78, 117
10, 99456, Note_on_c, 6, 69, 117
10, 99456, Note_on_c, 6, 66, 117
10, 100992, Note_on_c, 6, 66, 0
10, 100992, Note_on_c, 6, 78, 0
10, 100992, Note_on_c, 6, 73, 0
10, 100992, Note_on_c, 6, 50, 0
10, 100992, Note_on_c, 6, 69, 0
10, 100992, Note_on_c, 6, 74, 117
10, 100992, Note_on_c, 6, 78, 117
10, 100992, Note_on_c, 6, 44, 117
10, 100992, Note_on_c, 6, 66, 117
10, 100992, Note_on_c, 6, 71, 117
10, 102528, Note_on_c, 6, 71, 0
10, 102528, Note_on_c, 6, 44, 0
10, 102528, Note_on_c, 6, 74, 0
10, 102528, Note_on_c, 6, 78, 0
10, 102528, Note_on_c, 6, 66, 0
10, 102528, Note_on_c, 6, 71, 117
10, 102528, Note_on_c, 6, 74, 117
10, 102528, Note_on_c, 6, 49, 117
10, 102528, Note_on_c, 6, 68, 117
10, 102528, Note_on_c, 6, 77, 117
10, 104064, Note_on_c, 6, 77, 0
10, 104064, Note_on_c, 6, 49, 0
10, 104064, Note_on_c, 6, 71, 0
10, 104064, Note_on_c, 6, 74, 0
10, 104064, Note_on_c, 6, 68, 0
10, 104064, Note_on_c, 6, 78, 117
10, 104064, Note_on_c, 6, 42, 117
10, 104064, Note_on_c, 6, 73, 117
10, 104064, Note_on_c, 6, 71, 117
10, 104064, Note_on_c, 6, 54, 117
10, 105556, Note_on_c, 6, 70, 100
10, 105558, Note_on_c, 6, 73, 110
10, 105561, Note_on_c, 6, 78, 110
10, 105562, Note_on_c, 6, 54, 104
10, 105600, Note_on_c, 6, 54, 0
10, 105600, Note_on_c, 6, 42, 0
10, 105600, Note_on_c, 6, 78, 0
10, 105600, Note_on_c, 6, 73, 0
10, 105600, Note_on_c, 6, 71, 0
10, 105784, Note_on_c, 6, 73, 0
10, 105788, Note_on_c, 6, 70, 0
10, 105789, Note_on_c, 6, 78, 0
10, 105800, Note_on_c, 6, 54, 0
10, 105918, Note_on_c, 6, 70, 95
10, 105921, Note_on_c, 6, 73, 100
10, 105922, Note_on_c, 6, 66, 91
10, 106315, Note_on_c, 6, 73, 0
10, 106317, Note_on_c, 6, 70, 0
10, 106318, Note_on_c, 6, 66, 0
10, 106368, Note_on_c, 6, 71, 108
10, 106368, Note_on_c, 6, 64, 108
10, 106368, Note_on_c, 6, 74, 108
10, 106368, Note_on_c, 6, 55, 108
10, 106752, Note_on_c, 6, 55, 0
10, 106752, Note_on_c, 6, 71, 0
10, 106752, Note_on_c, 6, 64, 0
10, 106752, Note_on_c, 6, 74, 0
10, 106752, Note_on_c, 6, 64, 108
10, 106752, Note_on_c, 6, 54, 108
10, 106752, Note_on_c, 6, 73, 108
10, 106752, Note_on_c, 6, 70, 108
10, 107136, Note_on_c, 6, 70, 0
10, 107136, Note_on_c, 6, 64, 0
10, 107136, Note_on_c, 6, 54, 0
10, 107136, Note_on_c, 6, 73, 0
10, 107136, Note_on_c, 6, 59, 108
10, 107136, Note_on_c, 6, 66, 108
10, 107136, Note_on_c, 6, 62, 108
10, 107136, Note_on_c, 6, 71, 108
10, 110208, Note_on_c, 6, 71, 0
10, 110208, Note_on_c, 6, 59, 0
10, 110208, Note_on_c, 6, 66, 0
10, 110208, Note_on_c, 6, 62, 0
10, 111028, Control_c, 6, 121, 127
10, 111028, End_track
11, 0, Start_track
11, 0, MIDI_port, 0
11, 179, Program_c, 7, 56
11, 180, Control_c, 7, 7, 70
11, 181, Control_c, 7, 10, 16
11, 182, Control_c, 7, 11, 127
11, 183, Control_c, 7, 91, 127
11, 184, Control_c, 7, 93, 72
11, 11040, Control_c, 7, 11, 127
11, 11136, Note_on_c, 7, 71, 127
11, 11520, Note_on_c, 7, 73, 127
11, 11524, Note_on_c, 7, 71, 0
11, 11904, Note_on_c, 7, 74, 127
11, 11906, Note_on_c, 7, 73, 0
11, 12258, Note_on_c, 7, 74, 0
11, 12288, Note_on_c, 7, 74, 127
11, 12480, Note_on_c, 7, 74, 0
11, 12480, Note_on_c, 7, 73, 127
11, 12672, Note_on_c, 7, 71, 127
11, 12695, Note_on_c, 7, 73, 0
11, 12864, Note_on_c, 7, 70, 127
11, 12886, Note_on_c, 7, 71, 0
11, 13056, Note_on_c, 7, 71, 127
11, 13059, Note_on_c, 7, 70, 0
11, 13832, Control_c, 7, 11, 122
11, 13840, Control_c, 7, 11, 121
11, 13856, Control_c, 7, 11, 120
11, 13872, Control_c, 7, 11, 119
11, 13896, Control_c, 7, 11, 117
11, 13912, Control_c, 7, 11, 116
11, 13936, Control_c, 7, 11, 114
11, 13952, Control_c, 7, 11, 112
11, 13968, Control_c, 7, 11, 111
11, 13992, Control_c, 7, 11, 109
11, 14008, Control_c, 7, 11, 108
11, 14032, Control_c, 7, 11, 106
11, 14048, Control_c, 7, 11, 105
11, 14064, Control_c, 7, 11, 103
11, 14088, Control_c, 7, 11, 102
11, 14104, Control_c, 7, 11, 100
11, 14128, Control_c, 7, 11, 98
11, 14144, Control_c, 7, 11, 97
11, 14160, Control_c, 7, 11, 96
11, 14184, Control_c, 7, 11, 94
11, 14200, Control_c, 7, 11, 93
11, 14216, Control_c, 7, 11, 91
11, 14240, Control_c, 7, 11, 89
11, 14256, Control_c, 7, 11, 88
11, 14280, Control_c, 7, 11, 86
11, 14296, Control_c, 7, 11, 85
11, 14312, Control_c, 7, 11, 84
11, 14336, Control_c, 7, 11, 82
11, 14352, Control_c, 7, 11, 80
11, 14376, Control_c, 7, 11, 78
11, 14392, Control_c, 7, 11, 77
11, 14408, Control_c, 7, 11, 76
11, 14432, Control_c, 7, 11, 74
11, 14448, Control_c, 7, 11, 73
11, 14464, Control_c, 7, 11, 71
11, 14488, Control_c, 7, 11, 69
11, 14504, Control_c, 7, 11, 68
11, 14528, Control_c, 7, 11, 66
11, 14544, Control_c, 7, 11, 65
11, 14560, Control_c, 7, 11, 64
11, 14584, Control_c, 7, 11, 62
11, 14600, Control_c, 7, 11, 60
11, 14624, Control_c, 7, 11, 59
11, 14640, Control_c, 7, 11, 57
11, 14656, Control_c, 7, 11, 56
11, 14680, Control_c, 7, 11, 54
11, 14696, Control_c, 7, 11, 53
11, 14720, Control_c, 7, 11, 51
11, 14736, Control_c, 7, 11, 50
11, 14752, Control_c, 7, 11, 48
11, 14776, Control_c, 7, 11, 46
11, 14792, Control_c, 7, 11, 45
11, 14808, Control_c, 7, 11, 44
11, 14832, Control_c, 7, 11, 42
11, 14848, Control_c, 7, 11, 41
11, 14872, Control_c, 7, 11, 39
11, 14888, Control_c, 7, 11, 37
11, 14904, Control_c, 7, 11, 36
11, 14928, Control_c, 7, 11, 34
11, 14944, Control_c, 7, 11, 33
11, 14968, Control_c, 7, 11, 31
11, 14984, Control_c, 7, 11, 30
11, 15000, Control_c, 7, 11, 28
11, 15024, Control_c, 7, 11, 26
11, 15040, Control_c, 7, 11, 25
11, 15064, Control_c, 7, 11, 23
11, 15080, Control_c, 7, 11, 22
11, 15096, Control_c, 7, 11, 21
11, 15120, Control_c, 7, 11, 19
11, 15136, Control_c, 7, 11, 17
11, 15152, Control_c, 7, 11, 16
11, 15176, Control_c, 7, 11, 14
11, 15192, Control_c, 7, 11, 13
11, 15216, Control_c, 7, 11, 11
11, 15232, Control_c, 7, 11, 10
11, 15248, Control_c, 7, 11, 8
11, 15272, Control_c, 7, 11, 7
11, 15288, Control_c, 7, 11, 5
11, 15312, Control_c, 7, 11, 3
11, 15328, Control_c, 7, 11, 2
11, 15344, Control_c, 7, 11, 1
11, 15360, Note_on_c, 7, 71, 0
11, 15368, Control_c, 7, 11, 0
11, 15840, Control_c, 7, 11, 127
11, 41760, Control_c, 7, 11, 127
11, 41856, Note_on_c, 7, 71, 127
11, 42240, Note_on_c, 7, 73, 127
11, 42244, Note_on_c, 7, 71, 0
11, 42624, Note_on_c, 7, 74, 127
11, 42626, Note_on_c, 7, 73, 0
11, 42978, Note_on_c, 7, 74, 0
11, 43008, Note_on_c, 7, 74, 127
11, 43200, Note_on_c, 7, 74, 0
11, 43200, Note_on_c, 7, 73, 127
11, 43392, Note_on_c, 7, 71, 127
11, 43415, Note_on_c, 7, 73, 0
11, 43584, Note_on_c, 7, 70, 127
11, 43606, Note_on_c, 7, 71, 0
11, 43776, Note_on_c, 7, 71, 127
11, 43779, Note_on_c, 7, 70, 0
11, 44552, Control_c, 7, 11, 122
11, 44560, Control_c, 7, 11, 121
11, 44576, Control_c, 7, 11, 120
11, 44592, Control_c, 7, 11, 119
11, 44616, Control_c, 7, 11, 117
11, 44632, Control_c, 7, 11, 116
11, 44656, Control_c, 7, 11, 114
11, 44672, Control_c, 7, 11, 112
11, 44688, Control_c, 7, 11, 111
11, 44712, Control_c, 7, 11, 109
11, 44728, Control_c, 7, 11, 108
11, 44752, Control_c, 7, 11, 106
11, 44768, Control_c, 7, 11, 105
11, 44784, Control_c, 7, 11, 103
11, 44808, Control_c, 7, 11, 102
11, 44824, Control_c, 7, 11, 100
11, 44848, Control_c, 7, 11, 98
11, 44864, Control_c, 7, 11, 97
11, 44880, Control_c, 7, 11, 96
11, 44904, Control_c, 7, 11, 94
11, 44920, Control_c, 7, 11, 93
11, 44936, Control_c, 7, 11, 91
11, 44960, Control_c, 7, 11, 89
11, 44976, Control_c, 7, 11, 88
11, 45000, Control_c, 7, 11, 86
11, 45016, Control_c, 7, 11, 85
11, 45032, Control_c, 7, 11, 84
11, 45056, Control_c, 7, 11, 82
11, 45072, Control_c, 7, 11, 80
11, 45096, Control_c, 7, 11, 78
11, 45112, Control_c, 7, 11, 77
11, 45128, Control_c, 7, 11, 76
11, 45152, Control_c, 7, 11, 74
11, 45168, Control_c, 7, 11, 73
11, 45184, Control_c, 7, 11, 71
11, 45208, Control_c, 7, 11, 69
11, 45224, Control_c, 7, 11, 68
11, 45248, Control_c, 7, 11, 66
11, 45264, Control_c, 7, 11, 65
11, 45280, Control_c, 7, 11, 64
11, 45304, Control_c, 7, 11, 62
11, 45320, Control_c, 7, 11, 60
11, 45344, Control_c, 7, 11, 59
11, 45360, Control_c, 7, 11, 57
11, 45376, Control_c, 7, 11, 56
11, 45400, Control_c, 7, 11, 54
11, 45416, Control_c, 7, 11, 53
11, 45440, Control_c, 7, 11, 51
11, 45456, Control_c, 7, 11, 50
11, 45472, Control_c, 7, 11, 48
11, 45496, Control_c, 7, 11, 46
11, 45512, Control_c, 7, 11, 45
11, 45528, Control_c, 7, 11, 44
11, 45552, Control_c, 7, 11, 42
11, 45568, Control_c, 7, 11, 41
11, 45592, Control_c, 7, 11, 39
11, 45608, Control_c, 7, 11, 37
11, 45624, Control_c, 7, 11, 36
11, 45648, Control_c, 7, 11, 34
11, 45664, Control_c, 7, 11, 33
11, 45688, Control_c, 7, 11, 31
11, 45704, Control_c, 7, 11, 30
11, 45720, Control_c, 7, 11, 28
11, 45744, Control_c, 7, 11, 26
11, 45760, Control_c, 7, 11, 25
11, 45784, Control_c, 7, 11, 23
11, 45800, Control_c, 7, 11, 22
11, 45816, Control_c, 7, 11, 21
11, 45840, Control_c, 7, 11, 19
11, 45856, Control_c, 7, 11, 17
11, 45872, Control_c, 7, 11, 16
11, 45896, Control_c, 7, 11, 14
11, 45912, Control_c, 7, 11, 13
11, 45936, Control_c, 7, 11, 11
11, 45952, Control_c, 7, 11, 10
11, 45968, Control_c, 7, 11, 8
11, 45992, Control_c, 7, 11, 7
11, 46008, Control_c, 7, 11, 5
11, 46032, Control_c, 7, 11, 3
11, 46048, Control_c, 7, 11, 2
11, 46064, Control_c, 7, 11, 1
11, 46080, Note_on_c, 7, 71, 0
11, 46088, Control_c, 7, 11, 0
11, 46560, Control_c, 7, 11, 127
11, 72096, Control_c, 7, 11, 127
11, 72192, Note_on_c, 7, 71, 127
11, 72576, Note_on_c, 7, 73, 127
11, 72580, Note_on_c, 7, 71, 0
11, 72960, Note_on_c, 7, 74, 127
11, 72962, Note_on_c, 7, 73, 0
11, 73314, Note_on_c, 7, 74, 0
11, 73344, Note_on_c, 7, 74, 127
11, 73536, Note_on_c, 7, 74, 0
11, 73536, Note_on_c, 7, 73, 127
11, 73728, Note_on_c, 7, 71, 127
11, 73751, Note_on_c, 7, 73, 0
11, 73920, Note_on_c, 7, 70, 127
11, 73942, Note_on_c, 7, 71, 0
11, 74112, Note_on_c, 7, 71, 127
11, 74115, Note_on_c, 7, 70, 0
11, 74888, Control_c, 7, 11, 122
11, 74896, Control_c, 7, 11, 121
11, 74912, Control_c, 7, 11, 120
11, 74928, Control_c, 7, 11, 119
11, 74952, Control_c, 7, 11, 117
11, 74968, Control_c, 7, 11, 116
11, 74992, Control_c, 7, 11, 114
11, 75008, Control_c, 7, 11, 112
11, 75024, Control_c, 7, 11, 111
11, 75048, Control_c, 7, 11, 109
11, 75064, Control_c, 7, 11, 108
11, 75088, Control_c, 7, 11, 106
11, 75104, Control_c, 7, 11, 105
11, 75120, Control_c, 7, 11, 103
11, 75144, Control_c, 7, 11, 102
11, 75160, Control_c, 7, 11, 100
11, 75184, Control_c, 7, 11, 98
11, 75200, Control_c, 7, 11, 97
11, 75216, Control_c, 7, 11, 96
11, 75240, Control_c, 7, 11, 94
11, 75256, Control_c, 7, 11, 93
11, 75272, Control_c, 7, 11, 91
11, 75296, Control_c, 7, 11, 89
11, 75312, Control_c, 7, 11, 88
11, 75336, Control_c, 7, 11, 86
11, 75352, Control_c, 7, 11, 85
11, 75368, Control_c, 7, 11, 84
11, 75392, Control_c, 7, 11, 82
11, 75408, Control_c, 7, 11, 80
11, 75432, Control_c, 7, 11, 78
11, 75448, Control_c, 7, 11, 77
11, 75464, Control_c, 7, 11, 76
11, 75488, Control_c, 7, 11, 74
11, 75504, Control_c, 7, 11, 73
11, 75520, Control_c, 7, 11, 71
11, 75544, Control_c, 7, 11, 69
11, 75560, Control_c, 7, 11, 68
11, 75584, Control_c, 7, 11, 66
11, 75600, Control_c, 7, 11, 65
11, 75616, Control_c, 7, 11, 64
11, 75640, Control_c, 7, 11, 62
11, 75656, Control_c, 7, 11, 60
11, 75680, Control_c, 7, 11, 59
11, 75696, Control_c, 7, 11, 57
11, 75712, Control_c, 7, 11, 56
11, 75736, Control_c, 7, 11, 54
11, 75752, Control_c, 7, 11, 53
11, 75776, Control_c, 7, 11, 51
11, 75792, Control_c, 7, 11, 50
11, 75808, Control_c, 7, 11, 48
11, 75832, Control_c, 7, 11, 46
11, 75848, Control_c, 7, 11, 45
11, 75864, Control_c, 7, 11, 44
11, 75888, Control_c, 7, 11, 42
11, 75904, Control_c, 7, 11, 41
11, 75928, Control_c, 7, 11, 39
11, 75944, Control_c, 7, 11, 37
11, 75960, Control_c, 7, 11, 36
11, 75984, Control_c, 7, 11, 34
11, 76000, Control_c, 7, 11, 33
11, 76024, Control_c, 7, 11, 31
11, 76040, Control_c, 7, 11, 30
11, 76056, Control_c, 7, 11, 28
11, 76080, Control_c, 7, 11, 26
11, 76096, Control_c, 7, 11, 25
11, 76120, Control_c, 7, 11, 23
11, 76136, Control_c, 7, 11, 22
11, 76152, Control_c, 7, 11, 21
11, 76176, Control_c, 7, 11, 19
11, 76192, Control_c, 7, 11, 17
11, 76208, Control_c, 7, 11, 16
11, 76232, Control_c, 7, 11, 14
11, 76248, Control_c, 7, 11, 13
11, 76272, Control_c, 7, 11, 11
11, 76288, Control_c, 7, 11, 10
11, 76304, Control_c, 7, 11, 8
11, 76328, Control_c, 7, 11, 7
11, 76344, Control_c, 7, 11, 5
11, 76368, Control_c, 7, 11, 3
11, 76384, Control_c, 7, 11, 2
11, 76400, Control_c, 7, 11, 1
11, 76416, Note_on_c, 7, 71, 0
11, 76424, Control_c, 7, 11, 0
11, 76896, Control_c, 7, 11, 127
11, 105990, Note_on_c, 7, 70, 91
11, 106373, Note_on_c, 7, 78, 95
11, 106375, Note_on_c, 7, 70, 0
11, 106748, Note_on_c, 7, 76, 108
11, 106749, Note_on_c, 7, 78, 0
11, 107092, Note_on_c, 7, 76, 0
11, 107096, Note_on_c, 7, 74, 97
11, 107778, Note_on_c, 7, 73, 73
11, 108465, Note_on_c, 7, 73, 0
11, 108473, Note_on_c, 7, 71, 86
11, 109316, Note_on_c, 7, 71, 0
11, 109318, Note_on_c, 7, 74, 0
11, 111032, Control_c, 7, 121, 127
11, 111032, End_track
12, 0, Start_track
12, 0, MIDI_port, 0
12, 187, Program_c, 8, 68
12, 188, Control_c, 8, 7, 52
12, 189, Control_c, 8, 10, 108
12, 190, Control_c, 8, 11, 127
12, 191, Control_c, 8, 91, 127
12, 192, Control_c, 8, 93, 0
12, 11040, Control_c, 8, 11, 127
12, 11136, Note_on_c, 8, 71, 127
12, 11520, Note_on_c, 8, 73, 127
12, 11524, Note_on_c, 8, 71, 0
12, 11904, Note_on_c, 8, 74, 127
12, 11906, Note_on_c, 8, 73, 0
12, 12258, Note_on_c, 8, 74, 0
12, 12288, Note_on_c, 8, 74, 127
12, 12480, Note_on_c, 8, 74, 0
12, 12480, Note_on_c, 8, 73, 127
12, 12672, Note_on_c, 8, 71, 127
12, 12695, Note_on_c, 8, 73, 0
12, 12864, Note_on_c, 8, 70, 127
12, 12886, Note_on_c, 8, 71, 0
12, 13056, Note_on_c, 8, 71, 127
12, 13059, Note_on_c, 8, 70, 0
12, 13832, Control_c, 8, 11, 122
12, 13840, Control_c, 8, 11, 121
12, 13856, Control_c, 8, 11, 120
12, 13872, Control_c, 8, 11, 119
12, 13896, Control_c, 8, 11, 117
12, 13912, Control_c, 8, 11, 116
12, 13936, Control_c, 8, 11, 114
12, 13952, Control_c, 8, 11, 112
12, 13968, Control_c, 8, 11, 111
12, 13992, Control_c, 8, 11, 109
12, 14008, Control_c, 8, 11, 108
12, 14032, Control_c, 8, 11, 106
12, 14048, Control_c, 8, 11, 105
12, 14064, Control_c, 8, 11, 103
12, 14088, Control_c, 8, 11, 102
12, 14104, Control_c, 8, 11, 100
12, 14128, Control_c, 8, 11, 98
12, 14144, Control_c, 8, 11, 97
12, 14160, Control_c, 8, 11, 96
12, 14184, Control_c, 8, 11, 94
12, 14200, Control_c, 8, 11, 93
12, 14216, Control_c, 8, 11, 91
12, 14240, Control_c, 8, 11, 89
12, 14256, Control_c, 8, 11, 88
12, 14280, Control_c, 8, 11, 86
12, 14296, Control_c, 8, 11, 85
12, 14312, Control_c, 8, 11, 84
12, 14336, Control_c, 8, 11, 82
12, 14352, Control_c, 8, 11, 80
12, 14376, Control_c, 8, 11, 78
12, 14392, Control_c, 8, 11, 77
12, 14408, Control_c, 8, 11, 76
12, 14432, Control_c, 8, 11, 74
12, 14448, Control_c, 8, 11, 73
12, 14464, Control_c, 8, 11, 71
12, 14488, Control_c, 8, 11, 69
12, 14504, Control_c, 8, 11, 68
12, 14528, Control_c, 8, 11, 66
12, 14544, Control_c, 8, 11, 65
12, 14560, Control_c, 8, 11, 64
12, 14584, Control_c, 8, 11, 62
12, 14600, Control_c, 8, 11, 60
12, 14624, Control_c, 8, 11, 59
12, 14640, Control_c, 8, 11, 57
12, 14656, Control_c, 8, 11, 56
12, 14680, Control_c, 8, 11, 54
12, 14696, Control_c, 8, 11, 53
12, 14720, Control_c, 8, 11, 51
12, 14736, Control_c, 8, 11, 50
12, 14752, Control_c, 8, 11, 48
12, 14776, Control_c, 8, 11, 46
12, 14792, Control_c, 8, 11, 45
12, 14808, Control_c, 8, 11, 44
12, 14832, Control_c, 8, 11, 42
12, 14848, Control_c, 8, 11, 41
12, 14872, Control_c, 8, 11, 39
12, 14888, Control_c, 8, 11, 37
12, 14904, Control_c, 8, 11, 36
12, 14928, Control_c, 8, 11, 34
12, 14944, Control_c, 8, 11, 33
12, 14968, Control_c, 8, 11, 31
12, 14984, Control_c, 8, 11, 30
12, 15000, Control_c, 8, 11, 28
12, 15024, Control_c, 8, 11, 26
12, 15040, Control_c, 8, 11, 25
12, 15064, Control_c, 8, 11, 23
12, 15080, Control_c, 8, 11, 22
12, 15096, Control_c, 8, 11, 21
12, 15120, Control_c, 8, 11, 19
12, 15136, Control_c, 8, 11, 17
12, 15152, Control_c, 8, 11, 16
12, 15176, Control_c, 8, 11, 14
12, 15192, Control_c, 8, 11, 13
12, 15216, Control_c, 8, 11, 11
12, 15232, Control_c, 8, 11, 10
12, 15248, Control_c, 8, 11, 8
12, 15272, Control_c, 8, 11, 7
12, 15288, Control_c, 8, 11, 5
12, 15312, Control_c, 8, 11, 3
12, 15328, Control_c, 8, 11, 2
12, 15344, Control_c, 8, 11, 1
12, 15360, Note_on_c, 8, 71, 0
12, 15368, Control_c, 8, 11, 0
12, 15840, Control_c, 8, 11, 127
12, 41760, Control_c, 8, 11, 127
12, 41856, Note_on_c, 8, 71, 127
12, 42240, Note_on_c, 8, 73, 127
12, 42244, Note_on_c, 8, 71, 0
12, 42624, Note_on_c, 8, 74, 127
12, 42626, Note_on_c, 8, 73, 0
12, 42978, Note_on_c, 8, 74, 0
12, 43008, Note_on_c, 8, 74, 127
12, 43200, Note_on_c, 8, 74, 0
12, 43200, Note_on_c, 8, 73, 127
12, 43392, Note_on_c, 8, 71, 127
12, 43415, Note_on_c, 8, 73, 0
12, 43584, Note_on_c, 8, 70, 127
12, 43606, Note_on_c, 8, 71, 0
12, 43776, Note_on_c, 8, 71, 127
12, 43779, Note_on_c, 8, 70, 0
12, 44552, Control_c, 8, 11, 122
12, 44560, Control_c, 8, 11, 121
12, 44576, Control_c, 8, 11, 120
12, 44592, Control_c, 8, 11, 119
12, 44616, Control_c, 8, 11, 117
12, 44632, Control_c, 8, 11, 116
12, 44656, Control_c, 8, 11, 114
12, 44672, Control_c, 8, 11, 112
12, 44688, Control_c, 8, 11, 111
12, 44712, Control_c, 8, 11, 109
12, 44728, Control_c, 8, 11, 108
12, 44752, Control_c, 8, 11, 106
12, 44768, Control_c, 8, 11, 105
12, 44784, Control_c, 8, 11, 103
12, 44808, Control_c, 8, 11, 102
12, 44824, Control_c, 8, 11, 100
12, 44848, Control_c, 8, 11, 98
12, 44864, Control_c, 8, 11, 97
12, 44880, Control_c, 8, 11, 96
12, 44904, Control_c, 8, 11, 94
12, 44920, Control_c, 8, 11, 93
12, 44936, Control_c, 8, 11, 91
12, 44960, Control_c, 8, 11, 89
12, 44976, Control_c, 8, 11, 88
12, 45000, Control_c, 8, 11, 86
12, 45016, Control_c, 8, 11, 85
12, 45032, Control_c, 8, 11, 84
12, 45056, Control_c, 8, 11, 82
12, 45072, Control_c, 8, 11, 80
12, 45096, Control_c, 8, 11, 78
12, 45112, Control_c, 8, 11, 77
12, 45128, Control_c, 8, 11, 76
12, 45152, Control_c, 8, 11, 74
12, 45168, Control_c, 8, 11, 73
12, 45184, Control_c, 8, 11, 71
12, 45208, Control_c, 8, 11, 69
12, 45224, Control_c, 8, 11, 68
12, 45248, Control_c, 8, 11, 66
12, 45264, Control_c, 8, 11, 65
12, 45280, Control_c, 8, 11, 64
12, 45304, Control_c, 8, 11, 62
12, 45320, Control_c, 8, 11, 60
12, 45344, Control_c, 8, 11, 59
12, 45360, Control_c, 8, 11, 57
12, 45376, Control_c, 8, 11, 56
12, 45400, Control_c, 8, 11, 54
12, 45416, Control_c, 8, 11, 53
12, 45440, Control_c, 8, 11, 51
12, 45456, Control_c, 8, 11, 50
12, 45472, Control_c, 8, 11, 48
12, 45496, Control_c, 8, 11, 46
12, 45512, Control_c, 8, 11, 45
12, 45528, Control_c, 8, 11, 44
12, 45552, Control_c, 8, 11, 42
12, 45568, Control_c, 8, 11, 41
12, 45592, Control_c, 8, 11, 39
12, 45608, Control_c, 8, 11, 37
12, 45624, Control_c, 8, 11, 36
12, 45648, Control_c, 8, 11, 34
12, 45664, Control_c, 8, 11, 33
12, 45688, Control_c, 8, 11, 31
12, 45704, Control_c, 8, 11, 30
12, 45720, Control_c, 8, 11, 28
12, 45744, Control_c, 8, 11, 26
12, 45760, Control_c, 8, 11, 25
12, 45784, Control_c, 8, 11, 23
12, 45800, Control_c, 8, 11, 22
12, 45816, Control_c, 8, 11, 21
12, 45840, Control_c, 8, 11, 19
12, 45856, Control_c, 8, 11, 17
12, 45872, Control_c, 8, 11, 16
12, 45896, Control_c, 8, 11, 14
12, 45912, Control_c, 8, 11, 13
12, 45936, Control_c, 8, 11, 11
12, 45952, Control_c, 8, 11, 10
12, 45968, Control_c, 8, 11, 8
12, 45992, Control_c, 8, 11, 7
12, 46008, Control_c, 8, 11, 5
12, 46032, Control_c, 8, 11, 3
12, 46048, Control_c, 8, 11, 2
12, 46064, Control_c, 8, 11, 1
12, 46080, Note_on_c, 8, 71, 0
12, 46088, Control_c, 8, 11, 0
12, 46560, Control_c, 8, 11, 127
12, 72096, Control_c, 8, 11, 127
12, 72192, Note_on_c, 8, 71, 127
12, 72576, Note_on_c, 8, 73, 127
12, 72580, Note_on_c, 8, 71, 0
12, 72960, Note_on_c, 8, 74, 127
12, 72962, Note_on_c, 8, 73, 0
12, 73314, Note_on_c, 8, 74, 0
12, 73344, Note_on_c, 8, 74, 127
12, 73536, Note_on_c, 8, 74, 0
12, 73536, Note_on_c, 8, 73, 127
12, 73728, Note_on_c, 8, 71, 127
12, 73751, Note_on_c, 8, 73, 0
12, 73920, Note_on_c, 8, 70, 127
12, 73942, Note_on_c, 8, 71, 0
12, 74112, Note_on_c, 8, 71, 127
12, 74115, Note_on_c, 8, 70, 0
12, 74888, Control_c, 8, 11, 122
12, 74896, Control_c, 8, 11, 121
12, 74912, Control_c, 8, 11, 120
12, 74928, Control_c, 8, 11, 119
12, 74952, Control_c, 8, 11, 117
12, 74968, Control_c, 8, 11, 116
12, 74992, Control_c, 8, 11, 114
12, 75008, Control_c, 8, 11, 112
12, 75024, Control_c, 8, 11, 111
12, 75048, Control_c, 8, 11, 109
12, 75064, Control_c, 8, 11, 108
12, 75088, Control_c, 8, 11, 106
12, 75104, Control_c, 8, 11, 105
12, 75120, Control_c, 8, 11, 103
12, 75144, Control_c, 8, 11, 102
12, 75160, Control_c, 8, 11, 100
12, 75184, Control_c, 8, 11, 98
12, 75200, Control_c, 8, 11, 97
12, 75216, Control_c, 8, 11, 96
12, 75240, Control_c, 8, 11, 94
12, 75256, Control_c, 8, 11, 93
12, 75272, Control_c, 8, 11, 91
12, 75296, Control_c, 8, 11, 89
12, 75312, Control_c, 8, 11, 88
12, 75336, Control_c, 8, 11, 86
12, 75352, Control_c, 8, 11, 85
12, 75368, Control_c, 8, 11, 84
12, 75392, Control_c, 8, 11, 82
12, 75408, Control_c, 8, 11, 80
12, 75432, Control_c, 8, 11, 78
12, 75448, Control_c, 8, 11, 77
12, 75464, Control_c, 8, 11, 76
12, 75488, Control_c, 8, 11, 74
12, 75504, Control_c, 8, 11, 73
12, 75520, Control_c, 8, 11, 71
12, 75544, Control_c, 8, 11, 69
12, 75560, Control_c, 8, 11, 68
12, 75584, Control_c, 8, 11, 66
12, 75600, Control_c, 8, 11, 65
12, 75616, Control_c, 8, 11, 64
12, 75640, Control_c, 8, 11, 62
12, 75656, Control_c, 8, 11, 60
12, 75680, Control_c, 8, 11, 59
12, 75696, Control_c, 8, 11, 57
12, 75712, Control_c, 8, 11, 56
12, 75736, Control_c, 8, 11, 54
12, 75752, Control_c, 8, 11, 53
12, 75776, Control_c, 8, 11, 51
12, 75792, Control_c, 8, 11, 50
12, 75808, Control_c, 8, 11, 48
12, 75832, Control_c, 8, 11, 46
12, 75848, Control_c, 8, 11, 45
12, 75864, Control_c, 8, 11, 44
12, 75888, Control_c, 8, 11, 42
12, 75904, Control_c, 8, 11, 41
12, 75928, Control_c, 8, 11, 39
12, 75944, Control_c, 8, 11, 37
12, 75960, Control_c, 8, 11, 36
12, 75984, Control_c, 8, 11, 34
12, 76000, Control_c, 8, 11, 33
12, 76024, Control_c, 8, 11, 31
12, 76040, Control_c, 8, 11, 30
12, 76056, Control_c, 8, 11, 28
12, 76080, Control_c, 8, 11, 26
12, 76096, Control_c, 8, 11, 25
12, 76120, Control_c, 8, 11, 23
12, 76136, Control_c, 8, 11, 22
12, 76152, Control_c, 8, 11, 21
12, 76176, Control_c, 8, 11, 19
12, 76192, Control_c, 8, 11, 17
12, 76208, Control_c, 8, 11, 16
12, 76232, Control_c, 8, 11, 14
12, 76248, Control_c, 8, 11, 13
12, 76272, Control_c, 8, 11, 11
12, 76288, Control_c, 8, 11, 10
12, 76304, Control_c, 8, 11, 8
12, 76328, Control_c, 8, 11, 7
12, 76344, Control_c, 8, 11, 5
12, 76368, Control_c, 8, 11, 3
12, 76384, Control_c, 8, 11, 2
12, 76400, Control_c, 8, 11, 1
12, 76416, Note_on_c, 8, 71, 0
12, 76424, Control_c, 8, 11, 0
12, 76896, Control_c, 8, 11, 127
12, 105981, Note_on_c, 8, 70, 83
12, 106367, Note_on_c, 8, 78, 87
12, 106376, Note_on_c, 8, 70, 0
12, 106748, Note_on_c, 8, 78, 0
12, 106749, Note_on_c, 8, 76, 101
12, 107095, Note_on_c, 8, 76, 0
12, 107098, Note_on_c, 8, 74, 97
12, 108916, Note_on_c, 8, 74, 0
12, 111036, Control_c, 8, 121, 127
12, 111036, End_track
13, 0, Start_track
13, 0, MIDI_port, 0
13, 139, Program_c, 9, 0
13, 140, Control_c, 9, 7, 120
13, 141, Control_c, 9, 10, 64
13, 142, Control_c, 9, 11, 127
13, 143, Control_c, 9, 91, 76
13, 144, Control_c, 9, 93, 76
13, 1536, Note_on_c, 9, 31, 100
13, 1547, Note_on_c, 9, 31, 0
13, 1920, Note_on_c, 9, 31, 80
13, 1925, Note_on_c, 9, 31, 0
13, 2304, Note_on_c, 9, 31, 80
13, 2309, Note_on_c, 9, 31, 0
13, 2688, Note_on_c, 9, 31, 80
13, 2707, Note_on_c, 9, 31, 0
13, 3456, Note_on_c, 9, 44, 81
13, 4052, Note_on_c, 9, 44, 0
13, 4224, Note_on_c, 9, 44, 81
13, 4346, Note_on_c, 9, 44, 0
13, 4992, Note_on_c, 9, 44, 81
13, 5588, Note_on_c, 9, 44, 0
13, 5760, Note_on_c, 9, 44, 81
13, 5882, Note_on_c, 9, 44, 0
13, 6528, Note_on_c, 9, 44, 81
13, 7124, Note_on_c, 9, 44, 0
13, 7296, Note_on_c, 9, 44, 81
13, 7418, Note_on_c, 9, 44, 0
13, 8064, Note_on_c, 9, 44, 81
13, 8660, Note_on_c, 9, 44, 0
13, 8832, Note_on_c, 9, 44, 81
13, 8954, Note_on_c, 9, 44, 0
13, 9600, Note_on_c, 9, 44, 81
13, 10196, Note_on_c, 9, 44, 0
13, 10368, Note_on_c, 9, 44, 81
13, 10490, Note_on_c, 9, 44, 0
13, 11136, Note_on_c, 9, 44, 81
13, 11732, Note_on_c, 9, 44, 0
13, 11904, Note_on_c, 9, 44, 81
13, 12026, Note_on_c, 9, 44, 0
13, 12480, Note_on_c, 9, 47, 55
13, 12602, Note_on_c, 9, 47, 0
13, 12672, Note_on_c, 9, 44, 81
13, 12864, Note_on_c, 9, 45, 55
13, 12961, Note_on_c, 9, 45, 0
13, 13056, Note_on_c, 9, 45, 68
13, 13191, Note_on_c, 9, 45, 0
13, 13268, Note_on_c, 9, 44, 0
13, 13344, Note_on_c, 9, 43, 55
13, 13438, Note_on_c, 9, 43, 0
13, 13440, Note_on_c, 9, 41, 77
13, 13440, Note_on_c, 9, 44, 81
13, 13539, Note_on_c, 9, 41, 0
13, 13562, Note_on_c, 9, 44, 0
13, 13824, Note_on_c, 9, 42, 36
13, 13824, Note_on_c, 9, 36, 113
13, 13824, Note_on_c, 9, 59, 91
13, 13892, Note_on_c, 9, 42, 0
13, 13901, Note_on_c, 9, 36, 0
13, 14016, Note_on_c, 9, 42, 28
13, 14090, Note_on_c, 9, 42, 0
13, 14208, Note_on_c, 9, 42, 89
13, 14271, Note_on_c, 9, 42, 0
13, 14400, Note_on_c, 9, 36, 77
13, 14400, Note_on_c, 9, 42, 28
13, 14420, Note_on_c, 9, 59, 0
13, 14481, Note_on_c, 9, 42, 0
13, 14482, Note_on_c, 9, 36, 0
13, 14592, Note_on_c, 9, 36, 113
13, 14592, Note_on_c, 9, 42, 36
13, 14659, Note_on_c, 9, 42, 0
13, 14707, Note_on_c, 9, 36, 0
13, 14784, Note_on_c, 9, 42, 28
13, 14855, Note_on_c, 9, 42, 0
13, 14976, Note_on_c, 9, 42, 91
13, 15047, Note_on_c, 9, 42, 0
13, 15168, Note_on_c, 9, 42, 28
13, 15235, Note_on_c, 9, 42, 0
13, 15360, Note_on_c, 9, 36, 113
13, 15360, Note_on_c, 9, 42, 36
13, 15428, Note_on_c, 9, 42, 0
13, 15437, Note_on_c, 9, 36, 0
13, 15552, Note_on_c, 9, 42, 28
13, 15626, Note_on_c, 9, 42, 0
13, 15744, Note_on_c, 9, 42, 89
13, 15807, Note_on_c, 9, 42, 0
13, 15936, Note_on_c, 9, 36, 77
13, 15936, Note_on_c, 9, 42, 28
13, 16017, Note_on_c, 9, 42, 0
13, 16018, Note_on_c, 9, 36, 0
13, 16128, Note_on_c, 9, 36, 113
13, 16128, Note_on_c, 9, 42, 36
13, 16195, Note_on_c, 9, 42, 0
13, 16243, Note_on_c, 9, 36, 0
13, 16320, Note_on_c, 9, 42, 28
13, 16391, Note_on_c, 9, 42, 0
13, 16512, Note_on_c, 9, 42, 91
13, 16583, Note_on_c, 9, 42, 0
13, 16704, Note_on_c, 9, 46, 28
13, 16771, Note_on_c, 9, 46, 0
13, 16896, Note_on_c, 9, 42, 36
13, 16896, Note_on_c, 9, 36, 113
13, 16964, Note_on_c, 9, 42, 0
13, 16973, Note_on_c, 9, 36, 0
13, 17088, Note_on_c, 9, 42, 28
13, 17162, Note_on_c, 9, 42, 0
13, 17280, Note_on_c, 9, 42, 89
13, 17343, Note_on_c, 9, 42, 0
13, 17472, Note_on_c, 9, 36, 77
13, 17472, Note_on_c, 9, 42, 28
13, 17553, Note_on_c, 9, 42, 0
13, 17554, Note_on_c, 9, 36, 0
13, 17664, Note_on_c, 9, 42, 36
13, 17664, Note_on_c, 9, 36, 113
13, 17731, Note_on_c, 9, 42, 0
13, 17779, Note_on_c, 9, 36, 0
13, 17856, Note_on_c, 9, 42, 28
13, 17927, Note_on_c, 9, 42, 0
13, 18048, Note_on_c, 9, 42, 91
13, 18119, Note_on_c, 9, 42, 0
13, 18240, Note_on_c, 9, 42, 28
13, 18288, Note_on_c, 9, 38, 31
13, 18307, Note_on_c, 9, 42, 0
13, 18336, Note_on_c, 9, 38, 0
13, 18336, Note_on_c, 9, 38, 41
13, 18384, Note_on_c, 9, 38, 0
13, 18384, Note_on_c, 9, 38, 64
13, 18432, Note_on_c, 9, 38, 0
13, 18432, Note_on_c, 9, 42, 36
13, 18432, Note_on_c, 9, 36, 113
13, 18432, Note_on_c, 9, 38, 103
13, 18477, Note_on_c, 9, 38, 0
13, 18500, Note_on_c, 9, 42, 0
13, 18509, Note_on_c, 9, 36, 0
13, 18528, Note_on_c, 9, 38, 103
13, 18577, Note_on_c, 9, 38, 0
13, 18624, Note_on_c, 9, 47, 74
13, 18624, Note_on_c, 9, 42, 28
13, 18624, Note_on_c, 9, 43, 74
13, 18665, Note_on_c, 9, 43, 0
13, 18677, Note_on_c, 9, 47, 0
13, 18698, Note_on_c, 9, 42, 0
13, 18816, Note_on_c, 9, 45, 89
13, 18816, Note_on_c, 9, 41, 89
13, 18816, Note_on_c, 9, 42, 89
13, 18858, Note_on_c, 9, 45, 0
13, 18862, Note_on_c, 9, 41, 0
13, 18879, Note_on_c, 9, 42, 0
13, 19008, Note_on_c, 9, 36, 77
13, 19008, Note_on_c, 9, 42, 28
13, 19056, Note_on_c, 9, 38, 31
13, 19089, Note_on_c, 9, 42, 0
13, 19090, Note_on_c, 9, 36, 0
13, 19104, Note_on_c, 9, 38, 0
13, 19104, Note_on_c, 9, 38, 41
13, 19152, Note_on_c, 9, 38, 0
13, 19152, Note_on_c, 9, 38, 64
13, 19200, Note_on_c, 9, 38, 0
13, 19200, Note_on_c, 9, 42, 36
13, 19200, Note_on_c, 9, 36, 113
13, 19200, Note_on_c, 9, 38, 103
13, 19245, Note_on_c, 9, 38, 0
13, 19267, Note_on_c, 9, 42, 0
13, 19315, Note_on_c, 9, 36, 0
13, 19392, Note_on_c, 9, 47, 91
13, 19392, Note_on_c, 9, 42, 28
13, 19392, Note_on_c, 9, 43, 91
13, 19463, Note_on_c, 9, 42, 0
13, 19558, Note_on_c, 9, 43, 0
13, 19575, Note_on_c, 9, 47, 0
13, 19584, Note_on_c, 9, 42, 91
13, 19655, Note_on_c, 9, 42, 0
13, 19680, Note_on_c, 9, 47, 77
13, 19773, Note_on_c, 9, 47, 0
13, 19776, Note_on_c, 9, 46, 28
13, 19776, Note_on_c, 9, 36, 77
13, 19776, Note_on_c, 9, 45, 89
13, 19843, Note_on_c, 9, 46, 0
13, 19858, Note_on_c, 9, 36, 0
13, 19869, Note_on_c, 9, 45, 0
13, 19872, Note_on_c, 9, 43, 84
13, 19950, Note_on_c, 9, 43, 0
13, 19968, Note_on_c, 9, 42, 36
13, 19968, Note_on_c, 9, 45, 101
13, 19968, Note_on_c, 9, 36, 113
13, 20036, Note_on_c, 9, 42, 0
13, 20045, Note_on_c, 9, 36, 0
13, 20053, Note_on_c, 9, 45, 0
13, 20064, Note_on_c, 9, 43, 94
13, 20149, Note_on_c, 9, 43, 0
13, 20160, Note_on_c, 9, 42, 28
13, 20160, Note_on_c, 9, 41, 99
13, 20234, Note_on_c, 9, 42, 0
13, 20245, Note_on_c, 9, 41, 0
13, 20256, Note_on_c, 9, 38, 106
13, 20352, Note_on_c, 9, 38, 0
13, 20352, Note_on_c, 9, 45, 108
13, 20352, Note_on_c, 9, 36, 111
13, 20352, Note_on_c, 9, 42, 89
13, 20415, Note_on_c, 9, 42, 0
13, 20426, Note_on_c, 9, 45, 0
13, 20434, Note_on_c, 9, 36, 0
13, 20448, Note_on_c, 9, 41, 94
13, 20522, Note_on_c, 9, 41, 0
13, 20526, Note_on_c, 9, 38, 106
13, 20544, Note_on_c, 9, 42, 28
13, 20550, Note_on_c, 9, 38, 127
13, 20622, Note_on_c, 9, 38, 0
13, 20625, Note_on_c, 9, 42, 0
13, 20646, Note_on_c, 9, 38, 0
13, 20736, Note_on_c, 9, 42, 36
13, 20736, Note_on_c, 9, 47, 84
13, 20736, Note_on_c, 9, 36, 113
13, 20803, Note_on_c, 9, 42, 0
13, 20832, Note_on_c, 9, 45, 99
13, 20851, Note_on_c, 9, 36, 0
13, 20858, Note_on_c, 9, 47, 0
13, 20928, Note_on_c, 9, 41, 99
13, 20928, Note_on_c, 9, 42, 28
13, 20939, Note_on_c, 9, 45, 0
13, 20976, Note_on_c, 9, 41, 0
13, 20999, Note_on_c, 9, 42, 0
13, 21024, Note_on_c, 9, 38, 113
13, 21120, Note_on_c, 9, 38, 0
13, 21120, Note_on_c, 9, 47, 93
13, 21120, Note_on_c, 9, 36, 113
13, 21120, Note_on_c, 9, 42, 91
13, 21191, Note_on_c, 9, 42, 0
13, 21200, Note_on_c, 9, 47, 0
13, 21216, Note_on_c, 9, 45, 99
13, 21235, Note_on_c, 9, 36, 0
13, 21312, Note_on_c, 9, 42, 28
13, 21312, Note_on_c, 9, 43, 106
13, 21332, Note_on_c, 9, 45, 0
13, 21379, Note_on_c, 9, 42, 0
13, 21403, Note_on_c, 9, 43, 0
13, 21408, Note_on_c, 9, 41, 113
13, 21466, Note_on_c, 9, 41, 0
13, 21504, Note_on_c, 9, 57, 55
13, 21504, Note_on_c, 9, 49, 55
13, 21504, Note_on_c, 9, 51, 79
13, 21504, Note_on_c, 9, 36, 127
13, 21555, Note_on_c, 9, 51, 0
13, 21570, Note_on_c, 9, 36, 0
13, 21663, Note_on_c, 9, 49, 0
13, 21670, Note_on_c, 9, 57, 0
13, 21696, Note_on_c, 9, 51, 57
13, 21762, Note_on_c, 9, 51, 0
13, 21888, Note_on_c, 9, 51, 96
13, 21888, Note_on_c, 9, 38, 127
13, 21955, Note_on_c, 9, 51, 0
13, 22070, Note_on_c, 9, 38, 0
13, 22080, Note_on_c, 9, 51, 57
13, 22133, Note_on_c, 9, 51, 0
13, 22176, Note_on_c, 9, 36, 94
13, 22215, Note_on_c, 9, 36, 0
13, 22272, Note_on_c, 9, 36, 127
13, 22272, Note_on_c, 9, 51, 79
13, 22332, Note_on_c, 9, 51, 0
13, 22380, Note_on_c, 9, 36, 0
13, 22464, Note_on_c, 9, 51, 57
13, 22464, Note_on_c, 9, 36, 127
13, 22517, Note_on_c, 9, 51, 0
13, 22573, Note_on_c, 9, 36, 0
13, 22656, Note_on_c, 9, 51, 96
13, 22656, Note_on_c, 9, 38, 127
13, 22723, Note_on_c, 9, 51, 0
13, 22775, Note_on_c, 9, 38, 0
13, 22848, Note_on_c, 9, 51, 57
13, 22848, Note_on_c, 9, 36, 103
13, 22883, Note_on_c, 9, 36, 0
13, 22889, Note_on_c, 9, 51, 0
13, 23040, Note_on_c, 9, 36, 127
13, 23040, Note_on_c, 9, 51, 79
13, 23091, Note_on_c, 9, 51, 0
13, 23106, Note_on_c, 9, 36, 0
13, 23232, Note_on_c, 9, 51, 57
13, 23298, Note_on_c, 9, 51, 0
13, 23424, Note_on_c, 9, 51, 96
13, 23424, Note_on_c, 9, 38, 127
13, 23491, Note_on_c, 9, 51, 0
13, 23606, Note_on_c, 9, 38, 0
13, 23616, Note_on_c, 9, 51, 57
13, 23669, Note_on_c, 9, 51, 0
13, 23712, Note_on_c, 9, 36, 94
13, 23751, Note_on_c, 9, 36, 0
13, 23808, Note_on_c, 9, 36, 127
13, 23808, Note_on_c, 9, 51, 79
13, 23868, Note_on_c, 9, 51, 0
13, 23916, Note_on_c, 9, 36, 0
13, 24000, Note_on_c, 9, 51, 57
13, 24000, Note_on_c, 9, 36, 127
13, 24053, Note_on_c, 9, 51, 0
13, 24109, Note_on_c, 9, 36, 0
13, 24192, Note_on_c, 9, 38, 127
13, 24192, Note_on_c, 9, 51, 96
13, 24259, Note_on_c, 9, 51, 0
13, 24311, Note_on_c, 9, 38, 0
13, 24384, Note_on_c, 9, 36, 103
13, 24384, Note_on_c, 9, 51, 57
13, 24419, Note_on_c, 9, 36, 0
13, 24425, Note_on_c, 9, 51, 0
13, 24576, Note_on_c, 9, 36, 127
13, 24576, Note_on_c, 9, 57, 57
13, 24576, Note_on_c, 9, 51, 79
13, 24627, Note_on_c, 9, 51, 0
13, 24642, Note_on_c, 9, 36, 0
13, 24768, Note_on_c, 9, 51, 57
13, 24834, Note_on_c, 9, 51, 0
13, 24960, Note_on_c, 9, 38, 127
13, 24960, Note_on_c, 9, 51, 96
13, 25027, Note_on_c, 9, 51, 0
13, 25142, Note_on_c, 9, 38, 0
13, 25152, Note_on_c, 9, 51, 57
13, 25205, Note_on_c, 9, 51, 0
13, 25248, Note_on_c, 9, 36, 94
13, 25287, Note_on_c, 9, 36, 0
13, 25344, Note_on_c, 9, 51, 79
13, 25344, Note_on_c, 9, 36, 127
13, 25404, Note_on_c, 9, 51, 0
13, 25452, Note_on_c, 9, 36, 0
13, 25536, Note_on_c, 9, 51, 57
13, 25536, Note_on_c, 9, 36, 127
13, 25589, Note_on_c, 9, 51, 0
13, 25645, Note_on_c, 9, 36, 0
13, 25728, Note_on_c, 9, 38, 127
13, 25728, Note_on_c, 9, 51, 96
13, 25755, Note_on_c, 9, 57, 0
13, 25795, Note_on_c, 9, 51, 0
13, 25847, Note_on_c, 9, 38, 0
13, 25920, Note_on_c, 9, 51, 57
13, 25920, Note_on_c, 9, 36, 103
13, 25955, Note_on_c, 9, 36, 0
13, 25961, Note_on_c, 9, 51, 0
13, 26112, Note_on_c, 9, 36, 127
13, 26112, Note_on_c, 9, 51, 79
13, 26163, Note_on_c, 9, 51, 0
13, 26178, Note_on_c, 9, 36, 0
13, 26304, Note_on_c, 9, 51, 57
13, 26370, Note_on_c, 9, 51, 0
13, 26496, Note_on_c, 9, 38, 127
13, 26496, Note_on_c, 9, 51, 96
13, 26563, Note_on_c, 9, 51, 0
13, 26678, Note_on_c, 9, 38, 0
13, 26688, Note_on_c, 9, 51, 57
13, 26741, Note_on_c, 9, 51, 0
13, 26784, Note_on_c, 9, 36, 94
13, 26823, Note_on_c, 9, 36, 0
13, 26880, Note_on_c, 9, 51, 79
13, 26880, Note_on_c, 9, 36, 127
13, 26940, Note_on_c, 9, 51, 0
13, 26988, Note_on_c, 9, 36, 0
13, 27072, Note_on_c, 9, 51, 57
13, 27072, Note_on_c, 9, 36, 127
13, 27125, Note_on_c, 9, 51, 0
13, 27181, Note_on_c, 9, 36, 0
13, 27264, Note_on_c, 9, 38, 127
13, 27264, Note_on_c, 9, 51, 96
13, 27331, Note_on_c, 9, 51, 0
13, 27383, Note_on_c, 9, 38, 0
13, 27456, Note_on_c, 9, 36, 103
13, 27456, Note_on_c, 9, 51, 57
13, 27491, Note_on_c, 9, 36, 0
13, 27497, Note_on_c, 9, 51, 0
13, 27648, Note_on_c, 9, 51, 79
13, 27648, Note_on_c, 9, 36, 127
13, 27648, Note_on_c, 9, 49, 57
13, 27699, Note_on_c, 9, 51, 0
13, 27714, Note_on_c, 9, 36, 0
13, 27840, Note_on_c, 9, 51, 57
13, 27906, Note_on_c, 9, 51, 0
13, 28032, Note_on_c, 9, 51, 96
13, 28032, Note_on_c, 9, 38, 127
13, 28099, Note_on_c, 9, 51, 0
13, 28214, Note_on_c, 9, 38, 0
13, 28224, Note_on_c, 9, 51, 57
13, 28277, Note_on_c, 9, 51, 0
13, 28320, Note_on_c, 9, 36, 94
13, 28359, Note_on_c, 9, 36, 0
13, 28416, Note_on_c, 9, 36, 127
13, 28416, Note_on_c, 9, 51, 79
13, 28476, Note_on_c, 9, 51, 0
13, 28524, Note_on_c, 9, 36, 0
13, 28528, Note_on_c, 9, 49, 0
13, 28608, Note_on_c, 9, 51, 57
13, 28608, Note_on_c, 9, 36, 127
13, 28661, Note_on_c, 9, 51, 0
13, 28717, Note_on_c, 9, 36, 0
13, 28800, Note_on_c, 9, 38, 127
13, 28800, Note_on_c, 9, 51, 96
13, 28867, Note_on_c, 9, 51, 0
13, 28919, Note_on_c, 9, 38, 0
13, 28992, Note_on_c, 9, 51, 57
13, 28992, Note_on_c, 9, 36, 103
13, 29027, Note_on_c, 9, 36, 0
13, 29033, Note_on_c, 9, 51, 0
13, 29184, Note_on_c, 9, 36, 127
13, 29184, Note_on_c, 9, 51, 79
13, 29235, Note_on_c, 9, 51, 0
13, 29250, Note_on_c, 9, 36, 0
13, 29376, Note_on_c, 9, 51, 57
13, 29442, Note_on_c, 9, 51, 0
13, 29568, Note_on_c, 9, 51, 96
13, 29568, Note_on_c, 9, 38, 127
13, 29635, Note_on_c, 9, 51, 0
13, 29750, Note_on_c, 9, 38, 0
13, 29760, Note_on_c, 9, 51, 57
13, 29813, Note_on_c, 9, 51, 0
13, 29856, Note_on_c, 9, 36, 94
13, 29895, Note_on_c, 9, 36, 0
13, 29952, Note_on_c, 9, 36, 127
13, 29952, Note_on_c, 9, 51, 79
13, 30012, Note_on_c, 9, 51, 0
13, 30060, Note_on_c, 9, 36, 0
13, 30144, Note_on_c, 9, 51, 57
13, 30144, Note_on_c, 9, 36, 127
13, 30197, Note_on_c, 9, 51, 0
13, 30253, Note_on_c, 9, 36, 0
13, 30336, Note_on_c, 9, 51, 96
13, 30336, Note_on_c, 9, 38, 127
13, 30403, Note_on_c, 9, 51, 0
13, 30455, Note_on_c, 9, 38, 0
13, 30528, Note_on_c, 9, 51, 57
13, 30528, Note_on_c, 9, 36, 103
13, 30563, Note_on_c, 9, 36, 0
13, 30569, Note_on_c, 9, 51, 0
13, 30720, Note_on_c, 9, 36, 127
13, 30720, Note_on_c, 9, 51, 79
13, 30720, Note_on_c, 9, 57, 53
13, 30720, Note_on_c, 9, 49, 53
13, 30771, Note_on_c, 9, 51, 0
13, 30784, Note_on_c, 9, 49, 0
13, 30786, Note_on_c, 9, 36, 0
13, 30808, Note_on_c, 9, 57, 0
13, 30912, Note_on_c, 9, 51, 57
13, 30978, Note_on_c, 9, 51, 0
13, 31104, Note_on_c, 9, 38, 127
13, 31104, Note_on_c, 9, 51, 96
13, 31171, Note_on_c, 9, 51, 0
13, 31286, Note_on_c, 9, 38, 0
13, 31296, Note_on_c, 9, 51, 57
13, 31349, Note_on_c, 9, 51, 0
13, 31392, Note_on_c, 9, 36, 94
13, 31431, Note_on_c, 9, 36, 0
13, 31488, Note_on_c, 9, 38, 127
13, 31488, Note_on_c, 9, 51, 79
13, 31548, Note_on_c, 9, 51, 0
13, 31584, Note_on_c, 9, 36, 127
13, 31670, Note_on_c, 9, 38, 0
13, 31680, Note_on_c, 9, 51, 57
13, 31692, Note_on_c, 9, 36, 0
13, 31733, Note_on_c, 9, 51, 0
13, 31776, Note_on_c, 9, 36, 103
13, 31872, Note_on_c, 9, 38, 127
13, 31872, Note_on_c, 9, 51, 96
13, 31885, Note_on_c, 9, 36, 0
13, 31939, Note_on_c, 9, 51, 0
13, 31968, Note_on_c, 9, 36, 127
13, 31991, Note_on_c, 9, 38, 0
13, 32003, Note_on_c, 9, 36, 0
13, 32064, Note_on_c, 9, 51, 57
13, 32105, Note_on_c, 9, 51, 0
13, 32160, Note_on_c, 9, 36, 108
13, 32226, Note_on_c, 9, 36, 0
13, 32244, Note_on_c, 9, 38, 99
13, 32256, Note_on_c, 9, 38, 127
13, 32256, Note_on_c, 9, 55, 62
13, 32363, Note_on_c, 9, 38, 0
13, 32375, Note_on_c, 9, 38, 0
13, 32861, Note_on_c, 9, 55, 0
13, 34176, Note_on_c, 9, 44, 81
13, 34772, Note_on_c, 9, 44, 0
13, 34944, Note_on_c, 9, 44, 81
13, 35066, Note_on_c, 9, 44, 0
13, 35712, Note_on_c, 9, 44, 81
13, 36308, Note_on_c, 9, 44, 0
13, 36480, Note_on_c, 9, 44, 81
13, 36602, Note_on_c, 9, 44, 0
13, 37248, Note_on_c, 9, 44, 81
13, 37844, Note_on_c, 9, 44, 0
13, 38016, Note_on_c, 9, 44, 81
13, 38138, Note_on_c, 9, 44, 0
13, 38784, Note_on_c, 9, 44, 81
13, 39380, Note_on_c, 9, 44, 0
13, 39552, Note_on_c, 9, 44, 81
13, 39674, Note_on_c, 9, 44, 0
13, 40320, Note_on_c, 9, 44, 81
13, 40916, Note_on_c, 9, 44, 0
13, 41088, Note_on_c, 9, 44, 81
13, 41210, Note_on_c, 9, 44, 0
13, 41856, Note_on_c, 9, 44, 81
13, 42452, Note_on_c, 9, 44, 0
13, 42624, Note_on_c, 9, 44, 81
13, 42746, Note_on_c, 9, 44, 0
13, 43200, Note_on_c, 9, 47, 55
13, 43322, Note_on_c, 9, 47, 0
13, 43392, Note_on_c, 9, 44, 81
13, 43584, Note_on_c, 9, 45, 55
13, 43681, Note_on_c, 9, 45, 0
13, 43776, Note_on_c, 9, 45, 68
13, 43911, Note_on_c, 9, 45, 0
13, 43988, Note_on_c, 9, 44, 0
13, 44064, Note_on_c, 9, 43, 55
13, 44158, Note_on_c, 9, 43, 0
13, 44160, Note_on_c, 9, 41, 77
13, 44160, Note_on_c, 9, 44, 81
13, 44259, Note_on_c, 9, 41, 0
13, 44282, Note_on_c, 9, 44, 0
13, 44544, Note_on_c, 9, 36, 113
13, 44544, Note_on_c, 9, 59, 91
13, 44544, Note_on_c, 9, 42, 36
13, 44612, Note_on_c, 9, 42, 0
13, 44621, Note_on_c, 9, 36, 0
13, 44736, Note_on_c, 9, 42, 28
13, 44810, Note_on_c, 9, 42, 0
13, 44928, Note_on_c, 9, 42, 89
13, 44991, Note_on_c, 9, 42, 0
13, 45120, Note_on_c, 9, 42, 28
13, 45120, Note_on_c, 9, 36, 77
13, 45140, Note_on_c, 9, 59, 0
13, 45201, Note_on_c, 9, 42, 0
13, 45202, Note_on_c, 9, 36, 0
13, 45312, Note_on_c, 9, 36, 113
13, 45312, Note_on_c, 9, 42, 36
13, 45379, Note_on_c, 9, 42, 0
13, 45427, Note_on_c, 9, 36, 0
13, 45504, Note_on_c, 9, 42, 28
13, 45575, Note_on_c, 9, 42, 0
13, 45696, Note_on_c, 9, 42, 91
13, 45767, Note_on_c, 9, 42, 0
13, 45888, Note_on_c, 9, 42, 28
13, 45955, Note_on_c, 9, 42, 0
13, 46080, Note_on_c, 9, 36, 113
13, 46080, Note_on_c, 9, 42, 36
13, 46148, Note_on_c, 9, 42, 0
13, 46157, Note_on_c, 9, 36, 0
13, 46272, Note_on_c, 9, 42, 28
13, 46346, Note_on_c, 9, 42, 0
13, 46464, Note_on_c, 9, 42, 89
13, 46527, Note_on_c, 9, 42, 0
13, 46656, Note_on_c, 9, 42, 28
13, 46656, Note_on_c, 9, 36, 77
13, 46737, Note_on_c, 9, 42, 0
13, 46738, Note_on_c, 9, 36, 0
13, 46848, Note_on_c, 9, 42, 36
13, 46848, Note_on_c, 9, 36, 113
13, 46915, Note_on_c, 9, 42, 0
13, 46963, Note_on_c, 9, 36, 0
13, 47040, Note_on_c, 9, 42, 28
13, 47111, Note_on_c, 9, 42, 0
13, 47232, Note_on_c, 9, 42, 91
13, 47303, Note_on_c, 9, 42, 0
13, 47424, Note_on_c, 9, 46, 28
13, 47491, Note_on_c, 9, 46, 0
13, 47616, Note_on_c, 9, 36, 113
13, 47616, Note_on_c, 9, 42, 36
13, 47684, Note_on_c, 9, 42, 0
13, 47693, Note_on_c, 9, 36, 0
13, 47808, Note_on_c, 9, 42, 28
13, 47882, Note_on_c, 9, 42, 0
13, 48000, Note_on_c, 9, 42, 89
13, 48063, Note_on_c, 9, 42, 0
13, 48192, Note_on_c, 9, 36, 77
13, 48192, Note_on_c, 9, 42, 28
13, 48273, Note_on_c, 9, 42, 0
13, 48274, Note_on_c, 9, 36, 0
13, 48384, Note_on_c, 9, 42, 36
13, 48384, Note_on_c, 9, 36, 113
13, 48451, Note_on_c, 9, 42, 0
13, 48499, Note_on_c, 9, 36, 0
13, 48576, Note_on_c, 9, 42, 28
13, 48647, Note_on_c, 9, 42, 0
13, 48768, Note_on_c, 9, 42, 91
13, 48839, Note_on_c, 9, 42, 0
13, 48960, Note_on_c, 9, 42, 28
13, 49008, Note_on_c, 9, 38, 31
13, 49027, Note_on_c, 9, 42, 0
13, 49056, Note_on_c, 9, 38, 0
13, 49056, Note_on_c, 9, 38, 41
13, 49104, Note_on_c, 9, 38, 0
13, 49104, Note_on_c, 9, 38, 64
13, 49152, Note_on_c, 9, 38, 0
13, 49152, Note_on_c, 9, 36, 113
13, 49152, Note_on_c, 9, 42, 36
13, 49152, Note_on_c, 9, 38, 103
13, 49197, Note_on_c, 9, 38, 0
13, 49220, Note_on_c, 9, 42, 0
13, 49229, Note_on_c, 9, 36, 0
13, 49248, Note_on_c, 9, 38, 103
13, 49297, Note_on_c, 9, 38, 0
13, 49344, Note_on_c, 9, 43, 74
13, 49344, Note_on_c, 9, 47, 74
13, 49344, Note_on_c, 9, 42, 28
13, 49385, Note_on_c, 9, 43, 0
13, 49397, Note_on_c, 9, 47, 0
13, 49418, Note_on_c, 9, 42, 0
13, 49536, Note_on_c, 9, 41, 89
13, 49536, Note_on_c, 9, 45, 89
13, 49536, Note_on_c, 9, 42, 89
13, 49578, Note_on_c, 9, 45, 0
13, 49582, Note_on_c, 9, 41, 0
13, 49599, Note_on_c, 9, 42, 0
13, 49728, Note_on_c, 9, 42, 28
13, 49728, Note_on_c, 9, 36, 77
13, 49776, Note_on_c, 9, 38, 31
13, 49809, Note_on_c, 9, 42, 0
13, 49810, Note_on_c, 9, 36, 0
13, 49824, Note_on_c, 9, 38, 0
13, 49824, Note_on_c, 9, 38, 41
13, 49872, Note_on_c, 9, 38, 0
13, 49872, Note_on_c, 9, 38, 64
13, 49920, Note_on_c, 9, 38, 0
13, 49920, Note_on_c, 9, 36, 113
13, 49920, Note_on_c, 9, 42, 36
13, 49920, Note_on_c, 9, 38, 103
13, 49965, Note_on_c, 9, 38, 0
13, 49987, Note_on_c, 9, 42, 0
13, 50035, Note_on_c, 9, 36, 0
13, 50112, Note_on_c, 9, 47, 91
13, 50112, Note_on_c, 9, 42, 28
13, 50112, Note_on_c, 9, 43, 91
13, 50183, Note_on_c, 9, 42, 0
13, 50278, Note_on_c, 9, 43, 0
13, 50295, Note_on_c, 9, 47, 0
13, 50304, Note_on_c, 9, 42, 91
13, 50375, Note_on_c, 9, 42, 0
13, 50400, Note_on_c, 9, 47, 77
13, 50493, Note_on_c, 9, 47, 0
13, 50496, Note_on_c, 9, 46, 28
13, 50496, Note_on_c, 9, 45, 89
13, 50496, Note_on_c, 9, 36, 77
13, 50563, Note_on_c, 9, 46, 0
13, 50578, Note_on_c, 9, 36, 0
13, 50589, Note_on_c, 9, 45, 0
13, 50592, Note_on_c, 9, 43, 84
13, 50670, Note_on_c, 9, 43, 0
13, 50688, Note_on_c, 9, 42, 36
13, 50688, Note_on_c, 9, 36, 113
13, 50688, Note_on_c, 9, 45, 101
13, 50756, Note_on_c, 9, 42, 0
13, 50765, Note_on_c, 9, 36, 0
13, 50773, Note_on_c, 9, 45, 0
13, 50784, Note_on_c, 9, 43, 94
13, 50869, Note_on_c, 9, 43, 0
13, 50880, Note_on_c, 9, 41, 99
13, 50880, Note_on_c, 9, 42, 28
13, 50954, Note_on_c, 9, 42, 0
13, 50965, Note_on_c, 9, 41, 0
13, 50976, Note_on_c, 9, 38, 106
13, 51072, Note_on_c, 9, 38, 0
13, 51072, Note_on_c, 9, 45, 108
13, 51072, Note_on_c, 9, 36, 111
13, 51072, Note_on_c, 9, 42, 89
13, 51135, Note_on_c, 9, 42, 0
13, 51146, Note_on_c, 9, 45, 0
13, 51154, Note_on_c, 9, 36, 0
13, 51168, Note_on_c, 9, 41, 94
13, 51242, Note_on_c, 9, 41, 0
13, 51246, Note_on_c, 9, 38, 106
13, 51264, Note_on_c, 9, 42, 28
13, 51270, Note_on_c, 9, 38, 127
13, 51342, Note_on_c, 9, 38, 0
13, 51345, Note_on_c, 9, 42, 0
13, 51366, Note_on_c, 9, 38, 0
13, 51456, Note_on_c, 9, 42, 36
13, 51456, Note_on_c, 9, 47, 84
13, 51456, Note_on_c, 9, 36, 113
13, 51523, Note_on_c, 9, 42, 0
13, 51552, Note_on_c, 9, 45, 99
13, 51571, Note_on_c, 9, 36, 0
13, 51578, Note_on_c, 9, 47, 0
13, 51648, Note_on_c, 9, 41, 99
13, 51648, Note_on_c, 9, 42, 28
13, 51659, Note_on_c, 9, 45, 0
13, 51696, Note_on_c, 9, 41, 0
13, 51719, Note_on_c, 9, 42, 0
13, 51744, Note_on_c, 9, 38, 113
13, 51840, Note_on_c, 9, 38, 0
13, 51840, Note_on_c, 9, 36, 113
13, 51840, Note_on_c, 9, 42, 91
13, 51840, Note_on_c, 9, 47, 93
13, 51911, Note_on_c, 9, 42, 0
13, 51920, Note_on_c, 9, 47, 0
13, 51936, Note_on_c, 9, 45, 99
13, 51955, Note_on_c, 9, 36, 0
13, 52032, Note_on_c, 9, 43, 106
13, 52032, Note_on_c, 9, 42, 28
13, 52052, Note_on_c, 9, 45, 0
13, 52099, Note_on_c, 9, 42, 0
13, 52123, Note_on_c, 9, 43, 0
13, 52128, Note_on_c, 9, 41, 113
13, 52186, Note_on_c, 9, 41, 0
13, 52224, Note_on_c, 9, 36, 127
13, 52224, Note_on_c, 9, 57, 55
13, 52224, Note_on_c, 9, 51, 79
13, 52224, Note_on_c, 9, 49, 55
13, 52275, Note_on_c, 9, 51, 0
13, 52290, Note_on_c, 9, 36, 0
13, 52383, Note_on_c, 9, 49, 0
13, 52390, Note_on_c, 9, 57, 0
13, 52416, Note_on_c, 9, 51, 57
13, 52482, Note_on_c, 9, 51, 0
13, 52608, Note_on_c, 9, 38, 127
13, 52608, Note_on_c, 9, 51, 96
13, 52675, Note_on_c, 9, 51, 0
13, 52790, Note_on_c, 9, 38, 0
13, 52800, Note_on_c, 9, 51, 57
13, 52853, Note_on_c, 9, 51, 0
13, 52896, Note_on_c, 9, 36, 94
13, 52935, Note_on_c, 9, 36, 0
13, 52992, Note_on_c, 9, 36, 127
13, 52992, Note_on_c, 9, 51, 79
13, 53052, Note_on_c, 9, 51, 0
13, 53100, Note_on_c, 9, 36, 0
13, 53184, Note_on_c, 9, 51, 57
13, 53184, Note_on_c, 9, 36, 127
13, 53237, Note_on_c, 9, 51, 0
13, 53293, Note_on_c, 9, 36, 0
13, 53376, Note_on_c, 9, 38, 127
13, 53376, Note_on_c, 9, 51, 96
13, 53443, Note_on_c, 9, 51, 0
13, 53495, Note_on_c, 9, 38, 0
13, 53568, Note_on_c, 9, 36, 103
13, 53568, Note_on_c, 9, 51, 57
13, 53603, Note_on_c, 9, 36, 0
13, 53609, Note_on_c, 9, 51, 0
13, 53760, Note_on_c, 9, 51, 79
13, 53760, Note_on_c, 9, 36, 127
13, 53811, Note_on_c, 9, 51, 0
13, 53826, Note_on_c, 9, 36, 0
13, 53952, Note_on_c, 9, 51, 57
13, 54018, Note_on_c, 9, 51, 0
13, 54144, Note_on_c, 9, 51, 96
13, 54144, Note_on_c, 9, 38, 127
13, 54211, Note_on_c, 9, 51, 0
13, 54326, Note_on_c, 9, 38, 0
13, 54336, Note_on_c, 9, 51, 57
13, 54389, Note_on_c, 9, 51, 0
13, 54432, Note_on_c, 9, 36, 94
13, 54471, Note_on_c, 9, 36, 0
13, 54528, Note_on_c, 9, 36, 127
13, 54528, Note_on_c, 9, 51, 79
13, 54588, Note_on_c, 9, 51, 0
13, 54636, Note_on_c, 9, 36, 0
13, 54720, Note_on_c, 9, 36, 127
13, 54720, Note_on_c, 9, 51, 57
13, 54773, Note_on_c, 9, 51, 0
13, 54829, Note_on_c, 9, 36, 0
13, 54912, Note_on_c, 9, 38, 127
13, 54912, Note_on_c, 9, 51, 96
13, 54979, Note_on_c, 9, 51, 0
13, 55031, Note_on_c, 9, 38, 0
13, 55104, Note_on_c, 9, 36, 103
13, 55104, Note_on_c, 9, 51, 57
13, 55139, Note_on_c, 9, 36, 0
13, 55145, Note_on_c, 9, 51, 0
13, 55296, Note_on_c, 9, 57, 57
13, 55296, Note_on_c, 9, 36, 127
13, 55296, Note_on_c, 9, 51, 79
13, 55347, Note_on_c, 9, 51, 0
13, 55362, Note_on_c, 9, 36, 0
13, 55488, Note_on_c, 9, 51, 57
13, 55554, Note_on_c, 9, 51, 0
13, 55680, Note_on_c, 9, 51, 96
13, 55680, Note_on_c, 9, 38, 127
13, 55747, Note_on_c, 9, 51, 0
13, 55862, Note_on_c, 9, 38, 0
13, 55872, Note_on_c, 9, 51, 57
13, 55925, Note_on_c, 9, 51, 0
13, 55968, Note_on_c, 9, 36, 94
13, 56007, Note_on_c, 9, 36, 0
13, 56064, Note_on_c, 9, 36, 127
13, 56064, Note_on_c, 9, 51, 79
13, 56124, Note_on_c, 9, 51, 0
13, 56172, Note_on_c, 9, 36, 0
13, 56256, Note_on_c, 9, 51, 57
13, 56256, Note_on_c, 9, 36, 127
13, 56309, Note_on_c, 9, 51, 0
13, 56365, Note_on_c, 9, 36, 0
13, 56448, Note_on_c, 9, 38, 127
13, 56448, Note_on_c, 9, 51, 96
13, 56475, Note_on_c, 9, 57, 0
13, 56515, Note_on_c, 9, 51, 0
13, 56567, Note_on_c, 9, 38, 0
13, 56640, Note_on_c, 9, 51, 57
13, 56640, Note_on_c, 9, 36, 103
13, 56675, Note_on_c, 9, 36, 0
13, 56681, Note_on_c, 9, 51, 0
13, 56832, Note_on_c, 9, 36, 127
13, 56832, Note_on_c, 9, 51, 79
13, 56883, Note_on_c, 9, 51, 0
13, 56898, Note_on_c, 9, 36, 0
13, 57024, Note_on_c, 9, 51, 57
13, 57090, Note_on_c, 9, 51, 0
13, 57216, Note_on_c, 9, 51, 96
13, 57216, Note_on_c, 9, 38, 127
13, 57283, Note_on_c, 9, 51, 0
13, 57398, Note_on_c, 9, 38, 0
13, 57408, Note_on_c, 9, 51, 57
13, 57461, Note_on_c, 9, 51, 0
13, 57504, Note_on_c, 9, 36, 94
13, 57543, Note_on_c, 9, 36, 0
13, 57600, Note_on_c, 9, 51, 79
13, 57600, Note_on_c, 9, 36, 127
13, 57660, Note_on_c, 9, 51, 0
13, 57708, Note_on_c, 9, 36, 0
13, 57792, Note_on_c, 9, 36, 127
13, 57792, Note_on_c, 9, 51, 57
13, 57845, Note_on_c, 9, 51, 0
13, 57901, Note_on_c, 9, 36, 0
13, 57984, Note_on_c, 9, 51, 96
13, 57984, Note_on_c, 9, 38, 127
13, 58051, Note_on_c, 9, 51, 0
13, 58103, Note_on_c, 9, 38, 0
13, 58176, Note_on_c, 9, 51, 57
13, 58176, Note_on_c, 9, 36, 103
13, 58211, Note_on_c, 9, 36, 0
13, 58217, Note_on_c, 9, 51, 0
13, 58368, Note_on_c, 9, 51, 79
13, 58368, Note_on_c, 9, 36, 127
13, 58368, Note_on_c, 9, 49, 57
13, 58419, Note_on_c, 9, 51, 0
13, 58434, Note_on_c, 9, 36, 0
13, 58560, Note_on_c, 9, 51, 57
13, 58626, Note_on_c, 9, 51, 0
13, 58752, Note_on_c, 9, 38, 127
13, 58752, Note_on_c, 9, 51, 96
13, 58819, Note_on_c, 9, 51, 0
13, 58934, Note_on_c, 9, 38, 0
13, 58944, Note_on_c, 9, 51, 57
13, 58997, Note_on_c, 9, 51, 0
13, 59040, Note_on_c, 9, 36, 94
13, 59079, Note_on_c, 9, 36, 0
13, 59136, Note_on_c, 9, 51, 79
13, 59136, Note_on_c, 9, 36, 127
13, 59196, Note_on_c, 9, 51, 0
13, 59244, Note_on_c, 9, 36, 0
13, 59248, Note_on_c, 9, 49, 0
13, 59328, Note_on_c, 9, 51, 57
13, 59328, Note_on_c, 9, 36, 127
13, 59381, Note_on_c, 9, 51, 0
13, 59437, Note_on_c, 9, 36, 0
13, 59520, Note_on_c, 9, 51, 96
13, 59520, Note_on_c, 9, 38, 127
13, 59587, Note_on_c, 9, 51, 0
13, 59639, Note_on_c, 9, 38, 0
13, 59712, Note_on_c, 9, 36, 103
13, 59712, Note_on_c, 9, 51, 57
13, 59747, Note_on_c, 9, 36, 0
13, 59753, Note_on_c, 9, 51, 0
13, 59904, Note_on_c, 9, 36, 127
13, 59904, Note_on_c, 9, 51, 79
13, 59955, Note_on_c, 9, 51, 0
13, 59970, Note_on_c, 9, 36, 0
13, 60096, Note_on_c, 9, 51, 57
13, 60162, Note_on_c, 9, 51, 0
13, 60288, Note_on_c, 9, 38, 127
13, 60288, Note_on_c, 9, 51, 96
13, 60355, Note_on_c, 9, 51, 0
13, 60470, Note_on_c, 9, 38, 0
13, 60480, Note_on_c, 9, 51, 57
13, 60533, Note_on_c, 9, 51, 0
13, 60576, Note_on_c, 9, 36, 94
13, 60615, Note_on_c, 9, 36, 0
13, 60672, Note_on_c, 9, 51, 79
13, 60672, Note_on_c, 9, 36, 127
13, 60732, Note_on_c, 9, 51, 0
13, 60780, Note_on_c, 9, 36, 0
13, 60864, Note_on_c, 9, 36, 127
13, 60864, Note_on_c, 9, 51, 57
13, 60917, Note_on_c, 9, 51, 0
13, 60973, Note_on_c, 9, 36, 0
13, 61056, Note_on_c, 9, 51, 96
13, 61056, Note_on_c, 9, 38, 127
13, 61123, Note_on_c, 9, 51, 0
13, 61175, Note_on_c, 9, 38, 0
13, 61248, Note_on_c, 9, 36, 103
13, 61248, Note_on_c, 9, 51, 57
13, 61283, Note_on_c, 9, 36, 0
13, 61289, Note_on_c, 9, 51, 0
13, 61440, Note_on_c, 9, 49, 53
13, 61440, Note_on_c, 9, 57, 53
13, 61440, Note_on_c, 9, 51, 79
13, 61440, Note_on_c, 9, 36, 127
13, 61491, Note_on_c, 9, 51, 0
13, 61504, Note_on_c, 9, 49, 0
13, 61506, Note_on_c, 9, 36, 0
13, 61528, Note_on_c, 9, 57, 0
13, 61632, Note_on_c, 9, 38, 122
13, 61632, Note_on_c, 9, 51, 57
13, 61698, Note_on_c, 9, 51, 0
13, 61713, Note_on_c, 9, 38, 0
13, 61824, Note_on_c, 9, 51, 96
13, 61824, Note_on_c, 9, 47, 117
13, 61880, Note_on_c, 9, 47, 0
13, 61891, Note_on_c, 9, 51, 0
13, 61920, Note_on_c, 9, 38, 117
13, 61989, Note_on_c, 9, 38, 0
13, 62016, Note_on_c, 9, 36, 127
13, 62016, Note_on_c, 9, 51, 57
13, 62069, Note_on_c, 9, 51, 0
13, 62122, Note_on_c, 9, 36, 0
13, 62208, Note_on_c, 9, 51, 79
13, 62208, Note_on_c, 9, 38, 127
13, 62268, Note_on_c, 9, 51, 0
13, 62295, Note_on_c, 9, 38, 0
13, 62400, Note_on_c, 9, 51, 57
13, 62400, Note_on_c, 9, 45, 117
13, 62453, Note_on_c, 9, 51, 0
13, 62455, Note_on_c, 9, 45, 0
13, 62496, Note_on_c, 9, 38, 127
13, 62563, Note_on_c, 9, 38, 0
13, 62592, Note_on_c, 9, 36, 127
13, 62592, Note_on_c, 9, 51, 96
13, 62659, Note_on_c, 9, 51, 0
13, 62691, Note_on_c, 9, 36, 0
13, 62784, Note_on_c, 9, 38, 127
13, 62784, Note_on_c, 9, 51, 57
13, 62825, Note_on_c, 9, 51, 0
13, 62849, Note_on_c, 9, 38, 0
13, 62880, Note_on_c, 9, 43, 91
13, 62926, Note_on_c, 9, 43, 0
13, 64512, Note_on_c, 9, 44, 81
13, 65108, Note_on_c, 9, 44, 0
13, 65280, Note_on_c, 9, 44, 81
13, 65402, Note_on_c, 9, 44, 0
13, 66048, Note_on_c, 9, 44, 81
13, 66644, Note_on_c, 9, 44, 0
13, 66816, Note_on_c, 9, 44, 81
13, 66938, Note_on_c, 9, 44, 0
13, 67584, Note_on_c, 9, 44, 81
13, 68180, Note_on_c, 9, 44, 0
13, 68352, Note_on_c, 9, 44, 81
13, 68474, Note_on_c, 9, 44, 0
13, 69120, Note_on_c, 9, 44, 81
13, 69716, Note_on_c, 9, 44, 0
13, 69888, Note_on_c, 9, 44, 81
13, 70010, Note_on_c, 9, 44, 0
13, 70656, Note_on_c, 9, 44, 81
13, 71252, Note_on_c, 9, 44, 0
13, 71424, Note_on_c, 9, 44, 81
13, 71546, Note_on_c, 9, 44, 0
13, 72192, Note_on_c, 9, 44, 81
13, 72788, Note_on_c, 9, 44, 0
13, 72960, Note_on_c, 9, 44, 81
13, 73082, Note_on_c, 9, 44, 0
13, 73536, Note_on_c, 9, 47, 55
13, 73658, Note_on_c, 9, 47, 0
13, 73728, Note_on_c, 9, 44, 81
13, 73920, Note_on_c, 9, 45, 55
13, 74017, Note_on_c, 9, 45, 0
13, 74112, Note_on_c, 9, 45, 68
13, 74247, Note_on_c, 9, 45, 0
13, 74324, Note_on_c, 9, 44, 0
13, 74400, Note_on_c, 9, 43, 55
13, 74494, Note_on_c, 9, 43, 0
13, 74496, Note_on_c, 9, 41, 77
13, 74496, Note_on_c, 9, 44, 81
13, 74595, Note_on_c, 9, 41, 0
13, 74618, Note_on_c, 9, 44, 0
13, 74880, Note_on_c, 9, 36, 113
13, 74880, Note_on_c, 9, 59, 91
13, 74880, Note_on_c, 9, 42, 36
13, 74948, Note_on_c, 9, 42, 0
13, 74957, Note_on_c, 9, 36, 0
13, 75072, Note_on_c, 9, 42, 28
13, 75146, Note_on_c, 9, 42, 0
13, 75264, Note_on_c, 9, 42, 89
13, 75327, Note_on_c, 9, 42, 0
13, 75456, Note_on_c, 9, 42, 28
13, 75456, Note_on_c, 9, 36, 77
13, 75476, Note_on_c, 9, 59, 0
13, 75537, Note_on_c, 9, 42, 0
13, 75538, Note_on_c, 9, 36, 0
13, 75648, Note_on_c, 9, 36, 113
13, 75648, Note_on_c, 9, 42, 36
13, 75715, Note_on_c, 9, 42, 0
13, 75763, Note_on_c, 9, 36, 0
13, 75840, Note_on_c, 9, 42, 28
13, 75911, Note_on_c, 9, 42, 0
13, 76032, Note_on_c, 9, 42, 91
13, 76103, Note_on_c, 9, 42, 0
13, 76224, Note_on_c, 9, 42, 28
13, 76291, Note_on_c, 9, 42, 0
13, 76416, Note_on_c, 9, 36, 113
13, 76416, Note_on_c, 9, 42, 36
13, 76484, Note_on_c, 9, 42, 0
13, 76493, Note_on_c, 9, 36, 0
13, 76608, Note_on_c, 9, 42, 28
13, 76682, Note_on_c, 9, 42, 0
13, 76800, Note_on_c, 9, 42, 89
13, 76863, Note_on_c, 9, 42, 0
13, 76992, Note_on_c, 9, 42, 28
13, 76992, Note_on_c, 9, 36, 77
13, 77073, Note_on_c, 9, 42, 0
13, 77074, Note_on_c, 9, 36, 0
13, 77184, Note_on_c, 9, 42, 36
13, 77184, Note_on_c, 9, 36, 113
13, 77251, Note_on_c, 9, 42, 0
13, 77299, Note_on_c, 9, 36, 0
13, 77376, Note_on_c, 9, 42, 28
13, 77447, Note_on_c, 9, 42, 0
13, 77568, Note_on_c, 9, 42, 91
13, 77639, Note_on_c, 9, 42, 0
13, 77760, Note_on_c, 9, 46, 28
13, 77827, Note_on_c, 9, 46, 0
13, 77952, Note_on_c, 9, 36, 113
13, 77952, Note_on_c, 9, 42, 36
13, 78020, Note_on_c, 9, 42, 0
13, 78029, Note_on_c, 9, 36, 0
13, 78144, Note_on_c, 9, 42, 28
13, 78218, Note_on_c, 9, 42, 0
13, 78336, Note_on_c, 9, 42, 89
13, 78399, Note_on_c, 9, 42, 0
13, 78528, Note_on_c, 9, 36, 77
13, 78528, Note_on_c, 9, 42, 28
13, 78609, Note_on_c, 9, 42, 0
13, 78610, Note_on_c, 9, 36, 0
13, 78720, Note_on_c, 9, 42, 36
13, 78720, Note_on_c, 9, 36, 113
13, 78787, Note_on_c, 9, 42, 0
13, 78835, Note_on_c, 9, 36, 0
13, 78912, Note_on_c, 9, 42, 28
13, 78983, Note_on_c, 9, 42, 0
13, 79104, Note_on_c, 9, 42, 91
13, 79175, Note_on_c, 9, 42, 0
13, 79296, Note_on_c, 9, 42, 28
13, 79344, Note_on_c, 9, 38, 31
13, 79363, Note_on_c, 9, 42, 0
13, 79392, Note_on_c, 9, 38, 0
13, 79392, Note_on_c, 9, 38, 41
13, 79440, Note_on_c, 9, 38, 0
13, 79440, Note_on_c, 9, 38, 64
13, 79488, Note_on_c, 9, 38, 0
13, 79488, Note_on_c, 9, 36, 113
13, 79488, Note_on_c, 9, 42, 36
13, 79488, Note_on_c, 9, 38, 103
13, 79533, Note_on_c, 9, 38, 0
13, 79556, Note_on_c, 9, 42, 0
13, 79565, Note_on_c, 9, 36, 0
13, 79584, Note_on_c, 9, 38, 103
13, 79633, Note_on_c, 9, 38, 0
13, 79680, Note_on_c, 9, 43, 74
13, 79680, Note_on_c, 9, 47, 74
13, 79680, Note_on_c, 9, 42, 28
13, 79721, Note_on_c, 9, 43, 0
13, 79733, Note_on_c, 9, 47, 0
13, 79754, Note_on_c, 9, 42, 0
13, 79872, Note_on_c, 9, 41, 89
13, 79872, Note_on_c, 9, 45, 89
13, 79872, Note_on_c, 9, 42, 89
13, 79914, Note_on_c, 9, 45, 0
13, 79918, Note_on_c, 9, 41, 0
13, 79935, Note_on_c, 9, 42, 0
13, 80064, Note_on_c, 9, 42, 28
13, 80064, Note_on_c, 9, 36, 77
13, 80112, Note_on_c, 9, 38, 31
13, 80145, Note_on_c, 9, 42, 0
13, 80146, Note_on_c, 9, 36, 0
13, 80160, Note_on_c, 9, 38, 0
13, 80160, Note_on_c, 9, 38, 41
13, 80208, Note_on_c, 9, 38, 0
13, 80208, Note_on_c, 9, 38, 64
13, 80256, Note_on_c, 9, 38, 0
13, 80256, Note_on_c, 9, 36, 113
13, 80256, Note_on_c, 9, 42, 36
13, 80256, Note_on_c, 9, 38, 103
13, 80301, Note_on_c, 9, 38, 0
13, 80323, Note_on_c, 9, 42, 0
13, 80371, Note_on_c, 9, 36, 0
13, 80448, Note_on_c, 9, 47, 91
13, 80448, Note_on_c, 9, 42, 28
13, 80448, Note_on_c, 9, 43, 91
13, 80519, Note_on_c, 9, 42, 0
13, 80614, Note_on_c, 9, 43, 0
13, 80631, Note_on_c, 9, 47, 0
13, 80640, Note_on_c, 9, 42, 91
13, 80711, Note_on_c, 9, 42, 0
13, 80736, Note_on_c, 9, 47, 77
13, 80829, Note_on_c, 9, 47, 0
13, 80832, Note_on_c, 9, 46, 28
13, 80832, Note_on_c, 9, 45, 89
13, 80832, Note_on_c, 9, 36, 77
13, 80899, Note_on_c, 9, 46, 0
13, 80914, Note_on_c, 9, 36, 0
13, 80925, Note_on_c, 9, 45, 0
13, 80928, Note_on_c, 9, 43, 84
13, 81006, Note_on_c, 9, 43, 0
13, 81024, Note_on_c, 9, 42, 36
13, 81024, Note_on_c, 9, 36, 113
13, 81024, Note_on_c, 9, 45, 101
13, 81092, Note_on_c, 9, 42, 0
13, 81101, Note_on_c, 9, 36, 0
13, 81109, Note_on_c, 9, 45, 0
13, 81120, Note_on_c, 9, 43, 94
13, 81205, Note_on_c, 9, 43, 0
13, 81216, Note_on_c, 9, 41, 99
13, 81216, Note_on_c, 9, 42, 28
13, 81290, Note_on_c, 9, 42, 0
13, 81301, Note_on_c, 9, 41, 0
13, 81312, Note_on_c, 9, 38, 106
13, 81408, Note_on_c, 9, 38, 0
13, 81408, Note_on_c, 9, 45, 108
13, 81408, Note_on_c, 9, 36, 111
13, 81408, Note_on_c, 9, 42, 89
13, 81471, Note_on_c, 9, 42, 0
13, 81482, Note_on_c, 9, 45, 0
13, 81490, Note_on_c, 9, 36, 0
13, 81504, Note_on_c, 9, 41, 94
13, 81578, Note_on_c, 9, 41, 0
13, 81582, Note_on_c, 9, 38, 106
13, 81600, Note_on_c, 9, 42, 28
13, 81606, Note_on_c, 9, 38, 127
13, 81678, Note_on_c, 9, 38, 0
13, 81681, Note_on_c, 9, 42, 0
13, 81702, Note_on_c, 9, 38, 0
13, 81792, Note_on_c, 9, 42, 36
13, 81792, Note_on_c, 9, 47, 84
13, 81792, Note_on_c, 9, 36, 113
13, 81859, Note_on_c, 9, 42, 0
13, 81888, Note_on_c, 9, 45, 99
13, 81907, Note_on_c, 9, 36, 0
13, 81914, Note_on_c, 9, 47, 0
13, 81984, Note_on_c, 9, 41, 99
13, 81984, Note_on_c, 9, 42, 28
13, 81995, Note_on_c, 9, 45, 0
13, 82032, Note_on_c, 9, 41, 0
13, 82055, Note_on_c, 9, 42, 0
13, 82080, Note_on_c, 9, 38, 113
13, 82176, Note_on_c, 9, 38, 0
13, 82176, Note_on_c, 9, 36, 113
13, 82176, Note_on_c, 9, 42, 91
13, 82176, Note_on_c, 9, 47, 93
13, 82247, Note_on_c, 9, 42, 0
13, 82256, Note_on_c, 9, 47, 0
13, 82272, Note_on_c, 9, 45, 99
13, 82291, Note_on_c, 9, 36, 0
13, 82368, Note_on_c, 9, 43, 106
13, 82368, Note_on_c, 9, 42, 28
13, 82388, Note_on_c, 9, 45, 0
13, 82435, Note_on_c, 9, 42, 0
13, 82459, Note_on_c, 9, 43, 0
13, 82464, Note_on_c, 9, 41, 113
13, 82522, Note_on_c, 9, 41, 0
13, 82560, Note_on_c, 9, 36, 127
13, 82560, Note_on_c, 9, 57, 55
13, 82560, Note_on_c, 9, 51, 79
13, 82560, Note_on_c, 9, 49, 55
13, 82611, Note_on_c, 9, 51, 0
13, 82626, Note_on_c, 9, 36, 0
13, 82719, Note_on_c, 9, 49, 0
13, 82726, Note_on_c, 9, 57, 0
13, 82752, Note_on_c, 9, 51, 57
13, 82818, Note_on_c, 9, 51, 0
13, 82944, Note_on_c, 9, 38, 127
13, 82944, Note_on_c, 9, 51, 96
13, 83011, Note_on_c, 9, 51, 0
13, 83126, Note_on_c, 9, 38, 0
13, 83136, Note_on_c, 9, 51, 57
13, 83189, Note_on_c, 9, 51, 0
13, 83232, Note_on_c, 9, 36, 94
13, 83271, Note_on_c, 9, 36, 0
13, 83328, Note_on_c, 9, 36, 127
13, 83328, Note_on_c, 9, 51, 79
13, 83388, Note_on_c, 9, 51, 0
13, 83436, Note_on_c, 9, 36, 0
13, 83520, Note_on_c, 9, 51, 57
13, 83520, Note_on_c, 9, 36, 127
13, 83573, Note_on_c, 9, 51, 0
13, 83629, Note_on_c, 9, 36, 0
13, 83712, Note_on_c, 9, 38, 127
13, 83712, Note_on_c, 9, 51, 96
13, 83779, Note_on_c, 9, 51, 0
13, 83831, Note_on_c, 9, 38, 0
13, 83904, Note_on_c, 9, 36, 103
13, 83904, Note_on_c, 9, 51, 57
13, 83939, Note_on_c, 9, 36, 0
13, 83945, Note_on_c, 9, 51, 0
13, 84096, Note_on_c, 9, 51, 79
13, 84096, Note_on_c, 9, 36, 127
13, 84147, Note_on_c, 9, 51, 0
13, 84162, Note_on_c, 9, 36, 0
13, 84288, Note_on_c, 9, 51, 57
13, 84354, Note_on_c, 9, 51, 0
13, 84480, Note_on_c, 9, 51, 96
13, 84480, Note_on_c, 9, 38, 127
13, 84547, Note_on_c, 9, 51, 0
13, 84662, Note_on_c, 9, 38, 0
13, 84672, Note_on_c, 9, 51, 57
13, 84725, Note_on_c, 9, 51, 0
13, 84768, Note_on_c, 9, 36, 94
13, 84807, Note_on_c, 9, 36, 0
13, 84864, Note_on_c, 9, 36, 127
13, 84864, Note_on_c, 9, 51, 79
13, 84924, Note_on_c, 9, 51, 0
13, 84972, Note_on_c, 9, 36, 0
13, 85056, Note_on_c, 9, 36, 127
13, 85056, Note_on_c, 9, 51, 57
13, 85109, Note_on_c, 9, 51, 0
13, 85165, Note_on_c, 9, 36, 0
13, 85248, Note_on_c, 9, 38, 127
13, 85248, Note_on_c, 9, 51, 96
13, 85315, Note_on_c, 9, 51, 0
13, 85367, Note_on_c, 9, 38, 0
13, 85440, Note_on_c, 9, 36, 103
13, 85440, Note_on_c, 9, 51, 57
13, 85475, Note_on_c, 9, 36, 0
13, 85481, Note_on_c, 9, 51, 0
13, 85632, Note_on_c, 9, 57, 57
13, 85632, Note_on_c, 9, 36, 127
13, 85632, Note_on_c, 9, 51, 79
13, 85683, Note_on_c, 9, 51, 0
13, 85698, Note_on_c, 9, 36, 0
13, 85824, Note_on_c, 9, 51, 57
13, 85890, Note_on_c, 9, 51, 0
13, 86016, Note_on_c, 9, 51, 96
13, 86016, Note_on_c, 9, 38, 127
13, 86083, Note_on_c, 9, 51, 0
13, 86198, Note_on_c, 9, 38, 0
13, 86208, Note_on_c, 9, 51, 57
13, 86261, Note_on_c, 9, 51, 0
13, 86304, Note_on_c, 9, 36, 94
13, 86343, Note_on_c, 9, 36, 0
13, 86400, Note_on_c, 9, 36, 127
13, 86400, Note_on_c, 9, 51, 79
13, 86460, Note_on_c, 9, 51, 0
13, 86508, Note_on_c, 9, 36, 0
13, 86592, Note_on_c, 9, 51, 57
13, 86592, Note_on_c, 9, 36, 127
13, 86645, Note_on_c, 9, 51, 0
13, 86701, Note_on_c, 9, 36, 0
13, 86784, Note_on_c, 9, 38, 127
13, 86784, Note_on_c, 9, 51, 96
13, 86811, Note_on_c, 9, 57, 0
13, 86851, Note_on_c, 9, 51, 0
13, 86903, Note_on_c, 9, 38, 0
13, 86976, Note_on_c, 9, 51, 57
13, 86976, Note_on_c, 9, 36, 103
13, 87011, Note_on_c, 9, 36, 0
13, 87017, Note_on_c, 9, 51, 0
13, 87168, Note_on_c, 9, 36, 127
13, 87168, Note_on_c, 9, 51, 79
13, 87219, Note_on_c, 9, 51, 0
13, 87234, Note_on_c, 9, 36, 0
13, 87360, Note_on_c, 9, 51, 57
13, 87426, Note_on_c, 9, 51, 0
13, 87552, Note_on_c, 9, 51, 96
13, 87552, Note_on_c, 9, 38, 127
13, 87619, Note_on_c, 9, 51, 0
13, 87734, Note_on_c, 9, 38, 0
13, 87744, Note_on_c, 9, 51, 57
13, 87797, Note_on_c, 9, 51, 0
13, 87840, Note_on_c, 9, 36, 94
13, 87879, Note_on_c, 9, 36, 0
13, 87936, Note_on_c, 9, 51, 79
13, 87936, Note_on_c, 9, 36, 127
13, 87996, Note_on_c, 9, 51, 0
13, 88044, Note_on_c, 9, 36, 0
13, 88128, Note_on_c, 9, 36, 127
13, 88128, Note_on_c, 9, 51, 57
13, 88181, Note_on_c, 9, 51, 0
13, 88237, Note_on_c, 9, 36, 0
13, 88320, Note_on_c, 9, 51, 96
13, 88320, Note_on_c, 9, 38, 127
13, 88387, Note_on_c, 9, 51, 0
13, 88439, Note_on_c, 9, 38, 0
13, 88512, Note_on_c, 9, 51, 57
13, 88512, Note_on_c, 9, 36, 103
13, 88547, Note_on_c, 9, 36, 0
13, 88553, Note_on_c, 9, 51, 0
13, 88704, Note_on_c, 9, 51, 79
13, 88704, Note_on_c, 9, 36, 127
13, 88704, Note_on_c, 9, 49, 57
13, 88755, Note_on_c, 9, 51, 0
13, 88770, Note_on_c, 9, 36, 0
13, 88896, Note_on_c, 9, 51, 57
13, 88962, Note_on_c, 9, 51, 0
13, 89088, Note_on_c, 9, 38, 127
13, 89088, Note_on_c, 9, 51, 96
13, 89155, Note_on_c, 9, 51, 0
13, 89270, Note_on_c, 9, 38, 0
13, 89280, Note_on_c, 9, 51, 57
13, 89333, Note_on_c, 9, 51, 0
13, 89376, Note_on_c, 9, 36, 94
13, 89415, Note_on_c, 9, 36, 0
13, 89472, Note_on_c, 9, 51, 79
13, 89472, Note_on_c, 9, 36, 127
13, 89532, Note_on_c, 9, 51, 0
13, 89580, Note_on_c, 9, 36, 0
13, 89584, Note_on_c, 9, 49, 0
13, 89664, Note_on_c, 9, 51, 57
13, 89664, Note_on_c, 9, 36, 127
13, 89717, Note_on_c, 9, 51, 0
13, 89773, Note_on_c, 9, 36, 0
13, 89856, Note_on_c, 9, 51, 96
13, 89856, Note_on_c, 9, 38, 127
13, 89923, Note_on_c, 9, 51, 0
13, 89975, Note_on_c, 9, 38, 0
13, 90048, Note_on_c, 9, 36, 103
13, 90048, Note_on_c, 9, 51, 57
13, 90083, Note_on_c, 9, 36, 0
13, 90089, Note_on_c, 9, 51, 0
13, 90240, Note_on_c, 9, 36, 127
13, 90240, Note_on_c, 9, 51, 79
13, 90291, Note_on_c, 9, 51, 0
13, 90306, Note_on_c, 9, 36, 0
13, 90432, Note_on_c, 9, 51, 57
13, 90498, Note_on_c, 9, 51, 0
13, 90624, Note_on_c, 9, 38, 127
13, 90624, Note_on_c, 9, 51, 96
13, 90691, Note_on_c, 9, 51, 0
13, 90806, Note_on_c, 9, 38, 0
13, 90816, Note_on_c, 9, 51, 57
13, 90869, Note_on_c, 9, 51, 0
13, 90912, Note_on_c, 9, 36, 94
13, 90951, Note_on_c, 9, 36, 0
13, 91008, Note_on_c, 9, 51, 79
13, 91008, Note_on_c, 9, 36, 127
13, 91068, Note_on_c, 9, 51, 0
13, 91116, Note_on_c, 9, 36, 0
13, 91200, Note_on_c, 9, 36, 127
13, 91200, Note_on_c, 9, 51, 57
13, 91253, Note_on_c, 9, 51, 0
13, 91309, Note_on_c, 9, 36, 0
13, 91392, Note_on_c, 9, 51, 96
13, 91392, Note_on_c, 9, 38, 127
13, 91459, Note_on_c, 9, 51, 0
13, 91511, Note_on_c, 9, 38, 0
13, 91584, Note_on_c, 9, 36, 103
13, 91584, Note_on_c, 9, 51, 57
13, 91619, Note_on_c, 9, 36, 0
13, 91625, Note_on_c, 9, 51, 0
13, 91776, Note_on_c, 9, 49, 53
13, 91776, Note_on_c, 9, 57, 53
13, 91776, Note_on_c, 9, 51, 79
13, 91776, Note_on_c, 9, 36, 127
13, 91827, Note_on_c, 9, 51, 0
13, 91840, Note_on_c, 9, 49, 0
13, 91842, Note_on_c, 9, 36, 0
13, 91864, Note_on_c, 9, 57, 0
13, 91968, Note_on_c, 9, 38, 122
13, 91968, Note_on_c, 9, 51, 57
13, 92034, Note_on_c, 9, 51, 0
13, 92049, Note_on_c, 9, 38, 0
13, 92160, Note_on_c, 9, 51, 96
13, 92160, Note_on_c, 9, 47, 117
13, 92216, Note_on_c, 9, 47, 0
13, 92227, Note_on_c, 9, 51, 0
13, 92256, Note_on_c, 9, 38, 117
13, 92325, Note_on_c, 9, 38, 0
13, 92352, Note_on_c, 9, 36, 127
13, 92352, Note_on_c, 9, 51, 57
13, 92405, Note_on_c, 9, 51, 0
13, 92458, Note_on_c, 9, 36, 0
13, 92544, Note_on_c, 9, 51, 79
13, 92544, Note_on_c, 9, 38, 127
13, 92604, Note_on_c, 9, 51, 0
13, 92631, Note_on_c, 9, 38, 0
13, 92736, Note_on_c, 9, 51, 57
13, 92736, Note_on_c, 9, 45, 117
13, 92789, Note_on_c, 9, 51, 0
13, 92791, Note_on_c, 9, 45, 0
13, 92832, Note_on_c, 9, 38, 127
13, 92899, Note_on_c, 9, 38, 0
13, 92928, Note_on_c, 9, 36, 127
13, 92928, Note_on_c, 9, 51, 96
13, 92995, Note_on_c, 9, 51, 0
13, 93027, Note_on_c, 9, 36, 0
13, 93120, Note_on_c, 9, 38, 127
13, 93120, Note_on_c, 9, 51, 57
13, 93161, Note_on_c, 9, 51, 0
13, 93185, Note_on_c, 9, 38, 0
13, 93216, Note_on_c, 9, 43, 91
13, 93262, Note_on_c, 9, 43, 0
13, 93312, Note_on_c, 9, 42, 36
13, 93312, Note_on_c, 9, 36, 127
13, 93312, Note_on_c, 9, 41, 108
13, 93344, Note_on_c, 9, 41, 0
13, 93380, Note_on_c, 9, 42, 0
13, 93386, Note_on_c, 9, 36, 0
13, 93504, Note_on_c, 9, 42, 28
13, 93504, Note_on_c, 9, 38, 127
13, 93559, Note_on_c, 9, 38, 0
13, 93578, Note_on_c, 9, 42, 0
13, 93696, Note_on_c, 9, 38, 127
13, 93696, Note_on_c, 9, 42, 89
13, 93732, Note_on_c, 9, 38, 0
13, 93759, Note_on_c, 9, 42, 0
13, 93792, Note_on_c, 9, 38, 127
13, 93849, Note_on_c, 9, 38, 0
13, 93888, Note_on_c, 9, 45, 88
13, 93888, Note_on_c, 9, 42, 28
13, 93953, Note_on_c, 9, 45, 0
13, 93969, Note_on_c, 9, 42, 0
13, 93984, Note_on_c, 9, 36, 127
13, 94040, Note_on_c, 9, 36, 0
13, 94080, Note_on_c, 9, 38, 127
13, 94080, Note_on_c, 9, 42, 36
13, 94139, Note_on_c, 9, 38, 0
13, 94147, Note_on_c, 9, 42, 0
13, 94272, Note_on_c, 9, 42, 28
13, 94272, Note_on_c, 9, 38, 127
13, 94328, Note_on_c, 9, 38, 0
13, 94343, Note_on_c, 9, 42, 0
13, 94464, Note_on_c, 9, 38, 122
13, 94464, Note_on_c, 9, 42, 91
13, 94501, Note_on_c, 9, 38, 0
13, 94535, Note_on_c, 9, 42, 0
13, 94560, Note_on_c, 9, 38, 122
13, 94607, Note_on_c, 9, 38, 0
13, 94656, Note_on_c, 9, 36, 127
13, 94656, Note_on_c, 9, 42, 28
13, 94656, Note_on_c, 9, 43, 127
13, 94714, Note_on_c, 9, 43, 0
13, 94715, Note_on_c, 9, 36, 0
13, 94723, Note_on_c, 9, 42, 0
13, 94848, Note_on_c, 9, 36, 127
13, 94848, Note_on_c, 9, 57, 55
13, 94848, Note_on_c, 9, 49, 55
13, 94848, Note_on_c, 9, 51, 79
13, 94899, Note_on_c, 9, 51, 0
13, 94914, Note_on_c, 9, 36, 0
13, 95007, Note_on_c, 9, 49, 0
13, 95014, Note_on_c, 9, 57, 0
13, 95040, Note_on_c, 9, 51, 57
13, 95106, Note_on_c, 9, 51, 0
13, 95232, Note_on_c, 9, 51, 96
13, 95232, Note_on_c, 9, 38, 127
13, 95299, Note_on_c, 9, 51, 0
13, 95414, Note_on_c, 9, 38, 0
13, 95424, Note_on_c, 9, 51, 57
13, 95477, Note_on_c, 9, 51, 0
13, 95520, Note_on_c, 9, 36, 94
13, 95559, Note_on_c, 9, 36, 0
13, 95616, Note_on_c, 9, 36, 127
13, 95616, Note_on_c, 9, 51, 79
13, 95676, Note_on_c, 9, 51, 0
13, 95724, Note_on_c, 9, 36, 0
13, 95808, Note_on_c, 9, 36, 127
13, 95808, Note_on_c, 9, 51, 57
13, 95861, Note_on_c, 9, 51, 0
13, 95917, Note_on_c, 9, 36, 0
13, 96000, Note_on_c, 9, 38, 127
13, 96000, Note_on_c, 9, 51, 96
13, 96067, Note_on_c, 9, 51, 0
13, 96119, Note_on_c, 9, 38, 0
13, 96192, Note_on_c, 9, 51, 57
13, 96192, Note_on_c, 9, 36, 103
13, 96227, Note_on_c, 9, 36, 0
13, 96233, Note_on_c, 9, 51, 0
13, 96384, Note_on_c, 9, 51, 79
13, 96384, Note_on_c, 9, 36, 127
13, 96435, Note_on_c, 9, 51, 0
13, 96450, Note_on_c, 9, 36, 0
13, 96576, Note_on_c, 9, 51, 57
13, 96642, Note_on_c, 9, 51, 0
13, 96768, Note_on_c, 9, 38, 127
13, 96768, Note_on_c, 9, 51, 96
13, 96835, Note_on_c, 9, 51, 0
13, 96950, Note_on_c, 9, 38, 0
13, 96960, Note_on_c, 9, 51, 57
13, 97013, Note_on_c, 9, 51, 0
13, 97056, Note_on_c, 9, 36, 94
13, 97095, Note_on_c, 9, 36, 0
13, 97152, Note_on_c, 9, 51, 79
13, 97152, Note_on_c, 9, 36, 127
13, 97212, Note_on_c, 9, 51, 0
13, 97260, Note_on_c, 9, 36, 0
13, 97344, Note_on_c, 9, 36, 127
13, 97344, Note_on_c, 9, 51, 57
13, 97397, Note_on_c, 9, 51, 0
13, 97453, Note_on_c, 9, 36, 0
13, 97536, Note_on_c, 9, 38, 127
13, 97536, Note_on_c, 9, 51, 96
13, 97603, Note_on_c, 9, 51, 0
13, 97655, Note_on_c, 9, 38, 0
13, 97728, Note_on_c, 9, 36, 103
13, 97728, Note_on_c, 9, 51, 57
13, 97763, Note_on_c, 9, 36, 0
13, 97769, Note_on_c, 9, 51, 0
13, 97920, Note_on_c, 9, 51, 79
13, 97920, Note_on_c, 9, 36, 127
13, 97920, Note_on_c, 9, 57, 57
13, 97971, Note_on_c, 9, 51, 0
13, 97986, Note_on_c, 9, 36, 0
13, 98112, Note_on_c, 9, 51, 57
13, 98178, Note_on_c, 9, 51, 0
13, 98304, Note_on_c, 9, 51, 96
13, 98304, Note_on_c, 9, 38, 127
13, 98371, Note_on_c, 9, 51, 0
13, 98486, Note_on_c, 9, 38, 0
13, 98496, Note_on_c, 9, 51, 57
13, 98549, Note_on_c, 9, 51, 0
13, 98592, Note_on_c, 9, 36, 94
13, 98631, Note_on_c, 9, 36, 0
13, 98688, Note_on_c, 9, 51, 79
13, 98688, Note_on_c, 9, 36, 127
13, 98748, Note_on_c, 9, 51, 0
13, 98796, Note_on_c, 9, 36, 0
13, 98880, Note_on_c, 9, 51, 57
13, 98880, Note_on_c, 9, 36, 127
13, 98933, Note_on_c, 9, 51, 0
13, 98989, Note_on_c, 9, 36, 0
13, 99072, Note_on_c, 9, 38, 127
13, 99072, Note_on_c, 9, 51, 96
13, 99099, Note_on_c, 9, 57, 0
13, 99139, Note_on_c, 9, 51, 0
13, 99191, Note_on_c, 9, 38, 0
13, 99264, Note_on_c, 9, 51, 57
13, 99264, Note_on_c, 9, 36, 103
13, 99299, Note_on_c, 9, 36, 0
13, 99305, Note_on_c, 9, 51, 0
13, 99456, Note_on_c, 9, 36, 127
13, 99456, Note_on_c, 9, 51, 79
13, 99507, Note_on_c, 9, 51, 0
13, 99522, Note_on_c, 9, 36, 0
13, 99648, Note_on_c, 9, 51, 57
13, 99714, Note_on_c, 9, 51, 0
13, 99840, Note_on_c, 9, 51, 96
13, 99840, Note_on_c, 9, 38, 127
13, 99907, Note_on_c, 9, 51, 0
13, 100022, Note_on_c, 9, 38, 0
13, 100032, Note_on_c, 9, 51, 57
13, 100085, Note_on_c, 9, 51, 0
13, 100128, Note_on_c, 9, 36, 94
13, 100167, Note_on_c, 9, 36, 0
13, 100224, Note_on_c, 9, 36, 127
13, 100224, Note_on_c, 9, 51, 79
13, 100284, Note_on_c, 9, 51, 0
13, 100332, Note_on_c, 9, 36, 0
13, 100416, Note_on_c, 9, 51, 57
13, 100416, Note_on_c, 9, 36, 127
13, 100469, Note_on_c, 9, 51, 0
13, 100525, Note_on_c, 9, 36, 0
13, 100608, Note_on_c, 9, 38, 127
13, 100608, Note_on_c, 9, 51, 96
13, 100675, Note_on_c, 9, 51, 0
13, 100727, Note_on_c, 9, 38, 0
13, 100800, Note_on_c, 9, 51, 57
13, 100800, Note_on_c, 9, 36, 103
13, 100835, Note_on_c, 9, 36, 0
13, 100841, Note_on_c, 9, 51, 0
13, 100992, Note_on_c, 9, 49, 57
13, 100992, Note_on_c, 9, 51, 79
13, 100992, Note_on_c, 9, 36, 127
13, 101043, Note_on_c, 9, 51, 0
13, 101058, Note_on_c, 9, 36, 0
13, 101184, Note_on_c, 9, 51, 57
13, 101250, Note_on_c, 9, 51, 0
13, 101376, Note_on_c, 9, 51, 96
13, 101376, Note_on_c, 9, 38, 127
13, 101443, Note_on_c, 9, 51, 0
13, 101558, Note_on_c, 9, 38, 0
13, 101568, Note_on_c, 9, 51, 57
13, 101621, Note_on_c, 9, 51, 0
13, 101664, Note_on_c, 9, 36, 94
13, 101703, Note_on_c, 9, 36, 0
13, 101760, Note_on_c, 9, 51, 79
13, 101760, Note_on_c, 9, 36, 127
13, 101820, Note_on_c, 9, 51, 0
13, 101868, Note_on_c, 9, 36, 0
13, 101872, Note_on_c, 9, 49, 0
13, 101952, Note_on_c, 9, 36, 127
13, 101952, Note_on_c, 9, 51, 57
13, 102005, Note_on_c, 9, 51, 0
13, 102061, Note_on_c, 9, 36, 0
13, 102144, Note_on_c, 9, 38, 127
13, 102144, Note_on_c, 9, 51, 96
13, 102211, Note_on_c, 9, 51, 0
13, 102263, Note_on_c, 9, 38, 0
13, 102336, Note_on_c, 9, 36, 103
13, 102336, Note_on_c, 9, 51, 57
13, 102371, Note_on_c, 9, 36, 0
13, 102377, Note_on_c, 9, 51, 0
13, 102528, Note_on_c, 9, 36, 127
13, 102528, Note_on_c, 9, 51, 79
13, 102579, Note_on_c, 9, 51, 0
13, 102594, Note_on_c, 9, 36, 0
13, 102720, Note_on_c, 9, 51, 57
13, 102786, Note_on_c, 9, 51, 0
13, 102912, Note_on_c, 9, 51, 96
13, 102912, Note_on_c, 9, 38, 127
13, 102979, Note_on_c, 9, 51, 0
13, 103094, Note_on_c, 9, 38, 0
13, 103104, Note_on_c, 9, 51, 57
13, 103157, Note_on_c, 9, 51, 0
13, 103200, Note_on_c, 9, 36, 94
13, 103239, Note_on_c, 9, 36, 0
13, 103296, Note_on_c, 9, 51, 79
13, 103296, Note_on_c, 9, 36, 127
13, 103356, Note_on_c, 9, 51, 0
13, 103404, Note_on_c, 9, 36, 0
13, 103488, Note_on_c, 9, 36, 127
13, 103488, Note_on_c, 9, 51, 57
13, 103541, Note_on_c, 9, 51, 0
13, 103597, Note_on_c, 9, 36, 0
13, 103680, Note_on_c, 9, 38, 127
13, 103680, Note_on_c, 9, 51, 96
13, 103747, Note_on_c, 9, 51, 0
13, 103799, Note_on_c, 9, 38, 0
13, 103872, Note_on_c, 9, 36, 103
13, 103872, Note_on_c, 9, 51, 57
13, 103907, Note_on_c, 9, 36, 0
13, 103913, Note_on_c, 9, 51, 0
13, 104064, Note_on_c, 9, 49, 53
13, 104064, Note_on_c, 9, 51, 79
13, 104064, Note_on_c, 9, 36, 127
13, 104064, Note_on_c, 9, 57, 53
13, 104115, Note_on_c, 9, 51, 0
13, 104128, Note_on_c, 9, 49, 0
13, 104130, Note_on_c, 9, 36, 0
13, 104152, Note_on_c, 9, 57, 0
13, 104256, Note_on_c, 9, 51, 57
13, 104322, Note_on_c, 9, 51, 0
13, 104448, Note_on_c, 9, 51, 96
13, 104448, Note_on_c, 9, 38, 127
13, 104515, Note_on_c, 9, 51, 0
13, 104630, Note_on_c, 9, 38, 0
13, 104640, Note_on_c, 9, 51, 57
13, 104693, Note_on_c, 9, 51, 0
13, 104736, Note_on_c, 9, 36, 94
13, 104775, Note_on_c, 9, 36, 0
13, 104832, Note_on_c, 9, 38, 127
13, 104832, Note_on_c, 9, 51, 79
13, 104892, Note_on_c, 9, 51, 0
13, 104928, Note_on_c, 9, 36, 127
13, 105014, Note_on_c, 9, 38, 0
13, 105024, Note_on_c, 9, 51, 57
13, 105036, Note_on_c, 9, 36, 0
13, 105077, Note_on_c, 9, 51, 0
13, 105120, Note_on_c, 9, 36, 103
13, 105216, Note_on_c, 9, 51, 96
13, 105216, Note_on_c, 9, 38, 127
13, 105229, Note_on_c, 9, 36, 0
13, 105283, Note_on_c, 9, 51, 0
13, 105312, Note_on_c, 9, 45, 122
13, 105335, Note_on_c, 9, 38, 0
13, 105375, Note_on_c, 9, 45, 0
13, 105408, Note_on_c, 9, 51, 57
13, 105408, Note_on_c, 9, 41, 117
13, 105448, Note_on_c, 9, 41, 0
13, 105449, Note_on_c, 9, 51, 0
13, 105504, Note_on_c, 9, 36, 108
13, 105570, Note_on_c, 9, 36, 0
13, 105588, Note_on_c, 9, 38, 99
13, 105600, Note_on_c, 9, 38, 127
13, 105707, Note_on_c, 9, 38, 0
13, 105719, Note_on_c, 9, 38, 0
13, 105984, Note_on_c, 9, 59, 86
13, 106368, Note_on_c, 9, 51, 86
13, 106384, Note_on_c, 9, 59, 0
13, 106740, Note_on_c, 9, 51, 0
13, 106747, Note_on_c, 9, 59, 86
13, 106916, Note_on_c, 9, 59, 0
13, 106992, Note_on_c, 9, 51, 34
13, 107016, Note_on_c, 9, 51, 0
13, 107016, Note_on_c, 9, 59, 38
13, 107040, Note_on_c, 9, 59, 0
13, 107040, Note_on_c, 9, 51, 42
13, 107064, Note_on_c, 9, 51, 0
13, 107064, Note_on_c, 9, 59, 46
13, 107088, Note_on_c, 9, 59, 0
13, 107088, Note_on_c, 9, 51, 50
13, 107112, Note_on_c, 9, 51, 0
13, 107112, Note_on_c, 9, 59, 54
13, 107134, Note_on_c, 9, 51, 118
13, 107136, Note_on_c, 9, 59, 0
13, 107136, Note_on_c, 9, 49, 33
13, 107136, Note_on_c, 9, 57, 33
13, 107136, Note_on_c, 9, 36, 58
13, 107177, Note_on_c, 9, 51, 0
13, 107181, Note_on_c, 9, 49, 0
13, 107192, Note_on_c, 9, 57, 0
13, 107197, Note_on_c, 9, 36, 0
13, 111012, Control_c, 9, 121, 127
13, 111012, End_track
0, 0, End_of_file
