0, 0, Header, 1, 28, 120
1, 0, Start_track
1, 0, Title_t, "untitled"
1, 0, Text_t, "\012"
1, 0, SMPTE_offset, 96, 0, 3, 0, 0
1, 0, Time_signature, 4, 2, 24, 8
1, 0, Key_signature, 0, "major"
1, 0, Tempo, 705882
1, 480, Tempo, 937500
1, 960, Tempo, 705882
1, 960, End_track
2, 0, Start_track
2, 0, MIDI_port, 0
2, 0, Title_t, "DeepBass"
2, 0, Control_c, 0, 0, 56
2, 0, Control_c, 0, 32, 0
2, 0, Program_c, 0, 33
2, 0, Control_c, 0, 7, 100
2, 0, Control_c, 0, 10, 64
2, 0, Control_c, 0, 93, 84
2, 660, Control_c, 0, 7, 127
2, 660, Control_c, 0, 10, 64
2, 960, Note_on_c, 0, 38, 52
2, 990, Note_on_c, 0, 38, 0
2, 1050, Note_on_c, 0, 38, 52
2, 1068, Note_on_c, 0, 38, 0
2, 1080, Note_on_c, 0, 38, 52
2, 1111, Note_on_c, 0, 38, 0
2, 1170, Note_on_c, 0, 38, 52
2, 1170, Note_on_c, 0, 36, 52
2, 1173, Note_on_c, 0, 36, 0
2, 1199, Note_on_c, 0, 38, 0
2, 1200, Note_on_c, 0, 43, 52
2, 1244, Note_on_c, 0, 43, 0
2, 1290, Note_on_c, 0, 43, 52
2, 1305, Note_on_c, 0, 43, 0
2, 1320, Note_on_c, 0, 43, 52
2, 1359, Note_on_c, 0, 43, 0
2, 1410, Control_c, 0, 10, 66
2, 1410, Note_on_c, 0, 43, 52
2, 1434, Note_on_c, 0, 43, 0
2, 1440, Note_on_c, 0, 45, 52
2, 1445, Control_c, 0, 10, 63
2, 1450, Control_c, 0, 10, 60
2, 1456, Control_c, 0, 10, 57
2, 1471, Control_c, 0, 10, 54
2, 1474, Note_on_c, 0, 45, 0
2, 1515, Control_c, 0, 10, 52
2, 1524, Control_c, 0, 10, 49
2, 1530, Note_on_c, 0, 45, 52
2, 1546, Note_on_c, 0, 45, 0
2, 1560, Note_on_c, 0, 45, 52
2, 1580, Control_c, 0, 10, 52
2, 1596, Note_on_c, 0, 45, 0
2, 1650, Note_on_c, 0, 45, 52
2, 1671, Note_on_c, 0, 45, 0
2, 1680, Note_on_c, 0, 47, 52
2, 1715, Note_on_c, 0, 47, 0
2, 1770, Note_on_c, 0, 47, 52
2, 1785, Note_on_c, 0, 47, 0
2, 1800, Note_on_c, 0, 47, 52
2, 1840, Note_on_c, 0, 47, 0
2, 1890, Note_on_c, 0, 47, 52
2, 1911, Note_on_c, 0, 47, 0
2, 1920, Note_on_c, 0, 50, 52
2, 1965, Note_on_c, 0, 50, 0
2, 2010, Note_on_c, 0, 50, 52
2, 2024, Note_on_c, 0, 50, 0
2, 2040, Note_on_c, 0, 50, 52
2, 2079, Note_on_c, 0, 50, 0
2, 2130, Note_on_c, 0, 50, 52
2, 2160, Note_on_c, 0, 50, 0
2, 2160, Note_on_c, 0, 43, 52
2, 2195, Note_on_c, 0, 43, 0
2, 2250, Note_on_c, 0, 43, 52
2, 2266, Note_on_c, 0, 43, 0
2, 2280, Note_on_c, 0, 43, 52
2, 2312, Note_on_c, 0, 43, 0
2, 2370, Note_on_c, 0, 43, 52
2, 2394, Note_on_c, 0, 43, 0
2, 2400, Note_on_c, 0, 41, 52
2, 2519, Note_on_c, 0, 41, 0
2, 2520, Note_on_c, 0, 40, 52
2, 2610, Note_on_c, 0, 38, 52
2, 2613, Note_on_c, 0, 40, 0
2, 2651, Note_on_c, 0, 38, 0
2, 2730, Note_on_c, 0, 45, 52
2, 2760, Note_on_c, 0, 45, 52
2, 2787, Note_on_c, 0, 45, 0
2, 2790, Note_on_c, 0, 47, 52
2, 2812, Note_on_c, 0, 47, 0
2, 2820, Note_on_c, 0, 50, 52
2, 2844, Note_on_c, 0, 50, 0
2, 2849, Note_on_c, 0, 45, 0
2, 2850, Note_on_c, 0, 47, 52
2, 2878, Note_on_c, 0, 47, 0
2, 2880, Note_on_c, 0, 50, 52
2, 2880, Note_on_c, 0, 38, 52
2, 2912, Note_on_c, 0, 38, 0
2, 2970, Note_on_c, 0, 38, 52
2, 2988, Note_on_c, 0, 38, 0
2, 2998, Note_on_c, 0, 50, 0
2, 3000, Note_on_c, 0, 38, 52
2, 3030, Note_on_c, 0, 38, 0
2, 3090, Note_on_c, 0, 38, 52
2, 3103, Control_c, 0, 7, 126
2, 3110, Control_c, 0, 7, 124
2, 3112, Control_c, 0, 7, 123
2, 3119, Note_on_c, 0, 38, 0
2, 3120, Note_on_c, 0, 43, 52
2, 3162, Note_on_c, 0, 43, 0
2, 3185, Control_c, 0, 7, 122
2, 3210, Note_on_c, 0, 43, 52
2, 3227, Note_on_c, 0, 43, 0
2, 3240, Note_on_c, 0, 43, 52
2, 3281, Note_on_c, 0, 43, 0
2, 3330, Note_on_c, 0, 43, 52
2, 3357, Note_on_c, 0, 43, 0
2, 3360, Note_on_c, 0, 45, 52
2, 3399, Note_on_c, 0, 45, 0
2, 3450, Note_on_c, 0, 45, 52
2, 3467, Note_on_c, 0, 45, 0
2, 3480, Note_on_c, 0, 45, 52
2, 3521, Note_on_c, 0, 45, 0
2, 3570, Note_on_c, 0, 45, 52
2, 3595, Note_on_c, 0, 45, 0
2, 3600, Note_on_c, 0, 47, 52
2, 3644, Note_on_c, 0, 47, 0
2, 3690, Note_on_c, 0, 47, 52
2, 3710, Note_on_c, 0, 47, 0
2, 3720, Note_on_c, 0, 47, 52
2, 3758, Note_on_c, 0, 47, 0
2, 3810, Note_on_c, 0, 47, 52
2, 3836, Note_on_c, 0, 47, 0
2, 3840, Note_on_c, 0, 50, 52
2, 3883, Note_on_c, 0, 50, 0
2, 3930, Note_on_c, 0, 50, 52
2, 3946, Note_on_c, 0, 50, 0
2, 3960, Note_on_c, 0, 50, 52
2, 4000, Note_on_c, 0, 50, 0
2, 4050, Note_on_c, 0, 50, 52
2, 4078, Note_on_c, 0, 50, 0
2, 4080, Note_on_c, 0, 43, 52
2, 4134, Note_on_c, 0, 43, 0
2, 4170, Note_on_c, 0, 43, 52
2, 4190, Note_on_c, 0, 43, 0
2, 4200, Note_on_c, 0, 43, 52
2, 4240, Note_on_c, 0, 43, 0
2, 4290, Note_on_c, 0, 43, 52
2, 4315, Note_on_c, 0, 43, 0
2, 4320, Note_on_c, 0, 41, 52
2, 4440, Note_on_c, 0, 40, 52
2, 4452, Note_on_c, 0, 41, 0
2, 4530, Note_on_c, 0, 40, 0
2, 4530, Note_on_c, 0, 38, 52
2, 4577, Note_on_c, 0, 38, 0
2, 4650, Note_on_c, 0, 45, 52
2, 4680, Note_on_c, 0, 45, 52
2, 4707, Note_on_c, 0, 45, 0
2, 4710, Note_on_c, 0, 47, 52
2, 4732, Note_on_c, 0, 47, 0
2, 4740, Note_on_c, 0, 50, 52
2, 4764, Note_on_c, 0, 50, 0
2, 4769, Note_on_c, 0, 45, 0
2, 4770, Note_on_c, 0, 47, 52
2, 4798, Note_on_c, 0, 47, 0
2, 4800, Note_on_c, 0, 50, 52
2, 4800, Note_on_c, 0, 38, 52
2, 4830, Note_on_c, 0, 38, 0
2, 4890, Note_on_c, 0, 38, 52
2, 4908, Note_on_c, 0, 38, 0
2, 4918, Note_on_c, 0, 50, 0
2, 4920, Note_on_c, 0, 38, 52
2, 4951, Note_on_c, 0, 38, 0
2, 5010, Note_on_c, 0, 38, 52
2, 5010, Note_on_c, 0, 36, 52
2, 5013, Note_on_c, 0, 36, 0
2, 5039, Note_on_c, 0, 38, 0
2, 5040, Note_on_c, 0, 43, 52
2, 5084, Note_on_c, 0, 43, 0
2, 5130, Note_on_c, 0, 43, 52
2, 5145, Note_on_c, 0, 43, 0
2, 5160, Note_on_c, 0, 43, 52
2, 5199, Note_on_c, 0, 43, 0
2, 5250, Note_on_c, 0, 43, 52
2, 5274, Note_on_c, 0, 43, 0
2, 5280, Note_on_c, 0, 45, 52
2, 5314, Note_on_c, 0, 45, 0
2, 5370, Note_on_c, 0, 45, 52
2, 5386, Note_on_c, 0, 45, 0
2, 5400, Note_on_c, 0, 45, 52
2, 5436, Note_on_c, 0, 45, 0
2, 5490, Note_on_c, 0, 45, 52
2, 5511, Note_on_c, 0, 45, 0
2, 5520, Note_on_c, 0, 47, 52
2, 5555, Note_on_c, 0, 47, 0
2, 5610, Note_on_c, 0, 47, 52
2, 5625, Note_on_c, 0, 47, 0
2, 5640, Note_on_c, 0, 47, 52
2, 5680, Note_on_c, 0, 47, 0
2, 5730, Note_on_c, 0, 47, 52
2, 5751, Note_on_c, 0, 47, 0
2, 5760, Note_on_c, 0, 50, 52
2, 5805, Note_on_c, 0, 50, 0
2, 5850, Note_on_c, 0, 50, 52
2, 5864, Note_on_c, 0, 50, 0
2, 5880, Note_on_c, 0, 50, 52
2, 5919, Note_on_c, 0, 50, 0
2, 5970, Note_on_c, 0, 50, 52
2, 6000, Note_on_c, 0, 50, 0
2, 6000, Note_on_c, 0, 43, 52
2, 6035, Note_on_c, 0, 43, 0
2, 6090, Note_on_c, 0, 43, 52
2, 6106, Note_on_c, 0, 43, 0
2, 6120, Note_on_c, 0, 43, 52
2, 6152, Note_on_c, 0, 43, 0
2, 6210, Note_on_c, 0, 43, 52
2, 6234, Note_on_c, 0, 43, 0
2, 6240, Control_c, 0, 10, 66
2, 6240, Note_on_c, 0, 41, 52
2, 6245, Control_c, 0, 10, 67
2, 6258, Control_c, 0, 10, 68
2, 6263, Control_c, 0, 10, 73
2, 6268, Control_c, 0, 10, 75
2, 6273, Control_c, 0, 10, 84
2, 6288, Control_c, 0, 10, 88
2, 6305, Control_c, 0, 10, 95
2, 6305, Control_c, 0, 10, 93
2, 6359, Note_on_c, 0, 41, 0
2, 6360, Note_on_c, 0, 40, 52
2, 6437, Control_c, 0, 10, 91
2, 6450, Note_on_c, 0, 38, 52
2, 6453, Note_on_c, 0, 40, 0
2, 6467, Control_c, 0, 10, 87
2, 6477, Control_c, 0, 10, 81
2, 6480, Control_c, 0, 10, 78
2, 6485, Control_c, 0, 10, 72
2, 6491, Note_on_c, 0, 38, 0
2, 6491, Control_c, 0, 10, 67
2, 6503, Control_c, 0, 10, 63
2, 6508, Control_c, 0, 10, 59
2, 6525, Control_c, 0, 10, 54
2, 6529, Control_c, 0, 10, 51
2, 6545, Control_c, 0, 10, 47
2, 6570, Note_on_c, 0, 45, 52
2, 6600, Note_on_c, 0, 45, 52
2, 6627, Note_on_c, 0, 45, 0
2, 6630, Control_c, 0, 10, 51
2, 6630, Note_on_c, 0, 47, 52
2, 6635, Control_c, 0, 10, 54
2, 6645, Control_c, 0, 10, 59
2, 6652, Note_on_c, 0, 47, 0
2, 6658, Control_c, 0, 10, 63
2, 6660, Note_on_c, 0, 50, 52
2, 6684, Note_on_c, 0, 50, 0
2, 6689, Note_on_c, 0, 45, 0
2, 6690, Note_on_c, 0, 47, 52
2, 6718, Note_on_c, 0, 47, 0
2, 6720, Note_on_c, 0, 50, 52
2, 6720, Note_on_c, 0, 38, 52
2, 6725, Control_c, 0, 10, 59
2, 6752, Note_on_c, 0, 38, 0
2, 6810, Note_on_c, 0, 38, 52
2, 6828, Note_on_c, 0, 38, 0
2, 6838, Note_on_c, 0, 50, 0
2, 6840, Note_on_c, 0, 38, 52
2, 6870, Note_on_c, 0, 38, 0
2, 6930, Note_on_c, 0, 38, 52
2, 6959, Note_on_c, 0, 38, 0
2, 6960, Note_on_c, 0, 43, 52
2, 7002, Note_on_c, 0, 43, 0
2, 7050, Note_on_c, 0, 43, 52
2, 7067, Note_on_c, 0, 43, 0
2, 7080, Note_on_c, 0, 43, 52
2, 7121, Note_on_c, 0, 43, 0
2, 7170, Note_on_c, 0, 43, 52
2, 7197, Note_on_c, 0, 43, 0
2, 7200, Note_on_c, 0, 45, 52
2, 7239, Note_on_c, 0, 45, 0
2, 7290, Note_on_c, 0, 45, 52
2, 7307, Note_on_c, 0, 45, 0
2, 7320, Note_on_c, 0, 45, 52
2, 7361, Note_on_c, 0, 45, 0
2, 7410, Note_on_c, 0, 45, 52
2, 7435, Note_on_c, 0, 45, 0
2, 7440, Note_on_c, 0, 47, 52
2, 7484, Note_on_c, 0, 47, 0
2, 7530, Note_on_c, 0, 47, 52
2, 7550, Note_on_c, 0, 47, 0
2, 7560, Note_on_c, 0, 47, 52
2, 7598, Note_on_c, 0, 47, 0
2, 7650, Note_on_c, 0, 47, 52
2, 7676, Note_on_c, 0, 47, 0
2, 7680, Note_on_c, 0, 50, 52
2, 7723, Note_on_c, 0, 50, 0
2, 7770, Note_on_c, 0, 50, 52
2, 7786, Note_on_c, 0, 50, 0
2, 7800, Note_on_c, 0, 50, 52
2, 7840, Note_on_c, 0, 50, 0
2, 7890, Note_on_c, 0, 50, 52
2, 7918, Note_on_c, 0, 50, 0
2, 7920, Note_on_c, 0, 43, 52
2, 7974, Note_on_c, 0, 43, 0
2, 8010, Note_on_c, 0, 43, 52
2, 8030, Note_on_c, 0, 43, 0
2, 8040, Note_on_c, 0, 43, 52
2, 8080, Note_on_c, 0, 43, 0
2, 8130, Note_on_c, 0, 43, 52
2, 8155, Note_on_c, 0, 43, 0
2, 8160, Note_on_c, 0, 41, 52
2, 8280, Note_on_c, 0, 40, 52
2, 8292, Note_on_c, 0, 41, 0
2, 8370, Note_on_c, 0, 40, 0
2, 8370, Note_on_c, 0, 38, 52
2, 8417, Note_on_c, 0, 38, 0
2, 8490, Note_on_c, 0, 45, 52
2, 8520, Note_on_c, 0, 45, 52
2, 8547, Note_on_c, 0, 45, 0
2, 8550, Note_on_c, 0, 47, 52
2, 8572, Note_on_c, 0, 47, 0
2, 8580, Note_on_c, 0, 50, 52
2, 8604, Note_on_c, 0, 50, 0
2, 8609, Note_on_c, 0, 45, 0
2, 8610, Note_on_c, 0, 47, 52
2, 8638, Note_on_c, 0, 47, 0
2, 8640, Note_on_c, 0, 50, 52
2, 8640, Note_on_c, 0, 38, 52
2, 8670, Note_on_c, 0, 38, 0
2, 8730, Note_on_c, 0, 38, 52
2, 8748, Note_on_c, 0, 38, 0
2, 8758, Note_on_c, 0, 50, 0
2, 8760, Note_on_c, 0, 38, 52
2, 8791, Note_on_c, 0, 38, 0
2, 8850, Note_on_c, 0, 38, 52
2, 8850, Note_on_c, 0, 36, 52
2, 8853, Note_on_c, 0, 36, 0
2, 8879, Note_on_c, 0, 38, 0
2, 8880, Note_on_c, 0, 43, 52
2, 8924, Note_on_c, 0, 43, 0
2, 8970, Note_on_c, 0, 43, 52
2, 8985, Note_on_c, 0, 43, 0
2, 9000, Note_on_c, 0, 43, 52
2, 9039, Note_on_c, 0, 43, 0
2, 9090, Note_on_c, 0, 43, 52
2, 9114, Note_on_c, 0, 43, 0
2, 9120, Note_on_c, 0, 45, 52
2, 9154, Note_on_c, 0, 45, 0
2, 9210, Note_on_c, 0, 45, 52
2, 9226, Note_on_c, 0, 45, 0
2, 9240, Note_on_c, 0, 45, 52
2, 9276, Note_on_c, 0, 45, 0
2, 9330, Note_on_c, 0, 45, 52
2, 9351, Note_on_c, 0, 45, 0
2, 9360, Note_on_c, 0, 47, 52
2, 9395, Note_on_c, 0, 47, 0
2, 9450, Note_on_c, 0, 47, 52
2, 9465, Note_on_c, 0, 47, 0
2, 9480, Note_on_c, 0, 47, 52
2, 9520, Note_on_c, 0, 47, 0
2, 9570, Note_on_c, 0, 47, 52
2, 9591, Note_on_c, 0, 47, 0
2, 9600, Note_on_c, 0, 50, 52
2, 9645, Note_on_c, 0, 50, 0
2, 9690, Note_on_c, 0, 50, 52
2, 9704, Note_on_c, 0, 50, 0
2, 9720, Note_on_c, 0, 50, 52
2, 9759, Note_on_c, 0, 50, 0
2, 9810, Note_on_c, 0, 50, 52
2, 9840, Note_on_c, 0, 50, 0
2, 9840, Note_on_c, 0, 43, 52
2, 9875, Note_on_c, 0, 43, 0
2, 9930, Note_on_c, 0, 43, 52
2, 9946, Note_on_c, 0, 43, 0
2, 9960, Note_on_c, 0, 43, 52
2, 9992, Note_on_c, 0, 43, 0
2, 10050, Note_on_c, 0, 43, 52
2, 10074, Note_on_c, 0, 43, 0
2, 10080, Note_on_c, 0, 41, 52
2, 10199, Note_on_c, 0, 41, 0
2, 10200, Note_on_c, 0, 40, 52
2, 10290, Note_on_c, 0, 38, 52
2, 10293, Note_on_c, 0, 40, 0
2, 10331, Note_on_c, 0, 38, 0
2, 10410, Note_on_c, 0, 45, 52
2, 10410, Note_on_c, 0, 45, 52
2, 10440, Note_on_c, 0, 45, 52
2, 10440, Note_on_c, 0, 45, 52
2, 10467, Note_on_c, 0, 45, 0
2, 10467, Note_on_c, 0, 45, 0
2, 10470, Note_on_c, 0, 47, 52
2, 10470, Note_on_c, 0, 47, 52
2, 10492, Note_on_c, 0, 47, 0
2, 10492, Note_on_c, 0, 47, 0
2, 10500, Note_on_c, 0, 50, 52
2, 10500, Note_on_c, 0, 50, 52
2, 10524, Note_on_c, 0, 50, 0
2, 10524, Note_on_c, 0, 50, 0
2, 10529, Note_on_c, 0, 45, 0
2, 10529, Note_on_c, 0, 45, 0
2, 10530, Note_on_c, 0, 47, 52
2, 10530, Note_on_c, 0, 47, 52
2, 10558, Note_on_c, 0, 47, 0
2, 10558, Note_on_c, 0, 47, 0
2, 10560, Note_on_c, 0, 50, 52
2, 10560, Note_on_c, 0, 38, 52
2, 10561, Note_on_c, 0, 50, 52
2, 10592, Note_on_c, 0, 38, 0
2, 10650, Note_on_c, 0, 38, 52
2, 10668, Note_on_c, 0, 38, 0
2, 10678, Note_on_c, 0, 50, 0
2, 10679, Note_on_c, 0, 50, 0
2, 10680, Note_on_c, 0, 38, 52
2, 10710, Note_on_c, 0, 38, 0
2, 10770, Note_on_c, 0, 38, 52
2, 10799, Note_on_c, 0, 38, 0
2, 10800, Note_on_c, 0, 43, 52
2, 10842, Note_on_c, 0, 43, 0
2, 10890, Note_on_c, 0, 43, 52
2, 10907, Note_on_c, 0, 43, 0
2, 10920, Note_on_c, 0, 43, 52
2, 10961, Note_on_c, 0, 43, 0
2, 11010, Note_on_c, 0, 43, 52
2, 11037, Note_on_c, 0, 43, 0
2, 11040, Note_on_c, 0, 45, 52
2, 11079, Note_on_c, 0, 45, 0
2, 11130, Note_on_c, 0, 45, 52
2, 11147, Note_on_c, 0, 45, 0
2, 11160, Note_on_c, 0, 45, 52
2, 11201, Note_on_c, 0, 45, 0
2, 11250, Note_on_c, 0, 45, 52
2, 11275, Note_on_c, 0, 45, 0
2, 11280, Note_on_c, 0, 47, 52
2, 11324, Note_on_c, 0, 47, 0
2, 11370, Note_on_c, 0, 47, 52
2, 11390, Note_on_c, 0, 47, 0
2, 11400, Note_on_c, 0, 47, 52
2, 11438, Note_on_c, 0, 47, 0
2, 11490, Note_on_c, 0, 47, 52
2, 11516, Note_on_c, 0, 47, 0
2, 11520, Note_on_c, 0, 50, 52
2, 11563, Note_on_c, 0, 50, 0
2, 11610, Note_on_c, 0, 50, 52
2, 11626, Note_on_c, 0, 50, 0
2, 11640, Note_on_c, 0, 50, 52
2, 11680, Note_on_c, 0, 50, 0
2, 11730, Note_on_c, 0, 50, 52
2, 11758, Note_on_c, 0, 50, 0
2, 11760, Note_on_c, 0, 43, 52
2, 11814, Note_on_c, 0, 43, 0
2, 11850, Note_on_c, 0, 43, 52
2, 11870, Note_on_c, 0, 43, 0
2, 11880, Note_on_c, 0, 43, 52
2, 11920, Note_on_c, 0, 43, 0
2, 11970, Note_on_c, 0, 43, 52
2, 11995, Note_on_c, 0, 43, 0
2, 12000, Note_on_c, 0, 41, 52
2, 12120, Note_on_c, 0, 40, 52
2, 12132, Note_on_c, 0, 41, 0
2, 12200, Control_c, 0, 93, 77
2, 12210, Note_on_c, 0, 40, 0
2, 12210, Control_c, 0, 93, 80
2, 12210, Note_on_c, 0, 38, 52
2, 12222, Control_c, 0, 93, 87
2, 12222, Control_c, 0, 93, 84
2, 12257, Note_on_c, 0, 38, 0
2, 12330, Note_on_c, 0, 45, 52
2, 12330, Note_on_c, 0, 45, 52
2, 12360, Note_on_c, 0, 45, 52
2, 12360, Note_on_c, 0, 45, 52
2, 12387, Note_on_c, 0, 45, 0
2, 12387, Note_on_c, 0, 45, 0
2, 12390, Note_on_c, 0, 47, 52
2, 12390, Note_on_c, 0, 47, 52
2, 12412, Note_on_c, 0, 47, 0
2, 12412, Note_on_c, 0, 47, 0
2, 12420, Note_on_c, 0, 50, 52
2, 12420, Note_on_c, 0, 50, 52
2, 12444, Note_on_c, 0, 50, 0
2, 12444, Note_on_c, 0, 50, 0
2, 12449, Note_on_c, 0, 45, 0
2, 12449, Note_on_c, 0, 45, 0
2, 12450, Note_on_c, 0, 47, 52
2, 12450, Note_on_c, 0, 47, 52
2, 12478, Note_on_c, 0, 47, 0
2, 12478, Note_on_c, 0, 47, 0
2, 12480, Note_on_c, 0, 42, 52
2, 12543, Note_on_c, 0, 42, 0
2, 12561, Control_c, 0, 93, 84
2, 12570, Note_on_c, 0, 42, 52
2, 12583, Note_on_c, 0, 42, 0
2, 12600, Note_on_c, 0, 42, 52
2, 12656, Note_on_c, 0, 42, 0
2, 12690, Note_on_c, 0, 42, 52
2, 12717, Note_on_c, 0, 42, 0
2, 12720, Note_on_c, 0, 47, 52
2, 12781, Note_on_c, 0, 47, 0
2, 12810, Note_on_c, 0, 47, 52
2, 12826, Note_on_c, 0, 47, 0
2, 12840, Note_on_c, 0, 47, 52
2, 12891, Note_on_c, 0, 47, 0
2, 12930, Note_on_c, 0, 47, 52
2, 12954, Note_on_c, 0, 47, 0
2, 12960, Note_on_c, 0, 49, 52
2, 13009, Note_on_c, 0, 49, 0
2, 13050, Note_on_c, 0, 49, 52
2, 13064, Note_on_c, 0, 49, 0
2, 13080, Note_on_c, 0, 49, 52
2, 13125, Note_on_c, 0, 49, 0
2, 13170, Note_on_c, 0, 49, 52
2, 13191, Note_on_c, 0, 49, 0
2, 13200, Note_on_c, 0, 44, 52
2, 13261, Note_on_c, 0, 44, 0
2, 13290, Note_on_c, 0, 44, 52
2, 13308, Note_on_c, 0, 44, 0
2, 13320, Note_on_c, 0, 44, 52
2, 13372, Note_on_c, 0, 44, 0
2, 13410, Note_on_c, 0, 44, 52
2, 13440, Note_on_c, 0, 42, 52
2, 13449, Note_on_c, 0, 44, 0
2, 13502, Note_on_c, 0, 42, 0
2, 13530, Note_on_c, 0, 42, 52
2, 13546, Note_on_c, 0, 42, 0
2, 13560, Note_on_c, 0, 42, 52
2, 13590, Control_c, 0, 93, 87
2, 13619, Note_on_c, 0, 42, 0
2, 13619, Control_c, 0, 93, 89
2, 13635, Control_c, 0, 93, 91
2, 13650, Note_on_c, 0, 42, 52
2, 13678, Note_on_c, 0, 42, 0
2, 13680, Note_on_c, 0, 44, 52
2, 13750, Note_on_c, 0, 44, 0
2, 13750, Control_c, 0, 93, 92
2, 13755, Control_c, 0, 93, 94
2, 13770, Note_on_c, 0, 44, 52
2, 13785, Note_on_c, 0, 44, 0
2, 13800, Note_on_c, 0, 44, 52
2, 13855, Note_on_c, 0, 44, 0
2, 13890, Note_on_c, 0, 44, 52
2, 13918, Note_on_c, 0, 44, 0
2, 13920, Note_on_c, 0, 49, 52
2, 13932, Note_on_c, 0, 49, 0
2, 13950, Note_on_c, 0, 49, 52
2, 13984, Note_on_c, 0, 49, 0
2, 14010, Note_on_c, 0, 44, 52
2, 14035, Note_on_c, 0, 44, 0
2, 14040, Note_on_c, 0, 49, 52
2, 14057, Note_on_c, 0, 49, 0
2, 14070, Note_on_c, 0, 49, 52
2, 14101, Note_on_c, 0, 49, 0
2, 14130, Note_on_c, 0, 44, 52
2, 14158, Note_on_c, 0, 44, 0
2, 14160, Note_on_c, 0, 49, 52
2, 14177, Note_on_c, 0, 49, 0
2, 14190, Note_on_c, 0, 49, 52
2, 14229, Note_on_c, 0, 49, 0
2, 14250, Note_on_c, 0, 44, 52
2, 14280, Note_on_c, 0, 49, 52
2, 14281, Note_on_c, 0, 44, 0
2, 14296, Note_on_c, 0, 49, 0
2, 14310, Note_on_c, 0, 49, 52
2, 14336, Note_on_c, 0, 49, 0
2, 14370, Note_on_c, 0, 44, 52
2, 14396, Note_on_c, 0, 44, 0
2, 14400, Note_on_c, 0, 42, 52
2, 14459, Note_on_c, 0, 42, 0
2, 14490, Note_on_c, 0, 42, 52
2, 14503, Note_on_c, 0, 42, 0
2, 14520, Note_on_c, 0, 42, 52
2, 14574, Note_on_c, 0, 42, 0
2, 14610, Note_on_c, 0, 49, 52
2, 14633, Note_on_c, 0, 49, 0
2, 14640, Note_on_c, 0, 47, 52
2, 14689, Note_on_c, 0, 47, 0
2, 14730, Note_on_c, 0, 47, 52
2, 14743, Note_on_c, 0, 47, 0
2, 14760, Note_on_c, 0, 47, 52
2, 14820, Note_on_c, 0, 47, 0
2, 14850, Note_on_c, 0, 47, 52
2, 14880, Note_on_c, 0, 47, 0
2, 14880, Note_on_c, 0, 49, 52
2, 14937, Note_on_c, 0, 49, 0
2, 14970, Note_on_c, 0, 49, 52
2, 14986, Note_on_c, 0, 49, 0
2, 15000, Note_on_c, 0, 49, 52
2, 15054, Note_on_c, 0, 49, 0
2, 15090, Note_on_c, 0, 49, 52
2, 15113, Note_on_c, 0, 49, 0
2, 15120, Note_on_c, 0, 44, 52
2, 15184, Note_on_c, 0, 44, 0
2, 15210, Note_on_c, 0, 44, 52
2, 15227, Note_on_c, 0, 44, 0
2, 15240, Note_on_c, 0, 44, 52
2, 15303, Note_on_c, 0, 44, 0
2, 15330, Note_on_c, 0, 44, 52
2, 15354, Note_on_c, 0, 44, 0
2, 15360, Note_on_c, 0, 42, 52
2, 15417, Note_on_c, 0, 42, 0
2, 15450, Note_on_c, 0, 42, 52
2, 15464, Note_on_c, 0, 42, 0
2, 15480, Note_on_c, 0, 42, 52
2, 15536, Note_on_c, 0, 42, 0
2, 15570, Note_on_c, 0, 42, 52
2, 15594, Note_on_c, 0, 42, 0
2, 15600, Note_on_c, 0, 44, 52
2, 15672, Note_on_c, 0, 44, 0
2, 15690, Note_on_c, 0, 44, 52
2, 15706, Note_on_c, 0, 44, 0
2, 15720, Note_on_c, 0, 44, 52
2, 15778, Note_on_c, 0, 44, 0
2, 15810, Note_on_c, 0, 44, 52
2, 15835, Note_on_c, 0, 44, 0
2, 15840, Note_on_c, 0, 49, 52
2, 15860, Note_on_c, 0, 49, 0
2, 15870, Note_on_c, 0, 49, 52
2, 15908, Note_on_c, 0, 49, 0
2, 15930, Note_on_c, 0, 44, 52
2, 15958, Note_on_c, 0, 44, 0
2, 15960, Note_on_c, 0, 49, 52
2, 15976, Note_on_c, 0, 49, 0
2, 15990, Note_on_c, 0, 49, 52
2, 16030, Note_on_c, 0, 49, 0
2, 16050, Note_on_c, 0, 44, 52
2, 16080, Note_on_c, 0, 49, 52
2, 16081, Note_on_c, 0, 44, 0
2, 16098, Note_on_c, 0, 49, 0
2, 16110, Note_on_c, 0, 49, 52
2, 16146, Note_on_c, 0, 49, 0
2, 16170, Note_on_c, 0, 44, 52
2, 16200, Note_on_c, 0, 49, 52
2, 16205, Note_on_c, 0, 44, 0
2, 16218, Note_on_c, 0, 49, 0
2, 16230, Note_on_c, 0, 49, 52
2, 16265, Note_on_c, 0, 49, 0
2, 16320, Note_on_c, 0, 38, 52
2, 16352, Note_on_c, 0, 38, 0
2, 16410, Note_on_c, 0, 38, 52
2, 16428, Note_on_c, 0, 38, 0
2, 16440, Note_on_c, 0, 38, 52
2, 16470, Note_on_c, 0, 38, 0
2, 16530, Note_on_c, 0, 38, 52
2, 16559, Note_on_c, 0, 38, 0
2, 16560, Note_on_c, 0, 43, 52
2, 16602, Note_on_c, 0, 43, 0
2, 16650, Note_on_c, 0, 43, 52
2, 16667, Note_on_c, 0, 43, 0
2, 16680, Note_on_c, 0, 43, 52
2, 16721, Note_on_c, 0, 43, 0
2, 16770, Note_on_c, 0, 43, 52
2, 16797, Note_on_c, 0, 43, 0
2, 16800, Note_on_c, 0, 45, 52
2, 16839, Note_on_c, 0, 45, 0
2, 16890, Note_on_c, 0, 45, 52
2, 16907, Note_on_c, 0, 45, 0
2, 16920, Note_on_c, 0, 45, 52
2, 16961, Note_on_c, 0, 45, 0
2, 17010, Note_on_c, 0, 45, 52
2, 17035, Note_on_c, 0, 45, 0
2, 17040, Note_on_c, 0, 47, 52
2, 17084, Note_on_c, 0, 47, 0
2, 17130, Note_on_c, 0, 47, 52
2, 17150, Note_on_c, 0, 47, 0
2, 17160, Note_on_c, 0, 47, 52
2, 17198, Note_on_c, 0, 47, 0
2, 17250, Note_on_c, 0, 47, 52
2, 17276, Note_on_c, 0, 47, 0
2, 17280, Note_on_c, 0, 50, 52
2, 17323, Note_on_c, 0, 50, 0
2, 17370, Note_on_c, 0, 50, 52
2, 17386, Note_on_c, 0, 50, 0
2, 17400, Note_on_c, 0, 50, 52
2, 17440, Note_on_c, 0, 50, 0
2, 17490, Note_on_c, 0, 50, 52
2, 17518, Note_on_c, 0, 50, 0
2, 17520, Note_on_c, 0, 43, 52
2, 17574, Note_on_c, 0, 43, 0
2, 17610, Note_on_c, 0, 43, 52
2, 17630, Note_on_c, 0, 43, 0
2, 17640, Note_on_c, 0, 43, 52
2, 17680, Note_on_c, 0, 43, 0
2, 17730, Note_on_c, 0, 43, 52
2, 17755, Note_on_c, 0, 43, 0
2, 17760, Note_on_c, 0, 41, 52
2, 17880, Note_on_c, 0, 40, 52
2, 17892, Note_on_c, 0, 41, 0
2, 17970, Note_on_c, 0, 40, 0
2, 17970, Note_on_c, 0, 38, 52
2, 18017, Note_on_c, 0, 38, 0
2, 18090, Note_on_c, 0, 45, 52
2, 18120, Note_on_c, 0, 45, 52
2, 18147, Note_on_c, 0, 45, 0
2, 18150, Note_on_c, 0, 47, 52
2, 18172, Note_on_c, 0, 47, 0
2, 18180, Note_on_c, 0, 50, 52
2, 18204, Note_on_c, 0, 50, 0
2, 18209, Note_on_c, 0, 45, 0
2, 18210, Note_on_c, 0, 47, 52
2, 18238, Note_on_c, 0, 47, 0
2, 18240, Note_on_c, 0, 50, 52
2, 18240, Note_on_c, 0, 38, 52
2, 18270, Note_on_c, 0, 38, 0
2, 18330, Note_on_c, 0, 38, 52
2, 18348, Note_on_c, 0, 38, 0
2, 18358, Note_on_c, 0, 50, 0
2, 18360, Note_on_c, 0, 38, 52
2, 18391, Note_on_c, 0, 38, 0
2, 18450, Note_on_c, 0, 38, 52
2, 18450, Note_on_c, 0, 36, 52
2, 18453, Note_on_c, 0, 36, 0
2, 18479, Note_on_c, 0, 38, 0
2, 18480, Note_on_c, 0, 43, 52
2, 18524, Note_on_c, 0, 43, 0
2, 18570, Note_on_c, 0, 43, 52
2, 18585, Note_on_c, 0, 43, 0
2, 18600, Note_on_c, 0, 43, 52
2, 18639, Note_on_c, 0, 43, 0
2, 18690, Note_on_c, 0, 43, 52
2, 18714, Note_on_c, 0, 43, 0
2, 18720, Note_on_c, 0, 45, 52
2, 18754, Note_on_c, 0, 45, 0
2, 18810, Note_on_c, 0, 45, 52
2, 18826, Note_on_c, 0, 45, 0
2, 18840, Note_on_c, 0, 45, 52
2, 18876, Note_on_c, 0, 45, 0
2, 18930, Note_on_c, 0, 45, 52
2, 18951, Note_on_c, 0, 45, 0
2, 18960, Note_on_c, 0, 47, 52
2, 18995, Note_on_c, 0, 47, 0
2, 19050, Note_on_c, 0, 47, 52
2, 19065, Note_on_c, 0, 47, 0
2, 19080, Note_on_c, 0, 47, 52
2, 19120, Note_on_c, 0, 47, 0
2, 19170, Note_on_c, 0, 47, 52
2, 19191, Note_on_c, 0, 47, 0
2, 19200, Note_on_c, 0, 50, 52
2, 19245, Note_on_c, 0, 50, 0
2, 19290, Note_on_c, 0, 50, 52
2, 19304, Note_on_c, 0, 50, 0
2, 19320, Note_on_c, 0, 50, 52
2, 19359, Note_on_c, 0, 50, 0
2, 19410, Note_on_c, 0, 50, 52
2, 19440, Note_on_c, 0, 50, 0
2, 19440, Note_on_c, 0, 43, 52
2, 19475, Note_on_c, 0, 43, 0
2, 19530, Note_on_c, 0, 43, 52
2, 19546, Note_on_c, 0, 43, 0
2, 19560, Note_on_c, 0, 43, 52
2, 19592, Note_on_c, 0, 43, 0
2, 19650, Note_on_c, 0, 43, 52
2, 19674, Note_on_c, 0, 43, 0
2, 19680, Note_on_c, 0, 41, 52
2, 19799, Note_on_c, 0, 41, 0
2, 19800, Note_on_c, 0, 40, 52
2, 19890, Note_on_c, 0, 38, 52
2, 19893, Note_on_c, 0, 40, 0
2, 19931, Note_on_c, 0, 38, 0
2, 20010, Note_on_c, 0, 45, 52
2, 20040, Note_on_c, 0, 45, 52
2, 20067, Note_on_c, 0, 45, 0
2, 20070, Note_on_c, 0, 47, 52
2, 20092, Note_on_c, 0, 47, 0
2, 20100, Note_on_c, 0, 50, 52
2, 20124, Note_on_c, 0, 50, 0
2, 20129, Note_on_c, 0, 45, 0
2, 20130, Note_on_c, 0, 47, 52
2, 20158, Note_on_c, 0, 47, 0
2, 20160, Note_on_c, 0, 50, 52
2, 20160, Note_on_c, 0, 38, 52
2, 20192, Note_on_c, 0, 38, 0
2, 20250, Note_on_c, 0, 38, 52
2, 20268, Note_on_c, 0, 38, 0
2, 20278, Note_on_c, 0, 50, 0
2, 20280, Note_on_c, 0, 38, 52
2, 20310, Note_on_c, 0, 38, 0
2, 20370, Note_on_c, 0, 38, 52
2, 20399, Note_on_c, 0, 38, 0
2, 20400, Note_on_c, 0, 43, 52
2, 20442, Note_on_c, 0, 43, 0
2, 20490, Note_on_c, 0, 43, 52
2, 20507, Note_on_c, 0, 43, 0
2, 20520, Note_on_c, 0, 43, 52
2, 20561, Note_on_c, 0, 43, 0
2, 20610, Note_on_c, 0, 43, 52
2, 20637, Note_on_c, 0, 43, 0
2, 20640, Note_on_c, 0, 45, 52
2, 20679, Note_on_c, 0, 45, 0
2, 20730, Note_on_c, 0, 45, 52
2, 20747, Note_on_c, 0, 45, 0
2, 20760, Note_on_c, 0, 45, 52
2, 20801, Note_on_c, 0, 45, 0
2, 20850, Note_on_c, 0, 45, 52
2, 20875, Note_on_c, 0, 45, 0
2, 20880, Note_on_c, 0, 47, 52
2, 20924, Note_on_c, 0, 47, 0
2, 20970, Note_on_c, 0, 47, 52
2, 20990, Note_on_c, 0, 47, 0
2, 21000, Note_on_c, 0, 47, 52
2, 21038, Note_on_c, 0, 47, 0
2, 21090, Note_on_c, 0, 47, 52
2, 21116, Note_on_c, 0, 47, 0
2, 21120, Note_on_c, 0, 50, 52
2, 21163, Note_on_c, 0, 50, 0
2, 21210, Note_on_c, 0, 50, 52
2, 21226, Note_on_c, 0, 50, 0
2, 21240, Note_on_c, 0, 50, 52
2, 21280, Note_on_c, 0, 50, 0
2, 21330, Note_on_c, 0, 50, 52
2, 21358, Note_on_c, 0, 50, 0
2, 21360, Note_on_c, 0, 43, 52
2, 21414, Note_on_c, 0, 43, 0
2, 21450, Note_on_c, 0, 43, 52
2, 21470, Note_on_c, 0, 43, 0
2, 21480, Note_on_c, 0, 43, 52
2, 21520, Note_on_c, 0, 43, 0
2, 21570, Note_on_c, 0, 43, 52
2, 21595, Note_on_c, 0, 43, 0
2, 21600, Note_on_c, 0, 41, 52
2, 21720, Note_on_c, 0, 40, 52
2, 21732, Note_on_c, 0, 41, 0
2, 21810, Note_on_c, 0, 40, 0
2, 21810, Note_on_c, 0, 38, 52
2, 21857, Note_on_c, 0, 38, 0
2, 21930, Note_on_c, 0, 45, 52
2, 21930, Note_on_c, 0, 45, 52
2, 21960, Note_on_c, 0, 45, 52
2, 21960, Note_on_c, 0, 45, 52
2, 21987, Note_on_c, 0, 45, 0
2, 21987, Note_on_c, 0, 45, 0
2, 21990, Note_on_c, 0, 47, 52
2, 21990, Note_on_c, 0, 47, 52
2, 22012, Note_on_c, 0, 47, 0
2, 22012, Note_on_c, 0, 47, 0
2, 22020, Note_on_c, 0, 50, 52
2, 22020, Note_on_c, 0, 50, 52
2, 22044, Note_on_c, 0, 50, 0
2, 22044, Note_on_c, 0, 50, 0
2, 22049, Note_on_c, 0, 45, 0
2, 22049, Note_on_c, 0, 45, 0
2, 22050, Note_on_c, 0, 47, 52
2, 22050, Note_on_c, 0, 47, 52
2, 22078, Note_on_c, 0, 47, 0
2, 22078, Note_on_c, 0, 47, 0
2, 22080, Note_on_c, 0, 42, 52
2, 22145, Note_on_c, 0, 42, 0
2, 22170, Note_on_c, 0, 42, 52
2, 22180, Note_on_c, 0, 42, 0
2, 22200, Note_on_c, 0, 42, 52
2, 22254, Note_on_c, 0, 42, 0
2, 22290, Note_on_c, 0, 42, 52
2, 22314, Note_on_c, 0, 42, 0
2, 22320, Note_on_c, 0, 47, 52
2, 22385, Note_on_c, 0, 47, 0
2, 22410, Note_on_c, 0, 47, 52
2, 22429, Note_on_c, 0, 47, 0
2, 22440, Note_on_c, 0, 47, 52
2, 22496, Note_on_c, 0, 47, 0
2, 22530, Note_on_c, 0, 47, 52
2, 22560, Note_on_c, 0, 49, 52
2, 22562, Note_on_c, 0, 47, 0
2, 22625, Note_on_c, 0, 49, 0
2, 22650, Note_on_c, 0, 49, 52
2, 22666, Note_on_c, 0, 49, 0
2, 22680, Note_on_c, 0, 49, 52
2, 22734, Note_on_c, 0, 49, 0
2, 22770, Note_on_c, 0, 49, 52
2, 22795, Note_on_c, 0, 49, 0
2, 22800, Note_on_c, 0, 44, 52
2, 22868, Note_on_c, 0, 44, 0
2, 22890, Note_on_c, 0, 44, 52
2, 22907, Note_on_c, 0, 44, 0
2, 22920, Note_on_c, 0, 44, 52
2, 22975, Note_on_c, 0, 44, 0
2, 23010, Note_on_c, 0, 44, 52
2, 23040, Note_on_c, 0, 44, 0
2, 23040, Note_on_c, 0, 42, 52
2, 23105, Note_on_c, 0, 42, 0
2, 23130, Note_on_c, 0, 42, 52
2, 23146, Note_on_c, 0, 42, 0
2, 23160, Note_on_c, 0, 42, 52
2, 23219, Note_on_c, 0, 42, 0
2, 23250, Note_on_c, 0, 42, 52
2, 23274, Note_on_c, 0, 42, 0
2, 23280, Note_on_c, 0, 44, 52
2, 23354, Note_on_c, 0, 44, 0
2, 23370, Note_on_c, 0, 44, 52
2, 23386, Note_on_c, 0, 44, 0
2, 23400, Note_on_c, 0, 44, 52
2, 23463, Note_on_c, 0, 44, 0
2, 23490, Note_on_c, 0, 44, 52
2, 23515, Note_on_c, 0, 44, 0
2, 23520, Note_on_c, 0, 49, 52
2, 23535, Note_on_c, 0, 49, 0
2, 23550, Note_on_c, 0, 49, 52
2, 23582, Note_on_c, 0, 49, 0
2, 23610, Note_on_c, 0, 44, 52
2, 23639, Note_on_c, 0, 44, 0
2, 23640, Note_on_c, 0, 49, 52
2, 23658, Note_on_c, 0, 49, 0
2, 23670, Note_on_c, 0, 49, 52
2, 23707, Note_on_c, 0, 49, 0
2, 23730, Note_on_c, 0, 44, 52
2, 23759, Note_on_c, 0, 44, 0
2, 23760, Note_on_c, 0, 49, 52
2, 23779, Note_on_c, 0, 49, 0
2, 23790, Note_on_c, 0, 49, 52
2, 23819, Note_on_c, 0, 49, 0
2, 23850, Note_on_c, 0, 44, 52
2, 23875, Note_on_c, 0, 44, 0
2, 23880, Note_on_c, 0, 49, 52
2, 23895, Note_on_c, 0, 49, 0
2, 23910, Note_on_c, 0, 49, 52
2, 23940, Note_on_c, 0, 49, 0
2, 23970, Note_on_c, 0, 49, 52
2, 23994, Note_on_c, 0, 49, 0
2, 24000, Note_on_c, 0, 42, 52
2, 24060, Note_on_c, 0, 42, 0
2, 24090, Note_on_c, 0, 42, 52
2, 24102, Note_on_c, 0, 42, 0
2, 24120, Note_on_c, 0, 42, 52
2, 24177, Note_on_c, 0, 42, 0
2, 24210, Note_on_c, 0, 49, 52
2, 24239, Note_on_c, 0, 49, 0
2, 24240, Note_on_c, 0, 47, 52
2, 24300, Note_on_c, 0, 47, 0
2, 24330, Note_on_c, 0, 47, 52
2, 24347, Note_on_c, 0, 47, 0
2, 24360, Note_on_c, 0, 47, 52
2, 24423, Note_on_c, 0, 47, 0
2, 24450, Note_on_c, 0, 47, 52
2, 24480, Note_on_c, 0, 47, 0
2, 24480, Note_on_c, 0, 49, 52
2, 24547, Note_on_c, 0, 49, 0
2, 24570, Note_on_c, 0, 49, 52
2, 24585, Note_on_c, 0, 49, 0
2, 24600, Note_on_c, 0, 49, 52
2, 24665, Note_on_c, 0, 49, 0
2, 24690, Note_on_c, 0, 49, 52
2, 24719, Note_on_c, 0, 49, 0
2, 24720, Note_on_c, 0, 44, 52
2, 24781, Note_on_c, 0, 44, 0
2, 24810, Note_on_c, 0, 44, 52
2, 24827, Note_on_c, 0, 44, 0
2, 24840, Note_on_c, 0, 44, 52
2, 24894, Note_on_c, 0, 44, 0
2, 24930, Note_on_c, 0, 44, 52
2, 24956, Note_on_c, 0, 44, 0
2, 24960, Note_on_c, 0, 42, 52
2, 25023, Note_on_c, 0, 42, 0
2, 25050, Note_on_c, 0, 42, 52
2, 25069, Note_on_c, 0, 42, 0
2, 25080, Note_on_c, 0, 42, 52
2, 25148, Note_on_c, 0, 42, 0
2, 25170, Note_on_c, 0, 42, 52
2, 25200, Note_on_c, 0, 44, 52
2, 25204, Note_on_c, 0, 42, 0
2, 25265, Note_on_c, 0, 44, 0
2, 25290, Note_on_c, 0, 44, 52
2, 25305, Note_on_c, 0, 44, 0
2, 25320, Note_on_c, 0, 44, 52
2, 25373, Note_on_c, 0, 44, 0
2, 25410, Note_on_c, 0, 44, 52
2, 25440, Note_on_c, 0, 45, 52
2, 25444, Note_on_c, 0, 44, 0
2, 25508, Note_on_c, 0, 45, 0
2, 25530, Note_on_c, 0, 45, 52
2, 25544, Note_on_c, 0, 45, 0
2, 25560, Note_on_c, 0, 45, 52
2, 25619, Note_on_c, 0, 45, 0
2, 25650, Note_on_c, 0, 45, 52
2, 25680, Note_on_c, 0, 47, 52
2, 25684, Note_on_c, 0, 45, 0
2, 26629, Note_on_c, 0, 47, 0
2, 26640, Note_on_c, 0, 64, 52
2, 26640, Note_on_c, 0, 52, 52
2, 27000, Note_on_c, 0, 51, 52
2, 27000, Note_on_c, 0, 63, 52
2, 27006, Note_on_c, 0, 52, 0
2, 27007, Note_on_c, 0, 64, 0
2, 27120, Note_on_c, 0, 49, 52
2, 27120, Note_on_c, 0, 61, 52
2, 27121, Note_on_c, 0, 63, 0
2, 27125, Note_on_c, 0, 51, 0
2, 27600, Note_on_c, 0, 64, 52
2, 27600, Note_on_c, 0, 52, 52
2, 27601, Note_on_c, 0, 61, 0
2, 27603, Note_on_c, 0, 49, 0
2, 27960, Note_on_c, 0, 63, 52
2, 27960, Note_on_c, 0, 51, 52
2, 27965, Note_on_c, 0, 52, 0
2, 27969, Note_on_c, 0, 64, 0
2, 28074, Note_on_c, 0, 51, 0
2, 28080, Note_on_c, 0, 49, 52
2, 28080, Note_on_c, 0, 61, 52
2, 28081, Note_on_c, 0, 63, 0
2, 28556, Note_on_c, 0, 61, 0
2, 28560, Note_on_c, 0, 64, 52
2, 28560, Note_on_c, 0, 52, 52
2, 28565, Note_on_c, 0, 49, 0
2, 28920, Note_on_c, 0, 51, 52
2, 28920, Note_on_c, 0, 63, 52
2, 28923, Note_on_c, 0, 52, 0
2, 28929, Note_on_c, 0, 64, 0
2, 29040, Note_on_c, 0, 49, 52
2, 29040, Note_on_c, 0, 61, 52
2, 29045, Note_on_c, 0, 51, 0
2, 29045, Note_on_c, 0, 63, 0
2, 29519, Note_on_c, 0, 61, 0
2, 29520, Note_on_c, 0, 64, 52
2, 29520, Note_on_c, 0, 52, 52
2, 29522, Note_on_c, 0, 49, 0
2, 29880, Note_on_c, 0, 51, 52
2, 29880, Note_on_c, 0, 63, 52
2, 29881, Note_on_c, 0, 52, 0
2, 29887, Note_on_c, 0, 64, 0
2, 30000, Note_on_c, 0, 49, 52
2, 30000, Note_on_c, 0, 61, 52
2, 30008, Note_on_c, 0, 63, 0
2, 30010, Note_on_c, 0, 51, 0
2, 30222, Note_on_c, 0, 61, 0
2, 30224, Note_on_c, 0, 49, 0
2, 30480, Note_on_c, 0, 38, 52
2, 30510, Note_on_c, 0, 38, 0
2, 30570, Note_on_c, 0, 38, 52
2, 30588, Note_on_c, 0, 38, 0
2, 30600, Note_on_c, 0, 38, 52
2, 30631, Note_on_c, 0, 38, 0
2, 30690, Note_on_c, 0, 38, 52
2, 30690, Note_on_c, 0, 36, 52
2, 30693, Note_on_c, 0, 36, 0
2, 30719, Note_on_c, 0, 38, 0
2, 30720, Note_on_c, 0, 43, 52
2, 30764, Note_on_c, 0, 43, 0
2, 30810, Note_on_c, 0, 43, 52
2, 30825, Note_on_c, 0, 43, 0
2, 30840, Note_on_c, 0, 43, 52
2, 30879, Note_on_c, 0, 43, 0
2, 30930, Note_on_c, 0, 43, 52
2, 30954, Note_on_c, 0, 43, 0
2, 30960, Note_on_c, 0, 45, 52
2, 30994, Note_on_c, 0, 45, 0
2, 31050, Note_on_c, 0, 45, 52
2, 31066, Note_on_c, 0, 45, 0
2, 31080, Note_on_c, 0, 45, 52
2, 31116, Note_on_c, 0, 45, 0
2, 31170, Note_on_c, 0, 45, 52
2, 31191, Note_on_c, 0, 45, 0
2, 31200, Note_on_c, 0, 47, 52
2, 31235, Note_on_c, 0, 47, 0
2, 31290, Note_on_c, 0, 47, 52
2, 31305, Note_on_c, 0, 47, 0
2, 31320, Note_on_c, 0, 47, 52
2, 31360, Note_on_c, 0, 47, 0
2, 31410, Note_on_c, 0, 47, 52
2, 31431, Note_on_c, 0, 47, 0
2, 31440, Note_on_c, 0, 50, 52
2, 31485, Note_on_c, 0, 50, 0
2, 31530, Note_on_c, 0, 50, 52
2, 31544, Note_on_c, 0, 50, 0
2, 31560, Note_on_c, 0, 50, 52
2, 31599, Note_on_c, 0, 50, 0
2, 31650, Note_on_c, 0, 50, 52
2, 31680, Note_on_c, 0, 50, 0
2, 31680, Note_on_c, 0, 43, 52
2, 31715, Note_on_c, 0, 43, 0
2, 31770, Note_on_c, 0, 43, 52
2, 31786, Note_on_c, 0, 43, 0
2, 31800, Note_on_c, 0, 43, 52
2, 31832, Note_on_c, 0, 43, 0
2, 31890, Note_on_c, 0, 43, 52
2, 31914, Note_on_c, 0, 43, 0
2, 31920, Note_on_c, 0, 41, 52
2, 32039, Note_on_c, 0, 41, 0
2, 32040, Note_on_c, 0, 40, 52
2, 32130, Note_on_c, 0, 38, 52
2, 32133, Note_on_c, 0, 40, 0
2, 32171, Note_on_c, 0, 38, 0
2, 32250, Note_on_c, 0, 45, 52
2, 32280, Note_on_c, 0, 45, 52
2, 32307, Note_on_c, 0, 45, 0
2, 32310, Note_on_c, 0, 47, 52
2, 32332, Note_on_c, 0, 47, 0
2, 32340, Note_on_c, 0, 50, 52
2, 32364, Note_on_c, 0, 50, 0
2, 32369, Note_on_c, 0, 45, 0
2, 32370, Note_on_c, 0, 47, 52
2, 32398, Note_on_c, 0, 47, 0
2, 32400, Note_on_c, 0, 50, 52
2, 32400, Note_on_c, 0, 38, 52
2, 32432, Note_on_c, 0, 38, 0
2, 32490, Note_on_c, 0, 38, 52
2, 32508, Note_on_c, 0, 38, 0
2, 32518, Note_on_c, 0, 50, 0
2, 32520, Note_on_c, 0, 38, 52
2, 32550, Note_on_c, 0, 38, 0
2, 32610, Note_on_c, 0, 38, 52
2, 32639, Note_on_c, 0, 38, 0
2, 32640, Note_on_c, 0, 43, 52
2, 32682, Note_on_c, 0, 43, 0
2, 32730, Note_on_c, 0, 43, 52
2, 32747, Note_on_c, 0, 43, 0
2, 32760, Note_on_c, 0, 43, 52
2, 32801, Note_on_c, 0, 43, 0
2, 32850, Note_on_c, 0, 43, 52
2, 32877, Note_on_c, 0, 43, 0
2, 32880, Note_on_c, 0, 45, 52
2, 32919, Note_on_c, 0, 45, 0
2, 32970, Note_on_c, 0, 45, 52
2, 32987, Note_on_c, 0, 45, 0
2, 33000, Note_on_c, 0, 45, 52
2, 33041, Note_on_c, 0, 45, 0
2, 33090, Note_on_c, 0, 45, 52
2, 33115, Note_on_c, 0, 45, 0
2, 33120, Note_on_c, 0, 47, 52
2, 33164, Note_on_c, 0, 47, 0
2, 33210, Note_on_c, 0, 47, 52
2, 33230, Note_on_c, 0, 47, 0
2, 33240, Note_on_c, 0, 47, 52
2, 33278, Note_on_c, 0, 47, 0
2, 33330, Note_on_c, 0, 47, 52
2, 33356, Note_on_c, 0, 47, 0
2, 33360, Note_on_c, 0, 50, 52
2, 33403, Note_on_c, 0, 50, 0
2, 33450, Note_on_c, 0, 50, 52
2, 33466, Note_on_c, 0, 50, 0
2, 33480, Note_on_c, 0, 50, 52
2, 33520, Note_on_c, 0, 50, 0
2, 33570, Note_on_c, 0, 50, 52
2, 33598, Note_on_c, 0, 50, 0
2, 33600, Note_on_c, 0, 43, 52
2, 33654, Note_on_c, 0, 43, 0
2, 33690, Note_on_c, 0, 43, 52
2, 33710, Note_on_c, 0, 43, 0
2, 33720, Note_on_c, 0, 43, 52
2, 33760, Note_on_c, 0, 43, 0
2, 33810, Note_on_c, 0, 43, 52
2, 33835, Note_on_c, 0, 43, 0
2, 33840, Note_on_c, 0, 41, 52
2, 33960, Note_on_c, 0, 40, 52
2, 33972, Note_on_c, 0, 41, 0
2, 34050, Note_on_c, 0, 40, 0
2, 34050, Note_on_c, 0, 38, 52
2, 34097, Note_on_c, 0, 38, 0
2, 34170, Note_on_c, 0, 45, 52
2, 34170, Note_on_c, 0, 45, 52
2, 34200, Note_on_c, 0, 45, 52
2, 34200, Note_on_c, 0, 45, 52
2, 34227, Note_on_c, 0, 45, 0
2, 34227, Note_on_c, 0, 45, 0
2, 34230, Note_on_c, 0, 47, 52
2, 34230, Note_on_c, 0, 47, 52
2, 34252, Note_on_c, 0, 47, 0
2, 34252, Note_on_c, 0, 47, 0
2, 34260, Note_on_c, 0, 50, 52
2, 34260, Note_on_c, 0, 50, 52
2, 34284, Note_on_c, 0, 50, 0
2, 34284, Note_on_c, 0, 50, 0
2, 34289, Note_on_c, 0, 45, 0
2, 34289, Note_on_c, 0, 45, 0
2, 34290, Note_on_c, 0, 47, 52
2, 34290, Note_on_c, 0, 47, 52
2, 34318, Note_on_c, 0, 47, 0
2, 34318, Note_on_c, 0, 47, 0
2, 34320, Note_on_c, 0, 42, 52
2, 34383, Note_on_c, 0, 42, 0
2, 34410, Note_on_c, 0, 42, 52
2, 34423, Note_on_c, 0, 42, 0
2, 34440, Note_on_c, 0, 42, 52
2, 34496, Note_on_c, 0, 42, 0
2, 34530, Note_on_c, 0, 42, 52
2, 34557, Note_on_c, 0, 42, 0
2, 34560, Note_on_c, 0, 47, 52
2, 34621, Note_on_c, 0, 47, 0
2, 34650, Note_on_c, 0, 47, 52
2, 34666, Note_on_c, 0, 47, 0
2, 34680, Note_on_c, 0, 47, 52
2, 34731, Note_on_c, 0, 47, 0
2, 34770, Note_on_c, 0, 47, 52
2, 34794, Note_on_c, 0, 47, 0
2, 34800, Note_on_c, 0, 49, 52
2, 34849, Note_on_c, 0, 49, 0
2, 34890, Note_on_c, 0, 49, 52
2, 34904, Note_on_c, 0, 49, 0
2, 34920, Note_on_c, 0, 49, 52
2, 34965, Note_on_c, 0, 49, 0
2, 35010, Note_on_c, 0, 49, 52
2, 35031, Note_on_c, 0, 49, 0
2, 35040, Note_on_c, 0, 44, 52
2, 35101, Note_on_c, 0, 44, 0
2, 35130, Note_on_c, 0, 44, 52
2, 35148, Note_on_c, 0, 44, 0
2, 35160, Note_on_c, 0, 44, 52
2, 35212, Note_on_c, 0, 44, 0
2, 35250, Note_on_c, 0, 44, 52
2, 35280, Note_on_c, 0, 42, 52
2, 35289, Note_on_c, 0, 44, 0
2, 35342, Note_on_c, 0, 42, 0
2, 35370, Note_on_c, 0, 42, 52
2, 35386, Note_on_c, 0, 42, 0
2, 35400, Note_on_c, 0, 42, 52
2, 35459, Note_on_c, 0, 42, 0
2, 35490, Note_on_c, 0, 42, 52
2, 35518, Note_on_c, 0, 42, 0
2, 35520, Note_on_c, 0, 44, 52
2, 35590, Note_on_c, 0, 44, 0
2, 35610, Note_on_c, 0, 44, 52
2, 35625, Note_on_c, 0, 44, 0
2, 35640, Note_on_c, 0, 44, 52
2, 35695, Note_on_c, 0, 44, 0
2, 35730, Note_on_c, 0, 44, 52
2, 35758, Note_on_c, 0, 44, 0
2, 35760, Note_on_c, 0, 49, 52
2, 35772, Note_on_c, 0, 49, 0
2, 35790, Note_on_c, 0, 49, 52
2, 35824, Note_on_c, 0, 49, 0
2, 35850, Note_on_c, 0, 44, 52
2, 35875, Note_on_c, 0, 44, 0
2, 35880, Note_on_c, 0, 49, 52
2, 35897, Note_on_c, 0, 49, 0
2, 35910, Note_on_c, 0, 49, 52
2, 35941, Note_on_c, 0, 49, 0
2, 35970, Note_on_c, 0, 44, 52
2, 35998, Note_on_c, 0, 44, 0
2, 36000, Note_on_c, 0, 49, 52
2, 36017, Note_on_c, 0, 49, 0
2, 36030, Note_on_c, 0, 49, 52
2, 36069, Note_on_c, 0, 49, 0
2, 36090, Note_on_c, 0, 44, 52
2, 36120, Note_on_c, 0, 49, 52
2, 36121, Note_on_c, 0, 44, 0
2, 36136, Note_on_c, 0, 49, 0
2, 36150, Note_on_c, 0, 49, 52
2, 36176, Note_on_c, 0, 49, 0
2, 36210, Note_on_c, 0, 44, 52
2, 36236, Note_on_c, 0, 44, 0
2, 36240, Note_on_c, 0, 42, 52
2, 36299, Note_on_c, 0, 42, 0
2, 36330, Note_on_c, 0, 42, 52
2, 36343, Note_on_c, 0, 42, 0
2, 36360, Note_on_c, 0, 42, 52
2, 36414, Note_on_c, 0, 42, 0
2, 36450, Note_on_c, 0, 49, 52
2, 36473, Note_on_c, 0, 49, 0
2, 36480, Note_on_c, 0, 47, 52
2, 36529, Note_on_c, 0, 47, 0
2, 36570, Note_on_c, 0, 47, 52
2, 36583, Note_on_c, 0, 47, 0
2, 36600, Note_on_c, 0, 47, 52
2, 36660, Note_on_c, 0, 47, 0
2, 36690, Note_on_c, 0, 47, 52
2, 36720, Note_on_c, 0, 47, 0
2, 36720, Note_on_c, 0, 49, 52
2, 36777, Note_on_c, 0, 49, 0
2, 36810, Note_on_c, 0, 49, 52
2, 36826, Note_on_c, 0, 49, 0
2, 36840, Note_on_c, 0, 49, 52
2, 36894, Note_on_c, 0, 49, 0
2, 36930, Note_on_c, 0, 49, 52
2, 36953, Note_on_c, 0, 49, 0
2, 36960, Note_on_c, 0, 44, 52
2, 37024, Note_on_c, 0, 44, 0
2, 37050, Note_on_c, 0, 44, 52
2, 37067, Note_on_c, 0, 44, 0
2, 37080, Note_on_c, 0, 44, 52
2, 37143, Note_on_c, 0, 44, 0
2, 37170, Note_on_c, 0, 44, 52
2, 37194, Note_on_c, 0, 44, 0
2, 37200, Note_on_c, 0, 42, 52
2, 37257, Note_on_c, 0, 42, 0
2, 37290, Note_on_c, 0, 42, 52
2, 37304, Note_on_c, 0, 42, 0
2, 37320, Note_on_c, 0, 42, 52
2, 37376, Note_on_c, 0, 42, 0
2, 37410, Note_on_c, 0, 42, 52
2, 37434, Note_on_c, 0, 42, 0
2, 37440, Note_on_c, 0, 44, 52
2, 37512, Note_on_c, 0, 44, 0
2, 37530, Note_on_c, 0, 44, 52
2, 37546, Note_on_c, 0, 44, 0
2, 37560, Note_on_c, 0, 44, 52
2, 37618, Note_on_c, 0, 44, 0
2, 37650, Note_on_c, 0, 44, 52
2, 37675, Note_on_c, 0, 44, 0
2, 37680, Note_on_c, 0, 49, 52
2, 37700, Note_on_c, 0, 49, 0
2, 37710, Note_on_c, 0, 49, 52
2, 37748, Note_on_c, 0, 49, 0
2, 37770, Note_on_c, 0, 44, 52
2, 37798, Note_on_c, 0, 44, 0
2, 37800, Note_on_c, 0, 49, 52
2, 37816, Note_on_c, 0, 49, 0
2, 37830, Note_on_c, 0, 49, 52
2, 37870, Note_on_c, 0, 49, 0
2, 37890, Control_c, 0, 10, 47
2, 37890, Note_on_c, 0, 44, 52
2, 37900, Control_c, 0, 10, 49
2, 37905, Control_c, 0, 10, 54
2, 37905, Control_c, 0, 10, 52
2, 37915, Control_c, 0, 10, 63
2, 37920, Note_on_c, 0, 49, 52
2, 37921, Note_on_c, 0, 44, 0
2, 37921, Control_c, 0, 10, 81
2, 37921, Control_c, 0, 10, 74
2, 37933, Control_c, 0, 10, 82
2, 37938, Note_on_c, 0, 49, 0
2, 37950, Note_on_c, 0, 49, 52
2, 37986, Note_on_c, 0, 49, 0
2, 38001, Control_c, 0, 10, 80
2, 38005, Control_c, 0, 10, 74
2, 38005, Control_c, 0, 10, 77
2, 38010, Note_on_c, 0, 44, 52
2, 38013, Control_c, 0, 10, 72
2, 38014, Control_c, 0, 10, 69
2, 38021, Control_c, 0, 10, 63
2, 38021, Control_c, 0, 10, 66
2, 38031, Control_c, 0, 10, 60
2, 38040, Control_c, 0, 10, 57
2, 38040, Note_on_c, 0, 49, 52
2, 38045, Note_on_c, 0, 44, 0
2, 38058, Note_on_c, 0, 49, 0
2, 38070, Note_on_c, 0, 49, 52
2, 38085, Control_c, 0, 10, 60
2, 38096, Control_c, 0, 10, 63
2, 38105, Note_on_c, 0, 49, 0
2, 38120, Control_c, 0, 10, 66
2, 38160, Note_on_c, 0, 42, 52
2, 38223, Note_on_c, 0, 42, 0
2, 38250, Note_on_c, 0, 42, 52
2, 38263, Note_on_c, 0, 42, 0
2, 38280, Note_on_c, 0, 42, 52
2, 38331, Control_c, 0, 10, 69
2, 38336, Note_on_c, 0, 42, 0
2, 38336, Control_c, 0, 10, 72
2, 38345, Control_c, 0, 10, 74
2, 38350, Control_c, 0, 10, 84
2, 38350, Control_c, 0, 10, 80
2, 38360, Control_c, 0, 10, 86
2, 38365, Control_c, 0, 10, 88
2, 38370, Note_on_c, 0, 42, 52
2, 38381, Control_c, 0, 10, 89
2, 38386, Control_c, 0, 10, 91
2, 38391, Control_c, 0, 10, 93
2, 38397, Note_on_c, 0, 42, 0
2, 38400, Note_on_c, 0, 47, 52
2, 38461, Note_on_c, 0, 47, 0
2, 38490, Note_on_c, 0, 47, 52
2, 38506, Note_on_c, 0, 47, 0
2, 38520, Note_on_c, 0, 47, 52
2, 38571, Note_on_c, 0, 47, 0
2, 38602, Control_c, 0, 10, 92
2, 38605, Control_c, 0, 10, 89
2, 38610, Control_c, 0, 10, 88
2, 38610, Note_on_c, 0, 47, 52
2, 38616, Control_c, 0, 10, 84
2, 38616, Control_c, 0, 10, 86
2, 38621, Control_c, 0, 10, 83
2, 38634, Note_on_c, 0, 47, 0
2, 38640, Note_on_c, 0, 49, 52
2, 38689, Note_on_c, 0, 49, 0
2, 38730, Note_on_c, 0, 49, 52
2, 38744, Note_on_c, 0, 49, 0
2, 38760, Note_on_c, 0, 49, 52
2, 38765, Control_c, 0, 10, 79
2, 38765, Control_c, 0, 10, 81
2, 38775, Control_c, 0, 10, 77
2, 38780, Control_c, 0, 10, 72
2, 38780, Control_c, 0, 10, 73
2, 38788, Control_c, 0, 10, 70
2, 38790, Control_c, 0, 10, 68
2, 38795, Control_c, 0, 10, 67
2, 38800, Control_c, 0, 10, 63
2, 38800, Control_c, 0, 10, 65
2, 38805, Note_on_c, 0, 49, 0
2, 38810, Control_c, 0, 10, 61
2, 38813, Control_c, 0, 10, 59
2, 38820, Control_c, 0, 10, 56
2, 38823, Control_c, 0, 10, 54
2, 38833, Control_c, 0, 10, 42
2, 38833, Control_c, 0, 10, 49
2, 38841, Control_c, 0, 10, 39
2, 38850, Note_on_c, 0, 49, 52
2, 38869, Control_c, 0, 10, 40
2, 38871, Note_on_c, 0, 49, 0
2, 38876, Control_c, 0, 10, 39
2, 38880, Control_c, 0, 10, 40
2, 38880, Note_on_c, 0, 44, 52
2, 38885, Control_c, 0, 10, 45
2, 38885, Control_c, 0, 10, 42
2, 38941, Note_on_c, 0, 44, 0
2, 38970, Note_on_c, 0, 44, 52
2, 38988, Note_on_c, 0, 44, 0
2, 38988, Control_c, 0, 10, 47
2, 38997, Control_c, 0, 10, 49
2, 39000, Note_on_c, 0, 44, 52
2, 39020, Control_c, 0, 10, 52
2, 39052, Note_on_c, 0, 44, 0
2, 39090, Note_on_c, 0, 44, 52
2, 39120, Note_on_c, 0, 42, 52
2, 39129, Note_on_c, 0, 44, 0
2, 39182, Note_on_c, 0, 42, 0
2, 39210, Note_on_c, 0, 42, 52
2, 39226, Note_on_c, 0, 42, 0
2, 39240, Note_on_c, 0, 42, 52
2, 39299, Note_on_c, 0, 42, 0
2, 39330, Note_on_c, 0, 42, 52
2, 39358, Note_on_c, 0, 42, 0
2, 39360, Note_on_c, 0, 44, 52
2, 39430, Note_on_c, 0, 44, 0
2, 39450, Note_on_c, 0, 44, 52
2, 39465, Note_on_c, 0, 44, 0
2, 39480, Note_on_c, 0, 44, 52
2, 39535, Note_on_c, 0, 44, 0
2, 39570, Note_on_c, 0, 44, 52
2, 39598, Note_on_c, 0, 44, 0
2, 39600, Note_on_c, 0, 49, 52
2, 39612, Note_on_c, 0, 49, 0
2, 39630, Note_on_c, 0, 49, 52
2, 39664, Note_on_c, 0, 49, 0
2, 39690, Note_on_c, 0, 44, 52
2, 39715, Note_on_c, 0, 44, 0
2, 39720, Note_on_c, 0, 49, 52
2, 39737, Note_on_c, 0, 49, 0
2, 39750, Note_on_c, 0, 49, 52
2, 39781, Note_on_c, 0, 49, 0
2, 39810, Note_on_c, 0, 44, 52
2, 39838, Note_on_c, 0, 44, 0
2, 39840, Note_on_c, 0, 49, 52
2, 39857, Note_on_c, 0, 49, 0
2, 39870, Note_on_c, 0, 49, 52
2, 39909, Note_on_c, 0, 49, 0
2, 39930, Note_on_c, 0, 44, 52
2, 39960, Note_on_c, 0, 49, 52
2, 39961, Note_on_c, 0, 44, 0
2, 39976, Note_on_c, 0, 49, 0
2, 39990, Note_on_c, 0, 49, 52
2, 40016, Note_on_c, 0, 49, 0
2, 40050, Note_on_c, 0, 44, 52
2, 40076, Note_on_c, 0, 44, 0
2, 40080, Note_on_c, 0, 42, 52
2, 40139, Note_on_c, 0, 42, 0
2, 40170, Note_on_c, 0, 42, 52
2, 40183, Note_on_c, 0, 42, 0
2, 40200, Note_on_c, 0, 42, 52
2, 40254, Note_on_c, 0, 42, 0
2, 40290, Note_on_c, 0, 49, 52
2, 40313, Note_on_c, 0, 49, 0
2, 40320, Note_on_c, 0, 47, 52
2, 40369, Note_on_c, 0, 47, 0
2, 40410, Note_on_c, 0, 47, 52
2, 40423, Note_on_c, 0, 47, 0
2, 40440, Note_on_c, 0, 47, 52
2, 40500, Note_on_c, 0, 47, 0
2, 40530, Note_on_c, 0, 47, 52
2, 40560, Note_on_c, 0, 47, 0
2, 40560, Note_on_c, 0, 49, 52
2, 40617, Note_on_c, 0, 49, 0
2, 40650, Note_on_c, 0, 49, 52
2, 40666, Note_on_c, 0, 49, 0
2, 40680, Note_on_c, 0, 49, 52
2, 40734, Note_on_c, 0, 49, 0
2, 40770, Note_on_c, 0, 49, 52
2, 40793, Note_on_c, 0, 49, 0
2, 40800, Note_on_c, 0, 44, 52
2, 40864, Note_on_c, 0, 44, 0
2, 40890, Note_on_c, 0, 44, 52
2, 40907, Note_on_c, 0, 44, 0
2, 40920, Note_on_c, 0, 44, 52
2, 40983, Note_on_c, 0, 44, 0
2, 41010, Note_on_c, 0, 44, 52
2, 41034, Note_on_c, 0, 44, 0
2, 41040, Note_on_c, 0, 42, 52
2, 41097, Note_on_c, 0, 42, 0
2, 41130, Note_on_c, 0, 42, 52
2, 41144, Note_on_c, 0, 42, 0
2, 41160, Note_on_c, 0, 42, 52
2, 41216, Note_on_c, 0, 42, 0
2, 41250, Note_on_c, 0, 42, 52
2, 41274, Note_on_c, 0, 42, 0
2, 41280, Note_on_c, 0, 44, 52
2, 41352, Note_on_c, 0, 44, 0
2, 41370, Note_on_c, 0, 44, 52
2, 41386, Note_on_c, 0, 44, 0
2, 41400, Note_on_c, 0, 44, 52
2, 41458, Note_on_c, 0, 44, 0
2, 41490, Note_on_c, 0, 44, 52
2, 41515, Note_on_c, 0, 44, 0
2, 41520, Note_on_c, 0, 49, 52
2, 41540, Note_on_c, 0, 49, 0
2, 41550, Note_on_c, 0, 49, 52
2, 41588, Note_on_c, 0, 49, 0
2, 41610, Note_on_c, 0, 44, 52
2, 41638, Note_on_c, 0, 44, 0
2, 41640, Note_on_c, 0, 49, 52
2, 41656, Note_on_c, 0, 49, 0
2, 41670, Note_on_c, 0, 49, 52
2, 41710, Note_on_c, 0, 49, 0
2, 41730, Note_on_c, 0, 44, 52
2, 41760, Note_on_c, 0, 49, 52
2, 41761, Note_on_c, 0, 44, 0
2, 41778, Note_on_c, 0, 49, 0
2, 41790, Note_on_c, 0, 49, 52
2, 41826, Note_on_c, 0, 49, 0
2, 41850, Note_on_c, 0, 44, 52
2, 41877, Note_on_c, 0, 44, 0
2, 41880, Note_on_c, 0, 49, 52
2, 41910, Note_on_c, 0, 44, 52
2, 41911, Note_on_c, 0, 49, 0
2, 41938, Note_on_c, 0, 44, 0
2, 41940, Note_on_c, 0, 49, 52
2, 41996, Note_on_c, 0, 49, 0
2, 42000, Note_on_c, 0, 50, 52
2, 42000, Note_on_c, 0, 38, 52
2, 42030, Note_on_c, 0, 38, 0
2, 42090, Note_on_c, 0, 38, 52
2, 42095, Note_on_c, 0, 50, 0
2, 42108, Note_on_c, 0, 38, 0
2, 42120, Note_on_c, 0, 38, 52
2, 42151, Note_on_c, 0, 38, 0
2, 42210, Note_on_c, 0, 38, 52
2, 42210, Note_on_c, 0, 36, 52
2, 42213, Note_on_c, 0, 36, 0
2, 42239, Note_on_c, 0, 38, 0
2, 42240, Note_on_c, 0, 43, 52
2, 42284, Note_on_c, 0, 43, 0
2, 42330, Note_on_c, 0, 43, 52
2, 42345, Note_on_c, 0, 43, 0
2, 42360, Note_on_c, 0, 43, 52
2, 42399, Note_on_c, 0, 43, 0
2, 42450, Note_on_c, 0, 43, 52
2, 42474, Note_on_c, 0, 43, 0
2, 42480, Note_on_c, 0, 45, 52
2, 42514, Note_on_c, 0, 45, 0
2, 42570, Note_on_c, 0, 45, 52
2, 42586, Note_on_c, 0, 45, 0
2, 42600, Note_on_c, 0, 45, 52
2, 42636, Note_on_c, 0, 45, 0
2, 42690, Note_on_c, 0, 45, 52
2, 42711, Note_on_c, 0, 45, 0
2, 42720, Note_on_c, 0, 47, 52
2, 42755, Note_on_c, 0, 47, 0
2, 42810, Note_on_c, 0, 47, 52
2, 42825, Note_on_c, 0, 47, 0
2, 42840, Note_on_c, 0, 47, 52
2, 42880, Note_on_c, 0, 47, 0
2, 42930, Note_on_c, 0, 47, 52
2, 42951, Note_on_c, 0, 47, 0
2, 42960, Note_on_c, 0, 50, 52
2, 43005, Note_on_c, 0, 50, 0
2, 43050, Note_on_c, 0, 50, 52
2, 43064, Note_on_c, 0, 50, 0
2, 43080, Note_on_c, 0, 50, 52
2, 43119, Note_on_c, 0, 50, 0
2, 43170, Note_on_c, 0, 50, 52
2, 43200, Note_on_c, 0, 50, 0
2, 43200, Note_on_c, 0, 43, 52
2, 43235, Note_on_c, 0, 43, 0
2, 43290, Note_on_c, 0, 43, 52
2, 43306, Note_on_c, 0, 43, 0
2, 43320, Note_on_c, 0, 43, 52
2, 43352, Note_on_c, 0, 43, 0
2, 43410, Note_on_c, 0, 43, 52
2, 43434, Note_on_c, 0, 43, 0
2, 43440, Note_on_c, 0, 41, 52
2, 43559, Note_on_c, 0, 41, 0
2, 43560, Note_on_c, 0, 40, 52
2, 43650, Note_on_c, 0, 38, 52
2, 43653, Note_on_c, 0, 40, 0
2, 43691, Note_on_c, 0, 38, 0
2, 43770, Note_on_c, 0, 45, 52
2, 43800, Note_on_c, 0, 45, 52
2, 43827, Note_on_c, 0, 45, 0
2, 43830, Note_on_c, 0, 47, 52
2, 43852, Note_on_c, 0, 47, 0
2, 43860, Note_on_c, 0, 50, 52
2, 43884, Note_on_c, 0, 50, 0
2, 43889, Note_on_c, 0, 45, 0
2, 43890, Note_on_c, 0, 47, 52
2, 43918, Note_on_c, 0, 47, 0
2, 43920, Note_on_c, 0, 50, 52
2, 43920, Note_on_c, 0, 38, 52
2, 43952, Note_on_c, 0, 38, 0
2, 44010, Note_on_c, 0, 38, 52
2, 44028, Note_on_c, 0, 38, 0
2, 44038, Note_on_c, 0, 50, 0
2, 44040, Note_on_c, 0, 38, 52
2, 44070, Note_on_c, 0, 38, 0
2, 44130, Note_on_c, 0, 38, 52
2, 44159, Note_on_c, 0, 38, 0
2, 44160, Note_on_c, 0, 43, 52
2, 44202, Note_on_c, 0, 43, 0
2, 44250, Note_on_c, 0, 43, 52
2, 44267, Note_on_c, 0, 43, 0
2, 44280, Note_on_c, 0, 43, 52
2, 44321, Note_on_c, 0, 43, 0
2, 44370, Note_on_c, 0, 43, 52
2, 44397, Note_on_c, 0, 43, 0
2, 44400, Note_on_c, 0, 45, 52
2, 44439, Note_on_c, 0, 45, 0
2, 44490, Note_on_c, 0, 45, 52
2, 44507, Note_on_c, 0, 45, 0
2, 44520, Note_on_c, 0, 45, 52
2, 44561, Note_on_c, 0, 45, 0
2, 44610, Note_on_c, 0, 45, 52
2, 44635, Note_on_c, 0, 45, 0
2, 44640, Note_on_c, 0, 47, 52
2, 44684, Note_on_c, 0, 47, 0
2, 44730, Note_on_c, 0, 47, 52
2, 44750, Note_on_c, 0, 47, 0
2, 44760, Note_on_c, 0, 47, 52
2, 44798, Note_on_c, 0, 47, 0
2, 44850, Note_on_c, 0, 47, 52
2, 44876, Note_on_c, 0, 47, 0
2, 44880, Note_on_c, 0, 50, 52
2, 44923, Note_on_c, 0, 50, 0
2, 44970, Note_on_c, 0, 50, 52
2, 44986, Note_on_c, 0, 50, 0
2, 45000, Note_on_c, 0, 50, 52
2, 45040, Note_on_c, 0, 50, 0
2, 45090, Note_on_c, 0, 50, 52
2, 45118, Note_on_c, 0, 50, 0
2, 45120, Note_on_c, 0, 43, 52
2, 45174, Note_on_c, 0, 43, 0
2, 45210, Note_on_c, 0, 43, 52
2, 45230, Note_on_c, 0, 43, 0
2, 45240, Note_on_c, 0, 43, 52
2, 45280, Note_on_c, 0, 43, 0
2, 45330, Note_on_c, 0, 43, 52
2, 45355, Note_on_c, 0, 43, 0
2, 45360, Note_on_c, 0, 41, 52
2, 45480, Note_on_c, 0, 40, 52
2, 45492, Note_on_c, 0, 41, 0
2, 45570, Note_on_c, 0, 40, 0
2, 45570, Note_on_c, 0, 38, 52
2, 45617, Note_on_c, 0, 38, 0
2, 45690, Note_on_c, 0, 45, 52
2, 45720, Note_on_c, 0, 45, 52
2, 45747, Note_on_c, 0, 45, 0
2, 45750, Note_on_c, 0, 47, 52
2, 45772, Note_on_c, 0, 47, 0
2, 45780, Note_on_c, 0, 50, 52
2, 45804, Note_on_c, 0, 50, 0
2, 45809, Note_on_c, 0, 45, 0
2, 45810, Note_on_c, 0, 47, 52
2, 45838, Note_on_c, 0, 47, 0
2, 45840, Note_on_c, 0, 50, 52
2, 45840, Note_on_c, 0, 38, 52
2, 45870, Note_on_c, 0, 38, 0
2, 45930, Note_on_c, 0, 38, 52
2, 45948, Note_on_c, 0, 38, 0
2, 45958, Note_on_c, 0, 50, 0
2, 45960, Note_on_c, 0, 38, 52
2, 45991, Note_on_c, 0, 38, 0
2, 46050, Note_on_c, 0, 38, 52
2, 46050, Note_on_c, 0, 36, 52
2, 46053, Note_on_c, 0, 36, 0
2, 46079, Note_on_c, 0, 38, 0
2, 46080, Note_on_c, 0, 43, 52
2, 46124, Note_on_c, 0, 43, 0
2, 46170, Note_on_c, 0, 43, 52
2, 46185, Note_on_c, 0, 43, 0
2, 46200, Note_on_c, 0, 43, 52
2, 46239, Note_on_c, 0, 43, 0
2, 46290, Note_on_c, 0, 43, 52
2, 46314, Note_on_c, 0, 43, 0
2, 46320, Note_on_c, 0, 45, 52
2, 46354, Note_on_c, 0, 45, 0
2, 46410, Note_on_c, 0, 45, 52
2, 46426, Note_on_c, 0, 45, 0
2, 46440, Note_on_c, 0, 45, 52
2, 46476, Note_on_c, 0, 45, 0
2, 46530, Note_on_c, 0, 45, 52
2, 46551, Note_on_c, 0, 45, 0
2, 46560, Note_on_c, 0, 47, 52
2, 46595, Note_on_c, 0, 47, 0
2, 46650, Note_on_c, 0, 47, 52
2, 46665, Note_on_c, 0, 47, 0
2, 46680, Note_on_c, 0, 47, 52
2, 46720, Note_on_c, 0, 47, 0
2, 46770, Note_on_c, 0, 47, 52
2, 46791, Note_on_c, 0, 47, 0
2, 46800, Note_on_c, 0, 50, 52
2, 46845, Note_on_c, 0, 50, 0
2, 46890, Note_on_c, 0, 50, 52
2, 46904, Note_on_c, 0, 50, 0
2, 46920, Note_on_c, 0, 50, 52
2, 46959, Note_on_c, 0, 50, 0
2, 47010, Note_on_c, 0, 50, 52
2, 47040, Note_on_c, 0, 50, 0
2, 47040, Note_on_c, 0, 43, 52
2, 47075, Note_on_c, 0, 43, 0
2, 47130, Note_on_c, 0, 43, 52
2, 47146, Note_on_c, 0, 43, 0
2, 47160, Note_on_c, 0, 43, 52
2, 47192, Note_on_c, 0, 43, 0
2, 47250, Note_on_c, 0, 43, 52
2, 47274, Note_on_c, 0, 43, 0
2, 47280, Note_on_c, 0, 41, 52
2, 47399, Note_on_c, 0, 41, 0
2, 47400, Note_on_c, 0, 40, 52
2, 47490, Note_on_c, 0, 38, 52
2, 47493, Note_on_c, 0, 40, 0
2, 47531, Note_on_c, 0, 38, 0
2, 47610, Note_on_c, 0, 45, 52
2, 47640, Note_on_c, 0, 45, 52
2, 47667, Note_on_c, 0, 45, 0
2, 47670, Note_on_c, 0, 47, 52
2, 47692, Note_on_c, 0, 47, 0
2, 47700, Note_on_c, 0, 50, 52
2, 47724, Note_on_c, 0, 50, 0
2, 47729, Note_on_c, 0, 45, 0
2, 47730, Note_on_c, 0, 47, 52
2, 47758, Note_on_c, 0, 47, 0
2, 47760, Note_on_c, 0, 50, 52
2, 47760, Note_on_c, 0, 38, 52
2, 47792, Note_on_c, 0, 38, 0
2, 47850, Note_on_c, 0, 38, 52
2, 47868, Note_on_c, 0, 38, 0
2, 47878, Note_on_c, 0, 50, 0
2, 47880, Note_on_c, 0, 38, 52
2, 47910, Note_on_c, 0, 38, 0
2, 47970, Note_on_c, 0, 38, 52
2, 47999, Note_on_c, 0, 38, 0
2, 48000, Note_on_c, 0, 43, 52
2, 48042, Note_on_c, 0, 43, 0
2, 48090, Note_on_c, 0, 43, 52
2, 48107, Note_on_c, 0, 43, 0
2, 48120, Note_on_c, 0, 43, 52
2, 48161, Note_on_c, 0, 43, 0
2, 48210, Note_on_c, 0, 43, 52
2, 48237, Note_on_c, 0, 43, 0
2, 48240, Note_on_c, 0, 45, 52
2, 48279, Note_on_c, 0, 45, 0
2, 48330, Note_on_c, 0, 45, 52
2, 48347, Note_on_c, 0, 45, 0
2, 48360, Note_on_c, 0, 45, 52
2, 48401, Note_on_c, 0, 45, 0
2, 48450, Note_on_c, 0, 45, 52
2, 48475, Note_on_c, 0, 45, 0
2, 48480, Note_on_c, 0, 47, 52
2, 48524, Note_on_c, 0, 47, 0
2, 48570, Note_on_c, 0, 47, 52
2, 48590, Note_on_c, 0, 47, 0
2, 48600, Note_on_c, 0, 47, 52
2, 48638, Note_on_c, 0, 47, 0
2, 48690, Note_on_c, 0, 47, 52
2, 48716, Note_on_c, 0, 47, 0
2, 48720, Note_on_c, 0, 50, 52
2, 48763, Note_on_c, 0, 50, 0
2, 48810, Note_on_c, 0, 50, 52
2, 48826, Note_on_c, 0, 50, 0
2, 48840, Note_on_c, 0, 50, 52
2, 48880, Note_on_c, 0, 50, 0
2, 48930, Note_on_c, 0, 50, 52
2, 48958, Note_on_c, 0, 50, 0
2, 48960, Note_on_c, 0, 43, 52
2, 49014, Note_on_c, 0, 43, 0
2, 49050, Note_on_c, 0, 43, 52
2, 49070, Note_on_c, 0, 43, 0
2, 49080, Note_on_c, 0, 43, 52
2, 49120, Note_on_c, 0, 43, 0
2, 49170, Note_on_c, 0, 43, 52
2, 49195, Note_on_c, 0, 43, 0
2, 49200, Note_on_c, 0, 41, 52
2, 49320, Note_on_c, 0, 40, 52
2, 49332, Note_on_c, 0, 41, 0
2, 49410, Note_on_c, 0, 40, 0
2, 49410, Note_on_c, 0, 38, 52
2, 49457, Note_on_c, 0, 38, 0
2, 49457, End_track
3, 0, Start_track
3, 0, MIDI_port, 0
3, 0, Title_t, "Jazz Guitar"
3, 0, Control_c, 1, 0, 56
3, 0, Control_c, 1, 32, 0
3, 0, Program_c, 1, 26
3, 0, Control_c, 1, 7, 107
3, 0, Control_c, 1, 10, 47
3, 3, Control_c, 1, 7, 90
3, 3, Control_c, 1, 10, 80
3, 656, Control_c, 1, 7, 127
3, 656, Control_c, 1, 10, 64
3, 663, Control_c, 1, 7, 127
3, 663, Control_c, 1, 10, 64
3, 956, Note_on_c, 1, 50, 74
3, 963, Note_on_c, 1, 50, 74
3, 978, Control_c, 1, 7, 120
3, 979, Note_on_c, 1, 50, 0
3, 985, Control_c, 1, 7, 120
3, 986, Note_on_c, 1, 50, 0
3, 986, Control_c, 1, 7, 114
3, 991, Control_c, 1, 7, 106
3, 991, Control_c, 1, 7, 107
3, 993, Control_c, 1, 7, 114
3, 998, Control_c, 1, 7, 106
3, 998, Control_c, 1, 7, 107
3, 1016, Note_on_c, 1, 50, 74
3, 1023, Note_on_c, 1, 50, 74
3, 1039, Note_on_c, 1, 50, 0
3, 1046, Note_on_c, 1, 50, 0
3, 1076, Note_on_c, 1, 50, 75
3, 1083, Note_on_c, 1, 50, 75
3, 1105, Note_on_c, 1, 50, 0
3, 1106, Note_on_c, 1, 52, 72
3, 1112, Note_on_c, 1, 50, 0
3, 1113, Note_on_c, 1, 52, 72
3, 1132, Note_on_c, 1, 52, 0
3, 1136, Note_on_c, 1, 54, 69
3, 1139, Note_on_c, 1, 52, 0
3, 1143, Note_on_c, 1, 54, 69
3, 1152, Note_on_c, 1, 54, 0
3, 1159, Note_on_c, 1, 54, 0
3, 1166, Note_on_c, 1, 55, 64
3, 1173, Note_on_c, 1, 55, 64
3, 1188, Note_on_c, 1, 55, 0
3, 1195, Note_on_c, 1, 55, 0
3, 1218, Control_c, 1, 10, 93
3, 1225, Control_c, 1, 10, 93
3, 1226, Note_on_c, 1, 55, 61
3, 1233, Note_on_c, 1, 55, 61
3, 1240, Control_c, 1, 10, 89
3, 1246, Note_on_c, 1, 55, 0
3, 1247, Control_c, 1, 10, 89
3, 1252, Control_c, 1, 10, 84
3, 1253, Note_on_c, 1, 55, 0
3, 1256, Control_c, 1, 10, 75
3, 1259, Control_c, 1, 10, 84
3, 1261, Control_c, 1, 10, 63
3, 1263, Control_c, 1, 10, 75
3, 1268, Control_c, 1, 10, 63
3, 1286, Note_on_c, 1, 55, 65
3, 1293, Note_on_c, 1, 55, 65
3, 1298, Control_c, 1, 10, 51
3, 1305, Control_c, 1, 10, 51
3, 1309, Note_on_c, 1, 55, 0
3, 1309, Control_c, 1, 10, 42
3, 1314, Control_c, 1, 10, 47
3, 1316, Note_on_c, 1, 55, 0
3, 1316, Control_c, 1, 10, 42
3, 1316, Control_c, 1, 10, 39
3, 1316, Note_on_c, 1, 57, 67
3, 1321, Control_c, 1, 10, 47
3, 1321, Control_c, 1, 10, 42
3, 1323, Control_c, 1, 10, 39
3, 1323, Note_on_c, 1, 57, 67
3, 1328, Control_c, 1, 10, 42
3, 1335, Note_on_c, 1, 57, 0
3, 1342, Note_on_c, 1, 57, 0
3, 1346, Note_on_c, 1, 59, 58
3, 1353, Note_on_c, 1, 59, 58
3, 1372, Note_on_c, 1, 59, 0
3, 1379, Note_on_c, 1, 59, 0
3, 1406, Control_c, 1, 10, 37
3, 1406, Control_c, 1, 10, 39
3, 1406, Note_on_c, 1, 60, 64
3, 1413, Control_c, 1, 10, 37
3, 1413, Control_c, 1, 10, 39
3, 1413, Note_on_c, 1, 60, 64
3, 1417, Control_c, 1, 10, 36
3, 1424, Control_c, 1, 10, 36
3, 1436, Control_c, 1, 10, 34
3, 1443, Control_c, 1, 10, 34
3, 1470, Control_c, 1, 10, 31
3, 1470, Control_c, 1, 10, 32
3, 1475, Control_c, 1, 10, 29
3, 1477, Control_c, 1, 10, 31
3, 1477, Control_c, 1, 10, 32
3, 1482, Control_c, 1, 10, 29
3, 1520, Control_c, 1, 10, 26
3, 1527, Control_c, 1, 10, 26
3, 1552, Control_c, 1, 10, 23
3, 1556, Control_c, 1, 10, 21
3, 1559, Control_c, 1, 10, 23
3, 1563, Control_c, 1, 10, 21
3, 1571, Control_c, 1, 10, 15
3, 1578, Control_c, 1, 10, 15
3, 1606, Control_c, 1, 10, 12
3, 1606, Control_c, 1, 10, 13
3, 1611, Control_c, 1, 10, 8
3, 1613, Control_c, 1, 10, 12
3, 1613, Control_c, 1, 10, 13
3, 1616, Control_c, 1, 10, 0
3, 1618, Control_c, 1, 10, 8
3, 1623, Control_c, 1, 10, 0
3, 1656, Note_on_c, 1, 60, 0
3, 1663, Note_on_c, 1, 60, 0
3, 1676, Note_on_c, 1, 66, 75
3, 1683, Note_on_c, 1, 66, 75
3, 1697, Note_on_c, 1, 66, 0
3, 1704, Note_on_c, 1, 66, 0
3, 1736, Note_on_c, 1, 66, 67
3, 1743, Note_on_c, 1, 66, 67
3, 1762, Note_on_c, 1, 66, 0
3, 1769, Note_on_c, 1, 66, 0
3, 1796, Note_on_c, 1, 67, 65
3, 1803, Note_on_c, 1, 67, 65
3, 1821, Note_on_c, 1, 67, 0
3, 1826, Note_on_c, 1, 66, 59
3, 1828, Note_on_c, 1, 67, 0
3, 1833, Note_on_c, 1, 66, 59
3, 1854, Note_on_c, 1, 66, 0
3, 1861, Note_on_c, 1, 66, 0
3, 1976, Note_on_c, 1, 50, 74
3, 1983, Note_on_c, 1, 50, 74
3, 1990, Note_on_c, 1, 50, 0
3, 1997, Note_on_c, 1, 50, 0
3, 2036, Note_on_c, 1, 50, 72
3, 2043, Note_on_c, 1, 50, 72
3, 2065, Note_on_c, 1, 50, 0
3, 2066, Note_on_c, 1, 52, 79
3, 2072, Note_on_c, 1, 50, 0
3, 2073, Note_on_c, 1, 52, 79
3, 2075, Control_c, 1, 10, 14
3, 2082, Control_c, 1, 10, 14
3, 2085, Control_c, 1, 10, 27
3, 2087, Control_c, 1, 10, 33
3, 2090, Note_on_c, 1, 52, 0
3, 2092, Control_c, 1, 10, 27
3, 2094, Control_c, 1, 10, 33
3, 2096, Control_c, 1, 10, 38
3, 2096, Note_on_c, 1, 54, 72
3, 2097, Note_on_c, 1, 52, 0
3, 2101, Control_c, 1, 10, 42
3, 2103, Control_c, 1, 10, 38
3, 2103, Note_on_c, 1, 54, 72
3, 2106, Control_c, 1, 10, 45
3, 2108, Control_c, 1, 10, 42
3, 2112, Note_on_c, 1, 54, 0
3, 2113, Control_c, 1, 10, 45
3, 2118, Control_c, 1, 10, 47
3, 2119, Note_on_c, 1, 54, 0
3, 2125, Control_c, 1, 10, 47
3, 2126, Note_on_c, 1, 55, 65
3, 2133, Note_on_c, 1, 55, 65
3, 2149, Note_on_c, 1, 55, 0
3, 2156, Note_on_c, 1, 55, 0
3, 2186, Note_on_c, 1, 55, 59
3, 2193, Note_on_c, 1, 55, 59
3, 2213, Note_on_c, 1, 55, 0
3, 2220, Note_on_c, 1, 55, 0
3, 2246, Note_on_c, 1, 55, 63
3, 2253, Note_on_c, 1, 55, 63
3, 2260, Note_on_c, 1, 55, 0
3, 2267, Note_on_c, 1, 55, 0
3, 2276, Note_on_c, 1, 54, 72
3, 2283, Note_on_c, 1, 54, 72
3, 2297, Note_on_c, 1, 54, 0
3, 2304, Note_on_c, 1, 54, 0
3, 2306, Note_on_c, 1, 52, 74
3, 2313, Note_on_c, 1, 52, 74
3, 2321, Note_on_c, 1, 52, 0
3, 2328, Note_on_c, 1, 52, 0
3, 2396, Note_on_c, 1, 50, 87
3, 2403, Note_on_c, 1, 50, 87
3, 2502, Note_on_c, 1, 50, 0
3, 2509, Note_on_c, 1, 50, 0
3, 2546, Note_on_c, 1, 50, 84
3, 2553, Note_on_c, 1, 50, 84
3, 2568, Note_on_c, 1, 50, 0
3, 2575, Note_on_c, 1, 50, 0
3, 2606, Note_on_c, 1, 50, 75
3, 2613, Note_on_c, 1, 50, 75
3, 2713, Note_on_c, 1, 50, 0
3, 2720, Note_on_c, 1, 50, 0
3, 2726, Note_on_c, 1, 45, 72
3, 2733, Note_on_c, 1, 45, 72
3, 2756, Note_on_c, 1, 45, 58
3, 2763, Note_on_c, 1, 45, 58
3, 2786, Note_on_c, 1, 45, 0
3, 2786, Note_on_c, 1, 47, 61
3, 2793, Note_on_c, 1, 45, 0
3, 2793, Note_on_c, 1, 47, 61
3, 2809, Note_on_c, 1, 47, 0
3, 2816, Note_on_c, 1, 47, 0
3, 2816, Note_on_c, 1, 50, 60
3, 2823, Note_on_c, 1, 50, 60
3, 2845, Note_on_c, 1, 45, 0
3, 2846, Note_on_c, 1, 47, 65
3, 2852, Note_on_c, 1, 45, 0
3, 2853, Note_on_c, 1, 50, 0
3, 2853, Note_on_c, 1, 47, 65
3, 2860, Note_on_c, 1, 50, 0
3, 2869, Note_on_c, 1, 47, 0
3, 2876, Note_on_c, 1, 47, 0
3, 2876, Note_on_c, 1, 50, 54
3, 2876, Note_on_c, 1, 50, 74
3, 2883, Note_on_c, 1, 50, 54
3, 2883, Note_on_c, 1, 50, 74
3, 2899, Note_on_c, 1, 50, 0
3, 2906, Note_on_c, 1, 50, 0
3, 2936, Note_on_c, 1, 50, 74
3, 2943, Note_on_c, 1, 50, 74
3, 2959, Note_on_c, 1, 50, 0
3, 2966, Note_on_c, 1, 50, 0
3, 2996, Note_on_c, 1, 50, 75
3, 3003, Note_on_c, 1, 50, 75
3, 3025, Note_on_c, 1, 50, 0
3, 3026, Note_on_c, 1, 52, 72
3, 3032, Note_on_c, 1, 50, 0
3, 3033, Note_on_c, 1, 52, 72
3, 3052, Note_on_c, 1, 52, 0
3, 3056, Note_on_c, 1, 54, 69
3, 3059, Note_on_c, 1, 52, 0
3, 3063, Note_on_c, 1, 54, 69
3, 3072, Note_on_c, 1, 54, 0
3, 3076, Control_c, 1, 10, 89
3, 3079, Note_on_c, 1, 54, 0
3, 3083, Control_c, 1, 10, 89
3, 3086, Note_on_c, 1, 55, 64
3, 3093, Note_on_c, 1, 55, 64
3, 3107, Note_on_c, 1, 50, 0
3, 3108, Note_on_c, 1, 55, 0
3, 3114, Note_on_c, 1, 50, 0
3, 3115, Note_on_c, 1, 55, 0
3, 3146, Note_on_c, 1, 55, 61
3, 3153, Note_on_c, 1, 55, 61
3, 3166, Note_on_c, 1, 55, 0
3, 3173, Note_on_c, 1, 55, 0
3, 3206, Note_on_c, 1, 55, 65
3, 3213, Note_on_c, 1, 55, 65
3, 3229, Note_on_c, 1, 55, 0
3, 3236, Note_on_c, 1, 55, 0
3, 3236, Note_on_c, 1, 57, 67
3, 3243, Note_on_c, 1, 57, 67
3, 3255, Note_on_c, 1, 57, 0
3, 3262, Note_on_c, 1, 57, 0
3, 3266, Note_on_c, 1, 59, 58
3, 3273, Note_on_c, 1, 59, 58
3, 3292, Note_on_c, 1, 59, 0
3, 3299, Note_on_c, 1, 59, 0
3, 3321, Control_c, 1, 10, 56
3, 3326, Note_on_c, 1, 60, 64
3, 3328, Control_c, 1, 10, 56
3, 3331, Control_c, 1, 10, 53
3, 3333, Note_on_c, 1, 60, 64
3, 3338, Control_c, 1, 10, 53
3, 3342, Control_c, 1, 10, 49
3, 3349, Control_c, 1, 10, 49
3, 3361, Control_c, 1, 10, 46
3, 3366, Control_c, 1, 10, 44
3, 3368, Control_c, 1, 10, 46
3, 3373, Control_c, 1, 10, 44
3, 3382, Control_c, 1, 10, 42
3, 3387, Control_c, 1, 10, 39
3, 3389, Control_c, 1, 10, 42
3, 3392, Control_c, 1, 10, 37
3, 3394, Control_c, 1, 10, 39
3, 3399, Control_c, 1, 10, 37
3, 3405, Control_c, 1, 10, 92
3, 3412, Control_c, 1, 10, 92
3, 3421, Control_c, 1, 10, 89
3, 3426, Control_c, 1, 10, 88
3, 3428, Control_c, 1, 10, 89
3, 3431, Control_c, 1, 10, 84
3, 3433, Control_c, 1, 10, 88
3, 3436, Control_c, 1, 10, 75
3, 3438, Control_c, 1, 10, 84
3, 3440, Control_c, 1, 10, 72
3, 3443, Control_c, 1, 10, 75
3, 3446, Control_c, 1, 10, 66
3, 3446, Control_c, 1, 10, 69
3, 3447, Control_c, 1, 10, 72
3, 3451, Control_c, 1, 10, 63
3, 3453, Control_c, 1, 10, 66
3, 3453, Control_c, 1, 10, 69
3, 3458, Control_c, 1, 10, 63
3, 3458, Control_c, 1, 10, 54
3, 3458, Control_c, 1, 10, 57
3, 3463, Control_c, 1, 10, 44
3, 3465, Control_c, 1, 10, 54
3, 3465, Control_c, 1, 10, 57
3, 3468, Control_c, 1, 10, 34
3, 3470, Control_c, 1, 10, 44
3, 3473, Control_c, 1, 10, 32
3, 3475, Control_c, 1, 10, 34
3, 3476, Control_c, 1, 10, 29
3, 3480, Control_c, 1, 10, 32
3, 3483, Control_c, 1, 10, 29
3, 3510, Control_c, 1, 10, 30
3, 3515, Control_c, 1, 10, 31
3, 3517, Control_c, 1, 10, 30
3, 3517, Control_c, 1, 10, 32
3, 3522, Control_c, 1, 10, 31
3, 3524, Control_c, 1, 10, 32
3, 3527, Control_c, 1, 10, 38
3, 3527, Control_c, 1, 10, 37
3, 3534, Control_c, 1, 10, 38
3, 3534, Control_c, 1, 10, 37
3, 3546, Control_c, 1, 10, 40
3, 3553, Control_c, 1, 10, 40
3, 3557, Control_c, 1, 10, 42
3, 3564, Control_c, 1, 10, 42
3, 3571, Control_c, 1, 10, 43
3, 3576, Note_on_c, 1, 60, 0
3, 3577, Control_c, 1, 10, 45
3, 3578, Control_c, 1, 10, 43
3, 3582, Control_c, 1, 10, 46
3, 3583, Note_on_c, 1, 60, 0
3, 3584, Control_c, 1, 10, 45
3, 3589, Control_c, 1, 10, 46
3, 3596, Note_on_c, 1, 66, 75
3, 3603, Note_on_c, 1, 66, 75
3, 3617, Note_on_c, 1, 66, 0
3, 3624, Note_on_c, 1, 66, 0
3, 3656, Note_on_c, 1, 66, 67
3, 3663, Note_on_c, 1, 66, 67
3, 3682, Note_on_c, 1, 66, 0
3, 3689, Note_on_c, 1, 66, 0
3, 3716, Note_on_c, 1, 67, 65
3, 3723, Note_on_c, 1, 67, 65
3, 3741, Note_on_c, 1, 67, 0
3, 3746, Note_on_c, 1, 66, 59
3, 3748, Note_on_c, 1, 67, 0
3, 3753, Note_on_c, 1, 66, 59
3, 3774, Note_on_c, 1, 66, 0
3, 3781, Note_on_c, 1, 66, 0
3, 3896, Note_on_c, 1, 50, 74
3, 3903, Note_on_c, 1, 50, 74
3, 3910, Note_on_c, 1, 50, 0
3, 3917, Note_on_c, 1, 50, 0
3, 3956, Note_on_c, 1, 50, 72
3, 3963, Note_on_c, 1, 50, 72
3, 3985, Note_on_c, 1, 50, 0
3, 3986, Note_on_c, 1, 52, 79
3, 3992, Note_on_c, 1, 50, 0
3, 3993, Note_on_c, 1, 52, 79
3, 4010, Note_on_c, 1, 52, 0
3, 4016, Note_on_c, 1, 54, 72
3, 4017, Note_on_c, 1, 52, 0
3, 4023, Note_on_c, 1, 54, 72
3, 4032, Note_on_c, 1, 54, 0
3, 4039, Note_on_c, 1, 54, 0
3, 4046, Note_on_c, 1, 55, 65
3, 4053, Note_on_c, 1, 55, 65
3, 4069, Note_on_c, 1, 55, 0
3, 4076, Note_on_c, 1, 55, 0
3, 4106, Note_on_c, 1, 55, 59
3, 4113, Note_on_c, 1, 55, 59
3, 4133, Note_on_c, 1, 55, 0
3, 4140, Note_on_c, 1, 55, 0
3, 4166, Note_on_c, 1, 55, 63
3, 4173, Note_on_c, 1, 55, 63
3, 4180, Note_on_c, 1, 55, 0
3, 4187, Note_on_c, 1, 55, 0
3, 4196, Note_on_c, 1, 54, 72
3, 4203, Note_on_c, 1, 54, 72
3, 4217, Note_on_c, 1, 54, 0
3, 4224, Note_on_c, 1, 54, 0
3, 4226, Note_on_c, 1, 52, 74
3, 4233, Note_on_c, 1, 52, 74
3, 4241, Note_on_c, 1, 52, 0
3, 4248, Note_on_c, 1, 52, 0
3, 4316, Note_on_c, 1, 50, 87
3, 4323, Note_on_c, 1, 50, 87
3, 4422, Note_on_c, 1, 50, 0
3, 4429, Note_on_c, 1, 50, 0
3, 4466, Note_on_c, 1, 50, 84
3, 4473, Note_on_c, 1, 50, 84
3, 4488, Note_on_c, 1, 50, 0
3, 4495, Note_on_c, 1, 50, 0
3, 4526, Note_on_c, 1, 50, 75
3, 4533, Note_on_c, 1, 50, 75
3, 4633, Note_on_c, 1, 50, 0
3, 4640, Note_on_c, 1, 50, 0
3, 4646, Note_on_c, 1, 45, 72
3, 4653, Note_on_c, 1, 45, 72
3, 4676, Note_on_c, 1, 45, 58
3, 4683, Note_on_c, 1, 45, 58
3, 4706, Note_on_c, 1, 45, 0
3, 4706, Note_on_c, 1, 47, 61
3, 4713, Note_on_c, 1, 45, 0
3, 4713, Note_on_c, 1, 47, 61
3, 4729, Note_on_c, 1, 47, 0
3, 4736, Note_on_c, 1, 47, 0
3, 4736, Note_on_c, 1, 50, 60
3, 4743, Note_on_c, 1, 50, 60
3, 4765, Note_on_c, 1, 45, 0
3, 4766, Note_on_c, 1, 47, 65
3, 4772, Note_on_c, 1, 45, 0
3, 4773, Note_on_c, 1, 50, 0
3, 4773, Note_on_c, 1, 47, 65
3, 4780, Note_on_c, 1, 50, 0
3, 4789, Note_on_c, 1, 47, 0
3, 4796, Note_on_c, 1, 47, 0
3, 4796, Note_on_c, 1, 50, 54
3, 4803, Note_on_c, 1, 50, 54
3, 4819, Note_on_c, 1, 50, 0
3, 4826, Note_on_c, 1, 50, 0
3, 6566, Note_on_c, 1, 45, 72
3, 6573, Note_on_c, 1, 45, 72
3, 6596, Note_on_c, 1, 45, 58
3, 6603, Note_on_c, 1, 45, 58
3, 6626, Note_on_c, 1, 45, 0
3, 6626, Note_on_c, 1, 47, 61
3, 6633, Note_on_c, 1, 45, 0
3, 6633, Note_on_c, 1, 47, 61
3, 6649, Note_on_c, 1, 47, 0
3, 6656, Note_on_c, 1, 47, 0
3, 6656, Note_on_c, 1, 50, 60
3, 6663, Note_on_c, 1, 50, 60
3, 6685, Note_on_c, 1, 45, 0
3, 6686, Note_on_c, 1, 47, 65
3, 6692, Note_on_c, 1, 45, 0
3, 6693, Note_on_c, 1, 50, 0
3, 6693, Note_on_c, 1, 47, 65
3, 6700, Note_on_c, 1, 50, 0
3, 6709, Note_on_c, 1, 47, 0
3, 6716, Note_on_c, 1, 47, 0
3, 6716, Note_on_c, 1, 50, 54
3, 6723, Note_on_c, 1, 50, 54
3, 6746, Note_on_c, 1, 50, 0
3, 6753, Note_on_c, 1, 50, 0
3, 8486, Note_on_c, 1, 45, 72
3, 8493, Note_on_c, 1, 45, 72
3, 8516, Note_on_c, 1, 45, 58
3, 8523, Note_on_c, 1, 45, 58
3, 8546, Note_on_c, 1, 45, 0
3, 8546, Note_on_c, 1, 47, 61
3, 8553, Note_on_c, 1, 45, 0
3, 8553, Note_on_c, 1, 47, 61
3, 8569, Note_on_c, 1, 47, 0
3, 8576, Note_on_c, 1, 47, 0
3, 8576, Note_on_c, 1, 50, 60
3, 8583, Note_on_c, 1, 50, 60
3, 8605, Note_on_c, 1, 45, 0
3, 8606, Note_on_c, 1, 47, 65
3, 8612, Note_on_c, 1, 45, 0
3, 8613, Note_on_c, 1, 50, 0
3, 8613, Note_on_c, 1, 47, 65
3, 8620, Note_on_c, 1, 50, 0
3, 8629, Note_on_c, 1, 47, 0
3, 8636, Note_on_c, 1, 47, 0
3, 8636, Note_on_c, 1, 50, 54
3, 8643, Note_on_c, 1, 50, 54
3, 8666, Note_on_c, 1, 50, 0
3, 8673, Note_on_c, 1, 50, 0
3, 10406, Note_on_c, 1, 45, 72
3, 10413, Note_on_c, 1, 45, 72
3, 10436, Note_on_c, 1, 45, 58
3, 10443, Note_on_c, 1, 45, 58
3, 10466, Note_on_c, 1, 45, 0
3, 10466, Note_on_c, 1, 47, 61
3, 10473, Note_on_c, 1, 45, 0
3, 10473, Note_on_c, 1, 47, 61
3, 10489, Note_on_c, 1, 47, 0
3, 10496, Note_on_c, 1, 47, 0
3, 10496, Note_on_c, 1, 50, 60
3, 10503, Note_on_c, 1, 50, 60
3, 10525, Note_on_c, 1, 45, 0
3, 10526, Note_on_c, 1, 47, 65
3, 10532, Note_on_c, 1, 45, 0
3, 10533, Note_on_c, 1, 50, 0
3, 10533, Note_on_c, 1, 47, 65
3, 10540, Note_on_c, 1, 50, 0
3, 10549, Note_on_c, 1, 47, 0
3, 10556, Note_on_c, 1, 47, 0
3, 10556, Note_on_c, 1, 50, 54
3, 10563, Note_on_c, 1, 50, 54
3, 10586, Note_on_c, 1, 50, 0
3, 10593, Note_on_c, 1, 50, 0
3, 12326, Note_on_c, 1, 45, 72
3, 12333, Note_on_c, 1, 45, 72
3, 12356, Note_on_c, 1, 45, 58
3, 12363, Note_on_c, 1, 45, 58
3, 12386, Note_on_c, 1, 45, 0
3, 12386, Note_on_c, 1, 47, 61
3, 12393, Note_on_c, 1, 45, 0
3, 12393, Note_on_c, 1, 47, 61
3, 12409, Note_on_c, 1, 47, 0
3, 12416, Note_on_c, 1, 47, 0
3, 12416, Note_on_c, 1, 50, 60
3, 12423, Note_on_c, 1, 50, 60
3, 12445, Note_on_c, 1, 45, 0
3, 12446, Note_on_c, 1, 47, 65
3, 12452, Note_on_c, 1, 45, 0
3, 12453, Note_on_c, 1, 50, 0
3, 12453, Note_on_c, 1, 47, 65
3, 12460, Note_on_c, 1, 50, 0
3, 12469, Note_on_c, 1, 47, 0
3, 12476, Note_on_c, 1, 47, 0
3, 16316, Note_on_c, 1, 50, 74
3, 16323, Note_on_c, 1, 50, 74
3, 16339, Note_on_c, 1, 50, 0
3, 16346, Note_on_c, 1, 50, 0
3, 16376, Note_on_c, 1, 50, 74
3, 16383, Note_on_c, 1, 50, 74
3, 16399, Note_on_c, 1, 50, 0
3, 16406, Note_on_c, 1, 50, 0
3, 16436, Note_on_c, 1, 50, 75
3, 16443, Note_on_c, 1, 50, 75
3, 16465, Note_on_c, 1, 50, 0
3, 16466, Note_on_c, 1, 52, 72
3, 16472, Note_on_c, 1, 50, 0
3, 16473, Note_on_c, 1, 52, 72
3, 16492, Note_on_c, 1, 52, 0
3, 16496, Note_on_c, 1, 54, 69
3, 16499, Note_on_c, 1, 52, 0
3, 16503, Note_on_c, 1, 54, 69
3, 16512, Note_on_c, 1, 54, 0
3, 16519, Note_on_c, 1, 54, 0
3, 16526, Note_on_c, 1, 55, 64
3, 16533, Note_on_c, 1, 55, 64
3, 16548, Note_on_c, 1, 55, 0
3, 16555, Note_on_c, 1, 55, 0
3, 16586, Note_on_c, 1, 55, 61
3, 16593, Note_on_c, 1, 55, 61
3, 16606, Note_on_c, 1, 55, 0
3, 16613, Note_on_c, 1, 55, 0
3, 16646, Note_on_c, 1, 55, 65
3, 16653, Note_on_c, 1, 55, 65
3, 16669, Note_on_c, 1, 55, 0
3, 16676, Note_on_c, 1, 55, 0
3, 16676, Note_on_c, 1, 57, 67
3, 16683, Note_on_c, 1, 57, 67
3, 16695, Note_on_c, 1, 57, 0
3, 16702, Note_on_c, 1, 57, 0
3, 16706, Note_on_c, 1, 59, 58
3, 16713, Note_on_c, 1, 59, 58
3, 16732, Note_on_c, 1, 59, 0
3, 16739, Note_on_c, 1, 59, 0
3, 16766, Note_on_c, 1, 60, 64
3, 16773, Note_on_c, 1, 60, 64
3, 17016, Note_on_c, 1, 60, 0
3, 17023, Note_on_c, 1, 60, 0
3, 17036, Note_on_c, 1, 66, 75
3, 17043, Note_on_c, 1, 66, 75
3, 17057, Note_on_c, 1, 66, 0
3, 17064, Note_on_c, 1, 66, 0
3, 17096, Note_on_c, 1, 66, 67
3, 17103, Note_on_c, 1, 66, 67
3, 17122, Note_on_c, 1, 66, 0
3, 17129, Note_on_c, 1, 66, 0
3, 17156, Note_on_c, 1, 67, 65
3, 17163, Note_on_c, 1, 67, 65
3, 17181, Note_on_c, 1, 67, 0
3, 17186, Note_on_c, 1, 66, 59
3, 17188, Note_on_c, 1, 67, 0
3, 17193, Note_on_c, 1, 66, 59
3, 17214, Note_on_c, 1, 66, 0
3, 17221, Note_on_c, 1, 66, 0
3, 17336, Note_on_c, 1, 50, 74
3, 17343, Note_on_c, 1, 50, 74
3, 17350, Note_on_c, 1, 50, 0
3, 17357, Note_on_c, 1, 50, 0
3, 17396, Note_on_c, 1, 50, 72
3, 17403, Note_on_c, 1, 50, 72
3, 17425, Note_on_c, 1, 50, 0
3, 17426, Note_on_c, 1, 52, 79
3, 17432, Note_on_c, 1, 50, 0
3, 17433, Note_on_c, 1, 52, 79
3, 17450, Note_on_c, 1, 52, 0
3, 17456, Note_on_c, 1, 54, 72
3, 17457, Note_on_c, 1, 52, 0
3, 17463, Note_on_c, 1, 54, 72
3, 17472, Note_on_c, 1, 54, 0
3, 17479, Note_on_c, 1, 54, 0
3, 17486, Note_on_c, 1, 55, 65
3, 17493, Note_on_c, 1, 55, 65
3, 17509, Note_on_c, 1, 55, 0
3, 17516, Note_on_c, 1, 55, 0
3, 17546, Note_on_c, 1, 55, 59
3, 17553, Note_on_c, 1, 55, 59
3, 17573, Note_on_c, 1, 55, 0
3, 17580, Note_on_c, 1, 55, 0
3, 17606, Note_on_c, 1, 55, 63
3, 17613, Note_on_c, 1, 55, 63
3, 17620, Note_on_c, 1, 55, 0
3, 17627, Note_on_c, 1, 55, 0
3, 17636, Note_on_c, 1, 54, 72
3, 17643, Note_on_c, 1, 54, 72
3, 17657, Note_on_c, 1, 54, 0
3, 17664, Note_on_c, 1, 54, 0
3, 17666, Note_on_c, 1, 52, 74
3, 17673, Note_on_c, 1, 52, 74
3, 17681, Note_on_c, 1, 52, 0
3, 17688, Note_on_c, 1, 52, 0
3, 17756, Note_on_c, 1, 50, 87
3, 17763, Note_on_c, 1, 50, 87
3, 17862, Note_on_c, 1, 50, 0
3, 17869, Note_on_c, 1, 50, 0
3, 17906, Note_on_c, 1, 50, 84
3, 17913, Note_on_c, 1, 50, 84
3, 17928, Note_on_c, 1, 50, 0
3, 17935, Note_on_c, 1, 50, 0
3, 17966, Note_on_c, 1, 50, 75
3, 17973, Note_on_c, 1, 50, 75
3, 18073, Note_on_c, 1, 50, 0
3, 18080, Note_on_c, 1, 50, 0
3, 18086, Note_on_c, 1, 45, 72
3, 18093, Note_on_c, 1, 45, 72
3, 18116, Note_on_c, 1, 45, 58
3, 18123, Note_on_c, 1, 45, 58
3, 18146, Note_on_c, 1, 45, 0
3, 18146, Note_on_c, 1, 47, 61
3, 18153, Note_on_c, 1, 45, 0
3, 18153, Note_on_c, 1, 47, 61
3, 18169, Note_on_c, 1, 47, 0
3, 18176, Note_on_c, 1, 47, 0
3, 18176, Note_on_c, 1, 50, 60
3, 18183, Note_on_c, 1, 50, 60
3, 18205, Note_on_c, 1, 45, 0
3, 18206, Note_on_c, 1, 47, 65
3, 18212, Note_on_c, 1, 45, 0
3, 18213, Note_on_c, 1, 50, 0
3, 18213, Note_on_c, 1, 47, 65
3, 18220, Note_on_c, 1, 50, 0
3, 18229, Note_on_c, 1, 47, 0
3, 18236, Note_on_c, 1, 47, 0
3, 18236, Note_on_c, 1, 50, 54
3, 18236, Note_on_c, 1, 50, 74
3, 18243, Note_on_c, 1, 50, 54
3, 18243, Note_on_c, 1, 50, 74
3, 18259, Note_on_c, 1, 50, 0
3, 18266, Note_on_c, 1, 50, 0
3, 18266, Note_on_c, 1, 50, 0
3, 18273, Note_on_c, 1, 50, 0
3, 18296, Note_on_c, 1, 50, 74
3, 18303, Note_on_c, 1, 50, 74
3, 18319, Note_on_c, 1, 50, 0
3, 18326, Note_on_c, 1, 50, 0
3, 18356, Note_on_c, 1, 50, 75
3, 18363, Note_on_c, 1, 50, 75
3, 18385, Note_on_c, 1, 50, 0
3, 18386, Note_on_c, 1, 52, 72
3, 18392, Note_on_c, 1, 50, 0
3, 18393, Note_on_c, 1, 52, 72
3, 18412, Note_on_c, 1, 52, 0
3, 18416, Note_on_c, 1, 54, 69
3, 18419, Note_on_c, 1, 52, 0
3, 18423, Note_on_c, 1, 54, 69
3, 18432, Note_on_c, 1, 54, 0
3, 18439, Note_on_c, 1, 54, 0
3, 18446, Note_on_c, 1, 55, 64
3, 18453, Note_on_c, 1, 55, 64
3, 18468, Note_on_c, 1, 55, 0
3, 18475, Note_on_c, 1, 55, 0
3, 18506, Note_on_c, 1, 55, 61
3, 18513, Note_on_c, 1, 55, 61
3, 18526, Note_on_c, 1, 55, 0
3, 18533, Note_on_c, 1, 55, 0
3, 18566, Note_on_c, 1, 55, 65
3, 18573, Note_on_c, 1, 55, 65
3, 18589, Note_on_c, 1, 55, 0
3, 18596, Note_on_c, 1, 55, 0
3, 18596, Note_on_c, 1, 57, 67
3, 18603, Note_on_c, 1, 57, 67
3, 18615, Note_on_c, 1, 57, 0
3, 18622, Note_on_c, 1, 57, 0
3, 18626, Note_on_c, 1, 59, 58
3, 18633, Note_on_c, 1, 59, 58
3, 18652, Note_on_c, 1, 59, 0
3, 18659, Note_on_c, 1, 59, 0
3, 18686, Note_on_c, 1, 60, 64
3, 18693, Note_on_c, 1, 60, 64
3, 18936, Note_on_c, 1, 60, 0
3, 18943, Note_on_c, 1, 60, 0
3, 18956, Note_on_c, 1, 66, 75
3, 18963, Note_on_c, 1, 66, 75
3, 18977, Note_on_c, 1, 66, 0
3, 18984, Note_on_c, 1, 66, 0
3, 19016, Note_on_c, 1, 66, 67
3, 19023, Note_on_c, 1, 66, 67
3, 19042, Note_on_c, 1, 66, 0
3, 19049, Note_on_c, 1, 66, 0
3, 19076, Note_on_c, 1, 67, 65
3, 19083, Note_on_c, 1, 67, 65
3, 19101, Note_on_c, 1, 67, 0
3, 19106, Note_on_c, 1, 66, 59
3, 19108, Note_on_c, 1, 67, 0
3, 19113, Note_on_c, 1, 66, 59
3, 19134, Note_on_c, 1, 66, 0
3, 19141, Note_on_c, 1, 66, 0
3, 19256, Note_on_c, 1, 50, 74
3, 19263, Note_on_c, 1, 50, 74
3, 19270, Note_on_c, 1, 50, 0
3, 19277, Note_on_c, 1, 50, 0
3, 19316, Note_on_c, 1, 50, 72
3, 19323, Note_on_c, 1, 50, 72
3, 19345, Note_on_c, 1, 50, 0
3, 19346, Note_on_c, 1, 52, 79
3, 19352, Note_on_c, 1, 50, 0
3, 19353, Note_on_c, 1, 52, 79
3, 19370, Note_on_c, 1, 52, 0
3, 19376, Note_on_c, 1, 54, 72
3, 19377, Note_on_c, 1, 52, 0
3, 19383, Note_on_c, 1, 54, 72
3, 19392, Note_on_c, 1, 54, 0
3, 19399, Note_on_c, 1, 54, 0
3, 19406, Note_on_c, 1, 55, 65
3, 19413, Note_on_c, 1, 55, 65
3, 19429, Note_on_c, 1, 55, 0
3, 19436, Note_on_c, 1, 55, 0
3, 19466, Note_on_c, 1, 55, 59
3, 19473, Note_on_c, 1, 55, 59
3, 19493, Note_on_c, 1, 55, 0
3, 19500, Note_on_c, 1, 55, 0
3, 19526, Note_on_c, 1, 55, 63
3, 19533, Note_on_c, 1, 55, 63
3, 19540, Note_on_c, 1, 55, 0
3, 19547, Note_on_c, 1, 55, 0
3, 19556, Note_on_c, 1, 54, 72
3, 19563, Note_on_c, 1, 54, 72
3, 19577, Note_on_c, 1, 54, 0
3, 19584, Note_on_c, 1, 54, 0
3, 19586, Note_on_c, 1, 52, 74
3, 19593, Note_on_c, 1, 52, 74
3, 19601, Note_on_c, 1, 52, 0
3, 19608, Note_on_c, 1, 52, 0
3, 19676, Note_on_c, 1, 50, 87
3, 19683, Note_on_c, 1, 50, 87
3, 19782, Note_on_c, 1, 50, 0
3, 19789, Note_on_c, 1, 50, 0
3, 19826, Note_on_c, 1, 50, 84
3, 19833, Note_on_c, 1, 50, 84
3, 19848, Note_on_c, 1, 50, 0
3, 19855, Note_on_c, 1, 50, 0
3, 19886, Note_on_c, 1, 50, 75
3, 19893, Note_on_c, 1, 50, 75
3, 19993, Note_on_c, 1, 50, 0
3, 20000, Note_on_c, 1, 50, 0
3, 20006, Note_on_c, 1, 45, 72
3, 20013, Note_on_c, 1, 45, 72
3, 20036, Note_on_c, 1, 45, 58
3, 20043, Note_on_c, 1, 45, 58
3, 20066, Note_on_c, 1, 45, 0
3, 20066, Note_on_c, 1, 47, 61
3, 20073, Note_on_c, 1, 45, 0
3, 20073, Note_on_c, 1, 47, 61
3, 20089, Note_on_c, 1, 47, 0
3, 20096, Note_on_c, 1, 47, 0
3, 20096, Note_on_c, 1, 50, 60
3, 20103, Note_on_c, 1, 50, 60
3, 20125, Note_on_c, 1, 45, 0
3, 20126, Note_on_c, 1, 47, 65
3, 20132, Note_on_c, 1, 45, 0
3, 20133, Note_on_c, 1, 50, 0
3, 20133, Note_on_c, 1, 47, 65
3, 20140, Note_on_c, 1, 50, 0
3, 20149, Note_on_c, 1, 47, 0
3, 20156, Note_on_c, 1, 47, 0
3, 20156, Note_on_c, 1, 50, 54
3, 20156, Note_on_c, 1, 50, 74
3, 20163, Note_on_c, 1, 50, 54
3, 20163, Note_on_c, 1, 50, 74
3, 20179, Note_on_c, 1, 50, 0
3, 20186, Note_on_c, 1, 50, 0
3, 20186, Note_on_c, 1, 50, 0
3, 20193, Note_on_c, 1, 50, 0
3, 20216, Note_on_c, 1, 50, 74
3, 20223, Note_on_c, 1, 50, 74
3, 20239, Note_on_c, 1, 50, 0
3, 20246, Note_on_c, 1, 50, 0
3, 20276, Note_on_c, 1, 50, 75
3, 20283, Note_on_c, 1, 50, 75
3, 20305, Note_on_c, 1, 50, 0
3, 20306, Note_on_c, 1, 52, 72
3, 20312, Note_on_c, 1, 50, 0
3, 20313, Note_on_c, 1, 52, 72
3, 20332, Note_on_c, 1, 52, 0
3, 20336, Note_on_c, 1, 54, 69
3, 20339, Note_on_c, 1, 52, 0
3, 20343, Note_on_c, 1, 54, 69
3, 20352, Note_on_c, 1, 54, 0
3, 20359, Note_on_c, 1, 54, 0
3, 20366, Note_on_c, 1, 55, 64
3, 20373, Note_on_c, 1, 55, 64
3, 20388, Note_on_c, 1, 55, 0
3, 20395, Note_on_c, 1, 55, 0
3, 20426, Note_on_c, 1, 55, 61
3, 20433, Note_on_c, 1, 55, 61
3, 20446, Note_on_c, 1, 55, 0
3, 20453, Note_on_c, 1, 55, 0
3, 20486, Note_on_c, 1, 55, 65
3, 20493, Note_on_c, 1, 55, 65
3, 20509, Note_on_c, 1, 55, 0
3, 20516, Note_on_c, 1, 55, 0
3, 20516, Note_on_c, 1, 57, 67
3, 20523, Note_on_c, 1, 57, 67
3, 20535, Note_on_c, 1, 57, 0
3, 20542, Note_on_c, 1, 57, 0
3, 20546, Note_on_c, 1, 59, 58
3, 20553, Note_on_c, 1, 59, 58
3, 20572, Note_on_c, 1, 59, 0
3, 20579, Note_on_c, 1, 59, 0
3, 20606, Note_on_c, 1, 60, 64
3, 20613, Note_on_c, 1, 60, 64
3, 20846, Note_on_c, 1, 66, 67
3, 20853, Note_on_c, 1, 66, 67
3, 20856, Note_on_c, 1, 60, 0
3, 20863, Note_on_c, 1, 60, 0
3, 20888, Note_on_c, 1, 66, 0
3, 20895, Note_on_c, 1, 66, 0
3, 20906, Note_on_c, 1, 66, 58
3, 20913, Note_on_c, 1, 66, 58
3, 20929, Note_on_c, 1, 66, 0
3, 20936, Note_on_c, 1, 66, 0
3, 20936, Note_on_c, 1, 67, 62
3, 20943, Note_on_c, 1, 67, 62
3, 20964, Note_on_c, 1, 67, 0
3, 20966, Note_on_c, 1, 66, 75
3, 20971, Note_on_c, 1, 67, 0
3, 20973, Note_on_c, 1, 66, 75
3, 20986, Note_on_c, 1, 66, 0
3, 20993, Note_on_c, 1, 66, 0
3, 20996, Note_on_c, 1, 69, 65
3, 21003, Note_on_c, 1, 69, 65
3, 21024, Note_on_c, 1, 69, 0
3, 21026, Note_on_c, 1, 66, 75
3, 21031, Note_on_c, 1, 69, 0
3, 21033, Note_on_c, 1, 66, 75
3, 21049, Note_on_c, 1, 66, 0
3, 21056, Note_on_c, 1, 66, 0
3, 21176, Note_on_c, 1, 50, 74
3, 21183, Note_on_c, 1, 50, 74
3, 21190, Note_on_c, 1, 50, 0
3, 21197, Note_on_c, 1, 50, 0
3, 21236, Note_on_c, 1, 50, 72
3, 21243, Note_on_c, 1, 50, 72
3, 21265, Note_on_c, 1, 50, 0
3, 21266, Note_on_c, 1, 52, 79
3, 21272, Note_on_c, 1, 50, 0
3, 21273, Note_on_c, 1, 52, 79
3, 21290, Note_on_c, 1, 52, 0
3, 21296, Note_on_c, 1, 54, 72
3, 21297, Note_on_c, 1, 52, 0
3, 21303, Note_on_c, 1, 54, 72
3, 21312, Note_on_c, 1, 54, 0
3, 21319, Note_on_c, 1, 54, 0
3, 21326, Note_on_c, 1, 55, 65
3, 21333, Note_on_c, 1, 55, 65
3, 21349, Note_on_c, 1, 55, 0
3, 21356, Note_on_c, 1, 55, 0
3, 21386, Note_on_c, 1, 55, 59
3, 21393, Note_on_c, 1, 55, 59
3, 21413, Note_on_c, 1, 55, 0
3, 21420, Note_on_c, 1, 55, 0
3, 21446, Note_on_c, 1, 55, 63
3, 21453, Note_on_c, 1, 55, 63
3, 21460, Note_on_c, 1, 55, 0
3, 21467, Note_on_c, 1, 55, 0
3, 21476, Note_on_c, 1, 54, 72
3, 21483, Note_on_c, 1, 54, 72
3, 21497, Note_on_c, 1, 54, 0
3, 21504, Note_on_c, 1, 54, 0
3, 21506, Note_on_c, 1, 52, 74
3, 21513, Note_on_c, 1, 52, 74
3, 21521, Note_on_c, 1, 52, 0
3, 21528, Note_on_c, 1, 52, 0
3, 21596, Note_on_c, 1, 50, 87
3, 21603, Note_on_c, 1, 50, 87
3, 21702, Note_on_c, 1, 50, 0
3, 21709, Note_on_c, 1, 50, 0
3, 21746, Note_on_c, 1, 50, 84
3, 21753, Note_on_c, 1, 50, 84
3, 21768, Note_on_c, 1, 50, 0
3, 21775, Note_on_c, 1, 50, 0
3, 21806, Note_on_c, 1, 50, 75
3, 21813, Note_on_c, 1, 50, 75
3, 21913, Note_on_c, 1, 50, 0
3, 21920, Note_on_c, 1, 50, 0
3, 21926, Note_on_c, 1, 45, 72
3, 21933, Note_on_c, 1, 45, 72
3, 21956, Note_on_c, 1, 45, 58
3, 21963, Note_on_c, 1, 45, 58
3, 21986, Note_on_c, 1, 45, 0
3, 21986, Note_on_c, 1, 47, 61
3, 21993, Note_on_c, 1, 45, 0
3, 21993, Note_on_c, 1, 47, 61
3, 22009, Note_on_c, 1, 47, 0
3, 22016, Note_on_c, 1, 47, 0
3, 22016, Note_on_c, 1, 50, 60
3, 22023, Note_on_c, 1, 50, 60
3, 22045, Note_on_c, 1, 45, 0
3, 22046, Note_on_c, 1, 47, 65
3, 22052, Note_on_c, 1, 45, 0
3, 22053, Note_on_c, 1, 50, 0
3, 22053, Note_on_c, 1, 47, 65
3, 22060, Note_on_c, 1, 50, 0
3, 22069, Note_on_c, 1, 47, 0
3, 22076, Note_on_c, 1, 47, 0
3, 30236, Control_c, 1, 93, 77
3, 30243, Control_c, 1, 93, 77
3, 30244, Control_c, 1, 93, 82
3, 30249, Control_c, 1, 93, 88
3, 30251, Control_c, 1, 93, 82
3, 30254, Control_c, 1, 93, 90
3, 30256, Control_c, 1, 93, 88
3, 30259, Control_c, 1, 93, 95
3, 30259, Control_c, 1, 93, 92
3, 30261, Control_c, 1, 93, 90
3, 30266, Control_c, 1, 93, 95
3, 30266, Control_c, 1, 93, 92
3, 30476, Note_on_c, 1, 50, 74
3, 30483, Note_on_c, 1, 50, 74
3, 30499, Note_on_c, 1, 50, 0
3, 30506, Note_on_c, 1, 50, 0
3, 30536, Note_on_c, 1, 50, 74
3, 30543, Note_on_c, 1, 50, 74
3, 30559, Note_on_c, 1, 50, 0
3, 30566, Note_on_c, 1, 50, 0
3, 30596, Note_on_c, 1, 50, 75
3, 30603, Note_on_c, 1, 50, 75
3, 30625, Note_on_c, 1, 50, 0
3, 30626, Note_on_c, 1, 52, 72
3, 30632, Note_on_c, 1, 50, 0
3, 30633, Note_on_c, 1, 52, 72
3, 30652, Note_on_c, 1, 52, 0
3, 30656, Note_on_c, 1, 54, 69
3, 30659, Note_on_c, 1, 52, 0
3, 30663, Note_on_c, 1, 54, 69
3, 30672, Note_on_c, 1, 54, 0
3, 30679, Note_on_c, 1, 54, 0
3, 30686, Note_on_c, 1, 55, 64
3, 30693, Note_on_c, 1, 55, 64
3, 30708, Note_on_c, 1, 55, 0
3, 30715, Note_on_c, 1, 55, 0
3, 30746, Note_on_c, 1, 55, 61
3, 30753, Note_on_c, 1, 55, 61
3, 30766, Note_on_c, 1, 55, 0
3, 30773, Note_on_c, 1, 55, 0
3, 30806, Note_on_c, 1, 55, 65
3, 30813, Note_on_c, 1, 55, 65
3, 30829, Note_on_c, 1, 55, 0
3, 30836, Note_on_c, 1, 55, 0
3, 30836, Note_on_c, 1, 57, 67
3, 30843, Note_on_c, 1, 57, 67
3, 30855, Note_on_c, 1, 57, 0
3, 30862, Note_on_c, 1, 57, 0
3, 30866, Note_on_c, 1, 59, 58
3, 30873, Note_on_c, 1, 59, 58
3, 30892, Note_on_c, 1, 59, 0
3, 30899, Note_on_c, 1, 59, 0
3, 30926, Note_on_c, 1, 60, 64
3, 30933, Note_on_c, 1, 60, 64
3, 31176, Note_on_c, 1, 60, 0
3, 31183, Note_on_c, 1, 60, 0
3, 31196, Note_on_c, 1, 66, 75
3, 31203, Note_on_c, 1, 66, 75
3, 31217, Note_on_c, 1, 66, 0
3, 31224, Note_on_c, 1, 66, 0
3, 31256, Note_on_c, 1, 66, 67
3, 31263, Note_on_c, 1, 66, 67
3, 31282, Note_on_c, 1, 66, 0
3, 31289, Note_on_c, 1, 66, 0
3, 31316, Note_on_c, 1, 67, 65
3, 31323, Note_on_c, 1, 67, 65
3, 31341, Note_on_c, 1, 67, 0
3, 31346, Note_on_c, 1, 66, 59
3, 31348, Note_on_c, 1, 67, 0
3, 31353, Note_on_c, 1, 66, 59
3, 31374, Note_on_c, 1, 66, 0
3, 31381, Note_on_c, 1, 66, 0
3, 31496, Note_on_c, 1, 50, 74
3, 31503, Note_on_c, 1, 50, 74
3, 31510, Note_on_c, 1, 50, 0
3, 31517, Note_on_c, 1, 50, 0
3, 31556, Note_on_c, 1, 50, 72
3, 31563, Note_on_c, 1, 50, 72
3, 31585, Note_on_c, 1, 50, 0
3, 31586, Note_on_c, 1, 52, 79
3, 31592, Note_on_c, 1, 50, 0
3, 31593, Note_on_c, 1, 52, 79
3, 31610, Note_on_c, 1, 52, 0
3, 31616, Note_on_c, 1, 54, 72
3, 31617, Note_on_c, 1, 52, 0
3, 31623, Note_on_c, 1, 54, 72
3, 31632, Note_on_c, 1, 54, 0
3, 31639, Note_on_c, 1, 54, 0
3, 31646, Note_on_c, 1, 55, 65
3, 31653, Note_on_c, 1, 55, 65
3, 31669, Note_on_c, 1, 55, 0
3, 31676, Note_on_c, 1, 55, 0
3, 31706, Note_on_c, 1, 55, 59
3, 31713, Note_on_c, 1, 55, 59
3, 31733, Note_on_c, 1, 55, 0
3, 31740, Note_on_c, 1, 55, 0
3, 31766, Note_on_c, 1, 55, 63
3, 31773, Note_on_c, 1, 55, 63
3, 31780, Note_on_c, 1, 55, 0
3, 31787, Note_on_c, 1, 55, 0
3, 31796, Note_on_c, 1, 54, 72
3, 31803, Note_on_c, 1, 54, 72
3, 31817, Note_on_c, 1, 54, 0
3, 31824, Note_on_c, 1, 54, 0
3, 31826, Note_on_c, 1, 52, 74
3, 31833, Note_on_c, 1, 52, 74
3, 31841, Note_on_c, 1, 52, 0
3, 31848, Note_on_c, 1, 52, 0
3, 31916, Note_on_c, 1, 50, 87
3, 31923, Note_on_c, 1, 50, 87
3, 32022, Note_on_c, 1, 50, 0
3, 32029, Note_on_c, 1, 50, 0
3, 32066, Note_on_c, 1, 50, 84
3, 32073, Note_on_c, 1, 50, 84
3, 32088, Note_on_c, 1, 50, 0
3, 32095, Note_on_c, 1, 50, 0
3, 32126, Note_on_c, 1, 50, 75
3, 32133, Note_on_c, 1, 50, 75
3, 32233, Note_on_c, 1, 50, 0
3, 32240, Note_on_c, 1, 50, 0
3, 32246, Note_on_c, 1, 45, 72
3, 32253, Note_on_c, 1, 45, 72
3, 32276, Note_on_c, 1, 45, 58
3, 32283, Note_on_c, 1, 45, 58
3, 32306, Note_on_c, 1, 45, 0
3, 32306, Note_on_c, 1, 47, 61
3, 32313, Note_on_c, 1, 45, 0
3, 32313, Note_on_c, 1, 47, 61
3, 32329, Note_on_c, 1, 47, 0
3, 32336, Note_on_c, 1, 47, 0
3, 32336, Note_on_c, 1, 50, 60
3, 32343, Note_on_c, 1, 50, 60
3, 32365, Note_on_c, 1, 45, 0
3, 32366, Note_on_c, 1, 47, 65
3, 32372, Note_on_c, 1, 45, 0
3, 32373, Note_on_c, 1, 50, 0
3, 32373, Note_on_c, 1, 47, 65
3, 32380, Note_on_c, 1, 50, 0
3, 32389, Note_on_c, 1, 47, 0
3, 32396, Note_on_c, 1, 47, 0
3, 32396, Note_on_c, 1, 50, 54
3, 32396, Note_on_c, 1, 50, 74
3, 32403, Note_on_c, 1, 50, 54
3, 32403, Note_on_c, 1, 50, 74
3, 32419, Note_on_c, 1, 50, 0
3, 32426, Note_on_c, 1, 50, 0
3, 32426, Note_on_c, 1, 50, 0
3, 32433, Note_on_c, 1, 50, 0
3, 32456, Note_on_c, 1, 50, 74
3, 32463, Note_on_c, 1, 50, 74
3, 32479, Note_on_c, 1, 50, 0
3, 32486, Note_on_c, 1, 50, 0
3, 32516, Note_on_c, 1, 50, 75
3, 32523, Note_on_c, 1, 50, 75
3, 32545, Note_on_c, 1, 50, 0
3, 32546, Note_on_c, 1, 52, 72
3, 32552, Note_on_c, 1, 50, 0
3, 32553, Note_on_c, 1, 52, 72
3, 32572, Note_on_c, 1, 52, 0
3, 32576, Note_on_c, 1, 54, 69
3, 32579, Note_on_c, 1, 52, 0
3, 32583, Note_on_c, 1, 54, 69
3, 32592, Note_on_c, 1, 54, 0
3, 32599, Note_on_c, 1, 54, 0
3, 32606, Note_on_c, 1, 55, 64
3, 32613, Note_on_c, 1, 55, 64
3, 32628, Note_on_c, 1, 55, 0
3, 32635, Note_on_c, 1, 55, 0
3, 32666, Note_on_c, 1, 55, 61
3, 32673, Note_on_c, 1, 55, 61
3, 32686, Note_on_c, 1, 55, 0
3, 32693, Note_on_c, 1, 55, 0
3, 32726, Note_on_c, 1, 55, 65
3, 32733, Note_on_c, 1, 55, 65
3, 32749, Note_on_c, 1, 55, 0
3, 32756, Note_on_c, 1, 55, 0
3, 32756, Note_on_c, 1, 57, 67
3, 32763, Note_on_c, 1, 57, 67
3, 32775, Note_on_c, 1, 57, 0
3, 32782, Note_on_c, 1, 57, 0
3, 32786, Note_on_c, 1, 59, 58
3, 32793, Note_on_c, 1, 59, 58
3, 32812, Note_on_c, 1, 59, 0
3, 32819, Note_on_c, 1, 59, 0
3, 32846, Note_on_c, 1, 60, 64
3, 32853, Note_on_c, 1, 60, 64
3, 33086, Note_on_c, 1, 66, 67
3, 33093, Note_on_c, 1, 66, 67
3, 33096, Note_on_c, 1, 60, 0
3, 33103, Note_on_c, 1, 60, 0
3, 33128, Note_on_c, 1, 66, 0
3, 33135, Note_on_c, 1, 66, 0
3, 33146, Note_on_c, 1, 66, 58
3, 33153, Note_on_c, 1, 66, 58
3, 33169, Note_on_c, 1, 66, 0
3, 33176, Note_on_c, 1, 66, 0
3, 33176, Note_on_c, 1, 67, 62
3, 33183, Note_on_c, 1, 67, 62
3, 33204, Note_on_c, 1, 67, 0
3, 33206, Note_on_c, 1, 66, 75
3, 33211, Note_on_c, 1, 67, 0
3, 33213, Note_on_c, 1, 66, 75
3, 33226, Note_on_c, 1, 66, 0
3, 33233, Note_on_c, 1, 66, 0
3, 33236, Note_on_c, 1, 69, 65
3, 33243, Note_on_c, 1, 69, 65
3, 33264, Note_on_c, 1, 69, 0
3, 33266, Note_on_c, 1, 66, 75
3, 33271, Note_on_c, 1, 69, 0
3, 33273, Note_on_c, 1, 66, 75
3, 33289, Note_on_c, 1, 66, 0
3, 33296, Note_on_c, 1, 66, 0
3, 33416, Note_on_c, 1, 50, 74
3, 33423, Note_on_c, 1, 50, 74
3, 33430, Note_on_c, 1, 50, 0
3, 33437, Note_on_c, 1, 50, 0
3, 33476, Note_on_c, 1, 50, 72
3, 33483, Note_on_c, 1, 50, 72
3, 33505, Note_on_c, 1, 50, 0
3, 33506, Note_on_c, 1, 52, 79
3, 33512, Note_on_c, 1, 50, 0
3, 33513, Note_on_c, 1, 52, 79
3, 33530, Note_on_c, 1, 52, 0
3, 33536, Note_on_c, 1, 54, 72
3, 33537, Note_on_c, 1, 52, 0
3, 33543, Note_on_c, 1, 54, 72
3, 33552, Note_on_c, 1, 54, 0
3, 33559, Note_on_c, 1, 54, 0
3, 33566, Note_on_c, 1, 55, 65
3, 33573, Note_on_c, 1, 55, 65
3, 33589, Note_on_c, 1, 55, 0
3, 33596, Note_on_c, 1, 55, 0
3, 33626, Note_on_c, 1, 55, 59
3, 33633, Note_on_c, 1, 55, 59
3, 33653, Note_on_c, 1, 55, 0
3, 33660, Note_on_c, 1, 55, 0
3, 33686, Note_on_c, 1, 55, 63
3, 33693, Note_on_c, 1, 55, 63
3, 33700, Note_on_c, 1, 55, 0
3, 33707, Note_on_c, 1, 55, 0
3, 33716, Note_on_c, 1, 54, 72
3, 33723, Note_on_c, 1, 54, 72
3, 33737, Note_on_c, 1, 54, 0
3, 33744, Note_on_c, 1, 54, 0
3, 33746, Note_on_c, 1, 52, 74
3, 33753, Note_on_c, 1, 52, 74
3, 33761, Note_on_c, 1, 52, 0
3, 33768, Note_on_c, 1, 52, 0
3, 33836, Note_on_c, 1, 50, 87
3, 33843, Note_on_c, 1, 50, 87
3, 33942, Note_on_c, 1, 50, 0
3, 33949, Note_on_c, 1, 50, 0
3, 33986, Note_on_c, 1, 50, 84
3, 33993, Note_on_c, 1, 50, 84
3, 34008, Note_on_c, 1, 50, 0
3, 34015, Note_on_c, 1, 50, 0
3, 34046, Note_on_c, 1, 50, 75
3, 34053, Note_on_c, 1, 50, 75
3, 34153, Note_on_c, 1, 50, 0
3, 34160, Note_on_c, 1, 50, 0
3, 34166, Note_on_c, 1, 45, 72
3, 34173, Note_on_c, 1, 45, 72
3, 34196, Note_on_c, 1, 45, 58
3, 34203, Note_on_c, 1, 45, 58
3, 34226, Note_on_c, 1, 45, 0
3, 34226, Note_on_c, 1, 47, 61
3, 34233, Note_on_c, 1, 45, 0
3, 34233, Note_on_c, 1, 47, 61
3, 34249, Note_on_c, 1, 47, 0
3, 34256, Note_on_c, 1, 47, 0
3, 34256, Note_on_c, 1, 50, 60
3, 34263, Note_on_c, 1, 50, 60
3, 34285, Note_on_c, 1, 45, 0
3, 34286, Note_on_c, 1, 47, 65
3, 34292, Note_on_c, 1, 45, 0
3, 34293, Note_on_c, 1, 50, 0
3, 34293, Note_on_c, 1, 47, 65
3, 34300, Note_on_c, 1, 50, 0
3, 34309, Note_on_c, 1, 47, 0
3, 34316, Note_on_c, 1, 47, 0
3, 39515, Control_c, 1, 10, 60
3, 39520, Control_c, 1, 10, 63
3, 39522, Control_c, 1, 10, 60
3, 39526, Control_c, 1, 10, 66
3, 39527, Control_c, 1, 10, 63
3, 39533, Control_c, 1, 10, 66
3, 39536, Control_c, 1, 10, 75
3, 39536, Control_c, 1, 10, 73
3, 39541, Control_c, 1, 10, 78
3, 39543, Control_c, 1, 10, 75
3, 39543, Control_c, 1, 10, 73
3, 39546, Control_c, 1, 10, 80
3, 39548, Control_c, 1, 10, 78
3, 39551, Control_c, 1, 10, 82
3, 39553, Control_c, 1, 10, 80
3, 39558, Control_c, 1, 10, 82
3, 41858, Control_c, 1, 10, 84
3, 41863, Control_c, 1, 10, 86
3, 41865, Control_c, 1, 10, 84
3, 41870, Control_c, 1, 10, 86
3, 41870, Control_c, 1, 10, 84
3, 41876, Control_c, 1, 10, 81
3, 41877, Control_c, 1, 10, 84
3, 41881, Control_c, 1, 10, 79
3, 41883, Control_c, 1, 10, 81
3, 41886, Control_c, 1, 10, 72
3, 41886, Control_c, 1, 10, 78
3, 41888, Control_c, 1, 10, 79
3, 41892, Control_c, 1, 10, 70
3, 41893, Control_c, 1, 10, 72
3, 41893, Control_c, 1, 10, 78
3, 41896, Control_c, 1, 10, 69
3, 41899, Control_c, 1, 10, 70
3, 41901, Control_c, 1, 10, 65
3, 41901, Control_c, 1, 10, 67
3, 41903, Control_c, 1, 10, 69
3, 41908, Control_c, 1, 10, 65
3, 41908, Control_c, 1, 10, 67
3, 41916, Control_c, 1, 10, 63
3, 41921, Control_c, 1, 10, 61
3, 41923, Control_c, 1, 10, 63
3, 41927, Control_c, 1, 10, 59
3, 41928, Control_c, 1, 10, 61
3, 41932, Control_c, 1, 10, 57
3, 41934, Control_c, 1, 10, 59
3, 41939, Control_c, 1, 10, 57
3, 41941, Control_c, 1, 10, 52
3, 41941, Control_c, 1, 10, 55
3, 41946, Control_c, 1, 10, 51
3, 41948, Control_c, 1, 10, 52
3, 41948, Control_c, 1, 10, 55
3, 41953, Control_c, 1, 10, 51
3, 41959, Control_c, 1, 10, 50
3, 41966, Control_c, 1, 10, 50
3, 41966, Control_c, 1, 10, 48
3, 41970, Control_c, 1, 10, 47
3, 41973, Control_c, 1, 10, 48
3, 41977, Control_c, 1, 10, 47
3, 41977, Control_c, 1, 10, 46
3, 41980, Control_c, 1, 10, 45
3, 41984, Control_c, 1, 10, 46
3, 41987, Control_c, 1, 10, 45
3, 41996, Note_on_c, 1, 50, 74
3, 41997, Control_c, 1, 10, 43
3, 42003, Note_on_c, 1, 50, 74
3, 42004, Control_c, 1, 10, 43
3, 42019, Note_on_c, 1, 50, 0
3, 42019, Control_c, 1, 10, 42
3, 42026, Note_on_c, 1, 50, 0
3, 42026, Control_c, 1, 10, 42
3, 42046, Control_c, 1, 10, 43
3, 42053, Control_c, 1, 10, 43
3, 42056, Note_on_c, 1, 50, 74
3, 42063, Note_on_c, 1, 50, 74
3, 42079, Note_on_c, 1, 50, 0
3, 42086, Note_on_c, 1, 50, 0
3, 42116, Note_on_c, 1, 50, 75
3, 42123, Note_on_c, 1, 50, 75
3, 42145, Note_on_c, 1, 50, 0
3, 42146, Note_on_c, 1, 52, 72
3, 42152, Note_on_c, 1, 50, 0
3, 42153, Note_on_c, 1, 52, 72
3, 42172, Note_on_c, 1, 52, 0
3, 42176, Note_on_c, 1, 54, 69
3, 42179, Note_on_c, 1, 52, 0
3, 42183, Note_on_c, 1, 54, 69
3, 42192, Note_on_c, 1, 54, 0
3, 42199, Note_on_c, 1, 54, 0
3, 42206, Note_on_c, 1, 55, 64
3, 42213, Note_on_c, 1, 55, 64
3, 42228, Note_on_c, 1, 55, 0
3, 42235, Note_on_c, 1, 55, 0
3, 42266, Note_on_c, 1, 55, 61
3, 42273, Note_on_c, 1, 55, 61
3, 42286, Note_on_c, 1, 55, 0
3, 42293, Note_on_c, 1, 55, 0
3, 42326, Note_on_c, 1, 55, 65
3, 42333, Note_on_c, 1, 55, 65
3, 42349, Note_on_c, 1, 55, 0
3, 42356, Note_on_c, 1, 55, 0
3, 42356, Note_on_c, 1, 57, 67
3, 42363, Note_on_c, 1, 57, 67
3, 42375, Note_on_c, 1, 57, 0
3, 42382, Note_on_c, 1, 57, 0
3, 42386, Note_on_c, 1, 59, 58
3, 42393, Note_on_c, 1, 59, 58
3, 42412, Note_on_c, 1, 59, 0
3, 42419, Note_on_c, 1, 59, 0
3, 42446, Note_on_c, 1, 60, 64
3, 42453, Note_on_c, 1, 60, 64
3, 42696, Note_on_c, 1, 60, 0
3, 42703, Note_on_c, 1, 60, 0
3, 42716, Note_on_c, 1, 66, 75
3, 42723, Note_on_c, 1, 66, 75
3, 42737, Note_on_c, 1, 66, 0
3, 42744, Note_on_c, 1, 66, 0
3, 42776, Note_on_c, 1, 66, 67
3, 42783, Note_on_c, 1, 66, 67
3, 42802, Note_on_c, 1, 66, 0
3, 42809, Note_on_c, 1, 66, 0
3, 42836, Note_on_c, 1, 67, 65
3, 42843, Note_on_c, 1, 67, 65
3, 42861, Note_on_c, 1, 67, 0
3, 42866, Note_on_c, 1, 66, 59
3, 42868, Note_on_c, 1, 67, 0
3, 42873, Note_on_c, 1, 66, 59
3, 42894, Note_on_c, 1, 66, 0
3, 42901, Note_on_c, 1, 66, 0
3, 43016, Note_on_c, 1, 50, 74
3, 43023, Note_on_c, 1, 50, 74
3, 43030, Note_on_c, 1, 50, 0
3, 43037, Note_on_c, 1, 50, 0
3, 43076, Note_on_c, 1, 50, 72
3, 43083, Note_on_c, 1, 50, 72
3, 43105, Note_on_c, 1, 50, 0
3, 43106, Note_on_c, 1, 52, 79
3, 43112, Note_on_c, 1, 50, 0
3, 43113, Note_on_c, 1, 52, 79
3, 43130, Note_on_c, 1, 52, 0
3, 43136, Note_on_c, 1, 54, 72
3, 43137, Note_on_c, 1, 52, 0
3, 43143, Note_on_c, 1, 54, 72
3, 43152, Note_on_c, 1, 54, 0
3, 43159, Note_on_c, 1, 54, 0
3, 43166, Note_on_c, 1, 55, 65
3, 43173, Note_on_c, 1, 55, 65
3, 43189, Note_on_c, 1, 55, 0
3, 43196, Note_on_c, 1, 55, 0
3, 43226, Note_on_c, 1, 55, 59
3, 43233, Note_on_c, 1, 55, 59
3, 43253, Note_on_c, 1, 55, 0
3, 43260, Note_on_c, 1, 55, 0
3, 43286, Note_on_c, 1, 55, 63
3, 43293, Note_on_c, 1, 55, 63
3, 43300, Note_on_c, 1, 55, 0
3, 43307, Note_on_c, 1, 55, 0
3, 43316, Note_on_c, 1, 54, 72
3, 43323, Note_on_c, 1, 54, 72
3, 43337, Note_on_c, 1, 54, 0
3, 43344, Note_on_c, 1, 54, 0
3, 43346, Note_on_c, 1, 52, 74
3, 43353, Note_on_c, 1, 52, 74
3, 43361, Note_on_c, 1, 52, 0
3, 43368, Note_on_c, 1, 52, 0
3, 43436, Note_on_c, 1, 50, 87
3, 43443, Note_on_c, 1, 50, 87
3, 43542, Note_on_c, 1, 50, 0
3, 43549, Note_on_c, 1, 50, 0
3, 43586, Note_on_c, 1, 50, 84
3, 43593, Note_on_c, 1, 50, 84
3, 43608, Note_on_c, 1, 50, 0
3, 43615, Note_on_c, 1, 50, 0
3, 43646, Note_on_c, 1, 50, 75
3, 43653, Note_on_c, 1, 50, 75
3, 43753, Note_on_c, 1, 50, 0
3, 43760, Note_on_c, 1, 50, 0
3, 43766, Note_on_c, 1, 45, 72
3, 43773, Note_on_c, 1, 45, 72
3, 43796, Note_on_c, 1, 45, 58
3, 43803, Note_on_c, 1, 45, 58
3, 43826, Note_on_c, 1, 45, 0
3, 43826, Note_on_c, 1, 47, 61
3, 43833, Note_on_c, 1, 45, 0
3, 43833, Note_on_c, 1, 47, 61
3, 43849, Note_on_c, 1, 47, 0
3, 43856, Note_on_c, 1, 47, 0
3, 43856, Note_on_c, 1, 50, 60
3, 43863, Note_on_c, 1, 50, 60
3, 43885, Note_on_c, 1, 45, 0
3, 43886, Note_on_c, 1, 47, 65
3, 43892, Note_on_c, 1, 45, 0
3, 43893, Note_on_c, 1, 50, 0
3, 43893, Note_on_c, 1, 47, 65
3, 43900, Note_on_c, 1, 50, 0
3, 43909, Note_on_c, 1, 47, 0
3, 43916, Note_on_c, 1, 47, 0
3, 43916, Note_on_c, 1, 50, 54
3, 43916, Note_on_c, 1, 50, 74
3, 43923, Note_on_c, 1, 50, 54
3, 43923, Note_on_c, 1, 50, 74
3, 43939, Note_on_c, 1, 50, 0
3, 43946, Note_on_c, 1, 50, 0
3, 43976, Note_on_c, 1, 50, 74
3, 43983, Note_on_c, 1, 50, 74
3, 43999, Note_on_c, 1, 50, 0
3, 44006, Note_on_c, 1, 50, 0
3, 44036, Note_on_c, 1, 50, 75
3, 44043, Note_on_c, 1, 50, 75
3, 44065, Note_on_c, 1, 50, 0
3, 44066, Note_on_c, 1, 52, 72
3, 44072, Note_on_c, 1, 50, 0
3, 44073, Note_on_c, 1, 52, 72
3, 44092, Note_on_c, 1, 52, 0
3, 44096, Note_on_c, 1, 54, 69
3, 44099, Note_on_c, 1, 52, 0
3, 44103, Note_on_c, 1, 54, 69
3, 44112, Note_on_c, 1, 54, 0
3, 44119, Note_on_c, 1, 54, 0
3, 44126, Note_on_c, 1, 55, 64
3, 44133, Note_on_c, 1, 55, 64
3, 44147, Note_on_c, 1, 50, 0
3, 44148, Note_on_c, 1, 55, 0
3, 44154, Note_on_c, 1, 50, 0
3, 44155, Note_on_c, 1, 55, 0
3, 44186, Note_on_c, 1, 55, 61
3, 44193, Note_on_c, 1, 55, 61
3, 44206, Note_on_c, 1, 55, 0
3, 44213, Note_on_c, 1, 55, 0
3, 44246, Note_on_c, 1, 55, 65
3, 44253, Note_on_c, 1, 55, 65
3, 44269, Note_on_c, 1, 55, 0
3, 44276, Note_on_c, 1, 55, 0
3, 44276, Note_on_c, 1, 57, 67
3, 44283, Note_on_c, 1, 57, 67
3, 44295, Note_on_c, 1, 57, 0
3, 44302, Note_on_c, 1, 57, 0
3, 44306, Note_on_c, 1, 59, 58
3, 44313, Note_on_c, 1, 59, 58
3, 44332, Note_on_c, 1, 59, 0
3, 44339, Note_on_c, 1, 59, 0
3, 44366, Note_on_c, 1, 60, 64
3, 44373, Note_on_c, 1, 60, 64
3, 44606, Note_on_c, 1, 66, 67
3, 44613, Note_on_c, 1, 66, 67
3, 44616, Note_on_c, 1, 60, 0
3, 44623, Note_on_c, 1, 60, 0
3, 44648, Note_on_c, 1, 66, 0
3, 44655, Note_on_c, 1, 66, 0
3, 44666, Note_on_c, 1, 66, 58
3, 44673, Note_on_c, 1, 66, 58
3, 44689, Note_on_c, 1, 66, 0
3, 44696, Note_on_c, 1, 66, 0
3, 44696, Note_on_c, 1, 67, 62
3, 44703, Note_on_c, 1, 67, 62
3, 44724, Note_on_c, 1, 67, 0
3, 44726, Note_on_c, 1, 66, 75
3, 44731, Note_on_c, 1, 67, 0
3, 44733, Note_on_c, 1, 66, 75
3, 44746, Note_on_c, 1, 66, 0
3, 44753, Note_on_c, 1, 66, 0
3, 44756, Note_on_c, 1, 69, 65
3, 44763, Note_on_c, 1, 69, 65
3, 44784, Note_on_c, 1, 69, 0
3, 44786, Note_on_c, 1, 66, 75
3, 44791, Note_on_c, 1, 69, 0
3, 44793, Note_on_c, 1, 66, 75
3, 44809, Note_on_c, 1, 66, 0
3, 44816, Note_on_c, 1, 66, 0
3, 44936, Note_on_c, 1, 50, 74
3, 44943, Note_on_c, 1, 50, 74
3, 44950, Note_on_c, 1, 50, 0
3, 44957, Note_on_c, 1, 50, 0
3, 44996, Note_on_c, 1, 50, 72
3, 45003, Note_on_c, 1, 50, 72
3, 45025, Note_on_c, 1, 50, 0
3, 45026, Note_on_c, 1, 52, 79
3, 45032, Note_on_c, 1, 50, 0
3, 45033, Note_on_c, 1, 52, 79
3, 45050, Note_on_c, 1, 52, 0
3, 45056, Note_on_c, 1, 54, 72
3, 45057, Note_on_c, 1, 52, 0
3, 45063, Note_on_c, 1, 54, 72
3, 45072, Note_on_c, 1, 54, 0
3, 45079, Note_on_c, 1, 54, 0
3, 45086, Note_on_c, 1, 55, 65
3, 45093, Note_on_c, 1, 55, 65
3, 45109, Note_on_c, 1, 55, 0
3, 45116, Note_on_c, 1, 55, 0
3, 45146, Note_on_c, 1, 55, 59
3, 45153, Note_on_c, 1, 55, 59
3, 45173, Note_on_c, 1, 55, 0
3, 45180, Note_on_c, 1, 55, 0
3, 45206, Note_on_c, 1, 55, 63
3, 45213, Note_on_c, 1, 55, 63
3, 45220, Note_on_c, 1, 55, 0
3, 45227, Note_on_c, 1, 55, 0
3, 45236, Note_on_c, 1, 54, 72
3, 45243, Note_on_c, 1, 54, 72
3, 45257, Note_on_c, 1, 54, 0
3, 45264, Note_on_c, 1, 54, 0
3, 45266, Note_on_c, 1, 52, 74
3, 45273, Note_on_c, 1, 52, 74
3, 45281, Note_on_c, 1, 52, 0
3, 45288, Note_on_c, 1, 52, 0
3, 45356, Note_on_c, 1, 50, 87
3, 45363, Note_on_c, 1, 50, 87
3, 45462, Note_on_c, 1, 50, 0
3, 45469, Note_on_c, 1, 50, 0
3, 45506, Note_on_c, 1, 50, 84
3, 45513, Note_on_c, 1, 50, 84
3, 45528, Note_on_c, 1, 50, 0
3, 45535, Note_on_c, 1, 50, 0
3, 45566, Note_on_c, 1, 50, 75
3, 45573, Note_on_c, 1, 50, 75
3, 45673, Note_on_c, 1, 50, 0
3, 45680, Note_on_c, 1, 50, 0
3, 45686, Note_on_c, 1, 45, 72
3, 45693, Note_on_c, 1, 45, 72
3, 45716, Note_on_c, 1, 45, 58
3, 45723, Note_on_c, 1, 45, 58
3, 45746, Note_on_c, 1, 45, 0
3, 45746, Note_on_c, 1, 47, 61
3, 45753, Note_on_c, 1, 45, 0
3, 45753, Note_on_c, 1, 47, 61
3, 45769, Note_on_c, 1, 47, 0
3, 45776, Note_on_c, 1, 47, 0
3, 45776, Note_on_c, 1, 50, 60
3, 45783, Note_on_c, 1, 50, 60
3, 45805, Note_on_c, 1, 45, 0
3, 45806, Note_on_c, 1, 47, 65
3, 45812, Note_on_c, 1, 45, 0
3, 45813, Note_on_c, 1, 50, 0
3, 45813, Note_on_c, 1, 47, 65
3, 45820, Note_on_c, 1, 50, 0
3, 45829, Note_on_c, 1, 47, 0
3, 45836, Note_on_c, 1, 47, 0
3, 45836, Note_on_c, 1, 50, 54
3, 45836, Note_on_c, 1, 50, 74
3, 45843, Note_on_c, 1, 50, 54
3, 45843, Note_on_c, 1, 50, 74
3, 45859, Note_on_c, 1, 50, 0
3, 45866, Note_on_c, 1, 50, 0
3, 45896, Note_on_c, 1, 50, 74
3, 45903, Note_on_c, 1, 50, 74
3, 45919, Note_on_c, 1, 50, 0
3, 45926, Note_on_c, 1, 50, 0
3, 45956, Note_on_c, 1, 50, 75
3, 45963, Note_on_c, 1, 50, 75
3, 45985, Note_on_c, 1, 50, 0
3, 45986, Note_on_c, 1, 52, 72
3, 45992, Note_on_c, 1, 50, 0
3, 45993, Note_on_c, 1, 52, 72
3, 46012, Note_on_c, 1, 52, 0
3, 46016, Note_on_c, 1, 54, 69
3, 46019, Note_on_c, 1, 52, 0
3, 46023, Note_on_c, 1, 54, 69
3, 46032, Note_on_c, 1, 54, 0
3, 46039, Note_on_c, 1, 54, 0
3, 46046, Note_on_c, 1, 55, 64
3, 46053, Note_on_c, 1, 55, 64
3, 46067, Note_on_c, 1, 50, 0
3, 46068, Note_on_c, 1, 55, 0
3, 46074, Note_on_c, 1, 50, 0
3, 46075, Note_on_c, 1, 55, 0
3, 46106, Note_on_c, 1, 55, 61
3, 46113, Note_on_c, 1, 55, 61
3, 46126, Note_on_c, 1, 55, 0
3, 46133, Note_on_c, 1, 55, 0
3, 46166, Note_on_c, 1, 55, 65
3, 46173, Note_on_c, 1, 55, 65
3, 46189, Note_on_c, 1, 55, 0
3, 46196, Note_on_c, 1, 55, 0
3, 46196, Note_on_c, 1, 57, 67
3, 46203, Note_on_c, 1, 57, 67
3, 46215, Note_on_c, 1, 57, 0
3, 46222, Note_on_c, 1, 57, 0
3, 46226, Note_on_c, 1, 59, 58
3, 46233, Note_on_c, 1, 59, 58
3, 46252, Note_on_c, 1, 59, 0
3, 46259, Note_on_c, 1, 59, 0
3, 46286, Note_on_c, 1, 60, 64
3, 46293, Note_on_c, 1, 60, 64
3, 46536, Note_on_c, 1, 60, 0
3, 46543, Note_on_c, 1, 60, 0
3, 46556, Note_on_c, 1, 66, 75
3, 46563, Note_on_c, 1, 66, 75
3, 46577, Note_on_c, 1, 66, 0
3, 46584, Note_on_c, 1, 66, 0
3, 46616, Note_on_c, 1, 66, 67
3, 46623, Note_on_c, 1, 66, 67
3, 46642, Note_on_c, 1, 66, 0
3, 46649, Note_on_c, 1, 66, 0
3, 46676, Note_on_c, 1, 67, 65
3, 46683, Note_on_c, 1, 67, 65
3, 46701, Note_on_c, 1, 67, 0
3, 46706, Note_on_c, 1, 66, 59
3, 46708, Note_on_c, 1, 67, 0
3, 46713, Note_on_c, 1, 66, 59
3, 46734, Note_on_c, 1, 66, 0
3, 46741, Note_on_c, 1, 66, 0
3, 46856, Note_on_c, 1, 50, 74
3, 46863, Note_on_c, 1, 50, 74
3, 46870, Note_on_c, 1, 50, 0
3, 46877, Note_on_c, 1, 50, 0
3, 46916, Note_on_c, 1, 50, 72
3, 46923, Note_on_c, 1, 50, 72
3, 46945, Note_on_c, 1, 50, 0
3, 46946, Note_on_c, 1, 52, 79
3, 46952, Note_on_c, 1, 50, 0
3, 46953, Note_on_c, 1, 52, 79
3, 46970, Note_on_c, 1, 52, 0
3, 46976, Note_on_c, 1, 54, 72
3, 46977, Note_on_c, 1, 52, 0
3, 46983, Note_on_c, 1, 54, 72
3, 46992, Note_on_c, 1, 54, 0
3, 46999, Note_on_c, 1, 54, 0
3, 47006, Note_on_c, 1, 55, 65
3, 47013, Note_on_c, 1, 55, 65
3, 47029, Note_on_c, 1, 55, 0
3, 47036, Note_on_c, 1, 55, 0
3, 47066, Note_on_c, 1, 55, 59
3, 47073, Note_on_c, 1, 55, 59
3, 47093, Note_on_c, 1, 55, 0
3, 47100, Note_on_c, 1, 55, 0
3, 47126, Note_on_c, 1, 55, 63
3, 47133, Note_on_c, 1, 55, 63
3, 47140, Note_on_c, 1, 55, 0
3, 47147, Note_on_c, 1, 55, 0
3, 47156, Note_on_c, 1, 54, 72
3, 47163, Note_on_c, 1, 54, 72
3, 47177, Note_on_c, 1, 54, 0
3, 47184, Note_on_c, 1, 54, 0
3, 47186, Note_on_c, 1, 52, 74
3, 47193, Note_on_c, 1, 52, 74
3, 47201, Note_on_c, 1, 52, 0
3, 47208, Note_on_c, 1, 52, 0
3, 47276, Note_on_c, 1, 50, 87
3, 47283, Note_on_c, 1, 50, 87
3, 47382, Note_on_c, 1, 50, 0
3, 47389, Note_on_c, 1, 50, 0
3, 47426, Note_on_c, 1, 50, 84
3, 47433, Note_on_c, 1, 50, 84
3, 47448, Note_on_c, 1, 50, 0
3, 47455, Note_on_c, 1, 50, 0
3, 47486, Note_on_c, 1, 50, 75
3, 47493, Note_on_c, 1, 50, 75
3, 47593, Note_on_c, 1, 50, 0
3, 47600, Note_on_c, 1, 50, 0
3, 47606, Note_on_c, 1, 45, 72
3, 47613, Note_on_c, 1, 45, 72
3, 47636, Note_on_c, 1, 45, 58
3, 47643, Note_on_c, 1, 45, 58
3, 47666, Note_on_c, 1, 45, 0
3, 47666, Note_on_c, 1, 47, 61
3, 47673, Note_on_c, 1, 45, 0
3, 47673, Note_on_c, 1, 47, 61
3, 47689, Note_on_c, 1, 47, 0
3, 47696, Note_on_c, 1, 47, 0
3, 47696, Note_on_c, 1, 50, 60
3, 47703, Note_on_c, 1, 50, 60
3, 47725, Note_on_c, 1, 45, 0
3, 47726, Note_on_c, 1, 47, 65
3, 47732, Note_on_c, 1, 45, 0
3, 47733, Note_on_c, 1, 50, 0
3, 47733, Note_on_c, 1, 47, 65
3, 47740, Note_on_c, 1, 50, 0
3, 47749, Note_on_c, 1, 47, 0
3, 47756, Note_on_c, 1, 47, 0
3, 47756, Note_on_c, 1, 50, 54
3, 47756, Note_on_c, 1, 50, 74
3, 47763, Note_on_c, 1, 50, 54
3, 47763, Note_on_c, 1, 50, 74
3, 47779, Note_on_c, 1, 50, 0
3, 47786, Note_on_c, 1, 50, 0
3, 47816, Note_on_c, 1, 50, 74
3, 47823, Note_on_c, 1, 50, 74
3, 47839, Note_on_c, 1, 50, 0
3, 47846, Note_on_c, 1, 50, 0
3, 47876, Note_on_c, 1, 50, 75
3, 47883, Note_on_c, 1, 50, 75
3, 47905, Note_on_c, 1, 50, 0
3, 47906, Note_on_c, 1, 52, 72
3, 47912, Note_on_c, 1, 50, 0
3, 47913, Note_on_c, 1, 52, 72
3, 47932, Note_on_c, 1, 52, 0
3, 47936, Note_on_c, 1, 54, 69
3, 47939, Note_on_c, 1, 52, 0
3, 47943, Note_on_c, 1, 54, 69
3, 47952, Note_on_c, 1, 54, 0
3, 47959, Note_on_c, 1, 54, 0
3, 47966, Note_on_c, 1, 55, 64
3, 47973, Note_on_c, 1, 55, 64
3, 47987, Note_on_c, 1, 50, 0
3, 47988, Note_on_c, 1, 55, 0
3, 47994, Note_on_c, 1, 50, 0
3, 47995, Note_on_c, 1, 55, 0
3, 48026, Note_on_c, 1, 55, 61
3, 48033, Note_on_c, 1, 55, 61
3, 48046, Note_on_c, 1, 55, 0
3, 48053, Note_on_c, 1, 55, 0
3, 48086, Note_on_c, 1, 55, 65
3, 48093, Note_on_c, 1, 55, 65
3, 48109, Note_on_c, 1, 55, 0
3, 48116, Note_on_c, 1, 55, 0
3, 48116, Note_on_c, 1, 57, 67
3, 48123, Note_on_c, 1, 57, 67
3, 48135, Note_on_c, 1, 57, 0
3, 48142, Note_on_c, 1, 57, 0
3, 48146, Note_on_c, 1, 59, 58
3, 48153, Note_on_c, 1, 59, 58
3, 48172, Note_on_c, 1, 59, 0
3, 48179, Note_on_c, 1, 59, 0
3, 48206, Note_on_c, 1, 60, 64
3, 48213, Note_on_c, 1, 60, 64
3, 48446, Note_on_c, 1, 66, 67
3, 48453, Note_on_c, 1, 66, 67
3, 48456, Note_on_c, 1, 60, 0
3, 48463, Note_on_c, 1, 60, 0
3, 48488, Note_on_c, 1, 66, 0
3, 48495, Note_on_c, 1, 66, 0
3, 48506, Note_on_c, 1, 66, 58
3, 48513, Note_on_c, 1, 66, 58
3, 48529, Note_on_c, 1, 66, 0
3, 48536, Note_on_c, 1, 66, 0
3, 48536, Note_on_c, 1, 67, 62
3, 48543, Note_on_c, 1, 67, 62
3, 48564, Note_on_c, 1, 67, 0
3, 48566, Note_on_c, 1, 66, 75
3, 48571, Note_on_c, 1, 67, 0
3, 48573, Note_on_c, 1, 66, 75
3, 48586, Note_on_c, 1, 66, 0
3, 48593, Note_on_c, 1, 66, 0
3, 48596, Note_on_c, 1, 69, 65
3, 48603, Note_on_c, 1, 69, 65
3, 48624, Note_on_c, 1, 69, 0
3, 48626, Note_on_c, 1, 66, 75
3, 48631, Note_on_c, 1, 69, 0
3, 48633, Note_on_c, 1, 66, 75
3, 48649, Note_on_c, 1, 66, 0
3, 48656, Note_on_c, 1, 66, 0
3, 48776, Note_on_c, 1, 50, 74
3, 48783, Note_on_c, 1, 50, 74
3, 48790, Note_on_c, 1, 50, 0
3, 48797, Note_on_c, 1, 50, 0
3, 48836, Note_on_c, 1, 50, 72
3, 48843, Note_on_c, 1, 50, 72
3, 48865, Note_on_c, 1, 50, 0
3, 48866, Note_on_c, 1, 52, 79
3, 48872, Note_on_c, 1, 50, 0
3, 48873, Note_on_c, 1, 52, 79
3, 48890, Note_on_c, 1, 52, 0
3, 48896, Note_on_c, 1, 54, 72
3, 48897, Note_on_c, 1, 52, 0
3, 48903, Note_on_c, 1, 54, 72
3, 48912, Note_on_c, 1, 54, 0
3, 48919, Note_on_c, 1, 54, 0
3, 48926, Note_on_c, 1, 55, 65
3, 48933, Note_on_c, 1, 55, 65
3, 48949, Note_on_c, 1, 55, 0
3, 48956, Note_on_c, 1, 55, 0
3, 48986, Note_on_c, 1, 55, 59
3, 48993, Note_on_c, 1, 55, 59
3, 49013, Note_on_c, 1, 55, 0
3, 49020, Note_on_c, 1, 55, 0
3, 49046, Note_on_c, 1, 55, 63
3, 49053, Note_on_c, 1, 55, 63
3, 49060, Note_on_c, 1, 55, 0
3, 49067, Note_on_c, 1, 55, 0
3, 49076, Note_on_c, 1, 54, 72
3, 49083, Note_on_c, 1, 54, 72
3, 49097, Note_on_c, 1, 54, 0
3, 49104, Note_on_c, 1, 54, 0
3, 49106, Note_on_c, 1, 52, 74
3, 49113, Note_on_c, 1, 52, 74
3, 49121, Note_on_c, 1, 52, 0
3, 49128, Note_on_c, 1, 52, 0
3, 49196, Note_on_c, 1, 50, 87
3, 49203, Note_on_c, 1, 50, 87
3, 49302, Note_on_c, 1, 50, 0
3, 49309, Note_on_c, 1, 50, 0
3, 49346, Note_on_c, 1, 50, 84
3, 49353, Note_on_c, 1, 50, 84
3, 49368, Note_on_c, 1, 50, 0
3, 49375, Note_on_c, 1, 50, 0
3, 49406, Note_on_c, 1, 50, 75
3, 49413, Note_on_c, 1, 50, 75
3, 49513, Note_on_c, 1, 50, 0
3, 49520, Note_on_c, 1, 50, 0
3, 49520, End_track
4, 0, Start_track
4, 0, MIDI_port, 0
4, 0, Title_t, "Echo Drop"
4, 0, Control_c, 2, 0, 56
4, 0, Control_c, 2, 32, 0
4, 0, Program_c, 2, 102
4, 0, Control_c, 2, 7, 80
4, 0, Control_c, 2, 10, 64
4, 660, Control_c, 2, 7, 127
4, 660, Control_c, 2, 10, 64
4, 960, Note_on_c, 2, 74, 60
4, 1143, Note_on_c, 2, 74, 0
4, 1200, Note_on_c, 2, 74, 65
4, 1384, Note_on_c, 2, 74, 0
4, 1440, Note_on_c, 2, 76, 79
4, 1610, Note_on_c, 2, 76, 0
4, 1735, Control_c, 2, 10, 69
4, 1740, Note_on_c, 2, 81, 61
4, 1763, Control_c, 2, 10, 72
4, 1766, Control_c, 2, 10, 74
4, 1770, Control_c, 2, 10, 78
4, 1841, Note_on_c, 2, 81, 0
4, 1860, Note_on_c, 2, 79, 57
4, 1920, Note_on_c, 2, 78, 46
4, 1931, Note_on_c, 2, 79, 0
4, 2135, Note_on_c, 2, 78, 0
4, 2160, Note_on_c, 2, 74, 60
4, 2318, Note_on_c, 2, 74, 0
4, 2350, Control_c, 2, 7, 120
4, 2365, Control_c, 2, 7, 114
4, 2369, Control_c, 2, 7, 113
4, 2370, Control_c, 2, 7, 107
4, 2380, Control_c, 2, 7, 106
4, 2400, Note_on_c, 2, 72, 63
4, 2418, Control_c, 2, 7, 108
4, 2418, Control_c, 2, 7, 107
4, 2423, Control_c, 2, 7, 110
4, 2453, Control_c, 2, 7, 111
4, 2514, Note_on_c, 2, 72, 0
4, 2520, Note_on_c, 2, 71, 48
4, 2610, Note_on_c, 2, 69, 48
4, 2633, Note_on_c, 2, 71, 0
4, 2738, Note_on_c, 2, 69, 0
4, 2880, Note_on_c, 2, 74, 59
4, 3042, Note_on_c, 2, 74, 0
4, 3120, Note_on_c, 2, 74, 72
4, 3298, Note_on_c, 2, 74, 0
4, 3360, Note_on_c, 2, 76, 63
4, 3540, Note_on_c, 2, 76, 0
4, 3660, Note_on_c, 2, 81, 64
4, 3750, Note_on_c, 2, 79, 53
4, 3758, Note_on_c, 2, 81, 0
4, 3829, Note_on_c, 2, 79, 0
4, 3840, Note_on_c, 2, 78, 48
4, 4077, Note_on_c, 2, 78, 0
4, 4080, Note_on_c, 2, 74, 60
4, 4320, Note_on_c, 2, 72, 53
4, 4323, Note_on_c, 2, 74, 0
4, 4440, Note_on_c, 2, 71, 53
4, 4447, Note_on_c, 2, 72, 0
4, 4530, Note_on_c, 2, 69, 48
4, 4533, Note_on_c, 2, 71, 0
4, 4663, Note_on_c, 2, 69, 0
4, 7810, Control_c, 2, 10, 63
4, 7819, Control_c, 2, 10, 74
4, 7819, Control_c, 2, 10, 67
4, 7824, Control_c, 2, 10, 77
4, 7830, Control_c, 2, 10, 86
4, 7830, Control_c, 2, 10, 84
4, 7885, Control_c, 2, 10, 84
4, 7890, Control_c, 2, 10, 82
4, 7912, Control_c, 2, 10, 80
4, 7919, Control_c, 2, 10, 78
4, 7935, Control_c, 2, 10, 75
4, 8640, Note_on_c, 2, 74, 75
4, 8818, Note_on_c, 2, 74, 0
4, 8880, Note_on_c, 2, 74, 69
4, 9077, Note_on_c, 2, 74, 0
4, 9120, Note_on_c, 2, 76, 60
4, 9315, Note_on_c, 2, 76, 0
4, 9390, Note_on_c, 2, 81, 63
4, 9503, Note_on_c, 2, 81, 0
4, 9510, Note_on_c, 2, 79, 60
4, 9579, Note_on_c, 2, 79, 0
4, 9600, Note_on_c, 2, 78, 62
4, 9833, Note_on_c, 2, 78, 0
4, 9840, Note_on_c, 2, 74, 59
4, 10049, Note_on_c, 2, 74, 0
4, 10080, Note_on_c, 2, 72, 57
4, 10150, Note_on_c, 2, 72, 0
4, 10200, Note_on_c, 2, 71, 59
4, 10254, Note_on_c, 2, 71, 0
4, 10290, Note_on_c, 2, 69, 63
4, 10377, Note_on_c, 2, 69, 0
4, 10560, Note_on_c, 2, 74, 75
4, 10738, Note_on_c, 2, 74, 0
4, 10800, Note_on_c, 2, 74, 69
4, 10997, Note_on_c, 2, 74, 0
4, 11040, Note_on_c, 2, 76, 60
4, 11235, Note_on_c, 2, 76, 0
4, 11310, Note_on_c, 2, 81, 63
4, 11423, Note_on_c, 2, 81, 0
4, 11430, Note_on_c, 2, 79, 60
4, 11499, Note_on_c, 2, 79, 0
4, 11520, Note_on_c, 2, 78, 62
4, 11753, Note_on_c, 2, 78, 0
4, 11760, Note_on_c, 2, 74, 59
4, 11969, Note_on_c, 2, 74, 0
4, 12000, Note_on_c, 2, 72, 57
4, 12070, Note_on_c, 2, 72, 0
4, 12120, Note_on_c, 2, 71, 59
4, 12174, Note_on_c, 2, 71, 0
4, 12210, Note_on_c, 2, 69, 63
4, 12297, Note_on_c, 2, 69, 0
4, 16320, Note_on_c, 2, 74, 65
4, 16525, Note_on_c, 2, 74, 0
4, 16560, Note_on_c, 2, 74, 56
4, 16760, Note_on_c, 2, 74, 0
4, 16800, Note_on_c, 2, 76, 60
4, 17004, Note_on_c, 2, 76, 0
4, 17100, Note_on_c, 2, 81, 67
4, 17190, Note_on_c, 2, 79, 49
4, 17200, Note_on_c, 2, 81, 0
4, 17276, Note_on_c, 2, 79, 0
4, 17280, Note_on_c, 2, 78, 50
4, 17514, Note_on_c, 2, 78, 0
4, 17520, Note_on_c, 2, 74, 51
4, 17758, Note_on_c, 2, 74, 0
4, 17760, Note_on_c, 2, 72, 54
4, 17871, Note_on_c, 2, 72, 0
4, 17880, Note_on_c, 2, 71, 53
4, 17970, Note_on_c, 2, 69, 52
4, 17988, Note_on_c, 2, 71, 0
4, 18215, Note_on_c, 2, 69, 0
4, 18375, Control_c, 2, 10, 72
4, 18389, Control_c, 2, 10, 73
4, 18391, Control_c, 2, 10, 77
4, 18396, Control_c, 2, 10, 80
4, 18401, Control_c, 2, 10, 86
4, 18468, Control_c, 2, 10, 89
4, 18473, Control_c, 2, 10, 91
4, 19815, Control_c, 2, 10, 86
4, 19835, Control_c, 2, 10, 84
4, 19840, Control_c, 2, 10, 82
4, 19852, Control_c, 2, 10, 80
4, 19871, Control_c, 2, 10, 78
4, 19881, Control_c, 2, 10, 77
4, 19912, Control_c, 2, 10, 75
4, 19920, Control_c, 2, 10, 73
4, 19963, Control_c, 2, 10, 74
4, 19968, Control_c, 2, 10, 77
4, 19973, Control_c, 2, 10, 80
4, 19980, Control_c, 2, 10, 82
4, 19985, Control_c, 2, 10, 84
4, 19990, Control_c, 2, 10, 93
4, 19990, Control_c, 2, 10, 90
4, 20002, Control_c, 2, 10, 95
4, 20010, Control_c, 2, 10, 100
4, 20093, Control_c, 2, 10, 97
4, 20115, Control_c, 2, 10, 95
4, 21475, Control_c, 2, 93, 68
4, 21475, Control_c, 2, 93, 65
4, 21490, Control_c, 2, 93, 80
4, 21490, Control_c, 2, 93, 78
4, 21494, Control_c, 2, 93, 88
4, 21501, Control_c, 2, 93, 90
4, 21504, Control_c, 2, 93, 92
4, 21515, Control_c, 2, 93, 94
4, 21520, Control_c, 2, 93, 97
4, 21526, Control_c, 2, 93, 100
4, 21545, Control_c, 2, 93, 105
4, 21550, Control_c, 2, 93, 108
4, 21555, Control_c, 2, 93, 110
4, 21587, Control_c, 2, 93, 108
4, 21595, Control_c, 2, 93, 105
4, 21605, Control_c, 2, 93, 103
4, 21610, Control_c, 2, 93, 98
4, 21613, Control_c, 2, 93, 96
4, 21623, Control_c, 2, 93, 94
4, 21653, Control_c, 2, 93, 90
4, 21653, Control_c, 2, 93, 92
4, 21660, Control_c, 2, 93, 89
4, 23291, Control_c, 2, 10, 91
4, 23330, Control_c, 2, 10, 89
4, 23333, Control_c, 2, 10, 88
4, 23336, Control_c, 2, 10, 86
4, 32400, Note_on_c, 2, 74, 67
4, 32570, Note_on_c, 2, 74, 0
4, 32640, Note_on_c, 2, 74, 59
4, 32852, Note_on_c, 2, 74, 0
4, 32880, Note_on_c, 2, 76, 74
4, 33113, Note_on_c, 2, 76, 0
4, 33180, Note_on_c, 2, 81, 65
4, 33270, Note_on_c, 2, 79, 58
4, 33280, Note_on_c, 2, 81, 0
4, 33355, Note_on_c, 2, 79, 0
4, 33360, Note_on_c, 2, 78, 54
4, 33600, Note_on_c, 2, 74, 64
4, 33602, Note_on_c, 2, 78, 0
4, 33840, Note_on_c, 2, 72, 54
4, 33843, Note_on_c, 2, 74, 0
4, 33960, Note_on_c, 2, 71, 59
4, 33964, Note_on_c, 2, 72, 0
4, 34050, Note_on_c, 2, 69, 54
4, 34066, Note_on_c, 2, 71, 0
4, 34220, Note_on_c, 2, 69, 0
4, 38220, Note_on_c, 2, 76, 79
4, 38280, Note_on_c, 2, 81, 64
4, 38281, Note_on_c, 2, 76, 0
4, 38381, Note_on_c, 2, 81, 0
4, 38430, Note_on_c, 2, 76, 64
4, 38489, Note_on_c, 2, 76, 0
4, 38490, Note_on_c, 2, 81, 60
4, 38592, Note_on_c, 2, 81, 0
4, 38700, Note_on_c, 2, 76, 69
4, 38753, Note_on_c, 2, 76, 0
4, 38760, Note_on_c, 2, 80, 65
4, 38843, Note_on_c, 2, 80, 0
4, 38910, Note_on_c, 2, 75, 65
4, 38970, Note_on_c, 2, 75, 0
4, 38970, Note_on_c, 2, 80, 60
4, 39027, Note_on_c, 2, 80, 0
4, 39030, Note_on_c, 2, 78, 58
4, 39060, Note_on_c, 2, 75, 62
4, 39069, Note_on_c, 2, 78, 0
4, 39110, Note_on_c, 2, 75, 0
4, 39180, Note_on_c, 2, 76, 72
4, 39240, Note_on_c, 2, 81, 63
4, 39242, Note_on_c, 2, 76, 0
4, 39320, Note_on_c, 2, 81, 0
4, 39390, Note_on_c, 2, 75, 61
4, 39450, Note_on_c, 2, 80, 62
4, 39459, Note_on_c, 2, 75, 0
4, 39560, Note_on_c, 2, 80, 0
4, 39660, Note_on_c, 2, 73, 46
4, 39800, Note_on_c, 2, 73, 0
4, 39810, Note_on_c, 2, 73, 41
4, 39907, Note_on_c, 2, 73, 0
4, 39930, Note_on_c, 2, 73, 43
4, 40046, Note_on_c, 2, 73, 0
4, 40140, Note_on_c, 2, 76, 74
4, 40200, Note_on_c, 2, 81, 65
4, 40210, Note_on_c, 2, 76, 0
4, 40295, Note_on_c, 2, 81, 0
4, 40350, Note_on_c, 2, 76, 67
4, 40410, Note_on_c, 2, 81, 61
4, 40416, Note_on_c, 2, 76, 0
4, 40526, Note_on_c, 2, 81, 0
4, 40620, Note_on_c, 2, 76, 67
4, 40680, Note_on_c, 2, 80, 69
4, 40688, Note_on_c, 2, 76, 0
4, 40768, Note_on_c, 2, 80, 0
4, 40830, Note_on_c, 2, 75, 67
4, 40888, Note_on_c, 2, 75, 0
4, 40890, Note_on_c, 2, 80, 60
4, 40950, Note_on_c, 2, 78, 60
4, 40954, Note_on_c, 2, 80, 0
4, 40980, Note_on_c, 2, 75, 67
4, 40986, Note_on_c, 2, 78, 0
4, 41030, Note_on_c, 2, 75, 0
4, 41100, Note_on_c, 2, 76, 72
4, 41160, Note_on_c, 2, 81, 60
4, 41167, Note_on_c, 2, 76, 0
4, 41261, Note_on_c, 2, 81, 0
4, 41310, Note_on_c, 2, 75, 62
4, 41368, Note_on_c, 2, 75, 0
4, 41370, Note_on_c, 2, 80, 64
4, 41483, Note_on_c, 2, 80, 0
4, 41580, Note_on_c, 2, 73, 50
4, 41628, Note_on_c, 2, 73, 0
4, 41640, Note_on_c, 2, 73, 48
4, 41722, Note_on_c, 2, 73, 0
4, 41730, Note_on_c, 2, 73, 50
4, 41767, Note_on_c, 2, 73, 0
4, 41790, Note_on_c, 2, 73, 47
4, 41833, Note_on_c, 2, 73, 0
4, 41850, Note_on_c, 2, 73, 52
4, 41877, Note_on_c, 2, 73, 0
4, 41910, Note_on_c, 2, 73, 59
4, 41983, Note_on_c, 2, 73, 0
4, 42000, Note_on_c, 2, 74, 79
4, 42210, Note_on_c, 2, 74, 0
4, 42210, End_track
5, 0, Start_track
5, 0, MIDI_port, 0
5, 0, Title_t, "Classic Guitar"
5, 0, Control_c, 3, 0, 56
5, 0, Control_c, 3, 32, 0
5, 0, Program_c, 3, 24
5, 0, Control_c, 3, 7, 100
5, 0, Control_c, 3, 10, 64
5, 660, Control_c, 3, 7, 127
5, 660, Control_c, 3, 10, 64
5, 1958, Control_c, 3, 10, 63
5, 1975, Control_c, 3, 10, 55
5, 1980, Control_c, 3, 10, 52
5, 1994, Control_c, 3, 10, 49
5, 2029, Control_c, 3, 10, 47
5, 2579, Control_c, 3, 7, 126
5, 2583, Control_c, 3, 7, 124
5, 2587, Control_c, 3, 7, 123
5, 2595, Control_c, 3, 7, 122
5, 2622, Control_c, 3, 7, 120
5, 2631, Control_c, 3, 10, 80
5, 2631, Control_c, 3, 10, 75
5, 2633, Control_c, 3, 7, 119
5, 2638, Control_c, 3, 7, 117
5, 2639, Control_c, 3, 10, 84
5, 2642, Control_c, 3, 10, 87
5, 2647, Control_c, 3, 10, 89
5, 2653, Control_c, 3, 10, 97
5, 2653, Control_c, 3, 10, 93
5, 2658, Control_c, 3, 10, 100
5, 2678, Control_c, 3, 10, 103
5, 2683, Control_c, 3, 10, 105
5, 2688, Control_c, 3, 10, 108
5, 2700, Control_c, 3, 10, 113
5, 2700, Control_c, 3, 10, 110
5, 2705, Control_c, 3, 10, 115
5, 2738, Control_c, 3, 10, 110
5, 2740, Control_c, 3, 10, 105
5, 2745, Control_c, 3, 10, 103
5, 2750, Control_c, 3, 10, 100
5, 2800, Control_c, 3, 10, 98
5, 2805, Control_c, 3, 10, 96
5, 2820, Control_c, 3, 10, 94
5, 2835, Control_c, 3, 10, 92
5, 2844, Control_c, 3, 10, 90
5, 2850, Control_c, 3, 10, 88
5, 2862, Control_c, 3, 10, 87
5, 4800, Note_on_c, 3, 74, 58
5, 4800, Note_on_c, 3, 62, 67
5, 4818, Note_on_c, 3, 62, 0
5, 4821, Note_on_c, 3, 74, 0
5, 4860, Note_on_c, 3, 74, 60
5, 4860, Note_on_c, 3, 62, 62
5, 4882, Note_on_c, 3, 62, 0
5, 4886, Note_on_c, 3, 74, 0
5, 4950, Note_on_c, 3, 74, 62
5, 4950, Note_on_c, 3, 62, 58
5, 4968, Note_on_c, 3, 62, 0
5, 4972, Note_on_c, 3, 74, 0
5, 5010, Note_on_c, 3, 74, 58
5, 5010, Note_on_c, 3, 62, 57
5, 5027, Note_on_c, 3, 62, 0
5, 5033, Note_on_c, 3, 74, 0
5, 5070, Note_on_c, 3, 74, 57
5, 5070, Note_on_c, 3, 62, 52
5, 5089, Note_on_c, 3, 62, 0
5, 5095, Note_on_c, 3, 74, 0
5, 5130, Note_on_c, 3, 74, 53
5, 5130, Note_on_c, 3, 62, 44
5, 5141, Note_on_c, 3, 62, 0
5, 5143, Note_on_c, 3, 74, 0
5, 5160, Note_on_c, 3, 74, 60
5, 5160, Note_on_c, 3, 62, 58
5, 5183, Note_on_c, 3, 62, 0
5, 5187, Note_on_c, 3, 74, 0
5, 5280, Note_on_c, 3, 76, 67
5, 5280, Note_on_c, 3, 64, 61
5, 5296, Note_on_c, 3, 64, 0
5, 5299, Note_on_c, 3, 76, 0
5, 5340, Note_on_c, 3, 76, 54
5, 5340, Note_on_c, 3, 64, 53
5, 5359, Note_on_c, 3, 64, 0
5, 5359, Note_on_c, 3, 76, 0
5, 5430, Note_on_c, 3, 64, 59
5, 5430, Note_on_c, 3, 76, 59
5, 5451, Note_on_c, 3, 76, 0
5, 5451, Note_on_c, 3, 64, 0
5, 5490, Note_on_c, 3, 66, 59
5, 5490, Note_on_c, 3, 78, 67
5, 5508, Note_on_c, 3, 66, 0
5, 5510, Note_on_c, 3, 78, 0
5, 5550, Note_on_c, 3, 66, 49
5, 5550, Note_on_c, 3, 78, 59
5, 5568, Note_on_c, 3, 66, 0
5, 5570, Note_on_c, 3, 78, 0
5, 5610, Note_on_c, 3, 78, 51
5, 5610, Note_on_c, 3, 66, 46
5, 5624, Note_on_c, 3, 66, 0
5, 5627, Note_on_c, 3, 78, 0
5, 5640, Note_on_c, 3, 62, 53
5, 5640, Note_on_c, 3, 74, 60
5, 5668, Note_on_c, 3, 62, 0
5, 5669, Note_on_c, 3, 74, 0
5, 5700, Note_on_c, 3, 62, 54
5, 5700, Note_on_c, 3, 74, 47
5, 5716, Note_on_c, 3, 62, 0
5, 5720, Note_on_c, 3, 74, 0
5, 5760, Note_on_c, 3, 74, 61
5, 5760, Note_on_c, 3, 62, 58
5, 5778, Note_on_c, 3, 62, 0
5, 5783, Note_on_c, 3, 74, 0
5, 5820, Note_on_c, 3, 74, 53
5, 5820, Note_on_c, 3, 62, 59
5, 5838, Note_on_c, 3, 62, 0
5, 5843, Note_on_c, 3, 74, 0
5, 5855, Control_c, 3, 10, 51
5, 5860, Control_c, 3, 10, 54
5, 5864, Control_c, 3, 10, 59
5, 5869, Control_c, 3, 10, 72
5, 5869, Control_c, 3, 10, 67
5, 5874, Control_c, 3, 10, 81
5, 5880, Control_c, 3, 7, 116
5, 5880, Control_c, 3, 10, 84
5, 5885, Control_c, 3, 7, 114
5, 5885, Control_c, 3, 10, 87
5, 5890, Control_c, 3, 10, 89
5, 5910, Note_on_c, 3, 74, 60
5, 5910, Note_on_c, 3, 62, 53
5, 5926, Note_on_c, 3, 62, 0
5, 5932, Note_on_c, 3, 74, 0
5, 5970, Note_on_c, 3, 74, 58
5, 5970, Note_on_c, 3, 62, 54
5, 5987, Note_on_c, 3, 62, 0
5, 5992, Note_on_c, 3, 74, 0
5, 6030, Note_on_c, 3, 74, 55
5, 6030, Note_on_c, 3, 62, 50
5, 6035, Control_c, 3, 10, 87
5, 6048, Note_on_c, 3, 62, 0
5, 6048, Control_c, 3, 10, 84
5, 6054, Note_on_c, 3, 74, 0
5, 6090, Note_on_c, 3, 74, 58
5, 6090, Note_on_c, 3, 62, 50
5, 6101, Note_on_c, 3, 62, 0
5, 6103, Note_on_c, 3, 74, 0
5, 6111, Control_c, 3, 10, 82
5, 6120, Control_c, 3, 10, 79
5, 6120, Note_on_c, 3, 74, 60
5, 6120, Note_on_c, 3, 62, 59
5, 6125, Control_c, 3, 10, 75
5, 6130, Control_c, 3, 10, 72
5, 6134, Control_c, 3, 10, 70
5, 6143, Note_on_c, 3, 62, 0
5, 6143, Control_c, 3, 10, 63
5, 6143, Control_c, 3, 10, 67
5, 6148, Note_on_c, 3, 74, 0
5, 6148, Control_c, 3, 10, 59
5, 6157, Control_c, 3, 10, 55
5, 6167, Control_c, 3, 10, 52
5, 6172, Control_c, 3, 10, 49
5, 6177, Control_c, 3, 10, 46
5, 6180, Control_c, 3, 10, 42
5, 6205, Control_c, 3, 10, 40
5, 6210, Control_c, 3, 10, 37
5, 6215, Control_c, 3, 10, 33
5, 6234, Control_c, 3, 10, 30
5, 6234, Control_c, 3, 10, 32
5, 6240, Note_on_c, 3, 60, 58
5, 6240, Note_on_c, 3, 72, 59
5, 6263, Control_c, 3, 10, 31
5, 6268, Control_c, 3, 10, 32
5, 6273, Control_c, 3, 10, 33
5, 6320, Control_c, 3, 10, 36
5, 6335, Control_c, 3, 10, 37
5, 6342, Control_c, 3, 10, 42
5, 6342, Control_c, 3, 10, 40
5, 6355, Note_on_c, 3, 60, 0
5, 6360, Note_on_c, 3, 59, 59
5, 6360, Note_on_c, 3, 71, 51
5, 6365, Note_on_c, 3, 72, 0
5, 6365, Control_c, 3, 10, 44
5, 6390, Note_on_c, 3, 62, 58
5, 6390, Note_on_c, 3, 74, 54
5, 6419, Note_on_c, 3, 74, 0
5, 6422, Note_on_c, 3, 62, 0
5, 6432, Control_c, 3, 10, 46
5, 6450, Note_on_c, 3, 71, 0
5, 6450, Note_on_c, 3, 62, 58
5, 6450, Note_on_c, 3, 74, 58
5, 6450, Note_on_c, 3, 57, 38
5, 6450, Note_on_c, 3, 69, 48
5, 6456, Note_on_c, 3, 59, 0
5, 6480, Control_c, 3, 10, 49
5, 6485, Control_c, 3, 10, 51
5, 6516, Note_on_c, 3, 74, 0
5, 6518, Note_on_c, 3, 62, 0
5, 6525, Note_on_c, 3, 57, 0
5, 6529, Note_on_c, 3, 69, 0
5, 6720, Note_on_c, 3, 74, 58
5, 6720, Note_on_c, 3, 62, 67
5, 6738, Note_on_c, 3, 62, 0
5, 6741, Note_on_c, 3, 74, 0
5, 6780, Note_on_c, 3, 74, 60
5, 6780, Note_on_c, 3, 62, 62
5, 6802, Note_on_c, 3, 62, 0
5, 6806, Note_on_c, 3, 74, 0
5, 6870, Note_on_c, 3, 74, 62
5, 6870, Note_on_c, 3, 62, 58
5, 6888, Note_on_c, 3, 62, 0
5, 6892, Note_on_c, 3, 74, 0
5, 6930, Note_on_c, 3, 74, 58
5, 6930, Note_on_c, 3, 62, 57
5, 6947, Note_on_c, 3, 62, 0
5, 6953, Note_on_c, 3, 74, 0
5, 6990, Note_on_c, 3, 74, 57
5, 6990, Note_on_c, 3, 62, 52
5, 7009, Note_on_c, 3, 62, 0
5, 7015, Note_on_c, 3, 74, 0
5, 7050, Note_on_c, 3, 74, 53
5, 7050, Note_on_c, 3, 62, 44
5, 7061, Note_on_c, 3, 62, 0
5, 7063, Note_on_c, 3, 74, 0
5, 7080, Note_on_c, 3, 74, 60
5, 7080, Note_on_c, 3, 62, 58
5, 7103, Note_on_c, 3, 62, 0
5, 7107, Note_on_c, 3, 74, 0
5, 7112, Control_c, 3, 10, 52
5, 7117, Control_c, 3, 10, 54
5, 7121, Control_c, 3, 10, 57
5, 7126, Control_c, 3, 10, 60
5, 7131, Control_c, 3, 10, 77
5, 7131, Control_c, 3, 10, 69
5, 7136, Control_c, 3, 10, 79
5, 7165, Control_c, 3, 10, 80
5, 7170, Control_c, 3, 10, 86
5, 7170, Control_c, 3, 10, 82
5, 7200, Note_on_c, 3, 76, 67
5, 7200, Note_on_c, 3, 64, 61
5, 7216, Note_on_c, 3, 64, 0
5, 7219, Note_on_c, 3, 76, 0
5, 7260, Note_on_c, 3, 76, 54
5, 7260, Note_on_c, 3, 64, 53
5, 7279, Note_on_c, 3, 64, 0
5, 7279, Note_on_c, 3, 76, 0
5, 7350, Note_on_c, 3, 64, 59
5, 7350, Note_on_c, 3, 76, 59
5, 7371, Note_on_c, 3, 76, 0
5, 7371, Note_on_c, 3, 64, 0
5, 7410, Note_on_c, 3, 66, 59
5, 7410, Note_on_c, 3, 78, 67
5, 7428, Note_on_c, 3, 66, 0
5, 7430, Note_on_c, 3, 78, 0
5, 7470, Note_on_c, 3, 66, 49
5, 7470, Note_on_c, 3, 78, 59
5, 7488, Note_on_c, 3, 66, 0
5, 7490, Note_on_c, 3, 78, 0
5, 7530, Note_on_c, 3, 78, 51
5, 7530, Note_on_c, 3, 66, 46
5, 7544, Note_on_c, 3, 66, 0
5, 7547, Note_on_c, 3, 78, 0
5, 7560, Note_on_c, 3, 62, 53
5, 7560, Note_on_c, 3, 74, 60
5, 7588, Note_on_c, 3, 62, 0
5, 7589, Note_on_c, 3, 74, 0
5, 7620, Note_on_c, 3, 62, 54
5, 7620, Note_on_c, 3, 74, 47
5, 7636, Note_on_c, 3, 62, 0
5, 7640, Note_on_c, 3, 74, 0
5, 7680, Note_on_c, 3, 74, 61
5, 7680, Note_on_c, 3, 62, 58
5, 7698, Note_on_c, 3, 62, 0
5, 7703, Note_on_c, 3, 74, 0
5, 7740, Note_on_c, 3, 74, 53
5, 7740, Note_on_c, 3, 62, 59
5, 7758, Note_on_c, 3, 62, 0
5, 7763, Note_on_c, 3, 74, 0
5, 7830, Note_on_c, 3, 74, 60
5, 7830, Note_on_c, 3, 62, 53
5, 7846, Note_on_c, 3, 62, 0
5, 7852, Note_on_c, 3, 74, 0
5, 7890, Note_on_c, 3, 74, 58
5, 7890, Note_on_c, 3, 62, 54
5, 7907, Note_on_c, 3, 62, 0
5, 7912, Note_on_c, 3, 74, 0
5, 7950, Note_on_c, 3, 74, 55
5, 7950, Note_on_c, 3, 62, 50
5, 7968, Note_on_c, 3, 62, 0
5, 7974, Note_on_c, 3, 74, 0
5, 8010, Note_on_c, 3, 74, 58
5, 8010, Note_on_c, 3, 62, 50
5, 8021, Note_on_c, 3, 62, 0
5, 8023, Note_on_c, 3, 74, 0
5, 8040, Note_on_c, 3, 74, 60
5, 8040, Note_on_c, 3, 62, 59
5, 8063, Note_on_c, 3, 62, 0
5, 8068, Note_on_c, 3, 74, 0
5, 8160, Note_on_c, 3, 60, 58
5, 8160, Note_on_c, 3, 72, 59
5, 8275, Note_on_c, 3, 60, 0
5, 8280, Note_on_c, 3, 59, 59
5, 8280, Note_on_c, 3, 71, 51
5, 8285, Note_on_c, 3, 72, 0
5, 8310, Note_on_c, 3, 62, 61
5, 8310, Note_on_c, 3, 74, 60
5, 8336, Note_on_c, 3, 74, 0
5, 8339, Note_on_c, 3, 62, 0
5, 8370, Note_on_c, 3, 71, 0
5, 8370, Note_on_c, 3, 62, 61
5, 8370, Note_on_c, 3, 74, 58
5, 8370, Note_on_c, 3, 57, 38
5, 8370, Note_on_c, 3, 69, 48
5, 8376, Note_on_c, 3, 59, 0
5, 8445, Note_on_c, 3, 57, 0
5, 8445, Note_on_c, 3, 62, 0
5, 8448, Note_on_c, 3, 74, 0
5, 8449, Note_on_c, 3, 69, 0
5, 8640, Note_on_c, 3, 74, 58
5, 8640, Note_on_c, 3, 62, 67
5, 8658, Note_on_c, 3, 62, 0
5, 8661, Note_on_c, 3, 74, 0
5, 8700, Note_on_c, 3, 74, 60
5, 8700, Note_on_c, 3, 62, 62
5, 8722, Note_on_c, 3, 62, 0
5, 8726, Note_on_c, 3, 74, 0
5, 8790, Note_on_c, 3, 74, 62
5, 8790, Note_on_c, 3, 62, 58
5, 8808, Note_on_c, 3, 62, 0
5, 8812, Note_on_c, 3, 74, 0
5, 8850, Note_on_c, 3, 74, 58
5, 8850, Note_on_c, 3, 62, 57
5, 8867, Note_on_c, 3, 62, 0
5, 8873, Note_on_c, 3, 74, 0
5, 8910, Note_on_c, 3, 74, 57
5, 8910, Note_on_c, 3, 62, 52
5, 8929, Note_on_c, 3, 62, 0
5, 8935, Note_on_c, 3, 74, 0
5, 8970, Note_on_c, 3, 74, 53
5, 8970, Note_on_c, 3, 62, 44
5, 8981, Note_on_c, 3, 62, 0
5, 8983, Note_on_c, 3, 74, 0
5, 9000, Note_on_c, 3, 74, 60
5, 9000, Note_on_c, 3, 62, 58
5, 9023, Note_on_c, 3, 62, 0
5, 9027, Note_on_c, 3, 74, 0
5, 9120, Note_on_c, 3, 76, 67
5, 9120, Note_on_c, 3, 64, 61
5, 9136, Note_on_c, 3, 64, 0
5, 9139, Note_on_c, 3, 76, 0
5, 9180, Note_on_c, 3, 76, 54
5, 9180, Note_on_c, 3, 64, 53
5, 9199, Note_on_c, 3, 64, 0
5, 9199, Note_on_c, 3, 76, 0
5, 9270, Note_on_c, 3, 64, 59
5, 9270, Note_on_c, 3, 76, 59
5, 9291, Note_on_c, 3, 76, 0
5, 9291, Note_on_c, 3, 64, 0
5, 9330, Note_on_c, 3, 66, 59
5, 9330, Note_on_c, 3, 78, 67
5, 9348, Note_on_c, 3, 66, 0
5, 9350, Note_on_c, 3, 78, 0
5, 9390, Note_on_c, 3, 66, 49
5, 9390, Note_on_c, 3, 78, 59
5, 9408, Note_on_c, 3, 66, 0
5, 9410, Note_on_c, 3, 78, 0
5, 9450, Note_on_c, 3, 78, 51
5, 9450, Note_on_c, 3, 66, 46
5, 9464, Note_on_c, 3, 66, 0
5, 9467, Note_on_c, 3, 78, 0
5, 9480, Note_on_c, 3, 62, 53
5, 9480, Note_on_c, 3, 74, 60
5, 9508, Note_on_c, 3, 62, 0
5, 9509, Note_on_c, 3, 74, 0
5, 9540, Note_on_c, 3, 62, 54
5, 9540, Note_on_c, 3, 74, 47
5, 9556, Note_on_c, 3, 62, 0
5, 9560, Note_on_c, 3, 74, 0
5, 9600, Note_on_c, 3, 74, 61
5, 9600, Note_on_c, 3, 62, 58
5, 9618, Note_on_c, 3, 62, 0
5, 9623, Note_on_c, 3, 74, 0
5, 9660, Note_on_c, 3, 74, 53
5, 9660, Note_on_c, 3, 62, 59
5, 9678, Note_on_c, 3, 62, 0
5, 9683, Note_on_c, 3, 74, 0
5, 9750, Note_on_c, 3, 74, 60
5, 9750, Note_on_c, 3, 62, 53
5, 9766, Note_on_c, 3, 62, 0
5, 9772, Note_on_c, 3, 74, 0
5, 9810, Note_on_c, 3, 74, 58
5, 9810, Note_on_c, 3, 62, 54
5, 9827, Note_on_c, 3, 62, 0
5, 9832, Note_on_c, 3, 74, 0
5, 9870, Note_on_c, 3, 74, 55
5, 9870, Note_on_c, 3, 62, 50
5, 9888, Note_on_c, 3, 62, 0
5, 9894, Note_on_c, 3, 74, 0
5, 9930, Note_on_c, 3, 74, 58
5, 9930, Note_on_c, 3, 62, 50
5, 9941, Note_on_c, 3, 62, 0
5, 9943, Note_on_c, 3, 74, 0
5, 9960, Note_on_c, 3, 74, 60
5, 9960, Note_on_c, 3, 62, 59
5, 9983, Note_on_c, 3, 62, 0
5, 9988, Note_on_c, 3, 74, 0
5, 10080, Note_on_c, 3, 60, 58
5, 10080, Note_on_c, 3, 72, 59
5, 10195, Note_on_c, 3, 60, 0
5, 10200, Note_on_c, 3, 59, 59
5, 10200, Note_on_c, 3, 71, 51
5, 10205, Note_on_c, 3, 72, 0
5, 10230, Note_on_c, 3, 62, 62
5, 10230, Note_on_c, 3, 74, 59
5, 10256, Note_on_c, 3, 74, 0
5, 10257, Note_on_c, 3, 62, 0
5, 10290, Note_on_c, 3, 71, 0
5, 10290, Note_on_c, 3, 62, 58
5, 10290, Note_on_c, 3, 74, 58
5, 10290, Note_on_c, 3, 57, 38
5, 10290, Note_on_c, 3, 69, 48
5, 10296, Note_on_c, 3, 59, 0
5, 10345, Note_on_c, 3, 62, 0
5, 10346, Note_on_c, 3, 74, 0
5, 10365, Note_on_c, 3, 57, 0
5, 10369, Note_on_c, 3, 69, 0
5, 10560, Note_on_c, 3, 74, 58
5, 10560, Note_on_c, 3, 62, 67
5, 10578, Note_on_c, 3, 62, 0
5, 10581, Note_on_c, 3, 74, 0
5, 10620, Note_on_c, 3, 74, 60
5, 10620, Note_on_c, 3, 62, 62
5, 10642, Note_on_c, 3, 62, 0
5, 10646, Note_on_c, 3, 74, 0
5, 10710, Note_on_c, 3, 74, 62
5, 10710, Note_on_c, 3, 62, 58
5, 10728, Note_on_c, 3, 62, 0
5, 10732, Note_on_c, 3, 74, 0
5, 10770, Note_on_c, 3, 74, 58
5, 10770, Note_on_c, 3, 62, 57
5, 10787, Note_on_c, 3, 62, 0
5, 10793, Note_on_c, 3, 74, 0
5, 10830, Note_on_c, 3, 74, 57
5, 10830, Note_on_c, 3, 62, 52
5, 10849, Note_on_c, 3, 62, 0
5, 10855, Note_on_c, 3, 74, 0
5, 10890, Note_on_c, 3, 74, 53
5, 10890, Note_on_c, 3, 62, 44
5, 10901, Note_on_c, 3, 62, 0
5, 10903, Note_on_c, 3, 74, 0
5, 10920, Note_on_c, 3, 74, 60
5, 10920, Note_on_c, 3, 62, 58
5, 10943, Note_on_c, 3, 62, 0
5, 10947, Note_on_c, 3, 74, 0
5, 11040, Note_on_c, 3, 76, 67
5, 11040, Note_on_c, 3, 64, 61
5, 11056, Note_on_c, 3, 64, 0
5, 11059, Note_on_c, 3, 76, 0
5, 11100, Note_on_c, 3, 76, 54
5, 11100, Note_on_c, 3, 64, 53
5, 11119, Note_on_c, 3, 64, 0
5, 11119, Note_on_c, 3, 76, 0
5, 11190, Note_on_c, 3, 64, 59
5, 11190, Note_on_c, 3, 76, 59
5, 11211, Note_on_c, 3, 76, 0
5, 11211, Note_on_c, 3, 64, 0
5, 11250, Note_on_c, 3, 66, 59
5, 11250, Note_on_c, 3, 78, 67
5, 11268, Note_on_c, 3, 66, 0
5, 11270, Note_on_c, 3, 78, 0
5, 11310, Note_on_c, 3, 66, 49
5, 11310, Note_on_c, 3, 78, 59
5, 11328, Note_on_c, 3, 66, 0
5, 11330, Note_on_c, 3, 78, 0
5, 11370, Note_on_c, 3, 78, 51
5, 11370, Note_on_c, 3, 66, 46
5, 11384, Note_on_c, 3, 66, 0
5, 11387, Note_on_c, 3, 78, 0
5, 11400, Note_on_c, 3, 62, 53
5, 11400, Note_on_c, 3, 74, 60
5, 11428, Note_on_c, 3, 62, 0
5, 11429, Note_on_c, 3, 74, 0
5, 11460, Note_on_c, 3, 62, 54
5, 11460, Note_on_c, 3, 74, 47
5, 11476, Note_on_c, 3, 62, 0
5, 11480, Note_on_c, 3, 74, 0
5, 11520, Note_on_c, 3, 74, 61
5, 11520, Note_on_c, 3, 62, 58
5, 11538, Note_on_c, 3, 62, 0
5, 11543, Note_on_c, 3, 74, 0
5, 11580, Note_on_c, 3, 74, 53
5, 11580, Note_on_c, 3, 62, 59
5, 11598, Note_on_c, 3, 62, 0
5, 11603, Note_on_c, 3, 74, 0
5, 11670, Note_on_c, 3, 74, 60
5, 11670, Note_on_c, 3, 62, 53
5, 11686, Note_on_c, 3, 62, 0
5, 11692, Note_on_c, 3, 74, 0
5, 11730, Note_on_c, 3, 74, 58
5, 11730, Note_on_c, 3, 62, 54
5, 11747, Note_on_c, 3, 62, 0
5, 11752, Note_on_c, 3, 74, 0
5, 11790, Note_on_c, 3, 74, 55
5, 11790, Note_on_c, 3, 62, 50
5, 11808, Note_on_c, 3, 62, 0
5, 11814, Note_on_c, 3, 74, 0
5, 11850, Note_on_c, 3, 74, 58
5, 11850, Note_on_c, 3, 62, 50
5, 11861, Note_on_c, 3, 62, 0
5, 11863, Note_on_c, 3, 74, 0
5, 11880, Note_on_c, 3, 74, 60
5, 11880, Note_on_c, 3, 62, 59
5, 11903, Note_on_c, 3, 62, 0
5, 11908, Note_on_c, 3, 74, 0
5, 12000, Note_on_c, 3, 60, 58
5, 12000, Note_on_c, 3, 72, 59
5, 12115, Note_on_c, 3, 60, 0
5, 12120, Note_on_c, 3, 59, 59
5, 12120, Note_on_c, 3, 71, 51
5, 12125, Note_on_c, 3, 72, 0
5, 12150, Note_on_c, 3, 62, 64
5, 12150, Note_on_c, 3, 74, 60
5, 12178, Note_on_c, 3, 62, 0
5, 12180, Note_on_c, 3, 74, 0
5, 12210, Note_on_c, 3, 71, 0
5, 12210, Note_on_c, 3, 62, 60
5, 12210, Note_on_c, 3, 74, 59
5, 12210, Note_on_c, 3, 57, 38
5, 12210, Note_on_c, 3, 69, 48
5, 12216, Note_on_c, 3, 59, 0
5, 12278, Note_on_c, 3, 74, 0
5, 12285, Note_on_c, 3, 57, 0
5, 12289, Note_on_c, 3, 69, 0
5, 12290, Note_on_c, 3, 62, 0
5, 13020, Note_on_c, 3, 76, 74
5, 13080, Note_on_c, 3, 76, 0
5, 13080, Note_on_c, 3, 78, 75
5, 13140, Note_on_c, 3, 78, 0
5, 13140, Note_on_c, 3, 80, 75
5, 13199, Note_on_c, 3, 80, 0
5, 13200, Note_on_c, 3, 83, 75
5, 13350, Note_on_c, 3, 83, 0
5, 14940, Note_on_c, 3, 76, 75
5, 14994, Note_on_c, 3, 76, 0
5, 15000, Note_on_c, 3, 78, 74
5, 15060, Note_on_c, 3, 80, 75
5, 15061, Note_on_c, 3, 78, 0
5, 15104, Note_on_c, 3, 80, 0
5, 15120, Note_on_c, 3, 83, 75
5, 15273, Note_on_c, 3, 83, 0
5, 22620, Note_on_c, 3, 76, 75
5, 22678, Note_on_c, 3, 76, 0
5, 22680, Note_on_c, 3, 78, 75
5, 22740, Note_on_c, 3, 80, 75
5, 22748, Note_on_c, 3, 78, 0
5, 22800, Note_on_c, 3, 83, 75
5, 22808, Note_on_c, 3, 80, 0
5, 22953, Note_on_c, 3, 83, 0
5, 24540, Note_on_c, 3, 76, 75
5, 24596, Note_on_c, 3, 76, 0
5, 24600, Note_on_c, 3, 78, 75
5, 24660, Note_on_c, 3, 80, 75
5, 24663, Note_on_c, 3, 78, 0
5, 24718, Note_on_c, 3, 80, 0
5, 24720, Note_on_c, 3, 83, 75
5, 24873, Note_on_c, 3, 83, 0
5, 30445, Control_c, 3, 93, 60
5, 30450, Control_c, 3, 93, 59
5, 30460, Control_c, 3, 93, 67
5, 30465, Control_c, 3, 93, 75
5, 30470, Control_c, 3, 93, 94
5, 30470, Control_c, 3, 93, 87
5, 30475, Control_c, 3, 93, 97
5, 30485, Control_c, 3, 93, 98
5, 30620, Control_c, 3, 93, 100
5, 30631, Control_c, 3, 93, 93
5, 30631, Control_c, 3, 93, 97
5, 30641, Control_c, 3, 93, 91
5, 30651, Control_c, 3, 93, 89
5, 30656, Control_c, 3, 93, 87
5, 30660, Control_c, 3, 93, 86
5, 30665, Control_c, 3, 93, 84
5, 34860, Note_on_c, 3, 76, 75
5, 34915, Note_on_c, 3, 76, 0
5, 34920, Note_on_c, 3, 78, 75
5, 34980, Note_on_c, 3, 80, 75
5, 34983, Note_on_c, 3, 78, 0
5, 35020, Note_on_c, 3, 80, 0
5, 35040, Note_on_c, 3, 83, 75
5, 35202, Note_on_c, 3, 83, 0
5, 36780, Note_on_c, 3, 76, 75
5, 36834, Note_on_c, 3, 76, 0
5, 36840, Note_on_c, 3, 78, 75
5, 36900, Note_on_c, 3, 80, 75
5, 36901, Note_on_c, 3, 78, 0
5, 36944, Note_on_c, 3, 80, 0
5, 36960, Note_on_c, 3, 83, 75
5, 37113, Note_on_c, 3, 83, 0
5, 38700, Note_on_c, 3, 76, 75
5, 38755, Note_on_c, 3, 76, 0
5, 38760, Note_on_c, 3, 78, 75
5, 38820, Note_on_c, 3, 80, 75
5, 38823, Note_on_c, 3, 78, 0
5, 38860, Note_on_c, 3, 80, 0
5, 38880, Note_on_c, 3, 83, 75
5, 39042, Note_on_c, 3, 83, 0
5, 40620, Note_on_c, 3, 76, 75
5, 40674, Note_on_c, 3, 76, 0
5, 40680, Note_on_c, 3, 78, 75
5, 40688, Control_c, 3, 10, 84
5, 40700, Control_c, 3, 10, 82
5, 40705, Control_c, 3, 10, 75
5, 40711, Control_c, 3, 10, 74
5, 40712, Control_c, 3, 10, 69
5, 40717, Control_c, 3, 10, 65
5, 40722, Control_c, 3, 10, 63
5, 40726, Control_c, 3, 10, 61
5, 40734, Control_c, 3, 10, 58
5, 40739, Control_c, 3, 10, 56
5, 40740, Note_on_c, 3, 80, 75
5, 40741, Note_on_c, 3, 78, 0
5, 40741, Control_c, 3, 10, 54
5, 40751, Control_c, 3, 10, 51
5, 40784, Note_on_c, 3, 80, 0
5, 40787, Control_c, 3, 10, 50
5, 40793, Control_c, 3, 10, 48
5, 40800, Control_c, 3, 10, 46
5, 40800, Note_on_c, 3, 83, 75
5, 40953, Note_on_c, 3, 83, 0
5, 42463, Control_c, 3, 10, 38
5, 42575, Control_c, 3, 10, 40
5, 42580, Control_c, 3, 10, 42
5, 42580, End_track
6, 0, Start_track
6, 0, MIDI_port, 0
6, 0, Title_t, "Jazz Guitar"
6, 0, Control_c, 4, 0, 56
6, 0, Control_c, 4, 32, 0
6, 0, Program_c, 4, 26
6, 0, Control_c, 4, 7, 60
6, 0, Control_c, 4, 10, 100
6, 660, Control_c, 4, 7, 127
6, 660, Control_c, 4, 10, 64
6, 960, Note_on_c, 4, 62, 75
6, 977, Note_on_c, 4, 62, 0
6, 1020, Note_on_c, 4, 62, 87
6, 1034, Note_on_c, 4, 62, 0
6, 1080, Note_on_c, 4, 62, 64
6, 1110, Note_on_c, 4, 64, 75
6, 1124, Note_on_c, 4, 62, 0
6, 1138, Note_on_c, 4, 64, 0
6, 1140, Note_on_c, 4, 66, 60
6, 1162, Note_on_c, 4, 66, 0
6, 1170, Note_on_c, 4, 67, 59
6, 1200, Note_on_c, 4, 67, 0
6, 1230, Note_on_c, 4, 67, 63
6, 1256, Note_on_c, 4, 67, 0
6, 1290, Note_on_c, 4, 67, 60
6, 1310, Note_on_c, 4, 67, 0
6, 1320, Note_on_c, 4, 69, 65
6, 1343, Note_on_c, 4, 69, 0
6, 1350, Note_on_c, 4, 71, 67
6, 1369, Note_on_c, 4, 71, 0
6, 1410, Note_on_c, 4, 72, 72
6, 1627, Note_on_c, 4, 72, 0
6, 1680, Note_on_c, 4, 78, 84
6, 1704, Note_on_c, 4, 78, 0
6, 1740, Note_on_c, 4, 78, 67
6, 1769, Note_on_c, 4, 78, 0
6, 1800, Note_on_c, 4, 79, 69
6, 1824, Note_on_c, 4, 79, 0
6, 1830, Note_on_c, 4, 78, 75
6, 1853, Note_on_c, 4, 78, 0
6, 1980, Note_on_c, 4, 62, 75
6, 1992, Note_on_c, 4, 62, 0
6, 2040, Note_on_c, 4, 62, 79
6, 2070, Note_on_c, 4, 64, 79
6, 2072, Note_on_c, 4, 62, 0
6, 2091, Note_on_c, 4, 64, 0
6, 2100, Note_on_c, 4, 66, 63
6, 2121, Note_on_c, 4, 66, 0
6, 2130, Note_on_c, 4, 67, 62
6, 2155, Note_on_c, 4, 67, 0
6, 2180, Control_c, 4, 10, 63
6, 2185, Control_c, 4, 10, 66
6, 2190, Control_c, 4, 10, 72
6, 2190, Control_c, 4, 10, 69
6, 2190, Note_on_c, 4, 67, 62
6, 2195, Control_c, 4, 10, 74
6, 2205, Control_c, 4, 10, 77
6, 2215, Control_c, 4, 10, 78
6, 2218, Note_on_c, 4, 67, 0
6, 2218, Control_c, 4, 10, 80
6, 2250, Note_on_c, 4, 67, 59
6, 2266, Note_on_c, 4, 67, 0
6, 2280, Note_on_c, 4, 66, 69
6, 2301, Note_on_c, 4, 66, 0
6, 2313, Note_on_c, 4, 64, 75
6, 2329, Note_on_c, 4, 64, 0
6, 2398, Note_on_c, 4, 62, 87
6, 2501, Note_on_c, 4, 62, 0
6, 2525, Pitch_bend_c, 4, 7808
6, 2525, Pitch_bend_c, 4, 7424
6, 2525, Pitch_bend_c, 4, 7040
6, 2525, Pitch_bend_c, 4, 6784
6, 2526, Pitch_bend_c, 4, 6528
6, 2526, Pitch_bend_c, 4, 6272
6, 2527, Pitch_bend_c, 4, 6016
6, 2528, Pitch_bend_c, 4, 5760
6, 2528, Pitch_bend_c, 4, 5504
6, 2529, Pitch_bend_c, 4, 5120
6, 2530, Pitch_bend_c, 4, 4736
6, 2531, Pitch_bend_c, 4, 4480
6, 2532, Pitch_bend_c, 4, 4096
6, 2533, Pitch_bend_c, 4, 3840
6, 2533, Pitch_bend_c, 4, 3456
6, 2534, Pitch_bend_c, 4, 3072
6, 2534, Pitch_bend_c, 4, 2688
6, 2536, Pitch_bend_c, 4, 2304
6, 2536, Pitch_bend_c, 4, 2048
6, 2537, Pitch_bend_c, 4, 1664
6, 2538, Pitch_bend_c, 4, 1280
6, 2539, Pitch_bend_c, 4, 896
6, 2539, Pitch_bend_c, 4, 512
6, 2540, Pitch_bend_c, 4, 128
6, 2549, Note_on_c, 4, 62, 84
6, 2578, Pitch_bend_c, 4, 256
6, 2579, Pitch_bend_c, 4, 384
6, 2579, Pitch_bend_c, 4, 512
6, 2580, Pitch_bend_c, 4, 768
6, 2581, Pitch_bend_c, 4, 896
6, 2582, Pitch_bend_c, 4, 1152
6, 2583, Pitch_bend_c, 4, 1280
6, 2583, Pitch_bend_c, 4, 1408
6, 2584, Pitch_bend_c, 4, 1536
6, 2585, Pitch_bend_c, 4, 1664
6, 2585, Pitch_bend_c, 4, 1920
6, 2586, Pitch_bend_c, 4, 2048
6, 2587, Pitch_bend_c, 4, 2176
6, 2588, Pitch_bend_c, 4, 2432
6, 2588, Pitch_bend_c, 4, 2688
6, 2590, Pitch_bend_c, 4, 2816
6, 2590, Pitch_bend_c, 4, 3072
6, 2591, Pitch_bend_c, 4, 3328
6, 2592, Pitch_bend_c, 4, 3456
6, 2593, Pitch_bend_c, 4, 3712
6, 2593, Pitch_bend_c, 4, 3968
6, 2594, Pitch_bend_c, 4, 4224
6, 2595, Pitch_bend_c, 4, 4480
6, 2596, Pitch_bend_c, 4, 4736
6, 2596, Pitch_bend_c, 4, 4992
6, 2597, Pitch_bend_c, 4, 5376
6, 2598, Pitch_bend_c, 4, 5632
6, 2599, Pitch_bend_c, 4, 5760
6, 2599, Pitch_bend_c, 4, 6016
6, 2600, Pitch_bend_c, 4, 6144
6, 2601, Pitch_bend_c, 4, 6400
6, 2601, Pitch_bend_c, 4, 6528
6, 2603, Pitch_bend_c, 4, 6784
6, 2603, Pitch_bend_c, 4, 6912
6, 2604, Pitch_bend_c, 4, 7040
6, 2604, Pitch_bend_c, 4, 7168
6, 2606, Pitch_bend_c, 4, 7424
6, 2606, Pitch_bend_c, 4, 7552
6, 2607, Pitch_bend_c, 4, 7808
6, 2608, Pitch_bend_c, 4, 7936
6, 2609, Pitch_bend_c, 4, 8192
6, 2631, Note_on_c, 4, 62, 0
6, 2642, Note_on_c, 4, 62, 53
6, 2658, Control_c, 4, 10, 79
6, 2658, Control_c, 4, 10, 74
6, 2668, Control_c, 4, 10, 82
6, 2698, Control_c, 4, 10, 84
6, 2705, Control_c, 4, 10, 87
6, 2717, Control_c, 4, 10, 91
6, 2717, Control_c, 4, 10, 89
6, 2725, Control_c, 4, 10, 94
6, 2733, Note_on_c, 4, 62, 0
6, 2740, Control_c, 4, 10, 96
6, 2780, Control_c, 4, 10, 94
6, 2787, Control_c, 4, 10, 91
6, 2790, Control_c, 4, 10, 89
6, 2795, Control_c, 4, 10, 86
6, 2800, Control_c, 4, 10, 84
6, 2805, Control_c, 4, 7, 126
6, 2813, Control_c, 4, 7, 124
6, 2818, Control_c, 4, 7, 123
6, 2825, Control_c, 4, 7, 122
6, 2862, Control_c, 4, 7, 120
6, 2867, Control_c, 4, 7, 119
6, 2873, Control_c, 4, 7, 117
6, 2880, Note_on_c, 4, 62, 75
6, 2893, Note_on_c, 4, 62, 0
6, 2940, Note_on_c, 4, 62, 79
6, 2956, Note_on_c, 4, 62, 0
6, 2988, Control_c, 4, 10, 63
6, 2988, Control_c, 4, 10, 61
6, 3000, Control_c, 4, 10, 82
6, 3000, Control_c, 4, 10, 72
6, 3000, Note_on_c, 4, 62, 75
6, 3005, Control_c, 4, 10, 89
6, 3010, Control_c, 4, 10, 92
6, 3020, Note_on_c, 4, 62, 0
6, 3030, Control_c, 4, 10, 94
6, 3030, Note_on_c, 4, 64, 74
6, 3035, Control_c, 4, 10, 99
6, 3042, Control_c, 4, 10, 103
6, 3051, Note_on_c, 4, 64, 0
6, 3060, Note_on_c, 4, 66, 84
6, 3076, Note_on_c, 4, 66, 0
6, 3090, Note_on_c, 4, 67, 63
6, 3110, Note_on_c, 4, 67, 0
6, 3120, Control_c, 4, 10, 100
6, 3125, Control_c, 4, 10, 97
6, 3130, Control_c, 4, 10, 95
6, 3150, Note_on_c, 4, 67, 74
6, 3171, Note_on_c, 4, 67, 0
6, 3195, Control_c, 4, 10, 94
6, 3210, Note_on_c, 4, 67, 59
6, 3232, Note_on_c, 4, 67, 0
6, 3240, Note_on_c, 4, 69, 65
6, 3260, Note_on_c, 4, 69, 0
6, 3270, Note_on_c, 4, 71, 60
6, 3293, Note_on_c, 4, 71, 0
6, 3330, Note_on_c, 4, 72, 72
6, 3504, Note_on_c, 4, 72, 0
6, 3600, Note_on_c, 4, 78, 84
6, 3625, Note_on_c, 4, 78, 0
6, 3660, Note_on_c, 4, 78, 74
6, 3686, Note_on_c, 4, 78, 0
6, 3720, Note_on_c, 4, 79, 67
6, 3743, Note_on_c, 4, 79, 0
6, 3750, Note_on_c, 4, 78, 87
6, 3770, Note_on_c, 4, 78, 0
6, 3900, Note_on_c, 4, 62, 79
6, 3916, Note_on_c, 4, 62, 0
6, 3960, Note_on_c, 4, 62, 79
6, 3988, Note_on_c, 4, 62, 0
6, 3990, Note_on_c, 4, 64, 64
6, 4017, Note_on_c, 4, 64, 0
6, 4020, Note_on_c, 4, 66, 69
6, 4035, Note_on_c, 4, 66, 0
6, 4050, Note_on_c, 4, 67, 61
6, 4073, Note_on_c, 4, 67, 0
6, 4110, Note_on_c, 4, 67, 64
6, 4135, Note_on_c, 4, 67, 0
6, 4170, Note_on_c, 4, 67, 60
6, 4185, Note_on_c, 4, 67, 0
6, 4200, Note_on_c, 4, 66, 72
6, 4224, Note_on_c, 4, 66, 0
6, 4229, Note_on_c, 4, 64, 75
6, 4246, Note_on_c, 4, 64, 0
6, 4319, Note_on_c, 4, 62, 94
6, 4418, Note_on_c, 4, 62, 0
6, 4435, Pitch_bend_c, 4, 7808
6, 4436, Pitch_bend_c, 4, 7296
6, 4437, Pitch_bend_c, 4, 6912
6, 4437, Pitch_bend_c, 4, 6528
6, 4438, Pitch_bend_c, 4, 6144
6, 4439, Pitch_bend_c, 4, 5760
6, 4440, Pitch_bend_c, 4, 5376
6, 4440, Pitch_bend_c, 4, 4992
6, 4445, Pitch_bend_c, 4, 4608
6, 4445, Pitch_bend_c, 4, 4224
6, 4445, Pitch_bend_c, 4, 3968
6, 4445, Pitch_bend_c, 4, 3840
6, 4446, Pitch_bend_c, 4, 3712
6, 4448, Pitch_bend_c, 4, 3584
6, 4449, Pitch_bend_c, 4, 3328
6, 4450, Pitch_bend_c, 4, 3200
6, 4450, Pitch_bend_c, 4, 2944
6, 4452, Pitch_bend_c, 4, 2816
6, 4452, Pitch_bend_c, 4, 2688
6, 4454, Pitch_bend_c, 4, 2432
6, 4454, Pitch_bend_c, 4, 2176
6, 4455, Pitch_bend_c, 4, 1792
6, 4455, Pitch_bend_c, 4, 1536
6, 4457, Pitch_bend_c, 4, 1280
6, 4457, Pitch_bend_c, 4, 1024
6, 4458, Pitch_bend_c, 4, 640
6, 4459, Pitch_bend_c, 4, 384
6, 4460, Pitch_bend_c, 4, 128
6, 4460, Pitch_bend_c, 4, 0
6, 4467, Note_on_c, 4, 62, 87
6, 4500, Pitch_bend_c, 4, 128
6, 4501, Pitch_bend_c, 4, 384
6, 4502, Pitch_bend_c, 4, 640
6, 4502, Pitch_bend_c, 4, 768
6, 4503, Pitch_bend_c, 4, 1024
6, 4504, Pitch_bend_c, 4, 1280
6, 4505, Pitch_bend_c, 4, 1408
6, 4506, Pitch_bend_c, 4, 1536
6, 4506, Pitch_bend_c, 4, 1792
6, 4507, Pitch_bend_c, 4, 2048
6, 4508, Pitch_bend_c, 4, 2176
6, 4509, Pitch_bend_c, 4, 2432
6, 4509, Pitch_bend_c, 4, 2688
6, 4510, Pitch_bend_c, 4, 2816
6, 4511, Pitch_bend_c, 4, 3072
6, 4512, Pitch_bend_c, 4, 3328
6, 4512, Pitch_bend_c, 4, 3456
6, 4513, Pitch_bend_c, 4, 3712
6, 4514, Pitch_bend_c, 4, 3968
6, 4515, Pitch_bend_c, 4, 4224
6, 4515, Pitch_bend_c, 4, 4480
6, 4516, Pitch_bend_c, 4, 4736
6, 4517, Pitch_bend_c, 4, 4992
6, 4517, Pitch_bend_c, 4, 5120
6, 4518, Pitch_bend_c, 4, 5504
6, 4519, Pitch_bend_c, 4, 5760
6, 4520, Pitch_bend_c, 4, 6016
6, 4520, Pitch_bend_c, 4, 6272
6, 4521, Pitch_bend_c, 4, 6528
6, 4522, Pitch_bend_c, 4, 6656
6, 4523, Pitch_bend_c, 4, 6912
6, 4524, Pitch_bend_c, 4, 7040
6, 4524, Pitch_bend_c, 4, 7168
6, 4525, Pitch_bend_c, 4, 7296
6, 4526, Pitch_bend_c, 4, 7424
6, 4527, Pitch_bend_c, 4, 7552
6, 4527, Pitch_bend_c, 4, 7680
6, 4528, Pitch_bend_c, 4, 7808
6, 4529, Pitch_bend_c, 4, 8064
6, 4530, Pitch_bend_c, 4, 8192
6, 4648, Note_on_c, 4, 62, 0
6, 6040, Control_c, 4, 7, 119
6, 6040, Control_c, 4, 7, 120
6, 6048, Control_c, 4, 7, 116
6, 6048, Control_c, 4, 7, 117
6, 6059, Control_c, 4, 7, 114
6, 16320, Note_on_c, 4, 62, 75
6, 16337, Note_on_c, 4, 62, 0
6, 16380, Note_on_c, 4, 62, 87
6, 16394, Note_on_c, 4, 62, 0
6, 16440, Note_on_c, 4, 62, 64
6, 16470, Note_on_c, 4, 64, 75
6, 16484, Note_on_c, 4, 62, 0
6, 16498, Note_on_c, 4, 64, 0
6, 16500, Note_on_c, 4, 66, 60
6, 16522, Note_on_c, 4, 66, 0
6, 16530, Note_on_c, 4, 67, 59
6, 16560, Note_on_c, 4, 67, 0
6, 16590, Note_on_c, 4, 67, 63
6, 16616, Note_on_c, 4, 67, 0
6, 16650, Note_on_c, 4, 67, 60
6, 16670, Note_on_c, 4, 67, 0
6, 16680, Note_on_c, 4, 69, 65
6, 16703, Note_on_c, 4, 69, 0
6, 16710, Note_on_c, 4, 71, 67
6, 16729, Note_on_c, 4, 71, 0
6, 16770, Note_on_c, 4, 72, 72
6, 16987, Note_on_c, 4, 72, 0
6, 17040, Note_on_c, 4, 78, 84
6, 17064, Note_on_c, 4, 78, 0
6, 17100, Note_on_c, 4, 78, 67
6, 17129, Note_on_c, 4, 78, 0
6, 17160, Note_on_c, 4, 79, 69
6, 17184, Note_on_c, 4, 79, 0
6, 17190, Note_on_c, 4, 78, 75
6, 17213, Note_on_c, 4, 78, 0
6, 17340, Note_on_c, 4, 62, 75
6, 17352, Note_on_c, 4, 62, 0
6, 17400, Note_on_c, 4, 62, 79
6, 17430, Note_on_c, 4, 64, 79
6, 17432, Note_on_c, 4, 62, 0
6, 17451, Note_on_c, 4, 64, 0
6, 17460, Note_on_c, 4, 66, 63
6, 17481, Note_on_c, 4, 66, 0
6, 17490, Note_on_c, 4, 67, 62
6, 17515, Note_on_c, 4, 67, 0
6, 17550, Note_on_c, 4, 67, 62
6, 17578, Note_on_c, 4, 67, 0
6, 17610, Note_on_c, 4, 67, 59
6, 17626, Note_on_c, 4, 67, 0
6, 17640, Note_on_c, 4, 66, 69
6, 17661, Note_on_c, 4, 66, 0
6, 17673, Note_on_c, 4, 64, 75
6, 17689, Note_on_c, 4, 64, 0
6, 17758, Note_on_c, 4, 62, 87
6, 17861, Note_on_c, 4, 62, 0
6, 17885, Pitch_bend_c, 4, 7808
6, 17885, Pitch_bend_c, 4, 7424
6, 17885, Pitch_bend_c, 4, 7040
6, 17885, Pitch_bend_c, 4, 6784
6, 17886, Pitch_bend_c, 4, 6528
6, 17886, Pitch_bend_c, 4, 6272
6, 17887, Pitch_bend_c, 4, 6016
6, 17888, Pitch_bend_c, 4, 5760
6, 17888, Pitch_bend_c, 4, 5504
6, 17889, Pitch_bend_c, 4, 5120
6, 17890, Pitch_bend_c, 4, 4736
6, 17891, Pitch_bend_c, 4, 4480
6, 17892, Pitch_bend_c, 4, 4096
6, 17893, Pitch_bend_c, 4, 3840
6, 17893, Pitch_bend_c, 4, 3456
6, 17894, Pitch_bend_c, 4, 3072
6, 17894, Pitch_bend_c, 4, 2688
6, 17896, Pitch_bend_c, 4, 2304
6, 17896, Pitch_bend_c, 4, 2048
6, 17897, Pitch_bend_c, 4, 1664
6, 17898, Pitch_bend_c, 4, 1280
6, 17899, Pitch_bend_c, 4, 896
6, 17899, Pitch_bend_c, 4, 512
6, 17900, Pitch_bend_c, 4, 128
6, 17909, Note_on_c, 4, 62, 84
6, 17938, Pitch_bend_c, 4, 256
6, 17939, Pitch_bend_c, 4, 384
6, 17939, Pitch_bend_c, 4, 512
6, 17940, Pitch_bend_c, 4, 768
6, 17941, Pitch_bend_c, 4, 896
6, 17942, Pitch_bend_c, 4, 1152
6, 17943, Pitch_bend_c, 4, 1280
6, 17943, Pitch_bend_c, 4, 1408
6, 17944, Pitch_bend_c, 4, 1536
6, 17945, Pitch_bend_c, 4, 1664
6, 17945, Pitch_bend_c, 4, 1920
6, 17946, Pitch_bend_c, 4, 2048
6, 17947, Pitch_bend_c, 4, 2176
6, 17948, Pitch_bend_c, 4, 2432
6, 17948, Pitch_bend_c, 4, 2688
6, 17950, Pitch_bend_c, 4, 2816
6, 17950, Pitch_bend_c, 4, 3072
6, 17951, Pitch_bend_c, 4, 3328
6, 17952, Pitch_bend_c, 4, 3456
6, 17953, Pitch_bend_c, 4, 3712
6, 17953, Pitch_bend_c, 4, 3968
6, 17954, Pitch_bend_c, 4, 4224
6, 17955, Pitch_bend_c, 4, 4480
6, 17956, Pitch_bend_c, 4, 4736
6, 17956, Pitch_bend_c, 4, 4992
6, 17957, Pitch_bend_c, 4, 5376
6, 17958, Pitch_bend_c, 4, 5632
6, 17959, Pitch_bend_c, 4, 5760
6, 17959, Pitch_bend_c, 4, 6016
6, 17960, Pitch_bend_c, 4, 6144
6, 17961, Pitch_bend_c, 4, 6400
6, 17961, Pitch_bend_c, 4, 6528
6, 17963, Pitch_bend_c, 4, 6784
6, 17963, Pitch_bend_c, 4, 6912
6, 17964, Pitch_bend_c, 4, 7040
6, 17964, Pitch_bend_c, 4, 7168
6, 17966, Pitch_bend_c, 4, 7424
6, 17966, Pitch_bend_c, 4, 7552
6, 17967, Pitch_bend_c, 4, 7808
6, 17968, Pitch_bend_c, 4, 7936
6, 17969, Pitch_bend_c, 4, 8192
6, 17991, Note_on_c, 4, 62, 0
6, 18002, Note_on_c, 4, 62, 53
6, 18093, Note_on_c, 4, 62, 0
6, 18240, Note_on_c, 4, 62, 75
6, 18253, Note_on_c, 4, 62, 0
6, 18300, Note_on_c, 4, 62, 79
6, 18316, Note_on_c, 4, 62, 0
6, 18360, Note_on_c, 4, 62, 75
6, 18380, Note_on_c, 4, 62, 0
6, 18390, Note_on_c, 4, 64, 74
6, 18411, Note_on_c, 4, 64, 0
6, 18420, Note_on_c, 4, 66, 84
6, 18436, Note_on_c, 4, 66, 0
6, 18450, Note_on_c, 4, 67, 63
6, 18470, Note_on_c, 4, 67, 0
6, 18510, Note_on_c, 4, 67, 74
6, 18531, Note_on_c, 4, 67, 0
6, 18570, Note_on_c, 4, 67, 59
6, 18592, Note_on_c, 4, 67, 0
6, 18600, Note_on_c, 4, 69, 65
6, 18620, Note_on_c, 4, 69, 0
6, 18630, Note_on_c, 4, 71, 60
6, 18653, Note_on_c, 4, 71, 0
6, 18690, Note_on_c, 4, 72, 72
6, 18864, Note_on_c, 4, 72, 0
6, 18960, Note_on_c, 4, 78, 84
6, 18985, Note_on_c, 4, 78, 0
6, 19020, Note_on_c, 4, 78, 74
6, 19046, Note_on_c, 4, 78, 0
6, 19080, Note_on_c, 4, 79, 67
6, 19103, Note_on_c, 4, 79, 0
6, 19110, Note_on_c, 4, 78, 87
6, 19130, Note_on_c, 4, 78, 0
6, 19260, Note_on_c, 4, 62, 79
6, 19276, Note_on_c, 4, 62, 0
6, 19320, Note_on_c, 4, 62, 79
6, 19348, Note_on_c, 4, 62, 0
6, 19350, Note_on_c, 4, 64, 64
6, 19377, Note_on_c, 4, 64, 0
6, 19380, Note_on_c, 4, 66, 69
6, 19395, Note_on_c, 4, 66, 0
6, 19410, Note_on_c, 4, 67, 61
6, 19433, Note_on_c, 4, 67, 0
6, 19470, Note_on_c, 4, 67, 64
6, 19495, Note_on_c, 4, 67, 0
6, 19530, Note_on_c, 4, 67, 60
6, 19545, Note_on_c, 4, 67, 0
6, 19560, Note_on_c, 4, 66, 72
6, 19584, Note_on_c, 4, 66, 0
6, 19589, Note_on_c, 4, 64, 75
6, 19606, Note_on_c, 4, 64, 0
6, 19679, Note_on_c, 4, 62, 94
6, 19778, Note_on_c, 4, 62, 0
6, 19795, Pitch_bend_c, 4, 7808
6, 19796, Pitch_bend_c, 4, 7296
6, 19797, Pitch_bend_c, 4, 6912
6, 19797, Pitch_bend_c, 4, 6528
6, 19798, Pitch_bend_c, 4, 6144
6, 19799, Pitch_bend_c, 4, 5760
6, 19800, Pitch_bend_c, 4, 5376
6, 19800, Pitch_bend_c, 4, 4992
6, 19805, Pitch_bend_c, 4, 4608
6, 19805, Pitch_bend_c, 4, 4224
6, 19805, Pitch_bend_c, 4, 3968
6, 19805, Pitch_bend_c, 4, 3840
6, 19806, Pitch_bend_c, 4, 3712
6, 19808, Pitch_bend_c, 4, 3584
6, 19809, Pitch_bend_c, 4, 3328
6, 19810, Pitch_bend_c, 4, 3200
6, 19810, Pitch_bend_c, 4, 2944
6, 19812, Pitch_bend_c, 4, 2816
6, 19812, Pitch_bend_c, 4, 2688
6, 19814, Pitch_bend_c, 4, 2432
6, 19814, Pitch_bend_c, 4, 2176
6, 19815, Pitch_bend_c, 4, 1792
6, 19815, Pitch_bend_c, 4, 1536
6, 19817, Pitch_bend_c, 4, 1280
6, 19817, Pitch_bend_c, 4, 1024
6, 19818, Pitch_bend_c, 4, 640
6, 19819, Pitch_bend_c, 4, 384
6, 19820, Pitch_bend_c, 4, 128
6, 19820, Pitch_bend_c, 4, 0
6, 19827, Note_on_c, 4, 62, 87
6, 19860, Pitch_bend_c, 4, 128
6, 19861, Pitch_bend_c, 4, 384
6, 19862, Pitch_bend_c, 4, 640
6, 19862, Pitch_bend_c, 4, 768
6, 19863, Pitch_bend_c, 4, 1024
6, 19864, Pitch_bend_c, 4, 1280
6, 19865, Pitch_bend_c, 4, 1408
6, 19866, Pitch_bend_c, 4, 1536
6, 19866, Pitch_bend_c, 4, 1792
6, 19867, Pitch_bend_c, 4, 2048
6, 19868, Pitch_bend_c, 4, 2176
6, 19869, Pitch_bend_c, 4, 2432
6, 19869, Pitch_bend_c, 4, 2688
6, 19870, Pitch_bend_c, 4, 2816
6, 19871, Pitch_bend_c, 4, 3072
6, 19872, Pitch_bend_c, 4, 3328
6, 19872, Pitch_bend_c, 4, 3456
6, 19873, Pitch_bend_c, 4, 3712
6, 19874, Pitch_bend_c, 4, 3968
6, 19875, Pitch_bend_c, 4, 4224
6, 19875, Pitch_bend_c, 4, 4480
6, 19876, Pitch_bend_c, 4, 4736
6, 19877, Pitch_bend_c, 4, 4992
6, 19877, Pitch_bend_c, 4, 5120
6, 19878, Pitch_bend_c, 4, 5504
6, 19879, Pitch_bend_c, 4, 5760
6, 19880, Pitch_bend_c, 4, 6016
6, 19880, Pitch_bend_c, 4, 6272
6, 19881, Pitch_bend_c, 4, 6528
6, 19882, Pitch_bend_c, 4, 6656
6, 19883, Pitch_bend_c, 4, 6912
6, 19884, Pitch_bend_c, 4, 7040
6, 19884, Pitch_bend_c, 4, 7168
6, 19885, Pitch_bend_c, 4, 7296
6, 19886, Pitch_bend_c, 4, 7424
6, 19887, Pitch_bend_c, 4, 7552
6, 19887, Pitch_bend_c, 4, 7680
6, 19888, Pitch_bend_c, 4, 7808
6, 19889, Pitch_bend_c, 4, 8064
6, 19890, Pitch_bend_c, 4, 8192
6, 20008, Note_on_c, 4, 62, 0
6, 20160, Note_on_c, 4, 62, 75
6, 20173, Note_on_c, 4, 62, 0
6, 20220, Note_on_c, 4, 62, 79
6, 20236, Note_on_c, 4, 62, 0
6, 20280, Note_on_c, 4, 62, 75
6, 20300, Note_on_c, 4, 62, 0
6, 20310, Note_on_c, 4, 64, 74
6, 20331, Note_on_c, 4, 64, 0
6, 20340, Note_on_c, 4, 66, 84
6, 20356, Note_on_c, 4, 66, 0
6, 20370, Note_on_c, 4, 67, 63
6, 20390, Note_on_c, 4, 67, 0
6, 20430, Note_on_c, 4, 67, 74
6, 20451, Note_on_c, 4, 67, 0
6, 20490, Note_on_c, 4, 67, 59
6, 20512, Note_on_c, 4, 67, 0
6, 20520, Note_on_c, 4, 69, 65
6, 20540, Note_on_c, 4, 69, 0
6, 20550, Note_on_c, 4, 71, 60
6, 20573, Note_on_c, 4, 71, 0
6, 20610, Note_on_c, 4, 72, 72
6, 20784, Note_on_c, 4, 72, 0
6, 20850, Note_on_c, 4, 78, 84
6, 20885, Note_on_c, 4, 78, 0
6, 20910, Note_on_c, 4, 78, 65
6, 20930, Note_on_c, 4, 78, 0
6, 20940, Note_on_c, 4, 79, 63
6, 20964, Note_on_c, 4, 79, 0
6, 20970, Note_on_c, 4, 78, 67
6, 20990, Note_on_c, 4, 78, 0
6, 21000, Note_on_c, 4, 81, 69
6, 21028, Note_on_c, 4, 81, 0
6, 21030, Note_on_c, 4, 78, 79
6, 21049, Note_on_c, 4, 78, 0
6, 21180, Note_on_c, 4, 62, 79
6, 21196, Note_on_c, 4, 62, 0
6, 21240, Note_on_c, 4, 62, 79
6, 21268, Note_on_c, 4, 62, 0
6, 21270, Note_on_c, 4, 64, 64
6, 21297, Note_on_c, 4, 64, 0
6, 21300, Note_on_c, 4, 66, 69
6, 21315, Note_on_c, 4, 66, 0
6, 21330, Note_on_c, 4, 67, 61
6, 21353, Note_on_c, 4, 67, 0
6, 21390, Note_on_c, 4, 67, 64
6, 21415, Note_on_c, 4, 67, 0
6, 21450, Note_on_c, 4, 67, 60
6, 21465, Note_on_c, 4, 67, 0
6, 21480, Note_on_c, 4, 66, 72
6, 21504, Note_on_c, 4, 66, 0
6, 21509, Note_on_c, 4, 64, 75
6, 21526, Note_on_c, 4, 64, 0
6, 21599, Note_on_c, 4, 62, 94
6, 21698, Note_on_c, 4, 62, 0
6, 21715, Pitch_bend_c, 4, 7808
6, 21716, Pitch_bend_c, 4, 7296
6, 21717, Pitch_bend_c, 4, 6912
6, 21717, Pitch_bend_c, 4, 6528
6, 21718, Pitch_bend_c, 4, 6144
6, 21719, Pitch_bend_c, 4, 5760
6, 21720, Pitch_bend_c, 4, 5376
6, 21720, Pitch_bend_c, 4, 4992
6, 21725, Pitch_bend_c, 4, 4608
6, 21725, Pitch_bend_c, 4, 4224
6, 21725, Pitch_bend_c, 4, 3968
6, 21725, Pitch_bend_c, 4, 3840
6, 21726, Pitch_bend_c, 4, 3712
6, 21728, Pitch_bend_c, 4, 3584
6, 21729, Pitch_bend_c, 4, 3328
6, 21730, Pitch_bend_c, 4, 3200
6, 21730, Pitch_bend_c, 4, 2944
6, 21732, Pitch_bend_c, 4, 2816
6, 21732, Pitch_bend_c, 4, 2688
6, 21734, Pitch_bend_c, 4, 2432
6, 21734, Pitch_bend_c, 4, 2176
6, 21735, Pitch_bend_c, 4, 1792
6, 21735, Pitch_bend_c, 4, 1536
6, 21737, Pitch_bend_c, 4, 1280
6, 21737, Pitch_bend_c, 4, 1024
6, 21738, Pitch_bend_c, 4, 640
6, 21739, Pitch_bend_c, 4, 384
6, 21740, Pitch_bend_c, 4, 128
6, 21740, Pitch_bend_c, 4, 0
6, 21747, Note_on_c, 4, 62, 87
6, 21780, Pitch_bend_c, 4, 128
6, 21781, Pitch_bend_c, 4, 384
6, 21782, Pitch_bend_c, 4, 640
6, 21782, Pitch_bend_c, 4, 768
6, 21783, Pitch_bend_c, 4, 1024
6, 21784, Pitch_bend_c, 4, 1280
6, 21785, Pitch_bend_c, 4, 1408
6, 21786, Pitch_bend_c, 4, 1536
6, 21786, Pitch_bend_c, 4, 1792
6, 21787, Pitch_bend_c, 4, 2048
6, 21788, Pitch_bend_c, 4, 2176
6, 21789, Pitch_bend_c, 4, 2432
6, 21789, Pitch_bend_c, 4, 2688
6, 21790, Pitch_bend_c, 4, 2816
6, 21791, Pitch_bend_c, 4, 3072
6, 21792, Pitch_bend_c, 4, 3328
6, 21792, Pitch_bend_c, 4, 3456
6, 21793, Pitch_bend_c, 4, 3712
6, 21794, Pitch_bend_c, 4, 3968
6, 21795, Pitch_bend_c, 4, 4224
6, 21795, Pitch_bend_c, 4, 4480
6, 21796, Pitch_bend_c, 4, 4736
6, 21797, Pitch_bend_c, 4, 4992
6, 21797, Pitch_bend_c, 4, 5120
6, 21798, Pitch_bend_c, 4, 5504
6, 21799, Pitch_bend_c, 4, 5760
6, 21800, Pitch_bend_c, 4, 6016
6, 21800, Pitch_bend_c, 4, 6272
6, 21801, Pitch_bend_c, 4, 6528
6, 21802, Pitch_bend_c, 4, 6656
6, 21803, Pitch_bend_c, 4, 6912
6, 21804, Pitch_bend_c, 4, 7040
6, 21804, Pitch_bend_c, 4, 7168
6, 21805, Pitch_bend_c, 4, 7296
6, 21806, Pitch_bend_c, 4, 7424
6, 21807, Pitch_bend_c, 4, 7552
6, 21807, Pitch_bend_c, 4, 7680
6, 21808, Pitch_bend_c, 4, 7808
6, 21809, Pitch_bend_c, 4, 8192
6, 21810, Pitch_bend_c, 4, 8064
6, 21928, Note_on_c, 4, 62, 0
6, 30480, Note_on_c, 4, 62, 75
6, 30493, Note_on_c, 4, 62, 0
6, 30540, Note_on_c, 4, 62, 79
6, 30556, Note_on_c, 4, 62, 0
6, 30600, Note_on_c, 4, 62, 75
6, 30620, Note_on_c, 4, 62, 0
6, 30630, Note_on_c, 4, 64, 74
6, 30651, Note_on_c, 4, 64, 0
6, 30660, Note_on_c, 4, 66, 84
6, 30676, Note_on_c, 4, 66, 0
6, 30690, Note_on_c, 4, 67, 63
6, 30710, Note_on_c, 4, 67, 0
6, 30750, Note_on_c, 4, 67, 74
6, 30771, Note_on_c, 4, 67, 0
6, 30780, Control_c, 4, 93, 73
6, 30795, Control_c, 4, 93, 75
6, 30800, Control_c, 4, 93, 80
6, 30807, Control_c, 4, 93, 84
6, 30810, Control_c, 4, 93, 87
6, 30810, Note_on_c, 4, 67, 59
6, 30815, Control_c, 4, 93, 89
6, 30820, Control_c, 4, 93, 90
6, 30825, Control_c, 4, 93, 97
6, 30832, Note_on_c, 4, 67, 0
6, 30833, Control_c, 4, 93, 99
6, 30840, Note_on_c, 4, 69, 65
6, 30860, Note_on_c, 4, 69, 0
6, 30870, Note_on_c, 4, 71, 60
6, 30893, Note_on_c, 4, 71, 0
6, 30930, Note_on_c, 4, 72, 72
6, 31104, Note_on_c, 4, 72, 0
6, 31200, Note_on_c, 4, 78, 84
6, 31225, Note_on_c, 4, 78, 0
6, 31260, Note_on_c, 4, 78, 74
6, 31286, Note_on_c, 4, 78, 0
6, 31320, Note_on_c, 4, 79, 67
6, 31343, Note_on_c, 4, 79, 0
6, 31350, Note_on_c, 4, 78, 87
6, 31370, Note_on_c, 4, 78, 0
6, 31500, Note_on_c, 4, 62, 79
6, 31516, Note_on_c, 4, 62, 0
6, 31560, Note_on_c, 4, 62, 79
6, 31588, Note_on_c, 4, 62, 0
6, 31590, Note_on_c, 4, 64, 64
6, 31617, Note_on_c, 4, 64, 0
6, 31620, Note_on_c, 4, 66, 69
6, 31635, Note_on_c, 4, 66, 0
6, 31650, Note_on_c, 4, 67, 61
6, 31673, Note_on_c, 4, 67, 0
6, 31710, Note_on_c, 4, 67, 64
6, 31735, Note_on_c, 4, 67, 0
6, 31770, Note_on_c, 4, 67, 60
6, 31785, Note_on_c, 4, 67, 0
6, 31800, Note_on_c, 4, 66, 72
6, 31824, Note_on_c, 4, 66, 0
6, 31829, Note_on_c, 4, 64, 75
6, 31846, Note_on_c, 4, 64, 0
6, 31919, Note_on_c, 4, 62, 94
6, 32018, Note_on_c, 4, 62, 0
6, 32035, Pitch_bend_c, 4, 7808
6, 32036, Pitch_bend_c, 4, 7296
6, 32037, Pitch_bend_c, 4, 6912
6, 32037, Pitch_bend_c, 4, 6528
6, 32038, Pitch_bend_c, 4, 6144
6, 32039, Pitch_bend_c, 4, 5760
6, 32040, Pitch_bend_c, 4, 5376
6, 32040, Pitch_bend_c, 4, 4992
6, 32045, Pitch_bend_c, 4, 4608
6, 32045, Pitch_bend_c, 4, 4224
6, 32045, Pitch_bend_c, 4, 3968
6, 32045, Pitch_bend_c, 4, 3840
6, 32046, Pitch_bend_c, 4, 3712
6, 32048, Pitch_bend_c, 4, 3584
6, 32049, Pitch_bend_c, 4, 3328
6, 32050, Pitch_bend_c, 4, 3200
6, 32050, Pitch_bend_c, 4, 2944
6, 32052, Pitch_bend_c, 4, 2816
6, 32052, Pitch_bend_c, 4, 2688
6, 32054, Pitch_bend_c, 4, 2432
6, 32054, Pitch_bend_c, 4, 2176
6, 32055, Pitch_bend_c, 4, 1792
6, 32055, Pitch_bend_c, 4, 1536
6, 32057, Pitch_bend_c, 4, 1280
6, 32057, Pitch_bend_c, 4, 1024
6, 32058, Pitch_bend_c, 4, 640
6, 32059, Pitch_bend_c, 4, 384
6, 32060, Pitch_bend_c, 4, 128
6, 32060, Pitch_bend_c, 4, 0
6, 32067, Note_on_c, 4, 62, 87
6, 32100, Pitch_bend_c, 4, 128
6, 32101, Pitch_bend_c, 4, 384
6, 32102, Pitch_bend_c, 4, 640
6, 32102, Pitch_bend_c, 4, 768
6, 32103, Pitch_bend_c, 4, 1024
6, 32104, Pitch_bend_c, 4, 1280
6, 32105, Pitch_bend_c, 4, 1408
6, 32106, Pitch_bend_c, 4, 1536
6, 32106, Pitch_bend_c, 4, 1792
6, 32107, Pitch_bend_c, 4, 2048
6, 32108, Pitch_bend_c, 4, 2176
6, 32109, Pitch_bend_c, 4, 2432
6, 32109, Pitch_bend_c, 4, 2688
6, 32110, Pitch_bend_c, 4, 2816
6, 32111, Pitch_bend_c, 4, 3072
6, 32112, Pitch_bend_c, 4, 3328
6, 32112, Pitch_bend_c, 4, 3456
6, 32113, Pitch_bend_c, 4, 3712
6, 32114, Pitch_bend_c, 4, 3968
6, 32115, Pitch_bend_c, 4, 4224
6, 32115, Pitch_bend_c, 4, 4480
6, 32116, Pitch_bend_c, 4, 4736
6, 32117, Pitch_bend_c, 4, 4992
6, 32117, Pitch_bend_c, 4, 5120
6, 32118, Pitch_bend_c, 4, 5504
6, 32119, Pitch_bend_c, 4, 5760
6, 32120, Pitch_bend_c, 4, 6016
6, 32120, Pitch_bend_c, 4, 6272
6, 32121, Pitch_bend_c, 4, 6528
6, 32122, Pitch_bend_c, 4, 6656
6, 32123, Pitch_bend_c, 4, 6912
6, 32124, Pitch_bend_c, 4, 7040
6, 32124, Pitch_bend_c, 4, 7168
6, 32125, Pitch_bend_c, 4, 7296
6, 32126, Pitch_bend_c, 4, 7424
6, 32127, Pitch_bend_c, 4, 7552
6, 32127, Pitch_bend_c, 4, 7680
6, 32128, Pitch_bend_c, 4, 7808
6, 32129, Pitch_bend_c, 4, 8064
6, 32130, Pitch_bend_c, 4, 8192
6, 32248, Note_on_c, 4, 62, 0
6, 32400, Note_on_c, 4, 62, 75
6, 32413, Note_on_c, 4, 62, 0
6, 32460, Note_on_c, 4, 62, 79
6, 32476, Note_on_c, 4, 62, 0
6, 32520, Note_on_c, 4, 62, 75
6, 32540, Note_on_c, 4, 62, 0
6, 32550, Note_on_c, 4, 64, 74
6, 32571, Note_on_c, 4, 64, 0
6, 32580, Note_on_c, 4, 66, 84
6, 32596, Note_on_c, 4, 66, 0
6, 32610, Note_on_c, 4, 67, 63
6, 32630, Note_on_c, 4, 67, 0
6, 32670, Note_on_c, 4, 67, 74
6, 32691, Note_on_c, 4, 67, 0
6, 32730, Note_on_c, 4, 67, 59
6, 32752, Note_on_c, 4, 67, 0
6, 32760, Note_on_c, 4, 69, 65
6, 32780, Note_on_c, 4, 69, 0
6, 32790, Note_on_c, 4, 71, 60
6, 32813, Note_on_c, 4, 71, 0
6, 32850, Note_on_c, 4, 72, 72
6, 33024, Note_on_c, 4, 72, 0
6, 33090, Note_on_c, 4, 78, 84
6, 33125, Note_on_c, 4, 78, 0
6, 33150, Note_on_c, 4, 78, 65
6, 33170, Note_on_c, 4, 78, 0
6, 33180, Note_on_c, 4, 79, 63
6, 33204, Note_on_c, 4, 79, 0
6, 33210, Note_on_c, 4, 78, 67
6, 33230, Note_on_c, 4, 78, 0
6, 33240, Note_on_c, 4, 81, 69
6, 33268, Note_on_c, 4, 81, 0
6, 33270, Note_on_c, 4, 78, 79
6, 33289, Note_on_c, 4, 78, 0
6, 33420, Note_on_c, 4, 62, 79
6, 33436, Note_on_c, 4, 62, 0
6, 33480, Note_on_c, 4, 62, 79
6, 33508, Note_on_c, 4, 62, 0
6, 33510, Note_on_c, 4, 64, 64
6, 33537, Note_on_c, 4, 64, 0
6, 33540, Note_on_c, 4, 66, 69
6, 33555, Note_on_c, 4, 66, 0
6, 33570, Note_on_c, 4, 67, 61
6, 33593, Note_on_c, 4, 67, 0
6, 33630, Note_on_c, 4, 67, 64
6, 33655, Note_on_c, 4, 67, 0
6, 33690, Note_on_c, 4, 67, 60
6, 33705, Note_on_c, 4, 67, 0
6, 33720, Note_on_c, 4, 66, 72
6, 33744, Note_on_c, 4, 66, 0
6, 33749, Note_on_c, 4, 64, 75
6, 33766, Note_on_c, 4, 64, 0
6, 33839, Note_on_c, 4, 62, 94
6, 33938, Note_on_c, 4, 62, 0
6, 33955, Pitch_bend_c, 4, 7808
6, 33956, Pitch_bend_c, 4, 7296
6, 33957, Pitch_bend_c, 4, 6912
6, 33957, Pitch_bend_c, 4, 6528
6, 33958, Pitch_bend_c, 4, 6144
6, 33959, Pitch_bend_c, 4, 5760
6, 33960, Pitch_bend_c, 4, 5376
6, 33960, Pitch_bend_c, 4, 4992
6, 33965, Pitch_bend_c, 4, 4608
6, 33965, Pitch_bend_c, 4, 4224
6, 33965, Pitch_bend_c, 4, 3968
6, 33965, Pitch_bend_c, 4, 3840
6, 33966, Pitch_bend_c, 4, 3712
6, 33968, Pitch_bend_c, 4, 3584
6, 33969, Pitch_bend_c, 4, 3328
6, 33970, Pitch_bend_c, 4, 3200
6, 33970, Pitch_bend_c, 4, 2944
6, 33972, Pitch_bend_c, 4, 2816
6, 33972, Pitch_bend_c, 4, 2688
6, 33974, Pitch_bend_c, 4, 2432
6, 33974, Pitch_bend_c, 4, 2176
6, 33975, Pitch_bend_c, 4, 1792
6, 33975, Pitch_bend_c, 4, 1536
6, 33977, Pitch_bend_c, 4, 1280
6, 33977, Pitch_bend_c, 4, 1024
6, 33978, Pitch_bend_c, 4, 640
6, 33979, Pitch_bend_c, 4, 384
6, 33980, Pitch_bend_c, 4, 128
6, 33980, Pitch_bend_c, 4, 0
6, 33987, Note_on_c, 4, 62, 87
6, 34020, Pitch_bend_c, 4, 128
6, 34021, Pitch_bend_c, 4, 384
6, 34022, Pitch_bend_c, 4, 640
6, 34022, Pitch_bend_c, 4, 768
6, 34023, Pitch_bend_c, 4, 1024
6, 34024, Pitch_bend_c, 4, 1280
6, 34025, Pitch_bend_c, 4, 1408
6, 34026, Pitch_bend_c, 4, 1536
6, 34026, Pitch_bend_c, 4, 1792
6, 34027, Pitch_bend_c, 4, 2048
6, 34028, Pitch_bend_c, 4, 2176
6, 34029, Pitch_bend_c, 4, 2432
6, 34029, Pitch_bend_c, 4, 2688
6, 34030, Pitch_bend_c, 4, 2816
6, 34031, Pitch_bend_c, 4, 3072
6, 34032, Pitch_bend_c, 4, 3328
6, 34032, Pitch_bend_c, 4, 3456
6, 34033, Pitch_bend_c, 4, 3712
6, 34034, Pitch_bend_c, 4, 3968
6, 34035, Pitch_bend_c, 4, 4224
6, 34035, Pitch_bend_c, 4, 4480
6, 34036, Pitch_bend_c, 4, 4736
6, 34037, Pitch_bend_c, 4, 4992
6, 34037, Pitch_bend_c, 4, 5120
6, 34038, Pitch_bend_c, 4, 5504
6, 34039, Pitch_bend_c, 4, 5760
6, 34040, Pitch_bend_c, 4, 6016
6, 34040, Pitch_bend_c, 4, 6272
6, 34041, Pitch_bend_c, 4, 6528
6, 34042, Pitch_bend_c, 4, 6656
6, 34043, Pitch_bend_c, 4, 6912
6, 34044, Pitch_bend_c, 4, 7040
6, 34044, Pitch_bend_c, 4, 7168
6, 34045, Pitch_bend_c, 4, 7296
6, 34046, Pitch_bend_c, 4, 7424
6, 34047, Pitch_bend_c, 4, 7552
6, 34047, Pitch_bend_c, 4, 7680
6, 34048, Pitch_bend_c, 4, 7808
6, 34049, Pitch_bend_c, 4, 8192
6, 34050, Pitch_bend_c, 4, 8064
6, 34168, Note_on_c, 4, 62, 0
6, 39900, Control_c, 4, 10, 80
6, 39919, Control_c, 4, 10, 77
6, 39929, Control_c, 4, 10, 74
6, 39930, Control_c, 4, 10, 70
6, 39935, Control_c, 4, 10, 67
6, 39942, Control_c, 4, 10, 63
6, 39976, Control_c, 4, 10, 59
6, 39980, Control_c, 4, 10, 55
6, 39985, Control_c, 4, 10, 52
6, 39990, Control_c, 4, 10, 49
6, 40161, Control_c, 4, 10, 46
6, 40178, Control_c, 4, 10, 44
6, 40385, Control_c, 4, 10, 46
6, 40390, Control_c, 4, 10, 49
6, 40398, Control_c, 4, 10, 52
6, 40403, Control_c, 4, 10, 55
6, 40408, Control_c, 4, 10, 59
6, 40410, Control_c, 4, 10, 63
6, 40440, Control_c, 4, 10, 67
6, 40445, Control_c, 4, 10, 74
6, 40445, Control_c, 4, 10, 70
6, 40460, Control_c, 4, 10, 77
6, 40465, Control_c, 4, 10, 80
6, 40470, Control_c, 4, 10, 82
6, 40473, Control_c, 4, 10, 84
6, 42000, Note_on_c, 4, 62, 75
6, 42013, Note_on_c, 4, 62, 0
6, 42060, Note_on_c, 4, 62, 79
6, 42076, Note_on_c, 4, 62, 0
6, 42120, Note_on_c, 4, 62, 75
6, 42140, Note_on_c, 4, 62, 0
6, 42150, Note_on_c, 4, 64, 74
6, 42171, Note_on_c, 4, 64, 0
6, 42180, Note_on_c, 4, 66, 84
6, 42196, Note_on_c, 4, 66, 0
6, 42210, Note_on_c, 4, 67, 63
6, 42230, Note_on_c, 4, 67, 0
6, 42270, Note_on_c, 4, 67, 74
6, 42291, Note_on_c, 4, 67, 0
6, 42330, Note_on_c, 4, 67, 59
6, 42352, Note_on_c, 4, 67, 0
6, 42360, Note_on_c, 4, 69, 65
6, 42380, Note_on_c, 4, 69, 0
6, 42390, Note_on_c, 4, 71, 60
6, 42413, Note_on_c, 4, 71, 0
6, 42450, Note_on_c, 4, 72, 72
6, 42624, Note_on_c, 4, 72, 0
6, 42720, Note_on_c, 4, 78, 84
6, 42745, Note_on_c, 4, 78, 0
6, 42780, Note_on_c, 4, 78, 74
6, 42806, Note_on_c, 4, 78, 0
6, 42840, Note_on_c, 4, 79, 67
6, 42863, Note_on_c, 4, 79, 0
6, 42870, Note_on_c, 4, 78, 87
6, 42890, Note_on_c, 4, 78, 0
6, 43020, Note_on_c, 4, 62, 79
6, 43036, Note_on_c, 4, 62, 0
6, 43080, Note_on_c, 4, 62, 79
6, 43108, Note_on_c, 4, 62, 0
6, 43110, Note_on_c, 4, 64, 64
6, 43137, Note_on_c, 4, 64, 0
6, 43140, Note_on_c, 4, 66, 69
6, 43155, Note_on_c, 4, 66, 0
6, 43170, Note_on_c, 4, 67, 61
6, 43193, Note_on_c, 4, 67, 0
6, 43230, Note_on_c, 4, 67, 64
6, 43255, Note_on_c, 4, 67, 0
6, 43290, Note_on_c, 4, 67, 60
6, 43305, Note_on_c, 4, 67, 0
6, 43320, Note_on_c, 4, 66, 72
6, 43344, Note_on_c, 4, 66, 0
6, 43349, Note_on_c, 4, 64, 75
6, 43366, Note_on_c, 4, 64, 0
6, 43439, Note_on_c, 4, 62, 94
6, 43538, Note_on_c, 4, 62, 0
6, 43555, Pitch_bend_c, 4, 7808
6, 43556, Pitch_bend_c, 4, 7296
6, 43557, Pitch_bend_c, 4, 6912
6, 43557, Pitch_bend_c, 4, 6528
6, 43558, Pitch_bend_c, 4, 6144
6, 43559, Pitch_bend_c, 4, 5760
6, 43560, Pitch_bend_c, 4, 5376
6, 43560, Pitch_bend_c, 4, 4992
6, 43565, Pitch_bend_c, 4, 4608
6, 43565, Pitch_bend_c, 4, 4224
6, 43565, Pitch_bend_c, 4, 3968
6, 43565, Pitch_bend_c, 4, 3840
6, 43566, Pitch_bend_c, 4, 3712
6, 43568, Pitch_bend_c, 4, 3584
6, 43569, Pitch_bend_c, 4, 3328
6, 43570, Pitch_bend_c, 4, 3200
6, 43570, Pitch_bend_c, 4, 2944
6, 43572, Pitch_bend_c, 4, 2816
6, 43572, Pitch_bend_c, 4, 2688
6, 43574, Pitch_bend_c, 4, 2432
6, 43574, Pitch_bend_c, 4, 2176
6, 43575, Pitch_bend_c, 4, 1792
6, 43575, Pitch_bend_c, 4, 1536
6, 43577, Pitch_bend_c, 4, 1280
6, 43577, Pitch_bend_c, 4, 1024
6, 43578, Pitch_bend_c, 4, 640
6, 43579, Pitch_bend_c, 4, 384
6, 43580, Pitch_bend_c, 4, 128
6, 43580, Pitch_bend_c, 4, 0
6, 43587, Note_on_c, 4, 62, 87
6, 43620, Pitch_bend_c, 4, 128
6, 43621, Pitch_bend_c, 4, 384
6, 43622, Pitch_bend_c, 4, 640
6, 43622, Pitch_bend_c, 4, 768
6, 43623, Pitch_bend_c, 4, 1024
6, 43624, Pitch_bend_c, 4, 1280
6, 43625, Pitch_bend_c, 4, 1408
6, 43626, Pitch_bend_c, 4, 1536
6, 43626, Pitch_bend_c, 4, 1792
6, 43627, Pitch_bend_c, 4, 2048
6, 43628, Pitch_bend_c, 4, 2176
6, 43629, Pitch_bend_c, 4, 2432
6, 43629, Pitch_bend_c, 4, 2688
6, 43630, Pitch_bend_c, 4, 2816
6, 43631, Pitch_bend_c, 4, 3072
6, 43632, Pitch_bend_c, 4, 3328
6, 43632, Pitch_bend_c, 4, 3456
6, 43633, Pitch_bend_c, 4, 3712
6, 43634, Pitch_bend_c, 4, 3968
6, 43635, Pitch_bend_c, 4, 4224
6, 43635, Pitch_bend_c, 4, 4480
6, 43636, Pitch_bend_c, 4, 4736
6, 43637, Pitch_bend_c, 4, 4992
6, 43637, Pitch_bend_c, 4, 5120
6, 43638, Pitch_bend_c, 4, 5504
6, 43639, Pitch_bend_c, 4, 5760
6, 43640, Pitch_bend_c, 4, 6016
6, 43640, Pitch_bend_c, 4, 6272
6, 43641, Pitch_bend_c, 4, 6528
6, 43642, Pitch_bend_c, 4, 6656
6, 43643, Pitch_bend_c, 4, 6912
6, 43644, Pitch_bend_c, 4, 7040
6, 43644, Pitch_bend_c, 4, 7168
6, 43645, Pitch_bend_c, 4, 7296
6, 43646, Pitch_bend_c, 4, 7424
6, 43647, Pitch_bend_c, 4, 7552
6, 43647, Pitch_bend_c, 4, 7680
6, 43648, Pitch_bend_c, 4, 7808
6, 43649, Pitch_bend_c, 4, 8064
6, 43650, Pitch_bend_c, 4, 8192
6, 43768, Note_on_c, 4, 62, 0
6, 43920, Note_on_c, 4, 62, 75
6, 43933, Note_on_c, 4, 62, 0
6, 43980, Note_on_c, 4, 62, 79
6, 43996, Note_on_c, 4, 62, 0
6, 44040, Note_on_c, 4, 62, 75
6, 44060, Note_on_c, 4, 62, 0
6, 44070, Note_on_c, 4, 64, 74
6, 44091, Note_on_c, 4, 64, 0
6, 44100, Note_on_c, 4, 66, 84
6, 44116, Note_on_c, 4, 66, 0
6, 44130, Note_on_c, 4, 67, 63
6, 44150, Note_on_c, 4, 67, 0
6, 44190, Note_on_c, 4, 67, 74
6, 44211, Note_on_c, 4, 67, 0
6, 44250, Note_on_c, 4, 67, 59
6, 44272, Note_on_c, 4, 67, 0
6, 44280, Note_on_c, 4, 69, 65
6, 44300, Note_on_c, 4, 69, 0
6, 44310, Note_on_c, 4, 71, 60
6, 44333, Note_on_c, 4, 71, 0
6, 44370, Note_on_c, 4, 72, 72
6, 44544, Note_on_c, 4, 72, 0
6, 44610, Note_on_c, 4, 78, 84
6, 44645, Note_on_c, 4, 78, 0
6, 44670, Note_on_c, 4, 78, 65
6, 44690, Note_on_c, 4, 78, 0
6, 44700, Note_on_c, 4, 79, 63
6, 44724, Note_on_c, 4, 79, 0
6, 44730, Note_on_c, 4, 78, 67
6, 44750, Note_on_c, 4, 78, 0
6, 44760, Note_on_c, 4, 81, 69
6, 44788, Note_on_c, 4, 81, 0
6, 44790, Note_on_c, 4, 78, 79
6, 44809, Note_on_c, 4, 78, 0
6, 44940, Note_on_c, 4, 62, 79
6, 44956, Note_on_c, 4, 62, 0
6, 45000, Note_on_c, 4, 62, 79
6, 45028, Note_on_c, 4, 62, 0
6, 45030, Note_on_c, 4, 64, 64
6, 45057, Note_on_c, 4, 64, 0
6, 45060, Note_on_c, 4, 66, 69
6, 45075, Note_on_c, 4, 66, 0
6, 45090, Note_on_c, 4, 67, 61
6, 45113, Note_on_c, 4, 67, 0
6, 45150, Note_on_c, 4, 67, 64
6, 45175, Note_on_c, 4, 67, 0
6, 45210, Note_on_c, 4, 67, 60
6, 45225, Note_on_c, 4, 67, 0
6, 45240, Note_on_c, 4, 66, 72
6, 45264, Note_on_c, 4, 66, 0
6, 45269, Note_on_c, 4, 64, 75
6, 45286, Note_on_c, 4, 64, 0
6, 45359, Note_on_c, 4, 62, 94
6, 45458, Note_on_c, 4, 62, 0
6, 45475, Pitch_bend_c, 4, 7808
6, 45476, Pitch_bend_c, 4, 7296
6, 45477, Pitch_bend_c, 4, 6912
6, 45477, Pitch_bend_c, 4, 6528
6, 45478, Pitch_bend_c, 4, 6144
6, 45479, Pitch_bend_c, 4, 5760
6, 45480, Pitch_bend_c, 4, 5376
6, 45480, Pitch_bend_c, 4, 4992
6, 45485, Pitch_bend_c, 4, 4608
6, 45485, Pitch_bend_c, 4, 4224
6, 45485, Pitch_bend_c, 4, 3968
6, 45485, Pitch_bend_c, 4, 3840
6, 45486, Pitch_bend_c, 4, 3712
6, 45488, Pitch_bend_c, 4, 3584
6, 45489, Pitch_bend_c, 4, 3328
6, 45490, Pitch_bend_c, 4, 3200
6, 45490, Pitch_bend_c, 4, 2944
6, 45492, Pitch_bend_c, 4, 2816
6, 45492, Pitch_bend_c, 4, 2688
6, 45494, Pitch_bend_c, 4, 2432
6, 45494, Pitch_bend_c, 4, 2176
6, 45495, Pitch_bend_c, 4, 1792
6, 45495, Pitch_bend_c, 4, 1536
6, 45497, Pitch_bend_c, 4, 1280
6, 45497, Pitch_bend_c, 4, 1024
6, 45498, Pitch_bend_c, 4, 640
6, 45499, Pitch_bend_c, 4, 384
6, 45500, Pitch_bend_c, 4, 128
6, 45500, Pitch_bend_c, 4, 0
6, 45507, Note_on_c, 4, 62, 87
6, 45540, Pitch_bend_c, 4, 128
6, 45541, Pitch_bend_c, 4, 384
6, 45542, Pitch_bend_c, 4, 640
6, 45542, Pitch_bend_c, 4, 768
6, 45543, Pitch_bend_c, 4, 1024
6, 45544, Pitch_bend_c, 4, 1280
6, 45545, Pitch_bend_c, 4, 1408
6, 45546, Pitch_bend_c, 4, 1536
6, 45546, Pitch_bend_c, 4, 1792
6, 45547, Pitch_bend_c, 4, 2048
6, 45548, Pitch_bend_c, 4, 2176
6, 45549, Pitch_bend_c, 4, 2432
6, 45549, Pitch_bend_c, 4, 2688
6, 45550, Pitch_bend_c, 4, 2816
6, 45551, Pitch_bend_c, 4, 3072
6, 45552, Pitch_bend_c, 4, 3328
6, 45552, Pitch_bend_c, 4, 3456
6, 45553, Pitch_bend_c, 4, 3712
6, 45554, Pitch_bend_c, 4, 3968
6, 45555, Pitch_bend_c, 4, 4224
6, 45555, Pitch_bend_c, 4, 4480
6, 45556, Pitch_bend_c, 4, 4736
6, 45557, Pitch_bend_c, 4, 4992
6, 45557, Pitch_bend_c, 4, 5120
6, 45558, Pitch_bend_c, 4, 5504
6, 45559, Pitch_bend_c, 4, 5760
6, 45560, Pitch_bend_c, 4, 6016
6, 45560, Pitch_bend_c, 4, 6272
6, 45561, Pitch_bend_c, 4, 6528
6, 45562, Pitch_bend_c, 4, 6656
6, 45563, Pitch_bend_c, 4, 6912
6, 45564, Pitch_bend_c, 4, 7040
6, 45564, Pitch_bend_c, 4, 7168
6, 45565, Pitch_bend_c, 4, 7296
6, 45566, Pitch_bend_c, 4, 7424
6, 45567, Pitch_bend_c, 4, 7552
6, 45567, Pitch_bend_c, 4, 7680
6, 45568, Pitch_bend_c, 4, 7808
6, 45569, Pitch_bend_c, 4, 8192
6, 45570, Pitch_bend_c, 4, 8064
6, 45688, Note_on_c, 4, 62, 0
6, 45840, Note_on_c, 4, 62, 75
6, 45853, Note_on_c, 4, 62, 0
6, 45900, Note_on_c, 4, 62, 79
6, 45916, Note_on_c, 4, 62, 0
6, 45960, Note_on_c, 4, 62, 75
6, 45980, Note_on_c, 4, 62, 0
6, 45990, Note_on_c, 4, 64, 74
6, 46011, Note_on_c, 4, 64, 0
6, 46020, Note_on_c, 4, 66, 84
6, 46036, Note_on_c, 4, 66, 0
6, 46050, Note_on_c, 4, 67, 63
6, 46070, Note_on_c, 4, 67, 0
6, 46110, Note_on_c, 4, 67, 74
6, 46131, Note_on_c, 4, 67, 0
6, 46170, Note_on_c, 4, 67, 59
6, 46192, Note_on_c, 4, 67, 0
6, 46200, Note_on_c, 4, 69, 65
6, 46220, Note_on_c, 4, 69, 0
6, 46230, Note_on_c, 4, 71, 60
6, 46253, Note_on_c, 4, 71, 0
6, 46290, Note_on_c, 4, 72, 72
6, 46464, Note_on_c, 4, 72, 0
6, 46560, Note_on_c, 4, 78, 84
6, 46585, Note_on_c, 4, 78, 0
6, 46620, Note_on_c, 4, 78, 74
6, 46646, Note_on_c, 4, 78, 0
6, 46680, Note_on_c, 4, 79, 67
6, 46703, Note_on_c, 4, 79, 0
6, 46710, Note_on_c, 4, 78, 87
6, 46730, Note_on_c, 4, 78, 0
6, 46860, Note_on_c, 4, 62, 79
6, 46876, Note_on_c, 4, 62, 0
6, 46920, Note_on_c, 4, 62, 79
6, 46948, Note_on_c, 4, 62, 0
6, 46950, Note_on_c, 4, 64, 64
6, 46977, Note_on_c, 4, 64, 0
6, 46980, Note_on_c, 4, 66, 69
6, 46995, Note_on_c, 4, 66, 0
6, 47010, Note_on_c, 4, 67, 61
6, 47033, Note_on_c, 4, 67, 0
6, 47070, Note_on_c, 4, 67, 64
6, 47095, Note_on_c, 4, 67, 0
6, 47130, Note_on_c, 4, 67, 60
6, 47145, Note_on_c, 4, 67, 0
6, 47160, Note_on_c, 4, 66, 72
6, 47184, Note_on_c, 4, 66, 0
6, 47189, Note_on_c, 4, 64, 75
6, 47206, Note_on_c, 4, 64, 0
6, 47279, Note_on_c, 4, 62, 94
6, 47378, Note_on_c, 4, 62, 0
6, 47395, Pitch_bend_c, 4, 7808
6, 47396, Pitch_bend_c, 4, 7296
6, 47397, Pitch_bend_c, 4, 6912
6, 47397, Pitch_bend_c, 4, 6528
6, 47398, Pitch_bend_c, 4, 6144
6, 47399, Pitch_bend_c, 4, 5760
6, 47400, Pitch_bend_c, 4, 5376
6, 47400, Pitch_bend_c, 4, 4992
6, 47405, Pitch_bend_c, 4, 4608
6, 47405, Pitch_bend_c, 4, 4224
6, 47405, Pitch_bend_c, 4, 3968
6, 47405, Pitch_bend_c, 4, 3840
6, 47406, Pitch_bend_c, 4, 3712
6, 47408, Pitch_bend_c, 4, 3584
6, 47409, Pitch_bend_c, 4, 3328
6, 47410, Pitch_bend_c, 4, 3200
6, 47410, Pitch_bend_c, 4, 2944
6, 47412, Pitch_bend_c, 4, 2816
6, 47412, Pitch_bend_c, 4, 2688
6, 47414, Pitch_bend_c, 4, 2432
6, 47414, Pitch_bend_c, 4, 2176
6, 47415, Pitch_bend_c, 4, 1792
6, 47415, Pitch_bend_c, 4, 1536
6, 47417, Pitch_bend_c, 4, 1280
6, 47417, Pitch_bend_c, 4, 1024
6, 47418, Pitch_bend_c, 4, 640
6, 47419, Pitch_bend_c, 4, 384
6, 47420, Pitch_bend_c, 4, 128
6, 47420, Pitch_bend_c, 4, 0
6, 47427, Note_on_c, 4, 62, 87
6, 47460, Pitch_bend_c, 4, 128
6, 47461, Pitch_bend_c, 4, 384
6, 47462, Pitch_bend_c, 4, 640
6, 47462, Pitch_bend_c, 4, 768
6, 47463, Pitch_bend_c, 4, 1024
6, 47464, Pitch_bend_c, 4, 1280
6, 47465, Pitch_bend_c, 4, 1408
6, 47466, Pitch_bend_c, 4, 1536
6, 47466, Pitch_bend_c, 4, 1792
6, 47467, Pitch_bend_c, 4, 2048
6, 47468, Pitch_bend_c, 4, 2176
6, 47469, Pitch_bend_c, 4, 2432
6, 47469, Pitch_bend_c, 4, 2688
6, 47470, Pitch_bend_c, 4, 2816
6, 47471, Pitch_bend_c, 4, 3072
6, 47472, Pitch_bend_c, 4, 3328
6, 47472, Pitch_bend_c, 4, 3456
6, 47473, Pitch_bend_c, 4, 3712
6, 47474, Pitch_bend_c, 4, 3968
6, 47475, Pitch_bend_c, 4, 4224
6, 47475, Pitch_bend_c, 4, 4480
6, 47476, Pitch_bend_c, 4, 4736
6, 47477, Pitch_bend_c, 4, 4992
6, 47477, Pitch_bend_c, 4, 5120
6, 47478, Pitch_bend_c, 4, 5504
6, 47479, Pitch_bend_c, 4, 5760
6, 47480, Pitch_bend_c, 4, 6016
6, 47480, Pitch_bend_c, 4, 6272
6, 47481, Pitch_bend_c, 4, 6528
6, 47482, Pitch_bend_c, 4, 6656
6, 47483, Pitch_bend_c, 4, 6912
6, 47484, Pitch_bend_c, 4, 7040
6, 47484, Pitch_bend_c, 4, 7168
6, 47485, Pitch_bend_c, 4, 7296
6, 47486, Pitch_bend_c, 4, 7424
6, 47487, Pitch_bend_c, 4, 7552
6, 47487, Pitch_bend_c, 4, 7680
6, 47488, Pitch_bend_c, 4, 7808
6, 47489, Pitch_bend_c, 4, 8064
6, 47490, Pitch_bend_c, 4, 8192
6, 47608, Note_on_c, 4, 62, 0
6, 47760, Note_on_c, 4, 62, 75
6, 47773, Note_on_c, 4, 62, 0
6, 47820, Note_on_c, 4, 62, 79
6, 47836, Note_on_c, 4, 62, 0
6, 47880, Note_on_c, 4, 62, 75
6, 47900, Note_on_c, 4, 62, 0
6, 47910, Note_on_c, 4, 64, 74
6, 47931, Note_on_c, 4, 64, 0
6, 47940, Note_on_c, 4, 66, 84
6, 47956, Note_on_c, 4, 66, 0
6, 47970, Note_on_c, 4, 67, 63
6, 47990, Note_on_c, 4, 67, 0
6, 48030, Note_on_c, 4, 67, 74
6, 48051, Note_on_c, 4, 67, 0
6, 48090, Note_on_c, 4, 67, 59
6, 48112, Note_on_c, 4, 67, 0
6, 48120, Note_on_c, 4, 69, 65
6, 48140, Note_on_c, 4, 69, 0
6, 48150, Note_on_c, 4, 71, 60
6, 48173, Note_on_c, 4, 71, 0
6, 48210, Note_on_c, 4, 72, 72
6, 48384, Note_on_c, 4, 72, 0
6, 48450, Note_on_c, 4, 78, 84
6, 48485, Note_on_c, 4, 78, 0
6, 48510, Note_on_c, 4, 78, 65
6, 48530, Note_on_c, 4, 78, 0
6, 48540, Note_on_c, 4, 79, 63
6, 48564, Note_on_c, 4, 79, 0
6, 48570, Note_on_c, 4, 78, 67
6, 48590, Note_on_c, 4, 78, 0
6, 48600, Note_on_c, 4, 81, 69
6, 48628, Note_on_c, 4, 81, 0
6, 48630, Note_on_c, 4, 78, 79
6, 48649, Note_on_c, 4, 78, 0
6, 48780, Note_on_c, 4, 62, 79
6, 48796, Note_on_c, 4, 62, 0
6, 48840, Note_on_c, 4, 62, 79
6, 48868, Note_on_c, 4, 62, 0
6, 48870, Note_on_c, 4, 64, 64
6, 48897, Note_on_c, 4, 64, 0
6, 48900, Note_on_c, 4, 66, 69
6, 48915, Note_on_c, 4, 66, 0
6, 48930, Note_on_c, 4, 67, 61
6, 48953, Note_on_c, 4, 67, 0
6, 48990, Note_on_c, 4, 67, 64
6, 49015, Note_on_c, 4, 67, 0
6, 49050, Note_on_c, 4, 67, 60
6, 49065, Note_on_c, 4, 67, 0
6, 49080, Note_on_c, 4, 66, 72
6, 49104, Note_on_c, 4, 66, 0
6, 49109, Note_on_c, 4, 64, 75
6, 49126, Note_on_c, 4, 64, 0
6, 49199, Note_on_c, 4, 62, 94
6, 49298, Note_on_c, 4, 62, 0
6, 49315, Pitch_bend_c, 4, 7808
6, 49316, Pitch_bend_c, 4, 7296
6, 49317, Pitch_bend_c, 4, 6912
6, 49317, Pitch_bend_c, 4, 6528
6, 49318, Pitch_bend_c, 4, 6144
6, 49319, Pitch_bend_c, 4, 5760
6, 49320, Pitch_bend_c, 4, 5376
6, 49320, Pitch_bend_c, 4, 4992
6, 49325, Pitch_bend_c, 4, 4608
6, 49325, Pitch_bend_c, 4, 4224
6, 49325, Pitch_bend_c, 4, 3968
6, 49325, Pitch_bend_c, 4, 3840
6, 49326, Pitch_bend_c, 4, 3712
6, 49328, Pitch_bend_c, 4, 3584
6, 49329, Pitch_bend_c, 4, 3328
6, 49330, Pitch_bend_c, 4, 3200
6, 49330, Pitch_bend_c, 4, 2944
6, 49332, Pitch_bend_c, 4, 2816
6, 49332, Pitch_bend_c, 4, 2688
6, 49334, Pitch_bend_c, 4, 2432
6, 49334, Pitch_bend_c, 4, 2176
6, 49335, Pitch_bend_c, 4, 1792
6, 49335, Pitch_bend_c, 4, 1536
6, 49337, Pitch_bend_c, 4, 1280
6, 49337, Pitch_bend_c, 4, 1024
6, 49338, Pitch_bend_c, 4, 640
6, 49339, Pitch_bend_c, 4, 384
6, 49340, Pitch_bend_c, 4, 128
6, 49340, Pitch_bend_c, 4, 0
6, 49347, Note_on_c, 4, 62, 87
6, 49380, Pitch_bend_c, 4, 128
6, 49381, Pitch_bend_c, 4, 384
6, 49382, Pitch_bend_c, 4, 640
6, 49382, Pitch_bend_c, 4, 768
6, 49383, Pitch_bend_c, 4, 1024
6, 49384, Pitch_bend_c, 4, 1280
6, 49385, Pitch_bend_c, 4, 1408
6, 49386, Pitch_bend_c, 4, 1536
6, 49386, Pitch_bend_c, 4, 1792
6, 49387, Pitch_bend_c, 4, 2048
6, 49388, Pitch_bend_c, 4, 2176
6, 49389, Pitch_bend_c, 4, 2432
6, 49389, Pitch_bend_c, 4, 2688
6, 49390, Pitch_bend_c, 4, 2816
6, 49391, Pitch_bend_c, 4, 3072
6, 49392, Pitch_bend_c, 4, 3328
6, 49392, Pitch_bend_c, 4, 3456
6, 49393, Pitch_bend_c, 4, 3712
6, 49394, Pitch_bend_c, 4, 3968
6, 49395, Pitch_bend_c, 4, 4224
6, 49395, Pitch_bend_c, 4, 4480
6, 49396, Pitch_bend_c, 4, 4736
6, 49397, Pitch_bend_c, 4, 4992
6, 49397, Pitch_bend_c, 4, 5120
6, 49398, Pitch_bend_c, 4, 5504
6, 49399, Pitch_bend_c, 4, 5760
6, 49400, Pitch_bend_c, 4, 6016
6, 49400, Pitch_bend_c, 4, 6272
6, 49401, Pitch_bend_c, 4, 6528
6, 49402, Pitch_bend_c, 4, 6656
6, 49403, Pitch_bend_c, 4, 6912
6, 49404, Pitch_bend_c, 4, 7040
6, 49404, Pitch_bend_c, 4, 7168
6, 49405, Pitch_bend_c, 4, 7296
6, 49406, Pitch_bend_c, 4, 7424
6, 49407, Pitch_bend_c, 4, 7552
6, 49407, Pitch_bend_c, 4, 7680
6, 49408, Pitch_bend_c, 4, 7808
6, 49409, Pitch_bend_c, 4, 8192
6, 49410, Pitch_bend_c, 4, 8064
6, 49528, Note_on_c, 4, 62, 0
6, 49528, End_track
7, 0, Start_track
7, 0, MIDI_port, 0
7, 0, Title_t, "ClassicGtr"
7, 0, Control_c, 5, 0, 56
7, 0, Control_c, 5, 32, 0
7, 0, Program_c, 5, 24
7, 0, Control_c, 5, 7, 97
7, 0, Control_c, 5, 10, 64
7, 660, Control_c, 5, 7, 127
7, 660, Control_c, 5, 10, 64
7, 2418, Control_c, 5, 10, 69
7, 2475, Control_c, 5, 10, 70
7, 2484, Control_c, 5, 10, 72
7, 2490, Control_c, 5, 10, 75
7, 3430, Control_c, 5, 7, 124
7, 3435, Control_c, 5, 7, 117
7, 3440, Control_c, 5, 7, 110
7, 3450, Control_c, 5, 7, 107
7, 3450, Control_c, 5, 7, 109
7, 3455, Control_c, 5, 7, 106
7, 3485, Control_c, 5, 7, 107
7, 3504, Control_c, 5, 7, 108
7, 3521, Control_c, 5, 7, 110
7, 3531, Control_c, 5, 7, 114
7, 3531, Control_c, 5, 7, 111
7, 6200, Control_c, 5, 7, 113
7, 6205, Control_c, 5, 7, 112
7, 6288, Control_c, 5, 7, 110
7, 6310, Control_c, 5, 7, 109
7, 6315, Control_c, 5, 7, 107
7, 6390, Control_c, 5, 7, 114
7, 8218, Control_c, 5, 10, 63
7, 8240, Control_c, 5, 10, 59
7, 8250, Control_c, 5, 10, 55
7, 8255, Control_c, 5, 10, 52
7, 8262, Control_c, 5, 10, 49
7, 12480, Note_on_c, 5, 76, 50
7, 12510, Note_on_c, 5, 75, 50
7, 12514, Note_on_c, 5, 76, 0
7, 12530, Note_on_c, 5, 75, 0
7, 12540, Note_on_c, 5, 76, 50
7, 12570, Note_on_c, 5, 75, 50
7, 12573, Note_on_c, 5, 76, 0
7, 12597, Note_on_c, 5, 75, 0
7, 12600, Note_on_c, 5, 76, 50
7, 12630, Note_on_c, 5, 76, 0
7, 12630, Note_on_c, 5, 75, 50
7, 12655, Note_on_c, 5, 75, 0
7, 12660, Note_on_c, 5, 76, 50
7, 12690, Note_on_c, 5, 75, 50
7, 12692, Note_on_c, 5, 76, 0
7, 12715, Note_on_c, 5, 75, 0
7, 12720, Note_on_c, 5, 76, 50
7, 12750, Note_on_c, 5, 75, 50
7, 12756, Note_on_c, 5, 76, 0
7, 12778, Note_on_c, 5, 75, 0
7, 12780, Note_on_c, 5, 76, 50
7, 12810, Note_on_c, 5, 75, 50
7, 12814, Note_on_c, 5, 76, 0
7, 12835, Note_on_c, 5, 75, 0
7, 12840, Note_on_c, 5, 76, 50
7, 12870, Note_on_c, 5, 75, 50
7, 12873, Note_on_c, 5, 76, 0
7, 12894, Note_on_c, 5, 75, 0
7, 12900, Note_on_c, 5, 76, 50
7, 12930, Note_on_c, 5, 75, 50
7, 12934, Note_on_c, 5, 76, 0
7, 12957, Note_on_c, 5, 75, 0
7, 12960, Note_on_c, 5, 76, 50
7, 12990, Note_on_c, 5, 75, 50
7, 12993, Note_on_c, 5, 76, 0
7, 13017, Note_on_c, 5, 75, 0
7, 13020, Note_on_c, 5, 76, 50
7, 13050, Note_on_c, 5, 75, 50
7, 13054, Note_on_c, 5, 76, 0
7, 13073, Note_on_c, 5, 75, 0
7, 13080, Note_on_c, 5, 76, 50
7, 13110, Note_on_c, 5, 75, 50
7, 13115, Note_on_c, 5, 76, 0
7, 13133, Note_on_c, 5, 75, 0
7, 13140, Note_on_c, 5, 76, 50
7, 13169, Note_on_c, 5, 76, 0
7, 13170, Note_on_c, 5, 75, 50
7, 13184, Note_on_c, 5, 75, 0
7, 13200, Note_on_c, 5, 75, 50
7, 13228, Note_on_c, 5, 75, 0
7, 13230, Note_on_c, 5, 71, 50
7, 13249, Note_on_c, 5, 71, 0
7, 13260, Note_on_c, 5, 75, 50
7, 13288, Note_on_c, 5, 75, 0
7, 13290, Note_on_c, 5, 71, 50
7, 13317, Note_on_c, 5, 71, 0
7, 13320, Note_on_c, 5, 75, 50
7, 13349, Note_on_c, 5, 75, 0
7, 13350, Note_on_c, 5, 71, 50
7, 13374, Note_on_c, 5, 71, 0
7, 13380, Note_on_c, 5, 75, 50
7, 13410, Note_on_c, 5, 71, 50
7, 13411, Note_on_c, 5, 75, 0
7, 13433, Note_on_c, 5, 71, 0
7, 13440, Note_on_c, 5, 73, 50
7, 13470, Note_on_c, 5, 71, 50
7, 13473, Note_on_c, 5, 73, 0
7, 13496, Note_on_c, 5, 71, 0
7, 13500, Note_on_c, 5, 73, 50
7, 13530, Note_on_c, 5, 71, 50
7, 13533, Note_on_c, 5, 73, 0
7, 13558, Note_on_c, 5, 71, 0
7, 13560, Note_on_c, 5, 73, 50
7, 13590, Note_on_c, 5, 71, 50
7, 13593, Note_on_c, 5, 73, 0
7, 13615, Note_on_c, 5, 71, 0
7, 13620, Note_on_c, 5, 73, 50
7, 13650, Note_on_c, 5, 71, 50
7, 13653, Note_on_c, 5, 73, 0
7, 13676, Note_on_c, 5, 71, 0
7, 13680, Note_on_c, 5, 75, 50
7, 13710, Note_on_c, 5, 71, 50
7, 13715, Note_on_c, 5, 75, 0
7, 13736, Note_on_c, 5, 71, 0
7, 13740, Note_on_c, 5, 75, 50
7, 13770, Note_on_c, 5, 71, 50
7, 13773, Note_on_c, 5, 75, 0
7, 13796, Note_on_c, 5, 71, 0
7, 13800, Note_on_c, 5, 75, 50
7, 13830, Note_on_c, 5, 71, 50
7, 13834, Note_on_c, 5, 75, 0
7, 13858, Note_on_c, 5, 71, 0
7, 13860, Note_on_c, 5, 75, 50
7, 13890, Note_on_c, 5, 71, 50
7, 13894, Note_on_c, 5, 75, 0
7, 13915, Note_on_c, 5, 71, 0
7, 13920, Note_on_c, 5, 76, 50
7, 13950, Note_on_c, 5, 71, 50
7, 13954, Note_on_c, 5, 76, 0
7, 13977, Note_on_c, 5, 71, 0
7, 13980, Note_on_c, 5, 76, 50
7, 14010, Note_on_c, 5, 71, 50
7, 14020, Note_on_c, 5, 76, 0
7, 14035, Note_on_c, 5, 71, 0
7, 14040, Note_on_c, 5, 76, 50
7, 14070, Note_on_c, 5, 71, 50
7, 14075, Note_on_c, 5, 76, 0
7, 14096, Note_on_c, 5, 71, 0
7, 14100, Note_on_c, 5, 76, 50
7, 14130, Note_on_c, 5, 71, 50
7, 14138, Note_on_c, 5, 76, 0
7, 14154, Note_on_c, 5, 71, 0
7, 14160, Note_on_c, 5, 76, 50
7, 14190, Note_on_c, 5, 71, 50
7, 14194, Note_on_c, 5, 76, 0
7, 14215, Note_on_c, 5, 71, 0
7, 14220, Note_on_c, 5, 76, 50
7, 14250, Note_on_c, 5, 71, 50
7, 14255, Note_on_c, 5, 76, 0
7, 14278, Note_on_c, 5, 71, 0
7, 14280, Note_on_c, 5, 76, 50
7, 14310, Note_on_c, 5, 71, 50
7, 14315, Note_on_c, 5, 76, 0
7, 14332, Note_on_c, 5, 71, 0
7, 14340, Note_on_c, 5, 76, 50
7, 14370, Note_on_c, 5, 71, 50
7, 14375, Note_on_c, 5, 76, 0
7, 14388, Note_on_c, 5, 71, 0
7, 14400, Note_on_c, 5, 76, 50
7, 14430, Note_on_c, 5, 75, 50
7, 14433, Note_on_c, 5, 76, 0
7, 14457, Note_on_c, 5, 75, 0
7, 14460, Note_on_c, 5, 76, 50
7, 14490, Note_on_c, 5, 75, 50
7, 14493, Note_on_c, 5, 76, 0
7, 14515, Note_on_c, 5, 75, 0
7, 14520, Note_on_c, 5, 76, 50
7, 14550, Note_on_c, 5, 75, 50
7, 14554, Note_on_c, 5, 76, 0
7, 14576, Note_on_c, 5, 75, 0
7, 14580, Note_on_c, 5, 76, 50
7, 14610, Note_on_c, 5, 76, 0
7, 14610, Note_on_c, 5, 75, 50
7, 14633, Note_on_c, 5, 75, 0
7, 14640, Note_on_c, 5, 76, 50
7, 14670, Note_on_c, 5, 75, 50
7, 14679, Note_on_c, 5, 76, 0
7, 14696, Note_on_c, 5, 75, 0
7, 14700, Note_on_c, 5, 76, 50
7, 14730, Note_on_c, 5, 75, 50
7, 14736, Note_on_c, 5, 76, 0
7, 14758, Note_on_c, 5, 75, 0
7, 14760, Note_on_c, 5, 76, 50
7, 14790, Note_on_c, 5, 75, 50
7, 14793, Note_on_c, 5, 76, 0
7, 14814, Note_on_c, 5, 75, 0
7, 14820, Note_on_c, 5, 76, 50
7, 14850, Note_on_c, 5, 75, 50
7, 14851, Note_on_c, 5, 76, 0
7, 14877, Note_on_c, 5, 75, 0
7, 14880, Note_on_c, 5, 76, 50
7, 14910, Note_on_c, 5, 75, 50
7, 14915, Note_on_c, 5, 76, 0
7, 14935, Note_on_c, 5, 75, 0
7, 14940, Note_on_c, 5, 76, 50
7, 14970, Note_on_c, 5, 75, 50
7, 14972, Note_on_c, 5, 76, 0
7, 14998, Note_on_c, 5, 75, 0
7, 15000, Note_on_c, 5, 76, 50
7, 15030, Note_on_c, 5, 75, 50
7, 15032, Note_on_c, 5, 76, 0
7, 15053, Note_on_c, 5, 75, 0
7, 15060, Note_on_c, 5, 76, 50
7, 15090, Note_on_c, 5, 75, 50
7, 15091, Note_on_c, 5, 76, 0
7, 15107, Note_on_c, 5, 75, 0
7, 15120, Note_on_c, 5, 75, 50
7, 15150, Note_on_c, 5, 75, 0
7, 15150, Note_on_c, 5, 71, 50
7, 15176, Note_on_c, 5, 71, 0
7, 15180, Note_on_c, 5, 75, 50
7, 15210, Note_on_c, 5, 75, 0
7, 15210, Note_on_c, 5, 71, 50
7, 15237, Note_on_c, 5, 71, 0
7, 15240, Note_on_c, 5, 75, 50
7, 15270, Note_on_c, 5, 71, 50
7, 15271, Note_on_c, 5, 75, 0
7, 15298, Note_on_c, 5, 71, 0
7, 15300, Note_on_c, 5, 75, 50
7, 15330, Note_on_c, 5, 71, 50
7, 15335, Note_on_c, 5, 75, 0
7, 15354, Note_on_c, 5, 71, 0
7, 15360, Note_on_c, 5, 73, 50
7, 15389, Note_on_c, 5, 73, 0
7, 15390, Note_on_c, 5, 71, 50
7, 15413, Note_on_c, 5, 71, 0
7, 15420, Note_on_c, 5, 73, 50
7, 15450, Note_on_c, 5, 71, 50
7, 15451, Note_on_c, 5, 73, 0
7, 15476, Note_on_c, 5, 71, 0
7, 15480, Note_on_c, 5, 73, 50
7, 15510, Note_on_c, 5, 73, 0
7, 15510, Note_on_c, 5, 71, 50
7, 15535, Note_on_c, 5, 71, 0
7, 15540, Note_on_c, 5, 73, 50
7, 15570, Note_on_c, 5, 71, 50
7, 15572, Note_on_c, 5, 73, 0
7, 15594, Note_on_c, 5, 71, 0
7, 15600, Note_on_c, 5, 75, 50
7, 15630, Note_on_c, 5, 71, 50
7, 15634, Note_on_c, 5, 75, 0
7, 15656, Note_on_c, 5, 71, 0
7, 15660, Note_on_c, 5, 75, 50
7, 15690, Note_on_c, 5, 71, 50
7, 15692, Note_on_c, 5, 75, 0
7, 15714, Note_on_c, 5, 71, 0
7, 15720, Note_on_c, 5, 75, 50
7, 15750, Note_on_c, 5, 71, 50
7, 15753, Note_on_c, 5, 75, 0
7, 15774, Note_on_c, 5, 71, 0
7, 15780, Note_on_c, 5, 75, 50
7, 15809, Note_on_c, 5, 75, 0
7, 15810, Note_on_c, 5, 71, 50
7, 15833, Note_on_c, 5, 71, 0
7, 15840, Note_on_c, 5, 76, 50
7, 15870, Note_on_c, 5, 71, 50
7, 15871, Note_on_c, 5, 76, 0
7, 15896, Note_on_c, 5, 71, 0
7, 15900, Note_on_c, 5, 76, 50
7, 15930, Note_on_c, 5, 71, 50
7, 15935, Note_on_c, 5, 76, 0
7, 15957, Note_on_c, 5, 71, 0
7, 15960, Note_on_c, 5, 76, 50
7, 15990, Note_on_c, 5, 71, 50
7, 15995, Note_on_c, 5, 76, 0
7, 16016, Note_on_c, 5, 71, 0
7, 16020, Note_on_c, 5, 76, 50
7, 16050, Note_on_c, 5, 71, 50
7, 16054, Note_on_c, 5, 76, 0
7, 16077, Note_on_c, 5, 71, 0
7, 16080, Note_on_c, 5, 76, 50
7, 16110, Note_on_c, 5, 71, 50
7, 16114, Note_on_c, 5, 76, 0
7, 16136, Note_on_c, 5, 71, 0
7, 16140, Note_on_c, 5, 76, 50
7, 16170, Note_on_c, 5, 71, 50
7, 16174, Note_on_c, 5, 76, 0
7, 16194, Note_on_c, 5, 71, 0
7, 16200, Note_on_c, 5, 76, 50
7, 16230, Note_on_c, 5, 71, 50
7, 16235, Note_on_c, 5, 76, 0
7, 16256, Note_on_c, 5, 71, 0
7, 16260, Note_on_c, 5, 76, 50
7, 16282, Note_on_c, 5, 76, 0
7, 22080, Note_on_c, 5, 76, 50
7, 22110, Note_on_c, 5, 75, 50
7, 22114, Note_on_c, 5, 76, 0
7, 22130, Note_on_c, 5, 75, 0
7, 22140, Note_on_c, 5, 76, 50
7, 22170, Note_on_c, 5, 75, 50
7, 22173, Note_on_c, 5, 76, 0
7, 22197, Note_on_c, 5, 75, 0
7, 22200, Note_on_c, 5, 76, 50
7, 22230, Note_on_c, 5, 76, 0
7, 22230, Note_on_c, 5, 75, 50
7, 22255, Note_on_c, 5, 75, 0
7, 22260, Note_on_c, 5, 76, 50
7, 22290, Note_on_c, 5, 75, 50
7, 22292, Note_on_c, 5, 76, 0
7, 22315, Note_on_c, 5, 75, 0
7, 22320, Note_on_c, 5, 76, 50
7, 22350, Note_on_c, 5, 75, 50
7, 22356, Note_on_c, 5, 76, 0
7, 22378, Note_on_c, 5, 75, 0
7, 22380, Note_on_c, 5, 76, 50
7, 22410, Note_on_c, 5, 75, 50
7, 22414, Note_on_c, 5, 76, 0
7, 22435, Note_on_c, 5, 75, 0
7, 22440, Note_on_c, 5, 76, 50
7, 22470, Note_on_c, 5, 75, 50
7, 22473, Note_on_c, 5, 76, 0
7, 22494, Note_on_c, 5, 75, 0
7, 22500, Note_on_c, 5, 76, 50
7, 22530, Note_on_c, 5, 75, 50
7, 22534, Note_on_c, 5, 76, 0
7, 22557, Note_on_c, 5, 75, 0
7, 22560, Note_on_c, 5, 76, 50
7, 22590, Note_on_c, 5, 75, 50
7, 22593, Note_on_c, 5, 76, 0
7, 22617, Note_on_c, 5, 75, 0
7, 22620, Note_on_c, 5, 76, 50
7, 22650, Note_on_c, 5, 75, 50
7, 22654, Note_on_c, 5, 76, 0
7, 22673, Note_on_c, 5, 75, 0
7, 22680, Note_on_c, 5, 76, 50
7, 22710, Note_on_c, 5, 75, 50
7, 22715, Note_on_c, 5, 76, 0
7, 22733, Note_on_c, 5, 75, 0
7, 22740, Note_on_c, 5, 76, 50
7, 22769, Note_on_c, 5, 76, 0
7, 22770, Note_on_c, 5, 75, 50
7, 22784, Note_on_c, 5, 75, 0
7, 22800, Note_on_c, 5, 75, 50
7, 22828, Note_on_c, 5, 75, 0
7, 22830, Note_on_c, 5, 71, 50
7, 22849, Note_on_c, 5, 71, 0
7, 22860, Note_on_c, 5, 75, 50
7, 22888, Note_on_c, 5, 75, 0
7, 22890, Note_on_c, 5, 71, 50
7, 22917, Note_on_c, 5, 71, 0
7, 22920, Note_on_c, 5, 75, 50
7, 22949, Note_on_c, 5, 75, 0
7, 22950, Note_on_c, 5, 71, 50
7, 22974, Note_on_c, 5, 71, 0
7, 22980, Note_on_c, 5, 75, 50
7, 23010, Note_on_c, 5, 71, 50
7, 23011, Note_on_c, 5, 75, 0
7, 23033, Note_on_c, 5, 71, 0
7, 23040, Note_on_c, 5, 73, 50
7, 23070, Note_on_c, 5, 71, 50
7, 23073, Note_on_c, 5, 73, 0
7, 23096, Note_on_c, 5, 71, 0
7, 23100, Note_on_c, 5, 73, 50
7, 23130, Note_on_c, 5, 71, 50
7, 23133, Note_on_c, 5, 73, 0
7, 23158, Note_on_c, 5, 71, 0
7, 23160, Note_on_c, 5, 73, 50
7, 23190, Note_on_c, 5, 71, 50
7, 23193, Note_on_c, 5, 73, 0
7, 23215, Note_on_c, 5, 71, 0
7, 23220, Note_on_c, 5, 73, 50
7, 23250, Note_on_c, 5, 71, 50
7, 23253, Note_on_c, 5, 73, 0
7, 23276, Note_on_c, 5, 71, 0
7, 23280, Note_on_c, 5, 75, 50
7, 23310, Note_on_c, 5, 71, 50
7, 23315, Note_on_c, 5, 75, 0
7, 23336, Note_on_c, 5, 71, 0
7, 23340, Note_on_c, 5, 75, 50
7, 23370, Note_on_c, 5, 71, 50
7, 23373, Note_on_c, 5, 75, 0
7, 23396, Note_on_c, 5, 71, 0
7, 23400, Note_on_c, 5, 75, 50
7, 23430, Note_on_c, 5, 71, 50
7, 23434, Note_on_c, 5, 75, 0
7, 23458, Note_on_c, 5, 71, 0
7, 23460, Note_on_c, 5, 75, 50
7, 23490, Note_on_c, 5, 71, 50
7, 23494, Note_on_c, 5, 75, 0
7, 23515, Note_on_c, 5, 71, 0
7, 23520, Note_on_c, 5, 76, 50
7, 23550, Note_on_c, 5, 71, 50
7, 23554, Note_on_c, 5, 76, 0
7, 23577, Note_on_c, 5, 71, 0
7, 23580, Note_on_c, 5, 76, 50
7, 23610, Note_on_c, 5, 71, 50
7, 23620, Note_on_c, 5, 76, 0
7, 23635, Note_on_c, 5, 71, 0
7, 23640, Note_on_c, 5, 76, 50
7, 23670, Note_on_c, 5, 71, 50
7, 23675, Note_on_c, 5, 76, 0
7, 23696, Note_on_c, 5, 71, 0
7, 23700, Note_on_c, 5, 76, 50
7, 23730, Note_on_c, 5, 71, 50
7, 23738, Note_on_c, 5, 76, 0
7, 23754, Note_on_c, 5, 71, 0
7, 23760, Note_on_c, 5, 76, 50
7, 23790, Note_on_c, 5, 71, 50
7, 23794, Note_on_c, 5, 76, 0
7, 23815, Note_on_c, 5, 71, 0
7, 23820, Note_on_c, 5, 76, 50
7, 23850, Note_on_c, 5, 71, 50
7, 23855, Note_on_c, 5, 76, 0
7, 23878, Note_on_c, 5, 71, 0
7, 23880, Note_on_c, 5, 76, 50
7, 23910, Note_on_c, 5, 71, 50
7, 23915, Note_on_c, 5, 76, 0
7, 23932, Note_on_c, 5, 71, 0
7, 23940, Note_on_c, 5, 76, 50
7, 23970, Note_on_c, 5, 71, 50
7, 23975, Note_on_c, 5, 76, 0
7, 23988, Note_on_c, 5, 71, 0
7, 24000, Note_on_c, 5, 76, 50
7, 24030, Note_on_c, 5, 75, 50
7, 24033, Note_on_c, 5, 76, 0
7, 24057, Note_on_c, 5, 75, 0
7, 24060, Note_on_c, 5, 76, 50
7, 24090, Note_on_c, 5, 75, 50
7, 24093, Note_on_c, 5, 76, 0
7, 24115, Note_on_c, 5, 75, 0
7, 24120, Note_on_c, 5, 76, 50
7, 24150, Note_on_c, 5, 75, 50
7, 24154, Note_on_c, 5, 76, 0
7, 24176, Note_on_c, 5, 75, 0
7, 24180, Note_on_c, 5, 76, 50
7, 24210, Note_on_c, 5, 76, 0
7, 24210, Note_on_c, 5, 75, 50
7, 24233, Note_on_c, 5, 75, 0
7, 24240, Note_on_c, 5, 76, 50
7, 24270, Note_on_c, 5, 75, 50
7, 24279, Note_on_c, 5, 76, 0
7, 24296, Note_on_c, 5, 75, 0
7, 24300, Note_on_c, 5, 76, 50
7, 24330, Note_on_c, 5, 75, 50
7, 24336, Note_on_c, 5, 76, 0
7, 24358, Note_on_c, 5, 75, 0
7, 24360, Note_on_c, 5, 76, 50
7, 24390, Note_on_c, 5, 75, 50
7, 24393, Note_on_c, 5, 76, 0
7, 24414, Note_on_c, 5, 75, 0
7, 24420, Note_on_c, 5, 76, 50
7, 24450, Note_on_c, 5, 75, 50
7, 24451, Note_on_c, 5, 76, 0
7, 24477, Note_on_c, 5, 75, 0
7, 24480, Note_on_c, 5, 76, 50
7, 24510, Note_on_c, 5, 75, 50
7, 24515, Note_on_c, 5, 76, 0
7, 24535, Note_on_c, 5, 75, 0
7, 24540, Note_on_c, 5, 76, 50
7, 24570, Note_on_c, 5, 75, 50
7, 24572, Note_on_c, 5, 76, 0
7, 24598, Note_on_c, 5, 75, 0
7, 24600, Note_on_c, 5, 76, 50
7, 24630, Note_on_c, 5, 75, 50
7, 24632, Note_on_c, 5, 76, 0
7, 24653, Note_on_c, 5, 75, 0
7, 24660, Note_on_c, 5, 76, 50
7, 24690, Note_on_c, 5, 75, 50
7, 24691, Note_on_c, 5, 76, 0
7, 24707, Note_on_c, 5, 75, 0
7, 24720, Note_on_c, 5, 75, 50
7, 24750, Note_on_c, 5, 75, 0
7, 24750, Note_on_c, 5, 71, 50
7, 24776, Note_on_c, 5, 71, 0
7, 24780, Note_on_c, 5, 75, 50
7, 24810, Note_on_c, 5, 75, 0
7, 24810, Note_on_c, 5, 71, 50
7, 24837, Note_on_c, 5, 71, 0
7, 24840, Note_on_c, 5, 75, 50
7, 24870, Note_on_c, 5, 71, 50
7, 24871, Note_on_c, 5, 75, 0
7, 24898, Note_on_c, 5, 71, 0
7, 24900, Note_on_c, 5, 75, 50
7, 24930, Note_on_c, 5, 71, 50
7, 24935, Note_on_c, 5, 75, 0
7, 24954, Note_on_c, 5, 71, 0
7, 24960, Note_on_c, 5, 73, 50
7, 24989, Note_on_c, 5, 73, 0
7, 24990, Note_on_c, 5, 71, 50
7, 25013, Note_on_c, 5, 71, 0
7, 25020, Note_on_c, 5, 73, 50
7, 25050, Note_on_c, 5, 71, 50
7, 25051, Note_on_c, 5, 73, 0
7, 25076, Note_on_c, 5, 71, 0
7, 25080, Note_on_c, 5, 73, 50
7, 25110, Note_on_c, 5, 73, 0
7, 25110, Note_on_c, 5, 71, 50
7, 25135, Note_on_c, 5, 71, 0
7, 25140, Note_on_c, 5, 73, 50
7, 25170, Note_on_c, 5, 71, 50
7, 25172, Note_on_c, 5, 73, 0
7, 25194, Note_on_c, 5, 71, 0
7, 25200, Note_on_c, 5, 75, 50
7, 25230, Note_on_c, 5, 71, 50
7, 25234, Note_on_c, 5, 75, 0
7, 25256, Note_on_c, 5, 71, 0
7, 25260, Note_on_c, 5, 75, 50
7, 25290, Note_on_c, 5, 71, 50
7, 25292, Note_on_c, 5, 75, 0
7, 25314, Note_on_c, 5, 71, 0
7, 25320, Note_on_c, 5, 75, 50
7, 25350, Note_on_c, 5, 71, 50
7, 25353, Note_on_c, 5, 75, 0
7, 25374, Note_on_c, 5, 71, 0
7, 25380, Note_on_c, 5, 75, 50
7, 25409, Note_on_c, 5, 75, 0
7, 25410, Note_on_c, 5, 71, 50
7, 25433, Note_on_c, 5, 71, 0
7, 25440, Note_on_c, 5, 76, 50
7, 25470, Note_on_c, 5, 71, 50
7, 25471, Note_on_c, 5, 76, 0
7, 25496, Note_on_c, 5, 71, 0
7, 25500, Note_on_c, 5, 76, 50
7, 25530, Note_on_c, 5, 71, 50
7, 25535, Note_on_c, 5, 76, 0
7, 25557, Note_on_c, 5, 71, 0
7, 25560, Note_on_c, 5, 76, 50
7, 25590, Note_on_c, 5, 71, 50
7, 25595, Note_on_c, 5, 76, 0
7, 25616, Note_on_c, 5, 71, 0
7, 25620, Note_on_c, 5, 76, 50
7, 25650, Note_on_c, 5, 71, 50
7, 25654, Note_on_c, 5, 76, 0
7, 25677, Note_on_c, 5, 71, 0
7, 30954, Control_c, 5, 93, 57
7, 30965, Control_c, 5, 93, 60
7, 30970, Control_c, 5, 93, 70
7, 30970, Control_c, 5, 93, 66
7, 30981, Control_c, 5, 93, 74
7, 30986, Control_c, 5, 93, 77
7, 30991, Control_c, 5, 93, 79
7, 30999, Control_c, 5, 93, 82
7, 34320, Note_on_c, 5, 76, 50
7, 34350, Note_on_c, 5, 75, 50
7, 34354, Note_on_c, 5, 76, 0
7, 34370, Note_on_c, 5, 75, 0
7, 34380, Note_on_c, 5, 76, 50
7, 34410, Note_on_c, 5, 75, 50
7, 34413, Note_on_c, 5, 76, 0
7, 34437, Note_on_c, 5, 75, 0
7, 34440, Note_on_c, 5, 76, 50
7, 34470, Note_on_c, 5, 76, 0
7, 34470, Note_on_c, 5, 75, 50
7, 34495, Note_on_c, 5, 75, 0
7, 34500, Note_on_c, 5, 76, 50
7, 34530, Note_on_c, 5, 75, 50
7, 34532, Note_on_c, 5, 76, 0
7, 34555, Note_on_c, 5, 75, 0
7, 34560, Note_on_c, 5, 76, 50
7, 34590, Note_on_c, 5, 75, 50
7, 34596, Note_on_c, 5, 76, 0
7, 34618, Note_on_c, 5, 75, 0
7, 34620, Note_on_c, 5, 76, 50
7, 34650, Note_on_c, 5, 75, 50
7, 34654, Note_on_c, 5, 76, 0
7, 34675, Note_on_c, 5, 75, 0
7, 34680, Note_on_c, 5, 76, 50
7, 34710, Note_on_c, 5, 75, 50
7, 34713, Note_on_c, 5, 76, 0
7, 34734, Note_on_c, 5, 75, 0
7, 34740, Note_on_c, 5, 76, 50
7, 34770, Note_on_c, 5, 75, 50
7, 34774, Note_on_c, 5, 76, 0
7, 34797, Note_on_c, 5, 75, 0
7, 34800, Note_on_c, 5, 76, 50
7, 34830, Note_on_c, 5, 75, 50
7, 34833, Note_on_c, 5, 76, 0
7, 34857, Note_on_c, 5, 75, 0
7, 34860, Note_on_c, 5, 76, 50
7, 34890, Note_on_c, 5, 75, 50
7, 34894, Note_on_c, 5, 76, 0
7, 34913, Note_on_c, 5, 75, 0
7, 34920, Note_on_c, 5, 76, 50
7, 34950, Note_on_c, 5, 75, 50
7, 34955, Note_on_c, 5, 76, 0
7, 34973, Note_on_c, 5, 75, 0
7, 34980, Note_on_c, 5, 76, 50
7, 35009, Note_on_c, 5, 76, 0
7, 35010, Note_on_c, 5, 75, 50
7, 35024, Note_on_c, 5, 75, 0
7, 35040, Note_on_c, 5, 75, 50
7, 35068, Note_on_c, 5, 75, 0
7, 35070, Note_on_c, 5, 71, 50
7, 35089, Note_on_c, 5, 71, 0
7, 35100, Note_on_c, 5, 75, 50
7, 35128, Note_on_c, 5, 75, 0
7, 35130, Note_on_c, 5, 71, 50
7, 35157, Note_on_c, 5, 71, 0
7, 35160, Note_on_c, 5, 75, 50
7, 35189, Note_on_c, 5, 75, 0
7, 35190, Note_on_c, 5, 71, 50
7, 35214, Note_on_c, 5, 71, 0
7, 35220, Note_on_c, 5, 75, 50
7, 35250, Note_on_c, 5, 71, 50
7, 35251, Note_on_c, 5, 75, 0
7, 35273, Note_on_c, 5, 71, 0
7, 35280, Note_on_c, 5, 73, 50
7, 35310, Note_on_c, 5, 71, 50
7, 35313, Note_on_c, 5, 73, 0
7, 35336, Note_on_c, 5, 71, 0
7, 35340, Note_on_c, 5, 73, 50
7, 35370, Note_on_c, 5, 71, 50
7, 35373, Note_on_c, 5, 73, 0
7, 35398, Note_on_c, 5, 71, 0
7, 35400, Note_on_c, 5, 73, 50
7, 35430, Note_on_c, 5, 71, 50
7, 35433, Note_on_c, 5, 73, 0
7, 35455, Note_on_c, 5, 71, 0
7, 35460, Note_on_c, 5, 73, 50
7, 35490, Note_on_c, 5, 71, 50
7, 35493, Note_on_c, 5, 73, 0
7, 35516, Note_on_c, 5, 71, 0
7, 35520, Note_on_c, 5, 75, 50
7, 35550, Note_on_c, 5, 71, 50
7, 35555, Note_on_c, 5, 75, 0
7, 35576, Note_on_c, 5, 71, 0
7, 35580, Note_on_c, 5, 75, 50
7, 35610, Note_on_c, 5, 71, 50
7, 35613, Note_on_c, 5, 75, 0
7, 35636, Note_on_c, 5, 71, 0
7, 35640, Note_on_c, 5, 75, 50
7, 35670, Note_on_c, 5, 71, 50
7, 35674, Note_on_c, 5, 75, 0
7, 35698, Note_on_c, 5, 71, 0
7, 35700, Note_on_c, 5, 75, 50
7, 35730, Note_on_c, 5, 71, 50
7, 35734, Note_on_c, 5, 75, 0
7, 35755, Note_on_c, 5, 71, 0
7, 35760, Note_on_c, 5, 76, 50
7, 35790, Note_on_c, 5, 71, 50
7, 35794, Note_on_c, 5, 76, 0
7, 35817, Note_on_c, 5, 71, 0
7, 35820, Note_on_c, 5, 76, 50
7, 35850, Note_on_c, 5, 71, 50
7, 35860, Note_on_c, 5, 76, 0
7, 35875, Note_on_c, 5, 71, 0
7, 35880, Note_on_c, 5, 76, 50
7, 35910, Note_on_c, 5, 71, 50
7, 35915, Note_on_c, 5, 76, 0
7, 35936, Note_on_c, 5, 71, 0
7, 35940, Note_on_c, 5, 76, 50
7, 35970, Note_on_c, 5, 71, 50
7, 35978, Note_on_c, 5, 76, 0
7, 35994, Note_on_c, 5, 71, 0
7, 36000, Note_on_c, 5, 76, 50
7, 36030, Note_on_c, 5, 71, 50
7, 36034, Note_on_c, 5, 76, 0
7, 36055, Note_on_c, 5, 71, 0
7, 36060, Note_on_c, 5, 76, 50
7, 36090, Note_on_c, 5, 71, 50
7, 36095, Note_on_c, 5, 76, 0
7, 36118, Note_on_c, 5, 71, 0
7, 36120, Note_on_c, 5, 76, 50
7, 36150, Note_on_c, 5, 71, 50
7, 36155, Note_on_c, 5, 76, 0
7, 36172, Note_on_c, 5, 71, 0
7, 36180, Note_on_c, 5, 76, 50
7, 36210, Note_on_c, 5, 71, 50
7, 36215, Note_on_c, 5, 76, 0
7, 36228, Note_on_c, 5, 71, 0
7, 36240, Note_on_c, 5, 76, 50
7, 36270, Note_on_c, 5, 75, 50
7, 36273, Note_on_c, 5, 76, 0
7, 36297, Note_on_c, 5, 75, 0
7, 36300, Note_on_c, 5, 76, 50
7, 36330, Note_on_c, 5, 75, 50
7, 36333, Note_on_c, 5, 76, 0
7, 36355, Note_on_c, 5, 75, 0
7, 36360, Note_on_c, 5, 76, 50
7, 36390, Note_on_c, 5, 75, 50
7, 36394, Note_on_c, 5, 76, 0
7, 36416, Note_on_c, 5, 75, 0
7, 36420, Note_on_c, 5, 76, 50
7, 36450, Note_on_c, 5, 76, 0
7, 36450, Note_on_c, 5, 75, 50
7, 36473, Note_on_c, 5, 75, 0
7, 36480, Note_on_c, 5, 76, 50
7, 36510, Note_on_c, 5, 75, 50
7, 36519, Note_on_c, 5, 76, 0
7, 36536, Note_on_c, 5, 75, 0
7, 36540, Note_on_c, 5, 76, 50
7, 36570, Note_on_c, 5, 75, 50
7, 36576, Note_on_c, 5, 76, 0
7, 36598, Note_on_c, 5, 75, 0
7, 36600, Note_on_c, 5, 76, 50
7, 36630, Note_on_c, 5, 75, 50
7, 36633, Note_on_c, 5, 76, 0
7, 36654, Note_on_c, 5, 75, 0
7, 36660, Note_on_c, 5, 76, 50
7, 36690, Note_on_c, 5, 75, 50
7, 36691, Note_on_c, 5, 76, 0
7, 36717, Note_on_c, 5, 75, 0
7, 36720, Note_on_c, 5, 76, 50
7, 36750, Note_on_c, 5, 75, 50
7, 36755, Note_on_c, 5, 76, 0
7, 36775, Note_on_c, 5, 75, 0
7, 36780, Note_on_c, 5, 76, 50
7, 36810, Note_on_c, 5, 75, 50
7, 36812, Note_on_c, 5, 76, 0
7, 36838, Note_on_c, 5, 75, 0
7, 36840, Note_on_c, 5, 76, 50
7, 36870, Note_on_c, 5, 75, 50
7, 36872, Note_on_c, 5, 76, 0
7, 36893, Note_on_c, 5, 75, 0
7, 36900, Note_on_c, 5, 76, 50
7, 36930, Note_on_c, 5, 75, 50
7, 36931, Note_on_c, 5, 76, 0
7, 36947, Note_on_c, 5, 75, 0
7, 36960, Note_on_c, 5, 75, 50
7, 36990, Note_on_c, 5, 75, 0
7, 36990, Note_on_c, 5, 71, 50
7, 37016, Note_on_c, 5, 71, 0
7, 37020, Note_on_c, 5, 75, 50
7, 37050, Note_on_c, 5, 75, 0
7, 37050, Note_on_c, 5, 71, 50
7, 37077, Note_on_c, 5, 71, 0
7, 37080, Note_on_c, 5, 75, 50
7, 37110, Note_on_c, 5, 71, 50
7, 37111, Note_on_c, 5, 75, 0
7, 37138, Note_on_c, 5, 71, 0
7, 37140, Note_on_c, 5, 75, 50
7, 37170, Note_on_c, 5, 71, 50
7, 37175, Note_on_c, 5, 75, 0
7, 37194, Note_on_c, 5, 71, 0
7, 37200, Note_on_c, 5, 73, 50
7, 37229, Note_on_c, 5, 73, 0
7, 37230, Note_on_c, 5, 71, 50
7, 37253, Note_on_c, 5, 71, 0
7, 37260, Note_on_c, 5, 73, 50
7, 37290, Note_on_c, 5, 71, 50
7, 37291, Note_on_c, 5, 73, 0
7, 37316, Note_on_c, 5, 71, 0
7, 37320, Note_on_c, 5, 73, 50
7, 37350, Note_on_c, 5, 73, 0
7, 37350, Note_on_c, 5, 71, 50
7, 37375, Note_on_c, 5, 71, 0
7, 37380, Note_on_c, 5, 73, 50
7, 37410, Note_on_c, 5, 71, 50
7, 37412, Note_on_c, 5, 73, 0
7, 37434, Note_on_c, 5, 71, 0
7, 37440, Note_on_c, 5, 75, 50
7, 37470, Note_on_c, 5, 71, 50
7, 37474, Note_on_c, 5, 75, 0
7, 37496, Note_on_c, 5, 71, 0
7, 37500, Note_on_c, 5, 75, 50
7, 37530, Note_on_c, 5, 71, 50
7, 37532, Note_on_c, 5, 75, 0
7, 37554, Note_on_c, 5, 71, 0
7, 37560, Note_on_c, 5, 75, 50
7, 37590, Note_on_c, 5, 71, 50
7, 37593, Note_on_c, 5, 75, 0
7, 37614, Note_on_c, 5, 71, 0
7, 37620, Note_on_c, 5, 75, 50
7, 37649, Note_on_c, 5, 75, 0
7, 37650, Note_on_c, 5, 71, 50
7, 37673, Note_on_c, 5, 71, 0
7, 37680, Note_on_c, 5, 76, 50
7, 37710, Note_on_c, 5, 71, 50
7, 37711, Note_on_c, 5, 76, 0
7, 37736, Note_on_c, 5, 71, 0
7, 37740, Note_on_c, 5, 76, 50
7, 37770, Note_on_c, 5, 71, 50
7, 37775, Note_on_c, 5, 76, 0
7, 37797, Note_on_c, 5, 71, 0
7, 37800, Note_on_c, 5, 76, 50
7, 37830, Note_on_c, 5, 71, 50
7, 37835, Note_on_c, 5, 76, 0
7, 37856, Note_on_c, 5, 71, 0
7, 37860, Note_on_c, 5, 76, 50
7, 37890, Note_on_c, 5, 71, 50
7, 37894, Note_on_c, 5, 76, 0
7, 37917, Note_on_c, 5, 71, 0
7, 37920, Note_on_c, 5, 76, 50
7, 37950, Note_on_c, 5, 71, 50
7, 37954, Note_on_c, 5, 76, 0
7, 37976, Note_on_c, 5, 71, 0
7, 37980, Note_on_c, 5, 76, 50
7, 38010, Note_on_c, 5, 71, 50
7, 38014, Note_on_c, 5, 76, 0
7, 38034, Note_on_c, 5, 71, 0
7, 38040, Note_on_c, 5, 76, 50
7, 38070, Note_on_c, 5, 71, 50
7, 38075, Note_on_c, 5, 76, 0
7, 38096, Note_on_c, 5, 71, 0
7, 38100, Note_on_c, 5, 76, 50
7, 38122, Note_on_c, 5, 76, 0
7, 38130, Note_on_c, 5, 71, 50
7, 38160, Note_on_c, 5, 76, 50
7, 38190, Note_on_c, 5, 75, 50
7, 38194, Note_on_c, 5, 76, 0
7, 38210, Note_on_c, 5, 75, 0
7, 38220, Note_on_c, 5, 76, 50
7, 38249, Note_on_c, 5, 71, 0
7, 38250, Note_on_c, 5, 75, 50
7, 38253, Note_on_c, 5, 76, 0
7, 38277, Note_on_c, 5, 75, 0
7, 38280, Note_on_c, 5, 76, 50
7, 38310, Note_on_c, 5, 76, 0
7, 38310, Note_on_c, 5, 75, 50
7, 38335, Note_on_c, 5, 75, 0
7, 38340, Note_on_c, 5, 76, 50
7, 38370, Note_on_c, 5, 75, 50
7, 38372, Note_on_c, 5, 76, 0
7, 38395, Note_on_c, 5, 75, 0
7, 38400, Note_on_c, 5, 76, 50
7, 38430, Note_on_c, 5, 75, 50
7, 38436, Note_on_c, 5, 76, 0
7, 38458, Note_on_c, 5, 75, 0
7, 38460, Note_on_c, 5, 76, 50
7, 38490, Note_on_c, 5, 75, 50
7, 38494, Note_on_c, 5, 76, 0
7, 38515, Note_on_c, 5, 75, 0
7, 38520, Note_on_c, 5, 76, 50
7, 38550, Note_on_c, 5, 75, 50
7, 38553, Note_on_c, 5, 76, 0
7, 38574, Note_on_c, 5, 75, 0
7, 38580, Note_on_c, 5, 76, 50
7, 38610, Note_on_c, 5, 75, 50
7, 38614, Note_on_c, 5, 76, 0
7, 38637, Note_on_c, 5, 75, 0
7, 38640, Note_on_c, 5, 76, 50
7, 38670, Note_on_c, 5, 75, 50
7, 38673, Note_on_c, 5, 76, 0
7, 38697, Note_on_c, 5, 75, 0
7, 38700, Note_on_c, 5, 76, 50
7, 38730, Note_on_c, 5, 75, 50
7, 38734, Note_on_c, 5, 76, 0
7, 38753, Note_on_c, 5, 75, 0
7, 38760, Note_on_c, 5, 76, 50
7, 38790, Note_on_c, 5, 75, 50
7, 38795, Note_on_c, 5, 76, 0
7, 38813, Note_on_c, 5, 75, 0
7, 38820, Note_on_c, 5, 76, 50
7, 38849, Note_on_c, 5, 76, 0
7, 38850, Note_on_c, 5, 75, 50
7, 38864, Note_on_c, 5, 75, 0
7, 38880, Note_on_c, 5, 75, 50
7, 38908, Note_on_c, 5, 75, 0
7, 38910, Note_on_c, 5, 71, 50
7, 38929, Note_on_c, 5, 71, 0
7, 38940, Note_on_c, 5, 75, 50
7, 38968, Note_on_c, 5, 75, 0
7, 38970, Note_on_c, 5, 71, 50
7, 38997, Note_on_c, 5, 71, 0
7, 39000, Note_on_c, 5, 75, 50
7, 39029, Note_on_c, 5, 75, 0
7, 39030, Note_on_c, 5, 71, 50
7, 39054, Note_on_c, 5, 71, 0
7, 39060, Note_on_c, 5, 75, 50
7, 39090, Note_on_c, 5, 71, 50
7, 39091, Note_on_c, 5, 75, 0
7, 39113, Note_on_c, 5, 71, 0
7, 39120, Note_on_c, 5, 73, 50
7, 39150, Note_on_c, 5, 71, 50
7, 39153, Note_on_c, 5, 73, 0
7, 39176, Note_on_c, 5, 71, 0
7, 39180, Note_on_c, 5, 73, 50
7, 39210, Note_on_c, 5, 71, 50
7, 39213, Note_on_c, 5, 73, 0
7, 39238, Note_on_c, 5, 71, 0
7, 39240, Note_on_c, 5, 73, 50
7, 39270, Note_on_c, 5, 71, 50
7, 39273, Note_on_c, 5, 73, 0
7, 39295, Note_on_c, 5, 71, 0
7, 39300, Note_on_c, 5, 73, 50
7, 39330, Note_on_c, 5, 71, 50
7, 39333, Note_on_c, 5, 73, 0
7, 39356, Note_on_c, 5, 71, 0
7, 39360, Note_on_c, 5, 75, 50
7, 39390, Note_on_c, 5, 71, 50
7, 39395, Note_on_c, 5, 75, 0
7, 39416, Note_on_c, 5, 71, 0
7, 39420, Note_on_c, 5, 75, 50
7, 39450, Note_on_c, 5, 71, 50
7, 39453, Note_on_c, 5, 75, 0
7, 39476, Note_on_c, 5, 71, 0
7, 39480, Note_on_c, 5, 75, 50
7, 39510, Note_on_c, 5, 71, 50
7, 39514, Note_on_c, 5, 75, 0
7, 39538, Note_on_c, 5, 71, 0
7, 39540, Note_on_c, 5, 75, 50
7, 39570, Note_on_c, 5, 71, 50
7, 39574, Note_on_c, 5, 75, 0
7, 39595, Note_on_c, 5, 71, 0
7, 39600, Note_on_c, 5, 76, 50
7, 39630, Note_on_c, 5, 71, 50
7, 39634, Note_on_c, 5, 76, 0
7, 39657, Note_on_c, 5, 71, 0
7, 39660, Note_on_c, 5, 76, 50
7, 39690, Note_on_c, 5, 71, 50
7, 39700, Note_on_c, 5, 76, 0
7, 39715, Note_on_c, 5, 71, 0
7, 39720, Note_on_c, 5, 76, 50
7, 39750, Note_on_c, 5, 71, 50
7, 39755, Note_on_c, 5, 76, 0
7, 39776, Note_on_c, 5, 71, 0
7, 39780, Note_on_c, 5, 76, 50
7, 39810, Note_on_c, 5, 71, 50
7, 39818, Note_on_c, 5, 76, 0
7, 39834, Note_on_c, 5, 71, 0
7, 39840, Note_on_c, 5, 76, 50
7, 39870, Note_on_c, 5, 71, 50
7, 39874, Note_on_c, 5, 76, 0
7, 39895, Note_on_c, 5, 71, 0
7, 39900, Note_on_c, 5, 76, 50
7, 39930, Note_on_c, 5, 71, 50
7, 39935, Note_on_c, 5, 76, 0
7, 39958, Note_on_c, 5, 71, 0
7, 39960, Note_on_c, 5, 76, 50
7, 39990, Note_on_c, 5, 71, 50
7, 39995, Note_on_c, 5, 76, 0
7, 40012, Note_on_c, 5, 71, 0
7, 40020, Note_on_c, 5, 76, 50
7, 40050, Note_on_c, 5, 71, 50
7, 40055, Note_on_c, 5, 76, 0
7, 40068, Note_on_c, 5, 71, 0
7, 40080, Note_on_c, 5, 76, 50
7, 40110, Note_on_c, 5, 75, 50
7, 40113, Note_on_c, 5, 76, 0
7, 40137, Note_on_c, 5, 75, 0
7, 40140, Note_on_c, 5, 76, 50
7, 40170, Note_on_c, 5, 75, 50
7, 40173, Note_on_c, 5, 76, 0
7, 40195, Note_on_c, 5, 75, 0
7, 40200, Note_on_c, 5, 76, 50
7, 40230, Note_on_c, 5, 75, 50
7, 40234, Note_on_c, 5, 76, 0
7, 40256, Note_on_c, 5, 75, 0
7, 40260, Note_on_c, 5, 76, 50
7, 40290, Note_on_c, 5, 76, 0
7, 40290, Note_on_c, 5, 75, 50
7, 40313, Note_on_c, 5, 75, 0
7, 40320, Note_on_c, 5, 76, 50
7, 40350, Note_on_c, 5, 75, 50
7, 40359, Note_on_c, 5, 76, 0
7, 40376, Note_on_c, 5, 75, 0
7, 40380, Note_on_c, 5, 76, 50
7, 40410, Note_on_c, 5, 75, 50
7, 40416, Note_on_c, 5, 76, 0
7, 40438, Note_on_c, 5, 75, 0
7, 40440, Note_on_c, 5, 76, 50
7, 40470, Note_on_c, 5, 75, 50
7, 40473, Note_on_c, 5, 76, 0
7, 40494, Note_on_c, 5, 75, 0
7, 40500, Note_on_c, 5, 76, 50
7, 40530, Note_on_c, 5, 75, 50
7, 40531, Note_on_c, 5, 76, 0
7, 40557, Note_on_c, 5, 75, 0
7, 40560, Note_on_c, 5, 76, 50
7, 40590, Note_on_c, 5, 75, 50
7, 40595, Note_on_c, 5, 76, 0
7, 40615, Note_on_c, 5, 75, 0
7, 40620, Note_on_c, 5, 76, 50
7, 40650, Note_on_c, 5, 75, 50
7, 40652, Note_on_c, 5, 76, 0
7, 40678, Note_on_c, 5, 75, 0
7, 40680, Note_on_c, 5, 76, 50
7, 40710, Note_on_c, 5, 75, 50
7, 40712, Note_on_c, 5, 76, 0
7, 40733, Note_on_c, 5, 75, 0
7, 40740, Note_on_c, 5, 76, 50
7, 40770, Note_on_c, 5, 75, 50
7, 40771, Note_on_c, 5, 76, 0
7, 40787, Note_on_c, 5, 75, 0
7, 40800, Note_on_c, 5, 75, 50
7, 40830, Note_on_c, 5, 75, 0
7, 40830, Note_on_c, 5, 71, 50
7, 40856, Note_on_c, 5, 71, 0
7, 40860, Note_on_c, 5, 75, 50
7, 40890, Note_on_c, 5, 75, 0
7, 40890, Note_on_c, 5, 71, 50
7, 40917, Note_on_c, 5, 71, 0
7, 40920, Note_on_c, 5, 75, 50
7, 40950, Note_on_c, 5, 71, 50
7, 40951, Note_on_c, 5, 75, 0
7, 40978, Note_on_c, 5, 71, 0
7, 40980, Note_on_c, 5, 75, 50
7, 41010, Note_on_c, 5, 71, 50
7, 41015, Note_on_c, 5, 75, 0
7, 41034, Note_on_c, 5, 71, 0
7, 41040, Note_on_c, 5, 73, 50
7, 41045, Control_c, 5, 10, 66
7, 41058, Control_c, 5, 10, 60
7, 41063, Control_c, 5, 10, 53
7, 41063, Control_c, 5, 10, 56
7, 41069, Note_on_c, 5, 73, 0
7, 41070, Control_c, 5, 10, 51
7, 41070, Note_on_c, 5, 71, 50
7, 41075, Control_c, 5, 10, 48
7, 41079, Control_c, 5, 10, 44
7, 41079, Control_c, 5, 10, 46
7, 41084, Control_c, 5, 10, 42
7, 41093, Note_on_c, 5, 71, 0
7, 41100, Note_on_c, 5, 73, 50
7, 41110, Control_c, 5, 10, 40
7, 41115, Control_c, 5, 10, 39
7, 41130, Control_c, 5, 10, 37
7, 41130, Note_on_c, 5, 71, 50
7, 41131, Note_on_c, 5, 73, 0
7, 41133, Control_c, 5, 10, 36
7, 41156, Note_on_c, 5, 71, 0
7, 41160, Note_on_c, 5, 73, 50
7, 41165, Control_c, 5, 10, 37
7, 41167, Control_c, 5, 10, 38
7, 41180, Control_c, 5, 10, 40
7, 41190, Note_on_c, 5, 73, 0
7, 41190, Note_on_c, 5, 71, 50
7, 41215, Note_on_c, 5, 71, 0
7, 41220, Note_on_c, 5, 73, 50
7, 41225, Control_c, 5, 10, 42
7, 41230, Control_c, 5, 10, 44
7, 41235, Control_c, 5, 10, 46
7, 41240, Control_c, 5, 10, 47
7, 41250, Note_on_c, 5, 71, 50
7, 41252, Note_on_c, 5, 73, 0
7, 41274, Note_on_c, 5, 71, 0
7, 41280, Note_on_c, 5, 75, 50
7, 41310, Note_on_c, 5, 71, 50
7, 41314, Note_on_c, 5, 75, 0
7, 41336, Note_on_c, 5, 71, 0
7, 41340, Note_on_c, 5, 75, 50
7, 41370, Note_on_c, 5, 71, 50
7, 41372, Note_on_c, 5, 75, 0
7, 41394, Note_on_c, 5, 71, 0
7, 41400, Note_on_c, 5, 75, 50
7, 41430, Note_on_c, 5, 71, 50
7, 41433, Note_on_c, 5, 75, 0
7, 41438, Control_c, 5, 10, 49
7, 41454, Note_on_c, 5, 71, 0
7, 41458, Control_c, 5, 10, 52
7, 41460, Note_on_c, 5, 75, 50
7, 41465, Control_c, 5, 10, 60
7, 41465, Control_c, 5, 10, 54
7, 41470, Control_c, 5, 10, 66
7, 41480, Control_c, 5, 10, 69
7, 41483, Control_c, 5, 10, 72
7, 41489, Note_on_c, 5, 75, 0
7, 41489, Control_c, 5, 10, 74
7, 41490, Note_on_c, 5, 71, 50
7, 41491, Control_c, 5, 10, 77
7, 41496, Control_c, 5, 10, 79
7, 41501, Control_c, 5, 10, 81
7, 41513, Note_on_c, 5, 71, 0
7, 41520, Note_on_c, 5, 76, 50
7, 41550, Note_on_c, 5, 71, 50
7, 41551, Note_on_c, 5, 76, 0
7, 41576, Note_on_c, 5, 71, 0
7, 41580, Note_on_c, 5, 76, 50
7, 41610, Note_on_c, 5, 71, 50
7, 41615, Note_on_c, 5, 76, 0
7, 41637, Note_on_c, 5, 71, 0
7, 41640, Note_on_c, 5, 76, 50
7, 41670, Note_on_c, 5, 71, 50
7, 41675, Note_on_c, 5, 76, 0
7, 41696, Note_on_c, 5, 71, 0
7, 41700, Note_on_c, 5, 76, 50
7, 41730, Note_on_c, 5, 71, 50
7, 41734, Note_on_c, 5, 76, 0
7, 41757, Note_on_c, 5, 71, 0
7, 41760, Note_on_c, 5, 76, 50
7, 41790, Note_on_c, 5, 71, 50
7, 41794, Note_on_c, 5, 76, 0
7, 41816, Note_on_c, 5, 71, 0
7, 41820, Note_on_c, 5, 76, 50
7, 41850, Note_on_c, 5, 71, 50
7, 41854, Note_on_c, 5, 76, 0
7, 41874, Note_on_c, 5, 71, 0
7, 41880, Note_on_c, 5, 76, 50
7, 41910, Note_on_c, 5, 71, 50
7, 41915, Note_on_c, 5, 76, 0
7, 41936, Note_on_c, 5, 71, 0
7, 41940, Note_on_c, 5, 76, 50
7, 41962, Note_on_c, 5, 76, 0
7, 41970, Note_on_c, 5, 71, 50
7, 42089, Note_on_c, 5, 71, 0
7, 42089, End_track
8, 0, Start_track
8, 0, MIDI_port, 0
8, 0, Title_t, "Sweep"
8, 0, Control_c, 6, 0, 56
8, 0, Control_c, 6, 32, 0
8, 0, Program_c, 6, 95
8, 0, Control_c, 6, 7, 100
8, 0, Control_c, 6, 10, 64
8, 660, Control_c, 6, 7, 127
8, 660, Control_c, 6, 10, 64
8, 3649, Control_c, 6, 7, 124
8, 3654, Control_c, 6, 7, 117
8, 3660, Control_c, 6, 7, 116
8, 3665, Control_c, 6, 7, 113
8, 3665, Control_c, 6, 7, 114
8, 3695, Control_c, 6, 7, 114
8, 3702, Control_c, 6, 7, 115
8, 3707, Control_c, 6, 7, 117
8, 6525, Control_c, 6, 7, 114
8, 6534, Control_c, 6, 7, 113
8, 6540, Control_c, 6, 7, 112
8, 6545, Control_c, 6, 7, 110
8, 8484, Control_c, 6, 10, 72
8, 8490, Control_c, 6, 10, 73
8, 8495, Control_c, 6, 10, 75
8, 8505, Control_c, 6, 10, 78
8, 8510, Control_c, 6, 10, 84
8, 8510, Control_c, 6, 10, 80
8, 8515, Control_c, 6, 10, 89
8, 8573, Control_c, 6, 10, 84
8, 8573, Control_c, 6, 10, 86
8, 8585, Control_c, 6, 10, 82
8, 12480, Note_on_c, 6, 69, 45
8, 12960, Note_on_c, 6, 69, 0
8, 12960, Note_on_c, 6, 68, 45
8, 13440, Note_on_c, 6, 69, 45
8, 13442, Note_on_c, 6, 68, 0
8, 13680, Note_on_c, 6, 71, 45
8, 13685, Note_on_c, 6, 69, 0
8, 13920, Note_on_c, 6, 76, 45
8, 13929, Note_on_c, 6, 71, 0
8, 14130, Note_on_c, 6, 75, 45
8, 14141, Note_on_c, 6, 76, 0
8, 14261, Note_on_c, 6, 75, 0
8, 14280, Note_on_c, 6, 78, 45
8, 14400, Note_on_c, 6, 78, 0
8, 14400, Note_on_c, 6, 69, 45
8, 14880, Note_on_c, 6, 68, 45
8, 14895, Note_on_c, 6, 69, 0
8, 15360, Note_on_c, 6, 69, 45
8, 15360, Note_on_c, 6, 71, 45
8, 15365, Note_on_c, 6, 68, 0
8, 15399, Note_on_c, 6, 71, 0
8, 15598, Note_on_c, 6, 69, 0
8, 15600, Note_on_c, 6, 71, 45
8, 15840, Note_on_c, 6, 76, 45
8, 15860, Note_on_c, 6, 71, 0
8, 16050, Note_on_c, 6, 75, 45
8, 16073, Note_on_c, 6, 76, 0
8, 16195, Note_on_c, 6, 75, 0
8, 16200, Note_on_c, 6, 78, 45
8, 16280, Control_c, 6, 93, 72
8, 16300, Control_c, 6, 93, 81
8, 16300, Control_c, 6, 93, 78
8, 16304, Control_c, 6, 93, 84
8, 16309, Control_c, 6, 93, 95
8, 16314, Control_c, 6, 93, 97
8, 16320, Note_on_c, 6, 57, 45
8, 16320, Note_on_c, 6, 69, 45
8, 16331, Control_c, 6, 93, 101
8, 16339, Note_on_c, 6, 78, 0
8, 16352, Control_c, 6, 93, 105
8, 16438, Control_c, 6, 93, 101
8, 16450, Control_c, 6, 93, 97
8, 16455, Control_c, 6, 93, 93
8, 16460, Control_c, 6, 93, 89
8, 16793, Note_on_c, 6, 69, 0
8, 16799, Note_on_c, 6, 57, 0
8, 16800, Note_on_c, 6, 55, 45
8, 16800, Note_on_c, 6, 67, 45
8, 17629, Note_on_c, 6, 55, 0
8, 17647, Note_on_c, 6, 67, 0
8, 18240, Note_on_c, 6, 74, 45
8, 18473, Note_on_c, 6, 74, 0
8, 18480, Note_on_c, 6, 76, 45
8, 18720, Note_on_c, 6, 81, 45
8, 19165, Note_on_c, 6, 81, 0
8, 19199, Note_on_c, 6, 76, 0
8, 19200, Note_on_c, 6, 74, 45
8, 19412, Note_on_c, 6, 74, 0
8, 19440, Note_on_c, 6, 76, 45
8, 19655, Note_on_c, 6, 76, 0
8, 19680, Note_on_c, 6, 76, 45
8, 19770, Note_on_c, 6, 77, 45
8, 19791, Note_on_c, 6, 76, 0
8, 19870, Note_on_c, 6, 77, 0
8, 19890, Note_on_c, 6, 78, 45
8, 20139, Note_on_c, 6, 78, 0
8, 20160, Note_on_c, 6, 74, 45
8, 20395, Note_on_c, 6, 74, 0
8, 20400, Note_on_c, 6, 76, 45
8, 20610, Note_on_c, 6, 81, 45
8, 21058, Note_on_c, 6, 81, 0
8, 21101, Note_on_c, 6, 76, 0
8, 21120, Note_on_c, 6, 74, 45
8, 21354, Note_on_c, 6, 74, 0
8, 21360, Note_on_c, 6, 76, 45
8, 21594, Note_on_c, 6, 76, 0
8, 21600, Note_on_c, 6, 72, 45
8, 21690, Note_on_c, 6, 71, 45
8, 21724, Note_on_c, 6, 72, 0
8, 21779, Note_on_c, 6, 71, 0
8, 21780, Note_on_c, 6, 69, 45
8, 21960, Note_on_c, 6, 69, 0
8, 22080, Note_on_c, 6, 69, 45
8, 22560, Note_on_c, 6, 68, 45
8, 22561, Note_on_c, 6, 69, 0
8, 23040, Note_on_c, 6, 69, 45
8, 23041, Note_on_c, 6, 68, 0
8, 23280, Note_on_c, 6, 71, 45
8, 23282, Note_on_c, 6, 69, 0
8, 23520, Note_on_c, 6, 76, 45
8, 23529, Note_on_c, 6, 71, 0
8, 23759, Note_on_c, 6, 76, 0
8, 23760, Note_on_c, 6, 75, 45
8, 23850, Note_on_c, 6, 78, 45
8, 23885, Note_on_c, 6, 75, 0
8, 23976, Note_on_c, 6, 78, 0
8, 24000, Note_on_c, 6, 69, 45
8, 24480, Note_on_c, 6, 68, 45
8, 24491, Note_on_c, 6, 69, 0
8, 24960, Note_on_c, 6, 69, 45
8, 24961, Note_on_c, 6, 68, 0
8, 25200, Note_on_c, 6, 71, 45
8, 25206, Note_on_c, 6, 69, 0
8, 25440, Note_on_c, 6, 68, 45
8, 25453, Note_on_c, 6, 71, 0
8, 26340, Note_on_c, 6, 68, 0
8, 30480, Note_on_c, 6, 74, 45
8, 30713, Note_on_c, 6, 74, 0
8, 30720, Note_on_c, 6, 76, 45
8, 30960, Note_on_c, 6, 81, 45
8, 31405, Note_on_c, 6, 81, 0
8, 31439, Note_on_c, 6, 76, 0
8, 31440, Note_on_c, 6, 74, 45
8, 31652, Note_on_c, 6, 74, 0
8, 31680, Note_on_c, 6, 76, 45
8, 31895, Note_on_c, 6, 76, 0
8, 31920, Note_on_c, 6, 76, 45
8, 32010, Note_on_c, 6, 77, 45
8, 32031, Note_on_c, 6, 76, 0
8, 32110, Note_on_c, 6, 77, 0
8, 32130, Note_on_c, 6, 78, 45
8, 32379, Note_on_c, 6, 78, 0
8, 34320, Note_on_c, 6, 69, 45
8, 34800, Note_on_c, 6, 69, 0
8, 34800, Note_on_c, 6, 68, 45
8, 35280, Note_on_c, 6, 69, 45
8, 35282, Note_on_c, 6, 68, 0
8, 35520, Note_on_c, 6, 71, 45
8, 35525, Note_on_c, 6, 69, 0
8, 35760, Note_on_c, 6, 76, 45
8, 35769, Note_on_c, 6, 71, 0
8, 35970, Note_on_c, 6, 75, 45
8, 35981, Note_on_c, 6, 76, 0
8, 36101, Note_on_c, 6, 75, 0
8, 36120, Note_on_c, 6, 78, 45
8, 36240, Note_on_c, 6, 78, 0
8, 36240, Note_on_c, 6, 69, 45
8, 36720, Note_on_c, 6, 68, 45
8, 36735, Note_on_c, 6, 69, 0
8, 37200, Note_on_c, 6, 69, 45
8, 37200, Note_on_c, 6, 71, 45
8, 37205, Note_on_c, 6, 68, 0
8, 37239, Note_on_c, 6, 71, 0
8, 37438, Note_on_c, 6, 69, 0
8, 37440, Note_on_c, 6, 71, 45
8, 37680, Note_on_c, 6, 76, 45
8, 37700, Note_on_c, 6, 71, 0
8, 37890, Note_on_c, 6, 75, 45
8, 37913, Note_on_c, 6, 76, 0
8, 38035, Note_on_c, 6, 75, 0
8, 38040, Note_on_c, 6, 78, 45
8, 38160, Note_on_c, 6, 69, 45
8, 38179, Note_on_c, 6, 78, 0
8, 38640, Note_on_c, 6, 69, 0
8, 38640, Note_on_c, 6, 68, 45
8, 39120, Note_on_c, 6, 69, 45
8, 39122, Note_on_c, 6, 68, 0
8, 39360, Note_on_c, 6, 71, 45
8, 39365, Note_on_c, 6, 69, 0
8, 39600, Note_on_c, 6, 76, 45
8, 39609, Note_on_c, 6, 71, 0
8, 39810, Note_on_c, 6, 75, 45
8, 39821, Note_on_c, 6, 76, 0
8, 39941, Note_on_c, 6, 75, 0
8, 39960, Note_on_c, 6, 78, 45
8, 40080, Note_on_c, 6, 78, 0
8, 40080, Note_on_c, 6, 69, 45
8, 40560, Note_on_c, 6, 68, 45
8, 40575, Note_on_c, 6, 69, 0
8, 41040, Note_on_c, 6, 69, 45
8, 41040, Note_on_c, 6, 71, 45
8, 41045, Note_on_c, 6, 68, 0
8, 41079, Note_on_c, 6, 71, 0
8, 41278, Note_on_c, 6, 69, 0
8, 41280, Note_on_c, 6, 71, 45
8, 41520, Note_on_c, 6, 76, 45
8, 41540, Note_on_c, 6, 71, 0
8, 41730, Note_on_c, 6, 75, 45
8, 41753, Note_on_c, 6, 76, 0
8, 41875, Note_on_c, 6, 75, 0
8, 41880, Note_on_c, 6, 78, 45
8, 42000, Note_on_c, 6, 74, 45
8, 42019, Note_on_c, 6, 78, 0
8, 42240, Note_on_c, 6, 76, 45
8, 42400, Note_on_c, 6, 74, 0
8, 42480, Note_on_c, 6, 81, 45
8, 42925, Note_on_c, 6, 81, 0
8, 42959, Note_on_c, 6, 76, 0
8, 42960, Note_on_c, 6, 74, 45
8, 43005, Control_c, 6, 10, 63
8, 43034, Control_c, 6, 10, 66
8, 43040, Control_c, 6, 10, 69
8, 43045, Control_c, 6, 10, 70
8, 43050, Control_c, 6, 10, 73
8, 43055, Control_c, 6, 10, 75
8, 43061, Control_c, 6, 10, 82
8, 43064, Control_c, 6, 10, 84
8, 43080, Control_c, 6, 10, 86
8, 43095, Control_c, 6, 10, 89
8, 43100, Control_c, 6, 10, 90
8, 43145, Control_c, 6, 10, 96
8, 43145, Control_c, 6, 10, 93
8, 43150, Control_c, 6, 10, 99
8, 43172, Note_on_c, 6, 74, 0
8, 43200, Note_on_c, 6, 76, 45
8, 43415, Note_on_c, 6, 76, 0
8, 43440, Note_on_c, 6, 76, 45
8, 43445, Control_c, 6, 10, 91
8, 43471, Control_c, 6, 10, 89
8, 43476, Control_c, 6, 10, 86
8, 43481, Control_c, 6, 10, 84
8, 43520, Control_c, 6, 10, 82
8, 43530, Note_on_c, 6, 77, 45
8, 43551, Note_on_c, 6, 76, 0
8, 43617, Control_c, 6, 10, 84
8, 43630, Note_on_c, 6, 77, 0
8, 43650, Note_on_c, 6, 78, 45
8, 43899, Note_on_c, 6, 78, 0
8, 43920, Note_on_c, 6, 74, 45
8, 44155, Note_on_c, 6, 74, 0
8, 44160, Note_on_c, 6, 76, 45
8, 44370, Note_on_c, 6, 81, 45
8, 44567, Note_on_c, 6, 76, 0
8, 44818, Note_on_c, 6, 81, 0
8, 44880, Note_on_c, 6, 74, 45
8, 45114, Note_on_c, 6, 74, 0
8, 45120, Note_on_c, 6, 76, 45
8, 45354, Note_on_c, 6, 76, 0
8, 45840, Note_on_c, 6, 74, 45
8, 46073, Note_on_c, 6, 74, 0
8, 46080, Note_on_c, 6, 76, 45
8, 46320, Note_on_c, 6, 81, 45
8, 46468, Note_on_c, 6, 76, 0
8, 46765, Note_on_c, 6, 81, 0
8, 46800, Note_on_c, 6, 74, 45
8, 47012, Note_on_c, 6, 74, 0
8, 47040, Note_on_c, 6, 76, 45
8, 47255, Note_on_c, 6, 76, 0
8, 47280, Note_on_c, 6, 76, 45
8, 47370, Note_on_c, 6, 77, 45
8, 47391, Note_on_c, 6, 76, 0
8, 47470, Note_on_c, 6, 77, 0
8, 47490, Note_on_c, 6, 78, 45
8, 47739, Note_on_c, 6, 78, 0
8, 47760, Note_on_c, 6, 74, 45
8, 47995, Note_on_c, 6, 74, 0
8, 48000, Note_on_c, 6, 76, 45
8, 48210, Note_on_c, 6, 81, 45
8, 48401, Note_on_c, 6, 76, 0
8, 48658, Note_on_c, 6, 81, 0
8, 48720, Note_on_c, 6, 74, 45
8, 48954, Note_on_c, 6, 74, 0
8, 48960, Note_on_c, 6, 76, 45
8, 49194, Note_on_c, 6, 76, 0
8, 49194, End_track
9, 0, Start_track
9, 0, MIDI_port, 0
9, 0, Title_t, "Choir"
9, 0, Control_c, 7, 0, 56
9, 0, Control_c, 7, 32, 0
9, 0, Program_c, 7, 52
9, 0, Control_c, 7, 7, 94
9, 0, Control_c, 7, 10, 64
9, 660, Control_c, 7, 7, 127
9, 660, Control_c, 7, 10, 64
9, 3815, Control_c, 7, 7, 126
9, 3821, Control_c, 7, 7, 124
9, 3922, Control_c, 7, 7, 117
9, 3946, Control_c, 7, 7, 116
9, 7723, Control_c, 7, 10, 72
9, 7758, Control_c, 7, 10, 73
9, 7770, Control_c, 7, 10, 74
9, 7782, Control_c, 7, 10, 75
9, 7786, Control_c, 7, 10, 78
9, 7791, Control_c, 7, 10, 81
9, 7805, Control_c, 7, 10, 84
9, 7810, Control_c, 7, 10, 87
9, 7814, Control_c, 7, 10, 93
9, 7814, Control_c, 7, 10, 91
9, 7820, Control_c, 7, 10, 97
9, 7870, Control_c, 7, 10, 89
9, 7870, Control_c, 7, 10, 93
9, 7880, Control_c, 7, 10, 87
9, 7885, Control_c, 7, 10, 84
9, 7940, Control_c, 7, 10, 81
9, 8785, Control_c, 7, 10, 60
9, 8825, Control_c, 7, 10, 58
9, 8830, Control_c, 7, 10, 55
9, 8835, Control_c, 7, 10, 52
9, 8842, Control_c, 7, 10, 51
9, 8846, Control_c, 7, 10, 48
9, 8855, Control_c, 7, 10, 44
9, 8855, Control_c, 7, 10, 46
9, 8860, Control_c, 7, 10, 38
9, 8955, Control_c, 7, 10, 37
9, 8960, Control_c, 7, 10, 34
9, 8964, Control_c, 7, 10, 36
9, 8970, Control_c, 7, 10, 33
9, 8990, Control_c, 7, 10, 32
9, 9180, Control_c, 7, 10, 35
9, 9190, Control_c, 7, 10, 37
9, 9204, Control_c, 7, 10, 40
9, 9210, Control_c, 7, 10, 42
9, 12480, Note_on_c, 7, 69, 63
9, 12960, Note_on_c, 7, 68, 57
9, 12978, Note_on_c, 7, 69, 0
9, 13440, Note_on_c, 7, 69, 60
9, 13441, Note_on_c, 7, 68, 0
9, 13680, Note_on_c, 7, 71, 57
9, 13683, Note_on_c, 7, 69, 0
9, 13919, Note_on_c, 7, 71, 0
9, 13920, Note_on_c, 7, 88, 60
9, 14130, Note_on_c, 7, 87, 53
9, 14153, Note_on_c, 7, 88, 0
9, 14269, Note_on_c, 7, 87, 0
9, 14280, Note_on_c, 7, 90, 59
9, 14370, Note_on_c, 7, 69, 46
9, 14395, Note_on_c, 7, 90, 0
9, 14850, Note_on_c, 7, 68, 54
9, 14857, Note_on_c, 7, 69, 0
9, 15346, Note_on_c, 7, 68, 0
9, 15360, Note_on_c, 7, 69, 65
9, 15600, Note_on_c, 7, 71, 53
9, 15609, Note_on_c, 7, 69, 0
9, 15840, Note_on_c, 7, 88, 54
9, 15841, Note_on_c, 7, 71, 0
9, 16050, Note_on_c, 7, 87, 52
9, 16065, Note_on_c, 7, 88, 0
9, 16195, Note_on_c, 7, 87, 0
9, 16200, Note_on_c, 7, 90, 55
9, 16320, Note_on_c, 7, 69, 45
9, 16321, Note_on_c, 7, 90, 0
9, 16748, Note_on_c, 7, 69, 0
9, 22080, Note_on_c, 7, 69, 54
9, 22560, Note_on_c, 7, 68, 55
9, 22561, Note_on_c, 7, 69, 0
9, 23039, Note_on_c, 7, 68, 0
9, 23040, Note_on_c, 7, 69, 54
9, 23280, Note_on_c, 7, 71, 59
9, 23286, Note_on_c, 7, 69, 0
9, 23520, Note_on_c, 7, 76, 56
9, 23526, Note_on_c, 7, 71, 0
9, 23759, Note_on_c, 7, 76, 0
9, 23760, Note_on_c, 7, 75, 54
9, 23880, Note_on_c, 7, 78, 59
9, 23886, Note_on_c, 7, 75, 0
9, 23970, Note_on_c, 7, 69, 55
9, 23999, Note_on_c, 7, 78, 0
9, 24461, Note_on_c, 7, 69, 0
9, 24480, Note_on_c, 7, 68, 55
9, 24960, Note_on_c, 7, 69, 55
9, 24963, Note_on_c, 7, 68, 0
9, 25200, Note_on_c, 7, 71, 53
9, 25209, Note_on_c, 7, 69, 0
9, 25440, Note_on_c, 7, 68, 44
9, 25443, Note_on_c, 7, 71, 0
9, 26608, Note_on_c, 7, 68, 0
9, 29928, Control_c, 7, 93, 56
9, 29933, Control_c, 7, 93, 60
9, 29945, Control_c, 7, 93, 59
9, 29950, Control_c, 7, 93, 63
9, 29955, Control_c, 7, 93, 67
9, 29960, Control_c, 7, 93, 72
9, 29961, Control_c, 7, 93, 75
9, 29967, Control_c, 7, 93, 78
9, 29975, Control_c, 7, 93, 81
9, 29980, Control_c, 7, 93, 84
9, 29983, Control_c, 7, 93, 87
9, 29993, Control_c, 7, 93, 89
9, 34320, Note_on_c, 7, 69, 63
9, 34800, Note_on_c, 7, 68, 57
9, 34818, Note_on_c, 7, 69, 0
9, 35280, Note_on_c, 7, 69, 60
9, 35281, Note_on_c, 7, 68, 0
9, 35520, Note_on_c, 7, 71, 57
9, 35523, Note_on_c, 7, 69, 0
9, 35759, Note_on_c, 7, 71, 0
9, 35760, Note_on_c, 7, 88, 60
9, 35970, Note_on_c, 7, 87, 53
9, 35993, Note_on_c, 7, 88, 0
9, 36109, Note_on_c, 7, 87, 0
9, 36120, Note_on_c, 7, 90, 59
9, 36210, Note_on_c, 7, 69, 46
9, 36235, Note_on_c, 7, 90, 0
9, 36690, Note_on_c, 7, 68, 54
9, 36697, Note_on_c, 7, 69, 0
9, 37186, Note_on_c, 7, 68, 0
9, 37200, Note_on_c, 7, 69, 65
9, 37440, Note_on_c, 7, 71, 53
9, 37449, Note_on_c, 7, 69, 0
9, 37680, Note_on_c, 7, 88, 54
9, 37681, Note_on_c, 7, 71, 0
9, 37890, Note_on_c, 7, 87, 52
9, 37905, Note_on_c, 7, 88, 0
9, 38035, Note_on_c, 7, 87, 0
9, 38040, Note_on_c, 7, 90, 55
9, 38160, Note_on_c, 7, 69, 63
9, 38161, Note_on_c, 7, 90, 0
9, 38640, Note_on_c, 7, 68, 57
9, 38658, Note_on_c, 7, 69, 0
9, 39120, Note_on_c, 7, 69, 60
9, 39121, Note_on_c, 7, 68, 0
9, 39360, Note_on_c, 7, 71, 57
9, 39363, Note_on_c, 7, 69, 0
9, 39599, Note_on_c, 7, 71, 0
9, 39600, Note_on_c, 7, 88, 60
9, 39810, Note_on_c, 7, 87, 53
9, 39833, Note_on_c, 7, 88, 0
9, 39949, Note_on_c, 7, 87, 0
9, 39960, Note_on_c, 7, 90, 59
9, 40050, Note_on_c, 7, 69, 46
9, 40075, Note_on_c, 7, 90, 0
9, 40530, Note_on_c, 7, 68, 54
9, 40537, Note_on_c, 7, 69, 0
9, 41026, Note_on_c, 7, 68, 0
9, 41040, Note_on_c, 7, 69, 65
9, 41280, Note_on_c, 7, 71, 53
9, 41289, Note_on_c, 7, 69, 0
9, 41520, Note_on_c, 7, 88, 54
9, 41521, Note_on_c, 7, 71, 0
9, 41730, Note_on_c, 7, 87, 52
9, 41745, Note_on_c, 7, 88, 0
9, 41875, Note_on_c, 7, 87, 0
9, 41880, Note_on_c, 7, 90, 55
9, 42001, Note_on_c, 7, 90, 0
9, 43938, Control_c, 7, 10, 42
9, 43985, Control_c, 7, 10, 44
9, 43996, Control_c, 7, 10, 46
9, 43996, End_track
10, 0, Start_track
10, 0, MIDI_port, 0
10, 0, Title_t, "Doo Voice"
10, 0, Control_c, 8, 0, 56
10, 0, Control_c, 8, 32, 0
10, 0, Program_c, 8, 53
10, 0, Control_c, 8, 7, 99
10, 0, Control_c, 8, 10, 64
10, 660, Control_c, 8, 7, 127
10, 660, Control_c, 8, 10, 64
10, 2880, Note_on_c, 8, 69, 45
10, 2906, Note_on_c, 8, 69, 0
10, 2940, Note_on_c, 8, 69, 45
10, 3000, Note_on_c, 8, 69, 0
10, 3030, Note_on_c, 8, 72, 45
10, 3080, Note_on_c, 8, 72, 0
10, 3090, Note_on_c, 8, 71, 45
10, 3200, Note_on_c, 8, 71, 0
10, 3210, Note_on_c, 8, 67, 45
10, 3313, Note_on_c, 8, 67, 0
10, 3360, Note_on_c, 8, 67, 45
10, 3599, Note_on_c, 8, 67, 0
10, 3600, Note_on_c, 8, 69, 45
10, 3815, Note_on_c, 8, 69, 0
10, 3840, Note_on_c, 8, 69, 45
10, 3859, Note_on_c, 8, 69, 0
10, 3900, Note_on_c, 8, 69, 45
10, 3936, Note_on_c, 8, 69, 0
10, 3960, Note_on_c, 8, 69, 45
10, 3999, Note_on_c, 8, 69, 0
10, 4020, Note_on_c, 8, 72, 45
10, 4050, Control_c, 8, 7, 126
10, 4055, Control_c, 8, 7, 120
10, 4060, Control_c, 8, 7, 114
10, 4067, Note_on_c, 8, 72, 0
10, 4080, Note_on_c, 8, 71, 45
10, 4170, Note_on_c, 8, 71, 0
10, 4170, Note_on_c, 8, 67, 45
10, 4283, Note_on_c, 8, 67, 0
10, 4320, Note_on_c, 8, 65, 45
10, 4415, Note_on_c, 8, 65, 0
10, 4440, Note_on_c, 8, 64, 45
10, 4529, Note_on_c, 8, 64, 0
10, 4530, Note_on_c, 8, 62, 45
10, 4627, Note_on_c, 8, 62, 0
10, 8040, Control_c, 8, 10, 60
10, 8045, Control_c, 8, 10, 57
10, 8060, Control_c, 8, 10, 56
10, 8063, Control_c, 8, 10, 53
10, 8068, Control_c, 8, 10, 48
10, 8073, Control_c, 8, 10, 46
10, 8100, Control_c, 8, 10, 44
10, 8640, Note_on_c, 8, 69, 30
10, 8666, Note_on_c, 8, 69, 0
10, 8700, Note_on_c, 8, 81, 30
10, 8700, Note_on_c, 8, 69, 30
10, 8733, Note_on_c, 8, 81, 0
10, 8760, Note_on_c, 8, 69, 0
10, 8760, Note_on_c, 8, 81, 30
10, 8788, Note_on_c, 8, 81, 0
10, 8790, Note_on_c, 8, 84, 30
10, 8790, Note_on_c, 8, 72, 30
10, 8840, Note_on_c, 8, 72, 0
10, 8842, Note_on_c, 8, 84, 0
10, 8850, Note_on_c, 8, 71, 30
10, 8880, Note_on_c, 8, 83, 30
10, 8960, Note_on_c, 8, 71, 0
10, 8964, Note_on_c, 8, 83, 0
10, 8970, Note_on_c, 8, 79, 30
10, 8970, Note_on_c, 8, 67, 30
10, 9064, Note_on_c, 8, 79, 0
10, 9073, Note_on_c, 8, 67, 0
10, 9120, Note_on_c, 8, 79, 30
10, 9120, Note_on_c, 8, 67, 30
10, 9351, Note_on_c, 8, 79, 0
10, 9359, Note_on_c, 8, 67, 0
10, 9360, Note_on_c, 8, 81, 30
10, 9360, Note_on_c, 8, 69, 30
10, 9370, Control_c, 8, 10, 58
10, 9385, Control_c, 8, 10, 66
10, 9385, Control_c, 8, 10, 63
10, 9390, Control_c, 8, 10, 68
10, 9395, Control_c, 8, 10, 69
10, 9410, Control_c, 8, 10, 70
10, 9415, Control_c, 8, 10, 73
10, 9455, Control_c, 8, 10, 75
10, 9467, Control_c, 8, 10, 78
10, 9472, Control_c, 8, 10, 82
10, 9472, Control_c, 8, 10, 80
10, 9480, Control_c, 8, 10, 84
10, 9490, Control_c, 8, 10, 87
10, 9575, Note_on_c, 8, 69, 0
10, 9578, Note_on_c, 8, 81, 0
10, 9600, Note_on_c, 8, 69, 30
10, 9619, Note_on_c, 8, 69, 0
10, 9660, Note_on_c, 8, 81, 30
10, 9660, Note_on_c, 8, 69, 30
10, 9687, Note_on_c, 8, 81, 0
10, 9696, Note_on_c, 8, 69, 0
10, 9720, Note_on_c, 8, 81, 30
10, 9720, Note_on_c, 8, 69, 30
10, 9755, Note_on_c, 8, 81, 0
10, 9759, Note_on_c, 8, 69, 0
10, 9780, Note_on_c, 8, 84, 30
10, 9780, Note_on_c, 8, 72, 30
10, 9820, Note_on_c, 8, 84, 0
10, 9827, Note_on_c, 8, 72, 0
10, 9840, Note_on_c, 8, 83, 30
10, 9840, Note_on_c, 8, 71, 30
10, 9930, Note_on_c, 8, 71, 0
10, 9930, Note_on_c, 8, 67, 30
10, 9942, Note_on_c, 8, 83, 0
10, 9960, Note_on_c, 8, 79, 30
10, 10043, Note_on_c, 8, 67, 0
10, 10080, Note_on_c, 8, 77, 30
10, 10080, Note_on_c, 8, 65, 30
10, 10096, Note_on_c, 8, 79, 0
10, 10175, Note_on_c, 8, 65, 0
10, 10190, Note_on_c, 8, 77, 0
10, 10200, Note_on_c, 8, 76, 30
10, 10200, Note_on_c, 8, 64, 30
10, 10289, Note_on_c, 8, 64, 0
10, 10290, Note_on_c, 8, 74, 30
10, 10290, Note_on_c, 8, 62, 30
10, 10301, Note_on_c, 8, 76, 0
10, 10387, Note_on_c, 8, 62, 0
10, 10424, Note_on_c, 8, 74, 0
10, 10560, Note_on_c, 8, 81, 30
10, 10560, Note_on_c, 8, 69, 30
10, 10581, Note_on_c, 8, 81, 0
10, 10586, Note_on_c, 8, 69, 0
10, 10620, Note_on_c, 8, 81, 30
10, 10620, Note_on_c, 8, 69, 30
10, 10653, Note_on_c, 8, 81, 0
10, 10680, Note_on_c, 8, 69, 0
10, 10680, Note_on_c, 8, 81, 30
10, 10708, Note_on_c, 8, 81, 0
10, 10710, Note_on_c, 8, 84, 30
10, 10710, Note_on_c, 8, 72, 30
10, 10760, Note_on_c, 8, 72, 0
10, 10762, Note_on_c, 8, 84, 0
10, 10770, Note_on_c, 8, 71, 30
10, 10800, Note_on_c, 8, 83, 30
10, 10880, Note_on_c, 8, 71, 0
10, 10884, Note_on_c, 8, 83, 0
10, 10890, Note_on_c, 8, 79, 30
10, 10890, Note_on_c, 8, 67, 30
10, 10984, Note_on_c, 8, 79, 0
10, 10993, Note_on_c, 8, 67, 0
10, 11040, Note_on_c, 8, 79, 30
10, 11040, Note_on_c, 8, 67, 30
10, 11271, Note_on_c, 8, 79, 0
10, 11279, Note_on_c, 8, 67, 0
10, 11280, Note_on_c, 8, 81, 30
10, 11280, Note_on_c, 8, 69, 30
10, 11495, Note_on_c, 8, 69, 0
10, 11498, Note_on_c, 8, 81, 0
10, 11520, Note_on_c, 8, 69, 30
10, 11539, Note_on_c, 8, 69, 0
10, 11580, Note_on_c, 8, 81, 30
10, 11580, Note_on_c, 8, 69, 30
10, 11607, Note_on_c, 8, 81, 0
10, 11616, Note_on_c, 8, 69, 0
10, 11640, Note_on_c, 8, 81, 30
10, 11640, Note_on_c, 8, 69, 30
10, 11675, Note_on_c, 8, 81, 0
10, 11679, Note_on_c, 8, 69, 0
10, 11700, Note_on_c, 8, 84, 30
10, 11700, Note_on_c, 8, 72, 30
10, 11740, Note_on_c, 8, 84, 0
10, 11747, Note_on_c, 8, 72, 0
10, 11760, Note_on_c, 8, 83, 30
10, 11760, Note_on_c, 8, 71, 30
10, 11850, Note_on_c, 8, 71, 0
10, 11850, Note_on_c, 8, 67, 30
10, 11862, Note_on_c, 8, 83, 0
10, 11880, Note_on_c, 8, 79, 30
10, 11963, Note_on_c, 8, 67, 0
10, 12000, Note_on_c, 8, 77, 30
10, 12000, Note_on_c, 8, 65, 30
10, 12016, Note_on_c, 8, 79, 0
10, 12095, Note_on_c, 8, 65, 0
10, 12110, Note_on_c, 8, 77, 0
10, 12120, Note_on_c, 8, 76, 30
10, 12120, Note_on_c, 8, 64, 30
10, 12209, Note_on_c, 8, 64, 0
10, 12210, Note_on_c, 8, 74, 30
10, 12210, Note_on_c, 8, 62, 30
10, 12221, Note_on_c, 8, 76, 0
10, 12307, Note_on_c, 8, 62, 0
10, 12344, Note_on_c, 8, 74, 0
10, 32400, Note_on_c, 8, 81, 35
10, 32400, Note_on_c, 8, 69, 35
10, 32421, Note_on_c, 8, 81, 0
10, 32426, Note_on_c, 8, 69, 0
10, 32460, Note_on_c, 8, 81, 35
10, 32460, Note_on_c, 8, 69, 35
10, 32493, Note_on_c, 8, 81, 0
10, 32520, Note_on_c, 8, 69, 0
10, 32520, Note_on_c, 8, 81, 35
10, 32548, Note_on_c, 8, 81, 0
10, 32550, Note_on_c, 8, 84, 35
10, 32550, Note_on_c, 8, 72, 35
10, 32600, Note_on_c, 8, 72, 0
10, 32602, Note_on_c, 8, 84, 0
10, 32610, Note_on_c, 8, 71, 35
10, 32640, Note_on_c, 8, 83, 35
10, 32720, Note_on_c, 8, 71, 0
10, 32724, Note_on_c, 8, 83, 0
10, 32730, Note_on_c, 8, 79, 35
10, 32730, Note_on_c, 8, 67, 35
10, 32824, Note_on_c, 8, 79, 0
10, 32833, Note_on_c, 8, 67, 0
10, 32833, Control_c, 8, 93, 77
10, 32838, Control_c, 8, 93, 79
10, 32852, Control_c, 8, 93, 84
10, 32857, Control_c, 8, 93, 89
10, 32862, Control_c, 8, 93, 94
10, 32880, Note_on_c, 8, 79, 35
10, 32880, Note_on_c, 8, 67, 35
10, 33111, Note_on_c, 8, 79, 0
10, 33119, Note_on_c, 8, 67, 0
10, 33120, Note_on_c, 8, 81, 35
10, 33120, Note_on_c, 8, 69, 35
10, 33335, Note_on_c, 8, 69, 0
10, 33338, Note_on_c, 8, 81, 0
10, 33360, Note_on_c, 8, 69, 35
10, 33379, Note_on_c, 8, 69, 0
10, 33420, Note_on_c, 8, 81, 35
10, 33420, Note_on_c, 8, 69, 35
10, 33447, Note_on_c, 8, 81, 0
10, 33456, Note_on_c, 8, 69, 0
10, 33480, Note_on_c, 8, 81, 35
10, 33480, Note_on_c, 8, 69, 35
10, 33515, Note_on_c, 8, 81, 0
10, 33519, Note_on_c, 8, 69, 0
10, 33540, Note_on_c, 8, 84, 35
10, 33540, Note_on_c, 8, 72, 35
10, 33580, Note_on_c, 8, 84, 0
10, 33587, Note_on_c, 8, 72, 0
10, 33600, Note_on_c, 8, 83, 35
10, 33600, Note_on_c, 8, 71, 35
10, 33690, Note_on_c, 8, 71, 0
10, 33690, Note_on_c, 8, 67, 35
10, 33702, Note_on_c, 8, 83, 0
10, 33720, Note_on_c, 8, 79, 35
10, 33803, Note_on_c, 8, 67, 0
10, 33840, Note_on_c, 8, 77, 35
10, 33840, Note_on_c, 8, 65, 35
10, 33856, Note_on_c, 8, 79, 0
10, 33935, Note_on_c, 8, 65, 0
10, 33950, Note_on_c, 8, 77, 0
10, 33960, Note_on_c, 8, 76, 35
10, 33960, Note_on_c, 8, 64, 35
10, 34049, Note_on_c, 8, 64, 0
10, 34050, Note_on_c, 8, 74, 35
10, 34050, Note_on_c, 8, 62, 35
10, 34061, Note_on_c, 8, 76, 0
10, 34147, Note_on_c, 8, 62, 0
10, 34184, Note_on_c, 8, 74, 0
10, 43920, Note_on_c, 8, 81, 35
10, 43920, Note_on_c, 8, 81, 35
10, 43920, Note_on_c, 8, 69, 35
10, 43941, Note_on_c, 8, 81, 0
10, 43941, Note_on_c, 8, 81, 0
10, 43946, Note_on_c, 8, 69, 0
10, 43980, Note_on_c, 8, 81, 35
10, 43980, Note_on_c, 8, 81, 35
10, 43980, Note_on_c, 8, 69, 35
10, 44013, Note_on_c, 8, 81, 0
10, 44013, Note_on_c, 8, 81, 0
10, 44040, Note_on_c, 8, 69, 0
10, 44040, Note_on_c, 8, 81, 35
10, 44040, Note_on_c, 8, 81, 35
10, 44068, Note_on_c, 8, 81, 0
10, 44068, Note_on_c, 8, 81, 0
10, 44070, Note_on_c, 8, 84, 35
10, 44070, Note_on_c, 8, 84, 35
10, 44070, Note_on_c, 8, 72, 35
10, 44120, Note_on_c, 8, 72, 0
10, 44122, Note_on_c, 8, 84, 0
10, 44122, Note_on_c, 8, 84, 0
10, 44130, Note_on_c, 8, 71, 35
10, 44160, Note_on_c, 8, 83, 35
10, 44160, Note_on_c, 8, 83, 35
10, 44240, Note_on_c, 8, 71, 0
10, 44244, Note_on_c, 8, 83, 0
10, 44244, Note_on_c, 8, 83, 0
10, 44250, Note_on_c, 8, 79, 35
10, 44250, Note_on_c, 8, 79, 35
10, 44250, Note_on_c, 8, 67, 35
10, 44344, Note_on_c, 8, 79, 0
10, 44344, Note_on_c, 8, 79, 0
10, 44353, Note_on_c, 8, 67, 0
10, 44400, Note_on_c, 8, 79, 35
10, 44400, Note_on_c, 8, 79, 35
10, 44400, Note_on_c, 8, 67, 35
10, 44631, Note_on_c, 8, 79, 0
10, 44631, Note_on_c, 8, 79, 0
10, 44639, Note_on_c, 8, 67, 0
10, 44640, Note_on_c, 8, 81, 35
10, 44640, Note_on_c, 8, 81, 35
10, 44640, Note_on_c, 8, 69, 35
10, 44855, Note_on_c, 8, 69, 0
10, 44858, Note_on_c, 8, 81, 0
10, 44858, Note_on_c, 8, 81, 0
10, 44880, Note_on_c, 8, 69, 35
10, 44899, Note_on_c, 8, 69, 0
10, 44940, Note_on_c, 8, 81, 35
10, 44940, Note_on_c, 8, 81, 35
10, 44940, Note_on_c, 8, 69, 35
10, 44967, Note_on_c, 8, 81, 0
10, 44967, Note_on_c, 8, 81, 0
10, 44976, Note_on_c, 8, 69, 0
10, 45000, Note_on_c, 8, 81, 35
10, 45000, Note_on_c, 8, 81, 35
10, 45000, Note_on_c, 8, 69, 35
10, 45035, Note_on_c, 8, 81, 0
10, 45035, Note_on_c, 8, 81, 0
10, 45039, Note_on_c, 8, 69, 0
10, 45060, Note_on_c, 8, 84, 35
10, 45060, Note_on_c, 8, 84, 35
10, 45060, Note_on_c, 8, 72, 35
10, 45100, Note_on_c, 8, 84, 0
10, 45100, Note_on_c, 8, 84, 0
10, 45107, Note_on_c, 8, 72, 0
10, 45120, Note_on_c, 8, 83, 35
10, 45120, Note_on_c, 8, 83, 35
10, 45120, Note_on_c, 8, 71, 35
10, 45210, Note_on_c, 8, 71, 0
10, 45210, Note_on_c, 8, 67, 35
10, 45222, Note_on_c, 8, 83, 0
10, 45222, Note_on_c, 8, 83, 0
10, 45240, Note_on_c, 8, 79, 35
10, 45240, Note_on_c, 8, 79, 35
10, 45323, Note_on_c, 8, 67, 0
10, 45360, Note_on_c, 8, 77, 35
10, 45360, Note_on_c, 8, 77, 35
10, 45360, Note_on_c, 8, 65, 35
10, 45376, Note_on_c, 8, 79, 0
10, 45376, Note_on_c, 8, 79, 0
10, 45455, Note_on_c, 8, 65, 0
10, 45470, Note_on_c, 8, 77, 0
10, 45470, Note_on_c, 8, 77, 0
10, 45480, Note_on_c, 8, 76, 35
10, 45480, Note_on_c, 8, 76, 35
10, 45480, Note_on_c, 8, 64, 35
10, 45569, Note_on_c, 8, 64, 0
10, 45570, Note_on_c, 8, 74, 35
10, 45570, Note_on_c, 8, 74, 35
10, 45570, Note_on_c, 8, 62, 35
10, 45581, Note_on_c, 8, 76, 0
10, 45581, Note_on_c, 8, 76, 0
10, 45667, Note_on_c, 8, 62, 0
10, 45704, Note_on_c, 8, 74, 0
10, 45704, Note_on_c, 8, 74, 0
10, 45840, Note_on_c, 8, 81, 35
10, 45840, Note_on_c, 8, 81, 35
10, 45840, Note_on_c, 8, 69, 35
10, 45861, Note_on_c, 8, 81, 0
10, 45861, Note_on_c, 8, 81, 0
10, 45866, Note_on_c, 8, 69, 0
10, 45900, Note_on_c, 8, 81, 35
10, 45900, Note_on_c, 8, 81, 35
10, 45900, Note_on_c, 8, 69, 35
10, 45933, Note_on_c, 8, 81, 0
10, 45933, Note_on_c, 8, 81, 0
10, 45960, Note_on_c, 8, 69, 0
10, 45960, Note_on_c, 8, 81, 35
10, 45960, Note_on_c, 8, 81, 35
10, 45988, Note_on_c, 8, 81, 0
10, 45988, Note_on_c, 8, 81, 0
10, 45990, Note_on_c, 8, 84, 35
10, 45990, Note_on_c, 8, 84, 35
10, 45990, Note_on_c, 8, 72, 35
10, 46040, Note_on_c, 8, 72, 0
10, 46042, Note_on_c, 8, 84, 0
10, 46042, Note_on_c, 8, 84, 0
10, 46050, Note_on_c, 8, 71, 35
10, 46080, Note_on_c, 8, 83, 35
10, 46080, Note_on_c, 8, 83, 35
10, 46160, Note_on_c, 8, 71, 0
10, 46164, Note_on_c, 8, 83, 0
10, 46164, Note_on_c, 8, 83, 0
10, 46170, Note_on_c, 8, 79, 35
10, 46170, Note_on_c, 8, 79, 35
10, 46170, Note_on_c, 8, 67, 35
10, 46264, Note_on_c, 8, 79, 0
10, 46264, Note_on_c, 8, 79, 0
10, 46273, Note_on_c, 8, 67, 0
10, 46320, Note_on_c, 8, 79, 35
10, 46320, Note_on_c, 8, 79, 35
10, 46320, Note_on_c, 8, 67, 35
10, 46551, Note_on_c, 8, 79, 0
10, 46551, Note_on_c, 8, 79, 0
10, 46559, Note_on_c, 8, 67, 0
10, 46560, Note_on_c, 8, 81, 35
10, 46560, Note_on_c, 8, 81, 35
10, 46560, Note_on_c, 8, 69, 35
10, 46775, Note_on_c, 8, 69, 0
10, 46778, Note_on_c, 8, 81, 0
10, 46778, Note_on_c, 8, 81, 0
10, 46800, Note_on_c, 8, 69, 35
10, 46819, Note_on_c, 8, 69, 0
10, 46860, Note_on_c, 8, 81, 35
10, 46860, Note_on_c, 8, 81, 35
10, 46860, Note_on_c, 8, 69, 35
10, 46887, Note_on_c, 8, 81, 0
10, 46887, Note_on_c, 8, 81, 0
10, 46896, Note_on_c, 8, 69, 0
10, 46920, Note_on_c, 8, 81, 35
10, 46920, Note_on_c, 8, 81, 35
10, 46920, Note_on_c, 8, 69, 35
10, 46955, Note_on_c, 8, 81, 0
10, 46955, Note_on_c, 8, 81, 0
10, 46959, Note_on_c, 8, 69, 0
10, 46980, Note_on_c, 8, 84, 35
10, 46980, Note_on_c, 8, 84, 35
10, 46980, Note_on_c, 8, 72, 35
10, 47020, Note_on_c, 8, 84, 0
10, 47020, Note_on_c, 8, 84, 0
10, 47027, Note_on_c, 8, 72, 0
10, 47040, Note_on_c, 8, 83, 35
10, 47040, Note_on_c, 8, 83, 35
10, 47040, Note_on_c, 8, 71, 35
10, 47130, Note_on_c, 8, 71, 0
10, 47130, Note_on_c, 8, 67, 35
10, 47142, Note_on_c, 8, 83, 0
10, 47142, Note_on_c, 8, 83, 0
10, 47160, Note_on_c, 8, 79, 35
10, 47160, Note_on_c, 8, 79, 35
10, 47243, Note_on_c, 8, 67, 0
10, 47280, Note_on_c, 8, 77, 35
10, 47280, Note_on_c, 8, 77, 35
10, 47280, Note_on_c, 8, 65, 35
10, 47296, Note_on_c, 8, 79, 0
10, 47296, Note_on_c, 8, 79, 0
10, 47375, Note_on_c, 8, 65, 0
10, 47390, Note_on_c, 8, 77, 0
10, 47390, Note_on_c, 8, 77, 0
10, 47400, Note_on_c, 8, 76, 35
10, 47400, Note_on_c, 8, 76, 35
10, 47400, Note_on_c, 8, 64, 35
10, 47489, Note_on_c, 8, 64, 0
10, 47490, Note_on_c, 8, 74, 35
10, 47490, Note_on_c, 8, 74, 35
10, 47490, Note_on_c, 8, 62, 35
10, 47501, Note_on_c, 8, 76, 0
10, 47501, Note_on_c, 8, 76, 0
10, 47587, Note_on_c, 8, 62, 0
10, 47624, Note_on_c, 8, 74, 0
10, 47624, Note_on_c, 8, 74, 0
10, 47760, Note_on_c, 8, 81, 35
10, 47760, Note_on_c, 8, 81, 35
10, 47760, Note_on_c, 8, 69, 35
10, 47781, Note_on_c, 8, 81, 0
10, 47781, Note_on_c, 8, 81, 0
10, 47786, Note_on_c, 8, 69, 0
10, 47820, Note_on_c, 8, 81, 35
10, 47820, Note_on_c, 8, 81, 35
10, 47820, Note_on_c, 8, 69, 35
10, 47853, Note_on_c, 8, 81, 0
10, 47853, Note_on_c, 8, 81, 0
10, 47880, Note_on_c, 8, 69, 0
10, 47880, Note_on_c, 8, 81, 35
10, 47880, Note_on_c, 8, 81, 35
10, 47908, Note_on_c, 8, 81, 0
10, 47908, Note_on_c, 8, 81, 0
10, 47910, Note_on_c, 8, 84, 35
10, 47910, Note_on_c, 8, 84, 35
10, 47910, Note_on_c, 8, 72, 35
10, 47960, Note_on_c, 8, 72, 0
10, 47962, Note_on_c, 8, 84, 0
10, 47962, Note_on_c, 8, 84, 0
10, 47970, Note_on_c, 8, 71, 35
10, 48000, Note_on_c, 8, 83, 35
10, 48000, Note_on_c, 8, 83, 35
10, 48080, Note_on_c, 8, 71, 0
10, 48084, Note_on_c, 8, 83, 0
10, 48084, Note_on_c, 8, 83, 0
10, 48090, Note_on_c, 8, 79, 35
10, 48090, Note_on_c, 8, 79, 35
10, 48090, Note_on_c, 8, 67, 35
10, 48184, Note_on_c, 8, 79, 0
10, 48184, Note_on_c, 8, 79, 0
10, 48193, Note_on_c, 8, 67, 0
10, 48240, Note_on_c, 8, 79, 35
10, 48240, Note_on_c, 8, 79, 35
10, 48240, Note_on_c, 8, 67, 35
10, 48471, Note_on_c, 8, 79, 0
10, 48471, Note_on_c, 8, 79, 0
10, 48479, Note_on_c, 8, 67, 0
10, 48480, Note_on_c, 8, 81, 35
10, 48480, Note_on_c, 8, 81, 35
10, 48480, Note_on_c, 8, 69, 35
10, 48695, Note_on_c, 8, 69, 0
10, 48698, Note_on_c, 8, 81, 0
10, 48698, Note_on_c, 8, 81, 0
10, 48720, Note_on_c, 8, 69, 35
10, 48739, Note_on_c, 8, 69, 0
10, 48780, Note_on_c, 8, 81, 35
10, 48780, Note_on_c, 8, 81, 35
10, 48780, Note_on_c, 8, 69, 35
10, 48807, Note_on_c, 8, 81, 0
10, 48807, Note_on_c, 8, 81, 0
10, 48816, Note_on_c, 8, 69, 0
10, 48840, Note_on_c, 8, 81, 35
10, 48840, Note_on_c, 8, 81, 35
10, 48840, Note_on_c, 8, 69, 35
10, 48875, Note_on_c, 8, 81, 0
10, 48875, Note_on_c, 8, 81, 0
10, 48879, Note_on_c, 8, 69, 0
10, 48900, Note_on_c, 8, 84, 35
10, 48900, Note_on_c, 8, 84, 35
10, 48900, Note_on_c, 8, 72, 35
10, 48940, Note_on_c, 8, 84, 0
10, 48940, Note_on_c, 8, 84, 0
10, 48947, Note_on_c, 8, 72, 0
10, 48960, Note_on_c, 8, 83, 35
10, 48960, Note_on_c, 8, 83, 35
10, 48960, Note_on_c, 8, 71, 35
10, 49050, Note_on_c, 8, 71, 0
10, 49050, Note_on_c, 8, 67, 35
10, 49062, Note_on_c, 8, 83, 0
10, 49062, Note_on_c, 8, 83, 0
10, 49080, Note_on_c, 8, 79, 35
10, 49080, Note_on_c, 8, 79, 35
10, 49163, Note_on_c, 8, 67, 0
10, 49200, Note_on_c, 8, 77, 35
10, 49200, Note_on_c, 8, 77, 35
10, 49200, Note_on_c, 8, 65, 35
10, 49216, Note_on_c, 8, 79, 0
10, 49216, Note_on_c, 8, 79, 0
10, 49295, Note_on_c, 8, 65, 0
10, 49310, Note_on_c, 8, 77, 0
10, 49310, Note_on_c, 8, 77, 0
10, 49320, Note_on_c, 8, 76, 35
10, 49320, Note_on_c, 8, 76, 35
10, 49320, Note_on_c, 8, 64, 35
10, 49409, Note_on_c, 8, 64, 0
10, 49410, Note_on_c, 8, 74, 35
10, 49410, Note_on_c, 8, 74, 35
10, 49410, Note_on_c, 8, 62, 35
10, 49421, Note_on_c, 8, 76, 0
10, 49421, Note_on_c, 8, 76, 0
10, 49507, Note_on_c, 8, 62, 0
10, 49544, Note_on_c, 8, 74, 0
10, 49544, Note_on_c, 8, 74, 0
10, 49544, End_track
11, 0, Start_track
11, 0, MIDI_port, 0
11, 0, Title_t, "Jazz Kit"
11, 0, Control_c, 9, 0, 62
11, 0, Control_c, 9, 32, 0
11, 0, Program_c, 9, 37
11, 0, Control_c, 9, 7, 90
11, 0, Control_c, 9, 10, 64
11, 0, Control_c, 9, 7, 102
11, 0, Control_c, 9, 10, 64
11, 660, Control_c, 9, 7, 127
11, 660, Control_c, 9, 10, 64
11, 875, Note_on_c, 9, 51, 58
11, 898, Note_on_c, 9, 51, 52
11, 904, Note_on_c, 9, 51, 0
11, 927, Note_on_c, 9, 51, 0
11, 930, Note_on_c, 9, 36, 72
11, 940, Note_on_c, 9, 36, 0
11, 960, Note_on_c, 9, 36, 65
11, 986, Note_on_c, 9, 36, 0
11, 1020, Note_on_c, 9, 51, 72
11, 1036, Note_on_c, 9, 51, 0
11, 1050, Note_on_c, 9, 36, 75
11, 1061, Note_on_c, 9, 36, 0
11, 1080, Note_on_c, 9, 36, 79
11, 1095, Note_on_c, 9, 36, 0
11, 1140, Note_on_c, 9, 51, 75
11, 1166, Note_on_c, 9, 51, 0
11, 1170, Note_on_c, 9, 36, 67
11, 1183, Note_on_c, 9, 36, 0
11, 1200, Note_on_c, 9, 36, 74
11, 1217, Note_on_c, 9, 36, 0
11, 1260, Note_on_c, 9, 51, 79
11, 1278, Note_on_c, 9, 51, 0
11, 1290, Note_on_c, 9, 36, 72
11, 1302, Note_on_c, 9, 36, 0
11, 1320, Note_on_c, 9, 36, 72
11, 1335, Note_on_c, 9, 36, 0
11, 1380, Note_on_c, 9, 51, 65
11, 1403, Note_on_c, 9, 51, 0
11, 1410, Note_on_c, 9, 36, 64
11, 1421, Note_on_c, 9, 36, 0
11, 1440, Note_on_c, 9, 36, 69
11, 1456, Note_on_c, 9, 36, 0
11, 1500, Note_on_c, 9, 51, 69
11, 1524, Note_on_c, 9, 51, 0
11, 1530, Note_on_c, 9, 36, 69
11, 1542, Note_on_c, 9, 36, 0
11, 1560, Note_on_c, 9, 36, 69
11, 1576, Note_on_c, 9, 36, 0
11, 1620, Note_on_c, 9, 51, 75
11, 1643, Note_on_c, 9, 51, 0
11, 1650, Note_on_c, 9, 36, 72
11, 1661, Note_on_c, 9, 36, 0
11, 1680, Note_on_c, 9, 36, 69
11, 1695, Note_on_c, 9, 36, 0
11, 1740, Note_on_c, 9, 51, 67
11, 1763, Note_on_c, 9, 51, 0
11, 1770, Note_on_c, 9, 36, 65
11, 1782, Note_on_c, 9, 36, 0
11, 1800, Note_on_c, 9, 36, 67
11, 1815, Note_on_c, 9, 36, 0
11, 1860, Note_on_c, 9, 51, 75
11, 1887, Note_on_c, 9, 51, 0
11, 1890, Note_on_c, 9, 36, 61
11, 1901, Note_on_c, 9, 36, 0
11, 1920, Note_on_c, 9, 36, 74
11, 1933, Note_on_c, 9, 36, 0
11, 1980, Note_on_c, 9, 51, 74
11, 2000, Note_on_c, 9, 51, 0
11, 2010, Note_on_c, 9, 36, 67
11, 2022, Note_on_c, 9, 36, 0
11, 2040, Note_on_c, 9, 36, 72
11, 2054, Note_on_c, 9, 36, 0
11, 2100, Note_on_c, 9, 51, 72
11, 2122, Note_on_c, 9, 51, 0
11, 2130, Note_on_c, 9, 36, 72
11, 2143, Note_on_c, 9, 36, 0
11, 2160, Note_on_c, 9, 36, 67
11, 2175, Note_on_c, 9, 36, 0
11, 2220, Note_on_c, 9, 51, 72
11, 2247, Note_on_c, 9, 51, 0
11, 2250, Note_on_c, 9, 36, 69
11, 2263, Note_on_c, 9, 36, 0
11, 2280, Note_on_c, 9, 36, 63
11, 2294, Note_on_c, 9, 36, 0
11, 2340, Note_on_c, 9, 51, 74
11, 2369, Note_on_c, 9, 51, 0
11, 2370, Note_on_c, 9, 36, 69
11, 2382, Note_on_c, 9, 36, 0
11, 2400, Note_on_c, 9, 36, 69
11, 2413, Note_on_c, 9, 36, 0
11, 2460, Note_on_c, 9, 51, 75
11, 2484, Note_on_c, 9, 51, 0
11, 2490, Note_on_c, 9, 36, 62
11, 2502, Note_on_c, 9, 36, 0
11, 2520, Note_on_c, 9, 36, 69
11, 2536, Note_on_c, 9, 36, 0
11, 2580, Note_on_c, 9, 51, 65
11, 2610, Note_on_c, 9, 36, 67
11, 2615, Note_on_c, 9, 51, 0
11, 2622, Note_on_c, 9, 36, 0
11, 2640, Note_on_c, 9, 36, 63
11, 2653, Note_on_c, 9, 36, 0
11, 2700, Note_on_c, 9, 51, 75
11, 2725, Note_on_c, 9, 51, 0
11, 2730, Note_on_c, 9, 36, 67
11, 2740, Note_on_c, 9, 36, 0
11, 2760, Note_on_c, 9, 36, 67
11, 2774, Note_on_c, 9, 36, 0
11, 2820, Note_on_c, 9, 51, 79
11, 2843, Note_on_c, 9, 51, 0
11, 2850, Note_on_c, 9, 36, 64
11, 2880, Note_on_c, 9, 36, 65
11, 2906, Note_on_c, 9, 36, 0
11, 2940, Note_on_c, 9, 51, 74
11, 2963, Note_on_c, 9, 51, 0
11, 2969, Note_on_c, 9, 36, 0
11, 2970, Note_on_c, 9, 36, 75
11, 2981, Note_on_c, 9, 36, 0
11, 3000, Note_on_c, 9, 36, 79
11, 3015, Note_on_c, 9, 36, 0
11, 3060, Note_on_c, 9, 51, 72
11, 3090, Note_on_c, 9, 51, 0
11, 3090, Note_on_c, 9, 36, 67
11, 3103, Note_on_c, 9, 36, 0
11, 3120, Note_on_c, 9, 36, 74
11, 3137, Note_on_c, 9, 36, 0
11, 3180, Note_on_c, 9, 51, 75
11, 3207, Note_on_c, 9, 51, 0
11, 3210, Note_on_c, 9, 36, 72
11, 3222, Note_on_c, 9, 36, 0
11, 3240, Note_on_c, 9, 36, 72
11, 3255, Note_on_c, 9, 36, 0
11, 3300, Note_on_c, 9, 51, 75
11, 3325, Note_on_c, 9, 51, 0
11, 3330, Note_on_c, 9, 36, 64
11, 3341, Note_on_c, 9, 36, 0
11, 3360, Note_on_c, 9, 36, 69
11, 3376, Note_on_c, 9, 36, 0
11, 3420, Note_on_c, 9, 51, 79
11, 3444, Note_on_c, 9, 51, 0
11, 3450, Note_on_c, 9, 36, 69
11, 3462, Note_on_c, 9, 36, 0
11, 3480, Note_on_c, 9, 36, 69
11, 3496, Note_on_c, 9, 36, 0
11, 3540, Note_on_c, 9, 51, 84
11, 3561, Note_on_c, 9, 51, 0
11, 3570, Note_on_c, 9, 36, 72
11, 3581, Note_on_c, 9, 36, 0
11, 3600, Note_on_c, 9, 36, 69
11, 3615, Note_on_c, 9, 36, 0
11, 3660, Note_on_c, 9, 51, 79
11, 3681, Note_on_c, 9, 51, 0
11, 3690, Note_on_c, 9, 36, 65
11, 3702, Note_on_c, 9, 36, 0
11, 3720, Note_on_c, 9, 36, 67
11, 3735, Note_on_c, 9, 36, 0
11, 3780, Note_on_c, 9, 51, 74
11, 3798, Note_on_c, 9, 51, 0
11, 3810, Note_on_c, 9, 36, 61
11, 3821, Note_on_c, 9, 36, 0
11, 3840, Note_on_c, 9, 36, 74
11, 3853, Note_on_c, 9, 36, 0
11, 3900, Note_on_c, 9, 51, 75
11, 3922, Note_on_c, 9, 51, 0
11, 3930, Note_on_c, 9, 36, 67
11, 3942, Note_on_c, 9, 36, 0
11, 3960, Note_on_c, 9, 36, 72
11, 3974, Note_on_c, 9, 36, 0
11, 4020, Note_on_c, 9, 51, 69
11, 4045, Note_on_c, 9, 51, 0
11, 4050, Note_on_c, 9, 36, 72
11, 4063, Note_on_c, 9, 36, 0
11, 4080, Note_on_c, 9, 36, 67
11, 4095, Note_on_c, 9, 36, 0
11, 4140, Note_on_c, 9, 51, 75
11, 4160, Note_on_c, 9, 51, 0
11, 4170, Note_on_c, 9, 36, 69
11, 4175, Control_c, 9, 7, 126
11, 4183, Note_on_c, 9, 36, 0
11, 4185, Control_c, 9, 7, 124
11, 4190, Control_c, 9, 7, 123
11, 4200, Note_on_c, 9, 36, 63
11, 4214, Note_on_c, 9, 36, 0
11, 4260, Note_on_c, 9, 51, 72
11, 4275, Control_c, 9, 7, 120
11, 4280, Control_c, 9, 7, 119
11, 4285, Note_on_c, 9, 51, 0
11, 4290, Control_c, 9, 7, 114
11, 4290, Note_on_c, 9, 36, 69
11, 4300, Control_c, 9, 7, 113
11, 4302, Note_on_c, 9, 36, 0
11, 4320, Note_on_c, 9, 36, 69
11, 4333, Note_on_c, 9, 36, 0
11, 4380, Note_on_c, 9, 51, 74
11, 4400, Note_on_c, 9, 51, 0
11, 4410, Note_on_c, 9, 36, 62
11, 4422, Note_on_c, 9, 36, 0
11, 4440, Note_on_c, 9, 36, 69
11, 4456, Note_on_c, 9, 36, 0
11, 4500, Note_on_c, 9, 51, 79
11, 4527, Note_on_c, 9, 51, 0
11, 4530, Note_on_c, 9, 36, 67
11, 4542, Note_on_c, 9, 36, 0
11, 4560, Note_on_c, 9, 36, 63
11, 4573, Note_on_c, 9, 36, 0
11, 4620, Note_on_c, 9, 51, 69
11, 4644, Note_on_c, 9, 51, 0
11, 4650, Note_on_c, 9, 36, 67
11, 4660, Note_on_c, 9, 36, 0
11, 4680, Note_on_c, 9, 36, 67
11, 4694, Note_on_c, 9, 36, 0
11, 4740, Note_on_c, 9, 51, 74
11, 4764, Note_on_c, 9, 51, 0
11, 4800, Note_on_c, 9, 36, 65
11, 4826, Note_on_c, 9, 36, 0
11, 4860, Note_on_c, 9, 51, 72
11, 4876, Note_on_c, 9, 51, 0
11, 4890, Note_on_c, 9, 36, 75
11, 4901, Note_on_c, 9, 36, 0
11, 4920, Note_on_c, 9, 36, 79
11, 4935, Note_on_c, 9, 36, 0
11, 4980, Note_on_c, 9, 51, 75
11, 5006, Note_on_c, 9, 51, 0
11, 5010, Note_on_c, 9, 36, 67
11, 5023, Note_on_c, 9, 36, 0
11, 5040, Note_on_c, 9, 36, 74
11, 5057, Note_on_c, 9, 36, 0
11, 5100, Note_on_c, 9, 51, 79
11, 5118, Note_on_c, 9, 51, 0
11, 5130, Note_on_c, 9, 36, 72
11, 5142, Note_on_c, 9, 36, 0
11, 5160, Note_on_c, 9, 36, 72
11, 5175, Note_on_c, 9, 36, 0
11, 5220, Note_on_c, 9, 51, 65
11, 5243, Note_on_c, 9, 51, 0
11, 5250, Note_on_c, 9, 36, 64
11, 5261, Note_on_c, 9, 36, 0
11, 5280, Note_on_c, 9, 36, 69
11, 5296, Note_on_c, 9, 36, 0
11, 5340, Note_on_c, 9, 51, 69
11, 5364, Note_on_c, 9, 51, 0
11, 5370, Note_on_c, 9, 36, 69
11, 5382, Note_on_c, 9, 36, 0
11, 5400, Note_on_c, 9, 36, 69
11, 5416, Note_on_c, 9, 36, 0
11, 5460, Note_on_c, 9, 51, 75
11, 5483, Note_on_c, 9, 51, 0
11, 5490, Note_on_c, 9, 36, 72
11, 5501, Note_on_c, 9, 36, 0
11, 5520, Note_on_c, 9, 36, 69
11, 5535, Note_on_c, 9, 36, 0
11, 5580, Note_on_c, 9, 51, 67
11, 5603, Note_on_c, 9, 51, 0
11, 5610, Note_on_c, 9, 36, 65
11, 5622, Note_on_c, 9, 36, 0
11, 5640, Note_on_c, 9, 36, 67
11, 5655, Note_on_c, 9, 36, 0
11, 5700, Note_on_c, 9, 51, 75
11, 5727, Note_on_c, 9, 51, 0
11, 5730, Note_on_c, 9, 36, 61
11, 5741, Note_on_c, 9, 36, 0
11, 5760, Note_on_c, 9, 36, 74
11, 5773, Note_on_c, 9, 36, 0
11, 5820, Note_on_c, 9, 51, 74
11, 5840, Note_on_c, 9, 51, 0
11, 5850, Note_on_c, 9, 36, 67
11, 5862, Note_on_c, 9, 36, 0
11, 5880, Note_on_c, 9, 36, 72
11, 5894, Note_on_c, 9, 36, 0
11, 5940, Note_on_c, 9, 51, 72
11, 5962, Note_on_c, 9, 51, 0
11, 5970, Note_on_c, 9, 36, 72
11, 5983, Note_on_c, 9, 36, 0
11, 6000, Note_on_c, 9, 36, 67
11, 6015, Note_on_c, 9, 36, 0
11, 6060, Note_on_c, 9, 51, 72
11, 6087, Note_on_c, 9, 51, 0
11, 6090, Note_on_c, 9, 36, 69
11, 6103, Note_on_c, 9, 36, 0
11, 6120, Note_on_c, 9, 36, 63
11, 6134, Note_on_c, 9, 36, 0
11, 6180, Note_on_c, 9, 51, 74
11, 6209, Note_on_c, 9, 51, 0
11, 6210, Note_on_c, 9, 36, 69
11, 6222, Note_on_c, 9, 36, 0
11, 6240, Note_on_c, 9, 36, 69
11, 6253, Note_on_c, 9, 36, 0
11, 6300, Note_on_c, 9, 51, 75
11, 6324, Note_on_c, 9, 51, 0
11, 6330, Note_on_c, 9, 36, 62
11, 6342, Note_on_c, 9, 36, 0
11, 6360, Note_on_c, 9, 36, 69
11, 6376, Note_on_c, 9, 36, 0
11, 6420, Note_on_c, 9, 51, 65
11, 6450, Note_on_c, 9, 36, 67
11, 6455, Note_on_c, 9, 51, 0
11, 6462, Note_on_c, 9, 36, 0
11, 6480, Note_on_c, 9, 36, 63
11, 6493, Note_on_c, 9, 36, 0
11, 6540, Note_on_c, 9, 51, 75
11, 6565, Note_on_c, 9, 51, 0
11, 6570, Note_on_c, 9, 36, 67
11, 6580, Note_on_c, 9, 36, 0
11, 6600, Note_on_c, 9, 36, 67
11, 6614, Note_on_c, 9, 36, 0
11, 6660, Note_on_c, 9, 51, 79
11, 6683, Note_on_c, 9, 51, 0
11, 6720, Note_on_c, 9, 36, 65
11, 6746, Note_on_c, 9, 36, 0
11, 6780, Note_on_c, 9, 51, 74
11, 6803, Note_on_c, 9, 51, 0
11, 6810, Note_on_c, 9, 36, 75
11, 6821, Note_on_c, 9, 36, 0
11, 6840, Note_on_c, 9, 36, 79
11, 6855, Note_on_c, 9, 36, 0
11, 6900, Note_on_c, 9, 51, 72
11, 6930, Note_on_c, 9, 51, 0
11, 6930, Note_on_c, 9, 36, 67
11, 6943, Note_on_c, 9, 36, 0
11, 6960, Note_on_c, 9, 36, 74
11, 6977, Note_on_c, 9, 36, 0
11, 7020, Note_on_c, 9, 51, 75
11, 7047, Note_on_c, 9, 51, 0
11, 7050, Note_on_c, 9, 36, 72
11, 7062, Note_on_c, 9, 36, 0
11, 7080, Note_on_c, 9, 36, 72
11, 7095, Note_on_c, 9, 36, 0
11, 7140, Note_on_c, 9, 51, 75
11, 7165, Note_on_c, 9, 51, 0
11, 7170, Note_on_c, 9, 36, 64
11, 7181, Note_on_c, 9, 36, 0
11, 7200, Note_on_c, 9, 36, 69
11, 7216, Note_on_c, 9, 36, 0
11, 7260, Note_on_c, 9, 51, 79
11, 7284, Note_on_c, 9, 51, 0
11, 7290, Note_on_c, 9, 36, 69
11, 7302, Note_on_c, 9, 36, 0
11, 7320, Note_on_c, 9, 36, 69
11, 7336, Note_on_c, 9, 36, 0
11, 7380, Note_on_c, 9, 51, 84
11, 7401, Note_on_c, 9, 51, 0
11, 7410, Note_on_c, 9, 36, 72
11, 7421, Note_on_c, 9, 36, 0
11, 7440, Note_on_c, 9, 36, 69
11, 7455, Note_on_c, 9, 36, 0
11, 7500, Note_on_c, 9, 51, 79
11, 7521, Note_on_c, 9, 51, 0
11, 7530, Note_on_c, 9, 36, 65
11, 7542, Note_on_c, 9, 36, 0
11, 7560, Note_on_c, 9, 36, 67
11, 7575, Note_on_c, 9, 36, 0
11, 7620, Note_on_c, 9, 51, 74
11, 7638, Note_on_c, 9, 51, 0
11, 7650, Note_on_c, 9, 36, 61
11, 7661, Note_on_c, 9, 36, 0
11, 7680, Note_on_c, 9, 36, 74
11, 7693, Note_on_c, 9, 36, 0
11, 7740, Note_on_c, 9, 51, 75
11, 7762, Note_on_c, 9, 51, 0
11, 7770, Note_on_c, 9, 36, 67
11, 7782, Note_on_c, 9, 36, 0
11, 7800, Note_on_c, 9, 36, 72
11, 7814, Note_on_c, 9, 36, 0
11, 7860, Note_on_c, 9, 51, 69
11, 7885, Note_on_c, 9, 51, 0
11, 7890, Note_on_c, 9, 36, 72
11, 7903, Note_on_c, 9, 36, 0
11, 7920, Note_on_c, 9, 36, 67
11, 7935, Note_on_c, 9, 36, 0
11, 7980, Note_on_c, 9, 51, 75
11, 8000, Note_on_c, 9, 51, 0
11, 8010, Note_on_c, 9, 36, 69
11, 8023, Note_on_c, 9, 36, 0
11, 8040, Note_on_c, 9, 36, 63
11, 8054, Note_on_c, 9, 36, 0
11, 8100, Note_on_c, 9, 51, 72
11, 8125, Note_on_c, 9, 51, 0
11, 8130, Note_on_c, 9, 36, 69
11, 8142, Note_on_c, 9, 36, 0
11, 8160, Note_on_c, 9, 36, 69
11, 8173, Note_on_c, 9, 36, 0
11, 8220, Note_on_c, 9, 51, 74
11, 8240, Note_on_c, 9, 51, 0
11, 8250, Note_on_c, 9, 36, 62
11, 8262, Note_on_c, 9, 36, 0
11, 8280, Note_on_c, 9, 36, 69
11, 8296, Note_on_c, 9, 36, 0
11, 8340, Control_c, 9, 10, 68
11, 8340, Note_on_c, 9, 51, 79
11, 8367, Note_on_c, 9, 51, 0
11, 8370, Note_on_c, 9, 36, 67
11, 8382, Note_on_c, 9, 36, 0
11, 8400, Note_on_c, 9, 36, 63
11, 8413, Note_on_c, 9, 36, 0
11, 8460, Note_on_c, 9, 51, 69
11, 8484, Note_on_c, 9, 51, 0
11, 8490, Note_on_c, 9, 36, 67
11, 8500, Note_on_c, 9, 36, 0
11, 8520, Note_on_c, 9, 36, 67
11, 8534, Note_on_c, 9, 36, 0
11, 8580, Note_on_c, 9, 51, 74
11, 8604, Note_on_c, 9, 51, 0
11, 8610, Note_on_c, 9, 36, 72
11, 8620, Note_on_c, 9, 36, 0
11, 8640, Note_on_c, 9, 36, 65
11, 8666, Note_on_c, 9, 36, 0
11, 8700, Note_on_c, 9, 51, 72
11, 8716, Note_on_c, 9, 51, 0
11, 8730, Note_on_c, 9, 36, 75
11, 8741, Note_on_c, 9, 36, 0
11, 8760, Note_on_c, 9, 36, 79
11, 8775, Note_on_c, 9, 36, 0
11, 8820, Note_on_c, 9, 51, 75
11, 8846, Note_on_c, 9, 51, 0
11, 8850, Note_on_c, 9, 36, 67
11, 8863, Note_on_c, 9, 36, 0
11, 8880, Note_on_c, 9, 36, 74
11, 8897, Note_on_c, 9, 36, 0
11, 8940, Note_on_c, 9, 51, 79
11, 8958, Note_on_c, 9, 51, 0
11, 8970, Note_on_c, 9, 36, 72
11, 8982, Note_on_c, 9, 36, 0
11, 9000, Note_on_c, 9, 36, 72
11, 9015, Note_on_c, 9, 36, 0
11, 9060, Note_on_c, 9, 51, 65
11, 9083, Note_on_c, 9, 51, 0
11, 9090, Note_on_c, 9, 36, 64
11, 9101, Note_on_c, 9, 36, 0
11, 9120, Note_on_c, 9, 36, 69
11, 9136, Note_on_c, 9, 36, 0
11, 9180, Note_on_c, 9, 51, 69
11, 9204, Note_on_c, 9, 51, 0
11, 9210, Note_on_c, 9, 36, 69
11, 9222, Note_on_c, 9, 36, 0
11, 9240, Note_on_c, 9, 36, 69
11, 9256, Note_on_c, 9, 36, 0
11, 9300, Note_on_c, 9, 51, 75
11, 9323, Note_on_c, 9, 51, 0
11, 9330, Note_on_c, 9, 36, 72
11, 9341, Note_on_c, 9, 36, 0
11, 9360, Note_on_c, 9, 36, 69
11, 9375, Note_on_c, 9, 36, 0
11, 9420, Note_on_c, 9, 51, 67
11, 9443, Note_on_c, 9, 51, 0
11, 9450, Note_on_c, 9, 36, 65
11, 9462, Note_on_c, 9, 36, 0
11, 9480, Note_on_c, 9, 36, 67
11, 9495, Note_on_c, 9, 36, 0
11, 9540, Note_on_c, 9, 51, 75
11, 9567, Note_on_c, 9, 51, 0
11, 9570, Note_on_c, 9, 36, 61
11, 9581, Note_on_c, 9, 36, 0
11, 9600, Note_on_c, 9, 36, 74
11, 9613, Note_on_c, 9, 36, 0
11, 9660, Note_on_c, 9, 51, 74
11, 9680, Note_on_c, 9, 51, 0
11, 9690, Control_c, 9, 10, 75
11, 9690, Note_on_c, 9, 36, 67
11, 9696, Control_c, 9, 10, 74
11, 9702, Note_on_c, 9, 36, 0
11, 9714, Control_c, 9, 10, 77
11, 9720, Control_c, 9, 10, 82
11, 9720, Note_on_c, 9, 36, 72
11, 9725, Control_c, 9, 10, 84
11, 9734, Note_on_c, 9, 36, 0
11, 9780, Note_on_c, 9, 51, 72
11, 9802, Note_on_c, 9, 51, 0
11, 9810, Note_on_c, 9, 36, 72
11, 9823, Note_on_c, 9, 36, 0
11, 9840, Note_on_c, 9, 36, 67
11, 9855, Note_on_c, 9, 36, 0
11, 9900, Note_on_c, 9, 51, 72
11, 9927, Note_on_c, 9, 51, 0
11, 9930, Note_on_c, 9, 36, 69
11, 9943, Note_on_c, 9, 36, 0
11, 9960, Note_on_c, 9, 36, 63
11, 9974, Note_on_c, 9, 36, 0
11, 10020, Note_on_c, 9, 51, 74
11, 10049, Note_on_c, 9, 51, 0
11, 10050, Note_on_c, 9, 36, 69
11, 10062, Note_on_c, 9, 36, 0
11, 10080, Note_on_c, 9, 36, 69
11, 10093, Note_on_c, 9, 36, 0
11, 10140, Note_on_c, 9, 51, 75
11, 10164, Note_on_c, 9, 51, 0
11, 10170, Note_on_c, 9, 36, 62
11, 10182, Note_on_c, 9, 36, 0
11, 10200, Control_c, 9, 10, 83
11, 10200, Note_on_c, 9, 36, 69
11, 10205, Control_c, 9, 10, 81
11, 10216, Note_on_c, 9, 36, 0
11, 10254, Control_c, 9, 10, 79
11, 10257, Control_c, 9, 10, 78
11, 10260, Control_c, 9, 10, 76
11, 10260, Note_on_c, 9, 51, 65
11, 10270, Control_c, 9, 10, 75
11, 10275, Control_c, 9, 10, 74
11, 10289, Control_c, 9, 10, 73
11, 10290, Note_on_c, 9, 36, 67
11, 10293, Control_c, 9, 10, 71
11, 10295, Note_on_c, 9, 51, 0
11, 10302, Note_on_c, 9, 36, 0
11, 10312, Control_c, 9, 10, 69
11, 10320, Note_on_c, 9, 36, 63
11, 10333, Note_on_c, 9, 36, 0
11, 10380, Note_on_c, 9, 51, 75
11, 10405, Note_on_c, 9, 51, 0
11, 10410, Note_on_c, 9, 36, 67
11, 10420, Note_on_c, 9, 36, 0
11, 10440, Note_on_c, 9, 36, 67
11, 10454, Note_on_c, 9, 36, 0
11, 10500, Note_on_c, 9, 51, 79
11, 10523, Note_on_c, 9, 51, 0
11, 10530, Note_on_c, 9, 36, 64
11, 10560, Note_on_c, 9, 36, 65
11, 10586, Note_on_c, 9, 36, 0
11, 10620, Note_on_c, 9, 51, 74
11, 10643, Note_on_c, 9, 51, 0
11, 10649, Note_on_c, 9, 36, 0
11, 10650, Note_on_c, 9, 36, 75
11, 10661, Note_on_c, 9, 36, 0
11, 10680, Note_on_c, 9, 36, 79
11, 10695, Note_on_c, 9, 36, 0
11, 10740, Note_on_c, 9, 51, 72
11, 10770, Note_on_c, 9, 51, 0
11, 10770, Note_on_c, 9, 36, 67
11, 10783, Note_on_c, 9, 36, 0
11, 10800, Note_on_c, 9, 36, 74
11, 10817, Note_on_c, 9, 36, 0
11, 10860, Note_on_c, 9, 51, 75
11, 10887, Note_on_c, 9, 51, 0
11, 10890, Note_on_c, 9, 36, 72
11, 10902, Note_on_c, 9, 36, 0
11, 10920, Note_on_c, 9, 36, 72
11, 10935, Note_on_c, 9, 36, 0
11, 10980, Note_on_c, 9, 51, 75
11, 11005, Note_on_c, 9, 51, 0
11, 11010, Note_on_c, 9, 36, 64
11, 11021, Note_on_c, 9, 36, 0
11, 11040, Note_on_c, 9, 36, 69
11, 11056, Note_on_c, 9, 36, 0
11, 11100, Note_on_c, 9, 51, 79
11, 11124, Note_on_c, 9, 51, 0
11, 11130, Note_on_c, 9, 36, 69
11, 11142, Note_on_c, 9, 36, 0
11, 11160, Note_on_c, 9, 36, 69
11, 11176, Note_on_c, 9, 36, 0
11, 11220, Note_on_c, 9, 51, 84
11, 11241, Note_on_c, 9, 51, 0
11, 11250, Note_on_c, 9, 36, 72
11, 11261, Note_on_c, 9, 36, 0
11, 11280, Note_on_c, 9, 36, 69
11, 11295, Note_on_c, 9, 36, 0
11, 11340, Note_on_c, 9, 51, 79
11, 11361, Note_on_c, 9, 51, 0
11, 11370, Note_on_c, 9, 36, 65
11, 11382, Note_on_c, 9, 36, 0
11, 11400, Note_on_c, 9, 36, 67
11, 11415, Note_on_c, 9, 36, 0
11, 11460, Note_on_c, 9, 51, 74
11, 11478, Note_on_c, 9, 51, 0
11, 11490, Note_on_c, 9, 36, 61
11, 11501, Note_on_c, 9, 36, 0
11, 11520, Note_on_c, 9, 36, 74
11, 11533, Note_on_c, 9, 36, 0
11, 11580, Note_on_c, 9, 51, 75
11, 11602, Note_on_c, 9, 51, 0
11, 11610, Note_on_c, 9, 36, 67
11, 11622, Note_on_c, 9, 36, 0
11, 11640, Note_on_c, 9, 36, 72
11, 11654, Note_on_c, 9, 36, 0
11, 11700, Note_on_c, 9, 51, 69
11, 11725, Note_on_c, 9, 51, 0
11, 11730, Note_on_c, 9, 36, 72
11, 11743, Note_on_c, 9, 36, 0
11, 11760, Note_on_c, 9, 36, 67
11, 11775, Note_on_c, 9, 36, 0
11, 11820, Note_on_c, 9, 51, 75
11, 11840, Note_on_c, 9, 51, 0
11, 11850, Note_on_c, 9, 36, 69
11, 11863, Note_on_c, 9, 36, 0
11, 11880, Note_on_c, 9, 36, 63
11, 11894, Note_on_c, 9, 36, 0
11, 11940, Note_on_c, 9, 51, 72
11, 11965, Note_on_c, 9, 51, 0
11, 11970, Note_on_c, 9, 36, 69
11, 11982, Note_on_c, 9, 36, 0
11, 12000, Note_on_c, 9, 36, 69
11, 12013, Note_on_c, 9, 36, 0
11, 12060, Note_on_c, 9, 51, 74
11, 12080, Note_on_c, 9, 51, 0
11, 12090, Note_on_c, 9, 36, 62
11, 12102, Note_on_c, 9, 36, 0
11, 12120, Note_on_c, 9, 36, 69
11, 12136, Note_on_c, 9, 36, 0
11, 12180, Note_on_c, 9, 51, 79
11, 12207, Note_on_c, 9, 51, 0
11, 12210, Note_on_c, 9, 36, 67
11, 12222, Note_on_c, 9, 36, 0
11, 12240, Note_on_c, 9, 36, 63
11, 12253, Note_on_c, 9, 36, 0
11, 12300, Note_on_c, 9, 51, 69
11, 12324, Note_on_c, 9, 51, 0
11, 12330, Note_on_c, 9, 36, 67
11, 12340, Note_on_c, 9, 36, 0
11, 12360, Note_on_c, 9, 36, 67
11, 12374, Note_on_c, 9, 36, 0
11, 12420, Note_on_c, 9, 51, 74
11, 12444, Note_on_c, 9, 51, 0
11, 12480, Note_on_c, 9, 36, 65
11, 12506, Note_on_c, 9, 36, 0
11, 12540, Note_on_c, 9, 51, 72
11, 12556, Note_on_c, 9, 51, 0
11, 12570, Note_on_c, 9, 36, 75
11, 12581, Note_on_c, 9, 36, 0
11, 12600, Note_on_c, 9, 36, 79
11, 12615, Note_on_c, 9, 36, 0
11, 12660, Note_on_c, 9, 51, 75
11, 12686, Note_on_c, 9, 51, 0
11, 12690, Note_on_c, 9, 36, 67
11, 12703, Note_on_c, 9, 36, 0
11, 12720, Note_on_c, 9, 36, 74
11, 12737, Note_on_c, 9, 36, 0
11, 12780, Note_on_c, 9, 51, 79
11, 12798, Note_on_c, 9, 51, 0
11, 12810, Note_on_c, 9, 36, 72
11, 12822, Note_on_c, 9, 36, 0
11, 12840, Note_on_c, 9, 36, 72
11, 12855, Note_on_c, 9, 36, 0
11, 12900, Note_on_c, 9, 51, 65
11, 12923, Note_on_c, 9, 51, 0
11, 12930, Note_on_c, 9, 36, 64
11, 12941, Note_on_c, 9, 36, 0
11, 12960, Note_on_c, 9, 36, 69
11, 12976, Note_on_c, 9, 36, 0
11, 13020, Note_on_c, 9, 51, 69
11, 13044, Note_on_c, 9, 51, 0
11, 13050, Note_on_c, 9, 36, 69
11, 13062, Note_on_c, 9, 36, 0
11, 13080, Note_on_c, 9, 36, 69
11, 13096, Note_on_c, 9, 36, 0
11, 13140, Note_on_c, 9, 51, 75
11, 13163, Note_on_c, 9, 51, 0
11, 13170, Note_on_c, 9, 36, 72
11, 13181, Note_on_c, 9, 36, 0
11, 13200, Note_on_c, 9, 36, 69
11, 13215, Note_on_c, 9, 36, 0
11, 13260, Note_on_c, 9, 51, 67
11, 13283, Note_on_c, 9, 51, 0
11, 13290, Note_on_c, 9, 36, 65
11, 13302, Note_on_c, 9, 36, 0
11, 13320, Note_on_c, 9, 36, 67
11, 13335, Note_on_c, 9, 36, 0
11, 13380, Note_on_c, 9, 51, 75
11, 13407, Note_on_c, 9, 51, 0
11, 13410, Note_on_c, 9, 36, 61
11, 13421, Note_on_c, 9, 36, 0
11, 13440, Note_on_c, 9, 36, 74
11, 13453, Note_on_c, 9, 36, 0
11, 13500, Note_on_c, 9, 51, 74
11, 13520, Note_on_c, 9, 51, 0
11, 13530, Note_on_c, 9, 36, 67
11, 13542, Note_on_c, 9, 36, 0
11, 13560, Note_on_c, 9, 36, 72
11, 13574, Note_on_c, 9, 36, 0
11, 13620, Note_on_c, 9, 51, 72
11, 13642, Note_on_c, 9, 51, 0
11, 13650, Note_on_c, 9, 36, 72
11, 13663, Note_on_c, 9, 36, 0
11, 13680, Note_on_c, 9, 36, 67
11, 13695, Note_on_c, 9, 36, 0
11, 13740, Note_on_c, 9, 51, 72
11, 13767, Note_on_c, 9, 51, 0
11, 13770, Note_on_c, 9, 36, 69
11, 13783, Note_on_c, 9, 36, 0
11, 13800, Note_on_c, 9, 36, 63
11, 13814, Note_on_c, 9, 36, 0
11, 13860, Note_on_c, 9, 51, 74
11, 13889, Note_on_c, 9, 51, 0
11, 13890, Note_on_c, 9, 36, 69
11, 13902, Note_on_c, 9, 36, 0
11, 13920, Note_on_c, 9, 36, 69
11, 13933, Note_on_c, 9, 36, 0
11, 13980, Note_on_c, 9, 51, 75
11, 14004, Note_on_c, 9, 51, 0
11, 14010, Note_on_c, 9, 36, 62
11, 14022, Note_on_c, 9, 36, 0
11, 14040, Note_on_c, 9, 36, 69
11, 14056, Note_on_c, 9, 36, 0
11, 14100, Note_on_c, 9, 51, 65
11, 14130, Note_on_c, 9, 36, 67
11, 14135, Note_on_c, 9, 51, 0
11, 14142, Note_on_c, 9, 36, 0
11, 14160, Note_on_c, 9, 36, 63
11, 14173, Note_on_c, 9, 36, 0
11, 14220, Note_on_c, 9, 51, 75
11, 14245, Note_on_c, 9, 51, 0
11, 14250, Note_on_c, 9, 36, 67
11, 14260, Note_on_c, 9, 36, 0
11, 14280, Note_on_c, 9, 36, 67
11, 14294, Note_on_c, 9, 36, 0
11, 14340, Note_on_c, 9, 51, 79
11, 14363, Note_on_c, 9, 51, 0
11, 14400, Note_on_c, 9, 36, 65
11, 14426, Note_on_c, 9, 36, 0
11, 14460, Note_on_c, 9, 51, 74
11, 14483, Note_on_c, 9, 51, 0
11, 14490, Note_on_c, 9, 36, 75
11, 14501, Note_on_c, 9, 36, 0
11, 14520, Note_on_c, 9, 36, 79
11, 14535, Note_on_c, 9, 36, 0
11, 14580, Note_on_c, 9, 51, 72
11, 14610, Note_on_c, 9, 51, 0
11, 14610, Note_on_c, 9, 36, 67
11, 14623, Note_on_c, 9, 36, 0
11, 14640, Note_on_c, 9, 36, 74
11, 14657, Note_on_c, 9, 36, 0
11, 14700, Note_on_c, 9, 51, 75
11, 14727, Note_on_c, 9, 51, 0
11, 14730, Note_on_c, 9, 36, 72
11, 14742, Note_on_c, 9, 36, 0
11, 14760, Note_on_c, 9, 36, 72
11, 14775, Note_on_c, 9, 36, 0
11, 14820, Note_on_c, 9, 51, 75
11, 14845, Note_on_c, 9, 51, 0
11, 14850, Note_on_c, 9, 36, 64
11, 14861, Note_on_c, 9, 36, 0
11, 14880, Note_on_c, 9, 36, 69
11, 14896, Note_on_c, 9, 36, 0
11, 14940, Note_on_c, 9, 51, 79
11, 14964, Note_on_c, 9, 51, 0
11, 14970, Note_on_c, 9, 36, 69
11, 14982, Note_on_c, 9, 36, 0
11, 15000, Note_on_c, 9, 36, 69
11, 15016, Note_on_c, 9, 36, 0
11, 15060, Note_on_c, 9, 51, 84
11, 15081, Note_on_c, 9, 51, 0
11, 15090, Note_on_c, 9, 36, 72
11, 15101, Note_on_c, 9, 36, 0
11, 15120, Note_on_c, 9, 36, 69
11, 15135, Note_on_c, 9, 36, 0
11, 15180, Note_on_c, 9, 51, 79
11, 15201, Note_on_c, 9, 51, 0
11, 15210, Note_on_c, 9, 36, 65
11, 15222, Note_on_c, 9, 36, 0
11, 15240, Note_on_c, 9, 36, 67
11, 15255, Note_on_c, 9, 36, 0
11, 15300, Note_on_c, 9, 51, 74
11, 15318, Note_on_c, 9, 51, 0
11, 15330, Note_on_c, 9, 36, 61
11, 15341, Note_on_c, 9, 36, 0
11, 15360, Note_on_c, 9, 36, 74
11, 15373, Note_on_c, 9, 36, 0
11, 15420, Note_on_c, 9, 51, 75
11, 15442, Note_on_c, 9, 51, 0
11, 15450, Note_on_c, 9, 36, 67
11, 15462, Note_on_c, 9, 36, 0
11, 15480, Note_on_c, 9, 36, 72
11, 15494, Note_on_c, 9, 36, 0
11, 15540, Note_on_c, 9, 51, 69
11, 15565, Note_on_c, 9, 51, 0
11, 15570, Note_on_c, 9, 36, 72
11, 15583, Note_on_c, 9, 36, 0
11, 15600, Note_on_c, 9, 36, 67
11, 15615, Note_on_c, 9, 36, 0
11, 15660, Note_on_c, 9, 51, 75
11, 15680, Note_on_c, 9, 51, 0
11, 15690, Note_on_c, 9, 36, 69
11, 15703, Note_on_c, 9, 36, 0
11, 15720, Note_on_c, 9, 36, 63
11, 15734, Note_on_c, 9, 36, 0
11, 15780, Note_on_c, 9, 51, 72
11, 15805, Note_on_c, 9, 51, 0
11, 15810, Note_on_c, 9, 36, 69
11, 15822, Note_on_c, 9, 36, 0
11, 15840, Note_on_c, 9, 36, 69
11, 15853, Note_on_c, 9, 36, 0
11, 15900, Note_on_c, 9, 51, 74
11, 15920, Note_on_c, 9, 51, 0
11, 15930, Note_on_c, 9, 36, 62
11, 15942, Note_on_c, 9, 36, 0
11, 15960, Note_on_c, 9, 36, 69
11, 15976, Note_on_c, 9, 36, 0
11, 16020, Note_on_c, 9, 51, 79
11, 16047, Note_on_c, 9, 51, 0
11, 16050, Note_on_c, 9, 36, 67
11, 16062, Note_on_c, 9, 36, 0
11, 16080, Note_on_c, 9, 36, 63
11, 16093, Note_on_c, 9, 36, 0
11, 16140, Note_on_c, 9, 51, 69
11, 16164, Note_on_c, 9, 51, 0
11, 16170, Note_on_c, 9, 36, 67
11, 16180, Note_on_c, 9, 36, 0
11, 16200, Note_on_c, 9, 36, 67
11, 16214, Note_on_c, 9, 36, 0
11, 16260, Note_on_c, 9, 51, 74
11, 16284, Note_on_c, 9, 51, 0
11, 16290, Note_on_c, 9, 36, 72
11, 16300, Note_on_c, 9, 36, 0
11, 16320, Note_on_c, 9, 36, 65
11, 16346, Note_on_c, 9, 36, 0
11, 16380, Note_on_c, 9, 51, 72
11, 16396, Note_on_c, 9, 51, 0
11, 16410, Note_on_c, 9, 36, 75
11, 16421, Note_on_c, 9, 36, 0
11, 16440, Note_on_c, 9, 36, 79
11, 16455, Note_on_c, 9, 36, 0
11, 16500, Note_on_c, 9, 51, 75
11, 16526, Note_on_c, 9, 51, 0
11, 16530, Note_on_c, 9, 36, 67
11, 16543, Note_on_c, 9, 36, 0
11, 16560, Note_on_c, 9, 36, 74
11, 16577, Note_on_c, 9, 36, 0
11, 16620, Note_on_c, 9, 51, 79
11, 16638, Note_on_c, 9, 51, 0
11, 16650, Note_on_c, 9, 36, 72
11, 16662, Note_on_c, 9, 36, 0
11, 16680, Note_on_c, 9, 36, 72
11, 16695, Note_on_c, 9, 36, 0
11, 16740, Note_on_c, 9, 51, 65
11, 16763, Note_on_c, 9, 51, 0
11, 16770, Note_on_c, 9, 36, 64
11, 16781, Note_on_c, 9, 36, 0
11, 16800, Note_on_c, 9, 36, 69
11, 16816, Note_on_c, 9, 36, 0
11, 16860, Note_on_c, 9, 51, 69
11, 16884, Note_on_c, 9, 51, 0
11, 16890, Note_on_c, 9, 36, 69
11, 16902, Note_on_c, 9, 36, 0
11, 16920, Note_on_c, 9, 36, 69
11, 16936, Note_on_c, 9, 36, 0
11, 16980, Note_on_c, 9, 51, 75
11, 17003, Note_on_c, 9, 51, 0
11, 17010, Note_on_c, 9, 36, 72
11, 17021, Note_on_c, 9, 36, 0
11, 17040, Note_on_c, 9, 36, 69
11, 17055, Note_on_c, 9, 36, 0
11, 17100, Note_on_c, 9, 51, 67
11, 17123, Note_on_c, 9, 51, 0
11, 17130, Note_on_c, 9, 36, 65
11, 17142, Note_on_c, 9, 36, 0
11, 17160, Note_on_c, 9, 36, 67
11, 17175, Note_on_c, 9, 36, 0
11, 17220, Note_on_c, 9, 51, 75
11, 17247, Note_on_c, 9, 51, 0
11, 17250, Note_on_c, 9, 36, 61
11, 17261, Note_on_c, 9, 36, 0
11, 17280, Note_on_c, 9, 36, 74
11, 17293, Note_on_c, 9, 36, 0
11, 17340, Note_on_c, 9, 51, 74
11, 17360, Note_on_c, 9, 51, 0
11, 17370, Note_on_c, 9, 36, 67
11, 17382, Note_on_c, 9, 36, 0
11, 17400, Note_on_c, 9, 36, 72
11, 17414, Note_on_c, 9, 36, 0
11, 17460, Note_on_c, 9, 51, 72
11, 17482, Note_on_c, 9, 51, 0
11, 17490, Note_on_c, 9, 36, 72
11, 17503, Note_on_c, 9, 36, 0
11, 17520, Note_on_c, 9, 36, 67
11, 17535, Note_on_c, 9, 36, 0
11, 17580, Note_on_c, 9, 51, 72
11, 17607, Note_on_c, 9, 51, 0
11, 17610, Note_on_c, 9, 36, 69
11, 17623, Note_on_c, 9, 36, 0
11, 17640, Note_on_c, 9, 36, 63
11, 17654, Note_on_c, 9, 36, 0
11, 17700, Note_on_c, 9, 51, 74
11, 17729, Note_on_c, 9, 51, 0
11, 17730, Note_on_c, 9, 36, 69
11, 17742, Note_on_c, 9, 36, 0
11, 17760, Note_on_c, 9, 36, 69
11, 17773, Note_on_c, 9, 36, 0
11, 17820, Note_on_c, 9, 51, 75
11, 17844, Note_on_c, 9, 51, 0
11, 17850, Note_on_c, 9, 36, 62
11, 17862, Note_on_c, 9, 36, 0
11, 17880, Note_on_c, 9, 36, 69
11, 17896, Note_on_c, 9, 36, 0
11, 17940, Note_on_c, 9, 51, 65
11, 17970, Note_on_c, 9, 36, 67
11, 17975, Note_on_c, 9, 51, 0
11, 17982, Note_on_c, 9, 36, 0
11, 18000, Note_on_c, 9, 36, 63
11, 18013, Note_on_c, 9, 36, 0
11, 18060, Note_on_c, 9, 51, 75
11, 18085, Note_on_c, 9, 51, 0
11, 18090, Note_on_c, 9, 36, 67
11, 18100, Note_on_c, 9, 36, 0
11, 18120, Note_on_c, 9, 36, 67
11, 18134, Note_on_c, 9, 36, 0
11, 18180, Note_on_c, 9, 51, 79
11, 18203, Note_on_c, 9, 51, 0
11, 18210, Note_on_c, 9, 36, 64
11, 18240, Note_on_c, 9, 36, 65
11, 18266, Note_on_c, 9, 36, 0
11, 18300, Note_on_c, 9, 51, 74
11, 18323, Note_on_c, 9, 51, 0
11, 18329, Note_on_c, 9, 36, 0
11, 18330, Note_on_c, 9, 36, 75
11, 18341, Note_on_c, 9, 36, 0
11, 18360, Note_on_c, 9, 36, 79
11, 18375, Note_on_c, 9, 36, 0
11, 18420, Note_on_c, 9, 51, 72
11, 18450, Note_on_c, 9, 51, 0
11, 18450, Note_on_c, 9, 36, 67
11, 18463, Note_on_c, 9, 36, 0
11, 18480, Note_on_c, 9, 36, 74
11, 18497, Note_on_c, 9, 36, 0
11, 18540, Note_on_c, 9, 51, 75
11, 18567, Note_on_c, 9, 51, 0
11, 18570, Note_on_c, 9, 36, 72
11, 18582, Note_on_c, 9, 36, 0
11, 18600, Note_on_c, 9, 36, 72
11, 18615, Note_on_c, 9, 36, 0
11, 18660, Note_on_c, 9, 51, 75
11, 18685, Note_on_c, 9, 51, 0
11, 18690, Note_on_c, 9, 36, 64
11, 18701, Note_on_c, 9, 36, 0
11, 18720, Note_on_c, 9, 36, 69
11, 18736, Note_on_c, 9, 36, 0
11, 18780, Note_on_c, 9, 51, 79
11, 18804, Note_on_c, 9, 51, 0
11, 18810, Note_on_c, 9, 36, 69
11, 18822, Note_on_c, 9, 36, 0
11, 18840, Note_on_c, 9, 36, 69
11, 18856, Note_on_c, 9, 36, 0
11, 18900, Note_on_c, 9, 51, 84
11, 18921, Note_on_c, 9, 51, 0
11, 18930, Note_on_c, 9, 36, 72
11, 18941, Note_on_c, 9, 36, 0
11, 18960, Note_on_c, 9, 36, 69
11, 18975, Note_on_c, 9, 36, 0
11, 19020, Note_on_c, 9, 51, 79
11, 19041, Note_on_c, 9, 51, 0
11, 19050, Note_on_c, 9, 36, 65
11, 19062, Note_on_c, 9, 36, 0
11, 19080, Note_on_c, 9, 36, 67
11, 19095, Note_on_c, 9, 36, 0
11, 19140, Note_on_c, 9, 51, 74
11, 19158, Note_on_c, 9, 51, 0
11, 19170, Note_on_c, 9, 36, 61
11, 19181, Note_on_c, 9, 36, 0
11, 19200, Note_on_c, 9, 36, 74
11, 19213, Note_on_c, 9, 36, 0
11, 19260, Note_on_c, 9, 51, 75
11, 19282, Note_on_c, 9, 51, 0
11, 19290, Note_on_c, 9, 36, 67
11, 19302, Note_on_c, 9, 36, 0
11, 19320, Note_on_c, 9, 36, 72
11, 19334, Note_on_c, 9, 36, 0
11, 19380, Note_on_c, 9, 51, 69
11, 19405, Note_on_c, 9, 51, 0
11, 19410, Note_on_c, 9, 36, 72
11, 19423, Note_on_c, 9, 36, 0
11, 19440, Note_on_c, 9, 36, 67
11, 19455, Note_on_c, 9, 36, 0
11, 19500, Note_on_c, 9, 51, 75
11, 19520, Note_on_c, 9, 51, 0
11, 19530, Note_on_c, 9, 36, 69
11, 19543, Note_on_c, 9, 36, 0
11, 19560, Note_on_c, 9, 36, 63
11, 19574, Note_on_c, 9, 36, 0
11, 19620, Note_on_c, 9, 51, 72
11, 19645, Note_on_c, 9, 51, 0
11, 19650, Note_on_c, 9, 36, 69
11, 19662, Note_on_c, 9, 36, 0
11, 19680, Note_on_c, 9, 36, 69
11, 19693, Note_on_c, 9, 36, 0
11, 19740, Note_on_c, 9, 51, 74
11, 19760, Note_on_c, 9, 51, 0
11, 19770, Note_on_c, 9, 36, 62
11, 19782, Note_on_c, 9, 36, 0
11, 19800, Note_on_c, 9, 36, 69
11, 19816, Note_on_c, 9, 36, 0
11, 19860, Note_on_c, 9, 51, 79
11, 19887, Note_on_c, 9, 51, 0
11, 19890, Note_on_c, 9, 36, 67
11, 19902, Note_on_c, 9, 36, 0
11, 19920, Note_on_c, 9, 36, 63
11, 19933, Note_on_c, 9, 36, 0
11, 19980, Note_on_c, 9, 51, 69
11, 20004, Note_on_c, 9, 51, 0
11, 20010, Note_on_c, 9, 36, 67
11, 20020, Note_on_c, 9, 36, 0
11, 20040, Note_on_c, 9, 36, 67
11, 20054, Note_on_c, 9, 36, 0
11, 20100, Note_on_c, 9, 51, 74
11, 20124, Note_on_c, 9, 51, 0
11, 20160, Note_on_c, 9, 36, 65
11, 20186, Note_on_c, 9, 36, 0
11, 20220, Note_on_c, 9, 51, 72
11, 20236, Note_on_c, 9, 51, 0
11, 20250, Note_on_c, 9, 36, 75
11, 20261, Note_on_c, 9, 36, 0
11, 20280, Note_on_c, 9, 36, 79
11, 20295, Note_on_c, 9, 36, 0
11, 20340, Note_on_c, 9, 51, 75
11, 20366, Note_on_c, 9, 51, 0
11, 20370, Note_on_c, 9, 36, 67
11, 20383, Note_on_c, 9, 36, 0
11, 20400, Note_on_c, 9, 36, 74
11, 20417, Note_on_c, 9, 36, 0
11, 20460, Note_on_c, 9, 51, 79
11, 20478, Note_on_c, 9, 51, 0
11, 20490, Note_on_c, 9, 36, 72
11, 20502, Note_on_c, 9, 36, 0
11, 20520, Note_on_c, 9, 36, 72
11, 20535, Note_on_c, 9, 36, 0
11, 20580, Note_on_c, 9, 51, 65
11, 20603, Note_on_c, 9, 51, 0
11, 20610, Note_on_c, 9, 36, 64
11, 20621, Note_on_c, 9, 36, 0
11, 20640, Note_on_c, 9, 36, 69
11, 20656, Note_on_c, 9, 36, 0
11, 20700, Note_on_c, 9, 51, 69
11, 20724, Note_on_c, 9, 51, 0
11, 20730, Note_on_c, 9, 36, 69
11, 20742, Note_on_c, 9, 36, 0
11, 20760, Note_on_c, 9, 36, 69
11, 20776, Note_on_c, 9, 36, 0
11, 20820, Note_on_c, 9, 51, 75
11, 20843, Note_on_c, 9, 51, 0
11, 20850, Note_on_c, 9, 36, 72
11, 20861, Note_on_c, 9, 36, 0
11, 20880, Note_on_c, 9, 36, 69
11, 20895, Note_on_c, 9, 36, 0
11, 20940, Note_on_c, 9, 51, 67
11, 20963, Note_on_c, 9, 51, 0
11, 20970, Note_on_c, 9, 36, 65
11, 20982, Note_on_c, 9, 36, 0
11, 21000, Note_on_c, 9, 36, 67
11, 21015, Note_on_c, 9, 36, 0
11, 21060, Note_on_c, 9, 51, 75
11, 21087, Note_on_c, 9, 51, 0
11, 21090, Note_on_c, 9, 36, 61
11, 21101, Note_on_c, 9, 36, 0
11, 21120, Note_on_c, 9, 36, 74
11, 21133, Note_on_c, 9, 36, 0
11, 21180, Note_on_c, 9, 51, 74
11, 21200, Note_on_c, 9, 51, 0
11, 21210, Note_on_c, 9, 36, 67
11, 21222, Note_on_c, 9, 36, 0
11, 21240, Note_on_c, 9, 36, 72
11, 21254, Note_on_c, 9, 36, 0
11, 21300, Note_on_c, 9, 51, 72
11, 21322, Note_on_c, 9, 51, 0
11, 21330, Note_on_c, 9, 36, 72
11, 21343, Note_on_c, 9, 36, 0
11, 21360, Note_on_c, 9, 36, 67
11, 21375, Note_on_c, 9, 36, 0
11, 21420, Note_on_c, 9, 51, 72
11, 21447, Note_on_c, 9, 51, 0
11, 21450, Note_on_c, 9, 36, 69
11, 21463, Note_on_c, 9, 36, 0
11, 21480, Note_on_c, 9, 36, 63
11, 21494, Note_on_c, 9, 36, 0
11, 21540, Note_on_c, 9, 51, 74
11, 21569, Note_on_c, 9, 51, 0
11, 21570, Note_on_c, 9, 36, 69
11, 21582, Note_on_c, 9, 36, 0
11, 21600, Note_on_c, 9, 36, 69
11, 21613, Note_on_c, 9, 36, 0
11, 21660, Note_on_c, 9, 51, 75
11, 21684, Note_on_c, 9, 51, 0
11, 21690, Note_on_c, 9, 36, 62
11, 21702, Note_on_c, 9, 36, 0
11, 21720, Note_on_c, 9, 36, 69
11, 21736, Note_on_c, 9, 36, 0
11, 21780, Note_on_c, 9, 51, 65
11, 21810, Note_on_c, 9, 36, 67
11, 21815, Note_on_c, 9, 51, 0
11, 21822, Note_on_c, 9, 36, 0
11, 21840, Note_on_c, 9, 36, 63
11, 21853, Note_on_c, 9, 36, 0
11, 21900, Note_on_c, 9, 51, 75
11, 21925, Note_on_c, 9, 51, 0
11, 21930, Note_on_c, 9, 36, 67
11, 21940, Note_on_c, 9, 36, 0
11, 21960, Note_on_c, 9, 36, 67
11, 21974, Note_on_c, 9, 36, 0
11, 22020, Note_on_c, 9, 51, 79
11, 22043, Note_on_c, 9, 51, 0
11, 22080, Note_on_c, 9, 36, 65
11, 22106, Note_on_c, 9, 36, 0
11, 22140, Note_on_c, 9, 51, 74
11, 22163, Note_on_c, 9, 51, 0
11, 22170, Note_on_c, 9, 36, 75
11, 22181, Note_on_c, 9, 36, 0
11, 22200, Note_on_c, 9, 36, 79
11, 22215, Note_on_c, 9, 36, 0
11, 22260, Note_on_c, 9, 51, 72
11, 22290, Note_on_c, 9, 51, 0
11, 22290, Note_on_c, 9, 36, 67
11, 22303, Note_on_c, 9, 36, 0
11, 22320, Note_on_c, 9, 36, 74
11, 22337, Note_on_c, 9, 36, 0
11, 22380, Note_on_c, 9, 51, 75
11, 22407, Note_on_c, 9, 51, 0
11, 22410, Note_on_c, 9, 36, 72
11, 22422, Note_on_c, 9, 36, 0
11, 22440, Note_on_c, 9, 36, 72
11, 22455, Note_on_c, 9, 36, 0
11, 22500, Note_on_c, 9, 51, 75
11, 22525, Note_on_c, 9, 51, 0
11, 22530, Note_on_c, 9, 36, 64
11, 22541, Note_on_c, 9, 36, 0
11, 22560, Note_on_c, 9, 36, 69
11, 22576, Note_on_c, 9, 36, 0
11, 22620, Note_on_c, 9, 51, 79
11, 22644, Note_on_c, 9, 51, 0
11, 22650, Note_on_c, 9, 36, 69
11, 22662, Note_on_c, 9, 36, 0
11, 22680, Note_on_c, 9, 36, 69
11, 22696, Note_on_c, 9, 36, 0
11, 22740, Note_on_c, 9, 51, 84
11, 22761, Note_on_c, 9, 51, 0
11, 22770, Note_on_c, 9, 36, 72
11, 22781, Note_on_c, 9, 36, 0
11, 22800, Note_on_c, 9, 36, 69
11, 22815, Note_on_c, 9, 36, 0
11, 22860, Note_on_c, 9, 51, 79
11, 22881, Note_on_c, 9, 51, 0
11, 22890, Note_on_c, 9, 36, 65
11, 22902, Note_on_c, 9, 36, 0
11, 22920, Note_on_c, 9, 36, 67
11, 22935, Note_on_c, 9, 36, 0
11, 22980, Note_on_c, 9, 51, 74
11, 22998, Note_on_c, 9, 51, 0
11, 23010, Note_on_c, 9, 36, 61
11, 23021, Note_on_c, 9, 36, 0
11, 23040, Note_on_c, 9, 36, 74
11, 23053, Note_on_c, 9, 36, 0
11, 23100, Note_on_c, 9, 51, 75
11, 23122, Note_on_c, 9, 51, 0
11, 23130, Note_on_c, 9, 36, 67
11, 23142, Note_on_c, 9, 36, 0
11, 23160, Note_on_c, 9, 36, 72
11, 23174, Note_on_c, 9, 36, 0
11, 23220, Note_on_c, 9, 51, 69
11, 23245, Note_on_c, 9, 51, 0
11, 23250, Note_on_c, 9, 36, 72
11, 23263, Note_on_c, 9, 36, 0
11, 23280, Note_on_c, 9, 36, 67
11, 23295, Note_on_c, 9, 36, 0
11, 23340, Note_on_c, 9, 51, 75
11, 23360, Note_on_c, 9, 51, 0
11, 23370, Note_on_c, 9, 36, 69
11, 23383, Note_on_c, 9, 36, 0
11, 23400, Note_on_c, 9, 36, 63
11, 23414, Note_on_c, 9, 36, 0
11, 23460, Note_on_c, 9, 51, 72
11, 23485, Note_on_c, 9, 51, 0
11, 23490, Note_on_c, 9, 36, 69
11, 23502, Note_on_c, 9, 36, 0
11, 23520, Note_on_c, 9, 36, 69
11, 23533, Note_on_c, 9, 36, 0
11, 23580, Note_on_c, 9, 51, 74
11, 23600, Note_on_c, 9, 51, 0
11, 23610, Note_on_c, 9, 36, 62
11, 23622, Note_on_c, 9, 36, 0
11, 23640, Note_on_c, 9, 36, 69
11, 23656, Note_on_c, 9, 36, 0
11, 23700, Note_on_c, 9, 51, 79
11, 23727, Note_on_c, 9, 51, 0
11, 23730, Note_on_c, 9, 36, 67
11, 23742, Note_on_c, 9, 36, 0
11, 23760, Note_on_c, 9, 36, 63
11, 23773, Note_on_c, 9, 36, 0
11, 23820, Note_on_c, 9, 51, 69
11, 23844, Note_on_c, 9, 51, 0
11, 23850, Note_on_c, 9, 36, 67
11, 23860, Note_on_c, 9, 36, 0
11, 23880, Note_on_c, 9, 36, 67
11, 23894, Note_on_c, 9, 36, 0
11, 23940, Note_on_c, 9, 51, 74
11, 23964, Note_on_c, 9, 51, 0
11, 23970, Note_on_c, 9, 36, 72
11, 23980, Note_on_c, 9, 36, 0
11, 24000, Note_on_c, 9, 36, 65
11, 24026, Note_on_c, 9, 36, 0
11, 24060, Note_on_c, 9, 51, 72
11, 24076, Note_on_c, 9, 51, 0
11, 24090, Note_on_c, 9, 36, 75
11, 24101, Note_on_c, 9, 36, 0
11, 24120, Note_on_c, 9, 36, 79
11, 24135, Note_on_c, 9, 36, 0
11, 24180, Note_on_c, 9, 51, 75
11, 24206, Note_on_c, 9, 51, 0
11, 24210, Note_on_c, 9, 36, 67
11, 24223, Note_on_c, 9, 36, 0
11, 24240, Note_on_c, 9, 36, 74
11, 24257, Note_on_c, 9, 36, 0
11, 24300, Note_on_c, 9, 51, 79
11, 24318, Note_on_c, 9, 51, 0
11, 24330, Note_on_c, 9, 36, 72
11, 24342, Note_on_c, 9, 36, 0
11, 24360, Note_on_c, 9, 36, 72
11, 24375, Note_on_c, 9, 36, 0
11, 24420, Note_on_c, 9, 51, 65
11, 24443, Note_on_c, 9, 51, 0
11, 24450, Note_on_c, 9, 36, 64
11, 24461, Note_on_c, 9, 36, 0
11, 24480, Note_on_c, 9, 36, 69
11, 24496, Note_on_c, 9, 36, 0
11, 24540, Note_on_c, 9, 51, 69
11, 24564, Note_on_c, 9, 51, 0
11, 24570, Note_on_c, 9, 36, 69
11, 24582, Note_on_c, 9, 36, 0
11, 24600, Note_on_c, 9, 36, 69
11, 24616, Note_on_c, 9, 36, 0
11, 24660, Note_on_c, 9, 51, 75
11, 24683, Note_on_c, 9, 51, 0
11, 24690, Note_on_c, 9, 36, 72
11, 24701, Note_on_c, 9, 36, 0
11, 24720, Note_on_c, 9, 36, 69
11, 24735, Note_on_c, 9, 36, 0
11, 24780, Note_on_c, 9, 51, 67
11, 24803, Note_on_c, 9, 51, 0
11, 24810, Note_on_c, 9, 36, 65
11, 24822, Note_on_c, 9, 36, 0
11, 24840, Note_on_c, 9, 36, 67
11, 24855, Note_on_c, 9, 36, 0
11, 24900, Note_on_c, 9, 51, 75
11, 24927, Note_on_c, 9, 51, 0
11, 24930, Note_on_c, 9, 36, 61
11, 24941, Note_on_c, 9, 36, 0
11, 24960, Note_on_c, 9, 36, 74
11, 24973, Note_on_c, 9, 36, 0
11, 25020, Note_on_c, 9, 51, 74
11, 25040, Note_on_c, 9, 51, 0
11, 25050, Note_on_c, 9, 36, 67
11, 25062, Note_on_c, 9, 36, 0
11, 25080, Note_on_c, 9, 36, 72
11, 25094, Note_on_c, 9, 36, 0
11, 25140, Note_on_c, 9, 51, 72
11, 25162, Note_on_c, 9, 51, 0
11, 25170, Note_on_c, 9, 36, 72
11, 25183, Note_on_c, 9, 36, 0
11, 25200, Note_on_c, 9, 36, 67
11, 25215, Note_on_c, 9, 36, 0
11, 25260, Note_on_c, 9, 51, 72
11, 25287, Note_on_c, 9, 51, 0
11, 25290, Note_on_c, 9, 36, 69
11, 25303, Note_on_c, 9, 36, 0
11, 25320, Note_on_c, 9, 36, 63
11, 25334, Note_on_c, 9, 36, 0
11, 25380, Note_on_c, 9, 51, 74
11, 25409, Note_on_c, 9, 51, 0
11, 25410, Note_on_c, 9, 36, 69
11, 25422, Note_on_c, 9, 36, 0
11, 25440, Note_on_c, 9, 36, 69
11, 25453, Note_on_c, 9, 36, 0
11, 25500, Note_on_c, 9, 51, 75
11, 25524, Note_on_c, 9, 51, 0
11, 25530, Note_on_c, 9, 36, 62
11, 25542, Note_on_c, 9, 36, 0
11, 25560, Note_on_c, 9, 36, 69
11, 25576, Note_on_c, 9, 36, 0
11, 25620, Note_on_c, 9, 51, 65
11, 25650, Note_on_c, 9, 36, 67
11, 25655, Note_on_c, 9, 51, 0
11, 25662, Note_on_c, 9, 36, 0
11, 25680, Note_on_c, 9, 36, 63
11, 25693, Note_on_c, 9, 36, 0
11, 25740, Note_on_c, 9, 51, 75
11, 25765, Note_on_c, 9, 51, 0
11, 25770, Note_on_c, 9, 58, 100
11, 25786, Note_on_c, 9, 58, 0
11, 25800, Note_on_c, 9, 36, 67
11, 25814, Note_on_c, 9, 36, 0
11, 25860, Note_on_c, 9, 51, 79
11, 25883, Note_on_c, 9, 51, 0
11, 25890, Note_on_c, 9, 36, 64
11, 25920, Note_on_c, 9, 36, 65
11, 25946, Note_on_c, 9, 36, 0
11, 25980, Note_on_c, 9, 51, 74
11, 26003, Note_on_c, 9, 51, 0
11, 26009, Note_on_c, 9, 36, 0
11, 26010, Note_on_c, 9, 36, 75
11, 26010, Note_on_c, 9, 58, 100
11, 26021, Note_on_c, 9, 36, 0
11, 26022, Note_on_c, 9, 58, 0
11, 26040, Note_on_c, 9, 36, 79
11, 26055, Note_on_c, 9, 36, 0
11, 26100, Note_on_c, 9, 51, 72
11, 26130, Note_on_c, 9, 51, 0
11, 26130, Note_on_c, 9, 36, 67
11, 26143, Note_on_c, 9, 36, 0
11, 26160, Note_on_c, 9, 36, 74
11, 26177, Note_on_c, 9, 36, 0
11, 26220, Note_on_c, 9, 51, 75
11, 26247, Note_on_c, 9, 51, 0
11, 26250, Note_on_c, 9, 36, 72
11, 26250, Note_on_c, 9, 58, 100
11, 26262, Note_on_c, 9, 36, 0
11, 26264, Note_on_c, 9, 58, 0
11, 26280, Note_on_c, 9, 36, 72
11, 26295, Note_on_c, 9, 36, 0
11, 26340, Note_on_c, 9, 51, 75
11, 26365, Note_on_c, 9, 51, 0
11, 26370, Note_on_c, 9, 36, 64
11, 26381, Note_on_c, 9, 36, 0
11, 26400, Note_on_c, 9, 36, 69
11, 26416, Note_on_c, 9, 36, 0
11, 26460, Note_on_c, 9, 51, 79
11, 26484, Note_on_c, 9, 51, 0
11, 26490, Note_on_c, 9, 36, 69
11, 26490, Note_on_c, 9, 58, 100
11, 26501, Note_on_c, 9, 58, 0
11, 26502, Note_on_c, 9, 36, 0
11, 26520, Note_on_c, 9, 36, 69
11, 26536, Note_on_c, 9, 36, 0
11, 26580, Note_on_c, 9, 51, 84
11, 26601, Note_on_c, 9, 51, 0
11, 26610, Note_on_c, 9, 36, 72
11, 26621, Note_on_c, 9, 36, 0
11, 26640, Note_on_c, 9, 36, 69
11, 26655, Note_on_c, 9, 36, 0
11, 26700, Note_on_c, 9, 51, 79
11, 26721, Note_on_c, 9, 51, 0
11, 26730, Note_on_c, 9, 36, 65
11, 26742, Note_on_c, 9, 36, 0
11, 26760, Note_on_c, 9, 36, 67
11, 26775, Note_on_c, 9, 36, 0
11, 26820, Note_on_c, 9, 51, 74
11, 26838, Note_on_c, 9, 51, 0
11, 26850, Note_on_c, 9, 36, 61
11, 26861, Note_on_c, 9, 36, 0
11, 26880, Note_on_c, 9, 36, 74
11, 26893, Note_on_c, 9, 36, 0
11, 26940, Note_on_c, 9, 51, 75
11, 26962, Note_on_c, 9, 51, 0
11, 26970, Note_on_c, 9, 36, 67
11, 26982, Note_on_c, 9, 36, 0
11, 27000, Note_on_c, 9, 36, 72
11, 27000, Note_on_c, 9, 52, 100
11, 27014, Note_on_c, 9, 36, 0
11, 27021, Note_on_c, 9, 52, 0
11, 27060, Note_on_c, 9, 51, 69
11, 27085, Note_on_c, 9, 51, 0
11, 27090, Note_on_c, 9, 36, 72
11, 27103, Note_on_c, 9, 36, 0
11, 27120, Note_on_c, 9, 36, 67
11, 27135, Note_on_c, 9, 36, 0
11, 27180, Note_on_c, 9, 51, 75
11, 27200, Note_on_c, 9, 51, 0
11, 27210, Note_on_c, 9, 36, 69
11, 27223, Note_on_c, 9, 36, 0
11, 27240, Note_on_c, 9, 36, 63
11, 27254, Note_on_c, 9, 36, 0
11, 27300, Note_on_c, 9, 51, 72
11, 27325, Note_on_c, 9, 51, 0
11, 27330, Note_on_c, 9, 36, 69
11, 27342, Note_on_c, 9, 36, 0
11, 27360, Note_on_c, 9, 36, 69
11, 27373, Note_on_c, 9, 36, 0
11, 27420, Note_on_c, 9, 51, 74
11, 27440, Note_on_c, 9, 51, 0
11, 27450, Note_on_c, 9, 36, 62
11, 27462, Note_on_c, 9, 36, 0
11, 27480, Note_on_c, 9, 36, 69
11, 27496, Note_on_c, 9, 36, 0
11, 27540, Note_on_c, 9, 51, 79
11, 27567, Note_on_c, 9, 51, 0
11, 27570, Note_on_c, 9, 36, 67
11, 27582, Note_on_c, 9, 36, 0
11, 27600, Note_on_c, 9, 36, 63
11, 27613, Note_on_c, 9, 36, 0
11, 27660, Note_on_c, 9, 51, 69
11, 27684, Note_on_c, 9, 51, 0
11, 27690, Note_on_c, 9, 36, 67
11, 27700, Note_on_c, 9, 36, 0
11, 27720, Note_on_c, 9, 36, 67
11, 27734, Note_on_c, 9, 36, 0
11, 27780, Note_on_c, 9, 51, 74
11, 27804, Note_on_c, 9, 51, 0
11, 27810, Note_on_c, 9, 36, 64
11, 27840, Note_on_c, 9, 36, 65
11, 27866, Note_on_c, 9, 36, 0
11, 27900, Note_on_c, 9, 51, 72
11, 27916, Note_on_c, 9, 51, 0
11, 27929, Note_on_c, 9, 36, 0
11, 27930, Note_on_c, 9, 36, 75
11, 27941, Note_on_c, 9, 36, 0
11, 27960, Note_on_c, 9, 36, 79
11, 27960, Note_on_c, 9, 52, 100
11, 27975, Note_on_c, 9, 36, 0
11, 27984, Note_on_c, 9, 52, 0
11, 28020, Note_on_c, 9, 51, 75
11, 28046, Note_on_c, 9, 51, 0
11, 28050, Note_on_c, 9, 36, 67
11, 28063, Note_on_c, 9, 36, 0
11, 28080, Note_on_c, 9, 36, 74
11, 28097, Note_on_c, 9, 36, 0
11, 28140, Note_on_c, 9, 51, 79
11, 28158, Note_on_c, 9, 51, 0
11, 28170, Note_on_c, 9, 36, 72
11, 28182, Note_on_c, 9, 36, 0
11, 28200, Note_on_c, 9, 36, 72
11, 28215, Note_on_c, 9, 36, 0
11, 28260, Note_on_c, 9, 51, 65
11, 28283, Note_on_c, 9, 51, 0
11, 28290, Note_on_c, 9, 36, 64
11, 28301, Note_on_c, 9, 36, 0
11, 28320, Note_on_c, 9, 36, 69
11, 28336, Note_on_c, 9, 36, 0
11, 28380, Note_on_c, 9, 51, 69
11, 28404, Note_on_c, 9, 51, 0
11, 28410, Note_on_c, 9, 36, 69
11, 28422, Note_on_c, 9, 36, 0
11, 28440, Note_on_c, 9, 36, 69
11, 28456, Note_on_c, 9, 36, 0
11, 28500, Note_on_c, 9, 51, 75
11, 28523, Note_on_c, 9, 51, 0
11, 28530, Note_on_c, 9, 36, 72
11, 28541, Note_on_c, 9, 36, 0
11, 28560, Note_on_c, 9, 36, 69
11, 28575, Note_on_c, 9, 36, 0
11, 28620, Note_on_c, 9, 51, 67
11, 28643, Note_on_c, 9, 51, 0
11, 28650, Note_on_c, 9, 36, 65
11, 28662, Note_on_c, 9, 36, 0
11, 28680, Note_on_c, 9, 36, 67
11, 28695, Note_on_c, 9, 36, 0
11, 28740, Note_on_c, 9, 51, 75
11, 28767, Note_on_c, 9, 51, 0
11, 28770, Note_on_c, 9, 36, 61
11, 28781, Note_on_c, 9, 36, 0
11, 28800, Note_on_c, 9, 36, 74
11, 28813, Note_on_c, 9, 36, 0
11, 28860, Note_on_c, 9, 51, 74
11, 28880, Note_on_c, 9, 51, 0
11, 28890, Note_on_c, 9, 36, 67
11, 28902, Note_on_c, 9, 36, 0
11, 28920, Note_on_c, 9, 36, 72
11, 28920, Note_on_c, 9, 52, 114
11, 28934, Note_on_c, 9, 36, 0
11, 28940, Note_on_c, 9, 52, 0
11, 28980, Note_on_c, 9, 51, 72
11, 29002, Note_on_c, 9, 51, 0
11, 29010, Note_on_c, 9, 36, 72
11, 29023, Note_on_c, 9, 36, 0
11, 29040, Note_on_c, 9, 36, 67
11, 29055, Note_on_c, 9, 36, 0
11, 29100, Note_on_c, 9, 51, 72
11, 29127, Note_on_c, 9, 51, 0
11, 29130, Note_on_c, 9, 36, 69
11, 29143, Note_on_c, 9, 36, 0
11, 29160, Note_on_c, 9, 36, 63
11, 29174, Note_on_c, 9, 36, 0
11, 29220, Note_on_c, 9, 51, 74
11, 29249, Note_on_c, 9, 51, 0
11, 29250, Note_on_c, 9, 36, 69
11, 29262, Note_on_c, 9, 36, 0
11, 29280, Note_on_c, 9, 36, 69
11, 29293, Note_on_c, 9, 36, 0
11, 29340, Note_on_c, 9, 51, 75
11, 29364, Note_on_c, 9, 51, 0
11, 29370, Note_on_c, 9, 36, 62
11, 29382, Note_on_c, 9, 36, 0
11, 29400, Note_on_c, 9, 36, 69
11, 29416, Note_on_c, 9, 36, 0
11, 29460, Note_on_c, 9, 51, 65
11, 29490, Note_on_c, 9, 36, 67
11, 29495, Note_on_c, 9, 51, 0
11, 29502, Note_on_c, 9, 36, 0
11, 29520, Note_on_c, 9, 36, 63
11, 29533, Note_on_c, 9, 36, 0
11, 29580, Note_on_c, 9, 51, 75
11, 29605, Note_on_c, 9, 51, 0
11, 29610, Note_on_c, 9, 36, 67
11, 29620, Note_on_c, 9, 36, 0
11, 29640, Note_on_c, 9, 36, 67
11, 29654, Note_on_c, 9, 36, 0
11, 29700, Note_on_c, 9, 51, 79
11, 29723, Note_on_c, 9, 51, 0
11, 29730, Note_on_c, 9, 36, 84
11, 29760, Note_on_c, 9, 36, 65
11, 29786, Note_on_c, 9, 36, 0
11, 29820, Note_on_c, 9, 51, 74
11, 29843, Note_on_c, 9, 51, 0
11, 29849, Note_on_c, 9, 36, 0
11, 29850, Note_on_c, 9, 36, 75
11, 29861, Note_on_c, 9, 36, 0
11, 29880, Note_on_c, 9, 36, 79
11, 29880, Note_on_c, 9, 52, 114
11, 29895, Note_on_c, 9, 36, 0
11, 29901, Note_on_c, 9, 52, 0
11, 29940, Note_on_c, 9, 51, 72
11, 29970, Note_on_c, 9, 51, 0
11, 29970, Note_on_c, 9, 36, 67
11, 29983, Note_on_c, 9, 36, 0
11, 30000, Note_on_c, 9, 36, 74
11, 30017, Note_on_c, 9, 36, 0
11, 30060, Note_on_c, 9, 51, 75
11, 30087, Note_on_c, 9, 51, 0
11, 30090, Note_on_c, 9, 36, 72
11, 30102, Note_on_c, 9, 36, 0
11, 30120, Note_on_c, 9, 36, 72
11, 30135, Note_on_c, 9, 36, 0
11, 30180, Note_on_c, 9, 51, 75
11, 30205, Note_on_c, 9, 51, 0
11, 30210, Note_on_c, 9, 36, 64
11, 30210, Note_on_c, 9, 52, 110
11, 30221, Note_on_c, 9, 36, 0
11, 30241, Note_on_c, 9, 52, 0
11, 30480, Note_on_c, 9, 36, 69
11, 30480, Note_on_c, 9, 36, 65
11, 30506, Note_on_c, 9, 36, 0
11, 30540, Note_on_c, 9, 51, 74
11, 30563, Note_on_c, 9, 51, 0
11, 30570, Note_on_c, 9, 36, 75
11, 30581, Note_on_c, 9, 36, 0
11, 30599, Note_on_c, 9, 36, 0
11, 30600, Note_on_c, 9, 36, 79
11, 30615, Note_on_c, 9, 36, 0
11, 30660, Note_on_c, 9, 51, 72
11, 30690, Note_on_c, 9, 51, 0
11, 30690, Note_on_c, 9, 36, 67
11, 30703, Note_on_c, 9, 36, 0
11, 30720, Note_on_c, 9, 36, 74
11, 30737, Note_on_c, 9, 36, 0
11, 30780, Note_on_c, 9, 51, 75
11, 30807, Note_on_c, 9, 51, 0
11, 30810, Note_on_c, 9, 36, 72
11, 30822, Note_on_c, 9, 36, 0
11, 30840, Note_on_c, 9, 36, 72
11, 30855, Note_on_c, 9, 36, 0
11, 30900, Note_on_c, 9, 51, 75
11, 30925, Note_on_c, 9, 51, 0
11, 30930, Note_on_c, 9, 36, 64
11, 30941, Note_on_c, 9, 36, 0
11, 30960, Note_on_c, 9, 36, 69
11, 30976, Note_on_c, 9, 36, 0
11, 31020, Note_on_c, 9, 51, 79
11, 31044, Note_on_c, 9, 51, 0
11, 31050, Note_on_c, 9, 36, 69
11, 31062, Note_on_c, 9, 36, 0
11, 31080, Note_on_c, 9, 36, 69
11, 31096, Note_on_c, 9, 36, 0
11, 31140, Note_on_c, 9, 51, 84
11, 31161, Note_on_c, 9, 51, 0
11, 31170, Note_on_c, 9, 36, 72
11, 31181, Note_on_c, 9, 36, 0
11, 31200, Note_on_c, 9, 36, 69
11, 31215, Note_on_c, 9, 36, 0
11, 31260, Note_on_c, 9, 51, 79
11, 31281, Note_on_c, 9, 51, 0
11, 31290, Note_on_c, 9, 36, 65
11, 31302, Note_on_c, 9, 36, 0
11, 31320, Note_on_c, 9, 36, 67
11, 31335, Note_on_c, 9, 36, 0
11, 31380, Note_on_c, 9, 51, 74
11, 31398, Note_on_c, 9, 51, 0
11, 31410, Note_on_c, 9, 36, 61
11, 31421, Note_on_c, 9, 36, 0
11, 31440, Note_on_c, 9, 36, 74
11, 31453, Note_on_c, 9, 36, 0
11, 31500, Note_on_c, 9, 51, 75
11, 31522, Note_on_c, 9, 51, 0
11, 31530, Note_on_c, 9, 36, 67
11, 31542, Note_on_c, 9, 36, 0
11, 31560, Note_on_c, 9, 36, 72
11, 31574, Note_on_c, 9, 36, 0
11, 31620, Note_on_c, 9, 51, 69
11, 31645, Note_on_c, 9, 51, 0
11, 31650, Note_on_c, 9, 36, 72
11, 31663, Note_on_c, 9, 36, 0
11, 31680, Note_on_c, 9, 36, 67
11, 31695, Note_on_c, 9, 36, 0
11, 31740, Note_on_c, 9, 51, 75
11, 31760, Note_on_c, 9, 51, 0
11, 31770, Note_on_c, 9, 36, 69
11, 31783, Note_on_c, 9, 36, 0
11, 31800, Note_on_c, 9, 36, 63
11, 31814, Note_on_c, 9, 36, 0
11, 31860, Note_on_c, 9, 51, 72
11, 31885, Note_on_c, 9, 51, 0
11, 31890, Note_on_c, 9, 36, 69
11, 31902, Note_on_c, 9, 36, 0
11, 31920, Note_on_c, 9, 36, 69
11, 31933, Note_on_c, 9, 36, 0
11, 31980, Note_on_c, 9, 51, 74
11, 32000, Note_on_c, 9, 51, 0
11, 32010, Note_on_c, 9, 36, 62
11, 32022, Note_on_c, 9, 36, 0
11, 32040, Note_on_c, 9, 36, 69
11, 32056, Note_on_c, 9, 36, 0
11, 32100, Note_on_c, 9, 51, 79
11, 32127, Note_on_c, 9, 51, 0
11, 32130, Note_on_c, 9, 36, 67
11, 32142, Note_on_c, 9, 36, 0
11, 32160, Note_on_c, 9, 36, 63
11, 32173, Note_on_c, 9, 36, 0
11, 32220, Note_on_c, 9, 51, 69
11, 32244, Note_on_c, 9, 51, 0
11, 32250, Note_on_c, 9, 36, 67
11, 32260, Note_on_c, 9, 36, 0
11, 32280, Note_on_c, 9, 36, 67
11, 32294, Note_on_c, 9, 36, 0
11, 32340, Note_on_c, 9, 51, 74
11, 32364, Note_on_c, 9, 51, 0
11, 32400, Note_on_c, 9, 36, 65
11, 32426, Note_on_c, 9, 36, 0
11, 32460, Note_on_c, 9, 51, 72
11, 32476, Note_on_c, 9, 51, 0
11, 32490, Note_on_c, 9, 36, 75
11, 32501, Note_on_c, 9, 36, 0
11, 32520, Note_on_c, 9, 36, 79
11, 32535, Note_on_c, 9, 36, 0
11, 32580, Note_on_c, 9, 51, 75
11, 32606, Note_on_c, 9, 51, 0
11, 32610, Note_on_c, 9, 36, 67
11, 32623, Note_on_c, 9, 36, 0
11, 32640, Note_on_c, 9, 36, 74
11, 32657, Note_on_c, 9, 36, 0
11, 32700, Note_on_c, 9, 51, 79
11, 32718, Note_on_c, 9, 51, 0
11, 32730, Note_on_c, 9, 36, 72
11, 32742, Note_on_c, 9, 36, 0
11, 32760, Note_on_c, 9, 36, 72
11, 32775, Note_on_c, 9, 36, 0
11, 32820, Note_on_c, 9, 51, 65
11, 32843, Note_on_c, 9, 51, 0
11, 32850, Note_on_c, 9, 36, 64
11, 32861, Note_on_c, 9, 36, 0
11, 32880, Note_on_c, 9, 36, 69
11, 32896, Note_on_c, 9, 36, 0
11, 32940, Note_on_c, 9, 51, 69
11, 32964, Note_on_c, 9, 51, 0
11, 32970, Note_on_c, 9, 36, 69
11, 32982, Note_on_c, 9, 36, 0
11, 33000, Note_on_c, 9, 36, 69
11, 33016, Note_on_c, 9, 36, 0
11, 33060, Note_on_c, 9, 51, 75
11, 33083, Note_on_c, 9, 51, 0
11, 33090, Note_on_c, 9, 36, 72
11, 33101, Note_on_c, 9, 36, 0
11, 33120, Note_on_c, 9, 36, 69
11, 33135, Note_on_c, 9, 36, 0
11, 33180, Note_on_c, 9, 51, 67
11, 33203, Note_on_c, 9, 51, 0
11, 33210, Note_on_c, 9, 36, 65
11, 33222, Note_on_c, 9, 36, 0
11, 33240, Note_on_c, 9, 36, 67
11, 33255, Note_on_c, 9, 36, 0
11, 33300, Note_on_c, 9, 51, 75
11, 33327, Note_on_c, 9, 51, 0
11, 33330, Note_on_c, 9, 36, 61
11, 33341, Note_on_c, 9, 36, 0
11, 33360, Note_on_c, 9, 36, 74
11, 33373, Note_on_c, 9, 36, 0
11, 33420, Note_on_c, 9, 51, 74
11, 33440, Note_on_c, 9, 51, 0
11, 33450, Note_on_c, 9, 36, 67
11, 33462, Note_on_c, 9, 36, 0
11, 33480, Note_on_c, 9, 36, 72
11, 33494, Note_on_c, 9, 36, 0
11, 33540, Note_on_c, 9, 51, 72
11, 33562, Note_on_c, 9, 51, 0
11, 33570, Note_on_c, 9, 36, 72
11, 33583, Note_on_c, 9, 36, 0
11, 33600, Note_on_c, 9, 36, 67
11, 33615, Note_on_c, 9, 36, 0
11, 33660, Note_on_c, 9, 51, 72
11, 33687, Note_on_c, 9, 51, 0
11, 33690, Note_on_c, 9, 36, 69
11, 33703, Note_on_c, 9, 36, 0
11, 33720, Note_on_c, 9, 36, 63
11, 33734, Note_on_c, 9, 36, 0
11, 33780, Note_on_c, 9, 51, 74
11, 33809, Note_on_c, 9, 51, 0
11, 33810, Note_on_c, 9, 36, 69
11, 33822, Note_on_c, 9, 36, 0
11, 33840, Note_on_c, 9, 36, 69
11, 33853, Note_on_c, 9, 36, 0
11, 33900, Note_on_c, 9, 51, 75
11, 33924, Note_on_c, 9, 51, 0
11, 33930, Note_on_c, 9, 36, 62
11, 33942, Note_on_c, 9, 36, 0
11, 33960, Note_on_c, 9, 36, 69
11, 33976, Note_on_c, 9, 36, 0
11, 34020, Note_on_c, 9, 51, 65
11, 34045, Control_c, 9, 93, 77
11, 34050, Note_on_c, 9, 36, 67
11, 34055, Note_on_c, 9, 51, 0
11, 34055, Control_c, 9, 93, 80
11, 34055, Control_c, 9, 93, 78
11, 34062, Note_on_c, 9, 36, 0
11, 34066, Control_c, 9, 93, 84
11, 34071, Control_c, 9, 93, 89
11, 34071, Control_c, 9, 93, 86
11, 34076, Control_c, 9, 93, 90
11, 34080, Note_on_c, 9, 36, 63
11, 34093, Note_on_c, 9, 36, 0
11, 34140, Note_on_c, 9, 51, 75
11, 34165, Note_on_c, 9, 51, 0
11, 34170, Note_on_c, 9, 36, 67
11, 34180, Note_on_c, 9, 36, 0
11, 34184, Control_c, 9, 93, 88
11, 34194, Control_c, 9, 93, 86
11, 34200, Control_c, 9, 93, 84
11, 34200, Note_on_c, 9, 36, 67
11, 34205, Control_c, 9, 93, 82
11, 34214, Note_on_c, 9, 36, 0
11, 34214, Control_c, 9, 93, 80
11, 34240, Control_c, 9, 93, 78
11, 34260, Note_on_c, 9, 51, 79
11, 34265, Control_c, 9, 93, 75
11, 34283, Note_on_c, 9, 51, 0
11, 34320, Note_on_c, 9, 36, 65
11, 34346, Note_on_c, 9, 36, 0
11, 34380, Note_on_c, 9, 51, 74
11, 34403, Note_on_c, 9, 51, 0
11, 34410, Note_on_c, 9, 36, 75
11, 34421, Note_on_c, 9, 36, 0
11, 34440, Note_on_c, 9, 36, 79
11, 34455, Note_on_c, 9, 36, 0
11, 34500, Note_on_c, 9, 51, 72
11, 34530, Note_on_c, 9, 51, 0
11, 34530, Note_on_c, 9, 36, 67
11, 34543, Note_on_c, 9, 36, 0
11, 34560, Note_on_c, 9, 36, 74
11, 34577, Note_on_c, 9, 36, 0
11, 34620, Note_on_c, 9, 51, 75
11, 34647, Note_on_c, 9, 51, 0
11, 34650, Note_on_c, 9, 36, 72
11, 34662, Note_on_c, 9, 36, 0
11, 34680, Note_on_c, 9, 36, 72
11, 34695, Note_on_c, 9, 36, 0
11, 34740, Note_on_c, 9, 51, 75
11, 34765, Note_on_c, 9, 51, 0
11, 34770, Note_on_c, 9, 36, 64
11, 34781, Note_on_c, 9, 36, 0
11, 34800, Note_on_c, 9, 36, 69
11, 34816, Note_on_c, 9, 36, 0
11, 34860, Note_on_c, 9, 51, 79
11, 34884, Note_on_c, 9, 51, 0
11, 34890, Note_on_c, 9, 36, 69
11, 34902, Note_on_c, 9, 36, 0
11, 34920, Note_on_c, 9, 36, 69
11, 34936, Note_on_c, 9, 36, 0
11, 34980, Note_on_c, 9, 51, 84
11, 35001, Note_on_c, 9, 51, 0
11, 35010, Note_on_c, 9, 36, 72
11, 35021, Note_on_c, 9, 36, 0
11, 35040, Note_on_c, 9, 36, 69
11, 35055, Note_on_c, 9, 36, 0
11, 35100, Note_on_c, 9, 51, 79
11, 35121, Note_on_c, 9, 51, 0
11, 35130, Note_on_c, 9, 36, 65
11, 35142, Note_on_c, 9, 36, 0
11, 35160, Note_on_c, 9, 36, 67
11, 35175, Note_on_c, 9, 36, 0
11, 35220, Note_on_c, 9, 51, 74
11, 35238, Note_on_c, 9, 51, 0
11, 35250, Note_on_c, 9, 36, 61
11, 35261, Note_on_c, 9, 36, 0
11, 35280, Note_on_c, 9, 36, 74
11, 35293, Note_on_c, 9, 36, 0
11, 35340, Note_on_c, 9, 51, 75
11, 35362, Note_on_c, 9, 51, 0
11, 35370, Note_on_c, 9, 36, 67
11, 35382, Note_on_c, 9, 36, 0
11, 35400, Note_on_c, 9, 36, 72
11, 35414, Note_on_c, 9, 36, 0
11, 35460, Note_on_c, 9, 51, 69
11, 35485, Note_on_c, 9, 51, 0
11, 35490, Note_on_c, 9, 36, 72
11, 35503, Note_on_c, 9, 36, 0
11, 35520, Note_on_c, 9, 36, 67
11, 35535, Note_on_c, 9, 36, 0
11, 35580, Note_on_c, 9, 51, 75
11, 35600, Note_on_c, 9, 51, 0
11, 35610, Note_on_c, 9, 36, 69
11, 35623, Note_on_c, 9, 36, 0
11, 35640, Note_on_c, 9, 36, 63
11, 35654, Note_on_c, 9, 36, 0
11, 35700, Note_on_c, 9, 51, 72
11, 35725, Note_on_c, 9, 51, 0
11, 35730, Note_on_c, 9, 36, 69
11, 35742, Note_on_c, 9, 36, 0
11, 35760, Note_on_c, 9, 36, 69
11, 35773, Note_on_c, 9, 36, 0
11, 35820, Note_on_c, 9, 51, 74
11, 35840, Note_on_c, 9, 51, 0
11, 35850, Note_on_c, 9, 36, 62
11, 35862, Note_on_c, 9, 36, 0
11, 35880, Note_on_c, 9, 36, 69
11, 35896, Note_on_c, 9, 36, 0
11, 35940, Note_on_c, 9, 51, 79
11, 35967, Note_on_c, 9, 51, 0
11, 35970, Note_on_c, 9, 36, 67
11, 35982, Note_on_c, 9, 36, 0
11, 36000, Note_on_c, 9, 36, 63
11, 36013, Note_on_c, 9, 36, 0
11, 36060, Note_on_c, 9, 51, 69
11, 36084, Note_on_c, 9, 51, 0
11, 36090, Note_on_c, 9, 36, 67
11, 36100, Note_on_c, 9, 36, 0
11, 36120, Note_on_c, 9, 36, 67
11, 36134, Note_on_c, 9, 36, 0
11, 36180, Note_on_c, 9, 51, 74
11, 36204, Note_on_c, 9, 51, 0
11, 36210, Note_on_c, 9, 36, 72
11, 36220, Note_on_c, 9, 36, 0
11, 36240, Note_on_c, 9, 36, 65
11, 36266, Note_on_c, 9, 36, 0
11, 36300, Note_on_c, 9, 51, 72
11, 36316, Note_on_c, 9, 51, 0
11, 36330, Note_on_c, 9, 36, 75
11, 36341, Note_on_c, 9, 36, 0
11, 36360, Note_on_c, 9, 36, 79
11, 36375, Note_on_c, 9, 36, 0
11, 36420, Note_on_c, 9, 51, 75
11, 36446, Note_on_c, 9, 51, 0
11, 36450, Note_on_c, 9, 36, 67
11, 36463, Note_on_c, 9, 36, 0
11, 36480, Note_on_c, 9, 36, 74
11, 36497, Note_on_c, 9, 36, 0
11, 36540, Note_on_c, 9, 51, 79
11, 36558, Note_on_c, 9, 51, 0
11, 36570, Note_on_c, 9, 36, 72
11, 36582, Note_on_c, 9, 36, 0
11, 36600, Note_on_c, 9, 36, 72
11, 36615, Note_on_c, 9, 36, 0
11, 36660, Note_on_c, 9, 51, 65
11, 36683, Note_on_c, 9, 51, 0
11, 36690, Note_on_c, 9, 36, 64
11, 36701, Note_on_c, 9, 36, 0
11, 36720, Note_on_c, 9, 36, 69
11, 36736, Note_on_c, 9, 36, 0
11, 36780, Note_on_c, 9, 51, 69
11, 36804, Note_on_c, 9, 51, 0
11, 36810, Note_on_c, 9, 36, 69
11, 36822, Note_on_c, 9, 36, 0
11, 36840, Note_on_c, 9, 36, 69
11, 36856, Note_on_c, 9, 36, 0
11, 36900, Note_on_c, 9, 51, 75
11, 36923, Note_on_c, 9, 51, 0
11, 36930, Note_on_c, 9, 36, 72
11, 36941, Note_on_c, 9, 36, 0
11, 36960, Note_on_c, 9, 36, 69
11, 36975, Note_on_c, 9, 36, 0
11, 37020, Note_on_c, 9, 51, 67
11, 37043, Note_on_c, 9, 51, 0
11, 37050, Note_on_c, 9, 36, 65
11, 37062, Note_on_c, 9, 36, 0
11, 37080, Note_on_c, 9, 36, 67
11, 37095, Note_on_c, 9, 36, 0
11, 37140, Note_on_c, 9, 51, 75
11, 37167, Note_on_c, 9, 51, 0
11, 37170, Note_on_c, 9, 36, 61
11, 37181, Note_on_c, 9, 36, 0
11, 37200, Note_on_c, 9, 36, 74
11, 37213, Note_on_c, 9, 36, 0
11, 37260, Note_on_c, 9, 51, 74
11, 37280, Note_on_c, 9, 51, 0
11, 37290, Note_on_c, 9, 36, 67
11, 37302, Note_on_c, 9, 36, 0
11, 37320, Note_on_c, 9, 36, 72
11, 37334, Note_on_c, 9, 36, 0
11, 37380, Note_on_c, 9, 51, 72
11, 37402, Note_on_c, 9, 51, 0
11, 37410, Note_on_c, 9, 36, 72
11, 37423, Note_on_c, 9, 36, 0
11, 37440, Note_on_c, 9, 36, 67
11, 37455, Note_on_c, 9, 36, 0
11, 37500, Note_on_c, 9, 51, 72
11, 37527, Note_on_c, 9, 51, 0
11, 37530, Note_on_c, 9, 36, 69
11, 37543, Note_on_c, 9, 36, 0
11, 37560, Note_on_c, 9, 36, 63
11, 37574, Note_on_c, 9, 36, 0
11, 37620, Note_on_c, 9, 51, 74
11, 37649, Note_on_c, 9, 51, 0
11, 37650, Note_on_c, 9, 36, 69
11, 37662, Note_on_c, 9, 36, 0
11, 37680, Note_on_c, 9, 36, 69
11, 37693, Note_on_c, 9, 36, 0
11, 37740, Note_on_c, 9, 51, 75
11, 37764, Note_on_c, 9, 51, 0
11, 37770, Note_on_c, 9, 36, 62
11, 37782, Note_on_c, 9, 36, 0
11, 37800, Note_on_c, 9, 36, 69
11, 37816, Note_on_c, 9, 36, 0
11, 37860, Note_on_c, 9, 51, 65
11, 37890, Note_on_c, 9, 36, 67
11, 37895, Note_on_c, 9, 51, 0
11, 37902, Note_on_c, 9, 36, 0
11, 37920, Note_on_c, 9, 36, 63
11, 37933, Note_on_c, 9, 36, 0
11, 37980, Note_on_c, 9, 51, 75
11, 38005, Note_on_c, 9, 51, 0
11, 38010, Note_on_c, 9, 36, 75
11, 38021, Note_on_c, 9, 36, 0
11, 38040, Note_on_c, 9, 36, 79
11, 38055, Note_on_c, 9, 36, 0
11, 38100, Note_on_c, 9, 51, 79
11, 38123, Note_on_c, 9, 51, 0
11, 38130, Note_on_c, 9, 36, 67
11, 38143, Note_on_c, 9, 36, 0
11, 38160, Note_on_c, 9, 36, 74
11, 38177, Note_on_c, 9, 36, 0
11, 38220, Note_on_c, 9, 51, 74
11, 38243, Note_on_c, 9, 51, 0
11, 38250, Note_on_c, 9, 36, 72
11, 38262, Note_on_c, 9, 36, 0
11, 38280, Note_on_c, 9, 36, 72
11, 38295, Note_on_c, 9, 36, 0
11, 38340, Note_on_c, 9, 51, 72
11, 38370, Note_on_c, 9, 51, 0
11, 38370, Note_on_c, 9, 36, 64
11, 38381, Note_on_c, 9, 36, 0
11, 38400, Note_on_c, 9, 36, 69
11, 38416, Note_on_c, 9, 36, 0
11, 38460, Note_on_c, 9, 51, 75
11, 38487, Note_on_c, 9, 51, 0
11, 38490, Note_on_c, 9, 36, 69
11, 38502, Note_on_c, 9, 36, 0
11, 38520, Note_on_c, 9, 36, 69
11, 38536, Note_on_c, 9, 36, 0
11, 38580, Note_on_c, 9, 51, 75
11, 38605, Note_on_c, 9, 51, 0
11, 38610, Note_on_c, 9, 36, 72
11, 38621, Note_on_c, 9, 36, 0
11, 38640, Note_on_c, 9, 36, 69
11, 38655, Note_on_c, 9, 36, 0
11, 38700, Note_on_c, 9, 51, 79
11, 38724, Note_on_c, 9, 51, 0
11, 38730, Note_on_c, 9, 36, 65
11, 38742, Note_on_c, 9, 36, 0
11, 38760, Note_on_c, 9, 36, 67
11, 38775, Note_on_c, 9, 36, 0
11, 38820, Note_on_c, 9, 51, 84
11, 38841, Note_on_c, 9, 51, 0
11, 38850, Note_on_c, 9, 36, 61
11, 38861, Note_on_c, 9, 36, 0
11, 38880, Note_on_c, 9, 36, 74
11, 38893, Note_on_c, 9, 36, 0
11, 38940, Note_on_c, 9, 51, 79
11, 38961, Note_on_c, 9, 51, 0
11, 38970, Note_on_c, 9, 36, 67
11, 38982, Note_on_c, 9, 36, 0
11, 39000, Note_on_c, 9, 36, 72
11, 39014, Note_on_c, 9, 36, 0
11, 39060, Note_on_c, 9, 51, 74
11, 39078, Note_on_c, 9, 51, 0
11, 39090, Note_on_c, 9, 36, 72
11, 39103, Note_on_c, 9, 36, 0
11, 39120, Note_on_c, 9, 36, 67
11, 39135, Note_on_c, 9, 36, 0
11, 39180, Note_on_c, 9, 51, 75
11, 39202, Note_on_c, 9, 51, 0
11, 39210, Note_on_c, 9, 36, 69
11, 39223, Note_on_c, 9, 36, 0
11, 39240, Note_on_c, 9, 36, 63
11, 39254, Note_on_c, 9, 36, 0
11, 39300, Note_on_c, 9, 51, 69
11, 39325, Note_on_c, 9, 51, 0
11, 39330, Note_on_c, 9, 36, 69
11, 39342, Note_on_c, 9, 36, 0
11, 39360, Note_on_c, 9, 36, 69
11, 39373, Note_on_c, 9, 36, 0
11, 39420, Note_on_c, 9, 51, 75
11, 39440, Note_on_c, 9, 51, 0
11, 39450, Note_on_c, 9, 36, 62
11, 39462, Note_on_c, 9, 36, 0
11, 39480, Note_on_c, 9, 36, 69
11, 39496, Note_on_c, 9, 36, 0
11, 39540, Note_on_c, 9, 51, 72
11, 39565, Note_on_c, 9, 51, 0
11, 39570, Note_on_c, 9, 36, 67
11, 39582, Note_on_c, 9, 36, 0
11, 39600, Note_on_c, 9, 36, 63
11, 39613, Note_on_c, 9, 36, 0
11, 39660, Note_on_c, 9, 51, 74
11, 39680, Note_on_c, 9, 51, 0
11, 39690, Note_on_c, 9, 36, 75
11, 39701, Note_on_c, 9, 36, 0
11, 39720, Note_on_c, 9, 36, 79
11, 39735, Note_on_c, 9, 36, 0
11, 39780, Note_on_c, 9, 51, 79
11, 39807, Note_on_c, 9, 51, 0
11, 39810, Note_on_c, 9, 36, 67
11, 39823, Note_on_c, 9, 36, 0
11, 39840, Note_on_c, 9, 36, 74
11, 39857, Note_on_c, 9, 36, 0
11, 39900, Note_on_c, 9, 51, 69
11, 39924, Note_on_c, 9, 51, 0
11, 39930, Note_on_c, 9, 36, 72
11, 39942, Note_on_c, 9, 36, 0
11, 39960, Note_on_c, 9, 36, 72
11, 39975, Note_on_c, 9, 36, 0
11, 40020, Note_on_c, 9, 51, 74
11, 40044, Note_on_c, 9, 51, 0
11, 40050, Note_on_c, 9, 36, 64
11, 40061, Note_on_c, 9, 36, 0
11, 40080, Note_on_c, 9, 36, 69
11, 40096, Note_on_c, 9, 36, 0
11, 40140, Note_on_c, 9, 51, 72
11, 40156, Note_on_c, 9, 51, 0
11, 40170, Note_on_c, 9, 36, 69
11, 40182, Note_on_c, 9, 36, 0
11, 40200, Note_on_c, 9, 36, 69
11, 40216, Note_on_c, 9, 36, 0
11, 40260, Note_on_c, 9, 51, 75
11, 40286, Note_on_c, 9, 51, 0
11, 40290, Note_on_c, 9, 36, 72
11, 40301, Note_on_c, 9, 36, 0
11, 40320, Note_on_c, 9, 36, 69
11, 40335, Note_on_c, 9, 36, 0
11, 40380, Note_on_c, 9, 51, 79
11, 40398, Note_on_c, 9, 51, 0
11, 40410, Note_on_c, 9, 36, 65
11, 40422, Note_on_c, 9, 36, 0
11, 40440, Note_on_c, 9, 36, 67
11, 40455, Note_on_c, 9, 36, 0
11, 40500, Note_on_c, 9, 51, 65
11, 40523, Note_on_c, 9, 51, 0
11, 40530, Note_on_c, 9, 36, 61
11, 40541, Note_on_c, 9, 36, 0
11, 40560, Note_on_c, 9, 36, 74
11, 40573, Note_on_c, 9, 36, 0
11, 40620, Note_on_c, 9, 51, 69
11, 40644, Note_on_c, 9, 51, 0
11, 40650, Note_on_c, 9, 36, 67
11, 40662, Note_on_c, 9, 36, 0
11, 40680, Note_on_c, 9, 36, 72
11, 40694, Note_on_c, 9, 36, 0
11, 40740, Note_on_c, 9, 51, 75
11, 40763, Note_on_c, 9, 51, 0
11, 40770, Note_on_c, 9, 36, 72
11, 40783, Note_on_c, 9, 36, 0
11, 40800, Note_on_c, 9, 36, 67
11, 40815, Note_on_c, 9, 36, 0
11, 40860, Note_on_c, 9, 51, 67
11, 40883, Note_on_c, 9, 51, 0
11, 40890, Note_on_c, 9, 36, 69
11, 40903, Note_on_c, 9, 36, 0
11, 40920, Note_on_c, 9, 36, 63
11, 40934, Note_on_c, 9, 36, 0
11, 40980, Note_on_c, 9, 51, 75
11, 41007, Note_on_c, 9, 51, 0
11, 41010, Note_on_c, 9, 36, 69
11, 41022, Note_on_c, 9, 36, 0
11, 41040, Note_on_c, 9, 36, 69
11, 41053, Note_on_c, 9, 36, 0
11, 41100, Note_on_c, 9, 51, 74
11, 41120, Note_on_c, 9, 51, 0
11, 41130, Note_on_c, 9, 36, 62
11, 41142, Note_on_c, 9, 36, 0
11, 41160, Note_on_c, 9, 36, 69
11, 41176, Note_on_c, 9, 36, 0
11, 41220, Note_on_c, 9, 51, 72
11, 41242, Note_on_c, 9, 51, 0
11, 41250, Note_on_c, 9, 36, 67
11, 41262, Note_on_c, 9, 36, 0
11, 41280, Note_on_c, 9, 36, 63
11, 41293, Note_on_c, 9, 36, 0
11, 41340, Note_on_c, 9, 51, 72
11, 41367, Note_on_c, 9, 51, 0
11, 41370, Note_on_c, 9, 36, 75
11, 41381, Note_on_c, 9, 36, 0
11, 41400, Note_on_c, 9, 36, 79
11, 41415, Note_on_c, 9, 36, 0
11, 41460, Note_on_c, 9, 51, 74
11, 41489, Note_on_c, 9, 51, 0
11, 41490, Note_on_c, 9, 36, 67
11, 41503, Note_on_c, 9, 36, 0
11, 41520, Note_on_c, 9, 36, 74
11, 41537, Note_on_c, 9, 36, 0
11, 41580, Note_on_c, 9, 51, 75
11, 41604, Note_on_c, 9, 51, 0
11, 41610, Note_on_c, 9, 36, 72
11, 41622, Note_on_c, 9, 36, 0
11, 41640, Note_on_c, 9, 36, 72
11, 41655, Note_on_c, 9, 36, 0
11, 41700, Note_on_c, 9, 51, 65
11, 41730, Note_on_c, 9, 36, 64
11, 41735, Note_on_c, 9, 51, 0
11, 41741, Note_on_c, 9, 36, 0
11, 41760, Note_on_c, 9, 36, 69
11, 41776, Note_on_c, 9, 36, 0
11, 41820, Note_on_c, 9, 51, 75
11, 41845, Note_on_c, 9, 51, 0
11, 41850, Note_on_c, 9, 36, 69
11, 41862, Note_on_c, 9, 36, 0
11, 41880, Note_on_c, 9, 36, 69
11, 41896, Note_on_c, 9, 36, 0
11, 41940, Note_on_c, 9, 51, 79
11, 41963, Note_on_c, 9, 51, 0
11, 41970, Note_on_c, 9, 36, 72
11, 41981, Note_on_c, 9, 36, 0
11, 42000, Note_on_c, 9, 36, 69
11, 42015, Note_on_c, 9, 36, 0
11, 42060, Note_on_c, 9, 51, 74
11, 42083, Note_on_c, 9, 51, 0
11, 42090, Note_on_c, 9, 36, 65
11, 42102, Note_on_c, 9, 36, 0
11, 42120, Note_on_c, 9, 36, 67
11, 42135, Note_on_c, 9, 36, 0
11, 42180, Note_on_c, 9, 51, 72
11, 42210, Note_on_c, 9, 51, 0
11, 42210, Note_on_c, 9, 36, 61
11, 42221, Note_on_c, 9, 36, 0
11, 42240, Note_on_c, 9, 36, 74
11, 42253, Note_on_c, 9, 36, 0
11, 42300, Note_on_c, 9, 51, 75
11, 42327, Note_on_c, 9, 51, 0
11, 42330, Note_on_c, 9, 36, 67
11, 42342, Note_on_c, 9, 36, 0
11, 42360, Note_on_c, 9, 36, 72
11, 42374, Note_on_c, 9, 36, 0
11, 42420, Note_on_c, 9, 51, 75
11, 42445, Note_on_c, 9, 51, 0
11, 42450, Note_on_c, 9, 36, 72
11, 42463, Note_on_c, 9, 36, 0
11, 42480, Note_on_c, 9, 36, 67
11, 42495, Note_on_c, 9, 36, 0
11, 42540, Note_on_c, 9, 51, 69
11, 42564, Note_on_c, 9, 51, 0
11, 42570, Note_on_c, 9, 36, 69
11, 42583, Note_on_c, 9, 36, 0
11, 42600, Note_on_c, 9, 36, 63
11, 42614, Note_on_c, 9, 36, 0
11, 42660, Note_on_c, 9, 51, 75
11, 42683, Note_on_c, 9, 51, 0
11, 42690, Note_on_c, 9, 36, 69
11, 42702, Note_on_c, 9, 36, 0
11, 42720, Note_on_c, 9, 36, 69
11, 42733, Note_on_c, 9, 36, 0
11, 42780, Note_on_c, 9, 51, 67
11, 42803, Note_on_c, 9, 51, 0
11, 42810, Note_on_c, 9, 36, 62
11, 42822, Note_on_c, 9, 36, 0
11, 42840, Note_on_c, 9, 36, 69
11, 42856, Note_on_c, 9, 36, 0
11, 42900, Note_on_c, 9, 51, 75
11, 42927, Note_on_c, 9, 51, 0
11, 42930, Note_on_c, 9, 36, 67
11, 42942, Note_on_c, 9, 36, 0
11, 42960, Note_on_c, 9, 36, 63
11, 42973, Note_on_c, 9, 36, 0
11, 43020, Note_on_c, 9, 51, 74
11, 43040, Note_on_c, 9, 51, 0
11, 43050, Note_on_c, 9, 36, 75
11, 43061, Note_on_c, 9, 36, 0
11, 43080, Note_on_c, 9, 36, 79
11, 43095, Note_on_c, 9, 36, 0
11, 43140, Note_on_c, 9, 51, 72
11, 43162, Note_on_c, 9, 51, 0
11, 43170, Note_on_c, 9, 36, 67
11, 43183, Note_on_c, 9, 36, 0
11, 43200, Note_on_c, 9, 36, 74
11, 43217, Note_on_c, 9, 36, 0
11, 43260, Note_on_c, 9, 51, 72
11, 43287, Note_on_c, 9, 51, 0
11, 43290, Note_on_c, 9, 36, 72
11, 43302, Note_on_c, 9, 36, 0
11, 43320, Note_on_c, 9, 36, 72
11, 43335, Note_on_c, 9, 36, 0
11, 43380, Note_on_c, 9, 51, 74
11, 43409, Note_on_c, 9, 51, 0
11, 43410, Note_on_c, 9, 36, 64
11, 43421, Note_on_c, 9, 36, 0
11, 43440, Note_on_c, 9, 36, 69
11, 43456, Note_on_c, 9, 36, 0
11, 43500, Note_on_c, 9, 51, 75
11, 43524, Note_on_c, 9, 51, 0
11, 43530, Note_on_c, 9, 36, 69
11, 43542, Note_on_c, 9, 36, 0
11, 43560, Note_on_c, 9, 36, 69
11, 43576, Note_on_c, 9, 36, 0
11, 43620, Note_on_c, 9, 51, 65
11, 43650, Note_on_c, 9, 36, 72
11, 43655, Note_on_c, 9, 51, 0
11, 43661, Note_on_c, 9, 36, 0
11, 43680, Note_on_c, 9, 36, 69
11, 43695, Note_on_c, 9, 36, 0
11, 43740, Note_on_c, 9, 51, 75
11, 43765, Note_on_c, 9, 51, 0
11, 43770, Note_on_c, 9, 36, 65
11, 43782, Note_on_c, 9, 36, 0
11, 43800, Note_on_c, 9, 36, 67
11, 43815, Note_on_c, 9, 36, 0
11, 43860, Note_on_c, 9, 51, 79
11, 43883, Note_on_c, 9, 51, 0
11, 43890, Note_on_c, 9, 36, 61
11, 43901, Note_on_c, 9, 36, 0
11, 43920, Note_on_c, 9, 36, 74
11, 43933, Note_on_c, 9, 36, 0
11, 43980, Note_on_c, 9, 51, 74
11, 44003, Note_on_c, 9, 51, 0
11, 44010, Note_on_c, 9, 36, 67
11, 44022, Note_on_c, 9, 36, 0
11, 44040, Note_on_c, 9, 36, 72
11, 44054, Note_on_c, 9, 36, 0
11, 44100, Note_on_c, 9, 51, 72
11, 44130, Note_on_c, 9, 51, 0
11, 44130, Note_on_c, 9, 36, 72
11, 44143, Note_on_c, 9, 36, 0
11, 44160, Note_on_c, 9, 36, 67
11, 44175, Note_on_c, 9, 36, 0
11, 44220, Note_on_c, 9, 51, 75
11, 44247, Note_on_c, 9, 51, 0
11, 44250, Note_on_c, 9, 36, 69
11, 44263, Note_on_c, 9, 36, 0
11, 44280, Note_on_c, 9, 36, 63
11, 44294, Note_on_c, 9, 36, 0
11, 44340, Note_on_c, 9, 51, 75
11, 44365, Note_on_c, 9, 51, 0
11, 44370, Note_on_c, 9, 36, 69
11, 44382, Note_on_c, 9, 36, 0
11, 44400, Note_on_c, 9, 36, 69
11, 44413, Note_on_c, 9, 36, 0
11, 44460, Note_on_c, 9, 51, 79
11, 44484, Note_on_c, 9, 51, 0
11, 44490, Note_on_c, 9, 36, 62
11, 44502, Note_on_c, 9, 36, 0
11, 44520, Note_on_c, 9, 36, 69
11, 44536, Note_on_c, 9, 36, 0
11, 44580, Note_on_c, 9, 51, 84
11, 44601, Note_on_c, 9, 51, 0
11, 44610, Note_on_c, 9, 36, 67
11, 44622, Note_on_c, 9, 36, 0
11, 44640, Note_on_c, 9, 36, 63
11, 44653, Note_on_c, 9, 36, 0
11, 44700, Note_on_c, 9, 51, 79
11, 44721, Note_on_c, 9, 51, 0
11, 44730, Note_on_c, 9, 36, 75
11, 44741, Note_on_c, 9, 36, 0
11, 44760, Note_on_c, 9, 36, 79
11, 44775, Note_on_c, 9, 36, 0
11, 44820, Note_on_c, 9, 51, 74
11, 44838, Note_on_c, 9, 51, 0
11, 44850, Note_on_c, 9, 36, 67
11, 44863, Note_on_c, 9, 36, 0
11, 44880, Note_on_c, 9, 36, 74
11, 44897, Note_on_c, 9, 36, 0
11, 44940, Note_on_c, 9, 51, 75
11, 44962, Note_on_c, 9, 51, 0
11, 44970, Note_on_c, 9, 36, 72
11, 44982, Note_on_c, 9, 36, 0
11, 45000, Note_on_c, 9, 36, 72
11, 45015, Note_on_c, 9, 36, 0
11, 45060, Note_on_c, 9, 51, 69
11, 45085, Note_on_c, 9, 51, 0
11, 45090, Note_on_c, 9, 36, 64
11, 45101, Note_on_c, 9, 36, 0
11, 45120, Note_on_c, 9, 36, 69
11, 45136, Note_on_c, 9, 36, 0
11, 45180, Note_on_c, 9, 51, 75
11, 45200, Note_on_c, 9, 51, 0
11, 45210, Note_on_c, 9, 36, 69
11, 45222, Note_on_c, 9, 36, 0
11, 45240, Note_on_c, 9, 36, 69
11, 45256, Note_on_c, 9, 36, 0
11, 45300, Note_on_c, 9, 51, 72
11, 45325, Note_on_c, 9, 51, 0
11, 45330, Note_on_c, 9, 36, 72
11, 45341, Note_on_c, 9, 36, 0
11, 45360, Note_on_c, 9, 36, 69
11, 45375, Note_on_c, 9, 36, 0
11, 45420, Note_on_c, 9, 51, 74
11, 45440, Note_on_c, 9, 51, 0
11, 45450, Note_on_c, 9, 36, 65
11, 45462, Note_on_c, 9, 36, 0
11, 45480, Note_on_c, 9, 36, 67
11, 45495, Note_on_c, 9, 36, 0
11, 45540, Note_on_c, 9, 51, 79
11, 45567, Note_on_c, 9, 51, 0
11, 45570, Note_on_c, 9, 36, 61
11, 45581, Note_on_c, 9, 36, 0
11, 45600, Note_on_c, 9, 36, 74
11, 45613, Note_on_c, 9, 36, 0
11, 45660, Note_on_c, 9, 51, 69
11, 45684, Note_on_c, 9, 51, 0
11, 45690, Note_on_c, 9, 36, 67
11, 45702, Note_on_c, 9, 36, 0
11, 45720, Note_on_c, 9, 36, 72
11, 45734, Note_on_c, 9, 36, 0
11, 45780, Note_on_c, 9, 51, 74
11, 45804, Note_on_c, 9, 51, 0
11, 45810, Note_on_c, 9, 36, 72
11, 45823, Note_on_c, 9, 36, 0
11, 45840, Note_on_c, 9, 36, 67
11, 45855, Note_on_c, 9, 36, 0
11, 45900, Note_on_c, 9, 51, 72
11, 45916, Note_on_c, 9, 51, 0
11, 45930, Note_on_c, 9, 36, 69
11, 45943, Note_on_c, 9, 36, 0
11, 45960, Note_on_c, 9, 36, 63
11, 45974, Note_on_c, 9, 36, 0
11, 46020, Note_on_c, 9, 51, 75
11, 46046, Note_on_c, 9, 51, 0
11, 46050, Note_on_c, 9, 36, 69
11, 46062, Note_on_c, 9, 36, 0
11, 46080, Note_on_c, 9, 36, 69
11, 46093, Note_on_c, 9, 36, 0
11, 46140, Note_on_c, 9, 51, 79
11, 46158, Note_on_c, 9, 51, 0
11, 46170, Note_on_c, 9, 36, 62
11, 46182, Note_on_c, 9, 36, 0
11, 46200, Note_on_c, 9, 36, 69
11, 46216, Note_on_c, 9, 36, 0
11, 46260, Note_on_c, 9, 51, 65
11, 46283, Note_on_c, 9, 51, 0
11, 46290, Note_on_c, 9, 36, 67
11, 46302, Note_on_c, 9, 36, 0
11, 46320, Note_on_c, 9, 36, 63
11, 46333, Note_on_c, 9, 36, 0
11, 46380, Note_on_c, 9, 51, 69
11, 46404, Note_on_c, 9, 51, 0
11, 46410, Note_on_c, 9, 36, 75
11, 46421, Note_on_c, 9, 36, 0
11, 46440, Note_on_c, 9, 36, 79
11, 46455, Note_on_c, 9, 36, 0
11, 46500, Note_on_c, 9, 51, 75
11, 46523, Note_on_c, 9, 51, 0
11, 46530, Note_on_c, 9, 36, 67
11, 46543, Note_on_c, 9, 36, 0
11, 46560, Note_on_c, 9, 36, 74
11, 46577, Note_on_c, 9, 36, 0
11, 46620, Note_on_c, 9, 51, 67
11, 46643, Note_on_c, 9, 51, 0
11, 46650, Note_on_c, 9, 36, 72
11, 46662, Note_on_c, 9, 36, 0
11, 46680, Note_on_c, 9, 36, 72
11, 46695, Note_on_c, 9, 36, 0
11, 46740, Note_on_c, 9, 51, 75
11, 46767, Note_on_c, 9, 51, 0
11, 46770, Note_on_c, 9, 36, 64
11, 46781, Note_on_c, 9, 36, 0
11, 46800, Note_on_c, 9, 36, 69
11, 46816, Note_on_c, 9, 36, 0
11, 46860, Note_on_c, 9, 51, 74
11, 46880, Note_on_c, 9, 51, 0
11, 46890, Note_on_c, 9, 36, 69
11, 46902, Note_on_c, 9, 36, 0
11, 46920, Note_on_c, 9, 36, 69
11, 46936, Note_on_c, 9, 36, 0
11, 46980, Note_on_c, 9, 51, 72
11, 47002, Note_on_c, 9, 51, 0
11, 47010, Note_on_c, 9, 36, 72
11, 47021, Note_on_c, 9, 36, 0
11, 47040, Note_on_c, 9, 36, 69
11, 47055, Note_on_c, 9, 36, 0
11, 47100, Note_on_c, 9, 51, 72
11, 47127, Note_on_c, 9, 51, 0
11, 47130, Note_on_c, 9, 36, 65
11, 47142, Note_on_c, 9, 36, 0
11, 47160, Note_on_c, 9, 36, 67
11, 47175, Note_on_c, 9, 36, 0
11, 47220, Note_on_c, 9, 51, 74
11, 47249, Note_on_c, 9, 51, 0
11, 47250, Note_on_c, 9, 36, 61
11, 47261, Note_on_c, 9, 36, 0
11, 47280, Note_on_c, 9, 36, 74
11, 47293, Note_on_c, 9, 36, 0
11, 47340, Note_on_c, 9, 51, 75
11, 47364, Note_on_c, 9, 51, 0
11, 47370, Note_on_c, 9, 36, 67
11, 47382, Note_on_c, 9, 36, 0
11, 47400, Note_on_c, 9, 36, 72
11, 47414, Note_on_c, 9, 36, 0
11, 47460, Note_on_c, 9, 51, 65
11, 47490, Note_on_c, 9, 36, 72
11, 47495, Note_on_c, 9, 51, 0
11, 47503, Note_on_c, 9, 36, 0
11, 47520, Note_on_c, 9, 36, 67
11, 47535, Note_on_c, 9, 36, 0
11, 47580, Note_on_c, 9, 51, 75
11, 47605, Note_on_c, 9, 51, 0
11, 47610, Note_on_c, 9, 36, 69
11, 47623, Note_on_c, 9, 36, 0
11, 47640, Note_on_c, 9, 36, 63
11, 47654, Note_on_c, 9, 36, 0
11, 47700, Note_on_c, 9, 51, 79
11, 47723, Note_on_c, 9, 51, 0
11, 47730, Note_on_c, 9, 36, 69
11, 47742, Note_on_c, 9, 36, 0
11, 47760, Note_on_c, 9, 36, 69
11, 47773, Note_on_c, 9, 36, 0
11, 47820, Note_on_c, 9, 51, 74
11, 47843, Note_on_c, 9, 51, 0
11, 47850, Note_on_c, 9, 36, 62
11, 47862, Note_on_c, 9, 36, 0
11, 47880, Note_on_c, 9, 36, 69
11, 47896, Note_on_c, 9, 36, 0
11, 47940, Note_on_c, 9, 51, 72
11, 47970, Note_on_c, 9, 51, 0
11, 47970, Note_on_c, 9, 36, 67
11, 47982, Note_on_c, 9, 36, 0
11, 48000, Note_on_c, 9, 36, 63
11, 48013, Note_on_c, 9, 36, 0
11, 48060, Note_on_c, 9, 51, 75
11, 48087, Note_on_c, 9, 51, 0
11, 48090, Note_on_c, 9, 36, 75
11, 48101, Note_on_c, 9, 36, 0
11, 48120, Note_on_c, 9, 36, 79
11, 48135, Note_on_c, 9, 36, 0
11, 48180, Note_on_c, 9, 51, 75
11, 48205, Note_on_c, 9, 51, 0
11, 48210, Note_on_c, 9, 36, 67
11, 48223, Note_on_c, 9, 36, 0
11, 48240, Note_on_c, 9, 36, 74
11, 48257, Note_on_c, 9, 36, 0
11, 48300, Note_on_c, 9, 51, 79
11, 48324, Note_on_c, 9, 51, 0
11, 48330, Note_on_c, 9, 36, 72
11, 48342, Note_on_c, 9, 36, 0
11, 48360, Note_on_c, 9, 36, 72
11, 48375, Note_on_c, 9, 36, 0
11, 48420, Note_on_c, 9, 51, 84
11, 48441, Note_on_c, 9, 51, 0
11, 48450, Note_on_c, 9, 36, 64
11, 48461, Note_on_c, 9, 36, 0
11, 48480, Note_on_c, 9, 36, 69
11, 48496, Note_on_c, 9, 36, 0
11, 48540, Note_on_c, 9, 51, 79
11, 48561, Note_on_c, 9, 51, 0
11, 48570, Note_on_c, 9, 36, 69
11, 48582, Note_on_c, 9, 36, 0
11, 48600, Note_on_c, 9, 36, 69
11, 48616, Note_on_c, 9, 36, 0
11, 48660, Note_on_c, 9, 51, 74
11, 48678, Note_on_c, 9, 51, 0
11, 48690, Note_on_c, 9, 36, 72
11, 48701, Note_on_c, 9, 36, 0
11, 48720, Note_on_c, 9, 36, 69
11, 48735, Note_on_c, 9, 36, 0
11, 48780, Note_on_c, 9, 51, 75
11, 48802, Note_on_c, 9, 51, 0
11, 48810, Note_on_c, 9, 36, 65
11, 48822, Note_on_c, 9, 36, 0
11, 48840, Note_on_c, 9, 36, 67
11, 48855, Note_on_c, 9, 36, 0
11, 48900, Note_on_c, 9, 51, 69
11, 48925, Note_on_c, 9, 51, 0
11, 48930, Note_on_c, 9, 36, 61
11, 48941, Note_on_c, 9, 36, 0
11, 48960, Note_on_c, 9, 36, 74
11, 48973, Note_on_c, 9, 36, 0
11, 49020, Note_on_c, 9, 51, 75
11, 49040, Note_on_c, 9, 51, 0
11, 49050, Note_on_c, 9, 36, 67
11, 49062, Note_on_c, 9, 36, 0
11, 49080, Note_on_c, 9, 36, 72
11, 49094, Note_on_c, 9, 36, 0
11, 49140, Note_on_c, 9, 51, 72
11, 49165, Note_on_c, 9, 51, 0
11, 49170, Note_on_c, 9, 36, 72
11, 49183, Note_on_c, 9, 36, 0
11, 49200, Note_on_c, 9, 36, 67
11, 49215, Note_on_c, 9, 36, 0
11, 49260, Note_on_c, 9, 51, 74
11, 49280, Note_on_c, 9, 51, 0
11, 49290, Note_on_c, 9, 36, 69
11, 49303, Note_on_c, 9, 36, 0
11, 49320, Note_on_c, 9, 36, 63
11, 49334, Note_on_c, 9, 36, 0
11, 49380, Note_on_c, 9, 51, 79
11, 49407, Note_on_c, 9, 51, 0
11, 49410, Note_on_c, 9, 36, 69
11, 49422, Note_on_c, 9, 36, 0
11, 49440, Note_on_c, 9, 36, 0
11, 49440, Note_on_c, 9, 36, 0
11, 49440, Note_on_c, 9, 36, 0
11, 49440, Note_on_c, 9, 36, 0
11, 49440, Note_on_c, 9, 36, 0
11, 49440, Note_on_c, 9, 36, 0
11, 49440, Note_on_c, 9, 36, 0
11, 49440, Note_on_c, 9, 36, 0
11, 49440, Note_on_c, 9, 36, 0
11, 49440, Note_on_c, 9, 36, 0
11, 49440, Note_on_c, 9, 36, 0
11, 49440, Note_on_c, 9, 36, 0
11, 49440, Note_on_c, 9, 36, 0
11, 49440, Note_on_c, 9, 36, 0
11, 49440, Note_on_c, 9, 36, 0
11, 49440, Note_on_c, 9, 36, 0
11, 49440, Note_on_c, 9, 36, 0
11, 49440, Note_on_c, 9, 36, 0
11, 49440, Note_on_c, 9, 36, 0
11, 49440, Note_on_c, 9, 36, 0
11, 49440, Note_on_c, 9, 36, 0
11, 49440, Note_on_c, 9, 36, 0
11, 49440, Note_on_c, 9, 36, 0
11, 49440, Note_on_c, 9, 36, 0
11, 49440, Note_on_c, 9, 36, 0
11, 49440, Note_on_c, 9, 36, 0
11, 49440, Note_on_c, 9, 36, 0
11, 49440, Note_on_c, 9, 36, 0
11, 49440, Note_on_c, 9, 36, 0
11, 49440, Note_on_c, 9, 36, 0
11, 49440, Note_on_c, 9, 36, 0
11, 49440, Note_on_c, 9, 36, 0
11, 49453, Note_on_c, 9, 36, 0
11, 49453, Note_on_c, 9, 36, 0
11, 49453, Note_on_c, 9, 36, 0
11, 49453, Note_on_c, 9, 36, 0
11, 49453, Note_on_c, 9, 36, 0
11, 49453, Note_on_c, 9, 36, 0
11, 49453, Note_on_c, 9, 36, 0
11, 49453, Note_on_c, 9, 36, 0
11, 49453, Note_on_c, 9, 36, 0
11, 49453, Note_on_c, 9, 36, 0
11, 49453, Note_on_c, 9, 36, 0
11, 49453, Note_on_c, 9, 36, 0
11, 49453, Note_on_c, 9, 36, 0
11, 49453, Note_on_c, 9, 36, 0
11, 49453, Note_on_c, 9, 36, 0
11, 49453, Note_on_c, 9, 36, 0
11, 49453, Note_on_c, 9, 36, 0
11, 49453, Note_on_c, 9, 36, 0
11, 49453, Note_on_c, 9, 36, 0
11, 49453, Note_on_c, 9, 36, 0
11, 49453, Note_on_c, 9, 36, 0
11, 49453, Note_on_c, 9, 36, 0
11, 49453, Note_on_c, 9, 36, 0
11, 49453, Note_on_c, 9, 36, 0
11, 49453, Note_on_c, 9, 36, 0
11, 49453, Note_on_c, 9, 36, 0
11, 49453, Note_on_c, 9, 36, 0
11, 49453, Note_on_c, 9, 36, 0
11, 49453, Note_on_c, 9, 36, 0
11, 49453, Note_on_c, 9, 36, 0
11, 49453, Note_on_c, 9, 36, 0
11, 49453, Note_on_c, 9, 36, 0
11, 49500, Note_on_c, 9, 51, 0
11, 49500, Note_on_c, 9, 51, 0
11, 49500, Note_on_c, 9, 51, 0
11, 49500, Note_on_c, 9, 51, 0
11, 49500, Note_on_c, 9, 51, 0
11, 49500, Note_on_c, 9, 51, 0
11, 49500, Note_on_c, 9, 51, 0
11, 49500, Note_on_c, 9, 51, 0
11, 49500, Note_on_c, 9, 51, 0
11, 49500, Note_on_c, 9, 51, 0
11, 49500, Note_on_c, 9, 51, 0
11, 49500, Note_on_c, 9, 51, 0
11, 49500, Note_on_c, 9, 51, 0
11, 49500, Note_on_c, 9, 51, 0
11, 49500, Note_on_c, 9, 51, 0
11, 49500, Note_on_c, 9, 51, 0
11, 49500, Note_on_c, 9, 51, 0
11, 49500, Note_on_c, 9, 51, 0
11, 49500, Note_on_c, 9, 51, 0
11, 49500, Note_on_c, 9, 51, 0
11, 49500, Note_on_c, 9, 51, 0
11, 49500, Note_on_c, 9, 51, 0
11, 49500, Note_on_c, 9, 51, 0
11, 49500, Note_on_c, 9, 51, 0
11, 49500, Note_on_c, 9, 51, 0
11, 49500, Note_on_c, 9, 51, 0
11, 49500, Note_on_c, 9, 51, 0
11, 49500, Note_on_c, 9, 51, 0
11, 49500, Note_on_c, 9, 51, 0
11, 49500, Note_on_c, 9, 51, 0
11, 49500, Note_on_c, 9, 51, 0
11, 49500, Note_on_c, 9, 51, 0
11, 49524, Note_on_c, 9, 51, 0
11, 49524, Note_on_c, 9, 51, 0
11, 49524, Note_on_c, 9, 51, 0
11, 49524, Note_on_c, 9, 51, 0
11, 49524, Note_on_c, 9, 51, 0
11, 49524, Note_on_c, 9, 51, 0
11, 49524, Note_on_c, 9, 51, 0
11, 49524, Note_on_c, 9, 51, 0
11, 49524, Note_on_c, 9, 51, 0
11, 49524, Note_on_c, 9, 51, 0
11, 49524, Note_on_c, 9, 51, 0
11, 49524, Note_on_c, 9, 51, 0
11, 49524, Note_on_c, 9, 51, 0
11, 49524, Note_on_c, 9, 51, 0
11, 49524, Note_on_c, 9, 51, 0
11, 49524, Note_on_c, 9, 51, 0
11, 49524, Note_on_c, 9, 51, 0
11, 49524, Note_on_c, 9, 51, 0
11, 49524, Note_on_c, 9, 51, 0
11, 49524, Note_on_c, 9, 51, 0
11, 49524, Note_on_c, 9, 51, 0
11, 49524, Note_on_c, 9, 51, 0
11, 49524, Note_on_c, 9, 51, 0
11, 49524, Note_on_c, 9, 51, 0
11, 49524, Note_on_c, 9, 51, 0
11, 49524, Note_on_c, 9, 51, 0
11, 49524, Note_on_c, 9, 51, 0
11, 49524, Note_on_c, 9, 51, 0
11, 49524, Note_on_c, 9, 51, 0
11, 49524, Note_on_c, 9, 51, 0
11, 49524, Note_on_c, 9, 51, 0
11, 49524, Note_on_c, 9, 51, 0
11, 49530, Note_on_c, 9, 36, 0
11, 49530, Note_on_c, 9, 36, 0
11, 49530, Note_on_c, 9, 36, 0
11, 49530, Note_on_c, 9, 36, 0
11, 49530, Note_on_c, 9, 36, 0
11, 49530, Note_on_c, 9, 36, 0
11, 49530, Note_on_c, 9, 36, 0
11, 49530, Note_on_c, 9, 36, 0
11, 49530, Note_on_c, 9, 36, 0
11, 49530, Note_on_c, 9, 36, 0
11, 49530, Note_on_c, 9, 36, 0
11, 49530, Note_on_c, 9, 36, 0
11, 49530, Note_on_c, 9, 36, 0
11, 49530, Note_on_c, 9, 36, 0
11, 49530, Note_on_c, 9, 36, 0
11, 49530, Note_on_c, 9, 36, 0
11, 49530, Note_on_c, 9, 36, 0
11, 49530, Note_on_c, 9, 36, 0
11, 49530, Note_on_c, 9, 36, 0
11, 49530, Note_on_c, 9, 36, 0
11, 49530, Note_on_c, 9, 36, 0
11, 49530, Note_on_c, 9, 36, 0
11, 49530, Note_on_c, 9, 36, 0
11, 49530, Note_on_c, 9, 36, 0
11, 49530, Note_on_c, 9, 36, 0
11, 49530, Note_on_c, 9, 36, 0
11, 49530, Note_on_c, 9, 36, 0
11, 49530, Note_on_c, 9, 36, 0
11, 49530, Note_on_c, 9, 36, 0
11, 49530, Note_on_c, 9, 36, 0
11, 49530, Note_on_c, 9, 36, 0
11, 49530, Note_on_c, 9, 36, 0
11, 49542, Note_on_c, 9, 36, 0
11, 49542, Note_on_c, 9, 36, 0
11, 49542, Note_on_c, 9, 36, 0
11, 49542, Note_on_c, 9, 36, 0
11, 49542, Note_on_c, 9, 36, 0
11, 49542, Note_on_c, 9, 36, 0
11, 49542, Note_on_c, 9, 36, 0
11, 49542, Note_on_c, 9, 36, 0
11, 49542, Note_on_c, 9, 36, 0
11, 49542, Note_on_c, 9, 36, 0
11, 49542, Note_on_c, 9, 36, 0
11, 49542, Note_on_c, 9, 36, 0
11, 49542, Note_on_c, 9, 36, 0
11, 49542, Note_on_c, 9, 36, 0
11, 49542, Note_on_c, 9, 36, 0
11, 49542, Note_on_c, 9, 36, 0
11, 49542, Note_on_c, 9, 36, 0
11, 49542, Note_on_c, 9, 36, 0
11, 49542, Note_on_c, 9, 36, 0
11, 49542, Note_on_c, 9, 36, 0
11, 49542, Note_on_c, 9, 36, 0
11, 49542, Note_on_c, 9, 36, 0
11, 49542, Note_on_c, 9, 36, 0
11, 49542, Note_on_c, 9, 36, 0
11, 49542, Note_on_c, 9, 36, 0
11, 49542, Note_on_c, 9, 36, 0
11, 49542, Note_on_c, 9, 36, 0
11, 49542, Note_on_c, 9, 36, 0
11, 49542, Note_on_c, 9, 36, 0
11, 49542, Note_on_c, 9, 36, 0
11, 49542, Note_on_c, 9, 36, 0
11, 49542, Note_on_c, 9, 36, 0
11, 49560, Note_on_c, 9, 36, 0
11, 49560, Note_on_c, 9, 36, 0
11, 49560, Note_on_c, 9, 36, 0
11, 49560, Note_on_c, 9, 36, 0
11, 49560, Note_on_c, 9, 36, 0
11, 49560, Note_on_c, 9, 36, 0
11, 49560, Note_on_c, 9, 36, 0
11, 49560, Note_on_c, 9, 36, 0
11, 49560, Note_on_c, 9, 36, 0
11, 49560, Note_on_c, 9, 36, 0
11, 49560, Note_on_c, 9, 36, 0
11, 49560, Note_on_c, 9, 36, 0
11, 49560, Note_on_c, 9, 36, 0
11, 49560, Note_on_c, 9, 36, 0
11, 49560, Note_on_c, 9, 36, 0
11, 49560, Note_on_c, 9, 36, 0
11, 49560, Note_on_c, 9, 36, 0
11, 49560, Note_on_c, 9, 36, 0
11, 49560, Note_on_c, 9, 36, 0
11, 49560, Note_on_c, 9, 36, 0
11, 49560, Note_on_c, 9, 36, 0
11, 49560, Note_on_c, 9, 36, 0
11, 49560, Note_on_c, 9, 36, 0
11, 49560, Note_on_c, 9, 36, 0
11, 49560, Note_on_c, 9, 36, 0
11, 49560, Note_on_c, 9, 36, 0
11, 49560, Note_on_c, 9, 36, 0
11, 49560, Note_on_c, 9, 36, 0
11, 49560, Note_on_c, 9, 36, 0
11, 49560, Note_on_c, 9, 36, 0
11, 49560, Note_on_c, 9, 36, 0
11, 49560, Note_on_c, 9, 36, 0
11, 49576, Note_on_c, 9, 36, 0
11, 49576, Note_on_c, 9, 36, 0
11, 49576, Note_on_c, 9, 36, 0
11, 49576, Note_on_c, 9, 36, 0
11, 49576, Note_on_c, 9, 36, 0
11, 49576, Note_on_c, 9, 36, 0
11, 49576, Note_on_c, 9, 36, 0
11, 49576, Note_on_c, 9, 36, 0
11, 49576, Note_on_c, 9, 36, 0
11, 49576, Note_on_c, 9, 36, 0
11, 49576, Note_on_c, 9, 36, 0
11, 49576, Note_on_c, 9, 36, 0
11, 49576, Note_on_c, 9, 36, 0
11, 49576, Note_on_c, 9, 36, 0
11, 49576, Note_on_c, 9, 36, 0
11, 49576, Note_on_c, 9, 36, 0
11, 49576, Note_on_c, 9, 36, 0
11, 49576, Note_on_c, 9, 36, 0
11, 49576, Note_on_c, 9, 36, 0
11, 49576, Note_on_c, 9, 36, 0
11, 49576, Note_on_c, 9, 36, 0
11, 49576, Note_on_c, 9, 36, 0
11, 49576, Note_on_c, 9, 36, 0
11, 49576, Note_on_c, 9, 36, 0
11, 49576, Note_on_c, 9, 36, 0
11, 49576, Note_on_c, 9, 36, 0
11, 49576, Note_on_c, 9, 36, 0
11, 49576, Note_on_c, 9, 36, 0
11, 49576, Note_on_c, 9, 36, 0
11, 49576, Note_on_c, 9, 36, 0
11, 49576, Note_on_c, 9, 36, 0
11, 49576, Note_on_c, 9, 36, 0
11, 49620, Note_on_c, 9, 51, 0
11, 49620, Note_on_c, 9, 51, 0
11, 49620, Note_on_c, 9, 51, 0
11, 49620, Note_on_c, 9, 51, 0
11, 49620, Note_on_c, 9, 51, 0
11, 49620, Note_on_c, 9, 51, 0
11, 49620, Note_on_c, 9, 51, 0
11, 49620, Note_on_c, 9, 51, 0
11, 49620, Note_on_c, 9, 51, 0
11, 49620, Note_on_c, 9, 51, 0
11, 49620, Note_on_c, 9, 51, 0
11, 49620, Note_on_c, 9, 51, 0
11, 49620, Note_on_c, 9, 51, 0
11, 49620, Note_on_c, 9, 51, 0
11, 49620, Note_on_c, 9, 51, 0
11, 49620, Note_on_c, 9, 51, 0
11, 49620, Note_on_c, 9, 51, 0
11, 49620, Note_on_c, 9, 51, 0
11, 49620, Note_on_c, 9, 51, 0
11, 49620, Note_on_c, 9, 51, 0
11, 49620, Note_on_c, 9, 51, 0
11, 49620, Note_on_c, 9, 51, 0
11, 49620, Note_on_c, 9, 51, 0
11, 49620, Note_on_c, 9, 51, 0
11, 49620, Note_on_c, 9, 51, 0
11, 49620, Note_on_c, 9, 51, 0
11, 49620, Note_on_c, 9, 51, 0
11, 49620, Note_on_c, 9, 51, 0
11, 49620, Note_on_c, 9, 51, 0
11, 49620, Note_on_c, 9, 51, 0
11, 49620, Note_on_c, 9, 51, 0
11, 49620, Note_on_c, 9, 51, 0
11, 49644, Note_on_c, 9, 51, 0
11, 49644, Note_on_c, 9, 51, 0
11, 49644, Note_on_c, 9, 51, 0
11, 49644, Note_on_c, 9, 51, 0
11, 49644, Note_on_c, 9, 51, 0
11, 49644, Note_on_c, 9, 51, 0
11, 49644, Note_on_c, 9, 51, 0
11, 49644, Note_on_c, 9, 51, 0
11, 49644, Note_on_c, 9, 51, 0
11, 49644, Note_on_c, 9, 51, 0
11, 49644, Note_on_c, 9, 51, 0
11, 49644, Note_on_c, 9, 51, 0
11, 49644, Note_on_c, 9, 51, 0
11, 49644, Note_on_c, 9, 51, 0
11, 49644, Note_on_c, 9, 51, 0
11, 49644, Note_on_c, 9, 51, 0
11, 49644, Note_on_c, 9, 51, 0
11, 49644, Note_on_c, 9, 51, 0
11, 49644, Note_on_c, 9, 51, 0
11, 49644, Note_on_c, 9, 51, 0
11, 49644, Note_on_c, 9, 51, 0
11, 49644, Note_on_c, 9, 51, 0
11, 49644, Note_on_c, 9, 51, 0
11, 49644, Note_on_c, 9, 51, 0
11, 49644, Note_on_c, 9, 51, 0
11, 49644, Note_on_c, 9, 51, 0
11, 49644, Note_on_c, 9, 51, 0
11, 49644, Note_on_c, 9, 51, 0
11, 49644, Note_on_c, 9, 51, 0
11, 49644, Note_on_c, 9, 51, 0
11, 49644, Note_on_c, 9, 51, 0
11, 49644, Note_on_c, 9, 51, 0
11, 49650, Note_on_c, 9, 36, 0
11, 49650, Note_on_c, 9, 36, 0
11, 49650, Note_on_c, 9, 36, 0
11, 49650, Note_on_c, 9, 36, 0
11, 49650, Note_on_c, 9, 36, 0
11, 49650, Note_on_c, 9, 36, 0
11, 49650, Note_on_c, 9, 36, 0
11, 49650, Note_on_c, 9, 36, 0
11, 49650, Note_on_c, 9, 36, 0
11, 49650, Note_on_c, 9, 36, 0
11, 49650, Note_on_c, 9, 36, 0
11, 49650, Note_on_c, 9, 36, 0
11, 49650, Note_on_c, 9, 36, 0
11, 49650, Note_on_c, 9, 36, 0
11, 49650, Note_on_c, 9, 36, 0
11, 49650, Note_on_c, 9, 36, 0
11, 49650, Note_on_c, 9, 36, 0
11, 49650, Note_on_c, 9, 36, 0
11, 49650, Note_on_c, 9, 36, 0
11, 49650, Note_on_c, 9, 36, 0
11, 49650, Note_on_c, 9, 36, 0
11, 49650, Note_on_c, 9, 36, 0
11, 49650, Note_on_c, 9, 36, 0
11, 49650, Note_on_c, 9, 36, 0
11, 49650, Note_on_c, 9, 36, 0
11, 49650, Note_on_c, 9, 36, 0
11, 49650, Note_on_c, 9, 36, 0
11, 49650, Note_on_c, 9, 36, 0
11, 49650, Note_on_c, 9, 36, 0
11, 49650, Note_on_c, 9, 36, 0
11, 49650, Note_on_c, 9, 36, 0
11, 49650, Note_on_c, 9, 36, 0
11, 49662, Note_on_c, 9, 36, 0
11, 49662, Note_on_c, 9, 36, 0
11, 49662, Note_on_c, 9, 36, 0
11, 49662, Note_on_c, 9, 36, 0
11, 49662, Note_on_c, 9, 36, 0
11, 49662, Note_on_c, 9, 36, 0
11, 49662, Note_on_c, 9, 36, 0
11, 49662, Note_on_c, 9, 36, 0
11, 49662, Note_on_c, 9, 36, 0
11, 49662, Note_on_c, 9, 36, 0
11, 49662, Note_on_c, 9, 36, 0
11, 49662, Note_on_c, 9, 36, 0
11, 49662, Note_on_c, 9, 36, 0
11, 49662, Note_on_c, 9, 36, 0
11, 49662, Note_on_c, 9, 36, 0
11, 49662, Note_on_c, 9, 36, 0
11, 49662, Note_on_c, 9, 36, 0
11, 49662, Note_on_c, 9, 36, 0
11, 49662, Note_on_c, 9, 36, 0
11, 49662, Note_on_c, 9, 36, 0
11, 49662, Note_on_c, 9, 36, 0
11, 49662, Note_on_c, 9, 36, 0
11, 49662, Note_on_c, 9, 36, 0
11, 49662, Note_on_c, 9, 36, 0
11, 49662, Note_on_c, 9, 36, 0
11, 49662, Note_on_c, 9, 36, 0
11, 49662, Note_on_c, 9, 36, 0
11, 49662, Note_on_c, 9, 36, 0
11, 49662, Note_on_c, 9, 36, 0
11, 49662, Note_on_c, 9, 36, 0
11, 49662, Note_on_c, 9, 36, 0
11, 49662, Note_on_c, 9, 36, 0
11, 49662, End_track
12, 0, Start_track
12, 0, MIDI_port, 0
12, 0, Title_t, "SoundTrack"
12, 0, Control_c, 10, 0, 56
12, 0, Control_c, 10, 32, 0
12, 0, Program_c, 10, 97
12, 0, Control_c, 10, 7, 98
12, 0, Control_c, 10, 10, 64
12, 660, Control_c, 10, 7, 127
12, 660, Control_c, 10, 10, 64
12, 4405, Control_c, 10, 7, 126
12, 4410, Control_c, 10, 7, 120
12, 8490, Control_c, 10, 10, 66
12, 8500, Control_c, 10, 10, 60
12, 8505, Control_c, 10, 10, 49
12, 8505, Control_c, 10, 10, 58
12, 8510, Control_c, 10, 10, 48
12, 8578, Control_c, 10, 10, 46
12, 8610, Control_c, 10, 10, 44
12, 8645, Control_c, 10, 10, 42
12, 10485, Control_c, 10, 10, 75
12, 10492, Control_c, 10, 10, 73
12, 10493, Control_c, 10, 10, 70
12, 10500, Control_c, 10, 10, 66
12, 10505, Control_c, 10, 10, 60
12, 10515, Control_c, 10, 10, 56
12, 10524, Control_c, 10, 10, 53
12, 10535, Control_c, 10, 10, 51
12, 10537, Control_c, 10, 10, 48
12, 10542, Control_c, 10, 10, 44
12, 10547, Control_c, 10, 10, 38
12, 10602, Control_c, 10, 10, 40
12, 10607, Control_c, 10, 10, 42
12, 10620, Control_c, 10, 10, 44
12, 20160, Note_on_c, 10, 74, 39
12, 20368, Note_on_c, 10, 74, 0
12, 20400, Note_on_c, 10, 74, 37
12, 20610, Note_on_c, 10, 76, 40
12, 20622, Note_on_c, 10, 74, 0
12, 20866, Note_on_c, 10, 76, 0
12, 20910, Note_on_c, 10, 81, 28
12, 21013, Note_on_c, 10, 81, 0
12, 21030, Note_on_c, 10, 79, 61
12, 21111, Note_on_c, 10, 79, 0
12, 21120, Note_on_c, 10, 78, 61
12, 21359, Note_on_c, 10, 78, 0
12, 21360, Note_on_c, 10, 74, 65
12, 21570, Note_on_c, 10, 72, 60
12, 21578, Note_on_c, 10, 74, 0
12, 21698, Note_on_c, 10, 72, 0
12, 21720, Note_on_c, 10, 71, 60
12, 21810, Note_on_c, 10, 69, 59
12, 21814, Note_on_c, 10, 71, 0
12, 21956, Note_on_c, 10, 69, 0
12, 32400, Note_on_c, 10, 74, 60
12, 32608, Note_on_c, 10, 74, 0
12, 32640, Note_on_c, 10, 74, 60
12, 32850, Note_on_c, 10, 76, 60
12, 32862, Note_on_c, 10, 74, 0
12, 33106, Note_on_c, 10, 76, 0
12, 33150, Note_on_c, 10, 81, 60
12, 33253, Note_on_c, 10, 81, 0
12, 33270, Note_on_c, 10, 79, 60
12, 33351, Note_on_c, 10, 79, 0
12, 33360, Note_on_c, 10, 78, 60
12, 33599, Note_on_c, 10, 78, 0
12, 33600, Note_on_c, 10, 74, 60
12, 33810, Note_on_c, 10, 72, 60
12, 33818, Note_on_c, 10, 74, 0
12, 33938, Note_on_c, 10, 72, 0
12, 33960, Note_on_c, 10, 71, 60
12, 34050, Note_on_c, 10, 69, 60
12, 34054, Note_on_c, 10, 71, 0
12, 34196, Note_on_c, 10, 69, 0
12, 35485, Control_c, 10, 93, 63
12, 35493, Control_c, 10, 93, 68
12, 35498, Control_c, 10, 93, 73
12, 35503, Control_c, 10, 93, 78
12, 35508, Control_c, 10, 93, 84
12, 35512, Control_c, 10, 93, 87
12, 35518, Control_c, 10, 93, 89
12, 35523, Control_c, 10, 93, 93
12, 35551, Control_c, 10, 93, 94
12, 35570, Control_c, 10, 93, 96
12, 35570, End_track
13, 0, Start_track
13, 0, MIDI_port, 0
13, 0, Title_t, "SquareWave"
13, 0, Control_c, 11, 0, 56
13, 0, Control_c, 11, 32, 0
13, 0, Program_c, 11, 80
13, 0, Control_c, 11, 7, 90
13, 0, Control_c, 11, 10, 64
13, 0, Control_c, 11, 93, 79
13, 660, Control_c, 11, 7, 127
13, 660, Control_c, 11, 10, 64
13, 4513, Control_c, 11, 7, 120
13, 4524, Control_c, 11, 7, 110
13, 4528, Control_c, 11, 7, 109
13, 4627, Control_c, 11, 10, 66
13, 4648, Control_c, 11, 10, 70
13, 4650, Control_c, 11, 7, 110
13, 4660, Control_c, 11, 10, 73
13, 4663, Control_c, 11, 10, 75
13, 4668, Control_c, 11, 7, 111
13, 4668, Control_c, 11, 10, 77
13, 4673, Control_c, 11, 7, 114
13, 4673, Control_c, 11, 10, 80
13, 4777, Control_c, 11, 10, 78
13, 4792, Control_c, 11, 10, 75
13, 4793, Control_c, 11, 10, 73
13, 4800, Control_c, 11, 10, 70
13, 4810, Control_c, 11, 10, 66
13, 4815, Control_c, 11, 10, 63
13, 4818, Control_c, 11, 10, 60
13, 4821, Control_c, 11, 7, 115
13, 4826, Control_c, 11, 7, 117
13, 4876, Control_c, 11, 10, 56
13, 8765, Control_c, 11, 10, 54
13, 8785, Control_c, 11, 10, 57
13, 8791, Control_c, 11, 10, 60
13, 8796, Control_c, 11, 10, 63
13, 8801, Control_c, 11, 10, 66
13, 8808, Control_c, 11, 10, 69
13, 8812, Control_c, 11, 10, 72
13, 8820, Control_c, 11, 10, 74
13, 9136, Control_c, 11, 10, 77
13, 9149, Control_c, 11, 10, 78
13, 9154, Control_c, 11, 10, 84
13, 9159, Control_c, 11, 10, 87
13, 9222, Control_c, 11, 10, 84
13, 10787, Control_c, 11, 10, 60
13, 10793, Control_c, 11, 10, 66
13, 10793, Control_c, 11, 10, 63
13, 10805, Control_c, 11, 10, 75
13, 10805, Control_c, 11, 10, 70
13, 10810, Control_c, 11, 10, 78
13, 10817, Control_c, 11, 10, 82
13, 10817, Control_c, 11, 10, 80
13, 10822, Control_c, 11, 10, 84
13, 12480, Note_on_c, 11, 64, 55
13, 12508, Note_on_c, 11, 64, 0
13, 12510, Note_on_c, 11, 63, 55
13, 12530, Note_on_c, 11, 63, 0
13, 12540, Note_on_c, 11, 64, 55
13, 12568, Note_on_c, 11, 64, 0
13, 12570, Note_on_c, 11, 63, 55
13, 12593, Note_on_c, 11, 63, 0
13, 12600, Note_on_c, 11, 64, 55
13, 12628, Note_on_c, 11, 64, 0
13, 12630, Note_on_c, 11, 63, 55
13, 12651, Note_on_c, 11, 63, 0
13, 12660, Note_on_c, 11, 64, 55
13, 12665, Control_c, 11, 93, 80
13, 12670, Control_c, 11, 93, 82
13, 12680, Control_c, 11, 93, 84
13, 12690, Control_c, 11, 93, 86
13, 12690, Note_on_c, 11, 63, 55
13, 12692, Note_on_c, 11, 64, 0
13, 12692, Control_c, 11, 93, 88
13, 12697, Control_c, 11, 93, 94
13, 12703, Control_c, 11, 93, 97
13, 12715, Note_on_c, 11, 63, 0
13, 12720, Note_on_c, 11, 64, 55
13, 12750, Note_on_c, 11, 63, 55
13, 12752, Note_on_c, 11, 64, 0
13, 12770, Note_on_c, 11, 63, 0
13, 12780, Note_on_c, 11, 64, 55
13, 12781, Control_c, 11, 93, 100
13, 12786, Control_c, 11, 93, 103
13, 12810, Note_on_c, 11, 63, 55
13, 12815, Note_on_c, 11, 64, 0
13, 12831, Note_on_c, 11, 63, 0
13, 12840, Note_on_c, 11, 64, 55
13, 12870, Note_on_c, 11, 64, 0
13, 12870, Note_on_c, 11, 63, 55
13, 12888, Control_c, 11, 93, 80
13, 12892, Note_on_c, 11, 63, 0
13, 12894, Control_c, 11, 93, 82
13, 12900, Control_c, 11, 93, 84
13, 12900, Note_on_c, 11, 64, 55
13, 12915, Control_c, 11, 93, 89
13, 12915, Control_c, 11, 93, 87
13, 12923, Control_c, 11, 93, 91
13, 12930, Note_on_c, 11, 63, 55
13, 12936, Note_on_c, 11, 64, 0
13, 12951, Note_on_c, 11, 63, 0
13, 12960, Note_on_c, 11, 64, 55
13, 12990, Note_on_c, 11, 63, 55
13, 12992, Note_on_c, 11, 64, 0
13, 13009, Note_on_c, 11, 63, 0
13, 13009, Control_c, 11, 93, 94
13, 13020, Note_on_c, 11, 64, 55
13, 13050, Note_on_c, 11, 63, 55
13, 13056, Note_on_c, 11, 64, 0
13, 13070, Note_on_c, 11, 63, 0
13, 13080, Note_on_c, 11, 64, 55
13, 13108, Note_on_c, 11, 64, 0
13, 13110, Note_on_c, 11, 63, 55
13, 13130, Note_on_c, 11, 63, 0
13, 13140, Note_on_c, 11, 64, 55
13, 13155, Control_c, 11, 93, 99
13, 13155, Control_c, 11, 93, 96
13, 13170, Control_c, 11, 93, 102
13, 13170, Note_on_c, 11, 63, 55
13, 13171, Note_on_c, 11, 64, 0
13, 13171, Control_c, 11, 93, 105
13, 13182, Note_on_c, 11, 63, 0
13, 13196, Control_c, 11, 7, 126
13, 13200, Note_on_c, 11, 63, 55
13, 13210, Control_c, 11, 7, 127
13, 13230, Note_on_c, 11, 63, 0
13, 13230, Note_on_c, 11, 59, 55
13, 13250, Note_on_c, 11, 59, 0
13, 13260, Note_on_c, 11, 63, 55
13, 13290, Note_on_c, 11, 59, 55
13, 13292, Note_on_c, 11, 63, 0
13, 13309, Note_on_c, 11, 59, 0
13, 13320, Note_on_c, 11, 63, 55
13, 13330, Control_c, 11, 93, 102
13, 13335, Control_c, 11, 93, 99
13, 13349, Note_on_c, 11, 63, 0
13, 13350, Note_on_c, 11, 59, 55
13, 13372, Note_on_c, 11, 59, 0
13, 13380, Note_on_c, 11, 63, 55
13, 13410, Note_on_c, 11, 59, 55
13, 13414, Note_on_c, 11, 63, 0
13, 13429, Note_on_c, 11, 59, 0
13, 13440, Note_on_c, 11, 61, 55
13, 13470, Note_on_c, 11, 61, 0
13, 13470, Note_on_c, 11, 59, 55
13, 13492, Note_on_c, 11, 59, 0
13, 13500, Note_on_c, 11, 61, 55
13, 13530, Note_on_c, 11, 61, 0
13, 13530, Note_on_c, 11, 59, 55
13, 13556, Note_on_c, 11, 59, 0
13, 13560, Note_on_c, 11, 61, 55
13, 13590, Note_on_c, 11, 59, 55
13, 13592, Note_on_c, 11, 61, 0
13, 13612, Note_on_c, 11, 59, 0
13, 13620, Note_on_c, 11, 61, 55
13, 13648, Note_on_c, 11, 61, 0
13, 13650, Note_on_c, 11, 59, 55
13, 13672, Note_on_c, 11, 59, 0
13, 13680, Note_on_c, 11, 63, 55
13, 13710, Note_on_c, 11, 59, 55
13, 13711, Note_on_c, 11, 63, 0
13, 13733, Note_on_c, 11, 59, 0
13, 13740, Note_on_c, 11, 63, 55
13, 13769, Note_on_c, 11, 63, 0
13, 13770, Note_on_c, 11, 59, 55
13, 13790, Note_on_c, 11, 59, 0
13, 13800, Note_on_c, 11, 63, 55
13, 13830, Note_on_c, 11, 59, 55
13, 13831, Note_on_c, 11, 63, 0
13, 13850, Note_on_c, 11, 59, 0
13, 13860, Note_on_c, 11, 63, 55
13, 13884, Note_on_c, 11, 63, 0
13, 13890, Note_on_c, 11, 59, 55
13, 13912, Note_on_c, 11, 59, 0
13, 13920, Note_on_c, 11, 64, 55
13, 13950, Note_on_c, 11, 64, 0
13, 13950, Note_on_c, 11, 59, 55
13, 13974, Note_on_c, 11, 59, 0
13, 13980, Note_on_c, 11, 64, 55
13, 14010, Note_on_c, 11, 59, 55
13, 14013, Note_on_c, 11, 64, 0
13, 14037, Note_on_c, 11, 59, 0
13, 14040, Note_on_c, 11, 64, 55
13, 14070, Note_on_c, 11, 59, 55
13, 14075, Note_on_c, 11, 64, 0
13, 14090, Note_on_c, 11, 59, 0
13, 14100, Note_on_c, 11, 64, 55
13, 14130, Note_on_c, 11, 59, 55
13, 14133, Note_on_c, 11, 64, 0
13, 14153, Note_on_c, 11, 59, 0
13, 14160, Note_on_c, 11, 64, 55
13, 14190, Note_on_c, 11, 59, 55
13, 14193, Note_on_c, 11, 64, 0
13, 14215, Note_on_c, 11, 59, 0
13, 14220, Note_on_c, 11, 64, 55
13, 14250, Note_on_c, 11, 59, 55
13, 14254, Note_on_c, 11, 64, 0
13, 14271, Note_on_c, 11, 59, 0
13, 14280, Note_on_c, 11, 64, 55
13, 14310, Note_on_c, 11, 59, 55
13, 14313, Note_on_c, 11, 64, 0
13, 14329, Note_on_c, 11, 59, 0
13, 14340, Note_on_c, 11, 64, 55
13, 14370, Note_on_c, 11, 59, 55
13, 14373, Note_on_c, 11, 64, 0
13, 14385, Note_on_c, 11, 59, 0
13, 14400, Note_on_c, 11, 64, 55
13, 14428, Note_on_c, 11, 64, 0
13, 14430, Note_on_c, 11, 63, 55
13, 14451, Note_on_c, 11, 63, 0
13, 14460, Note_on_c, 11, 64, 55
13, 14488, Note_on_c, 11, 64, 0
13, 14490, Note_on_c, 11, 63, 55
13, 14512, Note_on_c, 11, 63, 0
13, 14520, Note_on_c, 11, 64, 55
13, 14549, Note_on_c, 11, 64, 0
13, 14550, Note_on_c, 11, 63, 55
13, 14572, Note_on_c, 11, 63, 0
13, 14580, Note_on_c, 11, 64, 55
13, 14610, Note_on_c, 11, 63, 55
13, 14615, Note_on_c, 11, 64, 0
13, 14629, Note_on_c, 11, 63, 0
13, 14640, Note_on_c, 11, 64, 55
13, 14670, Note_on_c, 11, 64, 0
13, 14670, Note_on_c, 11, 63, 55
13, 14691, Note_on_c, 11, 63, 0
13, 14700, Note_on_c, 11, 64, 55
13, 14730, Note_on_c, 11, 64, 0
13, 14730, Note_on_c, 11, 63, 55
13, 14750, Note_on_c, 11, 63, 0
13, 14760, Note_on_c, 11, 64, 55
13, 14790, Note_on_c, 11, 64, 0
13, 14790, Note_on_c, 11, 63, 55
13, 14812, Note_on_c, 11, 63, 0
13, 14820, Note_on_c, 11, 64, 55
13, 14850, Note_on_c, 11, 63, 55
13, 14853, Note_on_c, 11, 64, 0
13, 14867, Note_on_c, 11, 63, 0
13, 14880, Note_on_c, 11, 64, 55
13, 14910, Note_on_c, 11, 63, 55
13, 14911, Note_on_c, 11, 64, 0
13, 14928, Note_on_c, 11, 63, 0
13, 14940, Note_on_c, 11, 64, 55
13, 14970, Note_on_c, 11, 63, 55
13, 14973, Note_on_c, 11, 64, 0
13, 14987, Note_on_c, 11, 63, 0
13, 15000, Note_on_c, 11, 64, 55
13, 15030, Note_on_c, 11, 63, 55
13, 15031, Note_on_c, 11, 64, 0
13, 15046, Note_on_c, 11, 63, 0
13, 15060, Note_on_c, 11, 64, 55
13, 15090, Note_on_c, 11, 63, 55
13, 15098, Note_on_c, 11, 64, 0
13, 15103, Note_on_c, 11, 63, 0
13, 15120, Note_on_c, 11, 63, 55
13, 15146, Note_on_c, 11, 63, 0
13, 15150, Note_on_c, 11, 59, 55
13, 15171, Note_on_c, 11, 59, 0
13, 15180, Note_on_c, 11, 63, 55
13, 15210, Note_on_c, 11, 59, 55
13, 15212, Note_on_c, 11, 63, 0
13, 15230, Note_on_c, 11, 59, 0
13, 15240, Note_on_c, 11, 63, 55
13, 15270, Note_on_c, 11, 63, 0
13, 15270, Note_on_c, 11, 59, 55
13, 15290, Note_on_c, 11, 59, 0
13, 15300, Note_on_c, 11, 63, 55
13, 15330, Note_on_c, 11, 59, 55
13, 15333, Note_on_c, 11, 63, 0
13, 15347, Note_on_c, 11, 59, 0
13, 15360, Note_on_c, 11, 61, 55
13, 15390, Note_on_c, 11, 61, 0
13, 15390, Note_on_c, 11, 59, 55
13, 15408, Note_on_c, 11, 59, 0
13, 15420, Note_on_c, 11, 61, 55
13, 15450, Note_on_c, 11, 59, 55
13, 15453, Note_on_c, 11, 61, 0
13, 15471, Note_on_c, 11, 59, 0
13, 15480, Note_on_c, 11, 61, 55
13, 15510, Note_on_c, 11, 61, 0
13, 15510, Note_on_c, 11, 59, 55
13, 15532, Note_on_c, 11, 59, 0
13, 15540, Note_on_c, 11, 61, 55
13, 15568, Note_on_c, 11, 61, 0
13, 15570, Note_on_c, 11, 59, 55
13, 15589, Note_on_c, 11, 59, 0
13, 15600, Note_on_c, 11, 63, 55
13, 15628, Note_on_c, 11, 63, 0
13, 15630, Note_on_c, 11, 59, 55
13, 15649, Note_on_c, 11, 59, 0
13, 15660, Note_on_c, 11, 63, 55
13, 15689, Note_on_c, 11, 63, 0
13, 15690, Note_on_c, 11, 59, 55
13, 15711, Note_on_c, 11, 59, 0
13, 15720, Note_on_c, 11, 63, 55
13, 15750, Note_on_c, 11, 59, 55
13, 15753, Note_on_c, 11, 63, 0
13, 15771, Note_on_c, 11, 59, 0
13, 15780, Note_on_c, 11, 63, 55
13, 15810, Note_on_c, 11, 59, 55
13, 15811, Note_on_c, 11, 63, 0
13, 15831, Note_on_c, 11, 59, 0
13, 15840, Note_on_c, 11, 64, 55
13, 15868, Note_on_c, 11, 64, 0
13, 15870, Note_on_c, 11, 59, 55
13, 15890, Note_on_c, 11, 59, 0
13, 15900, Note_on_c, 11, 64, 55
13, 15930, Note_on_c, 11, 59, 55
13, 15934, Note_on_c, 11, 64, 0
13, 15953, Note_on_c, 11, 59, 0
13, 15960, Note_on_c, 11, 64, 55
13, 15990, Note_on_c, 11, 59, 55
13, 15993, Note_on_c, 11, 64, 0
13, 16011, Note_on_c, 11, 59, 0
13, 16020, Note_on_c, 11, 64, 55
13, 16050, Note_on_c, 11, 59, 55
13, 16055, Note_on_c, 11, 64, 0
13, 16075, Note_on_c, 11, 59, 0
13, 16080, Note_on_c, 11, 64, 55
13, 16110, Note_on_c, 11, 59, 55
13, 16111, Note_on_c, 11, 64, 0
13, 16137, Note_on_c, 11, 59, 0
13, 16140, Note_on_c, 11, 64, 55
13, 16170, Note_on_c, 11, 59, 55
13, 16173, Note_on_c, 11, 64, 0
13, 16191, Note_on_c, 11, 59, 0
13, 16200, Note_on_c, 11, 64, 55
13, 16230, Note_on_c, 11, 59, 55
13, 16233, Note_on_c, 11, 64, 0
13, 16251, Note_on_c, 11, 59, 0
13, 16260, Note_on_c, 11, 64, 55
13, 16290, Note_on_c, 11, 59, 55
13, 16294, Note_on_c, 11, 64, 0
13, 16304, Note_on_c, 11, 59, 0
13, 22080, Note_on_c, 11, 64, 55
13, 22108, Note_on_c, 11, 64, 0
13, 22110, Note_on_c, 11, 63, 55
13, 22130, Note_on_c, 11, 63, 0
13, 22140, Note_on_c, 11, 64, 55
13, 22168, Note_on_c, 11, 64, 0
13, 22170, Note_on_c, 11, 63, 55
13, 22193, Note_on_c, 11, 63, 0
13, 22200, Note_on_c, 11, 64, 55
13, 22228, Note_on_c, 11, 64, 0
13, 22230, Note_on_c, 11, 63, 55
13, 22251, Note_on_c, 11, 63, 0
13, 22260, Note_on_c, 11, 64, 55
13, 22290, Note_on_c, 11, 63, 55
13, 22292, Note_on_c, 11, 64, 0
13, 22315, Note_on_c, 11, 63, 0
13, 22320, Note_on_c, 11, 64, 55
13, 22350, Note_on_c, 11, 63, 55
13, 22352, Note_on_c, 11, 64, 0
13, 22370, Note_on_c, 11, 63, 0
13, 22380, Note_on_c, 11, 64, 55
13, 22410, Note_on_c, 11, 63, 55
13, 22415, Note_on_c, 11, 64, 0
13, 22431, Note_on_c, 11, 63, 0
13, 22440, Note_on_c, 11, 64, 55
13, 22470, Note_on_c, 11, 64, 0
13, 22470, Note_on_c, 11, 63, 55
13, 22492, Note_on_c, 11, 63, 0
13, 22500, Note_on_c, 11, 64, 55
13, 22530, Note_on_c, 11, 63, 55
13, 22536, Note_on_c, 11, 64, 0
13, 22551, Note_on_c, 11, 63, 0
13, 22560, Note_on_c, 11, 64, 55
13, 22590, Note_on_c, 11, 63, 55
13, 22592, Note_on_c, 11, 64, 0
13, 22609, Note_on_c, 11, 63, 0
13, 22620, Note_on_c, 11, 64, 55
13, 22650, Note_on_c, 11, 63, 55
13, 22656, Note_on_c, 11, 64, 0
13, 22670, Note_on_c, 11, 63, 0
13, 22680, Note_on_c, 11, 64, 55
13, 22708, Note_on_c, 11, 64, 0
13, 22710, Note_on_c, 11, 63, 55
13, 22730, Note_on_c, 11, 63, 0
13, 22740, Note_on_c, 11, 64, 55
13, 22770, Note_on_c, 11, 63, 55
13, 22771, Note_on_c, 11, 64, 0
13, 22782, Note_on_c, 11, 63, 0
13, 22800, Note_on_c, 11, 63, 55
13, 22830, Note_on_c, 11, 63, 0
13, 22830, Note_on_c, 11, 59, 55
13, 22850, Note_on_c, 11, 59, 0
13, 22860, Note_on_c, 11, 63, 55
13, 22890, Note_on_c, 11, 59, 55
13, 22892, Note_on_c, 11, 63, 0
13, 22909, Note_on_c, 11, 59, 0
13, 22920, Note_on_c, 11, 63, 55
13, 22949, Note_on_c, 11, 63, 0
13, 22950, Note_on_c, 11, 59, 55
13, 22972, Note_on_c, 11, 59, 0
13, 22980, Note_on_c, 11, 63, 55
13, 23010, Note_on_c, 11, 59, 55
13, 23014, Note_on_c, 11, 63, 0
13, 23029, Note_on_c, 11, 59, 0
13, 23040, Note_on_c, 11, 61, 55
13, 23070, Note_on_c, 11, 61, 0
13, 23070, Note_on_c, 11, 59, 55
13, 23092, Note_on_c, 11, 59, 0
13, 23100, Note_on_c, 11, 61, 55
13, 23130, Note_on_c, 11, 61, 0
13, 23130, Note_on_c, 11, 59, 55
13, 23156, Note_on_c, 11, 59, 0
13, 23160, Note_on_c, 11, 61, 55
13, 23190, Note_on_c, 11, 59, 55
13, 23192, Note_on_c, 11, 61, 0
13, 23212, Note_on_c, 11, 59, 0
13, 23220, Note_on_c, 11, 61, 55
13, 23248, Note_on_c, 11, 61, 0
13, 23250, Note_on_c, 11, 59, 55
13, 23272, Note_on_c, 11, 59, 0
13, 23280, Note_on_c, 11, 63, 55
13, 23310, Note_on_c, 11, 59, 55
13, 23311, Note_on_c, 11, 63, 0
13, 23333, Note_on_c, 11, 59, 0
13, 23340, Note_on_c, 11, 63, 55
13, 23369, Note_on_c, 11, 63, 0
13, 23370, Note_on_c, 11, 59, 55
13, 23390, Note_on_c, 11, 59, 0
13, 23400, Note_on_c, 11, 63, 55
13, 23430, Note_on_c, 11, 59, 55
13, 23431, Note_on_c, 11, 63, 0
13, 23450, Note_on_c, 11, 59, 0
13, 23460, Note_on_c, 11, 63, 55
13, 23484, Note_on_c, 11, 63, 0
13, 23490, Note_on_c, 11, 59, 55
13, 23512, Note_on_c, 11, 59, 0
13, 23520, Note_on_c, 11, 64, 55
13, 23550, Note_on_c, 11, 64, 0
13, 23550, Note_on_c, 11, 59, 55
13, 23574, Note_on_c, 11, 59, 0
13, 23580, Note_on_c, 11, 64, 55
13, 23610, Note_on_c, 11, 59, 55
13, 23613, Note_on_c, 11, 64, 0
13, 23637, Note_on_c, 11, 59, 0
13, 23640, Note_on_c, 11, 64, 55
13, 23670, Note_on_c, 11, 59, 55
13, 23675, Note_on_c, 11, 64, 0
13, 23690, Note_on_c, 11, 59, 0
13, 23700, Note_on_c, 11, 64, 55
13, 23730, Note_on_c, 11, 59, 55
13, 23733, Note_on_c, 11, 64, 0
13, 23753, Note_on_c, 11, 59, 0
13, 23760, Note_on_c, 11, 64, 55
13, 23790, Note_on_c, 11, 59, 55
13, 23793, Note_on_c, 11, 64, 0
13, 23815, Note_on_c, 11, 59, 0
13, 23820, Note_on_c, 11, 64, 55
13, 23850, Note_on_c, 11, 59, 55
13, 23854, Note_on_c, 11, 64, 0
13, 23871, Note_on_c, 11, 59, 0
13, 23880, Note_on_c, 11, 64, 55
13, 23910, Note_on_c, 11, 59, 55
13, 23913, Note_on_c, 11, 64, 0
13, 23929, Note_on_c, 11, 59, 0
13, 23940, Note_on_c, 11, 64, 55
13, 23970, Note_on_c, 11, 59, 55
13, 23973, Note_on_c, 11, 64, 0
13, 23985, Note_on_c, 11, 59, 0
13, 24000, Note_on_c, 11, 64, 55
13, 24028, Note_on_c, 11, 64, 0
13, 24030, Note_on_c, 11, 63, 55
13, 24051, Note_on_c, 11, 63, 0
13, 24060, Note_on_c, 11, 64, 55
13, 24088, Note_on_c, 11, 64, 0
13, 24090, Note_on_c, 11, 63, 55
13, 24112, Note_on_c, 11, 63, 0
13, 24120, Note_on_c, 11, 64, 55
13, 24149, Note_on_c, 11, 64, 0
13, 24150, Note_on_c, 11, 63, 55
13, 24172, Note_on_c, 11, 63, 0
13, 24180, Note_on_c, 11, 64, 55
13, 24210, Note_on_c, 11, 63, 55
13, 24215, Note_on_c, 11, 64, 0
13, 24229, Note_on_c, 11, 63, 0
13, 24240, Note_on_c, 11, 64, 55
13, 24270, Note_on_c, 11, 64, 0
13, 24270, Note_on_c, 11, 63, 55
13, 24291, Note_on_c, 11, 63, 0
13, 24300, Note_on_c, 11, 64, 55
13, 24330, Note_on_c, 11, 64, 0
13, 24330, Note_on_c, 11, 63, 55
13, 24350, Note_on_c, 11, 63, 0
13, 24360, Note_on_c, 11, 64, 55
13, 24390, Note_on_c, 11, 64, 0
13, 24390, Note_on_c, 11, 63, 55
13, 24412, Note_on_c, 11, 63, 0
13, 24420, Note_on_c, 11, 64, 55
13, 24450, Note_on_c, 11, 63, 55
13, 24453, Note_on_c, 11, 64, 0
13, 24467, Note_on_c, 11, 63, 0
13, 24480, Note_on_c, 11, 64, 55
13, 24510, Note_on_c, 11, 63, 55
13, 24511, Note_on_c, 11, 64, 0
13, 24528, Note_on_c, 11, 63, 0
13, 24540, Note_on_c, 11, 64, 55
13, 24570, Note_on_c, 11, 63, 55
13, 24573, Note_on_c, 11, 64, 0
13, 24587, Note_on_c, 11, 63, 0
13, 24600, Note_on_c, 11, 64, 55
13, 24630, Note_on_c, 11, 63, 55
13, 24631, Note_on_c, 11, 64, 0
13, 24646, Note_on_c, 11, 63, 0
13, 24660, Note_on_c, 11, 64, 55
13, 24690, Note_on_c, 11, 63, 55
13, 24698, Note_on_c, 11, 64, 0
13, 24703, Note_on_c, 11, 63, 0
13, 24720, Note_on_c, 11, 63, 55
13, 24746, Note_on_c, 11, 63, 0
13, 24750, Note_on_c, 11, 59, 55
13, 24771, Note_on_c, 11, 59, 0
13, 24780, Note_on_c, 11, 63, 55
13, 24810, Note_on_c, 11, 59, 55
13, 24812, Note_on_c, 11, 63, 0
13, 24830, Note_on_c, 11, 59, 0
13, 24840, Note_on_c, 11, 63, 55
13, 24870, Note_on_c, 11, 63, 0
13, 24870, Note_on_c, 11, 59, 55
13, 24890, Note_on_c, 11, 59, 0
13, 24900, Note_on_c, 11, 63, 55
13, 24930, Note_on_c, 11, 59, 55
13, 24933, Note_on_c, 11, 63, 0
13, 24947, Note_on_c, 11, 59, 0
13, 24960, Note_on_c, 11, 61, 55
13, 24990, Note_on_c, 11, 61, 0
13, 24990, Note_on_c, 11, 59, 55
13, 25008, Note_on_c, 11, 59, 0
13, 25020, Note_on_c, 11, 61, 55
13, 25050, Note_on_c, 11, 59, 55
13, 25053, Note_on_c, 11, 61, 0
13, 25071, Note_on_c, 11, 59, 0
13, 25080, Note_on_c, 11, 61, 55
13, 25110, Note_on_c, 11, 61, 0
13, 25110, Note_on_c, 11, 59, 55
13, 25132, Note_on_c, 11, 59, 0
13, 25140, Note_on_c, 11, 61, 55
13, 25168, Note_on_c, 11, 61, 0
13, 25170, Note_on_c, 11, 59, 55
13, 25189, Note_on_c, 11, 59, 0
13, 25200, Note_on_c, 11, 63, 55
13, 25228, Note_on_c, 11, 63, 0
13, 25230, Note_on_c, 11, 59, 55
13, 25249, Note_on_c, 11, 59, 0
13, 25260, Note_on_c, 11, 63, 55
13, 25289, Note_on_c, 11, 63, 0
13, 25290, Note_on_c, 11, 59, 55
13, 25311, Note_on_c, 11, 59, 0
13, 25320, Note_on_c, 11, 63, 55
13, 25350, Note_on_c, 11, 59, 55
13, 25353, Note_on_c, 11, 63, 0
13, 25371, Note_on_c, 11, 59, 0
13, 25380, Note_on_c, 11, 63, 55
13, 25410, Note_on_c, 11, 59, 55
13, 25411, Note_on_c, 11, 63, 0
13, 25431, Note_on_c, 11, 59, 0
13, 25440, Note_on_c, 11, 64, 55
13, 25468, Note_on_c, 11, 64, 0
13, 25470, Note_on_c, 11, 59, 55
13, 25490, Note_on_c, 11, 59, 0
13, 25500, Note_on_c, 11, 64, 55
13, 25530, Note_on_c, 11, 59, 55
13, 25534, Note_on_c, 11, 64, 0
13, 25553, Note_on_c, 11, 59, 0
13, 25560, Note_on_c, 11, 64, 55
13, 25590, Note_on_c, 11, 59, 55
13, 25593, Note_on_c, 11, 64, 0
13, 25611, Note_on_c, 11, 59, 0
13, 25620, Note_on_c, 11, 64, 55
13, 25650, Note_on_c, 11, 59, 55
13, 25655, Note_on_c, 11, 64, 0
13, 25675, Note_on_c, 11, 59, 0
13, 34320, Note_on_c, 11, 64, 69
13, 34348, Note_on_c, 11, 64, 0
13, 34350, Note_on_c, 11, 63, 59
13, 34370, Note_on_c, 11, 63, 0
13, 34380, Note_on_c, 11, 64, 69
13, 34408, Note_on_c, 11, 64, 0
13, 34410, Note_on_c, 11, 63, 58
13, 34433, Note_on_c, 11, 63, 0
13, 34440, Note_on_c, 11, 64, 79
13, 34468, Note_on_c, 11, 64, 0
13, 34470, Note_on_c, 11, 63, 59
13, 34491, Note_on_c, 11, 63, 0
13, 34500, Note_on_c, 11, 64, 74
13, 34530, Note_on_c, 11, 63, 57
13, 34532, Note_on_c, 11, 64, 0
13, 34555, Note_on_c, 11, 63, 0
13, 34560, Note_on_c, 11, 64, 74
13, 34590, Note_on_c, 11, 63, 58
13, 34592, Note_on_c, 11, 64, 0
13, 34610, Note_on_c, 11, 63, 0
13, 34620, Note_on_c, 11, 64, 69
13, 34650, Note_on_c, 11, 63, 55
13, 34655, Note_on_c, 11, 64, 0
13, 34671, Note_on_c, 11, 63, 0
13, 34680, Note_on_c, 11, 64, 67
13, 34710, Note_on_c, 11, 64, 0
13, 34710, Note_on_c, 11, 63, 51
13, 34732, Note_on_c, 11, 63, 0
13, 34740, Note_on_c, 11, 64, 65
13, 34770, Note_on_c, 11, 63, 55
13, 34776, Note_on_c, 11, 64, 0
13, 34791, Note_on_c, 11, 63, 0
13, 34800, Note_on_c, 11, 64, 69
13, 34830, Note_on_c, 11, 63, 58
13, 34832, Note_on_c, 11, 64, 0
13, 34849, Note_on_c, 11, 63, 0
13, 34860, Note_on_c, 11, 64, 69
13, 34890, Note_on_c, 11, 63, 58
13, 34896, Note_on_c, 11, 64, 0
13, 34910, Note_on_c, 11, 63, 0
13, 34920, Note_on_c, 11, 64, 67
13, 34948, Note_on_c, 11, 64, 0
13, 34950, Note_on_c, 11, 63, 55
13, 34970, Note_on_c, 11, 63, 0
13, 34980, Note_on_c, 11, 64, 64
13, 35010, Note_on_c, 11, 63, 63
13, 35011, Note_on_c, 11, 64, 0
13, 35022, Note_on_c, 11, 63, 0
13, 35040, Note_on_c, 11, 63, 69
13, 35070, Note_on_c, 11, 63, 0
13, 35070, Note_on_c, 11, 59, 60
13, 35090, Note_on_c, 11, 59, 0
13, 35100, Note_on_c, 11, 63, 67
13, 35130, Note_on_c, 11, 59, 62
13, 35132, Note_on_c, 11, 63, 0
13, 35149, Note_on_c, 11, 59, 0
13, 35160, Note_on_c, 11, 63, 72
13, 35189, Note_on_c, 11, 63, 0
13, 35190, Note_on_c, 11, 59, 60
13, 35212, Note_on_c, 11, 59, 0
13, 35220, Note_on_c, 11, 63, 69
13, 35250, Note_on_c, 11, 59, 61
13, 35254, Note_on_c, 11, 63, 0
13, 35269, Note_on_c, 11, 59, 0
13, 35280, Note_on_c, 11, 61, 69
13, 35310, Note_on_c, 11, 61, 0
13, 35310, Note_on_c, 11, 59, 62
13, 35332, Note_on_c, 11, 59, 0
13, 35340, Note_on_c, 11, 61, 72
13, 35370, Note_on_c, 11, 61, 0
13, 35370, Note_on_c, 11, 59, 61
13, 35396, Note_on_c, 11, 59, 0
13, 35400, Note_on_c, 11, 61, 69
13, 35430, Note_on_c, 11, 59, 62
13, 35432, Note_on_c, 11, 61, 0
13, 35452, Note_on_c, 11, 59, 0
13, 35460, Note_on_c, 11, 61, 69
13, 35488, Note_on_c, 11, 61, 0
13, 35490, Note_on_c, 11, 59, 64
13, 35512, Note_on_c, 11, 59, 0
13, 35520, Note_on_c, 11, 63, 72
13, 35550, Note_on_c, 11, 59, 60
13, 35551, Note_on_c, 11, 63, 0
13, 35573, Note_on_c, 11, 59, 0
13, 35580, Note_on_c, 11, 63, 75
13, 35609, Note_on_c, 11, 63, 0
13, 35610, Note_on_c, 11, 59, 60
13, 35630, Note_on_c, 11, 59, 0
13, 35640, Note_on_c, 11, 63, 72
13, 35670, Note_on_c, 11, 59, 60
13, 35671, Note_on_c, 11, 63, 0
13, 35690, Note_on_c, 11, 59, 0
13, 35700, Note_on_c, 11, 63, 69
13, 35724, Note_on_c, 11, 63, 0
13, 35730, Note_on_c, 11, 59, 64
13, 35752, Note_on_c, 11, 59, 0
13, 35760, Note_on_c, 11, 64, 64
13, 35790, Note_on_c, 11, 64, 0
13, 35790, Note_on_c, 11, 59, 60
13, 35814, Note_on_c, 11, 59, 0
13, 35820, Note_on_c, 11, 64, 67
13, 35850, Note_on_c, 11, 59, 61
13, 35853, Note_on_c, 11, 64, 0
13, 35877, Note_on_c, 11, 59, 0
13, 35880, Note_on_c, 11, 64, 61
13, 35910, Note_on_c, 11, 59, 56
13, 35915, Note_on_c, 11, 64, 0
13, 35930, Note_on_c, 11, 59, 0
13, 35940, Note_on_c, 11, 64, 60
13, 35970, Note_on_c, 11, 59, 59
13, 35973, Note_on_c, 11, 64, 0
13, 35993, Note_on_c, 11, 59, 0
13, 36000, Note_on_c, 11, 64, 64
13, 36030, Note_on_c, 11, 59, 60
13, 36033, Note_on_c, 11, 64, 0
13, 36055, Note_on_c, 11, 59, 0
13, 36060, Note_on_c, 11, 64, 67
13, 36090, Note_on_c, 11, 59, 59
13, 36094, Note_on_c, 11, 64, 0
13, 36111, Note_on_c, 11, 59, 0
13, 36120, Note_on_c, 11, 64, 63
13, 36150, Note_on_c, 11, 59, 61
13, 36153, Note_on_c, 11, 64, 0
13, 36169, Note_on_c, 11, 59, 0
13, 36180, Note_on_c, 11, 64, 60
13, 36210, Note_on_c, 11, 59, 62
13, 36213, Note_on_c, 11, 64, 0
13, 36225, Note_on_c, 11, 59, 0
13, 36240, Note_on_c, 11, 64, 74
13, 36268, Note_on_c, 11, 64, 0
13, 36270, Note_on_c, 11, 63, 60
13, 36291, Note_on_c, 11, 63, 0
13, 36300, Note_on_c, 11, 64, 72
13, 36328, Note_on_c, 11, 64, 0
13, 36330, Note_on_c, 11, 63, 53
13, 36352, Note_on_c, 11, 63, 0
13, 36360, Note_on_c, 11, 64, 69
13, 36389, Note_on_c, 11, 64, 0
13, 36390, Note_on_c, 11, 63, 55
13, 36412, Note_on_c, 11, 63, 0
13, 36420, Note_on_c, 11, 64, 74
13, 36450, Note_on_c, 11, 63, 55
13, 36455, Note_on_c, 11, 64, 0
13, 36469, Note_on_c, 11, 63, 0
13, 36480, Note_on_c, 11, 64, 74
13, 36510, Note_on_c, 11, 64, 0
13, 36510, Note_on_c, 11, 63, 58
13, 36531, Note_on_c, 11, 63, 0
13, 36540, Note_on_c, 11, 64, 74
13, 36570, Note_on_c, 11, 64, 0
13, 36570, Note_on_c, 11, 63, 58
13, 36590, Note_on_c, 11, 63, 0
13, 36600, Note_on_c, 11, 64, 72
13, 36630, Note_on_c, 11, 64, 0
13, 36630, Note_on_c, 11, 63, 59
13, 36652, Note_on_c, 11, 63, 0
13, 36660, Note_on_c, 11, 64, 72
13, 36690, Note_on_c, 11, 63, 55
13, 36693, Note_on_c, 11, 64, 0
13, 36707, Note_on_c, 11, 63, 0
13, 36720, Note_on_c, 11, 64, 74
13, 36750, Note_on_c, 11, 63, 60
13, 36751, Note_on_c, 11, 64, 0
13, 36768, Note_on_c, 11, 63, 0
13, 36780, Note_on_c, 11, 64, 74
13, 36810, Note_on_c, 11, 63, 59
13, 36813, Note_on_c, 11, 64, 0
13, 36827, Note_on_c, 11, 63, 0
13, 36840, Note_on_c, 11, 64, 74
13, 36870, Note_on_c, 11, 63, 59
13, 36871, Note_on_c, 11, 64, 0
13, 36886, Note_on_c, 11, 63, 0
13, 36900, Note_on_c, 11, 64, 72
13, 36930, Note_on_c, 11, 63, 63
13, 36938, Note_on_c, 11, 64, 0
13, 36943, Note_on_c, 11, 63, 0
13, 36960, Note_on_c, 11, 63, 74
13, 36986, Note_on_c, 11, 63, 0
13, 36990, Note_on_c, 11, 59, 58
13, 37011, Note_on_c, 11, 59, 0
13, 37020, Note_on_c, 11, 63, 74
13, 37050, Note_on_c, 11, 59, 60
13, 37052, Note_on_c, 11, 63, 0
13, 37070, Note_on_c, 11, 59, 0
13, 37080, Note_on_c, 11, 63, 74
13, 37110, Note_on_c, 11, 63, 0
13, 37110, Note_on_c, 11, 59, 59
13, 37130, Note_on_c, 11, 59, 0
13, 37140, Note_on_c, 11, 63, 79
13, 37170, Note_on_c, 11, 59, 62
13, 37173, Note_on_c, 11, 63, 0
13, 37187, Note_on_c, 11, 59, 0
13, 37200, Note_on_c, 11, 61, 75
13, 37230, Note_on_c, 11, 61, 0
13, 37230, Note_on_c, 11, 59, 59
13, 37248, Note_on_c, 11, 59, 0
13, 37260, Note_on_c, 11, 61, 72
13, 37290, Note_on_c, 11, 59, 60
13, 37293, Note_on_c, 11, 61, 0
13, 37311, Note_on_c, 11, 59, 0
13, 37320, Note_on_c, 11, 61, 69
13, 37350, Note_on_c, 11, 61, 0
13, 37350, Note_on_c, 11, 59, 58
13, 37372, Note_on_c, 11, 59, 0
13, 37380, Note_on_c, 11, 61, 74
13, 37408, Note_on_c, 11, 61, 0
13, 37410, Note_on_c, 11, 59, 63
13, 37429, Note_on_c, 11, 59, 0
13, 37440, Note_on_c, 11, 63, 72
13, 37468, Note_on_c, 11, 63, 0
13, 37470, Note_on_c, 11, 59, 60
13, 37489, Note_on_c, 11, 59, 0
13, 37500, Note_on_c, 11, 63, 75
13, 37529, Note_on_c, 11, 63, 0
13, 37530, Note_on_c, 11, 59, 60
13, 37551, Note_on_c, 11, 59, 0
13, 37560, Note_on_c, 11, 63, 69
13, 37590, Note_on_c, 11, 59, 60
13, 37593, Note_on_c, 11, 63, 0
13, 37611, Note_on_c, 11, 59, 0
13, 37620, Note_on_c, 11, 63, 74
13, 37650, Note_on_c, 11, 59, 60
13, 37651, Note_on_c, 11, 63, 0
13, 37671, Note_on_c, 11, 59, 0
13, 37680, Note_on_c, 11, 64, 72
13, 37708, Note_on_c, 11, 64, 0
13, 37710, Note_on_c, 11, 59, 59
13, 37730, Note_on_c, 11, 59, 0
13, 37740, Note_on_c, 11, 64, 69
13, 37770, Note_on_c, 11, 59, 60
13, 37774, Note_on_c, 11, 64, 0
13, 37793, Note_on_c, 11, 59, 0
13, 37800, Note_on_c, 11, 64, 74
13, 37830, Note_on_c, 11, 59, 63
13, 37833, Note_on_c, 11, 64, 0
13, 37851, Note_on_c, 11, 59, 0
13, 37860, Note_on_c, 11, 64, 75
13, 37890, Note_on_c, 11, 59, 59
13, 37895, Note_on_c, 11, 64, 0
13, 37915, Note_on_c, 11, 59, 0
13, 37920, Note_on_c, 11, 64, 74
13, 37950, Note_on_c, 11, 59, 59
13, 37951, Note_on_c, 11, 64, 0
13, 37977, Note_on_c, 11, 59, 0
13, 37980, Note_on_c, 11, 64, 75
13, 38010, Note_on_c, 11, 59, 61
13, 38013, Note_on_c, 11, 64, 0
13, 38031, Note_on_c, 11, 59, 0
13, 38040, Note_on_c, 11, 64, 75
13, 38070, Note_on_c, 11, 59, 60
13, 38073, Note_on_c, 11, 64, 0
13, 38091, Note_on_c, 11, 59, 0
13, 38100, Note_on_c, 11, 64, 79
13, 38130, Note_on_c, 11, 59, 61
13, 38134, Note_on_c, 11, 64, 0
13, 38144, Note_on_c, 11, 59, 0
13, 38160, Note_on_c, 11, 64, 69
13, 38188, Note_on_c, 11, 64, 0
13, 38190, Note_on_c, 11, 63, 59
13, 38210, Note_on_c, 11, 63, 0
13, 38220, Note_on_c, 11, 64, 69
13, 38248, Note_on_c, 11, 64, 0
13, 38250, Note_on_c, 11, 63, 58
13, 38273, Note_on_c, 11, 63, 0
13, 38280, Note_on_c, 11, 64, 79
13, 38308, Note_on_c, 11, 64, 0
13, 38310, Note_on_c, 11, 63, 59
13, 38331, Note_on_c, 11, 63, 0
13, 38340, Note_on_c, 11, 64, 74
13, 38370, Note_on_c, 11, 63, 57
13, 38372, Note_on_c, 11, 64, 0
13, 38395, Note_on_c, 11, 63, 0
13, 38400, Note_on_c, 11, 64, 74
13, 38430, Note_on_c, 11, 63, 58
13, 38432, Note_on_c, 11, 64, 0
13, 38450, Note_on_c, 11, 63, 0
13, 38460, Note_on_c, 11, 64, 69
13, 38490, Note_on_c, 11, 63, 55
13, 38495, Note_on_c, 11, 64, 0
13, 38511, Note_on_c, 11, 63, 0
13, 38520, Note_on_c, 11, 64, 67
13, 38550, Note_on_c, 11, 64, 0
13, 38550, Note_on_c, 11, 63, 51
13, 38572, Note_on_c, 11, 63, 0
13, 38580, Note_on_c, 11, 64, 65
13, 38610, Note_on_c, 11, 63, 55
13, 38616, Note_on_c, 11, 64, 0
13, 38631, Note_on_c, 11, 63, 0
13, 38640, Note_on_c, 11, 64, 69
13, 38670, Note_on_c, 11, 63, 58
13, 38672, Note_on_c, 11, 64, 0
13, 38689, Note_on_c, 11, 63, 0
13, 38700, Note_on_c, 11, 64, 69
13, 38730, Note_on_c, 11, 63, 58
13, 38736, Note_on_c, 11, 64, 0
13, 38750, Note_on_c, 11, 63, 0
13, 38760, Note_on_c, 11, 64, 67
13, 38788, Note_on_c, 11, 64, 0
13, 38790, Note_on_c, 11, 63, 55
13, 38810, Note_on_c, 11, 63, 0
13, 38820, Note_on_c, 11, 64, 64
13, 38850, Note_on_c, 11, 63, 63
13, 38851, Note_on_c, 11, 64, 0
13, 38862, Note_on_c, 11, 63, 0
13, 38880, Note_on_c, 11, 63, 69
13, 38910, Note_on_c, 11, 63, 0
13, 38910, Note_on_c, 11, 59, 60
13, 38930, Note_on_c, 11, 59, 0
13, 38940, Note_on_c, 11, 63, 67
13, 38970, Note_on_c, 11, 59, 62
13, 38972, Note_on_c, 11, 63, 0
13, 38989, Note_on_c, 11, 59, 0
13, 39000, Note_on_c, 11, 63, 72
13, 39029, Note_on_c, 11, 63, 0
13, 39030, Note_on_c, 11, 59, 60
13, 39052, Note_on_c, 11, 59, 0
13, 39060, Note_on_c, 11, 63, 69
13, 39090, Note_on_c, 11, 59, 61
13, 39094, Note_on_c, 11, 63, 0
13, 39109, Note_on_c, 11, 59, 0
13, 39120, Note_on_c, 11, 61, 69
13, 39150, Note_on_c, 11, 61, 0
13, 39150, Note_on_c, 11, 59, 62
13, 39172, Note_on_c, 11, 59, 0
13, 39180, Note_on_c, 11, 61, 72
13, 39210, Note_on_c, 11, 61, 0
13, 39210, Note_on_c, 11, 59, 61
13, 39236, Note_on_c, 11, 59, 0
13, 39240, Note_on_c, 11, 61, 69
13, 39270, Note_on_c, 11, 59, 62
13, 39272, Note_on_c, 11, 61, 0
13, 39292, Note_on_c, 11, 59, 0
13, 39300, Note_on_c, 11, 61, 69
13, 39328, Note_on_c, 11, 61, 0
13, 39330, Note_on_c, 11, 59, 64
13, 39352, Note_on_c, 11, 59, 0
13, 39360, Note_on_c, 11, 63, 72
13, 39390, Note_on_c, 11, 59, 60
13, 39391, Note_on_c, 11, 63, 0
13, 39413, Note_on_c, 11, 59, 0
13, 39420, Note_on_c, 11, 63, 75
13, 39449, Note_on_c, 11, 63, 0
13, 39450, Note_on_c, 11, 59, 60
13, 39470, Note_on_c, 11, 59, 0
13, 39480, Note_on_c, 11, 63, 72
13, 39510, Note_on_c, 11, 59, 60
13, 39511, Note_on_c, 11, 63, 0
13, 39530, Note_on_c, 11, 59, 0
13, 39540, Note_on_c, 11, 63, 69
13, 39564, Note_on_c, 11, 63, 0
13, 39570, Note_on_c, 11, 59, 64
13, 39592, Note_on_c, 11, 59, 0
13, 39600, Note_on_c, 11, 64, 64
13, 39630, Note_on_c, 11, 64, 0
13, 39630, Note_on_c, 11, 59, 60
13, 39654, Note_on_c, 11, 59, 0
13, 39660, Note_on_c, 11, 64, 67
13, 39690, Note_on_c, 11, 59, 61
13, 39693, Note_on_c, 11, 64, 0
13, 39717, Note_on_c, 11, 59, 0
13, 39720, Note_on_c, 11, 64, 61
13, 39750, Note_on_c, 11, 59, 56
13, 39755, Note_on_c, 11, 64, 0
13, 39770, Note_on_c, 11, 59, 0
13, 39780, Note_on_c, 11, 64, 60
13, 39810, Note_on_c, 11, 59, 59
13, 39813, Note_on_c, 11, 64, 0
13, 39833, Note_on_c, 11, 59, 0
13, 39840, Note_on_c, 11, 64, 64
13, 39870, Note_on_c, 11, 59, 60
13, 39873, Note_on_c, 11, 64, 0
13, 39895, Note_on_c, 11, 59, 0
13, 39900, Note_on_c, 11, 64, 67
13, 39930, Note_on_c, 11, 59, 59
13, 39934, Note_on_c, 11, 64, 0
13, 39951, Note_on_c, 11, 59, 0
13, 39960, Note_on_c, 11, 64, 63
13, 39990, Note_on_c, 11, 59, 61
13, 39993, Note_on_c, 11, 64, 0
13, 40009, Note_on_c, 11, 59, 0
13, 40020, Note_on_c, 11, 64, 60
13, 40050, Note_on_c, 11, 59, 62
13, 40053, Note_on_c, 11, 64, 0
13, 40065, Note_on_c, 11, 59, 0
13, 40080, Note_on_c, 11, 64, 74
13, 40108, Note_on_c, 11, 64, 0
13, 40110, Note_on_c, 11, 63, 60
13, 40131, Note_on_c, 11, 63, 0
13, 40140, Note_on_c, 11, 64, 72
13, 40168, Note_on_c, 11, 64, 0
13, 40170, Note_on_c, 11, 63, 53
13, 40192, Note_on_c, 11, 63, 0
13, 40200, Note_on_c, 11, 64, 69
13, 40229, Note_on_c, 11, 64, 0
13, 40230, Note_on_c, 11, 63, 55
13, 40252, Note_on_c, 11, 63, 0
13, 40260, Note_on_c, 11, 64, 74
13, 40290, Note_on_c, 11, 63, 55
13, 40295, Note_on_c, 11, 64, 0
13, 40309, Note_on_c, 11, 63, 0
13, 40320, Note_on_c, 11, 64, 74
13, 40350, Note_on_c, 11, 64, 0
13, 40350, Note_on_c, 11, 63, 58
13, 40371, Note_on_c, 11, 63, 0
13, 40380, Note_on_c, 11, 64, 74
13, 40410, Note_on_c, 11, 64, 0
13, 40410, Note_on_c, 11, 63, 58
13, 40430, Note_on_c, 11, 63, 0
13, 40440, Note_on_c, 11, 64, 72
13, 40470, Note_on_c, 11, 64, 0
13, 40470, Note_on_c, 11, 63, 59
13, 40492, Note_on_c, 11, 63, 0
13, 40500, Note_on_c, 11, 64, 72
13, 40530, Note_on_c, 11, 63, 55
13, 40533, Note_on_c, 11, 64, 0
13, 40547, Note_on_c, 11, 63, 0
13, 40560, Note_on_c, 11, 64, 74
13, 40590, Note_on_c, 11, 63, 60
13, 40591, Note_on_c, 11, 64, 0
13, 40608, Note_on_c, 11, 63, 0
13, 40620, Note_on_c, 11, 64, 74
13, 40650, Note_on_c, 11, 63, 59
13, 40653, Note_on_c, 11, 64, 0
13, 40667, Note_on_c, 11, 63, 0
13, 40680, Note_on_c, 11, 64, 74
13, 40710, Note_on_c, 11, 63, 59
13, 40711, Note_on_c, 11, 64, 0
13, 40726, Note_on_c, 11, 63, 0
13, 40740, Note_on_c, 11, 64, 72
13, 40770, Note_on_c, 11, 63, 63
13, 40778, Note_on_c, 11, 64, 0
13, 40783, Note_on_c, 11, 63, 0
13, 40800, Note_on_c, 11, 63, 74
13, 40826, Note_on_c, 11, 63, 0
13, 40830, Note_on_c, 11, 59, 58
13, 40851, Note_on_c, 11, 59, 0
13, 40860, Note_on_c, 11, 63, 74
13, 40890, Note_on_c, 11, 59, 60
13, 40892, Note_on_c, 11, 63, 0
13, 40910, Note_on_c, 11, 59, 0
13, 40920, Note_on_c, 11, 63, 74
13, 40950, Note_on_c, 11, 63, 0
13, 40950, Note_on_c, 11, 59, 59
13, 40970, Note_on_c, 11, 59, 0
13, 40980, Note_on_c, 11, 63, 79
13, 41010, Note_on_c, 11, 59, 62
13, 41013, Note_on_c, 11, 63, 0
13, 41027, Note_on_c, 11, 59, 0
13, 41040, Note_on_c, 11, 61, 75
13, 41070, Note_on_c, 11, 61, 0
13, 41070, Note_on_c, 11, 59, 59
13, 41088, Note_on_c, 11, 59, 0
13, 41100, Note_on_c, 11, 61, 72
13, 41130, Note_on_c, 11, 59, 60
13, 41133, Note_on_c, 11, 61, 0
13, 41151, Note_on_c, 11, 59, 0
13, 41160, Note_on_c, 11, 61, 69
13, 41190, Note_on_c, 11, 61, 0
13, 41190, Note_on_c, 11, 59, 58
13, 41212, Note_on_c, 11, 59, 0
13, 41220, Note_on_c, 11, 61, 74
13, 41248, Note_on_c, 11, 61, 0
13, 41250, Note_on_c, 11, 59, 63
13, 41269, Note_on_c, 11, 59, 0
13, 41280, Note_on_c, 11, 63, 72
13, 41308, Note_on_c, 11, 63, 0
13, 41310, Note_on_c, 11, 59, 60
13, 41329, Note_on_c, 11, 59, 0
13, 41340, Note_on_c, 11, 63, 75
13, 41369, Note_on_c, 11, 63, 0
13, 41370, Note_on_c, 11, 59, 60
13, 41391, Note_on_c, 11, 59, 0
13, 41400, Note_on_c, 11, 63, 69
13, 41430, Note_on_c, 11, 59, 60
13, 41433, Note_on_c, 11, 63, 0
13, 41451, Note_on_c, 11, 59, 0
13, 41460, Note_on_c, 11, 63, 74
13, 41490, Note_on_c, 11, 59, 60
13, 41491, Note_on_c, 11, 63, 0
13, 41511, Note_on_c, 11, 59, 0
13, 41520, Note_on_c, 11, 64, 72
13, 41548, Note_on_c, 11, 64, 0
13, 41550, Note_on_c, 11, 59, 59
13, 41570, Note_on_c, 11, 59, 0
13, 41580, Note_on_c, 11, 64, 69
13, 41610, Note_on_c, 11, 59, 60
13, 41614, Note_on_c, 11, 64, 0
13, 41633, Note_on_c, 11, 59, 0
13, 41640, Note_on_c, 11, 64, 74
13, 41670, Note_on_c, 11, 59, 63
13, 41673, Note_on_c, 11, 64, 0
13, 41691, Note_on_c, 11, 59, 0
13, 41700, Note_on_c, 11, 64, 75
13, 41730, Note_on_c, 11, 59, 59
13, 41735, Note_on_c, 11, 64, 0
13, 41755, Note_on_c, 11, 59, 0
13, 41760, Note_on_c, 11, 64, 74
13, 41790, Note_on_c, 11, 59, 59
13, 41791, Note_on_c, 11, 64, 0
13, 41817, Note_on_c, 11, 59, 0
13, 41820, Note_on_c, 11, 64, 75
13, 41850, Note_on_c, 11, 59, 61
13, 41853, Note_on_c, 11, 64, 0
13, 41871, Note_on_c, 11, 59, 0
13, 41880, Note_on_c, 11, 64, 75
13, 41910, Note_on_c, 11, 59, 60
13, 41913, Note_on_c, 11, 64, 0
13, 41931, Note_on_c, 11, 59, 0
13, 41940, Note_on_c, 11, 64, 79
13, 41970, Note_on_c, 11, 59, 61
13, 41974, Note_on_c, 11, 64, 0
13, 41984, Note_on_c, 11, 59, 0
13, 41984, End_track
14, 0, Start_track
14, 0, MIDI_port, 0
14, 0, Title_t, "Marimba"
14, 0, Control_c, 13, 0, 56
14, 0, Control_c, 13, 32, 0
14, 0, Program_c, 13, 12
14, 0, Control_c, 13, 7, 85
14, 0, Control_c, 13, 10, 64
14, 0, Control_c, 13, 93, 79
14, 660, Control_c, 13, 7, 127
14, 660, Control_c, 13, 10, 64
14, 4513, Control_c, 13, 7, 120
14, 4524, Control_c, 13, 7, 110
14, 4528, Control_c, 13, 7, 109
14, 4627, Control_c, 13, 10, 66
14, 4648, Control_c, 13, 10, 70
14, 4650, Control_c, 13, 7, 110
14, 4660, Control_c, 13, 10, 73
14, 4663, Control_c, 13, 10, 75
14, 4668, Control_c, 13, 7, 111
14, 4668, Control_c, 13, 10, 77
14, 4673, Control_c, 13, 7, 114
14, 4673, Control_c, 13, 10, 80
14, 4777, Control_c, 13, 10, 78
14, 4792, Control_c, 13, 10, 75
14, 4793, Control_c, 13, 10, 73
14, 4800, Control_c, 13, 10, 70
14, 4810, Control_c, 13, 10, 66
14, 4815, Control_c, 13, 10, 63
14, 4818, Control_c, 13, 10, 60
14, 4821, Control_c, 13, 7, 115
14, 4826, Control_c, 13, 7, 117
14, 4876, Control_c, 13, 10, 56
14, 8765, Control_c, 13, 10, 54
14, 8785, Control_c, 13, 10, 57
14, 8791, Control_c, 13, 10, 60
14, 8796, Control_c, 13, 10, 63
14, 8801, Control_c, 13, 10, 66
14, 8808, Control_c, 13, 10, 69
14, 8812, Control_c, 13, 10, 72
14, 8820, Control_c, 13, 10, 74
14, 9136, Control_c, 13, 10, 77
14, 9149, Control_c, 13, 10, 78
14, 9154, Control_c, 13, 10, 84
14, 9159, Control_c, 13, 10, 87
14, 9222, Control_c, 13, 10, 84
14, 10787, Control_c, 13, 10, 60
14, 10793, Control_c, 13, 10, 66
14, 10793, Control_c, 13, 10, 63
14, 10805, Control_c, 13, 10, 75
14, 10805, Control_c, 13, 10, 70
14, 10810, Control_c, 13, 10, 78
14, 10817, Control_c, 13, 10, 82
14, 10817, Control_c, 13, 10, 80
14, 10822, Control_c, 13, 10, 84
14, 12480, Note_on_c, 13, 64, 55
14, 12508, Note_on_c, 13, 64, 0
14, 12510, Note_on_c, 13, 63, 55
14, 12530, Note_on_c, 13, 63, 0
14, 12540, Note_on_c, 13, 64, 55
14, 12568, Note_on_c, 13, 64, 0
14, 12570, Note_on_c, 13, 63, 55
14, 12593, Note_on_c, 13, 63, 0
14, 12600, Note_on_c, 13, 64, 55
14, 12628, Note_on_c, 13, 64, 0
14, 12630, Note_on_c, 13, 63, 55
14, 12651, Note_on_c, 13, 63, 0
14, 12660, Note_on_c, 13, 64, 55
14, 12665, Control_c, 13, 93, 80
14, 12670, Control_c, 13, 93, 82
14, 12680, Control_c, 13, 93, 84
14, 12690, Control_c, 13, 93, 86
14, 12690, Note_on_c, 13, 63, 55
14, 12692, Note_on_c, 13, 64, 0
14, 12692, Control_c, 13, 93, 88
14, 12697, Control_c, 13, 93, 94
14, 12703, Control_c, 13, 93, 97
14, 12715, Note_on_c, 13, 63, 0
14, 12720, Note_on_c, 13, 64, 55
14, 12750, Note_on_c, 13, 63, 55
14, 12752, Note_on_c, 13, 64, 0
14, 12770, Note_on_c, 13, 63, 0
14, 12780, Note_on_c, 13, 64, 55
14, 12781, Control_c, 13, 93, 100
14, 12786, Control_c, 13, 93, 103
14, 12810, Note_on_c, 13, 63, 55
14, 12815, Note_on_c, 13, 64, 0
14, 12831, Note_on_c, 13, 63, 0
14, 12840, Note_on_c, 13, 64, 55
14, 12870, Note_on_c, 13, 64, 0
14, 12870, Note_on_c, 13, 63, 55
14, 12888, Control_c, 13, 93, 80
14, 12892, Note_on_c, 13, 63, 0
14, 12894, Control_c, 13, 93, 82
14, 12900, Control_c, 13, 93, 84
14, 12900, Note_on_c, 13, 64, 55
14, 12915, Control_c, 13, 93, 89
14, 12915, Control_c, 13, 93, 87
14, 12923, Control_c, 13, 93, 91
14, 12930, Note_on_c, 13, 63, 55
14, 12936, Note_on_c, 13, 64, 0
14, 12951, Note_on_c, 13, 63, 0
14, 12960, Note_on_c, 13, 64, 55
14, 12990, Note_on_c, 13, 63, 55
14, 12992, Note_on_c, 13, 64, 0
14, 13009, Note_on_c, 13, 63, 0
14, 13009, Control_c, 13, 93, 94
14, 13020, Note_on_c, 13, 64, 55
14, 13050, Note_on_c, 13, 63, 55
14, 13056, Note_on_c, 13, 64, 0
14, 13070, Note_on_c, 13, 63, 0
14, 13080, Note_on_c, 13, 64, 55
14, 13108, Note_on_c, 13, 64, 0
14, 13110, Note_on_c, 13, 63, 55
14, 13130, Note_on_c, 13, 63, 0
14, 13140, Note_on_c, 13, 64, 55
14, 13155, Control_c, 13, 93, 99
14, 13155, Control_c, 13, 93, 96
14, 13170, Control_c, 13, 93, 102
14, 13170, Note_on_c, 13, 63, 55
14, 13171, Note_on_c, 13, 64, 0
14, 13171, Control_c, 13, 93, 105
14, 13182, Note_on_c, 13, 63, 0
14, 13196, Control_c, 13, 7, 126
14, 13200, Note_on_c, 13, 63, 55
14, 13210, Control_c, 13, 7, 127
14, 13230, Note_on_c, 13, 63, 0
14, 13230, Note_on_c, 13, 59, 55
14, 13250, Note_on_c, 13, 59, 0
14, 13260, Note_on_c, 13, 63, 55
14, 13290, Note_on_c, 13, 59, 55
14, 13292, Note_on_c, 13, 63, 0
14, 13309, Note_on_c, 13, 59, 0
14, 13320, Note_on_c, 13, 63, 55
14, 13330, Control_c, 13, 93, 102
14, 13335, Control_c, 13, 93, 99
14, 13349, Note_on_c, 13, 63, 0
14, 13350, Note_on_c, 13, 59, 55
14, 13372, Note_on_c, 13, 59, 0
14, 13380, Note_on_c, 13, 63, 55
14, 13410, Note_on_c, 13, 59, 55
14, 13414, Note_on_c, 13, 63, 0
14, 13429, Note_on_c, 13, 59, 0
14, 13440, Note_on_c, 13, 61, 55
14, 13470, Note_on_c, 13, 61, 0
14, 13470, Note_on_c, 13, 59, 55
14, 13492, Note_on_c, 13, 59, 0
14, 13500, Note_on_c, 13, 61, 55
14, 13530, Note_on_c, 13, 61, 0
14, 13530, Note_on_c, 13, 59, 55
14, 13556, Note_on_c, 13, 59, 0
14, 13560, Note_on_c, 13, 61, 55
14, 13590, Note_on_c, 13, 59, 55
14, 13592, Note_on_c, 13, 61, 0
14, 13612, Note_on_c, 13, 59, 0
14, 13620, Note_on_c, 13, 61, 55
14, 13648, Note_on_c, 13, 61, 0
14, 13650, Note_on_c, 13, 59, 55
14, 13672, Note_on_c, 13, 59, 0
14, 13680, Note_on_c, 13, 63, 55
14, 13710, Note_on_c, 13, 59, 55
14, 13711, Note_on_c, 13, 63, 0
14, 13733, Note_on_c, 13, 59, 0
14, 13740, Note_on_c, 13, 63, 55
14, 13769, Note_on_c, 13, 63, 0
14, 13770, Note_on_c, 13, 59, 55
14, 13790, Note_on_c, 13, 59, 0
14, 13800, Note_on_c, 13, 63, 55
14, 13830, Note_on_c, 13, 59, 55
14, 13831, Note_on_c, 13, 63, 0
14, 13850, Note_on_c, 13, 59, 0
14, 13860, Note_on_c, 13, 63, 55
14, 13884, Note_on_c, 13, 63, 0
14, 13890, Note_on_c, 13, 59, 55
14, 13912, Note_on_c, 13, 59, 0
14, 13920, Note_on_c, 13, 64, 55
14, 13950, Note_on_c, 13, 64, 0
14, 13950, Note_on_c, 13, 59, 55
14, 13974, Note_on_c, 13, 59, 0
14, 13980, Note_on_c, 13, 64, 55
14, 14010, Note_on_c, 13, 59, 55
14, 14013, Note_on_c, 13, 64, 0
14, 14037, Note_on_c, 13, 59, 0
14, 14040, Note_on_c, 13, 64, 55
14, 14070, Note_on_c, 13, 59, 55
14, 14075, Note_on_c, 13, 64, 0
14, 14090, Note_on_c, 13, 59, 0
14, 14100, Note_on_c, 13, 64, 55
14, 14130, Note_on_c, 13, 59, 55
14, 14133, Note_on_c, 13, 64, 0
14, 14153, Note_on_c, 13, 59, 0
14, 14160, Note_on_c, 13, 64, 55
14, 14190, Note_on_c, 13, 59, 55
14, 14193, Note_on_c, 13, 64, 0
14, 14215, Note_on_c, 13, 59, 0
14, 14220, Note_on_c, 13, 64, 55
14, 14250, Note_on_c, 13, 59, 55
14, 14254, Note_on_c, 13, 64, 0
14, 14271, Note_on_c, 13, 59, 0
14, 14280, Note_on_c, 13, 64, 55
14, 14310, Note_on_c, 13, 59, 55
14, 14313, Note_on_c, 13, 64, 0
14, 14329, Note_on_c, 13, 59, 0
14, 14340, Note_on_c, 13, 64, 55
14, 14370, Note_on_c, 13, 59, 55
14, 14373, Note_on_c, 13, 64, 0
14, 14385, Note_on_c, 13, 59, 0
14, 14400, Note_on_c, 13, 64, 55
14, 14428, Note_on_c, 13, 64, 0
14, 14430, Note_on_c, 13, 63, 55
14, 14451, Note_on_c, 13, 63, 0
14, 14460, Note_on_c, 13, 64, 55
14, 14488, Note_on_c, 13, 64, 0
14, 14490, Note_on_c, 13, 63, 55
14, 14512, Note_on_c, 13, 63, 0
14, 14520, Note_on_c, 13, 64, 55
14, 14549, Note_on_c, 13, 64, 0
14, 14550, Note_on_c, 13, 63, 55
14, 14572, Note_on_c, 13, 63, 0
14, 14580, Note_on_c, 13, 64, 55
14, 14610, Note_on_c, 13, 63, 55
14, 14615, Note_on_c, 13, 64, 0
14, 14629, Note_on_c, 13, 63, 0
14, 14640, Note_on_c, 13, 64, 55
14, 14670, Note_on_c, 13, 64, 0
14, 14670, Note_on_c, 13, 63, 55
14, 14691, Note_on_c, 13, 63, 0
14, 14700, Note_on_c, 13, 64, 55
14, 14730, Note_on_c, 13, 64, 0
14, 14730, Note_on_c, 13, 63, 55
14, 14750, Note_on_c, 13, 63, 0
14, 14760, Note_on_c, 13, 64, 55
14, 14790, Note_on_c, 13, 64, 0
14, 14790, Note_on_c, 13, 63, 55
14, 14812, Note_on_c, 13, 63, 0
14, 14820, Note_on_c, 13, 64, 55
14, 14850, Note_on_c, 13, 63, 55
14, 14853, Note_on_c, 13, 64, 0
14, 14867, Note_on_c, 13, 63, 0
14, 14880, Note_on_c, 13, 64, 55
14, 14910, Note_on_c, 13, 63, 55
14, 14911, Note_on_c, 13, 64, 0
14, 14928, Note_on_c, 13, 63, 0
14, 14940, Note_on_c, 13, 64, 55
14, 14970, Note_on_c, 13, 63, 55
14, 14973, Note_on_c, 13, 64, 0
14, 14987, Note_on_c, 13, 63, 0
14, 15000, Note_on_c, 13, 64, 55
14, 15030, Note_on_c, 13, 63, 55
14, 15031, Note_on_c, 13, 64, 0
14, 15046, Note_on_c, 13, 63, 0
14, 15060, Note_on_c, 13, 64, 55
14, 15090, Note_on_c, 13, 63, 55
14, 15098, Note_on_c, 13, 64, 0
14, 15103, Note_on_c, 13, 63, 0
14, 15120, Note_on_c, 13, 63, 55
14, 15146, Note_on_c, 13, 63, 0
14, 15150, Note_on_c, 13, 59, 55
14, 15171, Note_on_c, 13, 59, 0
14, 15180, Note_on_c, 13, 63, 55
14, 15210, Note_on_c, 13, 59, 55
14, 15212, Note_on_c, 13, 63, 0
14, 15230, Note_on_c, 13, 59, 0
14, 15240, Note_on_c, 13, 63, 55
14, 15270, Note_on_c, 13, 63, 0
14, 15270, Note_on_c, 13, 59, 55
14, 15290, Note_on_c, 13, 59, 0
14, 15300, Note_on_c, 13, 63, 55
14, 15330, Note_on_c, 13, 59, 55
14, 15333, Note_on_c, 13, 63, 0
14, 15347, Note_on_c, 13, 59, 0
14, 15360, Note_on_c, 13, 61, 55
14, 15390, Note_on_c, 13, 61, 0
14, 15390, Note_on_c, 13, 59, 55
14, 15408, Note_on_c, 13, 59, 0
14, 15420, Note_on_c, 13, 61, 55
14, 15450, Note_on_c, 13, 59, 55
14, 15453, Note_on_c, 13, 61, 0
14, 15471, Note_on_c, 13, 59, 0
14, 15480, Note_on_c, 13, 61, 55
14, 15510, Note_on_c, 13, 61, 0
14, 15510, Note_on_c, 13, 59, 55
14, 15532, Note_on_c, 13, 59, 0
14, 15540, Note_on_c, 13, 61, 55
14, 15568, Note_on_c, 13, 61, 0
14, 15570, Note_on_c, 13, 59, 55
14, 15589, Note_on_c, 13, 59, 0
14, 15600, Note_on_c, 13, 63, 55
14, 15628, Note_on_c, 13, 63, 0
14, 15630, Note_on_c, 13, 59, 55
14, 15649, Note_on_c, 13, 59, 0
14, 15660, Note_on_c, 13, 63, 55
14, 15689, Note_on_c, 13, 63, 0
14, 15690, Note_on_c, 13, 59, 55
14, 15711, Note_on_c, 13, 59, 0
14, 15720, Note_on_c, 13, 63, 55
14, 15750, Note_on_c, 13, 59, 55
14, 15753, Note_on_c, 13, 63, 0
14, 15771, Note_on_c, 13, 59, 0
14, 15780, Note_on_c, 13, 63, 55
14, 15810, Note_on_c, 13, 59, 55
14, 15811, Note_on_c, 13, 63, 0
14, 15831, Note_on_c, 13, 59, 0
14, 15840, Note_on_c, 13, 64, 55
14, 15868, Note_on_c, 13, 64, 0
14, 15870, Note_on_c, 13, 59, 55
14, 15890, Note_on_c, 13, 59, 0
14, 15900, Note_on_c, 13, 64, 55
14, 15930, Note_on_c, 13, 59, 55
14, 15934, Note_on_c, 13, 64, 0
14, 15953, Note_on_c, 13, 59, 0
14, 15960, Note_on_c, 13, 64, 55
14, 15990, Note_on_c, 13, 59, 55
14, 15993, Note_on_c, 13, 64, 0
14, 16011, Note_on_c, 13, 59, 0
14, 16020, Note_on_c, 13, 64, 55
14, 16050, Note_on_c, 13, 59, 55
14, 16055, Note_on_c, 13, 64, 0
14, 16075, Note_on_c, 13, 59, 0
14, 16080, Note_on_c, 13, 64, 55
14, 16110, Note_on_c, 13, 59, 55
14, 16111, Note_on_c, 13, 64, 0
14, 16137, Note_on_c, 13, 59, 0
14, 16140, Note_on_c, 13, 64, 55
14, 16170, Note_on_c, 13, 59, 55
14, 16173, Note_on_c, 13, 64, 0
14, 16191, Note_on_c, 13, 59, 0
14, 16200, Note_on_c, 13, 64, 55
14, 16230, Note_on_c, 13, 59, 55
14, 16233, Note_on_c, 13, 64, 0
14, 16251, Note_on_c, 13, 59, 0
14, 16260, Note_on_c, 13, 64, 55
14, 16290, Note_on_c, 13, 59, 55
14, 16294, Note_on_c, 13, 64, 0
14, 16304, Note_on_c, 13, 59, 0
14, 22080, Note_on_c, 13, 64, 55
14, 22108, Note_on_c, 13, 64, 0
14, 22110, Note_on_c, 13, 63, 55
14, 22130, Note_on_c, 13, 63, 0
14, 22140, Note_on_c, 13, 64, 55
14, 22168, Note_on_c, 13, 64, 0
14, 22170, Note_on_c, 13, 63, 55
14, 22193, Note_on_c, 13, 63, 0
14, 22200, Note_on_c, 13, 64, 55
14, 22228, Note_on_c, 13, 64, 0
14, 22230, Note_on_c, 13, 63, 55
14, 22251, Note_on_c, 13, 63, 0
14, 22260, Note_on_c, 13, 64, 55
14, 22290, Note_on_c, 13, 63, 55
14, 22292, Note_on_c, 13, 64, 0
14, 22315, Note_on_c, 13, 63, 0
14, 22320, Note_on_c, 13, 64, 55
14, 22350, Note_on_c, 13, 63, 55
14, 22352, Note_on_c, 13, 64, 0
14, 22370, Note_on_c, 13, 63, 0
14, 22380, Note_on_c, 13, 64, 55
14, 22410, Note_on_c, 13, 63, 55
14, 22415, Note_on_c, 13, 64, 0
14, 22431, Note_on_c, 13, 63, 0
14, 22440, Note_on_c, 13, 64, 55
14, 22470, Note_on_c, 13, 64, 0
14, 22470, Note_on_c, 13, 63, 55
14, 22492, Note_on_c, 13, 63, 0
14, 22500, Note_on_c, 13, 64, 55
14, 22530, Note_on_c, 13, 63, 55
14, 22536, Note_on_c, 13, 64, 0
14, 22551, Note_on_c, 13, 63, 0
14, 22560, Note_on_c, 13, 64, 55
14, 22590, Note_on_c, 13, 63, 55
14, 22592, Note_on_c, 13, 64, 0
14, 22609, Note_on_c, 13, 63, 0
14, 22620, Note_on_c, 13, 64, 55
14, 22650, Note_on_c, 13, 63, 55
14, 22656, Note_on_c, 13, 64, 0
14, 22670, Note_on_c, 13, 63, 0
14, 22680, Note_on_c, 13, 64, 55
14, 22708, Note_on_c, 13, 64, 0
14, 22710, Note_on_c, 13, 63, 55
14, 22730, Note_on_c, 13, 63, 0
14, 22740, Note_on_c, 13, 64, 55
14, 22770, Note_on_c, 13, 63, 55
14, 22771, Note_on_c, 13, 64, 0
14, 22782, Note_on_c, 13, 63, 0
14, 22800, Note_on_c, 13, 63, 55
14, 22830, Note_on_c, 13, 63, 0
14, 22830, Note_on_c, 13, 59, 55
14, 22850, Note_on_c, 13, 59, 0
14, 22860, Note_on_c, 13, 63, 55
14, 22890, Note_on_c, 13, 59, 55
14, 22892, Note_on_c, 13, 63, 0
14, 22909, Note_on_c, 13, 59, 0
14, 22920, Note_on_c, 13, 63, 55
14, 22949, Note_on_c, 13, 63, 0
14, 22950, Note_on_c, 13, 59, 55
14, 22972, Note_on_c, 13, 59, 0
14, 22980, Note_on_c, 13, 63, 55
14, 23010, Note_on_c, 13, 59, 55
14, 23014, Note_on_c, 13, 63, 0
14, 23029, Note_on_c, 13, 59, 0
14, 23040, Note_on_c, 13, 61, 55
14, 23070, Note_on_c, 13, 61, 0
14, 23070, Note_on_c, 13, 59, 55
14, 23092, Note_on_c, 13, 59, 0
14, 23100, Note_on_c, 13, 61, 55
14, 23130, Note_on_c, 13, 61, 0
14, 23130, Note_on_c, 13, 59, 55
14, 23156, Note_on_c, 13, 59, 0
14, 23160, Note_on_c, 13, 61, 55
14, 23190, Note_on_c, 13, 59, 55
14, 23192, Note_on_c, 13, 61, 0
14, 23212, Note_on_c, 13, 59, 0
14, 23220, Note_on_c, 13, 61, 55
14, 23248, Note_on_c, 13, 61, 0
14, 23250, Note_on_c, 13, 59, 55
14, 23272, Note_on_c, 13, 59, 0
14, 23280, Note_on_c, 13, 63, 55
14, 23310, Note_on_c, 13, 59, 55
14, 23311, Note_on_c, 13, 63, 0
14, 23333, Note_on_c, 13, 59, 0
14, 23340, Note_on_c, 13, 63, 55
14, 23369, Note_on_c, 13, 63, 0
14, 23370, Note_on_c, 13, 59, 55
14, 23390, Note_on_c, 13, 59, 0
14, 23400, Note_on_c, 13, 63, 55
14, 23430, Note_on_c, 13, 59, 55
14, 23431, Note_on_c, 13, 63, 0
14, 23450, Note_on_c, 13, 59, 0
14, 23460, Note_on_c, 13, 63, 55
14, 23484, Note_on_c, 13, 63, 0
14, 23490, Note_on_c, 13, 59, 55
14, 23512, Note_on_c, 13, 59, 0
14, 23520, Note_on_c, 13, 64, 55
14, 23550, Note_on_c, 13, 64, 0
14, 23550, Note_on_c, 13, 59, 55
14, 23574, Note_on_c, 13, 59, 0
14, 23580, Note_on_c, 13, 64, 55
14, 23610, Note_on_c, 13, 59, 55
14, 23613, Note_on_c, 13, 64, 0
14, 23637, Note_on_c, 13, 59, 0
14, 23640, Note_on_c, 13, 64, 55
14, 23670, Note_on_c, 13, 59, 55
14, 23675, Note_on_c, 13, 64, 0
14, 23690, Note_on_c, 13, 59, 0
14, 23700, Note_on_c, 13, 64, 55
14, 23730, Note_on_c, 13, 59, 55
14, 23733, Note_on_c, 13, 64, 0
14, 23753, Note_on_c, 13, 59, 0
14, 23760, Note_on_c, 13, 64, 55
14, 23790, Note_on_c, 13, 59, 55
14, 23793, Note_on_c, 13, 64, 0
14, 23815, Note_on_c, 13, 59, 0
14, 23820, Note_on_c, 13, 64, 55
14, 23850, Note_on_c, 13, 59, 55
14, 23854, Note_on_c, 13, 64, 0
14, 23871, Note_on_c, 13, 59, 0
14, 23880, Note_on_c, 13, 64, 55
14, 23910, Note_on_c, 13, 59, 55
14, 23913, Note_on_c, 13, 64, 0
14, 23929, Note_on_c, 13, 59, 0
14, 23940, Note_on_c, 13, 64, 55
14, 23970, Note_on_c, 13, 59, 55
14, 23973, Note_on_c, 13, 64, 0
14, 23985, Note_on_c, 13, 59, 0
14, 24000, Note_on_c, 13, 64, 55
14, 24028, Note_on_c, 13, 64, 0
14, 24030, Note_on_c, 13, 63, 55
14, 24051, Note_on_c, 13, 63, 0
14, 24060, Note_on_c, 13, 64, 55
14, 24088, Note_on_c, 13, 64, 0
14, 24090, Note_on_c, 13, 63, 55
14, 24112, Note_on_c, 13, 63, 0
14, 24120, Note_on_c, 13, 64, 55
14, 24149, Note_on_c, 13, 64, 0
14, 24150, Note_on_c, 13, 63, 55
14, 24172, Note_on_c, 13, 63, 0
14, 24180, Note_on_c, 13, 64, 55
14, 24210, Note_on_c, 13, 63, 55
14, 24215, Note_on_c, 13, 64, 0
14, 24229, Note_on_c, 13, 63, 0
14, 24240, Note_on_c, 13, 64, 55
14, 24270, Note_on_c, 13, 64, 0
14, 24270, Note_on_c, 13, 63, 55
14, 24291, Note_on_c, 13, 63, 0
14, 24300, Note_on_c, 13, 64, 55
14, 24330, Note_on_c, 13, 64, 0
14, 24330, Note_on_c, 13, 63, 55
14, 24350, Note_on_c, 13, 63, 0
14, 24360, Note_on_c, 13, 64, 55
14, 24390, Note_on_c, 13, 64, 0
14, 24390, Note_on_c, 13, 63, 55
14, 24412, Note_on_c, 13, 63, 0
14, 24420, Note_on_c, 13, 64, 55
14, 24450, Note_on_c, 13, 63, 55
14, 24453, Note_on_c, 13, 64, 0
14, 24467, Note_on_c, 13, 63, 0
14, 24480, Note_on_c, 13, 64, 55
14, 24510, Note_on_c, 13, 63, 55
14, 24511, Note_on_c, 13, 64, 0
14, 24528, Note_on_c, 13, 63, 0
14, 24540, Note_on_c, 13, 64, 55
14, 24570, Note_on_c, 13, 63, 55
14, 24573, Note_on_c, 13, 64, 0
14, 24587, Note_on_c, 13, 63, 0
14, 24600, Note_on_c, 13, 64, 55
14, 24630, Note_on_c, 13, 63, 55
14, 24631, Note_on_c, 13, 64, 0
14, 24646, Note_on_c, 13, 63, 0
14, 24660, Note_on_c, 13, 64, 55
14, 24690, Note_on_c, 13, 63, 55
14, 24698, Note_on_c, 13, 64, 0
14, 24703, Note_on_c, 13, 63, 0
14, 24720, Note_on_c, 13, 63, 55
14, 24746, Note_on_c, 13, 63, 0
14, 24750, Note_on_c, 13, 59, 55
14, 24771, Note_on_c, 13, 59, 0
14, 24780, Note_on_c, 13, 63, 55
14, 24810, Note_on_c, 13, 59, 55
14, 24812, Note_on_c, 13, 63, 0
14, 24830, Note_on_c, 13, 59, 0
14, 24840, Note_on_c, 13, 63, 55
14, 24870, Note_on_c, 13, 63, 0
14, 24870, Note_on_c, 13, 59, 55
14, 24890, Note_on_c, 13, 59, 0
14, 24900, Note_on_c, 13, 63, 55
14, 24930, Note_on_c, 13, 59, 55
14, 24933, Note_on_c, 13, 63, 0
14, 24947, Note_on_c, 13, 59, 0
14, 24960, Note_on_c, 13, 61, 55
14, 24990, Note_on_c, 13, 61, 0
14, 24990, Note_on_c, 13, 59, 55
14, 25008, Note_on_c, 13, 59, 0
14, 25020, Note_on_c, 13, 61, 55
14, 25050, Note_on_c, 13, 59, 55
14, 25053, Note_on_c, 13, 61, 0
14, 25071, Note_on_c, 13, 59, 0
14, 25080, Note_on_c, 13, 61, 55
14, 25110, Note_on_c, 13, 61, 0
14, 25110, Note_on_c, 13, 59, 55
14, 25132, Note_on_c, 13, 59, 0
14, 25140, Note_on_c, 13, 61, 55
14, 25168, Note_on_c, 13, 61, 0
14, 25170, Note_on_c, 13, 59, 55
14, 25189, Note_on_c, 13, 59, 0
14, 25200, Note_on_c, 13, 63, 55
14, 25228, Note_on_c, 13, 63, 0
14, 25230, Note_on_c, 13, 59, 55
14, 25249, Note_on_c, 13, 59, 0
14, 25260, Note_on_c, 13, 63, 55
14, 25289, Note_on_c, 13, 63, 0
14, 25290, Note_on_c, 13, 59, 55
14, 25311, Note_on_c, 13, 59, 0
14, 25320, Note_on_c, 13, 63, 55
14, 25350, Note_on_c, 13, 59, 55
14, 25353, Note_on_c, 13, 63, 0
14, 25371, Note_on_c, 13, 59, 0
14, 25380, Note_on_c, 13, 63, 55
14, 25410, Note_on_c, 13, 59, 55
14, 25411, Note_on_c, 13, 63, 0
14, 25431, Note_on_c, 13, 59, 0
14, 25440, Note_on_c, 13, 64, 55
14, 25468, Note_on_c, 13, 64, 0
14, 25470, Note_on_c, 13, 59, 55
14, 25490, Note_on_c, 13, 59, 0
14, 25500, Note_on_c, 13, 64, 55
14, 25530, Note_on_c, 13, 59, 55
14, 25534, Note_on_c, 13, 64, 0
14, 25553, Note_on_c, 13, 59, 0
14, 25560, Note_on_c, 13, 64, 55
14, 25590, Note_on_c, 13, 59, 55
14, 25593, Note_on_c, 13, 64, 0
14, 25611, Note_on_c, 13, 59, 0
14, 25620, Note_on_c, 13, 64, 55
14, 25650, Note_on_c, 13, 59, 55
14, 25655, Note_on_c, 13, 64, 0
14, 25675, Note_on_c, 13, 59, 0
14, 25680, Note_on_c, 13, 95, 70
14, 25680, Note_on_c, 13, 64, 70
14, 25695, Note_on_c, 13, 95, 0
14, 25710, Note_on_c, 13, 92, 70
14, 25711, Note_on_c, 13, 64, 0
14, 25723, Note_on_c, 13, 92, 0
14, 25740, Note_on_c, 13, 93, 70
14, 25757, Note_on_c, 13, 93, 0
14, 25770, Note_on_c, 13, 95, 70
14, 25798, Note_on_c, 13, 95, 0
14, 25920, Note_on_c, 13, 95, 70
14, 25936, Note_on_c, 13, 95, 0
14, 25950, Note_on_c, 13, 92, 70
14, 25960, Note_on_c, 13, 92, 0
14, 25980, Note_on_c, 13, 93, 70
14, 25996, Note_on_c, 13, 93, 0
14, 26010, Note_on_c, 13, 95, 70
14, 26034, Note_on_c, 13, 95, 0
14, 26160, Note_on_c, 13, 95, 70
14, 26176, Note_on_c, 13, 95, 0
14, 26190, Note_on_c, 13, 92, 70
14, 26203, Note_on_c, 13, 92, 0
14, 26220, Note_on_c, 13, 93, 70
14, 26238, Note_on_c, 13, 93, 0
14, 26250, Note_on_c, 13, 95, 70
14, 26278, Note_on_c, 13, 95, 0
14, 26400, Note_on_c, 13, 95, 70
14, 26414, Note_on_c, 13, 95, 0
14, 26430, Note_on_c, 13, 92, 70
14, 26445, Note_on_c, 13, 92, 0
14, 26460, Note_on_c, 13, 93, 70
14, 26476, Note_on_c, 13, 93, 0
14, 26490, Note_on_c, 13, 95, 70
14, 26507, Note_on_c, 13, 95, 0
14, 26634, Note_on_c, 13, 59, 79
14, 26634, Note_on_c, 13, 71, 75
14, 26660, Note_on_c, 13, 59, 0
14, 26667, Note_on_c, 13, 71, 0
14, 26670, Note_on_c, 13, 56, 79
14, 26670, Note_on_c, 13, 68, 75
14, 26683, Note_on_c, 13, 56, 0
14, 26693, Note_on_c, 13, 68, 0
14, 26700, Note_on_c, 13, 57, 60
14, 26700, Note_on_c, 13, 69, 75
14, 26712, Note_on_c, 13, 57, 0
14, 26730, Note_on_c, 13, 59, 74
14, 26730, Note_on_c, 13, 71, 75
14, 26734, Note_on_c, 13, 69, 0
14, 26785, Note_on_c, 13, 59, 0
14, 26787, Note_on_c, 13, 71, 0
14, 26790, Note_on_c, 13, 56, 69
14, 26790, Note_on_c, 13, 68, 75
14, 26804, Note_on_c, 13, 56, 0
14, 26805, Note_on_c, 13, 68, 0
14, 26820, Note_on_c, 13, 57, 58
14, 26820, Note_on_c, 13, 69, 75
14, 26836, Note_on_c, 13, 57, 0
14, 26845, Note_on_c, 13, 69, 0
14, 26850, Note_on_c, 13, 59, 79
14, 26850, Note_on_c, 13, 71, 75
14, 26910, Note_on_c, 13, 56, 74
14, 26910, Note_on_c, 13, 68, 75
14, 26913, Note_on_c, 13, 71, 0
14, 26914, Note_on_c, 13, 59, 0
14, 26923, Note_on_c, 13, 56, 0
14, 26923, Note_on_c, 13, 68, 0
14, 26940, Note_on_c, 13, 57, 59
14, 26940, Note_on_c, 13, 69, 75
14, 26957, Note_on_c, 13, 57, 0
14, 26960, Note_on_c, 13, 69, 0
14, 26970, Note_on_c, 13, 59, 75
14, 26970, Note_on_c, 13, 71, 75
14, 27029, Note_on_c, 13, 71, 0
14, 27030, Note_on_c, 13, 56, 79
14, 27030, Note_on_c, 13, 68, 75
14, 27035, Note_on_c, 13, 59, 0
14, 27044, Note_on_c, 13, 68, 0
14, 27044, Note_on_c, 13, 56, 0
14, 27060, Note_on_c, 13, 57, 60
14, 27060, Note_on_c, 13, 69, 75
14, 27078, Note_on_c, 13, 57, 0
14, 27084, Note_on_c, 13, 69, 0
14, 27090, Note_on_c, 13, 59, 60
14, 27090, Note_on_c, 13, 71, 75
14, 27103, Note_on_c, 13, 59, 0
14, 27105, Note_on_c, 13, 71, 0
14, 27120, Note_on_c, 13, 60, 62
14, 27120, Note_on_c, 13, 72, 75
14, 27145, Note_on_c, 13, 60, 0
14, 27148, Note_on_c, 13, 72, 0
14, 27150, Note_on_c, 13, 56, 63
14, 27150, Note_on_c, 13, 68, 75
14, 27168, Note_on_c, 13, 68, 0
14, 27172, Note_on_c, 13, 56, 0
14, 27180, Note_on_c, 13, 58, 65
14, 27180, Note_on_c, 13, 70, 75
14, 27194, Note_on_c, 13, 58, 0
14, 27195, Note_on_c, 13, 70, 0
14, 27210, Note_on_c, 13, 60, 69
14, 27210, Note_on_c, 13, 72, 75
14, 27265, Note_on_c, 13, 72, 0
14, 27270, Note_on_c, 13, 60, 0
14, 27270, Note_on_c, 13, 56, 60
14, 27270, Note_on_c, 13, 68, 75
14, 27289, Note_on_c, 13, 68, 0
14, 27297, Note_on_c, 13, 56, 0
14, 27300, Note_on_c, 13, 58, 67
14, 27300, Note_on_c, 13, 70, 75
14, 27315, Note_on_c, 13, 70, 0
14, 27317, Note_on_c, 13, 58, 0
14, 27330, Note_on_c, 13, 60, 74
14, 27330, Note_on_c, 13, 72, 75
14, 27384, Note_on_c, 13, 60, 0
14, 27385, Note_on_c, 13, 72, 0
14, 27390, Note_on_c, 13, 56, 69
14, 27390, Note_on_c, 13, 68, 75
14, 27407, Note_on_c, 13, 56, 0
14, 27411, Note_on_c, 13, 68, 0
14, 27420, Note_on_c, 13, 58, 65
14, 27420, Note_on_c, 13, 70, 75
14, 27435, Note_on_c, 13, 70, 0
14, 27436, Note_on_c, 13, 58, 0
14, 27450, Note_on_c, 13, 60, 72
14, 27450, Note_on_c, 13, 72, 75
14, 27507, Note_on_c, 13, 60, 0
14, 27510, Note_on_c, 13, 56, 61
14, 27510, Note_on_c, 13, 68, 75
14, 27514, Note_on_c, 13, 72, 0
14, 27538, Note_on_c, 13, 56, 0
14, 27539, Note_on_c, 13, 68, 0
14, 27540, Note_on_c, 13, 58, 67
14, 27540, Note_on_c, 13, 70, 75
14, 27558, Note_on_c, 13, 70, 0
14, 27558, Note_on_c, 13, 58, 0
14, 27570, Note_on_c, 13, 60, 63
14, 27570, Note_on_c, 13, 72, 75
14, 27583, Note_on_c, 13, 60, 0
14, 27588, Note_on_c, 13, 72, 0
14, 27600, Note_on_c, 13, 59, 72
14, 27600, Note_on_c, 13, 71, 75
14, 27620, Note_on_c, 13, 71, 0
14, 27621, Note_on_c, 13, 59, 0
14, 27630, Note_on_c, 13, 56, 75
14, 27630, Note_on_c, 13, 68, 75
14, 27641, Note_on_c, 13, 68, 0
14, 27642, Note_on_c, 13, 56, 0
14, 27660, Note_on_c, 13, 57, 59
14, 27660, Note_on_c, 13, 69, 75
14, 27677, Note_on_c, 13, 69, 0
14, 27677, Note_on_c, 13, 57, 0
14, 27690, Note_on_c, 13, 59, 84
14, 27690, Note_on_c, 13, 71, 75
14, 27750, Note_on_c, 13, 56, 74
14, 27750, Note_on_c, 13, 68, 75
14, 27751, Note_on_c, 13, 59, 0
14, 27752, Note_on_c, 13, 71, 0
14, 27762, Note_on_c, 13, 56, 0
14, 27764, Note_on_c, 13, 68, 0
14, 27780, Note_on_c, 13, 57, 62
14, 27780, Note_on_c, 13, 69, 75
14, 27798, Note_on_c, 13, 57, 0
14, 27803, Note_on_c, 13, 69, 0
14, 27810, Note_on_c, 13, 59, 87
14, 27810, Note_on_c, 13, 71, 75
14, 27869, Note_on_c, 13, 59, 0
14, 27870, Note_on_c, 13, 56, 67
14, 27870, Note_on_c, 13, 68, 75
14, 27875, Note_on_c, 13, 71, 0
14, 27883, Note_on_c, 13, 56, 0
14, 27886, Note_on_c, 13, 68, 0
14, 27900, Note_on_c, 13, 57, 58
14, 27900, Note_on_c, 13, 69, 75
14, 27918, Note_on_c, 13, 57, 0
14, 27923, Note_on_c, 13, 69, 0
14, 27930, Note_on_c, 13, 59, 84
14, 27930, Note_on_c, 13, 71, 75
14, 27990, Note_on_c, 13, 56, 69
14, 27990, Note_on_c, 13, 68, 75
14, 27992, Note_on_c, 13, 71, 0
14, 27992, Note_on_c, 13, 59, 0
14, 28007, Note_on_c, 13, 56, 0
14, 28007, Note_on_c, 13, 68, 0
14, 28020, Note_on_c, 13, 57, 59
14, 28020, Note_on_c, 13, 69, 75
14, 28038, Note_on_c, 13, 57, 0
14, 28043, Note_on_c, 13, 69, 0
14, 28050, Note_on_c, 13, 59, 65
14, 28050, Note_on_c, 13, 71, 75
14, 28062, Note_on_c, 13, 59, 0
14, 28066, Note_on_c, 13, 71, 0
14, 28080, Note_on_c, 13, 60, 72
14, 28080, Note_on_c, 13, 72, 75
14, 28104, Note_on_c, 13, 60, 0
14, 28110, Note_on_c, 13, 56, 69
14, 28110, Note_on_c, 13, 68, 75
14, 28114, Note_on_c, 13, 72, 0
14, 28130, Note_on_c, 13, 56, 0
14, 28131, Note_on_c, 13, 68, 0
14, 28140, Note_on_c, 13, 58, 65
14, 28140, Note_on_c, 13, 70, 75
14, 28156, Note_on_c, 13, 58, 0
14, 28158, Note_on_c, 13, 70, 0
14, 28170, Note_on_c, 13, 60, 72
14, 28170, Note_on_c, 13, 72, 75
14, 28226, Note_on_c, 13, 60, 0
14, 28227, Note_on_c, 13, 72, 0
14, 28230, Note_on_c, 13, 56, 64
14, 28230, Note_on_c, 13, 68, 75
14, 28250, Note_on_c, 13, 68, 0
14, 28250, Note_on_c, 13, 56, 0
14, 28260, Note_on_c, 13, 58, 67
14, 28260, Note_on_c, 13, 70, 75
14, 28275, Note_on_c, 13, 58, 0
14, 28279, Note_on_c, 13, 70, 0
14, 28290, Note_on_c, 13, 60, 67
14, 28290, Note_on_c, 13, 72, 75
14, 28349, Note_on_c, 13, 60, 0
14, 28350, Note_on_c, 13, 56, 59
14, 28350, Note_on_c, 13, 68, 75
14, 28354, Note_on_c, 13, 72, 0
14, 28380, Note_on_c, 13, 68, 0
14, 28380, Note_on_c, 13, 58, 65
14, 28380, Note_on_c, 13, 70, 75
14, 28388, Note_on_c, 13, 56, 0
14, 28396, Note_on_c, 13, 58, 0
14, 28399, Note_on_c, 13, 70, 0
14, 28410, Note_on_c, 13, 60, 67
14, 28410, Note_on_c, 13, 72, 75
14, 28459, Note_on_c, 13, 60, 0
14, 28470, Note_on_c, 13, 56, 64
14, 28470, Note_on_c, 13, 68, 75
14, 28473, Note_on_c, 13, 72, 0
14, 28491, Note_on_c, 13, 68, 0
14, 28500, Note_on_c, 13, 58, 63
14, 28500, Note_on_c, 13, 70, 75
14, 28504, Note_on_c, 13, 56, 0
14, 28518, Note_on_c, 13, 58, 0
14, 28522, Note_on_c, 13, 70, 0
14, 28530, Note_on_c, 13, 60, 60
14, 28530, Note_on_c, 13, 72, 75
14, 28546, Note_on_c, 13, 60, 0
14, 28547, Note_on_c, 13, 72, 0
14, 28560, Note_on_c, 13, 59, 75
14, 28560, Note_on_c, 13, 71, 75
14, 28582, Note_on_c, 13, 59, 0
14, 28584, Note_on_c, 13, 71, 0
14, 28590, Note_on_c, 13, 56, 75
14, 28590, Note_on_c, 13, 68, 75
14, 28602, Note_on_c, 13, 56, 0
14, 28606, Note_on_c, 13, 68, 0
14, 28620, Note_on_c, 13, 57, 61
14, 28620, Note_on_c, 13, 69, 75
14, 28634, Note_on_c, 13, 57, 0
14, 28645, Note_on_c, 13, 69, 0
14, 28650, Note_on_c, 13, 59, 74
14, 28650, Note_on_c, 13, 71, 75
14, 28709, Note_on_c, 13, 71, 0
14, 28710, Note_on_c, 13, 56, 65
14, 28710, Note_on_c, 13, 68, 75
14, 28719, Note_on_c, 13, 59, 0
14, 28723, Note_on_c, 13, 68, 0
14, 28724, Note_on_c, 13, 56, 0
14, 28740, Note_on_c, 13, 57, 58
14, 28740, Note_on_c, 13, 69, 75
14, 28761, Note_on_c, 13, 57, 0
14, 28762, Note_on_c, 13, 69, 0
14, 28770, Note_on_c, 13, 59, 75
14, 28770, Note_on_c, 13, 71, 75
14, 28830, Note_on_c, 13, 56, 72
14, 28830, Note_on_c, 13, 68, 75
14, 28832, Note_on_c, 13, 59, 0
14, 28834, Note_on_c, 13, 71, 0
14, 28843, Note_on_c, 13, 56, 0
14, 28845, Note_on_c, 13, 68, 0
14, 28860, Note_on_c, 13, 57, 60
14, 28860, Note_on_c, 13, 69, 75
14, 28876, Note_on_c, 13, 57, 0
14, 28885, Note_on_c, 13, 69, 0
14, 28890, Note_on_c, 13, 59, 79
14, 28890, Note_on_c, 13, 71, 75
14, 28950, Note_on_c, 13, 56, 74
14, 28950, Note_on_c, 13, 68, 75
14, 28951, Note_on_c, 13, 59, 0
14, 28953, Note_on_c, 13, 71, 0
14, 28964, Note_on_c, 13, 68, 0
14, 28965, Note_on_c, 13, 56, 0
14, 28980, Note_on_c, 13, 57, 69
14, 28980, Note_on_c, 13, 69, 75
14, 29002, Note_on_c, 13, 57, 0
14, 29005, Note_on_c, 13, 69, 0
14, 29010, Note_on_c, 13, 59, 59
14, 29010, Note_on_c, 13, 71, 75
14, 29019, Note_on_c, 13, 59, 0
14, 29030, Note_on_c, 13, 71, 0
14, 29040, Note_on_c, 13, 60, 65
14, 29040, Note_on_c, 13, 72, 75
14, 29064, Note_on_c, 13, 60, 0
14, 29070, Note_on_c, 13, 72, 0
14, 29070, Note_on_c, 13, 56, 74
14, 29070, Note_on_c, 13, 68, 75
14, 29088, Note_on_c, 13, 68, 0
14, 29088, Note_on_c, 13, 56, 0
14, 29100, Note_on_c, 13, 58, 62
14, 29100, Note_on_c, 13, 70, 75
14, 29115, Note_on_c, 13, 58, 0
14, 29117, Note_on_c, 13, 70, 0
14, 29130, Note_on_c, 13, 60, 74
14, 29130, Note_on_c, 13, 72, 75
14, 29184, Note_on_c, 13, 72, 0
14, 29189, Note_on_c, 13, 60, 0
14, 29190, Note_on_c, 13, 56, 62
14, 29190, Note_on_c, 13, 68, 75
14, 29212, Note_on_c, 13, 68, 0
14, 29220, Note_on_c, 13, 58, 65
14, 29220, Note_on_c, 13, 70, 75
14, 29221, Note_on_c, 13, 56, 0
14, 29236, Note_on_c, 13, 58, 0
14, 29238, Note_on_c, 13, 70, 0
14, 29250, Note_on_c, 13, 60, 64
14, 29250, Note_on_c, 13, 72, 75
14, 29309, Note_on_c, 13, 72, 0
14, 29310, Note_on_c, 13, 56, 60
14, 29310, Note_on_c, 13, 68, 75
14, 29318, Note_on_c, 13, 60, 0
14, 29334, Note_on_c, 13, 68, 0
14, 29339, Note_on_c, 13, 56, 0
14, 29340, Note_on_c, 13, 58, 62
14, 29340, Note_on_c, 13, 70, 75
14, 29357, Note_on_c, 13, 70, 0
14, 29357, Note_on_c, 13, 58, 0
14, 29370, Note_on_c, 13, 60, 64
14, 29370, Note_on_c, 13, 72, 75
14, 29430, Note_on_c, 13, 56, 64
14, 29430, Note_on_c, 13, 68, 75
14, 29432, Note_on_c, 13, 60, 0
14, 29433, Note_on_c, 13, 72, 0
14, 29460, Note_on_c, 13, 56, 0
14, 29460, Note_on_c, 13, 58, 74
14, 29460, Note_on_c, 13, 70, 75
14, 29463, Note_on_c, 13, 68, 0
14, 29475, Note_on_c, 13, 58, 0
14, 29480, Note_on_c, 13, 70, 0
14, 29490, Note_on_c, 13, 60, 65
14, 29490, Note_on_c, 13, 72, 75
14, 29508, Note_on_c, 13, 72, 0
14, 29509, Note_on_c, 13, 60, 0
14, 29520, Note_on_c, 13, 59, 75
14, 29520, Note_on_c, 13, 71, 75
14, 29538, Note_on_c, 13, 59, 0
14, 29550, Note_on_c, 13, 56, 72
14, 29550, Note_on_c, 13, 68, 75
14, 29554, Note_on_c, 13, 71, 0
14, 29564, Note_on_c, 13, 56, 0
14, 29565, Note_on_c, 13, 68, 0
14, 29580, Note_on_c, 13, 57, 60
14, 29580, Note_on_c, 13, 69, 75
14, 29596, Note_on_c, 13, 57, 0
14, 29602, Note_on_c, 13, 69, 0
14, 29610, Note_on_c, 13, 59, 84
14, 29610, Note_on_c, 13, 71, 75
14, 29670, Note_on_c, 13, 56, 65
14, 29670, Note_on_c, 13, 68, 75
14, 29671, Note_on_c, 13, 59, 0
14, 29672, Note_on_c, 13, 71, 0
14, 29682, Note_on_c, 13, 56, 0
14, 29687, Note_on_c, 13, 68, 0
14, 29700, Note_on_c, 13, 57, 51
14, 29700, Note_on_c, 13, 69, 75
14, 29723, Note_on_c, 13, 69, 0
14, 29725, Note_on_c, 13, 57, 0
14, 29730, Note_on_c, 13, 59, 84
14, 29730, Note_on_c, 13, 71, 75
14, 29785, Note_on_c, 13, 59, 0
14, 29790, Note_on_c, 13, 56, 69
14, 29790, Note_on_c, 13, 68, 75
14, 29795, Note_on_c, 13, 71, 0
14, 29804, Note_on_c, 13, 68, 0
14, 29805, Note_on_c, 13, 56, 0
14, 29820, Note_on_c, 13, 57, 58
14, 29820, Note_on_c, 13, 69, 75
14, 29839, Note_on_c, 13, 57, 0
14, 29843, Note_on_c, 13, 69, 0
14, 29850, Note_on_c, 13, 59, 75
14, 29850, Note_on_c, 13, 71, 75
14, 29906, Note_on_c, 13, 59, 0
14, 29907, Note_on_c, 13, 71, 0
14, 29910, Note_on_c, 13, 56, 75
14, 29910, Note_on_c, 13, 68, 75
14, 29922, Note_on_c, 13, 68, 0
14, 29923, Note_on_c, 13, 56, 0
14, 29940, Note_on_c, 13, 57, 58
14, 29940, Note_on_c, 13, 69, 75
14, 29961, Note_on_c, 13, 57, 0
14, 29967, Note_on_c, 13, 69, 0
14, 29970, Note_on_c, 13, 59, 39
14, 29970, Note_on_c, 13, 71, 75
14, 29973, Note_on_c, 13, 59, 0
14, 29988, Note_on_c, 13, 71, 0
14, 30000, Note_on_c, 13, 60, 69
14, 30000, Note_on_c, 13, 72, 75
14, 30026, Note_on_c, 13, 60, 0
14, 30030, Note_on_c, 13, 72, 0
14, 30030, Note_on_c, 13, 56, 74
14, 30030, Note_on_c, 13, 68, 75
14, 30048, Note_on_c, 13, 68, 0
14, 30049, Note_on_c, 13, 56, 0
14, 30060, Note_on_c, 13, 58, 72
14, 30060, Note_on_c, 13, 70, 75
14, 30071, Note_on_c, 13, 58, 0
14, 30077, Note_on_c, 13, 70, 0
14, 30090, Note_on_c, 13, 60, 79
14, 30090, Note_on_c, 13, 72, 75
14, 30116, Note_on_c, 13, 60, 0
14, 30120, Note_on_c, 13, 53, 69
14, 30120, Note_on_c, 13, 65, 87
14, 30144, Note_on_c, 13, 72, 0
14, 30150, Note_on_c, 13, 54, 84
14, 30150, Note_on_c, 13, 66, 87
14, 30152, Note_on_c, 13, 65, 0
14, 30153, Note_on_c, 13, 53, 0
14, 30180, Note_on_c, 13, 56, 67
14, 30180, Note_on_c, 13, 68, 87
14, 30185, Note_on_c, 13, 54, 0
14, 30186, Note_on_c, 13, 66, 0
14, 30197, Note_on_c, 13, 56, 0
14, 30209, Note_on_c, 13, 68, 0
14, 30210, Note_on_c, 13, 61, 79
14, 30210, Note_on_c, 13, 73, 94
14, 30235, Note_on_c, 13, 61, 0
14, 30243, Note_on_c, 13, 73, 0
14, 34320, Note_on_c, 13, 64, 69
14, 34348, Note_on_c, 13, 64, 0
14, 34350, Note_on_c, 13, 63, 59
14, 34370, Note_on_c, 13, 63, 0
14, 34380, Note_on_c, 13, 64, 69
14, 34408, Note_on_c, 13, 64, 0
14, 34410, Note_on_c, 13, 63, 58
14, 34433, Note_on_c, 13, 63, 0
14, 34440, Note_on_c, 13, 64, 79
14, 34468, Note_on_c, 13, 64, 0
14, 34470, Note_on_c, 13, 63, 59
14, 34491, Note_on_c, 13, 63, 0
14, 34500, Note_on_c, 13, 64, 74
14, 34530, Note_on_c, 13, 63, 57
14, 34532, Note_on_c, 13, 64, 0
14, 34555, Note_on_c, 13, 63, 0
14, 34560, Note_on_c, 13, 64, 74
14, 34590, Note_on_c, 13, 63, 58
14, 34592, Note_on_c, 13, 64, 0
14, 34610, Note_on_c, 13, 63, 0
14, 34620, Note_on_c, 13, 64, 69
14, 34650, Note_on_c, 13, 63, 55
14, 34655, Note_on_c, 13, 64, 0
14, 34671, Note_on_c, 13, 63, 0
14, 34680, Note_on_c, 13, 64, 67
14, 34710, Note_on_c, 13, 64, 0
14, 34710, Note_on_c, 13, 63, 51
14, 34732, Note_on_c, 13, 63, 0
14, 34740, Note_on_c, 13, 64, 65
14, 34770, Note_on_c, 13, 63, 55
14, 34776, Note_on_c, 13, 64, 0
14, 34791, Note_on_c, 13, 63, 0
14, 34800, Note_on_c, 13, 64, 69
14, 34830, Note_on_c, 13, 63, 58
14, 34832, Note_on_c, 13, 64, 0
14, 34849, Note_on_c, 13, 63, 0
14, 34860, Note_on_c, 13, 64, 69
14, 34890, Note_on_c, 13, 63, 58
14, 34896, Note_on_c, 13, 64, 0
14, 34910, Note_on_c, 13, 63, 0
14, 34920, Note_on_c, 13, 64, 67
14, 34948, Note_on_c, 13, 64, 0
14, 34950, Note_on_c, 13, 63, 55
14, 34970, Note_on_c, 13, 63, 0
14, 34980, Note_on_c, 13, 64, 64
14, 35010, Note_on_c, 13, 63, 63
14, 35011, Note_on_c, 13, 64, 0
14, 35022, Note_on_c, 13, 63, 0
14, 35040, Note_on_c, 13, 63, 69
14, 35070, Note_on_c, 13, 63, 0
14, 35070, Note_on_c, 13, 59, 60
14, 35090, Note_on_c, 13, 59, 0
14, 35100, Note_on_c, 13, 63, 67
14, 35130, Note_on_c, 13, 59, 62
14, 35132, Note_on_c, 13, 63, 0
14, 35149, Note_on_c, 13, 59, 0
14, 35160, Note_on_c, 13, 63, 72
14, 35189, Note_on_c, 13, 63, 0
14, 35190, Note_on_c, 13, 59, 60
14, 35212, Note_on_c, 13, 59, 0
14, 35220, Note_on_c, 13, 63, 69
14, 35250, Note_on_c, 13, 59, 61
14, 35254, Note_on_c, 13, 63, 0
14, 35269, Note_on_c, 13, 59, 0
14, 35280, Note_on_c, 13, 61, 69
14, 35310, Note_on_c, 13, 61, 0
14, 35310, Note_on_c, 13, 59, 62
14, 35332, Note_on_c, 13, 59, 0
14, 35340, Note_on_c, 13, 61, 72
14, 35370, Note_on_c, 13, 61, 0
14, 35370, Note_on_c, 13, 59, 61
14, 35396, Note_on_c, 13, 59, 0
14, 35400, Note_on_c, 13, 61, 69
14, 35430, Note_on_c, 13, 59, 62
14, 35432, Note_on_c, 13, 61, 0
14, 35452, Note_on_c, 13, 59, 0
14, 35460, Note_on_c, 13, 61, 69
14, 35488, Note_on_c, 13, 61, 0
14, 35490, Note_on_c, 13, 59, 64
14, 35512, Note_on_c, 13, 59, 0
14, 35520, Note_on_c, 13, 63, 72
14, 35550, Note_on_c, 13, 59, 60
14, 35551, Note_on_c, 13, 63, 0
14, 35573, Note_on_c, 13, 59, 0
14, 35580, Note_on_c, 13, 63, 75
14, 35609, Note_on_c, 13, 63, 0
14, 35610, Note_on_c, 13, 59, 60
14, 35630, Note_on_c, 13, 59, 0
14, 35640, Note_on_c, 13, 63, 72
14, 35670, Note_on_c, 13, 59, 60
14, 35671, Note_on_c, 13, 63, 0
14, 35690, Note_on_c, 13, 59, 0
14, 35700, Note_on_c, 13, 63, 69
14, 35724, Note_on_c, 13, 63, 0
14, 35730, Note_on_c, 13, 59, 64
14, 35752, Note_on_c, 13, 59, 0
14, 35760, Note_on_c, 13, 64, 64
14, 35790, Note_on_c, 13, 64, 0
14, 35790, Note_on_c, 13, 59, 60
14, 35814, Note_on_c, 13, 59, 0
14, 35820, Note_on_c, 13, 64, 67
14, 35850, Note_on_c, 13, 59, 61
14, 35853, Note_on_c, 13, 64, 0
14, 35877, Note_on_c, 13, 59, 0
14, 35880, Note_on_c, 13, 64, 61
14, 35910, Note_on_c, 13, 59, 56
14, 35915, Note_on_c, 13, 64, 0
14, 35930, Note_on_c, 13, 59, 0
14, 35940, Note_on_c, 13, 64, 60
14, 35970, Note_on_c, 13, 59, 59
14, 35973, Note_on_c, 13, 64, 0
14, 35993, Note_on_c, 13, 59, 0
14, 36000, Note_on_c, 13, 64, 64
14, 36030, Note_on_c, 13, 59, 60
14, 36033, Note_on_c, 13, 64, 0
14, 36055, Note_on_c, 13, 59, 0
14, 36060, Note_on_c, 13, 64, 67
14, 36090, Note_on_c, 13, 59, 59
14, 36094, Note_on_c, 13, 64, 0
14, 36111, Note_on_c, 13, 59, 0
14, 36120, Note_on_c, 13, 64, 63
14, 36150, Note_on_c, 13, 59, 61
14, 36153, Note_on_c, 13, 64, 0
14, 36169, Note_on_c, 13, 59, 0
14, 36180, Note_on_c, 13, 64, 60
14, 36210, Note_on_c, 13, 59, 62
14, 36213, Note_on_c, 13, 64, 0
14, 36225, Note_on_c, 13, 59, 0
14, 36240, Note_on_c, 13, 64, 74
14, 36268, Note_on_c, 13, 64, 0
14, 36270, Note_on_c, 13, 63, 60
14, 36291, Note_on_c, 13, 63, 0
14, 36300, Note_on_c, 13, 64, 72
14, 36328, Note_on_c, 13, 64, 0
14, 36330, Note_on_c, 13, 63, 53
14, 36352, Note_on_c, 13, 63, 0
14, 36360, Note_on_c, 13, 64, 69
14, 36389, Note_on_c, 13, 64, 0
14, 36390, Note_on_c, 13, 63, 55
14, 36412, Note_on_c, 13, 63, 0
14, 36420, Note_on_c, 13, 64, 74
14, 36450, Note_on_c, 13, 63, 55
14, 36455, Note_on_c, 13, 64, 0
14, 36469, Note_on_c, 13, 63, 0
14, 36480, Note_on_c, 13, 64, 74
14, 36510, Note_on_c, 13, 64, 0
14, 36510, Note_on_c, 13, 63, 58
14, 36531, Note_on_c, 13, 63, 0
14, 36540, Note_on_c, 13, 64, 74
14, 36570, Note_on_c, 13, 64, 0
14, 36570, Note_on_c, 13, 63, 58
14, 36590, Note_on_c, 13, 63, 0
14, 36600, Note_on_c, 13, 64, 72
14, 36630, Note_on_c, 13, 64, 0
14, 36630, Note_on_c, 13, 63, 59
14, 36652, Note_on_c, 13, 63, 0
14, 36660, Note_on_c, 13, 64, 72
14, 36690, Note_on_c, 13, 63, 55
14, 36693, Note_on_c, 13, 64, 0
14, 36707, Note_on_c, 13, 63, 0
14, 36720, Note_on_c, 13, 64, 74
14, 36750, Note_on_c, 13, 63, 60
14, 36751, Note_on_c, 13, 64, 0
14, 36768, Note_on_c, 13, 63, 0
14, 36780, Note_on_c, 13, 64, 74
14, 36810, Note_on_c, 13, 63, 59
14, 36813, Note_on_c, 13, 64, 0
14, 36827, Note_on_c, 13, 63, 0
14, 36840, Note_on_c, 13, 64, 74
14, 36870, Note_on_c, 13, 63, 59
14, 36871, Note_on_c, 13, 64, 0
14, 36886, Note_on_c, 13, 63, 0
14, 36900, Note_on_c, 13, 64, 72
14, 36930, Note_on_c, 13, 63, 63
14, 36938, Note_on_c, 13, 64, 0
14, 36943, Note_on_c, 13, 63, 0
14, 36960, Note_on_c, 13, 63, 74
14, 36986, Note_on_c, 13, 63, 0
14, 36990, Note_on_c, 13, 59, 58
14, 37011, Note_on_c, 13, 59, 0
14, 37020, Note_on_c, 13, 63, 74
14, 37050, Note_on_c, 13, 59, 60
14, 37052, Note_on_c, 13, 63, 0
14, 37070, Note_on_c, 13, 59, 0
14, 37080, Note_on_c, 13, 63, 74
14, 37110, Note_on_c, 13, 63, 0
14, 37110, Note_on_c, 13, 59, 59
14, 37130, Note_on_c, 13, 59, 0
14, 37140, Note_on_c, 13, 63, 79
14, 37170, Note_on_c, 13, 59, 62
14, 37173, Note_on_c, 13, 63, 0
14, 37187, Note_on_c, 13, 59, 0
14, 37200, Note_on_c, 13, 61, 75
14, 37230, Note_on_c, 13, 61, 0
14, 37230, Note_on_c, 13, 59, 59
14, 37248, Note_on_c, 13, 59, 0
14, 37260, Note_on_c, 13, 61, 72
14, 37290, Note_on_c, 13, 59, 60
14, 37293, Note_on_c, 13, 61, 0
14, 37311, Note_on_c, 13, 59, 0
14, 37320, Note_on_c, 13, 61, 69
14, 37350, Note_on_c, 13, 61, 0
14, 37350, Note_on_c, 13, 59, 58
14, 37372, Note_on_c, 13, 59, 0
14, 37380, Note_on_c, 13, 61, 74
14, 37408, Note_on_c, 13, 61, 0
14, 37410, Note_on_c, 13, 59, 63
14, 37429, Note_on_c, 13, 59, 0
14, 37440, Note_on_c, 13, 63, 72
14, 37468, Note_on_c, 13, 63, 0
14, 37470, Note_on_c, 13, 59, 60
14, 37489, Note_on_c, 13, 59, 0
14, 37500, Note_on_c, 13, 63, 75
14, 37529, Note_on_c, 13, 63, 0
14, 37530, Note_on_c, 13, 59, 60
14, 37551, Note_on_c, 13, 59, 0
14, 37560, Note_on_c, 13, 63, 69
14, 37590, Note_on_c, 13, 59, 60
14, 37593, Note_on_c, 13, 63, 0
14, 37611, Note_on_c, 13, 59, 0
14, 37620, Note_on_c, 13, 63, 74
14, 37650, Note_on_c, 13, 59, 60
14, 37651, Note_on_c, 13, 63, 0
14, 37671, Note_on_c, 13, 59, 0
14, 37680, Note_on_c, 13, 64, 72
14, 37708, Note_on_c, 13, 64, 0
14, 37710, Note_on_c, 13, 59, 59
14, 37730, Note_on_c, 13, 59, 0
14, 37740, Note_on_c, 13, 64, 69
14, 37770, Note_on_c, 13, 59, 60
14, 37774, Note_on_c, 13, 64, 0
14, 37793, Note_on_c, 13, 59, 0
14, 37800, Note_on_c, 13, 64, 74
14, 37830, Note_on_c, 13, 59, 63
14, 37833, Note_on_c, 13, 64, 0
14, 37851, Note_on_c, 13, 59, 0
14, 37860, Note_on_c, 13, 64, 75
14, 37890, Note_on_c, 13, 59, 59
14, 37895, Note_on_c, 13, 64, 0
14, 37915, Note_on_c, 13, 59, 0
14, 37920, Note_on_c, 13, 64, 74
14, 37950, Note_on_c, 13, 59, 59
14, 37951, Note_on_c, 13, 64, 0
14, 37977, Note_on_c, 13, 59, 0
14, 37980, Note_on_c, 13, 64, 75
14, 38010, Note_on_c, 13, 59, 61
14, 38013, Note_on_c, 13, 64, 0
14, 38031, Note_on_c, 13, 59, 0
14, 38040, Note_on_c, 13, 64, 75
14, 38070, Note_on_c, 13, 59, 60
14, 38073, Note_on_c, 13, 64, 0
14, 38091, Note_on_c, 13, 59, 0
14, 38100, Note_on_c, 13, 64, 79
14, 38130, Note_on_c, 13, 59, 61
14, 38134, Note_on_c, 13, 64, 0
14, 38144, Note_on_c, 13, 59, 0
14, 38160, Note_on_c, 13, 64, 69
14, 38188, Note_on_c, 13, 64, 0
14, 38190, Note_on_c, 13, 63, 59
14, 38210, Note_on_c, 13, 63, 0
14, 38220, Note_on_c, 13, 64, 69
14, 38248, Note_on_c, 13, 64, 0
14, 38250, Note_on_c, 13, 63, 58
14, 38273, Note_on_c, 13, 63, 0
14, 38280, Note_on_c, 13, 64, 79
14, 38308, Note_on_c, 13, 64, 0
14, 38310, Note_on_c, 13, 63, 59
14, 38331, Note_on_c, 13, 63, 0
14, 38340, Note_on_c, 13, 64, 74
14, 38370, Note_on_c, 13, 63, 57
14, 38372, Note_on_c, 13, 64, 0
14, 38395, Note_on_c, 13, 63, 0
14, 38400, Note_on_c, 13, 64, 74
14, 38430, Note_on_c, 13, 63, 58
14, 38432, Note_on_c, 13, 64, 0
14, 38450, Note_on_c, 13, 63, 0
14, 38460, Note_on_c, 13, 64, 69
14, 38490, Note_on_c, 13, 63, 55
14, 38495, Note_on_c, 13, 64, 0
14, 38511, Note_on_c, 13, 63, 0
14, 38520, Note_on_c, 13, 64, 67
14, 38550, Note_on_c, 13, 64, 0
14, 38550, Note_on_c, 13, 63, 51
14, 38572, Note_on_c, 13, 63, 0
14, 38580, Note_on_c, 13, 64, 65
14, 38610, Note_on_c, 13, 63, 55
14, 38616, Note_on_c, 13, 64, 0
14, 38631, Note_on_c, 13, 63, 0
14, 38640, Note_on_c, 13, 64, 69
14, 38670, Note_on_c, 13, 63, 58
14, 38672, Note_on_c, 13, 64, 0
14, 38689, Note_on_c, 13, 63, 0
14, 38700, Note_on_c, 13, 64, 69
14, 38730, Note_on_c, 13, 63, 58
14, 38736, Note_on_c, 13, 64, 0
14, 38750, Note_on_c, 13, 63, 0
14, 38760, Note_on_c, 13, 64, 67
14, 38788, Note_on_c, 13, 64, 0
14, 38790, Note_on_c, 13, 63, 55
14, 38810, Note_on_c, 13, 63, 0
14, 38820, Note_on_c, 13, 64, 64
14, 38850, Note_on_c, 13, 63, 63
14, 38851, Note_on_c, 13, 64, 0
14, 38862, Note_on_c, 13, 63, 0
14, 38880, Note_on_c, 13, 63, 69
14, 38910, Note_on_c, 13, 63, 0
14, 38910, Note_on_c, 13, 59, 60
14, 38930, Note_on_c, 13, 59, 0
14, 38940, Note_on_c, 13, 63, 67
14, 38970, Note_on_c, 13, 59, 62
14, 38972, Note_on_c, 13, 63, 0
14, 38989, Note_on_c, 13, 59, 0
14, 39000, Note_on_c, 13, 63, 72
14, 39029, Note_on_c, 13, 63, 0
14, 39030, Note_on_c, 13, 59, 60
14, 39052, Note_on_c, 13, 59, 0
14, 39060, Note_on_c, 13, 63, 69
14, 39090, Note_on_c, 13, 59, 61
14, 39094, Note_on_c, 13, 63, 0
14, 39109, Note_on_c, 13, 59, 0
14, 39120, Note_on_c, 13, 61, 69
14, 39150, Note_on_c, 13, 61, 0
14, 39150, Note_on_c, 13, 59, 62
14, 39172, Note_on_c, 13, 59, 0
14, 39180, Note_on_c, 13, 61, 72
14, 39210, Note_on_c, 13, 61, 0
14, 39210, Note_on_c, 13, 59, 61
14, 39236, Note_on_c, 13, 59, 0
14, 39240, Note_on_c, 13, 61, 69
14, 39270, Note_on_c, 13, 59, 62
14, 39272, Note_on_c, 13, 61, 0
14, 39292, Note_on_c, 13, 59, 0
14, 39300, Note_on_c, 13, 61, 69
14, 39328, Note_on_c, 13, 61, 0
14, 39330, Note_on_c, 13, 59, 64
14, 39352, Note_on_c, 13, 59, 0
14, 39360, Note_on_c, 13, 63, 72
14, 39390, Note_on_c, 13, 59, 60
14, 39391, Note_on_c, 13, 63, 0
14, 39413, Note_on_c, 13, 59, 0
14, 39420, Note_on_c, 13, 63, 75
14, 39449, Note_on_c, 13, 63, 0
14, 39450, Note_on_c, 13, 59, 60
14, 39470, Note_on_c, 13, 59, 0
14, 39480, Note_on_c, 13, 63, 72
14, 39510, Note_on_c, 13, 59, 60
14, 39511, Note_on_c, 13, 63, 0
14, 39530, Note_on_c, 13, 59, 0
14, 39540, Note_on_c, 13, 63, 69
14, 39564, Note_on_c, 13, 63, 0
14, 39570, Note_on_c, 13, 59, 64
14, 39592, Note_on_c, 13, 59, 0
14, 39600, Note_on_c, 13, 64, 64
14, 39630, Note_on_c, 13, 64, 0
14, 39630, Note_on_c, 13, 59, 60
14, 39654, Note_on_c, 13, 59, 0
14, 39660, Note_on_c, 13, 64, 67
14, 39690, Note_on_c, 13, 59, 61
14, 39693, Note_on_c, 13, 64, 0
14, 39717, Note_on_c, 13, 59, 0
14, 39720, Note_on_c, 13, 64, 61
14, 39750, Note_on_c, 13, 59, 56
14, 39755, Note_on_c, 13, 64, 0
14, 39770, Note_on_c, 13, 59, 0
14, 39780, Note_on_c, 13, 64, 60
14, 39810, Note_on_c, 13, 59, 59
14, 39813, Note_on_c, 13, 64, 0
14, 39833, Note_on_c, 13, 59, 0
14, 39840, Note_on_c, 13, 64, 64
14, 39870, Note_on_c, 13, 59, 60
14, 39873, Note_on_c, 13, 64, 0
14, 39895, Note_on_c, 13, 59, 0
14, 39900, Note_on_c, 13, 64, 67
14, 39930, Note_on_c, 13, 59, 59
14, 39934, Note_on_c, 13, 64, 0
14, 39951, Note_on_c, 13, 59, 0
14, 39960, Note_on_c, 13, 64, 63
14, 39990, Note_on_c, 13, 59, 61
14, 39993, Note_on_c, 13, 64, 0
14, 40009, Note_on_c, 13, 59, 0
14, 40020, Note_on_c, 13, 64, 60
14, 40050, Note_on_c, 13, 59, 62
14, 40053, Note_on_c, 13, 64, 0
14, 40065, Note_on_c, 13, 59, 0
14, 40080, Note_on_c, 13, 64, 74
14, 40108, Note_on_c, 13, 64, 0
14, 40110, Note_on_c, 13, 63, 60
14, 40131, Note_on_c, 13, 63, 0
14, 40140, Note_on_c, 13, 64, 72
14, 40168, Note_on_c, 13, 64, 0
14, 40170, Note_on_c, 13, 63, 53
14, 40192, Note_on_c, 13, 63, 0
14, 40200, Note_on_c, 13, 64, 69
14, 40229, Note_on_c, 13, 64, 0
14, 40230, Note_on_c, 13, 63, 55
14, 40252, Note_on_c, 13, 63, 0
14, 40260, Note_on_c, 13, 64, 74
14, 40290, Note_on_c, 13, 63, 55
14, 40295, Note_on_c, 13, 64, 0
14, 40309, Note_on_c, 13, 63, 0
14, 40320, Note_on_c, 13, 64, 74
14, 40350, Note_on_c, 13, 64, 0
14, 40350, Note_on_c, 13, 63, 58
14, 40371, Note_on_c, 13, 63, 0
14, 40380, Note_on_c, 13, 64, 74
14, 40410, Note_on_c, 13, 64, 0
14, 40410, Note_on_c, 13, 63, 58
14, 40430, Note_on_c, 13, 63, 0
14, 40440, Note_on_c, 13, 64, 72
14, 40470, Note_on_c, 13, 64, 0
14, 40470, Note_on_c, 13, 63, 59
14, 40492, Note_on_c, 13, 63, 0
14, 40500, Note_on_c, 13, 64, 72
14, 40530, Note_on_c, 13, 63, 55
14, 40533, Note_on_c, 13, 64, 0
14, 40547, Note_on_c, 13, 63, 0
14, 40560, Note_on_c, 13, 64, 74
14, 40590, Note_on_c, 13, 63, 60
14, 40591, Note_on_c, 13, 64, 0
14, 40608, Note_on_c, 13, 63, 0
14, 40620, Note_on_c, 13, 64, 74
14, 40650, Note_on_c, 13, 63, 59
14, 40653, Note_on_c, 13, 64, 0
14, 40667, Note_on_c, 13, 63, 0
14, 40680, Note_on_c, 13, 64, 74
14, 40710, Note_on_c, 13, 63, 59
14, 40711, Note_on_c, 13, 64, 0
14, 40726, Note_on_c, 13, 63, 0
14, 40740, Note_on_c, 13, 64, 72
14, 40770, Note_on_c, 13, 63, 63
14, 40778, Note_on_c, 13, 64, 0
14, 40783, Note_on_c, 13, 63, 0
14, 40800, Note_on_c, 13, 63, 74
14, 40826, Note_on_c, 13, 63, 0
14, 40830, Note_on_c, 13, 59, 58
14, 40851, Note_on_c, 13, 59, 0
14, 40860, Note_on_c, 13, 63, 74
14, 40890, Note_on_c, 13, 59, 60
14, 40892, Note_on_c, 13, 63, 0
14, 40910, Note_on_c, 13, 59, 0
14, 40920, Note_on_c, 13, 63, 74
14, 40950, Note_on_c, 13, 63, 0
14, 40950, Note_on_c, 13, 59, 59
14, 40970, Note_on_c, 13, 59, 0
14, 40980, Note_on_c, 13, 63, 79
14, 41010, Note_on_c, 13, 59, 62
14, 41013, Note_on_c, 13, 63, 0
14, 41027, Note_on_c, 13, 59, 0
14, 41040, Note_on_c, 13, 61, 75
14, 41070, Note_on_c, 13, 61, 0
14, 41070, Note_on_c, 13, 59, 59
14, 41088, Note_on_c, 13, 59, 0
14, 41100, Note_on_c, 13, 61, 72
14, 41130, Note_on_c, 13, 59, 60
14, 41133, Note_on_c, 13, 61, 0
14, 41151, Note_on_c, 13, 59, 0
14, 41160, Note_on_c, 13, 61, 69
14, 41190, Note_on_c, 13, 61, 0
14, 41190, Note_on_c, 13, 59, 58
14, 41212, Note_on_c, 13, 59, 0
14, 41220, Note_on_c, 13, 61, 74
14, 41248, Note_on_c, 13, 61, 0
14, 41250, Note_on_c, 13, 59, 63
14, 41269, Note_on_c, 13, 59, 0
14, 41280, Note_on_c, 13, 63, 72
14, 41308, Note_on_c, 13, 63, 0
14, 41310, Note_on_c, 13, 59, 60
14, 41329, Note_on_c, 13, 59, 0
14, 41340, Note_on_c, 13, 63, 75
14, 41369, Note_on_c, 13, 63, 0
14, 41370, Note_on_c, 13, 59, 60
14, 41391, Note_on_c, 13, 59, 0
14, 41400, Note_on_c, 13, 63, 69
14, 41430, Note_on_c, 13, 59, 60
14, 41433, Note_on_c, 13, 63, 0
14, 41451, Note_on_c, 13, 59, 0
14, 41460, Note_on_c, 13, 63, 74
14, 41490, Note_on_c, 13, 59, 60
14, 41491, Note_on_c, 13, 63, 0
14, 41511, Note_on_c, 13, 59, 0
14, 41520, Note_on_c, 13, 64, 72
14, 41548, Note_on_c, 13, 64, 0
14, 41550, Note_on_c, 13, 59, 59
14, 41570, Note_on_c, 13, 59, 0
14, 41580, Note_on_c, 13, 64, 69
14, 41610, Note_on_c, 13, 59, 60
14, 41614, Note_on_c, 13, 64, 0
14, 41633, Note_on_c, 13, 59, 0
14, 41640, Note_on_c, 13, 64, 74
14, 41670, Note_on_c, 13, 59, 63
14, 41673, Note_on_c, 13, 64, 0
14, 41691, Note_on_c, 13, 59, 0
14, 41700, Note_on_c, 13, 64, 75
14, 41730, Note_on_c, 13, 59, 59
14, 41735, Note_on_c, 13, 64, 0
14, 41755, Note_on_c, 13, 59, 0
14, 41760, Note_on_c, 13, 64, 74
14, 41790, Note_on_c, 13, 59, 59
14, 41791, Note_on_c, 13, 64, 0
14, 41817, Note_on_c, 13, 59, 0
14, 41820, Note_on_c, 13, 64, 75
14, 41850, Note_on_c, 13, 59, 61
14, 41853, Note_on_c, 13, 64, 0
14, 41871, Note_on_c, 13, 59, 0
14, 41880, Note_on_c, 13, 64, 75
14, 41910, Note_on_c, 13, 59, 60
14, 41913, Note_on_c, 13, 64, 0
14, 41931, Note_on_c, 13, 59, 0
14, 41940, Note_on_c, 13, 64, 79
14, 41970, Note_on_c, 13, 59, 61
14, 41974, Note_on_c, 13, 64, 0
14, 41984, Note_on_c, 13, 59, 0
14, 41984, End_track
15, 0, Start_track
15, 0, MIDI_port, 0
15, 0, Title_t, "BowedGlass"
15, 0, Control_c, 12, 0, 56
15, 0, Control_c, 12, 32, 0
15, 0, Program_c, 12, 92
15, 0, Control_c, 12, 7, 103
15, 0, Control_c, 12, 10, 83
15, 660, Control_c, 12, 7, 127
15, 660, Control_c, 12, 10, 64
15, 4945, Control_c, 12, 7, 121
15, 4956, Control_c, 12, 7, 107
15, 5062, Control_c, 12, 7, 104
15, 5070, Control_c, 12, 7, 105
15, 5075, Control_c, 12, 7, 110
15, 5080, Control_c, 12, 7, 111
15, 5095, Control_c, 12, 7, 114
15, 9655, Control_c, 12, 10, 63
15, 9660, Control_c, 12, 10, 67
15, 9680, Control_c, 12, 10, 70
15, 9683, Control_c, 12, 10, 74
15, 9687, Control_c, 12, 10, 79
15, 9690, Control_c, 12, 10, 82
15, 9704, Control_c, 12, 10, 87
15, 9704, Control_c, 12, 10, 84
15, 9709, Control_c, 12, 10, 91
15, 9714, Control_c, 12, 10, 94
15, 9720, Control_c, 12, 10, 100
15, 9720, Control_c, 12, 10, 97
15, 9785, Control_c, 12, 10, 97
15, 10030, Control_c, 12, 10, 93
15, 10035, Control_c, 12, 10, 91
15, 10043, Control_c, 12, 10, 89
15, 11069, Control_c, 12, 10, 70
15, 11079, Control_c, 12, 10, 73
15, 11110, Control_c, 12, 10, 74
15, 11115, Control_c, 12, 10, 77
15, 11124, Control_c, 12, 10, 80
15, 27360, Note_on_c, 12, 75, 51
15, 28298, Note_on_c, 12, 75, 0
15, 28320, Note_on_c, 12, 75, 67
15, 28560, Note_on_c, 12, 80, 63
15, 29249, Note_on_c, 12, 80, 0
15, 29266, Note_on_c, 12, 75, 0
15, 29280, Note_on_c, 12, 75, 58
15, 29730, Note_on_c, 12, 80, 47
15, 30209, Note_on_c, 12, 80, 0
15, 30229, Note_on_c, 12, 75, 0
15, 30229, End_track
16, 0, Start_track
16, 0, MIDI_port, 0
16, 0, Title_t, "Shaker"
16, 0, Control_c, 9, 0, 62
16, 0, Control_c, 9, 32, 0
16, 0, Program_c, 9, 36
16, 0, Control_c, 9, 10, 64
16, 379, Control_c, 9, 64, 127
16, 432, Control_c, 9, 64, 0
16, 485, Control_c, 9, 64, 127
16, 535, Control_c, 9, 64, 0
16, 584, Control_c, 9, 64, 127
16, 622, Control_c, 9, 64, 0
16, 832, Control_c, 9, 64, 127
16, 926, Control_c, 9, 64, 0
16, 960, Note_on_c, 9, 69, 107
16, 964, Control_c, 9, 64, 127
16, 990, Note_on_c, 9, 69, 0
16, 990, Note_on_c, 9, 69, 73
16, 1020, Note_on_c, 9, 69, 0
16, 1020, Note_on_c, 9, 69, 79
16, 1050, Note_on_c, 9, 69, 0
16, 1050, Note_on_c, 9, 69, 72
16, 1080, Note_on_c, 9, 69, 0
16, 1080, Note_on_c, 9, 69, 123
16, 1110, Note_on_c, 9, 69, 0
16, 1110, Note_on_c, 9, 69, 100
16, 1140, Note_on_c, 9, 69, 0
16, 1140, Note_on_c, 9, 69, 80
16, 1170, Note_on_c, 9, 69, 0
16, 1170, Note_on_c, 9, 69, 78
16, 1200, Note_on_c, 9, 69, 0
16, 1200, Note_on_c, 9, 69, 117
16, 1230, Note_on_c, 9, 69, 0
16, 1230, Note_on_c, 9, 69, 67
16, 1260, Note_on_c, 9, 69, 0
16, 1260, Note_on_c, 9, 69, 78
16, 1290, Note_on_c, 9, 69, 0
16, 1290, Note_on_c, 9, 69, 60
16, 1320, Note_on_c, 9, 69, 0
16, 1320, Note_on_c, 9, 69, 110
16, 1350, Note_on_c, 9, 69, 0
16, 1350, Note_on_c, 9, 69, 74
16, 1380, Note_on_c, 9, 69, 0
16, 1380, Note_on_c, 9, 69, 73
16, 1390, Control_c, 9, 64, 0
16, 1410, Note_on_c, 9, 69, 0
16, 1410, Note_on_c, 9, 69, 54
16, 1440, Note_on_c, 9, 69, 0
16, 1440, Note_on_c, 9, 69, 99
16, 1470, Note_on_c, 9, 69, 0
16, 1470, Note_on_c, 9, 69, 52
16, 1500, Note_on_c, 9, 69, 0
16, 1500, Note_on_c, 9, 69, 63
16, 1530, Note_on_c, 9, 69, 0
16, 1530, Note_on_c, 9, 69, 60
16, 1560, Note_on_c, 9, 69, 0
16, 1560, Note_on_c, 9, 69, 107
16, 1590, Note_on_c, 9, 69, 0
16, 1590, Note_on_c, 9, 69, 60
16, 1620, Note_on_c, 9, 69, 0
16, 1620, Note_on_c, 9, 69, 60
16, 1650, Note_on_c, 9, 69, 0
16, 1650, Note_on_c, 9, 69, 65
16, 1680, Note_on_c, 9, 69, 0
16, 1680, Note_on_c, 9, 69, 113
16, 1710, Note_on_c, 9, 69, 0
16, 1710, Note_on_c, 9, 69, 65
16, 1740, Note_on_c, 9, 69, 0
16, 1740, Note_on_c, 9, 69, 78
16, 1770, Note_on_c, 9, 69, 0
16, 1770, Note_on_c, 9, 69, 65
16, 1800, Note_on_c, 9, 69, 0
16, 1800, Note_on_c, 9, 69, 113
16, 1830, Note_on_c, 9, 69, 0
16, 1830, Note_on_c, 9, 69, 63
16, 1860, Note_on_c, 9, 69, 0
16, 1860, Note_on_c, 9, 69, 75
16, 1890, Note_on_c, 9, 69, 0
16, 1890, Note_on_c, 9, 69, 100
16, 1920, Note_on_c, 9, 69, 0
16, 1920, Note_on_c, 9, 69, 117
16, 1950, Note_on_c, 9, 69, 0
16, 1950, Note_on_c, 9, 69, 55
16, 1980, Note_on_c, 9, 69, 0
16, 1980, Note_on_c, 9, 69, 75
16, 2010, Note_on_c, 9, 69, 0
16, 2010, Note_on_c, 9, 69, 61
16, 2040, Note_on_c, 9, 69, 0
16, 2040, Note_on_c, 9, 69, 123
16, 2070, Note_on_c, 9, 69, 0
16, 2070, Note_on_c, 9, 69, 58
16, 2100, Note_on_c, 9, 69, 0
16, 2100, Note_on_c, 9, 69, 82
16, 2130, Note_on_c, 9, 69, 0
16, 2130, Note_on_c, 9, 69, 61
16, 2160, Note_on_c, 9, 69, 0
16, 2160, Note_on_c, 9, 69, 123
16, 2190, Note_on_c, 9, 69, 0
16, 2190, Note_on_c, 9, 69, 57
16, 2220, Note_on_c, 9, 69, 0
16, 2220, Note_on_c, 9, 69, 73
16, 2250, Note_on_c, 9, 69, 0
16, 2250, Note_on_c, 9, 69, 53
16, 2280, Note_on_c, 9, 69, 0
16, 2280, Note_on_c, 9, 69, 113
16, 2310, Note_on_c, 9, 69, 0
16, 2310, Note_on_c, 9, 69, 53
16, 2340, Note_on_c, 9, 69, 0
16, 2340, Note_on_c, 9, 69, 76
16, 2370, Note_on_c, 9, 69, 0
16, 2370, Note_on_c, 9, 69, 66
16, 2400, Note_on_c, 9, 69, 0
16, 2400, Note_on_c, 9, 69, 110
16, 2430, Note_on_c, 9, 69, 0
16, 2430, Note_on_c, 9, 69, 61
16, 2460, Note_on_c, 9, 69, 0
16, 2460, Note_on_c, 9, 69, 86
16, 2490, Note_on_c, 9, 69, 0
16, 2490, Note_on_c, 9, 69, 66
16, 2510, Control_c, 9, 64, 127
16, 2520, Note_on_c, 9, 69, 0
16, 2520, Note_on_c, 9, 69, 113
16, 2550, Note_on_c, 9, 69, 0
16, 2550, Note_on_c, 9, 69, 60
16, 2580, Note_on_c, 9, 69, 0
16, 2580, Note_on_c, 9, 69, 86
16, 2601, Control_c, 9, 64, 0
16, 2610, Note_on_c, 9, 69, 0
16, 2610, Note_on_c, 9, 69, 70
16, 2640, Note_on_c, 9, 69, 0
16, 2640, Note_on_c, 9, 69, 110
16, 2640, Control_c, 9, 64, 127
16, 2670, Note_on_c, 9, 69, 0
16, 2670, Note_on_c, 9, 69, 68
16, 2694, Control_c, 9, 64, 0
16, 2700, Note_on_c, 9, 69, 0
16, 2700, Note_on_c, 9, 69, 82
16, 2730, Note_on_c, 9, 69, 0
16, 2730, Note_on_c, 9, 69, 67
16, 2755, Control_c, 9, 64, 127
16, 2760, Note_on_c, 9, 69, 0
16, 2760, Note_on_c, 9, 69, 113
16, 2790, Note_on_c, 9, 69, 0
16, 2790, Note_on_c, 9, 69, 68
16, 2820, Note_on_c, 9, 69, 0
16, 2820, Note_on_c, 9, 69, 83
16, 2827, Control_c, 9, 64, 0
16, 2850, Note_on_c, 9, 69, 0
16, 2850, Note_on_c, 9, 69, 61
16, 2872, Control_c, 9, 64, 127
16, 2880, Note_on_c, 9, 69, 0
16, 2880, Note_on_c, 9, 69, 110
16, 2910, Note_on_c, 9, 69, 0
16, 2910, Note_on_c, 9, 69, 62
16, 2940, Note_on_c, 9, 69, 0
16, 2940, Note_on_c, 9, 69, 86
16, 2941, Control_c, 9, 64, 0
16, 2970, Note_on_c, 9, 69, 0
16, 2970, Note_on_c, 9, 69, 67
16, 2986, Control_c, 9, 64, 127
16, 3000, Note_on_c, 9, 69, 0
16, 3000, Note_on_c, 9, 69, 107
16, 3030, Note_on_c, 9, 69, 0
16, 3030, Note_on_c, 9, 69, 100
16, 3060, Note_on_c, 9, 69, 0
16, 3060, Note_on_c, 9, 69, 71
16, 3065, Control_c, 9, 64, 0
16, 3090, Note_on_c, 9, 69, 0
16, 3090, Note_on_c, 9, 69, 63
16, 3114, Control_c, 9, 64, 127
16, 3120, Note_on_c, 9, 69, 0
16, 3120, Note_on_c, 9, 69, 101
16, 3150, Note_on_c, 9, 69, 0
16, 3150, Note_on_c, 9, 69, 60
16, 3180, Note_on_c, 9, 69, 0
16, 3180, Note_on_c, 9, 69, 74
16, 3205, Control_c, 9, 64, 0
16, 3210, Note_on_c, 9, 69, 0
16, 3210, Note_on_c, 9, 69, 68
16, 3240, Note_on_c, 9, 69, 0
16, 3240, Note_on_c, 9, 69, 101
16, 3240, Control_c, 9, 64, 127
16, 3270, Note_on_c, 9, 69, 0
16, 3270, Note_on_c, 9, 69, 60
16, 3300, Note_on_c, 9, 69, 0
16, 3300, Note_on_c, 9, 69, 74
16, 3321, Control_c, 9, 64, 0
16, 3330, Note_on_c, 9, 69, 0
16, 3330, Note_on_c, 9, 69, 69
16, 3356, Control_c, 9, 64, 127
16, 3360, Note_on_c, 9, 69, 0
16, 3360, Note_on_c, 9, 69, 97
16, 3390, Note_on_c, 9, 69, 0
16, 3390, Note_on_c, 9, 69, 68
16, 3420, Note_on_c, 9, 69, 0
16, 3420, Note_on_c, 9, 69, 79
16, 3440, Control_c, 9, 64, 0
16, 3450, Note_on_c, 9, 69, 0
16, 3450, Note_on_c, 9, 69, 67
16, 3478, Control_c, 9, 64, 127
16, 3480, Note_on_c, 9, 69, 0
16, 3480, Note_on_c, 9, 69, 97
16, 3510, Note_on_c, 9, 69, 0
16, 3510, Note_on_c, 9, 69, 64
16, 3540, Note_on_c, 9, 69, 0
16, 3540, Note_on_c, 9, 69, 65
16, 3570, Note_on_c, 9, 69, 0
16, 3570, Note_on_c, 9, 69, 64
16, 3600, Note_on_c, 9, 69, 0
16, 3600, Note_on_c, 9, 69, 107
16, 3630, Note_on_c, 9, 69, 0
16, 3630, Note_on_c, 9, 69, 64
16, 3660, Note_on_c, 9, 69, 0
16, 3660, Note_on_c, 9, 69, 65
16, 3690, Note_on_c, 9, 69, 0
16, 3690, Note_on_c, 9, 69, 51
16, 3720, Note_on_c, 9, 69, 0
16, 3720, Note_on_c, 9, 69, 110
16, 3750, Note_on_c, 9, 69, 0
16, 3750, Note_on_c, 9, 69, 64
16, 3780, Note_on_c, 9, 69, 0
16, 3780, Note_on_c, 9, 69, 80
16, 3810, Note_on_c, 9, 69, 0
16, 3810, Note_on_c, 9, 69, 67
16, 3840, Note_on_c, 9, 69, 0
16, 3840, Note_on_c, 9, 69, 113
16, 3870, Note_on_c, 9, 69, 0
16, 3870, Note_on_c, 9, 69, 65
16, 3900, Note_on_c, 9, 69, 0
16, 3900, Note_on_c, 9, 69, 72
16, 3930, Note_on_c, 9, 69, 0
16, 3930, Note_on_c, 9, 69, 66
16, 3960, Note_on_c, 9, 69, 0
16, 3960, Note_on_c, 9, 69, 110
16, 3990, Note_on_c, 9, 69, 0
16, 3990, Note_on_c, 9, 69, 63
16, 4020, Note_on_c, 9, 69, 0
16, 4020, Note_on_c, 9, 69, 88
16, 4050, Note_on_c, 9, 69, 0
16, 4050, Note_on_c, 9, 69, 71
16, 4080, Note_on_c, 9, 69, 0
16, 4080, Note_on_c, 9, 69, 117
16, 4110, Note_on_c, 9, 69, 0
16, 4110, Note_on_c, 9, 69, 100
16, 4140, Note_on_c, 9, 69, 0
16, 4140, Note_on_c, 9, 69, 88
16, 4170, Note_on_c, 9, 69, 0
16, 4170, Note_on_c, 9, 69, 71
16, 4200, Note_on_c, 9, 69, 0
16, 4200, Note_on_c, 9, 69, 99
16, 4230, Note_on_c, 9, 69, 0
16, 4230, Note_on_c, 9, 69, 58
16, 4260, Note_on_c, 9, 69, 0
16, 4260, Note_on_c, 9, 69, 75
16, 4290, Note_on_c, 9, 69, 0
16, 4290, Note_on_c, 9, 69, 69
16, 4320, Note_on_c, 9, 69, 0
16, 4320, Note_on_c, 9, 69, 104
16, 4350, Note_on_c, 9, 69, 0
16, 4350, Note_on_c, 9, 69, 70
16, 4380, Note_on_c, 9, 69, 0
16, 4380, Note_on_c, 9, 69, 82
16, 4410, Note_on_c, 9, 69, 0
16, 4410, Note_on_c, 9, 69, 73
16, 4440, Note_on_c, 9, 69, 0
16, 4440, Note_on_c, 9, 69, 113
16, 4470, Note_on_c, 9, 69, 0
16, 4470, Note_on_c, 9, 69, 83
16, 4500, Note_on_c, 9, 69, 0
16, 4500, Note_on_c, 9, 69, 88
16, 4530, Note_on_c, 9, 69, 0
16, 4530, Note_on_c, 9, 69, 72
16, 4560, Note_on_c, 9, 69, 0
16, 4560, Note_on_c, 9, 69, 120
16, 4590, Note_on_c, 9, 69, 0
16, 4590, Note_on_c, 9, 69, 74
16, 4620, Note_on_c, 9, 69, 0
16, 4620, Note_on_c, 9, 69, 75
16, 4650, Note_on_c, 9, 69, 0
16, 4650, Note_on_c, 9, 69, 64
16, 4680, Note_on_c, 9, 69, 0
16, 4680, Note_on_c, 9, 69, 94
16, 4710, Note_on_c, 9, 69, 0
16, 4710, Note_on_c, 9, 69, 73
16, 4740, Note_on_c, 9, 69, 0
16, 4740, Note_on_c, 9, 69, 66
16, 4770, Note_on_c, 9, 69, 0
16, 4770, Note_on_c, 9, 69, 67
16, 4800, Note_on_c, 9, 69, 0
16, 4800, Note_on_c, 9, 69, 107
16, 4830, Note_on_c, 9, 69, 0
16, 4830, Note_on_c, 9, 69, 76
16, 4860, Note_on_c, 9, 69, 0
16, 4860, Note_on_c, 9, 69, 69
16, 4890, Note_on_c, 9, 69, 0
16, 4890, Note_on_c, 9, 69, 66
16, 4920, Note_on_c, 9, 69, 0
16, 4920, Note_on_c, 9, 69, 104
16, 4950, Note_on_c, 9, 69, 0
16, 4950, Note_on_c, 9, 69, 62
16, 4980, Note_on_c, 9, 69, 0
16, 4980, Note_on_c, 9, 69, 63
16, 5010, Note_on_c, 9, 69, 0
16, 5010, Note_on_c, 9, 69, 65
16, 5040, Note_on_c, 9, 69, 0
16, 5040, Note_on_c, 9, 69, 107
16, 5070, Note_on_c, 9, 69, 0
16, 5070, Note_on_c, 9, 69, 71
16, 5100, Note_on_c, 9, 69, 0
16, 5100, Note_on_c, 9, 69, 76
16, 5130, Note_on_c, 9, 69, 0
16, 5130, Note_on_c, 9, 69, 62
16, 5160, Note_on_c, 9, 69, 0
16, 5160, Note_on_c, 9, 69, 99
16, 5190, Note_on_c, 9, 69, 0
16, 5190, Note_on_c, 9, 69, 66
16, 5220, Note_on_c, 9, 69, 0
16, 5220, Note_on_c, 9, 69, 75
16, 5250, Note_on_c, 9, 69, 0
16, 5250, Note_on_c, 9, 69, 66
16, 5280, Note_on_c, 9, 69, 0
16, 5280, Note_on_c, 9, 69, 104
16, 5310, Note_on_c, 9, 69, 0
16, 5310, Note_on_c, 9, 69, 67
16, 5340, Note_on_c, 9, 69, 0
16, 5340, Note_on_c, 9, 69, 73
16, 5370, Note_on_c, 9, 69, 0
16, 5370, Note_on_c, 9, 69, 66
16, 5400, Note_on_c, 9, 69, 0
16, 5400, Note_on_c, 9, 69, 104
16, 5430, Note_on_c, 9, 69, 0
16, 5430, Note_on_c, 9, 69, 62
16, 5460, Note_on_c, 9, 69, 0
16, 5460, Note_on_c, 9, 69, 79
16, 5490, Note_on_c, 9, 69, 0
16, 5490, Note_on_c, 9, 69, 62
16, 5520, Note_on_c, 9, 69, 0
16, 5520, Note_on_c, 9, 69, 97
16, 5550, Note_on_c, 9, 69, 0
16, 5550, Note_on_c, 9, 69, 62
16, 5580, Note_on_c, 9, 69, 0
16, 5580, Note_on_c, 9, 69, 80
16, 5610, Note_on_c, 9, 69, 0
16, 5610, Note_on_c, 9, 69, 54
16, 5640, Note_on_c, 9, 69, 0
16, 5640, Note_on_c, 9, 69, 94
16, 5670, Note_on_c, 9, 69, 0
16, 5670, Note_on_c, 9, 69, 59
16, 5700, Note_on_c, 9, 69, 0
16, 5700, Note_on_c, 9, 69, 83
16, 5730, Note_on_c, 9, 69, 0
16, 5730, Note_on_c, 9, 69, 64
16, 5760, Note_on_c, 9, 69, 0
16, 5760, Note_on_c, 9, 69, 101
16, 5790, Note_on_c, 9, 69, 0
16, 5790, Note_on_c, 9, 69, 68
16, 5820, Note_on_c, 9, 69, 0
16, 5820, Note_on_c, 9, 69, 85
16, 5850, Note_on_c, 9, 69, 0
16, 5850, Note_on_c, 9, 69, 73
16, 5880, Note_on_c, 9, 69, 0
16, 5880, Note_on_c, 9, 69, 104
16, 5910, Note_on_c, 9, 69, 0
16, 5910, Note_on_c, 9, 69, 70
16, 5940, Note_on_c, 9, 69, 0
16, 5940, Note_on_c, 9, 69, 79
16, 5970, Note_on_c, 9, 69, 0
16, 5970, Note_on_c, 9, 69, 53
16, 6000, Note_on_c, 9, 69, 0
16, 6000, Note_on_c, 9, 69, 110
16, 6030, Note_on_c, 9, 69, 0
16, 6030, Note_on_c, 9, 69, 51
16, 6060, Note_on_c, 9, 69, 0
16, 6060, Note_on_c, 9, 69, 79
16, 6090, Note_on_c, 9, 69, 0
16, 6090, Note_on_c, 9, 69, 58
16, 6120, Note_on_c, 9, 69, 0
16, 6120, Note_on_c, 9, 69, 107
16, 6150, Note_on_c, 9, 69, 0
16, 6150, Note_on_c, 9, 69, 67
16, 6180, Note_on_c, 9, 69, 0
16, 6180, Note_on_c, 9, 69, 80
16, 6210, Note_on_c, 9, 69, 0
16, 6210, Note_on_c, 9, 69, 68
16, 6240, Note_on_c, 9, 69, 0
16, 6240, Note_on_c, 9, 69, 107
16, 6270, Note_on_c, 9, 69, 0
16, 6270, Note_on_c, 9, 69, 65
16, 6300, Note_on_c, 9, 69, 0
16, 6300, Note_on_c, 9, 69, 88
16, 6330, Note_on_c, 9, 69, 0
16, 6330, Note_on_c, 9, 69, 66
16, 6360, Note_on_c, 9, 69, 0
16, 6360, Note_on_c, 9, 69, 113
16, 6390, Note_on_c, 9, 69, 0
16, 6390, Note_on_c, 9, 69, 61
16, 6420, Note_on_c, 9, 69, 0
16, 6420, Note_on_c, 9, 69, 79
16, 6450, Note_on_c, 9, 69, 0
16, 6450, Note_on_c, 9, 69, 71
16, 6480, Note_on_c, 9, 69, 0
16, 6480, Note_on_c, 9, 69, 101
16, 6510, Note_on_c, 9, 69, 0
16, 6510, Note_on_c, 9, 69, 70
16, 6540, Note_on_c, 9, 69, 0
16, 6540, Note_on_c, 9, 69, 68
16, 6570, Note_on_c, 9, 69, 0
16, 6570, Note_on_c, 9, 69, 68
16, 6600, Note_on_c, 9, 69, 0
16, 6600, Note_on_c, 9, 69, 107
16, 6630, Note_on_c, 9, 69, 0
16, 6630, Note_on_c, 9, 69, 69
16, 6660, Note_on_c, 9, 69, 0
16, 6660, Note_on_c, 9, 69, 85
16, 6690, Note_on_c, 9, 69, 0
16, 6690, Note_on_c, 9, 69, 74
16, 6720, Note_on_c, 9, 69, 0
16, 6720, Note_on_c, 9, 69, 104
16, 6723, Control_c, 9, 64, 0
16, 6748, Control_c, 9, 64, 127
16, 6750, Note_on_c, 9, 69, 0
16, 6780, Note_on_c, 9, 69, 90
16, 6810, Note_on_c, 9, 69, 0
16, 6810, Note_on_c, 9, 69, 74
16, 6840, Note_on_c, 9, 69, 0
16, 6840, Note_on_c, 9, 69, 97
16, 6870, Note_on_c, 9, 69, 0
16, 6870, Note_on_c, 9, 69, 58
16, 6900, Note_on_c, 9, 69, 0
16, 6900, Note_on_c, 9, 69, 76
16, 6930, Note_on_c, 9, 69, 0
16, 6930, Note_on_c, 9, 69, 62
16, 6960, Note_on_c, 9, 69, 0
16, 6960, Note_on_c, 9, 69, 107
16, 6990, Note_on_c, 9, 69, 0
16, 6990, Note_on_c, 9, 69, 68
16, 7020, Note_on_c, 9, 69, 0
16, 7020, Note_on_c, 9, 69, 83
16, 7050, Note_on_c, 9, 69, 0
16, 7050, Note_on_c, 9, 69, 71
16, 7080, Note_on_c, 9, 69, 0
16, 7080, Note_on_c, 9, 69, 99
16, 7110, Note_on_c, 9, 69, 0
16, 7110, Note_on_c, 9, 69, 69
16, 7140, Note_on_c, 9, 69, 0
16, 7140, Note_on_c, 9, 69, 80
16, 7170, Note_on_c, 9, 69, 0
16, 7170, Note_on_c, 9, 69, 70
16, 7200, Note_on_c, 9, 69, 0
16, 7200, Note_on_c, 9, 69, 101
16, 7230, Note_on_c, 9, 69, 0
16, 7230, Note_on_c, 9, 69, 69
16, 7260, Note_on_c, 9, 69, 0
16, 7260, Note_on_c, 9, 69, 85
16, 7290, Note_on_c, 9, 69, 0
16, 7290, Note_on_c, 9, 69, 74
16, 7320, Note_on_c, 9, 69, 0
16, 7320, Note_on_c, 9, 69, 99
16, 7350, Note_on_c, 9, 69, 0
16, 7350, Note_on_c, 9, 69, 69
16, 7380, Note_on_c, 9, 69, 0
16, 7380, Note_on_c, 9, 69, 79
16, 7410, Note_on_c, 9, 69, 0
16, 7410, Note_on_c, 9, 69, 71
16, 7440, Note_on_c, 9, 69, 0
16, 7440, Note_on_c, 9, 69, 107
16, 7470, Note_on_c, 9, 69, 0
16, 7470, Note_on_c, 9, 69, 69
16, 7500, Note_on_c, 9, 69, 0
16, 7500, Note_on_c, 9, 69, 68
16, 7530, Note_on_c, 9, 69, 0
16, 7530, Note_on_c, 9, 69, 48
16, 7560, Note_on_c, 9, 69, 0
16, 7560, Note_on_c, 9, 69, 107
16, 7590, Note_on_c, 9, 69, 0
16, 7590, Note_on_c, 9, 69, 67
16, 7620, Note_on_c, 9, 69, 0
16, 7620, Note_on_c, 9, 69, 79
16, 7650, Note_on_c, 9, 69, 0
16, 7650, Note_on_c, 9, 69, 75
16, 7680, Note_on_c, 9, 69, 0
16, 7680, Note_on_c, 9, 69, 104
16, 7710, Note_on_c, 9, 69, 0
16, 7710, Note_on_c, 9, 69, 67
16, 7740, Note_on_c, 9, 69, 0
16, 7740, Note_on_c, 9, 69, 71
16, 7770, Note_on_c, 9, 69, 0
16, 7770, Note_on_c, 9, 69, 66
16, 7800, Note_on_c, 9, 69, 0
16, 7800, Note_on_c, 9, 69, 107
16, 7830, Note_on_c, 9, 69, 0
16, 7830, Note_on_c, 9, 69, 66
16, 7860, Note_on_c, 9, 69, 0
16, 7860, Note_on_c, 9, 69, 83
16, 7890, Note_on_c, 9, 69, 0
16, 7890, Note_on_c, 9, 69, 74
16, 7920, Note_on_c, 9, 69, 0
16, 7920, Note_on_c, 9, 69, 97
16, 7950, Note_on_c, 9, 69, 0
16, 7950, Note_on_c, 9, 69, 72
16, 7980, Note_on_c, 9, 69, 0
16, 7980, Note_on_c, 9, 69, 83
16, 8010, Note_on_c, 9, 69, 0
16, 8010, Note_on_c, 9, 69, 70
16, 8040, Note_on_c, 9, 69, 0
16, 8040, Note_on_c, 9, 69, 97
16, 8070, Note_on_c, 9, 69, 0
16, 8070, Note_on_c, 9, 69, 76
16, 8100, Note_on_c, 9, 69, 0
16, 8100, Note_on_c, 9, 69, 83
16, 8130, Note_on_c, 9, 69, 0
16, 8130, Note_on_c, 9, 69, 78
16, 8160, Note_on_c, 9, 69, 0
16, 8160, Note_on_c, 9, 69, 101
16, 8190, Note_on_c, 9, 69, 0
16, 8190, Note_on_c, 9, 69, 71
16, 8220, Note_on_c, 9, 69, 0
16, 8220, Note_on_c, 9, 69, 78
16, 8250, Note_on_c, 9, 69, 0
16, 8250, Note_on_c, 9, 69, 73
16, 8280, Note_on_c, 9, 69, 0
16, 8280, Note_on_c, 9, 69, 110
16, 8310, Note_on_c, 9, 69, 0
16, 8310, Note_on_c, 9, 69, 66
16, 8340, Note_on_c, 9, 69, 0
16, 8340, Note_on_c, 9, 69, 78
16, 8370, Note_on_c, 9, 69, 0
16, 8370, Note_on_c, 9, 69, 74
16, 8400, Note_on_c, 9, 69, 0
16, 8400, Note_on_c, 9, 69, 99
16, 8430, Note_on_c, 9, 69, 0
16, 8430, Note_on_c, 9, 69, 72
16, 8460, Note_on_c, 9, 69, 0
16, 8460, Note_on_c, 9, 69, 75
16, 8490, Note_on_c, 9, 69, 0
16, 8490, Note_on_c, 9, 69, 78
16, 8520, Note_on_c, 9, 69, 0
16, 8520, Note_on_c, 9, 69, 92
16, 8550, Note_on_c, 9, 69, 0
16, 8550, Note_on_c, 9, 69, 55
16, 8580, Note_on_c, 9, 69, 0
16, 8580, Note_on_c, 9, 69, 76
16, 8610, Note_on_c, 9, 69, 0
16, 8610, Note_on_c, 9, 69, 78
16, 8640, Note_on_c, 9, 69, 0
16, 8640, Note_on_c, 9, 69, 90
16, 8670, Note_on_c, 9, 69, 0
16, 8670, Note_on_c, 9, 69, 75
16, 8700, Note_on_c, 9, 69, 0
16, 8700, Note_on_c, 9, 69, 72
16, 8730, Note_on_c, 9, 69, 0
16, 8730, Note_on_c, 9, 69, 74
16, 8760, Note_on_c, 9, 69, 0
16, 8760, Note_on_c, 9, 69, 107
16, 8790, Note_on_c, 9, 69, 0
16, 8790, Note_on_c, 9, 69, 69
16, 8820, Note_on_c, 9, 69, 0
16, 8820, Note_on_c, 9, 69, 60
16, 8850, Note_on_c, 9, 69, 0
16, 8850, Note_on_c, 9, 69, 71
16, 8880, Note_on_c, 9, 69, 0
16, 8880, Note_on_c, 9, 69, 99
16, 8910, Note_on_c, 9, 69, 0
16, 8910, Note_on_c, 9, 69, 63
16, 8940, Note_on_c, 9, 69, 0
16, 8940, Note_on_c, 9, 69, 76
16, 8970, Note_on_c, 9, 69, 0
16, 8970, Note_on_c, 9, 69, 73
16, 9000, Note_on_c, 9, 69, 0
16, 9000, Note_on_c, 9, 69, 99
16, 9030, Note_on_c, 9, 69, 0
16, 9030, Note_on_c, 9, 69, 68
16, 9060, Note_on_c, 9, 69, 0
16, 9060, Note_on_c, 9, 69, 66
16, 9090, Note_on_c, 9, 69, 0
16, 9090, Note_on_c, 9, 69, 68
16, 9120, Note_on_c, 9, 69, 0
16, 9120, Note_on_c, 9, 69, 104
16, 9150, Note_on_c, 9, 69, 0
16, 9150, Note_on_c, 9, 69, 66
16, 9180, Note_on_c, 9, 69, 0
16, 9180, Note_on_c, 9, 69, 70
16, 9210, Note_on_c, 9, 69, 0
16, 9210, Note_on_c, 9, 69, 69
16, 9240, Note_on_c, 9, 69, 0
16, 9240, Note_on_c, 9, 69, 101
16, 9270, Note_on_c, 9, 69, 0
16, 9270, Note_on_c, 9, 69, 72
16, 9300, Note_on_c, 9, 69, 0
16, 9300, Note_on_c, 9, 69, 73
16, 9330, Note_on_c, 9, 69, 0
16, 9330, Note_on_c, 9, 69, 78
16, 9360, Note_on_c, 9, 69, 0
16, 9360, Note_on_c, 9, 69, 110
16, 9390, Note_on_c, 9, 69, 0
16, 9390, Note_on_c, 9, 69, 53
16, 9420, Note_on_c, 9, 69, 0
16, 9420, Note_on_c, 9, 69, 71
16, 9450, Note_on_c, 9, 69, 0
16, 9450, Note_on_c, 9, 69, 60
16, 9480, Note_on_c, 9, 69, 0
16, 9480, Note_on_c, 9, 69, 101
16, 9510, Note_on_c, 9, 69, 0
16, 9510, Note_on_c, 9, 69, 71
16, 9540, Note_on_c, 9, 69, 0
16, 9540, Note_on_c, 9, 69, 78
16, 9570, Note_on_c, 9, 69, 0
16, 9570, Note_on_c, 9, 69, 72
16, 9600, Note_on_c, 9, 69, 0
16, 9600, Note_on_c, 9, 69, 107
16, 9630, Note_on_c, 9, 69, 0
16, 9630, Note_on_c, 9, 69, 71
16, 9660, Note_on_c, 9, 69, 0
16, 9660, Note_on_c, 9, 69, 80
16, 9690, Note_on_c, 9, 69, 0
16, 9690, Note_on_c, 9, 69, 71
16, 9720, Note_on_c, 9, 69, 0
16, 9720, Note_on_c, 9, 69, 107
16, 9750, Note_on_c, 9, 69, 0
16, 9750, Note_on_c, 9, 69, 66
16, 9780, Note_on_c, 9, 69, 0
16, 9780, Note_on_c, 9, 69, 86
16, 9810, Note_on_c, 9, 69, 0
16, 9810, Note_on_c, 9, 69, 76
16, 9840, Note_on_c, 9, 69, 0
16, 9840, Note_on_c, 9, 69, 104
16, 9870, Note_on_c, 9, 69, 0
16, 9870, Note_on_c, 9, 69, 57
16, 9900, Note_on_c, 9, 69, 0
16, 9900, Note_on_c, 9, 69, 67
16, 9930, Note_on_c, 9, 69, 0
16, 9930, Note_on_c, 9, 69, 57
16, 9960, Note_on_c, 9, 69, 0
16, 9960, Note_on_c, 9, 69, 110
16, 9990, Note_on_c, 9, 69, 0
16, 9990, Note_on_c, 9, 69, 39
16, 10020, Note_on_c, 9, 69, 0
16, 10020, Note_on_c, 9, 69, 92
16, 10050, Note_on_c, 9, 69, 0
16, 10050, Note_on_c, 9, 69, 66
16, 10080, Note_on_c, 9, 69, 0
16, 10080, Note_on_c, 9, 69, 110
16, 10110, Note_on_c, 9, 69, 0
16, 10110, Note_on_c, 9, 69, 90
16, 10140, Note_on_c, 9, 69, 0
16, 10140, Note_on_c, 9, 69, 90
16, 10170, Note_on_c, 9, 69, 0
16, 10170, Note_on_c, 9, 69, 74
16, 10200, Note_on_c, 9, 69, 0
16, 10200, Note_on_c, 9, 69, 107
16, 10230, Note_on_c, 9, 69, 0
16, 10230, Note_on_c, 9, 69, 66
16, 10260, Note_on_c, 9, 69, 0
16, 10260, Note_on_c, 9, 69, 80
16, 10290, Note_on_c, 9, 69, 0
16, 10290, Note_on_c, 9, 69, 70
16, 10320, Note_on_c, 9, 69, 0
16, 10320, Note_on_c, 9, 69, 113
16, 10350, Note_on_c, 9, 69, 0
16, 10350, Note_on_c, 9, 69, 64
16, 10380, Note_on_c, 9, 69, 0
16, 10380, Note_on_c, 9, 69, 86
16, 10410, Note_on_c, 9, 69, 0
16, 10410, Note_on_c, 9, 69, 73
16, 10440, Note_on_c, 9, 69, 0
16, 10440, Note_on_c, 9, 69, 110
16, 10470, Note_on_c, 9, 69, 0
16, 10470, Note_on_c, 9, 69, 61
16, 10500, Note_on_c, 9, 69, 0
16, 10500, Note_on_c, 9, 69, 86
16, 10530, Note_on_c, 9, 69, 0
16, 10530, Note_on_c, 9, 69, 76
16, 10560, Note_on_c, 9, 69, 0
16, 10560, Note_on_c, 9, 69, 110
16, 10590, Note_on_c, 9, 69, 0
16, 10590, Note_on_c, 9, 69, 74
16, 10620, Note_on_c, 9, 69, 0
16, 10620, Note_on_c, 9, 69, 86
16, 10650, Note_on_c, 9, 69, 0
16, 10650, Note_on_c, 9, 69, 79
16, 10680, Note_on_c, 9, 69, 0
16, 10680, Note_on_c, 9, 69, 120
16, 10710, Note_on_c, 9, 69, 0
16, 10710, Note_on_c, 9, 69, 72
16, 10740, Note_on_c, 9, 69, 0
16, 10740, Note_on_c, 9, 69, 80
16, 10770, Note_on_c, 9, 69, 0
16, 10770, Note_on_c, 9, 69, 70
16, 10800, Note_on_c, 9, 69, 0
16, 10800, Note_on_c, 9, 69, 110
16, 10830, Note_on_c, 9, 69, 0
16, 10830, Note_on_c, 9, 69, 68
16, 10860, Note_on_c, 9, 69, 0
16, 10860, Note_on_c, 9, 69, 86
16, 10890, Note_on_c, 9, 69, 0
16, 10890, Note_on_c, 9, 69, 78
16, 10920, Note_on_c, 9, 69, 0
16, 10920, Note_on_c, 9, 69, 107
16, 10950, Note_on_c, 9, 69, 0
16, 10950, Note_on_c, 9, 69, 80
16, 10980, Note_on_c, 9, 69, 0
16, 10980, Note_on_c, 9, 69, 69
16, 11010, Note_on_c, 9, 69, 0
16, 11010, Note_on_c, 9, 69, 67
16, 11040, Note_on_c, 9, 69, 0
16, 11040, Note_on_c, 9, 69, 110
16, 11070, Note_on_c, 9, 69, 0
16, 11070, Note_on_c, 9, 69, 71
16, 11100, Note_on_c, 9, 69, 0
16, 11100, Note_on_c, 9, 69, 72
16, 11130, Note_on_c, 9, 69, 0
16, 11130, Note_on_c, 9, 69, 60
16, 11160, Note_on_c, 9, 69, 0
16, 11160, Note_on_c, 9, 69, 110
16, 11190, Note_on_c, 9, 69, 0
16, 11190, Note_on_c, 9, 69, 70
16, 11220, Note_on_c, 9, 69, 0
16, 11220, Note_on_c, 9, 69, 75
16, 11250, Note_on_c, 9, 69, 0
16, 11250, Note_on_c, 9, 69, 71
16, 11280, Note_on_c, 9, 69, 0
16, 11280, Note_on_c, 9, 69, 117
16, 11310, Note_on_c, 9, 69, 0
16, 11310, Note_on_c, 9, 69, 69
16, 11340, Note_on_c, 9, 69, 0
16, 11340, Note_on_c, 9, 69, 85
16, 11370, Note_on_c, 9, 69, 0
16, 11370, Note_on_c, 9, 69, 78
16, 11400, Note_on_c, 9, 69, 0
16, 11400, Note_on_c, 9, 69, 113
16, 11430, Note_on_c, 9, 69, 0
16, 11430, Note_on_c, 9, 69, 63
16, 11460, Note_on_c, 9, 69, 0
16, 11460, Note_on_c, 9, 69, 80
16, 11490, Note_on_c, 9, 69, 0
16, 11490, Note_on_c, 9, 69, 72
16, 11520, Note_on_c, 9, 69, 0
16, 11520, Note_on_c, 9, 69, 113
16, 11550, Note_on_c, 9, 69, 0
16, 11550, Note_on_c, 9, 69, 68
16, 11580, Note_on_c, 9, 69, 0
16, 11580, Note_on_c, 9, 69, 79
16, 11610, Note_on_c, 9, 69, 0
16, 11610, Note_on_c, 9, 69, 72
16, 11640, Note_on_c, 9, 69, 0
16, 11640, Note_on_c, 9, 69, 110
16, 11670, Note_on_c, 9, 69, 0
16, 11670, Note_on_c, 9, 69, 64
16, 11700, Note_on_c, 9, 69, 0
16, 11700, Note_on_c, 9, 69, 76
16, 11730, Note_on_c, 9, 69, 0
16, 11730, Note_on_c, 9, 69, 66
16, 11760, Note_on_c, 9, 69, 0
16, 11760, Note_on_c, 9, 69, 110
16, 11790, Note_on_c, 9, 69, 0
16, 11790, Note_on_c, 9, 69, 68
16, 11820, Note_on_c, 9, 69, 0
16, 11820, Note_on_c, 9, 69, 80
16, 11850, Note_on_c, 9, 69, 0
16, 11850, Note_on_c, 9, 69, 71
16, 11880, Note_on_c, 9, 69, 0
16, 11880, Note_on_c, 9, 69, 110
16, 11910, Note_on_c, 9, 69, 0
16, 11910, Note_on_c, 9, 69, 66
16, 11940, Note_on_c, 9, 69, 0
16, 11940, Note_on_c, 9, 69, 75
16, 11970, Note_on_c, 9, 69, 0
16, 11970, Note_on_c, 9, 69, 78
16, 12000, Note_on_c, 9, 69, 0
16, 12000, Note_on_c, 9, 69, 113
16, 12030, Note_on_c, 9, 69, 0
16, 12030, Note_on_c, 9, 69, 90
16, 12060, Note_on_c, 9, 69, 0
16, 12060, Note_on_c, 9, 69, 75
16, 12090, Note_on_c, 9, 69, 0
16, 12090, Note_on_c, 9, 69, 71
16, 12120, Note_on_c, 9, 69, 0
16, 12120, Note_on_c, 9, 69, 113
16, 12150, Note_on_c, 9, 69, 0
16, 12150, Note_on_c, 9, 69, 68
16, 12180, Note_on_c, 9, 69, 0
16, 12180, Note_on_c, 9, 69, 86
16, 12210, Note_on_c, 9, 69, 0
16, 12210, Note_on_c, 9, 69, 78
16, 12240, Note_on_c, 9, 69, 0
16, 12240, Note_on_c, 9, 69, 110
16, 12270, Note_on_c, 9, 69, 0
16, 12270, Note_on_c, 9, 69, 75
16, 12300, Note_on_c, 9, 69, 0
16, 12300, Note_on_c, 9, 69, 82
16, 12330, Note_on_c, 9, 69, 0
16, 12330, Note_on_c, 9, 69, 78
16, 12360, Note_on_c, 9, 69, 0
16, 12360, Note_on_c, 9, 69, 110
16, 12390, Note_on_c, 9, 69, 0
16, 12390, Note_on_c, 9, 69, 66
16, 12420, Note_on_c, 9, 69, 0
16, 12420, Note_on_c, 9, 69, 82
16, 12450, Note_on_c, 9, 69, 0
16, 12450, Note_on_c, 9, 69, 76
16, 12480, Note_on_c, 9, 69, 0
16, 12480, Note_on_c, 9, 69, 113
16, 12510, Note_on_c, 9, 69, 0
16, 12510, Note_on_c, 9, 69, 57
16, 12540, Note_on_c, 9, 69, 0
16, 12540, Note_on_c, 9, 69, 86
16, 12570, Note_on_c, 9, 69, 0
16, 12570, Note_on_c, 9, 69, 69
16, 12600, Note_on_c, 9, 69, 0
16, 12600, Note_on_c, 9, 69, 113
16, 12630, Note_on_c, 9, 69, 0
16, 12630, Note_on_c, 9, 69, 62
16, 12660, Note_on_c, 9, 69, 0
16, 12660, Note_on_c, 9, 69, 82
16, 12690, Note_on_c, 9, 69, 0
16, 12690, Note_on_c, 9, 69, 76
16, 12720, Note_on_c, 9, 69, 0
16, 12720, Note_on_c, 9, 69, 110
16, 12750, Note_on_c, 9, 69, 0
16, 12750, Note_on_c, 9, 69, 66
16, 12780, Note_on_c, 9, 69, 0
16, 12780, Note_on_c, 9, 69, 79
16, 12810, Note_on_c, 9, 69, 0
16, 12810, Note_on_c, 9, 69, 66
16, 12840, Note_on_c, 9, 69, 0
16, 12840, Note_on_c, 9, 69, 117
16, 12870, Note_on_c, 9, 69, 0
16, 12870, Note_on_c, 9, 69, 66
16, 12900, Note_on_c, 9, 69, 0
16, 12900, Note_on_c, 9, 69, 88
16, 12930, Note_on_c, 9, 69, 0
16, 12930, Note_on_c, 9, 69, 75
16, 12960, Note_on_c, 9, 69, 0
16, 12960, Note_on_c, 9, 69, 120
16, 12990, Note_on_c, 9, 69, 0
16, 12990, Note_on_c, 9, 69, 73
16, 13020, Note_on_c, 9, 69, 0
16, 13020, Note_on_c, 9, 69, 85
16, 13050, Note_on_c, 9, 69, 0
16, 13050, Note_on_c, 9, 69, 74
16, 13080, Note_on_c, 9, 69, 0
16, 13080, Note_on_c, 9, 69, 120
16, 13110, Note_on_c, 9, 69, 0
16, 13110, Note_on_c, 9, 69, 68
16, 13140, Note_on_c, 9, 69, 0
16, 13140, Note_on_c, 9, 69, 88
16, 13170, Note_on_c, 9, 69, 0
16, 13170, Note_on_c, 9, 69, 71
16, 13200, Note_on_c, 9, 69, 0
16, 13200, Note_on_c, 9, 69, 120
16, 13230, Note_on_c, 9, 69, 0
16, 13230, Note_on_c, 9, 69, 60
16, 13260, Note_on_c, 9, 69, 0
16, 13260, Note_on_c, 9, 69, 79
16, 13290, Note_on_c, 9, 69, 0
16, 13290, Note_on_c, 9, 69, 68
16, 13320, Note_on_c, 9, 69, 0
16, 13320, Note_on_c, 9, 69, 113
16, 13350, Note_on_c, 9, 69, 0
16, 13350, Note_on_c, 9, 69, 74
16, 13380, Note_on_c, 9, 69, 0
16, 13380, Note_on_c, 9, 69, 86
16, 13410, Note_on_c, 9, 69, 0
16, 13410, Note_on_c, 9, 69, 76
16, 13440, Note_on_c, 9, 69, 0
16, 13440, Note_on_c, 9, 69, 113
16, 13470, Note_on_c, 9, 69, 0
16, 13470, Note_on_c, 9, 69, 78
16, 13500, Note_on_c, 9, 69, 0
16, 13500, Note_on_c, 9, 69, 82
16, 13530, Note_on_c, 9, 69, 0
16, 13530, Note_on_c, 9, 69, 69
16, 13560, Note_on_c, 9, 69, 0
16, 13560, Note_on_c, 9, 69, 110
16, 13590, Note_on_c, 9, 69, 0
16, 13590, Note_on_c, 9, 69, 72
16, 13620, Note_on_c, 9, 69, 0
16, 13620, Note_on_c, 9, 69, 80
16, 13650, Note_on_c, 9, 69, 0
16, 13650, Note_on_c, 9, 69, 75
16, 13680, Note_on_c, 9, 69, 0
16, 13680, Note_on_c, 9, 69, 117
16, 13710, Note_on_c, 9, 69, 0
16, 13710, Note_on_c, 9, 69, 75
16, 13740, Note_on_c, 9, 69, 0
16, 13740, Note_on_c, 9, 69, 82
16, 13770, Note_on_c, 9, 69, 0
16, 13770, Note_on_c, 9, 69, 74
16, 13800, Note_on_c, 9, 69, 0
16, 13800, Note_on_c, 9, 69, 123
16, 13830, Note_on_c, 9, 69, 0
16, 13830, Note_on_c, 9, 69, 61
16, 13860, Note_on_c, 9, 69, 0
16, 13860, Note_on_c, 9, 69, 82
16, 13890, Note_on_c, 9, 69, 0
16, 13890, Note_on_c, 9, 69, 73
16, 13920, Note_on_c, 9, 69, 0
16, 13920, Note_on_c, 9, 69, 117
16, 13950, Note_on_c, 9, 69, 0
16, 13950, Note_on_c, 9, 69, 75
16, 13980, Note_on_c, 9, 69, 0
16, 13980, Note_on_c, 9, 69, 82
16, 14010, Note_on_c, 9, 69, 0
16, 14010, Note_on_c, 9, 69, 75
16, 14040, Note_on_c, 9, 69, 0
16, 14040, Note_on_c, 9, 69, 113
16, 14070, Note_on_c, 9, 69, 0
16, 14070, Note_on_c, 9, 69, 45
16, 14100, Note_on_c, 9, 69, 0
16, 14100, Note_on_c, 9, 69, 71
16, 14130, Note_on_c, 9, 69, 0
16, 14130, Note_on_c, 9, 69, 42
16, 14160, Note_on_c, 9, 69, 0
16, 14160, Note_on_c, 9, 69, 117
16, 14190, Note_on_c, 9, 69, 0
16, 14190, Note_on_c, 9, 69, 62
16, 14220, Note_on_c, 9, 69, 0
16, 14220, Note_on_c, 9, 69, 92
16, 14250, Note_on_c, 9, 69, 0
16, 14250, Note_on_c, 9, 69, 62
16, 14280, Note_on_c, 9, 69, 0
16, 14280, Note_on_c, 9, 69, 113
16, 14310, Note_on_c, 9, 69, 0
16, 14310, Note_on_c, 9, 69, 64
16, 14340, Note_on_c, 9, 69, 0
16, 14340, Note_on_c, 9, 69, 97
16, 14370, Note_on_c, 9, 69, 0
16, 14370, Note_on_c, 9, 69, 79
16, 14400, Note_on_c, 9, 69, 0
16, 14400, Note_on_c, 9, 69, 123
16, 14430, Note_on_c, 9, 69, 0
16, 14430, Note_on_c, 9, 69, 61
16, 14460, Note_on_c, 9, 69, 0
16, 14460, Note_on_c, 9, 69, 90
16, 14490, Note_on_c, 9, 69, 0
16, 14490, Note_on_c, 9, 69, 51
16, 14520, Note_on_c, 9, 69, 0
16, 14520, Note_on_c, 9, 69, 117
16, 14550, Note_on_c, 9, 69, 0
16, 14550, Note_on_c, 9, 69, 65
16, 14580, Note_on_c, 9, 69, 0
16, 14580, Note_on_c, 9, 69, 70
16, 14610, Note_on_c, 9, 69, 0
16, 14610, Note_on_c, 9, 69, 72
16, 14640, Note_on_c, 9, 69, 0
16, 14640, Note_on_c, 9, 69, 113
16, 14670, Note_on_c, 9, 69, 0
16, 14670, Note_on_c, 9, 69, 63
16, 14700, Note_on_c, 9, 69, 0
16, 14700, Note_on_c, 9, 69, 72
16, 14730, Note_on_c, 9, 69, 0
16, 14730, Note_on_c, 9, 69, 62
16, 14760, Note_on_c, 9, 69, 0
16, 14760, Note_on_c, 9, 69, 125
16, 14790, Note_on_c, 9, 69, 0
16, 14790, Note_on_c, 9, 69, 66
16, 14820, Note_on_c, 9, 69, 0
16, 14820, Note_on_c, 9, 69, 78
16, 14850, Note_on_c, 9, 69, 0
16, 14850, Note_on_c, 9, 69, 70
16, 14880, Note_on_c, 9, 69, 0
16, 14880, Note_on_c, 9, 69, 120
16, 14910, Note_on_c, 9, 69, 0
16, 14910, Note_on_c, 9, 69, 61
16, 14940, Note_on_c, 9, 69, 0
16, 14940, Note_on_c, 9, 69, 82
16, 14970, Note_on_c, 9, 69, 0
16, 14970, Note_on_c, 9, 69, 70
16, 15000, Note_on_c, 9, 69, 0
16, 15000, Note_on_c, 9, 69, 113
16, 15030, Note_on_c, 9, 69, 0
16, 15030, Note_on_c, 9, 69, 72
16, 15060, Note_on_c, 9, 69, 0
16, 15060, Note_on_c, 9, 69, 72
16, 15090, Note_on_c, 9, 69, 0
16, 15090, Note_on_c, 9, 69, 62
16, 15120, Note_on_c, 9, 69, 0
16, 15120, Note_on_c, 9, 69, 110
16, 15150, Note_on_c, 9, 69, 0
16, 15150, Note_on_c, 9, 69, 66
16, 15180, Note_on_c, 9, 69, 0
16, 15180, Note_on_c, 9, 69, 83
16, 15210, Note_on_c, 9, 69, 0
16, 15210, Note_on_c, 9, 69, 66
16, 15240, Note_on_c, 9, 69, 0
16, 15240, Note_on_c, 9, 69, 117
16, 15270, Note_on_c, 9, 69, 0
16, 15270, Note_on_c, 9, 69, 62
16, 15300, Note_on_c, 9, 69, 0
16, 15300, Note_on_c, 9, 69, 82
16, 15330, Note_on_c, 9, 69, 0
16, 15330, Note_on_c, 9, 69, 74
16, 15360, Note_on_c, 9, 69, 0
16, 15360, Note_on_c, 9, 69, 113
16, 15390, Note_on_c, 9, 69, 0
16, 15390, Note_on_c, 9, 69, 70
16, 15420, Note_on_c, 9, 69, 0
16, 15420, Note_on_c, 9, 69, 88
16, 15450, Note_on_c, 9, 69, 0
16, 15450, Note_on_c, 9, 69, 74
16, 15480, Note_on_c, 9, 69, 0
16, 15480, Note_on_c, 9, 69, 110
16, 15510, Note_on_c, 9, 69, 0
16, 15510, Note_on_c, 9, 69, 69
16, 15540, Note_on_c, 9, 69, 0
16, 15540, Note_on_c, 9, 69, 83
16, 15570, Note_on_c, 9, 69, 0
16, 15570, Note_on_c, 9, 69, 79
16, 15600, Note_on_c, 9, 69, 0
16, 15600, Note_on_c, 9, 69, 107
16, 15630, Note_on_c, 9, 69, 0
16, 15630, Note_on_c, 9, 69, 60
16, 15660, Note_on_c, 9, 69, 0
16, 15660, Note_on_c, 9, 69, 60
16, 15690, Note_on_c, 9, 69, 0
16, 15690, Note_on_c, 9, 69, 57
16, 15720, Note_on_c, 9, 69, 0
16, 15720, Note_on_c, 9, 69, 110
16, 15750, Note_on_c, 9, 69, 0
16, 15750, Note_on_c, 9, 69, 60
16, 15780, Note_on_c, 9, 69, 0
16, 15780, Note_on_c, 9, 69, 52
16, 15810, Note_on_c, 9, 69, 0
16, 15810, Note_on_c, 9, 69, 66
16, 15840, Note_on_c, 9, 69, 0
16, 15840, Note_on_c, 9, 69, 117
16, 15870, Note_on_c, 9, 69, 0
16, 15870, Note_on_c, 9, 69, 58
16, 15900, Note_on_c, 9, 69, 0
16, 15900, Note_on_c, 9, 69, 71
16, 15930, Note_on_c, 9, 69, 0
16, 15930, Note_on_c, 9, 69, 67
16, 15960, Note_on_c, 9, 69, 0
16, 15960, Note_on_c, 9, 69, 117
16, 15990, Note_on_c, 9, 69, 0
16, 15990, Note_on_c, 9, 69, 58
16, 16020, Note_on_c, 9, 69, 0
16, 16020, Note_on_c, 9, 69, 74
16, 16050, Note_on_c, 9, 69, 0
16, 16050, Note_on_c, 9, 69, 65
16, 16080, Note_on_c, 9, 69, 0
16, 16080, Note_on_c, 9, 69, 90
16, 16080, Note_on_c, 9, 69, 113
16, 16095, Note_on_c, 9, 69, 0
16, 16110, Note_on_c, 9, 69, 90
16, 16125, Note_on_c, 9, 69, 0
16, 16140, Note_on_c, 9, 69, 0
16, 16140, Note_on_c, 9, 69, 83
16, 16170, Note_on_c, 9, 69, 0
16, 16170, Note_on_c, 9, 69, 78
16, 16200, Note_on_c, 9, 69, 0
16, 16200, Note_on_c, 9, 69, 117
16, 16230, Note_on_c, 9, 69, 0
16, 16230, Note_on_c, 9, 69, 76
16, 16260, Note_on_c, 9, 69, 0
16, 16260, Note_on_c, 9, 69, 76
16, 16290, Note_on_c, 9, 69, 0
16, 16290, Note_on_c, 9, 69, 75
16, 16320, Note_on_c, 9, 69, 0
16, 16320, Note_on_c, 9, 69, 110
16, 16350, Note_on_c, 9, 69, 0
16, 16350, Note_on_c, 9, 69, 68
16, 16380, Note_on_c, 9, 69, 0
16, 16380, Note_on_c, 9, 69, 71
16, 16410, Note_on_c, 9, 69, 0
16, 16410, Note_on_c, 9, 69, 70
16, 16440, Note_on_c, 9, 69, 0
16, 16440, Note_on_c, 9, 69, 120
16, 16470, Note_on_c, 9, 69, 0
16, 16470, Note_on_c, 9, 69, 65
16, 16500, Note_on_c, 9, 69, 0
16, 16500, Note_on_c, 9, 69, 58
16, 16530, Note_on_c, 9, 69, 0
16, 16530, Note_on_c, 9, 69, 66
16, 16560, Note_on_c, 9, 69, 0
16, 16560, Note_on_c, 9, 69, 113
16, 16590, Note_on_c, 9, 69, 0
16, 16590, Note_on_c, 9, 69, 65
16, 16620, Note_on_c, 9, 69, 0
16, 16620, Note_on_c, 9, 69, 78
16, 16650, Note_on_c, 9, 69, 0
16, 16650, Note_on_c, 9, 69, 72
16, 16680, Note_on_c, 9, 69, 0
16, 16680, Note_on_c, 9, 69, 113
16, 16710, Note_on_c, 9, 69, 0
16, 16710, Note_on_c, 9, 69, 66
16, 16740, Note_on_c, 9, 69, 0
16, 16740, Note_on_c, 9, 69, 70
16, 16770, Note_on_c, 9, 69, 0
16, 16770, Note_on_c, 9, 69, 63
16, 16800, Note_on_c, 9, 69, 0
16, 16800, Note_on_c, 9, 69, 113
16, 16830, Note_on_c, 9, 69, 0
16, 16830, Note_on_c, 9, 69, 69
16, 16860, Note_on_c, 9, 69, 0
16, 16860, Note_on_c, 9, 69, 78
16, 16890, Note_on_c, 9, 69, 0
16, 16890, Note_on_c, 9, 69, 74
16, 16920, Note_on_c, 9, 69, 0
16, 16920, Note_on_c, 9, 69, 117
16, 16950, Note_on_c, 9, 69, 0
16, 16950, Note_on_c, 9, 69, 46
16, 16980, Note_on_c, 9, 69, 0
16, 16980, Note_on_c, 9, 69, 70
16, 17010, Note_on_c, 9, 69, 0
16, 17010, Note_on_c, 9, 69, 40
16, 17040, Note_on_c, 9, 69, 0
16, 17040, Note_on_c, 9, 69, 113
16, 17070, Note_on_c, 9, 69, 0
16, 17070, Note_on_c, 9, 69, 90
16, 17085, Note_on_c, 9, 69, 0
16, 17100, Note_on_c, 9, 69, 76
16, 17130, Note_on_c, 9, 69, 0
16, 17130, Note_on_c, 9, 69, 73
16, 17160, Note_on_c, 9, 69, 0
16, 17160, Note_on_c, 9, 69, 110
16, 17190, Note_on_c, 9, 69, 0
16, 17190, Note_on_c, 9, 69, 62
16, 17220, Note_on_c, 9, 69, 0
16, 17220, Note_on_c, 9, 69, 80
16, 17250, Note_on_c, 9, 69, 0
16, 17250, Note_on_c, 9, 69, 76
16, 17280, Note_on_c, 9, 69, 0
16, 17280, Note_on_c, 9, 69, 117
16, 17310, Note_on_c, 9, 69, 0
16, 17310, Note_on_c, 9, 69, 68
16, 17340, Note_on_c, 9, 69, 0
16, 17340, Note_on_c, 9, 69, 80
16, 17370, Note_on_c, 9, 69, 0
16, 17370, Note_on_c, 9, 69, 75
16, 17400, Note_on_c, 9, 69, 0
16, 17400, Note_on_c, 9, 69, 117
16, 17430, Note_on_c, 9, 69, 0
16, 17430, Note_on_c, 9, 69, 74
16, 17460, Note_on_c, 9, 69, 0
16, 17460, Note_on_c, 9, 69, 82
16, 17490, Note_on_c, 9, 69, 0
16, 17490, Note_on_c, 9, 69, 79
16, 17520, Note_on_c, 9, 69, 0
16, 17520, Note_on_c, 9, 69, 110
16, 17550, Note_on_c, 9, 69, 0
16, 17550, Note_on_c, 9, 69, 76
16, 17580, Note_on_c, 9, 69, 0
16, 17580, Note_on_c, 9, 69, 75
16, 17610, Note_on_c, 9, 69, 0
16, 17610, Note_on_c, 9, 69, 72
16, 17640, Note_on_c, 9, 69, 0
16, 17640, Note_on_c, 9, 69, 113
16, 17670, Note_on_c, 9, 69, 0
16, 17670, Note_on_c, 9, 69, 82
16, 17700, Note_on_c, 9, 69, 0
16, 17700, Note_on_c, 9, 69, 83
16, 17730, Note_on_c, 9, 69, 0
16, 17730, Note_on_c, 9, 69, 74
16, 17760, Note_on_c, 9, 69, 0
16, 17760, Note_on_c, 9, 69, 110
16, 17790, Note_on_c, 9, 69, 0
16, 17790, Note_on_c, 9, 69, 66
16, 17820, Note_on_c, 9, 69, 0
16, 17820, Note_on_c, 9, 69, 78
16, 17850, Note_on_c, 9, 69, 0
16, 17850, Note_on_c, 9, 69, 66
16, 17880, Note_on_c, 9, 69, 0
16, 17880, Note_on_c, 9, 69, 113
16, 17910, Note_on_c, 9, 69, 0
16, 17910, Note_on_c, 9, 69, 63
16, 17940, Note_on_c, 9, 69, 0
16, 17940, Note_on_c, 9, 69, 75
16, 17970, Note_on_c, 9, 69, 0
16, 17970, Note_on_c, 9, 69, 70
16, 18000, Note_on_c, 9, 69, 0
16, 18000, Note_on_c, 9, 69, 113
16, 18030, Note_on_c, 9, 69, 0
16, 18030, Note_on_c, 9, 69, 71
16, 18060, Note_on_c, 9, 69, 0
16, 18060, Note_on_c, 9, 69, 60
16, 18090, Note_on_c, 9, 69, 0
16, 18090, Note_on_c, 9, 69, 70
16, 18120, Note_on_c, 9, 69, 0
16, 18120, Note_on_c, 9, 69, 110
16, 18150, Note_on_c, 9, 69, 0
16, 18150, Note_on_c, 9, 69, 73
16, 18180, Note_on_c, 9, 69, 0
16, 18180, Note_on_c, 9, 69, 67
16, 18210, Note_on_c, 9, 69, 0
16, 18210, Note_on_c, 9, 69, 66
16, 18240, Note_on_c, 9, 69, 0
16, 18240, Note_on_c, 9, 69, 107
16, 18270, Note_on_c, 9, 69, 0
16, 18270, Note_on_c, 9, 69, 38
16, 18300, Note_on_c, 9, 69, 0
16, 18300, Note_on_c, 9, 69, 64
16, 18330, Note_on_c, 9, 69, 0
16, 18330, Note_on_c, 9, 69, 60
16, 18360, Note_on_c, 9, 69, 0
16, 18360, Note_on_c, 9, 69, 110
16, 18390, Note_on_c, 9, 69, 0
16, 18390, Note_on_c, 9, 69, 43
16, 18420, Note_on_c, 9, 69, 0
16, 18420, Note_on_c, 9, 69, 68
16, 18450, Note_on_c, 9, 69, 0
16, 18450, Note_on_c, 9, 69, 66
16, 18480, Note_on_c, 9, 69, 0
16, 18480, Note_on_c, 9, 69, 113
16, 18510, Note_on_c, 9, 69, 0
16, 18510, Note_on_c, 9, 69, 58
16, 18540, Note_on_c, 9, 69, 0
16, 18540, Note_on_c, 9, 69, 83
16, 18570, Note_on_c, 9, 69, 0
16, 18570, Note_on_c, 9, 69, 54
16, 18600, Note_on_c, 9, 69, 0
16, 18600, Note_on_c, 9, 69, 117
16, 18630, Note_on_c, 9, 69, 0
16, 18630, Note_on_c, 9, 69, 55
16, 18660, Note_on_c, 9, 69, 0
16, 18660, Note_on_c, 9, 69, 85
16, 18690, Note_on_c, 9, 69, 0
16, 18690, Note_on_c, 9, 69, 62
16, 18720, Note_on_c, 9, 69, 0
16, 18720, Note_on_c, 9, 69, 113
16, 18750, Note_on_c, 9, 69, 0
16, 18750, Note_on_c, 9, 69, 60
16, 18780, Note_on_c, 9, 69, 0
16, 18780, Note_on_c, 9, 69, 85
16, 18810, Note_on_c, 9, 69, 0
16, 18810, Note_on_c, 9, 69, 68
16, 18840, Note_on_c, 9, 69, 0
16, 18840, Note_on_c, 9, 69, 117
16, 18870, Note_on_c, 9, 69, 0
16, 18870, Note_on_c, 9, 69, 66
16, 18900, Note_on_c, 9, 69, 0
16, 18900, Note_on_c, 9, 69, 85
16, 18930, Note_on_c, 9, 69, 0
16, 18930, Note_on_c, 9, 69, 72
16, 18960, Note_on_c, 9, 69, 0
16, 18960, Note_on_c, 9, 69, 110
16, 18990, Note_on_c, 9, 69, 0
16, 18990, Note_on_c, 9, 69, 68
16, 19020, Note_on_c, 9, 69, 0
16, 19020, Note_on_c, 9, 69, 79
16, 19050, Note_on_c, 9, 69, 0
16, 19050, Note_on_c, 9, 69, 76
16, 19080, Note_on_c, 9, 69, 0
16, 19080, Note_on_c, 9, 69, 110
16, 19110, Note_on_c, 9, 69, 0
16, 19110, Note_on_c, 9, 69, 72
16, 19140, Note_on_c, 9, 69, 0
16, 19140, Note_on_c, 9, 69, 75
16, 19170, Note_on_c, 9, 69, 0
16, 19170, Note_on_c, 9, 69, 78
16, 19200, Note_on_c, 9, 69, 0
16, 19200, Note_on_c, 9, 69, 113
16, 19230, Note_on_c, 9, 69, 0
16, 19230, Note_on_c, 9, 69, 72
16, 19260, Note_on_c, 9, 69, 0
16, 19260, Note_on_c, 9, 69, 78
16, 19290, Note_on_c, 9, 69, 0
16, 19290, Note_on_c, 9, 69, 75
16, 19320, Note_on_c, 9, 69, 0
16, 19320, Note_on_c, 9, 69, 117
16, 19350, Note_on_c, 9, 69, 0
16, 19350, Note_on_c, 9, 69, 69
16, 19380, Note_on_c, 9, 69, 0
16, 19380, Note_on_c, 9, 69, 82
16, 19410, Note_on_c, 9, 69, 0
16, 19410, Note_on_c, 9, 69, 74
16, 19440, Note_on_c, 9, 69, 0
16, 19440, Note_on_c, 9, 69, 110
16, 19470, Note_on_c, 9, 69, 0
16, 19470, Note_on_c, 9, 69, 60
16, 19500, Note_on_c, 9, 69, 0
16, 19500, Note_on_c, 9, 69, 71
16, 19530, Note_on_c, 9, 69, 0
16, 19530, Note_on_c, 9, 69, 67
16, 19560, Note_on_c, 9, 69, 0
16, 19560, Note_on_c, 9, 69, 123
16, 19590, Note_on_c, 9, 69, 0
16, 19590, Note_on_c, 9, 69, 66
16, 19620, Note_on_c, 9, 69, 0
16, 19620, Note_on_c, 9, 69, 73
16, 19650, Note_on_c, 9, 69, 0
16, 19650, Note_on_c, 9, 69, 73
16, 19680, Note_on_c, 9, 69, 0
16, 19680, Note_on_c, 9, 69, 123
16, 19710, Note_on_c, 9, 69, 0
16, 19710, Note_on_c, 9, 69, 68
16, 19740, Note_on_c, 9, 69, 0
16, 19740, Note_on_c, 9, 69, 72
16, 19770, Note_on_c, 9, 69, 0
16, 19770, Note_on_c, 9, 69, 69
16, 19800, Note_on_c, 9, 69, 0
16, 19800, Note_on_c, 9, 69, 90
16, 19800, Note_on_c, 9, 69, 125
16, 19815, Note_on_c, 9, 69, 0
16, 19860, Note_on_c, 9, 69, 0
16, 19860, Note_on_c, 9, 69, 74
16, 19890, Note_on_c, 9, 69, 0
16, 19890, Note_on_c, 9, 69, 76
16, 19920, Note_on_c, 9, 69, 0
16, 19920, Note_on_c, 9, 69, 123
16, 19950, Note_on_c, 9, 69, 0
16, 19950, Note_on_c, 9, 69, 66
16, 19980, Note_on_c, 9, 69, 0
16, 19980, Note_on_c, 9, 69, 83
16, 20010, Note_on_c, 9, 69, 0
16, 20010, Note_on_c, 9, 69, 72
16, 20040, Note_on_c, 9, 69, 0
16, 20040, Note_on_c, 9, 69, 120
16, 20070, Note_on_c, 9, 69, 0
16, 20070, Note_on_c, 9, 69, 76
16, 20100, Note_on_c, 9, 69, 0
16, 20100, Note_on_c, 9, 69, 88
16, 20130, Note_on_c, 9, 69, 0
16, 20130, Note_on_c, 9, 69, 66
16, 20160, Note_on_c, 9, 69, 0
16, 20160, Note_on_c, 9, 69, 113
16, 20190, Note_on_c, 9, 69, 0
16, 20190, Note_on_c, 9, 69, 65
16, 20220, Note_on_c, 9, 69, 0
16, 20220, Note_on_c, 9, 69, 76
16, 20250, Note_on_c, 9, 69, 0
16, 20250, Note_on_c, 9, 69, 73
16, 20280, Note_on_c, 9, 69, 0
16, 20280, Note_on_c, 9, 69, 117
16, 20310, Note_on_c, 9, 69, 0
16, 20310, Note_on_c, 9, 69, 68
16, 20340, Note_on_c, 9, 69, 0
16, 20340, Note_on_c, 9, 69, 67
16, 20370, Note_on_c, 9, 69, 0
16, 20370, Note_on_c, 9, 69, 73
16, 20400, Note_on_c, 9, 69, 0
16, 20400, Note_on_c, 9, 69, 117
16, 20430, Note_on_c, 9, 69, 0
16, 20430, Note_on_c, 9, 69, 75
16, 20460, Note_on_c, 9, 69, 0
16, 20460, Note_on_c, 9, 69, 68
16, 20490, Note_on_c, 9, 69, 0
16, 20490, Note_on_c, 9, 69, 70
16, 20520, Note_on_c, 9, 69, 0
16, 20520, Note_on_c, 9, 69, 117
16, 20550, Note_on_c, 9, 69, 0
16, 20550, Note_on_c, 9, 69, 65
16, 20580, Note_on_c, 9, 69, 0
16, 20580, Note_on_c, 9, 69, 86
16, 20610, Note_on_c, 9, 69, 0
16, 20610, Note_on_c, 9, 69, 75
16, 20640, Note_on_c, 9, 69, 0
16, 20640, Note_on_c, 9, 69, 107
16, 20670, Note_on_c, 9, 69, 0
16, 20670, Note_on_c, 9, 69, 68
16, 20700, Note_on_c, 9, 69, 0
16, 20700, Note_on_c, 9, 69, 75
16, 20730, Note_on_c, 9, 69, 0
16, 20730, Note_on_c, 9, 69, 74
16, 20760, Note_on_c, 9, 69, 0
16, 20760, Note_on_c, 9, 69, 123
16, 20790, Note_on_c, 9, 69, 0
16, 20790, Note_on_c, 9, 69, 65
16, 20820, Note_on_c, 9, 69, 0
16, 20820, Note_on_c, 9, 69, 79
16, 20850, Note_on_c, 9, 69, 0
16, 20850, Note_on_c, 9, 69, 70
16, 20880, Note_on_c, 9, 69, 0
16, 20880, Note_on_c, 9, 69, 120
16, 20910, Note_on_c, 9, 69, 0
16, 20910, Note_on_c, 9, 69, 66
16, 20940, Note_on_c, 9, 69, 0
16, 20940, Note_on_c, 9, 69, 82
16, 20970, Note_on_c, 9, 69, 0
16, 20970, Note_on_c, 9, 69, 72
16, 21000, Note_on_c, 9, 69, 0
16, 21000, Note_on_c, 9, 69, 117
16, 21030, Note_on_c, 9, 69, 0
16, 21030, Note_on_c, 9, 69, 63
16, 21060, Note_on_c, 9, 69, 0
16, 21060, Note_on_c, 9, 69, 85
16, 21090, Note_on_c, 9, 69, 0
16, 21090, Note_on_c, 9, 69, 75
16, 21120, Note_on_c, 9, 69, 0
16, 21120, Note_on_c, 9, 69, 113
16, 21150, Note_on_c, 9, 69, 0
16, 21150, Note_on_c, 9, 69, 60
16, 21180, Note_on_c, 9, 69, 0
16, 21180, Note_on_c, 9, 69, 62
16, 21210, Note_on_c, 9, 69, 0
16, 21210, Note_on_c, 9, 69, 69
16, 21240, Note_on_c, 9, 69, 0
16, 21240, Note_on_c, 9, 69, 120
16, 21270, Note_on_c, 9, 69, 0
16, 21270, Note_on_c, 9, 69, 62
16, 21300, Note_on_c, 9, 69, 0
16, 21300, Note_on_c, 9, 69, 86
16, 21330, Note_on_c, 9, 69, 0
16, 21330, Note_on_c, 9, 69, 72
16, 21360, Note_on_c, 9, 69, 0
16, 21360, Note_on_c, 9, 69, 117
16, 21390, Note_on_c, 9, 69, 0
16, 21390, Note_on_c, 9, 69, 76
16, 21420, Note_on_c, 9, 69, 0
16, 21420, Note_on_c, 9, 69, 76
16, 21450, Note_on_c, 9, 69, 0
16, 21450, Note_on_c, 9, 69, 73
16, 21480, Note_on_c, 9, 69, 0
16, 21480, Note_on_c, 9, 69, 117
16, 21510, Note_on_c, 9, 69, 0
16, 21510, Note_on_c, 9, 69, 63
16, 21540, Note_on_c, 9, 69, 0
16, 21540, Note_on_c, 9, 69, 66
16, 21570, Note_on_c, 9, 69, 0
16, 21570, Note_on_c, 9, 69, 66
16, 21600, Note_on_c, 9, 69, 0
16, 21600, Note_on_c, 9, 69, 117
16, 21630, Note_on_c, 9, 69, 0
16, 21630, Note_on_c, 9, 69, 71
16, 21660, Note_on_c, 9, 69, 0
16, 21660, Note_on_c, 9, 69, 82
16, 21690, Note_on_c, 9, 69, 0
16, 21690, Note_on_c, 9, 69, 69
16, 21720, Note_on_c, 9, 69, 0
16, 21720, Note_on_c, 9, 69, 113
16, 21750, Note_on_c, 9, 69, 0
16, 21750, Note_on_c, 9, 69, 72
16, 21780, Note_on_c, 9, 69, 0
16, 21780, Note_on_c, 9, 69, 75
16, 21810, Note_on_c, 9, 69, 0
16, 21810, Note_on_c, 9, 69, 69
16, 21840, Note_on_c, 9, 69, 0
16, 21840, Note_on_c, 9, 69, 120
16, 21870, Note_on_c, 9, 69, 0
16, 21870, Note_on_c, 9, 69, 53
16, 21900, Note_on_c, 9, 69, 0
16, 21900, Note_on_c, 9, 69, 55
16, 21930, Note_on_c, 9, 69, 0
16, 21930, Note_on_c, 9, 69, 66
16, 21960, Note_on_c, 9, 69, 0
16, 21960, Note_on_c, 9, 69, 117
16, 21990, Note_on_c, 9, 69, 0
16, 21990, Note_on_c, 9, 69, 62
16, 22020, Note_on_c, 9, 69, 0
16, 22020, Note_on_c, 9, 69, 75
16, 22050, Note_on_c, 9, 69, 0
16, 22050, Note_on_c, 9, 69, 59
16, 22080, Note_on_c, 9, 69, 0
16, 22080, Note_on_c, 9, 69, 125
16, 22110, Note_on_c, 9, 69, 0
16, 22110, Note_on_c, 9, 69, 60
16, 22140, Note_on_c, 9, 69, 0
16, 22140, Note_on_c, 9, 69, 53
16, 22170, Note_on_c, 9, 69, 0
16, 22170, Note_on_c, 9, 69, 73
16, 22200, Note_on_c, 9, 69, 0
16, 22200, Note_on_c, 9, 69, 123
16, 22230, Note_on_c, 9, 69, 0
16, 22230, Note_on_c, 9, 69, 66
16, 22260, Note_on_c, 9, 69, 0
16, 22260, Note_on_c, 9, 69, 62
16, 22290, Note_on_c, 9, 69, 0
16, 22290, Note_on_c, 9, 69, 37
16, 22320, Note_on_c, 9, 69, 0
16, 22320, Note_on_c, 9, 69, 110
16, 22350, Note_on_c, 9, 69, 0
16, 22350, Note_on_c, 9, 69, 58
16, 22380, Note_on_c, 9, 69, 0
16, 22380, Note_on_c, 9, 69, 85
16, 22410, Note_on_c, 9, 69, 0
16, 22410, Note_on_c, 9, 69, 64
16, 22440, Note_on_c, 9, 69, 0
16, 22440, Note_on_c, 9, 69, 123
16, 22470, Note_on_c, 9, 69, 0
16, 22470, Note_on_c, 9, 69, 62
16, 22500, Note_on_c, 9, 69, 0
16, 22500, Note_on_c, 9, 69, 74
16, 22530, Note_on_c, 9, 69, 0
16, 22530, Note_on_c, 9, 69, 78
16, 22560, Note_on_c, 9, 69, 0
16, 22560, Note_on_c, 9, 69, 117
16, 22590, Note_on_c, 9, 69, 0
16, 22590, Note_on_c, 9, 69, 70
16, 22620, Note_on_c, 9, 69, 0
16, 22620, Note_on_c, 9, 69, 82
16, 22650, Note_on_c, 9, 69, 0
16, 22650, Note_on_c, 9, 69, 57
16, 22680, Note_on_c, 9, 69, 0
16, 22680, Note_on_c, 9, 69, 117
16, 22710, Note_on_c, 9, 69, 0
16, 22710, Note_on_c, 9, 69, 62
16, 22740, Note_on_c, 9, 69, 0
16, 22740, Note_on_c, 9, 69, 74
16, 22770, Note_on_c, 9, 69, 0
16, 22770, Note_on_c, 9, 69, 65
16, 22800, Note_on_c, 9, 69, 0
16, 22800, Note_on_c, 9, 69, 120
16, 22830, Note_on_c, 9, 69, 0
16, 22830, Note_on_c, 9, 69, 90
16, 22845, Note_on_c, 9, 69, 0
16, 22860, Note_on_c, 9, 69, 82
16, 22890, Note_on_c, 9, 69, 0
16, 22890, Note_on_c, 9, 69, 69
16, 22920, Note_on_c, 9, 69, 0
16, 22920, Note_on_c, 9, 69, 123
16, 22950, Note_on_c, 9, 69, 0
16, 22950, Note_on_c, 9, 69, 70
16, 22980, Note_on_c, 9, 69, 0
16, 22980, Note_on_c, 9, 69, 94
16, 23010, Note_on_c, 9, 69, 0
16, 23010, Note_on_c, 9, 69, 62
16, 23040, Note_on_c, 9, 69, 0
16, 23040, Note_on_c, 9, 69, 120
16, 23070, Note_on_c, 9, 69, 0
16, 23070, Note_on_c, 9, 69, 66
16, 23100, Note_on_c, 9, 69, 0
16, 23100, Note_on_c, 9, 69, 72
16, 23130, Note_on_c, 9, 69, 0
16, 23130, Note_on_c, 9, 69, 75
16, 23160, Note_on_c, 9, 69, 0
16, 23160, Note_on_c, 9, 69, 113
16, 23190, Note_on_c, 9, 69, 0
16, 23190, Note_on_c, 9, 69, 67
16, 23220, Note_on_c, 9, 69, 0
16, 23220, Note_on_c, 9, 69, 80
16, 23250, Note_on_c, 9, 69, 0
16, 23250, Note_on_c, 9, 69, 66
16, 23280, Note_on_c, 9, 69, 0
16, 23280, Note_on_c, 9, 69, 120
16, 23310, Note_on_c, 9, 69, 0
16, 23310, Note_on_c, 9, 69, 59
16, 23340, Note_on_c, 9, 69, 0
16, 23340, Note_on_c, 9, 69, 71
16, 23370, Note_on_c, 9, 69, 0
16, 23370, Note_on_c, 9, 69, 68
16, 23400, Note_on_c, 9, 69, 0
16, 23400, Note_on_c, 9, 69, 110
16, 23430, Note_on_c, 9, 69, 0
16, 23430, Note_on_c, 9, 69, 67
16, 23460, Note_on_c, 9, 69, 0
16, 23460, Note_on_c, 9, 69, 79
16, 23490, Note_on_c, 9, 69, 0
16, 23490, Note_on_c, 9, 69, 78
16, 23520, Note_on_c, 9, 69, 0
16, 23520, Note_on_c, 9, 69, 117
16, 23550, Note_on_c, 9, 69, 0
16, 23550, Note_on_c, 9, 69, 69
16, 23580, Note_on_c, 9, 69, 0
16, 23580, Note_on_c, 9, 69, 66
16, 23610, Note_on_c, 9, 69, 0
16, 23610, Note_on_c, 9, 69, 62
16, 23640, Note_on_c, 9, 69, 0
16, 23640, Note_on_c, 9, 69, 90
16, 23640, Note_on_c, 9, 69, 123
16, 23655, Note_on_c, 9, 69, 0
16, 23670, Note_on_c, 9, 69, 90
16, 23685, Note_on_c, 9, 69, 0
16, 23700, Note_on_c, 9, 69, 0
16, 23700, Note_on_c, 9, 69, 74
16, 23730, Note_on_c, 9, 69, 0
16, 23730, Note_on_c, 9, 69, 68
16, 23760, Note_on_c, 9, 69, 0
16, 23760, Note_on_c, 9, 69, 113
16, 23790, Note_on_c, 9, 69, 0
16, 23790, Note_on_c, 9, 69, 72
16, 23820, Note_on_c, 9, 69, 0
16, 23820, Note_on_c, 9, 69, 80
16, 23850, Note_on_c, 9, 69, 0
16, 23850, Note_on_c, 9, 69, 72
16, 23880, Note_on_c, 9, 69, 0
16, 23880, Note_on_c, 9, 69, 120
16, 23910, Note_on_c, 9, 69, 0
16, 23910, Note_on_c, 9, 69, 61
16, 23940, Note_on_c, 9, 69, 0
16, 23940, Note_on_c, 9, 69, 65
16, 23970, Note_on_c, 9, 69, 0
16, 23970, Note_on_c, 9, 69, 79
16, 24000, Note_on_c, 9, 69, 0
16, 24000, Note_on_c, 9, 69, 123
16, 24030, Note_on_c, 9, 69, 0
16, 24030, Note_on_c, 9, 69, 66
16, 24060, Note_on_c, 9, 69, 0
16, 24060, Note_on_c, 9, 69, 57
16, 24090, Note_on_c, 9, 69, 0
16, 24090, Note_on_c, 9, 69, 76
16, 24120, Note_on_c, 9, 69, 0
16, 24120, Note_on_c, 9, 69, 123
16, 24150, Note_on_c, 9, 69, 0
16, 24150, Note_on_c, 9, 69, 65
16, 24180, Note_on_c, 9, 69, 0
16, 24180, Note_on_c, 9, 69, 78
16, 24210, Note_on_c, 9, 69, 0
16, 24210, Note_on_c, 9, 69, 69
16, 24240, Note_on_c, 9, 69, 0
16, 24240, Note_on_c, 9, 69, 120
16, 24270, Note_on_c, 9, 69, 0
16, 24270, Note_on_c, 9, 69, 58
16, 24300, Note_on_c, 9, 69, 0
16, 24300, Note_on_c, 9, 69, 73
16, 24330, Note_on_c, 9, 69, 0
16, 24330, Note_on_c, 9, 69, 76
16, 24360, Note_on_c, 9, 69, 0
16, 24360, Note_on_c, 9, 69, 125
16, 24390, Note_on_c, 9, 69, 0
16, 24390, Note_on_c, 9, 69, 62
16, 24420, Note_on_c, 9, 69, 0
16, 24420, Note_on_c, 9, 69, 66
16, 24450, Note_on_c, 9, 69, 0
16, 24450, Note_on_c, 9, 69, 69
16, 24480, Note_on_c, 9, 69, 0
16, 24480, Note_on_c, 9, 69, 125
16, 24510, Note_on_c, 9, 69, 0
16, 24510, Note_on_c, 9, 69, 60
16, 24540, Note_on_c, 9, 69, 0
16, 24540, Note_on_c, 9, 69, 76
16, 24570, Note_on_c, 9, 69, 0
16, 24570, Note_on_c, 9, 69, 79
16, 24600, Note_on_c, 9, 69, 0
16, 24600, Note_on_c, 9, 69, 123
16, 24630, Note_on_c, 9, 69, 0
16, 24630, Note_on_c, 9, 69, 73
16, 24660, Note_on_c, 9, 69, 0
16, 24660, Note_on_c, 9, 69, 74
16, 24690, Note_on_c, 9, 69, 0
16, 24690, Note_on_c, 9, 69, 78
16, 24720, Note_on_c, 9, 69, 0
16, 24720, Note_on_c, 9, 69, 113
16, 24750, Note_on_c, 9, 69, 0
16, 24750, Note_on_c, 9, 69, 75
16, 24780, Note_on_c, 9, 69, 0
16, 24780, Note_on_c, 9, 69, 68
16, 24810, Note_on_c, 9, 69, 0
16, 24810, Note_on_c, 9, 69, 72
16, 24840, Note_on_c, 9, 69, 0
16, 24840, Note_on_c, 9, 69, 117
16, 24870, Note_on_c, 9, 69, 0
16, 24870, Note_on_c, 9, 69, 62
16, 24900, Note_on_c, 9, 69, 0
16, 24900, Note_on_c, 9, 69, 79
16, 24930, Note_on_c, 9, 69, 0
16, 24930, Note_on_c, 9, 69, 80
16, 24960, Note_on_c, 9, 69, 0
16, 24960, Note_on_c, 9, 69, 120
16, 24990, Note_on_c, 9, 69, 0
16, 24990, Note_on_c, 9, 69, 65
16, 25020, Note_on_c, 9, 69, 0
16, 25020, Note_on_c, 9, 69, 62
16, 25050, Note_on_c, 9, 69, 0
16, 25050, Note_on_c, 9, 69, 63
16, 25080, Note_on_c, 9, 69, 0
16, 25080, Note_on_c, 9, 69, 123
16, 25110, Note_on_c, 9, 69, 0
16, 25110, Note_on_c, 9, 69, 62
16, 25140, Note_on_c, 9, 69, 0
16, 25140, Note_on_c, 9, 69, 64
16, 25170, Note_on_c, 9, 69, 0
16, 25170, Note_on_c, 9, 69, 57
16, 25200, Note_on_c, 9, 69, 0
16, 25200, Note_on_c, 9, 69, 123
16, 25230, Note_on_c, 9, 69, 0
16, 25230, Note_on_c, 9, 69, 64
16, 25260, Note_on_c, 9, 69, 0
16, 25260, Note_on_c, 9, 69, 67
16, 25290, Note_on_c, 9, 69, 0
16, 25290, Note_on_c, 9, 69, 67
16, 25320, Note_on_c, 9, 69, 0
16, 25320, Note_on_c, 9, 69, 125
16, 25350, Note_on_c, 9, 69, 0
16, 25350, Note_on_c, 9, 69, 71
16, 25380, Note_on_c, 9, 69, 0
16, 25380, Note_on_c, 9, 69, 75
16, 25410, Note_on_c, 9, 69, 0
16, 25410, Note_on_c, 9, 69, 62
16, 25440, Note_on_c, 9, 69, 0
16, 25440, Note_on_c, 9, 69, 123
16, 25470, Note_on_c, 9, 69, 0
16, 25470, Note_on_c, 9, 69, 70
16, 25500, Note_on_c, 9, 69, 0
16, 25500, Note_on_c, 9, 69, 79
16, 25530, Note_on_c, 9, 69, 0
16, 25530, Note_on_c, 9, 69, 74
16, 25560, Note_on_c, 9, 69, 0
16, 25560, Note_on_c, 9, 69, 117
16, 25590, Note_on_c, 9, 69, 0
16, 25590, Note_on_c, 9, 69, 64
16, 25620, Note_on_c, 9, 69, 0
16, 25620, Note_on_c, 9, 69, 88
16, 25650, Note_on_c, 9, 69, 0
16, 25650, Note_on_c, 9, 69, 71
16, 25680, Note_on_c, 9, 69, 0
16, 25680, Note_on_c, 9, 69, 125
16, 25710, Note_on_c, 9, 69, 0
16, 25710, Note_on_c, 9, 69, 66
16, 25740, Note_on_c, 9, 69, 0
16, 25740, Note_on_c, 9, 69, 85
16, 25770, Note_on_c, 9, 69, 0
16, 25770, Note_on_c, 9, 69, 72
16, 25800, Note_on_c, 9, 69, 0
16, 25800, Note_on_c, 9, 69, 123
16, 25830, Note_on_c, 9, 69, 0
16, 25830, Note_on_c, 9, 69, 54
16, 25860, Note_on_c, 9, 69, 0
16, 25860, Note_on_c, 9, 69, 90
16, 25890, Note_on_c, 9, 69, 0
16, 25890, Note_on_c, 9, 69, 90
16, 25920, Note_on_c, 9, 69, 0
16, 25920, Note_on_c, 9, 69, 120
16, 25950, Note_on_c, 9, 69, 0
16, 25950, Note_on_c, 9, 69, 59
16, 25980, Note_on_c, 9, 69, 0
16, 25980, Note_on_c, 9, 69, 80
16, 26010, Note_on_c, 9, 69, 0
16, 26010, Note_on_c, 9, 69, 72
16, 26040, Note_on_c, 9, 69, 0
16, 26040, Note_on_c, 9, 69, 125
16, 26070, Note_on_c, 9, 69, 0
16, 26070, Note_on_c, 9, 69, 72
16, 26100, Note_on_c, 9, 69, 0
16, 26100, Note_on_c, 9, 69, 74
16, 26130, Note_on_c, 9, 69, 0
16, 26130, Note_on_c, 9, 69, 80
16, 26160, Note_on_c, 9, 69, 0
16, 26160, Note_on_c, 9, 69, 125
16, 26190, Note_on_c, 9, 69, 0
16, 26190, Note_on_c, 9, 69, 74
16, 26220, Note_on_c, 9, 69, 0
16, 26220, Note_on_c, 9, 69, 78
16, 26250, Note_on_c, 9, 69, 0
16, 26250, Note_on_c, 9, 69, 79
16, 26280, Note_on_c, 9, 69, 0
16, 26280, Note_on_c, 9, 69, 123
16, 26310, Note_on_c, 9, 69, 0
16, 26310, Note_on_c, 9, 69, 80
16, 26340, Note_on_c, 9, 69, 0
16, 26340, Note_on_c, 9, 69, 90
16, 26370, Note_on_c, 9, 69, 0
16, 26370, Note_on_c, 9, 69, 80
16, 26400, Note_on_c, 9, 69, 0
16, 26400, Note_on_c, 9, 69, 120
16, 26430, Note_on_c, 9, 69, 0
16, 26430, Note_on_c, 9, 69, 74
16, 26460, Note_on_c, 9, 69, 0
16, 26460, Note_on_c, 9, 69, 62
16, 26490, Note_on_c, 9, 69, 0
16, 26490, Note_on_c, 9, 69, 83
16, 26520, Note_on_c, 9, 69, 0
16, 26520, Note_on_c, 9, 69, 120
16, 26550, Note_on_c, 9, 69, 0
16, 26550, Note_on_c, 9, 69, 75
16, 26580, Note_on_c, 9, 69, 0
16, 26580, Note_on_c, 9, 69, 90
16, 26610, Note_on_c, 9, 69, 0
16, 26610, Note_on_c, 9, 69, 90
16, 26640, Note_on_c, 9, 69, 0
16, 26640, Note_on_c, 9, 69, 62
16, 26670, Note_on_c, 9, 69, 0
16, 26670, Note_on_c, 9, 69, 90
16, 26700, Note_on_c, 9, 69, 0
16, 26700, Note_on_c, 9, 69, 97
16, 26730, Note_on_c, 9, 69, 0
16, 26730, Note_on_c, 9, 69, 82
16, 26760, Note_on_c, 9, 69, 0
16, 26760, Note_on_c, 9, 69, 113
16, 26790, Note_on_c, 9, 69, 0
16, 26790, Note_on_c, 9, 69, 79
16, 26820, Note_on_c, 9, 69, 0
16, 26820, Note_on_c, 9, 69, 94
16, 26850, Note_on_c, 9, 69, 0
16, 26850, Note_on_c, 9, 69, 83
16, 26880, Note_on_c, 9, 69, 0
16, 26880, Note_on_c, 9, 69, 113
16, 26910, Note_on_c, 9, 69, 0
16, 26910, Note_on_c, 9, 69, 66
16, 26940, Note_on_c, 9, 69, 0
16, 26940, Note_on_c, 9, 69, 62
16, 26970, Note_on_c, 9, 69, 0
16, 26970, Note_on_c, 9, 69, 83
16, 27000, Note_on_c, 9, 69, 0
16, 27000, Note_on_c, 9, 69, 120
16, 27030, Note_on_c, 9, 69, 0
16, 27030, Note_on_c, 9, 69, 76
16, 27060, Note_on_c, 9, 69, 0
16, 27060, Note_on_c, 9, 69, 88
16, 27090, Note_on_c, 9, 69, 0
16, 27090, Note_on_c, 9, 69, 88
16, 27120, Note_on_c, 9, 69, 0
16, 27120, Note_on_c, 9, 69, 123
16, 27150, Note_on_c, 9, 69, 0
16, 27150, Note_on_c, 9, 69, 74
16, 27180, Note_on_c, 9, 69, 0
16, 27180, Note_on_c, 9, 69, 71
16, 27210, Note_on_c, 9, 69, 0
16, 27210, Note_on_c, 9, 69, 78
16, 27240, Note_on_c, 9, 69, 0
16, 27240, Note_on_c, 9, 69, 120
16, 27270, Note_on_c, 9, 69, 0
16, 27270, Note_on_c, 9, 69, 72
16, 27300, Note_on_c, 9, 69, 0
16, 27300, Note_on_c, 9, 69, 94
16, 27330, Note_on_c, 9, 69, 0
16, 27330, Note_on_c, 9, 69, 75
16, 27360, Note_on_c, 9, 69, 0
16, 27360, Note_on_c, 9, 69, 120
16, 27390, Note_on_c, 9, 69, 0
16, 27390, Note_on_c, 9, 69, 75
16, 27420, Note_on_c, 9, 69, 0
16, 27420, Note_on_c, 9, 69, 90
16, 27450, Note_on_c, 9, 69, 0
16, 27450, Note_on_c, 9, 69, 80
16, 27480, Note_on_c, 9, 69, 0
16, 27480, Note_on_c, 9, 69, 113
16, 27510, Note_on_c, 9, 69, 0
16, 27510, Note_on_c, 9, 69, 73
16, 27540, Note_on_c, 9, 69, 0
16, 27540, Note_on_c, 9, 69, 79
16, 27570, Note_on_c, 9, 69, 0
16, 27570, Note_on_c, 9, 69, 85
16, 27600, Note_on_c, 9, 69, 0
16, 27600, Note_on_c, 9, 69, 117
16, 27630, Note_on_c, 9, 69, 0
16, 27630, Note_on_c, 9, 69, 64
16, 27660, Note_on_c, 9, 69, 0
16, 27660, Note_on_c, 9, 69, 62
16, 27690, Note_on_c, 9, 69, 0
16, 27690, Note_on_c, 9, 69, 83
16, 27720, Note_on_c, 9, 69, 0
16, 27720, Note_on_c, 9, 69, 117
16, 27750, Note_on_c, 9, 69, 0
16, 27750, Note_on_c, 9, 69, 78
16, 27780, Note_on_c, 9, 69, 0
16, 27780, Note_on_c, 9, 69, 83
16, 27810, Note_on_c, 9, 69, 0
16, 27810, Note_on_c, 9, 69, 80
16, 27840, Note_on_c, 9, 69, 0
16, 27840, Note_on_c, 9, 69, 120
16, 27870, Note_on_c, 9, 69, 0
16, 27870, Note_on_c, 9, 69, 69
16, 27900, Note_on_c, 9, 69, 0
16, 27900, Note_on_c, 9, 69, 78
16, 27930, Note_on_c, 9, 69, 0
16, 27930, Note_on_c, 9, 69, 86
16, 27960, Note_on_c, 9, 69, 0
16, 27960, Note_on_c, 9, 69, 117
16, 27990, Note_on_c, 9, 69, 0
16, 27990, Note_on_c, 9, 69, 69
16, 28020, Note_on_c, 9, 69, 0
16, 28020, Note_on_c, 9, 69, 86
16, 28050, Note_on_c, 9, 69, 0
16, 28050, Note_on_c, 9, 69, 85
16, 28080, Note_on_c, 9, 69, 0
16, 28080, Note_on_c, 9, 69, 120
16, 28110, Note_on_c, 9, 69, 0
16, 28110, Note_on_c, 9, 69, 74
16, 28140, Note_on_c, 9, 69, 0
16, 28140, Note_on_c, 9, 69, 79
16, 28170, Note_on_c, 9, 69, 0
16, 28170, Note_on_c, 9, 69, 83
16, 28200, Note_on_c, 9, 69, 0
16, 28200, Note_on_c, 9, 69, 117
16, 28230, Note_on_c, 9, 69, 0
16, 28230, Note_on_c, 9, 69, 71
16, 28260, Note_on_c, 9, 69, 0
16, 28260, Note_on_c, 9, 69, 76
16, 28290, Note_on_c, 9, 69, 0
16, 28290, Note_on_c, 9, 69, 79
16, 28320, Note_on_c, 9, 69, 0
16, 28320, Note_on_c, 9, 69, 110
16, 28350, Note_on_c, 9, 69, 0
16, 28350, Note_on_c, 9, 69, 57
16, 28380, Note_on_c, 9, 69, 0
16, 28380, Note_on_c, 9, 69, 76
16, 28410, Note_on_c, 9, 69, 0
16, 28410, Note_on_c, 9, 69, 80
16, 28440, Note_on_c, 9, 69, 0
16, 28440, Note_on_c, 9, 69, 123
16, 28470, Note_on_c, 9, 69, 0
16, 28470, Note_on_c, 9, 69, 40
16, 28500, Note_on_c, 9, 69, 0
16, 28500, Note_on_c, 9, 69, 80
16, 28530, Note_on_c, 9, 69, 0
16, 28530, Note_on_c, 9, 69, 79
16, 28560, Note_on_c, 9, 69, 0
16, 28560, Note_on_c, 9, 69, 120
16, 28590, Note_on_c, 9, 69, 0
16, 28590, Note_on_c, 9, 69, 66
16, 28620, Note_on_c, 9, 69, 0
16, 28620, Note_on_c, 9, 69, 97
16, 28650, Note_on_c, 9, 69, 0
16, 28650, Note_on_c, 9, 69, 78
16, 28680, Note_on_c, 9, 69, 0
16, 28680, Note_on_c, 9, 69, 120
16, 28710, Note_on_c, 9, 69, 0
16, 28710, Note_on_c, 9, 69, 58
16, 28740, Note_on_c, 9, 69, 0
16, 28740, Note_on_c, 9, 69, 86
16, 28770, Note_on_c, 9, 69, 0
16, 28770, Note_on_c, 9, 69, 80
16, 28800, Note_on_c, 9, 69, 0
16, 28800, Note_on_c, 9, 69, 117
16, 28830, Note_on_c, 9, 69, 0
16, 28830, Note_on_c, 9, 69, 76
16, 28860, Note_on_c, 9, 69, 0
16, 28860, Note_on_c, 9, 69, 99
16, 28890, Note_on_c, 9, 69, 0
16, 28890, Note_on_c, 9, 69, 85
16, 28920, Note_on_c, 9, 69, 0
16, 28920, Note_on_c, 9, 69, 113
16, 28950, Note_on_c, 9, 69, 0
16, 28950, Note_on_c, 9, 69, 83
16, 28980, Note_on_c, 9, 69, 0
16, 28980, Note_on_c, 9, 69, 92
16, 29010, Note_on_c, 9, 69, 0
16, 29010, Note_on_c, 9, 69, 83
16, 29040, Note_on_c, 9, 69, 0
16, 29040, Note_on_c, 9, 69, 117
16, 29070, Note_on_c, 9, 69, 0
16, 29070, Note_on_c, 9, 69, 75
16, 29100, Note_on_c, 9, 69, 0
16, 29100, Note_on_c, 9, 69, 79
16, 29130, Note_on_c, 9, 69, 0
16, 29130, Note_on_c, 9, 69, 83
16, 29160, Note_on_c, 9, 69, 0
16, 29160, Note_on_c, 9, 69, 120
16, 29190, Note_on_c, 9, 69, 0
16, 29190, Note_on_c, 9, 69, 69
16, 29220, Note_on_c, 9, 69, 0
16, 29220, Note_on_c, 9, 69, 71
16, 29250, Note_on_c, 9, 69, 0
16, 29250, Note_on_c, 9, 69, 74
16, 29280, Note_on_c, 9, 69, 0
16, 29280, Note_on_c, 9, 69, 125
16, 29310, Note_on_c, 9, 69, 0
16, 29310, Note_on_c, 9, 69, 90
16, 29340, Note_on_c, 9, 69, 0
16, 29340, Note_on_c, 9, 69, 83
16, 29370, Note_on_c, 9, 69, 0
16, 29370, Note_on_c, 9, 69, 80
16, 29400, Note_on_c, 9, 69, 0
16, 29400, Note_on_c, 9, 69, 123
16, 29430, Note_on_c, 9, 69, 0
16, 29430, Note_on_c, 9, 69, 73
16, 29460, Note_on_c, 9, 69, 0
16, 29460, Note_on_c, 9, 69, 92
16, 29490, Note_on_c, 9, 69, 0
16, 29490, Note_on_c, 9, 69, 85
16, 29520, Note_on_c, 9, 69, 0
16, 29520, Note_on_c, 9, 69, 125
16, 29550, Note_on_c, 9, 69, 0
16, 29550, Note_on_c, 9, 69, 75
16, 29580, Note_on_c, 9, 69, 0
16, 29580, Note_on_c, 9, 69, 97
16, 29610, Note_on_c, 9, 69, 0
16, 29610, Note_on_c, 9, 69, 74
16, 29640, Note_on_c, 9, 69, 0
16, 29640, Note_on_c, 9, 69, 123
16, 29670, Note_on_c, 9, 69, 0
16, 29670, Note_on_c, 9, 69, 66
16, 29700, Note_on_c, 9, 69, 0
16, 29700, Note_on_c, 9, 69, 82
16, 29730, Note_on_c, 9, 69, 0
16, 29730, Note_on_c, 9, 69, 74
16, 29760, Note_on_c, 9, 69, 0
16, 29760, Note_on_c, 9, 69, 125
16, 29790, Note_on_c, 9, 69, 0
16, 29790, Note_on_c, 9, 69, 66
16, 29820, Note_on_c, 9, 69, 0
16, 29820, Note_on_c, 9, 69, 88
16, 29850, Note_on_c, 9, 69, 0
16, 29850, Note_on_c, 9, 69, 83
16, 29880, Note_on_c, 9, 69, 0
16, 29880, Note_on_c, 9, 69, 125
16, 29910, Note_on_c, 9, 69, 0
16, 29910, Note_on_c, 9, 69, 86
16, 29940, Note_on_c, 9, 69, 0
16, 29940, Note_on_c, 9, 69, 90
16, 29970, Note_on_c, 9, 69, 0
16, 29970, Note_on_c, 9, 69, 90
16, 30000, Note_on_c, 9, 69, 0
16, 30000, Note_on_c, 9, 69, 123
16, 30030, Note_on_c, 9, 69, 0
16, 30030, Note_on_c, 9, 69, 74
16, 30060, Note_on_c, 9, 69, 0
16, 30060, Note_on_c, 9, 69, 104
16, 30090, Note_on_c, 9, 69, 0
16, 30090, Note_on_c, 9, 69, 86
16, 30120, Note_on_c, 9, 69, 0
16, 30120, Note_on_c, 9, 69, 120
16, 30150, Note_on_c, 9, 69, 0
16, 30150, Note_on_c, 9, 69, 82
16, 30180, Note_on_c, 9, 69, 0
16, 30180, Note_on_c, 9, 69, 110
16, 30210, Note_on_c, 9, 69, 0
16, 30210, Note_on_c, 9, 69, 88
16, 30240, Note_on_c, 9, 69, 0
16, 30240, Note_on_c, 9, 69, 125
16, 30270, Note_on_c, 9, 69, 0
16, 30480, Note_on_c, 9, 69, 123
16, 30510, Note_on_c, 9, 69, 0
16, 30510, Note_on_c, 9, 69, 62
16, 30540, Note_on_c, 9, 69, 0
16, 30540, Note_on_c, 9, 69, 60
16, 30570, Note_on_c, 9, 69, 0
16, 30570, Note_on_c, 9, 69, 90
16, 30600, Note_on_c, 9, 69, 0
16, 30600, Note_on_c, 9, 69, 125
16, 30630, Note_on_c, 9, 69, 0
16, 30630, Note_on_c, 9, 69, 60
16, 30660, Note_on_c, 9, 69, 0
16, 30660, Note_on_c, 9, 69, 99
16, 30690, Note_on_c, 9, 69, 0
16, 30690, Note_on_c, 9, 69, 73
16, 30720, Note_on_c, 9, 69, 0
16, 30720, Note_on_c, 9, 69, 120
16, 30750, Note_on_c, 9, 69, 0
16, 30750, Note_on_c, 9, 69, 73
16, 30780, Note_on_c, 9, 69, 0
16, 30780, Note_on_c, 9, 69, 97
16, 30810, Note_on_c, 9, 69, 0
16, 30810, Note_on_c, 9, 69, 72
16, 30840, Note_on_c, 9, 69, 0
16, 30840, Note_on_c, 9, 69, 125
16, 30870, Note_on_c, 9, 69, 0
16, 30870, Note_on_c, 9, 69, 66
16, 30900, Note_on_c, 9, 69, 0
16, 30900, Note_on_c, 9, 69, 88
16, 30930, Note_on_c, 9, 69, 0
16, 30930, Note_on_c, 9, 69, 72
16, 30960, Note_on_c, 9, 69, 0
16, 30960, Note_on_c, 9, 69, 123
16, 30990, Note_on_c, 9, 69, 0
16, 30990, Note_on_c, 9, 69, 74
16, 31020, Note_on_c, 9, 69, 0
16, 31020, Note_on_c, 9, 69, 97
16, 31050, Note_on_c, 9, 69, 0
16, 31050, Note_on_c, 9, 69, 71
16, 31080, Note_on_c, 9, 69, 0
16, 31080, Note_on_c, 9, 69, 123
16, 31110, Note_on_c, 9, 69, 0
16, 31110, Note_on_c, 9, 69, 66
16, 31140, Note_on_c, 9, 69, 0
16, 31140, Note_on_c, 9, 69, 88
16, 31170, Note_on_c, 9, 69, 0
16, 31170, Note_on_c, 9, 69, 73
16, 31200, Note_on_c, 9, 69, 0
16, 31200, Note_on_c, 9, 69, 123
16, 31230, Note_on_c, 9, 69, 0
16, 31230, Note_on_c, 9, 69, 67
16, 31260, Note_on_c, 9, 69, 0
16, 31260, Note_on_c, 9, 69, 85
16, 31290, Note_on_c, 9, 69, 0
16, 31290, Note_on_c, 9, 69, 62
16, 31320, Note_on_c, 9, 69, 0
16, 31320, Note_on_c, 9, 69, 123
16, 31350, Note_on_c, 9, 69, 0
16, 31350, Note_on_c, 9, 69, 90
16, 31380, Note_on_c, 9, 69, 0
16, 31380, Note_on_c, 9, 69, 90
16, 31410, Note_on_c, 9, 69, 0
16, 31410, Note_on_c, 9, 69, 66
16, 31440, Note_on_c, 9, 69, 0
16, 31440, Note_on_c, 9, 69, 120
16, 31470, Note_on_c, 9, 69, 0
16, 31470, Note_on_c, 9, 69, 67
16, 31500, Note_on_c, 9, 69, 0
16, 31500, Note_on_c, 9, 69, 83
16, 31530, Note_on_c, 9, 69, 0
16, 31530, Note_on_c, 9, 69, 79
16, 31560, Note_on_c, 9, 69, 0
16, 31560, Note_on_c, 9, 69, 123
16, 31590, Note_on_c, 9, 69, 0
16, 31590, Note_on_c, 9, 69, 79
16, 31620, Note_on_c, 9, 69, 0
16, 31620, Note_on_c, 9, 69, 97
16, 31650, Note_on_c, 9, 69, 0
16, 31650, Note_on_c, 9, 69, 80
16, 31680, Note_on_c, 9, 69, 0
16, 31680, Note_on_c, 9, 69, 123
16, 31710, Note_on_c, 9, 69, 0
16, 31710, Note_on_c, 9, 69, 68
16, 31740, Note_on_c, 9, 69, 0
16, 31740, Note_on_c, 9, 69, 78
16, 31770, Note_on_c, 9, 69, 0
16, 31770, Note_on_c, 9, 69, 82
16, 31800, Note_on_c, 9, 69, 0
16, 31800, Note_on_c, 9, 69, 120
16, 31830, Note_on_c, 9, 69, 0
16, 31830, Note_on_c, 9, 69, 71
16, 31860, Note_on_c, 9, 69, 0
16, 31860, Note_on_c, 9, 69, 101
16, 31890, Note_on_c, 9, 69, 0
16, 31890, Note_on_c, 9, 69, 75
16, 31920, Note_on_c, 9, 69, 0
16, 31920, Note_on_c, 9, 69, 113
16, 31950, Note_on_c, 9, 69, 0
16, 31950, Note_on_c, 9, 69, 76
16, 31980, Note_on_c, 9, 69, 0
16, 31980, Note_on_c, 9, 69, 101
16, 32010, Note_on_c, 9, 69, 0
16, 32010, Note_on_c, 9, 69, 76
16, 32040, Note_on_c, 9, 69, 0
16, 32040, Note_on_c, 9, 69, 125
16, 32070, Note_on_c, 9, 69, 0
16, 32070, Note_on_c, 9, 69, 70
16, 32100, Note_on_c, 9, 69, 0
16, 32100, Note_on_c, 9, 69, 83
16, 32130, Note_on_c, 9, 69, 0
16, 32130, Note_on_c, 9, 69, 78
16, 32160, Note_on_c, 9, 69, 0
16, 32160, Note_on_c, 9, 69, 123
16, 32190, Note_on_c, 9, 69, 0
16, 32190, Note_on_c, 9, 69, 67
16, 32220, Note_on_c, 9, 69, 0
16, 32220, Note_on_c, 9, 69, 90
16, 32250, Note_on_c, 9, 69, 0
16, 32250, Note_on_c, 9, 69, 73
16, 32280, Note_on_c, 9, 69, 0
16, 32280, Note_on_c, 9, 69, 120
16, 32310, Note_on_c, 9, 69, 0
16, 32310, Note_on_c, 9, 69, 68
16, 32340, Note_on_c, 9, 69, 0
16, 32340, Note_on_c, 9, 69, 90
16, 32370, Note_on_c, 9, 69, 0
16, 32370, Note_on_c, 9, 69, 74
16, 32400, Note_on_c, 9, 69, 0
16, 32400, Note_on_c, 9, 69, 120
16, 32430, Note_on_c, 9, 69, 0
16, 32430, Note_on_c, 9, 69, 64
16, 32460, Note_on_c, 9, 69, 0
16, 32460, Note_on_c, 9, 69, 83
16, 32490, Note_on_c, 9, 69, 0
16, 32490, Note_on_c, 9, 69, 65
16, 32520, Note_on_c, 9, 69, 0
16, 32520, Note_on_c, 9, 69, 123
16, 32550, Note_on_c, 9, 69, 0
16, 32550, Note_on_c, 9, 69, 73
16, 32580, Note_on_c, 9, 69, 0
16, 32580, Note_on_c, 9, 69, 73
16, 32610, Note_on_c, 9, 69, 0
16, 32610, Note_on_c, 9, 69, 69
16, 32640, Note_on_c, 9, 69, 0
16, 32640, Note_on_c, 9, 69, 123
16, 32670, Note_on_c, 9, 69, 0
16, 32670, Note_on_c, 9, 69, 66
16, 32700, Note_on_c, 9, 69, 0
16, 32700, Note_on_c, 9, 69, 79
16, 32730, Note_on_c, 9, 69, 0
16, 32730, Note_on_c, 9, 69, 62
16, 32760, Note_on_c, 9, 69, 0
16, 32760, Note_on_c, 9, 69, 120
16, 32790, Note_on_c, 9, 69, 0
16, 32790, Note_on_c, 9, 69, 66
16, 32820, Note_on_c, 9, 69, 0
16, 32820, Note_on_c, 9, 69, 85
16, 32850, Note_on_c, 9, 69, 0
16, 32850, Note_on_c, 9, 69, 71
16, 32880, Note_on_c, 9, 69, 0
16, 32880, Note_on_c, 9, 69, 117
16, 32910, Note_on_c, 9, 69, 0
16, 32910, Note_on_c, 9, 69, 57
16, 32940, Note_on_c, 9, 69, 0
16, 32940, Note_on_c, 9, 69, 70
16, 32970, Note_on_c, 9, 69, 0
16, 32970, Note_on_c, 9, 69, 54
16, 33000, Note_on_c, 9, 69, 0
16, 33000, Note_on_c, 9, 69, 125
16, 33030, Note_on_c, 9, 69, 0
16, 33030, Note_on_c, 9, 69, 55
16, 33060, Note_on_c, 9, 69, 0
16, 33060, Note_on_c, 9, 69, 83
16, 33090, Note_on_c, 9, 69, 0
16, 33090, Note_on_c, 9, 69, 60
16, 33120, Note_on_c, 9, 69, 0
16, 33120, Note_on_c, 9, 69, 117
16, 33150, Note_on_c, 9, 69, 0
16, 33150, Note_on_c, 9, 69, 61
16, 33180, Note_on_c, 9, 69, 0
16, 33180, Note_on_c, 9, 69, 90
16, 33210, Note_on_c, 9, 69, 0
16, 33210, Note_on_c, 9, 69, 65
16, 33240, Note_on_c, 9, 69, 0
16, 33240, Note_on_c, 9, 69, 117
16, 33270, Note_on_c, 9, 69, 0
16, 33270, Note_on_c, 9, 69, 50
16, 33300, Note_on_c, 9, 69, 0
16, 33300, Note_on_c, 9, 69, 94
16, 33330, Note_on_c, 9, 69, 0
16, 33330, Note_on_c, 9, 69, 62
16, 33360, Note_on_c, 9, 69, 0
16, 33360, Note_on_c, 9, 69, 117
16, 33390, Note_on_c, 9, 69, 0
16, 33420, Note_on_c, 9, 69, 78
16, 33450, Note_on_c, 9, 69, 0
16, 33450, Note_on_c, 9, 69, 68
16, 33480, Note_on_c, 9, 69, 0
16, 33480, Note_on_c, 9, 69, 113
16, 33510, Note_on_c, 9, 69, 0
16, 33510, Note_on_c, 9, 69, 57
16, 33540, Note_on_c, 9, 69, 0
16, 33540, Note_on_c, 9, 69, 90
16, 33570, Note_on_c, 9, 69, 0
16, 33570, Note_on_c, 9, 69, 70
16, 33600, Note_on_c, 9, 69, 0
16, 33600, Note_on_c, 9, 69, 120
16, 33630, Note_on_c, 9, 69, 0
16, 33630, Note_on_c, 9, 69, 56
16, 33660, Note_on_c, 9, 69, 0
16, 33660, Note_on_c, 9, 69, 97
16, 33690, Note_on_c, 9, 69, 0
16, 33690, Note_on_c, 9, 69, 78
16, 33720, Note_on_c, 9, 69, 0
16, 33720, Note_on_c, 9, 69, 120
16, 33750, Note_on_c, 9, 69, 0
16, 33750, Note_on_c, 9, 69, 73
16, 33780, Note_on_c, 9, 69, 0
16, 33780, Note_on_c, 9, 69, 86
16, 33810, Note_on_c, 9, 69, 0
16, 33810, Note_on_c, 9, 69, 57
16, 33840, Note_on_c, 9, 69, 0
16, 33840, Note_on_c, 9, 69, 123
16, 33870, Note_on_c, 9, 69, 0
16, 33870, Note_on_c, 9, 69, 68
16, 33900, Note_on_c, 9, 69, 0
16, 33900, Note_on_c, 9, 69, 101
16, 33930, Note_on_c, 9, 69, 0
16, 33930, Note_on_c, 9, 69, 69
16, 33960, Note_on_c, 9, 69, 0
16, 33960, Note_on_c, 9, 69, 123
16, 33990, Note_on_c, 9, 69, 0
16, 34020, Note_on_c, 9, 69, 78
16, 34050, Note_on_c, 9, 69, 0
16, 34050, Note_on_c, 9, 69, 78
16, 34080, Note_on_c, 9, 69, 0
16, 34080, Note_on_c, 9, 69, 113
16, 34110, Note_on_c, 9, 69, 0
16, 34110, Note_on_c, 9, 69, 73
16, 34140, Note_on_c, 9, 69, 0
16, 34140, Note_on_c, 9, 69, 85
16, 34170, Note_on_c, 9, 69, 0
16, 34170, Note_on_c, 9, 69, 71
16, 34200, Note_on_c, 9, 69, 0
16, 34200, Note_on_c, 9, 69, 123
16, 34230, Note_on_c, 9, 69, 0
16, 34260, Note_on_c, 9, 69, 83
16, 34290, Note_on_c, 9, 69, 0
16, 34290, Note_on_c, 9, 69, 74
16, 34320, Note_on_c, 9, 69, 0
16, 34320, Note_on_c, 9, 69, 120
16, 34350, Note_on_c, 9, 69, 0
16, 34350, Note_on_c, 9, 69, 76
16, 34380, Note_on_c, 9, 69, 0
16, 34380, Note_on_c, 9, 69, 83
16, 34410, Note_on_c, 9, 69, 0
16, 34410, Note_on_c, 9, 69, 80
16, 34440, Note_on_c, 9, 69, 0
16, 34440, Note_on_c, 9, 69, 120
16, 34470, Note_on_c, 9, 69, 0
16, 34470, Note_on_c, 9, 69, 62
16, 34500, Note_on_c, 9, 69, 0
16, 34500, Note_on_c, 9, 69, 62
16, 34530, Note_on_c, 9, 69, 0
16, 34530, Note_on_c, 9, 69, 78
16, 34560, Note_on_c, 9, 69, 0
16, 34560, Note_on_c, 9, 69, 107
16, 34590, Note_on_c, 9, 69, 0
16, 34590, Note_on_c, 9, 69, 69
16, 34620, Note_on_c, 9, 69, 0
16, 34620, Note_on_c, 9, 69, 73
16, 34650, Note_on_c, 9, 69, 0
16, 34650, Note_on_c, 9, 69, 80
16, 34680, Note_on_c, 9, 69, 0
16, 34680, Note_on_c, 9, 69, 110
16, 34710, Note_on_c, 9, 69, 0
16, 34710, Note_on_c, 9, 69, 68
16, 34740, Note_on_c, 9, 69, 0
16, 34740, Note_on_c, 9, 69, 67
16, 34770, Note_on_c, 9, 69, 0
16, 34770, Note_on_c, 9, 69, 74
16, 34800, Note_on_c, 9, 69, 0
16, 34800, Note_on_c, 9, 69, 117
16, 34830, Note_on_c, 9, 69, 0
16, 34830, Note_on_c, 9, 69, 66
16, 34860, Note_on_c, 9, 69, 0
16, 34860, Note_on_c, 9, 69, 78
16, 34890, Note_on_c, 9, 69, 0
16, 34890, Note_on_c, 9, 69, 80
16, 34920, Note_on_c, 9, 69, 0
16, 34920, Note_on_c, 9, 69, 117
16, 34950, Note_on_c, 9, 69, 0
16, 34950, Note_on_c, 9, 69, 69
16, 34980, Note_on_c, 9, 69, 0
16, 34980, Note_on_c, 9, 69, 82
16, 35010, Note_on_c, 9, 69, 0
16, 35010, Note_on_c, 9, 69, 78
16, 35040, Note_on_c, 9, 69, 0
16, 35040, Note_on_c, 9, 69, 117
16, 35070, Note_on_c, 9, 69, 0
16, 35070, Note_on_c, 9, 69, 71
16, 35100, Note_on_c, 9, 69, 0
16, 35100, Note_on_c, 9, 69, 88
16, 35130, Note_on_c, 9, 69, 0
16, 35130, Note_on_c, 9, 69, 78
16, 35160, Note_on_c, 9, 69, 0
16, 35160, Note_on_c, 9, 69, 110
16, 35190, Note_on_c, 9, 69, 0
16, 35190, Note_on_c, 9, 69, 64
16, 35220, Note_on_c, 9, 69, 0
16, 35220, Note_on_c, 9, 69, 65
16, 35250, Note_on_c, 9, 69, 0
16, 35250, Note_on_c, 9, 69, 66
16, 35280, Note_on_c, 9, 69, 0
16, 35280, Note_on_c, 9, 69, 120
16, 35310, Note_on_c, 9, 69, 0
16, 35310, Note_on_c, 9, 69, 62
16, 35340, Note_on_c, 9, 69, 0
16, 35340, Note_on_c, 9, 69, 76
16, 35370, Note_on_c, 9, 69, 0
16, 35370, Note_on_c, 9, 69, 62
16, 35400, Note_on_c, 9, 69, 0
16, 35400, Note_on_c, 9, 69, 120
16, 35430, Note_on_c, 9, 69, 0
16, 35430, Note_on_c, 9, 69, 63
16, 35460, Note_on_c, 9, 69, 0
16, 35460, Note_on_c, 9, 69, 72
16, 35490, Note_on_c, 9, 69, 0
16, 35490, Note_on_c, 9, 69, 70
16, 35520, Note_on_c, 9, 69, 0
16, 35520, Note_on_c, 9, 69, 113
16, 35550, Note_on_c, 9, 69, 0
16, 35550, Note_on_c, 9, 69, 68
16, 35580, Note_on_c, 9, 69, 0
16, 35580, Note_on_c, 9, 69, 74
16, 35610, Note_on_c, 9, 69, 0
16, 35610, Note_on_c, 9, 69, 54
16, 35640, Note_on_c, 9, 69, 0
16, 35640, Note_on_c, 9, 69, 117
16, 35670, Note_on_c, 9, 69, 0
16, 35670, Note_on_c, 9, 69, 66
16, 35700, Note_on_c, 9, 69, 0
16, 35700, Note_on_c, 9, 69, 86
16, 35730, Note_on_c, 9, 69, 0
16, 35730, Note_on_c, 9, 69, 75
16, 35760, Note_on_c, 9, 69, 0
16, 35760, Note_on_c, 9, 69, 117
16, 35790, Note_on_c, 9, 69, 0
16, 35790, Note_on_c, 9, 69, 62
16, 35820, Note_on_c, 9, 69, 0
16, 35820, Note_on_c, 9, 69, 69
16, 35850, Note_on_c, 9, 69, 0
16, 35850, Note_on_c, 9, 69, 65
16, 35880, Note_on_c, 9, 69, 0
16, 35880, Note_on_c, 9, 69, 117
16, 35910, Note_on_c, 9, 69, 0
16, 35910, Note_on_c, 9, 69, 65
16, 35940, Note_on_c, 9, 69, 0
16, 35940, Note_on_c, 9, 69, 62
16, 35970, Note_on_c, 9, 69, 0
16, 35970, Note_on_c, 9, 69, 60
16, 36000, Note_on_c, 9, 69, 0
16, 36000, Note_on_c, 9, 69, 120
16, 36030, Note_on_c, 9, 69, 0
16, 36060, Note_on_c, 9, 69, 80
16, 36090, Note_on_c, 9, 69, 0
16, 36090, Note_on_c, 9, 69, 67
16, 36120, Note_on_c, 9, 69, 0
16, 36120, Note_on_c, 9, 69, 117
16, 36150, Note_on_c, 9, 69, 0
16, 36150, Note_on_c, 9, 69, 69
16, 36180, Note_on_c, 9, 69, 0
16, 36180, Note_on_c, 9, 69, 94
16, 36210, Note_on_c, 9, 69, 0
16, 36210, Note_on_c, 9, 69, 79
16, 36240, Note_on_c, 9, 69, 0
16, 36240, Note_on_c, 9, 69, 113
16, 36270, Note_on_c, 9, 69, 0
16, 36270, Note_on_c, 9, 69, 68
16, 36300, Note_on_c, 9, 69, 0
16, 36300, Note_on_c, 9, 69, 97
16, 36330, Note_on_c, 9, 69, 0
16, 36330, Note_on_c, 9, 69, 62
16, 36360, Note_on_c, 9, 69, 0
16, 36360, Note_on_c, 9, 69, 120
16, 36390, Note_on_c, 9, 69, 0
16, 36390, Note_on_c, 9, 69, 66
16, 36420, Note_on_c, 9, 69, 0
16, 36420, Note_on_c, 9, 69, 88
16, 36450, Note_on_c, 9, 69, 0
16, 36450, Note_on_c, 9, 69, 75
16, 36480, Note_on_c, 9, 69, 0
16, 36480, Note_on_c, 9, 69, 113
16, 36510, Note_on_c, 9, 69, 0
16, 36510, Note_on_c, 9, 69, 66
16, 36540, Note_on_c, 9, 69, 0
16, 36540, Note_on_c, 9, 69, 75
16, 36570, Note_on_c, 9, 69, 0
16, 36570, Note_on_c, 9, 69, 74
16, 36600, Note_on_c, 9, 69, 0
16, 36600, Note_on_c, 9, 69, 113
16, 36630, Note_on_c, 9, 69, 0
16, 36630, Note_on_c, 9, 69, 64
16, 36660, Note_on_c, 9, 69, 0
16, 36660, Note_on_c, 9, 69, 67
16, 36690, Note_on_c, 9, 69, 0
16, 36690, Note_on_c, 9, 69, 66
16, 36720, Note_on_c, 9, 69, 0
16, 36720, Note_on_c, 9, 69, 120
16, 36750, Note_on_c, 9, 69, 0
16, 36750, Note_on_c, 9, 69, 63
16, 36780, Note_on_c, 9, 69, 0
16, 36780, Note_on_c, 9, 69, 88
16, 36810, Note_on_c, 9, 69, 0
16, 36810, Note_on_c, 9, 69, 66
16, 36840, Note_on_c, 9, 69, 0
16, 36840, Note_on_c, 9, 69, 125
16, 36870, Note_on_c, 9, 69, 0
16, 36870, Note_on_c, 9, 69, 70
16, 36900, Note_on_c, 9, 69, 0
16, 36900, Note_on_c, 9, 69, 57
16, 36930, Note_on_c, 9, 69, 0
16, 36930, Note_on_c, 9, 69, 69
16, 36960, Note_on_c, 9, 69, 0
16, 36960, Note_on_c, 9, 69, 123
16, 36990, Note_on_c, 9, 69, 0
16, 36990, Note_on_c, 9, 69, 67
16, 37020, Note_on_c, 9, 69, 0
16, 37020, Note_on_c, 9, 69, 85
16, 37050, Note_on_c, 9, 69, 0
16, 37050, Note_on_c, 9, 69, 66
16, 37080, Note_on_c, 9, 69, 0
16, 37080, Note_on_c, 9, 69, 117
16, 37140, Note_on_c, 9, 69, 0
16, 37140, Note_on_c, 9, 69, 85
16, 37170, Note_on_c, 9, 69, 0
16, 37170, Note_on_c, 9, 69, 76
16, 37200, Note_on_c, 9, 69, 0
16, 37200, Note_on_c, 9, 69, 117
16, 37230, Note_on_c, 9, 69, 0
16, 37230, Note_on_c, 9, 69, 74
16, 37260, Note_on_c, 9, 69, 0
16, 37260, Note_on_c, 9, 69, 85
16, 37290, Note_on_c, 9, 69, 0
16, 37290, Note_on_c, 9, 69, 67
16, 37320, Note_on_c, 9, 69, 0
16, 37320, Note_on_c, 9, 69, 123
16, 37350, Note_on_c, 9, 69, 0
16, 37350, Note_on_c, 9, 69, 66
16, 37380, Note_on_c, 9, 69, 0
16, 37380, Note_on_c, 9, 69, 72
16, 37410, Note_on_c, 9, 69, 0
16, 37410, Note_on_c, 9, 69, 78
16, 37440, Note_on_c, 9, 69, 0
16, 37440, Note_on_c, 9, 69, 123
16, 37470, Note_on_c, 9, 69, 0
16, 37470, Note_on_c, 9, 69, 64
16, 37500, Note_on_c, 9, 69, 0
16, 37500, Note_on_c, 9, 69, 85
16, 37530, Note_on_c, 9, 69, 0
16, 37530, Note_on_c, 9, 69, 69
16, 37560, Note_on_c, 9, 69, 0
16, 37560, Note_on_c, 9, 69, 125
16, 37620, Note_on_c, 9, 69, 0
16, 37620, Note_on_c, 9, 69, 79
16, 37650, Note_on_c, 9, 69, 0
16, 37650, Note_on_c, 9, 69, 73
16, 37680, Note_on_c, 9, 69, 0
16, 37680, Note_on_c, 9, 69, 120
16, 37710, Note_on_c, 9, 69, 0
16, 37710, Note_on_c, 9, 69, 67
16, 37740, Note_on_c, 9, 69, 0
16, 37740, Note_on_c, 9, 69, 83
16, 37770, Note_on_c, 9, 69, 0
16, 37770, Note_on_c, 9, 69, 71
16, 37800, Note_on_c, 9, 69, 0
16, 37800, Note_on_c, 9, 69, 120
16, 37830, Note_on_c, 9, 69, 0
16, 37830, Note_on_c, 9, 69, 69
16, 37860, Note_on_c, 9, 69, 0
16, 37860, Note_on_c, 9, 69, 88
16, 37890, Note_on_c, 9, 69, 0
16, 37890, Note_on_c, 9, 69, 68
16, 37920, Note_on_c, 9, 69, 0
16, 37920, Note_on_c, 9, 69, 117
16, 37950, Note_on_c, 9, 69, 0
16, 37950, Note_on_c, 9, 69, 75
16, 37980, Note_on_c, 9, 69, 0
16, 37980, Note_on_c, 9, 69, 25
16, 38010, Note_on_c, 9, 69, 0
16, 38010, Note_on_c, 9, 69, 63
16, 38040, Note_on_c, 9, 69, 0
16, 38040, Note_on_c, 9, 69, 113
16, 38070, Note_on_c, 9, 69, 0
16, 38070, Note_on_c, 9, 69, 66
16, 38100, Note_on_c, 9, 69, 0
16, 38100, Note_on_c, 9, 69, 88
16, 38130, Note_on_c, 9, 69, 0
16, 38130, Note_on_c, 9, 69, 74
16, 38160, Note_on_c, 9, 69, 0
16, 38160, Note_on_c, 9, 69, 110
16, 38190, Note_on_c, 9, 69, 0
16, 38190, Note_on_c, 9, 69, 60
16, 38220, Note_on_c, 9, 69, 0
16, 38220, Note_on_c, 9, 69, 92
16, 38250, Note_on_c, 9, 69, 0
16, 38250, Note_on_c, 9, 69, 66
16, 38280, Note_on_c, 9, 69, 0
16, 38280, Note_on_c, 9, 69, 110
16, 38310, Note_on_c, 9, 69, 0
16, 38310, Note_on_c, 9, 69, 66
16, 38340, Note_on_c, 9, 69, 0
16, 38340, Note_on_c, 9, 69, 94
16, 38370, Note_on_c, 9, 69, 0
16, 38400, Note_on_c, 9, 69, 117
16, 38430, Note_on_c, 9, 69, 0
16, 38430, Note_on_c, 9, 69, 64
16, 38460, Note_on_c, 9, 69, 0
16, 38460, Note_on_c, 9, 69, 104
16, 38490, Note_on_c, 9, 69, 0
16, 38490, Note_on_c, 9, 69, 74
16, 38520, Note_on_c, 9, 69, 0
16, 38520, Note_on_c, 9, 69, 117
16, 38550, Note_on_c, 9, 69, 0
16, 38550, Note_on_c, 9, 69, 66
16, 38580, Note_on_c, 9, 69, 0
16, 38580, Note_on_c, 9, 69, 107
16, 38610, Note_on_c, 9, 69, 0
16, 38610, Note_on_c, 9, 69, 74
16, 38640, Note_on_c, 9, 69, 0
16, 38640, Note_on_c, 9, 69, 107
16, 38670, Note_on_c, 9, 69, 0
16, 38670, Note_on_c, 9, 69, 60
16, 38700, Note_on_c, 9, 69, 0
16, 38700, Note_on_c, 9, 69, 101
16, 38730, Note_on_c, 9, 69, 0
16, 38730, Note_on_c, 9, 69, 66
16, 38760, Note_on_c, 9, 69, 0
16, 38760, Note_on_c, 9, 69, 113
16, 38790, Note_on_c, 9, 69, 0
16, 38790, Note_on_c, 9, 69, 57
16, 38820, Note_on_c, 9, 69, 0
16, 38820, Note_on_c, 9, 69, 83
16, 38850, Note_on_c, 9, 69, 0
16, 38850, Note_on_c, 9, 69, 62
16, 38880, Note_on_c, 9, 69, 0
16, 38880, Note_on_c, 9, 69, 123
16, 38910, Note_on_c, 9, 69, 0
16, 38910, Note_on_c, 9, 69, 62
16, 38940, Note_on_c, 9, 69, 0
16, 38940, Note_on_c, 9, 69, 99
16, 38970, Note_on_c, 9, 69, 0
16, 38970, Note_on_c, 9, 69, 60
16, 39000, Note_on_c, 9, 69, 0
16, 39000, Note_on_c, 9, 69, 123
16, 39030, Note_on_c, 9, 69, 0
16, 39030, Note_on_c, 9, 69, 64
16, 39060, Note_on_c, 9, 69, 0
16, 39060, Note_on_c, 9, 69, 88
16, 39090, Note_on_c, 9, 69, 0
16, 39090, Note_on_c, 9, 69, 62
16, 39120, Note_on_c, 9, 69, 0
16, 39120, Note_on_c, 9, 69, 110
16, 39150, Note_on_c, 9, 69, 0
16, 39150, Note_on_c, 9, 69, 70
16, 39180, Note_on_c, 9, 69, 0
16, 39180, Note_on_c, 9, 69, 72
16, 39210, Note_on_c, 9, 69, 0
16, 39210, Note_on_c, 9, 69, 55
16, 39240, Note_on_c, 9, 69, 0
16, 39240, Note_on_c, 9, 69, 117
16, 39270, Note_on_c, 9, 69, 0
16, 39270, Note_on_c, 9, 69, 66
16, 39300, Note_on_c, 9, 69, 0
16, 39300, Note_on_c, 9, 69, 88
16, 39330, Note_on_c, 9, 69, 0
16, 39330, Note_on_c, 9, 69, 69
16, 39360, Note_on_c, 9, 69, 0
16, 39360, Note_on_c, 9, 69, 113
16, 39390, Note_on_c, 9, 69, 0
16, 39390, Note_on_c, 9, 69, 65
16, 39420, Note_on_c, 9, 69, 0
16, 39420, Note_on_c, 9, 69, 80
16, 39450, Note_on_c, 9, 69, 0
16, 39450, Note_on_c, 9, 69, 65
16, 39480, Note_on_c, 9, 69, 0
16, 39480, Note_on_c, 9, 69, 120
16, 39510, Note_on_c, 9, 69, 0
16, 39510, Note_on_c, 9, 69, 67
16, 39540, Note_on_c, 9, 69, 0
16, 39540, Note_on_c, 9, 69, 71
16, 39570, Note_on_c, 9, 69, 0
16, 39570, Note_on_c, 9, 69, 55
16, 39600, Note_on_c, 9, 69, 0
16, 39600, Note_on_c, 9, 69, 123
16, 39630, Note_on_c, 9, 69, 0
16, 39630, Note_on_c, 9, 69, 55
16, 39660, Note_on_c, 9, 69, 0
16, 39660, Note_on_c, 9, 69, 73
16, 39690, Note_on_c, 9, 69, 0
16, 39690, Note_on_c, 9, 69, 66
16, 39720, Note_on_c, 9, 69, 0
16, 39720, Note_on_c, 9, 69, 123
16, 39750, Note_on_c, 9, 69, 0
16, 39750, Note_on_c, 9, 69, 62
16, 39780, Note_on_c, 9, 69, 0
16, 39780, Note_on_c, 9, 69, 74
16, 39810, Note_on_c, 9, 69, 0
16, 39810, Note_on_c, 9, 69, 44
16, 39840, Note_on_c, 9, 69, 0
16, 39840, Note_on_c, 9, 69, 126
16, 39870, Note_on_c, 9, 69, 0
16, 39870, Note_on_c, 9, 69, 45
16, 39900, Note_on_c, 9, 69, 0
16, 39900, Note_on_c, 9, 69, 83
16, 39930, Note_on_c, 9, 69, 0
16, 39930, Note_on_c, 9, 69, 67
16, 39960, Note_on_c, 9, 69, 0
16, 39960, Note_on_c, 9, 69, 113
16, 39990, Note_on_c, 9, 69, 0
16, 39990, Note_on_c, 9, 69, 63
16, 40020, Note_on_c, 9, 69, 0
16, 40020, Note_on_c, 9, 69, 71
16, 40050, Note_on_c, 9, 69, 0
16, 40050, Note_on_c, 9, 69, 63
16, 40080, Note_on_c, 9, 69, 0
16, 40080, Note_on_c, 9, 69, 120
16, 40110, Note_on_c, 9, 69, 0
16, 40110, Note_on_c, 9, 69, 68
16, 40140, Note_on_c, 9, 69, 0
16, 40140, Note_on_c, 9, 69, 83
16, 40170, Note_on_c, 9, 69, 0
16, 40170, Note_on_c, 9, 69, 60
16, 40200, Note_on_c, 9, 69, 0
16, 40200, Note_on_c, 9, 69, 110
16, 40260, Note_on_c, 9, 69, 0
16, 40260, Note_on_c, 9, 69, 80
16, 40290, Note_on_c, 9, 69, 0
16, 40290, Note_on_c, 9, 69, 70
16, 40320, Note_on_c, 9, 69, 0
16, 40320, Note_on_c, 9, 69, 123
16, 40350, Note_on_c, 9, 69, 0
16, 40350, Note_on_c, 9, 69, 62
16, 40380, Note_on_c, 9, 69, 0
16, 40380, Note_on_c, 9, 69, 66
16, 40410, Note_on_c, 9, 69, 0
16, 40410, Note_on_c, 9, 69, 67
16, 40440, Note_on_c, 9, 69, 0
16, 40440, Note_on_c, 9, 69, 123
16, 40470, Note_on_c, 9, 69, 0
16, 40470, Note_on_c, 9, 69, 69
16, 40500, Note_on_c, 9, 69, 0
16, 40500, Note_on_c, 9, 69, 53
16, 40530, Note_on_c, 9, 69, 0
16, 40530, Note_on_c, 9, 69, 47
16, 40560, Note_on_c, 9, 69, 0
16, 40560, Note_on_c, 9, 69, 120
16, 40590, Note_on_c, 9, 69, 0
16, 40590, Note_on_c, 9, 69, 61
16, 40620, Note_on_c, 9, 69, 0
16, 40620, Note_on_c, 9, 69, 82
16, 40650, Note_on_c, 9, 69, 0
16, 40650, Note_on_c, 9, 69, 76
16, 40680, Note_on_c, 9, 69, 0
16, 40680, Note_on_c, 9, 69, 113
16, 40710, Note_on_c, 9, 69, 0
16, 40740, Note_on_c, 9, 69, 88
16, 40770, Note_on_c, 9, 69, 0
16, 40770, Note_on_c, 9, 69, 76
16, 40800, Note_on_c, 9, 69, 0
16, 40800, Note_on_c, 9, 69, 117
16, 40830, Note_on_c, 9, 69, 0
16, 40830, Note_on_c, 9, 69, 64
16, 40860, Note_on_c, 9, 69, 0
16, 40860, Note_on_c, 9, 69, 92
16, 40890, Note_on_c, 9, 69, 0
16, 40890, Note_on_c, 9, 69, 69
16, 40920, Note_on_c, 9, 69, 0
16, 40920, Note_on_c, 9, 69, 123
16, 40950, Note_on_c, 9, 69, 0
16, 40950, Note_on_c, 9, 69, 63
16, 40980, Note_on_c, 9, 69, 0
16, 40980, Note_on_c, 9, 69, 86
16, 41010, Note_on_c, 9, 69, 0
16, 41010, Note_on_c, 9, 69, 73
16, 41040, Note_on_c, 9, 69, 0
16, 41040, Note_on_c, 9, 69, 126
16, 41070, Note_on_c, 9, 69, 0
16, 41070, Note_on_c, 9, 69, 58
16, 41100, Note_on_c, 9, 69, 0
16, 41100, Note_on_c, 9, 69, 83
16, 41130, Note_on_c, 9, 69, 0
16, 41130, Note_on_c, 9, 69, 64
16, 41160, Note_on_c, 9, 69, 0
16, 41160, Note_on_c, 9, 69, 125
16, 41190, Note_on_c, 9, 69, 0
16, 41220, Note_on_c, 9, 69, 64
16, 41250, Note_on_c, 9, 69, 0
16, 41250, Note_on_c, 9, 69, 66
16, 41280, Note_on_c, 9, 69, 0
16, 41280, Note_on_c, 9, 69, 117
16, 41310, Note_on_c, 9, 69, 0
16, 41310, Note_on_c, 9, 69, 65
16, 41340, Note_on_c, 9, 69, 0
16, 41340, Note_on_c, 9, 69, 90
16, 41370, Note_on_c, 9, 69, 0
16, 41370, Note_on_c, 9, 69, 62
16, 41400, Note_on_c, 9, 69, 0
16, 41400, Note_on_c, 9, 69, 117
16, 41430, Note_on_c, 9, 69, 0
16, 41430, Note_on_c, 9, 69, 66
16, 41460, Note_on_c, 9, 69, 0
16, 41460, Note_on_c, 9, 69, 88
16, 41490, Note_on_c, 9, 69, 0
16, 41490, Note_on_c, 9, 69, 74
16, 41520, Note_on_c, 9, 69, 0
16, 41520, Note_on_c, 9, 69, 117
16, 41550, Note_on_c, 9, 69, 0
16, 41550, Note_on_c, 9, 69, 72
16, 41580, Note_on_c, 9, 69, 0
16, 41580, Note_on_c, 9, 69, 83
16, 41610, Note_on_c, 9, 69, 0
16, 41610, Note_on_c, 9, 69, 71
16, 41640, Note_on_c, 9, 69, 0
16, 41640, Note_on_c, 9, 69, 120
16, 41670, Note_on_c, 9, 69, 0
16, 41670, Note_on_c, 9, 69, 68
16, 41700, Note_on_c, 9, 69, 0
16, 41700, Note_on_c, 9, 69, 79
16, 41730, Note_on_c, 9, 69, 0
16, 41730, Note_on_c, 9, 69, 61
16, 41760, Note_on_c, 9, 69, 0
16, 41760, Note_on_c, 9, 69, 123
16, 41790, Note_on_c, 9, 69, 0
16, 41790, Note_on_c, 9, 69, 59
16, 41820, Note_on_c, 9, 69, 0
16, 41820, Note_on_c, 9, 69, 90
16, 41850, Note_on_c, 9, 69, 0
16, 41850, Note_on_c, 9, 69, 62
16, 41880, Note_on_c, 9, 69, 0
16, 41880, Note_on_c, 9, 69, 125
16, 41910, Note_on_c, 9, 69, 0
16, 41910, Note_on_c, 9, 69, 57
16, 41940, Note_on_c, 9, 69, 0
16, 41940, Note_on_c, 9, 69, 79
16, 41970, Note_on_c, 9, 69, 0
16, 41970, Note_on_c, 9, 69, 57
16, 42000, Note_on_c, 9, 69, 0
16, 42000, Note_on_c, 9, 69, 123
16, 42030, Note_on_c, 9, 69, 0
16, 42030, Note_on_c, 9, 69, 62
16, 42060, Note_on_c, 9, 69, 0
16, 42060, Note_on_c, 9, 69, 97
16, 42090, Note_on_c, 9, 69, 0
16, 42090, Note_on_c, 9, 69, 70
16, 42120, Note_on_c, 9, 69, 0
16, 42120, Note_on_c, 9, 69, 120
16, 42150, Note_on_c, 9, 69, 0
16, 42150, Note_on_c, 9, 69, 58
16, 42180, Note_on_c, 9, 69, 0
16, 42180, Note_on_c, 9, 69, 72
16, 42210, Note_on_c, 9, 69, 0
16, 42210, Note_on_c, 9, 69, 58
16, 42240, Note_on_c, 9, 69, 0
16, 42240, Note_on_c, 9, 69, 123
16, 42270, Note_on_c, 9, 69, 0
16, 42270, Note_on_c, 9, 69, 60
16, 42300, Note_on_c, 9, 69, 0
16, 42300, Note_on_c, 9, 69, 66
16, 42330, Note_on_c, 9, 69, 0
16, 42360, Note_on_c, 9, 69, 120
16, 42390, Note_on_c, 9, 69, 0
16, 42390, Note_on_c, 9, 69, 66
16, 42420, Note_on_c, 9, 69, 0
16, 42420, Note_on_c, 9, 69, 85
16, 42450, Note_on_c, 9, 69, 0
16, 42450, Note_on_c, 9, 69, 57
16, 42480, Note_on_c, 9, 69, 0
16, 42480, Note_on_c, 9, 69, 123
16, 42510, Note_on_c, 9, 69, 0
16, 42510, Note_on_c, 9, 69, 55
16, 42540, Note_on_c, 9, 69, 0
16, 42540, Note_on_c, 9, 69, 86
16, 42570, Note_on_c, 9, 69, 0
16, 42570, Note_on_c, 9, 69, 62
16, 42600, Note_on_c, 9, 69, 0
16, 42600, Note_on_c, 9, 69, 117
16, 42630, Note_on_c, 9, 69, 0
16, 42630, Note_on_c, 9, 69, 57
16, 42660, Note_on_c, 9, 69, 0
16, 42660, Note_on_c, 9, 69, 97
16, 42690, Note_on_c, 9, 69, 0
16, 42690, Note_on_c, 9, 69, 62
16, 42720, Note_on_c, 9, 69, 0
16, 42720, Note_on_c, 9, 69, 117
16, 42750, Note_on_c, 9, 69, 0
16, 42750, Note_on_c, 9, 69, 51
16, 42780, Note_on_c, 9, 69, 0
16, 42780, Note_on_c, 9, 69, 71
16, 42810, Note_on_c, 9, 69, 0
16, 42810, Note_on_c, 9, 69, 56
16, 42840, Note_on_c, 9, 69, 0
16, 42840, Note_on_c, 9, 69, 123
16, 42870, Note_on_c, 9, 69, 0
16, 42900, Note_on_c, 9, 69, 85
16, 42930, Note_on_c, 9, 69, 0
16, 42930, Note_on_c, 9, 69, 60
16, 42960, Note_on_c, 9, 69, 0
16, 42960, Note_on_c, 9, 69, 123
16, 42990, Note_on_c, 9, 69, 0
16, 42990, Note_on_c, 9, 69, 62
16, 43020, Note_on_c, 9, 69, 0
16, 43020, Note_on_c, 9, 69, 82
16, 43050, Note_on_c, 9, 69, 0
16, 43050, Note_on_c, 9, 69, 60
16, 43080, Note_on_c, 9, 69, 0
16, 43080, Note_on_c, 9, 69, 120
16, 43110, Note_on_c, 9, 69, 0
16, 43110, Note_on_c, 9, 69, 42
16, 43140, Note_on_c, 9, 69, 0
16, 43140, Note_on_c, 9, 69, 57
16, 43170, Note_on_c, 9, 69, 0
16, 43170, Note_on_c, 9, 69, 66
16, 43200, Note_on_c, 9, 69, 0
16, 43200, Note_on_c, 9, 69, 123
16, 43230, Note_on_c, 9, 69, 0
16, 43230, Note_on_c, 9, 69, 68
16, 43260, Note_on_c, 9, 69, 0
16, 43260, Note_on_c, 9, 69, 69
16, 43290, Note_on_c, 9, 69, 0
16, 43290, Note_on_c, 9, 69, 64
16, 43320, Note_on_c, 9, 69, 0
16, 43320, Note_on_c, 9, 69, 123
16, 43350, Note_on_c, 9, 69, 0
16, 43350, Note_on_c, 9, 69, 63
16, 43380, Note_on_c, 9, 69, 0
16, 43380, Note_on_c, 9, 69, 56
16, 43410, Note_on_c, 9, 69, 0
16, 43410, Note_on_c, 9, 69, 52
16, 43440, Note_on_c, 9, 69, 0
16, 43440, Note_on_c, 9, 69, 125
16, 43470, Note_on_c, 9, 69, 0
16, 43470, Note_on_c, 9, 69, 64
16, 43500, Note_on_c, 9, 69, 0
16, 43500, Note_on_c, 9, 69, 61
16, 43530, Note_on_c, 9, 69, 0
16, 43530, Note_on_c, 9, 69, 58
16, 43560, Note_on_c, 9, 69, 0
16, 43560, Note_on_c, 9, 69, 123
16, 43590, Note_on_c, 9, 69, 0
16, 43590, Note_on_c, 9, 69, 66
16, 43620, Note_on_c, 9, 69, 0
16, 43620, Note_on_c, 9, 69, 55
16, 43650, Note_on_c, 9, 69, 0
16, 43650, Note_on_c, 9, 69, 60
16, 43680, Note_on_c, 9, 69, 0
16, 43680, Note_on_c, 9, 69, 123
16, 43710, Note_on_c, 9, 69, 0
16, 43710, Note_on_c, 9, 69, 66
16, 43740, Note_on_c, 9, 69, 0
16, 43740, Note_on_c, 9, 69, 54
16, 43770, Note_on_c, 9, 69, 0
16, 43770, Note_on_c, 9, 69, 54
16, 43800, Note_on_c, 9, 69, 0
16, 43800, Note_on_c, 9, 69, 125
16, 43830, Note_on_c, 9, 69, 0
16, 43830, Note_on_c, 9, 69, 67
16, 43860, Note_on_c, 9, 69, 0
16, 43860, Note_on_c, 9, 69, 45
16, 43890, Note_on_c, 9, 69, 0
16, 43890, Note_on_c, 9, 69, 53
16, 43920, Note_on_c, 9, 69, 0
16, 43920, Note_on_c, 9, 69, 123
16, 43950, Note_on_c, 9, 69, 0
16, 43950, Note_on_c, 9, 69, 66
16, 43980, Note_on_c, 9, 69, 0
16, 43980, Note_on_c, 9, 69, 63
16, 44010, Note_on_c, 9, 69, 0
16, 44010, Note_on_c, 9, 69, 59
16, 44040, Note_on_c, 9, 69, 0
16, 44040, Note_on_c, 9, 69, 123
16, 44070, Note_on_c, 9, 69, 0
16, 44070, Note_on_c, 9, 69, 62
16, 44100, Note_on_c, 9, 69, 0
16, 44100, Note_on_c, 9, 69, 75
16, 44130, Note_on_c, 9, 69, 0
16, 44130, Note_on_c, 9, 69, 55
16, 44160, Note_on_c, 9, 69, 0
16, 44160, Note_on_c, 9, 69, 125
16, 44190, Note_on_c, 9, 69, 0
16, 44190, Note_on_c, 9, 69, 57
16, 44220, Note_on_c, 9, 69, 0
16, 44220, Note_on_c, 9, 69, 88
16, 44250, Note_on_c, 9, 69, 0
16, 44250, Note_on_c, 9, 69, 59
16, 44280, Note_on_c, 9, 69, 0
16, 44280, Note_on_c, 9, 69, 120
16, 44310, Note_on_c, 9, 69, 0
16, 44310, Note_on_c, 9, 69, 58
16, 44340, Note_on_c, 9, 69, 0
16, 44340, Note_on_c, 9, 69, 80
16, 44370, Note_on_c, 9, 69, 0
16, 44370, Note_on_c, 9, 69, 66
16, 44400, Note_on_c, 9, 69, 0
16, 44400, Note_on_c, 9, 69, 110
16, 44430, Note_on_c, 9, 69, 0
16, 44430, Note_on_c, 9, 69, 72
16, 44460, Note_on_c, 9, 69, 0
16, 44460, Note_on_c, 9, 69, 69
16, 44490, Note_on_c, 9, 69, 0
16, 44490, Note_on_c, 9, 69, 66
16, 44520, Note_on_c, 9, 69, 0
16, 44520, Note_on_c, 9, 69, 123
16, 44550, Note_on_c, 9, 69, 0
16, 44550, Note_on_c, 9, 69, 67
16, 44580, Note_on_c, 9, 69, 0
16, 44580, Note_on_c, 9, 69, 85
16, 44610, Note_on_c, 9, 69, 0
16, 44610, Note_on_c, 9, 69, 74
16, 44640, Note_on_c, 9, 69, 0
16, 44640, Note_on_c, 9, 69, 123
16, 44670, Note_on_c, 9, 69, 0
16, 44670, Note_on_c, 9, 69, 70
16, 44700, Note_on_c, 9, 69, 0
16, 44700, Note_on_c, 9, 69, 74
16, 44730, Note_on_c, 9, 69, 0
16, 44730, Note_on_c, 9, 69, 78
16, 44760, Note_on_c, 9, 69, 0
16, 44760, Note_on_c, 9, 69, 117
16, 44790, Note_on_c, 9, 69, 0
16, 44790, Note_on_c, 9, 69, 63
16, 44820, Note_on_c, 9, 69, 0
16, 44820, Note_on_c, 9, 69, 69
16, 44850, Note_on_c, 9, 69, 0
16, 44850, Note_on_c, 9, 69, 73
16, 44880, Note_on_c, 9, 69, 0
16, 44880, Note_on_c, 9, 69, 123
16, 44910, Note_on_c, 9, 69, 0
16, 44910, Note_on_c, 9, 69, 70
16, 44940, Note_on_c, 9, 69, 0
16, 44940, Note_on_c, 9, 69, 82
16, 44970, Note_on_c, 9, 69, 0
16, 44970, Note_on_c, 9, 69, 72
16, 45000, Note_on_c, 9, 69, 0
16, 45000, Note_on_c, 9, 69, 125
16, 45030, Note_on_c, 9, 69, 0
16, 45030, Note_on_c, 9, 69, 60
16, 45060, Note_on_c, 9, 69, 0
16, 45060, Note_on_c, 9, 69, 71
16, 45090, Note_on_c, 9, 69, 0
16, 45090, Note_on_c, 9, 69, 73
16, 45120, Note_on_c, 9, 69, 0
16, 45120, Note_on_c, 9, 69, 120
16, 45150, Note_on_c, 9, 69, 0
16, 45180, Note_on_c, 9, 69, 79
16, 45210, Note_on_c, 9, 69, 0
16, 45210, Note_on_c, 9, 69, 79
16, 45240, Note_on_c, 9, 69, 0
16, 45240, Note_on_c, 9, 69, 120
16, 45270, Note_on_c, 9, 69, 0
16, 45270, Note_on_c, 9, 69, 66
16, 45300, Note_on_c, 9, 69, 0
16, 45300, Note_on_c, 9, 69, 71
16, 45330, Note_on_c, 9, 69, 0
16, 45330, Note_on_c, 9, 69, 73
16, 45360, Note_on_c, 9, 69, 0
16, 45360, Note_on_c, 9, 69, 113
16, 45390, Note_on_c, 9, 69, 0
16, 45390, Note_on_c, 9, 69, 69
16, 45420, Note_on_c, 9, 69, 0
16, 45420, Note_on_c, 9, 69, 86
16, 45450, Note_on_c, 9, 69, 0
16, 45450, Note_on_c, 9, 69, 74
16, 45480, Note_on_c, 9, 69, 0
16, 45480, Note_on_c, 9, 69, 123
16, 45510, Note_on_c, 9, 69, 0
16, 45510, Note_on_c, 9, 69, 74
16, 45540, Note_on_c, 9, 69, 0
16, 45540, Note_on_c, 9, 69, 85
16, 45570, Note_on_c, 9, 69, 0
16, 45570, Note_on_c, 9, 69, 69
16, 45600, Note_on_c, 9, 69, 0
16, 45600, Note_on_c, 9, 69, 123
16, 45630, Note_on_c, 9, 69, 0
16, 45630, Note_on_c, 9, 69, 73
16, 45660, Note_on_c, 9, 69, 0
16, 45660, Note_on_c, 9, 69, 80
16, 45690, Note_on_c, 9, 69, 0
16, 45690, Note_on_c, 9, 69, 75
16, 45720, Note_on_c, 9, 69, 0
16, 45720, Note_on_c, 9, 69, 120
16, 45750, Note_on_c, 9, 69, 0
16, 45780, Note_on_c, 9, 69, 80
16, 45810, Note_on_c, 9, 69, 0
16, 45810, Note_on_c, 9, 69, 82
16, 45840, Note_on_c, 9, 69, 0
16, 45840, Note_on_c, 9, 69, 125
16, 45870, Note_on_c, 9, 69, 0
16, 45870, Note_on_c, 9, 69, 59
16, 45900, Note_on_c, 9, 69, 0
16, 45900, Note_on_c, 9, 69, 82
16, 45930, Note_on_c, 9, 69, 0
16, 45930, Note_on_c, 9, 69, 70
16, 45960, Note_on_c, 9, 69, 0
16, 45960, Note_on_c, 9, 69, 125
16, 45990, Note_on_c, 9, 69, 0
16, 45990, Note_on_c, 9, 69, 55
16, 46020, Note_on_c, 9, 69, 0
16, 46020, Note_on_c, 9, 69, 86
16, 46050, Note_on_c, 9, 69, 0
16, 46050, Note_on_c, 9, 69, 78
16, 46080, Note_on_c, 9, 69, 0
16, 46080, Note_on_c, 9, 69, 117
16, 46110, Note_on_c, 9, 69, 0
16, 46110, Note_on_c, 9, 69, 60
16, 46140, Note_on_c, 9, 69, 0
16, 46140, Note_on_c, 9, 69, 50
16, 46170, Note_on_c, 9, 69, 0
16, 46170, Note_on_c, 9, 69, 67
16, 46200, Note_on_c, 9, 69, 0
16, 46200, Note_on_c, 9, 69, 123
16, 46230, Note_on_c, 9, 69, 0
16, 46230, Note_on_c, 9, 69, 50
16, 46260, Note_on_c, 9, 69, 0
16, 46260, Note_on_c, 9, 69, 73
16, 46290, Note_on_c, 9, 69, 0
16, 46290, Note_on_c, 9, 69, 70
16, 46320, Note_on_c, 9, 69, 0
16, 46320, Note_on_c, 9, 69, 123
16, 46350, Note_on_c, 9, 69, 0
16, 46350, Note_on_c, 9, 69, 58
16, 46380, Note_on_c, 9, 69, 0
16, 46380, Note_on_c, 9, 69, 86
16, 46410, Note_on_c, 9, 69, 0
16, 46410, Note_on_c, 9, 69, 55
16, 46440, Note_on_c, 9, 69, 0
16, 46440, Note_on_c, 9, 69, 123
16, 46470, Note_on_c, 9, 69, 0
16, 46470, Note_on_c, 9, 69, 65
16, 46500, Note_on_c, 9, 69, 0
16, 46500, Note_on_c, 9, 69, 85
16, 46530, Note_on_c, 9, 69, 0
16, 46530, Note_on_c, 9, 69, 56
16, 46560, Note_on_c, 9, 69, 0
16, 46560, Note_on_c, 9, 69, 123
16, 46590, Note_on_c, 9, 69, 0
16, 46590, Note_on_c, 9, 69, 62
16, 46620, Note_on_c, 9, 69, 0
16, 46620, Note_on_c, 9, 69, 85
16, 46650, Note_on_c, 9, 69, 0
16, 46650, Note_on_c, 9, 69, 69
16, 46680, Note_on_c, 9, 69, 0
16, 46680, Note_on_c, 9, 69, 123
16, 46710, Note_on_c, 9, 69, 0
16, 46710, Note_on_c, 9, 69, 66
16, 46740, Note_on_c, 9, 69, 0
16, 46740, Note_on_c, 9, 69, 83
16, 46770, Note_on_c, 9, 69, 0
16, 46770, Note_on_c, 9, 69, 72
16, 46800, Note_on_c, 9, 69, 0
16, 46800, Note_on_c, 9, 69, 117
16, 46830, Note_on_c, 9, 69, 0
16, 46830, Note_on_c, 9, 69, 65
16, 46860, Note_on_c, 9, 69, 0
16, 46860, Note_on_c, 9, 69, 72
16, 46890, Note_on_c, 9, 69, 0
16, 46890, Note_on_c, 9, 69, 71
16, 46920, Note_on_c, 9, 69, 0
16, 46920, Note_on_c, 9, 69, 120
16, 46950, Note_on_c, 9, 69, 0
16, 46950, Note_on_c, 9, 69, 57
16, 46980, Note_on_c, 9, 69, 0
16, 46980, Note_on_c, 9, 69, 65
16, 47010, Note_on_c, 9, 69, 0
16, 47010, Note_on_c, 9, 69, 75
16, 47040, Note_on_c, 9, 69, 0
16, 47040, Note_on_c, 9, 69, 123
16, 47040, Note_on_c, 9, 71, 90
16, 47070, Note_on_c, 9, 71, 0
16, 47070, Note_on_c, 9, 69, 0
16, 47070, Note_on_c, 9, 69, 60
16, 47100, Note_on_c, 9, 69, 0
16, 47100, Note_on_c, 9, 69, 85
16, 47130, Note_on_c, 9, 69, 0
16, 47130, Note_on_c, 9, 69, 68
16, 47160, Note_on_c, 9, 69, 0
16, 47160, Note_on_c, 9, 69, 123
16, 47190, Note_on_c, 9, 69, 0
16, 47190, Note_on_c, 9, 69, 60
16, 47220, Note_on_c, 9, 69, 0
16, 47220, Note_on_c, 9, 69, 85
16, 47250, Note_on_c, 9, 69, 0
16, 47250, Note_on_c, 9, 69, 73
16, 47280, Note_on_c, 9, 69, 0
16, 47280, Note_on_c, 9, 69, 123
16, 47310, Note_on_c, 9, 69, 0
16, 47310, Note_on_c, 9, 69, 61
16, 47340, Note_on_c, 9, 69, 0
16, 47340, Note_on_c, 9, 69, 58
16, 47370, Note_on_c, 9, 69, 0
16, 47370, Note_on_c, 9, 69, 68
16, 47400, Note_on_c, 9, 69, 0
16, 47400, Note_on_c, 9, 69, 125
16, 47430, Note_on_c, 9, 69, 0
16, 47460, Note_on_c, 9, 69, 66
16, 47490, Note_on_c, 9, 69, 0
16, 47490, Note_on_c, 9, 69, 66
16, 47520, Note_on_c, 9, 69, 0
16, 47520, Note_on_c, 9, 69, 117
16, 47550, Note_on_c, 9, 69, 0
16, 47550, Note_on_c, 9, 69, 63
16, 47580, Note_on_c, 9, 69, 0
16, 47580, Note_on_c, 9, 69, 78
16, 47610, Note_on_c, 9, 69, 0
16, 47610, Note_on_c, 9, 69, 73
16, 47640, Note_on_c, 9, 69, 0
16, 47640, Note_on_c, 9, 69, 123
16, 47670, Note_on_c, 9, 69, 0
16, 47670, Note_on_c, 9, 69, 66
16, 47700, Note_on_c, 9, 69, 0
16, 47700, Note_on_c, 9, 69, 97
16, 47730, Note_on_c, 9, 69, 0
16, 47730, Note_on_c, 9, 69, 74
16, 47760, Note_on_c, 9, 69, 0
16, 47760, Note_on_c, 9, 69, 123
16, 47790, Note_on_c, 9, 69, 0
16, 47790, Note_on_c, 9, 69, 51
16, 47820, Note_on_c, 9, 69, 0
16, 47820, Note_on_c, 9, 69, 78
16, 47850, Note_on_c, 9, 69, 0
16, 47850, Note_on_c, 9, 69, 73
16, 47880, Note_on_c, 9, 69, 0
16, 47880, Note_on_c, 9, 69, 117
16, 47910, Note_on_c, 9, 69, 0
16, 47910, Note_on_c, 9, 69, 58
16, 47940, Note_on_c, 9, 69, 0
16, 47940, Note_on_c, 9, 69, 55
16, 47970, Note_on_c, 9, 69, 0
16, 47970, Note_on_c, 9, 69, 66
16, 48000, Note_on_c, 9, 69, 0
16, 48000, Note_on_c, 9, 69, 113
16, 48030, Note_on_c, 9, 69, 0
16, 48030, Note_on_c, 9, 69, 53
16, 48060, Note_on_c, 9, 69, 0
16, 48060, Note_on_c, 9, 69, 78
16, 48090, Note_on_c, 9, 69, 0
16, 48090, Note_on_c, 9, 69, 73
16, 48120, Note_on_c, 9, 69, 0
16, 48120, Note_on_c, 9, 69, 107
16, 48150, Note_on_c, 9, 69, 0
16, 48150, Note_on_c, 9, 69, 57
16, 48180, Note_on_c, 9, 69, 0
16, 48180, Note_on_c, 9, 69, 61
16, 48210, Note_on_c, 9, 69, 0
16, 48210, Note_on_c, 9, 69, 79
16, 48240, Note_on_c, 9, 69, 0
16, 48240, Note_on_c, 9, 69, 120
16, 48270, Note_on_c, 9, 69, 0
16, 48270, Note_on_c, 9, 69, 57
16, 48300, Note_on_c, 9, 69, 0
16, 48300, Note_on_c, 9, 69, 73
16, 48330, Note_on_c, 9, 69, 0
16, 48330, Note_on_c, 9, 69, 67
16, 48360, Note_on_c, 9, 69, 0
16, 48360, Note_on_c, 9, 69, 120
16, 48390, Note_on_c, 9, 69, 0
16, 48420, Note_on_c, 9, 69, 75
16, 48450, Note_on_c, 9, 69, 0
16, 48450, Note_on_c, 9, 69, 76
16, 48480, Note_on_c, 9, 69, 0
16, 48480, Note_on_c, 9, 69, 120
16, 48510, Note_on_c, 9, 69, 0
16, 48510, Note_on_c, 9, 69, 58
16, 48540, Note_on_c, 9, 69, 0
16, 48540, Note_on_c, 9, 69, 85
16, 48570, Note_on_c, 9, 69, 0
16, 48570, Note_on_c, 9, 69, 72
16, 48600, Note_on_c, 9, 69, 0
16, 48600, Note_on_c, 9, 69, 117
16, 48630, Note_on_c, 9, 69, 0
16, 48630, Note_on_c, 9, 69, 62
16, 48660, Note_on_c, 9, 69, 0
16, 48660, Note_on_c, 9, 69, 70
16, 48690, Note_on_c, 9, 69, 0
16, 48690, Note_on_c, 9, 69, 66
16, 48720, Note_on_c, 9, 69, 0
16, 48720, Note_on_c, 9, 69, 123
16, 48750, Note_on_c, 9, 69, 0
16, 48750, Note_on_c, 9, 69, 59
16, 48780, Note_on_c, 9, 69, 0
16, 48780, Note_on_c, 9, 69, 69
16, 48810, Note_on_c, 9, 69, 0
16, 48810, Note_on_c, 9, 69, 66
16, 48840, Note_on_c, 9, 69, 0
16, 48840, Note_on_c, 9, 69, 123
16, 48870, Note_on_c, 9, 69, 0
16, 48870, Note_on_c, 9, 69, 58
16, 48900, Note_on_c, 9, 69, 0
16, 48900, Note_on_c, 9, 69, 62
16, 48930, Note_on_c, 9, 69, 0
16, 48930, Note_on_c, 9, 69, 76
16, 48960, Note_on_c, 9, 69, 0
16, 48960, Note_on_c, 9, 69, 120
16, 48990, Note_on_c, 9, 69, 0
16, 48990, Note_on_c, 9, 69, 62
16, 49020, Note_on_c, 9, 69, 0
16, 49020, Note_on_c, 9, 69, 64
16, 49050, Note_on_c, 9, 69, 0
16, 49050, Note_on_c, 9, 69, 63
16, 49080, Note_on_c, 9, 69, 0
16, 49080, Note_on_c, 9, 69, 125
16, 49110, Note_on_c, 9, 69, 0
16, 49110, Note_on_c, 9, 69, 56
16, 49140, Note_on_c, 9, 69, 0
16, 49140, Note_on_c, 9, 69, 74
16, 49170, Note_on_c, 9, 69, 0
16, 49170, Note_on_c, 9, 69, 69
16, 49200, Note_on_c, 9, 69, 0
16, 49200, Note_on_c, 9, 69, 123
16, 49230, Note_on_c, 9, 69, 0
16, 49230, Note_on_c, 9, 69, 64
16, 49260, Note_on_c, 9, 69, 0
16, 49260, Note_on_c, 9, 69, 66
16, 49290, Note_on_c, 9, 69, 0
16, 49290, Note_on_c, 9, 69, 62
16, 49320, Note_on_c, 9, 69, 0
16, 49320, Note_on_c, 9, 69, 117
16, 49350, Note_on_c, 9, 69, 0
16, 49350, Note_on_c, 9, 69, 65
16, 49380, Note_on_c, 9, 69, 0
16, 49380, Note_on_c, 9, 69, 79
16, 49410, Note_on_c, 9, 69, 0
16, 49410, Note_on_c, 9, 69, 68
16, 49440, Note_on_c, 9, 69, 0
16, 49440, Note_on_c, 9, 69, 117
16, 49500, Note_on_c, 9, 69, 0
16, 49500, Note_on_c, 9, 69, 66
16, 49530, Note_on_c, 9, 69, 0
16, 49530, Note_on_c, 9, 69, 71
16, 49560, Note_on_c, 9, 69, 0
16, 49560, Note_on_c, 9, 69, 117
16, 49590, Note_on_c, 9, 69, 0
16, 49784, Control_c, 9, 64, 0
16, 49784, End_track
17, 0, Start_track
17, 0, MIDI_port, 0
17, 0, Title_t, "HiHat"
17, 0, Control_c, 9, 0, 62
17, 0, Control_c, 9, 32, 0
17, 0, Program_c, 9, 37
17, 0, Control_c, 9, 10, 34
17, 640, Control_c, 9, 64, 127
17, 713, Control_c, 9, 64, 0
17, 773, Control_c, 9, 64, 127
17, 841, Control_c, 9, 64, 0
17, 876, Control_c, 9, 64, 127
17, 942, Control_c, 9, 64, 0
17, 960, Note_on_c, 9, 42, 96
17, 974, Control_c, 9, 64, 127
17, 990, Note_on_c, 9, 42, 0
17, 1020, Note_on_c, 9, 42, 45
17, 1050, Note_on_c, 9, 42, 0
17, 1050, Note_on_c, 9, 42, 44
17, 1080, Note_on_c, 9, 42, 0
17, 1080, Note_on_c, 9, 42, 119
17, 1110, Note_on_c, 9, 42, 0
17, 1140, Note_on_c, 9, 42, 54
17, 1170, Note_on_c, 9, 42, 0
17, 1170, Note_on_c, 9, 42, 79
17, 1200, Note_on_c, 9, 42, 0
17, 1200, Note_on_c, 9, 42, 100
17, 1230, Note_on_c, 9, 42, 0
17, 1260, Note_on_c, 9, 42, 71
17, 1290, Note_on_c, 9, 42, 0
17, 1290, Note_on_c, 9, 42, 53
17, 1310, Control_c, 9, 64, 0
17, 1320, Note_on_c, 9, 42, 0
17, 1320, Note_on_c, 9, 42, 66
17, 1345, Control_c, 9, 64, 127
17, 1350, Note_on_c, 9, 42, 0
17, 1350, Note_on_c, 9, 42, 84
17, 1380, Note_on_c, 9, 42, 0
17, 1380, Note_on_c, 9, 42, 89
17, 1410, Note_on_c, 9, 42, 0
17, 1410, Note_on_c, 9, 42, 64
17, 1440, Note_on_c, 9, 42, 0
17, 1440, Note_on_c, 9, 42, 84
17, 1440, Note_on_c, 9, 42, 34
17, 1470, Note_on_c, 9, 42, 0
17, 1470, Note_on_c, 9, 42, 0
17, 1470, Note_on_c, 9, 42, 73
17, 1500, Note_on_c, 9, 42, 0
17, 1530, Note_on_c, 9, 42, 63
17, 1560, Note_on_c, 9, 42, 0
17, 1560, Note_on_c, 9, 42, 92
17, 1590, Note_on_c, 9, 42, 0
17, 1590, Note_on_c, 9, 42, 77
17, 1620, Note_on_c, 9, 42, 0
17, 1650, Note_on_c, 9, 42, 89
17, 1680, Note_on_c, 9, 42, 0
17, 1710, Note_on_c, 9, 42, 92
17, 1740, Note_on_c, 9, 42, 0
17, 1740, Note_on_c, 9, 42, 92
17, 1770, Note_on_c, 9, 42, 0
17, 1770, Note_on_c, 9, 42, 56
17, 1800, Note_on_c, 9, 42, 0
17, 1800, Note_on_c, 9, 42, 96
17, 1830, Note_on_c, 9, 42, 0
17, 1860, Note_on_c, 9, 42, 86
17, 1890, Note_on_c, 9, 42, 0
17, 1890, Note_on_c, 9, 42, 71
17, 1890, Note_on_c, 9, 42, 86
17, 1920, Note_on_c, 9, 42, 0
17, 1920, Note_on_c, 9, 42, 0
17, 1950, Note_on_c, 9, 42, 84
17, 1980, Note_on_c, 9, 42, 0
17, 2010, Note_on_c, 9, 42, 89
17, 2040, Note_on_c, 9, 42, 0
17, 2040, Note_on_c, 9, 42, 77
17, 2070, Note_on_c, 9, 42, 0
17, 2070, Note_on_c, 9, 42, 77
17, 2100, Note_on_c, 9, 42, 0
17, 2100, Note_on_c, 9, 42, 68
17, 2130, Note_on_c, 9, 42, 0
17, 2130, Note_on_c, 9, 42, 86
17, 2160, Note_on_c, 9, 42, 0
17, 2160, Note_on_c, 9, 42, 89
17, 2190, Note_on_c, 9, 42, 0
17, 2220, Note_on_c, 9, 42, 69
17, 2250, Note_on_c, 9, 42, 0
17, 2250, Note_on_c, 9, 42, 46
17, 2280, Note_on_c, 9, 42, 0
17, 2280, Note_on_c, 9, 42, 96
17, 2310, Note_on_c, 9, 42, 0
17, 2340, Note_on_c, 9, 42, 49
17, 2370, Note_on_c, 9, 42, 0
17, 2370, Note_on_c, 9, 42, 75
17, 2400, Note_on_c, 9, 42, 0
17, 2400, Note_on_c, 9, 42, 73
17, 2400, Note_on_c, 9, 42, 84
17, 2430, Note_on_c, 9, 42, 0
17, 2430, Note_on_c, 9, 42, 0
17, 2460, Note_on_c, 9, 42, 86
17, 2490, Note_on_c, 9, 42, 0
17, 2520, Note_on_c, 9, 42, 75
17, 2550, Note_on_c, 9, 42, 0
17, 2550, Note_on_c, 9, 42, 81
17, 2580, Note_on_c, 9, 42, 0
17, 2580, Note_on_c, 9, 42, 89
17, 2610, Note_on_c, 9, 42, 0
17, 2640, Note_on_c, 9, 42, 104
17, 2670, Note_on_c, 9, 42, 0
17, 2700, Note_on_c, 9, 42, 73
17, 2730, Note_on_c, 9, 42, 0
17, 2760, Note_on_c, 9, 42, 86
17, 2790, Note_on_c, 9, 42, 0
17, 2790, Note_on_c, 9, 42, 92
17, 2820, Note_on_c, 9, 42, 0
17, 2850, Note_on_c, 9, 42, 96
17, 2880, Note_on_c, 9, 42, 0
17, 2880, Note_on_c, 9, 56, 104
17, 2910, Note_on_c, 9, 56, 0
17, 2940, Note_on_c, 9, 42, 75
17, 2970, Note_on_c, 9, 42, 0
17, 2970, Note_on_c, 9, 42, 96
17, 3000, Note_on_c, 9, 42, 0
17, 3000, Note_on_c, 9, 42, 100
17, 3030, Note_on_c, 9, 42, 0
17, 3060, Note_on_c, 9, 42, 92
17, 3090, Note_on_c, 9, 42, 0
17, 3090, Note_on_c, 9, 42, 100
17, 3120, Note_on_c, 9, 42, 0
17, 3120, Note_on_c, 9, 42, 109
17, 3150, Note_on_c, 9, 42, 0
17, 3180, Note_on_c, 9, 42, 84
17, 3210, Note_on_c, 9, 42, 0
17, 3210, Note_on_c, 9, 42, 92
17, 3240, Note_on_c, 9, 42, 0
17, 3240, Note_on_c, 9, 42, 109
17, 3270, Note_on_c, 9, 42, 0
17, 3300, Note_on_c, 9, 42, 77
17, 3330, Note_on_c, 9, 42, 0
17, 3330, Note_on_c, 9, 42, 86
17, 3360, Note_on_c, 9, 42, 0
17, 3360, Note_on_c, 9, 42, 77
17, 3390, Note_on_c, 9, 42, 0
17, 3390, Note_on_c, 9, 42, 89
17, 3420, Note_on_c, 9, 42, 0
17, 3420, Note_on_c, 9, 42, 81
17, 3450, Note_on_c, 9, 42, 0
17, 3450, Note_on_c, 9, 42, 77
17, 3480, Note_on_c, 9, 42, 0
17, 3480, Note_on_c, 9, 42, 104
17, 3510, Note_on_c, 9, 42, 0
17, 3540, Note_on_c, 9, 42, 92
17, 3570, Note_on_c, 9, 42, 0
17, 3570, Note_on_c, 9, 42, 109
17, 3600, Note_on_c, 9, 42, 0
17, 3630, Note_on_c, 9, 42, 84
17, 3660, Note_on_c, 9, 42, 0
17, 3660, Note_on_c, 9, 42, 96
17, 3690, Note_on_c, 9, 42, 0
17, 3690, Note_on_c, 9, 42, 96
17, 3720, Note_on_c, 9, 42, 0
17, 3720, Note_on_c, 9, 42, 104
17, 3750, Note_on_c, 9, 42, 0
17, 3780, Note_on_c, 9, 42, 92
17, 3810, Note_on_c, 9, 42, 0
17, 3810, Note_on_c, 9, 42, 84
17, 3810, Note_on_c, 9, 42, 62
17, 3840, Note_on_c, 9, 42, 0
17, 3840, Note_on_c, 9, 42, 0
17, 3840, Note_on_c, 9, 42, 84
17, 3870, Note_on_c, 9, 42, 0
17, 3870, Note_on_c, 9, 42, 100
17, 3900, Note_on_c, 9, 42, 0
17, 3930, Note_on_c, 9, 42, 92
17, 3960, Note_on_c, 9, 42, 0
17, 3960, Note_on_c, 9, 42, 75
17, 3990, Note_on_c, 9, 42, 0
17, 3990, Note_on_c, 9, 42, 84
17, 4020, Note_on_c, 9, 42, 0
17, 4020, Note_on_c, 9, 42, 89
17, 4050, Note_on_c, 9, 42, 0
17, 4050, Note_on_c, 9, 42, 104
17, 4080, Note_on_c, 9, 42, 0
17, 4110, Note_on_c, 9, 42, 96
17, 4140, Note_on_c, 9, 42, 0
17, 4140, Note_on_c, 9, 42, 89
17, 4170, Note_on_c, 9, 42, 0
17, 4170, Note_on_c, 9, 42, 84
17, 4200, Note_on_c, 9, 42, 0
17, 4200, Note_on_c, 9, 42, 81
17, 4230, Note_on_c, 9, 42, 0
17, 4230, Note_on_c, 9, 42, 68
17, 4260, Note_on_c, 9, 42, 0
17, 4260, Note_on_c, 9, 42, 79
17, 4290, Note_on_c, 9, 42, 0
17, 4290, Note_on_c, 9, 42, 75
17, 4320, Note_on_c, 9, 42, 0
17, 4320, Note_on_c, 9, 42, 56
17, 4350, Note_on_c, 9, 42, 0
17, 4350, Note_on_c, 9, 42, 71
17, 4380, Note_on_c, 9, 42, 0
17, 4380, Note_on_c, 9, 42, 81
17, 4410, Note_on_c, 9, 42, 0
17, 4410, Note_on_c, 9, 42, 71
17, 4440, Note_on_c, 9, 42, 0
17, 4440, Note_on_c, 9, 42, 79
17, 4470, Note_on_c, 9, 42, 0
17, 4470, Note_on_c, 9, 42, 79
17, 4500, Note_on_c, 9, 42, 0
17, 4500, Note_on_c, 9, 42, 63
17, 4530, Note_on_c, 9, 42, 0
17, 4530, Note_on_c, 9, 42, 89
17, 4560, Note_on_c, 9, 42, 0
17, 4560, Note_on_c, 9, 42, 100
17, 4590, Note_on_c, 9, 42, 0
17, 4620, Note_on_c, 9, 42, 81
17, 4650, Note_on_c, 9, 42, 0
17, 4650, Note_on_c, 9, 42, 69
17, 4680, Note_on_c, 9, 42, 0
17, 4680, Note_on_c, 9, 42, 79
17, 4710, Note_on_c, 9, 42, 0
17, 4710, Note_on_c, 9, 42, 60
17, 4740, Note_on_c, 9, 42, 0
17, 4740, Note_on_c, 9, 42, 60
17, 4766, Control_c, 9, 64, 0
17, 4770, Note_on_c, 9, 42, 0
17, 4770, Note_on_c, 9, 42, 86
17, 4770, Note_on_c, 9, 42, 39
17, 4800, Note_on_c, 9, 42, 0
17, 4800, Note_on_c, 9, 42, 0
17, 4800, Note_on_c, 9, 42, 84
17, 4805, Control_c, 9, 64, 127
17, 4830, Note_on_c, 9, 42, 0
17, 4860, Note_on_c, 9, 42, 57
17, 4890, Note_on_c, 9, 42, 0
17, 4890, Note_on_c, 9, 42, 79
17, 4920, Note_on_c, 9, 42, 0
17, 4920, Note_on_c, 9, 42, 64
17, 4950, Note_on_c, 9, 42, 0
17, 4980, Note_on_c, 9, 42, 69
17, 5010, Note_on_c, 9, 42, 0
17, 5010, Note_on_c, 9, 42, 79
17, 5040, Note_on_c, 9, 42, 0
17, 5040, Note_on_c, 9, 42, 96
17, 5070, Note_on_c, 9, 42, 0
17, 5070, Note_on_c, 9, 42, 75
17, 5100, Note_on_c, 9, 42, 0
17, 5130, Note_on_c, 9, 42, 73
17, 5130, Note_on_c, 9, 42, 37
17, 5160, Note_on_c, 9, 42, 0
17, 5160, Note_on_c, 9, 42, 0
17, 5160, Note_on_c, 9, 42, 104
17, 5190, Note_on_c, 9, 42, 0
17, 5220, Note_on_c, 9, 42, 81
17, 5250, Note_on_c, 9, 42, 0
17, 5250, Note_on_c, 9, 42, 66
17, 5280, Note_on_c, 9, 42, 0
17, 5280, Note_on_c, 9, 42, 73
17, 5280, Note_on_c, 9, 42, 47
17, 5310, Note_on_c, 9, 42, 0
17, 5310, Note_on_c, 9, 42, 0
17, 5310, Note_on_c, 9, 42, 77
17, 5340, Note_on_c, 9, 42, 0
17, 5370, Note_on_c, 9, 42, 73
17, 5400, Note_on_c, 9, 42, 0
17, 5400, Note_on_c, 9, 42, 89
17, 5430, Note_on_c, 9, 42, 0
17, 5430, Note_on_c, 9, 42, 66
17, 5460, Note_on_c, 9, 42, 0
17, 5490, Note_on_c, 9, 42, 92
17, 5520, Note_on_c, 9, 42, 0
17, 5550, Note_on_c, 9, 42, 64
17, 5580, Note_on_c, 9, 42, 0
17, 5580, Note_on_c, 9, 42, 75
17, 5580, Note_on_c, 9, 42, 0
17, 5610, Note_on_c, 9, 42, 66
17, 5640, Note_on_c, 9, 42, 0
17, 5640, Note_on_c, 9, 42, 81
17, 5670, Note_on_c, 9, 42, 0
17, 5700, Note_on_c, 9, 42, 77
17, 5730, Note_on_c, 9, 42, 0
17, 5730, Note_on_c, 9, 42, 69
17, 5760, Note_on_c, 9, 42, 0
17, 5760, Note_on_c, 9, 42, 62
17, 5760, Note_on_c, 9, 42, 54
17, 5790, Note_on_c, 9, 42, 0
17, 5790, Note_on_c, 9, 42, 0
17, 5790, Note_on_c, 9, 42, 69
17, 5820, Note_on_c, 9, 42, 0
17, 5850, Note_on_c, 9, 42, 81
17, 5880, Note_on_c, 9, 42, 0
17, 5880, Note_on_c, 9, 42, 20
17, 5910, Note_on_c, 9, 42, 0
17, 5910, Note_on_c, 9, 42, 62
17, 5940, Note_on_c, 9, 42, 0
17, 5940, Note_on_c, 9, 42, 84
17, 5970, Note_on_c, 9, 42, 0
17, 5970, Note_on_c, 9, 42, 77
17, 6000, Note_on_c, 9, 42, 0
17, 6000, Note_on_c, 9, 42, 62
17, 6030, Note_on_c, 9, 42, 0
17, 6030, Note_on_c, 9, 42, 53
17, 6060, Note_on_c, 9, 42, 0
17, 6060, Note_on_c, 9, 42, 63
17, 6090, Note_on_c, 9, 42, 0
17, 6090, Note_on_c, 9, 42, 69
17, 6120, Note_on_c, 9, 42, 0
17, 6120, Note_on_c, 9, 42, 66
17, 6150, Note_on_c, 9, 42, 0
17, 6150, Note_on_c, 9, 42, 68
17, 6180, Note_on_c, 9, 42, 0
17, 6180, Note_on_c, 9, 42, 77
17, 6210, Note_on_c, 9, 42, 0
17, 6210, Note_on_c, 9, 42, 57
17, 6240, Note_on_c, 9, 42, 0
17, 6240, Note_on_c, 9, 42, 81
17, 6270, Note_on_c, 9, 42, 0
17, 6270, Note_on_c, 9, 42, 71
17, 6300, Note_on_c, 9, 42, 0
17, 6300, Note_on_c, 9, 42, 69
17, 6300, Note_on_c, 9, 42, 66
17, 6330, Note_on_c, 9, 42, 0
17, 6330, Note_on_c, 9, 42, 0
17, 6330, Note_on_c, 9, 42, 77
17, 6360, Note_on_c, 9, 42, 0
17, 6360, Note_on_c, 9, 42, 84
17, 6390, Note_on_c, 9, 42, 0
17, 6390, Note_on_c, 9, 42, 57
17, 6420, Note_on_c, 9, 42, 0
17, 6420, Note_on_c, 9, 42, 89
17, 6450, Note_on_c, 9, 42, 0
17, 6450, Note_on_c, 9, 42, 69
17, 6480, Note_on_c, 9, 42, 0
17, 6480, Note_on_c, 9, 42, 81
17, 6510, Note_on_c, 9, 42, 0
17, 6510, Note_on_c, 9, 42, 47
17, 6540, Note_on_c, 9, 42, 0
17, 6540, Note_on_c, 9, 42, 92
17, 6570, Note_on_c, 9, 42, 0
17, 6600, Note_on_c, 9, 42, 92
17, 6660, Note_on_c, 9, 42, 0
17, 6660, Note_on_c, 9, 57, 88
17, 6690, Note_on_c, 9, 57, 0
17, 6690, Note_on_c, 9, 42, 38
17, 6720, Note_on_c, 9, 42, 0
17, 6720, Note_on_c, 9, 42, 86
17, 6750, Note_on_c, 9, 42, 0
17, 6780, Note_on_c, 9, 42, 84
17, 6810, Note_on_c, 9, 42, 0
17, 6810, Note_on_c, 9, 42, 96
17, 6840, Note_on_c, 9, 42, 0
17, 6840, Note_on_c, 9, 42, 77
17, 6900, Note_on_c, 9, 42, 0
17, 6900, Note_on_c, 9, 42, 92
17, 6930, Note_on_c, 9, 42, 0
17, 6930, Note_on_c, 9, 42, 79
17, 6960, Note_on_c, 9, 42, 0
17, 6960, Note_on_c, 9, 42, 51
17, 6990, Note_on_c, 9, 42, 0
17, 6990, Note_on_c, 9, 42, 68
17, 7020, Note_on_c, 9, 42, 0
17, 7020, Note_on_c, 9, 42, 89
17, 7050, Note_on_c, 9, 42, 0
17, 7050, Note_on_c, 9, 42, 25
17, 7080, Note_on_c, 9, 42, 0
17, 7080, Note_on_c, 9, 42, 71
17, 7110, Note_on_c, 9, 42, 0
17, 7140, Note_on_c, 9, 42, 84
17, 7170, Note_on_c, 9, 42, 0
17, 7170, Note_on_c, 9, 42, 69
17, 7170, Note_on_c, 9, 42, 75
17, 7200, Note_on_c, 9, 42, 0
17, 7200, Note_on_c, 9, 42, 0
17, 7200, Note_on_c, 9, 42, 53
17, 7230, Note_on_c, 9, 42, 0
17, 7230, Note_on_c, 9, 42, 69
17, 7260, Note_on_c, 9, 42, 0
17, 7260, Note_on_c, 9, 42, 79
17, 7290, Note_on_c, 9, 42, 0
17, 7290, Note_on_c, 9, 42, 62
17, 7320, Note_on_c, 9, 42, 0
17, 7320, Note_on_c, 9, 42, 100
17, 7350, Note_on_c, 9, 42, 0
17, 7350, Note_on_c, 9, 42, 62
17, 7380, Note_on_c, 9, 42, 0
17, 7410, Note_on_c, 9, 42, 104
17, 7440, Note_on_c, 9, 42, 0
17, 7440, Note_on_c, 9, 42, 18
17, 7470, Note_on_c, 9, 42, 0
17, 7470, Note_on_c, 9, 42, 84
17, 7500, Note_on_c, 9, 42, 0
17, 7500, Note_on_c, 9, 42, 55
17, 7530, Note_on_c, 9, 42, 0
17, 7530, Note_on_c, 9, 42, 69
17, 7560, Note_on_c, 9, 42, 0
17, 7560, Note_on_c, 9, 42, 86
17, 7560, Note_on_c, 9, 42, 40
17, 7590, Note_on_c, 9, 42, 0
17, 7590, Note_on_c, 9, 42, 0
17, 7620, Note_on_c, 9, 42, 84
17, 7620, Note_on_c, 9, 42, 38
17, 7650, Note_on_c, 9, 42, 0
17, 7650, Note_on_c, 9, 42, 0
17, 7650, Note_on_c, 9, 42, 64
17, 7680, Note_on_c, 9, 42, 0
17, 7680, Note_on_c, 9, 42, 86
17, 7710, Note_on_c, 9, 42, 0
17, 7710, Note_on_c, 9, 42, 58
17, 7740, Note_on_c, 9, 42, 0
17, 7740, Note_on_c, 9, 42, 84
17, 7770, Note_on_c, 9, 42, 0
17, 7770, Note_on_c, 9, 42, 69
17, 7800, Note_on_c, 9, 42, 0
17, 7800, Note_on_c, 9, 42, 81
17, 7830, Note_on_c, 9, 42, 0
17, 7830, Note_on_c, 9, 42, 73
17, 7860, Note_on_c, 9, 42, 0
17, 7860, Note_on_c, 9, 42, 81
17, 7890, Note_on_c, 9, 42, 0
17, 7890, Note_on_c, 9, 42, 62
17, 7920, Note_on_c, 9, 42, 0
17, 7920, Note_on_c, 9, 42, 96
17, 7950, Note_on_c, 9, 42, 0
17, 7950, Note_on_c, 9, 42, 57
17, 7980, Note_on_c, 9, 42, 0
17, 7980, Note_on_c, 9, 42, 69
17, 8010, Note_on_c, 9, 42, 0
17, 8010, Note_on_c, 9, 42, 54
17, 8040, Note_on_c, 9, 42, 0
17, 8040, Note_on_c, 9, 42, 84
17, 8070, Note_on_c, 9, 42, 0
17, 8070, Note_on_c, 9, 42, 77
17, 8100, Note_on_c, 9, 42, 0
17, 8100, Note_on_c, 9, 42, 66
17, 8130, Note_on_c, 9, 42, 0
17, 8130, Note_on_c, 9, 42, 75
17, 8130, Note_on_c, 9, 42, 68
17, 8160, Note_on_c, 9, 42, 0
17, 8160, Note_on_c, 9, 42, 0
17, 8160, Note_on_c, 9, 42, 52
17, 8190, Note_on_c, 9, 42, 0
17, 8190, Note_on_c, 9, 42, 73
17, 8220, Note_on_c, 9, 42, 0
17, 8220, Note_on_c, 9, 42, 71
17, 8250, Note_on_c, 9, 42, 0
17, 8250, Note_on_c, 9, 42, 73
17, 8280, Note_on_c, 9, 42, 0
17, 8280, Note_on_c, 9, 42, 86
17, 8310, Note_on_c, 9, 42, 0
17, 8310, Note_on_c, 9, 42, 81
17, 8340, Note_on_c, 9, 42, 0
17, 8340, Note_on_c, 9, 42, 75
17, 8370, Note_on_c, 9, 42, 0
17, 8370, Note_on_c, 9, 42, 75
17, 8400, Note_on_c, 9, 42, 0
17, 8400, Note_on_c, 9, 42, 92
17, 8430, Note_on_c, 9, 42, 0
17, 8430, Note_on_c, 9, 42, 59
17, 8460, Note_on_c, 9, 42, 0
17, 8460, Note_on_c, 9, 42, 75
17, 8490, Note_on_c, 9, 42, 0
17, 8490, Note_on_c, 9, 42, 73
17, 8520, Note_on_c, 9, 42, 0
17, 8520, Note_on_c, 9, 42, 96
17, 8580, Note_on_c, 9, 42, 0
17, 8580, Note_on_c, 9, 55, 88
17, 8610, Note_on_c, 9, 55, 0
17, 8610, Note_on_c, 9, 42, 81
17, 8640, Note_on_c, 9, 42, 0
17, 8640, Note_on_c, 9, 42, 96
17, 8670, Note_on_c, 9, 42, 0
17, 8700, Note_on_c, 9, 42, 104
17, 8730, Note_on_c, 9, 42, 0
17, 8730, Note_on_c, 9, 42, 73
17, 8760, Note_on_c, 9, 42, 0
17, 8760, Note_on_c, 9, 42, 92
17, 8820, Note_on_c, 9, 42, 0
17, 8820, Note_on_c, 9, 42, 92
17, 8850, Note_on_c, 9, 42, 0
17, 8850, Note_on_c, 9, 42, 79
17, 8880, Note_on_c, 9, 42, 0
17, 8880, Note_on_c, 9, 42, 79
17, 8940, Note_on_c, 9, 42, 0
17, 8940, Note_on_c, 9, 42, 81
17, 8970, Note_on_c, 9, 42, 0
17, 8970, Note_on_c, 9, 42, 58
17, 9000, Note_on_c, 9, 42, 0
17, 9000, Note_on_c, 9, 42, 81
17, 9060, Note_on_c, 9, 42, 0
17, 9060, Note_on_c, 9, 42, 100
17, 9090, Note_on_c, 9, 42, 0
17, 9090, Note_on_c, 9, 42, 69
17, 9120, Note_on_c, 9, 42, 0
17, 9120, Note_on_c, 9, 42, 75
17, 9120, Note_on_c, 9, 42, 46
17, 9150, Note_on_c, 9, 42, 0
17, 9150, Note_on_c, 9, 42, 0
17, 9150, Note_on_c, 9, 42, 75
17, 9180, Note_on_c, 9, 42, 0
17, 9180, Note_on_c, 9, 42, 79
17, 9210, Note_on_c, 9, 42, 0
17, 9210, Note_on_c, 9, 42, 77
17, 9240, Note_on_c, 9, 42, 0
17, 9240, Note_on_c, 9, 42, 100
17, 9270, Note_on_c, 9, 42, 0
17, 9270, Note_on_c, 9, 42, 47
17, 9300, Note_on_c, 9, 42, 0
17, 9300, Note_on_c, 9, 42, 19
17, 9330, Note_on_c, 9, 42, 0
17, 9330, Note_on_c, 9, 42, 71
17, 9360, Note_on_c, 9, 42, 0
17, 9360, Note_on_c, 9, 42, 84
17, 9390, Note_on_c, 9, 42, 0
17, 9390, Note_on_c, 9, 42, 63
17, 9420, Note_on_c, 9, 42, 0
17, 9420, Note_on_c, 9, 42, 84
17, 9420, Note_on_c, 9, 42, 12
17, 9450, Note_on_c, 9, 42, 0
17, 9450, Note_on_c, 9, 42, 0
17, 9450, Note_on_c, 9, 42, 62
17, 9480, Note_on_c, 9, 42, 0
17, 9480, Note_on_c, 9, 42, 77
17, 9510, Note_on_c, 9, 42, 0
17, 9510, Note_on_c, 9, 42, 66
17, 9540, Note_on_c, 9, 42, 0
17, 9540, Note_on_c, 9, 42, 86
17, 9570, Note_on_c, 9, 42, 0
17, 9570, Note_on_c, 9, 42, 62
17, 9600, Note_on_c, 9, 42, 0
17, 9600, Note_on_c, 9, 42, 71
17, 9600, Note_on_c, 9, 42, 73
17, 9630, Note_on_c, 9, 42, 0
17, 9630, Note_on_c, 9, 42, 0
17, 9630, Note_on_c, 9, 42, 86
17, 9660, Note_on_c, 9, 42, 0
17, 9660, Note_on_c, 9, 42, 64
17, 9690, Note_on_c, 9, 42, 0
17, 9690, Note_on_c, 9, 42, 73
17, 9720, Note_on_c, 9, 42, 0
17, 9720, Note_on_c, 9, 42, 96
17, 9750, Note_on_c, 9, 42, 0
17, 9750, Note_on_c, 9, 42, 66
17, 9780, Note_on_c, 9, 42, 0
17, 9780, Note_on_c, 9, 42, 52
17, 9810, Note_on_c, 9, 42, 0
17, 9810, Note_on_c, 9, 42, 79
17, 9840, Note_on_c, 9, 42, 0
17, 9840, Note_on_c, 9, 42, 100
17, 9870, Note_on_c, 9, 42, 0
17, 9870, Note_on_c, 9, 42, 71
17, 9900, Note_on_c, 9, 42, 0
17, 9900, Note_on_c, 9, 42, 63
17, 9930, Note_on_c, 9, 42, 0
17, 9930, Note_on_c, 9, 42, 79
17, 9960, Note_on_c, 9, 42, 0
17, 9960, Note_on_c, 9, 42, 73
17, 9990, Note_on_c, 9, 42, 0
17, 9990, Note_on_c, 9, 42, 59
17, 10020, Note_on_c, 9, 42, 0
17, 10020, Note_on_c, 9, 42, 75
17, 10050, Note_on_c, 9, 42, 0
17, 10050, Note_on_c, 9, 42, 77
17, 10080, Note_on_c, 9, 42, 0
17, 10110, Note_on_c, 9, 42, 79
17, 10140, Note_on_c, 9, 42, 0
17, 10140, Note_on_c, 9, 42, 66
17, 10170, Note_on_c, 9, 42, 0
17, 10170, Note_on_c, 9, 42, 81
17, 10200, Note_on_c, 9, 42, 0
17, 10200, Note_on_c, 9, 42, 96
17, 10230, Note_on_c, 9, 42, 0
17, 10260, Note_on_c, 9, 42, 54
17, 10290, Note_on_c, 9, 42, 0
17, 10290, Note_on_c, 9, 42, 86
17, 10320, Note_on_c, 9, 42, 0
17, 10320, Note_on_c, 9, 42, 109
17, 10350, Note_on_c, 9, 42, 0
17, 10350, Note_on_c, 9, 42, 57
17, 10380, Note_on_c, 9, 42, 0
17, 10380, Note_on_c, 9, 42, 96
17, 10410, Note_on_c, 9, 42, 0
17, 10410, Note_on_c, 9, 42, 49
17, 10440, Note_on_c, 9, 42, 0
17, 10440, Note_on_c, 9, 42, 86
17, 10470, Note_on_c, 9, 42, 0
17, 10470, Note_on_c, 9, 42, 96
17, 10500, Note_on_c, 9, 42, 0
17, 10500, Note_on_c, 9, 42, 92
17, 10530, Note_on_c, 9, 42, 0
17, 10530, Note_on_c, 9, 42, 69
17, 10560, Note_on_c, 9, 42, 0
17, 10560, Note_on_c, 9, 42, 81
17, 10590, Note_on_c, 9, 42, 0
17, 10620, Note_on_c, 9, 42, 79
17, 10650, Note_on_c, 9, 42, 0
17, 10650, Note_on_c, 9, 42, 69
17, 10680, Note_on_c, 9, 42, 0
17, 10680, Note_on_c, 9, 42, 71
17, 10710, Note_on_c, 9, 42, 0
17, 10710, Note_on_c, 9, 42, 84
17, 10740, Note_on_c, 9, 42, 0
17, 10740, Note_on_c, 9, 42, 68
17, 10770, Note_on_c, 9, 42, 0
17, 10770, Note_on_c, 9, 42, 89
17, 10800, Note_on_c, 9, 42, 0
17, 10830, Note_on_c, 9, 42, 89
17, 10860, Note_on_c, 9, 42, 0
17, 10860, Note_on_c, 9, 42, 59
17, 10890, Note_on_c, 9, 42, 0
17, 10890, Note_on_c, 9, 42, 68
17, 10920, Note_on_c, 9, 42, 0
17, 10920, Note_on_c, 9, 42, 89
17, 10950, Note_on_c, 9, 42, 0
17, 10950, Note_on_c, 9, 42, 66
17, 10980, Note_on_c, 9, 42, 0
17, 10980, Note_on_c, 9, 44, 66
17, 11010, Note_on_c, 9, 44, 0
17, 11010, Note_on_c, 9, 42, 79
17, 11040, Note_on_c, 9, 42, 0
17, 11040, Note_on_c, 9, 42, 60
17, 11070, Note_on_c, 9, 42, 0
17, 11070, Note_on_c, 9, 42, 75
17, 11100, Note_on_c, 9, 42, 0
17, 11100, Note_on_c, 9, 42, 75
17, 11130, Note_on_c, 9, 42, 0
17, 11130, Note_on_c, 9, 42, 73
17, 11130, Note_on_c, 9, 42, 73
17, 11160, Note_on_c, 9, 42, 0
17, 11160, Note_on_c, 9, 42, 0
17, 11160, Note_on_c, 9, 42, 42
17, 11190, Note_on_c, 9, 42, 0
17, 11190, Note_on_c, 9, 42, 84
17, 11220, Note_on_c, 9, 42, 0
17, 11220, Note_on_c, 9, 42, 77
17, 11250, Note_on_c, 9, 42, 0
17, 11250, Note_on_c, 9, 42, 84
17, 11280, Note_on_c, 9, 42, 0
17, 11280, Note_on_c, 9, 42, 86
17, 11310, Note_on_c, 9, 42, 0
17, 11310, Note_on_c, 9, 42, 71
17, 11340, Note_on_c, 9, 42, 0
17, 11340, Note_on_c, 9, 42, 71
17, 11370, Note_on_c, 9, 42, 0
17, 11370, Note_on_c, 9, 42, 54
17, 11400, Note_on_c, 9, 42, 0
17, 11400, Note_on_c, 9, 42, 84
17, 11430, Note_on_c, 9, 42, 0
17, 11430, Note_on_c, 9, 42, 73
17, 11460, Note_on_c, 9, 42, 0
17, 11460, Note_on_c, 9, 42, 64
17, 11490, Note_on_c, 9, 42, 0
17, 11490, Note_on_c, 9, 42, 96
17, 11520, Note_on_c, 9, 42, 0
17, 11520, Note_on_c, 9, 42, 96
17, 11550, Note_on_c, 9, 42, 0
17, 11550, Note_on_c, 9, 42, 75
17, 11550, Note_on_c, 9, 42, 73
17, 11580, Note_on_c, 9, 42, 0
17, 11580, Note_on_c, 9, 42, 0
17, 11580, Note_on_c, 9, 42, 27
17, 11610, Note_on_c, 9, 42, 0
17, 11610, Note_on_c, 9, 42, 81
17, 11640, Note_on_c, 9, 42, 0
17, 11640, Note_on_c, 9, 42, 84
17, 11670, Note_on_c, 9, 42, 0
17, 11670, Note_on_c, 9, 42, 75
17, 11700, Note_on_c, 9, 42, 0
17, 11700, Note_on_c, 9, 42, 86
17, 11730, Note_on_c, 9, 42, 0
17, 11730, Note_on_c, 9, 42, 86
17, 11760, Note_on_c, 9, 42, 0
17, 11760, Note_on_c, 9, 42, 68
17, 11790, Note_on_c, 9, 42, 0
17, 11790, Note_on_c, 9, 42, 79
17, 11790, Note_on_c, 9, 42, 32
17, 11820, Note_on_c, 9, 42, 0
17, 11820, Note_on_c, 9, 42, 0
17, 11820, Note_on_c, 9, 42, 92
17, 11850, Note_on_c, 9, 42, 0
17, 11850, Note_on_c, 9, 42, 64
17, 11880, Note_on_c, 9, 42, 0
17, 11880, Note_on_c, 9, 42, 77
17, 11910, Note_on_c, 9, 42, 0
17, 11910, Note_on_c, 9, 42, 69
17, 11940, Note_on_c, 9, 42, 0
17, 11940, Note_on_c, 9, 42, 81
17, 11970, Note_on_c, 9, 42, 0
17, 11970, Note_on_c, 9, 42, 71
17, 12000, Note_on_c, 9, 42, 0
17, 12000, Note_on_c, 9, 42, 86
17, 12000, Note_on_c, 9, 42, 30
17, 12030, Note_on_c, 9, 42, 0
17, 12030, Note_on_c, 9, 42, 0
17, 12030, Note_on_c, 9, 42, 92
17, 12060, Note_on_c, 9, 42, 0
17, 12060, Note_on_c, 9, 42, 86
17, 12060, Note_on_c, 9, 42, 37
17, 12090, Note_on_c, 9, 42, 0
17, 12090, Note_on_c, 9, 42, 0
17, 12090, Note_on_c, 9, 42, 84
17, 12120, Note_on_c, 9, 42, 0
17, 12120, Note_on_c, 9, 42, 79
17, 12120, Note_on_c, 9, 42, 38
17, 12150, Note_on_c, 9, 42, 0
17, 12150, Note_on_c, 9, 42, 0
17, 12150, Note_on_c, 9, 42, 84
17, 12180, Note_on_c, 9, 42, 0
17, 12180, Note_on_c, 9, 42, 79
17, 12210, Note_on_c, 9, 42, 0
17, 12210, Note_on_c, 9, 42, 64
17, 12240, Note_on_c, 9, 42, 0
17, 12240, Note_on_c, 9, 42, 77
17, 12270, Note_on_c, 9, 42, 0
17, 12270, Note_on_c, 9, 42, 84
17, 12300, Note_on_c, 9, 42, 0
17, 12300, Note_on_c, 9, 42, 60
17, 12330, Note_on_c, 9, 42, 0
17, 12330, Note_on_c, 9, 42, 89
17, 12360, Note_on_c, 9, 42, 0
17, 12360, Note_on_c, 9, 55, 82
17, 12390, Note_on_c, 9, 55, 0
17, 12390, Note_on_c, 9, 42, 77
17, 12420, Note_on_c, 9, 42, 0
17, 12420, Note_on_c, 9, 42, 84
17, 12450, Note_on_c, 9, 42, 0
17, 12450, Note_on_c, 9, 55, 107
17, 12480, Note_on_c, 9, 55, 0
17, 12480, Note_on_c, 9, 42, 81
17, 12510, Note_on_c, 9, 42, 0
17, 12540, Note_on_c, 9, 42, 86
17, 12570, Note_on_c, 9, 42, 0
17, 12570, Note_on_c, 9, 42, 60
17, 12600, Note_on_c, 9, 42, 0
17, 12600, Note_on_c, 9, 42, 89
17, 12630, Note_on_c, 9, 42, 0
17, 12630, Note_on_c, 9, 42, 46
17, 12660, Note_on_c, 9, 42, 0
17, 12660, Note_on_c, 9, 42, 84
17, 12690, Note_on_c, 9, 42, 0
17, 12690, Note_on_c, 9, 42, 89
17, 12720, Note_on_c, 9, 42, 0
17, 12720, Note_on_c, 9, 42, 89
17, 12750, Note_on_c, 9, 42, 0
17, 12750, Note_on_c, 9, 42, 71
17, 12780, Note_on_c, 9, 42, 0
17, 12780, Note_on_c, 9, 42, 54
17, 12810, Note_on_c, 9, 42, 0
17, 12810, Note_on_c, 9, 42, 47
17, 12810, Note_on_c, 9, 42, 31
17, 12840, Note_on_c, 9, 42, 0
17, 12840, Note_on_c, 9, 42, 0
17, 12840, Note_on_c, 9, 42, 79
17, 12870, Note_on_c, 9, 42, 0
17, 12870, Note_on_c, 9, 42, 54
17, 12900, Note_on_c, 9, 42, 0
17, 12900, Note_on_c, 9, 42, 73
17, 12930, Note_on_c, 9, 42, 0
17, 12930, Note_on_c, 9, 42, 77
17, 12960, Note_on_c, 9, 42, 0
17, 12960, Note_on_c, 9, 42, 73
17, 12960, Note_on_c, 9, 42, 57
17, 12990, Note_on_c, 9, 42, 0
17, 12990, Note_on_c, 9, 42, 0
17, 12990, Note_on_c, 9, 42, 81
17, 13020, Note_on_c, 9, 42, 0
17, 13020, Note_on_c, 9, 42, 66
17, 13050, Note_on_c, 9, 42, 0
17, 13050, Note_on_c, 9, 42, 73
17, 13080, Note_on_c, 9, 42, 0
17, 13080, Note_on_c, 9, 42, 92
17, 13110, Note_on_c, 9, 42, 0
17, 13110, Note_on_c, 9, 42, 89
17, 13140, Note_on_c, 9, 42, 0
17, 13140, Note_on_c, 9, 42, 64
17, 13170, Note_on_c, 9, 42, 0
17, 13170, Note_on_c, 9, 42, 109
17, 13200, Note_on_c, 9, 42, 0
17, 13200, Note_on_c, 9, 42, 48
17, 13230, Note_on_c, 9, 42, 0
17, 13230, Note_on_c, 9, 42, 84
17, 13260, Note_on_c, 9, 42, 0
17, 13260, Note_on_c, 9, 42, 81
17, 13260, Note_on_c, 9, 42, 33
17, 13290, Note_on_c, 9, 42, 0
17, 13290, Note_on_c, 9, 42, 0
17, 13290, Note_on_c, 9, 42, 60
17, 13320, Note_on_c, 9, 42, 0
17, 13320, Note_on_c, 9, 42, 89
17, 13350, Note_on_c, 9, 42, 0
17, 13350, Note_on_c, 9, 42, 57
17, 13380, Note_on_c, 9, 42, 0
17, 13380, Note_on_c, 9, 42, 81
17, 13410, Note_on_c, 9, 42, 0
17, 13440, Note_on_c, 9, 42, 55
17, 13440, Note_on_c, 9, 42, 75
17, 13470, Note_on_c, 9, 42, 0
17, 13470, Note_on_c, 9, 42, 0
17, 13470, Note_on_c, 9, 42, 79
17, 13500, Note_on_c, 9, 42, 0
17, 13500, Note_on_c, 9, 42, 53
17, 13530, Note_on_c, 9, 42, 0
17, 13530, Note_on_c, 9, 42, 60
17, 13560, Note_on_c, 9, 42, 0
17, 13560, Note_on_c, 9, 42, 100
17, 13590, Note_on_c, 9, 42, 0
17, 13620, Note_on_c, 9, 42, 66
17, 13650, Note_on_c, 9, 42, 0
17, 13650, Note_on_c, 9, 42, 71
17, 13680, Note_on_c, 9, 42, 0
17, 13680, Note_on_c, 9, 42, 92
17, 13710, Note_on_c, 9, 42, 0
17, 13710, Note_on_c, 9, 42, 69
17, 13740, Note_on_c, 9, 42, 0
17, 13740, Note_on_c, 9, 42, 59
17, 13770, Note_on_c, 9, 42, 0
17, 13770, Note_on_c, 9, 42, 84
17, 13800, Note_on_c, 9, 42, 0
17, 13800, Note_on_c, 9, 42, 92
17, 13830, Note_on_c, 9, 42, 0
17, 13830, Note_on_c, 9, 42, 63
17, 13860, Note_on_c, 9, 42, 0
17, 13860, Note_on_c, 9, 42, 81
17, 13890, Note_on_c, 9, 42, 0
17, 13920, Note_on_c, 9, 42, 71
17, 13920, Note_on_c, 9, 42, 54
17, 13950, Note_on_c, 9, 42, 0
17, 13950, Note_on_c, 9, 42, 0
17, 13950, Note_on_c, 9, 42, 84
17, 13980, Note_on_c, 9, 42, 0
17, 13980, Note_on_c, 9, 42, 75
17, 14010, Note_on_c, 9, 42, 0
17, 14010, Note_on_c, 9, 42, 84
17, 14040, Note_on_c, 9, 42, 0
17, 14040, Note_on_c, 9, 42, 100
17, 14070, Note_on_c, 9, 42, 0
17, 14070, Note_on_c, 9, 42, 79
17, 14100, Note_on_c, 9, 42, 0
17, 14100, Note_on_c, 9, 42, 92
17, 14130, Note_on_c, 9, 42, 0
17, 14130, Note_on_c, 9, 42, 81
17, 14160, Note_on_c, 9, 42, 0
17, 14160, Note_on_c, 9, 42, 100
17, 14190, Note_on_c, 9, 42, 0
17, 14190, Note_on_c, 9, 42, 60
17, 14220, Note_on_c, 9, 42, 0
17, 14220, Note_on_c, 9, 42, 92
17, 14250, Note_on_c, 9, 42, 0
17, 14250, Note_on_c, 9, 42, 84
17, 14280, Note_on_c, 9, 42, 0
17, 14280, Note_on_c, 9, 42, 84
17, 14310, Note_on_c, 9, 42, 0
17, 14310, Note_on_c, 9, 42, 79
17, 14340, Note_on_c, 9, 42, 0
17, 14340, Note_on_c, 9, 42, 75
17, 14370, Note_on_c, 9, 42, 0
17, 14370, Note_on_c, 9, 42, 104
17, 14400, Note_on_c, 9, 42, 0
17, 14430, Note_on_c, 9, 42, 89
17, 14460, Note_on_c, 9, 42, 0
17, 14460, Note_on_c, 9, 42, 81
17, 14490, Note_on_c, 9, 42, 0
17, 14490, Note_on_c, 9, 42, 69
17, 14520, Note_on_c, 9, 42, 0
17, 14520, Note_on_c, 9, 42, 51
17, 14550, Note_on_c, 9, 42, 0
17, 14550, Note_on_c, 9, 42, 75
17, 14580, Note_on_c, 9, 42, 0
17, 14580, Note_on_c, 9, 42, 86
17, 14610, Note_on_c, 9, 42, 0
17, 14640, Note_on_c, 9, 42, 64
17, 14640, Note_on_c, 9, 42, 21
17, 14670, Note_on_c, 9, 42, 0
17, 14670, Note_on_c, 9, 42, 0
17, 14670, Note_on_c, 9, 42, 84
17, 14700, Note_on_c, 9, 42, 0
17, 14700, Note_on_c, 9, 42, 73
17, 14730, Note_on_c, 9, 42, 0
17, 14730, Note_on_c, 9, 42, 86
17, 14760, Note_on_c, 9, 42, 0
17, 14760, Note_on_c, 9, 42, 86
17, 14790, Note_on_c, 9, 42, 0
17, 14790, Note_on_c, 9, 42, 75
17, 14820, Note_on_c, 9, 42, 0
17, 14820, Note_on_c, 9, 42, 79
17, 14850, Note_on_c, 9, 42, 0
17, 14850, Note_on_c, 9, 42, 75
17, 14880, Note_on_c, 9, 42, 0
17, 14880, Note_on_c, 9, 42, 75
17, 14910, Note_on_c, 9, 42, 0
17, 14910, Note_on_c, 9, 42, 62
17, 14940, Note_on_c, 9, 42, 0
17, 14940, Note_on_c, 9, 42, 66
17, 14970, Note_on_c, 9, 42, 0
17, 14970, Note_on_c, 9, 42, 51
17, 15000, Note_on_c, 9, 42, 0
17, 15000, Note_on_c, 9, 42, 89
17, 15030, Note_on_c, 9, 42, 0
17, 15030, Note_on_c, 9, 42, 77
17, 15060, Note_on_c, 9, 42, 0
17, 15060, Note_on_c, 9, 42, 73
17, 15090, Note_on_c, 9, 42, 0
17, 15090, Note_on_c, 9, 42, 64
17, 15120, Note_on_c, 9, 42, 0
17, 15120, Note_on_c, 9, 42, 84
17, 15150, Note_on_c, 9, 42, 0
17, 15150, Note_on_c, 9, 42, 49
17, 15180, Note_on_c, 9, 42, 0
17, 15180, Note_on_c, 9, 55, 92
17, 15210, Note_on_c, 9, 55, 0
17, 15210, Note_on_c, 9, 42, 68
17, 15240, Note_on_c, 9, 42, 0
17, 15240, Note_on_c, 9, 42, 60
17, 15270, Note_on_c, 9, 42, 0
17, 15270, Note_on_c, 9, 42, 49
17, 15300, Note_on_c, 9, 42, 0
17, 15300, Note_on_c, 9, 55, 82
17, 15330, Note_on_c, 9, 55, 0
17, 15360, Note_on_c, 9, 42, 73
17, 15420, Note_on_c, 9, 42, 0
17, 15420, Note_on_c, 9, 42, 92
17, 15450, Note_on_c, 9, 42, 0
17, 15480, Note_on_c, 9, 42, 96
17, 15510, Note_on_c, 9, 42, 0
17, 15510, Note_on_c, 9, 42, 49
17, 15540, Note_on_c, 9, 42, 0
17, 15540, Note_on_c, 9, 42, 68
17, 15570, Note_on_c, 9, 42, 0
17, 15570, Note_on_c, 9, 42, 18
17, 15600, Note_on_c, 9, 42, 0
17, 15600, Note_on_c, 9, 42, 89
17, 15630, Note_on_c, 9, 42, 0
17, 15660, Note_on_c, 9, 42, 84
17, 15690, Note_on_c, 9, 42, 0
17, 15690, Note_on_c, 9, 42, 56
17, 15720, Note_on_c, 9, 42, 0
17, 15720, Note_on_c, 9, 42, 56
17, 15720, Note_on_c, 9, 42, 77
17, 15750, Note_on_c, 9, 42, 0
17, 15750, Note_on_c, 9, 42, 0
17, 15750, Note_on_c, 9, 42, 86
17, 15780, Note_on_c, 9, 42, 0
17, 15780, Note_on_c, 9, 42, 77
17, 15810, Note_on_c, 9, 42, 0
17, 15810, Note_on_c, 9, 42, 100
17, 15840, Note_on_c, 9, 42, 0
17, 15840, Note_on_c, 9, 42, 100
17, 15870, Note_on_c, 9, 42, 0
17, 15870, Note_on_c, 9, 42, 81
17, 15900, Note_on_c, 9, 42, 0
17, 15900, Note_on_c, 9, 42, 86
17, 15930, Note_on_c, 9, 42, 0
17, 15930, Note_on_c, 9, 42, 79
17, 15960, Note_on_c, 9, 42, 0
17, 15960, Note_on_c, 9, 42, 84
17, 15990, Note_on_c, 9, 42, 0
17, 15990, Note_on_c, 9, 42, 75
17, 16020, Note_on_c, 9, 42, 0
17, 16020, Note_on_c, 9, 42, 77
17, 16050, Note_on_c, 9, 42, 0
17, 16050, Note_on_c, 9, 42, 77
17, 16080, Note_on_c, 9, 42, 0
17, 16080, Note_on_c, 9, 42, 77
17, 16110, Note_on_c, 9, 42, 0
17, 16110, Note_on_c, 9, 42, 68
17, 16140, Note_on_c, 9, 42, 0
17, 16140, Note_on_c, 9, 42, 92
17, 16170, Note_on_c, 9, 42, 0
17, 16170, Note_on_c, 9, 42, 89
17, 16200, Note_on_c, 9, 42, 0
17, 16200, Note_on_c, 9, 42, 92
17, 16230, Note_on_c, 9, 42, 0
17, 16230, Note_on_c, 9, 42, 64
17, 16260, Note_on_c, 9, 42, 0
17, 16260, Note_on_c, 9, 42, 92
17, 16290, Note_on_c, 9, 42, 0
17, 16290, Note_on_c, 9, 42, 92
17, 16320, Note_on_c, 9, 42, 0
17, 16320, Note_on_c, 9, 42, 96
17, 16350, Note_on_c, 9, 42, 0
17, 16350, Note_on_c, 9, 42, 62
17, 16380, Note_on_c, 9, 42, 0
17, 16380, Note_on_c, 9, 42, 54
17, 16410, Note_on_c, 9, 42, 0
17, 16410, Note_on_c, 9, 42, 81
17, 16440, Note_on_c, 9, 42, 0
17, 16440, Note_on_c, 9, 42, 75
17, 16470, Note_on_c, 9, 42, 0
17, 16470, Note_on_c, 9, 42, 56
17, 16500, Note_on_c, 9, 42, 0
17, 16500, Note_on_c, 9, 42, 62
17, 16530, Note_on_c, 9, 42, 0
17, 16530, Note_on_c, 9, 42, 84
17, 16560, Note_on_c, 9, 42, 0
17, 16560, Note_on_c, 9, 42, 96
17, 16590, Note_on_c, 9, 42, 0
17, 16590, Note_on_c, 9, 42, 59
17, 16620, Note_on_c, 9, 42, 0
17, 16620, Note_on_c, 9, 42, 64
17, 16620, Note_on_c, 9, 42, 58
17, 16650, Note_on_c, 9, 42, 0
17, 16650, Note_on_c, 9, 42, 0
17, 16650, Note_on_c, 9, 42, 77
17, 16680, Note_on_c, 9, 42, 0
17, 16680, Note_on_c, 9, 42, 92
17, 16710, Note_on_c, 9, 42, 0
17, 16710, Note_on_c, 9, 42, 63
17, 16740, Note_on_c, 9, 42, 0
17, 16740, Note_on_c, 9, 42, 73
17, 16770, Note_on_c, 9, 42, 0
17, 16770, Note_on_c, 9, 42, 77
17, 16800, Note_on_c, 9, 42, 0
17, 16800, Note_on_c, 9, 42, 86
17, 16800, Note_on_c, 9, 42, 37
17, 16830, Note_on_c, 9, 42, 0
17, 16830, Note_on_c, 9, 42, 0
17, 16830, Note_on_c, 9, 42, 63
17, 16860, Note_on_c, 9, 42, 0
17, 16860, Note_on_c, 9, 42, 77
17, 16890, Note_on_c, 9, 42, 0
17, 16890, Note_on_c, 9, 42, 79
17, 16920, Note_on_c, 9, 42, 0
17, 16920, Note_on_c, 9, 42, 92
17, 16950, Note_on_c, 9, 42, 0
17, 16950, Note_on_c, 9, 42, 68
17, 16980, Note_on_c, 9, 42, 0
17, 16980, Note_on_c, 9, 42, 63
17, 17010, Note_on_c, 9, 42, 0
17, 17010, Note_on_c, 9, 42, 84
17, 17010, Note_on_c, 9, 42, 40
17, 17040, Note_on_c, 9, 42, 0
17, 17040, Note_on_c, 9, 42, 0
17, 17040, Note_on_c, 9, 42, 86
17, 17070, Note_on_c, 9, 42, 0
17, 17070, Note_on_c, 9, 42, 73
17, 17070, Note_on_c, 9, 42, 68
17, 17100, Note_on_c, 9, 42, 0
17, 17100, Note_on_c, 9, 42, 0
17, 17100, Note_on_c, 9, 42, 18
17, 17130, Note_on_c, 9, 42, 0
17, 17130, Note_on_c, 9, 42, 81
17, 17160, Note_on_c, 9, 42, 0
17, 17160, Note_on_c, 9, 42, 84
17, 17190, Note_on_c, 9, 42, 0
17, 17190, Note_on_c, 9, 42, 79
17, 17220, Note_on_c, 9, 42, 0
17, 17220, Note_on_c, 9, 42, 92
17, 17250, Note_on_c, 9, 42, 0
17, 17250, Note_on_c, 9, 42, 84
17, 17280, Note_on_c, 9, 42, 0
17, 17280, Note_on_c, 9, 42, 92
17, 17280, Note_on_c, 9, 42, 40
17, 17310, Note_on_c, 9, 42, 0
17, 17310, Note_on_c, 9, 42, 0
17, 17310, Note_on_c, 9, 42, 75
17, 17340, Note_on_c, 9, 42, 0
17, 17340, Note_on_c, 9, 42, 81
17, 17370, Note_on_c, 9, 42, 0
17, 17370, Note_on_c, 9, 42, 86
17, 17400, Note_on_c, 9, 42, 0
17, 17400, Note_on_c, 9, 42, 96
17, 17430, Note_on_c, 9, 42, 0
17, 17430, Note_on_c, 9, 42, 89
17, 17460, Note_on_c, 9, 42, 0
17, 17460, Note_on_c, 9, 42, 92
17, 17490, Note_on_c, 9, 42, 0
17, 17490, Note_on_c, 9, 42, 79
17, 17520, Note_on_c, 9, 42, 0
17, 17520, Note_on_c, 9, 42, 81
17, 17550, Note_on_c, 9, 42, 0
17, 17550, Note_on_c, 9, 42, 54
17, 17550, Note_on_c, 9, 42, 81
17, 17580, Note_on_c, 9, 42, 0
17, 17580, Note_on_c, 9, 42, 0
17, 17580, Note_on_c, 9, 42, 69
17, 17610, Note_on_c, 9, 42, 0
17, 17610, Note_on_c, 9, 42, 81
17, 17640, Note_on_c, 9, 42, 0
17, 17640, Note_on_c, 9, 42, 86
17, 17670, Note_on_c, 9, 42, 0
17, 17670, Note_on_c, 9, 42, 77
17, 17700, Note_on_c, 9, 42, 0
17, 17700, Note_on_c, 9, 42, 92
17, 17730, Note_on_c, 9, 42, 0
17, 17730, Note_on_c, 9, 42, 54
17, 17760, Note_on_c, 9, 42, 0
17, 17760, Note_on_c, 9, 42, 89
17, 17790, Note_on_c, 9, 42, 0
17, 17820, Note_on_c, 9, 42, 79
17, 17850, Note_on_c, 9, 42, 0
17, 17850, Note_on_c, 9, 42, 69
17, 17880, Note_on_c, 9, 42, 0
17, 17880, Note_on_c, 9, 42, 92
17, 17910, Note_on_c, 9, 42, 0
17, 17910, Note_on_c, 9, 42, 81
17, 17940, Note_on_c, 9, 42, 0
17, 17940, Note_on_c, 9, 42, 53
17, 17970, Note_on_c, 9, 42, 0
17, 17970, Note_on_c, 9, 42, 89
17, 18000, Note_on_c, 9, 42, 0
17, 18000, Note_on_c, 9, 42, 92
17, 18030, Note_on_c, 9, 42, 0
17, 18030, Note_on_c, 9, 42, 75
17, 18060, Note_on_c, 9, 42, 0
17, 18060, Note_on_c, 9, 42, 84
17, 18090, Note_on_c, 9, 42, 0
17, 18090, Note_on_c, 9, 42, 79
17, 18120, Note_on_c, 9, 42, 0
17, 18120, Note_on_c, 9, 42, 77
17, 18150, Note_on_c, 9, 42, 0
17, 18150, Note_on_c, 9, 42, 92
17, 18180, Note_on_c, 9, 42, 0
17, 18180, Note_on_c, 9, 44, 89
17, 18210, Note_on_c, 9, 44, 0
17, 18210, Note_on_c, 9, 42, 92
17, 18240, Note_on_c, 9, 42, 0
17, 18240, Note_on_c, 9, 42, 75
17, 18270, Note_on_c, 9, 42, 0
17, 18270, Note_on_c, 9, 42, 84
17, 18300, Note_on_c, 9, 42, 0
17, 18300, Note_on_c, 9, 42, 77
17, 18330, Note_on_c, 9, 42, 0
17, 18330, Note_on_c, 9, 42, 75
17, 18360, Note_on_c, 9, 42, 0
17, 18360, Note_on_c, 9, 42, 79
17, 18390, Note_on_c, 9, 42, 0
17, 18390, Note_on_c, 9, 42, 71
17, 18420, Note_on_c, 9, 42, 0
17, 18420, Note_on_c, 9, 42, 71
17, 18450, Note_on_c, 9, 42, 0
17, 18450, Note_on_c, 9, 42, 75
17, 18480, Note_on_c, 9, 42, 0
17, 18480, Note_on_c, 9, 42, 75
17, 18503, Control_c, 9, 64, 0
17, 18510, Note_on_c, 9, 42, 0
17, 18510, Note_on_c, 9, 42, 63
17, 18540, Note_on_c, 9, 42, 0
17, 18540, Control_c, 9, 64, 127
17, 18540, Note_on_c, 9, 42, 75
17, 18570, Note_on_c, 9, 42, 0
17, 18570, Note_on_c, 9, 42, 59
17, 18600, Note_on_c, 9, 42, 0
17, 18600, Note_on_c, 9, 42, 84
17, 18630, Note_on_c, 9, 42, 0
17, 18660, Note_on_c, 9, 42, 84
17, 18690, Note_on_c, 9, 42, 0
17, 18690, Note_on_c, 9, 42, 60
17, 18720, Note_on_c, 9, 42, 0
17, 18720, Note_on_c, 9, 42, 86
17, 18750, Note_on_c, 9, 42, 0
17, 18750, Note_on_c, 9, 42, 79
17, 18780, Note_on_c, 9, 42, 0
17, 18780, Note_on_c, 9, 42, 86
17, 18810, Note_on_c, 9, 42, 0
17, 18840, Note_on_c, 9, 42, 89
17, 18870, Note_on_c, 9, 42, 0
17, 18870, Note_on_c, 9, 42, 60
17, 18900, Note_on_c, 9, 42, 0
17, 18900, Note_on_c, 9, 42, 77
17, 18930, Note_on_c, 9, 42, 0
17, 18930, Note_on_c, 9, 42, 64
17, 18960, Note_on_c, 9, 42, 0
17, 18960, Note_on_c, 9, 42, 75
17, 18990, Note_on_c, 9, 42, 0
17, 18990, Note_on_c, 9, 42, 79
17, 19020, Note_on_c, 9, 42, 0
17, 19020, Note_on_c, 9, 42, 69
17, 19050, Note_on_c, 9, 42, 0
17, 19050, Note_on_c, 9, 42, 75
17, 19080, Note_on_c, 9, 42, 0
17, 19080, Note_on_c, 9, 42, 79
17, 19110, Note_on_c, 9, 42, 0
17, 19110, Note_on_c, 9, 42, 66
17, 19140, Note_on_c, 9, 42, 0
17, 19140, Note_on_c, 9, 42, 89
17, 19170, Note_on_c, 9, 42, 0
17, 19200, Note_on_c, 9, 42, 92
17, 19230, Note_on_c, 9, 42, 0
17, 19230, Note_on_c, 9, 42, 59
17, 19260, Note_on_c, 9, 42, 0
17, 19260, Note_on_c, 9, 42, 77
17, 19290, Note_on_c, 9, 42, 0
17, 19290, Note_on_c, 9, 42, 54
17, 19320, Note_on_c, 9, 42, 0
17, 19320, Note_on_c, 9, 42, 109
17, 19350, Note_on_c, 9, 42, 0
17, 19350, Note_on_c, 9, 42, 45
17, 19380, Note_on_c, 9, 42, 0
17, 19380, Note_on_c, 9, 42, 79
17, 19410, Note_on_c, 9, 42, 0
17, 19410, Note_on_c, 9, 42, 54
17, 19440, Note_on_c, 9, 42, 0
17, 19440, Note_on_c, 9, 42, 100
17, 19470, Note_on_c, 9, 42, 0
17, 19470, Note_on_c, 9, 42, 68
17, 19500, Note_on_c, 9, 42, 0
17, 19500, Note_on_c, 9, 42, 73
17, 19500, Note_on_c, 9, 42, 46
17, 19530, Note_on_c, 9, 42, 0
17, 19530, Note_on_c, 9, 42, 0
17, 19530, Note_on_c, 9, 42, 84
17, 19560, Note_on_c, 9, 42, 0
17, 19560, Note_on_c, 9, 42, 79
17, 19590, Note_on_c, 9, 42, 0
17, 19590, Note_on_c, 9, 42, 71
17, 19620, Note_on_c, 9, 42, 0
17, 19620, Note_on_c, 9, 42, 89
17, 19650, Note_on_c, 9, 42, 0
17, 19650, Note_on_c, 9, 42, 79
17, 19680, Note_on_c, 9, 42, 0
17, 19680, Note_on_c, 9, 42, 79
17, 19710, Note_on_c, 9, 42, 0
17, 19710, Note_on_c, 9, 42, 89
17, 19740, Note_on_c, 9, 42, 0
17, 19740, Note_on_c, 9, 42, 54
17, 19740, Note_on_c, 9, 42, 51
17, 19770, Note_on_c, 9, 42, 0
17, 19770, Note_on_c, 9, 42, 0
17, 19770, Note_on_c, 9, 42, 89
17, 19800, Note_on_c, 9, 42, 0
17, 19800, Note_on_c, 9, 42, 86
17, 19830, Note_on_c, 9, 42, 0
17, 19830, Note_on_c, 9, 42, 75
17, 19860, Note_on_c, 9, 42, 0
17, 19860, Note_on_c, 9, 42, 49
17, 19890, Note_on_c, 9, 42, 0
17, 19890, Note_on_c, 9, 42, 79
17, 19920, Note_on_c, 9, 42, 0
17, 19920, Note_on_c, 9, 42, 89
17, 19950, Note_on_c, 9, 42, 0
17, 19950, Note_on_c, 9, 42, 73
17, 19980, Note_on_c, 9, 42, 0
17, 19980, Note_on_c, 9, 42, 77
17, 20010, Note_on_c, 9, 42, 0
17, 20010, Note_on_c, 9, 42, 100
17, 20040, Note_on_c, 9, 42, 0
17, 20040, Note_on_c, 9, 42, 79
17, 20070, Note_on_c, 9, 42, 0
17, 20070, Note_on_c, 9, 42, 75
17, 20100, Note_on_c, 9, 42, 0
17, 20100, Note_on_c, 9, 42, 86
17, 20130, Note_on_c, 9, 42, 0
17, 20130, Note_on_c, 9, 42, 73
17, 20160, Note_on_c, 9, 42, 0
17, 20160, Note_on_c, 9, 42, 92
17, 20190, Note_on_c, 9, 42, 0
17, 20190, Note_on_c, 9, 42, 81
17, 20220, Note_on_c, 9, 42, 0
17, 20220, Note_on_c, 9, 42, 75
17, 20250, Note_on_c, 9, 42, 0
17, 20250, Note_on_c, 9, 42, 79
17, 20280, Note_on_c, 9, 42, 0
17, 20280, Note_on_c, 9, 42, 64
17, 20310, Note_on_c, 9, 42, 0
17, 20310, Note_on_c, 9, 42, 71
17, 20340, Note_on_c, 9, 42, 0
17, 20340, Note_on_c, 9, 42, 66
17, 20370, Note_on_c, 9, 42, 0
17, 20370, Note_on_c, 9, 42, 79
17, 20400, Note_on_c, 9, 42, 0
17, 20400, Note_on_c, 9, 42, 75
17, 20430, Note_on_c, 9, 42, 0
17, 20430, Note_on_c, 9, 42, 63
17, 20460, Note_on_c, 9, 42, 0
17, 20460, Note_on_c, 9, 42, 77
17, 20490, Note_on_c, 9, 42, 0
17, 20490, Note_on_c, 9, 42, 77
17, 20520, Note_on_c, 9, 42, 0
17, 20520, Note_on_c, 9, 42, 81
17, 20550, Note_on_c, 9, 42, 0
17, 20550, Note_on_c, 9, 42, 81
17, 20580, Note_on_c, 9, 42, 0
17, 20580, Note_on_c, 9, 42, 86
17, 20610, Note_on_c, 9, 42, 0
17, 20610, Note_on_c, 9, 42, 62
17, 20640, Note_on_c, 9, 42, 0
17, 20640, Note_on_c, 9, 42, 86
17, 20670, Note_on_c, 9, 42, 0
17, 20670, Note_on_c, 9, 42, 77
17, 20700, Note_on_c, 9, 42, 0
17, 20700, Note_on_c, 9, 42, 81
17, 20730, Note_on_c, 9, 42, 0
17, 20730, Note_on_c, 9, 42, 89
17, 20760, Note_on_c, 9, 42, 0
17, 20760, Note_on_c, 9, 42, 81
17, 20790, Note_on_c, 9, 42, 0
17, 20790, Note_on_c, 9, 42, 89
17, 20820, Note_on_c, 9, 42, 0
17, 20820, Note_on_c, 9, 42, 79
17, 20850, Note_on_c, 9, 42, 0
17, 20850, Note_on_c, 9, 42, 59
17, 20880, Note_on_c, 9, 42, 0
17, 20880, Note_on_c, 9, 42, 89
17, 20910, Note_on_c, 9, 42, 0
17, 20910, Note_on_c, 9, 42, 73
17, 20910, Note_on_c, 9, 42, 33
17, 20940, Note_on_c, 9, 42, 0
17, 20940, Note_on_c, 9, 42, 0
17, 20940, Note_on_c, 9, 42, 96
17, 20970, Note_on_c, 9, 42, 0
17, 20970, Note_on_c, 9, 42, 77
17, 21000, Note_on_c, 9, 42, 0
17, 21000, Note_on_c, 9, 42, 96
17, 21030, Note_on_c, 9, 42, 0
17, 21030, Note_on_c, 9, 42, 75
17, 21030, Note_on_c, 9, 42, 79
17, 21060, Note_on_c, 9, 42, 0
17, 21060, Note_on_c, 9, 42, 0
17, 21060, Note_on_c, 9, 42, 57
17, 21090, Note_on_c, 9, 42, 0
17, 21090, Note_on_c, 9, 42, 77
17, 21120, Note_on_c, 9, 42, 0
17, 21120, Note_on_c, 9, 42, 89
17, 21150, Note_on_c, 9, 42, 0
17, 21150, Note_on_c, 9, 42, 79
17, 21180, Note_on_c, 9, 42, 0
17, 21180, Note_on_c, 9, 42, 84
17, 21210, Note_on_c, 9, 42, 0
17, 21210, Note_on_c, 9, 42, 77
17, 21240, Note_on_c, 9, 42, 0
17, 21240, Note_on_c, 9, 42, 96
17, 21270, Note_on_c, 9, 42, 0
17, 21300, Note_on_c, 9, 42, 49
17, 21330, Note_on_c, 9, 42, 0
17, 21330, Note_on_c, 9, 42, 79
17, 21360, Note_on_c, 9, 42, 0
17, 21360, Note_on_c, 9, 42, 96
17, 21390, Note_on_c, 9, 42, 0
17, 21390, Note_on_c, 9, 42, 47
17, 21420, Note_on_c, 9, 42, 0
17, 21420, Note_on_c, 9, 42, 81
17, 21450, Note_on_c, 9, 42, 0
17, 21450, Note_on_c, 9, 42, 71
17, 21480, Note_on_c, 9, 42, 0
17, 21480, Note_on_c, 9, 42, 92
17, 21480, Note_on_c, 9, 42, 33
17, 21510, Note_on_c, 9, 42, 0
17, 21510, Note_on_c, 9, 42, 0
17, 21510, Note_on_c, 9, 42, 58
17, 21540, Note_on_c, 9, 42, 0
17, 21540, Note_on_c, 9, 42, 89
17, 21570, Note_on_c, 9, 42, 0
17, 21570, Note_on_c, 9, 42, 73
17, 21600, Note_on_c, 9, 42, 0
17, 21600, Note_on_c, 9, 42, 86
17, 21600, Note_on_c, 9, 42, 73
17, 21630, Note_on_c, 9, 42, 0
17, 21630, Note_on_c, 9, 42, 0
17, 21660, Note_on_c, 9, 42, 84
17, 21690, Note_on_c, 9, 42, 0
17, 21690, Note_on_c, 9, 42, 58
17, 21720, Note_on_c, 9, 42, 0
17, 21720, Note_on_c, 9, 42, 104
17, 21750, Note_on_c, 9, 42, 0
17, 21750, Note_on_c, 9, 42, 54
17, 21780, Note_on_c, 9, 42, 0
17, 21780, Note_on_c, 9, 42, 77
17, 21810, Note_on_c, 9, 42, 0
17, 21810, Note_on_c, 9, 42, 75
17, 21840, Note_on_c, 9, 42, 0
17, 21840, Note_on_c, 9, 42, 109
17, 21870, Note_on_c, 9, 42, 0
17, 21870, Note_on_c, 9, 42, 64
17, 21900, Note_on_c, 9, 42, 0
17, 21900, Note_on_c, 9, 42, 92
17, 21930, Note_on_c, 9, 42, 0
17, 21930, Note_on_c, 9, 42, 81
17, 21960, Note_on_c, 9, 42, 0
17, 21960, Note_on_c, 9, 42, 104
17, 21990, Note_on_c, 9, 42, 0
17, 21990, Note_on_c, 9, 42, 89
17, 22020, Note_on_c, 9, 42, 0
17, 22020, Note_on_c, 9, 42, 71
17, 22020, Note_on_c, 9, 42, 84
17, 22050, Note_on_c, 9, 42, 0
17, 22050, Note_on_c, 9, 42, 0
17, 22050, Note_on_c, 9, 42, 75
17, 22080, Note_on_c, 9, 42, 0
17, 22080, Note_on_c, 9, 42, 109
17, 22110, Note_on_c, 9, 42, 0
17, 22110, Note_on_c, 9, 42, 68
17, 22140, Note_on_c, 9, 42, 0
17, 22140, Note_on_c, 9, 42, 86
17, 22170, Note_on_c, 9, 42, 0
17, 22170, Note_on_c, 9, 42, 89
17, 22200, Note_on_c, 9, 42, 0
17, 22200, Note_on_c, 9, 42, 104
17, 22230, Note_on_c, 9, 42, 0
17, 22230, Note_on_c, 9, 42, 64
17, 22260, Note_on_c, 9, 42, 0
17, 22260, Note_on_c, 9, 42, 86
17, 22290, Note_on_c, 9, 42, 0
17, 22290, Note_on_c, 9, 42, 75
17, 22320, Note_on_c, 9, 42, 0
17, 22320, Note_on_c, 9, 42, 100
17, 22350, Note_on_c, 9, 42, 0
17, 22350, Note_on_c, 9, 42, 53
17, 22380, Note_on_c, 9, 42, 0
17, 22380, Note_on_c, 9, 42, 64
17, 22410, Note_on_c, 9, 42, 0
17, 22410, Note_on_c, 9, 42, 92
17, 22440, Note_on_c, 9, 42, 0
17, 22440, Note_on_c, 9, 42, 86
17, 22470, Note_on_c, 9, 42, 0
17, 22470, Note_on_c, 9, 42, 81
17, 22500, Note_on_c, 9, 42, 0
17, 22500, Note_on_c, 9, 42, 73
17, 22530, Note_on_c, 9, 42, 0
17, 22530, Note_on_c, 9, 42, 68
17, 22560, Note_on_c, 9, 42, 0
17, 22560, Note_on_c, 9, 42, 100
17, 22590, Note_on_c, 9, 42, 0
17, 22620, Note_on_c, 9, 42, 92
17, 22650, Note_on_c, 9, 42, 0
17, 22680, Note_on_c, 9, 42, 104
17, 22710, Note_on_c, 9, 42, 0
17, 22710, Note_on_c, 9, 42, 54
17, 22740, Note_on_c, 9, 42, 0
17, 22740, Note_on_c, 9, 42, 100
17, 22770, Note_on_c, 9, 42, 0
17, 22770, Note_on_c, 9, 42, 69
17, 22800, Note_on_c, 9, 42, 0
17, 22800, Note_on_c, 9, 42, 92
17, 22830, Note_on_c, 9, 42, 0
17, 22830, Note_on_c, 9, 42, 50
17, 22860, Note_on_c, 9, 42, 0
17, 22860, Note_on_c, 9, 42, 89
17, 22890, Note_on_c, 9, 42, 0
17, 22890, Note_on_c, 9, 42, 86
17, 22920, Note_on_c, 9, 42, 0
17, 22920, Note_on_c, 9, 42, 96
17, 22950, Note_on_c, 9, 42, 0
17, 22980, Note_on_c, 9, 42, 96
17, 23010, Note_on_c, 9, 42, 0
17, 23010, Note_on_c, 9, 55, 68
17, 23040, Note_on_c, 9, 55, 0
17, 23040, Note_on_c, 9, 42, 109
17, 23070, Note_on_c, 9, 42, 0
17, 23100, Note_on_c, 9, 42, 89
17, 23130, Note_on_c, 9, 42, 0
17, 23130, Note_on_c, 9, 42, 73
17, 23160, Note_on_c, 9, 42, 0
17, 23160, Note_on_c, 9, 42, 96
17, 23190, Note_on_c, 9, 42, 0
17, 23190, Note_on_c, 9, 42, 46
17, 23220, Note_on_c, 9, 42, 0
17, 23220, Note_on_c, 9, 42, 75
17, 23250, Note_on_c, 9, 42, 0
17, 23250, Note_on_c, 9, 42, 114
17, 23280, Note_on_c, 9, 42, 0
17, 23280, Note_on_c, 9, 42, 114
17, 23310, Note_on_c, 9, 42, 0
17, 23310, Note_on_c, 9, 42, 44
17, 23340, Note_on_c, 9, 42, 0
17, 23340, Note_on_c, 9, 42, 79
17, 23340, Note_on_c, 9, 42, 0
17, 23370, Note_on_c, 9, 42, 100
17, 23400, Note_on_c, 9, 42, 0
17, 23400, Note_on_c, 9, 42, 96
17, 23430, Note_on_c, 9, 42, 0
17, 23430, Note_on_c, 9, 42, 73
17, 23460, Note_on_c, 9, 42, 0
17, 23460, Note_on_c, 9, 42, 96
17, 23490, Note_on_c, 9, 42, 0
17, 23490, Note_on_c, 9, 42, 109
17, 23520, Note_on_c, 9, 42, 0
17, 23520, Note_on_c, 9, 42, 109
17, 23550, Note_on_c, 9, 42, 0
17, 23580, Note_on_c, 9, 42, 86
17, 23610, Note_on_c, 9, 42, 0
17, 23610, Note_on_c, 9, 42, 100
17, 23640, Note_on_c, 9, 42, 0
17, 23640, Note_on_c, 9, 42, 100
17, 23640, Note_on_c, 9, 42, 43
17, 23670, Note_on_c, 9, 42, 0
17, 23670, Note_on_c, 9, 42, 0
17, 23670, Note_on_c, 9, 42, 79
17, 23700, Note_on_c, 9, 42, 0
17, 23700, Note_on_c, 9, 42, 79
17, 23730, Note_on_c, 9, 42, 0
17, 23730, Note_on_c, 9, 42, 92
17, 23760, Note_on_c, 9, 42, 0
17, 23760, Note_on_c, 9, 42, 104
17, 23790, Note_on_c, 9, 42, 0
17, 23790, Note_on_c, 9, 42, 77
17, 23820, Note_on_c, 9, 42, 0
17, 23820, Note_on_c, 9, 55, 107
17, 23850, Note_on_c, 9, 55, 0
17, 23880, Note_on_c, 9, 42, 75
17, 23910, Note_on_c, 9, 42, 0
17, 23910, Note_on_c, 9, 42, 75
17, 23940, Note_on_c, 9, 42, 0
17, 23940, Note_on_c, 9, 55, 110
17, 23970, Note_on_c, 9, 55, 0
17, 24000, Note_on_c, 9, 42, 114
17, 24030, Note_on_c, 9, 42, 0
17, 24060, Note_on_c, 9, 42, 96
17, 24090, Note_on_c, 9, 42, 0
17, 24090, Note_on_c, 9, 42, 84
17, 24120, Note_on_c, 9, 42, 0
17, 24120, Note_on_c, 9, 42, 119
17, 24150, Note_on_c, 9, 42, 0
17, 24150, Note_on_c, 9, 42, 45
17, 24180, Note_on_c, 9, 42, 0
17, 24210, Note_on_c, 9, 42, 84
17, 24240, Note_on_c, 9, 42, 0
17, 24240, Note_on_c, 9, 42, 114
17, 24270, Note_on_c, 9, 42, 0
17, 24300, Note_on_c, 9, 42, 86
17, 24330, Note_on_c, 9, 42, 0
17, 24330, Note_on_c, 9, 42, 75
17, 24360, Note_on_c, 9, 42, 0
17, 24360, Note_on_c, 9, 42, 100
17, 24390, Note_on_c, 9, 42, 0
17, 24390, Note_on_c, 9, 42, 81
17, 24420, Note_on_c, 9, 42, 0
17, 24420, Note_on_c, 9, 42, 84
17, 24450, Note_on_c, 9, 42, 0
17, 24450, Note_on_c, 9, 42, 96
17, 24480, Note_on_c, 9, 42, 0
17, 24480, Note_on_c, 9, 42, 104
17, 24510, Note_on_c, 9, 42, 0
17, 24510, Note_on_c, 9, 42, 79
17, 24540, Note_on_c, 9, 42, 0
17, 24540, Note_on_c, 9, 42, 66
17, 24570, Note_on_c, 9, 42, 0
17, 24570, Note_on_c, 9, 42, 119
17, 24600, Note_on_c, 9, 42, 0
17, 24600, Note_on_c, 9, 42, 109
17, 24630, Note_on_c, 9, 42, 0
17, 24630, Note_on_c, 9, 42, 92
17, 24660, Note_on_c, 9, 42, 0
17, 24660, Note_on_c, 9, 42, 96
17, 24690, Note_on_c, 9, 42, 0
17, 24690, Note_on_c, 9, 42, 81
17, 24720, Note_on_c, 9, 42, 0
17, 24720, Note_on_c, 9, 42, 100
17, 24750, Note_on_c, 9, 42, 0
17, 24750, Note_on_c, 9, 42, 62
17, 24780, Note_on_c, 9, 42, 0
17, 24780, Note_on_c, 9, 55, 92
17, 24810, Note_on_c, 9, 55, 0
17, 24810, Note_on_c, 9, 42, 64
17, 24810, Note_on_c, 9, 42, 50
17, 24840, Note_on_c, 9, 42, 0
17, 24840, Note_on_c, 9, 42, 0
17, 24840, Note_on_c, 9, 42, 73
17, 24870, Note_on_c, 9, 42, 0
17, 24900, Note_on_c, 9, 42, 53
17, 24900, Note_on_c, 9, 42, 75
17, 24930, Note_on_c, 9, 42, 0
17, 24930, Note_on_c, 9, 42, 0
17, 24960, Note_on_c, 9, 42, 104
17, 24990, Note_on_c, 9, 42, 0
17, 24990, Note_on_c, 9, 42, 77
17, 25020, Note_on_c, 9, 42, 0
17, 25020, Note_on_c, 9, 42, 51
17, 25050, Note_on_c, 9, 42, 0
17, 25050, Note_on_c, 9, 42, 79
17, 25080, Note_on_c, 9, 42, 0
17, 25080, Note_on_c, 9, 42, 114
17, 25110, Note_on_c, 9, 42, 0
17, 25110, Note_on_c, 9, 42, 64
17, 25140, Note_on_c, 9, 42, 0
17, 25140, Note_on_c, 9, 42, 54
17, 25170, Note_on_c, 9, 42, 0
17, 25170, Note_on_c, 9, 42, 119
17, 25200, Note_on_c, 9, 42, 0
17, 25200, Note_on_c, 9, 42, 114
17, 25230, Note_on_c, 9, 42, 0
17, 25230, Note_on_c, 9, 42, 77
17, 25260, Note_on_c, 9, 42, 0
17, 25260, Note_on_c, 9, 42, 64
17, 25290, Note_on_c, 9, 42, 0
17, 25290, Note_on_c, 9, 42, 119
17, 25320, Note_on_c, 9, 42, 0
17, 25320, Note_on_c, 9, 42, 114
17, 25350, Note_on_c, 9, 42, 0
17, 25380, Note_on_c, 9, 42, 96
17, 25410, Note_on_c, 9, 42, 0
17, 25410, Note_on_c, 9, 42, 119
17, 25440, Note_on_c, 9, 42, 0
17, 25440, Note_on_c, 9, 42, 89
17, 25470, Note_on_c, 9, 42, 0
17, 25470, Note_on_c, 9, 42, 63
17, 25500, Note_on_c, 9, 42, 0
17, 25500, Note_on_c, 9, 42, 104
17, 25530, Note_on_c, 9, 42, 0
17, 25560, Note_on_c, 9, 42, 84
17, 25590, Note_on_c, 9, 42, 0
17, 25590, Note_on_c, 9, 42, 104
17, 25620, Note_on_c, 9, 42, 0
17, 25620, Note_on_c, 9, 42, 96
17, 25620, Note_on_c, 9, 42, 0
17, 25620, Note_on_c, 9, 42, 31
17, 25650, Note_on_c, 9, 42, 0
17, 25650, Note_on_c, 9, 42, 66
17, 25680, Note_on_c, 9, 42, 0
17, 25680, Note_on_c, 9, 42, 109
17, 25710, Note_on_c, 9, 42, 0
17, 25740, Note_on_c, 9, 55, 85
17, 25770, Note_on_c, 9, 55, 0
17, 25800, Note_on_c, 9, 42, 104
17, 25830, Note_on_c, 9, 42, 0
17, 25830, Note_on_c, 9, 42, 56
17, 25860, Note_on_c, 9, 42, 0
17, 25860, Note_on_c, 9, 55, 94
17, 25890, Note_on_c, 9, 55, 0
17, 25920, Note_on_c, 9, 42, 89
17, 25950, Note_on_c, 9, 42, 0
17, 25950, Note_on_c, 9, 42, 47
17, 25980, Note_on_c, 9, 42, 0
17, 25980, Note_on_c, 9, 55, 113
17, 26010, Note_on_c, 9, 55, 0
17, 26040, Note_on_c, 9, 42, 86
17, 26070, Note_on_c, 9, 42, 0
17, 26070, Note_on_c, 9, 42, 75
17, 26100, Note_on_c, 9, 42, 0
17, 26100, Note_on_c, 9, 55, 117
17, 26130, Note_on_c, 9, 55, 0
17, 26160, Note_on_c, 9, 42, 92
17, 26190, Note_on_c, 9, 42, 0
17, 26190, Note_on_c, 9, 42, 63
17, 26220, Note_on_c, 9, 42, 0
17, 26220, Note_on_c, 9, 55, 117
17, 26250, Note_on_c, 9, 55, 0
17, 26280, Note_on_c, 9, 42, 104
17, 26310, Note_on_c, 9, 42, 0
17, 26310, Note_on_c, 9, 42, 51
17, 26340, Note_on_c, 9, 42, 0
17, 26340, Note_on_c, 9, 55, 104
17, 26370, Note_on_c, 9, 55, 0
17, 26370, Note_on_c, 9, 42, 81
17, 26400, Note_on_c, 9, 42, 0
17, 26400, Note_on_c, 9, 42, 84
17, 26430, Note_on_c, 9, 42, 0
17, 26460, Note_on_c, 9, 55, 97
17, 26490, Note_on_c, 9, 55, 0
17, 26520, Note_on_c, 9, 42, 100
17, 26550, Note_on_c, 9, 42, 0
17, 26550, Note_on_c, 9, 42, 56
17, 26580, Note_on_c, 9, 42, 0
17, 26580, Note_on_c, 9, 55, 107
17, 26610, Note_on_c, 9, 55, 0
17, 26640, Note_on_c, 9, 42, 96
17, 26670, Note_on_c, 9, 42, 0
17, 26670, Note_on_c, 9, 42, 54
17, 26700, Note_on_c, 9, 42, 0
17, 26700, Note_on_c, 9, 55, 99
17, 26730, Note_on_c, 9, 55, 0
17, 26760, Note_on_c, 9, 42, 81
17, 26790, Note_on_c, 9, 42, 0
17, 26790, Note_on_c, 9, 42, 47
17, 26820, Note_on_c, 9, 42, 0
17, 26820, Note_on_c, 9, 55, 117
17, 26850, Note_on_c, 9, 55, 0
17, 26880, Note_on_c, 9, 42, 92
17, 26910, Note_on_c, 9, 42, 0
17, 26910, Note_on_c, 9, 42, 60
17, 26940, Note_on_c, 9, 42, 0
17, 26940, Note_on_c, 9, 55, 110
17, 26970, Note_on_c, 9, 55, 0
17, 27000, Note_on_c, 9, 42, 89
17, 27030, Note_on_c, 9, 42, 0
17, 27030, Note_on_c, 9, 42, 59
17, 27060, Note_on_c, 9, 42, 0
17, 27060, Note_on_c, 9, 55, 113
17, 27090, Note_on_c, 9, 55, 0
17, 27120, Note_on_c, 9, 42, 81
17, 27150, Note_on_c, 9, 42, 0
17, 27150, Note_on_c, 9, 42, 64
17, 27180, Note_on_c, 9, 42, 0
17, 27180, Note_on_c, 9, 55, 104
17, 27210, Note_on_c, 9, 55, 0
17, 27240, Note_on_c, 9, 42, 84
17, 27270, Note_on_c, 9, 42, 0
17, 27270, Note_on_c, 9, 42, 52
17, 27300, Note_on_c, 9, 42, 0
17, 27300, Note_on_c, 9, 55, 110
17, 27330, Note_on_c, 9, 55, 0
17, 27360, Note_on_c, 9, 42, 81
17, 27390, Note_on_c, 9, 42, 0
17, 27390, Note_on_c, 9, 42, 68
17, 27420, Note_on_c, 9, 42, 0
17, 27420, Note_on_c, 9, 55, 113
17, 27450, Note_on_c, 9, 55, 0
17, 27480, Note_on_c, 9, 42, 96
17, 27510, Note_on_c, 9, 42, 0
17, 27510, Note_on_c, 9, 42, 51
17, 27540, Note_on_c, 9, 42, 0
17, 27540, Note_on_c, 9, 55, 113
17, 27570, Note_on_c, 9, 55, 0
17, 27570, Note_on_c, 9, 42, 96
17, 27600, Note_on_c, 9, 42, 0
17, 27600, Note_on_c, 9, 42, 92
17, 27630, Note_on_c, 9, 42, 0
17, 27660, Note_on_c, 9, 55, 97
17, 27690, Note_on_c, 9, 55, 0
17, 27690, Note_on_c, 9, 42, 77
17, 27720, Note_on_c, 9, 42, 0
17, 27720, Note_on_c, 9, 42, 89
17, 27750, Note_on_c, 9, 42, 0
17, 27780, Note_on_c, 9, 55, 83
17, 27810, Note_on_c, 9, 55, 0
17, 27810, Note_on_c, 9, 42, 86
17, 27840, Note_on_c, 9, 42, 0
17, 27840, Note_on_c, 9, 42, 100
17, 27900, Note_on_c, 9, 42, 0
17, 27900, Note_on_c, 9, 55, 69
17, 27930, Note_on_c, 9, 55, 0
17, 27930, Note_on_c, 9, 42, 81
17, 27960, Note_on_c, 9, 42, 0
17, 27960, Note_on_c, 9, 42, 75
17, 27990, Note_on_c, 9, 42, 0
17, 28020, Note_on_c, 9, 55, 71
17, 28050, Note_on_c, 9, 55, 0
17, 28050, Note_on_c, 9, 42, 69
17, 28080, Note_on_c, 9, 42, 0
17, 28080, Note_on_c, 9, 42, 100
17, 28110, Note_on_c, 9, 42, 0
17, 28140, Note_on_c, 9, 55, 65
17, 28170, Note_on_c, 9, 55, 0
17, 28170, Note_on_c, 9, 42, 75
17, 28200, Note_on_c, 9, 42, 0
17, 28200, Note_on_c, 9, 42, 96
17, 28260, Note_on_c, 9, 42, 0
17, 28260, Note_on_c, 9, 55, 75
17, 28290, Note_on_c, 9, 55, 0
17, 28290, Note_on_c, 9, 42, 92
17, 28320, Note_on_c, 9, 42, 0
17, 28320, Note_on_c, 9, 42, 86
17, 28350, Note_on_c, 9, 42, 0
17, 28380, Note_on_c, 9, 55, 88
17, 28410, Note_on_c, 9, 55, 0
17, 28410, Note_on_c, 9, 42, 73
17, 28440, Note_on_c, 9, 42, 0
17, 28440, Note_on_c, 9, 42, 92
17, 28500, Note_on_c, 9, 42, 0
17, 28500, Note_on_c, 9, 55, 79
17, 28530, Note_on_c, 9, 55, 0
17, 28530, Note_on_c, 9, 42, 89
17, 28560, Note_on_c, 9, 42, 0
17, 28560, Note_on_c, 9, 42, 100
17, 28620, Note_on_c, 9, 42, 0
17, 28620, Note_on_c, 9, 55, 85
17, 28650, Note_on_c, 9, 55, 0
17, 28650, Note_on_c, 9, 42, 86
17, 28680, Note_on_c, 9, 42, 0
17, 28680, Note_on_c, 9, 42, 96
17, 28740, Note_on_c, 9, 42, 0
17, 28740, Note_on_c, 9, 55, 75
17, 28770, Note_on_c, 9, 55, 0
17, 28770, Note_on_c, 9, 42, 89
17, 28800, Note_on_c, 9, 42, 0
17, 28800, Note_on_c, 9, 42, 77
17, 28860, Note_on_c, 9, 42, 0
17, 28860, Note_on_c, 9, 55, 57
17, 28890, Note_on_c, 9, 55, 0
17, 28890, Note_on_c, 9, 42, 69
17, 28920, Note_on_c, 9, 42, 0
17, 28920, Note_on_c, 9, 42, 92
17, 28980, Note_on_c, 9, 42, 0
17, 28980, Note_on_c, 9, 55, 64
17, 29010, Note_on_c, 9, 55, 0
17, 29010, Note_on_c, 9, 42, 75
17, 29040, Note_on_c, 9, 42, 0
17, 29040, Note_on_c, 9, 42, 81
17, 29100, Note_on_c, 9, 42, 0
17, 29100, Note_on_c, 9, 55, 58
17, 29130, Note_on_c, 9, 55, 0
17, 29130, Note_on_c, 9, 42, 63
17, 29160, Note_on_c, 9, 42, 0
17, 29160, Note_on_c, 9, 42, 84
17, 29220, Note_on_c, 9, 42, 0
17, 29280, Note_on_c, 9, 42, 96
17, 29340, Note_on_c, 9, 42, 0
17, 29340, Note_on_c, 9, 55, 56
17, 29370, Note_on_c, 9, 55, 0
17, 29370, Note_on_c, 9, 42, 66
17, 29400, Note_on_c, 9, 42, 0
17, 29400, Note_on_c, 9, 42, 96
17, 29460, Note_on_c, 9, 42, 0
17, 29460, Note_on_c, 9, 46, 77
17, 29490, Note_on_c, 9, 46, 0
17, 29490, Note_on_c, 9, 42, 79
17, 29520, Note_on_c, 9, 42, 0
17, 29520, Note_on_c, 9, 42, 89
17, 29580, Note_on_c, 9, 42, 0
17, 29580, Note_on_c, 9, 46, 84
17, 29610, Note_on_c, 9, 46, 0
17, 29610, Note_on_c, 9, 42, 86
17, 29640, Note_on_c, 9, 42, 0
17, 29640, Note_on_c, 9, 42, 96
17, 29700, Note_on_c, 9, 42, 0
17, 29700, Note_on_c, 9, 46, 114
17, 29730, Note_on_c, 9, 46, 0
17, 29730, Note_on_c, 9, 42, 100
17, 29760, Note_on_c, 9, 42, 0
17, 29760, Note_on_c, 9, 42, 89
17, 29820, Note_on_c, 9, 42, 0
17, 29820, Note_on_c, 9, 46, 109
17, 29850, Note_on_c, 9, 46, 0
17, 29850, Note_on_c, 9, 42, 86
17, 29880, Note_on_c, 9, 42, 0
17, 29880, Note_on_c, 9, 42, 104
17, 29940, Note_on_c, 9, 42, 0
17, 29970, Note_on_c, 9, 42, 86
17, 30000, Note_on_c, 9, 42, 0
17, 30000, Note_on_c, 9, 42, 96
17, 30060, Note_on_c, 9, 42, 0
17, 30060, Note_on_c, 9, 46, 100
17, 30090, Note_on_c, 9, 46, 0
17, 30090, Note_on_c, 9, 42, 100
17, 30120, Note_on_c, 9, 42, 0
17, 30120, Note_on_c, 9, 46, 100
17, 30150, Note_on_c, 9, 46, 0
17, 30150, Note_on_c, 9, 42, 68
17, 30180, Note_on_c, 9, 42, 0
17, 30180, Note_on_c, 9, 42, 100
17, 30210, Note_on_c, 9, 42, 0
17, 30240, Note_on_c, 9, 55, 94
17, 30270, Note_on_c, 9, 55, 0
17, 30432, Control_c, 9, 64, 0
17, 30476, Control_c, 9, 64, 127
17, 30480, Note_on_c, 9, 42, 109
17, 30510, Note_on_c, 9, 42, 0
17, 30510, Note_on_c, 9, 42, 92
17, 30540, Note_on_c, 9, 42, 0
17, 30540, Note_on_c, 9, 42, 77
17, 30570, Note_on_c, 9, 42, 0
17, 30570, Note_on_c, 9, 42, 79
17, 30600, Note_on_c, 9, 42, 0
17, 30600, Note_on_c, 9, 42, 114
17, 30630, Note_on_c, 9, 42, 0
17, 30660, Note_on_c, 9, 42, 96
17, 30690, Note_on_c, 9, 42, 0
17, 30690, Note_on_c, 9, 42, 84
17, 30720, Note_on_c, 9, 42, 0
17, 30720, Note_on_c, 9, 42, 73
17, 30720, Note_on_c, 9, 42, 92
17, 30750, Note_on_c, 9, 42, 0
17, 30750, Note_on_c, 9, 42, 0
17, 30750, Note_on_c, 9, 42, 92
17, 30780, Note_on_c, 9, 42, 0
17, 30780, Note_on_c, 9, 42, 96
17, 30810, Note_on_c, 9, 42, 0
17, 30810, Note_on_c, 9, 42, 73
17, 30840, Note_on_c, 9, 42, 0
17, 30840, Note_on_c, 9, 42, 109
17, 30870, Note_on_c, 9, 42, 0
17, 30870, Note_on_c, 9, 42, 75
17, 30900, Note_on_c, 9, 42, 0
17, 30900, Note_on_c, 9, 42, 89
17, 30930, Note_on_c, 9, 42, 0
17, 30930, Note_on_c, 9, 42, 114
17, 30960, Note_on_c, 9, 42, 0
17, 30960, Note_on_c, 9, 42, 109
17, 30990, Note_on_c, 9, 42, 0
17, 30990, Note_on_c, 9, 42, 59
17, 31020, Note_on_c, 9, 42, 0
17, 31020, Note_on_c, 9, 42, 77
17, 31050, Note_on_c, 9, 42, 0
17, 31050, Note_on_c, 9, 42, 100
17, 31080, Note_on_c, 9, 42, 0
17, 31080, Note_on_c, 9, 42, 109
17, 31110, Note_on_c, 9, 42, 0
17, 31110, Note_on_c, 9, 42, 81
17, 31140, Note_on_c, 9, 42, 0
17, 31140, Note_on_c, 9, 42, 81
17, 31170, Note_on_c, 9, 42, 0
17, 31170, Note_on_c, 9, 42, 119
17, 31200, Note_on_c, 9, 42, 0
17, 31230, Note_on_c, 9, 42, 96
17, 31260, Note_on_c, 9, 42, 0
17, 31260, Note_on_c, 9, 42, 114
17, 31290, Note_on_c, 9, 42, 0
17, 31320, Note_on_c, 9, 42, 92
17, 31320, Note_on_c, 9, 42, 40
17, 31350, Note_on_c, 9, 42, 0
17, 31350, Note_on_c, 9, 42, 0
17, 31350, Note_on_c, 9, 42, 109
17, 31380, Note_on_c, 9, 42, 0
17, 31380, Note_on_c, 9, 42, 92
17, 31410, Note_on_c, 9, 42, 0
17, 31410, Note_on_c, 9, 42, 92
17, 31440, Note_on_c, 9, 42, 0
17, 31440, Note_on_c, 9, 42, 114
17, 31470, Note_on_c, 9, 42, 0
17, 31470, Note_on_c, 9, 42, 84
17, 31500, Note_on_c, 9, 42, 0
17, 31500, Note_on_c, 9, 42, 54
17, 31530, Note_on_c, 9, 42, 0
17, 31530, Note_on_c, 9, 42, 119
17, 31560, Note_on_c, 9, 42, 0
17, 31560, Note_on_c, 9, 42, 119
17, 31590, Note_on_c, 9, 42, 0
17, 31590, Note_on_c, 9, 42, 73
17, 31620, Note_on_c, 9, 42, 0
17, 31620, Note_on_c, 9, 42, 86
17, 31650, Note_on_c, 9, 42, 0
17, 31650, Note_on_c, 9, 42, 119
17, 31680, Note_on_c, 9, 42, 0
17, 31710, Note_on_c, 9, 42, 119
17, 31740, Note_on_c, 9, 42, 0
17, 31740, Note_on_c, 9, 42, 77
17, 31770, Note_on_c, 9, 42, 0
17, 31770, Note_on_c, 9, 42, 109
17, 31800, Note_on_c, 9, 42, 0
17, 31800, Note_on_c, 9, 42, 114
17, 31830, Note_on_c, 9, 42, 0
17, 31830, Note_on_c, 9, 42, 89
17, 31860, Note_on_c, 9, 42, 0
17, 31860, Note_on_c, 9, 42, 73
17, 31890, Note_on_c, 9, 42, 0
17, 31890, Note_on_c, 9, 42, 114
17, 31920, Note_on_c, 9, 42, 0
17, 31920, Note_on_c, 9, 42, 119
17, 31950, Note_on_c, 9, 42, 0
17, 31950, Note_on_c, 9, 42, 45
17, 31980, Note_on_c, 9, 42, 0
17, 31980, Note_on_c, 9, 42, 69
17, 32010, Note_on_c, 9, 42, 0
17, 32010, Note_on_c, 9, 42, 119
17, 32040, Note_on_c, 9, 42, 0
17, 32040, Note_on_c, 9, 42, 119
17, 32070, Note_on_c, 9, 42, 0
17, 32070, Note_on_c, 9, 42, 63
17, 32100, Note_on_c, 9, 42, 0
17, 32100, Note_on_c, 9, 42, 77
17, 32130, Note_on_c, 9, 42, 0
17, 32130, Note_on_c, 9, 42, 71
17, 32160, Note_on_c, 9, 42, 0
17, 32160, Note_on_c, 9, 42, 114
17, 32190, Note_on_c, 9, 42, 0
17, 32190, Note_on_c, 9, 42, 71
17, 32220, Note_on_c, 9, 42, 0
17, 32220, Note_on_c, 9, 42, 56
17, 32250, Note_on_c, 9, 42, 0
17, 32250, Note_on_c, 9, 42, 119
17, 32280, Note_on_c, 9, 42, 0
17, 32280, Note_on_c, 9, 42, 109
17, 32310, Note_on_c, 9, 42, 0
17, 32310, Note_on_c, 9, 42, 96
17, 32340, Note_on_c, 9, 42, 0
17, 32340, Note_on_c, 9, 42, 84
17, 32370, Note_on_c, 9, 42, 0
17, 32370, Note_on_c, 9, 42, 79
17, 32400, Note_on_c, 9, 42, 0
17, 32400, Note_on_c, 9, 42, 124
17, 32430, Note_on_c, 9, 42, 0
17, 32430, Note_on_c, 9, 42, 66
17, 32460, Note_on_c, 9, 42, 0
17, 32490, Note_on_c, 9, 42, 114
17, 32520, Note_on_c, 9, 42, 0
17, 32520, Note_on_c, 9, 42, 119
17, 32550, Note_on_c, 9, 42, 0
17, 32550, Note_on_c, 9, 42, 79
17, 32580, Note_on_c, 9, 42, 0
17, 32580, Note_on_c, 9, 42, 57
17, 32610, Note_on_c, 9, 42, 0
17, 32610, Note_on_c, 9, 42, 114
17, 32640, Note_on_c, 9, 42, 0
17, 32640, Note_on_c, 9, 42, 114
17, 32670, Note_on_c, 9, 42, 0
17, 32670, Note_on_c, 9, 42, 40
17, 32700, Note_on_c, 9, 42, 0
17, 32700, Note_on_c, 9, 42, 89
17, 32700, Note_on_c, 9, 42, 33
17, 32730, Note_on_c, 9, 42, 0
17, 32730, Note_on_c, 9, 42, 0
17, 32730, Note_on_c, 9, 42, 104
17, 32760, Note_on_c, 9, 42, 0
17, 32760, Note_on_c, 9, 42, 104
17, 32790, Note_on_c, 9, 42, 0
17, 32790, Note_on_c, 9, 42, 54
17, 32820, Note_on_c, 9, 42, 0
17, 32820, Note_on_c, 9, 42, 63
17, 32850, Note_on_c, 9, 42, 0
17, 32850, Note_on_c, 9, 42, 79
17, 32880, Note_on_c, 9, 42, 0
17, 32880, Note_on_c, 9, 42, 109
17, 32910, Note_on_c, 9, 42, 0
17, 32910, Note_on_c, 9, 42, 47
17, 32940, Note_on_c, 9, 42, 0
17, 32940, Note_on_c, 9, 42, 59
17, 32970, Note_on_c, 9, 42, 0
17, 32970, Note_on_c, 9, 42, 96
17, 33000, Note_on_c, 9, 42, 0
17, 33000, Note_on_c, 9, 42, 119
17, 33030, Note_on_c, 9, 42, 0
17, 33030, Note_on_c, 9, 42, 37
17, 33060, Note_on_c, 9, 42, 0
17, 33060, Note_on_c, 9, 42, 84
17, 33090, Note_on_c, 9, 42, 0
17, 33090, Note_on_c, 9, 42, 100
17, 33120, Note_on_c, 9, 42, 0
17, 33120, Note_on_c, 9, 42, 114
17, 33150, Note_on_c, 9, 42, 0
17, 33150, Note_on_c, 9, 42, 58
17, 33180, Note_on_c, 9, 42, 0
17, 33180, Note_on_c, 9, 42, 96
17, 33210, Note_on_c, 9, 42, 0
17, 33210, Note_on_c, 9, 42, 86
17, 33240, Note_on_c, 9, 42, 0
17, 33240, Note_on_c, 9, 42, 114
17, 33270, Note_on_c, 9, 42, 0
17, 33270, Note_on_c, 9, 42, 46
17, 33300, Note_on_c, 9, 42, 0
17, 33300, Note_on_c, 9, 42, 89
17, 33330, Note_on_c, 9, 42, 0
17, 33330, Note_on_c, 9, 42, 96
17, 33360, Note_on_c, 9, 42, 0
17, 33360, Note_on_c, 9, 42, 114
17, 33390, Note_on_c, 9, 42, 0
17, 33390, Note_on_c, 9, 42, 55
17, 33420, Note_on_c, 9, 42, 0
17, 33450, Note_on_c, 9, 42, 109
17, 33480, Note_on_c, 9, 42, 0
17, 33480, Note_on_c, 9, 42, 114
17, 33510, Note_on_c, 9, 42, 0
17, 33510, Note_on_c, 9, 42, 75
17, 33540, Note_on_c, 9, 42, 0
17, 33540, Note_on_c, 9, 42, 92
17, 33570, Note_on_c, 9, 42, 0
17, 33570, Note_on_c, 9, 42, 96
17, 33600, Note_on_c, 9, 42, 0
17, 33600, Note_on_c, 9, 42, 109
17, 33630, Note_on_c, 9, 42, 0
17, 33630, Note_on_c, 9, 42, 54
17, 33660, Note_on_c, 9, 42, 0
17, 33660, Note_on_c, 9, 42, 84
17, 33690, Note_on_c, 9, 42, 0
17, 33690, Note_on_c, 9, 42, 81
17, 33720, Note_on_c, 9, 42, 0
17, 33720, Note_on_c, 9, 42, 114
17, 33750, Note_on_c, 9, 42, 0
17, 33750, Note_on_c, 9, 42, 37
17, 33780, Note_on_c, 9, 42, 0
17, 33780, Note_on_c, 9, 42, 89
17, 33780, Note_on_c, 9, 42, 36
17, 33810, Note_on_c, 9, 42, 0
17, 33810, Note_on_c, 9, 42, 0
17, 33810, Note_on_c, 9, 42, 77
17, 33840, Note_on_c, 9, 42, 0
17, 33840, Note_on_c, 9, 42, 96
17, 33870, Note_on_c, 9, 42, 0
17, 33870, Note_on_c, 9, 42, 75
17, 33900, Note_on_c, 9, 42, 0
17, 33900, Note_on_c, 9, 42, 51
17, 33930, Note_on_c, 9, 42, 0
17, 33930, Note_on_c, 9, 42, 62
17, 33960, Note_on_c, 9, 42, 0
17, 33960, Note_on_c, 9, 42, 119
17, 33990, Note_on_c, 9, 42, 0
17, 33990, Note_on_c, 9, 42, 60
17, 34020, Note_on_c, 9, 42, 0
17, 34020, Note_on_c, 9, 42, 73
17, 34050, Note_on_c, 9, 42, 0
17, 34050, Note_on_c, 9, 42, 92
17, 34080, Note_on_c, 9, 42, 0
17, 34080, Note_on_c, 9, 42, 119
17, 34110, Note_on_c, 9, 42, 0
17, 34110, Note_on_c, 9, 42, 64
17, 34140, Note_on_c, 9, 42, 0
17, 34170, Note_on_c, 9, 42, 114
17, 34200, Note_on_c, 9, 42, 0
17, 34200, Note_on_c, 9, 42, 119
17, 34230, Note_on_c, 9, 42, 0
17, 34230, Note_on_c, 9, 42, 57
17, 34260, Note_on_c, 9, 42, 0
17, 34260, Note_on_c, 9, 42, 79
17, 34290, Note_on_c, 9, 42, 0
17, 34290, Note_on_c, 9, 42, 79
17, 34320, Note_on_c, 9, 42, 0
17, 34320, Note_on_c, 9, 42, 114
17, 34350, Note_on_c, 9, 42, 0
17, 34380, Note_on_c, 9, 42, 71
17, 34410, Note_on_c, 9, 42, 0
17, 34410, Note_on_c, 9, 42, 92
17, 34440, Note_on_c, 9, 42, 0
17, 34440, Note_on_c, 9, 42, 119
17, 34470, Note_on_c, 9, 42, 0
17, 34470, Note_on_c, 9, 42, 81
17, 34500, Note_on_c, 9, 42, 0
17, 34500, Note_on_c, 9, 42, 55
17, 34530, Note_on_c, 9, 42, 0
17, 34530, Note_on_c, 9, 42, 96
17, 34560, Note_on_c, 9, 42, 0
17, 34560, Note_on_c, 9, 42, 119
17, 34590, Note_on_c, 9, 42, 0
17, 34590, Note_on_c, 9, 42, 68
17, 34620, Note_on_c, 9, 42, 0
17, 34620, Note_on_c, 9, 42, 39
17, 34650, Note_on_c, 9, 42, 0
17, 34650, Note_on_c, 9, 42, 86
17, 34680, Note_on_c, 9, 42, 0
17, 34680, Note_on_c, 9, 42, 100
17, 34710, Note_on_c, 9, 42, 0
17, 34710, Note_on_c, 9, 42, 81
17, 34740, Note_on_c, 9, 42, 0
17, 34740, Note_on_c, 9, 42, 100
17, 34770, Note_on_c, 9, 42, 0
17, 34770, Note_on_c, 9, 42, 79
17, 34800, Note_on_c, 9, 42, 0
17, 34800, Note_on_c, 9, 42, 104
17, 34830, Note_on_c, 9, 42, 0
17, 34830, Note_on_c, 9, 42, 100
17, 34860, Note_on_c, 9, 42, 0
17, 34860, Note_on_c, 9, 55, 101
17, 34890, Note_on_c, 9, 55, 0
17, 34920, Note_on_c, 9, 42, 100
17, 34950, Note_on_c, 9, 42, 0
17, 34950, Note_on_c, 9, 42, 60
17, 34980, Note_on_c, 9, 42, 0
17, 34980, Note_on_c, 9, 42, 114
17, 35010, Note_on_c, 9, 42, 0
17, 35040, Note_on_c, 9, 42, 100
17, 35040, Note_on_c, 9, 42, 40
17, 35070, Note_on_c, 9, 42, 0
17, 35070, Note_on_c, 9, 42, 0
17, 35070, Note_on_c, 9, 42, 100
17, 35100, Note_on_c, 9, 42, 0
17, 35100, Note_on_c, 9, 42, 114
17, 35130, Note_on_c, 9, 42, 0
17, 35130, Note_on_c, 9, 42, 54
17, 35160, Note_on_c, 9, 42, 0
17, 35160, Note_on_c, 9, 42, 96
17, 35190, Note_on_c, 9, 42, 0
17, 35190, Note_on_c, 9, 42, 81
17, 35220, Note_on_c, 9, 42, 0
17, 35220, Note_on_c, 9, 42, 92
17, 35220, Note_on_c, 9, 42, 49
17, 35250, Note_on_c, 9, 42, 0
17, 35250, Note_on_c, 9, 42, 0
17, 35250, Note_on_c, 9, 42, 73
17, 35280, Note_on_c, 9, 42, 0
17, 35280, Note_on_c, 9, 42, 114
17, 35310, Note_on_c, 9, 42, 0
17, 35310, Note_on_c, 9, 42, 60
17, 35340, Note_on_c, 9, 42, 0
17, 35340, Note_on_c, 9, 42, 92
17, 35370, Note_on_c, 9, 42, 0
17, 35370, Note_on_c, 9, 42, 71
17, 35400, Note_on_c, 9, 42, 0
17, 35400, Note_on_c, 9, 42, 109
17, 35400, Note_on_c, 9, 42, 40
17, 35430, Note_on_c, 9, 42, 0
17, 35430, Note_on_c, 9, 42, 0
17, 35430, Note_on_c, 9, 42, 75
17, 35460, Note_on_c, 9, 42, 0
17, 35460, Note_on_c, 9, 46, 57
17, 35490, Note_on_c, 9, 46, 0
17, 35490, Note_on_c, 9, 42, 68
17, 35520, Note_on_c, 9, 42, 0
17, 35520, Note_on_c, 9, 42, 84
17, 35550, Note_on_c, 9, 42, 0
17, 35550, Note_on_c, 9, 42, 75
17, 35580, Note_on_c, 9, 42, 0
17, 35580, Note_on_c, 9, 42, 55
17, 35610, Note_on_c, 9, 42, 0
17, 35610, Note_on_c, 9, 42, 75
17, 35640, Note_on_c, 9, 42, 0
17, 35640, Note_on_c, 9, 42, 100
17, 35670, Note_on_c, 9, 42, 0
17, 35670, Note_on_c, 9, 42, 89
17, 35700, Note_on_c, 9, 42, 0
17, 35700, Note_on_c, 9, 42, 75
17, 35730, Note_on_c, 9, 42, 0
17, 35730, Note_on_c, 9, 42, 96
17, 35760, Note_on_c, 9, 42, 0
17, 35760, Note_on_c, 9, 44, 89
17, 35790, Note_on_c, 9, 44, 0
17, 35790, Note_on_c, 9, 42, 96
17, 35820, Note_on_c, 9, 42, 0
17, 35820, Note_on_c, 9, 42, 40
17, 35850, Note_on_c, 9, 42, 0
17, 35850, Note_on_c, 9, 42, 89
17, 35880, Note_on_c, 9, 42, 0
17, 35880, Note_on_c, 9, 44, 100
17, 35910, Note_on_c, 9, 44, 0
17, 35910, Note_on_c, 9, 42, 86
17, 35940, Note_on_c, 9, 42, 0
17, 35940, Note_on_c, 9, 42, 79
17, 35970, Note_on_c, 9, 42, 0
17, 35970, Note_on_c, 9, 42, 92
17, 36000, Note_on_c, 9, 42, 0
17, 36000, Note_on_c, 9, 44, 109
17, 36030, Note_on_c, 9, 44, 0
17, 36030, Note_on_c, 9, 42, 89
17, 36060, Note_on_c, 9, 42, 0
17, 36060, Note_on_c, 9, 42, 92
17, 36090, Note_on_c, 9, 42, 0
17, 36090, Note_on_c, 9, 44, 104
17, 36120, Note_on_c, 9, 44, 0
17, 36120, Note_on_c, 9, 44, 104
17, 36150, Note_on_c, 9, 44, 0
17, 36150, Note_on_c, 9, 42, 100
17, 36180, Note_on_c, 9, 42, 0
17, 36180, Note_on_c, 9, 42, 92
17, 36210, Note_on_c, 9, 42, 0
17, 36210, Note_on_c, 9, 42, 96
17, 36240, Note_on_c, 9, 42, 0
17, 36240, Note_on_c, 9, 44, 109
17, 36270, Note_on_c, 9, 44, 0
17, 36270, Note_on_c, 9, 42, 89
17, 36300, Note_on_c, 9, 42, 0
17, 36300, Note_on_c, 9, 42, 71
17, 36330, Note_on_c, 9, 42, 0
17, 36330, Note_on_c, 9, 42, 119
17, 36360, Note_on_c, 9, 42, 0
17, 36360, Note_on_c, 9, 42, 96
17, 36390, Note_on_c, 9, 42, 0
17, 36390, Note_on_c, 9, 42, 89
17, 36420, Note_on_c, 9, 42, 0
17, 36420, Note_on_c, 9, 42, 100
17, 36450, Note_on_c, 9, 42, 0
17, 36450, Note_on_c, 9, 42, 89
17, 36480, Note_on_c, 9, 42, 0
17, 36480, Note_on_c, 9, 42, 92
17, 36510, Note_on_c, 9, 42, 0
17, 36510, Note_on_c, 9, 42, 96
17, 36540, Note_on_c, 9, 42, 0
17, 36540, Note_on_c, 9, 42, 58
17, 36540, Note_on_c, 9, 42, 49
17, 36570, Note_on_c, 9, 42, 0
17, 36570, Note_on_c, 9, 42, 0
17, 36570, Note_on_c, 9, 42, 79
17, 36600, Note_on_c, 9, 42, 0
17, 36600, Note_on_c, 9, 42, 100
17, 36630, Note_on_c, 9, 42, 0
17, 36630, Note_on_c, 9, 42, 96
17, 36660, Note_on_c, 9, 42, 0
17, 36660, Note_on_c, 9, 42, 92
17, 36690, Note_on_c, 9, 42, 0
17, 36690, Note_on_c, 9, 42, 89
17, 36720, Note_on_c, 9, 42, 0
17, 36720, Note_on_c, 9, 42, 104
17, 36750, Note_on_c, 9, 42, 0
17, 36750, Note_on_c, 9, 42, 47
17, 36780, Note_on_c, 9, 42, 0
17, 36780, Note_on_c, 9, 55, 92
17, 36810, Note_on_c, 9, 55, 0
17, 36840, Note_on_c, 9, 42, 100
17, 36870, Note_on_c, 9, 42, 0
17, 36870, Note_on_c, 9, 42, 51
17, 36900, Note_on_c, 9, 42, 0
17, 36900, Note_on_c, 9, 42, 86
17, 36930, Note_on_c, 9, 42, 0
17, 36930, Note_on_c, 9, 42, 63
17, 36960, Note_on_c, 9, 42, 0
17, 36960, Note_on_c, 9, 42, 92
17, 36990, Note_on_c, 9, 42, 0
17, 36990, Note_on_c, 9, 42, 54
17, 37020, Note_on_c, 9, 42, 0
17, 37020, Note_on_c, 9, 42, 92
17, 37050, Note_on_c, 9, 42, 0
17, 37080, Note_on_c, 9, 42, 100
17, 37110, Note_on_c, 9, 42, 0
17, 37110, Note_on_c, 9, 42, 57
17, 37140, Note_on_c, 9, 42, 0
17, 37140, Note_on_c, 9, 42, 109
17, 37170, Note_on_c, 9, 42, 0
17, 37200, Note_on_c, 9, 42, 100
17, 37230, Note_on_c, 9, 42, 0
17, 37230, Note_on_c, 9, 42, 46
17, 37260, Note_on_c, 9, 42, 0
17, 37260, Note_on_c, 9, 42, 114
17, 37290, Note_on_c, 9, 42, 0
17, 37290, Note_on_c, 9, 42, 96
17, 37320, Note_on_c, 9, 42, 0
17, 37320, Note_on_c, 9, 42, 77
17, 37350, Note_on_c, 9, 42, 0
17, 37350, Note_on_c, 9, 42, 68
17, 37350, Note_on_c, 9, 42, 36
17, 37380, Note_on_c, 9, 42, 0
17, 37380, Note_on_c, 9, 42, 0
17, 37380, Note_on_c, 9, 42, 100
17, 37410, Note_on_c, 9, 42, 0
17, 37410, Note_on_c, 9, 42, 100
17, 37440, Note_on_c, 9, 42, 0
17, 37440, Note_on_c, 9, 42, 81
17, 37470, Note_on_c, 9, 42, 0
17, 37470, Note_on_c, 9, 42, 96
17, 37500, Note_on_c, 9, 42, 0
17, 37500, Note_on_c, 9, 42, 84
17, 37530, Note_on_c, 9, 42, 0
17, 37530, Note_on_c, 9, 42, 96
17, 37560, Note_on_c, 9, 42, 0
17, 37560, Note_on_c, 9, 42, 100
17, 37590, Note_on_c, 9, 42, 0
17, 37590, Note_on_c, 9, 42, 89
17, 37620, Note_on_c, 9, 42, 0
17, 37620, Note_on_c, 9, 42, 86
17, 37650, Note_on_c, 9, 42, 0
17, 37650, Note_on_c, 9, 42, 92
17, 37680, Note_on_c, 9, 42, 0
17, 37680, Note_on_c, 9, 42, 47
17, 37710, Note_on_c, 9, 42, 0
17, 37710, Note_on_c, 9, 42, 89
17, 37740, Note_on_c, 9, 42, 0
17, 37740, Note_on_c, 9, 42, 81
17, 37770, Note_on_c, 9, 42, 0
17, 37770, Note_on_c, 9, 42, 96
17, 37770, Note_on_c, 9, 42, 36
17, 37800, Note_on_c, 9, 42, 0
17, 37800, Note_on_c, 9, 42, 0
17, 37800, Note_on_c, 9, 42, 84
17, 37830, Note_on_c, 9, 42, 0
17, 37830, Note_on_c, 9, 42, 59
17, 37860, Note_on_c, 9, 42, 0
17, 37860, Note_on_c, 9, 42, 104
17, 37890, Note_on_c, 9, 42, 0
17, 37890, Note_on_c, 9, 42, 56
17, 37920, Note_on_c, 9, 42, 0
17, 37920, Note_on_c, 9, 42, 92
17, 37950, Note_on_c, 9, 42, 0
17, 37950, Note_on_c, 9, 42, 92
17, 37980, Note_on_c, 9, 42, 0
17, 37980, Note_on_c, 9, 55, 92
17, 38010, Note_on_c, 9, 55, 0
17, 38040, Note_on_c, 9, 42, 96
17, 38070, Note_on_c, 9, 42, 0
17, 38070, Note_on_c, 9, 42, 49
17, 38100, Note_on_c, 9, 42, 0
17, 38100, Note_on_c, 9, 55, 113
17, 38130, Note_on_c, 9, 55, 0
17, 38160, Note_on_c, 9, 42, 100
17, 38190, Note_on_c, 9, 42, 0
17, 38190, Note_on_c, 9, 42, 81
17, 38220, Note_on_c, 9, 42, 0
17, 38220, Note_on_c, 9, 42, 100
17, 38250, Note_on_c, 9, 42, 0
17, 38280, Note_on_c, 9, 42, 89
17, 38340, Note_on_c, 9, 42, 0
17, 38340, Note_on_c, 9, 42, 104
17, 38370, Note_on_c, 9, 42, 0
17, 38370, Note_on_c, 9, 42, 75
17, 38400, Note_on_c, 9, 42, 0
17, 38400, Note_on_c, 9, 42, 104
17, 38460, Note_on_c, 9, 42, 0
17, 38460, Note_on_c, 9, 42, 109
17, 38490, Note_on_c, 9, 42, 0
17, 38490, Note_on_c, 9, 42, 84
17, 38520, Note_on_c, 9, 42, 0
17, 38520, Note_on_c, 9, 42, 86
17, 38520, Note_on_c, 9, 42, 89
17, 38550, Note_on_c, 9, 42, 0
17, 38550, Note_on_c, 9, 42, 0
17, 38550, Note_on_c, 9, 42, 104
17, 38580, Note_on_c, 9, 42, 0
17, 38580, Note_on_c, 9, 42, 100
17, 38610, Note_on_c, 9, 42, 0
17, 38610, Note_on_c, 9, 42, 96
17, 38640, Note_on_c, 9, 42, 0
17, 38640, Note_on_c, 9, 42, 114
17, 38670, Note_on_c, 9, 42, 0
17, 38670, Note_on_c, 9, 42, 79
17, 38700, Note_on_c, 9, 42, 0
17, 38700, Note_on_c, 9, 42, 71
17, 38730, Note_on_c, 9, 42, 0
17, 38730, Note_on_c, 9, 42, 75
17, 38760, Note_on_c, 9, 42, 0
17, 38760, Note_on_c, 9, 42, 114
17, 38790, Note_on_c, 9, 42, 0
17, 38790, Note_on_c, 9, 42, 86
17, 38820, Note_on_c, 9, 42, 0
17, 38820, Note_on_c, 9, 42, 92
17, 38850, Note_on_c, 9, 42, 0
17, 38850, Note_on_c, 9, 42, 96
17, 38880, Note_on_c, 9, 42, 0
17, 38880, Note_on_c, 9, 42, 71
17, 38910, Note_on_c, 9, 42, 0
17, 38910, Note_on_c, 9, 42, 89
17, 38940, Note_on_c, 9, 42, 0
17, 38940, Note_on_c, 9, 55, 110
17, 38970, Note_on_c, 9, 55, 0
17, 39000, Note_on_c, 9, 42, 104
17, 39030, Note_on_c, 9, 42, 0
17, 39030, Note_on_c, 9, 42, 44
17, 39060, Note_on_c, 9, 42, 0
17, 39060, Note_on_c, 9, 42, 89
17, 39090, Note_on_c, 9, 42, 0
17, 39090, Note_on_c, 9, 42, 89
17, 39120, Note_on_c, 9, 42, 0
17, 39120, Note_on_c, 9, 42, 100
17, 39150, Note_on_c, 9, 42, 0
17, 39150, Note_on_c, 9, 42, 84
17, 39180, Note_on_c, 9, 42, 0
17, 39180, Note_on_c, 9, 42, 86
17, 39210, Note_on_c, 9, 42, 0
17, 39210, Note_on_c, 9, 42, 84
17, 39240, Note_on_c, 9, 42, 0
17, 39240, Note_on_c, 9, 42, 89
17, 39240, Note_on_c, 9, 42, 89
17, 39270, Note_on_c, 9, 42, 0
17, 39270, Note_on_c, 9, 42, 0
17, 39270, Note_on_c, 9, 42, 89
17, 39300, Note_on_c, 9, 42, 0
17, 39300, Note_on_c, 9, 42, 89
17, 39330, Note_on_c, 9, 42, 0
17, 39330, Note_on_c, 9, 42, 86
17, 39360, Note_on_c, 9, 42, 0
17, 39360, Note_on_c, 9, 42, 100
17, 39360, Note_on_c, 9, 42, 38
17, 39390, Note_on_c, 9, 42, 0
17, 39390, Note_on_c, 9, 42, 0
17, 39390, Note_on_c, 9, 42, 71
17, 39420, Note_on_c, 9, 42, 0
17, 39420, Note_on_c, 9, 42, 66
17, 39450, Note_on_c, 9, 42, 0
17, 39450, Note_on_c, 9, 42, 89
17, 39480, Note_on_c, 9, 42, 0
17, 39480, Note_on_c, 9, 42, 89
17, 39510, Note_on_c, 9, 42, 0
17, 39510, Note_on_c, 9, 42, 104
17, 39540, Note_on_c, 9, 42, 0
17, 39540, Note_on_c, 9, 42, 96
17, 39570, Note_on_c, 9, 42, 0
17, 39570, Note_on_c, 9, 42, 89
17, 39600, Note_on_c, 9, 42, 0
17, 39600, Note_on_c, 9, 42, 100
17, 39630, Note_on_c, 9, 42, 0
17, 39630, Note_on_c, 9, 42, 89
17, 39660, Note_on_c, 9, 42, 0
17, 39660, Note_on_c, 9, 42, 92
17, 39690, Note_on_c, 9, 42, 0
17, 39690, Note_on_c, 9, 42, 100
17, 39720, Note_on_c, 9, 42, 0
17, 39720, Note_on_c, 9, 42, 86
17, 39750, Note_on_c, 9, 42, 0
17, 39750, Note_on_c, 9, 42, 84
17, 39780, Note_on_c, 9, 42, 0
17, 39780, Note_on_c, 9, 42, 81
17, 39810, Note_on_c, 9, 42, 0
17, 39810, Note_on_c, 9, 42, 100
17, 39840, Note_on_c, 9, 42, 0
17, 39840, Note_on_c, 9, 42, 84
17, 39870, Note_on_c, 9, 42, 0
17, 39870, Note_on_c, 9, 42, 47
17, 39900, Note_on_c, 9, 42, 0
17, 39900, Note_on_c, 9, 55, 110
17, 39930, Note_on_c, 9, 55, 0
17, 39930, Note_on_c, 9, 42, 86
17, 39960, Note_on_c, 9, 42, 0
17, 39960, Note_on_c, 9, 42, 68
17, 39990, Note_on_c, 9, 42, 0
17, 40020, Note_on_c, 9, 55, 117
17, 40050, Note_on_c, 9, 55, 0
17, 40080, Note_on_c, 9, 42, 89
17, 40110, Note_on_c, 9, 42, 0
17, 40110, Note_on_c, 9, 42, 77
17, 40140, Note_on_c, 9, 42, 0
17, 40140, Note_on_c, 9, 42, 114
17, 40170, Note_on_c, 9, 42, 0
17, 40170, Note_on_c, 9, 42, 68
17, 40200, Note_on_c, 9, 42, 0
17, 40200, Note_on_c, 9, 42, 104
17, 40230, Note_on_c, 9, 42, 0
17, 40230, Note_on_c, 9, 42, 77
17, 40260, Note_on_c, 9, 42, 0
17, 40260, Note_on_c, 9, 42, 119
17, 40290, Note_on_c, 9, 42, 0
17, 40290, Note_on_c, 9, 42, 75
17, 40320, Note_on_c, 9, 42, 0
17, 40350, Note_on_c, 9, 42, 77
17, 40380, Note_on_c, 9, 42, 0
17, 40380, Note_on_c, 9, 42, 114
17, 40410, Note_on_c, 9, 42, 0
17, 40440, Note_on_c, 9, 42, 54
17, 40470, Note_on_c, 9, 42, 0
17, 40500, Note_on_c, 9, 42, 100
17, 40530, Note_on_c, 9, 42, 0
17, 40530, Note_on_c, 9, 42, 69
17, 40560, Note_on_c, 9, 42, 0
17, 40560, Note_on_c, 9, 42, 86
17, 40590, Note_on_c, 9, 42, 0
17, 40590, Note_on_c, 9, 42, 96
17, 40620, Note_on_c, 9, 42, 0
17, 40620, Note_on_c, 9, 42, 92
17, 40650, Note_on_c, 9, 42, 0
17, 40650, Note_on_c, 9, 42, 96
17, 40680, Note_on_c, 9, 42, 0
17, 40680, Note_on_c, 9, 42, 104
17, 40680, Note_on_c, 9, 42, 40
17, 40710, Note_on_c, 9, 42, 0
17, 40710, Note_on_c, 9, 42, 0
17, 40710, Note_on_c, 9, 42, 96
17, 40740, Note_on_c, 9, 42, 0
17, 40740, Note_on_c, 9, 42, 96
17, 40770, Note_on_c, 9, 42, 0
17, 40770, Note_on_c, 9, 42, 69
17, 40800, Note_on_c, 9, 42, 0
17, 40800, Note_on_c, 9, 42, 77
17, 40830, Note_on_c, 9, 42, 0
17, 40830, Note_on_c, 9, 42, 49
17, 40860, Note_on_c, 9, 42, 0
17, 40860, Note_on_c, 9, 55, 99
17, 40890, Note_on_c, 9, 55, 0
17, 40890, Note_on_c, 9, 42, 71
17, 40920, Note_on_c, 9, 42, 0
17, 40920, Note_on_c, 9, 42, 63
17, 40950, Note_on_c, 9, 42, 0
17, 40950, Note_on_c, 9, 42, 79
17, 40980, Note_on_c, 9, 42, 0
17, 40980, Note_on_c, 9, 42, 89
17, 41010, Note_on_c, 9, 42, 0
17, 41010, Note_on_c, 9, 42, 81
17, 41040, Note_on_c, 9, 42, 0
17, 41040, Note_on_c, 9, 42, 92
17, 41040, Note_on_c, 9, 42, 86
17, 41070, Note_on_c, 9, 42, 0
17, 41070, Note_on_c, 9, 42, 0
17, 41070, Note_on_c, 9, 42, 100
17, 41100, Note_on_c, 9, 42, 0
17, 41100, Note_on_c, 9, 42, 96
17, 41130, Note_on_c, 9, 42, 0
17, 41130, Note_on_c, 9, 42, 84
17, 41160, Note_on_c, 9, 42, 0
17, 41160, Note_on_c, 9, 42, 100
17, 41190, Note_on_c, 9, 42, 0
17, 41190, Note_on_c, 9, 42, 81
17, 41220, Note_on_c, 9, 42, 0
17, 41220, Note_on_c, 9, 42, 92
17, 41250, Note_on_c, 9, 42, 0
17, 41250, Note_on_c, 9, 42, 58
17, 41280, Note_on_c, 9, 42, 0
17, 41280, Note_on_c, 9, 42, 100
17, 41310, Note_on_c, 9, 42, 0
17, 41310, Note_on_c, 9, 42, 68
17, 41340, Note_on_c, 9, 42, 0
17, 41340, Note_on_c, 9, 42, 47
17, 41370, Note_on_c, 9, 42, 0
17, 41370, Note_on_c, 9, 42, 104
17, 41400, Note_on_c, 9, 42, 0
17, 41400, Note_on_c, 9, 42, 26
17, 41430, Note_on_c, 9, 42, 0
17, 41430, Note_on_c, 9, 42, 92
17, 41460, Note_on_c, 9, 42, 0
17, 41460, Note_on_c, 9, 42, 109
17, 41490, Note_on_c, 9, 42, 0
17, 41490, Note_on_c, 9, 42, 81
17, 41520, Note_on_c, 9, 42, 0
17, 41520, Note_on_c, 9, 42, 104
17, 41550, Note_on_c, 9, 42, 0
17, 41550, Note_on_c, 9, 42, 79
17, 41580, Note_on_c, 9, 42, 0
17, 41580, Note_on_c, 9, 42, 92
17, 41610, Note_on_c, 9, 42, 0
17, 41610, Note_on_c, 9, 42, 92
17, 41640, Note_on_c, 9, 42, 0
17, 41640, Note_on_c, 9, 42, 96
17, 41670, Note_on_c, 9, 42, 0
17, 41670, Note_on_c, 9, 42, 96
17, 41670, Note_on_c, 9, 42, 39
17, 41700, Note_on_c, 9, 42, 0
17, 41700, Note_on_c, 9, 42, 0
17, 41700, Note_on_c, 9, 42, 92
17, 41730, Note_on_c, 9, 42, 0
17, 41730, Note_on_c, 9, 42, 92
17, 41760, Note_on_c, 9, 42, 0
17, 41790, Note_on_c, 9, 42, 62
17, 41820, Note_on_c, 9, 42, 0
17, 41820, Note_on_c, 9, 55, 107
17, 41850, Note_on_c, 9, 55, 0
17, 41850, Note_on_c, 9, 42, 104
17, 41880, Note_on_c, 9, 42, 0
17, 41880, Note_on_c, 9, 42, 54
17, 41910, Note_on_c, 9, 42, 0
17, 41910, Note_on_c, 9, 42, 52
17, 41940, Note_on_c, 9, 42, 0
17, 41940, Note_on_c, 9, 55, 90
17, 41970, Note_on_c, 9, 55, 0
17, 42000, Note_on_c, 9, 42, 109
17, 42000, Note_on_c, 9, 42, 36
17, 42030, Note_on_c, 9, 42, 0
17, 42030, Note_on_c, 9, 42, 0
17, 42030, Note_on_c, 9, 42, 75
17, 42060, Note_on_c, 9, 42, 0
17, 42060, Note_on_c, 9, 42, 84
17, 42090, Note_on_c, 9, 42, 0
17, 42090, Note_on_c, 9, 42, 92
17, 42120, Note_on_c, 9, 42, 0
17, 42120, Note_on_c, 9, 42, 104
17, 42150, Note_on_c, 9, 42, 0
17, 42150, Note_on_c, 9, 42, 77
17, 42180, Note_on_c, 9, 42, 0
17, 42180, Note_on_c, 9, 42, 104
17, 42210, Note_on_c, 9, 42, 0
17, 42240, Note_on_c, 9, 42, 84
17, 42270, Note_on_c, 9, 42, 0
17, 42270, Note_on_c, 9, 42, 55
17, 42300, Note_on_c, 9, 42, 0
17, 42300, Note_on_c, 9, 42, 100
17, 42330, Note_on_c, 9, 42, 0
17, 42330, Note_on_c, 9, 42, 92
17, 42360, Note_on_c, 9, 42, 0
17, 42360, Note_on_c, 9, 42, 69
17, 42390, Note_on_c, 9, 42, 0
17, 42390, Note_on_c, 9, 42, 23
17, 42420, Note_on_c, 9, 42, 0
17, 42420, Note_on_c, 9, 42, 92
17, 42450, Note_on_c, 9, 42, 0
17, 42450, Note_on_c, 9, 42, 63
17, 42480, Note_on_c, 9, 42, 0
17, 42480, Note_on_c, 9, 42, 84
17, 42510, Note_on_c, 9, 42, 0
17, 42510, Note_on_c, 9, 42, 92
17, 42540, Note_on_c, 9, 42, 0
17, 42540, Note_on_c, 9, 42, 96
17, 42570, Note_on_c, 9, 42, 0
17, 42600, Note_on_c, 9, 42, 45
17, 42630, Note_on_c, 9, 42, 0
17, 42630, Note_on_c, 9, 42, 64
17, 42660, Note_on_c, 9, 42, 0
17, 42660, Note_on_c, 9, 42, 104
17, 42690, Note_on_c, 9, 42, 0
17, 42720, Note_on_c, 9, 42, 86
17, 42750, Note_on_c, 9, 42, 0
17, 42750, Note_on_c, 9, 42, 66
17, 42780, Note_on_c, 9, 42, 0
17, 42780, Note_on_c, 9, 42, 100
17, 42810, Note_on_c, 9, 42, 0
17, 42810, Note_on_c, 9, 42, 89
17, 42840, Note_on_c, 9, 42, 0
17, 42840, Note_on_c, 9, 42, 73
17, 42870, Note_on_c, 9, 42, 0
17, 42870, Note_on_c, 9, 42, 71
17, 42900, Note_on_c, 9, 42, 0
17, 42900, Note_on_c, 9, 42, 100
17, 42930, Note_on_c, 9, 42, 0
17, 42930, Note_on_c, 9, 42, 75
17, 42960, Note_on_c, 9, 42, 0
17, 42960, Note_on_c, 9, 42, 77
17, 42960, Note_on_c, 9, 42, 69
17, 42990, Note_on_c, 9, 42, 0
17, 42990, Note_on_c, 9, 42, 0
17, 42990, Note_on_c, 9, 42, 86
17, 43020, Note_on_c, 9, 42, 0
17, 43020, Note_on_c, 9, 42, 86
17, 43050, Note_on_c, 9, 42, 0
17, 43050, Note_on_c, 9, 42, 92
17, 43080, Note_on_c, 9, 42, 0
17, 43080, Note_on_c, 9, 42, 119
17, 43090, Control_c, 9, 64, 0
17, 43110, Note_on_c, 9, 42, 0
17, 43110, Note_on_c, 9, 42, 75
17, 43140, Note_on_c, 9, 42, 0
17, 43140, Note_on_c, 9, 42, 58
17, 43150, Control_c, 9, 64, 127
17, 43170, Note_on_c, 9, 42, 0
17, 43170, Note_on_c, 9, 42, 109
17, 43179, Control_c, 9, 64, 0
17, 43200, Note_on_c, 9, 42, 0
17, 43200, Note_on_c, 9, 42, 79
17, 43217, Control_c, 9, 64, 127
17, 43230, Note_on_c, 9, 42, 0
17, 43230, Note_on_c, 9, 42, 86
17, 43241, Control_c, 9, 64, 0
17, 43260, Note_on_c, 9, 42, 0
17, 43260, Note_on_c, 9, 42, 86
17, 43280, Control_c, 9, 64, 127
17, 43290, Note_on_c, 9, 42, 0
17, 43290, Note_on_c, 9, 42, 89
17, 43320, Note_on_c, 9, 42, 0
17, 43320, Note_on_c, 9, 42, 119
17, 43350, Note_on_c, 9, 42, 0
17, 43350, Note_on_c, 9, 42, 79
17, 43380, Note_on_c, 9, 42, 0
17, 43380, Note_on_c, 9, 42, 54
17, 43410, Note_on_c, 9, 42, 0
17, 43410, Note_on_c, 9, 42, 109
17, 43440, Note_on_c, 9, 42, 0
17, 43440, Note_on_c, 9, 42, 92
17, 43470, Note_on_c, 9, 42, 0
17, 43470, Note_on_c, 9, 42, 69
17, 43500, Note_on_c, 9, 42, 0
17, 43500, Note_on_c, 9, 42, 92
17, 43500, Note_on_c, 9, 42, 47
17, 43530, Note_on_c, 9, 42, 0
17, 43530, Note_on_c, 9, 42, 0
17, 43530, Note_on_c, 9, 42, 119
17, 43560, Note_on_c, 9, 42, 0
17, 43560, Note_on_c, 9, 42, 66
17, 43590, Note_on_c, 9, 42, 0
17, 43590, Note_on_c, 9, 42, 62
17, 43620, Note_on_c, 9, 42, 0
17, 43620, Note_on_c, 9, 42, 114
17, 43650, Note_on_c, 9, 42, 0
17, 43650, Note_on_c, 9, 42, 84
17, 43680, Note_on_c, 9, 42, 0
17, 43680, Note_on_c, 9, 42, 114
17, 43710, Note_on_c, 9, 42, 0
17, 43710, Note_on_c, 9, 42, 104
17, 43740, Note_on_c, 9, 42, 0
17, 43770, Note_on_c, 9, 42, 104
17, 43800, Note_on_c, 9, 42, 0
17, 43800, Note_on_c, 9, 42, 119
17, 43830, Note_on_c, 9, 42, 0
17, 43830, Note_on_c, 9, 42, 89
17, 43860, Note_on_c, 9, 42, 0
17, 43860, Note_on_c, 9, 42, 104
17, 43890, Note_on_c, 9, 42, 0
17, 43890, Note_on_c, 9, 42, 63
17, 43920, Note_on_c, 9, 42, 0
17, 43920, Note_on_c, 9, 42, 73
17, 43950, Note_on_c, 9, 42, 0
17, 43950, Note_on_c, 9, 42, 71
17, 43980, Note_on_c, 9, 42, 0
17, 43980, Note_on_c, 9, 42, 92
17, 44010, Note_on_c, 9, 42, 0
17, 44010, Note_on_c, 9, 42, 81
17, 44040, Note_on_c, 9, 42, 0
17, 44040, Note_on_c, 9, 42, 75
17, 44070, Note_on_c, 9, 42, 0
17, 44070, Note_on_c, 9, 42, 77
17, 44100, Note_on_c, 9, 42, 0
17, 44100, Note_on_c, 9, 42, 81
17, 44130, Note_on_c, 9, 42, 0
17, 44130, Note_on_c, 9, 42, 39
17, 44160, Note_on_c, 9, 42, 0
17, 44160, Note_on_c, 9, 42, 100
17, 44190, Note_on_c, 9, 42, 0
17, 44190, Note_on_c, 9, 42, 58
17, 44220, Note_on_c, 9, 42, 0
17, 44220, Note_on_c, 9, 42, 58
17, 44250, Note_on_c, 9, 42, 0
17, 44250, Note_on_c, 9, 42, 81
17, 44280, Note_on_c, 9, 42, 0
17, 44280, Note_on_c, 9, 42, 114
17, 44310, Note_on_c, 9, 42, 0
17, 44310, Note_on_c, 9, 42, 86
17, 44340, Note_on_c, 9, 42, 0
17, 44340, Note_on_c, 9, 42, 63
17, 44370, Note_on_c, 9, 42, 0
17, 44370, Note_on_c, 9, 42, 86
17, 44400, Note_on_c, 9, 42, 0
17, 44400, Note_on_c, 9, 42, 96
17, 44430, Note_on_c, 9, 42, 0
17, 44430, Note_on_c, 9, 42, 30
17, 44460, Note_on_c, 9, 42, 0
17, 44460, Note_on_c, 9, 42, 71
17, 44490, Note_on_c, 9, 42, 0
17, 44490, Note_on_c, 9, 42, 77
17, 44520, Note_on_c, 9, 42, 0
17, 44520, Note_on_c, 9, 42, 100
17, 44550, Note_on_c, 9, 42, 0
17, 44550, Note_on_c, 9, 42, 81
17, 44580, Note_on_c, 9, 42, 0
17, 44580, Note_on_c, 9, 42, 79
17, 44610, Note_on_c, 9, 42, 0
17, 44610, Note_on_c, 9, 42, 92
17, 44640, Note_on_c, 9, 42, 0
17, 44640, Note_on_c, 9, 42, 73
17, 44670, Note_on_c, 9, 42, 0
17, 44670, Note_on_c, 9, 42, 96
17, 44700, Note_on_c, 9, 42, 0
17, 44700, Note_on_c, 9, 55, 113
17, 44730, Note_on_c, 9, 55, 0
17, 44760, Note_on_c, 9, 42, 89
17, 44790, Note_on_c, 9, 42, 0
17, 44820, Note_on_c, 9, 42, 51
17, 44820, Note_on_c, 9, 42, 100
17, 44850, Note_on_c, 9, 42, 0
17, 44850, Note_on_c, 9, 42, 0
17, 44850, Note_on_c, 9, 42, 81
17, 44880, Note_on_c, 9, 42, 0
17, 44880, Note_on_c, 9, 42, 89
17, 44910, Note_on_c, 9, 42, 0
17, 44910, Note_on_c, 9, 42, 63
17, 44940, Note_on_c, 9, 42, 0
17, 44940, Note_on_c, 9, 42, 114
17, 44970, Note_on_c, 9, 42, 0
17, 44970, Note_on_c, 9, 42, 66
17, 45000, Note_on_c, 9, 42, 0
17, 45000, Note_on_c, 9, 42, 92
17, 45030, Note_on_c, 9, 42, 0
17, 45030, Note_on_c, 9, 42, 64
17, 45058, Control_c, 9, 64, 0
17, 45060, Note_on_c, 9, 42, 0
17, 45060, Note_on_c, 9, 42, 96
17, 45090, Note_on_c, 9, 42, 0
17, 45090, Note_on_c, 9, 42, 62
17, 45103, Control_c, 9, 64, 127
17, 45120, Note_on_c, 9, 42, 0
17, 45120, Note_on_c, 9, 42, 109
17, 45124, Control_c, 9, 64, 0
17, 45150, Note_on_c, 9, 42, 0
17, 45150, Note_on_c, 9, 42, 63
17, 45163, Control_c, 9, 64, 127
17, 45177, Control_c, 9, 64, 0
17, 45180, Note_on_c, 9, 42, 0
17, 45210, Note_on_c, 9, 42, 86
17, 45240, Note_on_c, 9, 42, 0
17, 45240, Note_on_c, 9, 42, 92
17, 45270, Note_on_c, 9, 42, 0
17, 45270, Note_on_c, 9, 42, 84
17, 45300, Note_on_c, 9, 42, 0
17, 45300, Note_on_c, 9, 42, 89
17, 45321, Control_c, 9, 64, 127
17, 45330, Note_on_c, 9, 42, 0
17, 45330, Note_on_c, 9, 42, 100
17, 45338, Control_c, 9, 64, 0
17, 45360, Note_on_c, 9, 42, 0
17, 45360, Note_on_c, 9, 42, 100
17, 45390, Note_on_c, 9, 42, 0
17, 45420, Note_on_c, 9, 42, 69
17, 45420, Note_on_c, 9, 42, 79
17, 45450, Note_on_c, 9, 42, 0
17, 45450, Note_on_c, 9, 42, 0
17, 45450, Note_on_c, 9, 42, 100
17, 45480, Note_on_c, 9, 42, 0
17, 45480, Note_on_c, 9, 42, 109
17, 45510, Note_on_c, 9, 42, 0
17, 45510, Note_on_c, 9, 42, 77
17, 45540, Note_on_c, 9, 42, 0
17, 45540, Note_on_c, 9, 42, 92
17, 45570, Note_on_c, 9, 42, 0
17, 45570, Note_on_c, 9, 42, 109
17, 45600, Note_on_c, 9, 42, 0
17, 45600, Note_on_c, 9, 42, 114
17, 45630, Note_on_c, 9, 42, 0
17, 45630, Note_on_c, 9, 42, 64
17, 45660, Note_on_c, 9, 42, 0
17, 45660, Note_on_c, 9, 55, 92
17, 45690, Note_on_c, 9, 55, 0
17, 45720, Note_on_c, 9, 42, 104
17, 45750, Note_on_c, 9, 42, 0
17, 45750, Note_on_c, 9, 42, 62
17, 45780, Note_on_c, 9, 42, 0
17, 45780, Note_on_c, 9, 55, 117
17, 45810, Note_on_c, 9, 55, 0
17, 45840, Note_on_c, 9, 42, 104
17, 45870, Note_on_c, 9, 42, 0
17, 45870, Note_on_c, 9, 42, 56
17, 45900, Note_on_c, 9, 42, 0
17, 45900, Note_on_c, 9, 42, 109
17, 45930, Note_on_c, 9, 42, 0
17, 45930, Note_on_c, 9, 42, 81
17, 45960, Note_on_c, 9, 42, 0
17, 45960, Note_on_c, 9, 42, 109
17, 45990, Note_on_c, 9, 42, 0
17, 45990, Note_on_c, 9, 42, 92
17, 46020, Note_on_c, 9, 42, 0
17, 46020, Note_on_c, 9, 42, 86
17, 46020, Note_on_c, 9, 42, 89
17, 46050, Note_on_c, 9, 42, 0
17, 46050, Note_on_c, 9, 42, 0
17, 46050, Note_on_c, 9, 42, 96
17, 46080, Note_on_c, 9, 42, 0
17, 46080, Note_on_c, 9, 42, 109
17, 46110, Note_on_c, 9, 42, 0
17, 46110, Note_on_c, 9, 42, 89
17, 46140, Note_on_c, 9, 42, 0
17, 46140, Note_on_c, 9, 42, 96
17, 46170, Note_on_c, 9, 42, 0
17, 46170, Note_on_c, 9, 42, 71
17, 46200, Note_on_c, 9, 42, 0
17, 46200, Note_on_c, 9, 42, 114
17, 46230, Note_on_c, 9, 42, 0
17, 46260, Note_on_c, 9, 42, 20
17, 46290, Note_on_c, 9, 42, 0
17, 46290, Note_on_c, 9, 42, 81
17, 46320, Note_on_c, 9, 42, 0
17, 46320, Note_on_c, 9, 42, 96
17, 46350, Note_on_c, 9, 42, 0
17, 46380, Note_on_c, 9, 42, 75
17, 46410, Note_on_c, 9, 42, 0
17, 46440, Note_on_c, 9, 42, 100
17, 46470, Note_on_c, 9, 42, 0
17, 46470, Note_on_c, 9, 42, 81
17, 46500, Note_on_c, 9, 42, 0
17, 46500, Note_on_c, 9, 42, 77
17, 46530, Note_on_c, 9, 42, 0
17, 46530, Note_on_c, 9, 42, 100
17, 46560, Note_on_c, 9, 42, 0
17, 46560, Note_on_c, 9, 42, 100
17, 46590, Note_on_c, 9, 42, 0
17, 46590, Note_on_c, 9, 42, 71
17, 46620, Note_on_c, 9, 42, 0
17, 46620, Note_on_c, 9, 42, 86
17, 46650, Note_on_c, 9, 42, 0
17, 46650, Note_on_c, 9, 42, 92
17, 46680, Note_on_c, 9, 42, 0
17, 46680, Note_on_c, 9, 42, 63
17, 46710, Note_on_c, 9, 42, 0
17, 46710, Note_on_c, 9, 42, 89
17, 46740, Note_on_c, 9, 42, 0
17, 46740, Note_on_c, 9, 42, 86
17, 46770, Note_on_c, 9, 42, 0
17, 46770, Note_on_c, 9, 42, 86
17, 46800, Note_on_c, 9, 42, 0
17, 46800, Note_on_c, 9, 42, 100
17, 46830, Note_on_c, 9, 42, 0
17, 46830, Note_on_c, 9, 42, 47
17, 46860, Note_on_c, 9, 42, 0
17, 46860, Note_on_c, 9, 42, 86
17, 46890, Note_on_c, 9, 42, 0
17, 46890, Note_on_c, 9, 42, 96
17, 46920, Note_on_c, 9, 42, 0
17, 46920, Note_on_c, 9, 42, 92
17, 46950, Note_on_c, 9, 42, 0
17, 46950, Note_on_c, 9, 42, 79
17, 46980, Note_on_c, 9, 42, 0
17, 46980, Note_on_c, 9, 42, 109
17, 47010, Note_on_c, 9, 42, 0
17, 47010, Note_on_c, 9, 42, 79
17, 47040, Note_on_c, 9, 42, 0
17, 47040, Note_on_c, 9, 42, 75
17, 47070, Note_on_c, 9, 42, 0
17, 47070, Note_on_c, 9, 42, 92
17, 47100, Note_on_c, 9, 42, 0
17, 47100, Note_on_c, 9, 42, 104
17, 47130, Note_on_c, 9, 42, 0
17, 47130, Note_on_c, 9, 42, 81
17, 47160, Note_on_c, 9, 42, 0
17, 47160, Note_on_c, 9, 42, 89
17, 47190, Note_on_c, 9, 42, 0
17, 47190, Note_on_c, 9, 42, 104
17, 47190, Note_on_c, 9, 42, 49
17, 47220, Note_on_c, 9, 42, 0
17, 47220, Note_on_c, 9, 42, 0
17, 47220, Note_on_c, 9, 42, 104
17, 47250, Note_on_c, 9, 42, 0
17, 47250, Note_on_c, 9, 42, 114
17, 47280, Note_on_c, 9, 42, 0
17, 47280, Note_on_c, 9, 42, 92
17, 47310, Note_on_c, 9, 42, 0
17, 47310, Note_on_c, 9, 42, 96
17, 47340, Note_on_c, 9, 42, 0
17, 47340, Note_on_c, 9, 42, 100
17, 47370, Note_on_c, 9, 42, 0
17, 47370, Note_on_c, 9, 42, 89
17, 47400, Note_on_c, 9, 42, 0
17, 47400, Note_on_c, 9, 42, 109
17, 47430, Note_on_c, 9, 42, 0
17, 47430, Note_on_c, 9, 42, 81
17, 47460, Note_on_c, 9, 42, 0
17, 47460, Note_on_c, 9, 42, 89
17, 47490, Note_on_c, 9, 42, 0
17, 47490, Note_on_c, 9, 42, 104
17, 47520, Note_on_c, 9, 42, 0
17, 47520, Note_on_c, 9, 42, 109
17, 47550, Note_on_c, 9, 42, 0
17, 47550, Note_on_c, 9, 42, 86
17, 47580, Note_on_c, 9, 42, 0
17, 47580, Note_on_c, 9, 42, 114
17, 47610, Note_on_c, 9, 42, 0
17, 47610, Note_on_c, 9, 42, 71
17, 47640, Note_on_c, 9, 42, 0
17, 47640, Note_on_c, 9, 55, 107
17, 47670, Note_on_c, 9, 55, 0
17, 47670, Note_on_c, 9, 42, 92
17, 47700, Note_on_c, 9, 42, 0
17, 47760, Note_on_c, 9, 42, 49
17, 47790, Note_on_c, 9, 42, 0
17, 47790, Note_on_c, 9, 42, 35
17, 47820, Note_on_c, 9, 42, 0
17, 47820, Note_on_c, 9, 42, 89
17, 47850, Note_on_c, 9, 42, 0
17, 47850, Note_on_c, 9, 42, 81
17, 47880, Note_on_c, 9, 42, 0
17, 47910, Note_on_c, 9, 42, 86
17, 47940, Note_on_c, 9, 42, 0
17, 47940, Note_on_c, 9, 42, 92
17, 47970, Note_on_c, 9, 42, 0
17, 47970, Note_on_c, 9, 42, 81
17, 48000, Note_on_c, 9, 42, 0
17, 48000, Note_on_c, 9, 42, 92
17, 48030, Note_on_c, 9, 42, 0
17, 48030, Note_on_c, 9, 42, 92
17, 48030, Note_on_c, 9, 42, 37
17, 48060, Note_on_c, 9, 42, 0
17, 48060, Note_on_c, 9, 42, 0
17, 48060, Note_on_c, 9, 42, 100
17, 48090, Note_on_c, 9, 42, 0
17, 48090, Note_on_c, 9, 42, 54
17, 48120, Note_on_c, 9, 42, 0
17, 48120, Note_on_c, 9, 42, 89
17, 48150, Note_on_c, 9, 42, 0
17, 48150, Note_on_c, 9, 42, 46
17, 48150, Note_on_c, 9, 42, 30
17, 48180, Note_on_c, 9, 42, 0
17, 48180, Note_on_c, 9, 42, 0
17, 48180, Note_on_c, 9, 42, 104
17, 48210, Note_on_c, 9, 42, 0
17, 48210, Note_on_c, 9, 42, 58
17, 48210, Note_on_c, 9, 42, 38
17, 48240, Note_on_c, 9, 42, 0
17, 48240, Note_on_c, 9, 42, 0
17, 48240, Note_on_c, 9, 42, 100
17, 48268, Control_c, 9, 64, 127
17, 48270, Note_on_c, 9, 42, 0
17, 48270, Note_on_c, 9, 42, 54
17, 48293, Control_c, 9, 64, 0
17, 48300, Note_on_c, 9, 42, 0
17, 48300, Note_on_c, 9, 42, 89
17, 48330, Note_on_c, 9, 42, 0
17, 48330, Note_on_c, 9, 42, 92
17, 48340, Control_c, 9, 64, 127
17, 48360, Note_on_c, 9, 42, 0
17, 48360, Note_on_c, 9, 42, 96
17, 48373, Control_c, 9, 64, 0
17, 48390, Note_on_c, 9, 42, 0
17, 48390, Note_on_c, 9, 42, 68
17, 48416, Control_c, 9, 64, 127
17, 48420, Note_on_c, 9, 42, 0
17, 48420, Note_on_c, 9, 42, 100
17, 48450, Note_on_c, 9, 42, 0
17, 48450, Note_on_c, 9, 42, 109
17, 48460, Control_c, 9, 64, 0
17, 48480, Note_on_c, 9, 42, 0
17, 48480, Note_on_c, 9, 42, 57
17, 48510, Note_on_c, 9, 42, 0
17, 48510, Note_on_c, 9, 42, 60
17, 48540, Note_on_c, 9, 42, 0
17, 48540, Note_on_c, 9, 55, 107
17, 48570, Note_on_c, 9, 55, 0
17, 48570, Note_on_c, 9, 42, 60
17, 48600, Note_on_c, 9, 42, 0
17, 48600, Note_on_c, 9, 42, 59
17, 48630, Note_on_c, 9, 42, 0
17, 48660, Note_on_c, 9, 42, 114
17, 48690, Note_on_c, 9, 42, 0
17, 48690, Note_on_c, 9, 42, 73
17, 48720, Note_on_c, 9, 42, 0
17, 48720, Note_on_c, 9, 42, 64
17, 48750, Note_on_c, 9, 42, 0
17, 48780, Note_on_c, 9, 42, 109
17, 48810, Note_on_c, 9, 42, 0
17, 48810, Note_on_c, 9, 42, 100
17, 48840, Note_on_c, 9, 42, 0
17, 48840, Note_on_c, 9, 42, 96
17, 48900, Note_on_c, 9, 42, 0
17, 48900, Note_on_c, 9, 42, 104
17, 48930, Note_on_c, 9, 42, 0
17, 48930, Note_on_c, 9, 42, 96
17, 48960, Note_on_c, 9, 42, 0
17, 48960, Note_on_c, 9, 42, 96
17, 49020, Note_on_c, 9, 42, 0
17, 49020, Note_on_c, 9, 42, 114
17, 49050, Note_on_c, 9, 42, 0
17, 49050, Note_on_c, 9, 42, 60
17, 49080, Note_on_c, 9, 42, 0
17, 49080, Note_on_c, 9, 42, 62
17, 49110, Note_on_c, 9, 42, 0
17, 49110, Note_on_c, 9, 42, 109
17, 49140, Note_on_c, 9, 42, 0
17, 49140, Note_on_c, 9, 42, 100
17, 49170, Note_on_c, 9, 42, 0
17, 49170, Note_on_c, 9, 42, 89
17, 49200, Note_on_c, 9, 42, 0
17, 49200, Note_on_c, 9, 42, 104
17, 49230, Note_on_c, 9, 42, 0
17, 49230, Note_on_c, 9, 42, 79
17, 49260, Note_on_c, 9, 42, 0
17, 49260, Note_on_c, 9, 42, 86
17, 49260, Note_on_c, 9, 42, 73
17, 49290, Note_on_c, 9, 42, 0
17, 49290, Note_on_c, 9, 42, 0
17, 49290, Note_on_c, 9, 42, 96
17, 49320, Note_on_c, 9, 42, 0
17, 49320, Note_on_c, 9, 42, 100
17, 49320, Note_on_c, 9, 42, 38
17, 49350, Note_on_c, 9, 42, 0
17, 49350, Note_on_c, 9, 42, 0
17, 49350, Note_on_c, 9, 42, 100
17, 49380, Note_on_c, 9, 42, 0
17, 49380, Note_on_c, 9, 42, 92
17, 49410, Note_on_c, 9, 42, 0
17, 49410, Note_on_c, 9, 42, 109
17, 49440, Note_on_c, 9, 42, 0
17, 49440, Note_on_c, 9, 42, 71
17, 49470, Note_on_c, 9, 42, 0
17, 49470, Note_on_c, 9, 42, 86
17, 49500, Note_on_c, 9, 42, 0
17, 49500, Note_on_c, 9, 42, 92
17, 49530, Note_on_c, 9, 42, 0
17, 49530, Note_on_c, 9, 42, 96
17, 49560, Note_on_c, 9, 42, 0
17, 49560, Note_on_c, 9, 42, 92
17, 49590, Note_on_c, 9, 42, 0
17, 49590, End_track
18, 0, Start_track
18, 0, MIDI_port, 0
18, 0, Title_t, "RimTap"
18, 0, Control_c, 9, 0, 62
18, 0, Control_c, 9, 32, 0
18, 0, Program_c, 9, 34
18, 0, Control_c, 9, 10, 64
18, 1020, Note_on_c, 9, 37, 124
18, 1050, Note_on_c, 9, 37, 0
18, 1140, Note_on_c, 9, 37, 104
18, 1170, Note_on_c, 9, 37, 0
18, 1260, Note_on_c, 9, 37, 75
18, 1290, Note_on_c, 9, 37, 0
18, 1380, Note_on_c, 9, 37, 96
18, 1410, Note_on_c, 9, 37, 0
18, 1500, Note_on_c, 9, 37, 92
18, 1530, Note_on_c, 9, 37, 0
18, 1620, Note_on_c, 9, 37, 96
18, 1650, Note_on_c, 9, 37, 0
18, 1740, Note_on_c, 9, 37, 96
18, 1770, Note_on_c, 9, 37, 0
18, 1860, Note_on_c, 9, 37, 89
18, 1890, Note_on_c, 9, 37, 0
18, 1980, Note_on_c, 9, 37, 100
18, 2010, Note_on_c, 9, 37, 0
18, 2100, Note_on_c, 9, 37, 109
18, 2130, Note_on_c, 9, 37, 0
18, 2220, Note_on_c, 9, 37, 109
18, 2250, Note_on_c, 9, 37, 0
18, 2340, Note_on_c, 9, 37, 104
18, 2370, Note_on_c, 9, 37, 0
18, 2460, Note_on_c, 9, 37, 96
18, 2490, Note_on_c, 9, 37, 0
18, 2580, Note_on_c, 9, 37, 100
18, 2610, Note_on_c, 9, 37, 0
18, 2700, Note_on_c, 9, 37, 100
18, 2730, Note_on_c, 9, 37, 0
18, 2820, Note_on_c, 9, 37, 100
18, 2850, Note_on_c, 9, 37, 0
18, 2940, Note_on_c, 9, 37, 104
18, 2970, Note_on_c, 9, 37, 0
18, 3060, Note_on_c, 9, 37, 114
18, 3090, Note_on_c, 9, 37, 0
18, 3180, Note_on_c, 9, 37, 104
18, 3210, Note_on_c, 9, 37, 0
18, 3300, Note_on_c, 9, 37, 79
18, 3330, Note_on_c, 9, 37, 0
18, 3420, Note_on_c, 9, 37, 96
18, 3450, Note_on_c, 9, 37, 0
18, 3540, Note_on_c, 9, 37, 92
18, 3600, Note_on_c, 9, 37, 0
18, 3660, Note_on_c, 9, 37, 92
18, 3690, Note_on_c, 9, 37, 0
18, 3780, Note_on_c, 9, 37, 104
18, 3810, Note_on_c, 9, 37, 0
18, 3900, Note_on_c, 9, 37, 92
18, 3930, Note_on_c, 9, 37, 0
18, 4020, Note_on_c, 9, 37, 100
18, 4050, Note_on_c, 9, 37, 0
18, 4140, Note_on_c, 9, 37, 92
18, 4170, Note_on_c, 9, 37, 0
18, 4260, Note_on_c, 9, 37, 92
18, 4290, Note_on_c, 9, 37, 0
18, 4380, Note_on_c, 9, 37, 109
18, 4470, Note_on_c, 9, 37, 0
18, 4500, Note_on_c, 9, 37, 109
18, 4590, Note_on_c, 9, 37, 0
18, 4620, Note_on_c, 9, 37, 114
18, 4680, Note_on_c, 9, 37, 0
18, 4740, Note_on_c, 9, 37, 96
18, 4770, Note_on_c, 9, 37, 0
18, 4860, Note_on_c, 9, 37, 86
18, 4890, Note_on_c, 9, 37, 0
18, 4980, Note_on_c, 9, 37, 89
18, 5040, Note_on_c, 9, 37, 0
18, 5100, Note_on_c, 9, 37, 89
18, 5100, Note_on_c, 9, 37, 39
18, 5130, Note_on_c, 9, 37, 0
18, 5130, Note_on_c, 9, 37, 0
18, 5220, Note_on_c, 9, 37, 89
18, 5280, Note_on_c, 9, 37, 0
18, 5340, Note_on_c, 9, 37, 100
18, 5370, Note_on_c, 9, 37, 0
18, 5460, Note_on_c, 9, 37, 104
18, 5490, Note_on_c, 9, 37, 0
18, 5580, Note_on_c, 9, 37, 104
18, 5610, Note_on_c, 9, 37, 0
18, 5700, Note_on_c, 9, 37, 109
18, 5730, Note_on_c, 9, 37, 0
18, 5820, Note_on_c, 9, 37, 104
18, 5850, Note_on_c, 9, 37, 0
18, 5940, Note_on_c, 9, 37, 96
18, 5970, Note_on_c, 9, 37, 0
18, 6060, Note_on_c, 9, 37, 100
18, 6090, Note_on_c, 9, 37, 0
18, 6180, Note_on_c, 9, 37, 104
18, 6240, Note_on_c, 9, 37, 0
18, 6300, Note_on_c, 9, 37, 100
18, 6330, Note_on_c, 9, 37, 0
18, 6420, Note_on_c, 9, 37, 109
18, 6450, Note_on_c, 9, 37, 0
18, 6570, Note_on_c, 9, 37, 114
18, 6600, Note_on_c, 9, 37, 0
18, 6660, Note_on_c, 9, 37, 109
18, 6690, Note_on_c, 9, 37, 0
18, 6780, Note_on_c, 9, 37, 104
18, 6810, Note_on_c, 9, 37, 0
18, 6900, Note_on_c, 9, 37, 104
18, 6930, Note_on_c, 9, 37, 0
18, 7020, Note_on_c, 9, 37, 104
18, 7050, Note_on_c, 9, 37, 0
18, 7140, Note_on_c, 9, 37, 109
18, 7170, Note_on_c, 9, 37, 0
18, 7260, Note_on_c, 9, 37, 109
18, 7290, Note_on_c, 9, 37, 0
18, 7380, Note_on_c, 9, 37, 114
18, 7410, Note_on_c, 9, 37, 0
18, 7500, Note_on_c, 9, 37, 114
18, 7560, Note_on_c, 9, 37, 0
18, 7620, Note_on_c, 9, 37, 100
18, 7680, Note_on_c, 9, 37, 0
18, 7740, Note_on_c, 9, 37, 100
18, 7770, Note_on_c, 9, 37, 0
18, 7860, Note_on_c, 9, 37, 104
18, 7890, Note_on_c, 9, 37, 0
18, 7980, Note_on_c, 9, 37, 109
18, 8010, Note_on_c, 9, 37, 0
18, 8100, Note_on_c, 9, 37, 92
18, 8130, Note_on_c, 9, 37, 0
18, 8220, Note_on_c, 9, 37, 96
18, 8250, Note_on_c, 9, 37, 0
18, 8340, Note_on_c, 9, 37, 109
18, 8370, Note_on_c, 9, 37, 0
18, 8460, Note_on_c, 9, 37, 119
18, 8490, Note_on_c, 9, 37, 0
18, 8580, Note_on_c, 9, 37, 104
18, 8610, Note_on_c, 9, 37, 0
18, 8700, Note_on_c, 9, 37, 92
18, 8730, Note_on_c, 9, 37, 0
18, 8820, Note_on_c, 9, 37, 104
18, 8850, Note_on_c, 9, 37, 0
18, 8940, Note_on_c, 9, 37, 109
18, 8970, Note_on_c, 9, 37, 0
18, 9060, Note_on_c, 9, 37, 100
18, 9090, Note_on_c, 9, 37, 0
18, 9180, Note_on_c, 9, 37, 86
18, 9210, Note_on_c, 9, 37, 0
18, 9300, Note_on_c, 9, 37, 109
18, 9330, Note_on_c, 9, 37, 0
18, 9420, Note_on_c, 9, 37, 109
18, 9450, Note_on_c, 9, 37, 0
18, 9540, Note_on_c, 9, 37, 109
18, 9570, Note_on_c, 9, 37, 0
18, 9660, Note_on_c, 9, 37, 109
18, 9690, Note_on_c, 9, 37, 0
18, 9780, Note_on_c, 9, 37, 96
18, 9810, Note_on_c, 9, 37, 0
18, 9810, Note_on_c, 9, 37, 39
18, 9840, Note_on_c, 9, 37, 0
18, 9900, Note_on_c, 9, 37, 96
18, 9930, Note_on_c, 9, 37, 0
18, 10020, Note_on_c, 9, 37, 104
18, 10050, Note_on_c, 9, 37, 0
18, 10140, Note_on_c, 9, 37, 109
18, 10170, Note_on_c, 9, 37, 0
18, 10260, Note_on_c, 9, 37, 100
18, 10290, Note_on_c, 9, 37, 0
18, 10380, Note_on_c, 9, 37, 100
18, 10410, Note_on_c, 9, 37, 0
18, 10500, Note_on_c, 9, 37, 114
18, 10530, Note_on_c, 9, 37, 0
18, 10620, Note_on_c, 9, 37, 104
18, 10650, Note_on_c, 9, 37, 0
18, 10740, Note_on_c, 9, 37, 114
18, 10770, Note_on_c, 9, 37, 0
18, 10860, Note_on_c, 9, 37, 100
18, 10890, Note_on_c, 9, 37, 0
18, 10980, Note_on_c, 9, 37, 104
18, 11010, Note_on_c, 9, 37, 0
18, 11100, Note_on_c, 9, 37, 92
18, 11130, Note_on_c, 9, 37, 0
18, 11220, Note_on_c, 9, 37, 114
18, 11250, Note_on_c, 9, 37, 0
18, 11340, Note_on_c, 9, 37, 104
18, 11370, Note_on_c, 9, 37, 0
18, 11460, Note_on_c, 9, 37, 100
18, 11490, Note_on_c, 9, 37, 0
18, 11580, Note_on_c, 9, 37, 104
18, 11640, Note_on_c, 9, 37, 0
18, 11700, Note_on_c, 9, 37, 114
18, 11730, Note_on_c, 9, 37, 0
18, 11820, Note_on_c, 9, 37, 104
18, 11850, Note_on_c, 9, 37, 0
18, 11940, Note_on_c, 9, 37, 114
18, 11970, Note_on_c, 9, 37, 0
18, 12060, Note_on_c, 9, 37, 114
18, 12090, Note_on_c, 9, 37, 0
18, 12180, Note_on_c, 9, 37, 109
18, 12210, Note_on_c, 9, 37, 0
18, 12300, Note_on_c, 9, 37, 114
18, 12330, Note_on_c, 9, 37, 0
18, 12420, Note_on_c, 9, 37, 119
18, 12450, Note_on_c, 9, 37, 0
18, 12540, Note_on_c, 9, 37, 84
18, 12630, Note_on_c, 9, 37, 0
18, 12660, Note_on_c, 9, 37, 89
18, 12750, Note_on_c, 9, 37, 0
18, 12780, Note_on_c, 9, 37, 89
18, 12870, Note_on_c, 9, 37, 0
18, 12900, Note_on_c, 9, 37, 92
18, 12990, Note_on_c, 9, 37, 0
18, 13020, Note_on_c, 9, 37, 100
18, 13080, Note_on_c, 9, 37, 0
18, 13140, Note_on_c, 9, 37, 96
18, 13170, Note_on_c, 9, 37, 0
18, 13260, Note_on_c, 9, 37, 114
18, 13320, Note_on_c, 9, 37, 0
18, 13380, Note_on_c, 9, 37, 100
18, 13470, Note_on_c, 9, 37, 0
18, 13500, Note_on_c, 9, 37, 100
18, 13590, Note_on_c, 9, 37, 0
18, 13620, Note_on_c, 9, 37, 114
18, 13710, Note_on_c, 9, 37, 0
18, 13740, Note_on_c, 9, 37, 109
18, 13830, Note_on_c, 9, 37, 0
18, 13860, Note_on_c, 9, 37, 100
18, 13950, Note_on_c, 9, 37, 0
18, 13980, Note_on_c, 9, 37, 109
18, 14070, Note_on_c, 9, 37, 0
18, 14100, Note_on_c, 9, 37, 109
18, 14160, Note_on_c, 9, 37, 0
18, 14220, Note_on_c, 9, 37, 104
18, 14310, Note_on_c, 9, 37, 0
18, 14340, Note_on_c, 9, 37, 104
18, 14370, Note_on_c, 9, 37, 0
18, 14370, Note_on_c, 9, 37, 79
18, 14400, Note_on_c, 9, 37, 0
18, 14460, Note_on_c, 9, 37, 104
18, 14550, Note_on_c, 9, 37, 0
18, 14580, Note_on_c, 9, 37, 109
18, 14670, Note_on_c, 9, 37, 0
18, 14700, Note_on_c, 9, 37, 96
18, 14790, Note_on_c, 9, 37, 0
18, 14820, Note_on_c, 9, 37, 109
18, 14910, Note_on_c, 9, 37, 0
18, 14940, Note_on_c, 9, 37, 96
18, 15030, Note_on_c, 9, 37, 0
18, 15060, Note_on_c, 9, 37, 84
18, 15150, Note_on_c, 9, 37, 0
18, 15180, Note_on_c, 9, 37, 100
18, 15270, Note_on_c, 9, 37, 0
18, 15300, Note_on_c, 9, 37, 114
18, 15390, Note_on_c, 9, 37, 0
18, 15420, Note_on_c, 9, 37, 109
18, 15510, Note_on_c, 9, 37, 0
18, 15540, Note_on_c, 9, 37, 109
18, 15630, Note_on_c, 9, 37, 0
18, 15660, Note_on_c, 9, 37, 89
18, 15750, Note_on_c, 9, 37, 0
18, 15780, Note_on_c, 9, 37, 109
18, 15870, Note_on_c, 9, 37, 0
18, 15900, Note_on_c, 9, 37, 104
18, 15990, Note_on_c, 9, 37, 0
18, 16020, Note_on_c, 9, 37, 104
18, 16110, Note_on_c, 9, 37, 0
18, 16140, Note_on_c, 9, 37, 109
18, 16230, Note_on_c, 9, 37, 0
18, 16260, Note_on_c, 9, 37, 96
18, 16290, Note_on_c, 9, 37, 0
18, 16290, Note_on_c, 9, 37, 79
18, 16350, Note_on_c, 9, 37, 0
18, 16380, Note_on_c, 9, 37, 104
18, 16470, Note_on_c, 9, 37, 0
18, 16500, Note_on_c, 9, 37, 109
18, 16590, Note_on_c, 9, 37, 0
18, 16620, Note_on_c, 9, 37, 92
18, 16650, Note_on_c, 9, 37, 0
18, 16740, Note_on_c, 9, 37, 92
18, 16830, Note_on_c, 9, 37, 0
18, 16860, Note_on_c, 9, 37, 100
18, 16950, Note_on_c, 9, 37, 0
18, 16980, Note_on_c, 9, 37, 104
18, 17070, Note_on_c, 9, 37, 0
18, 17100, Note_on_c, 9, 37, 100
18, 17160, Note_on_c, 9, 37, 0
18, 17220, Note_on_c, 9, 37, 100
18, 17310, Note_on_c, 9, 37, 0
18, 17340, Note_on_c, 9, 37, 104
18, 17370, Note_on_c, 9, 37, 0
18, 17460, Note_on_c, 9, 37, 96
18, 17520, Note_on_c, 9, 37, 0
18, 17580, Note_on_c, 9, 37, 109
18, 17670, Note_on_c, 9, 37, 0
18, 17700, Note_on_c, 9, 37, 92
18, 17700, Note_on_c, 9, 37, 38
18, 17730, Note_on_c, 9, 37, 0
18, 17760, Note_on_c, 9, 37, 0
18, 17820, Note_on_c, 9, 37, 92
18, 17910, Note_on_c, 9, 37, 0
18, 17940, Note_on_c, 9, 37, 100
18, 18000, Note_on_c, 9, 37, 0
18, 18060, Note_on_c, 9, 37, 109
18, 18090, Note_on_c, 9, 37, 0
18, 18090, Note_on_c, 9, 37, 89
18, 18120, Note_on_c, 9, 37, 0
18, 18180, Note_on_c, 9, 37, 109
18, 18210, Note_on_c, 9, 37, 0
18, 18300, Note_on_c, 9, 37, 92
18, 18330, Note_on_c, 9, 37, 0
18, 18330, Note_on_c, 9, 37, 75
18, 18360, Note_on_c, 9, 37, 0
18, 18420, Note_on_c, 9, 37, 104
18, 18450, Note_on_c, 9, 37, 0
18, 18540, Note_on_c, 9, 37, 114
18, 18600, Note_on_c, 9, 37, 0
18, 18660, Note_on_c, 9, 37, 109
18, 18750, Note_on_c, 9, 37, 0
18, 18780, Note_on_c, 9, 37, 81
18, 18810, Note_on_c, 9, 37, 0
18, 18900, Note_on_c, 9, 37, 109
18, 18990, Note_on_c, 9, 37, 0
18, 19020, Note_on_c, 9, 37, 92
18, 19050, Note_on_c, 9, 37, 0
18, 19050, Note_on_c, 9, 37, 84
18, 19080, Note_on_c, 9, 37, 0
18, 19140, Note_on_c, 9, 37, 104
18, 19170, Note_on_c, 9, 37, 0
18, 19260, Note_on_c, 9, 37, 100
18, 19290, Note_on_c, 9, 37, 0
18, 19380, Note_on_c, 9, 37, 114
18, 19410, Note_on_c, 9, 37, 0
18, 19500, Note_on_c, 9, 37, 109
18, 19530, Note_on_c, 9, 37, 0
18, 19620, Note_on_c, 9, 37, 114
18, 19650, Note_on_c, 9, 37, 0
18, 19740, Note_on_c, 9, 37, 104
18, 19770, Note_on_c, 9, 37, 0
18, 19770, Note_on_c, 9, 37, 89
18, 19800, Note_on_c, 9, 37, 0
18, 19860, Note_on_c, 9, 37, 109
18, 19890, Note_on_c, 9, 37, 0
18, 19980, Note_on_c, 9, 37, 114
18, 20070, Note_on_c, 9, 37, 0
18, 20100, Note_on_c, 9, 37, 100
18, 20130, Note_on_c, 9, 37, 0
18, 20130, Note_on_c, 9, 37, 68
18, 20160, Note_on_c, 9, 37, 0
18, 20220, Note_on_c, 9, 37, 104
18, 20250, Note_on_c, 9, 37, 0
18, 20340, Note_on_c, 9, 37, 100
18, 20370, Note_on_c, 9, 37, 0
18, 20460, Note_on_c, 9, 37, 104
18, 20520, Note_on_c, 9, 37, 0
18, 20580, Note_on_c, 9, 37, 109
18, 20610, Note_on_c, 9, 37, 0
18, 20700, Note_on_c, 9, 37, 84
18, 20730, Note_on_c, 9, 37, 0
18, 20730, Note_on_c, 9, 37, 79
18, 20760, Note_on_c, 9, 37, 0
18, 20820, Note_on_c, 9, 37, 109
18, 20910, Note_on_c, 9, 37, 0
18, 20940, Note_on_c, 9, 37, 109
18, 21000, Note_on_c, 9, 37, 0
18, 21060, Note_on_c, 9, 37, 104
18, 21120, Note_on_c, 9, 37, 0
18, 21180, Note_on_c, 9, 37, 109
18, 21210, Note_on_c, 9, 37, 0
18, 21300, Note_on_c, 9, 37, 104
18, 21360, Note_on_c, 9, 37, 0
18, 21420, Note_on_c, 9, 37, 104
18, 21480, Note_on_c, 9, 37, 0
18, 21540, Note_on_c, 9, 37, 81
18, 21570, Note_on_c, 9, 37, 0
18, 21660, Note_on_c, 9, 37, 104
18, 21720, Note_on_c, 9, 37, 0
18, 21780, Note_on_c, 9, 37, 100
18, 21780, Note_on_c, 9, 37, 23
18, 21810, Note_on_c, 9, 37, 0
18, 21810, Note_on_c, 9, 37, 0
18, 21900, Note_on_c, 9, 37, 109
18, 21930, Note_on_c, 9, 37, 0
18, 22020, Note_on_c, 9, 37, 104
18, 22110, Note_on_c, 9, 37, 0
18, 22140, Note_on_c, 9, 37, 104
18, 22230, Note_on_c, 9, 37, 0
18, 22260, Note_on_c, 9, 37, 104
18, 22320, Note_on_c, 9, 37, 0
18, 22380, Note_on_c, 9, 37, 100
18, 22410, Note_on_c, 9, 37, 0
18, 22500, Note_on_c, 9, 37, 104
18, 22560, Note_on_c, 9, 37, 0
18, 22620, Note_on_c, 9, 37, 109
18, 22650, Note_on_c, 9, 37, 0
18, 22740, Note_on_c, 9, 37, 104
18, 22770, Note_on_c, 9, 37, 0
18, 22860, Note_on_c, 9, 37, 109
18, 22890, Note_on_c, 9, 37, 0
18, 22980, Note_on_c, 9, 37, 96
18, 23010, Note_on_c, 9, 37, 0
18, 23100, Note_on_c, 9, 37, 104
18, 23130, Note_on_c, 9, 37, 0
18, 23220, Note_on_c, 9, 37, 104
18, 23250, Note_on_c, 9, 37, 0
18, 23340, Note_on_c, 9, 37, 100
18, 23370, Note_on_c, 9, 37, 0
18, 23460, Note_on_c, 9, 37, 100
18, 23490, Note_on_c, 9, 37, 0
18, 23580, Note_on_c, 9, 37, 104
18, 23610, Note_on_c, 9, 37, 0
18, 23700, Note_on_c, 9, 37, 96
18, 23730, Note_on_c, 9, 37, 0
18, 23820, Note_on_c, 9, 37, 104
18, 23850, Note_on_c, 9, 37, 0
18, 23940, Note_on_c, 9, 37, 114
18, 23970, Note_on_c, 9, 37, 0
18, 24060, Note_on_c, 9, 37, 104
18, 24090, Note_on_c, 9, 37, 0
18, 24180, Note_on_c, 9, 37, 104
18, 24210, Note_on_c, 9, 37, 0
18, 24300, Note_on_c, 9, 37, 114
18, 24330, Note_on_c, 9, 37, 0
18, 24420, Note_on_c, 9, 37, 104
18, 24450, Note_on_c, 9, 37, 0
18, 24540, Note_on_c, 9, 37, 96
18, 24570, Note_on_c, 9, 37, 0
18, 24660, Note_on_c, 9, 37, 92
18, 24690, Note_on_c, 9, 37, 0
18, 24780, Note_on_c, 9, 37, 104
18, 24810, Note_on_c, 9, 37, 0
18, 24900, Note_on_c, 9, 37, 96
18, 24960, Note_on_c, 9, 37, 0
18, 25020, Note_on_c, 9, 37, 104
18, 25050, Note_on_c, 9, 37, 0
18, 25140, Note_on_c, 9, 37, 86
18, 25170, Note_on_c, 9, 37, 0
18, 25260, Note_on_c, 9, 37, 100
18, 25290, Note_on_c, 9, 37, 0
18, 25380, Note_on_c, 9, 37, 104
18, 25410, Note_on_c, 9, 37, 0
18, 25500, Note_on_c, 9, 37, 109
18, 25530, Note_on_c, 9, 37, 0
18, 25620, Note_on_c, 9, 37, 109
18, 25680, Note_on_c, 9, 37, 0
18, 25740, Note_on_c, 9, 37, 114
18, 25770, Note_on_c, 9, 37, 0
18, 25860, Note_on_c, 9, 37, 114
18, 25890, Note_on_c, 9, 37, 0
18, 25980, Note_on_c, 9, 37, 119
18, 26040, Note_on_c, 9, 37, 0
18, 26100, Note_on_c, 9, 37, 114
18, 26160, Note_on_c, 9, 37, 0
18, 26220, Note_on_c, 9, 37, 114
18, 26250, Note_on_c, 9, 37, 0
18, 26340, Note_on_c, 9, 37, 114
18, 26400, Note_on_c, 9, 37, 0
18, 26460, Note_on_c, 9, 37, 109
18, 26490, Note_on_c, 9, 37, 0
18, 26580, Note_on_c, 9, 37, 114
18, 26610, Note_on_c, 9, 37, 0
18, 26700, Note_on_c, 9, 37, 119
18, 26730, Note_on_c, 9, 37, 0
18, 26820, Note_on_c, 9, 37, 119
18, 26850, Note_on_c, 9, 37, 0
18, 26940, Note_on_c, 9, 37, 114
18, 27000, Note_on_c, 9, 37, 0
18, 27060, Note_on_c, 9, 37, 109
18, 27150, Note_on_c, 9, 37, 0
18, 27180, Note_on_c, 9, 37, 114
18, 27270, Note_on_c, 9, 37, 0
18, 27300, Note_on_c, 9, 37, 114
18, 27390, Note_on_c, 9, 37, 0
18, 27420, Note_on_c, 9, 37, 114
18, 27510, Note_on_c, 9, 37, 0
18, 27540, Note_on_c, 9, 37, 119
18, 27600, Note_on_c, 9, 37, 0
18, 27660, Note_on_c, 9, 37, 109
18, 27720, Note_on_c, 9, 37, 0
18, 27780, Note_on_c, 9, 37, 109
18, 27870, Note_on_c, 9, 37, 0
18, 27900, Note_on_c, 9, 37, 124
18, 27990, Note_on_c, 9, 37, 0
18, 28020, Note_on_c, 9, 37, 119
18, 28080, Note_on_c, 9, 37, 0
18, 28140, Note_on_c, 9, 37, 114
18, 28170, Note_on_c, 9, 37, 0
18, 28260, Note_on_c, 9, 37, 114
18, 28290, Note_on_c, 9, 37, 0
18, 28380, Note_on_c, 9, 37, 100
18, 28470, Note_on_c, 9, 37, 0
18, 28500, Note_on_c, 9, 37, 114
18, 28590, Note_on_c, 9, 37, 0
18, 28620, Note_on_c, 9, 37, 119
18, 28650, Note_on_c, 9, 37, 0
18, 28740, Note_on_c, 9, 37, 119
18, 28800, Note_on_c, 9, 37, 0
18, 28860, Note_on_c, 9, 37, 124
18, 28920, Note_on_c, 9, 37, 0
18, 28980, Note_on_c, 9, 37, 119
18, 29040, Note_on_c, 9, 37, 0
18, 29100, Note_on_c, 9, 37, 114
18, 29160, Note_on_c, 9, 37, 0
18, 29220, Note_on_c, 9, 37, 119
18, 29250, Note_on_c, 9, 37, 0
18, 29340, Note_on_c, 9, 37, 109
18, 29370, Note_on_c, 9, 37, 0
18, 29460, Note_on_c, 9, 37, 100
18, 29490, Note_on_c, 9, 37, 0
18, 29580, Note_on_c, 9, 37, 114
18, 29610, Note_on_c, 9, 37, 0
18, 29700, Note_on_c, 9, 37, 104
18, 29730, Note_on_c, 9, 37, 0
18, 29820, Note_on_c, 9, 37, 114
18, 29850, Note_on_c, 9, 37, 0
18, 29940, Note_on_c, 9, 37, 96
18, 29970, Note_on_c, 9, 37, 0
18, 30060, Note_on_c, 9, 37, 119
18, 30090, Note_on_c, 9, 37, 0
18, 30180, Note_on_c, 9, 37, 114
18, 30210, Note_on_c, 9, 37, 0
18, 30420, Note_on_c, 9, 37, 109
18, 30450, Note_on_c, 9, 37, 0
18, 30540, Note_on_c, 9, 37, 104
18, 30570, Note_on_c, 9, 37, 0
18, 30660, Note_on_c, 9, 37, 119
18, 30690, Note_on_c, 9, 37, 0
18, 30780, Note_on_c, 9, 37, 109
18, 30810, Note_on_c, 9, 37, 0
18, 30900, Note_on_c, 9, 37, 114
18, 30960, Note_on_c, 9, 37, 0
18, 31020, Note_on_c, 9, 37, 89
18, 31080, Note_on_c, 9, 37, 0
18, 31140, Note_on_c, 9, 37, 119
18, 31170, Note_on_c, 9, 37, 0
18, 31260, Note_on_c, 9, 37, 114
18, 31350, Note_on_c, 9, 37, 0
18, 31380, Note_on_c, 9, 37, 114
18, 31410, Note_on_c, 9, 37, 0
18, 31410, Note_on_c, 9, 37, 73
18, 31440, Note_on_c, 9, 37, 0
18, 31500, Note_on_c, 9, 37, 114
18, 31530, Note_on_c, 9, 37, 0
18, 31620, Note_on_c, 9, 37, 114
18, 31650, Note_on_c, 9, 37, 0
18, 31650, Note_on_c, 9, 37, 96
18, 31680, Note_on_c, 9, 37, 0
18, 31740, Note_on_c, 9, 37, 104
18, 31770, Note_on_c, 9, 37, 0
18, 31860, Note_on_c, 9, 37, 89
18, 31890, Note_on_c, 9, 37, 0
18, 31980, Note_on_c, 9, 37, 89
18, 32010, Note_on_c, 9, 37, 0
18, 32100, Note_on_c, 9, 37, 104
18, 32130, Note_on_c, 9, 37, 0
18, 32220, Note_on_c, 9, 37, 119
18, 32250, Note_on_c, 9, 37, 0
18, 32250, Note_on_c, 9, 37, 84
18, 32280, Note_on_c, 9, 37, 0
18, 32340, Note_on_c, 9, 37, 104
18, 32370, Note_on_c, 9, 37, 0
18, 32370, Note_on_c, 9, 37, 92
18, 32400, Note_on_c, 9, 37, 0
18, 32460, Note_on_c, 9, 37, 104
18, 32490, Note_on_c, 9, 37, 0
18, 32580, Note_on_c, 9, 37, 114
18, 32610, Note_on_c, 9, 37, 0
18, 32700, Note_on_c, 9, 37, 114
18, 32760, Note_on_c, 9, 37, 0
18, 32820, Note_on_c, 9, 37, 109
18, 32850, Note_on_c, 9, 37, 0
18, 32850, Note_on_c, 9, 37, 89
18, 32880, Note_on_c, 9, 37, 0
18, 32940, Note_on_c, 9, 37, 119
18, 32970, Note_on_c, 9, 37, 0
18, 33060, Note_on_c, 9, 37, 119
18, 33090, Note_on_c, 9, 37, 0
18, 33180, Note_on_c, 9, 37, 119
18, 33210, Note_on_c, 9, 37, 0
18, 33300, Note_on_c, 9, 37, 109
18, 33330, Note_on_c, 9, 37, 0
18, 33330, Note_on_c, 9, 37, 89
18, 33360, Note_on_c, 9, 37, 0
18, 33420, Note_on_c, 9, 37, 114
18, 33450, Note_on_c, 9, 37, 0
18, 33450, Note_on_c, 9, 37, 104
18, 33480, Note_on_c, 9, 37, 0
18, 33540, Note_on_c, 9, 37, 114
18, 33570, Note_on_c, 9, 37, 0
18, 33660, Note_on_c, 9, 37, 109
18, 33690, Note_on_c, 9, 37, 0
18, 33690, Note_on_c, 9, 37, 84
18, 33720, Note_on_c, 9, 37, 0
18, 33780, Note_on_c, 9, 37, 100
18, 33870, Note_on_c, 9, 37, 0
18, 33900, Note_on_c, 9, 37, 109
18, 33990, Note_on_c, 9, 37, 0
18, 34020, Note_on_c, 9, 37, 124
18, 34110, Note_on_c, 9, 37, 0
18, 34140, Note_on_c, 9, 37, 104
18, 34170, Note_on_c, 9, 37, 0
18, 34170, Note_on_c, 9, 37, 55
18, 34200, Note_on_c, 9, 37, 0
18, 34260, Note_on_c, 9, 37, 92
18, 34290, Note_on_c, 9, 37, 0
18, 34290, Note_on_c, 9, 37, 68
18, 34320, Note_on_c, 9, 37, 0
18, 34380, Note_on_c, 9, 37, 100
18, 34410, Note_on_c, 9, 37, 0
18, 34500, Note_on_c, 9, 37, 86
18, 34530, Note_on_c, 9, 37, 0
18, 34530, Note_on_c, 9, 37, 79
18, 34560, Note_on_c, 9, 37, 0
18, 34620, Note_on_c, 9, 37, 104
18, 34680, Note_on_c, 9, 37, 0
18, 34740, Note_on_c, 9, 37, 89
18, 34770, Note_on_c, 9, 37, 0
18, 34770, Note_on_c, 9, 37, 86
18, 34800, Note_on_c, 9, 37, 0
18, 34860, Note_on_c, 9, 37, 114
18, 34890, Note_on_c, 9, 37, 0
18, 34890, Note_on_c, 9, 37, 79
18, 34950, Note_on_c, 9, 37, 0
18, 34980, Note_on_c, 9, 37, 114
18, 35070, Note_on_c, 9, 37, 0
18, 35100, Note_on_c, 9, 37, 89
18, 35130, Note_on_c, 9, 37, 0
18, 35130, Note_on_c, 9, 37, 92
18, 35160, Note_on_c, 9, 37, 0
18, 35220, Note_on_c, 9, 37, 109
18, 35250, Note_on_c, 9, 37, 0
18, 35340, Note_on_c, 9, 37, 109
18, 35430, Note_on_c, 9, 37, 0
18, 35460, Note_on_c, 9, 37, 109
18, 35550, Note_on_c, 9, 37, 0
18, 35580, Note_on_c, 9, 37, 114
18, 35640, Note_on_c, 9, 37, 0
18, 35700, Note_on_c, 9, 37, 89
18, 35730, Note_on_c, 9, 37, 0
18, 35730, Note_on_c, 9, 37, 81
18, 35760, Note_on_c, 9, 37, 0
18, 35820, Note_on_c, 9, 37, 114
18, 35850, Note_on_c, 9, 37, 0
18, 35940, Note_on_c, 9, 37, 124
18, 36000, Note_on_c, 9, 37, 0
18, 36060, Note_on_c, 9, 37, 100
18, 36090, Note_on_c, 9, 37, 0
18, 36090, Note_on_c, 9, 37, 100
18, 36120, Note_on_c, 9, 37, 0
18, 36180, Note_on_c, 9, 37, 119
18, 36270, Note_on_c, 9, 37, 0
18, 36300, Note_on_c, 9, 37, 109
18, 36330, Note_on_c, 9, 37, 0
18, 36330, Note_on_c, 9, 37, 81
18, 36360, Note_on_c, 9, 37, 0
18, 36420, Note_on_c, 9, 37, 114
18, 36510, Note_on_c, 9, 37, 0
18, 36540, Note_on_c, 9, 37, 89
18, 36570, Note_on_c, 9, 37, 0
18, 36570, Note_on_c, 9, 37, 54
18, 36600, Note_on_c, 9, 37, 0
18, 36660, Note_on_c, 9, 37, 109
18, 36690, Note_on_c, 9, 37, 0
18, 36780, Note_on_c, 9, 37, 114
18, 36810, Note_on_c, 9, 37, 0
18, 36810, Note_on_c, 9, 37, 56
18, 36840, Note_on_c, 9, 37, 0
18, 36900, Note_on_c, 9, 37, 119
18, 36930, Note_on_c, 9, 37, 0
18, 37020, Note_on_c, 9, 37, 100
18, 37050, Note_on_c, 9, 37, 0
18, 37050, Note_on_c, 9, 37, 52
18, 37080, Note_on_c, 9, 37, 0
18, 37140, Note_on_c, 9, 37, 114
18, 37170, Note_on_c, 9, 37, 0
18, 37260, Note_on_c, 9, 37, 100
18, 37290, Note_on_c, 9, 37, 0
18, 37290, Note_on_c, 9, 37, 89
18, 37320, Note_on_c, 9, 37, 0
18, 37380, Note_on_c, 9, 37, 109
18, 37410, Note_on_c, 9, 37, 0
18, 37500, Note_on_c, 9, 37, 109
18, 37590, Note_on_c, 9, 37, 0
18, 37620, Note_on_c, 9, 37, 114
18, 37650, Note_on_c, 9, 37, 0
18, 37650, Note_on_c, 9, 37, 36
18, 37680, Note_on_c, 9, 37, 0
18, 37740, Note_on_c, 9, 37, 104
18, 37770, Note_on_c, 9, 37, 0
18, 37770, Note_on_c, 9, 37, 96
18, 37830, Note_on_c, 9, 37, 0
18, 37860, Note_on_c, 9, 37, 104
18, 37890, Note_on_c, 9, 37, 0
18, 37890, Note_on_c, 9, 37, 96
18, 37920, Note_on_c, 9, 37, 0
18, 37980, Note_on_c, 9, 37, 96
18, 38010, Note_on_c, 9, 37, 0
18, 38010, Note_on_c, 9, 37, 92
18, 38040, Note_on_c, 9, 37, 0
18, 38100, Note_on_c, 9, 37, 109
18, 38130, Note_on_c, 9, 37, 0
18, 38220, Note_on_c, 9, 37, 100
18, 38250, Note_on_c, 9, 37, 0
18, 38250, Note_on_c, 9, 37, 73
18, 38280, Note_on_c, 9, 37, 0
18, 38340, Note_on_c, 9, 37, 119
18, 38370, Note_on_c, 9, 37, 0
18, 38460, Note_on_c, 9, 37, 92
18, 38490, Note_on_c, 9, 37, 0
18, 38490, Note_on_c, 9, 37, 96
18, 38520, Note_on_c, 9, 37, 0
18, 38580, Note_on_c, 9, 37, 114
18, 38640, Note_on_c, 9, 37, 0
18, 38700, Note_on_c, 9, 37, 114
18, 38790, Note_on_c, 9, 37, 0
18, 38820, Note_on_c, 9, 37, 109
18, 38850, Note_on_c, 9, 37, 0
18, 38850, Note_on_c, 9, 37, 86
18, 38880, Note_on_c, 9, 37, 0
18, 38940, Note_on_c, 9, 37, 114
18, 39030, Note_on_c, 9, 37, 0
18, 39060, Note_on_c, 9, 37, 109
18, 39090, Note_on_c, 9, 37, 0
18, 39090, Note_on_c, 9, 37, 86
18, 39120, Note_on_c, 9, 37, 0
18, 39180, Note_on_c, 9, 37, 119
18, 39210, Note_on_c, 9, 37, 0
18, 39210, Note_on_c, 9, 37, 58
18, 39270, Note_on_c, 9, 37, 0
18, 39300, Note_on_c, 9, 37, 124
18, 39390, Note_on_c, 9, 37, 0
18, 39420, Note_on_c, 9, 37, 109
18, 39450, Note_on_c, 9, 37, 0
18, 39450, Note_on_c, 9, 37, 79
18, 39480, Note_on_c, 9, 37, 0
18, 39540, Note_on_c, 9, 37, 109
18, 39570, Note_on_c, 9, 37, 0
18, 39660, Note_on_c, 9, 37, 104
18, 39690, Note_on_c, 9, 37, 0
18, 39690, Note_on_c, 9, 37, 86
18, 39720, Note_on_c, 9, 37, 0
18, 39780, Note_on_c, 9, 37, 114
18, 39840, Note_on_c, 9, 37, 0
18, 39900, Note_on_c, 9, 37, 56
18, 39930, Note_on_c, 9, 37, 0
18, 39930, Note_on_c, 9, 37, 66
18, 39960, Note_on_c, 9, 37, 0
18, 40020, Note_on_c, 9, 37, 119
18, 40050, Note_on_c, 9, 37, 0
18, 40140, Note_on_c, 9, 37, 81
18, 40170, Note_on_c, 9, 37, 0
18, 40170, Note_on_c, 9, 37, 89
18, 40200, Note_on_c, 9, 37, 0
18, 40260, Note_on_c, 9, 37, 104
18, 40350, Note_on_c, 9, 37, 0
18, 40380, Note_on_c, 9, 37, 89
18, 40410, Note_on_c, 9, 37, 0
18, 40410, Note_on_c, 9, 37, 89
18, 40470, Note_on_c, 9, 37, 0
18, 40500, Note_on_c, 9, 37, 109
18, 40560, Note_on_c, 9, 37, 0
18, 40620, Note_on_c, 9, 37, 109
18, 40650, Note_on_c, 9, 37, 0
18, 40740, Note_on_c, 9, 37, 109
18, 40770, Note_on_c, 9, 37, 0
18, 40860, Note_on_c, 9, 37, 114
18, 40920, Note_on_c, 9, 37, 0
18, 40980, Note_on_c, 9, 37, 124
18, 41040, Note_on_c, 9, 37, 0
18, 41100, Note_on_c, 9, 37, 96
18, 41190, Note_on_c, 9, 37, 0
18, 41220, Note_on_c, 9, 37, 119
18, 41310, Note_on_c, 9, 37, 0
18, 41340, Note_on_c, 9, 37, 104
18, 41430, Note_on_c, 9, 37, 0
18, 41460, Note_on_c, 9, 37, 119
18, 41550, Note_on_c, 9, 37, 0
18, 41580, Note_on_c, 9, 37, 84
18, 41610, Note_on_c, 9, 37, 0
18, 41610, Note_on_c, 9, 37, 104
18, 41670, Note_on_c, 9, 37, 0
18, 41700, Note_on_c, 9, 37, 119
18, 41730, Note_on_c, 9, 37, 0
18, 41730, Note_on_c, 9, 37, 92
18, 41790, Note_on_c, 9, 37, 0
18, 41820, Note_on_c, 9, 37, 114
18, 41850, Note_on_c, 9, 37, 0
18, 41850, Note_on_c, 9, 37, 86
18, 41910, Note_on_c, 9, 37, 0
18, 41940, Note_on_c, 9, 37, 114
18, 42030, Note_on_c, 9, 37, 0
18, 42060, Note_on_c, 9, 37, 104
18, 42060, Note_on_c, 9, 37, 41
18, 42090, Note_on_c, 9, 37, 0
18, 42120, Note_on_c, 9, 37, 0
18, 42180, Note_on_c, 9, 37, 114
18, 42240, Note_on_c, 9, 37, 0
18, 42300, Note_on_c, 9, 37, 119
18, 42360, Note_on_c, 9, 37, 0
18, 42420, Note_on_c, 9, 37, 119
18, 42510, Note_on_c, 9, 37, 0
18, 42540, Note_on_c, 9, 37, 119
18, 42600, Note_on_c, 9, 37, 0
18, 42660, Note_on_c, 9, 37, 114
18, 42720, Note_on_c, 9, 37, 0
18, 42780, Note_on_c, 9, 37, 104
18, 42810, Note_on_c, 9, 37, 0
18, 42900, Note_on_c, 9, 37, 109
18, 42990, Note_on_c, 9, 37, 0
18, 43020, Note_on_c, 9, 37, 109
18, 43050, Note_on_c, 9, 37, 0
18, 43140, Note_on_c, 9, 37, 100
18, 43200, Note_on_c, 9, 37, 0
18, 43260, Note_on_c, 9, 37, 109
18, 43290, Note_on_c, 9, 37, 0
18, 43380, Note_on_c, 9, 37, 114
18, 43440, Note_on_c, 9, 37, 0
18, 43500, Note_on_c, 9, 37, 100
18, 43530, Note_on_c, 9, 37, 0
18, 43620, Note_on_c, 9, 37, 114
18, 43680, Note_on_c, 9, 37, 0
18, 43740, Note_on_c, 9, 37, 104
18, 43770, Note_on_c, 9, 37, 0
18, 43860, Note_on_c, 9, 37, 119
18, 43950, Note_on_c, 9, 37, 0
18, 43980, Note_on_c, 9, 37, 104
18, 44040, Note_on_c, 9, 37, 0
18, 44100, Note_on_c, 9, 37, 109
18, 44160, Note_on_c, 9, 37, 0
18, 44220, Note_on_c, 9, 37, 100
18, 44280, Note_on_c, 9, 37, 0
18, 44340, Note_on_c, 9, 37, 109
18, 44400, Note_on_c, 9, 37, 0
18, 44460, Note_on_c, 9, 37, 109
18, 44520, Note_on_c, 9, 37, 0
18, 44580, Note_on_c, 9, 37, 104
18, 44640, Note_on_c, 9, 37, 0
18, 44700, Note_on_c, 9, 37, 114
18, 44790, Note_on_c, 9, 37, 0
18, 44820, Note_on_c, 9, 37, 104
18, 44880, Note_on_c, 9, 37, 0
18, 44940, Note_on_c, 9, 37, 100
18, 44970, Note_on_c, 9, 37, 0
18, 45060, Note_on_c, 9, 37, 119
18, 45090, Note_on_c, 9, 37, 0
18, 45180, Note_on_c, 9, 37, 104
18, 45210, Note_on_c, 9, 37, 0
18, 45300, Note_on_c, 9, 37, 104
18, 45360, Note_on_c, 9, 37, 0
18, 45420, Note_on_c, 9, 37, 96
18, 45480, Note_on_c, 9, 37, 0
18, 45540, Note_on_c, 9, 37, 109
18, 45600, Note_on_c, 9, 37, 0
18, 45660, Note_on_c, 9, 37, 96
18, 45690, Note_on_c, 9, 37, 0
18, 45780, Note_on_c, 9, 37, 114
18, 45840, Note_on_c, 9, 37, 0
18, 45900, Note_on_c, 9, 37, 109
18, 45960, Note_on_c, 9, 37, 0
18, 46020, Note_on_c, 9, 37, 96
18, 46080, Note_on_c, 9, 37, 0
18, 46140, Note_on_c, 9, 37, 109
18, 46200, Note_on_c, 9, 37, 0
18, 46260, Note_on_c, 9, 37, 124
18, 46320, Note_on_c, 9, 37, 0
18, 46380, Note_on_c, 9, 37, 104
18, 46410, Note_on_c, 9, 37, 0
18, 46500, Note_on_c, 9, 37, 109
18, 46560, Note_on_c, 9, 37, 0
18, 46620, Note_on_c, 9, 37, 100
18, 46680, Note_on_c, 9, 37, 0
18, 46740, Note_on_c, 9, 37, 119
18, 46830, Note_on_c, 9, 37, 0
18, 46860, Note_on_c, 9, 37, 100
18, 46950, Note_on_c, 9, 37, 0
18, 46980, Note_on_c, 9, 37, 109
18, 47070, Note_on_c, 9, 37, 0
18, 47100, Note_on_c, 9, 37, 109
18, 47190, Note_on_c, 9, 37, 0
18, 47220, Note_on_c, 9, 37, 114
18, 47280, Note_on_c, 9, 37, 0
18, 47340, Note_on_c, 9, 37, 109
18, 47430, Note_on_c, 9, 37, 0
18, 47460, Note_on_c, 9, 37, 104
18, 47550, Note_on_c, 9, 37, 0
18, 47580, Note_on_c, 9, 37, 104
18, 47670, Note_on_c, 9, 37, 0
18, 47700, Note_on_c, 9, 37, 109
18, 47790, Note_on_c, 9, 37, 0
18, 47820, Note_on_c, 9, 37, 114
18, 47910, Note_on_c, 9, 37, 0
18, 47940, Note_on_c, 9, 37, 96
18, 48030, Note_on_c, 9, 37, 0
18, 48060, Note_on_c, 9, 37, 119
18, 48150, Note_on_c, 9, 37, 0
18, 48180, Note_on_c, 9, 37, 109
18, 48270, Note_on_c, 9, 37, 0
18, 48300, Note_on_c, 9, 37, 109
18, 48390, Note_on_c, 9, 37, 0
18, 48420, Note_on_c, 9, 37, 114
18, 48510, Note_on_c, 9, 37, 0
18, 48540, Note_on_c, 9, 37, 109
18, 48630, Note_on_c, 9, 37, 0
18, 48660, Note_on_c, 9, 37, 119
18, 48750, Note_on_c, 9, 37, 0
18, 48780, Note_on_c, 9, 37, 109
18, 48870, Note_on_c, 9, 37, 0
18, 48900, Note_on_c, 9, 37, 114
18, 48990, Note_on_c, 9, 37, 0
18, 49020, Note_on_c, 9, 37, 96
18, 49110, Note_on_c, 9, 37, 0
18, 49140, Note_on_c, 9, 37, 96
18, 49200, Note_on_c, 9, 37, 0
18, 49260, Note_on_c, 9, 37, 96
18, 49350, Note_on_c, 9, 37, 0
18, 49380, Note_on_c, 9, 37, 100
18, 49470, Note_on_c, 9, 37, 0
18, 49500, Note_on_c, 9, 37, 100
18, 49560, Note_on_c, 9, 37, 0
18, 49560, End_track
19, 0, Start_track
19, 0, MIDI_port, 0
19, 0, Title_t, "Sweep"
19, 0, Control_c, 14, 0, 56
19, 0, Control_c, 14, 32, 0
19, 0, Program_c, 14, 95
19, 0, Control_c, 14, 7, 100
19, 0, Control_c, 14, 10, 64
19, 480, Note_on_c, 14, 74, 42
19, 660, Control_c, 14, 7, 127
19, 660, Control_c, 14, 10, 64
19, 830, Note_on_c, 14, 74, 0
19, 5296, Control_c, 14, 7, 126
19, 5299, Control_c, 14, 7, 124
19, 5314, Control_c, 14, 7, 123
19, 10947, Control_c, 14, 10, 66
19, 10961, Control_c, 14, 10, 74
19, 10966, Control_c, 14, 10, 87
19, 10966, Control_c, 14, 10, 79
19, 11700, Control_c, 14, 10, 61
19, 11710, Control_c, 14, 10, 65
19, 11710, Control_c, 14, 10, 63
19, 11715, Control_c, 14, 10, 75
19, 11720, Control_c, 14, 10, 83
19, 11725, Control_c, 14, 10, 84
19, 11775, Control_c, 14, 10, 79
19, 11775, Control_c, 14, 10, 83
19, 11780, Control_c, 14, 10, 78
19, 30120, Note_on_c, 14, 58, 50
19, 30371, Note_on_c, 14, 58, 0
19, 30371, End_track
20, 0, Start_track
20, 0, MIDI_port, 0
20, 0, Title_t, "Seashore"
20, 0, Control_c, 15, 0, 56
20, 0, Control_c, 15, 32, 0
20, 0, Program_c, 15, 122
20, 0, Control_c, 15, 7, 100
20, 0, Control_c, 15, 10, 64
20, 480, Note_on_c, 15, 74, 20
20, 480, Note_on_c, 15, 62, 19
20, 660, Control_c, 15, 7, 127
20, 660, Control_c, 15, 10, 64
20, 682, Note_on_c, 15, 62, 0
20, 682, Note_on_c, 15, 74, 0
20, 5421, Control_c, 15, 7, 126
20, 5426, Control_c, 15, 7, 120
20, 11130, Control_c, 15, 10, 63
20, 11147, Control_c, 15, 10, 60
20, 11152, Control_c, 15, 10, 57
20, 11157, Control_c, 15, 10, 56
20, 11170, Control_c, 15, 10, 53
20, 11175, Control_c, 15, 10, 52
20, 11176, Control_c, 15, 10, 49
20, 11206, Control_c, 15, 10, 46
20, 11903, Control_c, 15, 10, 68
20, 11913, Control_c, 15, 10, 71
20, 11920, Control_c, 15, 10, 74
20, 11920, Control_c, 15, 10, 72
20, 11925, Control_c, 15, 10, 75
20, 30000, Note_on_c, 15, 73, 53
20, 30479, Note_on_c, 15, 73, 0
20, 30479, End_track
21, 0, Start_track
21, 0, MIDI_port, 0
21, 0, End_track
22, 0, Start_track
22, 0, MIDI_port, 0
22, 0, Title_t, "**My Father's Shoes**"
22, 0, End_track
23, 0, Start_track
23, 0, MIDI_port, 0
23, 0, Title_t, "**By - Level 42 **"
23, 0, End_track
24, 0, Start_track
24, 0, MIDI_port, 0
24, 0, Title_t, "** Off the Album --"
24, 0, End_track
25, 0, Start_track
25, 0, MIDI_port, 0
25, 0, Title_t, "Guaranteed **"
25, 0, End_track
26, 0, Start_track
26, 0, MIDI_port, 0
26, 0, Title_t, "Arrangement by: Bob C"
26, 0, End_track
27, 0, Start_track
27, 0, MIDI_port, 0
27, 0, Title_t, "addtl arrangements by SDG"
27, 0, End_track
28, 0, Start_track
28, 0, MIDI_port, 0
28, 0, Title_t, "E-Mail to: BobC971@aol.com"
28, 0, End_track
0, 0, End_of_file
