0, 0, Header, 1, 12, 480
1, 0, Start_track
1, 0, Title_t, "WWST-0006"
1, 0, Copyright_t, "© by WWST"
1, 0, Text_t, "SvT"
1, 0, MIDI_port, 0
1, 0, System_exclusive, 10, 65, 16, 66, 18, 64, 0, 127, 0, 65, 247
1, 0, MIDI_port, 0
1, 0, Time_signature, 4, 2, 24, 8
1, 0, Key_signature, 0, "major"
1, 0, Tempo, 750000
1, 0, End_track
2, 0, Start_track
2, 0, MIDI_port, 0
2, 0, Title_t, "'My Love Is Your Love'"
2, 0, Control_c, 0, 91, 23
2, 0, Control_c, 0, 93, 1
2, 480, Control_c, 0, 0, 0
2, 482, Program_c, 0, 39
2, 483, Control_c, 0, 7, 106
2, 483, Control_c, 0, 10, 78
2, 3840, Note_on_c, 0, 36, 103
2, 4075, Note_on_c, 0, 36, 0
2, 4080, Note_on_c, 0, 36, 70
2, 4195, Note_on_c, 0, 36, 0
2, 4200, Note_on_c, 0, 36, 77
2, 4315, Note_on_c, 0, 36, 0
2, 4320, Note_on_c, 0, 36, 103
2, 4795, Note_on_c, 0, 36, 0
2, 4800, Note_on_c, 0, 31, 86
2, 5035, Note_on_c, 0, 31, 0
2, 5040, Note_on_c, 0, 31, 83
2, 5280, Note_on_c, 0, 31, 103
2, 5755, Note_on_c, 0, 31, 0
2, 5755, Note_on_c, 0, 31, 0
2, 5760, Note_on_c, 0, 36, 103
2, 5995, Note_on_c, 0, 36, 0
2, 6000, Note_on_c, 0, 36, 70
2, 6115, Note_on_c, 0, 36, 0
2, 6120, Note_on_c, 0, 36, 77
2, 6235, Note_on_c, 0, 36, 0
2, 6240, Note_on_c, 0, 36, 103
2, 6715, Note_on_c, 0, 36, 0
2, 6720, Note_on_c, 0, 31, 86
2, 6955, Note_on_c, 0, 31, 0
2, 6960, Note_on_c, 0, 31, 83
2, 7200, Note_on_c, 0, 31, 103
2, 7675, Note_on_c, 0, 31, 0
2, 7675, Note_on_c, 0, 31, 0
2, 7680, Note_on_c, 0, 36, 103
2, 7915, Note_on_c, 0, 36, 0
2, 7920, Note_on_c, 0, 36, 70
2, 8035, Note_on_c, 0, 36, 0
2, 8040, Note_on_c, 0, 36, 77
2, 8155, Note_on_c, 0, 36, 0
2, 8160, Note_on_c, 0, 36, 103
2, 8635, Note_on_c, 0, 36, 0
2, 8640, Note_on_c, 0, 31, 86
2, 8875, Note_on_c, 0, 31, 0
2, 8880, Note_on_c, 0, 31, 83
2, 9120, Note_on_c, 0, 31, 103
2, 9595, Note_on_c, 0, 31, 0
2, 9595, Note_on_c, 0, 31, 0
2, 9600, Note_on_c, 0, 36, 103
2, 9835, Note_on_c, 0, 36, 0
2, 9840, Note_on_c, 0, 36, 70
2, 9955, Note_on_c, 0, 36, 0
2, 9960, Note_on_c, 0, 36, 77
2, 10075, Note_on_c, 0, 36, 0
2, 10080, Note_on_c, 0, 36, 103
2, 10555, Note_on_c, 0, 36, 0
2, 10560, Note_on_c, 0, 31, 86
2, 10795, Note_on_c, 0, 31, 0
2, 10800, Note_on_c, 0, 31, 83
2, 11040, Note_on_c, 0, 31, 103
2, 11515, Note_on_c, 0, 31, 0
2, 11515, Note_on_c, 0, 31, 0
2, 11520, Note_on_c, 0, 36, 103
2, 11755, Note_on_c, 0, 36, 0
2, 11760, Note_on_c, 0, 36, 70
2, 11875, Note_on_c, 0, 36, 0
2, 11880, Note_on_c, 0, 36, 77
2, 11995, Note_on_c, 0, 36, 0
2, 12000, Note_on_c, 0, 36, 103
2, 12475, Note_on_c, 0, 36, 0
2, 12480, Note_on_c, 0, 31, 86
2, 12715, Note_on_c, 0, 31, 0
2, 12720, Note_on_c, 0, 31, 83
2, 12960, Note_on_c, 0, 31, 103
2, 13435, Note_on_c, 0, 31, 0
2, 13435, Note_on_c, 0, 31, 0
2, 13440, Note_on_c, 0, 33, 103
2, 13675, Note_on_c, 0, 33, 0
2, 13680, Note_on_c, 0, 33, 103
2, 13795, Note_on_c, 0, 33, 0
2, 13800, Note_on_c, 0, 33, 103
2, 13915, Note_on_c, 0, 33, 0
2, 13920, Note_on_c, 0, 33, 103
2, 14395, Note_on_c, 0, 33, 0
2, 14400, Note_on_c, 0, 33, 103
2, 14635, Note_on_c, 0, 33, 0
2, 14640, Note_on_c, 0, 33, 103
2, 15355, Note_on_c, 0, 33, 0
2, 15360, Note_on_c, 0, 38, 103
2, 15595, Note_on_c, 0, 38, 0
2, 15600, Note_on_c, 0, 38, 103
2, 15715, Note_on_c, 0, 38, 0
2, 15720, Note_on_c, 0, 38, 103
2, 15835, Note_on_c, 0, 38, 0
2, 15840, Note_on_c, 0, 38, 103
2, 16315, Note_on_c, 0, 38, 0
2, 16320, Note_on_c, 0, 36, 103
2, 16555, Note_on_c, 0, 36, 0
2, 16560, Note_on_c, 0, 36, 103
2, 16795, Note_on_c, 0, 36, 0
2, 16800, Note_on_c, 0, 36, 103
2, 17275, Note_on_c, 0, 36, 0
2, 17280, Note_on_c, 0, 35, 103
2, 17515, Note_on_c, 0, 35, 0
2, 17520, Note_on_c, 0, 35, 103
2, 17635, Note_on_c, 0, 35, 0
2, 17640, Note_on_c, 0, 35, 103
2, 17755, Note_on_c, 0, 35, 0
2, 17760, Note_on_c, 0, 35, 103
2, 18235, Note_on_c, 0, 35, 0
2, 18240, Note_on_c, 0, 31, 103
2, 18475, Note_on_c, 0, 31, 0
2, 18480, Note_on_c, 0, 31, 103
2, 19195, Note_on_c, 0, 31, 0
2, 19200, Note_on_c, 0, 36, 103
2, 19435, Note_on_c, 0, 36, 0
2, 19440, Note_on_c, 0, 36, 70
2, 19555, Note_on_c, 0, 36, 0
2, 19560, Note_on_c, 0, 36, 77
2, 19675, Note_on_c, 0, 36, 0
2, 19680, Note_on_c, 0, 36, 103
2, 20155, Note_on_c, 0, 36, 0
2, 20160, Note_on_c, 0, 35, 103
2, 20395, Note_on_c, 0, 35, 0
2, 20400, Note_on_c, 0, 35, 103
2, 20635, Note_on_c, 0, 35, 0
2, 20640, Note_on_c, 0, 35, 103
2, 21115, Note_on_c, 0, 35, 0
2, 21120, Note_on_c, 0, 33, 103
2, 21355, Note_on_c, 0, 33, 0
2, 21360, Note_on_c, 0, 33, 103
2, 21475, Note_on_c, 0, 33, 0
2, 21480, Note_on_c, 0, 33, 103
2, 21595, Note_on_c, 0, 33, 0
2, 21600, Note_on_c, 0, 33, 103
2, 22075, Note_on_c, 0, 33, 0
2, 22080, Note_on_c, 0, 29, 103
2, 22315, Note_on_c, 0, 29, 0
2, 22320, Note_on_c, 0, 29, 103
2, 22555, Note_on_c, 0, 29, 0
2, 22560, Note_on_c, 0, 29, 103
2, 23035, Note_on_c, 0, 29, 0
2, 23040, Note_on_c, 0, 36, 103
2, 23275, Note_on_c, 0, 36, 0
2, 23280, Note_on_c, 0, 36, 70
2, 23395, Note_on_c, 0, 36, 0
2, 23400, Note_on_c, 0, 36, 77
2, 23515, Note_on_c, 0, 36, 0
2, 23520, Note_on_c, 0, 36, 103
2, 23995, Note_on_c, 0, 36, 0
2, 24000, Note_on_c, 0, 31, 86
2, 24235, Note_on_c, 0, 31, 0
2, 24240, Note_on_c, 0, 31, 83
2, 24480, Note_on_c, 0, 31, 103
2, 24955, Note_on_c, 0, 31, 0
2, 24955, Note_on_c, 0, 31, 0
2, 24960, Note_on_c, 0, 36, 103
2, 25195, Note_on_c, 0, 36, 0
2, 25200, Note_on_c, 0, 36, 70
2, 25315, Note_on_c, 0, 36, 0
2, 25320, Note_on_c, 0, 36, 77
2, 25435, Note_on_c, 0, 36, 0
2, 25440, Note_on_c, 0, 36, 103
2, 25915, Note_on_c, 0, 36, 0
2, 25920, Note_on_c, 0, 31, 86
2, 26155, Note_on_c, 0, 31, 0
2, 26160, Note_on_c, 0, 31, 83
2, 26400, Note_on_c, 0, 31, 103
2, 26875, Note_on_c, 0, 31, 0
2, 26875, Note_on_c, 0, 31, 0
2, 26880, Note_on_c, 0, 36, 103
2, 27115, Note_on_c, 0, 36, 0
2, 27120, Note_on_c, 0, 36, 70
2, 27235, Note_on_c, 0, 36, 0
2, 27240, Note_on_c, 0, 36, 77
2, 27355, Note_on_c, 0, 36, 0
2, 27360, Note_on_c, 0, 36, 103
2, 27835, Note_on_c, 0, 36, 0
2, 27840, Note_on_c, 0, 31, 86
2, 28075, Note_on_c, 0, 31, 0
2, 28080, Note_on_c, 0, 31, 83
2, 28320, Note_on_c, 0, 31, 103
2, 28795, Note_on_c, 0, 31, 0
2, 28795, Note_on_c, 0, 31, 0
2, 28800, Note_on_c, 0, 36, 103
2, 29035, Note_on_c, 0, 36, 0
2, 29040, Note_on_c, 0, 36, 70
2, 29155, Note_on_c, 0, 36, 0
2, 29160, Note_on_c, 0, 36, 77
2, 29275, Note_on_c, 0, 36, 0
2, 29280, Note_on_c, 0, 36, 103
2, 29755, Note_on_c, 0, 36, 0
2, 29760, Note_on_c, 0, 31, 86
2, 29995, Note_on_c, 0, 31, 0
2, 30000, Note_on_c, 0, 31, 83
2, 30240, Note_on_c, 0, 31, 103
2, 30715, Note_on_c, 0, 31, 0
2, 30715, Note_on_c, 0, 31, 0
2, 30720, Note_on_c, 0, 33, 103
2, 30955, Note_on_c, 0, 33, 0
2, 30960, Note_on_c, 0, 33, 103
2, 31075, Note_on_c, 0, 33, 0
2, 31080, Note_on_c, 0, 33, 103
2, 31195, Note_on_c, 0, 33, 0
2, 31200, Note_on_c, 0, 33, 103
2, 31675, Note_on_c, 0, 33, 0
2, 31680, Note_on_c, 0, 33, 103
2, 31915, Note_on_c, 0, 33, 0
2, 31920, Note_on_c, 0, 33, 103
2, 32635, Note_on_c, 0, 33, 0
2, 32640, Note_on_c, 0, 38, 103
2, 32875, Note_on_c, 0, 38, 0
2, 32880, Note_on_c, 0, 38, 103
2, 32995, Note_on_c, 0, 38, 0
2, 33000, Note_on_c, 0, 38, 103
2, 33115, Note_on_c, 0, 38, 0
2, 33120, Note_on_c, 0, 38, 103
2, 33595, Note_on_c, 0, 38, 0
2, 33600, Note_on_c, 0, 36, 103
2, 33835, Note_on_c, 0, 36, 0
2, 33840, Note_on_c, 0, 36, 103
2, 34075, Note_on_c, 0, 36, 0
2, 34080, Note_on_c, 0, 36, 103
2, 34555, Note_on_c, 0, 36, 0
2, 34560, Note_on_c, 0, 35, 103
2, 34795, Note_on_c, 0, 35, 0
2, 34800, Note_on_c, 0, 35, 103
2, 34915, Note_on_c, 0, 35, 0
2, 34920, Note_on_c, 0, 35, 103
2, 35035, Note_on_c, 0, 35, 0
2, 35040, Note_on_c, 0, 35, 103
2, 35515, Note_on_c, 0, 35, 0
2, 35520, Note_on_c, 0, 31, 103
2, 35755, Note_on_c, 0, 31, 0
2, 35760, Note_on_c, 0, 31, 103
2, 36475, Note_on_c, 0, 31, 0
2, 36480, Note_on_c, 0, 36, 103
2, 36715, Note_on_c, 0, 36, 0
2, 36720, Note_on_c, 0, 36, 70
2, 36835, Note_on_c, 0, 36, 0
2, 36840, Note_on_c, 0, 36, 77
2, 36955, Note_on_c, 0, 36, 0
2, 36960, Note_on_c, 0, 36, 103
2, 37435, Note_on_c, 0, 36, 0
2, 37440, Note_on_c, 0, 35, 103
2, 37675, Note_on_c, 0, 35, 0
2, 37680, Note_on_c, 0, 35, 103
2, 37915, Note_on_c, 0, 35, 0
2, 37920, Note_on_c, 0, 35, 103
2, 38395, Note_on_c, 0, 35, 0
2, 38400, Note_on_c, 0, 33, 103
2, 38635, Note_on_c, 0, 33, 0
2, 38640, Note_on_c, 0, 33, 103
2, 38755, Note_on_c, 0, 33, 0
2, 38760, Note_on_c, 0, 33, 103
2, 38875, Note_on_c, 0, 33, 0
2, 38880, Note_on_c, 0, 33, 103
2, 39355, Note_on_c, 0, 33, 0
2, 39360, Note_on_c, 0, 29, 103
2, 39595, Note_on_c, 0, 29, 0
2, 39600, Note_on_c, 0, 29, 103
2, 39835, Note_on_c, 0, 29, 0
2, 39840, Note_on_c, 0, 29, 103
2, 40315, Note_on_c, 0, 29, 0
2, 40320, Note_on_c, 0, 36, 103
2, 40555, Note_on_c, 0, 36, 0
2, 40560, Note_on_c, 0, 36, 70
2, 40675, Note_on_c, 0, 36, 0
2, 40680, Note_on_c, 0, 36, 77
2, 40795, Note_on_c, 0, 36, 0
2, 40800, Note_on_c, 0, 36, 103
2, 41275, Note_on_c, 0, 36, 0
2, 41280, Note_on_c, 0, 31, 86
2, 41515, Note_on_c, 0, 31, 0
2, 41520, Note_on_c, 0, 31, 83
2, 41760, Note_on_c, 0, 31, 103
2, 42235, Note_on_c, 0, 31, 0
2, 42235, Note_on_c, 0, 31, 0
2, 42240, Note_on_c, 0, 36, 103
2, 42475, Note_on_c, 0, 36, 0
2, 42480, Note_on_c, 0, 36, 70
2, 42595, Note_on_c, 0, 36, 0
2, 42600, Note_on_c, 0, 36, 77
2, 42715, Note_on_c, 0, 36, 0
2, 42720, Note_on_c, 0, 36, 103
2, 43195, Note_on_c, 0, 36, 0
2, 43200, Note_on_c, 0, 31, 86
2, 43435, Note_on_c, 0, 31, 0
2, 43440, Note_on_c, 0, 31, 83
2, 43680, Note_on_c, 0, 31, 103
2, 44155, Note_on_c, 0, 31, 0
2, 44155, Note_on_c, 0, 31, 0
2, 44160, Note_on_c, 0, 36, 103
2, 44395, Note_on_c, 0, 36, 0
2, 44400, Note_on_c, 0, 36, 70
2, 44515, Note_on_c, 0, 36, 0
2, 44520, Note_on_c, 0, 36, 77
2, 44635, Note_on_c, 0, 36, 0
2, 44640, Note_on_c, 0, 36, 103
2, 45115, Note_on_c, 0, 36, 0
2, 45120, Note_on_c, 0, 31, 86
2, 45355, Note_on_c, 0, 31, 0
2, 45360, Note_on_c, 0, 31, 83
2, 45600, Note_on_c, 0, 31, 103
2, 46075, Note_on_c, 0, 31, 0
2, 46075, Note_on_c, 0, 31, 0
2, 46080, Note_on_c, 0, 36, 103
2, 46315, Note_on_c, 0, 36, 0
2, 46320, Note_on_c, 0, 36, 70
2, 46435, Note_on_c, 0, 36, 0
2, 46440, Note_on_c, 0, 36, 77
2, 46555, Note_on_c, 0, 36, 0
2, 46560, Note_on_c, 0, 36, 103
2, 47035, Note_on_c, 0, 36, 0
2, 47040, Note_on_c, 0, 31, 86
2, 47275, Note_on_c, 0, 31, 0
2, 47280, Note_on_c, 0, 31, 83
2, 47520, Note_on_c, 0, 31, 103
2, 47995, Note_on_c, 0, 31, 0
2, 47995, Note_on_c, 0, 31, 0
2, 48000, Note_on_c, 0, 36, 103
2, 48235, Note_on_c, 0, 36, 0
2, 48240, Note_on_c, 0, 33, 103
2, 48355, Note_on_c, 0, 33, 0
2, 48360, Note_on_c, 0, 31, 103
2, 48475, Note_on_c, 0, 31, 0
2, 48480, Note_on_c, 0, 36, 103
2, 48955, Note_on_c, 0, 36, 0
2, 48960, Note_on_c, 0, 31, 103
2, 49195, Note_on_c, 0, 31, 0
2, 49200, Note_on_c, 0, 31, 103
2, 49435, Note_on_c, 0, 31, 0
2, 49680, Note_on_c, 0, 31, 103
2, 49915, Note_on_c, 0, 31, 0
2, 49920, Note_on_c, 0, 33, 103
2, 50155, Note_on_c, 0, 33, 0
2, 50160, Note_on_c, 0, 33, 103
2, 50275, Note_on_c, 0, 33, 0
2, 50280, Note_on_c, 0, 28, 103
2, 50395, Note_on_c, 0, 28, 0
2, 50400, Note_on_c, 0, 33, 103
2, 50875, Note_on_c, 0, 33, 0
2, 50880, Note_on_c, 0, 29, 103
2, 51115, Note_on_c, 0, 29, 0
2, 51120, Note_on_c, 0, 29, 103
2, 51355, Note_on_c, 0, 29, 0
2, 51600, Note_on_c, 0, 29, 103
2, 51835, Note_on_c, 0, 29, 0
2, 51840, Note_on_c, 0, 36, 103
2, 52075, Note_on_c, 0, 36, 0
2, 52080, Note_on_c, 0, 33, 103
2, 52195, Note_on_c, 0, 33, 0
2, 52200, Note_on_c, 0, 31, 103
2, 52315, Note_on_c, 0, 31, 0
2, 52320, Note_on_c, 0, 36, 103
2, 52795, Note_on_c, 0, 36, 0
2, 52800, Note_on_c, 0, 31, 103
2, 53035, Note_on_c, 0, 31, 0
2, 53040, Note_on_c, 0, 31, 103
2, 53275, Note_on_c, 0, 31, 0
2, 53520, Note_on_c, 0, 31, 103
2, 53755, Note_on_c, 0, 31, 0
2, 53760, Note_on_c, 0, 33, 103
2, 53995, Note_on_c, 0, 33, 0
2, 54000, Note_on_c, 0, 33, 103
2, 54115, Note_on_c, 0, 33, 0
2, 54120, Note_on_c, 0, 28, 103
2, 54235, Note_on_c, 0, 28, 0
2, 54240, Note_on_c, 0, 33, 103
2, 54715, Note_on_c, 0, 33, 0
2, 54720, Note_on_c, 0, 29, 103
2, 54955, Note_on_c, 0, 29, 0
2, 54960, Note_on_c, 0, 29, 103
2, 55195, Note_on_c, 0, 29, 0
2, 55440, Note_on_c, 0, 29, 103
2, 55675, Note_on_c, 0, 29, 0
2, 55680, Note_on_c, 0, 36, 103
2, 55915, Note_on_c, 0, 36, 0
2, 55920, Note_on_c, 0, 33, 103
2, 56035, Note_on_c, 0, 33, 0
2, 56040, Note_on_c, 0, 31, 103
2, 56155, Note_on_c, 0, 31, 0
2, 56160, Note_on_c, 0, 36, 103
2, 56635, Note_on_c, 0, 36, 0
2, 56640, Note_on_c, 0, 31, 103
2, 56875, Note_on_c, 0, 31, 0
2, 56880, Note_on_c, 0, 31, 103
2, 57115, Note_on_c, 0, 31, 0
2, 57360, Note_on_c, 0, 31, 103
2, 57595, Note_on_c, 0, 31, 0
2, 57600, Note_on_c, 0, 33, 103
2, 57835, Note_on_c, 0, 33, 0
2, 57840, Note_on_c, 0, 33, 103
2, 57955, Note_on_c, 0, 33, 0
2, 57960, Note_on_c, 0, 28, 103
2, 58075, Note_on_c, 0, 28, 0
2, 58080, Note_on_c, 0, 33, 103
2, 58555, Note_on_c, 0, 33, 0
2, 58560, Note_on_c, 0, 29, 103
2, 58795, Note_on_c, 0, 29, 0
2, 58800, Note_on_c, 0, 29, 103
2, 59035, Note_on_c, 0, 29, 0
2, 59280, Note_on_c, 0, 29, 103
2, 59515, Note_on_c, 0, 29, 0
2, 59520, Note_on_c, 0, 36, 103
2, 59755, Note_on_c, 0, 36, 0
2, 59760, Note_on_c, 0, 33, 103
2, 59875, Note_on_c, 0, 33, 0
2, 59880, Note_on_c, 0, 31, 103
2, 59995, Note_on_c, 0, 31, 0
2, 60000, Note_on_c, 0, 36, 103
2, 60475, Note_on_c, 0, 36, 0
2, 60480, Note_on_c, 0, 31, 103
2, 60715, Note_on_c, 0, 31, 0
2, 60720, Note_on_c, 0, 31, 103
2, 60955, Note_on_c, 0, 31, 0
2, 61200, Note_on_c, 0, 31, 103
2, 61435, Note_on_c, 0, 31, 0
2, 61440, Note_on_c, 0, 33, 103
2, 61675, Note_on_c, 0, 33, 0
2, 61680, Note_on_c, 0, 33, 103
2, 61795, Note_on_c, 0, 33, 0
2, 61800, Note_on_c, 0, 33, 103
2, 61915, Note_on_c, 0, 33, 0
2, 61920, Note_on_c, 0, 33, 103
2, 62160, Note_on_c, 0, 33, 103
2, 62275, Note_on_c, 0, 33, 0
2, 62280, Note_on_c, 0, 33, 103
2, 62395, Note_on_c, 0, 33, 0
2, 62395, Note_on_c, 0, 33, 0
2, 62400, Note_on_c, 0, 29, 103
2, 62635, Note_on_c, 0, 29, 0
2, 62640, Note_on_c, 0, 29, 103
2, 62755, Note_on_c, 0, 29, 0
2, 62760, Note_on_c, 0, 29, 103
2, 62875, Note_on_c, 0, 29, 0
2, 62880, Note_on_c, 0, 29, 103
2, 63115, Note_on_c, 0, 29, 0
2, 63120, Note_on_c, 0, 29, 103
2, 63355, Note_on_c, 0, 29, 0
2, 63360, Note_on_c, 0, 36, 103
2, 63595, Note_on_c, 0, 36, 0
2, 63600, Note_on_c, 0, 36, 70
2, 63715, Note_on_c, 0, 36, 0
2, 63720, Note_on_c, 0, 36, 77
2, 63835, Note_on_c, 0, 36, 0
2, 63840, Note_on_c, 0, 36, 103
2, 64315, Note_on_c, 0, 36, 0
2, 64320, Note_on_c, 0, 31, 86
2, 64555, Note_on_c, 0, 31, 0
2, 64560, Note_on_c, 0, 31, 83
2, 64800, Note_on_c, 0, 31, 103
2, 65275, Note_on_c, 0, 31, 0
2, 65275, Note_on_c, 0, 31, 0
2, 65280, Note_on_c, 0, 36, 103
2, 65515, Note_on_c, 0, 36, 0
2, 65520, Note_on_c, 0, 36, 70
2, 65635, Note_on_c, 0, 36, 0
2, 65640, Note_on_c, 0, 36, 77
2, 65755, Note_on_c, 0, 36, 0
2, 65760, Note_on_c, 0, 36, 103
2, 66235, Note_on_c, 0, 36, 0
2, 66240, Note_on_c, 0, 31, 86
2, 66475, Note_on_c, 0, 31, 0
2, 66480, Note_on_c, 0, 31, 83
2, 66720, Note_on_c, 0, 31, 103
2, 67195, Note_on_c, 0, 31, 0
2, 67195, Note_on_c, 0, 31, 0
2, 67200, Note_on_c, 0, 36, 103
2, 67435, Note_on_c, 0, 36, 0
2, 67440, Note_on_c, 0, 36, 70
2, 67555, Note_on_c, 0, 36, 0
2, 67560, Note_on_c, 0, 36, 77
2, 67675, Note_on_c, 0, 36, 0
2, 67680, Note_on_c, 0, 36, 103
2, 68155, Note_on_c, 0, 36, 0
2, 68160, Note_on_c, 0, 31, 86
2, 68395, Note_on_c, 0, 31, 0
2, 68400, Note_on_c, 0, 31, 83
2, 68640, Note_on_c, 0, 31, 103
2, 69115, Note_on_c, 0, 31, 0
2, 69115, Note_on_c, 0, 31, 0
2, 69120, Note_on_c, 0, 36, 103
2, 69355, Note_on_c, 0, 36, 0
2, 69360, Note_on_c, 0, 36, 70
2, 69475, Note_on_c, 0, 36, 0
2, 69480, Note_on_c, 0, 36, 77
2, 69595, Note_on_c, 0, 36, 0
2, 69600, Note_on_c, 0, 36, 103
2, 70075, Note_on_c, 0, 36, 0
2, 70080, Note_on_c, 0, 31, 86
2, 70315, Note_on_c, 0, 31, 0
2, 70320, Note_on_c, 0, 31, 83
2, 70560, Note_on_c, 0, 31, 103
2, 71035, Note_on_c, 0, 31, 0
2, 71035, Note_on_c, 0, 31, 0
2, 71040, Note_on_c, 0, 33, 103
2, 71275, Note_on_c, 0, 33, 0
2, 71280, Note_on_c, 0, 33, 103
2, 71395, Note_on_c, 0, 33, 0
2, 71400, Note_on_c, 0, 33, 103
2, 71515, Note_on_c, 0, 33, 0
2, 71520, Note_on_c, 0, 33, 103
2, 71995, Note_on_c, 0, 33, 0
2, 72000, Note_on_c, 0, 33, 103
2, 72235, Note_on_c, 0, 33, 0
2, 72240, Note_on_c, 0, 33, 103
2, 72955, Note_on_c, 0, 33, 0
2, 72960, Note_on_c, 0, 38, 103
2, 73195, Note_on_c, 0, 38, 0
2, 73200, Note_on_c, 0, 38, 103
2, 73315, Note_on_c, 0, 38, 0
2, 73320, Note_on_c, 0, 38, 103
2, 73435, Note_on_c, 0, 38, 0
2, 73440, Note_on_c, 0, 38, 103
2, 73915, Note_on_c, 0, 38, 0
2, 73920, Note_on_c, 0, 36, 103
2, 74155, Note_on_c, 0, 36, 0
2, 74160, Note_on_c, 0, 36, 103
2, 74395, Note_on_c, 0, 36, 0
2, 74400, Note_on_c, 0, 36, 103
2, 74875, Note_on_c, 0, 36, 0
2, 74880, Note_on_c, 0, 35, 103
2, 75115, Note_on_c, 0, 35, 0
2, 75120, Note_on_c, 0, 35, 103
2, 75235, Note_on_c, 0, 35, 0
2, 75240, Note_on_c, 0, 35, 103
2, 75355, Note_on_c, 0, 35, 0
2, 75360, Note_on_c, 0, 35, 103
2, 75835, Note_on_c, 0, 35, 0
2, 75840, Note_on_c, 0, 31, 103
2, 76075, Note_on_c, 0, 31, 0
2, 76080, Note_on_c, 0, 31, 103
2, 76795, Note_on_c, 0, 31, 0
2, 76800, Note_on_c, 0, 36, 103
2, 77035, Note_on_c, 0, 36, 0
2, 77040, Note_on_c, 0, 36, 70
2, 77155, Note_on_c, 0, 36, 0
2, 77160, Note_on_c, 0, 36, 77
2, 77275, Note_on_c, 0, 36, 0
2, 77280, Note_on_c, 0, 36, 103
2, 77755, Note_on_c, 0, 36, 0
2, 77760, Note_on_c, 0, 35, 103
2, 77995, Note_on_c, 0, 35, 0
2, 78000, Note_on_c, 0, 35, 103
2, 78235, Note_on_c, 0, 35, 0
2, 78240, Note_on_c, 0, 35, 103
2, 78715, Note_on_c, 0, 35, 0
2, 78720, Note_on_c, 0, 33, 103
2, 78955, Note_on_c, 0, 33, 0
2, 78960, Note_on_c, 0, 33, 103
2, 79075, Note_on_c, 0, 33, 0
2, 79080, Note_on_c, 0, 33, 103
2, 79195, Note_on_c, 0, 33, 0
2, 79200, Note_on_c, 0, 33, 103
2, 79675, Note_on_c, 0, 33, 0
2, 79680, Note_on_c, 0, 29, 103
2, 79915, Note_on_c, 0, 29, 0
2, 79920, Note_on_c, 0, 29, 103
2, 80155, Note_on_c, 0, 29, 0
2, 80160, Note_on_c, 0, 29, 103
2, 80635, Note_on_c, 0, 29, 0
2, 80640, Note_on_c, 0, 36, 103
2, 80875, Note_on_c, 0, 36, 0
2, 80880, Note_on_c, 0, 36, 70
2, 80995, Note_on_c, 0, 36, 0
2, 81000, Note_on_c, 0, 36, 77
2, 81115, Note_on_c, 0, 36, 0
2, 81120, Note_on_c, 0, 36, 103
2, 81595, Note_on_c, 0, 36, 0
2, 81600, Note_on_c, 0, 31, 86
2, 81835, Note_on_c, 0, 31, 0
2, 81840, Note_on_c, 0, 31, 83
2, 82080, Note_on_c, 0, 31, 103
2, 82555, Note_on_c, 0, 31, 0
2, 82555, Note_on_c, 0, 31, 0
2, 82560, Note_on_c, 0, 36, 103
2, 82795, Note_on_c, 0, 36, 0
2, 82800, Note_on_c, 0, 36, 70
2, 82915, Note_on_c, 0, 36, 0
2, 82920, Note_on_c, 0, 36, 77
2, 83035, Note_on_c, 0, 36, 0
2, 83040, Note_on_c, 0, 36, 103
2, 83515, Note_on_c, 0, 36, 0
2, 83520, Note_on_c, 0, 31, 86
2, 83755, Note_on_c, 0, 31, 0
2, 83760, Note_on_c, 0, 31, 83
2, 84000, Note_on_c, 0, 31, 103
2, 84475, Note_on_c, 0, 31, 0
2, 84475, Note_on_c, 0, 31, 0
2, 84480, Note_on_c, 0, 36, 103
2, 84715, Note_on_c, 0, 36, 0
2, 84720, Note_on_c, 0, 36, 70
2, 84835, Note_on_c, 0, 36, 0
2, 84840, Note_on_c, 0, 36, 77
2, 84955, Note_on_c, 0, 36, 0
2, 84960, Note_on_c, 0, 36, 103
2, 85435, Note_on_c, 0, 36, 0
2, 85440, Note_on_c, 0, 31, 86
2, 85675, Note_on_c, 0, 31, 0
2, 85680, Note_on_c, 0, 31, 83
2, 85920, Note_on_c, 0, 31, 103
2, 86395, Note_on_c, 0, 31, 0
2, 86395, Note_on_c, 0, 31, 0
2, 86400, Note_on_c, 0, 36, 103
2, 86635, Note_on_c, 0, 36, 0
2, 86640, Note_on_c, 0, 36, 70
2, 86755, Note_on_c, 0, 36, 0
2, 86760, Note_on_c, 0, 36, 77
2, 86875, Note_on_c, 0, 36, 0
2, 86880, Note_on_c, 0, 36, 103
2, 87355, Note_on_c, 0, 36, 0
2, 87360, Note_on_c, 0, 31, 86
2, 87595, Note_on_c, 0, 31, 0
2, 87600, Note_on_c, 0, 31, 83
2, 87840, Note_on_c, 0, 31, 103
2, 88315, Note_on_c, 0, 31, 0
2, 88315, Note_on_c, 0, 31, 0
2, 88320, Note_on_c, 0, 33, 103
2, 88555, Note_on_c, 0, 33, 0
2, 88560, Note_on_c, 0, 33, 103
2, 88675, Note_on_c, 0, 33, 0
2, 88680, Note_on_c, 0, 33, 103
2, 88795, Note_on_c, 0, 33, 0
2, 88800, Note_on_c, 0, 33, 103
2, 89275, Note_on_c, 0, 33, 0
2, 89280, Note_on_c, 0, 33, 103
2, 89515, Note_on_c, 0, 33, 0
2, 89520, Note_on_c, 0, 33, 103
2, 90235, Note_on_c, 0, 33, 0
2, 90240, Note_on_c, 0, 38, 103
2, 90475, Note_on_c, 0, 38, 0
2, 90480, Note_on_c, 0, 38, 103
2, 90595, Note_on_c, 0, 38, 0
2, 90600, Note_on_c, 0, 38, 103
2, 90715, Note_on_c, 0, 38, 0
2, 90720, Note_on_c, 0, 38, 103
2, 91195, Note_on_c, 0, 38, 0
2, 91200, Note_on_c, 0, 36, 103
2, 91435, Note_on_c, 0, 36, 0
2, 91440, Note_on_c, 0, 36, 103
2, 91675, Note_on_c, 0, 36, 0
2, 91680, Note_on_c, 0, 36, 103
2, 92155, Note_on_c, 0, 36, 0
2, 92160, Note_on_c, 0, 35, 103
2, 92395, Note_on_c, 0, 35, 0
2, 92400, Note_on_c, 0, 35, 103
2, 92515, Note_on_c, 0, 35, 0
2, 92520, Note_on_c, 0, 35, 103
2, 92635, Note_on_c, 0, 35, 0
2, 92640, Note_on_c, 0, 35, 103
2, 93115, Note_on_c, 0, 35, 0
2, 93120, Note_on_c, 0, 31, 103
2, 93355, Note_on_c, 0, 31, 0
2, 93360, Note_on_c, 0, 31, 103
2, 94075, Note_on_c, 0, 31, 0
2, 94080, Note_on_c, 0, 36, 103
2, 94315, Note_on_c, 0, 36, 0
2, 94320, Note_on_c, 0, 36, 70
2, 94435, Note_on_c, 0, 36, 0
2, 94440, Note_on_c, 0, 36, 77
2, 94555, Note_on_c, 0, 36, 0
2, 94560, Note_on_c, 0, 36, 103
2, 95035, Note_on_c, 0, 36, 0
2, 95040, Note_on_c, 0, 35, 103
2, 95275, Note_on_c, 0, 35, 0
2, 95280, Note_on_c, 0, 35, 103
2, 95515, Note_on_c, 0, 35, 0
2, 95520, Note_on_c, 0, 35, 103
2, 95995, Note_on_c, 0, 35, 0
2, 96000, Note_on_c, 0, 33, 103
2, 96235, Note_on_c, 0, 33, 0
2, 96240, Note_on_c, 0, 33, 103
2, 96355, Note_on_c, 0, 33, 0
2, 96360, Note_on_c, 0, 33, 103
2, 96475, Note_on_c, 0, 33, 0
2, 96480, Note_on_c, 0, 33, 103
2, 96955, Note_on_c, 0, 33, 0
2, 96960, Note_on_c, 0, 29, 103
2, 97195, Note_on_c, 0, 29, 0
2, 97200, Note_on_c, 0, 29, 103
2, 97435, Note_on_c, 0, 29, 0
2, 97440, Note_on_c, 0, 29, 103
2, 97915, Note_on_c, 0, 29, 0
2, 97920, Note_on_c, 0, 36, 103
2, 98155, Note_on_c, 0, 36, 0
2, 98160, Note_on_c, 0, 36, 70
2, 98275, Note_on_c, 0, 36, 0
2, 98280, Note_on_c, 0, 36, 77
2, 98395, Note_on_c, 0, 36, 0
2, 98400, Note_on_c, 0, 36, 103
2, 98875, Note_on_c, 0, 36, 0
2, 98880, Note_on_c, 0, 31, 86
2, 99115, Note_on_c, 0, 31, 0
2, 99120, Note_on_c, 0, 31, 83
2, 99360, Note_on_c, 0, 31, 103
2, 99835, Note_on_c, 0, 31, 0
2, 99835, Note_on_c, 0, 31, 0
2, 99840, Note_on_c, 0, 36, 103
2, 100075, Note_on_c, 0, 36, 0
2, 100080, Note_on_c, 0, 36, 70
2, 100195, Note_on_c, 0, 36, 0
2, 100200, Note_on_c, 0, 36, 77
2, 100315, Note_on_c, 0, 36, 0
2, 100320, Note_on_c, 0, 36, 103
2, 100795, Note_on_c, 0, 36, 0
2, 100800, Note_on_c, 0, 31, 86
2, 101035, Note_on_c, 0, 31, 0
2, 101040, Note_on_c, 0, 31, 83
2, 101280, Note_on_c, 0, 31, 103
2, 101755, Note_on_c, 0, 31, 0
2, 101755, Note_on_c, 0, 31, 0
2, 101760, Note_on_c, 0, 36, 103
2, 101995, Note_on_c, 0, 36, 0
2, 102000, Note_on_c, 0, 36, 70
2, 102115, Note_on_c, 0, 36, 0
2, 102120, Note_on_c, 0, 36, 77
2, 102235, Note_on_c, 0, 36, 0
2, 102240, Note_on_c, 0, 36, 103
2, 102715, Note_on_c, 0, 36, 0
2, 102720, Note_on_c, 0, 31, 86
2, 102955, Note_on_c, 0, 31, 0
2, 102960, Note_on_c, 0, 31, 83
2, 103200, Note_on_c, 0, 31, 103
2, 103675, Note_on_c, 0, 31, 0
2, 103675, Note_on_c, 0, 31, 0
2, 103680, Note_on_c, 0, 36, 103
2, 103915, Note_on_c, 0, 36, 0
2, 103920, Note_on_c, 0, 33, 103
2, 104035, Note_on_c, 0, 33, 0
2, 104040, Note_on_c, 0, 31, 103
2, 104155, Note_on_c, 0, 31, 0
2, 104160, Note_on_c, 0, 36, 103
2, 104635, Note_on_c, 0, 36, 0
2, 104640, Note_on_c, 0, 31, 103
2, 104875, Note_on_c, 0, 31, 0
2, 104880, Note_on_c, 0, 31, 103
2, 105115, Note_on_c, 0, 31, 0
2, 105360, Note_on_c, 0, 31, 103
2, 105595, Note_on_c, 0, 31, 0
2, 105600, Note_on_c, 0, 33, 103
2, 105835, Note_on_c, 0, 33, 0
2, 105840, Note_on_c, 0, 33, 103
2, 105955, Note_on_c, 0, 33, 0
2, 105960, Note_on_c, 0, 28, 103
2, 106075, Note_on_c, 0, 28, 0
2, 106080, Note_on_c, 0, 33, 103
2, 106555, Note_on_c, 0, 33, 0
2, 106560, Note_on_c, 0, 29, 103
2, 106795, Note_on_c, 0, 29, 0
2, 106800, Note_on_c, 0, 29, 103
2, 107035, Note_on_c, 0, 29, 0
2, 107280, Note_on_c, 0, 29, 103
2, 107515, Note_on_c, 0, 29, 0
2, 107520, Note_on_c, 0, 36, 103
2, 107755, Note_on_c, 0, 36, 0
2, 107760, Note_on_c, 0, 33, 103
2, 107875, Note_on_c, 0, 33, 0
2, 107880, Note_on_c, 0, 31, 103
2, 107995, Note_on_c, 0, 31, 0
2, 108000, Note_on_c, 0, 36, 103
2, 108475, Note_on_c, 0, 36, 0
2, 108480, Note_on_c, 0, 31, 103
2, 108715, Note_on_c, 0, 31, 0
2, 108720, Note_on_c, 0, 31, 103
2, 108955, Note_on_c, 0, 31, 0
2, 109200, Note_on_c, 0, 31, 103
2, 109435, Note_on_c, 0, 31, 0
2, 109440, Note_on_c, 0, 33, 103
2, 109675, Note_on_c, 0, 33, 0
2, 109680, Note_on_c, 0, 33, 103
2, 109795, Note_on_c, 0, 33, 0
2, 109800, Note_on_c, 0, 28, 103
2, 109915, Note_on_c, 0, 28, 0
2, 109920, Note_on_c, 0, 33, 103
2, 110395, Note_on_c, 0, 33, 0
2, 110400, Note_on_c, 0, 29, 103
2, 110635, Note_on_c, 0, 29, 0
2, 110640, Note_on_c, 0, 29, 103
2, 110875, Note_on_c, 0, 29, 0
2, 111120, Note_on_c, 0, 29, 103
2, 111355, Note_on_c, 0, 29, 0
2, 111360, Note_on_c, 0, 36, 103
2, 111595, Note_on_c, 0, 36, 0
2, 111600, Note_on_c, 0, 33, 103
2, 111715, Note_on_c, 0, 33, 0
2, 111720, Note_on_c, 0, 31, 103
2, 111835, Note_on_c, 0, 31, 0
2, 111840, Note_on_c, 0, 36, 103
2, 112315, Note_on_c, 0, 36, 0
2, 112320, Note_on_c, 0, 31, 103
2, 112555, Note_on_c, 0, 31, 0
2, 112560, Note_on_c, 0, 31, 103
2, 112795, Note_on_c, 0, 31, 0
2, 113040, Note_on_c, 0, 31, 103
2, 113275, Note_on_c, 0, 31, 0
2, 113280, Note_on_c, 0, 33, 103
2, 113515, Note_on_c, 0, 33, 0
2, 113520, Note_on_c, 0, 33, 103
2, 113635, Note_on_c, 0, 33, 0
2, 113640, Note_on_c, 0, 28, 103
2, 113755, Note_on_c, 0, 28, 0
2, 113760, Note_on_c, 0, 33, 103
2, 114235, Note_on_c, 0, 33, 0
2, 114240, Note_on_c, 0, 29, 103
2, 114475, Note_on_c, 0, 29, 0
2, 114480, Note_on_c, 0, 29, 103
2, 114715, Note_on_c, 0, 29, 0
2, 114960, Note_on_c, 0, 29, 103
2, 115195, Note_on_c, 0, 29, 0
2, 115200, Note_on_c, 0, 36, 103
2, 115435, Note_on_c, 0, 36, 0
2, 115440, Note_on_c, 0, 33, 103
2, 115555, Note_on_c, 0, 33, 0
2, 115560, Note_on_c, 0, 31, 103
2, 115675, Note_on_c, 0, 31, 0
2, 115680, Note_on_c, 0, 36, 103
2, 116155, Note_on_c, 0, 36, 0
2, 116160, Note_on_c, 0, 31, 103
2, 116395, Note_on_c, 0, 31, 0
2, 116400, Note_on_c, 0, 31, 103
2, 116635, Note_on_c, 0, 31, 0
2, 116880, Note_on_c, 0, 31, 103
2, 117115, Note_on_c, 0, 31, 0
2, 117120, Note_on_c, 0, 33, 103
2, 117355, Note_on_c, 0, 33, 0
2, 117360, Note_on_c, 0, 33, 103
2, 117475, Note_on_c, 0, 33, 0
2, 117480, Note_on_c, 0, 33, 103
2, 117595, Note_on_c, 0, 33, 0
2, 117600, Note_on_c, 0, 33, 103
2, 117840, Note_on_c, 0, 33, 103
2, 117955, Note_on_c, 0, 33, 0
2, 117960, Note_on_c, 0, 33, 103
2, 118075, Note_on_c, 0, 33, 0
2, 118075, Note_on_c, 0, 33, 0
2, 118080, Note_on_c, 0, 29, 103
2, 118315, Note_on_c, 0, 29, 0
2, 118320, Note_on_c, 0, 29, 103
2, 118435, Note_on_c, 0, 29, 0
2, 118440, Note_on_c, 0, 29, 103
2, 118555, Note_on_c, 0, 29, 0
2, 118560, Note_on_c, 0, 29, 103
2, 118795, Note_on_c, 0, 29, 0
2, 118800, Note_on_c, 0, 29, 103
2, 119035, Note_on_c, 0, 29, 0
2, 119040, Note_on_c, 0, 31, 103
2, 119275, Note_on_c, 0, 31, 0
2, 119280, Note_on_c, 0, 31, 103
2, 119395, Note_on_c, 0, 31, 0
2, 119400, Note_on_c, 0, 31, 103
2, 119515, Note_on_c, 0, 31, 0
2, 119520, Note_on_c, 0, 36, 103
2, 119755, Note_on_c, 0, 36, 0
2, 119760, Note_on_c, 0, 40, 103
2, 119995, Note_on_c, 0, 40, 0
2, 120000, Note_on_c, 0, 35, 103
2, 120235, Note_on_c, 0, 35, 0
2, 120240, Note_on_c, 0, 35, 103
2, 120355, Note_on_c, 0, 35, 0
2, 120360, Note_on_c, 0, 38, 103
2, 120475, Note_on_c, 0, 38, 0
2, 120600, Note_on_c, 0, 38, 103
2, 120715, Note_on_c, 0, 38, 0
2, 120720, Note_on_c, 0, 41, 103
2, 120955, Note_on_c, 0, 41, 0
2, 120960, Note_on_c, 0, 36, 103
2, 121195, Note_on_c, 0, 36, 0
2, 121200, Note_on_c, 0, 36, 103
2, 121315, Note_on_c, 0, 36, 0
2, 121320, Note_on_c, 0, 36, 103
2, 121435, Note_on_c, 0, 36, 0
2, 121440, Note_on_c, 0, 40, 103
2, 121675, Note_on_c, 0, 40, 0
2, 121680, Note_on_c, 0, 43, 103
2, 121915, Note_on_c, 0, 43, 0
2, 121920, Note_on_c, 0, 48, 103
2, 122275, Note_on_c, 0, 48, 0
2, 122280, Note_on_c, 0, 43, 103
2, 122395, Note_on_c, 0, 43, 0
2, 122400, Note_on_c, 0, 36, 103
2, 122875, Note_on_c, 0, 36, 0
2, 122880, Note_on_c, 0, 32, 100
2, 123115, Note_on_c, 0, 32, 0
2, 123120, Note_on_c, 0, 32, 100
2, 123235, Note_on_c, 0, 32, 0
2, 123240, Note_on_c, 0, 32, 100
2, 123355, Note_on_c, 0, 32, 0
2, 123360, Note_on_c, 0, 36, 100
2, 123595, Note_on_c, 0, 36, 0
2, 123600, Note_on_c, 0, 39, 100
2, 123835, Note_on_c, 0, 39, 0
2, 123840, Note_on_c, 0, 34, 100
2, 124075, Note_on_c, 0, 34, 0
2, 124080, Note_on_c, 0, 34, 100
2, 124195, Note_on_c, 0, 34, 0
2, 124200, Note_on_c, 0, 38, 100
2, 124315, Note_on_c, 0, 38, 0
2, 124440, Note_on_c, 0, 38, 100
2, 124555, Note_on_c, 0, 38, 0
2, 124560, Note_on_c, 0, 41, 100
2, 124795, Note_on_c, 0, 41, 0
2, 124800, Note_on_c, 0, 36, 100
2, 125035, Note_on_c, 0, 36, 0
2, 125040, Note_on_c, 0, 36, 100
2, 125155, Note_on_c, 0, 36, 0
2, 125160, Note_on_c, 0, 36, 100
2, 125275, Note_on_c, 0, 36, 0
2, 125280, Note_on_c, 0, 36, 100
2, 125515, Note_on_c, 0, 36, 0
2, 125520, Note_on_c, 0, 36, 100
2, 125635, Note_on_c, 0, 36, 0
2, 125640, Note_on_c, 0, 36, 100
2, 125755, Note_on_c, 0, 36, 0
2, 125760, Note_on_c, 0, 36, 100
2, 125995, Note_on_c, 0, 36, 0
2, 126000, Note_on_c, 0, 36, 100
2, 126115, Note_on_c, 0, 36, 0
2, 126120, Note_on_c, 0, 36, 100
2, 126235, Note_on_c, 0, 36, 0
2, 126240, Note_on_c, 0, 36, 100
2, 126475, Note_on_c, 0, 36, 0
2, 126480, Note_on_c, 0, 36, 100
2, 126595, Note_on_c, 0, 36, 0
2, 126600, Note_on_c, 0, 36, 100
2, 126715, Note_on_c, 0, 36, 0
2, 126720, Note_on_c, 0, 32, 100
2, 126955, Note_on_c, 0, 32, 0
2, 126960, Note_on_c, 0, 32, 100
2, 127075, Note_on_c, 0, 32, 0
2, 127080, Note_on_c, 0, 32, 100
2, 127195, Note_on_c, 0, 32, 0
2, 127200, Note_on_c, 0, 36, 100
2, 127435, Note_on_c, 0, 36, 0
2, 127440, Note_on_c, 0, 39, 100
2, 127675, Note_on_c, 0, 39, 0
2, 127680, Note_on_c, 0, 34, 100
2, 127915, Note_on_c, 0, 34, 0
2, 127920, Note_on_c, 0, 34, 100
2, 128035, Note_on_c, 0, 34, 0
2, 128040, Note_on_c, 0, 38, 100
2, 128155, Note_on_c, 0, 38, 0
2, 128280, Note_on_c, 0, 38, 100
2, 128395, Note_on_c, 0, 38, 0
2, 128400, Note_on_c, 0, 41, 100
2, 128635, Note_on_c, 0, 41, 0
2, 128640, Note_on_c, 0, 36, 100
2, 128875, Note_on_c, 0, 36, 0
2, 128880, Note_on_c, 0, 36, 100
2, 128995, Note_on_c, 0, 36, 0
2, 129000, Note_on_c, 0, 36, 100
2, 129115, Note_on_c, 0, 36, 0
2, 129120, Note_on_c, 0, 40, 100
2, 129355, Note_on_c, 0, 40, 0
2, 129360, Note_on_c, 0, 43, 100
2, 129595, Note_on_c, 0, 43, 0
2, 129600, Note_on_c, 0, 48, 100
2, 129600, Note_on_c, 0, 50, 100
2, 129715, Note_on_c, 0, 48, 0
2, 129835, Note_on_c, 0, 50, 0
2, 129960, Note_on_c, 0, 48, 100
2, 130315, Note_on_c, 0, 48, 0
2, 130320, Note_on_c, 0, 43, 100
2, 130555, Note_on_c, 0, 43, 0
2, 130560, Note_on_c, 0, 32, 100
2, 130795, Note_on_c, 0, 32, 0
2, 130800, Note_on_c, 0, 32, 100
2, 130915, Note_on_c, 0, 32, 0
2, 130920, Note_on_c, 0, 32, 100
2, 131035, Note_on_c, 0, 32, 0
2, 131040, Note_on_c, 0, 36, 100
2, 131275, Note_on_c, 0, 36, 0
2, 131280, Note_on_c, 0, 39, 100
2, 131515, Note_on_c, 0, 39, 0
2, 131520, Note_on_c, 0, 34, 100
2, 131755, Note_on_c, 0, 34, 0
2, 131760, Note_on_c, 0, 34, 100
2, 131875, Note_on_c, 0, 34, 0
2, 131880, Note_on_c, 0, 38, 100
2, 131995, Note_on_c, 0, 38, 0
2, 132120, Note_on_c, 0, 38, 100
2, 132235, Note_on_c, 0, 38, 0
2, 132240, Note_on_c, 0, 41, 100
2, 132475, Note_on_c, 0, 41, 0
2, 132480, Note_on_c, 0, 31, 100
2, 132715, Note_on_c, 0, 31, 0
2, 132720, Note_on_c, 0, 31, 100
2, 132835, Note_on_c, 0, 31, 0
2, 132840, Note_on_c, 0, 31, 100
2, 132955, Note_on_c, 0, 31, 0
2, 132960, Note_on_c, 0, 31, 100
2, 133195, Note_on_c, 0, 31, 0
2, 133200, Note_on_c, 0, 31, 100
2, 133315, Note_on_c, 0, 31, 0
2, 133320, Note_on_c, 0, 31, 100
2, 133435, Note_on_c, 0, 31, 0
2, 133440, Note_on_c, 0, 31, 100
2, 133675, Note_on_c, 0, 31, 0
2, 133680, Note_on_c, 0, 31, 100
2, 133795, Note_on_c, 0, 31, 0
2, 133800, Note_on_c, 0, 31, 100
2, 133915, Note_on_c, 0, 31, 0
2, 133920, Note_on_c, 0, 31, 100
2, 134155, Note_on_c, 0, 31, 0
2, 134160, Note_on_c, 0, 31, 100
2, 134275, Note_on_c, 0, 31, 0
2, 134280, Note_on_c, 0, 31, 100
2, 134395, Note_on_c, 0, 31, 0
2, 134400, Note_on_c, 0, 36, 100
2, 134635, Note_on_c, 0, 36, 0
2, 134640, Note_on_c, 0, 36, 100
2, 134755, Note_on_c, 0, 36, 0
2, 134760, Note_on_c, 0, 31, 100
2, 134875, Note_on_c, 0, 31, 0
2, 134880, Note_on_c, 0, 36, 100
2, 135355, Note_on_c, 0, 36, 0
2, 135360, Note_on_c, 0, 31, 100
2, 135595, Note_on_c, 0, 31, 0
2, 135600, Note_on_c, 0, 31, 100
2, 135835, Note_on_c, 0, 31, 0
2, 136080, Note_on_c, 0, 31, 100
2, 136315, Note_on_c, 0, 31, 0
2, 136320, Note_on_c, 0, 33, 103
2, 136555, Note_on_c, 0, 33, 0
2, 136560, Note_on_c, 0, 33, 103
2, 136675, Note_on_c, 0, 33, 0
2, 136680, Note_on_c, 0, 28, 103
2, 136795, Note_on_c, 0, 28, 0
2, 136800, Note_on_c, 0, 33, 103
2, 137275, Note_on_c, 0, 33, 0
2, 137280, Note_on_c, 0, 29, 103
2, 137515, Note_on_c, 0, 29, 0
2, 137520, Note_on_c, 0, 29, 103
2, 137755, Note_on_c, 0, 29, 0
2, 138000, Note_on_c, 0, 29, 103
2, 138235, Note_on_c, 0, 29, 0
2, 138240, Note_on_c, 0, 36, 103
2, 138475, Note_on_c, 0, 36, 0
2, 138480, Note_on_c, 0, 33, 103
2, 138595, Note_on_c, 0, 33, 0
2, 138600, Note_on_c, 0, 31, 103
2, 138715, Note_on_c, 0, 31, 0
2, 138720, Note_on_c, 0, 36, 103
2, 139195, Note_on_c, 0, 36, 0
2, 139200, Note_on_c, 0, 31, 103
2, 139435, Note_on_c, 0, 31, 0
2, 139440, Note_on_c, 0, 31, 103
2, 139675, Note_on_c, 0, 31, 0
2, 139920, Note_on_c, 0, 31, 103
2, 140155, Note_on_c, 0, 31, 0
2, 140160, Note_on_c, 0, 33, 103
2, 140395, Note_on_c, 0, 33, 0
2, 140400, Note_on_c, 0, 33, 103
2, 140515, Note_on_c, 0, 33, 0
2, 140520, Note_on_c, 0, 28, 103
2, 140635, Note_on_c, 0, 28, 0
2, 140640, Note_on_c, 0, 33, 103
2, 141115, Note_on_c, 0, 33, 0
2, 141120, Note_on_c, 0, 29, 103
2, 141355, Note_on_c, 0, 29, 0
2, 141360, Note_on_c, 0, 29, 103
2, 141595, Note_on_c, 0, 29, 0
2, 141840, Note_on_c, 0, 29, 103
2, 142075, Note_on_c, 0, 29, 0
2, 142080, Note_on_c, 0, 36, 103
2, 142315, Note_on_c, 0, 36, 0
2, 142320, Note_on_c, 0, 33, 103
2, 142435, Note_on_c, 0, 33, 0
2, 142440, Note_on_c, 0, 31, 103
2, 142555, Note_on_c, 0, 31, 0
2, 142560, Note_on_c, 0, 36, 103
2, 143035, Note_on_c, 0, 36, 0
2, 143040, Note_on_c, 0, 31, 103
2, 143275, Note_on_c, 0, 31, 0
2, 143280, Note_on_c, 0, 31, 103
2, 143515, Note_on_c, 0, 31, 0
2, 143760, Note_on_c, 0, 31, 103
2, 143995, Note_on_c, 0, 31, 0
2, 144000, Note_on_c, 0, 33, 103
2, 144235, Note_on_c, 0, 33, 0
2, 144240, Note_on_c, 0, 33, 103
2, 144355, Note_on_c, 0, 33, 0
2, 144360, Note_on_c, 0, 28, 103
2, 144475, Note_on_c, 0, 28, 0
2, 144480, Note_on_c, 0, 33, 103
2, 144955, Note_on_c, 0, 33, 0
2, 144960, Note_on_c, 0, 29, 103
2, 145195, Note_on_c, 0, 29, 0
2, 145200, Note_on_c, 0, 29, 103
2, 145435, Note_on_c, 0, 29, 0
2, 145680, Note_on_c, 0, 29, 103
2, 145915, Note_on_c, 0, 29, 0
2, 145920, Note_on_c, 0, 36, 103
2, 146155, Note_on_c, 0, 36, 0
2, 146160, Note_on_c, 0, 33, 103
2, 146275, Note_on_c, 0, 33, 0
2, 146280, Note_on_c, 0, 31, 103
2, 146395, Note_on_c, 0, 31, 0
2, 146400, Note_on_c, 0, 36, 103
2, 146875, Note_on_c, 0, 36, 0
2, 146880, Note_on_c, 0, 31, 103
2, 147115, Note_on_c, 0, 31, 0
2, 147120, Note_on_c, 0, 31, 103
2, 147355, Note_on_c, 0, 31, 0
2, 147600, Note_on_c, 0, 31, 103
2, 147835, Note_on_c, 0, 31, 0
2, 147840, Note_on_c, 0, 33, 103
2, 148075, Note_on_c, 0, 33, 0
2, 148080, Note_on_c, 0, 33, 103
2, 148195, Note_on_c, 0, 33, 0
2, 148200, Note_on_c, 0, 33, 103
2, 148315, Note_on_c, 0, 33, 0
2, 148320, Note_on_c, 0, 33, 103
2, 148560, Note_on_c, 0, 33, 103
2, 148675, Note_on_c, 0, 33, 0
2, 148680, Note_on_c, 0, 33, 103
2, 148795, Note_on_c, 0, 33, 0
2, 148795, Note_on_c, 0, 33, 0
2, 148800, Note_on_c, 0, 29, 103
2, 149035, Note_on_c, 0, 29, 0
2, 149040, Note_on_c, 0, 29, 103
2, 149155, Note_on_c, 0, 29, 0
2, 149160, Note_on_c, 0, 29, 103
2, 149275, Note_on_c, 0, 29, 0
2, 149280, Note_on_c, 0, 29, 103
2, 149515, Note_on_c, 0, 29, 0
2, 149520, Note_on_c, 0, 29, 103
2, 149755, Note_on_c, 0, 29, 0
2, 149760, Note_on_c, 0, 36, 103
2, 149995, Note_on_c, 0, 36, 0
2, 150000, Note_on_c, 0, 33, 103
2, 150115, Note_on_c, 0, 33, 0
2, 150120, Note_on_c, 0, 31, 103
2, 150235, Note_on_c, 0, 31, 0
2, 150240, Note_on_c, 0, 36, 103
2, 150715, Note_on_c, 0, 36, 0
2, 150720, Note_on_c, 0, 31, 103
2, 150955, Note_on_c, 0, 31, 0
2, 150960, Note_on_c, 0, 31, 103
2, 151195, Note_on_c, 0, 31, 0
2, 151440, Note_on_c, 0, 31, 103
2, 151675, Note_on_c, 0, 31, 0
2, 151680, Note_on_c, 0, 33, 103
2, 151915, Note_on_c, 0, 33, 0
2, 151920, Note_on_c, 0, 33, 103
2, 152035, Note_on_c, 0, 33, 0
2, 152040, Note_on_c, 0, 28, 103
2, 152155, Note_on_c, 0, 28, 0
2, 152160, Note_on_c, 0, 33, 103
2, 152635, Note_on_c, 0, 33, 0
2, 152640, Note_on_c, 0, 29, 103
2, 152875, Note_on_c, 0, 29, 0
2, 152880, Note_on_c, 0, 29, 103
2, 153115, Note_on_c, 0, 29, 0
2, 153360, Note_on_c, 0, 29, 103
2, 153595, Note_on_c, 0, 29, 0
2, 153600, Note_on_c, 0, 36, 103
2, 153835, Note_on_c, 0, 36, 0
2, 153840, Note_on_c, 0, 33, 103
2, 153955, Note_on_c, 0, 33, 0
2, 153960, Note_on_c, 0, 31, 103
2, 154075, Note_on_c, 0, 31, 0
2, 154080, Note_on_c, 0, 36, 103
2, 154555, Note_on_c, 0, 36, 0
2, 154560, Note_on_c, 0, 31, 103
2, 154795, Note_on_c, 0, 31, 0
2, 154800, Note_on_c, 0, 31, 103
2, 155035, Note_on_c, 0, 31, 0
2, 155280, Note_on_c, 0, 31, 103
2, 155515, Note_on_c, 0, 31, 0
2, 155520, Note_on_c, 0, 33, 103
2, 155755, Note_on_c, 0, 33, 0
2, 155760, Note_on_c, 0, 33, 103
2, 155875, Note_on_c, 0, 33, 0
2, 155880, Note_on_c, 0, 28, 103
2, 155995, Note_on_c, 0, 28, 0
2, 156000, Note_on_c, 0, 33, 103
2, 156475, Note_on_c, 0, 33, 0
2, 156480, Note_on_c, 0, 29, 103
2, 156715, Note_on_c, 0, 29, 0
2, 156720, Note_on_c, 0, 29, 103
2, 156955, Note_on_c, 0, 29, 0
2, 157200, Note_on_c, 0, 29, 103
2, 157435, Note_on_c, 0, 29, 0
2, 157440, Note_on_c, 0, 36, 103
2, 157675, Note_on_c, 0, 36, 0
2, 157680, Note_on_c, 0, 36, 70
2, 157795, Note_on_c, 0, 36, 0
2, 157800, Note_on_c, 0, 36, 77
2, 157915, Note_on_c, 0, 36, 0
2, 157920, Note_on_c, 0, 36, 103
2, 158395, Note_on_c, 0, 36, 0
2, 158400, Note_on_c, 0, 31, 86
2, 158635, Note_on_c, 0, 31, 0
2, 158640, Note_on_c, 0, 31, 83
2, 158880, Note_on_c, 0, 31, 103
2, 159355, Note_on_c, 0, 31, 0
2, 159355, Note_on_c, 0, 31, 0
2, 159360, Note_on_c, 0, 36, 103
2, 159595, Note_on_c, 0, 36, 0
2, 159600, Note_on_c, 0, 36, 70
2, 159715, Note_on_c, 0, 36, 0
2, 159720, Note_on_c, 0, 36, 77
2, 159835, Note_on_c, 0, 36, 0
2, 159840, Note_on_c, 0, 36, 103
2, 160315, Note_on_c, 0, 36, 0
2, 160320, Note_on_c, 0, 31, 86
2, 160555, Note_on_c, 0, 31, 0
2, 160560, Note_on_c, 0, 31, 83
2, 160800, Note_on_c, 0, 31, 103
2, 161275, Note_on_c, 0, 31, 0
2, 161275, Note_on_c, 0, 31, 0
2, 161280, Note_on_c, 0, 36, 103
2, 161515, Note_on_c, 0, 36, 0
2, 161520, Note_on_c, 0, 36, 70
2, 161635, Note_on_c, 0, 36, 0
2, 161640, Note_on_c, 0, 36, 77
2, 161755, Note_on_c, 0, 36, 0
2, 161760, Note_on_c, 0, 36, 103
2, 162235, Note_on_c, 0, 36, 0
2, 162240, Note_on_c, 0, 31, 86
2, 162475, Note_on_c, 0, 31, 0
2, 162480, Note_on_c, 0, 31, 83
2, 162720, Note_on_c, 0, 31, 103
2, 163195, Note_on_c, 0, 31, 0
2, 163195, Note_on_c, 0, 31, 0
2, 163200, Note_on_c, 0, 36, 103
2, 163435, Note_on_c, 0, 36, 0
2, 163440, Note_on_c, 0, 36, 70
2, 163555, Note_on_c, 0, 36, 0
2, 163560, Note_on_c, 0, 36, 77
2, 163675, Note_on_c, 0, 36, 0
2, 163680, Note_on_c, 0, 36, 103
2, 164155, Note_on_c, 0, 36, 0
2, 164160, Note_on_c, 0, 31, 86
2, 164395, Note_on_c, 0, 31, 0
2, 164400, Note_on_c, 0, 31, 83
2, 164640, Note_on_c, 0, 31, 103
2, 165115, Note_on_c, 0, 31, 0
2, 165115, Note_on_c, 0, 31, 0
2, 165115, End_track
3, 0, Start_track
3, 0, MIDI_port, 0
3, 0, Title_t, "Artist: Whitney Housten"
3, 0, Control_c, 1, 91, 75
3, 0, Control_c, 1, 93, 1
3, 485, Control_c, 1, 0, 0
3, 487, Program_c, 1, 5
3, 488, Control_c, 1, 7, 87
3, 3840, Note_on_c, 1, 55, 84
3, 3840, Note_on_c, 1, 60, 93
3, 3840, Note_on_c, 1, 64, 93
3, 4025, Note_on_c, 1, 64, 0
3, 4025, Note_on_c, 1, 60, 0
3, 4025, Note_on_c, 1, 55, 0
3, 4080, Note_on_c, 1, 55, 84
3, 4080, Note_on_c, 1, 60, 93
3, 4080, Note_on_c, 1, 64, 93
3, 4145, Note_on_c, 1, 64, 0
3, 4145, Note_on_c, 1, 60, 0
3, 4145, Note_on_c, 1, 55, 0
3, 4200, Note_on_c, 1, 55, 84
3, 4200, Note_on_c, 1, 60, 93
3, 4200, Note_on_c, 1, 64, 93
3, 4265, Note_on_c, 1, 64, 0
3, 4265, Note_on_c, 1, 60, 0
3, 4265, Note_on_c, 1, 55, 0
3, 4320, Note_on_c, 1, 55, 84
3, 4320, Note_on_c, 1, 60, 93
3, 4320, Note_on_c, 1, 64, 93
3, 4745, Note_on_c, 1, 64, 0
3, 4745, Note_on_c, 1, 60, 0
3, 4745, Note_on_c, 1, 55, 0
3, 4800, Note_on_c, 1, 55, 84
3, 4800, Note_on_c, 1, 58, 84
3, 4800, Note_on_c, 1, 62, 93
3, 4985, Note_on_c, 1, 62, 0
3, 4985, Note_on_c, 1, 58, 0
3, 4985, Note_on_c, 1, 55, 0
3, 5040, Note_on_c, 1, 55, 84
3, 5040, Note_on_c, 1, 58, 84
3, 5040, Note_on_c, 1, 62, 93
3, 5225, Note_on_c, 1, 62, 0
3, 5225, Note_on_c, 1, 58, 0
3, 5225, Note_on_c, 1, 55, 0
3, 5280, Note_on_c, 1, 55, 84
3, 5280, Note_on_c, 1, 58, 84
3, 5280, Note_on_c, 1, 62, 93
3, 5465, Note_on_c, 1, 58, 0
3, 5705, Note_on_c, 1, 62, 0
3, 5705, Note_on_c, 1, 55, 0
3, 5760, Note_on_c, 1, 55, 84
3, 5760, Note_on_c, 1, 60, 93
3, 5760, Note_on_c, 1, 64, 93
3, 5945, Note_on_c, 1, 64, 0
3, 5945, Note_on_c, 1, 60, 0
3, 5945, Note_on_c, 1, 55, 0
3, 6000, Note_on_c, 1, 55, 84
3, 6000, Note_on_c, 1, 60, 93
3, 6000, Note_on_c, 1, 64, 93
3, 6065, Note_on_c, 1, 64, 0
3, 6065, Note_on_c, 1, 60, 0
3, 6065, Note_on_c, 1, 55, 0
3, 6120, Note_on_c, 1, 55, 84
3, 6120, Note_on_c, 1, 60, 93
3, 6120, Note_on_c, 1, 64, 93
3, 6185, Note_on_c, 1, 64, 0
3, 6185, Note_on_c, 1, 60, 0
3, 6185, Note_on_c, 1, 55, 0
3, 6240, Note_on_c, 1, 55, 84
3, 6240, Note_on_c, 1, 60, 93
3, 6240, Note_on_c, 1, 64, 93
3, 6665, Note_on_c, 1, 64, 0
3, 6665, Note_on_c, 1, 60, 0
3, 6665, Note_on_c, 1, 55, 0
3, 6720, Note_on_c, 1, 55, 84
3, 6720, Note_on_c, 1, 58, 84
3, 6720, Note_on_c, 1, 62, 93
3, 6905, Note_on_c, 1, 62, 0
3, 6905, Note_on_c, 1, 58, 0
3, 6905, Note_on_c, 1, 55, 0
3, 6960, Note_on_c, 1, 55, 84
3, 6960, Note_on_c, 1, 58, 84
3, 6960, Note_on_c, 1, 62, 93
3, 7145, Note_on_c, 1, 62, 0
3, 7145, Note_on_c, 1, 58, 0
3, 7145, Note_on_c, 1, 55, 0
3, 7200, Note_on_c, 1, 55, 84
3, 7200, Note_on_c, 1, 58, 84
3, 7200, Note_on_c, 1, 62, 93
3, 7385, Note_on_c, 1, 58, 0
3, 7625, Note_on_c, 1, 62, 0
3, 7625, Note_on_c, 1, 55, 0
3, 7680, Note_on_c, 1, 55, 84
3, 7680, Note_on_c, 1, 60, 93
3, 7680, Note_on_c, 1, 64, 93
3, 7865, Note_on_c, 1, 64, 0
3, 7865, Note_on_c, 1, 60, 0
3, 7865, Note_on_c, 1, 55, 0
3, 7920, Note_on_c, 1, 55, 84
3, 7920, Note_on_c, 1, 60, 93
3, 7920, Note_on_c, 1, 64, 93
3, 7985, Note_on_c, 1, 64, 0
3, 7985, Note_on_c, 1, 60, 0
3, 7985, Note_on_c, 1, 55, 0
3, 8040, Note_on_c, 1, 55, 84
3, 8040, Note_on_c, 1, 60, 93
3, 8040, Note_on_c, 1, 64, 93
3, 8105, Note_on_c, 1, 64, 0
3, 8105, Note_on_c, 1, 60, 0
3, 8105, Note_on_c, 1, 55, 0
3, 8160, Note_on_c, 1, 55, 84
3, 8160, Note_on_c, 1, 60, 93
3, 8160, Note_on_c, 1, 64, 93
3, 8585, Note_on_c, 1, 64, 0
3, 8585, Note_on_c, 1, 60, 0
3, 8585, Note_on_c, 1, 55, 0
3, 8640, Note_on_c, 1, 55, 84
3, 8640, Note_on_c, 1, 58, 84
3, 8640, Note_on_c, 1, 62, 93
3, 8825, Note_on_c, 1, 62, 0
3, 8825, Note_on_c, 1, 58, 0
3, 8825, Note_on_c, 1, 55, 0
3, 8880, Note_on_c, 1, 55, 84
3, 8880, Note_on_c, 1, 58, 84
3, 8880, Note_on_c, 1, 62, 93
3, 9065, Note_on_c, 1, 62, 0
3, 9065, Note_on_c, 1, 58, 0
3, 9065, Note_on_c, 1, 55, 0
3, 9120, Note_on_c, 1, 55, 84
3, 9120, Note_on_c, 1, 58, 84
3, 9120, Note_on_c, 1, 62, 93
3, 9305, Note_on_c, 1, 58, 0
3, 9545, Note_on_c, 1, 62, 0
3, 9545, Note_on_c, 1, 55, 0
3, 9600, Note_on_c, 1, 55, 84
3, 9600, Note_on_c, 1, 60, 93
3, 9600, Note_on_c, 1, 64, 93
3, 9785, Note_on_c, 1, 64, 0
3, 9785, Note_on_c, 1, 60, 0
3, 9785, Note_on_c, 1, 55, 0
3, 9840, Note_on_c, 1, 55, 84
3, 9840, Note_on_c, 1, 60, 93
3, 9840, Note_on_c, 1, 64, 93
3, 9905, Note_on_c, 1, 64, 0
3, 9905, Note_on_c, 1, 60, 0
3, 9905, Note_on_c, 1, 55, 0
3, 9960, Note_on_c, 1, 55, 84
3, 9960, Note_on_c, 1, 60, 93
3, 9960, Note_on_c, 1, 64, 93
3, 10025, Note_on_c, 1, 64, 0
3, 10025, Note_on_c, 1, 60, 0
3, 10025, Note_on_c, 1, 55, 0
3, 10080, Note_on_c, 1, 55, 84
3, 10080, Note_on_c, 1, 60, 93
3, 10080, Note_on_c, 1, 64, 93
3, 10505, Note_on_c, 1, 64, 0
3, 10505, Note_on_c, 1, 60, 0
3, 10505, Note_on_c, 1, 55, 0
3, 10560, Note_on_c, 1, 55, 84
3, 10560, Note_on_c, 1, 58, 84
3, 10560, Note_on_c, 1, 62, 93
3, 10745, Note_on_c, 1, 62, 0
3, 10745, Note_on_c, 1, 58, 0
3, 10745, Note_on_c, 1, 55, 0
3, 10800, Note_on_c, 1, 55, 84
3, 10800, Note_on_c, 1, 58, 84
3, 10800, Note_on_c, 1, 62, 93
3, 10985, Note_on_c, 1, 62, 0
3, 10985, Note_on_c, 1, 58, 0
3, 10985, Note_on_c, 1, 55, 0
3, 11040, Note_on_c, 1, 55, 84
3, 11040, Note_on_c, 1, 58, 84
3, 11040, Note_on_c, 1, 62, 93
3, 11225, Note_on_c, 1, 58, 0
3, 11465, Note_on_c, 1, 62, 0
3, 11465, Note_on_c, 1, 55, 0
3, 11520, Note_on_c, 1, 55, 84
3, 11520, Note_on_c, 1, 60, 93
3, 11520, Note_on_c, 1, 64, 93
3, 11705, Note_on_c, 1, 64, 0
3, 11705, Note_on_c, 1, 60, 0
3, 11705, Note_on_c, 1, 55, 0
3, 11760, Note_on_c, 1, 55, 84
3, 11760, Note_on_c, 1, 60, 93
3, 11760, Note_on_c, 1, 64, 93
3, 11825, Note_on_c, 1, 64, 0
3, 11825, Note_on_c, 1, 60, 0
3, 11825, Note_on_c, 1, 55, 0
3, 11880, Note_on_c, 1, 55, 84
3, 11880, Note_on_c, 1, 60, 93
3, 11880, Note_on_c, 1, 64, 93
3, 11945, Note_on_c, 1, 64, 0
3, 11945, Note_on_c, 1, 60, 0
3, 11945, Note_on_c, 1, 55, 0
3, 12000, Note_on_c, 1, 55, 84
3, 12000, Note_on_c, 1, 60, 93
3, 12000, Note_on_c, 1, 64, 93
3, 12425, Note_on_c, 1, 64, 0
3, 12425, Note_on_c, 1, 60, 0
3, 12425, Note_on_c, 1, 55, 0
3, 12480, Note_on_c, 1, 55, 84
3, 12480, Note_on_c, 1, 58, 84
3, 12480, Note_on_c, 1, 62, 93
3, 12665, Note_on_c, 1, 62, 0
3, 12665, Note_on_c, 1, 58, 0
3, 12665, Note_on_c, 1, 55, 0
3, 12720, Note_on_c, 1, 55, 84
3, 12720, Note_on_c, 1, 58, 84
3, 12720, Note_on_c, 1, 62, 93
3, 12905, Note_on_c, 1, 62, 0
3, 12905, Note_on_c, 1, 58, 0
3, 12905, Note_on_c, 1, 55, 0
3, 12960, Note_on_c, 1, 55, 84
3, 12960, Note_on_c, 1, 58, 84
3, 12960, Note_on_c, 1, 62, 93
3, 13145, Note_on_c, 1, 58, 0
3, 13385, Note_on_c, 1, 62, 0
3, 13385, Note_on_c, 1, 55, 0
3, 13440, Note_on_c, 1, 57, 84
3, 13440, Note_on_c, 1, 60, 93
3, 13440, Note_on_c, 1, 64, 93
3, 13625, Note_on_c, 1, 64, 0
3, 13625, Note_on_c, 1, 60, 0
3, 13625, Note_on_c, 1, 57, 0
3, 13680, Note_on_c, 1, 57, 84
3, 13680, Note_on_c, 1, 60, 93
3, 13680, Note_on_c, 1, 64, 93
3, 13745, Note_on_c, 1, 64, 0
3, 13745, Note_on_c, 1, 60, 0
3, 13745, Note_on_c, 1, 57, 0
3, 13800, Note_on_c, 1, 57, 84
3, 13800, Note_on_c, 1, 60, 93
3, 13800, Note_on_c, 1, 64, 93
3, 13865, Note_on_c, 1, 64, 0
3, 13865, Note_on_c, 1, 60, 0
3, 13865, Note_on_c, 1, 57, 0
3, 13920, Note_on_c, 1, 57, 84
3, 13920, Note_on_c, 1, 60, 93
3, 13920, Note_on_c, 1, 64, 93
3, 14345, Note_on_c, 1, 64, 0
3, 14345, Note_on_c, 1, 60, 0
3, 14345, Note_on_c, 1, 57, 0
3, 14400, Note_on_c, 1, 60, 93
3, 14400, Note_on_c, 1, 64, 93
3, 14400, Note_on_c, 1, 69, 93
3, 14585, Note_on_c, 1, 69, 0
3, 14585, Note_on_c, 1, 64, 0
3, 14585, Note_on_c, 1, 60, 0
3, 14640, Note_on_c, 1, 60, 93
3, 14640, Note_on_c, 1, 64, 93
3, 14640, Note_on_c, 1, 69, 93
3, 15065, Note_on_c, 1, 69, 0
3, 15065, Note_on_c, 1, 64, 0
3, 15065, Note_on_c, 1, 60, 0
3, 15120, Note_on_c, 1, 52, 84
3, 15120, Note_on_c, 1, 64, 93
3, 15305, Note_on_c, 1, 64, 0
3, 15305, Note_on_c, 1, 52, 0
3, 15360, Note_on_c, 1, 50, 84
3, 15360, Note_on_c, 1, 57, 84
3, 15360, Note_on_c, 1, 62, 93
3, 15360, Note_on_c, 1, 65, 93
3, 15545, Note_on_c, 1, 65, 0
3, 15545, Note_on_c, 1, 50, 0
3, 15545, Note_on_c, 1, 57, 0
3, 15545, Note_on_c, 1, 62, 0
3, 15600, Note_on_c, 1, 50, 84
3, 15600, Note_on_c, 1, 57, 84
3, 15600, Note_on_c, 1, 62, 93
3, 15600, Note_on_c, 1, 65, 93
3, 15665, Note_on_c, 1, 65, 0
3, 15665, Note_on_c, 1, 50, 0
3, 15665, Note_on_c, 1, 57, 0
3, 15665, Note_on_c, 1, 62, 0
3, 15720, Note_on_c, 1, 50, 84
3, 15720, Note_on_c, 1, 57, 84
3, 15720, Note_on_c, 1, 62, 93
3, 15720, Note_on_c, 1, 65, 93
3, 15785, Note_on_c, 1, 65, 0
3, 15785, Note_on_c, 1, 50, 0
3, 15785, Note_on_c, 1, 57, 0
3, 15785, Note_on_c, 1, 62, 0
3, 15840, Note_on_c, 1, 50, 84
3, 15840, Note_on_c, 1, 57, 84
3, 15840, Note_on_c, 1, 62, 93
3, 15840, Note_on_c, 1, 65, 93
3, 16145, Note_on_c, 1, 57, 0
3, 16145, Note_on_c, 1, 50, 0
3, 16265, Note_on_c, 1, 62, 0
3, 16265, Note_on_c, 1, 65, 0
3, 16320, Note_on_c, 1, 55, 84
3, 16320, Note_on_c, 1, 60, 93
3, 16320, Note_on_c, 1, 64, 93
3, 16505, Note_on_c, 1, 64, 0
3, 16505, Note_on_c, 1, 60, 0
3, 16505, Note_on_c, 1, 55, 0
3, 16560, Note_on_c, 1, 48, 84
3, 16560, Note_on_c, 1, 55, 84
3, 16560, Note_on_c, 1, 60, 93
3, 16560, Note_on_c, 1, 64, 93
3, 16745, Note_on_c, 1, 64, 0
3, 16745, Note_on_c, 1, 48, 0
3, 16745, Note_on_c, 1, 55, 0
3, 16745, Note_on_c, 1, 60, 0
3, 16800, Note_on_c, 1, 48, 84
3, 16800, Note_on_c, 1, 55, 84
3, 16800, Note_on_c, 1, 60, 93
3, 16800, Note_on_c, 1, 64, 93
3, 17160, Note_on_c, 1, 48, 84
3, 17225, Note_on_c, 1, 48, 0
3, 17225, Note_on_c, 1, 60, 0
3, 17225, Note_on_c, 1, 48, 0
3, 17225, Note_on_c, 1, 55, 0
3, 17225, Note_on_c, 1, 64, 0
3, 17280, Note_on_c, 1, 47, 84
3, 17280, Note_on_c, 1, 55, 84
3, 17280, Note_on_c, 1, 59, 84
3, 17280, Note_on_c, 1, 62, 93
3, 17465, Note_on_c, 1, 62, 0
3, 17465, Note_on_c, 1, 47, 0
3, 17465, Note_on_c, 1, 55, 0
3, 17465, Note_on_c, 1, 59, 0
3, 17520, Note_on_c, 1, 47, 84
3, 17520, Note_on_c, 1, 55, 84
3, 17520, Note_on_c, 1, 59, 84
3, 17520, Note_on_c, 1, 62, 93
3, 17585, Note_on_c, 1, 62, 0
3, 17585, Note_on_c, 1, 47, 0
3, 17585, Note_on_c, 1, 55, 0
3, 17585, Note_on_c, 1, 59, 0
3, 17640, Note_on_c, 1, 47, 84
3, 17640, Note_on_c, 1, 55, 84
3, 17640, Note_on_c, 1, 59, 84
3, 17640, Note_on_c, 1, 62, 93
3, 17705, Note_on_c, 1, 62, 0
3, 17705, Note_on_c, 1, 47, 0
3, 17705, Note_on_c, 1, 55, 0
3, 17705, Note_on_c, 1, 59, 0
3, 17760, Note_on_c, 1, 47, 84
3, 17760, Note_on_c, 1, 55, 84
3, 17760, Note_on_c, 1, 59, 84
3, 17760, Note_on_c, 1, 62, 93
3, 18185, Note_on_c, 1, 62, 0
3, 18185, Note_on_c, 1, 47, 0
3, 18185, Note_on_c, 1, 55, 0
3, 18185, Note_on_c, 1, 59, 0
3, 18240, Note_on_c, 1, 43, 84
3, 18240, Note_on_c, 1, 55, 84
3, 18240, Note_on_c, 1, 62, 93
3, 18480, Note_on_c, 1, 57, 84
3, 18545, Note_on_c, 1, 57, 0
3, 18545, Note_on_c, 1, 62, 0
3, 18600, Note_on_c, 1, 60, 93
3, 18600, Note_on_c, 1, 64, 93
3, 18665, Note_on_c, 1, 64, 0
3, 18665, Note_on_c, 1, 43, 0
3, 18665, Note_on_c, 1, 55, 0
3, 18665, Note_on_c, 1, 60, 0
3, 18720, Note_on_c, 1, 59, 84
3, 18720, Note_on_c, 1, 62, 93
3, 19145, Note_on_c, 1, 62, 0
3, 19145, Note_on_c, 1, 59, 0
3, 19200, Note_on_c, 1, 48, 84
3, 19200, Note_on_c, 1, 55, 84
3, 19200, Note_on_c, 1, 60, 93
3, 19200, Note_on_c, 1, 64, 93
3, 19385, Note_on_c, 1, 64, 0
3, 19385, Note_on_c, 1, 48, 0
3, 19385, Note_on_c, 1, 55, 0
3, 19385, Note_on_c, 1, 60, 0
3, 19440, Note_on_c, 1, 48, 84
3, 19440, Note_on_c, 1, 55, 84
3, 19440, Note_on_c, 1, 60, 93
3, 19440, Note_on_c, 1, 64, 93
3, 19505, Note_on_c, 1, 64, 0
3, 19505, Note_on_c, 1, 48, 0
3, 19505, Note_on_c, 1, 55, 0
3, 19505, Note_on_c, 1, 60, 0
3, 19560, Note_on_c, 1, 48, 84
3, 19560, Note_on_c, 1, 55, 84
3, 19560, Note_on_c, 1, 60, 93
3, 19560, Note_on_c, 1, 64, 93
3, 19625, Note_on_c, 1, 64, 0
3, 19625, Note_on_c, 1, 48, 0
3, 19625, Note_on_c, 1, 55, 0
3, 19625, Note_on_c, 1, 60, 0
3, 19680, Note_on_c, 1, 48, 84
3, 19680, Note_on_c, 1, 55, 84
3, 19680, Note_on_c, 1, 60, 93
3, 19680, Note_on_c, 1, 64, 93
3, 20105, Note_on_c, 1, 64, 0
3, 20105, Note_on_c, 1, 48, 0
3, 20105, Note_on_c, 1, 55, 0
3, 20105, Note_on_c, 1, 60, 0
3, 20160, Note_on_c, 1, 55, 84
3, 20160, Note_on_c, 1, 59, 84
3, 20160, Note_on_c, 1, 62, 93
3, 20345, Note_on_c, 1, 62, 0
3, 20345, Note_on_c, 1, 59, 0
3, 20345, Note_on_c, 1, 55, 0
3, 20400, Note_on_c, 1, 55, 84
3, 20400, Note_on_c, 1, 59, 84
3, 20400, Note_on_c, 1, 62, 93
3, 20585, Note_on_c, 1, 62, 0
3, 20585, Note_on_c, 1, 59, 0
3, 20585, Note_on_c, 1, 55, 0
3, 20640, Note_on_c, 1, 47, 84
3, 20640, Note_on_c, 1, 55, 84
3, 20640, Note_on_c, 1, 59, 84
3, 20640, Note_on_c, 1, 62, 93
3, 21065, Note_on_c, 1, 62, 0
3, 21065, Note_on_c, 1, 47, 0
3, 21065, Note_on_c, 1, 55, 0
3, 21065, Note_on_c, 1, 59, 0
3, 21120, Note_on_c, 1, 45, 84
3, 21120, Note_on_c, 1, 52, 84
3, 21120, Note_on_c, 1, 57, 84
3, 21120, Note_on_c, 1, 60, 93
3, 21305, Note_on_c, 1, 60, 0
3, 21305, Note_on_c, 1, 45, 0
3, 21305, Note_on_c, 1, 52, 0
3, 21305, Note_on_c, 1, 57, 0
3, 21360, Note_on_c, 1, 45, 84
3, 21360, Note_on_c, 1, 52, 84
3, 21360, Note_on_c, 1, 57, 84
3, 21360, Note_on_c, 1, 60, 93
3, 21425, Note_on_c, 1, 60, 0
3, 21425, Note_on_c, 1, 45, 0
3, 21425, Note_on_c, 1, 52, 0
3, 21425, Note_on_c, 1, 57, 0
3, 21480, Note_on_c, 1, 45, 84
3, 21480, Note_on_c, 1, 52, 84
3, 21480, Note_on_c, 1, 57, 84
3, 21480, Note_on_c, 1, 60, 93
3, 21545, Note_on_c, 1, 60, 0
3, 21545, Note_on_c, 1, 45, 0
3, 21545, Note_on_c, 1, 52, 0
3, 21545, Note_on_c, 1, 57, 0
3, 21600, Note_on_c, 1, 45, 84
3, 21600, Note_on_c, 1, 52, 84
3, 21600, Note_on_c, 1, 57, 84
3, 21600, Note_on_c, 1, 60, 93
3, 22025, Note_on_c, 1, 60, 0
3, 22025, Note_on_c, 1, 45, 0
3, 22025, Note_on_c, 1, 52, 0
3, 22025, Note_on_c, 1, 57, 0
3, 22080, Note_on_c, 1, 41, 84
3, 22080, Note_on_c, 1, 53, 84
3, 22080, Note_on_c, 1, 57, 84
3, 22080, Note_on_c, 1, 60, 93
3, 22265, Note_on_c, 1, 60, 0
3, 22265, Note_on_c, 1, 41, 0
3, 22265, Note_on_c, 1, 53, 0
3, 22265, Note_on_c, 1, 57, 0
3, 22320, Note_on_c, 1, 41, 84
3, 22320, Note_on_c, 1, 53, 84
3, 22320, Note_on_c, 1, 57, 84
3, 22320, Note_on_c, 1, 60, 93
3, 22505, Note_on_c, 1, 60, 0
3, 22505, Note_on_c, 1, 41, 0
3, 22505, Note_on_c, 1, 53, 0
3, 22505, Note_on_c, 1, 57, 0
3, 22560, Note_on_c, 1, 41, 84
3, 22560, Note_on_c, 1, 53, 84
3, 22560, Note_on_c, 1, 57, 84
3, 22560, Note_on_c, 1, 60, 93
3, 22985, Note_on_c, 1, 60, 0
3, 22985, Note_on_c, 1, 41, 0
3, 22985, Note_on_c, 1, 53, 0
3, 22985, Note_on_c, 1, 57, 0
3, 23040, Note_on_c, 1, 48, 84
3, 23040, Note_on_c, 1, 55, 84
3, 23040, Note_on_c, 1, 60, 93
3, 23040, Note_on_c, 1, 64, 93
3, 23225, Note_on_c, 1, 64, 0
3, 23225, Note_on_c, 1, 48, 0
3, 23225, Note_on_c, 1, 55, 0
3, 23225, Note_on_c, 1, 60, 0
3, 23280, Note_on_c, 1, 48, 84
3, 23280, Note_on_c, 1, 55, 84
3, 23280, Note_on_c, 1, 60, 93
3, 23280, Note_on_c, 1, 64, 93
3, 23345, Note_on_c, 1, 64, 0
3, 23345, Note_on_c, 1, 48, 0
3, 23345, Note_on_c, 1, 55, 0
3, 23345, Note_on_c, 1, 60, 0
3, 23400, Note_on_c, 1, 48, 84
3, 23400, Note_on_c, 1, 55, 84
3, 23400, Note_on_c, 1, 60, 93
3, 23400, Note_on_c, 1, 64, 93
3, 23465, Note_on_c, 1, 64, 0
3, 23465, Note_on_c, 1, 48, 0
3, 23465, Note_on_c, 1, 55, 0
3, 23465, Note_on_c, 1, 60, 0
3, 23520, Note_on_c, 1, 48, 84
3, 23520, Note_on_c, 1, 55, 84
3, 23520, Note_on_c, 1, 60, 93
3, 23520, Note_on_c, 1, 64, 93
3, 23945, Note_on_c, 1, 64, 0
3, 23945, Note_on_c, 1, 48, 0
3, 23945, Note_on_c, 1, 55, 0
3, 23945, Note_on_c, 1, 60, 0
3, 24000, Note_on_c, 1, 55, 84
3, 24000, Note_on_c, 1, 59, 84
3, 24000, Note_on_c, 1, 62, 93
3, 24185, Note_on_c, 1, 62, 0
3, 24185, Note_on_c, 1, 59, 0
3, 24185, Note_on_c, 1, 55, 0
3, 24240, Note_on_c, 1, 55, 84
3, 24240, Note_on_c, 1, 59, 84
3, 24240, Note_on_c, 1, 62, 93
3, 24425, Note_on_c, 1, 62, 0
3, 24425, Note_on_c, 1, 59, 0
3, 24425, Note_on_c, 1, 55, 0
3, 24480, Note_on_c, 1, 55, 84
3, 24480, Note_on_c, 1, 59, 84
3, 24480, Note_on_c, 1, 62, 93
3, 24665, Note_on_c, 1, 59, 0
3, 24905, Note_on_c, 1, 62, 0
3, 24905, Note_on_c, 1, 55, 0
3, 24960, Note_on_c, 1, 55, 84
3, 24960, Note_on_c, 1, 60, 93
3, 24960, Note_on_c, 1, 64, 93
3, 25145, Note_on_c, 1, 64, 0
3, 25145, Note_on_c, 1, 60, 0
3, 25145, Note_on_c, 1, 55, 0
3, 25200, Note_on_c, 1, 55, 84
3, 25200, Note_on_c, 1, 60, 93
3, 25200, Note_on_c, 1, 64, 93
3, 25265, Note_on_c, 1, 64, 0
3, 25265, Note_on_c, 1, 60, 0
3, 25265, Note_on_c, 1, 55, 0
3, 25320, Note_on_c, 1, 55, 84
3, 25320, Note_on_c, 1, 60, 93
3, 25320, Note_on_c, 1, 64, 93
3, 25385, Note_on_c, 1, 64, 0
3, 25385, Note_on_c, 1, 60, 0
3, 25385, Note_on_c, 1, 55, 0
3, 25440, Note_on_c, 1, 55, 84
3, 25440, Note_on_c, 1, 60, 93
3, 25440, Note_on_c, 1, 64, 93
3, 25865, Note_on_c, 1, 64, 0
3, 25865, Note_on_c, 1, 60, 0
3, 25865, Note_on_c, 1, 55, 0
3, 25920, Note_on_c, 1, 55, 84
3, 25920, Note_on_c, 1, 58, 84
3, 25920, Note_on_c, 1, 62, 93
3, 26105, Note_on_c, 1, 62, 0
3, 26105, Note_on_c, 1, 58, 0
3, 26105, Note_on_c, 1, 55, 0
3, 26160, Note_on_c, 1, 55, 84
3, 26160, Note_on_c, 1, 58, 84
3, 26160, Note_on_c, 1, 62, 93
3, 26345, Note_on_c, 1, 62, 0
3, 26345, Note_on_c, 1, 58, 0
3, 26345, Note_on_c, 1, 55, 0
3, 26400, Note_on_c, 1, 55, 84
3, 26400, Note_on_c, 1, 58, 84
3, 26400, Note_on_c, 1, 62, 93
3, 26585, Note_on_c, 1, 58, 0
3, 26825, Note_on_c, 1, 62, 0
3, 26825, Note_on_c, 1, 55, 0
3, 26880, Note_on_c, 1, 55, 84
3, 26880, Note_on_c, 1, 60, 93
3, 26880, Note_on_c, 1, 64, 93
3, 27065, Note_on_c, 1, 64, 0
3, 27065, Note_on_c, 1, 60, 0
3, 27065, Note_on_c, 1, 55, 0
3, 27120, Note_on_c, 1, 55, 84
3, 27120, Note_on_c, 1, 60, 93
3, 27120, Note_on_c, 1, 64, 93
3, 27185, Note_on_c, 1, 64, 0
3, 27185, Note_on_c, 1, 60, 0
3, 27185, Note_on_c, 1, 55, 0
3, 27240, Note_on_c, 1, 55, 84
3, 27240, Note_on_c, 1, 60, 93
3, 27240, Note_on_c, 1, 64, 93
3, 27305, Note_on_c, 1, 64, 0
3, 27305, Note_on_c, 1, 60, 0
3, 27305, Note_on_c, 1, 55, 0
3, 27360, Note_on_c, 1, 55, 84
3, 27360, Note_on_c, 1, 60, 93
3, 27360, Note_on_c, 1, 64, 93
3, 27785, Note_on_c, 1, 64, 0
3, 27785, Note_on_c, 1, 60, 0
3, 27785, Note_on_c, 1, 55, 0
3, 27840, Note_on_c, 1, 55, 84
3, 27840, Note_on_c, 1, 58, 84
3, 27840, Note_on_c, 1, 62, 93
3, 28025, Note_on_c, 1, 62, 0
3, 28025, Note_on_c, 1, 58, 0
3, 28025, Note_on_c, 1, 55, 0
3, 28080, Note_on_c, 1, 55, 84
3, 28080, Note_on_c, 1, 58, 84
3, 28080, Note_on_c, 1, 62, 93
3, 28265, Note_on_c, 1, 62, 0
3, 28265, Note_on_c, 1, 58, 0
3, 28265, Note_on_c, 1, 55, 0
3, 28320, Note_on_c, 1, 55, 84
3, 28320, Note_on_c, 1, 58, 84
3, 28320, Note_on_c, 1, 62, 93
3, 28505, Note_on_c, 1, 58, 0
3, 28745, Note_on_c, 1, 62, 0
3, 28745, Note_on_c, 1, 55, 0
3, 28800, Note_on_c, 1, 55, 84
3, 28800, Note_on_c, 1, 60, 93
3, 28800, Note_on_c, 1, 64, 93
3, 28985, Note_on_c, 1, 64, 0
3, 28985, Note_on_c, 1, 60, 0
3, 28985, Note_on_c, 1, 55, 0
3, 29040, Note_on_c, 1, 55, 84
3, 29040, Note_on_c, 1, 60, 93
3, 29040, Note_on_c, 1, 64, 93
3, 29105, Note_on_c, 1, 64, 0
3, 29105, Note_on_c, 1, 60, 0
3, 29105, Note_on_c, 1, 55, 0
3, 29160, Note_on_c, 1, 55, 84
3, 29160, Note_on_c, 1, 60, 93
3, 29160, Note_on_c, 1, 64, 93
3, 29225, Note_on_c, 1, 64, 0
3, 29225, Note_on_c, 1, 60, 0
3, 29225, Note_on_c, 1, 55, 0
3, 29280, Note_on_c, 1, 55, 84
3, 29280, Note_on_c, 1, 60, 93
3, 29280, Note_on_c, 1, 64, 93
3, 29705, Note_on_c, 1, 64, 0
3, 29705, Note_on_c, 1, 60, 0
3, 29705, Note_on_c, 1, 55, 0
3, 29760, Note_on_c, 1, 55, 84
3, 29760, Note_on_c, 1, 58, 84
3, 29760, Note_on_c, 1, 62, 93
3, 29945, Note_on_c, 1, 62, 0
3, 29945, Note_on_c, 1, 58, 0
3, 29945, Note_on_c, 1, 55, 0
3, 30000, Note_on_c, 1, 55, 84
3, 30000, Note_on_c, 1, 58, 84
3, 30000, Note_on_c, 1, 62, 93
3, 30185, Note_on_c, 1, 62, 0
3, 30185, Note_on_c, 1, 58, 0
3, 30185, Note_on_c, 1, 55, 0
3, 30240, Note_on_c, 1, 55, 84
3, 30240, Note_on_c, 1, 58, 84
3, 30240, Note_on_c, 1, 62, 93
3, 30425, Note_on_c, 1, 58, 0
3, 30665, Note_on_c, 1, 62, 0
3, 30665, Note_on_c, 1, 55, 0
3, 30720, Note_on_c, 1, 57, 84
3, 30720, Note_on_c, 1, 60, 93
3, 30720, Note_on_c, 1, 64, 93
3, 30905, Note_on_c, 1, 64, 0
3, 30905, Note_on_c, 1, 60, 0
3, 30905, Note_on_c, 1, 57, 0
3, 30960, Note_on_c, 1, 57, 84
3, 30960, Note_on_c, 1, 60, 93
3, 30960, Note_on_c, 1, 64, 93
3, 31025, Note_on_c, 1, 64, 0
3, 31025, Note_on_c, 1, 60, 0
3, 31025, Note_on_c, 1, 57, 0
3, 31080, Note_on_c, 1, 57, 84
3, 31080, Note_on_c, 1, 60, 93
3, 31080, Note_on_c, 1, 64, 93
3, 31145, Note_on_c, 1, 64, 0
3, 31145, Note_on_c, 1, 60, 0
3, 31145, Note_on_c, 1, 57, 0
3, 31200, Note_on_c, 1, 57, 84
3, 31200, Note_on_c, 1, 60, 93
3, 31200, Note_on_c, 1, 64, 93
3, 31625, Note_on_c, 1, 64, 0
3, 31625, Note_on_c, 1, 60, 0
3, 31625, Note_on_c, 1, 57, 0
3, 31680, Note_on_c, 1, 60, 93
3, 31680, Note_on_c, 1, 64, 93
3, 31680, Note_on_c, 1, 69, 93
3, 31865, Note_on_c, 1, 69, 0
3, 31865, Note_on_c, 1, 64, 0
3, 31865, Note_on_c, 1, 60, 0
3, 31920, Note_on_c, 1, 60, 93
3, 31920, Note_on_c, 1, 64, 93
3, 31920, Note_on_c, 1, 69, 93
3, 32345, Note_on_c, 1, 69, 0
3, 32345, Note_on_c, 1, 64, 0
3, 32345, Note_on_c, 1, 60, 0
3, 32400, Note_on_c, 1, 52, 84
3, 32400, Note_on_c, 1, 64, 93
3, 32585, Note_on_c, 1, 64, 0
3, 32585, Note_on_c, 1, 52, 0
3, 32640, Note_on_c, 1, 50, 84
3, 32640, Note_on_c, 1, 57, 84
3, 32640, Note_on_c, 1, 62, 93
3, 32640, Note_on_c, 1, 65, 93
3, 32825, Note_on_c, 1, 65, 0
3, 32825, Note_on_c, 1, 50, 0
3, 32825, Note_on_c, 1, 57, 0
3, 32825, Note_on_c, 1, 62, 0
3, 32880, Note_on_c, 1, 50, 84
3, 32880, Note_on_c, 1, 57, 84
3, 32880, Note_on_c, 1, 62, 93
3, 32880, Note_on_c, 1, 65, 93
3, 32945, Note_on_c, 1, 65, 0
3, 32945, Note_on_c, 1, 50, 0
3, 32945, Note_on_c, 1, 57, 0
3, 32945, Note_on_c, 1, 62, 0
3, 33000, Note_on_c, 1, 50, 84
3, 33000, Note_on_c, 1, 57, 84
3, 33000, Note_on_c, 1, 62, 93
3, 33000, Note_on_c, 1, 65, 93
3, 33065, Note_on_c, 1, 65, 0
3, 33065, Note_on_c, 1, 50, 0
3, 33065, Note_on_c, 1, 57, 0
3, 33065, Note_on_c, 1, 62, 0
3, 33120, Note_on_c, 1, 50, 84
3, 33120, Note_on_c, 1, 57, 84
3, 33120, Note_on_c, 1, 62, 93
3, 33120, Note_on_c, 1, 65, 93
3, 33425, Note_on_c, 1, 57, 0
3, 33425, Note_on_c, 1, 50, 0
3, 33545, Note_on_c, 1, 62, 0
3, 33545, Note_on_c, 1, 65, 0
3, 33600, Note_on_c, 1, 55, 84
3, 33600, Note_on_c, 1, 60, 93
3, 33600, Note_on_c, 1, 64, 93
3, 33785, Note_on_c, 1, 64, 0
3, 33785, Note_on_c, 1, 60, 0
3, 33785, Note_on_c, 1, 55, 0
3, 33840, Note_on_c, 1, 48, 84
3, 33840, Note_on_c, 1, 55, 84
3, 33840, Note_on_c, 1, 60, 93
3, 33840, Note_on_c, 1, 64, 93
3, 34025, Note_on_c, 1, 64, 0
3, 34025, Note_on_c, 1, 48, 0
3, 34025, Note_on_c, 1, 55, 0
3, 34025, Note_on_c, 1, 60, 0
3, 34080, Note_on_c, 1, 48, 84
3, 34080, Note_on_c, 1, 55, 84
3, 34080, Note_on_c, 1, 60, 93
3, 34080, Note_on_c, 1, 64, 93
3, 34440, Note_on_c, 1, 48, 84
3, 34505, Note_on_c, 1, 48, 0
3, 34505, Note_on_c, 1, 60, 0
3, 34505, Note_on_c, 1, 48, 0
3, 34505, Note_on_c, 1, 55, 0
3, 34505, Note_on_c, 1, 64, 0
3, 34560, Note_on_c, 1, 47, 84
3, 34560, Note_on_c, 1, 55, 84
3, 34560, Note_on_c, 1, 59, 84
3, 34560, Note_on_c, 1, 62, 93
3, 34745, Note_on_c, 1, 62, 0
3, 34745, Note_on_c, 1, 47, 0
3, 34745, Note_on_c, 1, 55, 0
3, 34745, Note_on_c, 1, 59, 0
3, 34800, Note_on_c, 1, 47, 84
3, 34800, Note_on_c, 1, 55, 84
3, 34800, Note_on_c, 1, 59, 84
3, 34800, Note_on_c, 1, 62, 93
3, 34865, Note_on_c, 1, 62, 0
3, 34865, Note_on_c, 1, 47, 0
3, 34865, Note_on_c, 1, 55, 0
3, 34865, Note_on_c, 1, 59, 0
3, 34920, Note_on_c, 1, 47, 84
3, 34920, Note_on_c, 1, 55, 84
3, 34920, Note_on_c, 1, 59, 84
3, 34920, Note_on_c, 1, 62, 93
3, 34985, Note_on_c, 1, 62, 0
3, 34985, Note_on_c, 1, 47, 0
3, 34985, Note_on_c, 1, 55, 0
3, 34985, Note_on_c, 1, 59, 0
3, 35040, Note_on_c, 1, 47, 84
3, 35040, Note_on_c, 1, 55, 84
3, 35040, Note_on_c, 1, 59, 84
3, 35040, Note_on_c, 1, 62, 93
3, 35465, Note_on_c, 1, 62, 0
3, 35465, Note_on_c, 1, 47, 0
3, 35465, Note_on_c, 1, 55, 0
3, 35465, Note_on_c, 1, 59, 0
3, 35520, Note_on_c, 1, 43, 84
3, 35520, Note_on_c, 1, 55, 84
3, 35520, Note_on_c, 1, 62, 93
3, 35760, Note_on_c, 1, 57, 84
3, 35825, Note_on_c, 1, 57, 0
3, 35825, Note_on_c, 1, 62, 0
3, 35880, Note_on_c, 1, 60, 93
3, 35880, Note_on_c, 1, 64, 93
3, 35945, Note_on_c, 1, 64, 0
3, 35945, Note_on_c, 1, 43, 0
3, 35945, Note_on_c, 1, 55, 0
3, 35945, Note_on_c, 1, 60, 0
3, 36000, Note_on_c, 1, 59, 84
3, 36000, Note_on_c, 1, 62, 93
3, 36425, Note_on_c, 1, 62, 0
3, 36425, Note_on_c, 1, 59, 0
3, 36480, Note_on_c, 1, 48, 84
3, 36480, Note_on_c, 1, 55, 84
3, 36480, Note_on_c, 1, 60, 93
3, 36480, Note_on_c, 1, 64, 93
3, 36665, Note_on_c, 1, 64, 0
3, 36665, Note_on_c, 1, 48, 0
3, 36665, Note_on_c, 1, 55, 0
3, 36665, Note_on_c, 1, 60, 0
3, 36720, Note_on_c, 1, 48, 84
3, 36720, Note_on_c, 1, 55, 84
3, 36720, Note_on_c, 1, 60, 93
3, 36720, Note_on_c, 1, 64, 93
3, 36785, Note_on_c, 1, 64, 0
3, 36785, Note_on_c, 1, 48, 0
3, 36785, Note_on_c, 1, 55, 0
3, 36785, Note_on_c, 1, 60, 0
3, 36840, Note_on_c, 1, 48, 84
3, 36840, Note_on_c, 1, 55, 84
3, 36840, Note_on_c, 1, 60, 93
3, 36840, Note_on_c, 1, 64, 93
3, 36905, Note_on_c, 1, 64, 0
3, 36905, Note_on_c, 1, 48, 0
3, 36905, Note_on_c, 1, 55, 0
3, 36905, Note_on_c, 1, 60, 0
3, 36960, Note_on_c, 1, 48, 84
3, 36960, Note_on_c, 1, 55, 84
3, 36960, Note_on_c, 1, 60, 93
3, 36960, Note_on_c, 1, 64, 93
3, 37385, Note_on_c, 1, 64, 0
3, 37385, Note_on_c, 1, 48, 0
3, 37385, Note_on_c, 1, 55, 0
3, 37385, Note_on_c, 1, 60, 0
3, 37440, Note_on_c, 1, 55, 84
3, 37440, Note_on_c, 1, 59, 84
3, 37440, Note_on_c, 1, 62, 93
3, 37625, Note_on_c, 1, 62, 0
3, 37625, Note_on_c, 1, 59, 0
3, 37625, Note_on_c, 1, 55, 0
3, 37680, Note_on_c, 1, 55, 84
3, 37680, Note_on_c, 1, 59, 84
3, 37680, Note_on_c, 1, 62, 93
3, 37865, Note_on_c, 1, 62, 0
3, 37865, Note_on_c, 1, 59, 0
3, 37865, Note_on_c, 1, 55, 0
3, 37920, Note_on_c, 1, 47, 84
3, 37920, Note_on_c, 1, 55, 84
3, 37920, Note_on_c, 1, 59, 84
3, 37920, Note_on_c, 1, 62, 93
3, 38345, Note_on_c, 1, 62, 0
3, 38345, Note_on_c, 1, 47, 0
3, 38345, Note_on_c, 1, 55, 0
3, 38345, Note_on_c, 1, 59, 0
3, 38400, Note_on_c, 1, 45, 84
3, 38400, Note_on_c, 1, 52, 84
3, 38400, Note_on_c, 1, 57, 84
3, 38400, Note_on_c, 1, 60, 93
3, 38585, Note_on_c, 1, 60, 0
3, 38585, Note_on_c, 1, 45, 0
3, 38585, Note_on_c, 1, 52, 0
3, 38585, Note_on_c, 1, 57, 0
3, 38640, Note_on_c, 1, 45, 84
3, 38640, Note_on_c, 1, 52, 84
3, 38640, Note_on_c, 1, 57, 84
3, 38640, Note_on_c, 1, 60, 93
3, 38705, Note_on_c, 1, 60, 0
3, 38705, Note_on_c, 1, 45, 0
3, 38705, Note_on_c, 1, 52, 0
3, 38705, Note_on_c, 1, 57, 0
3, 38760, Note_on_c, 1, 45, 84
3, 38760, Note_on_c, 1, 52, 84
3, 38760, Note_on_c, 1, 57, 84
3, 38760, Note_on_c, 1, 60, 93
3, 38825, Note_on_c, 1, 60, 0
3, 38825, Note_on_c, 1, 45, 0
3, 38825, Note_on_c, 1, 52, 0
3, 38825, Note_on_c, 1, 57, 0
3, 38880, Note_on_c, 1, 45, 84
3, 38880, Note_on_c, 1, 52, 84
3, 38880, Note_on_c, 1, 57, 84
3, 38880, Note_on_c, 1, 60, 93
3, 39305, Note_on_c, 1, 60, 0
3, 39305, Note_on_c, 1, 45, 0
3, 39305, Note_on_c, 1, 52, 0
3, 39305, Note_on_c, 1, 57, 0
3, 39360, Note_on_c, 1, 41, 84
3, 39360, Note_on_c, 1, 53, 84
3, 39360, Note_on_c, 1, 57, 84
3, 39360, Note_on_c, 1, 60, 93
3, 39545, Note_on_c, 1, 60, 0
3, 39545, Note_on_c, 1, 41, 0
3, 39545, Note_on_c, 1, 53, 0
3, 39545, Note_on_c, 1, 57, 0
3, 39600, Note_on_c, 1, 41, 84
3, 39600, Note_on_c, 1, 53, 84
3, 39600, Note_on_c, 1, 57, 84
3, 39600, Note_on_c, 1, 60, 93
3, 39785, Note_on_c, 1, 60, 0
3, 39785, Note_on_c, 1, 41, 0
3, 39785, Note_on_c, 1, 53, 0
3, 39785, Note_on_c, 1, 57, 0
3, 39840, Note_on_c, 1, 41, 84
3, 39840, Note_on_c, 1, 53, 84
3, 39840, Note_on_c, 1, 57, 84
3, 39840, Note_on_c, 1, 60, 93
3, 40265, Note_on_c, 1, 60, 0
3, 40265, Note_on_c, 1, 41, 0
3, 40265, Note_on_c, 1, 53, 0
3, 40265, Note_on_c, 1, 57, 0
3, 40320, Note_on_c, 1, 48, 84
3, 40320, Note_on_c, 1, 55, 84
3, 40320, Note_on_c, 1, 60, 93
3, 40320, Note_on_c, 1, 64, 93
3, 40505, Note_on_c, 1, 64, 0
3, 40505, Note_on_c, 1, 48, 0
3, 40505, Note_on_c, 1, 55, 0
3, 40505, Note_on_c, 1, 60, 0
3, 40560, Note_on_c, 1, 48, 84
3, 40560, Note_on_c, 1, 55, 84
3, 40560, Note_on_c, 1, 60, 93
3, 40560, Note_on_c, 1, 64, 93
3, 40625, Note_on_c, 1, 64, 0
3, 40625, Note_on_c, 1, 48, 0
3, 40625, Note_on_c, 1, 55, 0
3, 40625, Note_on_c, 1, 60, 0
3, 40680, Note_on_c, 1, 48, 84
3, 40680, Note_on_c, 1, 55, 84
3, 40680, Note_on_c, 1, 60, 93
3, 40680, Note_on_c, 1, 64, 93
3, 40745, Note_on_c, 1, 64, 0
3, 40745, Note_on_c, 1, 48, 0
3, 40745, Note_on_c, 1, 55, 0
3, 40745, Note_on_c, 1, 60, 0
3, 40800, Note_on_c, 1, 48, 84
3, 40800, Note_on_c, 1, 55, 84
3, 40800, Note_on_c, 1, 60, 93
3, 40800, Note_on_c, 1, 64, 93
3, 41225, Note_on_c, 1, 64, 0
3, 41225, Note_on_c, 1, 48, 0
3, 41225, Note_on_c, 1, 55, 0
3, 41225, Note_on_c, 1, 60, 0
3, 41280, Note_on_c, 1, 55, 84
3, 41280, Note_on_c, 1, 59, 84
3, 41280, Note_on_c, 1, 62, 93
3, 41465, Note_on_c, 1, 62, 0
3, 41465, Note_on_c, 1, 59, 0
3, 41465, Note_on_c, 1, 55, 0
3, 41520, Note_on_c, 1, 55, 84
3, 41520, Note_on_c, 1, 59, 84
3, 41520, Note_on_c, 1, 62, 93
3, 41705, Note_on_c, 1, 62, 0
3, 41705, Note_on_c, 1, 59, 0
3, 41705, Note_on_c, 1, 55, 0
3, 41760, Note_on_c, 1, 55, 84
3, 41760, Note_on_c, 1, 59, 84
3, 41760, Note_on_c, 1, 62, 93
3, 41945, Note_on_c, 1, 59, 0
3, 42185, Note_on_c, 1, 62, 0
3, 42185, Note_on_c, 1, 55, 0
3, 42240, Note_on_c, 1, 55, 84
3, 42240, Note_on_c, 1, 60, 93
3, 42240, Note_on_c, 1, 64, 93
3, 42425, Note_on_c, 1, 64, 0
3, 42425, Note_on_c, 1, 60, 0
3, 42425, Note_on_c, 1, 55, 0
3, 42480, Note_on_c, 1, 55, 84
3, 42480, Note_on_c, 1, 60, 93
3, 42480, Note_on_c, 1, 64, 93
3, 42545, Note_on_c, 1, 64, 0
3, 42545, Note_on_c, 1, 60, 0
3, 42545, Note_on_c, 1, 55, 0
3, 42600, Note_on_c, 1, 55, 84
3, 42600, Note_on_c, 1, 60, 93
3, 42600, Note_on_c, 1, 64, 93
3, 42665, Note_on_c, 1, 64, 0
3, 42665, Note_on_c, 1, 60, 0
3, 42665, Note_on_c, 1, 55, 0
3, 42720, Note_on_c, 1, 55, 84
3, 42720, Note_on_c, 1, 60, 93
3, 42720, Note_on_c, 1, 64, 93
3, 43145, Note_on_c, 1, 64, 0
3, 43145, Note_on_c, 1, 60, 0
3, 43145, Note_on_c, 1, 55, 0
3, 43200, Note_on_c, 1, 55, 84
3, 43200, Note_on_c, 1, 58, 84
3, 43200, Note_on_c, 1, 62, 93
3, 43385, Note_on_c, 1, 62, 0
3, 43385, Note_on_c, 1, 58, 0
3, 43385, Note_on_c, 1, 55, 0
3, 43440, Note_on_c, 1, 55, 84
3, 43440, Note_on_c, 1, 58, 84
3, 43440, Note_on_c, 1, 62, 93
3, 43625, Note_on_c, 1, 62, 0
3, 43625, Note_on_c, 1, 58, 0
3, 43625, Note_on_c, 1, 55, 0
3, 43680, Note_on_c, 1, 55, 84
3, 43680, Note_on_c, 1, 58, 84
3, 43680, Note_on_c, 1, 62, 93
3, 43865, Note_on_c, 1, 58, 0
3, 44105, Note_on_c, 1, 62, 0
3, 44105, Note_on_c, 1, 55, 0
3, 44160, Note_on_c, 1, 55, 84
3, 44160, Note_on_c, 1, 60, 93
3, 44160, Note_on_c, 1, 64, 93
3, 44345, Note_on_c, 1, 64, 0
3, 44345, Note_on_c, 1, 60, 0
3, 44345, Note_on_c, 1, 55, 0
3, 44400, Note_on_c, 1, 55, 84
3, 44400, Note_on_c, 1, 60, 93
3, 44400, Note_on_c, 1, 64, 93
3, 44465, Note_on_c, 1, 64, 0
3, 44465, Note_on_c, 1, 60, 0
3, 44465, Note_on_c, 1, 55, 0
3, 44520, Note_on_c, 1, 55, 84
3, 44520, Note_on_c, 1, 60, 93
3, 44520, Note_on_c, 1, 64, 93
3, 44585, Note_on_c, 1, 64, 0
3, 44585, Note_on_c, 1, 60, 0
3, 44585, Note_on_c, 1, 55, 0
3, 44640, Note_on_c, 1, 55, 84
3, 44640, Note_on_c, 1, 60, 93
3, 44640, Note_on_c, 1, 64, 93
3, 45065, Note_on_c, 1, 64, 0
3, 45065, Note_on_c, 1, 60, 0
3, 45065, Note_on_c, 1, 55, 0
3, 45120, Note_on_c, 1, 55, 84
3, 45120, Note_on_c, 1, 58, 84
3, 45120, Note_on_c, 1, 62, 93
3, 45305, Note_on_c, 1, 62, 0
3, 45305, Note_on_c, 1, 58, 0
3, 45305, Note_on_c, 1, 55, 0
3, 45360, Note_on_c, 1, 55, 84
3, 45360, Note_on_c, 1, 58, 84
3, 45360, Note_on_c, 1, 62, 93
3, 45545, Note_on_c, 1, 62, 0
3, 45545, Note_on_c, 1, 58, 0
3, 45545, Note_on_c, 1, 55, 0
3, 45600, Note_on_c, 1, 55, 84
3, 45600, Note_on_c, 1, 58, 84
3, 45600, Note_on_c, 1, 62, 93
3, 45785, Note_on_c, 1, 58, 0
3, 46025, Note_on_c, 1, 62, 0
3, 46025, Note_on_c, 1, 55, 0
3, 46080, Note_on_c, 1, 55, 84
3, 46080, Note_on_c, 1, 60, 93
3, 46080, Note_on_c, 1, 64, 93
3, 46265, Note_on_c, 1, 64, 0
3, 46265, Note_on_c, 1, 60, 0
3, 46265, Note_on_c, 1, 55, 0
3, 46320, Note_on_c, 1, 55, 84
3, 46320, Note_on_c, 1, 60, 93
3, 46320, Note_on_c, 1, 64, 93
3, 46385, Note_on_c, 1, 64, 0
3, 46385, Note_on_c, 1, 60, 0
3, 46385, Note_on_c, 1, 55, 0
3, 46440, Note_on_c, 1, 55, 84
3, 46440, Note_on_c, 1, 60, 93
3, 46440, Note_on_c, 1, 64, 93
3, 46505, Note_on_c, 1, 64, 0
3, 46505, Note_on_c, 1, 60, 0
3, 46505, Note_on_c, 1, 55, 0
3, 46560, Note_on_c, 1, 55, 84
3, 46560, Note_on_c, 1, 60, 93
3, 46560, Note_on_c, 1, 64, 93
3, 46985, Note_on_c, 1, 64, 0
3, 46985, Note_on_c, 1, 60, 0
3, 46985, Note_on_c, 1, 55, 0
3, 47040, Note_on_c, 1, 55, 84
3, 47040, Note_on_c, 1, 58, 84
3, 47040, Note_on_c, 1, 62, 93
3, 47225, Note_on_c, 1, 62, 0
3, 47225, Note_on_c, 1, 58, 0
3, 47225, Note_on_c, 1, 55, 0
3, 47280, Note_on_c, 1, 55, 84
3, 47280, Note_on_c, 1, 58, 84
3, 47280, Note_on_c, 1, 62, 93
3, 47465, Note_on_c, 1, 62, 0
3, 47465, Note_on_c, 1, 58, 0
3, 47465, Note_on_c, 1, 55, 0
3, 47520, Note_on_c, 1, 55, 84
3, 47520, Note_on_c, 1, 58, 84
3, 47520, Note_on_c, 1, 62, 93
3, 47705, Note_on_c, 1, 58, 0
3, 47945, Note_on_c, 1, 62, 0
3, 47945, Note_on_c, 1, 55, 0
3, 48000, Note_on_c, 1, 52, 84
3, 48000, Note_on_c, 1, 55, 84
3, 48000, Note_on_c, 1, 60, 93
3, 48185, Note_on_c, 1, 60, 0
3, 48185, Note_on_c, 1, 55, 0
3, 48185, Note_on_c, 1, 52, 0
3, 48240, Note_on_c, 1, 52, 84
3, 48240, Note_on_c, 1, 55, 84
3, 48240, Note_on_c, 1, 60, 93
3, 48305, Note_on_c, 1, 60, 0
3, 48305, Note_on_c, 1, 55, 0
3, 48305, Note_on_c, 1, 52, 0
3, 48360, Note_on_c, 1, 52, 84
3, 48360, Note_on_c, 1, 55, 84
3, 48360, Note_on_c, 1, 60, 93
3, 48425, Note_on_c, 1, 60, 0
3, 48425, Note_on_c, 1, 55, 0
3, 48425, Note_on_c, 1, 52, 0
3, 48480, Note_on_c, 1, 52, 84
3, 48480, Note_on_c, 1, 55, 84
3, 48480, Note_on_c, 1, 60, 93
3, 48905, Note_on_c, 1, 60, 0
3, 48905, Note_on_c, 1, 55, 0
3, 48905, Note_on_c, 1, 52, 0
3, 48960, Note_on_c, 1, 50, 84
3, 48960, Note_on_c, 1, 55, 84
3, 48960, Note_on_c, 1, 59, 84
3, 49145, Note_on_c, 1, 59, 0
3, 49145, Note_on_c, 1, 55, 0
3, 49145, Note_on_c, 1, 50, 0
3, 49200, Note_on_c, 1, 50, 84
3, 49200, Note_on_c, 1, 55, 84
3, 49200, Note_on_c, 1, 59, 84
3, 49385, Note_on_c, 1, 59, 0
3, 49385, Note_on_c, 1, 55, 0
3, 49385, Note_on_c, 1, 50, 0
3, 49440, Note_on_c, 1, 50, 84
3, 49440, Note_on_c, 1, 55, 84
3, 49440, Note_on_c, 1, 59, 84
3, 49625, Note_on_c, 1, 59, 0
3, 49625, Note_on_c, 1, 55, 0
3, 49625, Note_on_c, 1, 50, 0
3, 49680, Note_on_c, 1, 50, 84
3, 49680, Note_on_c, 1, 55, 84
3, 49680, Note_on_c, 1, 59, 84
3, 49865, Note_on_c, 1, 59, 0
3, 49865, Note_on_c, 1, 55, 0
3, 49865, Note_on_c, 1, 50, 0
3, 49920, Note_on_c, 1, 52, 84
3, 49920, Note_on_c, 1, 57, 84
3, 49920, Note_on_c, 1, 60, 93
3, 50105, Note_on_c, 1, 60, 0
3, 50105, Note_on_c, 1, 57, 0
3, 50105, Note_on_c, 1, 52, 0
3, 50160, Note_on_c, 1, 52, 84
3, 50160, Note_on_c, 1, 57, 84
3, 50160, Note_on_c, 1, 60, 93
3, 50225, Note_on_c, 1, 60, 0
3, 50225, Note_on_c, 1, 57, 0
3, 50225, Note_on_c, 1, 52, 0
3, 50280, Note_on_c, 1, 52, 84
3, 50280, Note_on_c, 1, 57, 84
3, 50280, Note_on_c, 1, 60, 93
3, 50345, Note_on_c, 1, 60, 0
3, 50345, Note_on_c, 1, 57, 0
3, 50345, Note_on_c, 1, 52, 0
3, 50400, Note_on_c, 1, 52, 84
3, 50400, Note_on_c, 1, 57, 84
3, 50400, Note_on_c, 1, 60, 93
3, 50825, Note_on_c, 1, 60, 0
3, 50825, Note_on_c, 1, 57, 0
3, 50825, Note_on_c, 1, 52, 0
3, 50880, Note_on_c, 1, 52, 84
3, 50880, Note_on_c, 1, 57, 84
3, 50880, Note_on_c, 1, 60, 93
3, 51065, Note_on_c, 1, 60, 0
3, 51065, Note_on_c, 1, 57, 0
3, 51065, Note_on_c, 1, 52, 0
3, 51120, Note_on_c, 1, 52, 84
3, 51120, Note_on_c, 1, 57, 84
3, 51120, Note_on_c, 1, 60, 93
3, 51305, Note_on_c, 1, 60, 0
3, 51305, Note_on_c, 1, 57, 0
3, 51305, Note_on_c, 1, 52, 0
3, 51360, Note_on_c, 1, 52, 84
3, 51360, Note_on_c, 1, 57, 84
3, 51360, Note_on_c, 1, 60, 93
3, 51785, Note_on_c, 1, 60, 0
3, 51785, Note_on_c, 1, 57, 0
3, 51785, Note_on_c, 1, 52, 0
3, 51840, Note_on_c, 1, 52, 84
3, 51840, Note_on_c, 1, 55, 84
3, 51840, Note_on_c, 1, 60, 93
3, 52025, Note_on_c, 1, 60, 0
3, 52025, Note_on_c, 1, 55, 0
3, 52025, Note_on_c, 1, 52, 0
3, 52080, Note_on_c, 1, 52, 84
3, 52080, Note_on_c, 1, 55, 84
3, 52080, Note_on_c, 1, 60, 93
3, 52145, Note_on_c, 1, 60, 0
3, 52145, Note_on_c, 1, 55, 0
3, 52145, Note_on_c, 1, 52, 0
3, 52200, Note_on_c, 1, 52, 84
3, 52200, Note_on_c, 1, 55, 84
3, 52200, Note_on_c, 1, 60, 93
3, 52265, Note_on_c, 1, 60, 0
3, 52265, Note_on_c, 1, 55, 0
3, 52265, Note_on_c, 1, 52, 0
3, 52320, Note_on_c, 1, 52, 84
3, 52320, Note_on_c, 1, 55, 84
3, 52320, Note_on_c, 1, 60, 93
3, 52745, Note_on_c, 1, 60, 0
3, 52745, Note_on_c, 1, 55, 0
3, 52745, Note_on_c, 1, 52, 0
3, 52800, Note_on_c, 1, 50, 84
3, 52800, Note_on_c, 1, 55, 84
3, 52800, Note_on_c, 1, 59, 84
3, 52985, Note_on_c, 1, 59, 0
3, 52985, Note_on_c, 1, 55, 0
3, 52985, Note_on_c, 1, 50, 0
3, 53040, Note_on_c, 1, 50, 84
3, 53040, Note_on_c, 1, 55, 84
3, 53040, Note_on_c, 1, 59, 84
3, 53225, Note_on_c, 1, 59, 0
3, 53225, Note_on_c, 1, 55, 0
3, 53225, Note_on_c, 1, 50, 0
3, 53280, Note_on_c, 1, 50, 84
3, 53280, Note_on_c, 1, 55, 84
3, 53280, Note_on_c, 1, 59, 84
3, 53465, Note_on_c, 1, 59, 0
3, 53465, Note_on_c, 1, 55, 0
3, 53465, Note_on_c, 1, 50, 0
3, 53520, Note_on_c, 1, 50, 84
3, 53520, Note_on_c, 1, 55, 84
3, 53520, Note_on_c, 1, 59, 84
3, 53705, Note_on_c, 1, 59, 0
3, 53705, Note_on_c, 1, 55, 0
3, 53705, Note_on_c, 1, 50, 0
3, 53760, Note_on_c, 1, 52, 84
3, 53760, Note_on_c, 1, 57, 84
3, 53760, Note_on_c, 1, 60, 93
3, 53945, Note_on_c, 1, 60, 0
3, 53945, Note_on_c, 1, 57, 0
3, 53945, Note_on_c, 1, 52, 0
3, 54000, Note_on_c, 1, 52, 84
3, 54000, Note_on_c, 1, 57, 84
3, 54000, Note_on_c, 1, 60, 93
3, 54065, Note_on_c, 1, 60, 0
3, 54065, Note_on_c, 1, 57, 0
3, 54065, Note_on_c, 1, 52, 0
3, 54120, Note_on_c, 1, 52, 84
3, 54120, Note_on_c, 1, 57, 84
3, 54120, Note_on_c, 1, 60, 93
3, 54185, Note_on_c, 1, 60, 0
3, 54185, Note_on_c, 1, 57, 0
3, 54185, Note_on_c, 1, 52, 0
3, 54240, Note_on_c, 1, 52, 84
3, 54240, Note_on_c, 1, 57, 84
3, 54240, Note_on_c, 1, 60, 93
3, 54665, Note_on_c, 1, 60, 0
3, 54665, Note_on_c, 1, 57, 0
3, 54665, Note_on_c, 1, 52, 0
3, 54720, Note_on_c, 1, 52, 84
3, 54720, Note_on_c, 1, 57, 84
3, 54720, Note_on_c, 1, 60, 93
3, 54905, Note_on_c, 1, 60, 0
3, 54905, Note_on_c, 1, 57, 0
3, 54905, Note_on_c, 1, 52, 0
3, 54960, Note_on_c, 1, 52, 84
3, 54960, Note_on_c, 1, 57, 84
3, 54960, Note_on_c, 1, 60, 93
3, 55145, Note_on_c, 1, 60, 0
3, 55145, Note_on_c, 1, 57, 0
3, 55145, Note_on_c, 1, 52, 0
3, 55200, Note_on_c, 1, 52, 84
3, 55200, Note_on_c, 1, 57, 84
3, 55200, Note_on_c, 1, 60, 93
3, 55625, Note_on_c, 1, 60, 0
3, 55625, Note_on_c, 1, 57, 0
3, 55625, Note_on_c, 1, 52, 0
3, 55680, Note_on_c, 1, 52, 84
3, 55680, Note_on_c, 1, 55, 84
3, 55680, Note_on_c, 1, 60, 93
3, 55865, Note_on_c, 1, 60, 0
3, 55865, Note_on_c, 1, 55, 0
3, 55865, Note_on_c, 1, 52, 0
3, 55920, Note_on_c, 1, 52, 84
3, 55920, Note_on_c, 1, 55, 84
3, 55920, Note_on_c, 1, 60, 93
3, 55985, Note_on_c, 1, 60, 0
3, 55985, Note_on_c, 1, 55, 0
3, 55985, Note_on_c, 1, 52, 0
3, 56040, Note_on_c, 1, 52, 84
3, 56040, Note_on_c, 1, 55, 84
3, 56040, Note_on_c, 1, 60, 93
3, 56105, Note_on_c, 1, 60, 0
3, 56105, Note_on_c, 1, 55, 0
3, 56105, Note_on_c, 1, 52, 0
3, 56160, Note_on_c, 1, 52, 84
3, 56160, Note_on_c, 1, 55, 84
3, 56160, Note_on_c, 1, 60, 93
3, 56585, Note_on_c, 1, 60, 0
3, 56585, Note_on_c, 1, 55, 0
3, 56585, Note_on_c, 1, 52, 0
3, 56640, Note_on_c, 1, 50, 84
3, 56640, Note_on_c, 1, 55, 84
3, 56640, Note_on_c, 1, 59, 84
3, 56825, Note_on_c, 1, 59, 0
3, 56825, Note_on_c, 1, 55, 0
3, 56825, Note_on_c, 1, 50, 0
3, 56880, Note_on_c, 1, 50, 84
3, 56880, Note_on_c, 1, 55, 84
3, 56880, Note_on_c, 1, 59, 84
3, 57065, Note_on_c, 1, 59, 0
3, 57065, Note_on_c, 1, 55, 0
3, 57065, Note_on_c, 1, 50, 0
3, 57120, Note_on_c, 1, 50, 84
3, 57120, Note_on_c, 1, 55, 84
3, 57120, Note_on_c, 1, 59, 84
3, 57305, Note_on_c, 1, 59, 0
3, 57305, Note_on_c, 1, 55, 0
3, 57305, Note_on_c, 1, 50, 0
3, 57360, Note_on_c, 1, 50, 84
3, 57360, Note_on_c, 1, 55, 84
3, 57360, Note_on_c, 1, 59, 84
3, 57545, Note_on_c, 1, 59, 0
3, 57545, Note_on_c, 1, 55, 0
3, 57545, Note_on_c, 1, 50, 0
3, 57600, Note_on_c, 1, 52, 84
3, 57600, Note_on_c, 1, 57, 84
3, 57600, Note_on_c, 1, 60, 93
3, 57785, Note_on_c, 1, 60, 0
3, 57785, Note_on_c, 1, 57, 0
3, 57785, Note_on_c, 1, 52, 0
3, 57840, Note_on_c, 1, 52, 84
3, 57840, Note_on_c, 1, 57, 84
3, 57840, Note_on_c, 1, 60, 93
3, 57905, Note_on_c, 1, 60, 0
3, 57905, Note_on_c, 1, 57, 0
3, 57905, Note_on_c, 1, 52, 0
3, 57960, Note_on_c, 1, 52, 84
3, 57960, Note_on_c, 1, 57, 84
3, 57960, Note_on_c, 1, 60, 93
3, 58025, Note_on_c, 1, 60, 0
3, 58025, Note_on_c, 1, 57, 0
3, 58025, Note_on_c, 1, 52, 0
3, 58080, Note_on_c, 1, 52, 84
3, 58080, Note_on_c, 1, 57, 84
3, 58080, Note_on_c, 1, 60, 93
3, 58505, Note_on_c, 1, 60, 0
3, 58505, Note_on_c, 1, 57, 0
3, 58505, Note_on_c, 1, 52, 0
3, 58560, Note_on_c, 1, 52, 84
3, 58560, Note_on_c, 1, 57, 84
3, 58560, Note_on_c, 1, 60, 93
3, 58745, Note_on_c, 1, 60, 0
3, 58745, Note_on_c, 1, 57, 0
3, 58745, Note_on_c, 1, 52, 0
3, 58800, Note_on_c, 1, 52, 84
3, 58800, Note_on_c, 1, 57, 84
3, 58800, Note_on_c, 1, 60, 93
3, 58985, Note_on_c, 1, 60, 0
3, 58985, Note_on_c, 1, 57, 0
3, 58985, Note_on_c, 1, 52, 0
3, 59040, Note_on_c, 1, 52, 84
3, 59040, Note_on_c, 1, 57, 84
3, 59040, Note_on_c, 1, 60, 93
3, 59465, Note_on_c, 1, 60, 0
3, 59465, Note_on_c, 1, 57, 0
3, 59465, Note_on_c, 1, 52, 0
3, 59520, Note_on_c, 1, 52, 84
3, 59520, Note_on_c, 1, 55, 84
3, 59520, Note_on_c, 1, 60, 93
3, 59705, Note_on_c, 1, 60, 0
3, 59705, Note_on_c, 1, 55, 0
3, 59705, Note_on_c, 1, 52, 0
3, 59760, Note_on_c, 1, 52, 84
3, 59760, Note_on_c, 1, 55, 84
3, 59760, Note_on_c, 1, 60, 93
3, 59825, Note_on_c, 1, 60, 0
3, 59825, Note_on_c, 1, 55, 0
3, 59825, Note_on_c, 1, 52, 0
3, 59880, Note_on_c, 1, 52, 84
3, 59880, Note_on_c, 1, 55, 84
3, 59880, Note_on_c, 1, 60, 93
3, 59945, Note_on_c, 1, 60, 0
3, 59945, Note_on_c, 1, 55, 0
3, 59945, Note_on_c, 1, 52, 0
3, 60000, Note_on_c, 1, 52, 84
3, 60000, Note_on_c, 1, 55, 84
3, 60000, Note_on_c, 1, 60, 93
3, 60425, Note_on_c, 1, 60, 0
3, 60425, Note_on_c, 1, 55, 0
3, 60425, Note_on_c, 1, 52, 0
3, 60480, Note_on_c, 1, 50, 84
3, 60480, Note_on_c, 1, 55, 84
3, 60480, Note_on_c, 1, 59, 84
3, 60665, Note_on_c, 1, 59, 0
3, 60665, Note_on_c, 1, 55, 0
3, 60665, Note_on_c, 1, 50, 0
3, 60720, Note_on_c, 1, 50, 84
3, 60720, Note_on_c, 1, 55, 84
3, 60720, Note_on_c, 1, 59, 84
3, 60905, Note_on_c, 1, 59, 0
3, 60905, Note_on_c, 1, 55, 0
3, 60905, Note_on_c, 1, 50, 0
3, 60960, Note_on_c, 1, 50, 84
3, 60960, Note_on_c, 1, 55, 84
3, 60960, Note_on_c, 1, 59, 84
3, 61145, Note_on_c, 1, 59, 0
3, 61145, Note_on_c, 1, 55, 0
3, 61145, Note_on_c, 1, 50, 0
3, 61200, Note_on_c, 1, 50, 84
3, 61200, Note_on_c, 1, 55, 84
3, 61200, Note_on_c, 1, 59, 84
3, 61385, Note_on_c, 1, 59, 0
3, 61385, Note_on_c, 1, 55, 0
3, 61385, Note_on_c, 1, 50, 0
3, 61440, Note_on_c, 1, 52, 84
3, 61440, Note_on_c, 1, 57, 84
3, 61440, Note_on_c, 1, 60, 93
3, 61625, Note_on_c, 1, 60, 0
3, 61625, Note_on_c, 1, 57, 0
3, 61625, Note_on_c, 1, 52, 0
3, 61680, Note_on_c, 1, 52, 84
3, 61680, Note_on_c, 1, 57, 84
3, 61680, Note_on_c, 1, 60, 93
3, 61745, Note_on_c, 1, 60, 0
3, 61745, Note_on_c, 1, 57, 0
3, 61745, Note_on_c, 1, 52, 0
3, 61800, Note_on_c, 1, 52, 84
3, 61800, Note_on_c, 1, 57, 84
3, 61800, Note_on_c, 1, 60, 93
3, 61865, Note_on_c, 1, 60, 0
3, 61865, Note_on_c, 1, 57, 0
3, 61865, Note_on_c, 1, 52, 0
3, 61920, Note_on_c, 1, 52, 84
3, 61920, Note_on_c, 1, 57, 84
3, 61920, Note_on_c, 1, 60, 93
3, 62345, Note_on_c, 1, 60, 0
3, 62345, Note_on_c, 1, 57, 0
3, 62345, Note_on_c, 1, 52, 0
3, 62400, Note_on_c, 1, 52, 84
3, 62400, Note_on_c, 1, 57, 84
3, 62400, Note_on_c, 1, 60, 93
3, 62585, Note_on_c, 1, 60, 0
3, 62585, Note_on_c, 1, 57, 0
3, 62585, Note_on_c, 1, 52, 0
3, 62640, Note_on_c, 1, 52, 84
3, 62640, Note_on_c, 1, 57, 84
3, 62640, Note_on_c, 1, 60, 93
3, 62825, Note_on_c, 1, 60, 0
3, 62825, Note_on_c, 1, 57, 0
3, 62825, Note_on_c, 1, 52, 0
3, 62880, Note_on_c, 1, 52, 84
3, 62880, Note_on_c, 1, 57, 84
3, 62880, Note_on_c, 1, 60, 93
3, 63305, Note_on_c, 1, 60, 0
3, 63305, Note_on_c, 1, 57, 0
3, 63305, Note_on_c, 1, 52, 0
3, 63360, Note_on_c, 1, 55, 84
3, 63360, Note_on_c, 1, 60, 93
3, 63360, Note_on_c, 1, 64, 93
3, 63545, Note_on_c, 1, 64, 0
3, 63545, Note_on_c, 1, 60, 0
3, 63545, Note_on_c, 1, 55, 0
3, 63600, Note_on_c, 1, 55, 84
3, 63600, Note_on_c, 1, 60, 93
3, 63600, Note_on_c, 1, 64, 93
3, 63665, Note_on_c, 1, 64, 0
3, 63665, Note_on_c, 1, 60, 0
3, 63665, Note_on_c, 1, 55, 0
3, 63720, Note_on_c, 1, 55, 84
3, 63720, Note_on_c, 1, 60, 93
3, 63720, Note_on_c, 1, 64, 93
3, 63785, Note_on_c, 1, 64, 0
3, 63785, Note_on_c, 1, 60, 0
3, 63785, Note_on_c, 1, 55, 0
3, 63840, Note_on_c, 1, 55, 84
3, 63840, Note_on_c, 1, 60, 93
3, 63840, Note_on_c, 1, 64, 93
3, 64265, Note_on_c, 1, 64, 0
3, 64265, Note_on_c, 1, 60, 0
3, 64265, Note_on_c, 1, 55, 0
3, 64320, Note_on_c, 1, 55, 84
3, 64320, Note_on_c, 1, 58, 84
3, 64320, Note_on_c, 1, 62, 93
3, 64505, Note_on_c, 1, 62, 0
3, 64505, Note_on_c, 1, 58, 0
3, 64505, Note_on_c, 1, 55, 0
3, 64560, Note_on_c, 1, 55, 84
3, 64560, Note_on_c, 1, 58, 84
3, 64560, Note_on_c, 1, 62, 93
3, 64745, Note_on_c, 1, 62, 0
3, 64745, Note_on_c, 1, 58, 0
3, 64745, Note_on_c, 1, 55, 0
3, 64800, Note_on_c, 1, 55, 84
3, 64800, Note_on_c, 1, 58, 84
3, 64800, Note_on_c, 1, 62, 93
3, 64985, Note_on_c, 1, 58, 0
3, 65225, Note_on_c, 1, 62, 0
3, 65225, Note_on_c, 1, 55, 0
3, 65280, Note_on_c, 1, 55, 84
3, 65280, Note_on_c, 1, 60, 93
3, 65280, Note_on_c, 1, 64, 93
3, 65465, Note_on_c, 1, 64, 0
3, 65465, Note_on_c, 1, 60, 0
3, 65465, Note_on_c, 1, 55, 0
3, 65520, Note_on_c, 1, 55, 84
3, 65520, Note_on_c, 1, 60, 93
3, 65520, Note_on_c, 1, 64, 93
3, 65585, Note_on_c, 1, 64, 0
3, 65585, Note_on_c, 1, 60, 0
3, 65585, Note_on_c, 1, 55, 0
3, 65640, Note_on_c, 1, 55, 84
3, 65640, Note_on_c, 1, 60, 93
3, 65640, Note_on_c, 1, 64, 93
3, 65705, Note_on_c, 1, 64, 0
3, 65705, Note_on_c, 1, 60, 0
3, 65705, Note_on_c, 1, 55, 0
3, 65760, Note_on_c, 1, 55, 84
3, 65760, Note_on_c, 1, 60, 93
3, 65760, Note_on_c, 1, 64, 93
3, 66185, Note_on_c, 1, 64, 0
3, 66185, Note_on_c, 1, 60, 0
3, 66185, Note_on_c, 1, 55, 0
3, 66240, Note_on_c, 1, 55, 84
3, 66240, Note_on_c, 1, 58, 84
3, 66240, Note_on_c, 1, 62, 93
3, 66425, Note_on_c, 1, 62, 0
3, 66425, Note_on_c, 1, 58, 0
3, 66425, Note_on_c, 1, 55, 0
3, 66480, Note_on_c, 1, 55, 84
3, 66480, Note_on_c, 1, 58, 84
3, 66480, Note_on_c, 1, 62, 93
3, 66665, Note_on_c, 1, 62, 0
3, 66665, Note_on_c, 1, 58, 0
3, 66665, Note_on_c, 1, 55, 0
3, 66720, Note_on_c, 1, 55, 84
3, 66720, Note_on_c, 1, 58, 84
3, 66720, Note_on_c, 1, 62, 93
3, 66905, Note_on_c, 1, 58, 0
3, 67145, Note_on_c, 1, 62, 0
3, 67145, Note_on_c, 1, 55, 0
3, 67200, Note_on_c, 1, 55, 84
3, 67200, Note_on_c, 1, 60, 93
3, 67200, Note_on_c, 1, 64, 93
3, 67385, Note_on_c, 1, 64, 0
3, 67385, Note_on_c, 1, 60, 0
3, 67385, Note_on_c, 1, 55, 0
3, 67440, Note_on_c, 1, 55, 84
3, 67440, Note_on_c, 1, 60, 93
3, 67440, Note_on_c, 1, 64, 93
3, 67505, Note_on_c, 1, 64, 0
3, 67505, Note_on_c, 1, 60, 0
3, 67505, Note_on_c, 1, 55, 0
3, 67560, Note_on_c, 1, 55, 84
3, 67560, Note_on_c, 1, 60, 93
3, 67560, Note_on_c, 1, 64, 93
3, 67625, Note_on_c, 1, 64, 0
3, 67625, Note_on_c, 1, 60, 0
3, 67625, Note_on_c, 1, 55, 0
3, 67680, Note_on_c, 1, 55, 84
3, 67680, Note_on_c, 1, 60, 93
3, 67680, Note_on_c, 1, 64, 93
3, 68105, Note_on_c, 1, 64, 0
3, 68105, Note_on_c, 1, 60, 0
3, 68105, Note_on_c, 1, 55, 0
3, 68160, Note_on_c, 1, 55, 84
3, 68160, Note_on_c, 1, 58, 84
3, 68160, Note_on_c, 1, 62, 93
3, 68345, Note_on_c, 1, 62, 0
3, 68345, Note_on_c, 1, 58, 0
3, 68345, Note_on_c, 1, 55, 0
3, 68400, Note_on_c, 1, 55, 84
3, 68400, Note_on_c, 1, 58, 84
3, 68400, Note_on_c, 1, 62, 93
3, 68585, Note_on_c, 1, 62, 0
3, 68585, Note_on_c, 1, 58, 0
3, 68585, Note_on_c, 1, 55, 0
3, 68640, Note_on_c, 1, 55, 84
3, 68640, Note_on_c, 1, 58, 84
3, 68640, Note_on_c, 1, 62, 93
3, 68825, Note_on_c, 1, 58, 0
3, 69065, Note_on_c, 1, 62, 0
3, 69065, Note_on_c, 1, 55, 0
3, 69120, Note_on_c, 1, 55, 84
3, 69120, Note_on_c, 1, 60, 93
3, 69120, Note_on_c, 1, 64, 93
3, 69305, Note_on_c, 1, 64, 0
3, 69305, Note_on_c, 1, 60, 0
3, 69305, Note_on_c, 1, 55, 0
3, 69360, Note_on_c, 1, 55, 84
3, 69360, Note_on_c, 1, 60, 93
3, 69360, Note_on_c, 1, 64, 93
3, 69425, Note_on_c, 1, 64, 0
3, 69425, Note_on_c, 1, 60, 0
3, 69425, Note_on_c, 1, 55, 0
3, 69480, Note_on_c, 1, 55, 84
3, 69480, Note_on_c, 1, 60, 93
3, 69480, Note_on_c, 1, 64, 93
3, 69545, Note_on_c, 1, 64, 0
3, 69545, Note_on_c, 1, 60, 0
3, 69545, Note_on_c, 1, 55, 0
3, 69600, Note_on_c, 1, 55, 84
3, 69600, Note_on_c, 1, 60, 93
3, 69600, Note_on_c, 1, 64, 93
3, 70025, Note_on_c, 1, 64, 0
3, 70025, Note_on_c, 1, 60, 0
3, 70025, Note_on_c, 1, 55, 0
3, 70080, Note_on_c, 1, 55, 84
3, 70080, Note_on_c, 1, 58, 84
3, 70080, Note_on_c, 1, 62, 93
3, 70265, Note_on_c, 1, 62, 0
3, 70265, Note_on_c, 1, 58, 0
3, 70265, Note_on_c, 1, 55, 0
3, 70320, Note_on_c, 1, 55, 84
3, 70320, Note_on_c, 1, 58, 84
3, 70320, Note_on_c, 1, 62, 93
3, 70505, Note_on_c, 1, 62, 0
3, 70505, Note_on_c, 1, 58, 0
3, 70505, Note_on_c, 1, 55, 0
3, 70560, Note_on_c, 1, 55, 84
3, 70560, Note_on_c, 1, 58, 84
3, 70560, Note_on_c, 1, 62, 93
3, 70745, Note_on_c, 1, 58, 0
3, 70985, Note_on_c, 1, 62, 0
3, 70985, Note_on_c, 1, 55, 0
3, 71040, Note_on_c, 1, 57, 84
3, 71040, Note_on_c, 1, 60, 93
3, 71040, Note_on_c, 1, 64, 93
3, 71225, Note_on_c, 1, 64, 0
3, 71225, Note_on_c, 1, 60, 0
3, 71225, Note_on_c, 1, 57, 0
3, 71280, Note_on_c, 1, 57, 84
3, 71280, Note_on_c, 1, 60, 93
3, 71280, Note_on_c, 1, 64, 93
3, 71345, Note_on_c, 1, 64, 0
3, 71345, Note_on_c, 1, 60, 0
3, 71345, Note_on_c, 1, 57, 0
3, 71400, Note_on_c, 1, 57, 84
3, 71400, Note_on_c, 1, 60, 93
3, 71400, Note_on_c, 1, 64, 93
3, 71465, Note_on_c, 1, 64, 0
3, 71465, Note_on_c, 1, 60, 0
3, 71465, Note_on_c, 1, 57, 0
3, 71520, Note_on_c, 1, 57, 84
3, 71520, Note_on_c, 1, 60, 93
3, 71520, Note_on_c, 1, 64, 93
3, 71945, Note_on_c, 1, 64, 0
3, 71945, Note_on_c, 1, 60, 0
3, 71945, Note_on_c, 1, 57, 0
3, 72000, Note_on_c, 1, 60, 93
3, 72000, Note_on_c, 1, 64, 93
3, 72000, Note_on_c, 1, 69, 93
3, 72185, Note_on_c, 1, 69, 0
3, 72185, Note_on_c, 1, 64, 0
3, 72185, Note_on_c, 1, 60, 0
3, 72240, Note_on_c, 1, 60, 93
3, 72240, Note_on_c, 1, 64, 93
3, 72240, Note_on_c, 1, 69, 93
3, 72665, Note_on_c, 1, 69, 0
3, 72665, Note_on_c, 1, 64, 0
3, 72665, Note_on_c, 1, 60, 0
3, 72720, Note_on_c, 1, 52, 84
3, 72720, Note_on_c, 1, 64, 93
3, 72905, Note_on_c, 1, 64, 0
3, 72905, Note_on_c, 1, 52, 0
3, 72960, Note_on_c, 1, 50, 84
3, 72960, Note_on_c, 1, 57, 84
3, 72960, Note_on_c, 1, 62, 93
3, 72960, Note_on_c, 1, 65, 93
3, 73145, Note_on_c, 1, 65, 0
3, 73145, Note_on_c, 1, 50, 0
3, 73145, Note_on_c, 1, 57, 0
3, 73145, Note_on_c, 1, 62, 0
3, 73200, Note_on_c, 1, 50, 84
3, 73200, Note_on_c, 1, 57, 84
3, 73200, Note_on_c, 1, 62, 93
3, 73200, Note_on_c, 1, 65, 93
3, 73265, Note_on_c, 1, 65, 0
3, 73265, Note_on_c, 1, 50, 0
3, 73265, Note_on_c, 1, 57, 0
3, 73265, Note_on_c, 1, 62, 0
3, 73320, Note_on_c, 1, 50, 84
3, 73320, Note_on_c, 1, 57, 84
3, 73320, Note_on_c, 1, 62, 93
3, 73320, Note_on_c, 1, 65, 93
3, 73385, Note_on_c, 1, 65, 0
3, 73385, Note_on_c, 1, 50, 0
3, 73385, Note_on_c, 1, 57, 0
3, 73385, Note_on_c, 1, 62, 0
3, 73440, Note_on_c, 1, 50, 84
3, 73440, Note_on_c, 1, 57, 84
3, 73440, Note_on_c, 1, 62, 93
3, 73440, Note_on_c, 1, 65, 93
3, 73745, Note_on_c, 1, 57, 0
3, 73745, Note_on_c, 1, 50, 0
3, 73865, Note_on_c, 1, 62, 0
3, 73865, Note_on_c, 1, 65, 0
3, 73920, Note_on_c, 1, 55, 84
3, 73920, Note_on_c, 1, 60, 93
3, 73920, Note_on_c, 1, 64, 93
3, 74105, Note_on_c, 1, 64, 0
3, 74105, Note_on_c, 1, 60, 0
3, 74105, Note_on_c, 1, 55, 0
3, 74160, Note_on_c, 1, 48, 84
3, 74160, Note_on_c, 1, 55, 84
3, 74160, Note_on_c, 1, 60, 93
3, 74160, Note_on_c, 1, 64, 93
3, 74345, Note_on_c, 1, 64, 0
3, 74345, Note_on_c, 1, 48, 0
3, 74345, Note_on_c, 1, 55, 0
3, 74345, Note_on_c, 1, 60, 0
3, 74400, Note_on_c, 1, 48, 84
3, 74400, Note_on_c, 1, 55, 84
3, 74400, Note_on_c, 1, 60, 93
3, 74400, Note_on_c, 1, 64, 93
3, 74760, Note_on_c, 1, 48, 84
3, 74825, Note_on_c, 1, 48, 0
3, 74825, Note_on_c, 1, 60, 0
3, 74825, Note_on_c, 1, 48, 0
3, 74825, Note_on_c, 1, 55, 0
3, 74825, Note_on_c, 1, 64, 0
3, 74880, Note_on_c, 1, 47, 84
3, 74880, Note_on_c, 1, 55, 84
3, 74880, Note_on_c, 1, 59, 84
3, 74880, Note_on_c, 1, 62, 93
3, 75065, Note_on_c, 1, 62, 0
3, 75065, Note_on_c, 1, 47, 0
3, 75065, Note_on_c, 1, 55, 0
3, 75065, Note_on_c, 1, 59, 0
3, 75120, Note_on_c, 1, 47, 84
3, 75120, Note_on_c, 1, 55, 84
3, 75120, Note_on_c, 1, 59, 84
3, 75120, Note_on_c, 1, 62, 93
3, 75185, Note_on_c, 1, 62, 0
3, 75185, Note_on_c, 1, 47, 0
3, 75185, Note_on_c, 1, 55, 0
3, 75185, Note_on_c, 1, 59, 0
3, 75240, Note_on_c, 1, 47, 84
3, 75240, Note_on_c, 1, 55, 84
3, 75240, Note_on_c, 1, 59, 84
3, 75240, Note_on_c, 1, 62, 93
3, 75305, Note_on_c, 1, 62, 0
3, 75305, Note_on_c, 1, 47, 0
3, 75305, Note_on_c, 1, 55, 0
3, 75305, Note_on_c, 1, 59, 0
3, 75360, Note_on_c, 1, 47, 84
3, 75360, Note_on_c, 1, 55, 84
3, 75360, Note_on_c, 1, 59, 84
3, 75360, Note_on_c, 1, 62, 93
3, 75785, Note_on_c, 1, 62, 0
3, 75785, Note_on_c, 1, 47, 0
3, 75785, Note_on_c, 1, 55, 0
3, 75785, Note_on_c, 1, 59, 0
3, 75840, Note_on_c, 1, 43, 84
3, 75840, Note_on_c, 1, 55, 84
3, 75840, Note_on_c, 1, 62, 93
3, 76080, Note_on_c, 1, 57, 84
3, 76145, Note_on_c, 1, 57, 0
3, 76145, Note_on_c, 1, 62, 0
3, 76200, Note_on_c, 1, 60, 93
3, 76200, Note_on_c, 1, 64, 93
3, 76265, Note_on_c, 1, 64, 0
3, 76265, Note_on_c, 1, 43, 0
3, 76265, Note_on_c, 1, 55, 0
3, 76265, Note_on_c, 1, 60, 0
3, 76320, Note_on_c, 1, 59, 84
3, 76320, Note_on_c, 1, 62, 93
3, 76745, Note_on_c, 1, 62, 0
3, 76745, Note_on_c, 1, 59, 0
3, 76800, Note_on_c, 1, 48, 84
3, 76800, Note_on_c, 1, 55, 84
3, 76800, Note_on_c, 1, 60, 93
3, 76800, Note_on_c, 1, 64, 93
3, 76985, Note_on_c, 1, 64, 0
3, 76985, Note_on_c, 1, 48, 0
3, 76985, Note_on_c, 1, 55, 0
3, 76985, Note_on_c, 1, 60, 0
3, 77040, Note_on_c, 1, 48, 84
3, 77040, Note_on_c, 1, 55, 84
3, 77040, Note_on_c, 1, 60, 93
3, 77040, Note_on_c, 1, 64, 93
3, 77105, Note_on_c, 1, 64, 0
3, 77105, Note_on_c, 1, 48, 0
3, 77105, Note_on_c, 1, 55, 0
3, 77105, Note_on_c, 1, 60, 0
3, 77160, Note_on_c, 1, 48, 84
3, 77160, Note_on_c, 1, 55, 84
3, 77160, Note_on_c, 1, 60, 93
3, 77160, Note_on_c, 1, 64, 93
3, 77225, Note_on_c, 1, 64, 0
3, 77225, Note_on_c, 1, 48, 0
3, 77225, Note_on_c, 1, 55, 0
3, 77225, Note_on_c, 1, 60, 0
3, 77280, Note_on_c, 1, 48, 84
3, 77280, Note_on_c, 1, 55, 84
3, 77280, Note_on_c, 1, 60, 93
3, 77280, Note_on_c, 1, 64, 93
3, 77705, Note_on_c, 1, 64, 0
3, 77705, Note_on_c, 1, 48, 0
3, 77705, Note_on_c, 1, 55, 0
3, 77705, Note_on_c, 1, 60, 0
3, 77760, Note_on_c, 1, 55, 84
3, 77760, Note_on_c, 1, 59, 84
3, 77760, Note_on_c, 1, 62, 93
3, 77945, Note_on_c, 1, 62, 0
3, 77945, Note_on_c, 1, 59, 0
3, 77945, Note_on_c, 1, 55, 0
3, 78000, Note_on_c, 1, 55, 84
3, 78000, Note_on_c, 1, 59, 84
3, 78000, Note_on_c, 1, 62, 93
3, 78185, Note_on_c, 1, 62, 0
3, 78185, Note_on_c, 1, 59, 0
3, 78185, Note_on_c, 1, 55, 0
3, 78240, Note_on_c, 1, 47, 84
3, 78240, Note_on_c, 1, 55, 84
3, 78240, Note_on_c, 1, 59, 84
3, 78240, Note_on_c, 1, 62, 93
3, 78665, Note_on_c, 1, 62, 0
3, 78665, Note_on_c, 1, 47, 0
3, 78665, Note_on_c, 1, 55, 0
3, 78665, Note_on_c, 1, 59, 0
3, 78720, Note_on_c, 1, 45, 84
3, 78720, Note_on_c, 1, 52, 84
3, 78720, Note_on_c, 1, 57, 84
3, 78720, Note_on_c, 1, 60, 93
3, 78905, Note_on_c, 1, 60, 0
3, 78905, Note_on_c, 1, 45, 0
3, 78905, Note_on_c, 1, 52, 0
3, 78905, Note_on_c, 1, 57, 0
3, 78960, Note_on_c, 1, 45, 84
3, 78960, Note_on_c, 1, 52, 84
3, 78960, Note_on_c, 1, 57, 84
3, 78960, Note_on_c, 1, 60, 93
3, 79025, Note_on_c, 1, 60, 0
3, 79025, Note_on_c, 1, 45, 0
3, 79025, Note_on_c, 1, 52, 0
3, 79025, Note_on_c, 1, 57, 0
3, 79080, Note_on_c, 1, 45, 84
3, 79080, Note_on_c, 1, 52, 84
3, 79080, Note_on_c, 1, 57, 84
3, 79080, Note_on_c, 1, 60, 93
3, 79145, Note_on_c, 1, 60, 0
3, 79145, Note_on_c, 1, 45, 0
3, 79145, Note_on_c, 1, 52, 0
3, 79145, Note_on_c, 1, 57, 0
3, 79200, Note_on_c, 1, 45, 84
3, 79200, Note_on_c, 1, 52, 84
3, 79200, Note_on_c, 1, 57, 84
3, 79200, Note_on_c, 1, 60, 93
3, 79625, Note_on_c, 1, 60, 0
3, 79625, Note_on_c, 1, 45, 0
3, 79625, Note_on_c, 1, 52, 0
3, 79625, Note_on_c, 1, 57, 0
3, 79680, Note_on_c, 1, 41, 84
3, 79680, Note_on_c, 1, 53, 84
3, 79680, Note_on_c, 1, 57, 84
3, 79680, Note_on_c, 1, 60, 93
3, 79865, Note_on_c, 1, 60, 0
3, 79865, Note_on_c, 1, 41, 0
3, 79865, Note_on_c, 1, 53, 0
3, 79865, Note_on_c, 1, 57, 0
3, 79920, Note_on_c, 1, 41, 84
3, 79920, Note_on_c, 1, 53, 84
3, 79920, Note_on_c, 1, 57, 84
3, 79920, Note_on_c, 1, 60, 93
3, 80105, Note_on_c, 1, 60, 0
3, 80105, Note_on_c, 1, 41, 0
3, 80105, Note_on_c, 1, 53, 0
3, 80105, Note_on_c, 1, 57, 0
3, 80160, Note_on_c, 1, 41, 84
3, 80160, Note_on_c, 1, 53, 84
3, 80160, Note_on_c, 1, 57, 84
3, 80160, Note_on_c, 1, 60, 93
3, 80585, Note_on_c, 1, 60, 0
3, 80585, Note_on_c, 1, 41, 0
3, 80585, Note_on_c, 1, 53, 0
3, 80585, Note_on_c, 1, 57, 0
3, 80640, Note_on_c, 1, 48, 84
3, 80640, Note_on_c, 1, 55, 84
3, 80640, Note_on_c, 1, 60, 93
3, 80640, Note_on_c, 1, 64, 93
3, 80825, Note_on_c, 1, 64, 0
3, 80825, Note_on_c, 1, 48, 0
3, 80825, Note_on_c, 1, 55, 0
3, 80825, Note_on_c, 1, 60, 0
3, 80880, Note_on_c, 1, 48, 84
3, 80880, Note_on_c, 1, 55, 84
3, 80880, Note_on_c, 1, 60, 93
3, 80880, Note_on_c, 1, 64, 93
3, 80945, Note_on_c, 1, 64, 0
3, 80945, Note_on_c, 1, 48, 0
3, 80945, Note_on_c, 1, 55, 0
3, 80945, Note_on_c, 1, 60, 0
3, 81000, Note_on_c, 1, 48, 84
3, 81000, Note_on_c, 1, 55, 84
3, 81000, Note_on_c, 1, 60, 93
3, 81000, Note_on_c, 1, 64, 93
3, 81065, Note_on_c, 1, 64, 0
3, 81065, Note_on_c, 1, 48, 0
3, 81065, Note_on_c, 1, 55, 0
3, 81065, Note_on_c, 1, 60, 0
3, 81120, Note_on_c, 1, 48, 84
3, 81120, Note_on_c, 1, 55, 84
3, 81120, Note_on_c, 1, 60, 93
3, 81120, Note_on_c, 1, 64, 93
3, 81545, Note_on_c, 1, 64, 0
3, 81545, Note_on_c, 1, 48, 0
3, 81545, Note_on_c, 1, 55, 0
3, 81545, Note_on_c, 1, 60, 0
3, 81600, Note_on_c, 1, 55, 84
3, 81600, Note_on_c, 1, 59, 84
3, 81600, Note_on_c, 1, 62, 93
3, 81785, Note_on_c, 1, 62, 0
3, 81785, Note_on_c, 1, 59, 0
3, 81785, Note_on_c, 1, 55, 0
3, 81840, Note_on_c, 1, 55, 84
3, 81840, Note_on_c, 1, 59, 84
3, 81840, Note_on_c, 1, 62, 93
3, 82025, Note_on_c, 1, 62, 0
3, 82025, Note_on_c, 1, 59, 0
3, 82025, Note_on_c, 1, 55, 0
3, 82080, Note_on_c, 1, 55, 84
3, 82080, Note_on_c, 1, 59, 84
3, 82080, Note_on_c, 1, 62, 93
3, 82265, Note_on_c, 1, 59, 0
3, 82505, Note_on_c, 1, 62, 0
3, 82505, Note_on_c, 1, 55, 0
3, 82560, Note_on_c, 1, 55, 84
3, 82560, Note_on_c, 1, 60, 93
3, 82560, Note_on_c, 1, 64, 93
3, 82745, Note_on_c, 1, 64, 0
3, 82745, Note_on_c, 1, 60, 0
3, 82745, Note_on_c, 1, 55, 0
3, 82800, Note_on_c, 1, 55, 84
3, 82800, Note_on_c, 1, 60, 93
3, 82800, Note_on_c, 1, 64, 93
3, 82865, Note_on_c, 1, 64, 0
3, 82865, Note_on_c, 1, 60, 0
3, 82865, Note_on_c, 1, 55, 0
3, 82920, Note_on_c, 1, 55, 84
3, 82920, Note_on_c, 1, 60, 93
3, 82920, Note_on_c, 1, 64, 93
3, 82985, Note_on_c, 1, 64, 0
3, 82985, Note_on_c, 1, 60, 0
3, 82985, Note_on_c, 1, 55, 0
3, 83040, Note_on_c, 1, 55, 84
3, 83040, Note_on_c, 1, 60, 93
3, 83040, Note_on_c, 1, 64, 93
3, 83465, Note_on_c, 1, 64, 0
3, 83465, Note_on_c, 1, 60, 0
3, 83465, Note_on_c, 1, 55, 0
3, 83520, Note_on_c, 1, 55, 84
3, 83520, Note_on_c, 1, 58, 84
3, 83520, Note_on_c, 1, 62, 93
3, 83705, Note_on_c, 1, 62, 0
3, 83705, Note_on_c, 1, 58, 0
3, 83705, Note_on_c, 1, 55, 0
3, 83760, Note_on_c, 1, 55, 84
3, 83760, Note_on_c, 1, 58, 84
3, 83760, Note_on_c, 1, 62, 93
3, 83945, Note_on_c, 1, 62, 0
3, 83945, Note_on_c, 1, 58, 0
3, 83945, Note_on_c, 1, 55, 0
3, 84000, Note_on_c, 1, 55, 84
3, 84000, Note_on_c, 1, 58, 84
3, 84000, Note_on_c, 1, 62, 93
3, 84185, Note_on_c, 1, 58, 0
3, 84425, Note_on_c, 1, 62, 0
3, 84425, Note_on_c, 1, 55, 0
3, 84480, Note_on_c, 1, 55, 84
3, 84480, Note_on_c, 1, 60, 93
3, 84480, Note_on_c, 1, 64, 93
3, 84665, Note_on_c, 1, 64, 0
3, 84665, Note_on_c, 1, 60, 0
3, 84665, Note_on_c, 1, 55, 0
3, 84720, Note_on_c, 1, 55, 84
3, 84720, Note_on_c, 1, 60, 93
3, 84720, Note_on_c, 1, 64, 93
3, 84785, Note_on_c, 1, 64, 0
3, 84785, Note_on_c, 1, 60, 0
3, 84785, Note_on_c, 1, 55, 0
3, 84840, Note_on_c, 1, 55, 84
3, 84840, Note_on_c, 1, 60, 93
3, 84840, Note_on_c, 1, 64, 93
3, 84905, Note_on_c, 1, 64, 0
3, 84905, Note_on_c, 1, 60, 0
3, 84905, Note_on_c, 1, 55, 0
3, 84960, Note_on_c, 1, 55, 84
3, 84960, Note_on_c, 1, 60, 93
3, 84960, Note_on_c, 1, 64, 93
3, 85385, Note_on_c, 1, 64, 0
3, 85385, Note_on_c, 1, 60, 0
3, 85385, Note_on_c, 1, 55, 0
3, 85440, Note_on_c, 1, 55, 84
3, 85440, Note_on_c, 1, 58, 84
3, 85440, Note_on_c, 1, 62, 93
3, 85625, Note_on_c, 1, 62, 0
3, 85625, Note_on_c, 1, 58, 0
3, 85625, Note_on_c, 1, 55, 0
3, 85680, Note_on_c, 1, 55, 84
3, 85680, Note_on_c, 1, 58, 84
3, 85680, Note_on_c, 1, 62, 93
3, 85865, Note_on_c, 1, 62, 0
3, 85865, Note_on_c, 1, 58, 0
3, 85865, Note_on_c, 1, 55, 0
3, 85920, Note_on_c, 1, 55, 84
3, 85920, Note_on_c, 1, 58, 84
3, 85920, Note_on_c, 1, 62, 93
3, 86105, Note_on_c, 1, 58, 0
3, 86345, Note_on_c, 1, 62, 0
3, 86345, Note_on_c, 1, 55, 0
3, 86400, Note_on_c, 1, 55, 84
3, 86400, Note_on_c, 1, 60, 93
3, 86400, Note_on_c, 1, 64, 93
3, 86585, Note_on_c, 1, 64, 0
3, 86585, Note_on_c, 1, 60, 0
3, 86585, Note_on_c, 1, 55, 0
3, 86640, Note_on_c, 1, 55, 84
3, 86640, Note_on_c, 1, 60, 93
3, 86640, Note_on_c, 1, 64, 93
3, 86705, Note_on_c, 1, 64, 0
3, 86705, Note_on_c, 1, 60, 0
3, 86705, Note_on_c, 1, 55, 0
3, 86760, Note_on_c, 1, 55, 84
3, 86760, Note_on_c, 1, 60, 93
3, 86760, Note_on_c, 1, 64, 93
3, 86825, Note_on_c, 1, 64, 0
3, 86825, Note_on_c, 1, 60, 0
3, 86825, Note_on_c, 1, 55, 0
3, 86880, Note_on_c, 1, 55, 84
3, 86880, Note_on_c, 1, 60, 93
3, 86880, Note_on_c, 1, 64, 93
3, 87305, Note_on_c, 1, 64, 0
3, 87305, Note_on_c, 1, 60, 0
3, 87305, Note_on_c, 1, 55, 0
3, 87360, Note_on_c, 1, 55, 84
3, 87360, Note_on_c, 1, 59, 84
3, 87360, Note_on_c, 1, 62, 93
3, 87545, Note_on_c, 1, 62, 0
3, 87545, Note_on_c, 1, 59, 0
3, 87545, Note_on_c, 1, 55, 0
3, 87600, Note_on_c, 1, 55, 84
3, 87600, Note_on_c, 1, 59, 84
3, 87600, Note_on_c, 1, 62, 93
3, 87785, Note_on_c, 1, 62, 0
3, 87785, Note_on_c, 1, 59, 0
3, 87785, Note_on_c, 1, 55, 0
3, 87840, Note_on_c, 1, 55, 84
3, 87840, Note_on_c, 1, 59, 84
3, 87840, Note_on_c, 1, 62, 93
3, 88025, Note_on_c, 1, 59, 0
3, 88265, Note_on_c, 1, 62, 0
3, 88265, Note_on_c, 1, 55, 0
3, 88320, Note_on_c, 1, 57, 84
3, 88320, Note_on_c, 1, 60, 93
3, 88320, Note_on_c, 1, 64, 93
3, 88505, Note_on_c, 1, 64, 0
3, 88505, Note_on_c, 1, 60, 0
3, 88505, Note_on_c, 1, 57, 0
3, 88560, Note_on_c, 1, 57, 84
3, 88560, Note_on_c, 1, 60, 93
3, 88560, Note_on_c, 1, 64, 93
3, 88625, Note_on_c, 1, 64, 0
3, 88625, Note_on_c, 1, 60, 0
3, 88625, Note_on_c, 1, 57, 0
3, 88680, Note_on_c, 1, 57, 84
3, 88680, Note_on_c, 1, 60, 93
3, 88680, Note_on_c, 1, 64, 93
3, 88745, Note_on_c, 1, 64, 0
3, 88745, Note_on_c, 1, 60, 0
3, 88745, Note_on_c, 1, 57, 0
3, 88800, Note_on_c, 1, 57, 84
3, 88800, Note_on_c, 1, 60, 93
3, 88800, Note_on_c, 1, 64, 93
3, 89225, Note_on_c, 1, 64, 0
3, 89225, Note_on_c, 1, 60, 0
3, 89225, Note_on_c, 1, 57, 0
3, 89280, Note_on_c, 1, 60, 93
3, 89280, Note_on_c, 1, 64, 93
3, 89280, Note_on_c, 1, 69, 93
3, 89465, Note_on_c, 1, 69, 0
3, 89465, Note_on_c, 1, 64, 0
3, 89465, Note_on_c, 1, 60, 0
3, 89520, Note_on_c, 1, 60, 93
3, 89520, Note_on_c, 1, 64, 93
3, 89520, Note_on_c, 1, 69, 93
3, 89945, Note_on_c, 1, 69, 0
3, 89945, Note_on_c, 1, 64, 0
3, 89945, Note_on_c, 1, 60, 0
3, 90000, Note_on_c, 1, 52, 84
3, 90000, Note_on_c, 1, 67, 93
3, 90120, Note_on_c, 1, 40, 84
3, 90185, Note_on_c, 1, 40, 0
3, 90185, Note_on_c, 1, 67, 0
3, 90185, Note_on_c, 1, 52, 0
3, 90240, Note_on_c, 1, 50, 84
3, 90240, Note_on_c, 1, 57, 84
3, 90240, Note_on_c, 1, 62, 93
3, 90240, Note_on_c, 1, 65, 93
3, 90425, Note_on_c, 1, 65, 0
3, 90425, Note_on_c, 1, 50, 0
3, 90425, Note_on_c, 1, 57, 0
3, 90425, Note_on_c, 1, 62, 0
3, 90480, Note_on_c, 1, 50, 84
3, 90480, Note_on_c, 1, 57, 84
3, 90480, Note_on_c, 1, 62, 93
3, 90480, Note_on_c, 1, 65, 93
3, 90545, Note_on_c, 1, 65, 0
3, 90545, Note_on_c, 1, 50, 0
3, 90545, Note_on_c, 1, 57, 0
3, 90545, Note_on_c, 1, 62, 0
3, 90600, Note_on_c, 1, 50, 84
3, 90600, Note_on_c, 1, 57, 84
3, 90600, Note_on_c, 1, 62, 93
3, 90600, Note_on_c, 1, 65, 93
3, 90665, Note_on_c, 1, 65, 0
3, 90665, Note_on_c, 1, 50, 0
3, 90665, Note_on_c, 1, 57, 0
3, 90665, Note_on_c, 1, 62, 0
3, 90720, Note_on_c, 1, 50, 84
3, 90720, Note_on_c, 1, 57, 84
3, 90720, Note_on_c, 1, 62, 93
3, 90720, Note_on_c, 1, 65, 93
3, 91025, Note_on_c, 1, 57, 0
3, 91025, Note_on_c, 1, 50, 0
3, 91145, Note_on_c, 1, 62, 0
3, 91145, Note_on_c, 1, 65, 0
3, 91200, Note_on_c, 1, 55, 84
3, 91200, Note_on_c, 1, 60, 93
3, 91200, Note_on_c, 1, 64, 93
3, 91385, Note_on_c, 1, 64, 0
3, 91385, Note_on_c, 1, 60, 0
3, 91385, Note_on_c, 1, 55, 0
3, 91440, Note_on_c, 1, 48, 84
3, 91440, Note_on_c, 1, 55, 84
3, 91440, Note_on_c, 1, 60, 93
3, 91440, Note_on_c, 1, 64, 93
3, 91625, Note_on_c, 1, 64, 0
3, 91625, Note_on_c, 1, 48, 0
3, 91625, Note_on_c, 1, 55, 0
3, 91625, Note_on_c, 1, 60, 0
3, 91680, Note_on_c, 1, 48, 84
3, 91680, Note_on_c, 1, 55, 84
3, 91680, Note_on_c, 1, 60, 93
3, 91680, Note_on_c, 1, 64, 93
3, 92040, Note_on_c, 1, 48, 84
3, 92105, Note_on_c, 1, 48, 0
3, 92105, Note_on_c, 1, 60, 0
3, 92105, Note_on_c, 1, 48, 0
3, 92105, Note_on_c, 1, 55, 0
3, 92105, Note_on_c, 1, 64, 0
3, 92160, Note_on_c, 1, 47, 84
3, 92160, Note_on_c, 1, 55, 84
3, 92160, Note_on_c, 1, 59, 84
3, 92160, Note_on_c, 1, 62, 93
3, 92345, Note_on_c, 1, 62, 0
3, 92345, Note_on_c, 1, 47, 0
3, 92345, Note_on_c, 1, 55, 0
3, 92345, Note_on_c, 1, 59, 0
3, 92400, Note_on_c, 1, 47, 84
3, 92400, Note_on_c, 1, 55, 84
3, 92400, Note_on_c, 1, 59, 84
3, 92400, Note_on_c, 1, 62, 93
3, 92465, Note_on_c, 1, 62, 0
3, 92465, Note_on_c, 1, 47, 0
3, 92465, Note_on_c, 1, 55, 0
3, 92465, Note_on_c, 1, 59, 0
3, 92520, Note_on_c, 1, 47, 84
3, 92520, Note_on_c, 1, 55, 84
3, 92520, Note_on_c, 1, 59, 84
3, 92520, Note_on_c, 1, 62, 93
3, 92585, Note_on_c, 1, 62, 0
3, 92585, Note_on_c, 1, 47, 0
3, 92585, Note_on_c, 1, 55, 0
3, 92585, Note_on_c, 1, 59, 0
3, 92640, Note_on_c, 1, 47, 84
3, 92640, Note_on_c, 1, 55, 84
3, 92640, Note_on_c, 1, 59, 84
3, 92640, Note_on_c, 1, 62, 93
3, 93065, Note_on_c, 1, 62, 0
3, 93065, Note_on_c, 1, 47, 0
3, 93065, Note_on_c, 1, 55, 0
3, 93065, Note_on_c, 1, 59, 0
3, 93120, Note_on_c, 1, 43, 84
3, 93120, Note_on_c, 1, 55, 84
3, 93120, Note_on_c, 1, 62, 93
3, 93360, Note_on_c, 1, 57, 84
3, 93425, Note_on_c, 1, 57, 0
3, 93425, Note_on_c, 1, 62, 0
3, 93480, Note_on_c, 1, 60, 93
3, 93480, Note_on_c, 1, 64, 93
3, 93545, Note_on_c, 1, 64, 0
3, 93545, Note_on_c, 1, 43, 0
3, 93545, Note_on_c, 1, 55, 0
3, 93545, Note_on_c, 1, 60, 0
3, 93600, Note_on_c, 1, 59, 84
3, 93600, Note_on_c, 1, 62, 93
3, 94025, Note_on_c, 1, 62, 0
3, 94025, Note_on_c, 1, 59, 0
3, 94080, Note_on_c, 1, 48, 84
3, 94080, Note_on_c, 1, 55, 84
3, 94080, Note_on_c, 1, 60, 93
3, 94080, Note_on_c, 1, 64, 93
3, 94265, Note_on_c, 1, 64, 0
3, 94265, Note_on_c, 1, 48, 0
3, 94265, Note_on_c, 1, 55, 0
3, 94265, Note_on_c, 1, 60, 0
3, 94320, Note_on_c, 1, 48, 84
3, 94320, Note_on_c, 1, 55, 84
3, 94320, Note_on_c, 1, 60, 93
3, 94320, Note_on_c, 1, 64, 93
3, 94385, Note_on_c, 1, 64, 0
3, 94385, Note_on_c, 1, 48, 0
3, 94385, Note_on_c, 1, 55, 0
3, 94385, Note_on_c, 1, 60, 0
3, 94440, Note_on_c, 1, 48, 84
3, 94440, Note_on_c, 1, 55, 84
3, 94440, Note_on_c, 1, 60, 93
3, 94440, Note_on_c, 1, 64, 93
3, 94505, Note_on_c, 1, 64, 0
3, 94505, Note_on_c, 1, 48, 0
3, 94505, Note_on_c, 1, 55, 0
3, 94505, Note_on_c, 1, 60, 0
3, 94560, Note_on_c, 1, 48, 84
3, 94560, Note_on_c, 1, 55, 84
3, 94560, Note_on_c, 1, 60, 93
3, 94560, Note_on_c, 1, 64, 93
3, 94985, Note_on_c, 1, 64, 0
3, 94985, Note_on_c, 1, 48, 0
3, 94985, Note_on_c, 1, 55, 0
3, 94985, Note_on_c, 1, 60, 0
3, 95040, Note_on_c, 1, 55, 84
3, 95040, Note_on_c, 1, 59, 84
3, 95040, Note_on_c, 1, 62, 93
3, 95225, Note_on_c, 1, 62, 0
3, 95225, Note_on_c, 1, 59, 0
3, 95225, Note_on_c, 1, 55, 0
3, 95280, Note_on_c, 1, 55, 84
3, 95280, Note_on_c, 1, 59, 84
3, 95280, Note_on_c, 1, 62, 93
3, 95465, Note_on_c, 1, 62, 0
3, 95465, Note_on_c, 1, 59, 0
3, 95465, Note_on_c, 1, 55, 0
3, 95520, Note_on_c, 1, 47, 84
3, 95520, Note_on_c, 1, 55, 84
3, 95520, Note_on_c, 1, 59, 84
3, 95520, Note_on_c, 1, 62, 93
3, 95945, Note_on_c, 1, 62, 0
3, 95945, Note_on_c, 1, 47, 0
3, 95945, Note_on_c, 1, 55, 0
3, 95945, Note_on_c, 1, 59, 0
3, 96000, Note_on_c, 1, 45, 84
3, 96000, Note_on_c, 1, 52, 84
3, 96000, Note_on_c, 1, 57, 84
3, 96000, Note_on_c, 1, 60, 93
3, 96185, Note_on_c, 1, 60, 0
3, 96185, Note_on_c, 1, 45, 0
3, 96185, Note_on_c, 1, 52, 0
3, 96185, Note_on_c, 1, 57, 0
3, 96240, Note_on_c, 1, 45, 84
3, 96240, Note_on_c, 1, 52, 84
3, 96240, Note_on_c, 1, 57, 84
3, 96240, Note_on_c, 1, 60, 93
3, 96305, Note_on_c, 1, 60, 0
3, 96305, Note_on_c, 1, 45, 0
3, 96305, Note_on_c, 1, 52, 0
3, 96305, Note_on_c, 1, 57, 0
3, 96360, Note_on_c, 1, 45, 84
3, 96360, Note_on_c, 1, 52, 84
3, 96360, Note_on_c, 1, 57, 84
3, 96360, Note_on_c, 1, 60, 93
3, 96425, Note_on_c, 1, 60, 0
3, 96425, Note_on_c, 1, 45, 0
3, 96425, Note_on_c, 1, 52, 0
3, 96425, Note_on_c, 1, 57, 0
3, 96480, Note_on_c, 1, 45, 84
3, 96480, Note_on_c, 1, 52, 84
3, 96480, Note_on_c, 1, 57, 84
3, 96480, Note_on_c, 1, 60, 93
3, 96905, Note_on_c, 1, 60, 0
3, 96905, Note_on_c, 1, 45, 0
3, 96905, Note_on_c, 1, 52, 0
3, 96905, Note_on_c, 1, 57, 0
3, 96960, Note_on_c, 1, 41, 84
3, 96960, Note_on_c, 1, 53, 84
3, 96960, Note_on_c, 1, 57, 84
3, 96960, Note_on_c, 1, 60, 93
3, 97145, Note_on_c, 1, 60, 0
3, 97145, Note_on_c, 1, 41, 0
3, 97145, Note_on_c, 1, 53, 0
3, 97145, Note_on_c, 1, 57, 0
3, 97200, Note_on_c, 1, 41, 84
3, 97200, Note_on_c, 1, 53, 84
3, 97200, Note_on_c, 1, 57, 84
3, 97200, Note_on_c, 1, 60, 93
3, 97385, Note_on_c, 1, 60, 0
3, 97385, Note_on_c, 1, 41, 0
3, 97385, Note_on_c, 1, 53, 0
3, 97385, Note_on_c, 1, 57, 0
3, 97440, Note_on_c, 1, 41, 84
3, 97440, Note_on_c, 1, 53, 84
3, 97440, Note_on_c, 1, 57, 84
3, 97440, Note_on_c, 1, 60, 93
3, 97865, Note_on_c, 1, 60, 0
3, 97865, Note_on_c, 1, 41, 0
3, 97865, Note_on_c, 1, 53, 0
3, 97865, Note_on_c, 1, 57, 0
3, 97920, Note_on_c, 1, 48, 84
3, 97920, Note_on_c, 1, 55, 84
3, 97920, Note_on_c, 1, 60, 93
3, 97920, Note_on_c, 1, 64, 93
3, 98105, Note_on_c, 1, 64, 0
3, 98105, Note_on_c, 1, 48, 0
3, 98105, Note_on_c, 1, 55, 0
3, 98105, Note_on_c, 1, 60, 0
3, 98160, Note_on_c, 1, 48, 84
3, 98160, Note_on_c, 1, 55, 84
3, 98160, Note_on_c, 1, 60, 93
3, 98160, Note_on_c, 1, 64, 93
3, 98225, Note_on_c, 1, 64, 0
3, 98225, Note_on_c, 1, 48, 0
3, 98225, Note_on_c, 1, 55, 0
3, 98225, Note_on_c, 1, 60, 0
3, 98280, Note_on_c, 1, 48, 84
3, 98280, Note_on_c, 1, 55, 84
3, 98280, Note_on_c, 1, 60, 93
3, 98280, Note_on_c, 1, 64, 93
3, 98345, Note_on_c, 1, 64, 0
3, 98345, Note_on_c, 1, 48, 0
3, 98345, Note_on_c, 1, 55, 0
3, 98345, Note_on_c, 1, 60, 0
3, 98400, Note_on_c, 1, 48, 84
3, 98400, Note_on_c, 1, 55, 84
3, 98400, Note_on_c, 1, 60, 93
3, 98400, Note_on_c, 1, 64, 93
3, 98825, Note_on_c, 1, 64, 0
3, 98825, Note_on_c, 1, 48, 0
3, 98825, Note_on_c, 1, 55, 0
3, 98825, Note_on_c, 1, 60, 0
3, 98880, Note_on_c, 1, 55, 84
3, 98880, Note_on_c, 1, 59, 84
3, 98880, Note_on_c, 1, 62, 93
3, 99065, Note_on_c, 1, 62, 0
3, 99065, Note_on_c, 1, 59, 0
3, 99065, Note_on_c, 1, 55, 0
3, 99120, Note_on_c, 1, 55, 84
3, 99120, Note_on_c, 1, 59, 84
3, 99120, Note_on_c, 1, 62, 93
3, 99305, Note_on_c, 1, 62, 0
3, 99305, Note_on_c, 1, 59, 0
3, 99305, Note_on_c, 1, 55, 0
3, 99360, Note_on_c, 1, 55, 84
3, 99360, Note_on_c, 1, 59, 84
3, 99360, Note_on_c, 1, 62, 93
3, 99545, Note_on_c, 1, 59, 0
3, 99785, Note_on_c, 1, 62, 0
3, 99785, Note_on_c, 1, 55, 0
3, 99840, Note_on_c, 1, 55, 84
3, 99840, Note_on_c, 1, 60, 93
3, 99840, Note_on_c, 1, 64, 93
3, 100025, Note_on_c, 1, 64, 0
3, 100025, Note_on_c, 1, 60, 0
3, 100025, Note_on_c, 1, 55, 0
3, 100080, Note_on_c, 1, 55, 84
3, 100080, Note_on_c, 1, 60, 93
3, 100080, Note_on_c, 1, 64, 93
3, 100145, Note_on_c, 1, 64, 0
3, 100145, Note_on_c, 1, 60, 0
3, 100145, Note_on_c, 1, 55, 0
3, 100200, Note_on_c, 1, 55, 84
3, 100200, Note_on_c, 1, 60, 93
3, 100200, Note_on_c, 1, 64, 93
3, 100265, Note_on_c, 1, 64, 0
3, 100265, Note_on_c, 1, 60, 0
3, 100265, Note_on_c, 1, 55, 0
3, 100320, Note_on_c, 1, 55, 84
3, 100320, Note_on_c, 1, 60, 93
3, 100320, Note_on_c, 1, 64, 93
3, 100745, Note_on_c, 1, 64, 0
3, 100745, Note_on_c, 1, 60, 0
3, 100745, Note_on_c, 1, 55, 0
3, 100800, Note_on_c, 1, 55, 84
3, 100800, Note_on_c, 1, 58, 84
3, 100800, Note_on_c, 1, 62, 93
3, 100985, Note_on_c, 1, 62, 0
3, 100985, Note_on_c, 1, 58, 0
3, 100985, Note_on_c, 1, 55, 0
3, 101040, Note_on_c, 1, 55, 84
3, 101040, Note_on_c, 1, 58, 84
3, 101040, Note_on_c, 1, 62, 93
3, 101225, Note_on_c, 1, 62, 0
3, 101225, Note_on_c, 1, 58, 0
3, 101225, Note_on_c, 1, 55, 0
3, 101280, Note_on_c, 1, 55, 84
3, 101280, Note_on_c, 1, 58, 84
3, 101280, Note_on_c, 1, 62, 93
3, 101465, Note_on_c, 1, 58, 0
3, 101705, Note_on_c, 1, 62, 0
3, 101705, Note_on_c, 1, 55, 0
3, 101760, Note_on_c, 1, 55, 84
3, 101760, Note_on_c, 1, 60, 93
3, 101760, Note_on_c, 1, 64, 93
3, 101945, Note_on_c, 1, 64, 0
3, 101945, Note_on_c, 1, 60, 0
3, 101945, Note_on_c, 1, 55, 0
3, 102000, Note_on_c, 1, 55, 84
3, 102000, Note_on_c, 1, 60, 93
3, 102000, Note_on_c, 1, 64, 93
3, 102065, Note_on_c, 1, 64, 0
3, 102065, Note_on_c, 1, 60, 0
3, 102065, Note_on_c, 1, 55, 0
3, 102120, Note_on_c, 1, 55, 84
3, 102120, Note_on_c, 1, 60, 93
3, 102120, Note_on_c, 1, 64, 93
3, 102185, Note_on_c, 1, 64, 0
3, 102185, Note_on_c, 1, 60, 0
3, 102185, Note_on_c, 1, 55, 0
3, 102240, Note_on_c, 1, 55, 84
3, 102240, Note_on_c, 1, 60, 93
3, 102240, Note_on_c, 1, 64, 93
3, 102665, Note_on_c, 1, 64, 0
3, 102665, Note_on_c, 1, 60, 0
3, 102665, Note_on_c, 1, 55, 0
3, 102720, Note_on_c, 1, 55, 84
3, 102720, Note_on_c, 1, 58, 84
3, 102720, Note_on_c, 1, 62, 93
3, 102905, Note_on_c, 1, 62, 0
3, 102905, Note_on_c, 1, 58, 0
3, 102905, Note_on_c, 1, 55, 0
3, 102960, Note_on_c, 1, 55, 84
3, 102960, Note_on_c, 1, 58, 84
3, 102960, Note_on_c, 1, 62, 93
3, 103145, Note_on_c, 1, 62, 0
3, 103145, Note_on_c, 1, 58, 0
3, 103145, Note_on_c, 1, 55, 0
3, 103200, Note_on_c, 1, 55, 84
3, 103200, Note_on_c, 1, 58, 84
3, 103200, Note_on_c, 1, 62, 93
3, 103385, Note_on_c, 1, 58, 0
3, 103625, Note_on_c, 1, 62, 0
3, 103625, Note_on_c, 1, 55, 0
3, 103680, Note_on_c, 1, 52, 84
3, 103680, Note_on_c, 1, 55, 84
3, 103680, Note_on_c, 1, 60, 93
3, 103865, Note_on_c, 1, 60, 0
3, 103865, Note_on_c, 1, 55, 0
3, 103865, Note_on_c, 1, 52, 0
3, 103920, Note_on_c, 1, 52, 84
3, 103920, Note_on_c, 1, 55, 84
3, 103920, Note_on_c, 1, 60, 93
3, 103985, Note_on_c, 1, 60, 0
3, 103985, Note_on_c, 1, 55, 0
3, 103985, Note_on_c, 1, 52, 0
3, 104040, Note_on_c, 1, 52, 84
3, 104040, Note_on_c, 1, 55, 84
3, 104040, Note_on_c, 1, 60, 93
3, 104105, Note_on_c, 1, 60, 0
3, 104105, Note_on_c, 1, 55, 0
3, 104105, Note_on_c, 1, 52, 0
3, 104160, Note_on_c, 1, 52, 84
3, 104160, Note_on_c, 1, 55, 84
3, 104160, Note_on_c, 1, 60, 93
3, 104585, Note_on_c, 1, 60, 0
3, 104585, Note_on_c, 1, 55, 0
3, 104585, Note_on_c, 1, 52, 0
3, 104640, Note_on_c, 1, 50, 84
3, 104640, Note_on_c, 1, 55, 84
3, 104640, Note_on_c, 1, 59, 84
3, 104825, Note_on_c, 1, 59, 0
3, 104825, Note_on_c, 1, 55, 0
3, 104825, Note_on_c, 1, 50, 0
3, 104880, Note_on_c, 1, 50, 84
3, 104880, Note_on_c, 1, 55, 84
3, 104880, Note_on_c, 1, 59, 84
3, 105065, Note_on_c, 1, 59, 0
3, 105065, Note_on_c, 1, 55, 0
3, 105065, Note_on_c, 1, 50, 0
3, 105120, Note_on_c, 1, 50, 84
3, 105120, Note_on_c, 1, 55, 84
3, 105120, Note_on_c, 1, 59, 84
3, 105305, Note_on_c, 1, 59, 0
3, 105305, Note_on_c, 1, 55, 0
3, 105305, Note_on_c, 1, 50, 0
3, 105360, Note_on_c, 1, 50, 84
3, 105360, Note_on_c, 1, 55, 84
3, 105360, Note_on_c, 1, 59, 84
3, 105545, Note_on_c, 1, 59, 0
3, 105545, Note_on_c, 1, 55, 0
3, 105545, Note_on_c, 1, 50, 0
3, 105600, Note_on_c, 1, 52, 84
3, 105600, Note_on_c, 1, 57, 84
3, 105600, Note_on_c, 1, 60, 93
3, 105785, Note_on_c, 1, 60, 0
3, 105785, Note_on_c, 1, 57, 0
3, 105785, Note_on_c, 1, 52, 0
3, 105840, Note_on_c, 1, 52, 84
3, 105840, Note_on_c, 1, 57, 84
3, 105840, Note_on_c, 1, 60, 93
3, 105905, Note_on_c, 1, 60, 0
3, 105905, Note_on_c, 1, 57, 0
3, 105905, Note_on_c, 1, 52, 0
3, 105960, Note_on_c, 1, 52, 84
3, 105960, Note_on_c, 1, 57, 84
3, 105960, Note_on_c, 1, 60, 93
3, 106025, Note_on_c, 1, 60, 0
3, 106025, Note_on_c, 1, 57, 0
3, 106025, Note_on_c, 1, 52, 0
3, 106080, Note_on_c, 1, 52, 84
3, 106080, Note_on_c, 1, 57, 84
3, 106080, Note_on_c, 1, 60, 93
3, 106505, Note_on_c, 1, 60, 0
3, 106505, Note_on_c, 1, 57, 0
3, 106505, Note_on_c, 1, 52, 0
3, 106560, Note_on_c, 1, 53, 84
3, 106560, Note_on_c, 1, 57, 84
3, 106560, Note_on_c, 1, 60, 93
3, 106745, Note_on_c, 1, 60, 0
3, 106745, Note_on_c, 1, 57, 0
3, 106745, Note_on_c, 1, 53, 0
3, 106800, Note_on_c, 1, 53, 84
3, 106800, Note_on_c, 1, 57, 84
3, 106800, Note_on_c, 1, 60, 93
3, 106985, Note_on_c, 1, 60, 0
3, 106985, Note_on_c, 1, 57, 0
3, 106985, Note_on_c, 1, 53, 0
3, 107040, Note_on_c, 1, 53, 84
3, 107040, Note_on_c, 1, 57, 84
3, 107040, Note_on_c, 1, 60, 93
3, 107465, Note_on_c, 1, 60, 0
3, 107465, Note_on_c, 1, 57, 0
3, 107465, Note_on_c, 1, 53, 0
3, 107520, Note_on_c, 1, 52, 84
3, 107520, Note_on_c, 1, 55, 84
3, 107520, Note_on_c, 1, 60, 93
3, 107705, Note_on_c, 1, 60, 0
3, 107705, Note_on_c, 1, 55, 0
3, 107705, Note_on_c, 1, 52, 0
3, 107760, Note_on_c, 1, 52, 84
3, 107760, Note_on_c, 1, 55, 84
3, 107760, Note_on_c, 1, 60, 93
3, 107825, Note_on_c, 1, 60, 0
3, 107825, Note_on_c, 1, 55, 0
3, 107825, Note_on_c, 1, 52, 0
3, 107880, Note_on_c, 1, 52, 84
3, 107880, Note_on_c, 1, 55, 84
3, 107880, Note_on_c, 1, 60, 93
3, 107945, Note_on_c, 1, 60, 0
3, 107945, Note_on_c, 1, 55, 0
3, 107945, Note_on_c, 1, 52, 0
3, 108000, Note_on_c, 1, 52, 84
3, 108000, Note_on_c, 1, 55, 84
3, 108000, Note_on_c, 1, 60, 93
3, 108425, Note_on_c, 1, 60, 0
3, 108425, Note_on_c, 1, 55, 0
3, 108425, Note_on_c, 1, 52, 0
3, 108480, Note_on_c, 1, 50, 84
3, 108480, Note_on_c, 1, 55, 84
3, 108480, Note_on_c, 1, 59, 84
3, 108665, Note_on_c, 1, 59, 0
3, 108665, Note_on_c, 1, 55, 0
3, 108665, Note_on_c, 1, 50, 0
3, 108720, Note_on_c, 1, 50, 84
3, 108720, Note_on_c, 1, 55, 84
3, 108720, Note_on_c, 1, 59, 84
3, 108905, Note_on_c, 1, 59, 0
3, 108905, Note_on_c, 1, 55, 0
3, 108905, Note_on_c, 1, 50, 0
3, 108960, Note_on_c, 1, 50, 84
3, 108960, Note_on_c, 1, 55, 84
3, 108960, Note_on_c, 1, 59, 84
3, 109145, Note_on_c, 1, 59, 0
3, 109145, Note_on_c, 1, 55, 0
3, 109145, Note_on_c, 1, 50, 0
3, 109200, Note_on_c, 1, 50, 84
3, 109200, Note_on_c, 1, 55, 84
3, 109200, Note_on_c, 1, 59, 84
3, 109385, Note_on_c, 1, 59, 0
3, 109385, Note_on_c, 1, 55, 0
3, 109385, Note_on_c, 1, 50, 0
3, 109440, Note_on_c, 1, 52, 84
3, 109440, Note_on_c, 1, 57, 84
3, 109440, Note_on_c, 1, 60, 93
3, 109625, Note_on_c, 1, 60, 0
3, 109625, Note_on_c, 1, 57, 0
3, 109625, Note_on_c, 1, 52, 0
3, 109680, Note_on_c, 1, 52, 84
3, 109680, Note_on_c, 1, 57, 84
3, 109680, Note_on_c, 1, 60, 93
3, 109745, Note_on_c, 1, 60, 0
3, 109745, Note_on_c, 1, 57, 0
3, 109745, Note_on_c, 1, 52, 0
3, 109800, Note_on_c, 1, 52, 84
3, 109800, Note_on_c, 1, 57, 84
3, 109800, Note_on_c, 1, 60, 93
3, 109865, Note_on_c, 1, 60, 0
3, 109865, Note_on_c, 1, 57, 0
3, 109865, Note_on_c, 1, 52, 0
3, 109920, Note_on_c, 1, 52, 84
3, 109920, Note_on_c, 1, 57, 84
3, 109920, Note_on_c, 1, 60, 93
3, 110345, Note_on_c, 1, 60, 0
3, 110345, Note_on_c, 1, 57, 0
3, 110345, Note_on_c, 1, 52, 0
3, 110400, Note_on_c, 1, 53, 84
3, 110400, Note_on_c, 1, 57, 84
3, 110400, Note_on_c, 1, 60, 93
3, 110585, Note_on_c, 1, 60, 0
3, 110585, Note_on_c, 1, 57, 0
3, 110585, Note_on_c, 1, 53, 0
3, 110640, Note_on_c, 1, 53, 84
3, 110640, Note_on_c, 1, 57, 84
3, 110640, Note_on_c, 1, 60, 93
3, 110825, Note_on_c, 1, 60, 0
3, 110825, Note_on_c, 1, 57, 0
3, 110825, Note_on_c, 1, 53, 0
3, 110880, Note_on_c, 1, 53, 84
3, 110880, Note_on_c, 1, 57, 84
3, 110880, Note_on_c, 1, 60, 93
3, 111305, Note_on_c, 1, 60, 0
3, 111305, Note_on_c, 1, 57, 0
3, 111305, Note_on_c, 1, 53, 0
3, 111360, Note_on_c, 1, 52, 84
3, 111360, Note_on_c, 1, 55, 84
3, 111360, Note_on_c, 1, 60, 93
3, 111545, Note_on_c, 1, 60, 0
3, 111545, Note_on_c, 1, 55, 0
3, 111545, Note_on_c, 1, 52, 0
3, 111600, Note_on_c, 1, 52, 84
3, 111600, Note_on_c, 1, 55, 84
3, 111600, Note_on_c, 1, 60, 93
3, 111665, Note_on_c, 1, 60, 0
3, 111665, Note_on_c, 1, 55, 0
3, 111665, Note_on_c, 1, 52, 0
3, 111720, Note_on_c, 1, 52, 84
3, 111720, Note_on_c, 1, 55, 84
3, 111720, Note_on_c, 1, 60, 93
3, 111785, Note_on_c, 1, 60, 0
3, 111785, Note_on_c, 1, 55, 0
3, 111785, Note_on_c, 1, 52, 0
3, 111840, Note_on_c, 1, 52, 84
3, 111840, Note_on_c, 1, 55, 84
3, 111840, Note_on_c, 1, 60, 93
3, 112265, Note_on_c, 1, 60, 0
3, 112265, Note_on_c, 1, 55, 0
3, 112265, Note_on_c, 1, 52, 0
3, 112320, Note_on_c, 1, 50, 84
3, 112320, Note_on_c, 1, 55, 84
3, 112320, Note_on_c, 1, 59, 84
3, 112505, Note_on_c, 1, 59, 0
3, 112505, Note_on_c, 1, 55, 0
3, 112505, Note_on_c, 1, 50, 0
3, 112560, Note_on_c, 1, 50, 84
3, 112560, Note_on_c, 1, 55, 84
3, 112560, Note_on_c, 1, 59, 84
3, 112745, Note_on_c, 1, 59, 0
3, 112745, Note_on_c, 1, 55, 0
3, 112745, Note_on_c, 1, 50, 0
3, 112800, Note_on_c, 1, 50, 84
3, 112800, Note_on_c, 1, 55, 84
3, 112800, Note_on_c, 1, 59, 84
3, 112985, Note_on_c, 1, 59, 0
3, 112985, Note_on_c, 1, 55, 0
3, 112985, Note_on_c, 1, 50, 0
3, 113040, Note_on_c, 1, 50, 84
3, 113040, Note_on_c, 1, 55, 84
3, 113040, Note_on_c, 1, 59, 84
3, 113225, Note_on_c, 1, 59, 0
3, 113225, Note_on_c, 1, 55, 0
3, 113225, Note_on_c, 1, 50, 0
3, 113280, Note_on_c, 1, 52, 84
3, 113280, Note_on_c, 1, 57, 84
3, 113280, Note_on_c, 1, 60, 93
3, 113465, Note_on_c, 1, 60, 0
3, 113465, Note_on_c, 1, 57, 0
3, 113465, Note_on_c, 1, 52, 0
3, 113520, Note_on_c, 1, 52, 84
3, 113520, Note_on_c, 1, 57, 84
3, 113520, Note_on_c, 1, 60, 93
3, 113585, Note_on_c, 1, 60, 0
3, 113585, Note_on_c, 1, 57, 0
3, 113585, Note_on_c, 1, 52, 0
3, 113640, Note_on_c, 1, 52, 84
3, 113640, Note_on_c, 1, 57, 84
3, 113640, Note_on_c, 1, 60, 93
3, 113705, Note_on_c, 1, 60, 0
3, 113705, Note_on_c, 1, 57, 0
3, 113705, Note_on_c, 1, 52, 0
3, 113760, Note_on_c, 1, 52, 84
3, 113760, Note_on_c, 1, 57, 84
3, 113760, Note_on_c, 1, 60, 93
3, 114185, Note_on_c, 1, 60, 0
3, 114185, Note_on_c, 1, 57, 0
3, 114185, Note_on_c, 1, 52, 0
3, 114240, Note_on_c, 1, 53, 84
3, 114240, Note_on_c, 1, 57, 84
3, 114240, Note_on_c, 1, 60, 93
3, 114425, Note_on_c, 1, 60, 0
3, 114425, Note_on_c, 1, 57, 0
3, 114425, Note_on_c, 1, 53, 0
3, 114480, Note_on_c, 1, 53, 84
3, 114480, Note_on_c, 1, 57, 84
3, 114480, Note_on_c, 1, 60, 93
3, 114665, Note_on_c, 1, 60, 0
3, 114665, Note_on_c, 1, 57, 0
3, 114665, Note_on_c, 1, 53, 0
3, 114720, Note_on_c, 1, 53, 84
3, 114720, Note_on_c, 1, 57, 84
3, 114720, Note_on_c, 1, 60, 93
3, 115145, Note_on_c, 1, 60, 0
3, 115145, Note_on_c, 1, 57, 0
3, 115145, Note_on_c, 1, 53, 0
3, 115200, Note_on_c, 1, 52, 84
3, 115200, Note_on_c, 1, 55, 84
3, 115200, Note_on_c, 1, 60, 93
3, 115385, Note_on_c, 1, 60, 0
3, 115385, Note_on_c, 1, 55, 0
3, 115385, Note_on_c, 1, 52, 0
3, 115440, Note_on_c, 1, 52, 84
3, 115440, Note_on_c, 1, 55, 84
3, 115440, Note_on_c, 1, 60, 93
3, 115505, Note_on_c, 1, 60, 0
3, 115505, Note_on_c, 1, 55, 0
3, 115505, Note_on_c, 1, 52, 0
3, 115560, Note_on_c, 1, 52, 84
3, 115560, Note_on_c, 1, 55, 84
3, 115560, Note_on_c, 1, 60, 93
3, 115625, Note_on_c, 1, 60, 0
3, 115625, Note_on_c, 1, 55, 0
3, 115625, Note_on_c, 1, 52, 0
3, 115680, Note_on_c, 1, 52, 84
3, 115680, Note_on_c, 1, 55, 84
3, 115680, Note_on_c, 1, 60, 93
3, 116105, Note_on_c, 1, 60, 0
3, 116105, Note_on_c, 1, 55, 0
3, 116105, Note_on_c, 1, 52, 0
3, 116160, Note_on_c, 1, 50, 84
3, 116160, Note_on_c, 1, 55, 84
3, 116160, Note_on_c, 1, 59, 84
3, 116345, Note_on_c, 1, 59, 0
3, 116345, Note_on_c, 1, 55, 0
3, 116345, Note_on_c, 1, 50, 0
3, 116400, Note_on_c, 1, 50, 84
3, 116400, Note_on_c, 1, 55, 84
3, 116400, Note_on_c, 1, 59, 84
3, 116585, Note_on_c, 1, 59, 0
3, 116585, Note_on_c, 1, 55, 0
3, 116585, Note_on_c, 1, 50, 0
3, 116640, Note_on_c, 1, 50, 84
3, 116640, Note_on_c, 1, 55, 84
3, 116640, Note_on_c, 1, 59, 84
3, 116825, Note_on_c, 1, 59, 0
3, 116825, Note_on_c, 1, 55, 0
3, 116825, Note_on_c, 1, 50, 0
3, 116880, Note_on_c, 1, 50, 84
3, 116880, Note_on_c, 1, 55, 84
3, 116880, Note_on_c, 1, 59, 84
3, 117065, Note_on_c, 1, 59, 0
3, 117065, Note_on_c, 1, 55, 0
3, 117065, Note_on_c, 1, 50, 0
3, 117120, Note_on_c, 1, 52, 84
3, 117120, Note_on_c, 1, 57, 84
3, 117120, Note_on_c, 1, 60, 93
3, 117305, Note_on_c, 1, 60, 0
3, 117305, Note_on_c, 1, 57, 0
3, 117305, Note_on_c, 1, 52, 0
3, 117360, Note_on_c, 1, 52, 84
3, 117360, Note_on_c, 1, 57, 84
3, 117360, Note_on_c, 1, 60, 93
3, 117425, Note_on_c, 1, 60, 0
3, 117425, Note_on_c, 1, 57, 0
3, 117425, Note_on_c, 1, 52, 0
3, 117480, Note_on_c, 1, 52, 84
3, 117480, Note_on_c, 1, 57, 84
3, 117480, Note_on_c, 1, 60, 93
3, 117545, Note_on_c, 1, 60, 0
3, 117545, Note_on_c, 1, 57, 0
3, 117545, Note_on_c, 1, 52, 0
3, 117600, Note_on_c, 1, 52, 84
3, 117600, Note_on_c, 1, 57, 84
3, 117600, Note_on_c, 1, 60, 93
3, 118025, Note_on_c, 1, 60, 0
3, 118025, Note_on_c, 1, 57, 0
3, 118025, Note_on_c, 1, 52, 0
3, 118080, Note_on_c, 1, 52, 84
3, 118080, Note_on_c, 1, 57, 84
3, 118080, Note_on_c, 1, 60, 93
3, 118265, Note_on_c, 1, 60, 0
3, 118265, Note_on_c, 1, 57, 0
3, 118265, Note_on_c, 1, 52, 0
3, 118320, Note_on_c, 1, 52, 84
3, 118320, Note_on_c, 1, 57, 84
3, 118320, Note_on_c, 1, 60, 93
3, 118505, Note_on_c, 1, 60, 0
3, 118505, Note_on_c, 1, 57, 0
3, 118505, Note_on_c, 1, 52, 0
3, 118560, Note_on_c, 1, 52, 84
3, 118560, Note_on_c, 1, 57, 84
3, 118560, Note_on_c, 1, 60, 93
3, 118985, Note_on_c, 1, 60, 0
3, 118985, Note_on_c, 1, 57, 0
3, 118985, Note_on_c, 1, 52, 0
3, 119040, Note_on_c, 1, 56, 84
3, 119040, Note_on_c, 1, 60, 93
3, 119040, Note_on_c, 1, 63, 93
3, 119225, Note_on_c, 1, 63, 0
3, 119225, Note_on_c, 1, 60, 0
3, 119225, Note_on_c, 1, 56, 0
3, 119280, Note_on_c, 1, 56, 84
3, 119280, Note_on_c, 1, 60, 93
3, 119280, Note_on_c, 1, 63, 93
3, 119465, Note_on_c, 1, 63, 0
3, 119465, Note_on_c, 1, 60, 0
3, 119465, Note_on_c, 1, 56, 0
3, 119520, Note_on_c, 1, 56, 84
3, 119520, Note_on_c, 1, 60, 93
3, 119520, Note_on_c, 1, 63, 93
3, 119945, Note_on_c, 1, 63, 0
3, 119945, Note_on_c, 1, 60, 0
3, 119945, Note_on_c, 1, 56, 0
3, 120000, Note_on_c, 1, 58, 84
3, 120000, Note_on_c, 1, 62, 93
3, 120000, Note_on_c, 1, 65, 93
3, 120185, Note_on_c, 1, 65, 0
3, 120185, Note_on_c, 1, 62, 0
3, 120185, Note_on_c, 1, 58, 0
3, 120240, Note_on_c, 1, 58, 84
3, 120240, Note_on_c, 1, 62, 93
3, 120240, Note_on_c, 1, 65, 93
3, 120425, Note_on_c, 1, 65, 0
3, 120425, Note_on_c, 1, 62, 0
3, 120425, Note_on_c, 1, 58, 0
3, 120480, Note_on_c, 1, 58, 84
3, 120480, Note_on_c, 1, 62, 93
3, 120480, Note_on_c, 1, 65, 93
3, 120665, Note_on_c, 1, 58, 0
3, 120905, Note_on_c, 1, 65, 0
3, 120905, Note_on_c, 1, 62, 0
3, 120960, Note_on_c, 1, 55, 84
3, 120960, Note_on_c, 1, 60, 93
3, 120960, Note_on_c, 1, 63, 93
3, 121145, Note_on_c, 1, 63, 0
3, 121145, Note_on_c, 1, 60, 0
3, 121145, Note_on_c, 1, 55, 0
3, 121200, Note_on_c, 1, 55, 84
3, 121200, Note_on_c, 1, 60, 93
3, 121200, Note_on_c, 1, 63, 93
3, 121385, Note_on_c, 1, 63, 0
3, 121385, Note_on_c, 1, 60, 0
3, 121385, Note_on_c, 1, 55, 0
3, 121440, Note_on_c, 1, 55, 84
3, 121440, Note_on_c, 1, 60, 93
3, 121440, Note_on_c, 1, 63, 93
3, 121865, Note_on_c, 1, 63, 0
3, 121865, Note_on_c, 1, 60, 0
3, 121865, Note_on_c, 1, 55, 0
3, 121920, Note_on_c, 1, 55, 84
3, 121920, Note_on_c, 1, 60, 93
3, 121920, Note_on_c, 1, 63, 93
3, 122105, Note_on_c, 1, 63, 0
3, 122105, Note_on_c, 1, 60, 0
3, 122105, Note_on_c, 1, 55, 0
3, 122160, Note_on_c, 1, 55, 84
3, 122160, Note_on_c, 1, 60, 93
3, 122160, Note_on_c, 1, 63, 93
3, 122345, Note_on_c, 1, 63, 0
3, 122345, Note_on_c, 1, 60, 0
3, 122345, Note_on_c, 1, 55, 0
3, 122400, Note_on_c, 1, 55, 84
3, 122400, Note_on_c, 1, 60, 93
3, 122400, Note_on_c, 1, 63, 93
3, 122825, Note_on_c, 1, 63, 0
3, 122825, Note_on_c, 1, 60, 0
3, 122825, Note_on_c, 1, 55, 0
3, 122880, Note_on_c, 1, 56, 100
3, 122880, Note_on_c, 1, 60, 100
3, 122880, Note_on_c, 1, 63, 100
3, 123065, Note_on_c, 1, 63, 0
3, 123065, Note_on_c, 1, 60, 0
3, 123065, Note_on_c, 1, 56, 0
3, 123120, Note_on_c, 1, 56, 100
3, 123120, Note_on_c, 1, 60, 100
3, 123120, Note_on_c, 1, 63, 100
3, 123305, Note_on_c, 1, 63, 0
3, 123305, Note_on_c, 1, 60, 0
3, 123305, Note_on_c, 1, 56, 0
3, 123360, Note_on_c, 1, 56, 100
3, 123360, Note_on_c, 1, 60, 100
3, 123360, Note_on_c, 1, 63, 100
3, 123785, Note_on_c, 1, 63, 0
3, 123785, Note_on_c, 1, 60, 0
3, 123785, Note_on_c, 1, 56, 0
3, 123840, Note_on_c, 1, 58, 100
3, 123840, Note_on_c, 1, 62, 100
3, 123840, Note_on_c, 1, 65, 100
3, 124025, Note_on_c, 1, 65, 0
3, 124025, Note_on_c, 1, 62, 0
3, 124025, Note_on_c, 1, 58, 0
3, 124080, Note_on_c, 1, 58, 100
3, 124080, Note_on_c, 1, 62, 100
3, 124080, Note_on_c, 1, 65, 100
3, 124265, Note_on_c, 1, 65, 0
3, 124265, Note_on_c, 1, 62, 0
3, 124265, Note_on_c, 1, 58, 0
3, 124320, Note_on_c, 1, 58, 100
3, 124320, Note_on_c, 1, 62, 100
3, 124320, Note_on_c, 1, 65, 100
3, 124745, Note_on_c, 1, 65, 0
3, 124745, Note_on_c, 1, 62, 0
3, 124745, Note_on_c, 1, 58, 0
3, 124800, Note_on_c, 1, 55, 100
3, 124800, Note_on_c, 1, 60, 100
3, 124800, Note_on_c, 1, 64, 100
3, 124985, Note_on_c, 1, 64, 0
3, 124985, Note_on_c, 1, 60, 0
3, 124985, Note_on_c, 1, 55, 0
3, 125040, Note_on_c, 1, 55, 100
3, 125040, Note_on_c, 1, 60, 100
3, 125040, Note_on_c, 1, 64, 100
3, 125225, Note_on_c, 1, 64, 0
3, 125225, Note_on_c, 1, 60, 0
3, 125225, Note_on_c, 1, 55, 0
3, 125280, Note_on_c, 1, 55, 100
3, 125280, Note_on_c, 1, 60, 100
3, 125280, Note_on_c, 1, 64, 100
3, 125705, Note_on_c, 1, 64, 0
3, 125705, Note_on_c, 1, 60, 0
3, 125705, Note_on_c, 1, 55, 0
3, 125760, Note_on_c, 1, 55, 100
3, 125760, Note_on_c, 1, 60, 100
3, 125760, Note_on_c, 1, 64, 100
3, 125945, Note_on_c, 1, 64, 0
3, 125945, Note_on_c, 1, 60, 0
3, 125945, Note_on_c, 1, 55, 0
3, 126000, Note_on_c, 1, 55, 100
3, 126000, Note_on_c, 1, 60, 100
3, 126000, Note_on_c, 1, 64, 100
3, 126185, Note_on_c, 1, 64, 0
3, 126185, Note_on_c, 1, 60, 0
3, 126185, Note_on_c, 1, 55, 0
3, 126240, Note_on_c, 1, 55, 100
3, 126240, Note_on_c, 1, 60, 100
3, 126240, Note_on_c, 1, 64, 100
3, 126665, Note_on_c, 1, 64, 0
3, 126665, Note_on_c, 1, 60, 0
3, 126665, Note_on_c, 1, 55, 0
3, 126720, Note_on_c, 1, 56, 100
3, 126720, Note_on_c, 1, 60, 100
3, 126720, Note_on_c, 1, 63, 100
3, 126905, Note_on_c, 1, 63, 0
3, 126905, Note_on_c, 1, 60, 0
3, 126905, Note_on_c, 1, 56, 0
3, 126960, Note_on_c, 1, 56, 100
3, 126960, Note_on_c, 1, 60, 100
3, 126960, Note_on_c, 1, 63, 100
3, 127145, Note_on_c, 1, 63, 0
3, 127145, Note_on_c, 1, 60, 0
3, 127145, Note_on_c, 1, 56, 0
3, 127200, Note_on_c, 1, 56, 100
3, 127200, Note_on_c, 1, 60, 100
3, 127200, Note_on_c, 1, 63, 100
3, 127625, Note_on_c, 1, 63, 0
3, 127625, Note_on_c, 1, 60, 0
3, 127625, Note_on_c, 1, 56, 0
3, 127680, Note_on_c, 1, 58, 100
3, 127680, Note_on_c, 1, 62, 100
3, 127680, Note_on_c, 1, 65, 100
3, 127865, Note_on_c, 1, 65, 0
3, 127865, Note_on_c, 1, 62, 0
3, 127865, Note_on_c, 1, 58, 0
3, 127920, Note_on_c, 1, 58, 100
3, 127920, Note_on_c, 1, 62, 100
3, 127920, Note_on_c, 1, 65, 100
3, 128105, Note_on_c, 1, 65, 0
3, 128105, Note_on_c, 1, 62, 0
3, 128105, Note_on_c, 1, 58, 0
3, 128160, Note_on_c, 1, 58, 100
3, 128160, Note_on_c, 1, 62, 100
3, 128160, Note_on_c, 1, 65, 100
3, 128585, Note_on_c, 1, 65, 0
3, 128585, Note_on_c, 1, 62, 0
3, 128585, Note_on_c, 1, 58, 0
3, 128640, Note_on_c, 1, 55, 100
3, 128640, Note_on_c, 1, 60, 100
3, 128640, Note_on_c, 1, 63, 100
3, 128825, Note_on_c, 1, 63, 0
3, 128825, Note_on_c, 1, 60, 0
3, 128825, Note_on_c, 1, 55, 0
3, 128880, Note_on_c, 1, 55, 100
3, 128880, Note_on_c, 1, 60, 100
3, 128880, Note_on_c, 1, 63, 100
3, 129065, Note_on_c, 1, 63, 0
3, 129065, Note_on_c, 1, 60, 0
3, 129065, Note_on_c, 1, 55, 0
3, 129120, Note_on_c, 1, 55, 100
3, 129120, Note_on_c, 1, 60, 100
3, 129120, Note_on_c, 1, 63, 100
3, 129545, Note_on_c, 1, 63, 0
3, 129545, Note_on_c, 1, 60, 0
3, 129545, Note_on_c, 1, 55, 0
3, 129600, Note_on_c, 1, 55, 100
3, 129600, Note_on_c, 1, 60, 100
3, 129600, Note_on_c, 1, 63, 100
3, 129785, Note_on_c, 1, 63, 0
3, 129785, Note_on_c, 1, 60, 0
3, 129785, Note_on_c, 1, 55, 0
3, 129840, Note_on_c, 1, 55, 100
3, 129840, Note_on_c, 1, 60, 100
3, 129840, Note_on_c, 1, 63, 100
3, 130025, Note_on_c, 1, 63, 0
3, 130025, Note_on_c, 1, 60, 0
3, 130025, Note_on_c, 1, 55, 0
3, 130080, Note_on_c, 1, 55, 100
3, 130080, Note_on_c, 1, 60, 100
3, 130080, Note_on_c, 1, 63, 100
3, 130505, Note_on_c, 1, 63, 0
3, 130505, Note_on_c, 1, 60, 0
3, 130505, Note_on_c, 1, 55, 0
3, 130560, Note_on_c, 1, 56, 100
3, 130560, Note_on_c, 1, 60, 100
3, 130560, Note_on_c, 1, 63, 100
3, 130745, Note_on_c, 1, 63, 0
3, 130745, Note_on_c, 1, 60, 0
3, 130745, Note_on_c, 1, 56, 0
3, 130800, Note_on_c, 1, 56, 100
3, 130800, Note_on_c, 1, 60, 100
3, 130800, Note_on_c, 1, 63, 100
3, 130985, Note_on_c, 1, 63, 0
3, 130985, Note_on_c, 1, 60, 0
3, 130985, Note_on_c, 1, 56, 0
3, 131040, Note_on_c, 1, 56, 100
3, 131040, Note_on_c, 1, 60, 100
3, 131040, Note_on_c, 1, 63, 100
3, 131465, Note_on_c, 1, 63, 0
3, 131465, Note_on_c, 1, 60, 0
3, 131465, Note_on_c, 1, 56, 0
3, 131520, Note_on_c, 1, 58, 100
3, 131520, Note_on_c, 1, 62, 100
3, 131520, Note_on_c, 1, 65, 100
3, 131705, Note_on_c, 1, 65, 0
3, 131705, Note_on_c, 1, 62, 0
3, 131705, Note_on_c, 1, 58, 0
3, 131760, Note_on_c, 1, 58, 100
3, 131760, Note_on_c, 1, 62, 100
3, 131760, Note_on_c, 1, 65, 100
3, 131945, Note_on_c, 1, 65, 0
3, 131945, Note_on_c, 1, 62, 0
3, 131945, Note_on_c, 1, 58, 0
3, 132000, Note_on_c, 1, 58, 100
3, 132000, Note_on_c, 1, 62, 100
3, 132000, Note_on_c, 1, 65, 100
3, 132425, Note_on_c, 1, 65, 0
3, 132425, Note_on_c, 1, 62, 0
3, 132425, Note_on_c, 1, 58, 0
3, 132480, Note_on_c, 1, 53, 100
3, 132480, Note_on_c, 1, 60, 100
3, 132480, Note_on_c, 1, 62, 100
3, 132480, Note_on_c, 1, 65, 100
3, 132665, Note_on_c, 1, 65, 0
3, 132665, Note_on_c, 1, 53, 0
3, 132665, Note_on_c, 1, 60, 0
3, 132665, Note_on_c, 1, 62, 0
3, 132720, Note_on_c, 1, 53, 100
3, 132720, Note_on_c, 1, 60, 100
3, 132720, Note_on_c, 1, 62, 100
3, 132720, Note_on_c, 1, 65, 100
3, 132905, Note_on_c, 1, 65, 0
3, 132905, Note_on_c, 1, 53, 0
3, 132905, Note_on_c, 1, 60, 0
3, 132905, Note_on_c, 1, 62, 0
3, 132960, Note_on_c, 1, 55, 100
3, 132960, Note_on_c, 1, 60, 100
3, 132960, Note_on_c, 1, 62, 100
3, 132960, Note_on_c, 1, 65, 100
3, 133145, Note_on_c, 1, 65, 0
3, 133145, Note_on_c, 1, 55, 0
3, 133145, Note_on_c, 1, 60, 0
3, 133145, Note_on_c, 1, 62, 0
3, 133200, Note_on_c, 1, 55, 100
3, 133200, Note_on_c, 1, 60, 100
3, 133200, Note_on_c, 1, 62, 100
3, 133200, Note_on_c, 1, 65, 100
3, 133385, Note_on_c, 1, 65, 0
3, 133385, Note_on_c, 1, 55, 0
3, 133385, Note_on_c, 1, 60, 0
3, 133385, Note_on_c, 1, 62, 0
3, 133440, Note_on_c, 1, 57, 100
3, 133440, Note_on_c, 1, 60, 100
3, 133440, Note_on_c, 1, 62, 100
3, 133440, Note_on_c, 1, 65, 100
3, 133625, Note_on_c, 1, 65, 0
3, 133625, Note_on_c, 1, 57, 0
3, 133625, Note_on_c, 1, 60, 0
3, 133625, Note_on_c, 1, 62, 0
3, 133680, Note_on_c, 1, 57, 100
3, 133680, Note_on_c, 1, 60, 100
3, 133680, Note_on_c, 1, 62, 100
3, 133680, Note_on_c, 1, 65, 100
3, 133865, Note_on_c, 1, 65, 0
3, 133865, Note_on_c, 1, 57, 0
3, 133865, Note_on_c, 1, 60, 0
3, 133865, Note_on_c, 1, 62, 0
3, 133920, Note_on_c, 1, 57, 100
3, 133920, Note_on_c, 1, 60, 100
3, 133920, Note_on_c, 1, 62, 100
3, 133920, Note_on_c, 1, 65, 100
3, 134105, Note_on_c, 1, 65, 0
3, 134105, Note_on_c, 1, 57, 0
3, 134105, Note_on_c, 1, 60, 0
3, 134105, Note_on_c, 1, 62, 0
3, 134160, Note_on_c, 1, 57, 100
3, 134160, Note_on_c, 1, 60, 100
3, 134160, Note_on_c, 1, 62, 100
3, 134160, Note_on_c, 1, 65, 100
3, 134345, Note_on_c, 1, 65, 0
3, 134345, Note_on_c, 1, 57, 0
3, 134345, Note_on_c, 1, 60, 0
3, 134345, Note_on_c, 1, 62, 0
3, 134400, Note_on_c, 1, 52, 100
3, 134400, Note_on_c, 1, 55, 100
3, 134400, Note_on_c, 1, 60, 100
3, 134585, Note_on_c, 1, 60, 0
3, 134585, Note_on_c, 1, 55, 0
3, 134585, Note_on_c, 1, 52, 0
3, 134640, Note_on_c, 1, 52, 100
3, 134640, Note_on_c, 1, 55, 100
3, 134640, Note_on_c, 1, 60, 100
3, 134705, Note_on_c, 1, 60, 0
3, 134705, Note_on_c, 1, 55, 0
3, 134705, Note_on_c, 1, 52, 0
3, 134760, Note_on_c, 1, 52, 100
3, 134760, Note_on_c, 1, 55, 100
3, 134760, Note_on_c, 1, 60, 100
3, 134825, Note_on_c, 1, 60, 0
3, 134825, Note_on_c, 1, 55, 0
3, 134825, Note_on_c, 1, 52, 0
3, 134880, Note_on_c, 1, 52, 100
3, 134880, Note_on_c, 1, 55, 100
3, 134880, Note_on_c, 1, 60, 100
3, 135305, Note_on_c, 1, 60, 0
3, 135305, Note_on_c, 1, 55, 0
3, 135305, Note_on_c, 1, 52, 0
3, 135360, Note_on_c, 1, 50, 100
3, 135360, Note_on_c, 1, 55, 100
3, 135360, Note_on_c, 1, 59, 100
3, 135545, Note_on_c, 1, 59, 0
3, 135545, Note_on_c, 1, 55, 0
3, 135545, Note_on_c, 1, 50, 0
3, 135600, Note_on_c, 1, 50, 100
3, 135600, Note_on_c, 1, 55, 100
3, 135600, Note_on_c, 1, 59, 100
3, 135785, Note_on_c, 1, 59, 0
3, 135785, Note_on_c, 1, 55, 0
3, 135785, Note_on_c, 1, 50, 0
3, 135840, Note_on_c, 1, 50, 100
3, 135840, Note_on_c, 1, 55, 100
3, 135840, Note_on_c, 1, 59, 100
3, 136025, Note_on_c, 1, 59, 0
3, 136025, Note_on_c, 1, 55, 0
3, 136025, Note_on_c, 1, 50, 0
3, 136080, Note_on_c, 1, 50, 100
3, 136080, Note_on_c, 1, 55, 100
3, 136080, Note_on_c, 1, 59, 100
3, 136265, Note_on_c, 1, 59, 0
3, 136265, Note_on_c, 1, 55, 0
3, 136265, Note_on_c, 1, 50, 0
3, 136320, Note_on_c, 1, 52, 84
3, 136320, Note_on_c, 1, 57, 84
3, 136320, Note_on_c, 1, 60, 93
3, 136505, Note_on_c, 1, 60, 0
3, 136505, Note_on_c, 1, 57, 0
3, 136505, Note_on_c, 1, 52, 0
3, 136560, Note_on_c, 1, 52, 84
3, 136560, Note_on_c, 1, 57, 84
3, 136560, Note_on_c, 1, 60, 93
3, 136625, Note_on_c, 1, 60, 0
3, 136625, Note_on_c, 1, 57, 0
3, 136625, Note_on_c, 1, 52, 0
3, 136680, Note_on_c, 1, 52, 84
3, 136680, Note_on_c, 1, 57, 84
3, 136680, Note_on_c, 1, 60, 93
3, 136745, Note_on_c, 1, 60, 0
3, 136745, Note_on_c, 1, 57, 0
3, 136745, Note_on_c, 1, 52, 0
3, 136800, Note_on_c, 1, 52, 84
3, 136800, Note_on_c, 1, 57, 84
3, 136800, Note_on_c, 1, 60, 93
3, 137225, Note_on_c, 1, 60, 0
3, 137225, Note_on_c, 1, 57, 0
3, 137225, Note_on_c, 1, 52, 0
3, 137280, Note_on_c, 1, 53, 84
3, 137280, Note_on_c, 1, 57, 84
3, 137280, Note_on_c, 1, 60, 93
3, 137465, Note_on_c, 1, 60, 0
3, 137465, Note_on_c, 1, 57, 0
3, 137465, Note_on_c, 1, 53, 0
3, 137520, Note_on_c, 1, 53, 84
3, 137520, Note_on_c, 1, 57, 84
3, 137520, Note_on_c, 1, 60, 93
3, 137705, Note_on_c, 1, 60, 0
3, 137705, Note_on_c, 1, 57, 0
3, 137705, Note_on_c, 1, 53, 0
3, 137760, Note_on_c, 1, 53, 84
3, 137760, Note_on_c, 1, 57, 84
3, 137760, Note_on_c, 1, 60, 93
3, 138185, Note_on_c, 1, 60, 0
3, 138185, Note_on_c, 1, 57, 0
3, 138185, Note_on_c, 1, 53, 0
3, 138240, Note_on_c, 1, 52, 84
3, 138240, Note_on_c, 1, 55, 84
3, 138240, Note_on_c, 1, 60, 93
3, 138425, Note_on_c, 1, 60, 0
3, 138425, Note_on_c, 1, 55, 0
3, 138425, Note_on_c, 1, 52, 0
3, 138480, Note_on_c, 1, 52, 84
3, 138480, Note_on_c, 1, 55, 84
3, 138480, Note_on_c, 1, 60, 93
3, 138545, Note_on_c, 1, 60, 0
3, 138545, Note_on_c, 1, 55, 0
3, 138545, Note_on_c, 1, 52, 0
3, 138600, Note_on_c, 1, 52, 84
3, 138600, Note_on_c, 1, 55, 84
3, 138600, Note_on_c, 1, 60, 93
3, 138665, Note_on_c, 1, 60, 0
3, 138665, Note_on_c, 1, 55, 0
3, 138665, Note_on_c, 1, 52, 0
3, 138720, Note_on_c, 1, 52, 84
3, 138720, Note_on_c, 1, 55, 84
3, 138720, Note_on_c, 1, 60, 93
3, 139145, Note_on_c, 1, 60, 0
3, 139145, Note_on_c, 1, 55, 0
3, 139145, Note_on_c, 1, 52, 0
3, 139200, Note_on_c, 1, 50, 84
3, 139200, Note_on_c, 1, 55, 84
3, 139200, Note_on_c, 1, 59, 84
3, 139385, Note_on_c, 1, 59, 0
3, 139385, Note_on_c, 1, 55, 0
3, 139385, Note_on_c, 1, 50, 0
3, 139440, Note_on_c, 1, 50, 84
3, 139440, Note_on_c, 1, 55, 84
3, 139440, Note_on_c, 1, 59, 84
3, 139625, Note_on_c, 1, 59, 0
3, 139625, Note_on_c, 1, 55, 0
3, 139625, Note_on_c, 1, 50, 0
3, 139680, Note_on_c, 1, 50, 84
3, 139680, Note_on_c, 1, 55, 84
3, 139680, Note_on_c, 1, 59, 84
3, 139865, Note_on_c, 1, 59, 0
3, 139865, Note_on_c, 1, 55, 0
3, 139865, Note_on_c, 1, 50, 0
3, 139920, Note_on_c, 1, 50, 84
3, 139920, Note_on_c, 1, 55, 84
3, 139920, Note_on_c, 1, 59, 84
3, 140105, Note_on_c, 1, 59, 0
3, 140105, Note_on_c, 1, 55, 0
3, 140105, Note_on_c, 1, 50, 0
3, 140160, Note_on_c, 1, 52, 84
3, 140160, Note_on_c, 1, 57, 84
3, 140160, Note_on_c, 1, 60, 93
3, 140345, Note_on_c, 1, 60, 0
3, 140345, Note_on_c, 1, 57, 0
3, 140345, Note_on_c, 1, 52, 0
3, 140400, Note_on_c, 1, 52, 84
3, 140400, Note_on_c, 1, 57, 84
3, 140400, Note_on_c, 1, 60, 93
3, 140465, Note_on_c, 1, 60, 0
3, 140465, Note_on_c, 1, 57, 0
3, 140465, Note_on_c, 1, 52, 0
3, 140520, Note_on_c, 1, 52, 84
3, 140520, Note_on_c, 1, 57, 84
3, 140520, Note_on_c, 1, 60, 93
3, 140585, Note_on_c, 1, 60, 0
3, 140585, Note_on_c, 1, 57, 0
3, 140585, Note_on_c, 1, 52, 0
3, 140640, Note_on_c, 1, 52, 84
3, 140640, Note_on_c, 1, 57, 84
3, 140640, Note_on_c, 1, 60, 93
3, 141065, Note_on_c, 1, 60, 0
3, 141065, Note_on_c, 1, 57, 0
3, 141065, Note_on_c, 1, 52, 0
3, 141120, Note_on_c, 1, 53, 84
3, 141120, Note_on_c, 1, 57, 84
3, 141120, Note_on_c, 1, 60, 93
3, 141305, Note_on_c, 1, 60, 0
3, 141305, Note_on_c, 1, 57, 0
3, 141305, Note_on_c, 1, 53, 0
3, 141360, Note_on_c, 1, 53, 84
3, 141360, Note_on_c, 1, 57, 84
3, 141360, Note_on_c, 1, 60, 93
3, 141545, Note_on_c, 1, 60, 0
3, 141545, Note_on_c, 1, 57, 0
3, 141545, Note_on_c, 1, 53, 0
3, 141600, Note_on_c, 1, 53, 84
3, 141600, Note_on_c, 1, 57, 84
3, 141600, Note_on_c, 1, 60, 100
3, 141785, Note_on_c, 1, 60, 0
3, 141840, Note_on_c, 1, 60, 100
3, 142025, Note_on_c, 1, 60, 0
3, 142025, Note_on_c, 1, 57, 0
3, 142025, Note_on_c, 1, 53, 0
3, 142080, Note_on_c, 1, 52, 84
3, 142080, Note_on_c, 1, 55, 84
3, 142080, Note_on_c, 1, 60, 93
3, 142265, Note_on_c, 1, 60, 0
3, 142265, Note_on_c, 1, 55, 0
3, 142265, Note_on_c, 1, 52, 0
3, 142320, Note_on_c, 1, 52, 84
3, 142320, Note_on_c, 1, 55, 84
3, 142320, Note_on_c, 1, 60, 93
3, 142385, Note_on_c, 1, 60, 0
3, 142385, Note_on_c, 1, 55, 0
3, 142385, Note_on_c, 1, 52, 0
3, 142440, Note_on_c, 1, 52, 84
3, 142440, Note_on_c, 1, 55, 84
3, 142440, Note_on_c, 1, 60, 93
3, 142505, Note_on_c, 1, 60, 0
3, 142505, Note_on_c, 1, 55, 0
3, 142505, Note_on_c, 1, 52, 0
3, 142560, Note_on_c, 1, 52, 84
3, 142560, Note_on_c, 1, 55, 84
3, 142560, Note_on_c, 1, 60, 93
3, 142985, Note_on_c, 1, 60, 0
3, 142985, Note_on_c, 1, 55, 0
3, 142985, Note_on_c, 1, 52, 0
3, 143040, Note_on_c, 1, 50, 84
3, 143040, Note_on_c, 1, 55, 84
3, 143040, Note_on_c, 1, 59, 84
3, 143225, Note_on_c, 1, 59, 0
3, 143225, Note_on_c, 1, 55, 0
3, 143225, Note_on_c, 1, 50, 0
3, 143280, Note_on_c, 1, 50, 84
3, 143280, Note_on_c, 1, 55, 84
3, 143280, Note_on_c, 1, 59, 84
3, 143465, Note_on_c, 1, 59, 0
3, 143465, Note_on_c, 1, 55, 0
3, 143465, Note_on_c, 1, 50, 0
3, 143520, Note_on_c, 1, 50, 84
3, 143520, Note_on_c, 1, 55, 84
3, 143520, Note_on_c, 1, 59, 84
3, 143705, Note_on_c, 1, 59, 0
3, 143705, Note_on_c, 1, 55, 0
3, 143705, Note_on_c, 1, 50, 0
3, 143760, Note_on_c, 1, 50, 84
3, 143760, Note_on_c, 1, 55, 84
3, 143760, Note_on_c, 1, 59, 84
3, 143945, Note_on_c, 1, 59, 0
3, 143945, Note_on_c, 1, 55, 0
3, 143945, Note_on_c, 1, 50, 0
3, 144000, Note_on_c, 1, 52, 84
3, 144000, Note_on_c, 1, 57, 84
3, 144000, Note_on_c, 1, 60, 93
3, 144185, Note_on_c, 1, 60, 0
3, 144185, Note_on_c, 1, 57, 0
3, 144185, Note_on_c, 1, 52, 0
3, 144240, Note_on_c, 1, 52, 84
3, 144240, Note_on_c, 1, 57, 84
3, 144240, Note_on_c, 1, 60, 93
3, 144305, Note_on_c, 1, 60, 0
3, 144305, Note_on_c, 1, 57, 0
3, 144305, Note_on_c, 1, 52, 0
3, 144360, Note_on_c, 1, 52, 84
3, 144360, Note_on_c, 1, 57, 84
3, 144360, Note_on_c, 1, 60, 93
3, 144425, Note_on_c, 1, 60, 0
3, 144425, Note_on_c, 1, 57, 0
3, 144425, Note_on_c, 1, 52, 0
3, 144480, Note_on_c, 1, 52, 84
3, 144480, Note_on_c, 1, 57, 84
3, 144480, Note_on_c, 1, 60, 93
3, 144905, Note_on_c, 1, 60, 0
3, 144905, Note_on_c, 1, 57, 0
3, 144905, Note_on_c, 1, 52, 0
3, 144960, Note_on_c, 1, 53, 84
3, 144960, Note_on_c, 1, 57, 84
3, 144960, Note_on_c, 1, 60, 93
3, 145145, Note_on_c, 1, 60, 0
3, 145145, Note_on_c, 1, 57, 0
3, 145145, Note_on_c, 1, 53, 0
3, 145200, Note_on_c, 1, 53, 84
3, 145200, Note_on_c, 1, 57, 84
3, 145200, Note_on_c, 1, 60, 93
3, 145385, Note_on_c, 1, 60, 0
3, 145385, Note_on_c, 1, 57, 0
3, 145385, Note_on_c, 1, 53, 0
3, 145440, Note_on_c, 1, 53, 84
3, 145440, Note_on_c, 1, 57, 84
3, 145440, Note_on_c, 1, 60, 93
3, 145865, Note_on_c, 1, 60, 0
3, 145865, Note_on_c, 1, 57, 0
3, 145865, Note_on_c, 1, 53, 0
3, 145920, Note_on_c, 1, 52, 84
3, 145920, Note_on_c, 1, 55, 84
3, 145920, Note_on_c, 1, 60, 93
3, 146105, Note_on_c, 1, 60, 0
3, 146105, Note_on_c, 1, 55, 0
3, 146105, Note_on_c, 1, 52, 0
3, 146160, Note_on_c, 1, 52, 84
3, 146160, Note_on_c, 1, 55, 84
3, 146160, Note_on_c, 1, 60, 93
3, 146225, Note_on_c, 1, 60, 0
3, 146225, Note_on_c, 1, 55, 0
3, 146225, Note_on_c, 1, 52, 0
3, 146280, Note_on_c, 1, 52, 84
3, 146280, Note_on_c, 1, 55, 84
3, 146280, Note_on_c, 1, 60, 93
3, 146345, Note_on_c, 1, 60, 0
3, 146345, Note_on_c, 1, 55, 0
3, 146345, Note_on_c, 1, 52, 0
3, 146400, Note_on_c, 1, 52, 84
3, 146400, Note_on_c, 1, 55, 84
3, 146400, Note_on_c, 1, 60, 93
3, 146825, Note_on_c, 1, 60, 0
3, 146825, Note_on_c, 1, 55, 0
3, 146825, Note_on_c, 1, 52, 0
3, 146880, Note_on_c, 1, 50, 84
3, 146880, Note_on_c, 1, 55, 84
3, 146880, Note_on_c, 1, 59, 84
3, 147065, Note_on_c, 1, 59, 0
3, 147065, Note_on_c, 1, 55, 0
3, 147065, Note_on_c, 1, 50, 0
3, 147120, Note_on_c, 1, 50, 84
3, 147120, Note_on_c, 1, 55, 84
3, 147120, Note_on_c, 1, 59, 84
3, 147305, Note_on_c, 1, 59, 0
3, 147305, Note_on_c, 1, 55, 0
3, 147305, Note_on_c, 1, 50, 0
3, 147360, Note_on_c, 1, 50, 84
3, 147360, Note_on_c, 1, 55, 84
3, 147360, Note_on_c, 1, 59, 84
3, 147545, Note_on_c, 1, 59, 0
3, 147545, Note_on_c, 1, 55, 0
3, 147545, Note_on_c, 1, 50, 0
3, 147600, Note_on_c, 1, 50, 84
3, 147600, Note_on_c, 1, 55, 84
3, 147600, Note_on_c, 1, 59, 84
3, 147785, Note_on_c, 1, 59, 0
3, 147785, Note_on_c, 1, 55, 0
3, 147785, Note_on_c, 1, 50, 0
3, 147840, Note_on_c, 1, 52, 84
3, 147840, Note_on_c, 1, 57, 84
3, 147840, Note_on_c, 1, 60, 93
3, 148025, Note_on_c, 1, 60, 0
3, 148025, Note_on_c, 1, 57, 0
3, 148025, Note_on_c, 1, 52, 0
3, 148080, Note_on_c, 1, 52, 84
3, 148080, Note_on_c, 1, 57, 84
3, 148080, Note_on_c, 1, 60, 93
3, 148145, Note_on_c, 1, 60, 0
3, 148145, Note_on_c, 1, 57, 0
3, 148145, Note_on_c, 1, 52, 0
3, 148200, Note_on_c, 1, 52, 84
3, 148200, Note_on_c, 1, 57, 84
3, 148200, Note_on_c, 1, 60, 93
3, 148265, Note_on_c, 1, 60, 0
3, 148265, Note_on_c, 1, 57, 0
3, 148265, Note_on_c, 1, 52, 0
3, 148320, Note_on_c, 1, 52, 84
3, 148320, Note_on_c, 1, 57, 84
3, 148320, Note_on_c, 1, 60, 93
3, 148745, Note_on_c, 1, 60, 0
3, 148745, Note_on_c, 1, 57, 0
3, 148745, Note_on_c, 1, 52, 0
3, 148800, Note_on_c, 1, 52, 84
3, 148800, Note_on_c, 1, 57, 84
3, 148800, Note_on_c, 1, 60, 93
3, 148985, Note_on_c, 1, 60, 0
3, 148985, Note_on_c, 1, 57, 0
3, 148985, Note_on_c, 1, 52, 0
3, 149040, Note_on_c, 1, 52, 84
3, 149040, Note_on_c, 1, 57, 84
3, 149040, Note_on_c, 1, 60, 93
3, 149225, Note_on_c, 1, 60, 0
3, 149225, Note_on_c, 1, 57, 0
3, 149225, Note_on_c, 1, 52, 0
3, 149280, Note_on_c, 1, 52, 84
3, 149280, Note_on_c, 1, 57, 84
3, 149280, Note_on_c, 1, 60, 100
3, 149465, Note_on_c, 1, 60, 0
3, 149520, Note_on_c, 1, 60, 100
3, 149705, Note_on_c, 1, 60, 0
3, 149705, Note_on_c, 1, 57, 0
3, 149705, Note_on_c, 1, 52, 0
3, 149760, Note_on_c, 1, 52, 84
3, 149760, Note_on_c, 1, 55, 84
3, 149760, Note_on_c, 1, 60, 93
3, 149945, Note_on_c, 1, 60, 0
3, 149945, Note_on_c, 1, 55, 0
3, 149945, Note_on_c, 1, 52, 0
3, 150000, Note_on_c, 1, 52, 84
3, 150000, Note_on_c, 1, 55, 84
3, 150000, Note_on_c, 1, 60, 93
3, 150065, Note_on_c, 1, 60, 0
3, 150065, Note_on_c, 1, 55, 0
3, 150065, Note_on_c, 1, 52, 0
3, 150120, Note_on_c, 1, 52, 84
3, 150120, Note_on_c, 1, 55, 84
3, 150120, Note_on_c, 1, 60, 93
3, 150185, Note_on_c, 1, 60, 0
3, 150185, Note_on_c, 1, 55, 0
3, 150185, Note_on_c, 1, 52, 0
3, 150240, Note_on_c, 1, 52, 84
3, 150240, Note_on_c, 1, 55, 84
3, 150240, Note_on_c, 1, 60, 93
3, 150665, Note_on_c, 1, 60, 0
3, 150665, Note_on_c, 1, 55, 0
3, 150665, Note_on_c, 1, 52, 0
3, 150720, Note_on_c, 1, 50, 84
3, 150720, Note_on_c, 1, 55, 84
3, 150720, Note_on_c, 1, 59, 84
3, 150905, Note_on_c, 1, 59, 0
3, 150905, Note_on_c, 1, 55, 0
3, 150905, Note_on_c, 1, 50, 0
3, 150960, Note_on_c, 1, 50, 84
3, 150960, Note_on_c, 1, 55, 84
3, 150960, Note_on_c, 1, 59, 84
3, 151145, Note_on_c, 1, 59, 0
3, 151145, Note_on_c, 1, 55, 0
3, 151145, Note_on_c, 1, 50, 0
3, 151200, Note_on_c, 1, 50, 84
3, 151200, Note_on_c, 1, 55, 84
3, 151200, Note_on_c, 1, 59, 84
3, 151385, Note_on_c, 1, 59, 0
3, 151385, Note_on_c, 1, 55, 0
3, 151385, Note_on_c, 1, 50, 0
3, 151440, Note_on_c, 1, 50, 84
3, 151440, Note_on_c, 1, 55, 84
3, 151440, Note_on_c, 1, 59, 84
3, 151625, Note_on_c, 1, 59, 0
3, 151625, Note_on_c, 1, 55, 0
3, 151625, Note_on_c, 1, 50, 0
3, 151680, Note_on_c, 1, 52, 84
3, 151680, Note_on_c, 1, 57, 84
3, 151680, Note_on_c, 1, 60, 93
3, 151865, Note_on_c, 1, 60, 0
3, 151865, Note_on_c, 1, 57, 0
3, 151865, Note_on_c, 1, 52, 0
3, 151920, Note_on_c, 1, 52, 84
3, 151920, Note_on_c, 1, 57, 84
3, 151920, Note_on_c, 1, 60, 93
3, 151985, Note_on_c, 1, 60, 0
3, 151985, Note_on_c, 1, 57, 0
3, 151985, Note_on_c, 1, 52, 0
3, 152040, Note_on_c, 1, 52, 84
3, 152040, Note_on_c, 1, 57, 84
3, 152040, Note_on_c, 1, 60, 93
3, 152105, Note_on_c, 1, 60, 0
3, 152105, Note_on_c, 1, 57, 0
3, 152105, Note_on_c, 1, 52, 0
3, 152160, Note_on_c, 1, 52, 84
3, 152160, Note_on_c, 1, 57, 84
3, 152160, Note_on_c, 1, 60, 93
3, 152585, Note_on_c, 1, 60, 0
3, 152585, Note_on_c, 1, 57, 0
3, 152585, Note_on_c, 1, 52, 0
3, 152640, Note_on_c, 1, 53, 84
3, 152640, Note_on_c, 1, 57, 84
3, 152640, Note_on_c, 1, 60, 93
3, 152825, Note_on_c, 1, 60, 0
3, 152825, Note_on_c, 1, 57, 0
3, 152825, Note_on_c, 1, 53, 0
3, 152880, Note_on_c, 1, 53, 84
3, 152880, Note_on_c, 1, 57, 84
3, 152880, Note_on_c, 1, 60, 93
3, 153065, Note_on_c, 1, 60, 0
3, 153065, Note_on_c, 1, 57, 0
3, 153065, Note_on_c, 1, 53, 0
3, 153120, Note_on_c, 1, 53, 84
3, 153120, Note_on_c, 1, 57, 84
3, 153120, Note_on_c, 1, 60, 93
3, 153545, Note_on_c, 1, 60, 0
3, 153545, Note_on_c, 1, 57, 0
3, 153545, Note_on_c, 1, 53, 0
3, 153600, Note_on_c, 1, 52, 84
3, 153600, Note_on_c, 1, 55, 84
3, 153600, Note_on_c, 1, 60, 93
3, 153785, Note_on_c, 1, 60, 0
3, 153785, Note_on_c, 1, 55, 0
3, 153785, Note_on_c, 1, 52, 0
3, 153840, Note_on_c, 1, 52, 84
3, 153840, Note_on_c, 1, 55, 84
3, 153840, Note_on_c, 1, 60, 93
3, 153905, Note_on_c, 1, 60, 0
3, 153905, Note_on_c, 1, 55, 0
3, 153905, Note_on_c, 1, 52, 0
3, 153960, Note_on_c, 1, 52, 84
3, 153960, Note_on_c, 1, 55, 84
3, 153960, Note_on_c, 1, 60, 93
3, 154025, Note_on_c, 1, 60, 0
3, 154025, Note_on_c, 1, 55, 0
3, 154025, Note_on_c, 1, 52, 0
3, 154080, Note_on_c, 1, 52, 84
3, 154080, Note_on_c, 1, 55, 84
3, 154080, Note_on_c, 1, 60, 93
3, 154505, Note_on_c, 1, 60, 0
3, 154505, Note_on_c, 1, 55, 0
3, 154505, Note_on_c, 1, 52, 0
3, 154560, Note_on_c, 1, 50, 84
3, 154560, Note_on_c, 1, 55, 84
3, 154560, Note_on_c, 1, 59, 84
3, 154745, Note_on_c, 1, 59, 0
3, 154745, Note_on_c, 1, 55, 0
3, 154745, Note_on_c, 1, 50, 0
3, 154800, Note_on_c, 1, 50, 84
3, 154800, Note_on_c, 1, 55, 84
3, 154800, Note_on_c, 1, 59, 84
3, 154985, Note_on_c, 1, 59, 0
3, 154985, Note_on_c, 1, 55, 0
3, 154985, Note_on_c, 1, 50, 0
3, 155040, Note_on_c, 1, 50, 84
3, 155040, Note_on_c, 1, 55, 84
3, 155040, Note_on_c, 1, 59, 84
3, 155225, Note_on_c, 1, 59, 0
3, 155225, Note_on_c, 1, 55, 0
3, 155225, Note_on_c, 1, 50, 0
3, 155280, Note_on_c, 1, 50, 84
3, 155280, Note_on_c, 1, 55, 84
3, 155280, Note_on_c, 1, 59, 84
3, 155465, Note_on_c, 1, 59, 0
3, 155465, Note_on_c, 1, 55, 0
3, 155465, Note_on_c, 1, 50, 0
3, 155520, Note_on_c, 1, 52, 84
3, 155520, Note_on_c, 1, 57, 84
3, 155520, Note_on_c, 1, 60, 93
3, 155705, Note_on_c, 1, 60, 0
3, 155705, Note_on_c, 1, 57, 0
3, 155705, Note_on_c, 1, 52, 0
3, 155760, Note_on_c, 1, 52, 84
3, 155760, Note_on_c, 1, 57, 84
3, 155760, Note_on_c, 1, 60, 93
3, 155825, Note_on_c, 1, 60, 0
3, 155825, Note_on_c, 1, 57, 0
3, 155825, Note_on_c, 1, 52, 0
3, 155880, Note_on_c, 1, 52, 84
3, 155880, Note_on_c, 1, 57, 84
3, 155880, Note_on_c, 1, 60, 93
3, 155945, Note_on_c, 1, 60, 0
3, 155945, Note_on_c, 1, 57, 0
3, 155945, Note_on_c, 1, 52, 0
3, 156000, Note_on_c, 1, 52, 84
3, 156000, Note_on_c, 1, 57, 84
3, 156000, Note_on_c, 1, 60, 93
3, 156425, Note_on_c, 1, 60, 0
3, 156425, Note_on_c, 1, 57, 0
3, 156425, Note_on_c, 1, 52, 0
3, 156480, Note_on_c, 1, 53, 84
3, 156480, Note_on_c, 1, 57, 84
3, 156480, Note_on_c, 1, 60, 93
3, 156665, Note_on_c, 1, 60, 0
3, 156665, Note_on_c, 1, 57, 0
3, 156665, Note_on_c, 1, 53, 0
3, 156720, Note_on_c, 1, 53, 84
3, 156720, Note_on_c, 1, 57, 84
3, 156720, Note_on_c, 1, 60, 93
3, 156905, Note_on_c, 1, 60, 0
3, 156905, Note_on_c, 1, 57, 0
3, 156905, Note_on_c, 1, 53, 0
3, 156960, Note_on_c, 1, 53, 84
3, 156960, Note_on_c, 1, 57, 84
3, 156960, Note_on_c, 1, 60, 93
3, 157385, Note_on_c, 1, 60, 0
3, 157385, Note_on_c, 1, 57, 0
3, 157385, Note_on_c, 1, 53, 0
3, 157440, Note_on_c, 1, 55, 84
3, 157440, Note_on_c, 1, 60, 93
3, 157440, Note_on_c, 1, 64, 93
3, 157625, Note_on_c, 1, 64, 0
3, 157625, Note_on_c, 1, 60, 0
3, 157625, Note_on_c, 1, 55, 0
3, 157680, Note_on_c, 1, 55, 84
3, 157680, Note_on_c, 1, 60, 93
3, 157680, Note_on_c, 1, 64, 93
3, 157745, Note_on_c, 1, 64, 0
3, 157745, Note_on_c, 1, 60, 0
3, 157745, Note_on_c, 1, 55, 0
3, 157800, Note_on_c, 1, 55, 84
3, 157800, Note_on_c, 1, 60, 93
3, 157800, Note_on_c, 1, 64, 93
3, 157865, Note_on_c, 1, 64, 0
3, 157865, Note_on_c, 1, 60, 0
3, 157865, Note_on_c, 1, 55, 0
3, 157920, Note_on_c, 1, 55, 84
3, 157920, Note_on_c, 1, 60, 93
3, 157920, Note_on_c, 1, 64, 93
3, 158345, Note_on_c, 1, 64, 0
3, 158345, Note_on_c, 1, 60, 0
3, 158345, Note_on_c, 1, 55, 0
3, 158400, Note_on_c, 1, 55, 84
3, 158400, Note_on_c, 1, 58, 84
3, 158400, Note_on_c, 1, 62, 93
3, 158585, Note_on_c, 1, 62, 0
3, 158585, Note_on_c, 1, 58, 0
3, 158585, Note_on_c, 1, 55, 0
3, 158640, Note_on_c, 1, 55, 84
3, 158640, Note_on_c, 1, 58, 84
3, 158640, Note_on_c, 1, 62, 93
3, 158825, Note_on_c, 1, 62, 0
3, 158825, Note_on_c, 1, 58, 0
3, 158825, Note_on_c, 1, 55, 0
3, 158880, Note_on_c, 1, 55, 84
3, 158880, Note_on_c, 1, 58, 84
3, 158880, Note_on_c, 1, 62, 93
3, 159065, Note_on_c, 1, 58, 0
3, 159305, Note_on_c, 1, 62, 0
3, 159305, Note_on_c, 1, 55, 0
3, 159360, Note_on_c, 1, 55, 84
3, 159360, Note_on_c, 1, 60, 93
3, 159360, Note_on_c, 1, 64, 93
3, 159545, Note_on_c, 1, 64, 0
3, 159545, Note_on_c, 1, 60, 0
3, 159545, Note_on_c, 1, 55, 0
3, 159600, Note_on_c, 1, 55, 84
3, 159600, Note_on_c, 1, 60, 93
3, 159600, Note_on_c, 1, 64, 93
3, 159665, Note_on_c, 1, 64, 0
3, 159665, Note_on_c, 1, 60, 0
3, 159665, Note_on_c, 1, 55, 0
3, 159720, Note_on_c, 1, 55, 84
3, 159720, Note_on_c, 1, 60, 93
3, 159720, Note_on_c, 1, 64, 93
3, 159785, Note_on_c, 1, 64, 0
3, 159785, Note_on_c, 1, 60, 0
3, 159785, Note_on_c, 1, 55, 0
3, 159840, Note_on_c, 1, 55, 84
3, 159840, Note_on_c, 1, 60, 93
3, 159840, Note_on_c, 1, 64, 93
3, 160265, Note_on_c, 1, 64, 0
3, 160265, Note_on_c, 1, 60, 0
3, 160265, Note_on_c, 1, 55, 0
3, 160320, Note_on_c, 1, 55, 84
3, 160320, Note_on_c, 1, 58, 84
3, 160320, Note_on_c, 1, 62, 93
3, 160505, Note_on_c, 1, 62, 0
3, 160505, Note_on_c, 1, 58, 0
3, 160505, Note_on_c, 1, 55, 0
3, 160560, Note_on_c, 1, 55, 84
3, 160560, Note_on_c, 1, 58, 84
3, 160560, Note_on_c, 1, 62, 93
3, 160745, Note_on_c, 1, 62, 0
3, 160745, Note_on_c, 1, 58, 0
3, 160745, Note_on_c, 1, 55, 0
3, 160800, Note_on_c, 1, 55, 84
3, 160800, Note_on_c, 1, 58, 84
3, 160800, Note_on_c, 1, 62, 93
3, 160985, Note_on_c, 1, 58, 0
3, 161225, Note_on_c, 1, 62, 0
3, 161225, Note_on_c, 1, 55, 0
3, 161280, Note_on_c, 1, 55, 84
3, 161280, Note_on_c, 1, 60, 93
3, 161280, Note_on_c, 1, 64, 93
3, 161465, Note_on_c, 1, 64, 0
3, 161465, Note_on_c, 1, 60, 0
3, 161465, Note_on_c, 1, 55, 0
3, 161520, Note_on_c, 1, 55, 84
3, 161520, Note_on_c, 1, 60, 93
3, 161520, Note_on_c, 1, 64, 93
3, 161585, Note_on_c, 1, 64, 0
3, 161585, Note_on_c, 1, 60, 0
3, 161585, Note_on_c, 1, 55, 0
3, 161640, Note_on_c, 1, 55, 84
3, 161640, Note_on_c, 1, 60, 93
3, 161640, Note_on_c, 1, 64, 93
3, 161705, Note_on_c, 1, 64, 0
3, 161705, Note_on_c, 1, 60, 0
3, 161705, Note_on_c, 1, 55, 0
3, 161760, Note_on_c, 1, 55, 84
3, 161760, Note_on_c, 1, 60, 93
3, 161760, Note_on_c, 1, 64, 93
3, 162185, Note_on_c, 1, 64, 0
3, 162185, Note_on_c, 1, 60, 0
3, 162185, Note_on_c, 1, 55, 0
3, 162240, Note_on_c, 1, 55, 84
3, 162240, Note_on_c, 1, 58, 84
3, 162240, Note_on_c, 1, 62, 93
3, 162425, Note_on_c, 1, 62, 0
3, 162425, Note_on_c, 1, 58, 0
3, 162425, Note_on_c, 1, 55, 0
3, 162480, Note_on_c, 1, 55, 84
3, 162480, Note_on_c, 1, 58, 84
3, 162480, Note_on_c, 1, 62, 93
3, 162665, Note_on_c, 1, 62, 0
3, 162665, Note_on_c, 1, 58, 0
3, 162665, Note_on_c, 1, 55, 0
3, 162720, Note_on_c, 1, 55, 84
3, 162720, Note_on_c, 1, 58, 84
3, 162720, Note_on_c, 1, 62, 93
3, 162905, Note_on_c, 1, 58, 0
3, 163145, Note_on_c, 1, 62, 0
3, 163145, Note_on_c, 1, 55, 0
3, 163200, Note_on_c, 1, 55, 84
3, 163200, Note_on_c, 1, 60, 93
3, 163200, Note_on_c, 1, 64, 93
3, 163385, Note_on_c, 1, 64, 0
3, 163385, Note_on_c, 1, 60, 0
3, 163385, Note_on_c, 1, 55, 0
3, 163440, Note_on_c, 1, 55, 84
3, 163440, Note_on_c, 1, 60, 93
3, 163440, Note_on_c, 1, 64, 93
3, 163505, Note_on_c, 1, 64, 0
3, 163505, Note_on_c, 1, 60, 0
3, 163505, Note_on_c, 1, 55, 0
3, 163560, Note_on_c, 1, 55, 84
3, 163560, Note_on_c, 1, 60, 93
3, 163560, Note_on_c, 1, 64, 93
3, 163625, Note_on_c, 1, 64, 0
3, 163625, Note_on_c, 1, 60, 0
3, 163625, Note_on_c, 1, 55, 0
3, 163680, Note_on_c, 1, 55, 84
3, 163680, Note_on_c, 1, 60, 93
3, 163680, Note_on_c, 1, 64, 93
3, 164105, Note_on_c, 1, 64, 0
3, 164105, Note_on_c, 1, 60, 0
3, 164105, Note_on_c, 1, 55, 0
3, 164160, Note_on_c, 1, 55, 84
3, 164160, Note_on_c, 1, 58, 84
3, 164160, Note_on_c, 1, 62, 93
3, 164345, Note_on_c, 1, 62, 0
3, 164345, Note_on_c, 1, 58, 0
3, 164345, Note_on_c, 1, 55, 0
3, 164400, Note_on_c, 1, 55, 84
3, 164400, Note_on_c, 1, 58, 84
3, 164400, Note_on_c, 1, 62, 93
3, 164585, Note_on_c, 1, 62, 0
3, 164585, Note_on_c, 1, 58, 0
3, 164585, Note_on_c, 1, 55, 0
3, 164640, Note_on_c, 1, 55, 84
3, 164640, Note_on_c, 1, 58, 84
3, 164640, Note_on_c, 1, 62, 93
3, 164825, Note_on_c, 1, 58, 0
3, 165065, Note_on_c, 1, 62, 0
3, 165065, Note_on_c, 1, 55, 0
3, 165120, Note_on_c, 1, 55, 84
3, 165120, Note_on_c, 1, 60, 93
3, 165120, Note_on_c, 1, 64, 93
3, 165305, Note_on_c, 1, 64, 0
3, 165305, Note_on_c, 1, 60, 0
3, 165305, Note_on_c, 1, 55, 0
3, 165360, Note_on_c, 1, 55, 84
3, 165360, Note_on_c, 1, 60, 93
3, 165360, Note_on_c, 1, 64, 93
3, 165425, Note_on_c, 1, 64, 0
3, 165425, Note_on_c, 1, 60, 0
3, 165425, Note_on_c, 1, 55, 0
3, 165480, Note_on_c, 1, 55, 84
3, 165480, Note_on_c, 1, 60, 93
3, 165480, Note_on_c, 1, 64, 93
3, 165545, Note_on_c, 1, 64, 0
3, 165545, Note_on_c, 1, 60, 0
3, 165545, Note_on_c, 1, 55, 0
3, 165600, Note_on_c, 1, 55, 84
3, 165600, Note_on_c, 1, 60, 93
3, 165600, Note_on_c, 1, 64, 93
3, 166025, Note_on_c, 1, 64, 0
3, 166025, Note_on_c, 1, 60, 0
3, 166025, Note_on_c, 1, 55, 0
3, 166080, Note_on_c, 1, 55, 84
3, 166080, Note_on_c, 1, 58, 84
3, 166080, Note_on_c, 1, 62, 93
3, 166265, Note_on_c, 1, 62, 0
3, 166265, Note_on_c, 1, 58, 0
3, 166265, Note_on_c, 1, 55, 0
3, 166320, Note_on_c, 1, 55, 84
3, 166320, Note_on_c, 1, 58, 84
3, 166320, Note_on_c, 1, 62, 93
3, 166505, Note_on_c, 1, 62, 0
3, 166505, Note_on_c, 1, 58, 0
3, 166505, Note_on_c, 1, 55, 0
3, 166560, Note_on_c, 1, 55, 84
3, 166560, Note_on_c, 1, 58, 84
3, 166560, Note_on_c, 1, 62, 93
3, 166745, Note_on_c, 1, 58, 0
3, 166985, Note_on_c, 1, 62, 0
3, 166985, Note_on_c, 1, 55, 0
3, 166985, End_track
4, 0, Start_track
4, 0, MIDI_port, 0
4, 0, Title_t, "sequenced by Stefan v. T."
4, 0, Control_c, 2, 91, 106
4, 0, Control_c, 2, 93, 70
4, 490, Control_c, 2, 0, 0
4, 492, Program_c, 2, 48
4, 493, Control_c, 2, 7, 69
4, 493, Control_c, 2, 10, 97
4, 46080, Note_on_c, 2, 67, 117
4, 46138, Note_on_c, 2, 67, 0
4, 46200, Note_on_c, 2, 65, 117
4, 46266, Note_on_c, 2, 65, 0
4, 46320, Note_on_c, 2, 67, 117
4, 46371, Note_on_c, 2, 67, 0
4, 46440, Note_on_c, 2, 65, 117
4, 46506, Note_on_c, 2, 65, 0
4, 46560, Note_on_c, 2, 67, 117
4, 46608, Note_on_c, 2, 67, 0
4, 46680, Note_on_c, 2, 65, 117
4, 46731, Note_on_c, 2, 65, 0
4, 46800, Note_on_c, 2, 67, 117
4, 46846, Note_on_c, 2, 67, 0
4, 46920, Note_on_c, 2, 65, 117
4, 46973, Note_on_c, 2, 65, 0
4, 47040, Note_on_c, 2, 67, 117
4, 47096, Note_on_c, 2, 67, 0
4, 47160, Note_on_c, 2, 65, 117
4, 47216, Note_on_c, 2, 65, 0
4, 47280, Note_on_c, 2, 67, 117
4, 47338, Note_on_c, 2, 67, 0
4, 47400, Note_on_c, 2, 65, 117
4, 47451, Note_on_c, 2, 65, 0
4, 47520, Note_on_c, 2, 67, 117
4, 47586, Note_on_c, 2, 67, 0
4, 47640, Note_on_c, 2, 65, 117
4, 47686, Note_on_c, 2, 65, 0
4, 47760, Note_on_c, 2, 67, 117
4, 47813, Note_on_c, 2, 67, 0
4, 47880, Note_on_c, 2, 65, 117
4, 47923, Note_on_c, 2, 65, 0
4, 55680, Note_on_c, 2, 67, 117
4, 55738, Note_on_c, 2, 67, 0
4, 55800, Note_on_c, 2, 65, 117
4, 55866, Note_on_c, 2, 65, 0
4, 55920, Note_on_c, 2, 67, 117
4, 55971, Note_on_c, 2, 67, 0
4, 56040, Note_on_c, 2, 65, 117
4, 56106, Note_on_c, 2, 65, 0
4, 56160, Note_on_c, 2, 67, 117
4, 56208, Note_on_c, 2, 67, 0
4, 56280, Note_on_c, 2, 65, 117
4, 56331, Note_on_c, 2, 65, 0
4, 56400, Note_on_c, 2, 67, 117
4, 56446, Note_on_c, 2, 67, 0
4, 56520, Note_on_c, 2, 65, 117
4, 56573, Note_on_c, 2, 65, 0
4, 56640, Note_on_c, 2, 67, 117
4, 56696, Note_on_c, 2, 67, 0
4, 56760, Note_on_c, 2, 65, 117
4, 56816, Note_on_c, 2, 65, 0
4, 56880, Note_on_c, 2, 67, 117
4, 56938, Note_on_c, 2, 67, 0
4, 57000, Note_on_c, 2, 65, 117
4, 57051, Note_on_c, 2, 65, 0
4, 57120, Note_on_c, 2, 67, 117
4, 57186, Note_on_c, 2, 67, 0
4, 57240, Note_on_c, 2, 65, 117
4, 57286, Note_on_c, 2, 65, 0
4, 57360, Note_on_c, 2, 67, 117
4, 57413, Note_on_c, 2, 67, 0
4, 57480, Note_on_c, 2, 65, 117
4, 57523, Note_on_c, 2, 65, 0
4, 101760, Note_on_c, 2, 67, 117
4, 101818, Note_on_c, 2, 67, 0
4, 101880, Note_on_c, 2, 65, 117
4, 101946, Note_on_c, 2, 65, 0
4, 102000, Note_on_c, 2, 67, 117
4, 102051, Note_on_c, 2, 67, 0
4, 102120, Note_on_c, 2, 65, 117
4, 102186, Note_on_c, 2, 65, 0
4, 102240, Note_on_c, 2, 67, 117
4, 102288, Note_on_c, 2, 67, 0
4, 102360, Note_on_c, 2, 65, 117
4, 102411, Note_on_c, 2, 65, 0
4, 102480, Note_on_c, 2, 67, 117
4, 102526, Note_on_c, 2, 67, 0
4, 102600, Note_on_c, 2, 65, 117
4, 102653, Note_on_c, 2, 65, 0
4, 102720, Note_on_c, 2, 67, 117
4, 102776, Note_on_c, 2, 67, 0
4, 102840, Note_on_c, 2, 65, 117
4, 102896, Note_on_c, 2, 65, 0
4, 102960, Note_on_c, 2, 67, 117
4, 103018, Note_on_c, 2, 67, 0
4, 103080, Note_on_c, 2, 65, 117
4, 103131, Note_on_c, 2, 65, 0
4, 103200, Note_on_c, 2, 67, 117
4, 103266, Note_on_c, 2, 67, 0
4, 103320, Note_on_c, 2, 65, 117
4, 103366, Note_on_c, 2, 65, 0
4, 103440, Note_on_c, 2, 67, 117
4, 103493, Note_on_c, 2, 67, 0
4, 103560, Note_on_c, 2, 65, 117
4, 103603, Note_on_c, 2, 65, 0
4, 111360, Note_on_c, 2, 67, 117
4, 111418, Note_on_c, 2, 67, 0
4, 111480, Note_on_c, 2, 65, 117
4, 111546, Note_on_c, 2, 65, 0
4, 111600, Note_on_c, 2, 67, 117
4, 111651, Note_on_c, 2, 67, 0
4, 111720, Note_on_c, 2, 65, 117
4, 111786, Note_on_c, 2, 65, 0
4, 111840, Note_on_c, 2, 67, 117
4, 111888, Note_on_c, 2, 67, 0
4, 111960, Note_on_c, 2, 65, 117
4, 112011, Note_on_c, 2, 65, 0
4, 112080, Note_on_c, 2, 67, 117
4, 112126, Note_on_c, 2, 67, 0
4, 112200, Note_on_c, 2, 65, 117
4, 112253, Note_on_c, 2, 65, 0
4, 112320, Note_on_c, 2, 67, 117
4, 112376, Note_on_c, 2, 67, 0
4, 112440, Note_on_c, 2, 65, 117
4, 112496, Note_on_c, 2, 65, 0
4, 112560, Note_on_c, 2, 67, 117
4, 112618, Note_on_c, 2, 67, 0
4, 112680, Note_on_c, 2, 65, 117
4, 112731, Note_on_c, 2, 65, 0
4, 112800, Note_on_c, 2, 67, 117
4, 112866, Note_on_c, 2, 67, 0
4, 112920, Note_on_c, 2, 65, 117
4, 112966, Note_on_c, 2, 65, 0
4, 113040, Note_on_c, 2, 67, 117
4, 113093, Note_on_c, 2, 67, 0
4, 113160, Note_on_c, 2, 65, 117
4, 113203, Note_on_c, 2, 65, 0
4, 122880, Note_on_c, 2, 64, 117
4, 123808, Note_on_c, 2, 64, 0
4, 123840, Note_on_c, 2, 62, 117
4, 124800, Note_on_c, 2, 60, 117
4, 124828, Note_on_c, 2, 62, 0
4, 126711, Note_on_c, 2, 60, 0
4, 126720, Note_on_c, 2, 63, 117
4, 127663, Note_on_c, 2, 63, 0
4, 127680, Note_on_c, 2, 62, 117
4, 128640, Note_on_c, 2, 63, 117
4, 128668, Note_on_c, 2, 62, 0
4, 130528, Note_on_c, 2, 63, 0
4, 130560, Note_on_c, 2, 63, 117
4, 131503, Note_on_c, 2, 63, 0
4, 131520, Note_on_c, 2, 62, 117
4, 132480, Note_on_c, 2, 55, 117
4, 132480, Note_on_c, 2, 65, 117
4, 132508, Note_on_c, 2, 62, 0
4, 132688, Note_on_c, 2, 65, 0
4, 132693, Note_on_c, 2, 55, 0
4, 132720, Note_on_c, 2, 55, 117
4, 132720, Note_on_c, 2, 65, 117
4, 132921, Note_on_c, 2, 55, 0
4, 132936, Note_on_c, 2, 65, 0
4, 132960, Note_on_c, 2, 55, 117
4, 132960, Note_on_c, 2, 65, 117
4, 133163, Note_on_c, 2, 65, 0
4, 133173, Note_on_c, 2, 55, 0
4, 133200, Note_on_c, 2, 55, 117
4, 133200, Note_on_c, 2, 65, 117
4, 133411, Note_on_c, 2, 55, 0
4, 133421, Note_on_c, 2, 65, 0
4, 133440, Note_on_c, 2, 55, 117
4, 133440, Note_on_c, 2, 69, 117
4, 133666, Note_on_c, 2, 55, 0
4, 133668, Note_on_c, 2, 69, 0
4, 133680, Note_on_c, 2, 55, 117
4, 133680, Note_on_c, 2, 69, 117
4, 133893, Note_on_c, 2, 69, 0
4, 133908, Note_on_c, 2, 55, 0
4, 133920, Note_on_c, 2, 55, 117
4, 133920, Note_on_c, 2, 69, 117
4, 134131, Note_on_c, 2, 69, 0
4, 134133, Note_on_c, 2, 55, 0
4, 134160, Note_on_c, 2, 55, 117
4, 134160, Note_on_c, 2, 69, 117
4, 134366, Note_on_c, 2, 55, 0
4, 134378, Note_on_c, 2, 69, 0
4, 142080, Note_on_c, 2, 65, 117
4, 142141, Note_on_c, 2, 65, 0
4, 142200, Note_on_c, 2, 67, 117
4, 142258, Note_on_c, 2, 67, 0
4, 142320, Note_on_c, 2, 65, 117
4, 142386, Note_on_c, 2, 65, 0
4, 142440, Note_on_c, 2, 67, 117
4, 142491, Note_on_c, 2, 67, 0
4, 142560, Note_on_c, 2, 65, 117
4, 142626, Note_on_c, 2, 65, 0
4, 142680, Note_on_c, 2, 67, 117
4, 142728, Note_on_c, 2, 67, 0
4, 142800, Note_on_c, 2, 65, 117
4, 142851, Note_on_c, 2, 65, 0
4, 142920, Note_on_c, 2, 67, 117
4, 142966, Note_on_c, 2, 67, 0
4, 143040, Note_on_c, 2, 65, 117
4, 143093, Note_on_c, 2, 65, 0
4, 143160, Note_on_c, 2, 67, 117
4, 143216, Note_on_c, 2, 67, 0
4, 143280, Note_on_c, 2, 65, 117
4, 143336, Note_on_c, 2, 65, 0
4, 143400, Note_on_c, 2, 67, 117
4, 143458, Note_on_c, 2, 67, 0
4, 143520, Note_on_c, 2, 65, 117
4, 143571, Note_on_c, 2, 65, 0
4, 143640, Note_on_c, 2, 67, 117
4, 143706, Note_on_c, 2, 67, 0
4, 143760, Note_on_c, 2, 65, 117
4, 143806, Note_on_c, 2, 65, 0
4, 143880, Note_on_c, 2, 67, 117
4, 143933, Note_on_c, 2, 67, 0
4, 144000, Note_on_c, 2, 65, 117
4, 144043, Note_on_c, 2, 65, 0
4, 149760, Note_on_c, 2, 72, 117
4, 165111, Note_on_c, 2, 72, 0
4, 165111, End_track
5, 0, Start_track
5, 0, MIDI_port, 0
5, 0, Title_t, "SvT.Midis@gmx.net"
5, 0, Control_c, 5, 91, 107
5, 0, Control_c, 5, 93, 27
5, 505, Control_c, 5, 0, 0
5, 507, Program_c, 5, 53
5, 508, Control_c, 5, 7, 84
5, 508, Control_c, 5, 10, 42
5, 31200, Note_on_c, 5, 67, 100
5, 31383, Note_on_c, 5, 67, 0
5, 31440, Note_on_c, 5, 67, 100
5, 31628, Note_on_c, 5, 67, 0
5, 31680, Note_on_c, 5, 65, 100
5, 31823, Note_on_c, 5, 65, 0
5, 31920, Note_on_c, 5, 64, 100
5, 32160, Note_on_c, 5, 62, 100
5, 32183, Note_on_c, 5, 64, 0
5, 32391, Note_on_c, 5, 62, 0
5, 32400, Note_on_c, 5, 60, 100
5, 32716, Note_on_c, 5, 60, 0
5, 35400, Note_on_c, 5, 58, 100
5, 35520, Note_on_c, 5, 57, 100
5, 35543, Note_on_c, 5, 58, 0
5, 35760, Note_on_c, 5, 55, 100
5, 35771, Note_on_c, 5, 57, 0
5, 35868, Note_on_c, 5, 55, 0
5, 36000, Note_on_c, 5, 60, 100
5, 36233, Note_on_c, 5, 60, 0
5, 36240, Note_on_c, 5, 62, 100
5, 36720, Note_on_c, 5, 60, 100
5, 36746, Note_on_c, 5, 62, 0
5, 37198, Note_on_c, 5, 60, 0
5, 48000, Note_on_c, 5, 72, 100
5, 48047, Control_c, 5, 10, 95
5, 48283, Note_on_c, 5, 72, 0
5, 48360, Note_on_c, 5, 67, 100
5, 48648, Note_on_c, 5, 67, 0
5, 48720, Note_on_c, 5, 72, 100
5, 48943, Note_on_c, 5, 72, 0
5, 48960, Note_on_c, 5, 74, 100
5, 49288, Note_on_c, 5, 74, 0
5, 49320, Note_on_c, 5, 72, 100
5, 49628, Note_on_c, 5, 72, 0
5, 49680, Note_on_c, 5, 74, 100
5, 49841, Note_on_c, 5, 74, 0
5, 49920, Note_on_c, 5, 76, 100
5, 50203, Note_on_c, 5, 76, 0
5, 50280, Note_on_c, 5, 76, 100
5, 50576, Note_on_c, 5, 76, 0
5, 50640, Note_on_c, 5, 74, 100
5, 50768, Note_on_c, 5, 74, 0
5, 50880, Note_on_c, 5, 74, 100
5, 51193, Note_on_c, 5, 74, 0
5, 51240, Note_on_c, 5, 72, 100
5, 51558, Note_on_c, 5, 72, 0
5, 52080, Note_on_c, 5, 74, 100
5, 52198, Note_on_c, 5, 74, 0
5, 52200, Note_on_c, 5, 76, 100
5, 52271, Note_on_c, 5, 76, 0
5, 52320, Note_on_c, 5, 76, 100
5, 52383, Note_on_c, 5, 76, 0
5, 52440, Note_on_c, 5, 76, 100
5, 52501, Note_on_c, 5, 76, 0
5, 52560, Note_on_c, 5, 76, 100
5, 52636, Note_on_c, 5, 76, 0
5, 52680, Note_on_c, 5, 74, 100
5, 52853, Note_on_c, 5, 74, 0
5, 52920, Note_on_c, 5, 74, 100
5, 53111, Note_on_c, 5, 74, 0
5, 53160, Note_on_c, 5, 74, 100
5, 53243, Note_on_c, 5, 74, 0
5, 53280, Note_on_c, 5, 76, 100
5, 53506, Note_on_c, 5, 76, 0
5, 53520, Note_on_c, 5, 74, 100
5, 53723, Note_on_c, 5, 74, 0
5, 54000, Note_on_c, 5, 72, 100
5, 54120, Note_on_c, 5, 69, 100
5, 54123, Note_on_c, 5, 72, 0
5, 54201, Note_on_c, 5, 69, 0
5, 54240, Note_on_c, 5, 72, 100
5, 54348, Note_on_c, 5, 72, 0
5, 54360, Note_on_c, 5, 69, 100
5, 54446, Note_on_c, 5, 69, 0
5, 54480, Note_on_c, 5, 72, 100
5, 54591, Note_on_c, 5, 72, 0
5, 54600, Note_on_c, 5, 69, 100
5, 54686, Note_on_c, 5, 69, 0
5, 54720, Note_on_c, 5, 72, 100
5, 54903, Note_on_c, 5, 72, 0
5, 54960, Note_on_c, 5, 72, 100
5, 55080, Note_on_c, 5, 69, 100
5, 55116, Note_on_c, 5, 72, 0
5, 55153, Note_on_c, 5, 69, 0
5, 55200, Note_on_c, 5, 74, 100
5, 55440, Note_on_c, 5, 72, 100
5, 55461, Note_on_c, 5, 74, 0
5, 55618, Note_on_c, 5, 72, 0
5, 55680, Note_on_c, 5, 72, 100
5, 55963, Note_on_c, 5, 72, 0
5, 56040, Note_on_c, 5, 67, 100
5, 56328, Note_on_c, 5, 67, 0
5, 56400, Note_on_c, 5, 72, 100
5, 56623, Note_on_c, 5, 72, 0
5, 56640, Note_on_c, 5, 74, 100
5, 56968, Note_on_c, 5, 74, 0
5, 57000, Note_on_c, 5, 72, 100
5, 57308, Note_on_c, 5, 72, 0
5, 57360, Note_on_c, 5, 74, 100
5, 57521, Note_on_c, 5, 74, 0
5, 57600, Note_on_c, 5, 76, 100
5, 57883, Note_on_c, 5, 76, 0
5, 57960, Note_on_c, 5, 76, 100
5, 58256, Note_on_c, 5, 76, 0
5, 58320, Note_on_c, 5, 74, 100
5, 58448, Note_on_c, 5, 74, 0
5, 58560, Note_on_c, 5, 74, 100
5, 58873, Note_on_c, 5, 74, 0
5, 58920, Note_on_c, 5, 72, 100
5, 59238, Note_on_c, 5, 72, 0
5, 59760, Note_on_c, 5, 74, 100
5, 59878, Note_on_c, 5, 74, 0
5, 59880, Note_on_c, 5, 76, 100
5, 59951, Note_on_c, 5, 76, 0
5, 60000, Note_on_c, 5, 76, 100
5, 60063, Note_on_c, 5, 76, 0
5, 60120, Note_on_c, 5, 76, 100
5, 60181, Note_on_c, 5, 76, 0
5, 60240, Note_on_c, 5, 76, 100
5, 60316, Note_on_c, 5, 76, 0
5, 60360, Note_on_c, 5, 74, 100
5, 60533, Note_on_c, 5, 74, 0
5, 60600, Note_on_c, 5, 74, 100
5, 60791, Note_on_c, 5, 74, 0
5, 60840, Note_on_c, 5, 74, 100
5, 60923, Note_on_c, 5, 74, 0
5, 60960, Note_on_c, 5, 76, 100
5, 61186, Note_on_c, 5, 76, 0
5, 61200, Note_on_c, 5, 74, 100
5, 61403, Note_on_c, 5, 74, 0
5, 61680, Note_on_c, 5, 72, 100
5, 61800, Note_on_c, 5, 69, 100
5, 61803, Note_on_c, 5, 72, 0
5, 61881, Note_on_c, 5, 69, 0
5, 61920, Note_on_c, 5, 72, 100
5, 62028, Note_on_c, 5, 72, 0
5, 62040, Note_on_c, 5, 69, 100
5, 62126, Note_on_c, 5, 69, 0
5, 62160, Note_on_c, 5, 72, 100
5, 62271, Note_on_c, 5, 72, 0
5, 62280, Note_on_c, 5, 69, 100
5, 62366, Note_on_c, 5, 69, 0
5, 62400, Note_on_c, 5, 72, 100
5, 62583, Note_on_c, 5, 72, 0
5, 62640, Note_on_c, 5, 72, 100
5, 62760, Note_on_c, 5, 69, 100
5, 62796, Note_on_c, 5, 72, 0
5, 62833, Note_on_c, 5, 69, 0
5, 62880, Note_on_c, 5, 74, 100
5, 63120, Note_on_c, 5, 72, 100
5, 63141, Note_on_c, 5, 74, 0
5, 63298, Note_on_c, 5, 72, 0
5, 63692, Control_c, 5, 10, 64
5, 65040, Note_on_c, 5, 58, 100
5, 65158, Note_on_c, 5, 58, 0
5, 65160, Note_on_c, 5, 60, 100
5, 65256, Note_on_c, 5, 60, 0
5, 72720, Note_on_c, 5, 74, 100
5, 72958, Note_on_c, 5, 74, 0
5, 72960, Note_on_c, 5, 72, 100
5, 73823, Note_on_c, 5, 72, 0
5, 79560, Note_on_c, 5, 82, 100
5, 80036, Note_on_c, 5, 82, 0
5, 80040, Note_on_c, 5, 81, 100
5, 80421, Note_on_c, 5, 81, 0
5, 81000, Note_on_c, 5, 72, 100
5, 81101, Note_on_c, 5, 72, 0
5, 81120, Note_on_c, 5, 72, 100
5, 81343, Note_on_c, 5, 72, 0
5, 81480, Note_on_c, 5, 69, 100
5, 82176, Note_on_c, 5, 69, 0
5, 83520, Note_on_c, 5, 72, 100
5, 83691, Note_on_c, 5, 72, 0
5, 83760, Note_on_c, 5, 72, 100
5, 83948, Note_on_c, 5, 72, 0
5, 84000, Note_on_c, 5, 70, 100
5, 84198, Note_on_c, 5, 70, 0
5, 84240, Note_on_c, 5, 72, 100
5, 84360, Note_on_c, 5, 70, 100
5, 84383, Note_on_c, 5, 72, 0
5, 84551, Note_on_c, 5, 70, 0
5, 84600, Note_on_c, 5, 67, 100
5, 84871, Note_on_c, 5, 67, 0
5, 85200, Note_on_c, 5, 70, 100
5, 85316, Note_on_c, 5, 70, 0
5, 85440, Note_on_c, 5, 70, 100
5, 85836, Note_on_c, 5, 70, 0
5, 85920, Note_on_c, 5, 72, 100
5, 86151, Note_on_c, 5, 72, 0
5, 86160, Note_on_c, 5, 72, 100
5, 86406, Note_on_c, 5, 72, 0
5, 89280, Note_on_c, 5, 84, 100
5, 89451, Note_on_c, 5, 84, 0
5, 89640, Note_on_c, 5, 79, 100
5, 89723, Note_on_c, 5, 79, 0
5, 89760, Note_on_c, 5, 74, 100
5, 90026, Note_on_c, 5, 74, 0
5, 90120, Note_on_c, 5, 76, 100
5, 90240, Note_on_c, 5, 72, 100
5, 90283, Note_on_c, 5, 76, 0
5, 90480, Note_on_c, 5, 69, 100
5, 90493, Note_on_c, 5, 72, 0
5, 91016, Note_on_c, 5, 69, 0
5, 101160, Note_on_c, 5, 77, 100
5, 101346, Note_on_c, 5, 77, 0
5, 101400, Note_on_c, 5, 75, 100
5, 101520, Note_on_c, 5, 77, 100
5, 101526, Note_on_c, 5, 75, 0
5, 101758, Note_on_c, 5, 77, 0
5, 101760, Note_on_c, 5, 75, 100
5, 101871, Note_on_c, 5, 75, 0
5, 101880, Note_on_c, 5, 72, 100
5, 102108, Note_on_c, 5, 72, 0
5, 103680, Note_on_c, 5, 72, 100
5, 103727, Control_c, 5, 10, 95
5, 103963, Note_on_c, 5, 72, 0
5, 104040, Note_on_c, 5, 67, 100
5, 104328, Note_on_c, 5, 67, 0
5, 104400, Note_on_c, 5, 72, 100
5, 104623, Note_on_c, 5, 72, 0
5, 104640, Note_on_c, 5, 74, 100
5, 104968, Note_on_c, 5, 74, 0
5, 105000, Note_on_c, 5, 72, 100
5, 105308, Note_on_c, 5, 72, 0
5, 105360, Note_on_c, 5, 74, 100
5, 105521, Note_on_c, 5, 74, 0
5, 105600, Note_on_c, 5, 76, 100
5, 105883, Note_on_c, 5, 76, 0
5, 105960, Note_on_c, 5, 76, 100
5, 106256, Note_on_c, 5, 76, 0
5, 106320, Note_on_c, 5, 74, 100
5, 106448, Note_on_c, 5, 74, 0
5, 106560, Note_on_c, 5, 74, 100
5, 106873, Note_on_c, 5, 74, 0
5, 106920, Note_on_c, 5, 72, 100
5, 107238, Note_on_c, 5, 72, 0
5, 107760, Note_on_c, 5, 74, 100
5, 107878, Note_on_c, 5, 74, 0
5, 107880, Note_on_c, 5, 76, 100
5, 107951, Note_on_c, 5, 76, 0
5, 108000, Note_on_c, 5, 76, 100
5, 108063, Note_on_c, 5, 76, 0
5, 108120, Note_on_c, 5, 76, 100
5, 108181, Note_on_c, 5, 76, 0
5, 108240, Note_on_c, 5, 76, 100
5, 108316, Note_on_c, 5, 76, 0
5, 108360, Note_on_c, 5, 74, 100
5, 108533, Note_on_c, 5, 74, 0
5, 108600, Note_on_c, 5, 74, 100
5, 108791, Note_on_c, 5, 74, 0
5, 108840, Note_on_c, 5, 74, 100
5, 108923, Note_on_c, 5, 74, 0
5, 108960, Note_on_c, 5, 76, 100
5, 109186, Note_on_c, 5, 76, 0
5, 109200, Note_on_c, 5, 74, 100
5, 109403, Note_on_c, 5, 74, 0
5, 109680, Note_on_c, 5, 72, 100
5, 109800, Note_on_c, 5, 69, 100
5, 109803, Note_on_c, 5, 72, 0
5, 109881, Note_on_c, 5, 69, 0
5, 109920, Note_on_c, 5, 72, 100
5, 110028, Note_on_c, 5, 72, 0
5, 110040, Note_on_c, 5, 69, 100
5, 110126, Note_on_c, 5, 69, 0
5, 110160, Note_on_c, 5, 72, 100
5, 110271, Note_on_c, 5, 72, 0
5, 110280, Note_on_c, 5, 69, 100
5, 110366, Note_on_c, 5, 69, 0
5, 110400, Note_on_c, 5, 72, 100
5, 110583, Note_on_c, 5, 72, 0
5, 110640, Note_on_c, 5, 72, 100
5, 110760, Note_on_c, 5, 69, 100
5, 110796, Note_on_c, 5, 72, 0
5, 110833, Note_on_c, 5, 69, 0
5, 110880, Note_on_c, 5, 74, 100
5, 111120, Note_on_c, 5, 72, 100
5, 111141, Note_on_c, 5, 74, 0
5, 111298, Note_on_c, 5, 72, 0
5, 111360, Note_on_c, 5, 72, 100
5, 111643, Note_on_c, 5, 72, 0
5, 111720, Note_on_c, 5, 67, 100
5, 112008, Note_on_c, 5, 67, 0
5, 112080, Note_on_c, 5, 72, 100
5, 112303, Note_on_c, 5, 72, 0
5, 112320, Note_on_c, 5, 74, 100
5, 112648, Note_on_c, 5, 74, 0
5, 112680, Note_on_c, 5, 72, 100
5, 112988, Note_on_c, 5, 72, 0
5, 113040, Note_on_c, 5, 74, 100
5, 113201, Note_on_c, 5, 74, 0
5, 113280, Note_on_c, 5, 76, 100
5, 113563, Note_on_c, 5, 76, 0
5, 113640, Note_on_c, 5, 76, 100
5, 113936, Note_on_c, 5, 76, 0
5, 114000, Note_on_c, 5, 74, 100
5, 114128, Note_on_c, 5, 74, 0
5, 114240, Note_on_c, 5, 74, 100
5, 114553, Note_on_c, 5, 74, 0
5, 114600, Note_on_c, 5, 72, 100
5, 114918, Note_on_c, 5, 72, 0
5, 115440, Note_on_c, 5, 74, 100
5, 115558, Note_on_c, 5, 74, 0
5, 115560, Note_on_c, 5, 76, 100
5, 115631, Note_on_c, 5, 76, 0
5, 115680, Note_on_c, 5, 76, 100
5, 115743, Note_on_c, 5, 76, 0
5, 115800, Note_on_c, 5, 76, 100
5, 115861, Note_on_c, 5, 76, 0
5, 115920, Note_on_c, 5, 76, 100
5, 115996, Note_on_c, 5, 76, 0
5, 116040, Note_on_c, 5, 74, 100
5, 116213, Note_on_c, 5, 74, 0
5, 116280, Note_on_c, 5, 74, 100
5, 116471, Note_on_c, 5, 74, 0
5, 116520, Note_on_c, 5, 74, 100
5, 116603, Note_on_c, 5, 74, 0
5, 116640, Note_on_c, 5, 76, 100
5, 116866, Note_on_c, 5, 76, 0
5, 116880, Note_on_c, 5, 74, 100
5, 117083, Note_on_c, 5, 74, 0
5, 117360, Note_on_c, 5, 72, 100
5, 117480, Note_on_c, 5, 69, 100
5, 117483, Note_on_c, 5, 72, 0
5, 117561, Note_on_c, 5, 69, 0
5, 117600, Note_on_c, 5, 72, 100
5, 117708, Note_on_c, 5, 72, 0
5, 117720, Note_on_c, 5, 69, 100
5, 117806, Note_on_c, 5, 69, 0
5, 117840, Note_on_c, 5, 72, 100
5, 117951, Note_on_c, 5, 72, 0
5, 117960, Note_on_c, 5, 69, 100
5, 118046, Note_on_c, 5, 69, 0
5, 118080, Note_on_c, 5, 72, 100
5, 118263, Note_on_c, 5, 72, 0
5, 118320, Note_on_c, 5, 67, 100
5, 118440, Note_on_c, 5, 69, 100
5, 118476, Note_on_c, 5, 67, 0
5, 118513, Note_on_c, 5, 69, 0
5, 118560, Note_on_c, 5, 69, 100
5, 118800, Note_on_c, 5, 72, 100
5, 118821, Note_on_c, 5, 69, 0
5, 118978, Note_on_c, 5, 72, 0
5, 121440, Note_on_c, 5, 79, 100
5, 121593, Note_on_c, 5, 79, 0
5, 121680, Note_on_c, 5, 79, 100
5, 121680, Note_on_c, 5, 82, 100
5, 121748, Note_on_c, 5, 79, 0
5, 121821, Note_on_c, 5, 82, 0
5, 121920, Note_on_c, 5, 82, 100
5, 122006, Note_on_c, 5, 82, 0
5, 122160, Note_on_c, 5, 77, 100
5, 122280, Note_on_c, 5, 75, 100
5, 122343, Note_on_c, 5, 77, 0
5, 122378, Note_on_c, 5, 75, 0
5, 122520, Note_on_c, 5, 75, 100
5, 122753, Note_on_c, 5, 75, 0
5, 125520, Note_on_c, 5, 72, 100
5, 125640, Note_on_c, 5, 70, 100
5, 125646, Note_on_c, 5, 72, 0
5, 125721, Note_on_c, 5, 70, 0
5, 125760, Note_on_c, 5, 72, 100
5, 125836, Note_on_c, 5, 72, 0
5, 125880, Note_on_c, 5, 75, 100
5, 125991, Note_on_c, 5, 75, 0
5, 126240, Note_on_c, 5, 75, 100
5, 126388, Note_on_c, 5, 75, 0
5, 129360, Note_on_c, 5, 82, 100
5, 129480, Note_on_c, 5, 82, 100
5, 129481, Note_on_c, 5, 82, 0
5, 129598, Note_on_c, 5, 82, 0
5, 129720, Note_on_c, 5, 79, 100
5, 129833, Note_on_c, 5, 79, 0
5, 129840, Note_on_c, 5, 77, 100
5, 129956, Note_on_c, 5, 77, 0
5, 129960, Note_on_c, 5, 75, 100
5, 130098, Note_on_c, 5, 75, 0
5, 130200, Note_on_c, 5, 75, 100
5, 130320, Note_on_c, 5, 72, 100
5, 130326, Note_on_c, 5, 75, 0
5, 130496, Note_on_c, 5, 72, 0
5, 130800, Note_on_c, 5, 79, 100
5, 130903, Note_on_c, 5, 79, 0
5, 130920, Note_on_c, 5, 77, 100
5, 130981, Note_on_c, 5, 77, 0
5, 131040, Note_on_c, 5, 79, 100
5, 131138, Note_on_c, 5, 79, 0
5, 131160, Note_on_c, 5, 77, 100
5, 131233, Note_on_c, 5, 77, 0
5, 131280, Note_on_c, 5, 79, 100
5, 131381, Note_on_c, 5, 79, 0
5, 131400, Note_on_c, 5, 77, 100
5, 131466, Note_on_c, 5, 77, 0
5, 132000, Note_on_c, 5, 79, 100
5, 132133, Note_on_c, 5, 79, 0
5, 132240, Note_on_c, 5, 82, 100
5, 132360, Note_on_c, 5, 84, 100
5, 132373, Note_on_c, 5, 82, 0
5, 134071, Note_on_c, 5, 84, 0
5, 134400, Note_on_c, 5, 72, 100
5, 134683, Note_on_c, 5, 72, 0
5, 134760, Note_on_c, 5, 67, 100
5, 135048, Note_on_c, 5, 67, 0
5, 135120, Note_on_c, 5, 72, 100
5, 135343, Note_on_c, 5, 72, 0
5, 135360, Note_on_c, 5, 74, 100
5, 135688, Note_on_c, 5, 74, 0
5, 135720, Note_on_c, 5, 72, 100
5, 136028, Note_on_c, 5, 72, 0
5, 136080, Note_on_c, 5, 74, 100
5, 136241, Note_on_c, 5, 74, 0
5, 136320, Note_on_c, 5, 76, 100
5, 136603, Note_on_c, 5, 76, 0
5, 136680, Note_on_c, 5, 76, 100
5, 136976, Note_on_c, 5, 76, 0
5, 137040, Note_on_c, 5, 74, 100
5, 137168, Note_on_c, 5, 74, 0
5, 137280, Note_on_c, 5, 74, 100
5, 137593, Note_on_c, 5, 74, 0
5, 137640, Note_on_c, 5, 72, 100
5, 137958, Note_on_c, 5, 72, 0
5, 138480, Note_on_c, 5, 74, 100
5, 138480, Note_on_c, 5, 77, 100
5, 138598, Note_on_c, 5, 77, 0
5, 138598, Note_on_c, 5, 74, 0
5, 138600, Note_on_c, 5, 76, 100
5, 138600, Note_on_c, 5, 79, 100
5, 138671, Note_on_c, 5, 79, 0
5, 138671, Note_on_c, 5, 76, 0
5, 138720, Note_on_c, 5, 76, 100
5, 138720, Note_on_c, 5, 79, 100
5, 138783, Note_on_c, 5, 79, 0
5, 138783, Note_on_c, 5, 76, 0
5, 138840, Note_on_c, 5, 76, 100
5, 138840, Note_on_c, 5, 79, 100
5, 138901, Note_on_c, 5, 79, 0
5, 138901, Note_on_c, 5, 76, 0
5, 138960, Note_on_c, 5, 76, 100
5, 138960, Note_on_c, 5, 79, 100
5, 139036, Note_on_c, 5, 79, 0
5, 139036, Note_on_c, 5, 76, 0
5, 139080, Note_on_c, 5, 74, 100
5, 139080, Note_on_c, 5, 77, 100
5, 139253, Note_on_c, 5, 77, 0
5, 139253, Note_on_c, 5, 74, 0
5, 139320, Note_on_c, 5, 74, 100
5, 139320, Note_on_c, 5, 77, 100
5, 139511, Note_on_c, 5, 77, 0
5, 139511, Note_on_c, 5, 74, 0
5, 139560, Note_on_c, 5, 74, 100
5, 139560, Note_on_c, 5, 77, 100
5, 139643, Note_on_c, 5, 77, 0
5, 139643, Note_on_c, 5, 74, 0
5, 139680, Note_on_c, 5, 76, 100
5, 139680, Note_on_c, 5, 79, 100
5, 139906, Note_on_c, 5, 79, 0
5, 139906, Note_on_c, 5, 76, 0
5, 139920, Note_on_c, 5, 74, 100
5, 139920, Note_on_c, 5, 77, 100
5, 140123, Note_on_c, 5, 77, 0
5, 140123, Note_on_c, 5, 74, 0
5, 140400, Note_on_c, 5, 72, 100
5, 140520, Note_on_c, 5, 69, 100
5, 140523, Note_on_c, 5, 72, 0
5, 140601, Note_on_c, 5, 69, 0
5, 140640, Note_on_c, 5, 72, 100
5, 140748, Note_on_c, 5, 72, 0
5, 140760, Note_on_c, 5, 69, 100
5, 140846, Note_on_c, 5, 69, 0
5, 140880, Note_on_c, 5, 72, 100
5, 140991, Note_on_c, 5, 72, 0
5, 141000, Note_on_c, 5, 69, 100
5, 141086, Note_on_c, 5, 69, 0
5, 141120, Note_on_c, 5, 72, 100
5, 141303, Note_on_c, 5, 72, 0
5, 141360, Note_on_c, 5, 72, 100
5, 141480, Note_on_c, 5, 69, 100
5, 141516, Note_on_c, 5, 72, 0
5, 141553, Note_on_c, 5, 69, 0
5, 141600, Note_on_c, 5, 69, 100
5, 141600, Note_on_c, 5, 74, 100
5, 141840, Note_on_c, 5, 67, 100
5, 141840, Note_on_c, 5, 72, 100
5, 141861, Note_on_c, 5, 74, 0
5, 141861, Note_on_c, 5, 69, 0
5, 142018, Note_on_c, 5, 67, 0
5, 142018, Note_on_c, 5, 72, 0
5, 142080, Note_on_c, 5, 72, 100
5, 142363, Note_on_c, 5, 72, 0
5, 142440, Note_on_c, 5, 67, 100
5, 142728, Note_on_c, 5, 67, 0
5, 142800, Note_on_c, 5, 72, 100
5, 143023, Note_on_c, 5, 72, 0
5, 143040, Note_on_c, 5, 74, 100
5, 143368, Note_on_c, 5, 74, 0
5, 143400, Note_on_c, 5, 72, 100
5, 143708, Note_on_c, 5, 72, 0
5, 143760, Note_on_c, 5, 74, 100
5, 143921, Note_on_c, 5, 74, 0
5, 144000, Note_on_c, 5, 76, 100
5, 144283, Note_on_c, 5, 76, 0
5, 144360, Note_on_c, 5, 76, 100
5, 144656, Note_on_c, 5, 76, 0
5, 144720, Note_on_c, 5, 74, 100
5, 144848, Note_on_c, 5, 74, 0
5, 144960, Note_on_c, 5, 74, 100
5, 145273, Note_on_c, 5, 74, 0
5, 145320, Note_on_c, 5, 72, 100
5, 145638, Note_on_c, 5, 72, 0
5, 146160, Note_on_c, 5, 74, 100
5, 146160, Note_on_c, 5, 77, 100
5, 146278, Note_on_c, 5, 77, 0
5, 146278, Note_on_c, 5, 74, 0
5, 146280, Note_on_c, 5, 76, 100
5, 146280, Note_on_c, 5, 79, 100
5, 146351, Note_on_c, 5, 79, 0
5, 146351, Note_on_c, 5, 76, 0
5, 146400, Note_on_c, 5, 76, 100
5, 146400, Note_on_c, 5, 79, 100
5, 146463, Note_on_c, 5, 79, 0
5, 146463, Note_on_c, 5, 76, 0
5, 146520, Note_on_c, 5, 76, 100
5, 146520, Note_on_c, 5, 79, 100
5, 146581, Note_on_c, 5, 79, 0
5, 146581, Note_on_c, 5, 76, 0
5, 146640, Note_on_c, 5, 76, 100
5, 146640, Note_on_c, 5, 79, 100
5, 146716, Note_on_c, 5, 79, 0
5, 146716, Note_on_c, 5, 76, 0
5, 146760, Note_on_c, 5, 74, 100
5, 146760, Note_on_c, 5, 77, 100
5, 146933, Note_on_c, 5, 77, 0
5, 146933, Note_on_c, 5, 74, 0
5, 147000, Note_on_c, 5, 74, 100
5, 147000, Note_on_c, 5, 77, 100
5, 147191, Note_on_c, 5, 77, 0
5, 147191, Note_on_c, 5, 74, 0
5, 147240, Note_on_c, 5, 74, 100
5, 147240, Note_on_c, 5, 77, 100
5, 147323, Note_on_c, 5, 77, 0
5, 147323, Note_on_c, 5, 74, 0
5, 147360, Note_on_c, 5, 76, 100
5, 147360, Note_on_c, 5, 79, 100
5, 147586, Note_on_c, 5, 79, 0
5, 147586, Note_on_c, 5, 76, 0
5, 147600, Note_on_c, 5, 74, 100
5, 147600, Note_on_c, 5, 77, 100
5, 147803, Note_on_c, 5, 77, 0
5, 147803, Note_on_c, 5, 74, 0
5, 148080, Note_on_c, 5, 72, 100
5, 148200, Note_on_c, 5, 69, 100
5, 148203, Note_on_c, 5, 72, 0
5, 148281, Note_on_c, 5, 69, 0
5, 148320, Note_on_c, 5, 72, 100
5, 148428, Note_on_c, 5, 72, 0
5, 148440, Note_on_c, 5, 69, 100
5, 148526, Note_on_c, 5, 69, 0
5, 148560, Note_on_c, 5, 72, 100
5, 148671, Note_on_c, 5, 72, 0
5, 148680, Note_on_c, 5, 69, 100
5, 148766, Note_on_c, 5, 69, 0
5, 148800, Note_on_c, 5, 72, 100
5, 148983, Note_on_c, 5, 72, 0
5, 149040, Note_on_c, 5, 72, 100
5, 149160, Note_on_c, 5, 69, 100
5, 149196, Note_on_c, 5, 72, 0
5, 149233, Note_on_c, 5, 69, 0
5, 149280, Note_on_c, 5, 69, 100
5, 149280, Note_on_c, 5, 74, 100
5, 149520, Note_on_c, 5, 67, 100
5, 149520, Note_on_c, 5, 72, 100
5, 149541, Note_on_c, 5, 74, 0
5, 149541, Note_on_c, 5, 69, 0
5, 149698, Note_on_c, 5, 67, 0
5, 149698, Note_on_c, 5, 72, 0
5, 149760, Note_on_c, 5, 72, 100
5, 150043, Note_on_c, 5, 72, 0
5, 150120, Note_on_c, 5, 67, 100
5, 150408, Note_on_c, 5, 67, 0
5, 150480, Note_on_c, 5, 72, 100
5, 150703, Note_on_c, 5, 72, 0
5, 150720, Note_on_c, 5, 74, 100
5, 151048, Note_on_c, 5, 74, 0
5, 151080, Note_on_c, 5, 72, 100
5, 151388, Note_on_c, 5, 72, 0
5, 151440, Note_on_c, 5, 74, 100
5, 151601, Note_on_c, 5, 74, 0
5, 151680, Note_on_c, 5, 76, 100
5, 151963, Note_on_c, 5, 76, 0
5, 152040, Note_on_c, 5, 76, 100
5, 152336, Note_on_c, 5, 76, 0
5, 152400, Note_on_c, 5, 74, 100
5, 152528, Note_on_c, 5, 74, 0
5, 152640, Note_on_c, 5, 74, 100
5, 152953, Note_on_c, 5, 74, 0
5, 153000, Note_on_c, 5, 72, 100
5, 153318, Note_on_c, 5, 72, 0
5, 153840, Note_on_c, 5, 74, 100
5, 153840, Note_on_c, 5, 77, 100
5, 153958, Note_on_c, 5, 77, 0
5, 153958, Note_on_c, 5, 74, 0
5, 153960, Note_on_c, 5, 76, 100
5, 153960, Note_on_c, 5, 79, 100
5, 154031, Note_on_c, 5, 79, 0
5, 154031, Note_on_c, 5, 76, 0
5, 154080, Note_on_c, 5, 76, 100
5, 154080, Note_on_c, 5, 79, 100
5, 154143, Note_on_c, 5, 79, 0
5, 154143, Note_on_c, 5, 76, 0
5, 154200, Note_on_c, 5, 76, 100
5, 154200, Note_on_c, 5, 79, 100
5, 154261, Note_on_c, 5, 79, 0
5, 154261, Note_on_c, 5, 76, 0
5, 154320, Note_on_c, 5, 76, 100
5, 154320, Note_on_c, 5, 79, 100
5, 154396, Note_on_c, 5, 79, 0
5, 154396, Note_on_c, 5, 76, 0
5, 154440, Note_on_c, 5, 74, 100
5, 154440, Note_on_c, 5, 77, 100
5, 154613, Note_on_c, 5, 77, 0
5, 154613, Note_on_c, 5, 74, 0
5, 154680, Note_on_c, 5, 74, 100
5, 154680, Note_on_c, 5, 77, 100
5, 154871, Note_on_c, 5, 77, 0
5, 154871, Note_on_c, 5, 74, 0
5, 154920, Note_on_c, 5, 74, 100
5, 154920, Note_on_c, 5, 77, 100
5, 155003, Note_on_c, 5, 77, 0
5, 155003, Note_on_c, 5, 74, 0
5, 155040, Note_on_c, 5, 76, 100
5, 155040, Note_on_c, 5, 79, 100
5, 155266, Note_on_c, 5, 79, 0
5, 155266, Note_on_c, 5, 76, 0
5, 155280, Note_on_c, 5, 74, 100
5, 155280, Note_on_c, 5, 77, 100
5, 155483, Note_on_c, 5, 77, 0
5, 155483, Note_on_c, 5, 74, 0
5, 155760, Note_on_c, 5, 72, 100
5, 155880, Note_on_c, 5, 69, 100
5, 155883, Note_on_c, 5, 72, 0
5, 155961, Note_on_c, 5, 69, 0
5, 156000, Note_on_c, 5, 72, 100
5, 156108, Note_on_c, 5, 72, 0
5, 156120, Note_on_c, 5, 69, 100
5, 156206, Note_on_c, 5, 69, 0
5, 156240, Note_on_c, 5, 72, 100
5, 156351, Note_on_c, 5, 72, 0
5, 156360, Note_on_c, 5, 69, 100
5, 156446, Note_on_c, 5, 69, 0
5, 156480, Note_on_c, 5, 72, 100
5, 156663, Note_on_c, 5, 72, 0
5, 156720, Note_on_c, 5, 72, 100
5, 156840, Note_on_c, 5, 69, 100
5, 156876, Note_on_c, 5, 72, 0
5, 156913, Note_on_c, 5, 69, 0
5, 156960, Note_on_c, 5, 69, 100
5, 156960, Note_on_c, 5, 74, 100
5, 157200, Note_on_c, 5, 67, 100
5, 157200, Note_on_c, 5, 72, 100
5, 157221, Note_on_c, 5, 74, 0
5, 157221, Note_on_c, 5, 69, 0
5, 157378, Note_on_c, 5, 67, 0
5, 157378, Note_on_c, 5, 72, 0
5, 157378, End_track
6, 0, Start_track
6, 0, MIDI_port, 0
6, 0, Title_t, "© by WWST"
6, 0, Control_c, 6, 91, 120
6, 0, Control_c, 6, 93, 21
6, 510, Control_c, 6, 0, 0
6, 512, Program_c, 6, 52
6, 513, Control_c, 6, 7, 95
6, 513, Control_c, 6, 10, 89
6, 111360, Note_on_c, 6, 55, 100
6, 113251, Note_on_c, 6, 55, 0
6, 119040, Note_on_c, 6, 56, 100
6, 119040, Note_on_c, 6, 60, 100
6, 119040, Note_on_c, 6, 63, 100
6, 119968, Note_on_c, 6, 60, 0
6, 119976, Note_on_c, 6, 63, 0
6, 119978, Note_on_c, 6, 56, 0
6, 120000, Note_on_c, 6, 53, 100
6, 120000, Note_on_c, 6, 58, 100
6, 120000, Note_on_c, 6, 62, 100
6, 120901, Note_on_c, 6, 53, 0
6, 120938, Note_on_c, 6, 58, 0
6, 120953, Note_on_c, 6, 62, 0
6, 120960, Note_on_c, 6, 55, 100
6, 120960, Note_on_c, 6, 60, 100
6, 120960, Note_on_c, 6, 63, 100
6, 122843, Note_on_c, 6, 60, 0
6, 122861, Note_on_c, 6, 63, 0
6, 122880, Note_on_c, 6, 56, 100
6, 122880, Note_on_c, 6, 60, 100
6, 122880, Note_on_c, 6, 63, 100
6, 122908, Note_on_c, 6, 55, 0
6, 123831, Note_on_c, 6, 56, 0
6, 123831, Note_on_c, 6, 60, 0
6, 123831, Note_on_c, 6, 63, 0
6, 123840, Note_on_c, 6, 58, 100
6, 123840, Note_on_c, 6, 62, 100
6, 123840, Note_on_c, 6, 65, 100
6, 124783, Note_on_c, 6, 65, 0
6, 124783, Note_on_c, 6, 62, 0
6, 124798, Note_on_c, 6, 58, 0
6, 124800, Note_on_c, 6, 55, 100
6, 124800, Note_on_c, 6, 60, 100
6, 124800, Note_on_c, 6, 64, 100
6, 126720, Note_on_c, 6, 56, 100
6, 126720, Note_on_c, 6, 63, 100
6, 126726, Note_on_c, 6, 55, 0
6, 126731, Note_on_c, 6, 64, 0
6, 127653, Note_on_c, 6, 56, 0
6, 127663, Note_on_c, 6, 60, 0
6, 127680, Note_on_c, 6, 53, 100
6, 127680, Note_on_c, 6, 58, 100
6, 127680, Note_on_c, 6, 62, 100
6, 127686, Note_on_c, 6, 63, 0
6, 128596, Note_on_c, 6, 62, 0
6, 128613, Note_on_c, 6, 53, 0
6, 128640, Note_on_c, 6, 55, 100
6, 128640, Note_on_c, 6, 60, 100
6, 128640, Note_on_c, 6, 63, 100
6, 128641, Note_on_c, 6, 58, 0
6, 130560, Note_on_c, 6, 56, 100
6, 130573, Note_on_c, 6, 55, 0
6, 131496, Note_on_c, 6, 56, 0
6, 131503, Note_on_c, 6, 63, 0
6, 131513, Note_on_c, 6, 60, 0
6, 131520, Note_on_c, 6, 58, 100
6, 131520, Note_on_c, 6, 62, 100
6, 131520, Note_on_c, 6, 65, 100
6, 132471, Note_on_c, 6, 65, 0
6, 132480, Note_on_c, 6, 60, 100
6, 132480, Note_on_c, 6, 67, 100
6, 132493, Note_on_c, 6, 58, 0
6, 134396, Note_on_c, 6, 60, 0
6, 134403, Note_on_c, 6, 67, 0
6, 134426, Note_on_c, 6, 62, 0
6, 142080, Note_on_c, 6, 55, 100
6, 143971, Note_on_c, 6, 55, 0
6, 159347, Control_c, 6, 91, 0
6, 159360, Note_on_c, 6, 74, 100
6, 159456, Note_on_c, 6, 74, 0
6, 159480, Note_on_c, 6, 70, 100
6, 159588, Note_on_c, 6, 70, 0
6, 159600, Note_on_c, 6, 74, 100
6, 160028, Note_on_c, 6, 74, 0
6, 160080, Note_on_c, 6, 70, 100
6, 160513, Note_on_c, 6, 70, 0
6, 160513, End_track
7, 0, Start_track
7, 0, MIDI_port, 0
7, 0, Title_t, "+*+*+*+*+*+*+*+*+*+*+*+*+*+*+*+*+*+*+*+*"
7, 0, Control_c, 7, 91, 119
7, 0, Control_c, 7, 93, 5
7, 515, Control_c, 7, 0, 0
7, 517, Program_c, 7, 26
7, 518, Control_c, 7, 7, 50
7, 518, Control_c, 7, 10, 100
7, 11520, Note_on_c, 7, 72, 100
7, 11640, Note_on_c, 7, 72, 100
7, 11640, Note_on_c, 7, 74, 100
7, 11791, Note_on_c, 7, 72, 0
7, 11946, Note_on_c, 7, 74, 0
7, 12481, Note_on_c, 7, 72, 0
7, 18960, Note_on_c, 7, 67, 100
7, 19080, Note_on_c, 7, 69, 100
7, 19200, Note_on_c, 7, 67, 100
7, 19233, Note_on_c, 7, 67, 0
7, 19501, Note_on_c, 7, 69, 0
7, 20233, Note_on_c, 7, 67, 0
7, 26520, Note_on_c, 7, 65, 100
7, 26520, Note_on_c, 7, 74, 100
7, 26570, Pitch_bend_c, 7, 10570
7, 26590, Pitch_bend_c, 7, 14269
7, 26610, Pitch_bend_c, 7, 16383
7, 26690, Pitch_bend_c, 7, 13740
7, 26710, Pitch_bend_c, 7, 10041
7, 26730, Pitch_bend_c, 7, 8192
7, 26880, Note_on_c, 7, 64, 100
7, 26880, Note_on_c, 7, 72, 100
7, 27088, Note_on_c, 7, 74, 0
7, 27088, Note_on_c, 7, 65, 0
7, 27948, Note_on_c, 7, 64, 0
7, 27948, Note_on_c, 7, 72, 0
7, 28800, Note_on_c, 7, 72, 100
7, 28920, Note_on_c, 7, 72, 100
7, 28920, Note_on_c, 7, 74, 100
7, 29071, Note_on_c, 7, 72, 0
7, 29226, Note_on_c, 7, 74, 0
7, 29761, Note_on_c, 7, 72, 0
7, 31680, Note_on_c, 7, 72, 100
7, 32040, Note_on_c, 7, 74, 100
7, 32076, Note_on_c, 7, 72, 0
7, 32376, Note_on_c, 7, 74, 0
7, 32400, Note_on_c, 7, 76, 100
7, 32640, Note_on_c, 7, 76, 100
7, 32640, Note_on_c, 7, 77, 100
7, 32706, Note_on_c, 7, 76, 0
7, 32880, Note_on_c, 7, 76, 100
7, 32913, Note_on_c, 7, 76, 0
7, 33106, Note_on_c, 7, 77, 0
7, 33120, Note_on_c, 7, 76, 100
7, 33223, Note_on_c, 7, 76, 0
7, 33240, Note_on_c, 7, 77, 100
7, 33403, Note_on_c, 7, 76, 0
7, 33600, Note_on_c, 7, 76, 100
7, 33886, Note_on_c, 7, 77, 0
7, 34560, Note_on_c, 7, 74, 100
7, 34688, Note_on_c, 7, 76, 0
7, 35648, Note_on_c, 7, 74, 0
7, 36240, Note_on_c, 7, 67, 100
7, 36360, Note_on_c, 7, 69, 100
7, 36480, Note_on_c, 7, 67, 100
7, 36513, Note_on_c, 7, 67, 0
7, 36781, Note_on_c, 7, 69, 0
7, 37513, Note_on_c, 7, 67, 0
7, 43800, Note_on_c, 7, 67, 100
7, 43800, Note_on_c, 7, 69, 100
7, 43800, Note_on_c, 7, 72, 100
7, 43800, Note_on_c, 7, 74, 100
7, 43920, Note_on_c, 7, 67, 100
7, 43920, Note_on_c, 7, 72, 100
7, 44040, Note_on_c, 7, 69, 100
7, 44040, Note_on_c, 7, 74, 100
7, 44136, Note_on_c, 7, 72, 0
7, 44136, Note_on_c, 7, 67, 0
7, 44143, Note_on_c, 7, 74, 0
7, 44143, Note_on_c, 7, 69, 0
7, 44160, Note_on_c, 7, 67, 100
7, 44160, Note_on_c, 7, 72, 100
7, 44258, Note_on_c, 7, 67, 0
7, 44258, Note_on_c, 7, 72, 0
7, 44373, Note_on_c, 7, 74, 0
7, 44373, Note_on_c, 7, 69, 0
7, 45421, Note_on_c, 7, 72, 0
7, 45421, Note_on_c, 7, 67, 0
7, 65820, Note_on_c, 7, 67, 100
7, 65820, Note_on_c, 7, 72, 100
7, 65940, Note_on_c, 7, 69, 100
7, 65940, Note_on_c, 7, 74, 100
7, 66060, Note_on_c, 7, 67, 100
7, 66076, Note_on_c, 7, 72, 0
7, 66108, Note_on_c, 7, 67, 0
7, 66300, Note_on_c, 7, 67, 100
7, 66366, Note_on_c, 7, 69, 0
7, 66423, Note_on_c, 7, 67, 0
7, 67001, Note_on_c, 7, 74, 0
7, 67618, Note_on_c, 7, 67, 0
7, 73020, Note_on_c, 7, 74, 100
7, 73260, Note_on_c, 7, 76, 100
7, 73493, Note_on_c, 7, 74, 0
7, 73500, Note_on_c, 7, 76, 100
7, 73620, Note_on_c, 7, 77, 100
7, 73646, Note_on_c, 7, 76, 0
7, 73768, Note_on_c, 7, 76, 0
7, 74458, Note_on_c, 7, 77, 0
7, 76740, Note_on_c, 7, 76, 100
7, 76980, Note_on_c, 7, 76, 100
7, 76980, Note_on_c, 7, 77, 100
7, 77051, Note_on_c, 7, 76, 0
7, 77100, Note_on_c, 7, 76, 100
7, 77220, Note_on_c, 7, 74, 100
7, 77241, Note_on_c, 7, 76, 0
7, 77291, Note_on_c, 7, 77, 0
7, 77340, Note_on_c, 7, 72, 100
7, 77458, Note_on_c, 7, 76, 0
7, 77496, Note_on_c, 7, 74, 0
7, 77700, Note_on_c, 7, 74, 100
7, 77868, Note_on_c, 7, 72, 0
7, 78443, Note_on_c, 7, 74, 0
7, 81780, Note_on_c, 7, 67, 100
7, 81900, Note_on_c, 7, 67, 100
7, 81900, Note_on_c, 7, 69, 100
7, 82088, Note_on_c, 7, 67, 0
7, 82228, Note_on_c, 7, 69, 0
7, 82260, Note_on_c, 7, 67, 100
7, 82260, Note_on_c, 7, 69, 100
7, 82323, Note_on_c, 7, 67, 0
7, 82538, Note_on_c, 7, 67, 0
7, 82921, Note_on_c, 7, 69, 0
7, 83100, Note_on_c, 7, 72, 100
7, 83220, Note_on_c, 7, 72, 100
7, 83220, Note_on_c, 7, 74, 100
7, 83346, Note_on_c, 7, 72, 0
7, 83488, Note_on_c, 7, 74, 0
7, 84066, Note_on_c, 7, 72, 0
7, 85020, Note_on_c, 7, 72, 100
7, 85140, Note_on_c, 7, 72, 100
7, 85140, Note_on_c, 7, 74, 100
7, 85266, Note_on_c, 7, 72, 0
7, 85408, Note_on_c, 7, 74, 0
7, 85986, Note_on_c, 7, 72, 0
7, 86460, Note_on_c, 7, 67, 100
7, 86460, Note_on_c, 7, 72, 100
7, 86717, Pitch_bend_c, 7, 8984
7, 86737, Pitch_bend_c, 7, 11098
7, 86755, Pitch_bend_c, 7, 13212
7, 86777, Pitch_bend_c, 7, 14797
7, 86797, Pitch_bend_c, 7, 16383
7, 86940, Note_on_c, 7, 72, 100
7, 86940, Note_on_c, 7, 72, 100
7, 86945, Pitch_bend_c, 7, 15326
7, 86962, Pitch_bend_c, 7, 8192
7, 87060, Note_on_c, 7, 72, 100
7, 87060, Note_on_c, 7, 72, 100
7, 87060, Note_on_c, 7, 74, 100
7, 87060, Note_on_c, 7, 74, 100
7, 87118, Note_on_c, 7, 72, 0
7, 87141, Note_on_c, 7, 72, 0
7, 87186, Note_on_c, 7, 72, 0
7, 87261, Note_on_c, 7, 74, 0
7, 87266, Note_on_c, 7, 72, 0
7, 87323, Note_on_c, 7, 74, 0
7, 87393, Note_on_c, 7, 67, 0
7, 87660, Note_on_c, 7, 74, 100
7, 87868, Note_on_c, 7, 72, 0
7, 88843, Note_on_c, 7, 74, 0
7, 89820, Note_on_c, 7, 72, 100
7, 90180, Note_on_c, 7, 74, 100
7, 90196, Note_on_c, 7, 72, 0
7, 90496, Note_on_c, 7, 74, 0
7, 90540, Note_on_c, 7, 76, 100
7, 90780, Note_on_c, 7, 76, 100
7, 90780, Note_on_c, 7, 77, 100
7, 90826, Note_on_c, 7, 76, 0
7, 91020, Note_on_c, 7, 76, 100
7, 91033, Note_on_c, 7, 76, 0
7, 91226, Note_on_c, 7, 77, 0
7, 91260, Note_on_c, 7, 76, 100
7, 91343, Note_on_c, 7, 76, 0
7, 91380, Note_on_c, 7, 77, 100
7, 91523, Note_on_c, 7, 76, 0
7, 91740, Note_on_c, 7, 76, 100
7, 92006, Note_on_c, 7, 77, 0
7, 92700, Note_on_c, 7, 74, 100
7, 92808, Note_on_c, 7, 76, 0
7, 93768, Note_on_c, 7, 74, 0
7, 98940, Note_on_c, 7, 55, 100
7, 99341, Note_on_c, 7, 55, 0
7, 107280, Note_on_c, 7, 55, 100
7, 107280, Note_on_c, 7, 57, 100
7, 107571, Note_on_c, 7, 55, 0
7, 107736, Note_on_c, 7, 57, 0
7, 138000, Note_on_c, 7, 55, 100
7, 138147, Pitch_bend_c, 7, 13740
7, 138167, Pitch_bend_c, 7, 16383
7, 138272, Pitch_bend_c, 7, 12419
7, 138302, Pitch_bend_c, 7, 8192
7, 139146, Note_on_c, 7, 55, 0
7, 139146, End_track
8, 0, Start_track
8, 0, MIDI_port, 0
8, 0, Title_t, "E-Mail: WWST@gmx.net"
8, 0, Control_c, 8, 91, 104
8, 0, Control_c, 8, 93, 65
8, 520, Control_c, 8, 0, 0
8, 522, Program_c, 8, 0
8, 523, Control_c, 8, 7, 93
8, 523, Control_c, 8, 10, 31
8, 51360, Note_on_c, 8, 72, 100
8, 51360, Note_on_c, 8, 79, 100
8, 51433, Note_on_c, 8, 79, 0
8, 51480, Note_on_c, 8, 81, 100
8, 51600, Note_on_c, 8, 79, 100
8, 51673, Note_on_c, 8, 79, 0
8, 51681, Note_on_c, 8, 81, 0
8, 51720, Note_on_c, 8, 79, 100
8, 51953, Note_on_c, 8, 72, 0
8, 51960, Note_on_c, 8, 76, 100
8, 52080, Note_on_c, 8, 72, 100
8, 53416, Note_on_c, 8, 79, 0
8, 53423, Note_on_c, 8, 72, 0
8, 53436, Note_on_c, 8, 76, 0
8, 59005, Control_c, 8, 10, 93
8, 59280, Note_on_c, 8, 79, 100
8, 59400, Note_on_c, 8, 81, 100
8, 59408, Note_on_c, 8, 79, 0
8, 59520, Note_on_c, 8, 79, 100
8, 59551, Note_on_c, 8, 81, 0
8, 59760, Note_on_c, 8, 76, 100
8, 59771, Note_on_c, 8, 79, 0
8, 59880, Note_on_c, 8, 72, 100
8, 61231, Note_on_c, 8, 72, 0
8, 61253, Note_on_c, 8, 76, 0
8, 75242, Control_c, 8, 10, 39
8, 75480, Note_on_c, 8, 79, 100
8, 75600, Note_on_c, 8, 84, 100
8, 75618, Note_on_c, 8, 79, 0
8, 75763, Note_on_c, 8, 84, 0
8, 75840, Note_on_c, 8, 79, 100
8, 76088, Note_on_c, 8, 79, 0
8, 76200, Note_on_c, 8, 76, 100
8, 76598, Note_on_c, 8, 76, 0
8, 93120, Note_on_c, 8, 79, 100
8, 93120, Note_on_c, 8, 83, 100
8, 93120, Note_on_c, 8, 91, 100
8, 93120, Note_on_c, 8, 95, 100
8, 93240, Note_on_c, 8, 74, 100
8, 93246, Note_on_c, 8, 83, 0
8, 93258, Note_on_c, 8, 79, 0
8, 93360, Note_on_c, 8, 79, 100
8, 93363, Note_on_c, 8, 74, 0
8, 93378, Note_on_c, 8, 95, 0
8, 93378, Note_on_c, 8, 91, 0
8, 93480, Note_on_c, 8, 69, 100
8, 93480, Note_on_c, 8, 86, 100
8, 93480, Note_on_c, 8, 93, 100
8, 93480, Note_on_c, 8, 96, 100
8, 93493, Note_on_c, 8, 79, 0
8, 93671, Note_on_c, 8, 69, 0
8, 93698, Note_on_c, 8, 93, 0
8, 93698, Note_on_c, 8, 96, 0
8, 93701, Note_on_c, 8, 86, 0
8, 93720, Note_on_c, 8, 71, 100
8, 93720, Note_on_c, 8, 86, 100
8, 93720, Note_on_c, 8, 91, 100
8, 93720, Note_on_c, 8, 95, 100
8, 93873, Note_on_c, 8, 95, 0
8, 93883, Note_on_c, 8, 91, 0
8, 93883, Note_on_c, 8, 86, 0
8, 93901, Note_on_c, 8, 71, 0
8, 93901, End_track
9, 0, Start_track
9, 0, MIDI_port, 0
9, 0, Title_t, "Homepage: WWST@gmx.net"
9, 0, Control_c, 10, 91, 66
9, 0, Control_c, 10, 93, 15
9, 530, Control_c, 10, 0, 0
9, 532, Program_c, 10, 5
9, 533, Control_c, 10, 7, 59
9, 533, Control_c, 10, 10, 37
9, 10320, Note_on_c, 10, 64, 100
9, 10320, Note_on_c, 10, 69, 100
9, 10320, Note_on_c, 10, 72, 100
9, 10533, Note_on_c, 10, 72, 0
9, 10556, Note_on_c, 10, 69, 0
9, 10560, Note_on_c, 10, 67, 100
9, 10560, Note_on_c, 10, 70, 100
9, 10611, Note_on_c, 10, 64, 0
9, 10638, Note_on_c, 10, 67, 0
9, 10646, Note_on_c, 10, 70, 0
9, 10800, Note_on_c, 10, 58, 100
9, 10800, Note_on_c, 10, 64, 100
9, 10800, Note_on_c, 10, 67, 100
9, 10968, Note_on_c, 10, 64, 0
9, 11038, Note_on_c, 10, 67, 0
9, 11040, Note_on_c, 10, 62, 100
9, 11040, Note_on_c, 10, 65, 100
9, 11091, Note_on_c, 10, 58, 0
9, 11111, Note_on_c, 10, 65, 0
9, 11138, Note_on_c, 10, 62, 0
9, 23640, Note_on_c, 10, 60, 100
9, 23640, Note_on_c, 10, 64, 100
9, 23640, Note_on_c, 10, 67, 100
9, 24536, Note_on_c, 10, 67, 0
9, 24536, Note_on_c, 10, 64, 0
9, 24538, Note_on_c, 10, 60, 0
9, 25560, Note_on_c, 10, 55, 100
9, 25560, Note_on_c, 10, 58, 100
9, 25560, Note_on_c, 10, 62, 100
9, 26456, Note_on_c, 10, 62, 0
9, 26456, Note_on_c, 10, 55, 0
9, 26458, Note_on_c, 10, 58, 0
9, 27480, Note_on_c, 10, 55, 100
9, 27480, Note_on_c, 10, 60, 100
9, 27480, Note_on_c, 10, 64, 100
9, 27600, Note_on_c, 10, 64, 100
9, 27600, Note_on_c, 10, 69, 100
9, 27600, Note_on_c, 10, 72, 100
9, 27813, Note_on_c, 10, 72, 0
9, 27836, Note_on_c, 10, 69, 0
9, 27840, Note_on_c, 10, 67, 100
9, 27840, Note_on_c, 10, 70, 100
9, 27891, Note_on_c, 10, 64, 0
9, 27918, Note_on_c, 10, 67, 0
9, 27926, Note_on_c, 10, 70, 0
9, 28080, Note_on_c, 10, 58, 100
9, 28080, Note_on_c, 10, 64, 100
9, 28080, Note_on_c, 10, 67, 100
9, 28248, Note_on_c, 10, 64, 0
9, 28318, Note_on_c, 10, 67, 0
9, 28320, Note_on_c, 10, 62, 100
9, 28320, Note_on_c, 10, 65, 100
9, 28371, Note_on_c, 10, 58, 0
9, 28376, Note_on_c, 10, 64, 0
9, 28376, Note_on_c, 10, 60, 0
9, 28378, Note_on_c, 10, 55, 0
9, 28391, Note_on_c, 10, 65, 0
9, 28418, Note_on_c, 10, 62, 0
9, 40920, Note_on_c, 10, 60, 100
9, 40920, Note_on_c, 10, 64, 100
9, 40920, Note_on_c, 10, 67, 100
9, 41816, Note_on_c, 10, 67, 0
9, 41816, Note_on_c, 10, 64, 0
9, 41818, Note_on_c, 10, 60, 0
9, 42840, Note_on_c, 10, 55, 100
9, 42840, Note_on_c, 10, 58, 100
9, 42840, Note_on_c, 10, 62, 100
9, 43736, Note_on_c, 10, 62, 0
9, 43736, Note_on_c, 10, 55, 0
9, 43738, Note_on_c, 10, 58, 0
9, 44760, Note_on_c, 10, 55, 100
9, 44760, Note_on_c, 10, 60, 100
9, 44760, Note_on_c, 10, 64, 100
9, 44880, Note_on_c, 10, 64, 100
9, 44880, Note_on_c, 10, 69, 100
9, 44880, Note_on_c, 10, 72, 100
9, 45093, Note_on_c, 10, 72, 0
9, 45116, Note_on_c, 10, 69, 0
9, 45120, Note_on_c, 10, 67, 100
9, 45120, Note_on_c, 10, 70, 100
9, 45171, Note_on_c, 10, 64, 0
9, 45198, Note_on_c, 10, 67, 0
9, 45206, Note_on_c, 10, 70, 0
9, 45360, Note_on_c, 10, 58, 100
9, 45360, Note_on_c, 10, 64, 100
9, 45360, Note_on_c, 10, 67, 100
9, 45528, Note_on_c, 10, 64, 0
9, 45598, Note_on_c, 10, 67, 0
9, 45600, Note_on_c, 10, 62, 100
9, 45600, Note_on_c, 10, 65, 100
9, 45651, Note_on_c, 10, 58, 0
9, 45656, Note_on_c, 10, 64, 0
9, 45656, Note_on_c, 10, 60, 0
9, 45658, Note_on_c, 10, 55, 0
9, 45671, Note_on_c, 10, 65, 0
9, 45698, Note_on_c, 10, 62, 0
9, 66000, Note_on_c, 10, 64, 100
9, 66000, Note_on_c, 10, 69, 100
9, 66000, Note_on_c, 10, 72, 100
9, 66213, Note_on_c, 10, 72, 0
9, 66236, Note_on_c, 10, 69, 0
9, 66240, Note_on_c, 10, 67, 100
9, 66240, Note_on_c, 10, 70, 100
9, 66291, Note_on_c, 10, 64, 0
9, 66318, Note_on_c, 10, 67, 0
9, 66326, Note_on_c, 10, 70, 0
9, 66480, Note_on_c, 10, 58, 100
9, 66480, Note_on_c, 10, 64, 100
9, 66480, Note_on_c, 10, 67, 100
9, 66648, Note_on_c, 10, 64, 0
9, 66718, Note_on_c, 10, 67, 0
9, 66720, Note_on_c, 10, 62, 100
9, 66720, Note_on_c, 10, 65, 100
9, 66771, Note_on_c, 10, 58, 0
9, 66791, Note_on_c, 10, 65, 0
9, 66818, Note_on_c, 10, 62, 0
9, 81240, Note_on_c, 10, 60, 100
9, 81240, Note_on_c, 10, 64, 100
9, 81240, Note_on_c, 10, 67, 100
9, 82136, Note_on_c, 10, 67, 0
9, 82136, Note_on_c, 10, 64, 0
9, 82138, Note_on_c, 10, 60, 0
9, 83160, Note_on_c, 10, 55, 100
9, 83160, Note_on_c, 10, 58, 100
9, 83160, Note_on_c, 10, 62, 100
9, 83280, Note_on_c, 10, 64, 100
9, 83280, Note_on_c, 10, 69, 100
9, 83280, Note_on_c, 10, 72, 100
9, 83493, Note_on_c, 10, 72, 0
9, 83516, Note_on_c, 10, 69, 0
9, 83520, Note_on_c, 10, 67, 100
9, 83520, Note_on_c, 10, 70, 100
9, 83571, Note_on_c, 10, 64, 0
9, 83598, Note_on_c, 10, 67, 0
9, 83606, Note_on_c, 10, 70, 0
9, 83760, Note_on_c, 10, 58, 100
9, 83760, Note_on_c, 10, 64, 100
9, 83760, Note_on_c, 10, 67, 100
9, 83928, Note_on_c, 10, 64, 0
9, 83998, Note_on_c, 10, 67, 0
9, 84000, Note_on_c, 10, 62, 100
9, 84000, Note_on_c, 10, 65, 100
9, 84051, Note_on_c, 10, 58, 0
9, 84056, Note_on_c, 10, 55, 0
9, 84056, Note_on_c, 10, 62, 0
9, 84058, Note_on_c, 10, 58, 0
9, 84071, Note_on_c, 10, 65, 0
9, 84098, Note_on_c, 10, 62, 0
9, 85080, Note_on_c, 10, 55, 100
9, 85080, Note_on_c, 10, 60, 100
9, 85080, Note_on_c, 10, 64, 100
9, 85200, Note_on_c, 10, 64, 100
9, 85200, Note_on_c, 10, 69, 100
9, 85200, Note_on_c, 10, 72, 100
9, 85413, Note_on_c, 10, 72, 0
9, 85436, Note_on_c, 10, 69, 0
9, 85440, Note_on_c, 10, 67, 100
9, 85440, Note_on_c, 10, 70, 100
9, 85491, Note_on_c, 10, 64, 0
9, 85518, Note_on_c, 10, 67, 0
9, 85526, Note_on_c, 10, 70, 0
9, 85680, Note_on_c, 10, 58, 100
9, 85680, Note_on_c, 10, 64, 100
9, 85680, Note_on_c, 10, 67, 100
9, 85848, Note_on_c, 10, 64, 0
9, 85918, Note_on_c, 10, 67, 0
9, 85920, Note_on_c, 10, 62, 100
9, 85920, Note_on_c, 10, 65, 100
9, 85971, Note_on_c, 10, 58, 0
9, 85976, Note_on_c, 10, 64, 0
9, 85976, Note_on_c, 10, 60, 0
9, 85978, Note_on_c, 10, 55, 0
9, 85991, Note_on_c, 10, 65, 0
9, 86018, Note_on_c, 10, 62, 0
9, 98520, Note_on_c, 10, 60, 100
9, 98520, Note_on_c, 10, 64, 100
9, 98520, Note_on_c, 10, 67, 100
9, 99416, Note_on_c, 10, 67, 0
9, 99416, Note_on_c, 10, 64, 0
9, 99418, Note_on_c, 10, 60, 0
9, 100440, Note_on_c, 10, 55, 100
9, 100440, Note_on_c, 10, 58, 100
9, 100440, Note_on_c, 10, 62, 100
9, 101336, Note_on_c, 10, 62, 0
9, 101336, Note_on_c, 10, 55, 0
9, 101338, Note_on_c, 10, 58, 0
9, 102360, Note_on_c, 10, 55, 100
9, 102360, Note_on_c, 10, 60, 100
9, 102360, Note_on_c, 10, 64, 100
9, 102480, Note_on_c, 10, 64, 100
9, 102480, Note_on_c, 10, 69, 100
9, 102480, Note_on_c, 10, 72, 100
9, 102693, Note_on_c, 10, 72, 0
9, 102716, Note_on_c, 10, 69, 0
9, 102720, Note_on_c, 10, 67, 100
9, 102720, Note_on_c, 10, 70, 100
9, 102771, Note_on_c, 10, 64, 0
9, 102798, Note_on_c, 10, 67, 0
9, 102806, Note_on_c, 10, 70, 0
9, 102960, Note_on_c, 10, 58, 100
9, 102960, Note_on_c, 10, 64, 100
9, 102960, Note_on_c, 10, 67, 100
9, 103128, Note_on_c, 10, 64, 0
9, 103198, Note_on_c, 10, 67, 0
9, 103200, Note_on_c, 10, 62, 100
9, 103200, Note_on_c, 10, 65, 100
9, 103251, Note_on_c, 10, 58, 0
9, 103256, Note_on_c, 10, 64, 0
9, 103256, Note_on_c, 10, 60, 0
9, 103258, Note_on_c, 10, 55, 0
9, 103271, Note_on_c, 10, 65, 0
9, 103298, Note_on_c, 10, 62, 0
9, 106440, Note_on_c, 10, 48, 100
9, 106440, Note_on_c, 10, 55, 100
9, 106503, Note_on_c, 10, 55, 0
9, 106560, Note_on_c, 10, 57, 100
9, 106768, Note_on_c, 10, 48, 0
9, 106800, Note_on_c, 10, 48, 100
9, 106800, Note_on_c, 10, 55, 100
9, 106818, Note_on_c, 10, 57, 0
9, 107053, Note_on_c, 10, 48, 0
9, 107061, Note_on_c, 10, 55, 0
9, 107160, Note_on_c, 10, 48, 100
9, 107160, Note_on_c, 10, 57, 100
9, 107361, Note_on_c, 10, 57, 0
9, 107366, Note_on_c, 10, 48, 0
9, 107520, Note_on_c, 10, 48, 100
9, 107520, Note_on_c, 10, 55, 100
9, 108141, Note_on_c, 10, 55, 0
9, 108163, Note_on_c, 10, 48, 0
9, 112680, Note_on_c, 10, 64, 100
9, 112680, Note_on_c, 10, 69, 100
9, 112680, Note_on_c, 10, 74, 100
9, 112800, Note_on_c, 10, 72, 100
9, 112893, Note_on_c, 10, 74, 0
9, 112978, Note_on_c, 10, 72, 0
9, 113061, Note_on_c, 10, 69, 0
9, 113068, Note_on_c, 10, 64, 0
9, 114120, Note_on_c, 10, 48, 100
9, 114120, Note_on_c, 10, 55, 100
9, 114183, Note_on_c, 10, 55, 0
9, 114240, Note_on_c, 10, 57, 100
9, 114448, Note_on_c, 10, 48, 0
9, 114480, Note_on_c, 10, 48, 100
9, 114480, Note_on_c, 10, 55, 100
9, 114498, Note_on_c, 10, 57, 0
9, 114733, Note_on_c, 10, 48, 0
9, 114741, Note_on_c, 10, 55, 0
9, 114840, Note_on_c, 10, 48, 100
9, 114840, Note_on_c, 10, 57, 100
9, 115041, Note_on_c, 10, 57, 0
9, 115046, Note_on_c, 10, 48, 0
9, 115200, Note_on_c, 10, 48, 100
9, 115200, Note_on_c, 10, 55, 100
9, 115821, Note_on_c, 10, 55, 0
9, 115843, Note_on_c, 10, 48, 0
9, 116400, Note_on_c, 10, 83, 100
9, 116633, Note_on_c, 10, 83, 0
9, 116640, Note_on_c, 10, 84, 100
9, 116863, Note_on_c, 10, 84, 0
9, 116880, Note_on_c, 10, 86, 100
9, 117000, Note_on_c, 10, 84, 100
9, 117003, Note_on_c, 10, 86, 0
9, 117240, Note_on_c, 10, 81, 100
9, 117276, Note_on_c, 10, 84, 0
9, 117461, Note_on_c, 10, 81, 0
9, 117480, Note_on_c, 10, 79, 100
9, 117836, Note_on_c, 10, 79, 0
9, 117960, Note_on_c, 10, 81, 100
9, 118288, Note_on_c, 10, 81, 0
9, 118320, Note_on_c, 10, 84, 100
9, 118440, Note_on_c, 10, 83, 100
9, 118466, Note_on_c, 10, 84, 0
9, 118671, Note_on_c, 10, 83, 0
9, 118680, Note_on_c, 10, 81, 100
9, 118903, Note_on_c, 10, 81, 0
9, 118920, Note_on_c, 10, 75, 100
9, 118920, Note_on_c, 10, 80, 100
9, 118920, Note_on_c, 10, 84, 100
9, 119766, Note_on_c, 10, 84, 0
9, 119768, Note_on_c, 10, 80, 0
9, 119773, Note_on_c, 10, 75, 0
9, 132240, Note_on_c, 10, 60, 100
9, 132240, Note_on_c, 10, 62, 100
9, 132360, Note_on_c, 10, 53, 100
9, 132360, Note_on_c, 10, 65, 100
9, 132423, Note_on_c, 10, 60, 0
9, 132446, Note_on_c, 10, 62, 0
9, 132480, Note_on_c, 10, 60, 100
9, 132480, Note_on_c, 10, 62, 100
9, 132543, Note_on_c, 10, 65, 0
9, 132566, Note_on_c, 10, 53, 0
9, 132600, Note_on_c, 10, 53, 100
9, 132600, Note_on_c, 10, 65, 100
9, 132641, Note_on_c, 10, 60, 0
9, 132641, Note_on_c, 10, 62, 0
9, 132720, Note_on_c, 10, 60, 100
9, 132720, Note_on_c, 10, 62, 100
9, 132751, Note_on_c, 10, 65, 0
9, 132768, Note_on_c, 10, 53, 0
9, 132840, Note_on_c, 10, 55, 100
9, 132840, Note_on_c, 10, 65, 100
9, 132903, Note_on_c, 10, 60, 0
9, 132936, Note_on_c, 10, 62, 0
9, 132960, Note_on_c, 10, 60, 100
9, 132960, Note_on_c, 10, 62, 100
9, 133038, Note_on_c, 10, 55, 0
9, 133038, Note_on_c, 10, 65, 0
9, 133080, Note_on_c, 10, 55, 100
9, 133080, Note_on_c, 10, 65, 100
9, 133121, Note_on_c, 10, 60, 0
9, 133121, Note_on_c, 10, 62, 0
9, 133200, Note_on_c, 10, 60, 100
9, 133200, Note_on_c, 10, 62, 100
9, 133231, Note_on_c, 10, 65, 0
9, 133248, Note_on_c, 10, 55, 0
9, 133320, Note_on_c, 10, 57, 100
9, 133320, Note_on_c, 10, 65, 100
9, 133406, Note_on_c, 10, 60, 0
9, 133406, Note_on_c, 10, 62, 0
9, 133440, Note_on_c, 10, 60, 100
9, 133440, Note_on_c, 10, 62, 100
9, 133501, Note_on_c, 10, 65, 0
9, 133506, Note_on_c, 10, 57, 0
9, 133560, Note_on_c, 10, 57, 100
9, 133560, Note_on_c, 10, 65, 100
9, 133611, Note_on_c, 10, 60, 0
9, 133628, Note_on_c, 10, 62, 0
9, 133680, Note_on_c, 10, 60, 100
9, 133680, Note_on_c, 10, 62, 100
9, 133731, Note_on_c, 10, 57, 0
9, 133746, Note_on_c, 10, 65, 0
9, 133800, Note_on_c, 10, 57, 100
9, 133800, Note_on_c, 10, 65, 100
9, 133893, Note_on_c, 10, 60, 0
9, 133908, Note_on_c, 10, 62, 0
9, 133920, Note_on_c, 10, 60, 100
9, 133920, Note_on_c, 10, 62, 100
9, 134003, Note_on_c, 10, 65, 0
9, 134013, Note_on_c, 10, 57, 0
9, 134040, Note_on_c, 10, 57, 100
9, 134040, Note_on_c, 10, 65, 100
9, 134091, Note_on_c, 10, 60, 0
9, 134108, Note_on_c, 10, 62, 0
9, 134211, Note_on_c, 10, 65, 0
9, 134226, Note_on_c, 10, 57, 0
9, 134760, Note_on_c, 10, 88, 100
9, 135240, Note_on_c, 10, 86, 100
9, 135248, Note_on_c, 10, 88, 0
9, 135483, Note_on_c, 10, 86, 0
9, 135600, Note_on_c, 10, 86, 100
9, 135840, Note_on_c, 10, 84, 100
9, 135901, Note_on_c, 10, 86, 0
9, 136101, Note_on_c, 10, 84, 0
9, 136440, Note_on_c, 10, 83, 100
9, 136560, Note_on_c, 10, 84, 100
9, 136568, Note_on_c, 10, 83, 0
9, 136676, Note_on_c, 10, 84, 0
9, 136680, Note_on_c, 10, 83, 100
9, 137148, Note_on_c, 10, 83, 0
9, 137160, Note_on_c, 10, 48, 100
9, 137160, Note_on_c, 10, 55, 100
9, 137223, Note_on_c, 10, 55, 0
9, 137280, Note_on_c, 10, 57, 100
9, 137488, Note_on_c, 10, 48, 0
9, 137520, Note_on_c, 10, 48, 100
9, 137520, Note_on_c, 10, 55, 100
9, 137538, Note_on_c, 10, 57, 0
9, 137773, Note_on_c, 10, 48, 0
9, 137781, Note_on_c, 10, 55, 0
9, 137880, Note_on_c, 10, 48, 100
9, 137880, Note_on_c, 10, 57, 100
9, 137880, Note_on_c, 10, 83, 100
9, 138000, Note_on_c, 10, 84, 100
9, 138003, Note_on_c, 10, 83, 0
9, 138081, Note_on_c, 10, 57, 0
9, 138086, Note_on_c, 10, 48, 0
9, 138116, Note_on_c, 10, 84, 0
9, 138120, Note_on_c, 10, 83, 100
9, 138240, Note_on_c, 10, 48, 100
9, 138240, Note_on_c, 10, 55, 100
9, 138373, Note_on_c, 10, 83, 0
9, 138480, Note_on_c, 10, 79, 100
9, 138861, Note_on_c, 10, 55, 0
9, 138883, Note_on_c, 10, 48, 0
9, 139008, Note_on_c, 10, 79, 0
9, 139440, Note_on_c, 10, 83, 100
9, 139628, Note_on_c, 10, 83, 0
9, 139680, Note_on_c, 10, 84, 100
9, 139866, Note_on_c, 10, 84, 0
9, 139920, Note_on_c, 10, 86, 100
9, 140040, Note_on_c, 10, 84, 100
9, 140061, Note_on_c, 10, 86, 0
9, 140280, Note_on_c, 10, 79, 100
9, 140311, Note_on_c, 10, 84, 0
9, 140653, Note_on_c, 10, 79, 0
9, 143400, Note_on_c, 10, 64, 100
9, 143400, Note_on_c, 10, 69, 100
9, 143400, Note_on_c, 10, 74, 100
9, 143520, Note_on_c, 10, 72, 100
9, 143613, Note_on_c, 10, 74, 0
9, 143698, Note_on_c, 10, 72, 0
9, 143781, Note_on_c, 10, 69, 0
9, 143788, Note_on_c, 10, 64, 0
9, 152400, Note_on_c, 10, 48, 100
9, 152400, Note_on_c, 10, 55, 100
9, 152463, Note_on_c, 10, 55, 0
9, 152520, Note_on_c, 10, 57, 100
9, 152728, Note_on_c, 10, 48, 0
9, 152760, Note_on_c, 10, 48, 100
9, 152760, Note_on_c, 10, 55, 100
9, 152778, Note_on_c, 10, 57, 0
9, 153013, Note_on_c, 10, 48, 0
9, 153021, Note_on_c, 10, 55, 0
9, 153120, Note_on_c, 10, 48, 100
9, 153120, Note_on_c, 10, 57, 100
9, 153321, Note_on_c, 10, 57, 0
9, 153326, Note_on_c, 10, 48, 0
9, 153480, Note_on_c, 10, 48, 100
9, 153480, Note_on_c, 10, 55, 100
9, 154101, Note_on_c, 10, 55, 0
9, 154123, Note_on_c, 10, 48, 0
9, 155280, Note_on_c, 10, 84, 100
9, 155631, Note_on_c, 10, 84, 0
9, 155631, End_track
10, 0, Start_track
10, 0, MIDI_port, 0
10, 0, Control_c, 9, 91, 48
10, 0, Control_c, 9, 93, 24
10, 0, Control_c, 9, 99, 24
10, 0, Control_c, 9, 98, 46
10, 0, Control_c, 9, 6, 60
10, 0, Control_c, 9, 38, 0
10, 527, Program_c, 9, 25
10, 528, Control_c, 9, 7, 117
10, 528, Control_c, 9, 10, 56
10, 767, Control_c, 9, 99, 24
10, 767, Control_c, 9, 98, 36
10, 767, Control_c, 9, 6, 61
10, 767, Control_c, 9, 38, 0
10, 1920, Note_on_c, 9, 42, 110
10, 2036, Note_on_c, 9, 42, 0
10, 2400, Note_on_c, 9, 42, 90
10, 2516, Note_on_c, 9, 42, 0
10, 2880, Note_on_c, 9, 42, 90
10, 2996, Note_on_c, 9, 42, 0
10, 3360, Note_on_c, 9, 40, 108
10, 3360, Note_on_c, 9, 42, 90
10, 3431, Note_on_c, 9, 42, 0
10, 3597, Note_on_c, 9, 42, 80
10, 3644, Note_on_c, 9, 42, 0
10, 3838, Note_on_c, 9, 42, 84
10, 3839, Note_on_c, 9, 82, 123
10, 3841, Note_on_c, 9, 35, 125
10, 3877, Note_on_c, 9, 42, 0
10, 3892, Note_on_c, 9, 82, 0
10, 3911, Note_on_c, 9, 35, 0
10, 4078, Note_on_c, 9, 82, 120
10, 4080, Note_on_c, 9, 35, 125
10, 4080, Note_on_c, 9, 42, 77
10, 4118, Note_on_c, 9, 82, 0
10, 4131, Note_on_c, 9, 42, 0
10, 4138, Note_on_c, 9, 35, 0
10, 4197, Note_on_c, 9, 82, 123
10, 4202, Note_on_c, 9, 35, 125
10, 4241, Note_on_c, 9, 82, 0
10, 4280, Note_on_c, 9, 35, 0
10, 4317, Note_on_c, 9, 82, 127
10, 4319, Note_on_c, 9, 42, 80
10, 4320, Note_on_c, 9, 37, 120
10, 4370, Note_on_c, 9, 42, 0
10, 4378, Note_on_c, 9, 82, 0
10, 4410, Note_on_c, 9, 40, 0
10, 4560, Note_on_c, 9, 42, 80
10, 4617, Note_on_c, 9, 42, 0
10, 4797, Note_on_c, 9, 82, 123
10, 4798, Note_on_c, 9, 35, 125
10, 4798, Note_on_c, 9, 42, 80
10, 4856, Note_on_c, 9, 42, 0
10, 4856, Note_on_c, 9, 82, 0
10, 4876, Note_on_c, 9, 35, 0
10, 5037, Note_on_c, 9, 35, 125
10, 5037, Note_on_c, 9, 82, 120
10, 5040, Note_on_c, 9, 42, 80
10, 5098, Note_on_c, 9, 42, 0
10, 5102, Note_on_c, 9, 82, 0
10, 5127, Note_on_c, 9, 35, 0
10, 5275, Note_on_c, 9, 37, 120
10, 5276, Note_on_c, 9, 82, 123
10, 5277, Note_on_c, 9, 42, 77
10, 5337, Note_on_c, 9, 42, 0
10, 5342, Note_on_c, 9, 82, 0
10, 5369, Note_on_c, 9, 37, 0
10, 5519, Note_on_c, 9, 42, 80
10, 5579, Note_on_c, 9, 42, 0
10, 5758, Note_on_c, 9, 35, 125
10, 5758, Note_on_c, 9, 82, 123
10, 5761, Note_on_c, 9, 42, 77
10, 5817, Note_on_c, 9, 82, 0
10, 5820, Note_on_c, 9, 42, 0
10, 5838, Note_on_c, 9, 35, 0
10, 5998, Note_on_c, 9, 82, 120
10, 5999, Note_on_c, 9, 35, 125
10, 6000, Note_on_c, 9, 42, 80
10, 6033, Note_on_c, 9, 82, 0
10, 6043, Note_on_c, 9, 35, 0
10, 6064, Note_on_c, 9, 42, 0
10, 6116, Note_on_c, 9, 82, 120
10, 6117, Note_on_c, 9, 35, 125
10, 6157, Note_on_c, 9, 82, 0
10, 6193, Note_on_c, 9, 35, 0
10, 6234, Note_on_c, 9, 82, 123
10, 6237, Note_on_c, 9, 37, 120
10, 6240, Note_on_c, 9, 42, 80
10, 6296, Note_on_c, 9, 82, 0
10, 6306, Note_on_c, 9, 42, 0
10, 6322, Note_on_c, 9, 37, 0
10, 6482, Note_on_c, 9, 42, 77
10, 6541, Note_on_c, 9, 42, 0
10, 6718, Note_on_c, 9, 42, 80
10, 6720, Note_on_c, 9, 82, 123
10, 6723, Note_on_c, 9, 35, 125
10, 6781, Note_on_c, 9, 82, 0
10, 6782, Note_on_c, 9, 42, 0
10, 6796, Note_on_c, 9, 35, 0
10, 6957, Note_on_c, 9, 42, 77
10, 6960, Note_on_c, 9, 82, 123
10, 6963, Note_on_c, 9, 35, 127
10, 7022, Note_on_c, 9, 42, 0
10, 7024, Note_on_c, 9, 82, 0
10, 7047, Note_on_c, 9, 35, 0
10, 7197, Note_on_c, 9, 42, 80
10, 7198, Note_on_c, 9, 37, 120
10, 7199, Note_on_c, 9, 82, 123
10, 7262, Note_on_c, 9, 82, 0
10, 7264, Note_on_c, 9, 42, 0
10, 7287, Note_on_c, 9, 37, 0
10, 7438, Note_on_c, 9, 42, 77
10, 7503, Note_on_c, 9, 42, 0
10, 7677, Note_on_c, 9, 42, 77
10, 7677, Note_on_c, 9, 82, 123
10, 7679, Note_on_c, 9, 35, 125
10, 7733, Note_on_c, 9, 82, 0
10, 7746, Note_on_c, 9, 42, 0
10, 7751, Note_on_c, 9, 35, 0
10, 7914, Note_on_c, 9, 82, 120
10, 7919, Note_on_c, 9, 35, 125
10, 7920, Note_on_c, 9, 42, 77
10, 7951, Note_on_c, 9, 82, 0
10, 7973, Note_on_c, 9, 35, 0
10, 7984, Note_on_c, 9, 42, 0
10, 8033, Note_on_c, 9, 82, 120
10, 8039, Note_on_c, 9, 35, 125
10, 8079, Note_on_c, 9, 82, 0
10, 8119, Note_on_c, 9, 35, 0
10, 8152, Note_on_c, 9, 82, 123
10, 8155, Note_on_c, 9, 37, 120
10, 8160, Note_on_c, 9, 42, 77
10, 8218, Note_on_c, 9, 82, 0
10, 8227, Note_on_c, 9, 42, 0
10, 8239, Note_on_c, 9, 37, 0
10, 8400, Note_on_c, 9, 42, 80
10, 8464, Note_on_c, 9, 42, 0
10, 8636, Note_on_c, 9, 82, 120
10, 8639, Note_on_c, 9, 42, 80
10, 8641, Note_on_c, 9, 35, 125
10, 8700, Note_on_c, 9, 82, 0
10, 8707, Note_on_c, 9, 42, 0
10, 8709, Note_on_c, 9, 35, 0
10, 8877, Note_on_c, 9, 82, 120
10, 8878, Note_on_c, 9, 42, 77
10, 8880, Note_on_c, 9, 35, 125
10, 8946, Note_on_c, 9, 82, 0
10, 8950, Note_on_c, 9, 42, 0
10, 8965, Note_on_c, 9, 35, 0
10, 9115, Note_on_c, 9, 42, 77
10, 9116, Note_on_c, 9, 37, 120
10, 9116, Note_on_c, 9, 82, 123
10, 9183, Note_on_c, 9, 82, 0
10, 9186, Note_on_c, 9, 42, 0
10, 9196, Note_on_c, 9, 37, 0
10, 9358, Note_on_c, 9, 42, 77
10, 9425, Note_on_c, 9, 42, 0
10, 9595, Note_on_c, 9, 82, 123
10, 9598, Note_on_c, 9, 35, 125
10, 9599, Note_on_c, 9, 42, 80
10, 9658, Note_on_c, 9, 82, 0
10, 9663, Note_on_c, 9, 35, 0
10, 9665, Note_on_c, 9, 42, 0
10, 9835, Note_on_c, 9, 82, 120
10, 9837, Note_on_c, 9, 35, 125
10, 9841, Note_on_c, 9, 42, 80
10, 9870, Note_on_c, 9, 82, 0
10, 9889, Note_on_c, 9, 35, 0
10, 9911, Note_on_c, 9, 42, 0
10, 9954, Note_on_c, 9, 82, 120
10, 9957, Note_on_c, 9, 35, 125
10, 10001, Note_on_c, 9, 82, 0
10, 10031, Note_on_c, 9, 35, 0
10, 10075, Note_on_c, 9, 82, 120
10, 10076, Note_on_c, 9, 37, 120
10, 10081, Note_on_c, 9, 42, 80
10, 10140, Note_on_c, 9, 82, 0
10, 10148, Note_on_c, 9, 42, 0
10, 10164, Note_on_c, 9, 37, 0
10, 10320, Note_on_c, 9, 42, 77
10, 10386, Note_on_c, 9, 42, 0
10, 10559, Note_on_c, 9, 42, 77
10, 10560, Note_on_c, 9, 35, 127
10, 10561, Note_on_c, 9, 82, 123
10, 10621, Note_on_c, 9, 82, 0
10, 10625, Note_on_c, 9, 42, 0
10, 10626, Note_on_c, 9, 35, 0
10, 10799, Note_on_c, 9, 82, 120
10, 10800, Note_on_c, 9, 35, 125
10, 10800, Note_on_c, 9, 42, 77
10, 10863, Note_on_c, 9, 82, 0
10, 10873, Note_on_c, 9, 42, 0
10, 10873, Note_on_c, 9, 35, 0
10, 11037, Note_on_c, 9, 37, 120
10, 11039, Note_on_c, 9, 42, 77
10, 11039, Note_on_c, 9, 82, 123
10, 11096, Note_on_c, 9, 82, 0
10, 11105, Note_on_c, 9, 37, 0
10, 11113, Note_on_c, 9, 42, 0
10, 11279, Note_on_c, 9, 42, 80
10, 11349, Note_on_c, 9, 42, 0
10, 11518, Note_on_c, 9, 42, 84
10, 11519, Note_on_c, 9, 82, 123
10, 11521, Note_on_c, 9, 35, 125
10, 11557, Note_on_c, 9, 42, 0
10, 11572, Note_on_c, 9, 82, 0
10, 11591, Note_on_c, 9, 35, 0
10, 11758, Note_on_c, 9, 82, 120
10, 11760, Note_on_c, 9, 35, 125
10, 11760, Note_on_c, 9, 42, 77
10, 11798, Note_on_c, 9, 82, 0
10, 11811, Note_on_c, 9, 42, 0
10, 11818, Note_on_c, 9, 35, 0
10, 11877, Note_on_c, 9, 82, 123
10, 11882, Note_on_c, 9, 35, 125
10, 11921, Note_on_c, 9, 82, 0
10, 11960, Note_on_c, 9, 35, 0
10, 11997, Note_on_c, 9, 82, 127
10, 11999, Note_on_c, 9, 42, 80
10, 12000, Note_on_c, 9, 37, 120
10, 12050, Note_on_c, 9, 42, 0
10, 12058, Note_on_c, 9, 82, 0
10, 12088, Note_on_c, 9, 37, 0
10, 12240, Note_on_c, 9, 42, 80
10, 12297, Note_on_c, 9, 42, 0
10, 12477, Note_on_c, 9, 82, 123
10, 12478, Note_on_c, 9, 35, 125
10, 12478, Note_on_c, 9, 42, 80
10, 12536, Note_on_c, 9, 42, 0
10, 12536, Note_on_c, 9, 82, 0
10, 12556, Note_on_c, 9, 35, 0
10, 12717, Note_on_c, 9, 35, 125
10, 12717, Note_on_c, 9, 82, 120
10, 12720, Note_on_c, 9, 42, 80
10, 12778, Note_on_c, 9, 42, 0
10, 12782, Note_on_c, 9, 82, 0
10, 12807, Note_on_c, 9, 35, 0
10, 12955, Note_on_c, 9, 37, 120
10, 12956, Note_on_c, 9, 82, 123
10, 12957, Note_on_c, 9, 42, 77
10, 13017, Note_on_c, 9, 42, 0
10, 13022, Note_on_c, 9, 82, 0
10, 13049, Note_on_c, 9, 37, 0
10, 13199, Note_on_c, 9, 42, 80
10, 13259, Note_on_c, 9, 42, 0
10, 13438, Note_on_c, 9, 35, 125
10, 13438, Note_on_c, 9, 82, 123
10, 13441, Note_on_c, 9, 42, 77
10, 13497, Note_on_c, 9, 82, 0
10, 13500, Note_on_c, 9, 42, 0
10, 13518, Note_on_c, 9, 35, 0
10, 13678, Note_on_c, 9, 82, 120
10, 13679, Note_on_c, 9, 35, 125
10, 13680, Note_on_c, 9, 42, 80
10, 13713, Note_on_c, 9, 82, 0
10, 13723, Note_on_c, 9, 35, 0
10, 13744, Note_on_c, 9, 42, 0
10, 13796, Note_on_c, 9, 82, 120
10, 13797, Note_on_c, 9, 35, 125
10, 13837, Note_on_c, 9, 82, 0
10, 13873, Note_on_c, 9, 35, 0
10, 13914, Note_on_c, 9, 82, 123
10, 13917, Note_on_c, 9, 37, 120
10, 13920, Note_on_c, 9, 42, 80
10, 13976, Note_on_c, 9, 82, 0
10, 13986, Note_on_c, 9, 42, 0
10, 14002, Note_on_c, 9, 37, 0
10, 14162, Note_on_c, 9, 42, 77
10, 14221, Note_on_c, 9, 42, 0
10, 14398, Note_on_c, 9, 42, 80
10, 14400, Note_on_c, 9, 82, 123
10, 14403, Note_on_c, 9, 35, 125
10, 14461, Note_on_c, 9, 82, 0
10, 14462, Note_on_c, 9, 42, 0
10, 14476, Note_on_c, 9, 35, 0
10, 14637, Note_on_c, 9, 42, 77
10, 14640, Note_on_c, 9, 82, 123
10, 14643, Note_on_c, 9, 35, 127
10, 14702, Note_on_c, 9, 42, 0
10, 14704, Note_on_c, 9, 82, 0
10, 14727, Note_on_c, 9, 35, 0
10, 14877, Note_on_c, 9, 42, 80
10, 14878, Note_on_c, 9, 37, 120
10, 14879, Note_on_c, 9, 82, 123
10, 14942, Note_on_c, 9, 82, 0
10, 14944, Note_on_c, 9, 42, 0
10, 14967, Note_on_c, 9, 37, 0
10, 15118, Note_on_c, 9, 42, 77
10, 15183, Note_on_c, 9, 42, 0
10, 15357, Note_on_c, 9, 42, 77
10, 15357, Note_on_c, 9, 82, 123
10, 15359, Note_on_c, 9, 35, 125
10, 15413, Note_on_c, 9, 82, 0
10, 15426, Note_on_c, 9, 42, 0
10, 15431, Note_on_c, 9, 35, 0
10, 15594, Note_on_c, 9, 82, 120
10, 15599, Note_on_c, 9, 35, 125
10, 15600, Note_on_c, 9, 42, 77
10, 15631, Note_on_c, 9, 82, 0
10, 15653, Note_on_c, 9, 35, 0
10, 15664, Note_on_c, 9, 42, 0
10, 15713, Note_on_c, 9, 82, 120
10, 15719, Note_on_c, 9, 35, 125
10, 15759, Note_on_c, 9, 82, 0
10, 15799, Note_on_c, 9, 35, 0
10, 15832, Note_on_c, 9, 82, 123
10, 15835, Note_on_c, 9, 37, 120
10, 15840, Note_on_c, 9, 42, 77
10, 15898, Note_on_c, 9, 82, 0
10, 15907, Note_on_c, 9, 42, 0
10, 15919, Note_on_c, 9, 37, 0
10, 16080, Note_on_c, 9, 42, 80
10, 16144, Note_on_c, 9, 42, 0
10, 16316, Note_on_c, 9, 82, 120
10, 16319, Note_on_c, 9, 42, 80
10, 16321, Note_on_c, 9, 35, 125
10, 16380, Note_on_c, 9, 82, 0
10, 16387, Note_on_c, 9, 42, 0
10, 16389, Note_on_c, 9, 35, 0
10, 16557, Note_on_c, 9, 82, 120
10, 16558, Note_on_c, 9, 42, 77
10, 16560, Note_on_c, 9, 35, 125
10, 16626, Note_on_c, 9, 82, 0
10, 16630, Note_on_c, 9, 42, 0
10, 16645, Note_on_c, 9, 35, 0
10, 16795, Note_on_c, 9, 42, 77
10, 16796, Note_on_c, 9, 37, 120
10, 16796, Note_on_c, 9, 82, 123
10, 16863, Note_on_c, 9, 82, 0
10, 16866, Note_on_c, 9, 42, 0
10, 16876, Note_on_c, 9, 37, 0
10, 17038, Note_on_c, 9, 42, 77
10, 17105, Note_on_c, 9, 42, 0
10, 17275, Note_on_c, 9, 82, 123
10, 17278, Note_on_c, 9, 35, 125
10, 17279, Note_on_c, 9, 42, 80
10, 17338, Note_on_c, 9, 82, 0
10, 17343, Note_on_c, 9, 35, 0
10, 17345, Note_on_c, 9, 42, 0
10, 17515, Note_on_c, 9, 82, 120
10, 17517, Note_on_c, 9, 35, 125
10, 17521, Note_on_c, 9, 42, 80
10, 17550, Note_on_c, 9, 82, 0
10, 17569, Note_on_c, 9, 35, 0
10, 17591, Note_on_c, 9, 42, 0
10, 17634, Note_on_c, 9, 82, 120
10, 17637, Note_on_c, 9, 35, 125
10, 17681, Note_on_c, 9, 82, 0
10, 17711, Note_on_c, 9, 35, 0
10, 17755, Note_on_c, 9, 82, 120
10, 17756, Note_on_c, 9, 37, 120
10, 17761, Note_on_c, 9, 42, 80
10, 17820, Note_on_c, 9, 82, 0
10, 17828, Note_on_c, 9, 42, 0
10, 17844, Note_on_c, 9, 37, 0
10, 18000, Note_on_c, 9, 42, 77
10, 18066, Note_on_c, 9, 42, 0
10, 18239, Note_on_c, 9, 42, 77
10, 18240, Note_on_c, 9, 35, 127
10, 18241, Note_on_c, 9, 82, 123
10, 18301, Note_on_c, 9, 82, 0
10, 18305, Note_on_c, 9, 42, 0
10, 18306, Note_on_c, 9, 35, 0
10, 18479, Note_on_c, 9, 82, 120
10, 18480, Note_on_c, 9, 35, 125
10, 18480, Note_on_c, 9, 42, 77
10, 18543, Note_on_c, 9, 82, 0
10, 18553, Note_on_c, 9, 42, 0
10, 18553, Note_on_c, 9, 35, 0
10, 18717, Note_on_c, 9, 37, 120
10, 18719, Note_on_c, 9, 42, 77
10, 18719, Note_on_c, 9, 82, 123
10, 18776, Note_on_c, 9, 82, 0
10, 18785, Note_on_c, 9, 37, 0
10, 18793, Note_on_c, 9, 42, 0
10, 18959, Note_on_c, 9, 42, 80
10, 19029, Note_on_c, 9, 42, 0
10, 19198, Note_on_c, 9, 42, 84
10, 19199, Note_on_c, 9, 82, 123
10, 19201, Note_on_c, 9, 35, 125
10, 19237, Note_on_c, 9, 42, 0
10, 19252, Note_on_c, 9, 82, 0
10, 19271, Note_on_c, 9, 35, 0
10, 19438, Note_on_c, 9, 82, 120
10, 19440, Note_on_c, 9, 35, 125
10, 19440, Note_on_c, 9, 42, 77
10, 19478, Note_on_c, 9, 82, 0
10, 19491, Note_on_c, 9, 42, 0
10, 19498, Note_on_c, 9, 35, 0
10, 19557, Note_on_c, 9, 82, 123
10, 19562, Note_on_c, 9, 35, 125
10, 19601, Note_on_c, 9, 82, 0
10, 19640, Note_on_c, 9, 35, 0
10, 19677, Note_on_c, 9, 82, 127
10, 19679, Note_on_c, 9, 42, 80
10, 19680, Note_on_c, 9, 37, 120
10, 19730, Note_on_c, 9, 42, 0
10, 19738, Note_on_c, 9, 82, 0
10, 19768, Note_on_c, 9, 37, 0
10, 19920, Note_on_c, 9, 42, 80
10, 19977, Note_on_c, 9, 42, 0
10, 20157, Note_on_c, 9, 82, 123
10, 20158, Note_on_c, 9, 35, 125
10, 20158, Note_on_c, 9, 42, 80
10, 20216, Note_on_c, 9, 42, 0
10, 20216, Note_on_c, 9, 82, 0
10, 20236, Note_on_c, 9, 35, 0
10, 20397, Note_on_c, 9, 35, 125
10, 20397, Note_on_c, 9, 82, 120
10, 20400, Note_on_c, 9, 42, 80
10, 20458, Note_on_c, 9, 42, 0
10, 20462, Note_on_c, 9, 82, 0
10, 20487, Note_on_c, 9, 35, 0
10, 20635, Note_on_c, 9, 37, 120
10, 20636, Note_on_c, 9, 82, 123
10, 20637, Note_on_c, 9, 42, 77
10, 20697, Note_on_c, 9, 42, 0
10, 20702, Note_on_c, 9, 82, 0
10, 20729, Note_on_c, 9, 37, 0
10, 20879, Note_on_c, 9, 42, 80
10, 20939, Note_on_c, 9, 42, 0
10, 21118, Note_on_c, 9, 35, 125
10, 21118, Note_on_c, 9, 82, 123
10, 21121, Note_on_c, 9, 42, 77
10, 21177, Note_on_c, 9, 82, 0
10, 21180, Note_on_c, 9, 42, 0
10, 21198, Note_on_c, 9, 35, 0
10, 21358, Note_on_c, 9, 82, 120
10, 21359, Note_on_c, 9, 35, 125
10, 21360, Note_on_c, 9, 42, 80
10, 21393, Note_on_c, 9, 82, 0
10, 21403, Note_on_c, 9, 35, 0
10, 21424, Note_on_c, 9, 42, 0
10, 21476, Note_on_c, 9, 82, 120
10, 21477, Note_on_c, 9, 35, 125
10, 21517, Note_on_c, 9, 82, 0
10, 21553, Note_on_c, 9, 35, 0
10, 21594, Note_on_c, 9, 82, 123
10, 21597, Note_on_c, 9, 37, 120
10, 21600, Note_on_c, 9, 42, 80
10, 21656, Note_on_c, 9, 82, 0
10, 21666, Note_on_c, 9, 42, 0
10, 21682, Note_on_c, 9, 37, 0
10, 21842, Note_on_c, 9, 42, 77
10, 21901, Note_on_c, 9, 42, 0
10, 22078, Note_on_c, 9, 42, 80
10, 22080, Note_on_c, 9, 82, 123
10, 22083, Note_on_c, 9, 35, 125
10, 22141, Note_on_c, 9, 82, 0
10, 22142, Note_on_c, 9, 42, 0
10, 22156, Note_on_c, 9, 35, 0
10, 22317, Note_on_c, 9, 42, 77
10, 22320, Note_on_c, 9, 82, 123
10, 22323, Note_on_c, 9, 35, 127
10, 22382, Note_on_c, 9, 42, 0
10, 22384, Note_on_c, 9, 82, 0
10, 22407, Note_on_c, 9, 35, 0
10, 22557, Note_on_c, 9, 42, 80
10, 22558, Note_on_c, 9, 37, 120
10, 22559, Note_on_c, 9, 82, 123
10, 22622, Note_on_c, 9, 82, 0
10, 22624, Note_on_c, 9, 42, 0
10, 22647, Note_on_c, 9, 37, 0
10, 22798, Note_on_c, 9, 42, 77
10, 22863, Note_on_c, 9, 42, 0
10, 23037, Note_on_c, 9, 42, 77
10, 23037, Note_on_c, 9, 82, 123
10, 23039, Note_on_c, 9, 35, 125
10, 23093, Note_on_c, 9, 82, 0
10, 23106, Note_on_c, 9, 42, 0
10, 23111, Note_on_c, 9, 35, 0
10, 23274, Note_on_c, 9, 82, 120
10, 23279, Note_on_c, 9, 35, 125
10, 23280, Note_on_c, 9, 42, 77
10, 23311, Note_on_c, 9, 82, 0
10, 23333, Note_on_c, 9, 35, 0
10, 23344, Note_on_c, 9, 42, 0
10, 23393, Note_on_c, 9, 82, 120
10, 23399, Note_on_c, 9, 35, 125
10, 23439, Note_on_c, 9, 82, 0
10, 23479, Note_on_c, 9, 35, 0
10, 23512, Note_on_c, 9, 82, 123
10, 23515, Note_on_c, 9, 37, 120
10, 23520, Note_on_c, 9, 42, 77
10, 23578, Note_on_c, 9, 82, 0
10, 23587, Note_on_c, 9, 42, 0
10, 23599, Note_on_c, 9, 37, 0
10, 23760, Note_on_c, 9, 42, 80
10, 23824, Note_on_c, 9, 42, 0
10, 23996, Note_on_c, 9, 82, 120
10, 23999, Note_on_c, 9, 42, 80
10, 24001, Note_on_c, 9, 35, 125
10, 24060, Note_on_c, 9, 82, 0
10, 24067, Note_on_c, 9, 42, 0
10, 24069, Note_on_c, 9, 35, 0
10, 24237, Note_on_c, 9, 82, 120
10, 24238, Note_on_c, 9, 42, 77
10, 24240, Note_on_c, 9, 35, 125
10, 24306, Note_on_c, 9, 82, 0
10, 24310, Note_on_c, 9, 42, 0
10, 24325, Note_on_c, 9, 35, 0
10, 24475, Note_on_c, 9, 42, 77
10, 24476, Note_on_c, 9, 37, 120
10, 24476, Note_on_c, 9, 82, 123
10, 24543, Note_on_c, 9, 82, 0
10, 24546, Note_on_c, 9, 42, 0
10, 24556, Note_on_c, 9, 37, 0
10, 24718, Note_on_c, 9, 42, 77
10, 24785, Note_on_c, 9, 42, 0
10, 24955, Note_on_c, 9, 82, 123
10, 24958, Note_on_c, 9, 35, 125
10, 24959, Note_on_c, 9, 42, 80
10, 25018, Note_on_c, 9, 82, 0
10, 25023, Note_on_c, 9, 35, 0
10, 25025, Note_on_c, 9, 42, 0
10, 25195, Note_on_c, 9, 82, 120
10, 25197, Note_on_c, 9, 35, 125
10, 25201, Note_on_c, 9, 42, 80
10, 25230, Note_on_c, 9, 82, 0
10, 25249, Note_on_c, 9, 35, 0
10, 25271, Note_on_c, 9, 42, 0
10, 25314, Note_on_c, 9, 82, 120
10, 25317, Note_on_c, 9, 35, 125
10, 25361, Note_on_c, 9, 82, 0
10, 25391, Note_on_c, 9, 35, 0
10, 25435, Note_on_c, 9, 82, 120
10, 25436, Note_on_c, 9, 37, 120
10, 25441, Note_on_c, 9, 42, 80
10, 25500, Note_on_c, 9, 82, 0
10, 25508, Note_on_c, 9, 42, 0
10, 25524, Note_on_c, 9, 37, 0
10, 25680, Note_on_c, 9, 42, 77
10, 25746, Note_on_c, 9, 42, 0
10, 25919, Note_on_c, 9, 42, 77
10, 25920, Note_on_c, 9, 35, 127
10, 25921, Note_on_c, 9, 82, 123
10, 25981, Note_on_c, 9, 82, 0
10, 25985, Note_on_c, 9, 42, 0
10, 25986, Note_on_c, 9, 35, 0
10, 26159, Note_on_c, 9, 82, 120
10, 26160, Note_on_c, 9, 35, 125
10, 26160, Note_on_c, 9, 42, 77
10, 26223, Note_on_c, 9, 82, 0
10, 26233, Note_on_c, 9, 42, 0
10, 26233, Note_on_c, 9, 35, 0
10, 26397, Note_on_c, 9, 37, 120
10, 26399, Note_on_c, 9, 42, 77
10, 26399, Note_on_c, 9, 82, 123
10, 26456, Note_on_c, 9, 82, 0
10, 26465, Note_on_c, 9, 37, 0
10, 26473, Note_on_c, 9, 42, 0
10, 26639, Note_on_c, 9, 42, 80
10, 26709, Note_on_c, 9, 42, 0
10, 26875, Note_on_c, 9, 82, 123
10, 26878, Note_on_c, 9, 35, 125
10, 26879, Note_on_c, 9, 42, 80
10, 26881, Note_on_c, 9, 42, 77
10, 26938, Note_on_c, 9, 82, 0
10, 26940, Note_on_c, 9, 42, 0
10, 26943, Note_on_c, 9, 35, 0
10, 26945, Note_on_c, 9, 42, 0
10, 27118, Note_on_c, 9, 82, 120
10, 27119, Note_on_c, 9, 35, 125
10, 27120, Note_on_c, 9, 42, 80
10, 27153, Note_on_c, 9, 82, 0
10, 27163, Note_on_c, 9, 35, 0
10, 27184, Note_on_c, 9, 42, 0
10, 27236, Note_on_c, 9, 82, 120
10, 27237, Note_on_c, 9, 35, 125
10, 27277, Note_on_c, 9, 82, 0
10, 27313, Note_on_c, 9, 35, 0
10, 27354, Note_on_c, 9, 82, 123
10, 27357, Note_on_c, 9, 37, 120
10, 27360, Note_on_c, 9, 42, 80
10, 27416, Note_on_c, 9, 82, 0
10, 27426, Note_on_c, 9, 42, 0
10, 27444, Note_on_c, 9, 37, 0
10, 27602, Note_on_c, 9, 42, 77
10, 27661, Note_on_c, 9, 42, 0
10, 27838, Note_on_c, 9, 42, 80
10, 27840, Note_on_c, 9, 82, 123
10, 27843, Note_on_c, 9, 35, 125
10, 27901, Note_on_c, 9, 82, 0
10, 27902, Note_on_c, 9, 42, 0
10, 27916, Note_on_c, 9, 35, 0
10, 28077, Note_on_c, 9, 42, 77
10, 28080, Note_on_c, 9, 82, 123
10, 28083, Note_on_c, 9, 35, 127
10, 28142, Note_on_c, 9, 42, 0
10, 28144, Note_on_c, 9, 82, 0
10, 28167, Note_on_c, 9, 35, 0
10, 28317, Note_on_c, 9, 42, 80
10, 28318, Note_on_c, 9, 37, 120
10, 28319, Note_on_c, 9, 82, 123
10, 28382, Note_on_c, 9, 82, 0
10, 28384, Note_on_c, 9, 42, 0
10, 28407, Note_on_c, 9, 37, 0
10, 28558, Note_on_c, 9, 42, 77
10, 28623, Note_on_c, 9, 42, 0
10, 28797, Note_on_c, 9, 42, 77
10, 28797, Note_on_c, 9, 82, 123
10, 28799, Note_on_c, 9, 35, 125
10, 28853, Note_on_c, 9, 82, 0
10, 28866, Note_on_c, 9, 42, 0
10, 28871, Note_on_c, 9, 35, 0
10, 29034, Note_on_c, 9, 82, 120
10, 29039, Note_on_c, 9, 35, 125
10, 29040, Note_on_c, 9, 42, 77
10, 29071, Note_on_c, 9, 82, 0
10, 29093, Note_on_c, 9, 35, 0
10, 29104, Note_on_c, 9, 42, 0
10, 29153, Note_on_c, 9, 82, 120
10, 29159, Note_on_c, 9, 35, 125
10, 29199, Note_on_c, 9, 82, 0
10, 29239, Note_on_c, 9, 35, 0
10, 29272, Note_on_c, 9, 82, 123
10, 29275, Note_on_c, 9, 37, 120
10, 29280, Note_on_c, 9, 42, 77
10, 29338, Note_on_c, 9, 82, 0
10, 29347, Note_on_c, 9, 42, 0
10, 29359, Note_on_c, 9, 37, 0
10, 29520, Note_on_c, 9, 42, 80
10, 29584, Note_on_c, 9, 42, 0
10, 29756, Note_on_c, 9, 82, 120
10, 29759, Note_on_c, 9, 42, 80
10, 29761, Note_on_c, 9, 35, 125
10, 29820, Note_on_c, 9, 82, 0
10, 29827, Note_on_c, 9, 42, 0
10, 29829, Note_on_c, 9, 35, 0
10, 29997, Note_on_c, 9, 82, 120
10, 29998, Note_on_c, 9, 42, 77
10, 30000, Note_on_c, 9, 35, 125
10, 30066, Note_on_c, 9, 82, 0
10, 30070, Note_on_c, 9, 42, 0
10, 30085, Note_on_c, 9, 35, 0
10, 30235, Note_on_c, 9, 42, 77
10, 30236, Note_on_c, 9, 37, 120
10, 30236, Note_on_c, 9, 82, 123
10, 30303, Note_on_c, 9, 82, 0
10, 30306, Note_on_c, 9, 42, 0
10, 30316, Note_on_c, 9, 37, 0
10, 30478, Note_on_c, 9, 42, 77
10, 30545, Note_on_c, 9, 42, 0
10, 30715, Note_on_c, 9, 82, 123
10, 30718, Note_on_c, 9, 35, 125
10, 30719, Note_on_c, 9, 42, 80
10, 30721, Note_on_c, 9, 42, 77
10, 30778, Note_on_c, 9, 82, 0
10, 30780, Note_on_c, 9, 42, 0
10, 30783, Note_on_c, 9, 35, 0
10, 30785, Note_on_c, 9, 42, 0
10, 30958, Note_on_c, 9, 82, 120
10, 30959, Note_on_c, 9, 35, 125
10, 30960, Note_on_c, 9, 42, 80
10, 30993, Note_on_c, 9, 82, 0
10, 31003, Note_on_c, 9, 35, 0
10, 31024, Note_on_c, 9, 42, 0
10, 31076, Note_on_c, 9, 82, 120
10, 31077, Note_on_c, 9, 35, 125
10, 31117, Note_on_c, 9, 82, 0
10, 31153, Note_on_c, 9, 35, 0
10, 31194, Note_on_c, 9, 82, 123
10, 31197, Note_on_c, 9, 37, 120
10, 31200, Note_on_c, 9, 42, 80
10, 31256, Note_on_c, 9, 82, 0
10, 31266, Note_on_c, 9, 42, 0
10, 31284, Note_on_c, 9, 37, 0
10, 31442, Note_on_c, 9, 42, 77
10, 31501, Note_on_c, 9, 42, 0
10, 31678, Note_on_c, 9, 42, 80
10, 31680, Note_on_c, 9, 82, 123
10, 31683, Note_on_c, 9, 35, 125
10, 31741, Note_on_c, 9, 82, 0
10, 31742, Note_on_c, 9, 42, 0
10, 31756, Note_on_c, 9, 35, 0
10, 31917, Note_on_c, 9, 42, 77
10, 31920, Note_on_c, 9, 82, 123
10, 31923, Note_on_c, 9, 35, 127
10, 31982, Note_on_c, 9, 42, 0
10, 31984, Note_on_c, 9, 82, 0
10, 32007, Note_on_c, 9, 35, 0
10, 32157, Note_on_c, 9, 42, 80
10, 32158, Note_on_c, 9, 37, 120
10, 32159, Note_on_c, 9, 82, 123
10, 32222, Note_on_c, 9, 82, 0
10, 32224, Note_on_c, 9, 42, 0
10, 32247, Note_on_c, 9, 37, 0
10, 32398, Note_on_c, 9, 42, 77
10, 32463, Note_on_c, 9, 42, 0
10, 32637, Note_on_c, 9, 42, 77
10, 32637, Note_on_c, 9, 82, 123
10, 32639, Note_on_c, 9, 35, 125
10, 32693, Note_on_c, 9, 82, 0
10, 32706, Note_on_c, 9, 42, 0
10, 32711, Note_on_c, 9, 35, 0
10, 32874, Note_on_c, 9, 82, 120
10, 32879, Note_on_c, 9, 35, 125
10, 32880, Note_on_c, 9, 42, 77
10, 32911, Note_on_c, 9, 82, 0
10, 32933, Note_on_c, 9, 35, 0
10, 32944, Note_on_c, 9, 42, 0
10, 32993, Note_on_c, 9, 82, 120
10, 32999, Note_on_c, 9, 35, 125
10, 33039, Note_on_c, 9, 82, 0
10, 33079, Note_on_c, 9, 35, 0
10, 33112, Note_on_c, 9, 82, 123
10, 33115, Note_on_c, 9, 37, 120
10, 33120, Note_on_c, 9, 42, 77
10, 33178, Note_on_c, 9, 82, 0
10, 33187, Note_on_c, 9, 42, 0
10, 33199, Note_on_c, 9, 37, 0
10, 33360, Note_on_c, 9, 42, 80
10, 33424, Note_on_c, 9, 42, 0
10, 33596, Note_on_c, 9, 82, 120
10, 33599, Note_on_c, 9, 42, 80
10, 33601, Note_on_c, 9, 35, 125
10, 33660, Note_on_c, 9, 82, 0
10, 33667, Note_on_c, 9, 42, 0
10, 33669, Note_on_c, 9, 35, 0
10, 33837, Note_on_c, 9, 82, 120
10, 33838, Note_on_c, 9, 42, 77
10, 33840, Note_on_c, 9, 35, 125
10, 33906, Note_on_c, 9, 82, 0
10, 33910, Note_on_c, 9, 42, 0
10, 33925, Note_on_c, 9, 35, 0
10, 34075, Note_on_c, 9, 42, 77
10, 34076, Note_on_c, 9, 37, 120
10, 34076, Note_on_c, 9, 82, 123
10, 34143, Note_on_c, 9, 82, 0
10, 34146, Note_on_c, 9, 42, 0
10, 34156, Note_on_c, 9, 37, 0
10, 34318, Note_on_c, 9, 42, 77
10, 34385, Note_on_c, 9, 42, 0
10, 34555, Note_on_c, 9, 82, 123
10, 34558, Note_on_c, 9, 35, 125
10, 34559, Note_on_c, 9, 42, 80
10, 34618, Note_on_c, 9, 82, 0
10, 34623, Note_on_c, 9, 35, 0
10, 34625, Note_on_c, 9, 42, 0
10, 34795, Note_on_c, 9, 82, 120
10, 34797, Note_on_c, 9, 35, 125
10, 34801, Note_on_c, 9, 42, 80
10, 34830, Note_on_c, 9, 82, 0
10, 34849, Note_on_c, 9, 35, 0
10, 34871, Note_on_c, 9, 42, 0
10, 34914, Note_on_c, 9, 82, 120
10, 34917, Note_on_c, 9, 35, 125
10, 34961, Note_on_c, 9, 82, 0
10, 34991, Note_on_c, 9, 35, 0
10, 35035, Note_on_c, 9, 82, 120
10, 35036, Note_on_c, 9, 37, 120
10, 35041, Note_on_c, 9, 42, 80
10, 35100, Note_on_c, 9, 82, 0
10, 35108, Note_on_c, 9, 42, 0
10, 35124, Note_on_c, 9, 37, 0
10, 35280, Note_on_c, 9, 42, 77
10, 35346, Note_on_c, 9, 42, 0
10, 35519, Note_on_c, 9, 42, 77
10, 35520, Note_on_c, 9, 35, 127
10, 35521, Note_on_c, 9, 82, 123
10, 35581, Note_on_c, 9, 82, 0
10, 35585, Note_on_c, 9, 42, 0
10, 35586, Note_on_c, 9, 35, 0
10, 35759, Note_on_c, 9, 82, 120
10, 35760, Note_on_c, 9, 35, 125
10, 35760, Note_on_c, 9, 42, 77
10, 35823, Note_on_c, 9, 82, 0
10, 35833, Note_on_c, 9, 42, 0
10, 35833, Note_on_c, 9, 35, 0
10, 35997, Note_on_c, 9, 37, 120
10, 35999, Note_on_c, 9, 42, 77
10, 35999, Note_on_c, 9, 82, 123
10, 36056, Note_on_c, 9, 82, 0
10, 36065, Note_on_c, 9, 37, 0
10, 36073, Note_on_c, 9, 42, 0
10, 36239, Note_on_c, 9, 42, 80
10, 36309, Note_on_c, 9, 42, 0
10, 36478, Note_on_c, 9, 42, 84
10, 36479, Note_on_c, 9, 82, 123
10, 36481, Note_on_c, 9, 35, 125
10, 36517, Note_on_c, 9, 42, 0
10, 36532, Note_on_c, 9, 82, 0
10, 36551, Note_on_c, 9, 35, 0
10, 36718, Note_on_c, 9, 82, 120
10, 36720, Note_on_c, 9, 35, 125
10, 36720, Note_on_c, 9, 42, 77
10, 36758, Note_on_c, 9, 82, 0
10, 36771, Note_on_c, 9, 42, 0
10, 36778, Note_on_c, 9, 35, 0
10, 36837, Note_on_c, 9, 82, 123
10, 36842, Note_on_c, 9, 35, 125
10, 36881, Note_on_c, 9, 82, 0
10, 36920, Note_on_c, 9, 35, 0
10, 36957, Note_on_c, 9, 82, 127
10, 36959, Note_on_c, 9, 42, 80
10, 36960, Note_on_c, 9, 37, 120
10, 37010, Note_on_c, 9, 42, 0
10, 37018, Note_on_c, 9, 82, 0
10, 37048, Note_on_c, 9, 37, 0
10, 37200, Note_on_c, 9, 42, 80
10, 37257, Note_on_c, 9, 42, 0
10, 37437, Note_on_c, 9, 82, 123
10, 37438, Note_on_c, 9, 35, 125
10, 37438, Note_on_c, 9, 42, 80
10, 37496, Note_on_c, 9, 42, 0
10, 37496, Note_on_c, 9, 82, 0
10, 37516, Note_on_c, 9, 35, 0
10, 37677, Note_on_c, 9, 35, 125
10, 37677, Note_on_c, 9, 82, 120
10, 37680, Note_on_c, 9, 42, 80
10, 37738, Note_on_c, 9, 42, 0
10, 37742, Note_on_c, 9, 82, 0
10, 37767, Note_on_c, 9, 35, 0
10, 37915, Note_on_c, 9, 37, 120
10, 37916, Note_on_c, 9, 82, 123
10, 37917, Note_on_c, 9, 42, 77
10, 37977, Note_on_c, 9, 42, 0
10, 37982, Note_on_c, 9, 82, 0
10, 38009, Note_on_c, 9, 37, 0
10, 38159, Note_on_c, 9, 42, 80
10, 38219, Note_on_c, 9, 42, 0
10, 38398, Note_on_c, 9, 35, 125
10, 38398, Note_on_c, 9, 82, 123
10, 38401, Note_on_c, 9, 42, 77
10, 38457, Note_on_c, 9, 82, 0
10, 38460, Note_on_c, 9, 42, 0
10, 38478, Note_on_c, 9, 35, 0
10, 38638, Note_on_c, 9, 82, 120
10, 38639, Note_on_c, 9, 35, 125
10, 38640, Note_on_c, 9, 42, 80
10, 38673, Note_on_c, 9, 82, 0
10, 38683, Note_on_c, 9, 35, 0
10, 38704, Note_on_c, 9, 42, 0
10, 38756, Note_on_c, 9, 82, 120
10, 38757, Note_on_c, 9, 35, 125
10, 38797, Note_on_c, 9, 82, 0
10, 38833, Note_on_c, 9, 35, 0
10, 38874, Note_on_c, 9, 82, 123
10, 38877, Note_on_c, 9, 37, 120
10, 38880, Note_on_c, 9, 42, 80
10, 38936, Note_on_c, 9, 82, 0
10, 38946, Note_on_c, 9, 42, 0
10, 38962, Note_on_c, 9, 37, 0
10, 39122, Note_on_c, 9, 42, 77
10, 39181, Note_on_c, 9, 42, 0
10, 39358, Note_on_c, 9, 42, 80
10, 39360, Note_on_c, 9, 82, 123
10, 39363, Note_on_c, 9, 35, 125
10, 39421, Note_on_c, 9, 82, 0
10, 39422, Note_on_c, 9, 42, 0
10, 39436, Note_on_c, 9, 35, 0
10, 39597, Note_on_c, 9, 42, 77
10, 39600, Note_on_c, 9, 82, 123
10, 39603, Note_on_c, 9, 35, 127
10, 39662, Note_on_c, 9, 42, 0
10, 39664, Note_on_c, 9, 82, 0
10, 39687, Note_on_c, 9, 35, 0
10, 39837, Note_on_c, 9, 42, 80
10, 39838, Note_on_c, 9, 37, 120
10, 39839, Note_on_c, 9, 82, 123
10, 39902, Note_on_c, 9, 82, 0
10, 39904, Note_on_c, 9, 42, 0
10, 39927, Note_on_c, 9, 37, 0
10, 40078, Note_on_c, 9, 42, 77
10, 40143, Note_on_c, 9, 42, 0
10, 40317, Note_on_c, 9, 42, 77
10, 40317, Note_on_c, 9, 82, 123
10, 40319, Note_on_c, 9, 35, 125
10, 40373, Note_on_c, 9, 82, 0
10, 40386, Note_on_c, 9, 42, 0
10, 40391, Note_on_c, 9, 35, 0
10, 40554, Note_on_c, 9, 82, 120
10, 40559, Note_on_c, 9, 35, 125
10, 40560, Note_on_c, 9, 42, 77
10, 40591, Note_on_c, 9, 82, 0
10, 40613, Note_on_c, 9, 35, 0
10, 40624, Note_on_c, 9, 42, 0
10, 40673, Note_on_c, 9, 82, 120
10, 40679, Note_on_c, 9, 35, 125
10, 40719, Note_on_c, 9, 82, 0
10, 40759, Note_on_c, 9, 35, 0
10, 40792, Note_on_c, 9, 82, 123
10, 40795, Note_on_c, 9, 37, 120
10, 40800, Note_on_c, 9, 42, 77
10, 40858, Note_on_c, 9, 82, 0
10, 40867, Note_on_c, 9, 42, 0
10, 40879, Note_on_c, 9, 37, 0
10, 41040, Note_on_c, 9, 42, 80
10, 41104, Note_on_c, 9, 42, 0
10, 41276, Note_on_c, 9, 82, 120
10, 41279, Note_on_c, 9, 42, 80
10, 41281, Note_on_c, 9, 35, 125
10, 41340, Note_on_c, 9, 82, 0
10, 41347, Note_on_c, 9, 42, 0
10, 41349, Note_on_c, 9, 35, 0
10, 41517, Note_on_c, 9, 82, 120
10, 41518, Note_on_c, 9, 42, 77
10, 41520, Note_on_c, 9, 35, 125
10, 41586, Note_on_c, 9, 82, 0
10, 41590, Note_on_c, 9, 42, 0
10, 41605, Note_on_c, 9, 35, 0
10, 41755, Note_on_c, 9, 42, 77
10, 41756, Note_on_c, 9, 37, 120
10, 41756, Note_on_c, 9, 82, 123
10, 41823, Note_on_c, 9, 82, 0
10, 41826, Note_on_c, 9, 42, 0
10, 41836, Note_on_c, 9, 37, 0
10, 41998, Note_on_c, 9, 42, 77
10, 42065, Note_on_c, 9, 42, 0
10, 42235, Note_on_c, 9, 82, 123
10, 42238, Note_on_c, 9, 35, 125
10, 42239, Note_on_c, 9, 42, 80
10, 42298, Note_on_c, 9, 82, 0
10, 42303, Note_on_c, 9, 35, 0
10, 42305, Note_on_c, 9, 42, 0
10, 42475, Note_on_c, 9, 82, 120
10, 42477, Note_on_c, 9, 35, 125
10, 42481, Note_on_c, 9, 42, 80
10, 42510, Note_on_c, 9, 82, 0
10, 42529, Note_on_c, 9, 35, 0
10, 42551, Note_on_c, 9, 42, 0
10, 42594, Note_on_c, 9, 82, 120
10, 42597, Note_on_c, 9, 35, 125
10, 42641, Note_on_c, 9, 82, 0
10, 42671, Note_on_c, 9, 35, 0
10, 42715, Note_on_c, 9, 82, 120
10, 42716, Note_on_c, 9, 37, 120
10, 42721, Note_on_c, 9, 42, 80
10, 42780, Note_on_c, 9, 82, 0
10, 42788, Note_on_c, 9, 42, 0
10, 42804, Note_on_c, 9, 37, 0
10, 42960, Note_on_c, 9, 42, 77
10, 43026, Note_on_c, 9, 42, 0
10, 43199, Note_on_c, 9, 42, 77
10, 43200, Note_on_c, 9, 35, 127
10, 43201, Note_on_c, 9, 82, 123
10, 43261, Note_on_c, 9, 82, 0
10, 43265, Note_on_c, 9, 42, 0
10, 43266, Note_on_c, 9, 35, 0
10, 43439, Note_on_c, 9, 82, 120
10, 43440, Note_on_c, 9, 35, 125
10, 43440, Note_on_c, 9, 42, 77
10, 43503, Note_on_c, 9, 82, 0
10, 43513, Note_on_c, 9, 42, 0
10, 43513, Note_on_c, 9, 35, 0
10, 43677, Note_on_c, 9, 37, 120
10, 43679, Note_on_c, 9, 42, 77
10, 43679, Note_on_c, 9, 82, 123
10, 43736, Note_on_c, 9, 82, 0
10, 43745, Note_on_c, 9, 37, 0
10, 43753, Note_on_c, 9, 42, 0
10, 43919, Note_on_c, 9, 42, 80
10, 43989, Note_on_c, 9, 42, 0
10, 44158, Note_on_c, 9, 42, 84
10, 44159, Note_on_c, 9, 82, 123
10, 44161, Note_on_c, 9, 35, 125
10, 44197, Note_on_c, 9, 42, 0
10, 44212, Note_on_c, 9, 82, 0
10, 44231, Note_on_c, 9, 35, 0
10, 44398, Note_on_c, 9, 82, 120
10, 44400, Note_on_c, 9, 35, 125
10, 44400, Note_on_c, 9, 42, 77
10, 44438, Note_on_c, 9, 82, 0
10, 44451, Note_on_c, 9, 42, 0
10, 44458, Note_on_c, 9, 35, 0
10, 44517, Note_on_c, 9, 82, 123
10, 44522, Note_on_c, 9, 35, 125
10, 44561, Note_on_c, 9, 82, 0
10, 44600, Note_on_c, 9, 35, 0
10, 44637, Note_on_c, 9, 82, 127
10, 44639, Note_on_c, 9, 42, 80
10, 44640, Note_on_c, 9, 37, 120
10, 44690, Note_on_c, 9, 42, 0
10, 44698, Note_on_c, 9, 82, 0
10, 44728, Note_on_c, 9, 37, 0
10, 44880, Note_on_c, 9, 42, 80
10, 44937, Note_on_c, 9, 42, 0
10, 45117, Note_on_c, 9, 82, 123
10, 45118, Note_on_c, 9, 35, 125
10, 45118, Note_on_c, 9, 42, 80
10, 45176, Note_on_c, 9, 42, 0
10, 45176, Note_on_c, 9, 82, 0
10, 45196, Note_on_c, 9, 35, 0
10, 45357, Note_on_c, 9, 35, 125
10, 45357, Note_on_c, 9, 82, 120
10, 45360, Note_on_c, 9, 42, 80
10, 45418, Note_on_c, 9, 42, 0
10, 45422, Note_on_c, 9, 82, 0
10, 45447, Note_on_c, 9, 35, 0
10, 45595, Note_on_c, 9, 37, 120
10, 45596, Note_on_c, 9, 82, 123
10, 45597, Note_on_c, 9, 42, 77
10, 45657, Note_on_c, 9, 42, 0
10, 45662, Note_on_c, 9, 82, 0
10, 45689, Note_on_c, 9, 37, 0
10, 45839, Note_on_c, 9, 42, 80
10, 45899, Note_on_c, 9, 42, 0
10, 46078, Note_on_c, 9, 35, 125
10, 46078, Note_on_c, 9, 82, 123
10, 46080, Note_on_c, 9, 35, 115
10, 46080, Note_on_c, 9, 82, 123
10, 46086, Note_on_c, 9, 82, 0
10, 46086, Note_on_c, 9, 35, 0
10, 46137, Note_on_c, 9, 82, 0
10, 46158, Note_on_c, 9, 35, 0
10, 46200, Note_on_c, 9, 35, 71
10, 46206, Note_on_c, 9, 35, 0
10, 46320, Note_on_c, 9, 35, 103
10, 46320, Note_on_c, 9, 82, 123
10, 46326, Note_on_c, 9, 82, 0
10, 46326, Note_on_c, 9, 35, 0
10, 46440, Note_on_c, 9, 35, 97
10, 46440, Note_on_c, 9, 82, 123
10, 46446, Note_on_c, 9, 82, 0
10, 46446, Note_on_c, 9, 35, 0
10, 46560, Note_on_c, 9, 28, 73
10, 46560, Note_on_c, 9, 37, 120
10, 46560, Note_on_c, 9, 42, 74
10, 46560, Note_on_c, 9, 82, 123
10, 46566, Note_on_c, 9, 82, 0
10, 46566, Note_on_c, 9, 28, 0
10, 46566, Note_on_c, 9, 37, 0
10, 46566, Note_on_c, 9, 42, 0
10, 46642, Note_on_c, 9, 37, 0
10, 46680, Note_on_c, 9, 35, 103
10, 46686, Note_on_c, 9, 35, 0
10, 46800, Note_on_c, 9, 35, 41
10, 46800, Note_on_c, 9, 42, 55
10, 46806, Note_on_c, 9, 42, 0
10, 46806, Note_on_c, 9, 35, 0
10, 46920, Note_on_c, 9, 35, 103
10, 46926, Note_on_c, 9, 35, 0
10, 47040, Note_on_c, 9, 35, 115
10, 47040, Note_on_c, 9, 82, 123
10, 47046, Note_on_c, 9, 82, 0
10, 47046, Note_on_c, 9, 35, 0
10, 47160, Note_on_c, 9, 35, 71
10, 47166, Note_on_c, 9, 35, 0
10, 47280, Note_on_c, 9, 35, 115
10, 47280, Note_on_c, 9, 82, 123
10, 47286, Note_on_c, 9, 82, 0
10, 47286, Note_on_c, 9, 35, 0
10, 47400, Note_on_c, 9, 35, 103
10, 47406, Note_on_c, 9, 35, 0
10, 47520, Note_on_c, 9, 28, 73
10, 47520, Note_on_c, 9, 37, 120
10, 47520, Note_on_c, 9, 42, 76
10, 47520, Note_on_c, 9, 82, 123
10, 47526, Note_on_c, 9, 82, 0
10, 47526, Note_on_c, 9, 28, 0
10, 47526, Note_on_c, 9, 37, 0
10, 47526, Note_on_c, 9, 42, 0
10, 47760, Note_on_c, 9, 35, 42
10, 47760, Note_on_c, 9, 42, 55
10, 47766, Note_on_c, 9, 42, 0
10, 47766, Note_on_c, 9, 35, 0
10, 48000, Note_on_c, 9, 35, 115
10, 48000, Note_on_c, 9, 82, 123
10, 48006, Note_on_c, 9, 82, 0
10, 48006, Note_on_c, 9, 35, 0
10, 48240, Note_on_c, 9, 35, 103
10, 48240, Note_on_c, 9, 82, 123
10, 48246, Note_on_c, 9, 82, 0
10, 48246, Note_on_c, 9, 35, 0
10, 48360, Note_on_c, 9, 35, 97
10, 48360, Note_on_c, 9, 82, 123
10, 48366, Note_on_c, 9, 82, 0
10, 48366, Note_on_c, 9, 35, 0
10, 48480, Note_on_c, 9, 28, 73
10, 48480, Note_on_c, 9, 37, 120
10, 48480, Note_on_c, 9, 42, 74
10, 48480, Note_on_c, 9, 82, 123
10, 48486, Note_on_c, 9, 82, 0
10, 48486, Note_on_c, 9, 28, 0
10, 48486, Note_on_c, 9, 37, 0
10, 48486, Note_on_c, 9, 42, 0
10, 48720, Note_on_c, 9, 35, 41
10, 48720, Note_on_c, 9, 42, 55
10, 48726, Note_on_c, 9, 42, 0
10, 48726, Note_on_c, 9, 35, 0
10, 48960, Note_on_c, 9, 35, 115
10, 48960, Note_on_c, 9, 82, 123
10, 48966, Note_on_c, 9, 82, 0
10, 48966, Note_on_c, 9, 35, 0
10, 49200, Note_on_c, 9, 35, 115
10, 49200, Note_on_c, 9, 82, 123
10, 49206, Note_on_c, 9, 82, 0
10, 49206, Note_on_c, 9, 35, 0
10, 49440, Note_on_c, 9, 28, 73
10, 49440, Note_on_c, 9, 37, 120
10, 49440, Note_on_c, 9, 42, 76
10, 49440, Note_on_c, 9, 82, 123
10, 49446, Note_on_c, 9, 82, 0
10, 49446, Note_on_c, 9, 28, 0
10, 49446, Note_on_c, 9, 37, 0
10, 49446, Note_on_c, 9, 42, 0
10, 49680, Note_on_c, 9, 35, 42
10, 49680, Note_on_c, 9, 42, 55
10, 49686, Note_on_c, 9, 42, 0
10, 49686, Note_on_c, 9, 35, 0
10, 49920, Note_on_c, 9, 35, 115
10, 49920, Note_on_c, 9, 82, 123
10, 49926, Note_on_c, 9, 82, 0
10, 49926, Note_on_c, 9, 35, 0
10, 50160, Note_on_c, 9, 35, 103
10, 50160, Note_on_c, 9, 82, 123
10, 50166, Note_on_c, 9, 82, 0
10, 50166, Note_on_c, 9, 35, 0
10, 50280, Note_on_c, 9, 35, 97
10, 50280, Note_on_c, 9, 82, 123
10, 50286, Note_on_c, 9, 82, 0
10, 50286, Note_on_c, 9, 35, 0
10, 50400, Note_on_c, 9, 28, 73
10, 50400, Note_on_c, 9, 37, 120
10, 50400, Note_on_c, 9, 42, 74
10, 50400, Note_on_c, 9, 82, 123
10, 50406, Note_on_c, 9, 82, 0
10, 50406, Note_on_c, 9, 28, 0
10, 50406, Note_on_c, 9, 37, 0
10, 50406, Note_on_c, 9, 42, 0
10, 50640, Note_on_c, 9, 35, 41
10, 50640, Note_on_c, 9, 42, 55
10, 50646, Note_on_c, 9, 42, 0
10, 50646, Note_on_c, 9, 35, 0
10, 50880, Note_on_c, 9, 35, 115
10, 50880, Note_on_c, 9, 82, 123
10, 50886, Note_on_c, 9, 82, 0
10, 50886, Note_on_c, 9, 35, 0
10, 51120, Note_on_c, 9, 35, 115
10, 51120, Note_on_c, 9, 82, 123
10, 51126, Note_on_c, 9, 82, 0
10, 51126, Note_on_c, 9, 35, 0
10, 51360, Note_on_c, 9, 28, 73
10, 51360, Note_on_c, 9, 37, 120
10, 51360, Note_on_c, 9, 42, 76
10, 51360, Note_on_c, 9, 82, 123
10, 51366, Note_on_c, 9, 82, 0
10, 51366, Note_on_c, 9, 28, 0
10, 51366, Note_on_c, 9, 37, 0
10, 51366, Note_on_c, 9, 42, 0
10, 51600, Note_on_c, 9, 35, 42
10, 51600, Note_on_c, 9, 42, 55
10, 51606, Note_on_c, 9, 42, 0
10, 51606, Note_on_c, 9, 35, 0
10, 51840, Note_on_c, 9, 35, 115
10, 51840, Note_on_c, 9, 82, 123
10, 51846, Note_on_c, 9, 82, 0
10, 51846, Note_on_c, 9, 35, 0
10, 52080, Note_on_c, 9, 35, 103
10, 52080, Note_on_c, 9, 82, 123
10, 52086, Note_on_c, 9, 82, 0
10, 52086, Note_on_c, 9, 35, 0
10, 52200, Note_on_c, 9, 35, 97
10, 52200, Note_on_c, 9, 82, 123
10, 52206, Note_on_c, 9, 82, 0
10, 52206, Note_on_c, 9, 35, 0
10, 52320, Note_on_c, 9, 28, 73
10, 52320, Note_on_c, 9, 37, 120
10, 52320, Note_on_c, 9, 42, 74
10, 52320, Note_on_c, 9, 82, 123
10, 52326, Note_on_c, 9, 82, 0
10, 52326, Note_on_c, 9, 28, 0
10, 52326, Note_on_c, 9, 37, 0
10, 52326, Note_on_c, 9, 42, 0
10, 52560, Note_on_c, 9, 35, 41
10, 52560, Note_on_c, 9, 42, 55
10, 52566, Note_on_c, 9, 42, 0
10, 52566, Note_on_c, 9, 35, 0
10, 52800, Note_on_c, 9, 35, 115
10, 52800, Note_on_c, 9, 82, 123
10, 52806, Note_on_c, 9, 82, 0
10, 52806, Note_on_c, 9, 35, 0
10, 53040, Note_on_c, 9, 35, 115
10, 53040, Note_on_c, 9, 82, 123
10, 53046, Note_on_c, 9, 82, 0
10, 53046, Note_on_c, 9, 35, 0
10, 53280, Note_on_c, 9, 28, 73
10, 53280, Note_on_c, 9, 37, 120
10, 53280, Note_on_c, 9, 42, 76
10, 53280, Note_on_c, 9, 82, 123
10, 53286, Note_on_c, 9, 82, 0
10, 53286, Note_on_c, 9, 28, 0
10, 53286, Note_on_c, 9, 37, 0
10, 53286, Note_on_c, 9, 42, 0
10, 53520, Note_on_c, 9, 35, 42
10, 53520, Note_on_c, 9, 42, 55
10, 53526, Note_on_c, 9, 42, 0
10, 53526, Note_on_c, 9, 35, 0
10, 53760, Note_on_c, 9, 35, 115
10, 53760, Note_on_c, 9, 82, 123
10, 53766, Note_on_c, 9, 82, 0
10, 53766, Note_on_c, 9, 35, 0
10, 54000, Note_on_c, 9, 35, 103
10, 54000, Note_on_c, 9, 82, 123
10, 54006, Note_on_c, 9, 82, 0
10, 54006, Note_on_c, 9, 35, 0
10, 54120, Note_on_c, 9, 35, 97
10, 54120, Note_on_c, 9, 82, 123
10, 54126, Note_on_c, 9, 82, 0
10, 54126, Note_on_c, 9, 35, 0
10, 54240, Note_on_c, 9, 28, 73
10, 54240, Note_on_c, 9, 37, 120
10, 54240, Note_on_c, 9, 42, 74
10, 54240, Note_on_c, 9, 82, 123
10, 54246, Note_on_c, 9, 82, 0
10, 54246, Note_on_c, 9, 28, 0
10, 54246, Note_on_c, 9, 37, 0
10, 54246, Note_on_c, 9, 42, 0
10, 54480, Note_on_c, 9, 35, 41
10, 54480, Note_on_c, 9, 42, 55
10, 54486, Note_on_c, 9, 42, 0
10, 54486, Note_on_c, 9, 35, 0
10, 54720, Note_on_c, 9, 35, 115
10, 54720, Note_on_c, 9, 82, 123
10, 54726, Note_on_c, 9, 82, 0
10, 54726, Note_on_c, 9, 35, 0
10, 54960, Note_on_c, 9, 35, 115
10, 54960, Note_on_c, 9, 82, 123
10, 54966, Note_on_c, 9, 82, 0
10, 54966, Note_on_c, 9, 35, 0
10, 55200, Note_on_c, 9, 28, 73
10, 55200, Note_on_c, 9, 37, 120
10, 55200, Note_on_c, 9, 42, 76
10, 55200, Note_on_c, 9, 82, 123
10, 55206, Note_on_c, 9, 82, 0
10, 55206, Note_on_c, 9, 28, 0
10, 55206, Note_on_c, 9, 37, 0
10, 55206, Note_on_c, 9, 42, 0
10, 55440, Note_on_c, 9, 35, 42
10, 55440, Note_on_c, 9, 42, 55
10, 55446, Note_on_c, 9, 42, 0
10, 55446, Note_on_c, 9, 35, 0
10, 55680, Note_on_c, 9, 35, 115
10, 55680, Note_on_c, 9, 82, 123
10, 55686, Note_on_c, 9, 82, 0
10, 55686, Note_on_c, 9, 35, 0
10, 55920, Note_on_c, 9, 35, 103
10, 55920, Note_on_c, 9, 82, 123
10, 55926, Note_on_c, 9, 82, 0
10, 55926, Note_on_c, 9, 35, 0
10, 56040, Note_on_c, 9, 35, 97
10, 56040, Note_on_c, 9, 82, 123
10, 56046, Note_on_c, 9, 82, 0
10, 56046, Note_on_c, 9, 35, 0
10, 56160, Note_on_c, 9, 28, 73
10, 56160, Note_on_c, 9, 37, 120
10, 56160, Note_on_c, 9, 42, 74
10, 56160, Note_on_c, 9, 82, 123
10, 56166, Note_on_c, 9, 82, 0
10, 56166, Note_on_c, 9, 28, 0
10, 56166, Note_on_c, 9, 37, 0
10, 56166, Note_on_c, 9, 42, 0
10, 56400, Note_on_c, 9, 35, 41
10, 56400, Note_on_c, 9, 42, 55
10, 56406, Note_on_c, 9, 42, 0
10, 56406, Note_on_c, 9, 35, 0
10, 56640, Note_on_c, 9, 35, 115
10, 56640, Note_on_c, 9, 82, 123
10, 56646, Note_on_c, 9, 82, 0
10, 56646, Note_on_c, 9, 35, 0
10, 56880, Note_on_c, 9, 35, 115
10, 56880, Note_on_c, 9, 82, 123
10, 56886, Note_on_c, 9, 82, 0
10, 56886, Note_on_c, 9, 35, 0
10, 57120, Note_on_c, 9, 28, 73
10, 57120, Note_on_c, 9, 37, 120
10, 57120, Note_on_c, 9, 42, 76
10, 57120, Note_on_c, 9, 82, 123
10, 57126, Note_on_c, 9, 82, 0
10, 57126, Note_on_c, 9, 28, 0
10, 57126, Note_on_c, 9, 37, 0
10, 57126, Note_on_c, 9, 42, 0
10, 57360, Note_on_c, 9, 35, 42
10, 57360, Note_on_c, 9, 42, 55
10, 57366, Note_on_c, 9, 42, 0
10, 57366, Note_on_c, 9, 35, 0
10, 57600, Note_on_c, 9, 35, 115
10, 57600, Note_on_c, 9, 82, 123
10, 57606, Note_on_c, 9, 82, 0
10, 57606, Note_on_c, 9, 35, 0
10, 57840, Note_on_c, 9, 35, 103
10, 57840, Note_on_c, 9, 82, 123
10, 57846, Note_on_c, 9, 82, 0
10, 57846, Note_on_c, 9, 35, 0
10, 57960, Note_on_c, 9, 35, 97
10, 57960, Note_on_c, 9, 82, 123
10, 57966, Note_on_c, 9, 82, 0
10, 57966, Note_on_c, 9, 35, 0
10, 58080, Note_on_c, 9, 28, 73
10, 58080, Note_on_c, 9, 37, 120
10, 58080, Note_on_c, 9, 42, 74
10, 58080, Note_on_c, 9, 82, 123
10, 58086, Note_on_c, 9, 82, 0
10, 58086, Note_on_c, 9, 28, 0
10, 58086, Note_on_c, 9, 37, 0
10, 58086, Note_on_c, 9, 42, 0
10, 58320, Note_on_c, 9, 35, 41
10, 58320, Note_on_c, 9, 42, 55
10, 58326, Note_on_c, 9, 42, 0
10, 58326, Note_on_c, 9, 35, 0
10, 58560, Note_on_c, 9, 35, 115
10, 58560, Note_on_c, 9, 82, 123
10, 58566, Note_on_c, 9, 82, 0
10, 58566, Note_on_c, 9, 35, 0
10, 58800, Note_on_c, 9, 35, 115
10, 58800, Note_on_c, 9, 82, 123
10, 58806, Note_on_c, 9, 82, 0
10, 58806, Note_on_c, 9, 35, 0
10, 59040, Note_on_c, 9, 28, 73
10, 59040, Note_on_c, 9, 37, 120
10, 59040, Note_on_c, 9, 42, 76
10, 59040, Note_on_c, 9, 82, 123
10, 59046, Note_on_c, 9, 82, 0
10, 59046, Note_on_c, 9, 28, 0
10, 59046, Note_on_c, 9, 37, 0
10, 59046, Note_on_c, 9, 42, 0
10, 59280, Note_on_c, 9, 35, 42
10, 59280, Note_on_c, 9, 42, 55
10, 59286, Note_on_c, 9, 42, 0
10, 59286, Note_on_c, 9, 35, 0
10, 59520, Note_on_c, 9, 35, 115
10, 59520, Note_on_c, 9, 82, 123
10, 59526, Note_on_c, 9, 82, 0
10, 59526, Note_on_c, 9, 35, 0
10, 59760, Note_on_c, 9, 35, 103
10, 59760, Note_on_c, 9, 82, 123
10, 59766, Note_on_c, 9, 82, 0
10, 59766, Note_on_c, 9, 35, 0
10, 59880, Note_on_c, 9, 35, 97
10, 59880, Note_on_c, 9, 82, 123
10, 59886, Note_on_c, 9, 82, 0
10, 59886, Note_on_c, 9, 35, 0
10, 60000, Note_on_c, 9, 28, 73
10, 60000, Note_on_c, 9, 37, 120
10, 60000, Note_on_c, 9, 42, 74
10, 60000, Note_on_c, 9, 82, 123
10, 60006, Note_on_c, 9, 82, 0
10, 60006, Note_on_c, 9, 28, 0
10, 60006, Note_on_c, 9, 37, 0
10, 60006, Note_on_c, 9, 42, 0
10, 60240, Note_on_c, 9, 35, 41
10, 60240, Note_on_c, 9, 42, 55
10, 60246, Note_on_c, 9, 42, 0
10, 60246, Note_on_c, 9, 35, 0
10, 60480, Note_on_c, 9, 35, 115
10, 60480, Note_on_c, 9, 82, 123
10, 60486, Note_on_c, 9, 82, 0
10, 60486, Note_on_c, 9, 35, 0
10, 60720, Note_on_c, 9, 35, 115
10, 60720, Note_on_c, 9, 82, 123
10, 60726, Note_on_c, 9, 82, 0
10, 60726, Note_on_c, 9, 35, 0
10, 60960, Note_on_c, 9, 28, 73
10, 60960, Note_on_c, 9, 37, 120
10, 60960, Note_on_c, 9, 42, 76
10, 60960, Note_on_c, 9, 82, 123
10, 60966, Note_on_c, 9, 82, 0
10, 60966, Note_on_c, 9, 28, 0
10, 60966, Note_on_c, 9, 37, 0
10, 60966, Note_on_c, 9, 42, 0
10, 61200, Note_on_c, 9, 35, 42
10, 61200, Note_on_c, 9, 42, 55
10, 61206, Note_on_c, 9, 42, 0
10, 61206, Note_on_c, 9, 35, 0
10, 61440, Note_on_c, 9, 35, 115
10, 61440, Note_on_c, 9, 82, 123
10, 61441, Note_on_c, 9, 35, 125
10, 61446, Note_on_c, 9, 82, 0
10, 61446, Note_on_c, 9, 35, 0
10, 61511, Note_on_c, 9, 35, 0
10, 61678, Note_on_c, 9, 82, 120
10, 61680, Note_on_c, 9, 35, 103
10, 61680, Note_on_c, 9, 35, 125
10, 61680, Note_on_c, 9, 42, 77
10, 61680, Note_on_c, 9, 82, 123
10, 61686, Note_on_c, 9, 35, 0
10, 61686, Note_on_c, 9, 82, 0
10, 61718, Note_on_c, 9, 82, 0
10, 61731, Note_on_c, 9, 42, 0
10, 61738, Note_on_c, 9, 35, 0
10, 61797, Note_on_c, 9, 82, 123
10, 61800, Note_on_c, 9, 35, 97
10, 61800, Note_on_c, 9, 82, 123
10, 61802, Note_on_c, 9, 35, 125
10, 61806, Note_on_c, 9, 35, 0
10, 61806, Note_on_c, 9, 82, 0
10, 61841, Note_on_c, 9, 82, 0
10, 61880, Note_on_c, 9, 35, 0
10, 61917, Note_on_c, 9, 82, 127
10, 61919, Note_on_c, 9, 42, 80
10, 61920, Note_on_c, 9, 28, 73
10, 61920, Note_on_c, 9, 37, 120
10, 61920, Note_on_c, 9, 42, 74
10, 61920, Note_on_c, 9, 82, 123
10, 61926, Note_on_c, 9, 37, 0
10, 61926, Note_on_c, 9, 28, 0
10, 61926, Note_on_c, 9, 82, 0
10, 61926, Note_on_c, 9, 42, 0
10, 61970, Note_on_c, 9, 42, 0
10, 61978, Note_on_c, 9, 82, 0
10, 62160, Note_on_c, 9, 35, 41
10, 62160, Note_on_c, 9, 42, 55
10, 62160, Note_on_c, 9, 42, 80
10, 62166, Note_on_c, 9, 42, 0
10, 62166, Note_on_c, 9, 35, 0
10, 62217, Note_on_c, 9, 42, 0
10, 62397, Note_on_c, 9, 82, 123
10, 62398, Note_on_c, 9, 35, 125
10, 62398, Note_on_c, 9, 42, 80
10, 62400, Note_on_c, 9, 35, 115
10, 62400, Note_on_c, 9, 82, 123
10, 62406, Note_on_c, 9, 35, 0
10, 62406, Note_on_c, 9, 82, 0
10, 62456, Note_on_c, 9, 82, 0
10, 62456, Note_on_c, 9, 42, 0
10, 62476, Note_on_c, 9, 35, 0
10, 62637, Note_on_c, 9, 35, 125
10, 62637, Note_on_c, 9, 82, 120
10, 62640, Note_on_c, 9, 35, 115
10, 62640, Note_on_c, 9, 42, 80
10, 62640, Note_on_c, 9, 82, 123
10, 62646, Note_on_c, 9, 82, 0
10, 62646, Note_on_c, 9, 35, 0
10, 62698, Note_on_c, 9, 42, 0
10, 62702, Note_on_c, 9, 82, 0
10, 62727, Note_on_c, 9, 35, 0
10, 62876, Note_on_c, 9, 82, 123
10, 62877, Note_on_c, 9, 42, 77
10, 62880, Note_on_c, 9, 28, 73
10, 62880, Note_on_c, 9, 37, 120
10, 62880, Note_on_c, 9, 42, 76
10, 62880, Note_on_c, 9, 82, 123
10, 62886, Note_on_c, 9, 37, 0
10, 62886, Note_on_c, 9, 28, 0
10, 62886, Note_on_c, 9, 82, 0
10, 62886, Note_on_c, 9, 42, 0
10, 62937, Note_on_c, 9, 42, 0
10, 62942, Note_on_c, 9, 82, 0
10, 63119, Note_on_c, 9, 42, 80
10, 63120, Note_on_c, 9, 35, 42
10, 63120, Note_on_c, 9, 42, 55
10, 63126, Note_on_c, 9, 35, 0
10, 63126, Note_on_c, 9, 42, 0
10, 63179, Note_on_c, 9, 42, 0
10, 63358, Note_on_c, 9, 35, 125
10, 63358, Note_on_c, 9, 82, 123
10, 63361, Note_on_c, 9, 42, 77
10, 63417, Note_on_c, 9, 82, 0
10, 63420, Note_on_c, 9, 42, 0
10, 63438, Note_on_c, 9, 35, 0
10, 63598, Note_on_c, 9, 82, 120
10, 63599, Note_on_c, 9, 35, 125
10, 63600, Note_on_c, 9, 42, 80
10, 63633, Note_on_c, 9, 82, 0
10, 63643, Note_on_c, 9, 35, 0
10, 63664, Note_on_c, 9, 42, 0
10, 63716, Note_on_c, 9, 82, 120
10, 63717, Note_on_c, 9, 35, 125
10, 63757, Note_on_c, 9, 82, 0
10, 63793, Note_on_c, 9, 35, 0
10, 63834, Note_on_c, 9, 82, 123
10, 63837, Note_on_c, 9, 37, 120
10, 63840, Note_on_c, 9, 42, 80
10, 63896, Note_on_c, 9, 82, 0
10, 63906, Note_on_c, 9, 42, 0
10, 64082, Note_on_c, 9, 42, 77
10, 64141, Note_on_c, 9, 42, 0
10, 64318, Note_on_c, 9, 42, 80
10, 64320, Note_on_c, 9, 82, 123
10, 64323, Note_on_c, 9, 35, 125
10, 64381, Note_on_c, 9, 82, 0
10, 64382, Note_on_c, 9, 42, 0
10, 64396, Note_on_c, 9, 35, 0
10, 64557, Note_on_c, 9, 42, 77
10, 64560, Note_on_c, 9, 82, 123
10, 64563, Note_on_c, 9, 35, 127
10, 64622, Note_on_c, 9, 42, 0
10, 64624, Note_on_c, 9, 82, 0
10, 64647, Note_on_c, 9, 35, 0
10, 64797, Note_on_c, 9, 42, 80
10, 64798, Note_on_c, 9, 37, 120
10, 64799, Note_on_c, 9, 82, 123
10, 64862, Note_on_c, 9, 82, 0
10, 64864, Note_on_c, 9, 42, 0
10, 64887, Note_on_c, 9, 37, 0
10, 65038, Note_on_c, 9, 42, 77
10, 65103, Note_on_c, 9, 42, 0
10, 65277, Note_on_c, 9, 42, 77
10, 65277, Note_on_c, 9, 82, 123
10, 65279, Note_on_c, 9, 35, 125
10, 65333, Note_on_c, 9, 82, 0
10, 65346, Note_on_c, 9, 42, 0
10, 65351, Note_on_c, 9, 35, 0
10, 65514, Note_on_c, 9, 82, 120
10, 65519, Note_on_c, 9, 35, 125
10, 65520, Note_on_c, 9, 42, 77
10, 65551, Note_on_c, 9, 82, 0
10, 65573, Note_on_c, 9, 35, 0
10, 65584, Note_on_c, 9, 42, 0
10, 65633, Note_on_c, 9, 82, 120
10, 65639, Note_on_c, 9, 35, 125
10, 65679, Note_on_c, 9, 82, 0
10, 65719, Note_on_c, 9, 35, 0
10, 65752, Note_on_c, 9, 82, 123
10, 65755, Note_on_c, 9, 37, 120
10, 65760, Note_on_c, 9, 42, 77
10, 65818, Note_on_c, 9, 82, 0
10, 65827, Note_on_c, 9, 42, 0
10, 65839, Note_on_c, 9, 37, 0
10, 66000, Note_on_c, 9, 42, 80
10, 66064, Note_on_c, 9, 42, 0
10, 66236, Note_on_c, 9, 82, 120
10, 66239, Note_on_c, 9, 42, 80
10, 66241, Note_on_c, 9, 35, 125
10, 66300, Note_on_c, 9, 82, 0
10, 66307, Note_on_c, 9, 42, 0
10, 66309, Note_on_c, 9, 35, 0
10, 66477, Note_on_c, 9, 82, 120
10, 66478, Note_on_c, 9, 42, 77
10, 66480, Note_on_c, 9, 35, 125
10, 66546, Note_on_c, 9, 82, 0
10, 66550, Note_on_c, 9, 42, 0
10, 66565, Note_on_c, 9, 35, 0
10, 66715, Note_on_c, 9, 42, 77
10, 66716, Note_on_c, 9, 37, 120
10, 66716, Note_on_c, 9, 82, 123
10, 66783, Note_on_c, 9, 82, 0
10, 66786, Note_on_c, 9, 42, 0
10, 66796, Note_on_c, 9, 37, 0
10, 66958, Note_on_c, 9, 42, 77
10, 67025, Note_on_c, 9, 42, 0
10, 67195, Note_on_c, 9, 82, 123
10, 67198, Note_on_c, 9, 35, 125
10, 67199, Note_on_c, 9, 42, 80
10, 67258, Note_on_c, 9, 82, 0
10, 67263, Note_on_c, 9, 35, 0
10, 67265, Note_on_c, 9, 42, 0
10, 67435, Note_on_c, 9, 82, 120
10, 67437, Note_on_c, 9, 35, 125
10, 67441, Note_on_c, 9, 42, 80
10, 67470, Note_on_c, 9, 82, 0
10, 67489, Note_on_c, 9, 35, 0
10, 67511, Note_on_c, 9, 42, 0
10, 67554, Note_on_c, 9, 82, 120
10, 67557, Note_on_c, 9, 35, 125
10, 67601, Note_on_c, 9, 82, 0
10, 67631, Note_on_c, 9, 35, 0
10, 67675, Note_on_c, 9, 82, 120
10, 67676, Note_on_c, 9, 37, 120
10, 67681, Note_on_c, 9, 42, 80
10, 67740, Note_on_c, 9, 82, 0
10, 67748, Note_on_c, 9, 42, 0
10, 67764, Note_on_c, 9, 37, 0
10, 67920, Note_on_c, 9, 42, 77
10, 67986, Note_on_c, 9, 42, 0
10, 68159, Note_on_c, 9, 42, 77
10, 68160, Note_on_c, 9, 35, 127
10, 68161, Note_on_c, 9, 82, 123
10, 68221, Note_on_c, 9, 82, 0
10, 68225, Note_on_c, 9, 42, 0
10, 68226, Note_on_c, 9, 35, 0
10, 68399, Note_on_c, 9, 82, 120
10, 68400, Note_on_c, 9, 35, 125
10, 68400, Note_on_c, 9, 42, 77
10, 68463, Note_on_c, 9, 82, 0
10, 68473, Note_on_c, 9, 42, 0
10, 68473, Note_on_c, 9, 35, 0
10, 68637, Note_on_c, 9, 37, 120
10, 68639, Note_on_c, 9, 42, 77
10, 68639, Note_on_c, 9, 82, 123
10, 68696, Note_on_c, 9, 82, 0
10, 68705, Note_on_c, 9, 37, 0
10, 68713, Note_on_c, 9, 42, 0
10, 68879, Note_on_c, 9, 42, 80
10, 68949, Note_on_c, 9, 42, 0
10, 69118, Note_on_c, 9, 42, 84
10, 69119, Note_on_c, 9, 82, 123
10, 69121, Note_on_c, 9, 35, 125
10, 69157, Note_on_c, 9, 42, 0
10, 69172, Note_on_c, 9, 82, 0
10, 69191, Note_on_c, 9, 35, 0
10, 69358, Note_on_c, 9, 82, 120
10, 69360, Note_on_c, 9, 35, 125
10, 69360, Note_on_c, 9, 42, 77
10, 69398, Note_on_c, 9, 82, 0
10, 69411, Note_on_c, 9, 42, 0
10, 69418, Note_on_c, 9, 35, 0
10, 69477, Note_on_c, 9, 82, 123
10, 69482, Note_on_c, 9, 35, 125
10, 69521, Note_on_c, 9, 82, 0
10, 69560, Note_on_c, 9, 35, 0
10, 69597, Note_on_c, 9, 82, 127
10, 69599, Note_on_c, 9, 42, 80
10, 69600, Note_on_c, 9, 37, 120
10, 69650, Note_on_c, 9, 42, 0
10, 69658, Note_on_c, 9, 82, 0
10, 69688, Note_on_c, 9, 37, 0
10, 69840, Note_on_c, 9, 42, 80
10, 69897, Note_on_c, 9, 42, 0
10, 70077, Note_on_c, 9, 82, 123
10, 70078, Note_on_c, 9, 35, 125
10, 70078, Note_on_c, 9, 42, 80
10, 70136, Note_on_c, 9, 42, 0
10, 70136, Note_on_c, 9, 82, 0
10, 70156, Note_on_c, 9, 35, 0
10, 70317, Note_on_c, 9, 35, 125
10, 70317, Note_on_c, 9, 82, 120
10, 70320, Note_on_c, 9, 42, 80
10, 70378, Note_on_c, 9, 42, 0
10, 70382, Note_on_c, 9, 82, 0
10, 70407, Note_on_c, 9, 35, 0
10, 70555, Note_on_c, 9, 37, 120
10, 70556, Note_on_c, 9, 82, 123
10, 70557, Note_on_c, 9, 42, 77
10, 70617, Note_on_c, 9, 42, 0
10, 70622, Note_on_c, 9, 82, 0
10, 70649, Note_on_c, 9, 37, 0
10, 70799, Note_on_c, 9, 42, 80
10, 70859, Note_on_c, 9, 42, 0
10, 71038, Note_on_c, 9, 35, 125
10, 71038, Note_on_c, 9, 82, 123
10, 71041, Note_on_c, 9, 42, 77
10, 71097, Note_on_c, 9, 82, 0
10, 71100, Note_on_c, 9, 42, 0
10, 71118, Note_on_c, 9, 35, 0
10, 71278, Note_on_c, 9, 82, 120
10, 71279, Note_on_c, 9, 35, 125
10, 71280, Note_on_c, 9, 42, 80
10, 71313, Note_on_c, 9, 82, 0
10, 71323, Note_on_c, 9, 35, 0
10, 71344, Note_on_c, 9, 42, 0
10, 71396, Note_on_c, 9, 82, 120
10, 71397, Note_on_c, 9, 35, 125
10, 71437, Note_on_c, 9, 82, 0
10, 71473, Note_on_c, 9, 35, 0
10, 71514, Note_on_c, 9, 82, 123
10, 71517, Note_on_c, 9, 37, 120
10, 71520, Note_on_c, 9, 42, 80
10, 71576, Note_on_c, 9, 82, 0
10, 71586, Note_on_c, 9, 42, 0
10, 71602, Note_on_c, 9, 37, 0
10, 71762, Note_on_c, 9, 42, 77
10, 71821, Note_on_c, 9, 42, 0
10, 71998, Note_on_c, 9, 42, 80
10, 72000, Note_on_c, 9, 82, 123
10, 72003, Note_on_c, 9, 35, 125
10, 72061, Note_on_c, 9, 82, 0
10, 72062, Note_on_c, 9, 42, 0
10, 72076, Note_on_c, 9, 35, 0
10, 72237, Note_on_c, 9, 42, 77
10, 72240, Note_on_c, 9, 82, 123
10, 72243, Note_on_c, 9, 35, 127
10, 72302, Note_on_c, 9, 42, 0
10, 72304, Note_on_c, 9, 82, 0
10, 72327, Note_on_c, 9, 35, 0
10, 72477, Note_on_c, 9, 42, 80
10, 72478, Note_on_c, 9, 37, 120
10, 72479, Note_on_c, 9, 82, 123
10, 72542, Note_on_c, 9, 82, 0
10, 72544, Note_on_c, 9, 42, 0
10, 72567, Note_on_c, 9, 37, 0
10, 72718, Note_on_c, 9, 42, 77
10, 72783, Note_on_c, 9, 42, 0
10, 72957, Note_on_c, 9, 42, 77
10, 72957, Note_on_c, 9, 82, 123
10, 72959, Note_on_c, 9, 35, 125
10, 73013, Note_on_c, 9, 82, 0
10, 73026, Note_on_c, 9, 42, 0
10, 73031, Note_on_c, 9, 35, 0
10, 73194, Note_on_c, 9, 82, 120
10, 73199, Note_on_c, 9, 35, 125
10, 73200, Note_on_c, 9, 42, 77
10, 73231, Note_on_c, 9, 82, 0
10, 73253, Note_on_c, 9, 35, 0
10, 73264, Note_on_c, 9, 42, 0
10, 73313, Note_on_c, 9, 82, 120
10, 73319, Note_on_c, 9, 35, 125
10, 73359, Note_on_c, 9, 82, 0
10, 73399, Note_on_c, 9, 35, 0
10, 73432, Note_on_c, 9, 82, 123
10, 73435, Note_on_c, 9, 37, 120
10, 73440, Note_on_c, 9, 42, 77
10, 73498, Note_on_c, 9, 82, 0
10, 73507, Note_on_c, 9, 42, 0
10, 73519, Note_on_c, 9, 37, 0
10, 73680, Note_on_c, 9, 42, 80
10, 73744, Note_on_c, 9, 42, 0
10, 73916, Note_on_c, 9, 82, 120
10, 73919, Note_on_c, 9, 42, 80
10, 73921, Note_on_c, 9, 35, 125
10, 73980, Note_on_c, 9, 82, 0
10, 73987, Note_on_c, 9, 42, 0
10, 73989, Note_on_c, 9, 35, 0
10, 74157, Note_on_c, 9, 82, 120
10, 74158, Note_on_c, 9, 42, 77
10, 74160, Note_on_c, 9, 35, 125
10, 74226, Note_on_c, 9, 82, 0
10, 74230, Note_on_c, 9, 42, 0
10, 74245, Note_on_c, 9, 35, 0
10, 74395, Note_on_c, 9, 42, 77
10, 74396, Note_on_c, 9, 37, 120
10, 74396, Note_on_c, 9, 82, 123
10, 74463, Note_on_c, 9, 82, 0
10, 74466, Note_on_c, 9, 42, 0
10, 74476, Note_on_c, 9, 37, 0
10, 74638, Note_on_c, 9, 42, 77
10, 74705, Note_on_c, 9, 42, 0
10, 74875, Note_on_c, 9, 82, 123
10, 74878, Note_on_c, 9, 35, 125
10, 74879, Note_on_c, 9, 42, 80
10, 74938, Note_on_c, 9, 82, 0
10, 74943, Note_on_c, 9, 35, 0
10, 74945, Note_on_c, 9, 42, 0
10, 75115, Note_on_c, 9, 82, 120
10, 75117, Note_on_c, 9, 35, 125
10, 75121, Note_on_c, 9, 42, 80
10, 75150, Note_on_c, 9, 82, 0
10, 75169, Note_on_c, 9, 35, 0
10, 75191, Note_on_c, 9, 42, 0
10, 75234, Note_on_c, 9, 82, 120
10, 75237, Note_on_c, 9, 35, 125
10, 75281, Note_on_c, 9, 82, 0
10, 75311, Note_on_c, 9, 35, 0
10, 75355, Note_on_c, 9, 82, 120
10, 75356, Note_on_c, 9, 37, 120
10, 75361, Note_on_c, 9, 42, 80
10, 75420, Note_on_c, 9, 82, 0
10, 75428, Note_on_c, 9, 42, 0
10, 75444, Note_on_c, 9, 37, 0
10, 75600, Note_on_c, 9, 42, 77
10, 75666, Note_on_c, 9, 42, 0
10, 75839, Note_on_c, 9, 42, 77
10, 75840, Note_on_c, 9, 35, 127
10, 75841, Note_on_c, 9, 82, 123
10, 75901, Note_on_c, 9, 82, 0
10, 75905, Note_on_c, 9, 42, 0
10, 75906, Note_on_c, 9, 35, 0
10, 76079, Note_on_c, 9, 82, 120
10, 76080, Note_on_c, 9, 35, 125
10, 76080, Note_on_c, 9, 42, 77
10, 76143, Note_on_c, 9, 82, 0
10, 76153, Note_on_c, 9, 42, 0
10, 76153, Note_on_c, 9, 35, 0
10, 76317, Note_on_c, 9, 37, 120
10, 76319, Note_on_c, 9, 42, 77
10, 76319, Note_on_c, 9, 82, 123
10, 76376, Note_on_c, 9, 82, 0
10, 76385, Note_on_c, 9, 37, 0
10, 76393, Note_on_c, 9, 42, 0
10, 76559, Note_on_c, 9, 42, 80
10, 76629, Note_on_c, 9, 42, 0
10, 76798, Note_on_c, 9, 42, 84
10, 76799, Note_on_c, 9, 82, 123
10, 76801, Note_on_c, 9, 35, 125
10, 76837, Note_on_c, 9, 42, 0
10, 76852, Note_on_c, 9, 82, 0
10, 76871, Note_on_c, 9, 35, 0
10, 77038, Note_on_c, 9, 82, 120
10, 77040, Note_on_c, 9, 35, 125
10, 77040, Note_on_c, 9, 42, 77
10, 77078, Note_on_c, 9, 82, 0
10, 77091, Note_on_c, 9, 42, 0
10, 77098, Note_on_c, 9, 35, 0
10, 77157, Note_on_c, 9, 82, 123
10, 77162, Note_on_c, 9, 35, 125
10, 77201, Note_on_c, 9, 82, 0
10, 77240, Note_on_c, 9, 35, 0
10, 77277, Note_on_c, 9, 82, 127
10, 77279, Note_on_c, 9, 42, 80
10, 77280, Note_on_c, 9, 37, 120
10, 77330, Note_on_c, 9, 42, 0
10, 77338, Note_on_c, 9, 82, 0
10, 77368, Note_on_c, 9, 37, 0
10, 77520, Note_on_c, 9, 42, 80
10, 77577, Note_on_c, 9, 42, 0
10, 77757, Note_on_c, 9, 82, 123
10, 77758, Note_on_c, 9, 35, 125
10, 77758, Note_on_c, 9, 42, 80
10, 77816, Note_on_c, 9, 42, 0
10, 77816, Note_on_c, 9, 82, 0
10, 77836, Note_on_c, 9, 35, 0
10, 77997, Note_on_c, 9, 35, 125
10, 77997, Note_on_c, 9, 82, 120
10, 78000, Note_on_c, 9, 42, 80
10, 78058, Note_on_c, 9, 42, 0
10, 78062, Note_on_c, 9, 82, 0
10, 78087, Note_on_c, 9, 35, 0
10, 78235, Note_on_c, 9, 37, 120
10, 78236, Note_on_c, 9, 82, 123
10, 78237, Note_on_c, 9, 42, 77
10, 78297, Note_on_c, 9, 42, 0
10, 78302, Note_on_c, 9, 82, 0
10, 78329, Note_on_c, 9, 37, 0
10, 78479, Note_on_c, 9, 42, 80
10, 78539, Note_on_c, 9, 42, 0
10, 78718, Note_on_c, 9, 35, 125
10, 78718, Note_on_c, 9, 82, 123
10, 78721, Note_on_c, 9, 42, 77
10, 78777, Note_on_c, 9, 82, 0
10, 78780, Note_on_c, 9, 42, 0
10, 78798, Note_on_c, 9, 35, 0
10, 78958, Note_on_c, 9, 82, 120
10, 78959, Note_on_c, 9, 35, 125
10, 78960, Note_on_c, 9, 42, 80
10, 78993, Note_on_c, 9, 82, 0
10, 79003, Note_on_c, 9, 35, 0
10, 79024, Note_on_c, 9, 42, 0
10, 79076, Note_on_c, 9, 82, 120
10, 79077, Note_on_c, 9, 35, 125
10, 79117, Note_on_c, 9, 82, 0
10, 79153, Note_on_c, 9, 35, 0
10, 79194, Note_on_c, 9, 82, 123
10, 79197, Note_on_c, 9, 37, 120
10, 79200, Note_on_c, 9, 42, 80
10, 79256, Note_on_c, 9, 82, 0
10, 79266, Note_on_c, 9, 42, 0
10, 79282, Note_on_c, 9, 37, 0
10, 79442, Note_on_c, 9, 42, 77
10, 79501, Note_on_c, 9, 42, 0
10, 79678, Note_on_c, 9, 42, 80
10, 79680, Note_on_c, 9, 82, 123
10, 79683, Note_on_c, 9, 35, 125
10, 79741, Note_on_c, 9, 82, 0
10, 79742, Note_on_c, 9, 42, 0
10, 79756, Note_on_c, 9, 35, 0
10, 79917, Note_on_c, 9, 42, 77
10, 79920, Note_on_c, 9, 82, 123
10, 79923, Note_on_c, 9, 35, 127
10, 79982, Note_on_c, 9, 42, 0
10, 79984, Note_on_c, 9, 82, 0
10, 80007, Note_on_c, 9, 35, 0
10, 80157, Note_on_c, 9, 42, 80
10, 80158, Note_on_c, 9, 37, 120
10, 80159, Note_on_c, 9, 82, 123
10, 80222, Note_on_c, 9, 82, 0
10, 80224, Note_on_c, 9, 42, 0
10, 80247, Note_on_c, 9, 37, 0
10, 80398, Note_on_c, 9, 42, 77
10, 80463, Note_on_c, 9, 42, 0
10, 80637, Note_on_c, 9, 42, 77
10, 80637, Note_on_c, 9, 82, 123
10, 80639, Note_on_c, 9, 35, 125
10, 80693, Note_on_c, 9, 82, 0
10, 80706, Note_on_c, 9, 42, 0
10, 80711, Note_on_c, 9, 35, 0
10, 80874, Note_on_c, 9, 82, 120
10, 80879, Note_on_c, 9, 35, 125
10, 80880, Note_on_c, 9, 42, 77
10, 80911, Note_on_c, 9, 82, 0
10, 80933, Note_on_c, 9, 35, 0
10, 80944, Note_on_c, 9, 42, 0
10, 80993, Note_on_c, 9, 82, 120
10, 80999, Note_on_c, 9, 35, 125
10, 81039, Note_on_c, 9, 82, 0
10, 81079, Note_on_c, 9, 35, 0
10, 81112, Note_on_c, 9, 82, 123
10, 81115, Note_on_c, 9, 37, 120
10, 81120, Note_on_c, 9, 42, 77
10, 81178, Note_on_c, 9, 82, 0
10, 81187, Note_on_c, 9, 42, 0
10, 81199, Note_on_c, 9, 37, 0
10, 81360, Note_on_c, 9, 42, 80
10, 81424, Note_on_c, 9, 42, 0
10, 81596, Note_on_c, 9, 82, 120
10, 81599, Note_on_c, 9, 42, 80
10, 81601, Note_on_c, 9, 35, 125
10, 81660, Note_on_c, 9, 82, 0
10, 81667, Note_on_c, 9, 42, 0
10, 81669, Note_on_c, 9, 35, 0
10, 81837, Note_on_c, 9, 82, 120
10, 81838, Note_on_c, 9, 42, 77
10, 81840, Note_on_c, 9, 35, 125
10, 81906, Note_on_c, 9, 82, 0
10, 81910, Note_on_c, 9, 42, 0
10, 81925, Note_on_c, 9, 35, 0
10, 82075, Note_on_c, 9, 42, 77
10, 82076, Note_on_c, 9, 37, 120
10, 82076, Note_on_c, 9, 82, 123
10, 82143, Note_on_c, 9, 82, 0
10, 82146, Note_on_c, 9, 42, 0
10, 82156, Note_on_c, 9, 37, 0
10, 82318, Note_on_c, 9, 42, 77
10, 82385, Note_on_c, 9, 42, 0
10, 82555, Note_on_c, 9, 82, 123
10, 82558, Note_on_c, 9, 35, 125
10, 82559, Note_on_c, 9, 42, 80
10, 82618, Note_on_c, 9, 82, 0
10, 82623, Note_on_c, 9, 35, 0
10, 82625, Note_on_c, 9, 42, 0
10, 82795, Note_on_c, 9, 82, 120
10, 82797, Note_on_c, 9, 35, 125
10, 82801, Note_on_c, 9, 42, 80
10, 82830, Note_on_c, 9, 82, 0
10, 82849, Note_on_c, 9, 35, 0
10, 82871, Note_on_c, 9, 42, 0
10, 82914, Note_on_c, 9, 82, 120
10, 82917, Note_on_c, 9, 35, 125
10, 82961, Note_on_c, 9, 82, 0
10, 82991, Note_on_c, 9, 35, 0
10, 83035, Note_on_c, 9, 82, 120
10, 83036, Note_on_c, 9, 37, 120
10, 83041, Note_on_c, 9, 42, 80
10, 83100, Note_on_c, 9, 82, 0
10, 83108, Note_on_c, 9, 42, 0
10, 83124, Note_on_c, 9, 37, 0
10, 83280, Note_on_c, 9, 42, 77
10, 83346, Note_on_c, 9, 42, 0
10, 83519, Note_on_c, 9, 42, 77
10, 83520, Note_on_c, 9, 35, 127
10, 83521, Note_on_c, 9, 82, 123
10, 83581, Note_on_c, 9, 82, 0
10, 83585, Note_on_c, 9, 42, 0
10, 83586, Note_on_c, 9, 35, 0
10, 83759, Note_on_c, 9, 82, 120
10, 83760, Note_on_c, 9, 35, 125
10, 83760, Note_on_c, 9, 42, 77
10, 83823, Note_on_c, 9, 82, 0
10, 83833, Note_on_c, 9, 42, 0
10, 83833, Note_on_c, 9, 35, 0
10, 83997, Note_on_c, 9, 37, 120
10, 83999, Note_on_c, 9, 42, 77
10, 83999, Note_on_c, 9, 82, 123
10, 84056, Note_on_c, 9, 82, 0
10, 84065, Note_on_c, 9, 37, 0
10, 84073, Note_on_c, 9, 42, 0
10, 84239, Note_on_c, 9, 42, 80
10, 84309, Note_on_c, 9, 42, 0
10, 84475, Note_on_c, 9, 82, 123
10, 84478, Note_on_c, 9, 35, 125
10, 84479, Note_on_c, 9, 42, 80
10, 84481, Note_on_c, 9, 35, 125
10, 84538, Note_on_c, 9, 82, 0
10, 84543, Note_on_c, 9, 35, 0
10, 84545, Note_on_c, 9, 42, 0
10, 84551, Note_on_c, 9, 35, 0
10, 84718, Note_on_c, 9, 82, 120
10, 84720, Note_on_c, 9, 35, 125
10, 84720, Note_on_c, 9, 42, 77
10, 84758, Note_on_c, 9, 82, 0
10, 84771, Note_on_c, 9, 42, 0
10, 84778, Note_on_c, 9, 35, 0
10, 84837, Note_on_c, 9, 82, 123
10, 84842, Note_on_c, 9, 35, 125
10, 84881, Note_on_c, 9, 82, 0
10, 84920, Note_on_c, 9, 35, 0
10, 84957, Note_on_c, 9, 82, 127
10, 84959, Note_on_c, 9, 42, 80
10, 84960, Note_on_c, 9, 37, 120
10, 85010, Note_on_c, 9, 42, 0
10, 85018, Note_on_c, 9, 82, 0
10, 85044, Note_on_c, 9, 37, 0
10, 85200, Note_on_c, 9, 42, 80
10, 85257, Note_on_c, 9, 42, 0
10, 85437, Note_on_c, 9, 82, 123
10, 85438, Note_on_c, 9, 35, 125
10, 85438, Note_on_c, 9, 42, 80
10, 85496, Note_on_c, 9, 42, 0
10, 85496, Note_on_c, 9, 82, 0
10, 85516, Note_on_c, 9, 35, 0
10, 85677, Note_on_c, 9, 35, 125
10, 85677, Note_on_c, 9, 82, 120
10, 85680, Note_on_c, 9, 42, 80
10, 85738, Note_on_c, 9, 42, 0
10, 85742, Note_on_c, 9, 82, 0
10, 85767, Note_on_c, 9, 35, 0
10, 85915, Note_on_c, 9, 37, 120
10, 85916, Note_on_c, 9, 82, 123
10, 85917, Note_on_c, 9, 42, 77
10, 85977, Note_on_c, 9, 42, 0
10, 85982, Note_on_c, 9, 82, 0
10, 86009, Note_on_c, 9, 37, 0
10, 86159, Note_on_c, 9, 42, 80
10, 86219, Note_on_c, 9, 42, 0
10, 86398, Note_on_c, 9, 35, 125
10, 86398, Note_on_c, 9, 82, 123
10, 86401, Note_on_c, 9, 42, 77
10, 86457, Note_on_c, 9, 82, 0
10, 86460, Note_on_c, 9, 42, 0
10, 86478, Note_on_c, 9, 35, 0
10, 86638, Note_on_c, 9, 82, 120
10, 86639, Note_on_c, 9, 35, 125
10, 86640, Note_on_c, 9, 42, 80
10, 86673, Note_on_c, 9, 82, 0
10, 86683, Note_on_c, 9, 35, 0
10, 86704, Note_on_c, 9, 42, 0
10, 86756, Note_on_c, 9, 82, 120
10, 86757, Note_on_c, 9, 35, 125
10, 86797, Note_on_c, 9, 82, 0
10, 86833, Note_on_c, 9, 35, 0
10, 86874, Note_on_c, 9, 82, 123
10, 86877, Note_on_c, 9, 37, 120
10, 86880, Note_on_c, 9, 42, 80
10, 86936, Note_on_c, 9, 82, 0
10, 86946, Note_on_c, 9, 42, 0
10, 86962, Note_on_c, 9, 37, 0
10, 87122, Note_on_c, 9, 42, 77
10, 87181, Note_on_c, 9, 42, 0
10, 87358, Note_on_c, 9, 42, 80
10, 87360, Note_on_c, 9, 82, 123
10, 87363, Note_on_c, 9, 35, 125
10, 87421, Note_on_c, 9, 82, 0
10, 87422, Note_on_c, 9, 42, 0
10, 87436, Note_on_c, 9, 35, 0
10, 87597, Note_on_c, 9, 42, 77
10, 87600, Note_on_c, 9, 82, 123
10, 87603, Note_on_c, 9, 35, 127
10, 87662, Note_on_c, 9, 42, 0
10, 87664, Note_on_c, 9, 82, 0
10, 87687, Note_on_c, 9, 35, 0
10, 87837, Note_on_c, 9, 42, 80
10, 87838, Note_on_c, 9, 37, 120
10, 87839, Note_on_c, 9, 82, 123
10, 87902, Note_on_c, 9, 82, 0
10, 87904, Note_on_c, 9, 42, 0
10, 87927, Note_on_c, 9, 37, 0
10, 88078, Note_on_c, 9, 42, 77
10, 88143, Note_on_c, 9, 42, 0
10, 88317, Note_on_c, 9, 42, 77
10, 88317, Note_on_c, 9, 82, 123
10, 88319, Note_on_c, 9, 35, 125
10, 88373, Note_on_c, 9, 82, 0
10, 88386, Note_on_c, 9, 42, 0
10, 88391, Note_on_c, 9, 35, 0
10, 88554, Note_on_c, 9, 82, 120
10, 88559, Note_on_c, 9, 35, 125
10, 88560, Note_on_c, 9, 42, 77
10, 88591, Note_on_c, 9, 82, 0
10, 88613, Note_on_c, 9, 35, 0
10, 88624, Note_on_c, 9, 42, 0
10, 88673, Note_on_c, 9, 82, 120
10, 88679, Note_on_c, 9, 35, 125
10, 88719, Note_on_c, 9, 82, 0
10, 88759, Note_on_c, 9, 35, 0
10, 88792, Note_on_c, 9, 82, 123
10, 88795, Note_on_c, 9, 37, 120
10, 88800, Note_on_c, 9, 42, 77
10, 88858, Note_on_c, 9, 82, 0
10, 88867, Note_on_c, 9, 42, 0
10, 88879, Note_on_c, 9, 37, 0
10, 89040, Note_on_c, 9, 42, 80
10, 89104, Note_on_c, 9, 42, 0
10, 89276, Note_on_c, 9, 82, 120
10, 89279, Note_on_c, 9, 42, 80
10, 89281, Note_on_c, 9, 35, 125
10, 89340, Note_on_c, 9, 82, 0
10, 89347, Note_on_c, 9, 42, 0
10, 89349, Note_on_c, 9, 35, 0
10, 89517, Note_on_c, 9, 82, 120
10, 89518, Note_on_c, 9, 42, 77
10, 89520, Note_on_c, 9, 35, 125
10, 89586, Note_on_c, 9, 82, 0
10, 89590, Note_on_c, 9, 42, 0
10, 89605, Note_on_c, 9, 35, 0
10, 89755, Note_on_c, 9, 42, 77
10, 89756, Note_on_c, 9, 37, 120
10, 89756, Note_on_c, 9, 82, 123
10, 89823, Note_on_c, 9, 82, 0
10, 89826, Note_on_c, 9, 42, 0
10, 89836, Note_on_c, 9, 37, 0
10, 89998, Note_on_c, 9, 42, 77
10, 90065, Note_on_c, 9, 42, 0
10, 90235, Note_on_c, 9, 82, 123
10, 90238, Note_on_c, 9, 35, 125
10, 90239, Note_on_c, 9, 42, 80
10, 90298, Note_on_c, 9, 82, 0
10, 90303, Note_on_c, 9, 35, 0
10, 90305, Note_on_c, 9, 42, 0
10, 90475, Note_on_c, 9, 82, 120
10, 90477, Note_on_c, 9, 35, 125
10, 90481, Note_on_c, 9, 42, 80
10, 90510, Note_on_c, 9, 82, 0
10, 90529, Note_on_c, 9, 35, 0
10, 90551, Note_on_c, 9, 42, 0
10, 90594, Note_on_c, 9, 82, 120
10, 90597, Note_on_c, 9, 35, 125
10, 90641, Note_on_c, 9, 82, 0
10, 90671, Note_on_c, 9, 35, 0
10, 90715, Note_on_c, 9, 82, 120
10, 90716, Note_on_c, 9, 37, 120
10, 90721, Note_on_c, 9, 42, 80
10, 90780, Note_on_c, 9, 82, 0
10, 90788, Note_on_c, 9, 42, 0
10, 90804, Note_on_c, 9, 37, 0
10, 90960, Note_on_c, 9, 42, 77
10, 91026, Note_on_c, 9, 42, 0
10, 91199, Note_on_c, 9, 42, 77
10, 91200, Note_on_c, 9, 35, 127
10, 91201, Note_on_c, 9, 82, 123
10, 91261, Note_on_c, 9, 82, 0
10, 91265, Note_on_c, 9, 42, 0
10, 91266, Note_on_c, 9, 35, 0
10, 91439, Note_on_c, 9, 82, 120
10, 91440, Note_on_c, 9, 35, 125
10, 91440, Note_on_c, 9, 42, 77
10, 91503, Note_on_c, 9, 82, 0
10, 91513, Note_on_c, 9, 42, 0
10, 91513, Note_on_c, 9, 35, 0
10, 91677, Note_on_c, 9, 37, 120
10, 91679, Note_on_c, 9, 42, 77
10, 91679, Note_on_c, 9, 82, 123
10, 91736, Note_on_c, 9, 82, 0
10, 91745, Note_on_c, 9, 37, 0
10, 91753, Note_on_c, 9, 42, 0
10, 91919, Note_on_c, 9, 42, 80
10, 91989, Note_on_c, 9, 42, 0
10, 92158, Note_on_c, 9, 42, 84
10, 92159, Note_on_c, 9, 82, 123
10, 92161, Note_on_c, 9, 35, 125
10, 92197, Note_on_c, 9, 42, 0
10, 92212, Note_on_c, 9, 82, 0
10, 92231, Note_on_c, 9, 35, 0
10, 92398, Note_on_c, 9, 82, 120
10, 92400, Note_on_c, 9, 35, 125
10, 92400, Note_on_c, 9, 42, 77
10, 92438, Note_on_c, 9, 82, 0
10, 92451, Note_on_c, 9, 42, 0
10, 92458, Note_on_c, 9, 35, 0
10, 92517, Note_on_c, 9, 82, 123
10, 92522, Note_on_c, 9, 35, 125
10, 92561, Note_on_c, 9, 82, 0
10, 92600, Note_on_c, 9, 35, 0
10, 92637, Note_on_c, 9, 82, 127
10, 92639, Note_on_c, 9, 42, 80
10, 92640, Note_on_c, 9, 37, 120
10, 92690, Note_on_c, 9, 42, 0
10, 92698, Note_on_c, 9, 82, 0
10, 92728, Note_on_c, 9, 37, 0
10, 92880, Note_on_c, 9, 42, 80
10, 92937, Note_on_c, 9, 42, 0
10, 93117, Note_on_c, 9, 82, 123
10, 93118, Note_on_c, 9, 35, 125
10, 93118, Note_on_c, 9, 42, 80
10, 93176, Note_on_c, 9, 42, 0
10, 93176, Note_on_c, 9, 82, 0
10, 93196, Note_on_c, 9, 35, 0
10, 93357, Note_on_c, 9, 35, 125
10, 93357, Note_on_c, 9, 82, 120
10, 93360, Note_on_c, 9, 42, 80
10, 93418, Note_on_c, 9, 42, 0
10, 93422, Note_on_c, 9, 82, 0
10, 93447, Note_on_c, 9, 35, 0
10, 93595, Note_on_c, 9, 37, 120
10, 93596, Note_on_c, 9, 82, 123
10, 93597, Note_on_c, 9, 42, 77
10, 93657, Note_on_c, 9, 42, 0
10, 93662, Note_on_c, 9, 82, 0
10, 93689, Note_on_c, 9, 37, 0
10, 93839, Note_on_c, 9, 42, 80
10, 93899, Note_on_c, 9, 42, 0
10, 94078, Note_on_c, 9, 35, 125
10, 94078, Note_on_c, 9, 82, 123
10, 94081, Note_on_c, 9, 42, 77
10, 94137, Note_on_c, 9, 82, 0
10, 94140, Note_on_c, 9, 42, 0
10, 94158, Note_on_c, 9, 35, 0
10, 94318, Note_on_c, 9, 82, 120
10, 94319, Note_on_c, 9, 35, 125
10, 94320, Note_on_c, 9, 42, 80
10, 94353, Note_on_c, 9, 82, 0
10, 94363, Note_on_c, 9, 35, 0
10, 94384, Note_on_c, 9, 42, 0
10, 94436, Note_on_c, 9, 82, 120
10, 94437, Note_on_c, 9, 35, 125
10, 94477, Note_on_c, 9, 82, 0
10, 94513, Note_on_c, 9, 35, 0
10, 94554, Note_on_c, 9, 82, 123
10, 94557, Note_on_c, 9, 37, 120
10, 94560, Note_on_c, 9, 42, 80
10, 94616, Note_on_c, 9, 82, 0
10, 94626, Note_on_c, 9, 42, 0
10, 94642, Note_on_c, 9, 37, 0
10, 94802, Note_on_c, 9, 42, 77
10, 94861, Note_on_c, 9, 42, 0
10, 95038, Note_on_c, 9, 42, 80
10, 95040, Note_on_c, 9, 82, 123
10, 95043, Note_on_c, 9, 35, 125
10, 95101, Note_on_c, 9, 82, 0
10, 95102, Note_on_c, 9, 42, 0
10, 95116, Note_on_c, 9, 35, 0
10, 95277, Note_on_c, 9, 42, 77
10, 95280, Note_on_c, 9, 82, 123
10, 95283, Note_on_c, 9, 35, 127
10, 95342, Note_on_c, 9, 42, 0
10, 95344, Note_on_c, 9, 82, 0
10, 95367, Note_on_c, 9, 35, 0
10, 95517, Note_on_c, 9, 42, 80
10, 95518, Note_on_c, 9, 37, 120
10, 95519, Note_on_c, 9, 82, 123
10, 95582, Note_on_c, 9, 82, 0
10, 95584, Note_on_c, 9, 42, 0
10, 95607, Note_on_c, 9, 37, 0
10, 95758, Note_on_c, 9, 42, 77
10, 95823, Note_on_c, 9, 42, 0
10, 95997, Note_on_c, 9, 42, 77
10, 95997, Note_on_c, 9, 82, 123
10, 95999, Note_on_c, 9, 35, 125
10, 96053, Note_on_c, 9, 82, 0
10, 96066, Note_on_c, 9, 42, 0
10, 96071, Note_on_c, 9, 35, 0
10, 96234, Note_on_c, 9, 82, 120
10, 96239, Note_on_c, 9, 35, 125
10, 96240, Note_on_c, 9, 42, 77
10, 96271, Note_on_c, 9, 82, 0
10, 96293, Note_on_c, 9, 35, 0
10, 96304, Note_on_c, 9, 42, 0
10, 96353, Note_on_c, 9, 82, 120
10, 96359, Note_on_c, 9, 35, 125
10, 96399, Note_on_c, 9, 82, 0
10, 96439, Note_on_c, 9, 35, 0
10, 96472, Note_on_c, 9, 82, 123
10, 96475, Note_on_c, 9, 37, 120
10, 96480, Note_on_c, 9, 42, 77
10, 96538, Note_on_c, 9, 82, 0
10, 96547, Note_on_c, 9, 42, 0
10, 96559, Note_on_c, 9, 37, 0
10, 96720, Note_on_c, 9, 42, 80
10, 96784, Note_on_c, 9, 42, 0
10, 96956, Note_on_c, 9, 82, 120
10, 96959, Note_on_c, 9, 42, 80
10, 96961, Note_on_c, 9, 35, 125
10, 97020, Note_on_c, 9, 82, 0
10, 97027, Note_on_c, 9, 42, 0
10, 97029, Note_on_c, 9, 35, 0
10, 97197, Note_on_c, 9, 82, 120
10, 97198, Note_on_c, 9, 42, 77
10, 97200, Note_on_c, 9, 35, 125
10, 97266, Note_on_c, 9, 82, 0
10, 97270, Note_on_c, 9, 42, 0
10, 97285, Note_on_c, 9, 35, 0
10, 97435, Note_on_c, 9, 42, 77
10, 97436, Note_on_c, 9, 37, 120
10, 97436, Note_on_c, 9, 82, 123
10, 97503, Note_on_c, 9, 82, 0
10, 97506, Note_on_c, 9, 42, 0
10, 97516, Note_on_c, 9, 37, 0
10, 97678, Note_on_c, 9, 42, 77
10, 97745, Note_on_c, 9, 42, 0
10, 97915, Note_on_c, 9, 82, 123
10, 97918, Note_on_c, 9, 35, 125
10, 97919, Note_on_c, 9, 42, 80
10, 97978, Note_on_c, 9, 82, 0
10, 97983, Note_on_c, 9, 35, 0
10, 97985, Note_on_c, 9, 42, 0
10, 98155, Note_on_c, 9, 82, 120
10, 98157, Note_on_c, 9, 35, 125
10, 98161, Note_on_c, 9, 42, 80
10, 98190, Note_on_c, 9, 82, 0
10, 98209, Note_on_c, 9, 35, 0
10, 98231, Note_on_c, 9, 42, 0
10, 98274, Note_on_c, 9, 82, 120
10, 98277, Note_on_c, 9, 35, 125
10, 98321, Note_on_c, 9, 82, 0
10, 98351, Note_on_c, 9, 35, 0
10, 98395, Note_on_c, 9, 82, 120
10, 98396, Note_on_c, 9, 37, 120
10, 98401, Note_on_c, 9, 42, 80
10, 98460, Note_on_c, 9, 82, 0
10, 98468, Note_on_c, 9, 42, 0
10, 98484, Note_on_c, 9, 37, 0
10, 98640, Note_on_c, 9, 42, 77
10, 98706, Note_on_c, 9, 42, 0
10, 98879, Note_on_c, 9, 42, 77
10, 98880, Note_on_c, 9, 35, 127
10, 98881, Note_on_c, 9, 82, 123
10, 98941, Note_on_c, 9, 82, 0
10, 98945, Note_on_c, 9, 42, 0
10, 98946, Note_on_c, 9, 35, 0
10, 99119, Note_on_c, 9, 82, 120
10, 99120, Note_on_c, 9, 35, 125
10, 99120, Note_on_c, 9, 42, 77
10, 99183, Note_on_c, 9, 82, 0
10, 99193, Note_on_c, 9, 42, 0
10, 99193, Note_on_c, 9, 35, 0
10, 99357, Note_on_c, 9, 37, 120
10, 99359, Note_on_c, 9, 42, 77
10, 99359, Note_on_c, 9, 82, 123
10, 99416, Note_on_c, 9, 82, 0
10, 99425, Note_on_c, 9, 37, 0
10, 99433, Note_on_c, 9, 42, 0
10, 99599, Note_on_c, 9, 42, 80
10, 99669, Note_on_c, 9, 42, 0
10, 99838, Note_on_c, 9, 42, 84
10, 99839, Note_on_c, 9, 82, 123
10, 99841, Note_on_c, 9, 35, 125
10, 99877, Note_on_c, 9, 42, 0
10, 99892, Note_on_c, 9, 82, 0
10, 99911, Note_on_c, 9, 35, 0
10, 100078, Note_on_c, 9, 82, 120
10, 100080, Note_on_c, 9, 35, 125
10, 100080, Note_on_c, 9, 42, 77
10, 100118, Note_on_c, 9, 82, 0
10, 100131, Note_on_c, 9, 42, 0
10, 100138, Note_on_c, 9, 35, 0
10, 100197, Note_on_c, 9, 82, 123
10, 100202, Note_on_c, 9, 35, 125
10, 100241, Note_on_c, 9, 82, 0
10, 100280, Note_on_c, 9, 35, 0
10, 100317, Note_on_c, 9, 82, 127
10, 100319, Note_on_c, 9, 42, 80
10, 100320, Note_on_c, 9, 37, 120
10, 100370, Note_on_c, 9, 42, 0
10, 100378, Note_on_c, 9, 82, 0
10, 100408, Note_on_c, 9, 37, 0
10, 100560, Note_on_c, 9, 42, 80
10, 100617, Note_on_c, 9, 42, 0
10, 100797, Note_on_c, 9, 82, 123
10, 100798, Note_on_c, 9, 35, 125
10, 100798, Note_on_c, 9, 42, 80
10, 100856, Note_on_c, 9, 42, 0
10, 100856, Note_on_c, 9, 82, 0
10, 100876, Note_on_c, 9, 35, 0
10, 101037, Note_on_c, 9, 35, 125
10, 101037, Note_on_c, 9, 82, 120
10, 101040, Note_on_c, 9, 42, 80
10, 101098, Note_on_c, 9, 42, 0
10, 101102, Note_on_c, 9, 82, 0
10, 101127, Note_on_c, 9, 35, 0
10, 101275, Note_on_c, 9, 37, 120
10, 101276, Note_on_c, 9, 82, 123
10, 101277, Note_on_c, 9, 42, 77
10, 101337, Note_on_c, 9, 42, 0
10, 101342, Note_on_c, 9, 82, 0
10, 101369, Note_on_c, 9, 37, 0
10, 101519, Note_on_c, 9, 42, 80
10, 101579, Note_on_c, 9, 42, 0
10, 101758, Note_on_c, 9, 35, 125
10, 101758, Note_on_c, 9, 82, 123
10, 101760, Note_on_c, 9, 35, 115
10, 101760, Note_on_c, 9, 82, 123
10, 101817, Note_on_c, 9, 82, 0
10, 101817, Note_on_c, 9, 82, 0
10, 101838, Note_on_c, 9, 35, 0
10, 101838, Note_on_c, 9, 35, 0
10, 101880, Note_on_c, 9, 35, 71
10, 101886, Note_on_c, 9, 35, 0
10, 102000, Note_on_c, 9, 35, 103
10, 102000, Note_on_c, 9, 82, 123
10, 102006, Note_on_c, 9, 82, 0
10, 102006, Note_on_c, 9, 35, 0
10, 102120, Note_on_c, 9, 35, 97
10, 102120, Note_on_c, 9, 82, 123
10, 102126, Note_on_c, 9, 82, 0
10, 102126, Note_on_c, 9, 35, 0
10, 102240, Note_on_c, 9, 28, 73
10, 102240, Note_on_c, 9, 37, 120
10, 102240, Note_on_c, 9, 42, 74
10, 102240, Note_on_c, 9, 82, 123
10, 102246, Note_on_c, 9, 82, 0
10, 102246, Note_on_c, 9, 28, 0
10, 102246, Note_on_c, 9, 37, 0
10, 102246, Note_on_c, 9, 42, 0
10, 102322, Note_on_c, 9, 37, 0
10, 102360, Note_on_c, 9, 35, 103
10, 102366, Note_on_c, 9, 35, 0
10, 102480, Note_on_c, 9, 35, 41
10, 102480, Note_on_c, 9, 42, 55
10, 102486, Note_on_c, 9, 42, 0
10, 102486, Note_on_c, 9, 35, 0
10, 102600, Note_on_c, 9, 35, 103
10, 102606, Note_on_c, 9, 35, 0
10, 102720, Note_on_c, 9, 35, 115
10, 102720, Note_on_c, 9, 82, 123
10, 102726, Note_on_c, 9, 82, 0
10, 102726, Note_on_c, 9, 35, 0
10, 102840, Note_on_c, 9, 35, 71
10, 102846, Note_on_c, 9, 35, 0
10, 102960, Note_on_c, 9, 35, 115
10, 102960, Note_on_c, 9, 82, 123
10, 102966, Note_on_c, 9, 82, 0
10, 102966, Note_on_c, 9, 35, 0
10, 103080, Note_on_c, 9, 35, 103
10, 103086, Note_on_c, 9, 35, 0
10, 103200, Note_on_c, 9, 28, 73
10, 103200, Note_on_c, 9, 37, 120
10, 103200, Note_on_c, 9, 42, 76
10, 103200, Note_on_c, 9, 82, 123
10, 103206, Note_on_c, 9, 82, 0
10, 103206, Note_on_c, 9, 28, 0
10, 103206, Note_on_c, 9, 37, 0
10, 103206, Note_on_c, 9, 42, 0
10, 103440, Note_on_c, 9, 35, 42
10, 103440, Note_on_c, 9, 42, 55
10, 103446, Note_on_c, 9, 42, 0
10, 103446, Note_on_c, 9, 35, 0
10, 103680, Note_on_c, 9, 35, 115
10, 103680, Note_on_c, 9, 82, 123
10, 103686, Note_on_c, 9, 82, 0
10, 103686, Note_on_c, 9, 35, 0
10, 103920, Note_on_c, 9, 35, 103
10, 103920, Note_on_c, 9, 82, 123
10, 103926, Note_on_c, 9, 82, 0
10, 103926, Note_on_c, 9, 35, 0
10, 104040, Note_on_c, 9, 35, 97
10, 104040, Note_on_c, 9, 82, 123
10, 104046, Note_on_c, 9, 82, 0
10, 104046, Note_on_c, 9, 35, 0
10, 104160, Note_on_c, 9, 28, 73
10, 104160, Note_on_c, 9, 37, 120
10, 104160, Note_on_c, 9, 42, 74
10, 104160, Note_on_c, 9, 82, 123
10, 104166, Note_on_c, 9, 82, 0
10, 104166, Note_on_c, 9, 28, 0
10, 104166, Note_on_c, 9, 37, 0
10, 104166, Note_on_c, 9, 42, 0
10, 104400, Note_on_c, 9, 35, 41
10, 104400, Note_on_c, 9, 42, 55
10, 104406, Note_on_c, 9, 42, 0
10, 104406, Note_on_c, 9, 35, 0
10, 104640, Note_on_c, 9, 35, 115
10, 104640, Note_on_c, 9, 82, 123
10, 104646, Note_on_c, 9, 82, 0
10, 104646, Note_on_c, 9, 35, 0
10, 104880, Note_on_c, 9, 35, 115
10, 104880, Note_on_c, 9, 82, 123
10, 104886, Note_on_c, 9, 82, 0
10, 104886, Note_on_c, 9, 35, 0
10, 105120, Note_on_c, 9, 28, 73
10, 105120, Note_on_c, 9, 37, 120
10, 105120, Note_on_c, 9, 42, 76
10, 105120, Note_on_c, 9, 82, 123
10, 105126, Note_on_c, 9, 82, 0
10, 105126, Note_on_c, 9, 28, 0
10, 105126, Note_on_c, 9, 37, 0
10, 105126, Note_on_c, 9, 42, 0
10, 105360, Note_on_c, 9, 35, 42
10, 105360, Note_on_c, 9, 42, 55
10, 105366, Note_on_c, 9, 42, 0
10, 105366, Note_on_c, 9, 35, 0
10, 105600, Note_on_c, 9, 35, 115
10, 105600, Note_on_c, 9, 82, 123
10, 105606, Note_on_c, 9, 82, 0
10, 105606, Note_on_c, 9, 35, 0
10, 105840, Note_on_c, 9, 35, 103
10, 105840, Note_on_c, 9, 82, 123
10, 105846, Note_on_c, 9, 82, 0
10, 105846, Note_on_c, 9, 35, 0
10, 105960, Note_on_c, 9, 35, 97
10, 105960, Note_on_c, 9, 82, 123
10, 105966, Note_on_c, 9, 82, 0
10, 105966, Note_on_c, 9, 35, 0
10, 106080, Note_on_c, 9, 28, 73
10, 106080, Note_on_c, 9, 37, 120
10, 106080, Note_on_c, 9, 42, 74
10, 106080, Note_on_c, 9, 82, 123
10, 106086, Note_on_c, 9, 82, 0
10, 106086, Note_on_c, 9, 28, 0
10, 106086, Note_on_c, 9, 37, 0
10, 106086, Note_on_c, 9, 42, 0
10, 106320, Note_on_c, 9, 35, 41
10, 106320, Note_on_c, 9, 42, 55
10, 106326, Note_on_c, 9, 42, 0
10, 106326, Note_on_c, 9, 35, 0
10, 106560, Note_on_c, 9, 35, 115
10, 106560, Note_on_c, 9, 82, 123
10, 106566, Note_on_c, 9, 82, 0
10, 106566, Note_on_c, 9, 35, 0
10, 106800, Note_on_c, 9, 35, 115
10, 106800, Note_on_c, 9, 82, 123
10, 106806, Note_on_c, 9, 82, 0
10, 106806, Note_on_c, 9, 35, 0
10, 107040, Note_on_c, 9, 28, 73
10, 107040, Note_on_c, 9, 37, 120
10, 107040, Note_on_c, 9, 42, 76
10, 107040, Note_on_c, 9, 82, 123
10, 107046, Note_on_c, 9, 82, 0
10, 107046, Note_on_c, 9, 28, 0
10, 107046, Note_on_c, 9, 37, 0
10, 107046, Note_on_c, 9, 42, 0
10, 107280, Note_on_c, 9, 35, 42
10, 107280, Note_on_c, 9, 42, 55
10, 107286, Note_on_c, 9, 42, 0
10, 107286, Note_on_c, 9, 35, 0
10, 107520, Note_on_c, 9, 35, 115
10, 107520, Note_on_c, 9, 82, 123
10, 107526, Note_on_c, 9, 82, 0
10, 107526, Note_on_c, 9, 35, 0
10, 107760, Note_on_c, 9, 35, 103
10, 107760, Note_on_c, 9, 82, 123
10, 107766, Note_on_c, 9, 82, 0
10, 107766, Note_on_c, 9, 35, 0
10, 107880, Note_on_c, 9, 35, 97
10, 107880, Note_on_c, 9, 82, 123
10, 107886, Note_on_c, 9, 82, 0
10, 107886, Note_on_c, 9, 35, 0
10, 108000, Note_on_c, 9, 28, 73
10, 108000, Note_on_c, 9, 37, 120
10, 108000, Note_on_c, 9, 42, 74
10, 108000, Note_on_c, 9, 82, 123
10, 108006, Note_on_c, 9, 82, 0
10, 108006, Note_on_c, 9, 28, 0
10, 108006, Note_on_c, 9, 37, 0
10, 108006, Note_on_c, 9, 42, 0
10, 108240, Note_on_c, 9, 35, 41
10, 108240, Note_on_c, 9, 42, 55
10, 108246, Note_on_c, 9, 42, 0
10, 108246, Note_on_c, 9, 35, 0
10, 108480, Note_on_c, 9, 35, 115
10, 108480, Note_on_c, 9, 82, 123
10, 108486, Note_on_c, 9, 82, 0
10, 108486, Note_on_c, 9, 35, 0
10, 108720, Note_on_c, 9, 35, 115
10, 108720, Note_on_c, 9, 82, 123
10, 108726, Note_on_c, 9, 82, 0
10, 108726, Note_on_c, 9, 35, 0
10, 108960, Note_on_c, 9, 28, 73
10, 108960, Note_on_c, 9, 37, 120
10, 108960, Note_on_c, 9, 42, 76
10, 108960, Note_on_c, 9, 82, 123
10, 108966, Note_on_c, 9, 82, 0
10, 108966, Note_on_c, 9, 28, 0
10, 108966, Note_on_c, 9, 37, 0
10, 108966, Note_on_c, 9, 42, 0
10, 109200, Note_on_c, 9, 35, 42
10, 109200, Note_on_c, 9, 42, 55
10, 109206, Note_on_c, 9, 42, 0
10, 109206, Note_on_c, 9, 35, 0
10, 109440, Note_on_c, 9, 35, 115
10, 109440, Note_on_c, 9, 82, 123
10, 109446, Note_on_c, 9, 82, 0
10, 109446, Note_on_c, 9, 35, 0
10, 109680, Note_on_c, 9, 35, 103
10, 109680, Note_on_c, 9, 82, 123
10, 109686, Note_on_c, 9, 82, 0
10, 109686, Note_on_c, 9, 35, 0
10, 109800, Note_on_c, 9, 35, 97
10, 109800, Note_on_c, 9, 82, 123
10, 109806, Note_on_c, 9, 82, 0
10, 109806, Note_on_c, 9, 35, 0
10, 109920, Note_on_c, 9, 28, 73
10, 109920, Note_on_c, 9, 37, 120
10, 109920, Note_on_c, 9, 42, 74
10, 109920, Note_on_c, 9, 82, 123
10, 109926, Note_on_c, 9, 82, 0
10, 109926, Note_on_c, 9, 28, 0
10, 109926, Note_on_c, 9, 37, 0
10, 109926, Note_on_c, 9, 42, 0
10, 110160, Note_on_c, 9, 35, 41
10, 110160, Note_on_c, 9, 42, 55
10, 110166, Note_on_c, 9, 42, 0
10, 110166, Note_on_c, 9, 35, 0
10, 110400, Note_on_c, 9, 35, 115
10, 110400, Note_on_c, 9, 82, 123
10, 110406, Note_on_c, 9, 82, 0
10, 110406, Note_on_c, 9, 35, 0
10, 110640, Note_on_c, 9, 35, 115
10, 110640, Note_on_c, 9, 82, 123
10, 110646, Note_on_c, 9, 82, 0
10, 110646, Note_on_c, 9, 35, 0
10, 110880, Note_on_c, 9, 28, 73
10, 110880, Note_on_c, 9, 37, 120
10, 110880, Note_on_c, 9, 42, 76
10, 110880, Note_on_c, 9, 82, 123
10, 110886, Note_on_c, 9, 82, 0
10, 110886, Note_on_c, 9, 28, 0
10, 110886, Note_on_c, 9, 37, 0
10, 110886, Note_on_c, 9, 42, 0
10, 111120, Note_on_c, 9, 35, 42
10, 111120, Note_on_c, 9, 42, 55
10, 111126, Note_on_c, 9, 42, 0
10, 111126, Note_on_c, 9, 35, 0
10, 111360, Note_on_c, 9, 35, 115
10, 111360, Note_on_c, 9, 82, 123
10, 111366, Note_on_c, 9, 82, 0
10, 111366, Note_on_c, 9, 35, 0
10, 111600, Note_on_c, 9, 35, 103
10, 111600, Note_on_c, 9, 82, 123
10, 111606, Note_on_c, 9, 82, 0
10, 111606, Note_on_c, 9, 35, 0
10, 111720, Note_on_c, 9, 35, 97
10, 111720, Note_on_c, 9, 82, 123
10, 111726, Note_on_c, 9, 82, 0
10, 111726, Note_on_c, 9, 35, 0
10, 111840, Note_on_c, 9, 28, 73
10, 111840, Note_on_c, 9, 37, 120
10, 111840, Note_on_c, 9, 42, 74
10, 111840, Note_on_c, 9, 82, 123
10, 111846, Note_on_c, 9, 82, 0
10, 111846, Note_on_c, 9, 28, 0
10, 111846, Note_on_c, 9, 37, 0
10, 111846, Note_on_c, 9, 42, 0
10, 112080, Note_on_c, 9, 35, 41
10, 112080, Note_on_c, 9, 42, 55
10, 112086, Note_on_c, 9, 42, 0
10, 112086, Note_on_c, 9, 35, 0
10, 112320, Note_on_c, 9, 35, 115
10, 112320, Note_on_c, 9, 82, 123
10, 112326, Note_on_c, 9, 82, 0
10, 112326, Note_on_c, 9, 35, 0
10, 112560, Note_on_c, 9, 35, 115
10, 112560, Note_on_c, 9, 82, 123
10, 112566, Note_on_c, 9, 82, 0
10, 112566, Note_on_c, 9, 35, 0
10, 112800, Note_on_c, 9, 28, 73
10, 112800, Note_on_c, 9, 37, 120
10, 112800, Note_on_c, 9, 42, 76
10, 112800, Note_on_c, 9, 82, 123
10, 112806, Note_on_c, 9, 82, 0
10, 112806, Note_on_c, 9, 28, 0
10, 112806, Note_on_c, 9, 37, 0
10, 112806, Note_on_c, 9, 42, 0
10, 113040, Note_on_c, 9, 35, 42
10, 113040, Note_on_c, 9, 42, 55
10, 113046, Note_on_c, 9, 42, 0
10, 113046, Note_on_c, 9, 35, 0
10, 113280, Note_on_c, 9, 35, 115
10, 113280, Note_on_c, 9, 82, 123
10, 113286, Note_on_c, 9, 82, 0
10, 113286, Note_on_c, 9, 35, 0
10, 113520, Note_on_c, 9, 35, 103
10, 113520, Note_on_c, 9, 82, 123
10, 113526, Note_on_c, 9, 82, 0
10, 113526, Note_on_c, 9, 35, 0
10, 113640, Note_on_c, 9, 35, 97
10, 113640, Note_on_c, 9, 82, 123
10, 113646, Note_on_c, 9, 82, 0
10, 113646, Note_on_c, 9, 35, 0
10, 113760, Note_on_c, 9, 28, 73
10, 113760, Note_on_c, 9, 37, 120
10, 113760, Note_on_c, 9, 42, 74
10, 113760, Note_on_c, 9, 82, 123
10, 113766, Note_on_c, 9, 82, 0
10, 113766, Note_on_c, 9, 28, 0
10, 113766, Note_on_c, 9, 37, 0
10, 113766, Note_on_c, 9, 42, 0
10, 114000, Note_on_c, 9, 35, 41
10, 114000, Note_on_c, 9, 42, 55
10, 114006, Note_on_c, 9, 42, 0
10, 114006, Note_on_c, 9, 35, 0
10, 114240, Note_on_c, 9, 35, 115
10, 114240, Note_on_c, 9, 82, 123
10, 114246, Note_on_c, 9, 82, 0
10, 114246, Note_on_c, 9, 35, 0
10, 114480, Note_on_c, 9, 35, 115
10, 114480, Note_on_c, 9, 82, 123
10, 114486, Note_on_c, 9, 82, 0
10, 114486, Note_on_c, 9, 35, 0
10, 114720, Note_on_c, 9, 28, 73
10, 114720, Note_on_c, 9, 37, 120
10, 114720, Note_on_c, 9, 42, 76
10, 114720, Note_on_c, 9, 82, 123
10, 114726, Note_on_c, 9, 82, 0
10, 114726, Note_on_c, 9, 28, 0
10, 114726, Note_on_c, 9, 37, 0
10, 114726, Note_on_c, 9, 42, 0
10, 114960, Note_on_c, 9, 35, 42
10, 114960, Note_on_c, 9, 42, 55
10, 114966, Note_on_c, 9, 42, 0
10, 114966, Note_on_c, 9, 35, 0
10, 115200, Note_on_c, 9, 35, 115
10, 115200, Note_on_c, 9, 82, 123
10, 115206, Note_on_c, 9, 82, 0
10, 115206, Note_on_c, 9, 35, 0
10, 115440, Note_on_c, 9, 35, 103
10, 115440, Note_on_c, 9, 82, 123
10, 115446, Note_on_c, 9, 82, 0
10, 115446, Note_on_c, 9, 35, 0
10, 115560, Note_on_c, 9, 35, 97
10, 115560, Note_on_c, 9, 82, 123
10, 115566, Note_on_c, 9, 82, 0
10, 115566, Note_on_c, 9, 35, 0
10, 115680, Note_on_c, 9, 28, 73
10, 115680, Note_on_c, 9, 37, 120
10, 115680, Note_on_c, 9, 42, 74
10, 115680, Note_on_c, 9, 82, 123
10, 115686, Note_on_c, 9, 82, 0
10, 115686, Note_on_c, 9, 28, 0
10, 115686, Note_on_c, 9, 37, 0
10, 115686, Note_on_c, 9, 42, 0
10, 115920, Note_on_c, 9, 35, 41
10, 115920, Note_on_c, 9, 42, 55
10, 115926, Note_on_c, 9, 42, 0
10, 115926, Note_on_c, 9, 35, 0
10, 116160, Note_on_c, 9, 35, 115
10, 116160, Note_on_c, 9, 82, 123
10, 116166, Note_on_c, 9, 82, 0
10, 116166, Note_on_c, 9, 35, 0
10, 116400, Note_on_c, 9, 35, 115
10, 116400, Note_on_c, 9, 82, 123
10, 116406, Note_on_c, 9, 82, 0
10, 116406, Note_on_c, 9, 35, 0
10, 116640, Note_on_c, 9, 28, 73
10, 116640, Note_on_c, 9, 37, 120
10, 116640, Note_on_c, 9, 42, 76
10, 116640, Note_on_c, 9, 82, 123
10, 116646, Note_on_c, 9, 82, 0
10, 116646, Note_on_c, 9, 28, 0
10, 116646, Note_on_c, 9, 37, 0
10, 116646, Note_on_c, 9, 42, 0
10, 116880, Note_on_c, 9, 35, 42
10, 116880, Note_on_c, 9, 42, 55
10, 116886, Note_on_c, 9, 42, 0
10, 116886, Note_on_c, 9, 35, 0
10, 117120, Note_on_c, 9, 35, 115
10, 117120, Note_on_c, 9, 82, 98
10, 117126, Note_on_c, 9, 82, 0
10, 117126, Note_on_c, 9, 35, 0
10, 117360, Note_on_c, 9, 35, 103
10, 117360, Note_on_c, 9, 82, 75
10, 117366, Note_on_c, 9, 82, 0
10, 117366, Note_on_c, 9, 35, 0
10, 117480, Note_on_c, 9, 35, 97
10, 117480, Note_on_c, 9, 82, 48
10, 117486, Note_on_c, 9, 82, 0
10, 117486, Note_on_c, 9, 35, 0
10, 117600, Note_on_c, 9, 28, 73
10, 117600, Note_on_c, 9, 37, 120
10, 117600, Note_on_c, 9, 42, 74
10, 117600, Note_on_c, 9, 82, 98
10, 117606, Note_on_c, 9, 82, 0
10, 117606, Note_on_c, 9, 28, 0
10, 117606, Note_on_c, 9, 37, 0
10, 117606, Note_on_c, 9, 42, 0
10, 117840, Note_on_c, 9, 35, 41
10, 117840, Note_on_c, 9, 42, 55
10, 117846, Note_on_c, 9, 42, 0
10, 117846, Note_on_c, 9, 35, 0
10, 118080, Note_on_c, 9, 35, 115
10, 118080, Note_on_c, 9, 82, 98
10, 118086, Note_on_c, 9, 82, 0
10, 118086, Note_on_c, 9, 35, 0
10, 118320, Note_on_c, 9, 35, 115
10, 118320, Note_on_c, 9, 82, 75
10, 118326, Note_on_c, 9, 82, 0
10, 118326, Note_on_c, 9, 35, 0
10, 118560, Note_on_c, 9, 28, 73
10, 118560, Note_on_c, 9, 37, 120
10, 118560, Note_on_c, 9, 42, 76
10, 118560, Note_on_c, 9, 82, 90
10, 118566, Note_on_c, 9, 82, 0
10, 118566, Note_on_c, 9, 28, 0
10, 118566, Note_on_c, 9, 37, 0
10, 118566, Note_on_c, 9, 42, 0
10, 118800, Note_on_c, 9, 35, 42
10, 118800, Note_on_c, 9, 42, 55
10, 118806, Note_on_c, 9, 42, 0
10, 118806, Note_on_c, 9, 35, 0
10, 118920, Note_on_c, 9, 42, 97
10, 118926, Note_on_c, 9, 42, 0
10, 119040, Note_on_c, 9, 35, 115
10, 119040, Note_on_c, 9, 42, 71
10, 119040, Note_on_c, 9, 42, 113
10, 119040, Note_on_c, 9, 82, 98
10, 119046, Note_on_c, 9, 82, 0
10, 119046, Note_on_c, 9, 35, 0
10, 119046, Note_on_c, 9, 42, 0
10, 119046, Note_on_c, 9, 42, 0
10, 119160, Note_on_c, 9, 54, 48
10, 119166, Note_on_c, 9, 54, 0
10, 119280, Note_on_c, 9, 35, 103
10, 119280, Note_on_c, 9, 42, 93
10, 119280, Note_on_c, 9, 82, 75
10, 119286, Note_on_c, 9, 82, 0
10, 119286, Note_on_c, 9, 42, 0
10, 119286, Note_on_c, 9, 35, 0
10, 119400, Note_on_c, 9, 35, 97
10, 119400, Note_on_c, 9, 42, 93
10, 119400, Note_on_c, 9, 54, 48
10, 119400, Note_on_c, 9, 82, 48
10, 119406, Note_on_c, 9, 82, 0
10, 119406, Note_on_c, 9, 35, 0
10, 119406, Note_on_c, 9, 42, 0
10, 119406, Note_on_c, 9, 54, 0
10, 119520, Note_on_c, 9, 28, 93
10, 119520, Note_on_c, 9, 37, 120
10, 119520, Note_on_c, 9, 42, 74
10, 119520, Note_on_c, 9, 82, 98
10, 119526, Note_on_c, 9, 82, 0
10, 119526, Note_on_c, 9, 28, 0
10, 119526, Note_on_c, 9, 37, 0
10, 119526, Note_on_c, 9, 42, 0
10, 119760, Note_on_c, 9, 35, 71
10, 119760, Note_on_c, 9, 42, 55
10, 119766, Note_on_c, 9, 42, 0
10, 119766, Note_on_c, 9, 35, 0
10, 119880, Note_on_c, 9, 42, 93
10, 119886, Note_on_c, 9, 42, 0
10, 120000, Note_on_c, 9, 35, 115
10, 120000, Note_on_c, 9, 42, 73
10, 120000, Note_on_c, 9, 42, 113
10, 120000, Note_on_c, 9, 82, 98
10, 120006, Note_on_c, 9, 82, 0
10, 120006, Note_on_c, 9, 35, 0
10, 120006, Note_on_c, 9, 42, 0
10, 120006, Note_on_c, 9, 42, 0
10, 120120, Note_on_c, 9, 54, 48
10, 120126, Note_on_c, 9, 54, 0
10, 120240, Note_on_c, 9, 35, 115
10, 120240, Note_on_c, 9, 42, 113
10, 120240, Note_on_c, 9, 82, 75
10, 120246, Note_on_c, 9, 82, 0
10, 120246, Note_on_c, 9, 42, 0
10, 120246, Note_on_c, 9, 35, 0
10, 120360, Note_on_c, 9, 35, 97
10, 120360, Note_on_c, 9, 54, 48
10, 120366, Note_on_c, 9, 54, 0
10, 120366, Note_on_c, 9, 35, 0
10, 120480, Note_on_c, 9, 28, 93
10, 120480, Note_on_c, 9, 37, 120
10, 120480, Note_on_c, 9, 42, 76
10, 120480, Note_on_c, 9, 82, 90
10, 120486, Note_on_c, 9, 82, 0
10, 120486, Note_on_c, 9, 28, 0
10, 120486, Note_on_c, 9, 37, 0
10, 120486, Note_on_c, 9, 42, 0
10, 120600, Note_on_c, 9, 35, 71
10, 120606, Note_on_c, 9, 35, 0
10, 120720, Note_on_c, 9, 35, 115
10, 120720, Note_on_c, 9, 42, 55
10, 120726, Note_on_c, 9, 42, 0
10, 120726, Note_on_c, 9, 35, 0
10, 120840, Note_on_c, 9, 42, 93
10, 120846, Note_on_c, 9, 42, 0
10, 120960, Note_on_c, 9, 35, 115
10, 120960, Note_on_c, 9, 42, 73
10, 120960, Note_on_c, 9, 42, 113
10, 120960, Note_on_c, 9, 82, 98
10, 120966, Note_on_c, 9, 82, 0
10, 120966, Note_on_c, 9, 35, 0
10, 120966, Note_on_c, 9, 42, 0
10, 120966, Note_on_c, 9, 42, 0
10, 121080, Note_on_c, 9, 54, 48
10, 121086, Note_on_c, 9, 54, 0
10, 121200, Note_on_c, 9, 35, 103
10, 121200, Note_on_c, 9, 42, 93
10, 121200, Note_on_c, 9, 82, 75
10, 121206, Note_on_c, 9, 82, 0
10, 121206, Note_on_c, 9, 42, 0
10, 121206, Note_on_c, 9, 35, 0
10, 121320, Note_on_c, 9, 35, 97
10, 121320, Note_on_c, 9, 42, 93
10, 121320, Note_on_c, 9, 54, 48
10, 121320, Note_on_c, 9, 82, 48
10, 121326, Note_on_c, 9, 82, 0
10, 121326, Note_on_c, 9, 35, 0
10, 121326, Note_on_c, 9, 42, 0
10, 121326, Note_on_c, 9, 54, 0
10, 121440, Note_on_c, 9, 28, 93
10, 121440, Note_on_c, 9, 37, 120
10, 121440, Note_on_c, 9, 42, 74
10, 121440, Note_on_c, 9, 82, 98
10, 121446, Note_on_c, 9, 82, 0
10, 121446, Note_on_c, 9, 28, 0
10, 121446, Note_on_c, 9, 37, 0
10, 121446, Note_on_c, 9, 42, 0
10, 121680, Note_on_c, 9, 35, 71
10, 121680, Note_on_c, 9, 42, 55
10, 121686, Note_on_c, 9, 42, 0
10, 121686, Note_on_c, 9, 35, 0
10, 121800, Note_on_c, 9, 42, 93
10, 121806, Note_on_c, 9, 42, 0
10, 121920, Note_on_c, 9, 35, 115
10, 121920, Note_on_c, 9, 42, 73
10, 121920, Note_on_c, 9, 42, 113
10, 121920, Note_on_c, 9, 82, 98
10, 121926, Note_on_c, 9, 82, 0
10, 121926, Note_on_c, 9, 35, 0
10, 121926, Note_on_c, 9, 42, 0
10, 121926, Note_on_c, 9, 42, 0
10, 122040, Note_on_c, 9, 54, 48
10, 122046, Note_on_c, 9, 54, 0
10, 122160, Note_on_c, 9, 35, 115
10, 122160, Note_on_c, 9, 37, 120
10, 122160, Note_on_c, 9, 42, 113
10, 122160, Note_on_c, 9, 82, 75
10, 122166, Note_on_c, 9, 82, 0
10, 122166, Note_on_c, 9, 35, 0
10, 122166, Note_on_c, 9, 37, 0
10, 122166, Note_on_c, 9, 42, 0
10, 122280, Note_on_c, 9, 35, 97
10, 122280, Note_on_c, 9, 37, 120
10, 122280, Note_on_c, 9, 54, 48
10, 122286, Note_on_c, 9, 54, 0
10, 122286, Note_on_c, 9, 37, 0
10, 122286, Note_on_c, 9, 35, 0
10, 122400, Note_on_c, 9, 28, 93
10, 122400, Note_on_c, 9, 42, 76
10, 122400, Note_on_c, 9, 82, 90
10, 122406, Note_on_c, 9, 82, 0
10, 122406, Note_on_c, 9, 42, 0
10, 122406, Note_on_c, 9, 28, 0
10, 122520, Note_on_c, 9, 35, 71
10, 122526, Note_on_c, 9, 35, 0
10, 122640, Note_on_c, 9, 35, 115
10, 122640, Note_on_c, 9, 42, 55
10, 122646, Note_on_c, 9, 42, 0
10, 122646, Note_on_c, 9, 35, 0
10, 122760, Note_on_c, 9, 37, 120
10, 122760, Note_on_c, 9, 42, 93
10, 122766, Note_on_c, 9, 42, 0
10, 122766, Note_on_c, 9, 37, 0
10, 122880, Note_on_c, 9, 35, 115
10, 122880, Note_on_c, 9, 42, 73
10, 122880, Note_on_c, 9, 42, 113
10, 122880, Note_on_c, 9, 82, 98
10, 122886, Note_on_c, 9, 82, 0
10, 122886, Note_on_c, 9, 35, 0
10, 122886, Note_on_c, 9, 42, 0
10, 122886, Note_on_c, 9, 42, 0
10, 123000, Note_on_c, 9, 54, 48
10, 123006, Note_on_c, 9, 54, 0
10, 123120, Note_on_c, 9, 35, 103
10, 123120, Note_on_c, 9, 42, 93
10, 123120, Note_on_c, 9, 82, 75
10, 123126, Note_on_c, 9, 82, 0
10, 123126, Note_on_c, 9, 42, 0
10, 123126, Note_on_c, 9, 35, 0
10, 123240, Note_on_c, 9, 35, 97
10, 123240, Note_on_c, 9, 42, 93
10, 123240, Note_on_c, 9, 54, 48
10, 123240, Note_on_c, 9, 82, 48
10, 123246, Note_on_c, 9, 82, 0
10, 123246, Note_on_c, 9, 35, 0
10, 123246, Note_on_c, 9, 42, 0
10, 123246, Note_on_c, 9, 54, 0
10, 123360, Note_on_c, 9, 28, 93
10, 123360, Note_on_c, 9, 37, 120
10, 123360, Note_on_c, 9, 42, 74
10, 123360, Note_on_c, 9, 82, 98
10, 123366, Note_on_c, 9, 82, 0
10, 123366, Note_on_c, 9, 28, 0
10, 123366, Note_on_c, 9, 37, 0
10, 123366, Note_on_c, 9, 42, 0
10, 123600, Note_on_c, 9, 35, 71
10, 123600, Note_on_c, 9, 42, 55
10, 123606, Note_on_c, 9, 42, 0
10, 123606, Note_on_c, 9, 35, 0
10, 123720, Note_on_c, 9, 42, 93
10, 123726, Note_on_c, 9, 42, 0
10, 123840, Note_on_c, 9, 35, 115
10, 123840, Note_on_c, 9, 42, 73
10, 123840, Note_on_c, 9, 42, 113
10, 123840, Note_on_c, 9, 82, 98
10, 123846, Note_on_c, 9, 82, 0
10, 123846, Note_on_c, 9, 35, 0
10, 123846, Note_on_c, 9, 42, 0
10, 123846, Note_on_c, 9, 42, 0
10, 123960, Note_on_c, 9, 54, 48
10, 123966, Note_on_c, 9, 54, 0
10, 124080, Note_on_c, 9, 35, 115
10, 124080, Note_on_c, 9, 42, 113
10, 124080, Note_on_c, 9, 82, 75
10, 124086, Note_on_c, 9, 82, 0
10, 124086, Note_on_c, 9, 42, 0
10, 124086, Note_on_c, 9, 35, 0
10, 124200, Note_on_c, 9, 35, 97
10, 124200, Note_on_c, 9, 54, 48
10, 124206, Note_on_c, 9, 54, 0
10, 124206, Note_on_c, 9, 35, 0
10, 124320, Note_on_c, 9, 28, 93
10, 124320, Note_on_c, 9, 37, 120
10, 124320, Note_on_c, 9, 42, 76
10, 124320, Note_on_c, 9, 82, 90
10, 124326, Note_on_c, 9, 82, 0
10, 124326, Note_on_c, 9, 28, 0
10, 124326, Note_on_c, 9, 37, 0
10, 124326, Note_on_c, 9, 42, 0
10, 124440, Note_on_c, 9, 35, 71
10, 124446, Note_on_c, 9, 35, 0
10, 124560, Note_on_c, 9, 35, 115
10, 124560, Note_on_c, 9, 42, 55
10, 124566, Note_on_c, 9, 42, 0
10, 124566, Note_on_c, 9, 35, 0
10, 124680, Note_on_c, 9, 42, 93
10, 124686, Note_on_c, 9, 42, 0
10, 124800, Note_on_c, 9, 35, 115
10, 124800, Note_on_c, 9, 42, 73
10, 124800, Note_on_c, 9, 42, 113
10, 124800, Note_on_c, 9, 82, 98
10, 124806, Note_on_c, 9, 82, 0
10, 124806, Note_on_c, 9, 35, 0
10, 124806, Note_on_c, 9, 42, 0
10, 124806, Note_on_c, 9, 42, 0
10, 124920, Note_on_c, 9, 54, 48
10, 124926, Note_on_c, 9, 54, 0
10, 125040, Note_on_c, 9, 35, 103
10, 125040, Note_on_c, 9, 42, 93
10, 125040, Note_on_c, 9, 82, 75
10, 125046, Note_on_c, 9, 82, 0
10, 125046, Note_on_c, 9, 42, 0
10, 125046, Note_on_c, 9, 35, 0
10, 125160, Note_on_c, 9, 35, 97
10, 125160, Note_on_c, 9, 42, 93
10, 125160, Note_on_c, 9, 54, 48
10, 125160, Note_on_c, 9, 82, 48
10, 125166, Note_on_c, 9, 82, 0
10, 125166, Note_on_c, 9, 35, 0
10, 125166, Note_on_c, 9, 42, 0
10, 125166, Note_on_c, 9, 54, 0
10, 125280, Note_on_c, 9, 28, 93
10, 125280, Note_on_c, 9, 37, 120
10, 125280, Note_on_c, 9, 42, 74
10, 125280, Note_on_c, 9, 82, 98
10, 125286, Note_on_c, 9, 82, 0
10, 125286, Note_on_c, 9, 28, 0
10, 125286, Note_on_c, 9, 37, 0
10, 125286, Note_on_c, 9, 42, 0
10, 125520, Note_on_c, 9, 35, 71
10, 125520, Note_on_c, 9, 42, 55
10, 125526, Note_on_c, 9, 42, 0
10, 125526, Note_on_c, 9, 35, 0
10, 125640, Note_on_c, 9, 42, 93
10, 125646, Note_on_c, 9, 42, 0
10, 125760, Note_on_c, 9, 35, 115
10, 125760, Note_on_c, 9, 42, 73
10, 125760, Note_on_c, 9, 42, 113
10, 125760, Note_on_c, 9, 82, 98
10, 125766, Note_on_c, 9, 82, 0
10, 125766, Note_on_c, 9, 35, 0
10, 125766, Note_on_c, 9, 42, 0
10, 125766, Note_on_c, 9, 42, 0
10, 125880, Note_on_c, 9, 54, 48
10, 125886, Note_on_c, 9, 54, 0
10, 126000, Note_on_c, 9, 35, 115
10, 126000, Note_on_c, 9, 37, 120
10, 126000, Note_on_c, 9, 42, 113
10, 126000, Note_on_c, 9, 82, 75
10, 126006, Note_on_c, 9, 82, 0
10, 126006, Note_on_c, 9, 35, 0
10, 126006, Note_on_c, 9, 37, 0
10, 126006, Note_on_c, 9, 42, 0
10, 126120, Note_on_c, 9, 35, 97
10, 126120, Note_on_c, 9, 37, 120
10, 126120, Note_on_c, 9, 54, 48
10, 126126, Note_on_c, 9, 54, 0
10, 126126, Note_on_c, 9, 37, 0
10, 126126, Note_on_c, 9, 35, 0
10, 126240, Note_on_c, 9, 28, 93
10, 126240, Note_on_c, 9, 42, 76
10, 126240, Note_on_c, 9, 82, 90
10, 126246, Note_on_c, 9, 82, 0
10, 126246, Note_on_c, 9, 42, 0
10, 126246, Note_on_c, 9, 28, 0
10, 126360, Note_on_c, 9, 35, 71
10, 126366, Note_on_c, 9, 35, 0
10, 126480, Note_on_c, 9, 35, 115
10, 126480, Note_on_c, 9, 42, 55
10, 126486, Note_on_c, 9, 42, 0
10, 126486, Note_on_c, 9, 35, 0
10, 126600, Note_on_c, 9, 37, 120
10, 126600, Note_on_c, 9, 42, 93
10, 126606, Note_on_c, 9, 42, 0
10, 126606, Note_on_c, 9, 37, 0
10, 126720, Note_on_c, 9, 35, 115
10, 126720, Note_on_c, 9, 42, 73
10, 126720, Note_on_c, 9, 42, 113
10, 126720, Note_on_c, 9, 82, 98
10, 126726, Note_on_c, 9, 82, 0
10, 126726, Note_on_c, 9, 35, 0
10, 126726, Note_on_c, 9, 42, 0
10, 126726, Note_on_c, 9, 42, 0
10, 126840, Note_on_c, 9, 54, 48
10, 126846, Note_on_c, 9, 54, 0
10, 126960, Note_on_c, 9, 35, 103
10, 126960, Note_on_c, 9, 42, 93
10, 126960, Note_on_c, 9, 82, 75
10, 126966, Note_on_c, 9, 82, 0
10, 126966, Note_on_c, 9, 42, 0
10, 126966, Note_on_c, 9, 35, 0
10, 127080, Note_on_c, 9, 35, 97
10, 127080, Note_on_c, 9, 42, 93
10, 127080, Note_on_c, 9, 54, 48
10, 127080, Note_on_c, 9, 82, 48
10, 127086, Note_on_c, 9, 82, 0
10, 127086, Note_on_c, 9, 35, 0
10, 127086, Note_on_c, 9, 42, 0
10, 127086, Note_on_c, 9, 54, 0
10, 127200, Note_on_c, 9, 28, 93
10, 127200, Note_on_c, 9, 37, 120
10, 127200, Note_on_c, 9, 42, 74
10, 127200, Note_on_c, 9, 82, 98
10, 127206, Note_on_c, 9, 82, 0
10, 127206, Note_on_c, 9, 28, 0
10, 127206, Note_on_c, 9, 37, 0
10, 127206, Note_on_c, 9, 42, 0
10, 127440, Note_on_c, 9, 35, 71
10, 127440, Note_on_c, 9, 42, 55
10, 127446, Note_on_c, 9, 42, 0
10, 127446, Note_on_c, 9, 35, 0
10, 127560, Note_on_c, 9, 42, 93
10, 127566, Note_on_c, 9, 42, 0
10, 127680, Note_on_c, 9, 35, 115
10, 127680, Note_on_c, 9, 42, 73
10, 127680, Note_on_c, 9, 42, 113
10, 127680, Note_on_c, 9, 82, 98
10, 127686, Note_on_c, 9, 82, 0
10, 127686, Note_on_c, 9, 35, 0
10, 127686, Note_on_c, 9, 42, 0
10, 127686, Note_on_c, 9, 42, 0
10, 127800, Note_on_c, 9, 54, 48
10, 127806, Note_on_c, 9, 54, 0
10, 127920, Note_on_c, 9, 35, 115
10, 127920, Note_on_c, 9, 42, 113
10, 127920, Note_on_c, 9, 82, 75
10, 127926, Note_on_c, 9, 82, 0
10, 127926, Note_on_c, 9, 42, 0
10, 127926, Note_on_c, 9, 35, 0
10, 128040, Note_on_c, 9, 35, 97
10, 128040, Note_on_c, 9, 54, 48
10, 128046, Note_on_c, 9, 54, 0
10, 128046, Note_on_c, 9, 35, 0
10, 128160, Note_on_c, 9, 28, 93
10, 128160, Note_on_c, 9, 37, 120
10, 128160, Note_on_c, 9, 42, 76
10, 128160, Note_on_c, 9, 82, 90
10, 128166, Note_on_c, 9, 82, 0
10, 128166, Note_on_c, 9, 28, 0
10, 128166, Note_on_c, 9, 37, 0
10, 128166, Note_on_c, 9, 42, 0
10, 128280, Note_on_c, 9, 35, 71
10, 128286, Note_on_c, 9, 35, 0
10, 128400, Note_on_c, 9, 35, 115
10, 128400, Note_on_c, 9, 42, 55
10, 128406, Note_on_c, 9, 42, 0
10, 128406, Note_on_c, 9, 35, 0
10, 128520, Note_on_c, 9, 42, 93
10, 128526, Note_on_c, 9, 42, 0
10, 128640, Note_on_c, 9, 35, 115
10, 128640, Note_on_c, 9, 42, 73
10, 128640, Note_on_c, 9, 42, 113
10, 128640, Note_on_c, 9, 82, 98
10, 128646, Note_on_c, 9, 82, 0
10, 128646, Note_on_c, 9, 35, 0
10, 128646, Note_on_c, 9, 42, 0
10, 128646, Note_on_c, 9, 42, 0
10, 128760, Note_on_c, 9, 54, 48
10, 128766, Note_on_c, 9, 54, 0
10, 128880, Note_on_c, 9, 35, 103
10, 128880, Note_on_c, 9, 42, 93
10, 128880, Note_on_c, 9, 82, 75
10, 128886, Note_on_c, 9, 82, 0
10, 128886, Note_on_c, 9, 42, 0
10, 128886, Note_on_c, 9, 35, 0
10, 129000, Note_on_c, 9, 35, 97
10, 129000, Note_on_c, 9, 42, 93
10, 129000, Note_on_c, 9, 54, 48
10, 129000, Note_on_c, 9, 82, 48
10, 129006, Note_on_c, 9, 82, 0
10, 129006, Note_on_c, 9, 35, 0
10, 129006, Note_on_c, 9, 42, 0
10, 129006, Note_on_c, 9, 54, 0
10, 129120, Note_on_c, 9, 28, 93
10, 129120, Note_on_c, 9, 37, 120
10, 129120, Note_on_c, 9, 42, 74
10, 129120, Note_on_c, 9, 82, 98
10, 129126, Note_on_c, 9, 82, 0
10, 129126, Note_on_c, 9, 28, 0
10, 129126, Note_on_c, 9, 37, 0
10, 129126, Note_on_c, 9, 42, 0
10, 129360, Note_on_c, 9, 35, 71
10, 129360, Note_on_c, 9, 42, 55
10, 129366, Note_on_c, 9, 42, 0
10, 129366, Note_on_c, 9, 35, 0
10, 129480, Note_on_c, 9, 42, 93
10, 129486, Note_on_c, 9, 42, 0
10, 129600, Note_on_c, 9, 35, 115
10, 129600, Note_on_c, 9, 42, 73
10, 129600, Note_on_c, 9, 42, 113
10, 129600, Note_on_c, 9, 82, 98
10, 129606, Note_on_c, 9, 82, 0
10, 129606, Note_on_c, 9, 35, 0
10, 129606, Note_on_c, 9, 42, 0
10, 129606, Note_on_c, 9, 42, 0
10, 129720, Note_on_c, 9, 54, 48
10, 129726, Note_on_c, 9, 54, 0
10, 129840, Note_on_c, 9, 35, 115
10, 129840, Note_on_c, 9, 37, 120
10, 129840, Note_on_c, 9, 42, 113
10, 129840, Note_on_c, 9, 82, 75
10, 129846, Note_on_c, 9, 82, 0
10, 129846, Note_on_c, 9, 35, 0
10, 129846, Note_on_c, 9, 37, 0
10, 129846, Note_on_c, 9, 42, 0
10, 129960, Note_on_c, 9, 35, 97
10, 129960, Note_on_c, 9, 37, 120
10, 129960, Note_on_c, 9, 54, 48
10, 129966, Note_on_c, 9, 54, 0
10, 129966, Note_on_c, 9, 37, 0
10, 129966, Note_on_c, 9, 35, 0
10, 130080, Note_on_c, 9, 28, 93
10, 130080, Note_on_c, 9, 42, 76
10, 130080, Note_on_c, 9, 82, 90
10, 130086, Note_on_c, 9, 82, 0
10, 130086, Note_on_c, 9, 42, 0
10, 130086, Note_on_c, 9, 28, 0
10, 130200, Note_on_c, 9, 35, 71
10, 130206, Note_on_c, 9, 35, 0
10, 130320, Note_on_c, 9, 35, 115
10, 130320, Note_on_c, 9, 37, 120
10, 130320, Note_on_c, 9, 42, 55
10, 130326, Note_on_c, 9, 42, 0
10, 130326, Note_on_c, 9, 37, 0
10, 130326, Note_on_c, 9, 35, 0
10, 130440, Note_on_c, 9, 37, 120
10, 130440, Note_on_c, 9, 42, 93
10, 130446, Note_on_c, 9, 42, 0
10, 130446, Note_on_c, 9, 37, 0
10, 130560, Note_on_c, 9, 35, 115
10, 130560, Note_on_c, 9, 42, 73
10, 130560, Note_on_c, 9, 42, 113
10, 130560, Note_on_c, 9, 82, 98
10, 130566, Note_on_c, 9, 82, 0
10, 130566, Note_on_c, 9, 35, 0
10, 130566, Note_on_c, 9, 42, 0
10, 130566, Note_on_c, 9, 42, 0
10, 130680, Note_on_c, 9, 54, 48
10, 130686, Note_on_c, 9, 54, 0
10, 130800, Note_on_c, 9, 35, 103
10, 130800, Note_on_c, 9, 42, 93
10, 130800, Note_on_c, 9, 82, 75
10, 130806, Note_on_c, 9, 82, 0
10, 130806, Note_on_c, 9, 42, 0
10, 130806, Note_on_c, 9, 35, 0
10, 130920, Note_on_c, 9, 35, 97
10, 130920, Note_on_c, 9, 42, 93
10, 130920, Note_on_c, 9, 54, 48
10, 130920, Note_on_c, 9, 82, 48
10, 130926, Note_on_c, 9, 82, 0
10, 130926, Note_on_c, 9, 35, 0
10, 130926, Note_on_c, 9, 42, 0
10, 130926, Note_on_c, 9, 54, 0
10, 131040, Note_on_c, 9, 28, 93
10, 131040, Note_on_c, 9, 37, 120
10, 131040, Note_on_c, 9, 42, 74
10, 131040, Note_on_c, 9, 82, 98
10, 131046, Note_on_c, 9, 82, 0
10, 131046, Note_on_c, 9, 28, 0
10, 131046, Note_on_c, 9, 37, 0
10, 131046, Note_on_c, 9, 42, 0
10, 131280, Note_on_c, 9, 35, 71
10, 131280, Note_on_c, 9, 42, 55
10, 131286, Note_on_c, 9, 42, 0
10, 131286, Note_on_c, 9, 35, 0
10, 131400, Note_on_c, 9, 42, 93
10, 131406, Note_on_c, 9, 42, 0
10, 131520, Note_on_c, 9, 35, 115
10, 131520, Note_on_c, 9, 42, 73
10, 131520, Note_on_c, 9, 42, 113
10, 131520, Note_on_c, 9, 82, 98
10, 131526, Note_on_c, 9, 82, 0
10, 131526, Note_on_c, 9, 35, 0
10, 131526, Note_on_c, 9, 42, 0
10, 131526, Note_on_c, 9, 42, 0
10, 131640, Note_on_c, 9, 54, 48
10, 131646, Note_on_c, 9, 54, 0
10, 131760, Note_on_c, 9, 35, 115
10, 131760, Note_on_c, 9, 42, 113
10, 131760, Note_on_c, 9, 82, 75
10, 131766, Note_on_c, 9, 82, 0
10, 131766, Note_on_c, 9, 42, 0
10, 131766, Note_on_c, 9, 35, 0
10, 131880, Note_on_c, 9, 35, 97
10, 131880, Note_on_c, 9, 54, 48
10, 131886, Note_on_c, 9, 54, 0
10, 131886, Note_on_c, 9, 35, 0
10, 132000, Note_on_c, 9, 28, 93
10, 132000, Note_on_c, 9, 37, 120
10, 132000, Note_on_c, 9, 42, 76
10, 132000, Note_on_c, 9, 82, 90
10, 132006, Note_on_c, 9, 82, 0
10, 132006, Note_on_c, 9, 28, 0
10, 132006, Note_on_c, 9, 37, 0
10, 132006, Note_on_c, 9, 42, 0
10, 132120, Note_on_c, 9, 35, 71
10, 132126, Note_on_c, 9, 35, 0
10, 132240, Note_on_c, 9, 35, 115
10, 132240, Note_on_c, 9, 42, 55
10, 132246, Note_on_c, 9, 42, 0
10, 132246, Note_on_c, 9, 35, 0
10, 132360, Note_on_c, 9, 42, 93
10, 132366, Note_on_c, 9, 42, 0
10, 132480, Note_on_c, 9, 35, 115
10, 132480, Note_on_c, 9, 42, 73
10, 132480, Note_on_c, 9, 42, 113
10, 132480, Note_on_c, 9, 82, 98
10, 132486, Note_on_c, 9, 82, 0
10, 132486, Note_on_c, 9, 35, 0
10, 132486, Note_on_c, 9, 42, 0
10, 132486, Note_on_c, 9, 42, 0
10, 132600, Note_on_c, 9, 54, 48
10, 132606, Note_on_c, 9, 54, 0
10, 132720, Note_on_c, 9, 35, 103
10, 132720, Note_on_c, 9, 42, 93
10, 132720, Note_on_c, 9, 82, 75
10, 132726, Note_on_c, 9, 82, 0
10, 132726, Note_on_c, 9, 42, 0
10, 132726, Note_on_c, 9, 35, 0
10, 132840, Note_on_c, 9, 35, 97
10, 132840, Note_on_c, 9, 42, 93
10, 132840, Note_on_c, 9, 54, 48
10, 132840, Note_on_c, 9, 82, 48
10, 132846, Note_on_c, 9, 82, 0
10, 132846, Note_on_c, 9, 35, 0
10, 132846, Note_on_c, 9, 42, 0
10, 132846, Note_on_c, 9, 54, 0
10, 132960, Note_on_c, 9, 28, 93
10, 132960, Note_on_c, 9, 37, 120
10, 132960, Note_on_c, 9, 42, 74
10, 132960, Note_on_c, 9, 82, 98
10, 132966, Note_on_c, 9, 82, 0
10, 132966, Note_on_c, 9, 28, 0
10, 132966, Note_on_c, 9, 37, 0
10, 132966, Note_on_c, 9, 42, 0
10, 133200, Note_on_c, 9, 35, 71
10, 133200, Note_on_c, 9, 42, 55
10, 133206, Note_on_c, 9, 42, 0
10, 133206, Note_on_c, 9, 35, 0
10, 133320, Note_on_c, 9, 42, 93
10, 133326, Note_on_c, 9, 42, 0
10, 133440, Note_on_c, 9, 35, 115
10, 133440, Note_on_c, 9, 42, 73
10, 133440, Note_on_c, 9, 42, 113
10, 133440, Note_on_c, 9, 82, 98
10, 133446, Note_on_c, 9, 82, 0
10, 133446, Note_on_c, 9, 35, 0
10, 133446, Note_on_c, 9, 42, 0
10, 133446, Note_on_c, 9, 42, 0
10, 133560, Note_on_c, 9, 54, 48
10, 133566, Note_on_c, 9, 54, 0
10, 133680, Note_on_c, 9, 35, 115
10, 133680, Note_on_c, 9, 37, 120
10, 133680, Note_on_c, 9, 42, 113
10, 133680, Note_on_c, 9, 82, 75
10, 133686, Note_on_c, 9, 82, 0
10, 133686, Note_on_c, 9, 35, 0
10, 133686, Note_on_c, 9, 37, 0
10, 133686, Note_on_c, 9, 42, 0
10, 133800, Note_on_c, 9, 35, 97
10, 133800, Note_on_c, 9, 37, 120
10, 133800, Note_on_c, 9, 54, 48
10, 133806, Note_on_c, 9, 54, 0
10, 133806, Note_on_c, 9, 37, 0
10, 133806, Note_on_c, 9, 35, 0
10, 133920, Note_on_c, 9, 28, 93
10, 133920, Note_on_c, 9, 42, 76
10, 133920, Note_on_c, 9, 82, 90
10, 133926, Note_on_c, 9, 82, 0
10, 133926, Note_on_c, 9, 42, 0
10, 133926, Note_on_c, 9, 28, 0
10, 134040, Note_on_c, 9, 35, 71
10, 134046, Note_on_c, 9, 35, 0
10, 134160, Note_on_c, 9, 35, 115
10, 134160, Note_on_c, 9, 42, 55
10, 134166, Note_on_c, 9, 42, 0
10, 134166, Note_on_c, 9, 35, 0
10, 134280, Note_on_c, 9, 37, 120
10, 134280, Note_on_c, 9, 42, 93
10, 134286, Note_on_c, 9, 42, 0
10, 134286, Note_on_c, 9, 37, 0
10, 134400, Note_on_c, 9, 35, 115
10, 134400, Note_on_c, 9, 42, 73
10, 134400, Note_on_c, 9, 82, 98
10, 134406, Note_on_c, 9, 82, 0
10, 134406, Note_on_c, 9, 42, 0
10, 134406, Note_on_c, 9, 35, 0
10, 134640, Note_on_c, 9, 35, 103
10, 134640, Note_on_c, 9, 82, 75
10, 134646, Note_on_c, 9, 82, 0
10, 134646, Note_on_c, 9, 35, 0
10, 134760, Note_on_c, 9, 35, 97
10, 134760, Note_on_c, 9, 82, 48
10, 134766, Note_on_c, 9, 82, 0
10, 134766, Note_on_c, 9, 35, 0
10, 134880, Note_on_c, 9, 28, 73
10, 134880, Note_on_c, 9, 37, 120
10, 134880, Note_on_c, 9, 42, 74
10, 134880, Note_on_c, 9, 82, 98
10, 134886, Note_on_c, 9, 82, 0
10, 134886, Note_on_c, 9, 28, 0
10, 134886, Note_on_c, 9, 37, 0
10, 134886, Note_on_c, 9, 42, 0
10, 135120, Note_on_c, 9, 35, 41
10, 135120, Note_on_c, 9, 42, 55
10, 135126, Note_on_c, 9, 42, 0
10, 135126, Note_on_c, 9, 35, 0
10, 135360, Note_on_c, 9, 35, 115
10, 135360, Note_on_c, 9, 82, 98
10, 135366, Note_on_c, 9, 82, 0
10, 135366, Note_on_c, 9, 35, 0
10, 135600, Note_on_c, 9, 35, 115
10, 135600, Note_on_c, 9, 82, 75
10, 135606, Note_on_c, 9, 82, 0
10, 135606, Note_on_c, 9, 35, 0
10, 135840, Note_on_c, 9, 28, 73
10, 135840, Note_on_c, 9, 37, 120
10, 135840, Note_on_c, 9, 42, 76
10, 135840, Note_on_c, 9, 82, 90
10, 135846, Note_on_c, 9, 82, 0
10, 135846, Note_on_c, 9, 28, 0
10, 135846, Note_on_c, 9, 37, 0
10, 135846, Note_on_c, 9, 42, 0
10, 136080, Note_on_c, 9, 35, 42
10, 136080, Note_on_c, 9, 42, 55
10, 136086, Note_on_c, 9, 42, 0
10, 136086, Note_on_c, 9, 35, 0
10, 136320, Note_on_c, 9, 35, 115
10, 136320, Note_on_c, 9, 82, 98
10, 136326, Note_on_c, 9, 82, 0
10, 136326, Note_on_c, 9, 35, 0
10, 136560, Note_on_c, 9, 35, 103
10, 136560, Note_on_c, 9, 82, 75
10, 136566, Note_on_c, 9, 82, 0
10, 136566, Note_on_c, 9, 35, 0
10, 136680, Note_on_c, 9, 35, 97
10, 136680, Note_on_c, 9, 82, 48
10, 136686, Note_on_c, 9, 82, 0
10, 136686, Note_on_c, 9, 35, 0
10, 136800, Note_on_c, 9, 28, 73
10, 136800, Note_on_c, 9, 37, 120
10, 136800, Note_on_c, 9, 42, 74
10, 136800, Note_on_c, 9, 82, 98
10, 136806, Note_on_c, 9, 82, 0
10, 136806, Note_on_c, 9, 28, 0
10, 136806, Note_on_c, 9, 37, 0
10, 136806, Note_on_c, 9, 42, 0
10, 137040, Note_on_c, 9, 35, 41
10, 137040, Note_on_c, 9, 42, 55
10, 137046, Note_on_c, 9, 42, 0
10, 137046, Note_on_c, 9, 35, 0
10, 137280, Note_on_c, 9, 35, 115
10, 137280, Note_on_c, 9, 82, 98
10, 137286, Note_on_c, 9, 82, 0
10, 137286, Note_on_c, 9, 35, 0
10, 137520, Note_on_c, 9, 35, 115
10, 137520, Note_on_c, 9, 82, 75
10, 137526, Note_on_c, 9, 82, 0
10, 137526, Note_on_c, 9, 35, 0
10, 137760, Note_on_c, 9, 28, 73
10, 137760, Note_on_c, 9, 37, 120
10, 137760, Note_on_c, 9, 42, 76
10, 137760, Note_on_c, 9, 82, 90
10, 137766, Note_on_c, 9, 82, 0
10, 137766, Note_on_c, 9, 28, 0
10, 137766, Note_on_c, 9, 37, 0
10, 137766, Note_on_c, 9, 42, 0
10, 138000, Note_on_c, 9, 35, 42
10, 138000, Note_on_c, 9, 42, 55
10, 138006, Note_on_c, 9, 42, 0
10, 138006, Note_on_c, 9, 35, 0
10, 138240, Note_on_c, 9, 35, 115
10, 138240, Note_on_c, 9, 82, 98
10, 138246, Note_on_c, 9, 82, 0
10, 138246, Note_on_c, 9, 35, 0
10, 138480, Note_on_c, 9, 35, 103
10, 138480, Note_on_c, 9, 82, 75
10, 138486, Note_on_c, 9, 82, 0
10, 138486, Note_on_c, 9, 35, 0
10, 138600, Note_on_c, 9, 35, 97
10, 138600, Note_on_c, 9, 82, 48
10, 138606, Note_on_c, 9, 82, 0
10, 138606, Note_on_c, 9, 35, 0
10, 138720, Note_on_c, 9, 28, 73
10, 138720, Note_on_c, 9, 37, 120
10, 138720, Note_on_c, 9, 42, 74
10, 138720, Note_on_c, 9, 82, 98
10, 138726, Note_on_c, 9, 82, 0
10, 138726, Note_on_c, 9, 28, 0
10, 138726, Note_on_c, 9, 37, 0
10, 138726, Note_on_c, 9, 42, 0
10, 138960, Note_on_c, 9, 35, 41
10, 138960, Note_on_c, 9, 42, 55
10, 138966, Note_on_c, 9, 42, 0
10, 138966, Note_on_c, 9, 35, 0
10, 139200, Note_on_c, 9, 35, 115
10, 139200, Note_on_c, 9, 82, 98
10, 139206, Note_on_c, 9, 82, 0
10, 139206, Note_on_c, 9, 35, 0
10, 139440, Note_on_c, 9, 35, 115
10, 139440, Note_on_c, 9, 82, 75
10, 139446, Note_on_c, 9, 82, 0
10, 139446, Note_on_c, 9, 35, 0
10, 139680, Note_on_c, 9, 28, 73
10, 139680, Note_on_c, 9, 37, 120
10, 139680, Note_on_c, 9, 42, 76
10, 139680, Note_on_c, 9, 82, 90
10, 139686, Note_on_c, 9, 82, 0
10, 139686, Note_on_c, 9, 28, 0
10, 139686, Note_on_c, 9, 37, 0
10, 139686, Note_on_c, 9, 42, 0
10, 139920, Note_on_c, 9, 35, 42
10, 139920, Note_on_c, 9, 42, 55
10, 139926, Note_on_c, 9, 42, 0
10, 139926, Note_on_c, 9, 35, 0
10, 140160, Note_on_c, 9, 35, 115
10, 140160, Note_on_c, 9, 82, 98
10, 140166, Note_on_c, 9, 82, 0
10, 140166, Note_on_c, 9, 35, 0
10, 140400, Note_on_c, 9, 35, 103
10, 140400, Note_on_c, 9, 82, 75
10, 140406, Note_on_c, 9, 82, 0
10, 140406, Note_on_c, 9, 35, 0
10, 140520, Note_on_c, 9, 35, 97
10, 140520, Note_on_c, 9, 82, 48
10, 140526, Note_on_c, 9, 82, 0
10, 140526, Note_on_c, 9, 35, 0
10, 140640, Note_on_c, 9, 28, 73
10, 140640, Note_on_c, 9, 37, 120
10, 140640, Note_on_c, 9, 42, 74
10, 140640, Note_on_c, 9, 82, 98
10, 140646, Note_on_c, 9, 82, 0
10, 140646, Note_on_c, 9, 28, 0
10, 140646, Note_on_c, 9, 37, 0
10, 140646, Note_on_c, 9, 42, 0
10, 140880, Note_on_c, 9, 35, 41
10, 140880, Note_on_c, 9, 42, 55
10, 140886, Note_on_c, 9, 42, 0
10, 140886, Note_on_c, 9, 35, 0
10, 141120, Note_on_c, 9, 35, 115
10, 141120, Note_on_c, 9, 82, 98
10, 141126, Note_on_c, 9, 82, 0
10, 141126, Note_on_c, 9, 35, 0
10, 141360, Note_on_c, 9, 35, 115
10, 141360, Note_on_c, 9, 82, 75
10, 141366, Note_on_c, 9, 82, 0
10, 141366, Note_on_c, 9, 35, 0
10, 141600, Note_on_c, 9, 28, 73
10, 141600, Note_on_c, 9, 37, 120
10, 141600, Note_on_c, 9, 42, 76
10, 141600, Note_on_c, 9, 82, 90
10, 141606, Note_on_c, 9, 82, 0
10, 141606, Note_on_c, 9, 28, 0
10, 141606, Note_on_c, 9, 37, 0
10, 141606, Note_on_c, 9, 42, 0
10, 141840, Note_on_c, 9, 35, 42
10, 141840, Note_on_c, 9, 42, 55
10, 141846, Note_on_c, 9, 42, 0
10, 141846, Note_on_c, 9, 35, 0
10, 142080, Note_on_c, 9, 35, 115
10, 142080, Note_on_c, 9, 82, 98
10, 142086, Note_on_c, 9, 82, 0
10, 142086, Note_on_c, 9, 35, 0
10, 142320, Note_on_c, 9, 35, 103
10, 142320, Note_on_c, 9, 82, 75
10, 142326, Note_on_c, 9, 82, 0
10, 142326, Note_on_c, 9, 35, 0
10, 142440, Note_on_c, 9, 35, 97
10, 142440, Note_on_c, 9, 82, 48
10, 142446, Note_on_c, 9, 82, 0
10, 142446, Note_on_c, 9, 35, 0
10, 142560, Note_on_c, 9, 28, 73
10, 142560, Note_on_c, 9, 37, 120
10, 142560, Note_on_c, 9, 42, 74
10, 142560, Note_on_c, 9, 82, 98
10, 142566, Note_on_c, 9, 82, 0
10, 142566, Note_on_c, 9, 28, 0
10, 142566, Note_on_c, 9, 37, 0
10, 142566, Note_on_c, 9, 42, 0
10, 142800, Note_on_c, 9, 35, 41
10, 142800, Note_on_c, 9, 42, 55
10, 142806, Note_on_c, 9, 42, 0
10, 142806, Note_on_c, 9, 35, 0
10, 143040, Note_on_c, 9, 35, 115
10, 143040, Note_on_c, 9, 82, 98
10, 143046, Note_on_c, 9, 82, 0
10, 143046, Note_on_c, 9, 35, 0
10, 143280, Note_on_c, 9, 35, 115
10, 143280, Note_on_c, 9, 82, 75
10, 143286, Note_on_c, 9, 82, 0
10, 143286, Note_on_c, 9, 35, 0
10, 143520, Note_on_c, 9, 28, 73
10, 143520, Note_on_c, 9, 37, 120
10, 143520, Note_on_c, 9, 42, 76
10, 143520, Note_on_c, 9, 82, 90
10, 143526, Note_on_c, 9, 82, 0
10, 143526, Note_on_c, 9, 28, 0
10, 143526, Note_on_c, 9, 37, 0
10, 143526, Note_on_c, 9, 42, 0
10, 143760, Note_on_c, 9, 35, 42
10, 143760, Note_on_c, 9, 42, 55
10, 143766, Note_on_c, 9, 42, 0
10, 143766, Note_on_c, 9, 35, 0
10, 144000, Note_on_c, 9, 35, 115
10, 144000, Note_on_c, 9, 82, 98
10, 144006, Note_on_c, 9, 82, 0
10, 144006, Note_on_c, 9, 35, 0
10, 144240, Note_on_c, 9, 35, 103
10, 144240, Note_on_c, 9, 82, 75
10, 144246, Note_on_c, 9, 82, 0
10, 144246, Note_on_c, 9, 35, 0
10, 144360, Note_on_c, 9, 35, 97
10, 144360, Note_on_c, 9, 82, 48
10, 144366, Note_on_c, 9, 82, 0
10, 144366, Note_on_c, 9, 35, 0
10, 144480, Note_on_c, 9, 28, 73
10, 144480, Note_on_c, 9, 37, 120
10, 144480, Note_on_c, 9, 42, 74
10, 144480, Note_on_c, 9, 82, 98
10, 144486, Note_on_c, 9, 82, 0
10, 144486, Note_on_c, 9, 28, 0
10, 144486, Note_on_c, 9, 37, 0
10, 144486, Note_on_c, 9, 42, 0
10, 144720, Note_on_c, 9, 35, 41
10, 144720, Note_on_c, 9, 42, 55
10, 144726, Note_on_c, 9, 42, 0
10, 144726, Note_on_c, 9, 35, 0
10, 144960, Note_on_c, 9, 35, 115
10, 144960, Note_on_c, 9, 82, 98
10, 144966, Note_on_c, 9, 82, 0
10, 144966, Note_on_c, 9, 35, 0
10, 145200, Note_on_c, 9, 35, 115
10, 145200, Note_on_c, 9, 82, 75
10, 145206, Note_on_c, 9, 82, 0
10, 145206, Note_on_c, 9, 35, 0
10, 145440, Note_on_c, 9, 28, 73
10, 145440, Note_on_c, 9, 37, 120
10, 145440, Note_on_c, 9, 42, 76
10, 145440, Note_on_c, 9, 82, 90
10, 145446, Note_on_c, 9, 82, 0
10, 145446, Note_on_c, 9, 28, 0
10, 145446, Note_on_c, 9, 37, 0
10, 145446, Note_on_c, 9, 42, 0
10, 145680, Note_on_c, 9, 35, 42
10, 145680, Note_on_c, 9, 42, 55
10, 145686, Note_on_c, 9, 42, 0
10, 145686, Note_on_c, 9, 35, 0
10, 145920, Note_on_c, 9, 35, 115
10, 145920, Note_on_c, 9, 82, 98
10, 145926, Note_on_c, 9, 82, 0
10, 145926, Note_on_c, 9, 35, 0
10, 146160, Note_on_c, 9, 35, 103
10, 146160, Note_on_c, 9, 82, 75
10, 146166, Note_on_c, 9, 82, 0
10, 146166, Note_on_c, 9, 35, 0
10, 146280, Note_on_c, 9, 35, 97
10, 146280, Note_on_c, 9, 82, 48
10, 146286, Note_on_c, 9, 82, 0
10, 146286, Note_on_c, 9, 35, 0
10, 146400, Note_on_c, 9, 28, 73
10, 146400, Note_on_c, 9, 37, 120
10, 146400, Note_on_c, 9, 42, 74
10, 146400, Note_on_c, 9, 82, 98
10, 146406, Note_on_c, 9, 82, 0
10, 146406, Note_on_c, 9, 28, 0
10, 146406, Note_on_c, 9, 37, 0
10, 146406, Note_on_c, 9, 42, 0
10, 146640, Note_on_c, 9, 35, 41
10, 146640, Note_on_c, 9, 42, 55
10, 146646, Note_on_c, 9, 42, 0
10, 146646, Note_on_c, 9, 35, 0
10, 146880, Note_on_c, 9, 35, 115
10, 146880, Note_on_c, 9, 82, 98
10, 146886, Note_on_c, 9, 82, 0
10, 146886, Note_on_c, 9, 35, 0
10, 147120, Note_on_c, 9, 35, 115
10, 147120, Note_on_c, 9, 82, 75
10, 147126, Note_on_c, 9, 82, 0
10, 147126, Note_on_c, 9, 35, 0
10, 147360, Note_on_c, 9, 28, 73
10, 147360, Note_on_c, 9, 37, 120
10, 147360, Note_on_c, 9, 42, 76
10, 147360, Note_on_c, 9, 82, 90
10, 147366, Note_on_c, 9, 82, 0
10, 147366, Note_on_c, 9, 28, 0
10, 147366, Note_on_c, 9, 37, 0
10, 147366, Note_on_c, 9, 42, 0
10, 147600, Note_on_c, 9, 35, 42
10, 147600, Note_on_c, 9, 42, 55
10, 147606, Note_on_c, 9, 42, 0
10, 147606, Note_on_c, 9, 35, 0
10, 147840, Note_on_c, 9, 35, 115
10, 147840, Note_on_c, 9, 82, 98
10, 147846, Note_on_c, 9, 82, 0
10, 147846, Note_on_c, 9, 35, 0
10, 148080, Note_on_c, 9, 35, 103
10, 148080, Note_on_c, 9, 82, 75
10, 148086, Note_on_c, 9, 82, 0
10, 148086, Note_on_c, 9, 35, 0
10, 148200, Note_on_c, 9, 35, 97
10, 148200, Note_on_c, 9, 82, 48
10, 148206, Note_on_c, 9, 82, 0
10, 148206, Note_on_c, 9, 35, 0
10, 148320, Note_on_c, 9, 28, 73
10, 148320, Note_on_c, 9, 37, 120
10, 148320, Note_on_c, 9, 42, 74
10, 148320, Note_on_c, 9, 82, 98
10, 148326, Note_on_c, 9, 82, 0
10, 148326, Note_on_c, 9, 28, 0
10, 148326, Note_on_c, 9, 37, 0
10, 148326, Note_on_c, 9, 42, 0
10, 148560, Note_on_c, 9, 35, 41
10, 148560, Note_on_c, 9, 42, 55
10, 148566, Note_on_c, 9, 42, 0
10, 148566, Note_on_c, 9, 35, 0
10, 148800, Note_on_c, 9, 35, 115
10, 148800, Note_on_c, 9, 82, 98
10, 148806, Note_on_c, 9, 82, 0
10, 148806, Note_on_c, 9, 35, 0
10, 149040, Note_on_c, 9, 35, 115
10, 149040, Note_on_c, 9, 82, 75
10, 149046, Note_on_c, 9, 82, 0
10, 149046, Note_on_c, 9, 35, 0
10, 149280, Note_on_c, 9, 28, 73
10, 149280, Note_on_c, 9, 37, 120
10, 149280, Note_on_c, 9, 42, 76
10, 149280, Note_on_c, 9, 82, 90
10, 149286, Note_on_c, 9, 82, 0
10, 149286, Note_on_c, 9, 28, 0
10, 149286, Note_on_c, 9, 37, 0
10, 149286, Note_on_c, 9, 42, 0
10, 149520, Note_on_c, 9, 35, 42
10, 149520, Note_on_c, 9, 42, 55
10, 149526, Note_on_c, 9, 42, 0
10, 149526, Note_on_c, 9, 35, 0
10, 149640, Note_on_c, 9, 42, 97
10, 149646, Note_on_c, 9, 42, 0
10, 149665, Control_c, 9, 99, 28
10, 149665, Control_c, 9, 98, 28
10, 149665, Control_c, 9, 6, 127
10, 149665, Control_c, 9, 38, 0
10, 149760, Note_on_c, 9, 35, 115
10, 149760, Note_on_c, 9, 42, 71
10, 149760, Note_on_c, 9, 82, 98
10, 149766, Note_on_c, 9, 82, 0
10, 149766, Note_on_c, 9, 42, 0
10, 149766, Note_on_c, 9, 35, 0
10, 149935, Control_c, 9, 99, 28
10, 149935, Control_c, 9, 98, 39
10, 149935, Control_c, 9, 6, 1
10, 149935, Control_c, 9, 38, 0
10, 150000, Note_on_c, 9, 35, 103
10, 150000, Note_on_c, 9, 82, 75
10, 150006, Note_on_c, 9, 82, 0
10, 150006, Note_on_c, 9, 35, 0
10, 150120, Note_on_c, 9, 35, 97
10, 150120, Note_on_c, 9, 82, 48
10, 150126, Note_on_c, 9, 82, 0
10, 150126, Note_on_c, 9, 35, 0
10, 150240, Note_on_c, 9, 28, 73
10, 150240, Note_on_c, 9, 37, 120
10, 150240, Note_on_c, 9, 39, 73
10, 150240, Note_on_c, 9, 42, 74
10, 150240, Note_on_c, 9, 82, 98
10, 150246, Note_on_c, 9, 82, 0
10, 150246, Note_on_c, 9, 39, 0
10, 150246, Note_on_c, 9, 28, 0
10, 150246, Note_on_c, 9, 37, 0
10, 150246, Note_on_c, 9, 42, 0
10, 150480, Note_on_c, 9, 35, 41
10, 150480, Note_on_c, 9, 42, 55
10, 150486, Note_on_c, 9, 42, 0
10, 150486, Note_on_c, 9, 35, 0
10, 150720, Note_on_c, 9, 35, 115
10, 150720, Note_on_c, 9, 82, 98
10, 150726, Note_on_c, 9, 82, 0
10, 150726, Note_on_c, 9, 35, 0
10, 150960, Note_on_c, 9, 35, 115
10, 150960, Note_on_c, 9, 82, 75
10, 150966, Note_on_c, 9, 82, 0
10, 150966, Note_on_c, 9, 35, 0
10, 151200, Note_on_c, 9, 28, 73
10, 151200, Note_on_c, 9, 37, 120
10, 151200, Note_on_c, 9, 39, 73
10, 151200, Note_on_c, 9, 42, 76
10, 151200, Note_on_c, 9, 82, 90
10, 151206, Note_on_c, 9, 82, 0
10, 151206, Note_on_c, 9, 39, 0
10, 151206, Note_on_c, 9, 28, 0
10, 151206, Note_on_c, 9, 37, 0
10, 151206, Note_on_c, 9, 42, 0
10, 151440, Note_on_c, 9, 35, 42
10, 151440, Note_on_c, 9, 42, 55
10, 151446, Note_on_c, 9, 42, 0
10, 151446, Note_on_c, 9, 35, 0
10, 151680, Note_on_c, 9, 35, 115
10, 151680, Note_on_c, 9, 82, 98
10, 151686, Note_on_c, 9, 82, 0
10, 151686, Note_on_c, 9, 35, 0
10, 151920, Note_on_c, 9, 35, 103
10, 151920, Note_on_c, 9, 82, 75
10, 151926, Note_on_c, 9, 82, 0
10, 151926, Note_on_c, 9, 35, 0
10, 152040, Note_on_c, 9, 35, 97
10, 152040, Note_on_c, 9, 82, 48
10, 152046, Note_on_c, 9, 82, 0
10, 152046, Note_on_c, 9, 35, 0
10, 152160, Note_on_c, 9, 28, 73
10, 152160, Note_on_c, 9, 37, 120
10, 152160, Note_on_c, 9, 39, 73
10, 152160, Note_on_c, 9, 42, 74
10, 152160, Note_on_c, 9, 82, 98
10, 152166, Note_on_c, 9, 82, 0
10, 152166, Note_on_c, 9, 39, 0
10, 152166, Note_on_c, 9, 28, 0
10, 152166, Note_on_c, 9, 37, 0
10, 152166, Note_on_c, 9, 42, 0
10, 152400, Note_on_c, 9, 35, 41
10, 152400, Note_on_c, 9, 42, 55
10, 152406, Note_on_c, 9, 42, 0
10, 152406, Note_on_c, 9, 35, 0
10, 152640, Note_on_c, 9, 35, 115
10, 152640, Note_on_c, 9, 82, 98
10, 152646, Note_on_c, 9, 82, 0
10, 152646, Note_on_c, 9, 35, 0
10, 152880, Note_on_c, 9, 35, 115
10, 152880, Note_on_c, 9, 82, 75
10, 152886, Note_on_c, 9, 82, 0
10, 152886, Note_on_c, 9, 35, 0
10, 153120, Note_on_c, 9, 28, 73
10, 153120, Note_on_c, 9, 37, 120
10, 153120, Note_on_c, 9, 39, 73
10, 153120, Note_on_c, 9, 42, 76
10, 153120, Note_on_c, 9, 82, 90
10, 153126, Note_on_c, 9, 82, 0
10, 153126, Note_on_c, 9, 39, 0
10, 153126, Note_on_c, 9, 28, 0
10, 153126, Note_on_c, 9, 37, 0
10, 153126, Note_on_c, 9, 42, 0
10, 153360, Note_on_c, 9, 35, 42
10, 153360, Note_on_c, 9, 42, 55
10, 153366, Note_on_c, 9, 42, 0
10, 153366, Note_on_c, 9, 35, 0
10, 153600, Note_on_c, 9, 35, 115
10, 153600, Note_on_c, 9, 82, 98
10, 153606, Note_on_c, 9, 82, 0
10, 153606, Note_on_c, 9, 35, 0
10, 153840, Note_on_c, 9, 35, 103
10, 153840, Note_on_c, 9, 82, 75
10, 153846, Note_on_c, 9, 82, 0
10, 153846, Note_on_c, 9, 35, 0
10, 153960, Note_on_c, 9, 35, 97
10, 153960, Note_on_c, 9, 82, 48
10, 153966, Note_on_c, 9, 82, 0
10, 153966, Note_on_c, 9, 35, 0
10, 154080, Note_on_c, 9, 28, 73
10, 154080, Note_on_c, 9, 37, 120
10, 154080, Note_on_c, 9, 39, 73
10, 154080, Note_on_c, 9, 42, 74
10, 154080, Note_on_c, 9, 82, 98
10, 154086, Note_on_c, 9, 82, 0
10, 154086, Note_on_c, 9, 39, 0
10, 154086, Note_on_c, 9, 28, 0
10, 154086, Note_on_c, 9, 37, 0
10, 154086, Note_on_c, 9, 42, 0
10, 154320, Note_on_c, 9, 35, 41
10, 154320, Note_on_c, 9, 42, 55
10, 154326, Note_on_c, 9, 42, 0
10, 154326, Note_on_c, 9, 35, 0
10, 154560, Note_on_c, 9, 35, 115
10, 154560, Note_on_c, 9, 82, 98
10, 154566, Note_on_c, 9, 82, 0
10, 154566, Note_on_c, 9, 35, 0
10, 154800, Note_on_c, 9, 35, 115
10, 154800, Note_on_c, 9, 82, 75
10, 154806, Note_on_c, 9, 82, 0
10, 154806, Note_on_c, 9, 35, 0
10, 155040, Note_on_c, 9, 28, 73
10, 155040, Note_on_c, 9, 37, 120
10, 155040, Note_on_c, 9, 39, 73
10, 155040, Note_on_c, 9, 42, 76
10, 155040, Note_on_c, 9, 82, 90
10, 155046, Note_on_c, 9, 82, 0
10, 155046, Note_on_c, 9, 39, 0
10, 155046, Note_on_c, 9, 28, 0
10, 155046, Note_on_c, 9, 37, 0
10, 155046, Note_on_c, 9, 42, 0
10, 155280, Note_on_c, 9, 35, 42
10, 155280, Note_on_c, 9, 42, 55
10, 155286, Note_on_c, 9, 42, 0
10, 155286, Note_on_c, 9, 35, 0
10, 155520, Note_on_c, 9, 35, 115
10, 155520, Note_on_c, 9, 82, 98
10, 155526, Note_on_c, 9, 82, 0
10, 155526, Note_on_c, 9, 35, 0
10, 155760, Note_on_c, 9, 35, 103
10, 155760, Note_on_c, 9, 82, 75
10, 155766, Note_on_c, 9, 82, 0
10, 155766, Note_on_c, 9, 35, 0
10, 155880, Note_on_c, 9, 35, 97
10, 155880, Note_on_c, 9, 82, 48
10, 155886, Note_on_c, 9, 82, 0
10, 155886, Note_on_c, 9, 35, 0
10, 156000, Note_on_c, 9, 28, 73
10, 156000, Note_on_c, 9, 37, 120
10, 156000, Note_on_c, 9, 39, 73
10, 156000, Note_on_c, 9, 42, 74
10, 156000, Note_on_c, 9, 82, 98
10, 156006, Note_on_c, 9, 82, 0
10, 156006, Note_on_c, 9, 39, 0
10, 156006, Note_on_c, 9, 28, 0
10, 156006, Note_on_c, 9, 37, 0
10, 156006, Note_on_c, 9, 42, 0
10, 156240, Note_on_c, 9, 35, 41
10, 156240, Note_on_c, 9, 42, 55
10, 156246, Note_on_c, 9, 42, 0
10, 156246, Note_on_c, 9, 35, 0
10, 156480, Note_on_c, 9, 35, 115
10, 156480, Note_on_c, 9, 82, 98
10, 156486, Note_on_c, 9, 82, 0
10, 156486, Note_on_c, 9, 35, 0
10, 156720, Note_on_c, 9, 35, 115
10, 156720, Note_on_c, 9, 82, 75
10, 156726, Note_on_c, 9, 82, 0
10, 156726, Note_on_c, 9, 35, 0
10, 156960, Note_on_c, 9, 28, 73
10, 156960, Note_on_c, 9, 37, 120
10, 156960, Note_on_c, 9, 39, 73
10, 156960, Note_on_c, 9, 42, 76
10, 156960, Note_on_c, 9, 82, 90
10, 156966, Note_on_c, 9, 82, 0
10, 156966, Note_on_c, 9, 39, 0
10, 156966, Note_on_c, 9, 28, 0
10, 156966, Note_on_c, 9, 37, 0
10, 156966, Note_on_c, 9, 42, 0
10, 157200, Note_on_c, 9, 35, 42
10, 157200, Note_on_c, 9, 42, 55
10, 157206, Note_on_c, 9, 42, 0
10, 157206, Note_on_c, 9, 35, 0
10, 157440, Note_on_c, 9, 35, 115
10, 157440, Note_on_c, 9, 82, 98
10, 157446, Note_on_c, 9, 82, 0
10, 157446, Note_on_c, 9, 35, 0
10, 157680, Note_on_c, 9, 35, 103
10, 157680, Note_on_c, 9, 82, 75
10, 157686, Note_on_c, 9, 82, 0
10, 157686, Note_on_c, 9, 35, 0
10, 157800, Note_on_c, 9, 35, 97
10, 157800, Note_on_c, 9, 82, 48
10, 157806, Note_on_c, 9, 82, 0
10, 157806, Note_on_c, 9, 35, 0
10, 157920, Note_on_c, 9, 28, 73
10, 157920, Note_on_c, 9, 37, 120
10, 157920, Note_on_c, 9, 39, 73
10, 157920, Note_on_c, 9, 42, 74
10, 157920, Note_on_c, 9, 82, 98
10, 157926, Note_on_c, 9, 82, 0
10, 157926, Note_on_c, 9, 39, 0
10, 157926, Note_on_c, 9, 28, 0
10, 157926, Note_on_c, 9, 37, 0
10, 157926, Note_on_c, 9, 42, 0
10, 158160, Note_on_c, 9, 35, 41
10, 158160, Note_on_c, 9, 42, 55
10, 158166, Note_on_c, 9, 42, 0
10, 158166, Note_on_c, 9, 35, 0
10, 158400, Note_on_c, 9, 35, 115
10, 158400, Note_on_c, 9, 82, 98
10, 158406, Note_on_c, 9, 82, 0
10, 158406, Note_on_c, 9, 35, 0
10, 158640, Note_on_c, 9, 35, 115
10, 158640, Note_on_c, 9, 82, 75
10, 158646, Note_on_c, 9, 82, 0
10, 158646, Note_on_c, 9, 35, 0
10, 158880, Note_on_c, 9, 28, 73
10, 158880, Note_on_c, 9, 37, 120
10, 158880, Note_on_c, 9, 39, 73
10, 158880, Note_on_c, 9, 42, 76
10, 158880, Note_on_c, 9, 82, 90
10, 158886, Note_on_c, 9, 82, 0
10, 158886, Note_on_c, 9, 39, 0
10, 158886, Note_on_c, 9, 28, 0
10, 158886, Note_on_c, 9, 37, 0
10, 158886, Note_on_c, 9, 42, 0
10, 159120, Note_on_c, 9, 35, 42
10, 159120, Note_on_c, 9, 42, 55
10, 159126, Note_on_c, 9, 42, 0
10, 159126, Note_on_c, 9, 35, 0
10, 159360, Note_on_c, 9, 35, 115
10, 159360, Note_on_c, 9, 82, 98
10, 159366, Note_on_c, 9, 82, 0
10, 159366, Note_on_c, 9, 35, 0
10, 159600, Note_on_c, 9, 35, 103
10, 159600, Note_on_c, 9, 82, 75
10, 159606, Note_on_c, 9, 82, 0
10, 159606, Note_on_c, 9, 35, 0
10, 159720, Note_on_c, 9, 35, 97
10, 159720, Note_on_c, 9, 82, 48
10, 159726, Note_on_c, 9, 82, 0
10, 159726, Note_on_c, 9, 35, 0
10, 159840, Note_on_c, 9, 28, 73
10, 159840, Note_on_c, 9, 37, 120
10, 159840, Note_on_c, 9, 39, 73
10, 159840, Note_on_c, 9, 42, 74
10, 159840, Note_on_c, 9, 82, 98
10, 159846, Note_on_c, 9, 82, 0
10, 159846, Note_on_c, 9, 39, 0
10, 159846, Note_on_c, 9, 28, 0
10, 159846, Note_on_c, 9, 37, 0
10, 159846, Note_on_c, 9, 42, 0
10, 160080, Note_on_c, 9, 35, 41
10, 160080, Note_on_c, 9, 42, 55
10, 160086, Note_on_c, 9, 42, 0
10, 160086, Note_on_c, 9, 35, 0
10, 160320, Note_on_c, 9, 35, 115
10, 160320, Note_on_c, 9, 82, 98
10, 160326, Note_on_c, 9, 82, 0
10, 160326, Note_on_c, 9, 35, 0
10, 160560, Note_on_c, 9, 35, 115
10, 160560, Note_on_c, 9, 82, 75
10, 160566, Note_on_c, 9, 82, 0
10, 160566, Note_on_c, 9, 35, 0
10, 160800, Note_on_c, 9, 28, 73
10, 160800, Note_on_c, 9, 37, 120
10, 160800, Note_on_c, 9, 39, 73
10, 160800, Note_on_c, 9, 42, 76
10, 160800, Note_on_c, 9, 82, 90
10, 160806, Note_on_c, 9, 82, 0
10, 160806, Note_on_c, 9, 39, 0
10, 160806, Note_on_c, 9, 28, 0
10, 160806, Note_on_c, 9, 37, 0
10, 160806, Note_on_c, 9, 42, 0
10, 161040, Note_on_c, 9, 35, 42
10, 161040, Note_on_c, 9, 42, 55
10, 161046, Note_on_c, 9, 42, 0
10, 161046, Note_on_c, 9, 35, 0
10, 161280, Note_on_c, 9, 35, 115
10, 161280, Note_on_c, 9, 82, 98
10, 161286, Note_on_c, 9, 82, 0
10, 161286, Note_on_c, 9, 35, 0
10, 161520, Note_on_c, 9, 35, 103
10, 161520, Note_on_c, 9, 82, 75
10, 161526, Note_on_c, 9, 82, 0
10, 161526, Note_on_c, 9, 35, 0
10, 161640, Note_on_c, 9, 35, 97
10, 161640, Note_on_c, 9, 82, 48
10, 161646, Note_on_c, 9, 82, 0
10, 161646, Note_on_c, 9, 35, 0
10, 161760, Note_on_c, 9, 28, 73
10, 161760, Note_on_c, 9, 37, 120
10, 161760, Note_on_c, 9, 39, 73
10, 161760, Note_on_c, 9, 42, 74
10, 161760, Note_on_c, 9, 82, 98
10, 161766, Note_on_c, 9, 82, 0
10, 161766, Note_on_c, 9, 39, 0
10, 161766, Note_on_c, 9, 28, 0
10, 161766, Note_on_c, 9, 37, 0
10, 161766, Note_on_c, 9, 42, 0
10, 162000, Note_on_c, 9, 35, 41
10, 162000, Note_on_c, 9, 42, 55
10, 162006, Note_on_c, 9, 42, 0
10, 162006, Note_on_c, 9, 35, 0
10, 162240, Note_on_c, 9, 35, 115
10, 162240, Note_on_c, 9, 82, 98
10, 162246, Note_on_c, 9, 82, 0
10, 162246, Note_on_c, 9, 35, 0
10, 162480, Note_on_c, 9, 35, 115
10, 162480, Note_on_c, 9, 82, 75
10, 162486, Note_on_c, 9, 82, 0
10, 162486, Note_on_c, 9, 35, 0
10, 162720, Note_on_c, 9, 28, 73
10, 162720, Note_on_c, 9, 37, 120
10, 162720, Note_on_c, 9, 39, 73
10, 162720, Note_on_c, 9, 42, 76
10, 162720, Note_on_c, 9, 82, 90
10, 162726, Note_on_c, 9, 82, 0
10, 162726, Note_on_c, 9, 39, 0
10, 162726, Note_on_c, 9, 28, 0
10, 162726, Note_on_c, 9, 37, 0
10, 162726, Note_on_c, 9, 42, 0
10, 162960, Note_on_c, 9, 35, 42
10, 162960, Note_on_c, 9, 42, 55
10, 162966, Note_on_c, 9, 42, 0
10, 162966, Note_on_c, 9, 35, 0
10, 163200, Note_on_c, 9, 35, 115
10, 163200, Note_on_c, 9, 82, 98
10, 163206, Note_on_c, 9, 82, 0
10, 163206, Note_on_c, 9, 35, 0
10, 163440, Note_on_c, 9, 35, 103
10, 163440, Note_on_c, 9, 82, 75
10, 163446, Note_on_c, 9, 82, 0
10, 163446, Note_on_c, 9, 35, 0
10, 163560, Note_on_c, 9, 35, 97
10, 163560, Note_on_c, 9, 82, 48
10, 163566, Note_on_c, 9, 82, 0
10, 163566, Note_on_c, 9, 35, 0
10, 163680, Note_on_c, 9, 28, 73
10, 163680, Note_on_c, 9, 37, 120
10, 163680, Note_on_c, 9, 39, 73
10, 163680, Note_on_c, 9, 42, 74
10, 163680, Note_on_c, 9, 82, 98
10, 163686, Note_on_c, 9, 82, 0
10, 163686, Note_on_c, 9, 39, 0
10, 163686, Note_on_c, 9, 28, 0
10, 163686, Note_on_c, 9, 37, 0
10, 163686, Note_on_c, 9, 42, 0
10, 163920, Note_on_c, 9, 35, 41
10, 163920, Note_on_c, 9, 42, 55
10, 163926, Note_on_c, 9, 42, 0
10, 163926, Note_on_c, 9, 35, 0
10, 164160, Note_on_c, 9, 35, 115
10, 164160, Note_on_c, 9, 82, 98
10, 164166, Note_on_c, 9, 82, 0
10, 164166, Note_on_c, 9, 35, 0
10, 164400, Note_on_c, 9, 35, 115
10, 164400, Note_on_c, 9, 82, 75
10, 164406, Note_on_c, 9, 82, 0
10, 164406, Note_on_c, 9, 35, 0
10, 164640, Note_on_c, 9, 28, 73
10, 164640, Note_on_c, 9, 37, 120
10, 164640, Note_on_c, 9, 39, 73
10, 164640, Note_on_c, 9, 42, 76
10, 164640, Note_on_c, 9, 82, 90
10, 164646, Note_on_c, 9, 82, 0
10, 164646, Note_on_c, 9, 39, 0
10, 164646, Note_on_c, 9, 28, 0
10, 164646, Note_on_c, 9, 37, 0
10, 164646, Note_on_c, 9, 42, 0
10, 164880, Note_on_c, 9, 35, 42
10, 164880, Note_on_c, 9, 42, 55
10, 164886, Note_on_c, 9, 42, 0
10, 164886, Note_on_c, 9, 35, 0
10, 166560, Note_on_c, 9, 28, 73
10, 166560, Note_on_c, 9, 37, 76
10, 166560, Note_on_c, 9, 82, 93
10, 166566, Note_on_c, 9, 82, 0
10, 166566, Note_on_c, 9, 37, 0
10, 166566, Note_on_c, 9, 28, 0
10, 166566, End_track
11, 0, Start_track
11, 0, MIDI_port, 0
11, 537, Program_c, 11, 75
11, 538, Control_c, 11, 7, 100
11, 2550, Control_c, 11, 11, 127
11, 4076, Note_on_c, 11, 72, 100
11, 4253, Note_on_c, 11, 72, 0
11, 4303, Note_on_c, 11, 72, 100
11, 4496, Note_on_c, 11, 72, 0
11, 4539, Note_on_c, 11, 70, 100
11, 4701, Control_c, 11, 1, 4
11, 4733, Control_c, 11, 1, 20
11, 4764, Control_c, 11, 1, 29
11, 4796, Control_c, 11, 1, 42
11, 4828, Control_c, 11, 1, 56
11, 4860, Control_c, 11, 1, 67
11, 4894, Control_c, 11, 1, 73
11, 4926, Control_c, 11, 1, 77
11, 4985, Control_c, 11, 1, 62
11, 5011, Note_on_c, 11, 70, 0
11, 5017, Control_c, 11, 1, 0
11, 5034, Note_on_c, 11, 67, 100
11, 5248, Pitch_bend_c, 11, 8134
11, 5257, Note_on_c, 11, 67, 0
11, 5259, Pitch_bend_c, 11, 6633
11, 5269, Note_on_c, 11, 70, 100
11, 5270, Pitch_bend_c, 11, 5075
11, 5280, Pitch_bend_c, 11, 3840
11, 5290, Pitch_bend_c, 11, 2890
11, 5325, Pitch_bend_c, 11, 3593
11, 5338, Pitch_bend_c, 11, 5664
11, 5349, Pitch_bend_c, 11, 8192
11, 5534, Control_c, 11, 1, 3
11, 5566, Control_c, 11, 1, 22
11, 5598, Control_c, 11, 1, 39
11, 5630, Control_c, 11, 1, 51
11, 5662, Control_c, 11, 1, 64
11, 5694, Control_c, 11, 1, 71
11, 5723, Note_on_c, 11, 70, 0
11, 5739, Control_c, 11, 1, 60
11, 5771, Control_c, 11, 1, 0
11, 5992, Note_on_c, 11, 72, 100
11, 6172, Note_on_c, 11, 72, 0
11, 6224, Note_on_c, 11, 72, 100
11, 6401, Note_on_c, 11, 72, 0
11, 6454, Note_on_c, 11, 70, 100
11, 6573, Control_c, 11, 1, 3
11, 6605, Control_c, 11, 1, 17
11, 6637, Control_c, 11, 1, 30
11, 6669, Control_c, 11, 1, 42
11, 6700, Control_c, 11, 1, 52
11, 6732, Control_c, 11, 1, 63
11, 6765, Control_c, 11, 1, 73
11, 6796, Control_c, 11, 1, 82
11, 6831, Control_c, 11, 1, 79
11, 6863, Control_c, 11, 1, 0
11, 6923, Note_on_c, 11, 70, 0
11, 6954, Note_on_c, 11, 67, 100
11, 7181, Pitch_bend_c, 11, 6861
11, 7184, Note_on_c, 11, 67, 0
11, 7192, Pitch_bend_c, 11, 5227
11, 7198, Note_on_c, 11, 70, 100
11, 7203, Pitch_bend_c, 11, 3422
11, 7216, Pitch_bend_c, 11, 2453
11, 7237, Pitch_bend_c, 11, 3574
11, 7248, Pitch_bend_c, 11, 5474
11, 7258, Pitch_bend_c, 11, 8192
11, 7452, Control_c, 11, 1, 9
11, 7484, Control_c, 11, 1, 30
11, 7516, Control_c, 11, 1, 49
11, 7548, Control_c, 11, 1, 65
11, 7579, Control_c, 11, 1, 70
11, 7627, Control_c, 11, 1, 62
11, 7644, Note_on_c, 11, 70, 0
11, 7657, Control_c, 11, 1, 0
11, 7913, Note_on_c, 11, 72, 100
11, 8081, Note_on_c, 11, 72, 0
11, 8133, Note_on_c, 11, 72, 100
11, 8329, Note_on_c, 11, 72, 0
11, 8365, Note_on_c, 11, 70, 100
11, 8506, Control_c, 11, 1, 19
11, 8538, Control_c, 11, 1, 33
11, 8570, Control_c, 11, 1, 44
11, 8602, Control_c, 11, 1, 54
11, 8634, Control_c, 11, 1, 66
11, 8666, Control_c, 11, 1, 76
11, 8703, Control_c, 11, 1, 84
11, 8762, Control_c, 11, 1, 61
11, 8793, Control_c, 11, 1, 0
11, 8831, Note_on_c, 11, 70, 0
11, 8854, Note_on_c, 11, 67, 100
11, 9078, Pitch_bend_c, 11, 8172
11, 9088, Pitch_bend_c, 11, 6918
11, 9090, Note_on_c, 11, 67, 0
11, 9099, Pitch_bend_c, 11, 5474
11, 9102, Note_on_c, 11, 70, 100
11, 9110, Pitch_bend_c, 11, 3935
11, 9120, Pitch_bend_c, 11, 2890
11, 9147, Pitch_bend_c, 11, 3992
11, 9157, Pitch_bend_c, 11, 5778
11, 9168, Pitch_bend_c, 11, 8192
11, 9362, Control_c, 11, 1, 11
11, 9394, Control_c, 11, 1, 35
11, 9425, Control_c, 11, 1, 51
11, 9458, Control_c, 11, 1, 63
11, 9492, Control_c, 11, 1, 70
11, 9550, Note_on_c, 11, 70, 0
11, 9555, Control_c, 11, 1, 49
11, 9588, Control_c, 11, 1, 0
11, 9819, Note_on_c, 11, 72, 100
11, 9992, Note_on_c, 11, 72, 0
11, 10051, Note_on_c, 11, 72, 100
11, 10233, Note_on_c, 11, 72, 0
11, 10285, Note_on_c, 11, 70, 100
11, 10403, Control_c, 11, 1, 2
11, 10435, Control_c, 11, 1, 13
11, 10467, Control_c, 11, 1, 26
11, 10499, Control_c, 11, 1, 36
11, 10530, Control_c, 11, 1, 46
11, 10565, Control_c, 11, 1, 56
11, 10597, Control_c, 11, 1, 68
11, 10629, Control_c, 11, 1, 75
11, 10677, Control_c, 11, 1, 56
11, 10708, Control_c, 11, 1, 0
11, 10755, Note_on_c, 11, 70, 0
11, 10781, Note_on_c, 11, 67, 100
11, 10977, Pitch_bend_c, 11, 7317
11, 10987, Pitch_bend_c, 11, 5987
11, 10990, Note_on_c, 11, 67, 0
11, 10998, Pitch_bend_c, 11, 4486
11, 11008, Pitch_bend_c, 11, 3479
11, 11011, Note_on_c, 11, 70, 100
11, 11025, Pitch_bend_c, 11, 3669
11, 11035, Pitch_bend_c, 11, 5474
11, 11046, Pitch_bend_c, 11, 8192
11, 11242, Control_c, 11, 1, 13
11, 11274, Control_c, 11, 1, 30
11, 11309, Control_c, 11, 1, 0
11, 11368, Note_on_c, 11, 70, 0
11, 25196, Note_on_c, 11, 72, 100
11, 25373, Note_on_c, 11, 72, 0
11, 25423, Note_on_c, 11, 72, 100
11, 25616, Note_on_c, 11, 72, 0
11, 25659, Note_on_c, 11, 70, 100
11, 25821, Control_c, 11, 1, 4
11, 25853, Control_c, 11, 1, 20
11, 25884, Control_c, 11, 1, 29
11, 25916, Control_c, 11, 1, 42
11, 25948, Control_c, 11, 1, 56
11, 25980, Control_c, 11, 1, 67
11, 26014, Control_c, 11, 1, 73
11, 26046, Control_c, 11, 1, 77
11, 26105, Control_c, 11, 1, 62
11, 26131, Note_on_c, 11, 70, 0
11, 26137, Control_c, 11, 1, 0
11, 26154, Note_on_c, 11, 67, 100
11, 26368, Pitch_bend_c, 11, 8134
11, 26377, Note_on_c, 11, 67, 0
11, 26379, Pitch_bend_c, 11, 6633
11, 26389, Note_on_c, 11, 70, 100
11, 26390, Pitch_bend_c, 11, 5075
11, 26400, Pitch_bend_c, 11, 3840
11, 26410, Pitch_bend_c, 11, 2890
11, 26445, Pitch_bend_c, 11, 3593
11, 26458, Pitch_bend_c, 11, 5664
11, 26469, Pitch_bend_c, 11, 8192
11, 26654, Control_c, 11, 1, 3
11, 26686, Control_c, 11, 1, 22
11, 26718, Control_c, 11, 1, 39
11, 26750, Control_c, 11, 1, 51
11, 26782, Control_c, 11, 1, 64
11, 26814, Control_c, 11, 1, 71
11, 26843, Note_on_c, 11, 70, 0
11, 26859, Control_c, 11, 1, 60
11, 27080, Note_on_c, 11, 72, 100
11, 27257, Note_on_c, 11, 72, 0
11, 27307, Note_on_c, 11, 72, 100
11, 27500, Note_on_c, 11, 72, 0
11, 27543, Note_on_c, 11, 70, 100
11, 27705, Control_c, 11, 1, 4
11, 27737, Control_c, 11, 1, 20
11, 27768, Control_c, 11, 1, 29
11, 27800, Control_c, 11, 1, 42
11, 27832, Control_c, 11, 1, 56
11, 27864, Control_c, 11, 1, 67
11, 27898, Control_c, 11, 1, 73
11, 27930, Control_c, 11, 1, 77
11, 27989, Control_c, 11, 1, 62
11, 28015, Note_on_c, 11, 70, 0
11, 28021, Control_c, 11, 1, 0
11, 28038, Note_on_c, 11, 67, 100
11, 28252, Pitch_bend_c, 11, 8134
11, 28261, Note_on_c, 11, 67, 0
11, 28263, Pitch_bend_c, 11, 6633
11, 28273, Note_on_c, 11, 70, 100
11, 28274, Pitch_bend_c, 11, 5075
11, 28284, Pitch_bend_c, 11, 3840
11, 28294, Pitch_bend_c, 11, 2890
11, 28329, Pitch_bend_c, 11, 3593
11, 28342, Pitch_bend_c, 11, 5664
11, 28353, Pitch_bend_c, 11, 8192
11, 28538, Control_c, 11, 1, 3
11, 28570, Control_c, 11, 1, 22
11, 28602, Control_c, 11, 1, 39
11, 28634, Control_c, 11, 1, 51
11, 28666, Control_c, 11, 1, 64
11, 28698, Control_c, 11, 1, 71
11, 28727, Note_on_c, 11, 70, 0
11, 28743, Control_c, 11, 1, 60
11, 42476, Note_on_c, 11, 72, 100
11, 42653, Note_on_c, 11, 72, 0
11, 42703, Note_on_c, 11, 72, 100
11, 42896, Note_on_c, 11, 72, 0
11, 42939, Note_on_c, 11, 70, 100
11, 43101, Control_c, 11, 1, 4
11, 43133, Control_c, 11, 1, 20
11, 43164, Control_c, 11, 1, 29
11, 43196, Control_c, 11, 1, 42
11, 43228, Control_c, 11, 1, 56
11, 43260, Control_c, 11, 1, 67
11, 43294, Control_c, 11, 1, 73
11, 43326, Control_c, 11, 1, 77
11, 43385, Control_c, 11, 1, 62
11, 43411, Note_on_c, 11, 70, 0
11, 43417, Control_c, 11, 1, 0
11, 43434, Note_on_c, 11, 67, 100
11, 43648, Pitch_bend_c, 11, 8134
11, 43657, Note_on_c, 11, 67, 0
11, 43659, Pitch_bend_c, 11, 6633
11, 43669, Note_on_c, 11, 70, 100
11, 43670, Pitch_bend_c, 11, 5075
11, 43680, Pitch_bend_c, 11, 3840
11, 43690, Pitch_bend_c, 11, 2890
11, 43725, Pitch_bend_c, 11, 3593
11, 43738, Pitch_bend_c, 11, 5664
11, 43749, Pitch_bend_c, 11, 8192
11, 43934, Control_c, 11, 1, 3
11, 43966, Control_c, 11, 1, 22
11, 43998, Control_c, 11, 1, 39
11, 44030, Control_c, 11, 1, 51
11, 44062, Control_c, 11, 1, 64
11, 44094, Control_c, 11, 1, 71
11, 44123, Note_on_c, 11, 70, 0
11, 44139, Control_c, 11, 1, 60
11, 44360, Note_on_c, 11, 72, 100
11, 44537, Note_on_c, 11, 72, 0
11, 44587, Note_on_c, 11, 72, 100
11, 44780, Note_on_c, 11, 72, 0
11, 44823, Note_on_c, 11, 70, 100
11, 44985, Control_c, 11, 1, 4
11, 45017, Control_c, 11, 1, 20
11, 45048, Control_c, 11, 1, 29
11, 45080, Control_c, 11, 1, 42
11, 45112, Control_c, 11, 1, 56
11, 45144, Control_c, 11, 1, 67
11, 45178, Control_c, 11, 1, 73
11, 45210, Control_c, 11, 1, 77
11, 45269, Control_c, 11, 1, 62
11, 45295, Note_on_c, 11, 70, 0
11, 45301, Control_c, 11, 1, 0
11, 45318, Note_on_c, 11, 67, 100
11, 45532, Pitch_bend_c, 11, 8134
11, 45541, Note_on_c, 11, 67, 0
11, 45543, Pitch_bend_c, 11, 6633
11, 45553, Note_on_c, 11, 70, 100
11, 45554, Pitch_bend_c, 11, 5075
11, 45564, Pitch_bend_c, 11, 3840
11, 45574, Pitch_bend_c, 11, 2890
11, 45609, Pitch_bend_c, 11, 3593
11, 45622, Pitch_bend_c, 11, 5664
11, 45633, Pitch_bend_c, 11, 8192
11, 45818, Control_c, 11, 1, 3
11, 45850, Control_c, 11, 1, 22
11, 45882, Control_c, 11, 1, 39
11, 45914, Control_c, 11, 1, 51
11, 45946, Control_c, 11, 1, 64
11, 45978, Control_c, 11, 1, 71
11, 46007, Note_on_c, 11, 70, 0
11, 46023, Control_c, 11, 1, 60
11, 46316, Note_on_c, 11, 72, 100
11, 46493, Note_on_c, 11, 72, 0
11, 46543, Note_on_c, 11, 72, 100
11, 46736, Note_on_c, 11, 72, 0
11, 46779, Note_on_c, 11, 70, 100
11, 46941, Control_c, 11, 1, 4
11, 46973, Control_c, 11, 1, 20
11, 47004, Control_c, 11, 1, 29
11, 47036, Control_c, 11, 1, 42
11, 47068, Control_c, 11, 1, 56
11, 47100, Control_c, 11, 1, 67
11, 47134, Control_c, 11, 1, 73
11, 47166, Control_c, 11, 1, 77
11, 47225, Control_c, 11, 1, 62
11, 47251, Note_on_c, 11, 70, 0
11, 47257, Control_c, 11, 1, 0
11, 47274, Note_on_c, 11, 67, 100
11, 47488, Pitch_bend_c, 11, 8134
11, 47497, Note_on_c, 11, 67, 0
11, 47499, Pitch_bend_c, 11, 6633
11, 47509, Note_on_c, 11, 70, 100
11, 47510, Pitch_bend_c, 11, 5075
11, 47520, Pitch_bend_c, 11, 3840
11, 47530, Pitch_bend_c, 11, 2890
11, 47565, Pitch_bend_c, 11, 3593
11, 47578, Pitch_bend_c, 11, 5664
11, 47589, Pitch_bend_c, 11, 8192
11, 47774, Control_c, 11, 1, 3
11, 47806, Control_c, 11, 1, 22
11, 47838, Control_c, 11, 1, 39
11, 47870, Control_c, 11, 1, 51
11, 47902, Control_c, 11, 1, 64
11, 47934, Control_c, 11, 1, 71
11, 47963, Note_on_c, 11, 70, 0
11, 47979, Control_c, 11, 1, 60
11, 48000, Note_on_c, 11, 72, 100
11, 48283, Note_on_c, 11, 72, 0
11, 48360, Note_on_c, 11, 67, 100
11, 48648, Note_on_c, 11, 67, 0
11, 48720, Note_on_c, 11, 72, 100
11, 48943, Note_on_c, 11, 72, 0
11, 48960, Note_on_c, 11, 74, 100
11, 49288, Note_on_c, 11, 74, 0
11, 49307, Pitch_bend_c, 11, 16383
11, 49320, Note_on_c, 11, 72, 100
11, 49375, Pitch_bend_c, 11, 16383
11, 49442, Pitch_bend_c, 11, 12821
11, 49472, Pitch_bend_c, 11, 7981
11, 49510, Pitch_bend_c, 11, 5461
11, 49532, Pitch_bend_c, 11, 4209
11, 49628, Note_on_c, 11, 72, 0
11, 49660, Pitch_bend_c, 11, 8192
11, 49680, Note_on_c, 11, 74, 100
11, 49841, Note_on_c, 11, 74, 0
11, 49920, Note_on_c, 11, 72, 100
11, 50203, Note_on_c, 11, 72, 0
11, 50280, Note_on_c, 11, 72, 100
11, 50576, Note_on_c, 11, 72, 0
11, 50640, Note_on_c, 11, 74, 100
11, 50768, Note_on_c, 11, 74, 0
11, 50880, Note_on_c, 11, 69, 100
11, 51193, Note_on_c, 11, 69, 0
11, 51240, Note_on_c, 11, 67, 100
11, 51558, Note_on_c, 11, 67, 0
11, 52080, Note_on_c, 11, 74, 100
11, 52198, Note_on_c, 11, 74, 0
11, 52200, Note_on_c, 11, 76, 100
11, 52271, Note_on_c, 11, 76, 0
11, 52320, Note_on_c, 11, 76, 100
11, 52383, Note_on_c, 11, 76, 0
11, 52440, Note_on_c, 11, 76, 100
11, 52501, Note_on_c, 11, 76, 0
11, 52560, Note_on_c, 11, 76, 100
11, 52636, Note_on_c, 11, 76, 0
11, 52680, Note_on_c, 11, 74, 100
11, 52853, Note_on_c, 11, 74, 0
11, 52920, Note_on_c, 11, 74, 100
11, 53111, Note_on_c, 11, 74, 0
11, 53160, Note_on_c, 11, 74, 100
11, 53243, Note_on_c, 11, 74, 0
11, 53280, Note_on_c, 11, 71, 100
11, 53506, Note_on_c, 11, 71, 0
11, 53520, Note_on_c, 11, 69, 100
11, 53695, Pitch_bend_c, 11, 8191
11, 53715, Pitch_bend_c, 11, 5548
11, 53723, Note_on_c, 11, 69, 0
11, 53732, Pitch_bend_c, 11, 2113
11, 53755, Pitch_bend_c, 11, 0
11, 53852, Pitch_bend_c, 11, 2113
11, 53870, Pitch_bend_c, 11, 6869
11, 53890, Pitch_bend_c, 11, 8192
11, 54000, Note_on_c, 11, 72, 100
11, 54120, Note_on_c, 11, 69, 100
11, 54123, Note_on_c, 11, 72, 0
11, 54201, Note_on_c, 11, 69, 0
11, 54240, Note_on_c, 11, 72, 100
11, 54348, Note_on_c, 11, 72, 0
11, 54360, Note_on_c, 11, 69, 100
11, 54446, Note_on_c, 11, 69, 0
11, 54480, Note_on_c, 11, 72, 100
11, 54591, Note_on_c, 11, 72, 0
11, 54600, Note_on_c, 11, 69, 100
11, 54686, Note_on_c, 11, 69, 0
11, 54720, Note_on_c, 11, 72, 100
11, 54903, Note_on_c, 11, 72, 0
11, 54960, Note_on_c, 11, 72, 100
11, 55080, Note_on_c, 11, 69, 100
11, 55116, Note_on_c, 11, 72, 0
11, 55153, Note_on_c, 11, 69, 0
11, 55200, Note_on_c, 11, 67, 100
11, 55440, Note_on_c, 11, 69, 100
11, 55461, Note_on_c, 11, 67, 0
11, 55618, Note_on_c, 11, 69, 0
11, 55680, Note_on_c, 11, 72, 100
11, 55963, Note_on_c, 11, 72, 0
11, 56040, Note_on_c, 11, 67, 100
11, 56328, Note_on_c, 11, 67, 0
11, 56400, Note_on_c, 11, 72, 100
11, 56623, Note_on_c, 11, 72, 0
11, 56640, Note_on_c, 11, 74, 100
11, 56968, Note_on_c, 11, 74, 0
11, 56987, Pitch_bend_c, 11, 16383
11, 57000, Note_on_c, 11, 72, 100
11, 57055, Pitch_bend_c, 11, 16383
11, 57122, Pitch_bend_c, 11, 12821
11, 57152, Pitch_bend_c, 11, 7981
11, 57190, Pitch_bend_c, 11, 5461
11, 57212, Pitch_bend_c, 11, 4209
11, 57308, Note_on_c, 11, 72, 0
11, 57340, Pitch_bend_c, 11, 8192
11, 57360, Note_on_c, 11, 74, 100
11, 57521, Note_on_c, 11, 74, 0
11, 57600, Note_on_c, 11, 72, 100
11, 57883, Note_on_c, 11, 72, 0
11, 57960, Note_on_c, 11, 72, 100
11, 58256, Note_on_c, 11, 72, 0
11, 58320, Note_on_c, 11, 74, 100
11, 58448, Note_on_c, 11, 74, 0
11, 58560, Note_on_c, 11, 69, 100
11, 58873, Note_on_c, 11, 69, 0
11, 58920, Note_on_c, 11, 67, 100
11, 59238, Note_on_c, 11, 67, 0
11, 59760, Note_on_c, 11, 74, 100
11, 59878, Note_on_c, 11, 74, 0
11, 59880, Note_on_c, 11, 76, 100
11, 59951, Note_on_c, 11, 76, 0
11, 60000, Note_on_c, 11, 76, 100
11, 60063, Note_on_c, 11, 76, 0
11, 60120, Note_on_c, 11, 76, 100
11, 60181, Note_on_c, 11, 76, 0
11, 60240, Note_on_c, 11, 76, 100
11, 60316, Note_on_c, 11, 76, 0
11, 60360, Note_on_c, 11, 74, 100
11, 60533, Note_on_c, 11, 74, 0
11, 60600, Note_on_c, 11, 74, 100
11, 60791, Note_on_c, 11, 74, 0
11, 60840, Note_on_c, 11, 74, 100
11, 60923, Note_on_c, 11, 74, 0
11, 60960, Note_on_c, 11, 71, 100
11, 61186, Note_on_c, 11, 71, 0
11, 61200, Note_on_c, 11, 69, 100
11, 61375, Pitch_bend_c, 11, 8191
11, 61395, Pitch_bend_c, 11, 5548
11, 61403, Note_on_c, 11, 69, 0
11, 61412, Pitch_bend_c, 11, 2113
11, 61435, Pitch_bend_c, 11, 0
11, 61532, Pitch_bend_c, 11, 2113
11, 61550, Pitch_bend_c, 11, 6869
11, 61570, Pitch_bend_c, 11, 8192
11, 61680, Note_on_c, 11, 72, 100
11, 61800, Note_on_c, 11, 69, 100
11, 61803, Note_on_c, 11, 72, 0
11, 61881, Note_on_c, 11, 69, 0
11, 61920, Note_on_c, 11, 72, 100
11, 62028, Note_on_c, 11, 72, 0
11, 62040, Note_on_c, 11, 69, 100
11, 62126, Note_on_c, 11, 69, 0
11, 62160, Note_on_c, 11, 72, 100
11, 62271, Note_on_c, 11, 72, 0
11, 62280, Note_on_c, 11, 69, 100
11, 62366, Note_on_c, 11, 69, 0
11, 62400, Note_on_c, 11, 72, 100
11, 62583, Note_on_c, 11, 72, 0
11, 62640, Note_on_c, 11, 72, 100
11, 62760, Note_on_c, 11, 69, 100
11, 62796, Note_on_c, 11, 72, 0
11, 62833, Note_on_c, 11, 69, 0
11, 62880, Note_on_c, 11, 67, 100
11, 63120, Note_on_c, 11, 69, 100
11, 63141, Note_on_c, 11, 67, 0
11, 63298, Note_on_c, 11, 69, 0
11, 63596, Note_on_c, 11, 72, 100
11, 63773, Note_on_c, 11, 72, 0
11, 63823, Note_on_c, 11, 72, 100
11, 64016, Note_on_c, 11, 72, 0
11, 64059, Note_on_c, 11, 70, 100
11, 64221, Control_c, 11, 1, 4
11, 64253, Control_c, 11, 1, 20
11, 64284, Control_c, 11, 1, 29
11, 64316, Control_c, 11, 1, 42
11, 64348, Control_c, 11, 1, 56
11, 64380, Control_c, 11, 1, 67
11, 64414, Control_c, 11, 1, 73
11, 64446, Control_c, 11, 1, 77
11, 64505, Control_c, 11, 1, 62
11, 64531, Note_on_c, 11, 70, 0
11, 64537, Control_c, 11, 1, 0
11, 64554, Note_on_c, 11, 67, 100
11, 64768, Pitch_bend_c, 11, 8134
11, 64777, Note_on_c, 11, 67, 0
11, 64779, Pitch_bend_c, 11, 6633
11, 64789, Note_on_c, 11, 70, 100
11, 64790, Pitch_bend_c, 11, 5075
11, 64800, Pitch_bend_c, 11, 3840
11, 64810, Pitch_bend_c, 11, 2890
11, 64845, Pitch_bend_c, 11, 3593
11, 64858, Pitch_bend_c, 11, 5664
11, 64869, Pitch_bend_c, 11, 8192
11, 65054, Control_c, 11, 1, 3
11, 65086, Control_c, 11, 1, 22
11, 65118, Control_c, 11, 1, 39
11, 65150, Control_c, 11, 1, 51
11, 65182, Control_c, 11, 1, 64
11, 65214, Control_c, 11, 1, 71
11, 65243, Note_on_c, 11, 70, 0
11, 65259, Control_c, 11, 1, 60
11, 65516, Note_on_c, 11, 72, 100
11, 65693, Note_on_c, 11, 72, 0
11, 65743, Note_on_c, 11, 72, 100
11, 65936, Note_on_c, 11, 72, 0
11, 65979, Note_on_c, 11, 70, 100
11, 66141, Control_c, 11, 1, 4
11, 66173, Control_c, 11, 1, 20
11, 66204, Control_c, 11, 1, 29
11, 66236, Control_c, 11, 1, 42
11, 66268, Control_c, 11, 1, 56
11, 66300, Control_c, 11, 1, 67
11, 66334, Control_c, 11, 1, 73
11, 66366, Control_c, 11, 1, 77
11, 66425, Control_c, 11, 1, 62
11, 66451, Note_on_c, 11, 70, 0
11, 66457, Control_c, 11, 1, 0
11, 66474, Note_on_c, 11, 67, 100
11, 66688, Pitch_bend_c, 11, 8134
11, 66697, Note_on_c, 11, 67, 0
11, 66699, Pitch_bend_c, 11, 6633
11, 66709, Note_on_c, 11, 70, 100
11, 66710, Pitch_bend_c, 11, 5075
11, 66720, Pitch_bend_c, 11, 3840
11, 66730, Pitch_bend_c, 11, 2890
11, 66765, Pitch_bend_c, 11, 3593
11, 66778, Pitch_bend_c, 11, 5664
11, 66789, Pitch_bend_c, 11, 8192
11, 66974, Control_c, 11, 1, 3
11, 67006, Control_c, 11, 1, 22
11, 67038, Control_c, 11, 1, 39
11, 67070, Control_c, 11, 1, 51
11, 67102, Control_c, 11, 1, 64
11, 67134, Control_c, 11, 1, 71
11, 67163, Note_on_c, 11, 70, 0
11, 67179, Control_c, 11, 1, 60
11, 67436, Note_on_c, 11, 72, 100
11, 67613, Note_on_c, 11, 72, 0
11, 67663, Note_on_c, 11, 72, 100
11, 67856, Note_on_c, 11, 72, 0
11, 67899, Note_on_c, 11, 70, 100
11, 68061, Control_c, 11, 1, 4
11, 68093, Control_c, 11, 1, 20
11, 68124, Control_c, 11, 1, 29
11, 68156, Control_c, 11, 1, 42
11, 68188, Control_c, 11, 1, 56
11, 68220, Control_c, 11, 1, 67
11, 68254, Control_c, 11, 1, 73
11, 68286, Control_c, 11, 1, 77
11, 68345, Control_c, 11, 1, 62
11, 68371, Note_on_c, 11, 70, 0
11, 68377, Control_c, 11, 1, 0
11, 68394, Note_on_c, 11, 67, 100
11, 68608, Pitch_bend_c, 11, 8134
11, 68617, Note_on_c, 11, 67, 0
11, 68619, Pitch_bend_c, 11, 6633
11, 68629, Note_on_c, 11, 70, 100
11, 68630, Pitch_bend_c, 11, 5075
11, 68640, Pitch_bend_c, 11, 3840
11, 68650, Pitch_bend_c, 11, 2890
11, 68685, Pitch_bend_c, 11, 3593
11, 68698, Pitch_bend_c, 11, 5664
11, 68709, Pitch_bend_c, 11, 8192
11, 68894, Control_c, 11, 1, 3
11, 68926, Control_c, 11, 1, 22
11, 68958, Control_c, 11, 1, 39
11, 68990, Control_c, 11, 1, 51
11, 69022, Control_c, 11, 1, 64
11, 69054, Control_c, 11, 1, 71
11, 69083, Note_on_c, 11, 70, 0
11, 69099, Control_c, 11, 1, 60
11, 69356, Note_on_c, 11, 72, 100
11, 69533, Note_on_c, 11, 72, 0
11, 69583, Note_on_c, 11, 72, 100
11, 69776, Note_on_c, 11, 72, 0
11, 69819, Note_on_c, 11, 70, 100
11, 69981, Control_c, 11, 1, 4
11, 70013, Control_c, 11, 1, 20
11, 70044, Control_c, 11, 1, 29
11, 70076, Control_c, 11, 1, 42
11, 70108, Control_c, 11, 1, 56
11, 70140, Control_c, 11, 1, 67
11, 70174, Control_c, 11, 1, 73
11, 70206, Control_c, 11, 1, 77
11, 70265, Control_c, 11, 1, 62
11, 70291, Note_on_c, 11, 70, 0
11, 70297, Control_c, 11, 1, 0
11, 70314, Note_on_c, 11, 67, 100
11, 70528, Pitch_bend_c, 11, 8134
11, 70537, Note_on_c, 11, 67, 0
11, 70539, Pitch_bend_c, 11, 6633
11, 70549, Note_on_c, 11, 70, 100
11, 70550, Pitch_bend_c, 11, 5075
11, 70560, Pitch_bend_c, 11, 3840
11, 70570, Pitch_bend_c, 11, 2890
11, 70605, Pitch_bend_c, 11, 3593
11, 70618, Pitch_bend_c, 11, 5664
11, 70629, Pitch_bend_c, 11, 8192
11, 70814, Control_c, 11, 1, 3
11, 70846, Control_c, 11, 1, 22
11, 70878, Control_c, 11, 1, 39
11, 70910, Control_c, 11, 1, 51
11, 70942, Control_c, 11, 1, 64
11, 70974, Control_c, 11, 1, 71
11, 71003, Note_on_c, 11, 70, 0
11, 71019, Control_c, 11, 1, 60
11, 82796, Note_on_c, 11, 72, 100
11, 82973, Note_on_c, 11, 72, 0
11, 83023, Note_on_c, 11, 72, 100
11, 83216, Note_on_c, 11, 72, 0
11, 83259, Note_on_c, 11, 70, 100
11, 83421, Control_c, 11, 1, 4
11, 83453, Control_c, 11, 1, 20
11, 83484, Control_c, 11, 1, 29
11, 83516, Control_c, 11, 1, 42
11, 83548, Control_c, 11, 1, 56
11, 83580, Control_c, 11, 1, 67
11, 83614, Control_c, 11, 1, 73
11, 83646, Control_c, 11, 1, 77
11, 83705, Control_c, 11, 1, 62
11, 83731, Note_on_c, 11, 70, 0
11, 83737, Control_c, 11, 1, 0
11, 83754, Note_on_c, 11, 67, 100
11, 83968, Pitch_bend_c, 11, 8134
11, 83977, Note_on_c, 11, 67, 0
11, 83979, Pitch_bend_c, 11, 6633
11, 83989, Note_on_c, 11, 70, 100
11, 83990, Pitch_bend_c, 11, 5075
11, 84000, Pitch_bend_c, 11, 3840
11, 84010, Pitch_bend_c, 11, 2890
11, 84045, Pitch_bend_c, 11, 3593
11, 84058, Pitch_bend_c, 11, 5664
11, 84069, Pitch_bend_c, 11, 8192
11, 84254, Control_c, 11, 1, 3
11, 84286, Control_c, 11, 1, 22
11, 84318, Control_c, 11, 1, 39
11, 84350, Control_c, 11, 1, 51
11, 84382, Control_c, 11, 1, 64
11, 84414, Control_c, 11, 1, 71
11, 84443, Note_on_c, 11, 70, 0
11, 84459, Control_c, 11, 1, 60
11, 84680, Note_on_c, 11, 72, 100
11, 84857, Note_on_c, 11, 72, 0
11, 84907, Note_on_c, 11, 72, 100
11, 85100, Note_on_c, 11, 72, 0
11, 85143, Note_on_c, 11, 70, 100
11, 85305, Control_c, 11, 1, 4
11, 85337, Control_c, 11, 1, 20
11, 85368, Control_c, 11, 1, 29
11, 85400, Control_c, 11, 1, 42
11, 85432, Control_c, 11, 1, 56
11, 85464, Control_c, 11, 1, 67
11, 85498, Control_c, 11, 1, 73
11, 85530, Control_c, 11, 1, 77
11, 85589, Control_c, 11, 1, 62
11, 85615, Note_on_c, 11, 70, 0
11, 85621, Control_c, 11, 1, 0
11, 85638, Note_on_c, 11, 67, 100
11, 85852, Pitch_bend_c, 11, 8134
11, 85861, Note_on_c, 11, 67, 0
11, 85863, Pitch_bend_c, 11, 6633
11, 85873, Note_on_c, 11, 70, 100
11, 85874, Pitch_bend_c, 11, 5075
11, 85884, Pitch_bend_c, 11, 3840
11, 85894, Pitch_bend_c, 11, 2890
11, 85929, Pitch_bend_c, 11, 3593
11, 85942, Pitch_bend_c, 11, 5664
11, 85953, Pitch_bend_c, 11, 8192
11, 86138, Control_c, 11, 1, 3
11, 86170, Control_c, 11, 1, 22
11, 86202, Control_c, 11, 1, 39
11, 86234, Control_c, 11, 1, 51
11, 86266, Control_c, 11, 1, 64
11, 86298, Control_c, 11, 1, 71
11, 86327, Note_on_c, 11, 70, 0
11, 86343, Control_c, 11, 1, 60
11, 100076, Note_on_c, 11, 72, 100
11, 100253, Note_on_c, 11, 72, 0
11, 100303, Note_on_c, 11, 72, 100
11, 100496, Note_on_c, 11, 72, 0
11, 100539, Note_on_c, 11, 70, 100
11, 100701, Control_c, 11, 1, 4
11, 100733, Control_c, 11, 1, 20
11, 100764, Control_c, 11, 1, 29
11, 100796, Control_c, 11, 1, 42
11, 100828, Control_c, 11, 1, 56
11, 100860, Control_c, 11, 1, 67
11, 100894, Control_c, 11, 1, 73
11, 100926, Control_c, 11, 1, 77
11, 100985, Control_c, 11, 1, 62
11, 101011, Note_on_c, 11, 70, 0
11, 101017, Control_c, 11, 1, 0
11, 101034, Note_on_c, 11, 67, 100
11, 101248, Pitch_bend_c, 11, 8134
11, 101257, Note_on_c, 11, 67, 0
11, 101259, Pitch_bend_c, 11, 6633
11, 101269, Note_on_c, 11, 70, 100
11, 101270, Pitch_bend_c, 11, 5075
11, 101280, Pitch_bend_c, 11, 3840
11, 101290, Pitch_bend_c, 11, 2890
11, 101325, Pitch_bend_c, 11, 3593
11, 101338, Pitch_bend_c, 11, 5664
11, 101349, Pitch_bend_c, 11, 8192
11, 101534, Control_c, 11, 1, 3
11, 101566, Control_c, 11, 1, 22
11, 101598, Control_c, 11, 1, 39
11, 101630, Control_c, 11, 1, 51
11, 101662, Control_c, 11, 1, 64
11, 101694, Control_c, 11, 1, 71
11, 101723, Note_on_c, 11, 70, 0
11, 101739, Control_c, 11, 1, 60
11, 101960, Note_on_c, 11, 72, 100
11, 102137, Note_on_c, 11, 72, 0
11, 102187, Note_on_c, 11, 72, 100
11, 102380, Note_on_c, 11, 72, 0
11, 102423, Note_on_c, 11, 70, 100
11, 102585, Control_c, 11, 1, 4
11, 102617, Control_c, 11, 1, 20
11, 102648, Control_c, 11, 1, 29
11, 102680, Control_c, 11, 1, 42
11, 102712, Control_c, 11, 1, 56
11, 102744, Control_c, 11, 1, 67
11, 102778, Control_c, 11, 1, 73
11, 102810, Control_c, 11, 1, 77
11, 102869, Control_c, 11, 1, 62
11, 102895, Note_on_c, 11, 70, 0
11, 102901, Control_c, 11, 1, 0
11, 102918, Note_on_c, 11, 67, 100
11, 103132, Pitch_bend_c, 11, 8134
11, 103141, Note_on_c, 11, 67, 0
11, 103143, Pitch_bend_c, 11, 6633
11, 103153, Note_on_c, 11, 70, 100
11, 103154, Pitch_bend_c, 11, 5075
11, 103164, Pitch_bend_c, 11, 3840
11, 103174, Pitch_bend_c, 11, 2890
11, 103209, Pitch_bend_c, 11, 3593
11, 103222, Pitch_bend_c, 11, 5664
11, 103233, Pitch_bend_c, 11, 8192
11, 103418, Control_c, 11, 1, 3
11, 103450, Control_c, 11, 1, 22
11, 103482, Control_c, 11, 1, 39
11, 103514, Control_c, 11, 1, 51
11, 103546, Control_c, 11, 1, 64
11, 103578, Control_c, 11, 1, 71
11, 103607, Note_on_c, 11, 70, 0
11, 103623, Control_c, 11, 1, 60
11, 103680, Note_on_c, 11, 72, 100
11, 103963, Note_on_c, 11, 72, 0
11, 104040, Note_on_c, 11, 67, 100
11, 104328, Note_on_c, 11, 67, 0
11, 104400, Note_on_c, 11, 72, 100
11, 104623, Note_on_c, 11, 72, 0
11, 104640, Note_on_c, 11, 74, 100
11, 104968, Note_on_c, 11, 74, 0
11, 104987, Pitch_bend_c, 11, 16383
11, 105000, Note_on_c, 11, 72, 100
11, 105055, Pitch_bend_c, 11, 16383
11, 105122, Pitch_bend_c, 11, 12821
11, 105152, Pitch_bend_c, 11, 7981
11, 105190, Pitch_bend_c, 11, 5461
11, 105212, Pitch_bend_c, 11, 4209
11, 105308, Note_on_c, 11, 72, 0
11, 105340, Pitch_bend_c, 11, 8192
11, 105360, Note_on_c, 11, 74, 100
11, 105521, Note_on_c, 11, 74, 0
11, 105600, Note_on_c, 11, 72, 100
11, 105883, Note_on_c, 11, 72, 0
11, 105960, Note_on_c, 11, 72, 100
11, 106256, Note_on_c, 11, 72, 0
11, 106320, Note_on_c, 11, 74, 100
11, 106448, Note_on_c, 11, 74, 0
11, 106560, Note_on_c, 11, 69, 100
11, 106873, Note_on_c, 11, 69, 0
11, 106920, Note_on_c, 11, 67, 100
11, 107238, Note_on_c, 11, 67, 0
11, 107760, Note_on_c, 11, 74, 100
11, 107878, Note_on_c, 11, 74, 0
11, 107880, Note_on_c, 11, 76, 100
11, 107951, Note_on_c, 11, 76, 0
11, 108000, Note_on_c, 11, 76, 100
11, 108063, Note_on_c, 11, 76, 0
11, 108120, Note_on_c, 11, 76, 100
11, 108181, Note_on_c, 11, 76, 0
11, 108240, Note_on_c, 11, 76, 100
11, 108316, Note_on_c, 11, 76, 0
11, 108360, Note_on_c, 11, 74, 100
11, 108533, Note_on_c, 11, 74, 0
11, 108600, Note_on_c, 11, 74, 100
11, 108791, Note_on_c, 11, 74, 0
11, 108840, Note_on_c, 11, 74, 100
11, 108923, Note_on_c, 11, 74, 0
11, 108960, Note_on_c, 11, 71, 100
11, 109186, Note_on_c, 11, 71, 0
11, 109200, Note_on_c, 11, 69, 100
11, 109375, Pitch_bend_c, 11, 8191
11, 109395, Pitch_bend_c, 11, 5548
11, 109403, Note_on_c, 11, 69, 0
11, 109412, Pitch_bend_c, 11, 2113
11, 109435, Pitch_bend_c, 11, 0
11, 109532, Pitch_bend_c, 11, 2113
11, 109550, Pitch_bend_c, 11, 6869
11, 109570, Pitch_bend_c, 11, 8192
11, 109680, Note_on_c, 11, 72, 100
11, 109800, Note_on_c, 11, 69, 100
11, 109803, Note_on_c, 11, 72, 0
11, 109881, Note_on_c, 11, 69, 0
11, 109920, Note_on_c, 11, 72, 100
11, 110028, Note_on_c, 11, 72, 0
11, 110040, Note_on_c, 11, 69, 100
11, 110126, Note_on_c, 11, 69, 0
11, 110160, Note_on_c, 11, 72, 100
11, 110271, Note_on_c, 11, 72, 0
11, 110280, Note_on_c, 11, 69, 100
11, 110366, Note_on_c, 11, 69, 0
11, 110400, Note_on_c, 11, 72, 100
11, 110583, Note_on_c, 11, 72, 0
11, 110640, Note_on_c, 11, 72, 100
11, 110760, Note_on_c, 11, 69, 100
11, 110796, Note_on_c, 11, 72, 0
11, 110833, Note_on_c, 11, 69, 0
11, 110880, Note_on_c, 11, 67, 100
11, 111120, Note_on_c, 11, 69, 100
11, 111141, Note_on_c, 11, 67, 0
11, 111298, Note_on_c, 11, 69, 0
11, 111360, Note_on_c, 11, 72, 100
11, 111643, Note_on_c, 11, 72, 0
11, 111720, Note_on_c, 11, 67, 100
11, 112008, Note_on_c, 11, 67, 0
11, 112080, Note_on_c, 11, 72, 100
11, 112303, Note_on_c, 11, 72, 0
11, 112320, Note_on_c, 11, 74, 100
11, 112648, Note_on_c, 11, 74, 0
11, 112667, Pitch_bend_c, 11, 16383
11, 112680, Note_on_c, 11, 72, 100
11, 112735, Pitch_bend_c, 11, 16383
11, 112802, Pitch_bend_c, 11, 12821
11, 112832, Pitch_bend_c, 11, 7981
11, 112870, Pitch_bend_c, 11, 5461
11, 112892, Pitch_bend_c, 11, 4209
11, 112988, Note_on_c, 11, 72, 0
11, 113020, Pitch_bend_c, 11, 8192
11, 113040, Note_on_c, 11, 74, 100
11, 113201, Note_on_c, 11, 74, 0
11, 113280, Note_on_c, 11, 72, 100
11, 113563, Note_on_c, 11, 72, 0
11, 113640, Note_on_c, 11, 72, 100
11, 113936, Note_on_c, 11, 72, 0
11, 114000, Note_on_c, 11, 74, 100
11, 114128, Note_on_c, 11, 74, 0
11, 114240, Note_on_c, 11, 69, 100
11, 114553, Note_on_c, 11, 69, 0
11, 114600, Note_on_c, 11, 67, 100
11, 114918, Note_on_c, 11, 67, 0
11, 115440, Note_on_c, 11, 74, 100
11, 115558, Note_on_c, 11, 74, 0
11, 115560, Note_on_c, 11, 76, 100
11, 115631, Note_on_c, 11, 76, 0
11, 115680, Note_on_c, 11, 76, 100
11, 115743, Note_on_c, 11, 76, 0
11, 115800, Note_on_c, 11, 76, 100
11, 115861, Note_on_c, 11, 76, 0
11, 115920, Note_on_c, 11, 76, 100
11, 115996, Note_on_c, 11, 76, 0
11, 116040, Note_on_c, 11, 74, 100
11, 116213, Note_on_c, 11, 74, 0
11, 116280, Note_on_c, 11, 74, 100
11, 116471, Note_on_c, 11, 74, 0
11, 116520, Note_on_c, 11, 74, 100
11, 116603, Note_on_c, 11, 74, 0
11, 116640, Note_on_c, 11, 71, 100
11, 116866, Note_on_c, 11, 71, 0
11, 116880, Note_on_c, 11, 69, 100
11, 117055, Pitch_bend_c, 11, 8191
11, 117075, Pitch_bend_c, 11, 5548
11, 117083, Note_on_c, 11, 69, 0
11, 117092, Pitch_bend_c, 11, 2113
11, 117115, Pitch_bend_c, 11, 0
11, 117212, Pitch_bend_c, 11, 2113
11, 117230, Pitch_bend_c, 11, 6869
11, 117250, Pitch_bend_c, 11, 8192
11, 117360, Note_on_c, 11, 72, 100
11, 117480, Note_on_c, 11, 69, 100
11, 117483, Note_on_c, 11, 72, 0
11, 117561, Note_on_c, 11, 69, 0
11, 117600, Note_on_c, 11, 72, 100
11, 117708, Note_on_c, 11, 72, 0
11, 117720, Note_on_c, 11, 69, 100
11, 117806, Note_on_c, 11, 69, 0
11, 117840, Note_on_c, 11, 72, 100
11, 117951, Note_on_c, 11, 72, 0
11, 117960, Note_on_c, 11, 69, 100
11, 118046, Note_on_c, 11, 69, 0
11, 118080, Note_on_c, 11, 72, 100
11, 118263, Note_on_c, 11, 72, 0
11, 118320, Note_on_c, 11, 72, 100
11, 118440, Note_on_c, 11, 69, 100
11, 118476, Note_on_c, 11, 72, 0
11, 118513, Note_on_c, 11, 69, 0
11, 118560, Note_on_c, 11, 67, 100
11, 118800, Note_on_c, 11, 69, 100
11, 118821, Note_on_c, 11, 67, 0
11, 118978, Note_on_c, 11, 69, 0
11, 134400, Note_on_c, 11, 72, 100
11, 134683, Note_on_c, 11, 72, 0
11, 134760, Note_on_c, 11, 67, 100
11, 135048, Note_on_c, 11, 67, 0
11, 135120, Note_on_c, 11, 72, 100
11, 135343, Note_on_c, 11, 72, 0
11, 135360, Note_on_c, 11, 74, 100
11, 135688, Note_on_c, 11, 74, 0
11, 135707, Pitch_bend_c, 11, 16383
11, 135720, Note_on_c, 11, 72, 100
11, 135775, Pitch_bend_c, 11, 16383
11, 135842, Pitch_bend_c, 11, 12821
11, 135872, Pitch_bend_c, 11, 7981
11, 135910, Pitch_bend_c, 11, 5461
11, 135932, Pitch_bend_c, 11, 4209
11, 136028, Note_on_c, 11, 72, 0
11, 136060, Pitch_bend_c, 11, 8192
11, 136080, Note_on_c, 11, 74, 100
11, 136241, Note_on_c, 11, 74, 0
11, 136320, Note_on_c, 11, 72, 100
11, 136603, Note_on_c, 11, 72, 0
11, 136680, Note_on_c, 11, 72, 100
11, 136976, Note_on_c, 11, 72, 0
11, 137040, Note_on_c, 11, 74, 100
11, 137168, Note_on_c, 11, 74, 0
11, 137280, Note_on_c, 11, 69, 100
11, 137593, Note_on_c, 11, 69, 0
11, 137640, Note_on_c, 11, 67, 100
11, 137958, Note_on_c, 11, 67, 0
11, 138480, Note_on_c, 11, 74, 100
11, 138598, Note_on_c, 11, 74, 0
11, 138600, Note_on_c, 11, 76, 100
11, 138671, Note_on_c, 11, 76, 0
11, 138720, Note_on_c, 11, 76, 100
11, 138783, Note_on_c, 11, 76, 0
11, 138840, Note_on_c, 11, 76, 100
11, 138901, Note_on_c, 11, 76, 0
11, 138960, Note_on_c, 11, 76, 100
11, 139036, Note_on_c, 11, 76, 0
11, 139080, Note_on_c, 11, 74, 100
11, 139253, Note_on_c, 11, 74, 0
11, 139320, Note_on_c, 11, 74, 100
11, 139511, Note_on_c, 11, 74, 0
11, 139560, Note_on_c, 11, 74, 100
11, 139643, Note_on_c, 11, 74, 0
11, 139680, Note_on_c, 11, 71, 100
11, 139906, Note_on_c, 11, 71, 0
11, 139920, Note_on_c, 11, 69, 100
11, 140095, Pitch_bend_c, 11, 8191
11, 140115, Pitch_bend_c, 11, 5548
11, 140123, Note_on_c, 11, 69, 0
11, 140132, Pitch_bend_c, 11, 2113
11, 140155, Pitch_bend_c, 11, 0
11, 140252, Pitch_bend_c, 11, 2113
11, 140270, Pitch_bend_c, 11, 6869
11, 140290, Pitch_bend_c, 11, 8192
11, 140400, Note_on_c, 11, 72, 100
11, 140520, Note_on_c, 11, 69, 100
11, 140523, Note_on_c, 11, 72, 0
11, 140601, Note_on_c, 11, 69, 0
11, 140640, Note_on_c, 11, 72, 100
11, 140748, Note_on_c, 11, 72, 0
11, 140760, Note_on_c, 11, 69, 100
11, 140846, Note_on_c, 11, 69, 0
11, 140880, Note_on_c, 11, 72, 100
11, 140991, Note_on_c, 11, 72, 0
11, 141000, Note_on_c, 11, 69, 100
11, 141086, Note_on_c, 11, 69, 0
11, 141120, Note_on_c, 11, 72, 100
11, 141303, Note_on_c, 11, 72, 0
11, 141360, Note_on_c, 11, 72, 100
11, 141480, Note_on_c, 11, 69, 100
11, 141516, Note_on_c, 11, 72, 0
11, 141553, Note_on_c, 11, 69, 0
11, 141600, Note_on_c, 11, 67, 100
11, 141840, Note_on_c, 11, 69, 100
11, 141861, Note_on_c, 11, 67, 0
11, 142018, Note_on_c, 11, 69, 0
11, 142080, Note_on_c, 11, 72, 100
11, 142363, Note_on_c, 11, 72, 0
11, 142440, Note_on_c, 11, 67, 100
11, 142728, Note_on_c, 11, 67, 0
11, 142800, Note_on_c, 11, 72, 100
11, 143023, Note_on_c, 11, 72, 0
11, 143040, Note_on_c, 11, 74, 100
11, 143368, Note_on_c, 11, 74, 0
11, 143387, Pitch_bend_c, 11, 16383
11, 143400, Note_on_c, 11, 72, 100
11, 143455, Pitch_bend_c, 11, 16383
11, 143522, Pitch_bend_c, 11, 12821
11, 143552, Pitch_bend_c, 11, 7981
11, 143590, Pitch_bend_c, 11, 5461
11, 143612, Pitch_bend_c, 11, 4209
11, 143708, Note_on_c, 11, 72, 0
11, 143740, Pitch_bend_c, 11, 8192
11, 143760, Note_on_c, 11, 74, 100
11, 143921, Note_on_c, 11, 74, 0
11, 144000, Note_on_c, 11, 72, 100
11, 144283, Note_on_c, 11, 72, 0
11, 144360, Note_on_c, 11, 72, 100
11, 144656, Note_on_c, 11, 72, 0
11, 144720, Note_on_c, 11, 74, 100
11, 144848, Note_on_c, 11, 74, 0
11, 144960, Note_on_c, 11, 69, 100
11, 145273, Note_on_c, 11, 69, 0
11, 145320, Note_on_c, 11, 67, 100
11, 145638, Note_on_c, 11, 67, 0
11, 146160, Note_on_c, 11, 74, 100
11, 146278, Note_on_c, 11, 74, 0
11, 146280, Note_on_c, 11, 76, 100
11, 146351, Note_on_c, 11, 76, 0
11, 146400, Note_on_c, 11, 76, 100
11, 146463, Note_on_c, 11, 76, 0
11, 146520, Note_on_c, 11, 76, 100
11, 146581, Note_on_c, 11, 76, 0
11, 146640, Note_on_c, 11, 76, 100
11, 146716, Note_on_c, 11, 76, 0
11, 146760, Note_on_c, 11, 74, 100
11, 146933, Note_on_c, 11, 74, 0
11, 147000, Note_on_c, 11, 74, 100
11, 147191, Note_on_c, 11, 74, 0
11, 147240, Note_on_c, 11, 74, 100
11, 147323, Note_on_c, 11, 74, 0
11, 147360, Note_on_c, 11, 71, 100
11, 147586, Note_on_c, 11, 71, 0
11, 147600, Note_on_c, 11, 69, 100
11, 147775, Pitch_bend_c, 11, 8191
11, 147795, Pitch_bend_c, 11, 5548
11, 147803, Note_on_c, 11, 69, 0
11, 147812, Pitch_bend_c, 11, 2113
11, 147835, Pitch_bend_c, 11, 0
11, 147932, Pitch_bend_c, 11, 2113
11, 147950, Pitch_bend_c, 11, 6869
11, 147970, Pitch_bend_c, 11, 8192
11, 148080, Note_on_c, 11, 72, 100
11, 148200, Note_on_c, 11, 69, 100
11, 148203, Note_on_c, 11, 72, 0
11, 148281, Note_on_c, 11, 69, 0
11, 148320, Note_on_c, 11, 72, 100
11, 148428, Note_on_c, 11, 72, 0
11, 148440, Note_on_c, 11, 69, 100
11, 148526, Note_on_c, 11, 69, 0
11, 148560, Note_on_c, 11, 72, 100
11, 148671, Note_on_c, 11, 72, 0
11, 148680, Note_on_c, 11, 69, 100
11, 148766, Note_on_c, 11, 69, 0
11, 148800, Note_on_c, 11, 72, 100
11, 148983, Note_on_c, 11, 72, 0
11, 149040, Note_on_c, 11, 72, 100
11, 149160, Note_on_c, 11, 69, 100
11, 149196, Note_on_c, 11, 72, 0
11, 149233, Note_on_c, 11, 69, 0
11, 149280, Note_on_c, 11, 67, 100
11, 149520, Note_on_c, 11, 69, 100
11, 149541, Note_on_c, 11, 67, 0
11, 149698, Note_on_c, 11, 69, 0
11, 149760, Note_on_c, 11, 72, 100
11, 150043, Note_on_c, 11, 72, 0
11, 150120, Note_on_c, 11, 67, 100
11, 150408, Note_on_c, 11, 67, 0
11, 150480, Note_on_c, 11, 72, 100
11, 150703, Note_on_c, 11, 72, 0
11, 150720, Note_on_c, 11, 74, 100
11, 151048, Note_on_c, 11, 74, 0
11, 151067, Pitch_bend_c, 11, 16383
11, 151080, Note_on_c, 11, 72, 100
11, 151135, Pitch_bend_c, 11, 16383
11, 151202, Pitch_bend_c, 11, 12821
11, 151232, Pitch_bend_c, 11, 7981
11, 151270, Pitch_bend_c, 11, 5461
11, 151292, Pitch_bend_c, 11, 4209
11, 151388, Note_on_c, 11, 72, 0
11, 151420, Pitch_bend_c, 11, 8192
11, 151440, Note_on_c, 11, 74, 100
11, 151601, Note_on_c, 11, 74, 0
11, 151680, Note_on_c, 11, 72, 100
11, 151963, Note_on_c, 11, 72, 0
11, 152040, Note_on_c, 11, 72, 100
11, 152336, Note_on_c, 11, 72, 0
11, 152400, Note_on_c, 11, 74, 100
11, 152528, Note_on_c, 11, 74, 0
11, 152640, Note_on_c, 11, 69, 100
11, 152953, Note_on_c, 11, 69, 0
11, 153000, Note_on_c, 11, 67, 100
11, 153318, Note_on_c, 11, 67, 0
11, 153840, Note_on_c, 11, 74, 100
11, 153958, Note_on_c, 11, 74, 0
11, 153960, Note_on_c, 11, 76, 100
11, 154031, Note_on_c, 11, 76, 0
11, 154080, Note_on_c, 11, 76, 100
11, 154143, Note_on_c, 11, 76, 0
11, 154200, Note_on_c, 11, 76, 100
11, 154261, Note_on_c, 11, 76, 0
11, 154320, Note_on_c, 11, 76, 100
11, 154396, Note_on_c, 11, 76, 0
11, 154440, Note_on_c, 11, 74, 100
11, 154613, Note_on_c, 11, 74, 0
11, 154680, Note_on_c, 11, 74, 100
11, 154871, Note_on_c, 11, 74, 0
11, 154920, Note_on_c, 11, 74, 100
11, 155003, Note_on_c, 11, 74, 0
11, 155040, Note_on_c, 11, 71, 100
11, 155266, Note_on_c, 11, 71, 0
11, 155280, Note_on_c, 11, 69, 100
11, 155455, Pitch_bend_c, 11, 8191
11, 155475, Pitch_bend_c, 11, 5548
11, 155483, Note_on_c, 11, 69, 0
11, 155492, Pitch_bend_c, 11, 2113
11, 155515, Pitch_bend_c, 11, 0
11, 155612, Pitch_bend_c, 11, 2113
11, 155630, Pitch_bend_c, 11, 6869
11, 155650, Pitch_bend_c, 11, 8192
11, 155760, Note_on_c, 11, 72, 100
11, 155880, Note_on_c, 11, 69, 100
11, 155883, Note_on_c, 11, 72, 0
11, 155961, Note_on_c, 11, 69, 0
11, 156000, Note_on_c, 11, 72, 100
11, 156108, Note_on_c, 11, 72, 0
11, 156120, Note_on_c, 11, 69, 100
11, 156206, Note_on_c, 11, 69, 0
11, 156240, Note_on_c, 11, 72, 100
11, 156351, Note_on_c, 11, 72, 0
11, 156360, Note_on_c, 11, 69, 100
11, 156446, Note_on_c, 11, 69, 0
11, 156480, Note_on_c, 11, 72, 100
11, 156663, Note_on_c, 11, 72, 0
11, 156720, Note_on_c, 11, 72, 100
11, 156840, Note_on_c, 11, 69, 100
11, 156876, Note_on_c, 11, 72, 0
11, 156913, Note_on_c, 11, 69, 0
11, 156960, Note_on_c, 11, 67, 100
11, 157200, Note_on_c, 11, 69, 100
11, 157221, Note_on_c, 11, 67, 0
11, 157378, Note_on_c, 11, 69, 0
11, 157440, Note_on_c, 11, 72, 100
11, 157723, Note_on_c, 11, 72, 0
11, 157800, Note_on_c, 11, 67, 100
11, 158088, Note_on_c, 11, 67, 0
11, 158160, Note_on_c, 11, 72, 100
11, 158383, Note_on_c, 11, 72, 0
11, 158400, Note_on_c, 11, 74, 100
11, 158728, Note_on_c, 11, 74, 0
11, 158747, Pitch_bend_c, 11, 16383
11, 158760, Note_on_c, 11, 72, 100
11, 158815, Pitch_bend_c, 11, 16383
11, 158882, Pitch_bend_c, 11, 12821
11, 158912, Pitch_bend_c, 11, 7981
11, 158950, Pitch_bend_c, 11, 5461
11, 158972, Pitch_bend_c, 11, 4209
11, 159068, Note_on_c, 11, 72, 0
11, 159100, Pitch_bend_c, 11, 8192
11, 159120, Note_on_c, 11, 74, 100
11, 159281, Note_on_c, 11, 74, 0
11, 159360, Note_on_c, 11, 72, 100
11, 159643, Note_on_c, 11, 72, 0
11, 159720, Note_on_c, 11, 72, 100
11, 160016, Note_on_c, 11, 72, 0
11, 160080, Note_on_c, 11, 74, 100
11, 160208, Note_on_c, 11, 74, 0
11, 160320, Note_on_c, 11, 69, 100
11, 160633, Note_on_c, 11, 69, 0
11, 160680, Note_on_c, 11, 67, 100
11, 160998, Note_on_c, 11, 67, 0
11, 161520, Note_on_c, 11, 74, 100
11, 161638, Note_on_c, 11, 74, 0
11, 161640, Note_on_c, 11, 76, 100
11, 161711, Note_on_c, 11, 76, 0
11, 161760, Note_on_c, 11, 76, 100
11, 161823, Note_on_c, 11, 76, 0
11, 161880, Note_on_c, 11, 76, 100
11, 161941, Note_on_c, 11, 76, 0
11, 162000, Note_on_c, 11, 76, 100
11, 162076, Note_on_c, 11, 76, 0
11, 162120, Note_on_c, 11, 74, 100
11, 162293, Note_on_c, 11, 74, 0
11, 162360, Note_on_c, 11, 74, 100
11, 162551, Note_on_c, 11, 74, 0
11, 162600, Note_on_c, 11, 74, 100
11, 162683, Note_on_c, 11, 74, 0
11, 162720, Note_on_c, 11, 71, 100
11, 162946, Note_on_c, 11, 71, 0
11, 162960, Note_on_c, 11, 69, 100
11, 163135, Pitch_bend_c, 11, 8191
11, 163155, Pitch_bend_c, 11, 5548
11, 163163, Note_on_c, 11, 69, 0
11, 163172, Pitch_bend_c, 11, 2113
11, 163195, Pitch_bend_c, 11, 0
11, 163292, Pitch_bend_c, 11, 2113
11, 163310, Pitch_bend_c, 11, 6869
11, 163330, Pitch_bend_c, 11, 8192
11, 163440, Note_on_c, 11, 72, 100
11, 163560, Note_on_c, 11, 69, 100
11, 163563, Note_on_c, 11, 72, 0
11, 163641, Note_on_c, 11, 69, 0
11, 163680, Note_on_c, 11, 72, 100
11, 163788, Note_on_c, 11, 72, 0
11, 163800, Note_on_c, 11, 69, 100
11, 163886, Note_on_c, 11, 69, 0
11, 163920, Note_on_c, 11, 72, 100
11, 164031, Note_on_c, 11, 72, 0
11, 164040, Note_on_c, 11, 69, 100
11, 164126, Note_on_c, 11, 69, 0
11, 164160, Note_on_c, 11, 72, 100
11, 164343, Note_on_c, 11, 72, 0
11, 164400, Note_on_c, 11, 72, 100
11, 164520, Note_on_c, 11, 69, 100
11, 164556, Note_on_c, 11, 72, 0
11, 164593, Note_on_c, 11, 69, 0
11, 164640, Note_on_c, 11, 67, 100
11, 164880, Note_on_c, 11, 69, 100
11, 164901, Note_on_c, 11, 67, 0
11, 165058, Note_on_c, 11, 69, 0
11, 165058, End_track
12, 0, Start_track
12, 0, MIDI_port, 0
12, 542, Program_c, 12, 73
12, 543, Control_c, 12, 7, 127
12, 11744, Pitch_bend_c, 12, 6937
12, 11755, Pitch_bend_c, 12, 4695
12, 11759, Note_on_c, 12, 76, 100
12, 11766, Pitch_bend_c, 12, 3099
12, 11784, Pitch_bend_c, 12, 3840
12, 11795, Pitch_bend_c, 12, 5854
12, 11806, Pitch_bend_c, 12, 8192
12, 12099, Note_on_c, 12, 76, 0
12, 12142, Note_on_c, 12, 76, 100
12, 12385, Pitch_bend_c, 12, 8039
12, 12395, Pitch_bend_c, 12, 6424
12, 12396, Note_on_c, 12, 76, 0
12, 12406, Pitch_bend_c, 12, 4068
12, 12417, Pitch_bend_c, 12, 2700
12, 12425, Note_on_c, 12, 74, 100
12, 12435, Pitch_bend_c, 12, 2966
12, 12445, Pitch_bend_c, 12, 5645
12, 12456, Pitch_bend_c, 12, 8192
12, 12654, Note_on_c, 12, 74, 0
12, 12698, Note_on_c, 12, 74, 100
12, 12898, Note_on_c, 12, 74, 0
12, 12906, Pitch_bend_c, 12, 5854
12, 12916, Pitch_bend_c, 12, 2301
12, 12926, Pitch_bend_c, 12, 249
12, 12932, Note_on_c, 12, 76, 100
12, 12945, Pitch_bend_c, 12, 382
12, 12958, Pitch_bend_c, 12, 2890
12, 12969, Pitch_bend_c, 12, 5341
12, 12980, Pitch_bend_c, 12, 8192
12, 13232, Control_c, 12, 1, 1
12, 13264, Control_c, 12, 1, 20
12, 13296, Control_c, 12, 1, 37
12, 13327, Control_c, 12, 1, 50
12, 13359, Control_c, 12, 1, 59
12, 13394, Control_c, 12, 1, 69
12, 13426, Control_c, 12, 1, 74
12, 13457, Control_c, 12, 1, 78
12, 13516, Control_c, 12, 1, 62
12, 13548, Control_c, 12, 1, 0
12, 13623, Note_on_c, 12, 76, 0
12, 13632, Note_on_c, 12, 72, 100
12, 13831, Note_on_c, 12, 72, 0
12, 13844, Note_on_c, 12, 74, 100
12, 13845, Pitch_bend_c, 12, 7716
12, 13858, Pitch_bend_c, 12, 5151
12, 13869, Pitch_bend_c, 12, 2301
12, 13880, Pitch_bend_c, 12, 1256
12, 13906, Pitch_bend_c, 12, 2206
12, 13917, Pitch_bend_c, 12, 3954
12, 13928, Pitch_bend_c, 12, 6177
12, 13939, Pitch_bend_c, 12, 8192
12, 14055, Note_on_c, 12, 74, 0
12, 14063, Note_on_c, 12, 72, 100
12, 14217, Control_c, 12, 1, 3
12, 14249, Control_c, 12, 1, 22
12, 14281, Control_c, 12, 1, 43
12, 14313, Control_c, 12, 1, 60
12, 14344, Control_c, 12, 1, 68
12, 14376, Control_c, 12, 1, 63
12, 14407, Control_c, 12, 1, 0
12, 14478, Note_on_c, 12, 72, 0
12, 16041, Pitch_bend_c, 12, 8077
12, 16051, Pitch_bend_c, 12, 6823
12, 16062, Pitch_bend_c, 12, 4885
12, 16064, Note_on_c, 12, 77, 100
12, 16073, Pitch_bend_c, 12, 2301
12, 16083, Pitch_bend_c, 12, 1009
12, 16102, Pitch_bend_c, 12, 1389
12, 16113, Pitch_bend_c, 12, 3156
12, 16124, Pitch_bend_c, 12, 5607
12, 16135, Pitch_bend_c, 12, 8192
12, 16260, Note_on_c, 12, 77, 0
12, 16302, Note_on_c, 12, 76, 100
12, 16527, Note_on_c, 12, 76, 0
12, 16560, Control_c, 12, 1, 12
12, 16561, Note_on_c, 12, 76, 100
12, 16591, Control_c, 12, 1, 26
12, 16621, Control_c, 12, 1, 38
12, 16652, Control_c, 12, 1, 49
12, 16684, Control_c, 12, 1, 54
12, 16718, Control_c, 12, 1, 62
12, 16750, Control_c, 12, 1, 69
12, 16782, Control_c, 12, 1, 74
12, 16814, Control_c, 12, 1, 79
12, 16846, Control_c, 12, 1, 81
12, 16885, Control_c, 12, 1, 0
12, 16960, Note_on_c, 12, 77, 100
12, 16963, Note_on_c, 12, 76, 0
12, 17104, Note_on_c, 12, 76, 100
12, 17128, Note_on_c, 12, 77, 0
12, 17225, Note_on_c, 12, 76, 0
12, 17258, Pitch_bend_c, 12, 6481
12, 17268, Note_on_c, 12, 76, 100
12, 17268, Pitch_bend_c, 12, 3479
12, 17279, Pitch_bend_c, 12, 705
12, 17306, Pitch_bend_c, 12, 2491
12, 17316, Pitch_bend_c, 12, 4087
12, 17327, Pitch_bend_c, 12, 5664
12, 17340, Pitch_bend_c, 12, 8192
12, 17469, Note_on_c, 12, 74, 100
12, 17475, Note_on_c, 12, 76, 0
12, 17611, Control_c, 12, 1, 11
12, 17642, Control_c, 12, 1, 24
12, 17674, Control_c, 12, 1, 33
12, 17709, Control_c, 12, 1, 41
12, 17741, Control_c, 12, 1, 49
12, 17775, Control_c, 12, 1, 56
12, 17807, Control_c, 12, 1, 60
12, 17842, Control_c, 12, 1, 64
12, 17895, Control_c, 12, 1, 70
12, 17990, Control_c, 12, 1, 0
12, 18018, Note_on_c, 12, 74, 0
12, 19924, Note_on_c, 12, 67, 100
12, 20117, Note_on_c, 12, 67, 0
12, 20133, Pitch_bend_c, 12, 7032
12, 20144, Pitch_bend_c, 12, 3517
12, 20154, Pitch_bend_c, 12, 59
12, 20157, Note_on_c, 12, 74, 100
12, 20176, Pitch_bend_c, 12, 0
12, 20192, Pitch_bend_c, 12, 154
12, 20202, Pitch_bend_c, 12, 2472
12, 20213, Pitch_bend_c, 12, 5189
12, 20225, Pitch_bend_c, 12, 8192
12, 20441, Note_on_c, 12, 74, 0
12, 20464, Note_on_c, 12, 76, 100
12, 20747, Note_on_c, 12, 77, 100
12, 20774, Note_on_c, 12, 76, 0
12, 21028, Note_on_c, 12, 77, 0
12, 21043, Pitch_bend_c, 12, 4315
12, 21049, Note_on_c, 12, 76, 100
12, 21054, Pitch_bend_c, 12, 0
12, 21094, Pitch_bend_c, 12, 1370
12, 21106, Pitch_bend_c, 12, 5189
12, 21116, Pitch_bend_c, 12, 8192
12, 21324, Note_on_c, 12, 74, 100
12, 21336, Note_on_c, 12, 76, 0
12, 21518, Note_on_c, 12, 74, 0
12, 21523, Note_on_c, 12, 72, 100
12, 21723, Note_on_c, 12, 72, 0
12, 21724, Pitch_bend_c, 12, 6918
12, 21734, Note_on_c, 12, 74, 100
12, 21735, Pitch_bend_c, 12, 3365
12, 21745, Pitch_bend_c, 12, 762
12, 21772, Pitch_bend_c, 12, 1921
12, 21782, Pitch_bend_c, 12, 4562
12, 21793, Pitch_bend_c, 12, 8192
12, 22047, Control_c, 12, 1, 22
12, 22079, Control_c, 12, 1, 56
12, 22109, Control_c, 12, 1, 74
12, 22140, Control_c, 12, 1, 82
12, 22236, Control_c, 12, 1, 71
12, 22264, Note_on_c, 12, 74, 0
12, 22266, Control_c, 12, 1, 0
12, 23265, Note_on_c, 12, 72, 100
12, 23392, Note_on_c, 12, 72, 0
12, 23408, Note_on_c, 12, 74, 100
12, 23544, Note_on_c, 12, 74, 0
12, 23553, Pitch_bend_c, 12, 6576
12, 23564, Pitch_bend_c, 12, 3023
12, 23570, Note_on_c, 12, 76, 100
12, 23575, Pitch_bend_c, 12, 0
12, 23609, Pitch_bend_c, 12, 1845
12, 23620, Pitch_bend_c, 12, 6766
12, 23631, Pitch_bend_c, 12, 8192
12, 23788, Note_on_c, 12, 76, 0
12, 23798, Note_on_c, 12, 79, 100
12, 23869, Control_c, 12, 1, 12
12, 23899, Control_c, 12, 1, 33
12, 23930, Control_c, 12, 1, 55
12, 23962, Control_c, 12, 1, 76
12, 23995, Control_c, 12, 1, 93
12, 24026, Control_c, 12, 1, 102
12, 24072, Control_c, 12, 1, 81
12, 24103, Control_c, 12, 1, 0
12, 24128, Note_on_c, 12, 79, 0
12, 24461, Note_on_c, 12, 67, 100
12, 24645, Note_on_c, 12, 67, 0
12, 24663, Pitch_bend_c, 12, 7412
12, 24671, Note_on_c, 12, 76, 100
12, 24674, Pitch_bend_c, 12, 4904
12, 24685, Pitch_bend_c, 12, 2130
12, 24695, Pitch_bend_c, 12, 933
12, 24714, Pitch_bend_c, 12, 1541
12, 24725, Pitch_bend_c, 12, 4733
12, 24735, Pitch_bend_c, 12, 8192
12, 24899, Control_c, 12, 1, 24
12, 24929, Control_c, 12, 1, 49
12, 24959, Control_c, 12, 1, 74
12, 24990, Control_c, 12, 1, 86
12, 25022, Control_c, 12, 1, 83
12, 25054, Control_c, 12, 1, 56
12, 25086, Control_c, 12, 1, 0
12, 25126, Note_on_c, 12, 74, 100
12, 25146, Note_on_c, 12, 76, 0
12, 25318, Note_on_c, 12, 72, 100
12, 25334, Note_on_c, 12, 74, 0
12, 25478, Note_on_c, 12, 72, 0
12, 25500, Note_on_c, 12, 72, 100
12, 25620, Control_c, 12, 1, 1
12, 25651, Control_c, 12, 1, 21
12, 25682, Control_c, 12, 1, 38
12, 25712, Control_c, 12, 1, 56
12, 25744, Control_c, 12, 1, 65
12, 25795, Control_c, 12, 1, 57
12, 25827, Control_c, 12, 1, 0
12, 25920, Note_on_c, 12, 72, 0
12, 25982, Control_c, 12, 1, 1
12, 26014, Control_c, 12, 1, 20
12, 26046, Control_c, 12, 1, 38
12, 26078, Control_c, 12, 1, 56
12, 26110, Control_c, 12, 1, 67
12, 26166, Control_c, 12, 1, 44
12, 26197, Control_c, 12, 1, 0
12, 26452, Control_c, 12, 1, 1
12, 26484, Control_c, 12, 1, 17
12, 26516, Control_c, 12, 1, 34
12, 26546, Control_c, 12, 1, 48
12, 26580, Control_c, 12, 1, 56
12, 26642, Control_c, 12, 1, 35
12, 26673, Control_c, 12, 1, 0
12, 27029, Pitch_bend_c, 12, 8134
12, 27039, Pitch_bend_c, 12, 7412
12, 27050, Pitch_bend_c, 12, 6614
12, 27061, Pitch_bend_c, 12, 5417
12, 27071, Pitch_bend_c, 12, 3897
12, 27082, Pitch_bend_c, 12, 2605
12, 27092, Pitch_bend_c, 12, 1883
12, 27135, Pitch_bend_c, 12, 2510
12, 27145, Pitch_bend_c, 12, 3707
12, 27157, Pitch_bend_c, 12, 5189
12, 27167, Pitch_bend_c, 12, 6462
12, 27177, Pitch_bend_c, 12, 7488
12, 27188, Pitch_bend_c, 12, 8192
12, 27464, Control_c, 12, 1, 4
12, 27496, Control_c, 12, 1, 29
12, 27526, Control_c, 12, 1, 53
12, 27557, Control_c, 12, 1, 66
12, 27600, Control_c, 12, 1, 48
12, 27631, Control_c, 12, 1, 0
12, 27862, Control_c, 12, 1, 11
12, 27894, Control_c, 12, 1, 31
12, 27926, Control_c, 12, 1, 49
12, 27958, Control_c, 12, 1, 61
12, 27990, Control_c, 12, 1, 66
12, 28027, Control_c, 12, 1, 44
12, 28059, Control_c, 12, 1, 0
12, 28445, Control_c, 12, 1, 16
12, 28476, Control_c, 12, 1, 29
12, 28517, Control_c, 12, 1, 0
12, 28671, Control_c, 12, 123, 0
12, 28676, Control_c, 12, 120, 0
12, 28686, Control_c, 12, 7, 127
12, 29024, Pitch_bend_c, 12, 6937
12, 29035, Pitch_bend_c, 12, 4695
12, 29039, Note_on_c, 12, 76, 100
12, 29046, Pitch_bend_c, 12, 3099
12, 29064, Pitch_bend_c, 12, 3840
12, 29075, Pitch_bend_c, 12, 5854
12, 29086, Pitch_bend_c, 12, 8192
12, 29379, Note_on_c, 12, 76, 0
12, 29422, Note_on_c, 12, 76, 100
12, 29665, Pitch_bend_c, 12, 8039
12, 29675, Pitch_bend_c, 12, 6424
12, 29676, Note_on_c, 12, 76, 0
12, 29686, Pitch_bend_c, 12, 4068
12, 29697, Pitch_bend_c, 12, 2700
12, 29705, Note_on_c, 12, 74, 100
12, 29715, Pitch_bend_c, 12, 2966
12, 29725, Pitch_bend_c, 12, 5645
12, 29736, Pitch_bend_c, 12, 8192
12, 29934, Note_on_c, 12, 74, 0
12, 29978, Note_on_c, 12, 74, 100
12, 30178, Note_on_c, 12, 74, 0
12, 30186, Pitch_bend_c, 12, 5854
12, 30196, Pitch_bend_c, 12, 2301
12, 30206, Pitch_bend_c, 12, 249
12, 30212, Note_on_c, 12, 76, 100
12, 30225, Pitch_bend_c, 12, 382
12, 30238, Pitch_bend_c, 12, 2890
12, 30249, Pitch_bend_c, 12, 5341
12, 30260, Pitch_bend_c, 12, 8192
12, 30512, Control_c, 12, 1, 1
12, 30544, Control_c, 12, 1, 20
12, 30576, Control_c, 12, 1, 37
12, 30607, Control_c, 12, 1, 50
12, 30639, Control_c, 12, 1, 59
12, 30674, Control_c, 12, 1, 69
12, 30706, Control_c, 12, 1, 74
12, 30737, Control_c, 12, 1, 78
12, 30796, Control_c, 12, 1, 62
12, 30828, Control_c, 12, 1, 0
12, 30903, Note_on_c, 12, 76, 0
12, 30912, Note_on_c, 12, 72, 100
12, 31111, Note_on_c, 12, 72, 0
12, 31124, Note_on_c, 12, 74, 100
12, 31125, Pitch_bend_c, 12, 7716
12, 31138, Pitch_bend_c, 12, 5151
12, 31149, Pitch_bend_c, 12, 2301
12, 31160, Pitch_bend_c, 12, 1256
12, 31186, Pitch_bend_c, 12, 2206
12, 31197, Pitch_bend_c, 12, 3954
12, 31208, Pitch_bend_c, 12, 6177
12, 31219, Pitch_bend_c, 12, 8192
12, 31335, Note_on_c, 12, 74, 0
12, 31343, Note_on_c, 12, 72, 100
12, 31497, Control_c, 12, 1, 3
12, 31529, Control_c, 12, 1, 22
12, 31561, Control_c, 12, 1, 43
12, 31593, Control_c, 12, 1, 60
12, 31624, Control_c, 12, 1, 68
12, 31656, Control_c, 12, 1, 63
12, 31687, Control_c, 12, 1, 0
12, 31758, Note_on_c, 12, 72, 0
12, 33321, Pitch_bend_c, 12, 8077
12, 33331, Pitch_bend_c, 12, 6823
12, 33342, Pitch_bend_c, 12, 4885
12, 33344, Note_on_c, 12, 77, 100
12, 33353, Pitch_bend_c, 12, 2301
12, 33363, Pitch_bend_c, 12, 1009
12, 33382, Pitch_bend_c, 12, 1389
12, 33393, Pitch_bend_c, 12, 3156
12, 33404, Pitch_bend_c, 12, 5607
12, 33415, Pitch_bend_c, 12, 8192
12, 33540, Note_on_c, 12, 77, 0
12, 33582, Note_on_c, 12, 76, 100
12, 33807, Note_on_c, 12, 76, 0
12, 33840, Control_c, 12, 1, 12
12, 33841, Note_on_c, 12, 76, 100
12, 33871, Control_c, 12, 1, 26
12, 33901, Control_c, 12, 1, 38
12, 33932, Control_c, 12, 1, 49
12, 33964, Control_c, 12, 1, 54
12, 33998, Control_c, 12, 1, 62
12, 34030, Control_c, 12, 1, 69
12, 34062, Control_c, 12, 1, 74
12, 34094, Control_c, 12, 1, 79
12, 34126, Control_c, 12, 1, 81
12, 34165, Control_c, 12, 1, 0
12, 34240, Note_on_c, 12, 77, 100
12, 34243, Note_on_c, 12, 76, 0
12, 34384, Note_on_c, 12, 76, 100
12, 34408, Note_on_c, 12, 77, 0
12, 34505, Note_on_c, 12, 76, 0
12, 34538, Pitch_bend_c, 12, 6481
12, 34548, Note_on_c, 12, 76, 100
12, 34548, Pitch_bend_c, 12, 3479
12, 34559, Pitch_bend_c, 12, 705
12, 34586, Pitch_bend_c, 12, 2491
12, 34596, Pitch_bend_c, 12, 4087
12, 34607, Pitch_bend_c, 12, 5664
12, 34620, Pitch_bend_c, 12, 8192
12, 34749, Note_on_c, 12, 74, 100
12, 34755, Note_on_c, 12, 76, 0
12, 34891, Control_c, 12, 1, 11
12, 34922, Control_c, 12, 1, 24
12, 34954, Control_c, 12, 1, 33
12, 34989, Control_c, 12, 1, 41
12, 35021, Control_c, 12, 1, 49
12, 35055, Control_c, 12, 1, 56
12, 35087, Control_c, 12, 1, 60
12, 35122, Control_c, 12, 1, 64
12, 35175, Control_c, 12, 1, 70
12, 35270, Control_c, 12, 1, 0
12, 35298, Note_on_c, 12, 74, 0
12, 37204, Note_on_c, 12, 67, 100
12, 37397, Note_on_c, 12, 67, 0
12, 37413, Pitch_bend_c, 12, 7032
12, 37424, Pitch_bend_c, 12, 3517
12, 37434, Pitch_bend_c, 12, 59
12, 37437, Note_on_c, 12, 74, 100
12, 37456, Pitch_bend_c, 12, 0
12, 37472, Pitch_bend_c, 12, 154
12, 37482, Pitch_bend_c, 12, 2472
12, 37493, Pitch_bend_c, 12, 5189
12, 37505, Pitch_bend_c, 12, 8192
12, 37721, Note_on_c, 12, 74, 0
12, 37744, Note_on_c, 12, 76, 100
12, 38027, Note_on_c, 12, 77, 100
12, 38054, Note_on_c, 12, 76, 0
12, 38308, Note_on_c, 12, 77, 0
12, 38323, Pitch_bend_c, 12, 4315
12, 38329, Note_on_c, 12, 76, 100
12, 38334, Pitch_bend_c, 12, 0
12, 38374, Pitch_bend_c, 12, 1370
12, 38386, Pitch_bend_c, 12, 5189
12, 38396, Pitch_bend_c, 12, 8192
12, 38604, Note_on_c, 12, 74, 100
12, 38616, Note_on_c, 12, 76, 0
12, 38798, Note_on_c, 12, 74, 0
12, 38803, Note_on_c, 12, 72, 100
12, 39003, Note_on_c, 12, 72, 0
12, 39004, Pitch_bend_c, 12, 6918
12, 39014, Note_on_c, 12, 74, 100
12, 39015, Pitch_bend_c, 12, 3365
12, 39025, Pitch_bend_c, 12, 762
12, 39052, Pitch_bend_c, 12, 1921
12, 39062, Pitch_bend_c, 12, 4562
12, 39073, Pitch_bend_c, 12, 8192
12, 39327, Control_c, 12, 1, 22
12, 39359, Control_c, 12, 1, 56
12, 39389, Control_c, 12, 1, 74
12, 39420, Control_c, 12, 1, 82
12, 39516, Control_c, 12, 1, 71
12, 39544, Note_on_c, 12, 74, 0
12, 39546, Control_c, 12, 1, 0
12, 40545, Note_on_c, 12, 72, 100
12, 40672, Note_on_c, 12, 72, 0
12, 40688, Note_on_c, 12, 74, 100
12, 40824, Note_on_c, 12, 74, 0
12, 40833, Pitch_bend_c, 12, 6576
12, 40844, Pitch_bend_c, 12, 3023
12, 40850, Note_on_c, 12, 76, 100
12, 40855, Pitch_bend_c, 12, 0
12, 40889, Pitch_bend_c, 12, 1845
12, 40900, Pitch_bend_c, 12, 6766
12, 40911, Pitch_bend_c, 12, 8192
12, 41068, Note_on_c, 12, 76, 0
12, 41078, Note_on_c, 12, 79, 100
12, 41149, Control_c, 12, 1, 12
12, 41179, Control_c, 12, 1, 33
12, 41210, Control_c, 12, 1, 55
12, 41242, Control_c, 12, 1, 76
12, 41275, Control_c, 12, 1, 93
12, 41306, Control_c, 12, 1, 102
12, 41352, Control_c, 12, 1, 81
12, 41383, Control_c, 12, 1, 0
12, 41408, Note_on_c, 12, 79, 0
12, 41741, Note_on_c, 12, 67, 100
12, 41925, Note_on_c, 12, 67, 0
12, 41943, Pitch_bend_c, 12, 7412
12, 41951, Note_on_c, 12, 76, 100
12, 41954, Pitch_bend_c, 12, 4904
12, 41965, Pitch_bend_c, 12, 2130
12, 41975, Pitch_bend_c, 12, 933
12, 41994, Pitch_bend_c, 12, 1541
12, 42005, Pitch_bend_c, 12, 4733
12, 42015, Pitch_bend_c, 12, 8192
12, 42179, Control_c, 12, 1, 24
12, 42209, Control_c, 12, 1, 49
12, 42239, Control_c, 12, 1, 74
12, 42270, Control_c, 12, 1, 86
12, 42302, Control_c, 12, 1, 83
12, 42334, Control_c, 12, 1, 56
12, 42366, Control_c, 12, 1, 0
12, 42406, Note_on_c, 12, 74, 100
12, 42426, Note_on_c, 12, 76, 0
12, 42598, Note_on_c, 12, 72, 100
12, 42614, Note_on_c, 12, 74, 0
12, 42758, Note_on_c, 12, 72, 0
12, 42780, Note_on_c, 12, 72, 100
12, 42900, Control_c, 12, 1, 1
12, 42931, Control_c, 12, 1, 21
12, 42962, Control_c, 12, 1, 38
12, 42992, Control_c, 12, 1, 56
12, 43024, Control_c, 12, 1, 65
12, 43075, Control_c, 12, 1, 57
12, 43107, Control_c, 12, 1, 0
12, 43200, Note_on_c, 12, 72, 0
12, 43262, Control_c, 12, 1, 1
12, 43294, Control_c, 12, 1, 20
12, 43326, Control_c, 12, 1, 38
12, 43358, Control_c, 12, 1, 56
12, 43390, Control_c, 12, 1, 67
12, 43446, Control_c, 12, 1, 44
12, 43477, Control_c, 12, 1, 0
12, 43732, Control_c, 12, 1, 1
12, 43764, Control_c, 12, 1, 17
12, 43796, Control_c, 12, 1, 34
12, 43826, Control_c, 12, 1, 48
12, 43860, Control_c, 12, 1, 56
12, 43922, Control_c, 12, 1, 35
12, 43953, Control_c, 12, 1, 0
12, 44309, Pitch_bend_c, 12, 8134
12, 44319, Pitch_bend_c, 12, 7412
12, 44330, Pitch_bend_c, 12, 6614
12, 44341, Pitch_bend_c, 12, 5417
12, 44351, Pitch_bend_c, 12, 3897
12, 44362, Pitch_bend_c, 12, 2605
12, 44372, Pitch_bend_c, 12, 1883
12, 44415, Pitch_bend_c, 12, 2510
12, 44425, Pitch_bend_c, 12, 3707
12, 44437, Pitch_bend_c, 12, 5189
12, 44447, Pitch_bend_c, 12, 6462
12, 44457, Pitch_bend_c, 12, 7488
12, 44468, Pitch_bend_c, 12, 8192
12, 44744, Control_c, 12, 1, 4
12, 44776, Control_c, 12, 1, 29
12, 44806, Control_c, 12, 1, 53
12, 44837, Control_c, 12, 1, 66
12, 44880, Control_c, 12, 1, 48
12, 44911, Control_c, 12, 1, 0
12, 45142, Control_c, 12, 1, 11
12, 45174, Control_c, 12, 1, 31
12, 45206, Control_c, 12, 1, 49
12, 45238, Control_c, 12, 1, 61
12, 45270, Control_c, 12, 1, 66
12, 45307, Control_c, 12, 1, 44
12, 45339, Control_c, 12, 1, 0
12, 45725, Control_c, 12, 1, 16
12, 45756, Control_c, 12, 1, 29
12, 45797, Control_c, 12, 1, 0
12, 45951, Control_c, 12, 123, 0
12, 45956, Control_c, 12, 120, 0
12, 45966, Control_c, 12, 7, 127
12, 48360, Note_on_c, 12, 74, 100
12, 48482, Pitch_bend_c, 12, 10305
12, 48502, Pitch_bend_c, 12, 14004
12, 48520, Pitch_bend_c, 12, 16383
12, 48580, Pitch_bend_c, 12, 14269
12, 48600, Pitch_bend_c, 12, 9777
12, 48600, Note_on_c, 12, 72, 100
12, 48620, Pitch_bend_c, 12, 8192
12, 48623, Note_on_c, 12, 74, 0
12, 49091, Note_on_c, 12, 72, 0
12, 49800, Note_on_c, 12, 76, 100
12, 50076, Note_on_c, 12, 76, 0
12, 50160, Note_on_c, 12, 76, 100
12, 50370, Pitch_bend_c, 12, 7926
12, 50390, Pitch_bend_c, 12, 5284
12, 50410, Pitch_bend_c, 12, 2113
12, 50428, Note_on_c, 12, 76, 0
12, 50430, Pitch_bend_c, 12, 0
12, 50460, Pitch_bend_c, 12, 1321
12, 50477, Pitch_bend_c, 12, 6077
12, 50497, Pitch_bend_c, 12, 8192
12, 50520, Note_on_c, 12, 74, 100
12, 50728, Note_on_c, 12, 74, 0
12, 50760, Note_on_c, 12, 74, 100
12, 51028, Note_on_c, 12, 74, 0
12, 51120, Note_on_c, 12, 72, 100
12, 51491, Note_on_c, 12, 72, 0
12, 51960, Note_on_c, 12, 74, 100
12, 52076, Note_on_c, 12, 74, 0
12, 52080, Note_on_c, 12, 76, 100
12, 52146, Note_on_c, 12, 76, 0
12, 52200, Note_on_c, 12, 76, 100
12, 52258, Note_on_c, 12, 76, 0
12, 52320, Note_on_c, 12, 76, 100
12, 52376, Note_on_c, 12, 76, 0
12, 52440, Note_on_c, 12, 76, 100
12, 52521, Note_on_c, 12, 76, 0
12, 52560, Note_on_c, 12, 74, 100
12, 52733, Note_on_c, 12, 74, 0
12, 52800, Note_on_c, 12, 74, 100
12, 52983, Note_on_c, 12, 74, 0
12, 53040, Note_on_c, 12, 74, 100
12, 53103, Note_on_c, 12, 74, 0
12, 53160, Note_on_c, 12, 74, 100
12, 53247, Pitch_bend_c, 12, 10041
12, 53267, Pitch_bend_c, 12, 13476
12, 53287, Pitch_bend_c, 12, 16383
12, 53363, Note_on_c, 12, 74, 0
12, 53400, Note_on_c, 12, 74, 100
12, 53425, Pitch_bend_c, 12, 16118
12, 53445, Pitch_bend_c, 12, 12948
12, 53462, Pitch_bend_c, 12, 9513
12, 53482, Pitch_bend_c, 12, 8192
12, 53522, Pitch_bend_c, 12, 7926
12, 53542, Pitch_bend_c, 12, 5812
12, 53560, Pitch_bend_c, 12, 2378
12, 53582, Pitch_bend_c, 12, 0
12, 53633, Note_on_c, 12, 74, 0
12, 53710, Pitch_bend_c, 12, 1849
12, 53727, Pitch_bend_c, 12, 6605
12, 53747, Pitch_bend_c, 12, 8192
12, 53880, Note_on_c, 12, 72, 100
12, 54000, Note_on_c, 12, 69, 100
12, 54001, Note_on_c, 12, 72, 0
12, 54093, Note_on_c, 12, 69, 0
12, 54120, Note_on_c, 12, 72, 100
12, 54206, Note_on_c, 12, 72, 0
12, 54240, Note_on_c, 12, 69, 100
12, 54323, Note_on_c, 12, 69, 0
12, 54360, Note_on_c, 12, 72, 100
12, 54441, Note_on_c, 12, 72, 0
12, 54480, Note_on_c, 12, 69, 100
12, 54573, Note_on_c, 12, 69, 0
12, 54600, Note_on_c, 12, 72, 100
12, 54761, Note_on_c, 12, 72, 0
12, 54840, Note_on_c, 12, 72, 100
12, 54960, Note_on_c, 12, 69, 100
12, 54971, Note_on_c, 12, 72, 0
12, 55066, Note_on_c, 12, 69, 0
12, 55080, Note_on_c, 12, 67, 100
12, 55237, Pitch_bend_c, 12, 9248
12, 55257, Pitch_bend_c, 12, 13740
12, 55277, Pitch_bend_c, 12, 16383
12, 55320, Note_on_c, 12, 70, 100
12, 55321, Note_on_c, 12, 67, 0
12, 55596, Note_on_c, 12, 70, 0
12, 55685, Pitch_bend_c, 12, 13212
12, 55705, Pitch_bend_c, 12, 9248
12, 55722, Pitch_bend_c, 12, 8192
12, 56280, Note_on_c, 12, 72, 100
12, 56456, Note_on_c, 12, 72, 0
12, 56520, Note_on_c, 12, 72, 100
12, 56612, Pitch_bend_c, 12, 8720
12, 56632, Pitch_bend_c, 12, 11362
12, 56652, Pitch_bend_c, 12, 13740
12, 56672, Pitch_bend_c, 12, 15326
12, 56692, Pitch_bend_c, 12, 16383
12, 56823, Note_on_c, 12, 72, 0
12, 56880, Note_on_c, 12, 72, 100
12, 57017, Pitch_bend_c, 12, 14797
12, 57037, Pitch_bend_c, 12, 9777
12, 57057, Pitch_bend_c, 12, 8192
12, 57088, Note_on_c, 12, 72, 0
12, 57120, Note_on_c, 12, 71, 100
12, 57433, Note_on_c, 12, 71, 0
12, 57720, Note_on_c, 12, 79, 100
12, 57757, Pitch_bend_c, 12, 9513
12, 57775, Pitch_bend_c, 12, 13476
12, 57795, Pitch_bend_c, 12, 16383
12, 57895, Pitch_bend_c, 12, 14533
12, 57912, Pitch_bend_c, 12, 9777
12, 57932, Pitch_bend_c, 12, 8192
12, 57960, Note_on_c, 12, 74, 100
12, 57966, Note_on_c, 12, 79, 0
12, 58032, Pitch_bend_c, 12, 8456
12, 58050, Pitch_bend_c, 12, 14004
12, 58070, Pitch_bend_c, 12, 16383
12, 58150, Pitch_bend_c, 12, 12948
12, 58167, Pitch_bend_c, 12, 9248
12, 58190, Pitch_bend_c, 12, 8192
12, 58200, Note_on_c, 12, 72, 100
12, 58211, Note_on_c, 12, 74, 0
12, 58440, Note_on_c, 12, 74, 100
12, 58451, Note_on_c, 12, 72, 0
12, 58771, Note_on_c, 12, 74, 0
12, 58800, Note_on_c, 12, 72, 100
12, 59083, Note_on_c, 12, 72, 0
12, 59160, Note_on_c, 12, 72, 100
12, 59266, Note_on_c, 12, 72, 0
12, 59280, Note_on_c, 12, 69, 100
12, 59376, Note_on_c, 12, 69, 0
12, 59400, Note_on_c, 12, 67, 100
12, 59400, Note_on_c, 12, 69, 100
12, 59491, Note_on_c, 12, 69, 0
12, 59508, Note_on_c, 12, 67, 0
12, 59520, Note_on_c, 12, 67, 100
12, 59641, Note_on_c, 12, 67, 0
12, 60000, Note_on_c, 12, 76, 100
12, 60068, Note_on_c, 12, 76, 0
12, 60120, Note_on_c, 12, 76, 100
12, 60206, Note_on_c, 12, 76, 0
12, 60240, Note_on_c, 12, 79, 100
12, 60413, Note_on_c, 12, 79, 0
12, 60480, Note_on_c, 12, 79, 100
12, 60696, Note_on_c, 12, 79, 0
12, 60720, Note_on_c, 12, 79, 100
12, 60788, Note_on_c, 12, 79, 0
12, 60840, Note_on_c, 12, 76, 100
12, 60902, Pitch_bend_c, 12, 8456
12, 60920, Pitch_bend_c, 12, 10041
12, 60940, Pitch_bend_c, 12, 11626
12, 60960, Pitch_bend_c, 12, 12948
12, 60980, Pitch_bend_c, 12, 13476
12, 61000, Pitch_bend_c, 12, 13740
12, 61030, Pitch_bend_c, 12, 12683
12, 61033, Note_on_c, 12, 76, 0
12, 61050, Pitch_bend_c, 12, 9777
12, 61070, Pitch_bend_c, 12, 8192
12, 61080, Note_on_c, 12, 76, 100
12, 61197, Pitch_bend_c, 12, 7134
12, 61217, Pitch_bend_c, 12, 5020
12, 61237, Pitch_bend_c, 12, 2113
12, 61257, Pitch_bend_c, 12, 0
12, 61301, Note_on_c, 12, 76, 0
12, 61320, Note_on_c, 12, 72, 100
12, 61352, Pitch_bend_c, 12, 8192
12, 61410, Pitch_bend_c, 12, 8720
12, 61430, Pitch_bend_c, 12, 12948
12, 61447, Pitch_bend_c, 12, 16383
12, 61507, Pitch_bend_c, 12, 15061
12, 61527, Pitch_bend_c, 12, 10305
12, 61547, Pitch_bend_c, 12, 8192
12, 61560, Note_on_c, 12, 72, 100
12, 61561, Note_on_c, 12, 72, 0
12, 61713, Note_on_c, 12, 72, 0
12, 61800, Note_on_c, 12, 72, 100
12, 61906, Note_on_c, 12, 72, 0
12, 61920, Note_on_c, 12, 69, 100
12, 62018, Note_on_c, 12, 69, 0
12, 62040, Note_on_c, 12, 72, 100
12, 62123, Note_on_c, 12, 72, 0
12, 62160, Note_on_c, 12, 69, 100
12, 62243, Note_on_c, 12, 69, 0
12, 62280, Note_on_c, 12, 72, 100
12, 62448, Note_on_c, 12, 72, 0
12, 62520, Note_on_c, 12, 74, 100
12, 62698, Note_on_c, 12, 74, 0
12, 62760, Note_on_c, 12, 74, 100
12, 62827, Pitch_bend_c, 12, 9513
12, 62847, Pitch_bend_c, 12, 13740
12, 62867, Pitch_bend_c, 12, 16383
12, 62971, Note_on_c, 12, 74, 0
12, 63000, Note_on_c, 12, 74, 100
12, 63045, Pitch_bend_c, 12, 14004
12, 63065, Pitch_bend_c, 12, 9513
12, 63085, Pitch_bend_c, 12, 8192
12, 63152, Pitch_bend_c, 12, 8191
12, 63172, Pitch_bend_c, 12, 2378
12, 63195, Pitch_bend_c, 12, 0
12, 63263, Note_on_c, 12, 74, 0
12, 63470, Pitch_bend_c, 12, 1056
12, 63480, Note_on_c, 12, 72, 100
12, 63490, Pitch_bend_c, 12, 5812
12, 63510, Pitch_bend_c, 12, 8192
12, 63738, Note_on_c, 12, 72, 0
12, 65160, Note_on_c, 12, 82, 100
12, 65640, Note_on_c, 12, 75, 100
12, 65686, Note_on_c, 12, 82, 0
12, 65735, Pitch_bend_c, 12, 10305
12, 65755, Pitch_bend_c, 12, 13476
12, 65775, Pitch_bend_c, 12, 16383
12, 65825, Pitch_bend_c, 12, 14533
12, 65845, Pitch_bend_c, 12, 10041
12, 65862, Pitch_bend_c, 12, 8192
12, 65880, Note_on_c, 12, 72, 100
12, 65881, Note_on_c, 12, 75, 0
12, 66138, Note_on_c, 12, 72, 0
12, 69344, Pitch_bend_c, 12, 6937
12, 69355, Pitch_bend_c, 12, 4695
12, 69359, Note_on_c, 12, 76, 100
12, 69366, Pitch_bend_c, 12, 3099
12, 69384, Pitch_bend_c, 12, 3840
12, 69395, Pitch_bend_c, 12, 5854
12, 69406, Pitch_bend_c, 12, 8192
12, 69699, Note_on_c, 12, 76, 0
12, 69742, Note_on_c, 12, 76, 100
12, 69985, Pitch_bend_c, 12, 8039
12, 69995, Pitch_bend_c, 12, 6424
12, 69996, Note_on_c, 12, 76, 0
12, 70006, Pitch_bend_c, 12, 4068
12, 70017, Pitch_bend_c, 12, 2700
12, 70025, Note_on_c, 12, 74, 100
12, 70035, Pitch_bend_c, 12, 2966
12, 70045, Pitch_bend_c, 12, 5645
12, 70056, Pitch_bend_c, 12, 8192
12, 70254, Note_on_c, 12, 74, 0
12, 70298, Note_on_c, 12, 74, 100
12, 70498, Note_on_c, 12, 74, 0
12, 70506, Pitch_bend_c, 12, 5854
12, 70516, Pitch_bend_c, 12, 2301
12, 70526, Pitch_bend_c, 12, 249
12, 70532, Note_on_c, 12, 76, 100
12, 70545, Pitch_bend_c, 12, 382
12, 70558, Pitch_bend_c, 12, 2890
12, 70569, Pitch_bend_c, 12, 5341
12, 70580, Pitch_bend_c, 12, 8192
12, 70832, Control_c, 12, 1, 1
12, 70864, Control_c, 12, 1, 20
12, 70896, Control_c, 12, 1, 37
12, 70927, Control_c, 12, 1, 50
12, 70959, Control_c, 12, 1, 59
12, 70994, Control_c, 12, 1, 69
12, 71026, Control_c, 12, 1, 74
12, 71057, Control_c, 12, 1, 78
12, 71116, Control_c, 12, 1, 62
12, 71148, Control_c, 12, 1, 0
12, 71223, Note_on_c, 12, 76, 0
12, 71232, Note_on_c, 12, 72, 100
12, 71431, Note_on_c, 12, 72, 0
12, 71444, Note_on_c, 12, 74, 100
12, 71445, Pitch_bend_c, 12, 7716
12, 71458, Pitch_bend_c, 12, 5151
12, 71469, Pitch_bend_c, 12, 2301
12, 71480, Pitch_bend_c, 12, 1256
12, 71506, Pitch_bend_c, 12, 2206
12, 71517, Pitch_bend_c, 12, 3954
12, 71528, Pitch_bend_c, 12, 6177
12, 71539, Pitch_bend_c, 12, 8192
12, 71655, Note_on_c, 12, 74, 0
12, 71663, Note_on_c, 12, 72, 100
12, 71817, Control_c, 12, 1, 3
12, 71849, Control_c, 12, 1, 22
12, 71881, Control_c, 12, 1, 43
12, 71913, Control_c, 12, 1, 60
12, 71944, Control_c, 12, 1, 68
12, 71976, Control_c, 12, 1, 63
12, 72007, Control_c, 12, 1, 0
12, 72078, Note_on_c, 12, 72, 0
12, 73641, Pitch_bend_c, 12, 8077
12, 73651, Pitch_bend_c, 12, 6823
12, 73662, Pitch_bend_c, 12, 4885
12, 73664, Note_on_c, 12, 77, 100
12, 73673, Pitch_bend_c, 12, 2301
12, 73683, Pitch_bend_c, 12, 1009
12, 73702, Pitch_bend_c, 12, 1389
12, 73713, Pitch_bend_c, 12, 3156
12, 73724, Pitch_bend_c, 12, 5607
12, 73735, Pitch_bend_c, 12, 8192
12, 73860, Note_on_c, 12, 77, 0
12, 73902, Note_on_c, 12, 76, 100
12, 74127, Note_on_c, 12, 76, 0
12, 74160, Control_c, 12, 1, 12
12, 74161, Note_on_c, 12, 76, 100
12, 74191, Control_c, 12, 1, 26
12, 74221, Control_c, 12, 1, 38
12, 74252, Control_c, 12, 1, 49
12, 74284, Control_c, 12, 1, 54
12, 74318, Control_c, 12, 1, 62
12, 74350, Control_c, 12, 1, 69
12, 74382, Control_c, 12, 1, 74
12, 74414, Control_c, 12, 1, 79
12, 74446, Control_c, 12, 1, 81
12, 74485, Control_c, 12, 1, 0
12, 74560, Note_on_c, 12, 77, 100
12, 74563, Note_on_c, 12, 76, 0
12, 74704, Note_on_c, 12, 76, 100
12, 74728, Note_on_c, 12, 77, 0
12, 74825, Note_on_c, 12, 76, 0
12, 74858, Pitch_bend_c, 12, 6481
12, 74868, Note_on_c, 12, 76, 100
12, 74868, Pitch_bend_c, 12, 3479
12, 74879, Pitch_bend_c, 12, 705
12, 74906, Pitch_bend_c, 12, 2491
12, 74916, Pitch_bend_c, 12, 4087
12, 74927, Pitch_bend_c, 12, 5664
12, 74940, Pitch_bend_c, 12, 8192
12, 75069, Note_on_c, 12, 74, 100
12, 75075, Note_on_c, 12, 76, 0
12, 75211, Control_c, 12, 1, 11
12, 75242, Control_c, 12, 1, 24
12, 75274, Control_c, 12, 1, 33
12, 75309, Control_c, 12, 1, 41
12, 75341, Control_c, 12, 1, 49
12, 75375, Control_c, 12, 1, 56
12, 75407, Control_c, 12, 1, 60
12, 75442, Control_c, 12, 1, 64
12, 75495, Control_c, 12, 1, 70
12, 75590, Control_c, 12, 1, 0
12, 75618, Note_on_c, 12, 74, 0
12, 77524, Note_on_c, 12, 67, 100
12, 77717, Note_on_c, 12, 67, 0
12, 77733, Pitch_bend_c, 12, 7032
12, 77744, Pitch_bend_c, 12, 3517
12, 77754, Pitch_bend_c, 12, 59
12, 77757, Note_on_c, 12, 74, 100
12, 77776, Pitch_bend_c, 12, 0
12, 77792, Pitch_bend_c, 12, 154
12, 77802, Pitch_bend_c, 12, 2472
12, 77813, Pitch_bend_c, 12, 5189
12, 77825, Pitch_bend_c, 12, 8192
12, 78041, Note_on_c, 12, 74, 0
12, 78064, Note_on_c, 12, 76, 100
12, 78347, Note_on_c, 12, 77, 100
12, 78374, Note_on_c, 12, 76, 0
12, 78628, Note_on_c, 12, 77, 0
12, 78643, Pitch_bend_c, 12, 4315
12, 78649, Note_on_c, 12, 76, 100
12, 78654, Pitch_bend_c, 12, 0
12, 78694, Pitch_bend_c, 12, 1370
12, 78706, Pitch_bend_c, 12, 5189
12, 78716, Pitch_bend_c, 12, 8192
12, 78924, Note_on_c, 12, 74, 100
12, 78936, Note_on_c, 12, 76, 0
12, 79118, Note_on_c, 12, 74, 0
12, 79123, Note_on_c, 12, 72, 100
12, 79323, Note_on_c, 12, 72, 0
12, 79324, Pitch_bend_c, 12, 6918
12, 79334, Note_on_c, 12, 74, 100
12, 79335, Pitch_bend_c, 12, 3365
12, 79345, Pitch_bend_c, 12, 762
12, 79372, Pitch_bend_c, 12, 1921
12, 79382, Pitch_bend_c, 12, 4562
12, 79393, Pitch_bend_c, 12, 8192
12, 79647, Control_c, 12, 1, 22
12, 79679, Control_c, 12, 1, 56
12, 79709, Control_c, 12, 1, 74
12, 79740, Control_c, 12, 1, 82
12, 79836, Control_c, 12, 1, 71
12, 79864, Note_on_c, 12, 74, 0
12, 79866, Control_c, 12, 1, 0
12, 80865, Note_on_c, 12, 72, 100
12, 80992, Note_on_c, 12, 72, 0
12, 81008, Note_on_c, 12, 74, 100
12, 81144, Note_on_c, 12, 74, 0
12, 81153, Pitch_bend_c, 12, 6576
12, 81164, Pitch_bend_c, 12, 3023
12, 81170, Note_on_c, 12, 76, 100
12, 81175, Pitch_bend_c, 12, 0
12, 81209, Pitch_bend_c, 12, 1845
12, 81220, Pitch_bend_c, 12, 6766
12, 81231, Pitch_bend_c, 12, 8192
12, 81388, Note_on_c, 12, 76, 0
12, 81398, Note_on_c, 12, 79, 100
12, 81469, Control_c, 12, 1, 12
12, 81499, Control_c, 12, 1, 33
12, 81530, Control_c, 12, 1, 55
12, 81562, Control_c, 12, 1, 76
12, 81595, Control_c, 12, 1, 93
12, 81626, Control_c, 12, 1, 102
12, 81672, Control_c, 12, 1, 81
12, 81703, Control_c, 12, 1, 0
12, 81728, Note_on_c, 12, 79, 0
12, 82061, Note_on_c, 12, 67, 100
12, 82245, Note_on_c, 12, 67, 0
12, 82263, Pitch_bend_c, 12, 7412
12, 82271, Note_on_c, 12, 76, 100
12, 82274, Pitch_bend_c, 12, 4904
12, 82285, Pitch_bend_c, 12, 2130
12, 82295, Pitch_bend_c, 12, 933
12, 82314, Pitch_bend_c, 12, 1541
12, 82325, Pitch_bend_c, 12, 4733
12, 82335, Pitch_bend_c, 12, 8192
12, 82499, Control_c, 12, 1, 24
12, 82529, Control_c, 12, 1, 49
12, 82559, Control_c, 12, 1, 74
12, 82590, Control_c, 12, 1, 86
12, 82622, Control_c, 12, 1, 83
12, 82654, Control_c, 12, 1, 56
12, 82686, Control_c, 12, 1, 0
12, 82726, Note_on_c, 12, 74, 100
12, 82746, Note_on_c, 12, 76, 0
12, 82918, Note_on_c, 12, 72, 100
12, 82934, Note_on_c, 12, 74, 0
12, 83078, Note_on_c, 12, 72, 0
12, 83100, Note_on_c, 12, 72, 100
12, 83220, Control_c, 12, 1, 1
12, 83251, Control_c, 12, 1, 21
12, 83282, Control_c, 12, 1, 38
12, 83312, Control_c, 12, 1, 56
12, 83344, Control_c, 12, 1, 65
12, 83395, Control_c, 12, 1, 57
12, 83427, Control_c, 12, 1, 0
12, 83520, Note_on_c, 12, 72, 0
12, 83582, Control_c, 12, 1, 1
12, 83614, Control_c, 12, 1, 20
12, 83646, Control_c, 12, 1, 38
12, 83678, Control_c, 12, 1, 56
12, 83710, Control_c, 12, 1, 67
12, 83766, Control_c, 12, 1, 44
12, 83797, Control_c, 12, 1, 0
12, 84052, Control_c, 12, 1, 1
12, 84084, Control_c, 12, 1, 17
12, 84116, Control_c, 12, 1, 34
12, 84146, Control_c, 12, 1, 48
12, 84180, Control_c, 12, 1, 56
12, 84242, Control_c, 12, 1, 35
12, 84273, Control_c, 12, 1, 0
12, 84629, Pitch_bend_c, 12, 8134
12, 84639, Pitch_bend_c, 12, 7412
12, 84650, Pitch_bend_c, 12, 6614
12, 84661, Pitch_bend_c, 12, 5417
12, 84671, Pitch_bend_c, 12, 3897
12, 84682, Pitch_bend_c, 12, 2605
12, 84692, Pitch_bend_c, 12, 1883
12, 84735, Pitch_bend_c, 12, 2510
12, 84745, Pitch_bend_c, 12, 3707
12, 84757, Pitch_bend_c, 12, 5189
12, 84767, Pitch_bend_c, 12, 6462
12, 84777, Pitch_bend_c, 12, 7488
12, 84788, Pitch_bend_c, 12, 8192
12, 85064, Control_c, 12, 1, 4
12, 85096, Control_c, 12, 1, 29
12, 85126, Control_c, 12, 1, 53
12, 85157, Control_c, 12, 1, 66
12, 85200, Control_c, 12, 1, 48
12, 85231, Control_c, 12, 1, 0
12, 85462, Control_c, 12, 1, 11
12, 85494, Control_c, 12, 1, 31
12, 85526, Control_c, 12, 1, 49
12, 85558, Control_c, 12, 1, 61
12, 85590, Control_c, 12, 1, 66
12, 85627, Control_c, 12, 1, 44
12, 85659, Control_c, 12, 1, 0
12, 86045, Control_c, 12, 1, 16
12, 86076, Control_c, 12, 1, 29
12, 86117, Control_c, 12, 1, 0
12, 86271, Control_c, 12, 123, 0
12, 86276, Control_c, 12, 120, 0
12, 86286, Control_c, 12, 7, 127
12, 86624, Pitch_bend_c, 12, 6937
12, 86635, Pitch_bend_c, 12, 4695
12, 86639, Note_on_c, 12, 76, 100
12, 86646, Pitch_bend_c, 12, 3099
12, 86664, Pitch_bend_c, 12, 3840
12, 86675, Pitch_bend_c, 12, 5854
12, 86686, Pitch_bend_c, 12, 8192
12, 86979, Note_on_c, 12, 76, 0
12, 87022, Note_on_c, 12, 76, 100
12, 87265, Pitch_bend_c, 12, 8039
12, 87275, Pitch_bend_c, 12, 6424
12, 87276, Note_on_c, 12, 76, 0
12, 87286, Pitch_bend_c, 12, 4068
12, 87297, Pitch_bend_c, 12, 2700
12, 87305, Note_on_c, 12, 74, 100
12, 87315, Pitch_bend_c, 12, 2966
12, 87325, Pitch_bend_c, 12, 5645
12, 87336, Pitch_bend_c, 12, 8192
12, 87534, Note_on_c, 12, 74, 0
12, 87578, Note_on_c, 12, 74, 100
12, 87778, Note_on_c, 12, 74, 0
12, 87786, Pitch_bend_c, 12, 5854
12, 87796, Pitch_bend_c, 12, 2301
12, 87806, Pitch_bend_c, 12, 249
12, 87812, Note_on_c, 12, 76, 100
12, 87825, Pitch_bend_c, 12, 382
12, 87838, Pitch_bend_c, 12, 2890
12, 87849, Pitch_bend_c, 12, 5341
12, 87860, Pitch_bend_c, 12, 8192
12, 88112, Control_c, 12, 1, 1
12, 88144, Control_c, 12, 1, 20
12, 88176, Control_c, 12, 1, 37
12, 88207, Control_c, 12, 1, 50
12, 88239, Control_c, 12, 1, 59
12, 88274, Control_c, 12, 1, 69
12, 88306, Control_c, 12, 1, 74
12, 88337, Control_c, 12, 1, 78
12, 88396, Control_c, 12, 1, 62
12, 88428, Control_c, 12, 1, 0
12, 88503, Note_on_c, 12, 76, 0
12, 88512, Note_on_c, 12, 72, 100
12, 88711, Note_on_c, 12, 72, 0
12, 88724, Note_on_c, 12, 74, 100
12, 88725, Pitch_bend_c, 12, 7716
12, 88738, Pitch_bend_c, 12, 5151
12, 88749, Pitch_bend_c, 12, 2301
12, 88760, Pitch_bend_c, 12, 1256
12, 88786, Pitch_bend_c, 12, 2206
12, 88797, Pitch_bend_c, 12, 3954
12, 88808, Pitch_bend_c, 12, 6177
12, 88819, Pitch_bend_c, 12, 8192
12, 88935, Note_on_c, 12, 74, 0
12, 88943, Note_on_c, 12, 72, 100
12, 89097, Control_c, 12, 1, 3
12, 89129, Control_c, 12, 1, 22
12, 89161, Control_c, 12, 1, 43
12, 89193, Control_c, 12, 1, 60
12, 89224, Control_c, 12, 1, 68
12, 89256, Control_c, 12, 1, 63
12, 89287, Control_c, 12, 1, 0
12, 89358, Note_on_c, 12, 72, 0
12, 90921, Pitch_bend_c, 12, 8077
12, 90931, Pitch_bend_c, 12, 6823
12, 90942, Pitch_bend_c, 12, 4885
12, 90944, Note_on_c, 12, 77, 100
12, 90953, Pitch_bend_c, 12, 2301
12, 90963, Pitch_bend_c, 12, 1009
12, 90982, Pitch_bend_c, 12, 1389
12, 90993, Pitch_bend_c, 12, 3156
12, 91004, Pitch_bend_c, 12, 5607
12, 91015, Pitch_bend_c, 12, 8192
12, 91140, Note_on_c, 12, 77, 0
12, 91182, Note_on_c, 12, 76, 100
12, 91407, Note_on_c, 12, 76, 0
12, 91440, Control_c, 12, 1, 12
12, 91441, Note_on_c, 12, 76, 100
12, 91471, Control_c, 12, 1, 26
12, 91501, Control_c, 12, 1, 38
12, 91532, Control_c, 12, 1, 49
12, 91564, Control_c, 12, 1, 54
12, 91598, Control_c, 12, 1, 62
12, 91630, Control_c, 12, 1, 69
12, 91662, Control_c, 12, 1, 74
12, 91694, Control_c, 12, 1, 79
12, 91726, Control_c, 12, 1, 81
12, 91765, Control_c, 12, 1, 0
12, 91840, Note_on_c, 12, 77, 100
12, 91843, Note_on_c, 12, 76, 0
12, 91984, Note_on_c, 12, 76, 100
12, 92008, Note_on_c, 12, 77, 0
12, 92105, Note_on_c, 12, 76, 0
12, 92138, Pitch_bend_c, 12, 6481
12, 92148, Note_on_c, 12, 76, 100
12, 92148, Pitch_bend_c, 12, 3479
12, 92159, Pitch_bend_c, 12, 705
12, 92186, Pitch_bend_c, 12, 2491
12, 92196, Pitch_bend_c, 12, 4087
12, 92207, Pitch_bend_c, 12, 5664
12, 92220, Pitch_bend_c, 12, 8192
12, 92349, Note_on_c, 12, 74, 100
12, 92355, Note_on_c, 12, 76, 0
12, 92491, Control_c, 12, 1, 11
12, 92522, Control_c, 12, 1, 24
12, 92554, Control_c, 12, 1, 33
12, 92589, Control_c, 12, 1, 41
12, 92621, Control_c, 12, 1, 49
12, 92655, Control_c, 12, 1, 56
12, 92687, Control_c, 12, 1, 60
12, 92722, Control_c, 12, 1, 64
12, 92775, Control_c, 12, 1, 70
12, 92870, Control_c, 12, 1, 0
12, 92898, Note_on_c, 12, 74, 0
12, 94804, Note_on_c, 12, 67, 100
12, 94997, Note_on_c, 12, 67, 0
12, 95013, Pitch_bend_c, 12, 7032
12, 95024, Pitch_bend_c, 12, 3517
12, 95034, Pitch_bend_c, 12, 59
12, 95037, Note_on_c, 12, 74, 100
12, 95056, Pitch_bend_c, 12, 0
12, 95072, Pitch_bend_c, 12, 154
12, 95082, Pitch_bend_c, 12, 2472
12, 95093, Pitch_bend_c, 12, 5189
12, 95105, Pitch_bend_c, 12, 8192
12, 95321, Note_on_c, 12, 74, 0
12, 95344, Note_on_c, 12, 76, 100
12, 95627, Note_on_c, 12, 77, 100
12, 95654, Note_on_c, 12, 76, 0
12, 95908, Note_on_c, 12, 77, 0
12, 95923, Pitch_bend_c, 12, 4315
12, 95929, Note_on_c, 12, 76, 100
12, 95934, Pitch_bend_c, 12, 0
12, 95974, Pitch_bend_c, 12, 1370
12, 95986, Pitch_bend_c, 12, 5189
12, 95996, Pitch_bend_c, 12, 8192
12, 96204, Note_on_c, 12, 74, 100
12, 96216, Note_on_c, 12, 76, 0
12, 96398, Note_on_c, 12, 74, 0
12, 96403, Note_on_c, 12, 72, 100
12, 96603, Note_on_c, 12, 72, 0
12, 96604, Pitch_bend_c, 12, 6918
12, 96614, Note_on_c, 12, 74, 100
12, 96615, Pitch_bend_c, 12, 3365
12, 96625, Pitch_bend_c, 12, 762
12, 96652, Pitch_bend_c, 12, 1921
12, 96662, Pitch_bend_c, 12, 4562
12, 96673, Pitch_bend_c, 12, 8192
12, 96927, Control_c, 12, 1, 22
12, 96959, Control_c, 12, 1, 56
12, 96989, Control_c, 12, 1, 74
12, 97020, Control_c, 12, 1, 82
12, 97116, Control_c, 12, 1, 71
12, 97144, Note_on_c, 12, 74, 0
12, 97146, Control_c, 12, 1, 0
12, 98145, Note_on_c, 12, 72, 100
12, 98272, Note_on_c, 12, 72, 0
12, 98288, Note_on_c, 12, 74, 100
12, 98424, Note_on_c, 12, 74, 0
12, 98433, Pitch_bend_c, 12, 6576
12, 98444, Pitch_bend_c, 12, 3023
12, 98450, Note_on_c, 12, 76, 100
12, 98455, Pitch_bend_c, 12, 0
12, 98489, Pitch_bend_c, 12, 1845
12, 98500, Pitch_bend_c, 12, 6766
12, 98511, Pitch_bend_c, 12, 8192
12, 98668, Note_on_c, 12, 76, 0
12, 98678, Note_on_c, 12, 79, 100
12, 98749, Control_c, 12, 1, 12
12, 98779, Control_c, 12, 1, 33
12, 98810, Control_c, 12, 1, 55
12, 98842, Control_c, 12, 1, 76
12, 98875, Control_c, 12, 1, 93
12, 98906, Control_c, 12, 1, 102
12, 98952, Control_c, 12, 1, 81
12, 98983, Control_c, 12, 1, 0
12, 99008, Note_on_c, 12, 79, 0
12, 99341, Note_on_c, 12, 67, 100
12, 99525, Note_on_c, 12, 67, 0
12, 99543, Pitch_bend_c, 12, 7412
12, 99551, Note_on_c, 12, 76, 100
12, 99554, Pitch_bend_c, 12, 4904
12, 99565, Pitch_bend_c, 12, 2130
12, 99575, Pitch_bend_c, 12, 933
12, 99594, Pitch_bend_c, 12, 1541
12, 99605, Pitch_bend_c, 12, 4733
12, 99615, Pitch_bend_c, 12, 8192
12, 99779, Control_c, 12, 1, 24
12, 99809, Control_c, 12, 1, 49
12, 99839, Control_c, 12, 1, 74
12, 99870, Control_c, 12, 1, 86
12, 99902, Control_c, 12, 1, 83
12, 99934, Control_c, 12, 1, 56
12, 99966, Control_c, 12, 1, 0
12, 100006, Note_on_c, 12, 74, 100
12, 100026, Note_on_c, 12, 76, 0
12, 100198, Note_on_c, 12, 72, 100
12, 100214, Note_on_c, 12, 74, 0
12, 100358, Note_on_c, 12, 72, 0
12, 100380, Note_on_c, 12, 72, 100
12, 100500, Control_c, 12, 1, 1
12, 100531, Control_c, 12, 1, 21
12, 100562, Control_c, 12, 1, 38
12, 100592, Control_c, 12, 1, 56
12, 100624, Control_c, 12, 1, 65
12, 100675, Control_c, 12, 1, 57
12, 100707, Control_c, 12, 1, 0
12, 100800, Note_on_c, 12, 72, 0
12, 100862, Control_c, 12, 1, 1
12, 100894, Control_c, 12, 1, 20
12, 100926, Control_c, 12, 1, 38
12, 100958, Control_c, 12, 1, 56
12, 100990, Control_c, 12, 1, 67
12, 101046, Control_c, 12, 1, 44
12, 101077, Control_c, 12, 1, 0
12, 101332, Control_c, 12, 1, 1
12, 101364, Control_c, 12, 1, 17
12, 101396, Control_c, 12, 1, 34
12, 101426, Control_c, 12, 1, 48
12, 101460, Control_c, 12, 1, 56
12, 101522, Control_c, 12, 1, 35
12, 101553, Control_c, 12, 1, 0
12, 101909, Pitch_bend_c, 12, 8134
12, 101919, Pitch_bend_c, 12, 7412
12, 101930, Pitch_bend_c, 12, 6614
12, 101941, Pitch_bend_c, 12, 5417
12, 101951, Pitch_bend_c, 12, 3897
12, 101962, Pitch_bend_c, 12, 2605
12, 101972, Pitch_bend_c, 12, 1883
12, 102015, Pitch_bend_c, 12, 2510
12, 102025, Pitch_bend_c, 12, 3707
12, 102037, Pitch_bend_c, 12, 5189
12, 102047, Pitch_bend_c, 12, 6462
12, 102057, Pitch_bend_c, 12, 7488
12, 102068, Pitch_bend_c, 12, 8192
12, 102344, Control_c, 12, 1, 4
12, 102376, Control_c, 12, 1, 29
12, 102406, Control_c, 12, 1, 53
12, 102437, Control_c, 12, 1, 66
12, 102480, Control_c, 12, 1, 48
12, 102511, Control_c, 12, 1, 0
12, 102742, Control_c, 12, 1, 11
12, 102774, Control_c, 12, 1, 31
12, 102806, Control_c, 12, 1, 49
12, 102838, Control_c, 12, 1, 61
12, 102870, Control_c, 12, 1, 66
12, 102907, Control_c, 12, 1, 44
12, 102939, Control_c, 12, 1, 0
12, 103325, Control_c, 12, 1, 16
12, 103356, Control_c, 12, 1, 29
12, 103397, Control_c, 12, 1, 0
12, 103551, Control_c, 12, 123, 0
12, 103556, Control_c, 12, 120, 0
12, 103566, Control_c, 12, 7, 127
12, 103920, Note_on_c, 12, 67, 100
12, 104201, Note_on_c, 12, 67, 0
12, 104280, Note_on_c, 12, 72, 100
12, 104483, Note_on_c, 12, 72, 0
12, 104520, Note_on_c, 12, 74, 100
12, 104878, Note_on_c, 12, 74, 0
12, 105120, Note_on_c, 12, 74, 100
12, 105236, Note_on_c, 12, 74, 0
12, 105240, Note_on_c, 12, 72, 100
12, 105396, Note_on_c, 12, 72, 0
12, 105480, Note_on_c, 12, 72, 100
12, 105686, Note_on_c, 12, 72, 0
12, 105840, Note_on_c, 12, 72, 100
12, 106080, Note_on_c, 12, 76, 100
12, 106083, Note_on_c, 12, 72, 0
12, 106273, Note_on_c, 12, 76, 0
12, 106440, Note_on_c, 12, 76, 100
12, 106698, Note_on_c, 12, 76, 0
12, 106800, Note_on_c, 12, 76, 100
12, 106920, Note_on_c, 12, 74, 100
12, 106948, Note_on_c, 12, 76, 0
12, 107193, Note_on_c, 12, 74, 0
12, 107400, Note_on_c, 12, 72, 100
12, 107437, Pitch_bend_c, 12, 8984
12, 107467, Pitch_bend_c, 12, 13212
12, 107485, Pitch_bend_c, 12, 16383
12, 107562, Pitch_bend_c, 12, 13212
12, 107580, Pitch_bend_c, 12, 9248
12, 107600, Pitch_bend_c, 12, 8192
12, 107618, Note_on_c, 12, 72, 0
12, 107640, Note_on_c, 12, 72, 100
12, 108056, Note_on_c, 12, 72, 0
12, 108240, Note_on_c, 12, 74, 100
12, 108413, Note_on_c, 12, 74, 0
12, 108480, Note_on_c, 12, 74, 100
12, 108538, Note_on_c, 12, 74, 0
12, 108600, Note_on_c, 12, 74, 100
12, 108653, Note_on_c, 12, 74, 0
12, 108720, Note_on_c, 12, 74, 100
12, 108793, Note_on_c, 12, 74, 0
12, 108840, Note_on_c, 12, 76, 100
12, 109033, Note_on_c, 12, 76, 0
12, 109080, Note_on_c, 12, 79, 100
12, 109246, Note_on_c, 12, 79, 0
12, 109320, Note_on_c, 12, 79, 100
12, 109357, Pitch_bend_c, 12, 10041
12, 109377, Pitch_bend_c, 12, 14797
12, 109397, Pitch_bend_c, 12, 16383
12, 109513, Note_on_c, 12, 79, 0
12, 109552, Pitch_bend_c, 12, 14004
12, 109560, Note_on_c, 12, 79, 100
12, 109570, Pitch_bend_c, 12, 9777
12, 109590, Pitch_bend_c, 12, 8192
12, 109800, Note_on_c, 12, 72, 100
12, 109813, Note_on_c, 12, 79, 0
12, 109845, Pitch_bend_c, 12, 10305
12, 109862, Pitch_bend_c, 12, 15061
12, 109882, Pitch_bend_c, 12, 16383
12, 109960, Pitch_bend_c, 12, 14533
12, 109971, Note_on_c, 12, 72, 0
12, 109977, Pitch_bend_c, 12, 9513
12, 109997, Pitch_bend_c, 12, 8192
12, 110040, Note_on_c, 12, 69, 100
12, 110156, Note_on_c, 12, 69, 0
12, 110160, Note_on_c, 12, 72, 100
12, 110273, Note_on_c, 12, 72, 0
12, 110280, Note_on_c, 12, 69, 100
12, 110366, Note_on_c, 12, 69, 0
12, 110400, Note_on_c, 12, 72, 100
12, 110581, Note_on_c, 12, 72, 0
12, 110640, Note_on_c, 12, 72, 100
12, 110760, Note_on_c, 12, 74, 100
12, 110821, Note_on_c, 12, 72, 0
12, 111060, Pitch_bend_c, 12, 14533
12, 111077, Pitch_bend_c, 12, 16383
12, 111101, Note_on_c, 12, 74, 0
12, 111120, Note_on_c, 12, 72, 100
12, 111145, Pitch_bend_c, 12, 14004
12, 111162, Pitch_bend_c, 12, 9513
12, 111182, Pitch_bend_c, 12, 8192
12, 111496, Note_on_c, 12, 72, 0
12, 111960, Note_on_c, 12, 72, 100
12, 112080, Note_on_c, 12, 67, 100
12, 112091, Note_on_c, 12, 72, 0
12, 112228, Note_on_c, 12, 67, 0
12, 112680, Note_on_c, 12, 67, 100
12, 112800, Note_on_c, 12, 69, 100
12, 112823, Note_on_c, 12, 67, 0
12, 112908, Note_on_c, 12, 69, 0
12, 112920, Note_on_c, 12, 72, 100
12, 112986, Note_on_c, 12, 72, 0
12, 113040, Note_on_c, 12, 72, 100
12, 113248, Note_on_c, 12, 72, 0
12, 113280, Note_on_c, 12, 72, 100
12, 113456, Note_on_c, 12, 72, 0
12, 113520, Note_on_c, 12, 72, 100
12, 113686, Note_on_c, 12, 72, 0
12, 113760, Note_on_c, 12, 81, 100
12, 113938, Note_on_c, 12, 81, 0
12, 114000, Note_on_c, 12, 81, 100
12, 114168, Note_on_c, 12, 81, 0
12, 114240, Note_on_c, 12, 79, 100
12, 114421, Note_on_c, 12, 79, 0
12, 114480, Note_on_c, 12, 77, 100
12, 114697, Pitch_bend_c, 12, 6605
12, 114715, Pitch_bend_c, 12, 4756
12, 114726, Note_on_c, 12, 77, 0
12, 114735, Pitch_bend_c, 12, 2642
12, 114755, Pitch_bend_c, 12, 792
12, 114775, Pitch_bend_c, 12, 0
12, 114805, Pitch_bend_c, 12, 264
12, 114822, Pitch_bend_c, 12, 6077
12, 114842, Pitch_bend_c, 12, 8192
12, 115320, Note_on_c, 12, 74, 100
12, 115370, Pitch_bend_c, 12, 10834
12, 115390, Pitch_bend_c, 12, 14797
12, 115410, Pitch_bend_c, 12, 16383
12, 115471, Note_on_c, 12, 74, 0
12, 115475, Pitch_bend_c, 12, 15590
12, 115495, Pitch_bend_c, 12, 13476
12, 115515, Pitch_bend_c, 12, 9777
12, 115535, Pitch_bend_c, 12, 8192
12, 115560, Note_on_c, 12, 76, 100
12, 115641, Note_on_c, 12, 76, 0
12, 115680, Note_on_c, 12, 76, 100
12, 115733, Note_on_c, 12, 76, 0
12, 115800, Note_on_c, 12, 76, 100
12, 115861, Note_on_c, 12, 76, 0
12, 115920, Note_on_c, 12, 74, 100
12, 116111, Note_on_c, 12, 74, 0
12, 116160, Note_on_c, 12, 74, 100
12, 116311, Note_on_c, 12, 74, 0
12, 116400, Note_on_c, 12, 74, 100
12, 116461, Note_on_c, 12, 74, 0
12, 116520, Note_on_c, 12, 76, 100
12, 116703, Note_on_c, 12, 76, 0
12, 116760, Note_on_c, 12, 79, 100
12, 116946, Note_on_c, 12, 79, 0
12, 117000, Note_on_c, 12, 79, 100
12, 117052, Pitch_bend_c, 12, 9248
12, 117072, Pitch_bend_c, 12, 13740
12, 117090, Pitch_bend_c, 12, 16383
12, 117196, Note_on_c, 12, 79, 0
12, 117225, Pitch_bend_c, 12, 14269
12, 117240, Note_on_c, 12, 79, 100
12, 117245, Pitch_bend_c, 12, 10305
12, 117262, Pitch_bend_c, 12, 8192
12, 117356, Note_on_c, 12, 79, 0
12, 117360, Note_on_c, 12, 76, 100
12, 117451, Note_on_c, 12, 76, 0
12, 117480, Note_on_c, 12, 72, 100
12, 117583, Note_on_c, 12, 72, 0
12, 117600, Note_on_c, 12, 69, 100
12, 117668, Note_on_c, 12, 69, 0
12, 117720, Note_on_c, 12, 72, 100
12, 117811, Note_on_c, 12, 72, 0
12, 117840, Note_on_c, 12, 69, 100
12, 117911, Note_on_c, 12, 69, 0
12, 118200, Note_on_c, 12, 72, 100
12, 118398, Note_on_c, 12, 72, 0
12, 118440, Note_on_c, 12, 75, 100
12, 118896, Note_on_c, 12, 75, 0
12, 118920, Note_on_c, 12, 72, 100
12, 119113, Note_on_c, 12, 72, 0
12, 119400, Note_on_c, 12, 72, 100
12, 119506, Note_on_c, 12, 72, 0
12, 119640, Note_on_c, 12, 72, 100
12, 119726, Note_on_c, 12, 72, 0
12, 119760, Note_on_c, 12, 75, 100
12, 119841, Note_on_c, 12, 75, 0
12, 120000, Note_on_c, 12, 74, 100
12, 120240, Note_on_c, 12, 72, 100
12, 120246, Note_on_c, 12, 74, 0
12, 120361, Note_on_c, 12, 72, 0
12, 120480, Note_on_c, 12, 70, 100
12, 120588, Note_on_c, 12, 70, 0
12, 120600, Note_on_c, 12, 72, 100
12, 120706, Note_on_c, 12, 72, 0
12, 120840, Note_on_c, 12, 67, 100
12, 121501, Note_on_c, 12, 67, 0
12, 122520, Note_on_c, 12, 75, 100
12, 122636, Note_on_c, 12, 75, 0
12, 122760, Note_on_c, 12, 75, 100
12, 123046, Note_on_c, 12, 75, 0
12, 123360, Note_on_c, 12, 72, 100
12, 123431, Note_on_c, 12, 72, 0
12, 123480, Note_on_c, 12, 75, 100
12, 123558, Note_on_c, 12, 75, 0
12, 123600, Note_on_c, 12, 74, 100
12, 123816, Note_on_c, 12, 74, 0
12, 123840, Note_on_c, 12, 72, 100
12, 123898, Note_on_c, 12, 72, 0
12, 123960, Note_on_c, 12, 70, 100
12, 124031, Note_on_c, 12, 70, 0
12, 124080, Note_on_c, 12, 67, 100
12, 124158, Note_on_c, 12, 67, 0
12, 124200, Note_on_c, 12, 72, 100
12, 124431, Note_on_c, 12, 72, 0
12, 124440, Note_on_c, 12, 70, 100
12, 124541, Note_on_c, 12, 70, 0
12, 124560, Note_on_c, 12, 67, 100
12, 125256, Note_on_c, 12, 67, 0
12, 125280, Note_on_c, 12, 70, 100
12, 125753, Note_on_c, 12, 70, 0
12, 126000, Note_on_c, 12, 75, 100
12, 126131, Note_on_c, 12, 75, 0
12, 126960, Note_on_c, 12, 75, 100
12, 127163, Note_on_c, 12, 75, 0
12, 127200, Note_on_c, 12, 79, 100
12, 127341, Note_on_c, 12, 79, 0
12, 127440, Note_on_c, 12, 79, 100
12, 127560, Note_on_c, 12, 77, 100
12, 127566, Note_on_c, 12, 79, 0
12, 127971, Note_on_c, 12, 77, 0
12, 128160, Note_on_c, 12, 75, 100
12, 128211, Note_on_c, 12, 75, 0
12, 128280, Note_on_c, 12, 75, 100
12, 128346, Note_on_c, 12, 75, 0
12, 128400, Note_on_c, 12, 77, 100
12, 128566, Note_on_c, 12, 77, 0
12, 128640, Note_on_c, 12, 79, 100
12, 128791, Note_on_c, 12, 79, 0
12, 128880, Note_on_c, 12, 77, 100
12, 129120, Note_on_c, 12, 75, 100
12, 129133, Note_on_c, 12, 77, 0
12, 129233, Note_on_c, 12, 75, 0
12, 129240, Note_on_c, 12, 72, 100
12, 129360, Note_on_c, 12, 75, 100
12, 129376, Note_on_c, 12, 72, 0
12, 129801, Note_on_c, 12, 75, 0
12, 130680, Note_on_c, 12, 75, 100
12, 130768, Note_on_c, 12, 75, 0
12, 130800, Note_on_c, 12, 72, 100
12, 130871, Note_on_c, 12, 72, 0
12, 130920, Note_on_c, 12, 75, 100
12, 131001, Note_on_c, 12, 75, 0
12, 131040, Note_on_c, 12, 72, 100
12, 131131, Note_on_c, 12, 72, 0
12, 131160, Note_on_c, 12, 75, 100
12, 131241, Note_on_c, 12, 75, 0
12, 131280, Note_on_c, 12, 72, 100
12, 131363, Note_on_c, 12, 72, 0
12, 131400, Note_on_c, 12, 75, 100
12, 131520, Note_on_c, 12, 72, 100
12, 131536, Note_on_c, 12, 75, 0
12, 131603, Note_on_c, 12, 72, 0
12, 131760, Note_on_c, 12, 72, 100
12, 131823, Note_on_c, 12, 72, 0
12, 131880, Note_on_c, 12, 75, 100
12, 131968, Note_on_c, 12, 75, 0
12, 132000, Note_on_c, 12, 77, 100
12, 132176, Note_on_c, 12, 77, 0
12, 132240, Note_on_c, 12, 77, 100
12, 133311, Note_on_c, 12, 77, 0
12, 133320, Note_on_c, 12, 82, 100
12, 133560, Note_on_c, 12, 77, 100
12, 133581, Note_on_c, 12, 82, 0
12, 133680, Note_on_c, 12, 80, 100
12, 133683, Note_on_c, 12, 77, 0
12, 133788, Note_on_c, 12, 80, 0
12, 133800, Note_on_c, 12, 82, 100
12, 133908, Note_on_c, 12, 82, 0
12, 133920, Note_on_c, 12, 85, 100
12, 134040, Note_on_c, 12, 82, 100
12, 134061, Note_on_c, 12, 85, 0
12, 134188, Note_on_c, 12, 82, 0
12, 134760, Note_on_c, 12, 74, 100
12, 134882, Pitch_bend_c, 12, 10305
12, 134902, Pitch_bend_c, 12, 14004
12, 134920, Pitch_bend_c, 12, 16383
12, 134980, Pitch_bend_c, 12, 14269
12, 135000, Pitch_bend_c, 12, 9777
12, 135000, Note_on_c, 12, 72, 100
12, 135020, Pitch_bend_c, 12, 8192
12, 135023, Note_on_c, 12, 74, 0
12, 135491, Note_on_c, 12, 72, 0
12, 136200, Note_on_c, 12, 76, 100
12, 136476, Note_on_c, 12, 76, 0
12, 136560, Note_on_c, 12, 76, 100
12, 136770, Pitch_bend_c, 12, 7926
12, 136790, Pitch_bend_c, 12, 5284
12, 136810, Pitch_bend_c, 12, 2113
12, 136828, Note_on_c, 12, 76, 0
12, 136830, Pitch_bend_c, 12, 0
12, 136860, Pitch_bend_c, 12, 1321
12, 136877, Pitch_bend_c, 12, 6077
12, 136897, Pitch_bend_c, 12, 8192
12, 136920, Note_on_c, 12, 74, 100
12, 137128, Note_on_c, 12, 74, 0
12, 137160, Note_on_c, 12, 74, 100
12, 137428, Note_on_c, 12, 74, 0
12, 137520, Note_on_c, 12, 72, 100
12, 137891, Note_on_c, 12, 72, 0
12, 138360, Note_on_c, 12, 74, 100
12, 138476, Note_on_c, 12, 74, 0
12, 138480, Note_on_c, 12, 76, 100
12, 138546, Note_on_c, 12, 76, 0
12, 138600, Note_on_c, 12, 76, 100
12, 138658, Note_on_c, 12, 76, 0
12, 138720, Note_on_c, 12, 76, 100
12, 138776, Note_on_c, 12, 76, 0
12, 138840, Note_on_c, 12, 76, 100
12, 138921, Note_on_c, 12, 76, 0
12, 138960, Note_on_c, 12, 74, 100
12, 139133, Note_on_c, 12, 74, 0
12, 139200, Note_on_c, 12, 74, 100
12, 139383, Note_on_c, 12, 74, 0
12, 139440, Note_on_c, 12, 74, 100
12, 139503, Note_on_c, 12, 74, 0
12, 139560, Note_on_c, 12, 74, 100
12, 139647, Pitch_bend_c, 12, 10041
12, 139667, Pitch_bend_c, 12, 13476
12, 139687, Pitch_bend_c, 12, 16383
12, 139763, Note_on_c, 12, 74, 0
12, 139800, Note_on_c, 12, 74, 100
12, 139825, Pitch_bend_c, 12, 16118
12, 139845, Pitch_bend_c, 12, 12948
12, 139862, Pitch_bend_c, 12, 9513
12, 139882, Pitch_bend_c, 12, 8192
12, 139922, Pitch_bend_c, 12, 7926
12, 139942, Pitch_bend_c, 12, 5812
12, 139960, Pitch_bend_c, 12, 2378
12, 139982, Pitch_bend_c, 12, 0
12, 140033, Note_on_c, 12, 74, 0
12, 140110, Pitch_bend_c, 12, 1849
12, 140127, Pitch_bend_c, 12, 6605
12, 140147, Pitch_bend_c, 12, 8192
12, 140280, Note_on_c, 12, 72, 100
12, 140400, Note_on_c, 12, 69, 100
12, 140401, Note_on_c, 12, 72, 0
12, 140493, Note_on_c, 12, 69, 0
12, 140520, Note_on_c, 12, 72, 100
12, 140606, Note_on_c, 12, 72, 0
12, 140640, Note_on_c, 12, 69, 100
12, 140723, Note_on_c, 12, 69, 0
12, 140760, Note_on_c, 12, 72, 100
12, 140841, Note_on_c, 12, 72, 0
12, 140880, Note_on_c, 12, 69, 100
12, 140973, Note_on_c, 12, 69, 0
12, 141000, Note_on_c, 12, 72, 100
12, 141161, Note_on_c, 12, 72, 0
12, 141240, Note_on_c, 12, 72, 100
12, 141360, Note_on_c, 12, 69, 100
12, 141371, Note_on_c, 12, 72, 0
12, 141466, Note_on_c, 12, 69, 0
12, 141480, Note_on_c, 12, 67, 100
12, 141637, Pitch_bend_c, 12, 9248
12, 141657, Pitch_bend_c, 12, 13740
12, 141677, Pitch_bend_c, 12, 16383
12, 141720, Note_on_c, 12, 70, 100
12, 141721, Note_on_c, 12, 67, 0
12, 141996, Note_on_c, 12, 70, 0
12, 142085, Pitch_bend_c, 12, 13212
12, 142105, Pitch_bend_c, 12, 9248
12, 142122, Pitch_bend_c, 12, 8192
12, 142680, Note_on_c, 12, 72, 100
12, 142856, Note_on_c, 12, 72, 0
12, 142920, Note_on_c, 12, 72, 100
12, 143012, Pitch_bend_c, 12, 8720
12, 143032, Pitch_bend_c, 12, 11362
12, 143052, Pitch_bend_c, 12, 13740
12, 143072, Pitch_bend_c, 12, 15326
12, 143092, Pitch_bend_c, 12, 16383
12, 143223, Note_on_c, 12, 72, 0
12, 143280, Note_on_c, 12, 72, 100
12, 143417, Pitch_bend_c, 12, 14797
12, 143437, Pitch_bend_c, 12, 9777
12, 143457, Pitch_bend_c, 12, 8192
12, 143488, Note_on_c, 12, 72, 0
12, 143520, Note_on_c, 12, 71, 100
12, 143833, Note_on_c, 12, 71, 0
12, 144120, Note_on_c, 12, 79, 100
12, 144157, Pitch_bend_c, 12, 9513
12, 144175, Pitch_bend_c, 12, 13476
12, 144195, Pitch_bend_c, 12, 16383
12, 144295, Pitch_bend_c, 12, 14533
12, 144312, Pitch_bend_c, 12, 9777
12, 144332, Pitch_bend_c, 12, 8192
12, 144360, Note_on_c, 12, 74, 100
12, 144366, Note_on_c, 12, 79, 0
12, 144432, Pitch_bend_c, 12, 8456
12, 144450, Pitch_bend_c, 12, 14004
12, 144470, Pitch_bend_c, 12, 16383
12, 144550, Pitch_bend_c, 12, 12948
12, 144567, Pitch_bend_c, 12, 9248
12, 144590, Pitch_bend_c, 12, 8192
12, 144600, Note_on_c, 12, 72, 100
12, 144611, Note_on_c, 12, 74, 0
12, 144840, Note_on_c, 12, 74, 100
12, 144851, Note_on_c, 12, 72, 0
12, 145171, Note_on_c, 12, 74, 0
12, 145200, Note_on_c, 12, 72, 100
12, 145483, Note_on_c, 12, 72, 0
12, 145560, Note_on_c, 12, 72, 100
12, 145666, Note_on_c, 12, 72, 0
12, 145680, Note_on_c, 12, 69, 100
12, 145776, Note_on_c, 12, 69, 0
12, 145800, Note_on_c, 12, 67, 100
12, 145800, Note_on_c, 12, 69, 100
12, 145891, Note_on_c, 12, 69, 0
12, 145908, Note_on_c, 12, 67, 0
12, 145920, Note_on_c, 12, 67, 100
12, 146041, Note_on_c, 12, 67, 0
12, 146400, Note_on_c, 12, 76, 100
12, 146468, Note_on_c, 12, 76, 0
12, 146520, Note_on_c, 12, 76, 100
12, 146606, Note_on_c, 12, 76, 0
12, 146640, Note_on_c, 12, 79, 100
12, 146813, Note_on_c, 12, 79, 0
12, 146880, Note_on_c, 12, 79, 100
12, 147096, Note_on_c, 12, 79, 0
12, 147120, Note_on_c, 12, 79, 100
12, 147188, Note_on_c, 12, 79, 0
12, 147240, Note_on_c, 12, 76, 100
12, 147302, Pitch_bend_c, 12, 8456
12, 147320, Pitch_bend_c, 12, 10041
12, 147340, Pitch_bend_c, 12, 11626
12, 147360, Pitch_bend_c, 12, 12948
12, 147380, Pitch_bend_c, 12, 13476
12, 147400, Pitch_bend_c, 12, 13740
12, 147430, Pitch_bend_c, 12, 12683
12, 147433, Note_on_c, 12, 76, 0
12, 147450, Pitch_bend_c, 12, 9777
12, 147470, Pitch_bend_c, 12, 8192
12, 147480, Note_on_c, 12, 76, 100
12, 147597, Pitch_bend_c, 12, 7134
12, 147617, Pitch_bend_c, 12, 5020
12, 147637, Pitch_bend_c, 12, 2113
12, 147657, Pitch_bend_c, 12, 0
12, 147701, Note_on_c, 12, 76, 0
12, 147720, Note_on_c, 12, 72, 100
12, 147752, Pitch_bend_c, 12, 8192
12, 147810, Pitch_bend_c, 12, 8720
12, 147830, Pitch_bend_c, 12, 12948
12, 147847, Pitch_bend_c, 12, 16383
12, 147907, Pitch_bend_c, 12, 15061
12, 147927, Pitch_bend_c, 12, 10305
12, 147947, Pitch_bend_c, 12, 8192
12, 147960, Note_on_c, 12, 72, 100
12, 147961, Note_on_c, 12, 72, 0
12, 148113, Note_on_c, 12, 72, 0
12, 148200, Note_on_c, 12, 72, 100
12, 148306, Note_on_c, 12, 72, 0
12, 148320, Note_on_c, 12, 69, 100
12, 148418, Note_on_c, 12, 69, 0
12, 148440, Note_on_c, 12, 72, 100
12, 148523, Note_on_c, 12, 72, 0
12, 148560, Note_on_c, 12, 69, 100
12, 148643, Note_on_c, 12, 69, 0
12, 148680, Note_on_c, 12, 72, 100
12, 148848, Note_on_c, 12, 72, 0
12, 148920, Note_on_c, 12, 74, 100
12, 149098, Note_on_c, 12, 74, 0
12, 149160, Note_on_c, 12, 74, 100
12, 149227, Pitch_bend_c, 12, 9513
12, 149247, Pitch_bend_c, 12, 13740
12, 149267, Pitch_bend_c, 12, 16383
12, 149371, Note_on_c, 12, 74, 0
12, 149400, Note_on_c, 12, 74, 100
12, 149445, Pitch_bend_c, 12, 14004
12, 149465, Pitch_bend_c, 12, 9513
12, 149485, Pitch_bend_c, 12, 8192
12, 149552, Pitch_bend_c, 12, 8191
12, 149572, Pitch_bend_c, 12, 2378
12, 149595, Pitch_bend_c, 12, 0
12, 149663, Note_on_c, 12, 74, 0
12, 150120, Note_on_c, 12, 74, 100
12, 150242, Pitch_bend_c, 12, 10305
12, 150262, Pitch_bend_c, 12, 14004
12, 150280, Pitch_bend_c, 12, 16383
12, 150340, Pitch_bend_c, 12, 14269
12, 150360, Pitch_bend_c, 12, 9777
12, 150360, Note_on_c, 12, 72, 100
12, 150380, Pitch_bend_c, 12, 8192
12, 150383, Note_on_c, 12, 74, 0
12, 150851, Note_on_c, 12, 72, 0
12, 151560, Note_on_c, 12, 76, 100
12, 151836, Note_on_c, 12, 76, 0
12, 151920, Note_on_c, 12, 76, 100
12, 152130, Pitch_bend_c, 12, 7926
12, 152150, Pitch_bend_c, 12, 5284
12, 152170, Pitch_bend_c, 12, 2113
12, 152188, Note_on_c, 12, 76, 0
12, 152190, Pitch_bend_c, 12, 0
12, 152220, Pitch_bend_c, 12, 1321
12, 152237, Pitch_bend_c, 12, 6077
12, 152257, Pitch_bend_c, 12, 8192
12, 152280, Note_on_c, 12, 74, 100
12, 152488, Note_on_c, 12, 74, 0
12, 152520, Note_on_c, 12, 74, 100
12, 152788, Note_on_c, 12, 74, 0
12, 152880, Note_on_c, 12, 72, 100
12, 153251, Note_on_c, 12, 72, 0
12, 153720, Note_on_c, 12, 74, 100
12, 153836, Note_on_c, 12, 74, 0
12, 153840, Note_on_c, 12, 76, 100
12, 153906, Note_on_c, 12, 76, 0
12, 153960, Note_on_c, 12, 76, 100
12, 154018, Note_on_c, 12, 76, 0
12, 154080, Note_on_c, 12, 76, 100
12, 154136, Note_on_c, 12, 76, 0
12, 154200, Note_on_c, 12, 76, 100
12, 154281, Note_on_c, 12, 76, 0
12, 154320, Note_on_c, 12, 74, 100
12, 154493, Note_on_c, 12, 74, 0
12, 154560, Note_on_c, 12, 74, 100
12, 154743, Note_on_c, 12, 74, 0
12, 154800, Note_on_c, 12, 74, 100
12, 154863, Note_on_c, 12, 74, 0
12, 154920, Note_on_c, 12, 74, 100
12, 155007, Pitch_bend_c, 12, 10041
12, 155027, Pitch_bend_c, 12, 13476
12, 155047, Pitch_bend_c, 12, 16383
12, 155123, Note_on_c, 12, 74, 0
12, 155160, Note_on_c, 12, 74, 100
12, 155185, Pitch_bend_c, 12, 16118
12, 155205, Pitch_bend_c, 12, 12948
12, 155222, Pitch_bend_c, 12, 9513
12, 155242, Pitch_bend_c, 12, 8192
12, 155282, Pitch_bend_c, 12, 7926
12, 155302, Pitch_bend_c, 12, 5812
12, 155320, Pitch_bend_c, 12, 2378
12, 155342, Pitch_bend_c, 12, 0
12, 155393, Note_on_c, 12, 74, 0
12, 155470, Pitch_bend_c, 12, 1849
12, 155487, Pitch_bend_c, 12, 6605
12, 155507, Pitch_bend_c, 12, 8192
12, 155640, Note_on_c, 12, 72, 100
12, 155760, Note_on_c, 12, 69, 100
12, 155761, Note_on_c, 12, 72, 0
12, 155853, Note_on_c, 12, 69, 0
12, 155880, Note_on_c, 12, 72, 100
12, 155966, Note_on_c, 12, 72, 0
12, 156000, Note_on_c, 12, 69, 100
12, 156083, Note_on_c, 12, 69, 0
12, 156120, Note_on_c, 12, 72, 100
12, 156201, Note_on_c, 12, 72, 0
12, 156240, Note_on_c, 12, 69, 100
12, 156333, Note_on_c, 12, 69, 0
12, 156360, Note_on_c, 12, 72, 100
12, 156521, Note_on_c, 12, 72, 0
12, 156600, Note_on_c, 12, 72, 100
12, 156720, Note_on_c, 12, 69, 100
12, 156731, Note_on_c, 12, 72, 0
12, 156826, Note_on_c, 12, 69, 0
12, 156840, Note_on_c, 12, 67, 100
12, 156997, Pitch_bend_c, 12, 9248
12, 157017, Pitch_bend_c, 12, 13740
12, 157037, Pitch_bend_c, 12, 16383
12, 157080, Note_on_c, 12, 70, 100
12, 157081, Note_on_c, 12, 67, 0
12, 157356, Note_on_c, 12, 70, 0
12, 157445, Pitch_bend_c, 12, 13212
12, 157465, Pitch_bend_c, 12, 9248
12, 157482, Pitch_bend_c, 12, 8192
12, 158040, Note_on_c, 12, 72, 100
12, 158216, Note_on_c, 12, 72, 0
12, 158280, Note_on_c, 12, 72, 100
12, 158372, Pitch_bend_c, 12, 8720
12, 158392, Pitch_bend_c, 12, 11362
12, 158412, Pitch_bend_c, 12, 13740
12, 158432, Pitch_bend_c, 12, 15326
12, 158452, Pitch_bend_c, 12, 16383
12, 158583, Note_on_c, 12, 72, 0
12, 158640, Note_on_c, 12, 72, 100
12, 158777, Pitch_bend_c, 12, 14797
12, 158797, Pitch_bend_c, 12, 9777
12, 158817, Pitch_bend_c, 12, 8192
12, 158848, Note_on_c, 12, 72, 0
12, 158880, Note_on_c, 12, 71, 100
12, 159193, Note_on_c, 12, 71, 0
12, 159480, Note_on_c, 12, 79, 100
12, 159517, Pitch_bend_c, 12, 9513
12, 159535, Pitch_bend_c, 12, 13476
12, 159555, Pitch_bend_c, 12, 16383
12, 159655, Pitch_bend_c, 12, 14533
12, 159672, Pitch_bend_c, 12, 9777
12, 159692, Pitch_bend_c, 12, 8192
12, 159720, Note_on_c, 12, 74, 100
12, 159726, Note_on_c, 12, 79, 0
12, 159792, Pitch_bend_c, 12, 8456
12, 159810, Pitch_bend_c, 12, 14004
12, 159830, Pitch_bend_c, 12, 16383
12, 159910, Pitch_bend_c, 12, 12948
12, 159927, Pitch_bend_c, 12, 9248
12, 159950, Pitch_bend_c, 12, 8192
12, 159960, Note_on_c, 12, 72, 100
12, 159971, Note_on_c, 12, 74, 0
12, 160200, Note_on_c, 12, 74, 100
12, 160211, Note_on_c, 12, 72, 0
12, 160531, Note_on_c, 12, 74, 0
12, 160560, Note_on_c, 12, 72, 100
12, 160843, Note_on_c, 12, 72, 0
12, 160920, Note_on_c, 12, 72, 100
12, 161026, Note_on_c, 12, 72, 0
12, 161040, Note_on_c, 12, 69, 100
12, 161136, Note_on_c, 12, 69, 0
12, 161160, Note_on_c, 12, 67, 100
12, 161160, Note_on_c, 12, 69, 100
12, 161251, Note_on_c, 12, 69, 0
12, 161268, Note_on_c, 12, 67, 0
12, 161280, Note_on_c, 12, 67, 100
12, 161401, Note_on_c, 12, 67, 0
12, 161760, Note_on_c, 12, 76, 100
12, 161828, Note_on_c, 12, 76, 0
12, 161880, Note_on_c, 12, 76, 100
12, 161966, Note_on_c, 12, 76, 0
12, 162000, Note_on_c, 12, 79, 100
12, 162173, Note_on_c, 12, 79, 0
12, 162240, Note_on_c, 12, 79, 100
12, 162456, Note_on_c, 12, 79, 0
12, 162480, Note_on_c, 12, 79, 100
12, 162548, Note_on_c, 12, 79, 0
12, 162600, Note_on_c, 12, 76, 100
12, 162662, Pitch_bend_c, 12, 8456
12, 162680, Pitch_bend_c, 12, 10041
12, 162700, Pitch_bend_c, 12, 11626
12, 162720, Pitch_bend_c, 12, 12948
12, 162740, Pitch_bend_c, 12, 13476
12, 162760, Pitch_bend_c, 12, 13740
12, 162790, Pitch_bend_c, 12, 12683
12, 162793, Note_on_c, 12, 76, 0
12, 162810, Pitch_bend_c, 12, 9777
12, 162830, Pitch_bend_c, 12, 8192
12, 162840, Note_on_c, 12, 76, 100
12, 162957, Pitch_bend_c, 12, 7134
12, 162977, Pitch_bend_c, 12, 5020
12, 162997, Pitch_bend_c, 12, 2113
12, 163017, Pitch_bend_c, 12, 0
12, 163061, Note_on_c, 12, 76, 0
12, 163080, Note_on_c, 12, 72, 100
12, 163112, Pitch_bend_c, 12, 8192
12, 163170, Pitch_bend_c, 12, 8720
12, 163190, Pitch_bend_c, 12, 12948
12, 163207, Pitch_bend_c, 12, 16383
12, 163267, Pitch_bend_c, 12, 15061
12, 163287, Pitch_bend_c, 12, 10305
12, 163307, Pitch_bend_c, 12, 8192
12, 163320, Note_on_c, 12, 72, 100
12, 163321, Note_on_c, 12, 72, 0
12, 163473, Note_on_c, 12, 72, 0
12, 163560, Note_on_c, 12, 72, 100
12, 163666, Note_on_c, 12, 72, 0
12, 163680, Note_on_c, 12, 69, 100
12, 163778, Note_on_c, 12, 69, 0
12, 163800, Note_on_c, 12, 72, 100
12, 163883, Note_on_c, 12, 72, 0
12, 163920, Note_on_c, 12, 69, 100
12, 164003, Note_on_c, 12, 69, 0
12, 164040, Note_on_c, 12, 72, 100
12, 164208, Note_on_c, 12, 72, 0
12, 164280, Note_on_c, 12, 74, 100
12, 164458, Note_on_c, 12, 74, 0
12, 164520, Note_on_c, 12, 74, 100
12, 164587, Pitch_bend_c, 12, 9513
12, 164607, Pitch_bend_c, 12, 13740
12, 164627, Pitch_bend_c, 12, 16383
12, 164731, Note_on_c, 12, 74, 0
12, 164760, Note_on_c, 12, 74, 100
12, 164805, Pitch_bend_c, 12, 14004
12, 164825, Pitch_bend_c, 12, 9513
12, 164845, Pitch_bend_c, 12, 8192
12, 164912, Pitch_bend_c, 12, 8191
12, 164932, Pitch_bend_c, 12, 2378
12, 164955, Pitch_bend_c, 12, 0
12, 165023, Note_on_c, 12, 74, 0
12, 165023, End_track
0, 0, End_of_file
