0, 0, Header, 1, 14, 480
1, 0, Start_track
1, 0, MIDI_port, 0
1, 0, System_exclusive, 5, 126, 127, 9, 1, 247
1, 0, MIDI_port, 0
1, 0, System_exclusive, 10, 65, 16, 66, 18, 64, 0, 127, 0, 65, 247
1, 0, MIDI_port, 0
1, 0, Time_signature, 4, 2, 24, 8
1, 0, Key_signature, 0, "major"
1, 0, Tempo, 600000
1, 0, Marker_t, "My Mammy by Al Jolson"
1, 4, Tempo, 495868
1, 5, Tempo, 500000
1, 34887, Tempo, 606061
1, 35570, Tempo, 631579
1, 38365, Tempo, 500000
1, 38365, End_track
2, 0, Start_track
2, 0, MIDI_port, 0
2, 0, Title_t, "MINVEC UK"
2, 0, End_track
3, 0, Start_track
3, 0, MIDI_port, 0
3, 0, Title_t, "0:02:55.06"
3, 0, End_track
4, 0, Start_track
4, 0, MIDI_port, 0
4, 0, Title_t, "****** ? ******"
4, 0, End_track
5, 0, Start_track
5, 0, MIDI_port, 0
5, 0, Title_t, "TremStr "
5, 100, Control_c, 2, 121, 0
5, 195, Control_c, 2, 7, 100
5, 200, Control_c, 2, 10, 84
5, 202, Program_c, 2, 44
5, 210, Control_c, 2, 100, 0
5, 220, Control_c, 2, 101, 0
5, 222, Control_c, 2, 6, 2
5, 235, Control_c, 2, 11, 127
5, 240, Control_c, 2, 91, 70
5, 240, Control_c, 2, 93, 0
5, 3845, Note_on_c, 2, 65, 60
5, 3845, Note_on_c, 2, 77, 83
5, 4802, Note_on_c, 2, 66, 56
5, 4802, Note_on_c, 2, 78, 56
5, 4807, Note_on_c, 2, 65, 0
5, 4845, Note_on_c, 2, 77, 0
5, 5712, Note_on_c, 2, 78, 0
5, 5737, Note_on_c, 2, 66, 0
5, 5762, Note_on_c, 2, 67, 58
5, 5762, Note_on_c, 2, 79, 75
5, 6082, Note_on_c, 2, 69, 53
5, 6082, Note_on_c, 2, 81, 58
5, 6102, Note_on_c, 2, 67, 0
5, 6112, Note_on_c, 2, 79, 0
5, 6240, Note_on_c, 2, 81, 0
5, 6242, Note_on_c, 2, 70, 60
5, 6242, Note_on_c, 2, 82, 62
5, 6285, Note_on_c, 2, 69, 0
5, 6532, Note_on_c, 2, 70, 0
5, 6552, Note_on_c, 2, 82, 0
5, 6562, Note_on_c, 2, 74, 60
5, 6562, Note_on_c, 2, 86, 72
5, 6932, Note_on_c, 2, 74, 0
5, 7035, Note_on_c, 2, 86, 0
5, 7042, Note_on_c, 2, 72, 56
5, 7042, Note_on_c, 2, 84, 72
5, 7682, Note_on_c, 2, 65, 56
5, 7682, Note_on_c, 2, 77, 70
5, 7692, Note_on_c, 2, 84, 0
5, 7747, Note_on_c, 2, 72, 0
5, 8642, Note_on_c, 2, 66, 28
5, 8642, Note_on_c, 2, 78, 79
5, 8657, Note_on_c, 2, 65, 0
5, 8692, Note_on_c, 2, 77, 0
5, 9557, Note_on_c, 2, 66, 0
5, 9587, Note_on_c, 2, 78, 0
5, 9602, Note_on_c, 2, 67, 52
5, 9602, Note_on_c, 2, 79, 54
5, 9922, Note_on_c, 2, 69, 48
5, 9922, Note_on_c, 2, 81, 50
5, 9932, Note_on_c, 2, 67, 0
5, 9972, Note_on_c, 2, 79, 0
5, 10082, Note_on_c, 2, 70, 41
5, 10082, Note_on_c, 2, 82, 54
5, 10090, Note_on_c, 2, 69, 0
5, 10090, Note_on_c, 2, 81, 0
5, 10402, Note_on_c, 2, 74, 72
5, 10402, Note_on_c, 2, 86, 68
5, 10412, Note_on_c, 2, 70, 0
5, 10412, Note_on_c, 2, 82, 0
5, 10865, Note_on_c, 2, 74, 0
5, 10882, Note_on_c, 2, 72, 68
5, 10882, Note_on_c, 2, 84, 70
5, 10892, Note_on_c, 2, 86, 0
5, 11447, Note_on_c, 2, 84, 0
5, 11465, Note_on_c, 2, 72, 0
5, 11522, Note_on_c, 2, 50, 70
5, 11525, Note_on_c, 2, 65, 85
5, 12470, Note_on_c, 2, 50, 0
5, 12485, Note_on_c, 2, 49, 63
5, 12485, Note_on_c, 2, 66, 63
5, 12497, Note_on_c, 2, 65, 0
5, 13445, Note_on_c, 2, 48, 72
5, 13445, Note_on_c, 2, 67, 62
5, 13447, Note_on_c, 2, 49, 0
5, 13495, Note_on_c, 2, 66, 0
5, 14242, Note_on_c, 2, 70, 66
5, 14245, Note_on_c, 2, 82, 64
5, 14722, Note_on_c, 2, 81, 60
5, 14762, Note_on_c, 2, 82, 0
5, 14882, Note_on_c, 2, 79, 62
5, 14900, Note_on_c, 2, 81, 0
5, 15042, Note_on_c, 2, 77, 74
5, 15095, Note_on_c, 2, 79, 0
5, 15202, Note_on_c, 2, 75, 62
5, 15242, Note_on_c, 2, 67, 0
5, 15262, Note_on_c, 2, 77, 0
5, 15362, Note_on_c, 2, 41, 56
5, 15365, Note_on_c, 2, 65, 60
5, 15365, Note_on_c, 2, 69, 56
5, 15365, Note_on_c, 2, 74, 78
5, 15367, Note_on_c, 2, 48, 0
5, 15370, Note_on_c, 2, 70, 0
5, 15415, Note_on_c, 2, 75, 0
5, 16802, Note_on_c, 2, 74, 0
5, 17245, Note_on_c, 2, 41, 0
5, 17280, Note_on_c, 2, 69, 0
5, 17285, Note_on_c, 2, 46, 62
5, 17285, Note_on_c, 2, 70, 54
5, 19205, Note_on_c, 2, 50, 85
5, 19232, Note_on_c, 2, 46, 0
5, 19245, Note_on_c, 2, 70, 0
5, 20165, Note_on_c, 2, 49, 60
5, 20165, Note_on_c, 2, 66, 68
5, 20212, Note_on_c, 2, 50, 0
5, 20215, Note_on_c, 2, 65, 0
5, 21072, Note_on_c, 2, 66, 0
5, 21105, Note_on_c, 2, 49, 0
5, 21125, Note_on_c, 2, 48, 68
5, 21125, Note_on_c, 2, 67, 76
5, 21922, Note_on_c, 2, 70, 66
5, 22037, Note_on_c, 2, 67, 0
5, 22402, Note_on_c, 2, 62, 78
5, 22402, Note_on_c, 2, 79, 80
5, 22562, Note_on_c, 2, 61, 82
5, 22562, Note_on_c, 2, 78, 70
5, 22567, Note_on_c, 2, 62, 0
5, 22617, Note_on_c, 2, 79, 0
5, 22870, Note_on_c, 2, 78, 0
5, 22882, Note_on_c, 2, 62, 80
5, 22882, Note_on_c, 2, 79, 63
5, 22892, Note_on_c, 2, 61, 0
5, 23005, Note_on_c, 2, 48, 0
5, 23032, Note_on_c, 2, 70, 0
5, 23040, Text_t, "Minvec Uk"
5, 23045, Note_on_c, 2, 41, 46
5, 23045, Note_on_c, 2, 65, 52
5, 23045, Note_on_c, 2, 69, 61
5, 23047, Note_on_c, 2, 72, 74
5, 23047, Note_on_c, 2, 84, 70
5, 23062, Note_on_c, 2, 79, 0
5, 23095, Note_on_c, 2, 62, 0
5, 24887, Note_on_c, 2, 72, 0
5, 24907, Note_on_c, 2, 84, 0
5, 24947, Note_on_c, 2, 41, 0
5, 24965, Note_on_c, 2, 46, 63
5, 24965, Note_on_c, 2, 70, 66
5, 24977, Note_on_c, 2, 69, 0
5, 26882, Note_on_c, 2, 50, 76
5, 26887, Note_on_c, 2, 70, 0
5, 26912, Note_on_c, 2, 46, 0
5, 27830, Note_on_c, 2, 50, 0
5, 27842, Note_on_c, 2, 49, 62
5, 27845, Note_on_c, 2, 66, 87
5, 27857, Note_on_c, 2, 65, 0
5, 28772, Note_on_c, 2, 49, 0
5, 28802, Note_on_c, 2, 48, 68
5, 28805, Note_on_c, 2, 67, 78
5, 28830, Note_on_c, 2, 66, 0
5, 29600, Note_on_c, 2, 67, 0
5, 29602, Note_on_c, 2, 70, 64
5, 30710, Note_on_c, 2, 48, 0
5, 30717, Note_on_c, 2, 70, 0
5, 30725, Note_on_c, 2, 41, 64
5, 30725, Note_on_c, 2, 53, 45
5, 30725, Note_on_c, 2, 65, 57
5, 30727, Note_on_c, 2, 60, 22
5, 30727, Note_on_c, 2, 65, 57
5, 32640, Note_on_c, 2, 41, 0
5, 32645, Note_on_c, 2, 53, 0
5, 32645, Note_on_c, 2, 46, 64
5, 32645, Note_on_c, 2, 62, 62
5, 32692, Note_on_c, 2, 65, 0
5, 32692, Note_on_c, 2, 65, 0
5, 32695, Note_on_c, 2, 60, 0
5, 32802, Note_on_c, 2, 58, 42
5, 34507, Note_on_c, 2, 62, 0
5, 34545, Note_on_c, 2, 46, 0
5, 34565, Note_on_c, 2, 62, 85
5, 34672, Note_on_c, 2, 58, 0
5, 35487, Note_on_c, 2, 62, 0
5, 35522, Note_on_c, 2, 61, 64
5, 35522, Note_on_c, 2, 66, 68
5, 36435, Note_on_c, 2, 66, 0
5, 36482, Note_on_c, 2, 60, 72
5, 36482, Note_on_c, 2, 67, 30
5, 36485, Note_on_c, 2, 70, 85
5, 36505, Note_on_c, 2, 61, 0
5, 38550, Note_on_c, 2, 70, 0
5, 38612, Note_on_c, 2, 60, 0
5, 38662, Note_on_c, 2, 67, 0
5, 38725, Note_on_c, 2, 58, 80
5, 38727, Note_on_c, 2, 70, 93
5, 38915, Note_on_c, 2, 70, 0
5, 38930, Note_on_c, 2, 58, 0
5, 39362, Note_on_c, 2, 57, 89
5, 39365, Note_on_c, 2, 69, 100
5, 39507, Note_on_c, 2, 69, 0
5, 39555, Note_on_c, 2, 57, 0
5, 39842, Note_on_c, 2, 55, 85
5, 39845, Note_on_c, 2, 67, 107
5, 39975, Note_on_c, 2, 67, 0
5, 40030, Note_on_c, 2, 55, 0
5, 40325, Note_on_c, 2, 53, 85
5, 40325, Note_on_c, 2, 65, 100
5, 40477, Note_on_c, 2, 65, 0
5, 40565, Note_on_c, 2, 53, 0
5, 40805, Note_on_c, 2, 51, 85
5, 40805, Note_on_c, 2, 63, 105
5, 40980, Note_on_c, 2, 63, 0
5, 41032, Note_on_c, 2, 51, 0
5, 41285, Note_on_c, 2, 50, 64
5, 41285, Note_on_c, 2, 62, 107
5, 41437, Note_on_c, 2, 62, 0
5, 41532, Note_on_c, 2, 50, 0
5, 41762, Note_on_c, 2, 48, 76
5, 41765, Note_on_c, 2, 60, 102
5, 41882, Note_on_c, 2, 60, 0
5, 41952, Note_on_c, 2, 48, 0
5, 42247, Note_on_c, 2, 58, 66
5, 42247, Note_on_c, 2, 65, 66
5, 42247, Note_on_c, 2, 70, 78
5, 42247, Note_on_c, 2, 74, 87
5, 43825, Note_on_c, 2, 65, 0
5, 44122, Note_on_c, 2, 70, 0
5, 44132, Note_on_c, 2, 58, 0
5, 44162, Note_on_c, 2, 62, 70
5, 44165, Note_on_c, 2, 69, 61
5, 44165, Note_on_c, 2, 77, 74
5, 45925, Note_on_c, 2, 67, 51
5, 45925, Note_on_c, 2, 70, 66
5, 45927, Note_on_c, 2, 69, 0
5, 46050, Note_on_c, 2, 77, 0
5, 46050, Note_on_c, 2, 62, 0
5, 46052, Note_on_c, 2, 74, 0
5, 46085, Note_on_c, 2, 63, 68
5, 46085, Note_on_c, 2, 75, 60
5, 47790, Note_on_c, 2, 67, 0
5, 47915, Note_on_c, 2, 75, 0
5, 47977, Note_on_c, 2, 63, 0
5, 48002, Note_on_c, 2, 58, 60
5, 48005, Note_on_c, 2, 65, 53
5, 48005, Note_on_c, 2, 74, 72
5, 49662, Note_on_c, 2, 70, 0
5, 49685, Note_on_c, 2, 74, 0
5, 49720, Note_on_c, 2, 65, 0
5, 49735, Note_on_c, 2, 58, 0
5, 49925, Note_on_c, 2, 63, 105
5, 49925, Note_on_c, 2, 67, 78
5, 49925, Note_on_c, 2, 70, 93
5, 49927, Note_on_c, 2, 75, 98
5, 50002, Note_on_c, 2, 70, 0
5, 50002, Note_on_c, 2, 67, 0
5, 50025, Note_on_c, 2, 75, 0
5, 50027, Note_on_c, 2, 63, 0
5, 50405, Note_on_c, 2, 63, 102
5, 50405, Note_on_c, 2, 67, 85
5, 50407, Note_on_c, 2, 70, 85
5, 50407, Note_on_c, 2, 75, 85
5, 50492, Note_on_c, 2, 67, 0
5, 50495, Note_on_c, 2, 70, 0
5, 50510, Note_on_c, 2, 63, 0
5, 50527, Note_on_c, 2, 75, 0
5, 50885, Note_on_c, 2, 58, 91
5, 50885, Note_on_c, 2, 65, 82
5, 50887, Note_on_c, 2, 70, 85
5, 50887, Note_on_c, 2, 74, 91
5, 50970, Note_on_c, 2, 65, 0
5, 50975, Note_on_c, 2, 70, 0
5, 50990, Note_on_c, 2, 58, 0
5, 50992, Note_on_c, 2, 74, 0
5, 51365, Note_on_c, 2, 58, 95
5, 51365, Note_on_c, 2, 65, 76
5, 51365, Note_on_c, 2, 70, 72
5, 51367, Note_on_c, 2, 74, 85
5, 51442, Note_on_c, 2, 65, 0
5, 51457, Note_on_c, 2, 58, 0
5, 51457, Note_on_c, 2, 70, 0
5, 51465, Note_on_c, 2, 74, 0
5, 51845, Note_on_c, 2, 63, 95
5, 51845, Note_on_c, 2, 67, 64
5, 51847, Note_on_c, 2, 70, 80
5, 51847, Note_on_c, 2, 75, 70
5, 51930, Note_on_c, 2, 70, 0
5, 51930, Note_on_c, 2, 67, 0
5, 51945, Note_on_c, 2, 63, 0
5, 51952, Note_on_c, 2, 75, 0
5, 52325, Note_on_c, 2, 63, 102
5, 52325, Note_on_c, 2, 67, 78
5, 52327, Note_on_c, 2, 70, 78
5, 52327, Note_on_c, 2, 75, 78
5, 52405, Note_on_c, 2, 67, 0
5, 52417, Note_on_c, 2, 70, 0
5, 52442, Note_on_c, 2, 63, 0
5, 52452, Note_on_c, 2, 75, 0
5, 52805, Note_on_c, 2, 58, 95
5, 52805, Note_on_c, 2, 65, 82
5, 52807, Note_on_c, 2, 70, 80
5, 52807, Note_on_c, 2, 74, 85
5, 52895, Note_on_c, 2, 65, 0
5, 52917, Note_on_c, 2, 70, 0
5, 52932, Note_on_c, 2, 74, 0
5, 52935, Note_on_c, 2, 58, 0
5, 53285, Note_on_c, 2, 58, 82
5, 53287, Note_on_c, 2, 65, 70
5, 53287, Note_on_c, 2, 70, 87
5, 53290, Note_on_c, 2, 74, 89
5, 53365, Note_on_c, 2, 65, 0
5, 53400, Note_on_c, 2, 70, 0
5, 53402, Note_on_c, 2, 58, 0
5, 53405, Note_on_c, 2, 74, 0
5, 53765, Note_on_c, 2, 63, 82
5, 53765, Note_on_c, 2, 67, 78
5, 53765, Note_on_c, 2, 70, 85
5, 53767, Note_on_c, 2, 75, 82
5, 53820, Note_on_c, 2, 67, 0
5, 53842, Note_on_c, 2, 70, 0
5, 53862, Note_on_c, 2, 63, 0
5, 53865, Note_on_c, 2, 75, 0
5, 54245, Note_on_c, 2, 63, 100
5, 54245, Note_on_c, 2, 67, 85
5, 54247, Note_on_c, 2, 70, 78
5, 54247, Note_on_c, 2, 75, 80
5, 54330, Note_on_c, 2, 67, 0
5, 54337, Note_on_c, 2, 70, 0
5, 54350, Note_on_c, 2, 63, 0
5, 54360, Note_on_c, 2, 75, 0
5, 54727, Note_on_c, 2, 58, 89
5, 54730, Note_on_c, 2, 65, 66
5, 54732, Note_on_c, 2, 70, 80
5, 54732, Note_on_c, 2, 74, 87
5, 54787, Note_on_c, 2, 65, 0
5, 54810, Note_on_c, 2, 70, 0
5, 54825, Note_on_c, 2, 74, 0
5, 54837, Note_on_c, 2, 58, 0
5, 55205, Note_on_c, 2, 58, 74
5, 55205, Note_on_c, 2, 65, 78
5, 55205, Note_on_c, 2, 70, 80
5, 55205, Note_on_c, 2, 74, 85
5, 55300, Note_on_c, 2, 65, 0
5, 55302, Note_on_c, 2, 70, 0
5, 55340, Note_on_c, 2, 74, 0
5, 55342, Note_on_c, 2, 58, 0
5, 55685, Note_on_c, 2, 55, 87
5, 55685, Note_on_c, 2, 65, 66
5, 55687, Note_on_c, 2, 67, 85
5, 55687, Note_on_c, 2, 70, 66
5, 55687, Note_on_c, 2, 74, 85
5, 55757, Note_on_c, 2, 70, 0
5, 55760, Note_on_c, 2, 65, 0
5, 55777, Note_on_c, 2, 67, 0
5, 55782, Note_on_c, 2, 55, 0
5, 55785, Note_on_c, 2, 74, 0
5, 56165, Note_on_c, 2, 55, 100
5, 56165, Note_on_c, 2, 65, 85
5, 56167, Note_on_c, 2, 67, 93
5, 56167, Note_on_c, 2, 70, 82
5, 56167, Note_on_c, 2, 74, 89
5, 56235, Note_on_c, 2, 70, 0
5, 56235, Note_on_c, 2, 65, 0
5, 56262, Note_on_c, 2, 74, 0
5, 56262, Note_on_c, 2, 67, 0
5, 56295, Note_on_c, 2, 55, 0
5, 56645, Note_on_c, 2, 53, 98
5, 56647, Note_on_c, 2, 65, 82
5, 56647, Note_on_c, 2, 69, 87
5, 56647, Note_on_c, 2, 72, 95
5, 56725, Note_on_c, 2, 65, 0
5, 56732, Note_on_c, 2, 69, 0
5, 56737, Note_on_c, 2, 72, 0
5, 56770, Note_on_c, 2, 53, 0
5, 57122, Note_on_c, 2, 53, 102
5, 57125, Note_on_c, 2, 65, 78
5, 57125, Note_on_c, 2, 69, 87
5, 57127, Note_on_c, 2, 72, 95
5, 57152, Note_on_c, 2, 65, 0
5, 57165, Note_on_c, 2, 69, 0
5, 57170, Note_on_c, 2, 72, 0
5, 57185, Note_on_c, 2, 53, 0
5, 57607, Note_on_c, 2, 62, 44
5, 57607, Note_on_c, 2, 78, 57
5, 61222, Note_on_c, 2, 78, 0
5, 61285, Note_on_c, 2, 55, 38
5, 61285, Note_on_c, 2, 59, 46
5, 61285, Note_on_c, 2, 71, 56
5, 61285, Note_on_c, 2, 77, 27
5, 65122, Note_on_c, 2, 60, 58
5, 65122, Note_on_c, 2, 72, 64
5, 65145, Note_on_c, 2, 77, 0
5, 65152, Note_on_c, 2, 62, 0
5, 65210, Note_on_c, 2, 59, 0
5, 65285, Note_on_c, 2, 64, 68
5, 65292, Note_on_c, 2, 71, 0
5, 65292, Note_on_c, 2, 76, 51
5, 66977, Note_on_c, 2, 60, 0
5, 67045, Note_on_c, 2, 64, 0
5, 67090, Note_on_c, 2, 72, 0
5, 67115, Note_on_c, 2, 55, 0
5, 67202, Note_on_c, 2, 58, 53
5, 67202, Note_on_c, 2, 62, 57
5, 67205, Note_on_c, 2, 70, 70
5, 67205, Note_on_c, 2, 74, 64
5, 67212, Note_on_c, 2, 76, 0
5, 68990, Note_on_c, 2, 62, 0
5, 69075, Note_on_c, 2, 58, 0
5, 69122, Note_on_c, 2, 60, 60
5, 69125, Note_on_c, 2, 64, 55
5, 69125, Note_on_c, 2, 67, 51
5, 69125, Note_on_c, 2, 72, 59
5, 69125, Note_on_c, 2, 76, 57
5, 69130, Note_on_c, 2, 70, 0
5, 69132, Note_on_c, 2, 74, 0
5, 70957, Note_on_c, 2, 67, 0
5, 71012, Note_on_c, 2, 64, 0
5, 71025, Note_on_c, 2, 60, 0
5, 71045, Note_on_c, 2, 53, 52
5, 71045, Note_on_c, 2, 57, 46
5, 71045, Note_on_c, 2, 69, 57
5, 71055, Note_on_c, 2, 76, 0
5, 72892, Note_on_c, 2, 53, 0
5, 72902, Note_on_c, 2, 57, 0
5, 72915, Note_on_c, 2, 72, 0
5, 72917, Note_on_c, 2, 69, 0
5, 72967, Note_on_c, 2, 58, 60
5, 72967, Note_on_c, 2, 62, 85
5, 72967, Note_on_c, 2, 65, 89
5, 73052, Note_on_c, 2, 65, 0
5, 73055, Note_on_c, 2, 62, 0
5, 73057, Note_on_c, 2, 58, 0
5, 73445, Note_on_c, 2, 58, 70
5, 73445, Note_on_c, 2, 62, 85
5, 73445, Note_on_c, 2, 65, 89
5, 73530, Note_on_c, 2, 62, 0
5, 73537, Note_on_c, 2, 65, 0
5, 73547, Note_on_c, 2, 58, 0
5, 73925, Note_on_c, 2, 58, 66
5, 73925, Note_on_c, 2, 62, 85
5, 73925, Note_on_c, 2, 65, 87
5, 74010, Note_on_c, 2, 62, 0
5, 74015, Note_on_c, 2, 65, 0
5, 74027, Note_on_c, 2, 58, 0
5, 74402, Note_on_c, 2, 58, 66
5, 74405, Note_on_c, 2, 62, 78
5, 74405, Note_on_c, 2, 65, 78
5, 74480, Note_on_c, 2, 62, 0
5, 74505, Note_on_c, 2, 65, 0
5, 74515, Note_on_c, 2, 58, 0
5, 74885, Note_on_c, 2, 58, 57
5, 74885, Note_on_c, 2, 62, 66
5, 74885, Note_on_c, 2, 65, 74
5, 74957, Note_on_c, 2, 62, 0
5, 74967, Note_on_c, 2, 58, 0
5, 74975, Note_on_c, 2, 65, 0
5, 75365, Note_on_c, 2, 58, 87
5, 75365, Note_on_c, 2, 62, 64
5, 75365, Note_on_c, 2, 65, 78
5, 75455, Note_on_c, 2, 62, 0
5, 75455, Note_on_c, 2, 58, 0
5, 75460, Note_on_c, 2, 65, 0
5, 75845, Note_on_c, 2, 58, 64
5, 75845, Note_on_c, 2, 62, 82
5, 75845, Note_on_c, 2, 65, 82
5, 75922, Note_on_c, 2, 58, 0
5, 75927, Note_on_c, 2, 62, 0
5, 75937, Note_on_c, 2, 65, 0
5, 76325, Note_on_c, 2, 58, 63
5, 76325, Note_on_c, 2, 62, 87
5, 76325, Note_on_c, 2, 65, 91
5, 76390, Note_on_c, 2, 62, 0
5, 76400, Note_on_c, 2, 58, 0
5, 76402, Note_on_c, 2, 65, 0
5, 76805, Note_on_c, 2, 58, 82
5, 76805, Note_on_c, 2, 62, 85
5, 76805, Note_on_c, 2, 65, 89
5, 76870, Note_on_c, 2, 62, 0
5, 76887, Note_on_c, 2, 65, 0
5, 76892, Note_on_c, 2, 58, 0
5, 77285, Note_on_c, 2, 58, 85
5, 77285, Note_on_c, 2, 62, 87
5, 77285, Note_on_c, 2, 65, 87
5, 77355, Note_on_c, 2, 62, 0
5, 77362, Note_on_c, 2, 65, 0
5, 77375, Note_on_c, 2, 58, 0
5, 77765, Note_on_c, 2, 58, 91
5, 77765, Note_on_c, 2, 62, 89
5, 77765, Note_on_c, 2, 65, 89
5, 77842, Note_on_c, 2, 62, 0
5, 77850, Note_on_c, 2, 65, 0
5, 77857, Note_on_c, 2, 58, 0
5, 78245, Note_on_c, 2, 58, 85
5, 78245, Note_on_c, 2, 62, 82
5, 78245, Note_on_c, 2, 65, 82
5, 78315, Note_on_c, 2, 62, 0
5, 78332, Note_on_c, 2, 65, 0
5, 78332, Note_on_c, 2, 58, 0
5, 78725, Note_on_c, 2, 58, 82
5, 78725, Note_on_c, 2, 62, 72
5, 78725, Note_on_c, 2, 65, 85
5, 78800, Note_on_c, 2, 62, 0
5, 78820, Note_on_c, 2, 65, 0
5, 78822, Note_on_c, 2, 58, 0
5, 79205, Note_on_c, 2, 58, 61
5, 79205, Note_on_c, 2, 62, 78
5, 79205, Note_on_c, 2, 65, 89
5, 79280, Note_on_c, 2, 62, 0
5, 79290, Note_on_c, 2, 65, 0
5, 79312, Note_on_c, 2, 58, 0
5, 79685, Note_on_c, 2, 58, 72
5, 79685, Note_on_c, 2, 62, 72
5, 79685, Note_on_c, 2, 65, 80
5, 79760, Note_on_c, 2, 62, 0
5, 79777, Note_on_c, 2, 65, 0
5, 79805, Note_on_c, 2, 58, 0
5, 80165, Note_on_c, 2, 58, 60
5, 80165, Note_on_c, 2, 62, 80
5, 80165, Note_on_c, 2, 65, 85
5, 80250, Note_on_c, 2, 62, 0
5, 80262, Note_on_c, 2, 65, 0
5, 80285, Note_on_c, 2, 58, 0
5, 80642, Note_on_c, 2, 58, 53
5, 80645, Note_on_c, 2, 63, 57
5, 80645, Note_on_c, 2, 67, 87
5, 80737, Note_on_c, 2, 67, 0
5, 80755, Note_on_c, 2, 63, 0
5, 80775, Note_on_c, 2, 58, 0
5, 81125, Note_on_c, 2, 58, 46
5, 81125, Note_on_c, 2, 63, 64
5, 81125, Note_on_c, 2, 67, 87
5, 81217, Note_on_c, 2, 67, 0
5, 81220, Note_on_c, 2, 63, 0
5, 81237, Note_on_c, 2, 58, 0
5, 81605, Note_on_c, 2, 58, 49
5, 81605, Note_on_c, 2, 63, 68
5, 81605, Note_on_c, 2, 67, 85
5, 81705, Note_on_c, 2, 67, 0
5, 81707, Note_on_c, 2, 63, 0
5, 81710, Note_on_c, 2, 58, 0
5, 82085, Note_on_c, 2, 58, 57
5, 82085, Note_on_c, 2, 63, 63
5, 82085, Note_on_c, 2, 67, 82
5, 82177, Note_on_c, 2, 63, 0
5, 82192, Note_on_c, 2, 67, 0
5, 82207, Note_on_c, 2, 58, 0
5, 82562, Note_on_c, 2, 58, 60
5, 82565, Note_on_c, 2, 63, 58
5, 82565, Note_on_c, 2, 67, 82
5, 82657, Note_on_c, 2, 63, 0
5, 82662, Note_on_c, 2, 67, 0
5, 82692, Note_on_c, 2, 58, 0
5, 83045, Note_on_c, 2, 58, 52
5, 83045, Note_on_c, 2, 63, 66
5, 83045, Note_on_c, 2, 67, 85
5, 83137, Note_on_c, 2, 63, 0
5, 83155, Note_on_c, 2, 67, 0
5, 83157, Note_on_c, 2, 58, 0
5, 83525, Note_on_c, 2, 63, 70
5, 83525, Note_on_c, 2, 67, 70
5, 83627, Note_on_c, 2, 63, 0
5, 83632, Note_on_c, 2, 67, 0
5, 84005, Note_on_c, 2, 58, 57
5, 84005, Note_on_c, 2, 63, 72
5, 84005, Note_on_c, 2, 67, 85
5, 84105, Note_on_c, 2, 67, 0
5, 84110, Note_on_c, 2, 63, 0
5, 84120, Note_on_c, 2, 58, 0
5, 84485, Note_on_c, 2, 60, 57
5, 84485, Note_on_c, 2, 63, 55
5, 84485, Note_on_c, 2, 67, 80
5, 84487, Note_on_c, 2, 70, 68
5, 85870, Note_on_c, 2, 67, 0
5, 85927, Note_on_c, 2, 67, 76
5, 85940, Note_on_c, 2, 70, 0
5, 86402, Note_on_c, 2, 65, 50
5, 86405, Note_on_c, 2, 69, 63
5, 86415, Note_on_c, 2, 63, 0
5, 86417, Note_on_c, 2, 67, 0
5, 88167, Note_on_c, 2, 65, 0
5, 88185, Note_on_c, 2, 69, 0
5, 88237, Note_on_c, 2, 60, 0
5, 88327, Note_on_c, 2, 58, 91
5, 88327, Note_on_c, 2, 70, 64
5, 88330, Note_on_c, 2, 74, 78
5, 89262, Note_on_c, 2, 58, 0
5, 89282, Note_on_c, 2, 53, 85
5, 89757, Note_on_c, 2, 53, 0
5, 89762, Note_on_c, 2, 58, 60
5, 90237, Note_on_c, 2, 70, 0
5, 90245, Note_on_c, 2, 62, 80
5, 90247, Note_on_c, 2, 69, 72
5, 90247, Note_on_c, 2, 77, 80
5, 90257, Note_on_c, 2, 58, 0
5, 92107, Note_on_c, 2, 74, 0
5, 92122, Note_on_c, 2, 62, 0
5, 92130, Note_on_c, 2, 69, 0
5, 92132, Note_on_c, 2, 77, 0
5, 92165, Note_on_c, 2, 63, 89
5, 92165, Note_on_c, 2, 70, 76
5, 92167, Note_on_c, 2, 75, 76
5, 94032, Note_on_c, 2, 63, 0
5, 94077, Note_on_c, 2, 75, 0
5, 94085, Note_on_c, 2, 58, 85
5, 94085, Note_on_c, 2, 65, 80
5, 94087, Note_on_c, 2, 74, 70
5, 95642, Note_on_c, 2, 74, 0
5, 95707, Note_on_c, 2, 58, 0
5, 95712, Note_on_c, 2, 65, 0
5, 95747, Note_on_c, 2, 70, 0
5, 96005, Note_on_c, 2, 63, 82
5, 96005, Note_on_c, 2, 70, 85
5, 96005, Note_on_c, 2, 75, 89
5, 96007, Note_on_c, 2, 79, 87
5, 96882, Note_on_c, 2, 75, 0
5, 96922, Note_on_c, 2, 63, 0
5, 96965, Note_on_c, 2, 64, 82
5, 96965, Note_on_c, 2, 76, 85
5, 97822, Note_on_c, 2, 76, 0
5, 97880, Note_on_c, 2, 64, 0
5, 97925, Note_on_c, 2, 65, 89
5, 97925, Note_on_c, 2, 77, 85
5, 98865, Note_on_c, 2, 79, 0
5, 98885, Note_on_c, 2, 58, 60
5, 98885, Note_on_c, 2, 74, 85
5, 98937, Note_on_c, 2, 65, 0
5, 99562, Note_on_c, 2, 74, 0
5, 99770, Note_on_c, 2, 58, 0
5, 99807, Note_on_c, 2, 77, 0
5, 99850, Note_on_c, 2, 60, 87
5, 99850, Note_on_c, 2, 67, 87
5, 99852, Note_on_c, 2, 72, 87
5, 99852, Note_on_c, 2, 76, 87
5, 101652, Note_on_c, 2, 67, 0
5, 101682, Note_on_c, 2, 60, 0
5, 101690, Note_on_c, 2, 70, 0
5, 101705, Note_on_c, 2, 72, 0
5, 101727, Note_on_c, 2, 76, 0
5, 101765, Note_on_c, 2, 58, 76
5, 101765, Note_on_c, 2, 65, 76
5, 101765, Note_on_c, 2, 70, 80
5, 101767, Note_on_c, 2, 74, 70
5, 102137, Note_on_c, 2, 65, 0
5, 102225, Note_on_c, 2, 70, 0
5, 102232, Note_on_c, 2, 58, 0
5, 102242, Note_on_c, 2, 53, 91
5, 102245, Note_on_c, 2, 65, 110
5, 102250, Note_on_c, 2, 74, 0
5, 102282, Channel_aftertouch_c, 2, 83
5, 102375, Channel_aftertouch_c, 2, 0
5, 102692, Note_on_c, 2, 53, 0
5, 102720, Note_on_c, 2, 65, 0
5, 102722, Note_on_c, 2, 55, 98
5, 102722, Note_on_c, 2, 67, 100
5, 103197, Note_on_c, 2, 67, 0
5, 103202, Note_on_c, 2, 57, 102
5, 103205, Note_on_c, 2, 69, 100
5, 103215, Note_on_c, 2, 55, 0
5, 103547, Note_on_c, 2, 69, 0
5, 103582, Note_on_c, 2, 57, 0
5, 103685, Note_on_c, 2, 58, 45
5, 103685, Note_on_c, 2, 62, 61
5, 103687, Note_on_c, 2, 65, 64
5, 105442, Note_on_c, 2, 69, 51
5, 105545, Note_on_c, 2, 58, 0
5, 107245, Note_on_c, 2, 69, 0
5, 107362, Note_on_c, 2, 67, 47
5, 107520, Note_on_c, 2, 65, 0
5, 107522, Note_on_c, 2, 63, 54
5, 107522, Note_on_c, 2, 70, 70
5, 107535, Note_on_c, 2, 62, 0
5, 109245, Note_on_c, 2, 67, 0
5, 109407, Note_on_c, 2, 63, 0
5, 109442, Note_on_c, 2, 58, 47
5, 109445, Note_on_c, 2, 62, 37
5, 109445, Note_on_c, 2, 65, 52
5, 111152, Note_on_c, 2, 62, 0
5, 111202, Note_on_c, 2, 70, 0
5, 111217, Note_on_c, 2, 58, 0
5, 111237, Note_on_c, 2, 65, 0
5, 111365, Note_on_c, 2, 63, 98
5, 111365, Note_on_c, 2, 67, 66
5, 111365, Note_on_c, 2, 70, 85
5, 111367, Note_on_c, 2, 75, 93
5, 111415, Note_on_c, 2, 67, 0
5, 111430, Note_on_c, 2, 70, 0
5, 111460, Note_on_c, 2, 75, 0
5, 111470, Note_on_c, 2, 63, 0
5, 111845, Note_on_c, 2, 63, 100
5, 111845, Note_on_c, 2, 67, 70
5, 111845, Note_on_c, 2, 70, 87
5, 111847, Note_on_c, 2, 75, 87
5, 111932, Note_on_c, 2, 70, 0
5, 111937, Note_on_c, 2, 67, 0
5, 111962, Note_on_c, 2, 75, 0
5, 111970, Note_on_c, 2, 63, 0
5, 112325, Note_on_c, 2, 58, 82
5, 112325, Note_on_c, 2, 65, 80
5, 112325, Note_on_c, 2, 70, 82
5, 112327, Note_on_c, 2, 74, 91
5, 112412, Note_on_c, 2, 74, 0
5, 112415, Note_on_c, 2, 65, 0
5, 112430, Note_on_c, 2, 70, 0
5, 112460, Note_on_c, 2, 58, 0
5, 113285, Note_on_c, 2, 63, 105
5, 113285, Note_on_c, 2, 67, 87
5, 113285, Note_on_c, 2, 70, 89
5, 113285, Note_on_c, 2, 75, 93
5, 113350, Note_on_c, 2, 70, 0
5, 113365, Note_on_c, 2, 67, 0
5, 113402, Note_on_c, 2, 63, 0
5, 113405, Note_on_c, 2, 75, 0
5, 113765, Note_on_c, 2, 63, 95
5, 113765, Note_on_c, 2, 67, 82
5, 113765, Note_on_c, 2, 70, 87
5, 113765, Note_on_c, 2, 75, 95
5, 113852, Note_on_c, 2, 70, 0
5, 113855, Note_on_c, 2, 67, 0
5, 113887, Note_on_c, 2, 75, 0
5, 113902, Note_on_c, 2, 63, 0
5, 114245, Note_on_c, 2, 58, 85
5, 114245, Note_on_c, 2, 65, 87
5, 114245, Note_on_c, 2, 70, 87
5, 114247, Note_on_c, 2, 74, 93
5, 114327, Note_on_c, 2, 65, 0
5, 114355, Note_on_c, 2, 70, 0
5, 114362, Note_on_c, 2, 58, 0
5, 114375, Note_on_c, 2, 74, 0
5, 115205, Note_on_c, 2, 63, 105
5, 115205, Note_on_c, 2, 67, 85
5, 115207, Note_on_c, 2, 70, 85
5, 115207, Note_on_c, 2, 75, 82
5, 115272, Note_on_c, 2, 70, 0
5, 115290, Note_on_c, 2, 67, 0
5, 115317, Note_on_c, 2, 75, 0
5, 115330, Note_on_c, 2, 63, 0
5, 115685, Note_on_c, 2, 63, 105
5, 115685, Note_on_c, 2, 67, 87
5, 115685, Note_on_c, 2, 70, 87
5, 115687, Note_on_c, 2, 75, 80
5, 115785, Note_on_c, 2, 67, 0
5, 115787, Note_on_c, 2, 70, 0
5, 115815, Note_on_c, 2, 63, 0
5, 115822, Note_on_c, 2, 75, 0
5, 116165, Note_on_c, 2, 58, 102
5, 116165, Note_on_c, 2, 65, 80
5, 116167, Note_on_c, 2, 70, 85
5, 116167, Note_on_c, 2, 74, 95
5, 116265, Note_on_c, 2, 65, 0
5, 116275, Note_on_c, 2, 70, 0
5, 116297, Note_on_c, 2, 74, 0
5, 116300, Note_on_c, 2, 58, 0
5, 117125, Note_on_c, 2, 55, 51
5, 117125, Note_on_c, 2, 67, 60
5, 117125, Note_on_c, 2, 70, 74
5, 118062, Note_on_c, 2, 70, 0
5, 118085, Note_on_c, 2, 53, 82
5, 118085, Note_on_c, 2, 65, 66
5, 118085, Note_on_c, 2, 69, 76
5, 118152, Note_on_c, 2, 67, 0
5, 118235, Note_on_c, 2, 55, 0
5, 118880, Note_on_c, 2, 65, 0
5, 118895, Note_on_c, 2, 69, 0
5, 118937, Note_on_c, 2, 53, 0
5, 119047, Note_on_c, 2, 62, 44
5, 119047, Note_on_c, 2, 78, 57
5, 122662, Note_on_c, 2, 78, 0
5, 122722, Note_on_c, 2, 55, 38
5, 122725, Note_on_c, 2, 59, 46
5, 122725, Note_on_c, 2, 71, 56
5, 122725, Note_on_c, 2, 77, 27
5, 126562, Note_on_c, 2, 60, 58
5, 126562, Note_on_c, 2, 72, 64
5, 126585, Note_on_c, 2, 77, 0
5, 126590, Note_on_c, 2, 62, 0
5, 126650, Note_on_c, 2, 59, 0
5, 126725, Note_on_c, 2, 64, 68
5, 126730, Note_on_c, 2, 71, 0
5, 126732, Note_on_c, 2, 76, 51
5, 128417, Note_on_c, 2, 60, 0
5, 128485, Note_on_c, 2, 64, 0
5, 128530, Note_on_c, 2, 72, 0
5, 128555, Note_on_c, 2, 55, 0
5, 128642, Note_on_c, 2, 58, 53
5, 128645, Note_on_c, 2, 62, 57
5, 128645, Note_on_c, 2, 70, 70
5, 128645, Note_on_c, 2, 74, 64
5, 128652, Note_on_c, 2, 76, 0
5, 130430, Note_on_c, 2, 62, 0
5, 130515, Note_on_c, 2, 58, 0
5, 130562, Note_on_c, 2, 60, 60
5, 130565, Note_on_c, 2, 64, 55
5, 130565, Note_on_c, 2, 67, 51
5, 130565, Note_on_c, 2, 72, 59
5, 130565, Note_on_c, 2, 76, 57
5, 130570, Note_on_c, 2, 74, 0
5, 130570, Note_on_c, 2, 70, 0
5, 132400, Note_on_c, 2, 67, 0
5, 132452, Note_on_c, 2, 64, 0
5, 132467, Note_on_c, 2, 60, 0
5, 132485, Note_on_c, 2, 53, 52
5, 132485, Note_on_c, 2, 57, 46
5, 132485, Note_on_c, 2, 69, 57
5, 132495, Note_on_c, 2, 76, 0
5, 134335, Note_on_c, 2, 53, 0
5, 134342, Note_on_c, 2, 57, 0
5, 134355, Note_on_c, 2, 72, 0
5, 134360, Note_on_c, 2, 69, 0
5, 134407, Note_on_c, 2, 58, 60
5, 134407, Note_on_c, 2, 62, 85
5, 134407, Note_on_c, 2, 65, 89
5, 134492, Note_on_c, 2, 65, 0
5, 134495, Note_on_c, 2, 62, 0
5, 134497, Note_on_c, 2, 58, 0
5, 134885, Note_on_c, 2, 58, 70
5, 134885, Note_on_c, 2, 62, 85
5, 134885, Note_on_c, 2, 65, 89
5, 134970, Note_on_c, 2, 62, 0
5, 134977, Note_on_c, 2, 65, 0
5, 134987, Note_on_c, 2, 58, 0
5, 135365, Note_on_c, 2, 58, 66
5, 135365, Note_on_c, 2, 62, 85
5, 135365, Note_on_c, 2, 65, 87
5, 135450, Note_on_c, 2, 62, 0
5, 135455, Note_on_c, 2, 65, 0
5, 135467, Note_on_c, 2, 58, 0
5, 135845, Note_on_c, 2, 58, 66
5, 135845, Note_on_c, 2, 62, 78
5, 135845, Note_on_c, 2, 65, 78
5, 135920, Note_on_c, 2, 62, 0
5, 135945, Note_on_c, 2, 65, 0
5, 135955, Note_on_c, 2, 58, 0
5, 136325, Note_on_c, 2, 58, 57
5, 136325, Note_on_c, 2, 62, 66
5, 136325, Note_on_c, 2, 65, 74
5, 136397, Note_on_c, 2, 62, 0
5, 136407, Note_on_c, 2, 58, 0
5, 136415, Note_on_c, 2, 65, 0
5, 136805, Note_on_c, 2, 58, 87
5, 136805, Note_on_c, 2, 62, 64
5, 136805, Note_on_c, 2, 65, 78
5, 136895, Note_on_c, 2, 62, 0
5, 136897, Note_on_c, 2, 58, 0
5, 136900, Note_on_c, 2, 65, 0
5, 137285, Note_on_c, 2, 58, 64
5, 137285, Note_on_c, 2, 62, 82
5, 137285, Note_on_c, 2, 65, 82
5, 137362, Note_on_c, 2, 58, 0
5, 137367, Note_on_c, 2, 62, 0
5, 137377, Note_on_c, 2, 65, 0
5, 137765, Note_on_c, 2, 58, 63
5, 137765, Note_on_c, 2, 62, 87
5, 137765, Note_on_c, 2, 65, 91
5, 137827, Note_on_c, 2, 62, 0
5, 137837, Note_on_c, 2, 58, 0
5, 137842, Note_on_c, 2, 65, 0
5, 138245, Note_on_c, 2, 58, 82
5, 138245, Note_on_c, 2, 62, 85
5, 138245, Note_on_c, 2, 65, 89
5, 138312, Note_on_c, 2, 62, 0
5, 138327, Note_on_c, 2, 65, 0
5, 138332, Note_on_c, 2, 58, 0
5, 138725, Note_on_c, 2, 58, 85
5, 138725, Note_on_c, 2, 62, 87
5, 138725, Note_on_c, 2, 65, 87
5, 138795, Note_on_c, 2, 62, 0
5, 138802, Note_on_c, 2, 65, 0
5, 138812, Note_on_c, 2, 58, 0
5, 139205, Note_on_c, 2, 58, 91
5, 139205, Note_on_c, 2, 62, 89
5, 139205, Note_on_c, 2, 65, 89
5, 139282, Note_on_c, 2, 62, 0
5, 139290, Note_on_c, 2, 65, 0
5, 139297, Note_on_c, 2, 58, 0
5, 139685, Note_on_c, 2, 58, 85
5, 139685, Note_on_c, 2, 62, 82
5, 139685, Note_on_c, 2, 65, 82
5, 139755, Note_on_c, 2, 62, 0
5, 139772, Note_on_c, 2, 65, 0
5, 139775, Note_on_c, 2, 58, 0
5, 140165, Note_on_c, 2, 58, 82
5, 140165, Note_on_c, 2, 62, 72
5, 140165, Note_on_c, 2, 65, 85
5, 140240, Note_on_c, 2, 62, 0
5, 140260, Note_on_c, 2, 65, 0
5, 140262, Note_on_c, 2, 58, 0
5, 140645, Note_on_c, 2, 58, 61
5, 140645, Note_on_c, 2, 62, 78
5, 140645, Note_on_c, 2, 65, 89
5, 140720, Note_on_c, 2, 62, 0
5, 140727, Note_on_c, 2, 65, 0
5, 140752, Note_on_c, 2, 58, 0
5, 141125, Note_on_c, 2, 58, 72
5, 141125, Note_on_c, 2, 62, 72
5, 141125, Note_on_c, 2, 65, 80
5, 141200, Note_on_c, 2, 62, 0
5, 141217, Note_on_c, 2, 65, 0
5, 141245, Note_on_c, 2, 58, 0
5, 141605, Note_on_c, 2, 58, 60
5, 141605, Note_on_c, 2, 62, 80
5, 141605, Note_on_c, 2, 65, 85
5, 141690, Note_on_c, 2, 62, 0
5, 141702, Note_on_c, 2, 65, 0
5, 141725, Note_on_c, 2, 58, 0
5, 142085, Note_on_c, 2, 58, 53
5, 142085, Note_on_c, 2, 63, 57
5, 142085, Note_on_c, 2, 67, 87
5, 142177, Note_on_c, 2, 67, 0
5, 142195, Note_on_c, 2, 63, 0
5, 142215, Note_on_c, 2, 58, 0
5, 142565, Note_on_c, 2, 58, 46
5, 142565, Note_on_c, 2, 63, 64
5, 142565, Note_on_c, 2, 67, 87
5, 142657, Note_on_c, 2, 67, 0
5, 142660, Note_on_c, 2, 63, 0
5, 142680, Note_on_c, 2, 58, 0
5, 143045, Note_on_c, 2, 58, 49
5, 143045, Note_on_c, 2, 63, 68
5, 143045, Note_on_c, 2, 67, 85
5, 143145, Note_on_c, 2, 67, 0
5, 143147, Note_on_c, 2, 63, 0
5, 143150, Note_on_c, 2, 58, 0
5, 143525, Note_on_c, 2, 58, 57
5, 143525, Note_on_c, 2, 63, 63
5, 143525, Note_on_c, 2, 67, 82
5, 143617, Note_on_c, 2, 63, 0
5, 143632, Note_on_c, 2, 67, 0
5, 143647, Note_on_c, 2, 58, 0
5, 144005, Note_on_c, 2, 58, 60
5, 144005, Note_on_c, 2, 63, 58
5, 144005, Note_on_c, 2, 67, 82
5, 144097, Note_on_c, 2, 63, 0
5, 144102, Note_on_c, 2, 67, 0
5, 144132, Note_on_c, 2, 58, 0
5, 144485, Note_on_c, 2, 58, 52
5, 144485, Note_on_c, 2, 63, 66
5, 144485, Note_on_c, 2, 67, 85
5, 144580, Note_on_c, 2, 63, 0
5, 144595, Note_on_c, 2, 67, 0
5, 144597, Note_on_c, 2, 58, 0
5, 144965, Note_on_c, 2, 63, 70
5, 144965, Note_on_c, 2, 67, 70
5, 145067, Note_on_c, 2, 63, 0
5, 145072, Note_on_c, 2, 67, 0
5, 145445, Note_on_c, 2, 58, 57
5, 145445, Note_on_c, 2, 63, 72
5, 145445, Note_on_c, 2, 67, 85
5, 145545, Note_on_c, 2, 67, 0
5, 145550, Note_on_c, 2, 63, 0
5, 145560, Note_on_c, 2, 58, 0
5, 145925, Note_on_c, 2, 60, 57
5, 145925, Note_on_c, 2, 63, 55
5, 145925, Note_on_c, 2, 67, 80
5, 145925, Note_on_c, 2, 70, 68
5, 147310, Note_on_c, 2, 67, 0
5, 147365, Note_on_c, 2, 67, 76
5, 147375, Note_on_c, 2, 70, 0
5, 147845, Note_on_c, 2, 65, 50
5, 147845, Note_on_c, 2, 69, 63
5, 147857, Note_on_c, 2, 67, 0
5, 147857, Note_on_c, 2, 63, 0
5, 149607, Note_on_c, 2, 65, 0
5, 149625, Note_on_c, 2, 69, 0
5, 149677, Note_on_c, 2, 60, 0
5, 149767, Note_on_c, 2, 58, 85
5, 149767, Note_on_c, 2, 70, 74
5, 149767, Note_on_c, 2, 74, 68
5, 149770, Note_on_c, 2, 77, 64
5, 149840, Note_on_c, 2, 70, 0
5, 149842, Note_on_c, 2, 74, 0
5, 149870, Note_on_c, 2, 58, 0
5, 149870, Note_on_c, 2, 77, 0
5, 150245, Note_on_c, 2, 58, 80
5, 150245, Note_on_c, 2, 70, 80
5, 150247, Note_on_c, 2, 77, 76
5, 150330, Note_on_c, 2, 70, 0
5, 150350, Note_on_c, 2, 77, 0
5, 150355, Note_on_c, 2, 58, 0
5, 150725, Note_on_c, 2, 58, 72
5, 150725, Note_on_c, 2, 70, 72
5, 150727, Note_on_c, 2, 77, 82
5, 150802, Note_on_c, 2, 70, 0
5, 150835, Note_on_c, 2, 77, 0
5, 150842, Note_on_c, 2, 58, 0
5, 151205, Note_on_c, 2, 58, 66
5, 151205, Note_on_c, 2, 70, 85
5, 151205, Note_on_c, 2, 77, 80
5, 151292, Note_on_c, 2, 70, 0
5, 151307, Note_on_c, 2, 77, 0
5, 151322, Note_on_c, 2, 58, 0
5, 151685, Note_on_c, 2, 62, 78
5, 151685, Note_on_c, 2, 74, 87
5, 151685, Note_on_c, 2, 77, 66
5, 151775, Note_on_c, 2, 74, 0
5, 151785, Note_on_c, 2, 77, 0
5, 151787, Note_on_c, 2, 62, 0
5, 152165, Note_on_c, 2, 62, 68
5, 152165, Note_on_c, 2, 74, 78
5, 152167, Note_on_c, 2, 77, 66
5, 152245, Note_on_c, 2, 62, 0
5, 152257, Note_on_c, 2, 74, 0
5, 152262, Note_on_c, 2, 77, 0
5, 152645, Note_on_c, 2, 62, 82
5, 152645, Note_on_c, 2, 74, 78
5, 152645, Note_on_c, 2, 77, 58
5, 152737, Note_on_c, 2, 77, 0
5, 152740, Note_on_c, 2, 74, 0
5, 152742, Note_on_c, 2, 62, 0
5, 153125, Note_on_c, 2, 62, 76
5, 153125, Note_on_c, 2, 74, 78
5, 153127, Note_on_c, 2, 77, 57
5, 153225, Note_on_c, 2, 77, 0
5, 153235, Note_on_c, 2, 74, 0
5, 153242, Note_on_c, 2, 62, 0
5, 153605, Note_on_c, 2, 63, 82
5, 153605, Note_on_c, 2, 75, 68
5, 153605, Note_on_c, 2, 79, 63
5, 153702, Note_on_c, 2, 75, 0
5, 153707, Note_on_c, 2, 79, 0
5, 153710, Note_on_c, 2, 63, 0
5, 154085, Note_on_c, 2, 63, 87
5, 154085, Note_on_c, 2, 75, 68
5, 154087, Note_on_c, 2, 79, 62
5, 154172, Note_on_c, 2, 79, 0
5, 154177, Note_on_c, 2, 63, 0
5, 154185, Note_on_c, 2, 75, 0
5, 154565, Note_on_c, 2, 63, 91
5, 154565, Note_on_c, 2, 75, 68
5, 154567, Note_on_c, 2, 79, 70
5, 154657, Note_on_c, 2, 63, 0
5, 154672, Note_on_c, 2, 79, 0
5, 154672, Note_on_c, 2, 75, 0
5, 155045, Note_on_c, 2, 63, 91
5, 155045, Note_on_c, 2, 75, 70
5, 155045, Note_on_c, 2, 79, 62
5, 155145, Note_on_c, 2, 63, 0
5, 155147, Note_on_c, 2, 79, 0
5, 155177, Note_on_c, 2, 75, 0
5, 155525, Note_on_c, 2, 58, 82
5, 155525, Note_on_c, 2, 74, 66
5, 155527, Note_on_c, 2, 77, 72
5, 155622, Note_on_c, 2, 74, 0
5, 155632, Note_on_c, 2, 77, 0
5, 155635, Note_on_c, 2, 58, 0
5, 156005, Note_on_c, 2, 58, 58
5, 156005, Note_on_c, 2, 74, 66
5, 156005, Note_on_c, 2, 77, 68
5, 156100, Note_on_c, 2, 74, 0
5, 156105, Note_on_c, 2, 58, 0
5, 156117, Note_on_c, 2, 77, 0
5, 156485, Note_on_c, 2, 58, 64
5, 156485, Note_on_c, 2, 74, 68
5, 156487, Note_on_c, 2, 77, 66
5, 156577, Note_on_c, 2, 74, 0
5, 156592, Note_on_c, 2, 77, 0
5, 156610, Note_on_c, 2, 58, 0
5, 156965, Note_on_c, 2, 58, 80
5, 156965, Note_on_c, 2, 74, 74
5, 156965, Note_on_c, 2, 77, 82
5, 157045, Note_on_c, 2, 74, 0
5, 157070, Note_on_c, 2, 77, 0
5, 157085, Note_on_c, 2, 58, 0
5, 157445, Note_on_c, 2, 63, 78
5, 157445, Note_on_c, 2, 70, 78
5, 157447, Note_on_c, 2, 75, 70
5, 157447, Note_on_c, 2, 79, 80
5, 157520, Note_on_c, 2, 70, 0
5, 157545, Note_on_c, 2, 63, 0
5, 157552, Note_on_c, 2, 75, 0
5, 157562, Note_on_c, 2, 79, 0
5, 157925, Note_on_c, 2, 63, 100
5, 157925, Note_on_c, 2, 70, 93
5, 157925, Note_on_c, 2, 75, 85
5, 157927, Note_on_c, 2, 79, 87
5, 158020, Note_on_c, 2, 70, 0
5, 158047, Note_on_c, 2, 75, 0
5, 158050, Note_on_c, 2, 63, 0
5, 158065, Note_on_c, 2, 79, 0
5, 158405, Note_on_c, 2, 64, 85
5, 158405, Note_on_c, 2, 70, 87
5, 158405, Note_on_c, 2, 76, 85
5, 158407, Note_on_c, 2, 79, 80
5, 158530, Note_on_c, 2, 70, 0
5, 158542, Note_on_c, 2, 64, 0
5, 158555, Note_on_c, 2, 76, 0
5, 158575, Note_on_c, 2, 79, 0
5, 159365, Note_on_c, 2, 65, 85
5, 159365, Note_on_c, 2, 70, 80
5, 159367, Note_on_c, 2, 74, 78
5, 159367, Note_on_c, 2, 77, 70
5, 159467, Note_on_c, 2, 70, 0
5, 159470, Note_on_c, 2, 74, 0
5, 159490, Note_on_c, 2, 77, 0
5, 159495, Note_on_c, 2, 65, 0
5, 159845, Note_on_c, 2, 65, 78
5, 159845, Note_on_c, 2, 70, 85
5, 159845, Note_on_c, 2, 74, 82
5, 159847, Note_on_c, 2, 77, 87
5, 159962, Note_on_c, 2, 70, 0
5, 159965, Note_on_c, 2, 74, 0
5, 159987, Note_on_c, 2, 77, 0
5, 160050, Note_on_c, 2, 65, 0
5, 160325, Note_on_c, 2, 58, 89
5, 160325, Note_on_c, 2, 70, 85
5, 160325, Note_on_c, 2, 74, 82
5, 160327, Note_on_c, 2, 77, 87
5, 160437, Note_on_c, 2, 74, 0
5, 160447, Note_on_c, 2, 70, 0
5, 160465, Note_on_c, 2, 77, 0
5, 160485, Note_on_c, 2, 58, 0
5, 161285, Note_on_c, 2, 60, 98
5, 161287, Note_on_c, 2, 67, 91
5, 161287, Note_on_c, 2, 70, 87
5, 161287, Note_on_c, 2, 72, 93
5, 161287, Note_on_c, 2, 76, 89
5, 163202, Note_on_c, 2, 76, 0
5, 163202, Note_on_c, 2, 72, 0
5, 163205, Note_on_c, 2, 60, 0
5, 163205, Note_on_c, 2, 67, 0
5, 163205, Note_on_c, 2, 70, 0
5, 163210, Note_on_c, 2, 53, 48
5, 163210, Note_on_c, 2, 60, 57
5, 163210, Note_on_c, 2, 69, 62
5, 163210, Note_on_c, 2, 72, 78
5, 164165, Note_on_c, 2, 75, 66
5, 164937, Note_on_c, 2, 72, 0
5, 165102, Note_on_c, 2, 75, 0
5, 165125, Note_on_c, 2, 58, 85
5, 165125, Note_on_c, 2, 70, 89
5, 165127, Note_on_c, 2, 74, 80
5, 165130, Note_on_c, 2, 53, 0
5, 165132, Note_on_c, 2, 60, 0
5, 165135, Note_on_c, 2, 69, 0
5, 166082, Note_on_c, 2, 62, 89
5, 166087, Note_on_c, 2, 58, 0
5, 166970, Note_on_c, 2, 62, 0
5, 167045, Note_on_c, 2, 58, 100
5, 167045, Note_on_c, 2, 77, 80
5, 167097, Channel_aftertouch_c, 2, 0
5, 167222, Note_on_c, 2, 70, 0
5, 167232, Note_on_c, 2, 74, 0
5, 167267, Note_on_c, 2, 77, 0
5, 167305, Note_on_c, 2, 58, 0
5, 167305, End_track
6, 0, Start_track
6, 0, MIDI_port, 0
6, 0, Title_t, "AcouBass"
6, 100, Control_c, 3, 121, 0
6, 197, Control_c, 3, 7, 110
6, 200, Control_c, 3, 10, 64
6, 202, Program_c, 3, 32
6, 212, Control_c, 3, 100, 0
6, 220, Control_c, 3, 101, 0
6, 225, Control_c, 3, 6, 2
6, 235, Control_c, 3, 11, 127
6, 240, Control_c, 3, 91, 0
6, 240, Control_c, 3, 93, 40
6, 3845, Note_on_c, 3, 38, 100
6, 4350, Note_on_c, 3, 38, 0
6, 4642, Note_on_c, 3, 38, 100
6, 4765, Note_on_c, 3, 38, 0
6, 4805, Note_on_c, 3, 37, 100
6, 5360, Note_on_c, 3, 37, 0
6, 5602, Note_on_c, 3, 37, 100
6, 5762, Note_on_c, 3, 36, 100
6, 5790, Note_on_c, 3, 37, 0
6, 6267, Note_on_c, 3, 36, 0
6, 6565, Note_on_c, 3, 36, 100
6, 6702, Note_on_c, 3, 36, 0
6, 6722, Note_on_c, 3, 41, 100
6, 7272, Note_on_c, 3, 41, 0
6, 7522, Note_on_c, 3, 41, 100
6, 7650, Note_on_c, 3, 41, 0
6, 7682, Note_on_c, 3, 38, 100
6, 8197, Note_on_c, 3, 38, 0
6, 8482, Note_on_c, 3, 38, 100
6, 8645, Note_on_c, 3, 37, 100
6, 8650, Note_on_c, 3, 38, 0
6, 9235, Note_on_c, 3, 37, 0
6, 9442, Note_on_c, 3, 37, 100
6, 9605, Note_on_c, 3, 36, 100
6, 9615, Note_on_c, 3, 37, 0
6, 10150, Note_on_c, 3, 36, 0
6, 10402, Note_on_c, 3, 36, 100
6, 10505, Note_on_c, 3, 36, 0
6, 10562, Note_on_c, 3, 41, 100
6, 11300, Note_on_c, 3, 41, 0
6, 11525, Note_on_c, 3, 38, 100
6, 12087, Note_on_c, 3, 38, 0
6, 12322, Note_on_c, 3, 38, 100
6, 12407, Note_on_c, 3, 38, 0
6, 12485, Note_on_c, 3, 37, 100
6, 13037, Note_on_c, 3, 37, 0
6, 13282, Note_on_c, 3, 37, 100
6, 13347, Note_on_c, 3, 37, 0
6, 13445, Note_on_c, 3, 36, 100
6, 13970, Note_on_c, 3, 36, 0
6, 14245, Note_on_c, 3, 36, 100
6, 14302, Note_on_c, 3, 36, 0
6, 14402, Note_on_c, 3, 36, 100
6, 14945, Note_on_c, 3, 36, 0
6, 15365, Note_on_c, 3, 29, 100
6, 15887, Note_on_c, 3, 29, 0
6, 16162, Note_on_c, 3, 29, 100
6, 16250, Note_on_c, 3, 29, 0
6, 16322, Note_on_c, 3, 29, 100
6, 16890, Note_on_c, 3, 29, 0
6, 17285, Note_on_c, 3, 34, 100
6, 17840, Note_on_c, 3, 34, 0
6, 18082, Note_on_c, 3, 34, 100
6, 18150, Note_on_c, 3, 34, 0
6, 18242, Note_on_c, 3, 34, 100
6, 18862, Note_on_c, 3, 34, 0
6, 19205, Note_on_c, 3, 34, 100
6, 19722, Note_on_c, 3, 34, 0
6, 20002, Note_on_c, 3, 34, 100
6, 20082, Note_on_c, 3, 34, 0
6, 20165, Note_on_c, 3, 35, 100
6, 20700, Note_on_c, 3, 35, 0
6, 20962, Note_on_c, 3, 35, 100
6, 21040, Note_on_c, 3, 35, 0
6, 21125, Note_on_c, 3, 36, 100
6, 21685, Note_on_c, 3, 36, 0
6, 21922, Note_on_c, 3, 36, 100
6, 21985, Note_on_c, 3, 36, 0
6, 22082, Note_on_c, 3, 36, 100
6, 22690, Note_on_c, 3, 36, 0
6, 22882, Note_on_c, 3, 36, 100
6, 22975, Note_on_c, 3, 36, 0
6, 23047, Note_on_c, 3, 29, 100
6, 23572, Note_on_c, 3, 29, 0
6, 23842, Note_on_c, 3, 29, 100
6, 23917, Note_on_c, 3, 29, 0
6, 24002, Note_on_c, 3, 29, 100
6, 24562, Note_on_c, 3, 29, 0
6, 24965, Note_on_c, 3, 34, 100
6, 25485, Note_on_c, 3, 34, 0
6, 25762, Note_on_c, 3, 34, 100
6, 25837, Note_on_c, 3, 34, 0
6, 25922, Note_on_c, 3, 34, 100
6, 26545, Note_on_c, 3, 34, 0
6, 26885, Note_on_c, 3, 38, 100
6, 27440, Note_on_c, 3, 38, 0
6, 27682, Note_on_c, 3, 38, 100
6, 27780, Note_on_c, 3, 38, 0
6, 27845, Note_on_c, 3, 37, 100
6, 28417, Note_on_c, 3, 37, 0
6, 28642, Note_on_c, 3, 37, 100
6, 28730, Note_on_c, 3, 37, 0
6, 28805, Note_on_c, 3, 36, 100
6, 29342, Note_on_c, 3, 36, 0
6, 29605, Note_on_c, 3, 36, 100
6, 29677, Note_on_c, 3, 36, 0
6, 29762, Note_on_c, 3, 36, 100
6, 30305, Note_on_c, 3, 36, 0
6, 30562, Note_on_c, 3, 36, 100
6, 30645, Note_on_c, 3, 36, 0
6, 30727, Note_on_c, 3, 29, 100
6, 31245, Note_on_c, 3, 29, 0
6, 31522, Note_on_c, 3, 29, 100
6, 31607, Note_on_c, 3, 29, 0
6, 31682, Note_on_c, 3, 29, 100
6, 32232, Note_on_c, 3, 29, 0
6, 32647, Note_on_c, 3, 34, 100
6, 33192, Note_on_c, 3, 34, 0
6, 33442, Note_on_c, 3, 34, 100
6, 33510, Note_on_c, 3, 34, 0
6, 33602, Note_on_c, 3, 34, 100
6, 34227, Note_on_c, 3, 34, 0
6, 34565, Note_on_c, 3, 38, 100
6, 35082, Note_on_c, 3, 38, 0
6, 35525, Note_on_c, 3, 37, 100
6, 36052, Note_on_c, 3, 37, 0
6, 36485, Note_on_c, 3, 36, 100
6, 37255, Note_on_c, 3, 36, 0
6, 38727, Note_on_c, 3, 34, 100
6, 38962, Note_on_c, 3, 34, 0
6, 39365, Note_on_c, 3, 33, 100
6, 39557, Note_on_c, 3, 33, 0
6, 39845, Note_on_c, 3, 31, 100
6, 40045, Note_on_c, 3, 31, 0
6, 40325, Note_on_c, 3, 29, 100
6, 40782, Note_on_c, 3, 29, 0
6, 40805, Note_on_c, 3, 27, 100
6, 41237, Note_on_c, 3, 27, 0
6, 41285, Note_on_c, 3, 26, 100
6, 41765, Note_on_c, 3, 24, 100
6, 41857, Note_on_c, 3, 26, 0
6, 42215, Note_on_c, 3, 24, 0
6, 42250, Note_on_c, 3, 34, 100
6, 42822, Note_on_c, 3, 34, 0
6, 43042, Note_on_c, 3, 34, 100
6, 43155, Note_on_c, 3, 34, 0
6, 43202, Note_on_c, 3, 29, 100
6, 43682, Note_on_c, 3, 34, 100
6, 43702, Note_on_c, 3, 29, 0
6, 44107, Note_on_c, 3, 34, 0
6, 44165, Note_on_c, 3, 38, 100
6, 44790, Note_on_c, 3, 38, 0
6, 44965, Note_on_c, 3, 38, 100
6, 45100, Note_on_c, 3, 38, 0
6, 45125, Note_on_c, 3, 33, 100
6, 45577, Note_on_c, 3, 33, 0
6, 45605, Note_on_c, 3, 38, 100
6, 46065, Note_on_c, 3, 38, 0
6, 46085, Note_on_c, 3, 39, 100
6, 46712, Note_on_c, 3, 39, 0
6, 46882, Note_on_c, 3, 39, 100
6, 47007, Note_on_c, 3, 39, 0
6, 47042, Note_on_c, 3, 34, 100
6, 47525, Note_on_c, 3, 39, 100
6, 47572, Note_on_c, 3, 34, 0
6, 48005, Note_on_c, 3, 34, 100
6, 48010, Note_on_c, 3, 39, 0
6, 48577, Note_on_c, 3, 34, 0
6, 48802, Note_on_c, 3, 34, 100
6, 48942, Note_on_c, 3, 34, 0
6, 48962, Note_on_c, 3, 29, 100
6, 49442, Note_on_c, 3, 34, 100
6, 49465, Note_on_c, 3, 29, 0
6, 49927, Note_on_c, 3, 39, 100
6, 49967, Note_on_c, 3, 34, 0
6, 50035, Note_on_c, 3, 39, 0
6, 50407, Note_on_c, 3, 39, 100
6, 50537, Note_on_c, 3, 39, 0
6, 50887, Note_on_c, 3, 34, 100
6, 51055, Note_on_c, 3, 34, 0
6, 51367, Note_on_c, 3, 34, 100
6, 51672, Note_on_c, 3, 34, 0
6, 51847, Note_on_c, 3, 39, 100
6, 52022, Note_on_c, 3, 39, 0
6, 52327, Note_on_c, 3, 39, 100
6, 52555, Note_on_c, 3, 39, 0
6, 52807, Note_on_c, 3, 34, 100
6, 53017, Note_on_c, 3, 34, 0
6, 53290, Note_on_c, 3, 34, 100
6, 53577, Note_on_c, 3, 34, 0
6, 53767, Note_on_c, 3, 39, 100
6, 53985, Note_on_c, 3, 39, 0
6, 54247, Note_on_c, 3, 39, 100
6, 54457, Note_on_c, 3, 39, 0
6, 54735, Note_on_c, 3, 34, 100
6, 54955, Note_on_c, 3, 34, 0
6, 55207, Note_on_c, 3, 34, 100
6, 55605, Note_on_c, 3, 34, 0
6, 55687, Note_on_c, 3, 31, 100
6, 55927, Note_on_c, 3, 31, 0
6, 56170, Note_on_c, 3, 36, 100
6, 56435, Note_on_c, 3, 36, 0
6, 56647, Note_on_c, 3, 29, 100
6, 56900, Note_on_c, 3, 29, 0
6, 57130, Note_on_c, 3, 29, 100
6, 57285, Note_on_c, 3, 29, 0
6, 57610, Note_on_c, 3, 38, 100
6, 58135, Note_on_c, 3, 38, 0
6, 58405, Note_on_c, 3, 38, 100
6, 58517, Note_on_c, 3, 38, 0
6, 58562, Note_on_c, 3, 33, 100
6, 59110, Note_on_c, 3, 33, 0
6, 59362, Note_on_c, 3, 33, 100
6, 59440, Note_on_c, 3, 33, 0
6, 59522, Note_on_c, 3, 38, 100
6, 60077, Note_on_c, 3, 38, 0
6, 60325, Note_on_c, 3, 38, 100
6, 60430, Note_on_c, 3, 38, 0
6, 60482, Note_on_c, 3, 33, 100
6, 60962, Note_on_c, 3, 38, 100
6, 60967, Note_on_c, 3, 33, 0
6, 61445, Note_on_c, 3, 31, 100
6, 61452, Note_on_c, 3, 38, 0
6, 61980, Note_on_c, 3, 31, 0
6, 62242, Note_on_c, 3, 31, 100
6, 62332, Note_on_c, 3, 31, 0
6, 62402, Note_on_c, 3, 38, 100
6, 62952, Note_on_c, 3, 38, 0
6, 63202, Note_on_c, 3, 38, 100
6, 63317, Note_on_c, 3, 38, 0
6, 63362, Note_on_c, 3, 31, 100
6, 63970, Note_on_c, 3, 31, 0
6, 64162, Note_on_c, 3, 31, 100
6, 64282, Note_on_c, 3, 31, 0
6, 64322, Note_on_c, 3, 38, 100
6, 64762, Note_on_c, 3, 38, 0
6, 64802, Note_on_c, 3, 31, 100
6, 65242, Note_on_c, 3, 31, 0
6, 65285, Note_on_c, 3, 36, 100
6, 65852, Note_on_c, 3, 36, 0
6, 66085, Note_on_c, 3, 36, 100
6, 66225, Note_on_c, 3, 36, 0
6, 66242, Note_on_c, 3, 31, 100
6, 66725, Note_on_c, 3, 36, 100
6, 66750, Note_on_c, 3, 31, 0
6, 67172, Note_on_c, 3, 36, 0
6, 67205, Note_on_c, 3, 34, 100
6, 67850, Note_on_c, 3, 34, 0
6, 68005, Note_on_c, 3, 34, 100
6, 68132, Note_on_c, 3, 34, 0
6, 68162, Note_on_c, 3, 29, 100
6, 68607, Note_on_c, 3, 29, 0
6, 68645, Note_on_c, 3, 34, 100
6, 69127, Note_on_c, 3, 36, 100
6, 69132, Note_on_c, 3, 34, 0
6, 69757, Note_on_c, 3, 36, 0
6, 69925, Note_on_c, 3, 36, 100
6, 70032, Note_on_c, 3, 36, 0
6, 70082, Note_on_c, 3, 31, 100
6, 70557, Note_on_c, 3, 31, 0
6, 70562, Note_on_c, 3, 36, 100
6, 71047, Note_on_c, 3, 29, 100
6, 71062, Note_on_c, 3, 36, 0
6, 72955, Note_on_c, 3, 29, 0
6, 72970, Note_on_c, 3, 34, 100
6, 73165, Note_on_c, 3, 34, 0
6, 73445, Note_on_c, 3, 34, 100
6, 73642, Note_on_c, 3, 34, 0
6, 73927, Note_on_c, 3, 34, 100
6, 74122, Note_on_c, 3, 34, 0
6, 74405, Note_on_c, 3, 34, 100
6, 74570, Note_on_c, 3, 34, 0
6, 74885, Note_on_c, 3, 34, 100
6, 75045, Note_on_c, 3, 34, 0
6, 75367, Note_on_c, 3, 34, 100
6, 75540, Note_on_c, 3, 34, 0
6, 75847, Note_on_c, 3, 34, 100
6, 76042, Note_on_c, 3, 34, 0
6, 76325, Note_on_c, 3, 34, 100
6, 76517, Note_on_c, 3, 34, 0
6, 76807, Note_on_c, 3, 34, 100
6, 76972, Note_on_c, 3, 34, 0
6, 77287, Note_on_c, 3, 34, 100
6, 77437, Note_on_c, 3, 34, 0
6, 77767, Note_on_c, 3, 34, 100
6, 77910, Note_on_c, 3, 34, 0
6, 78247, Note_on_c, 3, 34, 100
6, 78432, Note_on_c, 3, 34, 0
6, 78727, Note_on_c, 3, 34, 100
6, 78920, Note_on_c, 3, 34, 0
6, 79207, Note_on_c, 3, 34, 100
6, 79377, Note_on_c, 3, 34, 0
6, 79687, Note_on_c, 3, 34, 100
6, 79850, Note_on_c, 3, 34, 0
6, 80167, Note_on_c, 3, 34, 100
6, 80327, Note_on_c, 3, 34, 0
6, 80645, Note_on_c, 3, 39, 100
6, 80797, Note_on_c, 3, 39, 0
6, 81127, Note_on_c, 3, 39, 100
6, 81302, Note_on_c, 3, 39, 0
6, 81607, Note_on_c, 3, 39, 100
6, 81765, Note_on_c, 3, 39, 0
6, 82087, Note_on_c, 3, 39, 100
6, 82265, Note_on_c, 3, 39, 0
6, 82565, Note_on_c, 3, 39, 100
6, 82707, Note_on_c, 3, 39, 0
6, 83047, Note_on_c, 3, 39, 100
6, 83202, Note_on_c, 3, 39, 0
6, 83525, Note_on_c, 3, 39, 100
6, 83667, Note_on_c, 3, 39, 0
6, 84005, Note_on_c, 3, 39, 100
6, 84190, Note_on_c, 3, 39, 0
6, 84487, Note_on_c, 3, 36, 100
6, 84665, Note_on_c, 3, 36, 0
6, 84965, Note_on_c, 3, 36, 100
6, 85152, Note_on_c, 3, 36, 0
6, 85445, Note_on_c, 3, 36, 100
6, 85620, Note_on_c, 3, 36, 0
6, 85930, Note_on_c, 3, 36, 100
6, 86097, Note_on_c, 3, 36, 0
6, 86405, Note_on_c, 3, 41, 100
6, 86612, Note_on_c, 3, 41, 0
6, 86885, Note_on_c, 3, 39, 100
6, 87040, Note_on_c, 3, 39, 0
6, 87365, Note_on_c, 3, 38, 100
6, 87527, Note_on_c, 3, 38, 0
6, 87842, Note_on_c, 3, 36, 100
6, 88000, Note_on_c, 3, 36, 0
6, 88330, Note_on_c, 3, 34, 100
6, 88965, Note_on_c, 3, 34, 0
6, 89122, Note_on_c, 3, 34, 100
6, 89250, Note_on_c, 3, 34, 0
6, 89282, Note_on_c, 3, 29, 100
6, 89685, Note_on_c, 3, 29, 0
6, 89765, Note_on_c, 3, 34, 100
6, 90125, Note_on_c, 3, 34, 0
6, 90250, Note_on_c, 3, 38, 100
6, 90840, Note_on_c, 3, 38, 0
6, 91042, Note_on_c, 3, 38, 100
6, 91145, Note_on_c, 3, 38, 0
6, 91205, Note_on_c, 3, 33, 100
6, 91677, Note_on_c, 3, 33, 0
6, 91682, Note_on_c, 3, 38, 100
6, 92082, Note_on_c, 3, 38, 0
6, 92167, Note_on_c, 3, 39, 100
6, 92812, Note_on_c, 3, 39, 0
6, 92962, Note_on_c, 3, 39, 100
6, 93087, Note_on_c, 3, 39, 0
6, 93122, Note_on_c, 3, 34, 100
6, 93557, Note_on_c, 3, 34, 0
6, 93602, Note_on_c, 3, 39, 100
6, 94022, Note_on_c, 3, 39, 0
6, 94087, Note_on_c, 3, 34, 100
6, 94695, Note_on_c, 3, 34, 0
6, 94882, Note_on_c, 3, 34, 100
6, 95035, Note_on_c, 3, 34, 0
6, 95042, Note_on_c, 3, 29, 100
6, 95522, Note_on_c, 3, 34, 100
6, 95527, Note_on_c, 3, 29, 0
6, 95817, Note_on_c, 3, 34, 0
6, 96007, Note_on_c, 3, 39, 100
6, 96600, Note_on_c, 3, 39, 0
6, 96802, Note_on_c, 3, 39, 100
6, 96887, Note_on_c, 3, 39, 0
6, 96967, Note_on_c, 3, 40, 100
6, 97580, Note_on_c, 3, 40, 0
6, 97762, Note_on_c, 3, 40, 100
6, 97850, Note_on_c, 3, 40, 0
6, 97925, Note_on_c, 3, 41, 100
6, 98470, Note_on_c, 3, 41, 0
6, 98722, Note_on_c, 3, 41, 100
6, 98827, Note_on_c, 3, 41, 0
6, 98887, Note_on_c, 3, 34, 100
6, 99315, Note_on_c, 3, 34, 0
6, 99365, Note_on_c, 3, 31, 100
6, 99750, Note_on_c, 3, 31, 0
6, 99855, Note_on_c, 3, 36, 100
6, 100392, Note_on_c, 3, 36, 0
6, 100642, Note_on_c, 3, 36, 100
6, 100755, Note_on_c, 3, 36, 0
6, 100802, Note_on_c, 3, 31, 100
6, 101245, Note_on_c, 3, 31, 0
6, 101282, Note_on_c, 3, 36, 100
6, 101662, Note_on_c, 3, 36, 0
6, 101767, Note_on_c, 3, 34, 100
6, 101980, Note_on_c, 3, 34, 0
6, 102245, Note_on_c, 3, 29, 100
6, 102687, Note_on_c, 3, 29, 0
6, 102725, Note_on_c, 3, 31, 100
6, 103162, Note_on_c, 3, 31, 0
6, 103205, Note_on_c, 3, 33, 100
6, 103592, Note_on_c, 3, 33, 0
6, 103687, Note_on_c, 3, 34, 100
6, 104210, Note_on_c, 3, 34, 0
6, 104642, Note_on_c, 3, 29, 100
6, 105142, Note_on_c, 3, 29, 0
6, 105602, Note_on_c, 3, 38, 100
6, 106155, Note_on_c, 3, 38, 0
6, 106562, Note_on_c, 3, 33, 100
6, 107092, Note_on_c, 3, 33, 0
6, 107525, Note_on_c, 3, 39, 100
6, 108057, Note_on_c, 3, 39, 0
6, 108482, Note_on_c, 3, 34, 100
6, 109005, Note_on_c, 3, 34, 0
6, 109445, Note_on_c, 3, 34, 100
6, 109972, Note_on_c, 3, 34, 0
6, 110405, Note_on_c, 3, 29, 100
6, 110965, Note_on_c, 3, 29, 0
6, 111367, Note_on_c, 3, 39, 100
6, 111500, Note_on_c, 3, 39, 0
6, 111847, Note_on_c, 3, 39, 100
6, 111987, Note_on_c, 3, 39, 0
6, 112327, Note_on_c, 3, 34, 100
6, 112582, Note_on_c, 3, 34, 0
6, 113287, Note_on_c, 3, 39, 100
6, 113432, Note_on_c, 3, 39, 0
6, 113767, Note_on_c, 3, 39, 100
6, 113920, Note_on_c, 3, 39, 0
6, 114247, Note_on_c, 3, 34, 100
6, 114470, Note_on_c, 3, 34, 0
6, 115207, Note_on_c, 3, 39, 100
6, 115372, Note_on_c, 3, 39, 0
6, 115687, Note_on_c, 3, 39, 100
6, 115855, Note_on_c, 3, 39, 0
6, 116167, Note_on_c, 3, 34, 100
6, 116490, Note_on_c, 3, 34, 0
6, 117127, Note_on_c, 3, 31, 100
6, 117572, Note_on_c, 3, 31, 0
6, 117602, Note_on_c, 3, 36, 100
6, 118047, Note_on_c, 3, 36, 0
6, 118087, Note_on_c, 3, 29, 100
6, 118705, Note_on_c, 3, 29, 0
6, 119047, Note_on_c, 3, 38, 100
6, 119575, Note_on_c, 3, 38, 0
6, 119845, Note_on_c, 3, 38, 100
6, 119957, Note_on_c, 3, 38, 0
6, 120002, Note_on_c, 3, 33, 100
6, 120550, Note_on_c, 3, 33, 0
6, 120802, Note_on_c, 3, 33, 100
6, 120880, Note_on_c, 3, 33, 0
6, 120962, Note_on_c, 3, 38, 100
6, 121517, Note_on_c, 3, 38, 0
6, 121762, Note_on_c, 3, 38, 100
6, 121870, Note_on_c, 3, 38, 0
6, 121922, Note_on_c, 3, 33, 100
6, 122402, Note_on_c, 3, 38, 100
6, 122405, Note_on_c, 3, 33, 0
6, 122885, Note_on_c, 3, 31, 100
6, 122890, Note_on_c, 3, 38, 0
6, 123420, Note_on_c, 3, 31, 0
6, 123682, Note_on_c, 3, 31, 100
6, 123770, Note_on_c, 3, 31, 0
6, 123842, Note_on_c, 3, 38, 100
6, 124392, Note_on_c, 3, 38, 0
6, 124642, Note_on_c, 3, 38, 100
6, 124757, Note_on_c, 3, 38, 0
6, 124802, Note_on_c, 3, 31, 100
6, 125410, Note_on_c, 3, 31, 0
6, 125607, Note_on_c, 3, 31, 100
6, 125722, Note_on_c, 3, 31, 0
6, 125762, Note_on_c, 3, 38, 100
6, 126202, Note_on_c, 3, 38, 0
6, 126242, Note_on_c, 3, 31, 100
6, 126682, Note_on_c, 3, 31, 0
6, 126725, Note_on_c, 3, 36, 100
6, 127292, Note_on_c, 3, 36, 0
6, 127525, Note_on_c, 3, 36, 100
6, 127665, Note_on_c, 3, 36, 0
6, 127682, Note_on_c, 3, 31, 100
6, 128165, Note_on_c, 3, 36, 100
6, 128190, Note_on_c, 3, 31, 0
6, 128612, Note_on_c, 3, 36, 0
6, 128645, Note_on_c, 3, 34, 100
6, 129290, Note_on_c, 3, 34, 0
6, 129445, Note_on_c, 3, 34, 100
6, 129572, Note_on_c, 3, 34, 0
6, 129602, Note_on_c, 3, 29, 100
6, 130047, Note_on_c, 3, 29, 0
6, 130085, Note_on_c, 3, 34, 100
6, 130567, Note_on_c, 3, 36, 100
6, 130572, Note_on_c, 3, 34, 0
6, 131197, Note_on_c, 3, 36, 0
6, 131365, Note_on_c, 3, 36, 100
6, 131472, Note_on_c, 3, 36, 0
6, 131522, Note_on_c, 3, 31, 100
6, 131997, Note_on_c, 3, 31, 0
6, 132002, Note_on_c, 3, 36, 100
6, 132487, Note_on_c, 3, 29, 100
6, 132505, Note_on_c, 3, 36, 0
6, 134395, Note_on_c, 3, 29, 0
6, 134407, Note_on_c, 3, 34, 100
6, 134605, Note_on_c, 3, 34, 0
6, 134887, Note_on_c, 3, 34, 100
6, 135082, Note_on_c, 3, 34, 0
6, 135367, Note_on_c, 3, 34, 100
6, 135562, Note_on_c, 3, 34, 0
6, 135845, Note_on_c, 3, 34, 100
6, 136010, Note_on_c, 3, 34, 0
6, 136327, Note_on_c, 3, 34, 100
6, 136485, Note_on_c, 3, 34, 0
6, 136807, Note_on_c, 3, 34, 100
6, 136980, Note_on_c, 3, 34, 0
6, 137287, Note_on_c, 3, 34, 100
6, 137482, Note_on_c, 3, 34, 0
6, 137767, Note_on_c, 3, 34, 100
6, 137957, Note_on_c, 3, 34, 0
6, 138247, Note_on_c, 3, 34, 100
6, 138412, Note_on_c, 3, 34, 0
6, 138727, Note_on_c, 3, 34, 100
6, 138877, Note_on_c, 3, 34, 0
6, 139205, Note_on_c, 3, 34, 100
6, 139350, Note_on_c, 3, 34, 0
6, 139685, Note_on_c, 3, 34, 100
6, 139872, Note_on_c, 3, 34, 0
6, 140167, Note_on_c, 3, 34, 100
6, 140360, Note_on_c, 3, 34, 0
6, 140647, Note_on_c, 3, 34, 100
6, 140817, Note_on_c, 3, 34, 0
6, 141125, Note_on_c, 3, 34, 100
6, 141290, Note_on_c, 3, 34, 0
6, 141607, Note_on_c, 3, 34, 100
6, 141767, Note_on_c, 3, 34, 0
6, 142087, Note_on_c, 3, 39, 100
6, 142237, Note_on_c, 3, 39, 0
6, 142567, Note_on_c, 3, 39, 100
6, 142742, Note_on_c, 3, 39, 0
6, 143047, Note_on_c, 3, 39, 100
6, 143205, Note_on_c, 3, 39, 0
6, 143527, Note_on_c, 3, 39, 100
6, 143705, Note_on_c, 3, 39, 0
6, 144007, Note_on_c, 3, 39, 100
6, 144147, Note_on_c, 3, 39, 0
6, 144487, Note_on_c, 3, 39, 100
6, 144642, Note_on_c, 3, 39, 0
6, 144965, Note_on_c, 3, 39, 100
6, 145107, Note_on_c, 3, 39, 0
6, 145447, Note_on_c, 3, 39, 100
6, 145630, Note_on_c, 3, 39, 0
6, 145927, Note_on_c, 3, 36, 100
6, 146105, Note_on_c, 3, 36, 0
6, 146405, Note_on_c, 3, 36, 100
6, 146592, Note_on_c, 3, 36, 0
6, 146885, Note_on_c, 3, 36, 100
6, 147060, Note_on_c, 3, 36, 0
6, 147365, Note_on_c, 3, 36, 100
6, 147540, Note_on_c, 3, 36, 0
6, 147845, Note_on_c, 3, 41, 100
6, 148052, Note_on_c, 3, 41, 0
6, 148325, Note_on_c, 3, 39, 100
6, 148477, Note_on_c, 3, 39, 0
6, 148805, Note_on_c, 3, 38, 100
6, 148967, Note_on_c, 3, 38, 0
6, 149285, Note_on_c, 3, 36, 100
6, 149440, Note_on_c, 3, 36, 0
6, 149770, Note_on_c, 3, 34, 100
6, 149892, Note_on_c, 3, 34, 0
6, 150247, Note_on_c, 3, 34, 100
6, 150387, Note_on_c, 3, 34, 0
6, 150727, Note_on_c, 3, 34, 100
6, 150850, Note_on_c, 3, 34, 0
6, 151205, Note_on_c, 3, 34, 100
6, 151297, Note_on_c, 3, 34, 0
6, 151687, Note_on_c, 3, 38, 100
6, 151765, Note_on_c, 3, 38, 0
6, 152167, Note_on_c, 3, 38, 100
6, 152250, Note_on_c, 3, 38, 0
6, 152647, Note_on_c, 3, 38, 100
6, 152732, Note_on_c, 3, 38, 0
6, 153127, Note_on_c, 3, 38, 100
6, 153245, Note_on_c, 3, 38, 0
6, 153607, Note_on_c, 3, 39, 100
6, 153737, Note_on_c, 3, 39, 0
6, 154087, Note_on_c, 3, 39, 100
6, 154190, Note_on_c, 3, 39, 0
6, 154567, Note_on_c, 3, 39, 100
6, 154690, Note_on_c, 3, 39, 0
6, 155047, Note_on_c, 3, 39, 100
6, 155195, Note_on_c, 3, 39, 0
6, 155527, Note_on_c, 3, 34, 100
6, 155670, Note_on_c, 3, 34, 0
6, 156007, Note_on_c, 3, 34, 100
6, 156170, Note_on_c, 3, 34, 0
6, 156487, Note_on_c, 3, 34, 100
6, 156772, Note_on_c, 3, 34, 0
6, 156967, Note_on_c, 3, 34, 100
6, 157155, Note_on_c, 3, 34, 0
6, 157447, Note_on_c, 3, 39, 100
6, 157632, Note_on_c, 3, 39, 0
6, 157927, Note_on_c, 3, 39, 100
6, 158137, Note_on_c, 3, 39, 0
6, 158407, Note_on_c, 3, 40, 100
6, 158647, Note_on_c, 3, 40, 0
6, 159367, Note_on_c, 3, 41, 100
6, 159512, Note_on_c, 3, 41, 0
6, 159847, Note_on_c, 3, 41, 100
6, 160060, Note_on_c, 3, 41, 0
6, 160327, Note_on_c, 3, 34, 100
6, 160547, Note_on_c, 3, 34, 0
6, 161290, Note_on_c, 3, 36, 100
6, 163165, Note_on_c, 3, 36, 0
6, 163212, Note_on_c, 3, 29, 100
6, 165127, Note_on_c, 3, 34, 100
6, 165217, Note_on_c, 3, 29, 0
6, 167097, Note_on_c, 3, 34, 0
6, 167097, End_track
7, 0, Start_track
7, 0, MIDI_port, 0
7, 0, Title_t, "Brass   "
7, 100, Control_c, 4, 121, 0
7, 197, Control_c, 4, 7, 105
7, 200, Control_c, 4, 10, 24
7, 205, Program_c, 4, 61
7, 212, Control_c, 4, 100, 0
7, 220, Control_c, 4, 101, 0
7, 225, Control_c, 4, 6, 2
7, 237, Control_c, 4, 11, 127
7, 240, Control_c, 4, 91, 110
7, 240, Control_c, 4, 93, 20
7, 3847, Note_on_c, 4, 53, 68
7, 3847, Note_on_c, 4, 65, 66
7, 3847, Note_on_c, 4, 77, 76
7, 3850, Note_on_c, 4, 65, 83
7, 4035, Note_on_c, 4, 53, 0
7, 4052, Note_on_c, 4, 65, 0
7, 4052, Note_on_c, 4, 65, 0
7, 4065, Note_on_c, 4, 77, 0
7, 4162, Note_on_c, 4, 53, 53
7, 4162, Note_on_c, 4, 65, 63
7, 4162, Note_on_c, 4, 77, 63
7, 4165, Note_on_c, 4, 65, 66
7, 4240, Note_on_c, 4, 53, 0
7, 4247, Note_on_c, 4, 65, 0
7, 4247, Note_on_c, 4, 65, 0
7, 4250, Note_on_c, 4, 77, 0
7, 4322, Note_on_c, 4, 65, 70
7, 4322, Note_on_c, 4, 77, 68
7, 4325, Note_on_c, 4, 53, 63
7, 4325, Note_on_c, 4, 65, 61
7, 4427, Note_on_c, 4, 53, 0
7, 4435, Note_on_c, 4, 65, 0
7, 4435, Note_on_c, 4, 65, 0
7, 4475, Note_on_c, 4, 77, 0
7, 4642, Note_on_c, 4, 66, 79
7, 4645, Note_on_c, 4, 54, 61
7, 4645, Note_on_c, 4, 66, 83
7, 4645, Note_on_c, 4, 78, 83
7, 4725, Note_on_c, 4, 66, 0
7, 4725, Note_on_c, 4, 66, 0
7, 4745, Note_on_c, 4, 54, 0
7, 4767, Note_on_c, 4, 78, 0
7, 5282, Note_on_c, 4, 54, 76
7, 5282, Note_on_c, 4, 66, 81
7, 5282, Note_on_c, 4, 78, 83
7, 5285, Note_on_c, 4, 66, 88
7, 5422, Note_on_c, 4, 66, 0
7, 5422, Note_on_c, 4, 78, 0
7, 5422, Note_on_c, 4, 66, 0
7, 5715, Note_on_c, 4, 54, 0
7, 5765, Note_on_c, 4, 67, 59
7, 5765, Note_on_c, 4, 79, 70
7, 5767, Note_on_c, 4, 55, 76
7, 5767, Note_on_c, 4, 67, 72
7, 6005, Note_on_c, 4, 67, 0
7, 6005, Note_on_c, 4, 67, 0
7, 6050, Note_on_c, 4, 79, 0
7, 6080, Note_on_c, 4, 55, 0
7, 6082, Note_on_c, 4, 69, 51
7, 6082, Note_on_c, 4, 81, 49
7, 6085, Note_on_c, 4, 57, 51
7, 6085, Note_on_c, 4, 69, 61
7, 6142, Note_on_c, 4, 69, 0
7, 6142, Note_on_c, 4, 69, 0
7, 6170, Note_on_c, 4, 81, 0
7, 6180, Note_on_c, 4, 57, 0
7, 6242, Note_on_c, 4, 70, 70
7, 6245, Note_on_c, 4, 58, 49
7, 6245, Note_on_c, 4, 70, 66
7, 6245, Note_on_c, 4, 82, 63
7, 6330, Note_on_c, 4, 70, 0
7, 6330, Note_on_c, 4, 70, 0
7, 6390, Note_on_c, 4, 82, 0
7, 6512, Note_on_c, 4, 58, 0
7, 6565, Note_on_c, 4, 62, 66
7, 6565, Note_on_c, 4, 74, 79
7, 6565, Note_on_c, 4, 86, 72
7, 6567, Note_on_c, 4, 74, 76
7, 6690, Note_on_c, 4, 74, 0
7, 6690, Note_on_c, 4, 74, 0
7, 6722, Note_on_c, 4, 86, 0
7, 6732, Note_on_c, 4, 62, 0
7, 7045, Note_on_c, 4, 60, 66
7, 7045, Note_on_c, 4, 72, 76
7, 7045, Note_on_c, 4, 72, 83
7, 7045, Note_on_c, 4, 84, 72
7, 7675, Note_on_c, 4, 72, 0
7, 7675, Note_on_c, 4, 72, 0
7, 7685, Note_on_c, 4, 65, 66
7, 7685, Note_on_c, 4, 77, 72
7, 7687, Note_on_c, 4, 53, 61
7, 7687, Note_on_c, 4, 65, 63
7, 7692, Note_on_c, 4, 60, 0
7, 7702, Note_on_c, 4, 84, 0
7, 7797, Note_on_c, 4, 65, 0
7, 7797, Note_on_c, 4, 65, 0
7, 7822, Note_on_c, 4, 53, 0
7, 7872, Note_on_c, 4, 77, 0
7, 8002, Note_on_c, 4, 53, 51
7, 8002, Note_on_c, 4, 65, 45
7, 8002, Note_on_c, 4, 77, 66
7, 8005, Note_on_c, 4, 65, 57
7, 8075, Note_on_c, 4, 65, 0
7, 8075, Note_on_c, 4, 65, 0
7, 8085, Note_on_c, 4, 77, 0
7, 8107, Note_on_c, 4, 53, 0
7, 8162, Note_on_c, 4, 53, 63
7, 8162, Note_on_c, 4, 65, 66
7, 8162, Note_on_c, 4, 77, 70
7, 8165, Note_on_c, 4, 65, 61
7, 8302, Note_on_c, 4, 77, 0
7, 8310, Note_on_c, 4, 65, 0
7, 8310, Note_on_c, 4, 65, 0
7, 8375, Note_on_c, 4, 53, 0
7, 8482, Note_on_c, 4, 66, 76
7, 8482, Note_on_c, 4, 78, 83
7, 8485, Note_on_c, 4, 54, 63
7, 8485, Note_on_c, 4, 66, 76
7, 8602, Note_on_c, 4, 66, 0
7, 8602, Note_on_c, 4, 66, 0
7, 8617, Note_on_c, 4, 78, 0
7, 8620, Note_on_c, 4, 54, 0
7, 9122, Note_on_c, 4, 54, 53
7, 9122, Note_on_c, 4, 66, 61
7, 9122, Note_on_c, 4, 78, 88
7, 9125, Note_on_c, 4, 66, 76
7, 9267, Note_on_c, 4, 78, 0
7, 9272, Note_on_c, 4, 66, 0
7, 9272, Note_on_c, 4, 66, 0
7, 9567, Note_on_c, 4, 54, 0
7, 9605, Note_on_c, 4, 55, 70
7, 9605, Note_on_c, 4, 67, 70
7, 9605, Note_on_c, 4, 79, 63
7, 9607, Note_on_c, 4, 67, 68
7, 9862, Note_on_c, 4, 67, 0
7, 9862, Note_on_c, 4, 67, 0
7, 9890, Note_on_c, 4, 79, 0
7, 9905, Note_on_c, 4, 55, 0
7, 9925, Note_on_c, 4, 57, 59
7, 9925, Note_on_c, 4, 69, 63
7, 9925, Note_on_c, 4, 69, 43
7, 9930, Note_on_c, 4, 81, 49
7, 10005, Note_on_c, 4, 81, 0
7, 10005, Note_on_c, 4, 69, 0
7, 10005, Note_on_c, 4, 69, 0
7, 10035, Note_on_c, 4, 57, 0
7, 10082, Note_on_c, 4, 70, 70
7, 10085, Note_on_c, 4, 58, 32
7, 10085, Note_on_c, 4, 70, 59
7, 10085, Note_on_c, 4, 82, 68
7, 10222, Note_on_c, 4, 70, 0
7, 10222, Note_on_c, 4, 70, 0
7, 10257, Note_on_c, 4, 82, 0
7, 10392, Note_on_c, 4, 58, 0
7, 10405, Note_on_c, 4, 62, 63
7, 10405, Note_on_c, 4, 74, 55
7, 10405, Note_on_c, 4, 74, 66
7, 10405, Note_on_c, 4, 86, 68
7, 10510, Note_on_c, 4, 62, 0
7, 10540, Note_on_c, 4, 86, 0
7, 10547, Note_on_c, 4, 74, 0
7, 10547, Note_on_c, 4, 74, 0
7, 10885, Note_on_c, 4, 60, 66
7, 10885, Note_on_c, 4, 72, 79
7, 10885, Note_on_c, 4, 72, 72
7, 10885, Note_on_c, 4, 84, 63
7, 11412, Note_on_c, 4, 72, 0
7, 11412, Note_on_c, 4, 72, 0
7, 11437, Note_on_c, 4, 84, 0
7, 11442, Note_on_c, 4, 60, 0
7, 17602, Note_on_c, 4, 65, 65
7, 17602, Note_on_c, 4, 72, 75
7, 17602, Note_on_c, 4, 77, 46
7, 17762, Note_on_c, 4, 64, 52
7, 17762, Note_on_c, 4, 71, 52
7, 17762, Note_on_c, 4, 76, 59
7, 17765, Note_on_c, 4, 72, 0
7, 17767, Note_on_c, 4, 77, 0
7, 17770, Note_on_c, 4, 65, 0
7, 18045, Note_on_c, 4, 64, 0
7, 18047, Note_on_c, 4, 71, 0
7, 18082, Note_on_c, 4, 65, 59
7, 18082, Note_on_c, 4, 72, 48
7, 18082, Note_on_c, 4, 77, 56
7, 18092, Note_on_c, 4, 76, 0
7, 18242, Note_on_c, 4, 67, 57
7, 18242, Note_on_c, 4, 79, 65
7, 18247, Note_on_c, 4, 72, 0
7, 18247, Note_on_c, 4, 74, 55
7, 18255, Note_on_c, 4, 65, 0
7, 18282, Note_on_c, 4, 77, 0
7, 18500, Note_on_c, 4, 74, 0
7, 18550, Note_on_c, 4, 79, 0
7, 18562, Note_on_c, 4, 68, 57
7, 18562, Note_on_c, 4, 75, 63
7, 18562, Note_on_c, 4, 80, 63
7, 18570, Note_on_c, 4, 67, 0
7, 18670, Note_on_c, 4, 75, 0
7, 18722, Note_on_c, 4, 69, 57
7, 18722, Note_on_c, 4, 76, 57
7, 18722, Note_on_c, 4, 81, 54
7, 18742, Note_on_c, 4, 68, 0
7, 18762, Note_on_c, 4, 80, 0
7, 19000, Note_on_c, 4, 76, 0
7, 19020, Note_on_c, 4, 69, 0
7, 19032, Note_on_c, 4, 81, 0
7, 19042, Note_on_c, 4, 70, 75
7, 19042, Note_on_c, 4, 77, 72
7, 19042, Note_on_c, 4, 82, 61
7, 19155, Note_on_c, 4, 77, 0
7, 19192, Note_on_c, 4, 82, 0
7, 19220, Note_on_c, 4, 70, 0
7, 26885, Note_on_c, 4, 62, 85
7, 27832, Note_on_c, 4, 62, 0
7, 27845, Note_on_c, 4, 61, 76
7, 28790, Note_on_c, 4, 61, 0
7, 28807, Note_on_c, 4, 60, 87
7, 30702, Note_on_c, 4, 60, 0
7, 30730, Note_on_c, 4, 53, 59
7, 32647, Note_on_c, 4, 58, 85
7, 32735, Note_on_c, 4, 53, 0
7, 34565, Note_on_c, 4, 62, 74
7, 34602, Note_on_c, 4, 58, 0
7, 35517, Note_on_c, 4, 62, 0
7, 35525, Note_on_c, 4, 61, 72
7, 36485, Note_on_c, 4, 60, 72
7, 36512, Note_on_c, 4, 61, 0
7, 38387, Note_on_c, 4, 60, 0
7, 75202, Note_on_c, 4, 58, 91
7, 75202, Note_on_c, 4, 70, 102
7, 75350, Note_on_c, 4, 70, 0
7, 75367, Note_on_c, 4, 62, 91
7, 75367, Note_on_c, 4, 74, 93
7, 75407, Note_on_c, 4, 58, 0
7, 75552, Note_on_c, 4, 74, 0
7, 75625, Note_on_c, 4, 62, 0
7, 75682, Note_on_c, 4, 65, 102
7, 75682, Note_on_c, 4, 77, 91
7, 75777, Channel_aftertouch_c, 4, 0
7, 75950, Note_on_c, 4, 77, 0
7, 75965, Note_on_c, 4, 65, 0
7, 79042, Note_on_c, 4, 68, 113
7, 79215, Note_on_c, 4, 68, 0
7, 79522, Note_on_c, 4, 67, 100
7, 79675, Note_on_c, 4, 67, 0
7, 79687, Note_on_c, 4, 64, 91
7, 79955, Note_on_c, 4, 64, 0
7, 80002, Note_on_c, 4, 65, 85
7, 80145, Note_on_c, 4, 65, 0
7, 80167, Note_on_c, 4, 61, 87
7, 80452, Note_on_c, 4, 61, 0
7, 80482, Note_on_c, 4, 62, 87
7, 80647, Note_on_c, 4, 51, 87
7, 80722, Note_on_c, 4, 62, 0
7, 84487, Note_on_c, 4, 48, 93
7, 84547, Note_on_c, 4, 51, 0
7, 86372, Note_on_c, 4, 48, 0
7, 86405, Note_on_c, 4, 53, 87
7, 86407, Note_on_c, 4, 65, 113
7, 86557, Note_on_c, 4, 65, 0
7, 86635, Note_on_c, 4, 53, 0
7, 86885, Note_on_c, 4, 51, 105
7, 86885, Note_on_c, 4, 63, 110
7, 87027, Note_on_c, 4, 51, 0
7, 87080, Note_on_c, 4, 63, 0
7, 87365, Note_on_c, 4, 50, 95
7, 87365, Note_on_c, 4, 62, 110
7, 87587, Note_on_c, 4, 62, 0
7, 87597, Note_on_c, 4, 50, 0
7, 87845, Note_on_c, 4, 48, 95
7, 87845, Note_on_c, 4, 60, 102
7, 87947, Channel_aftertouch_c, 4, 0
7, 88017, Note_on_c, 4, 48, 0
7, 88020, Note_on_c, 4, 60, 0
7, 136642, Note_on_c, 4, 58, 91
7, 136642, Note_on_c, 4, 70, 102
7, 136790, Note_on_c, 4, 70, 0
7, 136807, Note_on_c, 4, 62, 91
7, 136807, Note_on_c, 4, 74, 93
7, 136847, Note_on_c, 4, 58, 0
7, 136992, Note_on_c, 4, 74, 0
7, 137067, Note_on_c, 4, 62, 0
7, 137122, Note_on_c, 4, 65, 102
7, 137122, Note_on_c, 4, 77, 91
7, 137217, Channel_aftertouch_c, 4, 0
7, 137390, Note_on_c, 4, 77, 0
7, 137405, Note_on_c, 4, 65, 0
7, 140482, Note_on_c, 4, 68, 113
7, 140652, Note_on_c, 4, 68, 0
7, 140962, Note_on_c, 4, 67, 100
7, 141115, Note_on_c, 4, 67, 0
7, 141127, Note_on_c, 4, 64, 91
7, 141395, Note_on_c, 4, 64, 0
7, 141442, Note_on_c, 4, 65, 85
7, 141585, Note_on_c, 4, 65, 0
7, 141607, Note_on_c, 4, 61, 87
7, 141892, Note_on_c, 4, 61, 0
7, 141922, Note_on_c, 4, 62, 87
7, 142087, Note_on_c, 4, 51, 87
7, 142162, Note_on_c, 4, 62, 0
7, 145927, Note_on_c, 4, 48, 93
7, 145987, Note_on_c, 4, 51, 0
7, 147812, Note_on_c, 4, 48, 0
7, 147847, Note_on_c, 4, 53, 87
7, 147847, Note_on_c, 4, 65, 113
7, 147997, Note_on_c, 4, 65, 0
7, 148075, Note_on_c, 4, 53, 0
7, 148325, Note_on_c, 4, 51, 105
7, 148325, Note_on_c, 4, 63, 110
7, 148467, Note_on_c, 4, 51, 0
7, 148520, Note_on_c, 4, 63, 0
7, 148805, Note_on_c, 4, 50, 95
7, 148805, Note_on_c, 4, 62, 110
7, 149027, Note_on_c, 4, 62, 0
7, 149035, Note_on_c, 4, 50, 0
7, 149285, Note_on_c, 4, 48, 95
7, 149285, Note_on_c, 4, 60, 102
7, 149385, Channel_aftertouch_c, 4, 0
7, 149457, Note_on_c, 4, 48, 0
7, 149460, Note_on_c, 4, 60, 0
7, 149770, Note_on_c, 4, 46, 102
7, 149772, Note_on_c, 4, 58, 98
7, 149772, Note_on_c, 4, 65, 100
7, 149827, Note_on_c, 4, 58, 0
7, 149832, Note_on_c, 4, 46, 0
7, 149835, Note_on_c, 4, 65, 0
7, 150247, Note_on_c, 4, 46, 100
7, 150250, Note_on_c, 4, 58, 89
7, 150250, Note_on_c, 4, 65, 91
7, 150292, Note_on_c, 4, 65, 0
7, 150305, Note_on_c, 4, 58, 0
7, 150310, Note_on_c, 4, 46, 0
7, 150727, Note_on_c, 4, 46, 100
7, 150727, Note_on_c, 4, 58, 98
7, 150730, Note_on_c, 4, 65, 100
7, 150792, Note_on_c, 4, 58, 0
7, 150792, Note_on_c, 4, 46, 0
7, 150797, Note_on_c, 4, 65, 0
7, 151207, Note_on_c, 4, 46, 107
7, 151207, Note_on_c, 4, 58, 102
7, 151207, Note_on_c, 4, 65, 105
7, 151275, Note_on_c, 4, 58, 0
7, 151277, Note_on_c, 4, 46, 0
7, 151295, Note_on_c, 4, 65, 0
7, 151687, Note_on_c, 4, 50, 100
7, 151687, Note_on_c, 4, 62, 91
7, 151690, Note_on_c, 4, 65, 98
7, 151752, Note_on_c, 4, 62, 0
7, 151777, Note_on_c, 4, 65, 0
7, 151777, Note_on_c, 4, 50, 0
7, 152167, Note_on_c, 4, 50, 91
7, 152167, Note_on_c, 4, 62, 100
7, 152170, Note_on_c, 4, 65, 91
7, 152222, Note_on_c, 4, 62, 0
7, 152245, Note_on_c, 4, 65, 0
7, 152250, Note_on_c, 4, 50, 0
7, 152647, Note_on_c, 4, 50, 89
7, 152647, Note_on_c, 4, 62, 91
7, 152650, Note_on_c, 4, 65, 93
7, 152705, Note_on_c, 4, 62, 0
7, 152727, Note_on_c, 4, 50, 0
7, 152740, Note_on_c, 4, 65, 0
7, 153127, Note_on_c, 4, 50, 82
7, 153127, Note_on_c, 4, 62, 98
7, 153130, Note_on_c, 4, 65, 93
7, 153190, Note_on_c, 4, 62, 0
7, 153210, Note_on_c, 4, 50, 0
7, 153225, Note_on_c, 4, 65, 0
7, 153607, Note_on_c, 4, 51, 68
7, 153607, Note_on_c, 4, 63, 89
7, 153610, Note_on_c, 4, 67, 85
7, 153675, Note_on_c, 4, 63, 0
7, 153690, Note_on_c, 4, 67, 0
7, 153692, Note_on_c, 4, 51, 0
7, 154087, Note_on_c, 4, 51, 95
7, 154087, Note_on_c, 4, 63, 100
7, 154090, Note_on_c, 4, 67, 85
7, 154152, Note_on_c, 4, 63, 0
7, 154170, Note_on_c, 4, 67, 0
7, 154172, Note_on_c, 4, 51, 0
7, 154567, Note_on_c, 4, 51, 49
7, 154567, Note_on_c, 4, 63, 100
7, 154570, Note_on_c, 4, 67, 85
7, 154627, Note_on_c, 4, 63, 0
7, 154630, Note_on_c, 4, 51, 0
7, 154660, Note_on_c, 4, 67, 0
7, 155047, Note_on_c, 4, 51, 87
7, 155050, Note_on_c, 4, 63, 102
7, 155050, Note_on_c, 4, 67, 91
7, 155122, Note_on_c, 4, 51, 0
7, 155127, Note_on_c, 4, 63, 0
7, 155155, Note_on_c, 4, 67, 0
7, 155527, Note_on_c, 4, 46, 89
7, 155527, Note_on_c, 4, 62, 89
7, 155530, Note_on_c, 4, 65, 87
7, 155585, Note_on_c, 4, 62, 0
7, 155610, Note_on_c, 4, 46, 0
7, 155615, Note_on_c, 4, 65, 0
7, 156007, Note_on_c, 4, 46, 100
7, 156007, Note_on_c, 4, 62, 87
7, 156010, Note_on_c, 4, 65, 85
7, 156077, Note_on_c, 4, 62, 0
7, 156087, Note_on_c, 4, 46, 0
7, 156097, Note_on_c, 4, 65, 0
7, 156487, Note_on_c, 4, 46, 100
7, 156487, Note_on_c, 4, 62, 93
7, 156490, Note_on_c, 4, 65, 98
7, 156550, Note_on_c, 4, 62, 0
7, 156572, Note_on_c, 4, 46, 0
7, 156577, Note_on_c, 4, 65, 0
7, 156967, Note_on_c, 4, 46, 100
7, 156967, Note_on_c, 4, 62, 93
7, 156970, Note_on_c, 4, 65, 105
7, 157025, Note_on_c, 4, 62, 0
7, 157062, Note_on_c, 4, 46, 0
7, 157065, Note_on_c, 4, 65, 0
7, 157450, Note_on_c, 4, 51, 85
7, 157450, Note_on_c, 4, 59, 66
7, 157450, Note_on_c, 4, 63, 95
7, 157450, Note_on_c, 4, 67, 89
7, 157487, Note_on_c, 4, 59, 0
7, 157560, Note_on_c, 4, 51, 0
7, 157562, Note_on_c, 4, 63, 0
7, 157577, Note_on_c, 4, 67, 0
7, 157927, Note_on_c, 4, 51, 107
7, 157927, Note_on_c, 4, 58, 105
7, 157930, Note_on_c, 4, 63, 105
7, 157930, Note_on_c, 4, 67, 105
7, 158055, Note_on_c, 4, 63, 0
7, 158070, Note_on_c, 4, 58, 0
7, 158075, Note_on_c, 4, 51, 0
7, 158105, Note_on_c, 4, 67, 0
7, 158407, Note_on_c, 4, 52, 89
7, 158410, Note_on_c, 4, 58, 102
7, 158410, Note_on_c, 4, 64, 100
7, 158410, Note_on_c, 4, 67, 80
7, 158495, Channel_aftertouch_c, 4, 0
7, 158545, Note_on_c, 4, 52, 0
7, 158552, Note_on_c, 4, 64, 0
7, 158570, Note_on_c, 4, 67, 0
7, 158575, Note_on_c, 4, 58, 0
7, 159370, Note_on_c, 4, 53, 102
7, 159370, Note_on_c, 4, 60, 76
7, 159370, Note_on_c, 4, 65, 87
7, 159407, Note_on_c, 4, 60, 0
7, 159480, Note_on_c, 4, 65, 0
7, 159482, Note_on_c, 4, 53, 0
7, 159850, Note_on_c, 4, 53, 110
7, 159850, Note_on_c, 4, 62, 102
7, 159850, Note_on_c, 4, 65, 95
7, 159940, Note_on_c, 4, 62, 0
7, 159955, Note_on_c, 4, 65, 0
7, 160047, Note_on_c, 4, 53, 0
7, 160330, Note_on_c, 4, 46, 100
7, 160330, Note_on_c, 4, 58, 98
7, 160330, Note_on_c, 4, 62, 98
7, 160402, Note_on_c, 4, 62, 0
7, 160450, Note_on_c, 4, 46, 0
7, 160452, Note_on_c, 4, 58, 0
7, 161290, Note_on_c, 4, 48, 105
7, 161290, Note_on_c, 4, 58, 87
7, 161292, Note_on_c, 4, 60, 105
7, 161292, Note_on_c, 4, 64, 102
7, 161360, Channel_aftertouch_c, 4, 0
7, 163125, Note_on_c, 4, 60, 0
7, 163145, Note_on_c, 4, 64, 0
7, 163145, Note_on_c, 4, 48, 0
7, 163152, Note_on_c, 4, 58, 0
7, 163212, Note_on_c, 4, 53, 53
7, 163212, Note_on_c, 4, 57, 70
7, 163215, Note_on_c, 4, 60, 89
7, 164165, Note_on_c, 4, 63, 78
7, 164165, Note_on_c, 4, 65, 80
7, 165050, Note_on_c, 4, 60, 0
7, 165050, Note_on_c, 4, 57, 0
7, 165087, Note_on_c, 4, 63, 0
7, 165127, Note_on_c, 4, 58, 72
7, 165130, Note_on_c, 4, 62, 85
7, 166800, Note_on_c, 4, 53, 0
7, 166815, Note_on_c, 4, 58, 0
7, 166900, Note_on_c, 4, 62, 0
7, 167047, Note_on_c, 4, 58, 98
7, 167047, Note_on_c, 4, 62, 89
7, 167047, Note_on_c, 4, 70, 107
7, 167047, Note_on_c, 4, 74, 82
7, 167147, Note_on_c, 4, 70, 0
7, 167157, Note_on_c, 4, 74, 0
7, 167162, Note_on_c, 4, 58, 0
7, 167165, Note_on_c, 4, 62, 0
7, 167175, Note_on_c, 4, 65, 0
7, 167175, End_track
8, 0, Start_track
8, 0, MIDI_port, 0
8, 0, Title_t, "Trumpet "
8, 100, Control_c, 5, 121, 0
8, 200, Control_c, 5, 7, 110
8, 200, Control_c, 5, 10, 34
8, 205, Program_c, 5, 56
8, 215, Control_c, 5, 100, 0
8, 220, Control_c, 5, 101, 0
8, 227, Control_c, 5, 6, 2
8, 237, Control_c, 5, 11, 127
8, 240, Control_c, 5, 91, 127
8, 240, Control_c, 5, 93, 0
8, 3850, Note_on_c, 5, 53, 76
8, 3852, Note_on_c, 5, 65, 73
8, 4782, Note_on_c, 5, 53, 0
8, 4805, Note_on_c, 5, 54, 50
8, 4805, Note_on_c, 5, 66, 67
8, 4817, Note_on_c, 5, 65, 0
8, 5745, Note_on_c, 5, 66, 0
8, 5767, Note_on_c, 5, 55, 65
8, 5770, Note_on_c, 5, 67, 60
8, 5775, Note_on_c, 5, 54, 0
8, 6045, Note_on_c, 5, 67, 0
8, 6087, Note_on_c, 5, 57, 56
8, 6087, Note_on_c, 5, 69, 46
8, 6090, Note_on_c, 5, 55, 0
8, 6240, Note_on_c, 5, 69, 0
8, 6247, Note_on_c, 5, 58, 65
8, 6247, Note_on_c, 5, 70, 65
8, 6292, Note_on_c, 5, 57, 0
8, 6567, Note_on_c, 5, 62, 41
8, 6570, Note_on_c, 5, 74, 58
8, 6575, Note_on_c, 5, 70, 0
8, 6580, Note_on_c, 5, 58, 0
8, 6990, Note_on_c, 5, 62, 0
8, 7010, Note_on_c, 5, 74, 0
8, 7047, Note_on_c, 5, 60, 65
8, 7047, Note_on_c, 5, 72, 65
8, 7687, Note_on_c, 5, 53, 58
8, 7690, Note_on_c, 5, 65, 60
8, 7710, Note_on_c, 5, 72, 0
8, 7710, Note_on_c, 5, 60, 0
8, 8645, Note_on_c, 5, 54, 65
8, 8647, Note_on_c, 5, 66, 60
8, 8667, Note_on_c, 5, 53, 0
8, 8717, Note_on_c, 5, 65, 0
8, 9577, Note_on_c, 5, 66, 0
8, 9607, Note_on_c, 5, 55, 63
8, 9610, Note_on_c, 5, 67, 63
8, 9650, Note_on_c, 5, 54, 0
8, 9882, Note_on_c, 5, 67, 0
8, 9897, Note_on_c, 5, 55, 0
8, 9927, Note_on_c, 5, 57, 52
8, 9927, Note_on_c, 5, 69, 38
8, 10050, Note_on_c, 5, 69, 0
8, 10087, Note_on_c, 5, 58, 41
8, 10087, Note_on_c, 5, 70, 54
8, 10110, Note_on_c, 5, 57, 0
8, 10387, Note_on_c, 5, 58, 0
8, 10397, Note_on_c, 5, 70, 0
8, 10407, Note_on_c, 5, 62, 46
8, 10407, Note_on_c, 5, 74, 56
8, 10822, Note_on_c, 5, 62, 0
8, 10845, Note_on_c, 5, 74, 0
8, 10887, Note_on_c, 5, 60, 46
8, 10887, Note_on_c, 5, 72, 60
8, 11422, Note_on_c, 5, 72, 0
8, 11432, Note_on_c, 5, 60, 0
8, 57610, Note_on_c, 5, 62, 100
8, 61400, Note_on_c, 5, 62, 0
8, 61445, Note_on_c, 5, 55, 80
8, 61445, Note_on_c, 5, 67, 72
8, 65125, Note_on_c, 5, 57, 76
8, 65125, Note_on_c, 5, 69, 82
8, 65135, Note_on_c, 5, 55, 0
8, 65152, Note_on_c, 5, 67, 0
8, 65277, Note_on_c, 5, 57, 0
8, 65285, Note_on_c, 5, 60, 72
8, 65292, Note_on_c, 5, 69, 0
8, 65295, Note_on_c, 5, 72, 91
8, 65405, Note_on_c, 5, 72, 0
8, 65407, Note_on_c, 5, 60, 0
8, 65762, Note_on_c, 5, 60, 87
8, 65765, Note_on_c, 5, 72, 89
8, 65862, Note_on_c, 5, 60, 0
8, 65865, Note_on_c, 5, 72, 0
8, 66725, Note_on_c, 5, 60, 80
8, 66725, Note_on_c, 5, 72, 89
8, 66830, Note_on_c, 5, 72, 0
8, 66830, Note_on_c, 5, 60, 0
8, 67207, Note_on_c, 5, 58, 98
8, 67207, Note_on_c, 5, 70, 95
8, 67315, Note_on_c, 5, 58, 0
8, 67320, Note_on_c, 5, 70, 0
8, 67685, Note_on_c, 5, 58, 85
8, 67685, Note_on_c, 5, 70, 105
8, 67797, Note_on_c, 5, 70, 0
8, 67800, Note_on_c, 5, 58, 0
8, 68482, Note_on_c, 5, 55, 82
8, 68482, Note_on_c, 5, 67, 82
8, 68562, Note_on_c, 5, 67, 0
8, 68617, Note_on_c, 5, 55, 0
8, 68645, Note_on_c, 5, 57, 98
8, 68645, Note_on_c, 5, 69, 102
8, 69117, Note_on_c, 5, 69, 0
8, 69117, Note_on_c, 5, 57, 0
8, 69127, Note_on_c, 5, 55, 85
8, 69127, Note_on_c, 5, 67, 105
8, 69145, Channel_aftertouch_c, 5, 3
8, 69202, Channel_aftertouch_c, 5, 0
8, 71047, Note_on_c, 5, 53, 57
8, 71047, Note_on_c, 5, 65, 53
8, 71055, Note_on_c, 5, 67, 0
8, 71055, Note_on_c, 5, 55, 0
8, 72010, Channel_aftertouch_c, 5, 21
8, 72077, Channel_aftertouch_c, 5, 66
8, 72145, Channel_aftertouch_c, 5, 104
8, 72215, Channel_aftertouch_c, 5, 127
8, 72577, Channel_aftertouch_c, 5, 97
8, 72647, Channel_aftertouch_c, 5, 52
8, 72717, Channel_aftertouch_c, 5, 32
8, 72807, Channel_aftertouch_c, 5, 34
8, 72880, Channel_aftertouch_c, 5, 0
8, 72935, Note_on_c, 5, 65, 0
8, 72945, Note_on_c, 5, 53, 0
8, 79042, Note_on_c, 5, 56, 107
8, 79045, Note_on_c, 5, 68, 122
8, 79192, Note_on_c, 5, 68, 0
8, 79237, Note_on_c, 5, 56, 0
8, 79522, Note_on_c, 5, 55, 87
8, 79525, Note_on_c, 5, 67, 102
8, 79642, Note_on_c, 5, 67, 0
8, 79687, Note_on_c, 5, 52, 82
8, 79690, Note_on_c, 5, 64, 100
8, 79702, Note_on_c, 5, 55, 0
8, 79945, Note_on_c, 5, 64, 0
8, 79957, Note_on_c, 5, 52, 0
8, 80002, Note_on_c, 5, 53, 85
8, 80005, Note_on_c, 5, 65, 85
8, 80115, Note_on_c, 5, 65, 0
8, 80170, Note_on_c, 5, 49, 98
8, 80170, Note_on_c, 5, 61, 107
8, 80182, Note_on_c, 5, 53, 0
8, 80412, Note_on_c, 5, 61, 0
8, 80475, Note_on_c, 5, 49, 0
8, 80482, Note_on_c, 5, 50, 87
8, 80485, Note_on_c, 5, 62, 105
8, 80655, Note_on_c, 5, 62, 0
8, 80682, Note_on_c, 5, 50, 0
8, 119050, Note_on_c, 5, 62, 100
8, 122837, Note_on_c, 5, 62, 0
8, 122885, Note_on_c, 5, 55, 80
8, 122885, Note_on_c, 5, 67, 72
8, 126565, Note_on_c, 5, 57, 76
8, 126565, Note_on_c, 5, 69, 82
8, 126575, Note_on_c, 5, 55, 0
8, 126592, Note_on_c, 5, 67, 0
8, 126717, Note_on_c, 5, 57, 0
8, 126725, Note_on_c, 5, 60, 72
8, 126732, Note_on_c, 5, 69, 0
8, 126735, Note_on_c, 5, 72, 91
8, 126845, Note_on_c, 5, 72, 0
8, 126847, Note_on_c, 5, 60, 0
8, 127202, Note_on_c, 5, 60, 87
8, 127205, Note_on_c, 5, 72, 89
8, 127302, Note_on_c, 5, 60, 0
8, 127305, Note_on_c, 5, 72, 0
8, 128165, Note_on_c, 5, 60, 80
8, 128165, Note_on_c, 5, 72, 89
8, 128270, Note_on_c, 5, 72, 0
8, 128270, Note_on_c, 5, 60, 0
8, 128647, Note_on_c, 5, 58, 98
8, 128647, Note_on_c, 5, 70, 95
8, 128757, Note_on_c, 5, 70, 0
8, 128757, Note_on_c, 5, 58, 0
8, 129125, Note_on_c, 5, 58, 85
8, 129125, Note_on_c, 5, 70, 105
8, 129237, Note_on_c, 5, 70, 0
8, 129240, Note_on_c, 5, 58, 0
8, 129922, Note_on_c, 5, 55, 82
8, 129925, Note_on_c, 5, 67, 82
8, 130002, Note_on_c, 5, 67, 0
8, 130057, Note_on_c, 5, 55, 0
8, 130085, Note_on_c, 5, 57, 98
8, 130085, Note_on_c, 5, 69, 102
8, 130555, Note_on_c, 5, 69, 0
8, 130557, Note_on_c, 5, 57, 0
8, 130567, Note_on_c, 5, 55, 85
8, 130567, Note_on_c, 5, 67, 105
8, 130585, Channel_aftertouch_c, 5, 3
8, 130642, Channel_aftertouch_c, 5, 0
8, 132487, Note_on_c, 5, 53, 57
8, 132487, Note_on_c, 5, 65, 53
8, 132495, Note_on_c, 5, 67, 0
8, 132495, Note_on_c, 5, 55, 0
8, 133450, Channel_aftertouch_c, 5, 21
8, 133517, Channel_aftertouch_c, 5, 66
8, 133587, Channel_aftertouch_c, 5, 104
8, 133652, Channel_aftertouch_c, 5, 127
8, 134020, Channel_aftertouch_c, 5, 97
8, 134087, Channel_aftertouch_c, 5, 52
8, 134155, Channel_aftertouch_c, 5, 32
8, 134247, Channel_aftertouch_c, 5, 34
8, 134320, Channel_aftertouch_c, 5, 0
8, 134375, Note_on_c, 5, 65, 0
8, 134385, Note_on_c, 5, 53, 0
8, 140482, Note_on_c, 5, 56, 107
8, 140482, Note_on_c, 5, 68, 122
8, 140632, Note_on_c, 5, 68, 0
8, 140677, Note_on_c, 5, 56, 0
8, 140962, Note_on_c, 5, 55, 87
8, 140962, Note_on_c, 5, 67, 102
8, 141085, Note_on_c, 5, 67, 0
8, 141127, Note_on_c, 5, 52, 82
8, 141130, Note_on_c, 5, 64, 100
8, 141142, Note_on_c, 5, 55, 0
8, 141382, Note_on_c, 5, 64, 0
8, 141397, Note_on_c, 5, 52, 0
8, 141442, Note_on_c, 5, 53, 85
8, 141442, Note_on_c, 5, 65, 85
8, 141552, Note_on_c, 5, 65, 0
8, 141610, Note_on_c, 5, 49, 98
8, 141610, Note_on_c, 5, 61, 107
8, 141622, Note_on_c, 5, 53, 0
8, 141852, Note_on_c, 5, 61, 0
8, 141915, Note_on_c, 5, 49, 0
8, 141922, Note_on_c, 5, 50, 87
8, 141925, Note_on_c, 5, 62, 105
8, 142097, Note_on_c, 5, 62, 0
8, 142122, Note_on_c, 5, 50, 0
8, 163215, Note_on_c, 5, 65, 80
8, 163215, Note_on_c, 5, 69, 85
8, 164167, Note_on_c, 5, 63, 76
8, 164945, Note_on_c, 5, 65, 0
8, 165120, Note_on_c, 5, 69, 0
8, 165130, Note_on_c, 5, 65, 87
8, 165130, Note_on_c, 5, 70, 78
8, 165150, Note_on_c, 5, 63, 0
8, 167050, Note_on_c, 5, 65, 0
8, 167070, Note_on_c, 5, 70, 0
8, 167070, End_track
9, 0, Start_track
9, 0, MIDI_port, 0
9, 0, Title_t, "Trombone"
9, 100, Control_c, 6, 121, 0
9, 200, Control_c, 6, 7, 110
9, 200, Control_c, 6, 10, 49
9, 205, Program_c, 6, 57
9, 215, Control_c, 6, 100, 0
9, 220, Control_c, 6, 101, 0
9, 227, Control_c, 6, 6, 2
9, 240, Control_c, 6, 11, 127
9, 240, Control_c, 6, 91, 80
9, 240, Control_c, 6, 93, 0
9, 3850, Note_on_c, 6, 65, 72
9, 3977, Note_on_c, 6, 65, 0
9, 4165, Note_on_c, 6, 65, 74
9, 4250, Note_on_c, 6, 65, 0
9, 4325, Note_on_c, 6, 65, 76
9, 4450, Note_on_c, 6, 65, 0
9, 4645, Note_on_c, 6, 66, 85
9, 4750, Note_on_c, 6, 66, 0
9, 5285, Note_on_c, 6, 66, 90
9, 5687, Note_on_c, 6, 66, 0
9, 5767, Note_on_c, 6, 67, 65
9, 6025, Note_on_c, 6, 67, 0
9, 6085, Note_on_c, 6, 69, 70
9, 6175, Note_on_c, 6, 69, 0
9, 6245, Note_on_c, 6, 70, 88
9, 6345, Note_on_c, 6, 70, 0
9, 6567, Note_on_c, 6, 74, 68
9, 6650, Note_on_c, 6, 74, 0
9, 7047, Note_on_c, 6, 72, 88
9, 7637, Note_on_c, 6, 72, 0
9, 7687, Note_on_c, 6, 65, 81
9, 7805, Note_on_c, 6, 65, 0
9, 8005, Note_on_c, 6, 65, 70
9, 8090, Note_on_c, 6, 65, 0
9, 8165, Note_on_c, 6, 65, 65
9, 8287, Note_on_c, 6, 65, 0
9, 8485, Note_on_c, 6, 66, 88
9, 8587, Note_on_c, 6, 66, 0
9, 9125, Note_on_c, 6, 66, 93
9, 9245, Note_on_c, 6, 66, 0
9, 9607, Note_on_c, 6, 67, 88
9, 9732, Note_on_c, 6, 67, 0
9, 9925, Note_on_c, 6, 69, 65
9, 10002, Note_on_c, 6, 69, 0
9, 10085, Note_on_c, 6, 70, 85
9, 10180, Note_on_c, 6, 70, 0
9, 10407, Note_on_c, 6, 74, 81
9, 10500, Note_on_c, 6, 74, 0
9, 10887, Note_on_c, 6, 72, 90
9, 11307, Note_on_c, 6, 72, 0
9, 42250, Note_on_c, 6, 58, 87
9, 42252, Note_on_c, 6, 70, 110
9, 44132, Note_on_c, 6, 58, 0
9, 44135, Note_on_c, 6, 70, 0
9, 44167, Note_on_c, 6, 62, 100
9, 44167, Note_on_c, 6, 69, 102
9, 46085, Note_on_c, 6, 63, 102
9, 46087, Note_on_c, 6, 70, 107
9, 46090, Note_on_c, 6, 62, 0
9, 46140, Note_on_c, 6, 69, 0
9, 47922, Note_on_c, 6, 70, 0
9, 47950, Note_on_c, 6, 63, 0
9, 48007, Note_on_c, 6, 58, 82
9, 48007, Note_on_c, 6, 70, 110
9, 49870, Note_on_c, 6, 70, 0
9, 49912, Note_on_c, 6, 58, 0
9, 49927, Note_on_c, 6, 63, 100
9, 49930, Note_on_c, 6, 75, 102
9, 50005, Note_on_c, 6, 75, 0
9, 50012, Note_on_c, 6, 63, 0
9, 51202, Note_on_c, 6, 58, 113
9, 51202, Note_on_c, 6, 70, 110
9, 51202, Note_on_c, 6, 82, 107
9, 51282, Note_on_c, 6, 70, 0
9, 51297, Channel_aftertouch_c, 6, 0
9, 51317, Note_on_c, 6, 82, 0
9, 51340, Note_on_c, 6, 58, 0
9, 53122, Note_on_c, 6, 55, 100
9, 53122, Note_on_c, 6, 58, 107
9, 53122, Note_on_c, 6, 67, 93
9, 53125, Note_on_c, 6, 70, 107
9, 53205, Note_on_c, 6, 67, 0
9, 53207, Note_on_c, 6, 70, 0
9, 53250, Note_on_c, 6, 58, 0
9, 53252, Note_on_c, 6, 55, 0
9, 53292, Note_on_c, 6, 54, 100
9, 53295, Note_on_c, 6, 57, 105
9, 53295, Note_on_c, 6, 65, 102
9, 53297, Note_on_c, 6, 69, 105
9, 53527, Note_on_c, 6, 69, 0
9, 53530, Note_on_c, 6, 65, 0
9, 53570, Note_on_c, 6, 54, 0
9, 53602, Note_on_c, 6, 55, 102
9, 53602, Note_on_c, 6, 58, 87
9, 53605, Note_on_c, 6, 67, 98
9, 53605, Note_on_c, 6, 70, 91
9, 53605, Note_on_c, 6, 71, 58
9, 53607, Note_on_c, 6, 57, 0
9, 53642, Note_on_c, 6, 71, 0
9, 53667, Note_on_c, 6, 70, 0
9, 53672, Note_on_c, 6, 67, 0
9, 53705, Note_on_c, 6, 58, 0
9, 53722, Note_on_c, 6, 55, 0
9, 72970, Note_on_c, 6, 58, 95
9, 72970, Note_on_c, 6, 65, 95
9, 73050, Note_on_c, 6, 58, 0
9, 73052, Note_on_c, 6, 65, 0
9, 73447, Note_on_c, 6, 58, 95
9, 73447, Note_on_c, 6, 65, 93
9, 73525, Note_on_c, 6, 58, 0
9, 73530, Note_on_c, 6, 65, 0
9, 73927, Note_on_c, 6, 58, 95
9, 73927, Note_on_c, 6, 65, 95
9, 74002, Note_on_c, 6, 58, 0
9, 74017, Note_on_c, 6, 65, 0
9, 74407, Note_on_c, 6, 58, 95
9, 74407, Note_on_c, 6, 65, 100
9, 74487, Note_on_c, 6, 58, 0
9, 74495, Note_on_c, 6, 65, 0
9, 74887, Note_on_c, 6, 58, 102
9, 74887, Note_on_c, 6, 65, 98
9, 74972, Note_on_c, 6, 58, 0
9, 74980, Note_on_c, 6, 65, 0
9, 75370, Note_on_c, 6, 58, 100
9, 75370, Note_on_c, 6, 65, 89
9, 75455, Note_on_c, 6, 58, 0
9, 75457, Note_on_c, 6, 65, 0
9, 75847, Note_on_c, 6, 58, 85
9, 75847, Note_on_c, 6, 65, 87
9, 75915, Note_on_c, 6, 58, 0
9, 75930, Note_on_c, 6, 65, 0
9, 76327, Note_on_c, 6, 58, 98
9, 76327, Note_on_c, 6, 65, 91
9, 76402, Note_on_c, 6, 58, 0
9, 76410, Note_on_c, 6, 65, 0
9, 76807, Note_on_c, 6, 58, 95
9, 76810, Note_on_c, 6, 65, 89
9, 76882, Note_on_c, 6, 58, 0
9, 76900, Note_on_c, 6, 65, 0
9, 77287, Note_on_c, 6, 58, 91
9, 77287, Note_on_c, 6, 65, 87
9, 77370, Note_on_c, 6, 65, 0
9, 77375, Note_on_c, 6, 58, 0
9, 77767, Note_on_c, 6, 58, 91
9, 77767, Note_on_c, 6, 65, 91
9, 77862, Note_on_c, 6, 65, 0
9, 77867, Note_on_c, 6, 58, 0
9, 78247, Note_on_c, 6, 58, 93
9, 78247, Note_on_c, 6, 65, 89
9, 78337, Note_on_c, 6, 58, 0
9, 78342, Note_on_c, 6, 65, 0
9, 78727, Note_on_c, 6, 58, 70
9, 78727, Note_on_c, 6, 65, 87
9, 78817, Note_on_c, 6, 65, 0
9, 78822, Note_on_c, 6, 58, 0
9, 79207, Note_on_c, 6, 58, 82
9, 79207, Note_on_c, 6, 65, 85
9, 79300, Note_on_c, 6, 65, 0
9, 79305, Note_on_c, 6, 58, 0
9, 79690, Note_on_c, 6, 58, 78
9, 79690, Note_on_c, 6, 65, 80
9, 79757, Note_on_c, 6, 65, 0
9, 79762, Note_on_c, 6, 58, 0
9, 80170, Note_on_c, 6, 58, 87
9, 80170, Note_on_c, 6, 65, 87
9, 80257, Note_on_c, 6, 65, 0
9, 80260, Note_on_c, 6, 58, 0
9, 80647, Note_on_c, 6, 58, 95
9, 80647, Note_on_c, 6, 67, 87
9, 80732, Note_on_c, 6, 58, 0
9, 80740, Note_on_c, 6, 67, 0
9, 81127, Note_on_c, 6, 58, 89
9, 81127, Note_on_c, 6, 67, 87
9, 81205, Note_on_c, 6, 67, 0
9, 81207, Note_on_c, 6, 58, 0
9, 81607, Note_on_c, 6, 58, 100
9, 81607, Note_on_c, 6, 67, 87
9, 81687, Note_on_c, 6, 58, 0
9, 81692, Note_on_c, 6, 67, 0
9, 82087, Note_on_c, 6, 58, 98
9, 82087, Note_on_c, 6, 67, 89
9, 82175, Note_on_c, 6, 58, 0
9, 82177, Note_on_c, 6, 67, 0
9, 82567, Note_on_c, 6, 58, 91
9, 82567, Note_on_c, 6, 67, 76
9, 82655, Note_on_c, 6, 67, 0
9, 82657, Note_on_c, 6, 58, 0
9, 83047, Note_on_c, 6, 58, 95
9, 83047, Note_on_c, 6, 67, 89
9, 83122, Note_on_c, 6, 67, 0
9, 83142, Note_on_c, 6, 58, 0
9, 83527, Note_on_c, 6, 58, 91
9, 83527, Note_on_c, 6, 67, 85
9, 83622, Note_on_c, 6, 67, 0
9, 83625, Note_on_c, 6, 58, 0
9, 84007, Note_on_c, 6, 58, 89
9, 84007, Note_on_c, 6, 67, 82
9, 84107, Note_on_c, 6, 67, 0
9, 84117, Note_on_c, 6, 58, 0
9, 84490, Note_on_c, 6, 60, 82
9, 84490, Note_on_c, 6, 67, 87
9, 84580, Note_on_c, 6, 60, 0
9, 84607, Note_on_c, 6, 67, 0
9, 84965, Note_on_c, 6, 60, 82
9, 84965, Note_on_c, 6, 67, 87
9, 85050, Note_on_c, 6, 60, 0
9, 85065, Note_on_c, 6, 67, 0
9, 85445, Note_on_c, 6, 60, 91
9, 85445, Note_on_c, 6, 67, 98
9, 85525, Note_on_c, 6, 60, 0
9, 85532, Note_on_c, 6, 67, 0
9, 85930, Note_on_c, 6, 60, 82
9, 85932, Note_on_c, 6, 67, 87
9, 86032, Note_on_c, 6, 67, 0
9, 86050, Note_on_c, 6, 60, 0
9, 86407, Note_on_c, 6, 60, 87
9, 86407, Note_on_c, 6, 65, 91
9, 86522, Note_on_c, 6, 60, 0
9, 86532, Note_on_c, 6, 65, 0
9, 86887, Note_on_c, 6, 60, 78
9, 86887, Note_on_c, 6, 63, 105
9, 86987, Note_on_c, 6, 63, 0
9, 86995, Note_on_c, 6, 60, 0
9, 87367, Note_on_c, 6, 60, 82
9, 87367, Note_on_c, 6, 62, 105
9, 87470, Note_on_c, 6, 62, 0
9, 87472, Note_on_c, 6, 60, 0
9, 87845, Note_on_c, 6, 60, 107
9, 87935, Note_on_c, 6, 60, 0
9, 88330, Note_on_c, 6, 58, 87
9, 88330, Note_on_c, 6, 70, 110
9, 90212, Note_on_c, 6, 70, 0
9, 90212, Note_on_c, 6, 58, 0
9, 90252, Note_on_c, 6, 62, 100
9, 90252, Note_on_c, 6, 69, 102
9, 92167, Note_on_c, 6, 63, 102
9, 92167, Note_on_c, 6, 70, 107
9, 92172, Note_on_c, 6, 62, 0
9, 92220, Note_on_c, 6, 69, 0
9, 94002, Note_on_c, 6, 70, 0
9, 94030, Note_on_c, 6, 63, 0
9, 94087, Note_on_c, 6, 58, 82
9, 94087, Note_on_c, 6, 70, 110
9, 95950, Note_on_c, 6, 70, 0
9, 95995, Note_on_c, 6, 58, 0
9, 96007, Note_on_c, 6, 63, 100
9, 96010, Note_on_c, 6, 75, 102
9, 96085, Note_on_c, 6, 75, 0
9, 96092, Note_on_c, 6, 63, 0
9, 97282, Note_on_c, 6, 58, 113
9, 97282, Note_on_c, 6, 70, 110
9, 97282, Note_on_c, 6, 82, 107
9, 97362, Note_on_c, 6, 70, 0
9, 97377, Channel_aftertouch_c, 6, 0
9, 97400, Note_on_c, 6, 82, 0
9, 97420, Note_on_c, 6, 58, 0
9, 99202, Note_on_c, 6, 55, 100
9, 99202, Note_on_c, 6, 58, 107
9, 99202, Note_on_c, 6, 67, 93
9, 99205, Note_on_c, 6, 70, 107
9, 99285, Note_on_c, 6, 67, 0
9, 99287, Note_on_c, 6, 70, 0
9, 99330, Note_on_c, 6, 58, 0
9, 99332, Note_on_c, 6, 55, 0
9, 99365, Note_on_c, 6, 54, 100
9, 99367, Note_on_c, 6, 57, 105
9, 99367, Note_on_c, 6, 65, 102
9, 99367, Note_on_c, 6, 69, 105
9, 99607, Note_on_c, 6, 69, 0
9, 99607, Note_on_c, 6, 65, 0
9, 99650, Note_on_c, 6, 54, 0
9, 99682, Note_on_c, 6, 55, 102
9, 99682, Note_on_c, 6, 58, 87
9, 99682, Note_on_c, 6, 67, 98
9, 99685, Note_on_c, 6, 57, 0
9, 99685, Note_on_c, 6, 70, 91
9, 99685, Note_on_c, 6, 71, 58
9, 99722, Note_on_c, 6, 71, 0
9, 99752, Note_on_c, 6, 67, 0
9, 99752, Note_on_c, 6, 70, 0
9, 99785, Note_on_c, 6, 58, 0
9, 99805, Note_on_c, 6, 55, 0
9, 102245, Note_on_c, 6, 53, 100
9, 102247, Note_on_c, 6, 65, 110
9, 102702, Note_on_c, 6, 65, 0
9, 102725, Note_on_c, 6, 55, 107
9, 102727, Note_on_c, 6, 53, 0
9, 102730, Note_on_c, 6, 67, 105
9, 103172, Note_on_c, 6, 67, 0
9, 103205, Note_on_c, 6, 57, 105
9, 103207, Note_on_c, 6, 69, 110
9, 103220, Note_on_c, 6, 55, 0
9, 103310, Channel_aftertouch_c, 6, 5
9, 103377, Channel_aftertouch_c, 6, 1
9, 103450, Channel_aftertouch_c, 6, 0
9, 103550, Note_on_c, 6, 69, 0
9, 103595, Note_on_c, 6, 57, 0
9, 106085, Note_on_c, 6, 65, 107
9, 106532, Note_on_c, 6, 65, 0
9, 106565, Note_on_c, 6, 64, 89
9, 107022, Note_on_c, 6, 64, 0
9, 107045, Note_on_c, 6, 62, 98
9, 107530, Note_on_c, 6, 62, 0
9, 109925, Note_on_c, 6, 64, 91
9, 110237, Note_on_c, 6, 64, 0
9, 110242, Note_on_c, 6, 65, 85
9, 110405, Note_on_c, 6, 72, 102
9, 110427, Note_on_c, 6, 65, 0
9, 110857, Note_on_c, 6, 72, 0
9, 110885, Note_on_c, 6, 70, 102
9, 111177, Note_on_c, 6, 70, 0
9, 112737, Channel_aftertouch_c, 6, 0
9, 114562, Note_on_c, 6, 55, 100
9, 114562, Note_on_c, 6, 58, 107
9, 114562, Note_on_c, 6, 67, 93
9, 114562, Note_on_c, 6, 70, 107
9, 114645, Note_on_c, 6, 70, 0
9, 114645, Note_on_c, 6, 67, 0
9, 114690, Note_on_c, 6, 58, 0
9, 114692, Note_on_c, 6, 55, 0
9, 114722, Note_on_c, 6, 54, 100
9, 114722, Note_on_c, 6, 57, 105
9, 114722, Note_on_c, 6, 65, 102
9, 114722, Note_on_c, 6, 69, 105
9, 114967, Note_on_c, 6, 69, 0
9, 114970, Note_on_c, 6, 65, 0
9, 115010, Note_on_c, 6, 54, 0
9, 115042, Note_on_c, 6, 55, 102
9, 115042, Note_on_c, 6, 58, 87
9, 115042, Note_on_c, 6, 67, 98
9, 115045, Note_on_c, 6, 57, 0
9, 115045, Note_on_c, 6, 70, 91
9, 115045, Note_on_c, 6, 71, 58
9, 115082, Note_on_c, 6, 71, 0
9, 115107, Note_on_c, 6, 70, 0
9, 115112, Note_on_c, 6, 67, 0
9, 115145, Note_on_c, 6, 58, 0
9, 115165, Note_on_c, 6, 55, 0
9, 134410, Note_on_c, 6, 58, 95
9, 134410, Note_on_c, 6, 65, 95
9, 134490, Note_on_c, 6, 58, 0
9, 134492, Note_on_c, 6, 65, 0
9, 134887, Note_on_c, 6, 58, 95
9, 134887, Note_on_c, 6, 65, 93
9, 134965, Note_on_c, 6, 58, 0
9, 134970, Note_on_c, 6, 65, 0
9, 135367, Note_on_c, 6, 58, 95
9, 135367, Note_on_c, 6, 65, 95
9, 135442, Note_on_c, 6, 58, 0
9, 135460, Note_on_c, 6, 65, 0
9, 135847, Note_on_c, 6, 58, 95
9, 135847, Note_on_c, 6, 65, 100
9, 135927, Note_on_c, 6, 58, 0
9, 135935, Note_on_c, 6, 65, 0
9, 136327, Note_on_c, 6, 58, 102
9, 136327, Note_on_c, 6, 65, 98
9, 136412, Note_on_c, 6, 58, 0
9, 136420, Note_on_c, 6, 65, 0
9, 136810, Note_on_c, 6, 58, 100
9, 136810, Note_on_c, 6, 65, 89
9, 136895, Note_on_c, 6, 58, 0
9, 136897, Note_on_c, 6, 65, 0
9, 137287, Note_on_c, 6, 58, 85
9, 137287, Note_on_c, 6, 65, 87
9, 137355, Note_on_c, 6, 58, 0
9, 137370, Note_on_c, 6, 65, 0
9, 137767, Note_on_c, 6, 58, 98
9, 137770, Note_on_c, 6, 65, 91
9, 137842, Note_on_c, 6, 58, 0
9, 137850, Note_on_c, 6, 65, 0
9, 138247, Note_on_c, 6, 58, 95
9, 138247, Note_on_c, 6, 65, 89
9, 138322, Note_on_c, 6, 58, 0
9, 138340, Note_on_c, 6, 65, 0
9, 138727, Note_on_c, 6, 58, 91
9, 138727, Note_on_c, 6, 65, 87
9, 138810, Note_on_c, 6, 65, 0
9, 138815, Note_on_c, 6, 58, 0
9, 139207, Note_on_c, 6, 58, 91
9, 139207, Note_on_c, 6, 65, 91
9, 139302, Note_on_c, 6, 65, 0
9, 139305, Note_on_c, 6, 58, 0
9, 139687, Note_on_c, 6, 58, 93
9, 139687, Note_on_c, 6, 65, 89
9, 139777, Note_on_c, 6, 58, 0
9, 139782, Note_on_c, 6, 65, 0
9, 140167, Note_on_c, 6, 58, 70
9, 140167, Note_on_c, 6, 65, 87
9, 140257, Note_on_c, 6, 65, 0
9, 140262, Note_on_c, 6, 58, 0
9, 140647, Note_on_c, 6, 58, 82
9, 140647, Note_on_c, 6, 65, 85
9, 140740, Note_on_c, 6, 65, 0
9, 140745, Note_on_c, 6, 58, 0
9, 141130, Note_on_c, 6, 58, 78
9, 141130, Note_on_c, 6, 65, 80
9, 141197, Note_on_c, 6, 65, 0
9, 141202, Note_on_c, 6, 58, 0
9, 141610, Note_on_c, 6, 58, 87
9, 141610, Note_on_c, 6, 65, 87
9, 141697, Note_on_c, 6, 65, 0
9, 141697, Note_on_c, 6, 58, 0
9, 142090, Note_on_c, 6, 58, 95
9, 142090, Note_on_c, 6, 67, 87
9, 142172, Note_on_c, 6, 58, 0
9, 142180, Note_on_c, 6, 67, 0
9, 142567, Note_on_c, 6, 58, 89
9, 142570, Note_on_c, 6, 67, 87
9, 142645, Note_on_c, 6, 67, 0
9, 142645, Note_on_c, 6, 58, 0
9, 143047, Note_on_c, 6, 58, 100
9, 143050, Note_on_c, 6, 67, 87
9, 143127, Note_on_c, 6, 58, 0
9, 143132, Note_on_c, 6, 67, 0
9, 143527, Note_on_c, 6, 58, 98
9, 143527, Note_on_c, 6, 67, 89
9, 143615, Note_on_c, 6, 58, 0
9, 143617, Note_on_c, 6, 67, 0
9, 144007, Note_on_c, 6, 58, 91
9, 144007, Note_on_c, 6, 67, 76
9, 144095, Note_on_c, 6, 67, 0
9, 144097, Note_on_c, 6, 58, 0
9, 144487, Note_on_c, 6, 58, 95
9, 144487, Note_on_c, 6, 67, 89
9, 144562, Note_on_c, 6, 67, 0
9, 144582, Note_on_c, 6, 58, 0
9, 144967, Note_on_c, 6, 58, 91
9, 144967, Note_on_c, 6, 67, 85
9, 145062, Note_on_c, 6, 67, 0
9, 145062, Note_on_c, 6, 58, 0
9, 145447, Note_on_c, 6, 58, 89
9, 145447, Note_on_c, 6, 67, 82
9, 145547, Note_on_c, 6, 67, 0
9, 145557, Note_on_c, 6, 58, 0
9, 145927, Note_on_c, 6, 60, 82
9, 145930, Note_on_c, 6, 67, 87
9, 146020, Note_on_c, 6, 60, 0
9, 146047, Note_on_c, 6, 67, 0
9, 146405, Note_on_c, 6, 60, 82
9, 146405, Note_on_c, 6, 67, 87
9, 146492, Note_on_c, 6, 60, 0
9, 146505, Note_on_c, 6, 67, 0
9, 146885, Note_on_c, 6, 60, 91
9, 146885, Note_on_c, 6, 67, 98
9, 146962, Note_on_c, 6, 60, 0
9, 146970, Note_on_c, 6, 67, 0
9, 147367, Note_on_c, 6, 60, 82
9, 147367, Note_on_c, 6, 67, 87
9, 147472, Note_on_c, 6, 67, 0
9, 147490, Note_on_c, 6, 60, 0
9, 147847, Note_on_c, 6, 60, 87
9, 147847, Note_on_c, 6, 65, 91
9, 147962, Note_on_c, 6, 60, 0
9, 147972, Note_on_c, 6, 65, 0
9, 148327, Note_on_c, 6, 60, 78
9, 148327, Note_on_c, 6, 63, 105
9, 148427, Note_on_c, 6, 63, 0
9, 148437, Note_on_c, 6, 60, 0
9, 148807, Note_on_c, 6, 60, 82
9, 148807, Note_on_c, 6, 62, 105
9, 148910, Note_on_c, 6, 62, 0
9, 148915, Note_on_c, 6, 60, 0
9, 149285, Note_on_c, 6, 60, 107
9, 149372, Note_on_c, 6, 60, 0
9, 149372, End_track
10, 0, Start_track
10, 0, MIDI_port, 0
10, 0, Title_t, "Piano1  "
10, 100, Control_c, 7, 121, 0
10, 200, Control_c, 7, 7, 100
10, 200, Control_c, 7, 10, 44
10, 205, Program_c, 7, 0
10, 217, Control_c, 7, 100, 0
10, 220, Control_c, 7, 101, 0
10, 230, Control_c, 7, 6, 12
10, 240, Control_c, 7, 11, 127
10, 240, Control_c, 7, 91, 40
10, 240, Control_c, 7, 93, 0
10, 11525, Note_on_c, 7, 65, 95
10, 11590, Note_on_c, 7, 65, 0
10, 12322, Note_on_c, 7, 65, 66
10, 12402, Note_on_c, 7, 65, 0
10, 12487, Note_on_c, 7, 66, 91
10, 12527, Note_on_c, 7, 66, 0
10, 13282, Note_on_c, 7, 66, 57
10, 13347, Note_on_c, 7, 66, 0
10, 13447, Note_on_c, 7, 67, 82
10, 13497, Note_on_c, 7, 67, 0
10, 14402, Note_on_c, 7, 67, 82
10, 14445, Note_on_c, 7, 67, 0
10, 19205, Note_on_c, 7, 65, 89
10, 19260, Note_on_c, 7, 65, 0
10, 20002, Note_on_c, 7, 65, 74
10, 20067, Note_on_c, 7, 65, 0
10, 20167, Note_on_c, 7, 66, 87
10, 20212, Note_on_c, 7, 66, 0
10, 20962, Note_on_c, 7, 66, 25
10, 20985, Note_on_c, 7, 66, 0
10, 21127, Note_on_c, 7, 67, 102
10, 21182, Note_on_c, 7, 67, 0
10, 22082, Note_on_c, 7, 67, 89
10, 22122, Note_on_c, 7, 67, 0
10, 23050, Note_on_c, 7, 65, 82
10, 23095, Note_on_c, 7, 65, 0
10, 24002, Note_on_c, 7, 65, 85
10, 24050, Note_on_c, 7, 65, 0
10, 38730, Note_on_c, 7, 58, 70
10, 38730, Note_on_c, 7, 70, 93
10, 38792, Note_on_c, 7, 70, 0
10, 38812, Note_on_c, 7, 58, 0
10, 39365, Note_on_c, 7, 57, 76
10, 39367, Note_on_c, 7, 69, 61
10, 39405, Note_on_c, 7, 69, 0
10, 39507, Note_on_c, 7, 57, 0
10, 39845, Note_on_c, 7, 55, 78
10, 39847, Note_on_c, 7, 67, 85
10, 39907, Note_on_c, 7, 67, 0
10, 39937, Note_on_c, 7, 55, 0
10, 40327, Note_on_c, 7, 53, 87
10, 40327, Note_on_c, 7, 65, 87
10, 40395, Note_on_c, 7, 65, 0
10, 40435, Note_on_c, 7, 53, 0
10, 40807, Note_on_c, 7, 51, 87
10, 40807, Note_on_c, 7, 63, 98
10, 40887, Note_on_c, 7, 63, 0
10, 40897, Note_on_c, 7, 51, 0
10, 41285, Note_on_c, 7, 50, 87
10, 41287, Note_on_c, 7, 62, 95
10, 41347, Note_on_c, 7, 62, 0
10, 41380, Note_on_c, 7, 50, 0
10, 41765, Note_on_c, 7, 48, 98
10, 41767, Note_on_c, 7, 60, 87
10, 41825, Note_on_c, 7, 60, 0
10, 41857, Note_on_c, 7, 48, 0
10, 41857, End_track
11, 0, Start_track
11, 0, MIDI_port, 0
11, 0, Title_t, "ChoirAah"
11, 100, Control_c, 8, 121, 0
11, 200, Control_c, 8, 7, 100
11, 200, Control_c, 8, 10, 84
11, 207, Program_c, 8, 52
11, 217, Control_c, 8, 100, 0
11, 220, Control_c, 8, 101, 0
11, 230, Control_c, 8, 6, 2
11, 240, Control_c, 8, 11, 127
11, 240, Control_c, 8, 91, 91
11, 240, Control_c, 8, 93, 50
11, 58565, Note_on_c, 8, 63, 68
11, 58565, Note_on_c, 8, 75, 82
11, 59515, Note_on_c, 8, 75, 0
11, 59520, Note_on_c, 8, 63, 0
11, 59525, Note_on_c, 8, 62, 68
11, 59527, Note_on_c, 8, 74, 82
11, 61370, Note_on_c, 8, 74, 0
11, 61372, Note_on_c, 8, 62, 0
11, 61450, Note_on_c, 8, 67, 59
11, 61450, Note_on_c, 8, 79, 51
11, 62405, Note_on_c, 8, 69, 87
11, 62405, Note_on_c, 8, 81, 87
11, 62455, Note_on_c, 8, 79, 0
11, 62497, Note_on_c, 8, 67, 0
11, 63270, Note_on_c, 8, 69, 0
11, 63302, Note_on_c, 8, 81, 0
11, 63365, Note_on_c, 8, 67, 62
11, 63365, Note_on_c, 8, 79, 64
11, 65252, Note_on_c, 8, 67, 0
11, 65287, Note_on_c, 8, 72, 70
11, 65290, Note_on_c, 8, 84, 87
11, 65317, Note_on_c, 8, 79, 0
11, 65357, Note_on_c, 8, 84, 0
11, 65397, Note_on_c, 8, 72, 0
11, 65605, Note_on_c, 8, 72, 66
11, 65605, Note_on_c, 8, 84, 68
11, 65652, Note_on_c, 8, 84, 0
11, 65662, Note_on_c, 8, 72, 0
11, 65767, Note_on_c, 8, 72, 66
11, 65767, Note_on_c, 8, 84, 68
11, 65815, Note_on_c, 8, 84, 0
11, 65852, Note_on_c, 8, 72, 0
11, 66087, Note_on_c, 8, 72, 87
11, 66087, Note_on_c, 8, 84, 89
11, 66177, Note_on_c, 8, 84, 0
11, 66195, Note_on_c, 8, 72, 0
11, 67210, Note_on_c, 8, 70, 80
11, 67210, Note_on_c, 8, 82, 100
11, 67300, Note_on_c, 8, 82, 0
11, 67305, Note_on_c, 8, 70, 0
11, 67522, Note_on_c, 8, 70, 62
11, 67525, Note_on_c, 8, 82, 78
11, 67562, Note_on_c, 8, 82, 0
11, 67605, Note_on_c, 8, 70, 0
11, 67687, Note_on_c, 8, 70, 68
11, 67687, Note_on_c, 8, 82, 87
11, 67762, Note_on_c, 8, 82, 0
11, 67782, Note_on_c, 8, 70, 0
11, 68007, Note_on_c, 8, 70, 85
11, 68007, Note_on_c, 8, 82, 98
11, 68092, Note_on_c, 8, 82, 0
11, 68132, Note_on_c, 8, 70, 0
11, 69607, Note_on_c, 8, 67, 62
11, 69607, Note_on_c, 8, 79, 68
11, 70372, Note_on_c, 8, 67, 0
11, 70385, Note_on_c, 8, 79, 0
11, 70405, Note_on_c, 8, 65, 59
11, 70405, Note_on_c, 8, 77, 78
11, 70565, Note_on_c, 8, 67, 62
11, 70567, Note_on_c, 8, 79, 66
11, 70590, Note_on_c, 8, 65, 0
11, 70617, Note_on_c, 8, 77, 0
11, 71005, Note_on_c, 8, 79, 0
11, 71015, Note_on_c, 8, 67, 0
11, 71052, Note_on_c, 8, 65, 48
11, 71052, Note_on_c, 8, 77, 68
11, 72880, Note_on_c, 8, 65, 0
11, 72905, Note_on_c, 8, 77, 0
11, 72972, Note_on_c, 8, 58, 82
11, 72972, Note_on_c, 8, 65, 89
11, 73072, Note_on_c, 8, 58, 0
11, 73075, Note_on_c, 8, 65, 0
11, 73447, Note_on_c, 8, 58, 74
11, 73450, Note_on_c, 8, 65, 89
11, 73547, Note_on_c, 8, 58, 0
11, 73555, Note_on_c, 8, 65, 0
11, 73927, Note_on_c, 8, 58, 80
11, 73930, Note_on_c, 8, 65, 85
11, 74040, Note_on_c, 8, 58, 0
11, 74060, Note_on_c, 8, 65, 0
11, 74407, Note_on_c, 8, 58, 82
11, 74407, Note_on_c, 8, 65, 87
11, 74520, Note_on_c, 8, 65, 0
11, 74527, Note_on_c, 8, 58, 0
11, 74890, Note_on_c, 8, 58, 72
11, 74890, Note_on_c, 8, 65, 85
11, 74992, Note_on_c, 8, 65, 0
11, 74995, Note_on_c, 8, 58, 0
11, 75202, Note_on_c, 8, 70, 100
11, 75325, Note_on_c, 8, 70, 0
11, 75370, Note_on_c, 8, 74, 87
11, 75372, Note_on_c, 8, 58, 85
11, 75372, Note_on_c, 8, 65, 95
11, 75460, Note_on_c, 8, 58, 0
11, 75475, Note_on_c, 8, 65, 0
11, 75630, Note_on_c, 8, 74, 0
11, 75682, Note_on_c, 8, 77, 89
11, 75807, Note_on_c, 8, 77, 0
11, 75850, Note_on_c, 8, 58, 72
11, 75850, Note_on_c, 8, 65, 80
11, 75957, Note_on_c, 8, 65, 0
11, 75962, Note_on_c, 8, 58, 0
11, 76330, Note_on_c, 8, 58, 87
11, 76330, Note_on_c, 8, 65, 89
11, 76425, Note_on_c, 8, 65, 0
11, 76432, Note_on_c, 8, 58, 0
11, 76810, Note_on_c, 8, 58, 53
11, 76810, Note_on_c, 8, 65, 91
11, 76912, Note_on_c, 8, 65, 0
11, 76920, Note_on_c, 8, 58, 0
11, 77290, Note_on_c, 8, 58, 82
11, 77290, Note_on_c, 8, 65, 100
11, 77385, Note_on_c, 8, 65, 0
11, 77417, Note_on_c, 8, 58, 0
11, 77770, Note_on_c, 8, 58, 78
11, 77770, Note_on_c, 8, 65, 98
11, 77867, Note_on_c, 8, 65, 0
11, 77895, Note_on_c, 8, 58, 0
11, 78247, Note_on_c, 8, 58, 80
11, 78250, Note_on_c, 8, 65, 100
11, 78345, Note_on_c, 8, 65, 0
11, 78347, Note_on_c, 8, 58, 0
11, 78730, Note_on_c, 8, 58, 98
11, 78730, Note_on_c, 8, 65, 100
11, 78820, Note_on_c, 8, 65, 0
11, 78837, Note_on_c, 8, 58, 0
11, 79045, Note_on_c, 8, 68, 100
11, 79045, Note_on_c, 8, 80, 119
11, 79162, Note_on_c, 8, 80, 0
11, 79210, Note_on_c, 8, 58, 80
11, 79210, Note_on_c, 8, 65, 102
11, 79285, Note_on_c, 8, 68, 0
11, 79300, Note_on_c, 8, 65, 0
11, 79310, Note_on_c, 8, 58, 0
11, 79525, Note_on_c, 8, 67, 78
11, 79525, Note_on_c, 8, 79, 98
11, 79637, Note_on_c, 8, 79, 0
11, 79692, Note_on_c, 8, 58, 100
11, 79692, Note_on_c, 8, 63, 85
11, 79692, Note_on_c, 8, 64, 93
11, 79692, Note_on_c, 8, 76, 102
11, 79695, Note_on_c, 8, 65, 102
11, 79700, Note_on_c, 8, 63, 0
11, 79700, Note_on_c, 8, 67, 0
11, 79790, Note_on_c, 8, 65, 0
11, 79797, Note_on_c, 8, 58, 0
11, 79942, Note_on_c, 8, 76, 0
11, 79957, Note_on_c, 8, 64, 0
11, 80005, Note_on_c, 8, 65, 82
11, 80005, Note_on_c, 8, 77, 100
11, 80095, Note_on_c, 8, 77, 0
11, 80172, Note_on_c, 8, 58, 87
11, 80172, Note_on_c, 8, 61, 102
11, 80172, Note_on_c, 8, 65, 100
11, 80172, Note_on_c, 8, 73, 100
11, 80180, Note_on_c, 8, 65, 0
11, 80180, Note_on_c, 8, 65, 0
11, 80292, Note_on_c, 8, 58, 0
11, 80407, Note_on_c, 8, 61, 0
11, 80417, Note_on_c, 8, 73, 0
11, 80485, Note_on_c, 8, 62, 98
11, 80485, Note_on_c, 8, 74, 102
11, 80532, Channel_aftertouch_c, 8, 26
11, 80590, Channel_aftertouch_c, 8, 0
11, 80625, Note_on_c, 8, 74, 0
11, 80650, Note_on_c, 8, 63, 102
11, 80650, Note_on_c, 8, 70, 105
11, 80652, Note_on_c, 8, 62, 0
11, 80762, Note_on_c, 8, 70, 0
11, 80772, Note_on_c, 8, 63, 0
11, 81130, Note_on_c, 8, 63, 100
11, 81130, Note_on_c, 8, 70, 107
11, 81217, Note_on_c, 8, 70, 0
11, 81222, Note_on_c, 8, 63, 0
11, 81610, Note_on_c, 8, 63, 102
11, 81610, Note_on_c, 8, 70, 105
11, 81707, Note_on_c, 8, 70, 0
11, 81722, Note_on_c, 8, 63, 0
11, 82090, Note_on_c, 8, 63, 102
11, 82090, Note_on_c, 8, 70, 107
11, 82165, Note_on_c, 8, 70, 0
11, 82185, Note_on_c, 8, 63, 0
11, 82567, Note_on_c, 8, 63, 105
11, 82570, Note_on_c, 8, 70, 107
11, 82645, Note_on_c, 8, 70, 0
11, 82677, Note_on_c, 8, 63, 0
11, 83050, Note_on_c, 8, 63, 95
11, 83050, Note_on_c, 8, 70, 105
11, 83132, Note_on_c, 8, 70, 0
11, 83137, Note_on_c, 8, 63, 0
11, 83527, Note_on_c, 8, 63, 93
11, 83530, Note_on_c, 8, 70, 107
11, 83630, Note_on_c, 8, 63, 0
11, 83632, Note_on_c, 8, 70, 0
11, 84010, Note_on_c, 8, 63, 91
11, 84010, Note_on_c, 8, 70, 107
11, 84120, Note_on_c, 8, 63, 0
11, 84135, Note_on_c, 8, 70, 0
11, 84490, Note_on_c, 8, 82, 87
11, 84492, Note_on_c, 8, 60, 100
11, 84492, Note_on_c, 8, 67, 89
11, 84492, Note_on_c, 8, 70, 102
11, 84572, Note_on_c, 8, 67, 0
11, 84600, Note_on_c, 8, 60, 0
11, 84602, Note_on_c, 8, 70, 0
11, 84802, Note_on_c, 8, 81, 85
11, 84812, Note_on_c, 8, 82, 0
11, 84967, Note_on_c, 8, 60, 98
11, 84967, Note_on_c, 8, 67, 87
11, 84967, Note_on_c, 8, 70, 98
11, 84967, Note_on_c, 8, 79, 85
11, 85020, Note_on_c, 8, 81, 0
11, 85042, Note_on_c, 8, 67, 0
11, 85050, Note_on_c, 8, 70, 0
11, 85067, Note_on_c, 8, 60, 0
11, 85272, Note_on_c, 8, 79, 0
11, 85282, Note_on_c, 8, 81, 89
11, 85447, Note_on_c, 8, 60, 100
11, 85447, Note_on_c, 8, 67, 91
11, 85447, Note_on_c, 8, 82, 76
11, 85450, Note_on_c, 8, 70, 93
11, 85502, Note_on_c, 8, 81, 0
11, 85527, Note_on_c, 8, 67, 0
11, 85540, Note_on_c, 8, 70, 0
11, 85542, Note_on_c, 8, 60, 0
11, 85895, Note_on_c, 8, 82, 0
11, 85935, Note_on_c, 8, 60, 100
11, 85935, Note_on_c, 8, 79, 74
11, 85937, Note_on_c, 8, 67, 87
11, 85937, Note_on_c, 8, 70, 95
11, 86015, Note_on_c, 8, 67, 0
11, 86022, Note_on_c, 8, 70, 0
11, 86030, Note_on_c, 8, 60, 0
11, 86407, Note_on_c, 8, 81, 78
11, 86410, Note_on_c, 8, 60, 85
11, 86410, Note_on_c, 8, 65, 100
11, 86410, Note_on_c, 8, 69, 100
11, 86422, Note_on_c, 8, 79, 0
11, 86495, Note_on_c, 8, 65, 0
11, 86500, Note_on_c, 8, 69, 0
11, 86527, Note_on_c, 8, 60, 0
11, 86887, Note_on_c, 8, 77, 110
11, 86890, Note_on_c, 8, 63, 102
11, 86982, Note_on_c, 8, 63, 0
11, 87340, Note_on_c, 8, 77, 0
11, 87367, Note_on_c, 8, 79, 95
11, 87370, Note_on_c, 8, 62, 98
11, 87455, Note_on_c, 8, 62, 0
11, 87847, Note_on_c, 8, 60, 102
11, 87847, Note_on_c, 8, 81, 102
11, 87857, Note_on_c, 8, 79, 0
11, 87932, Note_on_c, 8, 60, 0
11, 88125, Note_on_c, 8, 81, 0
11, 88125, Note_on_c, 8, 81, 0
11, 104165, Note_on_c, 8, 76, 91
11, 104482, Note_on_c, 8, 77, 76
11, 104492, Note_on_c, 8, 76, 0
11, 104645, Note_on_c, 8, 84, 78
11, 104675, Note_on_c, 8, 77, 0
11, 105127, Note_on_c, 8, 82, 72
11, 105150, Note_on_c, 8, 84, 0
11, 105565, Note_on_c, 8, 82, 0
11, 105605, Note_on_c, 8, 81, 87
11, 106085, Note_on_c, 8, 65, 91
11, 106565, Note_on_c, 8, 64, 85
11, 106575, Note_on_c, 8, 65, 0
11, 107037, Note_on_c, 8, 64, 0
11, 107047, Note_on_c, 8, 62, 91
11, 107500, Note_on_c, 8, 62, 0
11, 107515, Note_on_c, 8, 81, 0
11, 107527, Note_on_c, 8, 79, 47
11, 107937, Note_on_c, 8, 79, 0
11, 108005, Note_on_c, 8, 78, 89
11, 108322, Note_on_c, 8, 79, 89
11, 108352, Note_on_c, 8, 78, 0
11, 108485, Note_on_c, 8, 89, 78
11, 108500, Note_on_c, 8, 79, 0
11, 108947, Note_on_c, 8, 89, 0
11, 108965, Note_on_c, 8, 87, 89
11, 109422, Note_on_c, 8, 87, 0
11, 109447, Note_on_c, 8, 86, 89
11, 109925, Note_on_c, 8, 64, 102
11, 110222, Note_on_c, 8, 64, 0
11, 110245, Note_on_c, 8, 65, 91
11, 110400, Note_on_c, 8, 65, 0
11, 110407, Note_on_c, 8, 72, 102
11, 110855, Note_on_c, 8, 72, 0
11, 110885, Note_on_c, 8, 70, 91
11, 111240, Note_on_c, 8, 86, 0
11, 111292, Note_on_c, 8, 70, 0
11, 111370, Note_on_c, 8, 83, 51
11, 111380, Note_on_c, 8, 83, 0
11, 120005, Note_on_c, 8, 63, 68
11, 120005, Note_on_c, 8, 75, 82
11, 120955, Note_on_c, 8, 75, 0
11, 120960, Note_on_c, 8, 63, 0
11, 120965, Note_on_c, 8, 62, 68
11, 120965, Note_on_c, 8, 74, 82
11, 122810, Note_on_c, 8, 74, 0
11, 122812, Note_on_c, 8, 62, 0
11, 122887, Note_on_c, 8, 67, 59
11, 122890, Note_on_c, 8, 79, 51
11, 123845, Note_on_c, 8, 69, 87
11, 123845, Note_on_c, 8, 81, 87
11, 123895, Note_on_c, 8, 79, 0
11, 123937, Note_on_c, 8, 67, 0
11, 124710, Note_on_c, 8, 69, 0
11, 124742, Note_on_c, 8, 81, 0
11, 124805, Note_on_c, 8, 67, 62
11, 124807, Note_on_c, 8, 79, 64
11, 126692, Note_on_c, 8, 67, 0
11, 126727, Note_on_c, 8, 72, 70
11, 126730, Note_on_c, 8, 84, 87
11, 126757, Note_on_c, 8, 79, 0
11, 126797, Note_on_c, 8, 84, 0
11, 126837, Note_on_c, 8, 72, 0
11, 127045, Note_on_c, 8, 72, 66
11, 127045, Note_on_c, 8, 84, 68
11, 127092, Note_on_c, 8, 84, 0
11, 127102, Note_on_c, 8, 72, 0
11, 127207, Note_on_c, 8, 72, 66
11, 127207, Note_on_c, 8, 84, 68
11, 127255, Note_on_c, 8, 84, 0
11, 127292, Note_on_c, 8, 72, 0
11, 127527, Note_on_c, 8, 72, 87
11, 127527, Note_on_c, 8, 84, 89
11, 127617, Note_on_c, 8, 84, 0
11, 127635, Note_on_c, 8, 72, 0
11, 128650, Note_on_c, 8, 70, 80
11, 128650, Note_on_c, 8, 82, 100
11, 128740, Note_on_c, 8, 82, 0
11, 128745, Note_on_c, 8, 70, 0
11, 128965, Note_on_c, 8, 70, 62
11, 128965, Note_on_c, 8, 82, 78
11, 129002, Note_on_c, 8, 82, 0
11, 129045, Note_on_c, 8, 70, 0
11, 129127, Note_on_c, 8, 70, 68
11, 129127, Note_on_c, 8, 82, 87
11, 129202, Note_on_c, 8, 82, 0
11, 129222, Note_on_c, 8, 70, 0
11, 129447, Note_on_c, 8, 70, 85
11, 129447, Note_on_c, 8, 82, 98
11, 129532, Note_on_c, 8, 82, 0
11, 129575, Note_on_c, 8, 70, 0
11, 131047, Note_on_c, 8, 67, 62
11, 131047, Note_on_c, 8, 79, 68
11, 131812, Note_on_c, 8, 67, 0
11, 131822, Note_on_c, 8, 79, 0
11, 131845, Note_on_c, 8, 65, 59
11, 131845, Note_on_c, 8, 77, 78
11, 132005, Note_on_c, 8, 67, 62
11, 132005, Note_on_c, 8, 79, 66
11, 132032, Note_on_c, 8, 65, 0
11, 132057, Note_on_c, 8, 77, 0
11, 132445, Note_on_c, 8, 79, 0
11, 132455, Note_on_c, 8, 67, 0
11, 132490, Note_on_c, 8, 65, 48
11, 132492, Note_on_c, 8, 77, 68
11, 134320, Note_on_c, 8, 65, 0
11, 134345, Note_on_c, 8, 77, 0
11, 134412, Note_on_c, 8, 58, 82
11, 134412, Note_on_c, 8, 65, 89
11, 134512, Note_on_c, 8, 65, 0
11, 134512, Note_on_c, 8, 58, 0
11, 134887, Note_on_c, 8, 58, 74
11, 134890, Note_on_c, 8, 65, 89
11, 134987, Note_on_c, 8, 58, 0
11, 134995, Note_on_c, 8, 65, 0
11, 135367, Note_on_c, 8, 58, 80
11, 135370, Note_on_c, 8, 65, 85
11, 135480, Note_on_c, 8, 58, 0
11, 135497, Note_on_c, 8, 65, 0
11, 135847, Note_on_c, 8, 58, 82
11, 135850, Note_on_c, 8, 65, 87
11, 135960, Note_on_c, 8, 65, 0
11, 135967, Note_on_c, 8, 58, 0
11, 136330, Note_on_c, 8, 58, 72
11, 136330, Note_on_c, 8, 65, 85
11, 136435, Note_on_c, 8, 65, 0
11, 136437, Note_on_c, 8, 58, 0
11, 136645, Note_on_c, 8, 70, 100
11, 136765, Note_on_c, 8, 70, 0
11, 136810, Note_on_c, 8, 74, 87
11, 136812, Note_on_c, 8, 58, 85
11, 136812, Note_on_c, 8, 65, 95
11, 136900, Note_on_c, 8, 58, 0
11, 136915, Note_on_c, 8, 65, 0
11, 137070, Note_on_c, 8, 74, 0
11, 137122, Note_on_c, 8, 77, 89
11, 137245, Note_on_c, 8, 77, 0
11, 137287, Note_on_c, 8, 58, 72
11, 137290, Note_on_c, 8, 65, 80
11, 137397, Note_on_c, 8, 65, 0
11, 137402, Note_on_c, 8, 58, 0
11, 137770, Note_on_c, 8, 58, 87
11, 137770, Note_on_c, 8, 65, 89
11, 137867, Note_on_c, 8, 65, 0
11, 137872, Note_on_c, 8, 58, 0
11, 138250, Note_on_c, 8, 58, 53
11, 138250, Note_on_c, 8, 65, 91
11, 138352, Note_on_c, 8, 65, 0
11, 138360, Note_on_c, 8, 58, 0
11, 138730, Note_on_c, 8, 58, 82
11, 138730, Note_on_c, 8, 65, 100
11, 138822, Note_on_c, 8, 65, 0
11, 138855, Note_on_c, 8, 58, 0
11, 139210, Note_on_c, 8, 58, 78
11, 139210, Note_on_c, 8, 65, 98
11, 139307, Note_on_c, 8, 65, 0
11, 139335, Note_on_c, 8, 58, 0
11, 139690, Note_on_c, 8, 58, 80
11, 139690, Note_on_c, 8, 65, 100
11, 139785, Note_on_c, 8, 65, 0
11, 139787, Note_on_c, 8, 58, 0
11, 140170, Note_on_c, 8, 58, 98
11, 140170, Note_on_c, 8, 65, 100
11, 140260, Note_on_c, 8, 65, 0
11, 140277, Note_on_c, 8, 58, 0
11, 140485, Note_on_c, 8, 68, 100
11, 140485, Note_on_c, 8, 80, 119
11, 140602, Note_on_c, 8, 80, 0
11, 140650, Note_on_c, 8, 58, 80
11, 140650, Note_on_c, 8, 65, 102
11, 140722, Note_on_c, 8, 68, 0
11, 140740, Note_on_c, 8, 65, 0
11, 140750, Note_on_c, 8, 58, 0
11, 140965, Note_on_c, 8, 67, 78
11, 140965, Note_on_c, 8, 79, 98
11, 141077, Note_on_c, 8, 79, 0
11, 141130, Note_on_c, 8, 63, 85
11, 141132, Note_on_c, 8, 58, 100
11, 141132, Note_on_c, 8, 64, 93
11, 141132, Note_on_c, 8, 65, 102
11, 141132, Note_on_c, 8, 76, 102
11, 141140, Note_on_c, 8, 63, 0
11, 141140, Note_on_c, 8, 67, 0
11, 141230, Note_on_c, 8, 65, 0
11, 141237, Note_on_c, 8, 58, 0
11, 141382, Note_on_c, 8, 76, 0
11, 141397, Note_on_c, 8, 64, 0
11, 141445, Note_on_c, 8, 65, 82
11, 141445, Note_on_c, 8, 77, 100
11, 141535, Note_on_c, 8, 77, 0
11, 141612, Note_on_c, 8, 58, 87
11, 141612, Note_on_c, 8, 61, 102
11, 141612, Note_on_c, 8, 73, 100
11, 141615, Note_on_c, 8, 65, 100
11, 141617, Note_on_c, 8, 65, 0
11, 141617, Note_on_c, 8, 65, 0
11, 141732, Note_on_c, 8, 58, 0
11, 141847, Note_on_c, 8, 61, 0
11, 141857, Note_on_c, 8, 73, 0
11, 141925, Note_on_c, 8, 62, 98
11, 141925, Note_on_c, 8, 74, 102
11, 141972, Channel_aftertouch_c, 8, 26
11, 142030, Channel_aftertouch_c, 8, 0
11, 142065, Note_on_c, 8, 74, 0
11, 142090, Note_on_c, 8, 63, 102
11, 142090, Note_on_c, 8, 70, 105
11, 142095, Note_on_c, 8, 62, 0
11, 142202, Note_on_c, 8, 70, 0
11, 142212, Note_on_c, 8, 63, 0
11, 142570, Note_on_c, 8, 63, 100
11, 142570, Note_on_c, 8, 70, 107
11, 142657, Note_on_c, 8, 70, 0
11, 142662, Note_on_c, 8, 63, 0
11, 143050, Note_on_c, 8, 63, 102
11, 143050, Note_on_c, 8, 70, 105
11, 143150, Note_on_c, 8, 70, 0
11, 143162, Note_on_c, 8, 63, 0
11, 143530, Note_on_c, 8, 63, 102
11, 143530, Note_on_c, 8, 70, 107
11, 143605, Note_on_c, 8, 70, 0
11, 143625, Note_on_c, 8, 63, 0
11, 144007, Note_on_c, 8, 63, 105
11, 144010, Note_on_c, 8, 70, 107
11, 144085, Note_on_c, 8, 70, 0
11, 144117, Note_on_c, 8, 63, 0
11, 144487, Note_on_c, 8, 63, 95
11, 144490, Note_on_c, 8, 70, 105
11, 144572, Note_on_c, 8, 70, 0
11, 144577, Note_on_c, 8, 63, 0
11, 144967, Note_on_c, 8, 63, 93
11, 144970, Note_on_c, 8, 70, 107
11, 145070, Note_on_c, 8, 63, 0
11, 145075, Note_on_c, 8, 70, 0
11, 145450, Note_on_c, 8, 63, 91
11, 145450, Note_on_c, 8, 70, 107
11, 145560, Note_on_c, 8, 63, 0
11, 145575, Note_on_c, 8, 70, 0
11, 145930, Note_on_c, 8, 60, 100
11, 145930, Note_on_c, 8, 82, 87
11, 145932, Note_on_c, 8, 67, 89
11, 145932, Note_on_c, 8, 70, 102
11, 146012, Note_on_c, 8, 67, 0
11, 146040, Note_on_c, 8, 60, 0
11, 146042, Note_on_c, 8, 70, 0
11, 146242, Note_on_c, 8, 81, 85
11, 146252, Note_on_c, 8, 82, 0
11, 146407, Note_on_c, 8, 60, 98
11, 146407, Note_on_c, 8, 67, 87
11, 146407, Note_on_c, 8, 70, 98
11, 146407, Note_on_c, 8, 79, 85
11, 146460, Note_on_c, 8, 81, 0
11, 146482, Note_on_c, 8, 67, 0
11, 146490, Note_on_c, 8, 70, 0
11, 146507, Note_on_c, 8, 60, 0
11, 146712, Note_on_c, 8, 79, 0
11, 146722, Note_on_c, 8, 81, 89
11, 146887, Note_on_c, 8, 60, 100
11, 146887, Note_on_c, 8, 67, 91
11, 146887, Note_on_c, 8, 70, 93
11, 146887, Note_on_c, 8, 82, 76
11, 146942, Note_on_c, 8, 81, 0
11, 146965, Note_on_c, 8, 67, 0
11, 146977, Note_on_c, 8, 70, 0
11, 146982, Note_on_c, 8, 60, 0
11, 147337, Note_on_c, 8, 82, 0
11, 147367, Note_on_c, 8, 60, 100
11, 147367, Note_on_c, 8, 79, 74
11, 147370, Note_on_c, 8, 67, 87
11, 147370, Note_on_c, 8, 70, 95
11, 147455, Note_on_c, 8, 67, 0
11, 147462, Note_on_c, 8, 70, 0
11, 147470, Note_on_c, 8, 60, 0
11, 147850, Note_on_c, 8, 60, 85
11, 147850, Note_on_c, 8, 81, 78
11, 147852, Note_on_c, 8, 65, 100
11, 147852, Note_on_c, 8, 69, 100
11, 147862, Note_on_c, 8, 79, 0
11, 147935, Note_on_c, 8, 65, 0
11, 147940, Note_on_c, 8, 69, 0
11, 147967, Note_on_c, 8, 60, 0
11, 148327, Note_on_c, 8, 77, 110
11, 148330, Note_on_c, 8, 63, 102
11, 148422, Note_on_c, 8, 63, 0
11, 148780, Note_on_c, 8, 77, 0
11, 148807, Note_on_c, 8, 62, 98
11, 148807, Note_on_c, 8, 79, 95
11, 148895, Note_on_c, 8, 62, 0
11, 149287, Note_on_c, 8, 60, 102
11, 149287, Note_on_c, 8, 81, 102
11, 149297, Note_on_c, 8, 79, 0
11, 149372, Note_on_c, 8, 60, 0
11, 149567, Note_on_c, 8, 81, 0
11, 149567, Note_on_c, 8, 81, 0
11, 149567, End_track
12, 0, Start_track
12, 0, MIDI_port, 0
12, 0, Title_t, "Piano1  "
12, 100, Control_c, 0, 121, 0
12, 192, Control_c, 0, 7, 125
12, 200, Control_c, 0, 10, 34
12, 202, Program_c, 0, 0
12, 207, Control_c, 0, 100, 0
12, 220, Control_c, 0, 101, 0
12, 222, Control_c, 0, 6, 12
12, 232, Control_c, 0, 11, 127
12, 240, Control_c, 0, 91, 40
12, 240, Control_c, 0, 93, 0
12, 11522, Note_on_c, 0, 50, 91
12, 11522, Note_on_c, 0, 62, 68
12, 11522, Note_on_c, 0, 65, 93
12, 11572, Note_on_c, 0, 62, 0
12, 12330, Note_on_c, 0, 65, 0
12, 12392, Note_on_c, 0, 50, 0
12, 12482, Note_on_c, 0, 49, 70
12, 12482, Note_on_c, 0, 66, 91
12, 13355, Note_on_c, 0, 66, 0
12, 13442, Note_on_c, 0, 48, 76
12, 13442, Note_on_c, 0, 67, 93
12, 13517, Note_on_c, 0, 49, 0
12, 14242, Note_on_c, 0, 70, 85
12, 15025, Note_on_c, 0, 67, 0
12, 15097, Note_on_c, 0, 70, 0
12, 15130, Note_on_c, 0, 48, 0
12, 15362, Note_on_c, 0, 41, 58
12, 15362, Note_on_c, 0, 60, 56
12, 15362, Note_on_c, 0, 65, 85
12, 17027, Note_on_c, 0, 60, 0
12, 17065, Note_on_c, 0, 65, 0
12, 17072, Note_on_c, 0, 41, 0
12, 17282, Note_on_c, 0, 46, 70
12, 17282, Note_on_c, 0, 58, 72
12, 17282, Note_on_c, 0, 65, 74
12, 18940, Note_on_c, 0, 58, 0
12, 18945, Note_on_c, 0, 65, 0
12, 18947, Note_on_c, 0, 46, 0
12, 19202, Note_on_c, 0, 46, 87
12, 19202, Note_on_c, 0, 58, 85
12, 19202, Note_on_c, 0, 65, 85
12, 19945, Note_on_c, 0, 65, 0
12, 20060, Note_on_c, 0, 46, 0
12, 20067, Note_on_c, 0, 58, 0
12, 20162, Note_on_c, 0, 47, 78
12, 20162, Note_on_c, 0, 59, 85
12, 20165, Note_on_c, 0, 65, 93
12, 20945, Note_on_c, 0, 59, 0
12, 21047, Note_on_c, 0, 47, 0
12, 21050, Note_on_c, 0, 65, 0
12, 21122, Note_on_c, 0, 48, 80
12, 21122, Note_on_c, 0, 60, 82
12, 21122, Note_on_c, 0, 67, 74
12, 22750, Note_on_c, 0, 60, 0
12, 22822, Note_on_c, 0, 48, 0
12, 22982, Note_on_c, 0, 67, 0
12, 23042, Note_on_c, 0, 41, 80
12, 23042, Note_on_c, 0, 60, 87
12, 23042, Note_on_c, 0, 65, 80
12, 24632, Note_on_c, 0, 60, 0
12, 24650, Note_on_c, 0, 41, 0
12, 24670, Note_on_c, 0, 65, 0
12, 24962, Note_on_c, 0, 46, 80
12, 24962, Note_on_c, 0, 58, 70
12, 24962, Note_on_c, 0, 65, 82
12, 26580, Note_on_c, 0, 46, 0
12, 26595, Note_on_c, 0, 65, 0
12, 26595, Note_on_c, 0, 58, 0
12, 26882, Note_on_c, 0, 58, 39
12, 26882, Note_on_c, 0, 65, 87
12, 26925, Note_on_c, 0, 58, 0
12, 27820, Note_on_c, 0, 65, 0
12, 27842, Note_on_c, 0, 49, 60
12, 27842, Note_on_c, 0, 66, 95
12, 28605, Note_on_c, 0, 66, 0
12, 28802, Note_on_c, 0, 48, 78
12, 28802, Note_on_c, 0, 67, 91
12, 28830, Note_on_c, 0, 49, 0
12, 29602, Note_on_c, 0, 70, 66
12, 30530, Note_on_c, 0, 48, 0
12, 30637, Note_on_c, 0, 70, 0
12, 30640, Note_on_c, 0, 67, 0
12, 30722, Note_on_c, 0, 41, 53
12, 30722, Note_on_c, 0, 60, 82
12, 30722, Note_on_c, 0, 65, 85
12, 32380, Note_on_c, 0, 41, 0
12, 32420, Note_on_c, 0, 60, 0
12, 32425, Note_on_c, 0, 65, 0
12, 32642, Note_on_c, 0, 46, 80
12, 32642, Note_on_c, 0, 58, 66
12, 32642, Note_on_c, 0, 65, 76
12, 34082, Note_on_c, 0, 58, 0
12, 34227, Note_on_c, 0, 65, 0
12, 34242, Note_on_c, 0, 46, 0
12, 34562, Note_on_c, 0, 50, 68
12, 34562, Note_on_c, 0, 65, 85
12, 35387, Note_on_c, 0, 50, 0
12, 35435, Note_on_c, 0, 65, 0
12, 35522, Note_on_c, 0, 49, 59
12, 35522, Note_on_c, 0, 66, 89
12, 36192, Note_on_c, 0, 66, 0
12, 36322, Note_on_c, 0, 64, 47
12, 36322, Note_on_c, 0, 67, 70
12, 36407, Note_on_c, 0, 49, 0
12, 36482, Note_on_c, 0, 48, 64
12, 36482, Note_on_c, 0, 70, 85
12, 38510, Note_on_c, 0, 48, 0
12, 38512, Note_on_c, 0, 67, 0
12, 38547, Note_on_c, 0, 64, 0
12, 38570, Note_on_c, 0, 70, 0
12, 38722, Note_on_c, 0, 58, 98
12, 38725, Note_on_c, 0, 70, 107
12, 38802, Note_on_c, 0, 70, 0
12, 38827, Note_on_c, 0, 58, 0
12, 39362, Note_on_c, 0, 57, 78
12, 39362, Note_on_c, 0, 69, 95
12, 39475, Note_on_c, 0, 69, 0
12, 39502, Note_on_c, 0, 57, 0
12, 39842, Note_on_c, 0, 55, 66
12, 39842, Note_on_c, 0, 67, 98
12, 39955, Note_on_c, 0, 67, 0
12, 39985, Note_on_c, 0, 55, 0
12, 40322, Note_on_c, 0, 53, 80
12, 40322, Note_on_c, 0, 65, 105
12, 40430, Note_on_c, 0, 65, 0
12, 40520, Note_on_c, 0, 53, 0
12, 40802, Note_on_c, 0, 51, 64
12, 40802, Note_on_c, 0, 63, 102
12, 40907, Note_on_c, 0, 63, 0
12, 40982, Note_on_c, 0, 51, 0
12, 41282, Note_on_c, 0, 50, 80
12, 41282, Note_on_c, 0, 62, 100
12, 41390, Note_on_c, 0, 62, 0
12, 41462, Note_on_c, 0, 50, 0
12, 41762, Note_on_c, 0, 48, 89
12, 41762, Note_on_c, 0, 60, 98
12, 41855, Note_on_c, 0, 60, 0
12, 41892, Note_on_c, 0, 48, 0
12, 42245, Note_on_c, 0, 46, 80
12, 42245, Note_on_c, 0, 53, 85
12, 42245, Note_on_c, 0, 58, 60
12, 42245, Note_on_c, 0, 62, 85
12, 42280, Control_c, 0, 64, 127
12, 42387, Note_on_c, 0, 53, 0
12, 42520, Note_on_c, 0, 58, 0
12, 42600, Note_on_c, 0, 62, 0
12, 42882, Note_on_c, 0, 65, 58
12, 43042, Note_on_c, 0, 70, 76
12, 43305, Note_on_c, 0, 70, 0
12, 43362, Note_on_c, 0, 74, 82
12, 43430, Note_on_c, 0, 65, 0
12, 43450, Note_on_c, 0, 46, 0
12, 43522, Note_on_c, 0, 70, 68
12, 43607, Note_on_c, 0, 74, 0
12, 43682, Note_on_c, 0, 65, 78
12, 43690, Note_on_c, 0, 70, 0
12, 43842, Note_on_c, 0, 46, 66
12, 43842, Note_on_c, 0, 70, 60
12, 43895, Note_on_c, 0, 65, 0
12, 44002, Note_on_c, 0, 74, 80
12, 44025, Note_on_c, 0, 70, 0
12, 44070, Control_c, 0, 64, 0
12, 44162, Note_on_c, 0, 50, 70
12, 44162, Note_on_c, 0, 65, 49
12, 44162, Note_on_c, 0, 69, 68
12, 44170, Note_on_c, 0, 46, 0
12, 44182, Control_c, 0, 64, 127
12, 44487, Note_on_c, 0, 74, 0
12, 44505, Note_on_c, 0, 65, 0
12, 44530, Note_on_c, 0, 69, 0
12, 44592, Note_on_c, 0, 50, 0
12, 44802, Note_on_c, 0, 50, 60
12, 44962, Note_on_c, 0, 57, 47
12, 44962, Note_on_c, 0, 62, 59
12, 45122, Note_on_c, 0, 60, 31
12, 45122, Note_on_c, 0, 65, 87
12, 45135, Note_on_c, 0, 50, 0
12, 45195, Note_on_c, 0, 62, 0
12, 45202, Note_on_c, 0, 60, 0
12, 45600, Note_on_c, 0, 57, 0
12, 45602, Note_on_c, 0, 57, 47
12, 45602, Note_on_c, 0, 62, 76
12, 45795, Note_on_c, 0, 57, 0
12, 45872, Note_on_c, 0, 62, 0
12, 45922, Note_on_c, 0, 50, 66
12, 45922, Note_on_c, 0, 57, 20
12, 45965, Note_on_c, 0, 65, 0
12, 46007, Note_on_c, 0, 57, 0
12, 46027, Note_on_c, 0, 50, 0
12, 46045, Control_c, 0, 64, 0
12, 46082, Note_on_c, 0, 51, 76
12, 46082, Note_on_c, 0, 63, 62
12, 46155, Control_c, 0, 64, 127
12, 46675, Note_on_c, 0, 63, 0
12, 46882, Note_on_c, 0, 58, 35
12, 46882, Note_on_c, 0, 63, 52
12, 47042, Note_on_c, 0, 67, 85
12, 47075, Note_on_c, 0, 51, 0
12, 47200, Note_on_c, 0, 63, 0
12, 47247, Note_on_c, 0, 58, 0
12, 47500, Note_on_c, 0, 67, 0
12, 47522, Note_on_c, 0, 58, 87
12, 47522, Note_on_c, 0, 63, 80
12, 47697, Note_on_c, 0, 63, 0
12, 47842, Note_on_c, 0, 51, 55
12, 47937, Control_c, 0, 64, 0
12, 48000, Control_c, 0, 64, 127
12, 48002, Note_on_c, 0, 46, 70
12, 48002, Note_on_c, 0, 62, 78
12, 48002, Note_on_c, 0, 65, 85
12, 48045, Note_on_c, 0, 51, 0
12, 48377, Note_on_c, 0, 58, 0
12, 48380, Note_on_c, 0, 62, 0
12, 48710, Note_on_c, 0, 46, 0
12, 48802, Note_on_c, 0, 53, 87
12, 48962, Note_on_c, 0, 46, 59
12, 49125, Note_on_c, 0, 53, 0
12, 49145, Note_on_c, 0, 65, 0
12, 49282, Note_on_c, 0, 58, 53
12, 49442, Note_on_c, 0, 62, 89
12, 49487, Note_on_c, 0, 46, 0
12, 49707, Note_on_c, 0, 62, 0
12, 49762, Note_on_c, 0, 65, 85
12, 49807, Control_c, 0, 64, 0
12, 49837, Note_on_c, 0, 58, 0
12, 49857, Note_on_c, 0, 65, 0
12, 49922, Note_on_c, 0, 51, 80
12, 49922, Note_on_c, 0, 58, 72
12, 49922, Note_on_c, 0, 63, 80
12, 49925, Note_on_c, 0, 67, 85
12, 50032, Note_on_c, 0, 67, 0
12, 50050, Note_on_c, 0, 63, 0
12, 50072, Note_on_c, 0, 51, 0
12, 50077, Note_on_c, 0, 58, 0
12, 50402, Note_on_c, 0, 51, 100
12, 50402, Note_on_c, 0, 58, 89
12, 50402, Note_on_c, 0, 63, 102
12, 50405, Note_on_c, 0, 67, 95
12, 50495, Note_on_c, 0, 58, 0
12, 50505, Note_on_c, 0, 67, 0
12, 50512, Note_on_c, 0, 63, 0
12, 50545, Note_on_c, 0, 51, 0
12, 50882, Note_on_c, 0, 46, 87
12, 50882, Note_on_c, 0, 58, 89
12, 50882, Note_on_c, 0, 62, 89
12, 50885, Note_on_c, 0, 65, 89
12, 50965, Note_on_c, 0, 58, 0
12, 50980, Note_on_c, 0, 62, 0
12, 51002, Note_on_c, 0, 46, 0
12, 51005, Note_on_c, 0, 65, 0
12, 51362, Note_on_c, 0, 46, 82
12, 51362, Note_on_c, 0, 58, 95
12, 51362, Note_on_c, 0, 62, 82
12, 51365, Note_on_c, 0, 65, 87
12, 51447, Note_on_c, 0, 62, 0
12, 51457, Note_on_c, 0, 58, 0
12, 51472, Note_on_c, 0, 65, 0
12, 51487, Note_on_c, 0, 46, 0
12, 51842, Note_on_c, 0, 51, 87
12, 51842, Note_on_c, 0, 58, 89
12, 51842, Note_on_c, 0, 63, 89
12, 51845, Note_on_c, 0, 67, 80
12, 51945, Note_on_c, 0, 58, 0
12, 51950, Note_on_c, 0, 67, 0
12, 51967, Note_on_c, 0, 51, 0
12, 51977, Note_on_c, 0, 63, 0
12, 52322, Note_on_c, 0, 51, 98
12, 52322, Note_on_c, 0, 58, 87
12, 52322, Note_on_c, 0, 63, 85
12, 52325, Note_on_c, 0, 67, 74
12, 52405, Note_on_c, 0, 67, 0
12, 52422, Note_on_c, 0, 58, 0
12, 52450, Note_on_c, 0, 63, 0
12, 52460, Note_on_c, 0, 51, 0
12, 52802, Note_on_c, 0, 46, 72
12, 52802, Note_on_c, 0, 58, 82
12, 52802, Note_on_c, 0, 62, 82
12, 52805, Note_on_c, 0, 65, 82
12, 52890, Note_on_c, 0, 62, 0
12, 52925, Note_on_c, 0, 65, 0
12, 52927, Note_on_c, 0, 58, 0
12, 52935, Note_on_c, 0, 46, 0
12, 53282, Note_on_c, 0, 46, 74
12, 53282, Note_on_c, 0, 58, 82
12, 53285, Note_on_c, 0, 62, 87
12, 53285, Note_on_c, 0, 65, 80
12, 53357, Note_on_c, 0, 62, 0
12, 53382, Note_on_c, 0, 58, 0
12, 53392, Note_on_c, 0, 65, 0
12, 53417, Note_on_c, 0, 46, 0
12, 53762, Note_on_c, 0, 51, 82
12, 53762, Note_on_c, 0, 58, 82
12, 53762, Note_on_c, 0, 63, 70
12, 53765, Note_on_c, 0, 67, 76
12, 53867, Note_on_c, 0, 67, 0
12, 53877, Note_on_c, 0, 58, 0
12, 53890, Note_on_c, 0, 63, 0
12, 53895, Note_on_c, 0, 51, 0
12, 54242, Note_on_c, 0, 51, 68
12, 54242, Note_on_c, 0, 58, 82
12, 54245, Note_on_c, 0, 63, 72
12, 54245, Note_on_c, 0, 67, 78
12, 54342, Note_on_c, 0, 63, 0
12, 54352, Note_on_c, 0, 67, 0
12, 54352, Note_on_c, 0, 58, 0
12, 54370, Note_on_c, 0, 51, 0
12, 54722, Note_on_c, 0, 46, 76
12, 54725, Note_on_c, 0, 58, 66
12, 54725, Note_on_c, 0, 62, 82
12, 54727, Note_on_c, 0, 65, 68
12, 54842, Note_on_c, 0, 62, 0
12, 54845, Note_on_c, 0, 46, 0
12, 54847, Note_on_c, 0, 65, 0
12, 54855, Note_on_c, 0, 58, 0
12, 55202, Note_on_c, 0, 46, 66
12, 55202, Note_on_c, 0, 58, 82
12, 55202, Note_on_c, 0, 62, 85
12, 55202, Note_on_c, 0, 65, 74
12, 55332, Note_on_c, 0, 62, 0
12, 55347, Note_on_c, 0, 46, 0
12, 55350, Note_on_c, 0, 65, 0
12, 55370, Note_on_c, 0, 58, 0
12, 55682, Note_on_c, 0, 43, 78
12, 55682, Note_on_c, 0, 55, 87
12, 55682, Note_on_c, 0, 58, 74
12, 55682, Note_on_c, 0, 62, 85
12, 55685, Note_on_c, 0, 65, 64
12, 55792, Note_on_c, 0, 55, 0
12, 55820, Note_on_c, 0, 62, 0
12, 55837, Note_on_c, 0, 43, 0
12, 55840, Note_on_c, 0, 65, 0
12, 55860, Note_on_c, 0, 58, 0
12, 56162, Note_on_c, 0, 43, 85
12, 56162, Note_on_c, 0, 55, 89
12, 56162, Note_on_c, 0, 58, 89
12, 56162, Note_on_c, 0, 62, 85
12, 56165, Note_on_c, 0, 65, 78
12, 56277, Note_on_c, 0, 62, 0
12, 56277, Note_on_c, 0, 55, 0
12, 56305, Note_on_c, 0, 65, 0
12, 56307, Note_on_c, 0, 58, 0
12, 56330, Note_on_c, 0, 43, 0
12, 56642, Note_on_c, 0, 41, 85
12, 56642, Note_on_c, 0, 53, 70
12, 56642, Note_on_c, 0, 57, 76
12, 56645, Note_on_c, 0, 60, 78
12, 56645, Note_on_c, 0, 65, 47
12, 57417, Note_on_c, 0, 53, 0
12, 57485, Note_on_c, 0, 60, 0
12, 57525, Note_on_c, 0, 65, 0
12, 57530, Note_on_c, 0, 57, 0
12, 57540, Note_on_c, 0, 41, 0
12, 57605, Note_on_c, 0, 38, 91
12, 57605, Note_on_c, 0, 57, 102
12, 57605, Note_on_c, 0, 62, 110
12, 57607, Note_on_c, 0, 66, 102
12, 58082, Note_on_c, 0, 50, 87
12, 58235, Note_on_c, 0, 62, 0
12, 58280, Note_on_c, 0, 66, 0
12, 58322, Note_on_c, 0, 57, 0
12, 58392, Note_on_c, 0, 50, 0
12, 58402, Note_on_c, 0, 57, 80
12, 58402, Note_on_c, 0, 60, 93
12, 58402, Note_on_c, 0, 62, 93
12, 58402, Note_on_c, 0, 66, 72
12, 59522, Note_on_c, 0, 50, 95
12, 59620, Control_c, 0, 64, 127
12, 59945, Note_on_c, 0, 50, 0
12, 60095, Note_on_c, 0, 57, 0
12, 60135, Note_on_c, 0, 60, 0
12, 60162, Note_on_c, 0, 50, 76
12, 60210, Note_on_c, 0, 66, 0
12, 60300, Note_on_c, 0, 38, 0
12, 60322, Note_on_c, 0, 57, 49
12, 60322, Note_on_c, 0, 60, 66
12, 60482, Note_on_c, 0, 66, 105
12, 60517, Note_on_c, 0, 60, 0
12, 60517, Note_on_c, 0, 50, 0
12, 60532, Note_on_c, 0, 62, 0
12, 60802, Note_on_c, 0, 62, 93
12, 60852, Note_on_c, 0, 66, 0
12, 60947, Note_on_c, 0, 57, 0
12, 60962, Note_on_c, 0, 60, 80
12, 61197, Note_on_c, 0, 60, 0
12, 61282, Note_on_c, 0, 50, 59
12, 61282, Note_on_c, 0, 57, 59
12, 61340, Note_on_c, 0, 62, 0
12, 61420, Control_c, 0, 64, 0
12, 61440, Note_on_c, 0, 57, 0
12, 61442, Note_on_c, 0, 43, 76
12, 61442, Note_on_c, 0, 59, 82
12, 61442, Note_on_c, 0, 62, 78
12, 61477, Note_on_c, 0, 50, 0
12, 61565, Control_c, 0, 64, 127
12, 62082, Note_on_c, 0, 53, 56
12, 62175, Note_on_c, 0, 53, 0
12, 62402, Note_on_c, 0, 53, 82
12, 62407, Note_on_c, 0, 43, 0
12, 62500, Note_on_c, 0, 53, 0
12, 62555, Note_on_c, 0, 59, 0
12, 62562, Note_on_c, 0, 43, 80
12, 62602, Note_on_c, 0, 62, 0
12, 62882, Note_on_c, 0, 65, 87
12, 62917, Note_on_c, 0, 43, 0
12, 63015, Note_on_c, 0, 65, 0
12, 63042, Note_on_c, 0, 67, 68
12, 63167, Note_on_c, 0, 67, 0
12, 63362, Note_on_c, 0, 71, 80
12, 63480, Note_on_c, 0, 71, 0
12, 63522, Note_on_c, 0, 74, 82
12, 63640, Note_on_c, 0, 74, 0
12, 63842, Note_on_c, 0, 79, 80
12, 63975, Note_on_c, 0, 79, 0
12, 64162, Note_on_c, 0, 79, 80
12, 64325, Note_on_c, 0, 79, 0
12, 64642, Note_on_c, 0, 79, 82
12, 64757, Note_on_c, 0, 79, 0
12, 64802, Note_on_c, 0, 43, 78
12, 65207, Note_on_c, 0, 43, 0
12, 65265, Control_c, 0, 64, 0
12, 65282, Note_on_c, 0, 48, 82
12, 65282, Note_on_c, 0, 60, 60
12, 65762, Note_on_c, 0, 64, 89
12, 65762, Note_on_c, 0, 70, 93
12, 65817, Note_on_c, 0, 48, 0
12, 65845, Note_on_c, 0, 64, 0
12, 65860, Note_on_c, 0, 70, 0
12, 65937, Note_on_c, 0, 60, 0
12, 66082, Note_on_c, 0, 60, 78
12, 66082, Note_on_c, 0, 64, 100
12, 66082, Note_on_c, 0, 70, 102
12, 66112, Control_c, 0, 64, 127
12, 66217, Note_on_c, 0, 70, 0
12, 66227, Note_on_c, 0, 64, 0
12, 66235, Note_on_c, 0, 60, 0
12, 66562, Note_on_c, 0, 48, 85
12, 66712, Control_c, 0, 64, 0
12, 66722, Note_on_c, 0, 55, 80
12, 66722, Note_on_c, 0, 60, 82
12, 66722, Note_on_c, 0, 64, 62
12, 66775, Control_c, 0, 64, 127
12, 66825, Note_on_c, 0, 64, 0
12, 66847, Note_on_c, 0, 60, 0
12, 66890, Note_on_c, 0, 55, 0
12, 67042, Note_on_c, 0, 55, 78
12, 67042, Note_on_c, 0, 58, 72
12, 67042, Note_on_c, 0, 60, 100
12, 67045, Note_on_c, 0, 64, 91
12, 67060, Note_on_c, 0, 48, 0
12, 67202, Note_on_c, 0, 46, 89
12, 67215, Control_c, 0, 64, 0
12, 67230, Note_on_c, 0, 64, 0
12, 67255, Note_on_c, 0, 55, 0
12, 67302, Note_on_c, 0, 60, 0
12, 67305, Note_on_c, 0, 58, 0
12, 67662, Control_c, 0, 64, 127
12, 67682, Note_on_c, 0, 53, 80
12, 67682, Note_on_c, 0, 58, 66
12, 67682, Note_on_c, 0, 62, 80
12, 67800, Note_on_c, 0, 53, 0
12, 67820, Note_on_c, 0, 62, 0
12, 67830, Note_on_c, 0, 58, 0
12, 68002, Note_on_c, 0, 53, 82
12, 68002, Note_on_c, 0, 58, 64
12, 68002, Note_on_c, 0, 62, 89
12, 68010, Note_on_c, 0, 46, 0
12, 68380, Note_on_c, 0, 53, 0
12, 68462, Note_on_c, 0, 58, 0
12, 68482, Note_on_c, 0, 46, 82
12, 68510, Note_on_c, 0, 62, 0
12, 68642, Note_on_c, 0, 53, 56
12, 68642, Note_on_c, 0, 57, 89
12, 68642, Note_on_c, 0, 62, 95
12, 68695, Note_on_c, 0, 46, 0
12, 68797, Note_on_c, 0, 53, 0
12, 68845, Control_c, 0, 64, 0
12, 68882, Note_on_c, 0, 57, 0
12, 68905, Note_on_c, 0, 62, 0
12, 68962, Note_on_c, 0, 46, 89
12, 69102, Note_on_c, 0, 46, 0
12, 69122, Note_on_c, 0, 48, 85
12, 69572, Control_c, 0, 64, 127
12, 69602, Note_on_c, 0, 55, 64
12, 69602, Note_on_c, 0, 58, 45
12, 69602, Note_on_c, 0, 60, 48
12, 69602, Note_on_c, 0, 62, 41
12, 69605, Note_on_c, 0, 64, 60
12, 69637, Note_on_c, 0, 62, 0
12, 69647, Note_on_c, 0, 60, 0
12, 69662, Note_on_c, 0, 58, 0
12, 69682, Note_on_c, 0, 55, 0
12, 69685, Note_on_c, 0, 64, 0
12, 69922, Note_on_c, 0, 55, 82
12, 69922, Note_on_c, 0, 58, 74
12, 69922, Note_on_c, 0, 60, 100
12, 69922, Note_on_c, 0, 64, 91
12, 69992, Note_on_c, 0, 48, 0
12, 70562, Note_on_c, 0, 48, 102
12, 70590, Note_on_c, 0, 60, 0
12, 70595, Note_on_c, 0, 58, 0
12, 70605, Note_on_c, 0, 55, 0
12, 70645, Note_on_c, 0, 64, 0
12, 70980, Note_on_c, 0, 48, 0
12, 71000, Control_c, 0, 64, 0
12, 71042, Note_on_c, 0, 41, 66
12, 71042, Note_on_c, 0, 53, 80
12, 71042, Note_on_c, 0, 57, 87
12, 71045, Note_on_c, 0, 63, 74
12, 71207, Control_c, 0, 64, 127
12, 72490, Note_on_c, 0, 53, 0
12, 72505, Note_on_c, 0, 57, 0
12, 72542, Note_on_c, 0, 41, 0
12, 72582, Note_on_c, 0, 63, 0
12, 72820, Control_c, 0, 64, 0
12, 72965, Note_on_c, 0, 53, 100
12, 72965, Note_on_c, 0, 58, 87
12, 72967, Note_on_c, 0, 62, 98
12, 73027, Note_on_c, 0, 53, 0
12, 73037, Note_on_c, 0, 58, 0
12, 73047, Note_on_c, 0, 62, 0
12, 73442, Note_on_c, 0, 53, 100
12, 73442, Note_on_c, 0, 58, 100
12, 73442, Note_on_c, 0, 62, 102
12, 73522, Note_on_c, 0, 62, 0
12, 73532, Note_on_c, 0, 58, 0
12, 73535, Note_on_c, 0, 53, 0
12, 73922, Note_on_c, 0, 53, 98
12, 73922, Note_on_c, 0, 58, 95
12, 73922, Note_on_c, 0, 62, 100
12, 74010, Note_on_c, 0, 62, 0
12, 74015, Note_on_c, 0, 58, 0
12, 74035, Note_on_c, 0, 53, 0
12, 74402, Note_on_c, 0, 53, 102
12, 74402, Note_on_c, 0, 58, 82
12, 74402, Note_on_c, 0, 62, 100
12, 74487, Note_on_c, 0, 62, 0
12, 74490, Note_on_c, 0, 58, 0
12, 74507, Note_on_c, 0, 53, 0
12, 74882, Note_on_c, 0, 53, 102
12, 74882, Note_on_c, 0, 58, 100
12, 74882, Note_on_c, 0, 62, 100
12, 74960, Note_on_c, 0, 62, 0
12, 74982, Note_on_c, 0, 58, 0
12, 74985, Note_on_c, 0, 53, 0
12, 75362, Note_on_c, 0, 53, 100
12, 75362, Note_on_c, 0, 58, 89
12, 75362, Note_on_c, 0, 62, 102
12, 75460, Note_on_c, 0, 62, 0
12, 75462, Note_on_c, 0, 58, 0
12, 75465, Note_on_c, 0, 53, 0
12, 75842, Note_on_c, 0, 53, 100
12, 75842, Note_on_c, 0, 58, 87
12, 75842, Note_on_c, 0, 62, 100
12, 75935, Note_on_c, 0, 58, 0
12, 75940, Note_on_c, 0, 62, 0
12, 75957, Note_on_c, 0, 53, 0
12, 76322, Note_on_c, 0, 53, 100
12, 76322, Note_on_c, 0, 58, 89
12, 76322, Note_on_c, 0, 62, 100
12, 76412, Note_on_c, 0, 62, 0
12, 76425, Note_on_c, 0, 58, 0
12, 76432, Note_on_c, 0, 53, 0
12, 76802, Note_on_c, 0, 53, 98
12, 76802, Note_on_c, 0, 58, 98
12, 76805, Note_on_c, 0, 62, 98
12, 76890, Note_on_c, 0, 62, 0
12, 76892, Note_on_c, 0, 58, 0
12, 76920, Note_on_c, 0, 53, 0
12, 77282, Note_on_c, 0, 53, 98
12, 77282, Note_on_c, 0, 58, 89
12, 77282, Note_on_c, 0, 62, 87
12, 77362, Note_on_c, 0, 58, 0
12, 77370, Note_on_c, 0, 62, 0
12, 77382, Note_on_c, 0, 53, 0
12, 77762, Note_on_c, 0, 53, 98
12, 77762, Note_on_c, 0, 58, 87
12, 77762, Note_on_c, 0, 62, 89
12, 77852, Note_on_c, 0, 58, 0
12, 77860, Note_on_c, 0, 62, 0
12, 77862, Note_on_c, 0, 53, 0
12, 78242, Note_on_c, 0, 53, 87
12, 78242, Note_on_c, 0, 58, 87
12, 78242, Note_on_c, 0, 62, 91
12, 78342, Note_on_c, 0, 53, 0
12, 78345, Note_on_c, 0, 62, 0
12, 78350, Note_on_c, 0, 58, 0
12, 78722, Note_on_c, 0, 53, 95
12, 78722, Note_on_c, 0, 58, 95
12, 78722, Note_on_c, 0, 62, 98
12, 78820, Note_on_c, 0, 58, 0
12, 78822, Note_on_c, 0, 62, 0
12, 78827, Note_on_c, 0, 53, 0
12, 79202, Note_on_c, 0, 53, 87
12, 79202, Note_on_c, 0, 58, 91
12, 79202, Note_on_c, 0, 62, 95
12, 79300, Note_on_c, 0, 58, 0
12, 79307, Note_on_c, 0, 62, 0
12, 79310, Note_on_c, 0, 53, 0
12, 79682, Note_on_c, 0, 53, 95
12, 79682, Note_on_c, 0, 58, 85
12, 79682, Note_on_c, 0, 62, 89
12, 79770, Note_on_c, 0, 58, 0
12, 79785, Note_on_c, 0, 62, 0
12, 79792, Note_on_c, 0, 53, 0
12, 80162, Note_on_c, 0, 53, 100
12, 80162, Note_on_c, 0, 58, 89
12, 80165, Note_on_c, 0, 62, 89
12, 80272, Note_on_c, 0, 62, 0
12, 80277, Note_on_c, 0, 58, 0
12, 80280, Note_on_c, 0, 53, 0
12, 80642, Note_on_c, 0, 55, 87
12, 80642, Note_on_c, 0, 58, 91
12, 80642, Note_on_c, 0, 63, 100
12, 80742, Note_on_c, 0, 58, 0
12, 80747, Note_on_c, 0, 55, 0
12, 80757, Note_on_c, 0, 63, 0
12, 81122, Note_on_c, 0, 55, 91
12, 81122, Note_on_c, 0, 58, 95
12, 81122, Note_on_c, 0, 63, 98
12, 81225, Note_on_c, 0, 55, 0
12, 81247, Note_on_c, 0, 58, 0
12, 81252, Note_on_c, 0, 63, 0
12, 81602, Note_on_c, 0, 55, 87
12, 81602, Note_on_c, 0, 58, 89
12, 81602, Note_on_c, 0, 63, 93
12, 81707, Note_on_c, 0, 55, 0
12, 81717, Note_on_c, 0, 63, 0
12, 81725, Note_on_c, 0, 58, 0
12, 82082, Note_on_c, 0, 55, 68
12, 82082, Note_on_c, 0, 58, 93
12, 82082, Note_on_c, 0, 63, 91
12, 82185, Note_on_c, 0, 55, 0
12, 82187, Note_on_c, 0, 63, 0
12, 82197, Note_on_c, 0, 58, 0
12, 82562, Note_on_c, 0, 55, 85
12, 82562, Note_on_c, 0, 58, 98
12, 82562, Note_on_c, 0, 63, 100
12, 82660, Note_on_c, 0, 55, 0
12, 82667, Note_on_c, 0, 63, 0
12, 82672, Note_on_c, 0, 58, 0
12, 83042, Note_on_c, 0, 55, 68
12, 83042, Note_on_c, 0, 58, 87
12, 83042, Note_on_c, 0, 63, 91
12, 83147, Note_on_c, 0, 55, 0
12, 83150, Note_on_c, 0, 58, 0
12, 83165, Note_on_c, 0, 63, 0
12, 83522, Note_on_c, 0, 55, 87
12, 83522, Note_on_c, 0, 58, 87
12, 83522, Note_on_c, 0, 63, 93
12, 83630, Note_on_c, 0, 55, 0
12, 83635, Note_on_c, 0, 63, 0
12, 83635, Note_on_c, 0, 58, 0
12, 84002, Note_on_c, 0, 55, 78
12, 84002, Note_on_c, 0, 58, 87
12, 84002, Note_on_c, 0, 63, 89
12, 84122, Note_on_c, 0, 55, 0
12, 84147, Note_on_c, 0, 63, 0
12, 84152, Note_on_c, 0, 58, 0
12, 84482, Note_on_c, 0, 55, 89
12, 84482, Note_on_c, 0, 60, 91
12, 84482, Note_on_c, 0, 63, 82
12, 84600, Note_on_c, 0, 60, 0
12, 84605, Note_on_c, 0, 55, 0
12, 84622, Note_on_c, 0, 63, 0
12, 84962, Note_on_c, 0, 55, 87
12, 84962, Note_on_c, 0, 60, 95
12, 84962, Note_on_c, 0, 63, 89
12, 85060, Note_on_c, 0, 60, 0
12, 85077, Note_on_c, 0, 63, 0
12, 85097, Note_on_c, 0, 55, 0
12, 85442, Note_on_c, 0, 55, 68
12, 85442, Note_on_c, 0, 60, 91
12, 85442, Note_on_c, 0, 63, 85
12, 85572, Note_on_c, 0, 60, 0
12, 85580, Note_on_c, 0, 63, 0
12, 85597, Note_on_c, 0, 55, 0
12, 85922, Note_on_c, 0, 55, 78
12, 85925, Note_on_c, 0, 60, 89
12, 85925, Note_on_c, 0, 63, 91
12, 86050, Note_on_c, 0, 60, 0
12, 86052, Note_on_c, 0, 55, 0
12, 86072, Note_on_c, 0, 63, 0
12, 86402, Note_on_c, 0, 57, 82
12, 86402, Note_on_c, 0, 60, 95
12, 86402, Note_on_c, 0, 65, 87
12, 86537, Note_on_c, 0, 60, 0
12, 86552, Note_on_c, 0, 65, 0
12, 86552, Note_on_c, 0, 57, 0
12, 86882, Note_on_c, 0, 57, 82
12, 86882, Note_on_c, 0, 60, 87
12, 86882, Note_on_c, 0, 63, 87
12, 87007, Note_on_c, 0, 60, 0
12, 87012, Note_on_c, 0, 63, 0
12, 87027, Note_on_c, 0, 57, 0
12, 87362, Note_on_c, 0, 57, 85
12, 87362, Note_on_c, 0, 60, 95
12, 87362, Note_on_c, 0, 62, 93
12, 87467, Note_on_c, 0, 62, 0
12, 87470, Note_on_c, 0, 60, 0
12, 87492, Note_on_c, 0, 57, 0
12, 87842, Note_on_c, 0, 57, 85
12, 87842, Note_on_c, 0, 60, 105
12, 87942, Note_on_c, 0, 60, 0
12, 87967, Note_on_c, 0, 57, 0
12, 88325, Note_on_c, 0, 58, 102
12, 88325, Note_on_c, 0, 65, 80
12, 88325, Note_on_c, 0, 70, 82
12, 88325, Note_on_c, 0, 74, 85
12, 88942, Note_on_c, 0, 58, 0
12, 88997, Control_c, 0, 64, 127
12, 89122, Note_on_c, 0, 58, 44
12, 89242, Note_on_c, 0, 58, 0
12, 89282, Note_on_c, 0, 53, 78
12, 89680, Note_on_c, 0, 53, 0
12, 89762, Note_on_c, 0, 58, 98
12, 89810, Note_on_c, 0, 74, 0
12, 89820, Note_on_c, 0, 65, 0
12, 89850, Note_on_c, 0, 70, 0
12, 89875, Note_on_c, 0, 58, 0
12, 90242, Note_on_c, 0, 62, 87
12, 90245, Note_on_c, 0, 74, 93
12, 90265, Control_c, 0, 64, 0
12, 90462, Control_c, 0, 64, 127
12, 90795, Note_on_c, 0, 74, 0
12, 91042, Note_on_c, 0, 74, 57
12, 91202, Note_on_c, 0, 77, 46
12, 91202, Note_on_c, 0, 81, 80
12, 91292, Note_on_c, 0, 74, 0
12, 91307, Note_on_c, 0, 77, 0
12, 91517, Note_on_c, 0, 81, 0
12, 91627, Note_on_c, 0, 62, 0
12, 92112, Control_c, 0, 64, 0
12, 92162, Note_on_c, 0, 63, 82
12, 92162, Note_on_c, 0, 70, 89
12, 92162, Note_on_c, 0, 75, 89
12, 92165, Note_on_c, 0, 79, 91
12, 92595, Control_c, 0, 64, 127
12, 92737, Note_on_c, 0, 63, 0
12, 92962, Note_on_c, 0, 63, 91
12, 92975, Control_c, 0, 64, 0
12, 93080, Note_on_c, 0, 63, 0
12, 93122, Note_on_c, 0, 58, 78
12, 93575, Note_on_c, 0, 58, 0
12, 93597, Control_c, 0, 64, 127
12, 93602, Note_on_c, 0, 63, 100
12, 93662, Note_on_c, 0, 79, 0
12, 93665, Note_on_c, 0, 75, 0
12, 93690, Note_on_c, 0, 70, 0
12, 93940, Control_c, 0, 64, 0
12, 94060, Note_on_c, 0, 63, 0
12, 94080, Text_t, "Minvec Uk"
12, 94082, Note_on_c, 0, 58, 80
12, 94082, Note_on_c, 0, 70, 78
12, 94082, Note_on_c, 0, 74, 82
12, 94085, Note_on_c, 0, 77, 80
12, 94697, Note_on_c, 0, 58, 0
12, 94882, Note_on_c, 0, 58, 60
12, 95042, Note_on_c, 0, 53, 76
12, 95062, Note_on_c, 0, 58, 0
12, 95522, Note_on_c, 0, 58, 98
12, 95530, Note_on_c, 0, 53, 0
12, 95580, Note_on_c, 0, 74, 0
12, 95607, Note_on_c, 0, 77, 0
12, 95612, Note_on_c, 0, 70, 0
12, 95802, Note_on_c, 0, 58, 0
12, 96002, Note_on_c, 0, 63, 91
12, 96002, Note_on_c, 0, 70, 85
12, 96002, Note_on_c, 0, 75, 95
12, 96005, Note_on_c, 0, 79, 74
12, 96085, Note_on_c, 0, 70, 0
12, 96115, Note_on_c, 0, 75, 0
12, 96122, Note_on_c, 0, 79, 0
12, 96125, Note_on_c, 0, 63, 0
12, 96482, Note_on_c, 0, 63, 102
12, 96482, Note_on_c, 0, 70, 87
12, 96482, Note_on_c, 0, 75, 89
12, 96485, Note_on_c, 0, 79, 76
12, 96565, Note_on_c, 0, 70, 0
12, 96582, Note_on_c, 0, 75, 0
12, 96585, Note_on_c, 0, 63, 0
12, 96807, Note_on_c, 0, 79, 0
12, 96962, Note_on_c, 0, 64, 85
12, 96962, Note_on_c, 0, 70, 82
12, 96962, Note_on_c, 0, 76, 82
12, 96965, Note_on_c, 0, 79, 68
12, 97037, Note_on_c, 0, 70, 0
12, 97100, Note_on_c, 0, 76, 0
12, 97107, Note_on_c, 0, 64, 0
12, 97112, Note_on_c, 0, 79, 0
12, 97442, Note_on_c, 0, 64, 95
12, 97442, Note_on_c, 0, 70, 82
12, 97442, Note_on_c, 0, 76, 80
12, 97445, Note_on_c, 0, 79, 62
12, 97517, Note_on_c, 0, 79, 0
12, 97540, Note_on_c, 0, 70, 0
12, 97567, Note_on_c, 0, 76, 0
12, 97567, Note_on_c, 0, 64, 0
12, 97922, Note_on_c, 0, 65, 80
12, 97922, Note_on_c, 0, 70, 82
12, 97922, Note_on_c, 0, 74, 80
12, 97925, Note_on_c, 0, 77, 78
12, 98047, Note_on_c, 0, 74, 0
12, 98050, Note_on_c, 0, 70, 0
12, 98055, Note_on_c, 0, 77, 0
12, 98077, Note_on_c, 0, 65, 0
12, 98402, Note_on_c, 0, 65, 102
12, 98402, Note_on_c, 0, 70, 85
12, 98402, Note_on_c, 0, 74, 85
12, 98405, Note_on_c, 0, 77, 80
12, 98500, Note_on_c, 0, 70, 0
12, 98512, Note_on_c, 0, 74, 0
12, 98532, Note_on_c, 0, 77, 0
12, 98537, Note_on_c, 0, 65, 0
12, 98882, Note_on_c, 0, 58, 95
12, 98882, Note_on_c, 0, 70, 87
12, 98882, Note_on_c, 0, 74, 89
12, 98885, Note_on_c, 0, 77, 85
12, 98985, Note_on_c, 0, 74, 0
12, 98987, Note_on_c, 0, 70, 0
12, 99007, Note_on_c, 0, 77, 0
12, 99010, Note_on_c, 0, 58, 0
12, 99362, Note_on_c, 0, 58, 102
12, 99362, Note_on_c, 0, 70, 85
12, 99365, Note_on_c, 0, 74, 89
12, 99365, Note_on_c, 0, 77, 85
12, 99450, Note_on_c, 0, 74, 0
12, 99452, Note_on_c, 0, 70, 0
12, 99465, Note_on_c, 0, 77, 0
12, 99505, Note_on_c, 0, 58, 0
12, 99842, Note_on_c, 0, 60, 91
12, 99842, Note_on_c, 0, 67, 87
12, 99845, Note_on_c, 0, 70, 85
12, 99845, Note_on_c, 0, 72, 89
12, 99847, Note_on_c, 0, 76, 80
12, 100507, Control_c, 0, 64, 127
12, 100512, Note_on_c, 0, 60, 0
12, 100642, Note_on_c, 0, 60, 89
12, 100695, Note_on_c, 0, 72, 0
12, 100745, Note_on_c, 0, 67, 0
12, 100787, Note_on_c, 0, 70, 0
12, 100802, Note_on_c, 0, 67, 89
12, 100805, Note_on_c, 0, 76, 0
12, 101122, Note_on_c, 0, 70, 76
12, 101272, Note_on_c, 0, 60, 0
12, 101282, Note_on_c, 0, 76, 98
12, 101395, Note_on_c, 0, 70, 0
12, 101417, Note_on_c, 0, 67, 0
12, 101470, Note_on_c, 0, 76, 0
12, 101690, Control_c, 0, 64, 0
12, 101762, Note_on_c, 0, 58, 80
12, 101762, Note_on_c, 0, 65, 78
12, 101762, Note_on_c, 0, 70, 80
12, 101765, Note_on_c, 0, 74, 76
12, 102090, Note_on_c, 0, 65, 0
12, 102222, Note_on_c, 0, 74, 0
12, 102222, Note_on_c, 0, 70, 0
12, 102230, Note_on_c, 0, 58, 0
12, 102242, Note_on_c, 0, 53, 80
12, 102242, Note_on_c, 0, 65, 100
12, 102687, Note_on_c, 0, 53, 0
12, 102692, Note_on_c, 0, 65, 0
12, 102722, Note_on_c, 0, 55, 82
12, 102722, Note_on_c, 0, 67, 91
12, 103177, Note_on_c, 0, 67, 0
12, 103202, Note_on_c, 0, 57, 100
12, 103202, Note_on_c, 0, 69, 93
12, 103215, Note_on_c, 0, 55, 0
12, 103465, Note_on_c, 0, 69, 0
12, 103510, Note_on_c, 0, 57, 0
12, 103685, Note_on_c, 0, 46, 76
12, 104162, Note_on_c, 0, 58, 93
12, 104162, Note_on_c, 0, 62, 102
12, 104162, Note_on_c, 0, 65, 98
12, 104235, Note_on_c, 0, 58, 0
12, 104240, Note_on_c, 0, 65, 0
12, 104242, Note_on_c, 0, 62, 0
12, 104270, Note_on_c, 0, 46, 0
12, 104642, Note_on_c, 0, 41, 68
12, 105122, Note_on_c, 0, 58, 85
12, 105122, Note_on_c, 0, 62, 91
12, 105125, Note_on_c, 0, 65, 95
12, 105147, Note_on_c, 0, 41, 0
12, 105200, Note_on_c, 0, 62, 0
12, 105202, Note_on_c, 0, 58, 0
12, 105230, Note_on_c, 0, 65, 0
12, 105602, Note_on_c, 0, 50, 82
12, 106082, Note_on_c, 0, 57, 87
12, 106082, Note_on_c, 0, 62, 95
12, 106082, Note_on_c, 0, 65, 93
12, 106147, Note_on_c, 0, 62, 0
12, 106157, Note_on_c, 0, 57, 0
12, 106175, Note_on_c, 0, 65, 0
12, 106190, Note_on_c, 0, 50, 0
12, 106562, Note_on_c, 0, 45, 70
12, 107042, Note_on_c, 0, 57, 82
12, 107042, Note_on_c, 0, 62, 85
12, 107042, Note_on_c, 0, 65, 85
12, 107095, Note_on_c, 0, 45, 0
12, 107102, Note_on_c, 0, 62, 0
12, 107107, Note_on_c, 0, 65, 0
12, 107122, Note_on_c, 0, 57, 0
12, 107522, Note_on_c, 0, 51, 80
12, 108002, Note_on_c, 0, 58, 87
12, 108002, Note_on_c, 0, 63, 89
12, 108002, Note_on_c, 0, 67, 80
12, 108052, Note_on_c, 0, 51, 0
12, 108072, Note_on_c, 0, 58, 0
12, 108077, Note_on_c, 0, 63, 0
12, 108090, Note_on_c, 0, 67, 0
12, 108482, Note_on_c, 0, 46, 85
12, 108962, Note_on_c, 0, 58, 80
12, 108962, Note_on_c, 0, 63, 89
12, 108962, Note_on_c, 0, 67, 85
12, 109030, Note_on_c, 0, 46, 0
12, 109037, Note_on_c, 0, 58, 0
12, 109060, Note_on_c, 0, 67, 0
12, 109062, Note_on_c, 0, 63, 0
12, 109442, Note_on_c, 0, 46, 68
12, 109922, Note_on_c, 0, 58, 85
12, 109922, Note_on_c, 0, 62, 102
12, 109922, Note_on_c, 0, 65, 93
12, 109975, Note_on_c, 0, 46, 0
12, 109992, Note_on_c, 0, 58, 0
12, 110010, Note_on_c, 0, 62, 0
12, 110015, Note_on_c, 0, 65, 0
12, 110402, Note_on_c, 0, 41, 78
12, 110870, Note_on_c, 0, 41, 0
12, 110882, Note_on_c, 0, 58, 85
12, 110882, Note_on_c, 0, 62, 85
12, 110882, Note_on_c, 0, 65, 80
12, 110965, Note_on_c, 0, 58, 0
12, 110972, Note_on_c, 0, 62, 0
12, 110975, Note_on_c, 0, 65, 0
12, 111362, Note_on_c, 0, 51, 78
12, 111362, Note_on_c, 0, 58, 89
12, 111362, Note_on_c, 0, 63, 98
12, 111362, Note_on_c, 0, 67, 85
12, 111452, Note_on_c, 0, 58, 0
12, 111462, Note_on_c, 0, 67, 0
12, 111465, Note_on_c, 0, 63, 0
12, 111490, Note_on_c, 0, 51, 0
12, 111842, Note_on_c, 0, 51, 98
12, 111842, Note_on_c, 0, 58, 87
12, 111842, Note_on_c, 0, 63, 100
12, 111845, Note_on_c, 0, 67, 87
12, 111945, Note_on_c, 0, 58, 0
12, 111952, Note_on_c, 0, 67, 0
12, 111957, Note_on_c, 0, 63, 0
12, 111992, Note_on_c, 0, 51, 0
12, 112322, Note_on_c, 0, 46, 95
12, 112322, Note_on_c, 0, 58, 82
12, 112322, Note_on_c, 0, 62, 93
12, 112325, Note_on_c, 0, 65, 91
12, 112430, Note_on_c, 0, 62, 0
12, 112445, Note_on_c, 0, 58, 0
12, 112447, Note_on_c, 0, 65, 0
12, 112462, Note_on_c, 0, 46, 0
12, 113282, Note_on_c, 0, 51, 100
12, 113282, Note_on_c, 0, 58, 95
12, 113282, Note_on_c, 0, 63, 98
12, 113282, Note_on_c, 0, 67, 87
12, 113380, Note_on_c, 0, 67, 0
12, 113390, Note_on_c, 0, 58, 0
12, 113402, Note_on_c, 0, 63, 0
12, 113437, Note_on_c, 0, 51, 0
12, 113762, Note_on_c, 0, 51, 107
12, 113762, Note_on_c, 0, 58, 93
12, 113762, Note_on_c, 0, 63, 102
12, 113762, Note_on_c, 0, 67, 89
12, 113865, Note_on_c, 0, 58, 0
12, 113867, Note_on_c, 0, 67, 0
12, 113875, Note_on_c, 0, 63, 0
12, 113880, Note_on_c, 0, 51, 0
12, 114242, Note_on_c, 0, 46, 100
12, 114242, Note_on_c, 0, 58, 89
12, 114242, Note_on_c, 0, 62, 100
12, 114245, Note_on_c, 0, 65, 100
12, 114360, Note_on_c, 0, 62, 0
12, 114362, Note_on_c, 0, 65, 0
12, 114365, Note_on_c, 0, 58, 0
12, 114397, Note_on_c, 0, 46, 0
12, 115202, Note_on_c, 0, 51, 102
12, 115202, Note_on_c, 0, 58, 91
12, 115205, Note_on_c, 0, 63, 100
12, 115205, Note_on_c, 0, 67, 95
12, 115302, Note_on_c, 0, 58, 0
12, 115312, Note_on_c, 0, 67, 0
12, 115325, Note_on_c, 0, 63, 0
12, 115325, Note_on_c, 0, 51, 0
12, 115682, Note_on_c, 0, 51, 102
12, 115682, Note_on_c, 0, 58, 98
12, 115682, Note_on_c, 0, 63, 100
12, 115685, Note_on_c, 0, 67, 89
12, 115790, Note_on_c, 0, 63, 0
12, 115792, Note_on_c, 0, 58, 0
12, 115795, Note_on_c, 0, 67, 0
12, 115825, Note_on_c, 0, 51, 0
12, 116162, Note_on_c, 0, 46, 95
12, 116162, Note_on_c, 0, 58, 93
12, 116162, Note_on_c, 0, 62, 95
12, 116162, Note_on_c, 0, 65, 98
12, 116282, Note_on_c, 0, 62, 0
12, 116295, Note_on_c, 0, 58, 0
12, 116302, Note_on_c, 0, 46, 0
12, 116312, Note_on_c, 0, 65, 0
12, 117122, Note_on_c, 0, 55, 82
12, 117122, Note_on_c, 0, 58, 85
12, 117125, Note_on_c, 0, 62, 87
12, 117887, Note_on_c, 0, 62, 0
12, 117910, Note_on_c, 0, 55, 0
12, 117917, Note_on_c, 0, 58, 0
12, 118082, Note_on_c, 0, 41, 80
12, 118082, Note_on_c, 0, 53, 91
12, 118082, Note_on_c, 0, 57, 91
12, 118085, Note_on_c, 0, 60, 82
12, 118895, Note_on_c, 0, 53, 0
12, 118940, Note_on_c, 0, 41, 0
12, 118945, Note_on_c, 0, 60, 0
12, 118957, Note_on_c, 0, 57, 0
12, 119045, Note_on_c, 0, 38, 91
12, 119045, Note_on_c, 0, 57, 102
12, 119045, Note_on_c, 0, 62, 110
12, 119047, Note_on_c, 0, 66, 102
12, 119522, Note_on_c, 0, 50, 87
12, 119675, Note_on_c, 0, 62, 0
12, 119720, Note_on_c, 0, 66, 0
12, 119762, Note_on_c, 0, 57, 0
12, 119830, Note_on_c, 0, 50, 0
12, 119842, Note_on_c, 0, 57, 80
12, 119842, Note_on_c, 0, 60, 93
12, 119842, Note_on_c, 0, 62, 93
12, 119842, Note_on_c, 0, 66, 72
12, 120962, Note_on_c, 0, 50, 95
12, 121060, Control_c, 0, 64, 127
12, 121385, Note_on_c, 0, 50, 0
12, 121532, Note_on_c, 0, 57, 0
12, 121577, Note_on_c, 0, 60, 0
12, 121602, Note_on_c, 0, 50, 76
12, 121650, Note_on_c, 0, 66, 0
12, 121740, Note_on_c, 0, 38, 0
12, 121762, Note_on_c, 0, 57, 49
12, 121762, Note_on_c, 0, 60, 66
12, 121922, Note_on_c, 0, 66, 105
12, 121957, Note_on_c, 0, 50, 0
12, 121960, Note_on_c, 0, 60, 0
12, 121972, Note_on_c, 0, 62, 0
12, 122242, Note_on_c, 0, 62, 93
12, 122295, Note_on_c, 0, 66, 0
12, 122387, Note_on_c, 0, 57, 0
12, 122402, Note_on_c, 0, 60, 80
12, 122635, Note_on_c, 0, 60, 0
12, 122722, Note_on_c, 0, 50, 59
12, 122722, Note_on_c, 0, 57, 59
12, 122780, Note_on_c, 0, 62, 0
12, 122860, Control_c, 0, 64, 0
12, 122880, Note_on_c, 0, 57, 0
12, 122882, Note_on_c, 0, 43, 76
12, 122882, Note_on_c, 0, 59, 82
12, 122882, Note_on_c, 0, 62, 78
12, 122917, Note_on_c, 0, 50, 0
12, 123005, Control_c, 0, 64, 127
12, 123522, Note_on_c, 0, 53, 56
12, 123612, Note_on_c, 0, 53, 0
12, 123842, Note_on_c, 0, 53, 82
12, 123847, Note_on_c, 0, 43, 0
12, 123937, Note_on_c, 0, 53, 0
12, 123995, Note_on_c, 0, 59, 0
12, 124002, Note_on_c, 0, 43, 80
12, 124042, Note_on_c, 0, 62, 0
12, 124322, Note_on_c, 0, 65, 87
12, 124360, Note_on_c, 0, 43, 0
12, 124457, Note_on_c, 0, 65, 0
12, 124482, Note_on_c, 0, 67, 68
12, 124607, Note_on_c, 0, 67, 0
12, 124802, Note_on_c, 0, 71, 80
12, 124920, Note_on_c, 0, 71, 0
12, 124962, Note_on_c, 0, 74, 82
12, 125077, Note_on_c, 0, 74, 0
12, 125282, Note_on_c, 0, 79, 80
12, 125412, Note_on_c, 0, 79, 0
12, 125602, Note_on_c, 0, 79, 80
12, 125765, Note_on_c, 0, 79, 0
12, 126082, Note_on_c, 0, 79, 82
12, 126195, Note_on_c, 0, 79, 0
12, 126242, Note_on_c, 0, 43, 78
12, 126647, Note_on_c, 0, 43, 0
12, 126705, Control_c, 0, 64, 0
12, 126722, Note_on_c, 0, 48, 82
12, 126722, Note_on_c, 0, 60, 60
12, 127202, Note_on_c, 0, 64, 89
12, 127202, Note_on_c, 0, 70, 93
12, 127257, Note_on_c, 0, 48, 0
12, 127285, Note_on_c, 0, 64, 0
12, 127300, Note_on_c, 0, 70, 0
12, 127377, Note_on_c, 0, 60, 0
12, 127522, Note_on_c, 0, 60, 78
12, 127522, Note_on_c, 0, 64, 100
12, 127522, Note_on_c, 0, 70, 102
12, 127552, Control_c, 0, 64, 127
12, 127657, Note_on_c, 0, 70, 0
12, 127667, Note_on_c, 0, 64, 0
12, 127675, Note_on_c, 0, 60, 0
12, 128002, Note_on_c, 0, 48, 85
12, 128152, Control_c, 0, 64, 0
12, 128162, Note_on_c, 0, 55, 80
12, 128162, Note_on_c, 0, 60, 82
12, 128162, Note_on_c, 0, 64, 62
12, 128215, Control_c, 0, 64, 127
12, 128265, Note_on_c, 0, 64, 0
12, 128287, Note_on_c, 0, 60, 0
12, 128332, Note_on_c, 0, 55, 0
12, 128482, Note_on_c, 0, 55, 78
12, 128482, Note_on_c, 0, 58, 72
12, 128482, Note_on_c, 0, 60, 100
12, 128485, Note_on_c, 0, 64, 91
12, 128500, Note_on_c, 0, 48, 0
12, 128642, Note_on_c, 0, 46, 89
12, 128652, Control_c, 0, 64, 0
12, 128670, Note_on_c, 0, 64, 0
12, 128695, Note_on_c, 0, 55, 0
12, 128742, Note_on_c, 0, 60, 0
12, 128742, Note_on_c, 0, 58, 0
12, 129102, Control_c, 0, 64, 127
12, 129122, Note_on_c, 0, 53, 80
12, 129122, Note_on_c, 0, 58, 66
12, 129122, Note_on_c, 0, 62, 80
12, 129237, Note_on_c, 0, 53, 0
12, 129260, Note_on_c, 0, 62, 0
12, 129270, Note_on_c, 0, 58, 0
12, 129442, Note_on_c, 0, 53, 82
12, 129442, Note_on_c, 0, 58, 64
12, 129442, Note_on_c, 0, 62, 89
12, 129450, Note_on_c, 0, 46, 0
12, 129820, Note_on_c, 0, 53, 0
12, 129902, Note_on_c, 0, 58, 0
12, 129922, Note_on_c, 0, 46, 82
12, 129950, Note_on_c, 0, 62, 0
12, 130082, Note_on_c, 0, 53, 56
12, 130082, Note_on_c, 0, 57, 89
12, 130082, Note_on_c, 0, 62, 95
12, 130135, Note_on_c, 0, 46, 0
12, 130235, Note_on_c, 0, 53, 0
12, 130285, Control_c, 0, 64, 0
12, 130322, Note_on_c, 0, 57, 0
12, 130345, Note_on_c, 0, 62, 0
12, 130402, Note_on_c, 0, 46, 89
12, 130542, Note_on_c, 0, 46, 0
12, 130562, Note_on_c, 0, 48, 85
12, 131012, Control_c, 0, 64, 127
12, 131042, Note_on_c, 0, 55, 64
12, 131042, Note_on_c, 0, 58, 45
12, 131042, Note_on_c, 0, 60, 48
12, 131042, Note_on_c, 0, 62, 41
12, 131045, Note_on_c, 0, 64, 60
12, 131077, Note_on_c, 0, 62, 0
12, 131087, Note_on_c, 0, 60, 0
12, 131102, Note_on_c, 0, 58, 0
12, 131125, Note_on_c, 0, 55, 0
12, 131127, Note_on_c, 0, 64, 0
12, 131362, Note_on_c, 0, 55, 82
12, 131362, Note_on_c, 0, 58, 74
12, 131362, Note_on_c, 0, 60, 100
12, 131362, Note_on_c, 0, 64, 91
12, 131432, Note_on_c, 0, 48, 0
12, 132002, Note_on_c, 0, 48, 102
12, 132030, Note_on_c, 0, 60, 0
12, 132035, Note_on_c, 0, 58, 0
12, 132045, Note_on_c, 0, 55, 0
12, 132085, Note_on_c, 0, 64, 0
12, 132420, Note_on_c, 0, 48, 0
12, 132437, Control_c, 0, 64, 0
12, 132482, Note_on_c, 0, 41, 66
12, 132482, Note_on_c, 0, 53, 80
12, 132482, Note_on_c, 0, 57, 87
12, 132482, Note_on_c, 0, 63, 74
12, 132645, Control_c, 0, 64, 127
12, 133930, Note_on_c, 0, 53, 0
12, 133945, Note_on_c, 0, 57, 0
12, 133982, Note_on_c, 0, 41, 0
12, 134022, Note_on_c, 0, 63, 0
12, 134260, Control_c, 0, 64, 0
12, 134405, Note_on_c, 0, 53, 100
12, 134405, Note_on_c, 0, 58, 87
12, 134405, Note_on_c, 0, 62, 98
12, 134467, Note_on_c, 0, 53, 0
12, 134475, Note_on_c, 0, 58, 0
12, 134487, Note_on_c, 0, 62, 0
12, 134882, Note_on_c, 0, 53, 100
12, 134882, Note_on_c, 0, 58, 100
12, 134882, Note_on_c, 0, 62, 102
12, 134962, Note_on_c, 0, 62, 0
12, 134970, Note_on_c, 0, 58, 0
12, 134977, Note_on_c, 0, 53, 0
12, 135362, Note_on_c, 0, 53, 98
12, 135362, Note_on_c, 0, 58, 95
12, 135362, Note_on_c, 0, 62, 100
12, 135452, Note_on_c, 0, 62, 0
12, 135455, Note_on_c, 0, 58, 0
12, 135475, Note_on_c, 0, 53, 0
12, 135842, Note_on_c, 0, 53, 102
12, 135842, Note_on_c, 0, 58, 82
12, 135842, Note_on_c, 0, 62, 100
12, 135927, Note_on_c, 0, 62, 0
12, 135932, Note_on_c, 0, 58, 0
12, 135947, Note_on_c, 0, 53, 0
12, 136322, Note_on_c, 0, 53, 102
12, 136322, Note_on_c, 0, 58, 100
12, 136325, Note_on_c, 0, 62, 100
12, 136400, Note_on_c, 0, 62, 0
12, 136425, Note_on_c, 0, 58, 0
12, 136427, Note_on_c, 0, 53, 0
12, 136802, Note_on_c, 0, 53, 100
12, 136802, Note_on_c, 0, 58, 89
12, 136805, Note_on_c, 0, 62, 102
12, 136900, Note_on_c, 0, 62, 0
12, 136902, Note_on_c, 0, 58, 0
12, 136905, Note_on_c, 0, 53, 0
12, 137282, Note_on_c, 0, 53, 100
12, 137282, Note_on_c, 0, 58, 87
12, 137282, Note_on_c, 0, 62, 100
12, 137375, Note_on_c, 0, 58, 0
12, 137380, Note_on_c, 0, 62, 0
12, 137397, Note_on_c, 0, 53, 0
12, 137762, Note_on_c, 0, 53, 100
12, 137762, Note_on_c, 0, 58, 89
12, 137765, Note_on_c, 0, 62, 100
12, 137855, Note_on_c, 0, 62, 0
12, 137865, Note_on_c, 0, 58, 0
12, 137875, Note_on_c, 0, 53, 0
12, 138242, Note_on_c, 0, 53, 98
12, 138242, Note_on_c, 0, 58, 98
12, 138242, Note_on_c, 0, 62, 98
12, 138330, Note_on_c, 0, 62, 0
12, 138330, Note_on_c, 0, 58, 0
12, 138360, Note_on_c, 0, 53, 0
12, 138722, Note_on_c, 0, 53, 98
12, 138722, Note_on_c, 0, 58, 89
12, 138722, Note_on_c, 0, 62, 87
12, 138802, Note_on_c, 0, 58, 0
12, 138807, Note_on_c, 0, 62, 0
12, 138822, Note_on_c, 0, 53, 0
12, 139202, Note_on_c, 0, 53, 98
12, 139202, Note_on_c, 0, 58, 87
12, 139202, Note_on_c, 0, 62, 89
12, 139292, Note_on_c, 0, 58, 0
12, 139300, Note_on_c, 0, 62, 0
12, 139302, Note_on_c, 0, 53, 0
12, 139682, Note_on_c, 0, 53, 87
12, 139682, Note_on_c, 0, 58, 87
12, 139682, Note_on_c, 0, 62, 91
12, 139782, Note_on_c, 0, 53, 0
12, 139785, Note_on_c, 0, 62, 0
12, 139790, Note_on_c, 0, 58, 0
12, 140162, Note_on_c, 0, 53, 95
12, 140162, Note_on_c, 0, 58, 95
12, 140162, Note_on_c, 0, 62, 98
12, 140260, Note_on_c, 0, 58, 0
12, 140262, Note_on_c, 0, 62, 0
12, 140267, Note_on_c, 0, 53, 0
12, 140642, Note_on_c, 0, 53, 87
12, 140642, Note_on_c, 0, 58, 91
12, 140645, Note_on_c, 0, 62, 95
12, 140737, Note_on_c, 0, 58, 0
12, 140747, Note_on_c, 0, 62, 0
12, 140750, Note_on_c, 0, 53, 0
12, 141122, Note_on_c, 0, 53, 95
12, 141122, Note_on_c, 0, 58, 85
12, 141122, Note_on_c, 0, 62, 89
12, 141210, Note_on_c, 0, 58, 0
12, 141227, Note_on_c, 0, 62, 0
12, 141235, Note_on_c, 0, 53, 0
12, 141602, Note_on_c, 0, 53, 100
12, 141602, Note_on_c, 0, 58, 89
12, 141602, Note_on_c, 0, 62, 89
12, 141712, Note_on_c, 0, 62, 0
12, 141717, Note_on_c, 0, 58, 0
12, 141717, Note_on_c, 0, 53, 0
12, 142082, Note_on_c, 0, 55, 87
12, 142082, Note_on_c, 0, 58, 91
12, 142085, Note_on_c, 0, 63, 100
12, 142182, Note_on_c, 0, 58, 0
12, 142185, Note_on_c, 0, 55, 0
12, 142197, Note_on_c, 0, 63, 0
12, 142562, Note_on_c, 0, 55, 91
12, 142562, Note_on_c, 0, 58, 95
12, 142565, Note_on_c, 0, 63, 98
12, 142667, Note_on_c, 0, 55, 0
12, 142687, Note_on_c, 0, 58, 0
12, 142692, Note_on_c, 0, 63, 0
12, 143042, Note_on_c, 0, 55, 87
12, 143042, Note_on_c, 0, 58, 89
12, 143042, Note_on_c, 0, 63, 93
12, 143147, Note_on_c, 0, 55, 0
12, 143157, Note_on_c, 0, 63, 0
12, 143165, Note_on_c, 0, 58, 0
12, 143522, Note_on_c, 0, 55, 68
12, 143522, Note_on_c, 0, 58, 93
12, 143522, Note_on_c, 0, 63, 91
12, 143625, Note_on_c, 0, 55, 0
12, 143627, Note_on_c, 0, 63, 0
12, 143640, Note_on_c, 0, 58, 0
12, 144002, Note_on_c, 0, 55, 85
12, 144002, Note_on_c, 0, 58, 98
12, 144002, Note_on_c, 0, 63, 100
12, 144100, Note_on_c, 0, 55, 0
12, 144107, Note_on_c, 0, 63, 0
12, 144110, Note_on_c, 0, 58, 0
12, 144482, Note_on_c, 0, 55, 68
12, 144482, Note_on_c, 0, 58, 87
12, 144482, Note_on_c, 0, 63, 91
12, 144587, Note_on_c, 0, 55, 0
12, 144590, Note_on_c, 0, 58, 0
12, 144605, Note_on_c, 0, 63, 0
12, 144962, Note_on_c, 0, 55, 87
12, 144962, Note_on_c, 0, 58, 87
12, 144962, Note_on_c, 0, 63, 93
12, 145072, Note_on_c, 0, 55, 0
12, 145075, Note_on_c, 0, 58, 0
12, 145077, Note_on_c, 0, 63, 0
12, 145442, Note_on_c, 0, 55, 78
12, 145442, Note_on_c, 0, 58, 87
12, 145442, Note_on_c, 0, 63, 89
12, 145562, Note_on_c, 0, 55, 0
12, 145587, Note_on_c, 0, 63, 0
12, 145595, Note_on_c, 0, 58, 0
12, 145922, Note_on_c, 0, 55, 89
12, 145922, Note_on_c, 0, 60, 91
12, 145922, Note_on_c, 0, 63, 82
12, 146040, Note_on_c, 0, 60, 0
12, 146045, Note_on_c, 0, 55, 0
12, 146062, Note_on_c, 0, 63, 0
12, 146402, Note_on_c, 0, 55, 87
12, 146402, Note_on_c, 0, 60, 95
12, 146402, Note_on_c, 0, 63, 89
12, 146500, Note_on_c, 0, 60, 0
12, 146517, Note_on_c, 0, 63, 0
12, 146537, Note_on_c, 0, 55, 0
12, 146882, Note_on_c, 0, 55, 68
12, 146882, Note_on_c, 0, 60, 91
12, 146882, Note_on_c, 0, 63, 85
12, 147012, Note_on_c, 0, 60, 0
12, 147020, Note_on_c, 0, 63, 0
12, 147037, Note_on_c, 0, 55, 0
12, 147362, Note_on_c, 0, 55, 78
12, 147362, Note_on_c, 0, 60, 89
12, 147365, Note_on_c, 0, 63, 91
12, 147490, Note_on_c, 0, 60, 0
12, 147492, Note_on_c, 0, 55, 0
12, 147512, Note_on_c, 0, 63, 0
12, 147842, Note_on_c, 0, 57, 82
12, 147842, Note_on_c, 0, 60, 95
12, 147842, Note_on_c, 0, 65, 87
12, 147977, Note_on_c, 0, 60, 0
12, 147992, Note_on_c, 0, 57, 0
12, 147995, Note_on_c, 0, 65, 0
12, 148322, Note_on_c, 0, 57, 82
12, 148322, Note_on_c, 0, 60, 87
12, 148322, Note_on_c, 0, 63, 87
12, 148447, Note_on_c, 0, 60, 0
12, 148452, Note_on_c, 0, 63, 0
12, 148465, Note_on_c, 0, 57, 0
12, 148802, Note_on_c, 0, 57, 85
12, 148802, Note_on_c, 0, 60, 95
12, 148802, Note_on_c, 0, 62, 93
12, 148910, Note_on_c, 0, 62, 0
12, 148912, Note_on_c, 0, 60, 0
12, 148932, Note_on_c, 0, 57, 0
12, 149282, Note_on_c, 0, 57, 85
12, 149282, Note_on_c, 0, 60, 105
12, 149382, Note_on_c, 0, 60, 0
12, 149407, Note_on_c, 0, 57, 0
12, 149765, Note_on_c, 0, 46, 113
12, 149765, Note_on_c, 0, 58, 76
12, 149765, Note_on_c, 0, 62, 87
12, 149767, Note_on_c, 0, 65, 68
12, 149810, Note_on_c, 0, 62, 0
12, 149815, Note_on_c, 0, 58, 0
12, 149822, Note_on_c, 0, 65, 0
12, 149827, Note_on_c, 0, 46, 0
12, 150242, Note_on_c, 0, 46, 105
12, 150242, Note_on_c, 0, 58, 74
12, 150242, Note_on_c, 0, 62, 64
12, 150245, Note_on_c, 0, 65, 66
12, 150287, Note_on_c, 0, 62, 0
12, 150297, Note_on_c, 0, 46, 0
12, 150300, Note_on_c, 0, 65, 0
12, 150307, Note_on_c, 0, 58, 0
12, 150722, Note_on_c, 0, 46, 102
12, 150722, Note_on_c, 0, 58, 95
12, 150725, Note_on_c, 0, 62, 78
12, 150725, Note_on_c, 0, 65, 61
12, 150760, Note_on_c, 0, 62, 0
12, 150767, Note_on_c, 0, 65, 0
12, 150782, Note_on_c, 0, 46, 0
12, 150785, Note_on_c, 0, 58, 0
12, 151202, Note_on_c, 0, 46, 105
12, 151202, Note_on_c, 0, 58, 87
12, 151202, Note_on_c, 0, 62, 91
12, 151202, Note_on_c, 0, 65, 82
12, 151255, Note_on_c, 0, 62, 0
12, 151257, Note_on_c, 0, 46, 0
12, 151262, Note_on_c, 0, 58, 0
12, 151272, Note_on_c, 0, 65, 0
12, 151682, Note_on_c, 0, 50, 80
12, 151682, Note_on_c, 0, 57, 85
12, 151682, Note_on_c, 0, 62, 102
12, 151682, Note_on_c, 0, 65, 91
12, 151745, Note_on_c, 0, 65, 0
12, 151747, Note_on_c, 0, 57, 0
12, 151750, Note_on_c, 0, 62, 0
12, 151760, Note_on_c, 0, 50, 0
12, 152162, Note_on_c, 0, 50, 98
12, 152162, Note_on_c, 0, 57, 82
12, 152165, Note_on_c, 0, 62, 93
12, 152165, Note_on_c, 0, 65, 87
12, 152217, Note_on_c, 0, 62, 0
12, 152220, Note_on_c, 0, 57, 0
12, 152225, Note_on_c, 0, 50, 0
12, 152230, Note_on_c, 0, 65, 0
12, 152642, Note_on_c, 0, 50, 93
12, 152642, Note_on_c, 0, 57, 85
12, 152642, Note_on_c, 0, 62, 100
12, 152642, Note_on_c, 0, 65, 89
12, 152697, Note_on_c, 0, 62, 0
12, 152702, Note_on_c, 0, 50, 0
12, 152702, Note_on_c, 0, 57, 0
12, 152710, Note_on_c, 0, 65, 0
12, 153122, Note_on_c, 0, 50, 100
12, 153122, Note_on_c, 0, 57, 87
12, 153122, Note_on_c, 0, 62, 95
12, 153122, Note_on_c, 0, 65, 91
12, 153167, Note_on_c, 0, 62, 0
12, 153167, Note_on_c, 0, 57, 0
12, 153187, Note_on_c, 0, 50, 0
12, 153190, Note_on_c, 0, 65, 0
12, 153602, Note_on_c, 0, 51, 98
12, 153602, Note_on_c, 0, 58, 102
12, 153602, Note_on_c, 0, 63, 100
12, 153602, Note_on_c, 0, 67, 89
12, 153662, Note_on_c, 0, 67, 0
12, 153665, Note_on_c, 0, 58, 0
12, 153670, Note_on_c, 0, 63, 0
12, 153680, Note_on_c, 0, 51, 0
12, 154082, Note_on_c, 0, 51, 98
12, 154082, Note_on_c, 0, 58, 95
12, 154085, Note_on_c, 0, 63, 100
12, 154085, Note_on_c, 0, 67, 89
12, 154127, Note_on_c, 0, 58, 0
12, 154135, Note_on_c, 0, 67, 0
12, 154145, Note_on_c, 0, 63, 0
12, 154155, Note_on_c, 0, 51, 0
12, 154562, Note_on_c, 0, 51, 93
12, 154562, Note_on_c, 0, 58, 102
12, 154562, Note_on_c, 0, 63, 100
12, 154565, Note_on_c, 0, 67, 98
12, 154607, Note_on_c, 0, 58, 0
12, 154612, Note_on_c, 0, 63, 0
12, 154617, Note_on_c, 0, 67, 0
12, 154622, Note_on_c, 0, 51, 0
12, 155042, Note_on_c, 0, 51, 95
12, 155042, Note_on_c, 0, 58, 98
12, 155042, Note_on_c, 0, 63, 91
12, 155045, Note_on_c, 0, 67, 87
12, 155095, Note_on_c, 0, 67, 0
12, 155095, Note_on_c, 0, 63, 0
12, 155097, Note_on_c, 0, 58, 0
12, 155112, Note_on_c, 0, 51, 0
12, 155522, Note_on_c, 0, 46, 107
12, 155522, Note_on_c, 0, 58, 82
12, 155522, Note_on_c, 0, 62, 82
12, 155522, Note_on_c, 0, 65, 80
12, 155565, Note_on_c, 0, 62, 0
12, 155585, Note_on_c, 0, 58, 0
12, 155590, Note_on_c, 0, 46, 0
12, 155597, Note_on_c, 0, 65, 0
12, 156002, Note_on_c, 0, 46, 100
12, 156002, Note_on_c, 0, 58, 66
12, 156002, Note_on_c, 0, 62, 87
12, 156002, Note_on_c, 0, 65, 89
12, 156050, Note_on_c, 0, 62, 0
12, 156052, Note_on_c, 0, 58, 0
12, 156065, Note_on_c, 0, 46, 0
12, 156067, Note_on_c, 0, 65, 0
12, 156482, Note_on_c, 0, 46, 107
12, 156482, Note_on_c, 0, 58, 95
12, 156482, Note_on_c, 0, 62, 98
12, 156482, Note_on_c, 0, 65, 100
12, 156520, Note_on_c, 0, 62, 0
12, 156532, Note_on_c, 0, 58, 0
12, 156537, Note_on_c, 0, 46, 0
12, 156552, Note_on_c, 0, 65, 0
12, 156962, Note_on_c, 0, 46, 102
12, 156962, Note_on_c, 0, 58, 93
12, 156962, Note_on_c, 0, 62, 91
12, 156965, Note_on_c, 0, 65, 89
12, 157010, Note_on_c, 0, 62, 0
12, 157032, Note_on_c, 0, 46, 0
12, 157032, Note_on_c, 0, 58, 0
12, 157047, Note_on_c, 0, 65, 0
12, 157442, Note_on_c, 0, 51, 85
12, 157442, Note_on_c, 0, 58, 105
12, 157445, Note_on_c, 0, 63, 105
12, 157445, Note_on_c, 0, 67, 105
12, 157885, Note_on_c, 0, 67, 0
12, 157887, Note_on_c, 0, 58, 0
12, 157890, Note_on_c, 0, 63, 0
12, 157902, Note_on_c, 0, 51, 0
12, 157922, Note_on_c, 0, 51, 100
12, 157922, Note_on_c, 0, 58, 102
12, 157922, Note_on_c, 0, 63, 102
12, 157925, Note_on_c, 0, 67, 93
12, 158002, Note_on_c, 0, 63, 0
12, 158005, Note_on_c, 0, 67, 0
12, 158010, Note_on_c, 0, 58, 0
12, 158015, Note_on_c, 0, 51, 0
12, 158402, Note_on_c, 0, 52, 107
12, 158402, Note_on_c, 0, 58, 105
12, 158402, Note_on_c, 0, 64, 98
12, 158405, Note_on_c, 0, 67, 100
12, 158615, Note_on_c, 0, 64, 0
12, 158617, Note_on_c, 0, 52, 0
12, 158637, Note_on_c, 0, 58, 0
12, 158640, Note_on_c, 0, 67, 0
12, 159362, Note_on_c, 0, 53, 100
12, 159362, Note_on_c, 0, 58, 102
12, 159365, Note_on_c, 0, 62, 102
12, 159365, Note_on_c, 0, 65, 98
12, 159507, Note_on_c, 0, 62, 0
12, 159527, Note_on_c, 0, 65, 0
12, 159542, Note_on_c, 0, 58, 0
12, 159642, Note_on_c, 0, 53, 0
12, 159842, Note_on_c, 0, 53, 107
12, 159842, Note_on_c, 0, 58, 98
12, 159842, Note_on_c, 0, 62, 100
12, 159845, Note_on_c, 0, 65, 95
12, 159950, Note_on_c, 0, 62, 0
12, 159980, Note_on_c, 0, 65, 0
12, 160025, Note_on_c, 0, 53, 0
12, 160032, Note_on_c, 0, 58, 0
12, 160322, Note_on_c, 0, 46, 110
12, 160322, Note_on_c, 0, 58, 91
12, 160322, Note_on_c, 0, 62, 100
12, 160325, Note_on_c, 0, 65, 87
12, 160452, Note_on_c, 0, 62, 0
12, 160477, Note_on_c, 0, 65, 0
12, 160477, Note_on_c, 0, 46, 0
12, 160490, Note_on_c, 0, 58, 0
12, 160802, Note_on_c, 0, 46, 116
12, 160802, Note_on_c, 0, 58, 93
12, 160802, Note_on_c, 0, 62, 102
12, 160805, Note_on_c, 0, 65, 100
12, 160907, Note_on_c, 0, 62, 0
12, 160910, Note_on_c, 0, 65, 0
12, 160952, Note_on_c, 0, 46, 0
12, 160970, Note_on_c, 0, 58, 0
12, 161282, Note_on_c, 0, 48, 107
12, 161282, Note_on_c, 0, 55, 98
12, 161282, Note_on_c, 0, 58, 102
12, 161285, Note_on_c, 0, 60, 100
12, 161285, Note_on_c, 0, 64, 87
12, 161347, Channel_aftertouch_c, 0, 75
12, 161352, Control_c, 0, 64, 127
12, 161412, Channel_aftertouch_c, 0, 0
12, 162800, Note_on_c, 0, 60, 0
12, 162810, Note_on_c, 0, 55, 0
12, 162812, Note_on_c, 0, 48, 0
12, 162842, Note_on_c, 0, 64, 0
12, 162857, Note_on_c, 0, 58, 0
12, 163182, Control_c, 0, 64, 0
12, 163207, Note_on_c, 0, 41, 87
12, 163207, Note_on_c, 0, 57, 89
12, 163207, Note_on_c, 0, 60, 102
12, 163225, Control_c, 0, 64, 127
12, 163787, Note_on_c, 0, 57, 0
12, 163815, Note_on_c, 0, 60, 0
12, 164162, Note_on_c, 0, 57, 59
12, 164162, Note_on_c, 0, 60, 76
12, 164162, Note_on_c, 0, 63, 80
12, 164192, Note_on_c, 0, 60, 0
12, 164212, Note_on_c, 0, 63, 0
12, 164220, Note_on_c, 0, 57, 0
12, 164292, Note_on_c, 0, 41, 0
12, 165102, Control_c, 0, 64, 0
12, 165122, Note_on_c, 0, 46, 93
12, 165122, Note_on_c, 0, 53, 70
12, 165122, Note_on_c, 0, 58, 85
12, 165125, Note_on_c, 0, 62, 98
12, 165615, Control_c, 0, 64, 127
12, 165802, Note_on_c, 0, 53, 0
12, 165862, Note_on_c, 0, 58, 0
12, 165892, Note_on_c, 0, 62, 0
12, 166652, Note_on_c, 0, 46, 0
12, 166945, Control_c, 0, 64, 0
12, 167042, Note_on_c, 0, 46, 113
12, 167042, Note_on_c, 0, 65, 100
12, 167042, Note_on_c, 0, 70, 102
12, 167045, Note_on_c, 0, 77, 102
12, 167100, Note_on_c, 0, 70, 0
12, 167102, Note_on_c, 0, 65, 0
12, 167105, Note_on_c, 0, 77, 0
12, 167130, Note_on_c, 0, 46, 0
12, 167130, End_track
13, 0, Start_track
13, 0, MIDI_port, 0
13, 0, Title_t, "Strings "
13, 100, Control_c, 1, 121, 0
13, 195, Control_c, 1, 7, 100
13, 200, Control_c, 1, 10, 94
13, 202, Program_c, 1, 48
13, 210, Control_c, 1, 100, 0
13, 220, Control_c, 1, 101, 0
13, 222, Control_c, 1, 6, 2
13, 232, Control_c, 1, 11, 127
13, 240, Control_c, 1, 91, 50
13, 240, Control_c, 1, 93, 0
13, 58562, Note_on_c, 1, 63, 68
13, 58562, Note_on_c, 1, 75, 82
13, 59515, Note_on_c, 1, 75, 0
13, 59520, Note_on_c, 1, 63, 0
13, 59525, Note_on_c, 1, 62, 68
13, 59525, Note_on_c, 1, 74, 82
13, 61370, Note_on_c, 1, 74, 0
13, 61372, Note_on_c, 1, 62, 0
13, 61447, Note_on_c, 1, 67, 59
13, 61447, Note_on_c, 1, 79, 51
13, 62405, Note_on_c, 1, 69, 87
13, 62405, Note_on_c, 1, 81, 87
13, 62455, Note_on_c, 1, 79, 0
13, 62497, Note_on_c, 1, 67, 0
13, 63270, Note_on_c, 1, 69, 0
13, 63302, Note_on_c, 1, 81, 0
13, 63365, Note_on_c, 1, 67, 62
13, 63365, Note_on_c, 1, 79, 64
13, 65252, Note_on_c, 1, 67, 0
13, 65287, Note_on_c, 1, 72, 70
13, 65287, Note_on_c, 1, 84, 87
13, 65317, Note_on_c, 1, 79, 0
13, 65357, Note_on_c, 1, 84, 0
13, 65397, Note_on_c, 1, 72, 0
13, 65602, Note_on_c, 1, 72, 66
13, 65602, Note_on_c, 1, 84, 68
13, 65652, Note_on_c, 1, 84, 0
13, 65662, Note_on_c, 1, 72, 0
13, 65765, Note_on_c, 1, 72, 66
13, 65765, Note_on_c, 1, 84, 68
13, 65815, Note_on_c, 1, 84, 0
13, 65852, Note_on_c, 1, 72, 0
13, 66085, Note_on_c, 1, 72, 87
13, 66085, Note_on_c, 1, 84, 89
13, 66177, Note_on_c, 1, 84, 0
13, 66195, Note_on_c, 1, 72, 0
13, 67207, Note_on_c, 1, 70, 80
13, 67210, Note_on_c, 1, 82, 100
13, 67297, Note_on_c, 1, 82, 0
13, 67305, Note_on_c, 1, 70, 0
13, 67522, Note_on_c, 1, 70, 62
13, 67522, Note_on_c, 1, 82, 78
13, 67562, Note_on_c, 1, 82, 0
13, 67605, Note_on_c, 1, 70, 0
13, 67685, Note_on_c, 1, 70, 68
13, 67687, Note_on_c, 1, 82, 87
13, 67762, Note_on_c, 1, 82, 0
13, 67782, Note_on_c, 1, 70, 0
13, 68005, Note_on_c, 1, 70, 85
13, 68005, Note_on_c, 1, 82, 98
13, 68092, Note_on_c, 1, 82, 0
13, 68132, Note_on_c, 1, 70, 0
13, 69605, Note_on_c, 1, 67, 62
13, 69607, Note_on_c, 1, 79, 68
13, 70372, Note_on_c, 1, 67, 0
13, 70382, Note_on_c, 1, 79, 0
13, 70402, Note_on_c, 1, 65, 59
13, 70402, Note_on_c, 1, 77, 78
13, 70565, Note_on_c, 1, 67, 62
13, 70565, Note_on_c, 1, 79, 66
13, 70590, Note_on_c, 1, 65, 0
13, 70617, Note_on_c, 1, 77, 0
13, 71005, Note_on_c, 1, 79, 0
13, 71015, Note_on_c, 1, 67, 0
13, 71050, Note_on_c, 1, 65, 48
13, 71050, Note_on_c, 1, 77, 68
13, 72880, Note_on_c, 1, 65, 0
13, 72902, Note_on_c, 1, 77, 0
13, 72975, Note_on_c, 1, 58, 82
13, 72975, Note_on_c, 1, 65, 89
13, 73072, Note_on_c, 1, 58, 0
13, 73075, Note_on_c, 1, 65, 0
13, 73452, Note_on_c, 1, 58, 74
13, 73452, Note_on_c, 1, 65, 89
13, 73547, Note_on_c, 1, 58, 0
13, 73555, Note_on_c, 1, 65, 0
13, 73932, Note_on_c, 1, 58, 80
13, 73932, Note_on_c, 1, 65, 85
13, 74040, Note_on_c, 1, 58, 0
13, 74060, Note_on_c, 1, 65, 0
13, 74410, Note_on_c, 1, 58, 82
13, 74412, Note_on_c, 1, 65, 87
13, 74520, Note_on_c, 1, 65, 0
13, 74527, Note_on_c, 1, 58, 0
13, 74892, Note_on_c, 1, 58, 72
13, 74892, Note_on_c, 1, 65, 85
13, 74995, Note_on_c, 1, 65, 0
13, 74995, Note_on_c, 1, 58, 0
13, 75205, Note_on_c, 1, 70, 100
13, 75325, Note_on_c, 1, 70, 0
13, 75375, Note_on_c, 1, 58, 85
13, 75375, Note_on_c, 1, 65, 95
13, 75375, Note_on_c, 1, 74, 87
13, 75460, Note_on_c, 1, 58, 0
13, 75475, Note_on_c, 1, 65, 0
13, 75630, Note_on_c, 1, 74, 0
13, 75685, Note_on_c, 1, 77, 89
13, 75807, Note_on_c, 1, 77, 0
13, 75852, Note_on_c, 1, 58, 72
13, 75852, Note_on_c, 1, 65, 80
13, 75960, Note_on_c, 1, 65, 0
13, 75962, Note_on_c, 1, 58, 0
13, 76332, Note_on_c, 1, 58, 87
13, 76332, Note_on_c, 1, 65, 89
13, 76427, Note_on_c, 1, 65, 0
13, 76432, Note_on_c, 1, 58, 0
13, 76812, Note_on_c, 1, 58, 53
13, 76812, Note_on_c, 1, 65, 91
13, 76912, Note_on_c, 1, 65, 0
13, 76920, Note_on_c, 1, 58, 0
13, 77292, Note_on_c, 1, 58, 82
13, 77292, Note_on_c, 1, 65, 100
13, 77385, Note_on_c, 1, 65, 0
13, 77417, Note_on_c, 1, 58, 0
13, 77772, Note_on_c, 1, 58, 78
13, 77772, Note_on_c, 1, 65, 98
13, 77870, Note_on_c, 1, 65, 0
13, 77895, Note_on_c, 1, 58, 0
13, 78252, Note_on_c, 1, 58, 80
13, 78252, Note_on_c, 1, 65, 100
13, 78345, Note_on_c, 1, 65, 0
13, 78347, Note_on_c, 1, 58, 0
13, 78732, Note_on_c, 1, 58, 98
13, 78732, Note_on_c, 1, 65, 100
13, 78820, Note_on_c, 1, 65, 0
13, 78837, Note_on_c, 1, 58, 0
13, 79047, Note_on_c, 1, 68, 100
13, 79047, Note_on_c, 1, 80, 119
13, 79162, Note_on_c, 1, 80, 0
13, 79212, Note_on_c, 1, 58, 80
13, 79212, Note_on_c, 1, 65, 102
13, 79285, Note_on_c, 1, 68, 0
13, 79300, Note_on_c, 1, 65, 0
13, 79312, Note_on_c, 1, 58, 0
13, 79527, Note_on_c, 1, 67, 78
13, 79527, Note_on_c, 1, 79, 98
13, 79640, Note_on_c, 1, 79, 0
13, 79697, Note_on_c, 1, 58, 100
13, 79697, Note_on_c, 1, 63, 85
13, 79697, Note_on_c, 1, 64, 93
13, 79697, Note_on_c, 1, 76, 102
13, 79700, Note_on_c, 1, 63, 0
13, 79700, Note_on_c, 1, 67, 0
13, 79700, Note_on_c, 1, 65, 102
13, 79790, Note_on_c, 1, 65, 0
13, 79797, Note_on_c, 1, 58, 0
13, 79942, Note_on_c, 1, 76, 0
13, 79957, Note_on_c, 1, 64, 0
13, 80005, Note_on_c, 1, 65, 82
13, 80007, Note_on_c, 1, 77, 100
13, 80095, Note_on_c, 1, 77, 0
13, 80177, Note_on_c, 1, 58, 87
13, 80177, Note_on_c, 1, 61, 102
13, 80177, Note_on_c, 1, 65, 100
13, 80177, Note_on_c, 1, 73, 100
13, 80180, Note_on_c, 1, 65, 0
13, 80180, Note_on_c, 1, 65, 0
13, 80292, Note_on_c, 1, 58, 0
13, 80407, Note_on_c, 1, 61, 0
13, 80417, Note_on_c, 1, 73, 0
13, 80487, Note_on_c, 1, 62, 98
13, 80487, Note_on_c, 1, 74, 102
13, 80532, Channel_aftertouch_c, 1, 26
13, 80590, Channel_aftertouch_c, 1, 0
13, 80625, Note_on_c, 1, 74, 0
13, 80652, Note_on_c, 1, 63, 102
13, 80652, Note_on_c, 1, 70, 105
13, 80655, Note_on_c, 1, 62, 0
13, 80762, Note_on_c, 1, 70, 0
13, 80772, Note_on_c, 1, 63, 0
13, 81132, Note_on_c, 1, 63, 100
13, 81132, Note_on_c, 1, 70, 107
13, 81220, Note_on_c, 1, 70, 0
13, 81222, Note_on_c, 1, 63, 0
13, 81612, Note_on_c, 1, 63, 102
13, 81612, Note_on_c, 1, 70, 105
13, 81710, Note_on_c, 1, 70, 0
13, 81722, Note_on_c, 1, 63, 0
13, 82092, Note_on_c, 1, 63, 102
13, 82092, Note_on_c, 1, 70, 107
13, 82165, Note_on_c, 1, 70, 0
13, 82187, Note_on_c, 1, 63, 0
13, 82572, Note_on_c, 1, 63, 105
13, 82572, Note_on_c, 1, 70, 107
13, 82645, Note_on_c, 1, 70, 0
13, 82677, Note_on_c, 1, 63, 0
13, 83052, Note_on_c, 1, 63, 95
13, 83052, Note_on_c, 1, 70, 105
13, 83132, Note_on_c, 1, 70, 0
13, 83137, Note_on_c, 1, 63, 0
13, 83530, Note_on_c, 1, 63, 93
13, 83532, Note_on_c, 1, 70, 107
13, 83630, Note_on_c, 1, 63, 0
13, 83635, Note_on_c, 1, 70, 0
13, 84012, Note_on_c, 1, 63, 91
13, 84012, Note_on_c, 1, 70, 107
13, 84120, Note_on_c, 1, 63, 0
13, 84135, Note_on_c, 1, 70, 0
13, 84495, Note_on_c, 1, 60, 100
13, 84495, Note_on_c, 1, 82, 87
13, 84497, Note_on_c, 1, 67, 89
13, 84497, Note_on_c, 1, 70, 102
13, 84572, Note_on_c, 1, 67, 0
13, 84600, Note_on_c, 1, 60, 0
13, 84602, Note_on_c, 1, 70, 0
13, 84802, Note_on_c, 1, 81, 85
13, 84812, Note_on_c, 1, 82, 0
13, 84972, Note_on_c, 1, 60, 98
13, 84972, Note_on_c, 1, 67, 87
13, 84972, Note_on_c, 1, 70, 98
13, 84972, Note_on_c, 1, 79, 85
13, 85020, Note_on_c, 1, 81, 0
13, 85042, Note_on_c, 1, 67, 0
13, 85050, Note_on_c, 1, 70, 0
13, 85067, Note_on_c, 1, 60, 0
13, 85272, Note_on_c, 1, 79, 0
13, 85285, Note_on_c, 1, 81, 89
13, 85452, Note_on_c, 1, 60, 100
13, 85452, Note_on_c, 1, 67, 91
13, 85452, Note_on_c, 1, 70, 93
13, 85452, Note_on_c, 1, 82, 76
13, 85502, Note_on_c, 1, 81, 0
13, 85527, Note_on_c, 1, 67, 0
13, 85540, Note_on_c, 1, 70, 0
13, 85542, Note_on_c, 1, 60, 0
13, 85897, Note_on_c, 1, 82, 0
13, 85940, Note_on_c, 1, 60, 100
13, 85940, Note_on_c, 1, 67, 87
13, 85940, Note_on_c, 1, 70, 95
13, 85940, Note_on_c, 1, 79, 74
13, 86015, Note_on_c, 1, 67, 0
13, 86022, Note_on_c, 1, 70, 0
13, 86032, Note_on_c, 1, 60, 0
13, 86412, Note_on_c, 1, 60, 85
13, 86412, Note_on_c, 1, 81, 78
13, 86415, Note_on_c, 1, 65, 100
13, 86415, Note_on_c, 1, 69, 100
13, 86422, Note_on_c, 1, 79, 0
13, 86495, Note_on_c, 1, 65, 0
13, 86500, Note_on_c, 1, 69, 0
13, 86527, Note_on_c, 1, 60, 0
13, 86892, Note_on_c, 1, 63, 102
13, 86892, Note_on_c, 1, 77, 110
13, 86982, Note_on_c, 1, 63, 0
13, 87340, Note_on_c, 1, 77, 0
13, 87372, Note_on_c, 1, 62, 98
13, 87372, Note_on_c, 1, 79, 95
13, 87455, Note_on_c, 1, 62, 0
13, 87850, Note_on_c, 1, 81, 102
13, 87852, Note_on_c, 1, 60, 102
13, 87857, Note_on_c, 1, 79, 0
13, 87932, Note_on_c, 1, 60, 0
13, 88127, Note_on_c, 1, 81, 0
13, 88127, Note_on_c, 1, 81, 0
13, 104165, Note_on_c, 1, 76, 91
13, 104482, Note_on_c, 1, 77, 76
13, 104492, Note_on_c, 1, 76, 0
13, 104645, Note_on_c, 1, 84, 78
13, 104675, Note_on_c, 1, 77, 0
13, 105125, Note_on_c, 1, 82, 72
13, 105147, Note_on_c, 1, 84, 0
13, 105565, Note_on_c, 1, 82, 0
13, 105605, Note_on_c, 1, 81, 87
13, 106085, Note_on_c, 1, 65, 91
13, 106565, Note_on_c, 1, 64, 85
13, 106575, Note_on_c, 1, 65, 0
13, 107037, Note_on_c, 1, 64, 0
13, 107045, Note_on_c, 1, 62, 91
13, 107500, Note_on_c, 1, 62, 0
13, 107515, Note_on_c, 1, 81, 0
13, 107525, Note_on_c, 1, 79, 47
13, 107937, Note_on_c, 1, 79, 0
13, 108005, Note_on_c, 1, 78, 89
13, 108322, Note_on_c, 1, 79, 89
13, 108352, Note_on_c, 1, 78, 0
13, 108485, Note_on_c, 1, 89, 78
13, 108500, Note_on_c, 1, 79, 0
13, 108947, Note_on_c, 1, 89, 0
13, 108965, Note_on_c, 1, 87, 89
13, 109422, Note_on_c, 1, 87, 0
13, 109445, Note_on_c, 1, 86, 89
13, 109925, Note_on_c, 1, 64, 102
13, 110222, Note_on_c, 1, 64, 0
13, 110242, Note_on_c, 1, 65, 91
13, 110397, Note_on_c, 1, 65, 0
13, 110405, Note_on_c, 1, 72, 102
13, 110855, Note_on_c, 1, 72, 0
13, 110885, Note_on_c, 1, 70, 91
13, 111240, Note_on_c, 1, 86, 0
13, 111292, Note_on_c, 1, 70, 0
13, 111367, Note_on_c, 1, 83, 51
13, 111380, Note_on_c, 1, 83, 0
13, 120002, Note_on_c, 1, 63, 68
13, 120002, Note_on_c, 1, 75, 82
13, 120955, Note_on_c, 1, 75, 0
13, 120960, Note_on_c, 1, 63, 0
13, 120962, Note_on_c, 1, 62, 68
13, 120965, Note_on_c, 1, 74, 82
13, 122810, Note_on_c, 1, 74, 0
13, 122812, Note_on_c, 1, 62, 0
13, 122887, Note_on_c, 1, 67, 59
13, 122887, Note_on_c, 1, 79, 51
13, 123842, Note_on_c, 1, 69, 87
13, 123845, Note_on_c, 1, 81, 87
13, 123895, Note_on_c, 1, 79, 0
13, 123937, Note_on_c, 1, 67, 0
13, 124710, Note_on_c, 1, 69, 0
13, 124742, Note_on_c, 1, 81, 0
13, 124805, Note_on_c, 1, 67, 62
13, 124805, Note_on_c, 1, 79, 64
13, 126692, Note_on_c, 1, 67, 0
13, 126727, Note_on_c, 1, 72, 70
13, 126727, Note_on_c, 1, 84, 87
13, 126755, Note_on_c, 1, 79, 0
13, 126797, Note_on_c, 1, 84, 0
13, 126837, Note_on_c, 1, 72, 0
13, 127042, Note_on_c, 1, 72, 66
13, 127042, Note_on_c, 1, 84, 68
13, 127092, Note_on_c, 1, 84, 0
13, 127102, Note_on_c, 1, 72, 0
13, 127205, Note_on_c, 1, 72, 66
13, 127205, Note_on_c, 1, 84, 68
13, 127255, Note_on_c, 1, 84, 0
13, 127292, Note_on_c, 1, 72, 0
13, 127525, Note_on_c, 1, 72, 87
13, 127525, Note_on_c, 1, 84, 89
13, 127617, Note_on_c, 1, 84, 0
13, 127635, Note_on_c, 1, 72, 0
13, 128647, Note_on_c, 1, 70, 80
13, 128650, Note_on_c, 1, 82, 100
13, 128740, Note_on_c, 1, 82, 0
13, 128745, Note_on_c, 1, 70, 0
13, 128962, Note_on_c, 1, 70, 62
13, 128962, Note_on_c, 1, 82, 78
13, 129002, Note_on_c, 1, 82, 0
13, 129045, Note_on_c, 1, 70, 0
13, 129125, Note_on_c, 1, 70, 68
13, 129127, Note_on_c, 1, 82, 87
13, 129202, Note_on_c, 1, 82, 0
13, 129222, Note_on_c, 1, 70, 0
13, 129445, Note_on_c, 1, 70, 85
13, 129445, Note_on_c, 1, 82, 98
13, 129532, Note_on_c, 1, 82, 0
13, 129575, Note_on_c, 1, 70, 0
13, 131045, Note_on_c, 1, 67, 62
13, 131045, Note_on_c, 1, 79, 68
13, 131812, Note_on_c, 1, 67, 0
13, 131822, Note_on_c, 1, 79, 0
13, 131842, Note_on_c, 1, 65, 59
13, 131842, Note_on_c, 1, 77, 78
13, 132005, Note_on_c, 1, 67, 62
13, 132005, Note_on_c, 1, 79, 66
13, 132030, Note_on_c, 1, 65, 0
13, 132057, Note_on_c, 1, 77, 0
13, 132445, Note_on_c, 1, 79, 0
13, 132455, Note_on_c, 1, 67, 0
13, 132490, Note_on_c, 1, 65, 48
13, 132490, Note_on_c, 1, 77, 68
13, 134320, Note_on_c, 1, 65, 0
13, 134342, Note_on_c, 1, 77, 0
13, 134415, Note_on_c, 1, 58, 82
13, 134415, Note_on_c, 1, 65, 89
13, 134512, Note_on_c, 1, 58, 0
13, 134515, Note_on_c, 1, 65, 0
13, 134892, Note_on_c, 1, 58, 74
13, 134892, Note_on_c, 1, 65, 89
13, 134990, Note_on_c, 1, 58, 0
13, 134995, Note_on_c, 1, 65, 0
13, 135372, Note_on_c, 1, 58, 80
13, 135372, Note_on_c, 1, 65, 85
13, 135480, Note_on_c, 1, 58, 0
13, 135500, Note_on_c, 1, 65, 0
13, 135852, Note_on_c, 1, 58, 82
13, 135852, Note_on_c, 1, 65, 87
13, 135960, Note_on_c, 1, 65, 0
13, 135967, Note_on_c, 1, 58, 0
13, 136332, Note_on_c, 1, 58, 72
13, 136332, Note_on_c, 1, 65, 85
13, 136435, Note_on_c, 1, 65, 0
13, 136437, Note_on_c, 1, 58, 0
13, 136645, Note_on_c, 1, 70, 100
13, 136765, Note_on_c, 1, 70, 0
13, 136815, Note_on_c, 1, 58, 85
13, 136815, Note_on_c, 1, 65, 95
13, 136815, Note_on_c, 1, 74, 87
13, 136900, Note_on_c, 1, 58, 0
13, 136917, Note_on_c, 1, 65, 0
13, 137070, Note_on_c, 1, 74, 0
13, 137125, Note_on_c, 1, 77, 89
13, 137247, Note_on_c, 1, 77, 0
13, 137292, Note_on_c, 1, 58, 72
13, 137292, Note_on_c, 1, 65, 80
13, 137400, Note_on_c, 1, 65, 0
13, 137402, Note_on_c, 1, 58, 0
13, 137772, Note_on_c, 1, 58, 87
13, 137772, Note_on_c, 1, 65, 89
13, 137867, Note_on_c, 1, 65, 0
13, 137872, Note_on_c, 1, 58, 0
13, 138252, Note_on_c, 1, 58, 53
13, 138252, Note_on_c, 1, 65, 91
13, 138352, Note_on_c, 1, 65, 0
13, 138360, Note_on_c, 1, 58, 0
13, 138732, Note_on_c, 1, 58, 82
13, 138732, Note_on_c, 1, 65, 100
13, 138825, Note_on_c, 1, 65, 0
13, 138857, Note_on_c, 1, 58, 0
13, 139212, Note_on_c, 1, 58, 78
13, 139212, Note_on_c, 1, 65, 98
13, 139310, Note_on_c, 1, 65, 0
13, 139335, Note_on_c, 1, 58, 0
13, 139692, Note_on_c, 1, 58, 80
13, 139692, Note_on_c, 1, 65, 100
13, 139785, Note_on_c, 1, 65, 0
13, 139787, Note_on_c, 1, 58, 0
13, 140172, Note_on_c, 1, 58, 98
13, 140172, Note_on_c, 1, 65, 100
13, 140260, Note_on_c, 1, 65, 0
13, 140277, Note_on_c, 1, 58, 0
13, 140485, Note_on_c, 1, 68, 100
13, 140485, Note_on_c, 1, 80, 119
13, 140602, Note_on_c, 1, 80, 0
13, 140652, Note_on_c, 1, 58, 80
13, 140652, Note_on_c, 1, 65, 102
13, 140725, Note_on_c, 1, 68, 0
13, 140740, Note_on_c, 1, 65, 0
13, 140752, Note_on_c, 1, 58, 0
13, 140965, Note_on_c, 1, 67, 78
13, 140967, Note_on_c, 1, 79, 98
13, 141080, Note_on_c, 1, 79, 0
13, 141135, Note_on_c, 1, 63, 85
13, 141137, Note_on_c, 1, 58, 100
13, 141137, Note_on_c, 1, 64, 93
13, 141137, Note_on_c, 1, 65, 102
13, 141137, Note_on_c, 1, 76, 102
13, 141140, Note_on_c, 1, 63, 0
13, 141140, Note_on_c, 1, 67, 0
13, 141230, Note_on_c, 1, 65, 0
13, 141237, Note_on_c, 1, 58, 0
13, 141382, Note_on_c, 1, 76, 0
13, 141400, Note_on_c, 1, 64, 0
13, 141445, Note_on_c, 1, 65, 82
13, 141447, Note_on_c, 1, 77, 100
13, 141535, Note_on_c, 1, 77, 0
13, 141615, Note_on_c, 1, 61, 102
13, 141617, Note_on_c, 1, 58, 87
13, 141617, Note_on_c, 1, 65, 100
13, 141617, Note_on_c, 1, 73, 100
13, 141620, Note_on_c, 1, 65, 0
13, 141620, Note_on_c, 1, 65, 0
13, 141735, Note_on_c, 1, 58, 0
13, 141847, Note_on_c, 1, 61, 0
13, 141857, Note_on_c, 1, 73, 0
13, 141925, Note_on_c, 1, 62, 98
13, 141927, Note_on_c, 1, 74, 102
13, 141972, Channel_aftertouch_c, 1, 26
13, 142030, Channel_aftertouch_c, 1, 0
13, 142065, Note_on_c, 1, 74, 0
13, 142092, Note_on_c, 1, 63, 102
13, 142095, Note_on_c, 1, 62, 0
13, 142095, Note_on_c, 1, 70, 105
13, 142202, Note_on_c, 1, 70, 0
13, 142212, Note_on_c, 1, 63, 0
13, 142572, Note_on_c, 1, 63, 100
13, 142572, Note_on_c, 1, 70, 107
13, 142657, Note_on_c, 1, 70, 0
13, 142662, Note_on_c, 1, 63, 0
13, 143052, Note_on_c, 1, 63, 102
13, 143052, Note_on_c, 1, 70, 105
13, 143150, Note_on_c, 1, 70, 0
13, 143162, Note_on_c, 1, 63, 0
13, 143532, Note_on_c, 1, 63, 102
13, 143532, Note_on_c, 1, 70, 107
13, 143605, Note_on_c, 1, 70, 0
13, 143627, Note_on_c, 1, 63, 0
13, 144012, Note_on_c, 1, 63, 105
13, 144012, Note_on_c, 1, 70, 107
13, 144085, Note_on_c, 1, 70, 0
13, 144117, Note_on_c, 1, 63, 0
13, 144492, Note_on_c, 1, 63, 95
13, 144492, Note_on_c, 1, 70, 105
13, 144572, Note_on_c, 1, 70, 0
13, 144577, Note_on_c, 1, 63, 0
13, 144972, Note_on_c, 1, 63, 93
13, 144972, Note_on_c, 1, 70, 107
13, 145070, Note_on_c, 1, 63, 0
13, 145075, Note_on_c, 1, 70, 0
13, 145452, Note_on_c, 1, 63, 91
13, 145452, Note_on_c, 1, 70, 107
13, 145560, Note_on_c, 1, 63, 0
13, 145577, Note_on_c, 1, 70, 0
13, 145935, Note_on_c, 1, 60, 100
13, 145935, Note_on_c, 1, 67, 89
13, 145935, Note_on_c, 1, 70, 102
13, 145935, Note_on_c, 1, 82, 87
13, 146012, Note_on_c, 1, 67, 0
13, 146040, Note_on_c, 1, 60, 0
13, 146042, Note_on_c, 1, 70, 0
13, 146242, Note_on_c, 1, 81, 85
13, 146252, Note_on_c, 1, 82, 0
13, 146410, Note_on_c, 1, 79, 85
13, 146412, Note_on_c, 1, 60, 98
13, 146412, Note_on_c, 1, 67, 87
13, 146412, Note_on_c, 1, 70, 98
13, 146460, Note_on_c, 1, 81, 0
13, 146482, Note_on_c, 1, 67, 0
13, 146490, Note_on_c, 1, 70, 0
13, 146507, Note_on_c, 1, 60, 0
13, 146712, Note_on_c, 1, 79, 0
13, 146722, Note_on_c, 1, 81, 89
13, 146890, Note_on_c, 1, 82, 76
13, 146892, Note_on_c, 1, 60, 100
13, 146892, Note_on_c, 1, 67, 91
13, 146892, Note_on_c, 1, 70, 93
13, 146942, Note_on_c, 1, 81, 0
13, 146967, Note_on_c, 1, 67, 0
13, 146980, Note_on_c, 1, 70, 0
13, 146982, Note_on_c, 1, 60, 0
13, 147337, Note_on_c, 1, 82, 0
13, 147372, Note_on_c, 1, 60, 100
13, 147372, Note_on_c, 1, 67, 87
13, 147372, Note_on_c, 1, 79, 74
13, 147375, Note_on_c, 1, 70, 95
13, 147455, Note_on_c, 1, 67, 0
13, 147462, Note_on_c, 1, 70, 0
13, 147472, Note_on_c, 1, 60, 0
13, 147855, Note_on_c, 1, 60, 85
13, 147855, Note_on_c, 1, 65, 100
13, 147855, Note_on_c, 1, 69, 100
13, 147855, Note_on_c, 1, 81, 78
13, 147862, Note_on_c, 1, 79, 0
13, 147935, Note_on_c, 1, 65, 0
13, 147940, Note_on_c, 1, 69, 0
13, 147967, Note_on_c, 1, 60, 0
13, 148332, Note_on_c, 1, 63, 102
13, 148332, Note_on_c, 1, 77, 110
13, 148422, Note_on_c, 1, 63, 0
13, 148780, Note_on_c, 1, 77, 0
13, 148812, Note_on_c, 1, 62, 98
13, 148812, Note_on_c, 1, 79, 95
13, 148895, Note_on_c, 1, 62, 0
13, 149290, Note_on_c, 1, 60, 102
13, 149290, Note_on_c, 1, 81, 102
13, 149297, Note_on_c, 1, 79, 0
13, 149372, Note_on_c, 1, 60, 0
13, 149567, Note_on_c, 1, 81, 0
13, 149567, Note_on_c, 1, 81, 0
13, 149567, End_track
14, 0, Start_track
14, 0, MIDI_port, 0
14, 0, Title_t, "Jazz    "
14, 100, Control_c, 9, 121, 0
14, 200, Control_c, 9, 7, 110
14, 200, Control_c, 9, 10, 64
14, 207, Program_c, 9, 32
14, 217, Control_c, 9, 100, 0
14, 220, Control_c, 9, 101, 0
14, 230, Control_c, 9, 6, 0
14, 240, Control_c, 9, 11, 127
14, 240, Control_c, 9, 91, 40
14, 240, Control_c, 9, 93, 0
14, 1922, Note_on_c, 9, 42, 60
14, 2072, Note_on_c, 9, 42, 0
14, 2402, Note_on_c, 9, 42, 55
14, 2592, Note_on_c, 9, 42, 0
14, 2882, Note_on_c, 9, 42, 55
14, 3022, Note_on_c, 9, 42, 0
14, 3362, Note_on_c, 9, 42, 55
14, 3475, Note_on_c, 9, 42, 0
14, 3852, Note_on_c, 9, 35, 87
14, 3852, Note_on_c, 9, 51, 102
14, 3945, Note_on_c, 9, 51, 0
14, 4165, Note_on_c, 9, 51, 95
14, 4255, Note_on_c, 9, 51, 0
14, 4325, Note_on_c, 9, 40, 100
14, 4327, Note_on_c, 9, 51, 95
14, 4360, Note_on_c, 9, 35, 0
14, 4452, Note_on_c, 9, 51, 0
14, 4467, Note_on_c, 9, 40, 0
14, 4647, Note_on_c, 9, 35, 85
14, 4647, Note_on_c, 9, 51, 98
14, 4715, Note_on_c, 9, 35, 0
14, 4725, Note_on_c, 9, 51, 0
14, 4805, Note_on_c, 9, 35, 78
14, 4807, Note_on_c, 9, 51, 105
14, 4920, Note_on_c, 9, 51, 0
14, 5122, Note_on_c, 9, 51, 95
14, 5202, Note_on_c, 9, 51, 0
14, 5285, Note_on_c, 9, 40, 98
14, 5287, Note_on_c, 9, 51, 105
14, 5402, Note_on_c, 9, 51, 0
14, 5512, Note_on_c, 9, 35, 0
14, 5602, Note_on_c, 9, 51, 102
14, 5670, Note_on_c, 9, 51, 0
14, 5770, Note_on_c, 9, 35, 87
14, 5770, Note_on_c, 9, 51, 102
14, 5835, Note_on_c, 9, 40, 0
14, 5857, Note_on_c, 9, 51, 0
14, 6087, Note_on_c, 9, 51, 95
14, 6142, Note_on_c, 9, 51, 0
14, 6250, Note_on_c, 9, 40, 105
14, 6250, Note_on_c, 9, 51, 100
14, 6307, Note_on_c, 9, 35, 0
14, 6327, Note_on_c, 9, 51, 0
14, 6570, Note_on_c, 9, 35, 82
14, 6570, Note_on_c, 9, 51, 102
14, 6612, Note_on_c, 9, 51, 0
14, 6655, Note_on_c, 9, 35, 0
14, 6725, Note_on_c, 9, 35, 87
14, 6725, Note_on_c, 9, 51, 105
14, 6797, Note_on_c, 9, 51, 0
14, 6905, Note_on_c, 9, 40, 0
14, 7050, Note_on_c, 9, 51, 102
14, 7115, Note_on_c, 9, 51, 0
14, 7202, Note_on_c, 9, 40, 95
14, 7202, Note_on_c, 9, 51, 107
14, 7302, Note_on_c, 9, 51, 0
14, 7315, Note_on_c, 9, 35, 0
14, 7427, Note_on_c, 9, 40, 0
14, 7522, Note_on_c, 9, 40, 100
14, 7525, Note_on_c, 9, 51, 102
14, 7590, Note_on_c, 9, 51, 0
14, 7690, Note_on_c, 9, 35, 82
14, 7690, Note_on_c, 9, 51, 105
14, 7762, Note_on_c, 9, 40, 0
14, 7775, Note_on_c, 9, 51, 0
14, 8005, Note_on_c, 9, 51, 107
14, 8080, Note_on_c, 9, 51, 0
14, 8165, Note_on_c, 9, 40, 105
14, 8165, Note_on_c, 9, 51, 105
14, 8222, Note_on_c, 9, 35, 0
14, 8295, Note_on_c, 9, 51, 0
14, 8487, Note_on_c, 9, 35, 80
14, 8487, Note_on_c, 9, 51, 102
14, 8557, Note_on_c, 9, 51, 0
14, 8567, Note_on_c, 9, 35, 0
14, 8647, Note_on_c, 9, 35, 82
14, 8647, Note_on_c, 9, 51, 102
14, 8780, Note_on_c, 9, 51, 0
14, 8817, Note_on_c, 9, 40, 0
14, 8962, Note_on_c, 9, 51, 105
14, 9030, Note_on_c, 9, 51, 0
14, 9125, Note_on_c, 9, 40, 110
14, 9127, Note_on_c, 9, 51, 89
14, 9170, Note_on_c, 9, 35, 0
14, 9237, Note_on_c, 9, 51, 0
14, 9442, Note_on_c, 9, 51, 91
14, 9495, Note_on_c, 9, 51, 0
14, 9610, Note_on_c, 9, 35, 82
14, 9610, Note_on_c, 9, 51, 95
14, 9705, Note_on_c, 9, 51, 0
14, 9860, Note_on_c, 9, 40, 0
14, 9927, Note_on_c, 9, 51, 95
14, 9977, Note_on_c, 9, 51, 0
14, 10087, Note_on_c, 9, 40, 110
14, 10090, Note_on_c, 9, 51, 100
14, 10130, Note_on_c, 9, 35, 0
14, 10187, Note_on_c, 9, 51, 0
14, 10410, Note_on_c, 9, 35, 82
14, 10410, Note_on_c, 9, 51, 93
14, 10467, Note_on_c, 9, 51, 0
14, 10470, Note_on_c, 9, 35, 0
14, 10562, Note_on_c, 9, 35, 87
14, 10565, Note_on_c, 9, 51, 95
14, 10652, Note_on_c, 9, 51, 0
14, 10732, Note_on_c, 9, 40, 0
14, 10735, Note_on_c, 9, 35, 0
14, 10890, Note_on_c, 9, 35, 76
14, 10890, Note_on_c, 9, 51, 93
14, 10940, Note_on_c, 9, 51, 0
14, 11042, Note_on_c, 9, 40, 98
14, 11042, Note_on_c, 9, 51, 105
14, 11107, Note_on_c, 9, 35, 0
14, 11135, Note_on_c, 9, 51, 0
14, 11250, Note_on_c, 9, 40, 0
14, 11362, Note_on_c, 9, 40, 89
14, 11362, Note_on_c, 9, 51, 102
14, 11447, Note_on_c, 9, 51, 0
14, 11500, Note_on_c, 9, 40, 0
14, 11527, Note_on_c, 9, 35, 98
14, 11527, Note_on_c, 9, 51, 102
14, 11570, Note_on_c, 9, 51, 0
14, 12002, Note_on_c, 9, 40, 107
14, 12002, Note_on_c, 9, 51, 100
14, 12065, Note_on_c, 9, 51, 0
14, 12077, Note_on_c, 9, 35, 0
14, 12160, Note_on_c, 9, 40, 0
14, 12325, Note_on_c, 9, 35, 80
14, 12375, Note_on_c, 9, 35, 0
14, 12487, Note_on_c, 9, 35, 85
14, 12487, Note_on_c, 9, 51, 100
14, 12530, Note_on_c, 9, 51, 0
14, 12962, Note_on_c, 9, 40, 102
14, 12962, Note_on_c, 9, 51, 102
14, 13025, Note_on_c, 9, 51, 0
14, 13162, Note_on_c, 9, 35, 0
14, 13280, Note_on_c, 9, 40, 0
14, 13447, Note_on_c, 9, 35, 91
14, 13447, Note_on_c, 9, 51, 102
14, 13502, Note_on_c, 9, 51, 0
14, 13922, Note_on_c, 9, 40, 113
14, 13922, Note_on_c, 9, 51, 98
14, 13970, Note_on_c, 9, 51, 0
14, 14012, Note_on_c, 9, 35, 0
14, 14087, Note_on_c, 9, 40, 0
14, 14245, Note_on_c, 9, 35, 66
14, 14315, Note_on_c, 9, 35, 0
14, 14405, Note_on_c, 9, 35, 78
14, 14405, Note_on_c, 9, 51, 100
14, 14452, Note_on_c, 9, 51, 0
14, 14882, Note_on_c, 9, 40, 107
14, 14882, Note_on_c, 9, 51, 100
14, 14937, Note_on_c, 9, 51, 0
14, 15062, Note_on_c, 9, 35, 0
14, 15202, Note_on_c, 9, 51, 102
14, 15225, Note_on_c, 9, 40, 0
14, 15252, Note_on_c, 9, 51, 0
14, 15367, Note_on_c, 9, 35, 82
14, 15367, Note_on_c, 9, 51, 98
14, 15415, Note_on_c, 9, 51, 0
14, 15842, Note_on_c, 9, 40, 107
14, 15842, Note_on_c, 9, 51, 102
14, 15932, Note_on_c, 9, 35, 0
14, 15935, Note_on_c, 9, 51, 0
14, 16162, Note_on_c, 9, 35, 82
14, 16190, Note_on_c, 9, 40, 0
14, 16240, Note_on_c, 9, 35, 0
14, 16322, Note_on_c, 9, 35, 74
14, 16322, Note_on_c, 9, 51, 102
14, 16392, Note_on_c, 9, 51, 0
14, 16802, Note_on_c, 9, 40, 105
14, 16802, Note_on_c, 9, 51, 85
14, 16867, Note_on_c, 9, 51, 0
14, 16902, Note_on_c, 9, 35, 0
14, 17040, Note_on_c, 9, 40, 0
14, 17280, Note_on_c, 9, 0, 100
14, 17280, Text_t, "Minvec Uk"
14, 17287, Note_on_c, 9, 35, 85
14, 17287, Note_on_c, 9, 51, 102
14, 17339, Note_on_c, 9, 0, 0
14, 17360, Note_on_c, 9, 51, 0
14, 17760, Note_on_c, 9, 0, 100
14, 17762, Note_on_c, 9, 40, 102
14, 17765, Note_on_c, 9, 51, 64
14, 17819, Note_on_c, 9, 0, 0
14, 17825, Note_on_c, 9, 35, 0
14, 17827, Note_on_c, 9, 51, 0
14, 18085, Note_on_c, 9, 35, 80
14, 18142, Note_on_c, 9, 35, 0
14, 18155, Note_on_c, 9, 40, 0
14, 18240, Note_on_c, 9, 0, 100
14, 18245, Note_on_c, 9, 35, 78
14, 18245, Note_on_c, 9, 51, 102
14, 18299, Note_on_c, 9, 0, 0
14, 18310, Note_on_c, 9, 51, 0
14, 18720, Note_on_c, 9, 0, 100
14, 18725, Note_on_c, 9, 40, 110
14, 18725, Note_on_c, 9, 51, 95
14, 18779, Note_on_c, 9, 0, 0
14, 18785, Note_on_c, 9, 51, 0
14, 18930, Note_on_c, 9, 35, 0
14, 18972, Note_on_c, 9, 40, 0
14, 19207, Note_on_c, 9, 35, 82
14, 19207, Note_on_c, 9, 51, 95
14, 19260, Note_on_c, 9, 51, 0
14, 19682, Note_on_c, 9, 40, 110
14, 19682, Note_on_c, 9, 51, 100
14, 19730, Note_on_c, 9, 51, 0
14, 19860, Note_on_c, 9, 35, 0
14, 20002, Note_on_c, 9, 35, 74
14, 20067, Note_on_c, 9, 35, 0
14, 20085, Note_on_c, 9, 40, 0
14, 20167, Note_on_c, 9, 35, 72
14, 20167, Note_on_c, 9, 51, 89
14, 20207, Note_on_c, 9, 51, 0
14, 20642, Note_on_c, 9, 40, 110
14, 20642, Note_on_c, 9, 51, 95
14, 20680, Note_on_c, 9, 51, 0
14, 20742, Note_on_c, 9, 35, 0
14, 20887, Note_on_c, 9, 40, 0
14, 21127, Note_on_c, 9, 35, 82
14, 21127, Note_on_c, 9, 51, 100
14, 21167, Note_on_c, 9, 51, 0
14, 21602, Note_on_c, 9, 40, 110
14, 21602, Note_on_c, 9, 51, 93
14, 21650, Note_on_c, 9, 51, 0
14, 21705, Note_on_c, 9, 35, 0
14, 21770, Note_on_c, 9, 40, 0
14, 21925, Note_on_c, 9, 35, 82
14, 21995, Note_on_c, 9, 35, 0
14, 22085, Note_on_c, 9, 35, 80
14, 22085, Note_on_c, 9, 51, 98
14, 22125, Note_on_c, 9, 51, 0
14, 22562, Note_on_c, 9, 40, 110
14, 22565, Note_on_c, 9, 51, 89
14, 22592, Note_on_c, 9, 51, 0
14, 22677, Note_on_c, 9, 35, 0
14, 22747, Note_on_c, 9, 40, 0
14, 23050, Note_on_c, 9, 35, 78
14, 23050, Note_on_c, 9, 51, 87
14, 23085, Note_on_c, 9, 51, 0
14, 23522, Note_on_c, 9, 40, 105
14, 23522, Note_on_c, 9, 51, 87
14, 23572, Note_on_c, 9, 51, 0
14, 23635, Note_on_c, 9, 35, 0
14, 23672, Note_on_c, 9, 40, 0
14, 23842, Note_on_c, 9, 35, 80
14, 23902, Note_on_c, 9, 35, 0
14, 24005, Note_on_c, 9, 35, 80
14, 24005, Note_on_c, 9, 51, 98
14, 24045, Note_on_c, 9, 51, 0
14, 24482, Note_on_c, 9, 40, 110
14, 24482, Note_on_c, 9, 51, 91
14, 24530, Note_on_c, 9, 51, 0
14, 24617, Note_on_c, 9, 35, 0
14, 24642, Note_on_c, 9, 40, 0
14, 24967, Note_on_c, 9, 35, 85
14, 24967, Note_on_c, 9, 51, 95
14, 25025, Note_on_c, 9, 51, 0
14, 25442, Note_on_c, 9, 40, 110
14, 25442, Note_on_c, 9, 51, 87
14, 25477, Note_on_c, 9, 35, 0
14, 25487, Note_on_c, 9, 51, 0
14, 25637, Note_on_c, 9, 40, 0
14, 25762, Note_on_c, 9, 35, 74
14, 25832, Note_on_c, 9, 35, 0
14, 25922, Note_on_c, 9, 35, 85
14, 25922, Note_on_c, 9, 51, 87
14, 25985, Note_on_c, 9, 51, 0
14, 26402, Note_on_c, 9, 40, 110
14, 26402, Note_on_c, 9, 51, 64
14, 26455, Note_on_c, 9, 51, 0
14, 26475, Note_on_c, 9, 40, 0
14, 26542, Note_on_c, 9, 35, 0
14, 26887, Note_on_c, 9, 35, 95
14, 26887, Note_on_c, 9, 51, 80
14, 26955, Note_on_c, 9, 51, 0
14, 27362, Note_on_c, 9, 40, 110
14, 27362, Note_on_c, 9, 51, 82
14, 27407, Note_on_c, 9, 51, 0
14, 27430, Note_on_c, 9, 40, 0
14, 27505, Note_on_c, 9, 35, 0
14, 27682, Note_on_c, 9, 35, 70
14, 27752, Note_on_c, 9, 35, 0
14, 27847, Note_on_c, 9, 35, 78
14, 27847, Note_on_c, 9, 51, 87
14, 27915, Note_on_c, 9, 51, 0
14, 28322, Note_on_c, 9, 40, 107
14, 28322, Note_on_c, 9, 51, 85
14, 28375, Note_on_c, 9, 51, 0
14, 28417, Note_on_c, 9, 40, 0
14, 28492, Note_on_c, 9, 35, 0
14, 28807, Note_on_c, 9, 35, 89
14, 28807, Note_on_c, 9, 51, 85
14, 28870, Note_on_c, 9, 51, 0
14, 29282, Note_on_c, 9, 40, 107
14, 29282, Note_on_c, 9, 51, 102
14, 29357, Note_on_c, 9, 51, 0
14, 29372, Note_on_c, 9, 40, 0
14, 29382, Note_on_c, 9, 35, 0
14, 29605, Note_on_c, 9, 35, 82
14, 29672, Note_on_c, 9, 35, 0
14, 29762, Note_on_c, 9, 35, 85
14, 29765, Note_on_c, 9, 51, 100
14, 29855, Note_on_c, 9, 51, 0
14, 30242, Note_on_c, 9, 40, 107
14, 30242, Note_on_c, 9, 51, 87
14, 30332, Note_on_c, 9, 51, 0
14, 30342, Note_on_c, 9, 40, 0
14, 30457, Note_on_c, 9, 35, 0
14, 30730, Note_on_c, 9, 35, 78
14, 30730, Note_on_c, 9, 51, 87
14, 30817, Note_on_c, 9, 51, 0
14, 31202, Note_on_c, 9, 40, 107
14, 31202, Note_on_c, 9, 51, 102
14, 31265, Note_on_c, 9, 35, 0
14, 31277, Note_on_c, 9, 51, 0
14, 31300, Note_on_c, 9, 40, 0
14, 31522, Note_on_c, 9, 35, 70
14, 31595, Note_on_c, 9, 35, 0
14, 31682, Note_on_c, 9, 35, 82
14, 31682, Note_on_c, 9, 51, 85
14, 31785, Note_on_c, 9, 51, 0
14, 32162, Note_on_c, 9, 40, 107
14, 32162, Note_on_c, 9, 51, 74
14, 32230, Note_on_c, 9, 51, 0
14, 32277, Note_on_c, 9, 40, 0
14, 32292, Note_on_c, 9, 35, 0
14, 32650, Note_on_c, 9, 35, 85
14, 32650, Note_on_c, 9, 51, 80
14, 32742, Note_on_c, 9, 51, 0
14, 33122, Note_on_c, 9, 40, 107
14, 33122, Note_on_c, 9, 51, 78
14, 33190, Note_on_c, 9, 35, 0
14, 33207, Note_on_c, 9, 51, 0
14, 33227, Note_on_c, 9, 40, 0
14, 33442, Note_on_c, 9, 35, 78
14, 33510, Note_on_c, 9, 35, 0
14, 33602, Note_on_c, 9, 35, 89
14, 33602, Note_on_c, 9, 51, 95
14, 33690, Note_on_c, 9, 51, 0
14, 34082, Note_on_c, 9, 40, 107
14, 34082, Note_on_c, 9, 51, 105
14, 34152, Note_on_c, 9, 51, 0
14, 34185, Note_on_c, 9, 40, 0
14, 34267, Note_on_c, 9, 35, 0
14, 34567, Note_on_c, 9, 35, 110
14, 34567, Note_on_c, 9, 49, 122
14, 34612, Note_on_c, 9, 49, 0
14, 34935, Note_on_c, 9, 35, 0
14, 38242, Note_on_c, 9, 42, 107
14, 38305, Note_on_c, 9, 42, 0
14, 39367, Note_on_c, 9, 35, 82
14, 39485, Note_on_c, 9, 35, 0
14, 39847, Note_on_c, 9, 35, 80
14, 39952, Note_on_c, 9, 35, 0
14, 40327, Note_on_c, 9, 35, 80
14, 40575, Note_on_c, 9, 35, 0
14, 40807, Note_on_c, 9, 35, 85
14, 40972, Note_on_c, 9, 35, 0
14, 41287, Note_on_c, 9, 35, 89
14, 41587, Note_on_c, 9, 35, 0
14, 41602, Note_on_c, 9, 40, 85
14, 41702, Note_on_c, 9, 40, 0
14, 41767, Note_on_c, 9, 35, 100
14, 41767, Note_on_c, 9, 40, 82
14, 41900, Note_on_c, 9, 35, 0
14, 41930, Note_on_c, 9, 40, 0
14, 42082, Note_on_c, 9, 40, 85
14, 42160, Note_on_c, 9, 40, 0
14, 42252, Note_on_c, 9, 35, 105
14, 42252, Note_on_c, 9, 51, 107
14, 42297, Note_on_c, 9, 51, 0
14, 42722, Note_on_c, 9, 40, 110
14, 42722, Note_on_c, 9, 51, 107
14, 42772, Note_on_c, 9, 35, 0
14, 42810, Note_on_c, 9, 40, 0
14, 42815, Note_on_c, 9, 51, 0
14, 43045, Note_on_c, 9, 35, 100
14, 43125, Note_on_c, 9, 35, 0
14, 43202, Note_on_c, 9, 35, 105
14, 43205, Note_on_c, 9, 51, 113
14, 43315, Note_on_c, 9, 51, 0
14, 43685, Note_on_c, 9, 40, 122
14, 43685, Note_on_c, 9, 51, 107
14, 43717, Note_on_c, 9, 35, 0
14, 43767, Note_on_c, 9, 40, 0
14, 43795, Note_on_c, 9, 51, 0
14, 44167, Note_on_c, 9, 35, 105
14, 44170, Note_on_c, 9, 51, 107
14, 44267, Note_on_c, 9, 51, 0
14, 44642, Note_on_c, 9, 40, 119
14, 44642, Note_on_c, 9, 51, 110
14, 44657, Note_on_c, 9, 35, 0
14, 44717, Note_on_c, 9, 40, 0
14, 44735, Note_on_c, 9, 51, 0
14, 44965, Note_on_c, 9, 35, 102
14, 45047, Note_on_c, 9, 35, 0
14, 45125, Note_on_c, 9, 35, 89
14, 45125, Note_on_c, 9, 51, 105
14, 45217, Note_on_c, 9, 51, 0
14, 45605, Note_on_c, 9, 40, 110
14, 45605, Note_on_c, 9, 51, 110
14, 45645, Note_on_c, 9, 35, 0
14, 45670, Note_on_c, 9, 40, 0
14, 45685, Note_on_c, 9, 51, 0
14, 45925, Note_on_c, 9, 51, 105
14, 46000, Note_on_c, 9, 51, 0
14, 46087, Note_on_c, 9, 35, 102
14, 46087, Note_on_c, 9, 51, 102
14, 46177, Note_on_c, 9, 51, 0
14, 46562, Note_on_c, 9, 40, 110
14, 46562, Note_on_c, 9, 51, 102
14, 46607, Note_on_c, 9, 35, 0
14, 46637, Note_on_c, 9, 40, 0
14, 46677, Note_on_c, 9, 51, 0
14, 46885, Note_on_c, 9, 35, 91
14, 46965, Note_on_c, 9, 35, 0
14, 47042, Note_on_c, 9, 35, 87
14, 47045, Note_on_c, 9, 51, 102
14, 47132, Note_on_c, 9, 51, 0
14, 47525, Note_on_c, 9, 40, 107
14, 47525, Note_on_c, 9, 51, 100
14, 47565, Note_on_c, 9, 35, 0
14, 47605, Note_on_c, 9, 40, 0
14, 47625, Note_on_c, 9, 51, 0
14, 47842, Note_on_c, 9, 51, 66
14, 47882, Note_on_c, 9, 51, 0
14, 48007, Note_on_c, 9, 35, 95
14, 48007, Note_on_c, 9, 51, 98
14, 48095, Note_on_c, 9, 51, 0
14, 48482, Note_on_c, 9, 40, 107
14, 48482, Note_on_c, 9, 51, 91
14, 48550, Note_on_c, 9, 40, 0
14, 48555, Note_on_c, 9, 35, 0
14, 48572, Note_on_c, 9, 51, 0
14, 48805, Note_on_c, 9, 35, 85
14, 48870, Note_on_c, 9, 35, 0
14, 48962, Note_on_c, 9, 35, 91
14, 48965, Note_on_c, 9, 51, 100
14, 49090, Note_on_c, 9, 51, 0
14, 49435, Note_on_c, 9, 35, 0
14, 49445, Note_on_c, 9, 40, 110
14, 49445, Note_on_c, 9, 51, 100
14, 49502, Note_on_c, 9, 40, 0
14, 49547, Note_on_c, 9, 51, 0
14, 49762, Note_on_c, 9, 51, 89
14, 49822, Note_on_c, 9, 51, 0
14, 49930, Note_on_c, 9, 35, 100
14, 49930, Note_on_c, 9, 51, 105
14, 50012, Note_on_c, 9, 51, 0
14, 50410, Note_on_c, 9, 40, 107
14, 50410, Note_on_c, 9, 51, 102
14, 50420, Note_on_c, 9, 35, 0
14, 50435, Note_on_c, 9, 40, 0
14, 50505, Note_on_c, 9, 51, 0
14, 50722, Note_on_c, 9, 35, 91
14, 50782, Note_on_c, 9, 35, 0
14, 50887, Note_on_c, 9, 35, 95
14, 50890, Note_on_c, 9, 51, 102
14, 50952, Note_on_c, 9, 51, 0
14, 51367, Note_on_c, 9, 40, 105
14, 51370, Note_on_c, 9, 51, 100
14, 51395, Note_on_c, 9, 40, 0
14, 51395, Note_on_c, 9, 35, 0
14, 51472, Note_on_c, 9, 51, 0
14, 51682, Note_on_c, 9, 51, 100
14, 51752, Note_on_c, 9, 51, 0
14, 51850, Note_on_c, 9, 35, 98
14, 51850, Note_on_c, 9, 51, 105
14, 51937, Note_on_c, 9, 51, 0
14, 52327, Note_on_c, 9, 40, 107
14, 52330, Note_on_c, 9, 51, 116
14, 52342, Note_on_c, 9, 35, 0
14, 52375, Note_on_c, 9, 40, 0
14, 52425, Note_on_c, 9, 51, 0
14, 52642, Note_on_c, 9, 35, 100
14, 52727, Note_on_c, 9, 35, 0
14, 52810, Note_on_c, 9, 35, 98
14, 52810, Note_on_c, 9, 51, 105
14, 52890, Note_on_c, 9, 51, 0
14, 53297, Note_on_c, 9, 40, 105
14, 53300, Note_on_c, 9, 51, 110
14, 53325, Note_on_c, 9, 35, 0
14, 53332, Note_on_c, 9, 40, 0
14, 53372, Note_on_c, 9, 51, 0
14, 53605, Note_on_c, 9, 51, 95
14, 53650, Note_on_c, 9, 51, 0
14, 53770, Note_on_c, 9, 35, 102
14, 53770, Note_on_c, 9, 51, 98
14, 53852, Note_on_c, 9, 51, 0
14, 54250, Note_on_c, 9, 35, 0
14, 54250, Note_on_c, 9, 40, 110
14, 54250, Note_on_c, 9, 51, 107
14, 54297, Note_on_c, 9, 40, 0
14, 54340, Note_on_c, 9, 51, 0
14, 54562, Note_on_c, 9, 35, 98
14, 54647, Note_on_c, 9, 35, 0
14, 54735, Note_on_c, 9, 35, 82
14, 54737, Note_on_c, 9, 51, 102
14, 54827, Note_on_c, 9, 51, 0
14, 55207, Note_on_c, 9, 40, 107
14, 55207, Note_on_c, 9, 51, 98
14, 55250, Note_on_c, 9, 35, 0
14, 55255, Note_on_c, 9, 40, 0
14, 55305, Note_on_c, 9, 51, 0
14, 55522, Note_on_c, 9, 51, 85
14, 55580, Note_on_c, 9, 51, 0
14, 55690, Note_on_c, 9, 35, 91
14, 55690, Note_on_c, 9, 51, 100
14, 55775, Note_on_c, 9, 51, 0
14, 56170, Note_on_c, 9, 40, 110
14, 56170, Note_on_c, 9, 51, 107
14, 56190, Note_on_c, 9, 35, 0
14, 56202, Note_on_c, 9, 40, 0
14, 56250, Note_on_c, 9, 51, 0
14, 56482, Note_on_c, 9, 35, 85
14, 56557, Note_on_c, 9, 35, 0
14, 56650, Note_on_c, 9, 35, 95
14, 56650, Note_on_c, 9, 51, 110
14, 56727, Note_on_c, 9, 51, 0
14, 57130, Note_on_c, 9, 40, 113
14, 57132, Note_on_c, 9, 51, 119
14, 57185, Note_on_c, 9, 35, 0
14, 57197, Note_on_c, 9, 51, 0
14, 57197, Note_on_c, 9, 40, 0
14, 57442, Note_on_c, 9, 40, 107
14, 57490, Note_on_c, 9, 40, 0
14, 57610, Note_on_c, 9, 35, 113
14, 57612, Note_on_c, 9, 51, 119
14, 57670, Note_on_c, 9, 51, 0
14, 58082, Note_on_c, 9, 40, 107
14, 58082, Note_on_c, 9, 51, 116
14, 58117, Note_on_c, 9, 35, 0
14, 58137, Note_on_c, 9, 40, 0
14, 58162, Note_on_c, 9, 51, 0
14, 58405, Note_on_c, 9, 35, 89
14, 58470, Note_on_c, 9, 35, 0
14, 58565, Note_on_c, 9, 35, 89
14, 58565, Note_on_c, 9, 51, 119
14, 58625, Note_on_c, 9, 51, 0
14, 59042, Note_on_c, 9, 40, 110
14, 59042, Note_on_c, 9, 51, 119
14, 59087, Note_on_c, 9, 40, 0
14, 59112, Note_on_c, 9, 51, 0
14, 59145, Note_on_c, 9, 35, 0
14, 59527, Note_on_c, 9, 35, 100
14, 59527, Note_on_c, 9, 51, 119
14, 59597, Note_on_c, 9, 51, 0
14, 60002, Note_on_c, 9, 40, 113
14, 60002, Note_on_c, 9, 51, 119
14, 60045, Note_on_c, 9, 35, 0
14, 60057, Note_on_c, 9, 40, 0
14, 60080, Note_on_c, 9, 51, 0
14, 60325, Note_on_c, 9, 35, 91
14, 60400, Note_on_c, 9, 35, 0
14, 60485, Note_on_c, 9, 35, 89
14, 60485, Note_on_c, 9, 51, 119
14, 60547, Note_on_c, 9, 51, 0
14, 60965, Note_on_c, 9, 40, 122
14, 60965, Note_on_c, 9, 51, 122
14, 61020, Note_on_c, 9, 40, 0
14, 61037, Note_on_c, 9, 51, 0
14, 61075, Note_on_c, 9, 35, 0
14, 61450, Note_on_c, 9, 35, 102
14, 61450, Note_on_c, 9, 51, 116
14, 61475, Note_on_c, 9, 51, 0
14, 61922, Note_on_c, 9, 40, 119
14, 61922, Note_on_c, 9, 51, 102
14, 61927, Note_on_c, 9, 35, 0
14, 61945, Note_on_c, 9, 51, 0
14, 61982, Note_on_c, 9, 40, 0
14, 62242, Note_on_c, 9, 35, 98
14, 62307, Note_on_c, 9, 35, 0
14, 62407, Note_on_c, 9, 35, 102
14, 62407, Note_on_c, 9, 51, 127
14, 62445, Note_on_c, 9, 51, 0
14, 62882, Note_on_c, 9, 51, 119
14, 62885, Note_on_c, 9, 40, 113
14, 62897, Note_on_c, 9, 35, 0
14, 62912, Note_on_c, 9, 51, 0
14, 62947, Note_on_c, 9, 40, 0
14, 63367, Note_on_c, 9, 35, 95
14, 63367, Note_on_c, 9, 51, 113
14, 63402, Note_on_c, 9, 51, 0
14, 63842, Note_on_c, 9, 51, 119
14, 63845, Note_on_c, 9, 40, 116
14, 63877, Note_on_c, 9, 35, 0
14, 63892, Note_on_c, 9, 40, 0
14, 63892, Note_on_c, 9, 51, 0
14, 64165, Note_on_c, 9, 35, 95
14, 64232, Note_on_c, 9, 35, 0
14, 64322, Note_on_c, 9, 35, 89
14, 64325, Note_on_c, 9, 51, 122
14, 64365, Note_on_c, 9, 51, 0
14, 64800, Note_on_c, 9, 35, 0
14, 64802, Note_on_c, 9, 51, 119
14, 64805, Note_on_c, 9, 40, 127
14, 64852, Note_on_c, 9, 51, 0
14, 64877, Note_on_c, 9, 40, 0
14, 65290, Note_on_c, 9, 35, 98
14, 65290, Note_on_c, 9, 51, 122
14, 65317, Note_on_c, 9, 51, 0
14, 65767, Note_on_c, 9, 51, 122
14, 65770, Note_on_c, 9, 40, 113
14, 65780, Note_on_c, 9, 35, 0
14, 65802, Note_on_c, 9, 51, 0
14, 65817, Note_on_c, 9, 40, 0
14, 66087, Note_on_c, 9, 35, 87
14, 66145, Note_on_c, 9, 35, 0
14, 66245, Note_on_c, 9, 35, 85
14, 66247, Note_on_c, 9, 51, 119
14, 66292, Note_on_c, 9, 51, 0
14, 66725, Note_on_c, 9, 51, 119
14, 66727, Note_on_c, 9, 40, 122
14, 66765, Note_on_c, 9, 51, 0
14, 66775, Note_on_c, 9, 40, 0
14, 66780, Note_on_c, 9, 35, 0
14, 67210, Note_on_c, 9, 35, 100
14, 67212, Note_on_c, 9, 51, 122
14, 67252, Note_on_c, 9, 51, 0
14, 67687, Note_on_c, 9, 51, 122
14, 67690, Note_on_c, 9, 40, 127
14, 67737, Note_on_c, 9, 35, 0
14, 67740, Note_on_c, 9, 51, 0
14, 67747, Note_on_c, 9, 40, 0
14, 68007, Note_on_c, 9, 35, 80
14, 68060, Note_on_c, 9, 35, 0
14, 68162, Note_on_c, 9, 35, 93
14, 68162, Note_on_c, 9, 51, 119
14, 68215, Note_on_c, 9, 51, 0
14, 68647, Note_on_c, 9, 40, 127
14, 68647, Note_on_c, 9, 51, 119
14, 68687, Note_on_c, 9, 35, 0
14, 68712, Note_on_c, 9, 51, 0
14, 68727, Note_on_c, 9, 40, 0
14, 69130, Note_on_c, 9, 35, 107
14, 69130, Note_on_c, 9, 51, 107
14, 69190, Note_on_c, 9, 51, 0
14, 69607, Note_on_c, 9, 51, 113
14, 69610, Note_on_c, 9, 40, 127
14, 69615, Note_on_c, 9, 35, 0
14, 69670, Note_on_c, 9, 51, 0
14, 69720, Note_on_c, 9, 40, 0
14, 69925, Note_on_c, 9, 35, 87
14, 69992, Note_on_c, 9, 35, 0
14, 70082, Note_on_c, 9, 35, 95
14, 70082, Note_on_c, 9, 51, 110
14, 70147, Note_on_c, 9, 51, 0
14, 70567, Note_on_c, 9, 40, 119
14, 70567, Note_on_c, 9, 51, 119
14, 70582, Note_on_c, 9, 35, 0
14, 70652, Note_on_c, 9, 51, 0
14, 70660, Note_on_c, 9, 40, 0
14, 71052, Note_on_c, 9, 35, 116
14, 71052, Note_on_c, 9, 51, 119
14, 71097, Note_on_c, 9, 51, 0
14, 71237, Note_on_c, 9, 35, 0
14, 72972, Note_on_c, 9, 35, 95
14, 72975, Note_on_c, 9, 51, 119
14, 73025, Note_on_c, 9, 51, 0
14, 73450, Note_on_c, 9, 40, 102
14, 73450, Note_on_c, 9, 51, 116
14, 73465, Note_on_c, 9, 35, 0
14, 73510, Note_on_c, 9, 51, 0
14, 73542, Note_on_c, 9, 40, 0
14, 73762, Note_on_c, 9, 35, 98
14, 73860, Note_on_c, 9, 35, 0
14, 73930, Note_on_c, 9, 35, 89
14, 73930, Note_on_c, 9, 51, 122
14, 74000, Note_on_c, 9, 51, 0
14, 74410, Note_on_c, 9, 40, 110
14, 74410, Note_on_c, 9, 51, 119
14, 74445, Note_on_c, 9, 35, 0
14, 74475, Note_on_c, 9, 51, 0
14, 74495, Note_on_c, 9, 40, 0
14, 74890, Note_on_c, 9, 35, 105
14, 74890, Note_on_c, 9, 51, 122
14, 74970, Note_on_c, 9, 51, 0
14, 75372, Note_on_c, 9, 40, 110
14, 75372, Note_on_c, 9, 51, 122
14, 75375, Note_on_c, 9, 35, 0
14, 75437, Note_on_c, 9, 51, 0
14, 75470, Note_on_c, 9, 40, 0
14, 75685, Note_on_c, 9, 35, 100
14, 75750, Note_on_c, 9, 35, 0
14, 75850, Note_on_c, 9, 35, 100
14, 75852, Note_on_c, 9, 51, 119
14, 75912, Note_on_c, 9, 51, 0
14, 76330, Note_on_c, 9, 40, 110
14, 76330, Note_on_c, 9, 51, 122
14, 76367, Note_on_c, 9, 35, 0
14, 76405, Note_on_c, 9, 51, 0
14, 76427, Note_on_c, 9, 40, 0
14, 76810, Note_on_c, 9, 35, 102
14, 76812, Note_on_c, 9, 51, 122
14, 76870, Note_on_c, 9, 51, 0
14, 77290, Note_on_c, 9, 40, 110
14, 77292, Note_on_c, 9, 51, 122
14, 77302, Note_on_c, 9, 35, 0
14, 77365, Note_on_c, 9, 51, 0
14, 77402, Note_on_c, 9, 40, 0
14, 77602, Note_on_c, 9, 35, 98
14, 77670, Note_on_c, 9, 35, 0
14, 77770, Note_on_c, 9, 35, 107
14, 77770, Note_on_c, 9, 51, 116
14, 77822, Note_on_c, 9, 51, 0
14, 78250, Note_on_c, 9, 40, 110
14, 78252, Note_on_c, 9, 51, 116
14, 78272, Note_on_c, 9, 35, 0
14, 78305, Note_on_c, 9, 51, 0
14, 78332, Note_on_c, 9, 40, 0
14, 78730, Note_on_c, 9, 35, 102
14, 78732, Note_on_c, 9, 51, 110
14, 78787, Note_on_c, 9, 51, 0
14, 79210, Note_on_c, 9, 40, 107
14, 79212, Note_on_c, 9, 35, 0
14, 79212, Note_on_c, 9, 51, 107
14, 79270, Note_on_c, 9, 51, 0
14, 79280, Note_on_c, 9, 40, 0
14, 79527, Note_on_c, 9, 35, 100
14, 79607, Note_on_c, 9, 35, 0
14, 79695, Note_on_c, 9, 35, 98
14, 79695, Note_on_c, 9, 51, 119
14, 79772, Note_on_c, 9, 51, 0
14, 80155, Note_on_c, 9, 35, 0
14, 80175, Note_on_c, 9, 40, 107
14, 80175, Note_on_c, 9, 51, 119
14, 80237, Note_on_c, 9, 40, 0
14, 80252, Note_on_c, 9, 51, 0
14, 80650, Note_on_c, 9, 35, 100
14, 80652, Note_on_c, 9, 51, 119
14, 80740, Note_on_c, 9, 51, 0
14, 81130, Note_on_c, 9, 40, 110
14, 81132, Note_on_c, 9, 51, 116
14, 81140, Note_on_c, 9, 35, 0
14, 81195, Note_on_c, 9, 40, 0
14, 81205, Note_on_c, 9, 51, 0
14, 81442, Note_on_c, 9, 35, 102
14, 81515, Note_on_c, 9, 35, 0
14, 81610, Note_on_c, 9, 35, 102
14, 81612, Note_on_c, 9, 51, 113
14, 81687, Note_on_c, 9, 51, 0
14, 82090, Note_on_c, 9, 40, 110
14, 82090, Note_on_c, 9, 51, 119
14, 82115, Note_on_c, 9, 35, 0
14, 82157, Note_on_c, 9, 40, 0
14, 82162, Note_on_c, 9, 51, 0
14, 82570, Note_on_c, 9, 35, 98
14, 82570, Note_on_c, 9, 51, 116
14, 82622, Note_on_c, 9, 51, 0
14, 83050, Note_on_c, 9, 40, 107
14, 83050, Note_on_c, 9, 51, 110
14, 83067, Note_on_c, 9, 35, 0
14, 83105, Note_on_c, 9, 51, 0
14, 83105, Note_on_c, 9, 40, 0
14, 83362, Note_on_c, 9, 35, 85
14, 83432, Note_on_c, 9, 35, 0
14, 83530, Note_on_c, 9, 35, 93
14, 83530, Note_on_c, 9, 51, 110
14, 83565, Note_on_c, 9, 51, 0
14, 84010, Note_on_c, 9, 40, 110
14, 84010, Note_on_c, 9, 51, 107
14, 84040, Note_on_c, 9, 35, 0
14, 84047, Note_on_c, 9, 40, 0
14, 84057, Note_on_c, 9, 51, 0
14, 84492, Note_on_c, 9, 35, 98
14, 84495, Note_on_c, 9, 51, 105
14, 84540, Note_on_c, 9, 51, 0
14, 84970, Note_on_c, 9, 40, 110
14, 84970, Note_on_c, 9, 51, 105
14, 84987, Note_on_c, 9, 35, 0
14, 85012, Note_on_c, 9, 40, 0
14, 85027, Note_on_c, 9, 51, 0
14, 85282, Note_on_c, 9, 35, 87
14, 85357, Note_on_c, 9, 35, 0
14, 85450, Note_on_c, 9, 35, 74
14, 85450, Note_on_c, 9, 51, 102
14, 85487, Note_on_c, 9, 51, 0
14, 85865, Note_on_c, 9, 35, 0
14, 85937, Note_on_c, 9, 40, 105
14, 85940, Note_on_c, 9, 51, 105
14, 85962, Note_on_c, 9, 40, 0
14, 86017, Note_on_c, 9, 51, 0
14, 86412, Note_on_c, 9, 35, 100
14, 86412, Note_on_c, 9, 51, 100
14, 86480, Note_on_c, 9, 51, 0
14, 86677, Note_on_c, 9, 35, 0
14, 86890, Note_on_c, 9, 35, 89
14, 86890, Note_on_c, 9, 40, 107
14, 86890, Note_on_c, 9, 51, 102
14, 86942, Note_on_c, 9, 40, 0
14, 86972, Note_on_c, 9, 51, 0
14, 87232, Note_on_c, 9, 35, 0
14, 87370, Note_on_c, 9, 35, 98
14, 87370, Note_on_c, 9, 51, 102
14, 87435, Note_on_c, 9, 51, 0
14, 87657, Note_on_c, 9, 35, 0
14, 87850, Note_on_c, 9, 35, 102
14, 87850, Note_on_c, 9, 40, 107
14, 87850, Note_on_c, 9, 51, 102
14, 87907, Note_on_c, 9, 40, 0
14, 87912, Note_on_c, 9, 51, 0
14, 87942, Note_on_c, 9, 35, 0
14, 88002, Note_on_c, 9, 40, 100
14, 88072, Note_on_c, 9, 40, 0
14, 88162, Note_on_c, 9, 40, 60
14, 88215, Note_on_c, 9, 40, 0
14, 88332, Note_on_c, 9, 35, 105
14, 88332, Note_on_c, 9, 51, 107
14, 88377, Note_on_c, 9, 51, 0
14, 88802, Note_on_c, 9, 40, 110
14, 88802, Note_on_c, 9, 51, 107
14, 88852, Note_on_c, 9, 35, 0
14, 88887, Note_on_c, 9, 40, 0
14, 88895, Note_on_c, 9, 51, 0
14, 89122, Note_on_c, 9, 35, 100
14, 89205, Note_on_c, 9, 35, 0
14, 89285, Note_on_c, 9, 35, 105
14, 89285, Note_on_c, 9, 51, 113
14, 89395, Note_on_c, 9, 51, 0
14, 89765, Note_on_c, 9, 40, 122
14, 89765, Note_on_c, 9, 51, 107
14, 89797, Note_on_c, 9, 35, 0
14, 89847, Note_on_c, 9, 40, 0
14, 89872, Note_on_c, 9, 51, 0
14, 90255, Note_on_c, 9, 35, 105
14, 90257, Note_on_c, 9, 51, 107
14, 90347, Note_on_c, 9, 51, 0
14, 90722, Note_on_c, 9, 40, 119
14, 90722, Note_on_c, 9, 51, 110
14, 90737, Note_on_c, 9, 35, 0
14, 90797, Note_on_c, 9, 40, 0
14, 90815, Note_on_c, 9, 51, 0
14, 91045, Note_on_c, 9, 35, 102
14, 91127, Note_on_c, 9, 35, 0
14, 91205, Note_on_c, 9, 35, 89
14, 91205, Note_on_c, 9, 51, 105
14, 91297, Note_on_c, 9, 51, 0
14, 91682, Note_on_c, 9, 40, 110
14, 91685, Note_on_c, 9, 51, 110
14, 91727, Note_on_c, 9, 35, 0
14, 91747, Note_on_c, 9, 40, 0
14, 91765, Note_on_c, 9, 51, 0
14, 92002, Note_on_c, 9, 51, 105
14, 92077, Note_on_c, 9, 51, 0
14, 92170, Note_on_c, 9, 35, 102
14, 92170, Note_on_c, 9, 51, 102
14, 92257, Note_on_c, 9, 51, 0
14, 92642, Note_on_c, 9, 40, 110
14, 92642, Note_on_c, 9, 51, 102
14, 92687, Note_on_c, 9, 35, 0
14, 92717, Note_on_c, 9, 40, 0
14, 92757, Note_on_c, 9, 51, 0
14, 92965, Note_on_c, 9, 35, 91
14, 93047, Note_on_c, 9, 35, 0
14, 93125, Note_on_c, 9, 35, 87
14, 93125, Note_on_c, 9, 51, 102
14, 93212, Note_on_c, 9, 51, 0
14, 93605, Note_on_c, 9, 40, 107
14, 93605, Note_on_c, 9, 51, 100
14, 93645, Note_on_c, 9, 35, 0
14, 93685, Note_on_c, 9, 40, 0
14, 93702, Note_on_c, 9, 51, 0
14, 93922, Note_on_c, 9, 51, 66
14, 93962, Note_on_c, 9, 51, 0
14, 94090, Note_on_c, 9, 35, 95
14, 94090, Note_on_c, 9, 51, 98
14, 94175, Note_on_c, 9, 51, 0
14, 94562, Note_on_c, 9, 40, 107
14, 94562, Note_on_c, 9, 51, 91
14, 94630, Note_on_c, 9, 40, 0
14, 94635, Note_on_c, 9, 35, 0
14, 94652, Note_on_c, 9, 51, 0
14, 94885, Note_on_c, 9, 35, 85
14, 94952, Note_on_c, 9, 35, 0
14, 95045, Note_on_c, 9, 35, 91
14, 95045, Note_on_c, 9, 51, 100
14, 95170, Note_on_c, 9, 51, 0
14, 95515, Note_on_c, 9, 35, 0
14, 95525, Note_on_c, 9, 40, 110
14, 95525, Note_on_c, 9, 51, 100
14, 95582, Note_on_c, 9, 40, 0
14, 95627, Note_on_c, 9, 51, 0
14, 95842, Note_on_c, 9, 51, 89
14, 95902, Note_on_c, 9, 51, 0
14, 96010, Note_on_c, 9, 35, 100
14, 96010, Note_on_c, 9, 51, 105
14, 96092, Note_on_c, 9, 51, 0
14, 96485, Note_on_c, 9, 40, 107
14, 96485, Note_on_c, 9, 51, 102
14, 96500, Note_on_c, 9, 35, 0
14, 96515, Note_on_c, 9, 40, 0
14, 96585, Note_on_c, 9, 51, 0
14, 96802, Note_on_c, 9, 35, 91
14, 96862, Note_on_c, 9, 35, 0
14, 96967, Note_on_c, 9, 35, 95
14, 96967, Note_on_c, 9, 51, 102
14, 97032, Note_on_c, 9, 51, 0
14, 97445, Note_on_c, 9, 40, 105
14, 97445, Note_on_c, 9, 51, 100
14, 97475, Note_on_c, 9, 40, 0
14, 97475, Note_on_c, 9, 35, 0
14, 97552, Note_on_c, 9, 51, 0
14, 97762, Note_on_c, 9, 51, 100
14, 97832, Note_on_c, 9, 51, 0
14, 97927, Note_on_c, 9, 35, 98
14, 97927, Note_on_c, 9, 51, 105
14, 98017, Note_on_c, 9, 51, 0
14, 98405, Note_on_c, 9, 40, 107
14, 98405, Note_on_c, 9, 51, 116
14, 98425, Note_on_c, 9, 35, 0
14, 98455, Note_on_c, 9, 40, 0
14, 98505, Note_on_c, 9, 51, 0
14, 98722, Note_on_c, 9, 35, 100
14, 98807, Note_on_c, 9, 35, 0
14, 98887, Note_on_c, 9, 35, 98
14, 98887, Note_on_c, 9, 51, 105
14, 98970, Note_on_c, 9, 51, 0
14, 99370, Note_on_c, 9, 40, 105
14, 99370, Note_on_c, 9, 51, 110
14, 99405, Note_on_c, 9, 35, 0
14, 99410, Note_on_c, 9, 40, 0
14, 99452, Note_on_c, 9, 51, 0
14, 99685, Note_on_c, 9, 51, 95
14, 99730, Note_on_c, 9, 51, 0
14, 99857, Note_on_c, 9, 35, 102
14, 99857, Note_on_c, 9, 51, 98
14, 99932, Note_on_c, 9, 51, 0
14, 100322, Note_on_c, 9, 40, 110
14, 100322, Note_on_c, 9, 51, 107
14, 100327, Note_on_c, 9, 35, 0
14, 100380, Note_on_c, 9, 40, 0
14, 100420, Note_on_c, 9, 51, 0
14, 100645, Note_on_c, 9, 35, 98
14, 100725, Note_on_c, 9, 35, 0
14, 100802, Note_on_c, 9, 35, 82
14, 100805, Note_on_c, 9, 51, 102
14, 100907, Note_on_c, 9, 51, 0
14, 101285, Note_on_c, 9, 40, 107
14, 101285, Note_on_c, 9, 51, 98
14, 101330, Note_on_c, 9, 35, 0
14, 101335, Note_on_c, 9, 40, 0
14, 101385, Note_on_c, 9, 51, 0
14, 101602, Note_on_c, 9, 51, 85
14, 101660, Note_on_c, 9, 51, 0
14, 101770, Note_on_c, 9, 35, 91
14, 101770, Note_on_c, 9, 51, 100
14, 101855, Note_on_c, 9, 51, 0
14, 102247, Note_on_c, 9, 40, 110
14, 102247, Note_on_c, 9, 51, 107
14, 102272, Note_on_c, 9, 35, 0
14, 102282, Note_on_c, 9, 40, 0
14, 102332, Note_on_c, 9, 51, 0
14, 102562, Note_on_c, 9, 35, 85
14, 102637, Note_on_c, 9, 35, 0
14, 102725, Note_on_c, 9, 35, 95
14, 102727, Note_on_c, 9, 51, 110
14, 102807, Note_on_c, 9, 51, 0
14, 103207, Note_on_c, 9, 40, 113
14, 103207, Note_on_c, 9, 51, 119
14, 103265, Note_on_c, 9, 35, 0
14, 103277, Note_on_c, 9, 40, 0
14, 103280, Note_on_c, 9, 51, 0
14, 103522, Note_on_c, 9, 40, 107
14, 103570, Note_on_c, 9, 40, 0
14, 103690, Note_on_c, 9, 35, 116
14, 103690, Note_on_c, 9, 51, 95
14, 103817, Note_on_c, 9, 51, 0
14, 104165, Note_on_c, 9, 51, 105
14, 104265, Note_on_c, 9, 35, 0
14, 104290, Note_on_c, 9, 51, 0
14, 104645, Note_on_c, 9, 35, 105
14, 104647, Note_on_c, 9, 51, 107
14, 104787, Note_on_c, 9, 51, 0
14, 105130, Note_on_c, 9, 51, 107
14, 105145, Note_on_c, 9, 35, 0
14, 105255, Note_on_c, 9, 51, 0
14, 105605, Note_on_c, 9, 35, 102
14, 105607, Note_on_c, 9, 51, 102
14, 105777, Note_on_c, 9, 51, 0
14, 106087, Note_on_c, 9, 51, 102
14, 106102, Note_on_c, 9, 35, 0
14, 106202, Note_on_c, 9, 51, 0
14, 106567, Note_on_c, 9, 35, 102
14, 106567, Note_on_c, 9, 51, 105
14, 106735, Note_on_c, 9, 51, 0
14, 107047, Note_on_c, 9, 51, 102
14, 107077, Note_on_c, 9, 35, 0
14, 107150, Note_on_c, 9, 51, 0
14, 107527, Note_on_c, 9, 35, 102
14, 107527, Note_on_c, 9, 51, 110
14, 107665, Note_on_c, 9, 51, 0
14, 108007, Note_on_c, 9, 51, 100
14, 108037, Note_on_c, 9, 35, 0
14, 108100, Note_on_c, 9, 51, 0
14, 108485, Note_on_c, 9, 35, 102
14, 108487, Note_on_c, 9, 51, 98
14, 108635, Note_on_c, 9, 51, 0
14, 108967, Note_on_c, 9, 51, 107
14, 108997, Note_on_c, 9, 35, 0
14, 109062, Note_on_c, 9, 51, 0
14, 109447, Note_on_c, 9, 35, 100
14, 109447, Note_on_c, 9, 51, 102
14, 109577, Note_on_c, 9, 51, 0
14, 109927, Note_on_c, 9, 51, 102
14, 109965, Note_on_c, 9, 35, 0
14, 110030, Note_on_c, 9, 51, 0
14, 110407, Note_on_c, 9, 35, 102
14, 110407, Note_on_c, 9, 51, 107
14, 110567, Note_on_c, 9, 51, 0
14, 110887, Note_on_c, 9, 51, 105
14, 111027, Note_on_c, 9, 51, 0
14, 111072, Note_on_c, 9, 35, 0
14, 111370, Note_on_c, 9, 35, 98
14, 111370, Note_on_c, 9, 51, 102
14, 111460, Note_on_c, 9, 51, 0
14, 111502, Note_on_c, 9, 35, 0
14, 111847, Note_on_c, 9, 35, 98
14, 111985, Note_on_c, 9, 35, 0
14, 112327, Note_on_c, 9, 35, 102
14, 112952, Note_on_c, 9, 35, 0
14, 113287, Note_on_c, 9, 35, 107
14, 113435, Note_on_c, 9, 35, 0
14, 113767, Note_on_c, 9, 35, 102
14, 113940, Note_on_c, 9, 35, 0
14, 114247, Note_on_c, 9, 35, 102
14, 114895, Note_on_c, 9, 35, 0
14, 115207, Note_on_c, 9, 35, 100
14, 115402, Note_on_c, 9, 35, 0
14, 115687, Note_on_c, 9, 35, 100
14, 115797, Note_on_c, 9, 35, 0
14, 116167, Note_on_c, 9, 35, 98
14, 116767, Note_on_c, 9, 35, 0
14, 117127, Note_on_c, 9, 35, 93
14, 117745, Note_on_c, 9, 35, 0
14, 118087, Note_on_c, 9, 35, 87
14, 118642, Note_on_c, 9, 35, 0
14, 119050, Note_on_c, 9, 35, 113
14, 119052, Note_on_c, 9, 51, 119
14, 119110, Note_on_c, 9, 51, 0
14, 119522, Note_on_c, 9, 40, 107
14, 119522, Note_on_c, 9, 51, 116
14, 119557, Note_on_c, 9, 35, 0
14, 119577, Note_on_c, 9, 40, 0
14, 119602, Note_on_c, 9, 51, 0
14, 119845, Note_on_c, 9, 35, 89
14, 119907, Note_on_c, 9, 35, 0
14, 120005, Note_on_c, 9, 35, 89
14, 120007, Note_on_c, 9, 51, 119
14, 120065, Note_on_c, 9, 51, 0
14, 120482, Note_on_c, 9, 40, 110
14, 120482, Note_on_c, 9, 51, 119
14, 120527, Note_on_c, 9, 40, 0
14, 120552, Note_on_c, 9, 51, 0
14, 120585, Note_on_c, 9, 35, 0
14, 120967, Note_on_c, 9, 35, 100
14, 120967, Note_on_c, 9, 51, 119
14, 121037, Note_on_c, 9, 51, 0
14, 121442, Note_on_c, 9, 40, 113
14, 121442, Note_on_c, 9, 51, 119
14, 121485, Note_on_c, 9, 35, 0
14, 121497, Note_on_c, 9, 40, 0
14, 121520, Note_on_c, 9, 51, 0
14, 121765, Note_on_c, 9, 35, 91
14, 121840, Note_on_c, 9, 35, 0
14, 121922, Note_on_c, 9, 35, 89
14, 121925, Note_on_c, 9, 51, 119
14, 121987, Note_on_c, 9, 51, 0
14, 122402, Note_on_c, 9, 51, 122
14, 122405, Note_on_c, 9, 40, 122
14, 122460, Note_on_c, 9, 40, 0
14, 122477, Note_on_c, 9, 51, 0
14, 122515, Note_on_c, 9, 35, 0
14, 122890, Note_on_c, 9, 35, 102
14, 122890, Note_on_c, 9, 51, 116
14, 122912, Note_on_c, 9, 51, 0
14, 123362, Note_on_c, 9, 51, 102
14, 123365, Note_on_c, 9, 40, 119
14, 123367, Note_on_c, 9, 35, 0
14, 123385, Note_on_c, 9, 51, 0
14, 123422, Note_on_c, 9, 40, 0
14, 123682, Note_on_c, 9, 35, 98
14, 123747, Note_on_c, 9, 35, 0
14, 123847, Note_on_c, 9, 35, 102
14, 123847, Note_on_c, 9, 51, 127
14, 123885, Note_on_c, 9, 51, 0
14, 124322, Note_on_c, 9, 40, 113
14, 124322, Note_on_c, 9, 51, 119
14, 124335, Note_on_c, 9, 35, 0
14, 124352, Note_on_c, 9, 51, 0
14, 124387, Note_on_c, 9, 40, 0
14, 124807, Note_on_c, 9, 35, 95
14, 124807, Note_on_c, 9, 51, 113
14, 124842, Note_on_c, 9, 51, 0
14, 125282, Note_on_c, 9, 51, 119
14, 125285, Note_on_c, 9, 40, 116
14, 125317, Note_on_c, 9, 35, 0
14, 125330, Note_on_c, 9, 51, 0
14, 125332, Note_on_c, 9, 40, 0
14, 125610, Note_on_c, 9, 35, 95
14, 125675, Note_on_c, 9, 35, 0
14, 125762, Note_on_c, 9, 35, 89
14, 125762, Note_on_c, 9, 51, 122
14, 125805, Note_on_c, 9, 51, 0
14, 126240, Note_on_c, 9, 35, 0
14, 126245, Note_on_c, 9, 40, 127
14, 126245, Note_on_c, 9, 51, 119
14, 126292, Note_on_c, 9, 51, 0
14, 126317, Note_on_c, 9, 40, 0
14, 126730, Note_on_c, 9, 35, 98
14, 126730, Note_on_c, 9, 51, 122
14, 126757, Note_on_c, 9, 51, 0
14, 127207, Note_on_c, 9, 51, 122
14, 127210, Note_on_c, 9, 40, 113
14, 127220, Note_on_c, 9, 35, 0
14, 127242, Note_on_c, 9, 51, 0
14, 127257, Note_on_c, 9, 40, 0
14, 127530, Note_on_c, 9, 35, 87
14, 127585, Note_on_c, 9, 35, 0
14, 127682, Note_on_c, 9, 35, 85
14, 127685, Note_on_c, 9, 51, 119
14, 127732, Note_on_c, 9, 51, 0
14, 128167, Note_on_c, 9, 40, 122
14, 128167, Note_on_c, 9, 51, 119
14, 128205, Note_on_c, 9, 51, 0
14, 128215, Note_on_c, 9, 40, 0
14, 128220, Note_on_c, 9, 35, 0
14, 128652, Note_on_c, 9, 35, 100
14, 128652, Note_on_c, 9, 51, 122
14, 128692, Note_on_c, 9, 51, 0
14, 129130, Note_on_c, 9, 40, 127
14, 129130, Note_on_c, 9, 51, 122
14, 129177, Note_on_c, 9, 51, 0
14, 129177, Note_on_c, 9, 35, 0
14, 129187, Note_on_c, 9, 40, 0
14, 129450, Note_on_c, 9, 35, 80
14, 129500, Note_on_c, 9, 35, 0
14, 129602, Note_on_c, 9, 35, 93
14, 129605, Note_on_c, 9, 51, 119
14, 129655, Note_on_c, 9, 51, 0
14, 130087, Note_on_c, 9, 40, 127
14, 130087, Note_on_c, 9, 51, 119
14, 130127, Note_on_c, 9, 35, 0
14, 130152, Note_on_c, 9, 51, 0
14, 130167, Note_on_c, 9, 40, 0
14, 130567, Note_on_c, 9, 35, 107
14, 130570, Note_on_c, 9, 51, 107
14, 130630, Note_on_c, 9, 51, 0
14, 131047, Note_on_c, 9, 51, 113
14, 131050, Note_on_c, 9, 40, 127
14, 131055, Note_on_c, 9, 35, 0
14, 131110, Note_on_c, 9, 51, 0
14, 131160, Note_on_c, 9, 40, 0
14, 131365, Note_on_c, 9, 35, 87
14, 131432, Note_on_c, 9, 35, 0
14, 131522, Note_on_c, 9, 35, 95
14, 131525, Note_on_c, 9, 51, 110
14, 131590, Note_on_c, 9, 51, 0
14, 132007, Note_on_c, 9, 40, 119
14, 132007, Note_on_c, 9, 51, 119
14, 132022, Note_on_c, 9, 35, 0
14, 132092, Note_on_c, 9, 51, 0
14, 132100, Note_on_c, 9, 40, 0
14, 132492, Note_on_c, 9, 35, 116
14, 132492, Note_on_c, 9, 51, 119
14, 132537, Note_on_c, 9, 51, 0
14, 132677, Note_on_c, 9, 35, 0
14, 134412, Note_on_c, 9, 35, 100
14, 134412, Note_on_c, 9, 51, 119
14, 134465, Note_on_c, 9, 51, 0
14, 134502, Note_on_c, 9, 35, 0
14, 134890, Note_on_c, 9, 35, 95
14, 134890, Note_on_c, 9, 51, 116
14, 134952, Note_on_c, 9, 51, 0
14, 134982, Note_on_c, 9, 35, 0
14, 135370, Note_on_c, 9, 35, 85
14, 135370, Note_on_c, 9, 51, 122
14, 135440, Note_on_c, 9, 51, 0
14, 135480, Note_on_c, 9, 35, 0
14, 135850, Note_on_c, 9, 35, 85
14, 135850, Note_on_c, 9, 51, 119
14, 135870, Note_on_c, 9, 35, 0
14, 135915, Note_on_c, 9, 51, 0
14, 136330, Note_on_c, 9, 35, 82
14, 136332, Note_on_c, 9, 51, 122
14, 136410, Note_on_c, 9, 51, 0
14, 136417, Note_on_c, 9, 35, 0
14, 136812, Note_on_c, 9, 35, 87
14, 136812, Note_on_c, 9, 51, 122
14, 136877, Note_on_c, 9, 51, 0
14, 136902, Note_on_c, 9, 35, 0
14, 137290, Note_on_c, 9, 35, 87
14, 137290, Note_on_c, 9, 51, 119
14, 137352, Note_on_c, 9, 51, 0
14, 137397, Note_on_c, 9, 35, 0
14, 137770, Note_on_c, 9, 35, 87
14, 137772, Note_on_c, 9, 51, 122
14, 137845, Note_on_c, 9, 51, 0
14, 137882, Note_on_c, 9, 35, 0
14, 138250, Note_on_c, 9, 35, 91
14, 138252, Note_on_c, 9, 51, 122
14, 138310, Note_on_c, 9, 51, 0
14, 138347, Note_on_c, 9, 35, 0
14, 138730, Note_on_c, 9, 35, 87
14, 138730, Note_on_c, 9, 51, 122
14, 138802, Note_on_c, 9, 51, 0
14, 138845, Note_on_c, 9, 35, 0
14, 139210, Note_on_c, 9, 35, 98
14, 139210, Note_on_c, 9, 51, 116
14, 139262, Note_on_c, 9, 51, 0
14, 139307, Note_on_c, 9, 35, 0
14, 139690, Note_on_c, 9, 35, 82
14, 139690, Note_on_c, 9, 51, 116
14, 139745, Note_on_c, 9, 51, 0
14, 139800, Note_on_c, 9, 35, 0
14, 140170, Note_on_c, 9, 35, 95
14, 140172, Note_on_c, 9, 51, 110
14, 140227, Note_on_c, 9, 51, 0
14, 140275, Note_on_c, 9, 35, 0
14, 140650, Note_on_c, 9, 35, 89
14, 140652, Note_on_c, 9, 51, 107
14, 140710, Note_on_c, 9, 51, 0
14, 140770, Note_on_c, 9, 35, 0
14, 141135, Note_on_c, 9, 35, 93
14, 141135, Note_on_c, 9, 51, 119
14, 141212, Note_on_c, 9, 51, 0
14, 141265, Note_on_c, 9, 35, 0
14, 141615, Note_on_c, 9, 35, 95
14, 141615, Note_on_c, 9, 51, 119
14, 141692, Note_on_c, 9, 51, 0
14, 141732, Note_on_c, 9, 35, 0
14, 142092, Note_on_c, 9, 35, 98
14, 142092, Note_on_c, 9, 51, 119
14, 142180, Note_on_c, 9, 51, 0
14, 142207, Note_on_c, 9, 35, 0
14, 142570, Note_on_c, 9, 35, 89
14, 142572, Note_on_c, 9, 51, 116
14, 142645, Note_on_c, 9, 51, 0
14, 142695, Note_on_c, 9, 35, 0
14, 143050, Note_on_c, 9, 35, 91
14, 143052, Note_on_c, 9, 51, 113
14, 143127, Note_on_c, 9, 51, 0
14, 143175, Note_on_c, 9, 35, 0
14, 143530, Note_on_c, 9, 35, 89
14, 143530, Note_on_c, 9, 51, 119
14, 143602, Note_on_c, 9, 51, 0
14, 143627, Note_on_c, 9, 35, 0
14, 144010, Note_on_c, 9, 35, 89
14, 144010, Note_on_c, 9, 51, 116
14, 144062, Note_on_c, 9, 51, 0
14, 144115, Note_on_c, 9, 35, 0
14, 144490, Note_on_c, 9, 35, 87
14, 144492, Note_on_c, 9, 51, 110
14, 144545, Note_on_c, 9, 51, 0
14, 144587, Note_on_c, 9, 35, 0
14, 144970, Note_on_c, 9, 35, 95
14, 144970, Note_on_c, 9, 51, 110
14, 145005, Note_on_c, 9, 51, 0
14, 145070, Note_on_c, 9, 35, 0
14, 145450, Note_on_c, 9, 35, 93
14, 145450, Note_on_c, 9, 51, 107
14, 145497, Note_on_c, 9, 51, 0
14, 145555, Note_on_c, 9, 35, 0
14, 145932, Note_on_c, 9, 35, 87
14, 145932, Note_on_c, 9, 51, 105
14, 145980, Note_on_c, 9, 51, 0
14, 146025, Note_on_c, 9, 35, 0
14, 146410, Note_on_c, 9, 35, 95
14, 146410, Note_on_c, 9, 51, 105
14, 146467, Note_on_c, 9, 51, 0
14, 146520, Note_on_c, 9, 35, 0
14, 146890, Note_on_c, 9, 35, 98
14, 146890, Note_on_c, 9, 51, 102
14, 146927, Note_on_c, 9, 51, 0
14, 147017, Note_on_c, 9, 35, 0
14, 147370, Note_on_c, 9, 35, 98
14, 147372, Note_on_c, 9, 51, 105
14, 147457, Note_on_c, 9, 51, 0
14, 147477, Note_on_c, 9, 35, 0
14, 147852, Note_on_c, 9, 35, 95
14, 147852, Note_on_c, 9, 51, 100
14, 147920, Note_on_c, 9, 51, 0
14, 147950, Note_on_c, 9, 35, 0
14, 148330, Note_on_c, 9, 35, 95
14, 148330, Note_on_c, 9, 51, 102
14, 148415, Note_on_c, 9, 51, 0
14, 148435, Note_on_c, 9, 35, 0
14, 148810, Note_on_c, 9, 35, 91
14, 148810, Note_on_c, 9, 51, 102
14, 148872, Note_on_c, 9, 51, 0
14, 148912, Note_on_c, 9, 35, 0
14, 149287, Note_on_c, 9, 35, 98
14, 149290, Note_on_c, 9, 51, 102
14, 149352, Note_on_c, 9, 51, 0
14, 149355, Note_on_c, 9, 35, 0
14, 149772, Note_on_c, 9, 35, 107
14, 149775, Note_on_c, 9, 51, 107
14, 149820, Note_on_c, 9, 51, 0
14, 149872, Note_on_c, 9, 35, 0
14, 150250, Note_on_c, 9, 35, 113
14, 150250, Note_on_c, 9, 51, 102
14, 150300, Note_on_c, 9, 51, 0
14, 150365, Note_on_c, 9, 35, 0
14, 150730, Note_on_c, 9, 35, 102
14, 150732, Note_on_c, 9, 51, 102
14, 150782, Note_on_c, 9, 51, 0
14, 150820, Note_on_c, 9, 35, 0
14, 151210, Note_on_c, 9, 35, 105
14, 151210, Note_on_c, 9, 51, 100
14, 151265, Note_on_c, 9, 51, 0
14, 151287, Note_on_c, 9, 35, 0
14, 151690, Note_on_c, 9, 35, 89
14, 151690, Note_on_c, 9, 51, 100
14, 151735, Note_on_c, 9, 51, 0
14, 151787, Note_on_c, 9, 35, 0
14, 152170, Note_on_c, 9, 35, 102
14, 152170, Note_on_c, 9, 51, 102
14, 152225, Note_on_c, 9, 35, 0
14, 152227, Note_on_c, 9, 51, 0
14, 152650, Note_on_c, 9, 35, 100
14, 152650, Note_on_c, 9, 51, 98
14, 152680, Note_on_c, 9, 35, 0
14, 152712, Note_on_c, 9, 51, 0
14, 153130, Note_on_c, 9, 35, 102
14, 153130, Note_on_c, 9, 51, 102
14, 153202, Note_on_c, 9, 51, 0
14, 153207, Note_on_c, 9, 35, 0
14, 153610, Note_on_c, 9, 35, 95
14, 153610, Note_on_c, 9, 51, 102
14, 153657, Note_on_c, 9, 35, 0
14, 153687, Note_on_c, 9, 51, 0
14, 154090, Note_on_c, 9, 35, 98
14, 154090, Note_on_c, 9, 51, 102
14, 154160, Note_on_c, 9, 51, 0
14, 154165, Note_on_c, 9, 35, 0
14, 154570, Note_on_c, 9, 35, 98
14, 154570, Note_on_c, 9, 51, 102
14, 154620, Note_on_c, 9, 35, 0
14, 154645, Note_on_c, 9, 51, 0
14, 155050, Note_on_c, 9, 35, 100
14, 155050, Note_on_c, 9, 51, 107
14, 155092, Note_on_c, 9, 35, 0
14, 155117, Note_on_c, 9, 51, 0
14, 155530, Note_on_c, 9, 35, 98
14, 155530, Note_on_c, 9, 51, 105
14, 155562, Note_on_c, 9, 35, 0
14, 155597, Note_on_c, 9, 51, 0
14, 156010, Note_on_c, 9, 35, 105
14, 156010, Note_on_c, 9, 51, 102
14, 156055, Note_on_c, 9, 35, 0
14, 156077, Note_on_c, 9, 51, 0
14, 156490, Note_on_c, 9, 35, 102
14, 156490, Note_on_c, 9, 51, 102
14, 156532, Note_on_c, 9, 35, 0
14, 156557, Note_on_c, 9, 51, 0
14, 156970, Note_on_c, 9, 35, 107
14, 156970, Note_on_c, 9, 51, 102
14, 157005, Note_on_c, 9, 35, 0
14, 157057, Note_on_c, 9, 51, 0
14, 157452, Note_on_c, 9, 35, 116
14, 157452, Note_on_c, 9, 51, 102
14, 157510, Note_on_c, 9, 51, 0
14, 157550, Note_on_c, 9, 35, 0
14, 157930, Note_on_c, 9, 35, 122
14, 157932, Note_on_c, 9, 51, 105
14, 157997, Note_on_c, 9, 51, 0
14, 158030, Note_on_c, 9, 35, 0
14, 158410, Note_on_c, 9, 35, 127
14, 158412, Note_on_c, 9, 51, 122
14, 158450, Note_on_c, 9, 51, 0
14, 158492, Note_on_c, 9, 35, 0
14, 159370, Note_on_c, 9, 35, 105
14, 159372, Note_on_c, 9, 51, 122
14, 159415, Note_on_c, 9, 51, 0
14, 159457, Note_on_c, 9, 35, 0
14, 159850, Note_on_c, 9, 35, 110
14, 159852, Note_on_c, 9, 51, 110
14, 159880, Note_on_c, 9, 51, 0
14, 159947, Note_on_c, 9, 35, 0
14, 160330, Note_on_c, 9, 35, 107
14, 160332, Note_on_c, 9, 51, 110
14, 160367, Note_on_c, 9, 51, 0
14, 160422, Note_on_c, 9, 35, 0
14, 160805, Note_on_c, 9, 35, 98
14, 160875, Note_on_c, 9, 35, 0
14, 161292, Note_on_c, 9, 35, 113
14, 161292, Note_on_c, 9, 51, 119
14, 161347, Note_on_c, 9, 51, 0
14, 161367, Note_on_c, 9, 35, 0
14, 162242, Note_on_c, 9, 51, 105
14, 162270, Note_on_c, 9, 51, 0
14, 163217, Note_on_c, 9, 49, 110
14, 163242, Note_on_c, 9, 49, 0
14, 167050, Note_on_c, 9, 49, 105
14, 167120, Note_on_c, 9, 49, 0
14, 167120, End_track
0, 0, End_of_file
