0, 0, Header, 1, 20, 240
1, 0, Start_track
1, 0, Time_signature, 4, 2, 24, 8
1, 0, Tempo, 705882
1, 0, End_track
2, 0, Start_track
2, 0, Title_t, "       "" MY OLD FLAME """
2, 0, End_track
3, 0, Start_track
3, 0, End_track
4, 0, Start_track
4, 0, Title_t, "Orchestration & Midi prep. by"
4, 0, End_track
5, 0, Start_track
5, 0, Title_t, "            MEL WEBB"
5, 0, End_track
6, 0, Start_track
6, 0, End_track
7, 0, Start_track
7, 0, Title_t, "Bass / Acoust."
7, 0, Program_c, 1, 32
7, 0, Control_c, 1, 7, 90
7, 0, Control_c, 1, 121, 0
7, 0, Control_c, 1, 10, 64
7, 0, Control_c, 1, 123, 0
7, 0, Control_c, 1, 91, 40
7, 0, Control_c, 1, 93, 0
7, 0, Control_c, 1, 64, 0
7, 2400, Note_on_c, 1, 34, 80
7, 2788, Note_off_c, 1, 34, 64
7, 2806, Note_on_c, 1, 32, 81
7, 2880, Note_off_c, 1, 32, 64
7, 2880, Note_on_c, 1, 33, 85
7, 3200, Note_on_c, 1, 21, 27
7, 3220, Note_off_c, 1, 33, 64
7, 3254, Note_off_c, 1, 21, 64
7, 3280, Note_on_c, 1, 33, 82
7, 3324, Note_off_c, 1, 33, 64
7, 3360, Note_on_c, 1, 38, 80
7, 3748, Note_off_c, 1, 38, 64
7, 3766, Note_on_c, 1, 42, 81
7, 3840, Note_off_c, 1, 42, 64
7, 3840, Note_on_c, 1, 43, 82
7, 4320, Note_on_c, 1, 50, 85
7, 4338, Note_off_c, 1, 43, 64
7, 4720, Note_off_c, 1, 50, 64
7, 4720, Note_on_c, 1, 43, 82
7, 4764, Note_off_c, 1, 43, 64
7, 4800, Note_on_c, 1, 34, 85
7, 5120, Note_on_c, 1, 22, 27
7, 5140, Note_off_c, 1, 34, 64
7, 5174, Note_off_c, 1, 22, 64
7, 5200, Note_on_c, 1, 34, 82
7, 5244, Note_off_c, 1, 34, 64
7, 5280, Note_on_c, 1, 39, 70
7, 5520, Note_off_c, 1, 39, 64
7, 5520, Note_on_c, 1, 36, 70
7, 5760, Note_off_c, 1, 36, 64
7, 5760, Note_on_c, 1, 41, 80
7, 6148, Note_off_c, 1, 41, 64
7, 6166, Note_on_c, 1, 33, 81
7, 6240, Note_off_c, 1, 33, 64
7, 6240, Note_on_c, 1, 34, 68
7, 6408, Note_off_c, 1, 34, 64
7, 6408, Note_on_c, 1, 22, 73
7, 6450, Note_off_c, 1, 22, 64
7, 6480, Note_on_c, 1, 39, 68
7, 6648, Note_off_c, 1, 39, 64
7, 6648, Note_on_c, 1, 27, 73
7, 6690, Note_off_c, 1, 27, 64
7, 6720, Note_on_c, 1, 44, 76
7, 7120, Note_on_c, 1, 38, 78
7, 7132, Note_off_c, 1, 44, 64
7, 7200, Note_off_c, 1, 38, 64
7, 7200, Note_on_c, 1, 37, 70
7, 7440, Note_off_c, 1, 37, 64
7, 7440, Note_on_c, 1, 42, 68
7, 7608, Note_off_c, 1, 42, 64
7, 7608, Note_on_c, 1, 30, 73
7, 7650, Note_off_c, 1, 30, 64
7, 7680, Note_on_c, 1, 43, 76
7, 8080, Note_on_c, 1, 38, 78
7, 8092, Note_off_c, 1, 43, 64
7, 8160, Note_off_c, 1, 38, 64
7, 8160, Note_on_c, 1, 37, 85
7, 8560, Note_off_c, 1, 37, 64
7, 8560, Note_on_c, 1, 25, 55
7, 8598, Note_off_c, 1, 25, 64
7, 8640, Note_on_c, 1, 36, 82
7, 9120, Note_off_c, 1, 36, 64
7, 9120, Note_on_c, 1, 36, 80
7, 9508, Note_off_c, 1, 36, 64
7, 9526, Note_on_c, 1, 40, 81
7, 9600, Note_off_c, 1, 40, 64
7, 9600, Note_on_c, 1, 41, 82
7, 10080, Note_off_c, 1, 41, 64
7, 10080, Note_on_c, 1, 34, 85
7, 10480, Note_off_c, 1, 34, 64
7, 10480, Note_on_c, 1, 22, 55
7, 10518, Note_off_c, 1, 22, 64
7, 10560, Note_on_c, 1, 33, 73
7, 10968, Note_off_c, 1, 33, 64
7, 10968, Note_on_c, 1, 39, 68
7, 11040, Note_off_c, 1, 39, 64
7, 11040, Note_on_c, 1, 38, 76
7, 11440, Note_on_c, 1, 44, 78
7, 11452, Note_off_c, 1, 38, 64
7, 11520, Note_off_c, 1, 44, 64
7, 11520, Note_on_c, 1, 43, 89
7, 12014, Note_off_c, 1, 43, 64
7, 12014, Note_on_c, 1, 38, 82
7, 12436, Note_off_c, 1, 38, 64
7, 12480, Note_on_c, 1, 34, 85
7, 12880, Note_off_c, 1, 34, 64
7, 12880, Note_on_c, 1, 22, 55
7, 12918, Note_off_c, 1, 22, 64
7, 12960, Note_on_c, 1, 39, 68
7, 13128, Note_off_c, 1, 39, 64
7, 13128, Note_on_c, 1, 27, 73
7, 13170, Note_off_c, 1, 27, 64
7, 13200, Note_on_c, 1, 36, 70
7, 13440, Note_off_c, 1, 36, 64
7, 13440, Note_on_c, 1, 41, 70
7, 13920, Note_off_c, 1, 41, 64
7, 13920, Note_on_c, 1, 34, 70
7, 14160, Note_off_c, 1, 34, 64
7, 14160, Note_on_c, 1, 39, 70
7, 14400, Note_off_c, 1, 39, 64
7, 14400, Note_on_c, 1, 44, 70
7, 14880, Note_off_c, 1, 44, 64
7, 14880, Note_on_c, 1, 37, 70
7, 15120, Note_off_c, 1, 37, 64
7, 15120, Note_on_c, 1, 42, 70
7, 15360, Note_off_c, 1, 42, 64
7, 15362, Note_on_c, 1, 55, 78
7, 15770, Note_off_c, 1, 55, 64
7, 15770, Note_on_c, 1, 50, 68
7, 15822, Note_off_c, 1, 50, 64
7, 15840, Note_on_c, 1, 37, 70
7, 16320, Note_off_c, 1, 37, 64
7, 16320, Note_on_c, 1, 43, 70
7, 16800, Note_off_c, 1, 43, 64
7, 16800, Note_on_c, 1, 39, 80
7, 17188, Note_off_c, 1, 39, 64
7, 17206, Note_on_c, 1, 43, 81
7, 17280, Note_off_c, 1, 43, 64
7, 17280, Note_on_c, 1, 44, 85
7, 17446, Note_on_c, 1, 39, 64
7, 17464, Note_off_c, 1, 44, 64
7, 17484, Note_off_c, 1, 39, 64
7, 17520, Note_on_c, 1, 46, 83
7, 17758, Note_off_c, 1, 46, 64
7, 17760, Note_on_c, 1, 48, 90
7, 17916, Note_off_c, 1, 48, 64
7, 17926, Note_on_c, 1, 39, 68
7, 17962, Note_off_c, 1, 39, 64
7, 18000, Note_on_c, 1, 51, 92
7, 18160, Note_off_c, 1, 51, 64
7, 18166, Note_on_c, 1, 39, 61
7, 18186, Note_off_c, 1, 39, 64
7, 18240, Note_on_c, 1, 43, 93
7, 18480, Note_off_c, 1, 43, 64
7, 18480, Note_on_c, 1, 43, 100
7, 18720, Note_off_c, 1, 43, 64
7, 18720, Note_on_c, 1, 36, 87
7, 18848, Note_off_c, 1, 36, 64
7, 18892, Note_on_c, 1, 36, 80
7, 18960, Note_on_c, 1, 43, 73
7, 18962, Note_off_c, 1, 36, 64
7, 19200, Note_off_c, 1, 43, 64
7, 19200, Note_on_c, 1, 41, 93
7, 19334, Note_off_c, 1, 41, 64
7, 19368, Note_on_c, 1, 29, 100
7, 19420, Note_off_c, 1, 29, 64
7, 19440, Note_on_c, 1, 39, 85
7, 19676, Note_off_c, 1, 39, 64
7, 19680, Note_on_c, 1, 38, 91
7, 19920, Note_on_c, 1, 36, 87
7, 19936, Note_off_c, 1, 38, 64
7, 20088, Note_on_c, 1, 35, 102
7, 20134, Note_off_c, 1, 36, 64
7, 20158, Note_off_c, 1, 35, 64
7, 20160, Note_on_c, 1, 46, 88
7, 20400, Note_on_c, 1, 34, 82
7, 20438, Note_off_c, 1, 46, 64
7, 20640, Note_on_c, 1, 38, 86
7, 20658, Note_off_c, 1, 34, 64
7, 20880, Note_on_c, 1, 41, 84
7, 20896, Note_off_c, 1, 38, 64
7, 21120, Note_off_c, 1, 41, 64
7, 21120, Note_on_c, 1, 34, 81
7, 21360, Note_on_c, 1, 41, 80
7, 21404, Note_off_c, 1, 34, 64
7, 21600, Note_off_c, 1, 41, 64
7, 21600, Note_on_c, 1, 39, 81
7, 21840, Note_on_c, 1, 46, 80
7, 21884, Note_off_c, 1, 39, 64
7, 22080, Note_off_c, 1, 46, 64
7, 22080, Note_on_c, 1, 39, 82
7, 22228, Note_off_c, 1, 39, 64
7, 22248, Note_on_c, 1, 39, 94
7, 22300, Note_off_c, 1, 39, 64
7, 22320, Note_on_c, 1, 43, 75
7, 22560, Note_off_c, 1, 43, 64
7, 22560, Note_on_c, 1, 44, 87
7, 22688, Note_off_c, 1, 44, 64
7, 22732, Note_on_c, 1, 44, 80
7, 22800, Note_on_c, 1, 51, 73
7, 22802, Note_off_c, 1, 44, 64
7, 23040, Note_off_c, 1, 51, 64
7, 23040, Note_on_c, 1, 38, 87
7, 23168, Note_off_c, 1, 38, 64
7, 23212, Note_on_c, 1, 38, 80
7, 23280, Note_on_c, 1, 45, 73
7, 23282, Note_off_c, 1, 38, 64
7, 23520, Note_off_c, 1, 45, 64
7, 23520, Note_on_c, 1, 43, 98
7, 23688, Note_on_c, 1, 31, 91
7, 23702, Note_off_c, 1, 43, 64
7, 23750, Note_off_c, 1, 31, 64
7, 23760, Note_on_c, 1, 43, 100
7, 23998, Note_off_c, 1, 43, 64
7, 24000, Note_on_c, 1, 43, 87
7, 24128, Note_off_c, 1, 43, 64
7, 24172, Note_on_c, 1, 43, 80
7, 24240, Note_on_c, 1, 50, 73
7, 24242, Note_off_c, 1, 43, 64
7, 24480, Note_off_c, 1, 50, 64
7, 24480, Note_on_c, 1, 36, 87
7, 24648, Note_on_c, 1, 24, 64
7, 24696, Note_off_c, 1, 36, 64
7, 24712, Note_off_c, 1, 24, 64
7, 24720, Note_on_c, 1, 42, 87
7, 24960, Note_off_c, 1, 42, 64
7, 24960, Note_on_c, 1, 41, 82
7, 25440, Note_off_c, 1, 41, 64
7, 25440, Note_on_c, 1, 34, 80
7, 25828, Note_off_c, 1, 34, 64
7, 25846, Note_on_c, 1, 32, 81
7, 25920, Note_off_c, 1, 32, 64
7, 25920, Note_on_c, 1, 33, 70
7, 26400, Note_off_c, 1, 33, 64
7, 26400, Note_on_c, 1, 38, 70
7, 26880, Note_off_c, 1, 38, 64
7, 26880, Note_on_c, 1, 43, 82
7, 27360, Note_on_c, 1, 50, 85
7, 27378, Note_off_c, 1, 43, 64
7, 27760, Note_off_c, 1, 50, 64
7, 27760, Note_on_c, 1, 43, 82
7, 27804, Note_off_c, 1, 43, 64
7, 27840, Note_on_c, 1, 34, 73
7, 28248, Note_off_c, 1, 34, 64
7, 28248, Note_on_c, 1, 41, 68
7, 28320, Note_off_c, 1, 41, 64
7, 28320, Note_on_c, 1, 39, 70
7, 28560, Note_off_c, 1, 39, 64
7, 28560, Note_on_c, 1, 36, 70
7, 28800, Note_off_c, 1, 36, 64
7, 28800, Note_on_c, 1, 41, 70
7, 29280, Note_off_c, 1, 41, 64
7, 29280, Note_on_c, 1, 34, 70
7, 29520, Note_off_c, 1, 34, 64
7, 29520, Note_on_c, 1, 39, 70
7, 29760, Note_off_c, 1, 39, 64
7, 29760, Note_on_c, 1, 44, 80
7, 30148, Note_off_c, 1, 44, 64
7, 30166, Note_on_c, 1, 36, 81
7, 30240, Note_off_c, 1, 36, 64
7, 30240, Note_on_c, 1, 37, 70
7, 30480, Note_off_c, 1, 37, 64
7, 30480, Note_on_c, 1, 42, 68
7, 30648, Note_off_c, 1, 42, 64
7, 30648, Note_on_c, 1, 30, 73
7, 30690, Note_off_c, 1, 30, 64
7, 30722, Note_on_c, 1, 55, 78
7, 31130, Note_off_c, 1, 55, 64
7, 31130, Note_on_c, 1, 50, 68
7, 31182, Note_off_c, 1, 50, 64
7, 31200, Note_on_c, 1, 36, 70
7, 31680, Note_off_c, 1, 36, 64
7, 31680, Note_on_c, 1, 41, 80
7, 32068, Note_off_c, 1, 41, 64
7, 32086, Note_on_c, 1, 35, 81
7, 32160, Note_off_c, 1, 35, 64
7, 32160, Note_on_c, 1, 36, 73
7, 32568, Note_off_c, 1, 36, 64
7, 32568, Note_on_c, 1, 43, 68
7, 32640, Note_off_c, 1, 43, 64
7, 32640, Note_on_c, 1, 41, 93
7, 32880, Note_off_c, 1, 41, 64
7, 32880, Note_on_c, 1, 41, 100
7, 33120, Note_off_c, 1, 41, 64
7, 33120, Note_on_c, 1, 34, 98
7, 33288, Note_on_c, 1, 22, 91
7, 33302, Note_off_c, 1, 34, 64
7, 33350, Note_off_c, 1, 22, 64
7, 33360, Note_on_c, 1, 34, 100
7, 33598, Note_off_c, 1, 34, 64
7, 33600, Note_on_c, 1, 33, 93
7, 33840, Note_off_c, 1, 33, 64
7, 33840, Note_on_c, 1, 33, 100
7, 34080, Note_off_c, 1, 33, 64
7, 34080, Note_on_c, 1, 50, 78
7, 34320, Note_on_c, 1, 45, 77
7, 34350, Note_off_c, 1, 50, 64
7, 34560, Note_off_c, 1, 45, 64
7, 34560, Note_on_c, 1, 43, 94
7, 34726, Note_on_c, 1, 38, 45
7, 34746, Note_off_c, 1, 43, 64
7, 34788, Note_off_c, 1, 38, 64
7, 34800, Note_on_c, 1, 50, 77
7, 35010, Note_off_c, 1, 50, 64
7, 35040, Note_on_c, 1, 46, 85
7, 35280, Note_off_c, 1, 46, 64
7, 35280, Note_on_c, 1, 43, 87
7, 35382, Note_off_c, 1, 43, 64
7, 35446, Note_on_c, 1, 38, 65
7, 35508, Note_off_c, 1, 38, 64
7, 35520, Note_on_c, 1, 34, 98
7, 35688, Note_on_c, 1, 22, 91
7, 35702, Note_off_c, 1, 34, 64
7, 35750, Note_off_c, 1, 22, 64
7, 35760, Note_on_c, 1, 34, 100
7, 35998, Note_off_c, 1, 34, 64
7, 36000, Note_on_c, 1, 39, 70
7, 36240, Note_off_c, 1, 39, 64
7, 36240, Note_on_c, 1, 36, 70
7, 36480, Note_off_c, 1, 36, 64
7, 36480, Note_on_c, 1, 41, 87
7, 36608, Note_off_c, 1, 41, 64
7, 36652, Note_on_c, 1, 41, 80
7, 36720, Note_on_c, 1, 48, 73
7, 36722, Note_off_c, 1, 41, 64
7, 36960, Note_off_c, 1, 48, 64
7, 36960, Note_on_c, 1, 34, 72
7, 37140, Note_off_c, 1, 34, 64
7, 37140, Note_on_c, 1, 22, 69
7, 37156, Note_off_c, 1, 22, 64
7, 37200, Note_on_c, 1, 39, 70
7, 37440, Note_off_c, 1, 39, 64
7, 37440, Note_on_c, 1, 44, 82
7, 37588, Note_off_c, 1, 44, 64
7, 37608, Note_on_c, 1, 44, 94
7, 37660, Note_off_c, 1, 44, 64
7, 37680, Note_on_c, 1, 36, 75
7, 37920, Note_off_c, 1, 36, 64
7, 37920, Note_on_c, 1, 37, 72
7, 38100, Note_off_c, 1, 37, 64
7, 38100, Note_on_c, 1, 25, 69
7, 38116, Note_off_c, 1, 25, 64
7, 38160, Note_on_c, 1, 42, 70
7, 38400, Note_off_c, 1, 42, 64
7, 38400, Note_on_c, 1, 43, 87
7, 38568, Note_on_c, 1, 31, 64
7, 38616, Note_off_c, 1, 43, 64
7, 38632, Note_off_c, 1, 31, 64
7, 38640, Note_on_c, 1, 38, 87
7, 38880, Note_off_c, 1, 38, 64
7, 38880, Note_on_c, 1, 49, 78
7, 39120, Note_on_c, 1, 44, 77
7, 39150, Note_off_c, 1, 49, 64
7, 39360, Note_off_c, 1, 44, 64
7, 39360, Note_on_c, 1, 36, 86
7, 39588, Note_off_c, 1, 36, 64
7, 39600, Note_on_c, 1, 35, 80
7, 39840, Note_off_c, 1, 35, 64
7, 39840, Note_on_c, 1, 36, 87
7, 40008, Note_on_c, 1, 24, 64
7, 40056, Note_off_c, 1, 36, 64
7, 40072, Note_off_c, 1, 24, 64
7, 40080, Note_on_c, 1, 42, 87
7, 40320, Note_off_c, 1, 42, 64
7, 40320, Note_on_c, 1, 41, 93
7, 40560, Note_off_c, 1, 41, 64
7, 40560, Note_on_c, 1, 41, 100
7, 40800, Note_off_c, 1, 41, 64
7, 40800, Note_on_c, 1, 34, 81
7, 41040, Note_on_c, 1, 41, 80
7, 41084, Note_off_c, 1, 34, 64
7, 41280, Note_off_c, 1, 41, 64
7, 41280, Note_on_c, 1, 45, 78
7, 41520, Note_on_c, 1, 39, 77
7, 41550, Note_off_c, 1, 45, 64
7, 41760, Note_off_c, 1, 39, 64
7, 41760, Note_on_c, 1, 38, 91
7, 42000, Note_on_c, 1, 42, 88
7, 42030, Note_off_c, 1, 38, 64
7, 42218, Note_off_c, 1, 42, 64
7, 42240, Note_on_c, 1, 43, 102
7, 42378, Note_off_c, 1, 43, 64
7, 42408, Note_on_c, 1, 31, 110
7, 42454, Note_off_c, 1, 31, 64
7, 42480, Note_on_c, 1, 45, 102
7, 42698, Note_off_c, 1, 45, 64
7, 42720, Note_on_c, 1, 46, 82
7, 42944, Note_off_c, 1, 46, 64
7, 42960, Note_on_c, 1, 50, 95
7, 43126, Note_off_c, 1, 50, 64
7, 43128, Note_on_c, 1, 43, 100
7, 43200, Note_off_c, 1, 43, 64
7, 43200, Note_on_c, 1, 34, 81
7, 43440, Note_on_c, 1, 41, 80
7, 43484, Note_off_c, 1, 34, 64
7, 43680, Note_off_c, 1, 41, 64
7, 43680, Note_on_c, 1, 39, 70
7, 43920, Note_off_c, 1, 39, 64
7, 43920, Note_on_c, 1, 36, 72
7, 44100, Note_off_c, 1, 36, 64
7, 44100, Note_on_c, 1, 24, 69
7, 44116, Note_off_c, 1, 24, 64
7, 44160, Note_on_c, 1, 41, 87
7, 44288, Note_off_c, 1, 41, 64
7, 44332, Note_on_c, 1, 41, 80
7, 44400, Note_on_c, 1, 48, 73
7, 44402, Note_off_c, 1, 41, 64
7, 44640, Note_off_c, 1, 48, 64
7, 44640, Note_on_c, 1, 34, 72
7, 44820, Note_off_c, 1, 34, 64
7, 44820, Note_on_c, 1, 22, 69
7, 44836, Note_off_c, 1, 22, 64
7, 44880, Note_on_c, 1, 39, 70
7, 45120, Note_off_c, 1, 39, 64
7, 45120, Note_on_c, 1, 44, 86
7, 45348, Note_off_c, 1, 44, 64
7, 45360, Note_on_c, 1, 36, 80
7, 45600, Note_off_c, 1, 36, 64
7, 45600, Note_on_c, 1, 37, 70
7, 45840, Note_off_c, 1, 37, 64
7, 45840, Note_on_c, 1, 42, 72
7, 46020, Note_off_c, 1, 42, 64
7, 46020, Note_on_c, 1, 30, 69
7, 46036, Note_off_c, 1, 30, 64
7, 46080, Note_on_c, 1, 43, 87
7, 46208, Note_off_c, 1, 43, 64
7, 46252, Note_on_c, 1, 43, 80
7, 46320, Note_on_c, 1, 50, 73
7, 46322, Note_off_c, 1, 43, 64
7, 46560, Note_off_c, 1, 50, 64
7, 46560, Note_on_c, 1, 49, 78
7, 46800, Note_on_c, 1, 44, 77
7, 46830, Note_off_c, 1, 49, 64
7, 47040, Note_off_c, 1, 44, 64
7, 47040, Note_on_c, 1, 43, 81
7, 47280, Note_on_c, 1, 50, 80
7, 47324, Note_off_c, 1, 43, 64
7, 47520, Note_off_c, 1, 50, 64
7, 47520, Note_on_c, 1, 39, 82
7, 47668, Note_off_c, 1, 39, 64
7, 47688, Note_on_c, 1, 39, 94
7, 47740, Note_off_c, 1, 39, 64
7, 47760, Note_on_c, 1, 43, 75
7, 48000, Note_off_c, 1, 43, 64
7, 48000, Note_on_c, 1, 44, 78
7, 48240, Note_on_c, 1, 46, 80
7, 48280, Note_off_c, 1, 44, 64
7, 48480, Note_on_c, 1, 48, 75
7, 48502, Note_off_c, 1, 46, 64
7, 48720, Note_on_c, 1, 51, 76
7, 48760, Note_off_c, 1, 48, 64
7, 48960, Note_off_c, 1, 51, 64
7, 48960, Note_on_c, 1, 43, 98
7, 49200, Note_off_c, 1, 43, 64
7, 49200, Note_on_c, 1, 37, 105
7, 49440, Note_off_c, 1, 37, 64
7, 49440, Note_on_c, 1, 36, 86
7, 49668, Note_off_c, 1, 36, 64
7, 49680, Note_on_c, 1, 40, 80
7, 49920, Note_off_c, 1, 40, 64
7, 49920, Note_on_c, 1, 41, 92
7, 50084, Note_off_c, 1, 41, 64
7, 50086, Note_on_c, 1, 33, 59
7, 50140, Note_off_c, 1, 33, 64
7, 50160, Note_on_c, 1, 39, 86
7, 50356, Note_off_c, 1, 39, 64
7, 50400, Note_on_c, 1, 38, 77
7, 50658, Note_off_c, 1, 38, 64
7, 50658, Note_on_c, 1, 36, 86
7, 50824, Note_off_c, 1, 36, 64
7, 50880, Note_on_c, 1, 34, 78
7, 51120, Note_on_c, 1, 36, 80
7, 51160, Note_off_c, 1, 34, 64
7, 51360, Note_on_c, 1, 38, 75
7, 51382, Note_off_c, 1, 36, 64
7, 51600, Note_on_c, 1, 41, 76
7, 51640, Note_off_c, 1, 38, 64
7, 51840, Note_off_c, 1, 41, 64
7, 51840, Note_on_c, 1, 34, 87
7, 51968, Note_off_c, 1, 34, 64
7, 52012, Note_on_c, 1, 34, 80
7, 52080, Note_on_c, 1, 41, 73
7, 52082, Note_off_c, 1, 34, 64
7, 52320, Note_off_c, 1, 41, 64
7, 52320, Note_on_c, 1, 39, 93
7, 52560, Note_off_c, 1, 39, 64
7, 52560, Note_on_c, 1, 39, 100
7, 52800, Note_off_c, 1, 39, 64
7, 52800, Note_on_c, 1, 39, 82
7, 52948, Note_off_c, 1, 39, 64
7, 52968, Note_on_c, 1, 39, 94
7, 53020, Note_off_c, 1, 39, 64
7, 53040, Note_on_c, 1, 43, 75
7, 53280, Note_off_c, 1, 43, 64
7, 53280, Note_on_c, 1, 44, 82
7, 53428, Note_off_c, 1, 44, 64
7, 53448, Note_on_c, 1, 44, 94
7, 53500, Note_off_c, 1, 44, 64
7, 53520, Note_on_c, 1, 37, 75
7, 53760, Note_off_c, 1, 37, 64
7, 53760, Note_on_c, 1, 38, 91
7, 54000, Note_on_c, 1, 41, 88
7, 54030, Note_off_c, 1, 38, 64
7, 54218, Note_off_c, 1, 41, 64
7, 54240, Note_on_c, 1, 43, 81
7, 54480, Note_on_c, 1, 50, 80
7, 54524, Note_off_c, 1, 43, 64
7, 54720, Note_off_c, 1, 50, 64
7, 54720, Note_on_c, 1, 43, 86
7, 54888, Note_on_c, 1, 38, 62
7, 54928, Note_off_c, 1, 38, 64
7, 54950, Note_off_c, 1, 43, 64
7, 54972, Note_on_c, 1, 50, 79
7, 55118, Note_on_c, 1, 38, 64
7, 55130, Note_off_c, 1, 50, 64
7, 55152, Note_off_c, 1, 38, 64
7, 55200, Note_on_c, 1, 36, 91
7, 55440, Note_on_c, 1, 40, 88
7, 55470, Note_off_c, 1, 36, 64
7, 55658, Note_off_c, 1, 40, 64
7, 55680, Note_on_c, 1, 41, 98
7, 55848, Note_on_c, 1, 29, 91
7, 55862, Note_off_c, 1, 41, 64
7, 55910, Note_off_c, 1, 29, 64
7, 55920, Note_on_c, 1, 41, 100
7, 56158, Note_off_c, 1, 41, 64
7, 56160, Note_on_c, 1, 34, 86
7, 56328, Note_on_c, 1, 29, 62
7, 56368, Note_off_c, 1, 29, 64
7, 56390, Note_off_c, 1, 34, 64
7, 56412, Note_on_c, 1, 41, 79
7, 56558, Note_on_c, 1, 29, 64
7, 56570, Note_off_c, 1, 41, 64
7, 56592, Note_off_c, 1, 29, 64
7, 56640, Note_on_c, 1, 45, 78
7, 56880, Note_on_c, 1, 39, 77
7, 56910, Note_off_c, 1, 45, 64
7, 57120, Note_off_c, 1, 39, 64
7, 57120, Note_on_c, 1, 38, 87
7, 57248, Note_off_c, 1, 38, 64
7, 57292, Note_on_c, 1, 38, 80
7, 57360, Note_on_c, 1, 45, 73
7, 57362, Note_off_c, 1, 38, 64
7, 57600, Note_off_c, 1, 45, 64
7, 57600, Note_on_c, 1, 43, 85
7, 57766, Note_on_c, 1, 38, 64
7, 57784, Note_off_c, 1, 43, 64
7, 57804, Note_off_c, 1, 38, 64
7, 57840, Note_on_c, 1, 45, 83
7, 58078, Note_off_c, 1, 45, 64
7, 58080, Note_on_c, 1, 46, 90
7, 58236, Note_off_c, 1, 46, 64
7, 58246, Note_on_c, 1, 38, 68
7, 58282, Note_off_c, 1, 38, 64
7, 58320, Note_on_c, 1, 50, 92
7, 58480, Note_off_c, 1, 50, 64
7, 58486, Note_on_c, 1, 38, 61
7, 58506, Note_off_c, 1, 38, 64
7, 58560, Note_on_c, 1, 34, 82
7, 58708, Note_off_c, 1, 34, 64
7, 58728, Note_on_c, 1, 34, 94
7, 58780, Note_off_c, 1, 34, 64
7, 58800, Note_on_c, 1, 38, 75
7, 59040, Note_off_c, 1, 38, 64
7, 59040, Note_on_c, 1, 39, 72
7, 59220, Note_off_c, 1, 39, 64
7, 59220, Note_on_c, 1, 27, 69
7, 59236, Note_off_c, 1, 27, 64
7, 59280, Note_on_c, 1, 36, 72
7, 59460, Note_off_c, 1, 36, 64
7, 59460, Note_on_c, 1, 24, 69
7, 59476, Note_off_c, 1, 24, 64
7, 59520, Note_on_c, 1, 41, 81
7, 59760, Note_on_c, 1, 48, 80
7, 59804, Note_off_c, 1, 41, 64
7, 60000, Note_off_c, 1, 48, 64
7, 60000, Note_on_c, 1, 34, 72
7, 60180, Note_off_c, 1, 34, 64
7, 60180, Note_on_c, 1, 22, 69
7, 60196, Note_off_c, 1, 22, 64
7, 60240, Note_on_c, 1, 39, 72
7, 60420, Note_off_c, 1, 39, 64
7, 60420, Note_on_c, 1, 27, 69
7, 60436, Note_off_c, 1, 27, 64
7, 60480, Note_on_c, 1, 44, 81
7, 60720, Note_on_c, 1, 51, 80
7, 60764, Note_off_c, 1, 44, 64
7, 60960, Note_off_c, 1, 51, 64
7, 60960, Note_on_c, 1, 37, 72
7, 61140, Note_off_c, 1, 37, 64
7, 61140, Note_on_c, 1, 25, 69
7, 61156, Note_off_c, 1, 25, 64
7, 61200, Note_on_c, 1, 42, 70
7, 61440, Note_off_c, 1, 42, 64
7, 61440, Note_on_c, 1, 43, 81
7, 61680, Note_on_c, 1, 50, 80
7, 61724, Note_off_c, 1, 43, 64
7, 61920, Note_off_c, 1, 50, 64
7, 61920, Note_on_c, 1, 36, 98
7, 62088, Note_on_c, 1, 24, 91
7, 62102, Note_off_c, 1, 36, 64
7, 62150, Note_off_c, 1, 24, 64
7, 62160, Note_on_c, 1, 36, 100
7, 62398, Note_off_c, 1, 36, 64
7, 62400, Note_on_c, 1, 41, 81
7, 62640, Note_on_c, 1, 48, 80
7, 62684, Note_off_c, 1, 41, 64
7, 62880, Note_off_c, 1, 48, 64
7, 62880, Note_on_c, 1, 36, 82
7, 63028, Note_off_c, 1, 36, 64
7, 63048, Note_on_c, 1, 36, 94
7, 63100, Note_off_c, 1, 36, 64
7, 63120, Note_on_c, 1, 40, 75
7, 63360, Note_off_c, 1, 40, 64
7, 63360, Note_on_c, 1, 41, 70
7, 63840, Note_off_c, 1, 41, 64
7, 63840, Note_on_c, 1, 34, 85
7, 64240, Note_off_c, 1, 34, 64
7, 64240, Note_on_c, 1, 22, 55
7, 64278, Note_off_c, 1, 22, 64
7, 64320, Note_on_c, 1, 33, 70
7, 64800, Note_off_c, 1, 33, 64
7, 64800, Note_on_c, 1, 38, 70
7, 65280, Note_off_c, 1, 38, 64
7, 65288, Note_on_c, 1, 43, 85
7, 65768, Note_off_c, 1, 43, 64
7, 65772, Note_on_c, 1, 38, 85
7, 66144, Note_off_c, 1, 38, 64
7, 66150, Note_on_c, 1, 35, 80
7, 66238, Note_off_c, 1, 35, 64
7, 66240, Note_on_c, 1, 34, 73
7, 66648, Note_off_c, 1, 34, 64
7, 66648, Note_on_c, 1, 41, 68
7, 66720, Note_off_c, 1, 41, 64
7, 66720, Note_on_c, 1, 39, 70
7, 66960, Note_off_c, 1, 39, 64
7, 66960, Note_on_c, 1, 36, 70
7, 67200, Note_off_c, 1, 36, 64
7, 67200, Note_on_c, 1, 41, 82
7, 67680, Note_off_c, 1, 41, 64
7, 67680, Note_on_c, 1, 34, 70
7, 67920, Note_off_c, 1, 34, 64
7, 67920, Note_on_c, 1, 39, 70
7, 68160, Note_off_c, 1, 39, 64
7, 68160, Note_on_c, 1, 44, 82
7, 68640, Note_off_c, 1, 44, 64
7, 68640, Note_on_c, 1, 37, 68
7, 68808, Note_off_c, 1, 37, 64
7, 68808, Note_on_c, 1, 25, 73
7, 68850, Note_off_c, 1, 25, 64
7, 68880, Note_on_c, 1, 42, 70
7, 69120, Note_off_c, 1, 42, 64
7, 69120, Note_on_c, 1, 43, 80
7, 69508, Note_off_c, 1, 43, 64
7, 69526, Note_on_c, 1, 36, 81
7, 69600, Note_off_c, 1, 36, 64
7, 69600, Note_on_c, 1, 37, 80
7, 69988, Note_off_c, 1, 37, 64
7, 70006, Note_on_c, 1, 35, 81
7, 70080, Note_off_c, 1, 35, 64
7, 70080, Note_on_c, 1, 36, 70
7, 70560, Note_off_c, 1, 36, 64
7, 70560, Note_on_c, 1, 36, 82
7, 71040, Note_off_c, 1, 36, 64
7, 71040, Note_on_c, 1, 41, 82
7, 71520, Note_off_c, 1, 41, 64
7, 71520, Note_on_c, 1, 34, 82
7, 72000, Note_off_c, 1, 34, 64
7, 72000, Note_on_c, 1, 33, 82
7, 72480, Note_off_c, 1, 33, 64
7, 72480, Note_on_c, 1, 38, 85
7, 72880, Note_off_c, 1, 38, 64
7, 72880, Note_on_c, 1, 26, 55
7, 72918, Note_off_c, 1, 26, 64
7, 72960, Note_on_c, 1, 43, 89
7, 73454, Note_off_c, 1, 43, 64
7, 73454, Note_on_c, 1, 38, 82
7, 73876, Note_off_c, 1, 38, 64
7, 73920, Note_on_c, 1, 34, 85
7, 74320, Note_off_c, 1, 34, 64
7, 74320, Note_on_c, 1, 22, 55
7, 74358, Note_off_c, 1, 22, 64
7, 74400, Note_on_c, 1, 39, 68
7, 74568, Note_off_c, 1, 39, 64
7, 74568, Note_on_c, 1, 27, 73
7, 74610, Note_off_c, 1, 27, 64
7, 74640, Note_on_c, 1, 36, 70
7, 74880, Note_off_c, 1, 36, 64
7, 74880, Note_on_c, 1, 41, 85
7, 75280, Note_off_c, 1, 41, 64
7, 75280, Note_on_c, 1, 29, 55
7, 75318, Note_off_c, 1, 29, 64
7, 75360, Note_on_c, 1, 34, 70
7, 75600, Note_off_c, 1, 34, 64
7, 75600, Note_on_c, 1, 39, 70
7, 75840, Note_off_c, 1, 39, 64
7, 75840, Note_on_c, 1, 44, 85
7, 76240, Note_off_c, 1, 44, 64
7, 76240, Note_on_c, 1, 32, 55
7, 76278, Note_off_c, 1, 32, 64
7, 76320, Note_on_c, 1, 37, 68
7, 76488, Note_off_c, 1, 37, 64
7, 76488, Note_on_c, 1, 25, 73
7, 76530, Note_off_c, 1, 25, 64
7, 76560, Note_on_c, 1, 42, 70
7, 76800, Note_off_c, 1, 42, 64
7, 76802, Note_on_c, 1, 55, 78
7, 77210, Note_off_c, 1, 55, 64
7, 77210, Note_on_c, 1, 50, 68
7, 77262, Note_off_c, 1, 50, 64
7, 77280, Note_on_c, 1, 37, 85
7, 77600, Note_on_c, 1, 25, 27
7, 77620, Note_off_c, 1, 37, 64
7, 77654, Note_off_c, 1, 25, 64
7, 77680, Note_on_c, 1, 37, 82
7, 77724, Note_off_c, 1, 37, 64
7, 77760, Note_on_c, 1, 43, 82
7, 78240, Note_off_c, 1, 43, 64
7, 78240, Note_on_c, 1, 39, 80
7, 78628, Note_off_c, 1, 39, 64
7, 78646, Note_on_c, 1, 43, 81
7, 78720, Note_off_c, 1, 43, 64
7, 78720, Note_on_c, 1, 44, 78
7, 78960, Note_on_c, 1, 46, 80
7, 79000, Note_off_c, 1, 44, 64
7, 79200, Note_on_c, 1, 48, 75
7, 79222, Note_off_c, 1, 46, 64
7, 79440, Note_on_c, 1, 51, 76
7, 79480, Note_off_c, 1, 48, 64
7, 79680, Note_off_c, 1, 51, 64
7, 79680, Note_on_c, 1, 43, 98
7, 79848, Note_on_c, 1, 31, 91
7, 79862, Note_off_c, 1, 43, 64
7, 79910, Note_off_c, 1, 31, 64
7, 79920, Note_on_c, 1, 43, 100
7, 80158, Note_off_c, 1, 43, 64
7, 80160, Note_on_c, 1, 36, 93
7, 80400, Note_off_c, 1, 36, 64
7, 80400, Note_on_c, 1, 36, 100
7, 80640, Note_off_c, 1, 36, 64
7, 80640, Note_on_c, 1, 41, 94
7, 80806, Note_on_c, 1, 36, 45
7, 80826, Note_off_c, 1, 41, 64
7, 80868, Note_off_c, 1, 36, 64
7, 80880, Note_on_c, 1, 48, 77
7, 81090, Note_off_c, 1, 48, 64
7, 81120, Note_on_c, 1, 45, 85
7, 81360, Note_off_c, 1, 45, 64
7, 81360, Note_on_c, 1, 41, 87
7, 81462, Note_off_c, 1, 41, 64
7, 81526, Note_on_c, 1, 36, 65
7, 81588, Note_off_c, 1, 36, 64
7, 81600, Note_on_c, 1, 34, 78
7, 81840, Note_on_c, 1, 36, 80
7, 81880, Note_off_c, 1, 34, 64
7, 82080, Note_on_c, 1, 38, 75
7, 82102, Note_off_c, 1, 36, 64
7, 82320, Note_on_c, 1, 41, 76
7, 82360, Note_off_c, 1, 38, 64
7, 82560, Note_off_c, 1, 41, 64
7, 82560, Note_on_c, 1, 34, 98
7, 82728, Note_on_c, 1, 22, 91
7, 82742, Note_off_c, 1, 34, 64
7, 82790, Note_off_c, 1, 22, 64
7, 82800, Note_on_c, 1, 34, 100
7, 83038, Note_off_c, 1, 34, 64
7, 83040, Note_on_c, 1, 39, 87
7, 83208, Note_on_c, 1, 27, 64
7, 83256, Note_off_c, 1, 39, 64
7, 83272, Note_off_c, 1, 27, 64
7, 83280, Note_on_c, 1, 40, 87
7, 83520, Note_off_c, 1, 40, 64
7, 83520, Note_on_c, 1, 39, 98
7, 83688, Note_on_c, 1, 27, 91
7, 83702, Note_off_c, 1, 39, 64
7, 83750, Note_off_c, 1, 27, 64
7, 83760, Note_on_c, 1, 39, 100
7, 83998, Note_off_c, 1, 39, 64
7, 84000, Note_on_c, 1, 44, 86
7, 84168, Note_on_c, 1, 39, 62
7, 84208, Note_off_c, 1, 39, 64
7, 84230, Note_off_c, 1, 44, 64
7, 84252, Note_on_c, 1, 51, 79
7, 84398, Note_on_c, 1, 39, 64
7, 84410, Note_off_c, 1, 51, 64
7, 84432, Note_off_c, 1, 39, 64
7, 84480, Note_on_c, 1, 38, 82
7, 84628, Note_off_c, 1, 38, 64
7, 84648, Note_on_c, 1, 38, 94
7, 84700, Note_off_c, 1, 38, 64
7, 84720, Note_on_c, 1, 42, 75
7, 84960, Note_off_c, 1, 42, 64
7, 84960, Note_on_c, 1, 43, 87
7, 85088, Note_off_c, 1, 43, 64
7, 85132, Note_on_c, 1, 43, 80
7, 85200, Note_on_c, 1, 50, 73
7, 85202, Note_off_c, 1, 43, 64
7, 85440, Note_off_c, 1, 50, 64
7, 85440, Note_on_c, 1, 43, 87
7, 85568, Note_off_c, 1, 43, 64
7, 85612, Note_on_c, 1, 43, 80
7, 85680, Note_on_c, 1, 50, 73
7, 85682, Note_off_c, 1, 43, 64
7, 85920, Note_off_c, 1, 50, 64
7, 85920, Note_on_c, 1, 48, 78
7, 86160, Note_on_c, 1, 43, 77
7, 86190, Note_off_c, 1, 48, 64
7, 86400, Note_off_c, 1, 43, 64
7, 86400, Note_on_c, 1, 41, 85
7, 86800, Note_off_c, 1, 41, 64
7, 86800, Note_on_c, 1, 29, 55
7, 86838, Note_off_c, 1, 29, 64
7, 86880, Note_on_c, 1, 34, 70
7, 87360, Note_off_c, 1, 34, 64
7, 87360, Note_on_c, 1, 33, 73
7, 87768, Note_off_c, 1, 33, 64
7, 87768, Note_on_c, 1, 39, 68
7, 87840, Note_off_c, 1, 39, 64
7, 87840, Note_on_c, 1, 38, 73
7, 88248, Note_off_c, 1, 38, 64
7, 88248, Note_on_c, 1, 45, 68
7, 88320, Note_off_c, 1, 45, 64
7, 88320, Note_on_c, 1, 43, 89
7, 88814, Note_off_c, 1, 43, 64
7, 88814, Note_on_c, 1, 38, 82
7, 89236, Note_off_c, 1, 38, 64
7, 89280, Note_on_c, 1, 34, 85
7, 89680, Note_off_c, 1, 34, 64
7, 89680, Note_on_c, 1, 22, 55
7, 89718, Note_off_c, 1, 22, 64
7, 89760, Note_on_c, 1, 39, 70
7, 90000, Note_off_c, 1, 39, 64
7, 90000, Note_on_c, 1, 36, 70
7, 90240, Note_off_c, 1, 36, 64
7, 90240, Note_on_c, 1, 41, 85
7, 90640, Note_off_c, 1, 41, 64
7, 90640, Note_on_c, 1, 29, 55
7, 90678, Note_off_c, 1, 29, 64
7, 90720, Note_on_c, 1, 34, 70
7, 90960, Note_off_c, 1, 34, 64
7, 90960, Note_on_c, 1, 39, 70
7, 91200, Note_off_c, 1, 39, 64
7, 91200, Note_on_c, 1, 44, 70
7, 91680, Note_off_c, 1, 44, 64
7, 91680, Note_on_c, 1, 37, 68
7, 91848, Note_off_c, 1, 37, 64
7, 91848, Note_on_c, 1, 25, 73
7, 91890, Note_off_c, 1, 25, 64
7, 91920, Note_on_c, 1, 42, 70
7, 92160, Note_off_c, 1, 42, 64
7, 92160, Note_on_c, 1, 43, 82
7, 92640, Note_off_c, 1, 43, 64
7, 92640, Note_on_c, 1, 36, 82
7, 93120, Note_off_c, 1, 36, 64
7, 93120, Note_on_c, 1, 41, 82
7, 93600, Note_off_c, 1, 41, 64
7, 93600, Note_on_c, 1, 36, 85
7, 94000, Note_off_c, 1, 36, 64
7, 94000, Note_on_c, 1, 24, 55
7, 94038, Note_off_c, 1, 24, 64
7, 94080, Note_on_c, 1, 41, 88
7, 94320, Note_off_c, 1, 41, 64
7, 94320, Note_on_c, 1, 45, 90
7, 94560, Note_on_c, 1, 46, 90
7, 94606, Note_off_c, 1, 45, 64
7, 94800, Note_on_c, 1, 47, 97
7, 94834, Note_off_c, 1, 46, 64
7, 94996, Note_off_c, 1, 47, 64
7, 95040, Note_on_c, 1, 48, 88
7, 95164, Note_off_c, 1, 48, 64
7, 95440, Note_on_c, 1, 41, 95
7, 95996, Note_off_c, 1, 41, 64
7, 95996, End_track
8, 0, Start_track
8, 0, Title_t, "Piano / Rhodes"
8, 0, Program_c, 2, 4
8, 0, Control_c, 2, 7, 90
8, 0, Control_c, 2, 121, 0
8, 0, Control_c, 2, 10, 64
8, 0, Control_c, 2, 123, 0
8, 0, Control_c, 2, 91, 40
8, 0, Control_c, 2, 93, 0
8, 0, Control_c, 2, 64, 0
8, 2570, Note_on_c, 2, 72, 45
8, 2570, Note_on_c, 2, 62, 45
8, 2570, Note_on_c, 2, 65, 45
8, 2570, Note_on_c, 2, 68, 45
8, 2880, Note_off_c, 2, 68, 64
8, 2880, Note_off_c, 2, 65, 64
8, 2880, Note_off_c, 2, 62, 64
8, 2880, Note_off_c, 2, 72, 64
8, 3120, Note_on_c, 2, 67, 50
8, 3120, Note_on_c, 2, 63, 50
8, 3120, Note_on_c, 2, 60, 50
8, 3120, Note_on_c, 2, 69, 50
8, 3212, Note_off_c, 2, 69, 64
8, 3212, Note_off_c, 2, 60, 64
8, 3212, Note_off_c, 2, 63, 64
8, 3212, Note_off_c, 2, 67, 64
8, 3600, Note_on_c, 2, 66, 50
8, 3600, Note_on_c, 2, 62, 50
8, 3600, Note_on_c, 2, 60, 50
8, 3600, Note_on_c, 2, 69, 50
8, 3692, Note_off_c, 2, 69, 64
8, 3692, Note_off_c, 2, 60, 64
8, 3692, Note_off_c, 2, 62, 64
8, 3692, Note_off_c, 2, 66, 64
8, 4080, Note_on_c, 2, 70, 47
8, 4080, Note_on_c, 2, 67, 47
8, 4080, Note_on_c, 2, 65, 47
8, 4080, Note_on_c, 2, 74, 47
8, 4156, Note_off_c, 2, 74, 64
8, 4156, Note_off_c, 2, 65, 64
8, 4156, Note_off_c, 2, 67, 64
8, 4156, Note_off_c, 2, 70, 64
8, 4488, Note_on_c, 2, 70, 45
8, 4488, Note_on_c, 2, 67, 45
8, 4488, Note_on_c, 2, 65, 45
8, 4488, Note_on_c, 2, 74, 45
8, 4576, Note_off_c, 2, 74, 64
8, 4576, Note_off_c, 2, 65, 64
8, 4576, Note_off_c, 2, 67, 64
8, 4576, Note_off_c, 2, 70, 64
8, 4970, Note_on_c, 2, 68, 45
8, 4970, Note_on_c, 2, 65, 45
8, 4970, Note_on_c, 2, 61, 45
8, 4970, Note_on_c, 2, 70, 45
8, 5280, Note_off_c, 2, 70, 64
8, 5280, Note_off_c, 2, 61, 64
8, 5280, Note_off_c, 2, 65, 64
8, 5280, Note_off_c, 2, 68, 64
8, 5520, Note_on_c, 2, 67, 50
8, 5520, Note_on_c, 2, 52, 50
8, 5520, Note_on_c, 2, 62, 50
8, 5520, Note_on_c, 2, 58, 50
8, 5760, Note_off_c, 2, 58, 64
8, 5760, Note_off_c, 2, 62, 64
8, 5760, Note_off_c, 2, 52, 64
8, 5760, Note_off_c, 2, 67, 64
8, 6000, Note_on_c, 2, 67, 50
8, 6000, Note_on_c, 2, 63, 50
8, 6000, Note_on_c, 2, 60, 50
8, 6000, Note_on_c, 2, 69, 50
8, 6092, Note_off_c, 2, 69, 64
8, 6092, Note_off_c, 2, 60, 64
8, 6092, Note_off_c, 2, 63, 64
8, 6092, Note_off_c, 2, 67, 64
8, 6240, Note_on_c, 2, 56, 50
8, 6240, Note_on_c, 2, 72, 50
8, 6240, Note_on_c, 2, 62, 50
8, 6240, Note_on_c, 2, 67, 50
8, 6480, Note_off_c, 2, 67, 64
8, 6480, Note_off_c, 2, 62, 64
8, 6480, Note_off_c, 2, 72, 64
8, 6480, Note_off_c, 2, 56, 64
8, 6480, Note_on_c, 2, 72, 50
8, 6480, Note_on_c, 2, 55, 50
8, 6480, Note_on_c, 2, 65, 50
8, 6480, Note_on_c, 2, 61, 50
8, 6720, Note_off_c, 2, 61, 64
8, 6720, Note_off_c, 2, 65, 64
8, 6720, Note_off_c, 2, 55, 64
8, 6720, Note_off_c, 2, 72, 64
8, 6720, Note_on_c, 2, 54, 50
8, 6720, Note_on_c, 2, 70, 50
8, 6720, Note_on_c, 2, 60, 50
8, 6720, Note_on_c, 2, 65, 50
8, 7200, Note_off_c, 2, 65, 64
8, 7200, Note_off_c, 2, 60, 64
8, 7200, Note_off_c, 2, 70, 64
8, 7200, Note_off_c, 2, 54, 64
8, 7850, Note_on_c, 2, 70, 45
8, 7850, Note_on_c, 2, 67, 45
8, 7850, Note_on_c, 2, 65, 45
8, 7850, Note_on_c, 2, 74, 45
8, 8160, Note_off_c, 2, 74, 64
8, 8160, Note_off_c, 2, 65, 64
8, 8160, Note_off_c, 2, 67, 64
8, 8160, Note_off_c, 2, 70, 64
8, 8342, Note_on_c, 2, 65, 50
8, 8342, Note_on_c, 2, 63, 50
8, 8342, Note_on_c, 2, 59, 50
8, 8342, Note_on_c, 2, 68, 50
8, 8410, Note_off_c, 2, 68, 64
8, 8410, Note_off_c, 2, 59, 64
8, 8410, Note_off_c, 2, 63, 64
8, 8410, Note_off_c, 2, 65, 64
8, 8640, Note_on_c, 2, 58, 50
8, 8640, Note_on_c, 2, 62, 50
8, 8640, Note_on_c, 2, 52, 50
8, 8640, Note_on_c, 2, 69, 50
8, 9120, Note_off_c, 2, 69, 64
8, 9120, Note_off_c, 2, 52, 64
8, 9120, Note_off_c, 2, 62, 64
8, 9120, Note_off_c, 2, 58, 64
8, 9126, Note_on_c, 2, 75, 60
8, 9126, Note_on_c, 2, 55, 41
8, 9126, Note_on_c, 2, 63, 37
8, 9142, Note_on_c, 2, 58, 55
8, 9152, Note_on_c, 2, 64, 33
8, 9304, Note_on_c, 2, 67, 65
8, 9600, Note_off_c, 2, 67, 64
8, 9600, Note_off_c, 2, 64, 64
8, 9600, Note_off_c, 2, 58, 64
8, 9600, Note_off_c, 2, 63, 64
8, 9600, Note_off_c, 2, 55, 64
8, 9600, Note_off_c, 2, 75, 64
8, 9600, Note_on_c, 2, 52, 50
8, 9600, Note_on_c, 2, 55, 50
8, 9600, Note_on_c, 2, 57, 50
8, 9600, Note_on_c, 2, 60, 50
8, 10080, Note_off_c, 2, 60, 64
8, 10080, Note_off_c, 2, 57, 64
8, 10080, Note_off_c, 2, 55, 64
8, 10080, Note_off_c, 2, 52, 64
8, 10320, Note_on_c, 2, 68, 50
8, 10320, Note_on_c, 2, 65, 50
8, 10320, Note_on_c, 2, 62, 50
8, 10320, Note_on_c, 2, 72, 50
8, 10412, Note_off_c, 2, 72, 64
8, 10412, Note_off_c, 2, 62, 64
8, 10412, Note_off_c, 2, 65, 64
8, 10412, Note_off_c, 2, 68, 64
8, 10742, Note_on_c, 2, 67, 50
8, 10742, Note_on_c, 2, 63, 50
8, 10742, Note_on_c, 2, 60, 50
8, 10742, Note_on_c, 2, 69, 50
8, 10810, Note_off_c, 2, 69, 64
8, 10810, Note_off_c, 2, 60, 64
8, 10810, Note_off_c, 2, 63, 64
8, 10810, Note_off_c, 2, 67, 64
8, 11280, Note_on_c, 2, 66, 50
8, 11280, Note_on_c, 2, 62, 50
8, 11280, Note_on_c, 2, 60, 50
8, 11280, Note_on_c, 2, 69, 50
8, 11372, Note_off_c, 2, 69, 64
8, 11372, Note_off_c, 2, 60, 64
8, 11372, Note_off_c, 2, 62, 64
8, 11372, Note_off_c, 2, 66, 64
8, 11760, Note_on_c, 2, 65, 46
8, 11760, Note_on_c, 2, 62, 46
8, 11760, Note_on_c, 2, 58, 46
8, 11760, Note_on_c, 2, 67, 46
8, 11836, Note_off_c, 2, 67, 64
8, 11836, Note_off_c, 2, 58, 64
8, 11836, Note_off_c, 2, 62, 64
8, 11836, Note_off_c, 2, 65, 64
8, 12240, Note_on_c, 2, 65, 49
8, 12240, Note_on_c, 2, 62, 49
8, 12240, Note_on_c, 2, 58, 49
8, 12240, Note_on_c, 2, 67, 49
8, 12328, Note_off_c, 2, 67, 64
8, 12328, Note_off_c, 2, 58, 64
8, 12328, Note_off_c, 2, 62, 64
8, 12328, Note_off_c, 2, 65, 64
8, 12650, Note_on_c, 2, 68, 45
8, 12650, Note_on_c, 2, 65, 45
8, 12650, Note_on_c, 2, 61, 45
8, 12650, Note_on_c, 2, 70, 45
8, 12960, Note_off_c, 2, 70, 64
8, 12960, Note_off_c, 2, 61, 64
8, 12960, Note_off_c, 2, 65, 64
8, 12960, Note_off_c, 2, 68, 64
8, 12960, Note_on_c, 2, 61, 50
8, 12960, Note_on_c, 2, 65, 50
8, 12960, Note_on_c, 2, 55, 50
8, 12960, Note_on_c, 2, 58, 50
8, 13200, Note_off_c, 2, 58, 64
8, 13200, Note_off_c, 2, 55, 64
8, 13200, Note_off_c, 2, 65, 64
8, 13200, Note_off_c, 2, 61, 64
8, 13680, Note_on_c, 2, 67, 50
8, 13680, Note_on_c, 2, 63, 50
8, 13680, Note_on_c, 2, 60, 50
8, 13680, Note_on_c, 2, 69, 50
8, 13772, Note_off_c, 2, 69, 64
8, 13772, Note_off_c, 2, 60, 64
8, 13772, Note_off_c, 2, 63, 64
8, 13772, Note_off_c, 2, 67, 64
8, 13920, Note_on_c, 2, 56, 50
8, 13920, Note_on_c, 2, 72, 50
8, 13920, Note_on_c, 2, 62, 50
8, 13920, Note_on_c, 2, 67, 50
8, 14160, Note_off_c, 2, 67, 64
8, 14160, Note_off_c, 2, 62, 64
8, 14160, Note_off_c, 2, 72, 64
8, 14160, Note_off_c, 2, 56, 64
8, 14160, Note_on_c, 2, 72, 50
8, 14160, Note_on_c, 2, 55, 50
8, 14160, Note_on_c, 2, 65, 50
8, 14160, Note_on_c, 2, 61, 50
8, 14400, Note_off_c, 2, 61, 64
8, 14400, Note_off_c, 2, 65, 64
8, 14400, Note_off_c, 2, 55, 64
8, 14400, Note_off_c, 2, 72, 64
8, 14640, Note_on_c, 2, 66, 50
8, 14640, Note_on_c, 2, 63, 50
8, 14640, Note_on_c, 2, 60, 50
8, 14640, Note_on_c, 2, 70, 50
8, 14732, Note_off_c, 2, 70, 64
8, 14732, Note_off_c, 2, 60, 64
8, 14732, Note_off_c, 2, 63, 64
8, 14732, Note_off_c, 2, 66, 64
8, 15530, Note_on_c, 2, 65, 45
8, 15530, Note_on_c, 2, 62, 45
8, 15530, Note_on_c, 2, 58, 45
8, 15530, Note_on_c, 2, 67, 45
8, 15840, Note_off_c, 2, 67, 64
8, 15840, Note_off_c, 2, 58, 64
8, 15840, Note_off_c, 2, 62, 64
8, 15840, Note_off_c, 2, 65, 64
8, 16080, Note_on_c, 2, 65, 50
8, 16080, Note_on_c, 2, 63, 50
8, 16080, Note_on_c, 2, 59, 50
8, 16080, Note_on_c, 2, 68, 50
8, 16172, Note_off_c, 2, 68, 64
8, 16172, Note_off_c, 2, 59, 64
8, 16172, Note_off_c, 2, 63, 64
8, 16172, Note_off_c, 2, 65, 64
8, 16490, Note_on_c, 2, 65, 45
8, 16490, Note_on_c, 2, 62, 45
8, 16490, Note_on_c, 2, 58, 45
8, 16490, Note_on_c, 2, 67, 45
8, 16800, Note_off_c, 2, 67, 64
8, 16800, Note_off_c, 2, 58, 64
8, 16800, Note_off_c, 2, 62, 64
8, 16800, Note_off_c, 2, 65, 64
8, 17040, Note_on_c, 2, 65, 50
8, 17040, Note_on_c, 2, 61, 50
8, 17040, Note_on_c, 2, 58, 50
8, 17040, Note_on_c, 2, 67, 50
8, 17132, Note_off_c, 2, 67, 64
8, 17132, Note_off_c, 2, 58, 64
8, 17132, Note_off_c, 2, 61, 64
8, 17132, Note_off_c, 2, 65, 64
8, 17520, Note_on_c, 2, 67, 47
8, 17520, Note_on_c, 2, 63, 47
8, 17520, Note_on_c, 2, 60, 47
8, 17520, Note_on_c, 2, 70, 47
8, 17596, Note_off_c, 2, 70, 64
8, 17596, Note_off_c, 2, 60, 64
8, 17596, Note_off_c, 2, 63, 64
8, 17596, Note_off_c, 2, 67, 64
8, 17928, Note_on_c, 2, 67, 45
8, 17928, Note_on_c, 2, 63, 45
8, 17928, Note_on_c, 2, 60, 45
8, 17928, Note_on_c, 2, 70, 45
8, 18016, Note_off_c, 2, 70, 64
8, 18016, Note_off_c, 2, 60, 64
8, 18016, Note_off_c, 2, 63, 64
8, 18016, Note_off_c, 2, 67, 64
8, 18240, Note_on_c, 2, 53, 60
8, 18240, Note_on_c, 2, 67, 60
8, 18240, Note_on_c, 2, 58, 60
8, 18240, Note_on_c, 2, 61, 60
8, 18720, Note_off_c, 2, 61, 64
8, 18720, Note_off_c, 2, 58, 64
8, 18720, Note_off_c, 2, 67, 64
8, 18720, Note_off_c, 2, 53, 64
8, 18720, Note_on_c, 2, 67, 60
8, 18720, Note_on_c, 2, 52, 60
8, 18720, Note_on_c, 2, 62, 60
8, 18720, Note_on_c, 2, 58, 60
8, 19200, Note_off_c, 2, 58, 64
8, 19200, Note_off_c, 2, 62, 64
8, 19200, Note_off_c, 2, 52, 64
8, 19200, Note_off_c, 2, 67, 64
8, 19612, Note_on_c, 2, 62, 50
8, 19612, Note_on_c, 2, 57, 50
8, 19612, Note_on_c, 2, 67, 50
8, 19612, Note_on_c, 2, 51, 50
8, 20160, Note_off_c, 2, 51, 64
8, 20160, Note_off_c, 2, 67, 64
8, 20160, Note_off_c, 2, 57, 64
8, 20160, Note_off_c, 2, 62, 64
8, 20400, Note_on_c, 2, 56, 39
8, 20400, Note_on_c, 2, 72, 39
8, 20400, Note_on_c, 2, 62, 39
8, 20400, Note_on_c, 2, 67, 39
8, 20532, Note_off_c, 2, 67, 64
8, 20532, Note_off_c, 2, 62, 64
8, 20532, Note_off_c, 2, 72, 64
8, 20532, Note_off_c, 2, 56, 64
8, 20568, Note_on_c, 2, 56, 41
8, 20568, Note_on_c, 2, 72, 41
8, 20568, Note_on_c, 2, 62, 41
8, 20568, Note_on_c, 2, 67, 41
8, 20640, Note_off_c, 2, 67, 64
8, 20640, Note_off_c, 2, 62, 64
8, 20640, Note_off_c, 2, 72, 64
8, 20640, Note_off_c, 2, 56, 64
8, 20640, Note_on_c, 2, 56, 47
8, 20640, Note_on_c, 2, 72, 47
8, 20640, Note_on_c, 2, 62, 47
8, 20640, Note_on_c, 2, 67, 47
8, 20750, Note_off_c, 2, 67, 64
8, 20750, Note_off_c, 2, 62, 64
8, 20750, Note_off_c, 2, 72, 64
8, 20750, Note_off_c, 2, 56, 64
8, 20808, Note_on_c, 2, 56, 56
8, 20808, Note_on_c, 2, 72, 56
8, 20808, Note_on_c, 2, 62, 56
8, 20808, Note_on_c, 2, 67, 56
8, 20880, Note_off_c, 2, 67, 64
8, 20880, Note_off_c, 2, 62, 64
8, 20880, Note_off_c, 2, 72, 64
8, 20880, Note_off_c, 2, 56, 64
8, 20880, Note_on_c, 2, 56, 67
8, 20880, Note_on_c, 2, 72, 67
8, 20880, Note_on_c, 2, 62, 67
8, 20880, Note_on_c, 2, 67, 67
8, 20998, Note_off_c, 2, 67, 64
8, 20998, Note_off_c, 2, 62, 64
8, 20998, Note_off_c, 2, 72, 64
8, 20998, Note_off_c, 2, 56, 64
8, 21120, Note_on_c, 2, 56, 60
8, 21120, Note_on_c, 2, 60, 60
8, 21120, Note_on_c, 2, 61, 60
8, 21120, Note_on_c, 2, 65, 60
8, 21600, Note_off_c, 2, 65, 64
8, 21600, Note_off_c, 2, 61, 64
8, 21600, Note_off_c, 2, 60, 64
8, 21600, Note_off_c, 2, 56, 64
8, 21600, Note_on_c, 2, 60, 60
8, 21600, Note_on_c, 2, 55, 60
8, 21600, Note_on_c, 2, 65, 60
8, 21600, Note_on_c, 2, 61, 60
8, 22080, Note_off_c, 2, 61, 64
8, 22080, Note_off_c, 2, 65, 64
8, 22080, Note_off_c, 2, 55, 64
8, 22080, Note_off_c, 2, 60, 64
8, 22080, Note_on_c, 2, 61, 50
8, 22080, Note_on_c, 2, 63, 50
8, 22080, Note_on_c, 2, 54, 50
8, 22080, Note_on_c, 2, 70, 50
8, 22560, Note_off_c, 2, 70, 64
8, 22560, Note_off_c, 2, 54, 64
8, 22560, Note_off_c, 2, 63, 64
8, 22560, Note_off_c, 2, 61, 64
8, 22560, Note_on_c, 2, 65, 50
8, 22560, Note_on_c, 2, 60, 50
8, 22560, Note_on_c, 2, 58, 50
8, 22560, Note_on_c, 2, 54, 50
8, 23040, Note_off_c, 2, 54, 64
8, 23040, Note_off_c, 2, 58, 64
8, 23040, Note_off_c, 2, 60, 64
8, 23040, Note_off_c, 2, 65, 64
8, 23040, Note_on_c, 2, 60, 60
8, 23040, Note_on_c, 2, 62, 60
8, 23040, Note_on_c, 2, 53, 60
8, 23040, Note_on_c, 2, 57, 60
8, 23520, Note_off_c, 2, 57, 64
8, 23520, Note_off_c, 2, 53, 64
8, 23520, Note_off_c, 2, 62, 64
8, 23520, Note_off_c, 2, 60, 64
8, 23520, Note_on_c, 2, 73, 50
8, 23520, Note_on_c, 2, 64, 50
8, 23520, Note_on_c, 2, 59, 50
8, 23520, Note_on_c, 2, 69, 50
8, 23520, Note_on_c, 2, 53, 50
8, 24000, Note_off_c, 2, 53, 64
8, 24000, Note_off_c, 2, 69, 64
8, 24000, Note_off_c, 2, 59, 64
8, 24000, Note_off_c, 2, 64, 64
8, 24000, Note_off_c, 2, 73, 64
8, 24000, Note_on_c, 2, 53, 60
8, 24000, Note_on_c, 2, 55, 60
8, 24000, Note_on_c, 2, 58, 60
8, 24000, Note_on_c, 2, 62, 60
8, 24480, Note_off_c, 2, 62, 64
8, 24480, Note_off_c, 2, 58, 64
8, 24480, Note_off_c, 2, 55, 64
8, 24480, Note_off_c, 2, 53, 64
8, 24656, Note_on_c, 2, 58, 57
8, 24656, Note_on_c, 2, 62, 38
8, 24656, Note_on_c, 2, 55, 40
8, 24656, Note_on_c, 2, 64, 50
8, 24656, Note_on_c, 2, 74, 52
8, 24656, Note_on_c, 2, 86, 55
8, 24960, Note_off_c, 2, 86, 64
8, 24960, Note_off_c, 2, 74, 64
8, 24960, Note_off_c, 2, 64, 64
8, 24960, Note_off_c, 2, 55, 64
8, 24960, Note_off_c, 2, 62, 64
8, 24960, Note_off_c, 2, 58, 64
8, 24960, Note_on_c, 2, 52, 50
8, 24960, Note_on_c, 2, 55, 50
8, 24960, Note_on_c, 2, 57, 50
8, 24960, Note_on_c, 2, 60, 50
8, 25440, Note_off_c, 2, 60, 64
8, 25440, Note_off_c, 2, 57, 64
8, 25440, Note_off_c, 2, 55, 64
8, 25440, Note_off_c, 2, 52, 64
8, 25610, Note_on_c, 2, 72, 45
8, 25610, Note_on_c, 2, 62, 45
8, 25610, Note_on_c, 2, 65, 45
8, 25610, Note_on_c, 2, 68, 45
8, 25920, Note_off_c, 2, 68, 64
8, 25920, Note_off_c, 2, 65, 64
8, 25920, Note_off_c, 2, 62, 64
8, 25920, Note_off_c, 2, 72, 64
8, 25920, Note_on_c, 2, 55, 50
8, 25920, Note_on_c, 2, 69, 50
8, 25920, Note_on_c, 2, 60, 50
8, 25920, Note_on_c, 2, 63, 50
8, 26400, Note_off_c, 2, 63, 64
8, 26400, Note_off_c, 2, 60, 64
8, 26400, Note_off_c, 2, 69, 64
8, 26400, Note_off_c, 2, 55, 64
8, 26640, Note_on_c, 2, 66, 50
8, 26640, Note_on_c, 2, 62, 50
8, 26640, Note_on_c, 2, 60, 50
8, 26640, Note_on_c, 2, 69, 50
8, 26732, Note_off_c, 2, 69, 64
8, 26732, Note_off_c, 2, 60, 64
8, 26732, Note_off_c, 2, 62, 64
8, 26732, Note_off_c, 2, 66, 64
8, 27120, Note_on_c, 2, 67, 55
8, 27120, Note_on_c, 2, 65, 55
8, 27120, Note_on_c, 2, 62, 55
8, 27120, Note_on_c, 2, 70, 55
8, 27190, Note_off_c, 2, 70, 64
8, 27190, Note_off_c, 2, 62, 64
8, 27190, Note_off_c, 2, 65, 64
8, 27190, Note_off_c, 2, 67, 64
8, 27600, Note_on_c, 2, 67, 46
8, 27600, Note_on_c, 2, 65, 46
8, 27600, Note_on_c, 2, 62, 46
8, 27600, Note_on_c, 2, 70, 46
8, 27672, Note_off_c, 2, 70, 64
8, 27672, Note_off_c, 2, 62, 64
8, 27672, Note_off_c, 2, 65, 64
8, 27672, Note_off_c, 2, 67, 64
8, 28022, Note_on_c, 2, 68, 50
8, 28022, Note_on_c, 2, 65, 50
8, 28022, Note_on_c, 2, 61, 50
8, 28022, Note_on_c, 2, 70, 50
8, 28090, Note_off_c, 2, 70, 64
8, 28090, Note_off_c, 2, 61, 64
8, 28090, Note_off_c, 2, 65, 64
8, 28090, Note_off_c, 2, 68, 64
8, 28320, Note_on_c, 2, 61, 50
8, 28320, Note_on_c, 2, 65, 50
8, 28320, Note_on_c, 2, 55, 50
8, 28320, Note_on_c, 2, 70, 50
8, 28560, Note_off_c, 2, 70, 64
8, 28560, Note_off_c, 2, 55, 64
8, 28560, Note_off_c, 2, 65, 64
8, 28560, Note_off_c, 2, 61, 64
8, 28970, Note_on_c, 2, 67, 45
8, 28970, Note_on_c, 2, 63, 45
8, 28970, Note_on_c, 2, 60, 45
8, 28970, Note_on_c, 2, 69, 45
8, 29280, Note_off_c, 2, 69, 64
8, 29280, Note_off_c, 2, 60, 64
8, 29280, Note_off_c, 2, 63, 64
8, 29280, Note_off_c, 2, 67, 64
8, 29280, Note_on_c, 2, 56, 50
8, 29280, Note_on_c, 2, 72, 50
8, 29280, Note_on_c, 2, 62, 50
8, 29280, Note_on_c, 2, 67, 50
8, 29520, Note_off_c, 2, 67, 64
8, 29520, Note_off_c, 2, 62, 64
8, 29520, Note_off_c, 2, 72, 64
8, 29520, Note_off_c, 2, 56, 64
8, 29760, Note_on_c, 2, 54, 50
8, 29760, Note_on_c, 2, 70, 50
8, 29760, Note_on_c, 2, 60, 50
8, 29760, Note_on_c, 2, 65, 50
8, 30240, Note_off_c, 2, 65, 64
8, 30240, Note_off_c, 2, 60, 64
8, 30240, Note_off_c, 2, 70, 64
8, 30240, Note_off_c, 2, 54, 64
8, 30240, Note_on_c, 2, 59, 50
8, 30240, Note_on_c, 2, 63, 50
8, 30240, Note_on_c, 2, 53, 50
8, 30240, Note_on_c, 2, 68, 50
8, 30480, Note_off_c, 2, 68, 64
8, 30480, Note_off_c, 2, 53, 64
8, 30480, Note_off_c, 2, 63, 64
8, 30480, Note_off_c, 2, 59, 64
8, 30480, Note_on_c, 2, 61, 50
8, 30480, Note_on_c, 2, 58, 50
8, 30480, Note_on_c, 2, 68, 50
8, 30480, Note_on_c, 2, 52, 50
8, 30720, Note_off_c, 2, 52, 64
8, 30720, Note_off_c, 2, 68, 64
8, 30720, Note_off_c, 2, 58, 64
8, 30720, Note_off_c, 2, 61, 64
8, 30960, Note_on_c, 2, 67, 50
8, 30960, Note_on_c, 2, 65, 50
8, 30960, Note_on_c, 2, 62, 50
8, 30960, Note_on_c, 2, 70, 50
8, 31052, Note_off_c, 2, 70, 64
8, 31052, Note_off_c, 2, 62, 64
8, 31052, Note_off_c, 2, 65, 64
8, 31052, Note_off_c, 2, 67, 64
8, 31370, Note_on_c, 2, 68, 45
8, 31370, Note_on_c, 2, 58, 45
8, 31370, Note_on_c, 2, 63, 45
8, 31370, Note_on_c, 2, 64, 45
8, 31680, Note_off_c, 2, 64, 64
8, 31680, Note_off_c, 2, 63, 64
8, 31680, Note_off_c, 2, 58, 64
8, 31680, Note_off_c, 2, 68, 64
8, 31862, Note_on_c, 2, 65, 50
8, 31862, Note_on_c, 2, 62, 50
8, 31862, Note_on_c, 2, 60, 50
8, 31862, Note_on_c, 2, 69, 50
8, 31930, Note_off_c, 2, 69, 64
8, 31930, Note_off_c, 2, 60, 64
8, 31930, Note_off_c, 2, 62, 64
8, 31930, Note_off_c, 2, 65, 64
8, 32400, Note_on_c, 2, 64, 50
8, 32400, Note_on_c, 2, 62, 50
8, 32400, Note_on_c, 2, 58, 50
8, 32400, Note_on_c, 2, 69, 50
8, 32492, Note_off_c, 2, 69, 64
8, 32492, Note_off_c, 2, 58, 64
8, 32492, Note_off_c, 2, 62, 64
8, 32492, Note_off_c, 2, 64, 64
8, 32640, Note_on_c, 2, 52, 50
8, 32640, Note_on_c, 2, 67, 50
8, 32640, Note_on_c, 2, 57, 50
8, 32640, Note_on_c, 2, 60, 50
8, 33120, Note_off_c, 2, 60, 64
8, 33120, Note_off_c, 2, 57, 64
8, 33120, Note_off_c, 2, 67, 64
8, 33120, Note_off_c, 2, 52, 64
8, 33120, Note_on_c, 2, 76, 50
8, 33120, Note_on_c, 2, 67, 50
8, 33120, Note_on_c, 2, 62, 50
8, 33120, Note_on_c, 2, 72, 50
8, 33120, Note_on_c, 2, 56, 50
8, 33600, Note_off_c, 2, 56, 64
8, 33600, Note_off_c, 2, 72, 64
8, 33600, Note_off_c, 2, 62, 64
8, 33600, Note_off_c, 2, 67, 64
8, 33600, Note_off_c, 2, 76, 64
8, 33600, Note_on_c, 2, 55, 60
8, 33600, Note_on_c, 2, 69, 60
8, 33600, Note_on_c, 2, 60, 60
8, 33600, Note_on_c, 2, 63, 60
8, 34080, Note_off_c, 2, 63, 64
8, 34080, Note_off_c, 2, 60, 64
8, 34080, Note_off_c, 2, 69, 64
8, 34080, Note_off_c, 2, 55, 64
8, 34080, Note_on_c, 2, 69, 50
8, 34080, Note_on_c, 2, 54, 50
8, 34080, Note_on_c, 2, 64, 50
8, 34080, Note_on_c, 2, 60, 50
8, 34560, Note_off_c, 2, 60, 64
8, 34560, Note_off_c, 2, 64, 64
8, 34560, Note_off_c, 2, 54, 64
8, 34560, Note_off_c, 2, 69, 64
8, 34800, Note_on_c, 2, 70, 47
8, 34800, Note_on_c, 2, 67, 47
8, 34800, Note_on_c, 2, 65, 47
8, 34800, Note_on_c, 2, 74, 47
8, 34876, Note_off_c, 2, 74, 64
8, 34876, Note_off_c, 2, 65, 64
8, 34876, Note_off_c, 2, 67, 64
8, 34876, Note_off_c, 2, 70, 64
8, 35208, Note_on_c, 2, 70, 45
8, 35208, Note_on_c, 2, 67, 45
8, 35208, Note_on_c, 2, 65, 45
8, 35208, Note_on_c, 2, 74, 45
8, 35296, Note_off_c, 2, 74, 64
8, 35296, Note_off_c, 2, 65, 64
8, 35296, Note_off_c, 2, 67, 64
8, 35296, Note_off_c, 2, 70, 64
8, 35520, Note_on_c, 2, 56, 60
8, 35520, Note_on_c, 2, 60, 60
8, 35520, Note_on_c, 2, 61, 60
8, 35520, Note_on_c, 2, 65, 60
8, 36000, Note_off_c, 2, 65, 64
8, 36000, Note_off_c, 2, 61, 64
8, 36000, Note_off_c, 2, 60, 64
8, 36000, Note_off_c, 2, 56, 64
8, 36000, Note_on_c, 2, 61, 50
8, 36000, Note_on_c, 2, 65, 50
8, 36000, Note_on_c, 2, 55, 50
8, 36000, Note_on_c, 2, 58, 50
8, 36240, Note_off_c, 2, 58, 64
8, 36240, Note_off_c, 2, 55, 64
8, 36240, Note_off_c, 2, 65, 64
8, 36240, Note_off_c, 2, 61, 64
8, 36240, Note_on_c, 2, 67, 50
8, 36240, Note_on_c, 2, 52, 50
8, 36240, Note_on_c, 2, 62, 50
8, 36240, Note_on_c, 2, 58, 50
8, 36480, Note_off_c, 2, 58, 64
8, 36480, Note_off_c, 2, 62, 64
8, 36480, Note_off_c, 2, 52, 64
8, 36480, Note_off_c, 2, 67, 64
8, 36480, Note_on_c, 2, 51, 60
8, 36480, Note_on_c, 2, 67, 60
8, 36480, Note_on_c, 2, 57, 60
8, 36480, Note_on_c, 2, 62, 60
8, 36960, Note_off_c, 2, 62, 64
8, 36960, Note_off_c, 2, 57, 64
8, 36960, Note_off_c, 2, 67, 64
8, 36960, Note_off_c, 2, 51, 64
8, 36960, Note_on_c, 2, 56, 50
8, 36960, Note_on_c, 2, 72, 50
8, 36960, Note_on_c, 2, 62, 50
8, 36960, Note_on_c, 2, 65, 50
8, 37200, Note_off_c, 2, 65, 64
8, 37200, Note_off_c, 2, 62, 64
8, 37200, Note_off_c, 2, 72, 64
8, 37200, Note_off_c, 2, 56, 64
8, 37200, Note_on_c, 2, 60, 50
8, 37200, Note_on_c, 2, 55, 50
8, 37200, Note_on_c, 2, 65, 50
8, 37200, Note_on_c, 2, 61, 50
8, 37440, Note_off_c, 2, 61, 64
8, 37440, Note_off_c, 2, 65, 64
8, 37440, Note_off_c, 2, 55, 64
8, 37440, Note_off_c, 2, 60, 64
8, 37440, Note_on_c, 2, 54, 60
8, 37440, Note_on_c, 2, 70, 60
8, 37440, Note_on_c, 2, 60, 60
8, 37440, Note_on_c, 2, 65, 60
8, 37920, Note_off_c, 2, 65, 64
8, 37920, Note_off_c, 2, 60, 64
8, 37920, Note_off_c, 2, 70, 64
8, 37920, Note_off_c, 2, 54, 64
8, 37920, Note_on_c, 2, 59, 50
8, 37920, Note_on_c, 2, 63, 50
8, 37920, Note_on_c, 2, 53, 50
8, 37920, Note_on_c, 2, 68, 50
8, 38160, Note_off_c, 2, 68, 64
8, 38160, Note_off_c, 2, 53, 64
8, 38160, Note_off_c, 2, 63, 64
8, 38160, Note_off_c, 2, 59, 64
8, 38160, Note_on_c, 2, 61, 50
8, 38160, Note_on_c, 2, 58, 50
8, 38160, Note_on_c, 2, 56, 50
8, 38160, Note_on_c, 2, 52, 50
8, 38400, Note_off_c, 2, 52, 64
8, 38400, Note_off_c, 2, 56, 64
8, 38400, Note_off_c, 2, 58, 64
8, 38400, Note_off_c, 2, 61, 64
8, 38400, Note_on_c, 2, 53, 60
8, 38400, Note_on_c, 2, 69, 60
8, 38400, Note_on_c, 2, 58, 60
8, 38400, Note_on_c, 2, 62, 60
8, 38880, Note_off_c, 2, 62, 64
8, 38880, Note_off_c, 2, 58, 64
8, 38880, Note_off_c, 2, 69, 64
8, 38880, Note_off_c, 2, 53, 64
8, 38880, Note_on_c, 2, 58, 50
8, 38880, Note_on_c, 2, 53, 50
8, 38880, Note_on_c, 2, 63, 50
8, 38880, Note_on_c, 2, 59, 50
8, 39360, Note_off_c, 2, 59, 64
8, 39360, Note_off_c, 2, 63, 64
8, 39360, Note_off_c, 2, 53, 64
8, 39360, Note_off_c, 2, 58, 64
8, 39360, Note_on_c, 2, 58, 60
8, 39360, Note_on_c, 2, 62, 60
8, 39360, Note_on_c, 2, 52, 60
8, 39360, Note_on_c, 2, 57, 60
8, 39840, Note_off_c, 2, 57, 64
8, 39840, Note_off_c, 2, 52, 64
8, 39840, Note_off_c, 2, 62, 64
8, 39840, Note_off_c, 2, 58, 64
8, 39840, Note_on_c, 2, 56, 50
8, 39840, Note_on_c, 2, 52, 50
8, 39840, Note_on_c, 2, 63, 50
8, 39840, Note_on_c, 2, 58, 50
8, 40320, Note_off_c, 2, 58, 64
8, 40320, Note_off_c, 2, 63, 64
8, 40320, Note_off_c, 2, 52, 64
8, 40320, Note_off_c, 2, 56, 64
8, 40320, Note_on_c, 2, 52, 60
8, 40320, Note_on_c, 2, 67, 60
8, 40320, Note_on_c, 2, 57, 60
8, 40320, Note_on_c, 2, 60, 60
8, 40800, Note_off_c, 2, 60, 64
8, 40800, Note_off_c, 2, 57, 64
8, 40800, Note_off_c, 2, 67, 64
8, 40800, Note_off_c, 2, 52, 64
8, 40800, Note_on_c, 2, 67, 60
8, 40800, Note_on_c, 2, 62, 60
8, 40800, Note_on_c, 2, 72, 60
8, 40800, Note_on_c, 2, 56, 60
8, 41280, Note_off_c, 2, 56, 64
8, 41280, Note_off_c, 2, 72, 64
8, 41280, Note_off_c, 2, 62, 64
8, 41280, Note_off_c, 2, 67, 64
8, 41280, Note_on_c, 2, 55, 50
8, 41280, Note_on_c, 2, 69, 50
8, 41280, Note_on_c, 2, 60, 50
8, 41280, Note_on_c, 2, 63, 50
8, 41760, Note_off_c, 2, 63, 64
8, 41760, Note_off_c, 2, 60, 64
8, 41760, Note_off_c, 2, 69, 64
8, 41760, Note_off_c, 2, 55, 64
8, 41760, Note_on_c, 2, 60, 54
8, 41760, Note_on_c, 2, 66, 30
8, 41760, Note_on_c, 2, 57, 36
8, 41760, Note_on_c, 2, 62, 35
8, 41760, Note_on_c, 2, 72, 69
8, 41760, Note_on_c, 2, 78, 60
8, 41900, Note_off_c, 2, 78, 64
8, 41922, Note_off_c, 2, 72, 64
8, 41936, Note_on_c, 2, 74, 60
8, 41936, Note_on_c, 2, 69, 58
8, 42240, Note_off_c, 2, 69, 64
8, 42240, Note_off_c, 2, 74, 64
8, 42240, Note_off_c, 2, 62, 64
8, 42240, Note_off_c, 2, 57, 64
8, 42240, Note_off_c, 2, 66, 64
8, 42240, Note_off_c, 2, 60, 64
8, 42240, Note_on_c, 2, 62, 50
8, 42240, Note_on_c, 2, 58, 50
8, 42240, Note_on_c, 2, 69, 50
8, 42240, Note_on_c, 2, 53, 50
8, 43200, Note_off_c, 2, 53, 64
8, 43200, Note_off_c, 2, 69, 64
8, 43200, Note_off_c, 2, 58, 64
8, 43200, Note_off_c, 2, 62, 64
8, 43200, Note_on_c, 2, 56, 60
8, 43200, Note_on_c, 2, 70, 60
8, 43200, Note_on_c, 2, 61, 60
8, 43200, Note_on_c, 2, 65, 60
8, 43680, Note_off_c, 2, 65, 64
8, 43680, Note_off_c, 2, 61, 64
8, 43680, Note_off_c, 2, 70, 64
8, 43680, Note_off_c, 2, 56, 64
8, 43680, Note_on_c, 2, 61, 50
8, 43680, Note_on_c, 2, 65, 50
8, 43680, Note_on_c, 2, 55, 50
8, 43680, Note_on_c, 2, 70, 50
8, 43920, Note_off_c, 2, 70, 64
8, 43920, Note_off_c, 2, 55, 64
8, 43920, Note_off_c, 2, 65, 64
8, 43920, Note_off_c, 2, 61, 64
8, 43920, Note_on_c, 2, 57, 50
8, 43920, Note_on_c, 2, 52, 50
8, 43920, Note_on_c, 2, 62, 50
8, 43920, Note_on_c, 2, 58, 50
8, 44160, Note_off_c, 2, 58, 64
8, 44160, Note_off_c, 2, 62, 64
8, 44160, Note_off_c, 2, 52, 64
8, 44160, Note_off_c, 2, 57, 64
8, 44160, Note_on_c, 2, 51, 60
8, 44160, Note_on_c, 2, 55, 60
8, 44160, Note_on_c, 2, 57, 60
8, 44160, Note_on_c, 2, 62, 60
8, 44640, Note_off_c, 2, 62, 64
8, 44640, Note_off_c, 2, 57, 64
8, 44640, Note_off_c, 2, 55, 64
8, 44640, Note_off_c, 2, 51, 64
8, 44640, Note_on_c, 2, 56, 50
8, 44640, Note_on_c, 2, 60, 50
8, 44640, Note_on_c, 2, 62, 50
8, 44640, Note_on_c, 2, 67, 50
8, 44880, Note_off_c, 2, 67, 64
8, 44880, Note_off_c, 2, 62, 64
8, 44880, Note_off_c, 2, 60, 64
8, 44880, Note_off_c, 2, 56, 64
8, 44880, Note_on_c, 2, 72, 50
8, 44880, Note_on_c, 2, 55, 50
8, 44880, Note_on_c, 2, 65, 50
8, 44880, Note_on_c, 2, 61, 50
8, 45120, Note_off_c, 2, 61, 64
8, 45120, Note_off_c, 2, 65, 64
8, 45120, Note_off_c, 2, 55, 64
8, 45120, Note_off_c, 2, 72, 64
8, 45120, Note_on_c, 2, 54, 60
8, 45120, Note_on_c, 2, 58, 60
8, 45120, Note_on_c, 2, 60, 60
8, 45120, Note_on_c, 2, 65, 60
8, 45600, Note_off_c, 2, 65, 64
8, 45600, Note_off_c, 2, 60, 64
8, 45600, Note_off_c, 2, 58, 64
8, 45600, Note_off_c, 2, 54, 64
8, 45600, Note_on_c, 2, 59, 50
8, 45600, Note_on_c, 2, 63, 50
8, 45600, Note_on_c, 2, 53, 50
8, 45600, Note_on_c, 2, 58, 50
8, 45840, Note_off_c, 2, 58, 64
8, 45840, Note_off_c, 2, 53, 64
8, 45840, Note_off_c, 2, 63, 64
8, 45840, Note_off_c, 2, 59, 64
8, 45840, Note_on_c, 2, 63, 50
8, 45840, Note_on_c, 2, 58, 50
8, 45840, Note_on_c, 2, 68, 50
8, 45840, Note_on_c, 2, 52, 50
8, 46080, Note_off_c, 2, 52, 64
8, 46080, Note_off_c, 2, 68, 64
8, 46080, Note_off_c, 2, 58, 64
8, 46080, Note_off_c, 2, 63, 64
8, 46080, Note_on_c, 2, 53, 60
8, 46080, Note_on_c, 2, 69, 60
8, 46080, Note_on_c, 2, 58, 60
8, 46080, Note_on_c, 2, 62, 60
8, 46560, Note_off_c, 2, 62, 64
8, 46560, Note_off_c, 2, 58, 64
8, 46560, Note_off_c, 2, 69, 64
8, 46560, Note_off_c, 2, 53, 64
8, 46560, Note_on_c, 2, 59, 54
8, 46560, Note_on_c, 2, 65, 30
8, 46560, Note_on_c, 2, 56, 36
8, 46560, Note_on_c, 2, 63, 35
8, 46560, Note_on_c, 2, 71, 69
8, 46560, Note_on_c, 2, 77, 60
8, 46700, Note_off_c, 2, 77, 64
8, 46722, Note_off_c, 2, 71, 64
8, 46736, Note_on_c, 2, 75, 60
8, 46736, Note_on_c, 2, 68, 58
8, 47040, Note_off_c, 2, 68, 64
8, 47040, Note_off_c, 2, 75, 64
8, 47040, Note_off_c, 2, 63, 64
8, 47040, Note_off_c, 2, 56, 64
8, 47040, Note_off_c, 2, 65, 64
8, 47040, Note_off_c, 2, 59, 64
8, 47040, Note_on_c, 2, 53, 50
8, 47040, Note_on_c, 2, 55, 50
8, 47040, Note_on_c, 2, 58, 50
8, 47040, Note_on_c, 2, 62, 50
8, 47520, Note_off_c, 2, 62, 64
8, 47520, Note_off_c, 2, 58, 64
8, 47520, Note_off_c, 2, 55, 64
8, 47520, Note_off_c, 2, 53, 64
8, 47520, Note_on_c, 2, 55, 54
8, 47520, Note_on_c, 2, 61, 30
8, 47520, Note_on_c, 2, 51, 36
8, 47520, Note_on_c, 2, 58, 35
8, 47520, Note_on_c, 2, 67, 69
8, 47520, Note_on_c, 2, 73, 60
8, 47660, Note_off_c, 2, 73, 64
8, 47682, Note_off_c, 2, 67, 64
8, 47696, Note_on_c, 2, 70, 60
8, 47696, Note_on_c, 2, 65, 58
8, 48000, Note_off_c, 2, 65, 64
8, 48000, Note_off_c, 2, 70, 64
8, 48000, Note_off_c, 2, 58, 64
8, 48000, Note_off_c, 2, 51, 64
8, 48000, Note_off_c, 2, 61, 64
8, 48000, Note_off_c, 2, 55, 64
8, 48000, Note_on_c, 2, 63, 50
8, 48000, Note_on_c, 2, 60, 50
8, 48000, Note_on_c, 2, 58, 50
8, 48000, Note_on_c, 2, 55, 50
8, 48960, Note_off_c, 2, 55, 64
8, 48960, Note_off_c, 2, 58, 64
8, 48960, Note_off_c, 2, 60, 64
8, 48960, Note_off_c, 2, 63, 64
8, 48960, Note_on_c, 2, 53, 50
8, 48960, Note_on_c, 2, 67, 50
8, 48960, Note_on_c, 2, 58, 50
8, 48960, Note_on_c, 2, 61, 50
8, 49440, Note_off_c, 2, 61, 64
8, 49440, Note_off_c, 2, 58, 64
8, 49440, Note_off_c, 2, 67, 64
8, 49440, Note_off_c, 2, 53, 64
8, 49440, Note_on_c, 2, 67, 60
8, 49440, Note_on_c, 2, 52, 60
8, 49440, Note_on_c, 2, 62, 60
8, 49440, Note_on_c, 2, 58, 60
8, 49920, Note_off_c, 2, 58, 64
8, 49920, Note_off_c, 2, 62, 64
8, 49920, Note_off_c, 2, 52, 64
8, 49920, Note_off_c, 2, 67, 64
8, 50160, Note_on_c, 2, 67, 47
8, 50160, Note_on_c, 2, 63, 47
8, 50160, Note_on_c, 2, 61, 47
8, 50160, Note_on_c, 2, 69, 47
8, 50236, Note_off_c, 2, 69, 64
8, 50236, Note_off_c, 2, 61, 64
8, 50236, Note_off_c, 2, 63, 64
8, 50236, Note_off_c, 2, 67, 64
8, 50568, Note_on_c, 2, 67, 45
8, 50568, Note_on_c, 2, 63, 45
8, 50568, Note_on_c, 2, 61, 45
8, 50568, Note_on_c, 2, 69, 45
8, 50656, Note_off_c, 2, 69, 64
8, 50656, Note_off_c, 2, 61, 64
8, 50656, Note_off_c, 2, 63, 64
8, 50656, Note_off_c, 2, 67, 64
8, 50880, Note_on_c, 2, 67, 50
8, 50880, Note_on_c, 2, 62, 50
8, 50880, Note_on_c, 2, 60, 50
8, 50880, Note_on_c, 2, 56, 50
8, 51840, Note_off_c, 2, 56, 64
8, 51840, Note_off_c, 2, 60, 64
8, 51840, Note_off_c, 2, 62, 64
8, 51840, Note_off_c, 2, 67, 64
8, 51840, Note_on_c, 2, 56, 60
8, 51840, Note_on_c, 2, 60, 60
8, 51840, Note_on_c, 2, 61, 60
8, 51840, Note_on_c, 2, 65, 60
8, 52320, Note_off_c, 2, 65, 64
8, 52320, Note_off_c, 2, 61, 64
8, 52320, Note_off_c, 2, 60, 64
8, 52320, Note_off_c, 2, 56, 64
8, 52320, Note_on_c, 2, 72, 60
8, 52320, Note_on_c, 2, 55, 60
8, 52320, Note_on_c, 2, 65, 60
8, 52320, Note_on_c, 2, 61, 60
8, 52800, Note_off_c, 2, 61, 64
8, 52800, Note_off_c, 2, 65, 64
8, 52800, Note_off_c, 2, 55, 64
8, 52800, Note_off_c, 2, 72, 64
8, 52800, Note_on_c, 2, 61, 60
8, 52800, Note_on_c, 2, 65, 60
8, 52800, Note_on_c, 2, 54, 60
8, 52800, Note_on_c, 2, 70, 60
8, 53280, Note_off_c, 2, 70, 64
8, 53280, Note_off_c, 2, 54, 64
8, 53280, Note_off_c, 2, 65, 64
8, 53280, Note_off_c, 2, 61, 64
8, 53280, Note_on_c, 2, 63, 60
8, 53280, Note_on_c, 2, 60, 60
8, 53280, Note_on_c, 2, 70, 60
8, 53280, Note_on_c, 2, 54, 60
8, 53760, Note_off_c, 2, 54, 64
8, 53760, Note_off_c, 2, 70, 64
8, 53760, Note_off_c, 2, 60, 64
8, 53760, Note_off_c, 2, 63, 64
8, 53760, Note_on_c, 2, 60, 60
8, 53760, Note_on_c, 2, 62, 60
8, 53760, Note_on_c, 2, 53, 60
8, 53760, Note_on_c, 2, 57, 60
8, 54240, Note_off_c, 2, 57, 64
8, 54240, Note_off_c, 2, 53, 64
8, 54240, Note_off_c, 2, 62, 64
8, 54240, Note_off_c, 2, 60, 64
8, 54240, Note_on_c, 2, 73, 50
8, 54240, Note_on_c, 2, 64, 50
8, 54240, Note_on_c, 2, 59, 50
8, 54240, Note_on_c, 2, 69, 50
8, 54240, Note_on_c, 2, 53, 50
8, 54720, Note_off_c, 2, 53, 64
8, 54720, Note_off_c, 2, 69, 64
8, 54720, Note_off_c, 2, 59, 64
8, 54720, Note_off_c, 2, 64, 64
8, 54720, Note_off_c, 2, 73, 64
8, 54720, Note_on_c, 2, 53, 60
8, 54720, Note_on_c, 2, 57, 60
8, 54720, Note_on_c, 2, 58, 60
8, 54720, Note_on_c, 2, 62, 60
8, 55200, Note_off_c, 2, 62, 64
8, 55200, Note_off_c, 2, 58, 64
8, 55200, Note_off_c, 2, 57, 64
8, 55200, Note_off_c, 2, 53, 64
8, 55200, Note_on_c, 2, 67, 60
8, 55200, Note_on_c, 2, 52, 60
8, 55200, Note_on_c, 2, 62, 60
8, 55200, Note_on_c, 2, 58, 60
8, 55680, Note_off_c, 2, 58, 64
8, 55680, Note_off_c, 2, 62, 64
8, 55680, Note_off_c, 2, 52, 64
8, 55680, Note_off_c, 2, 67, 64
8, 55680, Note_on_c, 2, 52, 50
8, 55680, Note_on_c, 2, 55, 50
8, 55680, Note_on_c, 2, 57, 50
8, 55680, Note_on_c, 2, 60, 50
8, 56160, Note_off_c, 2, 60, 64
8, 56160, Note_off_c, 2, 57, 64
8, 56160, Note_off_c, 2, 55, 64
8, 56160, Note_off_c, 2, 52, 64
8, 56160, Note_on_c, 2, 76, 60
8, 56160, Note_on_c, 2, 67, 60
8, 56160, Note_on_c, 2, 62, 60
8, 56160, Note_on_c, 2, 72, 60
8, 56160, Note_on_c, 2, 56, 60
8, 56640, Note_off_c, 2, 56, 64
8, 56640, Note_off_c, 2, 72, 64
8, 56640, Note_off_c, 2, 62, 64
8, 56640, Note_off_c, 2, 67, 64
8, 56640, Note_off_c, 2, 76, 64
8, 56640, Note_on_c, 2, 55, 60
8, 56640, Note_on_c, 2, 69, 60
8, 56640, Note_on_c, 2, 60, 60
8, 56640, Note_on_c, 2, 63, 60
8, 57120, Note_off_c, 2, 63, 64
8, 57120, Note_off_c, 2, 60, 64
8, 57120, Note_off_c, 2, 69, 64
8, 57120, Note_off_c, 2, 55, 64
8, 57120, Note_on_c, 2, 69, 50
8, 57120, Note_on_c, 2, 54, 50
8, 57120, Note_on_c, 2, 64, 50
8, 57120, Note_on_c, 2, 60, 50
8, 57600, Note_off_c, 2, 60, 64
8, 57600, Note_off_c, 2, 64, 64
8, 57600, Note_off_c, 2, 54, 64
8, 57600, Note_off_c, 2, 69, 64
8, 57600, Note_on_c, 2, 62, 50
8, 57600, Note_on_c, 2, 58, 50
8, 57600, Note_on_c, 2, 69, 50
8, 57600, Note_on_c, 2, 53, 50
8, 58560, Note_off_c, 2, 53, 64
8, 58560, Note_off_c, 2, 69, 64
8, 58560, Note_off_c, 2, 58, 64
8, 58560, Note_off_c, 2, 62, 64
8, 58560, Note_on_c, 2, 56, 50
8, 58560, Note_on_c, 2, 70, 50
8, 58560, Note_on_c, 2, 61, 50
8, 58560, Note_on_c, 2, 65, 50
8, 59040, Note_off_c, 2, 65, 64
8, 59040, Note_off_c, 2, 61, 64
8, 59040, Note_off_c, 2, 70, 64
8, 59040, Note_off_c, 2, 56, 64
8, 59040, Note_on_c, 2, 61, 50
8, 59040, Note_on_c, 2, 65, 50
8, 59040, Note_on_c, 2, 55, 50
8, 59040, Note_on_c, 2, 70, 50
8, 59280, Note_off_c, 2, 70, 64
8, 59280, Note_off_c, 2, 55, 64
8, 59280, Note_off_c, 2, 65, 64
8, 59280, Note_off_c, 2, 61, 64
8, 59280, Note_on_c, 2, 69, 50
8, 59280, Note_on_c, 2, 52, 50
8, 59280, Note_on_c, 2, 62, 50
8, 59280, Note_on_c, 2, 58, 50
8, 59520, Note_off_c, 2, 58, 64
8, 59520, Note_off_c, 2, 62, 64
8, 59520, Note_off_c, 2, 52, 64
8, 59520, Note_off_c, 2, 69, 64
8, 59520, Note_on_c, 2, 51, 50
8, 59520, Note_on_c, 2, 67, 50
8, 59520, Note_on_c, 2, 57, 50
8, 59520, Note_on_c, 2, 62, 50
8, 60000, Note_off_c, 2, 62, 64
8, 60000, Note_off_c, 2, 57, 64
8, 60000, Note_off_c, 2, 67, 64
8, 60000, Note_off_c, 2, 51, 64
8, 60000, Note_on_c, 2, 56, 50
8, 60000, Note_on_c, 2, 72, 50
8, 60000, Note_on_c, 2, 62, 50
8, 60000, Note_on_c, 2, 67, 50
8, 60240, Note_off_c, 2, 67, 64
8, 60240, Note_off_c, 2, 62, 64
8, 60240, Note_off_c, 2, 72, 64
8, 60240, Note_off_c, 2, 56, 64
8, 60240, Note_on_c, 2, 72, 50
8, 60240, Note_on_c, 2, 55, 50
8, 60240, Note_on_c, 2, 65, 50
8, 60240, Note_on_c, 2, 61, 50
8, 60480, Note_off_c, 2, 61, 64
8, 60480, Note_off_c, 2, 65, 64
8, 60480, Note_off_c, 2, 55, 64
8, 60480, Note_off_c, 2, 72, 64
8, 60480, Note_on_c, 2, 54, 50
8, 60480, Note_on_c, 2, 70, 50
8, 60480, Note_on_c, 2, 60, 50
8, 60480, Note_on_c, 2, 63, 50
8, 60960, Note_off_c, 2, 63, 64
8, 60960, Note_off_c, 2, 60, 64
8, 60960, Note_off_c, 2, 70, 64
8, 60960, Note_off_c, 2, 54, 64
8, 60960, Note_on_c, 2, 59, 50
8, 60960, Note_on_c, 2, 63, 50
8, 60960, Note_on_c, 2, 53, 50
8, 60960, Note_on_c, 2, 56, 50
8, 61200, Note_off_c, 2, 56, 64
8, 61200, Note_off_c, 2, 53, 64
8, 61200, Note_off_c, 2, 63, 64
8, 61200, Note_off_c, 2, 59, 64
8, 61200, Note_on_c, 2, 63, 50
8, 61200, Note_on_c, 2, 58, 50
8, 61200, Note_on_c, 2, 68, 50
8, 61200, Note_on_c, 2, 52, 50
8, 61440, Note_off_c, 2, 52, 64
8, 61440, Note_off_c, 2, 68, 64
8, 61440, Note_off_c, 2, 58, 64
8, 61440, Note_off_c, 2, 63, 64
8, 61440, Note_on_c, 2, 53, 60
8, 61440, Note_on_c, 2, 69, 60
8, 61440, Note_on_c, 2, 58, 60
8, 61440, Note_on_c, 2, 62, 60
8, 61920, Note_off_c, 2, 62, 64
8, 61920, Note_off_c, 2, 58, 64
8, 61920, Note_off_c, 2, 69, 64
8, 61920, Note_off_c, 2, 53, 64
8, 61920, Note_on_c, 2, 56, 60
8, 61920, Note_on_c, 2, 52, 60
8, 61920, Note_on_c, 2, 63, 60
8, 61920, Note_on_c, 2, 58, 60
8, 62400, Note_off_c, 2, 58, 64
8, 62400, Note_off_c, 2, 63, 64
8, 62400, Note_off_c, 2, 52, 64
8, 62400, Note_off_c, 2, 56, 64
8, 62400, Note_on_c, 2, 50, 60
8, 62400, Note_on_c, 2, 53, 60
8, 62400, Note_on_c, 2, 57, 60
8, 62400, Note_on_c, 2, 60, 60
8, 62880, Note_off_c, 2, 60, 64
8, 62880, Note_off_c, 2, 57, 64
8, 62880, Note_off_c, 2, 53, 64
8, 62880, Note_off_c, 2, 50, 64
8, 63056, Note_on_c, 2, 58, 57
8, 63056, Note_on_c, 2, 62, 38
8, 63056, Note_on_c, 2, 55, 40
8, 63056, Note_on_c, 2, 64, 50
8, 63056, Note_on_c, 2, 74, 52
8, 63056, Note_on_c, 2, 86, 55
8, 63360, Note_off_c, 2, 86, 64
8, 63360, Note_off_c, 2, 74, 64
8, 63360, Note_off_c, 2, 64, 64
8, 63360, Note_off_c, 2, 55, 64
8, 63360, Note_off_c, 2, 62, 64
8, 63360, Note_off_c, 2, 58, 64
8, 63600, Note_on_c, 2, 67, 50
8, 63600, Note_on_c, 2, 64, 50
8, 63600, Note_on_c, 2, 60, 50
8, 63600, Note_on_c, 2, 69, 50
8, 63692, Note_off_c, 2, 69, 64
8, 63692, Note_off_c, 2, 60, 64
8, 63692, Note_off_c, 2, 64, 64
8, 63692, Note_off_c, 2, 67, 64
8, 64022, Note_on_c, 2, 68, 50
8, 64022, Note_on_c, 2, 65, 50
8, 64022, Note_on_c, 2, 62, 50
8, 64022, Note_on_c, 2, 72, 50
8, 64090, Note_off_c, 2, 72, 64
8, 64090, Note_off_c, 2, 62, 64
8, 64090, Note_off_c, 2, 65, 64
8, 64090, Note_off_c, 2, 68, 64
8, 64560, Note_on_c, 2, 67, 50
8, 64560, Note_on_c, 2, 63, 50
8, 64560, Note_on_c, 2, 60, 50
8, 64560, Note_on_c, 2, 69, 50
8, 64652, Note_off_c, 2, 69, 64
8, 64652, Note_off_c, 2, 60, 64
8, 64652, Note_off_c, 2, 63, 64
8, 64652, Note_off_c, 2, 67, 64
8, 64800, Note_on_c, 2, 58, 50
8, 64800, Note_on_c, 2, 54, 50
8, 64800, Note_on_c, 2, 63, 50
8, 64800, Note_on_c, 2, 60, 50
8, 65280, Note_off_c, 2, 60, 64
8, 65280, Note_off_c, 2, 63, 64
8, 65280, Note_off_c, 2, 54, 64
8, 65280, Note_off_c, 2, 58, 64
8, 65520, Note_on_c, 2, 65, 46
8, 65520, Note_on_c, 2, 62, 46
8, 65520, Note_on_c, 2, 58, 46
8, 65520, Note_on_c, 2, 67, 46
8, 65596, Note_off_c, 2, 67, 64
8, 65596, Note_off_c, 2, 58, 64
8, 65596, Note_off_c, 2, 62, 64
8, 65596, Note_off_c, 2, 65, 64
8, 66000, Note_on_c, 2, 65, 49
8, 66000, Note_on_c, 2, 62, 49
8, 66000, Note_on_c, 2, 58, 49
8, 66000, Note_on_c, 2, 67, 49
8, 66088, Note_off_c, 2, 67, 64
8, 66088, Note_off_c, 2, 58, 64
8, 66088, Note_off_c, 2, 62, 64
8, 66088, Note_off_c, 2, 65, 64
8, 66240, Note_on_c, 2, 56, 50
8, 66240, Note_on_c, 2, 72, 50
8, 66240, Note_on_c, 2, 61, 50
8, 66240, Note_on_c, 2, 65, 50
8, 66720, Note_off_c, 2, 65, 64
8, 66720, Note_off_c, 2, 61, 64
8, 66720, Note_off_c, 2, 72, 64
8, 66720, Note_off_c, 2, 56, 64
8, 66720, Note_on_c, 2, 61, 50
8, 66720, Note_on_c, 2, 65, 50
8, 66720, Note_on_c, 2, 55, 50
8, 66720, Note_on_c, 2, 70, 50
8, 66960, Note_off_c, 2, 70, 64
8, 66960, Note_off_c, 2, 55, 64
8, 66960, Note_off_c, 2, 65, 64
8, 66960, Note_off_c, 2, 61, 64
8, 67382, Note_on_c, 2, 67, 50
8, 67382, Note_on_c, 2, 63, 50
8, 67382, Note_on_c, 2, 60, 50
8, 67382, Note_on_c, 2, 69, 50
8, 67450, Note_off_c, 2, 69, 64
8, 67450, Note_off_c, 2, 60, 64
8, 67450, Note_off_c, 2, 63, 64
8, 67450, Note_off_c, 2, 67, 64
8, 68330, Note_on_c, 2, 66, 45
8, 68330, Note_on_c, 2, 63, 45
8, 68330, Note_on_c, 2, 60, 45
8, 68330, Note_on_c, 2, 70, 45
8, 68640, Note_off_c, 2, 70, 64
8, 68640, Note_off_c, 2, 60, 64
8, 68640, Note_off_c, 2, 63, 64
8, 68640, Note_off_c, 2, 66, 64
8, 68640, Note_on_c, 2, 59, 50
8, 68640, Note_on_c, 2, 63, 50
8, 68640, Note_on_c, 2, 53, 50
8, 68640, Note_on_c, 2, 70, 50
8, 68880, Note_off_c, 2, 70, 64
8, 68880, Note_off_c, 2, 53, 64
8, 68880, Note_off_c, 2, 63, 64
8, 68880, Note_off_c, 2, 59, 64
8, 69290, Note_on_c, 2, 65, 45
8, 69290, Note_on_c, 2, 62, 45
8, 69290, Note_on_c, 2, 58, 45
8, 69290, Note_on_c, 2, 67, 45
8, 69600, Note_off_c, 2, 67, 64
8, 69600, Note_off_c, 2, 58, 64
8, 69600, Note_off_c, 2, 62, 64
8, 69600, Note_off_c, 2, 65, 64
8, 69782, Note_on_c, 2, 65, 50
8, 69782, Note_on_c, 2, 63, 50
8, 69782, Note_on_c, 2, 59, 50
8, 69782, Note_on_c, 2, 68, 50
8, 69850, Note_off_c, 2, 68, 64
8, 69850, Note_off_c, 2, 59, 64
8, 69850, Note_off_c, 2, 63, 64
8, 69850, Note_off_c, 2, 65, 64
8, 70080, Note_on_c, 2, 58, 50
8, 70080, Note_on_c, 2, 62, 50
8, 70080, Note_on_c, 2, 52, 50
8, 70080, Note_on_c, 2, 57, 50
8, 70560, Note_off_c, 2, 57, 64
8, 70560, Note_off_c, 2, 52, 64
8, 70560, Note_off_c, 2, 62, 64
8, 70560, Note_off_c, 2, 58, 64
8, 70560, Note_on_c, 2, 56, 50
8, 70560, Note_on_c, 2, 52, 50
8, 70560, Note_on_c, 2, 63, 50
8, 70560, Note_on_c, 2, 58, 50
8, 71040, Note_off_c, 2, 58, 64
8, 71040, Note_off_c, 2, 63, 64
8, 71040, Note_off_c, 2, 52, 64
8, 71040, Note_off_c, 2, 56, 64
8, 71222, Note_on_c, 2, 67, 50
8, 71222, Note_on_c, 2, 64, 50
8, 71222, Note_on_c, 2, 60, 50
8, 71222, Note_on_c, 2, 69, 50
8, 71290, Note_off_c, 2, 69, 64
8, 71290, Note_off_c, 2, 60, 64
8, 71290, Note_off_c, 2, 64, 64
8, 71290, Note_off_c, 2, 67, 64
8, 71760, Note_on_c, 2, 68, 50
8, 71760, Note_on_c, 2, 65, 50
8, 71760, Note_on_c, 2, 62, 50
8, 71760, Note_on_c, 2, 72, 50
8, 71852, Note_off_c, 2, 72, 64
8, 71852, Note_off_c, 2, 62, 64
8, 71852, Note_off_c, 2, 65, 64
8, 71852, Note_off_c, 2, 68, 64
8, 72240, Note_on_c, 2, 67, 50
8, 72240, Note_on_c, 2, 63, 50
8, 72240, Note_on_c, 2, 60, 50
8, 72240, Note_on_c, 2, 69, 50
8, 72332, Note_off_c, 2, 69, 64
8, 72332, Note_off_c, 2, 60, 64
8, 72332, Note_off_c, 2, 63, 64
8, 72332, Note_off_c, 2, 67, 64
8, 72480, Note_on_c, 2, 58, 50
8, 72480, Note_on_c, 2, 54, 50
8, 72480, Note_on_c, 2, 63, 50
8, 72480, Note_on_c, 2, 60, 50
8, 72960, Note_off_c, 2, 60, 64
8, 72960, Note_off_c, 2, 63, 64
8, 72960, Note_off_c, 2, 54, 64
8, 72960, Note_off_c, 2, 58, 64
8, 73200, Note_on_c, 2, 65, 55
8, 73200, Note_on_c, 2, 62, 55
8, 73200, Note_on_c, 2, 58, 55
8, 73200, Note_on_c, 2, 67, 55
8, 73270, Note_off_c, 2, 67, 64
8, 73270, Note_off_c, 2, 58, 64
8, 73270, Note_off_c, 2, 62, 64
8, 73270, Note_off_c, 2, 65, 64
8, 73680, Note_on_c, 2, 65, 46
8, 73680, Note_on_c, 2, 62, 46
8, 73680, Note_on_c, 2, 58, 46
8, 73680, Note_on_c, 2, 67, 46
8, 73752, Note_off_c, 2, 67, 64
8, 73752, Note_off_c, 2, 58, 64
8, 73752, Note_off_c, 2, 62, 64
8, 73752, Note_off_c, 2, 65, 64
8, 74102, Note_on_c, 2, 68, 50
8, 74102, Note_on_c, 2, 65, 50
8, 74102, Note_on_c, 2, 61, 50
8, 74102, Note_on_c, 2, 70, 50
8, 74170, Note_off_c, 2, 70, 64
8, 74170, Note_off_c, 2, 61, 64
8, 74170, Note_off_c, 2, 65, 64
8, 74170, Note_off_c, 2, 68, 64
8, 74400, Note_on_c, 2, 61, 50
8, 74400, Note_on_c, 2, 65, 50
8, 74400, Note_on_c, 2, 55, 50
8, 74400, Note_on_c, 2, 72, 50
8, 74640, Note_off_c, 2, 72, 64
8, 74640, Note_off_c, 2, 55, 64
8, 74640, Note_off_c, 2, 65, 64
8, 74640, Note_off_c, 2, 61, 64
8, 74640, Note_on_c, 2, 69, 50
8, 74640, Note_on_c, 2, 64, 50
8, 74640, Note_on_c, 2, 74, 50
8, 74640, Note_on_c, 2, 58, 50
8, 74880, Note_off_c, 2, 58, 64
8, 74880, Note_off_c, 2, 74, 64
8, 74880, Note_off_c, 2, 64, 64
8, 74880, Note_off_c, 2, 69, 64
8, 75050, Note_on_c, 2, 67, 45
8, 75050, Note_on_c, 2, 63, 45
8, 75050, Note_on_c, 2, 60, 45
8, 75050, Note_on_c, 2, 69, 45
8, 75360, Note_off_c, 2, 69, 64
8, 75360, Note_off_c, 2, 60, 64
8, 75360, Note_off_c, 2, 63, 64
8, 75360, Note_off_c, 2, 67, 64
8, 75360, Note_on_c, 2, 56, 50
8, 75360, Note_on_c, 2, 60, 50
8, 75360, Note_on_c, 2, 62, 50
8, 75360, Note_on_c, 2, 65, 50
8, 75600, Note_off_c, 2, 65, 64
8, 75600, Note_off_c, 2, 62, 64
8, 75600, Note_off_c, 2, 60, 64
8, 75600, Note_off_c, 2, 56, 64
8, 76010, Note_on_c, 2, 66, 45
8, 76010, Note_on_c, 2, 63, 45
8, 76010, Note_on_c, 2, 60, 45
8, 76010, Note_on_c, 2, 70, 45
8, 76320, Note_off_c, 2, 70, 64
8, 76320, Note_off_c, 2, 60, 64
8, 76320, Note_off_c, 2, 63, 64
8, 76320, Note_off_c, 2, 66, 64
8, 76320, Note_on_c, 2, 59, 50
8, 76320, Note_on_c, 2, 63, 50
8, 76320, Note_on_c, 2, 53, 50
8, 76320, Note_on_c, 2, 58, 50
8, 76560, Note_off_c, 2, 58, 64
8, 76560, Note_off_c, 2, 53, 64
8, 76560, Note_off_c, 2, 63, 64
8, 76560, Note_off_c, 2, 59, 64
8, 77040, Note_on_c, 2, 65, 50
8, 77040, Note_on_c, 2, 62, 50
8, 77040, Note_on_c, 2, 58, 50
8, 77040, Note_on_c, 2, 67, 50
8, 77132, Note_off_c, 2, 67, 64
8, 77132, Note_off_c, 2, 58, 64
8, 77132, Note_off_c, 2, 62, 64
8, 77132, Note_off_c, 2, 65, 64
8, 77520, Note_on_c, 2, 65, 50
8, 77520, Note_on_c, 2, 63, 50
8, 77520, Note_on_c, 2, 59, 50
8, 77520, Note_on_c, 2, 68, 50
8, 77612, Note_off_c, 2, 68, 64
8, 77612, Note_off_c, 2, 59, 64
8, 77612, Note_off_c, 2, 63, 64
8, 77612, Note_off_c, 2, 65, 64
8, 77930, Note_on_c, 2, 70, 45
8, 77930, Note_on_c, 2, 67, 45
8, 77930, Note_on_c, 2, 65, 45
8, 77930, Note_on_c, 2, 74, 45
8, 78240, Note_off_c, 2, 74, 64
8, 78240, Note_off_c, 2, 65, 64
8, 78240, Note_off_c, 2, 67, 64
8, 78240, Note_off_c, 2, 70, 64
8, 78422, Note_on_c, 2, 65, 50
8, 78422, Note_on_c, 2, 61, 50
8, 78422, Note_on_c, 2, 58, 50
8, 78422, Note_on_c, 2, 67, 50
8, 78490, Note_off_c, 2, 67, 64
8, 78490, Note_off_c, 2, 58, 64
8, 78490, Note_off_c, 2, 61, 64
8, 78490, Note_off_c, 2, 65, 64
8, 78720, Note_on_c, 2, 63, 50
8, 78720, Note_on_c, 2, 60, 50
8, 78720, Note_on_c, 2, 70, 50
8, 78720, Note_on_c, 2, 55, 50
8, 79680, Note_off_c, 2, 55, 64
8, 79680, Note_off_c, 2, 70, 64
8, 79680, Note_off_c, 2, 60, 64
8, 79680, Note_off_c, 2, 63, 64
8, 79680, Note_on_c, 2, 53, 50
8, 79680, Note_on_c, 2, 67, 50
8, 79680, Note_on_c, 2, 58, 50
8, 79680, Note_on_c, 2, 61, 50
8, 80160, Note_off_c, 2, 61, 64
8, 80160, Note_off_c, 2, 58, 64
8, 80160, Note_off_c, 2, 67, 64
8, 80160, Note_off_c, 2, 53, 64
8, 80160, Note_on_c, 2, 68, 50
8, 80160, Note_on_c, 2, 52, 50
8, 80160, Note_on_c, 2, 61, 50
8, 80160, Note_on_c, 2, 58, 50
8, 80640, Note_off_c, 2, 58, 64
8, 80640, Note_off_c, 2, 61, 64
8, 80640, Note_off_c, 2, 52, 64
8, 80640, Note_off_c, 2, 68, 64
8, 81052, Note_on_c, 2, 62, 50
8, 81052, Note_on_c, 2, 57, 50
8, 81052, Note_on_c, 2, 67, 50
8, 81052, Note_on_c, 2, 51, 50
8, 81600, Note_off_c, 2, 51, 64
8, 81600, Note_off_c, 2, 67, 64
8, 81600, Note_off_c, 2, 57, 64
8, 81600, Note_off_c, 2, 62, 64
8, 81840, Note_on_c, 2, 68, 47
8, 81840, Note_on_c, 2, 67, 47
8, 81840, Note_on_c, 2, 62, 47
8, 81840, Note_on_c, 2, 72, 47
8, 81916, Note_off_c, 2, 72, 64
8, 81916, Note_off_c, 2, 62, 64
8, 81916, Note_off_c, 2, 67, 64
8, 81916, Note_off_c, 2, 68, 64
8, 82248, Note_on_c, 2, 68, 45
8, 82248, Note_on_c, 2, 67, 45
8, 82248, Note_on_c, 2, 62, 45
8, 82248, Note_on_c, 2, 72, 45
8, 82336, Note_off_c, 2, 72, 64
8, 82336, Note_off_c, 2, 62, 64
8, 82336, Note_off_c, 2, 67, 64
8, 82336, Note_off_c, 2, 68, 64
8, 82560, Note_on_c, 2, 56, 60
8, 82560, Note_on_c, 2, 70, 60
8, 82560, Note_on_c, 2, 61, 60
8, 82560, Note_on_c, 2, 65, 60
8, 83040, Note_off_c, 2, 65, 64
8, 83040, Note_off_c, 2, 61, 64
8, 83040, Note_off_c, 2, 70, 64
8, 83040, Note_off_c, 2, 56, 64
8, 83040, Note_on_c, 2, 55, 54
8, 83040, Note_on_c, 2, 61, 30
8, 83040, Note_on_c, 2, 51, 36
8, 83040, Note_on_c, 2, 58, 35
8, 83040, Note_on_c, 2, 67, 69
8, 83040, Note_on_c, 2, 73, 60
8, 83180, Note_off_c, 2, 73, 64
8, 83202, Note_off_c, 2, 67, 64
8, 83216, Note_on_c, 2, 70, 60
8, 83216, Note_on_c, 2, 65, 58
8, 83520, Note_off_c, 2, 65, 64
8, 83520, Note_off_c, 2, 70, 64
8, 83520, Note_off_c, 2, 58, 64
8, 83520, Note_off_c, 2, 51, 64
8, 83520, Note_off_c, 2, 61, 64
8, 83520, Note_off_c, 2, 55, 64
8, 83520, Note_on_c, 2, 61, 60
8, 83520, Note_on_c, 2, 65, 60
8, 83520, Note_on_c, 2, 54, 60
8, 83520, Note_on_c, 2, 58, 60
8, 84000, Note_off_c, 2, 58, 64
8, 84000, Note_off_c, 2, 54, 64
8, 84000, Note_off_c, 2, 65, 64
8, 84000, Note_off_c, 2, 61, 64
8, 84000, Note_on_c, 2, 65, 50
8, 84000, Note_on_c, 2, 60, 50
8, 84000, Note_on_c, 2, 70, 50
8, 84000, Note_on_c, 2, 54, 50
8, 84480, Note_off_c, 2, 54, 64
8, 84480, Note_off_c, 2, 70, 64
8, 84480, Note_off_c, 2, 60, 64
8, 84480, Note_off_c, 2, 65, 64
8, 84480, Note_on_c, 2, 60, 60
8, 84480, Note_on_c, 2, 62, 60
8, 84480, Note_on_c, 2, 53, 60
8, 84480, Note_on_c, 2, 69, 60
8, 84960, Note_off_c, 2, 69, 64
8, 84960, Note_off_c, 2, 53, 64
8, 84960, Note_off_c, 2, 62, 64
8, 84960, Note_off_c, 2, 60, 64
8, 84960, Note_on_c, 2, 62, 50
8, 84960, Note_on_c, 2, 59, 50
8, 84960, Note_on_c, 2, 69, 50
8, 84960, Note_on_c, 2, 53, 50
8, 85440, Note_off_c, 2, 53, 64
8, 85440, Note_off_c, 2, 69, 64
8, 85440, Note_off_c, 2, 59, 64
8, 85440, Note_off_c, 2, 62, 64
8, 85440, Note_on_c, 2, 53, 50
8, 85440, Note_on_c, 2, 69, 50
8, 85440, Note_on_c, 2, 58, 50
8, 85440, Note_on_c, 2, 62, 50
8, 85920, Note_off_c, 2, 62, 64
8, 85920, Note_off_c, 2, 58, 64
8, 85920, Note_off_c, 2, 69, 64
8, 85920, Note_off_c, 2, 53, 64
8, 85920, Note_on_c, 2, 69, 60
8, 85920, Note_on_c, 2, 52, 60
8, 85920, Note_on_c, 2, 62, 60
8, 85920, Note_on_c, 2, 58, 60
8, 86400, Note_off_c, 2, 58, 64
8, 86400, Note_off_c, 2, 62, 64
8, 86400, Note_off_c, 2, 52, 64
8, 86400, Note_off_c, 2, 69, 64
8, 86570, Note_on_c, 2, 67, 45
8, 86570, Note_on_c, 2, 64, 45
8, 86570, Note_on_c, 2, 60, 45
8, 86570, Note_on_c, 2, 69, 45
8, 86880, Note_off_c, 2, 69, 64
8, 86880, Note_off_c, 2, 60, 64
8, 86880, Note_off_c, 2, 64, 64
8, 86880, Note_off_c, 2, 67, 64
8, 87120, Note_on_c, 2, 68, 50
8, 87120, Note_on_c, 2, 65, 50
8, 87120, Note_on_c, 2, 62, 50
8, 87120, Note_on_c, 2, 72, 50
8, 87212, Note_off_c, 2, 72, 64
8, 87212, Note_off_c, 2, 62, 64
8, 87212, Note_off_c, 2, 65, 64
8, 87212, Note_off_c, 2, 68, 64
8, 87530, Note_on_c, 2, 67, 45
8, 87530, Note_on_c, 2, 63, 45
8, 87530, Note_on_c, 2, 60, 45
8, 87530, Note_on_c, 2, 69, 45
8, 87840, Note_off_c, 2, 69, 64
8, 87840, Note_off_c, 2, 60, 64
8, 87840, Note_off_c, 2, 63, 64
8, 87840, Note_off_c, 2, 67, 64
8, 88010, Note_on_c, 2, 69, 45
8, 88010, Note_on_c, 2, 60, 45
8, 88010, Note_on_c, 2, 62, 45
8, 88010, Note_on_c, 2, 66, 45
8, 88320, Note_off_c, 2, 66, 64
8, 88320, Note_off_c, 2, 62, 64
8, 88320, Note_off_c, 2, 60, 64
8, 88320, Note_off_c, 2, 69, 64
8, 88560, Note_on_c, 2, 65, 47
8, 88560, Note_on_c, 2, 62, 47
8, 88560, Note_on_c, 2, 58, 47
8, 88560, Note_on_c, 2, 67, 47
8, 88636, Note_off_c, 2, 67, 64
8, 88636, Note_off_c, 2, 58, 64
8, 88636, Note_off_c, 2, 62, 64
8, 88636, Note_off_c, 2, 65, 64
8, 88968, Note_on_c, 2, 65, 45
8, 88968, Note_on_c, 2, 62, 45
8, 88968, Note_on_c, 2, 58, 45
8, 88968, Note_on_c, 2, 67, 45
8, 89056, Note_off_c, 2, 67, 64
8, 89056, Note_off_c, 2, 58, 64
8, 89056, Note_off_c, 2, 62, 64
8, 89056, Note_off_c, 2, 65, 64
8, 89280, Note_on_c, 2, 56, 50
8, 89280, Note_on_c, 2, 60, 50
8, 89280, Note_on_c, 2, 61, 50
8, 89280, Note_on_c, 2, 65, 50
8, 89760, Note_off_c, 2, 65, 64
8, 89760, Note_off_c, 2, 61, 64
8, 89760, Note_off_c, 2, 60, 64
8, 89760, Note_off_c, 2, 56, 64
8, 89760, Note_on_c, 2, 61, 50
8, 89760, Note_on_c, 2, 65, 50
8, 89760, Note_on_c, 2, 55, 50
8, 89760, Note_on_c, 2, 60, 50
8, 90000, Note_off_c, 2, 60, 64
8, 90000, Note_off_c, 2, 55, 64
8, 90000, Note_off_c, 2, 65, 64
8, 90000, Note_off_c, 2, 61, 64
8, 90000, Note_on_c, 2, 69, 50
8, 90000, Note_on_c, 2, 52, 50
8, 90000, Note_on_c, 2, 62, 50
8, 90000, Note_on_c, 2, 58, 50
8, 90240, Note_off_c, 2, 58, 64
8, 90240, Note_off_c, 2, 62, 64
8, 90240, Note_off_c, 2, 52, 64
8, 90240, Note_off_c, 2, 69, 64
8, 90480, Note_on_c, 2, 67, 50
8, 90480, Note_on_c, 2, 63, 50
8, 90480, Note_on_c, 2, 60, 50
8, 90480, Note_on_c, 2, 69, 50
8, 90572, Note_off_c, 2, 69, 64
8, 90572, Note_off_c, 2, 60, 64
8, 90572, Note_off_c, 2, 63, 64
8, 90572, Note_off_c, 2, 67, 64
8, 90720, Note_on_c, 2, 56, 50
8, 90720, Note_on_c, 2, 60, 50
8, 90720, Note_on_c, 2, 62, 50
8, 90720, Note_on_c, 2, 67, 50
8, 90960, Note_off_c, 2, 67, 64
8, 90960, Note_off_c, 2, 62, 64
8, 90960, Note_off_c, 2, 60, 64
8, 90960, Note_off_c, 2, 56, 64
8, 91440, Note_on_c, 2, 66, 50
8, 91440, Note_on_c, 2, 63, 50
8, 91440, Note_on_c, 2, 60, 50
8, 91440, Note_on_c, 2, 70, 50
8, 91532, Note_off_c, 2, 70, 64
8, 91532, Note_off_c, 2, 60, 64
8, 91532, Note_off_c, 2, 63, 64
8, 91532, Note_off_c, 2, 66, 64
8, 91680, Note_on_c, 2, 59, 50
8, 91680, Note_on_c, 2, 63, 50
8, 91680, Note_on_c, 2, 53, 50
8, 91680, Note_on_c, 2, 56, 50
8, 91920, Note_off_c, 2, 56, 64
8, 91920, Note_off_c, 2, 53, 64
8, 91920, Note_off_c, 2, 63, 64
8, 91920, Note_off_c, 2, 59, 64
8, 91920, Note_on_c, 2, 63, 50
8, 91920, Note_on_c, 2, 58, 50
8, 91920, Note_on_c, 2, 56, 50
8, 91920, Note_on_c, 2, 52, 50
8, 92160, Note_off_c, 2, 52, 64
8, 92160, Note_off_c, 2, 56, 64
8, 92160, Note_off_c, 2, 58, 64
8, 92160, Note_off_c, 2, 63, 64
8, 92330, Note_on_c, 2, 65, 45
8, 92330, Note_on_c, 2, 62, 45
8, 92330, Note_on_c, 2, 58, 45
8, 92330, Note_on_c, 2, 67, 45
8, 92640, Note_off_c, 2, 67, 64
8, 92640, Note_off_c, 2, 58, 64
8, 92640, Note_off_c, 2, 62, 64
8, 92640, Note_off_c, 2, 65, 64
8, 92880, Note_on_c, 2, 64, 50
8, 92880, Note_on_c, 2, 63, 50
8, 92880, Note_on_c, 2, 58, 50
8, 92880, Note_on_c, 2, 68, 50
8, 92972, Note_off_c, 2, 68, 64
8, 92972, Note_off_c, 2, 58, 64
8, 92972, Note_off_c, 2, 63, 64
8, 92972, Note_off_c, 2, 64, 64
8, 93302, Note_on_c, 2, 65, 50
8, 93302, Note_on_c, 2, 62, 50
8, 93302, Note_on_c, 2, 60, 50
8, 93302, Note_on_c, 2, 69, 50
8, 93370, Note_off_c, 2, 69, 64
8, 93370, Note_off_c, 2, 60, 64
8, 93370, Note_off_c, 2, 62, 64
8, 93370, Note_off_c, 2, 65, 64
8, 93782, Note_on_c, 2, 64, 50
8, 93782, Note_on_c, 2, 62, 50
8, 93782, Note_on_c, 2, 58, 50
8, 93782, Note_on_c, 2, 69, 50
8, 93850, Note_off_c, 2, 69, 64
8, 93850, Note_off_c, 2, 58, 64
8, 93850, Note_off_c, 2, 62, 64
8, 93850, Note_off_c, 2, 64, 64
8, 94080, Note_on_c, 2, 69, 51
8, 94080, Note_on_c, 2, 62, 63
8, 94080, Note_on_c, 2, 60, 33
8, 94080, Note_on_c, 2, 67, 44
8, 94320, Note_on_c, 2, 84, 68
8, 94478, Note_off_c, 2, 84, 64
8, 94496, Note_on_c, 2, 79, 44
8, 94688, Note_off_c, 2, 79, 64
8, 94736, Note_on_c, 2, 84, 62
8, 94816, Note_off_c, 2, 84, 64
8, 94816, Note_on_c, 2, 79, 38
8, 94856, Note_off_c, 2, 79, 64
8, 94888, Note_off_c, 2, 67, 64
8, 94888, Note_off_c, 2, 60, 64
8, 94900, Note_off_c, 2, 62, 64
8, 94906, Note_off_c, 2, 69, 64
8, 95040, Note_on_c, 2, 69, 56
8, 95040, Note_on_c, 2, 67, 43
8, 95040, Note_on_c, 2, 60, 40
8, 95040, Note_on_c, 2, 62, 53
8, 95040, Note_on_c, 2, 79, 53
8, 95040, Note_on_c, 2, 84, 72
8, 95098, Note_off_c, 2, 84, 64
8, 95098, Note_off_c, 2, 79, 64
8, 95098, Note_off_c, 2, 62, 64
8, 95098, Note_off_c, 2, 67, 64
8, 95102, Note_off_c, 2, 60, 64
8, 95126, Note_off_c, 2, 69, 64
8, 95456, Note_on_c, 2, 67, 38
8, 95456, Note_on_c, 2, 62, 56
8, 95456, Note_on_c, 2, 69, 41
8, 95456, Note_on_c, 2, 60, 30
8, 95456, Note_on_c, 2, 91, 62
8, 95456, Note_on_c, 2, 79, 52
8, 95456, Note_on_c, 2, 84, 60
8, 96000, Note_off_c, 2, 84, 64
8, 96000, Note_off_c, 2, 79, 64
8, 96000, Note_off_c, 2, 91, 64
8, 96000, Note_off_c, 2, 60, 64
8, 96000, Note_off_c, 2, 69, 64
8, 96000, Note_off_c, 2, 62, 64
8, 96000, Note_off_c, 2, 67, 64
8, 96000, Control_c, 2, 64, 0
8, 96000, End_track
9, 0, Start_track
9, 0, Title_t, "Melody / Rhodes"
9, 0, Program_c, 3, 4
9, 0, Control_c, 3, 7, 100
9, 0, Control_c, 3, 121, 0
9, 0, Control_c, 3, 10, 64
9, 0, Control_c, 3, 123, 0
9, 0, Control_c, 3, 91, 40
9, 0, Control_c, 3, 93, 0
9, 1922, Note_on_c, 3, 69, 85
9, 2412, Note_on_c, 3, 72, 91
9, 2426, Note_off_c, 3, 69, 64
9, 2896, Note_on_c, 3, 63, 88
9, 2914, Note_off_c, 3, 72, 64
9, 3602, Note_off_c, 3, 63, 64
9, 3684, Note_on_c, 3, 61, 99
9, 3752, Note_off_c, 3, 61, 64
9, 3754, Note_on_c, 3, 62, 85
9, 3848, Note_on_c, 3, 67, 91
9, 3856, Note_off_c, 3, 62, 64
9, 3980, Note_off_c, 3, 67, 64
9, 4012, Note_on_c, 3, 67, 84
9, 4132, Note_off_c, 3, 67, 64
9, 4162, Note_on_c, 3, 67, 82
9, 4286, Note_off_c, 3, 67, 64
9, 4322, Note_on_c, 3, 67, 88
9, 4496, Note_on_c, 3, 69, 89
9, 4512, Note_off_c, 3, 67, 64
9, 4634, Note_off_c, 3, 69, 64
9, 4644, Note_on_c, 3, 70, 84
9, 4802, Note_on_c, 3, 61, 85
9, 4820, Note_off_c, 3, 70, 64
9, 5482, Note_off_c, 3, 61, 64
9, 5608, Note_on_c, 3, 60, 82
9, 5684, Note_on_c, 3, 62, 89
9, 5704, Note_off_c, 3, 60, 64
9, 5772, Note_on_c, 3, 65, 79
9, 5778, Note_off_c, 3, 62, 64
9, 5882, Note_off_c, 3, 65, 64
9, 5924, Note_on_c, 3, 65, 79
9, 6010, Note_on_c, 3, 60, 74
9, 6020, Note_off_c, 3, 65, 64
9, 6090, Note_on_c, 3, 62, 81
9, 6100, Note_off_c, 3, 60, 64
9, 6172, Note_on_c, 3, 65, 81
9, 6178, Note_off_c, 3, 62, 64
9, 6514, Note_off_c, 3, 65, 64
9, 6568, Note_on_c, 3, 65, 73
9, 6636, Note_off_c, 3, 65, 64
9, 6642, Note_on_c, 3, 67, 90
9, 6714, Note_off_c, 3, 67, 64
9, 6730, Note_on_c, 3, 68, 93
9, 6844, Note_off_c, 3, 68, 64
9, 6886, Note_on_c, 3, 68, 84
9, 6970, Note_on_c, 3, 63, 84
9, 6974, Note_off_c, 3, 68, 64
9, 7046, Note_on_c, 3, 65, 77
9, 7058, Note_off_c, 3, 63, 64
9, 7112, Note_off_c, 3, 65, 64
9, 7130, Note_on_c, 3, 68, 94
9, 7474, Note_off_c, 3, 68, 64
9, 7532, Note_on_c, 3, 68, 92
9, 7588, Note_off_c, 3, 68, 64
9, 7606, Note_on_c, 3, 70, 81
9, 7666, Note_off_c, 3, 70, 64
9, 7692, Note_on_c, 3, 72, 95
9, 8132, Note_off_c, 3, 72, 64
9, 8170, Note_on_c, 3, 68, 88
9, 8572, Note_off_c, 3, 68, 64
9, 8580, Note_on_c, 3, 67, 86
9, 9402, Note_off_c, 3, 67, 64
9, 9452, Note_on_c, 3, 68, 101
9, 9600, Note_off_c, 3, 68, 64
9, 9612, Note_on_c, 3, 69, 93
9, 10074, Note_off_c, 3, 69, 64
9, 10086, Note_on_c, 3, 72, 93
9, 10496, Note_on_c, 3, 63, 77
9, 10510, Note_off_c, 3, 72, 64
9, 11252, Note_off_c, 3, 63, 64
9, 11372, Note_on_c, 3, 61, 88
9, 11440, Note_off_c, 3, 61, 64
9, 11448, Note_on_c, 3, 62, 79
9, 11532, Note_off_c, 3, 62, 64
9, 11542, Note_on_c, 3, 67, 84
9, 11666, Note_off_c, 3, 67, 64
9, 11700, Note_on_c, 3, 67, 85
9, 11816, Note_off_c, 3, 67, 64
9, 11852, Note_on_c, 3, 67, 87
9, 11950, Note_off_c, 3, 67, 64
9, 11996, Note_on_c, 3, 67, 85
9, 12160, Note_on_c, 3, 69, 88
9, 12164, Note_off_c, 3, 67, 64
9, 12320, Note_off_c, 3, 69, 64
9, 12326, Note_on_c, 3, 70, 79
9, 12486, Note_on_c, 3, 61, 82
9, 12504, Note_off_c, 3, 70, 64
9, 13130, Note_off_c, 3, 61, 64
9, 13204, Note_on_c, 3, 60, 89
9, 13316, Note_off_c, 3, 60, 64
9, 13370, Note_on_c, 3, 62, 93
9, 13442, Note_off_c, 3, 62, 64
9, 13460, Note_on_c, 3, 65, 87
9, 13562, Note_off_c, 3, 65, 64
9, 13606, Note_on_c, 3, 65, 86
9, 13696, Note_on_c, 3, 60, 76
9, 13708, Note_off_c, 3, 65, 64
9, 13778, Note_on_c, 3, 62, 75
9, 13782, Note_off_c, 3, 60, 64
9, 13848, Note_off_c, 3, 62, 64
9, 13860, Note_on_c, 3, 65, 85
9, 14114, Note_off_c, 3, 65, 64
9, 14168, Note_on_c, 3, 65, 86
9, 14304, Note_off_c, 3, 65, 64
9, 14326, Note_on_c, 3, 67, 83
9, 14388, Note_off_c, 3, 67, 64
9, 14410, Note_on_c, 3, 68, 98
9, 14518, Note_off_c, 3, 68, 64
9, 14562, Note_on_c, 3, 68, 94
9, 14644, Note_off_c, 3, 68, 64
9, 14644, Note_on_c, 3, 63, 61
9, 14718, Note_off_c, 3, 63, 64
9, 14724, Note_on_c, 3, 65, 70
9, 14792, Note_off_c, 3, 65, 64
9, 14814, Note_on_c, 3, 68, 100
9, 15120, Note_on_c, 3, 65, 70
9, 15122, Note_off_c, 3, 68, 64
9, 15210, Note_off_c, 3, 65, 64
9, 15210, Note_on_c, 3, 68, 85
9, 15274, Note_off_c, 3, 68, 64
9, 15286, Note_on_c, 3, 70, 86
9, 15352, Note_off_c, 3, 70, 64
9, 15376, Note_on_c, 3, 72, 99
9, 15858, Note_on_c, 3, 68, 99
9, 15872, Note_off_c, 3, 72, 64
9, 16064, Note_off_c, 3, 68, 64
9, 16094, Note_on_c, 3, 68, 86
9, 16236, Note_off_c, 3, 68, 64
9, 16258, Note_on_c, 3, 67, 84
9, 17320, Note_off_c, 3, 67, 64
9, 17430, Note_on_c, 3, 72, 96
9, 17496, Note_off_c, 3, 72, 64
9, 17540, Note_on_c, 3, 72, 89
9, 17600, Note_off_c, 3, 72, 64
9, 17654, Note_on_c, 3, 68, 98
9, 17732, Note_off_c, 3, 68, 64
9, 17774, Note_on_c, 3, 68, 92
9, 17912, Note_on_c, 3, 63, 82
9, 17922, Note_off_c, 3, 68, 64
9, 18058, Note_off_c, 3, 63, 64
9, 18090, Note_on_c, 3, 63, 84
9, 18164, Note_off_c, 3, 63, 64
9, 18176, Note_on_c, 3, 62, 91
9, 18256, Note_off_c, 3, 62, 64
9, 18262, Note_on_c, 3, 61, 92
9, 18386, Note_off_c, 3, 61, 64
9, 18414, Note_on_c, 3, 63, 80
9, 18482, Note_off_c, 3, 63, 64
9, 18492, Note_on_c, 3, 61, 92
9, 18558, Note_off_c, 3, 61, 64
9, 18574, Note_on_c, 3, 63, 67
9, 18650, Note_on_c, 3, 61, 91
9, 18652, Note_off_c, 3, 63, 64
9, 19164, Note_off_c, 3, 61, 64
9, 19224, Note_on_c, 3, 61, 96
9, 19316, Note_off_c, 3, 61, 64
9, 19352, Note_on_c, 3, 63, 86
9, 19436, Note_off_c, 3, 63, 64
9, 19454, Note_on_c, 3, 61, 91
9, 19566, Note_off_c, 3, 61, 64
9, 19600, Note_on_c, 3, 63, 87
9, 19674, Note_off_c, 3, 63, 64
9, 19694, Note_on_c, 3, 61, 86
9, 19842, Note_off_c, 3, 61, 64
9, 19930, Note_on_c, 3, 60, 85
9, 20062, Note_off_c, 3, 60, 64
9, 20094, Note_on_c, 3, 67, 84
9, 21120, Note_off_c, 3, 67, 64
9, 21136, Note_on_c, 3, 65, 81
9, 21240, Note_off_c, 3, 65, 64
9, 21282, Note_on_c, 3, 67, 84
9, 21438, Note_off_c, 3, 67, 64
9, 21446, Note_on_c, 3, 65, 82
9, 21522, Note_off_c, 3, 65, 64
9, 21532, Note_on_c, 3, 67, 84
9, 21616, Note_on_c, 3, 65, 83
9, 21624, Note_off_c, 3, 67, 64
9, 21852, Note_on_c, 3, 63, 88
9, 21862, Note_off_c, 3, 65, 64
9, 22020, Note_on_c, 3, 70, 86
9, 22028, Note_off_c, 3, 63, 64
9, 22944, Note_off_c, 3, 70, 64
9, 22970, Note_on_c, 3, 68, 94
9, 23034, Note_off_c, 3, 68, 64
9, 23056, Note_on_c, 3, 67, 76
9, 23156, Note_off_c, 3, 67, 64
9, 23210, Note_on_c, 3, 67, 81
9, 23294, Note_on_c, 3, 65, 75
9, 23298, Note_off_c, 3, 67, 64
9, 23344, Note_off_c, 3, 65, 64
9, 23376, Note_on_c, 3, 65, 74
9, 23456, Note_on_c, 3, 62, 86
9, 23462, Note_off_c, 3, 65, 64
9, 23934, Note_on_c, 3, 67, 84
9, 23944, Note_off_c, 3, 62, 64
9, 24022, Note_on_c, 3, 72, 85
9, 24026, Note_off_c, 3, 67, 64
9, 24130, Note_off_c, 3, 72, 64
9, 24178, Note_on_c, 3, 72, 85
9, 24260, Note_off_c, 3, 72, 64
9, 24260, Note_on_c, 3, 70, 81
9, 24358, Note_off_c, 3, 70, 64
9, 24418, Note_on_c, 3, 70, 73
9, 24498, Note_off_c, 3, 70, 64
9, 24500, Note_on_c, 3, 67, 76
9, 24664, Note_on_c, 3, 68, 94
9, 24668, Note_off_c, 3, 67, 64
9, 24960, Note_off_c, 3, 68, 64
9, 24978, Note_on_c, 3, 69, 83
9, 25444, Note_off_c, 3, 69, 64
9, 25454, Note_on_c, 3, 72, 86
9, 25936, Note_on_c, 3, 63, 87
9, 25950, Note_off_c, 3, 72, 64
9, 26620, Note_off_c, 3, 63, 64
9, 26732, Note_on_c, 3, 61, 74
9, 26794, Note_off_c, 3, 61, 64
9, 26804, Note_on_c, 3, 62, 71
9, 26890, Note_on_c, 3, 67, 90
9, 26892, Note_off_c, 3, 62, 64
9, 27012, Note_off_c, 3, 67, 64
9, 27050, Note_on_c, 3, 67, 80
9, 27182, Note_off_c, 3, 67, 64
9, 27210, Note_on_c, 3, 67, 87
9, 27326, Note_off_c, 3, 67, 64
9, 27366, Note_on_c, 3, 67, 86
9, 27516, Note_off_c, 3, 67, 64
9, 27532, Note_on_c, 3, 69, 90
9, 27672, Note_off_c, 3, 69, 64
9, 27690, Note_on_c, 3, 70, 82
9, 27844, Note_on_c, 3, 61, 85
9, 27860, Note_off_c, 3, 70, 64
9, 28504, Note_off_c, 3, 61, 64
9, 28652, Note_on_c, 3, 60, 80
9, 28714, Note_off_c, 3, 60, 64
9, 28726, Note_on_c, 3, 62, 92
9, 28810, Note_on_c, 3, 65, 85
9, 28820, Note_off_c, 3, 62, 64
9, 28908, Note_off_c, 3, 65, 64
9, 28966, Note_on_c, 3, 65, 84
9, 29052, Note_on_c, 3, 60, 68
9, 29054, Note_off_c, 3, 65, 64
9, 29126, Note_on_c, 3, 62, 88
9, 29138, Note_off_c, 3, 60, 64
9, 29208, Note_on_c, 3, 65, 84
9, 29220, Note_off_c, 3, 62, 64
9, 29482, Note_off_c, 3, 65, 64
9, 29534, Note_on_c, 3, 65, 82
9, 29644, Note_off_c, 3, 65, 64
9, 29678, Note_on_c, 3, 67, 82
9, 29754, Note_off_c, 3, 67, 64
9, 29774, Note_on_c, 3, 68, 96
9, 29872, Note_off_c, 3, 68, 64
9, 29934, Note_on_c, 3, 68, 92
9, 30014, Note_off_c, 3, 68, 64
9, 30020, Note_on_c, 3, 63, 79
9, 30086, Note_on_c, 3, 65, 68
9, 30088, Note_off_c, 3, 63, 64
9, 30152, Note_off_c, 3, 65, 64
9, 30170, Note_on_c, 3, 68, 96
9, 30492, Note_off_c, 3, 68, 64
9, 30494, Note_on_c, 3, 65, 71
9, 30560, Note_off_c, 3, 65, 64
9, 30568, Note_on_c, 3, 68, 87
9, 30614, Note_off_c, 3, 68, 64
9, 30644, Note_on_c, 3, 70, 93
9, 30716, Note_off_c, 3, 70, 64
9, 30736, Note_on_c, 3, 72, 88
9, 31214, Note_on_c, 3, 68, 95
9, 31216, Note_off_c, 3, 72, 64
9, 31690, Note_on_c, 3, 65, 83
9, 31706, Note_off_c, 3, 68, 64
9, 32598, Note_off_c, 3, 65, 64
9, 86418, Note_on_c, 3, 69, 83
9, 86884, Note_off_c, 3, 69, 64
9, 86894, Note_on_c, 3, 72, 86
9, 87376, Note_on_c, 3, 63, 87
9, 87390, Note_off_c, 3, 72, 64
9, 88060, Note_off_c, 3, 63, 64
9, 88172, Note_on_c, 3, 61, 74
9, 88234, Note_off_c, 3, 61, 64
9, 88244, Note_on_c, 3, 62, 71
9, 88330, Note_on_c, 3, 67, 90
9, 88332, Note_off_c, 3, 62, 64
9, 88452, Note_off_c, 3, 67, 64
9, 88490, Note_on_c, 3, 67, 80
9, 88622, Note_off_c, 3, 67, 64
9, 88650, Note_on_c, 3, 67, 87
9, 88766, Note_off_c, 3, 67, 64
9, 88806, Note_on_c, 3, 67, 86
9, 88956, Note_off_c, 3, 67, 64
9, 88972, Note_on_c, 3, 69, 90
9, 89112, Note_off_c, 3, 69, 64
9, 89130, Note_on_c, 3, 70, 82
9, 89284, Note_on_c, 3, 61, 85
9, 89300, Note_off_c, 3, 70, 64
9, 89944, Note_off_c, 3, 61, 64
9, 90092, Note_on_c, 3, 60, 80
9, 90154, Note_off_c, 3, 60, 64
9, 90166, Note_on_c, 3, 62, 92
9, 90250, Note_on_c, 3, 65, 85
9, 90260, Note_off_c, 3, 62, 64
9, 90348, Note_off_c, 3, 65, 64
9, 90406, Note_on_c, 3, 65, 84
9, 90492, Note_on_c, 3, 60, 68
9, 90494, Note_off_c, 3, 65, 64
9, 90566, Note_on_c, 3, 62, 88
9, 90578, Note_off_c, 3, 60, 64
9, 90648, Note_on_c, 3, 65, 84
9, 90660, Note_off_c, 3, 62, 64
9, 90922, Note_off_c, 3, 65, 64
9, 90974, Note_on_c, 3, 65, 82
9, 91084, Note_off_c, 3, 65, 64
9, 91118, Note_on_c, 3, 67, 82
9, 91194, Note_off_c, 3, 67, 64
9, 91214, Note_on_c, 3, 68, 96
9, 91312, Note_off_c, 3, 68, 64
9, 91374, Note_on_c, 3, 68, 92
9, 91454, Note_off_c, 3, 68, 64
9, 91460, Note_on_c, 3, 63, 79
9, 91524, Note_on_c, 3, 65, 80
9, 91526, Note_on_c, 3, 65, 68
9, 91528, Note_off_c, 3, 63, 64
9, 91586, Note_off_c, 3, 65, 64
9, 91592, Note_off_c, 3, 65, 64
9, 91610, Note_on_c, 3, 68, 96
9, 91932, Note_off_c, 3, 68, 64
9, 91934, Note_on_c, 3, 65, 71
9, 92000, Note_off_c, 3, 65, 64
9, 92008, Note_on_c, 3, 68, 87
9, 92054, Note_off_c, 3, 68, 64
9, 92084, Note_on_c, 3, 70, 93
9, 92156, Note_off_c, 3, 70, 64
9, 92176, Note_on_c, 3, 72, 88
9, 92654, Note_on_c, 3, 68, 95
9, 92656, Note_off_c, 3, 72, 64
9, 93130, Note_on_c, 3, 65, 83
9, 93146, Note_off_c, 3, 68, 64
9, 94038, Note_off_c, 3, 65, 64
9, 94252, Note_on_c, 3, 72, 59
9, 94274, Note_on_c, 3, 71, 82
9, 94302, Note_off_c, 3, 72, 64
9, 94314, Note_on_c, 3, 70, 81
9, 94334, Note_off_c, 3, 71, 64
9, 94340, Note_on_c, 3, 69, 83
9, 94362, Note_off_c, 3, 70, 64
9, 94514, Note_off_c, 3, 69, 64
9, 94570, Note_on_c, 3, 67, 85
9, 94696, Note_off_c, 3, 67, 64
9, 94812, Note_on_c, 3, 60, 84
9, 94948, Note_off_c, 3, 60, 64
9, 94978, Note_on_c, 3, 65, 91
9, 96002, Note_off_c, 3, 65, 64
9, 96002, End_track
10, 0, Start_track
10, 0, Title_t, "Melody / Mute Trump."
10, 0, Program_c, 4, 59
10, 0, Control_c, 4, 7, 100
10, 0, Control_c, 4, 121, 0
10, 0, Control_c, 4, 10, 64
10, 0, Control_c, 4, 123, 0
10, 0, Control_c, 4, 91, 40
10, 0, Control_c, 4, 93, 0
10, 63362, Note_on_c, 4, 69, 85
10, 63852, Note_on_c, 4, 72, 91
10, 63866, Note_off_c, 4, 69, 64
10, 64336, Note_on_c, 4, 63, 88
10, 64354, Note_off_c, 4, 72, 64
10, 65042, Note_off_c, 4, 63, 64
10, 65124, Note_on_c, 4, 61, 99
10, 65192, Note_off_c, 4, 61, 64
10, 65194, Note_on_c, 4, 62, 85
10, 65288, Note_on_c, 4, 67, 91
10, 65296, Note_off_c, 4, 62, 64
10, 65420, Note_off_c, 4, 67, 64
10, 65452, Note_on_c, 4, 67, 84
10, 65572, Note_off_c, 4, 67, 64
10, 65602, Note_on_c, 4, 67, 82
10, 65726, Note_off_c, 4, 67, 64
10, 65762, Note_on_c, 4, 67, 88
10, 65936, Note_on_c, 4, 69, 89
10, 65952, Note_off_c, 4, 67, 64
10, 66074, Note_off_c, 4, 69, 64
10, 66084, Note_on_c, 4, 70, 84
10, 66242, Note_on_c, 4, 61, 85
10, 66260, Note_off_c, 4, 70, 64
10, 66922, Note_off_c, 4, 61, 64
10, 67048, Note_on_c, 4, 60, 82
10, 67124, Note_on_c, 4, 62, 89
10, 67144, Note_off_c, 4, 60, 64
10, 67212, Note_on_c, 4, 65, 79
10, 67218, Note_off_c, 4, 62, 64
10, 67322, Note_off_c, 4, 65, 64
10, 67364, Note_on_c, 4, 65, 79
10, 67450, Note_on_c, 4, 60, 74
10, 67460, Note_off_c, 4, 65, 64
10, 67530, Note_on_c, 4, 62, 81
10, 67540, Note_off_c, 4, 60, 64
10, 67612, Note_on_c, 4, 65, 81
10, 67618, Note_off_c, 4, 62, 64
10, 67954, Note_off_c, 4, 65, 64
10, 68008, Note_on_c, 4, 65, 73
10, 68076, Note_off_c, 4, 65, 64
10, 68082, Note_on_c, 4, 67, 90
10, 68154, Note_off_c, 4, 67, 64
10, 68170, Note_on_c, 4, 68, 93
10, 68284, Note_off_c, 4, 68, 64
10, 68326, Note_on_c, 4, 68, 84
10, 68410, Note_on_c, 4, 63, 84
10, 68414, Note_off_c, 4, 68, 64
10, 68486, Note_on_c, 4, 65, 77
10, 68498, Note_off_c, 4, 63, 64
10, 68552, Note_off_c, 4, 65, 64
10, 68570, Note_on_c, 4, 68, 94
10, 68914, Note_off_c, 4, 68, 64
10, 68972, Note_on_c, 4, 68, 92
10, 69028, Note_off_c, 4, 68, 64
10, 69046, Note_on_c, 4, 70, 81
10, 69106, Note_off_c, 4, 70, 64
10, 69132, Note_on_c, 4, 72, 95
10, 69572, Note_off_c, 4, 72, 64
10, 69610, Note_on_c, 4, 68, 88
10, 70012, Note_off_c, 4, 68, 64
10, 70020, Note_on_c, 4, 67, 86
10, 70842, Note_off_c, 4, 67, 64
10, 70892, Note_on_c, 4, 68, 101
10, 71040, Note_off_c, 4, 68, 64
10, 71052, Note_on_c, 4, 69, 93
10, 71514, Note_off_c, 4, 69, 64
10, 71526, Note_on_c, 4, 72, 93
10, 71936, Note_on_c, 4, 63, 77
10, 71950, Note_off_c, 4, 72, 64
10, 72692, Note_off_c, 4, 63, 64
10, 72812, Note_on_c, 4, 61, 88
10, 72880, Note_off_c, 4, 61, 64
10, 72888, Note_on_c, 4, 62, 79
10, 72972, Note_off_c, 4, 62, 64
10, 72982, Note_on_c, 4, 67, 84
10, 73106, Note_off_c, 4, 67, 64
10, 73140, Note_on_c, 4, 67, 85
10, 73256, Note_off_c, 4, 67, 64
10, 73292, Note_on_c, 4, 67, 87
10, 73390, Note_off_c, 4, 67, 64
10, 73436, Note_on_c, 4, 67, 85
10, 73600, Note_on_c, 4, 69, 88
10, 73604, Note_off_c, 4, 67, 64
10, 73760, Note_off_c, 4, 69, 64
10, 73766, Note_on_c, 4, 70, 79
10, 73926, Note_on_c, 4, 61, 82
10, 73944, Note_off_c, 4, 70, 64
10, 74570, Note_off_c, 4, 61, 64
10, 74644, Note_on_c, 4, 60, 89
10, 74756, Note_off_c, 4, 60, 64
10, 74810, Note_on_c, 4, 62, 93
10, 74882, Note_off_c, 4, 62, 64
10, 74900, Note_on_c, 4, 65, 87
10, 75002, Note_off_c, 4, 65, 64
10, 75046, Note_on_c, 4, 65, 86
10, 75136, Note_on_c, 4, 60, 76
10, 75148, Note_off_c, 4, 65, 64
10, 75218, Note_on_c, 4, 62, 75
10, 75222, Note_off_c, 4, 60, 64
10, 75288, Note_off_c, 4, 62, 64
10, 75300, Note_on_c, 4, 65, 85
10, 75554, Note_off_c, 4, 65, 64
10, 75608, Note_on_c, 4, 65, 86
10, 75744, Note_off_c, 4, 65, 64
10, 75766, Note_on_c, 4, 67, 83
10, 75828, Note_off_c, 4, 67, 64
10, 75850, Note_on_c, 4, 68, 98
10, 75958, Note_off_c, 4, 68, 64
10, 76002, Note_on_c, 4, 68, 94
10, 76084, Note_off_c, 4, 68, 64
10, 76084, Note_on_c, 4, 63, 61
10, 76158, Note_off_c, 4, 63, 64
10, 76164, Note_on_c, 4, 65, 70
10, 76232, Note_off_c, 4, 65, 64
10, 76254, Note_on_c, 4, 68, 100
10, 76560, Note_on_c, 4, 65, 70
10, 76562, Note_off_c, 4, 68, 64
10, 76650, Note_off_c, 4, 65, 64
10, 76650, Note_on_c, 4, 68, 85
10, 76714, Note_off_c, 4, 68, 64
10, 76726, Note_on_c, 4, 70, 86
10, 76792, Note_off_c, 4, 70, 64
10, 76816, Note_on_c, 4, 72, 99
10, 77298, Note_on_c, 4, 68, 99
10, 77312, Note_off_c, 4, 72, 64
10, 77504, Note_off_c, 4, 68, 64
10, 77534, Note_on_c, 4, 68, 86
10, 77676, Note_off_c, 4, 68, 64
10, 77698, Note_on_c, 4, 67, 84
10, 78760, Note_off_c, 4, 67, 64
10, 78870, Note_on_c, 4, 72, 96
10, 78936, Note_off_c, 4, 72, 64
10, 78980, Note_on_c, 4, 72, 89
10, 79040, Note_off_c, 4, 72, 64
10, 79094, Note_on_c, 4, 68, 98
10, 79172, Note_off_c, 4, 68, 64
10, 79214, Note_on_c, 4, 68, 92
10, 79352, Note_on_c, 4, 63, 82
10, 79362, Note_off_c, 4, 68, 64
10, 79498, Note_off_c, 4, 63, 64
10, 79530, Note_on_c, 4, 63, 84
10, 79604, Note_off_c, 4, 63, 64
10, 79616, Note_on_c, 4, 62, 91
10, 79696, Note_off_c, 4, 62, 64
10, 79702, Note_on_c, 4, 61, 92
10, 79826, Note_off_c, 4, 61, 64
10, 79854, Note_on_c, 4, 63, 80
10, 79922, Note_off_c, 4, 63, 64
10, 79932, Note_on_c, 4, 61, 92
10, 79998, Note_off_c, 4, 61, 64
10, 80014, Note_on_c, 4, 63, 67
10, 80090, Note_on_c, 4, 61, 91
10, 80092, Note_off_c, 4, 63, 64
10, 80604, Note_off_c, 4, 61, 64
10, 80664, Note_on_c, 4, 61, 96
10, 80756, Note_off_c, 4, 61, 64
10, 80792, Note_on_c, 4, 63, 86
10, 80876, Note_off_c, 4, 63, 64
10, 80894, Note_on_c, 4, 61, 91
10, 81006, Note_off_c, 4, 61, 64
10, 81040, Note_on_c, 4, 63, 87
10, 81114, Note_off_c, 4, 63, 64
10, 81134, Note_on_c, 4, 61, 86
10, 81282, Note_off_c, 4, 61, 64
10, 81370, Note_on_c, 4, 60, 85
10, 81502, Note_off_c, 4, 60, 64
10, 81534, Note_on_c, 4, 67, 84
10, 82560, Note_off_c, 4, 67, 64
10, 82576, Note_on_c, 4, 65, 81
10, 82680, Note_off_c, 4, 65, 64
10, 82722, Note_on_c, 4, 67, 84
10, 82878, Note_off_c, 4, 67, 64
10, 82886, Note_on_c, 4, 65, 82
10, 82962, Note_off_c, 4, 65, 64
10, 82972, Note_on_c, 4, 67, 84
10, 83056, Note_on_c, 4, 65, 83
10, 83064, Note_off_c, 4, 67, 64
10, 83292, Note_on_c, 4, 63, 88
10, 83302, Note_off_c, 4, 65, 64
10, 83460, Note_on_c, 4, 70, 86
10, 83468, Note_off_c, 4, 63, 64
10, 84384, Note_off_c, 4, 70, 64
10, 84410, Note_on_c, 4, 68, 94
10, 84474, Note_off_c, 4, 68, 64
10, 84496, Note_on_c, 4, 67, 76
10, 84596, Note_off_c, 4, 67, 64
10, 84650, Note_on_c, 4, 67, 81
10, 84734, Note_on_c, 4, 65, 75
10, 84738, Note_off_c, 4, 67, 64
10, 84784, Note_off_c, 4, 65, 64
10, 84816, Note_on_c, 4, 65, 74
10, 84896, Note_on_c, 4, 62, 86
10, 84902, Note_off_c, 4, 65, 64
10, 85374, Note_on_c, 4, 67, 84
10, 85384, Note_off_c, 4, 62, 64
10, 85462, Note_on_c, 4, 72, 85
10, 85466, Note_off_c, 4, 67, 64
10, 85570, Note_off_c, 4, 72, 64
10, 85618, Note_on_c, 4, 72, 85
10, 85700, Note_off_c, 4, 72, 64
10, 85700, Note_on_c, 4, 70, 81
10, 85798, Note_off_c, 4, 70, 64
10, 85858, Note_on_c, 4, 70, 73
10, 85938, Note_off_c, 4, 70, 64
10, 85940, Note_on_c, 4, 67, 76
10, 86104, Note_on_c, 4, 68, 94
10, 86108, Note_off_c, 4, 67, 64
10, 86400, Note_off_c, 4, 68, 64
10, 86400, End_track
11, 0, Start_track
11, 0, Title_t, "Strings / Slow"
11, 0, Program_c, 5, 49
11, 0, Control_c, 5, 7, 90
11, 0, Control_c, 5, 121, 0
11, 0, Control_c, 5, 10, 64
11, 0, Control_c, 5, 123, 0
11, 0, Control_c, 5, 91, 60
11, 0, Control_c, 5, 93, 20
11, 0, Control_c, 5, 64, 0
11, 17286, Note_on_c, 5, 72, 33
11, 17288, Note_on_c, 5, 67, 33
11, 18240, Note_off_c, 5, 67, 64
11, 18240, Note_off_c, 5, 72, 64
11, 18246, Note_on_c, 5, 70, 33
11, 18248, Note_on_c, 5, 65, 33
11, 18720, Note_off_c, 5, 65, 64
11, 18720, Note_off_c, 5, 70, 64
11, 18726, Note_on_c, 5, 70, 33
11, 18728, Note_on_c, 5, 64, 33
11, 19200, Note_off_c, 5, 64, 64
11, 19200, Note_off_c, 5, 70, 64
11, 19206, Note_on_c, 5, 69, 33
11, 19208, Note_on_c, 5, 63, 33
11, 20160, Note_off_c, 5, 63, 64
11, 20160, Note_off_c, 5, 69, 64
11, 20166, Note_on_c, 5, 68, 33
11, 20168, Note_on_c, 5, 62, 33
11, 21120, Note_off_c, 5, 62, 64
11, 21120, Note_off_c, 5, 68, 64
11, 21126, Note_on_c, 5, 68, 33
11, 21128, Note_on_c, 5, 61, 33
11, 21600, Note_off_c, 5, 61, 64
11, 21600, Note_off_c, 5, 68, 64
11, 21606, Note_on_c, 5, 67, 33
11, 21608, Note_on_c, 5, 61, 33
11, 22080, Note_off_c, 5, 61, 64
11, 22080, Note_off_c, 5, 67, 64
11, 22086, Note_on_c, 5, 66, 33
11, 22088, Note_on_c, 5, 61, 33
11, 22560, Note_off_c, 5, 61, 64
11, 22560, Note_off_c, 5, 66, 64
11, 22566, Note_on_c, 5, 72, 33
11, 22568, Note_on_c, 5, 66, 33
11, 23040, Note_off_c, 5, 66, 64
11, 23040, Note_off_c, 5, 72, 64
11, 23046, Note_on_c, 5, 72, 33
11, 23048, Note_on_c, 5, 65, 33
11, 23520, Note_off_c, 5, 65, 64
11, 23520, Note_off_c, 5, 72, 64
11, 23526, Note_on_c, 5, 71, 33
11, 23528, Note_on_c, 5, 65, 33
11, 24000, Note_off_c, 5, 65, 64
11, 24000, Note_off_c, 5, 71, 64
11, 24006, Note_on_c, 5, 70, 33
11, 24008, Note_on_c, 5, 65, 33
11, 24480, Note_off_c, 5, 65, 64
11, 24480, Note_off_c, 5, 70, 64
11, 24486, Note_on_c, 5, 70, 33
11, 24488, Note_on_c, 5, 64, 33
11, 24960, Note_off_c, 5, 64, 64
11, 24960, Note_off_c, 5, 70, 64
11, 32646, Note_on_c, 5, 69, 33
11, 32648, Note_on_c, 5, 64, 33
11, 33120, Note_off_c, 5, 64, 64
11, 33120, Note_off_c, 5, 69, 64
11, 33126, Note_on_c, 5, 68, 33
11, 33128, Note_on_c, 5, 62, 33
11, 33600, Note_off_c, 5, 62, 64
11, 33600, Note_off_c, 5, 68, 64
11, 33606, Note_on_c, 5, 67, 33
11, 33608, Note_on_c, 5, 60, 33
11, 34080, Note_off_c, 5, 60, 64
11, 34080, Note_off_c, 5, 67, 64
11, 34086, Note_on_c, 5, 72, 33
11, 34088, Note_on_c, 5, 66, 33
11, 34560, Note_off_c, 5, 66, 64
11, 34560, Note_off_c, 5, 72, 64
11, 34566, Note_on_c, 5, 70, 33
11, 34568, Note_on_c, 5, 65, 33
11, 35520, Note_off_c, 5, 65, 64
11, 35520, Note_off_c, 5, 70, 64
11, 35526, Note_on_c, 5, 68, 33
11, 35528, Note_on_c, 5, 61, 33
11, 36000, Note_off_c, 5, 61, 64
11, 36000, Note_off_c, 5, 68, 64
11, 36004, Note_on_c, 5, 65, 45
11, 36240, Note_off_c, 5, 65, 64
11, 36244, Note_on_c, 5, 67, 45
11, 36480, Note_off_c, 5, 67, 64
11, 36486, Note_on_c, 5, 69, 33
11, 36488, Note_on_c, 5, 63, 33
11, 36960, Note_off_c, 5, 63, 64
11, 36960, Note_off_c, 5, 69, 64
11, 36964, Note_on_c, 5, 65, 45
11, 37200, Note_off_c, 5, 65, 64
11, 37204, Note_on_c, 5, 65, 45
11, 37440, Note_off_c, 5, 65, 64
11, 37446, Note_on_c, 5, 72, 33
11, 37448, Note_on_c, 5, 66, 33
11, 37920, Note_off_c, 5, 66, 64
11, 37920, Note_off_c, 5, 72, 64
11, 37924, Note_on_c, 5, 68, 45
11, 38160, Note_off_c, 5, 68, 64
11, 38164, Note_on_c, 5, 68, 45
11, 38400, Note_off_c, 5, 68, 64
11, 38406, Note_on_c, 5, 70, 33
11, 38408, Note_on_c, 5, 65, 33
11, 38880, Note_off_c, 5, 65, 64
11, 38880, Note_off_c, 5, 70, 64
11, 38886, Note_on_c, 5, 71, 33
11, 38888, Note_on_c, 5, 65, 33
11, 39360, Note_off_c, 5, 65, 64
11, 39360, Note_off_c, 5, 71, 64
11, 39366, Note_on_c, 5, 70, 33
11, 39368, Note_on_c, 5, 64, 33
11, 39840, Note_off_c, 5, 64, 64
11, 39840, Note_off_c, 5, 70, 64
11, 39846, Note_on_c, 5, 70, 33
11, 39848, Note_on_c, 5, 64, 33
11, 40320, Note_off_c, 5, 64, 64
11, 40320, Note_off_c, 5, 70, 64
11, 40326, Note_on_c, 5, 69, 33
11, 40328, Note_on_c, 5, 64, 33
11, 40800, Note_off_c, 5, 64, 64
11, 40800, Note_off_c, 5, 69, 64
11, 40806, Note_on_c, 5, 68, 33
11, 40808, Note_on_c, 5, 62, 33
11, 41280, Note_off_c, 5, 62, 64
11, 41280, Note_off_c, 5, 68, 64
11, 41286, Note_on_c, 5, 67, 33
11, 41288, Note_on_c, 5, 60, 33
11, 41760, Note_off_c, 5, 60, 64
11, 41760, Note_off_c, 5, 67, 64
11, 41766, Note_on_c, 5, 72, 33
11, 41768, Note_on_c, 5, 66, 33
11, 42240, Note_off_c, 5, 66, 64
11, 42240, Note_off_c, 5, 72, 64
11, 42246, Note_on_c, 5, 70, 33
11, 42248, Note_on_c, 5, 65, 33
11, 43200, Note_off_c, 5, 65, 64
11, 43200, Note_off_c, 5, 70, 64
11, 43206, Note_on_c, 5, 68, 33
11, 43208, Note_on_c, 5, 61, 33
11, 43680, Note_off_c, 5, 61, 64
11, 43680, Note_off_c, 5, 68, 64
11, 43684, Note_on_c, 5, 65, 45
11, 43920, Note_off_c, 5, 65, 64
11, 43924, Note_on_c, 5, 67, 45
11, 44160, Note_off_c, 5, 67, 64
11, 44166, Note_on_c, 5, 69, 33
11, 44168, Note_on_c, 5, 63, 33
11, 44640, Note_off_c, 5, 63, 64
11, 44640, Note_off_c, 5, 69, 64
11, 44644, Note_on_c, 5, 65, 45
11, 44880, Note_off_c, 5, 65, 64
11, 44884, Note_on_c, 5, 65, 45
11, 45120, Note_off_c, 5, 65, 64
11, 45126, Note_on_c, 5, 72, 33
11, 45128, Note_on_c, 5, 66, 33
11, 45600, Note_off_c, 5, 66, 64
11, 45600, Note_off_c, 5, 72, 64
11, 45604, Note_on_c, 5, 68, 45
11, 45840, Note_off_c, 5, 68, 64
11, 45844, Note_on_c, 5, 68, 45
11, 46080, Note_off_c, 5, 68, 64
11, 46086, Note_on_c, 5, 70, 33
11, 46088, Note_on_c, 5, 65, 33
11, 46560, Note_off_c, 5, 65, 64
11, 46560, Note_off_c, 5, 70, 64
11, 46566, Note_on_c, 5, 71, 33
11, 46568, Note_on_c, 5, 65, 33
11, 47040, Note_off_c, 5, 65, 64
11, 47040, Note_off_c, 5, 71, 64
11, 47046, Note_on_c, 5, 70, 33
11, 47048, Note_on_c, 5, 65, 33
11, 47520, Note_off_c, 5, 65, 64
11, 47520, Note_off_c, 5, 70, 64
11, 47526, Note_on_c, 5, 67, 33
11, 47528, Note_on_c, 5, 61, 33
11, 48000, Note_off_c, 5, 61, 64
11, 48000, Note_off_c, 5, 67, 64
11, 48006, Note_on_c, 5, 72, 33
11, 48008, Note_on_c, 5, 67, 33
11, 48960, Note_off_c, 5, 67, 64
11, 48960, Note_off_c, 5, 72, 64
11, 48966, Note_on_c, 5, 70, 33
11, 48968, Note_on_c, 5, 65, 33
11, 49440, Note_off_c, 5, 65, 64
11, 49440, Note_off_c, 5, 70, 64
11, 49446, Note_on_c, 5, 70, 33
11, 49448, Note_on_c, 5, 64, 33
11, 49920, Note_off_c, 5, 64, 64
11, 49920, Note_off_c, 5, 70, 64
11, 49926, Note_on_c, 5, 69, 33
11, 49928, Note_on_c, 5, 63, 33
11, 50880, Note_off_c, 5, 63, 64
11, 50880, Note_off_c, 5, 69, 64
11, 50886, Note_on_c, 5, 68, 33
11, 50888, Note_on_c, 5, 62, 33
11, 51840, Note_off_c, 5, 62, 64
11, 51840, Note_off_c, 5, 68, 64
11, 51846, Note_on_c, 5, 68, 33
11, 51848, Note_on_c, 5, 61, 33
11, 52320, Note_off_c, 5, 61, 64
11, 52320, Note_off_c, 5, 68, 64
11, 52326, Note_on_c, 5, 67, 33
11, 52328, Note_on_c, 5, 61, 33
11, 52800, Note_off_c, 5, 61, 64
11, 52800, Note_off_c, 5, 67, 64
11, 52806, Note_on_c, 5, 66, 33
11, 52808, Note_on_c, 5, 61, 33
11, 53280, Note_off_c, 5, 61, 64
11, 53280, Note_off_c, 5, 66, 64
11, 53286, Note_on_c, 5, 72, 33
11, 53288, Note_on_c, 5, 66, 33
11, 53760, Note_off_c, 5, 66, 64
11, 53760, Note_off_c, 5, 72, 64
11, 53766, Note_on_c, 5, 72, 33
11, 53768, Note_on_c, 5, 65, 33
11, 54240, Note_off_c, 5, 65, 64
11, 54240, Note_off_c, 5, 72, 64
11, 54246, Note_on_c, 5, 71, 33
11, 54248, Note_on_c, 5, 65, 33
11, 54720, Note_off_c, 5, 65, 64
11, 54720, Note_off_c, 5, 71, 64
11, 54726, Note_on_c, 5, 70, 33
11, 54728, Note_on_c, 5, 65, 33
11, 55200, Note_off_c, 5, 65, 64
11, 55200, Note_off_c, 5, 70, 64
11, 55206, Note_on_c, 5, 70, 33
11, 55208, Note_on_c, 5, 64, 33
11, 55680, Note_off_c, 5, 64, 64
11, 55680, Note_off_c, 5, 70, 64
11, 55686, Note_on_c, 5, 69, 33
11, 55688, Note_on_c, 5, 64, 33
11, 56160, Note_off_c, 5, 64, 64
11, 56160, Note_off_c, 5, 69, 64
11, 56166, Note_on_c, 5, 68, 33
11, 56168, Note_on_c, 5, 62, 33
11, 56640, Note_off_c, 5, 62, 64
11, 56640, Note_off_c, 5, 68, 64
11, 56646, Note_on_c, 5, 67, 33
11, 56648, Note_on_c, 5, 60, 33
11, 57120, Note_off_c, 5, 60, 64
11, 57120, Note_off_c, 5, 67, 64
11, 57126, Note_on_c, 5, 72, 33
11, 57128, Note_on_c, 5, 66, 33
11, 57600, Note_off_c, 5, 66, 64
11, 57600, Note_off_c, 5, 72, 64
11, 57606, Note_on_c, 5, 70, 33
11, 57608, Note_on_c, 5, 65, 33
11, 58560, Note_off_c, 5, 65, 64
11, 58560, Note_off_c, 5, 70, 64
11, 58566, Note_on_c, 5, 68, 33
11, 58568, Note_on_c, 5, 61, 33
11, 59040, Note_off_c, 5, 61, 64
11, 59040, Note_off_c, 5, 68, 64
11, 59044, Note_on_c, 5, 65, 45
11, 59280, Note_off_c, 5, 65, 64
11, 59284, Note_on_c, 5, 67, 45
11, 59520, Note_off_c, 5, 67, 64
11, 59526, Note_on_c, 5, 69, 33
11, 59528, Note_on_c, 5, 63, 33
11, 60000, Note_off_c, 5, 63, 64
11, 60000, Note_off_c, 5, 69, 64
11, 60004, Note_on_c, 5, 65, 45
11, 60240, Note_off_c, 5, 65, 64
11, 60244, Note_on_c, 5, 65, 45
11, 60480, Note_off_c, 5, 65, 64
11, 60486, Note_on_c, 5, 72, 33
11, 60488, Note_on_c, 5, 66, 33
11, 60960, Note_off_c, 5, 66, 64
11, 60960, Note_off_c, 5, 72, 64
11, 60964, Note_on_c, 5, 68, 45
11, 61200, Note_off_c, 5, 68, 64
11, 61204, Note_on_c, 5, 68, 45
11, 61440, Note_off_c, 5, 68, 64
11, 61446, Note_on_c, 5, 70, 33
11, 61448, Note_on_c, 5, 65, 33
11, 61920, Note_off_c, 5, 65, 64
11, 61920, Note_off_c, 5, 70, 64
11, 61926, Note_on_c, 5, 70, 33
11, 61928, Note_on_c, 5, 64, 33
11, 62400, Note_off_c, 5, 64, 64
11, 62400, Note_off_c, 5, 70, 64
11, 62406, Note_on_c, 5, 69, 33
11, 62408, Note_on_c, 5, 62, 33
11, 62880, Note_off_c, 5, 62, 64
11, 62880, Note_off_c, 5, 69, 64
11, 62886, Note_on_c, 5, 70, 33
11, 62888, Note_on_c, 5, 64, 33
11, 63360, Note_off_c, 5, 64, 64
11, 63360, Note_off_c, 5, 70, 64
11, 78726, Note_on_c, 5, 72, 33
11, 78728, Note_on_c, 5, 67, 33
11, 79680, Note_off_c, 5, 67, 64
11, 79680, Note_off_c, 5, 72, 64
11, 79686, Note_on_c, 5, 70, 33
11, 79688, Note_on_c, 5, 65, 33
11, 80160, Note_off_c, 5, 65, 64
11, 80160, Note_off_c, 5, 70, 64
11, 80166, Note_on_c, 5, 70, 33
11, 80168, Note_on_c, 5, 64, 33
11, 80640, Note_off_c, 5, 64, 64
11, 80640, Note_off_c, 5, 70, 64
11, 80646, Note_on_c, 5, 69, 33
11, 80648, Note_on_c, 5, 63, 33
11, 81600, Note_off_c, 5, 63, 64
11, 81600, Note_off_c, 5, 69, 64
11, 81606, Note_on_c, 5, 68, 33
11, 81608, Note_on_c, 5, 62, 33
11, 82560, Note_off_c, 5, 62, 64
11, 82560, Note_off_c, 5, 68, 64
11, 82566, Note_on_c, 5, 68, 33
11, 82568, Note_on_c, 5, 61, 33
11, 83040, Note_off_c, 5, 61, 64
11, 83040, Note_off_c, 5, 68, 64
11, 83046, Note_on_c, 5, 67, 33
11, 83048, Note_on_c, 5, 61, 33
11, 83520, Note_off_c, 5, 61, 64
11, 83520, Note_off_c, 5, 67, 64
11, 83526, Note_on_c, 5, 66, 33
11, 83528, Note_on_c, 5, 61, 33
11, 84000, Note_off_c, 5, 61, 64
11, 84000, Note_off_c, 5, 66, 64
11, 84006, Note_on_c, 5, 72, 33
11, 84008, Note_on_c, 5, 66, 33
11, 84480, Note_off_c, 5, 66, 64
11, 84480, Note_off_c, 5, 72, 64
11, 84486, Note_on_c, 5, 72, 33
11, 84488, Note_on_c, 5, 65, 33
11, 84960, Note_off_c, 5, 65, 64
11, 84960, Note_off_c, 5, 72, 64
11, 84966, Note_on_c, 5, 71, 33
11, 84968, Note_on_c, 5, 65, 33
11, 85440, Note_off_c, 5, 65, 64
11, 85440, Note_off_c, 5, 71, 64
11, 85446, Note_on_c, 5, 70, 33
11, 85448, Note_on_c, 5, 65, 33
11, 85920, Note_off_c, 5, 65, 64
11, 85920, Note_off_c, 5, 70, 64
11, 85926, Note_on_c, 5, 70, 33
11, 85928, Note_on_c, 5, 64, 33
11, 86400, Note_off_c, 5, 64, 64
11, 86400, Note_off_c, 5, 70, 64
11, 94086, Note_on_c, 5, 69, 40
11, 94088, Note_on_c, 5, 62, 40
11, 95998, Note_off_c, 5, 69, 64
11, 96000, Note_off_c, 5, 62, 64
11, 96000, Control_c, 5, 64, 0
11, 96000, End_track
12, 0, Start_track
12, 0, Title_t, "Guitar / Nylon"
12, 0, Program_c, 6, 24
12, 0, Control_c, 6, 7, 90
12, 0, Control_c, 6, 121, 0
12, 0, Control_c, 6, 10, 64
12, 0, Control_c, 6, 123, 0
12, 0, Control_c, 6, 91, 40
12, 0, Control_c, 6, 93, 0
12, 0, Control_c, 6, 64, 0
12, 2638, Note_on_c, 6, 56, 60
12, 2644, Note_on_c, 6, 62, 31
12, 2702, Note_off_c, 6, 56, 64
12, 2708, Note_off_c, 6, 62, 64
12, 3118, Note_on_c, 6, 55, 60
12, 3124, Note_on_c, 6, 60, 31
12, 3182, Note_off_c, 6, 55, 64
12, 3188, Note_off_c, 6, 60, 64
12, 3598, Note_on_c, 6, 60, 60
12, 3604, Note_on_c, 6, 66, 31
12, 3662, Note_off_c, 6, 60, 64
12, 3668, Note_off_c, 6, 66, 64
12, 4078, Note_on_c, 6, 58, 60
12, 4084, Note_on_c, 6, 65, 31
12, 4142, Note_off_c, 6, 58, 64
12, 4148, Note_off_c, 6, 65, 64
12, 4560, Note_on_c, 6, 65, 52
12, 4560, Note_on_c, 6, 58, 66
12, 4624, Note_off_c, 6, 58, 64
12, 4632, Note_off_c, 6, 65, 64
12, 5038, Note_on_c, 6, 56, 60
12, 5044, Note_on_c, 6, 61, 31
12, 5102, Note_off_c, 6, 56, 64
12, 5108, Note_off_c, 6, 61, 64
12, 5998, Note_on_c, 6, 57, 60
12, 6004, Note_on_c, 6, 63, 31
12, 6062, Note_off_c, 6, 57, 64
12, 6068, Note_off_c, 6, 63, 64
12, 6958, Note_on_c, 6, 60, 60
12, 6964, Note_on_c, 6, 66, 31
12, 7022, Note_off_c, 6, 60, 64
12, 7028, Note_off_c, 6, 66, 64
12, 7918, Note_on_c, 6, 58, 60
12, 7924, Note_on_c, 6, 65, 31
12, 7982, Note_off_c, 6, 58, 64
12, 7988, Note_off_c, 6, 65, 64
12, 8398, Note_on_c, 6, 59, 60
12, 8404, Note_on_c, 6, 65, 31
12, 8462, Note_off_c, 6, 59, 64
12, 8468, Note_off_c, 6, 65, 64
12, 8878, Note_on_c, 6, 58, 60
12, 8884, Note_on_c, 6, 64, 31
12, 8942, Note_off_c, 6, 58, 64
12, 8948, Note_off_c, 6, 64, 64
12, 9358, Note_on_c, 6, 58, 60
12, 9364, Note_on_c, 6, 64, 31
12, 9422, Note_off_c, 6, 58, 64
12, 9428, Note_off_c, 6, 64, 64
12, 9838, Note_on_c, 6, 57, 60
12, 9844, Note_on_c, 6, 64, 31
12, 9902, Note_off_c, 6, 57, 64
12, 9908, Note_off_c, 6, 64, 64
12, 10318, Note_on_c, 6, 56, 60
12, 10324, Note_on_c, 6, 62, 31
12, 10382, Note_off_c, 6, 56, 64
12, 10388, Note_off_c, 6, 62, 64
12, 10798, Note_on_c, 6, 55, 60
12, 10804, Note_on_c, 6, 60, 31
12, 10862, Note_off_c, 6, 55, 64
12, 10868, Note_off_c, 6, 60, 64
12, 11278, Note_on_c, 6, 60, 60
12, 11284, Note_on_c, 6, 66, 31
12, 11342, Note_off_c, 6, 60, 64
12, 11348, Note_off_c, 6, 66, 64
12, 11758, Note_on_c, 6, 58, 60
12, 11764, Note_on_c, 6, 65, 31
12, 11822, Note_off_c, 6, 58, 64
12, 11828, Note_off_c, 6, 65, 64
12, 12240, Note_on_c, 6, 65, 52
12, 12240, Note_on_c, 6, 58, 66
12, 12304, Note_off_c, 6, 58, 64
12, 12312, Note_off_c, 6, 65, 64
12, 12718, Note_on_c, 6, 56, 60
12, 12724, Note_on_c, 6, 61, 31
12, 12782, Note_off_c, 6, 56, 64
12, 12788, Note_off_c, 6, 61, 64
12, 13678, Note_on_c, 6, 57, 60
12, 13684, Note_on_c, 6, 63, 31
12, 13742, Note_off_c, 6, 57, 64
12, 13748, Note_off_c, 6, 63, 64
12, 14638, Note_on_c, 6, 60, 60
12, 14644, Note_on_c, 6, 66, 31
12, 14702, Note_off_c, 6, 60, 64
12, 14708, Note_off_c, 6, 66, 64
12, 15598, Note_on_c, 6, 58, 60
12, 15604, Note_on_c, 6, 65, 31
12, 15662, Note_off_c, 6, 58, 64
12, 15668, Note_off_c, 6, 65, 64
12, 16078, Note_on_c, 6, 59, 60
12, 16084, Note_on_c, 6, 65, 31
12, 16142, Note_off_c, 6, 59, 64
12, 16148, Note_off_c, 6, 65, 64
12, 16558, Note_on_c, 6, 58, 60
12, 16564, Note_on_c, 6, 65, 31
12, 16622, Note_off_c, 6, 58, 64
12, 16628, Note_off_c, 6, 65, 64
12, 17038, Note_on_c, 6, 55, 60
12, 17044, Note_on_c, 6, 61, 31
12, 17102, Note_off_c, 6, 55, 64
12, 17108, Note_off_c, 6, 61, 64
12, 17518, Note_on_c, 6, 60, 60
12, 17524, Note_on_c, 6, 67, 31
12, 17582, Note_off_c, 6, 60, 64
12, 17588, Note_off_c, 6, 67, 64
12, 18000, Note_on_c, 6, 67, 52
12, 18000, Note_on_c, 6, 60, 66
12, 18064, Note_off_c, 6, 60, 64
12, 18072, Note_off_c, 6, 67, 64
12, 18240, Control_c, 6, 64, 127
12, 18244, Note_on_c, 6, 58, 42
12, 18248, Note_on_c, 6, 65, 35
12, 18470, Note_off_c, 6, 58, 64
12, 18480, Note_off_c, 6, 65, 64
12, 18480, Control_c, 6, 64, 0
12, 18484, Note_on_c, 6, 58, 54
12, 18490, Note_on_c, 6, 65, 51
12, 18524, Note_off_c, 6, 65, 64
12, 18526, Note_off_c, 6, 58, 64
12, 18720, Control_c, 6, 64, 0
12, 18720, Control_c, 6, 64, 0
12, 18958, Note_on_c, 6, 58, 60
12, 18964, Note_on_c, 6, 64, 31
12, 19022, Note_off_c, 6, 58, 64
12, 19028, Note_off_c, 6, 64, 64
12, 19438, Note_on_c, 6, 57, 60
12, 19444, Note_on_c, 6, 63, 31
12, 19502, Note_off_c, 6, 57, 64
12, 19508, Note_off_c, 6, 63, 64
12, 19920, Note_on_c, 6, 63, 52
12, 19920, Note_on_c, 6, 57, 66
12, 19984, Note_off_c, 6, 57, 64
12, 19992, Note_off_c, 6, 63, 64
12, 20160, Control_c, 6, 64, 127
12, 20164, Note_on_c, 6, 56, 42
12, 20168, Note_on_c, 6, 62, 35
12, 20390, Note_off_c, 6, 56, 64
12, 20400, Note_off_c, 6, 62, 64
12, 20400, Control_c, 6, 64, 0
12, 20404, Note_on_c, 6, 56, 54
12, 20410, Note_on_c, 6, 62, 51
12, 20444, Note_off_c, 6, 62, 64
12, 20446, Note_off_c, 6, 56, 64
12, 20640, Control_c, 6, 64, 127
12, 20646, Note_on_c, 6, 56, 40
12, 20650, Note_on_c, 6, 62, 33
12, 20876, Note_off_c, 6, 56, 64
12, 20880, Control_c, 6, 64, 0
12, 20884, Note_on_c, 6, 56, 50
12, 20886, Note_off_c, 6, 62, 64
12, 20890, Note_on_c, 6, 62, 50
12, 20932, Note_off_c, 6, 62, 64
12, 20934, Note_off_c, 6, 56, 64
12, 21120, Control_c, 6, 64, 0
12, 21120, Control_c, 6, 64, 0
12, 21358, Note_on_c, 6, 56, 60
12, 21364, Note_on_c, 6, 61, 31
12, 21422, Note_off_c, 6, 56, 64
12, 21428, Note_off_c, 6, 61, 64
12, 21838, Note_on_c, 6, 55, 60
12, 21844, Note_on_c, 6, 61, 31
12, 21902, Note_off_c, 6, 55, 64
12, 21908, Note_off_c, 6, 61, 64
12, 22080, Control_c, 6, 64, 127
12, 22084, Note_on_c, 6, 54, 42
12, 22088, Note_on_c, 6, 61, 35
12, 22310, Note_off_c, 6, 54, 64
12, 22320, Note_off_c, 6, 61, 64
12, 22320, Control_c, 6, 64, 0
12, 22324, Note_on_c, 6, 54, 54
12, 22330, Note_on_c, 6, 61, 51
12, 22364, Note_off_c, 6, 61, 64
12, 22366, Note_off_c, 6, 54, 64
12, 22560, Control_c, 6, 64, 0
12, 22560, Control_c, 6, 64, 0
12, 22798, Note_on_c, 6, 60, 60
12, 22804, Note_on_c, 6, 66, 31
12, 22862, Note_off_c, 6, 60, 64
12, 22868, Note_off_c, 6, 66, 64
12, 23040, Control_c, 6, 64, 127
12, 23044, Note_on_c, 6, 60, 42
12, 23048, Note_on_c, 6, 65, 35
12, 23270, Note_off_c, 6, 60, 64
12, 23280, Note_off_c, 6, 65, 64
12, 23280, Control_c, 6, 64, 0
12, 23284, Note_on_c, 6, 60, 54
12, 23290, Note_on_c, 6, 65, 51
12, 23324, Note_off_c, 6, 65, 64
12, 23326, Note_off_c, 6, 60, 64
12, 23520, Control_c, 6, 64, 0
12, 23520, Control_c, 6, 64, 0
12, 23758, Note_on_c, 6, 59, 60
12, 23764, Note_on_c, 6, 65, 31
12, 23822, Note_off_c, 6, 59, 64
12, 23828, Note_off_c, 6, 65, 64
12, 24000, Control_c, 6, 64, 127
12, 24004, Note_on_c, 6, 58, 42
12, 24008, Note_on_c, 6, 65, 35
12, 24230, Note_off_c, 6, 58, 64
12, 24240, Note_off_c, 6, 65, 64
12, 24240, Control_c, 6, 64, 0
12, 24244, Note_on_c, 6, 58, 54
12, 24250, Note_on_c, 6, 65, 51
12, 24284, Note_off_c, 6, 65, 64
12, 24286, Note_off_c, 6, 58, 64
12, 24480, Control_c, 6, 64, 0
12, 24480, Control_c, 6, 64, 0
12, 24480, Control_c, 6, 64, 127
12, 24484, Note_on_c, 6, 58, 42
12, 24488, Note_on_c, 6, 64, 35
12, 24710, Note_off_c, 6, 58, 64
12, 24720, Note_off_c, 6, 64, 64
12, 24720, Control_c, 6, 64, 0
12, 24724, Note_on_c, 6, 58, 54
12, 24730, Note_on_c, 6, 64, 51
12, 24764, Note_off_c, 6, 64, 64
12, 24766, Note_off_c, 6, 58, 64
12, 24960, Control_c, 6, 64, 0
12, 24960, Control_c, 6, 64, 0
12, 25198, Note_on_c, 6, 57, 60
12, 25204, Note_on_c, 6, 64, 31
12, 25262, Note_off_c, 6, 57, 64
12, 25268, Note_off_c, 6, 64, 64
12, 25678, Note_on_c, 6, 56, 60
12, 25684, Note_on_c, 6, 62, 31
12, 25742, Note_off_c, 6, 56, 64
12, 25748, Note_off_c, 6, 62, 64
12, 26158, Note_on_c, 6, 55, 60
12, 26164, Note_on_c, 6, 60, 31
12, 26222, Note_off_c, 6, 55, 64
12, 26228, Note_off_c, 6, 60, 64
12, 26638, Note_on_c, 6, 60, 60
12, 26644, Note_on_c, 6, 66, 31
12, 26702, Note_off_c, 6, 60, 64
12, 26708, Note_off_c, 6, 66, 64
12, 27118, Note_on_c, 6, 58, 60
12, 27124, Note_on_c, 6, 65, 31
12, 27182, Note_off_c, 6, 58, 64
12, 27188, Note_off_c, 6, 65, 64
12, 27600, Note_on_c, 6, 65, 52
12, 27600, Note_on_c, 6, 58, 66
12, 27664, Note_off_c, 6, 58, 64
12, 27672, Note_off_c, 6, 65, 64
12, 28078, Note_on_c, 6, 56, 60
12, 28084, Note_on_c, 6, 61, 31
12, 28142, Note_off_c, 6, 56, 64
12, 28148, Note_off_c, 6, 61, 64
12, 29038, Note_on_c, 6, 57, 60
12, 29044, Note_on_c, 6, 63, 31
12, 29102, Note_off_c, 6, 57, 64
12, 29108, Note_off_c, 6, 63, 64
12, 29998, Note_on_c, 6, 60, 60
12, 30004, Note_on_c, 6, 66, 31
12, 30062, Note_off_c, 6, 60, 64
12, 30068, Note_off_c, 6, 66, 64
12, 30958, Note_on_c, 6, 58, 60
12, 30964, Note_on_c, 6, 65, 31
12, 31022, Note_off_c, 6, 58, 64
12, 31028, Note_off_c, 6, 65, 64
12, 31438, Note_on_c, 6, 58, 60
12, 31444, Note_on_c, 6, 64, 31
12, 31502, Note_off_c, 6, 58, 64
12, 31508, Note_off_c, 6, 64, 64
12, 31918, Note_on_c, 6, 57, 60
12, 31924, Note_on_c, 6, 62, 31
12, 31982, Note_off_c, 6, 57, 64
12, 31988, Note_off_c, 6, 62, 64
12, 32398, Note_on_c, 6, 58, 60
12, 32404, Note_on_c, 6, 64, 31
12, 32462, Note_off_c, 6, 58, 64
12, 32468, Note_off_c, 6, 64, 64
12, 32878, Note_on_c, 6, 57, 60
12, 32884, Note_on_c, 6, 64, 31
12, 32942, Note_off_c, 6, 57, 64
12, 32948, Note_off_c, 6, 64, 64
12, 33120, Control_c, 6, 64, 127
12, 33124, Note_on_c, 6, 56, 42
12, 33128, Note_on_c, 6, 62, 35
12, 33350, Note_off_c, 6, 56, 64
12, 33360, Note_off_c, 6, 62, 64
12, 33360, Control_c, 6, 64, 0
12, 33364, Note_on_c, 6, 56, 54
12, 33370, Note_on_c, 6, 62, 51
12, 33404, Note_off_c, 6, 62, 64
12, 33406, Note_off_c, 6, 56, 64
12, 33600, Control_c, 6, 64, 0
12, 33600, Control_c, 6, 64, 0
12, 33838, Note_on_c, 6, 55, 60
12, 33844, Note_on_c, 6, 60, 31
12, 33902, Note_off_c, 6, 55, 64
12, 33908, Note_off_c, 6, 60, 64
12, 34318, Note_on_c, 6, 60, 60
12, 34324, Note_on_c, 6, 66, 31
12, 34382, Note_off_c, 6, 60, 64
12, 34388, Note_off_c, 6, 66, 64
12, 34798, Note_on_c, 6, 58, 60
12, 34804, Note_on_c, 6, 65, 31
12, 34862, Note_off_c, 6, 58, 64
12, 34868, Note_off_c, 6, 65, 64
12, 35280, Note_on_c, 6, 65, 52
12, 35280, Note_on_c, 6, 58, 66
12, 35344, Note_off_c, 6, 58, 64
12, 35352, Note_off_c, 6, 65, 64
12, 35758, Note_on_c, 6, 56, 60
12, 35764, Note_on_c, 6, 61, 31
12, 35822, Note_off_c, 6, 56, 64
12, 35828, Note_off_c, 6, 61, 64
12, 36718, Note_on_c, 6, 57, 60
12, 36724, Note_on_c, 6, 63, 31
12, 36782, Note_off_c, 6, 57, 64
12, 36788, Note_off_c, 6, 63, 64
12, 37678, Note_on_c, 6, 60, 60
12, 37684, Note_on_c, 6, 66, 31
12, 37742, Note_off_c, 6, 60, 64
12, 37748, Note_off_c, 6, 66, 64
12, 38638, Note_on_c, 6, 58, 60
12, 38644, Note_on_c, 6, 65, 31
12, 38702, Note_off_c, 6, 58, 64
12, 38708, Note_off_c, 6, 65, 64
12, 38880, Control_c, 6, 64, 127
12, 38884, Note_on_c, 6, 59, 42
12, 38888, Note_on_c, 6, 65, 35
12, 39110, Note_off_c, 6, 59, 64
12, 39120, Note_off_c, 6, 65, 64
12, 39120, Control_c, 6, 64, 0
12, 39124, Note_on_c, 6, 59, 54
12, 39130, Note_on_c, 6, 65, 51
12, 39164, Note_off_c, 6, 65, 64
12, 39166, Note_off_c, 6, 59, 64
12, 39360, Control_c, 6, 64, 0
12, 39360, Control_c, 6, 64, 0
12, 39598, Note_on_c, 6, 58, 60
12, 39604, Note_on_c, 6, 64, 31
12, 39662, Note_off_c, 6, 58, 64
12, 39668, Note_off_c, 6, 64, 64
12, 40078, Note_on_c, 6, 58, 60
12, 40084, Note_on_c, 6, 64, 31
12, 40142, Note_off_c, 6, 58, 64
12, 40148, Note_off_c, 6, 64, 64
12, 40558, Note_on_c, 6, 57, 60
12, 40564, Note_on_c, 6, 64, 31
12, 40622, Note_off_c, 6, 57, 64
12, 40628, Note_off_c, 6, 64, 64
12, 41038, Note_on_c, 6, 56, 60
12, 41044, Note_on_c, 6, 62, 31
12, 41102, Note_off_c, 6, 56, 64
12, 41108, Note_off_c, 6, 62, 64
12, 41518, Note_on_c, 6, 55, 60
12, 41524, Note_on_c, 6, 60, 31
12, 41582, Note_off_c, 6, 55, 64
12, 41588, Note_off_c, 6, 60, 64
12, 41760, Control_c, 6, 64, 127
12, 41764, Note_on_c, 6, 60, 42
12, 41768, Note_on_c, 6, 66, 35
12, 41990, Note_off_c, 6, 60, 64
12, 42000, Note_off_c, 6, 66, 64
12, 42000, Control_c, 6, 64, 0
12, 42004, Note_on_c, 6, 60, 54
12, 42010, Note_on_c, 6, 66, 51
12, 42044, Note_off_c, 6, 66, 64
12, 42046, Note_off_c, 6, 60, 64
12, 42240, Control_c, 6, 64, 0
12, 42240, Control_c, 6, 64, 0
12, 42478, Note_on_c, 6, 58, 60
12, 42484, Note_on_c, 6, 65, 31
12, 42542, Note_off_c, 6, 58, 64
12, 42548, Note_off_c, 6, 65, 64
12, 42960, Note_on_c, 6, 65, 52
12, 42960, Note_on_c, 6, 58, 66
12, 43024, Note_off_c, 6, 58, 64
12, 43032, Note_off_c, 6, 65, 64
12, 43200, Control_c, 6, 64, 127
12, 43204, Note_on_c, 6, 56, 42
12, 43208, Note_on_c, 6, 61, 35
12, 43430, Note_off_c, 6, 56, 64
12, 43440, Note_off_c, 6, 61, 64
12, 43440, Control_c, 6, 64, 0
12, 43444, Note_on_c, 6, 56, 54
12, 43450, Note_on_c, 6, 61, 51
12, 43484, Note_off_c, 6, 61, 64
12, 43486, Note_off_c, 6, 56, 64
12, 43680, Control_c, 6, 64, 0
12, 43680, Control_c, 6, 64, 0
12, 43680, Control_c, 6, 64, 127
12, 43684, Note_on_c, 6, 55, 42
12, 43688, Note_on_c, 6, 61, 35
12, 43910, Note_off_c, 6, 55, 64
12, 43920, Note_off_c, 6, 61, 64
12, 43920, Control_c, 6, 64, 0
12, 44398, Note_on_c, 6, 57, 60
12, 44404, Note_on_c, 6, 63, 31
12, 44462, Note_off_c, 6, 57, 64
12, 44468, Note_off_c, 6, 63, 64
12, 44640, Control_c, 6, 64, 127
12, 44644, Note_on_c, 6, 56, 42
12, 44648, Note_on_c, 6, 62, 35
12, 44870, Note_off_c, 6, 56, 64
12, 44880, Note_off_c, 6, 62, 64
12, 44880, Control_c, 6, 64, 0
12, 44880, Control_c, 6, 64, 127
12, 44884, Note_on_c, 6, 55, 42
12, 44888, Note_on_c, 6, 61, 35
12, 45110, Note_off_c, 6, 55, 64
12, 45120, Note_off_c, 6, 61, 64
12, 45120, Control_c, 6, 64, 0
12, 45358, Note_on_c, 6, 60, 60
12, 45364, Note_on_c, 6, 66, 31
12, 45422, Note_off_c, 6, 60, 64
12, 45428, Note_off_c, 6, 66, 64
12, 45840, Control_c, 6, 64, 127
12, 45844, Note_on_c, 6, 58, 42
12, 45848, Note_on_c, 6, 64, 35
12, 46070, Note_off_c, 6, 58, 64
12, 46080, Note_off_c, 6, 64, 64
12, 46080, Control_c, 6, 64, 0
12, 46318, Note_on_c, 6, 58, 60
12, 46324, Note_on_c, 6, 65, 31
12, 46382, Note_off_c, 6, 58, 64
12, 46388, Note_off_c, 6, 65, 64
12, 46798, Note_on_c, 6, 59, 60
12, 46804, Note_on_c, 6, 65, 31
12, 46862, Note_off_c, 6, 59, 64
12, 46868, Note_off_c, 6, 65, 64
12, 47278, Note_on_c, 6, 58, 60
12, 47284, Note_on_c, 6, 65, 31
12, 47342, Note_off_c, 6, 58, 64
12, 47348, Note_off_c, 6, 65, 64
12, 47520, Control_c, 6, 64, 127
12, 47524, Note_on_c, 6, 55, 42
12, 47528, Note_on_c, 6, 61, 35
12, 47750, Note_off_c, 6, 55, 64
12, 47760, Note_off_c, 6, 61, 64
12, 47760, Control_c, 6, 64, 0
12, 47764, Note_on_c, 6, 55, 54
12, 47770, Note_on_c, 6, 61, 51
12, 47804, Note_off_c, 6, 61, 64
12, 47806, Note_off_c, 6, 55, 64
12, 48000, Control_c, 6, 64, 0
12, 48000, Control_c, 6, 64, 0
12, 48238, Note_on_c, 6, 60, 60
12, 48244, Note_on_c, 6, 67, 31
12, 48302, Note_off_c, 6, 60, 64
12, 48308, Note_off_c, 6, 67, 64
12, 48720, Note_on_c, 6, 67, 52
12, 48720, Note_on_c, 6, 60, 66
12, 48784, Note_off_c, 6, 60, 64
12, 48792, Note_off_c, 6, 67, 64
12, 49198, Note_on_c, 6, 58, 60
12, 49204, Note_on_c, 6, 65, 31
12, 49262, Note_off_c, 6, 58, 64
12, 49268, Note_off_c, 6, 65, 64
12, 49678, Note_on_c, 6, 58, 60
12, 49684, Note_on_c, 6, 64, 31
12, 49742, Note_off_c, 6, 58, 64
12, 49748, Note_off_c, 6, 64, 64
12, 50158, Note_on_c, 6, 57, 60
12, 50164, Note_on_c, 6, 63, 31
12, 50222, Note_off_c, 6, 57, 64
12, 50228, Note_off_c, 6, 63, 64
12, 50640, Note_on_c, 6, 63, 52
12, 50640, Note_on_c, 6, 57, 66
12, 50704, Note_off_c, 6, 57, 64
12, 50712, Note_off_c, 6, 63, 64
12, 50880, Control_c, 6, 64, 127
12, 50884, Note_on_c, 6, 56, 42
12, 50888, Note_on_c, 6, 62, 35
12, 51110, Note_off_c, 6, 56, 64
12, 51120, Note_off_c, 6, 62, 64
12, 51120, Control_c, 6, 64, 0
12, 51124, Note_on_c, 6, 56, 54
12, 51130, Note_on_c, 6, 62, 51
12, 51164, Note_off_c, 6, 62, 64
12, 51166, Note_off_c, 6, 56, 64
12, 51360, Control_c, 6, 64, 127
12, 51366, Note_on_c, 6, 56, 40
12, 51370, Note_on_c, 6, 62, 33
12, 51596, Note_off_c, 6, 56, 64
12, 51600, Control_c, 6, 64, 0
12, 51604, Note_on_c, 6, 56, 50
12, 51606, Note_off_c, 6, 62, 64
12, 51610, Note_on_c, 6, 62, 50
12, 51652, Note_off_c, 6, 62, 64
12, 51654, Note_off_c, 6, 56, 64
12, 51840, Control_c, 6, 64, 0
12, 51840, Control_c, 6, 64, 0
12, 52078, Note_on_c, 6, 56, 60
12, 52084, Note_on_c, 6, 61, 31
12, 52142, Note_off_c, 6, 56, 64
12, 52148, Note_off_c, 6, 61, 64
12, 52320, Control_c, 6, 64, 127
12, 52324, Note_on_c, 6, 55, 42
12, 52328, Note_on_c, 6, 61, 35
12, 52550, Note_off_c, 6, 55, 64
12, 52560, Note_off_c, 6, 61, 64
12, 52560, Control_c, 6, 64, 0
12, 52564, Note_on_c, 6, 55, 54
12, 52570, Note_on_c, 6, 61, 51
12, 52604, Note_off_c, 6, 61, 64
12, 52606, Note_off_c, 6, 55, 64
12, 52800, Control_c, 6, 64, 0
12, 52800, Control_c, 6, 64, 0
12, 53038, Note_on_c, 6, 54, 60
12, 53044, Note_on_c, 6, 61, 31
12, 53102, Note_off_c, 6, 54, 64
12, 53108, Note_off_c, 6, 61, 64
12, 53280, Control_c, 6, 64, 127
12, 53284, Note_on_c, 6, 60, 42
12, 53288, Note_on_c, 6, 66, 35
12, 53510, Note_off_c, 6, 60, 64
12, 53520, Note_off_c, 6, 66, 64
12, 53520, Control_c, 6, 64, 0
12, 53524, Note_on_c, 6, 60, 54
12, 53530, Note_on_c, 6, 66, 51
12, 53564, Note_off_c, 6, 66, 64
12, 53566, Note_off_c, 6, 60, 64
12, 53760, Control_c, 6, 64, 0
12, 53760, Control_c, 6, 64, 0
12, 53760, Control_c, 6, 64, 127
12, 53764, Note_on_c, 6, 60, 42
12, 53768, Note_on_c, 6, 65, 35
12, 53990, Note_off_c, 6, 60, 64
12, 54000, Note_off_c, 6, 65, 64
12, 54000, Control_c, 6, 64, 0
12, 54004, Note_on_c, 6, 60, 54
12, 54010, Note_on_c, 6, 65, 51
12, 54044, Note_off_c, 6, 65, 64
12, 54046, Note_off_c, 6, 60, 64
12, 54240, Control_c, 6, 64, 0
12, 54240, Control_c, 6, 64, 0
12, 54478, Note_on_c, 6, 59, 60
12, 54484, Note_on_c, 6, 65, 31
12, 54542, Note_off_c, 6, 59, 64
12, 54548, Note_off_c, 6, 65, 64
12, 54958, Note_on_c, 6, 58, 60
12, 54964, Note_on_c, 6, 65, 31
12, 55022, Note_off_c, 6, 58, 64
12, 55028, Note_off_c, 6, 65, 64
12, 55438, Note_on_c, 6, 58, 60
12, 55444, Note_on_c, 6, 64, 31
12, 55502, Note_off_c, 6, 58, 64
12, 55508, Note_off_c, 6, 64, 64
12, 55918, Note_on_c, 6, 57, 60
12, 55924, Note_on_c, 6, 64, 31
12, 55982, Note_off_c, 6, 57, 64
12, 55988, Note_off_c, 6, 64, 64
12, 56160, Control_c, 6, 64, 127
12, 56164, Note_on_c, 6, 56, 42
12, 56168, Note_on_c, 6, 62, 35
12, 56390, Note_off_c, 6, 56, 64
12, 56400, Note_off_c, 6, 62, 64
12, 56400, Control_c, 6, 64, 0
12, 56404, Note_on_c, 6, 56, 54
12, 56410, Note_on_c, 6, 62, 51
12, 56444, Note_off_c, 6, 62, 64
12, 56446, Note_off_c, 6, 56, 64
12, 56640, Control_c, 6, 64, 0
12, 56640, Control_c, 6, 64, 0
12, 56640, Control_c, 6, 64, 127
12, 56644, Note_on_c, 6, 55, 42
12, 56648, Note_on_c, 6, 60, 35
12, 56870, Note_off_c, 6, 55, 64
12, 56880, Note_off_c, 6, 60, 64
12, 56880, Control_c, 6, 64, 0
12, 56884, Note_on_c, 6, 55, 54
12, 56890, Note_on_c, 6, 60, 51
12, 56924, Note_off_c, 6, 60, 64
12, 56926, Note_off_c, 6, 55, 64
12, 57120, Control_c, 6, 64, 0
12, 57120, Control_c, 6, 64, 0
12, 57358, Note_on_c, 6, 60, 60
12, 57364, Note_on_c, 6, 66, 31
12, 57422, Note_off_c, 6, 60, 64
12, 57428, Note_off_c, 6, 66, 64
12, 57600, Control_c, 6, 64, 127
12, 57604, Note_on_c, 6, 58, 42
12, 57608, Note_on_c, 6, 65, 35
12, 57830, Note_off_c, 6, 58, 64
12, 57840, Note_off_c, 6, 65, 64
12, 57840, Control_c, 6, 64, 0
12, 57844, Note_on_c, 6, 58, 54
12, 57850, Note_on_c, 6, 65, 51
12, 57884, Note_off_c, 6, 65, 64
12, 57886, Note_off_c, 6, 58, 64
12, 58080, Control_c, 6, 64, 127
12, 58086, Note_on_c, 6, 58, 40
12, 58090, Note_on_c, 6, 65, 33
12, 58316, Note_off_c, 6, 58, 64
12, 58320, Control_c, 6, 64, 0
12, 58324, Note_on_c, 6, 58, 50
12, 58326, Note_off_c, 6, 65, 64
12, 58330, Note_on_c, 6, 65, 50
12, 58372, Note_off_c, 6, 65, 64
12, 58374, Note_off_c, 6, 58, 64
12, 58560, Control_c, 6, 64, 0
12, 58560, Control_c, 6, 64, 0
12, 58560, Control_c, 6, 64, 127
12, 58564, Note_on_c, 6, 56, 42
12, 58568, Note_on_c, 6, 61, 35
12, 58790, Note_off_c, 6, 56, 64
12, 58800, Note_off_c, 6, 61, 64
12, 58800, Control_c, 6, 64, 0
12, 58804, Note_on_c, 6, 56, 54
12, 58810, Note_on_c, 6, 61, 51
12, 58844, Note_off_c, 6, 61, 64
12, 58846, Note_off_c, 6, 56, 64
12, 59040, Control_c, 6, 64, 0
12, 59040, Control_c, 6, 64, 0
12, 59280, Control_c, 6, 64, 127
12, 59284, Note_on_c, 6, 58, 42
12, 59288, Note_on_c, 6, 64, 35
12, 59510, Note_off_c, 6, 58, 64
12, 59520, Note_off_c, 6, 64, 64
12, 59520, Control_c, 6, 64, 0
12, 59758, Note_on_c, 6, 57, 60
12, 59764, Note_on_c, 6, 63, 31
12, 59822, Note_off_c, 6, 57, 64
12, 59828, Note_off_c, 6, 63, 64
12, 60000, Control_c, 6, 64, 127
12, 60004, Note_on_c, 6, 56, 42
12, 60008, Note_on_c, 6, 62, 35
12, 60230, Note_off_c, 6, 56, 64
12, 60240, Note_off_c, 6, 62, 64
12, 60240, Control_c, 6, 64, 0
12, 60480, Control_c, 6, 64, 127
12, 60484, Note_on_c, 6, 60, 42
12, 60488, Note_on_c, 6, 66, 35
12, 60710, Note_off_c, 6, 60, 64
12, 60720, Note_off_c, 6, 66, 64
12, 60720, Control_c, 6, 64, 0
12, 60724, Note_on_c, 6, 60, 54
12, 60730, Note_on_c, 6, 66, 51
12, 60764, Note_off_c, 6, 66, 64
12, 60766, Note_off_c, 6, 60, 64
12, 60960, Control_c, 6, 64, 0
12, 60960, Control_c, 6, 64, 0
12, 61200, Control_c, 6, 64, 127
12, 61204, Note_on_c, 6, 58, 42
12, 61208, Note_on_c, 6, 64, 35
12, 61430, Note_off_c, 6, 58, 64
12, 61440, Note_off_c, 6, 64, 64
12, 61440, Control_c, 6, 64, 0
12, 61440, Control_c, 6, 64, 127
12, 61444, Note_on_c, 6, 58, 42
12, 61448, Note_on_c, 6, 65, 35
12, 61670, Note_off_c, 6, 58, 64
12, 61680, Note_off_c, 6, 65, 64
12, 61680, Control_c, 6, 64, 0
12, 61684, Note_on_c, 6, 58, 54
12, 61690, Note_on_c, 6, 65, 51
12, 61724, Note_off_c, 6, 65, 64
12, 61726, Note_off_c, 6, 58, 64
12, 61920, Control_c, 6, 64, 0
12, 61920, Control_c, 6, 64, 0
12, 61920, Control_c, 6, 64, 127
12, 61924, Note_on_c, 6, 58, 42
12, 61928, Note_on_c, 6, 64, 35
12, 62150, Note_off_c, 6, 58, 64
12, 62160, Note_off_c, 6, 64, 64
12, 62160, Control_c, 6, 64, 0
12, 62164, Note_on_c, 6, 58, 54
12, 62170, Note_on_c, 6, 64, 51
12, 62204, Note_off_c, 6, 64, 64
12, 62206, Note_off_c, 6, 58, 64
12, 62400, Control_c, 6, 64, 0
12, 62400, Control_c, 6, 64, 0
12, 62400, Control_c, 6, 64, 127
12, 62404, Note_on_c, 6, 57, 42
12, 62408, Note_on_c, 6, 62, 35
12, 62630, Note_off_c, 6, 57, 64
12, 62640, Note_off_c, 6, 62, 64
12, 62640, Control_c, 6, 64, 0
12, 62644, Note_on_c, 6, 57, 54
12, 62650, Note_on_c, 6, 62, 51
12, 62684, Note_off_c, 6, 62, 64
12, 62686, Note_off_c, 6, 57, 64
12, 62880, Control_c, 6, 64, 0
12, 62880, Control_c, 6, 64, 0
12, 63118, Note_on_c, 6, 58, 60
12, 63124, Note_on_c, 6, 64, 31
12, 63182, Note_off_c, 6, 58, 64
12, 63188, Note_off_c, 6, 64, 64
12, 63598, Note_on_c, 6, 57, 60
12, 63604, Note_on_c, 6, 64, 31
12, 63662, Note_off_c, 6, 57, 64
12, 63668, Note_off_c, 6, 64, 64
12, 64078, Note_on_c, 6, 56, 60
12, 64084, Note_on_c, 6, 62, 31
12, 64142, Note_off_c, 6, 56, 64
12, 64148, Note_off_c, 6, 62, 64
12, 64558, Note_on_c, 6, 55, 60
12, 64564, Note_on_c, 6, 60, 31
12, 64622, Note_off_c, 6, 55, 64
12, 64628, Note_off_c, 6, 60, 64
12, 65038, Note_on_c, 6, 60, 60
12, 65044, Note_on_c, 6, 66, 31
12, 65102, Note_off_c, 6, 60, 64
12, 65108, Note_off_c, 6, 66, 64
12, 65518, Note_on_c, 6, 58, 60
12, 65524, Note_on_c, 6, 65, 31
12, 65582, Note_off_c, 6, 58, 64
12, 65588, Note_off_c, 6, 65, 64
12, 66000, Note_on_c, 6, 65, 52
12, 66000, Note_on_c, 6, 58, 66
12, 66064, Note_off_c, 6, 58, 64
12, 66072, Note_off_c, 6, 65, 64
12, 66478, Note_on_c, 6, 56, 60
12, 66484, Note_on_c, 6, 61, 31
12, 66542, Note_off_c, 6, 56, 64
12, 66548, Note_off_c, 6, 61, 64
12, 67438, Note_on_c, 6, 57, 60
12, 67444, Note_on_c, 6, 63, 31
12, 67502, Note_off_c, 6, 57, 64
12, 67508, Note_off_c, 6, 63, 64
12, 68398, Note_on_c, 6, 60, 60
12, 68404, Note_on_c, 6, 66, 31
12, 68462, Note_off_c, 6, 60, 64
12, 68468, Note_off_c, 6, 66, 64
12, 69358, Note_on_c, 6, 58, 60
12, 69364, Note_on_c, 6, 65, 31
12, 69422, Note_off_c, 6, 58, 64
12, 69428, Note_off_c, 6, 65, 64
12, 69838, Note_on_c, 6, 59, 60
12, 69844, Note_on_c, 6, 65, 31
12, 69902, Note_off_c, 6, 59, 64
12, 69908, Note_off_c, 6, 65, 64
12, 70318, Note_on_c, 6, 58, 60
12, 70324, Note_on_c, 6, 64, 31
12, 70382, Note_off_c, 6, 58, 64
12, 70388, Note_off_c, 6, 64, 64
12, 70798, Note_on_c, 6, 58, 60
12, 70804, Note_on_c, 6, 64, 31
12, 70862, Note_off_c, 6, 58, 64
12, 70868, Note_off_c, 6, 64, 64
12, 71278, Note_on_c, 6, 57, 60
12, 71284, Note_on_c, 6, 64, 31
12, 71342, Note_off_c, 6, 57, 64
12, 71348, Note_off_c, 6, 64, 64
12, 71758, Note_on_c, 6, 56, 60
12, 71764, Note_on_c, 6, 62, 31
12, 71822, Note_off_c, 6, 56, 64
12, 71828, Note_off_c, 6, 62, 64
12, 72238, Note_on_c, 6, 55, 60
12, 72244, Note_on_c, 6, 60, 31
12, 72302, Note_off_c, 6, 55, 64
12, 72308, Note_off_c, 6, 60, 64
12, 72718, Note_on_c, 6, 60, 60
12, 72724, Note_on_c, 6, 66, 31
12, 72782, Note_off_c, 6, 60, 64
12, 72788, Note_off_c, 6, 66, 64
12, 73198, Note_on_c, 6, 58, 60
12, 73204, Note_on_c, 6, 65, 31
12, 73262, Note_off_c, 6, 58, 64
12, 73268, Note_off_c, 6, 65, 64
12, 73680, Note_on_c, 6, 65, 52
12, 73680, Note_on_c, 6, 58, 66
12, 73744, Note_off_c, 6, 58, 64
12, 73752, Note_off_c, 6, 65, 64
12, 74158, Note_on_c, 6, 56, 60
12, 74164, Note_on_c, 6, 61, 31
12, 74222, Note_off_c, 6, 56, 64
12, 74228, Note_off_c, 6, 61, 64
12, 75118, Note_on_c, 6, 57, 60
12, 75124, Note_on_c, 6, 63, 31
12, 75182, Note_off_c, 6, 57, 64
12, 75188, Note_off_c, 6, 63, 64
12, 76078, Note_on_c, 6, 60, 60
12, 76084, Note_on_c, 6, 66, 31
12, 76142, Note_off_c, 6, 60, 64
12, 76148, Note_off_c, 6, 66, 64
12, 77038, Note_on_c, 6, 58, 60
12, 77044, Note_on_c, 6, 65, 31
12, 77102, Note_off_c, 6, 58, 64
12, 77108, Note_off_c, 6, 65, 64
12, 77518, Note_on_c, 6, 59, 60
12, 77524, Note_on_c, 6, 65, 31
12, 77582, Note_off_c, 6, 59, 64
12, 77588, Note_off_c, 6, 65, 64
12, 77998, Note_on_c, 6, 58, 60
12, 78004, Note_on_c, 6, 65, 31
12, 78062, Note_off_c, 6, 58, 64
12, 78068, Note_off_c, 6, 65, 64
12, 78478, Note_on_c, 6, 55, 60
12, 78484, Note_on_c, 6, 61, 31
12, 78542, Note_off_c, 6, 55, 64
12, 78548, Note_off_c, 6, 61, 64
12, 78958, Note_on_c, 6, 60, 60
12, 78964, Note_on_c, 6, 67, 31
12, 79022, Note_off_c, 6, 60, 64
12, 79028, Note_off_c, 6, 67, 64
12, 79440, Note_on_c, 6, 67, 52
12, 79440, Note_on_c, 6, 60, 66
12, 79504, Note_off_c, 6, 60, 64
12, 79512, Note_off_c, 6, 67, 64
12, 79918, Note_on_c, 6, 58, 60
12, 79924, Note_on_c, 6, 65, 31
12, 79982, Note_off_c, 6, 58, 64
12, 79988, Note_off_c, 6, 65, 64
12, 80160, Control_c, 6, 64, 127
12, 80164, Note_on_c, 6, 58, 42
12, 80168, Note_on_c, 6, 64, 35
12, 80390, Note_off_c, 6, 58, 64
12, 80400, Note_off_c, 6, 64, 64
12, 80400, Control_c, 6, 64, 0
12, 80404, Note_on_c, 6, 58, 54
12, 80410, Note_on_c, 6, 64, 51
12, 80444, Note_off_c, 6, 64, 64
12, 80446, Note_off_c, 6, 58, 64
12, 80640, Control_c, 6, 64, 0
12, 80640, Control_c, 6, 64, 0
12, 80878, Note_on_c, 6, 57, 60
12, 80884, Note_on_c, 6, 63, 31
12, 80942, Note_off_c, 6, 57, 64
12, 80948, Note_off_c, 6, 63, 64
12, 81360, Note_on_c, 6, 63, 52
12, 81360, Note_on_c, 6, 57, 66
12, 81424, Note_off_c, 6, 57, 64
12, 81432, Note_off_c, 6, 63, 64
12, 81838, Note_on_c, 6, 56, 60
12, 81844, Note_on_c, 6, 62, 31
12, 81902, Note_off_c, 6, 56, 64
12, 81908, Note_off_c, 6, 62, 64
12, 82320, Note_on_c, 6, 62, 52
12, 82320, Note_on_c, 6, 56, 66
12, 82384, Note_off_c, 6, 56, 64
12, 82392, Note_off_c, 6, 62, 64
12, 82560, Control_c, 6, 64, 127
12, 82564, Note_on_c, 6, 56, 42
12, 82568, Note_on_c, 6, 61, 35
12, 82790, Note_off_c, 6, 56, 64
12, 82800, Note_off_c, 6, 61, 64
12, 82800, Control_c, 6, 64, 0
12, 82804, Note_on_c, 6, 56, 54
12, 82810, Note_on_c, 6, 61, 51
12, 82844, Note_off_c, 6, 61, 64
12, 82846, Note_off_c, 6, 56, 64
12, 83040, Control_c, 6, 64, 0
12, 83040, Control_c, 6, 64, 0
12, 83278, Note_on_c, 6, 55, 60
12, 83284, Note_on_c, 6, 61, 31
12, 83342, Note_off_c, 6, 55, 64
12, 83348, Note_off_c, 6, 61, 64
12, 83758, Note_on_c, 6, 54, 60
12, 83764, Note_on_c, 6, 61, 31
12, 83822, Note_off_c, 6, 54, 64
12, 83828, Note_off_c, 6, 61, 64
12, 84238, Note_on_c, 6, 60, 60
12, 84244, Note_on_c, 6, 66, 31
12, 84302, Note_off_c, 6, 60, 64
12, 84308, Note_off_c, 6, 66, 64
12, 84718, Note_on_c, 6, 60, 60
12, 84724, Note_on_c, 6, 65, 31
12, 84782, Note_off_c, 6, 60, 64
12, 84788, Note_off_c, 6, 65, 64
12, 85198, Note_on_c, 6, 59, 60
12, 85204, Note_on_c, 6, 65, 31
12, 85262, Note_off_c, 6, 59, 64
12, 85268, Note_off_c, 6, 65, 64
12, 85678, Note_on_c, 6, 58, 60
12, 85684, Note_on_c, 6, 65, 31
12, 85742, Note_off_c, 6, 58, 64
12, 85748, Note_off_c, 6, 65, 64
12, 86158, Note_on_c, 6, 58, 60
12, 86164, Note_on_c, 6, 64, 31
12, 86222, Note_off_c, 6, 58, 64
12, 86228, Note_off_c, 6, 64, 64
12, 86638, Note_on_c, 6, 57, 60
12, 86644, Note_on_c, 6, 64, 31
12, 86702, Note_off_c, 6, 57, 64
12, 86708, Note_off_c, 6, 64, 64
12, 87118, Note_on_c, 6, 56, 60
12, 87124, Note_on_c, 6, 62, 31
12, 87182, Note_off_c, 6, 56, 64
12, 87188, Note_off_c, 6, 62, 64
12, 87598, Note_on_c, 6, 55, 60
12, 87604, Note_on_c, 6, 60, 31
12, 87662, Note_off_c, 6, 55, 64
12, 87668, Note_off_c, 6, 60, 64
12, 88078, Note_on_c, 6, 60, 60
12, 88084, Note_on_c, 6, 66, 31
12, 88142, Note_off_c, 6, 60, 64
12, 88148, Note_off_c, 6, 66, 64
12, 88558, Note_on_c, 6, 58, 60
12, 88564, Note_on_c, 6, 65, 31
12, 88622, Note_off_c, 6, 58, 64
12, 88628, Note_off_c, 6, 65, 64
12, 89040, Note_on_c, 6, 65, 52
12, 89040, Note_on_c, 6, 58, 66
12, 89104, Note_off_c, 6, 58, 64
12, 89112, Note_off_c, 6, 65, 64
12, 89518, Note_on_c, 6, 56, 60
12, 89524, Note_on_c, 6, 61, 31
12, 89582, Note_off_c, 6, 56, 64
12, 89588, Note_off_c, 6, 61, 64
12, 90478, Note_on_c, 6, 57, 60
12, 90484, Note_on_c, 6, 63, 31
12, 90542, Note_off_c, 6, 57, 64
12, 90548, Note_off_c, 6, 63, 64
12, 91438, Note_on_c, 6, 60, 60
12, 91444, Note_on_c, 6, 66, 31
12, 91502, Note_off_c, 6, 60, 64
12, 91508, Note_off_c, 6, 66, 64
12, 92398, Note_on_c, 6, 58, 60
12, 92404, Note_on_c, 6, 65, 31
12, 92462, Note_off_c, 6, 58, 64
12, 92468, Note_off_c, 6, 65, 64
12, 92878, Note_on_c, 6, 58, 60
12, 92884, Note_on_c, 6, 64, 31
12, 92942, Note_off_c, 6, 58, 64
12, 92948, Note_off_c, 6, 64, 64
12, 93358, Note_on_c, 6, 57, 60
12, 93364, Note_on_c, 6, 62, 31
12, 93422, Note_off_c, 6, 57, 64
12, 93428, Note_off_c, 6, 62, 64
12, 93838, Note_on_c, 6, 58, 60
12, 93844, Note_on_c, 6, 64, 31
12, 93902, Note_off_c, 6, 58, 64
12, 93908, Note_off_c, 6, 64, 64
12, 94080, Note_on_c, 6, 62, 54
12, 94082, Note_on_c, 6, 57, 61
12, 94160, Control_c, 6, 64, 127
12, 94230, Note_off_c, 6, 57, 64
12, 94272, Note_off_c, 6, 62, 64
12, 94320, Control_c, 6, 64, 0
12, 94324, Note_on_c, 6, 57, 51
12, 94330, Note_on_c, 6, 62, 26
12, 94348, Note_off_c, 6, 57, 64
12, 94354, Note_off_c, 6, 62, 64
12, 94562, Note_on_c, 6, 57, 54
12, 94572, Note_on_c, 6, 62, 42
12, 94640, Control_c, 6, 64, 127
12, 94642, Note_off_c, 6, 57, 64
12, 94668, Note_off_c, 6, 62, 64
12, 94800, Control_c, 6, 64, 0
12, 94802, Note_on_c, 6, 57, 59
12, 94812, Note_on_c, 6, 62, 46
12, 94820, Note_off_c, 6, 57, 64
12, 94838, Note_off_c, 6, 62, 64
12, 95040, Control_c, 6, 64, 127
12, 95042, Note_on_c, 6, 57, 52
12, 95050, Note_on_c, 6, 62, 41
12, 95072, Note_off_c, 6, 57, 64
12, 95088, Note_off_c, 6, 62, 64
12, 95282, Note_on_c, 6, 57, 32
12, 95290, Note_on_c, 6, 62, 18
12, 95360, Control_c, 6, 64, 0
12, 95362, Note_off_c, 6, 57, 64
12, 95370, Note_off_c, 6, 62, 64
12, 95448, Note_on_c, 6, 57, 60
12, 95452, Note_on_c, 6, 62, 41
12, 95520, Control_c, 6, 64, 127
12, 95760, Control_c, 6, 64, 0
12, 95886, Note_off_c, 6, 57, 64
12, 95890, Note_off_c, 6, 62, 64
12, 96000, Control_c, 6, 64, 0
12, 96000, End_track
13, 0, Start_track
13, 0, Title_t, "Solo / Piano 1"
13, 0, Program_c, 7, 0
13, 0, Control_c, 7, 7, 100
13, 0, Control_c, 7, 121, 0
13, 0, Control_c, 7, 10, 64
13, 0, Control_c, 7, 123, 0
13, 0, Control_c, 7, 91, 64
13, 0, Control_c, 7, 93, 0
13, 0, Program_c, 7, 0
13, 32896, Note_on_c, 7, 57, 51
13, 32960, Note_off_c, 7, 57, 64
13, 32964, Note_on_c, 7, 60, 76
13, 33010, Note_on_c, 7, 62, 76
13, 33012, Note_off_c, 7, 60, 64
13, 33074, Note_off_c, 7, 62, 64
13, 33082, Note_on_c, 7, 67, 91
13, 33126, Note_off_c, 7, 67, 64
13, 33134, Note_on_c, 7, 64, 98
13, 33194, Note_off_c, 7, 64, 64
13, 33198, Note_on_c, 7, 60, 85
13, 33250, Note_off_c, 7, 60, 64
13, 33376, Note_on_c, 7, 58, 45
13, 33460, Note_off_c, 7, 58, 64
13, 34754, Note_on_c, 7, 58, 103
13, 34814, Note_on_c, 7, 57, 39
13, 34816, Note_off_c, 7, 58, 64
13, 34870, Note_off_c, 7, 57, 64
13, 34880, Note_on_c, 7, 54, 81
13, 34916, Note_off_c, 7, 54, 64
13, 34924, Note_on_c, 7, 55, 59
13, 34994, Note_off_c, 7, 55, 64
13, 34996, Note_on_c, 7, 57, 91
13, 35044, Note_off_c, 7, 57, 64
13, 35056, Note_on_c, 7, 58, 54
13, 35108, Note_off_c, 7, 58, 64
13, 35126, Note_on_c, 7, 60, 87
13, 35158, Note_off_c, 7, 60, 64
13, 35172, Note_on_c, 7, 62, 79
13, 35232, Note_off_c, 7, 62, 64
13, 35238, Note_on_c, 7, 65, 100
13, 35282, Note_off_c, 7, 65, 64
13, 35298, Note_on_c, 7, 67, 83
13, 35344, Note_off_c, 7, 67, 64
13, 35360, Note_on_c, 7, 69, 97
13, 35406, Note_off_c, 7, 69, 64
13, 35412, Note_on_c, 7, 67, 71
13, 35464, Note_off_c, 7, 67, 64
13, 35482, Note_on_c, 7, 65, 89
13, 35524, Note_on_c, 7, 63, 75
13, 35528, Note_off_c, 7, 65, 64
13, 35596, Note_off_c, 7, 63, 64
13, 35606, Note_on_c, 7, 60, 20
13, 35632, Note_on_c, 7, 61, 75
13, 35634, Note_off_c, 7, 60, 64
13, 35708, Note_off_c, 7, 61, 64
13, 35714, Note_on_c, 7, 63, 96
13, 35760, Note_off_c, 7, 63, 64
13, 35764, Note_on_c, 7, 61, 95
13, 35838, Note_off_c, 7, 61, 64
13, 35844, Note_on_c, 7, 58, 78
13, 35890, Note_on_c, 7, 61, 56
13, 35892, Note_off_c, 7, 58, 64
13, 35928, Note_on_c, 7, 65, 65
13, 35940, Note_off_c, 7, 61, 64
13, 35960, Note_on_c, 7, 68, 103
13, 35962, Note_off_c, 7, 65, 64
13, 35998, Note_off_c, 7, 68, 64
13, 36012, Note_on_c, 7, 70, 96
13, 36088, Note_off_c, 7, 70, 64
13, 36092, Note_on_c, 7, 66, 61
13, 36128, Note_off_c, 7, 66, 64
13, 36130, Note_on_c, 7, 67, 77
13, 36216, Note_off_c, 7, 67, 64
13, 38398, Note_on_c, 7, 70, 98
13, 38462, Note_off_c, 7, 70, 64
13, 38470, Note_on_c, 7, 72, 101
13, 38502, Note_off_c, 7, 72, 64
13, 38642, Note_on_c, 7, 70, 109
13, 38718, Note_off_c, 7, 70, 64
13, 38724, Note_on_c, 7, 68, 59
13, 38746, Note_off_c, 7, 68, 64
13, 38886, Note_on_c, 7, 71, 73
13, 38934, Note_off_c, 7, 71, 64
13, 38952, Note_on_c, 7, 77, 99
13, 38996, Note_off_c, 7, 77, 64
13, 39008, Note_on_c, 7, 75, 72
13, 39074, Note_on_c, 7, 68, 55
13, 39078, Note_off_c, 7, 75, 64
13, 39124, Note_off_c, 7, 68, 64
13, 39132, Note_on_c, 7, 65, 68
13, 39210, Note_on_c, 7, 71, 64
13, 39234, Note_off_c, 7, 71, 64
13, 39236, Note_off_c, 7, 65, 64
13, 39362, Note_on_c, 7, 72, 95
13, 39426, Note_off_c, 7, 72, 64
13, 39436, Note_on_c, 7, 76, 95
13, 39474, Note_off_c, 7, 76, 64
13, 39482, Note_on_c, 7, 74, 93
13, 39550, Note_off_c, 7, 74, 64
13, 39556, Note_on_c, 7, 70, 98
13, 39596, Note_off_c, 7, 70, 64
13, 39618, Note_on_c, 7, 67, 91
13, 39670, Note_off_c, 7, 67, 64
13, 39684, Note_on_c, 7, 62, 95
13, 39730, Note_off_c, 7, 62, 64
13, 39734, Note_on_c, 7, 58, 64
13, 39804, Note_off_c, 7, 58, 64
13, 40088, Note_on_c, 7, 63, 116
13, 40160, Note_off_c, 7, 63, 64
13, 40168, Note_on_c, 7, 60, 41
13, 40206, Note_off_c, 7, 60, 64
13, 40208, Note_on_c, 7, 61, 78
13, 40264, Note_off_c, 7, 61, 64
13, 40288, Note_on_c, 7, 63, 49
13, 40322, Note_off_c, 7, 63, 64
13, 40328, Note_on_c, 7, 64, 75
13, 40400, Note_off_c, 7, 64, 64
13, 40440, Note_on_c, 7, 64, 87
13, 40524, Note_off_c, 7, 64, 64
13, 40526, Note_on_c, 7, 60, 60
13, 40650, Note_off_c, 7, 60, 64
13, 41602, Note_on_c, 7, 62, 90
13, 41630, Note_off_c, 7, 62, 64
13, 41640, Note_on_c, 7, 63, 83
13, 41660, Note_off_c, 7, 63, 64
13, 41680, Note_on_c, 7, 67, 60
13, 41712, Note_off_c, 7, 67, 64
13, 41718, Note_on_c, 7, 70, 96
13, 41740, Note_off_c, 7, 70, 64
13, 41762, Note_on_c, 7, 74, 110
13, 41830, Note_off_c, 7, 74, 64
13, 41840, Note_on_c, 7, 75, 97
13, 41880, Note_off_c, 7, 75, 64
13, 41886, Note_on_c, 7, 76, 95
13, 41936, Note_off_c, 7, 76, 64
13, 41960, Note_on_c, 7, 77, 114
13, 41996, Note_off_c, 7, 77, 64
13, 42010, Note_on_c, 7, 78, 86
13, 42066, Note_off_c, 7, 78, 64
13, 42078, Note_on_c, 7, 81, 102
13, 42122, Note_off_c, 7, 81, 64
13, 42134, Note_on_c, 7, 84, 86
13, 42180, Note_off_c, 7, 84, 64
13, 42200, Note_on_c, 7, 87, 121
13, 42236, Note_off_c, 7, 87, 64
13, 42248, Note_on_c, 7, 86, 93
13, 42316, Note_off_c, 7, 86, 64
13, 42324, Note_on_c, 7, 81, 67
13, 42360, Note_off_c, 7, 81, 64
13, 42370, Note_on_c, 7, 84, 108
13, 42426, Note_off_c, 7, 84, 64
13, 42438, Note_on_c, 7, 83, 100
13, 42486, Note_off_c, 7, 83, 64
13, 42494, Note_on_c, 7, 82, 95
13, 42544, Note_off_c, 7, 82, 64
13, 42916, Note_on_c, 7, 77, 63
13, 42954, Note_off_c, 7, 77, 64
13, 42962, Note_on_c, 7, 78, 57
13, 43026, Note_off_c, 7, 78, 64
13, 43036, Note_on_c, 7, 81, 93
13, 43086, Note_on_c, 7, 79, 65
13, 43092, Note_off_c, 7, 81, 64
13, 43154, Note_off_c, 7, 79, 64
13, 43164, Note_on_c, 7, 74, 30
13, 43192, Note_off_c, 7, 74, 64
13, 43216, Note_on_c, 7, 73, 72
13, 43272, Note_off_c, 7, 73, 64
13, 43290, Note_on_c, 7, 75, 90
13, 43342, Note_off_c, 7, 75, 64
13, 43342, Note_on_c, 7, 77, 64
13, 43394, Note_off_c, 7, 77, 64
13, 43404, Note_on_c, 7, 73, 99
13, 43454, Note_off_c, 7, 73, 64
13, 43464, Note_on_c, 7, 70, 46
13, 43526, Note_on_c, 7, 72, 81
13, 43532, Note_off_c, 7, 70, 64
13, 43566, Note_off_c, 7, 72, 64
13, 43574, Note_on_c, 7, 73, 62
13, 43630, Note_off_c, 7, 73, 64
13, 43642, Note_on_c, 7, 75, 63
13, 43670, Note_off_c, 7, 75, 64
13, 43688, Note_on_c, 7, 72, 84
13, 43740, Note_off_c, 7, 72, 64
13, 43748, Note_on_c, 7, 73, 97
13, 43794, Note_off_c, 7, 73, 64
13, 43796, Note_on_c, 7, 72, 62
13, 43828, Note_on_c, 7, 71, 80
13, 43830, Note_off_c, 7, 72, 64
13, 43868, Note_on_c, 7, 70, 83
13, 43884, Note_off_c, 7, 71, 64
13, 43918, Note_on_c, 7, 72, 107
13, 43924, Note_off_c, 7, 70, 64
13, 43980, Note_off_c, 7, 72, 64
13, 44002, Note_on_c, 7, 70, 46
13, 44030, Note_off_c, 7, 70, 64
13, 44174, Note_on_c, 7, 72, 66
13, 44248, Note_off_c, 7, 72, 64
13, 44254, Note_on_c, 7, 73, 109
13, 44292, Note_on_c, 7, 72, 76
13, 44298, Note_off_c, 7, 73, 64
13, 44378, Note_off_c, 7, 72, 64
13, 44410, Note_on_c, 7, 70, 77
13, 44470, Note_off_c, 7, 70, 64
13, 44476, Note_on_c, 7, 72, 81
13, 44512, Note_off_c, 7, 72, 64
13, 44528, Note_on_c, 7, 75, 82
13, 44586, Note_off_c, 7, 75, 64
13, 44592, Note_on_c, 7, 79, 98
13, 44626, Note_off_c, 7, 79, 64
13, 44646, Note_on_c, 7, 80, 81
13, 44702, Note_off_c, 7, 80, 64
13, 44714, Note_on_c, 7, 79, 77
13, 44768, Note_on_c, 7, 77, 76
13, 44782, Note_off_c, 7, 79, 64
13, 44840, Note_off_c, 7, 77, 64
13, 46154, Note_on_c, 7, 72, 98
13, 46202, Note_off_c, 7, 72, 64
13, 46224, Note_on_c, 7, 69, 45
13, 46272, Note_off_c, 7, 69, 64
13, 46278, Note_on_c, 7, 70, 75
13, 46322, Note_off_c, 7, 70, 64
13, 46326, Note_on_c, 7, 69, 94
13, 46386, Note_off_c, 7, 69, 64
13, 46396, Note_on_c, 7, 68, 90
13, 46446, Note_off_c, 7, 68, 64
13, 46452, Note_on_c, 7, 67, 70
13, 46516, Note_off_c, 7, 67, 64
13, 46520, Note_on_c, 7, 69, 95
13, 46564, Note_off_c, 7, 69, 64
13, 46566, Note_on_c, 7, 70, 64
13, 46616, Note_off_c, 7, 70, 64
13, 46632, Note_on_c, 7, 71, 95
13, 46664, Note_off_c, 7, 71, 64
13, 46686, Note_on_c, 7, 75, 64
13, 46738, Note_off_c, 7, 75, 64
13, 46750, Note_on_c, 7, 78, 88
13, 46782, Note_off_c, 7, 78, 64
13, 46812, Note_on_c, 7, 77, 80
13, 46860, Note_off_c, 7, 77, 64
13, 46886, Note_on_c, 7, 73, 100
13, 46926, Note_off_c, 7, 73, 64
13, 46928, Note_on_c, 7, 71, 67
13, 47014, Note_off_c, 7, 71, 64
13, 47014, Note_on_c, 7, 68, 52
13, 47038, Note_off_c, 7, 68, 64
13, 47056, Note_on_c, 7, 70, 98
13, 47112, Note_off_c, 7, 70, 64
13, 47122, Note_on_c, 7, 72, 97
13, 47170, Note_off_c, 7, 72, 64
13, 47174, Note_on_c, 7, 68, 79
13, 47232, Note_off_c, 7, 68, 64
13, 47240, Note_on_c, 7, 69, 101
13, 47290, Note_off_c, 7, 69, 64
13, 47296, Note_on_c, 7, 65, 80
13, 47356, Note_off_c, 7, 65, 64
13, 47360, Note_on_c, 7, 60, 91
13, 47406, Note_on_c, 7, 59, 83
13, 47420, Note_off_c, 7, 60, 64
13, 47476, Note_off_c, 7, 59, 64
13, 47476, Note_on_c, 7, 58, 85
13, 47500, Note_off_c, 7, 58, 64
13, 47528, Note_on_c, 7, 60, 58
13, 47600, Note_off_c, 7, 60, 64
13, 47600, Note_on_c, 7, 63, 107
13, 47638, Note_off_c, 7, 63, 64
13, 47644, Note_on_c, 7, 60, 64
13, 47684, Note_off_c, 7, 60, 64
13, 47690, Note_on_c, 7, 61, 75
13, 47706, Note_off_c, 7, 61, 64
13, 47706, Note_on_c, 7, 65, 79
13, 47722, Note_on_c, 7, 68, 99
13, 47730, Note_off_c, 7, 65, 64
13, 47738, Note_off_c, 7, 68, 64
13, 47766, Note_on_c, 7, 72, 108
13, 47826, Note_off_c, 7, 72, 64
13, 47838, Note_on_c, 7, 75, 113
13, 47882, Note_on_c, 7, 71, 88
13, 47884, Note_off_c, 7, 75, 64
13, 47952, Note_off_c, 7, 71, 64
13, 47960, Note_on_c, 7, 67, 58
13, 47998, Note_off_c, 7, 67, 64
13, 48002, Note_on_c, 7, 70, 103
13, 48070, Note_off_c, 7, 70, 64
13, 48080, Note_on_c, 7, 68, 91
13, 48118, Note_off_c, 7, 68, 64
13, 48246, Note_on_c, 7, 67, 105
13, 48332, Note_on_c, 7, 65, 82
13, 48346, Note_off_c, 7, 67, 64
13, 48464, Note_off_c, 7, 65, 64
13, 48490, Note_on_c, 7, 63, 88
13, 48566, Note_off_c, 7, 63, 64
13, 48566, Note_on_c, 7, 60, 52
13, 48772, Note_off_c, 7, 60, 64
13, 49878, Note_on_c, 7, 62, 111
13, 49918, Note_off_c, 7, 62, 64
13, 49926, Note_on_c, 7, 63, 44
13, 49960, Note_on_c, 7, 64, 77
13, 49972, Note_off_c, 7, 63, 64
13, 49994, Note_on_c, 7, 65, 99
13, 50008, Note_off_c, 7, 64, 64
13, 50034, Note_off_c, 7, 65, 64
13, 50042, Note_on_c, 7, 63, 94
13, 50112, Note_off_c, 7, 63, 64
13, 50120, Note_on_c, 7, 59, 94
13, 50164, Note_off_c, 7, 59, 64
13, 50168, Note_on_c, 7, 60, 63
13, 50202, Note_on_c, 7, 61, 73
13, 50216, Note_off_c, 7, 60, 64
13, 50242, Note_on_c, 7, 62, 107
13, 50250, Note_off_c, 7, 61, 64
13, 50286, Note_on_c, 7, 60, 96
13, 50298, Note_off_c, 7, 62, 64
13, 50356, Note_off_c, 7, 60, 64
13, 50366, Note_on_c, 7, 55, 56
13, 50390, Note_off_c, 7, 55, 64
13, 50476, Note_on_c, 7, 58, 102
13, 50522, Note_off_c, 7, 58, 64
13, 50524, Note_on_c, 7, 55, 56
13, 50586, Note_off_c, 7, 55, 64
13, 50594, Note_on_c, 7, 56, 98
13, 50634, Note_off_c, 7, 56, 64
13, 50646, Note_on_c, 7, 57, 90
13, 50670, Note_off_c, 7, 57, 64
13, 50714, Note_on_c, 7, 67, 110
13, 50754, Note_off_c, 7, 67, 64
13, 50772, Note_on_c, 7, 65, 93
13, 50808, Note_off_c, 7, 65, 64
13, 50834, Note_on_c, 7, 63, 98
13, 50880, Note_off_c, 7, 63, 64
13, 50884, Note_on_c, 7, 64, 77
13, 50952, Note_off_c, 7, 64, 64
13, 50958, Note_on_c, 7, 62, 65
13, 50994, Note_off_c, 7, 62, 64
13, 51002, Note_on_c, 7, 70, 95
13, 51062, Note_off_c, 7, 70, 64
13, 51074, Note_on_c, 7, 66, 93
13, 51124, Note_on_c, 7, 62, 67
13, 51134, Note_off_c, 7, 66, 64
13, 51198, Note_off_c, 7, 62, 64
13, 51200, Note_on_c, 7, 58, 47
13, 51240, Note_on_c, 7, 64, 83
13, 51250, Note_off_c, 7, 58, 64
13, 51296, Note_off_c, 7, 64, 64
13, 51314, Note_on_c, 7, 67, 99
13, 51364, Note_on_c, 7, 65, 77
13, 51370, Note_off_c, 7, 67, 64
13, 51416, Note_off_c, 7, 65, 64
13, 51434, Note_on_c, 7, 60, 85
13, 51474, Note_off_c, 7, 60, 64
13, 51480, Note_on_c, 7, 56, 58
13, 51560, Note_off_c, 7, 56, 64
13, 52874, Note_on_c, 7, 54, 102
13, 52886, Note_on_c, 7, 53, 83
13, 52910, Note_off_c, 7, 54, 64
13, 52920, Note_on_c, 7, 51, 70
13, 52948, Note_off_c, 7, 53, 64
13, 52990, Note_off_c, 7, 51, 64
13, 53000, Note_on_c, 7, 49, 102
13, 53046, Note_off_c, 7, 49, 64
13, 53050, Note_on_c, 7, 51, 90
13, 53124, Note_off_c, 7, 51, 64
13, 53128, Note_on_c, 7, 54, 104
13, 53180, Note_off_c, 7, 54, 64
13, 53182, Note_on_c, 7, 51, 81
13, 53240, Note_off_c, 7, 51, 64
13, 53248, Note_on_c, 7, 49, 94
13, 53286, Note_on_c, 7, 51, 65
13, 53288, Note_off_c, 7, 49, 64
13, 53422, Note_off_c, 7, 51, 64
13, 53520, Note_on_c, 7, 53, 104
13, 53584, Note_off_c, 7, 53, 64
13, 53598, Note_on_c, 7, 50, 92
13, 53650, Note_off_c, 7, 50, 64
13, 53770, Note_on_c, 7, 52, 73
13, 53820, Note_off_c, 7, 52, 64
13, 53834, Note_on_c, 7, 53, 105
13, 53870, Note_off_c, 7, 53, 64
13, 53892, Note_on_c, 7, 57, 74
13, 53954, Note_off_c, 7, 57, 64
13, 53958, Note_on_c, 7, 60, 95
13, 53996, Note_off_c, 7, 60, 64
13, 54012, Note_on_c, 7, 64, 88
13, 54064, Note_off_c, 7, 64, 64
13, 54078, Note_on_c, 7, 63, 98
13, 54110, Note_off_c, 7, 63, 64
13, 54130, Note_on_c, 7, 62, 80
13, 54178, Note_off_c, 7, 62, 64
13, 54196, Note_on_c, 7, 60, 101
13, 54242, Note_off_c, 7, 60, 64
13, 54256, Note_on_c, 7, 59, 73
13, 54312, Note_off_c, 7, 59, 64
13, 54320, Note_on_c, 7, 60, 102
13, 54358, Note_off_c, 7, 60, 64
13, 54374, Note_on_c, 7, 57, 74
13, 54422, Note_off_c, 7, 57, 64
13, 54440, Note_on_c, 7, 53, 97
13, 54490, Note_off_c, 7, 53, 64
13, 54492, Note_on_c, 7, 52, 63
13, 54566, Note_off_c, 7, 52, 64
13, 54566, Note_on_c, 7, 50, 50
13, 54594, Note_off_c, 7, 50, 64
13, 54598, Note_on_c, 7, 55, 97
13, 54670, Note_off_c, 7, 55, 64
13, 54678, Note_on_c, 7, 52, 64
13, 54718, Note_off_c, 7, 52, 64
13, 54746, Note_on_c, 7, 50, 73
13, 54804, Note_off_c, 7, 50, 64
13, 54808, Note_on_c, 7, 52, 92
13, 54846, Note_off_c, 7, 52, 64
13, 54862, Note_on_c, 7, 54, 79
13, 54908, Note_off_c, 7, 54, 64
13, 54928, Note_on_c, 7, 55, 106
13, 54966, Note_off_c, 7, 55, 64
13, 54982, Note_on_c, 7, 57, 83
13, 55034, Note_off_c, 7, 57, 64
13, 55050, Note_on_c, 7, 58, 104
13, 55090, Note_off_c, 7, 58, 64
13, 55098, Note_on_c, 7, 60, 91
13, 55154, Note_off_c, 7, 60, 64
13, 55164, Note_on_c, 7, 61, 93
13, 55210, Note_off_c, 7, 61, 64
13, 55212, Note_on_c, 7, 62, 88
13, 55440, Note_off_c, 7, 62, 64
13, 55446, Note_on_c, 7, 62, 113
13, 55502, Note_off_c, 7, 62, 64
13, 55524, Note_on_c, 7, 58, 103
13, 55568, Note_on_c, 7, 55, 59
13, 55574, Note_off_c, 7, 58, 64
13, 55650, Note_on_c, 7, 50, 53
13, 55662, Note_off_c, 7, 55, 64
13, 55688, Note_on_c, 7, 57, 92
13, 55690, Note_off_c, 7, 50, 64
13, 55768, Note_off_c, 7, 57, 64
13, 55768, Note_on_c, 7, 60, 110
13, 55806, Note_on_c, 7, 57, 77
13, 55814, Note_off_c, 7, 60, 64
13, 55876, Note_off_c, 7, 57, 64
13, 55890, Note_on_c, 7, 53, 84
13, 55928, Note_off_c, 7, 53, 64
13, 55944, Note_on_c, 7, 48, 60
13, 56016, Note_off_c, 7, 48, 64
13, 56046, Note_on_c, 7, 48, 61
13, 56186, Note_off_c, 7, 48, 64
13, 56234, Note_on_c, 7, 51, 98
13, 56280, Note_off_c, 7, 51, 64
13, 56294, Note_on_c, 7, 52, 92
13, 56342, Note_off_c, 7, 52, 64
13, 56358, Note_on_c, 7, 55, 102
13, 56402, Note_off_c, 7, 55, 64
13, 56418, Note_on_c, 7, 53, 84
13, 56470, Note_off_c, 7, 53, 64
13, 56486, Note_on_c, 7, 51, 65
13, 56522, Note_off_c, 7, 51, 64
13, 56536, Note_on_c, 7, 52, 52
13, 56592, Note_off_c, 7, 52, 64
13, 56598, Note_on_c, 7, 55, 106
13, 56638, Note_off_c, 7, 55, 64
13, 56652, Note_on_c, 7, 57, 52
13, 56712, Note_off_c, 7, 57, 64
13, 56716, Note_on_c, 7, 60, 64
13, 56772, Note_off_c, 7, 60, 64
13, 56894, Note_on_c, 7, 57, 77
13, 56966, Note_off_c, 7, 57, 64
13, 57912, Note_on_c, 7, 60, 81
13, 57926, Note_on_c, 7, 59, 92
13, 57956, Note_off_c, 7, 60, 64
13, 57972, Note_on_c, 7, 58, 57
13, 57986, Note_off_c, 7, 59, 64
13, 58028, Note_off_c, 7, 58, 64
13, 58038, Note_on_c, 7, 62, 111
13, 58086, Note_off_c, 7, 62, 64
13, 58096, Note_on_c, 7, 57, 79
13, 58154, Note_off_c, 7, 57, 64
13, 58156, Note_on_c, 7, 56, 79
13, 58200, Note_off_c, 7, 56, 64
13, 58208, Note_on_c, 7, 55, 78
13, 58248, Note_off_c, 7, 55, 64
13, 58276, Note_on_c, 7, 53, 86
13, 58326, Note_off_c, 7, 53, 64
13, 58332, Note_on_c, 7, 52, 64
13, 58382, Note_off_c, 7, 52, 64
13, 58398, Note_on_c, 7, 53, 87
13, 58436, Note_off_c, 7, 53, 64
13, 58442, Note_on_c, 7, 55, 97
13, 58490, Note_off_c, 7, 55, 64
13, 58514, Note_on_c, 7, 57, 88
13, 58552, Note_off_c, 7, 57, 64
13, 58584, Note_on_c, 7, 58, 65
13, 58644, Note_off_c, 7, 58, 64
13, 58648, Note_on_c, 7, 53, 37
13, 58686, Note_on_c, 7, 55, 64
13, 58694, Note_off_c, 7, 53, 64
13, 58742, Note_off_c, 7, 55, 64
13, 58758, Note_on_c, 7, 56, 90
13, 58784, Note_on_c, 7, 58, 59
13, 58798, Note_off_c, 7, 56, 64
13, 58806, Note_on_c, 7, 57, 85
13, 58816, Note_off_c, 7, 58, 64
13, 58858, Note_off_c, 7, 57, 64
13, 58876, Note_on_c, 7, 60, 107
13, 58928, Note_off_c, 7, 60, 64
13, 59048, Note_on_c, 7, 61, 103
13, 59130, Note_on_c, 7, 58, 56
13, 59134, Note_off_c, 7, 61, 64
13, 59156, Note_off_c, 7, 58, 64
13, 59168, Note_on_c, 7, 61, 101
13, 59238, Note_off_c, 7, 61, 64
13, 59292, Note_on_c, 7, 64, 85
13, 59348, Note_off_c, 7, 64, 64
13, 59358, Note_on_c, 7, 61, 97
13, 59406, Note_off_c, 7, 61, 64
13, 59408, Note_on_c, 7, 60, 61
13, 59466, Note_off_c, 7, 60, 64
13, 59478, Note_on_c, 7, 58, 98
13, 59524, Note_off_c, 7, 58, 64
13, 59532, Note_on_c, 7, 57, 73
13, 59620, Note_off_c, 7, 57, 64
13, 61552, Note_on_c, 7, 52, 114
13, 61612, Note_off_c, 7, 52, 64
13, 61622, Note_on_c, 7, 53, 100
13, 61672, Note_off_c, 7, 53, 64
13, 61682, Note_on_c, 7, 52, 68
13, 61732, Note_off_c, 7, 52, 64
13, 61746, Note_on_c, 7, 51, 101
13, 61786, Note_off_c, 7, 51, 64
13, 61804, Note_on_c, 7, 50, 62
13, 61864, Note_off_c, 7, 50, 64
13, 61866, Note_on_c, 7, 49, 90
13, 61916, Note_off_c, 7, 49, 64
13, 61922, Note_on_c, 7, 48, 67
13, 61992, Note_off_c, 7, 48, 64
13, 61994, Note_on_c, 7, 49, 94
13, 62044, Note_off_c, 7, 49, 64
13, 62048, Note_on_c, 7, 51, 83
13, 62080, Note_off_c, 7, 51, 64
13, 62112, Note_on_c, 7, 52, 81
13, 62164, Note_off_c, 7, 52, 64
13, 62168, Note_on_c, 7, 56, 66
13, 62208, Note_off_c, 7, 56, 64
13, 62232, Note_on_c, 7, 60, 79
13, 62272, Note_off_c, 7, 60, 64
13, 62280, Note_on_c, 7, 63, 108
13, 62330, Note_off_c, 7, 63, 64
13, 62350, Note_on_c, 7, 61, 103
13, 62390, Note_off_c, 7, 61, 64
13, 62404, Note_on_c, 7, 60, 78
13, 62478, Note_off_c, 7, 60, 64
13, 62484, Note_on_c, 7, 58, 84
13, 62528, Note_off_c, 7, 58, 64
13, 62532, Note_on_c, 7, 57, 54
13, 62592, Note_off_c, 7, 57, 64
13, 62602, Note_on_c, 7, 55, 76
13, 62650, Note_on_c, 7, 53, 70
13, 62654, Note_off_c, 7, 55, 64
13, 62724, Note_off_c, 7, 53, 64
13, 62730, Note_on_c, 7, 48, 38
13, 62762, Note_off_c, 7, 48, 64
13, 62874, Note_on_c, 7, 50, 96
13, 62966, Note_off_c, 7, 50, 64
13, 63130, Note_on_c, 7, 53, 77
13, 63190, Note_off_c, 7, 53, 64
13, 63196, Note_on_c, 7, 55, 81
13, 63232, Note_off_c, 7, 55, 64
13, 63232, End_track
14, 0, Start_track
14, 0, Title_t, "Drums / Brush"
14, 0, Program_c, 9, 40
14, 0, Control_c, 9, 7, 90
14, 0, Control_c, 9, 121, 0
14, 0, Control_c, 9, 10, 64
14, 0, Control_c, 9, 123, 0
14, 0, Control_c, 9, 91, 40
14, 0, Control_c, 9, 93, 0
14, 2400, Note_on_c, 9, 38, 80
14, 2450, Note_off_c, 9, 38, 64
14, 2578, Note_on_c, 9, 38, 20
14, 2628, Note_off_c, 9, 38, 64
14, 2640, Note_on_c, 9, 38, 100
14, 2640, Note_on_c, 9, 42, 80
14, 2690, Note_off_c, 9, 42, 64
14, 2690, Note_off_c, 9, 38, 64
14, 2818, Note_on_c, 9, 38, 70
14, 2868, Note_off_c, 9, 38, 64
14, 2880, Note_on_c, 9, 38, 80
14, 2930, Note_off_c, 9, 38, 64
14, 3058, Note_on_c, 9, 38, 30
14, 3108, Note_off_c, 9, 38, 64
14, 3120, Note_on_c, 9, 38, 100
14, 3120, Note_on_c, 9, 42, 70
14, 3170, Note_off_c, 9, 42, 64
14, 3170, Note_off_c, 9, 38, 64
14, 3298, Note_on_c, 9, 38, 90
14, 3348, Note_off_c, 9, 38, 64
14, 3360, Note_on_c, 9, 38, 80
14, 3410, Note_off_c, 9, 38, 64
14, 3538, Note_on_c, 9, 38, 20
14, 3588, Note_off_c, 9, 38, 64
14, 3600, Note_on_c, 9, 38, 100
14, 3600, Note_on_c, 9, 42, 80
14, 3650, Note_off_c, 9, 42, 64
14, 3650, Note_off_c, 9, 38, 64
14, 3778, Note_on_c, 9, 38, 70
14, 3828, Note_off_c, 9, 38, 64
14, 3840, Note_on_c, 9, 38, 80
14, 3890, Note_off_c, 9, 38, 64
14, 4012, Note_on_c, 9, 38, 20
14, 4062, Note_off_c, 9, 38, 64
14, 4080, Note_on_c, 9, 38, 100
14, 4080, Note_on_c, 9, 42, 70
14, 4130, Note_off_c, 9, 42, 64
14, 4130, Note_off_c, 9, 38, 64
14, 4252, Note_on_c, 9, 38, 90
14, 4302, Note_off_c, 9, 38, 64
14, 4320, Note_on_c, 9, 38, 80
14, 4370, Note_off_c, 9, 38, 64
14, 4492, Note_on_c, 9, 38, 20
14, 4542, Note_off_c, 9, 38, 64
14, 4560, Note_on_c, 9, 38, 100
14, 4560, Note_on_c, 9, 42, 80
14, 4560, Note_on_c, 9, 37, 60
14, 4610, Note_off_c, 9, 37, 64
14, 4610, Note_off_c, 9, 42, 64
14, 4610, Note_off_c, 9, 38, 64
14, 4732, Note_on_c, 9, 38, 70
14, 4782, Note_off_c, 9, 38, 64
14, 4800, Note_on_c, 9, 38, 80
14, 4850, Note_off_c, 9, 38, 64
14, 4978, Note_on_c, 9, 38, 30
14, 5028, Note_off_c, 9, 38, 64
14, 5040, Note_on_c, 9, 38, 100
14, 5040, Note_on_c, 9, 42, 70
14, 5090, Note_off_c, 9, 42, 64
14, 5090, Note_off_c, 9, 38, 64
14, 5218, Note_on_c, 9, 38, 90
14, 5268, Note_off_c, 9, 38, 64
14, 5280, Note_on_c, 9, 38, 80
14, 5330, Note_off_c, 9, 38, 64
14, 5458, Note_on_c, 9, 38, 20
14, 5508, Note_off_c, 9, 38, 64
14, 5520, Note_on_c, 9, 38, 100
14, 5520, Note_on_c, 9, 42, 80
14, 5570, Note_off_c, 9, 42, 64
14, 5570, Note_off_c, 9, 38, 64
14, 5698, Note_on_c, 9, 38, 70
14, 5748, Note_off_c, 9, 38, 64
14, 5760, Note_on_c, 9, 38, 80
14, 5810, Note_off_c, 9, 38, 64
14, 5938, Note_on_c, 9, 38, 30
14, 5988, Note_off_c, 9, 38, 64
14, 6000, Note_on_c, 9, 38, 100
14, 6000, Note_on_c, 9, 42, 70
14, 6050, Note_off_c, 9, 42, 64
14, 6050, Note_off_c, 9, 38, 64
14, 6178, Note_on_c, 9, 38, 90
14, 6228, Note_off_c, 9, 38, 64
14, 6240, Note_on_c, 9, 38, 80
14, 6290, Note_off_c, 9, 38, 64
14, 6418, Note_on_c, 9, 38, 20
14, 6468, Note_off_c, 9, 38, 64
14, 6480, Note_on_c, 9, 38, 100
14, 6480, Note_on_c, 9, 42, 80
14, 6530, Note_off_c, 9, 42, 64
14, 6530, Note_off_c, 9, 38, 64
14, 6658, Note_on_c, 9, 38, 70
14, 6708, Note_off_c, 9, 38, 64
14, 6720, Note_on_c, 9, 38, 80
14, 6770, Note_off_c, 9, 38, 64
14, 6892, Note_on_c, 9, 38, 20
14, 6942, Note_off_c, 9, 38, 64
14, 6960, Note_on_c, 9, 38, 100
14, 6960, Note_on_c, 9, 42, 70
14, 7010, Note_off_c, 9, 42, 64
14, 7010, Note_off_c, 9, 38, 64
14, 7132, Note_on_c, 9, 38, 90
14, 7182, Note_off_c, 9, 38, 64
14, 7200, Note_on_c, 9, 38, 80
14, 7250, Note_off_c, 9, 38, 64
14, 7372, Note_on_c, 9, 38, 20
14, 7422, Note_off_c, 9, 38, 64
14, 7440, Note_on_c, 9, 38, 100
14, 7440, Note_on_c, 9, 42, 80
14, 7440, Note_on_c, 9, 37, 60
14, 7490, Note_off_c, 9, 37, 64
14, 7490, Note_off_c, 9, 42, 64
14, 7490, Note_off_c, 9, 38, 64
14, 7612, Note_on_c, 9, 38, 70
14, 7662, Note_off_c, 9, 38, 64
14, 7680, Note_on_c, 9, 38, 80
14, 7730, Note_off_c, 9, 38, 64
14, 7852, Note_on_c, 9, 38, 30
14, 7902, Note_off_c, 9, 38, 64
14, 7920, Note_on_c, 9, 38, 100
14, 7920, Note_on_c, 9, 42, 70
14, 7970, Note_off_c, 9, 42, 64
14, 7970, Note_off_c, 9, 38, 64
14, 8092, Note_on_c, 9, 38, 90
14, 8142, Note_off_c, 9, 38, 64
14, 8160, Note_on_c, 9, 38, 80
14, 8210, Note_off_c, 9, 38, 64
14, 8332, Note_on_c, 9, 38, 20
14, 8382, Note_off_c, 9, 38, 64
14, 8400, Note_on_c, 9, 38, 100
14, 8400, Note_on_c, 9, 42, 80
14, 8400, Note_on_c, 9, 37, 60
14, 8450, Note_off_c, 9, 37, 64
14, 8450, Note_off_c, 9, 42, 64
14, 8450, Note_off_c, 9, 38, 64
14, 8572, Note_on_c, 9, 38, 70
14, 8622, Note_off_c, 9, 38, 64
14, 8640, Note_on_c, 9, 38, 80
14, 8690, Note_off_c, 9, 38, 64
14, 8812, Note_on_c, 9, 38, 20
14, 8862, Note_off_c, 9, 38, 64
14, 8880, Note_on_c, 9, 38, 100
14, 8880, Note_on_c, 9, 42, 70
14, 8930, Note_off_c, 9, 42, 64
14, 8930, Note_off_c, 9, 38, 64
14, 9052, Note_on_c, 9, 38, 90
14, 9102, Note_off_c, 9, 38, 64
14, 9120, Note_on_c, 9, 38, 80
14, 9170, Note_off_c, 9, 38, 64
14, 9292, Note_on_c, 9, 38, 20
14, 9292, Note_on_c, 9, 48, 40
14, 9342, Note_off_c, 9, 48, 64
14, 9342, Note_off_c, 9, 38, 64
14, 9360, Note_on_c, 9, 38, 100
14, 9360, Note_on_c, 9, 42, 80
14, 9360, Note_on_c, 9, 37, 80
14, 9360, Note_on_c, 9, 45, 50
14, 9410, Note_off_c, 9, 45, 64
14, 9410, Note_off_c, 9, 37, 64
14, 9410, Note_off_c, 9, 42, 64
14, 9410, Note_off_c, 9, 38, 64
14, 9532, Note_on_c, 9, 38, 70
14, 9582, Note_off_c, 9, 38, 64
14, 9600, Note_on_c, 9, 38, 80
14, 9650, Note_off_c, 9, 38, 64
14, 9778, Note_on_c, 9, 38, 30
14, 9828, Note_off_c, 9, 38, 64
14, 9840, Note_on_c, 9, 38, 100
14, 9840, Note_on_c, 9, 42, 70
14, 9890, Note_off_c, 9, 42, 64
14, 9890, Note_off_c, 9, 38, 64
14, 10018, Note_on_c, 9, 38, 90
14, 10068, Note_off_c, 9, 38, 64
14, 10080, Note_on_c, 9, 38, 80
14, 10130, Note_off_c, 9, 38, 64
14, 10258, Note_on_c, 9, 38, 20
14, 10308, Note_off_c, 9, 38, 64
14, 10320, Note_on_c, 9, 38, 100
14, 10320, Note_on_c, 9, 42, 80
14, 10370, Note_off_c, 9, 42, 64
14, 10370, Note_off_c, 9, 38, 64
14, 10498, Note_on_c, 9, 38, 70
14, 10548, Note_off_c, 9, 38, 64
14, 10560, Note_on_c, 9, 38, 80
14, 10610, Note_off_c, 9, 38, 64
14, 10738, Note_on_c, 9, 38, 30
14, 10788, Note_off_c, 9, 38, 64
14, 10800, Note_on_c, 9, 38, 100
14, 10800, Note_on_c, 9, 42, 70
14, 10850, Note_off_c, 9, 42, 64
14, 10850, Note_off_c, 9, 38, 64
14, 10978, Note_on_c, 9, 38, 90
14, 11028, Note_off_c, 9, 38, 64
14, 11040, Note_on_c, 9, 38, 80
14, 11090, Note_off_c, 9, 38, 64
14, 11218, Note_on_c, 9, 38, 20
14, 11268, Note_off_c, 9, 38, 64
14, 11280, Note_on_c, 9, 38, 100
14, 11280, Note_on_c, 9, 42, 80
14, 11330, Note_off_c, 9, 42, 64
14, 11330, Note_off_c, 9, 38, 64
14, 11458, Note_on_c, 9, 38, 70
14, 11508, Note_off_c, 9, 38, 64
14, 11520, Note_on_c, 9, 38, 80
14, 11570, Note_off_c, 9, 38, 64
14, 11692, Note_on_c, 9, 38, 30
14, 11742, Note_off_c, 9, 38, 64
14, 11760, Note_on_c, 9, 38, 100
14, 11760, Note_on_c, 9, 42, 70
14, 11810, Note_off_c, 9, 42, 64
14, 11810, Note_off_c, 9, 38, 64
14, 11932, Note_on_c, 9, 38, 90
14, 11982, Note_off_c, 9, 38, 64
14, 12000, Note_on_c, 9, 38, 80
14, 12050, Note_off_c, 9, 38, 64
14, 12172, Note_on_c, 9, 38, 54
14, 12222, Note_off_c, 9, 38, 64
14, 12240, Note_on_c, 9, 38, 100
14, 12240, Note_on_c, 9, 42, 80
14, 12240, Note_on_c, 9, 37, 60
14, 12290, Note_off_c, 9, 37, 64
14, 12290, Note_off_c, 9, 42, 64
14, 12290, Note_off_c, 9, 38, 64
14, 12412, Note_on_c, 9, 38, 70
14, 12462, Note_off_c, 9, 38, 64
14, 12480, Note_on_c, 9, 38, 80
14, 12530, Note_off_c, 9, 38, 64
14, 12658, Note_on_c, 9, 38, 30
14, 12708, Note_off_c, 9, 38, 64
14, 12720, Note_on_c, 9, 38, 100
14, 12720, Note_on_c, 9, 42, 70
14, 12770, Note_off_c, 9, 42, 64
14, 12770, Note_off_c, 9, 38, 64
14, 12898, Note_on_c, 9, 38, 90
14, 12948, Note_off_c, 9, 38, 64
14, 12960, Note_on_c, 9, 38, 80
14, 13010, Note_off_c, 9, 38, 64
14, 13138, Note_on_c, 9, 38, 20
14, 13188, Note_off_c, 9, 38, 64
14, 13200, Note_on_c, 9, 38, 100
14, 13200, Note_on_c, 9, 42, 80
14, 13250, Note_off_c, 9, 42, 64
14, 13250, Note_off_c, 9, 38, 64
14, 13378, Note_on_c, 9, 38, 70
14, 13428, Note_off_c, 9, 38, 64
14, 13440, Note_on_c, 9, 38, 80
14, 13490, Note_off_c, 9, 38, 64
14, 13618, Note_on_c, 9, 38, 30
14, 13668, Note_off_c, 9, 38, 64
14, 13680, Note_on_c, 9, 38, 100
14, 13680, Note_on_c, 9, 42, 70
14, 13730, Note_off_c, 9, 42, 64
14, 13730, Note_off_c, 9, 38, 64
14, 13858, Note_on_c, 9, 38, 90
14, 13908, Note_off_c, 9, 38, 64
14, 13920, Note_on_c, 9, 38, 80
14, 13970, Note_off_c, 9, 38, 64
14, 14098, Note_on_c, 9, 38, 20
14, 14148, Note_off_c, 9, 38, 64
14, 14160, Note_on_c, 9, 38, 100
14, 14160, Note_on_c, 9, 42, 80
14, 14210, Note_off_c, 9, 42, 64
14, 14210, Note_off_c, 9, 38, 64
14, 14338, Note_on_c, 9, 38, 70
14, 14388, Note_off_c, 9, 38, 64
14, 14400, Note_on_c, 9, 38, 80
14, 14450, Note_off_c, 9, 38, 64
14, 14578, Note_on_c, 9, 38, 30
14, 14628, Note_off_c, 9, 38, 64
14, 14640, Note_on_c, 9, 38, 100
14, 14640, Note_on_c, 9, 42, 70
14, 14690, Note_off_c, 9, 42, 64
14, 14690, Note_off_c, 9, 38, 64
14, 14818, Note_on_c, 9, 38, 90
14, 14868, Note_off_c, 9, 38, 64
14, 14880, Note_on_c, 9, 38, 80
14, 14930, Note_off_c, 9, 38, 64
14, 15058, Note_on_c, 9, 38, 20
14, 15108, Note_off_c, 9, 38, 64
14, 15120, Note_on_c, 9, 38, 100
14, 15120, Note_on_c, 9, 42, 80
14, 15170, Note_off_c, 9, 42, 64
14, 15170, Note_off_c, 9, 38, 64
14, 15298, Note_on_c, 9, 38, 70
14, 15348, Note_off_c, 9, 38, 64
14, 15360, Note_on_c, 9, 38, 80
14, 15410, Note_off_c, 9, 38, 64
14, 15538, Note_on_c, 9, 38, 30
14, 15588, Note_off_c, 9, 38, 64
14, 15600, Note_on_c, 9, 38, 100
14, 15600, Note_on_c, 9, 42, 70
14, 15650, Note_off_c, 9, 42, 64
14, 15650, Note_off_c, 9, 38, 64
14, 15778, Note_on_c, 9, 38, 90
14, 15828, Note_off_c, 9, 38, 64
14, 15840, Note_on_c, 9, 38, 80
14, 15890, Note_off_c, 9, 38, 64
14, 16018, Note_on_c, 9, 38, 20
14, 16068, Note_off_c, 9, 38, 64
14, 16080, Note_on_c, 9, 38, 100
14, 16080, Note_on_c, 9, 42, 80
14, 16130, Note_off_c, 9, 42, 64
14, 16130, Note_off_c, 9, 38, 64
14, 16258, Note_on_c, 9, 38, 70
14, 16308, Note_off_c, 9, 38, 64
14, 16320, Note_on_c, 9, 38, 80
14, 16370, Note_off_c, 9, 38, 64
14, 16492, Note_on_c, 9, 38, 20
14, 16542, Note_off_c, 9, 38, 64
14, 16560, Note_on_c, 9, 38, 100
14, 16560, Note_on_c, 9, 42, 70
14, 16610, Note_off_c, 9, 42, 64
14, 16610, Note_off_c, 9, 38, 64
14, 16732, Note_on_c, 9, 38, 90
14, 16782, Note_off_c, 9, 38, 64
14, 16800, Note_on_c, 9, 38, 80
14, 16850, Note_off_c, 9, 38, 64
14, 16972, Note_on_c, 9, 38, 20
14, 16972, Note_on_c, 9, 48, 40
14, 17022, Note_off_c, 9, 48, 64
14, 17022, Note_off_c, 9, 38, 64
14, 17040, Note_on_c, 9, 38, 100
14, 17040, Note_on_c, 9, 42, 80
14, 17040, Note_on_c, 9, 37, 60
14, 17040, Note_on_c, 9, 48, 50
14, 17090, Note_off_c, 9, 48, 64
14, 17090, Note_off_c, 9, 37, 64
14, 17090, Note_off_c, 9, 42, 64
14, 17090, Note_off_c, 9, 38, 64
14, 17212, Note_on_c, 9, 38, 70
14, 17262, Note_off_c, 9, 38, 64
14, 17280, Note_on_c, 9, 38, 80
14, 17330, Note_off_c, 9, 38, 64
14, 17452, Note_on_c, 9, 38, 20
14, 17502, Note_off_c, 9, 38, 64
14, 17520, Note_on_c, 9, 38, 100
14, 17520, Note_on_c, 9, 42, 70
14, 17570, Note_off_c, 9, 42, 64
14, 17570, Note_off_c, 9, 38, 64
14, 17692, Note_on_c, 9, 38, 90
14, 17742, Note_off_c, 9, 38, 64
14, 17760, Note_on_c, 9, 38, 80
14, 17810, Note_off_c, 9, 38, 64
14, 17932, Note_on_c, 9, 38, 20
14, 17982, Note_off_c, 9, 38, 64
14, 18000, Note_on_c, 9, 38, 100
14, 18000, Note_on_c, 9, 42, 80
14, 18000, Note_on_c, 9, 37, 70
14, 18050, Note_off_c, 9, 37, 64
14, 18050, Note_off_c, 9, 42, 64
14, 18050, Note_off_c, 9, 38, 64
14, 18172, Note_on_c, 9, 38, 70
14, 18222, Note_off_c, 9, 38, 64
14, 18240, Note_on_c, 9, 38, 80
14, 18290, Note_off_c, 9, 38, 64
14, 18418, Note_on_c, 9, 38, 20
14, 18468, Note_off_c, 9, 38, 64
14, 18480, Note_on_c, 9, 38, 100
14, 18480, Note_on_c, 9, 42, 70
14, 18530, Note_off_c, 9, 42, 64
14, 18530, Note_off_c, 9, 38, 64
14, 18658, Note_on_c, 9, 38, 90
14, 18708, Note_off_c, 9, 38, 64
14, 18720, Note_on_c, 9, 38, 80
14, 18770, Note_off_c, 9, 38, 64
14, 18898, Note_on_c, 9, 38, 20
14, 18948, Note_off_c, 9, 38, 64
14, 18960, Note_on_c, 9, 38, 100
14, 18960, Note_on_c, 9, 42, 80
14, 18960, Note_on_c, 9, 37, 70
14, 19010, Note_off_c, 9, 37, 64
14, 19010, Note_off_c, 9, 42, 64
14, 19010, Note_off_c, 9, 38, 64
14, 19138, Note_on_c, 9, 38, 70
14, 19188, Note_off_c, 9, 38, 64
14, 19200, Note_on_c, 9, 38, 80
14, 19250, Note_off_c, 9, 38, 64
14, 19376, Note_on_c, 9, 38, 54
14, 19426, Note_off_c, 9, 38, 64
14, 19440, Note_on_c, 9, 38, 100
14, 19440, Note_on_c, 9, 42, 70
14, 19490, Note_off_c, 9, 42, 64
14, 19490, Note_off_c, 9, 38, 64
14, 19616, Note_on_c, 9, 38, 90
14, 19666, Note_off_c, 9, 38, 64
14, 19680, Note_on_c, 9, 38, 80
14, 19730, Note_off_c, 9, 38, 64
14, 19856, Note_on_c, 9, 38, 20
14, 19906, Note_off_c, 9, 38, 64
14, 19920, Note_on_c, 9, 38, 100
14, 19920, Note_on_c, 9, 42, 80
14, 19920, Note_on_c, 9, 37, 70
14, 19970, Note_off_c, 9, 37, 64
14, 19970, Note_off_c, 9, 42, 64
14, 19970, Note_off_c, 9, 38, 64
14, 20096, Note_on_c, 9, 38, 70
14, 20146, Note_off_c, 9, 38, 64
14, 20160, Note_on_c, 9, 38, 80
14, 20210, Note_off_c, 9, 38, 64
14, 20338, Note_on_c, 9, 38, 20
14, 20388, Note_off_c, 9, 38, 64
14, 20400, Note_on_c, 9, 38, 100
14, 20400, Note_on_c, 9, 42, 70
14, 20450, Note_off_c, 9, 42, 64
14, 20450, Note_off_c, 9, 38, 64
14, 20578, Note_on_c, 9, 38, 90
14, 20628, Note_off_c, 9, 38, 64
14, 20640, Note_on_c, 9, 38, 80
14, 20690, Note_off_c, 9, 38, 64
14, 20818, Note_on_c, 9, 38, 20
14, 20868, Note_off_c, 9, 38, 64
14, 20880, Note_on_c, 9, 38, 100
14, 20880, Note_on_c, 9, 42, 80
14, 20880, Note_on_c, 9, 37, 70
14, 20930, Note_off_c, 9, 37, 64
14, 20930, Note_off_c, 9, 42, 64
14, 20930, Note_off_c, 9, 38, 64
14, 21058, Note_on_c, 9, 38, 70
14, 21108, Note_off_c, 9, 38, 64
14, 21120, Note_on_c, 9, 38, 80
14, 21170, Note_off_c, 9, 38, 64
14, 21296, Note_on_c, 9, 38, 20
14, 21346, Note_off_c, 9, 38, 64
14, 21360, Note_on_c, 9, 38, 100
14, 21360, Note_on_c, 9, 42, 70
14, 21410, Note_off_c, 9, 42, 64
14, 21410, Note_off_c, 9, 38, 64
14, 21536, Note_on_c, 9, 38, 90
14, 21586, Note_off_c, 9, 38, 64
14, 21600, Note_on_c, 9, 38, 80
14, 21650, Note_off_c, 9, 38, 64
14, 21776, Note_on_c, 9, 38, 20
14, 21826, Note_off_c, 9, 38, 64
14, 21840, Note_on_c, 9, 38, 100
14, 21840, Note_on_c, 9, 42, 80
14, 21840, Note_on_c, 9, 37, 70
14, 21890, Note_off_c, 9, 37, 64
14, 21890, Note_off_c, 9, 42, 64
14, 21890, Note_off_c, 9, 38, 64
14, 22016, Note_on_c, 9, 38, 70
14, 22066, Note_off_c, 9, 38, 64
14, 22080, Note_on_c, 9, 38, 80
14, 22130, Note_off_c, 9, 38, 64
14, 22256, Note_on_c, 9, 38, 20
14, 22306, Note_off_c, 9, 38, 64
14, 22320, Note_on_c, 9, 38, 100
14, 22320, Note_on_c, 9, 42, 70
14, 22370, Note_off_c, 9, 42, 64
14, 22370, Note_off_c, 9, 38, 64
14, 22496, Note_on_c, 9, 38, 90
14, 22546, Note_off_c, 9, 38, 64
14, 22560, Note_on_c, 9, 38, 80
14, 22610, Note_off_c, 9, 38, 64
14, 22736, Note_on_c, 9, 38, 20
14, 22786, Note_off_c, 9, 38, 64
14, 22800, Note_on_c, 9, 38, 100
14, 22800, Note_on_c, 9, 42, 80
14, 22800, Note_on_c, 9, 37, 70
14, 22850, Note_off_c, 9, 37, 64
14, 22850, Note_off_c, 9, 42, 64
14, 22850, Note_off_c, 9, 38, 64
14, 22976, Note_on_c, 9, 38, 70
14, 23026, Note_off_c, 9, 38, 64
14, 23040, Note_on_c, 9, 38, 80
14, 23090, Note_off_c, 9, 38, 64
14, 23216, Note_on_c, 9, 38, 54
14, 23266, Note_off_c, 9, 38, 64
14, 23280, Note_on_c, 9, 38, 100
14, 23280, Note_on_c, 9, 42, 70
14, 23330, Note_off_c, 9, 42, 64
14, 23330, Note_off_c, 9, 38, 64
14, 23456, Note_on_c, 9, 38, 90
14, 23506, Note_off_c, 9, 38, 64
14, 23520, Note_on_c, 9, 38, 80
14, 23570, Note_off_c, 9, 38, 64
14, 23696, Note_on_c, 9, 38, 20
14, 23746, Note_off_c, 9, 38, 64
14, 23760, Note_on_c, 9, 38, 100
14, 23760, Note_on_c, 9, 42, 80
14, 23760, Note_on_c, 9, 37, 70
14, 23810, Note_off_c, 9, 37, 64
14, 23810, Note_off_c, 9, 42, 64
14, 23810, Note_off_c, 9, 38, 64
14, 23936, Note_on_c, 9, 38, 70
14, 23986, Note_off_c, 9, 38, 64
14, 24000, Note_on_c, 9, 38, 80
14, 24050, Note_off_c, 9, 38, 64
14, 24172, Note_on_c, 9, 38, 20
14, 24222, Note_off_c, 9, 38, 64
14, 24240, Note_on_c, 9, 38, 100
14, 24240, Note_on_c, 9, 42, 70
14, 24290, Note_off_c, 9, 42, 64
14, 24290, Note_off_c, 9, 38, 64
14, 24412, Note_on_c, 9, 38, 90
14, 24462, Note_off_c, 9, 38, 64
14, 24480, Note_on_c, 9, 38, 80
14, 24530, Note_off_c, 9, 38, 64
14, 24652, Note_on_c, 9, 38, 20
14, 24652, Note_on_c, 9, 48, 40
14, 24702, Note_off_c, 9, 48, 64
14, 24702, Note_off_c, 9, 38, 64
14, 24720, Note_on_c, 9, 38, 100
14, 24720, Note_on_c, 9, 42, 80
14, 24720, Note_on_c, 9, 37, 80
14, 24720, Note_on_c, 9, 45, 50
14, 24770, Note_off_c, 9, 45, 64
14, 24770, Note_off_c, 9, 37, 64
14, 24770, Note_off_c, 9, 42, 64
14, 24770, Note_off_c, 9, 38, 64
14, 24892, Note_on_c, 9, 38, 70
14, 24942, Note_off_c, 9, 38, 64
14, 24960, Note_on_c, 9, 38, 80
14, 24960, Note_on_c, 9, 49, 30
14, 25010, Note_off_c, 9, 49, 64
14, 25010, Note_off_c, 9, 38, 64
14, 25138, Note_on_c, 9, 38, 30
14, 25188, Note_off_c, 9, 38, 64
14, 25200, Note_on_c, 9, 38, 100
14, 25200, Note_on_c, 9, 42, 70
14, 25250, Note_off_c, 9, 42, 64
14, 25250, Note_off_c, 9, 38, 64
14, 25378, Note_on_c, 9, 38, 90
14, 25428, Note_off_c, 9, 38, 64
14, 25440, Note_on_c, 9, 38, 80
14, 25490, Note_off_c, 9, 38, 64
14, 25618, Note_on_c, 9, 38, 54
14, 25668, Note_off_c, 9, 38, 64
14, 25680, Note_on_c, 9, 38, 100
14, 25680, Note_on_c, 9, 42, 80
14, 25730, Note_off_c, 9, 42, 64
14, 25730, Note_off_c, 9, 38, 64
14, 25858, Note_on_c, 9, 38, 70
14, 25908, Note_off_c, 9, 38, 64
14, 25920, Note_on_c, 9, 38, 80
14, 25970, Note_off_c, 9, 38, 64
14, 26092, Note_on_c, 9, 38, 30
14, 26142, Note_off_c, 9, 38, 64
14, 26160, Note_on_c, 9, 38, 100
14, 26160, Note_on_c, 9, 42, 70
14, 26210, Note_off_c, 9, 42, 64
14, 26210, Note_off_c, 9, 38, 64
14, 26332, Note_on_c, 9, 38, 90
14, 26382, Note_off_c, 9, 38, 64
14, 26400, Note_on_c, 9, 38, 80
14, 26450, Note_off_c, 9, 38, 64
14, 26572, Note_on_c, 9, 38, 54
14, 26622, Note_off_c, 9, 38, 64
14, 26640, Note_on_c, 9, 38, 100
14, 26640, Note_on_c, 9, 42, 80
14, 26640, Note_on_c, 9, 37, 60
14, 26690, Note_off_c, 9, 37, 64
14, 26690, Note_off_c, 9, 42, 64
14, 26690, Note_off_c, 9, 38, 64
14, 26812, Note_on_c, 9, 38, 70
14, 26862, Note_off_c, 9, 38, 64
14, 26880, Note_on_c, 9, 38, 80
14, 26930, Note_off_c, 9, 38, 64
14, 27052, Note_on_c, 9, 38, 20
14, 27102, Note_off_c, 9, 38, 64
14, 27120, Note_on_c, 9, 38, 100
14, 27120, Note_on_c, 9, 42, 70
14, 27170, Note_off_c, 9, 42, 64
14, 27170, Note_off_c, 9, 38, 64
14, 27292, Note_on_c, 9, 38, 90
14, 27342, Note_off_c, 9, 38, 64
14, 27360, Note_on_c, 9, 38, 80
14, 27410, Note_off_c, 9, 38, 64
14, 27532, Note_on_c, 9, 38, 20
14, 27582, Note_off_c, 9, 38, 64
14, 27600, Note_on_c, 9, 38, 100
14, 27600, Note_on_c, 9, 42, 80
14, 27600, Note_on_c, 9, 37, 60
14, 27650, Note_off_c, 9, 37, 64
14, 27650, Note_off_c, 9, 42, 64
14, 27650, Note_off_c, 9, 38, 64
14, 27772, Note_on_c, 9, 38, 70
14, 27822, Note_off_c, 9, 38, 64
14, 27840, Note_on_c, 9, 38, 80
14, 27890, Note_off_c, 9, 38, 64
14, 28012, Note_on_c, 9, 38, 30
14, 28062, Note_off_c, 9, 38, 64
14, 28080, Note_on_c, 9, 38, 100
14, 28080, Note_on_c, 9, 42, 70
14, 28130, Note_off_c, 9, 42, 64
14, 28130, Note_off_c, 9, 38, 64
14, 28252, Note_on_c, 9, 38, 90
14, 28302, Note_off_c, 9, 38, 64
14, 28320, Note_on_c, 9, 38, 80
14, 28370, Note_off_c, 9, 38, 64
14, 28492, Note_on_c, 9, 38, 20
14, 28542, Note_off_c, 9, 38, 64
14, 28560, Note_on_c, 9, 38, 100
14, 28560, Note_on_c, 9, 42, 80
14, 28560, Note_on_c, 9, 37, 60
14, 28610, Note_off_c, 9, 37, 64
14, 28610, Note_off_c, 9, 42, 64
14, 28610, Note_off_c, 9, 38, 64
14, 28732, Note_on_c, 9, 38, 70
14, 28782, Note_off_c, 9, 38, 64
14, 28800, Note_on_c, 9, 38, 80
14, 28850, Note_off_c, 9, 38, 64
14, 28972, Note_on_c, 9, 38, 20
14, 29022, Note_off_c, 9, 38, 64
14, 29040, Note_on_c, 9, 38, 100
14, 29040, Note_on_c, 9, 42, 70
14, 29090, Note_off_c, 9, 42, 64
14, 29090, Note_off_c, 9, 38, 64
14, 29212, Note_on_c, 9, 38, 90
14, 29262, Note_off_c, 9, 38, 64
14, 29280, Note_on_c, 9, 38, 80
14, 29330, Note_off_c, 9, 38, 64
14, 29452, Note_on_c, 9, 38, 20
14, 29502, Note_off_c, 9, 38, 64
14, 29520, Note_on_c, 9, 38, 100
14, 29520, Note_on_c, 9, 42, 80
14, 29520, Note_on_c, 9, 37, 60
14, 29570, Note_off_c, 9, 37, 64
14, 29570, Note_off_c, 9, 42, 64
14, 29570, Note_off_c, 9, 38, 64
14, 29692, Note_on_c, 9, 38, 70
14, 29742, Note_off_c, 9, 38, 64
14, 29760, Note_on_c, 9, 38, 80
14, 29810, Note_off_c, 9, 38, 64
14, 29938, Note_on_c, 9, 38, 30
14, 29988, Note_off_c, 9, 38, 64
14, 30000, Note_on_c, 9, 38, 100
14, 30000, Note_on_c, 9, 42, 70
14, 30050, Note_off_c, 9, 42, 64
14, 30050, Note_off_c, 9, 38, 64
14, 30178, Note_on_c, 9, 38, 90
14, 30228, Note_off_c, 9, 38, 64
14, 30240, Note_on_c, 9, 38, 80
14, 30290, Note_off_c, 9, 38, 64
14, 30418, Note_on_c, 9, 38, 20
14, 30468, Note_off_c, 9, 38, 64
14, 30480, Note_on_c, 9, 38, 100
14, 30480, Note_on_c, 9, 42, 80
14, 30530, Note_off_c, 9, 42, 64
14, 30530, Note_off_c, 9, 38, 64
14, 30658, Note_on_c, 9, 38, 70
14, 30708, Note_off_c, 9, 38, 64
14, 30720, Note_on_c, 9, 38, 80
14, 30770, Note_off_c, 9, 38, 64
14, 30892, Note_on_c, 9, 38, 20
14, 30942, Note_off_c, 9, 38, 64
14, 30960, Note_on_c, 9, 38, 100
14, 30960, Note_on_c, 9, 42, 70
14, 31010, Note_off_c, 9, 42, 64
14, 31010, Note_off_c, 9, 38, 64
14, 31132, Note_on_c, 9, 38, 90
14, 31182, Note_off_c, 9, 38, 64
14, 31200, Note_on_c, 9, 38, 80
14, 31250, Note_off_c, 9, 38, 64
14, 31372, Note_on_c, 9, 38, 20
14, 31422, Note_off_c, 9, 38, 64
14, 31440, Note_on_c, 9, 38, 100
14, 31440, Note_on_c, 9, 42, 80
14, 31440, Note_on_c, 9, 37, 60
14, 31490, Note_off_c, 9, 37, 64
14, 31490, Note_off_c, 9, 42, 64
14, 31490, Note_off_c, 9, 38, 64
14, 31612, Note_on_c, 9, 38, 70
14, 31662, Note_off_c, 9, 38, 64
14, 31680, Note_on_c, 9, 38, 80
14, 31730, Note_off_c, 9, 38, 64
14, 31852, Note_on_c, 9, 38, 20
14, 31902, Note_off_c, 9, 38, 64
14, 31920, Note_on_c, 9, 38, 100
14, 31920, Note_on_c, 9, 42, 70
14, 31970, Note_off_c, 9, 42, 64
14, 31970, Note_off_c, 9, 38, 64
14, 32092, Note_on_c, 9, 38, 90
14, 32142, Note_off_c, 9, 38, 64
14, 32160, Note_on_c, 9, 38, 80
14, 32210, Note_off_c, 9, 38, 64
14, 32332, Note_on_c, 9, 38, 20
14, 32332, Note_on_c, 9, 48, 40
14, 32382, Note_off_c, 9, 48, 64
14, 32382, Note_off_c, 9, 38, 64
14, 32400, Note_on_c, 9, 38, 100
14, 32400, Note_on_c, 9, 42, 80
14, 32400, Note_on_c, 9, 37, 80
14, 32400, Note_on_c, 9, 45, 50
14, 32450, Note_off_c, 9, 45, 64
14, 32450, Note_off_c, 9, 37, 64
14, 32450, Note_off_c, 9, 42, 64
14, 32450, Note_off_c, 9, 38, 64
14, 32572, Note_on_c, 9, 38, 70
14, 32622, Note_off_c, 9, 38, 64
14, 32640, Note_on_c, 9, 38, 80
14, 32690, Note_off_c, 9, 38, 64
14, 32812, Note_on_c, 9, 38, 20
14, 32862, Note_off_c, 9, 38, 64
14, 32880, Note_on_c, 9, 38, 100
14, 32880, Note_on_c, 9, 42, 70
14, 32930, Note_off_c, 9, 42, 64
14, 32930, Note_off_c, 9, 38, 64
14, 33052, Note_on_c, 9, 38, 90
14, 33102, Note_off_c, 9, 38, 64
14, 33120, Note_on_c, 9, 38, 80
14, 33170, Note_off_c, 9, 38, 64
14, 33292, Note_on_c, 9, 38, 20
14, 33342, Note_off_c, 9, 38, 64
14, 33360, Note_on_c, 9, 38, 100
14, 33360, Note_on_c, 9, 42, 80
14, 33360, Note_on_c, 9, 37, 70
14, 33410, Note_off_c, 9, 37, 64
14, 33410, Note_off_c, 9, 42, 64
14, 33410, Note_off_c, 9, 38, 64
14, 33532, Note_on_c, 9, 38, 70
14, 33582, Note_off_c, 9, 38, 64
14, 33600, Note_on_c, 9, 38, 80
14, 33650, Note_off_c, 9, 38, 64
14, 33772, Note_on_c, 9, 38, 20
14, 33822, Note_off_c, 9, 38, 64
14, 33840, Note_on_c, 9, 38, 100
14, 33840, Note_on_c, 9, 42, 70
14, 33890, Note_off_c, 9, 42, 64
14, 33890, Note_off_c, 9, 38, 64
14, 34012, Note_on_c, 9, 38, 90
14, 34062, Note_off_c, 9, 38, 64
14, 34080, Note_on_c, 9, 38, 80
14, 34130, Note_off_c, 9, 38, 64
14, 34252, Note_on_c, 9, 38, 20
14, 34302, Note_off_c, 9, 38, 64
14, 34320, Note_on_c, 9, 38, 100
14, 34320, Note_on_c, 9, 42, 80
14, 34320, Note_on_c, 9, 37, 70
14, 34370, Note_off_c, 9, 37, 64
14, 34370, Note_off_c, 9, 42, 64
14, 34370, Note_off_c, 9, 38, 64
14, 34492, Note_on_c, 9, 38, 70
14, 34542, Note_off_c, 9, 38, 64
14, 34560, Note_on_c, 9, 38, 80
14, 34610, Note_off_c, 9, 38, 64
14, 34738, Note_on_c, 9, 38, 20
14, 34788, Note_off_c, 9, 38, 64
14, 34800, Note_on_c, 9, 38, 100
14, 34800, Note_on_c, 9, 42, 70
14, 34850, Note_off_c, 9, 42, 64
14, 34850, Note_off_c, 9, 38, 64
14, 34978, Note_on_c, 9, 38, 90
14, 35028, Note_off_c, 9, 38, 64
14, 35040, Note_on_c, 9, 38, 80
14, 35090, Note_off_c, 9, 38, 64
14, 35218, Note_on_c, 9, 38, 20
14, 35268, Note_off_c, 9, 38, 64
14, 35280, Note_on_c, 9, 38, 100
14, 35280, Note_on_c, 9, 42, 80
14, 35280, Note_on_c, 9, 37, 70
14, 35330, Note_off_c, 9, 37, 64
14, 35330, Note_off_c, 9, 42, 64
14, 35330, Note_off_c, 9, 38, 64
14, 35458, Note_on_c, 9, 38, 70
14, 35508, Note_off_c, 9, 38, 64
14, 35520, Note_on_c, 9, 38, 80
14, 35570, Note_off_c, 9, 38, 64
14, 35696, Note_on_c, 9, 38, 20
14, 35746, Note_off_c, 9, 38, 64
14, 35760, Note_on_c, 9, 38, 100
14, 35760, Note_on_c, 9, 42, 70
14, 35810, Note_off_c, 9, 42, 64
14, 35810, Note_off_c, 9, 38, 64
14, 35936, Note_on_c, 9, 38, 90
14, 35986, Note_off_c, 9, 38, 64
14, 36000, Note_on_c, 9, 38, 80
14, 36050, Note_off_c, 9, 38, 64
14, 36176, Note_on_c, 9, 38, 54
14, 36226, Note_off_c, 9, 38, 64
14, 36240, Note_on_c, 9, 38, 100
14, 36240, Note_on_c, 9, 42, 80
14, 36240, Note_on_c, 9, 37, 70
14, 36290, Note_off_c, 9, 37, 64
14, 36290, Note_off_c, 9, 42, 64
14, 36290, Note_off_c, 9, 38, 64
14, 36416, Note_on_c, 9, 38, 70
14, 36466, Note_off_c, 9, 38, 64
14, 36480, Note_on_c, 9, 38, 80
14, 36530, Note_off_c, 9, 38, 64
14, 36658, Note_on_c, 9, 38, 20
14, 36708, Note_off_c, 9, 38, 64
14, 36720, Note_on_c, 9, 38, 100
14, 36720, Note_on_c, 9, 42, 70
14, 36770, Note_off_c, 9, 42, 64
14, 36770, Note_off_c, 9, 38, 64
14, 36898, Note_on_c, 9, 38, 90
14, 36948, Note_off_c, 9, 38, 64
14, 36960, Note_on_c, 9, 38, 80
14, 37010, Note_off_c, 9, 38, 64
14, 37138, Note_on_c, 9, 38, 20
14, 37188, Note_off_c, 9, 38, 64
14, 37200, Note_on_c, 9, 38, 100
14, 37200, Note_on_c, 9, 42, 80
14, 37200, Note_on_c, 9, 37, 70
14, 37250, Note_off_c, 9, 37, 64
14, 37250, Note_off_c, 9, 42, 64
14, 37250, Note_off_c, 9, 38, 64
14, 37378, Note_on_c, 9, 38, 70
14, 37428, Note_off_c, 9, 38, 64
14, 37440, Note_on_c, 9, 38, 80
14, 37490, Note_off_c, 9, 38, 64
14, 37618, Note_on_c, 9, 38, 20
14, 37668, Note_off_c, 9, 38, 64
14, 37680, Note_on_c, 9, 38, 100
14, 37680, Note_on_c, 9, 42, 70
14, 37730, Note_off_c, 9, 42, 64
14, 37730, Note_off_c, 9, 38, 64
14, 37858, Note_on_c, 9, 38, 90
14, 37908, Note_off_c, 9, 38, 64
14, 37920, Note_on_c, 9, 38, 80
14, 37970, Note_off_c, 9, 38, 64
14, 38098, Note_on_c, 9, 38, 20
14, 38148, Note_off_c, 9, 38, 64
14, 38160, Note_on_c, 9, 38, 100
14, 38160, Note_on_c, 9, 42, 80
14, 38160, Note_on_c, 9, 37, 70
14, 38210, Note_off_c, 9, 37, 64
14, 38210, Note_off_c, 9, 42, 64
14, 38210, Note_off_c, 9, 38, 64
14, 38338, Note_on_c, 9, 38, 70
14, 38388, Note_off_c, 9, 38, 64
14, 38400, Note_on_c, 9, 38, 80
14, 38450, Note_off_c, 9, 38, 64
14, 38576, Note_on_c, 9, 38, 54
14, 38626, Note_off_c, 9, 38, 64
14, 38640, Note_on_c, 9, 38, 100
14, 38640, Note_on_c, 9, 42, 70
14, 38690, Note_off_c, 9, 42, 64
14, 38690, Note_off_c, 9, 38, 64
14, 38816, Note_on_c, 9, 38, 90
14, 38866, Note_off_c, 9, 38, 64
14, 38880, Note_on_c, 9, 38, 80
14, 38930, Note_off_c, 9, 38, 64
14, 39056, Note_on_c, 9, 38, 54
14, 39106, Note_off_c, 9, 38, 64
14, 39120, Note_on_c, 9, 38, 100
14, 39120, Note_on_c, 9, 42, 80
14, 39120, Note_on_c, 9, 37, 70
14, 39170, Note_off_c, 9, 37, 64
14, 39170, Note_off_c, 9, 42, 64
14, 39170, Note_off_c, 9, 38, 64
14, 39296, Note_on_c, 9, 38, 70
14, 39346, Note_off_c, 9, 38, 64
14, 39360, Note_on_c, 9, 38, 80
14, 39410, Note_off_c, 9, 38, 64
14, 39532, Note_on_c, 9, 38, 20
14, 39582, Note_off_c, 9, 38, 64
14, 39600, Note_on_c, 9, 38, 100
14, 39600, Note_on_c, 9, 42, 70
14, 39650, Note_off_c, 9, 42, 64
14, 39650, Note_off_c, 9, 38, 64
14, 39772, Note_on_c, 9, 38, 90
14, 39822, Note_off_c, 9, 38, 64
14, 39840, Note_on_c, 9, 38, 80
14, 39890, Note_off_c, 9, 38, 64
14, 40012, Note_on_c, 9, 38, 20
14, 40012, Note_on_c, 9, 48, 40
14, 40062, Note_off_c, 9, 48, 64
14, 40062, Note_off_c, 9, 38, 64
14, 40080, Note_on_c, 9, 38, 100
14, 40080, Note_on_c, 9, 42, 80
14, 40080, Note_on_c, 9, 37, 80
14, 40080, Note_on_c, 9, 45, 50
14, 40130, Note_off_c, 9, 45, 64
14, 40130, Note_off_c, 9, 37, 64
14, 40130, Note_off_c, 9, 42, 64
14, 40130, Note_off_c, 9, 38, 64
14, 40252, Note_on_c, 9, 38, 70
14, 40302, Note_off_c, 9, 38, 64
14, 40320, Note_on_c, 9, 38, 80
14, 40370, Note_off_c, 9, 38, 64
14, 40496, Note_on_c, 9, 38, 54
14, 40546, Note_off_c, 9, 38, 64
14, 40560, Note_on_c, 9, 38, 100
14, 40560, Note_on_c, 9, 42, 70
14, 40610, Note_off_c, 9, 42, 64
14, 40610, Note_off_c, 9, 38, 64
14, 40736, Note_on_c, 9, 38, 90
14, 40786, Note_off_c, 9, 38, 64
14, 40800, Note_on_c, 9, 38, 80
14, 40850, Note_off_c, 9, 38, 64
14, 40976, Note_on_c, 9, 38, 20
14, 41026, Note_off_c, 9, 38, 64
14, 41040, Note_on_c, 9, 38, 100
14, 41040, Note_on_c, 9, 42, 80
14, 41040, Note_on_c, 9, 37, 70
14, 41090, Note_off_c, 9, 37, 64
14, 41090, Note_off_c, 9, 42, 64
14, 41090, Note_off_c, 9, 38, 64
14, 41216, Note_on_c, 9, 38, 70
14, 41266, Note_off_c, 9, 38, 64
14, 41280, Note_on_c, 9, 38, 80
14, 41330, Note_off_c, 9, 38, 64
14, 41452, Note_on_c, 9, 38, 20
14, 41502, Note_off_c, 9, 38, 64
14, 41520, Note_on_c, 9, 38, 100
14, 41520, Note_on_c, 9, 42, 70
14, 41570, Note_off_c, 9, 42, 64
14, 41570, Note_off_c, 9, 38, 64
14, 41692, Note_on_c, 9, 38, 90
14, 41742, Note_off_c, 9, 38, 64
14, 41760, Note_on_c, 9, 38, 80
14, 41810, Note_off_c, 9, 38, 64
14, 41932, Note_on_c, 9, 38, 20
14, 41982, Note_off_c, 9, 38, 64
14, 42000, Note_on_c, 9, 38, 100
14, 42000, Note_on_c, 9, 42, 80
14, 42000, Note_on_c, 9, 37, 70
14, 42050, Note_off_c, 9, 37, 64
14, 42050, Note_off_c, 9, 42, 64
14, 42050, Note_off_c, 9, 38, 64
14, 42172, Note_on_c, 9, 38, 70
14, 42222, Note_off_c, 9, 38, 64
14, 42240, Note_on_c, 9, 38, 80
14, 42290, Note_off_c, 9, 38, 64
14, 42416, Note_on_c, 9, 38, 20
14, 42466, Note_off_c, 9, 38, 64
14, 42480, Note_on_c, 9, 38, 100
14, 42480, Note_on_c, 9, 42, 70
14, 42530, Note_off_c, 9, 42, 64
14, 42530, Note_off_c, 9, 38, 64
14, 42656, Note_on_c, 9, 38, 90
14, 42706, Note_off_c, 9, 38, 64
14, 42720, Note_on_c, 9, 38, 80
14, 42770, Note_off_c, 9, 38, 64
14, 42896, Note_on_c, 9, 38, 20
14, 42946, Note_off_c, 9, 38, 64
14, 42960, Note_on_c, 9, 38, 100
14, 42960, Note_on_c, 9, 42, 80
14, 42960, Note_on_c, 9, 37, 70
14, 43010, Note_off_c, 9, 37, 64
14, 43010, Note_off_c, 9, 42, 64
14, 43010, Note_off_c, 9, 38, 64
14, 43136, Note_on_c, 9, 38, 70
14, 43186, Note_off_c, 9, 38, 64
14, 43200, Note_on_c, 9, 38, 80
14, 43250, Note_off_c, 9, 38, 64
14, 43378, Note_on_c, 9, 38, 20
14, 43428, Note_off_c, 9, 38, 64
14, 43440, Note_on_c, 9, 38, 100
14, 43440, Note_on_c, 9, 42, 70
14, 43490, Note_off_c, 9, 42, 64
14, 43490, Note_off_c, 9, 38, 64
14, 43618, Note_on_c, 9, 38, 90
14, 43668, Note_off_c, 9, 38, 64
14, 43680, Note_on_c, 9, 38, 80
14, 43730, Note_off_c, 9, 38, 64
14, 43858, Note_on_c, 9, 38, 20
14, 43908, Note_off_c, 9, 38, 64
14, 43920, Note_on_c, 9, 38, 100
14, 43920, Note_on_c, 9, 42, 80
14, 43920, Note_on_c, 9, 37, 70
14, 43970, Note_off_c, 9, 37, 64
14, 43970, Note_off_c, 9, 42, 64
14, 43970, Note_off_c, 9, 38, 64
14, 44098, Note_on_c, 9, 38, 70
14, 44148, Note_off_c, 9, 38, 64
14, 44160, Note_on_c, 9, 38, 80
14, 44210, Note_off_c, 9, 38, 64
14, 44338, Note_on_c, 9, 38, 20
14, 44388, Note_off_c, 9, 38, 64
14, 44400, Note_on_c, 9, 38, 100
14, 44400, Note_on_c, 9, 42, 70
14, 44450, Note_off_c, 9, 42, 64
14, 44450, Note_off_c, 9, 38, 64
14, 44578, Note_on_c, 9, 38, 90
14, 44628, Note_off_c, 9, 38, 64
14, 44640, Note_on_c, 9, 38, 80
14, 44690, Note_off_c, 9, 38, 64
14, 44818, Note_on_c, 9, 38, 20
14, 44868, Note_off_c, 9, 38, 64
14, 44880, Note_on_c, 9, 38, 100
14, 44880, Note_on_c, 9, 42, 80
14, 44880, Note_on_c, 9, 37, 70
14, 44930, Note_off_c, 9, 37, 64
14, 44930, Note_off_c, 9, 42, 64
14, 44930, Note_off_c, 9, 38, 64
14, 45058, Note_on_c, 9, 38, 70
14, 45108, Note_off_c, 9, 38, 64
14, 45120, Note_on_c, 9, 38, 80
14, 45170, Note_off_c, 9, 38, 64
14, 45298, Note_on_c, 9, 38, 20
14, 45348, Note_off_c, 9, 38, 64
14, 45360, Note_on_c, 9, 38, 100
14, 45360, Note_on_c, 9, 42, 70
14, 45410, Note_off_c, 9, 42, 64
14, 45410, Note_off_c, 9, 38, 64
14, 45538, Note_on_c, 9, 38, 90
14, 45588, Note_off_c, 9, 38, 64
14, 45600, Note_on_c, 9, 38, 80
14, 45650, Note_off_c, 9, 38, 64
14, 45778, Note_on_c, 9, 38, 20
14, 45828, Note_off_c, 9, 38, 64
14, 45840, Note_on_c, 9, 38, 100
14, 45840, Note_on_c, 9, 42, 80
14, 45840, Note_on_c, 9, 37, 70
14, 45890, Note_off_c, 9, 37, 64
14, 45890, Note_off_c, 9, 42, 64
14, 45890, Note_off_c, 9, 38, 64
14, 46018, Note_on_c, 9, 38, 70
14, 46068, Note_off_c, 9, 38, 64
14, 46080, Note_on_c, 9, 38, 80
14, 46130, Note_off_c, 9, 38, 64
14, 46258, Note_on_c, 9, 38, 20
14, 46308, Note_off_c, 9, 38, 64
14, 46320, Note_on_c, 9, 38, 100
14, 46320, Note_on_c, 9, 42, 70
14, 46370, Note_off_c, 9, 42, 64
14, 46370, Note_off_c, 9, 38, 64
14, 46498, Note_on_c, 9, 38, 90
14, 46548, Note_off_c, 9, 38, 64
14, 46560, Note_on_c, 9, 38, 80
14, 46610, Note_off_c, 9, 38, 64
14, 46738, Note_on_c, 9, 38, 20
14, 46788, Note_off_c, 9, 38, 64
14, 46800, Note_on_c, 9, 38, 100
14, 46800, Note_on_c, 9, 42, 80
14, 46800, Note_on_c, 9, 37, 70
14, 46850, Note_off_c, 9, 37, 64
14, 46850, Note_off_c, 9, 42, 64
14, 46850, Note_off_c, 9, 38, 64
14, 46978, Note_on_c, 9, 38, 70
14, 47028, Note_off_c, 9, 38, 64
14, 47040, Note_on_c, 9, 38, 80
14, 47090, Note_off_c, 9, 38, 64
14, 47212, Note_on_c, 9, 38, 20
14, 47262, Note_off_c, 9, 38, 64
14, 47280, Note_on_c, 9, 38, 100
14, 47280, Note_on_c, 9, 42, 70
14, 47330, Note_off_c, 9, 42, 64
14, 47330, Note_off_c, 9, 38, 64
14, 47452, Note_on_c, 9, 38, 90
14, 47502, Note_off_c, 9, 38, 64
14, 47520, Note_on_c, 9, 38, 80
14, 47570, Note_off_c, 9, 38, 64
14, 47692, Note_on_c, 9, 38, 20
14, 47692, Note_on_c, 9, 48, 40
14, 47742, Note_off_c, 9, 48, 64
14, 47742, Note_off_c, 9, 38, 64
14, 47760, Note_on_c, 9, 38, 100
14, 47760, Note_on_c, 9, 42, 80
14, 47760, Note_on_c, 9, 37, 80
14, 47760, Note_on_c, 9, 45, 50
14, 47810, Note_off_c, 9, 45, 64
14, 47810, Note_off_c, 9, 37, 64
14, 47810, Note_off_c, 9, 42, 64
14, 47810, Note_off_c, 9, 38, 64
14, 47932, Note_on_c, 9, 38, 70
14, 47982, Note_off_c, 9, 38, 64
14, 48000, Note_on_c, 9, 38, 80
14, 48050, Note_off_c, 9, 38, 64
14, 48178, Note_on_c, 9, 38, 20
14, 48228, Note_off_c, 9, 38, 64
14, 48240, Note_on_c, 9, 38, 100
14, 48240, Note_on_c, 9, 42, 70
14, 48290, Note_off_c, 9, 42, 64
14, 48290, Note_off_c, 9, 38, 64
14, 48418, Note_on_c, 9, 38, 90
14, 48468, Note_off_c, 9, 38, 64
14, 48480, Note_on_c, 9, 38, 80
14, 48530, Note_off_c, 9, 38, 64
14, 48658, Note_on_c, 9, 38, 20
14, 48708, Note_off_c, 9, 38, 64
14, 48720, Note_on_c, 9, 38, 100
14, 48720, Note_on_c, 9, 42, 80
14, 48720, Note_on_c, 9, 37, 70
14, 48770, Note_off_c, 9, 37, 64
14, 48770, Note_off_c, 9, 42, 64
14, 48770, Note_off_c, 9, 38, 64
14, 48898, Note_on_c, 9, 38, 70
14, 48948, Note_off_c, 9, 38, 64
14, 48960, Note_on_c, 9, 38, 80
14, 49010, Note_off_c, 9, 38, 64
14, 49132, Note_on_c, 9, 38, 20
14, 49182, Note_off_c, 9, 38, 64
14, 49200, Note_on_c, 9, 38, 100
14, 49200, Note_on_c, 9, 42, 70
14, 49250, Note_off_c, 9, 42, 64
14, 49250, Note_off_c, 9, 38, 64
14, 49372, Note_on_c, 9, 38, 90
14, 49422, Note_off_c, 9, 38, 64
14, 49440, Note_on_c, 9, 38, 80
14, 49490, Note_off_c, 9, 38, 64
14, 49612, Note_on_c, 9, 38, 20
14, 49662, Note_off_c, 9, 38, 64
14, 49680, Note_on_c, 9, 38, 100
14, 49680, Note_on_c, 9, 42, 80
14, 49680, Note_on_c, 9, 37, 70
14, 49730, Note_off_c, 9, 37, 64
14, 49730, Note_off_c, 9, 42, 64
14, 49730, Note_off_c, 9, 38, 64
14, 49852, Note_on_c, 9, 38, 70
14, 49902, Note_off_c, 9, 38, 64
14, 49920, Note_on_c, 9, 38, 80
14, 49970, Note_off_c, 9, 38, 64
14, 50092, Note_on_c, 9, 38, 20
14, 50142, Note_off_c, 9, 38, 64
14, 50160, Note_on_c, 9, 38, 100
14, 50160, Note_on_c, 9, 42, 70
14, 50210, Note_off_c, 9, 42, 64
14, 50210, Note_off_c, 9, 38, 64
14, 50332, Note_on_c, 9, 38, 90
14, 50382, Note_off_c, 9, 38, 64
14, 50400, Note_on_c, 9, 38, 80
14, 50450, Note_off_c, 9, 38, 64
14, 50572, Note_on_c, 9, 38, 20
14, 50622, Note_off_c, 9, 38, 64
14, 50640, Note_on_c, 9, 38, 100
14, 50640, Note_on_c, 9, 42, 80
14, 50640, Note_on_c, 9, 37, 70
14, 50690, Note_off_c, 9, 37, 64
14, 50690, Note_off_c, 9, 42, 64
14, 50690, Note_off_c, 9, 38, 64
14, 50812, Note_on_c, 9, 38, 70
14, 50862, Note_off_c, 9, 38, 64
14, 50880, Note_on_c, 9, 38, 80
14, 50930, Note_off_c, 9, 38, 64
14, 51052, Note_on_c, 9, 38, 20
14, 51102, Note_off_c, 9, 38, 64
14, 51120, Note_on_c, 9, 38, 100
14, 51120, Note_on_c, 9, 42, 70
14, 51170, Note_off_c, 9, 42, 64
14, 51170, Note_off_c, 9, 38, 64
14, 51292, Note_on_c, 9, 38, 90
14, 51342, Note_off_c, 9, 38, 64
14, 51360, Note_on_c, 9, 38, 80
14, 51410, Note_off_c, 9, 38, 64
14, 51532, Note_on_c, 9, 38, 20
14, 51582, Note_off_c, 9, 38, 64
14, 51600, Note_on_c, 9, 38, 100
14, 51600, Note_on_c, 9, 42, 80
14, 51600, Note_on_c, 9, 37, 70
14, 51650, Note_off_c, 9, 37, 64
14, 51650, Note_off_c, 9, 42, 64
14, 51650, Note_off_c, 9, 38, 64
14, 51772, Note_on_c, 9, 38, 70
14, 51822, Note_off_c, 9, 38, 64
14, 51840, Note_on_c, 9, 38, 80
14, 51890, Note_off_c, 9, 38, 64
14, 52016, Note_on_c, 9, 38, 54
14, 52066, Note_off_c, 9, 38, 64
14, 52080, Note_on_c, 9, 38, 100
14, 52080, Note_on_c, 9, 42, 70
14, 52130, Note_off_c, 9, 42, 64
14, 52130, Note_off_c, 9, 38, 64
14, 52256, Note_on_c, 9, 38, 90
14, 52306, Note_off_c, 9, 38, 64
14, 52320, Note_on_c, 9, 38, 80
14, 52370, Note_off_c, 9, 38, 64
14, 52496, Note_on_c, 9, 38, 54
14, 52546, Note_off_c, 9, 38, 64
14, 52560, Note_on_c, 9, 38, 100
14, 52560, Note_on_c, 9, 42, 80
14, 52560, Note_on_c, 9, 37, 70
14, 52610, Note_off_c, 9, 37, 64
14, 52610, Note_off_c, 9, 42, 64
14, 52610, Note_off_c, 9, 38, 64
14, 52736, Note_on_c, 9, 38, 70
14, 52786, Note_off_c, 9, 38, 64
14, 52800, Note_on_c, 9, 38, 80
14, 52850, Note_off_c, 9, 38, 64
14, 52976, Note_on_c, 9, 38, 54
14, 53026, Note_off_c, 9, 38, 64
14, 53040, Note_on_c, 9, 38, 100
14, 53040, Note_on_c, 9, 42, 70
14, 53090, Note_off_c, 9, 42, 64
14, 53090, Note_off_c, 9, 38, 64
14, 53216, Note_on_c, 9, 38, 90
14, 53266, Note_off_c, 9, 38, 64
14, 53280, Note_on_c, 9, 38, 80
14, 53330, Note_off_c, 9, 38, 64
14, 53456, Note_on_c, 9, 38, 20
14, 53506, Note_off_c, 9, 38, 64
14, 53520, Note_on_c, 9, 38, 100
14, 53520, Note_on_c, 9, 42, 80
14, 53520, Note_on_c, 9, 37, 70
14, 53570, Note_off_c, 9, 37, 64
14, 53570, Note_off_c, 9, 42, 64
14, 53570, Note_off_c, 9, 38, 64
14, 53696, Note_on_c, 9, 38, 70
14, 53746, Note_off_c, 9, 38, 64
14, 53760, Note_on_c, 9, 38, 80
14, 53810, Note_off_c, 9, 38, 64
14, 53936, Note_on_c, 9, 38, 54
14, 53986, Note_off_c, 9, 38, 64
14, 54000, Note_on_c, 9, 38, 100
14, 54000, Note_on_c, 9, 42, 70
14, 54050, Note_off_c, 9, 42, 64
14, 54050, Note_off_c, 9, 38, 64
14, 54176, Note_on_c, 9, 38, 90
14, 54226, Note_off_c, 9, 38, 64
14, 54240, Note_on_c, 9, 38, 80
14, 54290, Note_off_c, 9, 38, 64
14, 54416, Note_on_c, 9, 38, 20
14, 54466, Note_off_c, 9, 38, 64
14, 54480, Note_on_c, 9, 38, 100
14, 54480, Note_on_c, 9, 42, 80
14, 54480, Note_on_c, 9, 37, 70
14, 54530, Note_off_c, 9, 37, 64
14, 54530, Note_off_c, 9, 42, 64
14, 54530, Note_off_c, 9, 38, 64
14, 54656, Note_on_c, 9, 38, 70
14, 54706, Note_off_c, 9, 38, 64
14, 54720, Note_on_c, 9, 38, 80
14, 54770, Note_off_c, 9, 38, 64
14, 54892, Note_on_c, 9, 38, 20
14, 54942, Note_off_c, 9, 38, 64
14, 54960, Note_on_c, 9, 38, 100
14, 54960, Note_on_c, 9, 42, 70
14, 55010, Note_off_c, 9, 42, 64
14, 55010, Note_off_c, 9, 38, 64
14, 55132, Note_on_c, 9, 38, 90
14, 55182, Note_off_c, 9, 38, 64
14, 55200, Note_on_c, 9, 38, 80
14, 55250, Note_off_c, 9, 38, 64
14, 55372, Note_on_c, 9, 38, 20
14, 55372, Note_on_c, 9, 48, 40
14, 55422, Note_off_c, 9, 48, 64
14, 55422, Note_off_c, 9, 38, 64
14, 55440, Note_on_c, 9, 38, 100
14, 55440, Note_on_c, 9, 42, 80
14, 55440, Note_on_c, 9, 37, 80
14, 55440, Note_on_c, 9, 45, 50
14, 55490, Note_off_c, 9, 45, 64
14, 55490, Note_off_c, 9, 37, 64
14, 55490, Note_off_c, 9, 42, 64
14, 55490, Note_off_c, 9, 38, 64
14, 55612, Note_on_c, 9, 38, 70
14, 55662, Note_off_c, 9, 38, 64
14, 55680, Note_on_c, 9, 38, 80
14, 55730, Note_off_c, 9, 38, 64
14, 55858, Note_on_c, 9, 38, 20
14, 55908, Note_off_c, 9, 38, 64
14, 55920, Note_on_c, 9, 38, 100
14, 55920, Note_on_c, 9, 42, 70
14, 55970, Note_off_c, 9, 42, 64
14, 55970, Note_off_c, 9, 38, 64
14, 56098, Note_on_c, 9, 38, 90
14, 56148, Note_off_c, 9, 38, 64
14, 56160, Note_on_c, 9, 38, 80
14, 56210, Note_off_c, 9, 38, 64
14, 56338, Note_on_c, 9, 38, 20
14, 56388, Note_off_c, 9, 38, 64
14, 56400, Note_on_c, 9, 38, 100
14, 56400, Note_on_c, 9, 42, 80
14, 56400, Note_on_c, 9, 37, 70
14, 56450, Note_off_c, 9, 37, 64
14, 56450, Note_off_c, 9, 42, 64
14, 56450, Note_off_c, 9, 38, 64
14, 56578, Note_on_c, 9, 38, 70
14, 56628, Note_off_c, 9, 38, 64
14, 56640, Note_on_c, 9, 38, 80
14, 56690, Note_off_c, 9, 38, 64
14, 56818, Note_on_c, 9, 38, 20
14, 56868, Note_off_c, 9, 38, 64
14, 56880, Note_on_c, 9, 38, 100
14, 56880, Note_on_c, 9, 42, 70
14, 56930, Note_off_c, 9, 42, 64
14, 56930, Note_off_c, 9, 38, 64
14, 57058, Note_on_c, 9, 38, 90
14, 57108, Note_off_c, 9, 38, 64
14, 57120, Note_on_c, 9, 38, 80
14, 57170, Note_off_c, 9, 38, 64
14, 57298, Note_on_c, 9, 38, 20
14, 57348, Note_off_c, 9, 38, 64
14, 57360, Note_on_c, 9, 38, 100
14, 57360, Note_on_c, 9, 42, 80
14, 57360, Note_on_c, 9, 37, 70
14, 57410, Note_off_c, 9, 37, 64
14, 57410, Note_off_c, 9, 42, 64
14, 57410, Note_off_c, 9, 38, 64
14, 57538, Note_on_c, 9, 38, 70
14, 57588, Note_off_c, 9, 38, 64
14, 57600, Note_on_c, 9, 38, 80
14, 57650, Note_off_c, 9, 38, 64
14, 57772, Note_on_c, 9, 38, 20
14, 57822, Note_off_c, 9, 38, 64
14, 57840, Note_on_c, 9, 38, 100
14, 57840, Note_on_c, 9, 42, 70
14, 57890, Note_off_c, 9, 42, 64
14, 57890, Note_off_c, 9, 38, 64
14, 58012, Note_on_c, 9, 38, 90
14, 58062, Note_off_c, 9, 38, 64
14, 58080, Note_on_c, 9, 38, 80
14, 58130, Note_off_c, 9, 38, 64
14, 58252, Note_on_c, 9, 38, 20
14, 58302, Note_off_c, 9, 38, 64
14, 58320, Note_on_c, 9, 38, 100
14, 58320, Note_on_c, 9, 42, 80
14, 58320, Note_on_c, 9, 37, 70
14, 58370, Note_off_c, 9, 37, 64
14, 58370, Note_off_c, 9, 42, 64
14, 58370, Note_off_c, 9, 38, 64
14, 58492, Note_on_c, 9, 38, 70
14, 58542, Note_off_c, 9, 38, 64
14, 58560, Note_on_c, 9, 38, 80
14, 58610, Note_off_c, 9, 38, 64
14, 58738, Note_on_c, 9, 38, 20
14, 58788, Note_off_c, 9, 38, 64
14, 58800, Note_on_c, 9, 38, 100
14, 58800, Note_on_c, 9, 42, 70
14, 58850, Note_off_c, 9, 42, 64
14, 58850, Note_off_c, 9, 38, 64
14, 58978, Note_on_c, 9, 38, 90
14, 59028, Note_off_c, 9, 38, 64
14, 59040, Note_on_c, 9, 38, 80
14, 59090, Note_off_c, 9, 38, 64
14, 59218, Note_on_c, 9, 38, 20
14, 59268, Note_off_c, 9, 38, 64
14, 59280, Note_on_c, 9, 38, 100
14, 59280, Note_on_c, 9, 42, 80
14, 59280, Note_on_c, 9, 37, 70
14, 59330, Note_off_c, 9, 37, 64
14, 59330, Note_off_c, 9, 42, 64
14, 59330, Note_off_c, 9, 38, 64
14, 59458, Note_on_c, 9, 38, 70
14, 59508, Note_off_c, 9, 38, 64
14, 59520, Note_on_c, 9, 38, 80
14, 59570, Note_off_c, 9, 38, 64
14, 59692, Note_on_c, 9, 38, 20
14, 59742, Note_off_c, 9, 38, 64
14, 59760, Note_on_c, 9, 38, 100
14, 59760, Note_on_c, 9, 42, 70
14, 59810, Note_off_c, 9, 42, 64
14, 59810, Note_off_c, 9, 38, 64
14, 59932, Note_on_c, 9, 38, 90
14, 59982, Note_off_c, 9, 38, 64
14, 60000, Note_on_c, 9, 38, 80
14, 60050, Note_off_c, 9, 38, 64
14, 60172, Note_on_c, 9, 38, 20
14, 60222, Note_off_c, 9, 38, 64
14, 60240, Note_on_c, 9, 38, 100
14, 60240, Note_on_c, 9, 42, 80
14, 60240, Note_on_c, 9, 37, 70
14, 60290, Note_off_c, 9, 37, 64
14, 60290, Note_off_c, 9, 42, 64
14, 60290, Note_off_c, 9, 38, 64
14, 60412, Note_on_c, 9, 38, 70
14, 60462, Note_off_c, 9, 38, 64
14, 60480, Note_on_c, 9, 38, 80
14, 60530, Note_off_c, 9, 38, 64
14, 60656, Note_on_c, 9, 38, 20
14, 60706, Note_off_c, 9, 38, 64
14, 60720, Note_on_c, 9, 38, 100
14, 60720, Note_on_c, 9, 42, 70
14, 60770, Note_off_c, 9, 42, 64
14, 60770, Note_off_c, 9, 38, 64
14, 60896, Note_on_c, 9, 38, 90
14, 60946, Note_off_c, 9, 38, 64
14, 60960, Note_on_c, 9, 38, 80
14, 61010, Note_off_c, 9, 38, 64
14, 61136, Note_on_c, 9, 38, 54
14, 61186, Note_off_c, 9, 38, 64
14, 61200, Note_on_c, 9, 38, 100
14, 61200, Note_on_c, 9, 42, 80
14, 61200, Note_on_c, 9, 37, 70
14, 61250, Note_off_c, 9, 37, 64
14, 61250, Note_off_c, 9, 42, 64
14, 61250, Note_off_c, 9, 38, 64
14, 61376, Note_on_c, 9, 38, 70
14, 61426, Note_off_c, 9, 38, 64
14, 61440, Note_on_c, 9, 38, 80
14, 61490, Note_off_c, 9, 38, 64
14, 61618, Note_on_c, 9, 38, 20
14, 61668, Note_off_c, 9, 38, 64
14, 61680, Note_on_c, 9, 38, 100
14, 61680, Note_on_c, 9, 42, 70
14, 61730, Note_off_c, 9, 42, 64
14, 61730, Note_off_c, 9, 38, 64
14, 61858, Note_on_c, 9, 38, 90
14, 61908, Note_off_c, 9, 38, 64
14, 61920, Note_on_c, 9, 38, 80
14, 61970, Note_off_c, 9, 38, 64
14, 62098, Note_on_c, 9, 38, 20
14, 62148, Note_off_c, 9, 38, 64
14, 62160, Note_on_c, 9, 38, 100
14, 62160, Note_on_c, 9, 42, 80
14, 62160, Note_on_c, 9, 37, 70
14, 62210, Note_off_c, 9, 37, 64
14, 62210, Note_off_c, 9, 42, 64
14, 62210, Note_off_c, 9, 38, 64
14, 62338, Note_on_c, 9, 38, 70
14, 62388, Note_off_c, 9, 38, 64
14, 62400, Note_on_c, 9, 38, 80
14, 62450, Note_off_c, 9, 38, 64
14, 62572, Note_on_c, 9, 38, 20
14, 62622, Note_off_c, 9, 38, 64
14, 62640, Note_on_c, 9, 38, 100
14, 62640, Note_on_c, 9, 42, 70
14, 62690, Note_off_c, 9, 42, 64
14, 62690, Note_off_c, 9, 38, 64
14, 62812, Note_on_c, 9, 38, 90
14, 62862, Note_off_c, 9, 38, 64
14, 62880, Note_on_c, 9, 38, 80
14, 62930, Note_off_c, 9, 38, 64
14, 63052, Note_on_c, 9, 38, 20
14, 63052, Note_on_c, 9, 48, 40
14, 63102, Note_off_c, 9, 48, 64
14, 63102, Note_off_c, 9, 38, 64
14, 63120, Note_on_c, 9, 38, 100
14, 63120, Note_on_c, 9, 42, 80
14, 63120, Note_on_c, 9, 37, 80
14, 63120, Note_on_c, 9, 45, 50
14, 63170, Note_off_c, 9, 45, 64
14, 63170, Note_off_c, 9, 37, 64
14, 63170, Note_off_c, 9, 42, 64
14, 63170, Note_off_c, 9, 38, 64
14, 63292, Note_on_c, 9, 38, 70
14, 63342, Note_off_c, 9, 38, 64
14, 63360, Note_on_c, 9, 38, 80
14, 63410, Note_off_c, 9, 38, 64
14, 63538, Note_on_c, 9, 38, 30
14, 63588, Note_off_c, 9, 38, 64
14, 63600, Note_on_c, 9, 38, 100
14, 63600, Note_on_c, 9, 42, 70
14, 63650, Note_off_c, 9, 42, 64
14, 63650, Note_off_c, 9, 38, 64
14, 63778, Note_on_c, 9, 38, 90
14, 63828, Note_off_c, 9, 38, 64
14, 63840, Note_on_c, 9, 38, 80
14, 63890, Note_off_c, 9, 38, 64
14, 64018, Note_on_c, 9, 38, 20
14, 64068, Note_off_c, 9, 38, 64
14, 64080, Note_on_c, 9, 38, 100
14, 64080, Note_on_c, 9, 42, 80
14, 64130, Note_off_c, 9, 42, 64
14, 64130, Note_off_c, 9, 38, 64
14, 64258, Note_on_c, 9, 38, 70
14, 64308, Note_off_c, 9, 38, 64
14, 64320, Note_on_c, 9, 38, 80
14, 64370, Note_off_c, 9, 38, 64
14, 64492, Note_on_c, 9, 38, 20
14, 64542, Note_off_c, 9, 38, 64
14, 64560, Note_on_c, 9, 38, 100
14, 64560, Note_on_c, 9, 42, 70
14, 64610, Note_off_c, 9, 42, 64
14, 64610, Note_off_c, 9, 38, 64
14, 64732, Note_on_c, 9, 38, 90
14, 64782, Note_off_c, 9, 38, 64
14, 64800, Note_on_c, 9, 38, 80
14, 64850, Note_off_c, 9, 38, 64
14, 64972, Note_on_c, 9, 38, 20
14, 65022, Note_off_c, 9, 38, 64
14, 65040, Note_on_c, 9, 38, 100
14, 65040, Note_on_c, 9, 42, 80
14, 65040, Note_on_c, 9, 37, 60
14, 65090, Note_off_c, 9, 37, 64
14, 65090, Note_off_c, 9, 42, 64
14, 65090, Note_off_c, 9, 38, 64
14, 65212, Note_on_c, 9, 38, 70
14, 65262, Note_off_c, 9, 38, 64
14, 65280, Note_on_c, 9, 38, 80
14, 65330, Note_off_c, 9, 38, 64
14, 65452, Note_on_c, 9, 38, 30
14, 65502, Note_off_c, 9, 38, 64
14, 65520, Note_on_c, 9, 38, 100
14, 65520, Note_on_c, 9, 42, 70
14, 65570, Note_off_c, 9, 42, 64
14, 65570, Note_off_c, 9, 38, 64
14, 65692, Note_on_c, 9, 38, 90
14, 65742, Note_off_c, 9, 38, 64
14, 65760, Note_on_c, 9, 38, 80
14, 65810, Note_off_c, 9, 38, 64
14, 65932, Note_on_c, 9, 38, 54
14, 65982, Note_off_c, 9, 38, 64
14, 66000, Note_on_c, 9, 38, 100
14, 66000, Note_on_c, 9, 42, 80
14, 66000, Note_on_c, 9, 37, 60
14, 66050, Note_off_c, 9, 37, 64
14, 66050, Note_off_c, 9, 42, 64
14, 66050, Note_off_c, 9, 38, 64
14, 66172, Note_on_c, 9, 38, 70
14, 66222, Note_off_c, 9, 38, 64
14, 66240, Note_on_c, 9, 38, 80
14, 66290, Note_off_c, 9, 38, 64
14, 66412, Note_on_c, 9, 38, 30
14, 66462, Note_off_c, 9, 38, 64
14, 66480, Note_on_c, 9, 38, 100
14, 66480, Note_on_c, 9, 42, 70
14, 66530, Note_off_c, 9, 42, 64
14, 66530, Note_off_c, 9, 38, 64
14, 66652, Note_on_c, 9, 38, 90
14, 66702, Note_off_c, 9, 38, 64
14, 66720, Note_on_c, 9, 38, 80
14, 66770, Note_off_c, 9, 38, 64
14, 66892, Note_on_c, 9, 38, 54
14, 66942, Note_off_c, 9, 38, 64
14, 66960, Note_on_c, 9, 38, 100
14, 66960, Note_on_c, 9, 42, 80
14, 66960, Note_on_c, 9, 37, 60
14, 67010, Note_off_c, 9, 37, 64
14, 67010, Note_off_c, 9, 42, 64
14, 67010, Note_off_c, 9, 38, 64
14, 67132, Note_on_c, 9, 38, 70
14, 67182, Note_off_c, 9, 38, 64
14, 67200, Note_on_c, 9, 38, 80
14, 67250, Note_off_c, 9, 38, 64
14, 67372, Note_on_c, 9, 38, 30
14, 67422, Note_off_c, 9, 38, 64
14, 67440, Note_on_c, 9, 38, 100
14, 67440, Note_on_c, 9, 42, 70
14, 67490, Note_off_c, 9, 42, 64
14, 67490, Note_off_c, 9, 38, 64
14, 67612, Note_on_c, 9, 38, 90
14, 67662, Note_off_c, 9, 38, 64
14, 67680, Note_on_c, 9, 38, 80
14, 67730, Note_off_c, 9, 38, 64
14, 67852, Note_on_c, 9, 38, 20
14, 67902, Note_off_c, 9, 38, 64
14, 67920, Note_on_c, 9, 38, 100
14, 67920, Note_on_c, 9, 42, 80
14, 67920, Note_on_c, 9, 37, 60
14, 67970, Note_off_c, 9, 37, 64
14, 67970, Note_off_c, 9, 42, 64
14, 67970, Note_off_c, 9, 38, 64
14, 68092, Note_on_c, 9, 38, 70
14, 68142, Note_off_c, 9, 38, 64
14, 68160, Note_on_c, 9, 38, 80
14, 68210, Note_off_c, 9, 38, 64
14, 68332, Note_on_c, 9, 38, 30
14, 68382, Note_off_c, 9, 38, 64
14, 68400, Note_on_c, 9, 38, 100
14, 68400, Note_on_c, 9, 42, 70
14, 68450, Note_off_c, 9, 42, 64
14, 68450, Note_off_c, 9, 38, 64
14, 68572, Note_on_c, 9, 38, 90
14, 68622, Note_off_c, 9, 38, 64
14, 68640, Note_on_c, 9, 38, 80
14, 68690, Note_off_c, 9, 38, 64
14, 68812, Note_on_c, 9, 38, 54
14, 68862, Note_off_c, 9, 38, 64
14, 68880, Note_on_c, 9, 38, 100
14, 68880, Note_on_c, 9, 42, 80
14, 68880, Note_on_c, 9, 37, 60
14, 68930, Note_off_c, 9, 37, 64
14, 68930, Note_off_c, 9, 42, 64
14, 68930, Note_off_c, 9, 38, 64
14, 69052, Note_on_c, 9, 38, 70
14, 69102, Note_off_c, 9, 38, 64
14, 69120, Note_on_c, 9, 38, 80
14, 69170, Note_off_c, 9, 38, 64
14, 69292, Note_on_c, 9, 38, 30
14, 69342, Note_off_c, 9, 38, 64
14, 69360, Note_on_c, 9, 38, 100
14, 69360, Note_on_c, 9, 42, 70
14, 69410, Note_off_c, 9, 42, 64
14, 69410, Note_off_c, 9, 38, 64
14, 69532, Note_on_c, 9, 38, 90
14, 69582, Note_off_c, 9, 38, 64
14, 69600, Note_on_c, 9, 38, 80
14, 69650, Note_off_c, 9, 38, 64
14, 69772, Note_on_c, 9, 38, 20
14, 69822, Note_off_c, 9, 38, 64
14, 69840, Note_on_c, 9, 38, 100
14, 69840, Note_on_c, 9, 42, 80
14, 69840, Note_on_c, 9, 37, 60
14, 69890, Note_off_c, 9, 37, 64
14, 69890, Note_off_c, 9, 42, 64
14, 69890, Note_off_c, 9, 38, 64
14, 70012, Note_on_c, 9, 38, 70
14, 70062, Note_off_c, 9, 38, 64
14, 70080, Note_on_c, 9, 38, 80
14, 70130, Note_off_c, 9, 38, 64
14, 70252, Note_on_c, 9, 38, 20
14, 70302, Note_off_c, 9, 38, 64
14, 70320, Note_on_c, 9, 38, 100
14, 70320, Note_on_c, 9, 42, 70
14, 70370, Note_off_c, 9, 42, 64
14, 70370, Note_off_c, 9, 38, 64
14, 70492, Note_on_c, 9, 38, 90
14, 70542, Note_off_c, 9, 38, 64
14, 70560, Note_on_c, 9, 38, 80
14, 70610, Note_off_c, 9, 38, 64
14, 70732, Note_on_c, 9, 38, 20
14, 70732, Note_on_c, 9, 48, 40
14, 70782, Note_off_c, 9, 48, 64
14, 70782, Note_off_c, 9, 38, 64
14, 70800, Note_on_c, 9, 38, 100
14, 70800, Note_on_c, 9, 42, 80
14, 70800, Note_on_c, 9, 37, 80
14, 70800, Note_on_c, 9, 45, 50
14, 70850, Note_off_c, 9, 45, 64
14, 70850, Note_off_c, 9, 37, 64
14, 70850, Note_off_c, 9, 42, 64
14, 70850, Note_off_c, 9, 38, 64
14, 70972, Note_on_c, 9, 38, 70
14, 71022, Note_off_c, 9, 38, 64
14, 71040, Note_on_c, 9, 38, 80
14, 71090, Note_off_c, 9, 38, 64
14, 71212, Note_on_c, 9, 38, 20
14, 71262, Note_off_c, 9, 38, 64
14, 71280, Note_on_c, 9, 38, 100
14, 71280, Note_on_c, 9, 42, 70
14, 71330, Note_off_c, 9, 42, 64
14, 71330, Note_off_c, 9, 38, 64
14, 71452, Note_on_c, 9, 38, 90
14, 71502, Note_off_c, 9, 38, 64
14, 71520, Note_on_c, 9, 38, 80
14, 71570, Note_off_c, 9, 38, 64
14, 71692, Note_on_c, 9, 38, 20
14, 71742, Note_off_c, 9, 38, 64
14, 71760, Note_on_c, 9, 38, 100
14, 71760, Note_on_c, 9, 42, 80
14, 71760, Note_on_c, 9, 37, 60
14, 71810, Note_off_c, 9, 37, 64
14, 71810, Note_off_c, 9, 42, 64
14, 71810, Note_off_c, 9, 38, 64
14, 71932, Note_on_c, 9, 38, 70
14, 71982, Note_off_c, 9, 38, 64
14, 72000, Note_on_c, 9, 38, 80
14, 72050, Note_off_c, 9, 38, 64
14, 72172, Note_on_c, 9, 38, 30
14, 72222, Note_off_c, 9, 38, 64
14, 72240, Note_on_c, 9, 38, 100
14, 72240, Note_on_c, 9, 42, 70
14, 72290, Note_off_c, 9, 42, 64
14, 72290, Note_off_c, 9, 38, 64
14, 72412, Note_on_c, 9, 38, 90
14, 72462, Note_off_c, 9, 38, 64
14, 72480, Note_on_c, 9, 38, 80
14, 72530, Note_off_c, 9, 38, 64
14, 72652, Note_on_c, 9, 38, 20
14, 72702, Note_off_c, 9, 38, 64
14, 72720, Note_on_c, 9, 38, 100
14, 72720, Note_on_c, 9, 42, 80
14, 72720, Note_on_c, 9, 37, 60
14, 72770, Note_off_c, 9, 37, 64
14, 72770, Note_off_c, 9, 42, 64
14, 72770, Note_off_c, 9, 38, 64
14, 72892, Note_on_c, 9, 38, 70
14, 72942, Note_off_c, 9, 38, 64
14, 72960, Note_on_c, 9, 38, 80
14, 73010, Note_off_c, 9, 38, 64
14, 73138, Note_on_c, 9, 38, 30
14, 73188, Note_off_c, 9, 38, 64
14, 73200, Note_on_c, 9, 38, 100
14, 73200, Note_on_c, 9, 42, 70
14, 73250, Note_off_c, 9, 42, 64
14, 73250, Note_off_c, 9, 38, 64
14, 73378, Note_on_c, 9, 38, 90
14, 73428, Note_off_c, 9, 38, 64
14, 73440, Note_on_c, 9, 38, 80
14, 73490, Note_off_c, 9, 38, 64
14, 73618, Note_on_c, 9, 38, 20
14, 73668, Note_off_c, 9, 38, 64
14, 73680, Note_on_c, 9, 38, 100
14, 73680, Note_on_c, 9, 42, 80
14, 73730, Note_off_c, 9, 42, 64
14, 73730, Note_off_c, 9, 38, 64
14, 73858, Note_on_c, 9, 38, 70
14, 73908, Note_off_c, 9, 38, 64
14, 73920, Note_on_c, 9, 38, 80
14, 73970, Note_off_c, 9, 38, 64
14, 74098, Note_on_c, 9, 38, 30
14, 74148, Note_off_c, 9, 38, 64
14, 74160, Note_on_c, 9, 38, 100
14, 74160, Note_on_c, 9, 42, 70
14, 74210, Note_off_c, 9, 42, 64
14, 74210, Note_off_c, 9, 38, 64
14, 74338, Note_on_c, 9, 38, 90
14, 74388, Note_off_c, 9, 38, 64
14, 74400, Note_on_c, 9, 38, 80
14, 74450, Note_off_c, 9, 38, 64
14, 74578, Note_on_c, 9, 38, 20
14, 74628, Note_off_c, 9, 38, 64
14, 74640, Note_on_c, 9, 38, 100
14, 74640, Note_on_c, 9, 42, 80
14, 74690, Note_off_c, 9, 42, 64
14, 74690, Note_off_c, 9, 38, 64
14, 74818, Note_on_c, 9, 38, 70
14, 74868, Note_off_c, 9, 38, 64
14, 74880, Note_on_c, 9, 38, 80
14, 74930, Note_off_c, 9, 38, 64
14, 75058, Note_on_c, 9, 38, 30
14, 75108, Note_off_c, 9, 38, 64
14, 75120, Note_on_c, 9, 38, 100
14, 75120, Note_on_c, 9, 42, 70
14, 75170, Note_off_c, 9, 42, 64
14, 75170, Note_off_c, 9, 38, 64
14, 75298, Note_on_c, 9, 38, 90
14, 75348, Note_off_c, 9, 38, 64
14, 75360, Note_on_c, 9, 38, 80
14, 75410, Note_off_c, 9, 38, 64
14, 75538, Note_on_c, 9, 38, 20
14, 75588, Note_off_c, 9, 38, 64
14, 75600, Note_on_c, 9, 38, 100
14, 75600, Note_on_c, 9, 42, 80
14, 75650, Note_off_c, 9, 42, 64
14, 75650, Note_off_c, 9, 38, 64
14, 75778, Note_on_c, 9, 38, 70
14, 75828, Note_off_c, 9, 38, 64
14, 75840, Note_on_c, 9, 38, 80
14, 75890, Note_off_c, 9, 38, 64
14, 76012, Note_on_c, 9, 38, 30
14, 76062, Note_off_c, 9, 38, 64
14, 76080, Note_on_c, 9, 38, 100
14, 76080, Note_on_c, 9, 42, 70
14, 76130, Note_off_c, 9, 42, 64
14, 76130, Note_off_c, 9, 38, 64
14, 76252, Note_on_c, 9, 38, 90
14, 76302, Note_off_c, 9, 38, 64
14, 76320, Note_on_c, 9, 38, 80
14, 76370, Note_off_c, 9, 38, 64
14, 76492, Note_on_c, 9, 38, 20
14, 76542, Note_off_c, 9, 38, 64
14, 76560, Note_on_c, 9, 38, 100
14, 76560, Note_on_c, 9, 42, 80
14, 76560, Note_on_c, 9, 37, 60
14, 76610, Note_off_c, 9, 37, 64
14, 76610, Note_off_c, 9, 42, 64
14, 76610, Note_off_c, 9, 38, 64
14, 76732, Note_on_c, 9, 38, 70
14, 76782, Note_off_c, 9, 38, 64
14, 76800, Note_on_c, 9, 38, 80
14, 76850, Note_off_c, 9, 38, 64
14, 76978, Note_on_c, 9, 38, 30
14, 77028, Note_off_c, 9, 38, 64
14, 77040, Note_on_c, 9, 38, 100
14, 77040, Note_on_c, 9, 42, 70
14, 77090, Note_off_c, 9, 42, 64
14, 77090, Note_off_c, 9, 38, 64
14, 77218, Note_on_c, 9, 38, 90
14, 77268, Note_off_c, 9, 38, 64
14, 77280, Note_on_c, 9, 38, 80
14, 77330, Note_off_c, 9, 38, 64
14, 77458, Note_on_c, 9, 38, 20
14, 77508, Note_off_c, 9, 38, 64
14, 77520, Note_on_c, 9, 38, 100
14, 77520, Note_on_c, 9, 42, 80
14, 77570, Note_off_c, 9, 42, 64
14, 77570, Note_off_c, 9, 38, 64
14, 77698, Note_on_c, 9, 38, 70
14, 77748, Note_off_c, 9, 38, 64
14, 77760, Note_on_c, 9, 38, 80
14, 77810, Note_off_c, 9, 38, 64
14, 77932, Note_on_c, 9, 38, 20
14, 77982, Note_off_c, 9, 38, 64
14, 78000, Note_on_c, 9, 38, 100
14, 78000, Note_on_c, 9, 42, 70
14, 78050, Note_off_c, 9, 42, 64
14, 78050, Note_off_c, 9, 38, 64
14, 78172, Note_on_c, 9, 38, 90
14, 78222, Note_off_c, 9, 38, 64
14, 78240, Note_on_c, 9, 38, 80
14, 78290, Note_off_c, 9, 38, 64
14, 78412, Note_on_c, 9, 38, 20
14, 78412, Note_on_c, 9, 48, 40
14, 78462, Note_off_c, 9, 48, 64
14, 78462, Note_off_c, 9, 38, 64
14, 78480, Note_on_c, 9, 38, 100
14, 78480, Note_on_c, 9, 42, 80
14, 78480, Note_on_c, 9, 37, 80
14, 78480, Note_on_c, 9, 45, 50
14, 78530, Note_off_c, 9, 45, 64
14, 78530, Note_off_c, 9, 37, 64
14, 78530, Note_off_c, 9, 42, 64
14, 78530, Note_off_c, 9, 38, 64
14, 78652, Note_on_c, 9, 38, 70
14, 78702, Note_off_c, 9, 38, 64
14, 78720, Note_on_c, 9, 38, 80
14, 78720, Note_on_c, 9, 49, 35
14, 78770, Note_off_c, 9, 49, 64
14, 78770, Note_off_c, 9, 38, 64
14, 78896, Note_on_c, 9, 38, 20
14, 78946, Note_off_c, 9, 38, 64
14, 78960, Note_on_c, 9, 38, 100
14, 78960, Note_on_c, 9, 42, 70
14, 79010, Note_off_c, 9, 42, 64
14, 79010, Note_off_c, 9, 38, 64
14, 79136, Note_on_c, 9, 38, 90
14, 79186, Note_off_c, 9, 38, 64
14, 79200, Note_on_c, 9, 38, 80
14, 79250, Note_off_c, 9, 38, 64
14, 79376, Note_on_c, 9, 38, 20
14, 79426, Note_off_c, 9, 38, 64
14, 79440, Note_on_c, 9, 38, 100
14, 79440, Note_on_c, 9, 42, 80
14, 79440, Note_on_c, 9, 37, 70
14, 79490, Note_off_c, 9, 37, 64
14, 79490, Note_off_c, 9, 42, 64
14, 79490, Note_off_c, 9, 38, 64
14, 79616, Note_on_c, 9, 38, 70
14, 79666, Note_off_c, 9, 38, 64
14, 79680, Note_on_c, 9, 38, 80
14, 79730, Note_off_c, 9, 38, 64
14, 79858, Note_on_c, 9, 38, 20
14, 79908, Note_off_c, 9, 38, 64
14, 79920, Note_on_c, 9, 38, 100
14, 79920, Note_on_c, 9, 42, 70
14, 79970, Note_off_c, 9, 42, 64
14, 79970, Note_off_c, 9, 38, 64
14, 80098, Note_on_c, 9, 38, 90
14, 80148, Note_off_c, 9, 38, 64
14, 80160, Note_on_c, 9, 38, 80
14, 80210, Note_off_c, 9, 38, 64
14, 80338, Note_on_c, 9, 38, 20
14, 80388, Note_off_c, 9, 38, 64
14, 80400, Note_on_c, 9, 38, 100
14, 80400, Note_on_c, 9, 42, 80
14, 80400, Note_on_c, 9, 37, 70
14, 80450, Note_off_c, 9, 37, 64
14, 80450, Note_off_c, 9, 42, 64
14, 80450, Note_off_c, 9, 38, 64
14, 80578, Note_on_c, 9, 38, 70
14, 80628, Note_off_c, 9, 38, 64
14, 80640, Note_on_c, 9, 38, 80
14, 80690, Note_off_c, 9, 38, 64
14, 80818, Note_on_c, 9, 38, 20
14, 80868, Note_off_c, 9, 38, 64
14, 80880, Note_on_c, 9, 38, 100
14, 80880, Note_on_c, 9, 42, 70
14, 80930, Note_off_c, 9, 42, 64
14, 80930, Note_off_c, 9, 38, 64
14, 81058, Note_on_c, 9, 38, 90
14, 81108, Note_off_c, 9, 38, 64
14, 81120, Note_on_c, 9, 38, 80
14, 81170, Note_off_c, 9, 38, 64
14, 81298, Note_on_c, 9, 38, 20
14, 81348, Note_off_c, 9, 38, 64
14, 81360, Note_on_c, 9, 38, 100
14, 81360, Note_on_c, 9, 42, 80
14, 81360, Note_on_c, 9, 37, 70
14, 81410, Note_off_c, 9, 37, 64
14, 81410, Note_off_c, 9, 42, 64
14, 81410, Note_off_c, 9, 38, 64
14, 81538, Note_on_c, 9, 38, 70
14, 81588, Note_off_c, 9, 38, 64
14, 81600, Note_on_c, 9, 38, 80
14, 81650, Note_off_c, 9, 38, 64
14, 81772, Note_on_c, 9, 38, 20
14, 81822, Note_off_c, 9, 38, 64
14, 81840, Note_on_c, 9, 38, 100
14, 81840, Note_on_c, 9, 42, 70
14, 81890, Note_off_c, 9, 42, 64
14, 81890, Note_off_c, 9, 38, 64
14, 82012, Note_on_c, 9, 38, 90
14, 82062, Note_off_c, 9, 38, 64
14, 82080, Note_on_c, 9, 38, 80
14, 82130, Note_off_c, 9, 38, 64
14, 82252, Note_on_c, 9, 38, 20
14, 82302, Note_off_c, 9, 38, 64
14, 82320, Note_on_c, 9, 38, 100
14, 82320, Note_on_c, 9, 42, 80
14, 82320, Note_on_c, 9, 37, 70
14, 82370, Note_off_c, 9, 37, 64
14, 82370, Note_off_c, 9, 42, 64
14, 82370, Note_off_c, 9, 38, 64
14, 82492, Note_on_c, 9, 38, 70
14, 82542, Note_off_c, 9, 38, 64
14, 82560, Note_on_c, 9, 38, 80
14, 82610, Note_off_c, 9, 38, 64
14, 82738, Note_on_c, 9, 38, 20
14, 82788, Note_off_c, 9, 38, 64
14, 82800, Note_on_c, 9, 38, 100
14, 82800, Note_on_c, 9, 42, 70
14, 82850, Note_off_c, 9, 42, 64
14, 82850, Note_off_c, 9, 38, 64
14, 82978, Note_on_c, 9, 38, 90
14, 83028, Note_off_c, 9, 38, 64
14, 83040, Note_on_c, 9, 38, 80
14, 83090, Note_off_c, 9, 38, 64
14, 83218, Note_on_c, 9, 38, 20
14, 83268, Note_off_c, 9, 38, 64
14, 83280, Note_on_c, 9, 38, 100
14, 83280, Note_on_c, 9, 42, 80
14, 83280, Note_on_c, 9, 37, 70
14, 83330, Note_off_c, 9, 37, 64
14, 83330, Note_off_c, 9, 42, 64
14, 83330, Note_off_c, 9, 38, 64
14, 83458, Note_on_c, 9, 38, 70
14, 83508, Note_off_c, 9, 38, 64
14, 83520, Note_on_c, 9, 38, 80
14, 83570, Note_off_c, 9, 38, 64
14, 83696, Note_on_c, 9, 38, 20
14, 83746, Note_off_c, 9, 38, 64
14, 83760, Note_on_c, 9, 38, 100
14, 83760, Note_on_c, 9, 42, 70
14, 83810, Note_off_c, 9, 42, 64
14, 83810, Note_off_c, 9, 38, 64
14, 83936, Note_on_c, 9, 38, 90
14, 83986, Note_off_c, 9, 38, 64
14, 84000, Note_on_c, 9, 38, 80
14, 84050, Note_off_c, 9, 38, 64
14, 84176, Note_on_c, 9, 38, 20
14, 84226, Note_off_c, 9, 38, 64
14, 84240, Note_on_c, 9, 38, 100
14, 84240, Note_on_c, 9, 42, 80
14, 84240, Note_on_c, 9, 37, 70
14, 84290, Note_off_c, 9, 37, 64
14, 84290, Note_off_c, 9, 42, 64
14, 84290, Note_off_c, 9, 38, 64
14, 84416, Note_on_c, 9, 38, 70
14, 84466, Note_off_c, 9, 38, 64
14, 84480, Note_on_c, 9, 38, 80
14, 84530, Note_off_c, 9, 38, 64
14, 84656, Note_on_c, 9, 38, 20
14, 84706, Note_off_c, 9, 38, 64
14, 84720, Note_on_c, 9, 38, 100
14, 84720, Note_on_c, 9, 42, 70
14, 84770, Note_off_c, 9, 42, 64
14, 84770, Note_off_c, 9, 38, 64
14, 84896, Note_on_c, 9, 38, 90
14, 84946, Note_off_c, 9, 38, 64
14, 84960, Note_on_c, 9, 38, 80
14, 85010, Note_off_c, 9, 38, 64
14, 85136, Note_on_c, 9, 38, 20
14, 85186, Note_off_c, 9, 38, 64
14, 85200, Note_on_c, 9, 38, 100
14, 85200, Note_on_c, 9, 42, 80
14, 85200, Note_on_c, 9, 37, 70
14, 85250, Note_off_c, 9, 37, 64
14, 85250, Note_off_c, 9, 42, 64
14, 85250, Note_off_c, 9, 38, 64
14, 85376, Note_on_c, 9, 38, 70
14, 85426, Note_off_c, 9, 38, 64
14, 85440, Note_on_c, 9, 38, 80
14, 85490, Note_off_c, 9, 38, 64
14, 85612, Note_on_c, 9, 38, 20
14, 85662, Note_off_c, 9, 38, 64
14, 85680, Note_on_c, 9, 38, 100
14, 85680, Note_on_c, 9, 42, 70
14, 85730, Note_off_c, 9, 42, 64
14, 85730, Note_off_c, 9, 38, 64
14, 85852, Note_on_c, 9, 38, 90
14, 85902, Note_off_c, 9, 38, 64
14, 85920, Note_on_c, 9, 38, 80
14, 85970, Note_off_c, 9, 38, 64
14, 86092, Note_on_c, 9, 38, 20
14, 86092, Note_on_c, 9, 48, 40
14, 86142, Note_off_c, 9, 48, 64
14, 86142, Note_off_c, 9, 38, 64
14, 86160, Note_on_c, 9, 38, 100
14, 86160, Note_on_c, 9, 42, 80
14, 86160, Note_on_c, 9, 37, 80
14, 86160, Note_on_c, 9, 45, 50
14, 86210, Note_off_c, 9, 45, 64
14, 86210, Note_off_c, 9, 37, 64
14, 86210, Note_off_c, 9, 42, 64
14, 86210, Note_off_c, 9, 38, 64
14, 86332, Note_on_c, 9, 38, 70
14, 86382, Note_off_c, 9, 38, 64
14, 86400, Note_on_c, 9, 38, 80
14, 86400, Note_on_c, 9, 49, 30
14, 86450, Note_off_c, 9, 49, 64
14, 86450, Note_off_c, 9, 38, 64
14, 86578, Note_on_c, 9, 38, 30
14, 86628, Note_off_c, 9, 38, 64
14, 86640, Note_on_c, 9, 38, 100
14, 86640, Note_on_c, 9, 42, 70
14, 86690, Note_off_c, 9, 42, 64
14, 86690, Note_off_c, 9, 38, 64
14, 86818, Note_on_c, 9, 38, 90
14, 86868, Note_off_c, 9, 38, 64
14, 86880, Note_on_c, 9, 38, 80
14, 86930, Note_off_c, 9, 38, 64
14, 87058, Note_on_c, 9, 38, 20
14, 87108, Note_off_c, 9, 38, 64
14, 87120, Note_on_c, 9, 38, 100
14, 87120, Note_on_c, 9, 42, 80
14, 87170, Note_off_c, 9, 42, 64
14, 87170, Note_off_c, 9, 38, 64
14, 87298, Note_on_c, 9, 38, 70
14, 87348, Note_off_c, 9, 38, 64
14, 87360, Note_on_c, 9, 38, 80
14, 87410, Note_off_c, 9, 38, 64
14, 87538, Note_on_c, 9, 38, 30
14, 87588, Note_off_c, 9, 38, 64
14, 87600, Note_on_c, 9, 38, 100
14, 87600, Note_on_c, 9, 42, 70
14, 87650, Note_off_c, 9, 42, 64
14, 87650, Note_off_c, 9, 38, 64
14, 87778, Note_on_c, 9, 38, 90
14, 87828, Note_off_c, 9, 38, 64
14, 87840, Note_on_c, 9, 38, 80
14, 87890, Note_off_c, 9, 38, 64
14, 88018, Note_on_c, 9, 38, 20
14, 88068, Note_off_c, 9, 38, 64
14, 88080, Note_on_c, 9, 38, 100
14, 88080, Note_on_c, 9, 42, 80
14, 88130, Note_off_c, 9, 42, 64
14, 88130, Note_off_c, 9, 38, 64
14, 88258, Note_on_c, 9, 38, 70
14, 88308, Note_off_c, 9, 38, 64
14, 88320, Note_on_c, 9, 38, 80
14, 88370, Note_off_c, 9, 38, 64
14, 88498, Note_on_c, 9, 38, 30
14, 88548, Note_off_c, 9, 38, 64
14, 88560, Note_on_c, 9, 38, 100
14, 88560, Note_on_c, 9, 42, 70
14, 88610, Note_off_c, 9, 42, 64
14, 88610, Note_off_c, 9, 38, 64
14, 88738, Note_on_c, 9, 38, 90
14, 88788, Note_off_c, 9, 38, 64
14, 88800, Note_on_c, 9, 38, 80
14, 88850, Note_off_c, 9, 38, 64
14, 88978, Note_on_c, 9, 38, 20
14, 89028, Note_off_c, 9, 38, 64
14, 89040, Note_on_c, 9, 38, 100
14, 89040, Note_on_c, 9, 42, 80
14, 89090, Note_off_c, 9, 42, 64
14, 89090, Note_off_c, 9, 38, 64
14, 89218, Note_on_c, 9, 38, 70
14, 89268, Note_off_c, 9, 38, 64
14, 89280, Note_on_c, 9, 38, 80
14, 89330, Note_off_c, 9, 38, 64
14, 89452, Note_on_c, 9, 38, 30
14, 89502, Note_off_c, 9, 38, 64
14, 89520, Note_on_c, 9, 38, 100
14, 89520, Note_on_c, 9, 42, 70
14, 89570, Note_off_c, 9, 42, 64
14, 89570, Note_off_c, 9, 38, 64
14, 89692, Note_on_c, 9, 38, 90
14, 89742, Note_off_c, 9, 38, 64
14, 89760, Note_on_c, 9, 38, 80
14, 89810, Note_off_c, 9, 38, 64
14, 89932, Note_on_c, 9, 38, 20
14, 89982, Note_off_c, 9, 38, 64
14, 90000, Note_on_c, 9, 38, 100
14, 90000, Note_on_c, 9, 42, 80
14, 90000, Note_on_c, 9, 37, 60
14, 90050, Note_off_c, 9, 37, 64
14, 90050, Note_off_c, 9, 42, 64
14, 90050, Note_off_c, 9, 38, 64
14, 90172, Note_on_c, 9, 38, 70
14, 90222, Note_off_c, 9, 38, 64
14, 90240, Note_on_c, 9, 38, 80
14, 90290, Note_off_c, 9, 38, 64
14, 90412, Note_on_c, 9, 38, 30
14, 90462, Note_off_c, 9, 38, 64
14, 90480, Note_on_c, 9, 38, 100
14, 90480, Note_on_c, 9, 42, 70
14, 90530, Note_off_c, 9, 42, 64
14, 90530, Note_off_c, 9, 38, 64
14, 90652, Note_on_c, 9, 38, 90
14, 90702, Note_off_c, 9, 38, 64
14, 90720, Note_on_c, 9, 38, 80
14, 90770, Note_off_c, 9, 38, 64
14, 90892, Note_on_c, 9, 38, 20
14, 90942, Note_off_c, 9, 38, 64
14, 90960, Note_on_c, 9, 38, 100
14, 90960, Note_on_c, 9, 42, 80
14, 90960, Note_on_c, 9, 37, 60
14, 91010, Note_off_c, 9, 37, 64
14, 91010, Note_off_c, 9, 42, 64
14, 91010, Note_off_c, 9, 38, 64
14, 91132, Note_on_c, 9, 38, 70
14, 91182, Note_off_c, 9, 38, 64
14, 91200, Note_on_c, 9, 38, 80
14, 91250, Note_off_c, 9, 38, 64
14, 91378, Note_on_c, 9, 38, 30
14, 91428, Note_off_c, 9, 38, 64
14, 91440, Note_on_c, 9, 38, 100
14, 91440, Note_on_c, 9, 42, 70
14, 91490, Note_off_c, 9, 42, 64
14, 91490, Note_off_c, 9, 38, 64
14, 91618, Note_on_c, 9, 38, 90
14, 91668, Note_off_c, 9, 38, 64
14, 91680, Note_on_c, 9, 38, 80
14, 91730, Note_off_c, 9, 38, 64
14, 91858, Note_on_c, 9, 38, 20
14, 91908, Note_off_c, 9, 38, 64
14, 91920, Note_on_c, 9, 38, 100
14, 91920, Note_on_c, 9, 42, 80
14, 91970, Note_off_c, 9, 42, 64
14, 91970, Note_off_c, 9, 38, 64
14, 92098, Note_on_c, 9, 38, 70
14, 92148, Note_off_c, 9, 38, 64
14, 92160, Note_on_c, 9, 38, 80
14, 92210, Note_off_c, 9, 38, 64
14, 92332, Note_on_c, 9, 38, 30
14, 92382, Note_off_c, 9, 38, 64
14, 92400, Note_on_c, 9, 38, 100
14, 92400, Note_on_c, 9, 42, 70
14, 92450, Note_off_c, 9, 42, 64
14, 92450, Note_off_c, 9, 38, 64
14, 92572, Note_on_c, 9, 38, 90
14, 92622, Note_off_c, 9, 38, 64
14, 92640, Note_on_c, 9, 38, 80
14, 92690, Note_off_c, 9, 38, 64
14, 92812, Note_on_c, 9, 38, 54
14, 92862, Note_off_c, 9, 38, 64
14, 92880, Note_on_c, 9, 38, 100
14, 92880, Note_on_c, 9, 42, 80
14, 92880, Note_on_c, 9, 37, 60
14, 92930, Note_off_c, 9, 37, 64
14, 92930, Note_off_c, 9, 42, 64
14, 92930, Note_off_c, 9, 38, 64
14, 93052, Note_on_c, 9, 38, 70
14, 93102, Note_off_c, 9, 38, 64
14, 93120, Note_on_c, 9, 38, 80
14, 93170, Note_off_c, 9, 38, 64
14, 93292, Note_on_c, 9, 38, 20
14, 93342, Note_off_c, 9, 38, 64
14, 93360, Note_on_c, 9, 38, 100
14, 93360, Note_on_c, 9, 42, 70
14, 93410, Note_off_c, 9, 42, 64
14, 93410, Note_off_c, 9, 38, 64
14, 93532, Note_on_c, 9, 38, 90
14, 93582, Note_off_c, 9, 38, 64
14, 93600, Note_on_c, 9, 38, 80
14, 93650, Note_off_c, 9, 38, 64
14, 93772, Note_on_c, 9, 38, 20
14, 93772, Note_on_c, 9, 48, 40
14, 93822, Note_off_c, 9, 48, 64
14, 93822, Note_off_c, 9, 38, 64
14, 93840, Note_on_c, 9, 38, 100
14, 93840, Note_on_c, 9, 42, 80
14, 93840, Note_on_c, 9, 37, 80
14, 93840, Note_on_c, 9, 45, 50
14, 93890, Note_off_c, 9, 45, 64
14, 93890, Note_off_c, 9, 37, 64
14, 93890, Note_off_c, 9, 42, 64
14, 93890, Note_off_c, 9, 38, 64
14, 94012, Note_on_c, 9, 38, 70
14, 94062, Note_off_c, 9, 38, 64
14, 94080, Note_on_c, 9, 38, 80
14, 94130, Note_off_c, 9, 38, 64
14, 94252, Note_on_c, 9, 38, 20
14, 94302, Note_off_c, 9, 38, 64
14, 94320, Note_on_c, 9, 38, 100
14, 94320, Note_on_c, 9, 42, 70
14, 94370, Note_off_c, 9, 42, 64
14, 94370, Note_off_c, 9, 38, 64
14, 94492, Note_on_c, 9, 38, 90
14, 94542, Note_off_c, 9, 38, 64
14, 94560, Note_on_c, 9, 38, 80
14, 94610, Note_off_c, 9, 38, 64
14, 94732, Note_on_c, 9, 38, 20
14, 94782, Note_off_c, 9, 38, 64
14, 94800, Note_on_c, 9, 38, 100
14, 94800, Note_on_c, 9, 42, 80
14, 94800, Note_on_c, 9, 37, 60
14, 94850, Note_off_c, 9, 37, 64
14, 94850, Note_off_c, 9, 42, 64
14, 94850, Note_off_c, 9, 38, 64
14, 94972, Note_on_c, 9, 38, 70
14, 95022, Note_off_c, 9, 38, 64
14, 95040, Note_on_c, 9, 38, 80
14, 95040, Note_on_c, 9, 48, 25
14, 95090, Note_off_c, 9, 48, 64
14, 95090, Note_off_c, 9, 38, 64
14, 95200, Note_on_c, 9, 38, 20
14, 95200, Note_on_c, 9, 48, 20
14, 95250, Note_off_c, 9, 48, 64
14, 95250, Note_off_c, 9, 38, 64
14, 95280, Note_on_c, 9, 38, 100
14, 95280, Note_on_c, 9, 42, 70
14, 95280, Note_on_c, 9, 45, 26
14, 95330, Note_off_c, 9, 45, 64
14, 95330, Note_off_c, 9, 42, 64
14, 95330, Note_off_c, 9, 38, 64
14, 95440, Note_on_c, 9, 35, 50
14, 95440, Note_on_c, 9, 38, 90
14, 95440, Note_on_c, 9, 49, 27
14, 95440, Note_on_c, 9, 41, 26
14, 95490, Note_off_c, 9, 41, 64
14, 95490, Note_off_c, 9, 49, 64
14, 95490, Note_off_c, 9, 38, 64
14, 95490, Note_off_c, 9, 35, 64
14, 95490, End_track
15, 0, Start_track
15, 0, End_track
16, 0, Start_track
16, 0, Title_t, "Freely distr. / GMidi type1"
16, 0, End_track
17, 0, Start_track
17, 0, Title_t, "All instr.Roland Sound Canvas"
17, 0, End_track
18, 0, Start_track
18, 0, Title_t, "Contact Mel @ AOL Mel68"
18, 0, End_track
19, 0, Start_track
19, 0, Title_t, "        Run time = 4:45"
19, 0, End_track
20, 0, Start_track
20, 0, Title_t, "      ( Easy listening )"
20, 0, End_track
0, 0, End_of_file
