0, 0, Header, 1, 11, 192
1, 0, Start_track
1, 0, Time_signature, 4, 2, 24, 8
1, 0, Tempo, 500000
1, 0, Key_signature, 0, "major"
1, 0, Text_t, "        "
1, 0, Text_t, " "
1, 0, Text_t, "                                              "
1, 0, Text_t, "                                              "
1, 0, Text_t, "                                              "
1, 0, Text_t, "                                              "
1, 0, Text_t, "                                              "
1, 0, Text_t, "                                              "
1, 0, Text_t, "                                              "
1, 0, Text_t, "                                              "
1, 0, Text_t, "                                              "
1, 0, Text_t, "                                              "
1, 0, Text_t, "                "
1, 0, Text_t, "                "
1, 0, Text_t, "                "
1, 0, Text_t, "                "
1, 0, Text_t, "                                                     "
1, 0, Text_t, "                                              "
1, 0, Text_t, "                                              "
1, 0, Text_t, "                                              "
1, 0, Text_t, "                                              "
1, 0, Text_t, "                                              "
1, 0, Text_t, "                                              "
1, 0, End_track
2, 0, Start_track
2, 0, MIDI_port, 0
2, 0, Title_t, "NADINE              "
2, 0, Program_c, 0, 33
2, 0, Control_c, 0, 7, 97
2, 1753, Note_on_c, 0, 33, 90
2, 1930, Note_off_c, 0, 33, 64
2, 1997, Note_on_c, 0, 33, 90
2, 2051, Note_off_c, 0, 33, 64
2, 2078, Note_on_c, 0, 28, 90
2, 2134, Note_off_c, 0, 28, 64
2, 2159, Note_on_c, 0, 28, 90
2, 2223, Note_off_c, 0, 28, 64
2, 2240, Note_on_c, 0, 31, 90
2, 2292, Note_off_c, 0, 31, 64
2, 2322, Note_on_c, 0, 32, 90
2, 2386, Note_off_c, 0, 32, 64
2, 2402, Note_on_c, 0, 33, 90
2, 2581, Note_off_c, 0, 33, 64
2, 2646, Note_on_c, 0, 33, 90
2, 2694, Note_off_c, 0, 33, 64
2, 2727, Note_on_c, 0, 28, 90
2, 2784, Note_off_c, 0, 28, 64
2, 2808, Note_on_c, 0, 28, 90
2, 2886, Note_off_c, 0, 28, 64
2, 2889, Note_on_c, 0, 30, 90
2, 3026, Note_off_c, 0, 30, 64
2, 3052, Note_on_c, 0, 33, 90
2, 3227, Note_off_c, 0, 33, 64
2, 3296, Note_on_c, 0, 33, 90
2, 3352, Note_off_c, 0, 33, 64
2, 3375, Note_on_c, 0, 28, 90
2, 3429, Note_off_c, 0, 28, 64
2, 3456, Note_on_c, 0, 28, 90
2, 3520, Note_off_c, 0, 28, 64
2, 3537, Note_on_c, 0, 31, 90
2, 3589, Note_off_c, 0, 31, 64
2, 3618, Note_on_c, 0, 32, 90
2, 3682, Note_off_c, 0, 32, 64
2, 3700, Note_on_c, 0, 33, 90
2, 3879, Note_off_c, 0, 33, 64
2, 3943, Note_on_c, 0, 33, 90
2, 3992, Note_off_c, 0, 33, 64
2, 4025, Note_on_c, 0, 28, 90
2, 4082, Note_off_c, 0, 28, 64
2, 4106, Note_on_c, 0, 28, 90
2, 4184, Note_off_c, 0, 28, 64
2, 4187, Note_on_c, 0, 30, 90
2, 4323, Note_off_c, 0, 30, 64
2, 4349, Note_on_c, 0, 33, 90
2, 4524, Note_off_c, 0, 33, 64
2, 4592, Note_on_c, 0, 33, 90
2, 4648, Note_off_c, 0, 33, 64
2, 4674, Note_on_c, 0, 28, 90
2, 4729, Note_off_c, 0, 28, 64
2, 4757, Note_on_c, 0, 28, 90
2, 4819, Note_off_c, 0, 28, 64
2, 4836, Note_on_c, 0, 31, 90
2, 4888, Note_off_c, 0, 31, 64
2, 4920, Note_on_c, 0, 32, 90
2, 4981, Note_off_c, 0, 32, 64
2, 4998, Note_on_c, 0, 33, 90
2, 5177, Note_off_c, 0, 33, 64
2, 5241, Note_on_c, 0, 33, 90
2, 5290, Note_off_c, 0, 33, 64
2, 5323, Note_on_c, 0, 28, 90
2, 5380, Note_off_c, 0, 28, 64
2, 5404, Note_on_c, 0, 28, 90
2, 5482, Note_off_c, 0, 28, 64
2, 5485, Note_on_c, 0, 30, 90
2, 5624, Note_off_c, 0, 30, 64
2, 5649, Note_on_c, 0, 33, 90
2, 5823, Note_off_c, 0, 33, 64
2, 5891, Note_on_c, 0, 33, 90
2, 5948, Note_off_c, 0, 33, 64
2, 5972, Note_on_c, 0, 28, 90
2, 6026, Note_off_c, 0, 28, 64
2, 6054, Note_on_c, 0, 28, 90
2, 6119, Note_off_c, 0, 28, 64
2, 6136, Note_on_c, 0, 31, 90
2, 6185, Note_off_c, 0, 31, 64
2, 6216, Note_on_c, 0, 32, 90
2, 6274, Note_off_c, 0, 32, 64
2, 6296, Note_on_c, 0, 33, 90
2, 6444, Note_off_c, 0, 33, 64
2, 6459, Note_on_c, 0, 35, 90
2, 6510, Note_off_c, 0, 35, 64
2, 6540, Note_on_c, 0, 35, 90
2, 6609, Note_off_c, 0, 35, 64
2, 6621, Note_on_c, 0, 36, 90
2, 6668, Note_off_c, 0, 36, 64
2, 6703, Note_on_c, 0, 36, 90
2, 6765, Note_off_c, 0, 36, 64
2, 6783, Note_on_c, 0, 37, 90
2, 6832, Note_off_c, 0, 37, 64
2, 6865, Note_on_c, 0, 37, 90
2, 6929, Note_off_c, 0, 37, 64
2, 6945, Note_on_c, 0, 33, 90
2, 7120, Note_off_c, 0, 33, 64
2, 7190, Note_on_c, 0, 33, 90
2, 7245, Note_off_c, 0, 33, 64
2, 7270, Note_on_c, 0, 28, 90
2, 7326, Note_off_c, 0, 28, 64
2, 7351, Note_on_c, 0, 28, 90
2, 7415, Note_off_c, 0, 28, 64
2, 7432, Note_on_c, 0, 31, 90
2, 7485, Note_off_c, 0, 31, 64
2, 7516, Note_on_c, 0, 32, 90
2, 7578, Note_off_c, 0, 32, 64
2, 7595, Note_on_c, 0, 33, 90
2, 7774, Note_off_c, 0, 33, 64
2, 7839, Note_on_c, 0, 33, 90
2, 7888, Note_off_c, 0, 33, 64
2, 7920, Note_on_c, 0, 28, 90
2, 7976, Note_off_c, 0, 28, 64
2, 8001, Note_on_c, 0, 28, 90
2, 8078, Note_off_c, 0, 28, 64
2, 8082, Note_on_c, 0, 30, 90
2, 8218, Note_off_c, 0, 30, 64
2, 8245, Note_on_c, 0, 33, 90
2, 8425, Note_off_c, 0, 33, 64
2, 8488, Note_on_c, 0, 33, 90
2, 8550, Note_off_c, 0, 33, 64
2, 8568, Note_on_c, 0, 28, 90
2, 8622, Note_off_c, 0, 28, 64
2, 8650, Note_on_c, 0, 28, 90
2, 8723, Note_off_c, 0, 28, 64
2, 8731, Note_on_c, 0, 31, 90
2, 8785, Note_off_c, 0, 31, 64
2, 8812, Note_on_c, 0, 32, 90
2, 8875, Note_off_c, 0, 32, 64
2, 8893, Note_on_c, 0, 33, 90
2, 9074, Note_off_c, 0, 33, 64
2, 9137, Note_on_c, 0, 33, 90
2, 9184, Note_off_c, 0, 33, 64
2, 9218, Note_on_c, 0, 30, 90
2, 9355, Note_off_c, 0, 30, 64
2, 9380, Note_on_c, 0, 31, 90
2, 9445, Note_off_c, 0, 31, 64
2, 9464, Note_on_c, 0, 32, 90
2, 9525, Note_off_c, 0, 32, 64
2, 9541, Note_on_c, 0, 33, 90
2, 9723, Note_off_c, 0, 33, 64
2, 9785, Note_on_c, 0, 33, 90
2, 9843, Note_off_c, 0, 33, 64
2, 9866, Note_on_c, 0, 28, 90
2, 9912, Note_off_c, 0, 28, 64
2, 9950, Note_on_c, 0, 28, 90
2, 10011, Note_off_c, 0, 28, 64
2, 10029, Note_on_c, 0, 31, 90
2, 10088, Note_off_c, 0, 31, 64
2, 10112, Note_on_c, 0, 32, 90
2, 10160, Note_off_c, 0, 32, 64
2, 10191, Note_on_c, 0, 33, 90
2, 10375, Note_off_c, 0, 33, 64
2, 10435, Note_on_c, 0, 33, 90
2, 10492, Note_off_c, 0, 33, 64
2, 10516, Note_on_c, 0, 28, 90
2, 10566, Note_off_c, 0, 28, 64
2, 10597, Note_on_c, 0, 28, 90
2, 10658, Note_off_c, 0, 28, 64
2, 10677, Note_on_c, 0, 31, 90
2, 10728, Note_off_c, 0, 31, 64
2, 10760, Note_on_c, 0, 32, 90
2, 10812, Note_off_c, 0, 32, 64
2, 10842, Note_on_c, 0, 33, 90
2, 11008, Note_off_c, 0, 33, 64
2, 11083, Note_on_c, 0, 33, 90
2, 11135, Note_off_c, 0, 33, 64
2, 11164, Note_on_c, 0, 28, 90
2, 11214, Note_off_c, 0, 28, 64
2, 11247, Note_on_c, 0, 28, 90
2, 11311, Note_off_c, 0, 28, 64
2, 11329, Note_on_c, 0, 31, 90
2, 11392, Note_off_c, 0, 31, 64
2, 11408, Note_on_c, 0, 32, 90
2, 11475, Note_off_c, 0, 32, 64
2, 11489, Note_on_c, 0, 33, 90
2, 11644, Note_off_c, 0, 33, 64
2, 11651, Note_on_c, 0, 35, 90
2, 11707, Note_off_c, 0, 35, 64
2, 11732, Note_on_c, 0, 35, 90
2, 11806, Note_off_c, 0, 35, 64
2, 11813, Note_on_c, 0, 36, 90
2, 11859, Note_off_c, 0, 36, 64
2, 11896, Note_on_c, 0, 36, 90
2, 11959, Note_off_c, 0, 36, 64
2, 11978, Note_on_c, 0, 37, 90
2, 12026, Note_off_c, 0, 37, 64
2, 12061, Note_on_c, 0, 37, 90
2, 12114, Note_off_c, 0, 37, 64
2, 12138, Note_on_c, 0, 38, 90
2, 12324, Note_off_c, 0, 38, 64
2, 12382, Note_on_c, 0, 38, 90
2, 12432, Note_off_c, 0, 38, 64
2, 12462, Note_on_c, 0, 33, 90
2, 12519, Note_off_c, 0, 33, 64
2, 12546, Note_on_c, 0, 33, 90
2, 12614, Note_off_c, 0, 33, 64
2, 12624, Note_on_c, 0, 36, 90
2, 12694, Note_off_c, 0, 36, 64
2, 12706, Note_on_c, 0, 37, 90
2, 12775, Note_off_c, 0, 37, 64
2, 12788, Note_on_c, 0, 38, 90
2, 12937, Note_off_c, 0, 38, 64
2, 12949, Note_on_c, 0, 30, 90
2, 12998, Note_off_c, 0, 30, 64
2, 13031, Note_on_c, 0, 30, 90
2, 13088, Note_off_c, 0, 30, 64
2, 13111, Note_on_c, 0, 31, 90
2, 13155, Note_off_c, 0, 31, 64
2, 13193, Note_on_c, 0, 31, 90
2, 13248, Note_off_c, 0, 31, 64
2, 13273, Note_on_c, 0, 32, 90
2, 13314, Note_off_c, 0, 32, 64
2, 13357, Note_on_c, 0, 32, 90
2, 13424, Note_off_c, 0, 32, 64
2, 13436, Note_on_c, 0, 33, 90
2, 13624, Note_off_c, 0, 33, 64
2, 13680, Note_on_c, 0, 33, 90
2, 13733, Note_off_c, 0, 33, 64
2, 13761, Note_on_c, 0, 28, 90
2, 13804, Note_off_c, 0, 28, 64
2, 13843, Note_on_c, 0, 28, 90
2, 13922, Note_on_c, 0, 31, 90
2, 13975, Note_off_c, 0, 31, 64
2, 14003, Note_on_c, 0, 32, 90
2, 14063, Note_off_c, 0, 32, 64
2, 14084, Note_on_c, 0, 33, 90
2, 14227, Note_off_c, 0, 33, 64
2, 14247, Note_on_c, 0, 37, 90
2, 14290, Note_off_c, 0, 37, 64
2, 14328, Note_on_c, 0, 37, 90
2, 14386, Note_off_c, 0, 37, 64
2, 14409, Note_on_c, 0, 38, 90
2, 14462, Note_off_c, 0, 38, 64
2, 14490, Note_on_c, 0, 38, 90
2, 14545, Note_off_c, 0, 38, 64
2, 14574, Note_on_c, 0, 39, 90
2, 14608, Note_off_c, 0, 39, 64
2, 14653, Note_on_c, 0, 39, 90
2, 14715, Note_off_c, 0, 39, 64
2, 14733, Note_on_c, 0, 40, 90
2, 14905, Note_off_c, 0, 40, 64
2, 14977, Note_on_c, 0, 40, 90
2, 15045, Note_off_c, 0, 40, 64
2, 15057, Note_on_c, 0, 35, 90
2, 15101, Note_off_c, 0, 35, 64
2, 15140, Note_on_c, 0, 35, 90
2, 15210, Note_off_c, 0, 35, 64
2, 15220, Note_on_c, 0, 40, 90
2, 15279, Note_off_c, 0, 40, 64
2, 15301, Note_on_c, 0, 39, 90
2, 15367, Note_off_c, 0, 39, 64
2, 15382, Note_on_c, 0, 38, 90
2, 15578, Note_off_c, 0, 38, 64
2, 15626, Note_on_c, 0, 38, 90
2, 15691, Note_off_c, 0, 38, 64
2, 15707, Note_on_c, 0, 33, 90
2, 15752, Note_off_c, 0, 33, 64
2, 15787, Note_on_c, 0, 33, 90
2, 15866, Note_off_c, 0, 33, 64
2, 15869, Note_on_c, 0, 38, 90
2, 16015, Note_off_c, 0, 38, 64
2, 16031, Note_on_c, 0, 33, 90
2, 16138, Note_off_c, 0, 33, 64
2, 16193, Note_on_c, 0, 31, 90
2, 16248, Note_off_c, 0, 31, 64
2, 16274, Note_on_c, 0, 31, 90
2, 16314, Note_off_c, 0, 31, 64
2, 16356, Note_on_c, 0, 30, 90
2, 16406, Note_off_c, 0, 30, 64
2, 16437, Note_on_c, 0, 30, 90
2, 16475, Note_off_c, 0, 30, 64
2, 16518, Note_on_c, 0, 29, 90
2, 16559, Note_off_c, 0, 29, 64
2, 16599, Note_on_c, 0, 29, 90
2, 16646, Note_off_c, 0, 29, 64
2, 16727, Note_off_c, 0, 28, 64
2, 16760, Note_on_c, 0, 28, 90
2, 16801, Note_off_c, 0, 28, 64
2, 16842, Note_on_c, 0, 28, 90
2, 16899, Note_off_c, 0, 28, 64
2, 16925, Note_on_c, 0, 28, 90
2, 16977, Note_off_c, 0, 28, 64
2, 17004, Note_on_c, 0, 28, 90
2, 17054, Note_off_c, 0, 28, 64
2, 17085, Note_on_c, 0, 28, 90
2, 17141, Note_off_c, 0, 28, 64
2, 17167, Note_on_c, 0, 31, 90
2, 17214, Note_off_c, 0, 31, 64
2, 17248, Note_on_c, 0, 32, 90
2, 17304, Note_off_c, 0, 32, 64
2, 17329, Note_on_c, 0, 33, 90
2, 17503, Note_off_c, 0, 33, 64
2, 17573, Note_on_c, 0, 33, 90
2, 17627, Note_off_c, 0, 33, 64
2, 17653, Note_on_c, 0, 28, 90
2, 17709, Note_off_c, 0, 28, 64
2, 17734, Note_on_c, 0, 28, 90
2, 17799, Note_off_c, 0, 28, 64
2, 17815, Note_on_c, 0, 31, 90
2, 17868, Note_off_c, 0, 31, 64
2, 17897, Note_on_c, 0, 32, 90
2, 17960, Note_off_c, 0, 32, 64
2, 17978, Note_on_c, 0, 33, 90
2, 18157, Note_off_c, 0, 33, 64
2, 18221, Note_on_c, 0, 33, 90
2, 18270, Note_off_c, 0, 33, 64
2, 18303, Note_on_c, 0, 28, 90
2, 18359, Note_off_c, 0, 28, 64
2, 18383, Note_on_c, 0, 28, 90
2, 18461, Note_off_c, 0, 28, 64
2, 18464, Note_on_c, 0, 30, 90
2, 18601, Note_off_c, 0, 30, 64
2, 18627, Note_on_c, 0, 33, 90
2, 18799, Note_off_c, 0, 33, 64
2, 18869, Note_on_c, 0, 33, 90
2, 18928, Note_off_c, 0, 33, 64
2, 18951, Note_on_c, 0, 28, 90
2, 19005, Note_off_c, 0, 28, 64
2, 19035, Note_on_c, 0, 28, 90
2, 19099, Note_off_c, 0, 28, 64
2, 19114, Note_on_c, 0, 31, 90
2, 19164, Note_off_c, 0, 31, 64
2, 19194, Note_on_c, 0, 32, 90
2, 19253, Note_off_c, 0, 32, 64
2, 19276, Note_on_c, 0, 33, 90
2, 19422, Note_off_c, 0, 33, 64
2, 19440, Note_on_c, 0, 35, 90
2, 19488, Note_off_c, 0, 35, 64
2, 19518, Note_on_c, 0, 35, 90
2, 19588, Note_off_c, 0, 35, 64
2, 19600, Note_on_c, 0, 36, 90
2, 19645, Note_off_c, 0, 36, 64
2, 19681, Note_on_c, 0, 36, 90
2, 19743, Note_off_c, 0, 36, 64
2, 19761, Note_on_c, 0, 37, 90
2, 19811, Note_off_c, 0, 37, 64
2, 19845, Note_on_c, 0, 37, 90
2, 19905, Note_off_c, 0, 37, 64
2, 19925, Note_on_c, 0, 33, 90
2, 20097, Note_off_c, 0, 33, 64
2, 20168, Note_on_c, 0, 33, 90
2, 20223, Note_off_c, 0, 33, 64
2, 20250, Note_on_c, 0, 28, 90
2, 20305, Note_off_c, 0, 28, 64
2, 20329, Note_on_c, 0, 28, 90
2, 20394, Note_off_c, 0, 28, 64
2, 20411, Note_on_c, 0, 31, 90
2, 20463, Note_off_c, 0, 31, 64
2, 20493, Note_on_c, 0, 32, 90
2, 20556, Note_off_c, 0, 32, 64
2, 20574, Note_on_c, 0, 33, 90
2, 20752, Note_off_c, 0, 33, 64
2, 20817, Note_on_c, 0, 33, 90
2, 20866, Note_off_c, 0, 33, 64
2, 20898, Note_on_c, 0, 28, 90
2, 20955, Note_off_c, 0, 28, 64
2, 20979, Note_on_c, 0, 28, 90
2, 21060, Note_off_c, 0, 28, 64
2, 21064, Note_on_c, 0, 30, 90
2, 21197, Note_off_c, 0, 30, 64
2, 21223, Note_on_c, 0, 33, 90
2, 21403, Note_off_c, 0, 33, 64
2, 21466, Note_on_c, 0, 33, 90
2, 21528, Note_off_c, 0, 33, 64
2, 21549, Note_on_c, 0, 28, 90
2, 21601, Note_off_c, 0, 28, 64
2, 21628, Note_on_c, 0, 28, 90
2, 21700, Note_off_c, 0, 28, 64
2, 21710, Note_on_c, 0, 31, 90
2, 21763, Note_off_c, 0, 31, 64
2, 21793, Note_on_c, 0, 32, 90
2, 21853, Note_off_c, 0, 32, 64
2, 21872, Note_on_c, 0, 33, 90
2, 22054, Note_off_c, 0, 33, 64
2, 22115, Note_on_c, 0, 33, 90
2, 22162, Note_off_c, 0, 33, 64
2, 22197, Note_on_c, 0, 30, 90
2, 22333, Note_off_c, 0, 30, 64
2, 22358, Note_on_c, 0, 31, 90
2, 22424, Note_off_c, 0, 31, 64
2, 22442, Note_on_c, 0, 32, 90
2, 22505, Note_off_c, 0, 32, 64
2, 22521, Note_on_c, 0, 33, 90
2, 22701, Note_off_c, 0, 33, 64
2, 22763, Note_on_c, 0, 33, 90
2, 22823, Note_off_c, 0, 33, 64
2, 22844, Note_on_c, 0, 28, 90
2, 22892, Note_off_c, 0, 28, 64
2, 22925, Note_on_c, 0, 28, 90
2, 23000, Note_off_c, 0, 28, 64
2, 23007, Note_on_c, 0, 31, 90
2, 23061, Note_off_c, 0, 31, 64
2, 23088, Note_on_c, 0, 32, 90
2, 23154, Note_off_c, 0, 32, 64
2, 23169, Note_on_c, 0, 33, 90
2, 23349, Note_off_c, 0, 33, 64
2, 23412, Note_on_c, 0, 33, 90
2, 23467, Note_off_c, 0, 33, 64
2, 23494, Note_on_c, 0, 28, 90
2, 23538, Note_off_c, 0, 28, 64
2, 23574, Note_on_c, 0, 28, 90
2, 23632, Note_off_c, 0, 28, 64
2, 23656, Note_on_c, 0, 31, 90
2, 23707, Note_off_c, 0, 31, 64
2, 23740, Note_on_c, 0, 32, 90
2, 23803, Note_off_c, 0, 32, 64
2, 23819, Note_on_c, 0, 33, 90
2, 23994, Note_off_c, 0, 33, 64
2, 24061, Note_on_c, 0, 33, 90
2, 24121, Note_off_c, 0, 33, 64
2, 24143, Note_on_c, 0, 28, 90
2, 24202, Note_off_c, 0, 28, 64
2, 24224, Note_on_c, 0, 28, 90
2, 24283, Note_off_c, 0, 28, 64
2, 24309, Note_on_c, 0, 31, 90
2, 24367, Note_off_c, 0, 31, 64
2, 24384, Note_on_c, 0, 32, 90
2, 24450, Note_off_c, 0, 32, 64
2, 24465, Note_on_c, 0, 33, 90
2, 24605, Note_off_c, 0, 33, 64
2, 24627, Note_on_c, 0, 35, 90
2, 24684, Note_off_c, 0, 35, 64
2, 24709, Note_on_c, 0, 35, 90
2, 24778, Note_off_c, 0, 35, 64
2, 24790, Note_on_c, 0, 36, 90
2, 24839, Note_off_c, 0, 36, 64
2, 24873, Note_on_c, 0, 36, 90
2, 24940, Note_off_c, 0, 36, 64
2, 24954, Note_on_c, 0, 37, 90
2, 25005, Note_off_c, 0, 37, 64
2, 25038, Note_on_c, 0, 37, 90
2, 25097, Note_off_c, 0, 37, 64
2, 25117, Note_on_c, 0, 38, 90
2, 25309, Note_off_c, 0, 38, 64
2, 25362, Note_on_c, 0, 38, 90
2, 25414, Note_off_c, 0, 38, 64
2, 25441, Note_on_c, 0, 33, 90
2, 25493, Note_off_c, 0, 33, 64
2, 25522, Note_on_c, 0, 33, 90
2, 25591, Note_off_c, 0, 33, 64
2, 25604, Note_on_c, 0, 36, 90
2, 25676, Note_off_c, 0, 36, 64
2, 25684, Note_on_c, 0, 37, 90
2, 25730, Note_off_c, 0, 37, 64
2, 25766, Note_on_c, 0, 38, 90
2, 25974, Note_off_c, 0, 38, 64
2, 26008, Note_on_c, 0, 38, 90
2, 26068, Note_off_c, 0, 38, 64
2, 26090, Note_on_c, 0, 33, 90
2, 26144, Note_off_c, 0, 33, 64
2, 26170, Note_on_c, 0, 33, 90
2, 26250, Note_off_c, 0, 33, 64
2, 26252, Note_on_c, 0, 38, 90
2, 26303, Note_off_c, 0, 38, 64
2, 26333, Note_on_c, 0, 38, 90
2, 26386, Note_off_c, 0, 38, 64
2, 26415, Note_on_c, 0, 33, 90
2, 26618, Note_off_c, 0, 33, 64
2, 26657, Note_on_c, 0, 33, 90
2, 26714, Note_off_c, 0, 33, 64
2, 26739, Note_on_c, 0, 28, 90
2, 26790, Note_off_c, 0, 28, 64
2, 26819, Note_on_c, 0, 28, 90
2, 26878, Note_off_c, 0, 28, 64
2, 26901, Note_on_c, 0, 31, 90
2, 26949, Note_off_c, 0, 31, 64
2, 26984, Note_on_c, 0, 32, 90
2, 27048, Note_off_c, 0, 32, 64
2, 27063, Note_on_c, 0, 33, 90
2, 27202, Note_off_c, 0, 33, 64
2, 27224, Note_on_c, 0, 37, 90
2, 27273, Note_off_c, 0, 37, 64
2, 27305, Note_on_c, 0, 37, 90
2, 27372, Note_off_c, 0, 37, 64
2, 27386, Note_on_c, 0, 38, 90
2, 27433, Note_off_c, 0, 38, 64
2, 27468, Note_on_c, 0, 38, 90
2, 27515, Note_off_c, 0, 38, 64
2, 27550, Note_on_c, 0, 39, 90
2, 27588, Note_off_c, 0, 39, 64
2, 27631, Note_on_c, 0, 39, 90
2, 27684, Note_off_c, 0, 39, 64
2, 27712, Note_on_c, 0, 40, 90
2, 27916, Note_off_c, 0, 40, 64
2, 27955, Note_on_c, 0, 40, 90
2, 28010, Note_off_c, 0, 40, 64
2, 28036, Note_on_c, 0, 35, 90
2, 28081, Note_off_c, 0, 35, 64
2, 28117, Note_on_c, 0, 35, 90
2, 28197, Note_off_c, 0, 35, 64
2, 28199, Note_on_c, 0, 40, 90
2, 28266, Note_off_c, 0, 40, 64
2, 28279, Note_on_c, 0, 39, 90
2, 28350, Note_off_c, 0, 39, 64
2, 28361, Note_on_c, 0, 38, 90
2, 28553, Note_off_c, 0, 38, 64
2, 28607, Note_on_c, 0, 38, 90
2, 28680, Note_off_c, 0, 38, 64
2, 28685, Note_on_c, 0, 33, 90
2, 28732, Note_off_c, 0, 33, 64
2, 28766, Note_on_c, 0, 33, 90
2, 28847, Note_off_c, 0, 33, 64
2, 28847, Note_on_c, 0, 38, 90
2, 28899, Note_off_c, 0, 38, 64
2, 28930, Note_on_c, 0, 38, 90
2, 28984, Note_off_c, 0, 38, 64
2, 29010, Note_on_c, 0, 33, 90
2, 29140, Note_off_c, 0, 33, 64
2, 29172, Note_on_c, 0, 31, 90
2, 29226, Note_off_c, 0, 31, 64
2, 29253, Note_on_c, 0, 31, 90
2, 29292, Note_off_c, 0, 31, 64
2, 29335, Note_on_c, 0, 30, 90
2, 29385, Note_off_c, 0, 30, 64
2, 29415, Note_on_c, 0, 30, 90
2, 29450, Note_off_c, 0, 30, 64
2, 29496, Note_on_c, 0, 29, 90
2, 29544, Note_off_c, 0, 29, 64
2, 29578, Note_on_c, 0, 29, 90
2, 29629, Note_off_c, 0, 29, 64
2, 29658, Note_on_c, 0, 28, 90
2, 29710, Note_off_c, 0, 28, 64
2, 29740, Note_on_c, 0, 28, 90
2, 29786, Note_off_c, 0, 28, 64
2, 29821, Note_on_c, 0, 28, 90
2, 29880, Note_off_c, 0, 28, 64
2, 29902, Note_on_c, 0, 28, 90
2, 29957, Note_off_c, 0, 28, 64
2, 29983, Note_on_c, 0, 28, 90
2, 30037, Note_off_c, 0, 28, 64
2, 30064, Note_on_c, 0, 28, 90
2, 30120, Note_off_c, 0, 28, 64
2, 30145, Note_on_c, 0, 31, 90
2, 30194, Note_off_c, 0, 31, 64
2, 30227, Note_on_c, 0, 32, 90
2, 30285, Note_off_c, 0, 32, 64
2, 30308, Note_on_c, 0, 33, 90
2, 30482, Note_off_c, 0, 33, 64
2, 30551, Note_on_c, 0, 33, 90
2, 30606, Note_off_c, 0, 33, 64
2, 30632, Note_on_c, 0, 28, 90
2, 30687, Note_off_c, 0, 28, 64
2, 30713, Note_on_c, 0, 28, 90
2, 30777, Note_off_c, 0, 28, 64
2, 30794, Note_on_c, 0, 31, 90
2, 30846, Note_off_c, 0, 31, 64
2, 30876, Note_on_c, 0, 32, 90
2, 30940, Note_off_c, 0, 32, 64
2, 30957, Note_on_c, 0, 33, 90
2, 31135, Note_off_c, 0, 33, 64
2, 31200, Note_on_c, 0, 33, 90
2, 31248, Note_off_c, 0, 33, 64
2, 31281, Note_on_c, 0, 28, 90
2, 31338, Note_off_c, 0, 28, 64
2, 31362, Note_on_c, 0, 28, 90
2, 31440, Note_off_c, 0, 28, 64
2, 31446, Note_on_c, 0, 30, 90
2, 31581, Note_off_c, 0, 30, 64
2, 31605, Note_on_c, 0, 33, 90
2, 31779, Note_off_c, 0, 33, 64
2, 31850, Note_on_c, 0, 33, 90
2, 31906, Note_off_c, 0, 33, 64
2, 31930, Note_on_c, 0, 28, 90
2, 31984, Note_off_c, 0, 28, 64
2, 32011, Note_on_c, 0, 28, 90
2, 32077, Note_off_c, 0, 28, 64
2, 32092, Note_on_c, 0, 31, 90
2, 32143, Note_off_c, 0, 31, 64
2, 32174, Note_on_c, 0, 32, 90
2, 32233, Note_off_c, 0, 32, 64
2, 32255, Note_on_c, 0, 33, 90
2, 32398, Note_off_c, 0, 33, 64
2, 32413, Note_on_c, 0, 35, 90
2, 32464, Note_off_c, 0, 35, 64
2, 32495, Note_on_c, 0, 35, 90
2, 32563, Note_off_c, 0, 35, 64
2, 32575, Note_on_c, 0, 36, 90
2, 32623, Note_off_c, 0, 36, 64
2, 32656, Note_on_c, 0, 36, 90
2, 32719, Note_off_c, 0, 36, 64
2, 32737, Note_on_c, 0, 37, 90
2, 32786, Note_off_c, 0, 37, 64
2, 32819, Note_on_c, 0, 37, 90
2, 32881, Note_off_c, 0, 37, 64
2, 32902, Note_on_c, 0, 33, 90
2, 33077, Note_off_c, 0, 33, 64
2, 33147, Note_on_c, 0, 33, 90
2, 33202, Note_off_c, 0, 33, 64
2, 33228, Note_on_c, 0, 28, 90
2, 33283, Note_off_c, 0, 28, 64
2, 33309, Note_on_c, 0, 28, 90
2, 33373, Note_off_c, 0, 28, 64
2, 33390, Note_on_c, 0, 31, 90
2, 33442, Note_off_c, 0, 31, 64
2, 33472, Note_on_c, 0, 32, 90
2, 33535, Note_off_c, 0, 32, 64
2, 33560, Note_on_c, 0, 33, 90
2, 33732, Note_off_c, 0, 33, 64
2, 33796, Note_on_c, 0, 33, 90
2, 33845, Note_off_c, 0, 33, 64
2, 33877, Note_on_c, 0, 28, 90
2, 33935, Note_off_c, 0, 28, 64
2, 33961, Note_on_c, 0, 28, 90
2, 34036, Note_off_c, 0, 28, 64
2, 34040, Note_on_c, 0, 30, 90
2, 34177, Note_off_c, 0, 30, 64
2, 34202, Note_on_c, 0, 33, 90
2, 34382, Note_off_c, 0, 33, 64
2, 34445, Note_on_c, 0, 33, 90
2, 34508, Note_off_c, 0, 33, 64
2, 34527, Note_on_c, 0, 28, 90
2, 34581, Note_off_c, 0, 28, 64
2, 34610, Note_on_c, 0, 28, 90
2, 34680, Note_off_c, 0, 28, 64
2, 34688, Note_on_c, 0, 31, 90
2, 34742, Note_off_c, 0, 31, 64
2, 34770, Note_on_c, 0, 32, 90
2, 34832, Note_off_c, 0, 32, 64
2, 34851, Note_on_c, 0, 33, 90
2, 35032, Note_off_c, 0, 33, 64
2, 35094, Note_on_c, 0, 33, 90
2, 35141, Note_off_c, 0, 33, 64
2, 35175, Note_on_c, 0, 30, 90
2, 35312, Note_off_c, 0, 30, 64
2, 35337, Note_on_c, 0, 31, 90
2, 35403, Note_off_c, 0, 31, 64
2, 35422, Note_on_c, 0, 32, 90
2, 35484, Note_off_c, 0, 32, 64
2, 35500, Note_on_c, 0, 33, 90
2, 35697, Note_off_c, 0, 33, 64
2, 35743, Note_on_c, 0, 33, 90
2, 35796, Note_off_c, 0, 33, 64
2, 35824, Note_on_c, 0, 28, 90
2, 35882, Note_off_c, 0, 28, 64
2, 35905, Note_on_c, 0, 28, 90
2, 35965, Note_off_c, 0, 28, 64
2, 35986, Note_on_c, 0, 31, 90
2, 36039, Note_off_c, 0, 31, 64
2, 36068, Note_on_c, 0, 32, 90
2, 36127, Note_off_c, 0, 32, 64
2, 36148, Note_on_c, 0, 33, 90
2, 36333, Note_off_c, 0, 33, 64
2, 36392, Note_on_c, 0, 33, 90
2, 36442, Note_off_c, 0, 33, 64
2, 36473, Note_on_c, 0, 28, 90
2, 36521, Note_off_c, 0, 28, 64
2, 36554, Note_on_c, 0, 28, 90
2, 36635, Note_on_c, 0, 31, 90
2, 36644, Note_off_c, 0, 28, 64
2, 36697, Note_off_c, 0, 31, 64
2, 36720, Note_on_c, 0, 32, 90
2, 36773, Note_off_c, 0, 32, 64
2, 36798, Note_on_c, 0, 33, 90
2, 36988, Note_off_c, 0, 33, 64
2, 37041, Note_on_c, 0, 33, 90
2, 37088, Note_off_c, 0, 33, 64
2, 37123, Note_on_c, 0, 28, 90
2, 37173, Note_off_c, 0, 28, 64
2, 37203, Note_on_c, 0, 28, 90
2, 37274, Note_off_c, 0, 28, 64
2, 37285, Note_on_c, 0, 31, 90
2, 37365, Note_off_c, 0, 31, 64
2, 37365, Note_on_c, 0, 32, 90
2, 37434, Note_off_c, 0, 32, 64
2, 37446, Note_on_c, 0, 33, 90
2, 37589, Note_off_c, 0, 33, 64
2, 37608, Note_on_c, 0, 35, 90
2, 37660, Note_off_c, 0, 35, 64
2, 37690, Note_on_c, 0, 35, 90
2, 37760, Note_off_c, 0, 35, 64
2, 37772, Note_on_c, 0, 36, 90
2, 37814, Note_off_c, 0, 36, 64
2, 37852, Note_on_c, 0, 36, 90
2, 37916, Note_off_c, 0, 36, 64
2, 37933, Note_on_c, 0, 37, 90
2, 37982, Note_off_c, 0, 37, 64
2, 38015, Note_on_c, 0, 37, 90
2, 38078, Note_off_c, 0, 37, 64
2, 38096, Note_on_c, 0, 38, 90
2, 38291, Note_off_c, 0, 38, 64
2, 38339, Note_on_c, 0, 38, 90
2, 38398, Note_off_c, 0, 38, 64
2, 38421, Note_on_c, 0, 33, 90
2, 38474, Note_off_c, 0, 33, 64
2, 38501, Note_on_c, 0, 33, 90
2, 38566, Note_off_c, 0, 33, 64
2, 38582, Note_on_c, 0, 36, 90
2, 38662, Note_off_c, 0, 36, 64
2, 38664, Note_on_c, 0, 37, 90
2, 38736, Note_off_c, 0, 37, 64
2, 38745, Note_on_c, 0, 38, 90
2, 38900, Note_off_c, 0, 38, 64
2, 38907, Note_on_c, 0, 30, 90
2, 38988, Note_off_c, 0, 30, 64
2, 38988, Note_on_c, 0, 38, 90
2, 39061, Note_off_c, 0, 38, 64
2, 39069, Note_on_c, 0, 31, 90
2, 39141, Note_off_c, 0, 31, 64
2, 39150, Note_on_c, 0, 38, 90
2, 39232, Note_off_c, 0, 38, 64
2, 39232, Note_on_c, 0, 32, 90
2, 39380, Note_off_c, 0, 32, 64
2, 39394, Note_on_c, 0, 33, 90
2, 39578, Note_off_c, 0, 33, 64
2, 39636, Note_on_c, 0, 33, 90
2, 39703, Note_off_c, 0, 33, 64
2, 39717, Note_on_c, 0, 28, 90
2, 39770, Note_off_c, 0, 28, 64
2, 39798, Note_on_c, 0, 28, 90
2, 39861, Note_off_c, 0, 28, 64
2, 39880, Note_on_c, 0, 31, 90
2, 39954, Note_off_c, 0, 31, 64
2, 39962, Note_on_c, 0, 32, 90
2, 40035, Note_off_c, 0, 32, 64
2, 40042, Note_on_c, 0, 33, 90
2, 40194, Note_off_c, 0, 33, 64
2, 40205, Note_on_c, 0, 37, 90
2, 40248, Note_off_c, 0, 37, 64
2, 40285, Note_on_c, 0, 37, 90
2, 40359, Note_off_c, 0, 37, 64
2, 40367, Note_on_c, 0, 38, 90
2, 40409, Note_off_c, 0, 38, 64
2, 40450, Note_on_c, 0, 38, 90
2, 40500, Note_off_c, 0, 38, 64
2, 40528, Note_on_c, 0, 39, 90
2, 40574, Note_off_c, 0, 39, 64
2, 40610, Note_on_c, 0, 39, 90
2, 40679, Note_off_c, 0, 39, 64
2, 40691, Note_on_c, 0, 40, 90
2, 40896, Note_off_c, 0, 40, 64
2, 40935, Note_on_c, 0, 40, 90
2, 41005, Note_off_c, 0, 40, 64
2, 41016, Note_on_c, 0, 35, 90
2, 41071, Note_off_c, 0, 35, 64
2, 41097, Note_on_c, 0, 35, 90
2, 41177, Note_off_c, 0, 35, 64
2, 41177, Note_on_c, 0, 40, 90
2, 41246, Note_off_c, 0, 40, 64
2, 41260, Note_on_c, 0, 39, 90
2, 41335, Note_off_c, 0, 39, 64
2, 41341, Note_on_c, 0, 38, 90
2, 41545, Note_off_c, 0, 38, 64
2, 41584, Note_on_c, 0, 38, 90
2, 41663, Note_off_c, 0, 38, 64
2, 41665, Note_on_c, 0, 33, 90
2, 41705, Note_off_c, 0, 33, 64
2, 41746, Note_on_c, 0, 33, 90
2, 41823, Note_off_c, 0, 33, 64
2, 41827, Note_on_c, 0, 38, 90
2, 41909, Note_on_c, 0, 33, 90
2, 41917, Note_off_c, 0, 38, 64
2, 42018, Note_off_c, 0, 33, 64
2, 42071, Note_on_c, 0, 33, 90
2, 42109, Note_off_c, 0, 33, 64
2, 42151, Note_on_c, 0, 31, 90
2, 42203, Note_off_c, 0, 31, 64
2, 42233, Note_on_c, 0, 31, 90
2, 42276, Note_off_c, 0, 31, 64
2, 42315, Note_on_c, 0, 30, 90
2, 42366, Note_off_c, 0, 30, 64
2, 42395, Note_on_c, 0, 30, 90
2, 42435, Note_off_c, 0, 30, 64
2, 42476, Note_on_c, 0, 29, 90
2, 42525, Note_off_c, 0, 29, 64
2, 42558, Note_on_c, 0, 29, 90
2, 42604, Note_off_c, 0, 29, 64
2, 42637, Note_on_c, 0, 28, 90
2, 42684, Note_off_c, 0, 28, 64
2, 42720, Note_on_c, 0, 28, 90
2, 42773, Note_off_c, 0, 28, 64
2, 42801, Note_on_c, 0, 28, 90
2, 42852, Note_off_c, 0, 28, 64
2, 42882, Note_on_c, 0, 28, 90
2, 42932, Note_off_c, 0, 28, 64
2, 42964, Note_on_c, 0, 28, 90
2, 43018, Note_off_c, 0, 28, 64
2, 43044, Note_on_c, 0, 28, 90
2, 43104, Note_off_c, 0, 28, 64
2, 43126, Note_on_c, 0, 31, 90
2, 43189, Note_off_c, 0, 31, 64
2, 43206, Note_on_c, 0, 32, 90
2, 43263, Note_off_c, 0, 32, 64
2, 43287, Note_on_c, 0, 33, 90
2, 43461, Note_off_c, 0, 33, 64
2, 43530, Note_on_c, 0, 33, 90
2, 43586, Note_off_c, 0, 33, 64
2, 43611, Note_on_c, 0, 28, 90
2, 43667, Note_off_c, 0, 28, 64
2, 43693, Note_on_c, 0, 28, 90
2, 43756, Note_off_c, 0, 28, 64
2, 43774, Note_on_c, 0, 31, 90
2, 43826, Note_off_c, 0, 31, 64
2, 43856, Note_on_c, 0, 32, 90
2, 43919, Note_off_c, 0, 32, 64
2, 43939, Note_on_c, 0, 33, 90
2, 44115, Note_off_c, 0, 33, 64
2, 44180, Note_on_c, 0, 33, 90
2, 44228, Note_off_c, 0, 33, 64
2, 44261, Note_on_c, 0, 28, 90
2, 44318, Note_off_c, 0, 28, 64
2, 44342, Note_on_c, 0, 28, 90
2, 44419, Note_off_c, 0, 28, 64
2, 44425, Note_on_c, 0, 30, 90
2, 44560, Note_off_c, 0, 30, 64
2, 44585, Note_on_c, 0, 33, 90
2, 44760, Note_off_c, 0, 33, 64
2, 44829, Note_on_c, 0, 33, 90
2, 44884, Note_off_c, 0, 33, 64
2, 44910, Note_on_c, 0, 28, 90
2, 44964, Note_off_c, 0, 28, 64
2, 44993, Note_on_c, 0, 28, 90
2, 45057, Note_off_c, 0, 28, 64
2, 45072, Note_on_c, 0, 31, 90
2, 45121, Note_off_c, 0, 31, 64
2, 45154, Note_on_c, 0, 32, 90
2, 45213, Note_off_c, 0, 32, 64
2, 45235, Note_on_c, 0, 33, 90
2, 45382, Note_off_c, 0, 33, 64
2, 45397, Note_on_c, 0, 35, 90
2, 45448, Note_off_c, 0, 35, 64
2, 45477, Note_on_c, 0, 35, 90
2, 45547, Note_off_c, 0, 35, 64
2, 45559, Note_on_c, 0, 36, 90
2, 45606, Note_off_c, 0, 36, 64
2, 45642, Note_on_c, 0, 36, 90
2, 45703, Note_off_c, 0, 36, 64
2, 45721, Note_on_c, 0, 37, 90
2, 45770, Note_off_c, 0, 37, 64
2, 45802, Note_on_c, 0, 37, 90
2, 45865, Note_off_c, 0, 37, 64
2, 45886, Note_on_c, 0, 33, 90
2, 46057, Note_off_c, 0, 33, 64
2, 46127, Note_on_c, 0, 33, 90
2, 46182, Note_off_c, 0, 33, 64
2, 46208, Note_on_c, 0, 28, 90
2, 46263, Note_off_c, 0, 28, 64
2, 46289, Note_on_c, 0, 28, 90
2, 46352, Note_off_c, 0, 28, 64
2, 46370, Note_on_c, 0, 31, 90
2, 46422, Note_off_c, 0, 31, 64
2, 46452, Note_on_c, 0, 32, 90
2, 46515, Note_off_c, 0, 32, 64
2, 46533, Note_on_c, 0, 33, 90
2, 46711, Note_off_c, 0, 33, 64
2, 46776, Note_on_c, 0, 33, 90
2, 46825, Note_off_c, 0, 33, 64
2, 46856, Note_on_c, 0, 28, 90
2, 46914, Note_off_c, 0, 28, 64
2, 46937, Note_on_c, 0, 28, 90
2, 47016, Note_off_c, 0, 28, 64
2, 47018, Note_on_c, 0, 30, 90
2, 47155, Note_off_c, 0, 30, 64
2, 47181, Note_on_c, 0, 33, 90
2, 47361, Note_off_c, 0, 33, 64
2, 47424, Note_on_c, 0, 33, 90
2, 47486, Note_off_c, 0, 33, 64
2, 47506, Note_on_c, 0, 28, 90
2, 47559, Note_off_c, 0, 28, 64
2, 47587, Note_on_c, 0, 28, 90
2, 47660, Note_off_c, 0, 28, 64
2, 47668, Note_on_c, 0, 31, 90
2, 47722, Note_off_c, 0, 31, 64
2, 47750, Note_on_c, 0, 32, 90
2, 47812, Note_off_c, 0, 32, 64
2, 47831, Note_on_c, 0, 33, 90
2, 48009, Note_off_c, 0, 33, 64
2, 48074, Note_on_c, 0, 33, 90
2, 48121, Note_off_c, 0, 33, 64
2, 48155, Note_on_c, 0, 30, 90
2, 48292, Note_off_c, 0, 30, 64
2, 48317, Note_on_c, 0, 31, 90
2, 48383, Note_off_c, 0, 31, 64
2, 48401, Note_on_c, 0, 32, 90
2, 48464, Note_off_c, 0, 32, 64
2, 48479, Note_on_c, 0, 33, 90
2, 48661, Note_off_c, 0, 33, 64
2, 48723, Note_on_c, 0, 33, 90
2, 48780, Note_off_c, 0, 33, 64
2, 48803, Note_on_c, 0, 28, 90
2, 48849, Note_off_c, 0, 28, 64
2, 48885, Note_on_c, 0, 28, 90
2, 48947, Note_off_c, 0, 28, 64
2, 48965, Note_on_c, 0, 31, 90
2, 49025, Note_off_c, 0, 31, 64
2, 49049, Note_on_c, 0, 32, 90
2, 49097, Note_off_c, 0, 32, 64
2, 49128, Note_on_c, 0, 33, 90
2, 49312, Note_off_c, 0, 33, 64
2, 49372, Note_on_c, 0, 33, 90
2, 49429, Note_off_c, 0, 33, 64
2, 49453, Note_on_c, 0, 28, 90
2, 49503, Note_off_c, 0, 28, 64
2, 49534, Note_on_c, 0, 28, 90
2, 49597, Note_off_c, 0, 28, 64
2, 49617, Note_on_c, 0, 31, 90
2, 49666, Note_off_c, 0, 31, 64
2, 49699, Note_on_c, 0, 32, 90
2, 49749, Note_off_c, 0, 32, 64
2, 49778, Note_on_c, 0, 33, 90
2, 49948, Note_off_c, 0, 33, 64
2, 50021, Note_on_c, 0, 33, 90
2, 50071, Note_off_c, 0, 33, 64
2, 50101, Note_on_c, 0, 28, 90
2, 50151, Note_off_c, 0, 28, 64
2, 50183, Note_on_c, 0, 28, 90
2, 50248, Note_off_c, 0, 28, 64
2, 50263, Note_on_c, 0, 31, 90
2, 50330, Note_off_c, 0, 31, 64
2, 50345, Note_on_c, 0, 32, 90
2, 50412, Note_off_c, 0, 32, 64
2, 50427, Note_on_c, 0, 33, 90
2, 50583, Note_off_c, 0, 33, 64
2, 50588, Note_on_c, 0, 35, 90
2, 50644, Note_off_c, 0, 35, 64
2, 50669, Note_on_c, 0, 35, 90
2, 50743, Note_off_c, 0, 35, 64
2, 50751, Note_on_c, 0, 36, 90
2, 50796, Note_off_c, 0, 36, 64
2, 50832, Note_on_c, 0, 36, 90
2, 50894, Note_off_c, 0, 36, 64
2, 50913, Note_on_c, 0, 37, 90
2, 50963, Note_off_c, 0, 37, 64
2, 50995, Note_on_c, 0, 37, 90
2, 51053, Note_off_c, 0, 37, 64
2, 51076, Note_on_c, 0, 38, 90
2, 51261, Note_off_c, 0, 38, 64
2, 51318, Note_on_c, 0, 38, 90
2, 51369, Note_off_c, 0, 38, 64
2, 51400, Note_on_c, 0, 33, 90
2, 51458, Note_off_c, 0, 33, 64
2, 51481, Note_on_c, 0, 33, 90
2, 51551, Note_off_c, 0, 33, 64
2, 51561, Note_on_c, 0, 36, 90
2, 51631, Note_off_c, 0, 36, 64
2, 51643, Note_on_c, 0, 37, 90
2, 51712, Note_off_c, 0, 37, 64
2, 51727, Note_on_c, 0, 38, 90
2, 51872, Note_off_c, 0, 38, 64
2, 51886, Note_on_c, 0, 30, 90
2, 51935, Note_off_c, 0, 30, 64
2, 51967, Note_on_c, 0, 30, 90
2, 52024, Note_off_c, 0, 30, 64
2, 52048, Note_on_c, 0, 31, 90
2, 52092, Note_off_c, 0, 31, 64
2, 52130, Note_on_c, 0, 31, 90
2, 52185, Note_off_c, 0, 31, 64
2, 52210, Note_on_c, 0, 32, 90
2, 52251, Note_off_c, 0, 32, 64
2, 52294, Note_on_c, 0, 32, 90
2, 52362, Note_off_c, 0, 32, 64
2, 52373, Note_on_c, 0, 33, 90
2, 52560, Note_off_c, 0, 33, 64
2, 52616, Note_on_c, 0, 33, 90
2, 52671, Note_off_c, 0, 33, 64
2, 52698, Note_on_c, 0, 28, 90
2, 52741, Note_off_c, 0, 28, 64
2, 52779, Note_on_c, 0, 28, 90
2, 52845, Note_off_c, 0, 28, 64
2, 52859, Note_on_c, 0, 31, 90
2, 52912, Note_off_c, 0, 31, 64
2, 52941, Note_on_c, 0, 32, 90
2, 52999, Note_off_c, 0, 32, 64
2, 53022, Note_on_c, 0, 33, 90
2, 53164, Note_off_c, 0, 33, 64
2, 53184, Note_on_c, 0, 37, 90
2, 53227, Note_off_c, 0, 37, 64
2, 53266, Note_on_c, 0, 37, 90
2, 53324, Note_off_c, 0, 37, 64
2, 53347, Note_on_c, 0, 38, 90
2, 53398, Note_off_c, 0, 38, 64
2, 53428, Note_on_c, 0, 38, 90
2, 53482, Note_off_c, 0, 38, 64
2, 53508, Note_on_c, 0, 39, 90
2, 53545, Note_off_c, 0, 39, 64
2, 53595, Note_on_c, 0, 39, 90
2, 53652, Note_off_c, 0, 39, 64
2, 53674, Note_on_c, 0, 40, 90
2, 53842, Note_off_c, 0, 40, 64
2, 53914, Note_on_c, 0, 40, 90
2, 53982, Note_off_c, 0, 40, 64
2, 53995, Note_on_c, 0, 35, 90
2, 54041, Note_off_c, 0, 35, 64
2, 54078, Note_on_c, 0, 35, 90
2, 54147, Note_off_c, 0, 35, 64
2, 54158, Note_on_c, 0, 40, 90
2, 54217, Note_off_c, 0, 40, 64
2, 54239, Note_on_c, 0, 39, 90
2, 54305, Note_off_c, 0, 39, 64
2, 54320, Note_on_c, 0, 38, 90
2, 54516, Note_off_c, 0, 38, 64
2, 54567, Note_on_c, 0, 38, 90
2, 54629, Note_off_c, 0, 38, 64
2, 54646, Note_on_c, 0, 33, 90
2, 54690, Note_off_c, 0, 33, 64
2, 54725, Note_on_c, 0, 33, 90
2, 54803, Note_off_c, 0, 33, 64
2, 54807, Note_on_c, 0, 38, 90
2, 54953, Note_off_c, 0, 38, 64
2, 54969, Note_on_c, 0, 33, 90
2, 55077, Note_off_c, 0, 33, 64
2, 55132, Note_on_c, 0, 31, 90
2, 55187, Note_off_c, 0, 31, 64
2, 55214, Note_on_c, 0, 31, 90
2, 55253, Note_off_c, 0, 31, 64
2, 55294, Note_on_c, 0, 30, 90
2, 55344, Note_off_c, 0, 30, 64
2, 55374, Note_on_c, 0, 30, 90
2, 55413, Note_off_c, 0, 30, 64
2, 55455, Note_on_c, 0, 29, 90
2, 55498, Note_off_c, 0, 29, 64
2, 55540, Note_on_c, 0, 29, 90
2, 55584, Note_off_c, 0, 29, 64
2, 55618, Note_on_c, 0, 28, 90
2, 55665, Note_off_c, 0, 28, 64
2, 55699, Note_on_c, 0, 28, 90
2, 55740, Note_off_c, 0, 28, 64
2, 55780, Note_on_c, 0, 28, 90
2, 55838, Note_off_c, 0, 28, 64
2, 55862, Note_on_c, 0, 28, 90
2, 55915, Note_off_c, 0, 28, 64
2, 55942, Note_on_c, 0, 28, 90
2, 55993, Note_off_c, 0, 28, 64
2, 56024, Note_on_c, 0, 28, 90
2, 56079, Note_off_c, 0, 28, 64
2, 56104, Note_on_c, 0, 31, 90
2, 56150, Note_off_c, 0, 31, 64
2, 56186, Note_on_c, 0, 32, 90
2, 56243, Note_off_c, 0, 32, 64
2, 56267, Note_on_c, 0, 33, 90
2, 56442, Note_off_c, 0, 33, 64
2, 56510, Note_on_c, 0, 33, 90
2, 56565, Note_off_c, 0, 33, 64
2, 56591, Note_on_c, 0, 28, 90
2, 56647, Note_off_c, 0, 28, 64
2, 56673, Note_on_c, 0, 28, 90
2, 56736, Note_off_c, 0, 28, 64
2, 56753, Note_on_c, 0, 31, 90
2, 56806, Note_off_c, 0, 31, 64
2, 56835, Note_on_c, 0, 32, 90
2, 56899, Note_off_c, 0, 32, 64
2, 56915, Note_on_c, 0, 33, 90
2, 57094, Note_off_c, 0, 33, 64
2, 57163, Note_on_c, 0, 33, 90
2, 57207, Note_off_c, 0, 33, 64
2, 57331, Note_on_c, 0, 28, 90
2, 57332, Note_off_c, 0, 28, 64
2, 57402, Note_on_c, 0, 30, 90
2, 57538, Note_off_c, 0, 30, 64
2, 57564, Note_on_c, 0, 33, 90
2, 57738, Note_off_c, 0, 33, 64
2, 57807, Note_on_c, 0, 33, 90
2, 57865, Note_off_c, 0, 33, 64
2, 57889, Note_on_c, 0, 28, 90
2, 57942, Note_off_c, 0, 28, 64
2, 57970, Note_on_c, 0, 28, 90
2, 58035, Note_off_c, 0, 28, 64
2, 58051, Note_on_c, 0, 31, 90
2, 58100, Note_off_c, 0, 31, 64
2, 58132, Note_on_c, 0, 32, 90
2, 58190, Note_off_c, 0, 32, 64
2, 58215, Note_on_c, 0, 33, 90
2, 58360, Note_off_c, 0, 33, 64
2, 58380, Note_on_c, 0, 35, 90
2, 58425, Note_off_c, 0, 35, 64
2, 58455, Note_on_c, 0, 35, 90
2, 58525, Note_off_c, 0, 35, 64
2, 58537, Note_on_c, 0, 36, 90
2, 58584, Note_off_c, 0, 36, 64
2, 58618, Note_on_c, 0, 36, 90
2, 58680, Note_off_c, 0, 36, 64
2, 58699, Note_on_c, 0, 37, 90
2, 58749, Note_off_c, 0, 37, 64
2, 58781, Note_on_c, 0, 37, 90
2, 58843, Note_off_c, 0, 37, 64
2, 58862, Note_on_c, 0, 33, 90
2, 59035, Note_off_c, 0, 33, 64
2, 59105, Note_on_c, 0, 33, 90
2, 59160, Note_off_c, 0, 33, 64
2, 59187, Note_on_c, 0, 28, 90
2, 59242, Note_off_c, 0, 28, 64
2, 59267, Note_on_c, 0, 28, 90
2, 59332, Note_off_c, 0, 28, 64
2, 59346, Note_on_c, 0, 31, 90
2, 59400, Note_off_c, 0, 31, 64
2, 59429, Note_on_c, 0, 32, 90
2, 59492, Note_off_c, 0, 32, 64
2, 59510, Note_on_c, 0, 33, 90
2, 59688, Note_off_c, 0, 33, 64
2, 59753, Note_on_c, 0, 33, 90
2, 59802, Note_off_c, 0, 33, 64
2, 59834, Note_on_c, 0, 28, 90
2, 59892, Note_off_c, 0, 28, 64
2, 59917, Note_on_c, 0, 28, 90
2, 59994, Note_off_c, 0, 28, 64
2, 59997, Note_on_c, 0, 30, 90
2, 60134, Note_off_c, 0, 30, 64
2, 60160, Note_on_c, 0, 33, 90
2, 60341, Note_off_c, 0, 33, 64
2, 60403, Note_on_c, 0, 33, 90
2, 60465, Note_off_c, 0, 33, 64
2, 60485, Note_on_c, 0, 28, 90
2, 60538, Note_off_c, 0, 28, 64
2, 60565, Note_on_c, 0, 28, 90
2, 60638, Note_off_c, 0, 28, 64
2, 60649, Note_on_c, 0, 31, 90
2, 60700, Note_off_c, 0, 31, 64
2, 60727, Note_on_c, 0, 32, 90
2, 60790, Note_off_c, 0, 32, 64
2, 60809, Note_on_c, 0, 33, 90
2, 60989, Note_off_c, 0, 33, 64
2, 61052, Note_on_c, 0, 33, 90
2, 61099, Note_off_c, 0, 33, 64
2, 61133, Note_on_c, 0, 30, 90
2, 61270, Note_off_c, 0, 30, 64
2, 61295, Note_on_c, 0, 31, 90
2, 61360, Note_off_c, 0, 31, 64
2, 61379, Note_on_c, 0, 32, 90
2, 61442, Note_off_c, 0, 32, 64
2, 61458, Note_on_c, 0, 33, 90
2, 61655, Note_off_c, 0, 33, 64
2, 61701, Note_on_c, 0, 33, 90
2, 61753, Note_off_c, 0, 33, 64
2, 61782, Note_on_c, 0, 28, 90
2, 61841, Note_off_c, 0, 28, 64
2, 61863, Note_on_c, 0, 28, 90
2, 61923, Note_off_c, 0, 28, 64
2, 61948, Note_on_c, 0, 31, 90
2, 61997, Note_off_c, 0, 31, 64
2, 62025, Note_on_c, 0, 32, 90
2, 62084, Note_off_c, 0, 32, 64
2, 62106, Note_on_c, 0, 33, 90
2, 62290, Note_off_c, 0, 33, 64
2, 62350, Note_on_c, 0, 33, 90
2, 62399, Note_off_c, 0, 33, 64
2, 62431, Note_on_c, 0, 28, 90
2, 62479, Note_off_c, 0, 28, 64
2, 62515, Note_on_c, 0, 28, 90
2, 62593, Note_on_c, 0, 31, 90
2, 62601, Note_off_c, 0, 28, 64
2, 62655, Note_off_c, 0, 31, 64
2, 62677, Note_on_c, 0, 32, 90
2, 62731, Note_off_c, 0, 32, 64
2, 62756, Note_on_c, 0, 33, 90
2, 62946, Note_off_c, 0, 33, 64
2, 62998, Note_on_c, 0, 33, 90
2, 63046, Note_off_c, 0, 33, 64
2, 63081, Note_on_c, 0, 28, 90
2, 63130, Note_off_c, 0, 28, 64
2, 63160, Note_on_c, 0, 28, 90
2, 63231, Note_off_c, 0, 28, 64
2, 63242, Note_on_c, 0, 31, 90
2, 63323, Note_off_c, 0, 31, 64
2, 63323, Note_on_c, 0, 32, 90
2, 63392, Note_off_c, 0, 32, 64
2, 63404, Note_on_c, 0, 33, 90
2, 63546, Note_off_c, 0, 33, 64
2, 63566, Note_on_c, 0, 35, 90
2, 63618, Note_off_c, 0, 35, 64
2, 63647, Note_on_c, 0, 35, 90
2, 63718, Note_off_c, 0, 35, 64
2, 63729, Note_on_c, 0, 36, 90
2, 63775, Note_off_c, 0, 36, 64
2, 63810, Note_on_c, 0, 36, 90
2, 63875, Note_off_c, 0, 36, 64
2, 63891, Note_on_c, 0, 37, 90
2, 63940, Note_off_c, 0, 37, 64
2, 63973, Note_on_c, 0, 37, 90
2, 64036, Note_off_c, 0, 37, 64
2, 64054, Note_on_c, 0, 38, 90
2, 64249, Note_off_c, 0, 38, 64
2, 64297, Note_on_c, 0, 38, 90
2, 64356, Note_off_c, 0, 38, 64
2, 64378, Note_on_c, 0, 33, 90
2, 64432, Note_off_c, 0, 33, 64
2, 64459, Note_on_c, 0, 33, 90
2, 64525, Note_off_c, 0, 33, 64
2, 64541, Note_on_c, 0, 36, 90
2, 64620, Note_off_c, 0, 36, 64
2, 64621, Note_on_c, 0, 37, 90
2, 64694, Note_off_c, 0, 37, 64
2, 64703, Note_on_c, 0, 38, 90
2, 64858, Note_off_c, 0, 38, 64
2, 64865, Note_on_c, 0, 30, 90
2, 64946, Note_off_c, 0, 30, 64
2, 64947, Note_on_c, 0, 38, 90
2, 65020, Note_off_c, 0, 38, 64
2, 65028, Note_on_c, 0, 31, 90
2, 65100, Note_off_c, 0, 31, 64
2, 65108, Note_on_c, 0, 38, 90
2, 65190, Note_off_c, 0, 38, 64
2, 65190, Note_on_c, 0, 32, 90
2, 65339, Note_off_c, 0, 32, 64
2, 65352, Note_on_c, 0, 33, 90
2, 65536, Note_off_c, 0, 33, 64
2, 65595, Note_on_c, 0, 33, 90
2, 65662, Note_off_c, 0, 33, 64
2, 65676, Note_on_c, 0, 28, 90
2, 65728, Note_off_c, 0, 28, 64
2, 65756, Note_on_c, 0, 28, 90
2, 65819, Note_off_c, 0, 28, 64
2, 65840, Note_on_c, 0, 31, 90
2, 65913, Note_off_c, 0, 31, 64
2, 65922, Note_on_c, 0, 32, 90
2, 65995, Note_off_c, 0, 32, 64
2, 66002, Note_on_c, 0, 33, 90
2, 66152, Note_off_c, 0, 33, 64
2, 66163, Note_on_c, 0, 37, 90
2, 66207, Note_off_c, 0, 37, 64
2, 66244, Note_on_c, 0, 37, 90
2, 66318, Note_off_c, 0, 37, 64
2, 66326, Note_on_c, 0, 38, 90
2, 66367, Note_off_c, 0, 38, 64
2, 66406, Note_on_c, 0, 38, 90
2, 66458, Note_off_c, 0, 38, 64
2, 66487, Note_on_c, 0, 39, 90
2, 66534, Note_off_c, 0, 39, 64
2, 66569, Note_on_c, 0, 39, 90
2, 66637, Note_off_c, 0, 39, 64
2, 66649, Note_on_c, 0, 40, 90
2, 66852, Note_off_c, 0, 40, 64
2, 66892, Note_on_c, 0, 40, 90
2, 66962, Note_off_c, 0, 40, 64
2, 66973, Note_on_c, 0, 35, 90
2, 67028, Note_off_c, 0, 35, 64
2, 67054, Note_on_c, 0, 35, 90
2, 67136, Note_off_c, 0, 35, 64
2, 67136, Note_on_c, 0, 40, 90
2, 67203, Note_off_c, 0, 40, 64
2, 67219, Note_on_c, 0, 39, 90
2, 67293, Note_off_c, 0, 39, 64
2, 67298, Note_on_c, 0, 38, 90
2, 67501, Note_off_c, 0, 38, 64
2, 67541, Note_on_c, 0, 38, 90
2, 67621, Note_off_c, 0, 38, 64
2, 67623, Note_on_c, 0, 33, 90
2, 67664, Note_off_c, 0, 33, 64
2, 67703, Note_on_c, 0, 33, 90
2, 67780, Note_off_c, 0, 33, 64
2, 67784, Note_on_c, 0, 38, 90
2, 67867, Note_on_c, 0, 33, 90
2, 67874, Note_off_c, 0, 38, 64
2, 67975, Note_off_c, 0, 33, 64
2, 68028, Note_on_c, 0, 33, 90
2, 68066, Note_off_c, 0, 33, 64
2, 68109, Note_on_c, 0, 31, 90
2, 68161, Note_off_c, 0, 31, 64
2, 68190, Note_on_c, 0, 31, 90
2, 68232, Note_off_c, 0, 31, 64
2, 68271, Note_on_c, 0, 30, 90
2, 68324, Note_off_c, 0, 30, 64
2, 68352, Note_on_c, 0, 30, 90
2, 68393, Note_off_c, 0, 30, 64
2, 68436, Note_on_c, 0, 29, 90
2, 68482, Note_off_c, 0, 29, 64
2, 68514, Note_on_c, 0, 29, 90
2, 68561, Note_off_c, 0, 29, 64
2, 68596, Note_on_c, 0, 28, 90
2, 68641, Note_off_c, 0, 28, 64
2, 68677, Note_on_c, 0, 28, 90
2, 68728, Note_off_c, 0, 28, 64
2, 68760, Note_on_c, 0, 28, 90
2, 68809, Note_off_c, 0, 28, 64
2, 68839, Note_on_c, 0, 28, 90
2, 68889, Note_off_c, 0, 28, 64
2, 68919, Note_on_c, 0, 28, 90
2, 68975, Note_off_c, 0, 28, 64
2, 69002, Note_on_c, 0, 28, 90
2, 69062, Note_off_c, 0, 28, 64
2, 69082, Note_on_c, 0, 31, 90
2, 69147, Note_off_c, 0, 31, 64
2, 69164, Note_on_c, 0, 32, 90
2, 69220, Note_off_c, 0, 32, 64
2, 69245, Note_on_c, 0, 33, 90
2, 69419, Note_off_c, 0, 33, 64
2, 69488, Note_on_c, 0, 33, 90
2, 69543, Note_off_c, 0, 33, 64
2, 69569, Note_on_c, 0, 28, 90
2, 69624, Note_off_c, 0, 28, 64
2, 69650, Note_on_c, 0, 28, 90
2, 69714, Note_off_c, 0, 28, 64
2, 69730, Note_on_c, 0, 31, 90
2, 69783, Note_off_c, 0, 31, 64
2, 69813, Note_on_c, 0, 32, 90
2, 69876, Note_off_c, 0, 32, 64
2, 69893, Note_on_c, 0, 33, 90
2, 70072, Note_off_c, 0, 33, 64
2, 70137, Note_on_c, 0, 33, 90
2, 70185, Note_off_c, 0, 33, 64
2, 70217, Note_on_c, 0, 28, 90
2, 70275, Note_off_c, 0, 28, 64
2, 70299, Note_on_c, 0, 28, 90
2, 70376, Note_off_c, 0, 28, 64
2, 70380, Note_on_c, 0, 30, 90
2, 70517, Note_off_c, 0, 30, 64
2, 70543, Note_on_c, 0, 33, 90
2, 70717, Note_off_c, 0, 33, 64
2, 70785, Note_on_c, 0, 33, 90
2, 70843, Note_off_c, 0, 33, 64
2, 70867, Note_on_c, 0, 28, 90
2, 70920, Note_off_c, 0, 28, 64
2, 70948, Note_on_c, 0, 28, 90
2, 71013, Note_off_c, 0, 28, 64
2, 71028, Note_on_c, 0, 31, 90
2, 71078, Note_off_c, 0, 31, 64
2, 71111, Note_on_c, 0, 32, 90
2, 71169, Note_off_c, 0, 32, 64
2, 71191, Note_on_c, 0, 33, 90
2, 71338, Note_off_c, 0, 33, 64
2, 71355, Note_on_c, 0, 35, 90
2, 71404, Note_off_c, 0, 35, 64
2, 71435, Note_on_c, 0, 35, 90
2, 71505, Note_off_c, 0, 35, 64
2, 71517, Note_on_c, 0, 36, 90
2, 71564, Note_off_c, 0, 36, 64
2, 71597, Note_on_c, 0, 36, 90
2, 71659, Note_off_c, 0, 36, 64
2, 71681, Note_on_c, 0, 37, 90
2, 71727, Note_off_c, 0, 37, 64
2, 71759, Note_on_c, 0, 37, 90
2, 71822, Note_off_c, 0, 37, 64
2, 71841, Note_on_c, 0, 33, 90
2, 72015, Note_off_c, 0, 33, 64
2, 72084, Note_on_c, 0, 33, 90
2, 72140, Note_off_c, 0, 33, 64
2, 72165, Note_on_c, 0, 28, 90
2, 72220, Note_off_c, 0, 28, 64
2, 72246, Note_on_c, 0, 28, 90
2, 72310, Note_off_c, 0, 28, 64
2, 72327, Note_on_c, 0, 31, 90
2, 72380, Note_off_c, 0, 31, 64
2, 72409, Note_on_c, 0, 32, 90
2, 72472, Note_off_c, 0, 32, 64
2, 72490, Note_on_c, 0, 33, 90
2, 72669, Note_off_c, 0, 33, 64
2, 72733, Note_on_c, 0, 33, 90
2, 72782, Note_off_c, 0, 33, 64
2, 72815, Note_on_c, 0, 28, 90
2, 72873, Note_off_c, 0, 28, 64
2, 72896, Note_on_c, 0, 28, 90
2, 72973, Note_off_c, 0, 28, 64
2, 72976, Note_on_c, 0, 30, 90
2, 73114, Note_off_c, 0, 30, 64
2, 73139, Note_on_c, 0, 33, 90
2, 73319, Note_off_c, 0, 33, 64
2, 73382, Note_on_c, 0, 33, 90
2, 73445, Note_off_c, 0, 33, 64
2, 73463, Note_on_c, 0, 28, 90
2, 73517, Note_off_c, 0, 28, 64
2, 73546, Note_on_c, 0, 28, 90
2, 73617, Note_off_c, 0, 28, 64
2, 73625, Note_on_c, 0, 31, 90
2, 73680, Note_off_c, 0, 31, 64
2, 73707, Note_on_c, 0, 32, 90
2, 73769, Note_off_c, 0, 32, 64
2, 73786, Note_on_c, 0, 33, 90
2, 73968, Note_off_c, 0, 33, 64
2, 74031, Note_on_c, 0, 33, 90
2, 74078, Note_off_c, 0, 33, 64
2, 74112, Note_on_c, 0, 30, 90
2, 74249, Note_off_c, 0, 30, 64
2, 74275, Note_on_c, 0, 31, 90
2, 74340, Note_off_c, 0, 31, 64
2, 74356, Note_on_c, 0, 32, 90
2, 74422, Note_off_c, 0, 32, 64
2, 74437, Note_on_c, 0, 33, 90
2, 74618, Note_off_c, 0, 33, 64
2, 74680, Note_on_c, 0, 33, 90
2, 74737, Note_off_c, 0, 33, 64
2, 74763, Note_on_c, 0, 28, 90
2, 74807, Note_off_c, 0, 28, 64
2, 74843, Note_on_c, 0, 28, 90
2, 74905, Note_off_c, 0, 28, 64
2, 74925, Note_on_c, 0, 31, 90
2, 74983, Note_off_c, 0, 31, 64
2, 75005, Note_on_c, 0, 32, 90
2, 75055, Note_off_c, 0, 32, 64
2, 75086, Note_on_c, 0, 33, 90
2, 75273, Note_off_c, 0, 33, 64
2, 75330, Note_on_c, 0, 33, 90
2, 75386, Note_off_c, 0, 33, 64
2, 75410, Note_on_c, 0, 28, 90
2, 75460, Note_off_c, 0, 28, 64
2, 75491, Note_on_c, 0, 28, 90
2, 75554, Note_off_c, 0, 28, 64
2, 75574, Note_on_c, 0, 31, 90
2, 75623, Note_off_c, 0, 31, 64
2, 75655, Note_on_c, 0, 32, 90
2, 75707, Note_off_c, 0, 32, 64
2, 75735, Note_on_c, 0, 33, 90
2, 75904, Note_off_c, 0, 33, 64
2, 75978, Note_on_c, 0, 33, 90
2, 76028, Note_off_c, 0, 33, 64
2, 76059, Note_on_c, 0, 28, 90
2, 76111, Note_off_c, 0, 28, 64
2, 76141, Note_on_c, 0, 28, 90
2, 76207, Note_off_c, 0, 28, 64
2, 76222, Note_on_c, 0, 31, 90
2, 76287, Note_off_c, 0, 31, 64
2, 76303, Note_on_c, 0, 32, 90
2, 76370, Note_off_c, 0, 32, 64
2, 76384, Note_on_c, 0, 33, 90
2, 76539, Note_off_c, 0, 33, 64
2, 76547, Note_on_c, 0, 35, 90
2, 76602, Note_off_c, 0, 35, 64
2, 76627, Note_on_c, 0, 35, 90
2, 76702, Note_off_c, 0, 35, 64
2, 76709, Note_on_c, 0, 36, 90
2, 76753, Note_off_c, 0, 36, 64
2, 76789, Note_on_c, 0, 36, 90
2, 76852, Note_off_c, 0, 36, 64
2, 76871, Note_on_c, 0, 37, 90
2, 76921, Note_off_c, 0, 37, 64
2, 76952, Note_on_c, 0, 37, 90
2, 77008, Note_off_c, 0, 37, 64
2, 77033, Note_on_c, 0, 38, 90
2, 77218, Note_off_c, 0, 38, 64
2, 77276, Note_on_c, 0, 38, 90
2, 77326, Note_off_c, 0, 38, 64
2, 77358, Note_on_c, 0, 33, 90
2, 77415, Note_off_c, 0, 33, 64
2, 77439, Note_on_c, 0, 33, 90
2, 77509, Note_off_c, 0, 33, 64
2, 77519, Note_on_c, 0, 36, 90
2, 77589, Note_off_c, 0, 36, 64
2, 77601, Note_on_c, 0, 37, 90
2, 77670, Note_off_c, 0, 37, 64
2, 77684, Note_on_c, 0, 38, 90
2, 77831, Note_off_c, 0, 38, 64
2, 77845, Note_on_c, 0, 30, 90
2, 77893, Note_off_c, 0, 30, 64
2, 77925, Note_on_c, 0, 30, 90
2, 77983, Note_off_c, 0, 30, 64
2, 78007, Note_on_c, 0, 31, 90
2, 78051, Note_off_c, 0, 31, 64
2, 78088, Note_on_c, 0, 31, 90
2, 78144, Note_off_c, 0, 31, 64
2, 78169, Note_on_c, 0, 32, 90
2, 78210, Note_off_c, 0, 32, 64
2, 78251, Note_on_c, 0, 32, 90
2, 78319, Note_off_c, 0, 32, 64
2, 78331, Note_on_c, 0, 33, 90
2, 78519, Note_off_c, 0, 33, 64
2, 78575, Note_on_c, 0, 33, 90
2, 78628, Note_off_c, 0, 33, 64
2, 78654, Note_on_c, 0, 28, 90
2, 78699, Note_off_c, 0, 28, 64
2, 78737, Note_on_c, 0, 28, 90
2, 78803, Note_off_c, 0, 28, 64
2, 78817, Note_on_c, 0, 31, 90
2, 78870, Note_off_c, 0, 31, 64
2, 78899, Note_on_c, 0, 32, 90
2, 78958, Note_off_c, 0, 32, 64
2, 78981, Note_on_c, 0, 33, 90
2, 79122, Note_off_c, 0, 33, 64
2, 79143, Note_on_c, 0, 37, 90
2, 79186, Note_off_c, 0, 37, 64
2, 79223, Note_on_c, 0, 37, 90
2, 79283, Note_off_c, 0, 37, 64
2, 79305, Note_on_c, 0, 38, 90
2, 79357, Note_off_c, 0, 38, 64
2, 79386, Note_on_c, 0, 38, 90
2, 79439, Note_off_c, 0, 38, 64
2, 79466, Note_on_c, 0, 39, 90
2, 79504, Note_off_c, 0, 39, 64
2, 79548, Note_on_c, 0, 39, 90
2, 79610, Note_off_c, 0, 39, 64
2, 79629, Note_on_c, 0, 40, 90
2, 79800, Note_off_c, 0, 40, 64
2, 79873, Note_on_c, 0, 40, 90
2, 79942, Note_off_c, 0, 40, 64
2, 79954, Note_on_c, 0, 35, 90
2, 79997, Note_off_c, 0, 35, 64
2, 80035, Note_on_c, 0, 35, 90
2, 80105, Note_off_c, 0, 35, 64
2, 80114, Note_on_c, 0, 40, 90
2, 80174, Note_off_c, 0, 40, 64
2, 80199, Note_on_c, 0, 39, 90
2, 80262, Note_off_c, 0, 39, 64
2, 80278, Note_on_c, 0, 38, 90
2, 80473, Note_off_c, 0, 38, 64
2, 80521, Note_on_c, 0, 38, 90
2, 80588, Note_off_c, 0, 38, 64
2, 80602, Note_on_c, 0, 33, 90
2, 80647, Note_off_c, 0, 33, 64
2, 80683, Note_on_c, 0, 33, 90
2, 80761, Note_off_c, 0, 33, 64
2, 80765, Note_on_c, 0, 38, 90
2, 80912, Note_off_c, 0, 38, 64
2, 80926, Note_on_c, 0, 33, 90
2, 81035, Note_off_c, 0, 33, 64
2, 81089, Note_on_c, 0, 31, 90
2, 81144, Note_off_c, 0, 31, 64
2, 81170, Note_on_c, 0, 31, 90
2, 81210, Note_off_c, 0, 31, 64
2, 81251, Note_on_c, 0, 30, 90
2, 81302, Note_off_c, 0, 30, 64
2, 81333, Note_on_c, 0, 30, 90
2, 81371, Note_off_c, 0, 30, 64
2, 81414, Note_on_c, 0, 29, 90
2, 81455, Note_off_c, 0, 29, 64
2, 81495, Note_on_c, 0, 29, 90
2, 81541, Note_off_c, 0, 29, 64
2, 81576, Note_on_c, 0, 28, 90
2, 81623, Note_off_c, 0, 28, 64
2, 81657, Note_on_c, 0, 28, 90
2, 81697, Note_off_c, 0, 28, 64
2, 81738, Note_on_c, 0, 28, 90
2, 81795, Note_off_c, 0, 28, 64
2, 81819, Note_on_c, 0, 28, 90
2, 81873, Note_off_c, 0, 28, 64
2, 81903, Note_on_c, 0, 28, 90
2, 81951, Note_off_c, 0, 28, 64
2, 81982, Note_on_c, 0, 28, 90
2, 82038, Note_off_c, 0, 28, 64
2, 82062, Note_on_c, 0, 31, 90
2, 82110, Note_off_c, 0, 31, 64
2, 82147, Note_on_c, 0, 32, 90
2, 82201, Note_off_c, 0, 32, 64
2, 82224, Note_on_c, 0, 33, 90
2, 82430, Note_off_c, 0, 33, 64
2, 82469, Note_on_c, 0, 33, 90
2, 82521, Note_off_c, 0, 33, 64
2, 82550, Note_on_c, 0, 28, 90
2, 82602, Note_off_c, 0, 28, 64
2, 82631, Note_on_c, 0, 28, 90
2, 82687, Note_off_c, 0, 28, 64
2, 82711, Note_on_c, 0, 31, 90
2, 82762, Note_off_c, 0, 31, 64
2, 82791, Note_on_c, 0, 32, 90
2, 82859, Note_off_c, 0, 32, 64
2, 82875, Note_on_c, 0, 33, 90
2, 83071, Note_off_c, 0, 33, 64
2, 83117, Note_on_c, 0, 33, 90
2, 83159, Note_off_c, 0, 33, 64
2, 83198, Note_on_c, 0, 28, 90
2, 83245, Note_off_c, 0, 28, 64
2, 83280, Note_on_c, 0, 28, 90
2, 83338, Note_off_c, 0, 28, 64
2, 83361, Note_on_c, 0, 31, 90
2, 83405, Note_off_c, 0, 31, 64
2, 83445, Note_on_c, 0, 32, 90
2, 83508, Note_off_c, 0, 32, 64
2, 83525, Note_on_c, 0, 33, 90
2, 83713, Note_off_c, 0, 33, 64
2, 83766, Note_on_c, 0, 33, 90
2, 83827, Note_off_c, 0, 33, 64
2, 83848, Note_on_c, 0, 28, 90
2, 83899, Note_off_c, 0, 28, 64
2, 83929, Note_on_c, 0, 28, 90
2, 83995, Note_off_c, 0, 28, 64
2, 84013, Note_on_c, 0, 31, 90
2, 84074, Note_off_c, 0, 31, 64
2, 84091, Note_on_c, 0, 32, 90
2, 84159, Note_off_c, 0, 32, 64
2, 84173, Note_on_c, 0, 33, 90
2, 84321, Note_off_c, 0, 33, 64
2, 84334, Note_on_c, 0, 35, 90
2, 84385, Note_off_c, 0, 35, 64
2, 84415, Note_on_c, 0, 35, 90
2, 84495, Note_on_c, 0, 36, 90
2, 84502, Note_off_c, 0, 35, 64
2, 84541, Note_off_c, 0, 36, 64
2, 84577, Note_on_c, 0, 36, 90
2, 84639, Note_off_c, 0, 36, 64
2, 84663, Note_on_c, 0, 37, 90
2, 84703, Note_off_c, 0, 37, 64
2, 84743, Note_on_c, 0, 37, 90
2, 84805, Note_off_c, 0, 37, 64
2, 84823, Note_on_c, 0, 38, 90
2, 84997, Note_off_c, 0, 38, 64
2, 85065, Note_on_c, 0, 38, 90
2, 85128, Note_off_c, 0, 38, 64
2, 85146, Note_on_c, 0, 33, 90
2, 85195, Note_off_c, 0, 33, 64
2, 85227, Note_on_c, 0, 33, 90
2, 85295, Note_off_c, 0, 33, 64
2, 85308, Note_on_c, 0, 36, 90
2, 85369, Note_off_c, 0, 36, 64
2, 85389, Note_on_c, 0, 37, 90
2, 85445, Note_off_c, 0, 37, 64
2, 85470, Note_on_c, 0, 38, 90
2, 85619, Note_off_c, 0, 38, 64
2, 85633, Note_on_c, 0, 30, 90
2, 85684, Note_off_c, 0, 30, 64
2, 85714, Note_on_c, 0, 30, 90
2, 85770, Note_off_c, 0, 30, 64
2, 85796, Note_on_c, 0, 31, 90
2, 85849, Note_off_c, 0, 31, 64
2, 85876, Note_on_c, 0, 31, 90
2, 85939, Note_off_c, 0, 31, 64
2, 85958, Note_on_c, 0, 32, 90
2, 86000, Note_off_c, 0, 32, 64
2, 86040, Note_on_c, 0, 32, 90
2, 86100, Note_off_c, 0, 32, 64
2, 86121, Note_on_c, 0, 33, 90
2, 86303, Note_off_c, 0, 33, 64
2, 86362, Note_on_c, 0, 33, 90
2, 86419, Note_off_c, 0, 33, 64
2, 86445, Note_on_c, 0, 28, 90
2, 86503, Note_off_c, 0, 28, 64
2, 86528, Note_on_c, 0, 28, 90
2, 86588, Note_off_c, 0, 28, 64
2, 86606, Note_on_c, 0, 31, 90
2, 86659, Note_off_c, 0, 31, 64
2, 86687, Note_on_c, 0, 32, 90
2, 86740, Note_off_c, 0, 32, 64
2, 86770, Note_on_c, 0, 33, 90
2, 86914, Note_off_c, 0, 33, 64
2, 86931, Note_on_c, 0, 37, 90
2, 86977, Note_off_c, 0, 37, 64
2, 87012, Note_on_c, 0, 37, 90
2, 87084, Note_off_c, 0, 37, 64
2, 87093, Note_on_c, 0, 38, 90
2, 87133, Note_off_c, 0, 38, 64
2, 87174, Note_on_c, 0, 38, 90
2, 87232, Note_off_c, 0, 38, 64
2, 87255, Note_on_c, 0, 39, 90
2, 87301, Note_off_c, 0, 39, 64
2, 87339, Note_on_c, 0, 39, 90
2, 87394, Note_off_c, 0, 39, 64
2, 87419, Note_on_c, 0, 40, 90
2, 87589, Note_off_c, 0, 40, 64
2, 87660, Note_on_c, 0, 40, 90
2, 87729, Note_off_c, 0, 40, 64
2, 87742, Note_on_c, 0, 35, 90
2, 87782, Note_off_c, 0, 35, 64
2, 87823, Note_on_c, 0, 35, 90
2, 87899, Note_off_c, 0, 35, 64
2, 87907, Note_on_c, 0, 40, 90
2, 87985, Note_on_c, 0, 39, 90
2, 88000, Note_off_c, 0, 40, 64
2, 88047, Note_off_c, 0, 39, 64
2, 88067, Note_on_c, 0, 38, 90
2, 88249, Note_off_c, 0, 38, 64
2, 88309, Note_on_c, 0, 38, 90
2, 88375, Note_off_c, 0, 38, 64
2, 88390, Note_on_c, 0, 33, 90
2, 88435, Note_off_c, 0, 33, 64
2, 88470, Note_on_c, 0, 33, 90
2, 88536, Note_off_c, 0, 33, 64
2, 88554, Note_on_c, 0, 38, 90
2, 88605, Note_off_c, 0, 38, 64
2, 88637, Note_on_c, 0, 38, 90
2, 88685, Note_off_c, 0, 38, 64
2, 88716, Note_on_c, 0, 33, 90
2, 88889, Note_off_c, 0, 33, 64
2, 88959, Note_on_c, 0, 33, 90
2, 89015, Note_off_c, 0, 33, 64
2, 89041, Note_on_c, 0, 28, 90
2, 89090, Note_off_c, 0, 28, 64
2, 89122, Note_on_c, 0, 28, 90
2, 89184, Note_off_c, 0, 28, 64
2, 89203, Note_on_c, 0, 31, 90
2, 89263, Note_off_c, 0, 31, 64
2, 89284, Note_on_c, 0, 32, 90
2, 89358, Note_off_c, 0, 32, 64
2, 89366, Note_on_c, 0, 33, 90
2, 89505, Note_off_c, 0, 33, 64
2, 89527, Note_on_c, 0, 37, 90
2, 89573, Note_off_c, 0, 37, 64
2, 89609, Note_on_c, 0, 37, 90
2, 89686, Note_off_c, 0, 37, 64
2, 89690, Note_on_c, 0, 38, 90
2, 89730, Note_off_c, 0, 38, 64
2, 89771, Note_on_c, 0, 38, 90
2, 89831, Note_off_c, 0, 38, 64
2, 89852, Note_on_c, 0, 39, 90
2, 89892, Note_off_c, 0, 39, 64
2, 89935, Note_on_c, 0, 39, 90
2, 90015, Note_off_c, 0, 39, 64
2, 90015, Note_on_c, 0, 40, 90
2, 90209, Note_off_c, 0, 40, 64
2, 90257, Note_on_c, 0, 40, 90
2, 90318, Note_off_c, 0, 40, 64
2, 90339, Note_on_c, 0, 35, 90
2, 90390, Note_off_c, 0, 35, 64
2, 90420, Note_on_c, 0, 35, 90
2, 90495, Note_off_c, 0, 35, 64
2, 90501, Note_on_c, 0, 40, 90
2, 90573, Note_off_c, 0, 40, 64
2, 90581, Note_on_c, 0, 39, 90
2, 90657, Note_off_c, 0, 39, 64
2, 90663, Note_on_c, 0, 38, 90
2, 90846, Note_off_c, 0, 38, 64
2, 90906, Note_on_c, 0, 38, 90
2, 90977, Note_off_c, 0, 38, 64
2, 90988, Note_on_c, 0, 33, 90
2, 91036, Note_off_c, 0, 33, 64
2, 91070, Note_on_c, 0, 33, 90
2, 91147, Note_off_c, 0, 33, 64
2, 91152, Note_on_c, 0, 38, 90
2, 91207, Note_off_c, 0, 38, 64
2, 91233, Note_on_c, 0, 38, 90
2, 91289, Note_off_c, 0, 38, 64
2, 91313, Note_on_c, 0, 33, 90
2, 91508, Note_off_c, 0, 33, 64
2, 91556, Note_on_c, 0, 33, 90
2, 91617, Note_off_c, 0, 33, 64
2, 91637, Note_on_c, 0, 28, 90
2, 91686, Note_off_c, 0, 28, 64
2, 91718, Note_on_c, 0, 28, 90
2, 91765, Note_off_c, 0, 28, 64
2, 91799, Note_on_c, 0, 31, 90
2, 91881, Note_on_c, 0, 32, 90
2, 91889, Note_off_c, 0, 31, 64
2, 91962, Note_off_c, 0, 32, 64
2, 91962, Note_on_c, 0, 33, 90
2, 92103, Note_off_c, 0, 33, 64
2, 92124, Note_on_c, 0, 37, 90
2, 92173, Note_off_c, 0, 37, 64
2, 92204, Note_on_c, 0, 37, 90
2, 92286, Note_off_c, 0, 37, 64
2, 92286, Note_on_c, 0, 38, 90
2, 92333, Note_off_c, 0, 38, 64
2, 92367, Note_on_c, 0, 38, 90
2, 92431, Note_off_c, 0, 38, 64
2, 92448, Note_on_c, 0, 39, 90
2, 92488, Note_off_c, 0, 39, 64
2, 92531, Note_on_c, 0, 39, 90
2, 92597, Note_off_c, 0, 39, 64
2, 92611, Note_on_c, 0, 40, 90
2, 92786, Note_off_c, 0, 40, 64
2, 92854, Note_on_c, 0, 40, 90
2, 92932, Note_off_c, 0, 40, 64
2, 92935, Note_on_c, 0, 35, 90
2, 92981, Note_off_c, 0, 35, 64
2, 93016, Note_on_c, 0, 35, 90
2, 93087, Note_off_c, 0, 35, 64
2, 93097, Note_on_c, 0, 40, 90
2, 93180, Note_off_c, 0, 40, 64
2, 93180, Note_on_c, 0, 39, 90
2, 93251, Note_off_c, 0, 39, 64
2, 93262, Note_on_c, 0, 38, 90
2, 93326, Note_off_c, 0, 38, 64
2, 93991, Note_on_c, 0, 33, 90
2, 94064, Note_off_c, 0, 33, 64
2, 94071, Note_on_c, 0, 37, 90
2, 94147, Note_off_c, 0, 37, 64
2, 94152, Note_on_c, 0, 33, 90
2, 94230, Note_off_c, 0, 33, 64
2, 94234, Note_on_c, 0, 38, 90
2, 94310, Note_off_c, 0, 38, 64
2, 94315, Note_on_c, 0, 33, 90
2, 94391, Note_off_c, 0, 33, 64
2, 94395, Note_on_c, 0, 39, 90
2, 94472, Note_off_c, 0, 39, 64
2, 94477, Note_on_c, 0, 33, 90
2, 94558, Note_off_c, 0, 33, 64
2, 94558, Note_on_c, 0, 40, 90
2, 94720, Note_off_c, 0, 40, 64
2, 94720, Note_on_c, 0, 34, 90
2, 94804, Note_off_c, 0, 34, 64
2, 94805, Note_on_c, 0, 33, 90
2, 95716, Note_off_c, 0, 33, 64
2, 95860, Control_c, 0, 64, 0
2, 95860, End_track
3, 0, Start_track
3, 0, MIDI_port, 0
3, 0, Title_t, "ORGAN               "
3, 0, Program_c, 5, 16
3, 0, Control_c, 5, 7, 67
3, 1506, Note_on_c, 5, 64, 73
3, 1548, Note_off_c, 5, 64, 64
3, 1589, Note_on_c, 5, 66, 91
3, 1631, Note_off_c, 5, 66, 64
3, 1665, Note_on_c, 5, 69, 82
3, 1690, Note_off_c, 5, 69, 64
3, 1728, Pitch_bend_c, 5, 7808
3, 1730, Pitch_bend_c, 5, 7168
3, 1731, Pitch_bend_c, 5, 6784
3, 1734, Pitch_bend_c, 5, 6272
3, 1738, Pitch_bend_c, 5, 5760
3, 1740, Pitch_bend_c, 5, 5248
3, 1741, Pitch_bend_c, 5, 4736
3, 1743, Pitch_bend_c, 5, 4352
3, 1744, Pitch_bend_c, 5, 3968
3, 1748, Pitch_bend_c, 5, 3584
3, 1750, Pitch_bend_c, 5, 3200
3, 1751, Pitch_bend_c, 5, 3072
3, 1756, Pitch_bend_c, 5, 2944
3, 1762, Note_on_c, 5, 76, 100
3, 1763, Note_on_c, 5, 79, 91
3, 1785, Pitch_bend_c, 5, 3072
3, 1797, Pitch_bend_c, 5, 3200
3, 1803, Pitch_bend_c, 5, 3328
3, 1807, Pitch_bend_c, 5, 3456
3, 1809, Pitch_bend_c, 5, 3584
3, 1810, Pitch_bend_c, 5, 3840
3, 1812, Pitch_bend_c, 5, 3968
3, 1816, Pitch_bend_c, 5, 4096
3, 1817, Pitch_bend_c, 5, 4224
3, 1821, Pitch_bend_c, 5, 4352
3, 1823, Pitch_bend_c, 5, 4608
3, 1826, Pitch_bend_c, 5, 4864
3, 1826, Pitch_bend_c, 5, 4992
3, 1829, Pitch_bend_c, 5, 5120
3, 1831, Pitch_bend_c, 5, 5376
3, 1833, Pitch_bend_c, 5, 5504
3, 1837, Pitch_bend_c, 5, 5632
3, 1837, Pitch_bend_c, 5, 5760
3, 1839, Pitch_bend_c, 5, 6016
3, 1841, Pitch_bend_c, 5, 6144
3, 1843, Pitch_bend_c, 5, 6272
3, 1846, Pitch_bend_c, 5, 6400
3, 1848, Pitch_bend_c, 5, 6528
3, 1849, Pitch_bend_c, 5, 6784
3, 1851, Pitch_bend_c, 5, 6912
3, 1852, Pitch_bend_c, 5, 7168
3, 1856, Pitch_bend_c, 5, 7296
3, 1858, Pitch_bend_c, 5, 7552
3, 1859, Pitch_bend_c, 5, 7936
3, 1861, Pitch_bend_c, 5, 8192
3, 1880, Note_off_c, 5, 79, 64
3, 1884, Note_off_c, 5, 76, 64
3, 1907, Note_on_c, 5, 76, 91
3, 1910, Note_on_c, 5, 79, 91
3, 1962, Note_off_c, 5, 76, 64
3, 1965, Note_off_c, 5, 79, 64
3, 1988, Note_on_c, 5, 76, 91
3, 1992, Note_on_c, 5, 79, 82
3, 2045, Note_off_c, 5, 76, 64
3, 2045, Note_off_c, 5, 79, 64
3, 2069, Note_on_c, 5, 76, 82
3, 2069, Note_on_c, 5, 79, 82
3, 2125, Note_off_c, 5, 79, 64
3, 2127, Note_off_c, 5, 76, 64
3, 2150, Note_on_c, 5, 76, 82
3, 2150, Note_on_c, 5, 79, 73
3, 2206, Note_off_c, 5, 79, 64
3, 2207, Note_off_c, 5, 76, 64
3, 2237, Note_on_c, 5, 76, 91
3, 2238, Note_on_c, 5, 79, 73
3, 2277, Note_off_c, 5, 76, 64
3, 2283, Note_off_c, 5, 79, 64
3, 2306, Note_on_c, 5, 79, 73
3, 2306, Note_on_c, 5, 76, 91
3, 2348, Note_off_c, 5, 76, 64
3, 2349, Note_off_c, 5, 79, 64
3, 2379, Pitch_bend_c, 5, 7808
3, 2380, Pitch_bend_c, 5, 7168
3, 2384, Pitch_bend_c, 5, 6912
3, 2386, Pitch_bend_c, 5, 6656
3, 2388, Pitch_bend_c, 5, 6528
3, 2390, Pitch_bend_c, 5, 6400
3, 2392, Pitch_bend_c, 5, 6272
3, 2396, Pitch_bend_c, 5, 6144
3, 2397, Pitch_bend_c, 5, 6016
3, 2401, Pitch_bend_c, 5, 5888
3, 2406, Note_on_c, 5, 76, 91
3, 2408, Note_on_c, 5, 79, 91
3, 2409, Pitch_bend_c, 5, 5760
3, 2448, Pitch_bend_c, 5, 5888
3, 2452, Pitch_bend_c, 5, 6016
3, 2455, Pitch_bend_c, 5, 6144
3, 2456, Pitch_bend_c, 5, 6272
3, 2458, Pitch_bend_c, 5, 6400
3, 2460, Pitch_bend_c, 5, 6528
3, 2462, Pitch_bend_c, 5, 6656
3, 2465, Pitch_bend_c, 5, 6784
3, 2468, Pitch_bend_c, 5, 6912
3, 2473, Pitch_bend_c, 5, 7040
3, 2473, Pitch_bend_c, 5, 7296
3, 2475, Pitch_bend_c, 5, 7424
3, 2478, Pitch_bend_c, 5, 7552
3, 2478, Pitch_bend_c, 5, 7808
3, 2480, Pitch_bend_c, 5, 8064
3, 2485, Pitch_bend_c, 5, 8192
3, 2529, Note_off_c, 5, 79, 64
3, 2534, Note_off_c, 5, 76, 64
3, 2566, Note_on_c, 5, 76, 91
3, 2571, Note_on_c, 5, 79, 91
3, 2614, Note_off_c, 5, 76, 64
3, 2617, Note_off_c, 5, 79, 64
3, 2646, Note_on_c, 5, 76, 91
3, 2649, Note_on_c, 5, 79, 82
3, 2693, Note_off_c, 5, 79, 64
3, 2698, Note_off_c, 5, 76, 64
3, 2725, Note_on_c, 5, 76, 91
3, 2730, Note_on_c, 5, 79, 73
3, 2781, Note_off_c, 5, 76, 64
3, 2791, Note_off_c, 5, 79, 64
3, 2802, Note_on_c, 5, 74, 73
3, 2803, Note_on_c, 5, 78, 73
3, 2843, Note_off_c, 5, 74, 64
3, 2856, Note_off_c, 5, 78, 64
3, 2887, Note_on_c, 5, 76, 91
3, 2888, Note_on_c, 5, 73, 73
3, 2967, Note_off_c, 5, 76, 64
3, 2970, Note_off_c, 5, 73, 64
3, 2972, Note_on_c, 5, 69, 64
3, 2997, Note_off_c, 5, 69, 64
3, 3038, Pitch_bend_c, 5, 7680
3, 3041, Pitch_bend_c, 5, 6912
3, 3043, Pitch_bend_c, 5, 6144
3, 3045, Pitch_bend_c, 5, 5760
3, 3046, Pitch_bend_c, 5, 5248
3, 3048, Pitch_bend_c, 5, 4736
3, 3050, Pitch_bend_c, 5, 4352
3, 3052, Pitch_bend_c, 5, 3968
3, 3057, Pitch_bend_c, 5, 3456
3, 3058, Pitch_bend_c, 5, 3200
3, 3060, Pitch_bend_c, 5, 2944
3, 3062, Pitch_bend_c, 5, 2688
3, 3065, Pitch_bend_c, 5, 2560
3, 3065, Note_on_c, 5, 76, 91
3, 3068, Note_on_c, 5, 79, 82
3, 3085, Pitch_bend_c, 5, 2816
3, 3089, Pitch_bend_c, 5, 2944
3, 3094, Pitch_bend_c, 5, 3072
3, 3094, Pitch_bend_c, 5, 3328
3, 3095, Pitch_bend_c, 5, 3456
3, 3098, Pitch_bend_c, 5, 3584
3, 3101, Pitch_bend_c, 5, 3840
3, 3102, Pitch_bend_c, 5, 3968
3, 3103, Pitch_bend_c, 5, 4096
3, 3107, Pitch_bend_c, 5, 4224
3, 3108, Pitch_bend_c, 5, 4352
3, 3113, Pitch_bend_c, 5, 4480
3, 3114, Pitch_bend_c, 5, 4608
3, 3116, Pitch_bend_c, 5, 4736
3, 3117, Pitch_bend_c, 5, 4864
3, 3122, Pitch_bend_c, 5, 5120
3, 3124, Pitch_bend_c, 5, 5248
3, 3125, Pitch_bend_c, 5, 5376
3, 3129, Pitch_bend_c, 5, 5632
3, 3131, Pitch_bend_c, 5, 5760
3, 3134, Pitch_bend_c, 5, 5888
3, 3136, Pitch_bend_c, 5, 6016
3, 3141, Pitch_bend_c, 5, 6144
3, 3144, Pitch_bend_c, 5, 6400
3, 3149, Pitch_bend_c, 5, 6528
3, 3149, Pitch_bend_c, 5, 6784
3, 3149, Pitch_bend_c, 5, 7040
3, 3151, Pitch_bend_c, 5, 7296
3, 3152, Pitch_bend_c, 5, 7552
3, 3154, Pitch_bend_c, 5, 7936
3, 3157, Pitch_bend_c, 5, 8192
3, 3196, Note_off_c, 5, 79, 64
3, 3196, Note_off_c, 5, 76, 64
3, 3218, Note_on_c, 5, 76, 91
3, 3221, Note_on_c, 5, 79, 73
3, 3274, Note_off_c, 5, 76, 64
3, 3279, Note_off_c, 5, 79, 64
3, 3300, Note_on_c, 5, 76, 82
3, 3303, Note_on_c, 5, 79, 73
3, 3353, Note_off_c, 5, 76, 64
3, 3355, Note_off_c, 5, 79, 64
3, 3379, Note_on_c, 5, 76, 82
3, 3379, Note_on_c, 5, 79, 64
3, 3429, Note_off_c, 5, 76, 64
3, 3433, Note_off_c, 5, 79, 64
3, 3458, Note_on_c, 5, 79, 73
3, 3460, Note_on_c, 5, 76, 91
3, 3509, Note_off_c, 5, 76, 64
3, 3513, Note_off_c, 5, 79, 64
3, 3537, Note_on_c, 5, 76, 82
3, 3541, Note_on_c, 5, 79, 73
3, 3586, Note_off_c, 5, 76, 64
3, 3591, Note_off_c, 5, 79, 64
3, 3614, Note_on_c, 5, 79, 73
3, 3617, Note_on_c, 5, 76, 82
3, 3667, Note_off_c, 5, 76, 64
3, 3669, Note_off_c, 5, 79, 64
3, 3687, Pitch_bend_c, 5, 7680
3, 3689, Pitch_bend_c, 5, 7040
3, 3690, Pitch_bend_c, 5, 6656
3, 3693, Pitch_bend_c, 5, 6144
3, 3696, Pitch_bend_c, 5, 5888
3, 3697, Pitch_bend_c, 5, 5504
3, 3700, Pitch_bend_c, 5, 5248
3, 3703, Pitch_bend_c, 5, 5120
3, 3706, Pitch_bend_c, 5, 4864
3, 3710, Note_on_c, 5, 76, 91
3, 3711, Pitch_bend_c, 5, 4480
3, 3711, Note_on_c, 5, 79, 82
3, 3714, Pitch_bend_c, 5, 4352
3, 3725, Pitch_bend_c, 5, 4224
3, 3733, Pitch_bend_c, 5, 4096
3, 3741, Pitch_bend_c, 5, 3968
3, 3757, Pitch_bend_c, 5, 4096
3, 3760, Pitch_bend_c, 5, 4224
3, 3762, Pitch_bend_c, 5, 4480
3, 3765, Pitch_bend_c, 5, 4736
3, 3767, Pitch_bend_c, 5, 5120
3, 3769, Pitch_bend_c, 5, 5504
3, 3770, Pitch_bend_c, 5, 5888
3, 3772, Pitch_bend_c, 5, 6272
3, 3775, Pitch_bend_c, 5, 6784
3, 3777, Pitch_bend_c, 5, 7424
3, 3780, Pitch_bend_c, 5, 8192
3, 3833, Note_off_c, 5, 76, 64
3, 3849, Note_off_c, 5, 79, 64
3, 3868, Note_on_c, 5, 74, 91
3, 3869, Note_on_c, 5, 78, 82
3, 3962, Note_off_c, 5, 74, 64
3, 3972, Note_off_c, 5, 78, 64
3, 4030, Note_on_c, 5, 73, 91
3, 4031, Note_on_c, 5, 76, 91
3, 4184, Note_off_c, 5, 76, 64
3, 4190, Note_on_c, 5, 69, 82
3, 4197, Note_off_c, 5, 73, 64
3, 4311, Note_off_c, 5, 69, 64
3, 4511, Note_on_c, 5, 76, 82
3, 4511, Note_on_c, 5, 67, 100
3, 4514, Note_on_c, 5, 73, 100
3, 4537, Note_off_c, 5, 67, 64
3, 4537, Note_off_c, 5, 73, 64
3, 4538, Note_off_c, 5, 76, 64
3, 5160, Note_on_c, 5, 76, 100
3, 5160, Note_on_c, 5, 67, 100
3, 5162, Note_on_c, 5, 73, 100
3, 5192, Note_off_c, 5, 76, 64
3, 5192, Note_off_c, 5, 67, 64
3, 5192, Note_off_c, 5, 73, 64
3, 5809, Note_on_c, 5, 76, 100
3, 5809, Note_on_c, 5, 73, 100
3, 5812, Note_on_c, 5, 67, 91
3, 5840, Note_off_c, 5, 76, 64
3, 5842, Note_off_c, 5, 67, 64
3, 5843, Note_off_c, 5, 73, 64
3, 6459, Note_on_c, 5, 76, 100
3, 6459, Note_on_c, 5, 67, 100
3, 6464, Note_on_c, 5, 73, 100
3, 6489, Note_off_c, 5, 67, 64
3, 6490, Note_off_c, 5, 76, 64
3, 6495, Note_off_c, 5, 73, 64
3, 7108, Note_on_c, 5, 76, 100
3, 7108, Note_on_c, 5, 73, 91
3, 7110, Note_on_c, 5, 67, 91
3, 7134, Note_off_c, 5, 67, 64
3, 7135, Note_off_c, 5, 73, 64
3, 7138, Note_off_c, 5, 76, 64
3, 7757, Note_on_c, 5, 67, 91
3, 7757, Note_on_c, 5, 76, 100
3, 7760, Note_on_c, 5, 73, 100
3, 7786, Note_off_c, 5, 67, 64
3, 7789, Note_off_c, 5, 76, 64
3, 7791, Note_off_c, 5, 73, 64
3, 8406, Note_on_c, 5, 76, 91
3, 8406, Note_on_c, 5, 73, 100
3, 8408, Note_on_c, 5, 67, 100
3, 8438, Note_off_c, 5, 76, 64
3, 8438, Note_off_c, 5, 73, 64
3, 8440, Note_off_c, 5, 67, 64
3, 9055, Note_on_c, 5, 76, 100
3, 9055, Note_on_c, 5, 73, 100
3, 9057, Note_on_c, 5, 67, 100
3, 9086, Note_off_c, 5, 73, 64
3, 9086, Note_off_c, 5, 67, 64
3, 9089, Note_off_c, 5, 76, 64
3, 9714, Note_on_c, 5, 73, 100
3, 9714, Note_on_c, 5, 67, 100
3, 9716, Note_on_c, 5, 76, 100
3, 9744, Note_off_c, 5, 73, 64
3, 9744, Note_off_c, 5, 67, 64
3, 9745, Note_off_c, 5, 76, 64
3, 10362, Note_on_c, 5, 73, 100
3, 10363, Note_on_c, 5, 67, 91
3, 10365, Note_on_c, 5, 76, 91
3, 10392, Note_off_c, 5, 67, 64
3, 10394, Note_off_c, 5, 73, 64
3, 10396, Note_off_c, 5, 76, 64
3, 11007, Note_on_c, 5, 73, 91
3, 11008, Note_on_c, 5, 67, 91
3, 11011, Note_on_c, 5, 76, 100
3, 11037, Note_off_c, 5, 73, 64
3, 11038, Note_off_c, 5, 67, 64
3, 11038, Note_off_c, 5, 76, 64
3, 11664, Note_on_c, 5, 73, 100
3, 11664, Note_on_c, 5, 76, 91
3, 11667, Note_on_c, 5, 67, 91
3, 11695, Note_off_c, 5, 73, 64
3, 11697, Note_off_c, 5, 76, 64
3, 11698, Note_off_c, 5, 67, 64
3, 12306, Note_on_c, 5, 78, 100
3, 12306, Note_on_c, 5, 72, 100
3, 12308, Note_on_c, 5, 81, 91
3, 12336, Note_off_c, 5, 72, 64
3, 12338, Note_off_c, 5, 78, 64
3, 12340, Note_off_c, 5, 81, 64
3, 12958, Note_on_c, 5, 78, 100
3, 12959, Note_on_c, 5, 81, 91
3, 12961, Note_on_c, 5, 72, 91
3, 12989, Note_off_c, 5, 72, 64
3, 12993, Note_off_c, 5, 78, 64
3, 12993, Note_off_c, 5, 81, 64
3, 13609, Note_on_c, 5, 73, 100
3, 13611, Note_on_c, 5, 76, 100
3, 13611, Note_on_c, 5, 67, 100
3, 13637, Note_off_c, 5, 73, 64
3, 13637, Note_off_c, 5, 76, 64
3, 13637, Note_off_c, 5, 67, 64
3, 14259, Note_on_c, 5, 73, 100
3, 14262, Note_on_c, 5, 76, 91
3, 14263, Note_on_c, 5, 67, 100
3, 14298, Note_off_c, 5, 67, 64
3, 14299, Note_off_c, 5, 73, 64
3, 14300, Note_off_c, 5, 76, 64
3, 14896, Note_on_c, 5, 76, 82
3, 14907, Note_on_c, 5, 74, 91
3, 14908, Note_on_c, 5, 68, 100
3, 14942, Note_off_c, 5, 68, 64
3, 14946, Note_off_c, 5, 76, 64
3, 14950, Note_off_c, 5, 74, 64
3, 15545, Note_on_c, 5, 72, 100
3, 15545, Note_on_c, 5, 78, 100
3, 15545, Note_on_c, 5, 81, 100
3, 15578, Note_off_c, 5, 72, 64
3, 15578, Note_off_c, 5, 78, 64
3, 15581, Note_off_c, 5, 81, 64
3, 16198, Note_on_c, 5, 73, 100
3, 16200, Note_on_c, 5, 67, 100
3, 16200, Note_on_c, 5, 76, 100
3, 16229, Note_off_c, 5, 67, 64
3, 16231, Note_off_c, 5, 76, 64
3, 16233, Note_off_c, 5, 73, 64
3, 16854, Note_on_c, 5, 67, 100
3, 16856, Note_on_c, 5, 76, 91
3, 16857, Note_on_c, 5, 73, 100
3, 16882, Note_off_c, 5, 76, 64
3, 16882, Note_off_c, 5, 73, 64
3, 16884, Note_off_c, 5, 67, 64
3, 17501, Note_on_c, 5, 76, 91
3, 17505, Note_on_c, 5, 81, 82
3, 17506, Note_on_c, 5, 73, 91
3, 17569, Note_off_c, 5, 76, 64
3, 17578, Note_off_c, 5, 73, 64
3, 17581, Note_off_c, 5, 81, 64
3, 17663, Note_on_c, 5, 74, 91
3, 17664, Note_on_c, 5, 78, 91
3, 17664, Note_on_c, 5, 81, 82
3, 17730, Note_off_c, 5, 74, 64
3, 17746, Note_off_c, 5, 78, 64
3, 17750, Note_on_c, 5, 76, 82
3, 17754, Note_on_c, 5, 73, 82
3, 17793, Note_off_c, 5, 81, 64
3, 17798, Note_off_c, 5, 76, 64
3, 17802, Note_off_c, 5, 73, 64
3, 18153, Note_on_c, 5, 81, 82
3, 18153, Note_on_c, 5, 76, 100
3, 18155, Note_on_c, 5, 73, 100
3, 18260, Note_off_c, 5, 73, 64
3, 18266, Note_off_c, 5, 81, 64
3, 18268, Note_off_c, 5, 76, 64
3, 18313, Note_on_c, 5, 74, 100
3, 18314, Note_on_c, 5, 81, 91
3, 18316, Note_on_c, 5, 78, 91
3, 18378, Note_off_c, 5, 74, 64
3, 18390, Note_off_c, 5, 78, 64
3, 18392, Note_off_c, 5, 81, 64
3, 18396, Note_on_c, 5, 81, 44
3, 18401, Note_on_c, 5, 76, 82
3, 18404, Note_on_c, 5, 73, 91
3, 18436, Note_off_c, 5, 81, 64
3, 18443, Note_off_c, 5, 76, 64
3, 18446, Note_off_c, 5, 73, 64
3, 18802, Note_on_c, 5, 76, 91
3, 18802, Note_on_c, 5, 81, 91
3, 18803, Note_on_c, 5, 73, 100
3, 18893, Note_off_c, 5, 76, 64
3, 18898, Note_off_c, 5, 81, 64
3, 18901, Note_off_c, 5, 73, 64
3, 18957, Note_on_c, 5, 74, 91
3, 18957, Note_on_c, 5, 81, 91
3, 18957, Note_on_c, 5, 78, 82
3, 19018, Note_off_c, 5, 74, 64
3, 19028, Note_off_c, 5, 81, 64
3, 19030, Note_off_c, 5, 78, 64
3, 19045, Note_on_c, 5, 81, 73
3, 19045, Note_on_c, 5, 76, 91
3, 19047, Note_on_c, 5, 73, 82
3, 19078, Note_off_c, 5, 81, 64
3, 19078, Note_off_c, 5, 76, 64
3, 19078, Note_off_c, 5, 73, 64
3, 19448, Note_on_c, 5, 76, 100
3, 19450, Note_on_c, 5, 81, 73
3, 19451, Note_on_c, 5, 73, 100
3, 19551, Note_off_c, 5, 76, 64
3, 19554, Note_off_c, 5, 73, 64
3, 19556, Note_off_c, 5, 81, 64
3, 19604, Note_on_c, 5, 74, 91
3, 19604, Note_on_c, 5, 81, 82
3, 19604, Note_on_c, 5, 78, 91
3, 19671, Note_off_c, 5, 74, 64
3, 19686, Note_off_c, 5, 81, 64
3, 19686, Note_off_c, 5, 78, 64
3, 19691, Note_on_c, 5, 81, 64
3, 19694, Note_on_c, 5, 76, 82
3, 19697, Note_on_c, 5, 73, 91
3, 19724, Note_off_c, 5, 81, 64
3, 19726, Note_off_c, 5, 76, 64
3, 19726, Note_off_c, 5, 73, 64
3, 20098, Note_on_c, 5, 81, 82
3, 20100, Note_on_c, 5, 73, 100
3, 20102, Note_on_c, 5, 76, 100
3, 20200, Note_off_c, 5, 73, 64
3, 20200, Note_off_c, 5, 76, 64
3, 20202, Note_off_c, 5, 81, 64
3, 20255, Note_on_c, 5, 74, 100
3, 20257, Note_on_c, 5, 81, 91
3, 20260, Note_on_c, 5, 78, 91
3, 20320, Note_off_c, 5, 74, 64
3, 20329, Note_off_c, 5, 81, 64
3, 20329, Note_off_c, 5, 78, 64
3, 20340, Note_on_c, 5, 81, 64
3, 20342, Note_on_c, 5, 76, 82
3, 20345, Note_on_c, 5, 73, 100
3, 20374, Note_off_c, 5, 81, 64
3, 20379, Note_off_c, 5, 76, 64
3, 20380, Note_off_c, 5, 73, 64
3, 20747, Note_on_c, 5, 76, 100
3, 20747, Note_on_c, 5, 81, 82
3, 20749, Note_on_c, 5, 73, 100
3, 20849, Note_off_c, 5, 73, 64
3, 20850, Note_off_c, 5, 76, 64
3, 20857, Note_off_c, 5, 81, 64
3, 20901, Note_on_c, 5, 74, 91
3, 20903, Note_on_c, 5, 81, 82
3, 20903, Note_on_c, 5, 78, 82
3, 20965, Note_off_c, 5, 74, 64
3, 20979, Note_off_c, 5, 81, 64
3, 20984, Note_off_c, 5, 78, 64
3, 20989, Note_on_c, 5, 81, 73
3, 20995, Note_on_c, 5, 76, 91
3, 20996, Note_on_c, 5, 73, 91
3, 21019, Note_off_c, 5, 81, 64
3, 21023, Note_off_c, 5, 76, 64
3, 21025, Note_off_c, 5, 73, 64
3, 21395, Note_on_c, 5, 81, 91
3, 21395, Note_on_c, 5, 76, 91
3, 21397, Note_on_c, 5, 73, 100
3, 21496, Note_off_c, 5, 76, 64
3, 21498, Note_off_c, 5, 73, 64
3, 21506, Note_off_c, 5, 81, 64
3, 21554, Note_on_c, 5, 74, 91
3, 21555, Note_on_c, 5, 81, 82
3, 21556, Note_on_c, 5, 78, 82
3, 21611, Note_off_c, 5, 74, 64
3, 21631, Note_off_c, 5, 78, 64
3, 21638, Note_on_c, 5, 76, 82
3, 21640, Note_on_c, 5, 73, 100
3, 21665, Note_off_c, 5, 81, 64
3, 21667, Note_off_c, 5, 76, 64
3, 21672, Note_off_c, 5, 73, 64
3, 22048, Note_on_c, 5, 81, 82
3, 22051, Note_on_c, 5, 73, 100
3, 22051, Note_on_c, 5, 76, 91
3, 22149, Note_off_c, 5, 76, 64
3, 22150, Note_off_c, 5, 73, 64
3, 22156, Note_off_c, 5, 81, 64
3, 22201, Note_on_c, 5, 74, 73
3, 22203, Note_on_c, 5, 81, 73
3, 22203, Note_on_c, 5, 78, 82
3, 22258, Note_off_c, 5, 74, 64
3, 22277, Note_off_c, 5, 78, 64
3, 22287, Note_on_c, 5, 76, 91
3, 22293, Note_on_c, 5, 73, 100
3, 22319, Note_off_c, 5, 81, 64
3, 22327, Note_off_c, 5, 76, 64
3, 22334, Note_off_c, 5, 73, 64
3, 22693, Note_on_c, 5, 67, 100
3, 22693, Note_on_c, 5, 76, 100
3, 22694, Note_on_c, 5, 73, 100
3, 22717, Note_off_c, 5, 67, 64
3, 22717, Note_off_c, 5, 73, 64
3, 22718, Note_off_c, 5, 76, 64
3, 23339, Note_on_c, 5, 67, 100
3, 23343, Note_on_c, 5, 73, 109
3, 23345, Note_on_c, 5, 76, 91
3, 23368, Note_off_c, 5, 67, 64
3, 23368, Note_off_c, 5, 73, 64
3, 23368, Note_off_c, 5, 76, 64
3, 23983, Note_on_c, 5, 73, 100
3, 23985, Note_on_c, 5, 67, 100
3, 23985, Note_on_c, 5, 76, 100
3, 24009, Note_off_c, 5, 67, 64
3, 24014, Note_off_c, 5, 76, 64
3, 24018, Note_off_c, 5, 73, 64
3, 24639, Note_on_c, 5, 73, 109
3, 24641, Note_on_c, 5, 67, 100
3, 24643, Note_on_c, 5, 76, 91
3, 24668, Note_off_c, 5, 67, 64
3, 24673, Note_off_c, 5, 73, 64
3, 24673, Note_off_c, 5, 76, 64
3, 25287, Note_on_c, 5, 73, 109
3, 25289, Note_on_c, 5, 67, 109
3, 25290, Note_on_c, 5, 76, 100
3, 25316, Note_off_c, 5, 67, 64
3, 25317, Note_off_c, 5, 73, 64
3, 25317, Note_off_c, 5, 76, 64
3, 25930, Note_on_c, 5, 67, 100
3, 25932, Note_on_c, 5, 72, 100
3, 25934, Note_on_c, 5, 76, 100
3, 25961, Note_off_c, 5, 72, 64
3, 25963, Note_off_c, 5, 67, 64
3, 25963, Note_off_c, 5, 76, 64
3, 26581, Note_on_c, 5, 73, 100
3, 26581, Note_on_c, 5, 76, 100
3, 26581, Note_on_c, 5, 67, 91
3, 26604, Note_off_c, 5, 73, 64
3, 26604, Note_off_c, 5, 76, 64
3, 26607, Note_off_c, 5, 67, 64
3, 27231, Note_on_c, 5, 67, 100
3, 27234, Note_on_c, 5, 73, 100
3, 27234, Note_on_c, 5, 76, 100
3, 27270, Note_off_c, 5, 67, 64
3, 27270, Note_off_c, 5, 76, 64
3, 27271, Note_off_c, 5, 73, 64
3, 27872, Note_on_c, 5, 74, 91
3, 27874, Note_on_c, 5, 80, 91
3, 27874, Note_on_c, 5, 71, 82
3, 27901, Note_off_c, 5, 71, 64
3, 27902, Note_off_c, 5, 74, 64
3, 27906, Note_off_c, 5, 80, 64
3, 28523, Note_on_c, 5, 72, 91
3, 28523, Note_on_c, 5, 78, 100
3, 28527, Note_on_c, 5, 81, 100
3, 28553, Note_off_c, 5, 72, 64
3, 28557, Note_off_c, 5, 78, 64
3, 28557, Note_off_c, 5, 81, 64
3, 29172, Note_on_c, 5, 73, 100
3, 29176, Note_on_c, 5, 67, 100
3, 29176, Note_on_c, 5, 76, 109
3, 29200, Note_off_c, 5, 67, 64
3, 29201, Note_off_c, 5, 76, 64
3, 29206, Note_off_c, 5, 73, 64
3, 29824, Note_on_c, 5, 73, 109
3, 29828, Note_on_c, 5, 67, 109
3, 29829, Note_on_c, 5, 76, 109
3, 29850, Note_off_c, 5, 67, 64
3, 29852, Note_off_c, 5, 76, 64
3, 29854, Note_off_c, 5, 73, 64
3, 30480, Note_on_c, 5, 76, 91
3, 30483, Note_on_c, 5, 81, 82
3, 30485, Note_on_c, 5, 73, 91
3, 30548, Note_off_c, 5, 76, 64
3, 30556, Note_off_c, 5, 73, 64
3, 30559, Note_off_c, 5, 81, 64
3, 30642, Note_on_c, 5, 74, 91
3, 30644, Note_on_c, 5, 78, 91
3, 30644, Note_on_c, 5, 81, 82
3, 30710, Note_off_c, 5, 74, 64
3, 30724, Note_off_c, 5, 78, 64
3, 30727, Note_on_c, 5, 76, 82
3, 30733, Note_on_c, 5, 73, 82
3, 30771, Note_off_c, 5, 81, 64
3, 30777, Note_off_c, 5, 76, 64
3, 30780, Note_off_c, 5, 73, 64
3, 31132, Note_on_c, 5, 81, 82
3, 31132, Note_on_c, 5, 76, 100
3, 31134, Note_on_c, 5, 73, 100
3, 31238, Note_off_c, 5, 73, 64
3, 31245, Note_off_c, 5, 81, 64
3, 31246, Note_off_c, 5, 76, 64
3, 31292, Note_on_c, 5, 74, 100
3, 31293, Note_on_c, 5, 81, 91
3, 31294, Note_on_c, 5, 78, 91
3, 31356, Note_off_c, 5, 74, 64
3, 31369, Note_off_c, 5, 78, 64
3, 31372, Note_off_c, 5, 81, 64
3, 31376, Note_on_c, 5, 81, 44
3, 31380, Note_on_c, 5, 76, 82
3, 31384, Note_on_c, 5, 73, 91
3, 31415, Note_off_c, 5, 81, 64
3, 31422, Note_off_c, 5, 76, 64
3, 31425, Note_off_c, 5, 73, 64
3, 31781, Note_on_c, 5, 76, 91
3, 31781, Note_on_c, 5, 81, 91
3, 31783, Note_on_c, 5, 73, 100
3, 31872, Note_off_c, 5, 76, 64
3, 31877, Note_off_c, 5, 81, 64
3, 31881, Note_off_c, 5, 73, 64
3, 31935, Note_on_c, 5, 74, 91
3, 31935, Note_on_c, 5, 81, 91
3, 31935, Note_on_c, 5, 78, 82
3, 31998, Note_off_c, 5, 74, 64
3, 32008, Note_off_c, 5, 81, 64
3, 32011, Note_off_c, 5, 78, 64
3, 32023, Note_on_c, 5, 81, 73
3, 32023, Note_on_c, 5, 76, 91
3, 32026, Note_on_c, 5, 73, 82
3, 32057, Note_off_c, 5, 81, 64
3, 32057, Note_off_c, 5, 76, 64
3, 32057, Note_off_c, 5, 73, 64
3, 32423, Note_on_c, 5, 76, 100
3, 32425, Note_on_c, 5, 81, 73
3, 32425, Note_on_c, 5, 73, 100
3, 32526, Note_off_c, 5, 76, 64
3, 32529, Note_off_c, 5, 73, 64
3, 32531, Note_off_c, 5, 81, 64
3, 32580, Note_on_c, 5, 74, 91
3, 32580, Note_on_c, 5, 81, 82
3, 32580, Note_on_c, 5, 78, 91
3, 32648, Note_off_c, 5, 74, 64
3, 32661, Note_off_c, 5, 81, 64
3, 32661, Note_off_c, 5, 78, 64
3, 32667, Note_on_c, 5, 81, 64
3, 32670, Note_on_c, 5, 76, 82
3, 32673, Note_on_c, 5, 73, 91
3, 32700, Note_off_c, 5, 81, 64
3, 32701, Note_off_c, 5, 76, 64
3, 32701, Note_off_c, 5, 73, 64
3, 33077, Note_on_c, 5, 81, 82
3, 33079, Note_on_c, 5, 73, 100
3, 33081, Note_on_c, 5, 76, 100
3, 33179, Note_off_c, 5, 76, 64
3, 33180, Note_off_c, 5, 73, 64
3, 33182, Note_off_c, 5, 81, 64
3, 33231, Note_on_c, 5, 74, 100
3, 33237, Note_on_c, 5, 81, 91
3, 33238, Note_on_c, 5, 78, 91
3, 33299, Note_off_c, 5, 74, 64
3, 33309, Note_off_c, 5, 81, 64
3, 33309, Note_off_c, 5, 78, 64
3, 33319, Note_on_c, 5, 81, 64
3, 33321, Note_on_c, 5, 76, 82
3, 33324, Note_on_c, 5, 73, 100
3, 33352, Note_off_c, 5, 81, 64
3, 33358, Note_off_c, 5, 76, 64
3, 33359, Note_off_c, 5, 73, 64
3, 33727, Note_on_c, 5, 76, 100
3, 33727, Note_on_c, 5, 81, 82
3, 33729, Note_on_c, 5, 73, 100
3, 33828, Note_off_c, 5, 73, 64
3, 33829, Note_off_c, 5, 76, 64
3, 33836, Note_off_c, 5, 81, 64
3, 33880, Note_on_c, 5, 74, 91
3, 33882, Note_on_c, 5, 81, 82
3, 33882, Note_on_c, 5, 78, 82
3, 33945, Note_off_c, 5, 74, 64
3, 33961, Note_off_c, 5, 81, 64
3, 33968, Note_on_c, 5, 81, 73
3, 33974, Note_on_c, 5, 76, 91
3, 33975, Note_on_c, 5, 73, 91
3, 33998, Note_off_c, 5, 81, 64
3, 34001, Note_off_c, 5, 76, 64
3, 34004, Note_off_c, 5, 73, 64
3, 34374, Note_on_c, 5, 81, 91
3, 34374, Note_on_c, 5, 76, 91
3, 34376, Note_on_c, 5, 73, 100
3, 34475, Note_off_c, 5, 76, 64
3, 34476, Note_off_c, 5, 73, 64
3, 34483, Note_off_c, 5, 81, 64
3, 34532, Note_on_c, 5, 74, 91
3, 34533, Note_on_c, 5, 81, 82
3, 34590, Note_off_c, 5, 74, 64
3, 34611, Note_off_c, 5, 78, 64
3, 34617, Note_on_c, 5, 76, 82
3, 34619, Note_on_c, 5, 73, 100
3, 34644, Note_off_c, 5, 81, 64
3, 34645, Note_off_c, 5, 76, 64
3, 34650, Note_off_c, 5, 73, 64
3, 35026, Note_on_c, 5, 81, 82
3, 35029, Note_on_c, 5, 73, 100
3, 35030, Note_on_c, 5, 76, 91
3, 35127, Note_off_c, 5, 76, 64
3, 35129, Note_off_c, 5, 73, 64
3, 35134, Note_off_c, 5, 81, 64
3, 35180, Note_on_c, 5, 74, 73
3, 35180, Note_on_c, 5, 81, 73
3, 35182, Note_on_c, 5, 78, 82
3, 35237, Note_off_c, 5, 74, 64
3, 35256, Note_off_c, 5, 78, 64
3, 35266, Note_on_c, 5, 76, 91
3, 35271, Note_on_c, 5, 73, 100
3, 35299, Note_off_c, 5, 81, 64
3, 35307, Note_off_c, 5, 76, 64
3, 35313, Note_off_c, 5, 73, 64
3, 35672, Note_on_c, 5, 67, 100
3, 35672, Note_on_c, 5, 76, 100
3, 35672, Note_on_c, 5, 73, 100
3, 35695, Note_off_c, 5, 67, 64
3, 35695, Note_off_c, 5, 73, 64
3, 35697, Note_off_c, 5, 76, 64
3, 36319, Note_on_c, 5, 67, 100
3, 36323, Note_on_c, 5, 73, 109
3, 36324, Note_on_c, 5, 76, 91
3, 36348, Note_off_c, 5, 67, 64
3, 36348, Note_off_c, 5, 73, 64
3, 36348, Note_off_c, 5, 76, 64
3, 36962, Note_on_c, 5, 73, 100
3, 36963, Note_on_c, 5, 67, 100
3, 36963, Note_on_c, 5, 76, 100
3, 36988, Note_off_c, 5, 67, 64
3, 36993, Note_off_c, 5, 76, 64
3, 36996, Note_off_c, 5, 73, 64
3, 37621, Note_on_c, 5, 73, 109
3, 37622, Note_on_c, 5, 67, 100
3, 37624, Note_on_c, 5, 76, 91
3, 37650, Note_off_c, 5, 67, 64
3, 37654, Note_off_c, 5, 76, 64
3, 37654, Note_off_c, 5, 73, 64
3, 38266, Note_on_c, 5, 73, 109
3, 38268, Note_on_c, 5, 67, 109
3, 38270, Note_on_c, 5, 76, 100
3, 38295, Note_off_c, 5, 67, 64
3, 38296, Note_off_c, 5, 73, 64
3, 38296, Note_off_c, 5, 76, 64
3, 38910, Note_on_c, 5, 67, 100
3, 38914, Note_on_c, 5, 72, 100
3, 38914, Note_on_c, 5, 76, 100
3, 38941, Note_off_c, 5, 72, 64
3, 38942, Note_off_c, 5, 67, 64
3, 38942, Note_off_c, 5, 76, 64
3, 39557, Note_on_c, 5, 73, 100
3, 39559, Note_on_c, 5, 76, 100
3, 39559, Note_on_c, 5, 67, 91
3, 39581, Note_off_c, 5, 73, 64
3, 39581, Note_off_c, 5, 76, 64
3, 39585, Note_off_c, 5, 67, 64
3, 40212, Note_on_c, 5, 67, 100
3, 40214, Note_on_c, 5, 73, 100
3, 40214, Note_on_c, 5, 76, 100
3, 40248, Note_off_c, 5, 76, 64
3, 40250, Note_off_c, 5, 67, 64
3, 40250, Note_off_c, 5, 73, 64
3, 40852, Note_on_c, 5, 74, 91
3, 40854, Note_on_c, 5, 80, 91
3, 40854, Note_on_c, 5, 71, 82
3, 40880, Note_off_c, 5, 71, 64
3, 40882, Note_off_c, 5, 74, 64
3, 40885, Note_off_c, 5, 80, 64
3, 41505, Note_on_c, 5, 72, 91
3, 41505, Note_on_c, 5, 78, 100
3, 41505, Note_on_c, 5, 81, 100
3, 41533, Note_off_c, 5, 72, 64
3, 41537, Note_off_c, 5, 78, 64
3, 41537, Note_off_c, 5, 81, 64
3, 42151, Note_on_c, 5, 73, 100
3, 42155, Note_on_c, 5, 67, 100
3, 42155, Note_on_c, 5, 76, 109
3, 42180, Note_off_c, 5, 67, 64
3, 42181, Note_off_c, 5, 76, 64
3, 42184, Note_off_c, 5, 73, 64
3, 42804, Note_on_c, 5, 73, 109
3, 42809, Note_on_c, 5, 67, 109
3, 42809, Note_on_c, 5, 76, 109
3, 42831, Note_off_c, 5, 67, 64
3, 42833, Note_off_c, 5, 76, 64
3, 42834, Note_off_c, 5, 73, 64
3, 43459, Note_on_c, 5, 76, 91
3, 43463, Note_on_c, 5, 81, 82
3, 43465, Note_on_c, 5, 73, 91
3, 43527, Note_off_c, 5, 76, 64
3, 43535, Note_off_c, 5, 73, 64
3, 43538, Note_off_c, 5, 81, 64
3, 43622, Note_on_c, 5, 74, 91
3, 43624, Note_on_c, 5, 78, 91
3, 43624, Note_on_c, 5, 81, 82
3, 43689, Note_off_c, 5, 74, 64
3, 43704, Note_off_c, 5, 78, 64
3, 43709, Note_on_c, 5, 76, 82
3, 43713, Note_on_c, 5, 73, 82
3, 43752, Note_off_c, 5, 81, 64
3, 43757, Note_off_c, 5, 76, 64
3, 43760, Note_off_c, 5, 73, 64
3, 44112, Note_on_c, 5, 81, 82
3, 44112, Note_on_c, 5, 76, 100
3, 44114, Note_on_c, 5, 73, 100
3, 44218, Note_off_c, 5, 73, 64
3, 44225, Note_off_c, 5, 81, 64
3, 44227, Note_off_c, 5, 76, 64
3, 44271, Note_on_c, 5, 74, 100
3, 44273, Note_on_c, 5, 81, 91
3, 44276, Note_on_c, 5, 78, 91
3, 44336, Note_off_c, 5, 74, 64
3, 44349, Note_off_c, 5, 78, 64
3, 44352, Note_off_c, 5, 81, 64
3, 44356, Note_on_c, 5, 81, 44
3, 44361, Note_on_c, 5, 76, 82
3, 44364, Note_on_c, 5, 73, 91
3, 44396, Note_off_c, 5, 81, 64
3, 44402, Note_off_c, 5, 76, 64
3, 44406, Note_off_c, 5, 73, 64
3, 44761, Note_on_c, 5, 76, 91
3, 44761, Note_on_c, 5, 81, 91
3, 44763, Note_on_c, 5, 73, 100
3, 44852, Note_off_c, 5, 76, 64
3, 44857, Note_off_c, 5, 81, 64
3, 44860, Note_off_c, 5, 73, 64
3, 44916, Note_on_c, 5, 74, 91
3, 44917, Note_on_c, 5, 81, 91
3, 44917, Note_on_c, 5, 78, 82
3, 44977, Note_off_c, 5, 74, 64
3, 44988, Note_off_c, 5, 81, 64
3, 44989, Note_off_c, 5, 78, 64
3, 45003, Note_on_c, 5, 81, 73
3, 45003, Note_on_c, 5, 76, 91
3, 45006, Note_on_c, 5, 73, 82
3, 45037, Note_off_c, 5, 81, 64
3, 45037, Note_off_c, 5, 76, 64
3, 45037, Note_off_c, 5, 73, 64
3, 45407, Note_on_c, 5, 76, 100
3, 45409, Note_on_c, 5, 81, 73
3, 45409, Note_on_c, 5, 73, 100
3, 45509, Note_off_c, 5, 76, 64
3, 45513, Note_off_c, 5, 73, 64
3, 45515, Note_off_c, 5, 81, 64
3, 45564, Note_on_c, 5, 74, 91
3, 45564, Note_on_c, 5, 81, 82
3, 45564, Note_on_c, 5, 78, 91
3, 45631, Note_off_c, 5, 74, 64
3, 45645, Note_off_c, 5, 81, 64
3, 45645, Note_off_c, 5, 78, 64
3, 45652, Note_on_c, 5, 81, 64
3, 45654, Note_on_c, 5, 76, 82
3, 45657, Note_on_c, 5, 73, 91
3, 45684, Note_off_c, 5, 81, 64
3, 45685, Note_off_c, 5, 76, 64
3, 45685, Note_off_c, 5, 73, 64
3, 46057, Note_on_c, 5, 81, 82
3, 46059, Note_on_c, 5, 73, 100
3, 46061, Note_on_c, 5, 76, 100
3, 46158, Note_off_c, 5, 76, 64
3, 46160, Note_off_c, 5, 73, 64
3, 46162, Note_off_c, 5, 81, 64
3, 46213, Note_on_c, 5, 74, 100
3, 46217, Note_on_c, 5, 81, 91
3, 46218, Note_on_c, 5, 78, 91
3, 46279, Note_off_c, 5, 74, 64
3, 46289, Note_off_c, 5, 81, 64
3, 46289, Note_off_c, 5, 78, 64
3, 46299, Note_on_c, 5, 81, 64
3, 46301, Note_on_c, 5, 76, 82
3, 46304, Note_on_c, 5, 73, 100
3, 46333, Note_off_c, 5, 81, 64
3, 46338, Note_off_c, 5, 76, 64
3, 46339, Note_off_c, 5, 73, 64
3, 46707, Note_on_c, 5, 76, 100
3, 46707, Note_on_c, 5, 81, 82
3, 46708, Note_on_c, 5, 73, 100
3, 46808, Note_off_c, 5, 73, 64
3, 46809, Note_off_c, 5, 76, 64
3, 46816, Note_off_c, 5, 81, 64
3, 46859, Note_on_c, 5, 74, 91
3, 46862, Note_on_c, 5, 81, 82
3, 46862, Note_on_c, 5, 78, 82
3, 46924, Note_off_c, 5, 74, 64
3, 46939, Note_off_c, 5, 81, 64
3, 46942, Note_off_c, 5, 78, 64
3, 46948, Note_on_c, 5, 81, 73
3, 46953, Note_on_c, 5, 76, 91
3, 46954, Note_on_c, 5, 73, 91
3, 46978, Note_off_c, 5, 81, 64
3, 46981, Note_off_c, 5, 76, 64
3, 46982, Note_off_c, 5, 73, 64
3, 47353, Note_on_c, 5, 81, 91
3, 47353, Note_on_c, 5, 76, 91
3, 47355, Note_on_c, 5, 73, 100
3, 47454, Note_off_c, 5, 76, 64
3, 47455, Note_off_c, 5, 73, 64
3, 47462, Note_off_c, 5, 81, 64
3, 47511, Note_on_c, 5, 74, 91
3, 47511, Note_on_c, 5, 81, 82
3, 47512, Note_on_c, 5, 78, 82
3, 47570, Note_off_c, 5, 74, 64
3, 47590, Note_off_c, 5, 78, 64
3, 47597, Note_on_c, 5, 76, 82
3, 47599, Note_on_c, 5, 73, 100
3, 47624, Note_off_c, 5, 81, 64
3, 47626, Note_off_c, 5, 76, 64
3, 47631, Note_off_c, 5, 73, 64
3, 48008, Note_on_c, 5, 81, 82
3, 48009, Note_on_c, 5, 73, 100
3, 48009, Note_on_c, 5, 76, 91
3, 48107, Note_off_c, 5, 76, 64
3, 48109, Note_off_c, 5, 73, 64
3, 48114, Note_off_c, 5, 81, 64
3, 48160, Note_on_c, 5, 74, 73
3, 48163, Note_on_c, 5, 81, 73
3, 48163, Note_on_c, 5, 78, 82
3, 48217, Note_off_c, 5, 74, 64
3, 48236, Note_off_c, 5, 78, 64
3, 48246, Note_on_c, 5, 76, 91
3, 48251, Note_on_c, 5, 73, 100
3, 48278, Note_off_c, 5, 81, 64
3, 48286, Note_off_c, 5, 76, 64
3, 48293, Note_off_c, 5, 73, 64
3, 48651, Note_on_c, 5, 67, 100
3, 48651, Note_on_c, 5, 76, 100
3, 48651, Note_on_c, 5, 73, 100
3, 48674, Note_off_c, 5, 67, 64
3, 48674, Note_off_c, 5, 73, 64
3, 48677, Note_off_c, 5, 76, 64
3, 49299, Note_on_c, 5, 67, 100
3, 49303, Note_on_c, 5, 73, 109
3, 49304, Note_on_c, 5, 76, 91
3, 49327, Note_off_c, 5, 67, 64
3, 49327, Note_off_c, 5, 73, 64
3, 49327, Note_off_c, 5, 76, 64
3, 49943, Note_on_c, 5, 73, 100
3, 49943, Note_on_c, 5, 67, 100
3, 49943, Note_on_c, 5, 76, 100
3, 49968, Note_off_c, 5, 67, 64
3, 49973, Note_off_c, 5, 76, 64
3, 49976, Note_off_c, 5, 73, 64
3, 50601, Note_on_c, 5, 73, 109
3, 50602, Note_on_c, 5, 67, 100
3, 50604, Note_on_c, 5, 76, 91
3, 50628, Note_off_c, 5, 67, 64
3, 50634, Note_off_c, 5, 73, 64
3, 50634, Note_off_c, 5, 76, 64
3, 51246, Note_on_c, 5, 73, 109
3, 51247, Note_on_c, 5, 67, 109
3, 51250, Note_on_c, 5, 76, 100
3, 51274, Note_off_c, 5, 67, 64
3, 51276, Note_off_c, 5, 73, 64
3, 51276, Note_off_c, 5, 76, 64
3, 51889, Note_on_c, 5, 67, 100
3, 51892, Note_on_c, 5, 72, 100
3, 51892, Note_on_c, 5, 76, 100
3, 51920, Note_off_c, 5, 72, 64
3, 51921, Note_off_c, 5, 67, 64
3, 51921, Note_off_c, 5, 76, 64
3, 52538, Note_on_c, 5, 73, 100
3, 52538, Note_on_c, 5, 76, 100
3, 52538, Note_on_c, 5, 67, 91
3, 52562, Note_off_c, 5, 73, 64
3, 52562, Note_off_c, 5, 76, 64
3, 52565, Note_off_c, 5, 67, 64
3, 53190, Note_on_c, 5, 67, 100
3, 53194, Note_on_c, 5, 73, 100
3, 53194, Note_on_c, 5, 76, 100
3, 53227, Note_off_c, 5, 76, 64
3, 53229, Note_off_c, 5, 67, 64
3, 53229, Note_off_c, 5, 73, 64
3, 53831, Note_on_c, 5, 74, 91
3, 53833, Note_on_c, 5, 80, 91
3, 53833, Note_on_c, 5, 71, 82
3, 53860, Note_off_c, 5, 71, 64
3, 53862, Note_off_c, 5, 74, 64
3, 53865, Note_off_c, 5, 80, 64
3, 54483, Note_on_c, 5, 72, 91
3, 54483, Note_on_c, 5, 78, 100
3, 54483, Note_on_c, 5, 81, 100
3, 54513, Note_off_c, 5, 72, 64
3, 54516, Note_off_c, 5, 78, 64
3, 54516, Note_off_c, 5, 81, 64
3, 55132, Note_on_c, 5, 73, 100
3, 55135, Note_on_c, 5, 67, 100
3, 55135, Note_on_c, 5, 76, 109
3, 55160, Note_off_c, 5, 67, 64
3, 55162, Note_off_c, 5, 76, 64
3, 55164, Note_off_c, 5, 73, 64
3, 55783, Note_on_c, 5, 73, 109
3, 55789, Note_on_c, 5, 67, 109
3, 55789, Note_on_c, 5, 76, 109
3, 55812, Note_off_c, 5, 67, 64
3, 55813, Note_off_c, 5, 73, 64
3, 55813, Note_off_c, 5, 76, 64
3, 56392, Pitch_bend_c, 5, 7936
3, 56397, Pitch_bend_c, 5, 7552
3, 56397, Pitch_bend_c, 5, 7168
3, 56399, Pitch_bend_c, 5, 6912
3, 56400, Pitch_bend_c, 5, 6656
3, 56402, Pitch_bend_c, 5, 6400
3, 56406, Pitch_bend_c, 5, 6272
3, 56408, Pitch_bend_c, 5, 6144
3, 56408, Pitch_bend_c, 5, 5888
3, 56411, Pitch_bend_c, 5, 5632
3, 56412, Pitch_bend_c, 5, 5504
3, 56416, Pitch_bend_c, 5, 5248
3, 56418, Pitch_bend_c, 5, 5120
3, 56419, Pitch_bend_c, 5, 4992
3, 56421, Pitch_bend_c, 5, 4736
3, 56426, Pitch_bend_c, 5, 4608
3, 56426, Pitch_bend_c, 5, 4352
3, 56426, Pitch_bend_c, 5, 4224
3, 56430, Pitch_bend_c, 5, 4096
3, 56430, Pitch_bend_c, 5, 3968
3, 56436, Pitch_bend_c, 5, 3840
3, 56440, Pitch_bend_c, 5, 3584
3, 56441, Pitch_bend_c, 5, 3456
3, 56442, Note_on_c, 5, 88, 100
3, 56442, Note_on_c, 5, 91, 91
3, 56445, Pitch_bend_c, 5, 3328
3, 56473, Pitch_bend_c, 5, 3456
3, 56475, Pitch_bend_c, 5, 3712
3, 56476, Pitch_bend_c, 5, 3840
3, 56480, Pitch_bend_c, 5, 3968
3, 56482, Pitch_bend_c, 5, 4224
3, 56484, Pitch_bend_c, 5, 4608
3, 56485, Pitch_bend_c, 5, 4864
3, 56487, Pitch_bend_c, 5, 5248
3, 56490, Pitch_bend_c, 5, 5504
3, 56492, Pitch_bend_c, 5, 5888
3, 56494, Pitch_bend_c, 5, 6016
3, 56495, Pitch_bend_c, 5, 6144
3, 56498, Pitch_bend_c, 5, 6400
3, 56499, Pitch_bend_c, 5, 6528
3, 56502, Pitch_bend_c, 5, 6656
3, 56505, Pitch_bend_c, 5, 6784
3, 56505, Pitch_bend_c, 5, 6912
3, 56508, Pitch_bend_c, 5, 7040
3, 56510, Note_off_c, 5, 88, 64
3, 56510, Note_off_c, 5, 91, 64
3, 56510, Pitch_bend_c, 5, 7168
3, 56516, Pitch_bend_c, 5, 7424
3, 56519, Pitch_bend_c, 5, 7552
3, 56523, Pitch_bend_c, 5, 7808
3, 56525, Pitch_bend_c, 5, 7936
3, 56527, Pitch_bend_c, 5, 8064
3, 56529, Note_on_c, 5, 88, 73
3, 56532, Pitch_bend_c, 5, 8192
3, 56533, Note_on_c, 5, 91, 73
3, 56588, Note_off_c, 5, 88, 64
3, 56588, Note_off_c, 5, 91, 64
3, 56607, Note_on_c, 5, 88, 82
3, 56608, Note_on_c, 5, 91, 73
3, 56661, Note_off_c, 5, 88, 64
3, 56665, Note_off_c, 5, 91, 64
3, 56687, Note_on_c, 5, 91, 64
3, 56687, Note_on_c, 5, 88, 73
3, 56736, Note_off_c, 5, 88, 64
3, 56741, Note_off_c, 5, 91, 64
3, 56821, Pitch_bend_c, 5, 7936
3, 56824, Pitch_bend_c, 5, 7552
3, 56824, Pitch_bend_c, 5, 7168
3, 56828, Pitch_bend_c, 5, 7040
3, 56829, Pitch_bend_c, 5, 6656
3, 56831, Pitch_bend_c, 5, 6528
3, 56833, Pitch_bend_c, 5, 6272
3, 56835, Pitch_bend_c, 5, 6144
3, 56835, Pitch_bend_c, 5, 5888
3, 56840, Pitch_bend_c, 5, 5632
3, 56843, Pitch_bend_c, 5, 5376
3, 56846, Pitch_bend_c, 5, 5120
3, 56848, Pitch_bend_c, 5, 4992
3, 56851, Pitch_bend_c, 5, 4864
3, 56852, Pitch_bend_c, 5, 4608
3, 56852, Pitch_bend_c, 5, 4352
3, 56855, Pitch_bend_c, 5, 4224
3, 56856, Pitch_bend_c, 5, 4096
3, 56858, Pitch_bend_c, 5, 3968
3, 56863, Pitch_bend_c, 5, 3840
3, 56866, Pitch_bend_c, 5, 3584
3, 56869, Pitch_bend_c, 5, 3456
3, 56873, Pitch_bend_c, 5, 3328
3, 56876, Pitch_bend_c, 5, 3200
3, 56879, Pitch_bend_c, 5, 3072
3, 56885, Pitch_bend_c, 5, 2944
3, 56888, Pitch_bend_c, 5, 2816
3, 56892, Pitch_bend_c, 5, 2688
3, 56900, Pitch_bend_c, 5, 2560
3, 56907, Pitch_bend_c, 5, 2432
3, 56914, Note_on_c, 5, 88, 100
3, 56914, Note_on_c, 5, 91, 91
3, 56945, Pitch_bend_c, 5, 2560
3, 56949, Pitch_bend_c, 5, 2688
3, 56951, Pitch_bend_c, 5, 2816
3, 56952, Pitch_bend_c, 5, 3072
3, 56956, Pitch_bend_c, 5, 3328
3, 56960, Pitch_bend_c, 5, 3584
3, 56961, Pitch_bend_c, 5, 3840
3, 56962, Pitch_bend_c, 5, 4096
3, 56964, Pitch_bend_c, 5, 4352
3, 56968, Pitch_bend_c, 5, 4736
3, 56968, Pitch_bend_c, 5, 4864
3, 56972, Pitch_bend_c, 5, 4992
3, 56973, Pitch_bend_c, 5, 5248
3, 56975, Pitch_bend_c, 5, 5376
3, 56976, Pitch_bend_c, 5, 5504
3, 56978, Pitch_bend_c, 5, 5632
3, 56982, Pitch_bend_c, 5, 5760
3, 56983, Pitch_bend_c, 5, 5888
3, 56987, Note_off_c, 5, 91, 64
3, 56987, Pitch_bend_c, 5, 6144
3, 56992, Note_off_c, 5, 88, 64
3, 56992, Pitch_bend_c, 5, 6272
3, 56994, Pitch_bend_c, 5, 6400
3, 56995, Pitch_bend_c, 5, 6528
3, 56997, Pitch_bend_c, 5, 6656
3, 57001, Pitch_bend_c, 5, 6912
3, 57002, Pitch_bend_c, 5, 7040
3, 57005, Pitch_bend_c, 5, 7168
3, 57008, Pitch_bend_c, 5, 7552
3, 57014, Pitch_bend_c, 5, 8064
3, 57014, Note_on_c, 5, 88, 73
3, 57014, Note_on_c, 5, 91, 73
3, 57015, Pitch_bend_c, 5, 8192
3, 57066, Note_off_c, 5, 88, 64
3, 57068, Note_off_c, 5, 91, 64
3, 57088, Note_on_c, 5, 88, 82
3, 57090, Note_on_c, 5, 91, 82
3, 57137, Note_off_c, 5, 91, 64
3, 57138, Note_off_c, 5, 88, 64
3, 57163, Note_on_c, 5, 88, 91
3, 57167, Note_on_c, 5, 91, 82
3, 57214, Note_off_c, 5, 91, 64
3, 57218, Note_off_c, 5, 88, 64
3, 57331, Note_on_c, 5, 88, 82
3, 57331, Note_on_c, 5, 91, 82
3, 57332, Note_off_c, 5, 88, 64
3, 57332, Note_off_c, 5, 91, 64
3, 57401, Note_on_c, 5, 86, 73
3, 57406, Note_on_c, 5, 90, 60
3, 57446, Note_off_c, 5, 86, 64
3, 57448, Note_off_c, 5, 90, 64
3, 57534, Pitch_bend_c, 5, 8064
3, 57535, Pitch_bend_c, 5, 7936
3, 57538, Pitch_bend_c, 5, 7808
3, 57538, Pitch_bend_c, 5, 7680
3, 57541, Pitch_bend_c, 5, 7552
3, 57542, Pitch_bend_c, 5, 7424
3, 57545, Pitch_bend_c, 5, 7168
3, 57548, Pitch_bend_c, 5, 7040
3, 57549, Pitch_bend_c, 5, 6912
3, 57554, Pitch_bend_c, 5, 6784
3, 57554, Pitch_bend_c, 5, 6656
3, 57555, Pitch_bend_c, 5, 6400
3, 57557, Pitch_bend_c, 5, 6272
3, 57561, Pitch_bend_c, 5, 6144
3, 57561, Pitch_bend_c, 5, 6016
3, 57562, Pitch_bend_c, 5, 5888
3, 57564, Pitch_bend_c, 5, 5632
3, 57564, Pitch_bend_c, 5, 5504
3, 57571, Pitch_bend_c, 5, 5376
3, 57574, Pitch_bend_c, 5, 5248
3, 57575, Pitch_bend_c, 5, 5120
3, 57578, Pitch_bend_c, 5, 4992
3, 57579, Pitch_bend_c, 5, 4864
3, 57581, Pitch_bend_c, 5, 4608
3, 57583, Pitch_bend_c, 5, 4480
3, 57588, Pitch_bend_c, 5, 4352
3, 57588, Pitch_bend_c, 5, 4224
3, 57590, Pitch_bend_c, 5, 4096
3, 57593, Pitch_bend_c, 5, 3968
3, 57597, Pitch_bend_c, 5, 3840
3, 57601, Pitch_bend_c, 5, 3584
3, 57601, Pitch_bend_c, 5, 3456
3, 57601, Pitch_bend_c, 5, 3328
3, 57607, Pitch_bend_c, 5, 3072
3, 57610, Pitch_bend_c, 5, 2944
3, 57613, Pitch_bend_c, 5, 2816
3, 57617, Pitch_bend_c, 5, 2688
3, 57620, Pitch_bend_c, 5, 2560
3, 57624, Pitch_bend_c, 5, 2432
3, 57628, Pitch_bend_c, 5, 2304
3, 57637, Pitch_bend_c, 5, 2176
3, 57644, Note_on_c, 5, 88, 91
3, 57645, Note_on_c, 5, 91, 91
3, 57664, Pitch_bend_c, 5, 2304
3, 57664, Pitch_bend_c, 5, 2432
3, 57667, Pitch_bend_c, 5, 2560
3, 57669, Pitch_bend_c, 5, 2688
3, 57670, Pitch_bend_c, 5, 2816
3, 57673, Pitch_bend_c, 5, 2944
3, 57676, Pitch_bend_c, 5, 3072
3, 57677, Pitch_bend_c, 5, 3200
3, 57680, Pitch_bend_c, 5, 3328
3, 57682, Pitch_bend_c, 5, 3456
3, 57683, Pitch_bend_c, 5, 3584
3, 57684, Pitch_bend_c, 5, 3712
3, 57689, Pitch_bend_c, 5, 3968
3, 57693, Pitch_bend_c, 5, 4096
3, 57697, Pitch_bend_c, 5, 4224
3, 57701, Pitch_bend_c, 5, 4352
3, 57704, Pitch_bend_c, 5, 4608
3, 57710, Note_off_c, 5, 91, 64
3, 57710, Pitch_bend_c, 5, 4736
3, 57712, Note_off_c, 5, 88, 64
3, 57715, Pitch_bend_c, 5, 4864
3, 57716, Pitch_bend_c, 5, 4992
3, 57720, Pitch_bend_c, 5, 5120
3, 57723, Pitch_bend_c, 5, 5248
3, 57727, Pitch_bend_c, 5, 5376
3, 57733, Pitch_bend_c, 5, 5504
3, 57738, Pitch_bend_c, 5, 5760
3, 57738, Note_on_c, 5, 88, 82
3, 57738, Note_on_c, 5, 91, 82
3, 57740, Pitch_bend_c, 5, 5888
3, 57743, Pitch_bend_c, 5, 6016
3, 57752, Pitch_bend_c, 5, 6144
3, 57760, Pitch_bend_c, 5, 6272
3, 57765, Pitch_bend_c, 5, 6400
3, 57772, Pitch_bend_c, 5, 6528
3, 57777, Pitch_bend_c, 5, 6656
3, 57779, Pitch_bend_c, 5, 6784
3, 57782, Pitch_bend_c, 5, 6912
3, 57784, Pitch_bend_c, 5, 7040
3, 57789, Pitch_bend_c, 5, 7168
3, 57789, Pitch_bend_c, 5, 7424
3, 57790, Pitch_bend_c, 5, 7552
3, 57793, Note_off_c, 5, 88, 64
3, 57793, Pitch_bend_c, 5, 7808
3, 57797, Note_off_c, 5, 91, 64
3, 57797, Pitch_bend_c, 5, 7936
3, 57797, Pitch_bend_c, 5, 8192
3, 57818, Note_on_c, 5, 88, 73
3, 57819, Note_on_c, 5, 91, 73
3, 57875, Note_off_c, 5, 88, 64
3, 57876, Note_off_c, 5, 91, 64
3, 57896, Note_on_c, 5, 88, 91
3, 57897, Note_on_c, 5, 91, 82
3, 57951, Note_off_c, 5, 91, 64
3, 57952, Note_off_c, 5, 88, 64
3, 57976, Note_on_c, 5, 88, 91
3, 57978, Note_on_c, 5, 91, 82
3, 58035, Note_off_c, 5, 91, 64
3, 58037, Note_off_c, 5, 88, 64
3, 58072, Pitch_bend_c, 5, 7936
3, 58073, Pitch_bend_c, 5, 7680
3, 58074, Pitch_bend_c, 5, 7296
3, 58078, Pitch_bend_c, 5, 7040
3, 58081, Pitch_bend_c, 5, 6784
3, 58083, Pitch_bend_c, 5, 6400
3, 58084, Pitch_bend_c, 5, 6144
3, 58087, Pitch_bend_c, 5, 6016
3, 58088, Pitch_bend_c, 5, 5632
3, 58090, Pitch_bend_c, 5, 5376
3, 58093, Pitch_bend_c, 5, 5120
3, 58094, Pitch_bend_c, 5, 4864
3, 58098, Pitch_bend_c, 5, 4480
3, 58100, Pitch_bend_c, 5, 4352
3, 58101, Pitch_bend_c, 5, 4096
3, 58103, Pitch_bend_c, 5, 3840
3, 58106, Pitch_bend_c, 5, 3712
3, 58108, Pitch_bend_c, 5, 3456
3, 58110, Pitch_bend_c, 5, 3328
3, 58113, Pitch_bend_c, 5, 3200
3, 58115, Pitch_bend_c, 5, 3072
3, 58117, Pitch_bend_c, 5, 2944
3, 58120, Pitch_bend_c, 5, 2816
3, 58121, Pitch_bend_c, 5, 2688
3, 58125, Pitch_bend_c, 5, 2560
3, 58135, Note_on_c, 5, 88, 100
3, 58137, Pitch_bend_c, 5, 2432
3, 58139, Note_on_c, 5, 91, 91
3, 58157, Pitch_bend_c, 5, 2560
3, 58162, Pitch_bend_c, 5, 2688
3, 58164, Pitch_bend_c, 5, 2816
3, 58167, Pitch_bend_c, 5, 2944
3, 58169, Pitch_bend_c, 5, 3072
3, 58169, Pitch_bend_c, 5, 3200
3, 58174, Pitch_bend_c, 5, 3328
3, 58177, Pitch_bend_c, 5, 3584
3, 58179, Pitch_bend_c, 5, 3712
3, 58183, Pitch_bend_c, 5, 3840
3, 58184, Pitch_bend_c, 5, 3968
3, 58189, Pitch_bend_c, 5, 4096
3, 58190, Pitch_bend_c, 5, 4352
3, 58196, Note_off_c, 5, 91, 64
3, 58197, Note_off_c, 5, 88, 64
3, 58197, Pitch_bend_c, 5, 4608
3, 58200, Pitch_bend_c, 5, 4736
3, 58203, Pitch_bend_c, 5, 4864
3, 58204, Pitch_bend_c, 5, 4992
3, 58204, Pitch_bend_c, 5, 5120
3, 58207, Pitch_bend_c, 5, 5248
3, 58209, Pitch_bend_c, 5, 5504
3, 58211, Pitch_bend_c, 5, 5632
3, 58215, Pitch_bend_c, 5, 5760
3, 58215, Pitch_bend_c, 5, 5888
3, 58215, Pitch_bend_c, 5, 6016
3, 58222, Note_on_c, 5, 88, 82
3, 58223, Pitch_bend_c, 5, 6272
3, 58223, Note_on_c, 5, 91, 73
3, 58227, Pitch_bend_c, 5, 6400
3, 58228, Pitch_bend_c, 5, 6528
3, 58229, Pitch_bend_c, 5, 6656
3, 58231, Pitch_bend_c, 5, 6784
3, 58237, Pitch_bend_c, 5, 6912
3, 58243, Pitch_bend_c, 5, 7040
3, 58251, Pitch_bend_c, 5, 7168
3, 58251, Pitch_bend_c, 5, 7296
3, 58256, Pitch_bend_c, 5, 7424
3, 58262, Pitch_bend_c, 5, 7680
3, 58263, Pitch_bend_c, 5, 7808
3, 58266, Pitch_bend_c, 5, 7936
3, 58269, Pitch_bend_c, 5, 8064
3, 58270, Pitch_bend_c, 5, 8192
3, 58276, Note_off_c, 5, 88, 64
3, 58277, Note_off_c, 5, 91, 64
3, 58303, Note_on_c, 5, 88, 73
3, 58306, Note_on_c, 5, 91, 73
3, 58355, Note_off_c, 5, 88, 64
3, 58355, Note_off_c, 5, 91, 64
3, 58375, Note_on_c, 5, 88, 82
3, 58383, Note_on_c, 5, 91, 82
3, 58427, Note_off_c, 5, 91, 64
3, 58429, Note_off_c, 5, 88, 64
3, 58455, Note_on_c, 5, 88, 82
3, 58459, Note_on_c, 5, 91, 73
3, 58507, Note_off_c, 5, 91, 64
3, 58511, Note_off_c, 5, 88, 64
3, 58543, Note_on_c, 5, 88, 82
3, 58545, Note_on_c, 5, 91, 82
3, 58595, Note_off_c, 5, 91, 64
3, 58596, Note_off_c, 5, 88, 64
3, 58617, Note_on_c, 5, 88, 73
3, 58618, Note_on_c, 5, 91, 73
3, 58667, Note_off_c, 5, 88, 64
3, 58675, Note_off_c, 5, 91, 64
3, 58690, Note_on_c, 5, 86, 91
3, 58694, Note_on_c, 5, 90, 73
3, 58743, Note_off_c, 5, 90, 64
3, 58745, Note_off_c, 5, 86, 64
3, 58948, Note_on_c, 5, 81, 100
3, 59000, Note_off_c, 5, 81, 64
3, 59038, Note_on_c, 5, 79, 100
3, 59056, Pitch_bend_c, 5, 8452
3, 59056, Pitch_bend_c, 5, 8712
3, 59058, Pitch_bend_c, 5, 8972
3, 59059, Pitch_bend_c, 5, 9362
3, 59061, Pitch_bend_c, 5, 9622
3, 59063, Pitch_bend_c, 5, 9882
3, 59066, Pitch_bend_c, 5, 10142
3, 59066, Pitch_bend_c, 5, 10402
3, 59070, Pitch_bend_c, 5, 10662
3, 59073, Pitch_bend_c, 5, 10922
3, 59074, Pitch_bend_c, 5, 11182
3, 59076, Pitch_bend_c, 5, 11442
3, 59080, Pitch_bend_c, 5, 11702
3, 59080, Pitch_bend_c, 5, 11962
3, 59081, Pitch_bend_c, 5, 12222
3, 59083, Pitch_bend_c, 5, 12482
3, 59087, Pitch_bend_c, 5, 12612
3, 59090, Pitch_bend_c, 5, 12872
3, 59091, Pitch_bend_c, 5, 13132
3, 59093, Pitch_bend_c, 5, 13392
3, 59095, Pitch_bend_c, 5, 13652
3, 59097, Pitch_bend_c, 5, 13782
3, 59098, Pitch_bend_c, 5, 14042
3, 59100, Pitch_bend_c, 5, 14302
3, 59104, Pitch_bend_c, 5, 14562
3, 59105, Pitch_bend_c, 5, 14822
3, 59105, Pitch_bend_c, 5, 14952
3, 59111, Pitch_bend_c, 5, 15212
3, 59111, Pitch_bend_c, 5, 15342
3, 59114, Pitch_bend_c, 5, 15602
3, 59115, Pitch_bend_c, 5, 15732
3, 59117, Pitch_bend_c, 5, 15862
3, 59121, Pitch_bend_c, 5, 15992
3, 59124, Pitch_bend_c, 5, 16122
3, 59125, Pitch_bend_c, 5, 16252
3, 59127, Pitch_bend_c, 5, 16382
3, 59139, Note_off_c, 5, 79, 64
3, 59176, Pitch_bend_c, 5, 15992
3, 59177, Pitch_bend_c, 5, 14172
3, 59179, Pitch_bend_c, 5, 11052
3, 59181, Pitch_bend_c, 5, 8192
3, 59183, Pitch_bend_c, 5, 8064
3, 59185, Pitch_bend_c, 5, 6656
3, 59192, Pitch_bend_c, 5, 8192
3, 59194, Note_on_c, 5, 81, 91
3, 59250, Note_off_c, 5, 81, 64
3, 59283, Note_on_c, 5, 79, 91
3, 59293, Pitch_bend_c, 5, 8322
3, 59294, Pitch_bend_c, 5, 8712
3, 59299, Pitch_bend_c, 5, 8972
3, 59303, Pitch_bend_c, 5, 9362
3, 59305, Pitch_bend_c, 5, 9622
3, 59305, Pitch_bend_c, 5, 9882
3, 59305, Pitch_bend_c, 5, 10142
3, 59306, Pitch_bend_c, 5, 10532
3, 59309, Pitch_bend_c, 5, 10792
3, 59313, Pitch_bend_c, 5, 10922
3, 59313, Pitch_bend_c, 5, 11182
3, 59316, Pitch_bend_c, 5, 11442
3, 59317, Pitch_bend_c, 5, 11702
3, 59319, Pitch_bend_c, 5, 11832
3, 59322, Pitch_bend_c, 5, 12092
3, 59323, Pitch_bend_c, 5, 12352
3, 59326, Pitch_bend_c, 5, 12482
3, 59327, Pitch_bend_c, 5, 12742
3, 59329, Pitch_bend_c, 5, 12872
3, 59333, Pitch_bend_c, 5, 13132
3, 59333, Pitch_bend_c, 5, 13392
3, 59335, Pitch_bend_c, 5, 13522
3, 59339, Pitch_bend_c, 5, 13652
3, 59341, Pitch_bend_c, 5, 13912
3, 59342, Pitch_bend_c, 5, 14042
3, 59344, Pitch_bend_c, 5, 14302
3, 59345, Pitch_bend_c, 5, 14432
3, 59346, Pitch_bend_c, 5, 14692
3, 59346, Pitch_bend_c, 5, 14822
3, 59352, Pitch_bend_c, 5, 14952
3, 59353, Pitch_bend_c, 5, 15212
3, 59357, Pitch_bend_c, 5, 15342
3, 59359, Pitch_bend_c, 5, 15472
3, 59361, Pitch_bend_c, 5, 15602
3, 59362, Pitch_bend_c, 5, 15732
3, 59366, Pitch_bend_c, 5, 15862
3, 59367, Note_off_c, 5, 79, 64
3, 59369, Pitch_bend_c, 5, 15992
3, 59372, Pitch_bend_c, 5, 16122
3, 59386, Pitch_bend_c, 5, 15732
3, 59386, Pitch_bend_c, 5, 14692
3, 59389, Pitch_bend_c, 5, 12482
3, 59389, Pitch_bend_c, 5, 8192
3, 59394, Pitch_bend_c, 5, 7936
3, 59396, Pitch_bend_c, 5, 7040
3, 59399, Pitch_bend_c, 5, 8192
3, 59426, Note_on_c, 5, 81, 100
3, 59487, Note_off_c, 5, 81, 64
3, 59520, Pitch_bend_c, 5, 8842
3, 59520, Note_on_c, 5, 79, 82
3, 59522, Pitch_bend_c, 5, 9232
3, 59524, Pitch_bend_c, 5, 9622
3, 59525, Pitch_bend_c, 5, 10012
3, 59527, Pitch_bend_c, 5, 10402
3, 59528, Pitch_bend_c, 5, 10792
3, 59532, Pitch_bend_c, 5, 11182
3, 59535, Pitch_bend_c, 5, 11572
3, 59537, Pitch_bend_c, 5, 11832
3, 59538, Pitch_bend_c, 5, 12222
3, 59540, Pitch_bend_c, 5, 12352
3, 59544, Pitch_bend_c, 5, 12742
3, 59545, Pitch_bend_c, 5, 13002
3, 59547, Pitch_bend_c, 5, 13262
3, 59548, Pitch_bend_c, 5, 13392
3, 59551, Pitch_bend_c, 5, 13652
3, 59553, Pitch_bend_c, 5, 13912
3, 59555, Pitch_bend_c, 5, 14172
3, 59558, Pitch_bend_c, 5, 14432
3, 59560, Pitch_bend_c, 5, 14562
3, 59561, Pitch_bend_c, 5, 14692
3, 59565, Pitch_bend_c, 5, 14952
3, 59567, Pitch_bend_c, 5, 15212
3, 59568, Pitch_bend_c, 5, 15342
3, 59571, Pitch_bend_c, 5, 15602
3, 59574, Pitch_bend_c, 5, 15862
3, 59575, Pitch_bend_c, 5, 16122
3, 59578, Pitch_bend_c, 5, 16252
3, 59581, Pitch_bend_c, 5, 16382
3, 59596, Note_off_c, 5, 79, 64
3, 59616, Pitch_bend_c, 5, 15472
3, 59616, Pitch_bend_c, 5, 13392
3, 59617, Pitch_bend_c, 5, 9232
3, 59621, Pitch_bend_c, 5, 8192
3, 59624, Pitch_bend_c, 5, 7168
3, 59624, Pitch_bend_c, 5, 6400
3, 59626, Pitch_bend_c, 5, 7168
3, 59627, Pitch_bend_c, 5, 8192
3, 59670, Note_on_c, 5, 81, 91
3, 59733, Note_off_c, 5, 81, 64
3, 59763, Note_on_c, 5, 79, 91
3, 59768, Pitch_bend_c, 5, 8452
3, 59770, Pitch_bend_c, 5, 8972
3, 59777, Pitch_bend_c, 5, 9622
3, 59778, Pitch_bend_c, 5, 10272
3, 59780, Pitch_bend_c, 5, 10792
3, 59780, Pitch_bend_c, 5, 11442
3, 59781, Pitch_bend_c, 5, 11832
3, 59783, Pitch_bend_c, 5, 12352
3, 59786, Pitch_bend_c, 5, 12612
3, 59788, Pitch_bend_c, 5, 13002
3, 59788, Pitch_bend_c, 5, 13262
3, 59790, Pitch_bend_c, 5, 13652
3, 59793, Pitch_bend_c, 5, 13912
3, 59795, Pitch_bend_c, 5, 14302
3, 59798, Pitch_bend_c, 5, 14562
3, 59798, Pitch_bend_c, 5, 14822
3, 59802, Pitch_bend_c, 5, 15082
3, 59803, Pitch_bend_c, 5, 15342
3, 59809, Pitch_bend_c, 5, 15602
3, 59809, Pitch_bend_c, 5, 15862
3, 59810, Pitch_bend_c, 5, 16122
3, 59812, Pitch_bend_c, 5, 16252
3, 59815, Pitch_bend_c, 5, 16382
3, 59834, Note_off_c, 5, 79, 64
3, 59843, Pitch_bend_c, 5, 15472
3, 59845, Pitch_bend_c, 5, 12612
3, 59846, Pitch_bend_c, 5, 8192
3, 59849, Pitch_bend_c, 5, 7296
3, 59855, Pitch_bend_c, 5, 6528
3, 59855, Pitch_bend_c, 5, 8064
3, 59856, Pitch_bend_c, 5, 8192
3, 59912, Note_on_c, 5, 81, 100
3, 59950, Note_off_c, 5, 81, 64
3, 60004, Note_on_c, 5, 75, 100
3, 60021, Note_on_c, 5, 74, 91
3, 60025, Note_off_c, 5, 75, 64
3, 60053, Note_on_c, 5, 72, 91
3, 60064, Note_off_c, 5, 74, 64
3, 60137, Note_off_c, 5, 72, 64
3, 60240, Note_on_c, 5, 81, 100
3, 60288, Note_off_c, 5, 81, 64
3, 60338, Note_on_c, 5, 79, 100
3, 60361, Pitch_bend_c, 5, 8452
3, 60364, Pitch_bend_c, 5, 8842
3, 60368, Pitch_bend_c, 5, 9102
3, 60368, Pitch_bend_c, 5, 9622
3, 60371, Pitch_bend_c, 5, 10012
3, 60372, Pitch_bend_c, 5, 10402
3, 60374, Pitch_bend_c, 5, 10792
3, 60378, Pitch_bend_c, 5, 11312
3, 60379, Pitch_bend_c, 5, 11702
3, 60381, Pitch_bend_c, 5, 11962
3, 60382, Pitch_bend_c, 5, 12352
3, 60384, Pitch_bend_c, 5, 12612
3, 60387, Pitch_bend_c, 5, 12872
3, 60389, Pitch_bend_c, 5, 13132
3, 60394, Pitch_bend_c, 5, 13392
3, 60394, Pitch_bend_c, 5, 13652
3, 60394, Pitch_bend_c, 5, 13912
3, 60398, Pitch_bend_c, 5, 14172
3, 60400, Pitch_bend_c, 5, 14562
3, 60402, Pitch_bend_c, 5, 14822
3, 60406, Pitch_bend_c, 5, 15082
3, 60406, Pitch_bend_c, 5, 15342
3, 60408, Pitch_bend_c, 5, 15732
3, 60410, Pitch_bend_c, 5, 15862
3, 60413, Pitch_bend_c, 5, 16122
3, 60415, Pitch_bend_c, 5, 16252
3, 60418, Pitch_bend_c, 5, 16382
3, 60423, Note_off_c, 5, 79, 64
3, 60447, Pitch_bend_c, 5, 15472
3, 60448, Pitch_bend_c, 5, 14172
3, 60452, Pitch_bend_c, 5, 11832
3, 60454, Pitch_bend_c, 5, 8192
3, 60458, Pitch_bend_c, 5, 7168
3, 60460, Pitch_bend_c, 5, 7680
3, 60462, Pitch_bend_c, 5, 8192
3, 60488, Note_on_c, 5, 81, 100
3, 60538, Note_off_c, 5, 81, 64
3, 60581, Note_on_c, 5, 79, 91
3, 60597, Pitch_bend_c, 5, 8712
3, 60599, Pitch_bend_c, 5, 9232
3, 60601, Pitch_bend_c, 5, 9752
3, 60602, Pitch_bend_c, 5, 10402
3, 60604, Pitch_bend_c, 5, 11052
3, 60607, Pitch_bend_c, 5, 11442
3, 60609, Pitch_bend_c, 5, 11832
3, 60612, Pitch_bend_c, 5, 12352
3, 60614, Pitch_bend_c, 5, 12742
3, 60616, Pitch_bend_c, 5, 13262
3, 60619, Pitch_bend_c, 5, 13652
3, 60621, Pitch_bend_c, 5, 14042
3, 60622, Pitch_bend_c, 5, 14302
3, 60624, Pitch_bend_c, 5, 14692
3, 60626, Pitch_bend_c, 5, 14952
3, 60627, Pitch_bend_c, 5, 15342
3, 60631, Pitch_bend_c, 5, 15602
3, 60634, Pitch_bend_c, 5, 15862
3, 60636, Pitch_bend_c, 5, 16122
3, 60641, Pitch_bend_c, 5, 16382
3, 60653, Note_off_c, 5, 79, 64
3, 60674, Pitch_bend_c, 5, 15992
3, 60677, Pitch_bend_c, 5, 13652
3, 60678, Pitch_bend_c, 5, 8192
3, 60682, Pitch_bend_c, 5, 6784
3, 60685, Pitch_bend_c, 5, 5888
3, 60685, Pitch_bend_c, 5, 6912
3, 60688, Pitch_bend_c, 5, 8192
3, 60724, Note_on_c, 5, 81, 91
3, 60778, Note_off_c, 5, 81, 64
3, 60819, Note_on_c, 5, 79, 100
3, 60851, Pitch_bend_c, 5, 8582
3, 60854, Pitch_bend_c, 5, 8972
3, 60856, Pitch_bend_c, 5, 9492
3, 60858, Pitch_bend_c, 5, 10142
3, 60861, Pitch_bend_c, 5, 10662
3, 60861, Pitch_bend_c, 5, 11182
3, 60864, Pitch_bend_c, 5, 11572
3, 60866, Pitch_bend_c, 5, 11962
3, 60868, Pitch_bend_c, 5, 12352
3, 60870, Pitch_bend_c, 5, 12742
3, 60873, Pitch_bend_c, 5, 13132
3, 60873, Pitch_bend_c, 5, 13522
3, 60877, Pitch_bend_c, 5, 13782
3, 60879, Pitch_bend_c, 5, 14172
3, 60882, Pitch_bend_c, 5, 14432
3, 60883, Pitch_bend_c, 5, 14692
3, 60887, Pitch_bend_c, 5, 14952
3, 60889, Pitch_bend_c, 5, 15342
3, 60892, Pitch_bend_c, 5, 15602
3, 60892, Pitch_bend_c, 5, 15992
3, 60897, Pitch_bend_c, 5, 16252
3, 60900, Pitch_bend_c, 5, 16382
3, 60903, Note_off_c, 5, 79, 64
3, 60929, Pitch_bend_c, 5, 16122
3, 60932, Pitch_bend_c, 5, 14562
3, 60935, Pitch_bend_c, 5, 10792
3, 60937, Pitch_bend_c, 5, 8192
3, 60939, Pitch_bend_c, 5, 7936
3, 60941, Pitch_bend_c, 5, 6656
3, 60942, Pitch_bend_c, 5, 6784
3, 60945, Pitch_bend_c, 5, 8192
3, 60978, Note_on_c, 5, 81, 82
3, 61030, Note_off_c, 5, 81, 64
3, 61071, Note_on_c, 5, 79, 109
3, 61081, Pitch_bend_c, 5, 8452
3, 61083, Pitch_bend_c, 5, 9102
3, 61086, Pitch_bend_c, 5, 9752
3, 61088, Pitch_bend_c, 5, 10662
3, 61091, Pitch_bend_c, 5, 11572
3, 61091, Pitch_bend_c, 5, 12222
3, 61094, Pitch_bend_c, 5, 12872
3, 61096, Pitch_bend_c, 5, 13262
3, 61097, Pitch_bend_c, 5, 13652
3, 61101, Pitch_bend_c, 5, 13912
3, 61103, Pitch_bend_c, 5, 14302
3, 61104, Pitch_bend_c, 5, 14692
3, 61108, Pitch_bend_c, 5, 14952
3, 61110, Pitch_bend_c, 5, 15342
3, 61111, Pitch_bend_c, 5, 15602
3, 61114, Pitch_bend_c, 5, 15992
3, 61117, Pitch_bend_c, 5, 16252
3, 61118, Pitch_bend_c, 5, 16382
3, 61131, Note_off_c, 5, 79, 64
3, 61155, Pitch_bend_c, 5, 14952
3, 61160, Pitch_bend_c, 5, 12482
3, 61163, Pitch_bend_c, 5, 8192
3, 61164, Pitch_bend_c, 5, 6912
3, 61167, Pitch_bend_c, 5, 6400
3, 61168, Pitch_bend_c, 5, 8064
3, 61170, Pitch_bend_c, 5, 8192
3, 61222, Note_on_c, 5, 81, 100
3, 61268, Note_off_c, 5, 81, 64
3, 61303, Note_on_c, 5, 81, 91
3, 61346, Note_off_c, 5, 81, 64
3, 61382, Note_on_c, 5, 81, 82
3, 61419, Note_off_c, 5, 81, 64
3, 61547, Note_on_c, 5, 88, 100
3, 61548, Note_on_c, 5, 93, 91
3, 61588, Note_off_c, 5, 88, 64
3, 61596, Note_off_c, 5, 93, 64
3, 61626, Note_on_c, 5, 88, 82
3, 61628, Note_on_c, 5, 93, 73
3, 61667, Note_off_c, 5, 88, 64
3, 61672, Note_off_c, 5, 93, 64
3, 61703, Note_on_c, 5, 88, 91
3, 61706, Note_on_c, 5, 93, 82
3, 61744, Note_off_c, 5, 88, 64
3, 61748, Note_off_c, 5, 93, 64
3, 61780, Note_on_c, 5, 88, 91
3, 61780, Note_on_c, 5, 93, 82
3, 61823, Note_off_c, 5, 88, 64
3, 61827, Note_off_c, 5, 93, 64
3, 61856, Note_on_c, 5, 88, 91
3, 61858, Note_on_c, 5, 93, 73
3, 61909, Note_off_c, 5, 88, 64
3, 61912, Note_off_c, 5, 93, 64
3, 62015, Pitch_bend_c, 5, 8064
3, 62015, Pitch_bend_c, 5, 7552
3, 62018, Pitch_bend_c, 5, 7040
3, 62021, Pitch_bend_c, 5, 6656
3, 62024, Pitch_bend_c, 5, 6144
3, 62024, Pitch_bend_c, 5, 5760
3, 62025, Pitch_bend_c, 5, 5248
3, 62025, Pitch_bend_c, 5, 4736
3, 62035, Pitch_bend_c, 5, 4352
3, 62035, Pitch_bend_c, 5, 3712
3, 62037, Pitch_bend_c, 5, 3456
3, 62038, Pitch_bend_c, 5, 3072
3, 62039, Pitch_bend_c, 5, 2816
3, 62042, Pitch_bend_c, 5, 2560
3, 62043, Pitch_bend_c, 5, 2432
3, 62047, Pitch_bend_c, 5, 2304
3, 62048, Pitch_bend_c, 5, 2176
3, 62054, Pitch_bend_c, 5, 2048
3, 62068, Pitch_bend_c, 5, 2176
3, 62071, Pitch_bend_c, 5, 2304
3, 62074, Pitch_bend_c, 5, 2432
3, 62077, Pitch_bend_c, 5, 2560
3, 62082, Pitch_bend_c, 5, 2688
3, 62088, Pitch_bend_c, 5, 2816
3, 62105, Pitch_bend_c, 5, 2944
3, 62111, Pitch_bend_c, 5, 3200
3, 62111, Note_on_c, 5, 88, 91
3, 62113, Note_on_c, 5, 93, 82
3, 62114, Pitch_bend_c, 5, 3328
3, 62116, Pitch_bend_c, 5, 3712
3, 62117, Pitch_bend_c, 5, 3840
3, 62119, Pitch_bend_c, 5, 4224
3, 62121, Pitch_bend_c, 5, 4608
3, 62123, Pitch_bend_c, 5, 4992
3, 62127, Pitch_bend_c, 5, 5504
3, 62131, Pitch_bend_c, 5, 6144
3, 62133, Pitch_bend_c, 5, 6528
3, 62134, Pitch_bend_c, 5, 7168
3, 62138, Pitch_bend_c, 5, 7680
3, 62141, Pitch_bend_c, 5, 8192
3, 62174, Note_off_c, 5, 88, 64
3, 62175, Note_off_c, 5, 93, 64
3, 62197, Note_on_c, 5, 88, 82
3, 62200, Note_on_c, 5, 93, 82
3, 62237, Note_off_c, 5, 93, 64
3, 62239, Note_off_c, 5, 88, 64
3, 62271, Note_on_c, 5, 88, 91
3, 62274, Note_on_c, 5, 93, 82
3, 62318, Note_off_c, 5, 88, 64
3, 62319, Note_off_c, 5, 93, 64
3, 62354, Note_on_c, 5, 88, 82
3, 62355, Note_on_c, 5, 93, 82
3, 62399, Note_off_c, 5, 88, 64
3, 62402, Note_off_c, 5, 93, 64
3, 62427, Note_on_c, 5, 93, 73
3, 62429, Note_on_c, 5, 88, 82
3, 62478, Note_off_c, 5, 93, 64
3, 62478, Note_off_c, 5, 88, 64
3, 62510, Note_on_c, 5, 88, 91
3, 62510, Note_on_c, 5, 93, 73
3, 62555, Note_off_c, 5, 88, 64
3, 62559, Note_off_c, 5, 93, 64
3, 62841, Note_on_c, 5, 88, 109
3, 62841, Note_on_c, 5, 93, 91
3, 62889, Note_off_c, 5, 88, 64
3, 62890, Note_off_c, 5, 93, 64
3, 62925, Note_on_c, 5, 88, 91
3, 62926, Note_on_c, 5, 93, 91
3, 62966, Note_off_c, 5, 88, 64
3, 62972, Note_off_c, 5, 93, 64
3, 62998, Note_on_c, 5, 88, 91
3, 63001, Note_on_c, 5, 93, 82
3, 63043, Note_off_c, 5, 88, 64
3, 63046, Note_off_c, 5, 93, 64
3, 63077, Note_on_c, 5, 88, 82
3, 63078, Note_on_c, 5, 93, 73
3, 63121, Note_off_c, 5, 88, 64
3, 63121, Note_off_c, 5, 93, 64
3, 63155, Note_on_c, 5, 88, 91
3, 63159, Note_on_c, 5, 93, 82
3, 63206, Note_off_c, 5, 88, 64
3, 63209, Note_off_c, 5, 93, 64
3, 63414, Note_on_c, 5, 88, 100
3, 63485, Note_off_c, 5, 88, 64
3, 63495, Note_on_c, 5, 93, 100
3, 63538, Note_off_c, 5, 93, 64
3, 63650, Note_on_c, 5, 88, 100
3, 63693, Note_off_c, 5, 88, 64
3, 63740, Note_on_c, 5, 93, 91
3, 63803, Note_off_c, 5, 93, 64
3, 63891, Note_on_c, 5, 87, 100
3, 63905, Note_on_c, 5, 86, 109
3, 63909, Note_off_c, 5, 87, 64
3, 64283, Note_off_c, 5, 86, 64
3, 64286, Note_on_c, 5, 84, 91
3, 64324, Note_off_c, 5, 84, 64
3, 64337, Note_on_c, 5, 81, 82
3, 64367, Note_off_c, 5, 81, 64
3, 64405, Note_on_c, 5, 84, 100
3, 64466, Note_off_c, 5, 84, 64
3, 64508, Note_on_c, 5, 86, 100
3, 64514, Pitch_bend_c, 5, 8582
3, 64515, Pitch_bend_c, 5, 9102
3, 64518, Pitch_bend_c, 5, 9492
3, 64521, Pitch_bend_c, 5, 10012
3, 64521, Pitch_bend_c, 5, 10272
3, 64525, Pitch_bend_c, 5, 10532
3, 64528, Pitch_bend_c, 5, 10792
3, 64531, Pitch_bend_c, 5, 11052
3, 64531, Pitch_bend_c, 5, 11182
3, 64535, Pitch_bend_c, 5, 11442
3, 64541, Pitch_bend_c, 5, 11572
3, 64541, Pitch_bend_c, 5, 11702
3, 64541, Pitch_bend_c, 5, 11832
3, 64551, Pitch_bend_c, 5, 12092
3, 64552, Pitch_bend_c, 5, 12222
3, 64558, Pitch_bend_c, 5, 12482
3, 64562, Pitch_bend_c, 5, 12612
3, 64564, Pitch_bend_c, 5, 12872
3, 64568, Pitch_bend_c, 5, 13132
3, 64570, Pitch_bend_c, 5, 13262
3, 64572, Pitch_bend_c, 5, 13522
3, 64575, Pitch_bend_c, 5, 13652
3, 64578, Pitch_bend_c, 5, 13782
3, 64580, Pitch_bend_c, 5, 14172
3, 64585, Pitch_bend_c, 5, 14432
3, 64587, Pitch_bend_c, 5, 14822
3, 64589, Pitch_bend_c, 5, 14952
3, 64591, Pitch_bend_c, 5, 15342
3, 64595, Pitch_bend_c, 5, 15472
3, 64597, Pitch_bend_c, 5, 15862
3, 64600, Pitch_bend_c, 5, 16122
3, 64603, Pitch_bend_c, 5, 16252
3, 64604, Pitch_bend_c, 5, 16382
3, 64755, Pitch_bend_c, 5, 16252
3, 64756, Pitch_bend_c, 5, 16122
3, 64757, Pitch_bend_c, 5, 15992
3, 64763, Pitch_bend_c, 5, 15862
3, 64765, Pitch_bend_c, 5, 15732
3, 64766, Pitch_bend_c, 5, 15602
3, 64770, Pitch_bend_c, 5, 15472
3, 64770, Pitch_bend_c, 5, 15342
3, 64773, Pitch_bend_c, 5, 15212
3, 64775, Pitch_bend_c, 5, 15082
3, 64779, Pitch_bend_c, 5, 14822
3, 64780, Pitch_bend_c, 5, 14692
3, 64786, Pitch_bend_c, 5, 14562
3, 64787, Pitch_bend_c, 5, 14432
3, 64792, Pitch_bend_c, 5, 14172
3, 64794, Pitch_bend_c, 5, 14042
3, 64798, Pitch_bend_c, 5, 13912
3, 64799, Pitch_bend_c, 5, 13782
3, 64800, Pitch_bend_c, 5, 13652
3, 64802, Pitch_bend_c, 5, 13522
3, 64803, Pitch_bend_c, 5, 13262
3, 64806, Pitch_bend_c, 5, 13132
3, 64809, Pitch_bend_c, 5, 12872
3, 64811, Pitch_bend_c, 5, 12742
3, 64812, Pitch_bend_c, 5, 12482
3, 64814, Pitch_bend_c, 5, 12222
3, 64816, Pitch_bend_c, 5, 11832
3, 64819, Pitch_bend_c, 5, 11442
3, 64821, Pitch_bend_c, 5, 11052
3, 64823, Pitch_bend_c, 5, 10662
3, 64823, Pitch_bend_c, 5, 10012
3, 64826, Pitch_bend_c, 5, 9362
3, 64829, Pitch_bend_c, 5, 8322
3, 64831, Pitch_bend_c, 5, 8192
3, 64859, Note_off_c, 5, 86, 64
3, 64868, Note_on_c, 5, 84, 100
3, 64912, Note_off_c, 5, 84, 64
3, 64956, Note_on_c, 5, 81, 30
3, 64973, Note_off_c, 5, 81, 64
3, 65038, Note_on_c, 5, 84, 109
3, 65093, Note_off_c, 5, 84, 64
3, 65107, Note_on_c, 5, 86, 100
3, 65167, Note_off_c, 5, 86, 64
3, 65190, Note_on_c, 5, 86, 91
3, 65272, Note_off_c, 5, 86, 64
3, 65362, Note_on_c, 5, 84, 100
3, 65378, Pitch_bend_c, 5, 8452
3, 65381, Pitch_bend_c, 5, 8972
3, 65382, Pitch_bend_c, 5, 9362
3, 65386, Pitch_bend_c, 5, 9622
3, 65386, Pitch_bend_c, 5, 10012
3, 65389, Pitch_bend_c, 5, 10402
3, 65391, Pitch_bend_c, 5, 10662
3, 65393, Pitch_bend_c, 5, 10922
3, 65397, Pitch_bend_c, 5, 11182
3, 65399, Pitch_bend_c, 5, 11572
3, 65404, Pitch_bend_c, 5, 11832
3, 65406, Pitch_bend_c, 5, 11962
3, 65408, Pitch_bend_c, 5, 12352
3, 65410, Pitch_bend_c, 5, 12612
3, 65416, Pitch_bend_c, 5, 12742
3, 65418, Pitch_bend_c, 5, 13002
3, 65419, Pitch_bend_c, 5, 13132
3, 65419, Pitch_bend_c, 5, 13262
3, 65421, Pitch_bend_c, 5, 13522
3, 65422, Pitch_bend_c, 5, 13652
3, 65424, Pitch_bend_c, 5, 13912
3, 65428, Pitch_bend_c, 5, 14042
3, 65429, Pitch_bend_c, 5, 14172
3, 65431, Pitch_bend_c, 5, 14432
3, 65434, Pitch_bend_c, 5, 14562
3, 65438, Pitch_bend_c, 5, 14692
3, 65444, Pitch_bend_c, 5, 14822
3, 65449, Pitch_bend_c, 5, 14692
3, 65451, Pitch_bend_c, 5, 14562
3, 65453, Pitch_bend_c, 5, 14302
3, 65456, Pitch_bend_c, 5, 13522
3, 65457, Pitch_bend_c, 5, 11052
3, 65459, Pitch_bend_c, 5, 8192
3, 65465, Pitch_bend_c, 5, 7936
3, 65466, Pitch_bend_c, 5, 8192
3, 65513, Note_off_c, 5, 84, 64
3, 65530, Note_on_c, 5, 81, 100
3, 65597, Note_off_c, 5, 81, 64
3, 65614, Note_on_c, 5, 79, 82
3, 65711, Note_off_c, 5, 79, 64
3, 65767, Note_on_c, 5, 81, 100
3, 65831, Note_off_c, 5, 81, 64
3, 66087, Note_on_c, 5, 76, 91
3, 66115, Note_off_c, 5, 76, 64
3, 66169, Note_on_c, 5, 79, 91
3, 66201, Note_off_c, 5, 79, 64
3, 66243, Note_on_c, 5, 81, 91
3, 66273, Note_off_c, 5, 81, 64
3, 66322, Note_on_c, 5, 83, 100
3, 66357, Pitch_bend_c, 5, 8582
3, 66362, Pitch_bend_c, 5, 8842
3, 66364, Pitch_bend_c, 5, 9492
3, 66366, Pitch_bend_c, 5, 9882
3, 66367, Pitch_bend_c, 5, 10142
3, 66376, Pitch_bend_c, 5, 10272
3, 66376, Pitch_bend_c, 5, 10532
3, 66376, Pitch_bend_c, 5, 10792
3, 66377, Pitch_bend_c, 5, 10922
3, 66379, Pitch_bend_c, 5, 11052
3, 66381, Pitch_bend_c, 5, 11312
3, 66382, Pitch_bend_c, 5, 11442
3, 66385, Pitch_bend_c, 5, 11572
3, 66387, Pitch_bend_c, 5, 11702
3, 66389, Pitch_bend_c, 5, 11832
3, 66391, Pitch_bend_c, 5, 11962
3, 66394, Pitch_bend_c, 5, 12092
3, 66396, Pitch_bend_c, 5, 12222
3, 66398, Pitch_bend_c, 5, 12352
3, 66399, Pitch_bend_c, 5, 12482
3, 66403, Pitch_bend_c, 5, 12742
3, 66405, Pitch_bend_c, 5, 12872
3, 66406, Pitch_bend_c, 5, 13002
3, 66414, Pitch_bend_c, 5, 13132
3, 66417, Pitch_bend_c, 5, 13262
3, 66419, Pitch_bend_c, 5, 13392
3, 66423, Pitch_bend_c, 5, 13522
3, 66427, Pitch_bend_c, 5, 13652
3, 66432, Pitch_bend_c, 5, 13782
3, 66445, Pitch_bend_c, 5, 13652
3, 66447, Note_off_c, 5, 83, 64
3, 66448, Pitch_bend_c, 5, 13522
3, 66450, Pitch_bend_c, 5, 13262
3, 66452, Pitch_bend_c, 5, 12742
3, 66453, Pitch_bend_c, 5, 11312
3, 66457, Pitch_bend_c, 5, 8192
3, 66487, Note_on_c, 5, 83, 100
3, 66534, Pitch_bend_c, 5, 8322
3, 66539, Pitch_bend_c, 5, 8842
3, 66539, Pitch_bend_c, 5, 9102
3, 66541, Pitch_bend_c, 5, 9492
3, 66544, Pitch_bend_c, 5, 9882
3, 66545, Pitch_bend_c, 5, 10142
3, 66547, Pitch_bend_c, 5, 10532
3, 66551, Pitch_bend_c, 5, 10792
3, 66553, Pitch_bend_c, 5, 11182
3, 66555, Pitch_bend_c, 5, 11442
3, 66556, Pitch_bend_c, 5, 11702
3, 66558, Pitch_bend_c, 5, 11962
3, 66561, Pitch_bend_c, 5, 12222
3, 66561, Pitch_bend_c, 5, 12482
3, 66563, Pitch_bend_c, 5, 12742
3, 66564, Pitch_bend_c, 5, 12872
3, 66567, Pitch_bend_c, 5, 13132
3, 66569, Pitch_bend_c, 5, 13262
3, 66569, Pitch_bend_c, 5, 13392
3, 66569, Pitch_bend_c, 5, 13522
3, 66578, Pitch_bend_c, 5, 13782
3, 66580, Pitch_bend_c, 5, 13912
3, 66581, Pitch_bend_c, 5, 14042
3, 66587, Pitch_bend_c, 5, 14172
3, 66588, Pitch_bend_c, 5, 14302
3, 66593, Pitch_bend_c, 5, 14432
3, 66598, Pitch_bend_c, 5, 14562
3, 66607, Pitch_bend_c, 5, 14692
3, 66614, Pitch_bend_c, 5, 14562
3, 66615, Pitch_bend_c, 5, 14172
3, 66617, Pitch_bend_c, 5, 12872
3, 66619, Pitch_bend_c, 5, 10272
3, 66621, Pitch_bend_c, 5, 8192
3, 66625, Pitch_bend_c, 5, 7936
3, 66627, Note_off_c, 5, 83, 64
3, 66627, Pitch_bend_c, 5, 8192
3, 66659, Note_on_c, 5, 81, 100
3, 66806, Note_off_c, 5, 81, 64
3, 66896, Note_on_c, 5, 81, 91
3, 66924, Note_off_c, 5, 81, 64
3, 66982, Note_on_c, 5, 83, 100
3, 67001, Pitch_bend_c, 5, 8582
3, 67005, Pitch_bend_c, 5, 8972
3, 67005, Pitch_bend_c, 5, 9362
3, 67007, Pitch_bend_c, 5, 9622
3, 67007, Pitch_bend_c, 5, 9882
3, 67008, Pitch_bend_c, 5, 10142
3, 67010, Pitch_bend_c, 5, 10402
3, 67011, Pitch_bend_c, 5, 10662
3, 67015, Pitch_bend_c, 5, 10922
3, 67017, Pitch_bend_c, 5, 11182
3, 67018, Pitch_bend_c, 5, 11442
3, 67021, Pitch_bend_c, 5, 11572
3, 67024, Pitch_bend_c, 5, 11832
3, 67025, Pitch_bend_c, 5, 12092
3, 67027, Pitch_bend_c, 5, 12352
3, 67028, Pitch_bend_c, 5, 12482
3, 67030, Pitch_bend_c, 5, 12742
3, 67035, Pitch_bend_c, 5, 12872
3, 67038, Pitch_bend_c, 5, 13002
3, 67038, Pitch_bend_c, 5, 13262
3, 67038, Pitch_bend_c, 5, 13392
3, 67042, Pitch_bend_c, 5, 13522
3, 67044, Pitch_bend_c, 5, 13652
3, 67046, Pitch_bend_c, 5, 13782
3, 67049, Pitch_bend_c, 5, 13912
3, 67051, Pitch_bend_c, 5, 14172
3, 67052, Pitch_bend_c, 5, 14302
3, 67058, Pitch_bend_c, 5, 14432
3, 67058, Pitch_bend_c, 5, 14562
3, 67061, Pitch_bend_c, 5, 14692
3, 67061, Pitch_bend_c, 5, 14822
3, 67065, Pitch_bend_c, 5, 14952
3, 67068, Pitch_bend_c, 5, 15082
3, 67081, Pitch_bend_c, 5, 14952
3, 67083, Pitch_bend_c, 5, 14692
3, 67083, Pitch_bend_c, 5, 14562
3, 67088, Pitch_bend_c, 5, 14432
3, 67091, Pitch_bend_c, 5, 14302
3, 67091, Pitch_bend_c, 5, 14042
3, 67093, Note_off_c, 5, 83, 64
3, 67093, Pitch_bend_c, 5, 13782
3, 67096, Pitch_bend_c, 5, 13522
3, 67098, Pitch_bend_c, 5, 13132
3, 67101, Pitch_bend_c, 5, 12352
3, 67106, Pitch_bend_c, 5, 9622
3, 67107, Pitch_bend_c, 5, 8192
3, 67141, Note_on_c, 5, 83, 100
3, 67177, Pitch_bend_c, 5, 8712
3, 67179, Pitch_bend_c, 5, 9232
3, 67180, Pitch_bend_c, 5, 9622
3, 67183, Pitch_bend_c, 5, 10012
3, 67187, Pitch_bend_c, 5, 10402
3, 67187, Pitch_bend_c, 5, 10792
3, 67189, Pitch_bend_c, 5, 11052
3, 67191, Pitch_bend_c, 5, 11442
3, 67193, Pitch_bend_c, 5, 11702
3, 67197, Pitch_bend_c, 5, 12092
3, 67197, Pitch_bend_c, 5, 12352
3, 67200, Pitch_bend_c, 5, 12612
3, 67201, Pitch_bend_c, 5, 12872
3, 67204, Pitch_bend_c, 5, 13002
3, 67208, Pitch_bend_c, 5, 13262
3, 67208, Pitch_bend_c, 5, 13522
3, 67210, Pitch_bend_c, 5, 13782
3, 67211, Pitch_bend_c, 5, 13912
3, 67214, Pitch_bend_c, 5, 14172
3, 67214, Pitch_bend_c, 5, 14302
3, 67219, Pitch_bend_c, 5, 14562
3, 67219, Pitch_bend_c, 5, 14692
3, 67225, Pitch_bend_c, 5, 14822
3, 67225, Pitch_bend_c, 5, 14952
3, 67227, Pitch_bend_c, 5, 15082
3, 67231, Pitch_bend_c, 5, 15212
3, 67233, Pitch_bend_c, 5, 15342
3, 67255, Pitch_bend_c, 5, 15212
3, 67256, Pitch_bend_c, 5, 15082
3, 67257, Pitch_bend_c, 5, 14822
3, 67259, Pitch_bend_c, 5, 14432
3, 67262, Pitch_bend_c, 5, 13392
3, 67263, Pitch_bend_c, 5, 10922
3, 67265, Pitch_bend_c, 5, 8192
3, 67269, Pitch_bend_c, 5, 7936
3, 67270, Pitch_bend_c, 5, 8064
3, 67273, Pitch_bend_c, 5, 8192
3, 67276, Note_off_c, 5, 83, 64
3, 67309, Note_on_c, 5, 81, 100
3, 67425, Note_off_c, 5, 81, 64
3, 67492, Pitch_bend_c, 5, 7936
3, 67495, Pitch_bend_c, 5, 7680
3, 67495, Pitch_bend_c, 5, 7424
3, 67498, Pitch_bend_c, 5, 7168
3, 67502, Pitch_bend_c, 5, 6912
3, 67502, Pitch_bend_c, 5, 6656
3, 67504, Pitch_bend_c, 5, 6400
3, 67506, Pitch_bend_c, 5, 6144
3, 67507, Pitch_bend_c, 5, 6016
3, 67511, Pitch_bend_c, 5, 5888
3, 67512, Pitch_bend_c, 5, 5760
3, 67514, Pitch_bend_c, 5, 5504
3, 67515, Pitch_bend_c, 5, 5376
3, 67518, Pitch_bend_c, 5, 5248
3, 67519, Pitch_bend_c, 5, 5120
3, 67522, Pitch_bend_c, 5, 4992
3, 67524, Pitch_bend_c, 5, 4864
3, 67525, Pitch_bend_c, 5, 4736
3, 67529, Pitch_bend_c, 5, 4608
3, 67532, Pitch_bend_c, 5, 4480
3, 67536, Pitch_bend_c, 5, 4352
3, 67538, Pitch_bend_c, 5, 4224
3, 67541, Pitch_bend_c, 5, 4096
3, 67548, Pitch_bend_c, 5, 3968
3, 67553, Pitch_bend_c, 5, 3840
3, 67561, Pitch_bend_c, 5, 3712
3, 67568, Pitch_bend_c, 5, 3584
3, 67571, Pitch_bend_c, 5, 3456
3, 67577, Pitch_bend_c, 5, 3328
3, 67583, Pitch_bend_c, 5, 3200
3, 67590, Pitch_bend_c, 5, 3072
3, 67618, Pitch_bend_c, 5, 3200
3, 67621, Pitch_bend_c, 5, 3328
3, 67624, Note_on_c, 5, 88, 109
3, 67624, Note_on_c, 5, 91, 91
3, 67628, Pitch_bend_c, 5, 3584
3, 67628, Pitch_bend_c, 5, 3712
3, 67637, Pitch_bend_c, 5, 4224
3, 67639, Pitch_bend_c, 5, 4608
3, 67641, Pitch_bend_c, 5, 4992
3, 67641, Pitch_bend_c, 5, 5376
3, 67645, Pitch_bend_c, 5, 5760
3, 67648, Pitch_bend_c, 5, 6144
3, 67649, Pitch_bend_c, 5, 6656
3, 67650, Pitch_bend_c, 5, 7168
3, 67655, Pitch_bend_c, 5, 7936
3, 67657, Pitch_bend_c, 5, 8192
3, 67703, Note_off_c, 5, 88, 64
3, 67711, Note_off_c, 5, 91, 64
3, 67793, Note_on_c, 5, 88, 109
3, 67793, Note_on_c, 5, 91, 100
3, 67834, Note_off_c, 5, 88, 64
3, 67838, Note_off_c, 5, 91, 64
3, 67842, Pitch_bend_c, 5, 7808
3, 67843, Pitch_bend_c, 5, 7168
3, 67846, Pitch_bend_c, 5, 6784
3, 67847, Pitch_bend_c, 5, 6400
3, 67850, Pitch_bend_c, 5, 6016
3, 67852, Pitch_bend_c, 5, 5504
3, 67854, Pitch_bend_c, 5, 4992
3, 67856, Pitch_bend_c, 5, 4352
3, 67857, Pitch_bend_c, 5, 3840
3, 67860, Pitch_bend_c, 5, 3328
3, 67860, Pitch_bend_c, 5, 2816
3, 67867, Pitch_bend_c, 5, 2432
3, 67867, Pitch_bend_c, 5, 2048
3, 67867, Pitch_bend_c, 5, 1920
3, 67867, Pitch_bend_c, 5, 1664
3, 67874, Pitch_bend_c, 5, 1536
3, 67876, Note_on_c, 5, 88, 100
3, 67876, Note_on_c, 5, 91, 100
3, 67879, Pitch_bend_c, 5, 1408
3, 67892, Pitch_bend_c, 5, 1536
3, 67894, Pitch_bend_c, 5, 1664
3, 67896, Pitch_bend_c, 5, 1792
3, 67901, Pitch_bend_c, 5, 1920
3, 67905, Pitch_bend_c, 5, 2048
3, 67908, Pitch_bend_c, 5, 2176
3, 67915, Pitch_bend_c, 5, 2432
3, 67916, Pitch_bend_c, 5, 2688
3, 67918, Pitch_bend_c, 5, 2944
3, 67919, Pitch_bend_c, 5, 3456
3, 67922, Pitch_bend_c, 5, 3840
3, 67923, Pitch_bend_c, 5, 4352
3, 67926, Pitch_bend_c, 5, 5248
3, 67928, Pitch_bend_c, 5, 6016
3, 67935, Pitch_bend_c, 5, 6656
3, 67935, Pitch_bend_c, 5, 8192
3, 67970, Note_off_c, 5, 88, 64
3, 67973, Note_off_c, 5, 91, 64
3, 68035, Note_on_c, 5, 88, 109
3, 68038, Note_on_c, 5, 91, 100
3, 68080, Note_off_c, 5, 91, 64
3, 68081, Note_off_c, 5, 88, 64
3, 68102, Pitch_bend_c, 5, 8064
3, 68102, Pitch_bend_c, 5, 7808
3, 68107, Pitch_bend_c, 5, 7552
3, 68109, Pitch_bend_c, 5, 7296
3, 68113, Pitch_bend_c, 5, 7040
3, 68117, Pitch_bend_c, 5, 6784
3, 68117, Pitch_bend_c, 5, 6528
3, 68119, Pitch_bend_c, 5, 6272
3, 68121, Pitch_bend_c, 5, 6016
3, 68122, Pitch_bend_c, 5, 5760
3, 68124, Pitch_bend_c, 5, 5504
3, 68126, Note_on_c, 5, 88, 109
3, 68127, Pitch_bend_c, 5, 4992
3, 68131, Pitch_bend_c, 5, 4480
3, 68131, Note_on_c, 5, 91, 91
3, 68134, Pitch_bend_c, 5, 4224
3, 68138, Pitch_bend_c, 5, 3968
3, 68139, Pitch_bend_c, 5, 3840
3, 68142, Pitch_bend_c, 5, 3712
3, 68161, Pitch_bend_c, 5, 3840
3, 68167, Pitch_bend_c, 5, 4096
3, 68168, Pitch_bend_c, 5, 4352
3, 68171, Pitch_bend_c, 5, 4736
3, 68175, Pitch_bend_c, 5, 5120
3, 68177, Pitch_bend_c, 5, 5376
3, 68180, Pitch_bend_c, 5, 5760
3, 68182, Pitch_bend_c, 5, 6400
3, 68185, Pitch_bend_c, 5, 7040
3, 68187, Pitch_bend_c, 5, 7424
3, 68188, Pitch_bend_c, 5, 8192
3, 68229, Note_off_c, 5, 88, 64
3, 68229, Note_off_c, 5, 91, 64
3, 68270, Note_on_c, 5, 88, 100
3, 68273, Note_on_c, 5, 91, 91
3, 68311, Note_off_c, 5, 88, 64
3, 68314, Note_off_c, 5, 91, 64
3, 68323, Pitch_bend_c, 5, 8064
3, 68323, Pitch_bend_c, 5, 7808
3, 68324, Pitch_bend_c, 5, 7680
3, 68327, Pitch_bend_c, 5, 7424
3, 68329, Pitch_bend_c, 5, 7168
3, 68330, Pitch_bend_c, 5, 6912
3, 68334, Pitch_bend_c, 5, 6784
3, 68336, Pitch_bend_c, 5, 6528
3, 68336, Pitch_bend_c, 5, 6144
3, 68339, Pitch_bend_c, 5, 5888
3, 68343, Pitch_bend_c, 5, 5632
3, 68344, Pitch_bend_c, 5, 5376
3, 68346, Pitch_bend_c, 5, 4992
3, 68347, Pitch_bend_c, 5, 4736
3, 68349, Pitch_bend_c, 5, 4352
3, 68351, Pitch_bend_c, 5, 4096
3, 68355, Pitch_bend_c, 5, 3840
3, 68357, Pitch_bend_c, 5, 3584
3, 68357, Pitch_bend_c, 5, 3200
3, 68360, Pitch_bend_c, 5, 2816
3, 68362, Pitch_bend_c, 5, 2560
3, 68364, Pitch_bend_c, 5, 2304
3, 68366, Pitch_bend_c, 5, 2048
3, 68369, Pitch_bend_c, 5, 1792
3, 68375, Pitch_bend_c, 5, 1408
3, 68375, Note_on_c, 5, 88, 109
3, 68375, Note_on_c, 5, 91, 91
3, 68378, Pitch_bend_c, 5, 1152
3, 68381, Pitch_bend_c, 5, 1024
3, 68385, Pitch_bend_c, 5, 896
3, 68400, Pitch_bend_c, 5, 1024
3, 68403, Pitch_bend_c, 5, 1152
3, 68406, Pitch_bend_c, 5, 1408
3, 68410, Pitch_bend_c, 5, 1792
3, 68412, Pitch_bend_c, 5, 2304
3, 68417, Pitch_bend_c, 5, 2688
3, 68421, Pitch_bend_c, 5, 3712
3, 68422, Pitch_bend_c, 5, 4352
3, 68424, Pitch_bend_c, 5, 4992
3, 68425, Pitch_bend_c, 5, 5760
3, 68429, Pitch_bend_c, 5, 6272
3, 68430, Pitch_bend_c, 5, 6784
3, 68436, Pitch_bend_c, 5, 7296
3, 68436, Pitch_bend_c, 5, 8064
3, 68436, Pitch_bend_c, 5, 8192
3, 68457, Note_off_c, 5, 88, 64
3, 68457, Note_off_c, 5, 91, 64
3, 68521, Note_on_c, 5, 88, 100
3, 68524, Note_on_c, 5, 91, 82
3, 68564, Note_off_c, 5, 91, 64
3, 68565, Note_off_c, 5, 88, 64
3, 68593, Pitch_bend_c, 5, 7808
3, 68594, Pitch_bend_c, 5, 7296
3, 68597, Pitch_bend_c, 5, 6784
3, 68601, Pitch_bend_c, 5, 6144
3, 68604, Pitch_bend_c, 5, 5504
3, 68604, Pitch_bend_c, 5, 4736
3, 68607, Pitch_bend_c, 5, 3968
3, 68607, Pitch_bend_c, 5, 3328
3, 68611, Pitch_bend_c, 5, 2816
3, 68613, Pitch_bend_c, 5, 2304
3, 68614, Pitch_bend_c, 5, 2048
3, 68618, Pitch_bend_c, 5, 1792
3, 68621, Note_on_c, 5, 88, 109
3, 68626, Pitch_bend_c, 5, 1536
3, 68626, Note_on_c, 5, 91, 91
3, 68628, Pitch_bend_c, 5, 1408
3, 68645, Pitch_bend_c, 5, 1536
3, 68647, Pitch_bend_c, 5, 1664
3, 68647, Pitch_bend_c, 5, 1792
3, 68650, Pitch_bend_c, 5, 1920
3, 68653, Pitch_bend_c, 5, 2048
3, 68654, Pitch_bend_c, 5, 2176
3, 68656, Pitch_bend_c, 5, 2432
3, 68661, Pitch_bend_c, 5, 2688
3, 68663, Pitch_bend_c, 5, 3072
3, 68664, Pitch_bend_c, 5, 3456
3, 68666, Pitch_bend_c, 5, 3840
3, 68667, Pitch_bend_c, 5, 4224
3, 68671, Pitch_bend_c, 5, 4736
3, 68673, Pitch_bend_c, 5, 5248
3, 68675, Pitch_bend_c, 5, 5888
3, 68680, Pitch_bend_c, 5, 6400
3, 68680, Pitch_bend_c, 5, 6784
3, 68684, Pitch_bend_c, 5, 7424
3, 68687, Pitch_bend_c, 5, 8192
3, 68715, Note_off_c, 5, 88, 64
3, 68715, Note_off_c, 5, 91, 64
3, 68766, Note_on_c, 5, 88, 109
3, 68768, Note_on_c, 5, 91, 91
3, 68803, Note_off_c, 5, 88, 64
3, 68808, Note_off_c, 5, 91, 64
3, 68832, Pitch_bend_c, 5, 7680
3, 68833, Pitch_bend_c, 5, 7168
3, 68836, Pitch_bend_c, 5, 6656
3, 68837, Pitch_bend_c, 5, 6272
3, 68842, Pitch_bend_c, 5, 5760
3, 68844, Pitch_bend_c, 5, 4992
3, 68846, Pitch_bend_c, 5, 3968
3, 68849, Pitch_bend_c, 5, 2944
3, 68854, Pitch_bend_c, 5, 1664
3, 68856, Pitch_bend_c, 5, 384
3, 68858, Note_on_c, 5, 88, 109
3, 68859, Pitch_bend_c, 5, 0
3, 68860, Note_on_c, 5, 91, 91
3, 68895, Pitch_bend_c, 5, 256
3, 68896, Pitch_bend_c, 5, 512
3, 68896, Pitch_bend_c, 5, 1024
3, 68899, Pitch_bend_c, 5, 1536
3, 68903, Pitch_bend_c, 5, 2176
3, 68905, Pitch_bend_c, 5, 3200
3, 68909, Pitch_bend_c, 5, 3968
3, 68911, Pitch_bend_c, 5, 4864
3, 68913, Pitch_bend_c, 5, 6016
3, 68919, Pitch_bend_c, 5, 6656
3, 68925, Pitch_bend_c, 5, 7680
3, 68925, Pitch_bend_c, 5, 8192
3, 68947, Note_off_c, 5, 88, 64
3, 68947, Note_off_c, 5, 91, 64
3, 69006, Note_on_c, 5, 88, 100
3, 69006, Note_on_c, 5, 91, 100
3, 69045, Note_off_c, 5, 91, 64
3, 69046, Note_off_c, 5, 88, 64
3, 69048, Pitch_bend_c, 5, 7808
3, 69050, Pitch_bend_c, 5, 7168
3, 69051, Pitch_bend_c, 5, 6656
3, 69054, Pitch_bend_c, 5, 6272
3, 69057, Pitch_bend_c, 5, 5888
3, 69058, Pitch_bend_c, 5, 5504
3, 69061, Pitch_bend_c, 5, 5248
3, 69064, Pitch_bend_c, 5, 4864
3, 69066, Pitch_bend_c, 5, 4608
3, 69068, Pitch_bend_c, 5, 4480
3, 69068, Pitch_bend_c, 5, 4224
3, 69072, Pitch_bend_c, 5, 4096
3, 69075, Pitch_bend_c, 5, 3968
3, 69078, Pitch_bend_c, 5, 3712
3, 69096, Note_on_c, 5, 88, 100
3, 69097, Pitch_bend_c, 5, 3840
3, 69097, Note_on_c, 5, 91, 91
3, 69106, Pitch_bend_c, 5, 3968
3, 69117, Pitch_bend_c, 5, 4096
3, 69121, Pitch_bend_c, 5, 4224
3, 69121, Pitch_bend_c, 5, 4352
3, 69124, Pitch_bend_c, 5, 4480
3, 69126, Pitch_bend_c, 5, 4736
3, 69130, Pitch_bend_c, 5, 4864
3, 69131, Pitch_bend_c, 5, 5120
3, 69133, Pitch_bend_c, 5, 5376
3, 69134, Pitch_bend_c, 5, 5504
3, 69138, Pitch_bend_c, 5, 5888
3, 69140, Pitch_bend_c, 5, 6272
3, 69143, Pitch_bend_c, 5, 6528
3, 69147, Pitch_bend_c, 5, 6912
3, 69148, Pitch_bend_c, 5, 7296
3, 69151, Pitch_bend_c, 5, 7680
3, 69154, Pitch_bend_c, 5, 8192
3, 69197, Note_off_c, 5, 91, 64
3, 69197, Note_off_c, 5, 88, 64
3, 69417, Note_on_c, 5, 76, 91
3, 69421, Note_on_c, 5, 81, 82
3, 69422, Note_on_c, 5, 73, 91
3, 69485, Note_off_c, 5, 76, 64
3, 69492, Note_off_c, 5, 73, 64
3, 69496, Note_off_c, 5, 81, 64
3, 69578, Note_on_c, 5, 74, 91
3, 69580, Note_on_c, 5, 78, 91
3, 69580, Note_on_c, 5, 81, 82
3, 69647, Note_off_c, 5, 74, 64
3, 69661, Note_off_c, 5, 78, 64
3, 69665, Note_on_c, 5, 76, 82
3, 69670, Note_on_c, 5, 73, 82
3, 69709, Note_off_c, 5, 81, 64
3, 69714, Note_off_c, 5, 76, 64
3, 69717, Note_off_c, 5, 73, 64
3, 70070, Note_on_c, 5, 81, 82
3, 70070, Note_on_c, 5, 76, 100
3, 70071, Note_on_c, 5, 73, 100
3, 70175, Note_off_c, 5, 73, 64
3, 70182, Note_off_c, 5, 81, 64
3, 70184, Note_off_c, 5, 76, 64
3, 70228, Note_on_c, 5, 74, 100
3, 70230, Note_on_c, 5, 81, 91
3, 70231, Note_on_c, 5, 78, 91
3, 70293, Note_off_c, 5, 74, 64
3, 70306, Note_off_c, 5, 78, 64
3, 70309, Note_off_c, 5, 81, 64
3, 70312, Note_on_c, 5, 81, 44
3, 70317, Note_on_c, 5, 76, 82
3, 70321, Note_on_c, 5, 73, 91
3, 70352, Note_off_c, 5, 81, 64
3, 70359, Note_off_c, 5, 76, 64
3, 70362, Note_off_c, 5, 73, 64
3, 70717, Note_on_c, 5, 76, 91
3, 70717, Note_on_c, 5, 81, 91
3, 70719, Note_on_c, 5, 73, 100
3, 70809, Note_off_c, 5, 76, 64
3, 70813, Note_off_c, 5, 81, 64
3, 70816, Note_off_c, 5, 73, 64
3, 70872, Note_on_c, 5, 74, 91
3, 70872, Note_on_c, 5, 81, 91
3, 70872, Note_on_c, 5, 78, 82
3, 70934, Note_off_c, 5, 74, 64
3, 70944, Note_off_c, 5, 81, 64
3, 70945, Note_off_c, 5, 78, 64
3, 70959, Note_on_c, 5, 81, 73
3, 70959, Note_on_c, 5, 76, 91
3, 70963, Note_on_c, 5, 73, 82
3, 70993, Note_off_c, 5, 81, 64
3, 70993, Note_off_c, 5, 76, 64
3, 70993, Note_off_c, 5, 73, 64
3, 71364, Note_on_c, 5, 76, 100
3, 71366, Note_on_c, 5, 81, 73
3, 71366, Note_on_c, 5, 73, 100
3, 71467, Note_off_c, 5, 76, 64
3, 71471, Note_off_c, 5, 73, 64
3, 71472, Note_off_c, 5, 81, 64
3, 71521, Note_on_c, 5, 74, 91
3, 71521, Note_on_c, 5, 81, 82
3, 71521, Note_on_c, 5, 78, 91
3, 71588, Note_off_c, 5, 74, 64
3, 71602, Note_off_c, 5, 81, 64
3, 71602, Note_off_c, 5, 78, 64
3, 71609, Note_on_c, 5, 81, 64
3, 71611, Note_on_c, 5, 76, 82
3, 71614, Note_on_c, 5, 73, 91
3, 71641, Note_off_c, 5, 81, 64
3, 71642, Note_off_c, 5, 76, 64
3, 71642, Note_off_c, 5, 73, 64
3, 72017, Note_on_c, 5, 81, 82
3, 72017, Note_on_c, 5, 73, 100
3, 72018, Note_on_c, 5, 76, 100
3, 72116, Note_off_c, 5, 76, 64
3, 72117, Note_off_c, 5, 73, 64
3, 72119, Note_off_c, 5, 81, 64
3, 72170, Note_on_c, 5, 74, 100
3, 72174, Note_on_c, 5, 81, 91
3, 72175, Note_on_c, 5, 78, 91
3, 72237, Note_off_c, 5, 74, 64
3, 72246, Note_off_c, 5, 78, 64
3, 72246, Note_off_c, 5, 81, 64
3, 72256, Note_on_c, 5, 81, 64
3, 72258, Note_on_c, 5, 76, 82
3, 72262, Note_on_c, 5, 73, 100
3, 72290, Note_off_c, 5, 81, 64
3, 72295, Note_off_c, 5, 76, 64
3, 72297, Note_off_c, 5, 73, 64
3, 72664, Note_on_c, 5, 76, 100
3, 72664, Note_on_c, 5, 81, 82
3, 72666, Note_on_c, 5, 73, 100
3, 72766, Note_off_c, 5, 73, 64
3, 72767, Note_off_c, 5, 76, 64
3, 72774, Note_off_c, 5, 81, 64
3, 72818, Note_on_c, 5, 74, 91
3, 72819, Note_on_c, 5, 81, 82
3, 72819, Note_on_c, 5, 78, 82
3, 72882, Note_off_c, 5, 74, 64
3, 72896, Note_off_c, 5, 81, 64
3, 72899, Note_off_c, 5, 78, 64
3, 72905, Note_on_c, 5, 81, 73
3, 72911, Note_on_c, 5, 76, 91
3, 72912, Note_on_c, 5, 73, 91
3, 72936, Note_off_c, 5, 81, 64
3, 72939, Note_off_c, 5, 76, 64
3, 72940, Note_off_c, 5, 73, 64
3, 73312, Note_on_c, 5, 81, 91
3, 73312, Note_on_c, 5, 76, 91
3, 73313, Note_on_c, 5, 73, 100
3, 73412, Note_off_c, 5, 76, 64
3, 73414, Note_off_c, 5, 73, 64
3, 73421, Note_off_c, 5, 81, 64
3, 73469, Note_on_c, 5, 74, 91
3, 73469, Note_on_c, 5, 81, 82
3, 73471, Note_on_c, 5, 78, 82
3, 73527, Note_off_c, 5, 74, 64
3, 73550, Note_off_c, 5, 78, 64
3, 73556, Note_on_c, 5, 76, 82
3, 73557, Note_on_c, 5, 73, 100
3, 73582, Note_off_c, 5, 81, 64
3, 73583, Note_off_c, 5, 76, 64
3, 73588, Note_off_c, 5, 73, 64
3, 73964, Note_on_c, 5, 81, 82
3, 73967, Note_on_c, 5, 73, 100
3, 73967, Note_on_c, 5, 76, 91
3, 74065, Note_off_c, 5, 76, 64
3, 74067, Note_off_c, 5, 73, 64
3, 74071, Note_off_c, 5, 81, 64
3, 74117, Note_on_c, 5, 74, 73
3, 74117, Note_on_c, 5, 81, 73
3, 74119, Note_on_c, 5, 78, 82
3, 74175, Note_off_c, 5, 74, 64
3, 74194, Note_off_c, 5, 78, 64
3, 74204, Note_on_c, 5, 76, 91
3, 74209, Note_on_c, 5, 73, 100
3, 74236, Note_off_c, 5, 81, 64
3, 74244, Note_off_c, 5, 76, 64
3, 74251, Note_off_c, 5, 73, 64
3, 74610, Note_on_c, 5, 67, 100
3, 74610, Note_on_c, 5, 76, 100
3, 74610, Note_on_c, 5, 73, 100
3, 74633, Note_off_c, 5, 67, 64
3, 74633, Note_off_c, 5, 73, 64
3, 74634, Note_off_c, 5, 76, 64
3, 75256, Note_on_c, 5, 67, 100
3, 75261, Note_on_c, 5, 73, 109
3, 75262, Note_on_c, 5, 76, 91
3, 75285, Note_off_c, 5, 76, 64
3, 75285, Note_off_c, 5, 73, 64
3, 75285, Note_off_c, 5, 67, 64
3, 75899, Note_on_c, 5, 73, 100
3, 75901, Note_on_c, 5, 67, 100
3, 75901, Note_on_c, 5, 76, 100
3, 75925, Note_off_c, 5, 67, 64
3, 75931, Note_off_c, 5, 76, 64
3, 75934, Note_off_c, 5, 73, 64
3, 76558, Note_on_c, 5, 73, 109
3, 76560, Note_on_c, 5, 67, 100
3, 76561, Note_on_c, 5, 76, 91
3, 76587, Note_off_c, 5, 67, 64
3, 76591, Note_off_c, 5, 73, 64
3, 76591, Note_off_c, 5, 76, 64
3, 77203, Note_on_c, 5, 73, 109
3, 77206, Note_on_c, 5, 67, 109
3, 77207, Note_on_c, 5, 76, 100
3, 77232, Note_off_c, 5, 67, 64
3, 77233, Note_off_c, 5, 73, 64
3, 77233, Note_off_c, 5, 76, 64
3, 77848, Note_on_c, 5, 67, 100
3, 77850, Note_on_c, 5, 72, 100
3, 77852, Note_on_c, 5, 76, 100
3, 77878, Note_off_c, 5, 72, 64
3, 77879, Note_off_c, 5, 67, 64
3, 77879, Note_off_c, 5, 76, 64
3, 78496, Note_on_c, 5, 73, 100
3, 78496, Note_on_c, 5, 76, 100
3, 78496, Note_on_c, 5, 67, 91
3, 78520, Note_off_c, 5, 73, 64
3, 78520, Note_off_c, 5, 76, 64
3, 78523, Note_off_c, 5, 67, 64
3, 79149, Note_on_c, 5, 67, 100
3, 79154, Note_on_c, 5, 73, 100
3, 79154, Note_on_c, 5, 76, 100
3, 79186, Note_off_c, 5, 76, 64
3, 79187, Note_off_c, 5, 67, 64
3, 79187, Note_off_c, 5, 73, 64
3, 79790, Note_on_c, 5, 74, 91
3, 79791, Note_on_c, 5, 80, 91
3, 79791, Note_on_c, 5, 71, 82
3, 79818, Note_off_c, 5, 71, 64
3, 79819, Note_off_c, 5, 74, 64
3, 79823, Note_off_c, 5, 80, 64
3, 80440, Note_on_c, 5, 72, 91
3, 80440, Note_on_c, 5, 78, 100
3, 80440, Note_on_c, 5, 81, 100
3, 80469, Note_off_c, 5, 72, 64
3, 80473, Note_off_c, 5, 78, 64
3, 80473, Note_off_c, 5, 81, 64
3, 81089, Note_on_c, 5, 73, 100
3, 81092, Note_on_c, 5, 67, 100
3, 81092, Note_on_c, 5, 76, 109
3, 81117, Note_off_c, 5, 67, 64
3, 81119, Note_off_c, 5, 76, 64
3, 81122, Note_off_c, 5, 73, 64
3, 81742, Note_on_c, 5, 73, 109
3, 81746, Note_on_c, 5, 67, 109
3, 81746, Note_on_c, 5, 76, 109
3, 81768, Note_off_c, 5, 67, 64
3, 81770, Note_off_c, 5, 76, 64
3, 81771, Note_off_c, 5, 73, 64
3, 82399, Note_on_c, 5, 67, 100
3, 82399, Note_on_c, 5, 76, 100
3, 82399, Note_on_c, 5, 73, 100
3, 82420, Note_off_c, 5, 67, 64
3, 82420, Note_off_c, 5, 73, 64
3, 82422, Note_off_c, 5, 76, 64
3, 83045, Note_on_c, 5, 67, 100
3, 83048, Note_on_c, 5, 73, 109
3, 83050, Note_on_c, 5, 76, 91
3, 83073, Note_off_c, 5, 67, 64
3, 83073, Note_off_c, 5, 73, 64
3, 83073, Note_off_c, 5, 76, 64
3, 83687, Note_on_c, 5, 73, 100
3, 83690, Note_on_c, 5, 67, 100
3, 83690, Note_on_c, 5, 76, 100
3, 83715, Note_off_c, 5, 67, 64
3, 83719, Note_off_c, 5, 76, 64
3, 83723, Note_off_c, 5, 73, 64
3, 84346, Note_on_c, 5, 73, 109
3, 84349, Note_on_c, 5, 67, 100
3, 84349, Note_on_c, 5, 76, 91
3, 84375, Note_off_c, 5, 67, 64
3, 84379, Note_off_c, 5, 73, 64
3, 84379, Note_off_c, 5, 76, 64
3, 84993, Note_on_c, 5, 73, 109
3, 84995, Note_on_c, 5, 67, 109
3, 84996, Note_on_c, 5, 76, 100
3, 85021, Note_off_c, 5, 67, 64
3, 85023, Note_off_c, 5, 73, 64
3, 85023, Note_off_c, 5, 76, 64
3, 85636, Note_on_c, 5, 67, 100
3, 85638, Note_on_c, 5, 72, 100
3, 85640, Note_on_c, 5, 76, 100
3, 85667, Note_off_c, 5, 72, 64
3, 85668, Note_off_c, 5, 67, 64
3, 85668, Note_off_c, 5, 76, 64
3, 86284, Note_on_c, 5, 73, 100
3, 86286, Note_on_c, 5, 76, 100
3, 86286, Note_on_c, 5, 67, 91
3, 86309, Note_off_c, 5, 73, 64
3, 86309, Note_off_c, 5, 76, 64
3, 86312, Note_off_c, 5, 67, 64
3, 86938, Note_on_c, 5, 67, 100
3, 86942, Note_on_c, 5, 73, 100
3, 86942, Note_on_c, 5, 76, 100
3, 86974, Note_off_c, 5, 76, 64
3, 86978, Note_off_c, 5, 67, 64
3, 86978, Note_off_c, 5, 73, 64
3, 87577, Note_on_c, 5, 74, 91
3, 87579, Note_on_c, 5, 80, 91
3, 87579, Note_on_c, 5, 71, 82
3, 87606, Note_off_c, 5, 71, 64
3, 87607, Note_off_c, 5, 74, 64
3, 87611, Note_off_c, 5, 80, 64
3, 88229, Note_on_c, 5, 72, 91
3, 88229, Note_on_c, 5, 78, 100
3, 88229, Note_on_c, 5, 81, 100
3, 88259, Note_off_c, 5, 72, 64
3, 88262, Note_off_c, 5, 78, 64
3, 88263, Note_off_c, 5, 81, 64
3, 88879, Note_on_c, 5, 73, 100
3, 88883, Note_on_c, 5, 67, 100
3, 88883, Note_on_c, 5, 76, 109
3, 88906, Note_off_c, 5, 67, 64
3, 88908, Note_off_c, 5, 76, 64
3, 88912, Note_off_c, 5, 73, 64
3, 89531, Note_on_c, 5, 73, 109
3, 89536, Note_on_c, 5, 67, 109
3, 89537, Note_on_c, 5, 76, 109
3, 89558, Note_off_c, 5, 67, 64
3, 89560, Note_off_c, 5, 76, 64
3, 89561, Note_off_c, 5, 73, 64
3, 89561, End_track
4, 0, Start_track
4, 0, MIDI_port, 0
4, 0, Title_t, "PIANO               "
4, 0, Program_c, 1, 0
4, 0, Control_c, 1, 7, 97
4, 1924, Note_on_c, 1, 62, 100
4, 1925, Note_on_c, 1, 66, 82
4, 1927, Note_on_c, 1, 69, 73
4, 1927, Note_on_c, 1, 57, 73
4, 2016, Note_off_c, 1, 66, 64
4, 2020, Note_off_c, 1, 62, 64
4, 2025, Note_off_c, 1, 69, 64
4, 2030, Note_off_c, 1, 57, 64
4, 2090, Note_on_c, 1, 61, 91
4, 2093, Note_on_c, 1, 64, 91
4, 2094, Note_on_c, 1, 57, 91
4, 2096, Note_on_c, 1, 69, 73
4, 2164, Note_off_c, 1, 64, 64
4, 2167, Note_off_c, 1, 69, 64
4, 2169, Note_off_c, 1, 61, 64
4, 2170, Note_off_c, 1, 57, 64
4, 2323, Note_on_c, 1, 57, 82
4, 2326, Note_on_c, 1, 67, 82
4, 2326, Note_on_c, 1, 64, 91
4, 2326, Note_on_c, 1, 69, 82
4, 2441, Note_off_c, 1, 57, 64
4, 2442, Note_off_c, 1, 67, 64
4, 2442, Note_off_c, 1, 69, 64
4, 2446, Note_off_c, 1, 64, 64
4, 2488, Note_on_c, 1, 64, 73
4, 2488, Note_on_c, 1, 67, 64
4, 2492, Note_on_c, 1, 69, 73
4, 2492, Note_on_c, 1, 57, 64
4, 2542, Note_off_c, 1, 67, 64
4, 2545, Note_off_c, 1, 64, 64
4, 2549, Note_off_c, 1, 57, 64
4, 2556, Note_off_c, 1, 69, 64
4, 2570, Note_on_c, 1, 69, 82
4, 2574, Note_on_c, 1, 57, 73
4, 2574, Note_on_c, 1, 62, 91
4, 2642, Note_off_c, 1, 62, 64
4, 2644, Note_off_c, 1, 57, 64
4, 2652, Note_off_c, 1, 69, 64
4, 2659, Note_on_c, 1, 45, 48
4, 2698, Note_off_c, 1, 45, 64
4, 2736, Note_on_c, 1, 61, 91
4, 2737, Note_on_c, 1, 57, 91
4, 2739, Note_on_c, 1, 64, 82
4, 2740, Note_on_c, 1, 69, 73
4, 2803, Note_off_c, 1, 69, 64
4, 2804, Note_off_c, 1, 64, 64
4, 2811, Note_off_c, 1, 57, 64
4, 2813, Note_off_c, 1, 61, 64
4, 2823, Note_on_c, 1, 45, 44
4, 2839, Note_off_c, 1, 45, 64
4, 2894, Note_on_c, 1, 57, 91
4, 2894, Note_on_c, 1, 62, 91
4, 2894, Note_on_c, 1, 66, 82
4, 2894, Note_on_c, 1, 69, 73
4, 2956, Note_off_c, 1, 62, 64
4, 2960, Note_off_c, 1, 66, 64
4, 2962, Note_off_c, 1, 57, 64
4, 2968, Note_off_c, 1, 69, 64
4, 2984, Note_on_c, 1, 57, 82
4, 2986, Note_on_c, 1, 69, 82
4, 2986, Note_on_c, 1, 64, 100
4, 2988, Note_on_c, 1, 61, 100
4, 3032, Note_off_c, 1, 64, 64
4, 3046, Note_off_c, 1, 61, 64
4, 3075, Note_off_c, 1, 57, 64
4, 3092, Note_on_c, 1, 64, 73
4, 3101, Note_off_c, 1, 69, 64
4, 3111, Note_on_c, 1, 61, 91
4, 3129, Note_off_c, 1, 64, 64
4, 3141, Note_on_c, 1, 57, 82
4, 3143, Note_off_c, 1, 61, 64
4, 3211, Note_on_c, 1, 62, 100
4, 3211, Note_on_c, 1, 69, 91
4, 3211, Note_on_c, 1, 66, 82
4, 3304, Note_off_c, 1, 62, 64
4, 3307, Note_off_c, 1, 69, 64
4, 3307, Note_off_c, 1, 66, 64
4, 3323, Note_off_c, 1, 57, 64
4, 3382, Note_on_c, 1, 69, 82
4, 3382, Note_on_c, 1, 61, 100
4, 3383, Note_on_c, 1, 64, 82
4, 3383, Note_on_c, 1, 57, 91
4, 3453, Note_off_c, 1, 64, 64
4, 3454, Note_off_c, 1, 61, 64
4, 3458, Note_off_c, 1, 69, 64
4, 3462, Note_off_c, 1, 57, 64
4, 3544, Note_on_c, 1, 45, 64
4, 3570, Note_off_c, 1, 45, 64
4, 3628, Note_on_c, 1, 63, 109
4, 3630, Note_on_c, 1, 57, 100
4, 3630, Note_on_c, 1, 67, 100
4, 3630, Note_on_c, 1, 69, 91
4, 3660, Note_on_c, 1, 64, 64
4, 3667, Note_off_c, 1, 63, 64
4, 3690, Note_off_c, 1, 64, 64
4, 3696, Note_off_c, 1, 57, 64
4, 3699, Note_off_c, 1, 69, 64
4, 3706, Note_off_c, 1, 67, 64
4, 3714, Note_on_c, 1, 57, 64
4, 3716, Note_on_c, 1, 64, 73
4, 3716, Note_on_c, 1, 69, 64
4, 3716, Note_on_c, 1, 67, 64
4, 3762, Note_off_c, 1, 57, 64
4, 3770, Note_off_c, 1, 64, 64
4, 3770, Note_off_c, 1, 67, 64
4, 3779, Note_off_c, 1, 69, 64
4, 3789, Note_on_c, 1, 69, 60
4, 3792, Note_on_c, 1, 64, 73
4, 3792, Note_on_c, 1, 57, 73
4, 3794, Note_on_c, 1, 67, 64
4, 3839, Note_off_c, 1, 64, 64
4, 3839, Note_off_c, 1, 67, 64
4, 3844, Note_off_c, 1, 57, 64
4, 3851, Note_off_c, 1, 69, 64
4, 3872, Note_on_c, 1, 69, 73
4, 3872, Note_on_c, 1, 62, 82
4, 3873, Note_on_c, 1, 57, 73
4, 3874, Note_on_c, 1, 66, 82
4, 3945, Note_off_c, 1, 62, 64
4, 3948, Note_off_c, 1, 57, 64
4, 3948, Note_off_c, 1, 66, 64
4, 3954, Note_on_c, 1, 45, 56
4, 3957, Note_off_c, 1, 69, 64
4, 4002, Note_off_c, 1, 45, 64
4, 4031, Note_on_c, 1, 61, 91
4, 4033, Note_on_c, 1, 69, 91
4, 4033, Note_on_c, 1, 55, 82
4, 4035, Note_on_c, 1, 64, 73
4, 4102, Note_off_c, 1, 55, 64
4, 4102, Note_off_c, 1, 64, 64
4, 4104, Note_off_c, 1, 61, 64
4, 4109, Note_off_c, 1, 69, 64
4, 4116, Note_on_c, 1, 45, 52
4, 4163, Note_off_c, 1, 45, 64
4, 4192, Note_on_c, 1, 66, 91
4, 4192, Note_on_c, 1, 57, 82
4, 4194, Note_on_c, 1, 62, 100
4, 4195, Note_on_c, 1, 69, 60
4, 4254, Note_off_c, 1, 66, 64
4, 4255, Note_off_c, 1, 62, 64
4, 4258, Note_off_c, 1, 57, 64
4, 4260, Note_off_c, 1, 69, 64
4, 4285, Note_on_c, 1, 57, 91
4, 4286, Note_on_c, 1, 61, 100
4, 4290, Note_on_c, 1, 69, 82
4, 4291, Note_on_c, 1, 64, 91
4, 4347, Note_off_c, 1, 57, 64
4, 4347, Note_off_c, 1, 61, 64
4, 4349, Note_off_c, 1, 69, 64
4, 4352, Note_off_c, 1, 64, 64
4, 4429, Note_on_c, 1, 45, 64
4, 4471, Note_off_c, 1, 45, 64
4, 4518, Note_on_c, 1, 62, 100
4, 4519, Note_on_c, 1, 66, 91
4, 4519, Note_on_c, 1, 69, 82
4, 4519, Note_on_c, 1, 57, 82
4, 4591, Note_off_c, 1, 57, 64
4, 4592, Note_off_c, 1, 62, 64
4, 4592, Note_off_c, 1, 66, 64
4, 4599, Note_off_c, 1, 69, 64
4, 4601, Note_on_c, 1, 45, 56
4, 4626, Note_off_c, 1, 45, 64
4, 4677, Note_on_c, 1, 64, 91
4, 4679, Note_on_c, 1, 57, 91
4, 4680, Note_on_c, 1, 61, 91
4, 4682, Note_on_c, 1, 69, 91
4, 4753, Note_off_c, 1, 64, 64
4, 4753, Note_off_c, 1, 61, 64
4, 4753, Note_off_c, 1, 69, 64
4, 4754, Note_off_c, 1, 57, 64
4, 4840, Note_on_c, 1, 45, 16
4, 4844, Note_off_c, 1, 45, 64
4, 4923, Note_on_c, 1, 63, 100
4, 4925, Note_on_c, 1, 57, 91
4, 4927, Note_on_c, 1, 69, 91
4, 4929, Note_on_c, 1, 67, 100
4, 4981, Note_off_c, 1, 63, 64
4, 4981, Note_on_c, 1, 64, 91
4, 5040, Note_off_c, 1, 57, 64
4, 5047, Note_off_c, 1, 67, 64
4, 5050, Note_off_c, 1, 64, 64
4, 5054, Note_off_c, 1, 69, 64
4, 5084, Note_on_c, 1, 45, 60
4, 5117, Note_off_c, 1, 45, 64
4, 5164, Note_on_c, 1, 57, 91
4, 5166, Note_on_c, 1, 62, 100
4, 5166, Note_on_c, 1, 66, 100
4, 5166, Note_on_c, 1, 69, 82
4, 5246, Note_off_c, 1, 62, 64
4, 5250, Note_off_c, 1, 66, 64
4, 5252, Note_on_c, 1, 45, 48
4, 5253, Note_off_c, 1, 69, 64
4, 5258, Note_off_c, 1, 57, 64
4, 5299, Note_off_c, 1, 45, 64
4, 5329, Note_on_c, 1, 61, 91
4, 5332, Note_on_c, 1, 57, 91
4, 5332, Note_on_c, 1, 64, 91
4, 5332, Note_on_c, 1, 69, 91
4, 5412, Note_off_c, 1, 64, 64
4, 5417, Note_off_c, 1, 69, 64
4, 5417, Note_on_c, 1, 45, 48
4, 5419, Note_off_c, 1, 61, 64
4, 5422, Note_off_c, 1, 57, 64
4, 5490, Note_off_c, 1, 45, 64
4, 5495, Note_on_c, 1, 57, 91
4, 5497, Note_on_c, 1, 69, 82
4, 5497, Note_on_c, 1, 62, 100
4, 5498, Note_on_c, 1, 66, 91
4, 5576, Note_off_c, 1, 62, 64
4, 5578, Note_off_c, 1, 66, 64
4, 5583, Note_on_c, 1, 45, 40
4, 5584, Note_off_c, 1, 69, 64
4, 5628, Note_off_c, 1, 45, 64
4, 5656, Note_on_c, 1, 69, 82
4, 5656, Note_on_c, 1, 67, 100
4, 5658, Note_on_c, 1, 63, 91
4, 5720, Note_off_c, 1, 67, 64
4, 5725, Note_off_c, 1, 63, 64
4, 5729, Note_off_c, 1, 69, 64
4, 5739, Note_on_c, 1, 45, 56
4, 5799, Note_off_c, 1, 45, 64
4, 5827, Note_on_c, 1, 66, 91
4, 5829, Note_on_c, 1, 69, 91
4, 5829, Note_on_c, 1, 62, 91
4, 5902, Note_off_c, 1, 62, 64
4, 5909, Note_off_c, 1, 66, 64
4, 5909, Note_on_c, 1, 45, 60
4, 5918, Note_off_c, 1, 69, 64
4, 5942, Note_off_c, 1, 45, 64
4, 5985, Note_on_c, 1, 69, 91
4, 5985, Note_on_c, 1, 61, 100
4, 5991, Note_on_c, 1, 64, 91
4, 6058, Note_off_c, 1, 64, 64
4, 6062, Note_off_c, 1, 61, 64
4, 6069, Note_off_c, 1, 69, 64
4, 6084, Note_off_c, 1, 57, 64
4, 6132, Note_on_c, 1, 45, 64
4, 6190, Note_off_c, 1, 45, 64
4, 6224, Note_on_c, 1, 57, 91
4, 6226, Note_on_c, 1, 69, 91
4, 6226, Note_on_c, 1, 63, 100
4, 6227, Note_on_c, 1, 67, 100
4, 6284, Note_off_c, 1, 67, 64
4, 6293, Note_off_c, 1, 69, 64
4, 6294, Note_off_c, 1, 63, 64
4, 6322, Note_off_c, 1, 57, 64
4, 6324, Note_on_c, 1, 69, 32
4, 6335, Note_on_c, 1, 67, 64
4, 6359, Note_on_c, 1, 64, 91
4, 6372, Note_off_c, 1, 69, 64
4, 6378, Note_off_c, 1, 67, 64
4, 6388, Note_on_c, 1, 57, 73
4, 6396, Note_off_c, 1, 64, 64
4, 6462, Note_on_c, 1, 69, 82
4, 6462, Note_on_c, 1, 62, 100
4, 6465, Note_on_c, 1, 66, 82
4, 6545, Note_on_c, 1, 45, 60
4, 6547, Note_off_c, 1, 62, 64
4, 6547, Note_off_c, 1, 66, 64
4, 6556, Note_off_c, 1, 69, 64
4, 6563, Note_off_c, 1, 57, 64
4, 6616, Note_off_c, 1, 45, 64
4, 6624, Note_on_c, 1, 61, 91
4, 6624, Note_on_c, 1, 69, 82
4, 6627, Note_on_c, 1, 64, 91
4, 6627, Note_on_c, 1, 57, 91
4, 6694, Note_off_c, 1, 61, 64
4, 6695, Note_off_c, 1, 64, 64
4, 6697, Note_off_c, 1, 69, 64
4, 6697, Note_off_c, 1, 57, 64
4, 6703, Note_on_c, 1, 45, 56
4, 6780, Note_off_c, 1, 45, 64
4, 6796, Note_on_c, 1, 57, 91
4, 6799, Note_on_c, 1, 69, 73
4, 6799, Note_on_c, 1, 62, 100
4, 6800, Note_on_c, 1, 66, 91
4, 6869, Note_off_c, 1, 62, 64
4, 6869, Note_off_c, 1, 66, 64
4, 6871, Note_off_c, 1, 69, 64
4, 6883, Note_on_c, 1, 45, 32
4, 6919, Note_off_c, 1, 45, 64
4, 7032, Note_on_c, 1, 45, 64
4, 7074, Note_off_c, 1, 45, 64
4, 7117, Note_on_c, 1, 69, 91
4, 7118, Note_on_c, 1, 63, 100
4, 7120, Note_on_c, 1, 67, 91
4, 7174, Note_off_c, 1, 63, 64
4, 7180, Note_on_c, 1, 64, 32
4, 7192, Note_on_c, 1, 45, 60
4, 7209, Note_off_c, 1, 67, 64
4, 7209, Note_off_c, 1, 64, 64
4, 7226, Note_off_c, 1, 69, 64
4, 7255, Note_off_c, 1, 45, 64
4, 7280, Note_on_c, 1, 62, 100
4, 7282, Note_on_c, 1, 66, 100
4, 7282, Note_on_c, 1, 69, 91
4, 7351, Note_off_c, 1, 62, 64
4, 7351, Note_off_c, 1, 66, 64
4, 7359, Note_off_c, 1, 69, 64
4, 7369, Note_off_c, 1, 57, 64
4, 7525, Note_on_c, 1, 67, 100
4, 7525, Note_on_c, 1, 69, 91
4, 7526, Note_on_c, 1, 57, 91
4, 7526, Note_on_c, 1, 64, 100
4, 7647, Note_off_c, 1, 69, 64
4, 7649, Note_off_c, 1, 67, 64
4, 7651, Note_off_c, 1, 57, 64
4, 7654, Note_off_c, 1, 64, 64
4, 7684, Note_on_c, 1, 57, 73
4, 7684, Note_on_c, 1, 64, 82
4, 7684, Note_on_c, 1, 67, 82
4, 7684, Note_on_c, 1, 69, 73
4, 7732, Note_off_c, 1, 67, 64
4, 7740, Note_off_c, 1, 64, 64
4, 7750, Note_off_c, 1, 69, 64
4, 7763, Note_on_c, 1, 62, 91
4, 7763, Note_on_c, 1, 69, 91
4, 7766, Note_on_c, 1, 66, 82
4, 7836, Note_on_c, 1, 45, 64
4, 7849, Note_off_c, 1, 57, 64
4, 7849, Note_off_c, 1, 62, 64
4, 7849, Note_off_c, 1, 66, 64
4, 7852, Note_off_c, 1, 69, 64
4, 7912, Note_off_c, 1, 45, 64
4, 7922, Note_on_c, 1, 61, 91
4, 7925, Note_on_c, 1, 69, 82
4, 7925, Note_on_c, 1, 64, 91
4, 7925, Note_on_c, 1, 57, 82
4, 7998, Note_off_c, 1, 64, 64
4, 8004, Note_off_c, 1, 61, 64
4, 8004, Note_on_c, 1, 45, 60
4, 8010, Note_off_c, 1, 57, 64
4, 8013, Note_off_c, 1, 69, 64
4, 8074, Note_off_c, 1, 45, 64
4, 8087, Note_on_c, 1, 57, 91
4, 8088, Note_on_c, 1, 62, 100
4, 8091, Note_on_c, 1, 66, 100
4, 8093, Note_on_c, 1, 69, 91
4, 8163, Note_on_c, 1, 45, 73
4, 8171, Note_off_c, 1, 66, 64
4, 8174, Note_off_c, 1, 62, 64
4, 8174, Note_off_c, 1, 69, 64
4, 8207, Note_off_c, 1, 45, 64
4, 8233, Note_on_c, 1, 45, 73
4, 8328, Note_on_c, 1, 69, 91
4, 8328, Note_on_c, 1, 63, 100
4, 8328, Note_on_c, 1, 67, 100
4, 8332, Note_off_c, 1, 45, 64
4, 8382, Note_off_c, 1, 67, 64
4, 8384, Note_off_c, 1, 69, 64
4, 8384, Note_off_c, 1, 63, 64
4, 8408, Note_on_c, 1, 69, 91
4, 8408, Note_on_c, 1, 67, 82
4, 8413, Note_on_c, 1, 64, 100
4, 8474, Note_off_c, 1, 67, 64
4, 8477, Note_off_c, 1, 64, 64
4, 8482, Note_on_c, 1, 45, 64
4, 8485, Note_off_c, 1, 69, 64
4, 8492, Note_off_c, 1, 57, 64
4, 8568, Note_on_c, 1, 57, 91
4, 8571, Note_on_c, 1, 67, 91
4, 8571, Note_on_c, 1, 69, 82
4, 8574, Note_on_c, 1, 63, 82
4, 8578, Note_off_c, 1, 45, 64
4, 8622, Note_off_c, 1, 57, 64
4, 8629, Note_off_c, 1, 69, 64
4, 8631, Note_off_c, 1, 67, 64
4, 8633, Note_off_c, 1, 63, 64
4, 8648, Note_on_c, 1, 57, 73
4, 8652, Note_on_c, 1, 67, 73
4, 8654, Note_on_c, 1, 69, 73
4, 8654, Note_on_c, 1, 64, 91
4, 8723, Note_off_c, 1, 67, 64
4, 8723, Note_off_c, 1, 64, 64
4, 8726, Note_on_c, 1, 45, 64
4, 8729, Note_off_c, 1, 57, 64
4, 8729, Note_off_c, 1, 69, 64
4, 8815, Note_on_c, 1, 57, 91
4, 8815, Note_on_c, 1, 69, 73
4, 8818, Note_on_c, 1, 63, 91
4, 8818, Note_on_c, 1, 67, 91
4, 8825, Note_off_c, 1, 45, 64
4, 8864, Note_off_c, 1, 69, 64
4, 8866, Note_off_c, 1, 57, 64
4, 8873, Note_off_c, 1, 67, 64
4, 8876, Note_off_c, 1, 63, 64
4, 8893, Note_on_c, 1, 57, 73
4, 8897, Note_on_c, 1, 67, 82
4, 8899, Note_on_c, 1, 69, 82
4, 8899, Note_on_c, 1, 64, 91
4, 8965, Note_off_c, 1, 67, 64
4, 8969, Note_off_c, 1, 64, 64
4, 8976, Note_on_c, 1, 45, 60
4, 8978, Note_off_c, 1, 69, 64
4, 8982, Note_off_c, 1, 57, 64
4, 9049, Note_off_c, 1, 45, 64
4, 9061, Note_on_c, 1, 57, 82
4, 9064, Note_on_c, 1, 66, 91
4, 9064, Note_on_c, 1, 69, 82
4, 9065, Note_on_c, 1, 62, 109
4, 9137, Note_off_c, 1, 66, 64
4, 9137, Note_off_c, 1, 62, 64
4, 9137, Note_on_c, 1, 45, 73
4, 9144, Note_off_c, 1, 57, 64
4, 9146, Note_off_c, 1, 69, 64
4, 9218, Note_off_c, 1, 45, 64
4, 9230, Note_on_c, 1, 69, 91
4, 9230, Note_on_c, 1, 55, 91
4, 9230, Note_on_c, 1, 61, 100
4, 9231, Note_on_c, 1, 64, 100
4, 9299, Note_off_c, 1, 69, 64
4, 9299, Note_off_c, 1, 55, 64
4, 9299, Note_off_c, 1, 64, 64
4, 9299, Note_on_c, 1, 45, 60
4, 9306, Note_off_c, 1, 61, 64
4, 9357, Note_off_c, 1, 45, 64
4, 9386, Note_on_c, 1, 57, 82
4, 9388, Note_on_c, 1, 59, 91
4, 9391, Note_on_c, 1, 69, 73
4, 9391, Note_on_c, 1, 62, 100
4, 9392, Note_on_c, 1, 66, 82
4, 9453, Note_off_c, 1, 59, 64
4, 9456, Note_off_c, 1, 57, 64
4, 9464, Note_off_c, 1, 69, 64
4, 9464, Note_off_c, 1, 62, 64
4, 9468, Note_off_c, 1, 66, 64
4, 9625, Note_on_c, 1, 69, 82
4, 9631, Note_on_c, 1, 81, 91
4, 9634, Note_on_c, 1, 75, 82
4, 9634, Note_on_c, 1, 79, 82
4, 9682, Note_off_c, 1, 69, 64
4, 9682, Note_off_c, 1, 75, 64
4, 9683, Note_off_c, 1, 81, 64
4, 9683, Note_off_c, 1, 79, 64
4, 9710, Note_on_c, 1, 69, 91
4, 9712, Note_on_c, 1, 76, 91
4, 9712, Note_on_c, 1, 81, 82
4, 9713, Note_on_c, 1, 79, 91
4, 9763, Note_off_c, 1, 69, 64
4, 9769, Note_off_c, 1, 76, 64
4, 9769, Note_off_c, 1, 81, 64
4, 9769, Note_off_c, 1, 79, 64
4, 9788, Note_on_c, 1, 69, 91
4, 9790, Note_on_c, 1, 76, 91
4, 9792, Note_on_c, 1, 79, 91
4, 9792, Note_on_c, 1, 81, 82
4, 9843, Note_off_c, 1, 79, 64
4, 9846, Note_off_c, 1, 76, 64
4, 9847, Note_off_c, 1, 69, 64
4, 9847, Note_off_c, 1, 81, 64
4, 9872, Note_on_c, 1, 81, 91
4, 9875, Note_on_c, 1, 69, 82
4, 9875, Note_on_c, 1, 74, 100
4, 9876, Note_on_c, 1, 78, 91
4, 9936, Note_off_c, 1, 69, 64
4, 9936, Note_off_c, 1, 74, 64
4, 9942, Note_off_c, 1, 78, 64
4, 9965, Note_on_c, 1, 67, 73
4, 9966, Note_on_c, 1, 76, 100
4, 9966, Note_on_c, 1, 73, 82
4, 10007, Note_off_c, 1, 67, 64
4, 10008, Note_off_c, 1, 76, 64
4, 10015, Note_off_c, 1, 73, 64
4, 10029, Note_off_c, 1, 81, 64
4, 10112, Note_on_c, 1, 75, 100
4, 10118, Note_on_c, 1, 81, 82
4, 10118, Note_on_c, 1, 69, 91
4, 10118, Note_on_c, 1, 79, 109
4, 10187, Note_off_c, 1, 79, 64
4, 10206, Note_off_c, 1, 75, 64
4, 10231, Note_off_c, 1, 69, 64
4, 10239, Note_on_c, 1, 79, 73
4, 10269, Note_on_c, 1, 76, 82
4, 10270, Note_off_c, 1, 81, 64
4, 10280, Note_off_c, 1, 79, 64
4, 10286, Note_on_c, 1, 69, 82
4, 10299, Note_off_c, 1, 76, 64
4, 10360, Note_on_c, 1, 78, 100
4, 10362, Note_on_c, 1, 81, 73
4, 10365, Note_on_c, 1, 74, 100
4, 10455, Note_off_c, 1, 74, 64
4, 10456, Note_off_c, 1, 78, 64
4, 10470, Note_off_c, 1, 69, 64
4, 10472, Note_off_c, 1, 81, 64
4, 10525, Note_on_c, 1, 81, 91
4, 10525, Note_on_c, 1, 73, 100
4, 10529, Note_on_c, 1, 76, 100
4, 10532, Note_on_c, 1, 69, 91
4, 10633, Note_off_c, 1, 76, 64
4, 10641, Note_off_c, 1, 73, 64
4, 10647, Note_off_c, 1, 81, 64
4, 10647, Note_off_c, 1, 69, 64
4, 10686, Note_on_c, 1, 81, 91
4, 10687, Note_on_c, 1, 69, 91
4, 10689, Note_on_c, 1, 78, 100
4, 10689, Note_on_c, 1, 74, 100
4, 10753, Note_off_c, 1, 69, 64
4, 10799, Note_off_c, 1, 74, 64
4, 10805, Note_off_c, 1, 78, 64
4, 10812, Note_off_c, 1, 81, 64
4, 10929, Note_on_c, 1, 69, 100
4, 10931, Note_on_c, 1, 75, 91
4, 10931, Note_on_c, 1, 79, 100
4, 10931, Note_on_c, 1, 81, 91
4, 10987, Note_off_c, 1, 69, 64
4, 10990, Note_off_c, 1, 75, 64
4, 10998, Note_off_c, 1, 79, 64
4, 10998, Note_off_c, 1, 81, 64
4, 11090, Note_on_c, 1, 69, 73
4, 11117, Note_off_c, 1, 69, 64
4, 11173, Note_on_c, 1, 78, 91
4, 11174, Note_on_c, 1, 81, 91
4, 11176, Note_on_c, 1, 74, 100
4, 11177, Note_on_c, 1, 69, 100
4, 11218, Note_off_c, 1, 69, 64
4, 11228, Note_off_c, 1, 74, 64
4, 11230, Note_off_c, 1, 78, 64
4, 11238, Note_off_c, 1, 81, 64
4, 11256, Note_on_c, 1, 69, 91
4, 11256, Note_on_c, 1, 81, 73
4, 11257, Note_on_c, 1, 74, 82
4, 11259, Note_on_c, 1, 78, 91
4, 11304, Note_off_c, 1, 74, 64
4, 11309, Note_off_c, 1, 69, 64
4, 11311, Note_off_c, 1, 81, 64
4, 11313, Note_off_c, 1, 78, 64
4, 11342, Note_on_c, 1, 81, 91
4, 11343, Note_on_c, 1, 73, 100
4, 11343, Note_on_c, 1, 76, 91
4, 11345, Note_on_c, 1, 69, 91
4, 11363, Note_off_c, 1, 69, 64
4, 11402, Note_off_c, 1, 76, 64
4, 11408, Note_off_c, 1, 73, 64
4, 11408, Note_on_c, 1, 69, 73
4, 11415, Note_off_c, 1, 81, 64
4, 11477, Note_off_c, 1, 69, 64
4, 11486, Note_on_c, 1, 69, 60
4, 11495, Note_on_c, 1, 81, 91
4, 11495, Note_on_c, 1, 75, 91
4, 11495, Note_on_c, 1, 79, 100
4, 11548, Note_off_c, 1, 79, 64
4, 11554, Note_off_c, 1, 81, 64
4, 11556, Note_off_c, 1, 75, 64
4, 11571, Note_on_c, 1, 79, 82
4, 11575, Note_on_c, 1, 81, 82
4, 11575, Note_on_c, 1, 76, 91
4, 11622, Note_off_c, 1, 79, 64
4, 11627, Note_off_c, 1, 76, 64
4, 11629, Note_off_c, 1, 81, 64
4, 11635, Note_off_c, 1, 69, 64
4, 11661, Note_on_c, 1, 69, 91
4, 11663, Note_on_c, 1, 81, 91
4, 11663, Note_on_c, 1, 74, 100
4, 11664, Note_on_c, 1, 78, 100
4, 11746, Note_off_c, 1, 74, 64
4, 11748, Note_off_c, 1, 69, 64
4, 11748, Note_off_c, 1, 78, 64
4, 11753, Note_off_c, 1, 81, 64
4, 11820, Note_on_c, 1, 73, 91
4, 11822, Note_on_c, 1, 81, 91
4, 11823, Note_on_c, 1, 76, 91
4, 11827, Note_on_c, 1, 69, 100
4, 11934, Note_off_c, 1, 76, 64
4, 11951, Note_off_c, 1, 73, 64
4, 11951, Note_off_c, 1, 81, 64
4, 11952, Note_off_c, 1, 69, 64
4, 11989, Note_on_c, 1, 81, 91
4, 11992, Note_on_c, 1, 74, 100
4, 11995, Note_on_c, 1, 69, 91
4, 11998, Note_on_c, 1, 78, 91
4, 12050, Note_off_c, 1, 69, 64
4, 12051, Note_off_c, 1, 74, 64
4, 12058, Note_off_c, 1, 81, 64
4, 12058, Note_off_c, 1, 78, 64
4, 12138, Note_on_c, 1, 74, 91
4, 12145, Note_on_c, 1, 80, 100
4, 12146, Note_on_c, 1, 84, 91
4, 12148, Note_on_c, 1, 86, 82
4, 12153, Note_on_c, 1, 81, 91
4, 12157, Note_off_c, 1, 80, 64
4, 12200, Note_off_c, 1, 84, 64
4, 12201, Note_off_c, 1, 74, 64
4, 12203, Note_off_c, 1, 81, 64
4, 12205, Note_off_c, 1, 86, 64
4, 12223, Note_on_c, 1, 74, 82
4, 12225, Note_on_c, 1, 81, 91
4, 12225, Note_on_c, 1, 86, 91
4, 12228, Note_on_c, 1, 84, 91
4, 12275, Note_off_c, 1, 84, 64
4, 12276, Note_off_c, 1, 81, 64
4, 12278, Note_off_c, 1, 86, 64
4, 12283, Note_off_c, 1, 74, 64
4, 12306, Note_on_c, 1, 79, 100
4, 12308, Note_on_c, 1, 74, 91
4, 12309, Note_on_c, 1, 83, 109
4, 12309, Note_on_c, 1, 86, 91
4, 12377, Note_off_c, 1, 83, 64
4, 12383, Note_off_c, 1, 79, 64
4, 12383, Note_off_c, 1, 86, 64
4, 12386, Note_off_c, 1, 74, 64
4, 12465, Note_on_c, 1, 74, 91
4, 12469, Note_on_c, 1, 86, 91
4, 12469, Note_on_c, 1, 81, 91
4, 12471, Note_on_c, 1, 78, 100
4, 12528, Note_off_c, 1, 81, 64
4, 12530, Note_off_c, 1, 78, 64
4, 12531, Note_off_c, 1, 74, 64
4, 12536, Note_off_c, 1, 86, 64
4, 12557, Note_on_c, 1, 74, 82
4, 12558, Note_on_c, 1, 83, 91
4, 12560, Note_on_c, 1, 86, 64
4, 12564, Note_on_c, 1, 79, 100
4, 12616, Note_off_c, 1, 83, 64
4, 12621, Note_off_c, 1, 79, 64
4, 12624, Note_off_c, 1, 74, 64
4, 12624, Note_off_c, 1, 86, 64
4, 12712, Note_on_c, 1, 84, 100
4, 12712, Note_on_c, 1, 74, 100
4, 12713, Note_on_c, 1, 80, 100
4, 12713, Note_on_c, 1, 86, 91
4, 12773, Note_off_c, 1, 84, 64
4, 12778, Note_off_c, 1, 86, 64
4, 12786, Note_off_c, 1, 80, 64
4, 12813, Note_off_c, 1, 74, 64
4, 12819, Note_on_c, 1, 86, 52
4, 12833, Note_on_c, 1, 84, 64
4, 12852, Note_on_c, 1, 81, 91
4, 12864, Note_off_c, 1, 86, 64
4, 12867, Note_off_c, 1, 84, 64
4, 12878, Note_on_c, 1, 74, 100
4, 12888, Note_off_c, 1, 81, 64
4, 12945, Note_on_c, 1, 83, 100
4, 12947, Note_on_c, 1, 86, 91
4, 12954, Note_on_c, 1, 79, 109
4, 13045, Note_off_c, 1, 79, 64
4, 13048, Note_off_c, 1, 83, 64
4, 13050, Note_off_c, 1, 86, 64
4, 13061, Note_off_c, 1, 74, 64
4, 13114, Note_on_c, 1, 78, 91
4, 13117, Note_on_c, 1, 86, 91
4, 13117, Note_on_c, 1, 74, 100
4, 13120, Note_on_c, 1, 81, 91
4, 13234, Note_off_c, 1, 81, 64
4, 13250, Note_off_c, 1, 78, 64
4, 13250, Note_off_c, 1, 86, 64
4, 13253, Note_off_c, 1, 74, 64
4, 13286, Note_on_c, 1, 86, 91
4, 13286, Note_on_c, 1, 79, 100
4, 13287, Note_on_c, 1, 83, 100
4, 13287, Note_on_c, 1, 74, 91
4, 13341, Note_off_c, 1, 83, 64
4, 13348, Note_off_c, 1, 86, 64
4, 13349, Note_off_c, 1, 79, 64
4, 13357, Note_off_c, 1, 74, 64
4, 13436, Note_on_c, 1, 81, 82
4, 13443, Note_on_c, 1, 79, 91
4, 13443, Note_on_c, 1, 75, 91
4, 13444, Note_on_c, 1, 69, 91
4, 13487, Note_off_c, 1, 69, 64
4, 13493, Note_off_c, 1, 81, 64
4, 13495, Note_off_c, 1, 79, 64
4, 13497, Note_off_c, 1, 75, 64
4, 13522, Note_on_c, 1, 79, 73
4, 13524, Note_on_c, 1, 69, 82
4, 13524, Note_on_c, 1, 81, 82
4, 13525, Note_on_c, 1, 76, 91
4, 13569, Note_off_c, 1, 79, 64
4, 13575, Note_off_c, 1, 81, 64
4, 13575, Note_off_c, 1, 76, 64
4, 13582, Note_off_c, 1, 69, 64
4, 13605, Note_on_c, 1, 74, 91
4, 13607, Note_on_c, 1, 69, 91
4, 13607, Note_on_c, 1, 81, 82
4, 13608, Note_on_c, 1, 78, 100
4, 13693, Note_off_c, 1, 74, 64
4, 13697, Note_off_c, 1, 69, 64
4, 13705, Note_off_c, 1, 78, 64
4, 13710, Note_off_c, 1, 81, 64
4, 13770, Note_on_c, 1, 81, 91
4, 13772, Note_on_c, 1, 73, 91
4, 13772, Note_on_c, 1, 76, 91
4, 13772, Note_on_c, 1, 69, 91
4, 13826, Note_off_c, 1, 76, 64
4, 13828, Note_off_c, 1, 69, 64
4, 13831, Note_off_c, 1, 73, 64
4, 13835, Note_off_c, 1, 81, 64
4, 13852, Note_on_c, 1, 81, 91
4, 13856, Note_on_c, 1, 69, 82
4, 13856, Note_on_c, 1, 78, 91
4, 13857, Note_on_c, 1, 74, 100
4, 13919, Note_off_c, 1, 74, 64
4, 13922, Note_off_c, 1, 69, 64
4, 13922, Note_off_c, 1, 78, 64
4, 13931, Note_off_c, 1, 81, 64
4, 14011, Note_on_c, 1, 79, 100
4, 14011, Note_on_c, 1, 81, 91
4, 14011, Note_on_c, 1, 69, 100
4, 14014, Note_on_c, 1, 75, 91
4, 14058, Note_off_c, 1, 69, 64
4, 14063, Note_off_c, 1, 81, 64
4, 14067, Note_off_c, 1, 79, 64
4, 14070, Note_off_c, 1, 75, 64
4, 14091, Note_on_c, 1, 69, 82
4, 14093, Note_on_c, 1, 79, 82
4, 14094, Note_on_c, 1, 76, 91
4, 14094, Note_on_c, 1, 81, 73
4, 14147, Note_off_c, 1, 79, 64
4, 14148, Note_off_c, 1, 69, 64
4, 14148, Note_off_c, 1, 76, 64
4, 14148, Note_off_c, 1, 81, 64
4, 14168, Note_on_c, 1, 76, 91
4, 14170, Note_on_c, 1, 69, 82
4, 14172, Note_on_c, 1, 81, 73
4, 14172, Note_on_c, 1, 79, 82
4, 14219, Note_off_c, 1, 79, 64
4, 14223, Note_off_c, 1, 76, 64
4, 14225, Note_off_c, 1, 81, 64
4, 14227, Note_off_c, 1, 69, 64
4, 14254, Note_on_c, 1, 81, 91
4, 14256, Note_on_c, 1, 69, 82
4, 14256, Note_on_c, 1, 74, 100
4, 14259, Note_on_c, 1, 78, 91
4, 14341, Note_off_c, 1, 74, 64
4, 14346, Note_off_c, 1, 69, 64
4, 14346, Note_off_c, 1, 78, 64
4, 14355, Note_off_c, 1, 81, 64
4, 14415, Note_on_c, 1, 73, 100
4, 14417, Note_on_c, 1, 76, 100
4, 14419, Note_on_c, 1, 81, 100
4, 14421, Note_on_c, 1, 69, 91
4, 14531, Note_off_c, 1, 76, 64
4, 14546, Note_off_c, 1, 69, 64
4, 14552, Note_off_c, 1, 73, 64
4, 14556, Note_off_c, 1, 81, 64
4, 14582, Note_on_c, 1, 78, 91
4, 14584, Note_on_c, 1, 81, 82
4, 14587, Note_on_c, 1, 74, 82
4, 14588, Note_on_c, 1, 69, 91
4, 14635, Note_off_c, 1, 78, 64
4, 14637, Note_off_c, 1, 81, 64
4, 14638, Note_off_c, 1, 74, 64
4, 14645, Note_off_c, 1, 69, 64
4, 14733, Note_on_c, 1, 64, 91
4, 14737, Note_on_c, 1, 71, 91
4, 14739, Note_on_c, 1, 74, 91
4, 14739, Note_on_c, 1, 76, 91
4, 14786, Note_off_c, 1, 64, 64
4, 14789, Note_off_c, 1, 74, 64
4, 14789, Note_off_c, 1, 76, 64
4, 14793, Note_off_c, 1, 71, 64
4, 14822, Note_on_c, 1, 71, 82
4, 14822, Note_on_c, 1, 64, 91
4, 14823, Note_on_c, 1, 76, 82
4, 14823, Note_on_c, 1, 74, 82
4, 14867, Note_off_c, 1, 74, 64
4, 14872, Note_off_c, 1, 71, 64
4, 14873, Note_off_c, 1, 76, 64
4, 14877, Note_off_c, 1, 64, 64
4, 14902, Note_on_c, 1, 76, 91
4, 14903, Note_on_c, 1, 69, 91
4, 14903, Note_on_c, 1, 64, 82
4, 14905, Note_on_c, 1, 73, 91
4, 14991, Note_off_c, 1, 69, 64
4, 14991, Note_off_c, 1, 64, 64
4, 14997, Note_off_c, 1, 73, 64
4, 15001, Note_off_c, 1, 76, 64
4, 15064, Note_on_c, 1, 71, 100
4, 15067, Note_on_c, 1, 68, 91
4, 15067, Note_on_c, 1, 76, 82
4, 15067, Note_on_c, 1, 64, 91
4, 15124, Note_off_c, 1, 71, 64
4, 15127, Note_off_c, 1, 64, 64
4, 15134, Note_off_c, 1, 68, 64
4, 15134, Note_off_c, 1, 76, 64
4, 15158, Note_on_c, 1, 76, 82
4, 15160, Note_on_c, 1, 69, 100
4, 15160, Note_on_c, 1, 64, 73
4, 15162, Note_on_c, 1, 73, 100
4, 15218, Note_off_c, 1, 69, 64
4, 15220, Note_off_c, 1, 76, 64
4, 15220, Note_off_c, 1, 64, 64
4, 15220, Note_off_c, 1, 73, 64
4, 15298, Note_on_c, 1, 62, 100
4, 15299, Note_on_c, 1, 69, 91
4, 15299, Note_on_c, 1, 72, 100
4, 15301, Note_on_c, 1, 74, 91
4, 15379, Note_off_c, 1, 74, 64
4, 15379, Note_off_c, 1, 72, 64
4, 15394, Note_off_c, 1, 69, 64
4, 15418, Note_on_c, 1, 74, 64
4, 15423, Note_off_c, 1, 62, 64
4, 15435, Note_on_c, 1, 72, 64
4, 15455, Note_on_c, 1, 69, 82
4, 15468, Note_off_c, 1, 74, 64
4, 15474, Note_on_c, 1, 62, 82
4, 15477, Note_off_c, 1, 72, 64
4, 15490, Note_off_c, 1, 69, 64
4, 15545, Note_on_c, 1, 74, 91
4, 15545, Note_on_c, 1, 71, 91
4, 15545, Note_on_c, 1, 67, 100
4, 15639, Note_off_c, 1, 71, 64
4, 15643, Note_off_c, 1, 67, 64
4, 15646, Note_off_c, 1, 74, 64
4, 15657, Note_off_c, 1, 62, 64
4, 15712, Note_on_c, 1, 66, 91
4, 15715, Note_on_c, 1, 74, 82
4, 15717, Note_on_c, 1, 69, 91
4, 15717, Note_on_c, 1, 62, 82
4, 15831, Note_off_c, 1, 69, 64
4, 15839, Note_off_c, 1, 74, 64
4, 15845, Note_off_c, 1, 66, 64
4, 15845, Note_off_c, 1, 62, 64
4, 15877, Note_on_c, 1, 62, 100
4, 15880, Note_on_c, 1, 67, 100
4, 15884, Note_on_c, 1, 74, 73
4, 15884, Note_on_c, 1, 71, 100
4, 15955, Note_off_c, 1, 62, 64
4, 15955, Note_off_c, 1, 67, 64
4, 15959, Note_off_c, 1, 71, 64
4, 15965, Note_off_c, 1, 74, 64
4, 16117, Note_on_c, 1, 81, 91
4, 16117, Note_on_c, 1, 69, 100
4, 16117, Note_on_c, 1, 76, 100
4, 16177, Note_off_c, 1, 76, 64
4, 16177, Note_off_c, 1, 69, 64
4, 16181, Note_off_c, 1, 81, 64
4, 16194, Note_on_c, 1, 69, 91
4, 16196, Note_on_c, 1, 76, 100
4, 16198, Note_on_c, 1, 81, 82
4, 16263, Note_off_c, 1, 69, 64
4, 16279, Note_off_c, 1, 76, 64
4, 16284, Note_off_c, 1, 81, 64
4, 16286, Note_on_c, 1, 69, 82
4, 16361, Note_on_c, 1, 79, 100
4, 16362, Note_on_c, 1, 75, 100
4, 16366, Note_on_c, 1, 81, 91
4, 16422, Note_off_c, 1, 81, 64
4, 16423, Note_off_c, 1, 79, 64
4, 16426, Note_off_c, 1, 75, 64
4, 16446, Note_on_c, 1, 76, 91
4, 16448, Note_on_c, 1, 81, 91
4, 16450, Note_on_c, 1, 79, 82
4, 16504, Note_off_c, 1, 69, 64
4, 16508, Note_off_c, 1, 81, 64
4, 16508, Note_off_c, 1, 79, 64
4, 16511, Note_off_c, 1, 76, 64
4, 16564, Note_on_c, 1, 72, 48
4, 16566, Note_on_c, 1, 71, 73
4, 16577, Note_off_c, 1, 72, 64
4, 16587, Note_on_c, 1, 72, 56
4, 16597, Note_on_c, 1, 74, 64
4, 16606, Note_off_c, 1, 71, 64
4, 16608, Note_on_c, 1, 76, 64
4, 16615, Note_off_c, 1, 72, 64
4, 16616, Note_on_c, 1, 77, 64
4, 16626, Note_on_c, 1, 79, 60
4, 16631, Note_off_c, 1, 74, 64
4, 16632, Note_off_c, 1, 76, 64
4, 16634, Note_on_c, 1, 81, 73
4, 16637, Note_off_c, 1, 77, 64
4, 16637, Note_on_c, 1, 83, 82
4, 16644, Note_off_c, 1, 79, 64
4, 16644, Note_on_c, 1, 84, 82
4, 16647, Note_off_c, 1, 81, 64
4, 16649, Note_on_c, 1, 86, 91
4, 16654, Note_off_c, 1, 83, 64
4, 16654, Note_on_c, 1, 88, 91
4, 16660, Note_on_c, 1, 89, 91
4, 16664, Note_off_c, 1, 84, 64
4, 16666, Note_off_c, 1, 88, 64
4, 16666, Note_on_c, 1, 91, 91
4, 16667, Note_off_c, 1, 86, 64
4, 16669, Note_on_c, 1, 93, 91
4, 16671, Note_off_c, 1, 89, 64
4, 16673, Note_off_c, 1, 91, 64
4, 16675, Note_on_c, 1, 95, 100
4, 16678, Note_off_c, 1, 93, 64
4, 16680, Note_on_c, 1, 96, 100
4, 16685, Note_off_c, 1, 95, 64
4, 16708, Note_on_c, 1, 95, 73
4, 16717, Note_on_c, 1, 93, 91
4, 16720, Note_off_c, 1, 96, 64
4, 16727, Note_on_c, 1, 91, 91
4, 16730, Note_off_c, 1, 95, 64
4, 16736, Note_on_c, 1, 89, 91
4, 16739, Note_off_c, 1, 93, 64
4, 16746, Note_on_c, 1, 88, 82
4, 16747, Note_off_c, 1, 91, 64
4, 16754, Note_on_c, 1, 86, 91
4, 16760, Note_off_c, 1, 89, 64
4, 16766, Note_on_c, 1, 84, 91
4, 16767, Note_off_c, 1, 88, 64
4, 16774, Note_on_c, 1, 83, 82
4, 16780, Note_off_c, 1, 86, 64
4, 16786, Note_on_c, 1, 81, 82
4, 16793, Note_off_c, 1, 84, 64
4, 16796, Note_on_c, 1, 79, 73
4, 16803, Note_off_c, 1, 83, 64
4, 16808, Note_on_c, 1, 77, 56
4, 16813, Note_off_c, 1, 81, 64
4, 16822, Note_on_c, 1, 76, 48
4, 16826, Note_off_c, 1, 79, 64
4, 16833, Note_on_c, 1, 74, 60
4, 16839, Note_off_c, 1, 77, 64
4, 16845, Note_on_c, 1, 72, 60
4, 16849, Note_off_c, 1, 76, 64
4, 16859, Note_on_c, 1, 71, 52
4, 16862, Note_off_c, 1, 74, 64
4, 16872, Note_on_c, 1, 69, 48
4, 16877, Note_off_c, 1, 72, 64
4, 16886, Note_on_c, 1, 67, 36
4, 16890, Note_off_c, 1, 71, 64
4, 16899, Note_on_c, 1, 65, 48
4, 16902, Note_off_c, 1, 69, 64
4, 16916, Note_on_c, 1, 64, 52
4, 16920, Note_off_c, 1, 67, 64
4, 16930, Note_on_c, 1, 62, 60
4, 16935, Note_off_c, 1, 65, 64
4, 16945, Note_on_c, 1, 60, 64
4, 16946, Note_off_c, 1, 64, 64
4, 16958, Note_off_c, 1, 62, 64
4, 16958, Note_on_c, 1, 59, 73
4, 16975, Note_off_c, 1, 60, 64
4, 16978, Note_on_c, 1, 57, 64
4, 16991, Note_off_c, 1, 59, 64
4, 16998, Note_off_c, 1, 57, 64
4, 17172, Note_on_c, 1, 57, 91
4, 17175, Note_on_c, 1, 62, 100
4, 17175, Note_on_c, 1, 69, 100
4, 17176, Note_on_c, 1, 66, 91
4, 17304, Note_off_c, 1, 62, 64
4, 17309, Note_off_c, 1, 66, 64
4, 17313, Note_off_c, 1, 57, 64
4, 17315, Note_off_c, 1, 69, 64
4, 17337, Note_on_c, 1, 57, 82
4, 17337, Note_on_c, 1, 69, 64
4, 17337, Note_on_c, 1, 61, 82
4, 17339, Note_on_c, 1, 64, 82
4, 17408, Note_off_c, 1, 57, 64
4, 17410, Note_off_c, 1, 64, 64
4, 17416, Note_off_c, 1, 61, 64
4, 17428, Note_off_c, 1, 69, 64
4, 17496, Note_on_c, 1, 69, 82
4, 17496, Note_on_c, 1, 57, 91
4, 17498, Note_on_c, 1, 63, 100
4, 17498, Note_on_c, 1, 67, 100
4, 17531, Note_on_c, 1, 64, 64
4, 17545, Note_off_c, 1, 63, 64
4, 17597, Note_off_c, 1, 67, 64
4, 17607, Note_off_c, 1, 64, 64
4, 17609, Note_off_c, 1, 69, 64
4, 17650, Note_on_c, 1, 62, 91
4, 17651, Note_on_c, 1, 69, 82
4, 17655, Note_on_c, 1, 66, 91
4, 17719, Note_off_c, 1, 62, 64
4, 17722, Note_off_c, 1, 57, 64
4, 17725, Note_off_c, 1, 66, 64
4, 17741, Note_on_c, 1, 57, 73
4, 17744, Note_on_c, 1, 61, 82
4, 17746, Note_on_c, 1, 64, 91
4, 17786, Note_off_c, 1, 64, 64
4, 17798, Note_off_c, 1, 61, 64
4, 17799, Note_off_c, 1, 57, 64
4, 17803, Note_off_c, 1, 69, 64
4, 17822, Note_on_c, 1, 45, 32
4, 17839, Note_off_c, 1, 45, 64
4, 17902, Note_on_c, 1, 57, 91
4, 17905, Note_on_c, 1, 62, 100
4, 17905, Note_on_c, 1, 69, 73
4, 17907, Note_on_c, 1, 66, 91
4, 17985, Note_off_c, 1, 62, 64
4, 17989, Note_off_c, 1, 66, 64
4, 17991, Note_off_c, 1, 57, 64
4, 17991, Note_off_c, 1, 69, 64
4, 18065, Note_on_c, 1, 57, 91
4, 18068, Note_on_c, 1, 66, 100
4, 18068, Note_on_c, 1, 69, 82
4, 18069, Note_on_c, 1, 62, 91
4, 18151, Note_off_c, 1, 62, 64
4, 18153, Note_off_c, 1, 66, 64
4, 18160, Note_off_c, 1, 57, 64
4, 18160, Note_off_c, 1, 69, 64
4, 18223, Note_on_c, 1, 45, 73
4, 18285, Note_off_c, 1, 45, 64
4, 18307, Note_on_c, 1, 69, 91
4, 18310, Note_on_c, 1, 67, 91
4, 18310, Note_on_c, 1, 57, 82
4, 18310, Note_on_c, 1, 63, 100
4, 18319, Note_off_c, 1, 57, 64
4, 18368, Note_off_c, 1, 63, 64
4, 18368, Note_on_c, 1, 64, 82
4, 18383, Note_on_c, 1, 45, 56
4, 18397, Note_off_c, 1, 67, 64
4, 18399, Note_off_c, 1, 64, 64
4, 18409, Note_off_c, 1, 69, 64
4, 18467, Note_off_c, 1, 45, 64
4, 18467, Note_on_c, 1, 57, 82
4, 18469, Note_on_c, 1, 66, 91
4, 18471, Note_on_c, 1, 62, 91
4, 18472, Note_on_c, 1, 69, 82
4, 18548, Note_on_c, 1, 45, 48
4, 18568, Note_off_c, 1, 66, 64
4, 18571, Note_off_c, 1, 62, 64
4, 18578, Note_off_c, 1, 69, 64
4, 18580, Note_off_c, 1, 45, 64
4, 18584, Note_off_c, 1, 57, 64
4, 18627, Note_on_c, 1, 45, 60
4, 18779, Note_off_c, 1, 45, 64
4, 18796, Note_on_c, 1, 57, 91
4, 18796, Note_on_c, 1, 61, 100
4, 18796, Note_on_c, 1, 64, 100
4, 18798, Note_on_c, 1, 69, 91
4, 18867, Note_off_c, 1, 64, 64
4, 18869, Note_off_c, 1, 61, 64
4, 18872, Note_on_c, 1, 45, 60
4, 18874, Note_off_c, 1, 69, 64
4, 18875, Note_off_c, 1, 57, 64
4, 18931, Note_off_c, 1, 45, 64
4, 18960, Note_on_c, 1, 57, 91
4, 18961, Note_on_c, 1, 66, 91
4, 18962, Note_on_c, 1, 69, 60
4, 18962, Note_on_c, 1, 62, 100
4, 19012, Note_off_c, 1, 62, 64
4, 19013, Note_off_c, 1, 57, 64
4, 19015, Note_off_c, 1, 69, 64
4, 19016, Note_off_c, 1, 66, 64
4, 19030, Note_on_c, 1, 57, 73
4, 19038, Note_on_c, 1, 69, 91
4, 19038, Note_on_c, 1, 64, 91
4, 19049, Note_on_c, 1, 59, 16
4, 19064, Note_off_c, 1, 59, 64
4, 19110, Note_off_c, 1, 64, 64
4, 19118, Note_off_c, 1, 57, 64
4, 19119, Note_off_c, 1, 69, 64
4, 19131, Note_on_c, 1, 45, 64
4, 19204, Note_on_c, 1, 64, 100
4, 19206, Note_on_c, 1, 57, 91
4, 19206, Note_on_c, 1, 67, 100
4, 19206, Note_on_c, 1, 69, 82
4, 19210, Note_off_c, 1, 45, 64
4, 19253, Note_off_c, 1, 57, 64
4, 19255, Note_off_c, 1, 64, 64
4, 19258, Note_off_c, 1, 67, 64
4, 19262, Note_off_c, 1, 69, 64
4, 19283, Note_on_c, 1, 67, 82
4, 19284, Note_on_c, 1, 57, 73
4, 19286, Note_on_c, 1, 69, 82
4, 19286, Note_on_c, 1, 64, 82
4, 19333, Note_off_c, 1, 57, 64
4, 19335, Note_off_c, 1, 64, 64
4, 19336, Note_off_c, 1, 67, 64
4, 19339, Note_off_c, 1, 69, 64
4, 19356, Note_on_c, 1, 67, 73
4, 19356, Note_on_c, 1, 69, 64
4, 19356, Note_on_c, 1, 57, 64
4, 19356, Note_on_c, 1, 64, 73
4, 19412, Note_off_c, 1, 67, 64
4, 19415, Note_off_c, 1, 64, 64
4, 19419, Note_off_c, 1, 69, 64
4, 19422, Note_off_c, 1, 57, 64
4, 19446, Note_on_c, 1, 57, 64
4, 19447, Note_on_c, 1, 69, 91
4, 19447, Note_on_c, 1, 62, 100
4, 19448, Note_on_c, 1, 66, 100
4, 19518, Note_off_c, 1, 57, 64
4, 19522, Note_off_c, 1, 62, 64
4, 19524, Note_off_c, 1, 66, 64
4, 19525, Note_on_c, 1, 45, 52
4, 19532, Note_off_c, 1, 69, 64
4, 19574, Note_off_c, 1, 45, 64
4, 19604, Note_on_c, 1, 69, 82
4, 19608, Note_on_c, 1, 55, 82
4, 19608, Note_on_c, 1, 61, 100
4, 19608, Note_on_c, 1, 64, 100
4, 19681, Note_off_c, 1, 64, 64
4, 19686, Note_on_c, 1, 45, 56
4, 19688, Note_off_c, 1, 55, 64
4, 19688, Note_off_c, 1, 61, 64
4, 19691, Note_off_c, 1, 69, 64
4, 19727, Note_off_c, 1, 45, 64
4, 19769, Note_on_c, 1, 57, 91
4, 19770, Note_on_c, 1, 66, 91
4, 19770, Note_on_c, 1, 69, 73
4, 19770, Note_on_c, 1, 62, 100
4, 19845, Note_off_c, 1, 66, 64
4, 19845, Note_off_c, 1, 69, 64
4, 19845, Note_off_c, 1, 62, 64
4, 19849, Note_on_c, 1, 45, 36
4, 19866, Note_off_c, 1, 45, 64
4, 20011, Note_on_c, 1, 45, 56
4, 20045, Note_off_c, 1, 45, 64
4, 20093, Note_on_c, 1, 69, 91
4, 20094, Note_on_c, 1, 67, 91
4, 20094, Note_on_c, 1, 63, 91
4, 20151, Note_off_c, 1, 63, 64
4, 20155, Note_on_c, 1, 64, 52
4, 20162, Note_on_c, 1, 45, 56
4, 20183, Note_off_c, 1, 64, 64
4, 20186, Note_off_c, 1, 67, 64
4, 20194, Note_off_c, 1, 69, 64
4, 20209, Note_off_c, 1, 45, 64
4, 20246, Note_on_c, 1, 69, 91
4, 20246, Note_on_c, 1, 62, 100
4, 20247, Note_on_c, 1, 66, 91
4, 20303, Note_off_c, 1, 62, 64
4, 20306, Note_off_c, 1, 66, 64
4, 20322, Note_off_c, 1, 69, 64
4, 20333, Note_on_c, 1, 69, 73
4, 20335, Note_on_c, 1, 61, 82
4, 20335, Note_on_c, 1, 64, 82
4, 20376, Note_off_c, 1, 64, 64
4, 20389, Note_off_c, 1, 61, 64
4, 20391, Note_off_c, 1, 69, 64
4, 20409, Note_on_c, 1, 45, 56
4, 20480, Note_off_c, 1, 45, 64
4, 20499, Note_on_c, 1, 69, 82
4, 20501, Note_on_c, 1, 67, 91
4, 20501, Note_on_c, 1, 63, 100
4, 20558, Note_off_c, 1, 67, 64
4, 20567, Note_off_c, 1, 69, 64
4, 20571, Note_off_c, 1, 63, 64
4, 20602, Note_on_c, 1, 69, 40
4, 20605, Note_off_c, 1, 57, 64
4, 20613, Note_on_c, 1, 67, 73
4, 20636, Note_on_c, 1, 64, 73
4, 20643, Note_off_c, 1, 69, 64
4, 20652, Note_off_c, 1, 67, 64
4, 20660, Note_on_c, 1, 57, 82
4, 20668, Note_off_c, 1, 64, 64
4, 20734, Note_on_c, 1, 69, 91
4, 20737, Note_on_c, 1, 62, 100
4, 20737, Note_on_c, 1, 66, 100
4, 20817, Note_off_c, 1, 66, 64
4, 20820, Note_off_c, 1, 62, 64
4, 20820, Note_on_c, 1, 45, 60
4, 20828, Note_off_c, 1, 69, 64
4, 20836, Note_off_c, 1, 57, 64
4, 20886, Note_off_c, 1, 45, 64
4, 20896, Note_on_c, 1, 57, 91
4, 20896, Note_on_c, 1, 61, 100
4, 20900, Note_on_c, 1, 64, 91
4, 20900, Note_on_c, 1, 69, 91
4, 20977, Note_off_c, 1, 64, 64
4, 20979, Note_off_c, 1, 69, 64
4, 20979, Note_on_c, 1, 45, 60
4, 20985, Note_off_c, 1, 61, 64
4, 20987, Note_off_c, 1, 57, 64
4, 21036, Note_off_c, 1, 45, 64
4, 21058, Note_on_c, 1, 57, 91
4, 21063, Note_on_c, 1, 62, 100
4, 21066, Note_on_c, 1, 66, 100
4, 21067, Note_on_c, 1, 69, 91
4, 21137, Note_off_c, 1, 62, 64
4, 21137, Note_on_c, 1, 45, 60
4, 21140, Note_off_c, 1, 66, 64
4, 21145, Note_off_c, 1, 69, 64
4, 21168, Note_off_c, 1, 45, 64
4, 21228, Note_on_c, 1, 45, 73
4, 21270, Note_off_c, 1, 45, 64
4, 21300, Note_on_c, 1, 63, 100
4, 21302, Note_on_c, 1, 69, 82
4, 21302, Note_on_c, 1, 67, 91
4, 21358, Note_off_c, 1, 67, 64
4, 21359, Note_off_c, 1, 69, 64
4, 21366, Note_off_c, 1, 63, 64
4, 21383, Note_on_c, 1, 67, 82
4, 21383, Note_on_c, 1, 69, 82
4, 21383, Note_on_c, 1, 64, 91
4, 21445, Note_off_c, 1, 67, 64
4, 21448, Note_off_c, 1, 64, 64
4, 21452, Note_off_c, 1, 69, 64
4, 21458, Note_on_c, 1, 45, 60
4, 21462, Note_off_c, 1, 57, 64
4, 21548, Note_on_c, 1, 57, 91
4, 21548, Note_on_c, 1, 69, 91
4, 21553, Note_on_c, 1, 63, 91
4, 21554, Note_on_c, 1, 67, 91
4, 21557, Note_off_c, 1, 45, 64
4, 21611, Note_off_c, 1, 57, 64
4, 21611, Note_off_c, 1, 69, 64
4, 21614, Note_off_c, 1, 67, 64
4, 21615, Note_off_c, 1, 63, 64
4, 21625, Note_on_c, 1, 57, 73
4, 21626, Note_on_c, 1, 67, 64
4, 21628, Note_on_c, 1, 69, 73
4, 21628, Note_on_c, 1, 64, 91
4, 21697, Note_off_c, 1, 64, 64
4, 21700, Note_off_c, 1, 67, 64
4, 21703, Note_off_c, 1, 69, 64
4, 21707, Note_off_c, 1, 57, 64
4, 21707, Note_on_c, 1, 45, 60
4, 21796, Note_on_c, 1, 57, 100
4, 21797, Note_on_c, 1, 63, 100
4, 21797, Note_on_c, 1, 67, 100
4, 21797, Note_on_c, 1, 69, 91
4, 21800, Note_off_c, 1, 45, 64
4, 21845, Note_off_c, 1, 69, 64
4, 21850, Note_off_c, 1, 57, 64
4, 21855, Note_off_c, 1, 67, 64
4, 21858, Note_off_c, 1, 63, 64
4, 21872, Note_on_c, 1, 57, 73
4, 21872, Note_on_c, 1, 67, 73
4, 21872, Note_on_c, 1, 69, 73
4, 21880, Note_on_c, 1, 64, 82
4, 21926, Note_off_c, 1, 57, 64
4, 21932, Note_off_c, 1, 67, 64
4, 21932, Note_off_c, 1, 64, 64
4, 21939, Note_off_c, 1, 69, 64
4, 21957, Note_on_c, 1, 69, 73
4, 21957, Note_on_c, 1, 64, 82
4, 21958, Note_on_c, 1, 67, 73
4, 21958, Note_on_c, 1, 57, 73
4, 22005, Note_off_c, 1, 67, 64
4, 22011, Note_off_c, 1, 64, 64
4, 22014, Note_off_c, 1, 69, 64
4, 22015, Note_off_c, 1, 57, 64
4, 22046, Note_on_c, 1, 69, 91
4, 22049, Note_on_c, 1, 62, 91
4, 22051, Note_on_c, 1, 57, 91
4, 22053, Note_on_c, 1, 66, 82
4, 22122, Note_on_c, 1, 45, 56
4, 22125, Note_off_c, 1, 57, 64
4, 22128, Note_off_c, 1, 62, 64
4, 22130, Note_off_c, 1, 66, 64
4, 22131, Note_off_c, 1, 69, 64
4, 22190, Note_off_c, 1, 45, 64
4, 22201, Note_on_c, 1, 61, 91
4, 22205, Note_on_c, 1, 69, 82
4, 22205, Note_on_c, 1, 57, 82
4, 22207, Note_on_c, 1, 64, 73
4, 22277, Note_on_c, 1, 45, 56
4, 22285, Note_off_c, 1, 64, 64
4, 22294, Note_off_c, 1, 61, 64
4, 22295, Note_off_c, 1, 57, 64
4, 22299, Note_off_c, 1, 69, 64
4, 22336, Note_off_c, 1, 45, 64
4, 22358, Note_on_c, 1, 57, 91
4, 22366, Note_on_c, 1, 62, 100
4, 22366, Note_on_c, 1, 69, 82
4, 22368, Note_on_c, 1, 66, 91
4, 22447, Note_off_c, 1, 57, 64
4, 22447, Note_on_c, 1, 45, 16
4, 22449, Note_off_c, 1, 62, 64
4, 22456, Note_off_c, 1, 66, 64
4, 22458, Note_off_c, 1, 69, 64
4, 22466, Note_off_c, 1, 45, 64
4, 22603, Note_on_c, 1, 69, 82
4, 22604, Note_on_c, 1, 79, 100
4, 22607, Note_on_c, 1, 76, 91
4, 22610, Note_on_c, 1, 81, 91
4, 22641, Note_off_c, 1, 69, 64
4, 22645, Note_off_c, 1, 76, 64
4, 22654, Note_off_c, 1, 81, 64
4, 22655, Note_off_c, 1, 79, 64
4, 22685, Note_on_c, 1, 79, 91
4, 22687, Note_on_c, 1, 69, 91
4, 22689, Note_on_c, 1, 81, 91
4, 22690, Note_on_c, 1, 76, 91
4, 22735, Note_off_c, 1, 69, 64
4, 22740, Note_off_c, 1, 79, 64
4, 22740, Note_off_c, 1, 76, 64
4, 22743, Note_off_c, 1, 81, 64
4, 22762, Note_on_c, 1, 76, 91
4, 22768, Note_on_c, 1, 69, 91
4, 22770, Note_on_c, 1, 79, 82
4, 22773, Note_on_c, 1, 81, 73
4, 22812, Note_off_c, 1, 79, 64
4, 22813, Note_off_c, 1, 81, 64
4, 22815, Note_off_c, 1, 76, 64
4, 22816, Note_off_c, 1, 69, 64
4, 22851, Note_on_c, 1, 69, 73
4, 22852, Note_on_c, 1, 74, 100
4, 22854, Note_on_c, 1, 78, 91
4, 22854, Note_on_c, 1, 81, 82
4, 22903, Note_off_c, 1, 69, 64
4, 22903, Note_off_c, 1, 74, 64
4, 22909, Note_off_c, 1, 78, 64
4, 22909, Note_off_c, 1, 81, 64
4, 22932, Note_on_c, 1, 69, 91
4, 22933, Note_on_c, 1, 81, 82
4, 22935, Note_on_c, 1, 73, 91
4, 22937, Note_on_c, 1, 76, 91
4, 22989, Note_off_c, 1, 76, 64
4, 23000, Note_off_c, 1, 69, 64
4, 23003, Note_off_c, 1, 73, 64
4, 23005, Note_off_c, 1, 81, 64
4, 23088, Note_on_c, 1, 79, 100
4, 23095, Note_on_c, 1, 69, 91
4, 23096, Note_on_c, 1, 75, 100
4, 23096, Note_on_c, 1, 81, 91
4, 23136, Note_off_c, 1, 69, 64
4, 23141, Note_off_c, 1, 79, 64
4, 23145, Note_off_c, 1, 81, 64
4, 23150, Note_off_c, 1, 75, 64
4, 23167, Note_on_c, 1, 79, 82
4, 23172, Note_on_c, 1, 69, 82
4, 23172, Note_on_c, 1, 76, 91
4, 23174, Note_on_c, 1, 81, 82
4, 23217, Note_off_c, 1, 69, 64
4, 23218, Note_off_c, 1, 79, 64
4, 23222, Note_off_c, 1, 76, 64
4, 23222, Note_off_c, 1, 81, 64
4, 23252, Note_on_c, 1, 76, 91
4, 23253, Note_on_c, 1, 79, 91
4, 23255, Note_on_c, 1, 69, 82
4, 23255, Note_on_c, 1, 81, 64
4, 23299, Note_off_c, 1, 79, 64
4, 23300, Note_off_c, 1, 76, 64
4, 23301, Note_off_c, 1, 69, 64
4, 23301, Note_off_c, 1, 81, 64
4, 23334, Note_on_c, 1, 74, 100
4, 23339, Note_on_c, 1, 69, 91
4, 23341, Note_on_c, 1, 78, 100
4, 23341, Note_on_c, 1, 81, 91
4, 23422, Note_off_c, 1, 74, 64
4, 23425, Note_off_c, 1, 69, 64
4, 23428, Note_off_c, 1, 78, 64
4, 23428, Note_off_c, 1, 81, 64
4, 23498, Note_on_c, 1, 73, 91
4, 23498, Note_on_c, 1, 81, 82
4, 23502, Note_on_c, 1, 76, 100
4, 23502, Note_on_c, 1, 69, 91
4, 23607, Note_off_c, 1, 76, 64
4, 23611, Note_off_c, 1, 81, 64
4, 23614, Note_off_c, 1, 69, 64
4, 23617, Note_off_c, 1, 73, 64
4, 23663, Note_on_c, 1, 81, 91
4, 23664, Note_on_c, 1, 78, 100
4, 23665, Note_on_c, 1, 69, 91
4, 23665, Note_on_c, 1, 74, 100
4, 23740, Note_off_c, 1, 78, 64
4, 23740, Note_off_c, 1, 74, 64
4, 23745, Note_off_c, 1, 69, 64
4, 23748, Note_off_c, 1, 81, 64
4, 23909, Note_on_c, 1, 69, 91
4, 23911, Note_on_c, 1, 79, 91
4, 23911, Note_on_c, 1, 76, 100
4, 23911, Note_on_c, 1, 81, 73
4, 23932, Note_off_c, 1, 79, 64
4, 23946, Note_off_c, 1, 69, 64
4, 23946, Note_off_c, 1, 76, 64
4, 23952, Note_off_c, 1, 81, 64
4, 23985, Note_on_c, 1, 69, 91
4, 23989, Note_on_c, 1, 81, 91
4, 23989, Note_on_c, 1, 76, 82
4, 24033, Note_off_c, 1, 69, 64
4, 24033, Note_off_c, 1, 76, 64
4, 24036, Note_off_c, 1, 81, 64
4, 24061, Note_on_c, 1, 76, 100
4, 24065, Note_on_c, 1, 69, 82
4, 24065, Note_on_c, 1, 81, 91
4, 24109, Note_off_c, 1, 69, 64
4, 24115, Note_off_c, 1, 76, 64
4, 24115, Note_off_c, 1, 81, 64
4, 24146, Note_on_c, 1, 69, 91
4, 24148, Note_on_c, 1, 76, 91
4, 24148, Note_on_c, 1, 81, 91
4, 24197, Note_off_c, 1, 76, 64
4, 24198, Note_off_c, 1, 69, 64
4, 24202, Note_off_c, 1, 81, 64
4, 24224, Note_on_c, 1, 81, 91
4, 24228, Note_on_c, 1, 76, 100
4, 24229, Note_on_c, 1, 69, 91
4, 24276, Note_off_c, 1, 76, 64
4, 24276, Note_off_c, 1, 69, 64
4, 24286, Note_off_c, 1, 81, 64
4, 24392, Note_on_c, 1, 79, 91
4, 24392, Note_on_c, 1, 69, 82
4, 24392, Note_on_c, 1, 75, 100
4, 24392, Note_on_c, 1, 81, 82
4, 24434, Note_off_c, 1, 69, 64
4, 24439, Note_off_c, 1, 79, 64
4, 24442, Note_off_c, 1, 81, 64
4, 24447, Note_off_c, 1, 75, 64
4, 24472, Note_on_c, 1, 69, 82
4, 24474, Note_on_c, 1, 79, 82
4, 24475, Note_on_c, 1, 76, 91
4, 24475, Note_on_c, 1, 81, 73
4, 24520, Note_off_c, 1, 69, 64
4, 24520, Note_off_c, 1, 79, 64
4, 24521, Note_off_c, 1, 81, 64
4, 24522, Note_off_c, 1, 76, 64
4, 24548, Note_on_c, 1, 76, 91
4, 24550, Note_on_c, 1, 79, 73
4, 24550, Note_on_c, 1, 81, 82
4, 24552, Note_on_c, 1, 69, 82
4, 24597, Note_off_c, 1, 69, 64
4, 24597, Note_off_c, 1, 79, 64
4, 24598, Note_off_c, 1, 81, 64
4, 24601, Note_off_c, 1, 76, 64
4, 24633, Note_on_c, 1, 81, 91
4, 24635, Note_on_c, 1, 69, 91
4, 24635, Note_on_c, 1, 74, 100
4, 24637, Note_on_c, 1, 78, 100
4, 24736, Note_off_c, 1, 74, 64
4, 24740, Note_off_c, 1, 78, 64
4, 24743, Note_off_c, 1, 81, 64
4, 24743, Note_off_c, 1, 69, 64
4, 24799, Note_on_c, 1, 81, 82
4, 24799, Note_on_c, 1, 69, 100
4, 24799, Note_on_c, 1, 73, 100
4, 24802, Note_on_c, 1, 76, 100
4, 24901, Note_off_c, 1, 76, 64
4, 24909, Note_off_c, 1, 81, 64
4, 24914, Note_off_c, 1, 69, 64
4, 24918, Note_off_c, 1, 73, 64
4, 24961, Note_on_c, 1, 81, 91
4, 24962, Note_on_c, 1, 69, 100
4, 24964, Note_on_c, 1, 74, 100
4, 24965, Note_on_c, 1, 78, 100
4, 25038, Note_off_c, 1, 69, 64
4, 25042, Note_off_c, 1, 74, 64
4, 25042, Note_off_c, 1, 78, 64
4, 25047, Note_off_c, 1, 81, 64
4, 25201, Note_on_c, 1, 86, 91
4, 25203, Note_on_c, 1, 74, 100
4, 25203, Note_on_c, 1, 81, 100
4, 25241, Note_off_c, 1, 74, 64
4, 25247, Note_off_c, 1, 81, 64
4, 25255, Note_off_c, 1, 86, 64
4, 25279, Note_on_c, 1, 81, 91
4, 25284, Note_on_c, 1, 86, 100
4, 25284, Note_on_c, 1, 74, 82
4, 25326, Note_off_c, 1, 74, 64
4, 25329, Note_off_c, 1, 86, 64
4, 25331, Note_off_c, 1, 81, 64
4, 25358, Note_on_c, 1, 81, 100
4, 25360, Note_on_c, 1, 74, 91
4, 25363, Note_on_c, 1, 86, 91
4, 25405, Note_off_c, 1, 74, 64
4, 25412, Note_off_c, 1, 81, 64
4, 25412, Note_off_c, 1, 86, 64
4, 25439, Note_on_c, 1, 81, 91
4, 25442, Note_on_c, 1, 86, 91
4, 25445, Note_on_c, 1, 74, 91
4, 25485, Note_off_c, 1, 74, 64
4, 25487, Note_off_c, 1, 86, 64
4, 25492, Note_off_c, 1, 81, 64
4, 25522, Note_on_c, 1, 81, 91
4, 25522, Note_on_c, 1, 74, 82
4, 25522, Note_on_c, 1, 86, 91
4, 25566, Note_off_c, 1, 86, 64
4, 25569, Note_off_c, 1, 81, 64
4, 25571, Note_off_c, 1, 74, 64
4, 25611, Note_on_c, 1, 74, 91
4, 25611, Note_on_c, 1, 84, 100
4, 25611, Note_on_c, 1, 80, 100
4, 25614, Note_on_c, 1, 86, 91
4, 25669, Note_off_c, 1, 84, 64
4, 25676, Note_off_c, 1, 80, 64
4, 25676, Note_off_c, 1, 86, 64
4, 25705, Note_on_c, 1, 86, 64
4, 25734, Note_on_c, 1, 84, 56
4, 25738, Note_off_c, 1, 74, 64
4, 25776, Note_off_c, 1, 86, 64
4, 25777, Note_on_c, 1, 81, 91
4, 25782, Note_on_c, 1, 78, 80
4, 25796, Note_off_c, 1, 84, 64
4, 25804, Note_on_c, 1, 74, 100
4, 25819, Note_off_c, 1, 81, 64
4, 25824, Note_off_c, 1, 78, 64
4, 25939, Note_on_c, 1, 86, 91
4, 25941, Note_on_c, 1, 79, 109
4, 25941, Note_on_c, 1, 83, 100
4, 25971, Note_off_c, 1, 74, 64
4, 26017, Note_off_c, 1, 83, 64
4, 26017, Note_on_c, 1, 74, 82
4, 26025, Note_off_c, 1, 79, 64
4, 26031, Note_off_c, 1, 86, 64
4, 26100, Note_on_c, 1, 78, 91
4, 26100, Note_on_c, 1, 86, 91
4, 26101, Note_on_c, 1, 81, 100
4, 26204, Note_off_c, 1, 81, 64
4, 26213, Note_off_c, 1, 78, 64
4, 26216, Note_off_c, 1, 86, 64
4, 26227, Note_off_c, 1, 74, 64
4, 26250, Note_on_c, 1, 86, 91
4, 26252, Note_on_c, 1, 83, 109
4, 26260, Note_on_c, 1, 74, 82
4, 26260, Note_on_c, 1, 79, 91
4, 26329, Note_off_c, 1, 86, 64
4, 26329, Note_off_c, 1, 83, 64
4, 26333, Note_off_c, 1, 79, 64
4, 26341, Note_off_c, 1, 74, 64
4, 26495, Note_on_c, 1, 69, 100
4, 26501, Note_on_c, 1, 79, 100
4, 26501, Note_on_c, 1, 76, 100
4, 26502, Note_on_c, 1, 81, 82
4, 26538, Note_off_c, 1, 69, 64
4, 26541, Note_off_c, 1, 79, 64
4, 26545, Note_off_c, 1, 81, 64
4, 26548, Note_off_c, 1, 76, 64
4, 26578, Note_on_c, 1, 69, 82
4, 26578, Note_on_c, 1, 79, 91
4, 26581, Note_on_c, 1, 76, 91
4, 26581, Note_on_c, 1, 81, 82
4, 26624, Note_off_c, 1, 69, 64
4, 26629, Note_off_c, 1, 79, 64
4, 26632, Note_off_c, 1, 76, 64
4, 26634, Note_off_c, 1, 81, 64
4, 26657, Note_on_c, 1, 69, 91
4, 26661, Note_on_c, 1, 79, 82
4, 26664, Note_on_c, 1, 81, 82
4, 26664, Note_on_c, 1, 76, 82
4, 26711, Note_off_c, 1, 69, 64
4, 26714, Note_off_c, 1, 79, 64
4, 26717, Note_off_c, 1, 81, 64
4, 26717, Note_off_c, 1, 76, 64
4, 26744, Note_on_c, 1, 79, 82
4, 26744, Note_on_c, 1, 69, 82
4, 26746, Note_on_c, 1, 76, 82
4, 26746, Note_on_c, 1, 81, 73
4, 26790, Note_off_c, 1, 69, 64
4, 26794, Note_off_c, 1, 79, 64
4, 26795, Note_off_c, 1, 81, 64
4, 26796, Note_off_c, 1, 76, 64
4, 26823, Note_on_c, 1, 69, 91
4, 26823, Note_on_c, 1, 76, 91
4, 26823, Note_on_c, 1, 79, 91
4, 26825, Note_on_c, 1, 81, 73
4, 26883, Note_off_c, 1, 79, 64
4, 26887, Note_off_c, 1, 81, 64
4, 26890, Note_off_c, 1, 76, 64
4, 26890, Note_off_c, 1, 69, 64
4, 26988, Note_on_c, 1, 76, 100
4, 26988, Note_on_c, 1, 81, 91
4, 26989, Note_on_c, 1, 79, 91
4, 26991, Note_on_c, 1, 69, 82
4, 27031, Note_off_c, 1, 69, 64
4, 27038, Note_off_c, 1, 79, 64
4, 27041, Note_off_c, 1, 76, 64
4, 27046, Note_off_c, 1, 81, 64
4, 27068, Note_on_c, 1, 69, 91
4, 27070, Note_on_c, 1, 81, 82
4, 27070, Note_on_c, 1, 76, 91
4, 27070, Note_on_c, 1, 79, 91
4, 27116, Note_off_c, 1, 69, 64
4, 27119, Note_off_c, 1, 79, 64
4, 27121, Note_off_c, 1, 76, 64
4, 27123, Note_off_c, 1, 81, 64
4, 27145, Note_on_c, 1, 76, 91
4, 27147, Note_on_c, 1, 69, 91
4, 27148, Note_on_c, 1, 79, 82
4, 27148, Note_on_c, 1, 81, 73
4, 27198, Note_off_c, 1, 69, 64
4, 27198, Note_off_c, 1, 79, 64
4, 27202, Note_off_c, 1, 76, 64
4, 27205, Note_off_c, 1, 81, 64
4, 27234, Note_on_c, 1, 81, 91
4, 27237, Note_on_c, 1, 78, 91
4, 27237, Note_on_c, 1, 74, 100
4, 27237, Note_on_c, 1, 69, 91
4, 27322, Note_off_c, 1, 74, 64
4, 27323, Note_off_c, 1, 78, 64
4, 27330, Note_off_c, 1, 69, 64
4, 27336, Note_off_c, 1, 81, 64
4, 27396, Note_on_c, 1, 81, 91
4, 27399, Note_on_c, 1, 69, 100
4, 27399, Note_on_c, 1, 76, 100
4, 27399, Note_on_c, 1, 73, 91
4, 27509, Note_off_c, 1, 76, 64
4, 27516, Note_off_c, 1, 69, 64
4, 27523, Note_off_c, 1, 81, 64
4, 27523, Note_off_c, 1, 73, 64
4, 27558, Note_on_c, 1, 81, 82
4, 27559, Note_on_c, 1, 74, 100
4, 27561, Note_on_c, 1, 78, 100
4, 27561, Note_on_c, 1, 69, 91
4, 27617, Note_off_c, 1, 81, 64
4, 27617, Note_off_c, 1, 78, 64
4, 27618, Note_off_c, 1, 74, 64
4, 27627, Note_off_c, 1, 69, 64
4, 27722, Note_on_c, 1, 64, 100
4, 27725, Note_on_c, 1, 76, 82
4, 27729, Note_on_c, 1, 74, 100
4, 27730, Note_on_c, 1, 71, 91
4, 27777, Note_off_c, 1, 74, 64
4, 27788, Note_off_c, 1, 76, 64
4, 27793, Note_off_c, 1, 71, 64
4, 27796, Note_on_c, 1, 76, 48
4, 27819, Note_off_c, 1, 64, 64
4, 27819, Note_on_c, 1, 74, 73
4, 27841, Note_on_c, 1, 71, 73
4, 27850, Note_off_c, 1, 76, 64
4, 27853, Note_off_c, 1, 74, 64
4, 27856, Note_on_c, 1, 64, 91
4, 27871, Note_off_c, 1, 71, 64
4, 27901, Note_on_c, 1, 69, 100
4, 27902, Note_on_c, 1, 73, 100
4, 27902, Note_on_c, 1, 76, 91
4, 27991, Note_off_c, 1, 69, 64
4, 27994, Note_off_c, 1, 73, 64
4, 27999, Note_off_c, 1, 76, 64
4, 28012, Note_off_c, 1, 64, 64
4, 28040, Note_on_c, 1, 68, 100
4, 28041, Note_on_c, 1, 76, 91
4, 28042, Note_on_c, 1, 64, 82
4, 28043, Note_on_c, 1, 71, 91
4, 28117, Note_off_c, 1, 71, 64
4, 28121, Note_off_c, 1, 76, 64
4, 28123, Note_off_c, 1, 68, 64
4, 28125, Note_off_c, 1, 64, 64
4, 28277, Note_on_c, 1, 62, 100
4, 28279, Note_on_c, 1, 74, 100
4, 28286, Note_on_c, 1, 69, 91
4, 28286, Note_on_c, 1, 72, 100
4, 28349, Note_off_c, 1, 72, 64
4, 28356, Note_off_c, 1, 74, 64
4, 28367, Note_off_c, 1, 69, 64
4, 28394, Note_on_c, 1, 74, 52
4, 28402, Note_off_c, 1, 62, 64
4, 28413, Note_on_c, 1, 72, 64
4, 28433, Note_on_c, 1, 69, 91
4, 28438, Note_off_c, 1, 74, 64
4, 28448, Note_off_c, 1, 72, 64
4, 28453, Note_on_c, 1, 62, 82
4, 28466, Note_off_c, 1, 69, 64
4, 28531, Note_on_c, 1, 67, 100
4, 28531, Note_on_c, 1, 71, 91
4, 28532, Note_on_c, 1, 74, 100
4, 28612, Note_off_c, 1, 71, 64
4, 28618, Note_off_c, 1, 67, 64
4, 28629, Note_off_c, 1, 74, 64
4, 28649, Note_off_c, 1, 62, 64
4, 28688, Note_on_c, 1, 74, 91
4, 28692, Note_on_c, 1, 62, 91
4, 28692, Note_on_c, 1, 66, 91
4, 28694, Note_on_c, 1, 69, 91
4, 28766, Note_off_c, 1, 62, 64
4, 28766, Note_off_c, 1, 69, 64
4, 28773, Note_off_c, 1, 66, 64
4, 28777, Note_off_c, 1, 74, 64
4, 28934, Note_on_c, 1, 81, 91
4, 28934, Note_on_c, 1, 76, 100
4, 28938, Note_on_c, 1, 69, 100
4, 28984, Note_off_c, 1, 69, 64
4, 28988, Note_off_c, 1, 81, 64
4, 28989, Note_off_c, 1, 76, 64
4, 29015, Note_on_c, 1, 69, 91
4, 29015, Note_on_c, 1, 76, 82
4, 29016, Note_on_c, 1, 81, 82
4, 29068, Note_off_c, 1, 69, 64
4, 29074, Note_off_c, 1, 76, 64
4, 29074, Note_off_c, 1, 81, 64
4, 29096, Note_on_c, 1, 69, 91
4, 29097, Note_on_c, 1, 76, 82
4, 29097, Note_on_c, 1, 81, 91
4, 29164, Note_off_c, 1, 69, 64
4, 29164, Note_off_c, 1, 76, 64
4, 29164, Note_off_c, 1, 81, 64
4, 29260, Note_on_c, 1, 79, 91
4, 29263, Note_on_c, 1, 69, 91
4, 29263, Note_on_c, 1, 75, 100
4, 29263, Note_on_c, 1, 81, 91
4, 29306, Note_off_c, 1, 69, 64
4, 29313, Note_off_c, 1, 81, 64
4, 29317, Note_off_c, 1, 79, 64
4, 29319, Note_off_c, 1, 75, 64
4, 29341, Note_on_c, 1, 69, 82
4, 29343, Note_on_c, 1, 76, 91
4, 29344, Note_on_c, 1, 79, 82
4, 29346, Note_on_c, 1, 81, 91
4, 29392, Note_off_c, 1, 79, 64
4, 29393, Note_off_c, 1, 69, 64
4, 29398, Note_off_c, 1, 76, 64
4, 29398, Note_off_c, 1, 81, 64
4, 29424, Note_on_c, 1, 69, 91
4, 29425, Note_on_c, 1, 76, 82
4, 29425, Note_on_c, 1, 81, 82
4, 29427, Note_on_c, 1, 79, 82
4, 29492, Note_off_c, 1, 79, 64
4, 29493, Note_off_c, 1, 76, 64
4, 29496, Note_off_c, 1, 69, 64
4, 29496, Note_off_c, 1, 81, 64
4, 29578, Note_on_c, 1, 81, 82
4, 29584, Note_on_c, 1, 69, 91
4, 29585, Note_on_c, 1, 79, 91
4, 29585, Note_on_c, 1, 75, 82
4, 29631, Note_off_c, 1, 69, 64
4, 29638, Note_off_c, 1, 81, 64
4, 29638, Note_off_c, 1, 79, 64
4, 29644, Note_off_c, 1, 75, 64
4, 29670, Note_on_c, 1, 69, 82
4, 29672, Note_on_c, 1, 81, 82
4, 29674, Note_on_c, 1, 79, 91
4, 29675, Note_on_c, 1, 76, 91
4, 29718, Note_off_c, 1, 69, 64
4, 29719, Note_off_c, 1, 79, 64
4, 29722, Note_off_c, 1, 81, 64
4, 29723, Note_off_c, 1, 76, 64
4, 29743, Note_on_c, 1, 76, 82
4, 29746, Note_on_c, 1, 79, 82
4, 29749, Note_on_c, 1, 69, 82
4, 29749, Note_on_c, 1, 81, 73
4, 29796, Note_off_c, 1, 79, 64
4, 29803, Note_off_c, 1, 76, 64
4, 29807, Note_off_c, 1, 69, 64
4, 29808, Note_off_c, 1, 81, 64
4, 29831, Note_on_c, 1, 81, 82
4, 29832, Note_on_c, 1, 69, 91
4, 29834, Note_on_c, 1, 74, 100
4, 29836, Note_on_c, 1, 78, 91
4, 29913, Note_off_c, 1, 74, 64
4, 29915, Note_off_c, 1, 78, 64
4, 29922, Note_off_c, 1, 69, 64
4, 29925, Note_off_c, 1, 81, 64
4, 29993, Note_on_c, 1, 81, 91
4, 29996, Note_on_c, 1, 73, 91
4, 29996, Note_on_c, 1, 76, 109
4, 29998, Note_on_c, 1, 69, 100
4, 30108, Note_off_c, 1, 76, 64
4, 30117, Note_off_c, 1, 69, 64
4, 30120, Note_off_c, 1, 73, 64
4, 30128, Note_off_c, 1, 81, 64
4, 30145, Note_on_c, 1, 81, 82
4, 30151, Note_on_c, 1, 69, 91
4, 30153, Note_on_c, 1, 78, 91
4, 30153, Note_on_c, 1, 74, 100
4, 30240, Note_off_c, 1, 81, 64
4, 30243, Note_off_c, 1, 78, 64
4, 30243, Note_off_c, 1, 74, 64
4, 30263, Note_off_c, 1, 69, 64
4, 30399, Note_on_c, 1, 64, 91
4, 30401, Note_on_c, 1, 69, 91
4, 30402, Note_on_c, 1, 57, 91
4, 30404, Note_on_c, 1, 67, 82
4, 30434, Note_off_c, 1, 67, 64
4, 30435, Note_off_c, 1, 57, 64
4, 30440, Note_off_c, 1, 64, 64
4, 30447, Note_off_c, 1, 69, 64
4, 30551, Note_on_c, 1, 45, 64
4, 30566, Note_off_c, 1, 45, 64
4, 30634, Note_on_c, 1, 57, 100
4, 30639, Note_on_c, 1, 64, 100
4, 30641, Note_on_c, 1, 67, 100
4, 30641, Note_on_c, 1, 69, 91
4, 30683, Note_off_c, 1, 67, 64
4, 30684, Note_off_c, 1, 57, 64
4, 30685, Note_off_c, 1, 64, 64
4, 30690, Note_off_c, 1, 69, 64
4, 30805, Note_on_c, 1, 45, 91
4, 30813, Note_off_c, 1, 45, 64
4, 30882, Note_on_c, 1, 57, 100
4, 30885, Note_on_c, 1, 69, 82
4, 30885, Note_on_c, 1, 64, 100
4, 30887, Note_on_c, 1, 67, 100
4, 30946, Note_off_c, 1, 57, 64
4, 30950, Note_off_c, 1, 64, 64
4, 30950, Note_off_c, 1, 67, 64
4, 30953, Note_off_c, 1, 69, 64
4, 30963, Note_on_c, 1, 69, 30
4, 30963, Note_on_c, 1, 57, 64
4, 30965, Note_on_c, 1, 67, 64
4, 30967, Note_on_c, 1, 64, 91
4, 31016, Note_off_c, 1, 57, 64
4, 31017, Note_off_c, 1, 67, 64
4, 31017, Note_off_c, 1, 64, 64
4, 31027, Note_off_c, 1, 69, 64
4, 31041, Note_on_c, 1, 69, 73
4, 31045, Note_on_c, 1, 57, 73
4, 31045, Note_on_c, 1, 64, 73
4, 31048, Note_on_c, 1, 67, 82
4, 31088, Note_off_c, 1, 67, 64
4, 31093, Note_off_c, 1, 64, 64
4, 31101, Note_off_c, 1, 69, 64
4, 31104, Note_off_c, 1, 57, 64
4, 31117, Note_on_c, 1, 69, 73
4, 31118, Note_on_c, 1, 57, 64
4, 31124, Note_on_c, 1, 62, 100
4, 31124, Note_on_c, 1, 66, 91
4, 31198, Note_off_c, 1, 62, 64
4, 31204, Note_off_c, 1, 57, 64
4, 31204, Note_on_c, 1, 45, 56
4, 31210, Note_off_c, 1, 66, 64
4, 31223, Note_off_c, 1, 69, 64
4, 31245, Note_off_c, 1, 45, 64
4, 31283, Note_on_c, 1, 69, 82
4, 31286, Note_on_c, 1, 61, 100
4, 31286, Note_on_c, 1, 55, 91
4, 31288, Note_on_c, 1, 64, 91
4, 31370, Note_off_c, 1, 64, 64
4, 31379, Note_off_c, 1, 61, 64
4, 31379, Note_off_c, 1, 55, 64
4, 31384, Note_off_c, 1, 69, 64
4, 31452, Note_on_c, 1, 69, 91
4, 31453, Note_on_c, 1, 66, 91
4, 31453, Note_on_c, 1, 57, 91
4, 31453, Note_on_c, 1, 62, 91
4, 31558, Note_off_c, 1, 62, 64
4, 31559, Note_off_c, 1, 66, 64
4, 31563, Note_off_c, 1, 69, 64
4, 31611, Note_on_c, 1, 45, 91
4, 31627, Note_off_c, 1, 45, 64
4, 31692, Note_on_c, 1, 69, 91
4, 31695, Note_on_c, 1, 63, 100
4, 31695, Note_on_c, 1, 67, 100
4, 31757, Note_off_c, 1, 69, 64
4, 31759, Note_off_c, 1, 63, 64
4, 31760, Note_off_c, 1, 67, 64
4, 31850, Note_on_c, 1, 45, 82
4, 31862, Note_off_c, 1, 45, 64
4, 31938, Note_on_c, 1, 69, 91
4, 31938, Note_on_c, 1, 63, 100
4, 31939, Note_on_c, 1, 67, 100
4, 32010, Note_on_c, 1, 64, 91
4, 32011, Note_off_c, 1, 63, 64
4, 32017, Note_off_c, 1, 69, 64
4, 32031, Note_off_c, 1, 67, 64
4, 32035, Note_off_c, 1, 64, 64
4, 32045, Note_off_c, 1, 57, 64
4, 32107, Note_on_c, 1, 45, 100
4, 32131, Note_off_c, 1, 45, 64
4, 32178, Note_on_c, 1, 57, 91
4, 32182, Note_on_c, 1, 63, 100
4, 32184, Note_on_c, 1, 67, 91
4, 32185, Note_on_c, 1, 69, 91
4, 32246, Note_off_c, 1, 69, 64
4, 32247, Note_off_c, 1, 67, 64
4, 32253, Note_off_c, 1, 63, 64
4, 32259, Note_on_c, 1, 67, 64
4, 32259, Note_on_c, 1, 69, 73
4, 32261, Note_on_c, 1, 64, 82
4, 32315, Note_off_c, 1, 64, 64
4, 32316, Note_off_c, 1, 67, 64
4, 32319, Note_off_c, 1, 69, 64
4, 32322, Note_off_c, 1, 57, 64
4, 32342, Note_on_c, 1, 57, 64
4, 32344, Note_on_c, 1, 69, 64
4, 32347, Note_on_c, 1, 64, 91
4, 32347, Note_on_c, 1, 67, 73
4, 32385, Note_off_c, 1, 67, 64
4, 32391, Note_off_c, 1, 64, 64
4, 32399, Note_off_c, 1, 69, 64
4, 32404, Note_off_c, 1, 57, 64
4, 32418, Note_on_c, 1, 69, 82
4, 32421, Note_on_c, 1, 57, 73
4, 32421, Note_on_c, 1, 62, 100
4, 32423, Note_on_c, 1, 66, 91
4, 32501, Note_off_c, 1, 62, 64
4, 32504, Note_off_c, 1, 57, 64
4, 32505, Note_off_c, 1, 66, 64
4, 32505, Note_on_c, 1, 45, 16
4, 32511, Note_off_c, 1, 45, 64
4, 32516, Note_off_c, 1, 69, 64
4, 32575, Note_on_c, 1, 69, 82
4, 32582, Note_on_c, 1, 55, 91
4, 32582, Note_on_c, 1, 61, 91
4, 32584, Note_on_c, 1, 64, 91
4, 32655, Note_off_c, 1, 64, 64
4, 32660, Note_on_c, 1, 45, 64
4, 32663, Note_off_c, 1, 55, 64
4, 32663, Note_off_c, 1, 61, 64
4, 32667, Note_off_c, 1, 69, 64
4, 32703, Note_off_c, 1, 45, 64
4, 32743, Note_on_c, 1, 57, 100
4, 32746, Note_on_c, 1, 62, 100
4, 32746, Note_on_c, 1, 69, 91
4, 32746, Note_on_c, 1, 66, 82
4, 32819, Note_off_c, 1, 62, 64
4, 32819, Note_off_c, 1, 66, 64
4, 32822, Note_on_c, 1, 45, 52
4, 32825, Note_off_c, 1, 69, 64
4, 32834, Note_off_c, 1, 45, 64
4, 32988, Note_on_c, 1, 63, 109
4, 32988, Note_on_c, 1, 67, 100
4, 32988, Note_on_c, 1, 69, 91
4, 33044, Note_off_c, 1, 63, 64
4, 33065, Note_off_c, 1, 67, 64
4, 33074, Note_off_c, 1, 69, 64
4, 33152, Note_on_c, 1, 45, 73
4, 33156, Note_off_c, 1, 57, 64
4, 33180, Note_off_c, 1, 45, 64
4, 33230, Note_on_c, 1, 69, 100
4, 33231, Note_on_c, 1, 64, 100
4, 33231, Note_on_c, 1, 57, 82
4, 33231, Note_on_c, 1, 67, 100
4, 33302, Note_off_c, 1, 64, 64
4, 33302, Note_off_c, 1, 67, 64
4, 33303, Note_off_c, 1, 57, 64
4, 33307, Note_off_c, 1, 69, 64
4, 33400, Note_on_c, 1, 45, 91
4, 33417, Note_off_c, 1, 45, 64
4, 33476, Note_on_c, 1, 57, 91
4, 33480, Note_on_c, 1, 69, 82
4, 33482, Note_on_c, 1, 67, 100
4, 33482, Note_on_c, 1, 63, 91
4, 33537, Note_off_c, 1, 67, 64
4, 33544, Note_off_c, 1, 63, 64
4, 33559, Note_on_c, 1, 67, 64
4, 33559, Note_on_c, 1, 64, 82
4, 33606, Note_off_c, 1, 67, 64
4, 33608, Note_off_c, 1, 57, 64
4, 33608, Note_off_c, 1, 64, 64
4, 33613, Note_off_c, 1, 69, 64
4, 33634, Note_on_c, 1, 69, 73
4, 33634, Note_on_c, 1, 57, 73
4, 33634, Note_on_c, 1, 64, 82
4, 33634, Note_on_c, 1, 67, 73
4, 33683, Note_off_c, 1, 67, 64
4, 33690, Note_off_c, 1, 69, 64
4, 33690, Note_off_c, 1, 64, 64
4, 33694, Note_off_c, 1, 57, 64
4, 33715, Note_on_c, 1, 57, 82
4, 33721, Note_on_c, 1, 69, 82
4, 33721, Note_on_c, 1, 62, 100
4, 33723, Note_on_c, 1, 66, 91
4, 33793, Note_off_c, 1, 62, 64
4, 33794, Note_off_c, 1, 66, 64
4, 33794, Note_off_c, 1, 57, 64
4, 33799, Note_off_c, 1, 69, 64
4, 33799, Note_on_c, 1, 45, 56
4, 33831, Note_off_c, 1, 45, 64
4, 33880, Note_on_c, 1, 55, 91
4, 33882, Note_on_c, 1, 69, 73
4, 33882, Note_on_c, 1, 64, 82
4, 33882, Note_on_c, 1, 61, 100
4, 33961, Note_off_c, 1, 55, 64
4, 33961, Note_off_c, 1, 64, 64
4, 33961, Note_off_c, 1, 61, 64
4, 33961, Note_on_c, 1, 45, 64
4, 33970, Note_off_c, 1, 69, 64
4, 34021, Note_off_c, 1, 45, 64
4, 34045, Note_on_c, 1, 57, 91
4, 34045, Note_on_c, 1, 66, 100
4, 34046, Note_on_c, 1, 69, 91
4, 34046, Note_on_c, 1, 62, 91
4, 34108, Note_off_c, 1, 62, 64
4, 34112, Note_off_c, 1, 66, 64
4, 34117, Note_off_c, 1, 69, 64
4, 34121, Note_on_c, 1, 45, 64
4, 34164, Note_off_c, 1, 45, 64
4, 34202, Note_on_c, 1, 45, 82
4, 34232, Note_off_c, 1, 45, 64
4, 34283, Note_on_c, 1, 63, 100
4, 34283, Note_on_c, 1, 69, 82
4, 34283, Note_on_c, 1, 67, 91
4, 34338, Note_off_c, 1, 67, 64
4, 34339, Note_off_c, 1, 63, 64
4, 34342, Note_off_c, 1, 69, 64
4, 34365, Note_on_c, 1, 67, 91
4, 34371, Note_on_c, 1, 69, 91
4, 34371, Note_on_c, 1, 64, 100
4, 34432, Note_off_c, 1, 67, 64
4, 34435, Note_off_c, 1, 64, 64
4, 34444, Note_off_c, 1, 69, 64
4, 34445, Note_on_c, 1, 45, 91
4, 34451, Note_off_c, 1, 57, 64
4, 34514, Note_off_c, 1, 45, 64
4, 34528, Note_on_c, 1, 57, 91
4, 34530, Note_on_c, 1, 67, 91
4, 34531, Note_on_c, 1, 63, 100
4, 34535, Note_on_c, 1, 69, 82
4, 34604, Note_on_c, 1, 64, 100
4, 34607, Note_off_c, 1, 63, 64
4, 34642, Note_off_c, 1, 69, 64
4, 34650, Note_off_c, 1, 67, 64
4, 34656, Note_off_c, 1, 64, 64
4, 34657, Note_off_c, 1, 57, 64
4, 34688, Note_on_c, 1, 45, 91
4, 34764, Note_off_c, 1, 45, 64
4, 34764, Note_on_c, 1, 57, 91
4, 34766, Note_on_c, 1, 63, 100
4, 34767, Note_on_c, 1, 67, 100
4, 34770, Note_on_c, 1, 69, 82
4, 34836, Note_on_c, 1, 64, 100
4, 34840, Note_off_c, 1, 63, 64
4, 34932, Note_off_c, 1, 67, 64
4, 34932, Note_on_c, 1, 45, 82
4, 34938, Note_off_c, 1, 64, 64
4, 34942, Note_off_c, 1, 69, 64
4, 34945, Note_off_c, 1, 57, 64
4, 34976, Note_off_c, 1, 45, 64
4, 35019, Note_on_c, 1, 57, 91
4, 35019, Note_on_c, 1, 66, 91
4, 35021, Note_on_c, 1, 69, 91
4, 35021, Note_on_c, 1, 62, 91
4, 35097, Note_on_c, 1, 45, 73
4, 35099, Note_off_c, 1, 62, 64
4, 35101, Note_off_c, 1, 66, 64
4, 35105, Note_off_c, 1, 69, 64
4, 35109, Note_off_c, 1, 57, 64
4, 35160, Note_off_c, 1, 45, 64
4, 35184, Note_on_c, 1, 57, 100
4, 35185, Note_on_c, 1, 61, 100
4, 35187, Note_on_c, 1, 69, 91
4, 35187, Note_on_c, 1, 64, 100
4, 35256, Note_on_c, 1, 45, 73
4, 35263, Note_off_c, 1, 64, 64
4, 35268, Note_off_c, 1, 61, 64
4, 35268, Note_off_c, 1, 69, 64
4, 35271, Note_off_c, 1, 57, 64
4, 35326, Note_off_c, 1, 45, 64
4, 35337, Note_on_c, 1, 57, 82
4, 35337, Note_on_c, 1, 69, 82
4, 35337, Note_on_c, 1, 62, 91
4, 35337, Note_on_c, 1, 66, 82
4, 35410, Note_off_c, 1, 57, 64
4, 35412, Note_off_c, 1, 62, 64
4, 35422, Note_off_c, 1, 69, 64
4, 35422, Note_off_c, 1, 66, 64
4, 35422, Note_on_c, 1, 45, 73
4, 35500, Note_off_c, 1, 45, 64
4, 35576, Note_on_c, 1, 69, 100
4, 35578, Note_on_c, 1, 75, 109
4, 35578, Note_on_c, 1, 81, 100
4, 35621, Note_off_c, 1, 69, 64
4, 35628, Note_off_c, 1, 75, 64
4, 35628, Note_off_c, 1, 81, 64
4, 35659, Note_on_c, 1, 69, 91
4, 35660, Note_on_c, 1, 76, 91
4, 35660, Note_on_c, 1, 81, 82
4, 35704, Note_off_c, 1, 69, 64
4, 35710, Note_off_c, 1, 76, 64
4, 35710, Note_off_c, 1, 81, 64
4, 35736, Note_on_c, 1, 69, 91
4, 35740, Note_on_c, 1, 76, 91
4, 35741, Note_on_c, 1, 81, 82
4, 35790, Note_off_c, 1, 69, 64
4, 35797, Note_off_c, 1, 76, 64
4, 35797, Note_off_c, 1, 81, 64
4, 35818, Note_on_c, 1, 69, 91
4, 35821, Note_on_c, 1, 76, 100
4, 35822, Note_on_c, 1, 81, 82
4, 35871, Note_off_c, 1, 69, 64
4, 35878, Note_off_c, 1, 76, 64
4, 35879, Note_off_c, 1, 81, 64
4, 35899, Note_on_c, 1, 69, 82
4, 35902, Note_on_c, 1, 76, 82
4, 35902, Note_on_c, 1, 81, 82
4, 35951, Note_off_c, 1, 69, 64
4, 35961, Note_off_c, 1, 76, 64
4, 35965, Note_off_c, 1, 81, 64
4, 35986, Note_on_c, 1, 69, 91
4, 35986, Note_on_c, 1, 76, 82
4, 35995, Note_on_c, 1, 81, 73
4, 36038, Note_off_c, 1, 69, 64
4, 36042, Note_off_c, 1, 81, 64
4, 36043, Note_off_c, 1, 76, 64
4, 36068, Note_on_c, 1, 69, 91
4, 36068, Note_on_c, 1, 76, 91
4, 36068, Note_on_c, 1, 81, 82
4, 36125, Note_off_c, 1, 69, 64
4, 36131, Note_off_c, 1, 81, 64
4, 36131, Note_off_c, 1, 76, 64
4, 36151, Note_on_c, 1, 69, 91
4, 36157, Note_on_c, 1, 76, 91
4, 36159, Note_on_c, 1, 81, 82
4, 36207, Note_off_c, 1, 69, 64
4, 36209, Note_off_c, 1, 76, 64
4, 36214, Note_off_c, 1, 81, 64
4, 36240, Note_on_c, 1, 69, 82
4, 36240, Note_on_c, 1, 81, 82
4, 36240, Note_on_c, 1, 76, 91
4, 36290, Note_off_c, 1, 69, 64
4, 36293, Note_off_c, 1, 76, 64
4, 36299, Note_off_c, 1, 81, 64
4, 36324, Note_on_c, 1, 69, 91
4, 36326, Note_on_c, 1, 76, 91
4, 36326, Note_on_c, 1, 81, 82
4, 36369, Note_off_c, 1, 69, 64
4, 36379, Note_off_c, 1, 76, 64
4, 36385, Note_off_c, 1, 81, 64
4, 36402, Note_on_c, 1, 69, 91
4, 36402, Note_on_c, 1, 76, 91
4, 36403, Note_on_c, 1, 81, 73
4, 36449, Note_off_c, 1, 69, 64
4, 36457, Note_off_c, 1, 76, 64
4, 36461, Note_off_c, 1, 81, 64
4, 36478, Note_on_c, 1, 69, 82
4, 36483, Note_on_c, 1, 76, 91
4, 36485, Note_on_c, 1, 81, 82
4, 36532, Note_off_c, 1, 69, 64
4, 36534, Note_off_c, 1, 76, 64
4, 36537, Note_off_c, 1, 81, 64
4, 36562, Note_on_c, 1, 76, 91
4, 36562, Note_on_c, 1, 69, 82
4, 36563, Note_on_c, 1, 81, 73
4, 36615, Note_off_c, 1, 76, 64
4, 36618, Note_off_c, 1, 81, 64
4, 36619, Note_off_c, 1, 69, 64
4, 36645, Note_on_c, 1, 81, 82
4, 36647, Note_on_c, 1, 69, 82
4, 36647, Note_on_c, 1, 78, 91
4, 36650, Note_on_c, 1, 74, 91
4, 36762, Note_off_c, 1, 74, 64
4, 36769, Note_off_c, 1, 78, 64
4, 36770, Note_off_c, 1, 81, 64
4, 36773, Note_off_c, 1, 69, 64
4, 36804, Note_on_c, 1, 69, 91
4, 36808, Note_on_c, 1, 81, 82
4, 36808, Note_on_c, 1, 73, 91
4, 36808, Note_on_c, 1, 76, 82
4, 36925, Note_off_c, 1, 76, 64
4, 36931, Note_off_c, 1, 81, 64
4, 36932, Note_off_c, 1, 69, 64
4, 36934, Note_off_c, 1, 73, 64
4, 36968, Note_on_c, 1, 81, 91
4, 36969, Note_on_c, 1, 78, 100
4, 36969, Note_on_c, 1, 74, 91
4, 36972, Note_on_c, 1, 69, 82
4, 36993, Note_off_c, 1, 69, 64
4, 37038, Note_on_c, 1, 69, 82
4, 37053, Note_off_c, 1, 81, 64
4, 37054, Note_off_c, 1, 74, 64
4, 37060, Note_off_c, 1, 78, 64
4, 37128, Note_on_c, 1, 81, 82
4, 37130, Note_on_c, 1, 79, 91
4, 37132, Note_on_c, 1, 75, 91
4, 37183, Note_off_c, 1, 81, 64
4, 37184, Note_off_c, 1, 79, 64
4, 37190, Note_off_c, 1, 75, 64
4, 37195, Note_off_c, 1, 69, 64
4, 37203, Note_on_c, 1, 69, 64
4, 37203, Note_on_c, 1, 79, 73
4, 37209, Note_on_c, 1, 81, 82
4, 37209, Note_on_c, 1, 76, 91
4, 37261, Note_off_c, 1, 79, 64
4, 37262, Note_off_c, 1, 81, 64
4, 37264, Note_off_c, 1, 76, 64
4, 37270, Note_off_c, 1, 69, 64
4, 37292, Note_on_c, 1, 69, 82
4, 37294, Note_on_c, 1, 81, 91
4, 37296, Note_on_c, 1, 74, 100
4, 37296, Note_on_c, 1, 78, 100
4, 37360, Note_off_c, 1, 69, 64
4, 37377, Note_on_c, 1, 69, 73
4, 37379, Note_off_c, 1, 74, 64
4, 37382, Note_off_c, 1, 81, 64
4, 37382, Note_off_c, 1, 78, 64
4, 37453, Note_on_c, 1, 76, 91
4, 37457, Note_on_c, 1, 81, 91
4, 37458, Note_on_c, 1, 73, 100
4, 37563, Note_off_c, 1, 76, 64
4, 37569, Note_off_c, 1, 81, 64
4, 37574, Note_off_c, 1, 73, 64
4, 37598, Note_off_c, 1, 69, 64
4, 37614, Note_on_c, 1, 81, 91
4, 37617, Note_on_c, 1, 74, 100
4, 37617, Note_on_c, 1, 78, 100
4, 37687, Note_on_c, 1, 69, 64
4, 37707, Note_off_c, 1, 74, 64
4, 37713, Note_off_c, 1, 78, 64
4, 37718, Note_off_c, 1, 81, 64
4, 37778, Note_on_c, 1, 81, 91
4, 37780, Note_on_c, 1, 79, 91
4, 37781, Note_on_c, 1, 75, 91
4, 37829, Note_off_c, 1, 79, 64
4, 37839, Note_off_c, 1, 81, 64
4, 37841, Note_off_c, 1, 69, 64
4, 37841, Note_off_c, 1, 75, 64
4, 37860, Note_on_c, 1, 79, 82
4, 37862, Note_on_c, 1, 81, 82
4, 37864, Note_on_c, 1, 76, 91
4, 37930, Note_on_c, 1, 69, 73
4, 37931, Note_off_c, 1, 79, 64
4, 37933, Note_off_c, 1, 81, 64
4, 37941, Note_off_c, 1, 76, 64
4, 37963, Note_off_c, 1, 69, 64
4, 38025, Note_on_c, 1, 80, 100
4, 38028, Note_on_c, 1, 86, 91
4, 38028, Note_on_c, 1, 74, 91
4, 38028, Note_on_c, 1, 84, 91
4, 38091, Note_off_c, 1, 86, 64
4, 38091, Note_off_c, 1, 84, 64
4, 38114, Note_off_c, 1, 80, 64
4, 38139, Note_off_c, 1, 74, 64
4, 38146, Note_on_c, 1, 86, 73
4, 38161, Note_on_c, 1, 84, 64
4, 38180, Note_on_c, 1, 81, 91
4, 38183, Note_off_c, 1, 86, 64
4, 38194, Note_off_c, 1, 84, 64
4, 38199, Note_on_c, 1, 74, 82
4, 38210, Note_off_c, 1, 81, 64
4, 38268, Note_on_c, 1, 79, 109
4, 38270, Note_on_c, 1, 83, 91
4, 38270, Note_on_c, 1, 86, 91
4, 38343, Note_off_c, 1, 83, 64
4, 38350, Note_off_c, 1, 79, 64
4, 38352, Note_off_c, 1, 86, 64
4, 38364, Note_off_c, 1, 74, 64
4, 38421, Note_on_c, 1, 78, 100
4, 38425, Note_on_c, 1, 81, 100
4, 38426, Note_on_c, 1, 86, 91
4, 38426, Note_on_c, 1, 74, 91
4, 38538, Note_off_c, 1, 81, 64
4, 38539, Note_off_c, 1, 86, 64
4, 38547, Note_off_c, 1, 78, 64
4, 38555, Note_off_c, 1, 74, 64
4, 38589, Note_on_c, 1, 86, 91
4, 38591, Note_on_c, 1, 83, 109
4, 38591, Note_on_c, 1, 79, 100
4, 38593, Note_on_c, 1, 74, 82
4, 38613, Note_off_c, 1, 74, 64
4, 38659, Note_on_c, 1, 74, 73
4, 38664, Note_off_c, 1, 83, 64
4, 38674, Note_off_c, 1, 79, 64
4, 38675, Note_off_c, 1, 86, 64
4, 38745, Note_on_c, 1, 84, 100
4, 38748, Note_on_c, 1, 86, 91
4, 38748, Note_on_c, 1, 80, 91
4, 38796, Note_off_c, 1, 84, 64
4, 38799, Note_off_c, 1, 86, 64
4, 38808, Note_off_c, 1, 74, 64
4, 38812, Note_off_c, 1, 80, 64
4, 38829, Note_on_c, 1, 74, 82
4, 38831, Note_on_c, 1, 84, 91
4, 38831, Note_on_c, 1, 86, 82
4, 38833, Note_on_c, 1, 81, 82
4, 38880, Note_off_c, 1, 84, 64
4, 38880, Note_off_c, 1, 86, 64
4, 38884, Note_off_c, 1, 81, 64
4, 38896, Note_off_c, 1, 74, 64
4, 38912, Note_on_c, 1, 74, 82
4, 38915, Note_on_c, 1, 79, 100
4, 38916, Note_on_c, 1, 86, 91
4, 38922, Note_on_c, 1, 83, 100
4, 39006, Note_off_c, 1, 79, 64
4, 39008, Note_off_c, 1, 83, 64
4, 39011, Note_off_c, 1, 86, 64
4, 39021, Note_off_c, 1, 74, 64
4, 39075, Note_on_c, 1, 81, 91
4, 39075, Note_on_c, 1, 86, 91
4, 39077, Note_on_c, 1, 78, 91
4, 39077, Note_on_c, 1, 74, 82
4, 39135, Note_off_c, 1, 81, 64
4, 39136, Note_off_c, 1, 78, 64
4, 39140, Note_off_c, 1, 74, 64
4, 39141, Note_off_c, 1, 86, 64
4, 39160, Note_on_c, 1, 86, 91
4, 39165, Note_on_c, 1, 74, 91
4, 39165, Note_on_c, 1, 79, 100
4, 39165, Note_on_c, 1, 83, 91
4, 39211, Note_off_c, 1, 83, 64
4, 39217, Note_off_c, 1, 86, 64
4, 39222, Note_off_c, 1, 79, 64
4, 39230, Note_off_c, 1, 74, 64
4, 39315, Note_on_c, 1, 75, 91
4, 39320, Note_on_c, 1, 81, 82
4, 39322, Note_on_c, 1, 79, 73
4, 39324, Note_on_c, 1, 69, 91
4, 39359, Note_off_c, 1, 69, 64
4, 39364, Note_off_c, 1, 79, 64
4, 39367, Note_off_c, 1, 81, 64
4, 39373, Note_off_c, 1, 75, 64
4, 39398, Note_on_c, 1, 69, 82
4, 39401, Note_on_c, 1, 76, 91
4, 39402, Note_on_c, 1, 79, 82
4, 39402, Note_on_c, 1, 81, 73
4, 39448, Note_off_c, 1, 69, 64
4, 39450, Note_off_c, 1, 79, 64
4, 39454, Note_off_c, 1, 81, 64
4, 39457, Note_off_c, 1, 76, 64
4, 39479, Note_on_c, 1, 76, 82
4, 39481, Note_on_c, 1, 79, 82
4, 39482, Note_on_c, 1, 81, 82
4, 39482, Note_on_c, 1, 69, 73
4, 39528, Note_off_c, 1, 79, 64
4, 39531, Note_off_c, 1, 76, 64
4, 39533, Note_off_c, 1, 81, 64
4, 39535, Note_off_c, 1, 69, 64
4, 39562, Note_on_c, 1, 69, 82
4, 39564, Note_on_c, 1, 74, 100
4, 39565, Note_on_c, 1, 78, 100
4, 39568, Note_on_c, 1, 81, 91
4, 39648, Note_off_c, 1, 69, 64
4, 39648, Note_off_c, 1, 74, 64
4, 39648, Note_off_c, 1, 78, 64
4, 39648, Note_off_c, 1, 81, 64
4, 39726, Note_on_c, 1, 73, 91
4, 39730, Note_on_c, 1, 67, 100
4, 39730, Note_on_c, 1, 81, 91
4, 39731, Note_on_c, 1, 76, 91
4, 39813, Note_off_c, 1, 76, 64
4, 39816, Note_off_c, 1, 67, 64
4, 39822, Note_off_c, 1, 73, 64
4, 39823, Note_off_c, 1, 81, 64
4, 39892, Note_on_c, 1, 78, 100
4, 39896, Note_on_c, 1, 74, 91
4, 39896, Note_on_c, 1, 81, 82
4, 39897, Note_on_c, 1, 69, 100
4, 39979, Note_off_c, 1, 74, 64
4, 39981, Note_off_c, 1, 78, 64
4, 39984, Note_off_c, 1, 81, 64
4, 39988, Note_off_c, 1, 69, 64
4, 40048, Note_on_c, 1, 75, 91
4, 40050, Note_on_c, 1, 79, 100
4, 40050, Note_on_c, 1, 69, 82
4, 40050, Note_on_c, 1, 81, 82
4, 40097, Note_off_c, 1, 79, 64
4, 40097, Note_off_c, 1, 69, 64
4, 40097, Note_off_c, 1, 81, 64
4, 40107, Note_off_c, 1, 75, 64
4, 40128, Note_on_c, 1, 69, 82
4, 40130, Note_on_c, 1, 79, 91
4, 40131, Note_on_c, 1, 76, 91
4, 40134, Note_on_c, 1, 81, 82
4, 40177, Note_off_c, 1, 79, 64
4, 40183, Note_off_c, 1, 81, 64
4, 40184, Note_off_c, 1, 76, 64
4, 40187, Note_off_c, 1, 69, 64
4, 40212, Note_on_c, 1, 74, 100
4, 40213, Note_on_c, 1, 69, 82
4, 40214, Note_on_c, 1, 78, 91
4, 40214, Note_on_c, 1, 81, 91
4, 40304, Note_off_c, 1, 74, 64
4, 40306, Note_off_c, 1, 78, 64
4, 40309, Note_off_c, 1, 81, 64
4, 40311, Note_off_c, 1, 69, 64
4, 40372, Note_on_c, 1, 81, 82
4, 40373, Note_on_c, 1, 73, 91
4, 40375, Note_on_c, 1, 69, 91
4, 40377, Note_on_c, 1, 76, 91
4, 40431, Note_off_c, 1, 76, 64
4, 40434, Note_off_c, 1, 69, 64
4, 40439, Note_off_c, 1, 81, 64
4, 40440, Note_off_c, 1, 73, 64
4, 40462, Note_on_c, 1, 69, 91
4, 40464, Note_on_c, 1, 74, 91
4, 40467, Note_on_c, 1, 81, 73
4, 40469, Note_on_c, 1, 78, 100
4, 40511, Note_off_c, 1, 81, 64
4, 40517, Note_off_c, 1, 78, 64
4, 40521, Note_off_c, 1, 74, 64
4, 40523, Note_off_c, 1, 69, 64
4, 40616, Note_on_c, 1, 71, 91
4, 40621, Note_on_c, 1, 64, 82
4, 40621, Note_on_c, 1, 74, 91
4, 40621, Note_on_c, 1, 76, 91
4, 40751, Note_off_c, 1, 76, 64
4, 40755, Note_off_c, 1, 64, 64
4, 40759, Note_off_c, 1, 74, 64
4, 40762, Note_off_c, 1, 71, 64
4, 40784, Note_on_c, 1, 71, 82
4, 40784, Note_on_c, 1, 64, 91
4, 40786, Note_on_c, 1, 76, 73
4, 40786, Note_on_c, 1, 74, 82
4, 40834, Note_off_c, 1, 74, 64
4, 40839, Note_off_c, 1, 71, 64
4, 40843, Note_off_c, 1, 76, 64
4, 40848, Note_off_c, 1, 64, 64
4, 40867, Note_on_c, 1, 64, 82
4, 40869, Note_on_c, 1, 69, 100
4, 40869, Note_on_c, 1, 76, 91
4, 40869, Note_on_c, 1, 73, 91
4, 40951, Note_off_c, 1, 69, 64
4, 40952, Note_off_c, 1, 64, 64
4, 40952, Note_off_c, 1, 76, 64
4, 40952, Note_off_c, 1, 73, 64
4, 41025, Note_on_c, 1, 68, 100
4, 41026, Note_on_c, 1, 64, 91
4, 41026, Note_on_c, 1, 71, 91
4, 41028, Note_on_c, 1, 76, 91
4, 41127, Note_off_c, 1, 71, 64
4, 41134, Note_off_c, 1, 64, 64
4, 41135, Note_off_c, 1, 76, 64
4, 41137, Note_off_c, 1, 68, 64
4, 41191, Note_on_c, 1, 73, 91
4, 41193, Note_on_c, 1, 76, 91
4, 41194, Note_on_c, 1, 64, 91
4, 41197, Note_on_c, 1, 69, 100
4, 41290, Note_off_c, 1, 76, 64
4, 41290, Note_off_c, 1, 69, 64
4, 41291, Note_off_c, 1, 73, 64
4, 41294, Note_off_c, 1, 64, 64
4, 41346, Note_on_c, 1, 62, 91
4, 41349, Note_on_c, 1, 67, 91
4, 41349, Note_on_c, 1, 74, 73
4, 41349, Note_on_c, 1, 71, 82
4, 41399, Note_off_c, 1, 71, 64
4, 41406, Note_off_c, 1, 67, 64
4, 41409, Note_off_c, 1, 62, 64
4, 41409, Note_off_c, 1, 74, 64
4, 41429, Note_on_c, 1, 67, 91
4, 41430, Note_on_c, 1, 74, 73
4, 41430, Note_on_c, 1, 71, 82
4, 41432, Note_on_c, 1, 62, 82
4, 41475, Note_off_c, 1, 71, 64
4, 41480, Note_off_c, 1, 67, 64
4, 41482, Note_off_c, 1, 74, 64
4, 41485, Note_off_c, 1, 62, 64
4, 41511, Note_on_c, 1, 62, 73
4, 41511, Note_on_c, 1, 67, 91
4, 41513, Note_on_c, 1, 71, 82
4, 41515, Note_on_c, 1, 74, 82
4, 41591, Note_off_c, 1, 62, 64
4, 41599, Note_off_c, 1, 71, 64
4, 41601, Note_off_c, 1, 67, 64
4, 41601, Note_off_c, 1, 74, 64
4, 41667, Note_on_c, 1, 62, 91
4, 41670, Note_on_c, 1, 66, 91
4, 41670, Note_on_c, 1, 69, 100
4, 41672, Note_on_c, 1, 74, 64
4, 41724, Note_off_c, 1, 74, 64
4, 41725, Note_off_c, 1, 62, 64
4, 41729, Note_off_c, 1, 69, 64
4, 41730, Note_off_c, 1, 66, 64
4, 41758, Note_on_c, 1, 62, 91
4, 41760, Note_on_c, 1, 66, 91
4, 41762, Note_on_c, 1, 74, 91
4, 41765, Note_on_c, 1, 69, 91
4, 41813, Note_off_c, 1, 62, 64
4, 41816, Note_off_c, 1, 69, 64
4, 41819, Note_off_c, 1, 66, 64
4, 41824, Note_off_c, 1, 74, 64
4, 41909, Note_on_c, 1, 69, 100
4, 41917, Note_on_c, 1, 79, 91
4, 41919, Note_on_c, 1, 75, 100
4, 41919, Note_on_c, 1, 81, 91
4, 41919, Note_on_c, 1, 77, 100
4, 41962, Note_off_c, 1, 75, 64
4, 41971, Note_off_c, 1, 77, 64
4, 41974, Note_off_c, 1, 79, 64
4, 41978, Note_off_c, 1, 81, 64
4, 42025, Note_off_c, 1, 69, 64
4, 42027, Note_on_c, 1, 81, 60
4, 42034, Note_on_c, 1, 79, 82
4, 42058, Note_on_c, 1, 76, 91
4, 42064, Note_off_c, 1, 81, 64
4, 42074, Note_off_c, 1, 79, 64
4, 42081, Note_on_c, 1, 69, 100
4, 42096, Note_off_c, 1, 76, 64
4, 42158, Note_on_c, 1, 81, 100
4, 42161, Note_on_c, 1, 74, 100
4, 42161, Note_on_c, 1, 78, 100
4, 42250, Note_off_c, 1, 74, 64
4, 42251, Note_off_c, 1, 78, 64
4, 42261, Note_off_c, 1, 81, 64
4, 42297, Note_off_c, 1, 69, 64
4, 42318, Note_on_c, 1, 69, 73
4, 42320, Note_on_c, 1, 73, 91
4, 42324, Note_on_c, 1, 81, 91
4, 42324, Note_on_c, 1, 76, 100
4, 42419, Note_off_c, 1, 76, 64
4, 42432, Note_off_c, 1, 73, 64
4, 42432, Note_off_c, 1, 81, 64
4, 42444, Note_off_c, 1, 69, 64
4, 42476, Note_on_c, 1, 81, 91
4, 42476, Note_on_c, 1, 78, 100
4, 42476, Note_on_c, 1, 69, 82
4, 42486, Note_on_c, 1, 74, 91
4, 42537, Note_off_c, 1, 69, 64
4, 42558, Note_on_c, 1, 69, 82
4, 42565, Note_off_c, 1, 78, 64
4, 42568, Note_off_c, 1, 81, 64
4, 42568, Note_off_c, 1, 74, 64
4, 42648, Note_on_c, 1, 75, 100
4, 42648, Note_on_c, 1, 81, 82
4, 42648, Note_on_c, 1, 79, 100
4, 42697, Note_off_c, 1, 79, 64
4, 42699, Note_off_c, 1, 81, 64
4, 42706, Note_off_c, 1, 75, 64
4, 42721, Note_on_c, 1, 79, 82
4, 42724, Note_on_c, 1, 81, 91
4, 42724, Note_on_c, 1, 76, 91
4, 42773, Note_off_c, 1, 79, 64
4, 42780, Note_off_c, 1, 76, 64
4, 42783, Note_off_c, 1, 81, 64
4, 42795, Note_off_c, 1, 69, 64
4, 42806, Note_on_c, 1, 69, 60
4, 42807, Note_on_c, 1, 74, 100
4, 42812, Note_on_c, 1, 78, 91
4, 42813, Note_on_c, 1, 81, 82
4, 42888, Note_off_c, 1, 74, 64
4, 42898, Note_off_c, 1, 78, 64
4, 42902, Note_off_c, 1, 81, 64
4, 42941, Note_off_c, 1, 69, 64
4, 42962, Note_on_c, 1, 81, 91
4, 42964, Note_on_c, 1, 69, 82
4, 42964, Note_on_c, 1, 73, 100
4, 42964, Note_on_c, 1, 76, 91
4, 42971, Note_on_c, 1, 77, 73
4, 42971, Note_on_c, 1, 79, 64
4, 42982, Note_off_c, 1, 77, 64
4, 42982, Note_off_c, 1, 79, 64
4, 43044, Note_off_c, 1, 76, 64
4, 43050, Note_off_c, 1, 81, 64
4, 43057, Note_off_c, 1, 73, 64
4, 43084, Note_off_c, 1, 69, 64
4, 43213, Note_on_c, 1, 61, 91
4, 43214, Note_on_c, 1, 69, 82
4, 43216, Note_on_c, 1, 64, 91
4, 43217, Note_on_c, 1, 55, 73
4, 43226, Note_off_c, 1, 55, 64
4, 43273, Note_off_c, 1, 64, 64
4, 43276, Note_off_c, 1, 61, 64
4, 43278, Note_off_c, 1, 69, 64
4, 43372, Note_on_c, 1, 45, 56
4, 43398, Note_off_c, 1, 45, 64
4, 43455, Note_on_c, 1, 69, 82
4, 43456, Note_on_c, 1, 66, 91
4, 43458, Note_on_c, 1, 57, 91
4, 43458, Note_on_c, 1, 62, 91
4, 43572, Note_off_c, 1, 62, 64
4, 43578, Note_off_c, 1, 69, 64
4, 43581, Note_off_c, 1, 66, 64
4, 43584, Note_off_c, 1, 57, 64
4, 43618, Note_on_c, 1, 57, 82
4, 43620, Note_on_c, 1, 61, 100
4, 43620, Note_on_c, 1, 69, 82
4, 43620, Note_on_c, 1, 64, 100
4, 43686, Note_off_c, 1, 64, 64
4, 43690, Note_off_c, 1, 61, 64
4, 43692, Note_off_c, 1, 57, 64
4, 43697, Note_off_c, 1, 69, 64
4, 43773, Note_on_c, 1, 45, 73
4, 43788, Note_off_c, 1, 45, 64
4, 43859, Note_on_c, 1, 57, 91
4, 43861, Note_on_c, 1, 67, 91
4, 43861, Note_on_c, 1, 63, 91
4, 43862, Note_on_c, 1, 69, 82
4, 43915, Note_off_c, 1, 57, 64
4, 43917, Note_off_c, 1, 67, 64
4, 43919, Note_off_c, 1, 69, 64
4, 43923, Note_off_c, 1, 63, 64
4, 43939, Note_on_c, 1, 57, 60
4, 43939, Note_on_c, 1, 67, 64
4, 43944, Note_on_c, 1, 69, 64
4, 43944, Note_on_c, 1, 64, 73
4, 43992, Note_off_c, 1, 67, 64
4, 43994, Note_off_c, 1, 57, 64
4, 43994, Note_off_c, 1, 64, 64
4, 44002, Note_off_c, 1, 69, 64
4, 44016, Note_on_c, 1, 69, 73
4, 44018, Note_on_c, 1, 64, 73
4, 44018, Note_on_c, 1, 57, 64
4, 44018, Note_on_c, 1, 67, 73
4, 44070, Note_off_c, 1, 57, 64
4, 44070, Note_off_c, 1, 67, 64
4, 44071, Note_off_c, 1, 64, 64
4, 44077, Note_off_c, 1, 69, 64
4, 44107, Note_on_c, 1, 57, 82
4, 44109, Note_on_c, 1, 66, 100
4, 44111, Note_on_c, 1, 69, 91
4, 44111, Note_on_c, 1, 62, 100
4, 44186, Note_off_c, 1, 62, 64
4, 44191, Note_off_c, 1, 66, 64
4, 44191, Note_off_c, 1, 69, 64
4, 44193, Note_off_c, 1, 57, 64
4, 44271, Note_on_c, 1, 57, 100
4, 44271, Note_on_c, 1, 69, 91
4, 44273, Note_on_c, 1, 61, 91
4, 44273, Note_on_c, 1, 64, 82
4, 44382, Note_off_c, 1, 69, 64
4, 44382, Note_off_c, 1, 64, 64
4, 44389, Note_off_c, 1, 61, 64
4, 44392, Note_off_c, 1, 57, 64
4, 44434, Note_on_c, 1, 57, 91
4, 44435, Note_on_c, 1, 62, 100
4, 44438, Note_on_c, 1, 66, 91
4, 44441, Note_on_c, 1, 69, 82
4, 44509, Note_off_c, 1, 62, 64
4, 44512, Note_off_c, 1, 66, 64
4, 44515, Note_off_c, 1, 69, 64
4, 44585, Note_on_c, 1, 45, 73
4, 44609, Note_off_c, 1, 45, 64
4, 44675, Note_on_c, 1, 63, 91
4, 44677, Note_on_c, 1, 69, 91
4, 44678, Note_on_c, 1, 67, 100
4, 44722, Note_off_c, 1, 67, 64
4, 44726, Note_off_c, 1, 69, 64
4, 44729, Note_off_c, 1, 63, 64
4, 44752, Note_on_c, 1, 67, 82
4, 44753, Note_on_c, 1, 69, 82
4, 44755, Note_on_c, 1, 64, 91
4, 44802, Note_off_c, 1, 57, 64
4, 44803, Note_off_c, 1, 64, 64
4, 44806, Note_off_c, 1, 67, 64
4, 44808, Note_off_c, 1, 69, 64
4, 44836, Note_on_c, 1, 57, 73
4, 44839, Note_on_c, 1, 69, 82
4, 44839, Note_on_c, 1, 64, 91
4, 44839, Note_on_c, 1, 67, 82
4, 44881, Note_off_c, 1, 57, 64
4, 44886, Note_off_c, 1, 64, 64
4, 44886, Note_off_c, 1, 67, 64
4, 44889, Note_off_c, 1, 69, 64
4, 44915, Note_on_c, 1, 57, 82
4, 44918, Note_on_c, 1, 64, 100
4, 44919, Note_on_c, 1, 67, 91
4, 44919, Note_on_c, 1, 69, 82
4, 44964, Note_off_c, 1, 57, 64
4, 44967, Note_off_c, 1, 64, 64
4, 44969, Note_off_c, 1, 67, 64
4, 44971, Note_off_c, 1, 69, 64
4, 44995, Note_on_c, 1, 67, 82
4, 44998, Note_on_c, 1, 64, 82
4, 44998, Note_on_c, 1, 57, 73
4, 45000, Note_on_c, 1, 69, 73
4, 45061, Note_off_c, 1, 64, 64
4, 45063, Note_off_c, 1, 57, 64
4, 45065, Note_off_c, 1, 67, 64
4, 45068, Note_off_c, 1, 69, 64
4, 45071, Note_on_c, 1, 45, 73
4, 45095, Note_off_c, 1, 45, 64
4, 45150, Note_on_c, 1, 57, 91
4, 45152, Note_on_c, 1, 63, 91
4, 45154, Note_on_c, 1, 69, 82
4, 45154, Note_on_c, 1, 67, 91
4, 45202, Note_off_c, 1, 57, 64
4, 45207, Note_off_c, 1, 67, 64
4, 45209, Note_off_c, 1, 69, 64
4, 45214, Note_off_c, 1, 63, 64
4, 45230, Note_on_c, 1, 57, 73
4, 45235, Note_on_c, 1, 67, 82
4, 45235, Note_on_c, 1, 69, 73
4, 45235, Note_on_c, 1, 64, 82
4, 45286, Note_off_c, 1, 57, 64
4, 45290, Note_off_c, 1, 64, 64
4, 45292, Note_off_c, 1, 67, 64
4, 45292, Note_off_c, 1, 69, 64
4, 45316, Note_on_c, 1, 57, 73
4, 45319, Note_on_c, 1, 64, 82
4, 45322, Note_on_c, 1, 69, 82
4, 45322, Note_on_c, 1, 67, 73
4, 45371, Note_off_c, 1, 64, 64
4, 45371, Note_off_c, 1, 67, 64
4, 45375, Note_off_c, 1, 57, 64
4, 45376, Note_off_c, 1, 69, 64
4, 45404, Note_on_c, 1, 57, 64
4, 45405, Note_on_c, 1, 69, 82
4, 45405, Note_on_c, 1, 62, 91
4, 45406, Note_on_c, 1, 66, 91
4, 45482, Note_off_c, 1, 57, 64
4, 45488, Note_on_c, 1, 45, 36
4, 45491, Note_off_c, 1, 62, 64
4, 45491, Note_off_c, 1, 66, 64
4, 45501, Note_off_c, 1, 69, 64
4, 45525, Note_off_c, 1, 45, 64
4, 45564, Note_on_c, 1, 69, 82
4, 45568, Note_on_c, 1, 64, 91
4, 45568, Note_on_c, 1, 55, 91
4, 45568, Note_on_c, 1, 61, 100
4, 45689, Note_off_c, 1, 55, 64
4, 45694, Note_off_c, 1, 64, 64
4, 45700, Note_off_c, 1, 61, 64
4, 45710, Note_off_c, 1, 69, 64
4, 45724, Note_on_c, 1, 57, 91
4, 45727, Note_on_c, 1, 66, 91
4, 45730, Note_on_c, 1, 62, 91
4, 45731, Note_on_c, 1, 69, 91
4, 45807, Note_off_c, 1, 62, 64
4, 45808, Note_off_c, 1, 66, 64
4, 45809, Note_on_c, 1, 45, 32
4, 45813, Note_off_c, 1, 69, 64
4, 45819, Note_off_c, 1, 45, 64
4, 45886, Note_on_c, 1, 45, 56
4, 45906, Note_off_c, 1, 45, 64
4, 45972, Note_on_c, 1, 69, 91
4, 45974, Note_on_c, 1, 67, 100
4, 45974, Note_on_c, 1, 63, 100
4, 46024, Note_off_c, 1, 63, 64
4, 46037, Note_on_c, 1, 64, 16
4, 46038, Note_off_c, 1, 64, 64
4, 46045, Note_off_c, 1, 69, 64
4, 46051, Note_off_c, 1, 67, 64
4, 46121, Note_off_c, 1, 57, 64
4, 46122, Note_on_c, 1, 45, 73
4, 46158, Note_off_c, 1, 45, 64
4, 46204, Note_on_c, 1, 57, 91
4, 46208, Note_on_c, 1, 63, 100
4, 46210, Note_on_c, 1, 67, 100
4, 46210, Note_on_c, 1, 69, 91
4, 46265, Note_off_c, 1, 63, 64
4, 46270, Note_on_c, 1, 64, 36
4, 46279, Note_off_c, 1, 64, 64
4, 46286, Note_off_c, 1, 67, 64
4, 46286, Note_off_c, 1, 69, 64
4, 46289, Note_off_c, 1, 57, 64
4, 46369, Note_on_c, 1, 45, 82
4, 46394, Note_off_c, 1, 45, 64
4, 46452, Note_on_c, 1, 57, 100
4, 46458, Note_on_c, 1, 67, 100
4, 46458, Note_on_c, 1, 64, 109
4, 46459, Note_on_c, 1, 69, 91
4, 46525, Note_off_c, 1, 69, 64
4, 46531, Note_off_c, 1, 67, 64
4, 46545, Note_off_c, 1, 64, 64
4, 46578, Note_on_c, 1, 69, 60
4, 46581, Note_off_c, 1, 57, 64
4, 46585, Note_on_c, 1, 67, 73
4, 46603, Note_on_c, 1, 64, 73
4, 46618, Note_off_c, 1, 69, 64
4, 46621, Note_off_c, 1, 67, 64
4, 46625, Note_on_c, 1, 57, 73
4, 46641, Note_off_c, 1, 64, 64
4, 46701, Note_on_c, 1, 62, 100
4, 46703, Note_on_c, 1, 69, 82
4, 46705, Note_on_c, 1, 66, 91
4, 46781, Note_on_c, 1, 45, 48
4, 46791, Note_off_c, 1, 66, 64
4, 46796, Note_off_c, 1, 69, 64
4, 46799, Note_off_c, 1, 62, 64
4, 46804, Note_off_c, 1, 45, 64
4, 46813, Note_off_c, 1, 57, 64
4, 46865, Note_on_c, 1, 69, 82
4, 46865, Note_on_c, 1, 61, 100
4, 46865, Note_on_c, 1, 64, 82
4, 46944, Note_on_c, 1, 45, 52
4, 46970, Note_off_c, 1, 64, 64
4, 46980, Note_off_c, 1, 61, 64
4, 46985, Note_off_c, 1, 69, 64
4, 46986, Note_off_c, 1, 45, 64
4, 47021, Note_on_c, 1, 57, 91
4, 47025, Note_on_c, 1, 69, 82
4, 47025, Note_on_c, 1, 66, 91
4, 47027, Note_on_c, 1, 62, 91
4, 47103, Note_on_c, 1, 45, 60
4, 47120, Note_off_c, 1, 45, 64
4, 47132, Note_off_c, 1, 62, 64
4, 47133, Note_off_c, 1, 66, 64
4, 47137, Note_off_c, 1, 69, 64
4, 47190, Note_on_c, 1, 45, 64
4, 47205, Note_off_c, 1, 45, 64
4, 47267, Note_on_c, 1, 69, 91
4, 47272, Note_on_c, 1, 63, 100
4, 47273, Note_on_c, 1, 67, 100
4, 47316, Note_off_c, 1, 67, 64
4, 47322, Note_off_c, 1, 69, 64
4, 47326, Note_off_c, 1, 63, 64
4, 47351, Note_on_c, 1, 69, 91
4, 47351, Note_on_c, 1, 64, 91
4, 47351, Note_on_c, 1, 67, 82
4, 47411, Note_off_c, 1, 67, 64
4, 47414, Note_off_c, 1, 64, 64
4, 47419, Note_off_c, 1, 69, 64
4, 47422, Note_on_c, 1, 45, 60
4, 47427, Note_off_c, 1, 57, 64
4, 47452, Note_off_c, 1, 45, 64
4, 47508, Note_on_c, 1, 69, 82
4, 47511, Note_on_c, 1, 63, 91
4, 47511, Note_on_c, 1, 67, 91
4, 47514, Note_on_c, 1, 57, 82
4, 47554, Note_off_c, 1, 57, 64
4, 47559, Note_off_c, 1, 67, 64
4, 47564, Note_off_c, 1, 69, 64
4, 47564, Note_off_c, 1, 63, 64
4, 47592, Note_on_c, 1, 57, 73
4, 47594, Note_on_c, 1, 67, 82
4, 47594, Note_on_c, 1, 69, 73
4, 47595, Note_on_c, 1, 64, 91
4, 47654, Note_off_c, 1, 64, 64
4, 47660, Note_off_c, 1, 67, 64
4, 47661, Note_off_c, 1, 69, 64
4, 47663, Note_off_c, 1, 57, 64
4, 47671, Note_on_c, 1, 45, 64
4, 47723, Note_off_c, 1, 45, 64
4, 47756, Note_on_c, 1, 57, 91
4, 47756, Note_on_c, 1, 67, 100
4, 47757, Note_on_c, 1, 63, 82
4, 47757, Note_on_c, 1, 69, 73
4, 47801, Note_off_c, 1, 69, 64
4, 47803, Note_off_c, 1, 57, 64
4, 47804, Note_off_c, 1, 67, 64
4, 47810, Note_off_c, 1, 63, 64
4, 47837, Note_on_c, 1, 57, 82
4, 47837, Note_on_c, 1, 67, 91
4, 47839, Note_on_c, 1, 64, 91
4, 47841, Note_on_c, 1, 69, 91
4, 47885, Note_off_c, 1, 64, 64
4, 47889, Note_off_c, 1, 57, 64
4, 47889, Note_off_c, 1, 69, 64
4, 47891, Note_off_c, 1, 67, 64
4, 47916, Note_on_c, 1, 64, 91
4, 47916, Note_on_c, 1, 57, 82
4, 47918, Note_on_c, 1, 69, 82
4, 47918, Note_on_c, 1, 67, 73
4, 47965, Note_off_c, 1, 67, 64
4, 47970, Note_off_c, 1, 64, 64
4, 47972, Note_off_c, 1, 69, 64
4, 47975, Note_off_c, 1, 57, 64
4, 48005, Note_on_c, 1, 69, 82
4, 48008, Note_on_c, 1, 62, 100
4, 48009, Note_on_c, 1, 57, 82
4, 48009, Note_on_c, 1, 66, 82
4, 48097, Note_off_c, 1, 62, 64
4, 48099, Note_off_c, 1, 66, 64
4, 48102, Note_off_c, 1, 57, 64
4, 48104, Note_off_c, 1, 69, 64
4, 48160, Note_on_c, 1, 69, 91
4, 48167, Note_on_c, 1, 61, 91
4, 48167, Note_on_c, 1, 64, 91
4, 48168, Note_on_c, 1, 55, 91
4, 48264, Note_off_c, 1, 64, 64
4, 48268, Note_off_c, 1, 55, 64
4, 48270, Note_off_c, 1, 69, 64
4, 48275, Note_off_c, 1, 61, 64
4, 48317, Note_on_c, 1, 69, 73
4, 48317, Note_on_c, 1, 57, 91
4, 48317, Note_on_c, 1, 62, 100
4, 48317, Note_on_c, 1, 66, 82
4, 48386, Note_off_c, 1, 57, 64
4, 48390, Note_off_c, 1, 62, 64
4, 48401, Note_off_c, 1, 66, 64
4, 48401, Note_off_c, 1, 69, 64
4, 48564, Note_on_c, 1, 69, 91
4, 48568, Note_on_c, 1, 79, 100
4, 48568, Note_on_c, 1, 81, 91
4, 48568, Note_on_c, 1, 76, 91
4, 48602, Note_off_c, 1, 79, 64
4, 48604, Note_off_c, 1, 69, 64
4, 48607, Note_off_c, 1, 81, 64
4, 48607, Note_off_c, 1, 76, 64
4, 48647, Note_on_c, 1, 69, 91
4, 48648, Note_on_c, 1, 79, 91
4, 48648, Note_on_c, 1, 76, 91
4, 48648, Note_on_c, 1, 81, 82
4, 48688, Note_off_c, 1, 69, 64
4, 48691, Note_off_c, 1, 79, 64
4, 48694, Note_off_c, 1, 76, 64
4, 48699, Note_off_c, 1, 81, 64
4, 48728, Note_on_c, 1, 69, 91
4, 48728, Note_on_c, 1, 79, 91
4, 48728, Note_on_c, 1, 76, 91
4, 48728, Note_on_c, 1, 81, 82
4, 48771, Note_off_c, 1, 69, 64
4, 48780, Note_off_c, 1, 79, 64
4, 48781, Note_off_c, 1, 76, 64
4, 48781, Note_off_c, 1, 81, 64
4, 48809, Note_on_c, 1, 79, 82
4, 48809, Note_on_c, 1, 69, 82
4, 48810, Note_on_c, 1, 76, 91
4, 48811, Note_on_c, 1, 81, 82
4, 48851, Note_off_c, 1, 69, 64
4, 48856, Note_off_c, 1, 81, 64
4, 48860, Note_off_c, 1, 79, 64
4, 48862, Note_off_c, 1, 76, 64
4, 48883, Note_on_c, 1, 69, 91
4, 48885, Note_on_c, 1, 76, 91
4, 48885, Note_on_c, 1, 79, 82
4, 48889, Note_on_c, 1, 81, 91
4, 48945, Note_off_c, 1, 69, 64
4, 48945, Note_off_c, 1, 81, 64
4, 48948, Note_off_c, 1, 76, 64
4, 48950, Note_off_c, 1, 79, 64
4, 49049, Note_on_c, 1, 79, 100
4, 49055, Note_on_c, 1, 75, 100
4, 49057, Note_on_c, 1, 69, 100
4, 49057, Note_on_c, 1, 81, 91
4, 49095, Note_off_c, 1, 69, 64
4, 49102, Note_off_c, 1, 79, 64
4, 49104, Note_off_c, 1, 81, 64
4, 49106, Note_off_c, 1, 75, 64
4, 49131, Note_on_c, 1, 69, 91
4, 49134, Note_on_c, 1, 76, 82
4, 49137, Note_on_c, 1, 79, 82
4, 49137, Note_on_c, 1, 81, 91
4, 49177, Note_off_c, 1, 69, 64
4, 49180, Note_off_c, 1, 81, 64
4, 49180, Note_off_c, 1, 79, 64
4, 49182, Note_off_c, 1, 76, 64
4, 49213, Note_on_c, 1, 76, 100
4, 49214, Note_on_c, 1, 79, 82
4, 49214, Note_on_c, 1, 69, 91
4, 49216, Note_on_c, 1, 81, 82
4, 49261, Note_off_c, 1, 79, 64
4, 49263, Note_off_c, 1, 76, 64
4, 49263, Note_off_c, 1, 69, 64
4, 49263, Note_off_c, 1, 81, 64
4, 49303, Note_on_c, 1, 69, 82
4, 49307, Note_on_c, 1, 78, 100
4, 49309, Note_on_c, 1, 74, 100
4, 49319, Note_on_c, 1, 81, 91
4, 49389, Note_off_c, 1, 69, 64
4, 49389, Note_off_c, 1, 74, 64
4, 49389, Note_off_c, 1, 81, 64
4, 49391, Note_off_c, 1, 78, 64
4, 49455, Note_on_c, 1, 69, 100
4, 49461, Note_on_c, 1, 81, 100
4, 49463, Note_on_c, 1, 76, 91
4, 49464, Note_on_c, 1, 73, 91
4, 49564, Note_off_c, 1, 81, 64
4, 49568, Note_off_c, 1, 76, 64
4, 49572, Note_off_c, 1, 69, 64
4, 49572, Note_off_c, 1, 73, 64
4, 49625, Note_on_c, 1, 81, 82
4, 49626, Note_on_c, 1, 69, 100
4, 49628, Note_on_c, 1, 78, 100
4, 49631, Note_on_c, 1, 74, 100
4, 49707, Note_off_c, 1, 74, 64
4, 49710, Note_off_c, 1, 81, 64
4, 49712, Note_off_c, 1, 69, 64
4, 49712, Note_off_c, 1, 78, 64
4, 49862, Note_on_c, 1, 75, 100
4, 49862, Note_on_c, 1, 79, 100
4, 49863, Note_on_c, 1, 69, 100
4, 49863, Note_on_c, 1, 81, 82
4, 49899, Note_off_c, 1, 69, 64
4, 49903, Note_off_c, 1, 81, 64
4, 49909, Note_off_c, 1, 79, 64
4, 49917, Note_off_c, 1, 75, 64
4, 49942, Note_on_c, 1, 69, 91
4, 49943, Note_on_c, 1, 79, 82
4, 49948, Note_on_c, 1, 81, 91
4, 49951, Note_on_c, 1, 76, 100
4, 50019, Note_off_c, 1, 69, 64
4, 50019, Note_off_c, 1, 81, 64
4, 50019, Note_off_c, 1, 76, 64
4, 50021, Note_off_c, 1, 79, 64
4, 50107, Note_on_c, 1, 69, 100
4, 50108, Note_on_c, 1, 75, 91
4, 50110, Note_on_c, 1, 79, 91
4, 50110, Note_on_c, 1, 81, 73
4, 50159, Note_off_c, 1, 69, 64
4, 50164, Note_off_c, 1, 81, 64
4, 50167, Note_off_c, 1, 79, 64
4, 50172, Note_off_c, 1, 75, 64
4, 50187, Note_on_c, 1, 69, 91
4, 50191, Note_on_c, 1, 79, 91
4, 50193, Note_on_c, 1, 76, 91
4, 50193, Note_on_c, 1, 81, 82
4, 50258, Note_off_c, 1, 79, 64
4, 50258, Note_off_c, 1, 76, 64
4, 50260, Note_off_c, 1, 69, 64
4, 50260, Note_off_c, 1, 81, 64
4, 50356, Note_on_c, 1, 79, 100
4, 50360, Note_on_c, 1, 81, 91
4, 50365, Note_on_c, 1, 75, 100
4, 50366, Note_on_c, 1, 69, 109
4, 50424, Note_off_c, 1, 81, 64
4, 50425, Note_off_c, 1, 79, 64
4, 50446, Note_off_c, 1, 75, 64
4, 50468, Note_on_c, 1, 81, 60
4, 50478, Note_off_c, 1, 69, 64
4, 50490, Note_on_c, 1, 79, 73
4, 50509, Note_on_c, 1, 76, 91
4, 50517, Note_off_c, 1, 81, 64
4, 50522, Note_off_c, 1, 79, 64
4, 50526, Note_on_c, 1, 69, 91
4, 50544, Note_off_c, 1, 76, 64
4, 50594, Note_on_c, 1, 74, 100
4, 50597, Note_on_c, 1, 78, 100
4, 50598, Note_on_c, 1, 81, 73
4, 50683, Note_off_c, 1, 78, 64
4, 50689, Note_off_c, 1, 81, 64
4, 50689, Note_off_c, 1, 74, 64
4, 50713, Note_off_c, 1, 69, 64
4, 50751, Note_on_c, 1, 81, 91
4, 50757, Note_on_c, 1, 76, 100
4, 50757, Note_on_c, 1, 69, 100
4, 50759, Note_on_c, 1, 73, 100
4, 50857, Note_off_c, 1, 76, 64
4, 50876, Note_off_c, 1, 73, 64
4, 50879, Note_off_c, 1, 81, 64
4, 50880, Note_off_c, 1, 69, 64
4, 50920, Note_on_c, 1, 81, 82
4, 50922, Note_on_c, 1, 69, 100
4, 50922, Note_on_c, 1, 78, 91
4, 50922, Note_on_c, 1, 74, 91
4, 51005, Note_off_c, 1, 69, 64
4, 51005, Note_off_c, 1, 74, 64
4, 51012, Note_off_c, 1, 78, 64
4, 51014, Note_off_c, 1, 81, 64
4, 51161, Note_on_c, 1, 74, 100
4, 51164, Note_on_c, 1, 86, 91
4, 51165, Note_on_c, 1, 84, 91
4, 51165, Note_on_c, 1, 81, 91
4, 51207, Note_off_c, 1, 74, 64
4, 51208, Note_off_c, 1, 84, 64
4, 51210, Note_off_c, 1, 81, 64
4, 51215, Note_off_c, 1, 86, 64
4, 51240, Note_on_c, 1, 74, 91
4, 51241, Note_on_c, 1, 86, 82
4, 51243, Note_on_c, 1, 81, 91
4, 51243, Note_on_c, 1, 84, 91
4, 51291, Note_off_c, 1, 74, 64
4, 51291, Note_off_c, 1, 84, 64
4, 51294, Note_off_c, 1, 81, 64
4, 51297, Note_off_c, 1, 86, 64
4, 51322, Note_on_c, 1, 74, 91
4, 51327, Note_on_c, 1, 86, 82
4, 51327, Note_on_c, 1, 81, 82
4, 51367, Note_off_c, 1, 74, 64
4, 51372, Note_off_c, 1, 81, 64
4, 51377, Note_off_c, 1, 86, 64
4, 51403, Note_on_c, 1, 74, 91
4, 51406, Note_on_c, 1, 81, 91
4, 51406, Note_on_c, 1, 84, 82
4, 51409, Note_on_c, 1, 86, 100
4, 51450, Note_off_c, 1, 74, 64
4, 51452, Note_off_c, 1, 84, 64
4, 51460, Note_off_c, 1, 86, 64
4, 51461, Note_off_c, 1, 81, 64
4, 51486, Note_on_c, 1, 81, 100
4, 51486, Note_on_c, 1, 84, 100
4, 51486, Note_on_c, 1, 74, 91
4, 51488, Note_on_c, 1, 86, 82
4, 51541, Note_off_c, 1, 84, 64
4, 51541, Note_off_c, 1, 74, 64
4, 51543, Note_off_c, 1, 86, 64
4, 51545, Note_off_c, 1, 81, 64
4, 51641, Note_on_c, 1, 74, 91
4, 51643, Note_on_c, 1, 86, 91
4, 51643, Note_on_c, 1, 84, 91
4, 51643, Note_on_c, 1, 80, 91
4, 51683, Note_off_c, 1, 74, 64
4, 51688, Note_off_c, 1, 84, 64
4, 51691, Note_off_c, 1, 86, 64
4, 51694, Note_off_c, 1, 80, 64
4, 51722, Note_on_c, 1, 74, 82
4, 51722, Note_on_c, 1, 81, 91
4, 51724, Note_on_c, 1, 84, 91
4, 51727, Note_on_c, 1, 86, 82
4, 51763, Note_off_c, 1, 74, 64
4, 51765, Note_off_c, 1, 84, 64
4, 51767, Note_off_c, 1, 81, 64
4, 51773, Note_off_c, 1, 86, 64
4, 51803, Note_on_c, 1, 74, 82
4, 51803, Note_on_c, 1, 86, 73
4, 51805, Note_on_c, 1, 81, 82
4, 51805, Note_on_c, 1, 84, 82
4, 51852, Note_off_c, 1, 81, 64
4, 51852, Note_off_c, 1, 84, 64
4, 51853, Note_off_c, 1, 86, 64
4, 51859, Note_off_c, 1, 74, 64
4, 51895, Note_on_c, 1, 74, 91
4, 51895, Note_on_c, 1, 83, 100
4, 51895, Note_on_c, 1, 86, 91
4, 51895, Note_on_c, 1, 79, 100
4, 51975, Note_off_c, 1, 83, 64
4, 51979, Note_off_c, 1, 74, 64
4, 51979, Note_off_c, 1, 86, 64
4, 51979, Note_off_c, 1, 79, 64
4, 52053, Note_on_c, 1, 78, 100
4, 52055, Note_on_c, 1, 81, 100
4, 52057, Note_on_c, 1, 86, 91
4, 52058, Note_on_c, 1, 74, 100
4, 52157, Note_off_c, 1, 81, 64
4, 52161, Note_off_c, 1, 74, 64
4, 52163, Note_off_c, 1, 78, 64
4, 52167, Note_off_c, 1, 86, 64
4, 52210, Note_on_c, 1, 86, 91
4, 52219, Note_on_c, 1, 79, 100
4, 52221, Note_on_c, 1, 74, 100
4, 52223, Note_on_c, 1, 83, 100
4, 52286, Note_off_c, 1, 83, 64
4, 52288, Note_off_c, 1, 86, 64
4, 52290, Note_off_c, 1, 79, 64
4, 52299, Note_off_c, 1, 74, 64
4, 52373, Note_on_c, 1, 75, 91
4, 52376, Note_on_c, 1, 69, 91
4, 52379, Note_on_c, 1, 81, 82
4, 52379, Note_on_c, 1, 79, 73
4, 52422, Note_off_c, 1, 69, 64
4, 52425, Note_off_c, 1, 79, 64
4, 52432, Note_off_c, 1, 81, 64
4, 52437, Note_off_c, 1, 75, 64
4, 52459, Note_on_c, 1, 69, 100
4, 52461, Note_on_c, 1, 76, 100
4, 52461, Note_on_c, 1, 79, 91
4, 52462, Note_on_c, 1, 81, 91
4, 52535, Note_off_c, 1, 79, 64
4, 52538, Note_off_c, 1, 69, 64
4, 52538, Note_off_c, 1, 76, 64
4, 52538, Note_off_c, 1, 81, 64
4, 52621, Note_on_c, 1, 79, 100
4, 52623, Note_on_c, 1, 81, 91
4, 52624, Note_on_c, 1, 75, 91
4, 52624, Note_on_c, 1, 69, 100
4, 52671, Note_off_c, 1, 69, 64
4, 52679, Note_off_c, 1, 81, 64
4, 52682, Note_off_c, 1, 79, 64
4, 52687, Note_off_c, 1, 75, 64
4, 52707, Note_on_c, 1, 79, 91
4, 52708, Note_on_c, 1, 69, 91
4, 52708, Note_on_c, 1, 76, 91
4, 52711, Note_on_c, 1, 81, 91
4, 52775, Note_off_c, 1, 81, 64
4, 52776, Note_off_c, 1, 69, 64
4, 52782, Note_off_c, 1, 79, 64
4, 52782, Note_off_c, 1, 76, 64
4, 52869, Note_on_c, 1, 75, 100
4, 52869, Note_on_c, 1, 79, 100
4, 52869, Note_on_c, 1, 81, 82
4, 52869, Note_on_c, 1, 69, 91
4, 52912, Note_off_c, 1, 69, 64
4, 52920, Note_off_c, 1, 79, 64
4, 52923, Note_off_c, 1, 81, 64
4, 52927, Note_off_c, 1, 75, 64
4, 52951, Note_on_c, 1, 79, 91
4, 52952, Note_on_c, 1, 69, 82
4, 52952, Note_on_c, 1, 76, 100
4, 52954, Note_on_c, 1, 81, 73
4, 53008, Note_off_c, 1, 76, 64
4, 53008, Note_off_c, 1, 69, 64
4, 53008, Note_off_c, 1, 79, 64
4, 53011, Note_off_c, 1, 81, 64
4, 53028, Note_on_c, 1, 69, 82
4, 53030, Note_on_c, 1, 79, 82
4, 53030, Note_on_c, 1, 81, 82
4, 53031, Note_on_c, 1, 76, 100
4, 53082, Note_off_c, 1, 69, 64
4, 53082, Note_off_c, 1, 79, 64
4, 53089, Note_off_c, 1, 81, 64
4, 53094, Note_off_c, 1, 76, 64
4, 53108, Note_on_c, 1, 76, 91
4, 53110, Note_on_c, 1, 79, 91
4, 53111, Note_on_c, 1, 81, 82
4, 53111, Note_on_c, 1, 69, 91
4, 53157, Note_off_c, 1, 79, 64
4, 53160, Note_off_c, 1, 76, 64
4, 53166, Note_off_c, 1, 69, 64
4, 53167, Note_off_c, 1, 81, 64
4, 53196, Note_on_c, 1, 81, 91
4, 53197, Note_on_c, 1, 78, 91
4, 53199, Note_on_c, 1, 69, 91
4, 53199, Note_on_c, 1, 74, 100
4, 53280, Note_off_c, 1, 74, 64
4, 53282, Note_off_c, 1, 78, 64
4, 53290, Note_off_c, 1, 81, 64
4, 53290, Note_off_c, 1, 69, 64
4, 53356, Note_on_c, 1, 73, 100
4, 53358, Note_on_c, 1, 81, 82
4, 53358, Note_on_c, 1, 76, 82
4, 53358, Note_on_c, 1, 69, 82
4, 53458, Note_off_c, 1, 76, 64
4, 53468, Note_off_c, 1, 81, 64
4, 53472, Note_off_c, 1, 69, 64
4, 53475, Note_off_c, 1, 73, 64
4, 53519, Note_on_c, 1, 81, 82
4, 53522, Note_on_c, 1, 78, 100
4, 53522, Note_on_c, 1, 74, 91
4, 53524, Note_on_c, 1, 69, 91
4, 53588, Note_off_c, 1, 81, 64
4, 53595, Note_off_c, 1, 78, 64
4, 53595, Note_off_c, 1, 74, 64
4, 53603, Note_off_c, 1, 69, 64
4, 53683, Note_on_c, 1, 71, 82
4, 53683, Note_on_c, 1, 76, 82
4, 53684, Note_on_c, 1, 64, 82
4, 53684, Note_on_c, 1, 74, 91
4, 53723, Note_off_c, 1, 74, 64
4, 53730, Note_off_c, 1, 64, 64
4, 53731, Note_off_c, 1, 71, 64
4, 53743, Note_off_c, 1, 76, 64
4, 53758, Note_on_c, 1, 64, 82
4, 53759, Note_on_c, 1, 71, 82
4, 53759, Note_on_c, 1, 74, 82
4, 53760, Note_on_c, 1, 76, 82
4, 53808, Note_off_c, 1, 74, 64
4, 53813, Note_off_c, 1, 71, 64
4, 53813, Note_off_c, 1, 76, 64
4, 53819, Note_off_c, 1, 64, 64
4, 53842, Note_on_c, 1, 76, 91
4, 53845, Note_on_c, 1, 64, 82
4, 53849, Note_on_c, 1, 73, 91
4, 53850, Note_on_c, 1, 69, 100
4, 53932, Note_off_c, 1, 69, 64
4, 53933, Note_off_c, 1, 64, 64
4, 53933, Note_off_c, 1, 73, 64
4, 53935, Note_off_c, 1, 76, 64
4, 54001, Note_on_c, 1, 68, 91
4, 54004, Note_on_c, 1, 71, 100
4, 54004, Note_on_c, 1, 76, 82
4, 54005, Note_on_c, 1, 64, 82
4, 54057, Note_off_c, 1, 64, 64
4, 54058, Note_off_c, 1, 71, 64
4, 54064, Note_off_c, 1, 76, 64
4, 54065, Note_off_c, 1, 68, 64
4, 54091, Note_on_c, 1, 69, 100
4, 54092, Note_on_c, 1, 64, 91
4, 54094, Note_on_c, 1, 73, 91
4, 54094, Note_on_c, 1, 76, 73
4, 54149, Note_off_c, 1, 76, 64
4, 54153, Note_off_c, 1, 69, 64
4, 54153, Note_off_c, 1, 64, 64
4, 54153, Note_off_c, 1, 73, 64
4, 54245, Note_on_c, 1, 68, 100
4, 54247, Note_on_c, 1, 62, 91
4, 54247, Note_on_c, 1, 72, 91
4, 54253, Note_on_c, 1, 74, 82
4, 54312, Note_off_c, 1, 72, 64
4, 54313, Note_off_c, 1, 74, 64
4, 54326, Note_off_c, 1, 68, 64
4, 54359, Note_on_c, 1, 74, 60
4, 54360, Note_off_c, 1, 62, 64
4, 54368, Note_on_c, 1, 72, 82
4, 54395, Note_on_c, 1, 69, 91
4, 54402, Note_off_c, 1, 74, 64
4, 54411, Note_off_c, 1, 72, 64
4, 54416, Note_on_c, 1, 62, 91
4, 54428, Note_off_c, 1, 69, 64
4, 54483, Note_on_c, 1, 67, 109
4, 54483, Note_on_c, 1, 71, 91
4, 54483, Note_on_c, 1, 74, 100
4, 54577, Note_off_c, 1, 71, 64
4, 54579, Note_off_c, 1, 74, 64
4, 54581, Note_off_c, 1, 67, 64
4, 54600, Note_off_c, 1, 62, 64
4, 54650, Note_on_c, 1, 66, 91
4, 54654, Note_on_c, 1, 62, 91
4, 54657, Note_on_c, 1, 74, 82
4, 54658, Note_on_c, 1, 69, 91
4, 54771, Note_off_c, 1, 69, 64
4, 54790, Note_off_c, 1, 66, 64
4, 54790, Note_off_c, 1, 74, 64
4, 54793, Note_off_c, 1, 62, 64
4, 54817, Note_on_c, 1, 74, 82
4, 54819, Note_on_c, 1, 67, 100
4, 54820, Note_on_c, 1, 62, 91
4, 54820, Note_on_c, 1, 71, 91
4, 54892, Note_off_c, 1, 74, 64
4, 54892, Note_off_c, 1, 71, 64
4, 54896, Note_off_c, 1, 67, 64
4, 54904, Note_off_c, 1, 62, 64
4, 55057, Note_on_c, 1, 57, 82
4, 55057, Note_on_c, 1, 69, 91
4, 55058, Note_on_c, 1, 63, 91
4, 55058, Note_on_c, 1, 67, 82
4, 55107, Note_off_c, 1, 57, 64
4, 55114, Note_off_c, 1, 67, 64
4, 55117, Note_off_c, 1, 69, 64
4, 55117, Note_off_c, 1, 63, 64
4, 55128, Note_on_c, 1, 57, 64
4, 55135, Note_on_c, 1, 67, 82
4, 55139, Note_on_c, 1, 69, 73
4, 55139, Note_on_c, 1, 64, 91
4, 55185, Note_off_c, 1, 57, 64
4, 55187, Note_off_c, 1, 67, 64
4, 55188, Note_off_c, 1, 64, 64
4, 55191, Note_off_c, 1, 69, 64
4, 55217, Note_on_c, 1, 57, 82
4, 55217, Note_on_c, 1, 67, 82
4, 55219, Note_on_c, 1, 64, 73
4, 55220, Note_on_c, 1, 69, 82
4, 55263, Note_off_c, 1, 57, 64
4, 55268, Note_off_c, 1, 67, 64
4, 55268, Note_off_c, 1, 64, 64
4, 55270, Note_off_c, 1, 69, 64
4, 55297, Note_on_c, 1, 57, 82
4, 55297, Note_on_c, 1, 64, 82
4, 55300, Note_on_c, 1, 67, 82
4, 55300, Note_on_c, 1, 69, 82
4, 55346, Note_off_c, 1, 57, 64
4, 55349, Note_off_c, 1, 69, 64
4, 55350, Note_off_c, 1, 64, 64
4, 55350, Note_off_c, 1, 67, 64
4, 55374, Note_on_c, 1, 67, 91
4, 55379, Note_on_c, 1, 57, 91
4, 55379, Note_on_c, 1, 64, 91
4, 55379, Note_on_c, 1, 69, 91
4, 55435, Note_off_c, 1, 67, 64
4, 55435, Note_off_c, 1, 57, 64
4, 55435, Note_off_c, 1, 64, 64
4, 55435, Note_off_c, 1, 69, 64
4, 55543, Note_on_c, 1, 57, 91
4, 55543, Note_on_c, 1, 63, 100
4, 55545, Note_on_c, 1, 67, 100
4, 55546, Note_on_c, 1, 69, 82
4, 55592, Note_off_c, 1, 57, 64
4, 55596, Note_off_c, 1, 67, 64
4, 55597, Note_off_c, 1, 69, 64
4, 55601, Note_off_c, 1, 63, 64
4, 55621, Note_on_c, 1, 57, 82
4, 55624, Note_on_c, 1, 67, 91
4, 55625, Note_on_c, 1, 69, 82
4, 55626, Note_on_c, 1, 64, 100
4, 55675, Note_off_c, 1, 57, 64
4, 55677, Note_off_c, 1, 67, 64
4, 55678, Note_off_c, 1, 64, 64
4, 55682, Note_off_c, 1, 69, 64
4, 55706, Note_on_c, 1, 64, 82
4, 55707, Note_on_c, 1, 57, 73
4, 55709, Note_on_c, 1, 67, 91
4, 55710, Note_on_c, 1, 69, 91
4, 55754, Note_off_c, 1, 67, 64
4, 55756, Note_off_c, 1, 64, 64
4, 55760, Note_off_c, 1, 57, 64
4, 55760, Note_off_c, 1, 69, 64
4, 55786, Note_on_c, 1, 57, 73
4, 55787, Note_on_c, 1, 69, 82
4, 55789, Note_on_c, 1, 62, 100
4, 55790, Note_on_c, 1, 66, 91
4, 55869, Note_off_c, 1, 62, 64
4, 55873, Note_off_c, 1, 66, 64
4, 55881, Note_off_c, 1, 69, 64
4, 55886, Note_off_c, 1, 57, 64
4, 55945, Note_on_c, 1, 69, 91
4, 55948, Note_on_c, 1, 61, 100
4, 55951, Note_on_c, 1, 64, 91
4, 55951, Note_on_c, 1, 57, 100
4, 56010, Note_off_c, 1, 64, 64
4, 56021, Note_off_c, 1, 69, 64
4, 56030, Note_on_c, 1, 62, 82
4, 56031, Note_off_c, 1, 57, 64
4, 56031, Note_on_c, 1, 60, 73
4, 56035, Note_off_c, 1, 61, 64
4, 56041, Note_on_c, 1, 63, 56
4, 56048, Note_off_c, 1, 60, 64
4, 56048, Note_on_c, 1, 64, 82
4, 56057, Note_off_c, 1, 63, 64
4, 56057, Note_on_c, 1, 65, 64
4, 56066, Note_on_c, 1, 67, 56
4, 56069, Note_off_c, 1, 62, 64
4, 56081, Note_off_c, 1, 64, 64
4, 56083, Note_on_c, 1, 69, 40
4, 56090, Note_on_c, 1, 71, 56
4, 56094, Note_off_c, 1, 65, 64
4, 56103, Note_on_c, 1, 72, 52
4, 56104, Note_off_c, 1, 67, 64
4, 56117, Note_off_c, 1, 69, 64
4, 56117, Note_on_c, 1, 74, 56
4, 56132, Note_off_c, 1, 71, 64
4, 56132, Note_on_c, 1, 76, 52
4, 56148, Note_off_c, 1, 72, 64
4, 56152, Note_on_c, 1, 77, 44
4, 56167, Note_off_c, 1, 74, 64
4, 56180, Note_off_c, 1, 76, 64
4, 56184, Note_off_c, 1, 77, 64
4, 56267, Note_on_c, 1, 64, 91
4, 56268, Note_off_c, 1, 64, 64
4, 56347, Note_on_c, 1, 45, 64
4, 56389, Note_off_c, 1, 45, 64
4, 56436, Note_on_c, 1, 62, 100
4, 56438, Note_on_c, 1, 66, 91
4, 56438, Note_on_c, 1, 69, 82
4, 56438, Note_on_c, 1, 57, 82
4, 56508, Note_off_c, 1, 57, 64
4, 56510, Note_off_c, 1, 62, 64
4, 56510, Note_off_c, 1, 66, 64
4, 56518, Note_off_c, 1, 69, 64
4, 56519, Note_on_c, 1, 45, 56
4, 56545, Note_off_c, 1, 45, 64
4, 56595, Note_on_c, 1, 64, 91
4, 56597, Note_on_c, 1, 57, 91
4, 56598, Note_on_c, 1, 61, 91
4, 56601, Note_on_c, 1, 69, 91
4, 56671, Note_off_c, 1, 64, 64
4, 56671, Note_off_c, 1, 61, 64
4, 56671, Note_off_c, 1, 69, 64
4, 56673, Note_off_c, 1, 57, 64
4, 56759, Note_on_c, 1, 45, 16
4, 56761, Note_off_c, 1, 45, 64
4, 56840, Note_on_c, 1, 63, 100
4, 56843, Note_on_c, 1, 57, 91
4, 56845, Note_on_c, 1, 69, 91
4, 56846, Note_on_c, 1, 67, 100
4, 56899, Note_off_c, 1, 63, 64
4, 56902, Note_on_c, 1, 64, 91
4, 56959, Note_off_c, 1, 57, 64
4, 56964, Note_off_c, 1, 67, 64
4, 56968, Note_off_c, 1, 64, 64
4, 56972, Note_off_c, 1, 69, 64
4, 57002, Note_on_c, 1, 45, 60
4, 57035, Note_off_c, 1, 45, 64
4, 57082, Note_on_c, 1, 57, 91
4, 57084, Note_on_c, 1, 62, 100
4, 57084, Note_on_c, 1, 66, 100
4, 57085, Note_on_c, 1, 69, 82
4, 57163, Note_off_c, 1, 62, 64
4, 57167, Note_off_c, 1, 66, 64
4, 57170, Note_off_c, 1, 69, 64
4, 57170, Note_on_c, 1, 45, 48
4, 57176, Note_off_c, 1, 57, 64
4, 57216, Note_off_c, 1, 45, 64
4, 57331, Note_on_c, 1, 61, 91
4, 57331, Note_on_c, 1, 57, 91
4, 57331, Note_on_c, 1, 64, 91
4, 57331, Note_on_c, 1, 69, 91
4, 57331, Note_on_c, 1, 45, 48
4, 57332, Note_off_c, 1, 61, 64
4, 57332, Note_off_c, 1, 57, 64
4, 57332, Note_off_c, 1, 64, 64
4, 57332, Note_off_c, 1, 69, 64
4, 57408, Note_off_c, 1, 45, 64
4, 57412, Note_on_c, 1, 57, 91
4, 57413, Note_on_c, 1, 69, 82
4, 57413, Note_on_c, 1, 62, 100
4, 57415, Note_on_c, 1, 66, 91
4, 57492, Note_off_c, 1, 62, 64
4, 57495, Note_off_c, 1, 66, 64
4, 57500, Note_on_c, 1, 45, 40
4, 57501, Note_off_c, 1, 69, 64
4, 57545, Note_off_c, 1, 45, 64
4, 57574, Note_on_c, 1, 69, 82
4, 57574, Note_on_c, 1, 67, 100
4, 57575, Note_on_c, 1, 63, 91
4, 57637, Note_off_c, 1, 67, 64
4, 57642, Note_off_c, 1, 63, 64
4, 57645, Note_off_c, 1, 69, 64
4, 57656, Note_on_c, 1, 45, 56
4, 57716, Note_off_c, 1, 45, 64
4, 57743, Note_on_c, 1, 66, 91
4, 57745, Note_on_c, 1, 69, 91
4, 57746, Note_on_c, 1, 62, 91
4, 57819, Note_off_c, 1, 62, 64
4, 57826, Note_off_c, 1, 66, 64
4, 57826, Note_on_c, 1, 45, 60
4, 57834, Note_off_c, 1, 69, 64
4, 57858, Note_off_c, 1, 45, 64
4, 57900, Note_on_c, 1, 69, 91
4, 57902, Note_on_c, 1, 61, 100
4, 57907, Note_on_c, 1, 64, 91
4, 57975, Note_off_c, 1, 64, 64
4, 57980, Note_off_c, 1, 61, 64
4, 57986, Note_off_c, 1, 69, 64
4, 58001, Note_off_c, 1, 57, 64
4, 58050, Note_on_c, 1, 45, 64
4, 58106, Note_off_c, 1, 45, 64
4, 58141, Note_on_c, 1, 57, 91
4, 58141, Note_on_c, 1, 69, 91
4, 58141, Note_on_c, 1, 63, 100
4, 58144, Note_on_c, 1, 67, 100
4, 58200, Note_off_c, 1, 67, 64
4, 58209, Note_off_c, 1, 69, 64
4, 58211, Note_off_c, 1, 63, 64
4, 58240, Note_off_c, 1, 57, 64
4, 58240, Note_on_c, 1, 69, 32
4, 58251, Note_on_c, 1, 67, 64
4, 58277, Note_on_c, 1, 64, 91
4, 58289, Note_off_c, 1, 69, 64
4, 58294, Note_off_c, 1, 67, 64
4, 58305, Note_on_c, 1, 57, 73
4, 58313, Note_off_c, 1, 64, 64
4, 58375, Note_on_c, 1, 69, 82
4, 58375, Note_on_c, 1, 62, 100
4, 58375, Note_on_c, 1, 66, 82
4, 58462, Note_off_c, 1, 62, 64
4, 58462, Note_off_c, 1, 66, 64
4, 58462, Note_on_c, 1, 45, 60
4, 58472, Note_off_c, 1, 69, 64
4, 58480, Note_off_c, 1, 57, 64
4, 58532, Note_off_c, 1, 45, 64
4, 58539, Note_on_c, 1, 61, 91
4, 58541, Note_on_c, 1, 69, 82
4, 58543, Note_on_c, 1, 64, 91
4, 58543, Note_on_c, 1, 57, 91
4, 58610, Note_off_c, 1, 61, 64
4, 58611, Note_off_c, 1, 64, 64
4, 58613, Note_off_c, 1, 69, 64
4, 58613, Note_off_c, 1, 57, 64
4, 58618, Note_on_c, 1, 45, 56
4, 58696, Note_off_c, 1, 45, 64
4, 58713, Note_on_c, 1, 57, 91
4, 58715, Note_on_c, 1, 69, 73
4, 58715, Note_on_c, 1, 62, 100
4, 58717, Note_on_c, 1, 66, 91
4, 58786, Note_off_c, 1, 62, 64
4, 58786, Note_off_c, 1, 66, 64
4, 58787, Note_off_c, 1, 69, 64
4, 58799, Note_on_c, 1, 45, 32
4, 58834, Note_off_c, 1, 45, 64
4, 58948, Note_on_c, 1, 45, 64
4, 58990, Note_off_c, 1, 45, 64
4, 59031, Note_on_c, 1, 69, 91
4, 59034, Note_on_c, 1, 63, 100
4, 59035, Note_on_c, 1, 67, 91
4, 59090, Note_off_c, 1, 63, 64
4, 59097, Note_on_c, 1, 64, 32
4, 59109, Note_on_c, 1, 45, 60
4, 59125, Note_off_c, 1, 67, 64
4, 59125, Note_off_c, 1, 64, 64
4, 59141, Note_off_c, 1, 69, 64
4, 59170, Note_off_c, 1, 45, 64
4, 59197, Note_on_c, 1, 62, 100
4, 59198, Note_on_c, 1, 66, 100
4, 59198, Note_on_c, 1, 69, 91
4, 59267, Note_off_c, 1, 62, 64
4, 59267, Note_off_c, 1, 66, 64
4, 59274, Note_off_c, 1, 69, 64
4, 59284, Note_off_c, 1, 57, 64
4, 59346, Note_on_c, 1, 45, 73
4, 59398, Note_off_c, 1, 45, 64
4, 59439, Note_on_c, 1, 67, 100
4, 59439, Note_on_c, 1, 69, 91
4, 59440, Note_on_c, 1, 57, 91
4, 59440, Note_on_c, 1, 64, 100
4, 59561, Note_off_c, 1, 69, 64
4, 59563, Note_off_c, 1, 67, 64
4, 59567, Note_off_c, 1, 57, 64
4, 59568, Note_off_c, 1, 64, 64
4, 59597, Note_on_c, 1, 57, 73
4, 59599, Note_on_c, 1, 64, 82
4, 59599, Note_on_c, 1, 67, 82
4, 59599, Note_on_c, 1, 69, 73
4, 59646, Note_off_c, 1, 67, 64
4, 59656, Note_off_c, 1, 64, 64
4, 59664, Note_off_c, 1, 69, 64
4, 59676, Note_on_c, 1, 62, 91
4, 59676, Note_on_c, 1, 69, 91
4, 59680, Note_on_c, 1, 66, 82
4, 59750, Note_on_c, 1, 45, 64
4, 59763, Note_off_c, 1, 57, 64
4, 59763, Note_off_c, 1, 62, 64
4, 59765, Note_off_c, 1, 66, 64
4, 59766, Note_off_c, 1, 69, 64
4, 59825, Note_off_c, 1, 45, 64
4, 59836, Note_on_c, 1, 61, 91
4, 59839, Note_on_c, 1, 69, 82
4, 59841, Note_on_c, 1, 64, 91
4, 59842, Note_on_c, 1, 57, 82
4, 59914, Note_off_c, 1, 64, 64
4, 59919, Note_off_c, 1, 61, 64
4, 59919, Note_on_c, 1, 45, 60
4, 59926, Note_off_c, 1, 57, 64
4, 59929, Note_off_c, 1, 69, 64
4, 59991, Note_off_c, 1, 45, 64
4, 60003, Note_on_c, 1, 57, 91
4, 60004, Note_on_c, 1, 62, 100
4, 60005, Note_on_c, 1, 66, 100
4, 60005, Note_on_c, 1, 69, 91
4, 60078, Note_on_c, 1, 45, 73
4, 60087, Note_off_c, 1, 66, 64
4, 60088, Note_off_c, 1, 62, 64
4, 60090, Note_off_c, 1, 69, 64
4, 60122, Note_off_c, 1, 45, 64
4, 60149, Note_on_c, 1, 45, 73
4, 60240, Note_on_c, 1, 69, 91
4, 60240, Note_on_c, 1, 63, 100
4, 60240, Note_on_c, 1, 67, 100
4, 60248, Note_off_c, 1, 45, 64
4, 60298, Note_off_c, 1, 67, 64
4, 60299, Note_off_c, 1, 69, 64
4, 60299, Note_off_c, 1, 63, 64
4, 60322, Note_on_c, 1, 69, 91
4, 60322, Note_on_c, 1, 67, 82
4, 60326, Note_on_c, 1, 64, 100
4, 60389, Note_off_c, 1, 67, 64
4, 60394, Note_off_c, 1, 64, 64
4, 60398, Note_on_c, 1, 45, 64
4, 60402, Note_off_c, 1, 69, 64
4, 60408, Note_off_c, 1, 57, 64
4, 60482, Note_on_c, 1, 57, 91
4, 60487, Note_on_c, 1, 67, 91
4, 60487, Note_on_c, 1, 69, 82
4, 60491, Note_on_c, 1, 63, 82
4, 60494, Note_off_c, 1, 45, 64
4, 60538, Note_off_c, 1, 57, 64
4, 60545, Note_off_c, 1, 69, 64
4, 60546, Note_off_c, 1, 67, 64
4, 60548, Note_off_c, 1, 63, 64
4, 60564, Note_on_c, 1, 57, 73
4, 60568, Note_on_c, 1, 67, 73
4, 60568, Note_on_c, 1, 69, 73
4, 60568, Note_on_c, 1, 64, 91
4, 60639, Note_off_c, 1, 67, 64
4, 60641, Note_off_c, 1, 64, 64
4, 60641, Note_on_c, 1, 45, 64
4, 60644, Note_off_c, 1, 57, 64
4, 60645, Note_off_c, 1, 69, 64
4, 60730, Note_on_c, 1, 57, 91
4, 60730, Note_on_c, 1, 69, 73
4, 60733, Note_on_c, 1, 63, 91
4, 60733, Note_on_c, 1, 67, 91
4, 60740, Note_off_c, 1, 45, 64
4, 60780, Note_off_c, 1, 69, 64
4, 60781, Note_off_c, 1, 57, 64
4, 60788, Note_off_c, 1, 67, 64
4, 60791, Note_off_c, 1, 63, 64
4, 60809, Note_on_c, 1, 57, 73
4, 60809, Note_on_c, 1, 67, 82
4, 60809, Note_on_c, 1, 69, 82
4, 60809, Note_on_c, 1, 64, 91
4, 60882, Note_off_c, 1, 67, 64
4, 60884, Note_off_c, 1, 64, 64
4, 60892, Note_off_c, 1, 69, 64
4, 60892, Note_on_c, 1, 45, 60
4, 60900, Note_off_c, 1, 57, 64
4, 60964, Note_off_c, 1, 45, 64
4, 60979, Note_on_c, 1, 57, 82
4, 60980, Note_on_c, 1, 66, 91
4, 60981, Note_on_c, 1, 69, 82
4, 60982, Note_on_c, 1, 62, 109
4, 61052, Note_off_c, 1, 66, 64
4, 61052, Note_off_c, 1, 62, 64
4, 61052, Note_on_c, 1, 45, 73
4, 61059, Note_off_c, 1, 57, 64
4, 61062, Note_off_c, 1, 69, 64
4, 61133, Note_off_c, 1, 45, 64
4, 61145, Note_on_c, 1, 69, 91
4, 61145, Note_on_c, 1, 55, 91
4, 61145, Note_on_c, 1, 61, 100
4, 61147, Note_on_c, 1, 64, 100
4, 61213, Note_off_c, 1, 69, 64
4, 61213, Note_off_c, 1, 55, 64
4, 61213, Note_off_c, 1, 64, 64
4, 61213, Note_on_c, 1, 45, 60
4, 61222, Note_off_c, 1, 61, 64
4, 61273, Note_off_c, 1, 45, 64
4, 61302, Note_on_c, 1, 57, 82
4, 61303, Note_on_c, 1, 59, 91
4, 61306, Note_on_c, 1, 69, 73
4, 61306, Note_on_c, 1, 62, 100
4, 61309, Note_on_c, 1, 66, 82
4, 61369, Note_off_c, 1, 59, 64
4, 61372, Note_off_c, 1, 57, 64
4, 61379, Note_off_c, 1, 62, 64
4, 61381, Note_off_c, 1, 69, 64
4, 61381, Note_off_c, 1, 66, 64
4, 61458, Note_on_c, 1, 69, 88
4, 61469, Note_on_c, 1, 67, 49
4, 61471, Note_off_c, 1, 67, 64
4, 61472, Note_on_c, 1, 61, 119
4, 61527, Note_off_c, 1, 69, 64
4, 61531, Note_off_c, 1, 61, 64
4, 61535, Note_on_c, 1, 57, 86
4, 61569, Note_off_c, 1, 57, 64
4, 61618, Note_on_c, 1, 69, 108
4, 61621, Note_on_c, 1, 62, 118
4, 61690, Note_off_c, 1, 62, 64
4, 61694, Note_on_c, 1, 57, 73
4, 61695, Note_off_c, 1, 69, 64
4, 61730, Note_off_c, 1, 57, 64
4, 61790, Note_on_c, 1, 60, 100
4, 61793, Note_on_c, 1, 69, 100
4, 61846, Note_off_c, 1, 69, 64
4, 61850, Note_off_c, 1, 60, 64
4, 61869, Note_on_c, 1, 61, 110
4, 61876, Note_on_c, 1, 69, 71
4, 61904, Note_off_c, 1, 69, 64
4, 61921, Note_off_c, 1, 61, 64
4, 61943, Note_on_c, 1, 57, 110
4, 61983, Note_off_c, 1, 57, 64
4, 62021, Note_on_c, 1, 60, 99
4, 62025, Note_on_c, 1, 69, 81
4, 62035, Note_on_c, 1, 67, 69
4, 62043, Note_off_c, 1, 67, 64
4, 62050, Note_on_c, 1, 61, 100
4, 62051, Note_off_c, 1, 60, 64
4, 62177, Note_on_c, 1, 57, 72
4, 62178, Note_off_c, 1, 61, 64
4, 62207, Note_off_c, 1, 69, 64
4, 62213, Note_off_c, 1, 57, 64
4, 62274, Note_on_c, 1, 62, 95
4, 62274, Note_on_c, 1, 69, 76
4, 62345, Note_off_c, 1, 62, 64
4, 62346, Note_on_c, 1, 57, 70
4, 62358, Note_off_c, 1, 69, 64
4, 62386, Note_off_c, 1, 57, 64
4, 62427, Note_on_c, 1, 60, 108
4, 62434, Note_on_c, 1, 69, 94
4, 62436, Note_on_c, 1, 61, 97
4, 62454, Note_off_c, 1, 60, 64
4, 62486, Note_off_c, 1, 69, 64
4, 62491, Note_off_c, 1, 61, 64
4, 62508, Note_on_c, 1, 57, 91
4, 62538, Note_off_c, 1, 57, 64
4, 62670, Note_on_c, 1, 57, 95
4, 62706, Note_off_c, 1, 57, 64
4, 62756, Note_on_c, 1, 60, 107
4, 62762, Note_on_c, 1, 69, 86
4, 62779, Note_on_c, 1, 61, 99
4, 62783, Note_off_c, 1, 60, 64
4, 62819, Note_off_c, 1, 69, 64
4, 62825, Note_off_c, 1, 61, 64
4, 62830, Note_on_c, 1, 57, 81
4, 62868, Note_off_c, 1, 57, 64
4, 62916, Note_on_c, 1, 69, 99
4, 62919, Note_on_c, 1, 62, 103
4, 62978, Note_off_c, 1, 62, 64
4, 62985, Note_off_c, 1, 69, 64
4, 62991, Note_on_c, 1, 57, 86
4, 63029, Note_off_c, 1, 57, 64
4, 63077, Note_on_c, 1, 60, 94
4, 63083, Note_on_c, 1, 69, 87
4, 63119, Note_off_c, 1, 69, 64
4, 63127, Note_off_c, 1, 60, 64
4, 63154, Note_on_c, 1, 69, 90
4, 63155, Note_on_c, 1, 61, 95
4, 63213, Note_off_c, 1, 61, 64
4, 63215, Note_off_c, 1, 69, 64
4, 63240, Note_on_c, 1, 57, 108
4, 63276, Note_off_c, 1, 57, 64
4, 63318, Note_on_c, 1, 60, 108
4, 63329, Note_on_c, 1, 69, 90
4, 63340, Note_on_c, 1, 61, 120
4, 63346, Note_off_c, 1, 60, 64
4, 63504, Note_off_c, 1, 69, 64
4, 63516, Note_off_c, 1, 61, 64
4, 63564, Note_on_c, 1, 68, 97
4, 63566, Note_on_c, 1, 60, 99
4, 63621, Note_off_c, 1, 60, 64
4, 63624, Note_off_c, 1, 68, 64
4, 63644, Note_on_c, 1, 58, 108
4, 63653, Note_on_c, 1, 67, 99
4, 63663, Note_on_c, 1, 59, 95
4, 63671, Note_off_c, 1, 58, 64
4, 63711, Note_off_c, 1, 67, 64
4, 63725, Note_on_c, 1, 67, 63
4, 63737, Note_off_c, 1, 59, 64
4, 63758, Note_off_c, 1, 67, 64
4, 63763, Note_on_c, 1, 59, 77
4, 63779, Note_on_c, 1, 67, 70
4, 63793, Note_off_c, 1, 67, 64
4, 63817, Note_on_c, 1, 67, 86
4, 63826, Note_off_c, 1, 59, 64
4, 63844, Note_off_c, 1, 67, 64
4, 63846, Note_on_c, 1, 59, 77
4, 63849, Note_on_c, 1, 67, 73
4, 63908, Note_off_c, 1, 59, 64
4, 63936, Note_off_c, 1, 67, 64
4, 64056, Note_on_c, 1, 62, 95
4, 64061, Note_on_c, 1, 54, 108
4, 64075, Note_on_c, 1, 55, 49
4, 64098, Note_off_c, 1, 62, 64
4, 64114, Note_off_c, 1, 55, 64
4, 64131, Note_off_c, 1, 54, 64
4, 64210, Note_on_c, 1, 62, 88
4, 64212, Note_on_c, 1, 55, 95
4, 64285, Note_off_c, 1, 55, 64
4, 64290, Note_off_c, 1, 62, 64
4, 64293, Note_on_c, 1, 50, 90
4, 64332, Note_off_c, 1, 50, 64
4, 64376, Note_on_c, 1, 53, 110
4, 64383, Note_on_c, 1, 62, 94
4, 64439, Note_off_c, 1, 62, 64
4, 64452, Note_on_c, 1, 54, 90
4, 64454, Note_off_c, 1, 53, 64
4, 64469, Note_on_c, 1, 62, 64
4, 64506, Note_off_c, 1, 62, 64
4, 64525, Note_on_c, 1, 62, 49
4, 64530, Note_off_c, 1, 54, 64
4, 64531, Note_off_c, 1, 62, 64
4, 64541, Note_on_c, 1, 50, 95
4, 64572, Note_off_c, 1, 50, 64
4, 64618, Note_on_c, 1, 53, 99
4, 64620, Note_on_c, 1, 62, 71
4, 64634, Note_on_c, 1, 54, 82
4, 64645, Note_off_c, 1, 53, 64
4, 64787, Note_on_c, 1, 50, 90
4, 64790, Note_off_c, 1, 54, 64
4, 64811, Note_off_c, 1, 62, 64
4, 64818, Note_off_c, 1, 50, 64
4, 64867, Note_on_c, 1, 62, 90
4, 64872, Note_on_c, 1, 55, 99
4, 64931, Note_off_c, 1, 62, 64
4, 64932, Note_off_c, 1, 55, 64
4, 64939, Note_on_c, 1, 50, 99
4, 64985, Note_off_c, 1, 50, 64
4, 65024, Note_on_c, 1, 53, 105
4, 65025, Note_on_c, 1, 62, 98
4, 65039, Note_on_c, 1, 54, 82
4, 65048, Note_off_c, 1, 53, 64
4, 65088, Note_off_c, 1, 62, 64
4, 65091, Note_off_c, 1, 54, 64
4, 65349, Note_on_c, 1, 60, 99
4, 65354, Note_on_c, 1, 69, 82
4, 65361, Note_on_c, 1, 67, 66
4, 65367, Note_off_c, 1, 67, 64
4, 65374, Note_on_c, 1, 61, 110
4, 65379, Note_off_c, 1, 60, 64
4, 65424, Note_off_c, 1, 69, 64
4, 65431, Note_off_c, 1, 61, 64
4, 65455, Note_on_c, 1, 57, 49
4, 65465, Note_off_c, 1, 57, 64
4, 65516, Note_on_c, 1, 69, 108
4, 65521, Note_on_c, 1, 62, 100
4, 65588, Note_off_c, 1, 62, 64
4, 65591, Note_on_c, 1, 57, 94
4, 65601, Note_off_c, 1, 69, 64
4, 65631, Note_off_c, 1, 57, 64
4, 65678, Note_on_c, 1, 60, 99
4, 65681, Note_on_c, 1, 69, 90
4, 65716, Note_off_c, 1, 69, 64
4, 65730, Note_off_c, 1, 60, 64
4, 65755, Note_on_c, 1, 69, 89
4, 65759, Note_on_c, 1, 61, 96
4, 65816, Note_off_c, 1, 69, 64
4, 65816, Note_off_c, 1, 61, 64
4, 65840, Note_on_c, 1, 57, 108
4, 65879, Note_off_c, 1, 57, 64
4, 65918, Note_on_c, 1, 60, 108
4, 65922, Note_on_c, 1, 69, 61
4, 65938, Note_on_c, 1, 61, 108
4, 65946, Note_off_c, 1, 60, 64
4, 66079, Note_off_c, 1, 61, 64
4, 66079, Note_on_c, 1, 57, 73
4, 66091, Note_off_c, 1, 69, 64
4, 66115, Note_off_c, 1, 57, 64
4, 66165, Note_on_c, 1, 69, 105
4, 66168, Note_on_c, 1, 62, 114
4, 66230, Note_off_c, 1, 62, 64
4, 66232, Note_off_c, 1, 69, 64
4, 66240, Note_on_c, 1, 57, 87
4, 66293, Note_off_c, 1, 57, 64
4, 66312, Note_on_c, 1, 60, 99
4, 66320, Note_on_c, 1, 69, 71
4, 66332, Note_on_c, 1, 61, 95
4, 66340, Note_off_c, 1, 60, 64
4, 66399, Note_off_c, 1, 61, 64
4, 66405, Note_off_c, 1, 69, 64
4, 66413, Note_on_c, 1, 57, 90
4, 66414, Note_on_c, 1, 59, 94
4, 66432, Note_off_c, 1, 59, 64
4, 66445, Note_off_c, 1, 57, 64
4, 66569, Note_on_c, 1, 55, 98
4, 66569, Note_on_c, 1, 54, 107
4, 66627, Note_off_c, 1, 54, 64
4, 66642, Note_off_c, 1, 55, 64
4, 66646, Note_on_c, 1, 56, 82
4, 66732, Note_on_c, 1, 64, 99
4, 66790, Note_off_c, 1, 64, 64
4, 66794, Note_off_c, 1, 56, 64
4, 66890, Note_on_c, 1, 64, 104
4, 66896, Note_on_c, 1, 56, 112
4, 67061, Note_off_c, 1, 64, 64
4, 67071, Note_off_c, 1, 56, 64
4, 67132, Note_on_c, 1, 55, 98
4, 67133, Note_on_c, 1, 63, 96
4, 67180, Note_off_c, 1, 55, 64
4, 67184, Note_off_c, 1, 63, 64
4, 67223, Note_on_c, 1, 53, 119
4, 67225, Note_on_c, 1, 62, 119
4, 67253, Note_on_c, 1, 54, 86
4, 67256, Note_off_c, 1, 53, 64
4, 67429, Note_off_c, 1, 62, 64
4, 67439, Note_off_c, 1, 54, 64
4, 67457, Note_on_c, 1, 62, 99
4, 67458, Note_on_c, 1, 54, 110
4, 67518, Note_off_c, 1, 62, 64
4, 67519, Note_off_c, 1, 54, 64
4, 67551, Note_on_c, 1, 53, 118
4, 67571, Note_on_c, 1, 54, 119
4, 67577, Note_off_c, 1, 53, 64
4, 67578, Note_on_c, 1, 62, 86
4, 67607, Note_off_c, 1, 54, 64
4, 67621, Note_off_c, 1, 62, 64
4, 67624, Note_on_c, 1, 54, 73
4, 67655, Note_off_c, 1, 54, 64
4, 67655, Note_on_c, 1, 62, 99
4, 67679, Note_off_c, 1, 62, 64
4, 67687, Note_on_c, 1, 54, 87
4, 67702, Note_on_c, 1, 62, 49
4, 67703, Note_off_c, 1, 54, 64
4, 67703, Note_off_c, 1, 62, 64
4, 67722, Note_on_c, 1, 54, 86
4, 67735, Note_on_c, 1, 62, 95
4, 67751, Note_off_c, 1, 54, 64
4, 67762, Note_off_c, 1, 62, 64
4, 67778, Note_on_c, 1, 54, 49
4, 67783, Note_off_c, 1, 54, 64
4, 68102, Note_on_c, 1, 76, 111
4, 68102, Note_on_c, 1, 72, 99
4, 68102, Note_on_c, 1, 78, 94
4, 68102, Note_on_c, 1, 75, 88
4, 68106, Note_on_c, 1, 73, 112
4, 68121, Note_off_c, 1, 75, 64
4, 68122, Note_off_c, 1, 72, 64
4, 68142, Note_off_c, 1, 78, 64
4, 68144, Note_off_c, 1, 76, 64
4, 68161, Note_off_c, 1, 73, 64
4, 68187, Note_on_c, 1, 78, 85
4, 68188, Note_on_c, 1, 79, 87
4, 68192, Note_on_c, 1, 74, 81
4, 68201, Note_off_c, 1, 79, 64
4, 68205, Note_on_c, 1, 76, 49
4, 68208, Note_off_c, 1, 76, 64
4, 68217, Note_off_c, 1, 74, 64
4, 68218, Note_off_c, 1, 78, 64
4, 68268, Note_on_c, 1, 76, 92
4, 68280, Note_on_c, 1, 73, 87
4, 68302, Note_on_c, 1, 69, 99
4, 68308, Note_off_c, 1, 76, 64
4, 68309, Note_off_c, 1, 73, 64
4, 68339, Note_off_c, 1, 69, 64
4, 68351, Note_on_c, 1, 64, 99
4, 68389, Note_off_c, 1, 64, 64
4, 68429, Note_on_c, 1, 69, 94
4, 68430, Note_on_c, 1, 63, 103
4, 68482, Note_off_c, 1, 63, 64
4, 68484, Note_off_c, 1, 69, 64
4, 68511, Note_on_c, 1, 69, 94
4, 68514, Note_on_c, 1, 62, 96
4, 68561, Note_off_c, 1, 62, 64
4, 68568, Note_off_c, 1, 69, 64
4, 68614, Note_on_c, 1, 61, 90
4, 68618, Note_on_c, 1, 60, 60
4, 68626, Note_off_c, 1, 60, 64
4, 68630, Note_on_c, 1, 69, 64
4, 68675, Note_off_c, 1, 69, 64
4, 68680, Note_off_c, 1, 61, 64
4, 68755, Note_on_c, 1, 60, 95
4, 68763, Note_on_c, 1, 69, 86
4, 68772, Note_on_c, 1, 61, 73
4, 68791, Note_off_c, 1, 60, 64
4, 68801, Note_off_c, 1, 61, 64
4, 68847, Note_on_c, 1, 62, 85
4, 68874, Note_off_c, 1, 62, 64
4, 68886, Note_off_c, 1, 69, 64
4, 68925, Note_on_c, 1, 63, 89
4, 68925, Note_on_c, 1, 69, 92
4, 68978, Note_off_c, 1, 63, 64
4, 68980, Note_off_c, 1, 69, 64
4, 68995, Note_on_c, 1, 69, 91
4, 69006, Note_on_c, 1, 64, 99
4, 69050, Note_off_c, 1, 64, 64
4, 69058, Note_off_c, 1, 69, 64
4, 69086, Note_on_c, 1, 69, 93
4, 69088, Note_on_c, 1, 63, 99
4, 69133, Note_off_c, 1, 69, 64
4, 69136, Note_off_c, 1, 63, 64
4, 69164, Note_on_c, 1, 69, 88
4, 69168, Note_on_c, 1, 62, 96
4, 69202, Note_off_c, 1, 62, 64
4, 69206, Note_off_c, 1, 69, 64
4, 69245, Note_on_c, 1, 64, 91
4, 69246, Note_off_c, 1, 64, 64
4, 69324, Note_on_c, 1, 45, 64
4, 69366, Note_off_c, 1, 45, 64
4, 69414, Note_on_c, 1, 62, 100
4, 69415, Note_on_c, 1, 66, 91
4, 69416, Note_on_c, 1, 69, 82
4, 69416, Note_on_c, 1, 57, 82
4, 69486, Note_off_c, 1, 57, 64
4, 69488, Note_off_c, 1, 62, 64
4, 69490, Note_off_c, 1, 66, 64
4, 69495, Note_off_c, 1, 69, 64
4, 69496, Note_on_c, 1, 45, 56
4, 69520, Note_off_c, 1, 45, 64
4, 69572, Note_on_c, 1, 64, 91
4, 69574, Note_on_c, 1, 57, 91
4, 69576, Note_on_c, 1, 61, 91
4, 69578, Note_on_c, 1, 69, 91
4, 69648, Note_off_c, 1, 64, 64
4, 69648, Note_off_c, 1, 61, 64
4, 69648, Note_off_c, 1, 69, 64
4, 69650, Note_off_c, 1, 57, 64
4, 69736, Note_on_c, 1, 45, 16
4, 69739, Note_off_c, 1, 45, 64
4, 69818, Note_on_c, 1, 63, 100
4, 69820, Note_on_c, 1, 57, 91
4, 69823, Note_on_c, 1, 69, 91
4, 69823, Note_on_c, 1, 67, 100
4, 69876, Note_off_c, 1, 63, 64
4, 69876, Note_on_c, 1, 64, 91
4, 69935, Note_off_c, 1, 57, 64
4, 69942, Note_off_c, 1, 67, 64
4, 69945, Note_off_c, 1, 64, 64
4, 69948, Note_off_c, 1, 69, 64
4, 69980, Note_on_c, 1, 45, 60
4, 70012, Note_off_c, 1, 45, 64
4, 70061, Note_on_c, 1, 57, 91
4, 70061, Note_on_c, 1, 62, 100
4, 70061, Note_on_c, 1, 66, 100
4, 70061, Note_on_c, 1, 69, 82
4, 70140, Note_off_c, 1, 62, 64
4, 70144, Note_off_c, 1, 66, 64
4, 70147, Note_on_c, 1, 45, 48
4, 70148, Note_off_c, 1, 69, 64
4, 70154, Note_off_c, 1, 57, 64
4, 70194, Note_off_c, 1, 45, 64
4, 70227, Note_on_c, 1, 61, 91
4, 70228, Note_on_c, 1, 57, 91
4, 70228, Note_on_c, 1, 64, 91
4, 70228, Note_on_c, 1, 69, 91
4, 70307, Note_off_c, 1, 64, 64
4, 70312, Note_off_c, 1, 69, 64
4, 70312, Note_on_c, 1, 45, 48
4, 70316, Note_off_c, 1, 61, 64
4, 70317, Note_off_c, 1, 57, 64
4, 70385, Note_off_c, 1, 45, 64
4, 70390, Note_on_c, 1, 57, 91
4, 70392, Note_on_c, 1, 69, 82
4, 70392, Note_on_c, 1, 62, 100
4, 70393, Note_on_c, 1, 66, 91
4, 70469, Note_off_c, 1, 62, 64
4, 70473, Note_off_c, 1, 66, 64
4, 70478, Note_on_c, 1, 45, 40
4, 70480, Note_off_c, 1, 69, 64
4, 70524, Note_off_c, 1, 45, 64
4, 70551, Note_on_c, 1, 69, 82
4, 70551, Note_on_c, 1, 67, 100
4, 70553, Note_on_c, 1, 63, 91
4, 70615, Note_off_c, 1, 67, 64
4, 70620, Note_off_c, 1, 63, 64
4, 70623, Note_off_c, 1, 69, 64
4, 70634, Note_on_c, 1, 45, 56
4, 70694, Note_off_c, 1, 45, 64
4, 70721, Note_on_c, 1, 66, 91
4, 70723, Note_on_c, 1, 69, 91
4, 70724, Note_on_c, 1, 62, 91
4, 70796, Note_off_c, 1, 62, 64
4, 70803, Note_off_c, 1, 66, 64
4, 70803, Note_on_c, 1, 45, 60
4, 70812, Note_off_c, 1, 69, 64
4, 70836, Note_off_c, 1, 45, 64
4, 70878, Note_on_c, 1, 69, 91
4, 70880, Note_on_c, 1, 61, 100
4, 70885, Note_on_c, 1, 64, 91
4, 70952, Note_off_c, 1, 64, 64
4, 70958, Note_off_c, 1, 61, 64
4, 70965, Note_off_c, 1, 69, 64
4, 70978, Note_off_c, 1, 57, 64
4, 71027, Note_on_c, 1, 45, 64
4, 71084, Note_off_c, 1, 45, 64
4, 71119, Note_on_c, 1, 57, 91
4, 71120, Note_on_c, 1, 69, 91
4, 71120, Note_on_c, 1, 63, 100
4, 71121, Note_on_c, 1, 67, 100
4, 71179, Note_off_c, 1, 67, 64
4, 71187, Note_off_c, 1, 69, 64
4, 71189, Note_off_c, 1, 63, 64
4, 71216, Note_off_c, 1, 57, 64
4, 71221, Note_on_c, 1, 69, 32
4, 71230, Note_on_c, 1, 67, 64
4, 71254, Note_on_c, 1, 64, 91
4, 71269, Note_off_c, 1, 69, 64
4, 71273, Note_off_c, 1, 67, 64
4, 71283, Note_on_c, 1, 57, 73
4, 71291, Note_off_c, 1, 64, 64
4, 71355, Note_on_c, 1, 69, 82
4, 71355, Note_on_c, 1, 62, 100
4, 71355, Note_on_c, 1, 66, 82
4, 71441, Note_on_c, 1, 45, 60
4, 71442, Note_off_c, 1, 66, 64
4, 71442, Note_off_c, 1, 62, 64
4, 71452, Note_off_c, 1, 69, 64
4, 71458, Note_off_c, 1, 57, 64
4, 71511, Note_off_c, 1, 45, 64
4, 71518, Note_on_c, 1, 61, 91
4, 71520, Note_on_c, 1, 69, 82
4, 71521, Note_on_c, 1, 64, 91
4, 71521, Note_on_c, 1, 57, 91
4, 71588, Note_off_c, 1, 61, 64
4, 71591, Note_off_c, 1, 69, 64
4, 71591, Note_off_c, 1, 64, 64
4, 71591, Note_off_c, 1, 57, 64
4, 71599, Note_on_c, 1, 45, 56
4, 71675, Note_off_c, 1, 45, 64
4, 71692, Note_on_c, 1, 57, 91
4, 71694, Note_on_c, 1, 69, 73
4, 71694, Note_on_c, 1, 62, 100
4, 71695, Note_on_c, 1, 66, 91
4, 71766, Note_off_c, 1, 69, 64
4, 71766, Note_off_c, 1, 62, 64
4, 71766, Note_off_c, 1, 66, 64
4, 71778, Note_on_c, 1, 45, 32
4, 71813, Note_off_c, 1, 45, 64
4, 71927, Note_on_c, 1, 45, 64
4, 71969, Note_off_c, 1, 45, 64
4, 72010, Note_on_c, 1, 69, 91
4, 72013, Note_on_c, 1, 63, 100
4, 72015, Note_on_c, 1, 67, 91
4, 72068, Note_off_c, 1, 63, 64
4, 72075, Note_on_c, 1, 64, 32
4, 72087, Note_on_c, 1, 45, 60
4, 72104, Note_off_c, 1, 67, 64
4, 72104, Note_off_c, 1, 64, 64
4, 72119, Note_off_c, 1, 69, 64
4, 72150, Note_off_c, 1, 45, 64
4, 72175, Note_on_c, 1, 62, 100
4, 72177, Note_on_c, 1, 66, 100
4, 72177, Note_on_c, 1, 69, 91
4, 72246, Note_off_c, 1, 66, 64
4, 72246, Note_off_c, 1, 62, 64
4, 72253, Note_off_c, 1, 69, 64
4, 72263, Note_off_c, 1, 57, 64
4, 72329, Note_on_c, 1, 45, 73
4, 72378, Note_off_c, 1, 45, 64
4, 72419, Note_on_c, 1, 67, 100
4, 72419, Note_on_c, 1, 69, 91
4, 72421, Note_on_c, 1, 57, 91
4, 72421, Note_on_c, 1, 64, 100
4, 72542, Note_off_c, 1, 69, 64
4, 72544, Note_off_c, 1, 67, 64
4, 72547, Note_off_c, 1, 57, 64
4, 72549, Note_off_c, 1, 64, 64
4, 72578, Note_on_c, 1, 57, 73
4, 72578, Note_on_c, 1, 64, 82
4, 72580, Note_on_c, 1, 67, 82
4, 72580, Note_on_c, 1, 69, 73
4, 72627, Note_off_c, 1, 67, 64
4, 72635, Note_off_c, 1, 64, 64
4, 72645, Note_off_c, 1, 69, 64
4, 72657, Note_on_c, 1, 62, 91
4, 72657, Note_on_c, 1, 69, 91
4, 72660, Note_on_c, 1, 66, 82
4, 72730, Note_on_c, 1, 45, 64
4, 72743, Note_off_c, 1, 57, 64
4, 72743, Note_off_c, 1, 62, 64
4, 72745, Note_off_c, 1, 66, 64
4, 72746, Note_off_c, 1, 69, 64
4, 72805, Note_off_c, 1, 45, 64
4, 72816, Note_on_c, 1, 61, 91
4, 72819, Note_on_c, 1, 69, 82
4, 72822, Note_on_c, 1, 64, 91
4, 72822, Note_on_c, 1, 57, 82
4, 72894, Note_off_c, 1, 64, 64
4, 72899, Note_off_c, 1, 61, 64
4, 72899, Note_on_c, 1, 45, 60
4, 72905, Note_off_c, 1, 57, 64
4, 72909, Note_off_c, 1, 69, 64
4, 72970, Note_off_c, 1, 45, 64
4, 72982, Note_on_c, 1, 57, 91
4, 72983, Note_on_c, 1, 62, 100
4, 72985, Note_on_c, 1, 66, 100
4, 72985, Note_on_c, 1, 69, 91
4, 73058, Note_on_c, 1, 45, 73
4, 73066, Note_off_c, 1, 66, 64
4, 73068, Note_off_c, 1, 62, 64
4, 73069, Note_off_c, 1, 69, 64
4, 73102, Note_off_c, 1, 45, 64
4, 73129, Note_on_c, 1, 45, 73
4, 73220, Note_on_c, 1, 69, 91
4, 73220, Note_on_c, 1, 63, 100
4, 73220, Note_on_c, 1, 67, 100
4, 73227, Note_off_c, 1, 45, 64
4, 73278, Note_off_c, 1, 67, 64
4, 73279, Note_off_c, 1, 69, 64
4, 73279, Note_off_c, 1, 63, 64
4, 73304, Note_on_c, 1, 69, 91
4, 73304, Note_on_c, 1, 67, 82
4, 73308, Note_on_c, 1, 64, 100
4, 73369, Note_off_c, 1, 67, 64
4, 73372, Note_off_c, 1, 64, 64
4, 73377, Note_on_c, 1, 45, 64
4, 73380, Note_off_c, 1, 69, 64
4, 73386, Note_off_c, 1, 57, 64
4, 73462, Note_on_c, 1, 57, 91
4, 73465, Note_on_c, 1, 67, 91
4, 73467, Note_on_c, 1, 69, 82
4, 73469, Note_on_c, 1, 63, 82
4, 73473, Note_off_c, 1, 45, 64
4, 73517, Note_off_c, 1, 57, 64
4, 73524, Note_off_c, 1, 69, 64
4, 73526, Note_off_c, 1, 67, 64
4, 73527, Note_off_c, 1, 63, 64
4, 73544, Note_on_c, 1, 57, 73
4, 73548, Note_on_c, 1, 67, 73
4, 73551, Note_on_c, 1, 69, 73
4, 73551, Note_on_c, 1, 64, 91
4, 73617, Note_off_c, 1, 67, 64
4, 73617, Note_off_c, 1, 64, 64
4, 73621, Note_on_c, 1, 45, 64
4, 73624, Note_off_c, 1, 57, 64
4, 73624, Note_off_c, 1, 69, 64
4, 73710, Note_on_c, 1, 57, 91
4, 73710, Note_on_c, 1, 69, 73
4, 73713, Note_on_c, 1, 63, 91
4, 73713, Note_on_c, 1, 67, 91
4, 73720, Note_off_c, 1, 45, 64
4, 73759, Note_off_c, 1, 69, 64
4, 73760, Note_off_c, 1, 57, 64
4, 73767, Note_off_c, 1, 67, 64
4, 73770, Note_off_c, 1, 63, 64
4, 73788, Note_on_c, 1, 57, 73
4, 73788, Note_on_c, 1, 67, 82
4, 73795, Note_on_c, 1, 69, 82
4, 73796, Note_on_c, 1, 64, 91
4, 73860, Note_off_c, 1, 67, 64
4, 73863, Note_off_c, 1, 64, 64
4, 73869, Note_on_c, 1, 45, 60
4, 73873, Note_off_c, 1, 69, 64
4, 73877, Note_off_c, 1, 57, 64
4, 73943, Note_off_c, 1, 45, 64
4, 73956, Note_on_c, 1, 57, 82
4, 73958, Note_on_c, 1, 66, 91
4, 73958, Note_on_c, 1, 69, 82
4, 73960, Note_on_c, 1, 62, 109
4, 74033, Note_off_c, 1, 66, 64
4, 74033, Note_off_c, 1, 62, 64
4, 74036, Note_on_c, 1, 45, 73
4, 74038, Note_off_c, 1, 57, 64
4, 74041, Note_off_c, 1, 69, 64
4, 74112, Note_off_c, 1, 45, 64
4, 74124, Note_on_c, 1, 69, 91
4, 74124, Note_on_c, 1, 55, 91
4, 74124, Note_on_c, 1, 61, 100
4, 74127, Note_on_c, 1, 64, 100
4, 74194, Note_off_c, 1, 69, 64
4, 74194, Note_off_c, 1, 55, 64
4, 74194, Note_off_c, 1, 64, 64
4, 74194, Note_on_c, 1, 45, 60
4, 74202, Note_off_c, 1, 61, 64
4, 74253, Note_off_c, 1, 45, 64
4, 74281, Note_on_c, 1, 57, 82
4, 74283, Note_on_c, 1, 59, 91
4, 74286, Note_on_c, 1, 69, 73
4, 74286, Note_on_c, 1, 62, 100
4, 74288, Note_on_c, 1, 66, 82
4, 74349, Note_off_c, 1, 59, 64
4, 74352, Note_off_c, 1, 57, 64
4, 74356, Note_off_c, 1, 69, 64
4, 74356, Note_off_c, 1, 62, 64
4, 74362, Note_off_c, 1, 66, 64
4, 74521, Note_on_c, 1, 69, 82
4, 74526, Note_on_c, 1, 81, 91
4, 74528, Note_on_c, 1, 75, 82
4, 74528, Note_on_c, 1, 79, 82
4, 74577, Note_off_c, 1, 69, 64
4, 74577, Note_off_c, 1, 75, 64
4, 74578, Note_off_c, 1, 81, 64
4, 74578, Note_off_c, 1, 79, 64
4, 74604, Note_on_c, 1, 69, 91
4, 74607, Note_on_c, 1, 76, 91
4, 74607, Note_on_c, 1, 81, 82
4, 74607, Note_on_c, 1, 79, 91
4, 74658, Note_off_c, 1, 69, 64
4, 74663, Note_off_c, 1, 76, 64
4, 74665, Note_off_c, 1, 81, 64
4, 74665, Note_off_c, 1, 79, 64
4, 74684, Note_on_c, 1, 69, 91
4, 74685, Note_on_c, 1, 76, 91
4, 74687, Note_on_c, 1, 79, 91
4, 74687, Note_on_c, 1, 81, 82
4, 74737, Note_off_c, 1, 79, 64
4, 74740, Note_off_c, 1, 76, 64
4, 74743, Note_off_c, 1, 69, 64
4, 74743, Note_off_c, 1, 81, 64
4, 74767, Note_on_c, 1, 81, 91
4, 74770, Note_on_c, 1, 69, 82
4, 74770, Note_on_c, 1, 74, 100
4, 74772, Note_on_c, 1, 78, 91
4, 74830, Note_off_c, 1, 69, 64
4, 74830, Note_off_c, 1, 74, 64
4, 74836, Note_off_c, 1, 78, 64
4, 74859, Note_on_c, 1, 67, 73
4, 74861, Note_on_c, 1, 76, 100
4, 74861, Note_on_c, 1, 73, 82
4, 74902, Note_off_c, 1, 67, 64
4, 74903, Note_off_c, 1, 76, 64
4, 74910, Note_off_c, 1, 73, 64
4, 74925, Note_off_c, 1, 81, 64
4, 75011, Note_on_c, 1, 75, 100
4, 75013, Note_on_c, 1, 81, 82
4, 75013, Note_on_c, 1, 69, 91
4, 75013, Note_on_c, 1, 79, 109
4, 75083, Note_off_c, 1, 79, 64
4, 75101, Note_off_c, 1, 75, 64
4, 75126, Note_off_c, 1, 69, 64
4, 75134, Note_on_c, 1, 79, 73
4, 75164, Note_on_c, 1, 76, 82
4, 75165, Note_off_c, 1, 81, 64
4, 75176, Note_off_c, 1, 79, 64
4, 75181, Note_on_c, 1, 69, 82
4, 75194, Note_off_c, 1, 76, 64
4, 75256, Note_on_c, 1, 78, 100
4, 75256, Note_on_c, 1, 81, 73
4, 75261, Note_on_c, 1, 74, 100
4, 75349, Note_off_c, 1, 74, 64
4, 75351, Note_off_c, 1, 78, 64
4, 75364, Note_off_c, 1, 69, 64
4, 75366, Note_off_c, 1, 81, 64
4, 75419, Note_on_c, 1, 81, 91
4, 75420, Note_on_c, 1, 73, 100
4, 75424, Note_on_c, 1, 76, 100
4, 75427, Note_on_c, 1, 69, 91
4, 75528, Note_off_c, 1, 76, 64
4, 75538, Note_off_c, 1, 73, 64
4, 75542, Note_off_c, 1, 81, 64
4, 75542, Note_off_c, 1, 69, 64
4, 75581, Note_on_c, 1, 81, 91
4, 75583, Note_on_c, 1, 69, 91
4, 75584, Note_on_c, 1, 78, 100
4, 75584, Note_on_c, 1, 74, 100
4, 75648, Note_off_c, 1, 69, 64
4, 75694, Note_off_c, 1, 74, 64
4, 75700, Note_off_c, 1, 78, 64
4, 75707, Note_off_c, 1, 81, 64
4, 75823, Note_on_c, 1, 69, 100
4, 75826, Note_on_c, 1, 75, 91
4, 75826, Note_on_c, 1, 79, 100
4, 75826, Note_on_c, 1, 81, 91
4, 75882, Note_off_c, 1, 69, 64
4, 75885, Note_off_c, 1, 75, 64
4, 75893, Note_off_c, 1, 79, 64
4, 75893, Note_off_c, 1, 81, 64
4, 75985, Note_on_c, 1, 69, 73
4, 76011, Note_off_c, 1, 69, 64
4, 76068, Note_on_c, 1, 78, 91
4, 76070, Note_on_c, 1, 81, 91
4, 76071, Note_on_c, 1, 74, 100
4, 76073, Note_on_c, 1, 69, 100
4, 76114, Note_off_c, 1, 69, 64
4, 76124, Note_off_c, 1, 74, 64
4, 76125, Note_off_c, 1, 78, 64
4, 76134, Note_off_c, 1, 81, 64
4, 76150, Note_on_c, 1, 69, 91
4, 76150, Note_on_c, 1, 81, 73
4, 76152, Note_on_c, 1, 74, 82
4, 76154, Note_on_c, 1, 78, 91
4, 76200, Note_off_c, 1, 74, 64
4, 76204, Note_off_c, 1, 69, 64
4, 76207, Note_off_c, 1, 81, 64
4, 76208, Note_off_c, 1, 78, 64
4, 76237, Note_on_c, 1, 81, 91
4, 76237, Note_on_c, 1, 73, 100
4, 76237, Note_on_c, 1, 76, 91
4, 76237, Note_on_c, 1, 69, 91
4, 76258, Note_off_c, 1, 69, 64
4, 76297, Note_off_c, 1, 76, 64
4, 76303, Note_off_c, 1, 73, 64
4, 76303, Note_on_c, 1, 69, 73
4, 76309, Note_off_c, 1, 81, 64
4, 76372, Note_off_c, 1, 69, 64
4, 76381, Note_on_c, 1, 69, 60
4, 76389, Note_on_c, 1, 81, 91
4, 76391, Note_on_c, 1, 75, 91
4, 76392, Note_on_c, 1, 79, 100
4, 76445, Note_off_c, 1, 79, 64
4, 76449, Note_off_c, 1, 81, 64
4, 76452, Note_off_c, 1, 75, 64
4, 76467, Note_on_c, 1, 79, 82
4, 76470, Note_on_c, 1, 81, 82
4, 76470, Note_on_c, 1, 76, 91
4, 76518, Note_off_c, 1, 79, 64
4, 76521, Note_off_c, 1, 76, 64
4, 76523, Note_off_c, 1, 81, 64
4, 76530, Note_off_c, 1, 69, 64
4, 76557, Note_on_c, 1, 69, 91
4, 76558, Note_on_c, 1, 81, 91
4, 76558, Note_on_c, 1, 74, 100
4, 76560, Note_on_c, 1, 78, 100
4, 76641, Note_off_c, 1, 74, 64
4, 76644, Note_off_c, 1, 69, 64
4, 76644, Note_off_c, 1, 78, 64
4, 76647, Note_off_c, 1, 81, 64
4, 76715, Note_on_c, 1, 73, 91
4, 76717, Note_on_c, 1, 81, 91
4, 76718, Note_on_c, 1, 76, 91
4, 76723, Note_on_c, 1, 69, 100
4, 76828, Note_off_c, 1, 76, 64
4, 76846, Note_off_c, 1, 69, 64
4, 76846, Note_off_c, 1, 81, 64
4, 76846, Note_off_c, 1, 73, 64
4, 76883, Note_on_c, 1, 81, 91
4, 76887, Note_on_c, 1, 74, 100
4, 76889, Note_on_c, 1, 69, 91
4, 76892, Note_on_c, 1, 78, 91
4, 76945, Note_off_c, 1, 69, 64
4, 76946, Note_off_c, 1, 74, 64
4, 76956, Note_off_c, 1, 81, 64
4, 76956, Note_off_c, 1, 78, 64
4, 77035, Note_on_c, 1, 74, 91
4, 77039, Note_on_c, 1, 80, 100
4, 77041, Note_on_c, 1, 84, 91
4, 77043, Note_on_c, 1, 86, 82
4, 77048, Note_on_c, 1, 81, 91
4, 77052, Note_off_c, 1, 80, 64
4, 77095, Note_off_c, 1, 84, 64
4, 77097, Note_off_c, 1, 74, 64
4, 77098, Note_off_c, 1, 81, 64
4, 77100, Note_off_c, 1, 86, 64
4, 77119, Note_on_c, 1, 74, 82
4, 77121, Note_on_c, 1, 81, 91
4, 77121, Note_on_c, 1, 86, 91
4, 77124, Note_on_c, 1, 84, 91
4, 77170, Note_off_c, 1, 84, 64
4, 77172, Note_off_c, 1, 81, 64
4, 77173, Note_off_c, 1, 86, 64
4, 77178, Note_off_c, 1, 74, 64
4, 77200, Note_on_c, 1, 79, 100
4, 77202, Note_on_c, 1, 74, 91
4, 77203, Note_on_c, 1, 83, 109
4, 77203, Note_on_c, 1, 86, 91
4, 77273, Note_off_c, 1, 83, 64
4, 77278, Note_off_c, 1, 79, 64
4, 77278, Note_off_c, 1, 86, 64
4, 77281, Note_off_c, 1, 74, 64
4, 77360, Note_on_c, 1, 74, 91
4, 77364, Note_on_c, 1, 86, 91
4, 77364, Note_on_c, 1, 81, 91
4, 77366, Note_on_c, 1, 78, 100
4, 77424, Note_off_c, 1, 81, 64
4, 77425, Note_off_c, 1, 78, 64
4, 77426, Note_off_c, 1, 74, 64
4, 77431, Note_off_c, 1, 86, 64
4, 77452, Note_on_c, 1, 74, 82
4, 77454, Note_on_c, 1, 83, 91
4, 77455, Note_on_c, 1, 86, 64
4, 77458, Note_on_c, 1, 79, 100
4, 77511, Note_off_c, 1, 83, 64
4, 77516, Note_off_c, 1, 79, 64
4, 77519, Note_off_c, 1, 74, 64
4, 77519, Note_off_c, 1, 86, 64
4, 77607, Note_on_c, 1, 84, 100
4, 77607, Note_on_c, 1, 74, 100
4, 77608, Note_on_c, 1, 80, 100
4, 77609, Note_on_c, 1, 86, 91
4, 77668, Note_off_c, 1, 84, 64
4, 77674, Note_off_c, 1, 86, 64
4, 77684, Note_off_c, 1, 80, 64
4, 77709, Note_off_c, 1, 74, 64
4, 77714, Note_on_c, 1, 86, 52
4, 77727, Note_on_c, 1, 84, 64
4, 77748, Note_on_c, 1, 81, 91
4, 77760, Note_off_c, 1, 86, 64
4, 77763, Note_off_c, 1, 84, 64
4, 77773, Note_on_c, 1, 74, 100
4, 77783, Note_off_c, 1, 81, 64
4, 77841, Note_on_c, 1, 83, 100
4, 77843, Note_on_c, 1, 86, 91
4, 77850, Note_on_c, 1, 79, 109
4, 77941, Note_off_c, 1, 79, 64
4, 77944, Note_off_c, 1, 83, 64
4, 77945, Note_off_c, 1, 86, 64
4, 77955, Note_off_c, 1, 74, 64
4, 78009, Note_on_c, 1, 78, 91
4, 78013, Note_on_c, 1, 86, 91
4, 78013, Note_on_c, 1, 74, 100
4, 78015, Note_on_c, 1, 81, 91
4, 78130, Note_off_c, 1, 81, 64
4, 78145, Note_off_c, 1, 78, 64
4, 78145, Note_off_c, 1, 86, 64
4, 78148, Note_off_c, 1, 74, 64
4, 78181, Note_on_c, 1, 86, 91
4, 78181, Note_on_c, 1, 79, 100
4, 78183, Note_on_c, 1, 83, 100
4, 78183, Note_on_c, 1, 74, 91
4, 78237, Note_off_c, 1, 83, 64
4, 78243, Note_off_c, 1, 86, 64
4, 78244, Note_off_c, 1, 79, 64
4, 78251, Note_off_c, 1, 74, 64
4, 78333, Note_on_c, 1, 81, 82
4, 78339, Note_on_c, 1, 79, 91
4, 78339, Note_on_c, 1, 75, 91
4, 78339, Note_on_c, 1, 69, 91
4, 78382, Note_off_c, 1, 69, 64
4, 78388, Note_off_c, 1, 81, 64
4, 78389, Note_off_c, 1, 79, 64
4, 78392, Note_off_c, 1, 75, 64
4, 78417, Note_on_c, 1, 79, 73
4, 78419, Note_on_c, 1, 69, 82
4, 78419, Note_on_c, 1, 81, 82
4, 78422, Note_on_c, 1, 76, 91
4, 78464, Note_off_c, 1, 79, 64
4, 78472, Note_off_c, 1, 81, 64
4, 78472, Note_off_c, 1, 76, 64
4, 78478, Note_off_c, 1, 69, 64
4, 78501, Note_on_c, 1, 74, 91
4, 78502, Note_on_c, 1, 69, 91
4, 78503, Note_on_c, 1, 81, 82
4, 78503, Note_on_c, 1, 78, 100
4, 78588, Note_off_c, 1, 74, 64
4, 78593, Note_off_c, 1, 69, 64
4, 78601, Note_off_c, 1, 78, 64
4, 78606, Note_off_c, 1, 81, 64
4, 78666, Note_on_c, 1, 81, 91
4, 78667, Note_on_c, 1, 73, 91
4, 78667, Note_on_c, 1, 76, 91
4, 78668, Note_on_c, 1, 69, 91
4, 78720, Note_off_c, 1, 76, 64
4, 78723, Note_off_c, 1, 69, 64
4, 78726, Note_off_c, 1, 73, 64
4, 78730, Note_off_c, 1, 81, 64
4, 78746, Note_on_c, 1, 81, 91
4, 78750, Note_on_c, 1, 69, 82
4, 78750, Note_on_c, 1, 78, 91
4, 78752, Note_on_c, 1, 74, 100
4, 78814, Note_off_c, 1, 74, 64
4, 78817, Note_off_c, 1, 69, 64
4, 78817, Note_off_c, 1, 78, 64
4, 78826, Note_off_c, 1, 81, 64
4, 78906, Note_on_c, 1, 79, 100
4, 78908, Note_on_c, 1, 81, 91
4, 78908, Note_on_c, 1, 69, 100
4, 78909, Note_on_c, 1, 75, 91
4, 78955, Note_off_c, 1, 69, 64
4, 78958, Note_off_c, 1, 81, 64
4, 78963, Note_off_c, 1, 79, 64
4, 78965, Note_off_c, 1, 75, 64
4, 78985, Note_on_c, 1, 69, 82
4, 78988, Note_on_c, 1, 79, 82
4, 78988, Note_on_c, 1, 76, 91
4, 78988, Note_on_c, 1, 81, 73
4, 79042, Note_off_c, 1, 79, 64
4, 79044, Note_off_c, 1, 69, 64
4, 79044, Note_off_c, 1, 76, 64
4, 79044, Note_off_c, 1, 81, 64
4, 79065, Note_on_c, 1, 76, 91
4, 79066, Note_on_c, 1, 69, 82
4, 79068, Note_on_c, 1, 81, 73
4, 79068, Note_on_c, 1, 79, 82
4, 79115, Note_off_c, 1, 79, 64
4, 79117, Note_off_c, 1, 76, 64
4, 79120, Note_off_c, 1, 81, 64
4, 79122, Note_off_c, 1, 69, 64
4, 79149, Note_on_c, 1, 81, 91
4, 79153, Note_on_c, 1, 69, 82
4, 79153, Note_on_c, 1, 74, 100
4, 79154, Note_on_c, 1, 78, 91
4, 79237, Note_off_c, 1, 74, 64
4, 79243, Note_off_c, 1, 69, 64
4, 79243, Note_off_c, 1, 78, 64
4, 79250, Note_off_c, 1, 81, 64
4, 79310, Note_on_c, 1, 73, 100
4, 79313, Note_on_c, 1, 76, 100
4, 79315, Note_on_c, 1, 81, 100
4, 79316, Note_on_c, 1, 69, 91
4, 79426, Note_off_c, 1, 76, 64
4, 79442, Note_off_c, 1, 69, 64
4, 79448, Note_off_c, 1, 73, 64
4, 79452, Note_off_c, 1, 81, 64
4, 79477, Note_on_c, 1, 78, 91
4, 79478, Note_on_c, 1, 81, 82
4, 79482, Note_on_c, 1, 74, 82
4, 79483, Note_on_c, 1, 69, 91
4, 79531, Note_off_c, 1, 78, 64
4, 79532, Note_off_c, 1, 81, 64
4, 79534, Note_off_c, 1, 74, 64
4, 79541, Note_off_c, 1, 69, 64
4, 79631, Note_on_c, 1, 64, 91
4, 79632, Note_on_c, 1, 71, 91
4, 79634, Note_on_c, 1, 74, 91
4, 79634, Note_on_c, 1, 76, 91
4, 79680, Note_off_c, 1, 64, 64
4, 79684, Note_off_c, 1, 74, 64
4, 79684, Note_off_c, 1, 76, 64
4, 79687, Note_off_c, 1, 71, 64
4, 79717, Note_on_c, 1, 71, 82
4, 79717, Note_on_c, 1, 64, 91
4, 79719, Note_on_c, 1, 76, 82
4, 79719, Note_on_c, 1, 74, 82
4, 79765, Note_off_c, 1, 74, 64
4, 79767, Note_off_c, 1, 71, 64
4, 79769, Note_off_c, 1, 76, 64
4, 79773, Note_off_c, 1, 64, 64
4, 79798, Note_on_c, 1, 76, 91
4, 79799, Note_on_c, 1, 69, 91
4, 79799, Note_on_c, 1, 64, 82
4, 79800, Note_on_c, 1, 73, 91
4, 79886, Note_off_c, 1, 64, 64
4, 79886, Note_off_c, 1, 69, 64
4, 79892, Note_off_c, 1, 73, 64
4, 79896, Note_off_c, 1, 76, 64
4, 79960, Note_on_c, 1, 71, 100
4, 79962, Note_on_c, 1, 68, 91
4, 79962, Note_on_c, 1, 76, 82
4, 79962, Note_on_c, 1, 64, 91
4, 80019, Note_off_c, 1, 71, 64
4, 80022, Note_off_c, 1, 64, 64
4, 80029, Note_off_c, 1, 68, 64
4, 80029, Note_off_c, 1, 76, 64
4, 80053, Note_on_c, 1, 76, 82
4, 80057, Note_on_c, 1, 69, 100
4, 80057, Note_on_c, 1, 64, 73
4, 80058, Note_on_c, 1, 73, 100
4, 80114, Note_off_c, 1, 76, 64
4, 80114, Note_off_c, 1, 69, 64
4, 80114, Note_off_c, 1, 64, 64
4, 80114, Note_off_c, 1, 73, 64
4, 80194, Note_on_c, 1, 62, 100
4, 80194, Note_on_c, 1, 69, 91
4, 80194, Note_on_c, 1, 72, 100
4, 80199, Note_on_c, 1, 74, 91
4, 80274, Note_off_c, 1, 72, 64
4, 80274, Note_off_c, 1, 74, 64
4, 80290, Note_off_c, 1, 69, 64
4, 80313, Note_on_c, 1, 74, 64
4, 80318, Note_off_c, 1, 62, 64
4, 80330, Note_on_c, 1, 72, 64
4, 80351, Note_on_c, 1, 69, 82
4, 80364, Note_off_c, 1, 74, 64
4, 80369, Note_on_c, 1, 62, 82
4, 80372, Note_off_c, 1, 72, 64
4, 80386, Note_off_c, 1, 69, 64
4, 80440, Note_on_c, 1, 74, 91
4, 80440, Note_on_c, 1, 71, 91
4, 80440, Note_on_c, 1, 67, 100
4, 80535, Note_off_c, 1, 71, 64
4, 80538, Note_off_c, 1, 67, 64
4, 80541, Note_off_c, 1, 74, 64
4, 80552, Note_off_c, 1, 62, 64
4, 80607, Note_on_c, 1, 66, 91
4, 80611, Note_on_c, 1, 74, 82
4, 80612, Note_on_c, 1, 69, 91
4, 80612, Note_on_c, 1, 62, 82
4, 80727, Note_off_c, 1, 69, 64
4, 80733, Note_off_c, 1, 74, 64
4, 80740, Note_off_c, 1, 62, 64
4, 80740, Note_off_c, 1, 66, 64
4, 80773, Note_on_c, 1, 62, 100
4, 80776, Note_on_c, 1, 67, 100
4, 80779, Note_on_c, 1, 74, 73
4, 80779, Note_on_c, 1, 71, 100
4, 80852, Note_off_c, 1, 62, 64
4, 80852, Note_off_c, 1, 67, 64
4, 80856, Note_off_c, 1, 71, 64
4, 80860, Note_off_c, 1, 74, 64
4, 81013, Note_on_c, 1, 81, 91
4, 81013, Note_on_c, 1, 69, 100
4, 81013, Note_on_c, 1, 76, 100
4, 81074, Note_off_c, 1, 69, 64
4, 81074, Note_off_c, 1, 76, 64
4, 81077, Note_off_c, 1, 81, 64
4, 81092, Note_on_c, 1, 69, 91
4, 81092, Note_on_c, 1, 76, 100
4, 81092, Note_on_c, 1, 81, 82
4, 81160, Note_off_c, 1, 69, 64
4, 81175, Note_off_c, 1, 76, 64
4, 81180, Note_off_c, 1, 81, 64
4, 81182, Note_on_c, 1, 69, 82
4, 81256, Note_on_c, 1, 79, 100
4, 81258, Note_on_c, 1, 75, 100
4, 81261, Note_on_c, 1, 81, 91
4, 81316, Note_off_c, 1, 81, 64
4, 81318, Note_off_c, 1, 79, 64
4, 81322, Note_off_c, 1, 75, 64
4, 81343, Note_on_c, 1, 76, 91
4, 81344, Note_on_c, 1, 81, 91
4, 81346, Note_on_c, 1, 79, 82
4, 81400, Note_off_c, 1, 69, 64
4, 81403, Note_off_c, 1, 79, 64
4, 81405, Note_off_c, 1, 81, 64
4, 81409, Note_off_c, 1, 76, 64
4, 81461, Note_on_c, 1, 72, 48
4, 81462, Note_on_c, 1, 71, 73
4, 81472, Note_off_c, 1, 72, 64
4, 81482, Note_on_c, 1, 72, 56
4, 81493, Note_on_c, 1, 74, 64
4, 81501, Note_off_c, 1, 71, 64
4, 81505, Note_on_c, 1, 76, 64
4, 81511, Note_off_c, 1, 72, 64
4, 81511, Note_on_c, 1, 77, 64
4, 81523, Note_on_c, 1, 79, 60
4, 81526, Note_off_c, 1, 74, 64
4, 81528, Note_off_c, 1, 76, 64
4, 81530, Note_on_c, 1, 81, 73
4, 81533, Note_off_c, 1, 77, 64
4, 81533, Note_on_c, 1, 83, 82
4, 81540, Note_on_c, 1, 84, 82
4, 81543, Note_off_c, 1, 79, 64
4, 81544, Note_off_c, 1, 81, 64
4, 81546, Note_on_c, 1, 86, 91
4, 81551, Note_off_c, 1, 83, 64
4, 81551, Note_on_c, 1, 88, 91
4, 81558, Note_on_c, 1, 89, 91
4, 81561, Note_off_c, 1, 84, 64
4, 81562, Note_off_c, 1, 88, 64
4, 81563, Note_on_c, 1, 91, 91
4, 81564, Note_off_c, 1, 86, 64
4, 81567, Note_on_c, 1, 93, 91
4, 81568, Note_off_c, 1, 89, 64
4, 81568, Note_off_c, 1, 91, 64
4, 81571, Note_on_c, 1, 95, 100
4, 81574, Note_off_c, 1, 93, 64
4, 81578, Note_on_c, 1, 96, 100
4, 81581, Note_off_c, 1, 95, 64
4, 81604, Note_on_c, 1, 95, 73
4, 81613, Note_on_c, 1, 93, 91
4, 81616, Note_off_c, 1, 96, 64
4, 81623, Note_on_c, 1, 91, 91
4, 81626, Note_off_c, 1, 95, 64
4, 81631, Note_on_c, 1, 89, 91
4, 81634, Note_off_c, 1, 93, 64
4, 81642, Note_on_c, 1, 88, 82
4, 81644, Note_off_c, 1, 91, 64
4, 81650, Note_on_c, 1, 86, 91
4, 81657, Note_off_c, 1, 89, 64
4, 81662, Note_on_c, 1, 84, 91
4, 81664, Note_off_c, 1, 88, 64
4, 81670, Note_on_c, 1, 83, 82
4, 81675, Note_off_c, 1, 86, 64
4, 81682, Note_on_c, 1, 81, 82
4, 81689, Note_off_c, 1, 84, 64
4, 81693, Note_on_c, 1, 79, 73
4, 81699, Note_off_c, 1, 83, 64
4, 81704, Note_on_c, 1, 77, 56
4, 81709, Note_off_c, 1, 81, 64
4, 81718, Note_on_c, 1, 76, 48
4, 81723, Note_off_c, 1, 79, 64
4, 81730, Note_on_c, 1, 74, 60
4, 81734, Note_off_c, 1, 77, 64
4, 81742, Note_on_c, 1, 72, 60
4, 81744, Note_off_c, 1, 76, 64
4, 81755, Note_on_c, 1, 71, 52
4, 81758, Note_off_c, 1, 74, 64
4, 81768, Note_on_c, 1, 69, 48
4, 81773, Note_off_c, 1, 72, 64
4, 81783, Note_on_c, 1, 67, 36
4, 81786, Note_off_c, 1, 71, 64
4, 81795, Note_on_c, 1, 65, 48
4, 81799, Note_off_c, 1, 69, 64
4, 81813, Note_on_c, 1, 64, 52
4, 81816, Note_off_c, 1, 67, 64
4, 81826, Note_on_c, 1, 62, 60
4, 81830, Note_off_c, 1, 65, 64
4, 81842, Note_on_c, 1, 60, 64
4, 81843, Note_off_c, 1, 64, 64
4, 81855, Note_off_c, 1, 62, 64
4, 81855, Note_on_c, 1, 59, 73
4, 81872, Note_off_c, 1, 60, 64
4, 81875, Note_on_c, 1, 57, 64
4, 81886, Note_off_c, 1, 59, 64
4, 81893, Note_off_c, 1, 57, 64
4, 82062, Note_on_c, 1, 57, 91
4, 82071, Note_on_c, 1, 62, 100
4, 82071, Note_on_c, 1, 69, 100
4, 82071, Note_on_c, 1, 66, 91
4, 82201, Note_off_c, 1, 62, 64
4, 82206, Note_off_c, 1, 66, 64
4, 82210, Note_off_c, 1, 69, 64
4, 82210, Note_off_c, 1, 57, 64
4, 82309, Note_on_c, 1, 69, 82
4, 82315, Note_on_c, 1, 81, 91
4, 82316, Note_on_c, 1, 75, 82
4, 82316, Note_on_c, 1, 79, 82
4, 82365, Note_off_c, 1, 69, 64
4, 82365, Note_off_c, 1, 75, 64
4, 82366, Note_off_c, 1, 81, 64
4, 82366, Note_off_c, 1, 79, 64
4, 82392, Note_on_c, 1, 69, 91
4, 82396, Note_on_c, 1, 76, 91
4, 82396, Note_on_c, 1, 81, 82
4, 82396, Note_on_c, 1, 79, 91
4, 82445, Note_off_c, 1, 69, 64
4, 82450, Note_off_c, 1, 76, 64
4, 82452, Note_off_c, 1, 81, 64
4, 82452, Note_off_c, 1, 79, 64
4, 82473, Note_on_c, 1, 69, 91
4, 82474, Note_on_c, 1, 76, 91
4, 82475, Note_on_c, 1, 79, 91
4, 82476, Note_on_c, 1, 81, 82
4, 82526, Note_off_c, 1, 79, 64
4, 82529, Note_off_c, 1, 76, 64
4, 82531, Note_off_c, 1, 69, 64
4, 82531, Note_off_c, 1, 81, 64
4, 82555, Note_on_c, 1, 81, 91
4, 82558, Note_on_c, 1, 69, 82
4, 82558, Note_on_c, 1, 74, 100
4, 82560, Note_on_c, 1, 78, 91
4, 82619, Note_off_c, 1, 69, 64
4, 82619, Note_off_c, 1, 74, 64
4, 82625, Note_off_c, 1, 78, 64
4, 82648, Note_on_c, 1, 67, 73
4, 82649, Note_on_c, 1, 76, 100
4, 82649, Note_on_c, 1, 73, 82
4, 82690, Note_off_c, 1, 67, 64
4, 82690, Note_off_c, 1, 76, 64
4, 82698, Note_off_c, 1, 73, 64
4, 82711, Note_off_c, 1, 81, 64
4, 82799, Note_on_c, 1, 75, 100
4, 82801, Note_on_c, 1, 81, 82
4, 82801, Note_on_c, 1, 69, 91
4, 82801, Note_on_c, 1, 79, 109
4, 82871, Note_off_c, 1, 79, 64
4, 82889, Note_off_c, 1, 75, 64
4, 82915, Note_off_c, 1, 69, 64
4, 82922, Note_on_c, 1, 79, 73
4, 82952, Note_on_c, 1, 76, 82
4, 82953, Note_off_c, 1, 81, 64
4, 82964, Note_off_c, 1, 79, 64
4, 82969, Note_on_c, 1, 69, 82
4, 82982, Note_off_c, 1, 76, 64
4, 83043, Note_on_c, 1, 78, 100
4, 83045, Note_on_c, 1, 81, 73
4, 83048, Note_on_c, 1, 74, 100
4, 83137, Note_off_c, 1, 74, 64
4, 83138, Note_off_c, 1, 78, 64
4, 83152, Note_off_c, 1, 69, 64
4, 83154, Note_off_c, 1, 81, 64
4, 83207, Note_on_c, 1, 81, 91
4, 83208, Note_on_c, 1, 73, 100
4, 83211, Note_on_c, 1, 76, 100
4, 83214, Note_on_c, 1, 69, 91
4, 83316, Note_off_c, 1, 76, 64
4, 83325, Note_off_c, 1, 73, 64
4, 83329, Note_off_c, 1, 81, 64
4, 83329, Note_off_c, 1, 69, 64
4, 83369, Note_on_c, 1, 81, 91
4, 83370, Note_on_c, 1, 69, 91
4, 83372, Note_on_c, 1, 78, 100
4, 83372, Note_on_c, 1, 74, 100
4, 83436, Note_off_c, 1, 69, 64
4, 83482, Note_off_c, 1, 74, 64
4, 83488, Note_off_c, 1, 78, 64
4, 83495, Note_off_c, 1, 81, 64
4, 83611, Note_on_c, 1, 69, 100
4, 83614, Note_on_c, 1, 75, 91
4, 83614, Note_on_c, 1, 79, 100
4, 83614, Note_on_c, 1, 81, 91
4, 83670, Note_off_c, 1, 69, 64
4, 83674, Note_off_c, 1, 75, 64
4, 83682, Note_off_c, 1, 79, 64
4, 83682, Note_off_c, 1, 81, 64
4, 83775, Note_on_c, 1, 69, 73
4, 83802, Note_off_c, 1, 69, 64
4, 83856, Note_on_c, 1, 78, 91
4, 83858, Note_on_c, 1, 81, 91
4, 83859, Note_on_c, 1, 74, 100
4, 83861, Note_on_c, 1, 69, 100
4, 83902, Note_off_c, 1, 69, 64
4, 83912, Note_off_c, 1, 74, 64
4, 83913, Note_off_c, 1, 78, 64
4, 83922, Note_off_c, 1, 81, 64
4, 83939, Note_on_c, 1, 69, 91
4, 83939, Note_on_c, 1, 81, 73
4, 83941, Note_on_c, 1, 74, 82
4, 83942, Note_on_c, 1, 78, 91
4, 83988, Note_off_c, 1, 74, 64
4, 83993, Note_off_c, 1, 69, 64
4, 83995, Note_off_c, 1, 81, 64
4, 83997, Note_off_c, 1, 78, 64
4, 84026, Note_on_c, 1, 81, 91
4, 84026, Note_on_c, 1, 73, 100
4, 84026, Note_on_c, 1, 76, 91
4, 84027, Note_on_c, 1, 69, 91
4, 84048, Note_off_c, 1, 69, 64
4, 84086, Note_off_c, 1, 76, 64
4, 84091, Note_on_c, 1, 69, 73
4, 84098, Note_off_c, 1, 81, 64
4, 84098, Note_off_c, 1, 73, 64
4, 84160, Note_off_c, 1, 69, 64
4, 84169, Note_on_c, 1, 69, 60
4, 84178, Note_on_c, 1, 81, 91
4, 84179, Note_on_c, 1, 75, 91
4, 84179, Note_on_c, 1, 79, 100
4, 84231, Note_off_c, 1, 79, 64
4, 84238, Note_off_c, 1, 81, 64
4, 84240, Note_off_c, 1, 75, 64
4, 84256, Note_on_c, 1, 79, 82
4, 84259, Note_on_c, 1, 81, 82
4, 84259, Note_on_c, 1, 76, 91
4, 84306, Note_off_c, 1, 79, 64
4, 84311, Note_off_c, 1, 76, 64
4, 84313, Note_off_c, 1, 81, 64
4, 84319, Note_off_c, 1, 69, 64
4, 84345, Note_on_c, 1, 69, 91
4, 84346, Note_on_c, 1, 81, 91
4, 84346, Note_on_c, 1, 74, 100
4, 84349, Note_on_c, 1, 78, 100
4, 84429, Note_off_c, 1, 74, 64
4, 84432, Note_off_c, 1, 69, 64
4, 84432, Note_off_c, 1, 78, 64
4, 84436, Note_off_c, 1, 81, 64
4, 84504, Note_on_c, 1, 73, 91
4, 84505, Note_on_c, 1, 81, 91
4, 84506, Note_on_c, 1, 76, 91
4, 84511, Note_on_c, 1, 69, 100
4, 84617, Note_off_c, 1, 76, 64
4, 84633, Note_off_c, 1, 73, 64
4, 84633, Note_off_c, 1, 81, 64
4, 84635, Note_off_c, 1, 69, 64
4, 84674, Note_on_c, 1, 81, 91
4, 84677, Note_on_c, 1, 74, 100
4, 84678, Note_on_c, 1, 69, 91
4, 84682, Note_on_c, 1, 78, 91
4, 84733, Note_off_c, 1, 69, 64
4, 84735, Note_off_c, 1, 74, 64
4, 84743, Note_off_c, 1, 78, 64
4, 84746, Note_off_c, 1, 81, 64
4, 84824, Note_on_c, 1, 74, 91
4, 84829, Note_on_c, 1, 80, 100
4, 84830, Note_on_c, 1, 84, 91
4, 84831, Note_on_c, 1, 86, 82
4, 84836, Note_on_c, 1, 81, 91
4, 84842, Note_off_c, 1, 80, 64
4, 84883, Note_off_c, 1, 84, 64
4, 84886, Note_off_c, 1, 74, 64
4, 84887, Note_off_c, 1, 81, 64
4, 84889, Note_off_c, 1, 86, 64
4, 84907, Note_on_c, 1, 74, 82
4, 84909, Note_on_c, 1, 81, 91
4, 84909, Note_on_c, 1, 86, 91
4, 84911, Note_on_c, 1, 84, 91
4, 84958, Note_off_c, 1, 84, 64
4, 84961, Note_off_c, 1, 81, 64
4, 84962, Note_off_c, 1, 86, 64
4, 84967, Note_off_c, 1, 74, 64
4, 84989, Note_on_c, 1, 79, 100
4, 84991, Note_on_c, 1, 74, 91
4, 84993, Note_on_c, 1, 83, 109
4, 84993, Note_on_c, 1, 86, 91
4, 85062, Note_off_c, 1, 83, 64
4, 85067, Note_off_c, 1, 79, 64
4, 85067, Note_off_c, 1, 86, 64
4, 85071, Note_off_c, 1, 74, 64
4, 85150, Note_on_c, 1, 74, 91
4, 85153, Note_on_c, 1, 86, 91
4, 85153, Note_on_c, 1, 81, 91
4, 85154, Note_on_c, 1, 78, 100
4, 85212, Note_off_c, 1, 81, 64
4, 85213, Note_off_c, 1, 78, 64
4, 85215, Note_off_c, 1, 74, 64
4, 85220, Note_off_c, 1, 86, 64
4, 85241, Note_on_c, 1, 74, 82
4, 85243, Note_on_c, 1, 83, 91
4, 85244, Note_on_c, 1, 86, 64
4, 85247, Note_on_c, 1, 79, 100
4, 85299, Note_off_c, 1, 83, 64
4, 85305, Note_off_c, 1, 79, 64
4, 85308, Note_off_c, 1, 86, 64
4, 85308, Note_off_c, 1, 74, 64
4, 85396, Note_on_c, 1, 84, 100
4, 85396, Note_on_c, 1, 74, 100
4, 85396, Note_on_c, 1, 80, 100
4, 85396, Note_on_c, 1, 86, 91
4, 85456, Note_off_c, 1, 84, 64
4, 85462, Note_off_c, 1, 86, 64
4, 85470, Note_off_c, 1, 80, 64
4, 85498, Note_off_c, 1, 74, 64
4, 85503, Note_on_c, 1, 86, 52
4, 85516, Note_on_c, 1, 84, 64
4, 85537, Note_on_c, 1, 81, 91
4, 85548, Note_off_c, 1, 86, 64
4, 85551, Note_off_c, 1, 84, 64
4, 85562, Note_on_c, 1, 74, 100
4, 85572, Note_off_c, 1, 81, 64
4, 85630, Note_on_c, 1, 83, 100
4, 85631, Note_on_c, 1, 86, 91
4, 85638, Note_on_c, 1, 79, 109
4, 85730, Note_off_c, 1, 79, 64
4, 85733, Note_off_c, 1, 83, 64
4, 85734, Note_off_c, 1, 86, 64
4, 85744, Note_off_c, 1, 74, 64
4, 85799, Note_on_c, 1, 78, 91
4, 85802, Note_on_c, 1, 86, 91
4, 85802, Note_on_c, 1, 74, 100
4, 85804, Note_on_c, 1, 81, 91
4, 85919, Note_off_c, 1, 81, 64
4, 85934, Note_off_c, 1, 78, 64
4, 85934, Note_off_c, 1, 86, 64
4, 85937, Note_off_c, 1, 74, 64
4, 85969, Note_on_c, 1, 86, 91
4, 85969, Note_on_c, 1, 79, 100
4, 85972, Note_on_c, 1, 83, 100
4, 85972, Note_on_c, 1, 74, 91
4, 86025, Note_off_c, 1, 83, 64
4, 86032, Note_off_c, 1, 86, 64
4, 86034, Note_off_c, 1, 79, 64
4, 86123, Note_on_c, 1, 81, 82
4, 86127, Note_on_c, 1, 79, 91
4, 86127, Note_on_c, 1, 75, 91
4, 86128, Note_on_c, 1, 69, 91
4, 86170, Note_off_c, 1, 69, 64
4, 86177, Note_off_c, 1, 81, 64
4, 86179, Note_off_c, 1, 79, 64
4, 86180, Note_off_c, 1, 75, 64
4, 86207, Note_on_c, 1, 79, 73
4, 86208, Note_on_c, 1, 69, 82
4, 86208, Note_on_c, 1, 81, 82
4, 86210, Note_on_c, 1, 76, 91
4, 86253, Note_off_c, 1, 79, 64
4, 86260, Note_off_c, 1, 81, 64
4, 86260, Note_off_c, 1, 76, 64
4, 86266, Note_off_c, 1, 69, 64
4, 86291, Note_on_c, 1, 69, 91
4, 86293, Note_on_c, 1, 81, 82
4, 86293, Note_on_c, 1, 78, 100
4, 86377, Note_off_c, 1, 74, 64
4, 86382, Note_off_c, 1, 69, 64
4, 86390, Note_off_c, 1, 78, 64
4, 86394, Note_off_c, 1, 81, 64
4, 86455, Note_on_c, 1, 81, 91
4, 86455, Note_on_c, 1, 73, 91
4, 86455, Note_on_c, 1, 76, 91
4, 86455, Note_on_c, 1, 69, 91
4, 86508, Note_off_c, 1, 76, 64
4, 86511, Note_off_c, 1, 69, 64
4, 86515, Note_off_c, 1, 73, 64
4, 86518, Note_off_c, 1, 81, 64
4, 86535, Note_on_c, 1, 81, 91
4, 86538, Note_on_c, 1, 69, 82
4, 86538, Note_on_c, 1, 78, 91
4, 86541, Note_on_c, 1, 74, 100
4, 86603, Note_off_c, 1, 74, 64
4, 86606, Note_off_c, 1, 69, 64
4, 86606, Note_off_c, 1, 78, 64
4, 86614, Note_off_c, 1, 81, 64
4, 86694, Note_on_c, 1, 79, 100
4, 86696, Note_on_c, 1, 81, 91
4, 86696, Note_on_c, 1, 69, 100
4, 86697, Note_on_c, 1, 75, 91
4, 86743, Note_off_c, 1, 69, 64
4, 86746, Note_off_c, 1, 81, 64
4, 86751, Note_off_c, 1, 79, 64
4, 86753, Note_off_c, 1, 75, 64
4, 86774, Note_on_c, 1, 69, 82
4, 86777, Note_on_c, 1, 79, 82
4, 86777, Note_on_c, 1, 76, 91
4, 86779, Note_on_c, 1, 81, 73
4, 86831, Note_off_c, 1, 79, 64
4, 86833, Note_off_c, 1, 81, 64
4, 86833, Note_off_c, 1, 76, 64
4, 86833, Note_off_c, 1, 69, 64
4, 86852, Note_on_c, 1, 76, 91
4, 86855, Note_on_c, 1, 69, 82
4, 86856, Note_on_c, 1, 81, 73
4, 86856, Note_on_c, 1, 79, 82
4, 86904, Note_off_c, 1, 79, 64
4, 86906, Note_off_c, 1, 76, 64
4, 86908, Note_off_c, 1, 81, 64
4, 86909, Note_off_c, 1, 69, 64
4, 86938, Note_on_c, 1, 81, 91
4, 86942, Note_on_c, 1, 69, 82
4, 86942, Note_on_c, 1, 74, 100
4, 86942, Note_on_c, 1, 78, 91
4, 87025, Note_off_c, 1, 74, 64
4, 87029, Note_off_c, 1, 69, 64
4, 87029, Note_off_c, 1, 78, 64
4, 87038, Note_off_c, 1, 81, 64
4, 87098, Note_on_c, 1, 73, 100
4, 87101, Note_on_c, 1, 76, 100
4, 87103, Note_on_c, 1, 81, 100
4, 87104, Note_on_c, 1, 69, 91
4, 87214, Note_off_c, 1, 76, 64
4, 87230, Note_off_c, 1, 69, 64
4, 87236, Note_off_c, 1, 73, 64
4, 87240, Note_off_c, 1, 81, 64
4, 87265, Note_on_c, 1, 78, 91
4, 87266, Note_on_c, 1, 81, 82
4, 87270, Note_on_c, 1, 74, 82
4, 87272, Note_on_c, 1, 69, 91
4, 87319, Note_off_c, 1, 78, 64
4, 87320, Note_off_c, 1, 81, 64
4, 87322, Note_off_c, 1, 74, 64
4, 87329, Note_off_c, 1, 69, 64
4, 87419, Note_on_c, 1, 64, 91
4, 87421, Note_on_c, 1, 71, 91
4, 87423, Note_on_c, 1, 74, 91
4, 87423, Note_on_c, 1, 76, 91
4, 87470, Note_off_c, 1, 64, 64
4, 87473, Note_off_c, 1, 74, 64
4, 87473, Note_off_c, 1, 76, 64
4, 87477, Note_off_c, 1, 71, 64
4, 87506, Note_on_c, 1, 71, 82
4, 87506, Note_on_c, 1, 64, 91
4, 87508, Note_on_c, 1, 76, 82
4, 87508, Note_on_c, 1, 74, 82
4, 87551, Note_off_c, 1, 74, 64
4, 87555, Note_off_c, 1, 71, 64
4, 87557, Note_off_c, 1, 76, 64
4, 87560, Note_off_c, 1, 64, 64
4, 87585, Note_on_c, 1, 76, 91
4, 87587, Note_on_c, 1, 69, 91
4, 87587, Note_on_c, 1, 64, 82
4, 87588, Note_on_c, 1, 73, 91
4, 87674, Note_off_c, 1, 69, 64
4, 87674, Note_off_c, 1, 64, 64
4, 87680, Note_off_c, 1, 73, 64
4, 87684, Note_off_c, 1, 76, 64
4, 87749, Note_on_c, 1, 71, 100
4, 87749, Note_on_c, 1, 68, 91
4, 87749, Note_on_c, 1, 76, 82
4, 87749, Note_on_c, 1, 64, 91
4, 87807, Note_off_c, 1, 71, 64
4, 87811, Note_off_c, 1, 64, 64
4, 87817, Note_off_c, 1, 68, 64
4, 87817, Note_off_c, 1, 76, 64
4, 87842, Note_on_c, 1, 76, 82
4, 87845, Note_on_c, 1, 69, 100
4, 87845, Note_on_c, 1, 64, 73
4, 87846, Note_on_c, 1, 73, 100
4, 87901, Note_off_c, 1, 69, 64
4, 87903, Note_off_c, 1, 73, 64
4, 87907, Note_off_c, 1, 76, 64
4, 87907, Note_off_c, 1, 64, 64
4, 87981, Note_on_c, 1, 62, 100
4, 87984, Note_on_c, 1, 69, 91
4, 87984, Note_on_c, 1, 72, 100
4, 87985, Note_on_c, 1, 74, 91
4, 88063, Note_off_c, 1, 72, 64
4, 88063, Note_off_c, 1, 74, 64
4, 88078, Note_off_c, 1, 69, 64
4, 88102, Note_on_c, 1, 74, 64
4, 88106, Note_off_c, 1, 62, 64
4, 88119, Note_on_c, 1, 72, 64
4, 88139, Note_on_c, 1, 69, 82
4, 88153, Note_off_c, 1, 74, 64
4, 88157, Note_on_c, 1, 62, 82
4, 88160, Note_off_c, 1, 72, 64
4, 88173, Note_off_c, 1, 69, 64
4, 88229, Note_on_c, 1, 74, 91
4, 88229, Note_on_c, 1, 71, 91
4, 88229, Note_on_c, 1, 67, 100
4, 88323, Note_off_c, 1, 71, 64
4, 88326, Note_off_c, 1, 67, 64
4, 88330, Note_off_c, 1, 74, 64
4, 88343, Note_off_c, 1, 62, 64
4, 88397, Note_on_c, 1, 66, 91
4, 88399, Note_on_c, 1, 74, 82
4, 88401, Note_on_c, 1, 69, 91
4, 88401, Note_on_c, 1, 62, 82
4, 88516, Note_off_c, 1, 69, 64
4, 88523, Note_off_c, 1, 74, 64
4, 88530, Note_off_c, 1, 66, 64
4, 88530, Note_off_c, 1, 62, 64
4, 88562, Note_on_c, 1, 62, 100
4, 88565, Note_on_c, 1, 67, 100
4, 88569, Note_on_c, 1, 74, 73
4, 88569, Note_on_c, 1, 71, 100
4, 88641, Note_off_c, 1, 62, 64
4, 88641, Note_off_c, 1, 67, 64
4, 88644, Note_off_c, 1, 71, 64
4, 88650, Note_off_c, 1, 74, 64
4, 88802, Note_on_c, 1, 81, 91
4, 88802, Note_on_c, 1, 69, 100
4, 88802, Note_on_c, 1, 76, 100
4, 88862, Note_off_c, 1, 69, 64
4, 88862, Note_off_c, 1, 76, 64
4, 88866, Note_off_c, 1, 81, 64
4, 88881, Note_on_c, 1, 69, 91
4, 88881, Note_on_c, 1, 76, 100
4, 88883, Note_on_c, 1, 81, 82
4, 88948, Note_off_c, 1, 69, 64
4, 88964, Note_off_c, 1, 76, 64
4, 88969, Note_off_c, 1, 81, 64
4, 88972, Note_on_c, 1, 69, 82
4, 89046, Note_on_c, 1, 79, 100
4, 89047, Note_on_c, 1, 75, 100
4, 89051, Note_on_c, 1, 81, 91
4, 89107, Note_off_c, 1, 81, 64
4, 89108, Note_off_c, 1, 79, 64
4, 89111, Note_off_c, 1, 75, 64
4, 89132, Note_on_c, 1, 76, 91
4, 89134, Note_on_c, 1, 81, 91
4, 89135, Note_on_c, 1, 79, 82
4, 89189, Note_off_c, 1, 69, 64
4, 89193, Note_off_c, 1, 79, 64
4, 89194, Note_off_c, 1, 81, 64
4, 89197, Note_off_c, 1, 76, 64
4, 89250, Note_on_c, 1, 72, 48
4, 89252, Note_on_c, 1, 71, 73
4, 89262, Note_off_c, 1, 72, 64
4, 89272, Note_on_c, 1, 72, 56
4, 89283, Note_on_c, 1, 74, 64
4, 89290, Note_off_c, 1, 71, 64
4, 89294, Note_on_c, 1, 76, 64
4, 89300, Note_off_c, 1, 72, 64
4, 89300, Note_on_c, 1, 77, 64
4, 89313, Note_on_c, 1, 79, 60
4, 89316, Note_off_c, 1, 74, 64
4, 89317, Note_off_c, 1, 76, 64
4, 89319, Note_on_c, 1, 81, 73
4, 89323, Note_off_c, 1, 77, 64
4, 89323, Note_on_c, 1, 83, 82
4, 89329, Note_on_c, 1, 84, 82
4, 89331, Note_off_c, 1, 79, 64
4, 89333, Note_off_c, 1, 81, 64
4, 89334, Note_on_c, 1, 86, 91
4, 89339, Note_off_c, 1, 83, 64
4, 89339, Note_on_c, 1, 88, 91
4, 89346, Note_on_c, 1, 89, 91
4, 89349, Note_off_c, 1, 84, 64
4, 89352, Note_off_c, 1, 88, 64
4, 89352, Note_on_c, 1, 91, 91
4, 89353, Note_off_c, 1, 86, 64
4, 89355, Note_on_c, 1, 93, 91
4, 89356, Note_off_c, 1, 89, 64
4, 89358, Note_off_c, 1, 91, 64
4, 89360, Note_on_c, 1, 95, 100
4, 89363, Note_off_c, 1, 93, 64
4, 89367, Note_on_c, 1, 96, 100
4, 89371, Note_off_c, 1, 95, 64
4, 89394, Note_on_c, 1, 95, 73
4, 89402, Note_on_c, 1, 93, 91
4, 89405, Note_off_c, 1, 96, 64
4, 89412, Note_on_c, 1, 91, 91
4, 89415, Note_off_c, 1, 95, 64
4, 89421, Note_on_c, 1, 89, 91
4, 89424, Note_off_c, 1, 93, 64
4, 89431, Note_on_c, 1, 88, 82
4, 89432, Note_off_c, 1, 91, 64
4, 89439, Note_on_c, 1, 86, 91
4, 89446, Note_off_c, 1, 89, 64
4, 89452, Note_off_c, 1, 88, 64
4, 89452, Note_on_c, 1, 84, 91
4, 89459, Note_on_c, 1, 83, 82
4, 89465, Note_off_c, 1, 86, 64
4, 89472, Note_on_c, 1, 81, 82
4, 89478, Note_off_c, 1, 84, 64
4, 89482, Note_on_c, 1, 79, 73
4, 89488, Note_off_c, 1, 83, 64
4, 89494, Note_on_c, 1, 77, 56
4, 89498, Note_off_c, 1, 81, 64
4, 89507, Note_on_c, 1, 76, 48
4, 89511, Note_off_c, 1, 79, 64
4, 89518, Note_on_c, 1, 74, 60
4, 89524, Note_off_c, 1, 77, 64
4, 89531, Note_on_c, 1, 72, 60
4, 89534, Note_off_c, 1, 76, 64
4, 89544, Note_on_c, 1, 71, 52
4, 89548, Note_off_c, 1, 74, 64
4, 89558, Note_on_c, 1, 69, 48
4, 89563, Note_off_c, 1, 72, 64
4, 89571, Note_on_c, 1, 67, 36
4, 89576, Note_off_c, 1, 71, 64
4, 89585, Note_on_c, 1, 65, 48
4, 89588, Note_off_c, 1, 69, 64
4, 89602, Note_on_c, 1, 64, 52
4, 89605, Note_off_c, 1, 67, 64
4, 89614, Note_on_c, 1, 62, 60
4, 89621, Note_off_c, 1, 65, 64
4, 89631, Note_on_c, 1, 60, 64
4, 89632, Note_off_c, 1, 64, 64
4, 89644, Note_off_c, 1, 62, 64
4, 89644, Note_on_c, 1, 59, 73
4, 89660, Note_off_c, 1, 60, 64
4, 89664, Note_on_c, 1, 57, 64
4, 89676, Note_off_c, 1, 59, 64
4, 89683, Note_off_c, 1, 57, 64
4, 89857, Note_on_c, 1, 57, 91
4, 89857, Note_on_c, 1, 62, 100
4, 89857, Note_on_c, 1, 69, 100
4, 89857, Note_on_c, 1, 66, 91
4, 89991, Note_off_c, 1, 62, 64
4, 89995, Note_off_c, 1, 66, 64
4, 89998, Note_off_c, 1, 57, 64
4, 90000, Note_off_c, 1, 69, 64
4, 90098, Note_on_c, 1, 71, 91
4, 90098, Note_on_c, 1, 64, 91
4, 90100, Note_on_c, 1, 76, 91
4, 90100, Note_on_c, 1, 74, 91
4, 90142, Note_off_c, 1, 64, 64
4, 90142, Note_off_c, 1, 74, 64
4, 90149, Note_off_c, 1, 71, 64
4, 90154, Note_off_c, 1, 76, 64
4, 90180, Note_on_c, 1, 71, 82
4, 90182, Note_on_c, 1, 74, 91
4, 90184, Note_on_c, 1, 64, 91
4, 90185, Note_on_c, 1, 76, 91
4, 90236, Note_off_c, 1, 74, 64
4, 90236, Note_off_c, 1, 64, 64
4, 90240, Note_off_c, 1, 71, 64
4, 90240, Note_off_c, 1, 76, 64
4, 90256, Note_on_c, 1, 64, 73
4, 90257, Note_on_c, 1, 76, 64
4, 90257, Note_on_c, 1, 71, 64
4, 90257, Note_on_c, 1, 74, 82
4, 90314, Note_off_c, 1, 64, 64
4, 90314, Note_off_c, 1, 74, 64
4, 90318, Note_off_c, 1, 71, 64
4, 90319, Note_off_c, 1, 76, 64
4, 90335, Note_on_c, 1, 64, 82
4, 90335, Note_on_c, 1, 71, 73
4, 90336, Note_on_c, 1, 74, 82
4, 90339, Note_on_c, 1, 76, 73
4, 90389, Note_off_c, 1, 64, 64
4, 90392, Note_off_c, 1, 74, 64
4, 90392, Note_off_c, 1, 76, 64
4, 90398, Note_off_c, 1, 71, 64
4, 90426, Note_on_c, 1, 71, 82
4, 90429, Note_on_c, 1, 76, 91
4, 90429, Note_on_c, 1, 64, 91
4, 90429, Note_on_c, 1, 74, 82
4, 90467, Note_off_c, 1, 74, 64
4, 90472, Note_off_c, 1, 76, 64
4, 90473, Note_off_c, 1, 71, 64
4, 90477, Note_off_c, 1, 64, 64
4, 90581, Note_on_c, 1, 69, 100
4, 90581, Note_on_c, 1, 74, 82
4, 90588, Note_on_c, 1, 72, 91
4, 90588, Note_on_c, 1, 62, 91
4, 90633, Note_off_c, 1, 62, 64
4, 90635, Note_off_c, 1, 72, 64
4, 90638, Note_off_c, 1, 69, 64
4, 90642, Note_off_c, 1, 74, 64
4, 90660, Note_on_c, 1, 62, 73
4, 90666, Note_on_c, 1, 69, 91
4, 90666, Note_on_c, 1, 74, 64
4, 90666, Note_on_c, 1, 72, 91
4, 90718, Note_off_c, 1, 72, 64
4, 90721, Note_off_c, 1, 62, 64
4, 90725, Note_off_c, 1, 69, 64
4, 90727, Note_off_c, 1, 74, 64
4, 90749, Note_on_c, 1, 62, 73
4, 90750, Note_on_c, 1, 74, 82
4, 90753, Note_on_c, 1, 69, 82
4, 90753, Note_on_c, 1, 72, 73
4, 90801, Note_off_c, 1, 69, 64
4, 90803, Note_off_c, 1, 72, 64
4, 90804, Note_off_c, 1, 74, 64
4, 90812, Note_off_c, 1, 62, 64
4, 90833, Note_on_c, 1, 62, 91
4, 90836, Note_on_c, 1, 74, 91
4, 90837, Note_on_c, 1, 67, 91
4, 90837, Note_on_c, 1, 71, 91
4, 90915, Note_off_c, 1, 71, 64
4, 90919, Note_off_c, 1, 67, 64
4, 90931, Note_off_c, 1, 62, 64
4, 90931, Note_off_c, 1, 74, 64
4, 90985, Note_on_c, 1, 69, 91
4, 90990, Note_on_c, 1, 74, 82
4, 90990, Note_on_c, 1, 66, 73
4, 90992, Note_on_c, 1, 62, 82
4, 91108, Note_off_c, 1, 69, 64
4, 91121, Note_off_c, 1, 62, 64
4, 91122, Note_off_c, 1, 66, 64
4, 91127, Note_off_c, 1, 74, 64
4, 91157, Note_on_c, 1, 62, 82
4, 91157, Note_on_c, 1, 67, 100
4, 91159, Note_on_c, 1, 74, 91
4, 91159, Note_on_c, 1, 71, 91
4, 91228, Note_off_c, 1, 71, 64
4, 91229, Note_off_c, 1, 67, 64
4, 91233, Note_off_c, 1, 74, 64
4, 91237, Note_off_c, 1, 62, 64
4, 91396, Note_on_c, 1, 57, 82
4, 91396, Note_on_c, 1, 64, 91
4, 91399, Note_on_c, 1, 67, 91
4, 91400, Note_on_c, 1, 69, 91
4, 91441, Note_off_c, 1, 67, 64
4, 91444, Note_off_c, 1, 64, 64
4, 91445, Note_off_c, 1, 57, 64
4, 91448, Note_off_c, 1, 69, 64
4, 91645, Note_on_c, 1, 57, 91
4, 91647, Note_on_c, 1, 64, 91
4, 91648, Note_on_c, 1, 67, 82
4, 91648, Note_on_c, 1, 69, 91
4, 91683, Note_off_c, 1, 57, 64
4, 91684, Note_off_c, 1, 69, 64
4, 91686, Note_off_c, 1, 67, 64
4, 91690, Note_off_c, 1, 64, 64
4, 91881, Note_on_c, 1, 64, 100
4, 91881, Note_on_c, 1, 69, 91
4, 91881, Note_on_c, 1, 57, 82
4, 91881, Note_on_c, 1, 67, 100
4, 91940, Note_off_c, 1, 57, 64
4, 91941, Note_off_c, 1, 69, 64
4, 91944, Note_off_c, 1, 67, 64
4, 91945, Note_off_c, 1, 64, 64
4, 91960, Note_on_c, 1, 57, 64
4, 91967, Note_on_c, 1, 67, 73
4, 91967, Note_on_c, 1, 64, 82
4, 91968, Note_on_c, 1, 69, 64
4, 92017, Note_off_c, 1, 57, 64
4, 92017, Note_off_c, 1, 67, 64
4, 92018, Note_off_c, 1, 69, 64
4, 92020, Note_off_c, 1, 64, 64
4, 92042, Note_on_c, 1, 64, 73
4, 92044, Note_on_c, 1, 57, 73
4, 92045, Note_on_c, 1, 67, 73
4, 92047, Note_on_c, 1, 69, 73
4, 92091, Note_off_c, 1, 67, 64
4, 92093, Note_off_c, 1, 57, 64
4, 92094, Note_off_c, 1, 69, 64
4, 92096, Note_off_c, 1, 64, 64
4, 92129, Note_on_c, 1, 62, 100
4, 92131, Note_on_c, 1, 57, 73
4, 92131, Note_on_c, 1, 69, 73
4, 92131, Note_on_c, 1, 66, 91
4, 92218, Note_off_c, 1, 66, 64
4, 92220, Note_off_c, 1, 62, 64
4, 92228, Note_off_c, 1, 69, 64
4, 92235, Note_off_c, 1, 57, 64
4, 92290, Note_on_c, 1, 61, 91
4, 92293, Note_on_c, 1, 64, 82
4, 92293, Note_on_c, 1, 57, 73
4, 92296, Note_on_c, 1, 69, 82
4, 92397, Note_off_c, 1, 64, 64
4, 92409, Note_off_c, 1, 57, 64
4, 92415, Note_off_c, 1, 61, 64
4, 92417, Note_off_c, 1, 69, 64
4, 92455, Note_on_c, 1, 57, 82
4, 92455, Note_on_c, 1, 69, 82
4, 92457, Note_on_c, 1, 62, 100
4, 92457, Note_on_c, 1, 66, 91
4, 92531, Note_off_c, 1, 57, 64
4, 92531, Note_off_c, 1, 62, 64
4, 92531, Note_off_c, 1, 66, 64
4, 92538, Note_off_c, 1, 69, 64
4, 92697, Note_on_c, 1, 71, 91
4, 92697, Note_on_c, 1, 76, 91
4, 92703, Note_on_c, 1, 74, 91
4, 92709, Note_on_c, 1, 64, 82
4, 92727, Note_off_c, 1, 64, 64
4, 92740, Note_off_c, 1, 71, 64
4, 92740, Note_off_c, 1, 74, 64
4, 92742, Note_off_c, 1, 76, 64
4, 92773, Note_on_c, 1, 71, 91
4, 92779, Note_on_c, 1, 64, 82
4, 92779, Note_on_c, 1, 74, 82
4, 92780, Note_on_c, 1, 76, 91
4, 92832, Note_off_c, 1, 74, 64
4, 92836, Note_off_c, 1, 64, 64
4, 92836, Note_off_c, 1, 76, 64
4, 92839, Note_off_c, 1, 71, 64
4, 92859, Note_on_c, 1, 64, 73
4, 92862, Note_on_c, 1, 71, 73
4, 92862, Note_on_c, 1, 74, 91
4, 92862, Note_on_c, 1, 76, 73
4, 92906, Note_off_c, 1, 74, 64
4, 92910, Note_off_c, 1, 71, 64
4, 92910, Note_off_c, 1, 76, 64
4, 92912, Note_off_c, 1, 64, 64
4, 92944, Note_on_c, 1, 69, 91
4, 92948, Note_on_c, 1, 64, 73
4, 92951, Note_on_c, 1, 76, 82
4, 92952, Note_on_c, 1, 73, 82
4, 92996, Note_off_c, 1, 69, 64
4, 93001, Note_off_c, 1, 64, 64
4, 93002, Note_off_c, 1, 73, 64
4, 93009, Note_off_c, 1, 76, 64
4, 93028, Note_on_c, 1, 76, 91
4, 93031, Note_on_c, 1, 64, 91
4, 93033, Note_on_c, 1, 71, 91
4, 93035, Note_on_c, 1, 68, 91
4, 93185, Note_off_c, 1, 76, 64
4, 93212, Note_off_c, 1, 64, 64
4, 93220, Note_off_c, 1, 71, 64
4, 93228, Note_off_c, 1, 68, 64
4, 93268, Note_on_c, 1, 74, 100
4, 93271, Note_on_c, 1, 69, 100
4, 93274, Note_on_c, 1, 62, 100
4, 93276, Note_on_c, 1, 72, 100
4, 93337, Note_off_c, 1, 69, 64
4, 93344, Note_off_c, 1, 74, 64
4, 93344, Note_off_c, 1, 62, 64
4, 93346, Note_off_c, 1, 72, 64
4, 94001, Note_on_c, 1, 69, 82
4, 94024, Note_off_c, 1, 69, 64
4, 94070, Note_on_c, 1, 72, 91
4, 94074, Note_on_c, 1, 76, 91
4, 94081, Note_on_c, 1, 73, 36
4, 94091, Note_off_c, 1, 72, 64
4, 94121, Note_off_c, 1, 73, 64
4, 94124, Note_off_c, 1, 76, 64
4, 94154, Note_on_c, 1, 74, 100
4, 94156, Note_on_c, 1, 78, 91
4, 94193, Note_off_c, 1, 78, 64
4, 94197, Note_off_c, 1, 74, 64
4, 94236, Note_on_c, 1, 76, 91
4, 94243, Note_on_c, 1, 72, 64
4, 94264, Note_on_c, 1, 73, 82
4, 94266, Note_off_c, 1, 76, 64
4, 94267, Note_off_c, 1, 72, 64
4, 94288, Note_on_c, 1, 71, 91
4, 94295, Note_off_c, 1, 73, 64
4, 94319, Note_off_c, 1, 71, 64
4, 94325, Note_on_c, 1, 69, 91
4, 94359, Note_off_c, 1, 69, 64
4, 94393, Note_on_c, 1, 64, 91
4, 94397, Note_on_c, 1, 69, 82
4, 94446, Note_off_c, 1, 64, 64
4, 94449, Note_off_c, 1, 69, 64
4, 94479, Note_on_c, 1, 69, 82
4, 94482, Note_on_c, 1, 62, 91
4, 94533, Note_off_c, 1, 62, 64
4, 94535, Note_off_c, 1, 69, 64
4, 94562, Note_on_c, 1, 69, 64
4, 94568, Note_on_c, 1, 60, 100
4, 94600, Note_on_c, 1, 61, 91
4, 94603, Note_off_c, 1, 60, 64
4, 94631, Note_off_c, 1, 61, 64
4, 94637, Note_off_c, 1, 69, 64
4, 94809, Note_on_c, 1, 69, 82
4, 94812, Note_on_c, 1, 55, 91
4, 94813, Note_on_c, 1, 61, 91
4, 94813, Note_on_c, 1, 66, 91
4, 95832, Note_off_c, 1, 66, 64
4, 95832, Note_off_c, 1, 61, 64
4, 95832, Note_off_c, 1, 55, 64
4, 95832, Note_off_c, 1, 69, 64
4, 95832, End_track
5, 0, Start_track
5, 0, MIDI_port, 0
5, 0, Title_t, "BRASS               "
5, 0, Program_c, 3, 61
5, 0, Control_c, 3, 7, 107
5, 9299, Note_on_c, 3, 73, 52
5, 9299, Note_on_c, 3, 76, 64
5, 9330, Note_off_c, 3, 76, 64
5, 9340, Note_off_c, 3, 73, 64
5, 9380, Note_on_c, 3, 78, 82
5, 9380, Note_on_c, 3, 74, 73
5, 9419, Note_off_c, 3, 78, 64
5, 9423, Note_off_c, 3, 74, 64
5, 9461, Note_on_c, 3, 79, 100
5, 9461, Note_on_c, 3, 75, 91
5, 9501, Note_on_c, 3, 76, 64
5, 9511, Note_off_c, 3, 75, 64
5, 9994, Note_off_c, 3, 79, 64
5, 10004, Note_off_c, 3, 76, 64
5, 10029, Note_on_c, 3, 74, 60
5, 10029, Note_on_c, 3, 78, 48
5, 10098, Note_off_c, 3, 78, 64
5, 10100, Note_off_c, 3, 74, 64
5, 10112, Note_on_c, 3, 76, 91
5, 10112, Note_on_c, 3, 73, 91
5, 10149, Note_off_c, 3, 73, 64
5, 10159, Note_off_c, 3, 76, 64
5, 10597, Note_on_c, 3, 73, 82
5, 10597, Note_on_c, 3, 76, 82
5, 10634, Note_off_c, 3, 73, 64
5, 10641, Note_off_c, 3, 76, 64
5, 10677, Note_on_c, 3, 74, 56
5, 10677, Note_on_c, 3, 78, 60
5, 10712, Note_off_c, 3, 74, 64
5, 10724, Note_off_c, 3, 78, 64
5, 10760, Note_on_c, 3, 76, 91
5, 10760, Note_on_c, 3, 79, 100
5, 10760, Note_on_c, 3, 75, 91
5, 10790, Note_off_c, 3, 75, 64
5, 11280, Note_off_c, 3, 76, 64
5, 11315, Note_off_c, 3, 79, 64
5, 11329, Note_on_c, 3, 74, 64
5, 11329, Note_on_c, 3, 78, 60
5, 11396, Note_off_c, 3, 74, 64
5, 11398, Note_off_c, 3, 78, 64
5, 11408, Note_on_c, 3, 73, 91
5, 11408, Note_on_c, 3, 76, 100
5, 11448, Note_off_c, 3, 73, 64
5, 11452, Note_off_c, 3, 76, 64
5, 11895, Note_on_c, 3, 72, 91
5, 11899, Note_on_c, 3, 69, 100
5, 11929, Note_off_c, 3, 72, 64
5, 11934, Note_off_c, 3, 69, 64
5, 11978, Note_on_c, 3, 74, 82
5, 11978, Note_on_c, 3, 71, 91
5, 12013, Note_off_c, 3, 74, 64
5, 12016, Note_off_c, 3, 71, 64
5, 12058, Note_on_c, 3, 76, 91
5, 12058, Note_on_c, 3, 72, 100
5, 12595, Note_off_c, 3, 72, 64
5, 12622, Note_off_c, 3, 76, 64
5, 12624, Note_on_c, 3, 74, 82
5, 12624, Note_on_c, 3, 71, 64
5, 12692, Note_off_c, 3, 74, 64
5, 12695, Note_off_c, 3, 71, 64
5, 12706, Note_on_c, 3, 69, 100
5, 12706, Note_on_c, 3, 72, 91
5, 12743, Note_off_c, 3, 69, 64
5, 12750, Note_off_c, 3, 72, 64
5, 13193, Note_on_c, 3, 76, 73
5, 13193, Note_on_c, 3, 73, 82
5, 13224, Note_off_c, 3, 73, 64
5, 13230, Note_off_c, 3, 76, 64
5, 13273, Note_on_c, 3, 74, 64
5, 13273, Note_on_c, 3, 78, 64
5, 13307, Note_off_c, 3, 74, 64
5, 13312, Note_off_c, 3, 78, 64
5, 13357, Note_on_c, 3, 79, 91
5, 13357, Note_on_c, 3, 76, 100
5, 13908, Note_off_c, 3, 76, 64
5, 13922, Note_on_c, 3, 74, 64
5, 13922, Note_on_c, 3, 78, 73
5, 13938, Note_off_c, 3, 79, 64
5, 13988, Note_off_c, 3, 78, 64
5, 13995, Note_off_c, 3, 74, 64
5, 14003, Note_on_c, 3, 73, 82
5, 14003, Note_on_c, 3, 76, 91
5, 14035, Note_off_c, 3, 73, 64
5, 14044, Note_off_c, 3, 76, 64
5, 14490, Note_on_c, 3, 73, 73
5, 14490, Note_on_c, 3, 76, 73
5, 14528, Note_off_c, 3, 73, 64
5, 14536, Note_off_c, 3, 76, 64
5, 14571, Note_on_c, 3, 74, 60
5, 14574, Note_on_c, 3, 78, 56
5, 14617, Note_off_c, 3, 74, 64
5, 14625, Note_off_c, 3, 78, 64
5, 14653, Note_on_c, 3, 79, 82
5, 14653, Note_on_c, 3, 76, 91
5, 14867, Note_off_c, 3, 76, 64
5, 14882, Note_off_c, 3, 79, 64
5, 14896, Note_on_c, 3, 74, 64
5, 14896, Note_on_c, 3, 78, 52
5, 14964, Note_off_c, 3, 78, 64
5, 14965, Note_off_c, 3, 74, 64
5, 14977, Note_on_c, 3, 73, 82
5, 14977, Note_on_c, 3, 76, 82
5, 15017, Note_off_c, 3, 73, 64
5, 15019, Note_off_c, 3, 76, 64
5, 15301, Note_on_c, 3, 76, 100
5, 15301, Note_on_c, 3, 72, 91
5, 15509, Note_off_c, 3, 72, 64
5, 15545, Note_on_c, 3, 74, 64
5, 15545, Note_on_c, 3, 71, 73
5, 15554, Note_off_c, 3, 76, 64
5, 15604, Note_off_c, 3, 74, 64
5, 15617, Note_off_c, 3, 71, 64
5, 15626, Note_on_c, 3, 69, 91
5, 15626, Note_on_c, 3, 72, 91
5, 15669, Note_off_c, 3, 69, 64
5, 15669, Note_off_c, 3, 72, 64
5, 15787, Note_on_c, 3, 76, 91
5, 15787, Note_on_c, 3, 73, 91
5, 15821, Note_off_c, 3, 76, 64
5, 15824, Note_off_c, 3, 73, 64
5, 15869, Note_on_c, 3, 78, 91
5, 15869, Note_on_c, 3, 74, 82
5, 15902, Note_off_c, 3, 74, 64
5, 15905, Note_off_c, 3, 78, 64
5, 15952, Note_on_c, 3, 79, 100
5, 15952, Note_on_c, 3, 75, 91
5, 15985, Note_off_c, 3, 75, 64
5, 15990, Note_on_c, 3, 76, 100
5, 16501, Note_off_c, 3, 76, 64
5, 16518, Note_on_c, 3, 74, 64
5, 16518, Note_on_c, 3, 78, 73
5, 16525, Note_off_c, 3, 79, 64
5, 16588, Note_off_c, 3, 78, 64
5, 16594, Note_off_c, 3, 74, 64
5, 16599, Note_on_c, 3, 73, 91
5, 16599, Note_on_c, 3, 76, 100
5, 16599, Note_on_c, 3, 75, 60
5, 16614, Note_off_c, 3, 75, 64
5, 16631, Note_off_c, 3, 73, 64
5, 16632, Note_off_c, 3, 76, 64
5, 16925, Note_on_c, 3, 55, 91
5, 16984, Note_off_c, 3, 55, 64
5, 17004, Note_on_c, 3, 57, 82
5, 17037, Note_off_c, 3, 57, 64
5, 17085, Note_on_c, 3, 55, 100
5, 17149, Note_off_c, 3, 55, 64
5, 17167, Note_on_c, 3, 57, 73
5, 17180, Note_off_c, 3, 57, 64
5, 17248, Note_on_c, 3, 55, 100
5, 17313, Note_off_c, 3, 55, 64
5, 17329, Note_on_c, 3, 67, 64
5, 17329, Note_on_c, 3, 73, 73
5, 17329, Note_on_c, 3, 57, 91
5, 17352, Note_off_c, 3, 67, 64
5, 17357, Note_off_c, 3, 73, 64
5, 17359, Note_off_c, 3, 57, 64
5, 17410, Note_on_c, 3, 57, 82
5, 17410, Note_on_c, 3, 67, 73
5, 17410, Note_on_c, 3, 73, 82
5, 17437, Note_off_c, 3, 73, 64
5, 17438, Note_off_c, 3, 57, 64
5, 17438, Note_off_c, 3, 67, 64
5, 17491, Note_on_c, 3, 57, 82
5, 17491, Note_on_c, 3, 67, 73
5, 17491, Note_on_c, 3, 73, 82
5, 17518, Note_off_c, 3, 67, 64
5, 17519, Note_off_c, 3, 73, 64
5, 17522, Note_off_c, 3, 57, 64
5, 17897, Note_on_c, 3, 55, 109
5, 17971, Note_off_c, 3, 55, 64
5, 17978, Note_on_c, 3, 67, 60
5, 17978, Note_on_c, 3, 73, 60
5, 17978, Note_on_c, 3, 57, 73
5, 18005, Note_off_c, 3, 67, 64
5, 18010, Note_off_c, 3, 73, 64
5, 18020, Note_off_c, 3, 57, 64
5, 18059, Note_on_c, 3, 67, 60
5, 18059, Note_on_c, 3, 73, 64
5, 18059, Note_on_c, 3, 57, 82
5, 18088, Note_off_c, 3, 73, 64
5, 18091, Note_off_c, 3, 67, 64
5, 18094, Note_off_c, 3, 57, 64
5, 18140, Note_on_c, 3, 57, 73
5, 18140, Note_on_c, 3, 67, 60
5, 18140, Note_on_c, 3, 73, 56
5, 18169, Note_off_c, 3, 67, 64
5, 18174, Note_off_c, 3, 73, 64
5, 18175, Note_off_c, 3, 57, 64
5, 18545, Note_on_c, 3, 55, 109
5, 18617, Note_off_c, 3, 55, 64
5, 18627, Note_on_c, 3, 67, 60
5, 18627, Note_on_c, 3, 73, 64
5, 18627, Note_on_c, 3, 57, 82
5, 18654, Note_off_c, 3, 67, 64
5, 18660, Note_off_c, 3, 73, 64
5, 18664, Note_off_c, 3, 57, 64
5, 18707, Note_on_c, 3, 67, 64
5, 18707, Note_on_c, 3, 57, 82
5, 18707, Note_on_c, 3, 73, 60
5, 18740, Note_off_c, 3, 67, 64
5, 18740, Note_off_c, 3, 57, 64
5, 18740, Note_off_c, 3, 73, 64
5, 18788, Note_on_c, 3, 67, 56
5, 18788, Note_on_c, 3, 57, 73
5, 18788, Note_on_c, 3, 73, 48
5, 18817, Note_off_c, 3, 67, 64
5, 18818, Note_off_c, 3, 73, 64
5, 18819, Note_off_c, 3, 57, 64
5, 19194, Note_on_c, 3, 55, 109
5, 19272, Note_off_c, 3, 55, 64
5, 19276, Note_on_c, 3, 67, 60
5, 19276, Note_on_c, 3, 57, 82
5, 19276, Note_on_c, 3, 73, 60
5, 19306, Note_off_c, 3, 67, 64
5, 19309, Note_off_c, 3, 73, 64
5, 19312, Note_off_c, 3, 57, 64
5, 19356, Note_on_c, 3, 67, 48
5, 19356, Note_on_c, 3, 57, 73
5, 19356, Note_on_c, 3, 73, 56
5, 19382, Note_off_c, 3, 67, 64
5, 19385, Note_off_c, 3, 57, 64
5, 19386, Note_off_c, 3, 73, 64
5, 19439, Note_on_c, 3, 67, 56
5, 19439, Note_on_c, 3, 57, 82
5, 19440, Note_on_c, 3, 73, 56
5, 19466, Note_off_c, 3, 67, 64
5, 19466, Note_off_c, 3, 73, 64
5, 19473, Note_off_c, 3, 57, 64
5, 19845, Note_on_c, 3, 55, 100
5, 19910, Note_off_c, 3, 55, 64
5, 19925, Note_on_c, 3, 67, 60
5, 19925, Note_on_c, 3, 73, 64
5, 19925, Note_on_c, 3, 57, 73
5, 19955, Note_off_c, 3, 73, 64
5, 19957, Note_off_c, 3, 67, 64
5, 19969, Note_off_c, 3, 57, 64
5, 20006, Note_on_c, 3, 67, 56
5, 20006, Note_on_c, 3, 57, 73
5, 20006, Note_on_c, 3, 73, 60
5, 20036, Note_off_c, 3, 67, 64
5, 20038, Note_off_c, 3, 57, 64
5, 20038, Note_off_c, 3, 73, 64
5, 20086, Note_on_c, 3, 67, 73
5, 20086, Note_on_c, 3, 57, 82
5, 20086, Note_on_c, 3, 73, 64
5, 20121, Note_off_c, 3, 67, 64
5, 20122, Note_off_c, 3, 73, 64
5, 20127, Note_off_c, 3, 57, 64
5, 20493, Note_on_c, 3, 55, 100
5, 20560, Note_off_c, 3, 55, 64
5, 20574, Note_on_c, 3, 67, 64
5, 20574, Note_on_c, 3, 73, 64
5, 20574, Note_on_c, 3, 57, 82
5, 20605, Note_off_c, 3, 73, 64
5, 20607, Note_off_c, 3, 67, 64
5, 20615, Note_off_c, 3, 57, 64
5, 20655, Note_on_c, 3, 67, 64
5, 20655, Note_on_c, 3, 57, 82
5, 20655, Note_on_c, 3, 73, 73
5, 20684, Note_off_c, 3, 67, 64
5, 20690, Note_off_c, 3, 57, 64
5, 20691, Note_off_c, 3, 73, 64
5, 20737, Note_on_c, 3, 57, 91
5, 20737, Note_on_c, 3, 67, 64
5, 20737, Note_on_c, 3, 73, 64
5, 20767, Note_off_c, 3, 67, 64
5, 20773, Note_off_c, 3, 57, 64
5, 20773, Note_off_c, 3, 73, 64
5, 21141, Note_on_c, 3, 55, 109
5, 21207, Note_off_c, 3, 55, 64
5, 21223, Note_on_c, 3, 67, 73
5, 21223, Note_on_c, 3, 73, 82
5, 21223, Note_on_c, 3, 57, 82
5, 21256, Note_off_c, 3, 67, 64
5, 21256, Note_off_c, 3, 57, 64
5, 21258, Note_off_c, 3, 73, 64
5, 21304, Note_on_c, 3, 67, 60
5, 21304, Note_on_c, 3, 57, 82
5, 21304, Note_on_c, 3, 73, 64
5, 21329, Note_off_c, 3, 67, 64
5, 21330, Note_off_c, 3, 57, 64
5, 21334, Note_off_c, 3, 73, 64
5, 21385, Note_on_c, 3, 67, 73
5, 21385, Note_on_c, 3, 57, 91
5, 21385, Note_on_c, 3, 73, 91
5, 21412, Note_off_c, 3, 67, 64
5, 21421, Note_off_c, 3, 73, 64
5, 21423, Note_off_c, 3, 57, 64
5, 21793, Note_on_c, 3, 55, 100
5, 21865, Note_off_c, 3, 55, 64
5, 21872, Note_on_c, 3, 73, 80
5, 21872, Note_on_c, 3, 67, 80
5, 21872, Note_on_c, 3, 57, 80
5, 21915, Note_off_c, 3, 67, 64
5, 21915, Note_off_c, 3, 57, 64
5, 21917, Note_off_c, 3, 73, 64
5, 21953, Note_on_c, 3, 73, 80
5, 21953, Note_on_c, 3, 67, 80
5, 21953, Note_on_c, 3, 57, 80
5, 21997, Note_off_c, 3, 67, 64
5, 21998, Note_off_c, 3, 73, 64
5, 21998, Note_off_c, 3, 57, 64
5, 22038, Note_on_c, 3, 73, 80
5, 22038, Note_on_c, 3, 67, 80
5, 22038, Note_on_c, 3, 57, 80
5, 22078, Note_off_c, 3, 73, 64
5, 22078, Note_off_c, 3, 67, 64
5, 22078, Note_off_c, 3, 57, 64
5, 22277, Note_on_c, 3, 73, 52
5, 22277, Note_on_c, 3, 76, 64
5, 22309, Note_off_c, 3, 76, 64
5, 22317, Note_off_c, 3, 73, 64
5, 22358, Note_on_c, 3, 78, 82
5, 22358, Note_on_c, 3, 74, 73
5, 22399, Note_off_c, 3, 78, 64
5, 22402, Note_off_c, 3, 74, 64
5, 22441, Note_on_c, 3, 79, 100
5, 22441, Note_on_c, 3, 75, 91
5, 22482, Note_on_c, 3, 76, 64
5, 22489, Note_off_c, 3, 75, 64
5, 22973, Note_off_c, 3, 79, 64
5, 22983, Note_off_c, 3, 76, 64
5, 23007, Note_on_c, 3, 74, 60
5, 23007, Note_on_c, 3, 78, 48
5, 23076, Note_off_c, 3, 78, 64
5, 23078, Note_off_c, 3, 74, 64
5, 23088, Note_on_c, 3, 76, 91
5, 23088, Note_on_c, 3, 73, 91
5, 23126, Note_off_c, 3, 73, 64
5, 23136, Note_off_c, 3, 76, 64
5, 23574, Note_on_c, 3, 73, 82
5, 23574, Note_on_c, 3, 76, 82
5, 23614, Note_off_c, 3, 73, 64
5, 23620, Note_off_c, 3, 76, 64
5, 23656, Note_on_c, 3, 74, 56
5, 23656, Note_on_c, 3, 78, 60
5, 23687, Note_off_c, 3, 74, 64
5, 23703, Note_off_c, 3, 78, 64
5, 23737, Note_on_c, 3, 76, 91
5, 23737, Note_on_c, 3, 79, 100
5, 23740, Note_on_c, 3, 75, 91
5, 23767, Note_off_c, 3, 75, 64
5, 24258, Note_off_c, 3, 76, 64
5, 24293, Note_off_c, 3, 79, 64
5, 24306, Note_on_c, 3, 74, 64
5, 24309, Note_on_c, 3, 78, 60
5, 24374, Note_off_c, 3, 74, 64
5, 24376, Note_off_c, 3, 78, 64
5, 24384, Note_on_c, 3, 73, 91
5, 24384, Note_on_c, 3, 76, 100
5, 24424, Note_off_c, 3, 73, 64
5, 24427, Note_off_c, 3, 76, 64
5, 24873, Note_on_c, 3, 72, 91
5, 24873, Note_on_c, 3, 69, 100
5, 24906, Note_off_c, 3, 72, 64
5, 24911, Note_off_c, 3, 69, 64
5, 24954, Note_on_c, 3, 74, 82
5, 24954, Note_on_c, 3, 71, 91
5, 24992, Note_off_c, 3, 74, 64
5, 24994, Note_off_c, 3, 71, 64
5, 25038, Note_on_c, 3, 76, 91
5, 25038, Note_on_c, 3, 72, 100
5, 25574, Note_off_c, 3, 72, 64
5, 25601, Note_off_c, 3, 76, 64
5, 25604, Note_on_c, 3, 74, 82
5, 25604, Note_on_c, 3, 71, 64
5, 25670, Note_off_c, 3, 74, 64
5, 25674, Note_off_c, 3, 71, 64
5, 25684, Note_on_c, 3, 69, 100
5, 25684, Note_on_c, 3, 72, 91
5, 25721, Note_off_c, 3, 69, 64
5, 25728, Note_off_c, 3, 72, 64
5, 26170, Note_on_c, 3, 76, 73
5, 26170, Note_on_c, 3, 73, 82
5, 26203, Note_off_c, 3, 73, 64
5, 26207, Note_off_c, 3, 76, 64
5, 26252, Note_on_c, 3, 74, 64
5, 26252, Note_on_c, 3, 78, 64
5, 26285, Note_off_c, 3, 74, 64
5, 26291, Note_off_c, 3, 78, 64
5, 26333, Note_on_c, 3, 79, 91
5, 26333, Note_on_c, 3, 76, 100
5, 26886, Note_off_c, 3, 76, 64
5, 26901, Note_on_c, 3, 74, 64
5, 26901, Note_on_c, 3, 78, 73
5, 26915, Note_off_c, 3, 79, 64
5, 26966, Note_off_c, 3, 78, 64
5, 26972, Note_off_c, 3, 74, 64
5, 26984, Note_on_c, 3, 73, 82
5, 26984, Note_on_c, 3, 76, 91
5, 27013, Note_off_c, 3, 73, 64
5, 27022, Note_off_c, 3, 76, 64
5, 27468, Note_on_c, 3, 73, 73
5, 27468, Note_on_c, 3, 76, 73
5, 27505, Note_off_c, 3, 73, 64
5, 27513, Note_off_c, 3, 76, 64
5, 27550, Note_on_c, 3, 74, 60
5, 27550, Note_on_c, 3, 78, 56
5, 27595, Note_off_c, 3, 74, 64
5, 27604, Note_off_c, 3, 78, 64
5, 27631, Note_on_c, 3, 79, 82
5, 27631, Note_on_c, 3, 76, 91
5, 27846, Note_off_c, 3, 76, 64
5, 27860, Note_off_c, 3, 79, 64
5, 27874, Note_on_c, 3, 74, 64
5, 27874, Note_on_c, 3, 78, 52
5, 27942, Note_off_c, 3, 78, 64
5, 27943, Note_off_c, 3, 74, 64
5, 27955, Note_on_c, 3, 73, 82
5, 27955, Note_on_c, 3, 76, 82
5, 27995, Note_off_c, 3, 73, 64
5, 27997, Note_off_c, 3, 76, 64
5, 28279, Note_on_c, 3, 76, 100
5, 28279, Note_on_c, 3, 72, 91
5, 28487, Note_off_c, 3, 72, 64
5, 28523, Note_on_c, 3, 74, 64
5, 28523, Note_on_c, 3, 71, 73
5, 28532, Note_off_c, 3, 76, 64
5, 28581, Note_off_c, 3, 74, 64
5, 28595, Note_off_c, 3, 71, 64
5, 28604, Note_on_c, 3, 69, 91
5, 28607, Note_on_c, 3, 72, 91
5, 28647, Note_off_c, 3, 69, 64
5, 28647, Note_off_c, 3, 72, 64
5, 28766, Note_on_c, 3, 76, 91
5, 28766, Note_on_c, 3, 73, 91
5, 28799, Note_off_c, 3, 76, 64
5, 28803, Note_off_c, 3, 73, 64
5, 28847, Note_on_c, 3, 78, 91
5, 28847, Note_on_c, 3, 74, 82
5, 28879, Note_off_c, 3, 74, 64
5, 28884, Note_off_c, 3, 78, 64
5, 28930, Note_on_c, 3, 79, 100
5, 28930, Note_on_c, 3, 75, 91
5, 28964, Note_off_c, 3, 75, 64
5, 28970, Note_on_c, 3, 76, 100
5, 29482, Note_off_c, 3, 76, 64
5, 29496, Note_off_c, 3, 79, 64
5, 29496, Note_on_c, 3, 74, 64
5, 29496, Note_on_c, 3, 78, 73
5, 29568, Note_off_c, 3, 78, 64
5, 29571, Note_off_c, 3, 74, 64
5, 29578, Note_on_c, 3, 73, 91
5, 29578, Note_on_c, 3, 76, 100
5, 29578, Note_on_c, 3, 75, 60
5, 29591, Note_off_c, 3, 75, 64
5, 29608, Note_off_c, 3, 73, 64
5, 29612, Note_off_c, 3, 76, 64
5, 29902, Note_on_c, 3, 55, 91
5, 29962, Note_off_c, 3, 55, 64
5, 29983, Note_on_c, 3, 57, 82
5, 30015, Note_off_c, 3, 57, 64
5, 30064, Note_on_c, 3, 55, 100
5, 30128, Note_off_c, 3, 55, 64
5, 30145, Note_on_c, 3, 57, 73
5, 30160, Note_off_c, 3, 57, 64
5, 30227, Note_on_c, 3, 55, 100
5, 30292, Note_off_c, 3, 55, 64
5, 30308, Note_on_c, 3, 67, 64
5, 30308, Note_on_c, 3, 73, 73
5, 30308, Note_on_c, 3, 57, 91
5, 30331, Note_off_c, 3, 67, 64
5, 30334, Note_off_c, 3, 57, 64
5, 30336, Note_off_c, 3, 73, 64
5, 30389, Note_on_c, 3, 57, 82
5, 30389, Note_on_c, 3, 67, 73
5, 30389, Note_on_c, 3, 73, 82
5, 30415, Note_off_c, 3, 67, 64
5, 30415, Note_off_c, 3, 73, 64
5, 30417, Note_off_c, 3, 57, 64
5, 30470, Note_on_c, 3, 57, 82
5, 30470, Note_on_c, 3, 67, 73
5, 30470, Note_on_c, 3, 73, 82
5, 30497, Note_off_c, 3, 67, 64
5, 30498, Note_off_c, 3, 73, 64
5, 30501, Note_off_c, 3, 57, 64
5, 30876, Note_on_c, 3, 55, 109
5, 30950, Note_off_c, 3, 55, 64
5, 30957, Note_on_c, 3, 67, 60
5, 30957, Note_on_c, 3, 73, 60
5, 30957, Note_on_c, 3, 57, 73
5, 30984, Note_off_c, 3, 67, 64
5, 30988, Note_off_c, 3, 73, 64
5, 30999, Note_off_c, 3, 57, 64
5, 31038, Note_on_c, 3, 67, 60
5, 31038, Note_on_c, 3, 73, 64
5, 31038, Note_on_c, 3, 57, 82
5, 31068, Note_off_c, 3, 73, 64
5, 31071, Note_off_c, 3, 67, 64
5, 31072, Note_off_c, 3, 57, 64
5, 31118, Note_on_c, 3, 57, 73
5, 31118, Note_on_c, 3, 67, 60
5, 31118, Note_on_c, 3, 73, 56
5, 31147, Note_off_c, 3, 67, 64
5, 31152, Note_off_c, 3, 73, 64
5, 31154, Note_off_c, 3, 57, 64
5, 31524, Note_on_c, 3, 55, 109
5, 31598, Note_off_c, 3, 55, 64
5, 31605, Note_on_c, 3, 67, 60
5, 31605, Note_on_c, 3, 73, 64
5, 31605, Note_on_c, 3, 57, 82
5, 31635, Note_off_c, 3, 67, 64
5, 31639, Note_off_c, 3, 73, 64
5, 31644, Note_off_c, 3, 57, 64
5, 31686, Note_on_c, 3, 67, 64
5, 31686, Note_on_c, 3, 57, 82
5, 31686, Note_on_c, 3, 73, 60
5, 31719, Note_off_c, 3, 73, 64
5, 31720, Note_off_c, 3, 57, 64
5, 31722, Note_off_c, 3, 67, 64
5, 31768, Note_on_c, 3, 67, 56
5, 31768, Note_on_c, 3, 57, 73
5, 31768, Note_on_c, 3, 73, 48
5, 31796, Note_off_c, 3, 67, 64
5, 31797, Note_off_c, 3, 73, 64
5, 31799, Note_off_c, 3, 57, 64
5, 32174, Note_on_c, 3, 55, 109
5, 32251, Note_off_c, 3, 55, 64
5, 32255, Note_on_c, 3, 67, 60
5, 32255, Note_on_c, 3, 57, 82
5, 32255, Note_on_c, 3, 73, 60
5, 32279, Note_off_c, 3, 67, 64
5, 32284, Note_off_c, 3, 73, 64
5, 32287, Note_off_c, 3, 57, 64
5, 32332, Note_on_c, 3, 67, 48
5, 32332, Note_on_c, 3, 57, 73
5, 32332, Note_on_c, 3, 73, 56
5, 32357, Note_off_c, 3, 67, 64
5, 32362, Note_off_c, 3, 57, 64
5, 32362, Note_off_c, 3, 73, 64
5, 32413, Note_on_c, 3, 67, 56
5, 32413, Note_on_c, 3, 57, 82
5, 32413, Note_on_c, 3, 73, 56
5, 32441, Note_off_c, 3, 67, 64
5, 32441, Note_off_c, 3, 73, 64
5, 32448, Note_off_c, 3, 57, 64
5, 32819, Note_on_c, 3, 55, 100
5, 32886, Note_off_c, 3, 55, 64
5, 32900, Note_on_c, 3, 67, 60
5, 32900, Note_on_c, 3, 73, 64
5, 32902, Note_on_c, 3, 57, 73
5, 32931, Note_off_c, 3, 73, 64
5, 32933, Note_off_c, 3, 67, 64
5, 32946, Note_off_c, 3, 57, 64
5, 32984, Note_on_c, 3, 67, 56
5, 32984, Note_on_c, 3, 57, 73
5, 32985, Note_on_c, 3, 73, 60
5, 33011, Note_off_c, 3, 67, 64
5, 33013, Note_off_c, 3, 57, 64
5, 33014, Note_off_c, 3, 73, 64
5, 33065, Note_on_c, 3, 67, 73
5, 33065, Note_on_c, 3, 57, 82
5, 33065, Note_on_c, 3, 73, 64
5, 33099, Note_off_c, 3, 67, 64
5, 33101, Note_off_c, 3, 73, 64
5, 33106, Note_off_c, 3, 57, 64
5, 33472, Note_on_c, 3, 55, 100
5, 33539, Note_off_c, 3, 55, 64
5, 33557, Note_on_c, 3, 67, 64
5, 33558, Note_on_c, 3, 73, 64
5, 33558, Note_on_c, 3, 57, 82
5, 33584, Note_off_c, 3, 67, 64
5, 33584, Note_off_c, 3, 73, 64
5, 33594, Note_off_c, 3, 57, 64
5, 33634, Note_on_c, 3, 67, 64
5, 33634, Note_on_c, 3, 57, 82
5, 33634, Note_on_c, 3, 73, 73
5, 33664, Note_off_c, 3, 67, 64
5, 33669, Note_off_c, 3, 57, 64
5, 33670, Note_off_c, 3, 73, 64
5, 33715, Note_on_c, 3, 57, 91
5, 33715, Note_on_c, 3, 67, 64
5, 33715, Note_on_c, 3, 73, 64
5, 33746, Note_off_c, 3, 67, 64
5, 33752, Note_off_c, 3, 57, 64
5, 33752, Note_off_c, 3, 73, 64
5, 34121, Note_on_c, 3, 55, 109
5, 34187, Note_off_c, 3, 55, 64
5, 34202, Note_on_c, 3, 67, 73
5, 34202, Note_on_c, 3, 73, 82
5, 34202, Note_on_c, 3, 57, 82
5, 34234, Note_off_c, 3, 67, 64
5, 34235, Note_off_c, 3, 57, 64
5, 34238, Note_off_c, 3, 73, 64
5, 34283, Note_on_c, 3, 67, 60
5, 34283, Note_on_c, 3, 57, 82
5, 34283, Note_on_c, 3, 73, 64
5, 34309, Note_off_c, 3, 67, 64
5, 34309, Note_off_c, 3, 57, 64
5, 34313, Note_off_c, 3, 73, 64
5, 34365, Note_on_c, 3, 67, 73
5, 34365, Note_on_c, 3, 57, 91
5, 34365, Note_on_c, 3, 73, 91
5, 34390, Note_off_c, 3, 67, 64
5, 34400, Note_off_c, 3, 73, 64
5, 34402, Note_off_c, 3, 57, 64
5, 34770, Note_on_c, 3, 55, 100
5, 34842, Note_off_c, 3, 55, 64
5, 34851, Note_on_c, 3, 73, 80
5, 34851, Note_on_c, 3, 67, 80
5, 34851, Note_on_c, 3, 57, 80
5, 34892, Note_off_c, 3, 57, 64
5, 34894, Note_off_c, 3, 73, 64
5, 34894, Note_off_c, 3, 67, 64
5, 34932, Note_on_c, 3, 73, 80
5, 34932, Note_on_c, 3, 67, 80
5, 34932, Note_on_c, 3, 57, 80
5, 34974, Note_off_c, 3, 67, 64
5, 34976, Note_off_c, 3, 73, 64
5, 34976, Note_off_c, 3, 57, 64
5, 35013, Note_on_c, 3, 73, 80
5, 35013, Note_on_c, 3, 67, 80
5, 35013, Note_on_c, 3, 57, 80
5, 35055, Note_off_c, 3, 73, 64
5, 35055, Note_off_c, 3, 67, 64
5, 35055, Note_off_c, 3, 57, 64
5, 35256, Note_on_c, 3, 73, 52
5, 35256, Note_on_c, 3, 76, 64
5, 35288, Note_off_c, 3, 76, 64
5, 35296, Note_off_c, 3, 73, 64
5, 35337, Note_on_c, 3, 78, 82
5, 35337, Note_on_c, 3, 74, 73
5, 35378, Note_off_c, 3, 78, 64
5, 35381, Note_off_c, 3, 74, 64
5, 35419, Note_on_c, 3, 79, 100
5, 35419, Note_on_c, 3, 75, 91
5, 35461, Note_on_c, 3, 76, 64
5, 35468, Note_off_c, 3, 75, 64
5, 35952, Note_off_c, 3, 79, 64
5, 35965, Note_off_c, 3, 76, 64
5, 35986, Note_on_c, 3, 74, 60
5, 35986, Note_on_c, 3, 78, 48
5, 36055, Note_off_c, 3, 78, 64
5, 36058, Note_off_c, 3, 74, 64
5, 36068, Note_on_c, 3, 76, 91
5, 36068, Note_on_c, 3, 73, 91
5, 36107, Note_off_c, 3, 73, 64
5, 36116, Note_off_c, 3, 76, 64
5, 36554, Note_on_c, 3, 73, 82
5, 36554, Note_on_c, 3, 76, 82
5, 36593, Note_off_c, 3, 73, 64
5, 36600, Note_off_c, 3, 76, 64
5, 36635, Note_on_c, 3, 74, 56
5, 36635, Note_on_c, 3, 78, 60
5, 36667, Note_off_c, 3, 74, 64
5, 36683, Note_off_c, 3, 78, 64
5, 36717, Note_on_c, 3, 76, 91
5, 36717, Note_on_c, 3, 79, 100
5, 36720, Note_on_c, 3, 75, 91
5, 36748, Note_off_c, 3, 75, 64
5, 37239, Note_off_c, 3, 76, 64
5, 37270, Note_off_c, 3, 79, 64
5, 37285, Note_on_c, 3, 74, 64
5, 37285, Note_on_c, 3, 78, 60
5, 37352, Note_off_c, 3, 74, 64
5, 37354, Note_off_c, 3, 78, 64
5, 37365, Note_on_c, 3, 73, 91
5, 37365, Note_on_c, 3, 76, 100
5, 37405, Note_off_c, 3, 73, 64
5, 37409, Note_off_c, 3, 76, 64
5, 37852, Note_on_c, 3, 72, 91
5, 37852, Note_on_c, 3, 69, 100
5, 37886, Note_off_c, 3, 72, 64
5, 37889, Note_off_c, 3, 69, 64
5, 37933, Note_on_c, 3, 74, 82
5, 37933, Note_on_c, 3, 71, 91
5, 37970, Note_off_c, 3, 74, 64
5, 37973, Note_off_c, 3, 71, 64
5, 38015, Note_on_c, 3, 76, 91
5, 38015, Note_on_c, 3, 72, 100
5, 38554, Note_off_c, 3, 72, 64
5, 38580, Note_off_c, 3, 76, 64
5, 38582, Note_on_c, 3, 74, 82
5, 38582, Note_on_c, 3, 71, 64
5, 38650, Note_off_c, 3, 74, 64
5, 38655, Note_off_c, 3, 71, 64
5, 38664, Note_on_c, 3, 69, 100
5, 38664, Note_on_c, 3, 72, 91
5, 38700, Note_off_c, 3, 69, 64
5, 38708, Note_off_c, 3, 72, 64
5, 39150, Note_on_c, 3, 76, 73
5, 39150, Note_on_c, 3, 73, 82
5, 39184, Note_off_c, 3, 73, 64
5, 39187, Note_off_c, 3, 76, 64
5, 39232, Note_on_c, 3, 74, 64
5, 39232, Note_on_c, 3, 78, 64
5, 39263, Note_off_c, 3, 74, 64
5, 39270, Note_off_c, 3, 78, 64
5, 39315, Note_on_c, 3, 79, 91
5, 39315, Note_on_c, 3, 76, 100
5, 39865, Note_off_c, 3, 76, 64
5, 39880, Note_on_c, 3, 74, 64
5, 39880, Note_on_c, 3, 78, 73
5, 39896, Note_off_c, 3, 79, 64
5, 39945, Note_off_c, 3, 78, 64
5, 39952, Note_off_c, 3, 74, 64
5, 39962, Note_on_c, 3, 73, 82
5, 39962, Note_on_c, 3, 76, 91
5, 39993, Note_off_c, 3, 73, 64
5, 39999, Note_off_c, 3, 76, 64
5, 40450, Note_on_c, 3, 73, 73
5, 40450, Note_on_c, 3, 76, 73
5, 40484, Note_off_c, 3, 73, 64
5, 40493, Note_off_c, 3, 76, 64
5, 40528, Note_on_c, 3, 74, 60
5, 40528, Note_on_c, 3, 78, 56
5, 40574, Note_off_c, 3, 74, 64
5, 40582, Note_off_c, 3, 78, 64
5, 40610, Note_on_c, 3, 79, 82
5, 40610, Note_on_c, 3, 76, 91
5, 40826, Note_off_c, 3, 76, 64
5, 40839, Note_off_c, 3, 79, 64
5, 40854, Note_on_c, 3, 74, 64
5, 40854, Note_on_c, 3, 78, 52
5, 40921, Note_off_c, 3, 78, 64
5, 40922, Note_off_c, 3, 74, 64
5, 40935, Note_on_c, 3, 73, 82
5, 40935, Note_on_c, 3, 76, 82
5, 40975, Note_off_c, 3, 73, 64
5, 40976, Note_off_c, 3, 76, 64
5, 41260, Note_on_c, 3, 76, 100
5, 41260, Note_on_c, 3, 72, 91
5, 41467, Note_off_c, 3, 72, 64
5, 41505, Note_on_c, 3, 74, 64
5, 41505, Note_on_c, 3, 71, 73
5, 41511, Note_off_c, 3, 76, 64
5, 41562, Note_off_c, 3, 74, 64
5, 41575, Note_off_c, 3, 71, 64
5, 41584, Note_on_c, 3, 69, 91
5, 41584, Note_on_c, 3, 72, 91
5, 41627, Note_off_c, 3, 69, 64
5, 41628, Note_off_c, 3, 72, 64
5, 41746, Note_on_c, 3, 76, 91
5, 41746, Note_on_c, 3, 73, 91
5, 41780, Note_off_c, 3, 76, 64
5, 41783, Note_off_c, 3, 73, 64
5, 41827, Note_on_c, 3, 78, 91
5, 41827, Note_on_c, 3, 74, 82
5, 41859, Note_off_c, 3, 74, 64
5, 41864, Note_off_c, 3, 78, 64
5, 41909, Note_on_c, 3, 79, 100
5, 41909, Note_on_c, 3, 75, 91
5, 41944, Note_off_c, 3, 75, 64
5, 41949, Note_on_c, 3, 76, 100
5, 42461, Note_off_c, 3, 76, 64
5, 42476, Note_off_c, 3, 79, 64
5, 42476, Note_on_c, 3, 74, 64
5, 42476, Note_on_c, 3, 78, 73
5, 42547, Note_off_c, 3, 78, 64
5, 42551, Note_off_c, 3, 74, 64
5, 42558, Note_on_c, 3, 73, 91
5, 42558, Note_on_c, 3, 76, 100
5, 42558, Note_on_c, 3, 75, 60
5, 42571, Note_off_c, 3, 75, 64
5, 42588, Note_off_c, 3, 73, 64
5, 42591, Note_off_c, 3, 76, 64
5, 42884, Note_on_c, 3, 55, 91
5, 42942, Note_off_c, 3, 55, 64
5, 42964, Note_on_c, 3, 57, 82
5, 42995, Note_off_c, 3, 57, 64
5, 43044, Note_on_c, 3, 55, 100
5, 43107, Note_off_c, 3, 55, 64
5, 43126, Note_on_c, 3, 57, 73
5, 43138, Note_off_c, 3, 57, 64
5, 43206, Note_on_c, 3, 55, 100
5, 43271, Note_off_c, 3, 55, 64
5, 43287, Note_on_c, 3, 67, 64
5, 43287, Note_on_c, 3, 73, 73
5, 43287, Note_on_c, 3, 57, 91
5, 43310, Note_off_c, 3, 67, 64
5, 43313, Note_off_c, 3, 73, 64
5, 43313, Note_off_c, 3, 57, 64
5, 43371, Note_on_c, 3, 57, 82
5, 43372, Note_on_c, 3, 67, 73
5, 43372, Note_on_c, 3, 73, 82
5, 43396, Note_off_c, 3, 73, 64
5, 43397, Note_off_c, 3, 57, 64
5, 43397, Note_off_c, 3, 67, 64
5, 43449, Note_on_c, 3, 57, 82
5, 43449, Note_on_c, 3, 67, 73
5, 43452, Note_on_c, 3, 73, 82
5, 43476, Note_off_c, 3, 67, 64
5, 43478, Note_off_c, 3, 73, 64
5, 43481, Note_off_c, 3, 57, 64
5, 43856, Note_on_c, 3, 55, 109
5, 43930, Note_off_c, 3, 55, 64
5, 43939, Note_on_c, 3, 67, 60
5, 43939, Note_on_c, 3, 73, 60
5, 43939, Note_on_c, 3, 57, 73
5, 43964, Note_off_c, 3, 67, 64
5, 43968, Note_off_c, 3, 73, 64
5, 43978, Note_off_c, 3, 57, 64
5, 44018, Note_on_c, 3, 67, 60
5, 44018, Note_on_c, 3, 73, 64
5, 44018, Note_on_c, 3, 57, 82
5, 44046, Note_off_c, 3, 73, 64
5, 44050, Note_off_c, 3, 67, 64
5, 44053, Note_off_c, 3, 57, 64
5, 44099, Note_on_c, 3, 57, 73
5, 44099, Note_on_c, 3, 67, 60
5, 44099, Note_on_c, 3, 73, 56
5, 44129, Note_off_c, 3, 67, 64
5, 44132, Note_off_c, 3, 73, 64
5, 44134, Note_off_c, 3, 57, 64
5, 44505, Note_on_c, 3, 55, 109
5, 44576, Note_off_c, 3, 55, 64
5, 44585, Note_on_c, 3, 67, 60
5, 44585, Note_on_c, 3, 73, 64
5, 44585, Note_on_c, 3, 57, 82
5, 44616, Note_off_c, 3, 67, 64
5, 44619, Note_off_c, 3, 73, 64
5, 44624, Note_off_c, 3, 57, 64
5, 44667, Note_on_c, 3, 67, 64
5, 44667, Note_on_c, 3, 57, 82
5, 44667, Note_on_c, 3, 73, 60
5, 44698, Note_off_c, 3, 73, 64
5, 44700, Note_off_c, 3, 57, 64
5, 44702, Note_off_c, 3, 67, 64
5, 44747, Note_on_c, 3, 67, 56
5, 44747, Note_on_c, 3, 57, 73
5, 44750, Note_on_c, 3, 73, 48
5, 44776, Note_off_c, 3, 67, 64
5, 44778, Note_off_c, 3, 73, 64
5, 44780, Note_off_c, 3, 57, 64
5, 45154, Note_on_c, 3, 55, 109
5, 45231, Note_off_c, 3, 55, 64
5, 45235, Note_on_c, 3, 67, 60
5, 45235, Note_on_c, 3, 57, 82
5, 45235, Note_on_c, 3, 73, 60
5, 45265, Note_off_c, 3, 67, 64
5, 45268, Note_off_c, 3, 73, 64
5, 45273, Note_off_c, 3, 57, 64
5, 45316, Note_on_c, 3, 67, 48
5, 45316, Note_on_c, 3, 57, 73
5, 45316, Note_on_c, 3, 73, 56
5, 45341, Note_off_c, 3, 67, 64
5, 45346, Note_off_c, 3, 57, 64
5, 45348, Note_off_c, 3, 73, 64
5, 45397, Note_on_c, 3, 67, 56
5, 45397, Note_on_c, 3, 57, 82
5, 45397, Note_on_c, 3, 73, 56
5, 45425, Note_off_c, 3, 67, 64
5, 45426, Note_off_c, 3, 73, 64
5, 45432, Note_off_c, 3, 57, 64
5, 45802, Note_on_c, 3, 55, 100
5, 45870, Note_off_c, 3, 55, 64
5, 45886, Note_on_c, 3, 67, 60
5, 45886, Note_on_c, 3, 73, 64
5, 45886, Note_on_c, 3, 57, 73
5, 45915, Note_off_c, 3, 73, 64
5, 45916, Note_off_c, 3, 67, 64
5, 45929, Note_off_c, 3, 57, 64
5, 45964, Note_on_c, 3, 67, 56
5, 45964, Note_on_c, 3, 57, 73
5, 45964, Note_on_c, 3, 73, 60
5, 45995, Note_off_c, 3, 67, 64
5, 45995, Note_off_c, 3, 57, 64
5, 45995, Note_off_c, 3, 73, 64
5, 46045, Note_on_c, 3, 67, 73
5, 46045, Note_on_c, 3, 57, 82
5, 46045, Note_on_c, 3, 73, 64
5, 46081, Note_off_c, 3, 73, 64
5, 46081, Note_off_c, 3, 67, 64
5, 46086, Note_off_c, 3, 57, 64
5, 46452, Note_on_c, 3, 55, 100
5, 46519, Note_off_c, 3, 55, 64
5, 46533, Note_on_c, 3, 67, 64
5, 46533, Note_on_c, 3, 73, 64
5, 46533, Note_on_c, 3, 57, 82
5, 46564, Note_off_c, 3, 67, 64
5, 46564, Note_off_c, 3, 73, 64
5, 46574, Note_off_c, 3, 57, 64
5, 46614, Note_on_c, 3, 67, 64
5, 46614, Note_on_c, 3, 57, 82
5, 46614, Note_on_c, 3, 73, 73
5, 46644, Note_off_c, 3, 67, 64
5, 46649, Note_off_c, 3, 57, 64
5, 46650, Note_off_c, 3, 73, 64
5, 46695, Note_on_c, 3, 57, 91
5, 46695, Note_on_c, 3, 67, 64
5, 46695, Note_on_c, 3, 73, 64
5, 46727, Note_off_c, 3, 67, 64
5, 46732, Note_off_c, 3, 73, 64
5, 46733, Note_off_c, 3, 57, 64
5, 47099, Note_on_c, 3, 55, 109
5, 47166, Note_off_c, 3, 55, 64
5, 47181, Note_on_c, 3, 67, 73
5, 47181, Note_on_c, 3, 73, 82
5, 47181, Note_on_c, 3, 57, 82
5, 47213, Note_off_c, 3, 67, 64
5, 47214, Note_off_c, 3, 57, 64
5, 47216, Note_off_c, 3, 73, 64
5, 47263, Note_on_c, 3, 67, 60
5, 47263, Note_on_c, 3, 57, 82
5, 47263, Note_on_c, 3, 73, 64
5, 47287, Note_off_c, 3, 67, 64
5, 47289, Note_off_c, 3, 57, 64
5, 47293, Note_off_c, 3, 73, 64
5, 47345, Note_on_c, 3, 67, 73
5, 47345, Note_on_c, 3, 57, 91
5, 47345, Note_on_c, 3, 73, 91
5, 47369, Note_off_c, 3, 67, 64
5, 47380, Note_off_c, 3, 73, 64
5, 47382, Note_off_c, 3, 57, 64
5, 47750, Note_on_c, 3, 55, 100
5, 47822, Note_off_c, 3, 55, 64
5, 47831, Note_on_c, 3, 73, 80
5, 47831, Note_on_c, 3, 67, 80
5, 47831, Note_on_c, 3, 57, 80
5, 47873, Note_off_c, 3, 57, 64
5, 47875, Note_off_c, 3, 73, 64
5, 47875, Note_off_c, 3, 67, 64
5, 47912, Note_on_c, 3, 73, 80
5, 47912, Note_on_c, 3, 67, 80
5, 47912, Note_on_c, 3, 57, 80
5, 47953, Note_off_c, 3, 73, 64
5, 47953, Note_off_c, 3, 67, 64
5, 47953, Note_off_c, 3, 57, 64
5, 47994, Note_on_c, 3, 73, 80
5, 47994, Note_on_c, 3, 67, 80
5, 47995, Note_on_c, 3, 57, 80
5, 48035, Note_off_c, 3, 73, 64
5, 48035, Note_off_c, 3, 67, 64
5, 48035, Note_off_c, 3, 57, 64
5, 48236, Note_on_c, 3, 73, 52
5, 48236, Note_on_c, 3, 76, 64
5, 48270, Note_off_c, 3, 76, 64
5, 48276, Note_off_c, 3, 73, 64
5, 48317, Note_on_c, 3, 78, 82
5, 48317, Note_on_c, 3, 74, 73
5, 48358, Note_off_c, 3, 78, 64
5, 48362, Note_off_c, 3, 74, 64
5, 48398, Note_on_c, 3, 79, 100
5, 48398, Note_on_c, 3, 75, 91
5, 48439, Note_on_c, 3, 76, 64
5, 48448, Note_off_c, 3, 75, 64
5, 48932, Note_off_c, 3, 79, 64
5, 48942, Note_off_c, 3, 76, 64
5, 48965, Note_on_c, 3, 74, 60
5, 48965, Note_on_c, 3, 78, 48
5, 49035, Note_off_c, 3, 78, 64
5, 49036, Note_off_c, 3, 74, 64
5, 49049, Note_on_c, 3, 76, 91
5, 49049, Note_on_c, 3, 73, 91
5, 49085, Note_off_c, 3, 73, 64
5, 49095, Note_off_c, 3, 76, 64
5, 49534, Note_on_c, 3, 73, 82
5, 49534, Note_on_c, 3, 76, 82
5, 49572, Note_off_c, 3, 73, 64
5, 49579, Note_off_c, 3, 76, 64
5, 49617, Note_on_c, 3, 74, 56
5, 49617, Note_on_c, 3, 78, 60
5, 49647, Note_off_c, 3, 74, 64
5, 49662, Note_off_c, 3, 78, 64
5, 49696, Note_on_c, 3, 76, 91
5, 49696, Note_on_c, 3, 79, 100
5, 49699, Note_on_c, 3, 75, 91
5, 49726, Note_off_c, 3, 75, 64
5, 50218, Note_off_c, 3, 76, 64
5, 50252, Note_off_c, 3, 79, 64
5, 50263, Note_on_c, 3, 74, 64
5, 50263, Note_on_c, 3, 78, 60
5, 50333, Note_off_c, 3, 74, 64
5, 50335, Note_off_c, 3, 78, 64
5, 50345, Note_on_c, 3, 73, 91
5, 50345, Note_on_c, 3, 76, 100
5, 50385, Note_off_c, 3, 73, 64
5, 50389, Note_off_c, 3, 76, 64
5, 50832, Note_on_c, 3, 72, 91
5, 50832, Note_on_c, 3, 69, 100
5, 50866, Note_off_c, 3, 72, 64
5, 50869, Note_off_c, 3, 69, 64
5, 50913, Note_on_c, 3, 74, 82
5, 50913, Note_on_c, 3, 71, 91
5, 50950, Note_off_c, 3, 74, 64
5, 50952, Note_off_c, 3, 71, 64
5, 50995, Note_on_c, 3, 76, 91
5, 50995, Note_on_c, 3, 72, 100
5, 51532, Note_off_c, 3, 72, 64
5, 51560, Note_off_c, 3, 76, 64
5, 51561, Note_on_c, 3, 74, 82
5, 51561, Note_on_c, 3, 71, 64
5, 51630, Note_off_c, 3, 74, 64
5, 51633, Note_off_c, 3, 71, 64
5, 51643, Note_on_c, 3, 69, 100
5, 51643, Note_on_c, 3, 72, 91
5, 51680, Note_off_c, 3, 69, 64
5, 51687, Note_off_c, 3, 72, 64
5, 52130, Note_on_c, 3, 76, 73
5, 52130, Note_on_c, 3, 73, 82
5, 52163, Note_off_c, 3, 73, 64
5, 52167, Note_off_c, 3, 76, 64
5, 52210, Note_on_c, 3, 74, 64
5, 52210, Note_on_c, 3, 78, 64
5, 52243, Note_off_c, 3, 74, 64
5, 52250, Note_off_c, 3, 78, 64
5, 52294, Note_on_c, 3, 79, 91
5, 52294, Note_on_c, 3, 76, 100
5, 52845, Note_off_c, 3, 76, 64
5, 52859, Note_on_c, 3, 74, 64
5, 52859, Note_on_c, 3, 78, 73
5, 52874, Note_off_c, 3, 79, 64
5, 52925, Note_off_c, 3, 78, 64
5, 52932, Note_off_c, 3, 74, 64
5, 52941, Note_on_c, 3, 73, 82
5, 52941, Note_on_c, 3, 76, 91
5, 52972, Note_off_c, 3, 73, 64
5, 52980, Note_off_c, 3, 76, 64
5, 53428, Note_on_c, 3, 73, 73
5, 53428, Note_on_c, 3, 76, 73
5, 53465, Note_off_c, 3, 73, 64
5, 53473, Note_off_c, 3, 76, 64
5, 53508, Note_on_c, 3, 74, 60
5, 53508, Note_on_c, 3, 78, 56
5, 53553, Note_off_c, 3, 74, 64
5, 53561, Note_off_c, 3, 78, 64
5, 53594, Note_on_c, 3, 79, 82
5, 53595, Note_on_c, 3, 76, 91
5, 53804, Note_off_c, 3, 76, 64
5, 53819, Note_off_c, 3, 79, 64
5, 53833, Note_on_c, 3, 74, 64
5, 53833, Note_on_c, 3, 78, 52
5, 53900, Note_off_c, 3, 78, 64
5, 53902, Note_off_c, 3, 74, 64
5, 53914, Note_on_c, 3, 73, 82
5, 53914, Note_on_c, 3, 76, 82
5, 53955, Note_off_c, 3, 73, 64
5, 53956, Note_off_c, 3, 76, 64
5, 54239, Note_on_c, 3, 76, 100
5, 54239, Note_on_c, 3, 72, 91
5, 54447, Note_off_c, 3, 72, 64
5, 54483, Note_on_c, 3, 74, 64
5, 54483, Note_on_c, 3, 71, 73
5, 54492, Note_off_c, 3, 76, 64
5, 54541, Note_off_c, 3, 74, 64
5, 54554, Note_off_c, 3, 71, 64
5, 54567, Note_on_c, 3, 69, 91
5, 54567, Note_on_c, 3, 72, 91
5, 54607, Note_off_c, 3, 69, 64
5, 54607, Note_off_c, 3, 72, 64
5, 54725, Note_on_c, 3, 76, 91
5, 54725, Note_on_c, 3, 73, 91
5, 54760, Note_off_c, 3, 76, 64
5, 54763, Note_off_c, 3, 73, 64
5, 54807, Note_on_c, 3, 78, 91
5, 54807, Note_on_c, 3, 74, 82
5, 54840, Note_off_c, 3, 74, 64
5, 54844, Note_off_c, 3, 78, 64
5, 54889, Note_on_c, 3, 79, 100
5, 54889, Note_on_c, 3, 75, 91
5, 54923, Note_off_c, 3, 75, 64
5, 54929, Note_on_c, 3, 76, 100
5, 55440, Note_off_c, 3, 76, 64
5, 55455, Note_off_c, 3, 79, 64
5, 55455, Note_on_c, 3, 74, 64
5, 55455, Note_on_c, 3, 78, 73
5, 55527, Note_off_c, 3, 78, 64
5, 55531, Note_off_c, 3, 74, 64
5, 55538, Note_on_c, 3, 73, 91
5, 55538, Note_on_c, 3, 76, 100
5, 55538, Note_on_c, 3, 75, 60
5, 55550, Note_off_c, 3, 75, 64
5, 55568, Note_off_c, 3, 73, 64
5, 55572, Note_off_c, 3, 76, 64
5, 55862, Note_on_c, 3, 55, 91
5, 55922, Note_off_c, 3, 55, 64
5, 55942, Note_on_c, 3, 57, 82
5, 55975, Note_off_c, 3, 57, 64
5, 56024, Note_on_c, 3, 55, 100
5, 56088, Note_off_c, 3, 55, 64
5, 56104, Note_on_c, 3, 57, 73
5, 56118, Note_off_c, 3, 57, 64
5, 56186, Note_on_c, 3, 55, 100
5, 56252, Note_off_c, 3, 55, 64
5, 56267, Note_on_c, 3, 67, 64
5, 56267, Note_on_c, 3, 73, 73
5, 56267, Note_on_c, 3, 57, 91
5, 56290, Note_off_c, 3, 67, 64
5, 56294, Note_off_c, 3, 57, 64
5, 56296, Note_off_c, 3, 73, 64
5, 56349, Note_on_c, 3, 57, 82
5, 56349, Note_on_c, 3, 67, 73
5, 56349, Note_on_c, 3, 73, 82
5, 56375, Note_off_c, 3, 73, 64
5, 56377, Note_off_c, 3, 57, 64
5, 56377, Note_off_c, 3, 67, 64
5, 56430, Note_on_c, 3, 57, 82
5, 56430, Note_on_c, 3, 67, 73
5, 56430, Note_on_c, 3, 73, 82
5, 56456, Note_off_c, 3, 67, 64
5, 56458, Note_off_c, 3, 73, 64
5, 56461, Note_off_c, 3, 57, 64
5, 56835, Note_on_c, 3, 55, 109
5, 56909, Note_off_c, 3, 55, 64
5, 56915, Note_on_c, 3, 67, 60
5, 56915, Note_on_c, 3, 73, 60
5, 56915, Note_on_c, 3, 57, 73
5, 56942, Note_off_c, 3, 67, 64
5, 56948, Note_off_c, 3, 73, 64
5, 56958, Note_off_c, 3, 57, 64
5, 56997, Note_on_c, 3, 67, 60
5, 56997, Note_on_c, 3, 73, 64
5, 56997, Note_on_c, 3, 57, 82
5, 57027, Note_off_c, 3, 73, 64
5, 57030, Note_off_c, 3, 67, 64
5, 57032, Note_off_c, 3, 57, 64
5, 57078, Note_on_c, 3, 57, 73
5, 57078, Note_on_c, 3, 67, 60
5, 57078, Note_on_c, 3, 73, 56
5, 57108, Note_off_c, 3, 67, 64
5, 57111, Note_off_c, 3, 73, 64
5, 57113, Note_off_c, 3, 57, 64
5, 57483, Note_on_c, 3, 55, 109
5, 57555, Note_off_c, 3, 55, 64
5, 57564, Note_on_c, 3, 67, 60
5, 57564, Note_on_c, 3, 73, 64
5, 57564, Note_on_c, 3, 57, 82
5, 57593, Note_off_c, 3, 67, 64
5, 57598, Note_off_c, 3, 73, 64
5, 57603, Note_off_c, 3, 57, 64
5, 57645, Note_on_c, 3, 67, 64
5, 57645, Note_on_c, 3, 57, 82
5, 57645, Note_on_c, 3, 73, 60
5, 57677, Note_off_c, 3, 73, 64
5, 57680, Note_off_c, 3, 67, 64
5, 57680, Note_off_c, 3, 57, 64
5, 57727, Note_on_c, 3, 67, 56
5, 57727, Note_on_c, 3, 57, 73
5, 57727, Note_on_c, 3, 73, 48
5, 57755, Note_off_c, 3, 67, 64
5, 57756, Note_off_c, 3, 73, 64
5, 57758, Note_off_c, 3, 57, 64
5, 58132, Note_on_c, 3, 55, 109
5, 58209, Note_off_c, 3, 55, 64
5, 58215, Note_on_c, 3, 67, 60
5, 58215, Note_on_c, 3, 57, 82
5, 58215, Note_on_c, 3, 73, 60
5, 58242, Note_off_c, 3, 67, 64
5, 58246, Note_off_c, 3, 73, 64
5, 58251, Note_off_c, 3, 57, 64
5, 58296, Note_on_c, 3, 67, 48
5, 58296, Note_on_c, 3, 57, 73
5, 58296, Note_on_c, 3, 73, 56
5, 58319, Note_off_c, 3, 67, 64
5, 58324, Note_off_c, 3, 57, 64
5, 58324, Note_off_c, 3, 73, 64
5, 58375, Note_on_c, 3, 67, 56
5, 58375, Note_on_c, 3, 57, 82
5, 58375, Note_on_c, 3, 73, 56
5, 58403, Note_off_c, 3, 67, 64
5, 58403, Note_off_c, 3, 73, 64
5, 58410, Note_off_c, 3, 57, 64
5, 58781, Note_on_c, 3, 55, 100
5, 58848, Note_off_c, 3, 55, 64
5, 58862, Note_on_c, 3, 67, 60
5, 58862, Note_on_c, 3, 73, 64
5, 58862, Note_on_c, 3, 57, 73
5, 58893, Note_off_c, 3, 73, 64
5, 58895, Note_off_c, 3, 67, 64
5, 58907, Note_off_c, 3, 57, 64
5, 58942, Note_on_c, 3, 67, 56
5, 58942, Note_on_c, 3, 57, 73
5, 58942, Note_on_c, 3, 73, 60
5, 58973, Note_off_c, 3, 67, 64
5, 58975, Note_off_c, 3, 57, 64
5, 58976, Note_off_c, 3, 73, 64
5, 59024, Note_on_c, 3, 67, 73
5, 59024, Note_on_c, 3, 57, 82
5, 59024, Note_on_c, 3, 73, 64
5, 59056, Note_off_c, 3, 67, 64
5, 59059, Note_off_c, 3, 73, 64
5, 59064, Note_off_c, 3, 57, 64
5, 59429, Note_on_c, 3, 55, 100
5, 59495, Note_off_c, 3, 55, 64
5, 59510, Note_on_c, 3, 67, 64
5, 59510, Note_on_c, 3, 73, 64
5, 59510, Note_on_c, 3, 57, 82
5, 59542, Note_off_c, 3, 67, 64
5, 59542, Note_off_c, 3, 73, 64
5, 59551, Note_off_c, 3, 57, 64
5, 59591, Note_on_c, 3, 67, 64
5, 59591, Note_on_c, 3, 57, 82
5, 59591, Note_on_c, 3, 73, 73
5, 59621, Note_off_c, 3, 67, 64
5, 59626, Note_off_c, 3, 57, 64
5, 59627, Note_off_c, 3, 73, 64
5, 59672, Note_on_c, 3, 57, 91
5, 59672, Note_on_c, 3, 67, 64
5, 59672, Note_on_c, 3, 73, 64
5, 59703, Note_off_c, 3, 67, 64
5, 59708, Note_off_c, 3, 57, 64
5, 59708, Note_off_c, 3, 73, 64
5, 60078, Note_on_c, 3, 55, 109
5, 60144, Note_off_c, 3, 55, 64
5, 60160, Note_on_c, 3, 67, 73
5, 60160, Note_on_c, 3, 73, 82
5, 60160, Note_on_c, 3, 57, 82
5, 60193, Note_off_c, 3, 67, 64
5, 60193, Note_off_c, 3, 57, 64
5, 60194, Note_off_c, 3, 73, 64
5, 60240, Note_on_c, 3, 67, 60
5, 60240, Note_on_c, 3, 57, 82
5, 60240, Note_on_c, 3, 73, 64
5, 60266, Note_off_c, 3, 67, 64
5, 60267, Note_off_c, 3, 57, 64
5, 60271, Note_off_c, 3, 73, 64
5, 60322, Note_on_c, 3, 67, 73
5, 60322, Note_on_c, 3, 57, 91
5, 60322, Note_on_c, 3, 73, 91
5, 60346, Note_off_c, 3, 67, 64
5, 60359, Note_off_c, 3, 73, 64
5, 60361, Note_off_c, 3, 57, 64
5, 60727, Note_on_c, 3, 55, 100
5, 60802, Note_off_c, 3, 55, 64
5, 60809, Note_on_c, 3, 73, 80
5, 60809, Note_on_c, 3, 67, 80
5, 60809, Note_on_c, 3, 57, 80
5, 60851, Note_off_c, 3, 73, 64
5, 60851, Note_off_c, 3, 67, 64
5, 60851, Note_off_c, 3, 57, 64
5, 60890, Note_on_c, 3, 73, 80
5, 60890, Note_on_c, 3, 67, 80
5, 60892, Note_on_c, 3, 57, 80
5, 60932, Note_off_c, 3, 73, 64
5, 60932, Note_off_c, 3, 67, 64
5, 60932, Note_off_c, 3, 57, 64
5, 60972, Note_on_c, 3, 73, 80
5, 60972, Note_on_c, 3, 67, 80
5, 60976, Note_on_c, 3, 57, 80
5, 61013, Note_off_c, 3, 67, 64
5, 61013, Note_off_c, 3, 57, 64
5, 61015, Note_off_c, 3, 73, 64
5, 61213, Note_on_c, 3, 73, 52
5, 61213, Note_on_c, 3, 76, 64
5, 61247, Note_off_c, 3, 76, 64
5, 61254, Note_off_c, 3, 73, 64
5, 61295, Note_on_c, 3, 78, 82
5, 61295, Note_on_c, 3, 74, 73
5, 61335, Note_off_c, 3, 78, 64
5, 61339, Note_off_c, 3, 74, 64
5, 61377, Note_on_c, 3, 79, 100
5, 61377, Note_on_c, 3, 75, 91
5, 61417, Note_on_c, 3, 76, 64
5, 61425, Note_off_c, 3, 75, 64
5, 61909, Note_off_c, 3, 79, 64
5, 61921, Note_off_c, 3, 76, 64
5, 61944, Note_on_c, 3, 74, 60
5, 61944, Note_on_c, 3, 78, 48
5, 62015, Note_off_c, 3, 74, 64
5, 62015, Note_off_c, 3, 78, 64
5, 62025, Note_on_c, 3, 76, 91
5, 62025, Note_on_c, 3, 73, 91
5, 62064, Note_off_c, 3, 73, 64
5, 62074, Note_off_c, 3, 76, 64
5, 62511, Note_on_c, 3, 73, 82
5, 62515, Note_on_c, 3, 76, 82
5, 62551, Note_off_c, 3, 73, 64
5, 62558, Note_off_c, 3, 76, 64
5, 62593, Note_on_c, 3, 74, 56
5, 62593, Note_on_c, 3, 78, 60
5, 62625, Note_off_c, 3, 74, 64
5, 62640, Note_off_c, 3, 78, 64
5, 62677, Note_on_c, 3, 76, 91
5, 62677, Note_on_c, 3, 79, 100
5, 62677, Note_on_c, 3, 75, 91
5, 62704, Note_off_c, 3, 75, 64
5, 63197, Note_off_c, 3, 76, 64
5, 63229, Note_off_c, 3, 79, 64
5, 63242, Note_on_c, 3, 74, 64
5, 63242, Note_on_c, 3, 78, 60
5, 63310, Note_off_c, 3, 74, 64
5, 63313, Note_off_c, 3, 78, 64
5, 63323, Note_on_c, 3, 73, 91
5, 63323, Note_on_c, 3, 76, 100
5, 63362, Note_off_c, 3, 73, 64
5, 63366, Note_off_c, 3, 76, 64
5, 63810, Note_on_c, 3, 72, 91
5, 63810, Note_on_c, 3, 69, 100
5, 63844, Note_off_c, 3, 72, 64
5, 63847, Note_off_c, 3, 69, 64
5, 63891, Note_on_c, 3, 74, 82
5, 63891, Note_on_c, 3, 71, 91
5, 63928, Note_off_c, 3, 74, 64
5, 63932, Note_off_c, 3, 71, 64
5, 63973, Note_on_c, 3, 76, 91
5, 63973, Note_on_c, 3, 72, 100
5, 64511, Note_off_c, 3, 72, 64
5, 64538, Note_off_c, 3, 76, 64
5, 64541, Note_on_c, 3, 74, 82
5, 64541, Note_on_c, 3, 71, 64
5, 64607, Note_off_c, 3, 74, 64
5, 64612, Note_off_c, 3, 71, 64
5, 64621, Note_on_c, 3, 69, 100
5, 64621, Note_on_c, 3, 72, 91
5, 64660, Note_off_c, 3, 69, 64
5, 64665, Note_off_c, 3, 72, 64
5, 65108, Note_on_c, 3, 76, 73
5, 65108, Note_on_c, 3, 73, 82
5, 65141, Note_off_c, 3, 73, 64
5, 65145, Note_off_c, 3, 76, 64
5, 65190, Note_on_c, 3, 74, 64
5, 65190, Note_on_c, 3, 78, 64
5, 65220, Note_off_c, 3, 74, 64
5, 65228, Note_off_c, 3, 78, 64
5, 65272, Note_on_c, 3, 79, 91
5, 65272, Note_on_c, 3, 76, 100
5, 65823, Note_off_c, 3, 76, 64
5, 65840, Note_on_c, 3, 74, 64
5, 65840, Note_on_c, 3, 78, 73
5, 65853, Note_off_c, 3, 79, 64
5, 65904, Note_off_c, 3, 78, 64
5, 65911, Note_off_c, 3, 74, 64
5, 65922, Note_on_c, 3, 73, 82
5, 65922, Note_on_c, 3, 76, 91
5, 65952, Note_off_c, 3, 73, 64
5, 65959, Note_off_c, 3, 76, 64
5, 66406, Note_on_c, 3, 73, 73
5, 66406, Note_on_c, 3, 76, 73
5, 66443, Note_off_c, 3, 73, 64
5, 66452, Note_off_c, 3, 76, 64
5, 66487, Note_on_c, 3, 74, 60
5, 66487, Note_on_c, 3, 78, 56
5, 66532, Note_off_c, 3, 74, 64
5, 66541, Note_off_c, 3, 78, 64
5, 66569, Note_on_c, 3, 79, 82
5, 66569, Note_on_c, 3, 76, 91
5, 66782, Note_off_c, 3, 76, 64
5, 66797, Note_off_c, 3, 79, 64
5, 66814, Note_on_c, 3, 74, 64
5, 66814, Note_on_c, 3, 78, 52
5, 66879, Note_off_c, 3, 78, 64
5, 66881, Note_off_c, 3, 74, 64
5, 66892, Note_on_c, 3, 73, 82
5, 66896, Note_on_c, 3, 76, 82
5, 66932, Note_off_c, 3, 73, 64
5, 66934, Note_off_c, 3, 76, 64
5, 67217, Note_on_c, 3, 76, 100
5, 67217, Note_on_c, 3, 72, 91
5, 67424, Note_off_c, 3, 72, 64
5, 67461, Note_on_c, 3, 74, 64
5, 67461, Note_on_c, 3, 71, 73
5, 67467, Note_off_c, 3, 76, 64
5, 67519, Note_off_c, 3, 74, 64
5, 67532, Note_off_c, 3, 71, 64
5, 67541, Note_on_c, 3, 69, 91
5, 67541, Note_on_c, 3, 72, 91
5, 67585, Note_off_c, 3, 72, 64
5, 67585, Note_off_c, 3, 69, 64
5, 67703, Note_on_c, 3, 76, 91
5, 67703, Note_on_c, 3, 73, 91
5, 67737, Note_off_c, 3, 76, 64
5, 67740, Note_off_c, 3, 73, 64
5, 67784, Note_on_c, 3, 78, 91
5, 67784, Note_on_c, 3, 74, 82
5, 67819, Note_off_c, 3, 74, 64
5, 67823, Note_off_c, 3, 78, 64
5, 67867, Note_on_c, 3, 79, 100
5, 67867, Note_on_c, 3, 75, 91
5, 67901, Note_off_c, 3, 75, 64
5, 67906, Note_on_c, 3, 76, 100
5, 68420, Note_off_c, 3, 76, 64
5, 68436, Note_off_c, 3, 79, 64
5, 68436, Note_on_c, 3, 74, 64
5, 68436, Note_on_c, 3, 78, 73
5, 68504, Note_off_c, 3, 78, 64
5, 68509, Note_off_c, 3, 74, 64
5, 68514, Note_on_c, 3, 73, 91
5, 68514, Note_on_c, 3, 76, 100
5, 68514, Note_on_c, 3, 75, 60
5, 68528, Note_off_c, 3, 75, 64
5, 68546, Note_off_c, 3, 73, 64
5, 68548, Note_off_c, 3, 76, 64
5, 68839, Note_on_c, 3, 55, 91
5, 68899, Note_off_c, 3, 55, 64
5, 68919, Note_on_c, 3, 57, 82
5, 68952, Note_off_c, 3, 57, 64
5, 69002, Note_on_c, 3, 55, 100
5, 69066, Note_off_c, 3, 55, 64
5, 69082, Note_on_c, 3, 57, 73
5, 69097, Note_off_c, 3, 57, 64
5, 69164, Note_on_c, 3, 55, 100
5, 69229, Note_off_c, 3, 55, 64
5, 69245, Note_on_c, 3, 67, 64
5, 69245, Note_on_c, 3, 73, 73
5, 69245, Note_on_c, 3, 57, 91
5, 69268, Note_off_c, 3, 67, 64
5, 69271, Note_off_c, 3, 57, 64
5, 69273, Note_off_c, 3, 73, 64
5, 69326, Note_on_c, 3, 57, 82
5, 69326, Note_on_c, 3, 67, 73
5, 69326, Note_on_c, 3, 73, 82
5, 69352, Note_off_c, 3, 67, 64
5, 69352, Note_off_c, 3, 73, 64
5, 69354, Note_off_c, 3, 57, 64
5, 69408, Note_on_c, 3, 57, 82
5, 69408, Note_on_c, 3, 67, 73
5, 69412, Note_on_c, 3, 73, 82
5, 69434, Note_off_c, 3, 67, 64
5, 69435, Note_off_c, 3, 73, 64
5, 69438, Note_off_c, 3, 57, 64
5, 69813, Note_on_c, 3, 55, 109
5, 69889, Note_off_c, 3, 55, 64
5, 69893, Note_on_c, 3, 67, 60
5, 69893, Note_on_c, 3, 73, 60
5, 69893, Note_on_c, 3, 57, 73
5, 69919, Note_off_c, 3, 67, 64
5, 69925, Note_off_c, 3, 73, 64
5, 69935, Note_off_c, 3, 57, 64
5, 69975, Note_on_c, 3, 67, 60
5, 69975, Note_on_c, 3, 73, 64
5, 69975, Note_on_c, 3, 57, 82
5, 70004, Note_off_c, 3, 73, 64
5, 70005, Note_off_c, 3, 67, 64
5, 70009, Note_off_c, 3, 57, 64
5, 70056, Note_on_c, 3, 57, 73
5, 70059, Note_on_c, 3, 67, 60
5, 70061, Note_on_c, 3, 73, 56
5, 70084, Note_off_c, 3, 67, 64
5, 70087, Note_off_c, 3, 73, 64
5, 70091, Note_off_c, 3, 57, 64
5, 70462, Note_on_c, 3, 55, 109
5, 70535, Note_off_c, 3, 55, 64
5, 70543, Note_on_c, 3, 67, 60
5, 70543, Note_on_c, 3, 73, 64
5, 70543, Note_on_c, 3, 57, 82
5, 70571, Note_off_c, 3, 67, 64
5, 70576, Note_off_c, 3, 73, 64
5, 70581, Note_off_c, 3, 57, 64
5, 70625, Note_on_c, 3, 67, 64
5, 70625, Note_on_c, 3, 57, 82
5, 70628, Note_on_c, 3, 73, 60
5, 70657, Note_off_c, 3, 73, 64
5, 70657, Note_off_c, 3, 57, 64
5, 70657, Note_off_c, 3, 67, 64
5, 70705, Note_on_c, 3, 67, 56
5, 70705, Note_on_c, 3, 57, 73
5, 70705, Note_on_c, 3, 73, 48
5, 70733, Note_off_c, 3, 67, 64
5, 70734, Note_off_c, 3, 73, 64
5, 70735, Note_off_c, 3, 57, 64
5, 71111, Note_on_c, 3, 55, 109
5, 71187, Note_off_c, 3, 55, 64
5, 71191, Note_on_c, 3, 67, 60
5, 71191, Note_on_c, 3, 57, 82
5, 71191, Note_on_c, 3, 73, 60
5, 71220, Note_off_c, 3, 67, 64
5, 71225, Note_off_c, 3, 73, 64
5, 71229, Note_off_c, 3, 57, 64
5, 71274, Note_on_c, 3, 67, 48
5, 71274, Note_on_c, 3, 57, 73
5, 71274, Note_on_c, 3, 73, 56
5, 71299, Note_off_c, 3, 67, 64
5, 71302, Note_off_c, 3, 57, 64
5, 71302, Note_off_c, 3, 73, 64
5, 71355, Note_on_c, 3, 67, 56
5, 71355, Note_on_c, 3, 57, 82
5, 71355, Note_on_c, 3, 73, 56
5, 71382, Note_off_c, 3, 67, 64
5, 71382, Note_off_c, 3, 73, 64
5, 71389, Note_off_c, 3, 57, 64
5, 71761, Note_on_c, 3, 55, 100
5, 71826, Note_off_c, 3, 55, 64
5, 71846, Note_on_c, 3, 67, 60
5, 71846, Note_on_c, 3, 73, 64
5, 71847, Note_on_c, 3, 57, 73
5, 71872, Note_off_c, 3, 73, 64
5, 71875, Note_off_c, 3, 67, 64
5, 71886, Note_off_c, 3, 57, 64
5, 71922, Note_on_c, 3, 67, 56
5, 71922, Note_on_c, 3, 57, 73
5, 71922, Note_on_c, 3, 73, 60
5, 71952, Note_off_c, 3, 67, 64
5, 71953, Note_off_c, 3, 57, 64
5, 71953, Note_off_c, 3, 73, 64
5, 72003, Note_on_c, 3, 67, 73
5, 72003, Note_on_c, 3, 57, 82
5, 72003, Note_on_c, 3, 73, 64
5, 72035, Note_off_c, 3, 67, 64
5, 72038, Note_off_c, 3, 73, 64
5, 72043, Note_off_c, 3, 57, 64
5, 72409, Note_on_c, 3, 55, 100
5, 72476, Note_off_c, 3, 55, 64
5, 72490, Note_on_c, 3, 67, 64
5, 72490, Note_on_c, 3, 73, 64
5, 72490, Note_on_c, 3, 57, 82
5, 72522, Note_off_c, 3, 73, 64
5, 72524, Note_off_c, 3, 67, 64
5, 72532, Note_off_c, 3, 57, 64
5, 72571, Note_on_c, 3, 67, 64
5, 72571, Note_on_c, 3, 57, 82
5, 72571, Note_on_c, 3, 73, 73
5, 72601, Note_off_c, 3, 67, 64
5, 72604, Note_off_c, 3, 57, 64
5, 72608, Note_off_c, 3, 73, 64
5, 72652, Note_on_c, 3, 57, 91
5, 72652, Note_on_c, 3, 67, 64
5, 72652, Note_on_c, 3, 73, 64
5, 72684, Note_off_c, 3, 67, 64
5, 72689, Note_off_c, 3, 57, 64
5, 72689, Note_off_c, 3, 73, 64
5, 73058, Note_on_c, 3, 55, 109
5, 73124, Note_off_c, 3, 55, 64
5, 73139, Note_on_c, 3, 67, 73
5, 73139, Note_on_c, 3, 73, 82
5, 73139, Note_on_c, 3, 57, 82
5, 73171, Note_off_c, 3, 67, 64
5, 73172, Note_off_c, 3, 57, 64
5, 73174, Note_off_c, 3, 73, 64
5, 73220, Note_on_c, 3, 67, 60
5, 73220, Note_on_c, 3, 57, 82
5, 73220, Note_on_c, 3, 73, 64
5, 73246, Note_off_c, 3, 67, 64
5, 73247, Note_off_c, 3, 57, 64
5, 73250, Note_off_c, 3, 73, 64
5, 73303, Note_on_c, 3, 67, 73
5, 73303, Note_on_c, 3, 57, 91
5, 73304, Note_on_c, 3, 73, 91
5, 73326, Note_off_c, 3, 67, 64
5, 73339, Note_off_c, 3, 73, 64
5, 73340, Note_off_c, 3, 57, 64
5, 73709, Note_on_c, 3, 55, 100
5, 73779, Note_off_c, 3, 55, 64
5, 73788, Note_on_c, 3, 73, 80
5, 73788, Note_on_c, 3, 67, 80
5, 73788, Note_on_c, 3, 57, 80
5, 73832, Note_off_c, 3, 73, 64
5, 73832, Note_off_c, 3, 57, 64
5, 73833, Note_off_c, 3, 67, 64
5, 73869, Note_on_c, 3, 73, 80
5, 73869, Note_on_c, 3, 67, 80
5, 73869, Note_on_c, 3, 57, 80
5, 73911, Note_off_c, 3, 67, 64
5, 73911, Note_off_c, 3, 57, 64
5, 73913, Note_off_c, 3, 73, 64
5, 73950, Note_on_c, 3, 73, 80
5, 73950, Note_on_c, 3, 67, 80
5, 73950, Note_on_c, 3, 57, 80
5, 73992, Note_off_c, 3, 73, 64
5, 73992, Note_off_c, 3, 67, 64
5, 73992, Note_off_c, 3, 57, 64
5, 74194, Note_on_c, 3, 73, 52
5, 74194, Note_on_c, 3, 76, 64
5, 74226, Note_off_c, 3, 76, 64
5, 74234, Note_off_c, 3, 73, 64
5, 74275, Note_on_c, 3, 78, 82
5, 74275, Note_on_c, 3, 74, 73
5, 74315, Note_off_c, 3, 78, 64
5, 74316, Note_off_c, 3, 74, 64
5, 74356, Note_on_c, 3, 79, 100
5, 74356, Note_on_c, 3, 75, 91
5, 74396, Note_on_c, 3, 76, 64
5, 74406, Note_off_c, 3, 75, 64
5, 74889, Note_off_c, 3, 79, 64
5, 74899, Note_off_c, 3, 76, 64
5, 74925, Note_on_c, 3, 74, 60
5, 74925, Note_on_c, 3, 78, 48
5, 74993, Note_off_c, 3, 78, 64
5, 74995, Note_off_c, 3, 74, 64
5, 75005, Note_on_c, 3, 76, 91
5, 75005, Note_on_c, 3, 73, 91
5, 75044, Note_off_c, 3, 73, 64
5, 75054, Note_off_c, 3, 76, 64
5, 75491, Note_on_c, 3, 73, 82
5, 75491, Note_on_c, 3, 76, 82
5, 75530, Note_off_c, 3, 73, 64
5, 75537, Note_off_c, 3, 76, 64
5, 75574, Note_on_c, 3, 74, 56
5, 75574, Note_on_c, 3, 78, 60
5, 75604, Note_off_c, 3, 74, 64
5, 75620, Note_off_c, 3, 78, 64
5, 75655, Note_on_c, 3, 76, 91
5, 75655, Note_on_c, 3, 79, 100
5, 75655, Note_on_c, 3, 75, 91
5, 75684, Note_off_c, 3, 75, 64
5, 76176, Note_off_c, 3, 76, 64
5, 76210, Note_off_c, 3, 79, 64
5, 76222, Note_on_c, 3, 74, 64
5, 76222, Note_on_c, 3, 78, 60
5, 76290, Note_off_c, 3, 74, 64
5, 76292, Note_off_c, 3, 78, 64
5, 76303, Note_on_c, 3, 73, 91
5, 76303, Note_on_c, 3, 76, 100
5, 76343, Note_off_c, 3, 73, 64
5, 76346, Note_off_c, 3, 76, 64
5, 76789, Note_on_c, 3, 72, 91
5, 76789, Note_on_c, 3, 69, 100
5, 76823, Note_off_c, 3, 72, 64
5, 76828, Note_off_c, 3, 69, 64
5, 76871, Note_on_c, 3, 74, 82
5, 76871, Note_on_c, 3, 71, 91
5, 76908, Note_off_c, 3, 74, 64
5, 76912, Note_off_c, 3, 71, 64
5, 76952, Note_on_c, 3, 76, 91
5, 76952, Note_on_c, 3, 72, 100
5, 77492, Note_off_c, 3, 72, 64
5, 77518, Note_off_c, 3, 76, 64
5, 77519, Note_on_c, 3, 74, 82
5, 77519, Note_on_c, 3, 71, 64
5, 77587, Note_off_c, 3, 74, 64
5, 77591, Note_off_c, 3, 71, 64
5, 77601, Note_on_c, 3, 69, 100
5, 77601, Note_on_c, 3, 72, 91
5, 77637, Note_off_c, 3, 69, 64
5, 77644, Note_off_c, 3, 72, 64
5, 78088, Note_on_c, 3, 76, 73
5, 78088, Note_on_c, 3, 73, 82
5, 78120, Note_off_c, 3, 73, 64
5, 78125, Note_off_c, 3, 76, 64
5, 78169, Note_on_c, 3, 74, 64
5, 78169, Note_on_c, 3, 78, 64
5, 78200, Note_off_c, 3, 74, 64
5, 78210, Note_off_c, 3, 78, 64
5, 78251, Note_on_c, 3, 79, 91
5, 78251, Note_on_c, 3, 76, 100
5, 78803, Note_off_c, 3, 76, 64
5, 78817, Note_on_c, 3, 74, 64
5, 78817, Note_on_c, 3, 78, 73
5, 78833, Note_off_c, 3, 79, 64
5, 78884, Note_off_c, 3, 78, 64
5, 78891, Note_off_c, 3, 74, 64
5, 78899, Note_on_c, 3, 73, 82
5, 78899, Note_on_c, 3, 76, 91
5, 78931, Note_off_c, 3, 73, 64
5, 78939, Note_off_c, 3, 76, 64
5, 79149, Control_c, 3, 10, 73
5, 79304, Control_c, 3, 10, 82
5, 79343, Control_c, 3, 10, 91
5, 79382, Control_c, 3, 10, 100
5, 79386, Note_on_c, 3, 73, 73
5, 79386, Note_on_c, 3, 76, 73
5, 79420, Control_c, 3, 10, 109
5, 79423, Note_off_c, 3, 73, 64
5, 79431, Note_off_c, 3, 76, 64
5, 79459, Control_c, 3, 10, 118
5, 79466, Note_on_c, 3, 74, 60
5, 79466, Note_on_c, 3, 78, 56
5, 79498, Control_c, 3, 10, 127
5, 79511, Note_off_c, 3, 74, 64
5, 79520, Note_off_c, 3, 78, 64
5, 79548, Note_on_c, 3, 79, 82
5, 79548, Note_on_c, 3, 76, 91
5, 79763, Note_off_c, 3, 76, 64
5, 79777, Note_off_c, 3, 79, 64
5, 79791, Note_on_c, 3, 74, 64
5, 79791, Note_on_c, 3, 78, 52
5, 79859, Note_off_c, 3, 78, 64
5, 79860, Note_off_c, 3, 74, 64
5, 79873, Note_on_c, 3, 73, 82
5, 79873, Note_on_c, 3, 76, 82
5, 79912, Note_off_c, 3, 73, 64
5, 79914, Note_off_c, 3, 76, 64
5, 80197, Note_on_c, 3, 76, 100
5, 80199, Note_on_c, 3, 72, 91
5, 80405, Note_off_c, 3, 72, 64
5, 80440, Note_off_c, 3, 76, 64
5, 80440, Note_on_c, 3, 74, 64
5, 80440, Note_on_c, 3, 71, 73
5, 80499, Note_off_c, 3, 74, 64
5, 80512, Note_off_c, 3, 71, 64
5, 80521, Note_on_c, 3, 69, 91
5, 80521, Note_on_c, 3, 72, 91
5, 80564, Note_off_c, 3, 69, 64
5, 80564, Note_off_c, 3, 72, 64
5, 80683, Note_on_c, 3, 76, 91
5, 80683, Note_on_c, 3, 73, 91
5, 80717, Note_off_c, 3, 76, 64
5, 80720, Note_off_c, 3, 73, 64
5, 80765, Note_on_c, 3, 78, 91
5, 80765, Note_on_c, 3, 74, 82
5, 80796, Note_off_c, 3, 74, 64
5, 80802, Note_off_c, 3, 78, 64
5, 80848, Note_on_c, 3, 79, 100
5, 80848, Note_on_c, 3, 75, 91
5, 80881, Note_off_c, 3, 75, 64
5, 80886, Note_on_c, 3, 76, 100
5, 81398, Note_off_c, 3, 76, 64
5, 81414, Note_off_c, 3, 79, 64
5, 81414, Note_on_c, 3, 74, 64
5, 81414, Note_on_c, 3, 78, 73
5, 81486, Note_off_c, 3, 78, 64
5, 81489, Note_off_c, 3, 74, 64
5, 81495, Note_on_c, 3, 73, 91
5, 81495, Note_on_c, 3, 76, 100
5, 81495, Note_on_c, 3, 75, 60
5, 81508, Note_off_c, 3, 75, 64
5, 81526, Note_off_c, 3, 73, 64
5, 81530, Note_off_c, 3, 76, 64
5, 81982, Note_on_c, 3, 73, 52
5, 81982, Note_on_c, 3, 76, 64
5, 82015, Note_off_c, 3, 76, 64
5, 82022, Note_off_c, 3, 73, 64
5, 82062, Note_on_c, 3, 78, 82
5, 82062, Note_on_c, 3, 74, 73
5, 82103, Note_off_c, 3, 78, 64
5, 82104, Note_off_c, 3, 74, 64
5, 82147, Note_on_c, 3, 79, 100
5, 82147, Note_on_c, 3, 75, 91
5, 82184, Note_on_c, 3, 76, 64
5, 82193, Note_off_c, 3, 75, 64
5, 82678, Note_off_c, 3, 79, 64
5, 82687, Note_off_c, 3, 76, 64
5, 82711, Note_on_c, 3, 74, 60
5, 82711, Note_on_c, 3, 78, 48
5, 82780, Note_off_c, 3, 78, 64
5, 82783, Note_off_c, 3, 74, 64
5, 82793, Note_on_c, 3, 76, 91
5, 82793, Note_on_c, 3, 73, 91
5, 82832, Note_off_c, 3, 73, 64
5, 82842, Note_off_c, 3, 76, 64
5, 83280, Note_on_c, 3, 73, 82
5, 83280, Note_on_c, 3, 76, 82
5, 83317, Note_off_c, 3, 73, 64
5, 83325, Note_off_c, 3, 76, 64
5, 83361, Note_on_c, 3, 74, 56
5, 83361, Note_on_c, 3, 78, 60
5, 83392, Note_off_c, 3, 74, 64
5, 83407, Note_off_c, 3, 78, 64
5, 83443, Note_on_c, 3, 76, 91
5, 83443, Note_on_c, 3, 79, 100
5, 83445, Note_on_c, 3, 75, 91
5, 83472, Note_off_c, 3, 75, 64
5, 83963, Note_off_c, 3, 76, 64
5, 83998, Note_off_c, 3, 79, 64
5, 84010, Note_on_c, 3, 74, 64
5, 84010, Note_on_c, 3, 78, 60
5, 84080, Note_off_c, 3, 74, 64
5, 84081, Note_off_c, 3, 78, 64
5, 84091, Note_on_c, 3, 73, 91
5, 84091, Note_on_c, 3, 76, 100
5, 84132, Note_off_c, 3, 73, 64
5, 84137, Note_off_c, 3, 76, 64
5, 84579, Note_on_c, 3, 72, 91
5, 84579, Note_on_c, 3, 69, 100
5, 84612, Note_off_c, 3, 72, 64
5, 84616, Note_off_c, 3, 69, 64
5, 84660, Note_on_c, 3, 74, 82
5, 84662, Note_on_c, 3, 71, 91
5, 84697, Note_off_c, 3, 74, 64
5, 84700, Note_off_c, 3, 71, 64
5, 84741, Note_on_c, 3, 76, 91
5, 84743, Note_on_c, 3, 72, 100
5, 85280, Note_off_c, 3, 72, 64
5, 85306, Note_off_c, 3, 76, 64
5, 85308, Note_on_c, 3, 74, 82
5, 85308, Note_on_c, 3, 71, 64
5, 85376, Note_off_c, 3, 74, 64
5, 85379, Note_off_c, 3, 71, 64
5, 85389, Note_on_c, 3, 69, 100
5, 85389, Note_on_c, 3, 72, 91
5, 85426, Note_off_c, 3, 69, 64
5, 85433, Note_off_c, 3, 72, 64
5, 85876, Note_on_c, 3, 76, 73
5, 85876, Note_on_c, 3, 73, 82
5, 85909, Note_off_c, 3, 73, 64
5, 85913, Note_off_c, 3, 76, 64
5, 85958, Note_on_c, 3, 74, 64
5, 85958, Note_on_c, 3, 78, 64
5, 85989, Note_off_c, 3, 74, 64
5, 85996, Note_off_c, 3, 78, 64
5, 86040, Note_on_c, 3, 79, 91
5, 86040, Note_on_c, 3, 76, 100
5, 86591, Note_off_c, 3, 76, 64
5, 86606, Note_on_c, 3, 74, 64
5, 86606, Note_on_c, 3, 78, 73
5, 86621, Note_off_c, 3, 79, 64
5, 86673, Note_off_c, 3, 78, 64
5, 86679, Note_off_c, 3, 74, 64
5, 86687, Note_on_c, 3, 73, 82
5, 86687, Note_on_c, 3, 76, 91
5, 86720, Note_off_c, 3, 73, 64
5, 86726, Note_off_c, 3, 76, 64
5, 87174, Note_on_c, 3, 73, 73
5, 87174, Note_on_c, 3, 76, 73
5, 87210, Note_off_c, 3, 73, 64
5, 87220, Note_off_c, 3, 76, 64
5, 87255, Note_on_c, 3, 74, 60
5, 87255, Note_on_c, 3, 78, 56
5, 87301, Note_off_c, 3, 74, 64
5, 87309, Note_off_c, 3, 78, 64
5, 87336, Note_on_c, 3, 79, 82
5, 87339, Note_on_c, 3, 76, 91
5, 87551, Note_off_c, 3, 76, 64
5, 87566, Note_off_c, 3, 79, 64
5, 87579, Note_on_c, 3, 74, 64
5, 87579, Note_on_c, 3, 78, 52
5, 87646, Note_off_c, 3, 78, 64
5, 87648, Note_off_c, 3, 74, 64
5, 87660, Note_on_c, 3, 73, 82
5, 87660, Note_on_c, 3, 76, 82
5, 87701, Note_off_c, 3, 73, 64
5, 87702, Note_off_c, 3, 76, 64
5, 87985, Note_on_c, 3, 76, 100
5, 87985, Note_on_c, 3, 72, 91
5, 88193, Note_off_c, 3, 72, 64
5, 88229, Note_off_c, 3, 76, 64
5, 88229, Note_on_c, 3, 74, 64
5, 88229, Note_on_c, 3, 71, 73
5, 88287, Note_off_c, 3, 74, 64
5, 88301, Note_off_c, 3, 71, 64
5, 88309, Note_on_c, 3, 69, 91
5, 88309, Note_on_c, 3, 72, 91
5, 88353, Note_off_c, 3, 72, 64
5, 88353, Note_off_c, 3, 69, 64
5, 88472, Note_on_c, 3, 76, 91
5, 88472, Note_on_c, 3, 73, 91
5, 88506, Note_off_c, 3, 76, 64
5, 88508, Note_off_c, 3, 73, 64
5, 88554, Note_on_c, 3, 78, 91
5, 88554, Note_on_c, 3, 74, 82
5, 88585, Note_off_c, 3, 74, 64
5, 88591, Note_off_c, 3, 78, 64
5, 88637, Note_on_c, 3, 79, 100
5, 88637, Note_on_c, 3, 75, 91
5, 88670, Note_off_c, 3, 75, 64
5, 88677, Note_on_c, 3, 76, 100
5, 89189, Note_off_c, 3, 76, 64
5, 89203, Note_off_c, 3, 79, 64
5, 89203, Note_on_c, 3, 74, 64
5, 89203, Note_on_c, 3, 78, 73
5, 89275, Note_off_c, 3, 78, 64
5, 89279, Note_off_c, 3, 74, 64
5, 89284, Note_on_c, 3, 73, 91
5, 89284, Note_on_c, 3, 76, 100
5, 89284, Note_on_c, 3, 75, 60
5, 89297, Note_off_c, 3, 75, 64
5, 89316, Note_off_c, 3, 73, 64
5, 89319, Note_off_c, 3, 76, 64
5, 89771, Note_on_c, 3, 73, 73
5, 89771, Note_on_c, 3, 76, 73
5, 89808, Note_off_c, 3, 73, 64
5, 89816, Note_off_c, 3, 76, 64
5, 89852, Note_on_c, 3, 74, 60
5, 89852, Note_on_c, 3, 78, 56
5, 89897, Note_off_c, 3, 74, 64
5, 89905, Note_off_c, 3, 78, 64
5, 89935, Note_on_c, 3, 79, 82
5, 89935, Note_on_c, 3, 76, 91
5, 90147, Note_off_c, 3, 76, 64
5, 90163, Note_off_c, 3, 79, 64
5, 90176, Note_on_c, 3, 74, 64
5, 90176, Note_on_c, 3, 78, 52
5, 90243, Note_off_c, 3, 78, 64
5, 90245, Note_off_c, 3, 74, 64
5, 90257, Note_on_c, 3, 73, 82
5, 90257, Note_on_c, 3, 76, 82
5, 90297, Note_off_c, 3, 73, 64
5, 90299, Note_off_c, 3, 76, 64
5, 90581, Note_on_c, 3, 76, 100
5, 90581, Note_on_c, 3, 72, 91
5, 90789, Note_off_c, 3, 72, 64
5, 90825, Note_on_c, 3, 74, 64
5, 90825, Note_on_c, 3, 71, 73
5, 90833, Note_off_c, 3, 76, 64
5, 90883, Note_off_c, 3, 74, 64
5, 90897, Note_off_c, 3, 71, 64
5, 90906, Note_on_c, 3, 69, 91
5, 90906, Note_on_c, 3, 72, 91
5, 90949, Note_off_c, 3, 69, 64
5, 90949, Note_off_c, 3, 72, 64
5, 91070, Note_on_c, 3, 76, 91
5, 91070, Note_on_c, 3, 73, 91
5, 91101, Note_off_c, 3, 76, 64
5, 91105, Note_off_c, 3, 73, 64
5, 91152, Note_on_c, 3, 78, 91
5, 91152, Note_on_c, 3, 74, 82
5, 91182, Note_off_c, 3, 74, 64
5, 91187, Note_off_c, 3, 78, 64
5, 91233, Note_on_c, 3, 79, 100
5, 91233, Note_on_c, 3, 75, 91
5, 91266, Note_off_c, 3, 75, 64
5, 91272, Note_on_c, 3, 76, 100
5, 91784, Note_off_c, 3, 76, 64
5, 91799, Note_off_c, 3, 79, 64
5, 91799, Note_on_c, 3, 74, 64
5, 91799, Note_on_c, 3, 78, 73
5, 91870, Note_off_c, 3, 78, 64
5, 91876, Note_off_c, 3, 74, 64
5, 91881, Note_on_c, 3, 73, 91
5, 91881, Note_on_c, 3, 76, 100
5, 91881, Note_on_c, 3, 75, 60
5, 91894, Note_off_c, 3, 75, 64
5, 91912, Note_off_c, 3, 73, 64
5, 91915, Note_off_c, 3, 76, 64
5, 92367, Note_on_c, 3, 73, 73
5, 92367, Note_on_c, 3, 76, 73
5, 92404, Note_off_c, 3, 73, 64
5, 92412, Note_off_c, 3, 76, 64
5, 92448, Note_on_c, 3, 74, 60
5, 92448, Note_on_c, 3, 78, 56
5, 92494, Note_off_c, 3, 74, 64
5, 92501, Note_off_c, 3, 78, 64
5, 92531, Note_on_c, 3, 79, 82
5, 92531, Note_on_c, 3, 76, 91
5, 92742, Note_off_c, 3, 76, 64
5, 92759, Note_off_c, 3, 79, 64
5, 92773, Note_on_c, 3, 74, 64
5, 92773, Note_on_c, 3, 78, 52
5, 92840, Note_off_c, 3, 78, 64
5, 92842, Note_off_c, 3, 74, 64
5, 92854, Note_on_c, 3, 73, 82
5, 92854, Note_on_c, 3, 76, 82
5, 92894, Note_off_c, 3, 73, 64
5, 92896, Note_off_c, 3, 76, 64
5, 93262, Note_on_c, 3, 62, 109
5, 93262, Note_on_c, 3, 72, 100
5, 93262, Note_on_c, 3, 78, 100
5, 93334, Note_off_c, 3, 62, 64
5, 93337, Note_off_c, 3, 72, 64
5, 93339, Note_off_c, 3, 78, 64
5, 94720, Note_on_c, 3, 68, 82
5, 94720, Note_on_c, 3, 74, 91
5, 94720, Note_on_c, 3, 77, 73
5, 94779, Note_off_c, 3, 74, 64
5, 94783, Note_off_c, 3, 77, 64
5, 94794, Note_off_c, 3, 68, 64
5, 94803, Note_on_c, 3, 76, 91
5, 94803, Note_on_c, 3, 73, 91
5, 94804, Note_on_c, 3, 67, 64
5, 95786, Note_off_c, 3, 67, 64
5, 95788, Note_off_c, 3, 73, 64
5, 95790, Note_off_c, 3, 76, 64
5, 95790, End_track
6, 0, Start_track
6, 0, MIDI_port, 0
6, 0, Title_t, "SYNTH BRASS         "
6, 0, Program_c, 4, 62
6, 0, Control_c, 4, 7, 102
6, 9299, Note_on_c, 4, 64, 82
6, 9299, Note_on_c, 4, 57, 64
6, 9299, Note_on_c, 4, 61, 82
6, 9329, Note_off_c, 4, 64, 64
6, 9333, Note_off_c, 4, 57, 64
6, 9342, Note_off_c, 4, 61, 64
6, 9380, Note_on_c, 4, 66, 73
6, 9380, Note_on_c, 4, 57, 73
6, 9380, Note_on_c, 4, 62, 73
6, 9419, Note_off_c, 4, 62, 64
6, 9423, Note_off_c, 4, 57, 64
6, 9425, Note_off_c, 4, 66, 64
6, 9461, Note_on_c, 4, 64, 100
6, 9461, Note_on_c, 4, 59, 91
6, 9461, Note_on_c, 4, 57, 73
6, 9461, Note_on_c, 4, 67, 91
6, 9508, Note_off_c, 4, 59, 64
6, 9954, Note_off_c, 4, 57, 64
6, 9955, Note_off_c, 4, 64, 64
6, 9960, Note_off_c, 4, 67, 64
6, 10029, Note_on_c, 4, 62, 82
6, 10029, Note_on_c, 4, 66, 82
6, 10029, Note_on_c, 4, 57, 82
6, 10090, Note_off_c, 4, 62, 64
6, 10100, Note_off_c, 4, 66, 64
6, 10110, Note_on_c, 4, 61, 91
6, 10112, Note_off_c, 4, 57, 64
6, 10112, Note_on_c, 4, 57, 56
6, 10112, Note_on_c, 4, 64, 82
6, 10154, Note_off_c, 4, 57, 64
6, 10157, Note_off_c, 4, 61, 64
6, 10157, Note_off_c, 4, 64, 64
6, 10597, Note_on_c, 4, 64, 73
6, 10597, Note_on_c, 4, 61, 82
6, 10597, Note_on_c, 4, 57, 64
6, 10621, Note_off_c, 4, 64, 64
6, 10625, Note_off_c, 4, 57, 64
6, 10630, Note_off_c, 4, 61, 64
6, 10677, Note_on_c, 4, 66, 64
6, 10677, Note_on_c, 4, 57, 60
6, 10677, Note_on_c, 4, 62, 73
6, 10710, Note_off_c, 4, 66, 64
6, 10711, Note_off_c, 4, 62, 64
6, 10712, Note_off_c, 4, 57, 64
6, 10760, Note_on_c, 4, 57, 82
6, 10760, Note_on_c, 4, 67, 64
6, 10760, Note_on_c, 4, 64, 91
6, 11269, Note_off_c, 4, 64, 64
6, 11272, Note_off_c, 4, 57, 64
6, 11272, Note_off_c, 4, 67, 64
6, 11326, Note_on_c, 4, 66, 82
6, 11326, Note_on_c, 4, 57, 64
6, 11329, Note_on_c, 4, 62, 82
6, 11386, Note_off_c, 4, 66, 64
6, 11391, Note_off_c, 4, 62, 64
6, 11399, Note_off_c, 4, 57, 64
6, 11408, Note_on_c, 4, 57, 73
6, 11408, Note_on_c, 4, 61, 91
6, 11408, Note_on_c, 4, 64, 82
6, 11455, Note_off_c, 4, 64, 64
6, 11456, Note_off_c, 4, 61, 64
6, 11458, Note_off_c, 4, 57, 64
6, 11895, Note_on_c, 4, 57, 82
6, 11895, Note_on_c, 4, 60, 91
6, 11929, Note_off_c, 4, 60, 64
6, 11932, Note_off_c, 4, 57, 64
6, 11978, Note_on_c, 4, 62, 64
6, 11978, Note_on_c, 4, 59, 73
6, 12009, Note_off_c, 4, 62, 64
6, 12021, Note_off_c, 4, 59, 64
6, 12057, Note_on_c, 4, 60, 91
6, 12057, Note_on_c, 4, 64, 91
6, 12585, Note_off_c, 4, 60, 64
6, 12602, Note_off_c, 4, 64, 64
6, 12624, Note_on_c, 4, 59, 73
6, 12624, Note_on_c, 4, 62, 82
6, 12694, Note_off_c, 4, 62, 64
6, 12697, Note_off_c, 4, 59, 64
6, 12706, Note_on_c, 4, 57, 91
6, 12706, Note_on_c, 4, 60, 91
6, 12746, Note_off_c, 4, 57, 64
6, 12747, Note_off_c, 4, 60, 64
6, 13193, Note_on_c, 4, 64, 82
6, 13193, Note_on_c, 4, 57, 64
6, 13193, Note_on_c, 4, 61, 91
6, 13216, Note_off_c, 4, 64, 64
6, 13223, Note_off_c, 4, 57, 64
6, 13224, Note_off_c, 4, 61, 64
6, 13273, Note_on_c, 4, 66, 82
6, 13273, Note_on_c, 4, 57, 64
6, 13273, Note_on_c, 4, 62, 73
6, 13304, Note_off_c, 4, 62, 64
6, 13306, Note_off_c, 4, 57, 64
6, 13307, Note_off_c, 4, 66, 64
6, 13355, Note_on_c, 4, 64, 73
6, 13355, Note_on_c, 4, 57, 73
6, 13357, Note_on_c, 4, 67, 91
6, 13870, Note_off_c, 4, 64, 64
6, 13880, Note_off_c, 4, 67, 64
6, 13886, Note_off_c, 4, 57, 64
6, 13922, Note_on_c, 4, 57, 64
6, 13922, Note_on_c, 4, 66, 73
6, 13922, Note_on_c, 4, 62, 82
6, 13986, Note_off_c, 4, 62, 64
6, 13993, Note_off_c, 4, 66, 64
6, 14001, Note_off_c, 4, 57, 64
6, 14003, Note_on_c, 4, 61, 91
6, 14003, Note_on_c, 4, 64, 82
6, 14003, Note_on_c, 4, 57, 31
6, 14047, Note_off_c, 4, 64, 64
6, 14050, Note_off_c, 4, 61, 64
6, 14058, Note_off_c, 4, 57, 64
6, 14490, Note_on_c, 4, 64, 80
6, 14490, Note_on_c, 4, 61, 82
6, 14490, Note_on_c, 4, 57, 73
6, 14519, Note_off_c, 4, 57, 64
6, 14521, Note_off_c, 4, 61, 64
6, 14532, Note_off_c, 4, 64, 64
6, 14571, Note_on_c, 4, 66, 80
6, 14571, Note_on_c, 4, 62, 80
6, 14571, Note_on_c, 4, 57, 16
6, 14574, Note_off_c, 4, 57, 64
6, 14614, Note_off_c, 4, 62, 64
6, 14617, Note_off_c, 4, 66, 64
6, 14653, Note_on_c, 4, 64, 100
6, 14653, Note_on_c, 4, 67, 100
6, 14653, Note_on_c, 4, 57, 82
6, 14849, Note_off_c, 4, 64, 64
6, 14867, Note_off_c, 4, 67, 64
6, 14896, Note_on_c, 4, 66, 60
6, 14896, Note_on_c, 4, 62, 64
6, 14957, Note_off_c, 4, 62, 64
6, 14960, Note_off_c, 4, 66, 64
6, 14977, Note_on_c, 4, 61, 91
6, 14977, Note_on_c, 4, 64, 82
6, 15011, Note_off_c, 4, 57, 64
6, 15016, Note_off_c, 4, 64, 64
6, 15017, Note_off_c, 4, 61, 64
6, 15301, Note_on_c, 4, 64, 91
6, 15301, Note_on_c, 4, 60, 100
6, 15519, Note_off_c, 4, 60, 64
6, 15545, Note_on_c, 4, 59, 64
6, 15545, Note_on_c, 4, 62, 64
6, 15554, Note_off_c, 4, 64, 64
6, 15619, Note_off_c, 4, 62, 64
6, 15624, Note_off_c, 4, 59, 64
6, 15626, Note_on_c, 4, 57, 82
6, 15626, Note_on_c, 4, 60, 82
6, 15660, Note_off_c, 4, 60, 64
6, 15662, Note_off_c, 4, 57, 64
6, 15787, Note_on_c, 4, 64, 82
6, 15787, Note_on_c, 4, 61, 82
6, 15787, Note_on_c, 4, 57, 73
6, 15811, Note_off_c, 4, 64, 64
6, 15819, Note_off_c, 4, 61, 64
6, 15819, Note_off_c, 4, 57, 64
6, 15869, Note_on_c, 4, 66, 73
6, 15869, Note_on_c, 4, 57, 64
6, 15869, Note_on_c, 4, 62, 73
6, 15899, Note_off_c, 4, 57, 64
6, 15900, Note_off_c, 4, 62, 64
6, 15904, Note_off_c, 4, 66, 64
6, 15949, Note_on_c, 4, 64, 82
6, 15949, Note_on_c, 4, 57, 73
6, 15952, Note_on_c, 4, 67, 91
6, 16488, Note_off_c, 4, 64, 64
6, 16501, Note_off_c, 4, 67, 64
6, 16506, Note_off_c, 4, 57, 64
6, 16518, Note_on_c, 4, 57, 25
6, 16518, Note_on_c, 4, 66, 64
6, 16518, Note_on_c, 4, 62, 73
6, 16578, Note_off_c, 4, 62, 64
6, 16587, Note_off_c, 4, 66, 64
6, 16599, Note_on_c, 4, 61, 91
6, 16599, Note_on_c, 4, 64, 91
6, 16644, Note_off_c, 4, 61, 64
6, 16644, Note_off_c, 4, 64, 64
6, 16649, Note_off_c, 4, 57, 64
6, 17329, Note_on_c, 4, 55, 56
6, 17329, Note_on_c, 4, 61, 73
6, 17347, Note_off_c, 4, 55, 64
6, 17356, Note_off_c, 4, 61, 64
6, 17410, Note_on_c, 4, 55, 60
6, 17410, Note_on_c, 4, 61, 73
6, 17435, Note_off_c, 4, 55, 64
6, 17435, Note_off_c, 4, 61, 64
6, 17491, Note_on_c, 4, 55, 73
6, 17491, Note_on_c, 4, 61, 73
6, 17525, Note_off_c, 4, 55, 64
6, 17526, Note_off_c, 4, 61, 64
6, 17978, Note_on_c, 4, 55, 73
6, 17978, Note_on_c, 4, 61, 91
6, 18008, Note_off_c, 4, 55, 64
6, 18011, Note_off_c, 4, 61, 64
6, 18059, Note_on_c, 4, 61, 73
6, 18059, Note_on_c, 4, 55, 64
6, 18088, Note_off_c, 4, 61, 64
6, 18089, Note_off_c, 4, 55, 64
6, 18140, Note_on_c, 4, 55, 64
6, 18140, Note_on_c, 4, 61, 82
6, 18170, Note_off_c, 4, 55, 64
6, 18174, Note_off_c, 4, 61, 64
6, 18627, Note_on_c, 4, 55, 73
6, 18627, Note_on_c, 4, 61, 91
6, 18658, Note_off_c, 4, 55, 64
6, 18658, Note_off_c, 4, 61, 64
6, 18707, Note_on_c, 4, 55, 64
6, 18707, Note_on_c, 4, 61, 82
6, 18740, Note_off_c, 4, 55, 64
6, 18740, Note_off_c, 4, 61, 64
6, 18788, Note_on_c, 4, 61, 82
6, 18788, Note_on_c, 4, 55, 73
6, 18819, Note_off_c, 4, 55, 64
6, 18823, Note_off_c, 4, 61, 64
6, 19276, Note_on_c, 4, 55, 73
6, 19276, Note_on_c, 4, 61, 91
6, 19302, Note_off_c, 4, 55, 64
6, 19307, Note_off_c, 4, 61, 64
6, 19356, Note_on_c, 4, 61, 91
6, 19356, Note_on_c, 4, 55, 64
6, 19385, Note_off_c, 4, 61, 64
6, 19386, Note_off_c, 4, 55, 64
6, 19438, Note_on_c, 4, 61, 82
6, 19439, Note_on_c, 4, 55, 73
6, 19470, Note_off_c, 4, 61, 64
6, 19472, Note_off_c, 4, 55, 64
6, 19925, Note_on_c, 4, 61, 91
6, 19925, Note_on_c, 4, 55, 82
6, 19950, Note_off_c, 4, 61, 64
6, 19950, Note_off_c, 4, 55, 64
6, 20006, Note_on_c, 4, 61, 82
6, 20006, Note_on_c, 4, 55, 64
6, 20035, Note_off_c, 4, 61, 64
6, 20035, Note_off_c, 4, 55, 64
6, 20086, Note_on_c, 4, 61, 91
6, 20086, Note_on_c, 4, 55, 73
6, 20115, Note_off_c, 4, 55, 64
6, 20116, Note_off_c, 4, 61, 64
6, 20574, Note_on_c, 4, 61, 91
6, 20574, Note_on_c, 4, 55, 82
6, 20600, Note_off_c, 4, 61, 64
6, 20602, Note_off_c, 4, 55, 64
6, 20655, Note_on_c, 4, 61, 91
6, 20655, Note_on_c, 4, 55, 73
6, 20683, Note_off_c, 4, 55, 64
6, 20684, Note_off_c, 4, 61, 64
6, 20737, Note_on_c, 4, 55, 64
6, 20737, Note_on_c, 4, 61, 82
6, 20766, Note_off_c, 4, 61, 64
6, 20770, Note_off_c, 4, 55, 64
6, 21223, Note_on_c, 4, 61, 91
6, 21223, Note_on_c, 4, 55, 73
6, 21250, Note_off_c, 4, 61, 64
6, 21251, Note_off_c, 4, 55, 64
6, 21304, Note_on_c, 4, 61, 91
6, 21304, Note_on_c, 4, 55, 64
6, 21330, Note_off_c, 4, 61, 64
6, 21334, Note_off_c, 4, 55, 64
6, 21385, Note_on_c, 4, 61, 91
6, 21385, Note_on_c, 4, 55, 73
6, 21410, Note_off_c, 4, 61, 64
6, 21412, Note_off_c, 4, 55, 64
6, 21872, Note_on_c, 4, 61, 80
6, 21872, Note_on_c, 4, 55, 80
6, 21914, Note_off_c, 4, 61, 64
6, 21914, Note_off_c, 4, 55, 64
6, 21953, Note_on_c, 4, 61, 80
6, 21953, Note_on_c, 4, 55, 80
6, 21995, Note_off_c, 4, 61, 64
6, 21996, Note_off_c, 4, 55, 64
6, 22036, Note_on_c, 4, 61, 80
6, 22036, Note_on_c, 4, 55, 80
6, 22076, Note_off_c, 4, 61, 64
6, 22076, Note_off_c, 4, 55, 64
6, 22277, Note_on_c, 4, 64, 82
6, 22277, Note_on_c, 4, 57, 64
6, 22277, Note_on_c, 4, 61, 82
6, 22306, Note_off_c, 4, 64, 64
6, 22312, Note_off_c, 4, 57, 64
6, 22320, Note_off_c, 4, 61, 64
6, 22358, Note_on_c, 4, 66, 73
6, 22358, Note_on_c, 4, 57, 73
6, 22358, Note_on_c, 4, 62, 73
6, 22396, Note_off_c, 4, 62, 64
6, 22402, Note_off_c, 4, 57, 64
6, 22404, Note_off_c, 4, 66, 64
6, 22439, Note_on_c, 4, 64, 100
6, 22439, Note_on_c, 4, 57, 73
6, 22441, Note_on_c, 4, 67, 91
6, 22933, Note_off_c, 4, 57, 64
6, 22935, Note_off_c, 4, 64, 64
6, 22939, Note_off_c, 4, 67, 64
6, 23007, Note_on_c, 4, 62, 82
6, 23007, Note_on_c, 4, 66, 82
6, 23007, Note_on_c, 4, 57, 82
6, 23068, Note_off_c, 4, 62, 64
6, 23078, Note_off_c, 4, 66, 64
6, 23088, Note_off_c, 4, 57, 64
6, 23088, Note_on_c, 4, 61, 91
6, 23088, Note_on_c, 4, 57, 56
6, 23088, Note_on_c, 4, 64, 82
6, 23131, Note_off_c, 4, 57, 64
6, 23135, Note_off_c, 4, 61, 64
6, 23135, Note_off_c, 4, 64, 64
6, 23574, Note_on_c, 4, 64, 73
6, 23574, Note_on_c, 4, 61, 82
6, 23574, Note_on_c, 4, 57, 64
6, 23600, Note_off_c, 4, 64, 64
6, 23602, Note_off_c, 4, 57, 64
6, 23608, Note_off_c, 4, 61, 64
6, 23656, Note_on_c, 4, 66, 64
6, 23656, Note_on_c, 4, 57, 60
6, 23656, Note_on_c, 4, 62, 73
6, 23687, Note_off_c, 4, 66, 64
6, 23687, Note_off_c, 4, 62, 64
6, 23689, Note_off_c, 4, 57, 64
6, 23737, Note_on_c, 4, 57, 82
6, 23737, Note_on_c, 4, 67, 64
6, 23737, Note_on_c, 4, 64, 91
6, 24247, Note_off_c, 4, 64, 64
6, 24250, Note_off_c, 4, 67, 64
6, 24250, Note_off_c, 4, 57, 64
6, 24306, Note_on_c, 4, 66, 82
6, 24306, Note_on_c, 4, 57, 64
6, 24306, Note_on_c, 4, 62, 82
6, 24364, Note_off_c, 4, 66, 64
6, 24369, Note_off_c, 4, 62, 64
6, 24378, Note_off_c, 4, 57, 64
6, 24384, Note_on_c, 4, 57, 73
6, 24384, Note_on_c, 4, 61, 91
6, 24384, Note_on_c, 4, 64, 82
6, 24432, Note_off_c, 4, 64, 64
6, 24433, Note_off_c, 4, 61, 64
6, 24434, Note_off_c, 4, 57, 64
6, 24873, Note_on_c, 4, 57, 82
6, 24873, Note_on_c, 4, 60, 91
6, 24906, Note_off_c, 4, 60, 64
6, 24911, Note_off_c, 4, 57, 64
6, 24954, Note_on_c, 4, 62, 64
6, 24954, Note_on_c, 4, 59, 73
6, 24988, Note_off_c, 4, 62, 64
6, 25000, Note_off_c, 4, 59, 64
6, 25035, Note_on_c, 4, 60, 91
6, 25038, Note_on_c, 4, 64, 91
6, 25564, Note_off_c, 4, 60, 64
6, 25581, Note_off_c, 4, 64, 64
6, 25604, Note_on_c, 4, 59, 73
6, 25604, Note_on_c, 4, 62, 82
6, 25672, Note_off_c, 4, 62, 64
6, 25676, Note_off_c, 4, 59, 64
6, 25684, Note_on_c, 4, 57, 91
6, 25684, Note_on_c, 4, 60, 91
6, 25724, Note_off_c, 4, 57, 64
6, 25726, Note_off_c, 4, 60, 64
6, 26170, Note_on_c, 4, 64, 82
6, 26170, Note_on_c, 4, 57, 64
6, 26170, Note_on_c, 4, 61, 91
6, 26194, Note_off_c, 4, 64, 64
6, 26200, Note_off_c, 4, 57, 64
6, 26203, Note_off_c, 4, 61, 64
6, 26252, Note_on_c, 4, 66, 82
6, 26252, Note_on_c, 4, 57, 64
6, 26252, Note_on_c, 4, 62, 73
6, 26282, Note_off_c, 4, 62, 64
6, 26284, Note_off_c, 4, 57, 64
6, 26286, Note_off_c, 4, 66, 64
6, 26333, Note_on_c, 4, 64, 73
6, 26333, Note_on_c, 4, 57, 73
6, 26333, Note_on_c, 4, 67, 91
6, 26849, Note_off_c, 4, 64, 64
6, 26858, Note_off_c, 4, 67, 64
6, 26863, Note_off_c, 4, 57, 64
6, 26901, Note_on_c, 4, 57, 64
6, 26901, Note_on_c, 4, 66, 73
6, 26901, Note_on_c, 4, 62, 82
6, 26964, Note_off_c, 4, 62, 64
6, 26971, Note_off_c, 4, 66, 64
6, 26979, Note_off_c, 4, 57, 64
6, 26982, Note_on_c, 4, 61, 91
6, 26982, Note_on_c, 4, 64, 82
6, 26984, Note_on_c, 4, 57, 31
6, 27025, Note_off_c, 4, 64, 64
6, 27028, Note_off_c, 4, 61, 64
6, 27037, Note_off_c, 4, 57, 64
6, 27468, Note_on_c, 4, 64, 80
6, 27468, Note_on_c, 4, 61, 82
6, 27468, Note_on_c, 4, 57, 73
6, 27496, Note_off_c, 4, 57, 64
6, 27498, Note_off_c, 4, 61, 64
6, 27509, Note_off_c, 4, 64, 64
6, 27550, Note_on_c, 4, 66, 64
6, 27550, Note_on_c, 4, 62, 80
6, 27550, Note_on_c, 4, 57, 16
6, 27551, Note_off_c, 4, 57, 64
6, 27561, Note_off_c, 4, 66, 64
6, 27591, Note_off_c, 4, 62, 64
6, 27631, Note_on_c, 4, 64, 100
6, 27631, Note_on_c, 4, 67, 100
6, 27631, Note_on_c, 4, 57, 82
6, 27826, Note_off_c, 4, 64, 64
6, 27846, Note_off_c, 4, 67, 64
6, 27874, Note_on_c, 4, 66, 60
6, 27874, Note_on_c, 4, 62, 64
6, 27935, Note_off_c, 4, 62, 64
6, 27938, Note_off_c, 4, 66, 64
6, 27955, Note_on_c, 4, 61, 91
6, 27955, Note_on_c, 4, 64, 82
6, 27989, Note_off_c, 4, 57, 64
6, 27994, Note_off_c, 4, 64, 64
6, 27995, Note_off_c, 4, 61, 64
6, 28279, Note_on_c, 4, 64, 91
6, 28279, Note_on_c, 4, 60, 100
6, 28497, Note_off_c, 4, 60, 64
6, 28523, Note_on_c, 4, 59, 64
6, 28523, Note_on_c, 4, 62, 64
6, 28532, Note_off_c, 4, 64, 64
6, 28597, Note_off_c, 4, 62, 64
6, 28602, Note_off_c, 4, 59, 64
6, 28604, Note_on_c, 4, 57, 82
6, 28604, Note_on_c, 4, 60, 82
6, 28639, Note_off_c, 4, 60, 64
6, 28641, Note_off_c, 4, 57, 64
6, 28766, Note_on_c, 4, 64, 82
6, 28766, Note_on_c, 4, 61, 82
6, 28766, Note_on_c, 4, 57, 73
6, 28790, Note_off_c, 4, 64, 64
6, 28798, Note_off_c, 4, 61, 64
6, 28798, Note_off_c, 4, 57, 64
6, 28847, Note_on_c, 4, 66, 73
6, 28847, Note_on_c, 4, 57, 64
6, 28847, Note_on_c, 4, 62, 73
6, 28877, Note_off_c, 4, 57, 64
6, 28879, Note_off_c, 4, 62, 64
6, 28882, Note_off_c, 4, 66, 64
6, 28929, Note_on_c, 4, 64, 82
6, 28929, Note_on_c, 4, 57, 73
6, 28934, Note_on_c, 4, 67, 91
6, 29468, Note_off_c, 4, 64, 64
6, 29482, Note_off_c, 4, 67, 64
6, 29486, Note_off_c, 4, 57, 64
6, 29496, Note_on_c, 4, 57, 25
6, 29496, Note_on_c, 4, 66, 64
6, 29496, Note_on_c, 4, 62, 73
6, 29558, Note_off_c, 4, 62, 64
6, 29565, Note_off_c, 4, 66, 64
6, 29578, Note_on_c, 4, 61, 91
6, 29578, Note_on_c, 4, 64, 91
6, 29623, Note_off_c, 4, 61, 64
6, 29623, Note_off_c, 4, 64, 64
6, 29627, Note_off_c, 4, 57, 64
6, 30308, Note_on_c, 4, 55, 56
6, 30308, Note_on_c, 4, 61, 73
6, 30326, Note_off_c, 4, 55, 64
6, 30334, Note_off_c, 4, 61, 64
6, 30389, Note_on_c, 4, 55, 60
6, 30389, Note_on_c, 4, 61, 73
6, 30414, Note_off_c, 4, 55, 64
6, 30414, Note_off_c, 4, 61, 64
6, 30470, Note_on_c, 4, 55, 73
6, 30470, Note_on_c, 4, 61, 73
6, 30503, Note_off_c, 4, 55, 64
6, 30505, Note_off_c, 4, 61, 64
6, 30957, Note_on_c, 4, 55, 73
6, 30957, Note_on_c, 4, 61, 91
6, 30987, Note_off_c, 4, 55, 64
6, 30991, Note_off_c, 4, 61, 64
6, 31038, Note_on_c, 4, 61, 73
6, 31038, Note_on_c, 4, 55, 64
6, 31066, Note_off_c, 4, 61, 64
6, 31068, Note_off_c, 4, 55, 64
6, 31118, Note_on_c, 4, 55, 64
6, 31118, Note_on_c, 4, 61, 82
6, 31149, Note_off_c, 4, 55, 64
6, 31152, Note_off_c, 4, 61, 64
6, 31605, Note_on_c, 4, 55, 73
6, 31605, Note_on_c, 4, 61, 91
6, 31637, Note_off_c, 4, 55, 64
6, 31637, Note_off_c, 4, 61, 64
6, 31686, Note_on_c, 4, 55, 64
6, 31686, Note_on_c, 4, 61, 82
6, 31719, Note_off_c, 4, 61, 64
6, 31720, Note_off_c, 4, 55, 64
6, 31768, Note_on_c, 4, 61, 82
6, 31768, Note_on_c, 4, 55, 73
6, 31799, Note_off_c, 4, 55, 64
6, 31801, Note_off_c, 4, 61, 64
6, 32255, Note_on_c, 4, 55, 73
6, 32255, Note_on_c, 4, 61, 91
6, 32278, Note_off_c, 4, 55, 64
6, 32282, Note_off_c, 4, 61, 64
6, 32332, Note_on_c, 4, 61, 91
6, 32332, Note_on_c, 4, 55, 64
6, 32360, Note_off_c, 4, 61, 64
6, 32362, Note_off_c, 4, 55, 64
6, 32413, Note_on_c, 4, 61, 82
6, 32413, Note_on_c, 4, 55, 73
6, 32444, Note_off_c, 4, 61, 64
6, 32446, Note_off_c, 4, 55, 64
6, 32900, Note_on_c, 4, 61, 91
6, 32900, Note_on_c, 4, 55, 82
6, 32927, Note_off_c, 4, 61, 64
6, 32927, Note_off_c, 4, 55, 64
6, 32982, Note_on_c, 4, 61, 82
6, 32983, Note_on_c, 4, 55, 64
6, 33010, Note_off_c, 4, 61, 64
6, 33010, Note_off_c, 4, 55, 64
6, 33065, Note_on_c, 4, 61, 91
6, 33065, Note_on_c, 4, 55, 73
6, 33094, Note_off_c, 4, 55, 64
6, 33095, Note_off_c, 4, 61, 64
6, 33555, Note_on_c, 4, 61, 91
6, 33556, Note_on_c, 4, 55, 82
6, 33579, Note_off_c, 4, 61, 64
6, 33581, Note_off_c, 4, 55, 64
6, 33634, Note_on_c, 4, 61, 91
6, 33634, Note_on_c, 4, 55, 73
6, 33663, Note_off_c, 4, 55, 64
6, 33664, Note_off_c, 4, 61, 64
6, 33715, Note_on_c, 4, 55, 64
6, 33715, Note_on_c, 4, 61, 82
6, 33745, Note_off_c, 4, 61, 64
6, 33749, Note_off_c, 4, 55, 64
6, 34202, Note_on_c, 4, 61, 91
6, 34202, Note_on_c, 4, 55, 73
6, 34229, Note_off_c, 4, 61, 64
6, 34230, Note_off_c, 4, 55, 64
6, 34283, Note_on_c, 4, 61, 91
6, 34283, Note_on_c, 4, 55, 64
6, 34309, Note_off_c, 4, 61, 64
6, 34313, Note_off_c, 4, 55, 64
6, 34365, Note_on_c, 4, 61, 91
6, 34365, Note_on_c, 4, 55, 73
6, 34389, Note_off_c, 4, 61, 64
6, 34390, Note_off_c, 4, 55, 64
6, 34851, Note_on_c, 4, 61, 80
6, 34851, Note_on_c, 4, 55, 80
6, 34892, Note_off_c, 4, 61, 64
6, 34892, Note_off_c, 4, 55, 64
6, 34932, Note_on_c, 4, 61, 80
6, 34932, Note_on_c, 4, 55, 80
6, 34974, Note_off_c, 4, 61, 64
6, 34974, Note_off_c, 4, 55, 64
6, 35013, Note_on_c, 4, 61, 80
6, 35013, Note_on_c, 4, 55, 80
6, 35055, Note_off_c, 4, 61, 64
6, 35055, Note_off_c, 4, 55, 64
6, 35256, Note_on_c, 4, 64, 82
6, 35256, Note_on_c, 4, 57, 64
6, 35256, Note_on_c, 4, 61, 82
6, 35285, Note_off_c, 4, 64, 64
6, 35292, Note_off_c, 4, 57, 64
6, 35300, Note_off_c, 4, 61, 64
6, 35337, Note_on_c, 4, 66, 73
6, 35337, Note_on_c, 4, 57, 73
6, 35337, Note_on_c, 4, 62, 73
6, 35376, Note_off_c, 4, 62, 64
6, 35381, Note_off_c, 4, 57, 64
6, 35382, Note_off_c, 4, 66, 64
6, 35419, Note_on_c, 4, 64, 100
6, 35419, Note_on_c, 4, 57, 73
6, 35419, Note_on_c, 4, 67, 91
6, 35912, Note_off_c, 4, 57, 64
6, 35914, Note_off_c, 4, 64, 64
6, 35918, Note_off_c, 4, 67, 64
6, 35986, Note_on_c, 4, 62, 82
6, 35986, Note_on_c, 4, 66, 82
6, 35986, Note_on_c, 4, 57, 82
6, 36048, Note_off_c, 4, 62, 64
6, 36058, Note_off_c, 4, 66, 64
6, 36068, Note_off_c, 4, 57, 64
6, 36068, Note_on_c, 4, 61, 91
6, 36068, Note_on_c, 4, 57, 56
6, 36068, Note_on_c, 4, 64, 82
6, 36112, Note_off_c, 4, 57, 64
6, 36114, Note_off_c, 4, 64, 64
6, 36114, Note_off_c, 4, 61, 64
6, 36554, Note_on_c, 4, 64, 73
6, 36554, Note_on_c, 4, 61, 82
6, 36554, Note_on_c, 4, 57, 64
6, 36579, Note_off_c, 4, 64, 64
6, 36583, Note_off_c, 4, 57, 64
6, 36588, Note_off_c, 4, 61, 64
6, 36635, Note_on_c, 4, 66, 64
6, 36635, Note_on_c, 4, 57, 60
6, 36635, Note_on_c, 4, 62, 73
6, 36667, Note_off_c, 4, 66, 64
6, 36667, Note_off_c, 4, 62, 64
6, 36670, Note_off_c, 4, 57, 64
6, 36717, Note_on_c, 4, 57, 82
6, 36717, Note_on_c, 4, 67, 64
6, 36717, Note_on_c, 4, 64, 91
6, 37227, Note_off_c, 4, 64, 64
6, 37230, Note_off_c, 4, 67, 64
6, 37230, Note_off_c, 4, 57, 64
6, 37285, Note_on_c, 4, 66, 82
6, 37285, Note_on_c, 4, 57, 64
6, 37285, Note_on_c, 4, 62, 82
6, 37343, Note_off_c, 4, 66, 64
6, 37348, Note_off_c, 4, 62, 64
6, 37356, Note_off_c, 4, 57, 64
6, 37365, Note_on_c, 4, 57, 73
6, 37365, Note_on_c, 4, 61, 91
6, 37365, Note_on_c, 4, 64, 82
6, 37412, Note_off_c, 4, 64, 64
6, 37414, Note_off_c, 4, 61, 64
6, 37415, Note_off_c, 4, 57, 64
6, 37852, Note_on_c, 4, 57, 82
6, 37852, Note_on_c, 4, 60, 91
6, 37886, Note_off_c, 4, 60, 64
6, 37889, Note_off_c, 4, 57, 64
6, 37933, Note_on_c, 4, 62, 64
6, 37933, Note_on_c, 4, 59, 73
6, 37967, Note_off_c, 4, 62, 64
6, 37978, Note_off_c, 4, 59, 64
6, 38015, Note_on_c, 4, 60, 91
6, 38015, Note_on_c, 4, 64, 91
6, 38544, Note_off_c, 4, 60, 64
6, 38561, Note_off_c, 4, 64, 64
6, 38582, Note_on_c, 4, 59, 73
6, 38582, Note_on_c, 4, 62, 82
6, 38651, Note_off_c, 4, 62, 64
6, 38655, Note_off_c, 4, 59, 64
6, 38664, Note_on_c, 4, 57, 91
6, 38664, Note_on_c, 4, 60, 91
6, 38704, Note_off_c, 4, 57, 64
6, 38705, Note_off_c, 4, 60, 64
6, 39150, Note_on_c, 4, 64, 82
6, 39150, Note_on_c, 4, 57, 64
6, 39150, Note_on_c, 4, 61, 91
6, 39174, Note_off_c, 4, 64, 64
6, 39180, Note_off_c, 4, 57, 64
6, 39184, Note_off_c, 4, 61, 64
6, 39232, Note_on_c, 4, 66, 82
6, 39232, Note_on_c, 4, 57, 64
6, 39232, Note_on_c, 4, 62, 73
6, 39261, Note_off_c, 4, 62, 64
6, 39263, Note_off_c, 4, 57, 64
6, 39264, Note_off_c, 4, 66, 64
6, 39313, Note_on_c, 4, 64, 73
6, 39313, Note_on_c, 4, 57, 73
6, 39315, Note_on_c, 4, 67, 91
6, 39828, Note_off_c, 4, 64, 64
6, 39838, Note_off_c, 4, 67, 64
6, 39842, Note_off_c, 4, 57, 64
6, 39880, Note_on_c, 4, 57, 64
6, 39880, Note_on_c, 4, 66, 73
6, 39880, Note_on_c, 4, 62, 82
6, 39944, Note_off_c, 4, 62, 64
6, 39950, Note_off_c, 4, 66, 64
6, 39958, Note_off_c, 4, 57, 64
6, 39962, Note_on_c, 4, 61, 91
6, 39962, Note_on_c, 4, 64, 82
6, 39962, Note_on_c, 4, 57, 31
6, 40005, Note_off_c, 4, 64, 64
6, 40008, Note_off_c, 4, 61, 64
6, 40016, Note_off_c, 4, 57, 64
6, 40448, Note_on_c, 4, 64, 80
6, 40448, Note_on_c, 4, 61, 82
6, 40450, Note_on_c, 4, 57, 73
6, 40475, Note_off_c, 4, 57, 64
6, 40478, Note_off_c, 4, 61, 64
6, 40489, Note_off_c, 4, 64, 64
6, 40528, Note_on_c, 4, 62, 80
6, 40528, Note_on_c, 4, 66, 64
6, 40528, Note_on_c, 4, 57, 16
6, 40529, Note_off_c, 4, 57, 64
6, 40540, Note_off_c, 4, 66, 64
6, 40571, Note_off_c, 4, 62, 64
6, 40610, Note_on_c, 4, 64, 100
6, 40610, Note_on_c, 4, 67, 100
6, 40610, Note_on_c, 4, 57, 82
6, 40806, Note_off_c, 4, 64, 64
6, 40824, Note_off_c, 4, 67, 64
6, 40854, Note_on_c, 4, 66, 60
6, 40854, Note_on_c, 4, 62, 64
6, 40914, Note_off_c, 4, 62, 64
6, 40917, Note_off_c, 4, 66, 64
6, 40935, Note_on_c, 4, 61, 91
6, 40935, Note_on_c, 4, 64, 82
6, 40968, Note_off_c, 4, 57, 64
6, 40973, Note_off_c, 4, 64, 64
6, 40975, Note_off_c, 4, 61, 64
6, 41260, Note_on_c, 4, 64, 91
6, 41260, Note_on_c, 4, 60, 100
6, 41477, Note_off_c, 4, 60, 64
6, 41503, Note_on_c, 4, 59, 64
6, 41505, Note_on_c, 4, 62, 64
6, 41513, Note_off_c, 4, 64, 64
6, 41577, Note_off_c, 4, 62, 64
6, 41582, Note_off_c, 4, 59, 64
6, 41584, Note_on_c, 4, 57, 82
6, 41584, Note_on_c, 4, 60, 82
6, 41619, Note_off_c, 4, 60, 64
6, 41621, Note_off_c, 4, 57, 64
6, 41746, Note_on_c, 4, 64, 82
6, 41746, Note_on_c, 4, 61, 82
6, 41746, Note_on_c, 4, 57, 73
6, 41770, Note_off_c, 4, 64, 64
6, 41778, Note_off_c, 4, 61, 64
6, 41778, Note_off_c, 4, 57, 64
6, 41827, Note_on_c, 4, 66, 73
6, 41827, Note_on_c, 4, 57, 64
6, 41827, Note_on_c, 4, 62, 73
6, 41857, Note_off_c, 4, 57, 64
6, 41859, Note_off_c, 4, 62, 64
6, 41862, Note_off_c, 4, 66, 64
6, 41909, Note_on_c, 4, 64, 82
6, 41909, Note_on_c, 4, 57, 73
6, 41909, Note_on_c, 4, 67, 91
6, 42448, Note_off_c, 4, 64, 64
6, 42461, Note_off_c, 4, 67, 64
6, 42466, Note_off_c, 4, 57, 64
6, 42476, Note_on_c, 4, 57, 25
6, 42476, Note_on_c, 4, 66, 64
6, 42476, Note_on_c, 4, 62, 73
6, 42537, Note_off_c, 4, 62, 64
6, 42545, Note_off_c, 4, 66, 64
6, 42558, Note_on_c, 4, 61, 91
6, 42558, Note_on_c, 4, 64, 91
6, 42602, Note_off_c, 4, 61, 64
6, 42602, Note_off_c, 4, 64, 64
6, 42607, Note_off_c, 4, 57, 64
6, 43287, Note_on_c, 4, 55, 56
6, 43287, Note_on_c, 4, 61, 73
6, 43305, Note_off_c, 4, 55, 64
6, 43313, Note_off_c, 4, 61, 64
6, 43369, Note_on_c, 4, 55, 60
6, 43370, Note_on_c, 4, 61, 73
6, 43394, Note_off_c, 4, 55, 64
6, 43394, Note_off_c, 4, 61, 64
6, 43449, Note_on_c, 4, 55, 73
6, 43449, Note_on_c, 4, 61, 73
6, 43483, Note_off_c, 4, 55, 64
6, 43484, Note_off_c, 4, 61, 64
6, 43939, Note_on_c, 4, 55, 73
6, 43939, Note_on_c, 4, 61, 91
6, 43967, Note_off_c, 4, 55, 64
6, 43969, Note_off_c, 4, 61, 64
6, 44018, Note_on_c, 4, 61, 73
6, 44018, Note_on_c, 4, 55, 64
6, 44046, Note_off_c, 4, 61, 64
6, 44048, Note_off_c, 4, 55, 64
6, 44099, Note_on_c, 4, 55, 64
6, 44099, Note_on_c, 4, 61, 82
6, 44129, Note_off_c, 4, 55, 64
6, 44132, Note_off_c, 4, 61, 64
6, 44585, Note_on_c, 4, 55, 73
6, 44585, Note_on_c, 4, 61, 91
6, 44617, Note_off_c, 4, 55, 64
6, 44617, Note_off_c, 4, 61, 64
6, 44667, Note_on_c, 4, 55, 64
6, 44667, Note_on_c, 4, 61, 82
6, 44698, Note_off_c, 4, 61, 64
6, 44700, Note_off_c, 4, 55, 64
6, 44747, Note_on_c, 4, 61, 82
6, 44747, Note_on_c, 4, 55, 73
6, 44780, Note_off_c, 4, 55, 64
6, 44781, Note_off_c, 4, 61, 64
6, 45235, Note_on_c, 4, 55, 73
6, 45235, Note_on_c, 4, 61, 91
6, 45262, Note_off_c, 4, 55, 64
6, 45266, Note_off_c, 4, 61, 64
6, 45316, Note_on_c, 4, 61, 91
6, 45316, Note_on_c, 4, 55, 64
6, 45344, Note_off_c, 4, 61, 64
6, 45346, Note_off_c, 4, 55, 64
6, 45397, Note_on_c, 4, 61, 82
6, 45397, Note_on_c, 4, 55, 73
6, 45429, Note_off_c, 4, 61, 64
6, 45429, Note_off_c, 4, 55, 64
6, 45883, Note_on_c, 4, 61, 91
6, 45883, Note_on_c, 4, 55, 82
6, 45910, Note_off_c, 4, 61, 64
6, 45910, Note_off_c, 4, 55, 64
6, 45964, Note_on_c, 4, 61, 82
6, 45964, Note_on_c, 4, 55, 64
6, 45993, Note_off_c, 4, 61, 64
6, 45993, Note_off_c, 4, 55, 64
6, 46045, Note_on_c, 4, 61, 91
6, 46045, Note_on_c, 4, 55, 73
6, 46074, Note_off_c, 4, 55, 64
6, 46075, Note_off_c, 4, 61, 64
6, 46533, Note_on_c, 4, 61, 91
6, 46533, Note_on_c, 4, 55, 82
6, 46559, Note_off_c, 4, 61, 64
6, 46561, Note_off_c, 4, 55, 64
6, 46614, Note_on_c, 4, 61, 91
6, 46614, Note_on_c, 4, 55, 73
6, 46642, Note_off_c, 4, 55, 64
6, 46644, Note_off_c, 4, 61, 64
6, 46695, Note_on_c, 4, 55, 64
6, 46695, Note_on_c, 4, 61, 82
6, 46725, Note_off_c, 4, 61, 64
6, 46728, Note_off_c, 4, 55, 64
6, 47181, Note_on_c, 4, 61, 91
6, 47181, Note_on_c, 4, 55, 73
6, 47208, Note_off_c, 4, 61, 64
6, 47210, Note_off_c, 4, 55, 64
6, 47263, Note_on_c, 4, 61, 91
6, 47263, Note_on_c, 4, 55, 64
6, 47289, Note_off_c, 4, 61, 64
6, 47293, Note_off_c, 4, 55, 64
6, 47343, Note_on_c, 4, 61, 91
6, 47345, Note_on_c, 4, 55, 73
6, 47368, Note_off_c, 4, 61, 64
6, 47369, Note_off_c, 4, 55, 64
6, 47831, Note_on_c, 4, 61, 80
6, 47831, Note_on_c, 4, 55, 80
6, 47873, Note_off_c, 4, 61, 64
6, 47873, Note_off_c, 4, 55, 64
6, 47912, Note_on_c, 4, 61, 80
6, 47912, Note_on_c, 4, 55, 80
6, 47953, Note_off_c, 4, 61, 64
6, 47953, Note_off_c, 4, 55, 64
6, 47992, Note_on_c, 4, 61, 80
6, 47994, Note_on_c, 4, 55, 80
6, 48035, Note_off_c, 4, 61, 64
6, 48035, Note_off_c, 4, 55, 64
6, 48236, Note_on_c, 4, 64, 82
6, 48236, Note_on_c, 4, 57, 64
6, 48236, Note_on_c, 4, 61, 82
6, 48264, Note_off_c, 4, 64, 64
6, 48271, Note_off_c, 4, 57, 64
6, 48280, Note_off_c, 4, 61, 64
6, 48317, Note_on_c, 4, 66, 73
6, 48317, Note_on_c, 4, 57, 73
6, 48317, Note_on_c, 4, 62, 73
6, 48355, Note_off_c, 4, 62, 64
6, 48361, Note_off_c, 4, 57, 64
6, 48362, Note_off_c, 4, 66, 64
6, 48398, Note_on_c, 4, 64, 100
6, 48398, Note_on_c, 4, 57, 73
6, 48398, Note_on_c, 4, 67, 91
6, 48891, Note_off_c, 4, 57, 64
6, 48893, Note_off_c, 4, 64, 64
6, 48898, Note_off_c, 4, 67, 64
6, 48965, Note_on_c, 4, 62, 82
6, 48965, Note_on_c, 4, 66, 82
6, 48965, Note_on_c, 4, 57, 82
6, 49026, Note_off_c, 4, 62, 64
6, 49036, Note_off_c, 4, 66, 64
6, 49047, Note_off_c, 4, 57, 64
6, 49047, Note_on_c, 4, 61, 91
6, 49047, Note_on_c, 4, 57, 56
6, 49049, Note_on_c, 4, 64, 82
6, 49091, Note_off_c, 4, 57, 64
6, 49094, Note_off_c, 4, 61, 64
6, 49094, Note_off_c, 4, 64, 64
6, 49534, Note_on_c, 4, 64, 73
6, 49534, Note_on_c, 4, 61, 82
6, 49534, Note_on_c, 4, 57, 64
6, 49559, Note_off_c, 4, 64, 64
6, 49562, Note_off_c, 4, 57, 64
6, 49568, Note_off_c, 4, 61, 64
6, 49615, Note_on_c, 4, 66, 64
6, 49615, Note_on_c, 4, 57, 60
6, 49617, Note_on_c, 4, 62, 73
6, 49647, Note_off_c, 4, 66, 64
6, 49647, Note_off_c, 4, 57, 64
6, 49647, Note_off_c, 4, 62, 64
6, 49696, Note_on_c, 4, 57, 82
6, 49696, Note_on_c, 4, 67, 64
6, 49696, Note_on_c, 4, 64, 91
6, 50206, Note_off_c, 4, 64, 64
6, 50209, Note_off_c, 4, 67, 64
6, 50209, Note_off_c, 4, 57, 64
6, 50263, Note_on_c, 4, 66, 82
6, 50263, Note_on_c, 4, 57, 64
6, 50263, Note_on_c, 4, 62, 82
6, 50323, Note_off_c, 4, 66, 64
6, 50327, Note_off_c, 4, 62, 64
6, 50336, Note_off_c, 4, 57, 64
6, 50345, Note_on_c, 4, 57, 73
6, 50345, Note_on_c, 4, 61, 91
6, 50345, Note_on_c, 4, 64, 82
6, 50392, Note_off_c, 4, 64, 64
6, 50393, Note_off_c, 4, 61, 64
6, 50395, Note_off_c, 4, 57, 64
6, 50832, Note_on_c, 4, 57, 82
6, 50832, Note_on_c, 4, 60, 91
6, 50866, Note_off_c, 4, 60, 64
6, 50869, Note_off_c, 4, 57, 64
6, 50913, Note_on_c, 4, 62, 64
6, 50913, Note_on_c, 4, 59, 73
6, 50946, Note_off_c, 4, 62, 64
6, 50958, Note_off_c, 4, 59, 64
6, 50993, Note_on_c, 4, 60, 91
6, 50995, Note_on_c, 4, 64, 91
6, 51522, Note_off_c, 4, 60, 64
6, 51540, Note_off_c, 4, 64, 64
6, 51561, Note_on_c, 4, 59, 73
6, 51561, Note_on_c, 4, 62, 82
6, 51631, Note_off_c, 4, 62, 64
6, 51634, Note_off_c, 4, 59, 64
6, 51643, Note_on_c, 4, 57, 91
6, 51643, Note_on_c, 4, 60, 91
6, 51683, Note_off_c, 4, 57, 64
6, 51685, Note_off_c, 4, 60, 64
6, 52130, Note_on_c, 4, 64, 82
6, 52130, Note_on_c, 4, 57, 64
6, 52130, Note_on_c, 4, 61, 91
6, 52153, Note_off_c, 4, 64, 64
6, 52160, Note_off_c, 4, 57, 64
6, 52161, Note_off_c, 4, 61, 64
6, 52210, Note_on_c, 4, 66, 82
6, 52210, Note_on_c, 4, 57, 64
6, 52210, Note_on_c, 4, 62, 73
6, 52241, Note_off_c, 4, 62, 64
6, 52243, Note_off_c, 4, 57, 64
6, 52244, Note_off_c, 4, 66, 64
6, 52292, Note_on_c, 4, 64, 73
6, 52292, Note_on_c, 4, 57, 73
6, 52294, Note_on_c, 4, 67, 91
6, 52807, Note_off_c, 4, 64, 64
6, 52816, Note_off_c, 4, 67, 64
6, 52823, Note_off_c, 4, 57, 64
6, 52859, Note_on_c, 4, 57, 64
6, 52859, Note_on_c, 4, 66, 73
6, 52859, Note_on_c, 4, 62, 82
6, 52923, Note_off_c, 4, 62, 64
6, 52930, Note_off_c, 4, 66, 64
6, 52939, Note_off_c, 4, 57, 64
6, 52941, Note_on_c, 4, 61, 91
6, 52941, Note_on_c, 4, 64, 82
6, 52941, Note_on_c, 4, 57, 31
6, 52984, Note_off_c, 4, 64, 64
6, 52987, Note_off_c, 4, 61, 64
6, 52996, Note_off_c, 4, 57, 64
6, 53428, Note_on_c, 4, 64, 80
6, 53428, Note_on_c, 4, 61, 82
6, 53428, Note_on_c, 4, 57, 73
6, 53456, Note_off_c, 4, 57, 64
6, 53458, Note_off_c, 4, 61, 64
6, 53469, Note_off_c, 4, 64, 64
6, 53508, Note_on_c, 4, 62, 80
6, 53508, Note_on_c, 4, 66, 64
6, 53508, Note_on_c, 4, 57, 16
6, 53509, Note_off_c, 4, 57, 64
6, 53520, Note_off_c, 4, 66, 64
6, 53550, Note_off_c, 4, 62, 64
6, 53592, Note_on_c, 4, 64, 100
6, 53593, Note_on_c, 4, 67, 100
6, 53594, Note_on_c, 4, 57, 82
6, 53786, Note_off_c, 4, 64, 64
6, 53804, Note_off_c, 4, 67, 64
6, 53833, Note_on_c, 4, 66, 60
6, 53833, Note_on_c, 4, 62, 64
6, 53894, Note_off_c, 4, 62, 64
6, 53897, Note_off_c, 4, 66, 64
6, 53914, Note_on_c, 4, 61, 91
6, 53914, Note_on_c, 4, 64, 82
6, 53948, Note_off_c, 4, 57, 64
6, 53952, Note_off_c, 4, 64, 64
6, 53955, Note_off_c, 4, 61, 64
6, 54239, Note_on_c, 4, 64, 91
6, 54239, Note_on_c, 4, 60, 100
6, 54457, Note_off_c, 4, 60, 64
6, 54483, Note_on_c, 4, 59, 64
6, 54483, Note_on_c, 4, 62, 64
6, 54492, Note_off_c, 4, 64, 64
6, 54557, Note_off_c, 4, 62, 64
6, 54561, Note_off_c, 4, 59, 64
6, 54564, Note_on_c, 4, 57, 82
6, 54567, Note_on_c, 4, 60, 82
6, 54600, Note_off_c, 4, 60, 64
6, 54601, Note_off_c, 4, 57, 64
6, 54725, Note_on_c, 4, 64, 82
6, 54725, Note_on_c, 4, 61, 82
6, 54725, Note_on_c, 4, 57, 73
6, 54749, Note_off_c, 4, 64, 64
6, 54758, Note_off_c, 4, 61, 64
6, 54758, Note_off_c, 4, 57, 64
6, 54807, Note_on_c, 4, 66, 73
6, 54807, Note_on_c, 4, 57, 64
6, 54807, Note_on_c, 4, 62, 73
6, 54837, Note_off_c, 4, 57, 64
6, 54839, Note_off_c, 4, 62, 64
6, 54843, Note_off_c, 4, 66, 64
6, 54888, Note_on_c, 4, 64, 82
6, 54888, Note_on_c, 4, 57, 73
6, 54889, Note_on_c, 4, 67, 91
6, 55426, Note_off_c, 4, 64, 64
6, 55440, Note_off_c, 4, 67, 64
6, 55445, Note_off_c, 4, 57, 64
6, 55455, Note_on_c, 4, 57, 25
6, 55455, Note_on_c, 4, 66, 64
6, 55455, Note_on_c, 4, 62, 73
6, 55516, Note_off_c, 4, 62, 64
6, 55525, Note_off_c, 4, 66, 64
6, 55537, Note_on_c, 4, 61, 91
6, 55538, Note_on_c, 4, 64, 91
6, 55582, Note_off_c, 4, 61, 64
6, 55582, Note_off_c, 4, 64, 64
6, 55588, Note_off_c, 4, 57, 64
6, 56267, Note_on_c, 4, 55, 56
6, 56267, Note_on_c, 4, 61, 73
6, 56286, Note_off_c, 4, 55, 64
6, 56294, Note_off_c, 4, 61, 64
6, 56349, Note_on_c, 4, 55, 60
6, 56349, Note_on_c, 4, 61, 73
6, 56373, Note_off_c, 4, 55, 64
6, 56373, Note_off_c, 4, 61, 64
6, 56430, Note_on_c, 4, 55, 73
6, 56430, Note_on_c, 4, 61, 73
6, 56463, Note_off_c, 4, 55, 64
6, 56465, Note_off_c, 4, 61, 64
6, 56915, Note_on_c, 4, 55, 73
6, 56915, Note_on_c, 4, 61, 91
6, 56945, Note_off_c, 4, 55, 64
6, 56949, Note_off_c, 4, 61, 64
6, 56997, Note_on_c, 4, 61, 73
6, 56997, Note_on_c, 4, 55, 64
6, 57025, Note_off_c, 4, 61, 64
6, 57027, Note_off_c, 4, 55, 64
6, 57078, Note_on_c, 4, 55, 64
6, 57078, Note_on_c, 4, 61, 82
6, 57108, Note_off_c, 4, 55, 64
6, 57111, Note_off_c, 4, 61, 64
6, 57564, Note_on_c, 4, 55, 73
6, 57564, Note_on_c, 4, 61, 91
6, 57597, Note_off_c, 4, 55, 64
6, 57597, Note_off_c, 4, 61, 64
6, 57645, Note_on_c, 4, 55, 64
6, 57645, Note_on_c, 4, 61, 82
6, 57677, Note_off_c, 4, 61, 64
6, 57680, Note_off_c, 4, 55, 64
6, 57727, Note_on_c, 4, 61, 82
6, 57727, Note_on_c, 4, 55, 73
6, 57758, Note_off_c, 4, 55, 64
6, 57760, Note_off_c, 4, 61, 64
6, 58213, Note_on_c, 4, 55, 73
6, 58215, Note_on_c, 4, 61, 91
6, 58240, Note_off_c, 4, 55, 64
6, 58245, Note_off_c, 4, 61, 64
6, 58294, Note_on_c, 4, 61, 91
6, 58294, Note_on_c, 4, 55, 64
6, 58323, Note_off_c, 4, 61, 64
6, 58324, Note_off_c, 4, 55, 64
6, 58375, Note_on_c, 4, 61, 82
6, 58375, Note_on_c, 4, 55, 73
6, 58407, Note_off_c, 4, 61, 64
6, 58409, Note_off_c, 4, 55, 64
6, 58862, Note_on_c, 4, 61, 91
6, 58862, Note_on_c, 4, 55, 82
6, 58889, Note_off_c, 4, 61, 64
6, 58889, Note_off_c, 4, 55, 64
6, 58942, Note_on_c, 4, 61, 82
6, 58942, Note_on_c, 4, 55, 64
6, 58972, Note_off_c, 4, 61, 64
6, 58972, Note_off_c, 4, 55, 64
6, 59024, Note_on_c, 4, 61, 91
6, 59024, Note_on_c, 4, 55, 73
6, 59052, Note_off_c, 4, 55, 64
6, 59054, Note_off_c, 4, 61, 64
6, 59510, Note_on_c, 4, 61, 91
6, 59510, Note_on_c, 4, 55, 82
6, 59537, Note_off_c, 4, 61, 64
6, 59538, Note_off_c, 4, 55, 64
6, 59591, Note_on_c, 4, 61, 91
6, 59591, Note_on_c, 4, 55, 73
6, 59619, Note_off_c, 4, 55, 64
6, 59621, Note_off_c, 4, 61, 64
6, 59672, Note_on_c, 4, 55, 64
6, 59672, Note_on_c, 4, 61, 82
6, 59701, Note_off_c, 4, 61, 64
6, 59705, Note_off_c, 4, 55, 64
6, 60160, Note_on_c, 4, 61, 91
6, 60160, Note_on_c, 4, 55, 73
6, 60186, Note_off_c, 4, 61, 64
6, 60188, Note_off_c, 4, 55, 64
6, 60240, Note_on_c, 4, 61, 91
6, 60240, Note_on_c, 4, 55, 64
6, 60267, Note_off_c, 4, 61, 64
6, 60271, Note_off_c, 4, 55, 64
6, 60322, Note_on_c, 4, 61, 91
6, 60322, Note_on_c, 4, 55, 73
6, 60346, Note_off_c, 4, 61, 64
6, 60349, Note_off_c, 4, 55, 64
6, 60809, Note_on_c, 4, 61, 80
6, 60809, Note_on_c, 4, 55, 80
6, 60851, Note_off_c, 4, 61, 64
6, 60851, Note_off_c, 4, 55, 64
6, 60890, Note_on_c, 4, 61, 80
6, 60890, Note_on_c, 4, 55, 80
6, 60932, Note_off_c, 4, 61, 64
6, 60932, Note_off_c, 4, 55, 64
6, 60972, Note_on_c, 4, 61, 80
6, 60974, Note_on_c, 4, 55, 80
6, 61013, Note_off_c, 4, 61, 64
6, 61013, Note_off_c, 4, 55, 64
6, 61213, Note_on_c, 4, 64, 82
6, 61213, Note_on_c, 4, 57, 64
6, 61213, Note_on_c, 4, 61, 82
6, 61242, Note_off_c, 4, 64, 64
6, 61249, Note_off_c, 4, 57, 64
6, 61257, Note_off_c, 4, 61, 64
6, 61295, Note_on_c, 4, 66, 73
6, 61295, Note_on_c, 4, 57, 73
6, 61295, Note_on_c, 4, 62, 73
6, 61333, Note_off_c, 4, 62, 64
6, 61339, Note_off_c, 4, 57, 64
6, 61340, Note_off_c, 4, 66, 64
6, 61377, Note_on_c, 4, 64, 100
6, 61377, Note_on_c, 4, 57, 73
6, 61381, Note_on_c, 4, 67, 91
6, 61869, Note_off_c, 4, 57, 64
6, 61871, Note_off_c, 4, 64, 64
6, 61876, Note_off_c, 4, 67, 64
6, 61944, Note_on_c, 4, 62, 82
6, 61944, Note_on_c, 4, 66, 82
6, 61944, Note_on_c, 4, 57, 82
6, 62005, Note_off_c, 4, 62, 64
6, 62015, Note_off_c, 4, 66, 64
6, 62025, Note_off_c, 4, 57, 64
6, 62025, Note_on_c, 4, 61, 91
6, 62025, Note_on_c, 4, 57, 56
6, 62025, Note_on_c, 4, 64, 82
6, 62068, Note_off_c, 4, 57, 64
6, 62071, Note_off_c, 4, 61, 64
6, 62071, Note_off_c, 4, 64, 64
6, 62511, Note_on_c, 4, 64, 73
6, 62511, Note_on_c, 4, 61, 82
6, 62511, Note_on_c, 4, 57, 64
6, 62537, Note_off_c, 4, 64, 64
6, 62540, Note_off_c, 4, 57, 64
6, 62545, Note_off_c, 4, 61, 64
6, 62593, Note_on_c, 4, 66, 64
6, 62593, Note_on_c, 4, 57, 60
6, 62593, Note_on_c, 4, 62, 73
6, 62625, Note_off_c, 4, 66, 64
6, 62625, Note_off_c, 4, 62, 64
6, 62627, Note_off_c, 4, 57, 64
6, 62674, Note_on_c, 4, 57, 82
6, 62674, Note_on_c, 4, 67, 64
6, 62677, Note_on_c, 4, 64, 91
6, 63185, Note_off_c, 4, 64, 64
6, 63188, Note_off_c, 4, 67, 64
6, 63188, Note_off_c, 4, 57, 64
6, 63242, Note_on_c, 4, 66, 82
6, 63242, Note_on_c, 4, 57, 64
6, 63242, Note_on_c, 4, 62, 82
6, 63300, Note_off_c, 4, 66, 64
6, 63306, Note_off_c, 4, 62, 64
6, 63314, Note_off_c, 4, 57, 64
6, 63323, Note_on_c, 4, 57, 73
6, 63323, Note_on_c, 4, 61, 91
6, 63323, Note_on_c, 4, 64, 82
6, 63369, Note_off_c, 4, 64, 64
6, 63371, Note_off_c, 4, 61, 64
6, 63372, Note_off_c, 4, 57, 64
6, 63810, Note_on_c, 4, 57, 82
6, 63810, Note_on_c, 4, 60, 91
6, 63844, Note_off_c, 4, 60, 64
6, 63847, Note_off_c, 4, 57, 64
6, 63891, Note_on_c, 4, 62, 64
6, 63891, Note_on_c, 4, 59, 73
6, 63924, Note_off_c, 4, 62, 64
6, 63936, Note_off_c, 4, 59, 64
6, 63973, Note_on_c, 4, 60, 91
6, 63973, Note_on_c, 4, 64, 91
6, 64501, Note_off_c, 4, 60, 64
6, 64518, Note_off_c, 4, 64, 64
6, 64541, Note_on_c, 4, 59, 73
6, 64541, Note_on_c, 4, 62, 82
6, 64610, Note_off_c, 4, 62, 64
6, 64613, Note_off_c, 4, 59, 64
6, 64621, Note_on_c, 4, 57, 91
6, 64621, Note_on_c, 4, 60, 91
6, 64662, Note_off_c, 4, 57, 64
6, 64664, Note_off_c, 4, 60, 64
6, 65108, Note_on_c, 4, 64, 82
6, 65108, Note_on_c, 4, 57, 64
6, 65108, Note_on_c, 4, 61, 91
6, 65132, Note_off_c, 4, 64, 64
6, 65138, Note_off_c, 4, 57, 64
6, 65141, Note_off_c, 4, 61, 64
6, 65190, Note_on_c, 4, 66, 82
6, 65190, Note_on_c, 4, 57, 64
6, 65190, Note_on_c, 4, 62, 73
6, 65220, Note_off_c, 4, 57, 64
6, 65220, Note_off_c, 4, 62, 64
6, 65223, Note_off_c, 4, 66, 64
6, 65270, Note_on_c, 4, 64, 73
6, 65270, Note_on_c, 4, 57, 73
6, 65272, Note_on_c, 4, 67, 91
6, 65786, Note_off_c, 4, 64, 64
6, 65796, Note_off_c, 4, 67, 64
6, 65800, Note_off_c, 4, 57, 64
6, 65838, Note_on_c, 4, 57, 64
6, 65838, Note_on_c, 4, 66, 73
6, 65840, Note_on_c, 4, 62, 82
6, 65902, Note_off_c, 4, 62, 64
6, 65909, Note_off_c, 4, 66, 64
6, 65918, Note_off_c, 4, 57, 64
6, 65920, Note_on_c, 4, 61, 91
6, 65920, Note_on_c, 4, 64, 82
6, 65922, Note_on_c, 4, 57, 31
6, 65963, Note_off_c, 4, 64, 64
6, 65966, Note_off_c, 4, 61, 64
6, 65975, Note_off_c, 4, 57, 64
6, 66406, Note_on_c, 4, 64, 80
6, 66406, Note_on_c, 4, 61, 82
6, 66406, Note_on_c, 4, 57, 73
6, 66435, Note_off_c, 4, 57, 64
6, 66436, Note_off_c, 4, 61, 64
6, 66448, Note_off_c, 4, 64, 64
6, 66487, Note_on_c, 4, 62, 80
6, 66487, Note_on_c, 4, 66, 64
6, 66487, Note_on_c, 4, 57, 16
6, 66488, Note_off_c, 4, 57, 64
6, 66498, Note_off_c, 4, 66, 64
6, 66529, Note_off_c, 4, 62, 64
6, 66569, Note_on_c, 4, 64, 100
6, 66569, Note_on_c, 4, 67, 100
6, 66569, Note_on_c, 4, 57, 82
6, 66763, Note_off_c, 4, 64, 64
6, 66782, Note_off_c, 4, 67, 64
6, 66812, Note_on_c, 4, 66, 60
6, 66813, Note_on_c, 4, 62, 64
6, 66872, Note_off_c, 4, 62, 64
6, 66875, Note_off_c, 4, 66, 64
6, 66892, Note_on_c, 4, 61, 91
6, 66892, Note_on_c, 4, 64, 82
6, 66927, Note_off_c, 4, 57, 64
6, 66930, Note_off_c, 4, 64, 64
6, 66932, Note_off_c, 4, 61, 64
6, 67217, Note_on_c, 4, 64, 91
6, 67217, Note_on_c, 4, 60, 100
6, 67434, Note_off_c, 4, 60, 64
6, 67461, Note_on_c, 4, 59, 64
6, 67461, Note_on_c, 4, 62, 64
6, 67469, Note_off_c, 4, 64, 64
6, 67535, Note_off_c, 4, 62, 64
6, 67540, Note_off_c, 4, 59, 64
6, 67541, Note_on_c, 4, 57, 82
6, 67541, Note_on_c, 4, 60, 82
6, 67577, Note_off_c, 4, 60, 64
6, 67578, Note_off_c, 4, 57, 64
6, 67703, Note_on_c, 4, 64, 82
6, 67703, Note_on_c, 4, 61, 82
6, 67703, Note_on_c, 4, 57, 73
6, 67727, Note_off_c, 4, 64, 64
6, 67735, Note_off_c, 4, 61, 64
6, 67735, Note_off_c, 4, 57, 64
6, 67784, Note_on_c, 4, 66, 73
6, 67784, Note_on_c, 4, 57, 64
6, 67784, Note_on_c, 4, 62, 73
6, 67816, Note_off_c, 4, 57, 64
6, 67816, Note_off_c, 4, 62, 64
6, 67820, Note_off_c, 4, 66, 64
6, 67866, Note_on_c, 4, 64, 82
6, 67866, Note_on_c, 4, 57, 73
6, 67867, Note_on_c, 4, 67, 91
6, 68405, Note_off_c, 4, 64, 64
6, 68419, Note_off_c, 4, 67, 64
6, 68423, Note_off_c, 4, 57, 64
6, 68434, Note_on_c, 4, 57, 25
6, 68434, Note_on_c, 4, 66, 64
6, 68434, Note_on_c, 4, 62, 73
6, 68493, Note_off_c, 4, 62, 64
6, 68501, Note_off_c, 4, 66, 64
6, 68514, Note_on_c, 4, 61, 91
6, 68514, Note_on_c, 4, 64, 91
6, 68560, Note_off_c, 4, 61, 64
6, 68560, Note_off_c, 4, 64, 64
6, 68565, Note_off_c, 4, 57, 64
6, 69245, Note_on_c, 4, 55, 56
6, 69245, Note_on_c, 4, 61, 73
6, 69263, Note_off_c, 4, 55, 64
6, 69271, Note_off_c, 4, 61, 64
6, 69326, Note_on_c, 4, 55, 60
6, 69326, Note_on_c, 4, 61, 73
6, 69351, Note_off_c, 4, 55, 64
6, 69351, Note_off_c, 4, 61, 64
6, 69409, Note_on_c, 4, 55, 73
6, 69409, Note_on_c, 4, 61, 73
6, 69440, Note_off_c, 4, 55, 64
6, 69442, Note_off_c, 4, 61, 64
6, 69893, Note_on_c, 4, 55, 73
6, 69893, Note_on_c, 4, 61, 91
6, 69923, Note_off_c, 4, 55, 64
6, 69927, Note_off_c, 4, 61, 64
6, 69975, Note_on_c, 4, 61, 73
6, 69975, Note_on_c, 4, 55, 64
6, 70002, Note_off_c, 4, 61, 64
6, 70004, Note_off_c, 4, 55, 64
6, 70058, Note_on_c, 4, 55, 64
6, 70058, Note_on_c, 4, 61, 82
6, 70087, Note_off_c, 4, 55, 64
6, 70089, Note_off_c, 4, 61, 64
6, 70543, Note_on_c, 4, 55, 73
6, 70543, Note_on_c, 4, 61, 91
6, 70574, Note_off_c, 4, 55, 64
6, 70574, Note_off_c, 4, 61, 64
6, 70625, Note_on_c, 4, 55, 64
6, 70625, Note_on_c, 4, 61, 82
6, 70655, Note_off_c, 4, 61, 64
6, 70657, Note_off_c, 4, 55, 64
6, 70705, Note_on_c, 4, 61, 82
6, 70705, Note_on_c, 4, 55, 73
6, 70736, Note_off_c, 4, 55, 64
6, 70737, Note_off_c, 4, 61, 64
6, 71191, Note_on_c, 4, 55, 73
6, 71191, Note_on_c, 4, 61, 91
6, 71220, Note_off_c, 4, 55, 64
6, 71223, Note_off_c, 4, 61, 64
6, 71274, Note_on_c, 4, 61, 91
6, 71274, Note_on_c, 4, 55, 64
6, 71301, Note_off_c, 4, 61, 64
6, 71302, Note_off_c, 4, 55, 64
6, 71355, Note_on_c, 4, 61, 82
6, 71355, Note_on_c, 4, 55, 73
6, 71386, Note_off_c, 4, 61, 64
6, 71387, Note_off_c, 4, 55, 64
6, 71843, Note_on_c, 4, 61, 91
6, 71843, Note_on_c, 4, 55, 82
6, 71867, Note_off_c, 4, 61, 64
6, 71867, Note_off_c, 4, 55, 64
6, 71922, Note_on_c, 4, 61, 82
6, 71922, Note_on_c, 4, 55, 64
6, 71951, Note_off_c, 4, 61, 64
6, 71951, Note_off_c, 4, 55, 64
6, 72003, Note_on_c, 4, 61, 91
6, 72003, Note_on_c, 4, 55, 73
6, 72031, Note_off_c, 4, 55, 64
6, 72034, Note_off_c, 4, 61, 64
6, 72490, Note_on_c, 4, 61, 91
6, 72490, Note_on_c, 4, 55, 82
6, 72517, Note_off_c, 4, 61, 64
6, 72518, Note_off_c, 4, 55, 64
6, 72571, Note_on_c, 4, 61, 91
6, 72571, Note_on_c, 4, 55, 73
6, 72600, Note_off_c, 4, 55, 64
6, 72601, Note_off_c, 4, 61, 64
6, 72652, Note_on_c, 4, 55, 64
6, 72652, Note_on_c, 4, 61, 82
6, 72682, Note_off_c, 4, 61, 64
6, 72686, Note_off_c, 4, 55, 64
6, 73139, Note_on_c, 4, 61, 91
6, 73139, Note_on_c, 4, 55, 73
6, 73166, Note_off_c, 4, 61, 64
6, 73167, Note_off_c, 4, 55, 64
6, 73220, Note_on_c, 4, 61, 91
6, 73220, Note_on_c, 4, 55, 64
6, 73247, Note_off_c, 4, 61, 64
6, 73250, Note_off_c, 4, 55, 64
6, 73301, Note_on_c, 4, 61, 91
6, 73301, Note_on_c, 4, 55, 73
6, 73326, Note_off_c, 4, 61, 64
6, 73328, Note_off_c, 4, 55, 64
6, 73788, Note_on_c, 4, 61, 80
6, 73788, Note_on_c, 4, 55, 80
6, 73830, Note_off_c, 4, 61, 64
6, 73831, Note_off_c, 4, 55, 64
6, 73869, Note_on_c, 4, 61, 80
6, 73869, Note_on_c, 4, 55, 80
6, 73911, Note_off_c, 4, 61, 64
6, 73911, Note_off_c, 4, 55, 64
6, 73950, Note_on_c, 4, 61, 80
6, 73950, Note_on_c, 4, 55, 80
6, 73992, Note_off_c, 4, 61, 64
6, 73992, Note_off_c, 4, 55, 64
6, 74194, Note_on_c, 4, 64, 82
6, 74194, Note_on_c, 4, 57, 64
6, 74194, Note_on_c, 4, 61, 82
6, 74222, Note_off_c, 4, 64, 64
6, 74229, Note_off_c, 4, 57, 64
6, 74237, Note_off_c, 4, 61, 64
6, 74275, Note_on_c, 4, 66, 73
6, 74275, Note_on_c, 4, 57, 73
6, 74275, Note_on_c, 4, 62, 73
6, 74313, Note_off_c, 4, 62, 64
6, 74318, Note_off_c, 4, 57, 64
6, 74319, Note_off_c, 4, 66, 64
6, 74356, Note_on_c, 4, 64, 100
6, 74356, Note_on_c, 4, 57, 73
6, 74356, Note_on_c, 4, 67, 91
6, 74849, Note_off_c, 4, 57, 64
6, 74850, Note_off_c, 4, 64, 64
6, 74855, Note_off_c, 4, 67, 64
6, 74924, Note_on_c, 4, 62, 82
6, 74924, Note_on_c, 4, 66, 82
6, 74925, Note_on_c, 4, 57, 82
6, 74985, Note_off_c, 4, 62, 64
6, 74995, Note_off_c, 4, 66, 64
6, 75005, Note_off_c, 4, 57, 64
6, 75005, Note_on_c, 4, 61, 91
6, 75005, Note_on_c, 4, 57, 56
6, 75005, Note_on_c, 4, 64, 82
6, 75049, Note_off_c, 4, 57, 64
6, 75051, Note_off_c, 4, 61, 64
6, 75051, Note_off_c, 4, 64, 64
6, 75491, Note_on_c, 4, 64, 73
6, 75491, Note_on_c, 4, 61, 82
6, 75491, Note_on_c, 4, 57, 64
6, 75516, Note_off_c, 4, 64, 64
6, 75520, Note_off_c, 4, 57, 64
6, 75525, Note_off_c, 4, 61, 64
6, 75572, Note_on_c, 4, 66, 64
6, 75574, Note_on_c, 4, 57, 60
6, 75574, Note_on_c, 4, 62, 73
6, 75604, Note_off_c, 4, 66, 64
6, 75604, Note_off_c, 4, 62, 64
6, 75607, Note_off_c, 4, 57, 64
6, 75654, Note_on_c, 4, 57, 82
6, 75654, Note_on_c, 4, 67, 64
6, 75655, Note_on_c, 4, 64, 91
6, 76164, Note_off_c, 4, 64, 64
6, 76167, Note_off_c, 4, 67, 64
6, 76167, Note_off_c, 4, 57, 64
6, 76222, Note_on_c, 4, 66, 82
6, 76222, Note_on_c, 4, 57, 64
6, 76222, Note_on_c, 4, 62, 82
6, 76280, Note_off_c, 4, 66, 64
6, 76286, Note_off_c, 4, 62, 64
6, 76294, Note_off_c, 4, 57, 64
6, 76303, Note_on_c, 4, 57, 73
6, 76303, Note_on_c, 4, 61, 91
6, 76303, Note_on_c, 4, 64, 82
6, 76349, Note_off_c, 4, 64, 64
6, 76352, Note_off_c, 4, 61, 64
6, 76353, Note_off_c, 4, 57, 64
6, 76789, Note_on_c, 4, 57, 82
6, 76789, Note_on_c, 4, 60, 91
6, 76823, Note_off_c, 4, 60, 64
6, 76826, Note_off_c, 4, 57, 64
6, 76871, Note_on_c, 4, 62, 64
6, 76871, Note_on_c, 4, 59, 73
6, 76903, Note_off_c, 4, 62, 64
6, 76916, Note_off_c, 4, 59, 64
6, 76952, Note_on_c, 4, 60, 91
6, 76952, Note_on_c, 4, 64, 91
6, 77481, Note_off_c, 4, 60, 64
6, 77498, Note_off_c, 4, 64, 64
6, 77519, Note_on_c, 4, 59, 73
6, 77519, Note_on_c, 4, 62, 82
6, 77589, Note_off_c, 4, 62, 64
6, 77592, Note_off_c, 4, 59, 64
6, 77601, Note_on_c, 4, 57, 91
6, 77601, Note_on_c, 4, 60, 91
6, 77641, Note_off_c, 4, 57, 64
6, 77643, Note_off_c, 4, 60, 64
6, 78088, Note_on_c, 4, 64, 82
6, 78088, Note_on_c, 4, 57, 64
6, 78088, Note_on_c, 4, 61, 91
6, 78111, Note_off_c, 4, 64, 64
6, 78118, Note_off_c, 4, 57, 64
6, 78120, Note_off_c, 4, 61, 64
6, 78169, Note_on_c, 4, 66, 82
6, 78169, Note_on_c, 4, 57, 64
6, 78169, Note_on_c, 4, 62, 73
6, 78200, Note_off_c, 4, 57, 64
6, 78200, Note_off_c, 4, 62, 64
6, 78203, Note_off_c, 4, 66, 64
6, 78250, Note_on_c, 4, 64, 73
6, 78250, Note_on_c, 4, 57, 73
6, 78251, Note_on_c, 4, 67, 91
6, 78765, Note_off_c, 4, 64, 64
6, 78775, Note_off_c, 4, 67, 64
6, 78780, Note_off_c, 4, 57, 64
6, 78817, Note_on_c, 4, 57, 64
6, 78817, Note_on_c, 4, 66, 73
6, 78817, Note_on_c, 4, 62, 82
6, 78882, Note_off_c, 4, 62, 64
6, 78889, Note_off_c, 4, 66, 64
6, 78897, Note_off_c, 4, 57, 64
6, 78899, Note_on_c, 4, 61, 91
6, 78899, Note_on_c, 4, 64, 82
6, 78899, Note_on_c, 4, 57, 31
6, 78942, Note_off_c, 4, 64, 64
6, 78946, Note_off_c, 4, 61, 64
6, 78955, Note_off_c, 4, 57, 64
6, 79386, Note_on_c, 4, 64, 80
6, 79386, Note_on_c, 4, 61, 82
6, 79386, Note_on_c, 4, 57, 73
6, 79416, Note_off_c, 4, 61, 64
6, 79416, Note_off_c, 4, 57, 64
6, 79428, Note_off_c, 4, 64, 64
6, 79466, Note_on_c, 4, 62, 80
6, 79466, Note_on_c, 4, 66, 64
6, 79466, Note_on_c, 4, 57, 16
6, 79467, Note_off_c, 4, 57, 64
6, 79478, Note_off_c, 4, 66, 64
6, 79508, Note_off_c, 4, 62, 64
6, 79548, Note_on_c, 4, 64, 100
6, 79548, Note_on_c, 4, 67, 100
6, 79548, Note_on_c, 4, 57, 82
6, 79743, Note_off_c, 4, 64, 64
6, 79762, Note_off_c, 4, 67, 64
6, 79791, Note_on_c, 4, 66, 60
6, 79791, Note_on_c, 4, 62, 64
6, 79852, Note_off_c, 4, 62, 64
6, 79855, Note_off_c, 4, 66, 64
6, 79873, Note_on_c, 4, 61, 91
6, 79873, Note_on_c, 4, 64, 82
6, 79905, Note_off_c, 4, 57, 64
6, 79911, Note_off_c, 4, 64, 64
6, 79912, Note_off_c, 4, 61, 64
6, 80113, Control_c, 4, 10, 54
6, 80197, Note_on_c, 4, 64, 91
6, 80197, Note_on_c, 4, 60, 100
6, 80267, Control_c, 4, 10, 45
6, 80306, Control_c, 4, 10, 36
6, 80345, Control_c, 4, 10, 27
6, 80383, Control_c, 4, 10, 18
6, 80415, Note_off_c, 4, 60, 64
6, 80422, Control_c, 4, 10, 9
6, 80440, Note_on_c, 4, 59, 64
6, 80440, Note_on_c, 4, 62, 64
6, 80449, Note_off_c, 4, 64, 64
6, 80461, Control_c, 4, 10, 0
6, 80515, Note_off_c, 4, 62, 64
6, 80518, Note_off_c, 4, 59, 64
6, 80521, Note_on_c, 4, 57, 82
6, 80521, Note_on_c, 4, 60, 82
6, 80557, Note_off_c, 4, 60, 64
6, 80558, Note_off_c, 4, 57, 64
6, 80683, Note_on_c, 4, 64, 82
6, 80683, Note_on_c, 4, 61, 82
6, 80683, Note_on_c, 4, 57, 73
6, 80707, Note_off_c, 4, 64, 64
6, 80716, Note_off_c, 4, 61, 64
6, 80716, Note_off_c, 4, 57, 64
6, 80765, Note_on_c, 4, 66, 73
6, 80765, Note_on_c, 4, 57, 64
6, 80765, Note_on_c, 4, 62, 73
6, 80795, Note_off_c, 4, 57, 64
6, 80796, Note_off_c, 4, 62, 64
6, 80799, Note_off_c, 4, 66, 64
6, 80846, Note_on_c, 4, 64, 82
6, 80846, Note_on_c, 4, 57, 73
6, 80848, Note_on_c, 4, 67, 91
6, 81385, Note_off_c, 4, 64, 64
6, 81398, Note_off_c, 4, 67, 64
6, 81403, Note_off_c, 4, 57, 64
6, 81414, Note_on_c, 4, 57, 25
6, 81414, Note_on_c, 4, 66, 64
6, 81414, Note_on_c, 4, 62, 73
6, 81475, Note_off_c, 4, 62, 64
6, 81482, Note_off_c, 4, 66, 64
6, 81495, Note_on_c, 4, 61, 91
6, 81495, Note_on_c, 4, 64, 91
6, 81540, Note_off_c, 4, 61, 64
6, 81540, Note_off_c, 4, 64, 64
6, 81545, Note_off_c, 4, 57, 64
6, 81982, Note_on_c, 4, 76, 82
6, 81982, Note_on_c, 4, 69, 64
6, 81982, Note_on_c, 4, 73, 82
6, 82011, Note_off_c, 4, 76, 64
6, 82017, Note_off_c, 4, 69, 64
6, 82025, Note_off_c, 4, 73, 64
6, 82062, Note_on_c, 4, 78, 73
6, 82062, Note_on_c, 4, 69, 73
6, 82062, Note_on_c, 4, 74, 73
6, 82101, Note_off_c, 4, 74, 64
6, 82107, Note_off_c, 4, 69, 64
6, 82108, Note_off_c, 4, 78, 64
6, 82144, Note_on_c, 4, 76, 100
6, 82144, Note_on_c, 4, 69, 73
6, 82147, Note_on_c, 4, 79, 91
6, 82637, Note_off_c, 4, 69, 64
6, 82638, Note_off_c, 4, 76, 64
6, 82644, Note_off_c, 4, 79, 64
6, 82711, Note_on_c, 4, 74, 82
6, 82711, Note_on_c, 4, 78, 82
6, 82711, Note_on_c, 4, 69, 82
6, 82772, Note_off_c, 4, 74, 64
6, 82783, Note_off_c, 4, 78, 64
6, 82793, Note_off_c, 4, 69, 64
6, 82793, Note_on_c, 4, 73, 91
6, 82793, Note_on_c, 4, 69, 56
6, 82793, Note_on_c, 4, 76, 82
6, 82837, Note_off_c, 4, 69, 64
6, 82840, Note_off_c, 4, 73, 64
6, 82840, Note_off_c, 4, 76, 64
6, 83280, Note_on_c, 4, 76, 73
6, 83280, Note_on_c, 4, 73, 82
6, 83280, Note_on_c, 4, 69, 64
6, 83304, Note_off_c, 4, 76, 64
6, 83307, Note_off_c, 4, 69, 64
6, 83313, Note_off_c, 4, 73, 64
6, 83361, Note_on_c, 4, 69, 60
6, 83361, Note_on_c, 4, 78, 64
6, 83361, Note_on_c, 4, 74, 73
6, 83392, Note_off_c, 4, 78, 64
6, 83392, Note_off_c, 4, 74, 64
6, 83394, Note_off_c, 4, 69, 64
6, 83442, Note_on_c, 4, 79, 64
6, 83442, Note_on_c, 4, 69, 82
6, 83443, Note_on_c, 4, 76, 91
6, 83952, Note_off_c, 4, 76, 64
6, 83955, Note_off_c, 4, 69, 64
6, 83955, Note_off_c, 4, 79, 64
6, 84010, Note_on_c, 4, 78, 82
6, 84010, Note_on_c, 4, 69, 64
6, 84010, Note_on_c, 4, 74, 82
6, 84069, Note_off_c, 4, 78, 64
6, 84074, Note_off_c, 4, 74, 64
6, 84083, Note_off_c, 4, 69, 64
6, 84091, Note_on_c, 4, 73, 91
6, 84091, Note_on_c, 4, 69, 73
6, 84091, Note_on_c, 4, 76, 82
6, 84138, Note_off_c, 4, 76, 64
6, 84140, Note_off_c, 4, 73, 64
6, 84142, Note_off_c, 4, 69, 64
6, 84578, Note_on_c, 4, 69, 82
6, 84579, Note_on_c, 4, 72, 91
6, 84612, Note_off_c, 4, 72, 64
6, 84616, Note_off_c, 4, 69, 64
6, 84660, Note_on_c, 4, 74, 64
6, 84660, Note_on_c, 4, 71, 73
6, 84694, Note_off_c, 4, 74, 64
6, 84705, Note_off_c, 4, 71, 64
6, 84741, Note_on_c, 4, 76, 91
6, 84741, Note_on_c, 4, 72, 91
6, 85270, Note_off_c, 4, 72, 64
6, 85286, Note_off_c, 4, 76, 64
6, 85308, Note_on_c, 4, 74, 82
6, 85308, Note_on_c, 4, 71, 73
6, 85377, Note_off_c, 4, 74, 64
6, 85381, Note_off_c, 4, 71, 64
6, 85389, Note_on_c, 4, 69, 91
6, 85389, Note_on_c, 4, 72, 91
6, 85429, Note_off_c, 4, 69, 64
6, 85431, Note_off_c, 4, 72, 64
6, 85876, Note_on_c, 4, 69, 64
6, 85876, Note_on_c, 4, 76, 82
6, 85876, Note_on_c, 4, 73, 91
6, 85900, Note_off_c, 4, 76, 64
6, 85906, Note_off_c, 4, 69, 64
6, 85909, Note_off_c, 4, 73, 64
6, 85958, Note_on_c, 4, 78, 82
6, 85958, Note_on_c, 4, 69, 64
6, 85958, Note_on_c, 4, 74, 73
6, 85988, Note_off_c, 4, 74, 64
6, 85989, Note_off_c, 4, 69, 64
6, 85991, Note_off_c, 4, 78, 64
6, 86038, Note_on_c, 4, 69, 73
6, 86038, Note_on_c, 4, 76, 73
6, 86040, Note_on_c, 4, 79, 91
6, 86554, Note_off_c, 4, 76, 64
6, 86564, Note_off_c, 4, 79, 64
6, 86569, Note_off_c, 4, 69, 64
6, 86606, Note_on_c, 4, 69, 64
6, 86606, Note_on_c, 4, 78, 73
6, 86606, Note_on_c, 4, 74, 82
6, 86671, Note_off_c, 4, 74, 64
6, 86677, Note_off_c, 4, 78, 64
6, 86686, Note_off_c, 4, 69, 64
6, 86687, Note_on_c, 4, 73, 91
6, 86687, Note_on_c, 4, 76, 82
6, 86687, Note_on_c, 4, 69, 31
6, 86732, Note_off_c, 4, 76, 64
6, 86734, Note_off_c, 4, 73, 64
6, 86743, Note_off_c, 4, 69, 64
6, 87174, Note_on_c, 4, 76, 80
6, 87174, Note_on_c, 4, 73, 82
6, 87174, Note_on_c, 4, 69, 73
6, 87202, Note_off_c, 4, 69, 64
6, 87203, Note_off_c, 4, 73, 64
6, 87216, Note_off_c, 4, 76, 64
6, 87255, Note_on_c, 4, 74, 80
6, 87255, Note_on_c, 4, 78, 64
6, 87255, Note_on_c, 4, 69, 16
6, 87256, Note_off_c, 4, 69, 64
6, 87266, Note_off_c, 4, 78, 64
6, 87296, Note_off_c, 4, 74, 64
6, 87336, Note_on_c, 4, 76, 100
6, 87336, Note_on_c, 4, 79, 100
6, 87336, Note_on_c, 4, 69, 82
6, 87533, Note_off_c, 4, 76, 64
6, 87551, Note_off_c, 4, 79, 64
6, 87579, Note_on_c, 4, 78, 60
6, 87579, Note_on_c, 4, 74, 64
6, 87640, Note_off_c, 4, 74, 64
6, 87643, Note_off_c, 4, 78, 64
6, 87660, Note_on_c, 4, 73, 91
6, 87660, Note_on_c, 4, 76, 82
6, 87694, Note_off_c, 4, 69, 64
6, 87698, Note_off_c, 4, 76, 64
6, 87701, Note_off_c, 4, 73, 64
6, 87985, Note_on_c, 4, 76, 91
6, 87985, Note_on_c, 4, 72, 100
6, 88202, Note_off_c, 4, 72, 64
6, 88229, Note_on_c, 4, 71, 64
6, 88229, Note_on_c, 4, 74, 64
6, 88238, Note_off_c, 4, 76, 64
6, 88302, Note_off_c, 4, 74, 64
6, 88308, Note_off_c, 4, 71, 64
6, 88309, Note_on_c, 4, 69, 82
6, 88309, Note_on_c, 4, 72, 82
6, 88345, Note_off_c, 4, 72, 64
6, 88346, Note_off_c, 4, 69, 64
6, 88472, Note_on_c, 4, 76, 82
6, 88472, Note_on_c, 4, 73, 82
6, 88472, Note_on_c, 4, 69, 73
6, 88496, Note_off_c, 4, 76, 64
6, 88505, Note_off_c, 4, 73, 64
6, 88505, Note_off_c, 4, 69, 64
6, 88554, Note_on_c, 4, 78, 73
6, 88554, Note_on_c, 4, 69, 64
6, 88554, Note_on_c, 4, 74, 73
6, 88584, Note_off_c, 4, 69, 64
6, 88585, Note_off_c, 4, 74, 64
6, 88588, Note_off_c, 4, 78, 64
6, 88634, Note_on_c, 4, 69, 73
6, 88634, Note_on_c, 4, 76, 82
6, 88637, Note_on_c, 4, 79, 91
6, 89174, Note_off_c, 4, 76, 64
6, 89187, Note_off_c, 4, 79, 64
6, 89193, Note_off_c, 4, 69, 64
6, 89203, Note_on_c, 4, 69, 25
6, 89203, Note_on_c, 4, 78, 64
6, 89203, Note_on_c, 4, 74, 73
6, 89263, Note_off_c, 4, 74, 64
6, 89272, Note_off_c, 4, 78, 64
6, 89284, Note_on_c, 4, 73, 91
6, 89284, Note_on_c, 4, 76, 91
6, 89329, Note_off_c, 4, 73, 64
6, 89329, Note_off_c, 4, 76, 64
6, 89334, Note_off_c, 4, 69, 64
6, 89771, Note_on_c, 4, 76, 80
6, 89771, Note_on_c, 4, 73, 82
6, 89771, Note_on_c, 4, 69, 73
6, 89799, Note_off_c, 4, 69, 64
6, 89801, Note_off_c, 4, 73, 64
6, 89813, Note_off_c, 4, 76, 64
6, 89852, Note_on_c, 4, 74, 80
6, 89852, Note_on_c, 4, 78, 64
6, 89857, Note_on_c, 4, 69, 16
6, 89858, Note_off_c, 4, 69, 64
6, 89864, Note_off_c, 4, 78, 64
6, 89894, Note_off_c, 4, 74, 64
6, 89932, Note_on_c, 4, 76, 100
6, 89932, Note_on_c, 4, 79, 100
6, 89935, Note_on_c, 4, 69, 82
6, 90129, Note_off_c, 4, 76, 64
6, 90147, Note_off_c, 4, 79, 64
6, 90176, Note_on_c, 4, 78, 60
6, 90176, Note_on_c, 4, 74, 64
6, 90237, Note_off_c, 4, 74, 64
6, 90240, Note_off_c, 4, 78, 64
6, 90257, Note_on_c, 4, 73, 91
6, 90257, Note_on_c, 4, 76, 82
6, 90291, Note_off_c, 4, 69, 64
6, 90296, Note_off_c, 4, 76, 64
6, 90297, Note_off_c, 4, 73, 64
6, 90581, Note_on_c, 4, 76, 91
6, 90581, Note_on_c, 4, 72, 100
6, 90799, Note_off_c, 4, 72, 64
6, 90825, Note_on_c, 4, 71, 64
6, 90825, Note_on_c, 4, 74, 64
6, 90836, Note_off_c, 4, 76, 64
6, 90899, Note_off_c, 4, 74, 64
6, 90904, Note_off_c, 4, 71, 64
6, 90906, Note_on_c, 4, 69, 82
6, 90906, Note_on_c, 4, 72, 82
6, 90942, Note_off_c, 4, 69, 64
6, 90942, Note_off_c, 4, 72, 64
6, 91068, Note_on_c, 4, 76, 82
6, 91068, Note_on_c, 4, 73, 82
6, 91070, Note_on_c, 4, 69, 73
6, 91091, Note_off_c, 4, 76, 64
6, 91100, Note_off_c, 4, 73, 64
6, 91101, Note_off_c, 4, 69, 64
6, 91150, Note_on_c, 4, 78, 73
6, 91150, Note_on_c, 4, 69, 64
6, 91152, Note_on_c, 4, 74, 73
6, 91180, Note_off_c, 4, 69, 64
6, 91182, Note_off_c, 4, 74, 64
6, 91185, Note_off_c, 4, 78, 64
6, 91231, Note_on_c, 4, 69, 73
6, 91231, Note_on_c, 4, 76, 82
6, 91233, Note_on_c, 4, 79, 91
6, 91770, Note_off_c, 4, 76, 64
6, 91784, Note_off_c, 4, 79, 64
6, 91788, Note_off_c, 4, 69, 64
6, 91799, Note_on_c, 4, 69, 25
6, 91799, Note_on_c, 4, 78, 64
6, 91799, Note_on_c, 4, 74, 73
6, 91860, Note_off_c, 4, 74, 64
6, 91869, Note_off_c, 4, 78, 64
6, 91881, Note_on_c, 4, 73, 91
6, 91881, Note_on_c, 4, 76, 91
6, 91926, Note_off_c, 4, 73, 64
6, 91926, Note_off_c, 4, 76, 64
6, 91930, Note_off_c, 4, 69, 64
6, 92367, Note_on_c, 4, 76, 80
6, 92367, Note_on_c, 4, 73, 82
6, 92367, Note_on_c, 4, 69, 73
6, 92396, Note_off_c, 4, 69, 64
6, 92397, Note_off_c, 4, 73, 64
6, 92409, Note_off_c, 4, 76, 64
6, 92448, Note_on_c, 4, 74, 80
6, 92448, Note_on_c, 4, 78, 64
6, 92448, Note_on_c, 4, 69, 16
6, 92449, Note_off_c, 4, 69, 64
6, 92460, Note_off_c, 4, 78, 64
6, 92490, Note_off_c, 4, 74, 64
6, 92529, Note_on_c, 4, 76, 100
6, 92529, Note_on_c, 4, 79, 100
6, 92531, Note_on_c, 4, 69, 82
6, 92725, Note_off_c, 4, 76, 64
6, 92744, Note_off_c, 4, 79, 64
6, 92773, Note_on_c, 4, 78, 60
6, 92773, Note_on_c, 4, 74, 64
6, 92833, Note_off_c, 4, 74, 64
6, 92836, Note_off_c, 4, 78, 64
6, 92854, Note_on_c, 4, 73, 91
6, 92854, Note_on_c, 4, 76, 82
6, 92887, Note_off_c, 4, 69, 64
6, 92893, Note_off_c, 4, 76, 64
6, 92894, Note_off_c, 4, 73, 64
6, 93260, Note_on_c, 4, 81, 91
6, 93260, Note_on_c, 4, 72, 100
6, 93262, Note_on_c, 4, 78, 100
6, 93308, Note_off_c, 4, 81, 64
6, 93309, Note_off_c, 4, 78, 64
6, 93313, Note_off_c, 4, 72, 64
6, 94720, Note_on_c, 4, 70, 82
6, 94720, Note_on_c, 4, 82, 82
6, 94793, Note_off_c, 4, 70, 64
6, 94799, Note_off_c, 4, 82, 64
6, 94801, Note_on_c, 4, 81, 91
6, 94803, Note_on_c, 4, 69, 73
6, 95823, Note_off_c, 4, 69, 64
6, 95823, Note_off_c, 4, 81, 64
6, 95823, End_track
7, 0, Start_track
7, 0, MIDI_port, 0
7, 0, Title_t, "GUITAR              "
7, 0, Program_c, 2, 30
7, 0, Control_c, 2, 7, 86
7, 4349, Note_on_c, 2, 45, 100
7, 4524, Note_off_c, 2, 45, 64
7, 4592, Note_on_c, 2, 45, 100
7, 4640, Note_off_c, 2, 45, 64
7, 4755, Note_on_c, 2, 40, 82
7, 4781, Note_off_c, 2, 40, 64
7, 4836, Note_on_c, 2, 43, 91
7, 4876, Note_off_c, 2, 43, 64
7, 4919, Note_on_c, 2, 44, 82
7, 4964, Note_off_c, 2, 44, 64
7, 4998, Note_on_c, 2, 45, 100
7, 5169, Note_off_c, 2, 45, 64
7, 5241, Note_on_c, 2, 45, 109
7, 5280, Note_off_c, 2, 45, 64
7, 5404, Note_on_c, 2, 40, 56
7, 5422, Note_off_c, 2, 40, 64
7, 5485, Note_on_c, 2, 43, 91
7, 5519, Note_off_c, 2, 43, 64
7, 5568, Note_on_c, 2, 44, 100
7, 5607, Note_off_c, 2, 44, 64
7, 5647, Note_on_c, 2, 45, 109
7, 5816, Note_off_c, 2, 45, 64
7, 5891, Note_on_c, 2, 45, 109
7, 5938, Note_off_c, 2, 45, 64
7, 6054, Note_on_c, 2, 40, 73
7, 6080, Note_off_c, 2, 40, 64
7, 6134, Note_on_c, 2, 43, 73
7, 6170, Note_off_c, 2, 43, 64
7, 6216, Note_on_c, 2, 44, 91
7, 6260, Note_off_c, 2, 44, 64
7, 6296, Note_on_c, 2, 45, 100
7, 6465, Note_off_c, 2, 45, 64
7, 6540, Note_on_c, 2, 45, 100
7, 6588, Note_off_c, 2, 45, 64
7, 6703, Note_on_c, 2, 40, 64
7, 6727, Note_off_c, 2, 40, 64
7, 6783, Note_on_c, 2, 43, 82
7, 6819, Note_off_c, 2, 43, 64
7, 6865, Note_on_c, 2, 44, 100
7, 6902, Note_off_c, 2, 44, 64
7, 6945, Note_on_c, 2, 45, 100
7, 7112, Note_off_c, 2, 45, 64
7, 7190, Note_on_c, 2, 45, 109
7, 7230, Note_off_c, 2, 45, 64
7, 7351, Note_on_c, 2, 40, 73
7, 7379, Note_off_c, 2, 40, 64
7, 7432, Note_on_c, 2, 43, 91
7, 7465, Note_off_c, 2, 43, 64
7, 7514, Note_on_c, 2, 44, 91
7, 7548, Note_off_c, 2, 44, 64
7, 7595, Note_on_c, 2, 45, 100
7, 7757, Note_off_c, 2, 45, 64
7, 7839, Note_on_c, 2, 45, 109
7, 7881, Note_off_c, 2, 45, 64
7, 8001, Note_on_c, 2, 40, 73
7, 8018, Note_off_c, 2, 40, 64
7, 8082, Note_on_c, 2, 43, 82
7, 8109, Note_off_c, 2, 43, 64
7, 8163, Note_on_c, 2, 44, 91
7, 8191, Note_off_c, 2, 44, 64
7, 8245, Note_on_c, 2, 45, 100
7, 8408, Note_off_c, 2, 45, 64
7, 8488, Note_on_c, 2, 45, 109
7, 8526, Note_off_c, 2, 45, 64
7, 8650, Note_on_c, 2, 40, 91
7, 8675, Note_off_c, 2, 40, 64
7, 8731, Note_on_c, 2, 43, 82
7, 8765, Note_off_c, 2, 43, 64
7, 8812, Note_on_c, 2, 44, 91
7, 8847, Note_off_c, 2, 44, 64
7, 8893, Note_on_c, 2, 45, 100
7, 9052, Note_off_c, 2, 45, 64
7, 9137, Note_on_c, 2, 45, 100
7, 9174, Note_off_c, 2, 45, 64
7, 9299, Note_on_c, 2, 40, 60
7, 9312, Note_off_c, 2, 40, 64
7, 9380, Note_on_c, 2, 43, 82
7, 9405, Note_off_c, 2, 43, 64
7, 9461, Note_on_c, 2, 44, 100
7, 9489, Note_off_c, 2, 44, 64
7, 9541, Note_on_c, 2, 45, 100
7, 9703, Note_off_c, 2, 45, 64
7, 9785, Note_on_c, 2, 45, 109
7, 9823, Note_off_c, 2, 45, 64
7, 9948, Note_on_c, 2, 40, 91
7, 9976, Note_off_c, 2, 40, 64
7, 10029, Note_on_c, 2, 43, 82
7, 10061, Note_off_c, 2, 43, 64
7, 10112, Note_on_c, 2, 44, 100
7, 10141, Note_off_c, 2, 44, 64
7, 10191, Note_on_c, 2, 45, 100
7, 10343, Note_off_c, 2, 45, 64
7, 10435, Note_on_c, 2, 45, 109
7, 10472, Note_off_c, 2, 45, 64
7, 10597, Note_on_c, 2, 40, 82
7, 10628, Note_off_c, 2, 40, 64
7, 10677, Note_on_c, 2, 43, 91
7, 10714, Note_off_c, 2, 43, 64
7, 10760, Note_on_c, 2, 44, 91
7, 10794, Note_off_c, 2, 44, 64
7, 10839, Note_on_c, 2, 45, 100
7, 11001, Note_off_c, 2, 45, 64
7, 11083, Note_on_c, 2, 45, 109
7, 11124, Note_off_c, 2, 45, 64
7, 11246, Note_on_c, 2, 40, 82
7, 11269, Note_off_c, 2, 40, 64
7, 11326, Note_on_c, 2, 43, 82
7, 11353, Note_off_c, 2, 43, 64
7, 11408, Note_on_c, 2, 44, 100
7, 11442, Note_off_c, 2, 44, 64
7, 11489, Note_on_c, 2, 45, 109
7, 11650, Note_off_c, 2, 45, 64
7, 11732, Note_on_c, 2, 45, 109
7, 11767, Note_off_c, 2, 45, 64
7, 11899, Note_on_c, 2, 45, 91
7, 11915, Note_off_c, 2, 45, 64
7, 11978, Note_on_c, 2, 48, 100
7, 12009, Note_off_c, 2, 48, 64
7, 12058, Note_on_c, 2, 49, 100
7, 12097, Note_off_c, 2, 49, 64
7, 12138, Note_on_c, 2, 50, 109
7, 12295, Note_off_c, 2, 50, 64
7, 12382, Note_on_c, 2, 50, 100
7, 12426, Note_off_c, 2, 50, 64
7, 12545, Note_on_c, 2, 45, 100
7, 12577, Note_off_c, 2, 45, 64
7, 12624, Note_on_c, 2, 48, 100
7, 12668, Note_off_c, 2, 48, 64
7, 12706, Note_on_c, 2, 49, 100
7, 12753, Note_off_c, 2, 49, 64
7, 12788, Note_on_c, 2, 50, 100
7, 12935, Note_off_c, 2, 50, 64
7, 13031, Note_on_c, 2, 50, 100
7, 13068, Note_off_c, 2, 50, 64
7, 13193, Note_on_c, 2, 40, 91
7, 13230, Note_off_c, 2, 40, 64
7, 13273, Note_on_c, 2, 43, 100
7, 13319, Note_off_c, 2, 43, 64
7, 13355, Note_on_c, 2, 44, 91
7, 13405, Note_off_c, 2, 44, 64
7, 13436, Note_on_c, 2, 45, 100
7, 13592, Note_off_c, 2, 45, 64
7, 13680, Note_on_c, 2, 45, 109
7, 13723, Note_off_c, 2, 45, 64
7, 13842, Note_on_c, 2, 40, 91
7, 13886, Note_off_c, 2, 40, 64
7, 13922, Note_on_c, 2, 43, 100
7, 13967, Note_off_c, 2, 43, 64
7, 14003, Note_on_c, 2, 44, 91
7, 14045, Note_off_c, 2, 44, 64
7, 14084, Note_on_c, 2, 45, 100
7, 14250, Note_off_c, 2, 45, 64
7, 14328, Note_on_c, 2, 45, 109
7, 14372, Note_off_c, 2, 45, 64
7, 14490, Note_on_c, 2, 47, 100
7, 14528, Note_off_c, 2, 47, 64
7, 14571, Note_on_c, 2, 50, 100
7, 14614, Note_off_c, 2, 50, 64
7, 14653, Note_on_c, 2, 51, 91
7, 14698, Note_off_c, 2, 51, 64
7, 14733, Note_on_c, 2, 52, 109
7, 14894, Note_off_c, 2, 52, 64
7, 14977, Note_on_c, 2, 52, 109
7, 15023, Note_off_c, 2, 52, 64
7, 15220, Note_on_c, 2, 52, 100
7, 15260, Note_off_c, 2, 52, 64
7, 15301, Note_on_c, 2, 51, 100
7, 15346, Note_off_c, 2, 51, 64
7, 15382, Note_on_c, 2, 50, 109
7, 15561, Note_off_c, 2, 50, 64
7, 15626, Note_on_c, 2, 50, 100
7, 15671, Note_off_c, 2, 50, 64
7, 15787, Note_on_c, 2, 40, 73
7, 15809, Note_off_c, 2, 40, 64
7, 15869, Note_on_c, 2, 43, 91
7, 15905, Note_off_c, 2, 43, 64
7, 15949, Note_on_c, 2, 44, 91
7, 15985, Note_off_c, 2, 44, 64
7, 16031, Note_on_c, 2, 45, 109
7, 16189, Note_off_c, 2, 45, 64
7, 16274, Note_on_c, 2, 45, 109
7, 16313, Note_off_c, 2, 45, 64
7, 16437, Note_on_c, 2, 40, 100
7, 16475, Note_off_c, 2, 40, 64
7, 16518, Note_on_c, 2, 43, 100
7, 16558, Note_off_c, 2, 43, 64
7, 16599, Note_on_c, 2, 44, 100
7, 16637, Note_off_c, 2, 44, 64
7, 16680, Note_on_c, 2, 45, 109
7, 16840, Note_off_c, 2, 45, 64
7, 16923, Note_on_c, 2, 45, 100
7, 16957, Note_off_c, 2, 45, 64
7, 17085, Note_on_c, 2, 40, 100
7, 17119, Note_off_c, 2, 40, 64
7, 17167, Note_on_c, 2, 43, 100
7, 17207, Note_off_c, 2, 43, 64
7, 17248, Note_on_c, 2, 44, 100
7, 17286, Note_off_c, 2, 44, 64
7, 17329, Note_on_c, 2, 45, 100
7, 17503, Note_off_c, 2, 45, 64
7, 17573, Note_on_c, 2, 45, 100
7, 17619, Note_off_c, 2, 45, 64
7, 17734, Note_on_c, 2, 40, 82
7, 17761, Note_off_c, 2, 40, 64
7, 17815, Note_on_c, 2, 43, 91
7, 17856, Note_off_c, 2, 43, 64
7, 17897, Note_on_c, 2, 44, 82
7, 17943, Note_off_c, 2, 44, 64
7, 17978, Note_on_c, 2, 45, 100
7, 18148, Note_off_c, 2, 45, 64
7, 18221, Note_on_c, 2, 45, 109
7, 18260, Note_off_c, 2, 45, 64
7, 18383, Note_on_c, 2, 40, 56
7, 18402, Note_off_c, 2, 40, 64
7, 18464, Note_on_c, 2, 43, 91
7, 18498, Note_off_c, 2, 43, 64
7, 18545, Note_on_c, 2, 44, 100
7, 18584, Note_off_c, 2, 44, 64
7, 18627, Note_on_c, 2, 45, 109
7, 18795, Note_off_c, 2, 45, 64
7, 18869, Note_on_c, 2, 45, 109
7, 18915, Note_off_c, 2, 45, 64
7, 19032, Note_on_c, 2, 40, 73
7, 19058, Note_off_c, 2, 40, 64
7, 19114, Note_on_c, 2, 43, 73
7, 19148, Note_off_c, 2, 43, 64
7, 19194, Note_on_c, 2, 44, 91
7, 19238, Note_off_c, 2, 44, 64
7, 19276, Note_on_c, 2, 45, 100
7, 19444, Note_off_c, 2, 45, 64
7, 19518, Note_on_c, 2, 45, 100
7, 19568, Note_off_c, 2, 45, 64
7, 19680, Note_on_c, 2, 40, 64
7, 19703, Note_off_c, 2, 40, 64
7, 19761, Note_on_c, 2, 43, 82
7, 19797, Note_off_c, 2, 43, 64
7, 19845, Note_on_c, 2, 44, 100
7, 19879, Note_off_c, 2, 44, 64
7, 19925, Note_on_c, 2, 45, 100
7, 20090, Note_off_c, 2, 45, 64
7, 20168, Note_on_c, 2, 45, 109
7, 20209, Note_off_c, 2, 45, 64
7, 20329, Note_on_c, 2, 40, 73
7, 20356, Note_off_c, 2, 40, 64
7, 20411, Note_on_c, 2, 43, 91
7, 20443, Note_off_c, 2, 43, 64
7, 20493, Note_on_c, 2, 44, 91
7, 20526, Note_off_c, 2, 44, 64
7, 20574, Note_on_c, 2, 45, 100
7, 20737, Note_off_c, 2, 45, 64
7, 20817, Note_on_c, 2, 45, 109
7, 20859, Note_off_c, 2, 45, 64
7, 20979, Note_on_c, 2, 40, 73
7, 20998, Note_off_c, 2, 40, 64
7, 21062, Note_on_c, 2, 43, 82
7, 21087, Note_off_c, 2, 43, 64
7, 21141, Note_on_c, 2, 44, 91
7, 21170, Note_off_c, 2, 44, 64
7, 21223, Note_on_c, 2, 45, 100
7, 21385, Note_off_c, 2, 45, 64
7, 21466, Note_on_c, 2, 45, 109
7, 21505, Note_off_c, 2, 45, 64
7, 21628, Note_on_c, 2, 40, 91
7, 21654, Note_off_c, 2, 40, 64
7, 21710, Note_on_c, 2, 43, 82
7, 21743, Note_off_c, 2, 43, 64
7, 21791, Note_on_c, 2, 44, 91
7, 21826, Note_off_c, 2, 44, 64
7, 21872, Note_on_c, 2, 45, 100
7, 22031, Note_off_c, 2, 45, 64
7, 22115, Note_on_c, 2, 45, 100
7, 22153, Note_off_c, 2, 45, 64
7, 22277, Note_on_c, 2, 40, 60
7, 22290, Note_off_c, 2, 40, 64
7, 22358, Note_on_c, 2, 43, 82
7, 22383, Note_off_c, 2, 43, 64
7, 22439, Note_on_c, 2, 44, 100
7, 22468, Note_off_c, 2, 44, 64
7, 22521, Note_on_c, 2, 45, 100
7, 22683, Note_off_c, 2, 45, 64
7, 22763, Note_on_c, 2, 45, 109
7, 22800, Note_off_c, 2, 45, 64
7, 22925, Note_on_c, 2, 40, 91
7, 22954, Note_off_c, 2, 40, 64
7, 23007, Note_on_c, 2, 43, 82
7, 23038, Note_off_c, 2, 43, 64
7, 23088, Note_on_c, 2, 44, 100
7, 23117, Note_off_c, 2, 44, 64
7, 23169, Note_on_c, 2, 45, 100
7, 23322, Note_off_c, 2, 45, 64
7, 23412, Note_on_c, 2, 45, 109
7, 23449, Note_off_c, 2, 45, 64
7, 23574, Note_on_c, 2, 40, 82
7, 23607, Note_off_c, 2, 40, 64
7, 23656, Note_on_c, 2, 43, 91
7, 23692, Note_off_c, 2, 43, 64
7, 23737, Note_on_c, 2, 44, 91
7, 23772, Note_off_c, 2, 44, 64
7, 23819, Note_on_c, 2, 45, 100
7, 23981, Note_off_c, 2, 45, 64
7, 24061, Note_on_c, 2, 45, 109
7, 24102, Note_off_c, 2, 45, 64
7, 24224, Note_on_c, 2, 40, 82
7, 24247, Note_off_c, 2, 40, 64
7, 24306, Note_on_c, 2, 43, 82
7, 24332, Note_off_c, 2, 43, 64
7, 24384, Note_on_c, 2, 44, 100
7, 24418, Note_off_c, 2, 44, 64
7, 24465, Note_on_c, 2, 45, 109
7, 24627, Note_off_c, 2, 45, 64
7, 24709, Note_on_c, 2, 45, 109
7, 24743, Note_off_c, 2, 45, 64
7, 24873, Note_on_c, 2, 45, 91
7, 24893, Note_off_c, 2, 45, 64
7, 24954, Note_on_c, 2, 48, 100
7, 24988, Note_off_c, 2, 48, 64
7, 25035, Note_on_c, 2, 49, 100
7, 25075, Note_off_c, 2, 49, 64
7, 25117, Note_on_c, 2, 50, 109
7, 25273, Note_off_c, 2, 50, 64
7, 25360, Note_on_c, 2, 50, 100
7, 25405, Note_off_c, 2, 50, 64
7, 25522, Note_on_c, 2, 45, 100
7, 25556, Note_off_c, 2, 45, 64
7, 25604, Note_on_c, 2, 48, 100
7, 25647, Note_off_c, 2, 48, 64
7, 25684, Note_on_c, 2, 49, 100
7, 25730, Note_off_c, 2, 49, 64
7, 25766, Note_on_c, 2, 50, 100
7, 25913, Note_off_c, 2, 50, 64
7, 26008, Note_on_c, 2, 50, 100
7, 26045, Note_off_c, 2, 50, 64
7, 26170, Note_on_c, 2, 40, 91
7, 26207, Note_off_c, 2, 40, 64
7, 26252, Note_on_c, 2, 43, 100
7, 26297, Note_off_c, 2, 43, 64
7, 26333, Note_on_c, 2, 44, 91
7, 26383, Note_off_c, 2, 44, 64
7, 26415, Note_on_c, 2, 45, 100
7, 26571, Note_off_c, 2, 45, 64
7, 26657, Note_on_c, 2, 45, 109
7, 26702, Note_off_c, 2, 45, 64
7, 26819, Note_on_c, 2, 40, 91
7, 26863, Note_off_c, 2, 40, 64
7, 26901, Note_on_c, 2, 43, 100
7, 26944, Note_off_c, 2, 43, 64
7, 26982, Note_on_c, 2, 44, 91
7, 27023, Note_off_c, 2, 44, 64
7, 27063, Note_on_c, 2, 45, 100
7, 27228, Note_off_c, 2, 45, 64
7, 27305, Note_on_c, 2, 45, 109
7, 27349, Note_off_c, 2, 45, 64
7, 27468, Note_on_c, 2, 47, 100
7, 27505, Note_off_c, 2, 47, 64
7, 27550, Note_on_c, 2, 50, 100
7, 27591, Note_off_c, 2, 50, 64
7, 27631, Note_on_c, 2, 51, 91
7, 27676, Note_off_c, 2, 51, 64
7, 27712, Note_on_c, 2, 52, 109
7, 27872, Note_off_c, 2, 52, 64
7, 27955, Note_on_c, 2, 52, 109
7, 28001, Note_off_c, 2, 52, 64
7, 28199, Note_on_c, 2, 52, 100
7, 28238, Note_off_c, 2, 52, 64
7, 28279, Note_on_c, 2, 51, 100
7, 28323, Note_off_c, 2, 51, 64
7, 28361, Note_on_c, 2, 50, 109
7, 28539, Note_off_c, 2, 50, 64
7, 28604, Note_on_c, 2, 50, 100
7, 28649, Note_off_c, 2, 50, 64
7, 28766, Note_on_c, 2, 40, 73
7, 28788, Note_off_c, 2, 40, 64
7, 28847, Note_on_c, 2, 43, 91
7, 28884, Note_off_c, 2, 43, 64
7, 28934, Note_on_c, 2, 44, 91
7, 28964, Note_off_c, 2, 44, 64
7, 29010, Note_on_c, 2, 45, 109
7, 29168, Note_off_c, 2, 45, 64
7, 29253, Note_on_c, 2, 45, 109
7, 29292, Note_off_c, 2, 45, 64
7, 29415, Note_on_c, 2, 40, 100
7, 29454, Note_off_c, 2, 40, 64
7, 29496, Note_on_c, 2, 43, 100
7, 29537, Note_off_c, 2, 43, 64
7, 29578, Note_on_c, 2, 44, 100
7, 29616, Note_off_c, 2, 44, 64
7, 29658, Note_on_c, 2, 45, 109
7, 29819, Note_off_c, 2, 45, 64
7, 29902, Note_on_c, 2, 45, 100
7, 29935, Note_off_c, 2, 45, 64
7, 30064, Note_on_c, 2, 40, 100
7, 30097, Note_off_c, 2, 40, 64
7, 30145, Note_on_c, 2, 43, 100
7, 30185, Note_off_c, 2, 43, 64
7, 30227, Note_on_c, 2, 44, 100
7, 30265, Note_off_c, 2, 44, 64
7, 30308, Note_on_c, 2, 45, 100
7, 30482, Note_off_c, 2, 45, 64
7, 30551, Note_on_c, 2, 45, 100
7, 30598, Note_off_c, 2, 45, 64
7, 30713, Note_on_c, 2, 40, 82
7, 30740, Note_off_c, 2, 40, 64
7, 30794, Note_on_c, 2, 43, 91
7, 30835, Note_off_c, 2, 43, 64
7, 30876, Note_on_c, 2, 44, 82
7, 30923, Note_off_c, 2, 44, 64
7, 30957, Note_on_c, 2, 45, 100
7, 31127, Note_off_c, 2, 45, 64
7, 31200, Note_on_c, 2, 45, 109
7, 31238, Note_off_c, 2, 45, 64
7, 31362, Note_on_c, 2, 40, 56
7, 31380, Note_off_c, 2, 40, 64
7, 31445, Note_on_c, 2, 43, 91
7, 31477, Note_off_c, 2, 43, 64
7, 31524, Note_on_c, 2, 44, 100
7, 31564, Note_off_c, 2, 44, 64
7, 31605, Note_on_c, 2, 45, 109
7, 31774, Note_off_c, 2, 45, 64
7, 31850, Note_on_c, 2, 45, 109
7, 31896, Note_off_c, 2, 45, 64
7, 32011, Note_on_c, 2, 40, 73
7, 32038, Note_off_c, 2, 40, 64
7, 32092, Note_on_c, 2, 43, 73
7, 32127, Note_off_c, 2, 43, 64
7, 32174, Note_on_c, 2, 44, 91
7, 32217, Note_off_c, 2, 44, 64
7, 32255, Note_on_c, 2, 45, 100
7, 32419, Note_off_c, 2, 45, 64
7, 32494, Note_on_c, 2, 45, 100
7, 32543, Note_off_c, 2, 45, 64
7, 32656, Note_on_c, 2, 40, 64
7, 32680, Note_off_c, 2, 40, 64
7, 32737, Note_on_c, 2, 43, 82
7, 32772, Note_off_c, 2, 43, 64
7, 32819, Note_on_c, 2, 44, 100
7, 32855, Note_off_c, 2, 44, 64
7, 32900, Note_on_c, 2, 45, 100
7, 33065, Note_off_c, 2, 45, 64
7, 33147, Note_on_c, 2, 45, 109
7, 33187, Note_off_c, 2, 45, 64
7, 33309, Note_on_c, 2, 40, 73
7, 33336, Note_off_c, 2, 40, 64
7, 33390, Note_on_c, 2, 43, 91
7, 33422, Note_off_c, 2, 43, 64
7, 33472, Note_on_c, 2, 44, 91
7, 33505, Note_off_c, 2, 44, 64
7, 33554, Note_on_c, 2, 45, 100
7, 33715, Note_off_c, 2, 45, 64
7, 33796, Note_on_c, 2, 45, 109
7, 33838, Note_off_c, 2, 45, 64
7, 33961, Note_on_c, 2, 40, 73
7, 33977, Note_off_c, 2, 40, 64
7, 34040, Note_on_c, 2, 43, 82
7, 34066, Note_off_c, 2, 43, 64
7, 34121, Note_on_c, 2, 44, 91
7, 34149, Note_off_c, 2, 44, 64
7, 34202, Note_on_c, 2, 45, 100
7, 34365, Note_off_c, 2, 45, 64
7, 34445, Note_on_c, 2, 45, 109
7, 34483, Note_off_c, 2, 45, 64
7, 34607, Note_on_c, 2, 40, 91
7, 34632, Note_off_c, 2, 40, 64
7, 34688, Note_on_c, 2, 43, 82
7, 34722, Note_off_c, 2, 43, 64
7, 34770, Note_on_c, 2, 44, 91
7, 34805, Note_off_c, 2, 44, 64
7, 34851, Note_on_c, 2, 45, 100
7, 35009, Note_off_c, 2, 45, 64
7, 35094, Note_on_c, 2, 45, 100
7, 35131, Note_off_c, 2, 45, 64
7, 35256, Note_on_c, 2, 40, 60
7, 35270, Note_off_c, 2, 40, 64
7, 35337, Note_on_c, 2, 43, 82
7, 35362, Note_off_c, 2, 43, 64
7, 35419, Note_on_c, 2, 44, 100
7, 35447, Note_off_c, 2, 44, 64
7, 35500, Note_on_c, 2, 45, 100
7, 35662, Note_off_c, 2, 45, 64
7, 35743, Note_on_c, 2, 45, 109
7, 35780, Note_off_c, 2, 45, 64
7, 35905, Note_on_c, 2, 40, 91
7, 35934, Note_off_c, 2, 40, 64
7, 35986, Note_on_c, 2, 43, 82
7, 36018, Note_off_c, 2, 43, 64
7, 36068, Note_on_c, 2, 44, 100
7, 36098, Note_off_c, 2, 44, 64
7, 36148, Note_on_c, 2, 45, 100
7, 36300, Note_off_c, 2, 45, 64
7, 36392, Note_on_c, 2, 45, 109
7, 36429, Note_off_c, 2, 45, 64
7, 36554, Note_on_c, 2, 40, 82
7, 36586, Note_off_c, 2, 40, 64
7, 36635, Note_on_c, 2, 43, 91
7, 36672, Note_off_c, 2, 43, 64
7, 36717, Note_on_c, 2, 44, 91
7, 36752, Note_off_c, 2, 44, 64
7, 36798, Note_on_c, 2, 45, 100
7, 36960, Note_off_c, 2, 45, 64
7, 37041, Note_on_c, 2, 45, 109
7, 37082, Note_off_c, 2, 45, 64
7, 37203, Note_on_c, 2, 40, 82
7, 37227, Note_off_c, 2, 40, 64
7, 37285, Note_on_c, 2, 43, 82
7, 37311, Note_off_c, 2, 43, 64
7, 37365, Note_on_c, 2, 44, 100
7, 37399, Note_off_c, 2, 44, 64
7, 37446, Note_on_c, 2, 45, 109
7, 37607, Note_off_c, 2, 45, 64
7, 37690, Note_on_c, 2, 45, 109
7, 37725, Note_off_c, 2, 45, 64
7, 37852, Note_on_c, 2, 45, 91
7, 37872, Note_off_c, 2, 45, 64
7, 37933, Note_on_c, 2, 48, 100
7, 37967, Note_off_c, 2, 48, 64
7, 38015, Note_on_c, 2, 49, 100
7, 38054, Note_off_c, 2, 49, 64
7, 38096, Note_on_c, 2, 50, 109
7, 38253, Note_off_c, 2, 50, 64
7, 38339, Note_on_c, 2, 50, 100
7, 38384, Note_off_c, 2, 50, 64
7, 38501, Note_on_c, 2, 45, 100
7, 38535, Note_off_c, 2, 45, 64
7, 38582, Note_on_c, 2, 48, 100
7, 38625, Note_off_c, 2, 48, 64
7, 38664, Note_on_c, 2, 49, 100
7, 38711, Note_off_c, 2, 49, 64
7, 38745, Note_on_c, 2, 50, 100
7, 38893, Note_off_c, 2, 50, 64
7, 38988, Note_on_c, 2, 50, 100
7, 39025, Note_off_c, 2, 50, 64
7, 39150, Note_on_c, 2, 40, 91
7, 39187, Note_off_c, 2, 40, 64
7, 39232, Note_on_c, 2, 43, 100
7, 39276, Note_off_c, 2, 43, 64
7, 39313, Note_on_c, 2, 44, 91
7, 39362, Note_off_c, 2, 44, 64
7, 39392, Note_on_c, 2, 45, 100
7, 39550, Note_off_c, 2, 45, 64
7, 39636, Note_on_c, 2, 45, 109
7, 39680, Note_off_c, 2, 45, 64
7, 39798, Note_on_c, 2, 40, 91
7, 39843, Note_off_c, 2, 40, 64
7, 39880, Note_on_c, 2, 43, 100
7, 39924, Note_off_c, 2, 43, 64
7, 39962, Note_on_c, 2, 44, 91
7, 40004, Note_off_c, 2, 44, 64
7, 40042, Note_on_c, 2, 45, 100
7, 40208, Note_off_c, 2, 45, 64
7, 40285, Note_on_c, 2, 45, 109
7, 40329, Note_off_c, 2, 45, 64
7, 40448, Note_on_c, 2, 47, 100
7, 40484, Note_off_c, 2, 47, 64
7, 40528, Note_on_c, 2, 50, 100
7, 40571, Note_off_c, 2, 50, 64
7, 40610, Note_on_c, 2, 51, 91
7, 40655, Note_off_c, 2, 51, 64
7, 40691, Note_on_c, 2, 52, 109
7, 40852, Note_off_c, 2, 52, 64
7, 40935, Note_on_c, 2, 52, 109
7, 40980, Note_off_c, 2, 52, 64
7, 41177, Note_on_c, 2, 52, 100
7, 41218, Note_off_c, 2, 52, 64
7, 41260, Note_on_c, 2, 51, 100
7, 41303, Note_off_c, 2, 51, 64
7, 41341, Note_on_c, 2, 50, 109
7, 41519, Note_off_c, 2, 50, 64
7, 41584, Note_on_c, 2, 50, 100
7, 41630, Note_off_c, 2, 50, 64
7, 41746, Note_on_c, 2, 40, 73
7, 41768, Note_off_c, 2, 40, 64
7, 41827, Note_on_c, 2, 43, 91
7, 41864, Note_off_c, 2, 43, 64
7, 41909, Note_on_c, 2, 44, 91
7, 41944, Note_off_c, 2, 44, 64
7, 41990, Note_on_c, 2, 45, 109
7, 42147, Note_off_c, 2, 45, 64
7, 42233, Note_on_c, 2, 45, 109
7, 42272, Note_off_c, 2, 45, 64
7, 42395, Note_on_c, 2, 40, 100
7, 42434, Note_off_c, 2, 40, 64
7, 42476, Note_on_c, 2, 43, 100
7, 42517, Note_off_c, 2, 43, 64
7, 42558, Note_on_c, 2, 44, 100
7, 42596, Note_off_c, 2, 44, 64
7, 42638, Note_on_c, 2, 45, 109
7, 42799, Note_off_c, 2, 45, 64
7, 42882, Note_on_c, 2, 45, 100
7, 42915, Note_off_c, 2, 45, 64
7, 43044, Note_on_c, 2, 40, 100
7, 43078, Note_off_c, 2, 40, 64
7, 43126, Note_on_c, 2, 43, 100
7, 43166, Note_off_c, 2, 43, 64
7, 43206, Note_on_c, 2, 44, 100
7, 43244, Note_off_c, 2, 44, 64
7, 43287, Note_on_c, 2, 45, 100
7, 43461, Note_off_c, 2, 45, 64
7, 43530, Note_on_c, 2, 45, 100
7, 43578, Note_off_c, 2, 45, 64
7, 43693, Note_on_c, 2, 40, 82
7, 43720, Note_off_c, 2, 40, 64
7, 43774, Note_on_c, 2, 43, 91
7, 43815, Note_off_c, 2, 43, 64
7, 43856, Note_on_c, 2, 44, 82
7, 43902, Note_off_c, 2, 44, 64
7, 43939, Note_on_c, 2, 45, 100
7, 44107, Note_off_c, 2, 45, 64
7, 44180, Note_on_c, 2, 45, 109
7, 44218, Note_off_c, 2, 45, 64
7, 44342, Note_on_c, 2, 40, 56
7, 44361, Note_off_c, 2, 40, 64
7, 44425, Note_on_c, 2, 43, 91
7, 44456, Note_off_c, 2, 43, 64
7, 44505, Note_on_c, 2, 44, 100
7, 44545, Note_off_c, 2, 44, 64
7, 44585, Note_on_c, 2, 45, 109
7, 44755, Note_off_c, 2, 45, 64
7, 44829, Note_on_c, 2, 45, 109
7, 44876, Note_off_c, 2, 45, 64
7, 44991, Note_on_c, 2, 40, 73
7, 45018, Note_off_c, 2, 40, 64
7, 45072, Note_on_c, 2, 43, 73
7, 45107, Note_off_c, 2, 43, 64
7, 45154, Note_on_c, 2, 44, 91
7, 45197, Note_off_c, 2, 44, 64
7, 45235, Note_on_c, 2, 45, 100
7, 45403, Note_off_c, 2, 45, 64
7, 45477, Note_on_c, 2, 45, 100
7, 45527, Note_off_c, 2, 45, 64
7, 45641, Note_on_c, 2, 40, 64
7, 45664, Note_off_c, 2, 40, 64
7, 45721, Note_on_c, 2, 43, 82
7, 45756, Note_off_c, 2, 43, 64
7, 45802, Note_on_c, 2, 44, 100
7, 45839, Note_off_c, 2, 44, 64
7, 45886, Note_on_c, 2, 45, 100
7, 46051, Note_off_c, 2, 45, 64
7, 46127, Note_on_c, 2, 45, 109
7, 46167, Note_off_c, 2, 45, 64
7, 46289, Note_on_c, 2, 40, 73
7, 46316, Note_off_c, 2, 40, 64
7, 46370, Note_on_c, 2, 43, 91
7, 46402, Note_off_c, 2, 43, 64
7, 46452, Note_on_c, 2, 44, 91
7, 46485, Note_off_c, 2, 44, 64
7, 46533, Note_on_c, 2, 45, 100
7, 46695, Note_off_c, 2, 45, 64
7, 46776, Note_on_c, 2, 45, 109
7, 46818, Note_off_c, 2, 45, 64
7, 46937, Note_on_c, 2, 40, 73
7, 46955, Note_off_c, 2, 40, 64
7, 47018, Note_on_c, 2, 43, 82
7, 47045, Note_off_c, 2, 43, 64
7, 47099, Note_on_c, 2, 44, 91
7, 47128, Note_off_c, 2, 44, 64
7, 47181, Note_on_c, 2, 45, 100
7, 47343, Note_off_c, 2, 45, 64
7, 47424, Note_on_c, 2, 45, 109
7, 47462, Note_off_c, 2, 45, 64
7, 47587, Note_on_c, 2, 40, 91
7, 47613, Note_off_c, 2, 40, 64
7, 47668, Note_on_c, 2, 43, 82
7, 47701, Note_off_c, 2, 43, 64
7, 47750, Note_on_c, 2, 44, 91
7, 47784, Note_off_c, 2, 44, 64
7, 47831, Note_on_c, 2, 45, 100
7, 47988, Note_off_c, 2, 45, 64
7, 48074, Note_on_c, 2, 45, 100
7, 48111, Note_off_c, 2, 45, 64
7, 48236, Note_on_c, 2, 40, 60
7, 48250, Note_off_c, 2, 40, 64
7, 48317, Note_on_c, 2, 43, 82
7, 48342, Note_off_c, 2, 43, 64
7, 48398, Note_on_c, 2, 44, 100
7, 48427, Note_off_c, 2, 44, 64
7, 48479, Note_on_c, 2, 45, 100
7, 48641, Note_off_c, 2, 45, 64
7, 48723, Note_on_c, 2, 45, 109
7, 48760, Note_off_c, 2, 45, 64
7, 48885, Note_on_c, 2, 40, 91
7, 48913, Note_off_c, 2, 40, 64
7, 48965, Note_on_c, 2, 43, 82
7, 48998, Note_off_c, 2, 43, 64
7, 49047, Note_on_c, 2, 44, 100
7, 49078, Note_off_c, 2, 44, 64
7, 49128, Note_on_c, 2, 45, 100
7, 49280, Note_off_c, 2, 45, 64
7, 49372, Note_on_c, 2, 45, 109
7, 49407, Note_off_c, 2, 45, 64
7, 49534, Note_on_c, 2, 40, 82
7, 49566, Note_off_c, 2, 40, 64
7, 49615, Note_on_c, 2, 43, 91
7, 49652, Note_off_c, 2, 43, 64
7, 49696, Note_on_c, 2, 44, 91
7, 49731, Note_off_c, 2, 44, 64
7, 49778, Note_on_c, 2, 45, 100
7, 49939, Note_off_c, 2, 45, 64
7, 50021, Note_on_c, 2, 45, 109
7, 50061, Note_off_c, 2, 45, 64
7, 50183, Note_on_c, 2, 40, 82
7, 50206, Note_off_c, 2, 40, 64
7, 50263, Note_on_c, 2, 43, 82
7, 50291, Note_off_c, 2, 43, 64
7, 50345, Note_on_c, 2, 44, 100
7, 50379, Note_off_c, 2, 44, 64
7, 50427, Note_on_c, 2, 45, 109
7, 50587, Note_off_c, 2, 45, 64
7, 50669, Note_on_c, 2, 45, 109
7, 50705, Note_off_c, 2, 45, 64
7, 50832, Note_on_c, 2, 45, 91
7, 50852, Note_off_c, 2, 45, 64
7, 50913, Note_on_c, 2, 48, 100
7, 50946, Note_off_c, 2, 48, 64
7, 50993, Note_on_c, 2, 49, 100
7, 51035, Note_off_c, 2, 49, 64
7, 51076, Note_on_c, 2, 50, 109
7, 51233, Note_off_c, 2, 50, 64
7, 51318, Note_on_c, 2, 50, 100
7, 51363, Note_off_c, 2, 50, 64
7, 51481, Note_on_c, 2, 45, 100
7, 51514, Note_off_c, 2, 45, 64
7, 51561, Note_on_c, 2, 48, 100
7, 51605, Note_off_c, 2, 48, 64
7, 51643, Note_on_c, 2, 49, 100
7, 51690, Note_off_c, 2, 49, 64
7, 51727, Note_on_c, 2, 50, 100
7, 51872, Note_off_c, 2, 50, 64
7, 51967, Note_on_c, 2, 50, 100
7, 52004, Note_off_c, 2, 50, 64
7, 52130, Note_on_c, 2, 40, 91
7, 52167, Note_off_c, 2, 40, 64
7, 52210, Note_on_c, 2, 43, 100
7, 52256, Note_off_c, 2, 43, 64
7, 52292, Note_on_c, 2, 44, 91
7, 52342, Note_off_c, 2, 44, 64
7, 52373, Note_on_c, 2, 45, 100
7, 52530, Note_off_c, 2, 45, 64
7, 52616, Note_on_c, 2, 45, 109
7, 52660, Note_off_c, 2, 45, 64
7, 52779, Note_on_c, 2, 40, 91
7, 52823, Note_off_c, 2, 40, 64
7, 52859, Note_on_c, 2, 43, 100
7, 52903, Note_off_c, 2, 43, 64
7, 52941, Note_on_c, 2, 44, 91
7, 52982, Note_off_c, 2, 44, 64
7, 53022, Note_on_c, 2, 45, 100
7, 53187, Note_off_c, 2, 45, 64
7, 53266, Note_on_c, 2, 45, 109
7, 53309, Note_off_c, 2, 45, 64
7, 53428, Note_on_c, 2, 47, 100
7, 53465, Note_off_c, 2, 47, 64
7, 53508, Note_on_c, 2, 50, 100
7, 53550, Note_off_c, 2, 50, 64
7, 53591, Note_on_c, 2, 51, 91
7, 53635, Note_off_c, 2, 51, 64
7, 53671, Note_on_c, 2, 52, 109
7, 53831, Note_off_c, 2, 52, 64
7, 53914, Note_on_c, 2, 52, 109
7, 53960, Note_off_c, 2, 52, 64
7, 54158, Note_on_c, 2, 52, 100
7, 54198, Note_off_c, 2, 52, 64
7, 54239, Note_on_c, 2, 51, 100
7, 54283, Note_off_c, 2, 51, 64
7, 54320, Note_on_c, 2, 50, 109
7, 54499, Note_off_c, 2, 50, 64
7, 54564, Note_on_c, 2, 50, 100
7, 54598, Note_off_c, 2, 50, 64
7, 56267, Note_on_c, 2, 45, 100
7, 56441, Note_off_c, 2, 45, 64
7, 56510, Note_on_c, 2, 45, 100
7, 56557, Note_off_c, 2, 45, 64
7, 56673, Note_on_c, 2, 40, 82
7, 56699, Note_off_c, 2, 40, 64
7, 56753, Note_on_c, 2, 43, 91
7, 56793, Note_off_c, 2, 43, 64
7, 56835, Note_on_c, 2, 44, 82
7, 56881, Note_off_c, 2, 44, 64
7, 56915, Note_on_c, 2, 45, 100
7, 57086, Note_off_c, 2, 45, 64
7, 57163, Note_on_c, 2, 45, 109
7, 57197, Note_off_c, 2, 45, 64
7, 57331, Note_on_c, 2, 40, 56
7, 57332, Note_off_c, 2, 40, 64
7, 57402, Note_on_c, 2, 43, 91
7, 57436, Note_off_c, 2, 43, 64
7, 57483, Note_on_c, 2, 44, 100
7, 57523, Note_off_c, 2, 44, 64
7, 57564, Note_on_c, 2, 45, 109
7, 57733, Note_off_c, 2, 45, 64
7, 57807, Note_on_c, 2, 45, 109
7, 57855, Note_off_c, 2, 45, 64
7, 57970, Note_on_c, 2, 40, 73
7, 57997, Note_off_c, 2, 40, 64
7, 58051, Note_on_c, 2, 43, 73
7, 58087, Note_off_c, 2, 43, 64
7, 58132, Note_on_c, 2, 44, 91
7, 58175, Note_off_c, 2, 44, 64
7, 58213, Note_on_c, 2, 45, 100
7, 58383, Note_off_c, 2, 45, 64
7, 58455, Note_on_c, 2, 45, 100
7, 58505, Note_off_c, 2, 45, 64
7, 58618, Note_on_c, 2, 40, 64
7, 58641, Note_off_c, 2, 40, 64
7, 58699, Note_on_c, 2, 43, 82
7, 58734, Note_off_c, 2, 43, 64
7, 58781, Note_on_c, 2, 44, 100
7, 58817, Note_off_c, 2, 44, 64
7, 58862, Note_on_c, 2, 45, 100
7, 59028, Note_off_c, 2, 45, 64
7, 59105, Note_on_c, 2, 45, 109
7, 59145, Note_off_c, 2, 45, 64
7, 59267, Note_on_c, 2, 40, 73
7, 59294, Note_off_c, 2, 40, 64
7, 59346, Note_on_c, 2, 43, 91
7, 59379, Note_off_c, 2, 43, 64
7, 59429, Note_on_c, 2, 44, 91
7, 59462, Note_off_c, 2, 44, 64
7, 59510, Note_on_c, 2, 45, 100
7, 59672, Note_off_c, 2, 45, 64
7, 59753, Note_on_c, 2, 45, 109
7, 59795, Note_off_c, 2, 45, 64
7, 59917, Note_on_c, 2, 40, 73
7, 59935, Note_off_c, 2, 40, 64
7, 59997, Note_on_c, 2, 43, 82
7, 60024, Note_off_c, 2, 43, 64
7, 60078, Note_on_c, 2, 44, 91
7, 60107, Note_off_c, 2, 44, 64
7, 60160, Note_on_c, 2, 45, 100
7, 60322, Note_off_c, 2, 45, 64
7, 60403, Note_on_c, 2, 45, 109
7, 60442, Note_off_c, 2, 45, 64
7, 60565, Note_on_c, 2, 40, 91
7, 60590, Note_off_c, 2, 40, 64
7, 60647, Note_on_c, 2, 43, 82
7, 60680, Note_off_c, 2, 43, 64
7, 60727, Note_on_c, 2, 44, 91
7, 60763, Note_off_c, 2, 44, 64
7, 60809, Note_on_c, 2, 45, 100
7, 60968, Note_off_c, 2, 45, 64
7, 61052, Note_on_c, 2, 45, 100
7, 61090, Note_off_c, 2, 45, 64
7, 61213, Note_on_c, 2, 40, 60
7, 61227, Note_off_c, 2, 40, 64
7, 61295, Note_on_c, 2, 43, 82
7, 61319, Note_off_c, 2, 43, 64
7, 61381, Note_on_c, 2, 44, 100
7, 61405, Note_off_c, 2, 44, 64
7, 61458, Note_on_c, 2, 45, 100
7, 61620, Note_off_c, 2, 45, 64
7, 61701, Note_on_c, 2, 45, 109
7, 61738, Note_off_c, 2, 45, 64
7, 61863, Note_on_c, 2, 40, 91
7, 61892, Note_off_c, 2, 40, 64
7, 61944, Note_on_c, 2, 43, 82
7, 61976, Note_off_c, 2, 43, 64
7, 62025, Note_on_c, 2, 44, 100
7, 62055, Note_off_c, 2, 44, 64
7, 62106, Note_on_c, 2, 45, 100
7, 62258, Note_off_c, 2, 45, 64
7, 62350, Note_on_c, 2, 45, 109
7, 62386, Note_off_c, 2, 45, 64
7, 62511, Note_on_c, 2, 40, 82
7, 62544, Note_off_c, 2, 40, 64
7, 62593, Note_on_c, 2, 43, 91
7, 62630, Note_off_c, 2, 43, 64
7, 62674, Note_on_c, 2, 44, 91
7, 62710, Note_off_c, 2, 44, 64
7, 62756, Note_on_c, 2, 45, 100
7, 62760, Note_off_c, 2, 45, 64
7, 62760, End_track
8, 0, Start_track
8, 0, MIDI_port, 0
8, 0, Title_t, "DRUMS               "
8, 0, Program_c, 9, 0
8, 0, Control_c, 9, 7, 116
8, 455, Note_on_c, 9, 42, 80
8, 497, Note_off_c, 9, 42, 64
8, 780, Note_on_c, 9, 42, 80
8, 821, Note_off_c, 9, 42, 64
8, 1104, Note_on_c, 9, 42, 80
8, 1146, Note_off_c, 9, 42, 64
8, 1266, Note_on_c, 9, 42, 80
8, 1309, Note_off_c, 9, 42, 64
8, 1429, Note_on_c, 9, 42, 80
8, 1470, Note_off_c, 9, 42, 64
8, 1591, Note_on_c, 9, 42, 80
8, 1633, Note_off_c, 9, 42, 64
8, 1753, Note_on_c, 9, 56, 65
8, 1753, Note_on_c, 9, 53, 81
8, 1756, Note_off_c, 9, 56, 64
8, 1756, Note_off_c, 9, 53, 64
8, 1756, Note_on_c, 9, 49, 80
8, 1795, Note_off_c, 9, 49, 64
8, 1834, Note_on_c, 9, 35, 69
8, 1834, Note_on_c, 9, 53, 81
8, 1837, Note_off_c, 9, 35, 64
8, 1837, Note_off_c, 9, 53, 64
8, 1915, Note_on_c, 9, 56, 65
8, 1917, Note_on_c, 9, 53, 81
8, 1919, Note_off_c, 9, 56, 64
8, 1919, Note_off_c, 9, 53, 64
8, 1997, Note_on_c, 9, 35, 69
8, 1997, Note_on_c, 9, 53, 81
8, 1999, Note_off_c, 9, 35, 64
8, 1999, Note_off_c, 9, 53, 64
8, 2078, Note_on_c, 9, 35, 69
8, 2078, Note_on_c, 9, 56, 65
8, 2080, Note_on_c, 9, 53, 81
8, 2081, Note_off_c, 9, 35, 64
8, 2081, Note_off_c, 9, 56, 64
8, 2081, Note_off_c, 9, 53, 64
8, 2159, Note_on_c, 9, 53, 81
8, 2162, Note_off_c, 9, 53, 64
8, 2240, Note_on_c, 9, 56, 65
8, 2243, Note_off_c, 9, 56, 64
8, 2243, Note_on_c, 9, 53, 81
8, 2244, Note_off_c, 9, 53, 64
8, 2323, Note_on_c, 9, 35, 69
8, 2323, Note_on_c, 9, 53, 81
8, 2325, Note_off_c, 9, 35, 64
8, 2325, Note_off_c, 9, 53, 64
8, 2402, Note_on_c, 9, 35, 69
8, 2402, Note_on_c, 9, 56, 65
8, 2405, Note_on_c, 9, 53, 81
8, 2406, Note_off_c, 9, 35, 64
8, 2406, Note_off_c, 9, 56, 64
8, 2406, Note_off_c, 9, 53, 64
8, 2484, Note_on_c, 9, 53, 81
8, 2487, Note_off_c, 9, 53, 64
8, 2564, Note_on_c, 9, 56, 65
8, 2566, Note_on_c, 9, 53, 81
8, 2568, Note_off_c, 9, 56, 64
8, 2568, Note_off_c, 9, 53, 64
8, 2646, Note_on_c, 9, 53, 81
8, 2649, Note_off_c, 9, 53, 64
8, 2727, Note_on_c, 9, 35, 69
8, 2727, Note_on_c, 9, 56, 65
8, 2730, Note_off_c, 9, 35, 64
8, 2730, Note_off_c, 9, 56, 64
8, 2730, Note_on_c, 9, 53, 81
8, 2731, Note_off_c, 9, 53, 64
8, 2808, Note_on_c, 9, 35, 69
8, 2808, Note_on_c, 9, 53, 81
8, 2811, Note_off_c, 9, 35, 64
8, 2811, Note_off_c, 9, 53, 64
8, 2889, Note_on_c, 9, 56, 65
8, 2891, Note_on_c, 9, 53, 81
8, 2892, Note_off_c, 9, 56, 64
8, 2892, Note_off_c, 9, 53, 64
8, 2970, Note_on_c, 9, 35, 69
8, 2970, Note_on_c, 9, 53, 81
8, 2973, Note_off_c, 9, 35, 64
8, 2973, Note_off_c, 9, 53, 64
8, 3052, Note_on_c, 9, 56, 65
8, 3052, Note_on_c, 9, 53, 81
8, 3054, Note_off_c, 9, 56, 64
8, 3054, Note_off_c, 9, 53, 64
8, 3133, Note_on_c, 9, 35, 69
8, 3133, Note_on_c, 9, 53, 81
8, 3136, Note_off_c, 9, 35, 64
8, 3136, Note_off_c, 9, 53, 64
8, 3213, Note_on_c, 9, 56, 65
8, 3215, Note_on_c, 9, 53, 81
8, 3217, Note_off_c, 9, 56, 64
8, 3217, Note_off_c, 9, 53, 64
8, 3295, Note_on_c, 9, 35, 69
8, 3295, Note_on_c, 9, 53, 81
8, 3297, Note_off_c, 9, 35, 64
8, 3297, Note_off_c, 9, 53, 64
8, 3375, Note_on_c, 9, 35, 69
8, 3375, Note_on_c, 9, 56, 65
8, 3375, Note_on_c, 9, 53, 81
8, 3379, Note_off_c, 9, 35, 64
8, 3379, Note_off_c, 9, 56, 64
8, 3379, Note_off_c, 9, 53, 64
8, 3456, Note_on_c, 9, 53, 81
8, 3460, Note_off_c, 9, 53, 64
8, 3539, Note_on_c, 9, 56, 65
8, 3539, Note_on_c, 9, 53, 81
8, 3541, Note_off_c, 9, 56, 64
8, 3541, Note_off_c, 9, 53, 64
8, 3618, Note_on_c, 9, 35, 69
8, 3618, Note_on_c, 9, 53, 81
8, 3621, Note_off_c, 9, 35, 64
8, 3621, Note_off_c, 9, 53, 64
8, 3700, Note_on_c, 9, 35, 69
8, 3702, Note_on_c, 9, 56, 65
8, 3702, Note_on_c, 9, 53, 81
8, 3703, Note_off_c, 9, 35, 64
8, 3703, Note_off_c, 9, 56, 64
8, 3703, Note_off_c, 9, 53, 64
8, 3780, Note_on_c, 9, 53, 81
8, 3784, Note_off_c, 9, 53, 64
8, 3864, Note_on_c, 9, 56, 65
8, 3864, Note_on_c, 9, 53, 81
8, 3866, Note_off_c, 9, 56, 64
8, 3867, Note_off_c, 9, 53, 64
8, 3943, Note_on_c, 9, 53, 81
8, 3947, Note_off_c, 9, 53, 64
8, 4025, Note_on_c, 9, 35, 69
8, 4025, Note_on_c, 9, 56, 65
8, 4027, Note_on_c, 9, 53, 81
8, 4028, Note_off_c, 9, 35, 64
8, 4028, Note_off_c, 9, 56, 64
8, 4028, Note_off_c, 9, 53, 64
8, 4106, Note_on_c, 9, 35, 69
8, 4106, Note_on_c, 9, 53, 81
8, 4109, Note_off_c, 9, 35, 64
8, 4109, Note_off_c, 9, 53, 64
8, 4189, Note_on_c, 9, 56, 65
8, 4189, Note_on_c, 9, 53, 81
8, 4190, Note_off_c, 9, 56, 64
8, 4192, Note_off_c, 9, 53, 64
8, 4268, Note_on_c, 9, 35, 69
8, 4268, Note_on_c, 9, 53, 81
8, 4269, Note_on_c, 9, 46, 81
8, 4272, Note_off_c, 9, 35, 64
8, 4273, Note_off_c, 9, 53, 64
8, 4273, Note_off_c, 9, 46, 64
8, 4349, Note_on_c, 9, 42, 121
8, 4352, Note_off_c, 9, 42, 64
8, 4430, Note_on_c, 9, 35, 69
8, 4430, Note_on_c, 9, 42, 81
8, 4433, Note_off_c, 9, 35, 64
8, 4433, Note_off_c, 9, 42, 64
8, 4514, Note_on_c, 9, 42, 121
8, 4515, Note_off_c, 9, 42, 64
8, 4592, Note_on_c, 9, 35, 69
8, 4592, Note_on_c, 9, 42, 81
8, 4596, Note_off_c, 9, 35, 64
8, 4596, Note_off_c, 9, 42, 64
8, 4674, Note_on_c, 9, 35, 69
8, 4674, Note_on_c, 9, 42, 121
8, 4677, Note_off_c, 9, 35, 64
8, 4677, Note_off_c, 9, 42, 64
8, 4755, Note_on_c, 9, 42, 81
8, 4757, Note_off_c, 9, 42, 64
8, 4836, Note_on_c, 9, 42, 121
8, 4839, Note_off_c, 9, 42, 64
8, 4918, Note_on_c, 9, 35, 69
8, 4918, Note_on_c, 9, 42, 81
8, 4921, Note_off_c, 9, 35, 64
8, 4921, Note_off_c, 9, 42, 64
8, 4998, Note_on_c, 9, 35, 69
8, 4998, Note_on_c, 9, 42, 121
8, 5001, Note_off_c, 9, 35, 64
8, 5001, Note_off_c, 9, 42, 64
8, 5079, Note_on_c, 9, 42, 81
8, 5082, Note_off_c, 9, 42, 64
8, 5162, Note_on_c, 9, 42, 121
8, 5164, Note_off_c, 9, 42, 64
8, 5241, Note_on_c, 9, 42, 81
8, 5245, Note_off_c, 9, 42, 64
8, 5323, Note_on_c, 9, 35, 69
8, 5323, Note_on_c, 9, 42, 121
8, 5326, Note_off_c, 9, 35, 64
8, 5326, Note_off_c, 9, 42, 64
8, 5404, Note_on_c, 9, 35, 69
8, 5404, Note_on_c, 9, 42, 81
8, 5407, Note_off_c, 9, 35, 64
8, 5407, Note_off_c, 9, 42, 64
8, 5485, Note_on_c, 9, 42, 121
8, 5488, Note_off_c, 9, 42, 64
8, 5566, Note_on_c, 9, 35, 69
8, 5567, Note_on_c, 9, 46, 81
8, 5569, Note_off_c, 9, 35, 64
8, 5570, Note_off_c, 9, 46, 64
8, 5647, Note_on_c, 9, 42, 121
8, 5650, Note_off_c, 9, 42, 64
8, 5729, Note_on_c, 9, 35, 69
8, 5729, Note_on_c, 9, 42, 81
8, 5732, Note_off_c, 9, 35, 64
8, 5732, Note_off_c, 9, 42, 64
8, 5812, Note_on_c, 9, 42, 121
8, 5813, Note_off_c, 9, 42, 64
8, 5891, Note_on_c, 9, 35, 69
8, 5891, Note_on_c, 9, 42, 81
8, 5894, Note_off_c, 9, 35, 64
8, 5894, Note_off_c, 9, 42, 64
8, 5972, Note_on_c, 9, 35, 69
8, 5972, Note_on_c, 9, 42, 121
8, 5975, Note_off_c, 9, 35, 64
8, 5975, Note_off_c, 9, 42, 64
8, 6054, Note_on_c, 9, 42, 81
8, 6056, Note_off_c, 9, 42, 64
8, 6134, Note_on_c, 9, 42, 121
8, 6137, Note_off_c, 9, 42, 64
8, 6216, Note_on_c, 9, 35, 69
8, 6216, Note_on_c, 9, 42, 81
8, 6219, Note_off_c, 9, 35, 64
8, 6219, Note_off_c, 9, 42, 64
8, 6296, Note_on_c, 9, 35, 69
8, 6296, Note_on_c, 9, 42, 121
8, 6299, Note_off_c, 9, 35, 64
8, 6299, Note_off_c, 9, 42, 64
8, 6378, Note_on_c, 9, 42, 81
8, 6381, Note_off_c, 9, 42, 64
8, 6462, Note_on_c, 9, 42, 121
8, 6463, Note_off_c, 9, 42, 64
8, 6540, Note_on_c, 9, 42, 81
8, 6543, Note_off_c, 9, 42, 64
8, 6621, Note_on_c, 9, 35, 69
8, 6621, Note_on_c, 9, 42, 121
8, 6624, Note_off_c, 9, 35, 64
8, 6624, Note_off_c, 9, 42, 64
8, 6703, Note_on_c, 9, 35, 69
8, 6703, Note_on_c, 9, 42, 81
8, 6705, Note_off_c, 9, 35, 64
8, 6705, Note_off_c, 9, 42, 64
8, 6783, Note_on_c, 9, 42, 121
8, 6786, Note_off_c, 9, 42, 64
8, 6865, Note_on_c, 9, 35, 69
8, 6865, Note_on_c, 9, 46, 81
8, 6867, Note_off_c, 9, 35, 64
8, 6867, Note_off_c, 9, 46, 64
8, 6945, Note_on_c, 9, 42, 121
8, 6948, Note_off_c, 9, 42, 64
8, 7027, Note_on_c, 9, 35, 69
8, 7027, Note_on_c, 9, 42, 81
8, 7030, Note_off_c, 9, 35, 64
8, 7030, Note_off_c, 9, 42, 64
8, 7110, Note_on_c, 9, 42, 121
8, 7112, Note_off_c, 9, 42, 64
8, 7190, Note_on_c, 9, 35, 69
8, 7190, Note_on_c, 9, 42, 81
8, 7192, Note_off_c, 9, 35, 64
8, 7192, Note_off_c, 9, 42, 64
8, 7270, Note_on_c, 9, 35, 69
8, 7270, Note_on_c, 9, 42, 121
8, 7273, Note_off_c, 9, 35, 64
8, 7273, Note_off_c, 9, 42, 64
8, 7351, Note_on_c, 9, 42, 81
8, 7355, Note_off_c, 9, 42, 64
8, 7432, Note_on_c, 9, 42, 121
8, 7436, Note_off_c, 9, 42, 64
8, 7514, Note_on_c, 9, 35, 69
8, 7514, Note_on_c, 9, 42, 81
8, 7518, Note_off_c, 9, 35, 64
8, 7518, Note_off_c, 9, 42, 64
8, 7595, Note_on_c, 9, 35, 69
8, 7595, Note_on_c, 9, 42, 121
8, 7598, Note_off_c, 9, 35, 64
8, 7598, Note_off_c, 9, 42, 64
8, 7677, Note_on_c, 9, 42, 81
8, 7681, Note_off_c, 9, 42, 64
8, 7760, Note_on_c, 9, 42, 121
8, 7761, Note_off_c, 9, 42, 64
8, 7839, Note_on_c, 9, 42, 81
8, 7842, Note_off_c, 9, 42, 64
8, 7920, Note_on_c, 9, 35, 69
8, 7920, Note_on_c, 9, 42, 121
8, 7923, Note_off_c, 9, 35, 64
8, 7923, Note_off_c, 9, 42, 64
8, 8001, Note_on_c, 9, 35, 69
8, 8001, Note_on_c, 9, 42, 81
8, 8004, Note_off_c, 9, 35, 64
8, 8004, Note_off_c, 9, 42, 64
8, 8082, Note_on_c, 9, 42, 121
8, 8085, Note_off_c, 9, 42, 64
8, 8163, Note_on_c, 9, 35, 69
8, 8165, Note_on_c, 9, 46, 81
8, 8167, Note_off_c, 9, 35, 64
8, 8167, Note_off_c, 9, 46, 64
8, 8245, Note_on_c, 9, 42, 121
8, 8246, Note_off_c, 9, 42, 64
8, 8325, Note_on_c, 9, 35, 69
8, 8325, Note_on_c, 9, 42, 81
8, 8328, Note_off_c, 9, 35, 64
8, 8328, Note_off_c, 9, 42, 64
8, 8408, Note_on_c, 9, 42, 121
8, 8411, Note_off_c, 9, 42, 64
8, 8488, Note_on_c, 9, 35, 69
8, 8488, Note_on_c, 9, 42, 81
8, 8491, Note_off_c, 9, 35, 64
8, 8491, Note_off_c, 9, 42, 64
8, 8568, Note_on_c, 9, 35, 69
8, 8568, Note_on_c, 9, 42, 121
8, 8571, Note_off_c, 9, 35, 64
8, 8571, Note_off_c, 9, 42, 64
8, 8650, Note_on_c, 9, 42, 81
8, 8654, Note_off_c, 9, 42, 64
8, 8731, Note_on_c, 9, 42, 121
8, 8734, Note_off_c, 9, 42, 64
8, 8812, Note_on_c, 9, 35, 69
8, 8812, Note_on_c, 9, 42, 81
8, 8815, Note_off_c, 9, 35, 64
8, 8815, Note_off_c, 9, 42, 64
8, 8893, Note_on_c, 9, 35, 69
8, 8893, Note_on_c, 9, 42, 121
8, 8897, Note_off_c, 9, 35, 64
8, 8897, Note_off_c, 9, 42, 64
8, 8975, Note_on_c, 9, 42, 81
8, 8978, Note_off_c, 9, 42, 64
8, 9057, Note_on_c, 9, 42, 121
8, 9059, Note_off_c, 9, 42, 64
8, 9137, Note_on_c, 9, 42, 81
8, 9141, Note_off_c, 9, 42, 64
8, 9218, Note_on_c, 9, 35, 69
8, 9218, Note_on_c, 9, 42, 121
8, 9221, Note_off_c, 9, 35, 64
8, 9221, Note_off_c, 9, 42, 64
8, 9299, Note_on_c, 9, 35, 69
8, 9299, Note_on_c, 9, 42, 81
8, 9300, Note_off_c, 9, 35, 64
8, 9300, Note_off_c, 9, 42, 64
8, 9380, Note_on_c, 9, 42, 121
8, 9381, Note_off_c, 9, 42, 64
8, 9461, Note_on_c, 9, 35, 69
8, 9464, Note_off_c, 9, 35, 64
8, 9541, Note_on_c, 9, 56, 65
8, 9541, Note_on_c, 9, 53, 81
8, 9541, Note_on_c, 9, 49, 80
8, 9545, Note_off_c, 9, 56, 64
8, 9545, Note_off_c, 9, 53, 64
8, 9583, Note_off_c, 9, 49, 64
8, 9622, Note_on_c, 9, 35, 69
8, 9622, Note_on_c, 9, 53, 81
8, 9625, Note_off_c, 9, 35, 64
8, 9625, Note_off_c, 9, 53, 64
8, 9703, Note_on_c, 9, 56, 65
8, 9706, Note_on_c, 9, 53, 81
8, 9707, Note_off_c, 9, 56, 64
8, 9707, Note_off_c, 9, 53, 64
8, 9785, Note_on_c, 9, 35, 69
8, 9785, Note_on_c, 9, 53, 81
8, 9788, Note_off_c, 9, 35, 64
8, 9788, Note_off_c, 9, 53, 64
8, 9866, Note_on_c, 9, 35, 69
8, 9866, Note_on_c, 9, 56, 65
8, 9869, Note_off_c, 9, 35, 64
8, 9869, Note_off_c, 9, 56, 64
8, 9869, Note_on_c, 9, 53, 81
8, 9870, Note_off_c, 9, 53, 64
8, 9948, Note_on_c, 9, 53, 81
8, 9951, Note_off_c, 9, 53, 64
8, 10029, Note_on_c, 9, 56, 65
8, 10029, Note_on_c, 9, 53, 81
8, 10030, Note_off_c, 9, 56, 64
8, 10030, Note_off_c, 9, 53, 64
8, 10110, Note_on_c, 9, 35, 69
8, 10110, Note_on_c, 9, 53, 81
8, 10112, Note_off_c, 9, 35, 64
8, 10112, Note_off_c, 9, 53, 64
8, 10191, Note_on_c, 9, 35, 69
8, 10191, Note_on_c, 9, 56, 65
8, 10191, Note_on_c, 9, 53, 81
8, 10194, Note_off_c, 9, 35, 64
8, 10194, Note_off_c, 9, 56, 64
8, 10194, Note_off_c, 9, 53, 64
8, 10273, Note_on_c, 9, 53, 81
8, 10275, Note_off_c, 9, 53, 64
8, 10353, Note_on_c, 9, 56, 65
8, 10356, Note_off_c, 9, 56, 64
8, 10356, Note_on_c, 9, 53, 81
8, 10357, Note_off_c, 9, 53, 64
8, 10435, Note_on_c, 9, 53, 81
8, 10438, Note_off_c, 9, 53, 64
8, 10516, Note_on_c, 9, 35, 69
8, 10516, Note_on_c, 9, 56, 65
8, 10518, Note_on_c, 9, 53, 81
8, 10519, Note_off_c, 9, 35, 64
8, 10519, Note_off_c, 9, 56, 64
8, 10519, Note_off_c, 9, 53, 64
8, 10597, Note_on_c, 9, 35, 69
8, 10597, Note_on_c, 9, 53, 81
8, 10598, Note_off_c, 9, 35, 64
8, 10598, Note_off_c, 9, 53, 64
8, 10677, Note_on_c, 9, 56, 65
8, 10677, Note_on_c, 9, 53, 81
8, 10678, Note_off_c, 9, 56, 64
8, 10678, Note_off_c, 9, 53, 64
8, 10760, Note_on_c, 9, 35, 69
8, 10760, Note_on_c, 9, 53, 81
8, 10761, Note_off_c, 9, 35, 64
8, 10761, Note_off_c, 9, 53, 64
8, 10839, Note_on_c, 9, 56, 65
8, 10839, Note_on_c, 9, 53, 81
8, 10843, Note_off_c, 9, 56, 64
8, 10843, Note_off_c, 9, 53, 64
8, 10921, Note_on_c, 9, 35, 69
8, 10922, Note_on_c, 9, 53, 81
8, 10925, Note_off_c, 9, 35, 64
8, 10925, Note_off_c, 9, 53, 64
8, 11001, Note_on_c, 9, 56, 65
8, 11004, Note_on_c, 9, 53, 81
8, 11005, Note_off_c, 9, 56, 64
8, 11005, Note_off_c, 9, 53, 64
8, 11083, Note_on_c, 9, 35, 69
8, 11083, Note_on_c, 9, 53, 81
8, 11086, Note_off_c, 9, 35, 64
8, 11086, Note_off_c, 9, 53, 64
8, 11164, Note_on_c, 9, 35, 69
8, 11164, Note_on_c, 9, 56, 65
8, 11164, Note_on_c, 9, 53, 81
8, 11167, Note_off_c, 9, 35, 64
8, 11167, Note_off_c, 9, 56, 64
8, 11167, Note_off_c, 9, 53, 64
8, 11246, Note_on_c, 9, 53, 81
8, 11250, Note_off_c, 9, 53, 64
8, 11326, Note_on_c, 9, 56, 65
8, 11326, Note_on_c, 9, 53, 81
8, 11329, Note_off_c, 9, 56, 64
8, 11329, Note_off_c, 9, 53, 64
8, 11408, Note_on_c, 9, 35, 69
8, 11408, Note_on_c, 9, 53, 81
8, 11409, Note_off_c, 9, 35, 64
8, 11409, Note_off_c, 9, 53, 64
8, 11489, Note_on_c, 9, 35, 69
8, 11489, Note_on_c, 9, 56, 65
8, 11489, Note_on_c, 9, 53, 81
8, 11490, Note_off_c, 9, 35, 64
8, 11490, Note_off_c, 9, 56, 64
8, 11490, Note_off_c, 9, 53, 64
8, 11570, Note_on_c, 9, 53, 81
8, 11573, Note_off_c, 9, 53, 64
8, 11651, Note_on_c, 9, 56, 65
8, 11653, Note_on_c, 9, 53, 81
8, 11654, Note_off_c, 9, 56, 64
8, 11654, Note_off_c, 9, 53, 64
8, 11732, Note_on_c, 9, 53, 81
8, 11735, Note_off_c, 9, 53, 64
8, 11813, Note_on_c, 9, 35, 69
8, 11813, Note_on_c, 9, 56, 65
8, 11816, Note_off_c, 9, 35, 64
8, 11816, Note_off_c, 9, 56, 64
8, 11816, Note_on_c, 9, 53, 81
8, 11817, Note_off_c, 9, 53, 64
8, 11899, Note_on_c, 9, 35, 69
8, 11899, Note_on_c, 9, 53, 81
8, 11900, Note_off_c, 9, 35, 64
8, 11900, Note_off_c, 9, 53, 64
8, 11977, Note_on_c, 9, 56, 65
8, 11978, Note_off_c, 9, 56, 64
8, 11978, Note_on_c, 9, 53, 81
8, 11979, Note_off_c, 9, 53, 64
8, 12057, Note_on_c, 9, 35, 69
8, 12057, Note_on_c, 9, 53, 81
8, 12058, Note_off_c, 9, 35, 64
8, 12058, Note_off_c, 9, 53, 64
8, 12138, Note_on_c, 9, 56, 65
8, 12138, Note_on_c, 9, 53, 81
8, 12141, Note_off_c, 9, 56, 64
8, 12219, Note_on_c, 9, 35, 69
8, 12222, Note_off_c, 9, 53, 64
8, 12222, Note_off_c, 9, 35, 64
8, 12300, Note_on_c, 9, 56, 65
8, 12301, Note_on_c, 9, 53, 81
8, 12303, Note_off_c, 9, 56, 64
8, 12303, Note_off_c, 9, 53, 64
8, 12383, Note_on_c, 9, 35, 69
8, 12383, Note_on_c, 9, 53, 81
8, 12386, Note_off_c, 9, 35, 64
8, 12386, Note_off_c, 9, 53, 64
8, 12462, Note_on_c, 9, 35, 69
8, 12462, Note_on_c, 9, 56, 65
8, 12465, Note_off_c, 9, 35, 64
8, 12465, Note_off_c, 9, 56, 64
8, 12465, Note_on_c, 9, 53, 81
8, 12466, Note_off_c, 9, 53, 64
8, 12545, Note_on_c, 9, 53, 81
8, 12547, Note_off_c, 9, 53, 64
8, 12624, Note_on_c, 9, 56, 65
8, 12624, Note_on_c, 9, 53, 81
8, 12628, Note_off_c, 9, 56, 64
8, 12628, Note_off_c, 9, 53, 64
8, 12706, Note_on_c, 9, 35, 69
8, 12706, Note_on_c, 9, 53, 81
8, 12707, Note_off_c, 9, 35, 64
8, 12707, Note_off_c, 9, 53, 64
8, 12788, Note_on_c, 9, 35, 69
8, 12788, Note_on_c, 9, 56, 65
8, 12788, Note_on_c, 9, 53, 81
8, 12791, Note_off_c, 9, 35, 64
8, 12791, Note_off_c, 9, 56, 64
8, 12791, Note_off_c, 9, 53, 64
8, 12869, Note_on_c, 9, 53, 81
8, 12871, Note_off_c, 9, 53, 64
8, 12949, Note_on_c, 9, 56, 65
8, 12952, Note_off_c, 9, 56, 64
8, 12952, Note_on_c, 9, 53, 81
8, 12953, Note_off_c, 9, 53, 64
8, 13030, Note_on_c, 9, 53, 81
8, 13033, Note_off_c, 9, 53, 64
8, 13111, Note_on_c, 9, 35, 69
8, 13111, Note_on_c, 9, 56, 65
8, 13114, Note_on_c, 9, 53, 81
8, 13115, Note_off_c, 9, 35, 64
8, 13115, Note_off_c, 9, 56, 64
8, 13115, Note_off_c, 9, 53, 64
8, 13193, Note_on_c, 9, 35, 69
8, 13193, Note_on_c, 9, 53, 81
8, 13194, Note_off_c, 9, 35, 64
8, 13194, Note_off_c, 9, 53, 64
8, 13273, Note_on_c, 9, 56, 65
8, 13273, Note_on_c, 9, 53, 81
8, 13274, Note_off_c, 9, 56, 64
8, 13274, Note_off_c, 9, 53, 64
8, 13355, Note_on_c, 9, 35, 69
8, 13355, Note_on_c, 9, 53, 81
8, 13359, Note_off_c, 9, 35, 64
8, 13359, Note_off_c, 9, 53, 64
8, 13436, Note_on_c, 9, 56, 65
8, 13436, Note_on_c, 9, 53, 81
8, 13439, Note_off_c, 9, 56, 64
8, 13439, Note_off_c, 9, 53, 64
8, 13518, Note_on_c, 9, 35, 69
8, 13518, Note_on_c, 9, 53, 81
8, 13520, Note_off_c, 9, 35, 64
8, 13520, Note_off_c, 9, 53, 64
8, 13597, Note_on_c, 9, 56, 65
8, 13599, Note_on_c, 9, 53, 81
8, 13602, Note_off_c, 9, 56, 64
8, 13602, Note_off_c, 9, 53, 64
8, 13680, Note_on_c, 9, 35, 69
8, 13680, Note_on_c, 9, 53, 81
8, 13682, Note_off_c, 9, 35, 64
8, 13682, Note_off_c, 9, 53, 64
8, 13761, Note_on_c, 9, 35, 69
8, 13761, Note_on_c, 9, 56, 65
8, 13763, Note_off_c, 9, 35, 64
8, 13763, Note_off_c, 9, 56, 64
8, 13763, Note_on_c, 9, 53, 81
8, 13764, Note_off_c, 9, 53, 64
8, 13842, Note_on_c, 9, 53, 81
8, 13845, Note_off_c, 9, 53, 64
8, 13922, Note_on_c, 9, 56, 65
8, 13922, Note_on_c, 9, 53, 81
8, 13923, Note_off_c, 9, 56, 64
8, 13923, Note_off_c, 9, 53, 64
8, 14003, Note_on_c, 9, 35, 69
8, 14003, Note_on_c, 9, 53, 81
8, 14004, Note_off_c, 9, 35, 64
8, 14004, Note_off_c, 9, 53, 64
8, 14084, Note_on_c, 9, 35, 69
8, 14084, Note_on_c, 9, 56, 65
8, 14084, Note_on_c, 9, 53, 81
8, 14088, Note_off_c, 9, 35, 64
8, 14088, Note_off_c, 9, 56, 64
8, 14088, Note_off_c, 9, 53, 64
8, 14166, Note_on_c, 9, 53, 81
8, 14168, Note_off_c, 9, 53, 64
8, 14247, Note_on_c, 9, 56, 65
8, 14249, Note_on_c, 9, 53, 81
8, 14250, Note_off_c, 9, 56, 64
8, 14250, Note_off_c, 9, 53, 64
8, 14328, Note_on_c, 9, 53, 81
8, 14331, Note_off_c, 9, 53, 64
8, 14409, Note_on_c, 9, 35, 69
8, 14409, Note_on_c, 9, 56, 65
8, 14412, Note_off_c, 9, 35, 64
8, 14412, Note_off_c, 9, 56, 64
8, 14412, Note_on_c, 9, 53, 81
8, 14413, Note_off_c, 9, 53, 64
8, 14490, Note_on_c, 9, 35, 69
8, 14490, Note_on_c, 9, 53, 81
8, 14491, Note_off_c, 9, 35, 64
8, 14491, Note_off_c, 9, 53, 64
8, 14571, Note_on_c, 9, 56, 65
8, 14571, Note_on_c, 9, 53, 81
8, 14574, Note_off_c, 9, 56, 64
8, 14574, Note_off_c, 9, 53, 64
8, 14653, Note_on_c, 9, 35, 69
8, 14653, Note_on_c, 9, 53, 81
8, 14654, Note_off_c, 9, 35, 64
8, 14654, Note_off_c, 9, 53, 64
8, 14733, Note_on_c, 9, 56, 65
8, 14733, Note_on_c, 9, 53, 81
8, 14737, Note_off_c, 9, 56, 64
8, 14737, Note_off_c, 9, 53, 64
8, 14815, Note_on_c, 9, 35, 69
8, 14815, Note_on_c, 9, 53, 81
8, 14818, Note_off_c, 9, 35, 64
8, 14818, Note_off_c, 9, 53, 64
8, 14896, Note_on_c, 9, 56, 65
8, 14896, Note_on_c, 9, 53, 81
8, 14899, Note_off_c, 9, 56, 64
8, 14899, Note_off_c, 9, 53, 64
8, 14977, Note_on_c, 9, 35, 69
8, 14977, Note_on_c, 9, 53, 81
8, 14978, Note_off_c, 9, 35, 64
8, 14978, Note_off_c, 9, 53, 64
8, 15058, Note_on_c, 9, 35, 69
8, 15058, Note_on_c, 9, 56, 65
8, 15059, Note_on_c, 9, 53, 81
8, 15061, Note_off_c, 9, 35, 64
8, 15061, Note_off_c, 9, 56, 64
8, 15061, Note_off_c, 9, 53, 64
8, 15140, Note_on_c, 9, 53, 81
8, 15142, Note_off_c, 9, 53, 64
8, 15220, Note_on_c, 9, 56, 65
8, 15220, Note_on_c, 9, 53, 81
8, 15225, Note_off_c, 9, 56, 64
8, 15225, Note_off_c, 9, 53, 64
8, 15301, Note_on_c, 9, 35, 69
8, 15301, Note_on_c, 9, 53, 81
8, 15302, Note_off_c, 9, 35, 64
8, 15302, Note_off_c, 9, 53, 64
8, 15382, Note_on_c, 9, 35, 69
8, 15382, Note_on_c, 9, 56, 65
8, 15382, Note_on_c, 9, 53, 81
8, 15386, Note_off_c, 9, 35, 64
8, 15386, Note_off_c, 9, 56, 64
8, 15386, Note_off_c, 9, 53, 64
8, 15464, Note_on_c, 9, 53, 81
8, 15466, Note_off_c, 9, 53, 64
8, 15545, Note_on_c, 9, 56, 65
8, 15545, Note_on_c, 9, 53, 81
8, 15546, Note_off_c, 9, 56, 64
8, 15546, Note_off_c, 9, 53, 64
8, 15626, Note_on_c, 9, 53, 81
8, 15631, Note_off_c, 9, 53, 64
8, 15707, Note_on_c, 9, 35, 69
8, 15707, Note_on_c, 9, 56, 65
8, 15707, Note_on_c, 9, 53, 81
8, 15710, Note_off_c, 9, 35, 64
8, 15710, Note_off_c, 9, 56, 64
8, 15710, Note_off_c, 9, 53, 64
8, 15787, Note_on_c, 9, 35, 69
8, 15787, Note_on_c, 9, 53, 81
8, 15788, Note_off_c, 9, 35, 64
8, 15788, Note_off_c, 9, 53, 64
8, 15869, Note_on_c, 9, 56, 65
8, 15869, Note_on_c, 9, 53, 81
8, 15870, Note_off_c, 9, 56, 64
8, 15870, Note_off_c, 9, 53, 64
8, 15949, Note_on_c, 9, 35, 69
8, 15949, Note_on_c, 9, 53, 81
8, 15952, Note_off_c, 9, 35, 64
8, 15952, Note_off_c, 9, 53, 64
8, 16031, Note_on_c, 9, 56, 65
8, 16031, Note_on_c, 9, 53, 81
8, 16034, Note_off_c, 9, 56, 64
8, 16034, Note_off_c, 9, 53, 64
8, 16112, Note_on_c, 9, 35, 69
8, 16112, Note_on_c, 9, 53, 81
8, 16114, Note_off_c, 9, 35, 64
8, 16114, Note_off_c, 9, 53, 64
8, 16193, Note_on_c, 9, 56, 65
8, 16194, Note_on_c, 9, 53, 81
8, 16196, Note_off_c, 9, 56, 64
8, 16196, Note_off_c, 9, 53, 64
8, 16274, Note_on_c, 9, 35, 69
8, 16274, Note_on_c, 9, 53, 81
8, 16277, Note_off_c, 9, 35, 64
8, 16277, Note_off_c, 9, 53, 64
8, 16356, Note_on_c, 9, 35, 69
8, 16356, Note_on_c, 9, 56, 65
8, 16358, Note_on_c, 9, 53, 81
8, 16359, Note_off_c, 9, 35, 64
8, 16359, Note_off_c, 9, 56, 64
8, 16359, Note_off_c, 9, 53, 64
8, 16437, Note_on_c, 9, 53, 81
8, 16439, Note_off_c, 9, 53, 64
8, 16518, Note_on_c, 9, 56, 65
8, 16518, Note_on_c, 9, 53, 81
8, 16519, Note_off_c, 9, 56, 64
8, 16519, Note_off_c, 9, 53, 64
8, 16599, Note_on_c, 9, 35, 69
8, 16599, Note_on_c, 9, 53, 81
8, 16600, Note_off_c, 9, 35, 64
8, 16600, Note_off_c, 9, 53, 64
8, 16680, Note_on_c, 9, 35, 69
8, 16680, Note_on_c, 9, 56, 65
8, 16680, Note_on_c, 9, 53, 81
8, 16683, Note_off_c, 9, 35, 64
8, 16683, Note_off_c, 9, 56, 64
8, 16683, Note_off_c, 9, 53, 64
8, 16760, Note_on_c, 9, 53, 81
8, 16764, Note_off_c, 9, 53, 64
8, 16842, Note_on_c, 9, 56, 65
8, 16844, Note_on_c, 9, 53, 81
8, 16845, Note_off_c, 9, 56, 64
8, 16845, Note_off_c, 9, 53, 64
8, 16923, Note_on_c, 9, 53, 81
8, 16926, Note_off_c, 9, 53, 64
8, 17004, Note_on_c, 9, 35, 69
8, 17004, Note_on_c, 9, 56, 65
8, 17004, Note_on_c, 9, 53, 81
8, 17008, Note_off_c, 9, 35, 64
8, 17008, Note_off_c, 9, 56, 64
8, 17008, Note_off_c, 9, 53, 64
8, 17085, Note_on_c, 9, 35, 69
8, 17085, Note_on_c, 9, 53, 81
8, 17085, Note_on_c, 9, 50, 81
8, 17085, Note_on_c, 9, 47, 81
8, 17090, Note_off_c, 9, 53, 64
8, 17090, Note_off_c, 9, 50, 64
8, 17090, Note_off_c, 9, 47, 64
8, 17091, Note_off_c, 9, 35, 64
8, 17167, Note_on_c, 9, 56, 65
8, 17167, Note_on_c, 9, 53, 81
8, 17167, Note_on_c, 9, 50, 81
8, 17167, Note_on_c, 9, 47, 81
8, 17168, Note_off_c, 9, 50, 64
8, 17168, Note_off_c, 9, 47, 64
8, 17172, Note_off_c, 9, 56, 64
8, 17172, Note_off_c, 9, 53, 64
8, 17248, Note_on_c, 9, 35, 69
8, 17248, Note_on_c, 9, 53, 81
8, 17248, Note_on_c, 9, 50, 81
8, 17248, Note_on_c, 9, 47, 81
8, 17252, Note_off_c, 9, 53, 64
8, 17252, Note_off_c, 9, 50, 64
8, 17252, Note_off_c, 9, 47, 64
8, 17253, Note_off_c, 9, 35, 64
8, 17329, Note_on_c, 9, 42, 121
8, 17329, Note_on_c, 9, 49, 80
8, 17330, Note_off_c, 9, 42, 64
8, 17370, Note_off_c, 9, 49, 64
8, 17410, Note_on_c, 9, 35, 69
8, 17410, Note_on_c, 9, 42, 81
8, 17415, Note_off_c, 9, 35, 64
8, 17415, Note_off_c, 9, 42, 64
8, 17491, Note_on_c, 9, 42, 121
8, 17495, Note_off_c, 9, 42, 64
8, 17573, Note_on_c, 9, 35, 69
8, 17573, Note_on_c, 9, 42, 81
8, 17575, Note_off_c, 9, 35, 64
8, 17575, Note_off_c, 9, 42, 64
8, 17653, Note_on_c, 9, 35, 69
8, 17653, Note_on_c, 9, 42, 121
8, 17657, Note_off_c, 9, 35, 64
8, 17657, Note_off_c, 9, 42, 64
8, 17734, Note_on_c, 9, 42, 81
8, 17737, Note_off_c, 9, 42, 64
8, 17815, Note_on_c, 9, 42, 121
8, 17818, Note_off_c, 9, 42, 64
8, 17897, Note_on_c, 9, 35, 69
8, 17897, Note_on_c, 9, 42, 81
8, 17899, Note_off_c, 9, 35, 64
8, 17899, Note_off_c, 9, 42, 64
8, 17978, Note_on_c, 9, 35, 69
8, 17978, Note_on_c, 9, 42, 121
8, 17982, Note_off_c, 9, 35, 64
8, 17982, Note_off_c, 9, 42, 64
8, 18058, Note_on_c, 9, 42, 81
8, 18062, Note_off_c, 9, 42, 64
8, 18140, Note_on_c, 9, 42, 121
8, 18143, Note_off_c, 9, 42, 64
8, 18221, Note_on_c, 9, 42, 81
8, 18224, Note_off_c, 9, 42, 64
8, 18303, Note_on_c, 9, 35, 69
8, 18303, Note_on_c, 9, 42, 121
8, 18305, Note_off_c, 9, 35, 64
8, 18305, Note_off_c, 9, 42, 64
8, 18383, Note_on_c, 9, 35, 69
8, 18383, Note_on_c, 9, 42, 81
8, 18386, Note_off_c, 9, 35, 64
8, 18386, Note_off_c, 9, 42, 64
8, 18464, Note_on_c, 9, 42, 121
8, 18467, Note_off_c, 9, 42, 64
8, 18545, Note_on_c, 9, 35, 69
8, 18545, Note_on_c, 9, 46, 81
8, 18548, Note_off_c, 9, 35, 64
8, 18548, Note_off_c, 9, 46, 64
8, 18627, Note_on_c, 9, 42, 121
8, 18628, Note_off_c, 9, 42, 64
8, 18707, Note_on_c, 9, 35, 69
8, 18707, Note_on_c, 9, 42, 81
8, 18711, Note_off_c, 9, 35, 64
8, 18711, Note_off_c, 9, 42, 64
8, 18788, Note_on_c, 9, 42, 121
8, 18793, Note_off_c, 9, 42, 64
8, 18869, Note_on_c, 9, 35, 69
8, 18869, Note_on_c, 9, 42, 81
8, 18872, Note_off_c, 9, 35, 64
8, 18872, Note_off_c, 9, 42, 64
8, 18951, Note_on_c, 9, 35, 69
8, 18951, Note_on_c, 9, 42, 121
8, 18954, Note_off_c, 9, 35, 64
8, 18954, Note_off_c, 9, 42, 64
8, 19032, Note_on_c, 9, 42, 81
8, 19035, Note_off_c, 9, 42, 64
8, 19114, Note_on_c, 9, 42, 121
8, 19116, Note_off_c, 9, 42, 64
8, 19194, Note_on_c, 9, 35, 69
8, 19194, Note_on_c, 9, 42, 81
8, 19198, Note_off_c, 9, 35, 64
8, 19198, Note_off_c, 9, 42, 64
8, 19276, Note_on_c, 9, 35, 69
8, 19276, Note_on_c, 9, 42, 121
8, 19277, Note_off_c, 9, 35, 64
8, 19277, Note_off_c, 9, 42, 64
8, 19356, Note_on_c, 9, 42, 81
8, 19360, Note_off_c, 9, 42, 64
8, 19438, Note_on_c, 9, 42, 121
8, 19440, Note_off_c, 9, 42, 64
8, 19518, Note_on_c, 9, 42, 81
8, 19521, Note_off_c, 9, 42, 64
8, 19600, Note_on_c, 9, 35, 69
8, 19600, Note_on_c, 9, 42, 121
8, 19602, Note_off_c, 9, 35, 64
8, 19602, Note_off_c, 9, 42, 64
8, 19680, Note_on_c, 9, 35, 69
8, 19681, Note_on_c, 9, 42, 81
8, 19685, Note_off_c, 9, 35, 64
8, 19685, Note_off_c, 9, 42, 64
8, 19761, Note_on_c, 9, 42, 121
8, 19765, Note_off_c, 9, 42, 64
8, 19843, Note_on_c, 9, 35, 69
8, 19843, Note_on_c, 9, 46, 81
8, 19844, Note_off_c, 9, 35, 64
8, 19844, Note_off_c, 9, 46, 64
8, 19925, Note_on_c, 9, 42, 121
8, 19926, Note_off_c, 9, 42, 64
8, 20006, Note_on_c, 9, 35, 69
8, 20006, Note_on_c, 9, 42, 81
8, 20010, Note_off_c, 9, 35, 64
8, 20010, Note_off_c, 9, 42, 64
8, 20086, Note_on_c, 9, 42, 121
8, 20091, Note_off_c, 9, 42, 64
8, 20168, Note_on_c, 9, 35, 69
8, 20168, Note_on_c, 9, 42, 81
8, 20171, Note_off_c, 9, 35, 64
8, 20171, Note_off_c, 9, 42, 64
8, 20250, Note_on_c, 9, 35, 69
8, 20250, Note_on_c, 9, 42, 121
8, 20253, Note_off_c, 9, 35, 64
8, 20253, Note_off_c, 9, 42, 64
8, 20329, Note_on_c, 9, 42, 81
8, 20333, Note_off_c, 9, 42, 64
8, 20411, Note_on_c, 9, 42, 121
8, 20414, Note_off_c, 9, 42, 64
8, 20493, Note_on_c, 9, 35, 69
8, 20493, Note_on_c, 9, 42, 81
8, 20496, Note_off_c, 9, 35, 64
8, 20496, Note_off_c, 9, 42, 64
8, 20574, Note_on_c, 9, 35, 69
8, 20574, Note_on_c, 9, 42, 121
8, 20575, Note_off_c, 9, 35, 64
8, 20575, Note_off_c, 9, 42, 64
8, 20655, Note_on_c, 9, 42, 81
8, 20658, Note_off_c, 9, 42, 64
8, 20737, Note_on_c, 9, 42, 121
8, 20738, Note_off_c, 9, 42, 64
8, 20817, Note_on_c, 9, 42, 81
8, 20820, Note_off_c, 9, 42, 64
8, 20898, Note_on_c, 9, 35, 69
8, 20898, Note_on_c, 9, 42, 121
8, 20901, Note_off_c, 9, 35, 64
8, 20901, Note_off_c, 9, 42, 64
8, 20979, Note_on_c, 9, 35, 69
8, 20979, Note_on_c, 9, 42, 81
8, 20984, Note_off_c, 9, 35, 64
8, 20984, Note_off_c, 9, 42, 64
8, 21061, Note_on_c, 9, 42, 121
8, 21065, Note_off_c, 9, 42, 64
8, 21141, Note_on_c, 9, 35, 69
8, 21141, Note_on_c, 9, 46, 81
8, 21145, Note_off_c, 9, 35, 64
8, 21145, Note_off_c, 9, 46, 64
8, 21223, Note_on_c, 9, 42, 121
8, 21224, Note_off_c, 9, 42, 64
8, 21304, Note_on_c, 9, 35, 69
8, 21304, Note_on_c, 9, 42, 81
8, 21308, Note_off_c, 9, 35, 64
8, 21308, Note_off_c, 9, 42, 64
8, 21385, Note_on_c, 9, 42, 121
8, 21389, Note_off_c, 9, 42, 64
8, 21466, Note_on_c, 9, 35, 69
8, 21466, Note_on_c, 9, 42, 81
8, 21469, Note_off_c, 9, 35, 64
8, 21469, Note_off_c, 9, 42, 64
8, 21551, Note_on_c, 9, 35, 69
8, 21551, Note_on_c, 9, 42, 121
8, 21552, Note_off_c, 9, 35, 64
8, 21552, Note_off_c, 9, 42, 64
8, 21628, Note_on_c, 9, 42, 81
8, 21631, Note_off_c, 9, 42, 64
8, 21710, Note_on_c, 9, 42, 121
8, 21713, Note_off_c, 9, 42, 64
8, 21791, Note_on_c, 9, 35, 69
8, 21791, Note_on_c, 9, 42, 81
8, 21794, Note_off_c, 9, 35, 64
8, 21794, Note_off_c, 9, 42, 64
8, 21872, Note_on_c, 9, 35, 69
8, 21872, Note_on_c, 9, 42, 121
8, 21873, Note_off_c, 9, 35, 64
8, 21873, Note_off_c, 9, 42, 64
8, 21953, Note_on_c, 9, 42, 81
8, 21957, Note_off_c, 9, 42, 64
8, 22035, Note_on_c, 9, 42, 121
8, 22040, Note_off_c, 9, 42, 64
8, 22115, Note_on_c, 9, 42, 81
8, 22117, Note_off_c, 9, 42, 64
8, 22197, Note_on_c, 9, 35, 69
8, 22197, Note_on_c, 9, 42, 121
8, 22199, Note_off_c, 9, 35, 64
8, 22199, Note_off_c, 9, 42, 64
8, 22277, Note_on_c, 9, 35, 69
8, 22277, Note_on_c, 9, 42, 81
8, 22282, Note_off_c, 9, 35, 64
8, 22282, Note_off_c, 9, 42, 64
8, 22358, Note_on_c, 9, 42, 121
8, 22359, Note_off_c, 9, 42, 64
8, 22439, Note_on_c, 9, 35, 69
8, 22443, Note_off_c, 9, 35, 64
8, 22521, Note_on_c, 9, 56, 65
8, 22521, Note_on_c, 9, 53, 81
8, 22521, Note_on_c, 9, 49, 80
8, 22524, Note_off_c, 9, 56, 64
8, 22524, Note_off_c, 9, 53, 64
8, 22562, Note_off_c, 9, 49, 64
8, 22601, Note_on_c, 9, 35, 69
8, 22601, Note_on_c, 9, 53, 81
8, 22604, Note_off_c, 9, 35, 64
8, 22604, Note_off_c, 9, 53, 64
8, 22683, Note_on_c, 9, 56, 65
8, 22685, Note_on_c, 9, 53, 81
8, 22687, Note_off_c, 9, 56, 64
8, 22687, Note_off_c, 9, 53, 64
8, 22763, Note_on_c, 9, 35, 69
8, 22763, Note_on_c, 9, 53, 81
8, 22766, Note_off_c, 9, 35, 64
8, 22766, Note_off_c, 9, 53, 64
8, 22844, Note_on_c, 9, 35, 69
8, 22844, Note_on_c, 9, 56, 65
8, 22846, Note_on_c, 9, 53, 81
8, 22847, Note_off_c, 9, 35, 64
8, 22847, Note_off_c, 9, 56, 64
8, 22847, Note_off_c, 9, 53, 64
8, 22925, Note_on_c, 9, 53, 81
8, 22929, Note_off_c, 9, 53, 64
8, 23007, Note_on_c, 9, 56, 65
8, 23007, Note_on_c, 9, 53, 81
8, 23011, Note_off_c, 9, 56, 64
8, 23011, Note_off_c, 9, 53, 64
8, 23088, Note_on_c, 9, 35, 69
8, 23088, Note_on_c, 9, 53, 81
8, 23089, Note_off_c, 9, 35, 64
8, 23089, Note_off_c, 9, 53, 64
8, 23169, Note_on_c, 9, 35, 69
8, 23169, Note_on_c, 9, 56, 65
8, 23169, Note_on_c, 9, 53, 81
8, 23172, Note_off_c, 9, 35, 64
8, 23172, Note_off_c, 9, 56, 64
8, 23172, Note_off_c, 9, 53, 64
8, 23250, Note_on_c, 9, 53, 81
8, 23253, Note_off_c, 9, 53, 64
8, 23330, Note_on_c, 9, 56, 65
8, 23332, Note_on_c, 9, 53, 81
8, 23334, Note_off_c, 9, 56, 64
8, 23334, Note_off_c, 9, 53, 64
8, 23412, Note_on_c, 9, 53, 81
8, 23415, Note_off_c, 9, 53, 64
8, 23494, Note_on_c, 9, 35, 69
8, 23494, Note_on_c, 9, 56, 65
8, 23495, Note_on_c, 9, 53, 81
8, 23497, Note_off_c, 9, 35, 64
8, 23497, Note_off_c, 9, 56, 64
8, 23497, Note_off_c, 9, 53, 64
8, 23574, Note_on_c, 9, 35, 69
8, 23574, Note_on_c, 9, 53, 81
8, 23575, Note_off_c, 9, 35, 64
8, 23575, Note_off_c, 9, 53, 64
8, 23656, Note_on_c, 9, 56, 65
8, 23656, Note_on_c, 9, 53, 81
8, 23657, Note_off_c, 9, 56, 64
8, 23657, Note_off_c, 9, 53, 64
8, 23737, Note_on_c, 9, 35, 69
8, 23737, Note_on_c, 9, 53, 81
8, 23740, Note_off_c, 9, 35, 64
8, 23740, Note_off_c, 9, 53, 64
8, 23819, Note_on_c, 9, 56, 65
8, 23819, Note_on_c, 9, 53, 81
8, 23822, Note_off_c, 9, 56, 64
8, 23822, Note_off_c, 9, 53, 64
8, 23899, Note_on_c, 9, 35, 69
8, 23899, Note_on_c, 9, 53, 81
8, 23902, Note_off_c, 9, 35, 64
8, 23902, Note_off_c, 9, 53, 64
8, 23981, Note_on_c, 9, 56, 65
8, 23983, Note_on_c, 9, 53, 81
8, 23985, Note_off_c, 9, 56, 64
8, 23985, Note_off_c, 9, 53, 64
8, 24061, Note_on_c, 9, 35, 69
8, 24061, Note_on_c, 9, 53, 81
8, 24065, Note_off_c, 9, 35, 64
8, 24065, Note_off_c, 9, 53, 64
8, 24143, Note_on_c, 9, 35, 69
8, 24143, Note_on_c, 9, 56, 65
8, 24145, Note_on_c, 9, 53, 81
8, 24146, Note_off_c, 9, 35, 64
8, 24146, Note_off_c, 9, 56, 64
8, 24146, Note_off_c, 9, 53, 64
8, 24224, Note_on_c, 9, 53, 81
8, 24227, Note_off_c, 9, 53, 64
8, 24306, Note_on_c, 9, 56, 65
8, 24306, Note_on_c, 9, 53, 81
8, 24310, Note_off_c, 9, 56, 64
8, 24310, Note_off_c, 9, 53, 64
8, 24384, Note_on_c, 9, 35, 69
8, 24384, Note_on_c, 9, 53, 81
8, 24385, Note_off_c, 9, 35, 64
8, 24385, Note_off_c, 9, 53, 64
8, 24465, Note_on_c, 9, 35, 69
8, 24465, Note_on_c, 9, 56, 65
8, 24465, Note_on_c, 9, 53, 81
8, 24468, Note_off_c, 9, 35, 64
8, 24468, Note_off_c, 9, 56, 64
8, 24468, Note_off_c, 9, 53, 64
8, 24547, Note_on_c, 9, 53, 81
8, 24550, Note_off_c, 9, 53, 64
8, 24627, Note_on_c, 9, 56, 65
8, 24629, Note_on_c, 9, 53, 81
8, 24631, Note_off_c, 9, 56, 64
8, 24631, Note_off_c, 9, 53, 64
8, 24709, Note_on_c, 9, 53, 81
8, 24711, Note_off_c, 9, 53, 64
8, 24790, Note_on_c, 9, 35, 69
8, 24790, Note_on_c, 9, 56, 65
8, 24792, Note_on_c, 9, 53, 81
8, 24793, Note_off_c, 9, 35, 64
8, 24793, Note_off_c, 9, 56, 64
8, 24793, Note_off_c, 9, 53, 64
8, 24873, Note_on_c, 9, 35, 69
8, 24873, Note_on_c, 9, 53, 81
8, 24874, Note_off_c, 9, 35, 64
8, 24874, Note_off_c, 9, 53, 64
8, 24954, Note_on_c, 9, 56, 65
8, 24954, Note_on_c, 9, 53, 81
8, 24958, Note_off_c, 9, 56, 64
8, 24958, Note_off_c, 9, 53, 64
8, 25035, Note_on_c, 9, 35, 69
8, 25035, Note_on_c, 9, 53, 81
8, 25038, Note_off_c, 9, 35, 64
8, 25038, Note_off_c, 9, 53, 64
8, 25117, Note_on_c, 9, 56, 65
8, 25117, Note_on_c, 9, 53, 81
8, 25120, Note_off_c, 9, 56, 64
8, 25120, Note_off_c, 9, 53, 64
8, 25198, Note_on_c, 9, 35, 69
8, 25198, Note_on_c, 9, 53, 81
8, 25201, Note_off_c, 9, 35, 64
8, 25201, Note_off_c, 9, 53, 64
8, 25280, Note_on_c, 9, 56, 65
8, 25280, Note_on_c, 9, 53, 81
8, 25282, Note_off_c, 9, 56, 64
8, 25282, Note_off_c, 9, 53, 64
8, 25360, Note_on_c, 9, 35, 69
8, 25360, Note_on_c, 9, 53, 81
8, 25363, Note_off_c, 9, 35, 64
8, 25363, Note_off_c, 9, 53, 64
8, 25441, Note_on_c, 9, 35, 69
8, 25441, Note_on_c, 9, 56, 65
8, 25443, Note_on_c, 9, 53, 81
8, 25445, Note_off_c, 9, 35, 64
8, 25445, Note_off_c, 9, 56, 64
8, 25445, Note_off_c, 9, 53, 64
8, 25522, Note_on_c, 9, 53, 81
8, 25526, Note_off_c, 9, 53, 64
8, 25604, Note_on_c, 9, 56, 65
8, 25604, Note_on_c, 9, 53, 81
8, 25607, Note_off_c, 9, 56, 64
8, 25607, Note_off_c, 9, 53, 64
8, 25684, Note_on_c, 9, 35, 69
8, 25684, Note_on_c, 9, 53, 81
8, 25685, Note_off_c, 9, 35, 64
8, 25685, Note_off_c, 9, 53, 64
8, 25766, Note_on_c, 9, 35, 69
8, 25766, Note_on_c, 9, 56, 65
8, 25766, Note_on_c, 9, 53, 81
8, 25768, Note_off_c, 9, 35, 64
8, 25768, Note_off_c, 9, 56, 64
8, 25768, Note_off_c, 9, 53, 64
8, 25846, Note_on_c, 9, 53, 81
8, 25849, Note_off_c, 9, 53, 64
8, 25927, Note_on_c, 9, 56, 65
8, 25929, Note_on_c, 9, 53, 81
8, 25930, Note_off_c, 9, 56, 64
8, 25930, Note_off_c, 9, 53, 64
8, 26008, Note_on_c, 9, 53, 81
8, 26011, Note_off_c, 9, 53, 64
8, 26090, Note_on_c, 9, 35, 69
8, 26090, Note_on_c, 9, 56, 65
8, 26092, Note_on_c, 9, 53, 81
8, 26094, Note_off_c, 9, 35, 64
8, 26094, Note_off_c, 9, 56, 64
8, 26094, Note_off_c, 9, 53, 64
8, 26170, Note_on_c, 9, 35, 69
8, 26170, Note_on_c, 9, 53, 81
8, 26171, Note_off_c, 9, 35, 64
8, 26171, Note_off_c, 9, 53, 64
8, 26252, Note_on_c, 9, 56, 65
8, 26252, Note_on_c, 9, 53, 81
8, 26253, Note_off_c, 9, 56, 64
8, 26253, Note_off_c, 9, 53, 64
8, 26333, Note_on_c, 9, 35, 69
8, 26333, Note_on_c, 9, 53, 81
8, 26334, Note_off_c, 9, 35, 64
8, 26334, Note_off_c, 9, 53, 64
8, 26415, Note_on_c, 9, 56, 65
8, 26415, Note_on_c, 9, 53, 81
8, 26417, Note_off_c, 9, 56, 64
8, 26417, Note_off_c, 9, 53, 64
8, 26495, Note_on_c, 9, 35, 69
8, 26497, Note_on_c, 9, 53, 81
8, 26498, Note_off_c, 9, 35, 64
8, 26498, Note_off_c, 9, 53, 64
8, 26577, Note_on_c, 9, 56, 65
8, 26578, Note_on_c, 9, 53, 81
8, 26581, Note_off_c, 9, 56, 64
8, 26581, Note_off_c, 9, 53, 64
8, 26657, Note_on_c, 9, 35, 69
8, 26657, Note_on_c, 9, 53, 81
8, 26661, Note_off_c, 9, 35, 64
8, 26661, Note_off_c, 9, 53, 64
8, 26739, Note_on_c, 9, 35, 69
8, 26739, Note_on_c, 9, 56, 65
8, 26740, Note_off_c, 9, 35, 64
8, 26740, Note_off_c, 9, 56, 64
8, 26740, Note_on_c, 9, 53, 81
8, 26741, Note_off_c, 9, 53, 64
8, 26819, Note_on_c, 9, 53, 81
8, 26823, Note_off_c, 9, 53, 64
8, 26901, Note_on_c, 9, 56, 65
8, 26901, Note_on_c, 9, 53, 81
8, 26902, Note_off_c, 9, 56, 64
8, 26902, Note_off_c, 9, 53, 64
8, 26982, Note_on_c, 9, 35, 69
8, 26982, Note_on_c, 9, 53, 81
8, 26986, Note_off_c, 9, 35, 64
8, 26986, Note_off_c, 9, 53, 64
8, 27063, Note_on_c, 9, 35, 69
8, 27063, Note_on_c, 9, 56, 65
8, 27063, Note_on_c, 9, 53, 81
8, 27066, Note_off_c, 9, 35, 64
8, 27066, Note_off_c, 9, 56, 64
8, 27066, Note_off_c, 9, 53, 64
8, 27143, Note_on_c, 9, 53, 81
8, 27147, Note_off_c, 9, 53, 64
8, 27224, Note_on_c, 9, 56, 65
8, 27227, Note_on_c, 9, 53, 81
8, 27228, Note_off_c, 9, 56, 64
8, 27228, Note_off_c, 9, 53, 64
8, 27305, Note_on_c, 9, 53, 81
8, 27310, Note_off_c, 9, 53, 64
8, 27386, Note_on_c, 9, 35, 69
8, 27386, Note_on_c, 9, 56, 65
8, 27389, Note_on_c, 9, 53, 81
8, 27390, Note_off_c, 9, 35, 64
8, 27390, Note_off_c, 9, 56, 64
8, 27390, Note_off_c, 9, 53, 64
8, 27468, Note_on_c, 9, 35, 69
8, 27468, Note_on_c, 9, 53, 81
8, 27469, Note_off_c, 9, 35, 64
8, 27469, Note_off_c, 9, 53, 64
8, 27550, Note_on_c, 9, 56, 65
8, 27550, Note_on_c, 9, 53, 81
8, 27551, Note_off_c, 9, 56, 64
8, 27551, Note_off_c, 9, 53, 64
8, 27631, Note_on_c, 9, 35, 69
8, 27631, Note_on_c, 9, 53, 81
8, 27632, Note_off_c, 9, 35, 64
8, 27632, Note_off_c, 9, 53, 64
8, 27712, Note_on_c, 9, 56, 65
8, 27712, Note_on_c, 9, 53, 81
8, 27715, Note_off_c, 9, 56, 64
8, 27715, Note_off_c, 9, 53, 64
8, 27793, Note_on_c, 9, 35, 69
8, 27793, Note_on_c, 9, 53, 81
8, 27796, Note_off_c, 9, 35, 64
8, 27796, Note_off_c, 9, 53, 64
8, 27874, Note_on_c, 9, 56, 65
8, 27874, Note_on_c, 9, 53, 81
8, 27879, Note_off_c, 9, 56, 64
8, 27879, Note_off_c, 9, 53, 64
8, 27955, Note_on_c, 9, 35, 69
8, 27955, Note_on_c, 9, 53, 81
8, 27958, Note_off_c, 9, 35, 64
8, 27958, Note_off_c, 9, 53, 64
8, 28036, Note_on_c, 9, 35, 69
8, 28036, Note_on_c, 9, 56, 65
8, 28038, Note_off_c, 9, 35, 64
8, 28038, Note_on_c, 9, 53, 81
8, 28040, Note_off_c, 9, 56, 64
8, 28040, Note_off_c, 9, 53, 64
8, 28117, Note_on_c, 9, 53, 81
8, 28121, Note_off_c, 9, 53, 64
8, 28199, Note_on_c, 9, 56, 65
8, 28199, Note_on_c, 9, 53, 81
8, 28202, Note_off_c, 9, 56, 64
8, 28202, Note_off_c, 9, 53, 64
8, 28279, Note_on_c, 9, 35, 69
8, 28279, Note_on_c, 9, 53, 81
8, 28280, Note_off_c, 9, 35, 64
8, 28280, Note_off_c, 9, 53, 64
8, 28361, Note_on_c, 9, 35, 69
8, 28361, Note_on_c, 9, 56, 65
8, 28361, Note_on_c, 9, 53, 81
8, 28364, Note_off_c, 9, 35, 64
8, 28364, Note_off_c, 9, 56, 64
8, 28364, Note_off_c, 9, 53, 64
8, 28442, Note_on_c, 9, 53, 81
8, 28445, Note_off_c, 9, 53, 64
8, 28523, Note_on_c, 9, 56, 65
8, 28523, Note_on_c, 9, 53, 81
8, 28527, Note_off_c, 9, 56, 64
8, 28527, Note_off_c, 9, 53, 64
8, 28604, Note_on_c, 9, 53, 81
8, 28607, Note_off_c, 9, 53, 64
8, 28685, Note_on_c, 9, 35, 69
8, 28685, Note_on_c, 9, 56, 65
8, 28687, Note_on_c, 9, 53, 81
8, 28688, Note_off_c, 9, 35, 64
8, 28688, Note_off_c, 9, 56, 64
8, 28688, Note_off_c, 9, 53, 64
8, 28766, Note_on_c, 9, 35, 69
8, 28766, Note_on_c, 9, 53, 81
8, 28767, Note_off_c, 9, 35, 64
8, 28767, Note_off_c, 9, 53, 64
8, 28847, Note_on_c, 9, 56, 65
8, 28847, Note_on_c, 9, 53, 81
8, 28852, Note_off_c, 9, 56, 64
8, 28852, Note_off_c, 9, 53, 64
8, 28929, Note_on_c, 9, 35, 69
8, 28929, Note_on_c, 9, 53, 81
8, 28934, Note_off_c, 9, 35, 64
8, 28934, Note_off_c, 9, 53, 64
8, 29010, Note_on_c, 9, 56, 65
8, 29010, Note_on_c, 9, 53, 81
8, 29013, Note_off_c, 9, 56, 64
8, 29013, Note_off_c, 9, 53, 64
8, 29091, Note_on_c, 9, 35, 69
8, 29091, Note_on_c, 9, 53, 81
8, 29094, Note_off_c, 9, 35, 64
8, 29094, Note_off_c, 9, 53, 64
8, 29174, Note_on_c, 9, 56, 65
8, 29174, Note_on_c, 9, 53, 81
8, 29176, Note_off_c, 9, 56, 64
8, 29176, Note_off_c, 9, 53, 64
8, 29253, Note_on_c, 9, 35, 69
8, 29253, Note_on_c, 9, 53, 81
8, 29256, Note_off_c, 9, 35, 64
8, 29256, Note_off_c, 9, 53, 64
8, 29335, Note_on_c, 9, 35, 69
8, 29335, Note_on_c, 9, 56, 65
8, 29337, Note_off_c, 9, 35, 64
8, 29337, Note_off_c, 9, 56, 64
8, 29337, Note_on_c, 9, 53, 81
8, 29338, Note_off_c, 9, 53, 64
8, 29415, Note_on_c, 9, 53, 81
8, 29419, Note_off_c, 9, 53, 64
8, 29496, Note_on_c, 9, 56, 65
8, 29496, Note_on_c, 9, 53, 81
8, 29497, Note_off_c, 9, 56, 64
8, 29497, Note_off_c, 9, 53, 64
8, 29578, Note_on_c, 9, 35, 69
8, 29578, Note_on_c, 9, 53, 81
8, 29581, Note_off_c, 9, 35, 64
8, 29581, Note_off_c, 9, 53, 64
8, 29658, Note_on_c, 9, 35, 69
8, 29658, Note_on_c, 9, 56, 65
8, 29658, Note_on_c, 9, 53, 81
8, 29662, Note_off_c, 9, 35, 64
8, 29662, Note_off_c, 9, 56, 64
8, 29662, Note_off_c, 9, 53, 64
8, 29740, Note_on_c, 9, 53, 81
8, 29740, Note_on_c, 9, 50, 81
8, 29743, Note_off_c, 9, 53, 64
8, 29743, Note_off_c, 9, 50, 64
8, 29821, Note_on_c, 9, 56, 65
8, 29823, Note_on_c, 9, 53, 81
8, 29823, Note_on_c, 9, 50, 81
8, 29824, Note_off_c, 9, 56, 64
8, 29824, Note_off_c, 9, 50, 64
8, 29826, Note_off_c, 9, 53, 64
8, 29902, Note_on_c, 9, 53, 81
8, 29902, Note_on_c, 9, 50, 81
8, 29906, Note_off_c, 9, 53, 64
8, 29906, Note_off_c, 9, 50, 64
8, 29983, Note_on_c, 9, 35, 69
8, 29983, Note_on_c, 9, 56, 65
8, 29983, Note_on_c, 9, 53, 81
8, 29983, Note_on_c, 9, 50, 81
8, 29983, Note_on_c, 9, 47, 81
8, 29984, Note_off_c, 9, 50, 64
8, 29984, Note_off_c, 9, 47, 64
8, 29988, Note_off_c, 9, 35, 64
8, 29988, Note_off_c, 9, 56, 64
8, 29988, Note_off_c, 9, 53, 64
8, 30064, Note_on_c, 9, 35, 69
8, 30064, Note_on_c, 9, 53, 81
8, 30064, Note_on_c, 9, 50, 81
8, 30064, Note_on_c, 9, 47, 81
8, 30068, Note_off_c, 9, 35, 64
8, 30068, Note_off_c, 9, 53, 64
8, 30068, Note_off_c, 9, 50, 64
8, 30070, Note_off_c, 9, 47, 64
8, 30145, Note_on_c, 9, 56, 65
8, 30145, Note_on_c, 9, 53, 81
8, 30145, Note_on_c, 9, 43, 81
8, 30146, Note_off_c, 9, 53, 64
8, 30146, Note_off_c, 9, 43, 64
8, 30151, Note_off_c, 9, 56, 64
8, 30227, Note_on_c, 9, 35, 69
8, 30227, Note_on_c, 9, 53, 81
8, 30227, Note_on_c, 9, 43, 81
8, 30230, Note_off_c, 9, 53, 64
8, 30230, Note_off_c, 9, 43, 64
8, 30231, Note_off_c, 9, 35, 64
8, 30308, Note_on_c, 9, 42, 121
8, 30308, Note_on_c, 9, 49, 61
8, 30309, Note_off_c, 9, 42, 64
8, 30309, Note_off_c, 9, 49, 64
8, 30389, Note_on_c, 9, 35, 69
8, 30389, Note_on_c, 9, 42, 81
8, 30393, Note_off_c, 9, 35, 64
8, 30393, Note_off_c, 9, 42, 64
8, 30470, Note_on_c, 9, 42, 121
8, 30474, Note_off_c, 9, 42, 64
8, 30551, Note_on_c, 9, 35, 69
8, 30551, Note_on_c, 9, 42, 81
8, 30554, Note_off_c, 9, 35, 64
8, 30554, Note_off_c, 9, 42, 64
8, 30633, Note_on_c, 9, 35, 69
8, 30633, Note_on_c, 9, 42, 121
8, 30635, Note_off_c, 9, 35, 64
8, 30635, Note_off_c, 9, 42, 64
8, 30713, Note_on_c, 9, 42, 81
8, 30716, Note_off_c, 9, 42, 64
8, 30794, Note_on_c, 9, 42, 121
8, 30797, Note_off_c, 9, 42, 64
8, 30876, Note_on_c, 9, 35, 69
8, 30876, Note_on_c, 9, 42, 81
8, 30879, Note_off_c, 9, 35, 64
8, 30879, Note_off_c, 9, 42, 64
8, 30957, Note_on_c, 9, 35, 69
8, 30957, Note_on_c, 9, 42, 121
8, 30958, Note_off_c, 9, 35, 64
8, 30958, Note_off_c, 9, 42, 64
8, 31038, Note_on_c, 9, 42, 81
8, 31041, Note_off_c, 9, 42, 64
8, 31118, Note_on_c, 9, 42, 121
8, 31119, Note_off_c, 9, 42, 64
8, 31200, Note_on_c, 9, 42, 81
8, 31203, Note_off_c, 9, 42, 64
8, 31281, Note_on_c, 9, 35, 69
8, 31281, Note_on_c, 9, 42, 121
8, 31283, Note_off_c, 9, 35, 64
8, 31283, Note_off_c, 9, 42, 64
8, 31362, Note_on_c, 9, 35, 69
8, 31362, Note_on_c, 9, 42, 81
8, 31365, Note_off_c, 9, 35, 64
8, 31365, Note_off_c, 9, 42, 64
8, 31444, Note_on_c, 9, 42, 121
8, 31447, Note_off_c, 9, 42, 64
8, 31524, Note_on_c, 9, 35, 69
8, 31524, Note_on_c, 9, 46, 81
8, 31527, Note_off_c, 9, 35, 64
8, 31527, Note_off_c, 9, 46, 64
8, 31605, Note_on_c, 9, 42, 121
8, 31606, Note_off_c, 9, 42, 64
8, 31686, Note_on_c, 9, 35, 69
8, 31686, Note_on_c, 9, 42, 81
8, 31690, Note_off_c, 9, 35, 64
8, 31690, Note_off_c, 9, 42, 64
8, 31768, Note_on_c, 9, 42, 121
8, 31772, Note_off_c, 9, 42, 64
8, 31850, Note_on_c, 9, 35, 69
8, 31850, Note_on_c, 9, 42, 81
8, 31851, Note_off_c, 9, 35, 64
8, 31851, Note_off_c, 9, 42, 64
8, 31930, Note_on_c, 9, 35, 69
8, 31930, Note_on_c, 9, 42, 121
8, 31933, Note_off_c, 9, 35, 64
8, 31933, Note_off_c, 9, 42, 64
8, 32011, Note_on_c, 9, 42, 81
8, 32015, Note_off_c, 9, 42, 64
8, 32092, Note_on_c, 9, 42, 121
8, 32095, Note_off_c, 9, 42, 64
8, 32174, Note_on_c, 9, 35, 69
8, 32174, Note_on_c, 9, 42, 81
8, 32177, Note_off_c, 9, 35, 64
8, 32177, Note_off_c, 9, 42, 64
8, 32255, Note_on_c, 9, 35, 69
8, 32255, Note_on_c, 9, 42, 121
8, 32256, Note_off_c, 9, 35, 64
8, 32256, Note_off_c, 9, 42, 64
8, 32332, Note_on_c, 9, 42, 81
8, 32336, Note_off_c, 9, 42, 64
8, 32413, Note_on_c, 9, 42, 121
8, 32414, Note_off_c, 9, 42, 64
8, 32494, Note_on_c, 9, 42, 81
8, 32497, Note_off_c, 9, 42, 64
8, 32575, Note_on_c, 9, 35, 69
8, 32577, Note_on_c, 9, 42, 121
8, 32578, Note_off_c, 9, 35, 64
8, 32578, Note_off_c, 9, 42, 64
8, 32656, Note_on_c, 9, 35, 69
8, 32656, Note_on_c, 9, 42, 81
8, 32660, Note_off_c, 9, 35, 64
8, 32660, Note_off_c, 9, 42, 64
8, 32737, Note_on_c, 9, 42, 121
8, 32740, Note_off_c, 9, 42, 64
8, 32819, Note_on_c, 9, 35, 69
8, 32819, Note_on_c, 9, 46, 81
8, 32822, Note_off_c, 9, 35, 64
8, 32822, Note_off_c, 9, 46, 64
8, 32900, Note_on_c, 9, 42, 121
8, 32902, Note_off_c, 9, 42, 64
8, 32981, Note_on_c, 9, 35, 69
8, 32981, Note_on_c, 9, 42, 81
8, 32986, Note_off_c, 9, 35, 64
8, 32987, Note_off_c, 9, 42, 64
8, 33065, Note_on_c, 9, 42, 121
8, 33070, Note_off_c, 9, 42, 64
8, 33147, Note_on_c, 9, 35, 69
8, 33147, Note_on_c, 9, 42, 81
8, 33150, Note_off_c, 9, 35, 64
8, 33150, Note_off_c, 9, 42, 64
8, 33228, Note_on_c, 9, 35, 69
8, 33228, Note_on_c, 9, 42, 121
8, 33231, Note_off_c, 9, 35, 64
8, 33231, Note_off_c, 9, 42, 64
8, 33309, Note_on_c, 9, 42, 81
8, 33312, Note_off_c, 9, 42, 64
8, 33390, Note_on_c, 9, 42, 121
8, 33393, Note_off_c, 9, 42, 64
8, 33472, Note_on_c, 9, 35, 69
8, 33472, Note_on_c, 9, 42, 81
8, 33475, Note_off_c, 9, 35, 64
8, 33475, Note_off_c, 9, 42, 64
8, 33553, Note_on_c, 9, 35, 69
8, 33554, Note_on_c, 9, 42, 121
8, 33561, Note_off_c, 9, 35, 64
8, 33562, Note_off_c, 9, 42, 64
8, 33634, Note_on_c, 9, 42, 81
8, 33635, Note_off_c, 9, 42, 64
8, 33715, Note_on_c, 9, 42, 121
8, 33719, Note_off_c, 9, 42, 64
8, 33796, Note_on_c, 9, 42, 81
8, 33799, Note_off_c, 9, 42, 64
8, 33877, Note_on_c, 9, 35, 69
8, 33877, Note_on_c, 9, 42, 121
8, 33880, Note_off_c, 9, 35, 64
8, 33880, Note_off_c, 9, 42, 64
8, 33958, Note_on_c, 9, 35, 69
8, 33958, Note_on_c, 9, 42, 81
8, 33961, Note_off_c, 9, 35, 64
8, 33961, Note_off_c, 9, 42, 64
8, 34040, Note_on_c, 9, 42, 121
8, 34043, Note_off_c, 9, 42, 64
8, 34121, Note_on_c, 9, 35, 69
8, 34121, Note_on_c, 9, 46, 81
8, 34124, Note_off_c, 9, 35, 64
8, 34124, Note_off_c, 9, 46, 64
8, 34202, Note_on_c, 9, 42, 121
8, 34203, Note_off_c, 9, 42, 64
8, 34283, Note_on_c, 9, 35, 69
8, 34283, Note_on_c, 9, 42, 81
8, 34284, Note_off_c, 9, 35, 64
8, 34284, Note_off_c, 9, 42, 64
8, 34365, Note_on_c, 9, 42, 121
8, 34366, Note_off_c, 9, 42, 64
8, 34445, Note_on_c, 9, 35, 69
8, 34445, Note_on_c, 9, 42, 81
8, 34449, Note_off_c, 9, 35, 64
8, 34449, Note_off_c, 9, 42, 64
8, 34527, Note_on_c, 9, 35, 69
8, 34527, Note_on_c, 9, 42, 121
8, 34530, Note_off_c, 9, 35, 64
8, 34530, Note_off_c, 9, 42, 64
8, 34607, Note_on_c, 9, 42, 81
8, 34611, Note_off_c, 9, 42, 64
8, 34688, Note_on_c, 9, 42, 121
8, 34691, Note_off_c, 9, 42, 64
8, 34770, Note_on_c, 9, 35, 69
8, 34770, Note_on_c, 9, 42, 81
8, 34773, Note_off_c, 9, 35, 64
8, 34773, Note_off_c, 9, 42, 64
8, 34851, Note_on_c, 9, 35, 69
8, 34851, Note_on_c, 9, 42, 121
8, 34852, Note_off_c, 9, 35, 64
8, 34852, Note_off_c, 9, 42, 64
8, 34932, Note_on_c, 9, 42, 81
8, 34933, Note_off_c, 9, 42, 64
8, 35013, Note_on_c, 9, 42, 121
8, 35016, Note_off_c, 9, 42, 64
8, 35094, Note_on_c, 9, 42, 81
8, 35097, Note_off_c, 9, 42, 64
8, 35175, Note_on_c, 9, 35, 69
8, 35175, Note_on_c, 9, 42, 121
8, 35178, Note_off_c, 9, 35, 64
8, 35178, Note_off_c, 9, 42, 64
8, 35256, Note_on_c, 9, 35, 69
8, 35256, Note_on_c, 9, 42, 81
8, 35257, Note_off_c, 9, 35, 64
8, 35257, Note_off_c, 9, 42, 64
8, 35337, Note_on_c, 9, 42, 121
8, 35338, Note_off_c, 9, 42, 64
8, 35419, Note_on_c, 9, 35, 69
8, 35423, Note_off_c, 9, 35, 64
8, 35500, Note_on_c, 9, 56, 65
8, 35500, Note_on_c, 9, 53, 81
8, 35500, Note_on_c, 9, 49, 80
8, 35504, Note_off_c, 9, 56, 64
8, 35504, Note_off_c, 9, 53, 64
8, 35541, Note_off_c, 9, 49, 64
8, 35581, Note_on_c, 9, 35, 69
8, 35581, Note_on_c, 9, 53, 81
8, 35584, Note_off_c, 9, 35, 64
8, 35584, Note_off_c, 9, 53, 64
8, 35662, Note_on_c, 9, 56, 65
8, 35664, Note_on_c, 9, 53, 81
8, 35665, Note_off_c, 9, 56, 64
8, 35667, Note_off_c, 9, 53, 64
8, 35743, Note_on_c, 9, 35, 69
8, 35743, Note_on_c, 9, 53, 81
8, 35746, Note_off_c, 9, 35, 64
8, 35746, Note_off_c, 9, 53, 64
8, 35824, Note_on_c, 9, 35, 69
8, 35824, Note_on_c, 9, 56, 65
8, 35826, Note_on_c, 9, 53, 81
8, 35828, Note_off_c, 9, 35, 64
8, 35828, Note_off_c, 9, 56, 64
8, 35828, Note_off_c, 9, 53, 64
8, 35905, Note_on_c, 9, 53, 81
8, 35908, Note_off_c, 9, 53, 64
8, 35986, Note_on_c, 9, 56, 65
8, 35986, Note_on_c, 9, 53, 81
8, 35992, Note_off_c, 9, 56, 64
8, 35992, Note_off_c, 9, 53, 64
8, 36068, Note_on_c, 9, 35, 69
8, 36068, Note_on_c, 9, 53, 81
8, 36074, Note_off_c, 9, 35, 64
8, 36074, Note_off_c, 9, 53, 64
8, 36148, Note_on_c, 9, 35, 69
8, 36148, Note_on_c, 9, 56, 65
8, 36148, Note_on_c, 9, 53, 81
8, 36151, Note_off_c, 9, 35, 64
8, 36151, Note_off_c, 9, 56, 64
8, 36151, Note_off_c, 9, 53, 64
8, 36230, Note_on_c, 9, 53, 81
8, 36233, Note_off_c, 9, 53, 64
8, 36311, Note_on_c, 9, 56, 65
8, 36313, Note_on_c, 9, 53, 81
8, 36314, Note_off_c, 9, 56, 64
8, 36314, Note_off_c, 9, 53, 64
8, 36392, Note_on_c, 9, 53, 81
8, 36395, Note_off_c, 9, 53, 64
8, 36473, Note_on_c, 9, 35, 69
8, 36473, Note_on_c, 9, 56, 65
8, 36475, Note_on_c, 9, 53, 81
8, 36476, Note_off_c, 9, 35, 64
8, 36476, Note_off_c, 9, 56, 64
8, 36476, Note_off_c, 9, 53, 64
8, 36554, Note_on_c, 9, 35, 69
8, 36554, Note_on_c, 9, 53, 81
8, 36558, Note_off_c, 9, 35, 64
8, 36558, Note_off_c, 9, 53, 64
8, 36635, Note_on_c, 9, 56, 65
8, 36635, Note_on_c, 9, 53, 81
8, 36639, Note_off_c, 9, 56, 64
8, 36639, Note_off_c, 9, 53, 64
8, 36717, Note_on_c, 9, 35, 69
8, 36717, Note_on_c, 9, 53, 81
8, 36720, Note_off_c, 9, 35, 64
8, 36720, Note_off_c, 9, 53, 64
8, 36798, Note_on_c, 9, 56, 65
8, 36798, Note_on_c, 9, 53, 81
8, 36800, Note_off_c, 9, 56, 64
8, 36800, Note_off_c, 9, 53, 64
8, 36879, Note_on_c, 9, 35, 69
8, 36879, Note_on_c, 9, 53, 81
8, 36882, Note_off_c, 9, 35, 64
8, 36882, Note_off_c, 9, 53, 64
8, 36960, Note_on_c, 9, 56, 65
8, 36962, Note_on_c, 9, 53, 81
8, 36963, Note_off_c, 9, 56, 64
8, 36963, Note_off_c, 9, 53, 64
8, 37041, Note_on_c, 9, 35, 69
8, 37041, Note_on_c, 9, 53, 81
8, 37044, Note_off_c, 9, 35, 64
8, 37044, Note_off_c, 9, 53, 64
8, 37123, Note_on_c, 9, 35, 69
8, 37123, Note_on_c, 9, 56, 65
8, 37124, Note_off_c, 9, 35, 64
8, 37124, Note_off_c, 9, 56, 64
8, 37124, Note_on_c, 9, 53, 81
8, 37125, Note_off_c, 9, 53, 64
8, 37203, Note_on_c, 9, 53, 81
8, 37207, Note_off_c, 9, 53, 64
8, 37285, Note_on_c, 9, 56, 65
8, 37285, Note_on_c, 9, 53, 81
8, 37286, Note_off_c, 9, 56, 64
8, 37286, Note_off_c, 9, 53, 64
8, 37365, Note_on_c, 9, 35, 69
8, 37365, Note_on_c, 9, 53, 81
8, 37369, Note_off_c, 9, 35, 64
8, 37369, Note_off_c, 9, 53, 64
8, 37446, Note_on_c, 9, 35, 69
8, 37446, Note_on_c, 9, 56, 65
8, 37446, Note_on_c, 9, 53, 81
8, 37449, Note_off_c, 9, 35, 64
8, 37449, Note_off_c, 9, 56, 64
8, 37449, Note_off_c, 9, 53, 64
8, 37528, Note_on_c, 9, 53, 81
8, 37531, Note_off_c, 9, 53, 64
8, 37608, Note_on_c, 9, 56, 65
8, 37611, Note_on_c, 9, 53, 81
8, 37612, Note_off_c, 9, 56, 64
8, 37612, Note_off_c, 9, 53, 64
8, 37690, Note_on_c, 9, 53, 81
8, 37693, Note_off_c, 9, 53, 64
8, 37771, Note_on_c, 9, 35, 69
8, 37771, Note_on_c, 9, 56, 65
8, 37773, Note_on_c, 9, 53, 81
8, 37774, Note_off_c, 9, 35, 64
8, 37774, Note_off_c, 9, 56, 64
8, 37774, Note_off_c, 9, 53, 64
8, 37852, Note_on_c, 9, 35, 69
8, 37852, Note_on_c, 9, 53, 81
8, 37855, Note_off_c, 9, 35, 64
8, 37855, Note_off_c, 9, 53, 64
8, 37933, Note_on_c, 9, 56, 65
8, 37933, Note_on_c, 9, 53, 81
8, 37934, Note_off_c, 9, 56, 64
8, 37934, Note_off_c, 9, 53, 64
8, 38015, Note_on_c, 9, 35, 69
8, 38015, Note_on_c, 9, 53, 81
8, 38018, Note_off_c, 9, 35, 64
8, 38018, Note_off_c, 9, 53, 64
8, 38096, Note_on_c, 9, 56, 65
8, 38096, Note_on_c, 9, 53, 81
8, 38099, Note_off_c, 9, 56, 64
8, 38099, Note_off_c, 9, 53, 64
8, 38177, Note_on_c, 9, 35, 69
8, 38177, Note_on_c, 9, 53, 81
8, 38180, Note_off_c, 9, 35, 64
8, 38180, Note_off_c, 9, 53, 64
8, 38258, Note_on_c, 9, 56, 65
8, 38260, Note_on_c, 9, 53, 81
8, 38261, Note_off_c, 9, 56, 64
8, 38261, Note_off_c, 9, 53, 64
8, 38339, Note_on_c, 9, 35, 69
8, 38339, Note_on_c, 9, 53, 81
8, 38342, Note_off_c, 9, 35, 64
8, 38342, Note_off_c, 9, 53, 64
8, 38421, Note_on_c, 9, 35, 69
8, 38421, Note_on_c, 9, 56, 65
8, 38421, Note_on_c, 9, 53, 81
8, 38424, Note_off_c, 9, 35, 64
8, 38424, Note_off_c, 9, 56, 64
8, 38424, Note_off_c, 9, 53, 64
8, 38501, Note_on_c, 9, 53, 81
8, 38505, Note_off_c, 9, 53, 64
8, 38582, Note_on_c, 9, 56, 65
8, 38582, Note_on_c, 9, 53, 81
8, 38583, Note_off_c, 9, 56, 64
8, 38583, Note_off_c, 9, 53, 64
8, 38664, Note_on_c, 9, 35, 69
8, 38664, Note_on_c, 9, 53, 81
8, 38665, Note_off_c, 9, 35, 64
8, 38665, Note_off_c, 9, 53, 64
8, 38745, Note_on_c, 9, 35, 69
8, 38745, Note_on_c, 9, 56, 65
8, 38745, Note_on_c, 9, 53, 81
8, 38748, Note_off_c, 9, 35, 64
8, 38748, Note_off_c, 9, 56, 64
8, 38748, Note_off_c, 9, 53, 64
8, 38826, Note_on_c, 9, 53, 81
8, 38829, Note_off_c, 9, 53, 64
8, 38907, Note_on_c, 9, 56, 65
8, 38909, Note_on_c, 9, 53, 81
8, 38910, Note_off_c, 9, 56, 64
8, 38910, Note_off_c, 9, 53, 64
8, 38988, Note_on_c, 9, 53, 81
8, 38991, Note_off_c, 9, 53, 64
8, 39069, Note_on_c, 9, 35, 69
8, 39069, Note_on_c, 9, 56, 65
8, 39071, Note_off_c, 9, 35, 64
8, 39071, Note_off_c, 9, 56, 64
8, 39071, Note_on_c, 9, 53, 81
8, 39072, Note_off_c, 9, 53, 64
8, 39150, Note_on_c, 9, 35, 69
8, 39150, Note_on_c, 9, 53, 81
8, 39151, Note_off_c, 9, 35, 64
8, 39151, Note_off_c, 9, 53, 64
8, 39232, Note_on_c, 9, 56, 65
8, 39232, Note_on_c, 9, 53, 81
8, 39233, Note_off_c, 9, 56, 64
8, 39233, Note_off_c, 9, 53, 64
8, 39313, Note_on_c, 9, 35, 69
8, 39313, Note_on_c, 9, 53, 81
8, 39317, Note_off_c, 9, 35, 64
8, 39317, Note_off_c, 9, 53, 64
8, 39392, Note_on_c, 9, 56, 65
8, 39392, Note_on_c, 9, 53, 81
8, 39396, Note_off_c, 9, 56, 64
8, 39396, Note_off_c, 9, 53, 64
8, 39474, Note_on_c, 9, 35, 69
8, 39474, Note_on_c, 9, 53, 81
8, 39478, Note_off_c, 9, 35, 64
8, 39478, Note_off_c, 9, 53, 64
8, 39555, Note_on_c, 9, 56, 65
8, 39557, Note_on_c, 9, 53, 81
8, 39559, Note_off_c, 9, 56, 64
8, 39559, Note_off_c, 9, 53, 64
8, 39636, Note_on_c, 9, 35, 69
8, 39636, Note_on_c, 9, 53, 81
8, 39639, Note_off_c, 9, 35, 64
8, 39639, Note_off_c, 9, 53, 64
8, 39717, Note_on_c, 9, 35, 69
8, 39717, Note_on_c, 9, 56, 65
8, 39720, Note_on_c, 9, 53, 81
8, 39721, Note_off_c, 9, 35, 64
8, 39721, Note_off_c, 9, 56, 64
8, 39721, Note_off_c, 9, 53, 64
8, 39798, Note_on_c, 9, 53, 81
8, 39803, Note_off_c, 9, 53, 64
8, 39880, Note_on_c, 9, 56, 65
8, 39880, Note_on_c, 9, 53, 81
8, 39884, Note_off_c, 9, 56, 64
8, 39884, Note_off_c, 9, 53, 64
8, 39962, Note_on_c, 9, 35, 69
8, 39962, Note_on_c, 9, 53, 81
8, 39963, Note_off_c, 9, 35, 64
8, 39963, Note_off_c, 9, 53, 64
8, 40042, Note_on_c, 9, 35, 69
8, 40042, Note_on_c, 9, 56, 65
8, 40042, Note_on_c, 9, 53, 81
8, 40045, Note_off_c, 9, 35, 64
8, 40045, Note_off_c, 9, 56, 64
8, 40045, Note_off_c, 9, 53, 64
8, 40123, Note_on_c, 9, 53, 81
8, 40126, Note_off_c, 9, 53, 64
8, 40205, Note_on_c, 9, 56, 65
8, 40207, Note_on_c, 9, 53, 81
8, 40208, Note_off_c, 9, 56, 64
8, 40208, Note_off_c, 9, 53, 64
8, 40285, Note_on_c, 9, 53, 81
8, 40288, Note_off_c, 9, 53, 64
8, 40367, Note_on_c, 9, 35, 69
8, 40367, Note_on_c, 9, 56, 65
8, 40369, Note_on_c, 9, 53, 81
8, 40370, Note_off_c, 9, 35, 64
8, 40370, Note_off_c, 9, 56, 64
8, 40370, Note_off_c, 9, 53, 64
8, 40448, Note_on_c, 9, 35, 69
8, 40448, Note_on_c, 9, 53, 81
8, 40450, Note_off_c, 9, 35, 64
8, 40450, Note_off_c, 9, 53, 64
8, 40528, Note_on_c, 9, 56, 65
8, 40528, Note_on_c, 9, 53, 81
8, 40529, Note_off_c, 9, 56, 64
8, 40529, Note_off_c, 9, 53, 64
8, 40610, Note_on_c, 9, 35, 69
8, 40610, Note_on_c, 9, 53, 81
8, 40611, Note_off_c, 9, 35, 64
8, 40611, Note_off_c, 9, 53, 64
8, 40691, Note_on_c, 9, 56, 65
8, 40691, Note_on_c, 9, 53, 81
8, 40694, Note_off_c, 9, 56, 64
8, 40694, Note_off_c, 9, 53, 64
8, 40773, Note_on_c, 9, 35, 69
8, 40773, Note_on_c, 9, 53, 81
8, 40776, Note_off_c, 9, 35, 64
8, 40776, Note_off_c, 9, 53, 64
8, 40854, Note_on_c, 9, 56, 65
8, 40854, Note_on_c, 9, 53, 81
8, 40859, Note_off_c, 9, 56, 64
8, 40859, Note_off_c, 9, 53, 64
8, 40935, Note_on_c, 9, 35, 69
8, 40935, Note_on_c, 9, 53, 81
8, 40936, Note_off_c, 9, 35, 64
8, 40936, Note_off_c, 9, 53, 64
8, 41016, Note_on_c, 9, 35, 69
8, 41016, Note_on_c, 9, 56, 65
8, 41018, Note_on_c, 9, 53, 81
8, 41019, Note_off_c, 9, 35, 64
8, 41019, Note_off_c, 9, 56, 64
8, 41019, Note_off_c, 9, 53, 64
8, 41097, Note_on_c, 9, 53, 81
8, 41100, Note_off_c, 9, 53, 64
8, 41177, Note_on_c, 9, 56, 65
8, 41177, Note_on_c, 9, 53, 81
8, 41181, Note_off_c, 9, 56, 64
8, 41181, Note_off_c, 9, 53, 64
8, 41260, Note_on_c, 9, 35, 69
8, 41260, Note_on_c, 9, 53, 81
8, 41261, Note_off_c, 9, 35, 64
8, 41261, Note_off_c, 9, 53, 64
8, 41341, Note_on_c, 9, 35, 69
8, 41341, Note_on_c, 9, 56, 65
8, 41341, Note_on_c, 9, 53, 81
8, 41344, Note_off_c, 9, 35, 64
8, 41344, Note_off_c, 9, 56, 64
8, 41344, Note_off_c, 9, 53, 64
8, 41422, Note_on_c, 9, 53, 81
8, 41425, Note_off_c, 9, 53, 64
8, 41503, Note_on_c, 9, 56, 65
8, 41503, Note_on_c, 9, 53, 81
8, 41507, Note_off_c, 9, 56, 64
8, 41507, Note_off_c, 9, 53, 64
8, 41584, Note_on_c, 9, 53, 81
8, 41585, Note_off_c, 9, 53, 64
8, 41665, Note_on_c, 9, 35, 69
8, 41665, Note_on_c, 9, 56, 65
8, 41667, Note_on_c, 9, 53, 81
8, 41668, Note_off_c, 9, 35, 64
8, 41668, Note_off_c, 9, 56, 64
8, 41668, Note_off_c, 9, 53, 64
8, 41746, Note_on_c, 9, 35, 69
8, 41746, Note_on_c, 9, 53, 81
8, 41747, Note_off_c, 9, 35, 64
8, 41747, Note_off_c, 9, 53, 64
8, 41827, Note_on_c, 9, 56, 65
8, 41827, Note_on_c, 9, 53, 81
8, 41828, Note_off_c, 9, 56, 64
8, 41828, Note_off_c, 9, 53, 64
8, 41909, Note_on_c, 9, 35, 69
8, 41909, Note_on_c, 9, 53, 81
8, 41912, Note_off_c, 9, 35, 64
8, 41912, Note_off_c, 9, 53, 64
8, 41990, Note_on_c, 9, 56, 65
8, 41990, Note_on_c, 9, 53, 81
8, 41992, Note_off_c, 9, 56, 64
8, 41992, Note_off_c, 9, 53, 64
8, 42071, Note_on_c, 9, 35, 69
8, 42071, Note_on_c, 9, 53, 81
8, 42074, Note_off_c, 9, 35, 64
8, 42074, Note_off_c, 9, 53, 64
8, 42154, Note_on_c, 9, 56, 65
8, 42154, Note_on_c, 9, 53, 81
8, 42155, Note_off_c, 9, 56, 64
8, 42155, Note_off_c, 9, 53, 64
8, 42233, Note_on_c, 9, 35, 69
8, 42233, Note_on_c, 9, 53, 81
8, 42236, Note_off_c, 9, 35, 64
8, 42236, Note_off_c, 9, 53, 64
8, 42315, Note_on_c, 9, 35, 69
8, 42315, Note_on_c, 9, 56, 65
8, 42316, Note_off_c, 9, 35, 64
8, 42316, Note_off_c, 9, 56, 64
8, 42316, Note_on_c, 9, 53, 81
8, 42317, Note_off_c, 9, 53, 64
8, 42395, Note_on_c, 9, 53, 81
8, 42398, Note_off_c, 9, 53, 64
8, 42476, Note_on_c, 9, 56, 65
8, 42476, Note_on_c, 9, 53, 81
8, 42482, Note_off_c, 9, 56, 64
8, 42482, Note_off_c, 9, 53, 64
8, 42558, Note_on_c, 9, 35, 69
8, 42558, Note_on_c, 9, 53, 81
8, 42559, Note_off_c, 9, 35, 64
8, 42559, Note_off_c, 9, 53, 64
8, 42638, Note_on_c, 9, 35, 69
8, 42638, Note_on_c, 9, 56, 65
8, 42641, Note_off_c, 9, 35, 64
8, 42641, Note_off_c, 9, 56, 64
8, 42641, Note_on_c, 9, 53, 81
8, 42642, Note_off_c, 9, 53, 64
8, 42720, Note_on_c, 9, 53, 81
8, 42723, Note_off_c, 9, 53, 64
8, 42801, Note_on_c, 9, 56, 65
8, 42803, Note_on_c, 9, 53, 81
8, 42804, Note_off_c, 9, 56, 64
8, 42804, Note_off_c, 9, 53, 64
8, 42882, Note_on_c, 9, 53, 81
8, 42885, Note_off_c, 9, 53, 64
8, 42964, Note_on_c, 9, 35, 69
8, 42964, Note_on_c, 9, 56, 65
8, 42964, Note_on_c, 9, 53, 81
8, 42965, Note_off_c, 9, 35, 64
8, 42965, Note_off_c, 9, 56, 64
8, 42965, Note_off_c, 9, 53, 64
8, 43044, Note_on_c, 9, 35, 69
8, 43044, Note_on_c, 9, 53, 81
8, 43045, Note_off_c, 9, 35, 64
8, 43045, Note_off_c, 9, 53, 64
8, 43125, Note_on_c, 9, 56, 65
8, 43126, Note_on_c, 9, 53, 81
8, 43129, Note_off_c, 9, 56, 64
8, 43131, Note_off_c, 9, 53, 64
8, 43206, Note_on_c, 9, 35, 69
8, 43206, Note_on_c, 9, 53, 81
8, 43210, Note_off_c, 9, 35, 64
8, 43210, Note_off_c, 9, 53, 64
8, 43287, Note_on_c, 9, 42, 121
8, 43287, Note_on_c, 9, 49, 61
8, 43288, Note_off_c, 9, 42, 64
8, 43288, Note_off_c, 9, 49, 64
8, 43369, Note_on_c, 9, 35, 69
8, 43369, Note_on_c, 9, 42, 81
8, 43372, Note_off_c, 9, 35, 64
8, 43372, Note_off_c, 9, 42, 64
8, 43449, Note_on_c, 9, 42, 121
8, 43454, Note_off_c, 9, 42, 64
8, 43530, Note_on_c, 9, 35, 69
8, 43530, Note_on_c, 9, 42, 81
8, 43533, Note_off_c, 9, 35, 64
8, 43533, Note_off_c, 9, 42, 64
8, 43611, Note_on_c, 9, 35, 69
8, 43611, Note_on_c, 9, 42, 121
8, 43614, Note_off_c, 9, 35, 64
8, 43614, Note_off_c, 9, 42, 64
8, 43693, Note_on_c, 9, 42, 81
8, 43696, Note_off_c, 9, 42, 64
8, 43774, Note_on_c, 9, 42, 121
8, 43777, Note_off_c, 9, 42, 64
8, 43856, Note_on_c, 9, 35, 69
8, 43856, Note_on_c, 9, 42, 81
8, 43859, Note_off_c, 9, 35, 64
8, 43859, Note_off_c, 9, 42, 64
8, 43937, Note_on_c, 9, 35, 69
8, 43938, Note_on_c, 9, 42, 121
8, 43939, Note_off_c, 9, 35, 64
8, 43939, Note_off_c, 9, 42, 64
8, 44018, Note_on_c, 9, 42, 81
8, 44019, Note_off_c, 9, 42, 64
8, 44099, Note_on_c, 9, 42, 121
8, 44103, Note_off_c, 9, 42, 64
8, 44180, Note_on_c, 9, 42, 81
8, 44183, Note_off_c, 9, 42, 64
8, 44261, Note_on_c, 9, 35, 69
8, 44261, Note_on_c, 9, 42, 121
8, 44263, Note_off_c, 9, 35, 64
8, 44263, Note_off_c, 9, 42, 64
8, 44342, Note_on_c, 9, 35, 69
8, 44342, Note_on_c, 9, 42, 81
8, 44345, Note_off_c, 9, 35, 64
8, 44345, Note_off_c, 9, 42, 64
8, 44424, Note_on_c, 9, 42, 121
8, 44427, Note_off_c, 9, 42, 64
8, 44505, Note_on_c, 9, 35, 69
8, 44505, Note_on_c, 9, 46, 81
8, 44508, Note_off_c, 9, 35, 64
8, 44508, Note_off_c, 9, 46, 64
8, 44585, Note_on_c, 9, 42, 121
8, 44586, Note_off_c, 9, 42, 64
8, 44667, Note_on_c, 9, 35, 69
8, 44667, Note_on_c, 9, 42, 81
8, 44670, Note_off_c, 9, 35, 64
8, 44670, Note_off_c, 9, 42, 64
8, 44747, Note_on_c, 9, 42, 121
8, 44752, Note_off_c, 9, 42, 64
8, 44829, Note_on_c, 9, 35, 69
8, 44829, Note_on_c, 9, 42, 81
8, 44832, Note_off_c, 9, 35, 64
8, 44832, Note_off_c, 9, 42, 64
8, 44910, Note_on_c, 9, 35, 69
8, 44910, Note_on_c, 9, 42, 121
8, 44912, Note_off_c, 9, 35, 64
8, 44913, Note_off_c, 9, 42, 64
8, 44991, Note_on_c, 9, 42, 81
8, 44995, Note_off_c, 9, 42, 64
8, 45072, Note_on_c, 9, 42, 121
8, 45075, Note_off_c, 9, 42, 64
8, 45154, Note_on_c, 9, 35, 69
8, 45154, Note_on_c, 9, 42, 81
8, 45155, Note_off_c, 9, 35, 64
8, 45155, Note_off_c, 9, 42, 64
8, 45235, Note_on_c, 9, 35, 69
8, 45235, Note_on_c, 9, 42, 121
8, 45236, Note_off_c, 9, 35, 64
8, 45236, Note_off_c, 9, 42, 64
8, 45316, Note_on_c, 9, 42, 81
8, 45319, Note_off_c, 9, 42, 64
8, 45397, Note_on_c, 9, 42, 121
8, 45401, Note_off_c, 9, 42, 64
8, 45477, Note_on_c, 9, 42, 81
8, 45482, Note_off_c, 9, 42, 64
8, 45559, Note_on_c, 9, 35, 69
8, 45559, Note_on_c, 9, 42, 121
8, 45562, Note_off_c, 9, 35, 64
8, 45562, Note_off_c, 9, 42, 64
8, 45641, Note_on_c, 9, 35, 69
8, 45641, Note_on_c, 9, 42, 81
8, 45644, Note_off_c, 9, 35, 64
8, 45644, Note_off_c, 9, 42, 64
8, 45721, Note_on_c, 9, 42, 121
8, 45724, Note_off_c, 9, 42, 64
8, 45802, Note_on_c, 9, 35, 69
8, 45802, Note_on_c, 9, 46, 81
8, 45805, Note_off_c, 9, 35, 64
8, 45805, Note_off_c, 9, 46, 64
8, 45883, Note_on_c, 9, 42, 121
8, 45886, Note_off_c, 9, 42, 64
8, 45964, Note_on_c, 9, 35, 69
8, 45964, Note_on_c, 9, 42, 81
8, 45968, Note_off_c, 9, 35, 64
8, 45968, Note_off_c, 9, 42, 64
8, 46045, Note_on_c, 9, 42, 121
8, 46048, Note_off_c, 9, 42, 64
8, 46127, Note_on_c, 9, 35, 69
8, 46127, Note_on_c, 9, 42, 81
8, 46130, Note_off_c, 9, 35, 64
8, 46130, Note_off_c, 9, 42, 64
8, 46208, Note_on_c, 9, 35, 69
8, 46210, Note_off_c, 9, 35, 64
8, 46210, Note_on_c, 9, 42, 121
8, 46213, Note_off_c, 9, 42, 64
8, 46289, Note_on_c, 9, 42, 81
8, 46293, Note_off_c, 9, 42, 64
8, 46370, Note_on_c, 9, 42, 121
8, 46373, Note_off_c, 9, 42, 64
8, 46452, Note_on_c, 9, 35, 69
8, 46452, Note_on_c, 9, 42, 81
8, 46453, Note_off_c, 9, 35, 64
8, 46453, Note_off_c, 9, 42, 64
8, 46533, Note_on_c, 9, 35, 69
8, 46533, Note_on_c, 9, 42, 121
8, 46534, Note_off_c, 9, 35, 64
8, 46534, Note_off_c, 9, 42, 64
8, 46614, Note_on_c, 9, 42, 81
8, 46617, Note_off_c, 9, 42, 64
8, 46695, Note_on_c, 9, 42, 121
8, 46698, Note_off_c, 9, 42, 64
8, 46776, Note_on_c, 9, 42, 81
8, 46779, Note_off_c, 9, 42, 64
8, 46856, Note_on_c, 9, 35, 69
8, 46856, Note_on_c, 9, 42, 121
8, 46859, Note_off_c, 9, 35, 64
8, 46859, Note_off_c, 9, 42, 64
8, 46937, Note_on_c, 9, 35, 69
8, 46937, Note_on_c, 9, 42, 81
8, 46940, Note_off_c, 9, 35, 64
8, 46940, Note_off_c, 9, 42, 64
8, 47018, Note_on_c, 9, 42, 121
8, 47021, Note_off_c, 9, 42, 64
8, 47099, Note_on_c, 9, 35, 69
8, 47099, Note_on_c, 9, 46, 81
8, 47103, Note_off_c, 9, 35, 64
8, 47103, Note_off_c, 9, 46, 64
8, 47181, Note_on_c, 9, 42, 121
8, 47182, Note_off_c, 9, 42, 64
8, 47263, Note_on_c, 9, 35, 69
8, 47263, Note_on_c, 9, 42, 81
8, 47264, Note_off_c, 9, 35, 64
8, 47264, Note_off_c, 9, 42, 64
8, 47343, Note_on_c, 9, 42, 121
8, 47345, Note_off_c, 9, 42, 64
8, 47424, Note_on_c, 9, 35, 69
8, 47424, Note_on_c, 9, 42, 81
8, 47427, Note_off_c, 9, 35, 64
8, 47427, Note_off_c, 9, 42, 64
8, 47506, Note_on_c, 9, 35, 69
8, 47506, Note_on_c, 9, 42, 121
8, 47508, Note_off_c, 9, 35, 64
8, 47508, Note_off_c, 9, 42, 64
8, 47587, Note_on_c, 9, 42, 81
8, 47590, Note_off_c, 9, 42, 64
8, 47668, Note_on_c, 9, 42, 121
8, 47671, Note_off_c, 9, 42, 64
8, 47750, Note_on_c, 9, 35, 69
8, 47750, Note_on_c, 9, 42, 81
8, 47753, Note_off_c, 9, 35, 64
8, 47753, Note_off_c, 9, 42, 64
8, 47831, Note_on_c, 9, 35, 69
8, 47831, Note_on_c, 9, 42, 121
8, 47832, Note_off_c, 9, 35, 64
8, 47832, Note_off_c, 9, 42, 64
8, 47912, Note_on_c, 9, 42, 81
8, 47915, Note_off_c, 9, 42, 64
8, 47992, Note_on_c, 9, 42, 121
8, 47992, Note_on_c, 9, 50, 81
8, 47995, Note_off_c, 9, 42, 64
8, 47995, Note_off_c, 9, 50, 64
8, 48074, Note_on_c, 9, 42, 81
8, 48074, Note_on_c, 9, 50, 81
8, 48077, Note_off_c, 9, 42, 64
8, 48077, Note_off_c, 9, 50, 64
8, 48155, Note_on_c, 9, 35, 69
8, 48155, Note_on_c, 9, 42, 121
8, 48157, Note_on_c, 9, 50, 81
8, 48157, Note_on_c, 9, 47, 81
8, 48159, Note_off_c, 9, 42, 64
8, 48159, Note_off_c, 9, 50, 64
8, 48159, Note_off_c, 9, 47, 64
8, 48160, Note_off_c, 9, 35, 64
8, 48236, Note_on_c, 9, 35, 69
8, 48236, Note_on_c, 9, 42, 81
8, 48236, Note_on_c, 9, 50, 81
8, 48236, Note_on_c, 9, 47, 81
8, 48240, Note_off_c, 9, 35, 64
8, 48240, Note_off_c, 9, 42, 64
8, 48240, Note_off_c, 9, 50, 64
8, 48240, Note_off_c, 9, 47, 64
8, 48317, Note_on_c, 9, 42, 121
8, 48317, Note_on_c, 9, 43, 81
8, 48318, Note_off_c, 9, 42, 64
8, 48318, Note_off_c, 9, 43, 64
8, 48398, Note_on_c, 9, 35, 69
8, 48398, Note_on_c, 9, 43, 81
8, 48401, Note_off_c, 9, 35, 64
8, 48401, Note_off_c, 9, 43, 64
8, 48479, Note_on_c, 9, 56, 65
8, 48479, Note_on_c, 9, 53, 81
8, 48479, Note_on_c, 9, 49, 80
8, 48482, Note_off_c, 9, 56, 64
8, 48482, Note_off_c, 9, 53, 64
8, 48521, Note_off_c, 9, 49, 64
8, 48560, Note_on_c, 9, 35, 69
8, 48560, Note_on_c, 9, 53, 81
8, 48563, Note_off_c, 9, 35, 64
8, 48563, Note_off_c, 9, 53, 64
8, 48641, Note_on_c, 9, 56, 65
8, 48644, Note_off_c, 9, 56, 64
8, 48644, Note_on_c, 9, 53, 81
8, 48645, Note_off_c, 9, 53, 64
8, 48723, Note_on_c, 9, 35, 69
8, 48723, Note_on_c, 9, 53, 81
8, 48726, Note_off_c, 9, 35, 64
8, 48726, Note_off_c, 9, 53, 64
8, 48803, Note_on_c, 9, 35, 69
8, 48803, Note_on_c, 9, 56, 65
8, 48806, Note_off_c, 9, 35, 64
8, 48806, Note_off_c, 9, 56, 64
8, 48806, Note_on_c, 9, 53, 81
8, 48807, Note_off_c, 9, 53, 64
8, 48885, Note_on_c, 9, 53, 81
8, 48889, Note_off_c, 9, 53, 64
8, 48965, Note_on_c, 9, 56, 65
8, 48965, Note_on_c, 9, 53, 81
8, 48969, Note_off_c, 9, 56, 64
8, 48969, Note_off_c, 9, 53, 64
8, 49047, Note_on_c, 9, 35, 69
8, 49047, Note_on_c, 9, 53, 81
8, 49049, Note_off_c, 9, 35, 64
8, 49049, Note_off_c, 9, 53, 64
8, 49128, Note_on_c, 9, 35, 69
8, 49128, Note_on_c, 9, 56, 65
8, 49128, Note_on_c, 9, 53, 81
8, 49131, Note_off_c, 9, 35, 64
8, 49131, Note_off_c, 9, 56, 64
8, 49131, Note_off_c, 9, 53, 64
8, 49210, Note_on_c, 9, 53, 81
8, 49212, Note_off_c, 9, 53, 64
8, 49290, Note_on_c, 9, 56, 65
8, 49292, Note_on_c, 9, 53, 81
8, 49293, Note_off_c, 9, 56, 64
8, 49293, Note_off_c, 9, 53, 64
8, 49372, Note_on_c, 9, 53, 81
8, 49375, Note_off_c, 9, 53, 64
8, 49453, Note_on_c, 9, 35, 69
8, 49453, Note_on_c, 9, 56, 65
8, 49455, Note_off_c, 9, 35, 64
8, 49455, Note_off_c, 9, 56, 64
8, 49455, Note_on_c, 9, 53, 81
8, 49456, Note_off_c, 9, 53, 64
8, 49534, Note_on_c, 9, 35, 69
8, 49534, Note_on_c, 9, 53, 81
8, 49535, Note_off_c, 9, 35, 64
8, 49535, Note_off_c, 9, 53, 64
8, 49615, Note_on_c, 9, 56, 65
8, 49615, Note_on_c, 9, 53, 81
8, 49617, Note_off_c, 9, 56, 64
8, 49617, Note_off_c, 9, 53, 64
8, 49696, Note_on_c, 9, 35, 69
8, 49696, Note_on_c, 9, 53, 81
8, 49699, Note_off_c, 9, 35, 64
8, 49699, Note_off_c, 9, 53, 64
8, 49778, Note_on_c, 9, 56, 65
8, 49778, Note_on_c, 9, 53, 81
8, 49780, Note_off_c, 9, 56, 64
8, 49780, Note_off_c, 9, 53, 64
8, 49859, Note_on_c, 9, 35, 69
8, 49859, Note_on_c, 9, 53, 81
8, 49862, Note_off_c, 9, 35, 64
8, 49862, Note_off_c, 9, 53, 64
8, 49939, Note_on_c, 9, 56, 65
8, 49942, Note_on_c, 9, 53, 81
8, 49943, Note_off_c, 9, 56, 64
8, 49943, Note_off_c, 9, 53, 64
8, 50021, Note_on_c, 9, 35, 69
8, 50021, Note_on_c, 9, 53, 81
8, 50024, Note_off_c, 9, 35, 64
8, 50024, Note_off_c, 9, 53, 64
8, 50101, Note_on_c, 9, 35, 69
8, 50101, Note_on_c, 9, 56, 65
8, 50104, Note_on_c, 9, 53, 81
8, 50105, Note_off_c, 9, 35, 64
8, 50105, Note_off_c, 9, 56, 64
8, 50105, Note_off_c, 9, 53, 64
8, 50183, Note_on_c, 9, 53, 81
8, 50186, Note_off_c, 9, 53, 64
8, 50263, Note_on_c, 9, 56, 65
8, 50263, Note_on_c, 9, 53, 81
8, 50264, Note_off_c, 9, 56, 64
8, 50264, Note_off_c, 9, 53, 64
8, 50345, Note_on_c, 9, 35, 69
8, 50345, Note_on_c, 9, 53, 81
8, 50346, Note_off_c, 9, 35, 64
8, 50346, Note_off_c, 9, 53, 64
8, 50427, Note_on_c, 9, 35, 69
8, 50427, Note_on_c, 9, 56, 65
8, 50427, Note_on_c, 9, 53, 81
8, 50430, Note_off_c, 9, 35, 64
8, 50430, Note_off_c, 9, 56, 64
8, 50430, Note_off_c, 9, 53, 64
8, 50507, Note_on_c, 9, 53, 81
8, 50510, Note_off_c, 9, 53, 64
8, 50588, Note_on_c, 9, 56, 65
8, 50591, Note_off_c, 9, 56, 64
8, 50591, Note_on_c, 9, 53, 81
8, 50592, Note_off_c, 9, 53, 64
8, 50669, Note_on_c, 9, 53, 81
8, 50673, Note_off_c, 9, 53, 64
8, 50751, Note_on_c, 9, 35, 69
8, 50751, Note_on_c, 9, 56, 65
8, 50751, Note_on_c, 9, 53, 81
8, 50754, Note_off_c, 9, 35, 64
8, 50754, Note_off_c, 9, 56, 64
8, 50754, Note_off_c, 9, 53, 64
8, 50832, Note_on_c, 9, 35, 69
8, 50832, Note_on_c, 9, 53, 81
8, 50833, Note_off_c, 9, 35, 64
8, 50833, Note_off_c, 9, 53, 64
8, 50913, Note_on_c, 9, 56, 65
8, 50913, Note_on_c, 9, 53, 81
8, 50914, Note_off_c, 9, 56, 64
8, 50914, Note_off_c, 9, 53, 64
8, 50993, Note_on_c, 9, 35, 69
8, 50993, Note_on_c, 9, 53, 81
8, 50995, Note_off_c, 9, 35, 64
8, 50995, Note_off_c, 9, 53, 64
8, 51076, Note_on_c, 9, 56, 65
8, 51076, Note_on_c, 9, 53, 81
8, 51078, Note_off_c, 9, 56, 64
8, 51078, Note_off_c, 9, 53, 64
8, 51157, Note_on_c, 9, 35, 69
8, 51157, Note_on_c, 9, 53, 81
8, 51160, Note_off_c, 9, 35, 64
8, 51160, Note_off_c, 9, 53, 64
8, 51239, Note_on_c, 9, 56, 65
8, 51240, Note_on_c, 9, 53, 81
8, 51241, Note_off_c, 9, 56, 64
8, 51241, Note_off_c, 9, 53, 64
8, 51318, Note_on_c, 9, 35, 69
8, 51318, Note_on_c, 9, 53, 81
8, 51322, Note_off_c, 9, 35, 64
8, 51322, Note_off_c, 9, 53, 64
8, 51399, Note_on_c, 9, 35, 69
8, 51399, Note_on_c, 9, 56, 65
8, 51402, Note_on_c, 9, 53, 81
8, 51403, Note_off_c, 9, 35, 64
8, 51403, Note_off_c, 9, 56, 64
8, 51403, Note_off_c, 9, 53, 64
8, 51481, Note_on_c, 9, 53, 81
8, 51484, Note_off_c, 9, 53, 64
8, 51561, Note_on_c, 9, 56, 65
8, 51561, Note_on_c, 9, 53, 81
8, 51562, Note_off_c, 9, 56, 64
8, 51562, Note_off_c, 9, 53, 64
8, 51643, Note_on_c, 9, 35, 69
8, 51643, Note_on_c, 9, 53, 81
8, 51644, Note_off_c, 9, 35, 64
8, 51644, Note_off_c, 9, 53, 64
8, 51727, Note_on_c, 9, 35, 69
8, 51727, Note_on_c, 9, 56, 65
8, 51727, Note_on_c, 9, 53, 81
8, 51728, Note_off_c, 9, 35, 64
8, 51728, Note_off_c, 9, 56, 64
8, 51728, Note_off_c, 9, 53, 64
8, 51806, Note_on_c, 9, 53, 81
8, 51808, Note_off_c, 9, 53, 64
8, 51886, Note_on_c, 9, 56, 65
8, 51889, Note_off_c, 9, 56, 64
8, 51889, Note_on_c, 9, 53, 81
8, 51890, Note_off_c, 9, 53, 64
8, 51967, Note_on_c, 9, 53, 81
8, 51970, Note_off_c, 9, 53, 64
8, 52048, Note_on_c, 9, 35, 69
8, 52048, Note_on_c, 9, 56, 65
8, 52051, Note_off_c, 9, 35, 64
8, 52051, Note_off_c, 9, 56, 64
8, 52051, Note_on_c, 9, 53, 81
8, 52052, Note_off_c, 9, 53, 64
8, 52130, Note_on_c, 9, 35, 69
8, 52130, Note_on_c, 9, 53, 81
8, 52131, Note_off_c, 9, 35, 64
8, 52131, Note_off_c, 9, 53, 64
8, 52210, Note_on_c, 9, 56, 65
8, 52210, Note_on_c, 9, 53, 81
8, 52211, Note_off_c, 9, 56, 64
8, 52211, Note_off_c, 9, 53, 64
8, 52292, Note_on_c, 9, 35, 69
8, 52292, Note_on_c, 9, 53, 81
8, 52296, Note_off_c, 9, 35, 64
8, 52296, Note_off_c, 9, 53, 64
8, 52373, Note_on_c, 9, 56, 65
8, 52373, Note_on_c, 9, 53, 81
8, 52376, Note_off_c, 9, 56, 64
8, 52376, Note_off_c, 9, 53, 64
8, 52455, Note_on_c, 9, 35, 69
8, 52455, Note_on_c, 9, 53, 81
8, 52457, Note_off_c, 9, 35, 64
8, 52457, Note_off_c, 9, 53, 64
8, 52535, Note_on_c, 9, 56, 65
8, 52538, Note_off_c, 9, 56, 64
8, 52538, Note_on_c, 9, 53, 81
8, 52539, Note_off_c, 9, 53, 64
8, 52616, Note_on_c, 9, 35, 69
8, 52616, Note_on_c, 9, 53, 81
8, 52619, Note_off_c, 9, 35, 64
8, 52619, Note_off_c, 9, 53, 64
8, 52698, Note_on_c, 9, 35, 69
8, 52698, Note_on_c, 9, 56, 65
8, 52700, Note_on_c, 9, 53, 81
8, 52701, Note_off_c, 9, 35, 64
8, 52701, Note_off_c, 9, 56, 64
8, 52701, Note_off_c, 9, 53, 64
8, 52779, Note_on_c, 9, 53, 81
8, 52782, Note_off_c, 9, 53, 64
8, 52859, Note_on_c, 9, 56, 65
8, 52859, Note_on_c, 9, 53, 81
8, 52860, Note_off_c, 9, 56, 64
8, 52860, Note_off_c, 9, 53, 64
8, 52941, Note_on_c, 9, 35, 69
8, 52941, Note_on_c, 9, 53, 81
8, 52942, Note_off_c, 9, 35, 64
8, 52942, Note_off_c, 9, 53, 64
8, 53022, Note_on_c, 9, 35, 69
8, 53022, Note_on_c, 9, 56, 65
8, 53022, Note_on_c, 9, 53, 81
8, 53025, Note_off_c, 9, 35, 64
8, 53025, Note_off_c, 9, 56, 64
8, 53025, Note_off_c, 9, 53, 64
8, 53103, Note_on_c, 9, 53, 81
8, 53105, Note_off_c, 9, 53, 64
8, 53184, Note_on_c, 9, 56, 65
8, 53187, Note_off_c, 9, 56, 64
8, 53187, Note_on_c, 9, 53, 81
8, 53188, Note_off_c, 9, 53, 64
8, 53266, Note_on_c, 9, 53, 81
8, 53268, Note_off_c, 9, 53, 64
8, 53346, Note_on_c, 9, 35, 69
8, 53346, Note_on_c, 9, 56, 65
8, 53349, Note_off_c, 9, 35, 64
8, 53349, Note_off_c, 9, 56, 64
8, 53349, Note_on_c, 9, 53, 81
8, 53350, Note_off_c, 9, 53, 64
8, 53428, Note_on_c, 9, 35, 69
8, 53428, Note_on_c, 9, 53, 81
8, 53429, Note_off_c, 9, 35, 64
8, 53429, Note_off_c, 9, 53, 64
8, 53508, Note_on_c, 9, 56, 65
8, 53508, Note_on_c, 9, 53, 81
8, 53509, Note_off_c, 9, 56, 64
8, 53509, Note_off_c, 9, 53, 64
8, 53590, Note_on_c, 9, 35, 69
8, 53591, Note_on_c, 9, 53, 81
8, 53595, Note_off_c, 9, 35, 64
8, 53595, Note_off_c, 9, 53, 64
8, 53671, Note_on_c, 9, 56, 65
8, 53671, Note_on_c, 9, 53, 81
8, 53674, Note_off_c, 9, 56, 64
8, 53674, Note_off_c, 9, 53, 64
8, 53753, Note_on_c, 9, 35, 69
8, 53753, Note_on_c, 9, 53, 81
8, 53756, Note_off_c, 9, 35, 64
8, 53756, Note_off_c, 9, 53, 64
8, 53833, Note_on_c, 9, 56, 65
8, 53833, Note_on_c, 9, 53, 81
8, 53837, Note_off_c, 9, 56, 64
8, 53837, Note_off_c, 9, 53, 64
8, 53914, Note_on_c, 9, 35, 69
8, 53914, Note_on_c, 9, 53, 81
8, 53918, Note_off_c, 9, 35, 64
8, 53918, Note_off_c, 9, 53, 64
8, 53995, Note_on_c, 9, 35, 69
8, 53995, Note_on_c, 9, 56, 65
8, 53998, Note_on_c, 9, 53, 81
8, 53999, Note_off_c, 9, 35, 64
8, 53999, Note_off_c, 9, 56, 64
8, 53999, Note_off_c, 9, 53, 64
8, 54077, Note_on_c, 9, 53, 81
8, 54081, Note_off_c, 9, 53, 64
8, 54158, Note_on_c, 9, 56, 65
8, 54158, Note_on_c, 9, 53, 81
8, 54161, Note_off_c, 9, 56, 64
8, 54161, Note_off_c, 9, 53, 64
8, 54239, Note_on_c, 9, 35, 69
8, 54239, Note_on_c, 9, 53, 81
8, 54240, Note_off_c, 9, 35, 64
8, 54240, Note_off_c, 9, 53, 64
8, 54320, Note_on_c, 9, 35, 69
8, 54320, Note_on_c, 9, 56, 65
8, 54320, Note_on_c, 9, 53, 81
8, 54323, Note_off_c, 9, 35, 64
8, 54323, Note_off_c, 9, 56, 64
8, 54323, Note_off_c, 9, 53, 64
8, 54402, Note_on_c, 9, 53, 81
8, 54404, Note_off_c, 9, 53, 64
8, 54483, Note_on_c, 9, 56, 65
8, 54483, Note_on_c, 9, 53, 81
8, 54484, Note_off_c, 9, 56, 64
8, 54484, Note_off_c, 9, 53, 64
8, 54564, Note_on_c, 9, 53, 81
8, 54567, Note_off_c, 9, 53, 64
8, 54645, Note_on_c, 9, 35, 69
8, 54645, Note_on_c, 9, 56, 65
8, 54647, Note_on_c, 9, 53, 81
8, 54648, Note_off_c, 9, 35, 64
8, 54649, Note_off_c, 9, 53, 64
8, 54650, Note_off_c, 9, 56, 64
8, 54725, Note_on_c, 9, 35, 69
8, 54725, Note_on_c, 9, 53, 81
8, 54728, Note_off_c, 9, 35, 64
8, 54728, Note_off_c, 9, 53, 64
8, 54807, Note_on_c, 9, 56, 65
8, 54807, Note_on_c, 9, 53, 81
8, 54808, Note_off_c, 9, 56, 64
8, 54808, Note_off_c, 9, 53, 64
8, 54888, Note_on_c, 9, 35, 69
8, 54888, Note_on_c, 9, 53, 81
8, 54892, Note_off_c, 9, 35, 64
8, 54892, Note_off_c, 9, 53, 64
8, 54969, Note_on_c, 9, 56, 65
8, 54969, Note_on_c, 9, 53, 81
8, 54972, Note_off_c, 9, 56, 64
8, 54972, Note_off_c, 9, 53, 64
8, 55050, Note_on_c, 9, 35, 69
8, 55050, Note_on_c, 9, 53, 81
8, 55053, Note_off_c, 9, 35, 64
8, 55053, Note_off_c, 9, 53, 64
8, 55134, Note_on_c, 9, 56, 65
8, 55134, Note_on_c, 9, 53, 81
8, 55135, Note_off_c, 9, 56, 64
8, 55135, Note_off_c, 9, 53, 64
8, 55213, Note_on_c, 9, 35, 69
8, 55213, Note_on_c, 9, 53, 81
8, 55216, Note_off_c, 9, 35, 64
8, 55216, Note_off_c, 9, 53, 64
8, 55293, Note_on_c, 9, 35, 69
8, 55293, Note_on_c, 9, 56, 65
8, 55297, Note_off_c, 9, 35, 64
8, 55297, Note_off_c, 9, 56, 64
8, 55297, Note_on_c, 9, 53, 81
8, 55298, Note_off_c, 9, 53, 64
8, 55374, Note_on_c, 9, 53, 81
8, 55377, Note_off_c, 9, 53, 64
8, 55455, Note_on_c, 9, 56, 65
8, 55455, Note_on_c, 9, 53, 81
8, 55456, Note_off_c, 9, 56, 64
8, 55456, Note_off_c, 9, 53, 64
8, 55537, Note_on_c, 9, 35, 69
8, 55537, Note_on_c, 9, 53, 81
8, 55540, Note_off_c, 9, 35, 64
8, 55540, Note_off_c, 9, 53, 64
8, 55618, Note_on_c, 9, 35, 69
8, 55618, Note_on_c, 9, 56, 65
8, 55621, Note_off_c, 9, 35, 64
8, 55621, Note_off_c, 9, 56, 64
8, 55621, Note_on_c, 9, 53, 81
8, 55622, Note_off_c, 9, 53, 64
8, 55699, Note_on_c, 9, 53, 81
8, 55702, Note_off_c, 9, 53, 64
8, 55780, Note_on_c, 9, 56, 65
8, 55783, Note_off_c, 9, 56, 64
8, 55783, Note_on_c, 9, 53, 81
8, 55784, Note_off_c, 9, 53, 64
8, 55862, Note_on_c, 9, 53, 81
8, 55865, Note_off_c, 9, 53, 64
8, 55942, Note_on_c, 9, 35, 69
8, 55942, Note_on_c, 9, 56, 65
8, 55942, Note_on_c, 9, 53, 81
8, 55945, Note_off_c, 9, 35, 64
8, 55945, Note_off_c, 9, 56, 64
8, 55945, Note_off_c, 9, 53, 64
8, 56024, Note_on_c, 9, 35, 69
8, 56024, Note_on_c, 9, 53, 81
8, 56027, Note_off_c, 9, 35, 64
8, 56027, Note_off_c, 9, 53, 64
8, 56104, Note_on_c, 9, 56, 65
8, 56104, Note_on_c, 9, 53, 81
8, 56108, Note_off_c, 9, 56, 64
8, 56108, Note_off_c, 9, 53, 64
8, 56186, Note_on_c, 9, 35, 69
8, 56186, Note_on_c, 9, 53, 81
8, 56189, Note_off_c, 9, 35, 64
8, 56189, Note_off_c, 9, 53, 64
8, 56267, Note_on_c, 9, 42, 121
8, 56267, Note_on_c, 9, 49, 80
8, 56268, Note_off_c, 9, 42, 64
8, 56309, Note_off_c, 9, 49, 64
8, 56349, Note_on_c, 9, 35, 69
8, 56349, Note_on_c, 9, 42, 81
8, 56350, Note_off_c, 9, 35, 64
8, 56350, Note_off_c, 9, 42, 64
8, 56430, Note_on_c, 9, 42, 121
8, 56431, Note_off_c, 9, 42, 64
8, 56510, Note_on_c, 9, 35, 69
8, 56510, Note_on_c, 9, 42, 81
8, 56511, Note_off_c, 9, 35, 64
8, 56511, Note_off_c, 9, 42, 64
8, 56591, Note_on_c, 9, 35, 69
8, 56591, Note_on_c, 9, 42, 121
8, 56595, Note_off_c, 9, 35, 64
8, 56595, Note_off_c, 9, 42, 64
8, 56673, Note_on_c, 9, 42, 81
8, 56676, Note_off_c, 9, 42, 64
8, 56753, Note_on_c, 9, 42, 121
8, 56756, Note_off_c, 9, 42, 64
8, 56835, Note_on_c, 9, 35, 69
8, 56835, Note_on_c, 9, 42, 81
8, 56836, Note_off_c, 9, 35, 64
8, 56836, Note_off_c, 9, 42, 64
8, 56915, Note_on_c, 9, 35, 69
8, 56915, Note_on_c, 9, 42, 121
8, 56916, Note_off_c, 9, 35, 64
8, 56916, Note_off_c, 9, 42, 64
8, 56997, Note_on_c, 9, 42, 81
8, 57001, Note_off_c, 9, 42, 64
8, 57078, Note_on_c, 9, 42, 121
8, 57082, Note_off_c, 9, 42, 64
8, 57163, Note_on_c, 9, 42, 81
8, 57164, Note_off_c, 9, 42, 64
8, 57240, Note_on_c, 9, 35, 69
8, 57331, Note_off_c, 9, 35, 64
8, 57331, Note_on_c, 9, 42, 121
8, 57331, Note_on_c, 9, 35, 69
8, 57332, Note_off_c, 9, 42, 64
8, 57332, Note_off_c, 9, 35, 64
8, 57402, Note_on_c, 9, 42, 121
8, 57406, Note_off_c, 9, 42, 64
8, 57483, Note_on_c, 9, 35, 69
8, 57483, Note_on_c, 9, 46, 81
8, 57487, Note_off_c, 9, 35, 64
8, 57487, Note_off_c, 9, 46, 64
8, 57564, Note_on_c, 9, 42, 121
8, 57565, Note_off_c, 9, 42, 64
8, 57645, Note_on_c, 9, 35, 69
8, 57645, Note_on_c, 9, 42, 81
8, 57646, Note_off_c, 9, 35, 64
8, 57646, Note_off_c, 9, 42, 64
8, 57727, Note_on_c, 9, 42, 121
8, 57728, Note_off_c, 9, 42, 64
8, 57807, Note_on_c, 9, 35, 69
8, 57807, Note_on_c, 9, 42, 81
8, 57810, Note_off_c, 9, 35, 64
8, 57810, Note_off_c, 9, 42, 64
8, 57889, Note_on_c, 9, 35, 69
8, 57889, Note_on_c, 9, 42, 121
8, 57892, Note_off_c, 9, 35, 64
8, 57892, Note_off_c, 9, 42, 64
8, 57970, Note_on_c, 9, 42, 81
8, 57973, Note_off_c, 9, 42, 64
8, 58051, Note_on_c, 9, 42, 121
8, 58054, Note_off_c, 9, 42, 64
8, 58132, Note_on_c, 9, 35, 69
8, 58132, Note_on_c, 9, 42, 81
8, 58135, Note_off_c, 9, 35, 64
8, 58135, Note_off_c, 9, 42, 64
8, 58213, Note_on_c, 9, 35, 69
8, 58213, Note_on_c, 9, 42, 121
8, 58215, Note_off_c, 9, 35, 64
8, 58215, Note_off_c, 9, 42, 64
8, 58294, Note_on_c, 9, 42, 81
8, 58299, Note_off_c, 9, 42, 64
8, 58375, Note_on_c, 9, 42, 121
8, 58380, Note_off_c, 9, 42, 64
8, 58455, Note_on_c, 9, 42, 81
8, 58459, Note_off_c, 9, 42, 64
8, 58537, Note_on_c, 9, 35, 69
8, 58537, Note_on_c, 9, 42, 121
8, 58541, Note_off_c, 9, 35, 64
8, 58541, Note_off_c, 9, 42, 64
8, 58618, Note_on_c, 9, 35, 69
8, 58618, Note_on_c, 9, 42, 81
8, 58623, Note_off_c, 9, 35, 64
8, 58623, Note_off_c, 9, 42, 64
8, 58699, Note_on_c, 9, 42, 121
8, 58702, Note_off_c, 9, 42, 64
8, 58781, Note_on_c, 9, 35, 69
8, 58781, Note_on_c, 9, 46, 81
8, 58784, Note_off_c, 9, 35, 64
8, 58784, Note_off_c, 9, 46, 64
8, 58862, Note_on_c, 9, 42, 121
8, 58863, Note_off_c, 9, 42, 64
8, 58942, Note_on_c, 9, 35, 69
8, 58942, Note_on_c, 9, 42, 81
8, 58947, Note_off_c, 9, 35, 64
8, 58947, Note_off_c, 9, 42, 64
8, 59024, Note_on_c, 9, 42, 121
8, 59028, Note_off_c, 9, 42, 64
8, 59105, Note_on_c, 9, 35, 69
8, 59105, Note_on_c, 9, 42, 81
8, 59109, Note_off_c, 9, 35, 64
8, 59109, Note_off_c, 9, 42, 64
8, 59187, Note_on_c, 9, 35, 69
8, 59187, Note_on_c, 9, 42, 121
8, 59189, Note_off_c, 9, 35, 64
8, 59189, Note_off_c, 9, 42, 64
8, 59267, Note_on_c, 9, 42, 81
8, 59271, Note_off_c, 9, 42, 64
8, 59346, Note_on_c, 9, 42, 121
8, 59347, Note_off_c, 9, 42, 64
8, 59429, Note_on_c, 9, 35, 69
8, 59429, Note_on_c, 9, 42, 81
8, 59432, Note_off_c, 9, 35, 64
8, 59432, Note_off_c, 9, 42, 64
8, 59510, Note_on_c, 9, 35, 69
8, 59510, Note_on_c, 9, 42, 121
8, 59511, Note_off_c, 9, 35, 64
8, 59511, Note_off_c, 9, 42, 64
8, 59591, Note_on_c, 9, 42, 81
8, 59594, Note_off_c, 9, 42, 64
8, 59672, Note_on_c, 9, 42, 121
8, 59673, Note_off_c, 9, 42, 64
8, 59753, Note_on_c, 9, 42, 81
8, 59756, Note_off_c, 9, 42, 64
8, 59834, Note_on_c, 9, 35, 69
8, 59834, Note_on_c, 9, 42, 121
8, 59838, Note_off_c, 9, 35, 64
8, 59839, Note_off_c, 9, 42, 64
8, 59917, Note_on_c, 9, 35, 69
8, 59917, Note_on_c, 9, 42, 81
8, 59919, Note_off_c, 9, 35, 64
8, 59919, Note_off_c, 9, 42, 64
8, 59997, Note_on_c, 9, 42, 121
8, 60001, Note_off_c, 9, 42, 64
8, 60078, Note_on_c, 9, 35, 69
8, 60078, Note_on_c, 9, 46, 81
8, 60081, Note_off_c, 9, 35, 64
8, 60081, Note_off_c, 9, 46, 64
8, 60160, Note_on_c, 9, 42, 121
8, 60161, Note_off_c, 9, 42, 64
8, 60240, Note_on_c, 9, 35, 69
8, 60240, Note_on_c, 9, 42, 81
8, 60241, Note_off_c, 9, 35, 64
8, 60241, Note_off_c, 9, 42, 64
8, 60322, Note_on_c, 9, 42, 121
8, 60326, Note_off_c, 9, 42, 64
8, 60403, Note_on_c, 9, 35, 69
8, 60403, Note_on_c, 9, 42, 81
8, 60406, Note_off_c, 9, 35, 64
8, 60406, Note_off_c, 9, 42, 64
8, 60485, Note_on_c, 9, 35, 69
8, 60485, Note_on_c, 9, 42, 121
8, 60487, Note_off_c, 9, 35, 64
8, 60487, Note_off_c, 9, 42, 64
8, 60565, Note_on_c, 9, 42, 81
8, 60568, Note_off_c, 9, 42, 64
8, 60647, Note_on_c, 9, 42, 121
8, 60650, Note_off_c, 9, 42, 64
8, 60727, Note_on_c, 9, 35, 69
8, 60727, Note_on_c, 9, 42, 81
8, 60730, Note_off_c, 9, 35, 64
8, 60730, Note_off_c, 9, 42, 64
8, 60809, Note_on_c, 9, 35, 69
8, 60809, Note_on_c, 9, 42, 121
8, 60810, Note_off_c, 9, 35, 64
8, 60810, Note_off_c, 9, 42, 64
8, 60890, Note_on_c, 9, 42, 81
8, 60894, Note_off_c, 9, 42, 64
8, 60974, Note_on_c, 9, 42, 121
8, 60978, Note_off_c, 9, 42, 64
8, 61052, Note_on_c, 9, 42, 81
8, 61056, Note_off_c, 9, 42, 64
8, 61133, Note_on_c, 9, 35, 69
8, 61133, Note_on_c, 9, 42, 121
8, 61137, Note_off_c, 9, 35, 64
8, 61137, Note_off_c, 9, 42, 64
8, 61213, Note_on_c, 9, 35, 69
8, 61213, Note_on_c, 9, 42, 81
8, 61214, Note_off_c, 9, 35, 64
8, 61214, Note_off_c, 9, 42, 64
8, 61295, Note_on_c, 9, 42, 121
8, 61296, Note_off_c, 9, 42, 64
8, 61377, Note_on_c, 9, 35, 69
8, 61381, Note_off_c, 9, 35, 64
8, 61458, Note_on_c, 9, 42, 81
8, 61458, Note_on_c, 9, 56, 65
8, 61458, Note_on_c, 9, 53, 81
8, 61458, Note_on_c, 9, 49, 80
8, 61459, Note_off_c, 9, 42, 64
8, 61459, Note_off_c, 9, 56, 64
8, 61459, Note_off_c, 9, 53, 64
8, 61500, Note_off_c, 9, 49, 64
8, 61539, Note_on_c, 9, 35, 69
8, 61539, Note_on_c, 9, 53, 81
8, 61541, Note_off_c, 9, 35, 64
8, 61541, Note_off_c, 9, 53, 64
8, 61620, Note_on_c, 9, 56, 65
8, 61621, Note_on_c, 9, 53, 81
8, 61624, Note_off_c, 9, 56, 64
8, 61624, Note_off_c, 9, 53, 64
8, 61701, Note_on_c, 9, 35, 69
8, 61701, Note_on_c, 9, 53, 81
8, 61703, Note_off_c, 9, 35, 64
8, 61703, Note_off_c, 9, 53, 64
8, 61782, Note_on_c, 9, 35, 69
8, 61782, Note_on_c, 9, 56, 65
8, 61784, Note_on_c, 9, 53, 81
8, 61785, Note_off_c, 9, 35, 64
8, 61785, Note_off_c, 9, 56, 64
8, 61785, Note_off_c, 9, 53, 64
8, 61863, Note_on_c, 9, 53, 81
8, 61866, Note_off_c, 9, 53, 64
8, 61944, Note_on_c, 9, 56, 65
8, 61944, Note_on_c, 9, 53, 81
8, 61950, Note_off_c, 9, 56, 64
8, 61950, Note_off_c, 9, 53, 64
8, 62025, Note_on_c, 9, 35, 69
8, 62025, Note_on_c, 9, 53, 81
8, 62026, Note_off_c, 9, 35, 64
8, 62026, Note_off_c, 9, 53, 64
8, 62106, Note_on_c, 9, 35, 69
8, 62106, Note_on_c, 9, 56, 65
8, 62106, Note_on_c, 9, 53, 81
8, 62109, Note_off_c, 9, 35, 64
8, 62109, Note_off_c, 9, 56, 64
8, 62109, Note_off_c, 9, 53, 64
8, 62187, Note_on_c, 9, 53, 81
8, 62190, Note_off_c, 9, 53, 64
8, 62268, Note_on_c, 9, 56, 65
8, 62270, Note_on_c, 9, 53, 81
8, 62271, Note_off_c, 9, 56, 64
8, 62271, Note_off_c, 9, 53, 64
8, 62350, Note_on_c, 9, 53, 81
8, 62352, Note_off_c, 9, 53, 64
8, 62431, Note_on_c, 9, 35, 69
8, 62431, Note_on_c, 9, 56, 65
8, 62432, Note_on_c, 9, 53, 81
8, 62434, Note_off_c, 9, 35, 64
8, 62434, Note_off_c, 9, 56, 64
8, 62434, Note_off_c, 9, 53, 64
8, 62511, Note_on_c, 9, 35, 69
8, 62511, Note_on_c, 9, 53, 81
8, 62515, Note_off_c, 9, 35, 64
8, 62515, Note_off_c, 9, 53, 64
8, 62593, Note_on_c, 9, 56, 65
8, 62593, Note_on_c, 9, 53, 81
8, 62594, Note_off_c, 9, 56, 64
8, 62594, Note_off_c, 9, 53, 64
8, 62674, Note_on_c, 9, 35, 69
8, 62674, Note_on_c, 9, 53, 81
8, 62677, Note_off_c, 9, 35, 64
8, 62677, Note_off_c, 9, 53, 64
8, 62756, Note_on_c, 9, 56, 65
8, 62756, Note_on_c, 9, 53, 81
8, 62759, Note_off_c, 9, 56, 64
8, 62759, Note_off_c, 9, 53, 64
8, 62836, Note_on_c, 9, 35, 69
8, 62836, Note_on_c, 9, 53, 81
8, 62839, Note_off_c, 9, 35, 64
8, 62839, Note_off_c, 9, 53, 64
8, 62918, Note_on_c, 9, 56, 65
8, 62919, Note_on_c, 9, 53, 81
8, 62921, Note_off_c, 9, 56, 64
8, 62921, Note_off_c, 9, 53, 64
8, 62998, Note_on_c, 9, 35, 69
8, 63001, Note_on_c, 9, 53, 81
8, 63002, Note_off_c, 9, 53, 64
8, 63081, Note_on_c, 9, 56, 65
8, 63082, Note_on_c, 9, 53, 81
8, 63083, Note_off_c, 9, 35, 64
8, 63083, Note_off_c, 9, 56, 64
8, 63083, Note_off_c, 9, 53, 64
8, 63160, Note_on_c, 9, 53, 81
8, 63164, Note_off_c, 9, 53, 64
8, 63242, Note_on_c, 9, 56, 65
8, 63242, Note_on_c, 9, 53, 81
8, 63243, Note_off_c, 9, 56, 64
8, 63243, Note_off_c, 9, 53, 64
8, 63323, Note_on_c, 9, 35, 69
8, 63323, Note_on_c, 9, 53, 81
8, 63324, Note_off_c, 9, 35, 64
8, 63324, Note_off_c, 9, 53, 64
8, 63404, Note_on_c, 9, 35, 69
8, 63404, Note_on_c, 9, 56, 65
8, 63406, Note_on_c, 9, 53, 81
8, 63407, Note_off_c, 9, 35, 64
8, 63407, Note_off_c, 9, 56, 64
8, 63407, Note_off_c, 9, 53, 64
8, 63485, Note_on_c, 9, 53, 81
8, 63488, Note_off_c, 9, 53, 64
8, 63566, Note_on_c, 9, 56, 65
8, 63566, Note_on_c, 9, 53, 81
8, 63569, Note_off_c, 9, 56, 64
8, 63569, Note_off_c, 9, 53, 64
8, 63647, Note_on_c, 9, 53, 81
8, 63650, Note_off_c, 9, 53, 64
8, 63729, Note_on_c, 9, 35, 69
8, 63729, Note_on_c, 9, 56, 65
8, 63732, Note_off_c, 9, 35, 64
8, 63732, Note_off_c, 9, 56, 64
8, 63732, Note_on_c, 9, 53, 81
8, 63733, Note_off_c, 9, 53, 64
8, 63810, Note_on_c, 9, 35, 69
8, 63810, Note_on_c, 9, 53, 81
8, 63814, Note_off_c, 9, 35, 64
8, 63814, Note_off_c, 9, 53, 64
8, 63891, Note_on_c, 9, 56, 65
8, 63891, Note_on_c, 9, 53, 81
8, 63896, Note_off_c, 9, 56, 64
8, 63896, Note_off_c, 9, 53, 64
8, 63973, Note_on_c, 9, 35, 69
8, 63973, Note_on_c, 9, 53, 81
8, 63974, Note_off_c, 9, 35, 64
8, 63974, Note_off_c, 9, 53, 64
8, 64054, Note_on_c, 9, 56, 65
8, 64054, Note_on_c, 9, 53, 81
8, 64056, Note_off_c, 9, 56, 64
8, 64056, Note_off_c, 9, 53, 64
8, 64134, Note_on_c, 9, 35, 69
8, 64134, Note_on_c, 9, 53, 81
8, 64137, Note_off_c, 9, 35, 64
8, 64137, Note_off_c, 9, 53, 64
8, 64216, Note_on_c, 9, 56, 65
8, 64217, Note_on_c, 9, 53, 81
8, 64219, Note_off_c, 9, 56, 64
8, 64219, Note_off_c, 9, 53, 64
8, 64297, Note_on_c, 9, 35, 69
8, 64297, Note_on_c, 9, 53, 81
8, 64299, Note_off_c, 9, 35, 64
8, 64299, Note_off_c, 9, 53, 64
8, 64378, Note_on_c, 9, 35, 69
8, 64378, Note_on_c, 9, 56, 65
8, 64380, Note_on_c, 9, 53, 81
8, 64381, Note_off_c, 9, 35, 64
8, 64381, Note_off_c, 9, 56, 64
8, 64381, Note_off_c, 9, 53, 64
8, 64459, Note_on_c, 9, 53, 81
8, 64462, Note_off_c, 9, 53, 64
8, 64541, Note_on_c, 9, 56, 65
8, 64541, Note_on_c, 9, 53, 81
8, 64545, Note_off_c, 9, 56, 64
8, 64545, Note_off_c, 9, 53, 64
8, 64621, Note_on_c, 9, 35, 69
8, 64621, Note_on_c, 9, 53, 81
8, 64626, Note_off_c, 9, 35, 64
8, 64626, Note_off_c, 9, 53, 64
8, 64703, Note_on_c, 9, 35, 69
8, 64703, Note_on_c, 9, 56, 65
8, 64704, Note_on_c, 9, 53, 81
8, 64706, Note_off_c, 9, 35, 64
8, 64706, Note_off_c, 9, 56, 64
8, 64706, Note_off_c, 9, 53, 64
8, 64784, Note_on_c, 9, 53, 81
8, 64787, Note_off_c, 9, 53, 64
8, 64865, Note_on_c, 9, 56, 65
8, 64867, Note_on_c, 9, 53, 81
8, 64868, Note_off_c, 9, 56, 64
8, 64868, Note_off_c, 9, 53, 64
8, 64945, Note_on_c, 9, 53, 81
8, 64948, Note_off_c, 9, 53, 64
8, 65028, Note_on_c, 9, 35, 69
8, 65028, Note_on_c, 9, 56, 65
8, 65030, Note_on_c, 9, 53, 81
8, 65031, Note_off_c, 9, 35, 64
8, 65031, Note_off_c, 9, 56, 64
8, 65031, Note_off_c, 9, 53, 64
8, 65108, Note_on_c, 9, 35, 69
8, 65108, Note_on_c, 9, 53, 81
8, 65111, Note_off_c, 9, 35, 64
8, 65111, Note_off_c, 9, 53, 64
8, 65190, Note_on_c, 9, 56, 65
8, 65190, Note_on_c, 9, 53, 81
8, 65191, Note_off_c, 9, 56, 64
8, 65191, Note_off_c, 9, 53, 64
8, 65270, Note_on_c, 9, 35, 69
8, 65270, Note_on_c, 9, 53, 81
8, 65272, Note_off_c, 9, 35, 64
8, 65272, Note_off_c, 9, 53, 64
8, 65352, Note_on_c, 9, 56, 65
8, 65352, Note_on_c, 9, 53, 81
8, 65355, Note_off_c, 9, 56, 64
8, 65355, Note_off_c, 9, 53, 64
8, 65433, Note_on_c, 9, 35, 69
8, 65435, Note_on_c, 9, 53, 81
8, 65436, Note_off_c, 9, 35, 64
8, 65437, Note_off_c, 9, 53, 64
8, 65513, Note_on_c, 9, 56, 65
8, 65516, Note_on_c, 9, 53, 81
8, 65518, Note_off_c, 9, 56, 64
8, 65518, Note_off_c, 9, 53, 64
8, 65595, Note_on_c, 9, 35, 69
8, 65595, Note_on_c, 9, 53, 81
8, 65597, Note_off_c, 9, 35, 64
8, 65597, Note_off_c, 9, 53, 64
8, 65676, Note_on_c, 9, 35, 69
8, 65676, Note_on_c, 9, 56, 65
8, 65678, Note_on_c, 9, 53, 81
8, 65680, Note_off_c, 9, 35, 64
8, 65680, Note_off_c, 9, 56, 64
8, 65680, Note_off_c, 9, 53, 64
8, 65756, Note_on_c, 9, 53, 81
8, 65760, Note_off_c, 9, 53, 64
8, 65838, Note_on_c, 9, 56, 65
8, 65838, Note_on_c, 9, 53, 81
8, 65840, Note_off_c, 9, 56, 64
8, 65840, Note_off_c, 9, 53, 64
8, 65920, Note_on_c, 9, 35, 69
8, 65920, Note_on_c, 9, 53, 81
8, 65922, Note_off_c, 9, 35, 64
8, 65922, Note_off_c, 9, 53, 64
8, 66001, Note_on_c, 9, 35, 69
8, 66001, Note_on_c, 9, 56, 65
8, 66004, Note_on_c, 9, 53, 81
8, 66005, Note_off_c, 9, 35, 64
8, 66005, Note_off_c, 9, 56, 64
8, 66005, Note_off_c, 9, 53, 64
8, 66082, Note_on_c, 9, 53, 81
8, 66084, Note_off_c, 9, 53, 64
8, 66163, Note_on_c, 9, 56, 65
8, 66165, Note_on_c, 9, 53, 81
8, 66167, Note_off_c, 9, 56, 64
8, 66167, Note_off_c, 9, 53, 64
8, 66244, Note_on_c, 9, 53, 81
8, 66247, Note_off_c, 9, 53, 64
8, 66326, Note_on_c, 9, 35, 69
8, 66326, Note_on_c, 9, 56, 65
8, 66327, Note_off_c, 9, 35, 64
8, 66327, Note_off_c, 9, 56, 64
8, 66327, Note_on_c, 9, 53, 81
8, 66328, Note_off_c, 9, 53, 64
8, 66406, Note_on_c, 9, 35, 69
8, 66406, Note_on_c, 9, 53, 81
8, 66407, Note_off_c, 9, 35, 64
8, 66407, Note_off_c, 9, 53, 64
8, 66487, Note_on_c, 9, 56, 65
8, 66487, Note_on_c, 9, 53, 81
8, 66488, Note_off_c, 9, 56, 64
8, 66488, Note_off_c, 9, 53, 64
8, 66569, Note_on_c, 9, 35, 69
8, 66569, Note_on_c, 9, 53, 81
8, 66574, Note_off_c, 9, 35, 64
8, 66574, Note_off_c, 9, 53, 64
8, 66649, Note_on_c, 9, 56, 65
8, 66649, Note_on_c, 9, 53, 81
8, 66652, Note_off_c, 9, 56, 64
8, 66652, Note_off_c, 9, 53, 64
8, 66730, Note_on_c, 9, 35, 69
8, 66730, Note_on_c, 9, 53, 81
8, 66733, Note_off_c, 9, 35, 64
8, 66733, Note_off_c, 9, 53, 64
8, 66812, Note_on_c, 9, 56, 65
8, 66812, Note_on_c, 9, 53, 81
8, 66814, Note_off_c, 9, 56, 64
8, 66814, Note_off_c, 9, 53, 64
8, 66896, Note_on_c, 9, 35, 69
8, 66896, Note_on_c, 9, 53, 81
8, 66897, Note_off_c, 9, 35, 64
8, 66897, Note_off_c, 9, 53, 64
8, 66973, Note_on_c, 9, 35, 69
8, 66973, Note_on_c, 9, 56, 65
8, 66975, Note_on_c, 9, 53, 81
8, 66976, Note_off_c, 9, 35, 64
8, 66976, Note_off_c, 9, 56, 64
8, 66976, Note_off_c, 9, 53, 64
8, 67054, Note_on_c, 9, 53, 81
8, 67058, Note_off_c, 9, 53, 64
8, 67135, Note_on_c, 9, 56, 65
8, 67136, Note_on_c, 9, 53, 81
8, 67139, Note_off_c, 9, 56, 64
8, 67139, Note_off_c, 9, 53, 64
8, 67217, Note_on_c, 9, 35, 69
8, 67217, Note_on_c, 9, 53, 81
8, 67220, Note_off_c, 9, 35, 64
8, 67220, Note_off_c, 9, 53, 64
8, 67298, Note_on_c, 9, 35, 69
8, 67298, Note_on_c, 9, 56, 65
8, 67300, Note_on_c, 9, 53, 81
8, 67301, Note_off_c, 9, 35, 64
8, 67301, Note_off_c, 9, 56, 64
8, 67301, Note_off_c, 9, 53, 64
8, 67379, Note_on_c, 9, 53, 81
8, 67382, Note_off_c, 9, 53, 64
8, 67461, Note_on_c, 9, 56, 65
8, 67461, Note_on_c, 9, 53, 81
8, 67465, Note_off_c, 9, 56, 64
8, 67465, Note_off_c, 9, 53, 64
8, 67541, Note_on_c, 9, 53, 81
8, 67542, Note_off_c, 9, 53, 64
8, 67623, Note_on_c, 9, 35, 69
8, 67623, Note_on_c, 9, 56, 65
8, 67624, Note_off_c, 9, 56, 64
8, 67624, Note_on_c, 9, 53, 81
8, 67625, Note_off_c, 9, 53, 64
8, 67628, Note_off_c, 9, 35, 64
8, 67703, Note_on_c, 9, 35, 69
8, 67703, Note_on_c, 9, 53, 81
8, 67704, Note_off_c, 9, 35, 64
8, 67704, Note_off_c, 9, 53, 64
8, 67784, Note_on_c, 9, 56, 65
8, 67784, Note_on_c, 9, 53, 81
8, 67788, Note_off_c, 9, 56, 64
8, 67788, Note_off_c, 9, 53, 64
8, 67866, Note_on_c, 9, 35, 69
8, 67866, Note_on_c, 9, 53, 81
8, 67867, Note_off_c, 9, 35, 64
8, 67867, Note_off_c, 9, 53, 64
8, 67947, Note_on_c, 9, 56, 65
8, 67947, Note_on_c, 9, 53, 81
8, 67950, Note_off_c, 9, 56, 64
8, 67950, Note_off_c, 9, 53, 64
8, 68028, Note_on_c, 9, 35, 69
8, 68028, Note_on_c, 9, 53, 81
8, 68031, Note_off_c, 9, 35, 64
8, 68031, Note_off_c, 9, 53, 64
8, 68111, Note_on_c, 9, 56, 65
8, 68111, Note_on_c, 9, 53, 81
8, 68113, Note_off_c, 9, 56, 64
8, 68113, Note_off_c, 9, 53, 64
8, 68190, Note_on_c, 9, 35, 69
8, 68190, Note_on_c, 9, 53, 81
8, 68192, Note_off_c, 9, 35, 64
8, 68192, Note_off_c, 9, 53, 64
8, 68271, Note_on_c, 9, 35, 69
8, 68271, Note_on_c, 9, 56, 65
8, 68273, Note_on_c, 9, 53, 81
8, 68274, Note_off_c, 9, 35, 64
8, 68274, Note_off_c, 9, 56, 64
8, 68274, Note_off_c, 9, 53, 64
8, 68352, Note_on_c, 9, 53, 81
8, 68355, Note_off_c, 9, 53, 64
8, 68434, Note_on_c, 9, 56, 65
8, 68434, Note_on_c, 9, 53, 81
8, 68439, Note_off_c, 9, 56, 64
8, 68439, Note_off_c, 9, 53, 64
8, 68514, Note_on_c, 9, 35, 69
8, 68514, Note_on_c, 9, 53, 81
8, 68515, Note_off_c, 9, 35, 64
8, 68515, Note_off_c, 9, 53, 64
8, 68596, Note_on_c, 9, 35, 69
8, 68596, Note_on_c, 9, 56, 65
8, 68597, Note_on_c, 9, 53, 81
8, 68599, Note_off_c, 9, 35, 64
8, 68599, Note_off_c, 9, 56, 64
8, 68599, Note_off_c, 9, 53, 64
8, 68677, Note_on_c, 9, 53, 81
8, 68677, Note_on_c, 9, 50, 81
8, 68680, Note_off_c, 9, 53, 64
8, 68680, Note_off_c, 9, 50, 64
8, 68759, Note_on_c, 9, 56, 65
8, 68760, Note_on_c, 9, 53, 81
8, 68761, Note_on_c, 9, 50, 81
8, 68762, Note_off_c, 9, 50, 64
8, 68763, Note_off_c, 9, 56, 64
8, 68763, Note_off_c, 9, 53, 64
8, 68839, Note_on_c, 9, 53, 81
8, 68839, Note_on_c, 9, 50, 81
8, 68842, Note_off_c, 9, 53, 64
8, 68842, Note_off_c, 9, 50, 64
8, 68919, Note_on_c, 9, 35, 69
8, 68919, Note_on_c, 9, 56, 65
8, 68919, Note_on_c, 9, 53, 81
8, 68919, Note_on_c, 9, 50, 81
8, 68919, Note_on_c, 9, 47, 81
8, 68920, Note_off_c, 9, 47, 64
8, 68925, Note_off_c, 9, 35, 64
8, 68925, Note_off_c, 9, 56, 64
8, 68925, Note_off_c, 9, 53, 64
8, 68925, Note_off_c, 9, 50, 64
8, 69004, Note_on_c, 9, 35, 69
8, 69004, Note_on_c, 9, 53, 81
8, 69004, Note_on_c, 9, 50, 81
8, 69006, Note_off_c, 9, 35, 64
8, 69006, Note_off_c, 9, 53, 64
8, 69006, Note_off_c, 9, 50, 64
8, 69006, Note_on_c, 9, 47, 81
8, 69010, Note_off_c, 9, 47, 64
8, 69082, Note_on_c, 9, 56, 65
8, 69082, Note_on_c, 9, 53, 81
8, 69082, Note_on_c, 9, 43, 81
8, 69086, Note_off_c, 9, 43, 64
8, 69088, Note_off_c, 9, 56, 64
8, 69088, Note_off_c, 9, 53, 64
8, 69164, Note_on_c, 9, 35, 69
8, 69164, Note_on_c, 9, 53, 81
8, 69164, Note_on_c, 9, 43, 81
8, 69166, Note_off_c, 9, 43, 64
8, 69168, Note_off_c, 9, 35, 64
8, 69168, Note_off_c, 9, 53, 64
8, 69245, Note_on_c, 9, 42, 121
8, 69245, Note_on_c, 9, 49, 61
8, 69246, Note_off_c, 9, 42, 64
8, 69246, Note_off_c, 9, 49, 64
8, 69326, Note_on_c, 9, 35, 69
8, 69326, Note_on_c, 9, 42, 81
8, 69329, Note_off_c, 9, 35, 64
8, 69329, Note_off_c, 9, 42, 64
8, 69410, Note_on_c, 9, 42, 121
8, 69413, Note_off_c, 9, 42, 64
8, 69488, Note_on_c, 9, 35, 69
8, 69490, Note_on_c, 9, 42, 81
8, 69492, Note_off_c, 9, 35, 64
8, 69492, Note_off_c, 9, 42, 64
8, 69569, Note_on_c, 9, 35, 69
8, 69569, Note_on_c, 9, 42, 121
8, 69572, Note_off_c, 9, 35, 64
8, 69572, Note_off_c, 9, 42, 64
8, 69650, Note_on_c, 9, 42, 81
8, 69654, Note_off_c, 9, 42, 64
8, 69730, Note_on_c, 9, 42, 121
8, 69733, Note_off_c, 9, 42, 64
8, 69813, Note_on_c, 9, 35, 69
8, 69813, Note_on_c, 9, 42, 81
8, 69816, Note_off_c, 9, 35, 64
8, 69816, Note_off_c, 9, 42, 64
8, 69893, Note_on_c, 9, 35, 69
8, 69893, Note_on_c, 9, 42, 121
8, 69894, Note_off_c, 9, 35, 64
8, 69894, Note_off_c, 9, 42, 64
8, 69975, Note_on_c, 9, 42, 81
8, 69978, Note_off_c, 9, 42, 64
8, 70059, Note_on_c, 9, 42, 121
8, 70060, Note_off_c, 9, 42, 64
8, 70137, Note_on_c, 9, 42, 81
8, 70140, Note_off_c, 9, 42, 64
8, 70218, Note_on_c, 9, 35, 69
8, 70218, Note_on_c, 9, 42, 121
8, 70221, Note_off_c, 9, 35, 64
8, 70221, Note_off_c, 9, 42, 64
8, 70299, Note_on_c, 9, 35, 69
8, 70299, Note_on_c, 9, 42, 81
8, 70302, Note_off_c, 9, 35, 64
8, 70302, Note_off_c, 9, 42, 64
8, 70380, Note_on_c, 9, 42, 121
8, 70383, Note_off_c, 9, 42, 64
8, 70462, Note_on_c, 9, 35, 69
8, 70462, Note_on_c, 9, 46, 81
8, 70465, Note_off_c, 9, 35, 64
8, 70465, Note_off_c, 9, 46, 64
8, 70543, Note_on_c, 9, 42, 121
8, 70544, Note_off_c, 9, 42, 64
8, 70627, Note_on_c, 9, 35, 69
8, 70627, Note_on_c, 9, 42, 81
8, 70628, Note_off_c, 9, 35, 64
8, 70628, Note_off_c, 9, 42, 64
8, 70705, Note_on_c, 9, 42, 121
8, 70706, Note_off_c, 9, 42, 64
8, 70785, Note_on_c, 9, 35, 69
8, 70785, Note_on_c, 9, 42, 81
8, 70788, Note_off_c, 9, 35, 64
8, 70788, Note_off_c, 9, 42, 64
8, 70867, Note_on_c, 9, 35, 69
8, 70867, Note_on_c, 9, 42, 121
8, 70869, Note_off_c, 9, 35, 64
8, 70869, Note_off_c, 9, 42, 64
8, 70948, Note_on_c, 9, 42, 81
8, 70951, Note_off_c, 9, 42, 64
8, 71028, Note_on_c, 9, 42, 121
8, 71031, Note_off_c, 9, 42, 64
8, 71111, Note_on_c, 9, 35, 69
8, 71111, Note_on_c, 9, 42, 81
8, 71113, Note_off_c, 9, 35, 64
8, 71113, Note_off_c, 9, 42, 64
8, 71191, Note_on_c, 9, 35, 69
8, 71191, Note_on_c, 9, 42, 121
8, 71192, Note_off_c, 9, 35, 64
8, 71192, Note_off_c, 9, 42, 64
8, 71274, Note_on_c, 9, 42, 81
8, 71275, Note_off_c, 9, 42, 64
8, 71355, Note_on_c, 9, 42, 121
8, 71359, Note_off_c, 9, 42, 64
8, 71435, Note_on_c, 9, 42, 81
8, 71439, Note_off_c, 9, 42, 64
8, 71517, Note_on_c, 9, 35, 69
8, 71517, Note_on_c, 9, 42, 121
8, 71520, Note_off_c, 9, 35, 64
8, 71520, Note_off_c, 9, 42, 64
8, 71597, Note_on_c, 9, 35, 69
8, 71597, Note_on_c, 9, 42, 81
8, 71601, Note_off_c, 9, 35, 64
8, 71601, Note_off_c, 9, 42, 64
8, 71681, Note_on_c, 9, 42, 121
8, 71682, Note_off_c, 9, 42, 64
8, 71759, Note_on_c, 9, 35, 69
8, 71759, Note_on_c, 9, 46, 81
8, 71763, Note_off_c, 9, 35, 64
8, 71763, Note_off_c, 9, 46, 64
8, 71844, Note_on_c, 9, 42, 121
8, 71847, Note_off_c, 9, 42, 64
8, 71922, Note_on_c, 9, 35, 69
8, 71922, Note_on_c, 9, 42, 81
8, 71925, Note_off_c, 9, 35, 64
8, 71925, Note_off_c, 9, 42, 64
8, 72003, Note_on_c, 9, 42, 121
8, 72006, Note_off_c, 9, 42, 64
8, 72084, Note_on_c, 9, 35, 69
8, 72084, Note_on_c, 9, 42, 81
8, 72087, Note_off_c, 9, 35, 64
8, 72087, Note_off_c, 9, 42, 64
8, 72165, Note_on_c, 9, 35, 69
8, 72165, Note_on_c, 9, 42, 121
8, 72168, Note_off_c, 9, 35, 64
8, 72168, Note_off_c, 9, 42, 64
8, 72246, Note_on_c, 9, 42, 81
8, 72250, Note_off_c, 9, 42, 64
8, 72327, Note_on_c, 9, 42, 121
8, 72331, Note_off_c, 9, 42, 64
8, 72409, Note_on_c, 9, 35, 69
8, 72409, Note_on_c, 9, 42, 81
8, 72412, Note_off_c, 9, 35, 64
8, 72412, Note_off_c, 9, 42, 64
8, 72490, Note_on_c, 9, 35, 69
8, 72490, Note_on_c, 9, 42, 121
8, 72491, Note_off_c, 9, 35, 64
8, 72491, Note_off_c, 9, 42, 64
8, 72571, Note_on_c, 9, 42, 81
8, 72575, Note_off_c, 9, 42, 64
8, 72652, Note_on_c, 9, 42, 121
8, 72656, Note_off_c, 9, 42, 64
8, 72733, Note_on_c, 9, 42, 81
8, 72737, Note_off_c, 9, 42, 64
8, 72815, Note_on_c, 9, 35, 69
8, 72815, Note_on_c, 9, 42, 121
8, 72818, Note_off_c, 9, 35, 64
8, 72818, Note_off_c, 9, 42, 64
8, 72896, Note_on_c, 9, 35, 69
8, 72896, Note_on_c, 9, 42, 81
8, 72899, Note_off_c, 9, 35, 64
8, 72899, Note_off_c, 9, 42, 64
8, 72976, Note_on_c, 9, 42, 121
8, 72979, Note_off_c, 9, 42, 64
8, 73058, Note_on_c, 9, 35, 69
8, 73061, Note_off_c, 9, 35, 64
8, 73061, Note_on_c, 9, 46, 81
8, 73062, Note_off_c, 9, 46, 64
8, 73139, Note_on_c, 9, 42, 121
8, 73140, Note_off_c, 9, 42, 64
8, 73220, Note_on_c, 9, 35, 69
8, 73220, Note_on_c, 9, 42, 81
8, 73221, Note_off_c, 9, 35, 64
8, 73221, Note_off_c, 9, 42, 64
8, 73301, Note_on_c, 9, 42, 121
8, 73306, Note_off_c, 9, 42, 64
8, 73382, Note_on_c, 9, 35, 69
8, 73382, Note_on_c, 9, 42, 81
8, 73386, Note_off_c, 9, 35, 64
8, 73386, Note_off_c, 9, 42, 64
8, 73463, Note_on_c, 9, 35, 69
8, 73463, Note_on_c, 9, 42, 121
8, 73467, Note_off_c, 9, 35, 64
8, 73467, Note_off_c, 9, 42, 64
8, 73547, Note_on_c, 9, 42, 81
8, 73549, Note_off_c, 9, 42, 64
8, 73625, Note_on_c, 9, 42, 121
8, 73628, Note_off_c, 9, 42, 64
8, 73707, Note_on_c, 9, 35, 69
8, 73707, Note_on_c, 9, 42, 81
8, 73710, Note_off_c, 9, 35, 64
8, 73710, Note_off_c, 9, 42, 64
8, 73788, Note_on_c, 9, 35, 69
8, 73788, Note_on_c, 9, 42, 121
8, 73792, Note_off_c, 9, 35, 64
8, 73792, Note_off_c, 9, 42, 64
8, 73869, Note_on_c, 9, 42, 81
8, 73873, Note_off_c, 9, 42, 64
8, 73950, Note_on_c, 9, 42, 121
8, 73955, Note_off_c, 9, 42, 64
8, 74031, Note_on_c, 9, 42, 81
8, 74035, Note_off_c, 9, 42, 64
8, 74112, Note_on_c, 9, 35, 69
8, 74112, Note_on_c, 9, 42, 121
8, 74115, Note_off_c, 9, 35, 64
8, 74115, Note_off_c, 9, 42, 64
8, 74194, Note_on_c, 9, 35, 69
8, 74194, Note_on_c, 9, 42, 81
8, 74199, Note_off_c, 9, 35, 64
8, 74199, Note_off_c, 9, 42, 64
8, 74275, Note_on_c, 9, 42, 121
8, 74276, Note_off_c, 9, 42, 64
8, 74356, Note_on_c, 9, 35, 69
8, 74359, Note_off_c, 9, 35, 64
8, 74437, Note_on_c, 9, 56, 65
8, 74437, Note_on_c, 9, 53, 81
8, 74439, Note_on_c, 9, 49, 80
8, 74440, Note_off_c, 9, 56, 64
8, 74440, Note_off_c, 9, 53, 64
8, 74479, Note_off_c, 9, 49, 64
8, 74518, Note_on_c, 9, 35, 69
8, 74518, Note_on_c, 9, 53, 81
8, 74521, Note_off_c, 9, 35, 64
8, 74521, Note_off_c, 9, 53, 64
8, 74600, Note_on_c, 9, 56, 65
8, 74601, Note_on_c, 9, 53, 81
8, 74602, Note_off_c, 9, 56, 64
8, 74602, Note_off_c, 9, 53, 64
8, 74680, Note_on_c, 9, 35, 69
8, 74680, Note_on_c, 9, 53, 81
8, 74684, Note_off_c, 9, 35, 64
8, 74684, Note_off_c, 9, 53, 64
8, 74763, Note_on_c, 9, 35, 69
8, 74764, Note_on_c, 9, 56, 65
8, 74764, Note_on_c, 9, 53, 81
8, 74765, Note_off_c, 9, 35, 64
8, 74766, Note_off_c, 9, 56, 64
8, 74766, Note_off_c, 9, 53, 64
8, 74843, Note_on_c, 9, 53, 81
8, 74846, Note_off_c, 9, 53, 64
8, 74924, Note_on_c, 9, 56, 65
8, 74924, Note_on_c, 9, 53, 81
8, 74928, Note_off_c, 9, 56, 64
8, 74928, Note_off_c, 9, 53, 64
8, 75005, Note_on_c, 9, 35, 69
8, 75005, Note_on_c, 9, 53, 81
8, 75006, Note_off_c, 9, 35, 64
8, 75006, Note_off_c, 9, 53, 64
8, 75086, Note_on_c, 9, 35, 69
8, 75086, Note_on_c, 9, 56, 65
8, 75089, Note_off_c, 9, 35, 64
8, 75089, Note_off_c, 9, 56, 64
8, 75089, Note_on_c, 9, 53, 81
8, 75090, Note_off_c, 9, 53, 64
8, 75167, Note_on_c, 9, 53, 81
8, 75170, Note_off_c, 9, 53, 64
8, 75249, Note_on_c, 9, 56, 65
8, 75250, Note_on_c, 9, 53, 81
8, 75251, Note_off_c, 9, 56, 64
8, 75251, Note_off_c, 9, 53, 64
8, 75330, Note_on_c, 9, 53, 81
8, 75333, Note_off_c, 9, 53, 64
8, 75410, Note_on_c, 9, 35, 69
8, 75410, Note_on_c, 9, 56, 65
8, 75412, Note_on_c, 9, 53, 81
8, 75413, Note_off_c, 9, 35, 64
8, 75413, Note_off_c, 9, 56, 64
8, 75413, Note_off_c, 9, 53, 64
8, 75491, Note_on_c, 9, 35, 69
8, 75491, Note_on_c, 9, 53, 81
8, 75492, Note_off_c, 9, 35, 64
8, 75492, Note_off_c, 9, 53, 64
8, 75572, Note_on_c, 9, 56, 65
8, 75572, Note_on_c, 9, 53, 81
8, 75574, Note_off_c, 9, 56, 64
8, 75574, Note_off_c, 9, 53, 64
8, 75654, Note_on_c, 9, 35, 69
8, 75654, Note_on_c, 9, 53, 81
8, 75655, Note_off_c, 9, 35, 64
8, 75655, Note_off_c, 9, 53, 64
8, 75735, Note_on_c, 9, 56, 65
8, 75735, Note_on_c, 9, 53, 81
8, 75737, Note_off_c, 9, 56, 64
8, 75737, Note_off_c, 9, 53, 64
8, 75816, Note_on_c, 9, 35, 69
8, 75816, Note_on_c, 9, 53, 81
8, 75819, Note_off_c, 9, 35, 64
8, 75819, Note_off_c, 9, 53, 64
8, 75897, Note_on_c, 9, 56, 65
8, 75899, Note_on_c, 9, 53, 81
8, 75901, Note_off_c, 9, 56, 64
8, 75901, Note_off_c, 9, 53, 64
8, 75978, Note_on_c, 9, 35, 69
8, 75978, Note_on_c, 9, 53, 81
8, 75982, Note_off_c, 9, 35, 64
8, 75982, Note_off_c, 9, 53, 64
8, 76059, Note_on_c, 9, 35, 69
8, 76059, Note_on_c, 9, 56, 65
8, 76061, Note_on_c, 9, 53, 81
8, 76062, Note_off_c, 9, 35, 64
8, 76062, Note_off_c, 9, 56, 64
8, 76062, Note_off_c, 9, 53, 64
8, 76141, Note_on_c, 9, 53, 81
8, 76144, Note_off_c, 9, 53, 64
8, 76222, Note_on_c, 9, 56, 65
8, 76222, Note_on_c, 9, 53, 81
8, 76223, Note_off_c, 9, 56, 64
8, 76223, Note_off_c, 9, 53, 64
8, 76303, Note_on_c, 9, 35, 69
8, 76303, Note_on_c, 9, 53, 81
8, 76306, Note_off_c, 9, 35, 64
8, 76306, Note_off_c, 9, 53, 64
8, 76384, Note_on_c, 9, 35, 69
8, 76384, Note_on_c, 9, 56, 65
8, 76386, Note_on_c, 9, 53, 81
8, 76387, Note_off_c, 9, 35, 64
8, 76387, Note_off_c, 9, 56, 64
8, 76387, Note_off_c, 9, 53, 64
8, 76465, Note_on_c, 9, 53, 81
8, 76468, Note_off_c, 9, 53, 64
8, 76546, Note_on_c, 9, 56, 65
8, 76548, Note_on_c, 9, 53, 81
8, 76551, Note_off_c, 9, 56, 64
8, 76551, Note_off_c, 9, 53, 64
8, 76627, Note_on_c, 9, 53, 81
8, 76630, Note_off_c, 9, 53, 64
8, 76709, Note_on_c, 9, 35, 69
8, 76709, Note_on_c, 9, 56, 65
8, 76710, Note_on_c, 9, 53, 81
8, 76712, Note_off_c, 9, 35, 64
8, 76712, Note_off_c, 9, 56, 64
8, 76712, Note_off_c, 9, 53, 64
8, 76789, Note_on_c, 9, 35, 69
8, 76789, Note_on_c, 9, 53, 81
8, 76793, Note_off_c, 9, 35, 64
8, 76793, Note_off_c, 9, 53, 64
8, 76871, Note_on_c, 9, 56, 65
8, 76871, Note_on_c, 9, 53, 81
8, 76872, Note_off_c, 9, 56, 64
8, 76872, Note_off_c, 9, 53, 64
8, 76952, Note_on_c, 9, 35, 69
8, 76952, Note_on_c, 9, 53, 81
8, 76956, Note_off_c, 9, 35, 64
8, 76956, Note_off_c, 9, 53, 64
8, 77033, Note_on_c, 9, 56, 65
8, 77033, Note_on_c, 9, 53, 81
8, 77036, Note_off_c, 9, 56, 64
8, 77114, Note_on_c, 9, 35, 69
8, 77117, Note_off_c, 9, 53, 64
8, 77117, Note_off_c, 9, 35, 64
8, 77195, Note_on_c, 9, 56, 65
8, 77197, Note_on_c, 9, 53, 81
8, 77198, Note_off_c, 9, 56, 64
8, 77198, Note_off_c, 9, 53, 64
8, 77278, Note_on_c, 9, 35, 69
8, 77278, Note_on_c, 9, 53, 81
8, 77280, Note_off_c, 9, 35, 64
8, 77280, Note_off_c, 9, 53, 64
8, 77358, Note_on_c, 9, 35, 69
8, 77358, Note_on_c, 9, 56, 65
8, 77359, Note_on_c, 9, 53, 81
8, 77360, Note_off_c, 9, 35, 64
8, 77360, Note_off_c, 9, 56, 64
8, 77360, Note_off_c, 9, 53, 64
8, 77439, Note_on_c, 9, 53, 81
8, 77442, Note_off_c, 9, 53, 64
8, 77519, Note_on_c, 9, 56, 65
8, 77519, Note_on_c, 9, 53, 81
8, 77520, Note_off_c, 9, 56, 64
8, 77520, Note_off_c, 9, 53, 64
8, 77601, Note_on_c, 9, 35, 69
8, 77601, Note_on_c, 9, 53, 81
8, 77604, Note_off_c, 9, 35, 64
8, 77604, Note_off_c, 9, 53, 64
8, 77682, Note_on_c, 9, 35, 69
8, 77682, Note_on_c, 9, 56, 65
8, 77684, Note_on_c, 9, 53, 81
8, 77685, Note_off_c, 9, 35, 64
8, 77685, Note_off_c, 9, 56, 64
8, 77685, Note_off_c, 9, 53, 64
8, 77763, Note_on_c, 9, 53, 81
8, 77766, Note_off_c, 9, 53, 64
8, 77845, Note_on_c, 9, 56, 65
8, 77847, Note_on_c, 9, 53, 81
8, 77848, Note_off_c, 9, 56, 64
8, 77848, Note_off_c, 9, 53, 64
8, 77925, Note_on_c, 9, 53, 81
8, 77929, Note_off_c, 9, 53, 64
8, 78007, Note_on_c, 9, 35, 69
8, 78007, Note_on_c, 9, 56, 65
8, 78009, Note_on_c, 9, 53, 81
8, 78011, Note_off_c, 9, 35, 64
8, 78011, Note_off_c, 9, 56, 64
8, 78011, Note_off_c, 9, 53, 64
8, 78088, Note_on_c, 9, 35, 69
8, 78088, Note_on_c, 9, 53, 81
8, 78091, Note_off_c, 9, 35, 64
8, 78091, Note_off_c, 9, 53, 64
8, 78169, Note_on_c, 9, 56, 65
8, 78169, Note_on_c, 9, 53, 81
8, 78170, Note_off_c, 9, 56, 64
8, 78170, Note_off_c, 9, 53, 64
8, 78250, Note_on_c, 9, 35, 69
8, 78250, Note_on_c, 9, 53, 81
8, 78253, Note_off_c, 9, 35, 64
8, 78253, Note_off_c, 9, 53, 64
8, 78331, Note_on_c, 9, 56, 65
8, 78331, Note_on_c, 9, 53, 81
8, 78335, Note_off_c, 9, 56, 64
8, 78335, Note_off_c, 9, 53, 64
8, 78412, Note_on_c, 9, 35, 69
8, 78412, Note_on_c, 9, 53, 81
8, 78415, Note_off_c, 9, 35, 64
8, 78415, Note_off_c, 9, 53, 64
8, 78494, Note_on_c, 9, 56, 65
8, 78495, Note_on_c, 9, 53, 81
8, 78496, Note_off_c, 9, 56, 64
8, 78496, Note_off_c, 9, 53, 64
8, 78575, Note_on_c, 9, 35, 69
8, 78575, Note_on_c, 9, 53, 81
8, 78578, Note_off_c, 9, 35, 64
8, 78578, Note_off_c, 9, 53, 64
8, 78656, Note_on_c, 9, 35, 69
8, 78656, Note_on_c, 9, 56, 65
8, 78657, Note_on_c, 9, 53, 81
8, 78659, Note_off_c, 9, 35, 64
8, 78660, Note_off_c, 9, 56, 64
8, 78660, Note_off_c, 9, 53, 64
8, 78737, Note_on_c, 9, 53, 81
8, 78740, Note_off_c, 9, 53, 64
8, 78817, Note_on_c, 9, 56, 65
8, 78817, Note_on_c, 9, 53, 81
8, 78822, Note_off_c, 9, 56, 64
8, 78822, Note_off_c, 9, 53, 64
8, 78899, Note_on_c, 9, 35, 69
8, 78899, Note_on_c, 9, 53, 81
8, 78900, Note_off_c, 9, 35, 64
8, 78900, Note_off_c, 9, 53, 64
8, 78981, Note_on_c, 9, 35, 69
8, 78981, Note_on_c, 9, 56, 65
8, 78981, Note_on_c, 9, 53, 81
8, 78983, Note_off_c, 9, 35, 64
8, 78983, Note_off_c, 9, 56, 64
8, 78983, Note_off_c, 9, 53, 64
8, 79061, Note_on_c, 9, 53, 81
8, 79064, Note_off_c, 9, 53, 64
8, 79143, Note_on_c, 9, 56, 65
8, 79145, Note_off_c, 9, 56, 64
8, 79145, Note_on_c, 9, 53, 81
8, 79146, Note_off_c, 9, 53, 64
8, 79223, Note_on_c, 9, 53, 81
8, 79227, Note_off_c, 9, 53, 64
8, 79305, Note_on_c, 9, 35, 69
8, 79305, Note_on_c, 9, 56, 65
8, 79306, Note_on_c, 9, 53, 81
8, 79308, Note_off_c, 9, 35, 64
8, 79308, Note_off_c, 9, 56, 64
8, 79308, Note_off_c, 9, 53, 64
8, 79386, Note_on_c, 9, 35, 69
8, 79386, Note_on_c, 9, 53, 81
8, 79389, Note_off_c, 9, 35, 64
8, 79389, Note_off_c, 9, 53, 64
8, 79466, Note_on_c, 9, 56, 65
8, 79466, Note_on_c, 9, 53, 81
8, 79467, Note_off_c, 9, 56, 64
8, 79467, Note_off_c, 9, 53, 64
8, 79548, Note_on_c, 9, 35, 69
8, 79548, Note_on_c, 9, 53, 81
8, 79551, Note_off_c, 9, 35, 64
8, 79551, Note_off_c, 9, 53, 64
8, 79629, Note_on_c, 9, 56, 65
8, 79629, Note_on_c, 9, 53, 81
8, 79632, Note_off_c, 9, 56, 64
8, 79632, Note_off_c, 9, 53, 64
8, 79710, Note_on_c, 9, 35, 69
8, 79710, Note_on_c, 9, 53, 81
8, 79713, Note_off_c, 9, 35, 64
8, 79713, Note_off_c, 9, 53, 64
8, 79791, Note_on_c, 9, 56, 65
8, 79791, Note_on_c, 9, 53, 81
8, 79795, Note_off_c, 9, 56, 64
8, 79795, Note_off_c, 9, 53, 64
8, 79873, Note_on_c, 9, 35, 69
8, 79873, Note_on_c, 9, 53, 81
8, 79876, Note_off_c, 9, 35, 64
8, 79876, Note_off_c, 9, 53, 64
8, 79954, Note_on_c, 9, 35, 69
8, 79954, Note_on_c, 9, 56, 65
8, 79956, Note_off_c, 9, 35, 64
8, 79956, Note_off_c, 9, 56, 64
8, 79956, Note_on_c, 9, 53, 81
8, 79957, Note_off_c, 9, 53, 64
8, 80035, Note_on_c, 9, 53, 81
8, 80038, Note_off_c, 9, 53, 64
8, 80114, Note_on_c, 9, 56, 65
8, 80114, Note_on_c, 9, 53, 81
8, 80120, Note_off_c, 9, 56, 64
8, 80120, Note_off_c, 9, 53, 64
8, 80197, Note_on_c, 9, 35, 69
8, 80197, Note_on_c, 9, 53, 81
8, 80199, Note_off_c, 9, 35, 64
8, 80199, Note_off_c, 9, 53, 64
8, 80278, Note_on_c, 9, 35, 69
8, 80278, Note_on_c, 9, 56, 65
8, 80280, Note_on_c, 9, 53, 81
8, 80281, Note_off_c, 9, 35, 64
8, 80281, Note_off_c, 9, 56, 64
8, 80281, Note_off_c, 9, 53, 64
8, 80359, Note_on_c, 9, 53, 81
8, 80362, Note_off_c, 9, 53, 64
8, 80440, Note_on_c, 9, 56, 65
8, 80440, Note_on_c, 9, 53, 81
8, 80445, Note_off_c, 9, 56, 64
8, 80445, Note_off_c, 9, 53, 64
8, 80521, Note_on_c, 9, 53, 81
8, 80525, Note_off_c, 9, 53, 64
8, 80602, Note_on_c, 9, 35, 69
8, 80602, Note_on_c, 9, 56, 65
8, 80604, Note_on_c, 9, 53, 81
8, 80606, Note_off_c, 9, 35, 64
8, 80606, Note_off_c, 9, 56, 64
8, 80606, Note_off_c, 9, 53, 64
8, 80683, Note_on_c, 9, 35, 69
8, 80683, Note_on_c, 9, 53, 81
8, 80684, Note_off_c, 9, 35, 64
8, 80684, Note_off_c, 9, 53, 64
8, 80765, Note_on_c, 9, 56, 65
8, 80765, Note_on_c, 9, 53, 81
8, 80766, Note_off_c, 9, 56, 64
8, 80766, Note_off_c, 9, 53, 64
8, 80846, Note_on_c, 9, 35, 69
8, 80846, Note_on_c, 9, 53, 81
8, 80849, Note_off_c, 9, 35, 64
8, 80849, Note_off_c, 9, 53, 64
8, 80926, Note_on_c, 9, 56, 65
8, 80926, Note_on_c, 9, 53, 81
8, 80930, Note_off_c, 9, 56, 64
8, 80930, Note_off_c, 9, 53, 64
8, 81008, Note_on_c, 9, 35, 69
8, 81008, Note_on_c, 9, 53, 81
8, 81011, Note_off_c, 9, 35, 64
8, 81011, Note_off_c, 9, 53, 64
8, 81091, Note_on_c, 9, 56, 65
8, 81091, Note_on_c, 9, 53, 81
8, 81092, Note_off_c, 9, 56, 64
8, 81092, Note_off_c, 9, 53, 64
8, 81170, Note_on_c, 9, 35, 69
8, 81170, Note_on_c, 9, 53, 81
8, 81173, Note_off_c, 9, 35, 64
8, 81173, Note_off_c, 9, 53, 64
8, 81251, Note_on_c, 9, 35, 69
8, 81251, Note_on_c, 9, 56, 65
8, 81253, Note_on_c, 9, 53, 81
8, 81254, Note_off_c, 9, 35, 64
8, 81254, Note_off_c, 9, 56, 64
8, 81254, Note_off_c, 9, 53, 64
8, 81333, Note_on_c, 9, 53, 81
8, 81335, Note_off_c, 9, 53, 64
8, 81414, Note_on_c, 9, 56, 65
8, 81414, Note_on_c, 9, 53, 81
8, 81419, Note_off_c, 9, 56, 64
8, 81419, Note_off_c, 9, 53, 64
8, 81495, Note_on_c, 9, 35, 69
8, 81495, Note_on_c, 9, 53, 81
8, 81496, Note_off_c, 9, 35, 64
8, 81496, Note_off_c, 9, 53, 64
8, 81576, Note_on_c, 9, 35, 69
8, 81576, Note_on_c, 9, 56, 65
8, 81578, Note_on_c, 9, 53, 81
8, 81580, Note_off_c, 9, 35, 64
8, 81580, Note_off_c, 9, 56, 64
8, 81580, Note_off_c, 9, 53, 64
8, 81657, Note_on_c, 9, 53, 81
8, 81660, Note_off_c, 9, 53, 64
8, 81740, Note_on_c, 9, 56, 65
8, 81740, Note_on_c, 9, 53, 81
8, 81742, Note_off_c, 9, 56, 64
8, 81742, Note_off_c, 9, 53, 64
8, 81819, Note_on_c, 9, 53, 81
8, 81822, Note_off_c, 9, 53, 64
8, 81902, Note_on_c, 9, 35, 69
8, 81902, Note_on_c, 9, 56, 65
8, 81904, Note_on_c, 9, 53, 81
8, 81905, Note_off_c, 9, 35, 64
8, 81905, Note_off_c, 9, 56, 64
8, 81905, Note_off_c, 9, 53, 64
8, 81982, Note_on_c, 9, 35, 69
8, 81982, Note_on_c, 9, 53, 81
8, 81983, Note_off_c, 9, 35, 64
8, 81983, Note_off_c, 9, 53, 64
8, 82062, Note_on_c, 9, 56, 65
8, 82062, Note_on_c, 9, 53, 81
8, 82063, Note_off_c, 9, 56, 64
8, 82063, Note_off_c, 9, 53, 64
8, 82144, Note_on_c, 9, 35, 69
8, 82144, Note_on_c, 9, 53, 81
8, 82147, Note_off_c, 9, 35, 64
8, 82147, Note_off_c, 9, 53, 64
8, 82224, Note_on_c, 9, 56, 65
8, 82224, Note_on_c, 9, 53, 81
8, 82227, Note_on_c, 9, 49, 61
8, 82228, Note_off_c, 9, 56, 64
8, 82228, Note_off_c, 9, 49, 64
8, 82230, Note_off_c, 9, 53, 64
8, 82306, Note_on_c, 9, 35, 69
8, 82306, Note_on_c, 9, 53, 81
8, 82309, Note_off_c, 9, 35, 64
8, 82309, Note_off_c, 9, 53, 64
8, 82388, Note_on_c, 9, 56, 65
8, 82389, Note_on_c, 9, 53, 81
8, 82390, Note_off_c, 9, 56, 64
8, 82390, Note_off_c, 9, 53, 64
8, 82468, Note_on_c, 9, 35, 69
8, 82468, Note_on_c, 9, 53, 81
8, 82472, Note_off_c, 9, 35, 64
8, 82472, Note_off_c, 9, 53, 64
8, 82550, Note_on_c, 9, 35, 69
8, 82550, Note_on_c, 9, 56, 65
8, 82551, Note_on_c, 9, 53, 81
8, 82553, Note_off_c, 9, 35, 64
8, 82553, Note_off_c, 9, 56, 64
8, 82553, Note_off_c, 9, 53, 64
8, 82631, Note_on_c, 9, 53, 81
8, 82634, Note_off_c, 9, 53, 64
8, 82711, Note_on_c, 9, 56, 65
8, 82711, Note_on_c, 9, 53, 81
8, 82712, Note_off_c, 9, 56, 64
8, 82712, Note_off_c, 9, 53, 64
8, 82793, Note_on_c, 9, 35, 69
8, 82793, Note_on_c, 9, 53, 81
8, 82796, Note_off_c, 9, 35, 64
8, 82796, Note_off_c, 9, 53, 64
8, 82875, Note_on_c, 9, 35, 69
8, 82875, Note_on_c, 9, 56, 65
8, 82876, Note_on_c, 9, 53, 81
8, 82877, Note_off_c, 9, 35, 64
8, 82877, Note_off_c, 9, 56, 64
8, 82877, Note_off_c, 9, 53, 64
8, 82955, Note_on_c, 9, 53, 81
8, 82959, Note_off_c, 9, 53, 64
8, 83037, Note_on_c, 9, 56, 65
8, 83038, Note_off_c, 9, 56, 64
8, 83038, Note_on_c, 9, 53, 81
8, 83039, Note_off_c, 9, 53, 64
8, 83117, Note_on_c, 9, 53, 81
8, 83121, Note_off_c, 9, 53, 64
8, 83198, Note_on_c, 9, 35, 69
8, 83198, Note_on_c, 9, 56, 65
8, 83200, Note_off_c, 9, 35, 64
8, 83200, Note_off_c, 9, 56, 64
8, 83200, Note_on_c, 9, 53, 81
8, 83201, Note_off_c, 9, 53, 64
8, 83280, Note_on_c, 9, 35, 69
8, 83280, Note_on_c, 9, 53, 81
8, 83281, Note_off_c, 9, 35, 64
8, 83281, Note_off_c, 9, 53, 64
8, 83361, Note_on_c, 9, 56, 65
8, 83361, Note_on_c, 9, 53, 81
8, 83362, Note_off_c, 9, 56, 64
8, 83362, Note_off_c, 9, 53, 64
8, 83442, Note_on_c, 9, 35, 69
8, 83442, Note_on_c, 9, 53, 81
8, 83445, Note_off_c, 9, 35, 64
8, 83445, Note_off_c, 9, 53, 64
8, 83523, Note_on_c, 9, 56, 65
8, 83524, Note_on_c, 9, 53, 81
8, 83526, Note_off_c, 9, 56, 64
8, 83526, Note_off_c, 9, 53, 64
8, 83604, Note_on_c, 9, 35, 69
8, 83604, Note_on_c, 9, 53, 81
8, 83607, Note_off_c, 9, 35, 64
8, 83607, Note_off_c, 9, 53, 64
8, 83686, Note_on_c, 9, 56, 65
8, 83687, Note_on_c, 9, 53, 81
8, 83689, Note_off_c, 9, 56, 64
8, 83689, Note_off_c, 9, 53, 64
8, 83766, Note_on_c, 9, 35, 69
8, 83766, Note_on_c, 9, 53, 81
8, 83770, Note_off_c, 9, 35, 64
8, 83770, Note_off_c, 9, 53, 64
8, 83848, Note_on_c, 9, 35, 69
8, 83848, Note_on_c, 9, 56, 65
8, 83849, Note_on_c, 9, 53, 81
8, 83851, Note_off_c, 9, 35, 64
8, 83851, Note_off_c, 9, 56, 64
8, 83851, Note_off_c, 9, 53, 64
8, 83929, Note_on_c, 9, 53, 81
8, 83932, Note_off_c, 9, 53, 64
8, 84010, Note_on_c, 9, 56, 65
8, 84010, Note_on_c, 9, 53, 81
8, 84013, Note_off_c, 9, 56, 64
8, 84013, Note_off_c, 9, 53, 64
8, 84091, Note_on_c, 9, 35, 69
8, 84091, Note_on_c, 9, 53, 81
8, 84092, Note_off_c, 9, 35, 64
8, 84092, Note_off_c, 9, 53, 64
8, 84173, Note_on_c, 9, 35, 69
8, 84173, Note_on_c, 9, 56, 65
8, 84175, Note_off_c, 9, 35, 64
8, 84175, Note_off_c, 9, 56, 64
8, 84175, Note_on_c, 9, 53, 81
8, 84176, Note_off_c, 9, 53, 64
8, 84253, Note_on_c, 9, 53, 81
8, 84256, Note_off_c, 9, 53, 64
8, 84334, Note_on_c, 9, 56, 65
8, 84336, Note_on_c, 9, 53, 81
8, 84338, Note_off_c, 9, 56, 64
8, 84338, Note_off_c, 9, 53, 64
8, 84415, Note_on_c, 9, 53, 81
8, 84419, Note_off_c, 9, 53, 64
8, 84498, Note_on_c, 9, 35, 69
8, 84498, Note_on_c, 9, 56, 65
8, 84499, Note_on_c, 9, 53, 81
8, 84500, Note_off_c, 9, 35, 64
8, 84500, Note_off_c, 9, 56, 64
8, 84500, Note_off_c, 9, 53, 64
8, 84578, Note_on_c, 9, 35, 69
8, 84578, Note_on_c, 9, 53, 81
8, 84581, Note_off_c, 9, 35, 64
8, 84581, Note_off_c, 9, 53, 64
8, 84660, Note_on_c, 9, 56, 65
8, 84660, Note_on_c, 9, 53, 81
8, 84664, Note_off_c, 9, 53, 64
8, 84665, Note_off_c, 9, 56, 64
8, 84741, Note_on_c, 9, 35, 69
8, 84741, Note_on_c, 9, 53, 81
8, 84745, Note_off_c, 9, 35, 64
8, 84745, Note_off_c, 9, 53, 64
8, 84823, Note_on_c, 9, 56, 65
8, 84823, Note_on_c, 9, 53, 81
8, 84825, Note_off_c, 9, 56, 64
8, 84825, Note_off_c, 9, 53, 64
8, 84902, Note_on_c, 9, 35, 69
8, 84902, Note_on_c, 9, 53, 81
8, 84905, Note_off_c, 9, 35, 64
8, 84905, Note_off_c, 9, 53, 64
8, 84985, Note_on_c, 9, 56, 65
8, 84985, Note_on_c, 9, 53, 81
8, 84988, Note_off_c, 9, 56, 64
8, 84988, Note_off_c, 9, 53, 64
8, 85067, Note_on_c, 9, 35, 69
8, 85067, Note_on_c, 9, 53, 81
8, 85068, Note_off_c, 9, 35, 64
8, 85068, Note_off_c, 9, 53, 64
8, 85146, Note_on_c, 9, 35, 69
8, 85146, Note_on_c, 9, 56, 65
8, 85148, Note_on_c, 9, 53, 81
8, 85149, Note_off_c, 9, 35, 64
8, 85150, Note_off_c, 9, 56, 64
8, 85150, Note_off_c, 9, 53, 64
8, 85227, Note_on_c, 9, 53, 81
8, 85230, Note_off_c, 9, 53, 64
8, 85308, Note_on_c, 9, 56, 65
8, 85308, Note_on_c, 9, 53, 81
8, 85309, Note_off_c, 9, 56, 64
8, 85309, Note_off_c, 9, 53, 64
8, 85389, Note_on_c, 9, 35, 69
8, 85389, Note_on_c, 9, 53, 81
8, 85394, Note_off_c, 9, 35, 64
8, 85394, Note_off_c, 9, 53, 64
8, 85470, Note_on_c, 9, 35, 69
8, 85470, Note_on_c, 9, 56, 65
8, 85470, Note_on_c, 9, 53, 81
8, 85473, Note_off_c, 9, 35, 64
8, 85473, Note_off_c, 9, 56, 64
8, 85473, Note_off_c, 9, 53, 64
8, 85551, Note_on_c, 9, 53, 81
8, 85555, Note_off_c, 9, 53, 64
8, 85633, Note_on_c, 9, 56, 65
8, 85635, Note_on_c, 9, 53, 81
8, 85636, Note_off_c, 9, 56, 64
8, 85636, Note_off_c, 9, 53, 64
8, 85714, Note_on_c, 9, 53, 81
8, 85717, Note_off_c, 9, 53, 64
8, 85796, Note_on_c, 9, 35, 69
8, 85796, Note_on_c, 9, 56, 65
8, 85798, Note_on_c, 9, 53, 81
8, 85799, Note_off_c, 9, 35, 64
8, 85799, Note_off_c, 9, 56, 64
8, 85799, Note_off_c, 9, 53, 64
8, 85876, Note_on_c, 9, 35, 69
8, 85876, Note_on_c, 9, 53, 81
8, 85877, Note_off_c, 9, 35, 64
8, 85877, Note_off_c, 9, 53, 64
8, 85958, Note_on_c, 9, 56, 65
8, 85958, Note_on_c, 9, 53, 81
8, 85961, Note_off_c, 9, 56, 64
8, 85961, Note_off_c, 9, 53, 64
8, 86038, Note_on_c, 9, 35, 69
8, 86038, Note_on_c, 9, 53, 81
8, 86040, Note_off_c, 9, 35, 64
8, 86040, Note_off_c, 9, 53, 64
8, 86121, Note_on_c, 9, 56, 65
8, 86121, Note_on_c, 9, 53, 81
8, 86124, Note_off_c, 9, 56, 64
8, 86124, Note_off_c, 9, 53, 64
8, 86201, Note_on_c, 9, 35, 69
8, 86201, Note_on_c, 9, 53, 81
8, 86204, Note_off_c, 9, 35, 64
8, 86204, Note_off_c, 9, 53, 64
8, 86283, Note_on_c, 9, 56, 65
8, 86284, Note_on_c, 9, 53, 81
8, 86286, Note_off_c, 9, 56, 64
8, 86286, Note_off_c, 9, 53, 64
8, 86362, Note_on_c, 9, 35, 69
8, 86364, Note_on_c, 9, 53, 81
8, 86367, Note_off_c, 9, 35, 64
8, 86368, Note_off_c, 9, 53, 64
8, 86445, Note_on_c, 9, 35, 69
8, 86445, Note_on_c, 9, 56, 65
8, 86446, Note_on_c, 9, 53, 81
8, 86448, Note_off_c, 9, 35, 64
8, 86448, Note_off_c, 9, 56, 64
8, 86448, Note_off_c, 9, 53, 64
8, 86525, Note_on_c, 9, 53, 81
8, 86528, Note_off_c, 9, 53, 64
8, 86606, Note_on_c, 9, 56, 65
8, 86606, Note_on_c, 9, 53, 81
8, 86607, Note_off_c, 9, 56, 64
8, 86607, Note_off_c, 9, 53, 64
8, 86687, Note_on_c, 9, 35, 69
8, 86687, Note_on_c, 9, 53, 81
8, 86690, Note_off_c, 9, 35, 64
8, 86690, Note_off_c, 9, 53, 64
8, 86770, Note_on_c, 9, 35, 69
8, 86770, Note_on_c, 9, 56, 65
8, 86771, Note_on_c, 9, 53, 81
8, 86773, Note_off_c, 9, 35, 64
8, 86773, Note_off_c, 9, 56, 64
8, 86773, Note_off_c, 9, 53, 64
8, 86849, Note_on_c, 9, 53, 81
8, 86852, Note_off_c, 9, 53, 64
8, 86931, Note_on_c, 9, 56, 65
8, 86932, Note_on_c, 9, 53, 81
8, 86934, Note_off_c, 9, 56, 64
8, 86934, Note_off_c, 9, 53, 64
8, 87012, Note_on_c, 9, 53, 81
8, 87015, Note_off_c, 9, 53, 64
8, 87093, Note_on_c, 9, 35, 69
8, 87093, Note_on_c, 9, 56, 65
8, 87095, Note_on_c, 9, 53, 81
8, 87096, Note_off_c, 9, 35, 64
8, 87096, Note_off_c, 9, 56, 64
8, 87096, Note_off_c, 9, 53, 64
8, 87174, Note_on_c, 9, 35, 69
8, 87174, Note_on_c, 9, 53, 81
8, 87175, Note_off_c, 9, 35, 64
8, 87175, Note_off_c, 9, 53, 64
8, 87255, Note_on_c, 9, 56, 65
8, 87255, Note_on_c, 9, 53, 81
8, 87256, Note_off_c, 9, 56, 64
8, 87256, Note_off_c, 9, 53, 64
8, 87336, Note_on_c, 9, 35, 69
8, 87336, Note_on_c, 9, 53, 81
8, 87339, Note_off_c, 9, 35, 64
8, 87339, Note_off_c, 9, 53, 64
8, 87419, Note_on_c, 9, 56, 65
8, 87419, Note_on_c, 9, 53, 81
8, 87421, Note_off_c, 9, 56, 64
8, 87421, Note_off_c, 9, 53, 64
8, 87499, Note_on_c, 9, 35, 69
8, 87499, Note_on_c, 9, 53, 81
8, 87502, Note_off_c, 9, 35, 64
8, 87502, Note_off_c, 9, 53, 64
8, 87579, Note_on_c, 9, 56, 65
8, 87579, Note_on_c, 9, 53, 81
8, 87583, Note_off_c, 9, 56, 64
8, 87585, Note_off_c, 9, 53, 64
8, 87660, Note_on_c, 9, 35, 69
8, 87660, Note_on_c, 9, 53, 81
8, 87664, Note_off_c, 9, 35, 64
8, 87664, Note_off_c, 9, 53, 64
8, 87742, Note_on_c, 9, 35, 69
8, 87742, Note_on_c, 9, 56, 65
8, 87743, Note_on_c, 9, 53, 81
8, 87745, Note_off_c, 9, 35, 64
8, 87745, Note_off_c, 9, 56, 64
8, 87745, Note_off_c, 9, 53, 64
8, 87823, Note_on_c, 9, 53, 81
8, 87825, Note_off_c, 9, 53, 64
8, 87903, Note_on_c, 9, 56, 65
8, 87903, Note_on_c, 9, 53, 81
8, 87907, Note_off_c, 9, 56, 64
8, 87907, Note_off_c, 9, 53, 64
8, 87985, Note_on_c, 9, 35, 69
8, 87985, Note_on_c, 9, 53, 81
8, 87986, Note_off_c, 9, 35, 64
8, 87986, Note_off_c, 9, 53, 64
8, 88067, Note_on_c, 9, 35, 69
8, 88067, Note_on_c, 9, 56, 65
8, 88068, Note_on_c, 9, 53, 81
8, 88070, Note_off_c, 9, 35, 64
8, 88070, Note_off_c, 9, 56, 64
8, 88070, Note_off_c, 9, 53, 64
8, 88148, Note_on_c, 9, 53, 81
8, 88150, Note_off_c, 9, 53, 64
8, 88229, Note_on_c, 9, 56, 65
8, 88229, Note_on_c, 9, 53, 81
8, 88230, Note_off_c, 9, 56, 64
8, 88230, Note_off_c, 9, 53, 64
8, 88309, Note_on_c, 9, 53, 81
8, 88313, Note_off_c, 9, 53, 64
8, 88392, Note_on_c, 9, 35, 69
8, 88392, Note_on_c, 9, 56, 65
8, 88393, Note_on_c, 9, 53, 81
8, 88395, Note_off_c, 9, 35, 64
8, 88395, Note_off_c, 9, 56, 64
8, 88395, Note_off_c, 9, 53, 64
8, 88472, Note_on_c, 9, 35, 69
8, 88472, Note_on_c, 9, 53, 81
8, 88477, Note_off_c, 9, 35, 64
8, 88477, Note_off_c, 9, 53, 64
8, 88554, Note_on_c, 9, 56, 65
8, 88554, Note_on_c, 9, 53, 81
8, 88555, Note_off_c, 9, 56, 64
8, 88555, Note_off_c, 9, 53, 64
8, 88634, Note_on_c, 9, 35, 69
8, 88634, Note_on_c, 9, 53, 81
8, 88638, Note_off_c, 9, 35, 64
8, 88638, Note_off_c, 9, 53, 64
8, 88716, Note_on_c, 9, 56, 65
8, 88716, Note_on_c, 9, 53, 81
8, 88719, Note_off_c, 9, 56, 64
8, 88719, Note_off_c, 9, 53, 64
8, 88797, Note_on_c, 9, 35, 69
8, 88797, Note_on_c, 9, 53, 81
8, 88799, Note_off_c, 9, 35, 64
8, 88799, Note_off_c, 9, 53, 64
8, 88880, Note_on_c, 9, 56, 65
8, 88880, Note_on_c, 9, 53, 81
8, 88881, Note_off_c, 9, 56, 64
8, 88881, Note_off_c, 9, 53, 64
8, 88959, Note_on_c, 9, 35, 69
8, 88959, Note_on_c, 9, 53, 81
8, 88962, Note_off_c, 9, 35, 64
8, 88962, Note_off_c, 9, 53, 64
8, 89041, Note_on_c, 9, 35, 69
8, 89041, Note_on_c, 9, 56, 65
8, 89043, Note_on_c, 9, 53, 81
8, 89044, Note_off_c, 9, 35, 64
8, 89044, Note_off_c, 9, 56, 64
8, 89044, Note_off_c, 9, 53, 64
8, 89122, Note_on_c, 9, 53, 81
8, 89125, Note_off_c, 9, 53, 64
8, 89203, Note_on_c, 9, 56, 65
8, 89203, Note_on_c, 9, 53, 81
8, 89204, Note_off_c, 9, 56, 64
8, 89204, Note_off_c, 9, 53, 64
8, 89284, Note_on_c, 9, 35, 69
8, 89284, Note_on_c, 9, 53, 81
8, 89285, Note_off_c, 9, 35, 64
8, 89285, Note_off_c, 9, 53, 64
8, 89366, Note_on_c, 9, 35, 69
8, 89366, Note_on_c, 9, 56, 65
8, 89367, Note_on_c, 9, 53, 81
8, 89369, Note_off_c, 9, 35, 64
8, 89369, Note_off_c, 9, 56, 64
8, 89369, Note_off_c, 9, 53, 64
8, 89446, Note_on_c, 9, 53, 81
8, 89449, Note_off_c, 9, 53, 64
8, 89529, Note_on_c, 9, 56, 65
8, 89529, Note_on_c, 9, 53, 81
8, 89531, Note_off_c, 9, 56, 64
8, 89531, Note_off_c, 9, 53, 64
8, 89609, Note_on_c, 9, 53, 81
8, 89609, Note_on_c, 9, 46, 81
8, 89612, Note_off_c, 9, 53, 64
8, 89612, Note_off_c, 9, 46, 64
8, 89690, Note_on_c, 9, 35, 69
8, 89690, Note_on_c, 9, 56, 65
8, 89691, Note_on_c, 9, 53, 81
8, 89693, Note_off_c, 9, 35, 64
8, 89693, Note_off_c, 9, 56, 64
8, 89693, Note_off_c, 9, 53, 64
8, 89771, Note_on_c, 9, 35, 69
8, 89771, Note_on_c, 9, 53, 81
8, 89772, Note_off_c, 9, 35, 64
8, 89772, Note_off_c, 9, 53, 64
8, 89857, Note_on_c, 9, 56, 65
8, 89857, Note_on_c, 9, 53, 81
8, 89857, Note_on_c, 9, 46, 81
8, 89858, Note_off_c, 9, 56, 64
8, 89858, Note_off_c, 9, 53, 64
8, 89858, Note_off_c, 9, 46, 64
8, 89932, Note_on_c, 9, 35, 69
8, 89932, Note_on_c, 9, 53, 81
8, 89936, Note_off_c, 9, 35, 64
8, 89936, Note_off_c, 9, 53, 64
8, 90015, Note_on_c, 9, 56, 65
8, 90015, Note_on_c, 9, 53, 81
8, 90018, Note_off_c, 9, 56, 64
8, 90018, Note_off_c, 9, 53, 64
8, 90094, Note_on_c, 9, 35, 69
8, 90094, Note_on_c, 9, 53, 81
8, 90098, Note_off_c, 9, 35, 64
8, 90098, Note_off_c, 9, 53, 64
8, 90176, Note_on_c, 9, 56, 65
8, 90176, Note_on_c, 9, 53, 81
8, 90180, Note_off_c, 9, 56, 64
8, 90180, Note_off_c, 9, 53, 64
8, 90257, Note_on_c, 9, 35, 69
8, 90257, Note_on_c, 9, 53, 81
8, 90258, Note_off_c, 9, 35, 64
8, 90258, Note_off_c, 9, 53, 64
8, 90339, Note_on_c, 9, 35, 69
8, 90341, Note_on_c, 9, 56, 65
8, 90341, Note_on_c, 9, 53, 81
8, 90343, Note_off_c, 9, 35, 64
8, 90343, Note_off_c, 9, 56, 64
8, 90343, Note_off_c, 9, 53, 64
8, 90420, Note_on_c, 9, 53, 81
8, 90423, Note_off_c, 9, 53, 64
8, 90501, Note_on_c, 9, 56, 65
8, 90503, Note_on_c, 9, 53, 81
8, 90504, Note_off_c, 9, 56, 64
8, 90504, Note_off_c, 9, 53, 64
8, 90581, Note_on_c, 9, 35, 69
8, 90581, Note_on_c, 9, 53, 81
8, 90582, Note_off_c, 9, 35, 64
8, 90582, Note_off_c, 9, 53, 64
8, 90663, Note_on_c, 9, 35, 69
8, 90663, Note_on_c, 9, 56, 65
8, 90663, Note_on_c, 9, 53, 81
8, 90666, Note_off_c, 9, 35, 64
8, 90666, Note_off_c, 9, 56, 64
8, 90666, Note_off_c, 9, 53, 64
8, 90743, Note_on_c, 9, 53, 81
8, 90746, Note_off_c, 9, 53, 64
8, 90825, Note_on_c, 9, 56, 65
8, 90825, Note_on_c, 9, 53, 81
8, 90829, Note_off_c, 9, 56, 64
8, 90829, Note_off_c, 9, 53, 64
8, 90906, Note_on_c, 9, 53, 81
8, 90910, Note_off_c, 9, 53, 64
8, 90988, Note_on_c, 9, 35, 69
8, 90988, Note_on_c, 9, 56, 65
8, 90988, Note_on_c, 9, 53, 81
8, 90990, Note_off_c, 9, 35, 64
8, 90990, Note_off_c, 9, 56, 64
8, 90990, Note_off_c, 9, 53, 64
8, 91068, Note_on_c, 9, 35, 69
8, 91068, Note_on_c, 9, 53, 81
8, 91070, Note_off_c, 9, 35, 64
8, 91070, Note_off_c, 9, 53, 64
8, 91150, Note_on_c, 9, 56, 65
8, 91150, Note_on_c, 9, 53, 81
8, 91152, Note_off_c, 9, 56, 64
8, 91152, Note_off_c, 9, 53, 64
8, 91231, Note_on_c, 9, 35, 69
8, 91231, Note_on_c, 9, 53, 81
8, 91235, Note_off_c, 9, 35, 64
8, 91235, Note_off_c, 9, 53, 64
8, 91313, Note_on_c, 9, 56, 65
8, 91313, Note_on_c, 9, 53, 81
8, 91316, Note_off_c, 9, 56, 64
8, 91316, Note_off_c, 9, 53, 64
8, 91394, Note_on_c, 9, 35, 69
8, 91394, Note_on_c, 9, 53, 81
8, 91396, Note_off_c, 9, 35, 64
8, 91396, Note_off_c, 9, 53, 64
8, 91475, Note_on_c, 9, 56, 65
8, 91475, Note_on_c, 9, 53, 81
8, 91478, Note_off_c, 9, 56, 64
8, 91478, Note_off_c, 9, 53, 64
8, 91556, Note_on_c, 9, 35, 69
8, 91556, Note_on_c, 9, 53, 81
8, 91558, Note_off_c, 9, 35, 64
8, 91558, Note_off_c, 9, 53, 64
8, 91637, Note_on_c, 9, 35, 69
8, 91637, Note_on_c, 9, 56, 65
8, 91639, Note_on_c, 9, 53, 81
8, 91641, Note_off_c, 9, 35, 64
8, 91641, Note_off_c, 9, 56, 64
8, 91641, Note_off_c, 9, 53, 64
8, 91718, Note_on_c, 9, 53, 81
8, 91720, Note_off_c, 9, 53, 64
8, 91799, Note_on_c, 9, 56, 65
8, 91799, Note_on_c, 9, 53, 81
8, 91800, Note_off_c, 9, 56, 64
8, 91800, Note_off_c, 9, 53, 64
8, 91881, Note_on_c, 9, 35, 69
8, 91881, Note_on_c, 9, 53, 81
8, 91882, Note_off_c, 9, 35, 64
8, 91882, Note_off_c, 9, 53, 64
8, 91962, Note_on_c, 9, 35, 69
8, 91962, Note_on_c, 9, 56, 65
8, 91964, Note_off_c, 9, 35, 64
8, 91964, Note_off_c, 9, 56, 64
8, 91964, Note_on_c, 9, 53, 81
8, 91965, Note_off_c, 9, 53, 64
8, 92042, Note_on_c, 9, 53, 81
8, 92045, Note_off_c, 9, 53, 64
8, 92125, Note_on_c, 9, 56, 65
8, 92125, Note_on_c, 9, 53, 81
8, 92127, Note_off_c, 9, 56, 64
8, 92127, Note_off_c, 9, 53, 64
8, 92204, Note_on_c, 9, 53, 81
8, 92209, Note_off_c, 9, 53, 64
8, 92286, Note_on_c, 9, 35, 69
8, 92286, Note_on_c, 9, 56, 65
8, 92286, Note_on_c, 9, 53, 81
8, 92290, Note_off_c, 9, 56, 64
8, 92290, Note_off_c, 9, 53, 64
8, 92291, Note_off_c, 9, 35, 64
8, 92367, Note_on_c, 9, 35, 69
8, 92367, Note_on_c, 9, 53, 81
8, 92371, Note_off_c, 9, 35, 64
8, 92371, Note_off_c, 9, 53, 64
8, 92448, Note_on_c, 9, 56, 65
8, 92448, Note_on_c, 9, 53, 81
8, 92449, Note_off_c, 9, 56, 64
8, 92449, Note_off_c, 9, 53, 64
8, 92529, Note_on_c, 9, 35, 69
8, 92529, Note_on_c, 9, 53, 81
8, 92531, Note_off_c, 9, 35, 64
8, 92531, Note_off_c, 9, 53, 64
8, 92611, Note_on_c, 9, 56, 65
8, 92611, Note_on_c, 9, 53, 81
8, 92613, Note_on_c, 9, 49, 61
8, 92614, Note_off_c, 9, 56, 64
8, 92614, Note_off_c, 9, 53, 64
8, 92614, Note_off_c, 9, 49, 64
8, 92692, Note_on_c, 9, 35, 69
8, 92692, Note_on_c, 9, 53, 81
8, 92695, Note_off_c, 9, 35, 64
8, 92695, Note_off_c, 9, 53, 64
8, 92773, Note_on_c, 9, 56, 65
8, 92773, Note_on_c, 9, 53, 81
8, 92776, Note_off_c, 9, 56, 64
8, 92776, Note_off_c, 9, 53, 64
8, 92854, Note_on_c, 9, 35, 69
8, 92854, Note_on_c, 9, 53, 81
8, 92858, Note_off_c, 9, 35, 64
8, 92858, Note_off_c, 9, 53, 64
8, 92935, Note_on_c, 9, 35, 69
8, 92935, Note_on_c, 9, 56, 65
8, 92938, Note_off_c, 9, 35, 64
8, 92938, Note_off_c, 9, 56, 64
8, 92938, Note_on_c, 9, 53, 81
8, 92939, Note_off_c, 9, 53, 64
8, 93016, Note_on_c, 9, 53, 81
8, 93019, Note_off_c, 9, 53, 64
8, 93097, Note_on_c, 9, 56, 65
8, 93099, Note_on_c, 9, 53, 81
8, 93101, Note_off_c, 9, 56, 64
8, 93101, Note_off_c, 9, 53, 64
8, 93179, Note_on_c, 9, 35, 69
8, 93179, Note_on_c, 9, 53, 81
8, 93182, Note_off_c, 9, 35, 64
8, 93182, Note_off_c, 9, 53, 64
8, 93260, Note_on_c, 9, 35, 81
8, 93260, Note_on_c, 9, 42, 81
8, 93262, Note_off_c, 9, 35, 64
8, 93262, Note_off_c, 9, 42, 64
8, 93422, Note_on_c, 9, 42, 80
8, 93464, Note_off_c, 9, 42, 64
8, 93585, Note_on_c, 9, 42, 80
8, 93626, Note_off_c, 9, 42, 64
8, 93746, Note_on_c, 9, 42, 80
8, 93788, Note_off_c, 9, 42, 64
8, 93909, Note_on_c, 9, 42, 80
8, 93952, Note_off_c, 9, 42, 64
8, 94152, Note_on_c, 9, 50, 81
8, 94155, Note_off_c, 9, 50, 64
8, 94315, Note_on_c, 9, 47, 81
8, 94319, Note_off_c, 9, 47, 64
8, 94477, Note_on_c, 9, 43, 81
8, 94479, Note_off_c, 9, 43, 64
8, 94558, Note_on_c, 9, 43, 81
8, 94561, Note_off_c, 9, 43, 64
8, 94638, Note_on_c, 9, 50, 81
8, 94638, Note_on_c, 9, 47, 81
8, 94641, Note_off_c, 9, 50, 64
8, 94641, Note_off_c, 9, 47, 64
8, 94720, Note_on_c, 9, 50, 81
8, 94720, Note_on_c, 9, 47, 81
8, 94721, Note_off_c, 9, 50, 64
8, 94721, Note_off_c, 9, 47, 64
8, 94801, Note_on_c, 9, 35, 81
8, 94801, Note_on_c, 9, 46, 81
8, 94806, Note_off_c, 9, 35, 64
8, 94806, Note_off_c, 9, 46, 64
8, 94923, Note_on_c, 9, 35, 81
8, 94923, Note_on_c, 9, 46, 81
8, 94926, Note_off_c, 9, 35, 64
8, 94926, Note_off_c, 9, 46, 64
8, 95005, Note_on_c, 9, 35, 81
8, 95005, Note_on_c, 9, 46, 81
8, 95008, Note_off_c, 9, 35, 64
8, 95008, Note_off_c, 9, 46, 64
8, 95045, Note_on_c, 9, 35, 81
8, 95045, Note_on_c, 9, 46, 81
8, 95048, Note_off_c, 9, 35, 64
8, 95048, Note_off_c, 9, 46, 64
8, 95086, Note_on_c, 9, 35, 81
8, 95086, Note_on_c, 9, 46, 81
8, 95088, Note_off_c, 9, 35, 64
8, 95088, Note_off_c, 9, 46, 64
8, 95167, Note_on_c, 9, 35, 81
8, 95167, Note_on_c, 9, 46, 81
8, 95170, Note_off_c, 9, 35, 64
8, 95170, Note_off_c, 9, 46, 64
8, 95248, Note_on_c, 9, 35, 81
8, 95248, Note_on_c, 9, 46, 81
8, 95251, Note_off_c, 9, 35, 64
8, 95251, Note_off_c, 9, 46, 64
8, 95369, Note_on_c, 9, 35, 81
8, 95369, Note_on_c, 9, 46, 81
8, 95372, Note_off_c, 9, 35, 64
8, 95372, Note_off_c, 9, 46, 64
8, 95450, Note_on_c, 9, 35, 81
8, 95450, Note_on_c, 9, 46, 81
8, 95453, Note_off_c, 9, 35, 64
8, 95453, Note_off_c, 9, 46, 64
8, 95776, Note_on_c, 9, 35, 81
8, 95779, Note_off_c, 9, 35, 64
8, 95779, End_track
9, 0, Start_track
9, 0, MIDI_port, 0
9, 0, Title_t, "New Track           "
9, 0, Program_c, 14, 65
9, 96000, Program_c, 14, 99
9, 96000, End_track
10, 0, Start_track
10, 0, MIDI_port, 0
10, 0, Title_t, "New Track           "
10, 0, Program_c, 15, 99
10, 96000, Program_c, 15, 99
10, 96000, End_track
11, 0, Start_track
11, 0, MIDI_port, 0
11, 0, Title_t, "Split track         "
11, 0, Program_c, 9, 0
11, 0, Control_c, 9, 7, 116
11, 1915, Note_on_c, 9, 40, 81
11, 1919, Note_off_c, 9, 40, 64
11, 2240, Note_on_c, 9, 40, 81
11, 2243, Note_off_c, 9, 40, 64
11, 2564, Note_on_c, 9, 40, 81
11, 2568, Note_off_c, 9, 40, 64
11, 2889, Note_on_c, 9, 40, 81
11, 2892, Note_off_c, 9, 40, 64
11, 3213, Note_on_c, 9, 40, 81
11, 3217, Note_off_c, 9, 40, 64
11, 3537, Note_on_c, 9, 40, 81
11, 3541, Note_off_c, 9, 40, 64
11, 3863, Note_on_c, 9, 40, 81
11, 3866, Note_off_c, 9, 40, 64
11, 4187, Note_on_c, 9, 40, 81
11, 4190, Note_off_c, 9, 40, 64
11, 4227, Note_on_c, 9, 40, 81
11, 4230, Note_off_c, 9, 40, 64
11, 4514, Note_on_c, 9, 40, 81
11, 4515, Note_off_c, 9, 40, 64
11, 4836, Note_on_c, 9, 40, 81
11, 4839, Note_off_c, 9, 40, 64
11, 5162, Note_on_c, 9, 40, 81
11, 5164, Note_off_c, 9, 40, 64
11, 5485, Note_on_c, 9, 40, 81
11, 5488, Note_off_c, 9, 40, 64
11, 5812, Note_on_c, 9, 40, 81
11, 5813, Note_off_c, 9, 40, 64
11, 6134, Note_on_c, 9, 40, 81
11, 6137, Note_off_c, 9, 40, 64
11, 6462, Note_on_c, 9, 40, 81
11, 6463, Note_off_c, 9, 40, 64
11, 6783, Note_on_c, 9, 40, 81
11, 6786, Note_off_c, 9, 40, 64
11, 7110, Note_on_c, 9, 40, 81
11, 7112, Note_off_c, 9, 40, 64
11, 7432, Note_on_c, 9, 40, 81
11, 7436, Note_off_c, 9, 40, 64
11, 7760, Note_on_c, 9, 40, 81
11, 7761, Note_off_c, 9, 40, 64
11, 8082, Note_on_c, 9, 40, 81
11, 8085, Note_off_c, 9, 40, 64
11, 8408, Note_on_c, 9, 40, 81
11, 8411, Note_off_c, 9, 40, 64
11, 8731, Note_on_c, 9, 40, 81
11, 8734, Note_off_c, 9, 40, 64
11, 9057, Note_on_c, 9, 40, 81
11, 9059, Note_off_c, 9, 40, 64
11, 9380, Note_on_c, 9, 40, 81
11, 9381, Note_off_c, 9, 40, 64
11, 9703, Note_on_c, 9, 40, 81
11, 9707, Note_off_c, 9, 40, 64
11, 10029, Note_on_c, 9, 40, 81
11, 10030, Note_off_c, 9, 40, 64
11, 10353, Note_on_c, 9, 40, 81
11, 10356, Note_off_c, 9, 40, 64
11, 10677, Note_on_c, 9, 40, 81
11, 10678, Note_off_c, 9, 40, 64
11, 11001, Note_on_c, 9, 40, 81
11, 11005, Note_off_c, 9, 40, 64
11, 11326, Note_on_c, 9, 40, 81
11, 11329, Note_off_c, 9, 40, 64
11, 11651, Note_on_c, 9, 40, 81
11, 11654, Note_off_c, 9, 40, 64
11, 11976, Note_on_c, 9, 40, 81
11, 11978, Note_off_c, 9, 40, 64
11, 12300, Note_on_c, 9, 40, 81
11, 12303, Note_off_c, 9, 40, 64
11, 12624, Note_on_c, 9, 40, 81
11, 12628, Note_off_c, 9, 40, 64
11, 12949, Note_on_c, 9, 40, 81
11, 12952, Note_off_c, 9, 40, 64
11, 13273, Note_on_c, 9, 40, 81
11, 13274, Note_off_c, 9, 40, 64
11, 13597, Note_on_c, 9, 40, 81
11, 13601, Note_off_c, 9, 40, 64
11, 13922, Note_on_c, 9, 40, 81
11, 13923, Note_off_c, 9, 40, 64
11, 14247, Note_on_c, 9, 40, 81
11, 14250, Note_off_c, 9, 40, 64
11, 14571, Note_on_c, 9, 40, 81
11, 14574, Note_off_c, 9, 40, 64
11, 14896, Note_on_c, 9, 40, 81
11, 14899, Note_off_c, 9, 40, 64
11, 15220, Note_on_c, 9, 40, 81
11, 15225, Note_off_c, 9, 40, 64
11, 15545, Note_on_c, 9, 40, 81
11, 15546, Note_off_c, 9, 40, 64
11, 15869, Note_on_c, 9, 40, 81
11, 15870, Note_off_c, 9, 40, 64
11, 16193, Note_on_c, 9, 40, 81
11, 16196, Note_off_c, 9, 40, 64
11, 16518, Note_on_c, 9, 40, 81
11, 16519, Note_off_c, 9, 40, 64
11, 16842, Note_on_c, 9, 40, 81
11, 16845, Note_off_c, 9, 40, 64
11, 17167, Note_on_c, 9, 40, 81
11, 17172, Note_off_c, 9, 40, 64
11, 17491, Note_on_c, 9, 40, 81
11, 17495, Note_off_c, 9, 40, 64
11, 17815, Note_on_c, 9, 40, 81
11, 17818, Note_off_c, 9, 40, 64
11, 18140, Note_on_c, 9, 40, 81
11, 18143, Note_off_c, 9, 40, 64
11, 18464, Note_on_c, 9, 40, 81
11, 18467, Note_off_c, 9, 40, 64
11, 18788, Note_on_c, 9, 40, 81
11, 18793, Note_off_c, 9, 40, 64
11, 19114, Note_on_c, 9, 40, 81
11, 19116, Note_off_c, 9, 40, 64
11, 19438, Note_on_c, 9, 40, 81
11, 19440, Note_off_c, 9, 40, 64
11, 19761, Note_on_c, 9, 40, 81
11, 19765, Note_off_c, 9, 40, 64
11, 20086, Note_on_c, 9, 40, 81
11, 20091, Note_off_c, 9, 40, 64
11, 20411, Note_on_c, 9, 40, 81
11, 20414, Note_off_c, 9, 40, 64
11, 20737, Note_on_c, 9, 40, 81
11, 20738, Note_off_c, 9, 40, 64
11, 21061, Note_on_c, 9, 40, 81
11, 21064, Note_off_c, 9, 40, 64
11, 21385, Note_on_c, 9, 40, 81
11, 21389, Note_off_c, 9, 40, 64
11, 21710, Note_on_c, 9, 40, 81
11, 21713, Note_off_c, 9, 40, 64
11, 22035, Note_on_c, 9, 40, 81
11, 22039, Note_off_c, 9, 40, 64
11, 22358, Note_on_c, 9, 40, 81
11, 22359, Note_off_c, 9, 40, 64
11, 22399, Note_on_c, 9, 40, 81
11, 22402, Note_off_c, 9, 40, 64
11, 22683, Note_on_c, 9, 40, 81
11, 22687, Note_off_c, 9, 40, 64
11, 23007, Note_on_c, 9, 40, 81
11, 23011, Note_off_c, 9, 40, 64
11, 23330, Note_on_c, 9, 40, 81
11, 23334, Note_off_c, 9, 40, 64
11, 23656, Note_on_c, 9, 40, 81
11, 23657, Note_off_c, 9, 40, 64
11, 23981, Note_on_c, 9, 40, 81
11, 23985, Note_off_c, 9, 40, 64
11, 24306, Note_on_c, 9, 40, 81
11, 24310, Note_off_c, 9, 40, 64
11, 24627, Note_on_c, 9, 40, 81
11, 24631, Note_off_c, 9, 40, 64
11, 24954, Note_on_c, 9, 40, 81
11, 24958, Note_off_c, 9, 40, 64
11, 25279, Note_on_c, 9, 40, 81
11, 25282, Note_off_c, 9, 40, 64
11, 25604, Note_on_c, 9, 40, 81
11, 25607, Note_off_c, 9, 40, 64
11, 25927, Note_on_c, 9, 40, 81
11, 25930, Note_off_c, 9, 40, 64
11, 26252, Note_on_c, 9, 40, 81
11, 26253, Note_off_c, 9, 40, 64
11, 26577, Note_on_c, 9, 40, 81
11, 26581, Note_off_c, 9, 40, 64
11, 26901, Note_on_c, 9, 40, 81
11, 26902, Note_off_c, 9, 40, 64
11, 27224, Note_on_c, 9, 40, 81
11, 27228, Note_off_c, 9, 40, 64
11, 27550, Note_on_c, 9, 40, 81
11, 27551, Note_off_c, 9, 40, 64
11, 27874, Note_on_c, 9, 40, 81
11, 27879, Note_off_c, 9, 40, 64
11, 28199, Note_on_c, 9, 40, 81
11, 28202, Note_off_c, 9, 40, 64
11, 28523, Note_on_c, 9, 40, 81
11, 28527, Note_off_c, 9, 40, 64
11, 28847, Note_on_c, 9, 40, 81
11, 28852, Note_off_c, 9, 40, 64
11, 29172, Note_on_c, 9, 40, 81
11, 29176, Note_off_c, 9, 40, 64
11, 29496, Note_on_c, 9, 40, 81
11, 29497, Note_off_c, 9, 40, 64
11, 29742, Note_on_c, 9, 40, 81
11, 29743, Note_off_c, 9, 40, 64
11, 29821, Note_on_c, 9, 40, 81
11, 29826, Note_off_c, 9, 40, 64
11, 29902, Note_on_c, 9, 40, 81
11, 29906, Note_off_c, 9, 40, 64
11, 30145, Note_on_c, 9, 40, 81
11, 30151, Note_off_c, 9, 40, 64
11, 30470, Note_on_c, 9, 40, 81
11, 30474, Note_off_c, 9, 40, 64
11, 30794, Note_on_c, 9, 40, 81
11, 30797, Note_off_c, 9, 40, 64
11, 31118, Note_on_c, 9, 40, 81
11, 31119, Note_off_c, 9, 40, 64
11, 31444, Note_on_c, 9, 40, 81
11, 31447, Note_off_c, 9, 40, 64
11, 31768, Note_on_c, 9, 40, 81
11, 31772, Note_off_c, 9, 40, 64
11, 32092, Note_on_c, 9, 40, 81
11, 32095, Note_off_c, 9, 40, 64
11, 32413, Note_on_c, 9, 40, 81
11, 32414, Note_off_c, 9, 40, 64
11, 32737, Note_on_c, 9, 40, 81
11, 32740, Note_off_c, 9, 40, 64
11, 33065, Note_on_c, 9, 40, 81
11, 33070, Note_off_c, 9, 40, 64
11, 33390, Note_on_c, 9, 40, 81
11, 33393, Note_off_c, 9, 40, 64
11, 33715, Note_on_c, 9, 40, 81
11, 33719, Note_off_c, 9, 40, 64
11, 34040, Note_on_c, 9, 40, 81
11, 34043, Note_off_c, 9, 40, 64
11, 34365, Note_on_c, 9, 40, 81
11, 34366, Note_off_c, 9, 40, 64
11, 34688, Note_on_c, 9, 40, 81
11, 34691, Note_off_c, 9, 40, 64
11, 35013, Note_on_c, 9, 40, 81
11, 35016, Note_off_c, 9, 40, 64
11, 35337, Note_on_c, 9, 40, 81
11, 35338, Note_off_c, 9, 40, 64
11, 35662, Note_on_c, 9, 40, 81
11, 35665, Note_off_c, 9, 40, 64
11, 35986, Note_on_c, 9, 40, 81
11, 35992, Note_off_c, 9, 40, 64
11, 36311, Note_on_c, 9, 40, 81
11, 36314, Note_off_c, 9, 40, 64
11, 36635, Note_on_c, 9, 40, 81
11, 36639, Note_off_c, 9, 40, 64
11, 36960, Note_on_c, 9, 40, 81
11, 36963, Note_off_c, 9, 40, 64
11, 37285, Note_on_c, 9, 40, 81
11, 37286, Note_off_c, 9, 40, 64
11, 37608, Note_on_c, 9, 40, 81
11, 37612, Note_off_c, 9, 40, 64
11, 37933, Note_on_c, 9, 40, 81
11, 37934, Note_off_c, 9, 40, 64
11, 38258, Note_on_c, 9, 40, 81
11, 38261, Note_off_c, 9, 40, 64
11, 38582, Note_on_c, 9, 40, 81
11, 38583, Note_off_c, 9, 40, 64
11, 38907, Note_on_c, 9, 40, 81
11, 38910, Note_off_c, 9, 40, 64
11, 39232, Note_on_c, 9, 40, 81
11, 39233, Note_off_c, 9, 40, 64
11, 39555, Note_on_c, 9, 40, 81
11, 39558, Note_off_c, 9, 40, 64
11, 39880, Note_on_c, 9, 40, 81
11, 39884, Note_off_c, 9, 40, 64
11, 40205, Note_on_c, 9, 40, 81
11, 40208, Note_off_c, 9, 40, 64
11, 40528, Note_on_c, 9, 40, 81
11, 40529, Note_off_c, 9, 40, 64
11, 40854, Note_on_c, 9, 40, 81
11, 40859, Note_off_c, 9, 40, 64
11, 41177, Note_on_c, 9, 40, 81
11, 41181, Note_off_c, 9, 40, 64
11, 41503, Note_on_c, 9, 40, 81
11, 41507, Note_off_c, 9, 40, 64
11, 41827, Note_on_c, 9, 40, 81
11, 41828, Note_off_c, 9, 40, 64
11, 42151, Note_on_c, 9, 40, 81
11, 42155, Note_off_c, 9, 40, 64
11, 42476, Note_on_c, 9, 40, 81
11, 42482, Note_off_c, 9, 40, 64
11, 42801, Note_on_c, 9, 40, 81
11, 42804, Note_off_c, 9, 40, 64
11, 43003, Note_on_c, 9, 40, 81
11, 43006, Note_off_c, 9, 40, 64
11, 43044, Note_on_c, 9, 40, 81
11, 43045, Note_off_c, 9, 40, 64
11, 43125, Note_on_c, 9, 40, 81
11, 43129, Note_off_c, 9, 40, 64
11, 43206, Note_on_c, 9, 40, 81
11, 43210, Note_off_c, 9, 40, 64
11, 43246, Note_on_c, 9, 40, 81
11, 43250, Note_off_c, 9, 40, 64
11, 43449, Note_on_c, 9, 40, 81
11, 43454, Note_off_c, 9, 40, 64
11, 43774, Note_on_c, 9, 40, 81
11, 43777, Note_off_c, 9, 40, 64
11, 44099, Note_on_c, 9, 40, 81
11, 44103, Note_off_c, 9, 40, 64
11, 44423, Note_on_c, 9, 40, 81
11, 44426, Note_off_c, 9, 40, 64
11, 44747, Note_on_c, 9, 40, 81
11, 44752, Note_off_c, 9, 40, 64
11, 45072, Note_on_c, 9, 40, 81
11, 45075, Note_off_c, 9, 40, 64
11, 45397, Note_on_c, 9, 40, 81
11, 45401, Note_off_c, 9, 40, 64
11, 45721, Note_on_c, 9, 40, 81
11, 45724, Note_off_c, 9, 40, 64
11, 46045, Note_on_c, 9, 40, 81
11, 46051, Note_off_c, 9, 40, 64
11, 46370, Note_on_c, 9, 40, 81
11, 46373, Note_off_c, 9, 40, 64
11, 46695, Note_on_c, 9, 40, 81
11, 46698, Note_off_c, 9, 40, 64
11, 47018, Note_on_c, 9, 40, 81
11, 47021, Note_off_c, 9, 40, 64
11, 47343, Note_on_c, 9, 40, 81
11, 47345, Note_off_c, 9, 40, 64
11, 47668, Note_on_c, 9, 40, 81
11, 47671, Note_off_c, 9, 40, 64
11, 47992, Note_on_c, 9, 40, 81
11, 47995, Note_off_c, 9, 40, 64
11, 48074, Note_on_c, 9, 40, 81
11, 48077, Note_off_c, 9, 40, 64
11, 48317, Note_on_c, 9, 40, 81
11, 48318, Note_off_c, 9, 40, 64
11, 48641, Note_on_c, 9, 40, 81
11, 48644, Note_off_c, 9, 40, 64
11, 48965, Note_on_c, 9, 40, 81
11, 48969, Note_off_c, 9, 40, 64
11, 49290, Note_on_c, 9, 40, 81
11, 49293, Note_off_c, 9, 40, 64
11, 49615, Note_on_c, 9, 40, 81
11, 49617, Note_off_c, 9, 40, 64
11, 49939, Note_on_c, 9, 40, 81
11, 49943, Note_off_c, 9, 40, 64
11, 50263, Note_on_c, 9, 40, 81
11, 50264, Note_off_c, 9, 40, 64
11, 50588, Note_on_c, 9, 40, 81
11, 50591, Note_off_c, 9, 40, 64
11, 50913, Note_on_c, 9, 40, 81
11, 50914, Note_off_c, 9, 40, 64
11, 51239, Note_on_c, 9, 40, 81
11, 51241, Note_off_c, 9, 40, 64
11, 51561, Note_on_c, 9, 40, 81
11, 51562, Note_off_c, 9, 40, 64
11, 51886, Note_on_c, 9, 40, 81
11, 51889, Note_off_c, 9, 40, 64
11, 52210, Note_on_c, 9, 40, 81
11, 52211, Note_off_c, 9, 40, 64
11, 52535, Note_on_c, 9, 40, 81
11, 52538, Note_off_c, 9, 40, 64
11, 52859, Note_on_c, 9, 40, 81
11, 52860, Note_off_c, 9, 40, 64
11, 53184, Note_on_c, 9, 40, 81
11, 53187, Note_off_c, 9, 40, 64
11, 53508, Note_on_c, 9, 40, 81
11, 53509, Note_off_c, 9, 40, 64
11, 53833, Note_on_c, 9, 40, 81
11, 53837, Note_off_c, 9, 40, 64
11, 54158, Note_on_c, 9, 40, 81
11, 54161, Note_off_c, 9, 40, 64
11, 54483, Note_on_c, 9, 40, 81
11, 54484, Note_off_c, 9, 40, 64
11, 54807, Note_on_c, 9, 40, 81
11, 54808, Note_off_c, 9, 40, 64
11, 55132, Note_on_c, 9, 40, 81
11, 55135, Note_off_c, 9, 40, 64
11, 55455, Note_on_c, 9, 40, 81
11, 55456, Note_off_c, 9, 40, 64
11, 55780, Note_on_c, 9, 40, 81
11, 55783, Note_off_c, 9, 40, 64
11, 56024, Note_on_c, 9, 40, 81
11, 56027, Note_off_c, 9, 40, 64
11, 56104, Note_on_c, 9, 40, 81
11, 56108, Note_off_c, 9, 40, 64
11, 56430, Note_on_c, 9, 40, 81
11, 56431, Note_off_c, 9, 40, 64
11, 56753, Note_on_c, 9, 40, 81
11, 56756, Note_off_c, 9, 40, 64
11, 57078, Note_on_c, 9, 40, 81
11, 57082, Note_off_c, 9, 40, 64
11, 57402, Note_on_c, 9, 40, 81
11, 57406, Note_off_c, 9, 40, 64
11, 57727, Note_on_c, 9, 40, 81
11, 57728, Note_off_c, 9, 40, 64
11, 58051, Note_on_c, 9, 40, 81
11, 58054, Note_off_c, 9, 40, 64
11, 58375, Note_on_c, 9, 40, 81
11, 58380, Note_off_c, 9, 40, 64
11, 58699, Note_on_c, 9, 40, 81
11, 58702, Note_off_c, 9, 40, 64
11, 59024, Note_on_c, 9, 40, 81
11, 59028, Note_off_c, 9, 40, 64
11, 59346, Note_on_c, 9, 40, 81
11, 59347, Note_off_c, 9, 40, 64
11, 59672, Note_on_c, 9, 40, 81
11, 59673, Note_off_c, 9, 40, 64
11, 59997, Note_on_c, 9, 40, 81
11, 60001, Note_off_c, 9, 40, 64
11, 60322, Note_on_c, 9, 40, 81
11, 60326, Note_off_c, 9, 40, 64
11, 60647, Note_on_c, 9, 40, 81
11, 60650, Note_off_c, 9, 40, 64
11, 60974, Note_on_c, 9, 40, 81
11, 60978, Note_off_c, 9, 40, 64
11, 61295, Note_on_c, 9, 40, 81
11, 61296, Note_off_c, 9, 40, 64
11, 61620, Note_on_c, 9, 40, 81
11, 61624, Note_off_c, 9, 40, 64
11, 61944, Note_on_c, 9, 40, 81
11, 61950, Note_off_c, 9, 40, 64
11, 62268, Note_on_c, 9, 40, 81
11, 62271, Note_off_c, 9, 40, 64
11, 62593, Note_on_c, 9, 40, 81
11, 62594, Note_off_c, 9, 40, 64
11, 62918, Note_on_c, 9, 40, 81
11, 62921, Note_off_c, 9, 40, 64
11, 63242, Note_on_c, 9, 40, 81
11, 63243, Note_off_c, 9, 40, 64
11, 63566, Note_on_c, 9, 40, 81
11, 63569, Note_off_c, 9, 40, 64
11, 63891, Note_on_c, 9, 40, 81
11, 63896, Note_off_c, 9, 40, 64
11, 64216, Note_on_c, 9, 40, 81
11, 64219, Note_off_c, 9, 40, 64
11, 64541, Note_on_c, 9, 40, 81
11, 64545, Note_off_c, 9, 40, 64
11, 64865, Note_on_c, 9, 40, 81
11, 64868, Note_off_c, 9, 40, 64
11, 65190, Note_on_c, 9, 40, 81
11, 65191, Note_off_c, 9, 40, 64
11, 65513, Note_on_c, 9, 40, 81
11, 65518, Note_off_c, 9, 40, 64
11, 65838, Note_on_c, 9, 40, 81
11, 65840, Note_off_c, 9, 40, 64
11, 66163, Note_on_c, 9, 40, 81
11, 66167, Note_off_c, 9, 40, 64
11, 66487, Note_on_c, 9, 40, 81
11, 66488, Note_off_c, 9, 40, 64
11, 66812, Note_on_c, 9, 40, 81
11, 66814, Note_off_c, 9, 40, 64
11, 67135, Note_on_c, 9, 40, 81
11, 67139, Note_off_c, 9, 40, 64
11, 67461, Note_on_c, 9, 40, 81
11, 67465, Note_off_c, 9, 40, 64
11, 67784, Note_on_c, 9, 40, 81
11, 67788, Note_off_c, 9, 40, 64
11, 68109, Note_on_c, 9, 40, 81
11, 68113, Note_off_c, 9, 40, 64
11, 68434, Note_on_c, 9, 40, 81
11, 68439, Note_off_c, 9, 40, 64
11, 68679, Note_on_c, 9, 40, 81
11, 68680, Note_off_c, 9, 40, 64
11, 68758, Note_on_c, 9, 40, 81
11, 68762, Note_off_c, 9, 40, 64
11, 68839, Note_on_c, 9, 40, 81
11, 68842, Note_off_c, 9, 40, 64
11, 69082, Note_on_c, 9, 40, 81
11, 69088, Note_off_c, 9, 40, 64
11, 69410, Note_on_c, 9, 40, 81
11, 69412, Note_off_c, 9, 40, 64
11, 69730, Note_on_c, 9, 40, 81
11, 69733, Note_off_c, 9, 40, 64
11, 70059, Note_on_c, 9, 40, 81
11, 70060, Note_off_c, 9, 40, 64
11, 70380, Note_on_c, 9, 40, 81
11, 70383, Note_off_c, 9, 40, 64
11, 70705, Note_on_c, 9, 40, 81
11, 70706, Note_off_c, 9, 40, 64
11, 71028, Note_on_c, 9, 40, 81
11, 71031, Note_off_c, 9, 40, 64
11, 71355, Note_on_c, 9, 40, 81
11, 71359, Note_off_c, 9, 40, 64
11, 71679, Note_on_c, 9, 40, 81
11, 71681, Note_off_c, 9, 40, 64
11, 72003, Note_on_c, 9, 40, 81
11, 72006, Note_off_c, 9, 40, 64
11, 72327, Note_on_c, 9, 40, 81
11, 72331, Note_off_c, 9, 40, 64
11, 72652, Note_on_c, 9, 40, 81
11, 72656, Note_off_c, 9, 40, 64
11, 72976, Note_on_c, 9, 40, 81
11, 72979, Note_off_c, 9, 40, 64
11, 73301, Note_on_c, 9, 40, 81
11, 73306, Note_off_c, 9, 40, 64
11, 73625, Note_on_c, 9, 40, 81
11, 73628, Note_off_c, 9, 40, 64
11, 73950, Note_on_c, 9, 40, 81
11, 73955, Note_off_c, 9, 40, 64
11, 74275, Note_on_c, 9, 40, 81
11, 74276, Note_off_c, 9, 40, 64
11, 74315, Note_on_c, 9, 40, 81
11, 74318, Note_off_c, 9, 40, 64
11, 74600, Note_on_c, 9, 40, 81
11, 74602, Note_off_c, 9, 40, 64
11, 74924, Note_on_c, 9, 40, 81
11, 74928, Note_off_c, 9, 40, 64
11, 75249, Note_on_c, 9, 40, 81
11, 75251, Note_off_c, 9, 40, 64
11, 75572, Note_on_c, 9, 40, 81
11, 75574, Note_off_c, 9, 40, 64
11, 75897, Note_on_c, 9, 40, 81
11, 75901, Note_off_c, 9, 40, 64
11, 76222, Note_on_c, 9, 40, 81
11, 76223, Note_off_c, 9, 40, 64
11, 76546, Note_on_c, 9, 40, 81
11, 76551, Note_off_c, 9, 40, 64
11, 76871, Note_on_c, 9, 40, 81
11, 76872, Note_off_c, 9, 40, 64
11, 77195, Note_on_c, 9, 40, 81
11, 77198, Note_off_c, 9, 40, 64
11, 77519, Note_on_c, 9, 40, 81
11, 77520, Note_off_c, 9, 40, 64
11, 77845, Note_on_c, 9, 40, 81
11, 77848, Note_off_c, 9, 40, 64
11, 78169, Note_on_c, 9, 40, 81
11, 78170, Note_off_c, 9, 40, 64
11, 78494, Note_on_c, 9, 40, 81
11, 78496, Note_off_c, 9, 40, 64
11, 78817, Note_on_c, 9, 40, 81
11, 78822, Note_off_c, 9, 40, 64
11, 79143, Note_on_c, 9, 40, 81
11, 79145, Note_off_c, 9, 40, 64
11, 79466, Note_on_c, 9, 40, 81
11, 79467, Note_off_c, 9, 40, 64
11, 79791, Note_on_c, 9, 40, 81
11, 79795, Note_off_c, 9, 40, 64
11, 80114, Note_on_c, 9, 40, 81
11, 80120, Note_off_c, 9, 40, 64
11, 80440, Note_on_c, 9, 40, 81
11, 80445, Note_off_c, 9, 40, 64
11, 80765, Note_on_c, 9, 40, 81
11, 80766, Note_off_c, 9, 40, 64
11, 81089, Note_on_c, 9, 40, 81
11, 81092, Note_off_c, 9, 40, 64
11, 81414, Note_on_c, 9, 40, 81
11, 81419, Note_off_c, 9, 40, 64
11, 81617, Note_on_c, 9, 40, 81
11, 81620, Note_off_c, 9, 40, 64
11, 81657, Note_on_c, 9, 40, 81
11, 81660, Note_off_c, 9, 40, 64
11, 81738, Note_on_c, 9, 40, 81
11, 81741, Note_off_c, 9, 40, 64
11, 81941, Note_on_c, 9, 40, 81
11, 81943, Note_off_c, 9, 40, 64
11, 81982, Note_on_c, 9, 40, 81
11, 81983, Note_off_c, 9, 40, 64
11, 82062, Note_on_c, 9, 40, 81
11, 82063, Note_off_c, 9, 40, 64
11, 82144, Note_on_c, 9, 40, 81
11, 82147, Note_off_c, 9, 40, 64
11, 82184, Note_on_c, 9, 40, 81
11, 82187, Note_off_c, 9, 40, 64
11, 82388, Note_on_c, 9, 40, 81
11, 82390, Note_off_c, 9, 40, 64
11, 82711, Note_on_c, 9, 40, 81
11, 82712, Note_off_c, 9, 40, 64
11, 83037, Note_on_c, 9, 40, 81
11, 83038, Note_off_c, 9, 40, 64
11, 83361, Note_on_c, 9, 40, 81
11, 83362, Note_off_c, 9, 40, 64
11, 83686, Note_on_c, 9, 40, 81
11, 83689, Note_off_c, 9, 40, 64
11, 84010, Note_on_c, 9, 40, 81
11, 84013, Note_off_c, 9, 40, 64
11, 84334, Note_on_c, 9, 40, 81
11, 84338, Note_off_c, 9, 40, 64
11, 84660, Note_on_c, 9, 40, 81
11, 84664, Note_off_c, 9, 40, 64
11, 84985, Note_on_c, 9, 40, 81
11, 84988, Note_off_c, 9, 40, 64
11, 85308, Note_on_c, 9, 40, 81
11, 85309, Note_off_c, 9, 40, 64
11, 85633, Note_on_c, 9, 40, 81
11, 85636, Note_off_c, 9, 40, 64
11, 85958, Note_on_c, 9, 40, 81
11, 85961, Note_off_c, 9, 40, 64
11, 86283, Note_on_c, 9, 40, 81
11, 86286, Note_off_c, 9, 40, 64
11, 86606, Note_on_c, 9, 40, 81
11, 86607, Note_off_c, 9, 40, 64
11, 86931, Note_on_c, 9, 40, 81
11, 86934, Note_off_c, 9, 40, 64
11, 87255, Note_on_c, 9, 40, 81
11, 87256, Note_off_c, 9, 40, 64
11, 87579, Note_on_c, 9, 40, 81
11, 87583, Note_off_c, 9, 40, 64
11, 87903, Note_on_c, 9, 40, 81
11, 87907, Note_off_c, 9, 40, 64
11, 88229, Note_on_c, 9, 40, 81
11, 88230, Note_off_c, 9, 40, 64
11, 88554, Note_on_c, 9, 40, 81
11, 88555, Note_off_c, 9, 40, 64
11, 88879, Note_on_c, 9, 40, 81
11, 88881, Note_off_c, 9, 40, 64
11, 89203, Note_on_c, 9, 40, 81
11, 89204, Note_off_c, 9, 40, 64
11, 89527, Note_on_c, 9, 40, 81
11, 89531, Note_off_c, 9, 40, 64
11, 89568, Note_on_c, 9, 40, 81
11, 89571, Note_off_c, 9, 40, 64
11, 89771, Note_on_c, 9, 40, 81
11, 89772, Note_off_c, 9, 40, 64
11, 89811, Note_on_c, 9, 40, 81
11, 89814, Note_off_c, 9, 40, 64
11, 89857, Note_on_c, 9, 40, 81
11, 89858, Note_off_c, 9, 40, 64
11, 90176, Note_on_c, 9, 40, 81
11, 90180, Note_off_c, 9, 40, 64
11, 90501, Note_on_c, 9, 40, 81
11, 90504, Note_off_c, 9, 40, 64
11, 90825, Note_on_c, 9, 40, 81
11, 90829, Note_off_c, 9, 40, 64
11, 91150, Note_on_c, 9, 40, 81
11, 91152, Note_off_c, 9, 40, 64
11, 91475, Note_on_c, 9, 40, 81
11, 91478, Note_off_c, 9, 40, 64
11, 91799, Note_on_c, 9, 40, 81
11, 91800, Note_off_c, 9, 40, 64
11, 92001, Note_on_c, 9, 40, 81
11, 92005, Note_off_c, 9, 40, 64
11, 92124, Note_on_c, 9, 40, 81
11, 92127, Note_off_c, 9, 40, 64
11, 92204, Note_on_c, 9, 40, 81
11, 92209, Note_off_c, 9, 40, 64
11, 92286, Note_on_c, 9, 40, 81
11, 92290, Note_off_c, 9, 40, 64
11, 92327, Note_on_c, 9, 40, 81
11, 92329, Note_off_c, 9, 40, 64
11, 92448, Note_on_c, 9, 40, 81
11, 92449, Note_off_c, 9, 40, 64
11, 92529, Note_on_c, 9, 40, 81
11, 92531, Note_off_c, 9, 40, 64
11, 92570, Note_on_c, 9, 40, 81
11, 92573, Note_off_c, 9, 40, 64
11, 92773, Note_on_c, 9, 40, 81
11, 92776, Note_off_c, 9, 40, 64
11, 93097, Note_on_c, 9, 40, 81
11, 93101, Note_off_c, 9, 40, 64
11, 93260, Note_on_c, 9, 40, 81
11, 93262, Note_off_c, 9, 40, 64
11, 93991, Note_on_c, 9, 40, 81
11, 93994, Note_off_c, 9, 40, 64
11, 94071, Note_on_c, 9, 40, 81
11, 94074, Note_off_c, 9, 40, 64
11, 94111, Note_on_c, 9, 40, 81
11, 94115, Note_off_c, 9, 40, 64
11, 94234, Note_on_c, 9, 40, 81
11, 94237, Note_off_c, 9, 40, 64
11, 94275, Note_on_c, 9, 40, 81
11, 94278, Note_off_c, 9, 40, 64
11, 94395, Note_on_c, 9, 40, 81
11, 94398, Note_off_c, 9, 40, 64
11, 94436, Note_on_c, 9, 40, 81
11, 94439, Note_off_c, 9, 40, 64
11, 95694, Note_on_c, 9, 40, 81
11, 95697, Note_off_c, 9, 40, 64
11, 95735, Note_on_c, 9, 40, 81
11, 95738, Note_off_c, 9, 40, 64
11, 95738, End_track
0, 0, End_of_file
