0, 0, Header, 1, 15, 480
1, 0, Start_track
1, 0, Tempo, 540540
1, 0, Time_signature, 4, 2, 24, 8
1, 0, Key_signature, 0, "major"
1, 0, End_track
2, 0, Start_track
2, 0, Title_t, "Electric Bass (finger)"
2, 0, MIDI_port, 0
2, 0, Channel_prefix, 1
2, 0, Control_c, 1, 7, 127
2, 0, Program_c, 1, 33
2, 14404, Note_on_c, 1, 28, 90
2, 14764, Note_off_c, 1, 28, 64
2, 14884, Note_on_c, 1, 30, 92
2, 15280, Note_off_c, 1, 30, 64
2, 15364, Note_on_c, 1, 35, 88
2, 15704, Note_off_c, 1, 35, 64
2, 15844, Note_on_c, 1, 35, 76
2, 16128, Note_off_c, 1, 35, 64
2, 16324, Note_on_c, 1, 35, 80
2, 16452, Note_off_c, 1, 35, 64
2, 16560, Note_on_c, 1, 35, 84
2, 16908, Note_off_c, 1, 35, 64
2, 17040, Note_on_c, 1, 35, 92
2, 17284, Note_on_c, 1, 40, 67
2, 17292, Note_off_c, 1, 35, 64
2, 17620, Note_off_c, 1, 40, 64
2, 17764, Note_on_c, 1, 40, 82
2, 18072, Note_off_c, 1, 40, 64
2, 18244, Note_on_c, 1, 40, 73
2, 18372, Note_off_c, 1, 40, 64
2, 18480, Note_on_c, 1, 40, 78
2, 18948, Note_off_c, 1, 40, 64
2, 18964, Note_on_c, 1, 35, 76
2, 19204, Note_on_c, 1, 34, 76
2, 19212, Note_off_c, 1, 35, 64
2, 19520, Note_off_c, 1, 34, 64
2, 19684, Note_on_c, 1, 34, 84
2, 20024, Note_off_c, 1, 34, 64
2, 20164, Note_on_c, 1, 34, 72
2, 20284, Note_off_c, 1, 34, 64
2, 20404, Note_on_c, 1, 34, 76
2, 20700, Note_off_c, 1, 34, 64
2, 20880, Note_on_c, 1, 34, 80
2, 21108, Note_off_c, 1, 34, 64
2, 21124, Note_on_c, 1, 39, 74
2, 21488, Note_off_c, 1, 39, 64
2, 21604, Note_on_c, 1, 39, 78
2, 21852, Note_off_c, 1, 39, 64
2, 22084, Note_on_c, 1, 39, 78
2, 22212, Note_off_c, 1, 39, 64
2, 22320, Note_on_c, 1, 39, 88
2, 22672, Note_off_c, 1, 39, 64
2, 22804, Note_on_c, 1, 39, 74
2, 23032, Note_off_c, 1, 39, 64
2, 23036, Note_on_c, 1, 32, 90
2, 23392, Note_off_c, 1, 32, 64
2, 23524, Note_on_c, 1, 32, 82
2, 23880, Note_off_c, 1, 32, 64
2, 24004, Note_on_c, 1, 32, 76
2, 24128, Note_off_c, 1, 32, 64
2, 24240, Note_on_c, 1, 32, 80
2, 24548, Note_off_c, 1, 32, 64
2, 24720, Note_on_c, 1, 32, 74
2, 24952, Note_off_c, 1, 32, 64
2, 24956, Note_on_c, 1, 37, 78
2, 25308, Note_off_c, 1, 37, 64
2, 25444, Note_on_c, 1, 37, 80
2, 25824, Note_off_c, 1, 37, 64
2, 25924, Note_on_c, 1, 37, 68
2, 26084, Note_off_c, 1, 37, 64
2, 26160, Note_on_c, 1, 37, 70
2, 26404, Note_off_c, 1, 37, 64
2, 26640, Note_on_c, 1, 37, 61
2, 26868, Note_off_c, 1, 37, 64
2, 26872, Note_on_c, 1, 30, 74
2, 27208, Note_off_c, 1, 30, 64
2, 27364, Note_on_c, 1, 30, 70
2, 27648, Note_off_c, 1, 30, 64
2, 27844, Note_on_c, 1, 30, 70
2, 27964, Note_off_c, 1, 30, 64
2, 28080, Note_on_c, 1, 30, 70
2, 28388, Note_off_c, 1, 30, 64
2, 28560, Note_on_c, 1, 30, 71
2, 28788, Note_off_c, 1, 30, 64
2, 28792, Note_on_c, 1, 30, 66
2, 29088, Note_off_c, 1, 30, 64
2, 29284, Note_on_c, 1, 30, 74
2, 29560, Note_off_c, 1, 30, 64
2, 29764, Note_on_c, 1, 30, 78
2, 29900, Note_off_c, 1, 30, 64
2, 30000, Note_on_c, 1, 30, 76
2, 30284, Note_off_c, 1, 30, 64
2, 30480, Note_on_c, 1, 30, 74
2, 30708, Note_off_c, 1, 30, 64
2, 30712, Note_on_c, 1, 35, 80
2, 30972, Note_off_c, 1, 35, 64
2, 31204, Note_on_c, 1, 35, 78
2, 31500, Note_off_c, 1, 35, 64
2, 31684, Note_on_c, 1, 35, 73
2, 31800, Note_off_c, 1, 35, 64
2, 31920, Note_on_c, 1, 35, 76
2, 32208, Note_off_c, 1, 35, 64
2, 32400, Note_on_c, 1, 35, 86
2, 32628, Note_off_c, 1, 35, 64
2, 32632, Note_on_c, 1, 40, 73
2, 32944, Note_off_c, 1, 40, 64
2, 33124, Note_on_c, 1, 40, 78
2, 33400, Note_off_c, 1, 40, 64
2, 33604, Note_on_c, 1, 40, 80
2, 33728, Note_off_c, 1, 40, 64
2, 33840, Note_on_c, 1, 40, 80
2, 34188, Note_off_c, 1, 40, 64
2, 34324, Note_on_c, 1, 44, 90
2, 34432, Note_off_c, 1, 44, 64
2, 34440, Note_on_c, 1, 35, 72
2, 34544, Note_off_c, 1, 35, 64
2, 34552, Note_on_c, 1, 34, 82
2, 34912, Note_off_c, 1, 34, 64
2, 35044, Note_on_c, 1, 34, 80
2, 35372, Note_off_c, 1, 34, 64
2, 35524, Note_on_c, 1, 34, 82
2, 35620, Note_off_c, 1, 34, 64
2, 35760, Note_on_c, 1, 34, 73
2, 35868, Note_off_c, 1, 34, 64
2, 36004, Note_on_c, 1, 34, 90
2, 36104, Note_off_c, 1, 34, 64
2, 36240, Note_on_c, 1, 34, 82
2, 36468, Note_off_c, 1, 34, 64
2, 36484, Note_on_c, 1, 39, 97
2, 36844, Note_off_c, 1, 39, 64
2, 36964, Note_on_c, 1, 39, 97
2, 37264, Note_off_c, 1, 39, 64
2, 37444, Note_on_c, 1, 39, 95
2, 37532, Note_off_c, 1, 39, 64
2, 37680, Note_on_c, 1, 39, 101
2, 38120, Note_off_c, 1, 39, 64
2, 38160, Note_on_c, 1, 30, 92
2, 38392, Note_off_c, 1, 30, 64
2, 38404, Note_on_c, 1, 32, 78
2, 38760, Note_off_c, 1, 32, 64
2, 38884, Note_on_c, 1, 32, 76
2, 39228, Note_off_c, 1, 32, 64
2, 39364, Note_on_c, 1, 32, 78
2, 39432, Note_off_c, 1, 32, 64
2, 39600, Note_on_c, 1, 32, 92
2, 39908, Note_off_c, 1, 32, 64
2, 40080, Note_on_c, 1, 32, 95
2, 40308, Note_off_c, 1, 32, 64
2, 40324, Note_on_c, 1, 37, 95
2, 40668, Note_off_c, 1, 37, 64
2, 40804, Note_on_c, 1, 37, 72
2, 41120, Note_off_c, 1, 37, 64
2, 41284, Note_on_c, 1, 37, 73
2, 41368, Note_off_c, 1, 37, 64
2, 41520, Note_on_c, 1, 37, 78
2, 41800, Note_off_c, 1, 37, 64
2, 42000, Note_on_c, 1, 37, 78
2, 42228, Note_off_c, 1, 37, 64
2, 42244, Note_on_c, 1, 30, 82
2, 42504, Note_off_c, 1, 30, 64
2, 42724, Note_on_c, 1, 30, 97
2, 43068, Note_off_c, 1, 30, 64
2, 43204, Note_on_c, 1, 30, 95
2, 43284, Note_off_c, 1, 30, 64
2, 43440, Note_on_c, 1, 30, 86
2, 43760, Note_off_c, 1, 30, 64
2, 43920, Note_on_c, 1, 30, 82
2, 44148, Note_off_c, 1, 30, 64
2, 44164, Note_on_c, 1, 30, 84
2, 44432, Note_off_c, 1, 30, 64
2, 44644, Note_on_c, 1, 30, 80
2, 44924, Note_off_c, 1, 30, 64
2, 45124, Note_on_c, 1, 30, 88
2, 45244, Note_off_c, 1, 30, 64
2, 45360, Note_on_c, 1, 30, 90
2, 45648, Note_off_c, 1, 30, 64
2, 45844, Note_on_c, 1, 30, 80
2, 46052, Note_off_c, 1, 30, 64
2, 46084, Note_on_c, 1, 35, 82
2, 46392, Note_off_c, 1, 35, 64
2, 46564, Note_on_c, 1, 35, 103
2, 46888, Note_off_c, 1, 35, 64
2, 47044, Note_on_c, 1, 35, 97
2, 47104, Note_off_c, 1, 35, 64
2, 47280, Note_on_c, 1, 35, 90
2, 47412, Note_off_c, 1, 35, 64
2, 47640, Note_on_c, 1, 35, 105
2, 47988, Note_off_c, 1, 35, 64
2, 48004, Note_on_c, 1, 40, 105
2, 48264, Note_off_c, 1, 40, 64
2, 48484, Note_on_c, 1, 40, 105
2, 48840, Note_off_c, 1, 40, 64
2, 48964, Note_on_c, 1, 40, 97
2, 49044, Note_off_c, 1, 40, 64
2, 49200, Note_on_c, 1, 40, 92
2, 49640, Note_off_c, 1, 40, 64
2, 49680, Note_on_c, 1, 32, 95
2, 49908, Note_off_c, 1, 32, 64
2, 49924, Note_on_c, 1, 34, 84
2, 50280, Note_off_c, 1, 34, 64
2, 50404, Note_on_c, 1, 34, 95
2, 50680, Note_off_c, 1, 34, 64
2, 50884, Note_on_c, 1, 34, 84
2, 50980, Note_off_c, 1, 34, 64
2, 51120, Note_on_c, 1, 34, 86
2, 51228, Note_off_c, 1, 34, 64
2, 51364, Note_on_c, 1, 34, 78
2, 51452, Note_off_c, 1, 34, 64
2, 51600, Note_on_c, 1, 34, 86
2, 51832, Note_off_c, 1, 34, 64
2, 51844, Note_on_c, 1, 39, 80
2, 52180, Note_off_c, 1, 39, 64
2, 52324, Note_on_c, 1, 39, 97
2, 52560, Note_off_c, 1, 39, 64
2, 52804, Note_on_c, 1, 39, 92
2, 52888, Note_off_c, 1, 39, 64
2, 53040, Note_on_c, 1, 39, 97
2, 53504, Note_off_c, 1, 39, 64
2, 53520, Note_on_c, 1, 30, 95
2, 53752, Note_off_c, 1, 30, 64
2, 53764, Note_on_c, 1, 32, 88
2, 54124, Note_off_c, 1, 32, 64
2, 54244, Note_on_c, 1, 32, 92
2, 54588, Note_off_c, 1, 32, 64
2, 54724, Note_on_c, 1, 32, 97
2, 54808, Note_off_c, 1, 32, 64
2, 54960, Note_on_c, 1, 32, 92
2, 55300, Note_off_c, 1, 32, 64
2, 55440, Note_on_c, 1, 32, 88
2, 55668, Note_off_c, 1, 32, 64
2, 55684, Note_on_c, 1, 37, 88
2, 56012, Note_off_c, 1, 37, 64
2, 56164, Note_on_c, 1, 37, 88
2, 56484, Note_off_c, 1, 37, 64
2, 56644, Note_on_c, 1, 37, 95
2, 56740, Note_off_c, 1, 37, 64
2, 56880, Note_on_c, 1, 37, 92
2, 57164, Note_off_c, 1, 37, 64
2, 57360, Note_on_c, 1, 37, 69
2, 57592, Note_off_c, 1, 37, 64
2, 57604, Note_on_c, 1, 30, 80
2, 57864, Note_off_c, 1, 30, 64
2, 58084, Note_on_c, 1, 30, 84
2, 58392, Note_off_c, 1, 30, 64
2, 58564, Note_on_c, 1, 30, 76
2, 58652, Note_off_c, 1, 30, 64
2, 58800, Note_on_c, 1, 30, 74
2, 59100, Note_off_c, 1, 30, 64
2, 59280, Note_on_c, 1, 30, 74
2, 59512, Note_off_c, 1, 30, 64
2, 59524, Note_on_c, 1, 30, 112
2, 59812, Note_off_c, 1, 30, 64
2, 60004, Note_on_c, 1, 30, 97
2, 60304, Note_off_c, 1, 30, 64
2, 60484, Note_on_c, 1, 30, 112
2, 60552, Note_off_c, 1, 30, 64
2, 60720, Note_on_c, 1, 37, 112
2, 61184, Note_off_c, 1, 37, 64
2, 61200, Note_on_c, 1, 39, 110
2, 61432, Note_off_c, 1, 39, 64
2, 61444, Note_on_c, 1, 40, 90
2, 61648, Note_off_c, 1, 40, 64
2, 61924, Note_on_c, 1, 40, 90
2, 62200, Note_off_c, 1, 40, 64
2, 62404, Note_on_c, 1, 40, 105
2, 62872, Note_off_c, 1, 40, 64
2, 63124, Note_on_c, 1, 37, 92
2, 63220, Note_off_c, 1, 37, 64
2, 63240, Note_on_c, 1, 39, 92
2, 63352, Note_off_c, 1, 39, 64
2, 63364, Note_on_c, 1, 39, 101
2, 63616, Note_off_c, 1, 39, 64
2, 63844, Note_on_c, 1, 39, 97
2, 64068, Note_off_c, 1, 39, 64
2, 64084, Note_on_c, 1, 32, 101
2, 65024, Note_off_c, 1, 32, 64
2, 65284, Note_on_c, 1, 37, 105
2, 65580, Note_off_c, 1, 37, 64
2, 65764, Note_on_c, 1, 37, 108
2, 66040, Note_off_c, 1, 37, 64
2, 66244, Note_on_c, 1, 37, 103
2, 66808, Note_off_c, 1, 37, 64
2, 66964, Note_on_c, 1, 42, 108
2, 67064, Note_off_c, 1, 42, 64
2, 67080, Note_on_c, 1, 40, 95
2, 67180, Note_off_c, 1, 40, 64
2, 67204, Note_on_c, 1, 39, 99
2, 67320, Note_off_c, 1, 39, 64
2, 67444, Note_on_c, 1, 39, 108
2, 67612, Note_off_c, 1, 39, 64
2, 67924, Note_on_c, 1, 39, 115
2, 68208, Note_off_c, 1, 39, 64
2, 68404, Note_on_c, 1, 37, 112
2, 68568, Note_off_c, 1, 37, 64
2, 68644, Note_on_c, 1, 39, 115
2, 68992, Note_off_c, 1, 39, 64
2, 69124, Note_on_c, 1, 40, 120
2, 69416, Note_off_c, 1, 40, 64
2, 69604, Note_on_c, 1, 40, 110
2, 69908, Note_off_c, 1, 40, 64
2, 70084, Note_on_c, 1, 40, 112
2, 70600, Note_off_c, 1, 40, 64
2, 70804, Note_on_c, 1, 37, 95
2, 70892, Note_off_c, 1, 37, 64
2, 70920, Note_on_c, 1, 39, 90
2, 70992, Note_off_c, 1, 39, 64
2, 71044, Note_on_c, 1, 39, 108
2, 71340, Note_off_c, 1, 39, 64
2, 71524, Note_on_c, 1, 39, 105
2, 71740, Note_off_c, 1, 39, 64
2, 71764, Note_on_c, 1, 32, 97
2, 72472, Note_off_c, 1, 32, 64
2, 72964, Note_on_c, 1, 37, 115
2, 73224, Note_off_c, 1, 37, 64
2, 73444, Note_on_c, 1, 37, 110
2, 73688, Note_off_c, 1, 37, 64
2, 73924, Note_on_c, 1, 37, 101
2, 74448, Note_off_c, 1, 37, 64
2, 74644, Note_on_c, 1, 42, 112
2, 74744, Note_off_c, 1, 42, 64
2, 74760, Note_on_c, 1, 40, 92
2, 74868, Note_off_c, 1, 40, 64
2, 74884, Note_on_c, 1, 39, 105
2, 74992, Note_off_c, 1, 39, 64
2, 75124, Note_on_c, 1, 39, 112
2, 75288, Note_off_c, 1, 39, 64
2, 75604, Note_on_c, 1, 39, 110
2, 76048, Note_off_c, 1, 39, 64
2, 76084, Note_on_c, 1, 37, 97
2, 76312, Note_off_c, 1, 37, 64
2, 76324, Note_on_c, 1, 39, 103
2, 76620, Note_off_c, 1, 39, 64
2, 76804, Note_on_c, 1, 40, 92
2, 77028, Note_off_c, 1, 40, 64
2, 77284, Note_on_c, 1, 40, 97
2, 77552, Note_off_c, 1, 40, 64
2, 77764, Note_on_c, 1, 40, 108
2, 78260, Note_off_c, 1, 40, 64
2, 78484, Note_on_c, 1, 37, 92
2, 78588, Note_off_c, 1, 37, 64
2, 78600, Note_on_c, 1, 39, 78
2, 78660, Note_off_c, 1, 39, 64
2, 78724, Note_on_c, 1, 39, 90
2, 78820, Note_off_c, 1, 39, 64
2, 78960, Note_on_c, 1, 39, 92
2, 79052, Note_off_c, 1, 39, 64
2, 79204, Note_on_c, 1, 39, 95
2, 79444, Note_off_c, 1, 39, 64
2, 79444, Note_on_c, 1, 32, 108
2, 80380, Note_off_c, 1, 32, 64
2, 80644, Note_on_c, 1, 37, 105
2, 81104, Note_off_c, 1, 37, 64
2, 81364, Note_on_c, 1, 37, 110
2, 82124, Note_off_c, 1, 37, 64
2, 82324, Note_on_c, 1, 30, 115
2, 83560, Note_off_c, 1, 30, 64
2, 84484, Note_on_c, 1, 35, 108
2, 84780, Note_off_c, 1, 35, 64
2, 84964, Note_on_c, 1, 35, 105
2, 85252, Note_off_c, 1, 35, 64
2, 85444, Note_on_c, 1, 35, 99
2, 85512, Note_off_c, 1, 35, 64
2, 85680, Note_on_c, 1, 35, 105
2, 86024, Note_off_c, 1, 35, 64
2, 86160, Note_on_c, 1, 35, 92
2, 86392, Note_off_c, 1, 35, 64
2, 86404, Note_on_c, 1, 40, 82
2, 86744, Note_off_c, 1, 40, 64
2, 86884, Note_on_c, 1, 40, 97
2, 87168, Note_off_c, 1, 40, 64
2, 87364, Note_on_c, 1, 40, 99
2, 87428, Note_off_c, 1, 40, 64
2, 87600, Note_on_c, 1, 40, 92
2, 88080, Note_on_c, 1, 32, 99
2, 88092, Note_off_c, 1, 40, 64
2, 88312, Note_off_c, 1, 32, 64
2, 88324, Note_on_c, 1, 34, 84
2, 88668, Note_off_c, 1, 34, 64
2, 88804, Note_on_c, 1, 34, 110
2, 89092, Note_off_c, 1, 34, 64
2, 89284, Note_on_c, 1, 34, 99
2, 89384, Note_off_c, 1, 34, 64
2, 89520, Note_on_c, 1, 34, 95
2, 89888, Note_off_c, 1, 34, 64
2, 90000, Note_on_c, 1, 34, 97
2, 90232, Note_off_c, 1, 34, 64
2, 90244, Note_on_c, 1, 39, 95
2, 90568, Note_off_c, 1, 39, 64
2, 90724, Note_on_c, 1, 39, 103
2, 90992, Note_off_c, 1, 39, 64
2, 91204, Note_on_c, 1, 39, 101
2, 91308, Note_off_c, 1, 39, 64
2, 91440, Note_on_c, 1, 39, 90
2, 91880, Note_off_c, 1, 39, 64
2, 91920, Note_on_c, 1, 30, 97
2, 92152, Note_off_c, 1, 30, 64
2, 92164, Note_on_c, 1, 32, 90
2, 92524, Note_off_c, 1, 32, 64
2, 92644, Note_on_c, 1, 32, 97
2, 92972, Note_off_c, 1, 32, 64
2, 93124, Note_on_c, 1, 32, 97
2, 93232, Note_off_c, 1, 32, 64
2, 93360, Note_on_c, 1, 32, 97
2, 93692, Note_off_c, 1, 32, 64
2, 93840, Note_on_c, 1, 32, 97
2, 94072, Note_off_c, 1, 32, 64
2, 94084, Note_on_c, 1, 37, 97
2, 94392, Note_off_c, 1, 37, 64
2, 94564, Note_on_c, 1, 37, 95
2, 94860, Note_off_c, 1, 37, 64
2, 95044, Note_on_c, 1, 37, 105
2, 95128, Note_off_c, 1, 37, 64
2, 95280, Note_on_c, 1, 37, 101
2, 95628, Note_off_c, 1, 37, 64
2, 95760, Note_on_c, 1, 37, 97
2, 95992, Note_off_c, 1, 37, 64
2, 96004, Note_on_c, 1, 30, 97
2, 96340, Note_off_c, 1, 30, 64
2, 96484, Note_on_c, 1, 30, 97
2, 96784, Note_off_c, 1, 30, 64
2, 96964, Note_on_c, 1, 30, 90
2, 97032, Note_off_c, 1, 30, 64
2, 97200, Note_on_c, 1, 30, 88
2, 97512, Note_off_c, 1, 30, 64
2, 97680, Note_on_c, 1, 30, 84
2, 97912, Note_off_c, 1, 30, 64
2, 97924, Note_on_c, 1, 30, 88
2, 98264, Note_off_c, 1, 30, 64
2, 98404, Note_on_c, 1, 30, 97
2, 98740, Note_off_c, 1, 30, 64
2, 98884, Note_on_c, 1, 30, 97
2, 98948, Note_off_c, 1, 30, 64
2, 99120, Note_on_c, 1, 30, 99
2, 99300, Note_off_c, 1, 30, 64
2, 99604, Note_on_c, 1, 30, 95
2, 99832, Note_off_c, 1, 30, 64
2, 99844, Note_on_c, 1, 35, 110
2, 100204, Note_off_c, 1, 35, 64
2, 100324, Note_on_c, 1, 35, 112
2, 100612, Note_off_c, 1, 35, 64
2, 100804, Note_on_c, 1, 35, 110
2, 100864, Note_off_c, 1, 35, 64
2, 101040, Note_on_c, 1, 35, 110
2, 101400, Note_off_c, 1, 35, 64
2, 101520, Note_on_c, 1, 35, 99
2, 101752, Note_off_c, 1, 35, 64
2, 101764, Note_on_c, 1, 40, 108
2, 102112, Note_off_c, 1, 40, 64
2, 102244, Note_on_c, 1, 40, 108
2, 102572, Note_off_c, 1, 40, 64
2, 102724, Note_on_c, 1, 40, 110
2, 102812, Note_off_c, 1, 40, 64
2, 102960, Note_on_c, 1, 40, 108
2, 103368, Note_off_c, 1, 40, 64
2, 103440, Note_on_c, 1, 32, 92
2, 103664, Note_off_c, 1, 32, 64
2, 103684, Note_on_c, 1, 34, 95
2, 104048, Note_off_c, 1, 34, 64
2, 104164, Note_on_c, 1, 34, 101
2, 104548, Note_off_c, 1, 34, 64
2, 104644, Note_on_c, 1, 34, 97
2, 104708, Note_off_c, 1, 34, 64
2, 104880, Note_on_c, 1, 34, 95
2, 105232, Note_off_c, 1, 34, 64
2, 105360, Note_on_c, 1, 34, 95
2, 105592, Note_off_c, 1, 34, 64
2, 105604, Note_on_c, 1, 39, 99
2, 105924, Note_off_c, 1, 39, 64
2, 106084, Note_on_c, 1, 39, 97
2, 106432, Note_off_c, 1, 39, 64
2, 106564, Note_on_c, 1, 39, 99
2, 106660, Note_off_c, 1, 39, 64
2, 106800, Note_on_c, 1, 39, 112
2, 107272, Note_off_c, 1, 39, 64
2, 107280, Note_on_c, 1, 30, 92
2, 107512, Note_off_c, 1, 30, 64
2, 107524, Note_on_c, 1, 32, 92
2, 107912, Note_off_c, 1, 32, 64
2, 108004, Note_on_c, 1, 32, 97
2, 108368, Note_off_c, 1, 32, 64
2, 108484, Note_on_c, 1, 32, 101
2, 108544, Note_off_c, 1, 32, 64
2, 108720, Note_on_c, 1, 32, 95
2, 109060, Note_off_c, 1, 32, 64
2, 109200, Note_on_c, 1, 32, 105
2, 109432, Note_off_c, 1, 32, 64
2, 109444, Note_on_c, 1, 37, 108
2, 109768, Note_off_c, 1, 37, 64
2, 109924, Note_on_c, 1, 37, 112
2, 110324, Note_off_c, 1, 37, 64
2, 110404, Note_on_c, 1, 37, 112
2, 110480, Note_off_c, 1, 37, 64
2, 110640, Note_on_c, 1, 37, 110
2, 110940, Note_off_c, 1, 37, 64
2, 111120, Note_on_c, 1, 37, 110
2, 111352, Note_off_c, 1, 37, 64
2, 111364, Note_on_c, 1, 30, 101
2, 111680, Note_off_c, 1, 30, 64
2, 111844, Note_on_c, 1, 30, 97
2, 112188, Note_off_c, 1, 30, 64
2, 112324, Note_on_c, 1, 30, 105
2, 112392, Note_off_c, 1, 30, 64
2, 112560, Note_on_c, 1, 30, 99
2, 112900, Note_off_c, 1, 30, 64
2, 113040, Note_on_c, 1, 30, 101
2, 113272, Note_off_c, 1, 30, 64
2, 113284, Note_on_c, 1, 30, 99
2, 113624, Note_off_c, 1, 30, 64
2, 113764, Note_on_c, 1, 30, 105
2, 114084, Note_off_c, 1, 30, 64
2, 114244, Note_on_c, 1, 30, 97
2, 114312, Note_off_c, 1, 30, 64
2, 114480, Note_on_c, 1, 30, 97
2, 114788, Note_off_c, 1, 30, 64
2, 114964, Note_on_c, 1, 30, 92
2, 115192, Note_off_c, 1, 30, 64
2, 115204, Note_on_c, 1, 35, 99
2, 115460, Note_off_c, 1, 35, 64
2, 115684, Note_on_c, 1, 35, 97
2, 115992, Note_off_c, 1, 35, 64
2, 116164, Note_on_c, 1, 35, 103
2, 116220, Note_off_c, 1, 35, 64
2, 116400, Note_on_c, 1, 35, 108
2, 116660, Note_off_c, 1, 35, 64
2, 116880, Note_on_c, 1, 35, 115
2, 117112, Note_off_c, 1, 35, 64
2, 117124, Note_on_c, 1, 40, 105
2, 117340, Note_off_c, 1, 40, 64
2, 117604, Note_on_c, 1, 40, 108
2, 117804, Note_off_c, 1, 40, 64
2, 118084, Note_on_c, 1, 40, 108
2, 118152, Note_off_c, 1, 40, 64
2, 118320, Note_on_c, 1, 40, 108
2, 118800, Note_on_c, 1, 28, 108
2, 118972, Note_off_c, 1, 40, 64
2, 119036, Note_off_c, 1, 28, 64
2, 119044, Note_on_c, 1, 34, 108
2, 119392, Note_off_c, 1, 34, 64
2, 119524, Note_on_c, 1, 34, 103
2, 119888, Note_off_c, 1, 34, 64
2, 120004, Note_on_c, 1, 34, 110
2, 120068, Note_off_c, 1, 34, 64
2, 120240, Note_on_c, 1, 34, 112
2, 120584, Note_off_c, 1, 34, 64
2, 120720, Note_on_c, 1, 34, 110
2, 120952, Note_off_c, 1, 34, 64
2, 120964, Note_on_c, 1, 39, 101
2, 121256, Note_off_c, 1, 39, 64
2, 121444, Note_on_c, 1, 39, 110
2, 121768, Note_off_c, 1, 39, 64
2, 121924, Note_on_c, 1, 39, 99
2, 121980, Note_off_c, 1, 39, 64
2, 122164, Note_on_c, 1, 39, 99
2, 122632, Note_off_c, 1, 39, 64
2, 122640, Note_on_c, 1, 30, 110
2, 122868, Note_off_c, 1, 30, 64
2, 122872, Note_on_c, 1, 32, 99
2, 123216, Note_off_c, 1, 32, 64
2, 123364, Note_on_c, 1, 32, 108
2, 123760, Note_off_c, 1, 32, 64
2, 123844, Note_on_c, 1, 32, 99
2, 123912, Note_off_c, 1, 32, 64
2, 124080, Note_on_c, 1, 32, 105
2, 124404, Note_off_c, 1, 32, 64
2, 124560, Note_on_c, 1, 32, 103
2, 124792, Note_off_c, 1, 32, 64
2, 124804, Note_on_c, 1, 37, 99
2, 125128, Note_off_c, 1, 37, 64
2, 125284, Note_on_c, 1, 37, 108
2, 125624, Note_off_c, 1, 37, 64
2, 125764, Note_on_c, 1, 37, 108
2, 125864, Note_off_c, 1, 37, 64
2, 126000, Note_on_c, 1, 37, 108
2, 126284, Note_off_c, 1, 37, 64
2, 126480, Note_on_c, 1, 37, 110
2, 126716, Note_off_c, 1, 37, 64
2, 126724, Note_on_c, 1, 30, 105
2, 127028, Note_off_c, 1, 30, 64
2, 127204, Note_on_c, 1, 30, 101
2, 127472, Note_off_c, 1, 30, 64
2, 127684, Note_on_c, 1, 30, 108
2, 127760, Note_off_c, 1, 30, 64
2, 127920, Note_on_c, 1, 30, 99
2, 128212, Note_off_c, 1, 30, 64
2, 128400, Note_on_c, 1, 30, 101
2, 128632, Note_off_c, 1, 30, 64
2, 128644, Note_on_c, 1, 30, 110
2, 128904, Note_off_c, 1, 30, 64
2, 129124, Note_on_c, 1, 30, 99
2, 129372, Note_off_c, 1, 30, 64
2, 129604, Note_on_c, 1, 30, 112
2, 129752, Note_off_c, 1, 30, 64
2, 129840, Note_on_c, 1, 37, 108
2, 130272, Note_off_c, 1, 37, 64
2, 130320, Note_on_c, 1, 39, 112
2, 130556, Note_off_c, 1, 39, 64
2, 130564, Note_on_c, 1, 40, 108
2, 130764, Note_off_c, 1, 40, 64
2, 131044, Note_on_c, 1, 40, 112
2, 131284, Note_off_c, 1, 40, 64
2, 131524, Note_on_c, 1, 40, 117
2, 131984, Note_off_c, 1, 40, 64
2, 132244, Note_on_c, 1, 37, 103
2, 132352, Note_off_c, 1, 37, 64
2, 132360, Note_on_c, 1, 39, 90
2, 132472, Note_off_c, 1, 39, 64
2, 132484, Note_on_c, 1, 39, 92
2, 132540, Note_off_c, 1, 39, 64
2, 132724, Note_on_c, 1, 39, 97
2, 132784, Note_off_c, 1, 39, 64
2, 132964, Note_on_c, 1, 39, 112
2, 133040, Note_off_c, 1, 39, 64
2, 133204, Note_on_c, 1, 32, 112
2, 134220, Note_off_c, 1, 32, 64
2, 134404, Note_on_c, 1, 37, 112
2, 134700, Note_off_c, 1, 37, 64
2, 134884, Note_on_c, 1, 37, 105
2, 135124, Note_off_c, 1, 37, 64
2, 135364, Note_on_c, 1, 37, 110
2, 135884, Note_off_c, 1, 37, 64
2, 136084, Note_on_c, 1, 42, 110
2, 136192, Note_off_c, 1, 42, 64
2, 136200, Note_on_c, 1, 40, 97
2, 136312, Note_off_c, 1, 40, 64
2, 136324, Note_on_c, 1, 39, 110
2, 136392, Note_off_c, 1, 39, 64
2, 136564, Note_on_c, 1, 39, 112
2, 136712, Note_off_c, 1, 39, 64
2, 137044, Note_on_c, 1, 39, 112
2, 137400, Note_off_c, 1, 39, 64
2, 137524, Note_on_c, 1, 37, 112
2, 137688, Note_off_c, 1, 37, 64
2, 137764, Note_on_c, 1, 39, 117
2, 138132, Note_off_c, 1, 39, 64
2, 138244, Note_on_c, 1, 40, 123
2, 138568, Note_off_c, 1, 40, 64
2, 138724, Note_on_c, 1, 40, 115
2, 139000, Note_off_c, 1, 40, 64
2, 139204, Note_on_c, 1, 40, 108
2, 139704, Note_off_c, 1, 40, 64
2, 139924, Note_on_c, 1, 37, 115
2, 140012, Note_off_c, 1, 37, 64
2, 140040, Note_on_c, 1, 39, 108
2, 140152, Note_off_c, 1, 39, 64
2, 140164, Note_on_c, 1, 39, 112
2, 140228, Note_off_c, 1, 39, 64
2, 140404, Note_on_c, 1, 39, 112
2, 140468, Note_off_c, 1, 39, 64
2, 140644, Note_on_c, 1, 39, 115
2, 140852, Note_off_c, 1, 39, 64
2, 140884, Note_on_c, 1, 32, 112
2, 141812, Note_off_c, 1, 32, 64
2, 142084, Note_on_c, 1, 37, 112
2, 142316, Note_off_c, 1, 37, 64
2, 142564, Note_on_c, 1, 37, 115
2, 142820, Note_off_c, 1, 37, 64
2, 143044, Note_on_c, 1, 37, 115
2, 143420, Note_off_c, 1, 37, 64
2, 143764, Note_on_c, 1, 42, 108
2, 143872, Note_off_c, 1, 42, 64
2, 143880, Note_on_c, 1, 40, 101
2, 143992, Note_off_c, 1, 40, 64
2, 144004, Note_on_c, 1, 39, 105
2, 144080, Note_off_c, 1, 39, 64
2, 144244, Note_on_c, 1, 39, 110
2, 144304, Note_off_c, 1, 39, 64
2, 144484, Note_on_c, 1, 39, 117
2, 144956, Note_off_c, 1, 39, 64
2, 145204, Note_on_c, 1, 37, 112
2, 145408, Note_off_c, 1, 37, 64
2, 145444, Note_on_c, 1, 39, 110
2, 145824, Note_off_c, 1, 39, 64
2, 145924, Note_on_c, 1, 40, 115
2, 146232, Note_off_c, 1, 40, 64
2, 146404, Note_on_c, 1, 40, 115
2, 146752, Note_off_c, 1, 40, 64
2, 146884, Note_on_c, 1, 40, 117
2, 147364, Note_off_c, 1, 40, 64
2, 147604, Note_on_c, 1, 37, 101
2, 147712, Note_off_c, 1, 37, 64
2, 147720, Note_on_c, 1, 39, 115
2, 147832, Note_off_c, 1, 39, 64
2, 147844, Note_on_c, 1, 39, 110
2, 147908, Note_off_c, 1, 39, 64
2, 148084, Note_on_c, 1, 39, 112
2, 148160, Note_off_c, 1, 39, 64
2, 148324, Note_on_c, 1, 39, 97
2, 148484, Note_off_c, 1, 39, 64
2, 148564, Note_on_c, 1, 32, 103
2, 149532, Note_off_c, 1, 32, 64
2, 149764, Note_on_c, 1, 37, 112
2, 150032, Note_off_c, 1, 37, 64
2, 150244, Note_on_c, 1, 37, 112
2, 150528, Note_off_c, 1, 37, 64
2, 150724, Note_on_c, 1, 37, 112
2, 151112, Note_off_c, 1, 37, 64
2, 151444, Note_on_c, 1, 42, 115
2, 151552, Note_off_c, 1, 42, 64
2, 151560, Note_on_c, 1, 40, 95
2, 151672, Note_off_c, 1, 40, 64
2, 151684, Note_on_c, 1, 39, 110
2, 151748, Note_off_c, 1, 39, 64
2, 151924, Note_on_c, 1, 39, 115
2, 152052, Note_off_c, 1, 39, 64
2, 152404, Note_on_c, 1, 39, 115
2, 152688, Note_off_c, 1, 39, 64
2, 152884, Note_on_c, 1, 37, 115
2, 153084, Note_off_c, 1, 37, 64
2, 153124, Note_on_c, 1, 39, 112
2, 153460, Note_off_c, 1, 39, 64
2, 153604, Note_on_c, 1, 40, 123
2, 153876, Note_off_c, 1, 40, 64
2, 154084, Note_on_c, 1, 40, 120
2, 154376, Note_off_c, 1, 40, 64
2, 154564, Note_on_c, 1, 40, 117
2, 155072, Note_off_c, 1, 40, 64
2, 155284, Note_on_c, 1, 37, 117
2, 155392, Note_off_c, 1, 37, 64
2, 155400, Note_on_c, 1, 39, 112
2, 155516, Note_off_c, 1, 39, 64
2, 155524, Note_on_c, 1, 39, 112
2, 155584, Note_off_c, 1, 39, 64
2, 155764, Note_on_c, 1, 39, 112
2, 155832, Note_off_c, 1, 39, 64
2, 156004, Note_on_c, 1, 39, 117
2, 156244, Note_on_c, 1, 32, 115
2, 156260, Note_off_c, 1, 39, 64
2, 157084, Note_off_c, 1, 32, 64
2, 157444, Note_on_c, 1, 37, 115
2, 157724, Note_off_c, 1, 37, 64
2, 157924, Note_on_c, 1, 37, 115
2, 158188, Note_off_c, 1, 37, 64
2, 158404, Note_on_c, 1, 37, 110
2, 159124, Note_off_c, 1, 37, 64
2, 159124, Note_on_c, 1, 42, 95
2, 159232, Note_off_c, 1, 42, 64
2, 159240, Note_on_c, 1, 40, 105
2, 159352, Note_off_c, 1, 40, 64
2, 159364, Note_on_c, 1, 39, 105
2, 159440, Note_off_c, 1, 39, 64
2, 159604, Note_on_c, 1, 39, 115
2, 159732, Note_off_c, 1, 39, 64
2, 160084, Note_on_c, 1, 39, 110
2, 160488, Note_off_c, 1, 39, 64
2, 160564, Note_on_c, 1, 37, 103
2, 160684, Note_off_c, 1, 37, 64
2, 160804, Note_on_c, 1, 39, 112
2, 161228, Note_off_c, 1, 39, 64
2, 161284, Note_on_c, 1, 40, 108
2, 161524, Note_off_c, 1, 40, 64
2, 161764, Note_on_c, 1, 40, 115
2, 161980, Note_off_c, 1, 40, 64
2, 162244, Note_on_c, 1, 40, 110
2, 162760, Note_off_c, 1, 40, 64
2, 162964, Note_on_c, 1, 37, 112
2, 163072, Note_off_c, 1, 37, 64
2, 163080, Note_on_c, 1, 39, 95
2, 163196, Note_off_c, 1, 39, 64
2, 163204, Note_on_c, 1, 39, 95
2, 163264, Note_off_c, 1, 39, 64
2, 163444, Note_on_c, 1, 39, 99
2, 163508, Note_off_c, 1, 39, 64
2, 163684, Note_on_c, 1, 39, 115
2, 163924, Note_on_c, 1, 32, 110
2, 163972, Note_off_c, 1, 39, 64
2, 164984, Note_off_c, 1, 32, 64
2, 165124, Note_on_c, 1, 37, 108
2, 165388, Note_off_c, 1, 37, 64
2, 165604, Note_on_c, 1, 37, 112
2, 165912, Note_off_c, 1, 37, 64
2, 166084, Note_on_c, 1, 37, 112
2, 166792, Note_off_c, 1, 37, 64
2, 166804, Note_on_c, 1, 42, 97
2, 166916, Note_off_c, 1, 42, 64
2, 166920, Note_on_c, 1, 40, 112
2, 167040, Note_off_c, 1, 40, 64
2, 167048, Note_on_c, 1, 39, 103
2, 167160, Note_off_c, 1, 39, 64
2, 167284, Note_on_c, 1, 39, 99
2, 167352, Note_off_c, 1, 39, 64
2, 167524, Note_on_c, 1, 39, 110
2, 167584, Note_off_c, 1, 39, 64
2, 167764, Note_on_c, 1, 39, 112
2, 168040, Note_off_c, 1, 39, 64
2, 168244, Note_on_c, 1, 37, 115
2, 168444, Note_off_c, 1, 37, 64
2, 168484, Note_on_c, 1, 39, 115
2, 168860, Note_off_c, 1, 39, 64
2, 168964, Note_on_c, 1, 40, 108
2, 169248, Note_off_c, 1, 40, 64
2, 169444, Note_on_c, 1, 40, 115
2, 169712, Note_off_c, 1, 40, 64
2, 169924, Note_on_c, 1, 40, 120
2, 170488, Note_off_c, 1, 40, 64
2, 170644, Note_on_c, 1, 37, 112
2, 170744, Note_off_c, 1, 37, 64
2, 170760, Note_on_c, 1, 39, 97
2, 170872, Note_off_c, 1, 39, 64
2, 170884, Note_on_c, 1, 39, 97
2, 170964, Note_off_c, 1, 39, 64
2, 171124, Note_on_c, 1, 39, 103
2, 171228, Note_off_c, 1, 39, 64
2, 171364, Note_on_c, 1, 39, 95
2, 171584, Note_off_c, 1, 39, 64
2, 171604, Note_on_c, 1, 32, 108
2, 172568, Note_off_c, 1, 32, 64
2, 172804, Note_on_c, 1, 37, 115
2, 173068, Note_off_c, 1, 37, 64
2, 173284, Note_on_c, 1, 37, 112
2, 173604, Note_off_c, 1, 37, 64
2, 173764, Note_on_c, 1, 37, 112
2, 174304, Note_off_c, 1, 37, 64
2, 174484, Note_on_c, 1, 42, 95
2, 174592, Note_off_c, 1, 42, 64
2, 174600, Note_on_c, 1, 40, 101
2, 174704, Note_off_c, 1, 40, 64
2, 174724, Note_on_c, 1, 39, 108
2, 174804, Note_off_c, 1, 39, 64
2, 174964, Note_on_c, 1, 39, 117
2, 175120, Note_off_c, 1, 39, 64
2, 175444, Note_on_c, 1, 39, 110
2, 175884, Note_off_c, 1, 39, 64
2, 175924, Note_on_c, 1, 37, 103
2, 176112, Note_off_c, 1, 37, 64
2, 176164, Note_on_c, 1, 39, 108
2, 176492, Note_off_c, 1, 39, 64
2, 176644, Note_on_c, 1, 40, 108
2, 176912, Note_off_c, 1, 40, 64
2, 177124, Note_on_c, 1, 40, 110
2, 177400, Note_off_c, 1, 40, 64
2, 177604, Note_on_c, 1, 40, 110
2, 178272, Note_off_c, 1, 40, 64
2, 178324, Note_on_c, 1, 37, 112
2, 178432, Note_off_c, 1, 37, 64
2, 178440, Note_on_c, 1, 39, 110
2, 178552, Note_off_c, 1, 39, 64
2, 178564, Note_on_c, 1, 39, 110
2, 178632, Note_off_c, 1, 39, 64
2, 178804, Note_on_c, 1, 39, 105
2, 178864, Note_off_c, 1, 39, 64
2, 179044, Note_on_c, 1, 39, 112
2, 179284, Note_on_c, 1, 32, 101
2, 179288, Note_off_c, 1, 39, 64
2, 180428, Note_off_c, 1, 32, 64
2, 180488, Note_on_c, 1, 37, 110
2, 180784, Note_off_c, 1, 37, 64
2, 180964, Note_on_c, 1, 37, 110
2, 181272, Note_off_c, 1, 37, 64
2, 181444, Note_on_c, 1, 37, 108
2, 181968, Note_off_c, 1, 37, 64
2, 182164, Note_on_c, 1, 42, 105
2, 182268, Note_off_c, 1, 42, 64
2, 182280, Note_on_c, 1, 40, 95
2, 182392, Note_off_c, 1, 40, 64
2, 182404, Note_on_c, 1, 39, 103
2, 182472, Note_off_c, 1, 39, 64
2, 182644, Note_on_c, 1, 39, 115
2, 182780, Note_off_c, 1, 39, 64
2, 183124, Note_on_c, 1, 39, 115
2, 183568, Note_off_c, 1, 39, 64
2, 183604, Note_on_c, 1, 37, 95
2, 183812, Note_off_c, 1, 37, 64
2, 183844, Note_on_c, 1, 39, 101
2, 184040, Note_off_c, 1, 39, 64
2, 184320, Control_c, 1, 7, 115
2, 184324, Note_on_c, 1, 40, 108
2, 184516, Control_c, 1, 7, 114
2, 184592, Note_off_c, 1, 40, 64
2, 184716, Control_c, 1, 7, 113
2, 184804, Note_on_c, 1, 40, 110
2, 184916, Control_c, 1, 7, 112
2, 185080, Note_off_c, 1, 40, 64
2, 185116, Control_c, 1, 7, 111
2, 185284, Note_on_c, 1, 40, 110
2, 185316, Control_c, 1, 7, 110
2, 185512, Control_c, 1, 7, 109
2, 185712, Control_c, 1, 7, 108
2, 185912, Control_c, 1, 7, 107
2, 185952, Note_off_c, 1, 40, 64
2, 186004, Note_on_c, 1, 37, 112
2, 186112, Note_off_c, 1, 37, 64
2, 186112, Control_c, 1, 7, 106
2, 186120, Note_on_c, 1, 39, 110
2, 186232, Note_off_c, 1, 39, 64
2, 186244, Note_on_c, 1, 39, 110
2, 186312, Note_off_c, 1, 39, 64
2, 186312, Control_c, 1, 7, 105
2, 186484, Note_on_c, 1, 39, 105
2, 186512, Control_c, 1, 7, 104
2, 186544, Note_off_c, 1, 39, 64
2, 186708, Control_c, 1, 7, 103
2, 186724, Note_on_c, 1, 39, 112
2, 186908, Control_c, 1, 7, 102
2, 186964, Note_on_c, 1, 32, 101
2, 186968, Note_off_c, 1, 39, 64
2, 187108, Control_c, 1, 7, 101
2, 187308, Control_c, 1, 7, 100
2, 187508, Control_c, 1, 7, 99
2, 187708, Control_c, 1, 7, 98
2, 187904, Control_c, 1, 7, 97
2, 188104, Control_c, 1, 7, 96
2, 188108, Note_off_c, 1, 32, 64
2, 188168, Note_on_c, 1, 37, 110
2, 188304, Control_c, 1, 7, 95
2, 188464, Note_off_c, 1, 37, 64
2, 188504, Control_c, 1, 7, 94
2, 188644, Note_on_c, 1, 37, 110
2, 188704, Control_c, 1, 7, 93
2, 188904, Control_c, 1, 7, 92
2, 188952, Note_off_c, 1, 37, 64
2, 189100, Control_c, 1, 7, 91
2, 189124, Note_on_c, 1, 37, 108
2, 189300, Control_c, 1, 7, 90
2, 189500, Control_c, 1, 7, 89
2, 189648, Note_off_c, 1, 37, 64
2, 189700, Control_c, 1, 7, 88
2, 189844, Note_on_c, 1, 42, 105
2, 189900, Control_c, 1, 7, 87
2, 189948, Note_off_c, 1, 42, 64
2, 189960, Note_on_c, 1, 40, 95
2, 190072, Note_off_c, 1, 40, 64
2, 190084, Note_on_c, 1, 39, 103
2, 190096, Control_c, 1, 7, 86
2, 190152, Note_off_c, 1, 39, 64
2, 190296, Control_c, 1, 7, 85
2, 190324, Note_on_c, 1, 39, 115
2, 190460, Note_off_c, 1, 39, 64
2, 190496, Control_c, 1, 7, 84
2, 190696, Control_c, 1, 7, 83
2, 190804, Note_on_c, 1, 39, 115
2, 190896, Control_c, 1, 7, 82
2, 191096, Control_c, 1, 7, 81
2, 191248, Note_off_c, 1, 39, 64
2, 191284, Note_on_c, 1, 37, 95
2, 191292, Control_c, 1, 7, 80
2, 191492, Note_off_c, 1, 37, 64
2, 191492, Control_c, 1, 7, 79
2, 191524, Note_on_c, 1, 39, 101
2, 191692, Control_c, 1, 7, 78
2, 191720, Note_off_c, 1, 39, 64
2, 191892, Control_c, 1, 7, 77
2, 192004, Note_on_c, 1, 40, 108
2, 192092, Control_c, 1, 7, 76
2, 192272, Note_off_c, 1, 40, 64
2, 192292, Control_c, 1, 7, 75
2, 192484, Note_on_c, 1, 40, 110
2, 192488, Control_c, 1, 7, 74
2, 192688, Control_c, 1, 7, 73
2, 192760, Note_off_c, 1, 40, 64
2, 192888, Control_c, 1, 7, 72
2, 192964, Note_on_c, 1, 40, 110
2, 193088, Control_c, 1, 7, 71
2, 193288, Control_c, 1, 7, 70
2, 193488, Control_c, 1, 7, 69
2, 193632, Note_off_c, 1, 40, 64
2, 193684, Note_on_c, 1, 37, 112
2, 193684, Control_c, 1, 7, 68
2, 193792, Note_off_c, 1, 37, 64
2, 193800, Note_on_c, 1, 39, 110
2, 193884, Control_c, 1, 7, 67
2, 193912, Note_off_c, 1, 39, 64
2, 193924, Note_on_c, 1, 39, 110
2, 193992, Note_off_c, 1, 39, 64
2, 194084, Control_c, 1, 7, 66
2, 194164, Note_on_c, 1, 39, 105
2, 194224, Note_off_c, 1, 39, 64
2, 194284, Control_c, 1, 7, 65
2, 194404, Note_on_c, 1, 39, 112
2, 194484, Control_c, 1, 7, 64
2, 194644, Note_on_c, 1, 32, 101
2, 194648, Note_off_c, 1, 39, 64
2, 194680, Control_c, 1, 7, 63
2, 194880, Control_c, 1, 7, 62
2, 195080, Control_c, 1, 7, 61
2, 195280, Control_c, 1, 7, 60
2, 195480, Control_c, 1, 7, 59
2, 195680, Control_c, 1, 7, 58
2, 195788, Note_off_c, 1, 32, 64
2, 195848, Note_on_c, 1, 37, 110
2, 195876, Control_c, 1, 7, 57
2, 196076, Control_c, 1, 7, 56
2, 196144, Note_off_c, 1, 37, 64
2, 196276, Control_c, 1, 7, 55
2, 196324, Note_on_c, 1, 37, 110
2, 196476, Control_c, 1, 7, 54
2, 196632, Note_off_c, 1, 37, 64
2, 196676, Control_c, 1, 7, 53
2, 196804, Note_on_c, 1, 37, 108
2, 196876, Control_c, 1, 7, 52
2, 197072, Control_c, 1, 7, 51
2, 197272, Control_c, 1, 7, 50
2, 197328, Note_off_c, 1, 37, 64
2, 197472, Control_c, 1, 7, 49
2, 197524, Note_on_c, 1, 42, 105
2, 197628, Note_off_c, 1, 42, 64
2, 197640, Note_on_c, 1, 40, 95
2, 197672, Control_c, 1, 7, 48
2, 197752, Note_off_c, 1, 40, 64
2, 197764, Note_on_c, 1, 39, 103
2, 197832, Note_off_c, 1, 39, 64
2, 197872, Control_c, 1, 7, 47
2, 198004, Note_on_c, 1, 39, 115
2, 198072, Control_c, 1, 7, 46
2, 198140, Note_off_c, 1, 39, 64
2, 198268, Control_c, 1, 7, 45
2, 198468, Control_c, 1, 7, 44
2, 198484, Note_on_c, 1, 39, 115
2, 198668, Control_c, 1, 7, 43
2, 198868, Control_c, 1, 7, 42
2, 198928, Note_off_c, 1, 39, 64
2, 198964, Note_on_c, 1, 37, 95
2, 199068, Control_c, 1, 7, 41
2, 199172, Note_off_c, 1, 37, 64
2, 199204, Note_on_c, 1, 39, 101
2, 199264, Control_c, 1, 7, 40
2, 199400, Note_off_c, 1, 39, 64
2, 199464, Control_c, 1, 7, 39
2, 199664, Control_c, 1, 7, 38
2, 199684, Note_on_c, 1, 40, 108
2, 199864, Control_c, 1, 7, 37
2, 199952, Note_off_c, 1, 40, 64
2, 200064, Control_c, 1, 7, 36
2, 200164, Note_on_c, 1, 40, 110
2, 200264, Control_c, 1, 7, 35
2, 200440, Note_off_c, 1, 40, 64
2, 200460, Control_c, 1, 7, 34
2, 200644, Note_on_c, 1, 40, 110
2, 200660, Control_c, 1, 7, 33
2, 200860, Control_c, 1, 7, 32
2, 201060, Control_c, 1, 7, 31
2, 201260, Control_c, 1, 7, 30
2, 201312, Note_off_c, 1, 40, 64
2, 201364, Note_on_c, 1, 37, 112
2, 201460, Control_c, 1, 7, 29
2, 201472, Note_off_c, 1, 37, 64
2, 201480, Note_on_c, 1, 39, 110
2, 201592, Note_off_c, 1, 39, 64
2, 201604, Note_on_c, 1, 39, 110
2, 201656, Control_c, 1, 7, 28
2, 201672, Note_off_c, 1, 39, 64
2, 201844, Note_on_c, 1, 39, 105
2, 201856, Control_c, 1, 7, 27
2, 201904, Note_off_c, 1, 39, 64
2, 202056, Control_c, 1, 7, 26
2, 202084, Note_on_c, 1, 39, 112
2, 202256, Control_c, 1, 7, 25
2, 202324, Note_on_c, 1, 32, 101
2, 202328, Note_off_c, 1, 39, 64
2, 202456, Control_c, 1, 7, 24
2, 202656, Control_c, 1, 7, 23
2, 202852, Control_c, 1, 7, 22
2, 203052, Control_c, 1, 7, 21
2, 203252, Control_c, 1, 7, 20
2, 203452, Control_c, 1, 7, 19
2, 203468, Note_off_c, 1, 32, 64
2, 203528, Note_on_c, 1, 37, 110
2, 203652, Control_c, 1, 7, 18
2, 203824, Note_off_c, 1, 37, 64
2, 203848, Control_c, 1, 7, 17
2, 204004, Note_on_c, 1, 37, 110
2, 204048, Control_c, 1, 7, 16
2, 204248, Control_c, 1, 7, 15
2, 204312, Note_off_c, 1, 37, 64
2, 204448, Control_c, 1, 7, 14
2, 204484, Note_on_c, 1, 37, 108
2, 204648, Control_c, 1, 7, 13
2, 204848, Control_c, 1, 7, 12
2, 205008, Note_off_c, 1, 37, 64
2, 205044, Control_c, 1, 7, 11
2, 205204, Note_on_c, 1, 42, 105
2, 205244, Control_c, 1, 7, 10
2, 205308, Note_off_c, 1, 42, 64
2, 205320, Note_on_c, 1, 40, 95
2, 205432, Note_off_c, 1, 40, 64
2, 205444, Note_on_c, 1, 39, 103
2, 205444, Control_c, 1, 7, 9
2, 205512, Note_off_c, 1, 39, 64
2, 205644, Control_c, 1, 7, 8
2, 205684, Note_on_c, 1, 39, 115
2, 205820, Note_off_c, 1, 39, 64
2, 205844, Control_c, 1, 7, 7
2, 206044, Control_c, 1, 7, 6
2, 206164, Note_on_c, 1, 39, 115
2, 206240, Control_c, 1, 7, 5
2, 206440, Control_c, 1, 7, 4
2, 206608, Note_off_c, 1, 39, 64
2, 206640, Control_c, 1, 7, 3
2, 206644, Note_on_c, 1, 37, 95
2, 206840, Control_c, 1, 7, 2
2, 206852, Note_off_c, 1, 37, 64
2, 206884, Note_on_c, 1, 39, 101
2, 207040, Control_c, 1, 7, 1
2, 207080, Note_off_c, 1, 39, 64
2, 207240, Control_c, 1, 7, 0
2, 207240, End_track
3, 0, Start_track
3, 0, Title_t, "Synth Brass 1"
3, 0, MIDI_port, 0
3, 0, Channel_prefix, 2
3, 0, Control_c, 2, 7, 110
3, 0, Program_c, 2, 62
3, 57584, Note_on_c, 2, 76, 105
3, 57584, Note_on_c, 2, 71, 115
3, 57584, Note_on_c, 2, 68, 112
3, 57648, Note_off_c, 2, 68, 64
3, 57648, Note_off_c, 2, 71, 64
3, 57652, Note_off_c, 2, 76, 64
3, 57812, Note_on_c, 2, 76, 105
3, 57816, Note_on_c, 2, 68, 110
3, 57816, Note_on_c, 2, 71, 115
3, 57892, Note_off_c, 2, 71, 64
3, 57892, Note_off_c, 2, 76, 64
3, 57900, Note_off_c, 2, 68, 64
3, 58068, Note_on_c, 2, 76, 105
3, 58072, Note_on_c, 2, 71, 112
3, 58072, Note_on_c, 2, 68, 103
3, 58124, Note_off_c, 2, 76, 64
3, 58128, Note_off_c, 2, 71, 64
3, 58128, Note_off_c, 2, 68, 64
3, 58184, Note_on_c, 2, 68, 101
3, 58184, Note_on_c, 2, 71, 99
3, 58184, Note_on_c, 2, 76, 95
3, 58260, Note_off_c, 2, 71, 64
3, 58260, Note_off_c, 2, 68, 64
3, 58264, Note_off_c, 2, 76, 64
3, 58408, Note_on_c, 2, 68, 112
3, 58412, Note_on_c, 2, 71, 117
3, 58412, Note_on_c, 2, 76, 112
3, 58460, Note_off_c, 2, 68, 64
3, 58464, Note_off_c, 2, 71, 64
3, 58464, Note_off_c, 2, 76, 64
3, 58512, Note_on_c, 2, 71, 97
3, 58516, Note_on_c, 2, 68, 103
3, 58516, Note_on_c, 2, 76, 105
3, 58580, Note_off_c, 2, 68, 64
3, 58584, Note_off_c, 2, 76, 64
3, 58600, Note_off_c, 2, 71, 64
3, 59500, Note_on_c, 2, 76, 110
3, 59500, Note_on_c, 2, 71, 117
3, 59500, Note_on_c, 2, 68, 101
3, 59560, Note_off_c, 2, 68, 64
3, 59560, Note_off_c, 2, 71, 64
3, 59560, Note_off_c, 2, 76, 64
3, 59740, Note_on_c, 2, 76, 112
3, 59740, Note_on_c, 2, 71, 120
3, 59740, Note_on_c, 2, 68, 112
3, 59804, Note_off_c, 2, 68, 64
3, 59804, Note_off_c, 2, 71, 64
3, 59804, Note_off_c, 2, 76, 64
3, 59984, Note_on_c, 2, 68, 112
3, 59984, Note_on_c, 2, 71, 120
3, 59984, Note_on_c, 2, 76, 112
3, 60028, Note_off_c, 2, 76, 64
3, 60032, Note_off_c, 2, 71, 64
3, 60032, Note_off_c, 2, 68, 64
3, 60088, Note_on_c, 2, 76, 101
3, 60088, Note_on_c, 2, 71, 105
3, 60092, Note_on_c, 2, 68, 110
3, 60140, Note_off_c, 2, 76, 64
3, 60148, Note_off_c, 2, 68, 64
3, 60156, Note_off_c, 2, 71, 64
3, 60328, Note_on_c, 2, 68, 112
3, 60332, Note_on_c, 2, 76, 103
3, 60332, Note_on_c, 2, 71, 112
3, 60404, Note_off_c, 2, 71, 64
3, 60404, Note_off_c, 2, 76, 64
3, 60404, Note_off_c, 2, 68, 64
3, 60432, Note_on_c, 2, 68, 115
3, 60436, Note_on_c, 2, 76, 117
3, 60436, Note_on_c, 2, 71, 120
3, 60500, Note_off_c, 2, 68, 64
3, 60520, Note_off_c, 2, 76, 64
3, 60532, Note_off_c, 2, 71, 64
3, 60952, Note_on_c, 2, 66, 112
3, 60956, Note_on_c, 2, 71, 123
3, 61268, Note_off_c, 2, 71, 64
3, 61272, Note_off_c, 2, 66, 64
3, 61412, Note_on_c, 2, 71, 115
3, 61412, Note_on_c, 2, 68, 115
3, 61840, Note_off_c, 2, 68, 64
3, 61840, Note_off_c, 2, 71, 64
3, 63352, Note_on_c, 2, 73, 127
3, 63352, Note_on_c, 2, 70, 117
3, 63952, Note_off_c, 2, 73, 64
3, 63972, Note_off_c, 2, 70, 64
3, 64092, Note_on_c, 2, 71, 115
3, 64096, Note_on_c, 2, 75, 120
3, 65008, Note_off_c, 2, 71, 64
3, 65024, Note_off_c, 2, 75, 64
3, 65272, Note_on_c, 2, 71, 108
3, 65272, Note_on_c, 2, 76, 120
3, 66928, Note_off_c, 2, 71, 64
3, 66964, Note_off_c, 2, 76, 64
3, 67192, Note_on_c, 2, 78, 117
3, 67192, Note_on_c, 2, 73, 117
3, 68132, Note_off_c, 2, 73, 64
3, 68140, Note_off_c, 2, 78, 64
3, 69104, Note_on_c, 2, 71, 115
3, 69104, Note_on_c, 2, 68, 115
3, 70404, Note_off_c, 2, 71, 64
3, 70432, Note_off_c, 2, 68, 64
3, 71032, Note_on_c, 2, 70, 117
3, 71036, Note_on_c, 2, 73, 127
3, 71684, Note_off_c, 2, 70, 64
3, 71692, Note_off_c, 2, 73, 64
3, 71772, Note_on_c, 2, 71, 115
3, 71776, Note_on_c, 2, 75, 127
3, 72780, Note_off_c, 2, 71, 64
3, 72804, Note_off_c, 2, 75, 64
3, 72940, Note_on_c, 2, 71, 112
3, 72940, Note_on_c, 2, 76, 120
3, 74440, Note_off_c, 2, 76, 64
3, 74452, Note_off_c, 2, 71, 64
3, 74876, Note_on_c, 2, 73, 117
3, 74876, Note_on_c, 2, 78, 115
3, 76408, Note_off_c, 2, 78, 64
3, 76408, Note_off_c, 2, 73, 64
3, 76780, Note_on_c, 2, 71, 112
3, 76780, Note_on_c, 2, 76, 120
3, 78340, Note_off_c, 2, 76, 64
3, 78340, Note_off_c, 2, 71, 64
3, 78712, Note_on_c, 2, 70, 112
3, 78716, Note_on_c, 2, 73, 120
3, 79412, Note_off_c, 2, 73, 64
3, 79424, Note_off_c, 2, 70, 64
3, 79432, Note_on_c, 2, 71, 112
3, 79432, Note_on_c, 2, 75, 115
3, 80428, Note_off_c, 2, 75, 64
3, 80432, Note_off_c, 2, 71, 64
3, 80620, Note_on_c, 2, 80, 108
3, 80620, Note_on_c, 2, 78, 117
3, 80620, Note_on_c, 2, 73, 110
3, 81272, Note_off_c, 2, 73, 64
3, 81276, Note_off_c, 2, 80, 64
3, 81280, Note_off_c, 2, 78, 64
3, 81352, Note_on_c, 2, 80, 105
3, 81356, Note_on_c, 2, 77, 108
3, 81356, Note_on_c, 2, 73, 112
3, 82224, Note_off_c, 2, 73, 64
3, 82240, Note_off_c, 2, 77, 64
3, 82244, Note_off_c, 2, 80, 64
3, 82312, Note_on_c, 2, 76, 115
3, 82312, Note_on_c, 2, 80, 117
3, 82312, Note_on_c, 2, 71, 110
3, 83980, Note_off_c, 2, 76, 64
3, 83988, Note_off_c, 2, 71, 64
3, 84004, Note_off_c, 2, 80, 64
3, 126704, Note_on_c, 2, 76, 105
3, 126704, Note_on_c, 2, 71, 115
3, 126704, Note_on_c, 2, 68, 112
3, 126768, Note_off_c, 2, 68, 64
3, 126768, Note_off_c, 2, 71, 64
3, 126772, Note_off_c, 2, 76, 64
3, 126936, Note_on_c, 2, 76, 105
3, 126936, Note_on_c, 2, 68, 110
3, 126936, Note_on_c, 2, 71, 115
3, 127012, Note_off_c, 2, 71, 64
3, 127012, Note_off_c, 2, 76, 64
3, 127020, Note_off_c, 2, 68, 64
3, 127192, Note_on_c, 2, 76, 105
3, 127192, Note_on_c, 2, 71, 112
3, 127192, Note_on_c, 2, 68, 103
3, 127244, Note_off_c, 2, 76, 64
3, 127248, Note_off_c, 2, 71, 64
3, 127248, Note_off_c, 2, 68, 64
3, 127304, Note_on_c, 2, 68, 101
3, 127304, Note_on_c, 2, 71, 99
3, 127304, Note_on_c, 2, 76, 95
3, 127380, Note_off_c, 2, 71, 64
3, 127380, Note_off_c, 2, 68, 64
3, 127384, Note_off_c, 2, 76, 64
3, 127532, Note_on_c, 2, 68, 112
3, 127532, Note_on_c, 2, 71, 117
3, 127532, Note_on_c, 2, 76, 112
3, 127580, Note_off_c, 2, 68, 64
3, 127584, Note_off_c, 2, 71, 64
3, 127584, Note_off_c, 2, 76, 64
3, 127632, Note_on_c, 2, 71, 97
3, 127636, Note_on_c, 2, 68, 103
3, 127636, Note_on_c, 2, 76, 105
3, 127700, Note_off_c, 2, 68, 64
3, 127704, Note_off_c, 2, 76, 64
3, 127720, Note_off_c, 2, 71, 64
3, 128620, Note_on_c, 2, 76, 110
3, 128620, Note_on_c, 2, 71, 117
3, 128620, Note_on_c, 2, 68, 101
3, 128680, Note_off_c, 2, 68, 64
3, 128680, Note_off_c, 2, 71, 64
3, 128680, Note_off_c, 2, 76, 64
3, 128860, Note_on_c, 2, 76, 112
3, 128860, Note_on_c, 2, 71, 120
3, 128860, Note_on_c, 2, 68, 112
3, 128924, Note_off_c, 2, 68, 64
3, 128924, Note_off_c, 2, 71, 64
3, 128924, Note_off_c, 2, 76, 64
3, 129104, Note_on_c, 2, 68, 112
3, 129104, Note_on_c, 2, 71, 120
3, 129104, Note_on_c, 2, 76, 112
3, 129148, Note_off_c, 2, 76, 64
3, 129152, Note_off_c, 2, 71, 64
3, 129152, Note_off_c, 2, 68, 64
3, 129208, Note_on_c, 2, 76, 101
3, 129208, Note_on_c, 2, 71, 105
3, 129212, Note_on_c, 2, 68, 110
3, 129260, Note_off_c, 2, 76, 64
3, 129268, Note_off_c, 2, 68, 64
3, 129272, Note_off_c, 2, 71, 64
3, 129448, Note_on_c, 2, 68, 112
3, 129452, Note_on_c, 2, 76, 103
3, 129452, Note_on_c, 2, 71, 112
3, 129524, Note_off_c, 2, 71, 64
3, 129524, Note_off_c, 2, 76, 64
3, 129524, Note_off_c, 2, 68, 64
3, 129552, Note_on_c, 2, 68, 115
3, 129552, Note_on_c, 2, 76, 117
3, 129556, Note_on_c, 2, 71, 120
3, 129620, Note_off_c, 2, 68, 64
3, 129640, Note_off_c, 2, 76, 64
3, 129652, Note_off_c, 2, 71, 64
3, 130080, Note_on_c, 2, 66, 112
3, 130080, Note_on_c, 2, 71, 123
3, 130388, Note_off_c, 2, 71, 64
3, 130392, Note_off_c, 2, 66, 64
3, 130536, Note_on_c, 2, 71, 115
3, 130540, Note_on_c, 2, 68, 115
3, 130960, Note_off_c, 2, 68, 64
3, 130960, Note_off_c, 2, 71, 64
3, 132468, Note_on_c, 2, 73, 127
3, 132472, Note_on_c, 2, 70, 117
3, 133072, Note_off_c, 2, 73, 64
3, 133092, Note_off_c, 2, 70, 64
3, 133212, Note_on_c, 2, 71, 115
3, 133216, Note_on_c, 2, 75, 120
3, 134128, Note_off_c, 2, 71, 64
3, 134144, Note_off_c, 2, 75, 64
3, 134388, Note_on_c, 2, 71, 108
3, 134392, Note_on_c, 2, 76, 120
3, 136048, Note_off_c, 2, 71, 64
3, 136084, Note_off_c, 2, 76, 64
3, 136316, Note_on_c, 2, 73, 117
3, 136316, Note_on_c, 2, 78, 117
3, 137248, Note_off_c, 2, 73, 64
3, 137260, Note_off_c, 2, 78, 64
3, 138248, Note_on_c, 2, 68, 115
3, 138248, Note_on_c, 2, 71, 115
3, 139540, Note_off_c, 2, 71, 64
3, 139568, Note_off_c, 2, 68, 64
3, 140156, Note_on_c, 2, 70, 117
3, 140156, Note_on_c, 2, 73, 127
3, 140804, Note_off_c, 2, 70, 64
3, 140812, Note_off_c, 2, 73, 64
3, 140892, Note_on_c, 2, 71, 115
3, 140896, Note_on_c, 2, 75, 127
3, 141900, Note_off_c, 2, 71, 64
3, 141924, Note_off_c, 2, 75, 64
3, 142060, Note_on_c, 2, 71, 112
3, 142060, Note_on_c, 2, 76, 120
3, 143560, Note_off_c, 2, 76, 64
3, 143572, Note_off_c, 2, 71, 64
3, 143996, Note_on_c, 2, 73, 117
3, 143996, Note_on_c, 2, 78, 115
3, 145528, Note_off_c, 2, 78, 64
3, 145528, Note_off_c, 2, 73, 64
3, 145928, Note_on_c, 2, 71, 115
3, 145928, Note_on_c, 2, 68, 115
3, 147220, Note_off_c, 2, 71, 64
3, 147248, Note_off_c, 2, 68, 64
3, 147836, Note_on_c, 2, 70, 117
3, 147836, Note_on_c, 2, 73, 127
3, 148484, Note_off_c, 2, 70, 64
3, 148492, Note_off_c, 2, 73, 64
3, 148572, Note_on_c, 2, 71, 115
3, 148576, Note_on_c, 2, 75, 127
3, 149580, Note_off_c, 2, 71, 64
3, 149604, Note_off_c, 2, 75, 64
3, 149740, Note_on_c, 2, 71, 112
3, 149740, Note_on_c, 2, 76, 120
3, 151240, Note_off_c, 2, 76, 64
3, 151252, Note_off_c, 2, 71, 64
3, 151676, Note_on_c, 2, 73, 117
3, 151676, Note_on_c, 2, 78, 115
3, 153208, Note_off_c, 2, 78, 64
3, 153208, Note_off_c, 2, 73, 64
3, 153596, Note_on_c, 2, 68, 115
3, 153596, Note_on_c, 2, 71, 115
3, 154896, Note_off_c, 2, 71, 64
3, 154924, Note_off_c, 2, 68, 64
3, 155516, Note_on_c, 2, 70, 117
3, 155516, Note_on_c, 2, 73, 127
3, 156164, Note_off_c, 2, 70, 64
3, 156172, Note_off_c, 2, 73, 64
3, 156252, Note_on_c, 2, 71, 115
3, 156256, Note_on_c, 2, 75, 127
3, 157260, Note_off_c, 2, 71, 64
3, 157284, Note_off_c, 2, 75, 64
3, 157420, Note_on_c, 2, 71, 112
3, 157420, Note_on_c, 2, 76, 120
3, 158920, Note_off_c, 2, 76, 64
3, 158932, Note_off_c, 2, 71, 64
3, 159356, Note_on_c, 2, 73, 117
3, 159356, Note_on_c, 2, 78, 115
3, 160888, Note_off_c, 2, 78, 64
3, 160888, Note_off_c, 2, 73, 64
3, 161276, Note_on_c, 2, 71, 115
3, 161276, Note_on_c, 2, 68, 115
3, 162576, Note_off_c, 2, 71, 64
3, 162604, Note_off_c, 2, 68, 64
3, 163196, Note_on_c, 2, 70, 117
3, 163196, Note_on_c, 2, 73, 127
3, 163844, Note_off_c, 2, 70, 64
3, 163852, Note_off_c, 2, 73, 64
3, 163932, Note_on_c, 2, 71, 115
3, 163936, Note_on_c, 2, 75, 127
3, 164940, Note_off_c, 2, 71, 64
3, 164964, Note_off_c, 2, 75, 64
3, 165100, Note_on_c, 2, 71, 112
3, 165100, Note_on_c, 2, 76, 120
3, 166600, Note_off_c, 2, 76, 64
3, 166612, Note_off_c, 2, 71, 64
3, 167044, Note_on_c, 2, 73, 117
3, 167044, Note_on_c, 2, 78, 115
3, 168568, Note_off_c, 2, 78, 64
3, 168572, Note_off_c, 2, 73, 64
3, 168956, Note_on_c, 2, 71, 115
3, 168960, Note_on_c, 2, 68, 115
3, 170252, Note_off_c, 2, 71, 64
3, 170284, Note_off_c, 2, 68, 64
3, 170880, Note_on_c, 2, 70, 117
3, 170880, Note_on_c, 2, 73, 127
3, 171524, Note_off_c, 2, 70, 64
3, 171532, Note_off_c, 2, 73, 64
3, 171612, Note_on_c, 2, 71, 115
3, 171616, Note_on_c, 2, 75, 127
3, 172620, Note_off_c, 2, 71, 64
3, 172644, Note_off_c, 2, 75, 64
3, 172780, Note_on_c, 2, 71, 112
3, 172780, Note_on_c, 2, 76, 120
3, 174280, Note_off_c, 2, 76, 64
3, 174292, Note_off_c, 2, 71, 64
3, 174712, Note_on_c, 2, 73, 117
3, 174716, Note_on_c, 2, 78, 115
3, 176248, Note_off_c, 2, 78, 64
3, 176248, Note_off_c, 2, 73, 64
3, 176248, End_track
4, 0, Start_track
4, 0, Title_t, "Acoustic Guitar (steel)"
4, 0, MIDI_port, 0
4, 0, Channel_prefix, 3
4, 0, Control_c, 3, 7, 116
4, 0, Program_c, 3, 25
4, 14404, Note_on_c, 3, 78, 127
4, 14404, Note_on_c, 3, 71, 126
4, 14408, Note_on_c, 3, 68, 127
4, 14700, Note_off_c, 3, 68, 64
4, 14712, Note_off_c, 3, 71, 64
4, 14712, Note_off_c, 3, 78, 64
4, 14884, Note_on_c, 3, 71, 127
4, 14884, Note_on_c, 3, 68, 127
4, 14884, Note_on_c, 3, 76, 126
4, 15232, Note_off_c, 3, 68, 64
4, 15248, Note_off_c, 3, 76, 64
4, 15260, Note_off_c, 3, 71, 64
4, 15600, Note_on_c, 3, 71, 121
4, 15600, Note_on_c, 3, 66, 126
4, 15604, Note_on_c, 3, 63, 127
4, 15648, Note_off_c, 3, 63, 64
4, 15652, Note_off_c, 3, 66, 64
4, 15664, Note_off_c, 3, 71, 64
4, 15960, Note_on_c, 3, 71, 124
4, 15960, Note_on_c, 3, 63, 127
4, 15960, Note_on_c, 3, 66, 127
4, 16000, Note_off_c, 3, 66, 64
4, 16000, Note_off_c, 3, 63, 64
4, 16020, Note_off_c, 3, 71, 64
4, 16328, Note_on_c, 3, 71, 119
4, 16328, Note_on_c, 3, 63, 127
4, 16328, Note_on_c, 3, 66, 127
4, 16372, Note_off_c, 3, 66, 64
4, 16372, Note_off_c, 3, 63, 64
4, 16388, Note_off_c, 3, 71, 64
4, 17520, Note_on_c, 3, 68, 126
4, 17520, Note_on_c, 3, 71, 126
4, 17524, Note_on_c, 3, 64, 127
4, 17564, Note_off_c, 3, 64, 64
4, 17564, Note_off_c, 3, 71, 64
4, 17580, Note_off_c, 3, 68, 64
4, 17880, Note_on_c, 3, 64, 124
4, 17880, Note_on_c, 3, 71, 124
4, 17880, Note_on_c, 3, 68, 121
4, 17908, Note_off_c, 3, 68, 64
4, 17928, Note_off_c, 3, 71, 64
4, 17932, Note_off_c, 3, 64, 64
4, 18244, Note_on_c, 3, 64, 126
4, 18244, Note_on_c, 3, 68, 127
4, 18248, Note_on_c, 3, 71, 121
4, 18284, Note_off_c, 3, 71, 64
4, 18288, Note_off_c, 3, 68, 64
4, 18292, Note_off_c, 3, 64, 64
4, 18484, Note_on_c, 3, 64, 126
4, 18484, Note_on_c, 3, 68, 127
4, 18484, Note_on_c, 3, 71, 115
4, 18532, Note_off_c, 3, 68, 64
4, 18532, Note_off_c, 3, 64, 64
4, 18548, Note_off_c, 3, 71, 64
4, 19440, Note_on_c, 3, 61, 127
4, 19440, Note_on_c, 3, 66, 127
4, 19444, Note_on_c, 3, 70, 121
4, 19484, Note_off_c, 3, 70, 64
4, 19484, Note_off_c, 3, 66, 64
4, 19488, Note_off_c, 3, 61, 64
4, 19800, Note_on_c, 3, 66, 127
4, 19800, Note_on_c, 3, 61, 127
4, 19800, Note_on_c, 3, 70, 119
4, 19840, Note_off_c, 3, 70, 64
4, 19840, Note_off_c, 3, 66, 64
4, 19844, Note_off_c, 3, 61, 64
4, 20168, Note_on_c, 3, 61, 127
4, 20168, Note_on_c, 3, 66, 124
4, 20168, Note_on_c, 3, 70, 126
4, 20180, Note_off_c, 3, 70, 64
4, 20184, Note_off_c, 3, 66, 64
4, 20200, Note_off_c, 3, 61, 64
4, 21360, Note_on_c, 3, 63, 127
4, 21360, Note_on_c, 3, 66, 127
4, 21364, Note_on_c, 3, 70, 119
4, 21400, Note_off_c, 3, 70, 64
4, 21404, Note_off_c, 3, 66, 64
4, 21408, Note_off_c, 3, 63, 64
4, 21720, Note_on_c, 3, 66, 127
4, 21720, Note_on_c, 3, 63, 127
4, 21720, Note_on_c, 3, 70, 124
4, 21760, Note_off_c, 3, 70, 64
4, 21760, Note_off_c, 3, 66, 64
4, 21764, Note_off_c, 3, 63, 64
4, 22088, Note_on_c, 3, 63, 127
4, 22088, Note_on_c, 3, 66, 121
4, 22088, Note_on_c, 3, 70, 106
4, 22088, Note_on_c, 3, 68, 115
4, 22100, Note_off_c, 3, 68, 64
4, 22108, Note_off_c, 3, 70, 64
4, 22120, Note_off_c, 3, 66, 64
4, 22132, Note_off_c, 3, 63, 64
4, 23280, Note_on_c, 3, 68, 127
4, 23280, Note_on_c, 3, 71, 126
4, 23284, Note_on_c, 3, 63, 126
4, 23328, Note_off_c, 3, 63, 64
4, 23340, Note_off_c, 3, 71, 64
4, 23340, Note_off_c, 3, 68, 64
4, 23640, Note_on_c, 3, 71, 119
4, 23640, Note_on_c, 3, 68, 124
4, 23640, Note_on_c, 3, 63, 119
4, 23692, Note_off_c, 3, 63, 64
4, 23692, Note_off_c, 3, 68, 64
4, 23704, Note_off_c, 3, 71, 64
4, 24004, Note_on_c, 3, 68, 126
4, 24004, Note_on_c, 3, 71, 127
4, 24004, Note_on_c, 3, 63, 126
4, 24044, Note_off_c, 3, 63, 64
4, 24044, Note_off_c, 3, 71, 64
4, 24052, Note_off_c, 3, 68, 64
4, 24964, Note_on_c, 3, 68, 127
4, 24964, Note_on_c, 3, 64, 127
4, 24964, Note_on_c, 3, 59, 124
4, 25112, Note_off_c, 3, 68, 64
4, 25128, Note_off_c, 3, 64, 64
4, 25280, Note_off_c, 3, 59, 64
4, 25320, Note_on_c, 3, 64, 127
4, 25320, Note_on_c, 3, 68, 127
4, 25372, Note_off_c, 3, 68, 64
4, 25372, Note_off_c, 3, 64, 64
4, 25680, Note_on_c, 3, 64, 127
4, 25680, Note_on_c, 3, 68, 127
4, 25740, Note_off_c, 3, 68, 64
4, 25740, Note_off_c, 3, 64, 64
4, 27120, Note_on_c, 3, 64, 127
4, 27124, Note_on_c, 3, 68, 127
4, 27124, Note_on_c, 3, 59, 127
4, 27160, Note_off_c, 3, 59, 64
4, 27160, Note_off_c, 3, 68, 64
4, 27164, Note_off_c, 3, 64, 64
4, 27480, Note_on_c, 3, 68, 127
4, 27480, Note_on_c, 3, 64, 127
4, 27480, Note_on_c, 3, 59, 124
4, 27520, Note_off_c, 3, 59, 64
4, 27520, Note_off_c, 3, 64, 64
4, 27528, Note_off_c, 3, 68, 64
4, 27844, Note_on_c, 3, 68, 127
4, 27844, Note_on_c, 3, 64, 127
4, 27844, Note_on_c, 3, 59, 126
4, 27872, Note_off_c, 3, 59, 64
4, 27872, Note_off_c, 3, 64, 64
4, 27880, Note_off_c, 3, 68, 64
4, 27960, Note_on_c, 3, 59, 111
4, 27960, Note_on_c, 3, 68, 121
4, 27960, Note_on_c, 3, 64, 126
4, 28008, Note_off_c, 3, 64, 64
4, 28020, Note_off_c, 3, 68, 64
4, 28028, Note_off_c, 3, 59, 64
4, 29040, Note_on_c, 3, 64, 115
4, 29040, Note_on_c, 3, 68, 119
4, 29044, Note_on_c, 3, 59, 127
4, 29092, Note_off_c, 3, 59, 64
4, 29108, Note_off_c, 3, 68, 64
4, 29108, Note_off_c, 3, 64, 64
4, 29400, Note_on_c, 3, 68, 127
4, 29400, Note_on_c, 3, 64, 119
4, 29400, Note_on_c, 3, 59, 127
4, 29432, Note_off_c, 3, 59, 64
4, 29444, Note_off_c, 3, 64, 64
4, 29464, Note_off_c, 3, 68, 64
4, 30000, Note_on_c, 3, 59, 127
4, 30004, Note_on_c, 3, 64, 126
4, 30004, Note_on_c, 3, 68, 127
4, 30032, Note_off_c, 3, 64, 64
4, 30044, Note_off_c, 3, 59, 64
4, 30044, Note_off_c, 3, 68, 64
4, 30120, Note_on_c, 3, 68, 121
4, 30120, Note_on_c, 3, 64, 111
4, 30124, Note_on_c, 3, 59, 117
4, 30168, Note_off_c, 3, 59, 64
4, 30172, Note_off_c, 3, 68, 64
4, 30180, Note_off_c, 3, 64, 64
4, 30960, Note_on_c, 3, 66, 127
4, 30960, Note_on_c, 3, 63, 127
4, 30964, Note_on_c, 3, 71, 121
4, 31008, Note_off_c, 3, 71, 64
4, 31008, Note_off_c, 3, 63, 64
4, 31012, Note_off_c, 3, 66, 64
4, 31320, Note_on_c, 3, 63, 127
4, 31320, Note_on_c, 3, 71, 115
4, 31320, Note_on_c, 3, 66, 126
4, 31360, Note_off_c, 3, 66, 64
4, 31372, Note_off_c, 3, 71, 64
4, 31372, Note_off_c, 3, 63, 64
4, 31684, Note_on_c, 3, 71, 124
4, 31688, Note_on_c, 3, 63, 127
4, 31688, Note_on_c, 3, 66, 121
4, 31740, Note_off_c, 3, 66, 64
4, 31740, Note_off_c, 3, 63, 64
4, 31760, Note_off_c, 3, 71, 64
4, 32880, Note_on_c, 3, 68, 124
4, 32880, Note_on_c, 3, 64, 115
4, 32884, Note_on_c, 3, 71, 108
4, 32928, Note_off_c, 3, 64, 64
4, 32932, Note_off_c, 3, 68, 64
4, 32940, Note_off_c, 3, 71, 64
4, 33240, Note_on_c, 3, 64, 124
4, 33240, Note_on_c, 3, 68, 119
4, 33240, Note_on_c, 3, 71, 115
4, 33288, Note_off_c, 3, 68, 64
4, 33292, Note_off_c, 3, 64, 64
4, 33300, Note_off_c, 3, 71, 64
4, 33604, Note_on_c, 3, 68, 127
4, 33608, Note_on_c, 3, 64, 121
4, 33608, Note_on_c, 3, 71, 115
4, 33644, Note_off_c, 3, 68, 64
4, 33648, Note_off_c, 3, 64, 64
4, 33664, Note_off_c, 3, 71, 64
4, 34800, Note_on_c, 3, 66, 127
4, 34800, Note_on_c, 3, 70, 115
4, 34804, Note_on_c, 3, 61, 124
4, 34848, Note_off_c, 3, 61, 64
4, 34860, Note_off_c, 3, 66, 64
4, 34864, Note_off_c, 3, 70, 64
4, 35160, Note_on_c, 3, 70, 113
4, 35160, Note_on_c, 3, 66, 127
4, 35160, Note_on_c, 3, 61, 113
4, 35200, Note_off_c, 3, 66, 64
4, 35208, Note_off_c, 3, 61, 64
4, 35220, Note_off_c, 3, 70, 64
4, 35528, Note_on_c, 3, 70, 117
4, 35528, Note_on_c, 3, 66, 117
4, 35528, Note_on_c, 3, 61, 127
4, 35568, Note_off_c, 3, 61, 64
4, 35568, Note_off_c, 3, 66, 64
4, 35584, Note_off_c, 3, 70, 64
4, 36720, Note_on_c, 3, 70, 119
4, 36720, Note_on_c, 3, 63, 126
4, 36724, Note_on_c, 3, 66, 127
4, 36752, Note_off_c, 3, 66, 64
4, 36764, Note_off_c, 3, 63, 64
4, 36768, Note_off_c, 3, 70, 64
4, 37080, Note_on_c, 3, 63, 127
4, 37080, Note_on_c, 3, 66, 119
4, 37080, Note_on_c, 3, 70, 121
4, 37112, Note_off_c, 3, 66, 64
4, 37120, Note_off_c, 3, 63, 64
4, 37124, Note_off_c, 3, 70, 64
4, 37448, Note_on_c, 3, 70, 124
4, 37448, Note_on_c, 3, 63, 127
4, 37448, Note_on_c, 3, 66, 121
4, 37468, Note_off_c, 3, 66, 64
4, 37488, Note_off_c, 3, 63, 64
4, 37508, Note_off_c, 3, 70, 64
4, 38640, Note_on_c, 3, 71, 127
4, 38640, Note_on_c, 3, 68, 127
4, 38644, Note_on_c, 3, 63, 127
4, 38684, Note_off_c, 3, 63, 64
4, 38688, Note_off_c, 3, 68, 64
4, 38700, Note_off_c, 3, 71, 64
4, 39000, Note_on_c, 3, 71, 124
4, 39000, Note_on_c, 3, 68, 127
4, 39000, Note_on_c, 3, 63, 127
4, 39044, Note_off_c, 3, 63, 64
4, 39044, Note_off_c, 3, 68, 64
4, 39048, Note_off_c, 3, 71, 64
4, 39364, Note_on_c, 3, 71, 127
4, 39364, Note_on_c, 3, 63, 127
4, 39364, Note_on_c, 3, 68, 127
4, 39420, Note_off_c, 3, 68, 64
4, 39420, Note_off_c, 3, 63, 64
4, 39428, Note_off_c, 3, 71, 64
4, 40564, Note_on_c, 3, 64, 124
4, 40564, Note_on_c, 3, 68, 127
4, 40564, Note_on_c, 3, 71, 113
4, 40612, Note_off_c, 3, 71, 64
4, 40612, Note_off_c, 3, 68, 64
4, 40620, Note_off_c, 3, 64, 64
4, 40920, Note_on_c, 3, 64, 126
4, 40920, Note_on_c, 3, 68, 127
4, 40920, Note_on_c, 3, 71, 121
4, 40968, Note_off_c, 3, 68, 64
4, 40980, Note_off_c, 3, 71, 64
4, 40984, Note_off_c, 3, 64, 64
4, 41284, Note_on_c, 3, 64, 124
4, 41284, Note_on_c, 3, 68, 127
4, 41284, Note_on_c, 3, 71, 124
4, 41332, Note_off_c, 3, 68, 64
4, 41344, Note_off_c, 3, 71, 64
4, 41348, Note_off_c, 3, 64, 64
4, 42480, Note_on_c, 3, 64, 115
4, 42480, Note_on_c, 3, 68, 127
4, 42484, Note_on_c, 3, 71, 113
4, 42528, Note_off_c, 3, 68, 64
4, 42532, Note_off_c, 3, 71, 64
4, 42544, Note_off_c, 3, 64, 64
4, 42840, Note_on_c, 3, 68, 127
4, 42840, Note_on_c, 3, 64, 115
4, 42840, Note_on_c, 3, 71, 127
4, 42888, Note_off_c, 3, 64, 64
4, 42888, Note_off_c, 3, 68, 64
4, 42900, Note_off_c, 3, 71, 64
4, 43204, Note_on_c, 3, 64, 124
4, 43204, Note_on_c, 3, 68, 127
4, 43204, Note_on_c, 3, 71, 127
4, 43252, Note_off_c, 3, 68, 64
4, 43264, Note_off_c, 3, 64, 64
4, 43264, Note_off_c, 3, 71, 64
4, 44400, Note_on_c, 3, 68, 127
4, 44400, Note_on_c, 3, 64, 115
4, 44404, Note_on_c, 3, 71, 117
4, 44448, Note_off_c, 3, 71, 64
4, 44452, Note_off_c, 3, 64, 64
4, 44452, Note_off_c, 3, 68, 64
4, 44760, Note_on_c, 3, 71, 127
4, 44760, Note_on_c, 3, 64, 117
4, 44760, Note_on_c, 3, 68, 111
4, 44800, Note_off_c, 3, 68, 64
4, 44808, Note_off_c, 3, 64, 64
4, 44820, Note_off_c, 3, 71, 64
4, 45128, Note_on_c, 3, 64, 126
4, 45128, Note_on_c, 3, 68, 127
4, 45128, Note_on_c, 3, 71, 127
4, 45164, Note_off_c, 3, 71, 64
4, 45164, Note_off_c, 3, 68, 64
4, 45172, Note_off_c, 3, 64, 64
4, 45240, Note_on_c, 3, 71, 111
4, 45240, Note_on_c, 3, 68, 127
4, 45244, Note_on_c, 3, 64, 113
4, 45288, Note_off_c, 3, 64, 64
4, 45292, Note_off_c, 3, 68, 64
4, 45304, Note_off_c, 3, 71, 64
4, 46320, Note_on_c, 3, 71, 124
4, 46320, Note_on_c, 3, 66, 126
4, 46320, Note_on_c, 3, 63, 126
4, 46364, Note_off_c, 3, 66, 64
4, 46368, Note_off_c, 3, 63, 64
4, 46372, Note_off_c, 3, 71, 64
4, 46680, Note_on_c, 3, 71, 126
4, 46680, Note_on_c, 3, 63, 127
4, 46680, Note_on_c, 3, 66, 127
4, 46708, Note_off_c, 3, 66, 64
4, 46720, Note_off_c, 3, 63, 64
4, 46724, Note_off_c, 3, 71, 64
4, 47044, Note_on_c, 3, 71, 126
4, 47048, Note_on_c, 3, 66, 126
4, 47048, Note_on_c, 3, 63, 127
4, 47084, Note_off_c, 3, 63, 64
4, 47088, Note_off_c, 3, 66, 64
4, 47108, Note_off_c, 3, 71, 64
4, 48240, Note_on_c, 3, 64, 121
4, 48240, Note_on_c, 3, 68, 127
4, 48244, Note_on_c, 3, 71, 127
4, 48284, Note_off_c, 3, 68, 64
4, 48288, Note_off_c, 3, 64, 64
4, 48292, Note_off_c, 3, 71, 64
4, 48600, Note_on_c, 3, 64, 124
4, 48600, Note_on_c, 3, 68, 126
4, 48600, Note_on_c, 3, 71, 127
4, 48632, Note_off_c, 3, 68, 64
4, 48640, Note_off_c, 3, 71, 64
4, 48644, Note_off_c, 3, 64, 64
4, 48964, Note_on_c, 3, 68, 127
4, 48968, Note_on_c, 3, 71, 127
4, 48968, Note_on_c, 3, 64, 127
4, 49012, Note_off_c, 3, 64, 64
4, 49028, Note_off_c, 3, 68, 64
4, 49032, Note_off_c, 3, 71, 64
4, 50160, Note_on_c, 3, 66, 127
4, 50164, Note_on_c, 3, 70, 121
4, 50164, Note_on_c, 3, 61, 127
4, 50204, Note_off_c, 3, 61, 64
4, 50204, Note_off_c, 3, 70, 64
4, 50212, Note_off_c, 3, 66, 64
4, 50520, Note_on_c, 3, 66, 124
4, 50520, Note_on_c, 3, 61, 127
4, 50520, Note_on_c, 3, 70, 117
4, 50552, Note_off_c, 3, 70, 64
4, 50552, Note_off_c, 3, 61, 64
4, 50556, Note_off_c, 3, 66, 64
4, 50884, Note_on_c, 3, 66, 127
4, 50888, Note_on_c, 3, 70, 124
4, 50888, Note_on_c, 3, 61, 127
4, 50920, Note_off_c, 3, 61, 64
4, 50928, Note_off_c, 3, 70, 64
4, 50940, Note_off_c, 3, 66, 64
4, 52080, Note_on_c, 3, 70, 121
4, 52080, Note_on_c, 3, 66, 127
4, 52084, Note_on_c, 3, 63, 126
4, 52112, Note_off_c, 3, 63, 64
4, 52120, Note_off_c, 3, 66, 64
4, 52128, Note_off_c, 3, 70, 64
4, 52440, Note_on_c, 3, 66, 127
4, 52440, Note_on_c, 3, 70, 115
4, 52440, Note_on_c, 3, 63, 127
4, 52480, Note_off_c, 3, 63, 64
4, 52484, Note_off_c, 3, 70, 64
4, 52484, Note_off_c, 3, 66, 64
4, 52808, Note_on_c, 3, 66, 127
4, 52808, Note_on_c, 3, 70, 121
4, 52808, Note_on_c, 3, 63, 127
4, 52844, Note_off_c, 3, 63, 64
4, 52852, Note_off_c, 3, 70, 64
4, 52860, Note_off_c, 3, 66, 64
4, 54000, Note_on_c, 3, 68, 127
4, 54004, Note_on_c, 3, 71, 126
4, 54004, Note_on_c, 3, 63, 127
4, 54040, Note_off_c, 3, 63, 64
4, 54040, Note_off_c, 3, 71, 64
4, 54044, Note_off_c, 3, 68, 64
4, 54360, Note_on_c, 3, 68, 127
4, 54360, Note_on_c, 3, 71, 127
4, 54360, Note_on_c, 3, 63, 127
4, 54400, Note_off_c, 3, 63, 64
4, 54404, Note_off_c, 3, 68, 64
4, 54408, Note_off_c, 3, 71, 64
4, 54724, Note_on_c, 3, 68, 127
4, 54724, Note_on_c, 3, 71, 127
4, 54724, Note_on_c, 3, 63, 127
4, 54772, Note_off_c, 3, 63, 64
4, 54772, Note_off_c, 3, 71, 64
4, 54784, Note_off_c, 3, 68, 64
4, 55924, Note_on_c, 3, 64, 124
4, 55924, Note_on_c, 3, 68, 127
4, 55924, Note_on_c, 3, 71, 121
4, 55968, Note_off_c, 3, 68, 64
4, 55972, Note_off_c, 3, 71, 64
4, 55984, Note_off_c, 3, 64, 64
4, 56280, Note_on_c, 3, 64, 121
4, 56280, Note_on_c, 3, 68, 127
4, 56280, Note_on_c, 3, 71, 126
4, 56328, Note_off_c, 3, 71, 64
4, 56328, Note_off_c, 3, 68, 64
4, 56340, Note_off_c, 3, 64, 64
4, 56644, Note_on_c, 3, 64, 115
4, 56644, Note_on_c, 3, 68, 127
4, 56644, Note_on_c, 3, 71, 124
4, 56684, Note_off_c, 3, 68, 64
4, 56688, Note_off_c, 3, 71, 64
4, 56704, Note_off_c, 3, 64, 64
4, 57840, Note_on_c, 3, 64, 127
4, 57840, Note_on_c, 3, 68, 127
4, 57844, Note_on_c, 3, 71, 127
4, 57880, Note_off_c, 3, 68, 64
4, 57888, Note_off_c, 3, 64, 64
4, 57888, Note_off_c, 3, 71, 64
4, 58200, Note_on_c, 3, 64, 127
4, 58200, Note_on_c, 3, 68, 127
4, 58200, Note_on_c, 3, 71, 127
4, 58240, Note_off_c, 3, 68, 64
4, 58252, Note_off_c, 3, 64, 64
4, 58252, Note_off_c, 3, 71, 64
4, 58564, Note_on_c, 3, 64, 127
4, 58564, Note_on_c, 3, 68, 127
4, 58564, Note_on_c, 3, 71, 127
4, 58604, Note_off_c, 3, 68, 64
4, 58620, Note_off_c, 3, 64, 64
4, 58624, Note_off_c, 3, 71, 64
4, 59760, Note_on_c, 3, 64, 127
4, 59764, Note_on_c, 3, 68, 127
4, 59764, Note_on_c, 3, 71, 127
4, 59788, Note_off_c, 3, 71, 64
4, 59800, Note_off_c, 3, 68, 64
4, 59808, Note_off_c, 3, 64, 64
4, 60120, Note_on_c, 3, 64, 127
4, 60120, Note_on_c, 3, 68, 127
4, 60120, Note_on_c, 3, 71, 127
4, 60152, Note_off_c, 3, 68, 64
4, 60160, Note_off_c, 3, 71, 64
4, 60168, Note_off_c, 3, 64, 64
4, 60484, Note_on_c, 3, 64, 127
4, 60484, Note_on_c, 3, 68, 127
4, 60484, Note_on_c, 3, 71, 127
4, 60512, Note_off_c, 3, 71, 64
4, 60520, Note_off_c, 3, 68, 64
4, 60528, Note_off_c, 3, 64, 64
4, 60600, Note_on_c, 3, 71, 121
4, 60600, Note_on_c, 3, 64, 126
4, 60604, Note_on_c, 3, 68, 127
4, 60648, Note_off_c, 3, 68, 64
4, 60648, Note_off_c, 3, 64, 64
4, 60660, Note_off_c, 3, 71, 64
4, 61684, Note_on_c, 3, 68, 127
4, 61760, Note_off_c, 3, 68, 64
4, 61924, Note_on_c, 3, 66, 127
4, 62064, Note_off_c, 3, 66, 64
4, 62644, Note_on_c, 3, 68, 127
4, 62704, Note_off_c, 3, 68, 64
4, 62760, Note_on_c, 3, 66, 127
4, 62868, Note_off_c, 3, 66, 64
4, 63124, Note_on_c, 3, 66, 127
4, 63184, Note_off_c, 3, 66, 64
4, 63240, Note_on_c, 3, 66, 126
4, 63312, Note_off_c, 3, 66, 64
4, 65524, Note_on_c, 3, 68, 127
4, 65580, Note_off_c, 3, 68, 64
4, 65764, Note_on_c, 3, 66, 127
4, 65840, Note_off_c, 3, 66, 64
4, 66484, Note_on_c, 3, 68, 127
4, 66540, Note_off_c, 3, 68, 64
4, 66600, Note_on_c, 3, 66, 127
4, 66672, Note_off_c, 3, 66, 64
4, 66964, Note_on_c, 3, 66, 127
4, 67020, Note_off_c, 3, 66, 64
4, 67080, Note_on_c, 3, 66, 127
4, 67148, Note_off_c, 3, 66, 64
4, 67924, Note_on_c, 3, 66, 127
4, 67984, Note_off_c, 3, 66, 64
4, 68040, Note_on_c, 3, 68, 127
4, 68108, Note_off_c, 3, 68, 64
4, 68164, Note_on_c, 3, 66, 127
4, 68252, Note_off_c, 3, 66, 64
4, 69364, Note_on_c, 3, 68, 127
4, 69412, Note_off_c, 3, 68, 64
4, 69604, Note_on_c, 3, 66, 127
4, 69684, Note_off_c, 3, 66, 64
4, 70324, Note_on_c, 3, 68, 127
4, 70368, Note_off_c, 3, 68, 64
4, 70440, Note_on_c, 3, 68, 127
4, 70524, Note_off_c, 3, 68, 64
4, 70804, Note_on_c, 3, 66, 127
4, 70860, Note_off_c, 3, 66, 64
4, 70920, Note_on_c, 3, 68, 121
4, 70984, Note_off_c, 3, 68, 64
4, 73204, Note_on_c, 3, 68, 127
4, 73280, Note_off_c, 3, 68, 64
4, 73444, Note_on_c, 3, 66, 127
4, 73544, Note_off_c, 3, 66, 64
4, 74164, Note_on_c, 3, 68, 127
4, 74220, Note_off_c, 3, 68, 64
4, 74280, Note_on_c, 3, 66, 127
4, 74360, Note_off_c, 3, 66, 64
4, 74644, Note_on_c, 3, 66, 127
4, 74688, Note_off_c, 3, 66, 64
4, 74760, Note_on_c, 3, 66, 127
4, 74820, Note_off_c, 3, 66, 64
4, 75844, Note_on_c, 3, 66, 127
4, 75900, Note_off_c, 3, 66, 64
4, 75960, Note_on_c, 3, 68, 127
4, 76124, Note_off_c, 3, 68, 64
4, 77044, Note_on_c, 3, 68, 127
4, 77108, Note_off_c, 3, 68, 64
4, 77284, Note_on_c, 3, 66, 127
4, 77388, Note_off_c, 3, 66, 64
4, 78004, Note_on_c, 3, 68, 127
4, 78064, Note_off_c, 3, 68, 64
4, 78244, Note_on_c, 3, 68, 127
4, 78328, Note_off_c, 3, 68, 64
4, 78484, Note_on_c, 3, 66, 127
4, 78544, Note_off_c, 3, 66, 64
4, 78604, Note_on_c, 3, 68, 127
4, 78668, Note_off_c, 3, 68, 64
4, 84720, Note_on_c, 3, 63, 127
4, 84720, Note_on_c, 3, 66, 127
4, 84724, Note_on_c, 3, 71, 127
4, 84768, Note_off_c, 3, 71, 64
4, 84768, Note_off_c, 3, 66, 64
4, 84780, Note_off_c, 3, 63, 64
4, 85080, Note_on_c, 3, 63, 127
4, 85080, Note_on_c, 3, 66, 126
4, 85080, Note_on_c, 3, 71, 127
4, 85124, Note_off_c, 3, 71, 64
4, 85124, Note_off_c, 3, 66, 64
4, 85128, Note_off_c, 3, 63, 64
4, 85448, Note_on_c, 3, 66, 127
4, 85448, Note_on_c, 3, 71, 117
4, 85448, Note_on_c, 3, 63, 127
4, 85480, Note_off_c, 3, 63, 64
4, 85488, Note_off_c, 3, 71, 64
4, 85488, Note_off_c, 3, 66, 64
4, 86640, Note_on_c, 3, 64, 124
4, 86640, Note_on_c, 3, 68, 127
4, 86644, Note_on_c, 3, 71, 113
4, 86684, Note_off_c, 3, 68, 64
4, 86688, Note_off_c, 3, 71, 64
4, 86700, Note_off_c, 3, 64, 64
4, 87000, Note_on_c, 3, 64, 124
4, 87000, Note_on_c, 3, 68, 127
4, 87000, Note_on_c, 3, 71, 115
4, 87040, Note_off_c, 3, 71, 64
4, 87044, Note_off_c, 3, 68, 64
4, 87048, Note_off_c, 3, 64, 64
4, 87368, Note_on_c, 3, 64, 124
4, 87368, Note_on_c, 3, 68, 127
4, 87368, Note_on_c, 3, 71, 115
4, 87388, Note_off_c, 3, 71, 64
4, 87392, Note_off_c, 3, 68, 64
4, 87404, Note_off_c, 3, 64, 64
4, 88560, Note_on_c, 3, 66, 127
4, 88560, Note_on_c, 3, 61, 127
4, 88564, Note_on_c, 3, 70, 121
4, 88604, Note_off_c, 3, 70, 64
4, 88608, Note_off_c, 3, 61, 64
4, 88612, Note_off_c, 3, 66, 64
4, 88920, Note_on_c, 3, 61, 127
4, 88920, Note_on_c, 3, 66, 127
4, 88920, Note_on_c, 3, 70, 115
4, 88964, Note_off_c, 3, 70, 64
4, 88968, Note_off_c, 3, 66, 64
4, 88972, Note_off_c, 3, 61, 64
4, 89288, Note_on_c, 3, 61, 127
4, 89288, Note_on_c, 3, 66, 127
4, 89288, Note_on_c, 3, 70, 117
4, 89312, Note_off_c, 3, 66, 64
4, 89324, Note_off_c, 3, 61, 64
4, 89324, Note_off_c, 3, 70, 64
4, 90480, Note_on_c, 3, 66, 127
4, 90484, Note_on_c, 3, 63, 127
4, 90484, Note_on_c, 3, 70, 124
4, 90528, Note_off_c, 3, 63, 64
4, 90532, Note_off_c, 3, 66, 64
4, 90532, Note_off_c, 3, 70, 64
4, 90840, Note_on_c, 3, 66, 127
4, 90840, Note_on_c, 3, 63, 127
4, 90840, Note_on_c, 3, 70, 119
4, 90880, Note_off_c, 3, 70, 64
4, 90888, Note_off_c, 3, 63, 64
4, 90892, Note_off_c, 3, 66, 64
4, 91204, Note_on_c, 3, 63, 127
4, 91204, Note_on_c, 3, 66, 127
4, 91208, Note_on_c, 3, 70, 124
4, 91248, Note_off_c, 3, 66, 64
4, 91252, Note_off_c, 3, 70, 64
4, 91260, Note_off_c, 3, 63, 64
4, 92400, Note_on_c, 3, 68, 127
4, 92400, Note_on_c, 3, 63, 127
4, 92404, Note_on_c, 3, 71, 124
4, 92452, Note_off_c, 3, 71, 64
4, 92452, Note_off_c, 3, 63, 64
4, 92464, Note_off_c, 3, 68, 64
4, 92760, Note_on_c, 3, 68, 127
4, 92760, Note_on_c, 3, 71, 127
4, 92760, Note_on_c, 3, 63, 127
4, 92808, Note_off_c, 3, 63, 64
4, 92808, Note_off_c, 3, 71, 64
4, 92812, Note_off_c, 3, 68, 64
4, 93124, Note_on_c, 3, 71, 127
4, 93124, Note_on_c, 3, 68, 127
4, 93124, Note_on_c, 3, 63, 127
4, 93172, Note_off_c, 3, 63, 64
4, 93192, Note_off_c, 3, 68, 64
4, 93200, Note_off_c, 3, 71, 64
4, 94320, Note_on_c, 3, 64, 126
4, 94324, Note_on_c, 3, 68, 127
4, 94324, Note_on_c, 3, 71, 127
4, 94372, Note_off_c, 3, 68, 64
4, 94388, Note_off_c, 3, 64, 64
4, 94388, Note_off_c, 3, 71, 64
4, 94680, Note_on_c, 3, 64, 126
4, 94680, Note_on_c, 3, 68, 127
4, 94680, Note_on_c, 3, 71, 126
4, 94724, Note_off_c, 3, 71, 64
4, 94724, Note_off_c, 3, 68, 64
4, 94740, Note_off_c, 3, 64, 64
4, 95044, Note_on_c, 3, 64, 126
4, 95044, Note_on_c, 3, 68, 127
4, 95044, Note_on_c, 3, 71, 127
4, 95100, Note_off_c, 3, 68, 64
4, 95104, Note_off_c, 3, 64, 64
4, 95108, Note_off_c, 3, 71, 64
4, 96240, Note_on_c, 3, 64, 126
4, 96240, Note_on_c, 3, 68, 127
4, 96244, Note_on_c, 3, 71, 124
4, 96280, Note_off_c, 3, 71, 64
4, 96280, Note_off_c, 3, 68, 64
4, 96300, Note_off_c, 3, 64, 64
4, 96600, Note_on_c, 3, 64, 121
4, 96600, Note_on_c, 3, 68, 127
4, 96600, Note_on_c, 3, 71, 121
4, 96632, Note_off_c, 3, 68, 64
4, 96644, Note_off_c, 3, 71, 64
4, 96648, Note_off_c, 3, 64, 64
4, 96968, Note_on_c, 3, 64, 127
4, 96968, Note_on_c, 3, 68, 127
4, 96968, Note_on_c, 3, 71, 117
4, 97004, Note_off_c, 3, 68, 64
4, 97012, Note_off_c, 3, 71, 64
4, 97020, Note_off_c, 3, 64, 64
4, 98160, Note_on_c, 3, 64, 127
4, 98164, Note_on_c, 3, 68, 127
4, 98164, Note_on_c, 3, 71, 115
4, 98208, Note_off_c, 3, 71, 64
4, 98208, Note_off_c, 3, 68, 64
4, 98220, Note_off_c, 3, 64, 64
4, 98520, Note_on_c, 3, 64, 126
4, 98520, Note_on_c, 3, 68, 127
4, 98520, Note_on_c, 3, 71, 126
4, 98560, Note_off_c, 3, 68, 64
4, 98564, Note_off_c, 3, 71, 64
4, 98568, Note_off_c, 3, 64, 64
4, 98884, Note_on_c, 3, 64, 127
4, 98884, Note_on_c, 3, 68, 127
4, 98884, Note_on_c, 3, 71, 126
4, 98904, Note_off_c, 3, 71, 64
4, 98908, Note_off_c, 3, 68, 64
4, 98924, Note_off_c, 3, 64, 64
4, 99000, Note_on_c, 3, 71, 124
4, 99000, Note_on_c, 3, 64, 126
4, 99000, Note_on_c, 3, 68, 127
4, 99048, Note_off_c, 3, 68, 64
4, 99048, Note_off_c, 3, 64, 64
4, 99064, Note_off_c, 3, 71, 64
4, 100080, Note_on_c, 3, 71, 124
4, 100080, Note_on_c, 3, 66, 127
4, 100084, Note_on_c, 3, 63, 127
4, 100112, Note_off_c, 3, 63, 64
4, 100120, Note_off_c, 3, 66, 64
4, 100132, Note_off_c, 3, 71, 64
4, 100440, Note_on_c, 3, 71, 126
4, 100440, Note_on_c, 3, 66, 127
4, 100440, Note_on_c, 3, 63, 127
4, 100472, Note_off_c, 3, 63, 64
4, 100480, Note_off_c, 3, 66, 64
4, 100488, Note_off_c, 3, 71, 64
4, 100808, Note_on_c, 3, 71, 121
4, 100808, Note_on_c, 3, 63, 127
4, 100808, Note_on_c, 3, 66, 124
4, 100840, Note_off_c, 3, 66, 64
4, 100852, Note_off_c, 3, 63, 64
4, 100860, Note_off_c, 3, 71, 64
4, 102000, Note_on_c, 3, 68, 119
4, 102000, Note_on_c, 3, 71, 102
4, 102004, Note_on_c, 3, 64, 90
4, 102048, Note_off_c, 3, 64, 64
4, 102048, Note_off_c, 3, 71, 64
4, 102052, Note_off_c, 3, 68, 64
4, 102360, Note_on_c, 3, 64, 113
4, 102360, Note_on_c, 3, 71, 117
4, 102360, Note_on_c, 3, 68, 121
4, 102388, Note_off_c, 3, 68, 64
4, 102408, Note_off_c, 3, 71, 64
4, 102420, Note_off_c, 3, 64, 64
4, 102728, Note_on_c, 3, 71, 117
4, 102728, Note_on_c, 3, 64, 111
4, 102728, Note_on_c, 3, 68, 119
4, 102764, Note_off_c, 3, 68, 64
4, 102780, Note_off_c, 3, 64, 64
4, 102780, Note_off_c, 3, 71, 64
4, 103920, Note_on_c, 3, 61, 126
4, 103920, Note_on_c, 3, 66, 127
4, 103924, Note_on_c, 3, 70, 121
4, 103964, Note_off_c, 3, 70, 64
4, 103964, Note_off_c, 3, 66, 64
4, 103980, Note_off_c, 3, 61, 64
4, 104280, Note_on_c, 3, 66, 127
4, 104280, Note_on_c, 3, 70, 119
4, 104280, Note_on_c, 3, 61, 127
4, 104328, Note_off_c, 3, 61, 64
4, 104328, Note_off_c, 3, 70, 64
4, 104332, Note_off_c, 3, 66, 64
4, 104648, Note_on_c, 3, 66, 127
4, 104648, Note_on_c, 3, 61, 127
4, 104648, Note_on_c, 3, 70, 119
4, 104692, Note_off_c, 3, 70, 64
4, 104692, Note_off_c, 3, 61, 64
4, 104704, Note_off_c, 3, 66, 64
4, 105840, Note_on_c, 3, 63, 127
4, 105840, Note_on_c, 3, 66, 127
4, 105844, Note_on_c, 3, 70, 127
4, 105884, Note_off_c, 3, 70, 64
4, 105884, Note_off_c, 3, 66, 64
4, 105892, Note_off_c, 3, 63, 64
4, 106200, Note_on_c, 3, 66, 127
4, 106200, Note_on_c, 3, 63, 127
4, 106200, Note_on_c, 3, 70, 119
4, 106244, Note_off_c, 3, 70, 64
4, 106244, Note_off_c, 3, 66, 64
4, 106248, Note_off_c, 3, 63, 64
4, 106564, Note_on_c, 3, 66, 127
4, 106568, Note_on_c, 3, 63, 127
4, 106568, Note_on_c, 3, 70, 126
4, 106608, Note_off_c, 3, 70, 64
4, 106608, Note_off_c, 3, 63, 64
4, 106612, Note_off_c, 3, 66, 64
4, 107760, Note_on_c, 3, 68, 127
4, 107760, Note_on_c, 3, 63, 127
4, 107764, Note_on_c, 3, 71, 127
4, 107804, Note_off_c, 3, 71, 64
4, 107812, Note_off_c, 3, 63, 64
4, 107812, Note_off_c, 3, 68, 64
4, 108120, Note_on_c, 3, 68, 127
4, 108120, Note_on_c, 3, 63, 127
4, 108120, Note_on_c, 3, 71, 126
4, 108160, Note_off_c, 3, 71, 64
4, 108168, Note_off_c, 3, 63, 64
4, 108172, Note_off_c, 3, 68, 64
4, 108484, Note_on_c, 3, 63, 127
4, 108484, Note_on_c, 3, 68, 127
4, 108484, Note_on_c, 3, 71, 127
4, 108524, Note_off_c, 3, 68, 64
4, 108540, Note_off_c, 3, 71, 64
4, 108544, Note_off_c, 3, 63, 64
4, 109680, Note_on_c, 3, 64, 126
4, 109680, Note_on_c, 3, 68, 127
4, 109684, Note_on_c, 3, 71, 124
4, 109724, Note_off_c, 3, 68, 64
4, 109728, Note_off_c, 3, 71, 64
4, 109740, Note_off_c, 3, 64, 64
4, 110040, Note_on_c, 3, 64, 127
4, 110040, Note_on_c, 3, 68, 127
4, 110040, Note_on_c, 3, 71, 121
4, 110084, Note_off_c, 3, 71, 64
4, 110084, Note_off_c, 3, 68, 64
4, 110100, Note_off_c, 3, 64, 64
4, 110404, Note_on_c, 3, 64, 126
4, 110404, Note_on_c, 3, 71, 117
4, 110404, Note_on_c, 3, 68, 127
4, 110444, Note_off_c, 3, 68, 64
4, 110460, Note_off_c, 3, 64, 64
4, 110468, Note_off_c, 3, 71, 64
4, 111600, Note_on_c, 3, 64, 126
4, 111600, Note_on_c, 3, 68, 127
4, 111604, Note_on_c, 3, 71, 126
4, 111620, Note_off_c, 3, 71, 64
4, 111640, Note_off_c, 3, 68, 64
4, 111648, Note_off_c, 3, 64, 64
4, 111960, Note_on_c, 3, 64, 126
4, 111960, Note_on_c, 3, 68, 126
4, 111960, Note_on_c, 3, 71, 124
4, 111992, Note_off_c, 3, 71, 64
4, 112008, Note_off_c, 3, 68, 64
4, 112012, Note_off_c, 3, 64, 64
4, 112324, Note_on_c, 3, 68, 127
4, 112324, Note_on_c, 3, 64, 124
4, 112324, Note_on_c, 3, 71, 121
4, 112380, Note_off_c, 3, 64, 64
4, 112380, Note_off_c, 3, 68, 64
4, 112384, Note_off_c, 3, 71, 64
4, 113520, Note_on_c, 3, 68, 127
4, 113520, Note_on_c, 3, 64, 124
4, 113524, Note_on_c, 3, 71, 126
4, 113552, Note_off_c, 3, 71, 64
4, 113568, Note_off_c, 3, 68, 64
4, 113572, Note_off_c, 3, 64, 64
4, 113880, Note_on_c, 3, 64, 127
4, 113880, Note_on_c, 3, 68, 127
4, 113880, Note_on_c, 3, 71, 127
4, 113912, Note_off_c, 3, 71, 64
4, 113912, Note_off_c, 3, 68, 64
4, 113928, Note_off_c, 3, 64, 64
4, 114244, Note_on_c, 3, 64, 127
4, 114244, Note_on_c, 3, 68, 127
4, 114244, Note_on_c, 3, 71, 127
4, 114264, Note_off_c, 3, 71, 64
4, 114268, Note_off_c, 3, 68, 64
4, 114284, Note_off_c, 3, 64, 64
4, 114360, Note_on_c, 3, 64, 115
4, 114360, Note_on_c, 3, 71, 111
4, 114360, Note_on_c, 3, 68, 127
4, 114404, Note_off_c, 3, 68, 64
4, 114412, Note_off_c, 3, 71, 64
4, 114420, Note_off_c, 3, 64, 64
4, 115440, Note_on_c, 3, 66, 127
4, 115440, Note_on_c, 3, 71, 124
4, 115444, Note_on_c, 3, 63, 127
4, 115484, Note_off_c, 3, 63, 64
4, 115492, Note_off_c, 3, 71, 64
4, 115492, Note_off_c, 3, 66, 64
4, 115800, Note_on_c, 3, 63, 127
4, 115800, Note_on_c, 3, 66, 127
4, 115800, Note_on_c, 3, 71, 126
4, 115840, Note_off_c, 3, 71, 64
4, 115840, Note_off_c, 3, 66, 64
4, 115852, Note_off_c, 3, 63, 64
4, 116168, Note_on_c, 3, 66, 127
4, 116168, Note_on_c, 3, 71, 126
4, 116168, Note_on_c, 3, 63, 127
4, 116208, Note_off_c, 3, 63, 64
4, 116208, Note_off_c, 3, 71, 64
4, 116212, Note_off_c, 3, 66, 64
4, 117360, Note_on_c, 3, 64, 126
4, 117360, Note_on_c, 3, 68, 127
4, 117364, Note_on_c, 3, 71, 127
4, 117400, Note_off_c, 3, 71, 64
4, 117400, Note_off_c, 3, 68, 64
4, 117412, Note_off_c, 3, 64, 64
4, 117720, Note_on_c, 3, 64, 127
4, 117720, Note_on_c, 3, 68, 127
4, 117720, Note_on_c, 3, 71, 127
4, 117764, Note_off_c, 3, 68, 64
4, 117768, Note_off_c, 3, 71, 64
4, 117772, Note_off_c, 3, 64, 64
4, 118088, Note_on_c, 3, 64, 126
4, 118088, Note_on_c, 3, 68, 127
4, 118092, Note_on_c, 3, 71, 127
4, 118108, Note_off_c, 3, 68, 64
4, 118120, Note_off_c, 3, 71, 64
4, 118128, Note_off_c, 3, 64, 64
4, 119280, Note_on_c, 3, 66, 127
4, 119280, Note_on_c, 3, 61, 127
4, 119284, Note_on_c, 3, 70, 117
4, 119324, Note_off_c, 3, 70, 64
4, 119332, Note_off_c, 3, 61, 64
4, 119332, Note_off_c, 3, 66, 64
4, 119640, Note_on_c, 3, 66, 126
4, 119640, Note_on_c, 3, 61, 127
4, 119640, Note_on_c, 3, 70, 115
4, 119680, Note_off_c, 3, 70, 64
4, 119684, Note_off_c, 3, 61, 64
4, 119684, Note_off_c, 3, 66, 64
4, 120008, Note_on_c, 3, 61, 127
4, 120008, Note_on_c, 3, 66, 124
4, 120008, Note_on_c, 3, 70, 121
4, 120040, Note_off_c, 3, 70, 64
4, 120048, Note_off_c, 3, 66, 64
4, 120060, Note_off_c, 3, 61, 64
4, 121200, Note_on_c, 3, 63, 127
4, 121200, Note_on_c, 3, 66, 127
4, 121204, Note_on_c, 3, 70, 117
4, 121240, Note_off_c, 3, 66, 64
4, 121252, Note_off_c, 3, 63, 64
4, 121252, Note_off_c, 3, 70, 64
4, 121560, Note_on_c, 3, 66, 126
4, 121560, Note_on_c, 3, 63, 117
4, 121560, Note_on_c, 3, 70, 113
4, 121604, Note_off_c, 3, 63, 64
4, 121608, Note_off_c, 3, 66, 64
4, 121608, Note_off_c, 3, 70, 64
4, 121928, Note_on_c, 3, 63, 127
4, 121928, Note_on_c, 3, 66, 127
4, 121928, Note_on_c, 3, 70, 117
4, 121964, Note_off_c, 3, 66, 64
4, 121968, Note_off_c, 3, 70, 64
4, 121980, Note_off_c, 3, 63, 64
4, 123120, Note_on_c, 3, 68, 127
4, 123120, Note_on_c, 3, 63, 127
4, 123124, Note_on_c, 3, 71, 115
4, 123168, Note_off_c, 3, 71, 64
4, 123184, Note_off_c, 3, 63, 64
4, 123184, Note_off_c, 3, 68, 64
4, 123480, Note_on_c, 3, 68, 127
4, 123480, Note_on_c, 3, 71, 124
4, 123480, Note_on_c, 3, 63, 127
4, 123520, Note_off_c, 3, 71, 64
4, 123524, Note_off_c, 3, 63, 64
4, 123528, Note_off_c, 3, 68, 64
4, 123844, Note_on_c, 3, 68, 127
4, 123844, Note_on_c, 3, 71, 127
4, 123844, Note_on_c, 3, 63, 127
4, 123888, Note_off_c, 3, 71, 64
4, 123904, Note_off_c, 3, 68, 64
4, 123904, Note_off_c, 3, 63, 64
4, 125040, Note_on_c, 3, 64, 124
4, 125040, Note_on_c, 3, 68, 127
4, 125044, Note_on_c, 3, 71, 126
4, 125088, Note_off_c, 3, 68, 64
4, 125092, Note_off_c, 3, 71, 64
4, 125104, Note_off_c, 3, 64, 64
4, 125400, Note_on_c, 3, 64, 124
4, 125400, Note_on_c, 3, 68, 124
4, 125400, Note_on_c, 3, 71, 121
4, 125432, Note_off_c, 3, 71, 64
4, 125444, Note_off_c, 3, 68, 64
4, 125460, Note_off_c, 3, 64, 64
4, 125764, Note_on_c, 3, 64, 126
4, 125768, Note_on_c, 3, 68, 127
4, 125768, Note_on_c, 3, 71, 126
4, 125820, Note_off_c, 3, 68, 64
4, 125824, Note_off_c, 3, 64, 64
4, 125828, Note_off_c, 3, 71, 64
4, 126960, Note_on_c, 3, 68, 127
4, 126960, Note_on_c, 3, 64, 119
4, 126964, Note_on_c, 3, 71, 119
4, 126992, Note_off_c, 3, 71, 64
4, 127004, Note_off_c, 3, 64, 64
4, 127008, Note_off_c, 3, 68, 64
4, 127320, Note_on_c, 3, 64, 126
4, 127320, Note_on_c, 3, 68, 127
4, 127320, Note_on_c, 3, 71, 127
4, 127368, Note_off_c, 3, 68, 64
4, 127372, Note_off_c, 3, 64, 64
4, 127384, Note_off_c, 3, 71, 64
4, 127684, Note_on_c, 3, 64, 126
4, 127684, Note_on_c, 3, 68, 127
4, 127684, Note_on_c, 3, 71, 127
4, 127740, Note_off_c, 3, 68, 64
4, 127744, Note_off_c, 3, 71, 64
4, 127748, Note_off_c, 3, 64, 64
4, 128880, Note_on_c, 3, 64, 127
4, 128880, Note_on_c, 3, 68, 127
4, 128884, Note_on_c, 3, 71, 127
4, 128924, Note_off_c, 3, 71, 64
4, 128928, Note_off_c, 3, 68, 64
4, 128944, Note_off_c, 3, 64, 64
4, 129240, Note_on_c, 3, 68, 127
4, 129240, Note_on_c, 3, 64, 126
4, 129240, Note_on_c, 3, 71, 127
4, 129284, Note_off_c, 3, 71, 64
4, 129288, Note_off_c, 3, 68, 64
4, 129292, Note_off_c, 3, 64, 64
4, 129604, Note_on_c, 3, 64, 127
4, 129604, Note_on_c, 3, 68, 127
4, 129604, Note_on_c, 3, 71, 127
4, 129624, Note_off_c, 3, 71, 64
4, 129640, Note_off_c, 3, 68, 64
4, 129640, Note_off_c, 3, 64, 64
4, 129720, Note_on_c, 3, 71, 111
4, 129720, Note_on_c, 3, 64, 108
4, 129724, Note_on_c, 3, 68, 121
4, 129768, Note_off_c, 3, 68, 64
4, 129768, Note_off_c, 3, 64, 64
4, 129772, Note_off_c, 3, 71, 64
4, 130804, Note_on_c, 3, 68, 127
4, 130868, Note_off_c, 3, 68, 64
4, 131044, Note_on_c, 3, 66, 127
4, 131224, Note_off_c, 3, 66, 64
4, 131764, Note_on_c, 3, 68, 127
4, 131828, Note_off_c, 3, 68, 64
4, 132004, Note_on_c, 3, 68, 127
4, 132104, Note_off_c, 3, 68, 64
4, 132244, Note_on_c, 3, 66, 127
4, 132300, Note_off_c, 3, 66, 64
4, 132364, Note_on_c, 3, 66, 124
4, 132428, Note_off_c, 3, 66, 64
4, 134644, Note_on_c, 3, 68, 127
4, 134700, Note_off_c, 3, 68, 64
4, 134884, Note_on_c, 3, 66, 127
4, 135052, Note_off_c, 3, 66, 64
4, 135364, Note_on_c, 3, 68, 127
4, 135428, Note_off_c, 3, 68, 64
4, 135604, Note_on_c, 3, 68, 127
4, 135664, Note_off_c, 3, 68, 64
4, 135844, Note_on_c, 3, 68, 127
4, 135984, Note_off_c, 3, 68, 64
4, 136084, Note_on_c, 3, 66, 127
4, 136132, Note_off_c, 3, 66, 64
4, 136200, Note_on_c, 3, 66, 126
4, 136268, Note_off_c, 3, 66, 64
4, 137160, Note_on_c, 3, 63, 127
4, 137208, Note_off_c, 3, 63, 64
4, 137284, Note_on_c, 3, 66, 126
4, 137344, Note_off_c, 3, 66, 64
4, 137404, Note_on_c, 3, 68, 127
4, 137712, Note_off_c, 3, 68, 64
4, 138484, Note_on_c, 3, 68, 127
4, 138548, Note_off_c, 3, 68, 64
4, 138724, Note_on_c, 3, 66, 127
4, 138928, Note_off_c, 3, 66, 64
4, 139320, Note_on_c, 3, 68, 127
4, 139404, Note_off_c, 3, 68, 64
4, 139684, Note_on_c, 3, 68, 127
4, 139852, Note_off_c, 3, 68, 64
4, 139924, Note_on_c, 3, 66, 127
4, 139968, Note_off_c, 3, 66, 64
4, 140040, Note_on_c, 3, 66, 127
4, 140104, Note_off_c, 3, 66, 64
4, 142324, Note_on_c, 3, 68, 127
4, 142428, Note_off_c, 3, 68, 64
4, 142564, Note_on_c, 3, 66, 127
4, 142808, Note_off_c, 3, 66, 64
4, 143284, Note_on_c, 3, 68, 127
4, 143348, Note_off_c, 3, 68, 64
4, 143524, Note_on_c, 3, 68, 127
4, 143712, Note_off_c, 3, 68, 64
4, 143764, Note_on_c, 3, 66, 127
4, 143808, Note_off_c, 3, 66, 64
4, 143880, Note_on_c, 3, 66, 127
4, 143960, Note_off_c, 3, 66, 64
4, 144840, Note_on_c, 3, 63, 127
4, 144892, Note_off_c, 3, 63, 64
4, 144964, Note_on_c, 3, 66, 127
4, 145012, Note_off_c, 3, 66, 64
4, 145080, Note_on_c, 3, 68, 127
4, 145340, Note_off_c, 3, 68, 64
4, 146164, Note_on_c, 3, 68, 127
4, 146228, Note_off_c, 3, 68, 64
4, 146404, Note_on_c, 3, 66, 127
4, 146620, Note_off_c, 3, 66, 64
4, 147000, Note_on_c, 3, 68, 127
4, 147160, Note_off_c, 3, 68, 64
4, 147368, Note_on_c, 3, 68, 127
4, 147524, Note_off_c, 3, 68, 64
4, 147604, Note_on_c, 3, 66, 127
4, 147652, Note_off_c, 3, 66, 64
4, 147724, Note_on_c, 3, 66, 127
4, 147788, Note_off_c, 3, 66, 64
4, 150004, Note_on_c, 3, 68, 127
4, 150060, Note_off_c, 3, 68, 64
4, 150244, Note_on_c, 3, 66, 127
4, 150588, Note_off_c, 3, 66, 64
4, 150964, Note_on_c, 3, 68, 127
4, 151032, Note_off_c, 3, 68, 64
4, 151204, Note_on_c, 3, 68, 127
4, 151388, Note_off_c, 3, 68, 64
4, 151444, Note_on_c, 3, 66, 127
4, 151488, Note_off_c, 3, 66, 64
4, 151560, Note_on_c, 3, 66, 127
4, 151632, Note_off_c, 3, 66, 64
4, 152520, Note_on_c, 3, 63, 127
4, 152568, Note_off_c, 3, 63, 64
4, 152644, Note_on_c, 3, 66, 127
4, 152700, Note_off_c, 3, 66, 64
4, 152760, Note_on_c, 3, 68, 127
4, 152972, Note_off_c, 3, 68, 64
4, 153844, Note_on_c, 3, 68, 127
4, 153916, Note_off_c, 3, 68, 64
4, 154084, Note_on_c, 3, 66, 127
4, 154372, Note_off_c, 3, 66, 64
4, 154804, Note_on_c, 3, 68, 127
4, 154860, Note_off_c, 3, 68, 64
4, 155044, Note_on_c, 3, 68, 127
4, 155224, Note_off_c, 3, 68, 64
4, 155284, Note_on_c, 3, 66, 127
4, 155332, Note_off_c, 3, 66, 64
4, 155400, Note_on_c, 3, 66, 127
4, 155468, Note_off_c, 3, 66, 64
4, 157684, Note_on_c, 3, 68, 127
4, 157748, Note_off_c, 3, 68, 64
4, 157924, Note_on_c, 3, 66, 127
4, 158280, Note_off_c, 3, 66, 64
4, 158644, Note_on_c, 3, 68, 127
4, 158704, Note_off_c, 3, 68, 64
4, 158884, Note_on_c, 3, 68, 127
4, 159068, Note_off_c, 3, 68, 64
4, 159124, Note_on_c, 3, 66, 127
4, 159172, Note_off_c, 3, 66, 64
4, 159244, Note_on_c, 3, 66, 127
4, 159304, Note_off_c, 3, 66, 64
4, 160200, Note_on_c, 3, 63, 127
4, 160252, Note_off_c, 3, 63, 64
4, 160324, Note_on_c, 3, 66, 127
4, 160388, Note_off_c, 3, 66, 64
4, 160440, Note_on_c, 3, 68, 127
4, 160804, Note_off_c, 3, 68, 64
4, 161524, Note_on_c, 3, 68, 127
4, 161580, Note_off_c, 3, 68, 64
4, 161764, Note_on_c, 3, 66, 127
4, 162112, Note_off_c, 3, 66, 64
4, 162484, Note_on_c, 3, 68, 127
4, 162540, Note_off_c, 3, 68, 64
4, 162728, Note_on_c, 3, 68, 127
4, 162908, Note_off_c, 3, 68, 64
4, 162964, Note_on_c, 3, 66, 127
4, 163020, Note_off_c, 3, 66, 64
4, 163084, Note_on_c, 3, 66, 127
4, 163148, Note_off_c, 3, 66, 64
4, 165364, Note_on_c, 3, 68, 127
4, 165432, Note_off_c, 3, 68, 64
4, 165604, Note_on_c, 3, 66, 127
4, 165972, Note_off_c, 3, 66, 64
4, 166324, Note_on_c, 3, 68, 127
4, 166392, Note_off_c, 3, 68, 64
4, 166564, Note_on_c, 3, 68, 127
4, 166764, Note_off_c, 3, 68, 64
4, 166804, Note_on_c, 3, 66, 127
4, 166848, Note_off_c, 3, 66, 64
4, 166924, Note_on_c, 3, 66, 127
4, 166992, Note_off_c, 3, 66, 64
4, 167880, Note_on_c, 3, 63, 127
4, 167932, Note_off_c, 3, 63, 64
4, 168004, Note_on_c, 3, 66, 127
4, 168060, Note_off_c, 3, 66, 64
4, 168120, Note_on_c, 3, 68, 127
4, 168340, Note_off_c, 3, 68, 64
4, 169204, Note_on_c, 3, 68, 127
4, 169268, Note_off_c, 3, 68, 64
4, 169444, Note_on_c, 3, 66, 127
4, 169748, Note_off_c, 3, 66, 64
4, 170164, Note_on_c, 3, 68, 127
4, 170220, Note_off_c, 3, 68, 64
4, 170404, Note_on_c, 3, 68, 127
4, 170604, Note_off_c, 3, 68, 64
4, 170644, Note_on_c, 3, 66, 127
4, 170692, Note_off_c, 3, 66, 64
4, 170764, Note_on_c, 3, 66, 127
4, 170832, Note_off_c, 3, 66, 64
4, 173044, Note_on_c, 3, 68, 127
4, 173088, Note_off_c, 3, 68, 64
4, 173284, Note_on_c, 3, 66, 127
4, 173680, Note_off_c, 3, 66, 64
4, 174004, Note_on_c, 3, 68, 127
4, 174052, Note_off_c, 3, 68, 64
4, 174244, Note_on_c, 3, 68, 127
4, 174408, Note_off_c, 3, 68, 64
4, 174484, Note_on_c, 3, 66, 127
4, 174532, Note_off_c, 3, 66, 64
4, 174604, Note_on_c, 3, 66, 127
4, 174672, Note_off_c, 3, 66, 64
4, 175560, Note_on_c, 3, 63, 127
4, 175624, Note_off_c, 3, 63, 64
4, 175684, Note_on_c, 3, 66, 127
4, 175740, Note_off_c, 3, 66, 64
4, 175800, Note_on_c, 3, 68, 127
4, 175984, Note_off_c, 3, 68, 64
4, 176884, Note_on_c, 3, 68, 127
4, 176940, Note_off_c, 3, 68, 64
4, 177124, Note_on_c, 3, 66, 127
4, 177464, Note_off_c, 3, 66, 64
4, 177844, Note_on_c, 3, 68, 127
4, 177900, Note_off_c, 3, 68, 64
4, 178084, Note_on_c, 3, 68, 127
4, 178268, Note_off_c, 3, 68, 64
4, 178324, Note_on_c, 3, 66, 127
4, 178372, Note_off_c, 3, 66, 64
4, 178444, Note_on_c, 3, 66, 127
4, 178508, Note_off_c, 3, 66, 64
4, 180724, Note_on_c, 3, 68, 127
4, 180784, Note_off_c, 3, 68, 64
4, 180964, Note_on_c, 3, 66, 127
4, 181320, Note_off_c, 3, 66, 64
4, 181684, Note_on_c, 3, 68, 127
4, 181744, Note_off_c, 3, 68, 64
4, 181924, Note_on_c, 3, 68, 127
4, 182120, Note_off_c, 3, 68, 64
4, 182164, Note_on_c, 3, 66, 127
4, 182208, Note_off_c, 3, 66, 64
4, 182284, Note_on_c, 3, 66, 127
4, 182352, Note_off_c, 3, 66, 64
4, 183240, Note_on_c, 3, 63, 127
4, 183300, Note_off_c, 3, 63, 64
4, 183364, Note_on_c, 3, 66, 127
4, 183412, Note_off_c, 3, 66, 64
4, 183480, Note_on_c, 3, 68, 127
4, 183712, Note_off_c, 3, 68, 64
4, 184320, Control_c, 3, 7, 70
4, 184564, Note_on_c, 3, 68, 127
4, 184620, Note_off_c, 3, 68, 64
4, 184644, Control_c, 3, 7, 69
4, 184804, Note_on_c, 3, 66, 127
4, 184972, Control_c, 3, 7, 68
4, 185144, Note_off_c, 3, 66, 64
4, 185300, Control_c, 3, 7, 67
4, 185524, Note_on_c, 3, 68, 127
4, 185580, Note_off_c, 3, 68, 64
4, 185628, Control_c, 3, 7, 66
4, 185764, Note_on_c, 3, 68, 127
4, 185948, Note_off_c, 3, 68, 64
4, 185956, Control_c, 3, 7, 65
4, 186004, Note_on_c, 3, 66, 127
4, 186052, Note_off_c, 3, 66, 64
4, 186124, Note_on_c, 3, 66, 127
4, 186188, Note_off_c, 3, 66, 64
4, 186284, Control_c, 3, 7, 64
4, 186612, Control_c, 3, 7, 63
4, 186936, Control_c, 3, 7, 62
4, 187264, Control_c, 3, 7, 61
4, 187592, Control_c, 3, 7, 60
4, 187920, Control_c, 3, 7, 59
4, 188248, Control_c, 3, 7, 58
4, 188404, Note_on_c, 3, 68, 127
4, 188464, Note_off_c, 3, 68, 64
4, 188576, Control_c, 3, 7, 57
4, 188644, Note_on_c, 3, 66, 127
4, 188904, Control_c, 3, 7, 56
4, 189000, Note_off_c, 3, 66, 64
4, 189228, Control_c, 3, 7, 55
4, 189364, Note_on_c, 3, 68, 127
4, 189424, Note_off_c, 3, 68, 64
4, 189556, Control_c, 3, 7, 54
4, 189604, Note_on_c, 3, 68, 127
4, 189800, Note_off_c, 3, 68, 64
4, 189844, Note_on_c, 3, 66, 127
4, 189884, Control_c, 3, 7, 53
4, 189888, Note_off_c, 3, 66, 64
4, 189964, Note_on_c, 3, 66, 127
4, 190032, Note_off_c, 3, 66, 64
4, 190212, Control_c, 3, 7, 52
4, 190540, Control_c, 3, 7, 51
4, 190868, Control_c, 3, 7, 50
4, 190920, Note_on_c, 3, 63, 127
4, 190980, Note_off_c, 3, 63, 64
4, 191044, Note_on_c, 3, 66, 127
4, 191092, Note_off_c, 3, 66, 64
4, 191160, Note_on_c, 3, 68, 127
4, 191196, Control_c, 3, 7, 49
4, 191392, Note_off_c, 3, 68, 64
4, 191520, Control_c, 3, 7, 48
4, 191848, Control_c, 3, 7, 47
4, 192176, Control_c, 3, 7, 46
4, 192244, Note_on_c, 3, 68, 127
4, 192300, Note_off_c, 3, 68, 64
4, 192484, Note_on_c, 3, 66, 127
4, 192504, Control_c, 3, 7, 45
4, 192824, Note_off_c, 3, 66, 64
4, 192832, Control_c, 3, 7, 44
4, 193160, Control_c, 3, 7, 43
4, 193204, Note_on_c, 3, 68, 127
4, 193260, Note_off_c, 3, 68, 64
4, 193444, Note_on_c, 3, 68, 127
4, 193488, Control_c, 3, 7, 42
4, 193628, Note_off_c, 3, 68, 64
4, 193684, Note_on_c, 3, 66, 127
4, 193732, Note_off_c, 3, 66, 64
4, 193804, Note_on_c, 3, 66, 127
4, 193812, Control_c, 3, 7, 41
4, 193868, Note_off_c, 3, 66, 64
4, 194140, Control_c, 3, 7, 40
4, 194468, Control_c, 3, 7, 39
4, 194796, Control_c, 3, 7, 38
4, 195124, Control_c, 3, 7, 37
4, 195452, Control_c, 3, 7, 36
4, 195780, Control_c, 3, 7, 35
4, 196084, Note_on_c, 3, 68, 127
4, 196104, Control_c, 3, 7, 34
4, 196144, Note_off_c, 3, 68, 64
4, 196324, Note_on_c, 3, 66, 127
4, 196432, Control_c, 3, 7, 33
4, 196680, Note_off_c, 3, 66, 64
4, 196760, Control_c, 3, 7, 32
4, 197044, Note_on_c, 3, 68, 127
4, 197088, Control_c, 3, 7, 31
4, 197104, Note_off_c, 3, 68, 64
4, 197284, Note_on_c, 3, 68, 127
4, 197416, Control_c, 3, 7, 30
4, 197480, Note_off_c, 3, 68, 64
4, 197524, Note_on_c, 3, 66, 127
4, 197568, Note_off_c, 3, 66, 64
4, 197644, Note_on_c, 3, 66, 127
4, 197712, Note_off_c, 3, 66, 64
4, 197744, Control_c, 3, 7, 29
4, 198072, Control_c, 3, 7, 28
4, 198396, Control_c, 3, 7, 27
4, 198600, Note_on_c, 3, 63, 127
4, 198660, Note_off_c, 3, 63, 64
4, 198724, Note_on_c, 3, 66, 127
4, 198724, Control_c, 3, 7, 26
4, 198772, Note_off_c, 3, 66, 64
4, 198840, Note_on_c, 3, 68, 127
4, 199052, Control_c, 3, 7, 25
4, 199072, Note_off_c, 3, 68, 64
4, 199380, Control_c, 3, 7, 24
4, 199708, Control_c, 3, 7, 23
4, 199924, Note_on_c, 3, 68, 127
4, 199980, Note_off_c, 3, 68, 64
4, 200036, Control_c, 3, 7, 22
4, 200164, Note_on_c, 3, 66, 127
4, 200364, Control_c, 3, 7, 21
4, 200504, Note_off_c, 3, 66, 64
4, 200688, Control_c, 3, 7, 20
4, 200884, Note_on_c, 3, 68, 127
4, 200940, Note_off_c, 3, 68, 64
4, 201016, Control_c, 3, 7, 19
4, 201124, Note_on_c, 3, 68, 127
4, 201308, Note_off_c, 3, 68, 64
4, 201344, Control_c, 3, 7, 18
4, 201364, Note_on_c, 3, 66, 127
4, 201412, Note_off_c, 3, 66, 64
4, 201484, Note_on_c, 3, 66, 127
4, 201548, Note_off_c, 3, 66, 64
4, 201672, Control_c, 3, 7, 17
4, 202000, Control_c, 3, 7, 16
4, 202328, Control_c, 3, 7, 15
4, 202656, Control_c, 3, 7, 14
4, 202980, Control_c, 3, 7, 13
4, 203308, Control_c, 3, 7, 12
4, 203636, Control_c, 3, 7, 11
4, 203764, Note_on_c, 3, 68, 127
4, 203824, Note_off_c, 3, 68, 64
4, 203964, Control_c, 3, 7, 10
4, 204004, Note_on_c, 3, 66, 127
4, 204292, Control_c, 3, 7, 9
4, 204360, Note_off_c, 3, 66, 64
4, 204620, Control_c, 3, 7, 8
4, 204724, Note_on_c, 3, 68, 127
4, 204784, Note_off_c, 3, 68, 64
4, 204948, Control_c, 3, 7, 7
4, 204964, Note_on_c, 3, 68, 127
4, 205160, Note_off_c, 3, 68, 64
4, 205204, Note_on_c, 3, 66, 127
4, 205248, Note_off_c, 3, 66, 64
4, 205272, Control_c, 3, 7, 6
4, 205324, Note_on_c, 3, 66, 127
4, 205392, Note_off_c, 3, 66, 64
4, 205600, Control_c, 3, 7, 5
4, 205928, Control_c, 3, 7, 4
4, 206256, Control_c, 3, 7, 3
4, 206280, Note_on_c, 3, 63, 127
4, 206340, Note_off_c, 3, 63, 64
4, 206404, Note_on_c, 3, 66, 127
4, 206452, Note_off_c, 3, 66, 64
4, 206520, Note_on_c, 3, 68, 127
4, 206584, Control_c, 3, 7, 2
4, 206752, Note_off_c, 3, 68, 64
4, 206912, Control_c, 3, 7, 1
4, 207240, Control_c, 3, 7, 0
4, 207240, End_track
5, 0, Start_track
5, 0, Title_t, "Rhodes Piano"
5, 0, MIDI_port, 0
5, 0, Channel_prefix, 4
5, 0, Control_c, 4, 7, 127
5, 0, Program_c, 4, 4
5, 4, Note_on_c, 4, 75, 79
5, 4, Note_on_c, 4, 71, 75
5, 4, Note_on_c, 4, 66, 75
5, 4, Note_on_c, 4, 59, 104
5, 120, Control_c, 4, 64, 127
5, 304, Note_off_c, 4, 66, 64
5, 320, Note_off_c, 4, 75, 64
5, 324, Note_off_c, 4, 71, 64
5, 1020, Note_on_c, 4, 75, 104
5, 1020, Note_on_c, 4, 71, 77
5, 1020, Control_c, 4, 64, 0
5, 1140, Control_c, 4, 64, 127
5, 1300, Note_off_c, 4, 71, 64
5, 1320, Note_on_c, 4, 76, 85
5, 1332, Note_off_c, 4, 75, 64
5, 1420, Note_off_c, 4, 76, 64
5, 1680, Note_on_c, 4, 78, 99
5, 1760, Note_off_c, 4, 78, 64
5, 1924, Note_on_c, 4, 71, 72
5, 1924, Note_on_c, 4, 78, 95
5, 1924, Note_on_c, 4, 75, 97
5, 1924, Control_c, 4, 64, 0
5, 1924, Note_on_c, 4, 64, 95
5, 1960, Note_off_c, 4, 59, 64
5, 1980, Control_c, 4, 64, 127
5, 2232, Note_off_c, 4, 71, 64
5, 2232, Note_off_c, 4, 75, 64
5, 2244, Note_off_c, 4, 78, 64
5, 2640, Note_on_c, 4, 71, 97
5, 2640, Note_on_c, 4, 80, 99
5, 2640, Note_on_c, 4, 76, 87
5, 2704, Note_off_c, 4, 71, 64
5, 2708, Note_off_c, 4, 76, 64
5, 2712, Note_off_c, 4, 80, 64
5, 2880, Note_on_c, 4, 71, 99
5, 2884, Note_on_c, 4, 76, 89
5, 2884, Note_on_c, 4, 80, 93
5, 2884, Control_c, 4, 64, 0
5, 3060, Control_c, 4, 64, 127
5, 3220, Note_off_c, 4, 71, 64
5, 3224, Note_off_c, 4, 76, 64
5, 3224, Note_off_c, 4, 80, 64
5, 3832, Note_off_c, 4, 64, 64
5, 3844, Note_on_c, 4, 58, 106
5, 3844, Note_on_c, 4, 73, 87
5, 3844, Note_on_c, 4, 70, 79
5, 3844, Note_on_c, 4, 66, 76
5, 3844, Control_c, 4, 64, 0
5, 3960, Control_c, 4, 64, 127
5, 4336, Note_off_c, 4, 66, 64
5, 4340, Note_off_c, 4, 70, 64
5, 4344, Note_off_c, 4, 73, 64
5, 4800, Note_on_c, 4, 70, 87
5, 4804, Note_on_c, 4, 73, 106
5, 4804, Note_on_c, 4, 66, 89
5, 4804, Control_c, 4, 64, 0
5, 4920, Control_c, 4, 64, 127
5, 5044, Note_off_c, 4, 73, 64
5, 5060, Note_off_c, 4, 66, 64
5, 5064, Note_off_c, 4, 70, 64
5, 5160, Note_on_c, 4, 75, 104
5, 5264, Note_off_c, 4, 75, 64
5, 5520, Note_on_c, 4, 76, 85
5, 5584, Note_off_c, 4, 76, 64
5, 5764, Note_on_c, 4, 80, 101
5, 5764, Note_on_c, 4, 73, 104
5, 5764, Note_on_c, 4, 70, 76
5, 5764, Note_on_c, 4, 63, 106
5, 5764, Control_c, 4, 64, 0
5, 5804, Note_off_c, 4, 58, 64
5, 5880, Control_c, 4, 64, 127
5, 6000, Note_off_c, 4, 80, 64
5, 6044, Note_off_c, 4, 73, 64
5, 6068, Note_off_c, 4, 70, 64
5, 6240, Note_on_c, 4, 78, 106
5, 6332, Note_off_c, 4, 78, 64
5, 6720, Note_off_c, 4, 63, 64
5, 6720, Note_on_c, 4, 70, 81
5, 6724, Note_on_c, 4, 63, 77
5, 6724, Note_on_c, 4, 66, 91
5, 6724, Note_on_c, 4, 75, 76
5, 6780, Control_c, 4, 64, 127
5, 6940, Note_off_c, 4, 75, 64
5, 6948, Note_off_c, 4, 66, 64
5, 6952, Note_off_c, 4, 70, 64
5, 6984, Note_off_c, 4, 63, 64
5, 7200, Note_on_c, 4, 73, 110
5, 7204, Note_on_c, 4, 63, 91
5, 7312, Note_off_c, 4, 73, 64
5, 7672, Note_off_c, 4, 63, 64
5, 7684, Note_on_c, 4, 71, 76
5, 7684, Note_on_c, 4, 68, 81
5, 7684, Note_on_c, 4, 66, 83
5, 7684, Note_on_c, 4, 68, 106
5, 7684, Note_on_c, 4, 63, 68
5, 7688, Note_off_c, 4, 68, 64
5, 7800, Control_c, 4, 64, 127
5, 8608, Note_off_c, 4, 63, 64
5, 8628, Note_off_c, 4, 71, 64
5, 8632, Note_off_c, 4, 66, 64
5, 8640, Note_off_c, 4, 68, 64
5, 8644, Note_on_c, 4, 68, 101
5, 9120, Note_on_c, 4, 66, 81
5, 9280, Note_off_c, 4, 66, 64
5, 9604, Note_on_c, 4, 71, 65
5, 9604, Note_on_c, 4, 64, 75
5, 9604, Note_on_c, 4, 61, 55
5, 9604, Note_on_c, 4, 61, 85
5, 9604, Note_on_c, 4, 68, 82
5, 9608, Note_off_c, 4, 61, 64
5, 9608, Note_off_c, 4, 68, 64
5, 9900, Control_c, 4, 64, 127
5, 10148, Note_off_c, 4, 71, 64
5, 10148, Note_off_c, 4, 64, 64
5, 10160, Note_off_c, 4, 68, 64
5, 10560, Note_on_c, 4, 73, 106
5, 10580, Note_off_c, 4, 61, 64
5, 11512, Note_off_c, 4, 73, 64
5, 11524, Note_on_c, 4, 71, 77
5, 11524, Note_on_c, 4, 64, 68
5, 11524, Note_on_c, 4, 68, 89
5, 11524, Control_c, 4, 64, 0
5, 11524, Note_on_c, 4, 66, 87
5, 11640, Control_c, 4, 64, 127
5, 11788, Note_off_c, 4, 64, 64
5, 11800, Note_off_c, 4, 68, 64
5, 11832, Note_off_c, 4, 71, 64
5, 12540, Note_on_c, 4, 71, 65
5, 12540, Note_on_c, 4, 76, 79
5, 12540, Note_on_c, 4, 80, 67
5, 12540, Control_c, 4, 64, 0
5, 12660, Control_c, 4, 64, 127
5, 12800, Note_off_c, 4, 71, 64
5, 12824, Note_off_c, 4, 80, 64
5, 12828, Note_off_c, 4, 76, 64
5, 13388, Note_off_c, 4, 66, 64
5, 13444, Note_on_c, 4, 83, 73
5, 13444, Note_on_c, 4, 76, 71
5, 13444, Note_on_c, 4, 80, 87
5, 13444, Control_c, 4, 64, 0
5, 13560, Control_c, 4, 64, 127
5, 13704, Note_off_c, 4, 80, 64
5, 13724, Note_off_c, 4, 76, 64
5, 13732, Note_off_c, 4, 83, 64
5, 14404, Note_on_c, 4, 71, 79
5, 14404, Note_on_c, 4, 78, 87
5, 14404, Note_on_c, 4, 68, 77
5, 14404, Control_c, 4, 64, 0
5, 14460, Control_c, 4, 64, 127
5, 14660, Note_off_c, 4, 68, 64
5, 14680, Note_off_c, 4, 78, 64
5, 14700, Note_off_c, 4, 71, 64
5, 14884, Note_on_c, 4, 76, 99
5, 14992, Note_off_c, 4, 76, 64
5, 15368, Control_c, 4, 64, 0
5, 15368, Note_on_c, 4, 71, 89
5, 15368, Note_on_c, 4, 66, 87
5, 15368, Note_on_c, 4, 75, 91
5, 15480, Control_c, 4, 64, 127
5, 15704, Note_off_c, 4, 66, 64
5, 15720, Note_off_c, 4, 75, 64
5, 15732, Note_off_c, 4, 71, 64
5, 16324, Note_on_c, 4, 71, 101
5, 16324, Note_on_c, 4, 66, 101
5, 16324, Note_on_c, 4, 75, 106
5, 16324, Control_c, 4, 64, 0
5, 16380, Control_c, 4, 64, 127
5, 16564, Note_off_c, 4, 66, 64
5, 16588, Note_off_c, 4, 75, 64
5, 16624, Note_off_c, 4, 71, 64
5, 16680, Note_on_c, 4, 76, 114
5, 16824, Note_off_c, 4, 76, 64
5, 16980, Note_on_c, 4, 78, 104
5, 17064, Note_off_c, 4, 78, 64
5, 17284, Control_c, 4, 64, 0
5, 17284, Note_on_c, 4, 75, 99
5, 17284, Note_on_c, 4, 71, 76
5, 17284, Note_on_c, 4, 78, 104
5, 17400, Control_c, 4, 64, 127
5, 17624, Note_off_c, 4, 71, 64
5, 17628, Note_off_c, 4, 75, 64
5, 17632, Note_off_c, 4, 78, 64
5, 18000, Note_on_c, 4, 76, 89
5, 18000, Note_on_c, 4, 71, 99
5, 18004, Note_on_c, 4, 80, 106
5, 18060, Note_off_c, 4, 71, 64
5, 18060, Note_off_c, 4, 76, 64
5, 18064, Note_off_c, 4, 80, 64
5, 18180, Control_c, 4, 64, 0
5, 18244, Note_on_c, 4, 76, 85
5, 18244, Note_on_c, 4, 71, 95
5, 18244, Note_on_c, 4, 80, 89
5, 18360, Control_c, 4, 64, 127
5, 18560, Note_off_c, 4, 71, 64
5, 18572, Note_off_c, 4, 80, 64
5, 18588, Note_off_c, 4, 76, 64
5, 19204, Note_on_c, 4, 66, 73
5, 19204, Note_on_c, 4, 70, 77
5, 19204, Note_on_c, 4, 73, 85
5, 19208, Control_c, 4, 64, 0
5, 19320, Control_c, 4, 64, 127
5, 19664, Note_off_c, 4, 66, 64
5, 19672, Note_off_c, 4, 70, 64
5, 19684, Note_off_c, 4, 73, 64
5, 20164, Control_c, 4, 64, 0
5, 20164, Note_on_c, 4, 66, 87
5, 20164, Note_on_c, 4, 73, 101
5, 20164, Note_on_c, 4, 70, 91
5, 20220, Control_c, 4, 64, 127
5, 20380, Note_off_c, 4, 73, 64
5, 20384, Note_off_c, 4, 70, 64
5, 20400, Note_off_c, 4, 66, 64
5, 20520, Note_on_c, 4, 75, 108
5, 20620, Note_off_c, 4, 75, 64
5, 20884, Note_on_c, 4, 76, 87
5, 20940, Note_off_c, 4, 76, 64
5, 21124, Note_on_c, 4, 80, 106
5, 21124, Note_on_c, 4, 70, 79
5, 21124, Note_on_c, 4, 73, 99
5, 21124, Control_c, 4, 64, 0
5, 21240, Control_c, 4, 64, 127
5, 21384, Note_off_c, 4, 80, 64
5, 21440, Note_off_c, 4, 70, 64
5, 21480, Note_off_c, 4, 73, 64
5, 21604, Note_on_c, 4, 78, 108
5, 21680, Note_off_c, 4, 78, 64
5, 22084, Note_on_c, 4, 75, 106
5, 22084, Note_on_c, 4, 70, 87
5, 22084, Note_on_c, 4, 66, 81
5, 22084, Control_c, 4, 64, 0
5, 22140, Control_c, 4, 64, 127
5, 22448, Note_off_c, 4, 66, 64
5, 22468, Note_off_c, 4, 70, 64
5, 22504, Note_off_c, 4, 75, 64
5, 22564, Note_on_c, 4, 73, 104
5, 22640, Note_off_c, 4, 73, 64
5, 23044, Note_on_c, 4, 71, 77
5, 23044, Note_on_c, 4, 68, 82
5, 23044, Note_on_c, 4, 66, 87
5, 23044, Note_on_c, 4, 63, 64
5, 23048, Control_c, 4, 64, 0
5, 23160, Control_c, 4, 64, 127
5, 23568, Note_off_c, 4, 63, 64
5, 23588, Note_off_c, 4, 66, 64
5, 23588, Note_off_c, 4, 71, 64
5, 23600, Note_off_c, 4, 68, 64
5, 24900, Control_c, 4, 64, 0
5, 24960, Note_on_c, 4, 61, 85
5, 24960, Note_on_c, 4, 71, 81
5, 24960, Note_on_c, 4, 68, 99
5, 24960, Note_on_c, 4, 64, 91
5, 25020, Control_c, 4, 64, 127
5, 25248, Note_off_c, 4, 64, 64
5, 25260, Note_off_c, 4, 61, 64
5, 25268, Note_off_c, 4, 68, 64
5, 25280, Note_off_c, 4, 71, 64
5, 26884, Note_on_c, 4, 71, 106
5, 26884, Control_c, 4, 64, 127
5, 27120, Note_on_c, 4, 76, 114
5, 27660, Note_on_c, 4, 80, 119
5, 28080, Note_on_c, 4, 83, 106
5, 28564, Note_on_c, 4, 88, 112
5, 30364, Note_off_c, 4, 76, 64
5, 30384, Note_off_c, 4, 71, 64
5, 30388, Note_off_c, 4, 83, 64
5, 30392, Note_off_c, 4, 88, 64
5, 30408, Note_off_c, 4, 80, 64
5, 30660, Control_c, 4, 64, 0
5, 30724, Note_on_c, 4, 66, 93
5, 30724, Note_on_c, 4, 71, 78
5, 30724, Note_on_c, 4, 75, 79
5, 30840, Control_c, 4, 64, 127
5, 31192, Note_off_c, 4, 75, 64
5, 31208, Note_off_c, 4, 71, 64
5, 31224, Note_off_c, 4, 66, 64
5, 31620, Control_c, 4, 64, 0
5, 31684, Note_on_c, 4, 71, 83
5, 31684, Note_on_c, 4, 75, 106
5, 31684, Note_on_c, 4, 66, 87
5, 31740, Control_c, 4, 64, 127
5, 31960, Note_off_c, 4, 66, 64
5, 31960, Note_off_c, 4, 75, 64
5, 32020, Note_off_c, 4, 71, 64
5, 32040, Note_on_c, 4, 76, 110
5, 32140, Note_off_c, 4, 76, 64
5, 32404, Note_on_c, 4, 78, 106
5, 32500, Note_off_c, 4, 78, 64
5, 32644, Control_c, 4, 64, 0
5, 32644, Note_on_c, 4, 75, 101
5, 32644, Note_on_c, 4, 71, 79
5, 32644, Note_on_c, 4, 78, 101
5, 32760, Control_c, 4, 64, 127
5, 32932, Note_off_c, 4, 75, 64
5, 32936, Note_off_c, 4, 71, 64
5, 32940, Note_off_c, 4, 78, 64
5, 33360, Note_on_c, 4, 71, 101
5, 33360, Note_on_c, 4, 76, 99
5, 33364, Note_on_c, 4, 80, 97
5, 33420, Control_c, 4, 64, 0
5, 33432, Note_off_c, 4, 71, 64
5, 33448, Note_off_c, 4, 76, 64
5, 33448, Note_off_c, 4, 80, 64
5, 33604, Note_on_c, 4, 76, 93
5, 33604, Note_on_c, 4, 80, 99
5, 33604, Note_on_c, 4, 71, 93
5, 33660, Control_c, 4, 64, 127
5, 33860, Note_off_c, 4, 71, 64
5, 33860, Note_off_c, 4, 80, 64
5, 33872, Note_off_c, 4, 76, 64
5, 34500, Control_c, 4, 64, 0
5, 34564, Note_on_c, 4, 73, 97
5, 34564, Note_on_c, 4, 66, 87
5, 34564, Note_on_c, 4, 70, 87
5, 34620, Control_c, 4, 64, 127
5, 35020, Note_off_c, 4, 66, 64
5, 35028, Note_off_c, 4, 70, 64
5, 35044, Note_off_c, 4, 73, 64
5, 35460, Control_c, 4, 64, 0
5, 35524, Note_on_c, 4, 70, 93
5, 35524, Note_on_c, 4, 66, 89
5, 35524, Note_on_c, 4, 73, 104
5, 35524, Control_c, 4, 64, 127
5, 35740, Note_off_c, 4, 73, 64
5, 35872, Note_off_c, 4, 66, 64
5, 35872, Note_off_c, 4, 70, 64
5, 36004, Note_on_c, 4, 75, 106
5, 36088, Note_off_c, 4, 75, 64
5, 36420, Control_c, 4, 64, 0
5, 36484, Note_on_c, 4, 80, 104
5, 36484, Note_on_c, 4, 73, 99
5, 36484, Note_on_c, 4, 70, 81
5, 36540, Control_c, 4, 64, 127
5, 36772, Note_off_c, 4, 80, 64
5, 36832, Note_off_c, 4, 73, 64
5, 36832, Note_off_c, 4, 70, 64
5, 36964, Note_on_c, 4, 78, 110
5, 37040, Note_off_c, 4, 78, 64
5, 37444, Control_c, 4, 64, 0
5, 37444, Note_on_c, 4, 75, 106
5, 37444, Note_on_c, 4, 70, 85
5, 37444, Note_on_c, 4, 66, 87
5, 37500, Control_c, 4, 64, 127
5, 37792, Note_off_c, 4, 66, 64
5, 37792, Note_off_c, 4, 70, 64
5, 37868, Note_off_c, 4, 75, 64
5, 37924, Note_on_c, 4, 73, 101
5, 38032, Note_off_c, 4, 73, 64
5, 38340, Control_c, 4, 64, 0
5, 38396, Note_on_c, 4, 63, 78
5, 38396, Note_on_c, 4, 68, 79
5, 38396, Note_on_c, 4, 71, 69
5, 38400, Note_on_c, 4, 66, 81
5, 38460, Control_c, 4, 64, 127
5, 38920, Note_off_c, 4, 63, 64
5, 38932, Note_off_c, 4, 71, 64
5, 38944, Note_off_c, 4, 66, 64
5, 38960, Note_off_c, 4, 68, 64
5, 40324, Note_on_c, 4, 68, 87
5, 40324, Note_on_c, 4, 61, 78
5, 40324, Note_on_c, 4, 71, 78
5, 40324, Note_on_c, 4, 64, 83
5, 40380, Control_c, 4, 64, 0
5, 40560, Control_c, 4, 64, 127
5, 40728, Note_off_c, 4, 64, 64
5, 40728, Note_off_c, 4, 71, 64
5, 40732, Note_off_c, 4, 61, 64
5, 40748, Note_off_c, 4, 68, 64
5, 42180, Control_c, 4, 64, 0
5, 42244, Note_on_c, 4, 68, 85
5, 42244, Note_on_c, 4, 64, 85
5, 42244, Note_on_c, 4, 71, 89
5, 42360, Control_c, 4, 64, 127
5, 43204, Note_off_c, 4, 68, 64
5, 43208, Note_off_c, 4, 71, 64
5, 43284, Note_off_c, 4, 64, 64
5, 43500, Note_on_c, 4, 76, 121
5, 43684, Note_off_c, 4, 76, 64
5, 44164, Note_on_c, 4, 83, 104
5, 44280, Note_off_c, 4, 83, 64
5, 45124, Control_c, 4, 64, 0
5, 45124, Note_on_c, 4, 76, 99
5, 45124, Note_on_c, 4, 80, 104
5, 45124, Note_on_c, 4, 83, 89
5, 45240, Control_c, 4, 64, 127
5, 45472, Note_off_c, 4, 83, 64
5, 45480, Note_off_c, 4, 80, 64
5, 45480, Note_off_c, 4, 76, 64
5, 46020, Control_c, 4, 64, 0
5, 46084, Note_on_c, 4, 71, 87
5, 46084, Note_on_c, 4, 66, 82
5, 46088, Note_on_c, 4, 75, 91
5, 46260, Control_c, 4, 64, 127
5, 46552, Note_off_c, 4, 66, 64
5, 46572, Note_off_c, 4, 75, 64
5, 46576, Note_off_c, 4, 71, 64
5, 46980, Control_c, 4, 64, 0
5, 47044, Note_on_c, 4, 71, 87
5, 47044, Note_on_c, 4, 75, 110
5, 47044, Note_on_c, 4, 66, 82
5, 47160, Control_c, 4, 64, 127
5, 47312, Note_off_c, 4, 66, 64
5, 47348, Note_off_c, 4, 75, 64
5, 47404, Note_on_c, 4, 76, 104
5, 47424, Note_off_c, 4, 71, 64
5, 47488, Note_off_c, 4, 76, 64
5, 47700, Note_on_c, 4, 78, 95
5, 47764, Note_off_c, 4, 78, 64
5, 48004, Control_c, 4, 64, 0
5, 48004, Note_on_c, 4, 75, 97
5, 48004, Note_on_c, 4, 71, 79
5, 48008, Note_on_c, 4, 78, 104
5, 48120, Control_c, 4, 64, 127
5, 48312, Note_off_c, 4, 71, 64
5, 48320, Note_off_c, 4, 75, 64
5, 48328, Note_off_c, 4, 78, 64
5, 48720, Note_on_c, 4, 80, 101
5, 48720, Note_on_c, 4, 71, 99
5, 48724, Note_on_c, 4, 76, 91
5, 48788, Note_off_c, 4, 76, 64
5, 48792, Note_off_c, 4, 71, 64
5, 48804, Note_off_c, 4, 80, 64
5, 48900, Control_c, 4, 64, 0
5, 48964, Note_on_c, 4, 71, 101
5, 48964, Note_on_c, 4, 76, 95
5, 48964, Note_on_c, 4, 80, 99
5, 49080, Control_c, 4, 64, 127
5, 49252, Note_off_c, 4, 71, 64
5, 49264, Note_off_c, 4, 80, 64
5, 49272, Note_off_c, 4, 76, 64
5, 49924, Note_on_c, 4, 70, 87
5, 49924, Note_on_c, 4, 73, 101
5, 49924, Note_on_c, 4, 66, 83
5, 49928, Control_c, 4, 64, 0
5, 50040, Control_c, 4, 64, 127
5, 50480, Note_off_c, 4, 66, 64
5, 50520, Note_off_c, 4, 70, 64
5, 50524, Note_off_c, 4, 73, 64
5, 50820, Control_c, 4, 64, 0
5, 50884, Note_on_c, 4, 70, 93
5, 50884, Note_on_c, 4, 73, 101
5, 50884, Note_on_c, 4, 66, 79
5, 50940, Control_c, 4, 64, 127
5, 51180, Note_on_c, 4, 75, 99
5, 51200, Note_off_c, 4, 73, 64
5, 51232, Note_off_c, 4, 66, 64
5, 51248, Note_off_c, 4, 70, 64
5, 51252, Note_off_c, 4, 75, 64
5, 51540, Note_on_c, 4, 76, 85
5, 51612, Note_off_c, 4, 76, 64
5, 51844, Control_c, 4, 64, 0
5, 51844, Note_on_c, 4, 80, 108
5, 51844, Note_on_c, 4, 73, 101
5, 51848, Note_on_c, 4, 70, 85
5, 51960, Control_c, 4, 64, 127
5, 52100, Note_off_c, 4, 80, 64
5, 52172, Note_off_c, 4, 70, 64
5, 52188, Note_off_c, 4, 73, 64
5, 52324, Note_on_c, 4, 78, 108
5, 52420, Note_off_c, 4, 78, 64
5, 52804, Note_on_c, 4, 75, 106
5, 52804, Note_on_c, 4, 70, 91
5, 52804, Note_on_c, 4, 66, 82
5, 52804, Control_c, 4, 64, 0
5, 52920, Control_c, 4, 64, 127
5, 53180, Note_off_c, 4, 66, 64
5, 53188, Note_off_c, 4, 70, 64
5, 53220, Note_off_c, 4, 75, 64
5, 53284, Note_on_c, 4, 73, 106
5, 53388, Note_off_c, 4, 73, 64
5, 53764, Control_c, 4, 64, 0
5, 53764, Note_on_c, 4, 71, 73
5, 53764, Note_on_c, 4, 68, 76
5, 53768, Note_on_c, 4, 66, 87
5, 53768, Note_on_c, 4, 63, 61
5, 53880, Control_c, 4, 64, 127
5, 54280, Note_off_c, 4, 66, 64
5, 54280, Note_off_c, 4, 71, 64
5, 54284, Note_off_c, 4, 63, 64
5, 54312, Note_off_c, 4, 68, 64
5, 55684, Note_on_c, 4, 61, 89
5, 55684, Note_on_c, 4, 68, 97
5, 55684, Note_on_c, 4, 64, 87
5, 55688, Note_on_c, 4, 71, 85
5, 55688, Control_c, 4, 64, 0
5, 55800, Control_c, 4, 64, 127
5, 55952, Note_off_c, 4, 71, 64
5, 55972, Note_off_c, 4, 64, 64
5, 55980, Note_off_c, 4, 68, 64
5, 55980, Note_off_c, 4, 61, 64
5, 57540, Control_c, 4, 64, 0
5, 57604, Note_on_c, 4, 64, 87
5, 57604, Note_on_c, 4, 68, 104
5, 57604, Note_on_c, 4, 71, 85
5, 57660, Control_c, 4, 64, 127
5, 58320, Control_c, 4, 64, 0
5, 58500, Control_c, 4, 64, 127
5, 58792, Note_off_c, 4, 71, 64
5, 58796, Note_off_c, 4, 68, 64
5, 58796, Note_off_c, 4, 64, 64
5, 58804, Note_on_c, 4, 68, 104
5, 58804, Note_on_c, 4, 76, 104
5, 58804, Note_on_c, 4, 71, 104
5, 58992, Note_off_c, 4, 68, 64
5, 59020, Note_off_c, 4, 71, 64
5, 59032, Note_off_c, 4, 76, 64
5, 59524, Note_on_c, 4, 76, 89
5, 59524, Note_on_c, 4, 80, 106
5, 59524, Note_on_c, 4, 83, 87
5, 59580, Control_c, 4, 64, 0
5, 59760, Control_c, 4, 64, 127
5, 59912, Note_off_c, 4, 83, 64
5, 59920, Note_off_c, 4, 76, 64
5, 59924, Note_off_c, 4, 80, 64
5, 61448, Control_c, 4, 64, 0
5, 61448, Note_on_c, 4, 68, 87
5, 61448, Note_on_c, 4, 63, 83
5, 61448, Note_on_c, 4, 71, 85
5, 62164, Control_c, 4, 64, 127
5, 62220, Control_c, 4, 64, 127
5, 62368, Note_off_c, 4, 68, 64
5, 62372, Note_off_c, 4, 63, 64
5, 62412, Note_off_c, 4, 71, 64
5, 63364, Control_c, 4, 64, 0
5, 63368, Note_on_c, 4, 66, 87
5, 63368, Note_on_c, 4, 61, 85
5, 63368, Note_on_c, 4, 70, 89
5, 63480, Control_c, 4, 64, 127
5, 63592, Note_off_c, 4, 61, 64
5, 63612, Note_off_c, 4, 70, 64
5, 63620, Note_off_c, 4, 66, 64
5, 64084, Note_on_c, 4, 68, 91
5, 64084, Note_on_c, 4, 63, 97
5, 64084, Note_on_c, 4, 71, 85
5, 64084, Control_c, 4, 64, 0
5, 64260, Control_c, 4, 64, 127
5, 64304, Note_off_c, 4, 63, 64
5, 64324, Note_off_c, 4, 68, 64
5, 64324, Note_off_c, 4, 71, 64
5, 65284, Control_c, 4, 64, 0
5, 65284, Note_on_c, 4, 68, 101
5, 65288, Note_on_c, 4, 71, 89
5, 65288, Note_on_c, 4, 64, 81
5, 65340, Control_c, 4, 64, 127
5, 66180, Control_c, 4, 64, 0
5, 66228, Note_off_c, 4, 64, 64
5, 66232, Note_off_c, 4, 71, 64
5, 66232, Note_off_c, 4, 68, 64
5, 66232, Note_on_c, 4, 76, 82
5, 66236, Note_on_c, 4, 80, 95
5, 66236, Note_on_c, 4, 83, 70
5, 66236, Note_on_c, 4, 71, 78
5, 66300, Control_c, 4, 64, 127
5, 66764, Note_off_c, 4, 76, 64
5, 66768, Note_off_c, 4, 71, 64
5, 66772, Note_off_c, 4, 80, 64
5, 66780, Note_off_c, 4, 83, 64
5, 67204, Control_c, 4, 64, 1
5, 67208, Note_on_c, 4, 66, 97
5, 67208, Note_on_c, 4, 61, 91
5, 67208, Note_on_c, 4, 70, 99
5, 67324, Control_c, 4, 64, 127
5, 67488, Note_off_c, 4, 61, 64
5, 67500, Note_off_c, 4, 70, 64
5, 67508, Note_off_c, 4, 66, 64
5, 69124, Note_on_c, 4, 68, 95
5, 69124, Note_on_c, 4, 71, 87
5, 69128, Note_on_c, 4, 63, 95
5, 69180, Control_c, 4, 64, 0
5, 69420, Control_c, 4, 64, 127
5, 69460, Note_off_c, 4, 63, 64
5, 69484, Note_off_c, 4, 71, 64
5, 69488, Note_off_c, 4, 68, 64
5, 71044, Control_c, 4, 64, 0
5, 71048, Note_on_c, 4, 66, 101
5, 71048, Note_on_c, 4, 70, 101
5, 71048, Note_on_c, 4, 61, 95
5, 71160, Control_c, 4, 64, 127
5, 71244, Note_off_c, 4, 61, 64
5, 71272, Note_off_c, 4, 70, 64
5, 71272, Note_off_c, 4, 66, 64
5, 71764, Note_on_c, 4, 68, 101
5, 71764, Note_on_c, 4, 63, 99
5, 71764, Note_on_c, 4, 71, 99
5, 71764, Control_c, 4, 64, 0
5, 71880, Control_c, 4, 64, 127
5, 71992, Note_off_c, 4, 63, 64
5, 72004, Note_off_c, 4, 68, 64
5, 72008, Note_off_c, 4, 71, 64
5, 72964, Control_c, 4, 64, 0
5, 72964, Note_on_c, 4, 68, 99
5, 72968, Note_on_c, 4, 64, 83
5, 72968, Note_on_c, 4, 71, 85
5, 73080, Control_c, 4, 64, 127
5, 73860, Control_c, 4, 64, 0
5, 73908, Note_off_c, 4, 71, 64
5, 73912, Note_off_c, 4, 64, 64
5, 73912, Note_off_c, 4, 68, 64
5, 73912, Note_on_c, 4, 83, 78
5, 73916, Note_on_c, 4, 76, 85
5, 73916, Note_on_c, 4, 80, 99
5, 73916, Note_on_c, 4, 71, 80
5, 73980, Control_c, 4, 64, 127
5, 74352, Note_off_c, 4, 80, 64
5, 74360, Note_off_c, 4, 71, 64
5, 74368, Note_off_c, 4, 76, 64
5, 74372, Note_off_c, 4, 83, 64
5, 74888, Control_c, 4, 64, 0
5, 74888, Note_on_c, 4, 66, 89
5, 74888, Note_on_c, 4, 70, 99
5, 74892, Note_on_c, 4, 61, 85
5, 75000, Control_c, 4, 64, 127
5, 76740, Control_c, 4, 64, 0
5, 76792, Note_off_c, 4, 61, 64
5, 76796, Note_off_c, 4, 70, 64
5, 76796, Note_off_c, 4, 66, 64
5, 76804, Note_on_c, 4, 68, 93
5, 76808, Note_on_c, 4, 71, 91
5, 76808, Note_on_c, 4, 63, 85
5, 76860, Control_c, 4, 64, 127
5, 77044, Note_off_c, 4, 63, 64
5, 77080, Note_off_c, 4, 68, 64
5, 77092, Note_off_c, 4, 71, 64
5, 77764, Control_c, 4, 64, 0
5, 77764, Note_on_c, 4, 80, 104
5, 77768, Note_on_c, 4, 75, 93
5, 77768, Note_on_c, 4, 83, 87
5, 77880, Control_c, 4, 64, 127
5, 78004, Note_off_c, 4, 83, 64
5, 78012, Note_off_c, 4, 75, 64
5, 78012, Note_off_c, 4, 80, 64
5, 78660, Control_c, 4, 64, 0
5, 78724, Note_on_c, 4, 66, 97
5, 78724, Note_on_c, 4, 70, 93
5, 78728, Note_on_c, 4, 61, 85
5, 78780, Control_c, 4, 64, 127
5, 79088, Note_off_c, 4, 61, 64
5, 79108, Note_off_c, 4, 70, 64
5, 79108, Note_off_c, 4, 66, 64
5, 79444, Control_c, 4, 64, 0
5, 79444, Note_on_c, 4, 68, 104
5, 79444, Note_on_c, 4, 71, 99
5, 79448, Note_on_c, 4, 63, 99
5, 79560, Control_c, 4, 64, 127
5, 79788, Note_off_c, 4, 63, 64
5, 79788, Note_off_c, 4, 68, 64
5, 79804, Note_off_c, 4, 71, 64
5, 80648, Control_c, 4, 64, 0
5, 80648, Note_on_c, 4, 66, 104
5, 80648, Note_on_c, 4, 68, 104
5, 80652, Note_on_c, 4, 61, 87
5, 80700, Control_c, 4, 64, 127
5, 80892, Note_off_c, 4, 61, 64
5, 80904, Note_off_c, 4, 66, 64
5, 80908, Note_off_c, 4, 68, 64
5, 81364, Note_on_c, 4, 65, 108
5, 81364, Note_on_c, 4, 61, 97
5, 81364, Control_c, 4, 64, 0
5, 81368, Note_on_c, 4, 68, 104
5, 81480, Control_c, 4, 64, 127
5, 82260, Control_c, 4, 64, 0
5, 82308, Note_off_c, 4, 68, 64
5, 82312, Note_off_c, 4, 61, 64
5, 82312, Note_off_c, 4, 65, 64
5, 82312, Note_on_c, 4, 64, 110
5, 82316, Note_on_c, 4, 68, 106
5, 82316, Note_on_c, 4, 59, 91
5, 82380, Control_c, 4, 64, 127
5, 82564, Note_off_c, 4, 59, 64
5, 82568, Note_off_c, 4, 64, 64
5, 82576, Note_off_c, 4, 68, 64
5, 84488, Note_on_c, 4, 75, 97
5, 84488, Note_on_c, 4, 71, 80
5, 84488, Note_on_c, 4, 66, 87
5, 84488, Control_c, 4, 64, 127
5, 84672, Note_off_c, 4, 66, 64
5, 84700, Note_off_c, 4, 71, 64
5, 84700, Note_off_c, 4, 75, 64
5, 85444, Note_on_c, 4, 71, 87
5, 85444, Control_c, 4, 64, 0
5, 85444, Note_on_c, 4, 75, 97
5, 85448, Note_on_c, 4, 66, 87
5, 85560, Control_c, 4, 64, 127
5, 85652, Note_off_c, 4, 66, 64
5, 85700, Note_off_c, 4, 75, 64
5, 85732, Note_off_c, 4, 71, 64
5, 85800, Note_on_c, 4, 76, 97
5, 85888, Note_off_c, 4, 76, 64
5, 86160, Note_on_c, 4, 78, 99
5, 86232, Note_off_c, 4, 78, 64
5, 86404, Control_c, 4, 64, 0
5, 86404, Note_on_c, 4, 78, 101
5, 86404, Note_on_c, 4, 75, 104
5, 86408, Note_on_c, 4, 71, 76
5, 86520, Control_c, 4, 64, 127
5, 86664, Note_off_c, 4, 71, 64
5, 86664, Note_off_c, 4, 75, 64
5, 86684, Note_off_c, 4, 78, 64
5, 87120, Note_on_c, 4, 76, 93
5, 87120, Note_on_c, 4, 71, 99
5, 87124, Note_on_c, 4, 80, 99
5, 87184, Note_off_c, 4, 80, 64
5, 87184, Note_off_c, 4, 71, 64
5, 87188, Note_off_c, 4, 76, 64
5, 87364, Control_c, 4, 64, 0
5, 87364, Note_on_c, 4, 76, 87
5, 87364, Note_on_c, 4, 71, 91
5, 87364, Note_on_c, 4, 80, 97
5, 87480, Control_c, 4, 64, 127
5, 87624, Note_off_c, 4, 80, 64
5, 87628, Note_off_c, 4, 71, 64
5, 87644, Note_off_c, 4, 76, 64
5, 88324, Note_on_c, 4, 73, 95
5, 88324, Note_on_c, 4, 70, 85
5, 88324, Note_on_c, 4, 66, 83
5, 88328, Control_c, 4, 64, 0
5, 88440, Control_c, 4, 64, 127
5, 88624, Note_off_c, 4, 66, 64
5, 88668, Note_off_c, 4, 70, 64
5, 88712, Note_off_c, 4, 73, 64
5, 89284, Control_c, 4, 64, 0
5, 89284, Note_on_c, 4, 73, 104
5, 89284, Note_on_c, 4, 66, 80
5, 89284, Note_on_c, 4, 70, 89
5, 89340, Control_c, 4, 64, 127
5, 89460, Note_off_c, 4, 73, 64
5, 89480, Note_off_c, 4, 70, 64
5, 89532, Note_off_c, 4, 66, 64
5, 89764, Note_on_c, 4, 75, 112
5, 89848, Note_off_c, 4, 75, 64
5, 90244, Note_on_c, 4, 80, 104
5, 90244, Note_on_c, 4, 70, 78
5, 90244, Note_on_c, 4, 73, 97
5, 90300, Control_c, 4, 64, 0
5, 90360, Control_c, 4, 64, 127
5, 90488, Note_off_c, 4, 80, 64
5, 90552, Note_off_c, 4, 70, 64
5, 90560, Note_off_c, 4, 73, 64
5, 90724, Note_on_c, 4, 78, 108
5, 90788, Note_off_c, 4, 78, 64
5, 91204, Note_on_c, 4, 75, 104
5, 91204, Note_on_c, 4, 70, 87
5, 91204, Note_on_c, 4, 66, 83
5, 91260, Control_c, 4, 64, 0
5, 91320, Control_c, 4, 64, 127
5, 91552, Note_off_c, 4, 66, 64
5, 91612, Note_off_c, 4, 70, 64
5, 91640, Note_off_c, 4, 75, 64
5, 91684, Note_on_c, 4, 73, 101
5, 91772, Note_off_c, 4, 73, 64
5, 92164, Note_on_c, 4, 66, 85
5, 92164, Note_on_c, 4, 71, 95
5, 92164, Note_on_c, 4, 68, 91
5, 92168, Note_on_c, 4, 63, 77
5, 92168, Control_c, 4, 64, 0
5, 92280, Control_c, 4, 64, 127
5, 92340, Note_off_c, 4, 63, 64
5, 92344, Note_off_c, 4, 71, 64
5, 92352, Note_off_c, 4, 68, 64
5, 92360, Note_off_c, 4, 66, 64
5, 94084, Control_c, 4, 64, 1
5, 94084, Note_on_c, 4, 61, 73
5, 94084, Note_on_c, 4, 71, 71
5, 94088, Note_on_c, 4, 68, 87
5, 94088, Note_on_c, 4, 64, 81
5, 94380, Control_c, 4, 64, 127
5, 94532, Note_off_c, 4, 68, 64
5, 94540, Note_off_c, 4, 61, 64
5, 94544, Note_off_c, 4, 64, 64
5, 94552, Note_off_c, 4, 71, 64
5, 96004, Note_on_c, 4, 68, 95
5, 96004, Note_on_c, 4, 64, 79
5, 96004, Note_on_c, 4, 71, 81
5, 96008, Control_c, 4, 64, 0
5, 96180, Control_c, 4, 64, 127
5, 96304, Note_off_c, 4, 64, 64
5, 96320, Note_off_c, 4, 68, 64
5, 96340, Note_off_c, 4, 71, 64
5, 96964, Note_on_c, 4, 76, 78
5, 96964, Note_on_c, 4, 80, 89
5, 96964, Note_on_c, 4, 83, 85
5, 96964, Control_c, 4, 64, 0
5, 97080, Control_c, 4, 64, 127
5, 97200, Note_off_c, 4, 76, 64
5, 97220, Note_off_c, 4, 80, 64
5, 97248, Note_off_c, 4, 83, 64
5, 97924, Note_on_c, 4, 92, 104
5, 97924, Note_on_c, 4, 88, 93
5, 97924, Note_on_c, 4, 83, 80
5, 97928, Control_c, 4, 64, 0
5, 98040, Control_c, 4, 64, 127
5, 98184, Note_off_c, 4, 83, 64
5, 98188, Note_off_c, 4, 92, 64
5, 98212, Note_off_c, 4, 88, 64
5, 99844, Note_on_c, 4, 71, 75
5, 99844, Note_on_c, 4, 75, 97
5, 99844, Note_on_c, 4, 66, 72
5, 99848, Control_c, 4, 64, 0
5, 99960, Control_c, 4, 64, 127
5, 100108, Note_off_c, 4, 66, 64
5, 100128, Note_off_c, 4, 75, 64
5, 100172, Note_off_c, 4, 71, 64
5, 100804, Note_on_c, 4, 71, 85
5, 100804, Note_on_c, 4, 75, 91
5, 100804, Note_on_c, 4, 66, 76
5, 100804, Control_c, 4, 64, 0
5, 100920, Control_c, 4, 64, 127
5, 101012, Note_off_c, 4, 66, 64
5, 101032, Note_off_c, 4, 75, 64
5, 101112, Note_off_c, 4, 71, 64
5, 101160, Note_on_c, 4, 76, 95
5, 101252, Note_off_c, 4, 76, 64
5, 101460, Note_on_c, 4, 78, 108
5, 101540, Note_off_c, 4, 78, 64
5, 101764, Note_on_c, 4, 75, 95
5, 101764, Note_on_c, 4, 71, 76
5, 101764, Note_on_c, 4, 78, 95
5, 101768, Control_c, 4, 64, 0
5, 101820, Control_c, 4, 64, 127
5, 102060, Note_off_c, 4, 71, 64
5, 102064, Note_off_c, 4, 78, 64
5, 102068, Note_off_c, 4, 75, 64
5, 102480, Note_on_c, 4, 71, 89
5, 102480, Note_on_c, 4, 76, 85
5, 102484, Note_on_c, 4, 80, 99
5, 102544, Note_off_c, 4, 80, 64
5, 102548, Note_off_c, 4, 76, 64
5, 102552, Note_off_c, 4, 71, 64
5, 102724, Note_on_c, 4, 71, 91
5, 102724, Note_on_c, 4, 80, 89
5, 102724, Note_on_c, 4, 76, 77
5, 102724, Control_c, 4, 64, 0
5, 102840, Control_c, 4, 64, 127
5, 103040, Note_off_c, 4, 80, 64
5, 103044, Note_off_c, 4, 71, 64
5, 103060, Note_off_c, 4, 76, 64
5, 103684, Note_on_c, 4, 70, 73
5, 103684, Note_on_c, 4, 66, 70
5, 103684, Note_on_c, 4, 73, 81
5, 103688, Control_c, 4, 64, 0
5, 103800, Control_c, 4, 64, 127
5, 104000, Note_off_c, 4, 66, 64
5, 104024, Note_off_c, 4, 73, 64
5, 104060, Note_off_c, 4, 70, 64
5, 104644, Note_on_c, 4, 66, 78
5, 104644, Note_on_c, 4, 73, 99
5, 104644, Note_on_c, 4, 70, 83
5, 104644, Control_c, 4, 64, 0
5, 104760, Control_c, 4, 64, 127
5, 104812, Note_off_c, 4, 73, 64
5, 104852, Note_off_c, 4, 70, 64
5, 104908, Note_off_c, 4, 66, 64
5, 105124, Note_on_c, 4, 75, 106
5, 105204, Note_off_c, 4, 75, 64
5, 105596, Note_on_c, 4, 70, 78
5, 105596, Note_on_c, 4, 73, 87
5, 105596, Note_on_c, 4, 80, 97
5, 105660, Control_c, 4, 64, 0
5, 105720, Control_c, 4, 64, 127
5, 105864, Note_off_c, 4, 80, 64
5, 105972, Note_off_c, 4, 70, 64
5, 105988, Note_off_c, 4, 73, 64
5, 106084, Note_on_c, 4, 78, 106
5, 106180, Note_off_c, 4, 78, 64
5, 106564, Note_on_c, 4, 75, 99
5, 106564, Note_on_c, 4, 66, 85
5, 106564, Note_on_c, 4, 70, 87
5, 106620, Control_c, 4, 64, 0
5, 106680, Control_c, 4, 64, 127
5, 106964, Note_off_c, 4, 70, 64
5, 106968, Note_off_c, 4, 66, 64
5, 107044, Note_on_c, 4, 73, 101
5, 107056, Note_off_c, 4, 75, 64
5, 107124, Note_off_c, 4, 73, 64
5, 107524, Note_on_c, 4, 71, 73
5, 107524, Note_on_c, 4, 66, 76
5, 107524, Note_on_c, 4, 68, 77
5, 107524, Note_on_c, 4, 63, 68
5, 107528, Control_c, 4, 64, 0
5, 107640, Control_c, 4, 64, 127
5, 108020, Note_off_c, 4, 63, 64
5, 108028, Note_off_c, 4, 71, 64
5, 108044, Note_off_c, 4, 66, 64
5, 108048, Note_off_c, 4, 68, 64
5, 109444, Note_on_c, 4, 61, 77
5, 109444, Note_on_c, 4, 71, 76
5, 109444, Note_on_c, 4, 64, 87
5, 109444, Note_on_c, 4, 68, 87
5, 109500, Control_c, 4, 64, 0
5, 109620, Control_c, 4, 64, 127
5, 109788, Note_off_c, 4, 71, 64
5, 109792, Note_off_c, 4, 68, 64
5, 109796, Note_off_c, 4, 61, 64
5, 109800, Note_off_c, 4, 64, 64
5, 111364, Control_c, 4, 64, 0
5, 111364, Note_on_c, 4, 68, 104
5, 111364, Note_on_c, 4, 64, 89
5, 111368, Note_on_c, 4, 71, 89
5, 111420, Control_c, 4, 64, 127
5, 112172, Note_off_c, 4, 68, 64
5, 112192, Note_off_c, 4, 64, 64
5, 112192, Note_off_c, 4, 71, 64
5, 112564, Note_on_c, 4, 76, 83
5, 113044, Note_on_c, 4, 83, 91
5, 113860, Note_off_c, 4, 83, 64
5, 113900, Note_off_c, 4, 76, 64
5, 114244, Note_on_c, 4, 92, 112
5, 115140, Control_c, 4, 64, 0
5, 115196, Note_off_c, 4, 92, 64
5, 115204, Note_on_c, 4, 71, 85
5, 115204, Note_on_c, 4, 66, 89
5, 115204, Note_on_c, 4, 75, 99
5, 115320, Control_c, 4, 64, 127
5, 115488, Note_off_c, 4, 75, 64
5, 115488, Note_off_c, 4, 66, 64
5, 115524, Note_off_c, 4, 71, 64
5, 116164, Note_on_c, 4, 71, 87
5, 116164, Control_c, 4, 64, 0
5, 116164, Note_on_c, 4, 75, 104
5, 116164, Note_on_c, 4, 66, 87
5, 116280, Control_c, 4, 64, 127
5, 116388, Note_off_c, 4, 66, 64
5, 116412, Note_off_c, 4, 75, 64
5, 116460, Note_off_c, 4, 71, 64
5, 116520, Note_on_c, 4, 76, 104
5, 116624, Note_off_c, 4, 76, 64
5, 116820, Note_on_c, 4, 78, 101
5, 116912, Note_off_c, 4, 78, 64
5, 117124, Note_on_c, 4, 71, 70
5, 117124, Note_on_c, 4, 78, 89
5, 117124, Note_on_c, 4, 75, 87
5, 117124, Control_c, 4, 64, 0
5, 117240, Control_c, 4, 64, 127
5, 117444, Note_off_c, 4, 71, 64
5, 117448, Note_off_c, 4, 78, 64
5, 117448, Note_off_c, 4, 75, 64
5, 117840, Note_on_c, 4, 80, 93
5, 117840, Note_on_c, 4, 71, 101
5, 117844, Note_on_c, 4, 76, 99
5, 117888, Note_off_c, 4, 80, 64
5, 117892, Note_off_c, 4, 71, 64
5, 117900, Note_off_c, 4, 76, 64
5, 118084, Control_c, 4, 64, 0
5, 118084, Note_on_c, 4, 76, 95
5, 118088, Note_on_c, 4, 71, 104
5, 118088, Note_on_c, 4, 80, 95
5, 118200, Control_c, 4, 64, 127
5, 118372, Note_off_c, 4, 71, 64
5, 118380, Note_off_c, 4, 80, 64
5, 118400, Note_off_c, 4, 76, 64
5, 119044, Note_on_c, 4, 70, 91
5, 119044, Note_on_c, 4, 66, 87
5, 119044, Note_on_c, 4, 73, 99
5, 119048, Control_c, 4, 64, 0
5, 119160, Control_c, 4, 64, 127
5, 119428, Note_off_c, 4, 66, 64
5, 119440, Note_off_c, 4, 73, 64
5, 119448, Note_off_c, 4, 70, 64
5, 120004, Note_on_c, 4, 70, 89
5, 120004, Note_on_c, 4, 66, 87
5, 120004, Note_on_c, 4, 73, 91
5, 120004, Control_c, 4, 64, 0
5, 120060, Control_c, 4, 64, 127
5, 120172, Note_off_c, 4, 73, 64
5, 120244, Note_off_c, 4, 70, 64
5, 120292, Note_off_c, 4, 66, 64
5, 120484, Note_on_c, 4, 75, 110
5, 120624, Note_off_c, 4, 75, 64
5, 120964, Note_on_c, 4, 80, 99
5, 120964, Note_on_c, 4, 73, 95
5, 120964, Note_on_c, 4, 70, 78
5, 121020, Control_c, 4, 64, 0
5, 121140, Control_c, 4, 64, 127
5, 121232, Note_off_c, 4, 80, 64
5, 121304, Note_off_c, 4, 70, 64
5, 121324, Note_off_c, 4, 73, 64
5, 121444, Note_on_c, 4, 78, 101
5, 121540, Note_off_c, 4, 78, 64
5, 121924, Note_on_c, 4, 75, 101
5, 121924, Note_on_c, 4, 70, 79
5, 121924, Note_on_c, 4, 66, 75
5, 121924, Control_c, 4, 64, 0
5, 122040, Control_c, 4, 64, 127
5, 122284, Note_off_c, 4, 66, 64
5, 122300, Note_off_c, 4, 70, 64
5, 122360, Note_off_c, 4, 75, 64
5, 122404, Note_on_c, 4, 73, 97
5, 122472, Note_off_c, 4, 73, 64
5, 122876, Note_on_c, 4, 68, 82
5, 122876, Note_on_c, 4, 63, 73
5, 122876, Note_on_c, 4, 66, 82
5, 122876, Note_on_c, 4, 71, 79
5, 122884, Control_c, 4, 64, 0
5, 123000, Control_c, 4, 64, 127
5, 123292, Note_off_c, 4, 71, 64
5, 123320, Note_off_c, 4, 66, 64
5, 123324, Note_off_c, 4, 68, 64
5, 123332, Note_off_c, 4, 63, 64
5, 124804, Control_c, 4, 64, 0
5, 124804, Note_on_c, 4, 61, 77
5, 124804, Note_on_c, 4, 68, 89
5, 124808, Note_on_c, 4, 71, 76
5, 124808, Note_on_c, 4, 64, 89
5, 124860, Control_c, 4, 64, 127
5, 125004, Note_off_c, 4, 61, 64
5, 125012, Note_off_c, 4, 64, 64
5, 125024, Note_off_c, 4, 68, 64
5, 125052, Note_off_c, 4, 71, 64
5, 125764, Note_on_c, 4, 71, 83
5, 125764, Note_on_c, 4, 76, 91
5, 125764, Note_on_c, 4, 80, 99
5, 125820, Control_c, 4, 64, 0
5, 125880, Control_c, 4, 64, 127
5, 126112, Note_off_c, 4, 80, 64
5, 126116, Note_off_c, 4, 71, 64
5, 126128, Note_off_c, 4, 76, 64
5, 126724, Note_on_c, 4, 71, 85
5, 126724, Note_on_c, 4, 64, 76
5, 126724, Note_on_c, 4, 68, 91
5, 126728, Control_c, 4, 64, 0
5, 126840, Control_c, 4, 64, 127
5, 127684, Control_c, 4, 64, 0
5, 127740, Control_c, 4, 64, 127
5, 128152, Note_off_c, 4, 68, 64
5, 128156, Note_off_c, 4, 64, 64
5, 128156, Note_off_c, 4, 71, 64
5, 128164, Note_on_c, 4, 76, 97
5, 128164, Note_on_c, 4, 68, 87
5, 128164, Note_on_c, 4, 71, 89
5, 128572, Note_off_c, 4, 68, 64
5, 128612, Note_off_c, 4, 71, 64
5, 128644, Control_c, 4, 64, 0
5, 128644, Note_on_c, 4, 76, 85
5, 128648, Note_off_c, 4, 76, 64
5, 128648, Note_on_c, 4, 80, 101
5, 128648, Note_on_c, 4, 83, 91
5, 128760, Control_c, 4, 64, 127
5, 129660, Control_c, 4, 64, 0
5, 129780, Control_c, 4, 64, 127
5, 130072, Note_off_c, 4, 83, 64
5, 130076, Note_off_c, 4, 76, 64
5, 130076, Note_off_c, 4, 80, 64
5, 130084, Note_on_c, 4, 61, 117
5, 130088, Note_on_c, 4, 70, 76
5, 130088, Note_on_c, 4, 66, 95
5, 130532, Note_off_c, 4, 61, 64
5, 130556, Note_on_c, 4, 71, 97
5, 130560, Note_on_c, 4, 63, 91
5, 130560, Note_on_c, 4, 68, 101
5, 130568, Note_off_c, 4, 70, 64
5, 130568, Control_c, 4, 64, 0
5, 130660, Note_off_c, 4, 66, 64
5, 130680, Control_c, 4, 64, 127
5, 130924, Note_off_c, 4, 63, 64
5, 130952, Note_off_c, 4, 68, 64
5, 130956, Note_off_c, 4, 71, 64
5, 132484, Note_on_c, 4, 66, 81
5, 132488, Note_on_c, 4, 70, 91
5, 132488, Note_on_c, 4, 61, 83
5, 132488, Control_c, 4, 64, 0
5, 132540, Control_c, 4, 64, 127
5, 132804, Note_off_c, 4, 61, 64
5, 132812, Note_off_c, 4, 70, 64
5, 132824, Note_off_c, 4, 66, 64
5, 133204, Note_on_c, 4, 68, 99
5, 133204, Note_on_c, 4, 63, 99
5, 133204, Note_on_c, 4, 71, 95
5, 133204, Control_c, 4, 64, 0
5, 133320, Control_c, 4, 64, 127
5, 133700, Note_off_c, 4, 63, 64
5, 133712, Note_off_c, 4, 68, 64
5, 133720, Note_off_c, 4, 71, 64
5, 134404, Note_on_c, 4, 68, 108
5, 134404, Note_on_c, 4, 64, 91
5, 134408, Note_on_c, 4, 71, 89
5, 134408, Control_c, 4, 64, 0
5, 134520, Control_c, 4, 64, 127
5, 134644, Note_off_c, 4, 71, 64
5, 134648, Note_off_c, 4, 64, 64
5, 134648, Note_off_c, 4, 68, 64
5, 136324, Note_on_c, 4, 66, 87
5, 136328, Note_on_c, 4, 70, 93
5, 136328, Note_on_c, 4, 61, 85
5, 136328, Control_c, 4, 64, 0
5, 136440, Control_c, 4, 64, 127
5, 136624, Note_off_c, 4, 61, 64
5, 136628, Note_off_c, 4, 70, 64
5, 136632, Note_off_c, 4, 66, 64
5, 138244, Note_on_c, 4, 68, 99
5, 138244, Note_on_c, 4, 71, 89
5, 138248, Note_on_c, 4, 63, 89
5, 138252, Control_c, 4, 64, 0
5, 138420, Control_c, 4, 64, 127
5, 138572, Note_off_c, 4, 71, 64
5, 138580, Note_off_c, 4, 63, 64
5, 138600, Note_off_c, 4, 68, 64
5, 140164, Note_on_c, 4, 66, 101
5, 140168, Note_on_c, 4, 61, 95
5, 140168, Note_on_c, 4, 70, 97
5, 140168, Control_c, 4, 64, 0
5, 140280, Control_c, 4, 64, 127
5, 140408, Note_off_c, 4, 61, 64
5, 140424, Note_off_c, 4, 66, 64
5, 140424, Note_off_c, 4, 70, 64
5, 140884, Note_on_c, 4, 63, 101
5, 140884, Note_on_c, 4, 71, 101
5, 140884, Note_on_c, 4, 68, 104
5, 140940, Control_c, 4, 64, 0
5, 141060, Control_c, 4, 64, 127
5, 141124, Note_off_c, 4, 63, 64
5, 141140, Note_off_c, 4, 71, 64
5, 141140, Note_off_c, 4, 68, 64
5, 142084, Note_on_c, 4, 68, 104
5, 142084, Note_on_c, 4, 64, 89
5, 142088, Note_on_c, 4, 71, 95
5, 142088, Control_c, 4, 64, 0
5, 142200, Control_c, 4, 64, 127
5, 142300, Note_off_c, 4, 64, 64
5, 142304, Note_off_c, 4, 71, 64
5, 142312, Note_off_c, 4, 68, 64
5, 144004, Note_on_c, 4, 66, 95
5, 144008, Note_on_c, 4, 70, 99
5, 144008, Note_on_c, 4, 61, 85
5, 144008, Control_c, 4, 64, 0
5, 144120, Control_c, 4, 64, 127
5, 144408, Note_off_c, 4, 70, 64
5, 144412, Note_off_c, 4, 61, 64
5, 144444, Note_off_c, 4, 66, 64
5, 145912, Note_on_c, 4, 71, 93
5, 145916, Note_on_c, 4, 63, 97
5, 145916, Note_on_c, 4, 68, 104
5, 145980, Control_c, 4, 64, 0
5, 146040, Control_c, 4, 64, 127
5, 146140, Note_off_c, 4, 68, 64
5, 146152, Note_off_c, 4, 71, 64
5, 146164, Note_off_c, 4, 63, 64
5, 147844, Note_on_c, 4, 66, 108
5, 147844, Note_on_c, 4, 61, 99
5, 147848, Note_on_c, 4, 70, 106
5, 147900, Control_c, 4, 64, 0
5, 147960, Control_c, 4, 64, 127
5, 148188, Note_off_c, 4, 70, 64
5, 148200, Note_off_c, 4, 61, 64
5, 148204, Note_off_c, 4, 66, 64
5, 148564, Note_on_c, 4, 63, 91
5, 148564, Note_on_c, 4, 71, 99
5, 148564, Note_on_c, 4, 68, 108
5, 148620, Control_c, 4, 64, 0
5, 148740, Control_c, 4, 64, 127
5, 148852, Note_off_c, 4, 63, 64
5, 148880, Note_off_c, 4, 68, 64
5, 148888, Note_off_c, 4, 71, 64
5, 149764, Control_c, 4, 64, 0
5, 149764, Note_on_c, 4, 64, 87
5, 149768, Note_on_c, 4, 68, 106
5, 149768, Note_on_c, 4, 71, 93
5, 149880, Control_c, 4, 64, 127
5, 149888, Note_off_c, 4, 64, 64
5, 149900, Note_off_c, 4, 68, 64
5, 149912, Note_off_c, 4, 71, 64
5, 151684, Note_on_c, 4, 66, 87
5, 151684, Note_on_c, 4, 70, 97
5, 151684, Note_on_c, 4, 61, 87
5, 151688, Control_c, 4, 64, 0
5, 151800, Control_c, 4, 64, 127
5, 151940, Note_off_c, 4, 70, 64
5, 151944, Note_off_c, 4, 61, 64
5, 151960, Note_off_c, 4, 66, 64
5, 153604, Note_on_c, 4, 68, 95
5, 153604, Note_on_c, 4, 71, 89
5, 153608, Note_on_c, 4, 63, 89
5, 153608, Control_c, 4, 64, 0
5, 153720, Control_c, 4, 64, 127
5, 153828, Note_off_c, 4, 63, 64
5, 153828, Note_off_c, 4, 71, 64
5, 153844, Note_off_c, 4, 68, 64
5, 155524, Control_c, 4, 64, 0
5, 155528, Note_on_c, 4, 66, 83
5, 155528, Note_on_c, 4, 70, 99
5, 155528, Note_on_c, 4, 61, 83
5, 155640, Control_c, 4, 64, 127
5, 155780, Note_off_c, 4, 61, 64
5, 155800, Note_off_c, 4, 70, 64
5, 155800, Note_off_c, 4, 66, 64
5, 156244, Note_on_c, 4, 71, 101
5, 156244, Note_on_c, 4, 63, 99
5, 156244, Note_on_c, 4, 68, 106
5, 156300, Control_c, 4, 64, 0
5, 156420, Control_c, 4, 64, 127
5, 156464, Note_off_c, 4, 63, 64
5, 156484, Note_off_c, 4, 71, 64
5, 156500, Note_off_c, 4, 68, 64
5, 157444, Note_on_c, 4, 68, 104
5, 157444, Note_on_c, 4, 64, 85
5, 157448, Note_on_c, 4, 71, 87
5, 157448, Control_c, 4, 64, 0
5, 157560, Control_c, 4, 64, 127
5, 157684, Note_off_c, 4, 71, 64
5, 157684, Note_off_c, 4, 64, 64
5, 157692, Note_off_c, 4, 68, 64
5, 159300, Control_c, 4, 64, 0
5, 159364, Note_on_c, 4, 66, 91
5, 159364, Note_on_c, 4, 70, 97
5, 159368, Note_on_c, 4, 61, 87
5, 159420, Control_c, 4, 64, 127
5, 159528, Note_off_c, 4, 61, 64
5, 159540, Note_off_c, 4, 70, 64
5, 159540, Note_off_c, 4, 66, 64
5, 161272, Note_on_c, 4, 71, 91
5, 161276, Note_on_c, 4, 63, 87
5, 161276, Note_on_c, 4, 68, 104
5, 161284, Control_c, 4, 64, 0
5, 161400, Control_c, 4, 64, 127
5, 161440, Note_off_c, 4, 71, 64
5, 161444, Note_off_c, 4, 63, 64
5, 161452, Note_off_c, 4, 68, 64
5, 163204, Control_c, 4, 64, 0
5, 163208, Note_on_c, 4, 66, 93
5, 163208, Note_on_c, 4, 70, 95
5, 163208, Note_on_c, 4, 61, 85
5, 163260, Control_c, 4, 64, 127
5, 163388, Note_off_c, 4, 61, 64
5, 163400, Note_off_c, 4, 70, 64
5, 163404, Note_off_c, 4, 66, 64
5, 163924, Control_c, 4, 64, 0
5, 163924, Note_on_c, 4, 68, 104
5, 163924, Note_on_c, 4, 63, 99
5, 163924, Note_on_c, 4, 71, 93
5, 164040, Control_c, 4, 64, 127
5, 164140, Note_off_c, 4, 68, 64
5, 164148, Note_off_c, 4, 63, 64
5, 164152, Note_off_c, 4, 71, 64
5, 165124, Control_c, 4, 64, 0
5, 165128, Note_on_c, 4, 64, 85
5, 165128, Note_on_c, 4, 68, 101
5, 165128, Note_on_c, 4, 71, 87
5, 165240, Control_c, 4, 64, 127
5, 165332, Note_off_c, 4, 64, 64
5, 165340, Note_off_c, 4, 68, 64
5, 165340, Note_off_c, 4, 71, 64
5, 166980, Control_c, 4, 64, 0
5, 167048, Note_on_c, 4, 66, 79
5, 167052, Note_on_c, 4, 61, 83
5, 167052, Note_on_c, 4, 70, 91
5, 167100, Control_c, 4, 64, 127
5, 168900, Control_c, 4, 64, 0
5, 168952, Note_off_c, 4, 70, 64
5, 168956, Note_off_c, 4, 61, 64
5, 168956, Note_off_c, 4, 66, 64
5, 168968, Note_on_c, 4, 68, 97
5, 168968, Note_on_c, 4, 63, 97
5, 168968, Note_on_c, 4, 71, 89
5, 169020, Control_c, 4, 64, 127
5, 169128, Note_off_c, 4, 71, 64
5, 169140, Note_off_c, 4, 63, 64
5, 169140, Note_off_c, 4, 68, 64
5, 170884, Control_c, 4, 64, 0
5, 170888, Note_on_c, 4, 66, 99
5, 170888, Note_on_c, 4, 70, 101
5, 170888, Note_on_c, 4, 61, 87
5, 170940, Control_c, 4, 64, 127
5, 171112, Note_off_c, 4, 61, 64
5, 171124, Note_off_c, 4, 66, 64
5, 171140, Note_off_c, 4, 70, 64
5, 171604, Note_on_c, 4, 68, 106
5, 171604, Note_on_c, 4, 63, 99
5, 171604, Note_on_c, 4, 71, 99
5, 171660, Control_c, 4, 64, 0
5, 171720, Control_c, 4, 64, 127
5, 171832, Note_off_c, 4, 68, 64
5, 171844, Note_off_c, 4, 63, 64
5, 171844, Note_off_c, 4, 71, 64
5, 172804, Control_c, 4, 64, 0
5, 172808, Note_on_c, 4, 64, 91
5, 172808, Note_on_c, 4, 71, 97
5, 172808, Note_on_c, 4, 68, 93
5, 172860, Control_c, 4, 64, 127
5, 172928, Note_off_c, 4, 68, 64
5, 172932, Note_off_c, 4, 64, 64
5, 172940, Note_off_c, 4, 71, 64
5, 174724, Control_c, 4, 64, 0
5, 174724, Note_on_c, 4, 61, 85
5, 174728, Note_on_c, 4, 66, 91
5, 174728, Note_on_c, 4, 70, 95
5, 174780, Control_c, 4, 64, 127
5, 174928, Note_off_c, 4, 61, 64
5, 174932, Note_off_c, 4, 66, 64
5, 174932, Note_off_c, 4, 70, 64
5, 176632, Note_on_c, 4, 71, 85
5, 176632, Note_on_c, 4, 68, 95
5, 176636, Note_on_c, 4, 63, 89
5, 176648, Control_c, 4, 64, 0
5, 176760, Control_c, 4, 64, 127
5, 176808, Note_off_c, 4, 63, 64
5, 176812, Note_off_c, 4, 71, 64
5, 176828, Note_off_c, 4, 68, 64
5, 178564, Control_c, 4, 64, 0
5, 178568, Note_on_c, 4, 66, 87
5, 178568, Note_on_c, 4, 70, 99
5, 178568, Note_on_c, 4, 61, 89
5, 178620, Control_c, 4, 64, 127
5, 178812, Note_off_c, 4, 61, 64
5, 178828, Note_off_c, 4, 70, 64
5, 178828, Note_off_c, 4, 66, 64
5, 179284, Control_c, 4, 64, 0
5, 179284, Note_on_c, 4, 68, 97
5, 179284, Note_on_c, 4, 63, 99
5, 179284, Note_on_c, 4, 71, 85
5, 179400, Control_c, 4, 64, 127
5, 179480, Note_off_c, 4, 63, 64
5, 179512, Note_off_c, 4, 71, 64
5, 179516, Note_off_c, 4, 68, 64
5, 180488, Note_on_c, 4, 68, 106
5, 180488, Note_on_c, 4, 64, 85
5, 180488, Note_on_c, 4, 71, 85
5, 180492, Control_c, 4, 64, 0
5, 180600, Control_c, 4, 64, 127
5, 180728, Note_off_c, 4, 71, 64
5, 180740, Note_off_c, 4, 64, 64
5, 180764, Note_off_c, 4, 68, 64
5, 182404, Note_on_c, 4, 66, 95
5, 182404, Note_on_c, 4, 61, 87
5, 182408, Note_on_c, 4, 70, 99
5, 182408, Control_c, 4, 64, 0
5, 182520, Control_c, 4, 64, 127
5, 182592, Note_off_c, 4, 61, 64
5, 182604, Note_off_c, 4, 66, 64
5, 182604, Note_off_c, 4, 70, 64
5, 184200, Control_c, 4, 64, 0
5, 184320, Control_c, 4, 7, 80
5, 184328, Control_c, 4, 64, 0
5, 184440, Control_c, 4, 64, 127
5, 184604, Control_c, 4, 7, 79
5, 184892, Control_c, 4, 7, 78
5, 185176, Control_c, 4, 7, 77
5, 185464, Control_c, 4, 7, 76
5, 185752, Control_c, 4, 7, 75
5, 186036, Control_c, 4, 7, 74
5, 186244, Control_c, 4, 64, 0
5, 186248, Note_on_c, 4, 66, 87
5, 186248, Note_on_c, 4, 70, 99
5, 186248, Note_on_c, 4, 61, 89
5, 186300, Control_c, 4, 64, 127
5, 186324, Control_c, 4, 7, 73
5, 186492, Note_off_c, 4, 61, 64
5, 186508, Note_off_c, 4, 70, 64
5, 186508, Note_off_c, 4, 66, 64
5, 186612, Control_c, 4, 7, 72
5, 186896, Control_c, 4, 7, 71
5, 186964, Control_c, 4, 64, 0
5, 186964, Note_on_c, 4, 68, 97
5, 186964, Note_on_c, 4, 63, 99
5, 186964, Note_on_c, 4, 71, 85
5, 187080, Control_c, 4, 64, 127
5, 187160, Note_off_c, 4, 63, 64
5, 187184, Control_c, 4, 7, 70
5, 187192, Note_off_c, 4, 71, 64
5, 187196, Note_off_c, 4, 68, 64
5, 187468, Control_c, 4, 7, 69
5, 187756, Control_c, 4, 7, 68
5, 188044, Control_c, 4, 7, 67
5, 188168, Note_on_c, 4, 68, 106
5, 188168, Note_on_c, 4, 64, 85
5, 188168, Note_on_c, 4, 71, 85
5, 188172, Control_c, 4, 64, 0
5, 188280, Control_c, 4, 64, 127
5, 188328, Control_c, 4, 7, 66
5, 188408, Note_off_c, 4, 71, 64
5, 188420, Note_off_c, 4, 64, 64
5, 188444, Note_off_c, 4, 68, 64
5, 188616, Control_c, 4, 7, 65
5, 188904, Control_c, 4, 7, 64
5, 189188, Control_c, 4, 7, 63
5, 189476, Control_c, 4, 7, 62
5, 189760, Control_c, 4, 7, 61
5, 190048, Control_c, 4, 7, 60
5, 190084, Note_on_c, 4, 66, 95
5, 190084, Note_on_c, 4, 61, 87
5, 190088, Note_on_c, 4, 70, 99
5, 190088, Control_c, 4, 64, 0
5, 190200, Control_c, 4, 64, 127
5, 190272, Note_off_c, 4, 61, 64
5, 190284, Note_off_c, 4, 66, 64
5, 190284, Note_off_c, 4, 70, 64
5, 190336, Control_c, 4, 7, 59
5, 190620, Control_c, 4, 7, 58
5, 190908, Control_c, 4, 7, 57
5, 191196, Control_c, 4, 7, 56
5, 191480, Control_c, 4, 7, 55
5, 191768, Control_c, 4, 7, 54
5, 191880, Control_c, 4, 64, 0
5, 192008, Control_c, 4, 64, 0
5, 192052, Control_c, 4, 7, 53
5, 192120, Control_c, 4, 64, 127
5, 192340, Control_c, 4, 7, 52
5, 192628, Control_c, 4, 7, 51
5, 192912, Control_c, 4, 7, 50
5, 193200, Control_c, 4, 7, 49
5, 193488, Control_c, 4, 7, 48
5, 193772, Control_c, 4, 7, 47
5, 193924, Control_c, 4, 64, 0
5, 193928, Note_on_c, 4, 66, 87
5, 193928, Note_on_c, 4, 70, 99
5, 193928, Note_on_c, 4, 61, 89
5, 193980, Control_c, 4, 64, 127
5, 194060, Control_c, 4, 7, 46
5, 194172, Note_off_c, 4, 61, 64
5, 194188, Note_off_c, 4, 70, 64
5, 194188, Note_off_c, 4, 66, 64
5, 194344, Control_c, 4, 7, 45
5, 194632, Control_c, 4, 7, 44
5, 194644, Control_c, 4, 64, 0
5, 194644, Note_on_c, 4, 68, 97
5, 194644, Note_on_c, 4, 63, 99
5, 194644, Note_on_c, 4, 71, 85
5, 194760, Control_c, 4, 64, 127
5, 194840, Note_off_c, 4, 63, 64
5, 194872, Note_off_c, 4, 71, 64
5, 194876, Note_off_c, 4, 68, 64
5, 194920, Control_c, 4, 7, 43
5, 195204, Control_c, 4, 7, 42
5, 195492, Control_c, 4, 7, 41
5, 195780, Control_c, 4, 7, 40
5, 195848, Note_on_c, 4, 68, 106
5, 195848, Note_on_c, 4, 64, 85
5, 195848, Note_on_c, 4, 71, 85
5, 195852, Control_c, 4, 64, 0
5, 195960, Control_c, 4, 64, 127
5, 196064, Control_c, 4, 7, 39
5, 196088, Note_off_c, 4, 71, 64
5, 196100, Note_off_c, 4, 64, 64
5, 196124, Note_off_c, 4, 68, 64
5, 196352, Control_c, 4, 7, 38
5, 196636, Control_c, 4, 7, 37
5, 196924, Control_c, 4, 7, 36
5, 197212, Control_c, 4, 7, 35
5, 197496, Control_c, 4, 7, 34
5, 197764, Note_on_c, 4, 66, 95
5, 197764, Note_on_c, 4, 61, 87
5, 197768, Note_on_c, 4, 70, 99
5, 197768, Control_c, 4, 64, 0
5, 197784, Control_c, 4, 7, 33
5, 197880, Control_c, 4, 64, 127
5, 197952, Note_off_c, 4, 61, 64
5, 197964, Note_off_c, 4, 66, 64
5, 197964, Note_off_c, 4, 70, 64
5, 198072, Control_c, 4, 7, 32
5, 198356, Control_c, 4, 7, 31
5, 198644, Control_c, 4, 7, 30
5, 198928, Control_c, 4, 7, 29
5, 199216, Control_c, 4, 7, 28
5, 199504, Control_c, 4, 7, 27
5, 199560, Control_c, 4, 64, 0
5, 199688, Control_c, 4, 64, 0
5, 199788, Control_c, 4, 7, 26
5, 199800, Control_c, 4, 64, 127
5, 200076, Control_c, 4, 7, 25
5, 200364, Control_c, 4, 7, 24
5, 200648, Control_c, 4, 7, 23
5, 200936, Control_c, 4, 7, 22
5, 201220, Control_c, 4, 7, 21
5, 201508, Control_c, 4, 7, 20
5, 201604, Control_c, 4, 64, 0
5, 201608, Note_on_c, 4, 66, 87
5, 201608, Note_on_c, 4, 70, 99
5, 201608, Note_on_c, 4, 61, 89
5, 201660, Control_c, 4, 64, 127
5, 201796, Control_c, 4, 7, 19
5, 201852, Note_off_c, 4, 61, 64
5, 201868, Note_off_c, 4, 70, 64
5, 201868, Note_off_c, 4, 66, 64
5, 202080, Control_c, 4, 7, 18
5, 202324, Control_c, 4, 64, 0
5, 202324, Note_on_c, 4, 68, 97
5, 202324, Note_on_c, 4, 63, 99
5, 202324, Note_on_c, 4, 71, 85
5, 202368, Control_c, 4, 7, 17
5, 202440, Control_c, 4, 64, 127
5, 202520, Note_off_c, 4, 63, 64
5, 202552, Note_off_c, 4, 71, 64
5, 202556, Note_off_c, 4, 68, 64
5, 202656, Control_c, 4, 7, 16
5, 202940, Control_c, 4, 7, 15
5, 203228, Control_c, 4, 7, 14
5, 203512, Control_c, 4, 7, 13
5, 203528, Note_on_c, 4, 68, 106
5, 203528, Note_on_c, 4, 64, 85
5, 203528, Note_on_c, 4, 71, 85
5, 203532, Control_c, 4, 64, 0
5, 203640, Control_c, 4, 64, 127
5, 203768, Note_off_c, 4, 71, 64
5, 203780, Note_off_c, 4, 64, 64
5, 203800, Control_c, 4, 7, 12
5, 203804, Note_off_c, 4, 68, 64
5, 204088, Control_c, 4, 7, 11
5, 204372, Control_c, 4, 7, 10
5, 204660, Control_c, 4, 7, 9
5, 204948, Control_c, 4, 7, 8
5, 205232, Control_c, 4, 7, 7
5, 205444, Note_on_c, 4, 66, 95
5, 205444, Note_on_c, 4, 61, 87
5, 205448, Note_on_c, 4, 70, 99
5, 205448, Control_c, 4, 64, 0
5, 205520, Control_c, 4, 7, 6
5, 205560, Control_c, 4, 64, 127
5, 205632, Note_off_c, 4, 61, 64
5, 205644, Note_off_c, 4, 66, 64
5, 205644, Note_off_c, 4, 70, 64
5, 205804, Control_c, 4, 7, 5
5, 206092, Control_c, 4, 7, 4
5, 206380, Control_c, 4, 7, 3
5, 206664, Control_c, 4, 7, 2
5, 206952, Control_c, 4, 7, 1
5, 207240, Control_c, 4, 64, 0
5, 207240, Control_c, 4, 7, 0
5, 207240, End_track
6, 0, Start_track
6, 0, Title_t, "String Ensemble 1"
6, 0, MIDI_port, 0
6, 0, Channel_prefix, 5
6, 0, Control_c, 5, 7, 100
6, 0, Program_c, 5, 48
6, 17236, Note_on_c, 5, 71, 87
6, 17236, Note_on_c, 5, 68, 81
6, 17240, Note_on_c, 5, 76, 76
6, 19132, Note_off_c, 5, 68, 64
6, 19140, Note_on_c, 5, 73, 89
6, 19148, Note_on_c, 5, 66, 65
6, 19152, Note_off_c, 5, 71, 64
6, 19152, Note_on_c, 5, 70, 64
6, 19172, Note_off_c, 5, 76, 64
6, 21080, Note_on_c, 5, 75, 81
6, 21092, Note_off_c, 5, 73, 64
6, 22988, Note_off_c, 5, 70, 64
6, 22988, Note_on_c, 5, 71, 79
6, 24912, Note_on_c, 5, 76, 76
6, 24912, Note_on_c, 5, 80, 79
6, 24932, Note_off_c, 5, 75, 64
6, 24956, Note_off_c, 5, 66, 64
6, 26820, Note_on_c, 5, 68, 40
6, 26824, Note_off_c, 5, 80, 64
6, 26840, Note_off_c, 5, 76, 64
6, 28748, Note_on_c, 5, 76, 72
6, 30648, Note_on_c, 5, 75, 81
6, 30652, Note_on_c, 5, 66, 81
6, 30664, Note_off_c, 5, 68, 64
6, 30668, Note_off_c, 5, 76, 64
6, 32548, Note_off_c, 5, 66, 64
6, 32580, Note_on_c, 5, 76, 79
6, 32588, Note_on_c, 5, 68, 70
6, 32620, Note_off_c, 5, 75, 64
6, 34492, Note_off_c, 5, 68, 64
6, 34512, Note_on_c, 5, 70, 55
6, 34520, Note_off_c, 5, 71, 64
6, 34528, Note_on_c, 5, 73, 70
6, 34532, Note_on_c, 5, 66, 83
6, 34540, Note_off_c, 5, 76, 64
6, 36472, Note_off_c, 5, 73, 64
6, 36472, Note_on_c, 5, 75, 75
6, 38344, Note_off_c, 5, 70, 64
6, 38344, Note_on_c, 5, 71, 76
6, 40284, Note_off_c, 5, 75, 64
6, 40284, Note_on_c, 5, 80, 77
6, 40288, Note_on_c, 5, 76, 65
6, 40312, Note_off_c, 5, 66, 64
6, 42184, Note_on_c, 5, 68, 83
6, 42192, Note_off_c, 5, 76, 64
6, 42200, Note_off_c, 5, 80, 64
6, 44124, Note_on_c, 5, 76, 77
6, 46024, Note_on_c, 5, 75, 87
6, 46024, Note_on_c, 5, 66, 83
6, 46032, Note_off_c, 5, 76, 64
6, 46036, Note_off_c, 5, 68, 64
6, 47904, Note_off_c, 5, 66, 64
6, 47924, Note_on_c, 5, 76, 89
6, 47940, Note_on_c, 5, 68, 65
6, 47952, Note_off_c, 5, 75, 64
6, 49872, Note_on_c, 5, 73, 75
6, 49880, Note_on_c, 5, 66, 79
6, 49880, Note_on_c, 5, 70, 70
6, 49884, Note_off_c, 5, 68, 64
6, 49912, Note_off_c, 5, 71, 64
6, 49936, Note_off_c, 5, 76, 64
6, 51804, Note_on_c, 5, 75, 98
6, 51828, Note_off_c, 5, 73, 64
6, 53724, Note_on_c, 5, 71, 73
6, 53732, Note_off_c, 5, 70, 64
6, 55620, Note_on_c, 5, 76, 81
6, 55624, Note_on_c, 5, 80, 85
6, 55640, Note_off_c, 5, 75, 64
6, 55644, Note_off_c, 5, 66, 64
6, 57532, Note_on_c, 5, 68, 65
6, 57548, Note_off_c, 5, 80, 64
6, 61364, Note_off_c, 5, 76, 64
6, 61368, Note_off_c, 5, 71, 64
6, 61372, Note_off_c, 5, 68, 64
6, 84464, Note_on_c, 5, 71, 66
6, 84464, Note_on_c, 5, 66, 70
6, 84468, Note_on_c, 5, 75, 67
6, 86324, Note_off_c, 5, 66, 64
6, 86352, Note_off_c, 5, 75, 64
6, 86360, Note_on_c, 5, 76, 77
6, 86364, Note_on_c, 5, 68, 68
6, 88200, Note_off_c, 5, 68, 64
6, 88212, Note_off_c, 5, 71, 64
6, 88228, Note_on_c, 5, 70, 61
6, 88228, Note_on_c, 5, 73, 76
6, 88232, Note_on_c, 5, 66, 71
6, 88272, Note_off_c, 5, 76, 64
6, 90212, Note_off_c, 5, 73, 64
6, 90228, Note_on_c, 5, 75, 79
6, 92120, Note_on_c, 5, 71, 72
6, 92128, Note_off_c, 5, 70, 64
6, 94024, Note_on_c, 5, 80, 71
6, 94028, Note_on_c, 5, 76, 71
6, 94060, Note_off_c, 5, 75, 64
6, 94100, Note_off_c, 5, 66, 64
6, 95952, Note_on_c, 5, 68, 73
6, 95980, Note_off_c, 5, 80, 64
6, 95980, Note_off_c, 5, 76, 64
6, 97880, Note_on_c, 5, 76, 70
6, 99748, Note_off_c, 5, 68, 64
6, 99760, Note_on_c, 5, 66, 49
6, 99764, Note_on_c, 5, 75, 83
6, 99792, Note_off_c, 5, 76, 64
6, 101680, Note_on_c, 5, 76, 59
6, 101688, Note_on_c, 5, 68, 65
6, 101692, Note_off_c, 5, 75, 64
6, 101720, Note_off_c, 5, 66, 64
6, 103640, Note_on_c, 5, 73, 74
6, 103652, Note_on_c, 5, 66, 64
6, 103660, Note_on_c, 5, 70, 48
6, 103672, Note_off_c, 5, 71, 64
6, 103672, Note_off_c, 5, 76, 64
6, 103696, Note_off_c, 5, 68, 64
6, 105540, Note_off_c, 5, 73, 64
6, 105552, Note_on_c, 5, 75, 79
6, 107460, Note_on_c, 5, 71, 72
6, 107480, Note_off_c, 5, 70, 64
6, 109396, Note_on_c, 5, 80, 71
6, 109396, Note_on_c, 5, 76, 75
6, 109412, Note_off_c, 5, 75, 64
6, 109456, Note_off_c, 5, 66, 64
6, 111340, Note_on_c, 5, 68, 66
6, 111376, Note_off_c, 5, 76, 64
6, 111380, Note_off_c, 5, 80, 64
6, 113224, Note_on_c, 5, 76, 77
6, 115072, Note_off_c, 5, 76, 64
6, 115132, Note_off_c, 5, 68, 64
6, 115140, Note_on_c, 5, 66, 70
6, 115152, Note_on_c, 5, 75, 70
6, 117032, Note_off_c, 5, 66, 64
6, 117064, Note_on_c, 5, 76, 73
6, 117072, Note_on_c, 5, 68, 68
6, 117088, Note_off_c, 5, 75, 64
6, 118948, Note_off_c, 5, 68, 64
6, 118976, Note_on_c, 5, 73, 79
6, 118980, Note_on_c, 5, 66, 66
6, 118984, Note_off_c, 5, 76, 64
6, 118984, Note_on_c, 5, 70, 68
6, 119012, Note_off_c, 5, 71, 64
6, 120904, Note_off_c, 5, 73, 64
6, 120912, Note_on_c, 5, 75, 83
6, 122824, Note_on_c, 5, 71, 76
6, 122828, Note_off_c, 5, 70, 64
6, 124752, Note_on_c, 5, 80, 73
6, 124752, Note_on_c, 5, 76, 74
6, 124760, Note_off_c, 5, 66, 64
6, 124760, Note_off_c, 5, 75, 64
6, 126692, Note_on_c, 5, 68, 53
6, 126704, Note_off_c, 5, 80, 64
6, 130488, Note_off_c, 5, 76, 64
6, 130504, Note_off_c, 5, 71, 64
6, 130508, Note_off_c, 5, 68, 64
6, 130508, End_track
7, 0, Start_track
7, 0, Title_t, "String Ensemble 2"
7, 0, MIDI_port, 0
7, 0, Channel_prefix, 6
7, 0, Control_c, 6, 7, 105
7, 0, Program_c, 6, 48
7, 26860, Note_on_c, 6, 76, 86
7, 26864, Note_on_c, 6, 88, 86
7, 28252, Note_off_c, 6, 76, 64
7, 28272, Note_on_c, 6, 75, 86
7, 28292, Note_on_c, 6, 87, 86
7, 28300, Note_off_c, 6, 88, 64
7, 28392, Note_on_c, 6, 85, 86
7, 28408, Note_on_c, 6, 73, 86
7, 28412, Note_off_c, 6, 87, 64
7, 28420, Note_off_c, 6, 75, 64
7, 28492, Note_off_c, 6, 85, 64
7, 28512, Note_on_c, 6, 83, 86
7, 28520, Note_on_c, 6, 71, 86
7, 28528, Note_off_c, 6, 73, 64
7, 28628, Note_off_c, 6, 83, 64
7, 28644, Note_on_c, 6, 85, 86
7, 28644, Note_on_c, 6, 73, 86
7, 28648, Note_off_c, 6, 71, 64
7, 28764, Note_off_c, 6, 85, 64
7, 28764, Note_off_c, 6, 73, 64
7, 28772, Note_on_c, 6, 87, 86
7, 28780, Note_on_c, 6, 75, 86
7, 29232, Note_on_c, 6, 71, 86
7, 29240, Note_on_c, 6, 83, 86
7, 29244, Note_off_c, 6, 75, 64
7, 29244, Note_off_c, 6, 87, 64
7, 29704, Note_off_c, 6, 71, 64
7, 29712, Note_off_c, 6, 83, 64
7, 29720, Note_on_c, 6, 80, 86
7, 29720, Note_on_c, 6, 68, 86
7, 30188, Note_on_c, 6, 76, 86
7, 30192, Note_on_c, 6, 64, 86
7, 30200, Note_off_c, 6, 68, 64
7, 30208, Note_off_c, 6, 80, 64
7, 30680, Note_off_c, 6, 64, 64
7, 30684, Note_off_c, 6, 76, 64
7, 42208, Note_on_c, 6, 88, 86
7, 42212, Note_on_c, 6, 76, 86
7, 43700, Note_on_c, 6, 87, 86
7, 43700, Note_on_c, 6, 75, 86
7, 43724, Note_off_c, 6, 76, 64
7, 43724, Note_off_c, 6, 88, 64
7, 43804, Note_on_c, 6, 85, 86
7, 43804, Note_on_c, 6, 73, 86
7, 43828, Note_off_c, 6, 87, 64
7, 43828, Note_off_c, 6, 75, 64
7, 43908, Note_on_c, 6, 83, 86
7, 43908, Note_on_c, 6, 71, 86
7, 43932, Note_off_c, 6, 85, 64
7, 43932, Note_off_c, 6, 73, 64
7, 44020, Note_off_c, 6, 83, 64
7, 44020, Note_off_c, 6, 71, 64
7, 44024, Note_on_c, 6, 85, 86
7, 44024, Note_on_c, 6, 73, 86
7, 44152, Note_off_c, 6, 73, 64
7, 44152, Note_off_c, 6, 85, 64
7, 44152, Note_on_c, 6, 87, 86
7, 44152, Note_on_c, 6, 75, 86
7, 44620, Note_on_c, 6, 83, 86
7, 44620, Note_on_c, 6, 71, 86
7, 44624, Note_off_c, 6, 75, 64
7, 44624, Note_off_c, 6, 87, 64
7, 45084, Note_on_c, 6, 80, 86
7, 45084, Note_on_c, 6, 68, 86
7, 45088, Note_off_c, 6, 83, 64
7, 45088, Note_off_c, 6, 71, 64
7, 45572, Note_on_c, 6, 76, 86
7, 45572, Note_on_c, 6, 64, 86
7, 45592, Note_off_c, 6, 80, 64
7, 45592, Note_off_c, 6, 68, 64
7, 46060, Note_on_c, 6, 71, 86
7, 46060, Note_on_c, 6, 59, 86
7, 46064, Note_off_c, 6, 76, 64
7, 46064, Note_off_c, 6, 64, 64
7, 46780, Note_on_c, 6, 78, 86
7, 46780, Note_on_c, 6, 66, 86
7, 46804, Note_off_c, 6, 71, 64
7, 46804, Note_off_c, 6, 59, 64
7, 47060, Note_off_c, 6, 78, 64
7, 47060, Note_off_c, 6, 66, 64
7, 47064, Note_on_c, 6, 83, 86
7, 47064, Note_on_c, 6, 71, 86
7, 47360, Note_on_c, 6, 82, 86
7, 47360, Note_on_c, 6, 70, 86
7, 47380, Note_off_c, 6, 71, 64
7, 47380, Note_off_c, 6, 83, 64
7, 47736, Note_on_c, 6, 80, 86
7, 47736, Note_on_c, 6, 68, 86
7, 47740, Note_off_c, 6, 82, 64
7, 47740, Note_off_c, 6, 70, 64
7, 47968, Note_off_c, 6, 68, 64
7, 47972, Note_off_c, 6, 80, 64
7, 47976, Note_on_c, 6, 78, 86
7, 47976, Note_on_c, 6, 66, 86
7, 48948, Note_on_c, 6, 80, 86
7, 48952, Note_on_c, 6, 68, 86
7, 48980, Note_off_c, 6, 66, 64
7, 48980, Note_off_c, 6, 78, 64
7, 51804, Note_on_c, 6, 85, 86
7, 51804, Note_on_c, 6, 73, 86
7, 51820, Note_off_c, 6, 80, 64
7, 51820, Note_off_c, 6, 68, 64
7, 53028, Note_on_c, 6, 82, 86
7, 53028, Note_on_c, 6, 70, 86
7, 53044, Note_off_c, 6, 85, 64
7, 53044, Note_off_c, 6, 73, 64
7, 53260, Note_on_c, 6, 80, 86
7, 53260, Note_on_c, 6, 68, 86
7, 53272, Note_off_c, 6, 82, 64
7, 53272, Note_off_c, 6, 70, 64
7, 53500, Note_off_c, 6, 68, 64
7, 53504, Note_off_c, 6, 80, 64
7, 53504, Note_on_c, 6, 78, 86
7, 53508, Note_on_c, 6, 66, 86
7, 53672, Note_off_c, 6, 66, 64
7, 53672, Note_off_c, 6, 78, 64
7, 53724, Note_on_c, 6, 78, 86
7, 53724, Note_on_c, 6, 66, 86
7, 53972, Note_off_c, 6, 66, 64
7, 53976, Note_off_c, 6, 78, 64
7, 53980, Note_on_c, 6, 83, 86
7, 53980, Note_on_c, 6, 71, 86
7, 54212, Note_off_c, 6, 71, 64
7, 54216, Note_off_c, 6, 83, 64
7, 54216, Note_on_c, 6, 80, 86
7, 54216, Note_on_c, 6, 68, 86
7, 54444, Note_off_c, 6, 68, 64
7, 54444, Note_off_c, 6, 80, 64
7, 54448, Note_on_c, 6, 78, 86
7, 54452, Note_on_c, 6, 66, 86
7, 54944, Note_off_c, 6, 66, 64
7, 54944, Note_off_c, 6, 78, 64
7, 54956, Note_on_c, 6, 87, 86
7, 54956, Note_on_c, 6, 75, 86
7, 55152, Note_off_c, 6, 75, 64
7, 55156, Note_off_c, 6, 87, 64
7, 55160, Note_on_c, 6, 85, 86
7, 55160, Note_on_c, 6, 73, 86
7, 55392, Note_off_c, 6, 73, 64
7, 55396, Note_off_c, 6, 85, 64
7, 55404, Note_on_c, 6, 76, 86
7, 55404, Note_on_c, 6, 64, 86
7, 55904, Note_on_c, 6, 66, 86
7, 55920, Note_off_c, 6, 64, 64
7, 55920, Note_off_c, 6, 76, 64
7, 56380, Note_on_c, 6, 68, 86
7, 56384, Note_off_c, 6, 66, 64
7, 56600, Note_off_c, 6, 68, 64
7, 56608, Note_on_c, 6, 59, 86
7, 57520, Note_off_c, 6, 59, 64
7, 57568, Note_on_c, 6, 76, 86
7, 57572, Note_on_c, 6, 64, 86
7, 57688, Note_on_c, 6, 78, 86
7, 57688, Note_on_c, 6, 66, 86
7, 57692, Note_off_c, 6, 64, 64
7, 57692, Note_off_c, 6, 76, 64
7, 57808, Note_on_c, 6, 80, 86
7, 57808, Note_on_c, 6, 68, 86
7, 57820, Note_off_c, 6, 78, 64
7, 57820, Note_off_c, 6, 66, 64
7, 57944, Note_off_c, 6, 80, 64
7, 57944, Note_off_c, 6, 68, 64
7, 58064, Note_on_c, 6, 78, 86
7, 58064, Note_on_c, 6, 66, 86
7, 58172, Note_on_c, 6, 80, 86
7, 58176, Note_on_c, 6, 68, 86
7, 58192, Note_off_c, 6, 66, 64
7, 58192, Note_off_c, 6, 78, 64
7, 58300, Note_on_c, 6, 82, 86
7, 58300, Note_on_c, 6, 70, 86
7, 58304, Note_off_c, 6, 80, 64
7, 58304, Note_off_c, 6, 68, 64
7, 58452, Note_off_c, 6, 82, 64
7, 58452, Note_off_c, 6, 70, 64
7, 58544, Note_on_c, 6, 80, 86
7, 58544, Note_on_c, 6, 68, 86
7, 58656, Note_on_c, 6, 82, 86
7, 58656, Note_on_c, 6, 70, 86
7, 58664, Note_off_c, 6, 68, 64
7, 58664, Note_off_c, 6, 80, 64
7, 58764, Note_on_c, 6, 83, 86
7, 58764, Note_on_c, 6, 71, 86
7, 58784, Note_off_c, 6, 82, 64
7, 58784, Note_off_c, 6, 70, 64
7, 58904, Note_off_c, 6, 83, 64
7, 58904, Note_off_c, 6, 71, 64
7, 59020, Note_on_c, 6, 82, 86
7, 59020, Note_on_c, 6, 70, 86
7, 59128, Note_on_c, 6, 83, 86
7, 59128, Note_on_c, 6, 71, 86
7, 59148, Note_off_c, 6, 70, 64
7, 59148, Note_off_c, 6, 82, 64
7, 59244, Note_on_c, 6, 85, 86
7, 59244, Note_on_c, 6, 73, 86
7, 59252, Note_off_c, 6, 83, 64
7, 59252, Note_off_c, 6, 71, 64
7, 59384, Note_off_c, 6, 85, 64
7, 59384, Note_off_c, 6, 73, 64
7, 59492, Note_on_c, 6, 83, 86
7, 59496, Note_on_c, 6, 71, 86
7, 59600, Note_on_c, 6, 85, 86
7, 59600, Note_on_c, 6, 73, 86
7, 59624, Note_off_c, 6, 71, 64
7, 59624, Note_off_c, 6, 83, 64
7, 59720, Note_on_c, 6, 87, 86
7, 59720, Note_on_c, 6, 75, 86
7, 59724, Note_off_c, 6, 85, 64
7, 59724, Note_off_c, 6, 73, 64
7, 59880, Note_off_c, 6, 87, 64
7, 59880, Note_off_c, 6, 75, 64
7, 59960, Note_on_c, 6, 85, 86
7, 59960, Note_on_c, 6, 73, 86
7, 60072, Note_on_c, 6, 87, 86
7, 60072, Note_on_c, 6, 75, 86
7, 60092, Note_off_c, 6, 73, 64
7, 60092, Note_off_c, 6, 85, 64
7, 60200, Note_on_c, 6, 88, 86
7, 60200, Note_on_c, 6, 76, 86
7, 60208, Note_off_c, 6, 87, 64
7, 60208, Note_off_c, 6, 75, 64
7, 60340, Note_off_c, 6, 88, 64
7, 60340, Note_off_c, 6, 76, 64
7, 60452, Note_on_c, 6, 87, 86
7, 60452, Note_on_c, 6, 75, 86
7, 60564, Note_on_c, 6, 88, 86
7, 60564, Note_on_c, 6, 76, 86
7, 60588, Note_off_c, 6, 75, 64
7, 60588, Note_off_c, 6, 87, 64
7, 60680, Note_off_c, 6, 88, 64
7, 60680, Note_off_c, 6, 76, 64
7, 60684, Note_on_c, 6, 90, 86
7, 60684, Note_on_c, 6, 78, 86
7, 61388, Note_on_c, 6, 87, 86
7, 61392, Note_on_c, 6, 75, 86
7, 61400, Note_off_c, 6, 78, 64
7, 61400, Note_off_c, 6, 90, 64
7, 62872, Note_on_c, 6, 83, 86
7, 62872, Note_on_c, 6, 71, 86
7, 62892, Note_off_c, 6, 87, 64
7, 62892, Note_off_c, 6, 75, 64
7, 62980, Note_on_c, 6, 85, 86
7, 62980, Note_on_c, 6, 73, 86
7, 62988, Note_off_c, 6, 83, 64
7, 62988, Note_off_c, 6, 71, 64
7, 63100, Note_on_c, 6, 87, 86
7, 63100, Note_on_c, 6, 75, 86
7, 63112, Note_off_c, 6, 85, 64
7, 63112, Note_off_c, 6, 73, 64
7, 63208, Note_on_c, 6, 88, 86
7, 63212, Note_on_c, 6, 76, 86
7, 63224, Note_off_c, 6, 87, 64
7, 63224, Note_off_c, 6, 75, 64
7, 63324, Note_on_c, 6, 90, 86
7, 63324, Note_on_c, 6, 78, 86
7, 63332, Note_off_c, 6, 76, 64
7, 63336, Note_off_c, 6, 88, 64
7, 65260, Note_on_c, 6, 92, 86
7, 65260, Note_on_c, 6, 80, 86
7, 65268, Note_off_c, 6, 78, 64
7, 65272, Note_off_c, 6, 90, 64
7, 66708, Note_on_c, 6, 90, 86
7, 66712, Note_on_c, 6, 78, 86
7, 66736, Note_off_c, 6, 92, 64
7, 66736, Note_off_c, 6, 80, 64
7, 66812, Note_on_c, 6, 88, 86
7, 66812, Note_on_c, 6, 76, 86
7, 66828, Note_off_c, 6, 90, 64
7, 66828, Note_off_c, 6, 78, 64
7, 66904, Note_on_c, 6, 87, 86
7, 66904, Note_on_c, 6, 75, 86
7, 66912, Note_off_c, 6, 88, 64
7, 66912, Note_off_c, 6, 76, 64
7, 66988, Note_off_c, 6, 87, 64
7, 66988, Note_off_c, 6, 75, 64
7, 66992, Note_on_c, 6, 88, 86
7, 66992, Note_on_c, 6, 76, 86
7, 67072, Note_on_c, 6, 87, 86
7, 67072, Note_on_c, 6, 75, 86
7, 67084, Note_off_c, 6, 76, 64
7, 67084, Note_off_c, 6, 88, 64
7, 67144, Note_off_c, 6, 87, 64
7, 67144, Note_off_c, 6, 75, 64
7, 67152, Note_on_c, 6, 85, 86
7, 67152, Note_on_c, 6, 73, 86
7, 67684, Note_off_c, 6, 73, 64
7, 67684, Note_off_c, 6, 85, 64
7, 67692, Note_on_c, 6, 94, 86
7, 67692, Note_on_c, 6, 82, 86
7, 68128, Note_off_c, 6, 82, 64
7, 68132, Note_off_c, 6, 94, 64
7, 68140, Note_on_c, 6, 90, 86
7, 68140, Note_on_c, 6, 78, 86
7, 69048, Note_off_c, 6, 78, 64
7, 69048, Note_off_c, 6, 90, 64
7, 69128, Note_on_c, 6, 90, 86
7, 69128, Note_on_c, 6, 78, 86
7, 70328, Note_off_c, 6, 78, 64
7, 70328, Note_off_c, 6, 90, 64
7, 70552, Note_on_c, 6, 92, 86
7, 70552, Note_on_c, 6, 80, 86
7, 70652, Note_on_c, 6, 90, 86
7, 70652, Note_on_c, 6, 78, 86
7, 70680, Note_off_c, 6, 80, 64
7, 70680, Note_off_c, 6, 92, 64
7, 70772, Note_on_c, 6, 88, 86
7, 70772, Note_on_c, 6, 76, 86
7, 70788, Note_off_c, 6, 78, 64
7, 70792, Note_off_c, 6, 90, 64
7, 70880, Note_on_c, 6, 87, 86
7, 70880, Note_on_c, 6, 75, 86
7, 70892, Note_off_c, 6, 88, 64
7, 70892, Note_off_c, 6, 76, 64
7, 71012, Note_off_c, 6, 87, 64
7, 71012, Note_off_c, 6, 75, 64
7, 71012, Note_on_c, 6, 85, 86
7, 71012, Note_on_c, 6, 73, 86
7, 71980, Note_off_c, 6, 73, 64
7, 71980, Note_off_c, 6, 85, 64
7, 71984, Note_on_c, 6, 90, 86
7, 71984, Note_on_c, 6, 78, 86
7, 72456, Note_on_c, 6, 83, 86
7, 72460, Note_off_c, 6, 78, 64
7, 72460, Note_off_c, 6, 90, 64
7, 72460, Note_on_c, 6, 71, 86
7, 72924, Note_on_c, 6, 92, 86
7, 72924, Note_on_c, 6, 80, 86
7, 72932, Note_off_c, 6, 83, 64
7, 72932, Note_off_c, 6, 71, 64
7, 74420, Note_off_c, 6, 92, 64
7, 74420, Note_off_c, 6, 80, 64
7, 74424, Note_on_c, 6, 83, 86
7, 74424, Note_on_c, 6, 71, 86
7, 74864, Note_on_c, 6, 94, 86
7, 74864, Note_on_c, 6, 82, 86
7, 74884, Note_off_c, 6, 71, 64
7, 74884, Note_off_c, 6, 83, 64
7, 76724, Note_off_c, 6, 94, 64
7, 76724, Note_off_c, 6, 82, 64
7, 76784, Note_on_c, 6, 95, 86
7, 76784, Note_on_c, 6, 83, 86
7, 77832, Note_off_c, 6, 83, 64
7, 77832, Note_off_c, 6, 95, 64
7, 77844, Note_on_c, 6, 94, 86
7, 77844, Note_on_c, 6, 82, 86
7, 77980, Note_on_c, 6, 95, 86
7, 77980, Note_on_c, 6, 83, 86
7, 77992, Note_off_c, 6, 82, 64
7, 77992, Note_off_c, 6, 94, 64
7, 78084, Note_on_c, 6, 94, 86
7, 78084, Note_on_c, 6, 82, 86
7, 78104, Note_off_c, 6, 95, 64
7, 78104, Note_off_c, 6, 83, 64
7, 78208, Note_off_c, 6, 82, 64
7, 78212, Note_off_c, 6, 94, 64
7, 78212, Note_on_c, 6, 92, 86
7, 78212, Note_on_c, 6, 80, 86
7, 78308, Note_on_c, 6, 90, 86
7, 78308, Note_on_c, 6, 78, 86
7, 78312, Note_off_c, 6, 80, 64
7, 78312, Note_off_c, 6, 92, 64
7, 78444, Note_on_c, 6, 88, 86
7, 78444, Note_on_c, 6, 76, 86
7, 78468, Note_off_c, 6, 90, 64
7, 78468, Note_off_c, 6, 78, 64
7, 78552, Note_on_c, 6, 87, 86
7, 78552, Note_on_c, 6, 75, 86
7, 78564, Note_off_c, 6, 88, 64
7, 78564, Note_off_c, 6, 76, 64
7, 78672, Note_off_c, 6, 87, 64
7, 78672, Note_off_c, 6, 75, 64
7, 78672, Note_on_c, 6, 85, 86
7, 78672, Note_on_c, 6, 73, 86
7, 80528, Note_off_c, 6, 73, 64
7, 80528, Note_off_c, 6, 85, 64
7, 80660, Note_on_c, 6, 90, 86
7, 80660, Note_on_c, 6, 78, 86
7, 81328, Note_on_c, 6, 89, 86
7, 81332, Note_on_c, 6, 77, 86
7, 81344, Note_off_c, 6, 78, 64
7, 81344, Note_off_c, 6, 90, 64
7, 81992, Note_off_c, 6, 77, 64
7, 81996, Note_off_c, 6, 89, 64
7, 82272, Note_on_c, 6, 88, 86
7, 82272, Note_on_c, 6, 76, 86
7, 82332, Channel_aftertouch_c, 6, 0
7, 83712, Note_off_c, 6, 76, 64
7, 83712, Note_off_c, 6, 88, 64
7, 83992, Note_on_c, 6, 71, 86
7, 83992, Note_on_c, 6, 59, 86
7, 84088, Note_on_c, 6, 73, 86
7, 84092, Note_on_c, 6, 61, 86
7, 84108, Note_off_c, 6, 59, 64
7, 84108, Note_off_c, 6, 71, 64
7, 84212, Note_on_c, 6, 75, 86
7, 84212, Note_on_c, 6, 63, 86
7, 84224, Note_off_c, 6, 73, 64
7, 84224, Note_off_c, 6, 61, 64
7, 84324, Note_on_c, 6, 76, 86
7, 84324, Note_on_c, 6, 64, 86
7, 84328, Note_off_c, 6, 75, 64
7, 84328, Note_off_c, 6, 63, 64
7, 84448, Note_off_c, 6, 76, 64
7, 84448, Note_off_c, 6, 64, 64
7, 95968, Note_on_c, 6, 88, 86
7, 95972, Note_on_c, 6, 76, 86
7, 97404, Note_off_c, 6, 76, 64
7, 97420, Note_on_c, 6, 75, 86
7, 97432, Note_on_c, 6, 87, 86
7, 97448, Note_off_c, 6, 88, 64
7, 97540, Note_on_c, 6, 85, 86
7, 97548, Note_off_c, 6, 87, 64
7, 97560, Note_on_c, 6, 73, 86
7, 97572, Note_off_c, 6, 75, 64
7, 97644, Note_off_c, 6, 85, 64
7, 97652, Note_on_c, 6, 83, 86
7, 97668, Note_off_c, 6, 73, 64
7, 97668, Note_on_c, 6, 71, 86
7, 97760, Note_off_c, 6, 83, 64
7, 97784, Note_on_c, 6, 85, 86
7, 97784, Note_on_c, 6, 73, 86
7, 97788, Note_off_c, 6, 71, 64
7, 97904, Note_off_c, 6, 85, 64
7, 97908, Note_off_c, 6, 73, 64
7, 97916, Note_on_c, 6, 87, 86
7, 97916, Note_on_c, 6, 75, 86
7, 98360, Note_on_c, 6, 83, 86
7, 98368, Note_on_c, 6, 71, 86
7, 98372, Note_off_c, 6, 87, 64
7, 98380, Note_off_c, 6, 75, 64
7, 98852, Note_off_c, 6, 71, 64
7, 98860, Note_on_c, 6, 68, 86
7, 98864, Note_off_c, 6, 83, 64
7, 98868, Note_on_c, 6, 80, 86
7, 99324, Note_on_c, 6, 76, 86
7, 99332, Note_on_c, 6, 64, 86
7, 99340, Note_off_c, 6, 68, 64
7, 99348, Note_off_c, 6, 80, 64
7, 99788, Note_off_c, 6, 64, 64
7, 99792, Note_off_c, 6, 76, 64
7, 110376, Note_on_c, 6, 75, 86
7, 110376, Note_on_c, 6, 63, 86
7, 111320, Note_on_c, 6, 76, 86
7, 111320, Note_on_c, 6, 64, 86
7, 111340, Note_off_c, 6, 63, 64
7, 111340, Note_off_c, 6, 75, 64
7, 112784, Note_on_c, 6, 75, 86
7, 112784, Note_on_c, 6, 63, 86
7, 112788, Note_off_c, 6, 64, 64
7, 112792, Note_off_c, 6, 76, 64
7, 112884, Note_on_c, 6, 73, 86
7, 112884, Note_on_c, 6, 61, 86
7, 112908, Note_off_c, 6, 75, 64
7, 112908, Note_off_c, 6, 63, 64
7, 113004, Note_on_c, 6, 71, 86
7, 113004, Note_on_c, 6, 59, 86
7, 113024, Note_off_c, 6, 73, 64
7, 113024, Note_off_c, 6, 61, 64
7, 113112, Note_off_c, 6, 59, 64
7, 113116, Note_off_c, 6, 71, 64
7, 113120, Note_on_c, 6, 73, 86
7, 113120, Note_on_c, 6, 61, 86
7, 113240, Note_on_c, 6, 75, 86
7, 113240, Note_on_c, 6, 63, 86
7, 113244, Note_off_c, 6, 61, 64
7, 113244, Note_off_c, 6, 73, 64
7, 113712, Note_on_c, 6, 71, 86
7, 113716, Note_on_c, 6, 59, 86
7, 113724, Note_off_c, 6, 75, 64
7, 113724, Note_off_c, 6, 63, 64
7, 114188, Note_on_c, 6, 68, 86
7, 114192, Note_off_c, 6, 71, 64
7, 114192, Note_off_c, 6, 59, 64
7, 114192, Note_on_c, 6, 56, 86
7, 114692, Note_on_c, 6, 64, 86
7, 114696, Note_on_c, 6, 52, 86
7, 114708, Note_off_c, 6, 68, 64
7, 114708, Note_off_c, 6, 56, 64
7, 115172, Note_off_c, 6, 52, 64
7, 115176, Note_off_c, 6, 64, 64
7, 115184, Note_on_c, 6, 63, 86
7, 115184, Note_on_c, 6, 51, 86
7, 115872, Note_off_c, 6, 51, 64
7, 115872, Note_off_c, 6, 63, 64
7, 115880, Note_on_c, 6, 66, 86
7, 115880, Note_on_c, 6, 54, 86
7, 116128, Note_off_c, 6, 54, 64
7, 116128, Note_off_c, 6, 66, 64
7, 116140, Note_on_c, 6, 71, 86
7, 116140, Note_on_c, 6, 59, 86
7, 116372, Note_off_c, 6, 59, 64
7, 116372, Note_off_c, 6, 71, 64
7, 116384, Note_on_c, 6, 70, 86
7, 116384, Note_on_c, 6, 58, 86
7, 116844, Note_off_c, 6, 58, 64
7, 116844, Note_off_c, 6, 70, 64
7, 116844, Note_on_c, 6, 68, 86
7, 116844, Note_on_c, 6, 56, 86
7, 117068, Note_off_c, 6, 56, 64
7, 117068, Note_off_c, 6, 68, 64
7, 117076, Note_on_c, 6, 66, 86
7, 117076, Note_on_c, 6, 54, 86
7, 118048, Note_on_c, 6, 68, 86
7, 118052, Note_on_c, 6, 56, 86
7, 118064, Note_off_c, 6, 54, 64
7, 118064, Note_off_c, 6, 66, 64
7, 120920, Note_on_c, 6, 73, 86
7, 120920, Note_on_c, 6, 61, 86
7, 120956, Note_off_c, 6, 68, 64
7, 120956, Note_off_c, 6, 56, 64
7, 122148, Note_on_c, 6, 70, 86
7, 122148, Note_on_c, 6, 58, 86
7, 122160, Note_off_c, 6, 73, 64
7, 122160, Note_off_c, 6, 61, 64
7, 122404, Note_on_c, 6, 68, 86
7, 122404, Note_on_c, 6, 56, 86
7, 122412, Note_off_c, 6, 58, 64
7, 122416, Note_off_c, 6, 70, 64
7, 122624, Note_off_c, 6, 68, 64
7, 122624, Note_off_c, 6, 56, 64
7, 122624, Note_on_c, 6, 66, 86
7, 122624, Note_on_c, 6, 54, 86
7, 122788, Note_off_c, 6, 54, 64
7, 122788, Note_off_c, 6, 66, 64
7, 122844, Note_on_c, 6, 66, 86
7, 122844, Note_on_c, 6, 54, 86
7, 123100, Note_off_c, 6, 54, 64
7, 123100, Note_off_c, 6, 66, 64
7, 123104, Note_on_c, 6, 71, 86
7, 123104, Note_on_c, 6, 59, 86
7, 123344, Note_off_c, 6, 59, 64
7, 123344, Note_off_c, 6, 71, 64
7, 123348, Note_on_c, 6, 68, 86
7, 123348, Note_on_c, 6, 56, 86
7, 123584, Note_off_c, 6, 56, 64
7, 123584, Note_off_c, 6, 68, 64
7, 123592, Note_on_c, 6, 66, 86
7, 123596, Note_on_c, 6, 54, 86
7, 124064, Note_off_c, 6, 54, 64
7, 124064, Note_off_c, 6, 66, 64
7, 124068, Note_on_c, 6, 75, 86
7, 124072, Note_on_c, 6, 63, 86
7, 124276, Note_off_c, 6, 63, 64
7, 124276, Note_off_c, 6, 75, 64
7, 124280, Note_on_c, 6, 73, 86
7, 124280, Note_on_c, 6, 61, 86
7, 124516, Note_off_c, 6, 61, 64
7, 124516, Note_off_c, 6, 73, 64
7, 124524, Note_on_c, 6, 64, 86
7, 124524, Note_on_c, 6, 52, 86
7, 124992, Note_off_c, 6, 52, 64
7, 124996, Note_off_c, 6, 64, 64
7, 125004, Note_on_c, 6, 66, 86
7, 125004, Note_on_c, 6, 54, 86
7, 125240, Note_off_c, 6, 54, 64
7, 125240, Note_off_c, 6, 66, 64
7, 125244, Note_on_c, 6, 68, 86
7, 125244, Note_on_c, 6, 56, 86
7, 125480, Note_off_c, 6, 56, 64
7, 125480, Note_off_c, 6, 68, 64
7, 125484, Note_on_c, 6, 59, 86
7, 125484, Note_on_c, 6, 47, 86
7, 126288, Note_off_c, 6, 47, 64
7, 126288, Note_off_c, 6, 59, 64
7, 126688, Note_on_c, 6, 64, 86
7, 126692, Note_on_c, 6, 52, 86
7, 126804, Note_on_c, 6, 66, 86
7, 126804, Note_on_c, 6, 54, 86
7, 126808, Note_off_c, 6, 52, 64
7, 126808, Note_off_c, 6, 64, 64
7, 126932, Note_on_c, 6, 68, 86
7, 126936, Note_on_c, 6, 56, 86
7, 126952, Note_off_c, 6, 66, 64
7, 126952, Note_off_c, 6, 54, 64
7, 127060, Note_off_c, 6, 68, 64
7, 127060, Note_off_c, 6, 56, 64
7, 127184, Note_on_c, 6, 66, 86
7, 127184, Note_on_c, 6, 54, 86
7, 127300, Note_on_c, 6, 68, 86
7, 127300, Note_on_c, 6, 56, 86
7, 127308, Note_off_c, 6, 54, 64
7, 127308, Note_off_c, 6, 66, 64
7, 127412, Note_on_c, 6, 70, 86
7, 127416, Note_on_c, 6, 58, 86
7, 127420, Note_off_c, 6, 68, 64
7, 127420, Note_off_c, 6, 56, 64
7, 127528, Note_off_c, 6, 58, 64
7, 127532, Note_off_c, 6, 70, 64
7, 127652, Note_on_c, 6, 68, 86
7, 127656, Note_on_c, 6, 56, 86
7, 127768, Note_on_c, 6, 70, 86
7, 127772, Note_on_c, 6, 58, 86
7, 127788, Note_off_c, 6, 56, 64
7, 127788, Note_off_c, 6, 68, 64
7, 127888, Note_on_c, 6, 71, 86
7, 127888, Note_on_c, 6, 59, 86
7, 127908, Note_off_c, 6, 70, 64
7, 127908, Note_off_c, 6, 58, 64
7, 127988, Note_off_c, 6, 59, 64
7, 127992, Note_off_c, 6, 71, 64
7, 128136, Note_on_c, 6, 70, 86
7, 128136, Note_on_c, 6, 58, 86
7, 128244, Note_on_c, 6, 71, 86
7, 128244, Note_on_c, 6, 59, 86
7, 128268, Note_off_c, 6, 58, 64
7, 128268, Note_off_c, 6, 70, 64
7, 128368, Note_on_c, 6, 73, 86
7, 128368, Note_on_c, 6, 61, 86
7, 128380, Note_off_c, 6, 71, 64
7, 128380, Note_off_c, 6, 59, 64
7, 128492, Note_off_c, 6, 73, 64
7, 128492, Note_off_c, 6, 61, 64
7, 128612, Note_on_c, 6, 71, 86
7, 128612, Note_on_c, 6, 59, 86
7, 128724, Note_on_c, 6, 73, 86
7, 128724, Note_on_c, 6, 61, 86
7, 128740, Note_off_c, 6, 59, 64
7, 128740, Note_off_c, 6, 71, 64
7, 128852, Note_on_c, 6, 75, 86
7, 128852, Note_on_c, 6, 63, 86
7, 128868, Note_off_c, 6, 61, 64
7, 128872, Note_off_c, 6, 73, 64
7, 128964, Note_off_c, 6, 75, 64
7, 128964, Note_off_c, 6, 63, 64
7, 129092, Note_on_c, 6, 73, 86
7, 129096, Note_on_c, 6, 61, 86
7, 129204, Note_on_c, 6, 75, 86
7, 129204, Note_on_c, 6, 63, 86
7, 129224, Note_off_c, 6, 61, 64
7, 129224, Note_off_c, 6, 73, 64
7, 129332, Note_off_c, 6, 75, 64
7, 129332, Note_off_c, 6, 63, 64
7, 129340, Note_on_c, 6, 76, 86
7, 129340, Note_on_c, 6, 64, 86
7, 129468, Note_off_c, 6, 64, 64
7, 129472, Note_off_c, 6, 76, 64
7, 129572, Note_on_c, 6, 75, 86
7, 129576, Note_on_c, 6, 63, 86
7, 129700, Note_on_c, 6, 76, 86
7, 129700, Note_on_c, 6, 64, 86
7, 129708, Note_off_c, 6, 63, 64
7, 129708, Note_off_c, 6, 75, 64
7, 129792, Note_off_c, 6, 76, 64
7, 129792, Note_off_c, 6, 64, 64
7, 129804, Note_on_c, 6, 78, 86
7, 129804, Note_on_c, 6, 66, 86
7, 130536, Note_off_c, 6, 66, 64
7, 130536, Note_off_c, 6, 78, 64
7, 130544, Note_on_c, 6, 75, 86
7, 130544, Note_on_c, 6, 63, 86
7, 131140, Note_off_c, 6, 63, 64
7, 131140, Note_off_c, 6, 75, 64
7, 131488, Note_on_c, 6, 64, 86
7, 131492, Note_on_c, 6, 52, 86
7, 131600, Note_on_c, 6, 66, 86
7, 131600, Note_on_c, 6, 54, 86
7, 131604, Note_off_c, 6, 52, 64
7, 131604, Note_off_c, 6, 64, 64
7, 131724, Note_on_c, 6, 68, 86
7, 131724, Note_on_c, 6, 56, 86
7, 131740, Note_off_c, 6, 66, 64
7, 131740, Note_off_c, 6, 54, 64
7, 131824, Note_on_c, 6, 70, 86
7, 131824, Note_on_c, 6, 58, 86
7, 131832, Note_off_c, 6, 68, 64
7, 131832, Note_off_c, 6, 56, 64
7, 131944, Note_on_c, 6, 71, 86
7, 131944, Note_on_c, 6, 59, 86
7, 131964, Note_off_c, 6, 70, 64
7, 131964, Note_off_c, 6, 58, 64
7, 132044, Note_off_c, 6, 71, 64
7, 132044, Note_off_c, 6, 59, 64
7, 132060, Note_on_c, 6, 73, 86
7, 132060, Note_on_c, 6, 61, 86
7, 132180, Note_off_c, 6, 61, 64
7, 132180, Note_off_c, 6, 73, 64
7, 132184, Note_on_c, 6, 75, 86
7, 132184, Note_on_c, 6, 63, 86
7, 132288, Note_on_c, 6, 76, 86
7, 132288, Note_on_c, 6, 64, 86
7, 132300, Note_off_c, 6, 63, 64
7, 132304, Note_off_c, 6, 75, 64
7, 132404, Note_on_c, 6, 78, 86
7, 132404, Note_on_c, 6, 66, 86
7, 132408, Note_off_c, 6, 76, 64
7, 132408, Note_off_c, 6, 64, 64
7, 134060, Note_off_c, 6, 78, 64
7, 134060, Note_off_c, 6, 66, 64
7, 134360, Note_on_c, 6, 80, 86
7, 134360, Note_on_c, 6, 68, 86
7, 135824, Note_on_c, 6, 78, 86
7, 135824, Note_on_c, 6, 66, 86
7, 135856, Note_off_c, 6, 68, 64
7, 135856, Note_off_c, 6, 80, 64
7, 135908, Note_on_c, 6, 76, 86
7, 135908, Note_on_c, 6, 64, 86
7, 135932, Note_off_c, 6, 78, 64
7, 135932, Note_off_c, 6, 66, 64
7, 136000, Note_on_c, 6, 75, 86
7, 136000, Note_on_c, 6, 63, 86
7, 136004, Note_off_c, 6, 76, 64
7, 136004, Note_off_c, 6, 64, 64
7, 136092, Note_on_c, 6, 76, 86
7, 136092, Note_on_c, 6, 64, 86
7, 136100, Note_off_c, 6, 75, 64
7, 136100, Note_off_c, 6, 63, 64
7, 136172, Note_on_c, 6, 75, 86
7, 136172, Note_on_c, 6, 63, 86
7, 136188, Note_off_c, 6, 76, 64
7, 136188, Note_off_c, 6, 64, 64
7, 136252, Note_off_c, 6, 75, 64
7, 136252, Note_off_c, 6, 63, 64
7, 136260, Note_on_c, 6, 73, 86
7, 136260, Note_on_c, 6, 61, 86
7, 136752, Note_off_c, 6, 61, 64
7, 136752, Note_off_c, 6, 73, 64
7, 136764, Note_on_c, 6, 82, 86
7, 136764, Note_on_c, 6, 70, 86
7, 137240, Note_on_c, 6, 78, 86
7, 137240, Note_on_c, 6, 66, 86
7, 137244, Note_off_c, 6, 70, 64
7, 137244, Note_off_c, 6, 82, 64
7, 138024, Note_off_c, 6, 78, 64
7, 138024, Note_off_c, 6, 66, 64
7, 138232, Note_on_c, 6, 66, 86
7, 138232, Note_on_c, 6, 78, 86
7, 139324, Note_off_c, 6, 66, 64
7, 139328, Note_off_c, 6, 78, 64
7, 139660, Note_on_c, 6, 80, 86
7, 139660, Note_on_c, 6, 68, 86
7, 139768, Note_on_c, 6, 78, 86
7, 139768, Note_on_c, 6, 66, 86
7, 139804, Note_off_c, 6, 68, 64
7, 139804, Note_off_c, 6, 80, 64
7, 139872, Note_off_c, 6, 78, 64
7, 139872, Note_off_c, 6, 66, 64
7, 139884, Note_on_c, 6, 76, 86
7, 139884, Note_on_c, 6, 64, 86
7, 140004, Note_on_c, 6, 75, 86
7, 140004, Note_on_c, 6, 63, 86
7, 140016, Note_off_c, 6, 64, 64
7, 140016, Note_off_c, 6, 76, 64
7, 140132, Note_on_c, 6, 73, 86
7, 140136, Note_on_c, 6, 61, 86
7, 140140, Note_off_c, 6, 75, 64
7, 140140, Note_off_c, 6, 63, 64
7, 141080, Note_off_c, 6, 73, 64
7, 141080, Note_off_c, 6, 61, 64
7, 141084, Note_on_c, 6, 78, 86
7, 141084, Note_on_c, 6, 66, 86
7, 141568, Note_on_c, 6, 71, 86
7, 141572, Note_on_c, 6, 59, 86
7, 141584, Note_off_c, 6, 66, 64
7, 141584, Note_off_c, 6, 78, 64
7, 142032, Note_on_c, 6, 80, 86
7, 142036, Note_on_c, 6, 68, 86
7, 142044, Note_off_c, 6, 71, 64
7, 142044, Note_off_c, 6, 59, 64
7, 143504, Note_on_c, 6, 71, 86
7, 143504, Note_on_c, 6, 59, 86
7, 143508, Note_off_c, 6, 80, 64
7, 143508, Note_off_c, 6, 68, 64
7, 143964, Note_on_c, 6, 82, 86
7, 143964, Note_on_c, 6, 70, 86
7, 143968, Note_off_c, 6, 71, 64
7, 143968, Note_off_c, 6, 59, 64
7, 145824, Note_off_c, 6, 82, 64
7, 145824, Note_off_c, 6, 70, 64
7, 146600, Note_on_c, 6, 64, 86
7, 146600, Note_on_c, 6, 52, 86
7, 146712, Note_off_c, 6, 52, 64
7, 146716, Note_off_c, 6, 64, 64
7, 146716, Note_on_c, 6, 63, 86
7, 146720, Note_on_c, 6, 51, 86
7, 146832, Note_on_c, 6, 64, 86
7, 146836, Note_on_c, 6, 52, 86
7, 146848, Note_off_c, 6, 51, 64
7, 146852, Note_off_c, 6, 63, 64
7, 146964, Note_off_c, 6, 64, 64
7, 146964, Note_off_c, 6, 52, 64
7, 146980, Note_on_c, 6, 66, 86
7, 146980, Note_on_c, 6, 54, 86
7, 147100, Note_on_c, 6, 68, 86
7, 147100, Note_on_c, 6, 56, 86
7, 147112, Note_off_c, 6, 54, 64
7, 147112, Note_off_c, 6, 66, 64
7, 147200, Note_on_c, 6, 70, 86
7, 147200, Note_on_c, 6, 58, 86
7, 147208, Note_off_c, 6, 68, 64
7, 147208, Note_off_c, 6, 56, 64
7, 147312, Note_on_c, 6, 71, 86
7, 147316, Note_on_c, 6, 59, 86
7, 147324, Note_off_c, 6, 70, 64
7, 147324, Note_off_c, 6, 58, 64
7, 147420, Note_off_c, 6, 71, 64
7, 147420, Note_off_c, 6, 59, 64
7, 147424, Note_on_c, 6, 73, 86
7, 147424, Note_on_c, 6, 61, 86
7, 147560, Note_on_c, 6, 75, 86
7, 147560, Note_on_c, 6, 63, 86
7, 147568, Note_off_c, 6, 61, 64
7, 147568, Note_off_c, 6, 73, 64
7, 147668, Note_on_c, 6, 76, 86
7, 147672, Note_on_c, 6, 64, 86
7, 147700, Note_off_c, 6, 75, 64
7, 147700, Note_off_c, 6, 63, 64
7, 147784, Note_on_c, 6, 78, 86
7, 147784, Note_on_c, 6, 66, 86
7, 147800, Note_off_c, 6, 76, 64
7, 147800, Note_off_c, 6, 64, 64
7, 149708, Note_off_c, 6, 66, 64
7, 149712, Note_off_c, 6, 78, 64
7, 149724, Note_on_c, 6, 80, 86
7, 149724, Note_on_c, 6, 68, 86
7, 151192, Note_on_c, 6, 78, 86
7, 151192, Note_on_c, 6, 66, 86
7, 151220, Note_off_c, 6, 68, 64
7, 151220, Note_off_c, 6, 80, 64
7, 151272, Note_on_c, 6, 76, 86
7, 151272, Note_on_c, 6, 64, 86
7, 151304, Note_off_c, 6, 78, 64
7, 151304, Note_off_c, 6, 66, 64
7, 151348, Note_on_c, 6, 75, 86
7, 151348, Note_on_c, 6, 63, 86
7, 151360, Note_off_c, 6, 76, 64
7, 151360, Note_off_c, 6, 64, 64
7, 151432, Note_on_c, 6, 76, 86
7, 151432, Note_on_c, 6, 64, 86
7, 151448, Note_off_c, 6, 75, 64
7, 151448, Note_off_c, 6, 63, 64
7, 151520, Note_on_c, 6, 75, 86
7, 151520, Note_on_c, 6, 63, 86
7, 151540, Note_off_c, 6, 76, 64
7, 151540, Note_off_c, 6, 64, 64
7, 151608, Note_off_c, 6, 63, 64
7, 151612, Note_off_c, 6, 75, 64
7, 151612, Note_on_c, 6, 73, 86
7, 151612, Note_on_c, 6, 61, 86
7, 152132, Note_off_c, 6, 61, 64
7, 152136, Note_off_c, 6, 73, 64
7, 152136, Note_on_c, 6, 82, 86
7, 152140, Note_on_c, 6, 70, 86
7, 152604, Note_off_c, 6, 70, 64
7, 152604, Note_off_c, 6, 82, 64
7, 152604, Note_on_c, 6, 78, 86
7, 152608, Note_on_c, 6, 66, 86
7, 153472, Note_off_c, 6, 66, 64
7, 153472, Note_off_c, 6, 78, 64
7, 153572, Note_on_c, 6, 66, 86
7, 153572, Note_on_c, 6, 78, 86
7, 154908, Note_off_c, 6, 78, 64
7, 154912, Note_off_c, 6, 66, 64
7, 155020, Note_on_c, 6, 80, 86
7, 155020, Note_on_c, 6, 68, 86
7, 155148, Note_on_c, 6, 78, 86
7, 155152, Note_on_c, 6, 66, 86
7, 155172, Note_off_c, 6, 68, 64
7, 155172, Note_off_c, 6, 80, 64
7, 155264, Note_on_c, 6, 76, 86
7, 155264, Note_on_c, 6, 64, 86
7, 155288, Note_off_c, 6, 78, 64
7, 155288, Note_off_c, 6, 66, 64
7, 155384, Note_on_c, 6, 75, 86
7, 155384, Note_on_c, 6, 63, 86
7, 155388, Note_off_c, 6, 64, 64
7, 155392, Note_off_c, 6, 76, 64
7, 155508, Note_off_c, 6, 63, 64
7, 155512, Note_off_c, 6, 75, 64
7, 155512, Note_on_c, 6, 73, 86
7, 155512, Note_on_c, 6, 61, 86
7, 156472, Note_off_c, 6, 61, 64
7, 156472, Note_on_c, 6, 78, 86
7, 156472, Note_on_c, 6, 66, 86
7, 156476, Note_off_c, 6, 73, 64
7, 156940, Note_off_c, 6, 78, 64
7, 156940, Note_off_c, 6, 66, 64
7, 156952, Note_on_c, 6, 71, 86
7, 156952, Note_on_c, 6, 59, 86
7, 157392, Note_on_c, 6, 80, 86
7, 157396, Note_on_c, 6, 68, 86
7, 157412, Note_off_c, 6, 59, 64
7, 157416, Note_off_c, 6, 71, 64
7, 158864, Note_off_c, 6, 80, 64
7, 158864, Note_off_c, 6, 68, 64
7, 158868, Note_on_c, 6, 71, 86
7, 158872, Note_on_c, 6, 59, 86
7, 159320, Note_on_c, 6, 82, 86
7, 159320, Note_on_c, 6, 70, 86
7, 159324, Note_off_c, 6, 59, 64
7, 159324, Note_off_c, 6, 71, 64
7, 161080, Note_off_c, 6, 82, 64
7, 161080, Note_off_c, 6, 70, 64
7, 161984, Note_on_c, 6, 64, 86
7, 161984, Note_on_c, 6, 52, 86
7, 162096, Note_on_c, 6, 63, 86
7, 162096, Note_on_c, 6, 51, 86
7, 162104, Note_off_c, 6, 52, 64
7, 162104, Note_off_c, 6, 64, 64
7, 162200, Note_on_c, 6, 64, 86
7, 162200, Note_on_c, 6, 52, 86
7, 162212, Note_off_c, 6, 63, 64
7, 162212, Note_off_c, 6, 51, 64
7, 162320, Note_off_c, 6, 64, 64
7, 162320, Note_off_c, 6, 52, 64
7, 162324, Note_on_c, 6, 66, 86
7, 162324, Note_on_c, 6, 54, 86
7, 162444, Note_on_c, 6, 68, 86
7, 162444, Note_on_c, 6, 56, 86
7, 162452, Note_off_c, 6, 54, 64
7, 162452, Note_off_c, 6, 66, 64
7, 162552, Note_on_c, 6, 70, 86
7, 162556, Note_on_c, 6, 58, 86
7, 162564, Note_off_c, 6, 68, 64
7, 162564, Note_off_c, 6, 56, 64
7, 162672, Note_on_c, 6, 71, 86
7, 162676, Note_on_c, 6, 59, 86
7, 162696, Note_off_c, 6, 70, 64
7, 162696, Note_off_c, 6, 58, 64
7, 162788, Note_off_c, 6, 59, 64
7, 162792, Note_off_c, 6, 71, 64
7, 162792, Note_on_c, 6, 73, 86
7, 162796, Note_on_c, 6, 61, 86
7, 162920, Note_on_c, 6, 75, 86
7, 162920, Note_on_c, 6, 63, 86
7, 162924, Note_off_c, 6, 61, 64
7, 162924, Note_off_c, 6, 73, 64
7, 163032, Note_on_c, 6, 76, 86
7, 163036, Note_on_c, 6, 64, 86
7, 163052, Note_off_c, 6, 63, 64
7, 163056, Note_off_c, 6, 75, 64
7, 163140, Note_on_c, 6, 78, 86
7, 163140, Note_on_c, 6, 66, 86
7, 163144, Note_off_c, 6, 76, 64
7, 163144, Note_off_c, 6, 64, 64
7, 165088, Note_on_c, 6, 80, 86
7, 165092, Note_off_c, 6, 66, 64
7, 165092, Note_on_c, 6, 68, 86
7, 165096, Note_off_c, 6, 78, 64
7, 166532, Note_on_c, 6, 78, 86
7, 166536, Note_on_c, 6, 66, 86
7, 166576, Note_off_c, 6, 80, 64
7, 166576, Note_off_c, 6, 68, 64
7, 166616, Note_on_c, 6, 76, 86
7, 166616, Note_on_c, 6, 64, 86
7, 166648, Note_off_c, 6, 78, 64
7, 166648, Note_off_c, 6, 66, 64
7, 166704, Note_on_c, 6, 75, 86
7, 166704, Note_on_c, 6, 63, 86
7, 166720, Note_off_c, 6, 76, 64
7, 166720, Note_off_c, 6, 64, 64
7, 166808, Note_off_c, 6, 63, 64
7, 166812, Note_off_c, 6, 75, 64
7, 166812, Note_on_c, 6, 76, 86
7, 166812, Note_on_c, 6, 64, 86
7, 166884, Note_on_c, 6, 75, 86
7, 166884, Note_on_c, 6, 63, 86
7, 166912, Note_off_c, 6, 64, 64
7, 166912, Note_off_c, 6, 76, 64
7, 166996, Note_on_c, 6, 73, 86
7, 166996, Note_on_c, 6, 61, 86
7, 167000, Note_off_c, 6, 75, 64
7, 167000, Note_off_c, 6, 63, 64
7, 167472, Note_off_c, 6, 61, 64
7, 167476, Note_off_c, 6, 73, 64
7, 167476, Note_on_c, 6, 82, 86
7, 167480, Note_on_c, 6, 70, 86
7, 167948, Note_on_c, 6, 78, 86
7, 167952, Note_off_c, 6, 70, 64
7, 167952, Note_on_c, 6, 66, 86
7, 167956, Note_off_c, 6, 82, 64
7, 168844, Note_off_c, 6, 78, 64
7, 168844, Note_off_c, 6, 66, 64
7, 168944, Note_on_c, 6, 78, 86
7, 168944, Note_on_c, 6, 66, 86
7, 170064, Note_off_c, 6, 66, 64
7, 170064, Note_off_c, 6, 78, 64
7, 170372, Note_on_c, 6, 80, 86
7, 170372, Note_on_c, 6, 68, 86
7, 170492, Note_on_c, 6, 78, 86
7, 170492, Note_on_c, 6, 66, 86
7, 170524, Note_off_c, 6, 68, 64
7, 170524, Note_off_c, 6, 80, 64
7, 170612, Note_on_c, 6, 76, 86
7, 170612, Note_on_c, 6, 64, 86
7, 170648, Note_off_c, 6, 78, 64
7, 170648, Note_off_c, 6, 66, 64
7, 170732, Note_on_c, 6, 75, 86
7, 170732, Note_on_c, 6, 63, 86
7, 170744, Note_off_c, 6, 76, 64
7, 170744, Note_off_c, 6, 64, 64
7, 170868, Note_on_c, 6, 73, 86
7, 170872, Note_on_c, 6, 61, 86
7, 170876, Note_off_c, 6, 75, 64
7, 170876, Note_off_c, 6, 63, 64
7, 171788, Note_off_c, 6, 61, 64
7, 171792, Note_off_c, 6, 73, 64
7, 171792, Note_on_c, 6, 78, 86
7, 171792, Note_on_c, 6, 66, 86
7, 172284, Note_off_c, 6, 66, 64
7, 172284, Note_off_c, 6, 78, 64
7, 172284, Note_on_c, 6, 71, 86
7, 172284, Note_on_c, 6, 59, 86
7, 172768, Note_off_c, 6, 59, 64
7, 172772, Note_off_c, 6, 71, 64
7, 172772, Note_on_c, 6, 80, 86
7, 172776, Note_on_c, 6, 68, 86
7, 174256, Note_off_c, 6, 68, 64
7, 174256, Note_off_c, 6, 80, 64
7, 174256, Note_on_c, 6, 71, 86
7, 174260, Note_on_c, 6, 59, 86
7, 174668, Note_off_c, 6, 59, 64
7, 174672, Note_off_c, 6, 71, 64
7, 174672, Note_on_c, 6, 82, 86
7, 174672, Note_on_c, 6, 70, 86
7, 176580, Note_off_c, 6, 70, 64
7, 176580, Note_off_c, 6, 82, 64
7, 177348, Note_on_c, 6, 64, 86
7, 177352, Note_on_c, 6, 52, 86
7, 177464, Note_on_c, 6, 63, 86
7, 177464, Note_on_c, 6, 51, 86
7, 177472, Note_off_c, 6, 52, 64
7, 177476, Note_off_c, 6, 64, 64
7, 177572, Note_on_c, 6, 64, 86
7, 177576, Note_on_c, 6, 52, 86
7, 177584, Note_off_c, 6, 63, 64
7, 177584, Note_off_c, 6, 51, 64
7, 177688, Note_off_c, 6, 64, 64
7, 177688, Note_off_c, 6, 52, 64
7, 177692, Note_on_c, 6, 66, 86
7, 177692, Note_on_c, 6, 54, 86
7, 177812, Note_on_c, 6, 68, 86
7, 177816, Note_on_c, 6, 56, 86
7, 177832, Note_off_c, 6, 54, 64
7, 177832, Note_off_c, 6, 66, 64
7, 177932, Note_on_c, 6, 70, 86
7, 177936, Note_on_c, 6, 58, 86
7, 177944, Note_off_c, 6, 68, 64
7, 177944, Note_off_c, 6, 56, 64
7, 178052, Note_on_c, 6, 71, 86
7, 178056, Note_on_c, 6, 59, 86
7, 178072, Note_off_c, 6, 58, 64
7, 178076, Note_off_c, 6, 70, 64
7, 178164, Note_off_c, 6, 71, 64
7, 178164, Note_off_c, 6, 59, 64
7, 178172, Note_on_c, 6, 73, 86
7, 178172, Note_on_c, 6, 61, 86
7, 178296, Note_on_c, 6, 75, 86
7, 178296, Note_on_c, 6, 63, 86
7, 178300, Note_off_c, 6, 61, 64
7, 178300, Note_off_c, 6, 73, 64
7, 178412, Note_on_c, 6, 76, 86
7, 178416, Note_on_c, 6, 64, 86
7, 178428, Note_off_c, 6, 75, 64
7, 178428, Note_off_c, 6, 63, 64
7, 178520, Note_off_c, 6, 76, 64
7, 178520, Note_off_c, 6, 64, 64
7, 178524, Note_on_c, 6, 78, 86
7, 178524, Note_on_c, 6, 66, 86
7, 180460, Note_on_c, 6, 80, 86
7, 180460, Note_on_c, 6, 68, 86
7, 180484, Note_off_c, 6, 66, 64
7, 180484, Note_off_c, 6, 78, 64
7, 181900, Note_on_c, 6, 78, 86
7, 181900, Note_on_c, 6, 66, 86
7, 181936, Note_off_c, 6, 80, 64
7, 181936, Note_off_c, 6, 68, 64
7, 181984, Note_on_c, 6, 76, 86
7, 181984, Note_on_c, 6, 64, 86
7, 182008, Note_off_c, 6, 78, 64
7, 182008, Note_off_c, 6, 66, 64
7, 182080, Note_on_c, 6, 75, 86
7, 182080, Note_on_c, 6, 63, 86
7, 182100, Note_off_c, 6, 76, 64
7, 182100, Note_off_c, 6, 64, 64
7, 182168, Note_on_c, 6, 78, 86
7, 182172, Note_off_c, 6, 75, 64
7, 182172, Note_off_c, 6, 63, 64
7, 182172, Note_on_c, 6, 66, 86
7, 182260, Note_on_c, 6, 76, 86
7, 182260, Note_on_c, 6, 64, 86
7, 182284, Note_off_c, 6, 78, 64
7, 182284, Note_off_c, 6, 66, 64
7, 182344, Note_on_c, 6, 75, 86
7, 182344, Note_on_c, 6, 63, 86
7, 182364, Note_off_c, 6, 76, 64
7, 182364, Note_off_c, 6, 64, 64
7, 182412, Note_on_c, 6, 73, 86
7, 182416, Note_on_c, 6, 61, 86
7, 182420, Note_off_c, 6, 75, 64
7, 182420, Note_off_c, 6, 63, 64
7, 182848, Note_off_c, 6, 73, 64
7, 182848, Note_off_c, 6, 61, 64
7, 182860, Note_on_c, 6, 82, 86
7, 182860, Note_on_c, 6, 70, 86
7, 183348, Note_off_c, 6, 70, 64
7, 183352, Note_off_c, 6, 82, 64
7, 183352, Note_on_c, 6, 78, 86
7, 183352, Note_on_c, 6, 66, 86
7, 184068, Note_off_c, 6, 66, 64
7, 184068, Note_off_c, 6, 78, 64
7, 184320, Control_c, 6, 7, 105
7, 184536, Control_c, 6, 7, 104
7, 184756, Control_c, 6, 7, 103
7, 184972, Control_c, 6, 7, 102
7, 185028, Note_on_c, 6, 64, 86
7, 185032, Note_on_c, 6, 52, 86
7, 185144, Note_on_c, 6, 63, 86
7, 185144, Note_on_c, 6, 51, 86
7, 185152, Note_off_c, 6, 52, 64
7, 185156, Note_off_c, 6, 64, 64
7, 185192, Control_c, 6, 7, 101
7, 185252, Note_on_c, 6, 64, 86
7, 185256, Note_on_c, 6, 52, 86
7, 185264, Note_off_c, 6, 63, 64
7, 185264, Note_off_c, 6, 51, 64
7, 185368, Note_off_c, 6, 64, 64
7, 185368, Note_off_c, 6, 52, 64
7, 185372, Note_on_c, 6, 66, 86
7, 185372, Note_on_c, 6, 54, 86
7, 185408, Control_c, 6, 7, 100
7, 185492, Note_on_c, 6, 68, 86
7, 185496, Note_on_c, 6, 56, 86
7, 185512, Note_off_c, 6, 54, 64
7, 185512, Note_off_c, 6, 66, 64
7, 185612, Note_on_c, 6, 70, 86
7, 185616, Note_on_c, 6, 58, 86
7, 185624, Note_off_c, 6, 68, 64
7, 185624, Note_off_c, 6, 56, 64
7, 185628, Control_c, 6, 7, 99
7, 185732, Note_on_c, 6, 71, 86
7, 185736, Note_on_c, 6, 59, 86
7, 185752, Note_off_c, 6, 58, 64
7, 185756, Note_off_c, 6, 70, 64
7, 185844, Note_off_c, 6, 71, 64
7, 185844, Note_off_c, 6, 59, 64
7, 185848, Control_c, 6, 7, 98
7, 185852, Note_on_c, 6, 73, 86
7, 185852, Note_on_c, 6, 61, 86
7, 185976, Note_on_c, 6, 75, 86
7, 185976, Note_on_c, 6, 63, 86
7, 185980, Note_off_c, 6, 61, 64
7, 185980, Note_off_c, 6, 73, 64
7, 186064, Control_c, 6, 7, 97
7, 186092, Note_on_c, 6, 76, 86
7, 186096, Note_on_c, 6, 64, 86
7, 186108, Note_off_c, 6, 75, 64
7, 186108, Note_off_c, 6, 63, 64
7, 186200, Note_off_c, 6, 76, 64
7, 186200, Note_off_c, 6, 64, 64
7, 186204, Note_on_c, 6, 78, 86
7, 186204, Note_on_c, 6, 66, 86
7, 186284, Control_c, 6, 7, 96
7, 186500, Control_c, 6, 7, 95
7, 186720, Control_c, 6, 7, 94
7, 186936, Control_c, 6, 7, 93
7, 187156, Control_c, 6, 7, 92
7, 187376, Control_c, 6, 7, 91
7, 187592, Control_c, 6, 7, 90
7, 187812, Control_c, 6, 7, 89
7, 188028, Control_c, 6, 7, 88
7, 188140, Note_on_c, 6, 80, 86
7, 188140, Note_on_c, 6, 68, 86
7, 188164, Note_off_c, 6, 66, 64
7, 188164, Note_off_c, 6, 78, 64
7, 188248, Control_c, 6, 7, 87
7, 188464, Control_c, 6, 7, 86
7, 188684, Control_c, 6, 7, 85
7, 188904, Control_c, 6, 7, 84
7, 189120, Control_c, 6, 7, 83
7, 189340, Control_c, 6, 7, 82
7, 189556, Control_c, 6, 7, 81
7, 189580, Note_on_c, 6, 78, 86
7, 189580, Note_on_c, 6, 66, 86
7, 189616, Note_off_c, 6, 80, 64
7, 189616, Note_off_c, 6, 68, 64
7, 189664, Note_on_c, 6, 76, 86
7, 189664, Note_on_c, 6, 64, 86
7, 189688, Note_off_c, 6, 78, 64
7, 189688, Note_off_c, 6, 66, 64
7, 189760, Note_on_c, 6, 75, 86
7, 189760, Note_on_c, 6, 63, 86
7, 189776, Control_c, 6, 7, 80
7, 189780, Note_off_c, 6, 76, 64
7, 189780, Note_off_c, 6, 64, 64
7, 189848, Note_on_c, 6, 78, 86
7, 189852, Note_off_c, 6, 75, 64
7, 189852, Note_off_c, 6, 63, 64
7, 189852, Note_on_c, 6, 66, 86
7, 189940, Note_on_c, 6, 76, 86
7, 189940, Note_on_c, 6, 64, 86
7, 189964, Note_off_c, 6, 78, 64
7, 189964, Note_off_c, 6, 66, 64
7, 189992, Control_c, 6, 7, 79
7, 190024, Note_on_c, 6, 75, 86
7, 190024, Note_on_c, 6, 63, 86
7, 190044, Note_off_c, 6, 76, 64
7, 190044, Note_off_c, 6, 64, 64
7, 190092, Note_on_c, 6, 73, 86
7, 190096, Note_on_c, 6, 61, 86
7, 190100, Note_off_c, 6, 75, 64
7, 190100, Note_off_c, 6, 63, 64
7, 190212, Control_c, 6, 7, 78
7, 190432, Control_c, 6, 7, 77
7, 190528, Note_off_c, 6, 73, 64
7, 190528, Note_off_c, 6, 61, 64
7, 190540, Note_on_c, 6, 82, 86
7, 190540, Note_on_c, 6, 70, 86
7, 190648, Control_c, 6, 7, 76
7, 190868, Control_c, 6, 7, 75
7, 191028, Note_off_c, 6, 70, 64
7, 191032, Note_off_c, 6, 82, 64
7, 191032, Note_on_c, 6, 78, 86
7, 191032, Note_on_c, 6, 66, 86
7, 191084, Control_c, 6, 7, 74
7, 191304, Control_c, 6, 7, 73
7, 191520, Control_c, 6, 7, 72
7, 191740, Control_c, 6, 7, 71
7, 191748, Note_off_c, 6, 66, 64
7, 191748, Note_off_c, 6, 78, 64
7, 191960, Control_c, 6, 7, 70
7, 192176, Control_c, 6, 7, 69
7, 192396, Control_c, 6, 7, 68
7, 192612, Control_c, 6, 7, 67
7, 192708, Note_on_c, 6, 64, 86
7, 192712, Note_on_c, 6, 52, 86
7, 192824, Note_on_c, 6, 63, 86
7, 192824, Note_on_c, 6, 51, 86
7, 192832, Note_off_c, 6, 52, 64
7, 192832, Control_c, 6, 7, 66
7, 192836, Note_off_c, 6, 64, 64
7, 192932, Note_on_c, 6, 64, 86
7, 192936, Note_on_c, 6, 52, 86
7, 192944, Note_off_c, 6, 63, 64
7, 192944, Note_off_c, 6, 51, 64
7, 193048, Note_off_c, 6, 64, 64
7, 193048, Note_off_c, 6, 52, 64
7, 193048, Control_c, 6, 7, 65
7, 193052, Note_on_c, 6, 66, 86
7, 193052, Note_on_c, 6, 54, 86
7, 193172, Note_on_c, 6, 68, 86
7, 193176, Note_on_c, 6, 56, 86
7, 193192, Note_off_c, 6, 54, 64
7, 193192, Note_off_c, 6, 66, 64
7, 193268, Control_c, 6, 7, 64
7, 193292, Note_on_c, 6, 70, 86
7, 193296, Note_on_c, 6, 58, 86
7, 193304, Note_off_c, 6, 68, 64
7, 193304, Note_off_c, 6, 56, 64
7, 193412, Note_on_c, 6, 71, 86
7, 193416, Note_on_c, 6, 59, 86
7, 193432, Note_off_c, 6, 58, 64
7, 193436, Note_off_c, 6, 70, 64
7, 193488, Control_c, 6, 7, 63
7, 193524, Note_off_c, 6, 71, 64
7, 193524, Note_off_c, 6, 59, 64
7, 193532, Note_on_c, 6, 73, 86
7, 193532, Note_on_c, 6, 61, 86
7, 193656, Note_on_c, 6, 75, 86
7, 193656, Note_on_c, 6, 63, 86
7, 193660, Note_off_c, 6, 61, 64
7, 193660, Note_off_c, 6, 73, 64
7, 193704, Control_c, 6, 7, 62
7, 193772, Note_on_c, 6, 76, 86
7, 193776, Note_on_c, 6, 64, 86
7, 193788, Note_off_c, 6, 75, 64
7, 193788, Note_off_c, 6, 63, 64
7, 193880, Note_off_c, 6, 76, 64
7, 193880, Note_off_c, 6, 64, 64
7, 193884, Note_on_c, 6, 78, 86
7, 193884, Note_on_c, 6, 66, 86
7, 193924, Control_c, 6, 7, 61
7, 194140, Control_c, 6, 7, 60
7, 194360, Control_c, 6, 7, 59
7, 194576, Control_c, 6, 7, 58
7, 194796, Control_c, 6, 7, 57
7, 195016, Control_c, 6, 7, 56
7, 195232, Control_c, 6, 7, 55
7, 195452, Control_c, 6, 7, 54
7, 195668, Control_c, 6, 7, 53
7, 195820, Note_on_c, 6, 80, 86
7, 195820, Note_on_c, 6, 68, 86
7, 195844, Note_off_c, 6, 66, 64
7, 195844, Note_off_c, 6, 78, 64
7, 195888, Control_c, 6, 7, 52
7, 196104, Control_c, 6, 7, 51
7, 196324, Control_c, 6, 7, 50
7, 196544, Control_c, 6, 7, 49
7, 196760, Control_c, 6, 7, 48
7, 196980, Control_c, 6, 7, 47
7, 197196, Control_c, 6, 7, 46
7, 197260, Note_on_c, 6, 78, 86
7, 197260, Note_on_c, 6, 66, 86
7, 197296, Note_off_c, 6, 80, 64
7, 197296, Note_off_c, 6, 68, 64
7, 197344, Note_on_c, 6, 76, 86
7, 197344, Note_on_c, 6, 64, 86
7, 197368, Note_off_c, 6, 78, 64
7, 197368, Note_off_c, 6, 66, 64
7, 197416, Control_c, 6, 7, 45
7, 197440, Note_on_c, 6, 75, 86
7, 197440, Note_on_c, 6, 63, 86
7, 197460, Note_off_c, 6, 76, 64
7, 197460, Note_off_c, 6, 64, 64
7, 197528, Note_on_c, 6, 78, 86
7, 197532, Note_off_c, 6, 75, 64
7, 197532, Note_off_c, 6, 63, 64
7, 197532, Note_on_c, 6, 66, 86
7, 197620, Note_on_c, 6, 76, 86
7, 197620, Note_on_c, 6, 64, 86
7, 197632, Control_c, 6, 7, 44
7, 197644, Note_off_c, 6, 78, 64
7, 197644, Note_off_c, 6, 66, 64
7, 197704, Note_on_c, 6, 75, 86
7, 197704, Note_on_c, 6, 63, 86
7, 197724, Note_off_c, 6, 76, 64
7, 197724, Note_off_c, 6, 64, 64
7, 197772, Note_on_c, 6, 73, 86
7, 197776, Note_on_c, 6, 61, 86
7, 197780, Note_off_c, 6, 75, 64
7, 197780, Note_off_c, 6, 63, 64
7, 197852, Control_c, 6, 7, 43
7, 198072, Control_c, 6, 7, 42
7, 198208, Note_off_c, 6, 73, 64
7, 198208, Note_off_c, 6, 61, 64
7, 198220, Note_on_c, 6, 82, 86
7, 198220, Note_on_c, 6, 70, 86
7, 198288, Control_c, 6, 7, 41
7, 198508, Control_c, 6, 7, 40
7, 198708, Note_off_c, 6, 70, 64
7, 198712, Note_off_c, 6, 82, 64
7, 198712, Note_on_c, 6, 78, 86
7, 198712, Note_on_c, 6, 66, 86
7, 198724, Control_c, 6, 7, 39
7, 198944, Control_c, 6, 7, 38
7, 199160, Control_c, 6, 7, 37
7, 199380, Control_c, 6, 7, 36
7, 199428, Note_off_c, 6, 66, 64
7, 199428, Note_off_c, 6, 78, 64
7, 199600, Control_c, 6, 7, 35
7, 199816, Control_c, 6, 7, 34
7, 200036, Control_c, 6, 7, 33
7, 200252, Control_c, 6, 7, 32
7, 200388, Note_on_c, 6, 64, 86
7, 200392, Note_on_c, 6, 52, 86
7, 200472, Control_c, 6, 7, 31
7, 200504, Note_on_c, 6, 63, 86
7, 200504, Note_on_c, 6, 51, 86
7, 200512, Note_off_c, 6, 52, 64
7, 200516, Note_off_c, 6, 64, 64
7, 200612, Note_on_c, 6, 64, 86
7, 200616, Note_on_c, 6, 52, 86
7, 200624, Note_off_c, 6, 63, 64
7, 200624, Note_off_c, 6, 51, 64
7, 200688, Control_c, 6, 7, 30
7, 200728, Note_off_c, 6, 64, 64
7, 200728, Note_off_c, 6, 52, 64
7, 200732, Note_on_c, 6, 66, 86
7, 200732, Note_on_c, 6, 54, 86
7, 200852, Note_on_c, 6, 68, 86
7, 200856, Note_on_c, 6, 56, 86
7, 200872, Note_off_c, 6, 54, 64
7, 200872, Note_off_c, 6, 66, 64
7, 200908, Control_c, 6, 7, 29
7, 200972, Note_on_c, 6, 70, 86
7, 200976, Note_on_c, 6, 58, 86
7, 200984, Note_off_c, 6, 68, 64
7, 200984, Note_off_c, 6, 56, 64
7, 201092, Note_on_c, 6, 71, 86
7, 201096, Note_on_c, 6, 59, 86
7, 201112, Note_off_c, 6, 58, 64
7, 201116, Note_off_c, 6, 70, 64
7, 201128, Control_c, 6, 7, 28
7, 201204, Note_off_c, 6, 71, 64
7, 201204, Note_off_c, 6, 59, 64
7, 201212, Note_on_c, 6, 73, 86
7, 201212, Note_on_c, 6, 61, 86
7, 201336, Note_on_c, 6, 75, 86
7, 201336, Note_on_c, 6, 63, 86
7, 201340, Note_off_c, 6, 61, 64
7, 201340, Note_off_c, 6, 73, 64
7, 201344, Control_c, 6, 7, 27
7, 201452, Note_on_c, 6, 76, 86
7, 201456, Note_on_c, 6, 64, 86
7, 201468, Note_off_c, 6, 75, 64
7, 201468, Note_off_c, 6, 63, 64
7, 201560, Note_off_c, 6, 76, 64
7, 201560, Note_off_c, 6, 64, 64
7, 201564, Note_on_c, 6, 78, 86
7, 201564, Note_on_c, 6, 66, 86
7, 201564, Control_c, 6, 7, 26
7, 201780, Control_c, 6, 7, 25
7, 202000, Control_c, 6, 7, 24
7, 202216, Control_c, 6, 7, 23
7, 202436, Control_c, 6, 7, 22
7, 202656, Control_c, 6, 7, 21
7, 202872, Control_c, 6, 7, 20
7, 203092, Control_c, 6, 7, 19
7, 203308, Control_c, 6, 7, 18
7, 203500, Note_on_c, 6, 80, 86
7, 203500, Note_on_c, 6, 68, 86
7, 203524, Note_off_c, 6, 66, 64
7, 203524, Note_off_c, 6, 78, 64
7, 203528, Control_c, 6, 7, 17
7, 203744, Control_c, 6, 7, 16
7, 203964, Control_c, 6, 7, 15
7, 204184, Control_c, 6, 7, 14
7, 204400, Control_c, 6, 7, 13
7, 204620, Control_c, 6, 7, 12
7, 204836, Control_c, 6, 7, 11
7, 204940, Note_on_c, 6, 78, 86
7, 204940, Note_on_c, 6, 66, 86
7, 204976, Note_off_c, 6, 80, 64
7, 204976, Note_off_c, 6, 68, 64
7, 205024, Note_on_c, 6, 76, 86
7, 205024, Note_on_c, 6, 64, 86
7, 205048, Note_off_c, 6, 78, 64
7, 205048, Note_off_c, 6, 66, 64
7, 205056, Control_c, 6, 7, 10
7, 205120, Note_on_c, 6, 75, 86
7, 205120, Note_on_c, 6, 63, 86
7, 205140, Note_off_c, 6, 76, 64
7, 205140, Note_off_c, 6, 64, 64
7, 205208, Note_on_c, 6, 78, 86
7, 205212, Note_off_c, 6, 75, 64
7, 205212, Note_off_c, 6, 63, 64
7, 205212, Note_on_c, 6, 66, 86
7, 205272, Control_c, 6, 7, 9
7, 205300, Note_on_c, 6, 76, 86
7, 205300, Note_on_c, 6, 64, 86
7, 205324, Note_off_c, 6, 78, 64
7, 205324, Note_off_c, 6, 66, 64
7, 205384, Note_on_c, 6, 75, 86
7, 205384, Note_on_c, 6, 63, 86
7, 205404, Note_off_c, 6, 76, 64
7, 205404, Note_off_c, 6, 64, 64
7, 205452, Note_on_c, 6, 73, 86
7, 205456, Note_on_c, 6, 61, 86
7, 205460, Note_off_c, 6, 75, 64
7, 205460, Note_off_c, 6, 63, 64
7, 205492, Control_c, 6, 7, 8
7, 205712, Control_c, 6, 7, 7
7, 205888, Note_off_c, 6, 73, 64
7, 205888, Note_off_c, 6, 61, 64
7, 205900, Note_on_c, 6, 82, 86
7, 205900, Note_on_c, 6, 70, 86
7, 205928, Control_c, 6, 7, 6
7, 206148, Control_c, 6, 7, 5
7, 206364, Control_c, 6, 7, 4
7, 206388, Note_off_c, 6, 70, 64
7, 206392, Note_off_c, 6, 82, 64
7, 206392, Note_on_c, 6, 78, 86
7, 206392, Note_on_c, 6, 66, 86
7, 206584, Control_c, 6, 7, 3
7, 206800, Control_c, 6, 7, 2
7, 207020, Control_c, 6, 7, 1
7, 207108, Note_off_c, 6, 66, 64
7, 207108, Note_off_c, 6, 78, 64
7, 207240, Control_c, 6, 7, 0
7, 207240, End_track
8, 0, Start_track
8, 0, Title_t, "Choir Aahs"
8, 0, MIDI_port, 0
8, 0, Channel_prefix, 7
8, 0, Control_c, 7, 7, 97
8, 0, Program_c, 7, 52
8, 17296, Note_on_c, 7, 66, 117
8, 18232, Note_on_c, 7, 71, 112
8, 18260, Note_off_c, 7, 66, 64
8, 19156, Note_on_c, 7, 73, 115
8, 19164, Note_off_c, 7, 71, 64
8, 20868, Note_off_c, 7, 73, 64
8, 32604, Note_on_c, 7, 66, 123
8, 33572, Note_on_c, 7, 71, 117
8, 33620, Note_off_c, 7, 66, 64
8, 34504, Note_on_c, 7, 73, 120
8, 34512, Note_off_c, 7, 71, 64
8, 36228, Note_off_c, 7, 73, 64
8, 47980, Note_on_c, 7, 66, 127
8, 48928, Note_on_c, 7, 71, 127
8, 48944, Note_off_c, 7, 66, 64
8, 49876, Note_on_c, 7, 73, 123
8, 49888, Note_off_c, 7, 71, 64
8, 51700, Note_off_c, 7, 73, 64
8, 60948, Note_on_c, 7, 66, 120
8, 60968, Note_on_c, 7, 70, 120
8, 61128, Note_off_c, 7, 70, 64
8, 61168, Note_off_c, 7, 66, 64
8, 61172, Note_on_c, 7, 68, 117
8, 61172, Note_on_c, 7, 71, 103
8, 61280, Note_off_c, 7, 71, 64
8, 61284, Note_off_c, 7, 68, 64
8, 61420, Note_on_c, 7, 68, 112
8, 61420, Note_on_c, 7, 71, 112
8, 61752, Note_off_c, 7, 68, 64
8, 61764, Note_off_c, 7, 71, 64
8, 62360, Note_on_c, 7, 68, 112
8, 62364, Note_on_c, 7, 71, 117
8, 62824, Note_off_c, 7, 68, 64
8, 62832, Note_off_c, 7, 71, 64
8, 63344, Note_on_c, 7, 70, 115
8, 63352, Note_on_c, 7, 66, 115
8, 63644, Note_off_c, 7, 66, 64
8, 63648, Note_off_c, 7, 70, 64
8, 63800, Note_on_c, 7, 70, 115
8, 63800, Note_on_c, 7, 66, 112
8, 64028, Note_off_c, 7, 70, 64
8, 64152, Note_off_c, 7, 66, 64
8, 64292, Note_on_c, 7, 71, 123
8, 64300, Note_on_c, 7, 75, 117
8, 64640, Note_off_c, 7, 75, 64
8, 64648, Note_off_c, 7, 71, 64
8, 64752, Note_on_c, 7, 68, 115
8, 64752, Note_on_c, 7, 71, 115
8, 64912, Note_off_c, 7, 71, 64
8, 64928, Note_off_c, 7, 68, 64
8, 64968, Note_on_c, 7, 68, 99
8, 64980, Note_on_c, 7, 64, 99
8, 65360, Note_off_c, 7, 64, 64
8, 65364, Note_off_c, 7, 68, 64
8, 67208, Control_c, 7, 64, 0
8, 68624, Note_on_c, 7, 66, 115
8, 68624, Note_on_c, 7, 70, 115
8, 68840, Note_off_c, 7, 70, 64
8, 68860, Note_on_c, 7, 68, 101
8, 68864, Note_on_c, 7, 71, 97
8, 68872, Note_off_c, 7, 66, 64
8, 69008, Note_off_c, 7, 68, 64
8, 69020, Note_off_c, 7, 71, 64
8, 69100, Note_on_c, 7, 68, 112
8, 69100, Note_on_c, 7, 71, 108
8, 69512, Note_off_c, 7, 68, 64
8, 69520, Note_off_c, 7, 71, 64
8, 70552, Note_on_c, 7, 68, 115
8, 70556, Note_on_c, 7, 71, 110
8, 70972, Note_off_c, 7, 71, 64
8, 70980, Note_off_c, 7, 68, 64
8, 71016, Note_on_c, 7, 66, 112
8, 71020, Note_on_c, 7, 70, 105
8, 71352, Note_off_c, 7, 66, 64
8, 71368, Note_off_c, 7, 70, 64
8, 71504, Note_on_c, 7, 70, 115
8, 71504, Note_on_c, 7, 66, 112
8, 71752, Note_off_c, 7, 70, 64
8, 71872, Note_off_c, 7, 66, 64
8, 71972, Note_on_c, 7, 71, 120
8, 71984, Note_on_c, 7, 75, 112
8, 72332, Note_off_c, 7, 75, 64
8, 72352, Note_off_c, 7, 71, 64
8, 72432, Note_on_c, 7, 71, 112
8, 72432, Note_on_c, 7, 68, 115
8, 72624, Note_off_c, 7, 71, 64
8, 72668, Note_on_c, 7, 64, 105
8, 72920, Note_off_c, 7, 68, 64
8, 72920, Note_off_c, 7, 64, 64
8, 76308, Note_on_c, 7, 70, 115
8, 76316, Note_on_c, 7, 66, 120
8, 76512, Note_off_c, 7, 70, 64
8, 76524, Note_on_c, 7, 71, 97
8, 76528, Note_on_c, 7, 68, 110
8, 76548, Note_off_c, 7, 66, 64
8, 76688, Note_off_c, 7, 68, 64
8, 76700, Note_off_c, 7, 71, 64
8, 76772, Note_on_c, 7, 71, 112
8, 76776, Note_on_c, 7, 68, 117
8, 77088, Note_off_c, 7, 71, 64
8, 77104, Note_off_c, 7, 68, 64
8, 78224, Note_on_c, 7, 68, 117
8, 78228, Note_on_c, 7, 71, 117
8, 78608, Note_off_c, 7, 71, 64
8, 78612, Note_off_c, 7, 68, 64
8, 78680, Note_on_c, 7, 66, 115
8, 78680, Note_on_c, 7, 70, 115
8, 79032, Note_off_c, 7, 66, 64
8, 79048, Note_off_c, 7, 70, 64
8, 79148, Note_on_c, 7, 70, 112
8, 79148, Note_on_c, 7, 66, 112
8, 79424, Note_off_c, 7, 70, 64
8, 79520, Note_off_c, 7, 66, 64
8, 79660, Note_on_c, 7, 71, 117
8, 79660, Note_on_c, 7, 75, 115
8, 80000, Note_off_c, 7, 75, 64
8, 80044, Note_off_c, 7, 71, 64
8, 80124, Note_on_c, 7, 71, 117
8, 80128, Note_on_c, 7, 68, 117
8, 80324, Note_off_c, 7, 68, 64
8, 80328, Note_off_c, 7, 71, 64
8, 80360, Note_on_c, 7, 68, 112
8, 80364, Note_on_c, 7, 66, 115
8, 81340, Note_off_c, 7, 66, 64
8, 81348, Note_on_c, 7, 65, 123
8, 81860, Note_on_c, 7, 70, 117
8, 81884, Note_off_c, 7, 68, 64
8, 82048, Note_off_c, 7, 65, 64
8, 82064, Note_on_c, 7, 71, 110
8, 82092, Note_off_c, 7, 70, 64
8, 82248, Note_off_c, 7, 71, 64
8, 82268, Note_on_c, 7, 64, 117
8, 83980, Note_off_c, 7, 64, 64
8, 86388, Note_on_c, 7, 66, 123
8, 87324, Note_on_c, 7, 71, 126
8, 87332, Note_off_c, 7, 66, 64
8, 88248, Note_on_c, 7, 73, 115
8, 88260, Note_off_c, 7, 71, 64
8, 90008, Note_off_c, 7, 73, 64
8, 101720, Note_on_c, 7, 66, 112
8, 102704, Note_on_c, 7, 71, 110
8, 102744, Note_off_c, 7, 66, 64
8, 103620, Note_off_c, 7, 71, 64
8, 103620, Note_on_c, 7, 73, 115
8, 105344, Note_off_c, 7, 73, 64
8, 117092, Note_on_c, 7, 66, 126
8, 118052, Note_on_c, 7, 71, 117
8, 118084, Note_off_c, 7, 66, 64
8, 118992, Note_on_c, 7, 73, 117
8, 119008, Note_off_c, 7, 71, 64
8, 120748, Note_off_c, 7, 73, 64
8, 130060, Note_on_c, 7, 66, 115
8, 130064, Note_on_c, 7, 70, 120
8, 130244, Note_off_c, 7, 70, 64
8, 130280, Note_on_c, 7, 68, 110
8, 130284, Note_on_c, 7, 71, 101
8, 130300, Note_off_c, 7, 66, 64
8, 130424, Note_off_c, 7, 68, 64
8, 130424, Note_off_c, 7, 71, 64
8, 130520, Note_on_c, 7, 68, 117
8, 130524, Note_on_c, 7, 71, 112
8, 131024, Note_off_c, 7, 68, 64
8, 131028, Note_off_c, 7, 71, 64
8, 131980, Note_on_c, 7, 71, 115
8, 131980, Note_on_c, 7, 68, 117
8, 132372, Note_off_c, 7, 71, 64
8, 132384, Note_off_c, 7, 68, 64
8, 132432, Note_on_c, 7, 66, 112
8, 132432, Note_on_c, 7, 70, 108
8, 132748, Note_off_c, 7, 66, 64
8, 132764, Note_off_c, 7, 70, 64
8, 132904, Note_on_c, 7, 70, 112
8, 132904, Note_on_c, 7, 66, 117
8, 133220, Note_off_c, 7, 70, 64
8, 133252, Note_off_c, 7, 66, 64
8, 133420, Note_on_c, 7, 71, 120
8, 133424, Note_on_c, 7, 75, 115
8, 133764, Note_off_c, 7, 75, 64
8, 133784, Note_off_c, 7, 71, 64
8, 133880, Note_on_c, 7, 71, 115
8, 133880, Note_on_c, 7, 68, 115
8, 134048, Note_off_c, 7, 71, 64
8, 134052, Note_off_c, 7, 68, 64
8, 134100, Note_on_c, 7, 68, 97
8, 134108, Note_on_c, 7, 64, 115
8, 134704, Note_off_c, 7, 64, 64
8, 134720, Note_off_c, 7, 68, 64
8, 137740, Note_on_c, 7, 66, 126
8, 137740, Note_on_c, 7, 70, 117
8, 137924, Note_off_c, 7, 70, 64
8, 137952, Note_off_c, 7, 66, 64
8, 137964, Note_on_c, 7, 68, 115
8, 137968, Note_on_c, 7, 71, 110
8, 138088, Note_off_c, 7, 68, 64
8, 138104, Note_off_c, 7, 71, 64
8, 138204, Note_on_c, 7, 71, 112
8, 138208, Note_on_c, 7, 68, 117
8, 138624, Note_off_c, 7, 68, 64
8, 138644, Note_off_c, 7, 71, 64
8, 139188, Note_on_c, 7, 68, 117
8, 139192, Note_on_c, 7, 71, 117
8, 139640, Note_off_c, 7, 71, 64
8, 139644, Note_off_c, 7, 68, 64
8, 140140, Note_on_c, 7, 70, 117
8, 140144, Note_on_c, 7, 66, 120
8, 140392, Note_off_c, 7, 66, 64
8, 140404, Note_off_c, 7, 70, 64
8, 140600, Note_on_c, 7, 70, 117
8, 140604, Note_on_c, 7, 66, 120
8, 140860, Note_off_c, 7, 70, 64
8, 140932, Note_off_c, 7, 66, 64
8, 141084, Note_on_c, 7, 71, 117
8, 141088, Note_on_c, 7, 75, 115
8, 141408, Note_off_c, 7, 75, 64
8, 141428, Note_off_c, 7, 71, 64
8, 141548, Note_on_c, 7, 68, 120
8, 141552, Note_on_c, 7, 71, 120
8, 141724, Note_off_c, 7, 71, 64
8, 141732, Note_off_c, 7, 68, 64
8, 141772, Note_on_c, 7, 68, 97
8, 141780, Note_on_c, 7, 64, 112
8, 142324, Note_off_c, 7, 64, 64
8, 142328, Note_off_c, 7, 68, 64
8, 145420, Note_on_c, 7, 66, 120
8, 145420, Note_on_c, 7, 70, 117
8, 145604, Note_off_c, 7, 70, 64
8, 145640, Note_on_c, 7, 71, 103
8, 145640, Note_on_c, 7, 68, 115
8, 145644, Note_off_c, 7, 66, 64
8, 145804, Note_off_c, 7, 68, 64
8, 145808, Note_off_c, 7, 71, 64
8, 145888, Note_on_c, 7, 71, 108
8, 145892, Note_on_c, 7, 68, 115
8, 146288, Note_off_c, 7, 68, 64
8, 146304, Note_off_c, 7, 71, 64
8, 147348, Note_on_c, 7, 68, 115
8, 147352, Note_on_c, 7, 71, 112
8, 147720, Note_off_c, 7, 71, 64
8, 147728, Note_off_c, 7, 68, 64
8, 147812, Note_on_c, 7, 70, 115
8, 147820, Note_on_c, 7, 66, 115
8, 148120, Note_off_c, 7, 66, 64
8, 148128, Note_off_c, 7, 70, 64
8, 148284, Note_on_c, 7, 70, 112
8, 148288, Note_on_c, 7, 66, 117
8, 148592, Note_off_c, 7, 70, 64
8, 148632, Note_off_c, 7, 66, 64
8, 148768, Note_on_c, 7, 71, 123
8, 148772, Note_on_c, 7, 75, 117
8, 149104, Note_off_c, 7, 75, 64
8, 149132, Note_off_c, 7, 71, 64
8, 149232, Note_on_c, 7, 68, 120
8, 149240, Note_on_c, 7, 71, 117
8, 149412, Note_off_c, 7, 71, 64
8, 149412, Note_off_c, 7, 68, 64
8, 149464, Note_on_c, 7, 68, 101
8, 149472, Note_on_c, 7, 64, 115
8, 150172, Note_off_c, 7, 64, 64
8, 150172, Note_off_c, 7, 68, 64
8, 153112, Note_on_c, 7, 70, 115
8, 153112, Note_on_c, 7, 66, 120
8, 153288, Note_off_c, 7, 70, 64
8, 153312, Note_off_c, 7, 66, 64
8, 153324, Note_on_c, 7, 71, 103
8, 153324, Note_on_c, 7, 68, 110
8, 153484, Note_off_c, 7, 68, 64
8, 153488, Note_off_c, 7, 71, 64
8, 153556, Note_on_c, 7, 68, 115
8, 153560, Note_on_c, 7, 71, 99
8, 154008, Note_off_c, 7, 71, 64
8, 154012, Note_off_c, 7, 68, 64
8, 154536, Note_on_c, 7, 71, 115
8, 154540, Note_on_c, 7, 68, 117
8, 155012, Note_off_c, 7, 68, 64
8, 155016, Note_off_c, 7, 71, 64
8, 155504, Note_on_c, 7, 66, 123
8, 155504, Note_on_c, 7, 70, 117
8, 155792, Note_off_c, 7, 70, 64
8, 155800, Note_off_c, 7, 66, 64
8, 155980, Note_on_c, 7, 66, 117
8, 155984, Note_on_c, 7, 70, 112
8, 156212, Note_off_c, 7, 70, 64
8, 156312, Note_off_c, 7, 66, 64
8, 156448, Note_on_c, 7, 71, 120
8, 156452, Note_on_c, 7, 75, 115
8, 156784, Note_off_c, 7, 75, 64
8, 156808, Note_off_c, 7, 71, 64
8, 156904, Note_on_c, 7, 68, 120
8, 156904, Note_on_c, 7, 71, 117
8, 157084, Note_off_c, 7, 71, 64
8, 157108, Note_off_c, 7, 68, 64
8, 157128, Note_on_c, 7, 68, 74
8, 157140, Note_on_c, 7, 64, 112
8, 157904, Note_off_c, 7, 64, 64
8, 157912, Note_off_c, 7, 68, 64
8, 161756, Note_on_c, 7, 71, 123
8, 162212, Note_off_c, 7, 71, 64
8, 162220, Note_on_c, 7, 68, 115
8, 162684, Note_off_c, 7, 68, 64
8, 163664, Note_on_c, 7, 75, 127
8, 164100, Note_off_c, 7, 75, 64
8, 164112, Note_on_c, 7, 73, 120
8, 164608, Note_off_c, 7, 73, 64
8, 166092, Note_on_c, 7, 66, 123
8, 166292, Note_off_c, 7, 66, 64
8, 166300, Note_on_c, 7, 68, 115
8, 166540, Note_off_c, 7, 68, 64
8, 166540, Note_on_c, 7, 71, 105
8, 166928, Note_off_c, 7, 71, 64
8, 169412, Note_on_c, 7, 71, 126
8, 169884, Note_off_c, 7, 71, 64
8, 169892, Note_on_c, 7, 68, 115
8, 170340, Note_off_c, 7, 68, 64
8, 171344, Note_on_c, 7, 75, 127
8, 171792, Note_off_c, 7, 75, 64
8, 171800, Note_on_c, 7, 73, 120
8, 172332, Note_off_c, 7, 73, 64
8, 173780, Note_on_c, 7, 66, 120
8, 174032, Note_off_c, 7, 66, 64
8, 174040, Note_on_c, 7, 68, 117
8, 174232, Note_off_c, 7, 68, 64
8, 174264, Note_on_c, 7, 71, 117
8, 174620, Note_off_c, 7, 71, 64
8, 177080, Note_on_c, 7, 71, 123
8, 177560, Note_off_c, 7, 71, 64
8, 177564, Note_on_c, 7, 68, 110
8, 178096, Note_off_c, 7, 68, 64
8, 179004, Note_on_c, 7, 75, 127
8, 179472, Note_off_c, 7, 75, 64
8, 179480, Note_on_c, 7, 73, 115
8, 179912, Note_off_c, 7, 73, 64
8, 184320, Control_c, 7, 7, 75
8, 184624, Control_c, 7, 7, 74
8, 184760, Note_on_c, 7, 71, 123
8, 184928, Control_c, 7, 7, 73
8, 185236, Control_c, 7, 7, 72
8, 185240, Note_off_c, 7, 71, 64
8, 185244, Note_on_c, 7, 68, 110
8, 185540, Control_c, 7, 7, 71
8, 185776, Note_off_c, 7, 68, 64
8, 185848, Control_c, 7, 7, 70
8, 186152, Control_c, 7, 7, 69
8, 186456, Control_c, 7, 7, 68
8, 186684, Note_on_c, 7, 75, 127
8, 186764, Control_c, 7, 7, 67
8, 187068, Control_c, 7, 7, 66
8, 187152, Note_off_c, 7, 75, 64
8, 187160, Note_on_c, 7, 73, 115
8, 187376, Control_c, 7, 7, 65
8, 187592, Note_off_c, 7, 73, 64
8, 187680, Control_c, 7, 7, 64
8, 187984, Control_c, 7, 7, 63
8, 188292, Control_c, 7, 7, 62
8, 188596, Control_c, 7, 7, 61
8, 188904, Control_c, 7, 7, 60
8, 189208, Control_c, 7, 7, 59
8, 189512, Control_c, 7, 7, 58
8, 189820, Control_c, 7, 7, 57
8, 190124, Control_c, 7, 7, 56
8, 190432, Control_c, 7, 7, 55
8, 190736, Control_c, 7, 7, 54
8, 191040, Control_c, 7, 7, 53
8, 191348, Control_c, 7, 7, 52
8, 191652, Control_c, 7, 7, 51
8, 191960, Control_c, 7, 7, 50
8, 192264, Control_c, 7, 7, 49
8, 192440, Note_on_c, 7, 71, 123
8, 192568, Control_c, 7, 7, 48
8, 192876, Control_c, 7, 7, 47
8, 192920, Note_off_c, 7, 71, 64
8, 192924, Note_on_c, 7, 68, 110
8, 193180, Control_c, 7, 7, 46
8, 193456, Note_off_c, 7, 68, 64
8, 193488, Control_c, 7, 7, 45
8, 193792, Control_c, 7, 7, 44
8, 194096, Control_c, 7, 7, 43
8, 194364, Note_on_c, 7, 75, 127
8, 194404, Control_c, 7, 7, 42
8, 194708, Control_c, 7, 7, 41
8, 194832, Note_off_c, 7, 75, 64
8, 194840, Note_on_c, 7, 73, 115
8, 195016, Control_c, 7, 7, 40
8, 195272, Note_off_c, 7, 73, 64
8, 195320, Control_c, 7, 7, 39
8, 195624, Control_c, 7, 7, 38
8, 195932, Control_c, 7, 7, 37
8, 196236, Control_c, 7, 7, 36
8, 196544, Control_c, 7, 7, 35
8, 196848, Control_c, 7, 7, 34
8, 197152, Control_c, 7, 7, 33
8, 197460, Control_c, 7, 7, 32
8, 197764, Control_c, 7, 7, 31
8, 198072, Control_c, 7, 7, 30
8, 198376, Control_c, 7, 7, 29
8, 198680, Control_c, 7, 7, 28
8, 198988, Control_c, 7, 7, 27
8, 199292, Control_c, 7, 7, 26
8, 199600, Control_c, 7, 7, 25
8, 199904, Control_c, 7, 7, 24
8, 200120, Note_on_c, 7, 71, 123
8, 200208, Control_c, 7, 7, 23
8, 200516, Control_c, 7, 7, 22
8, 200600, Note_off_c, 7, 71, 64
8, 200604, Note_on_c, 7, 68, 110
8, 200820, Control_c, 7, 7, 21
8, 201128, Control_c, 7, 7, 20
8, 201136, Note_off_c, 7, 68, 64
8, 201432, Control_c, 7, 7, 19
8, 201736, Control_c, 7, 7, 18
8, 202044, Note_on_c, 7, 75, 127
8, 202044, Control_c, 7, 7, 17
8, 202348, Control_c, 7, 7, 16
8, 202512, Note_off_c, 7, 75, 64
8, 202520, Note_on_c, 7, 73, 115
8, 202656, Control_c, 7, 7, 15
8, 202952, Note_off_c, 7, 73, 64
8, 202960, Control_c, 7, 7, 14
8, 203264, Control_c, 7, 7, 13
8, 203572, Control_c, 7, 7, 12
8, 203876, Control_c, 7, 7, 11
8, 204184, Control_c, 7, 7, 10
8, 204488, Control_c, 7, 7, 9
8, 204792, Control_c, 7, 7, 8
8, 205100, Control_c, 7, 7, 7
8, 205404, Control_c, 7, 7, 6
8, 205712, Control_c, 7, 7, 5
8, 206016, Control_c, 7, 7, 4
8, 206320, Control_c, 7, 7, 3
8, 206628, Control_c, 7, 7, 2
8, 206932, Control_c, 7, 7, 1
8, 207240, Control_c, 7, 7, 0
8, 207240, End_track
9, 0, Start_track
9, 0, Title_t, "Percussions (drums + hihats)"
9, 0, MIDI_port, 0
9, 0, Channel_prefix, 9
9, 0, Control_c, 9, 7, 127
9, 14400, Note_on_c, 9, 36, 122
9, 14404, Note_off_c, 9, 36, 64
9, 14880, Note_on_c, 9, 36, 122
9, 14884, Note_off_c, 9, 36, 64
9, 15364, Note_on_c, 9, 36, 122
9, 15364, Note_on_c, 9, 42, 122
9, 15364, Note_on_c, 9, 49, 127
9, 15368, Note_off_c, 9, 49, 64
9, 15368, Note_off_c, 9, 42, 64
9, 15368, Note_off_c, 9, 36, 64
9, 15600, Note_on_c, 9, 42, 90
9, 15604, Note_off_c, 9, 42, 64
9, 15720, Note_on_c, 9, 54, 42
9, 15724, Note_off_c, 9, 54, 64
9, 15780, Note_on_c, 9, 54, 58
9, 15784, Note_off_c, 9, 54, 64
9, 15840, Note_on_c, 9, 38, 122
9, 15844, Note_off_c, 9, 38, 64
9, 15844, Note_on_c, 9, 42, 122
9, 15844, Note_on_c, 9, 54, 127
9, 15848, Note_off_c, 9, 54, 64
9, 15848, Note_off_c, 9, 42, 64
9, 16080, Note_on_c, 9, 42, 90
9, 16084, Note_off_c, 9, 42, 64
9, 16320, Note_on_c, 9, 36, 122
9, 16324, Note_off_c, 9, 36, 64
9, 16324, Note_on_c, 9, 42, 122
9, 16328, Note_off_c, 9, 42, 64
9, 16560, Note_on_c, 9, 42, 90
9, 16564, Note_off_c, 9, 42, 64
9, 16680, Note_on_c, 9, 54, 42
9, 16684, Note_off_c, 9, 54, 64
9, 16740, Note_on_c, 9, 54, 58
9, 16744, Note_off_c, 9, 54, 64
9, 16800, Note_on_c, 9, 38, 122
9, 16804, Note_off_c, 9, 38, 64
9, 16804, Note_on_c, 9, 42, 122
9, 16804, Note_on_c, 9, 54, 127
9, 16808, Note_off_c, 9, 54, 64
9, 16808, Note_off_c, 9, 42, 64
9, 17040, Note_on_c, 9, 42, 90
9, 17044, Note_off_c, 9, 42, 64
9, 17280, Note_on_c, 9, 36, 122
9, 17284, Note_off_c, 9, 36, 64
9, 17284, Note_on_c, 9, 42, 122
9, 17288, Note_off_c, 9, 42, 64
9, 17520, Note_on_c, 9, 42, 90
9, 17524, Note_off_c, 9, 42, 64
9, 17640, Note_on_c, 9, 54, 42
9, 17644, Note_off_c, 9, 54, 64
9, 17700, Note_on_c, 9, 54, 58
9, 17704, Note_off_c, 9, 54, 64
9, 17760, Note_on_c, 9, 38, 122
9, 17764, Note_off_c, 9, 38, 64
9, 17764, Note_on_c, 9, 42, 122
9, 17764, Note_on_c, 9, 54, 127
9, 17768, Note_off_c, 9, 54, 64
9, 17768, Note_off_c, 9, 42, 64
9, 18000, Note_on_c, 9, 42, 90
9, 18004, Note_off_c, 9, 42, 64
9, 18240, Note_on_c, 9, 36, 122
9, 18244, Note_off_c, 9, 36, 64
9, 18244, Note_on_c, 9, 42, 122
9, 18248, Note_off_c, 9, 42, 64
9, 18480, Note_on_c, 9, 42, 90
9, 18484, Note_off_c, 9, 42, 64
9, 18600, Note_on_c, 9, 54, 42
9, 18604, Note_off_c, 9, 54, 64
9, 18660, Note_on_c, 9, 54, 58
9, 18664, Note_off_c, 9, 54, 64
9, 18720, Note_on_c, 9, 38, 122
9, 18724, Note_off_c, 9, 38, 64
9, 18724, Note_on_c, 9, 42, 122
9, 18724, Note_on_c, 9, 54, 127
9, 18728, Note_off_c, 9, 54, 64
9, 18728, Note_off_c, 9, 42, 64
9, 18960, Note_on_c, 9, 42, 90
9, 18964, Note_off_c, 9, 42, 64
9, 19204, Note_on_c, 9, 36, 122
9, 19204, Note_on_c, 9, 42, 122
9, 19208, Note_off_c, 9, 42, 64
9, 19208, Note_off_c, 9, 36, 64
9, 19440, Note_on_c, 9, 42, 90
9, 19444, Note_off_c, 9, 42, 64
9, 19560, Note_on_c, 9, 54, 42
9, 19564, Note_off_c, 9, 54, 64
9, 19620, Note_on_c, 9, 54, 58
9, 19624, Note_off_c, 9, 54, 64
9, 19680, Note_on_c, 9, 38, 122
9, 19684, Note_off_c, 9, 38, 64
9, 19684, Note_on_c, 9, 42, 122
9, 19684, Note_on_c, 9, 54, 127
9, 19688, Note_off_c, 9, 54, 64
9, 19688, Note_off_c, 9, 42, 64
9, 19920, Note_on_c, 9, 42, 90
9, 19924, Note_off_c, 9, 42, 64
9, 20160, Note_on_c, 9, 36, 122
9, 20164, Note_off_c, 9, 36, 64
9, 20164, Note_on_c, 9, 42, 122
9, 20168, Note_off_c, 9, 42, 64
9, 20400, Note_on_c, 9, 42, 90
9, 20404, Note_off_c, 9, 42, 64
9, 20520, Note_on_c, 9, 54, 42
9, 20524, Note_off_c, 9, 54, 64
9, 20580, Note_on_c, 9, 54, 58
9, 20584, Note_off_c, 9, 54, 64
9, 20640, Note_on_c, 9, 38, 122
9, 20644, Note_off_c, 9, 38, 64
9, 20644, Note_on_c, 9, 42, 122
9, 20644, Note_on_c, 9, 54, 127
9, 20648, Note_off_c, 9, 54, 64
9, 20648, Note_off_c, 9, 42, 64
9, 20880, Note_on_c, 9, 42, 90
9, 20884, Note_off_c, 9, 42, 64
9, 21120, Note_on_c, 9, 36, 122
9, 21124, Note_off_c, 9, 36, 64
9, 21124, Note_on_c, 9, 42, 122
9, 21128, Note_off_c, 9, 42, 64
9, 21360, Note_on_c, 9, 42, 90
9, 21364, Note_off_c, 9, 42, 64
9, 21480, Note_on_c, 9, 54, 42
9, 21484, Note_off_c, 9, 54, 64
9, 21540, Note_on_c, 9, 54, 58
9, 21544, Note_off_c, 9, 54, 64
9, 21600, Note_on_c, 9, 38, 122
9, 21604, Note_off_c, 9, 38, 64
9, 21604, Note_on_c, 9, 42, 122
9, 21604, Note_on_c, 9, 54, 127
9, 21608, Note_off_c, 9, 54, 64
9, 21608, Note_off_c, 9, 42, 64
9, 21840, Note_on_c, 9, 42, 90
9, 21844, Note_off_c, 9, 42, 64
9, 22080, Note_on_c, 9, 36, 122
9, 22084, Note_off_c, 9, 36, 64
9, 22084, Note_on_c, 9, 42, 122
9, 22088, Note_off_c, 9, 42, 64
9, 22320, Note_on_c, 9, 42, 90
9, 22324, Note_off_c, 9, 42, 64
9, 22440, Note_on_c, 9, 54, 42
9, 22444, Note_off_c, 9, 54, 64
9, 22500, Note_on_c, 9, 54, 58
9, 22504, Note_off_c, 9, 54, 64
9, 22560, Note_on_c, 9, 38, 122
9, 22564, Note_off_c, 9, 38, 64
9, 22564, Note_on_c, 9, 42, 122
9, 22564, Note_on_c, 9, 54, 127
9, 22568, Note_off_c, 9, 54, 64
9, 22568, Note_off_c, 9, 42, 64
9, 22800, Note_on_c, 9, 42, 90
9, 22804, Note_off_c, 9, 42, 64
9, 23040, Note_on_c, 9, 36, 122
9, 23044, Note_off_c, 9, 36, 64
9, 23044, Note_on_c, 9, 42, 122
9, 23048, Note_off_c, 9, 42, 64
9, 23280, Note_on_c, 9, 42, 90
9, 23284, Note_off_c, 9, 42, 64
9, 23400, Note_on_c, 9, 54, 42
9, 23404, Note_off_c, 9, 54, 64
9, 23460, Note_on_c, 9, 54, 58
9, 23464, Note_off_c, 9, 54, 64
9, 23520, Note_on_c, 9, 38, 122
9, 23524, Note_off_c, 9, 38, 64
9, 23524, Note_on_c, 9, 42, 122
9, 23524, Note_on_c, 9, 54, 127
9, 23528, Note_off_c, 9, 54, 64
9, 23528, Note_off_c, 9, 42, 64
9, 23760, Note_on_c, 9, 42, 90
9, 23764, Note_off_c, 9, 42, 64
9, 24000, Note_on_c, 9, 36, 122
9, 24004, Note_off_c, 9, 36, 64
9, 24004, Note_on_c, 9, 42, 122
9, 24008, Note_off_c, 9, 42, 64
9, 24240, Note_on_c, 9, 42, 90
9, 24244, Note_off_c, 9, 42, 64
9, 24360, Note_on_c, 9, 54, 42
9, 24364, Note_off_c, 9, 54, 64
9, 24420, Note_on_c, 9, 54, 58
9, 24424, Note_off_c, 9, 54, 64
9, 24480, Note_on_c, 9, 38, 122
9, 24484, Note_off_c, 9, 38, 64
9, 24484, Note_on_c, 9, 42, 122
9, 24484, Note_on_c, 9, 54, 127
9, 24488, Note_off_c, 9, 54, 64
9, 24488, Note_off_c, 9, 42, 64
9, 24720, Note_on_c, 9, 42, 90
9, 24724, Note_off_c, 9, 42, 64
9, 24964, Note_on_c, 9, 36, 122
9, 24964, Note_on_c, 9, 42, 122
9, 24968, Note_off_c, 9, 42, 64
9, 24968, Note_off_c, 9, 36, 64
9, 25200, Note_on_c, 9, 42, 90
9, 25204, Note_off_c, 9, 42, 64
9, 25320, Note_on_c, 9, 54, 42
9, 25324, Note_off_c, 9, 54, 64
9, 25380, Note_on_c, 9, 54, 58
9, 25384, Note_off_c, 9, 54, 64
9, 25440, Note_on_c, 9, 38, 122
9, 25444, Note_off_c, 9, 38, 64
9, 25444, Note_on_c, 9, 42, 122
9, 25444, Note_on_c, 9, 54, 127
9, 25448, Note_off_c, 9, 54, 64
9, 25448, Note_off_c, 9, 42, 64
9, 25680, Note_on_c, 9, 42, 90
9, 25684, Note_off_c, 9, 42, 64
9, 25920, Note_on_c, 9, 36, 122
9, 25924, Note_off_c, 9, 36, 64
9, 25924, Note_on_c, 9, 42, 122
9, 25928, Note_off_c, 9, 42, 64
9, 26160, Note_on_c, 9, 42, 90
9, 26164, Note_off_c, 9, 42, 64
9, 26280, Note_on_c, 9, 54, 42
9, 26284, Note_off_c, 9, 54, 64
9, 26340, Note_on_c, 9, 54, 58
9, 26344, Note_off_c, 9, 54, 64
9, 26400, Note_on_c, 9, 38, 122
9, 26404, Note_off_c, 9, 38, 64
9, 26404, Note_on_c, 9, 42, 122
9, 26404, Note_on_c, 9, 54, 127
9, 26408, Note_off_c, 9, 54, 64
9, 26408, Note_off_c, 9, 42, 64
9, 26640, Note_on_c, 9, 42, 90
9, 26644, Note_off_c, 9, 42, 64
9, 26884, Note_on_c, 9, 36, 122
9, 26884, Note_on_c, 9, 42, 122
9, 26888, Note_off_c, 9, 42, 64
9, 26888, Note_off_c, 9, 36, 64
9, 27120, Note_on_c, 9, 42, 90
9, 27124, Note_off_c, 9, 42, 64
9, 27240, Note_on_c, 9, 54, 42
9, 27244, Note_off_c, 9, 54, 64
9, 27300, Note_on_c, 9, 54, 58
9, 27304, Note_off_c, 9, 54, 64
9, 27360, Note_on_c, 9, 38, 122
9, 27364, Note_off_c, 9, 38, 64
9, 27364, Note_on_c, 9, 42, 122
9, 27364, Note_on_c, 9, 54, 127
9, 27368, Note_off_c, 9, 54, 64
9, 27368, Note_off_c, 9, 42, 64
9, 27600, Note_on_c, 9, 42, 90
9, 27604, Note_off_c, 9, 42, 64
9, 27840, Note_on_c, 9, 36, 122
9, 27844, Note_off_c, 9, 36, 64
9, 27844, Note_on_c, 9, 42, 122
9, 27848, Note_off_c, 9, 42, 64
9, 28080, Note_on_c, 9, 42, 90
9, 28084, Note_off_c, 9, 42, 64
9, 28200, Note_on_c, 9, 54, 42
9, 28204, Note_off_c, 9, 54, 64
9, 28260, Note_on_c, 9, 54, 58
9, 28264, Note_off_c, 9, 54, 64
9, 28320, Note_on_c, 9, 38, 122
9, 28324, Note_off_c, 9, 38, 64
9, 28324, Note_on_c, 9, 42, 122
9, 28324, Note_on_c, 9, 54, 127
9, 28328, Note_off_c, 9, 54, 64
9, 28328, Note_off_c, 9, 42, 64
9, 28560, Note_on_c, 9, 42, 90
9, 28564, Note_off_c, 9, 42, 64
9, 28800, Note_on_c, 9, 36, 122
9, 28804, Note_off_c, 9, 36, 64
9, 28804, Note_on_c, 9, 42, 122
9, 28808, Note_off_c, 9, 42, 64
9, 29040, Note_on_c, 9, 42, 90
9, 29044, Note_off_c, 9, 42, 64
9, 29160, Note_on_c, 9, 54, 42
9, 29164, Note_off_c, 9, 54, 64
9, 29220, Note_on_c, 9, 54, 58
9, 29224, Note_off_c, 9, 54, 64
9, 29280, Note_on_c, 9, 38, 122
9, 29284, Note_off_c, 9, 38, 64
9, 29284, Note_on_c, 9, 42, 122
9, 29284, Note_on_c, 9, 54, 127
9, 29288, Note_off_c, 9, 54, 64
9, 29288, Note_off_c, 9, 42, 64
9, 29520, Note_on_c, 9, 42, 90
9, 29524, Note_off_c, 9, 42, 64
9, 29760, Note_on_c, 9, 36, 122
9, 29764, Note_off_c, 9, 36, 64
9, 29764, Note_on_c, 9, 42, 122
9, 29768, Note_off_c, 9, 42, 64
9, 30000, Note_on_c, 9, 42, 90
9, 30004, Note_off_c, 9, 42, 64
9, 30120, Note_on_c, 9, 54, 42
9, 30124, Note_off_c, 9, 54, 64
9, 30180, Note_on_c, 9, 54, 58
9, 30184, Note_off_c, 9, 54, 64
9, 30240, Note_on_c, 9, 38, 122
9, 30244, Note_off_c, 9, 38, 64
9, 30244, Note_on_c, 9, 42, 122
9, 30244, Note_on_c, 9, 54, 127
9, 30248, Note_off_c, 9, 54, 64
9, 30248, Note_off_c, 9, 42, 64
9, 30480, Note_on_c, 9, 42, 90
9, 30484, Note_off_c, 9, 42, 64
9, 30724, Note_on_c, 9, 36, 122
9, 30724, Note_on_c, 9, 42, 122
9, 30724, Note_on_c, 9, 49, 127
9, 30728, Note_off_c, 9, 49, 64
9, 30728, Note_off_c, 9, 42, 64
9, 30728, Note_off_c, 9, 36, 64
9, 30960, Note_on_c, 9, 42, 90
9, 30964, Note_off_c, 9, 42, 64
9, 31080, Note_on_c, 9, 54, 42
9, 31084, Note_off_c, 9, 54, 64
9, 31140, Note_on_c, 9, 54, 58
9, 31144, Note_off_c, 9, 54, 64
9, 31200, Note_on_c, 9, 38, 122
9, 31204, Note_off_c, 9, 38, 64
9, 31204, Note_on_c, 9, 42, 122
9, 31204, Note_on_c, 9, 54, 127
9, 31208, Note_off_c, 9, 54, 64
9, 31208, Note_off_c, 9, 42, 64
9, 31440, Note_on_c, 9, 42, 90
9, 31444, Note_off_c, 9, 42, 64
9, 31680, Note_on_c, 9, 36, 122
9, 31684, Note_off_c, 9, 36, 64
9, 31684, Note_on_c, 9, 42, 122
9, 31688, Note_off_c, 9, 42, 64
9, 31920, Note_on_c, 9, 42, 90
9, 31924, Note_off_c, 9, 42, 64
9, 32040, Note_on_c, 9, 54, 42
9, 32044, Note_off_c, 9, 54, 64
9, 32100, Note_on_c, 9, 54, 58
9, 32104, Note_off_c, 9, 54, 64
9, 32160, Note_on_c, 9, 38, 122
9, 32164, Note_off_c, 9, 38, 64
9, 32164, Note_on_c, 9, 42, 122
9, 32164, Note_on_c, 9, 54, 127
9, 32168, Note_off_c, 9, 54, 64
9, 32168, Note_off_c, 9, 42, 64
9, 32400, Note_on_c, 9, 42, 90
9, 32404, Note_off_c, 9, 42, 64
9, 32640, Note_on_c, 9, 36, 122
9, 32644, Note_off_c, 9, 36, 64
9, 32644, Note_on_c, 9, 42, 122
9, 32648, Note_off_c, 9, 42, 64
9, 32880, Note_on_c, 9, 42, 90
9, 32884, Note_off_c, 9, 42, 64
9, 33000, Note_on_c, 9, 54, 42
9, 33004, Note_off_c, 9, 54, 64
9, 33060, Note_on_c, 9, 54, 58
9, 33064, Note_off_c, 9, 54, 64
9, 33120, Note_on_c, 9, 38, 122
9, 33124, Note_off_c, 9, 38, 64
9, 33124, Note_on_c, 9, 42, 122
9, 33124, Note_on_c, 9, 54, 127
9, 33128, Note_off_c, 9, 54, 64
9, 33128, Note_off_c, 9, 42, 64
9, 33360, Note_on_c, 9, 42, 90
9, 33364, Note_off_c, 9, 42, 64
9, 33600, Note_on_c, 9, 36, 122
9, 33604, Note_off_c, 9, 36, 64
9, 33604, Note_on_c, 9, 42, 122
9, 33608, Note_off_c, 9, 42, 64
9, 33840, Note_on_c, 9, 42, 90
9, 33844, Note_off_c, 9, 42, 64
9, 33960, Note_on_c, 9, 54, 42
9, 33964, Note_off_c, 9, 54, 64
9, 34020, Note_on_c, 9, 54, 58
9, 34024, Note_off_c, 9, 54, 64
9, 34080, Note_on_c, 9, 38, 122
9, 34084, Note_off_c, 9, 38, 64
9, 34084, Note_on_c, 9, 42, 122
9, 34084, Note_on_c, 9, 54, 127
9, 34088, Note_off_c, 9, 54, 64
9, 34088, Note_off_c, 9, 42, 64
9, 34320, Note_on_c, 9, 42, 90
9, 34320, Note_on_c, 9, 46, 122
9, 34324, Note_off_c, 9, 46, 64
9, 34324, Note_off_c, 9, 42, 64
9, 34560, Note_on_c, 9, 36, 122
9, 34564, Note_off_c, 9, 36, 64
9, 34564, Note_on_c, 9, 42, 122
9, 34568, Note_off_c, 9, 42, 64
9, 34800, Note_on_c, 9, 42, 90
9, 34804, Note_off_c, 9, 42, 64
9, 34920, Note_on_c, 9, 54, 42
9, 34924, Note_off_c, 9, 54, 64
9, 34980, Note_on_c, 9, 54, 58
9, 34984, Note_off_c, 9, 54, 64
9, 35040, Note_on_c, 9, 38, 122
9, 35044, Note_off_c, 9, 38, 64
9, 35044, Note_on_c, 9, 42, 122
9, 35044, Note_on_c, 9, 54, 127
9, 35048, Note_off_c, 9, 54, 64
9, 35048, Note_off_c, 9, 42, 64
9, 35280, Note_on_c, 9, 42, 90
9, 35284, Note_off_c, 9, 42, 64
9, 35520, Note_on_c, 9, 36, 122
9, 35524, Note_off_c, 9, 36, 64
9, 35524, Note_on_c, 9, 42, 122
9, 35528, Note_off_c, 9, 42, 64
9, 35760, Note_on_c, 9, 42, 90
9, 35764, Note_off_c, 9, 42, 64
9, 35880, Note_on_c, 9, 54, 42
9, 35884, Note_off_c, 9, 54, 64
9, 35940, Note_on_c, 9, 54, 58
9, 35944, Note_off_c, 9, 54, 64
9, 36000, Note_on_c, 9, 38, 122
9, 36004, Note_off_c, 9, 38, 64
9, 36004, Note_on_c, 9, 42, 122
9, 36004, Note_on_c, 9, 54, 127
9, 36008, Note_off_c, 9, 54, 64
9, 36008, Note_off_c, 9, 42, 64
9, 36240, Note_on_c, 9, 42, 90
9, 36244, Note_off_c, 9, 42, 64
9, 36480, Note_on_c, 9, 36, 122
9, 36484, Note_off_c, 9, 36, 64
9, 36484, Note_on_c, 9, 42, 122
9, 36488, Note_off_c, 9, 42, 64
9, 36720, Note_on_c, 9, 42, 90
9, 36724, Note_off_c, 9, 42, 64
9, 36840, Note_on_c, 9, 54, 42
9, 36844, Note_off_c, 9, 54, 64
9, 36900, Note_on_c, 9, 54, 58
9, 36904, Note_off_c, 9, 54, 64
9, 36960, Note_on_c, 9, 38, 122
9, 36964, Note_off_c, 9, 38, 64
9, 36964, Note_on_c, 9, 42, 122
9, 36964, Note_on_c, 9, 54, 127
9, 36968, Note_off_c, 9, 54, 64
9, 36968, Note_off_c, 9, 42, 64
9, 37200, Note_on_c, 9, 42, 90
9, 37204, Note_off_c, 9, 42, 64
9, 37440, Note_on_c, 9, 36, 122
9, 37444, Note_off_c, 9, 36, 64
9, 37444, Note_on_c, 9, 42, 122
9, 37448, Note_off_c, 9, 42, 64
9, 37680, Note_on_c, 9, 42, 90
9, 37684, Note_off_c, 9, 42, 64
9, 37800, Note_on_c, 9, 54, 42
9, 37804, Note_off_c, 9, 54, 64
9, 37860, Note_on_c, 9, 54, 58
9, 37864, Note_off_c, 9, 54, 64
9, 37920, Note_on_c, 9, 38, 122
9, 37924, Note_off_c, 9, 38, 64
9, 37924, Note_on_c, 9, 42, 122
9, 37924, Note_on_c, 9, 54, 127
9, 37928, Note_off_c, 9, 54, 64
9, 37928, Note_off_c, 9, 42, 64
9, 38160, Note_on_c, 9, 42, 90
9, 38164, Note_off_c, 9, 42, 64
9, 38404, Note_on_c, 9, 36, 122
9, 38404, Note_on_c, 9, 42, 122
9, 38408, Note_off_c, 9, 42, 64
9, 38408, Note_off_c, 9, 36, 64
9, 38640, Note_on_c, 9, 42, 90
9, 38644, Note_off_c, 9, 42, 64
9, 38760, Note_on_c, 9, 54, 42
9, 38764, Note_off_c, 9, 54, 64
9, 38820, Note_on_c, 9, 54, 58
9, 38824, Note_off_c, 9, 54, 64
9, 38880, Note_on_c, 9, 38, 122
9, 38884, Note_off_c, 9, 38, 64
9, 38884, Note_on_c, 9, 42, 122
9, 38884, Note_on_c, 9, 54, 127
9, 38888, Note_off_c, 9, 54, 64
9, 38888, Note_off_c, 9, 42, 64
9, 39120, Note_on_c, 9, 42, 90
9, 39124, Note_off_c, 9, 42, 64
9, 39360, Note_on_c, 9, 36, 122
9, 39364, Note_off_c, 9, 36, 64
9, 39364, Note_on_c, 9, 42, 122
9, 39368, Note_off_c, 9, 42, 64
9, 39600, Note_on_c, 9, 42, 90
9, 39604, Note_off_c, 9, 42, 64
9, 39720, Note_on_c, 9, 54, 42
9, 39724, Note_off_c, 9, 54, 64
9, 39780, Note_on_c, 9, 54, 58
9, 39784, Note_off_c, 9, 54, 64
9, 39840, Note_on_c, 9, 38, 122
9, 39844, Note_off_c, 9, 38, 64
9, 39844, Note_on_c, 9, 42, 122
9, 39844, Note_on_c, 9, 54, 127
9, 39848, Note_off_c, 9, 54, 64
9, 39848, Note_off_c, 9, 42, 64
9, 40080, Note_on_c, 9, 42, 90
9, 40084, Note_off_c, 9, 42, 64
9, 40320, Note_on_c, 9, 36, 122
9, 40324, Note_off_c, 9, 36, 64
9, 40324, Note_on_c, 9, 42, 122
9, 40328, Note_off_c, 9, 42, 64
9, 40560, Note_on_c, 9, 42, 90
9, 40564, Note_off_c, 9, 42, 64
9, 40680, Note_on_c, 9, 54, 42
9, 40684, Note_off_c, 9, 54, 64
9, 40740, Note_on_c, 9, 54, 58
9, 40744, Note_off_c, 9, 54, 64
9, 40800, Note_on_c, 9, 38, 122
9, 40804, Note_off_c, 9, 38, 64
9, 40804, Note_on_c, 9, 42, 122
9, 40804, Note_on_c, 9, 54, 127
9, 40808, Note_off_c, 9, 54, 64
9, 40808, Note_off_c, 9, 42, 64
9, 41040, Note_on_c, 9, 42, 90
9, 41044, Note_off_c, 9, 42, 64
9, 41280, Note_on_c, 9, 36, 122
9, 41284, Note_off_c, 9, 36, 64
9, 41284, Note_on_c, 9, 42, 122
9, 41288, Note_off_c, 9, 42, 64
9, 41520, Note_on_c, 9, 42, 90
9, 41524, Note_off_c, 9, 42, 64
9, 41640, Note_on_c, 9, 54, 42
9, 41644, Note_off_c, 9, 54, 64
9, 41700, Note_on_c, 9, 54, 58
9, 41704, Note_off_c, 9, 54, 64
9, 41760, Note_on_c, 9, 38, 122
9, 41764, Note_off_c, 9, 38, 64
9, 41764, Note_on_c, 9, 42, 122
9, 41764, Note_on_c, 9, 54, 127
9, 41768, Note_off_c, 9, 54, 64
9, 41768, Note_off_c, 9, 42, 64
9, 42000, Note_on_c, 9, 42, 90
9, 42004, Note_off_c, 9, 42, 64
9, 42240, Note_on_c, 9, 36, 122
9, 42244, Note_off_c, 9, 36, 64
9, 42244, Note_on_c, 9, 42, 122
9, 42248, Note_off_c, 9, 42, 64
9, 42480, Note_on_c, 9, 42, 90
9, 42484, Note_off_c, 9, 42, 64
9, 42600, Note_on_c, 9, 54, 42
9, 42604, Note_off_c, 9, 54, 64
9, 42660, Note_on_c, 9, 54, 58
9, 42664, Note_off_c, 9, 54, 64
9, 42720, Note_on_c, 9, 38, 122
9, 42724, Note_off_c, 9, 38, 64
9, 42724, Note_on_c, 9, 42, 122
9, 42724, Note_on_c, 9, 54, 127
9, 42728, Note_off_c, 9, 54, 64
9, 42728, Note_off_c, 9, 42, 64
9, 42960, Note_on_c, 9, 42, 90
9, 42964, Note_off_c, 9, 42, 64
9, 43200, Note_on_c, 9, 36, 122
9, 43204, Note_off_c, 9, 36, 64
9, 43204, Note_on_c, 9, 42, 122
9, 43208, Note_off_c, 9, 42, 64
9, 43440, Note_on_c, 9, 42, 90
9, 43444, Note_off_c, 9, 42, 64
9, 43560, Note_on_c, 9, 54, 42
9, 43564, Note_off_c, 9, 54, 64
9, 43620, Note_on_c, 9, 54, 58
9, 43624, Note_off_c, 9, 54, 64
9, 43680, Note_on_c, 9, 38, 122
9, 43684, Note_off_c, 9, 38, 64
9, 43684, Note_on_c, 9, 42, 122
9, 43684, Note_on_c, 9, 54, 127
9, 43688, Note_off_c, 9, 54, 64
9, 43688, Note_off_c, 9, 42, 64
9, 43920, Note_on_c, 9, 42, 90
9, 43924, Note_off_c, 9, 42, 64
9, 44160, Note_on_c, 9, 36, 122
9, 44164, Note_off_c, 9, 36, 64
9, 44164, Note_on_c, 9, 42, 122
9, 44168, Note_off_c, 9, 42, 64
9, 44400, Note_on_c, 9, 42, 90
9, 44404, Note_off_c, 9, 42, 64
9, 44520, Note_on_c, 9, 54, 42
9, 44524, Note_off_c, 9, 54, 64
9, 44580, Note_on_c, 9, 54, 58
9, 44584, Note_off_c, 9, 54, 64
9, 44640, Note_on_c, 9, 38, 122
9, 44644, Note_off_c, 9, 38, 64
9, 44644, Note_on_c, 9, 42, 122
9, 44644, Note_on_c, 9, 54, 127
9, 44648, Note_off_c, 9, 54, 64
9, 44648, Note_off_c, 9, 42, 64
9, 44880, Note_on_c, 9, 42, 90
9, 44884, Note_off_c, 9, 42, 64
9, 45120, Note_on_c, 9, 36, 122
9, 45124, Note_off_c, 9, 36, 64
9, 45124, Note_on_c, 9, 42, 122
9, 45128, Note_off_c, 9, 42, 64
9, 45360, Note_on_c, 9, 42, 90
9, 45364, Note_off_c, 9, 42, 64
9, 45480, Note_on_c, 9, 54, 42
9, 45484, Note_off_c, 9, 54, 64
9, 45540, Note_on_c, 9, 54, 58
9, 45544, Note_off_c, 9, 54, 64
9, 45600, Note_on_c, 9, 38, 122
9, 45604, Note_off_c, 9, 38, 64
9, 45604, Note_on_c, 9, 42, 122
9, 45604, Note_on_c, 9, 54, 127
9, 45608, Note_off_c, 9, 54, 64
9, 45608, Note_off_c, 9, 42, 64
9, 45840, Note_on_c, 9, 42, 90
9, 45840, Note_on_c, 9, 46, 122
9, 45844, Note_off_c, 9, 46, 64
9, 45844, Note_off_c, 9, 42, 64
9, 46080, Note_on_c, 9, 36, 122
9, 46084, Note_off_c, 9, 36, 64
9, 46084, Note_on_c, 9, 42, 122
9, 46084, Note_on_c, 9, 49, 127
9, 46088, Note_off_c, 9, 49, 64
9, 46088, Note_off_c, 9, 42, 64
9, 46320, Note_on_c, 9, 42, 90
9, 46324, Note_off_c, 9, 42, 64
9, 46440, Note_on_c, 9, 54, 42
9, 46444, Note_off_c, 9, 54, 64
9, 46500, Note_on_c, 9, 54, 58
9, 46504, Note_off_c, 9, 54, 64
9, 46560, Note_on_c, 9, 38, 122
9, 46564, Note_off_c, 9, 38, 64
9, 46564, Note_on_c, 9, 42, 122
9, 46564, Note_on_c, 9, 54, 127
9, 46568, Note_off_c, 9, 54, 64
9, 46568, Note_off_c, 9, 42, 64
9, 46800, Note_on_c, 9, 42, 90
9, 46804, Note_off_c, 9, 42, 64
9, 47040, Note_on_c, 9, 36, 122
9, 47044, Note_off_c, 9, 36, 64
9, 47044, Note_on_c, 9, 42, 122
9, 47048, Note_off_c, 9, 42, 64
9, 47280, Note_on_c, 9, 42, 90
9, 47284, Note_off_c, 9, 42, 64
9, 47400, Note_on_c, 9, 54, 42
9, 47404, Note_off_c, 9, 54, 64
9, 47460, Note_on_c, 9, 54, 58
9, 47464, Note_off_c, 9, 54, 64
9, 47520, Note_on_c, 9, 38, 122
9, 47524, Note_off_c, 9, 38, 64
9, 47524, Note_on_c, 9, 42, 122
9, 47524, Note_on_c, 9, 54, 127
9, 47528, Note_off_c, 9, 54, 64
9, 47528, Note_off_c, 9, 42, 64
9, 47760, Note_on_c, 9, 42, 90
9, 47764, Note_off_c, 9, 42, 64
9, 48000, Note_on_c, 9, 36, 122
9, 48004, Note_off_c, 9, 36, 64
9, 48004, Note_on_c, 9, 42, 122
9, 48008, Note_off_c, 9, 42, 64
9, 48240, Note_on_c, 9, 42, 90
9, 48244, Note_off_c, 9, 42, 64
9, 48360, Note_on_c, 9, 54, 42
9, 48364, Note_off_c, 9, 54, 64
9, 48420, Note_on_c, 9, 54, 58
9, 48424, Note_off_c, 9, 54, 64
9, 48480, Note_on_c, 9, 38, 122
9, 48484, Note_off_c, 9, 38, 64
9, 48484, Note_on_c, 9, 42, 122
9, 48484, Note_on_c, 9, 54, 127
9, 48488, Note_off_c, 9, 54, 64
9, 48488, Note_off_c, 9, 42, 64
9, 48720, Note_on_c, 9, 42, 90
9, 48724, Note_off_c, 9, 42, 64
9, 48960, Note_on_c, 9, 36, 122
9, 48964, Note_off_c, 9, 36, 64
9, 48964, Note_on_c, 9, 42, 122
9, 48968, Note_off_c, 9, 42, 64
9, 49200, Note_on_c, 9, 42, 90
9, 49204, Note_off_c, 9, 42, 64
9, 49320, Note_on_c, 9, 54, 42
9, 49324, Note_off_c, 9, 54, 64
9, 49380, Note_on_c, 9, 54, 58
9, 49384, Note_off_c, 9, 54, 64
9, 49440, Note_on_c, 9, 38, 122
9, 49444, Note_off_c, 9, 38, 64
9, 49444, Note_on_c, 9, 42, 122
9, 49444, Note_on_c, 9, 54, 127
9, 49448, Note_off_c, 9, 54, 64
9, 49448, Note_off_c, 9, 42, 64
9, 49680, Note_on_c, 9, 42, 90
9, 49684, Note_off_c, 9, 42, 64
9, 49920, Note_on_c, 9, 36, 122
9, 49924, Note_off_c, 9, 36, 64
9, 49924, Note_on_c, 9, 42, 122
9, 49928, Note_off_c, 9, 42, 64
9, 50160, Note_on_c, 9, 42, 90
9, 50164, Note_off_c, 9, 42, 64
9, 50280, Note_on_c, 9, 54, 42
9, 50284, Note_off_c, 9, 54, 64
9, 50340, Note_on_c, 9, 54, 58
9, 50344, Note_off_c, 9, 54, 64
9, 50400, Note_on_c, 9, 38, 122
9, 50400, Note_on_c, 9, 42, 122
9, 50404, Note_off_c, 9, 42, 64
9, 50404, Note_off_c, 9, 38, 64
9, 50404, Note_on_c, 9, 54, 127
9, 50408, Note_off_c, 9, 54, 64
9, 50640, Note_on_c, 9, 42, 90
9, 50644, Note_off_c, 9, 42, 64
9, 50880, Note_on_c, 9, 36, 122
9, 50884, Note_off_c, 9, 36, 64
9, 50884, Note_on_c, 9, 42, 122
9, 50888, Note_off_c, 9, 42, 64
9, 51120, Note_on_c, 9, 42, 90
9, 51124, Note_off_c, 9, 42, 64
9, 51240, Note_on_c, 9, 54, 42
9, 51244, Note_off_c, 9, 54, 64
9, 51300, Note_on_c, 9, 54, 58
9, 51304, Note_off_c, 9, 54, 64
9, 51360, Note_on_c, 9, 38, 122
9, 51364, Note_off_c, 9, 38, 64
9, 51364, Note_on_c, 9, 42, 122
9, 51364, Note_on_c, 9, 54, 127
9, 51368, Note_off_c, 9, 54, 64
9, 51368, Note_off_c, 9, 42, 64
9, 51600, Note_on_c, 9, 42, 90
9, 51604, Note_off_c, 9, 42, 64
9, 51840, Note_on_c, 9, 36, 122
9, 51844, Note_off_c, 9, 36, 64
9, 51844, Note_on_c, 9, 42, 122
9, 51848, Note_off_c, 9, 42, 64
9, 52080, Note_on_c, 9, 42, 90
9, 52084, Note_off_c, 9, 42, 64
9, 52200, Note_on_c, 9, 54, 42
9, 52204, Note_off_c, 9, 54, 64
9, 52260, Note_on_c, 9, 54, 58
9, 52264, Note_off_c, 9, 54, 64
9, 52320, Note_on_c, 9, 38, 122
9, 52324, Note_off_c, 9, 38, 64
9, 52324, Note_on_c, 9, 42, 122
9, 52324, Note_on_c, 9, 54, 127
9, 52328, Note_off_c, 9, 54, 64
9, 52328, Note_off_c, 9, 42, 64
9, 52560, Note_on_c, 9, 42, 90
9, 52564, Note_off_c, 9, 42, 64
9, 52800, Note_on_c, 9, 36, 122
9, 52804, Note_off_c, 9, 36, 64
9, 52804, Note_on_c, 9, 42, 122
9, 52808, Note_off_c, 9, 42, 64
9, 53040, Note_on_c, 9, 42, 90
9, 53044, Note_off_c, 9, 42, 64
9, 53160, Note_on_c, 9, 54, 42
9, 53164, Note_off_c, 9, 54, 64
9, 53220, Note_on_c, 9, 54, 58
9, 53224, Note_off_c, 9, 54, 64
9, 53280, Note_on_c, 9, 38, 122
9, 53284, Note_off_c, 9, 38, 64
9, 53284, Note_on_c, 9, 42, 122
9, 53284, Note_on_c, 9, 54, 127
9, 53288, Note_off_c, 9, 54, 64
9, 53288, Note_off_c, 9, 42, 64
9, 53520, Note_on_c, 9, 42, 90
9, 53524, Note_off_c, 9, 42, 64
9, 53760, Note_on_c, 9, 36, 122
9, 53764, Note_off_c, 9, 36, 64
9, 53764, Note_on_c, 9, 42, 122
9, 53768, Note_off_c, 9, 42, 64
9, 54000, Note_on_c, 9, 42, 90
9, 54004, Note_off_c, 9, 42, 64
9, 54120, Note_on_c, 9, 54, 42
9, 54124, Note_off_c, 9, 54, 64
9, 54180, Note_on_c, 9, 54, 58
9, 54184, Note_off_c, 9, 54, 64
9, 54240, Note_on_c, 9, 38, 122
9, 54244, Note_off_c, 9, 38, 64
9, 54244, Note_on_c, 9, 42, 122
9, 54244, Note_on_c, 9, 54, 127
9, 54248, Note_off_c, 9, 54, 64
9, 54248, Note_off_c, 9, 42, 64
9, 54480, Note_on_c, 9, 42, 90
9, 54484, Note_off_c, 9, 42, 64
9, 54720, Note_on_c, 9, 36, 122
9, 54724, Note_off_c, 9, 36, 64
9, 54724, Note_on_c, 9, 42, 122
9, 54728, Note_off_c, 9, 42, 64
9, 54960, Note_on_c, 9, 42, 90
9, 54964, Note_off_c, 9, 42, 64
9, 55080, Note_on_c, 9, 54, 42
9, 55084, Note_off_c, 9, 54, 64
9, 55140, Note_on_c, 9, 54, 58
9, 55144, Note_off_c, 9, 54, 64
9, 55200, Note_on_c, 9, 38, 122
9, 55204, Note_off_c, 9, 38, 64
9, 55204, Note_on_c, 9, 42, 122
9, 55204, Note_on_c, 9, 54, 127
9, 55208, Note_off_c, 9, 54, 64
9, 55208, Note_off_c, 9, 42, 64
9, 55440, Note_on_c, 9, 42, 90
9, 55444, Note_off_c, 9, 42, 64
9, 55684, Note_on_c, 9, 36, 122
9, 55684, Note_on_c, 9, 42, 122
9, 55688, Note_off_c, 9, 42, 64
9, 55688, Note_off_c, 9, 36, 64
9, 55920, Note_on_c, 9, 42, 90
9, 55924, Note_off_c, 9, 42, 64
9, 56040, Note_on_c, 9, 54, 42
9, 56044, Note_off_c, 9, 54, 64
9, 56100, Note_on_c, 9, 54, 58
9, 56104, Note_off_c, 9, 54, 64
9, 56160, Note_on_c, 9, 38, 122
9, 56164, Note_off_c, 9, 38, 64
9, 56164, Note_on_c, 9, 42, 122
9, 56164, Note_on_c, 9, 54, 127
9, 56168, Note_off_c, 9, 54, 64
9, 56168, Note_off_c, 9, 42, 64
9, 56400, Note_on_c, 9, 42, 90
9, 56404, Note_off_c, 9, 42, 64
9, 56640, Note_on_c, 9, 36, 122
9, 56644, Note_off_c, 9, 36, 64
9, 56644, Note_on_c, 9, 42, 122
9, 56648, Note_off_c, 9, 42, 64
9, 56880, Note_on_c, 9, 42, 90
9, 56884, Note_off_c, 9, 42, 64
9, 57000, Note_on_c, 9, 54, 42
9, 57004, Note_off_c, 9, 54, 64
9, 57060, Note_on_c, 9, 54, 58
9, 57064, Note_off_c, 9, 54, 64
9, 57120, Note_on_c, 9, 38, 122
9, 57124, Note_off_c, 9, 38, 64
9, 57124, Note_on_c, 9, 42, 122
9, 57124, Note_on_c, 9, 54, 127
9, 57128, Note_off_c, 9, 54, 64
9, 57128, Note_off_c, 9, 42, 64
9, 57360, Note_on_c, 9, 42, 90
9, 57364, Note_off_c, 9, 42, 64
9, 57600, Note_on_c, 9, 36, 122
9, 57604, Note_off_c, 9, 36, 64
9, 57604, Note_on_c, 9, 42, 122
9, 57608, Note_off_c, 9, 42, 64
9, 57840, Note_on_c, 9, 42, 90
9, 57844, Note_off_c, 9, 42, 64
9, 57960, Note_on_c, 9, 54, 42
9, 57964, Note_off_c, 9, 54, 64
9, 58020, Note_on_c, 9, 54, 58
9, 58024, Note_off_c, 9, 54, 64
9, 58080, Note_on_c, 9, 38, 122
9, 58084, Note_off_c, 9, 38, 64
9, 58084, Note_on_c, 9, 42, 122
9, 58084, Note_on_c, 9, 54, 127
9, 58088, Note_off_c, 9, 54, 64
9, 58088, Note_off_c, 9, 42, 64
9, 58320, Note_on_c, 9, 42, 90
9, 58324, Note_off_c, 9, 42, 64
9, 58560, Note_on_c, 9, 36, 122
9, 58564, Note_off_c, 9, 36, 64
9, 58564, Note_on_c, 9, 42, 122
9, 58568, Note_off_c, 9, 42, 64
9, 58800, Note_on_c, 9, 42, 90
9, 58804, Note_off_c, 9, 42, 64
9, 58920, Note_on_c, 9, 54, 42
9, 58924, Note_off_c, 9, 54, 64
9, 58980, Note_on_c, 9, 54, 58
9, 58984, Note_off_c, 9, 54, 64
9, 59040, Note_on_c, 9, 38, 122
9, 59044, Note_off_c, 9, 38, 64
9, 59044, Note_on_c, 9, 42, 122
9, 59044, Note_on_c, 9, 54, 127
9, 59048, Note_off_c, 9, 54, 64
9, 59048, Note_off_c, 9, 42, 64
9, 59280, Note_on_c, 9, 42, 90
9, 59284, Note_off_c, 9, 42, 64
9, 59524, Note_on_c, 9, 36, 122
9, 59524, Note_on_c, 9, 42, 122
9, 59528, Note_off_c, 9, 42, 64
9, 59528, Note_off_c, 9, 36, 64
9, 59760, Note_on_c, 9, 42, 90
9, 59764, Note_off_c, 9, 42, 64
9, 59880, Note_on_c, 9, 54, 42
9, 59884, Note_off_c, 9, 54, 64
9, 59940, Note_on_c, 9, 54, 58
9, 59944, Note_off_c, 9, 54, 64
9, 60000, Note_on_c, 9, 38, 122
9, 60004, Note_off_c, 9, 38, 64
9, 60004, Note_on_c, 9, 42, 122
9, 60004, Note_on_c, 9, 54, 127
9, 60008, Note_off_c, 9, 54, 64
9, 60008, Note_off_c, 9, 42, 64
9, 60240, Note_on_c, 9, 42, 90
9, 60244, Note_off_c, 9, 42, 64
9, 60480, Note_on_c, 9, 36, 122
9, 60484, Note_off_c, 9, 36, 64
9, 60484, Note_on_c, 9, 42, 122
9, 60488, Note_off_c, 9, 42, 64
9, 60600, Note_on_c, 9, 54, 42
9, 60604, Note_off_c, 9, 54, 64
9, 60660, Note_on_c, 9, 54, 122
9, 60664, Note_off_c, 9, 54, 64
9, 60720, Note_on_c, 9, 42, 90
9, 60724, Note_off_c, 9, 42, 64
9, 60900, Note_on_c, 9, 54, 42
9, 60904, Note_off_c, 9, 54, 64
9, 60960, Note_on_c, 9, 38, 122
9, 60964, Note_off_c, 9, 38, 64
9, 60964, Note_on_c, 9, 42, 122
9, 60964, Note_on_c, 9, 49, 122
9, 60964, Note_on_c, 9, 54, 122
9, 60968, Note_off_c, 9, 54, 64
9, 60968, Note_off_c, 9, 49, 64
9, 60968, Note_off_c, 9, 42, 64
9, 61200, Note_on_c, 9, 42, 90
9, 61204, Note_off_c, 9, 42, 64
9, 61440, Note_on_c, 9, 36, 122
9, 61444, Note_off_c, 9, 36, 64
9, 61444, Note_on_c, 9, 42, 127
9, 61444, Note_on_c, 9, 49, 122
9, 61444, Note_on_c, 9, 54, 106
9, 61448, Note_off_c, 9, 54, 64
9, 61448, Note_off_c, 9, 49, 64
9, 61448, Note_off_c, 9, 42, 64
9, 61560, Note_on_c, 9, 54, 74
9, 61564, Note_off_c, 9, 54, 64
9, 61680, Note_on_c, 9, 42, 106
9, 61680, Note_on_c, 9, 54, 127
9, 61684, Note_off_c, 9, 54, 64
9, 61684, Note_off_c, 9, 42, 64
9, 61800, Note_on_c, 9, 54, 74
9, 61804, Note_off_c, 9, 54, 64
9, 61920, Note_on_c, 9, 38, 122
9, 61924, Note_off_c, 9, 38, 64
9, 61924, Note_on_c, 9, 42, 127
9, 61924, Note_on_c, 9, 54, 106
9, 61928, Note_off_c, 9, 54, 64
9, 61928, Note_off_c, 9, 42, 64
9, 62040, Note_on_c, 9, 54, 74
9, 62044, Note_off_c, 9, 54, 64
9, 62160, Note_on_c, 9, 42, 106
9, 62160, Note_on_c, 9, 54, 127
9, 62164, Note_off_c, 9, 54, 64
9, 62164, Note_off_c, 9, 42, 64
9, 62280, Note_on_c, 9, 54, 74
9, 62284, Note_off_c, 9, 54, 64
9, 62400, Note_on_c, 9, 36, 122
9, 62404, Note_off_c, 9, 36, 64
9, 62404, Note_on_c, 9, 42, 127
9, 62404, Note_on_c, 9, 54, 106
9, 62408, Note_off_c, 9, 54, 64
9, 62408, Note_off_c, 9, 42, 64
9, 62520, Note_on_c, 9, 54, 74
9, 62524, Note_off_c, 9, 54, 64
9, 62640, Note_on_c, 9, 42, 106
9, 62640, Note_on_c, 9, 54, 127
9, 62644, Note_off_c, 9, 54, 64
9, 62644, Note_off_c, 9, 42, 64
9, 62760, Note_on_c, 9, 54, 74
9, 62764, Note_off_c, 9, 54, 64
9, 62880, Note_on_c, 9, 38, 122
9, 62884, Note_off_c, 9, 38, 64
9, 62884, Note_on_c, 9, 42, 127
9, 62884, Note_on_c, 9, 46, 127
9, 62884, Note_on_c, 9, 54, 106
9, 62888, Note_off_c, 9, 54, 64
9, 62888, Note_off_c, 9, 46, 64
9, 62888, Note_off_c, 9, 42, 64
9, 63000, Note_on_c, 9, 54, 74
9, 63004, Note_off_c, 9, 54, 64
9, 63120, Note_on_c, 9, 42, 106
9, 63120, Note_on_c, 9, 54, 127
9, 63124, Note_off_c, 9, 54, 64
9, 63124, Note_off_c, 9, 42, 64
9, 63240, Note_on_c, 9, 54, 74
9, 63244, Note_off_c, 9, 54, 64
9, 63364, Note_on_c, 9, 36, 122
9, 63364, Note_on_c, 9, 42, 127
9, 63364, Note_on_c, 9, 54, 106
9, 63368, Note_off_c, 9, 54, 64
9, 63368, Note_off_c, 9, 42, 64
9, 63368, Note_off_c, 9, 36, 64
9, 63480, Note_on_c, 9, 54, 74
9, 63484, Note_off_c, 9, 54, 64
9, 63600, Note_on_c, 9, 42, 106
9, 63600, Note_on_c, 9, 54, 127
9, 63604, Note_off_c, 9, 54, 64
9, 63604, Note_off_c, 9, 42, 64
9, 63720, Note_on_c, 9, 54, 74
9, 63724, Note_off_c, 9, 54, 64
9, 63840, Note_on_c, 9, 38, 122
9, 63844, Note_off_c, 9, 38, 64
9, 63844, Note_on_c, 9, 42, 127
9, 63844, Note_on_c, 9, 54, 106
9, 63848, Note_off_c, 9, 54, 64
9, 63848, Note_off_c, 9, 42, 64
9, 63960, Note_on_c, 9, 54, 74
9, 63964, Note_off_c, 9, 54, 64
9, 64080, Note_on_c, 9, 42, 106
9, 64080, Note_on_c, 9, 54, 127
9, 64084, Note_off_c, 9, 54, 64
9, 64084, Note_off_c, 9, 42, 64
9, 64200, Note_on_c, 9, 54, 74
9, 64204, Note_off_c, 9, 54, 64
9, 64320, Note_on_c, 9, 36, 122
9, 64324, Note_off_c, 9, 36, 64
9, 64324, Note_on_c, 9, 42, 127
9, 64324, Note_on_c, 9, 54, 106
9, 64328, Note_off_c, 9, 54, 64
9, 64328, Note_off_c, 9, 42, 64
9, 64440, Note_on_c, 9, 54, 74
9, 64444, Note_off_c, 9, 54, 64
9, 64560, Note_on_c, 9, 42, 106
9, 64560, Note_on_c, 9, 54, 127
9, 64564, Note_off_c, 9, 54, 64
9, 64564, Note_off_c, 9, 42, 64
9, 64680, Note_on_c, 9, 54, 74
9, 64684, Note_off_c, 9, 54, 64
9, 64800, Note_on_c, 9, 38, 122
9, 64804, Note_off_c, 9, 38, 64
9, 64804, Note_on_c, 9, 42, 127
9, 64804, Note_on_c, 9, 54, 106
9, 64808, Note_off_c, 9, 54, 64
9, 64808, Note_off_c, 9, 42, 64
9, 64920, Note_on_c, 9, 54, 74
9, 64924, Note_off_c, 9, 54, 64
9, 65040, Note_on_c, 9, 42, 106
9, 65040, Note_on_c, 9, 54, 127
9, 65044, Note_off_c, 9, 54, 64
9, 65044, Note_off_c, 9, 42, 64
9, 65160, Note_on_c, 9, 54, 74
9, 65164, Note_off_c, 9, 54, 64
9, 65280, Note_on_c, 9, 36, 122
9, 65284, Note_off_c, 9, 36, 64
9, 65284, Note_on_c, 9, 42, 127
9, 65284, Note_on_c, 9, 54, 106
9, 65288, Note_off_c, 9, 54, 64
9, 65288, Note_off_c, 9, 42, 64
9, 65400, Note_on_c, 9, 54, 74
9, 65404, Note_off_c, 9, 54, 64
9, 65520, Note_on_c, 9, 42, 106
9, 65520, Note_on_c, 9, 54, 127
9, 65524, Note_off_c, 9, 54, 64
9, 65524, Note_off_c, 9, 42, 64
9, 65640, Note_on_c, 9, 54, 74
9, 65644, Note_off_c, 9, 54, 64
9, 65760, Note_on_c, 9, 38, 122
9, 65760, Note_on_c, 9, 42, 127
9, 65764, Note_off_c, 9, 42, 64
9, 65764, Note_off_c, 9, 38, 64
9, 65764, Note_on_c, 9, 54, 106
9, 65768, Note_off_c, 9, 54, 64
9, 65880, Note_on_c, 9, 54, 74
9, 65884, Note_off_c, 9, 54, 64
9, 66000, Note_on_c, 9, 42, 106
9, 66000, Note_on_c, 9, 54, 127
9, 66004, Note_off_c, 9, 54, 64
9, 66004, Note_off_c, 9, 42, 64
9, 66120, Note_on_c, 9, 54, 74
9, 66124, Note_off_c, 9, 54, 64
9, 66240, Note_on_c, 9, 36, 122
9, 66244, Note_off_c, 9, 36, 64
9, 66244, Note_on_c, 9, 42, 127
9, 66244, Note_on_c, 9, 54, 106
9, 66248, Note_off_c, 9, 54, 64
9, 66248, Note_off_c, 9, 42, 64
9, 66360, Note_on_c, 9, 54, 74
9, 66364, Note_off_c, 9, 54, 64
9, 66480, Note_on_c, 9, 42, 106
9, 66480, Note_on_c, 9, 54, 127
9, 66484, Note_off_c, 9, 54, 64
9, 66484, Note_off_c, 9, 42, 64
9, 66600, Note_on_c, 9, 54, 74
9, 66604, Note_off_c, 9, 54, 64
9, 66720, Note_on_c, 9, 38, 122
9, 66724, Note_off_c, 9, 38, 64
9, 66724, Note_on_c, 9, 42, 127
9, 66724, Note_on_c, 9, 46, 122
9, 66724, Note_on_c, 9, 54, 106
9, 66728, Note_off_c, 9, 54, 64
9, 66728, Note_off_c, 9, 46, 64
9, 66728, Note_off_c, 9, 42, 64
9, 66840, Note_on_c, 9, 54, 74
9, 66844, Note_off_c, 9, 54, 64
9, 66960, Note_on_c, 9, 42, 106
9, 66960, Note_on_c, 9, 54, 127
9, 66964, Note_off_c, 9, 54, 64
9, 66964, Note_off_c, 9, 42, 64
9, 67080, Note_on_c, 9, 54, 74
9, 67084, Note_off_c, 9, 54, 64
9, 67200, Note_on_c, 9, 36, 122
9, 67204, Note_off_c, 9, 36, 64
9, 67204, Note_on_c, 9, 42, 127
9, 67204, Note_on_c, 9, 54, 106
9, 67208, Note_off_c, 9, 54, 64
9, 67208, Note_off_c, 9, 42, 64
9, 67320, Note_on_c, 9, 54, 74
9, 67324, Note_off_c, 9, 54, 64
9, 67440, Note_on_c, 9, 42, 106
9, 67440, Note_on_c, 9, 54, 127
9, 67444, Note_off_c, 9, 54, 64
9, 67444, Note_off_c, 9, 42, 64
9, 67560, Note_on_c, 9, 54, 74
9, 67564, Note_off_c, 9, 54, 64
9, 67680, Note_on_c, 9, 38, 122
9, 67684, Note_off_c, 9, 38, 64
9, 67684, Note_on_c, 9, 42, 127
9, 67684, Note_on_c, 9, 54, 106
9, 67688, Note_off_c, 9, 54, 64
9, 67688, Note_off_c, 9, 42, 64
9, 67800, Note_on_c, 9, 54, 74
9, 67804, Note_off_c, 9, 54, 64
9, 67920, Note_on_c, 9, 42, 106
9, 67920, Note_on_c, 9, 54, 127
9, 67924, Note_off_c, 9, 54, 64
9, 67924, Note_off_c, 9, 42, 64
9, 68040, Note_on_c, 9, 54, 74
9, 68044, Note_off_c, 9, 54, 64
9, 68160, Note_on_c, 9, 36, 122
9, 68164, Note_off_c, 9, 36, 64
9, 68164, Note_on_c, 9, 42, 127
9, 68164, Note_on_c, 9, 54, 106
9, 68168, Note_off_c, 9, 54, 64
9, 68168, Note_off_c, 9, 42, 64
9, 68280, Note_on_c, 9, 54, 74
9, 68284, Note_off_c, 9, 54, 64
9, 68400, Note_on_c, 9, 42, 106
9, 68400, Note_on_c, 9, 54, 127
9, 68404, Note_off_c, 9, 54, 64
9, 68404, Note_off_c, 9, 42, 64
9, 68520, Note_on_c, 9, 54, 74
9, 68524, Note_off_c, 9, 54, 64
9, 68640, Note_on_c, 9, 38, 122
9, 68644, Note_off_c, 9, 38, 64
9, 68644, Note_on_c, 9, 42, 127
9, 68644, Note_on_c, 9, 54, 106
9, 68648, Note_off_c, 9, 54, 64
9, 68648, Note_off_c, 9, 42, 64
9, 68760, Note_on_c, 9, 54, 74
9, 68764, Note_off_c, 9, 54, 64
9, 68880, Note_on_c, 9, 42, 106
9, 68880, Note_on_c, 9, 54, 127
9, 68884, Note_off_c, 9, 54, 64
9, 68884, Note_off_c, 9, 42, 64
9, 69000, Note_on_c, 9, 54, 74
9, 69004, Note_off_c, 9, 54, 64
9, 69120, Note_on_c, 9, 36, 122
9, 69124, Note_off_c, 9, 36, 64
9, 69124, Note_on_c, 9, 42, 127
9, 69124, Note_on_c, 9, 54, 106
9, 69128, Note_off_c, 9, 54, 64
9, 69128, Note_off_c, 9, 42, 64
9, 69240, Note_on_c, 9, 54, 74
9, 69244, Note_off_c, 9, 54, 64
9, 69360, Note_on_c, 9, 42, 106
9, 69360, Note_on_c, 9, 54, 127
9, 69364, Note_off_c, 9, 54, 64
9, 69364, Note_off_c, 9, 42, 64
9, 69480, Note_on_c, 9, 54, 74
9, 69484, Note_off_c, 9, 54, 64
9, 69600, Note_on_c, 9, 38, 122
9, 69604, Note_off_c, 9, 38, 64
9, 69604, Note_on_c, 9, 42, 127
9, 69604, Note_on_c, 9, 54, 106
9, 69608, Note_off_c, 9, 54, 64
9, 69608, Note_off_c, 9, 42, 64
9, 69720, Note_on_c, 9, 54, 74
9, 69724, Note_off_c, 9, 54, 64
9, 69840, Note_on_c, 9, 42, 106
9, 69840, Note_on_c, 9, 54, 127
9, 69844, Note_off_c, 9, 54, 64
9, 69844, Note_off_c, 9, 42, 64
9, 69960, Note_on_c, 9, 54, 74
9, 69964, Note_off_c, 9, 54, 64
9, 70080, Note_on_c, 9, 36, 122
9, 70084, Note_off_c, 9, 36, 64
9, 70084, Note_on_c, 9, 42, 127
9, 70084, Note_on_c, 9, 54, 106
9, 70088, Note_off_c, 9, 54, 64
9, 70088, Note_off_c, 9, 42, 64
9, 70200, Note_on_c, 9, 54, 74
9, 70204, Note_off_c, 9, 54, 64
9, 70320, Note_on_c, 9, 42, 106
9, 70320, Note_on_c, 9, 54, 127
9, 70324, Note_off_c, 9, 54, 64
9, 70324, Note_off_c, 9, 42, 64
9, 70440, Note_on_c, 9, 54, 74
9, 70444, Note_off_c, 9, 54, 64
9, 70560, Note_on_c, 9, 38, 122
9, 70564, Note_off_c, 9, 38, 64
9, 70564, Note_on_c, 9, 42, 127
9, 70564, Note_on_c, 9, 46, 122
9, 70564, Note_on_c, 9, 54, 106
9, 70568, Note_off_c, 9, 54, 64
9, 70568, Note_off_c, 9, 46, 64
9, 70568, Note_off_c, 9, 42, 64
9, 70680, Note_on_c, 9, 54, 74
9, 70684, Note_off_c, 9, 54, 64
9, 70800, Note_on_c, 9, 42, 106
9, 70800, Note_on_c, 9, 54, 127
9, 70804, Note_off_c, 9, 54, 64
9, 70804, Note_off_c, 9, 42, 64
9, 70920, Note_on_c, 9, 54, 74
9, 70924, Note_off_c, 9, 54, 64
9, 71044, Note_on_c, 9, 36, 122
9, 71044, Note_on_c, 9, 42, 127
9, 71044, Note_on_c, 9, 54, 106
9, 71048, Note_off_c, 9, 54, 64
9, 71048, Note_off_c, 9, 42, 64
9, 71048, Note_off_c, 9, 36, 64
9, 71160, Note_on_c, 9, 54, 74
9, 71164, Note_off_c, 9, 54, 64
9, 71280, Note_on_c, 9, 42, 106
9, 71280, Note_on_c, 9, 54, 127
9, 71284, Note_off_c, 9, 54, 64
9, 71284, Note_off_c, 9, 42, 64
9, 71400, Note_on_c, 9, 54, 74
9, 71404, Note_off_c, 9, 54, 64
9, 71520, Note_on_c, 9, 38, 122
9, 71524, Note_off_c, 9, 38, 64
9, 71524, Note_on_c, 9, 42, 127
9, 71524, Note_on_c, 9, 54, 106
9, 71528, Note_off_c, 9, 54, 64
9, 71528, Note_off_c, 9, 42, 64
9, 71640, Note_on_c, 9, 54, 74
9, 71644, Note_off_c, 9, 54, 64
9, 71760, Note_on_c, 9, 42, 106
9, 71760, Note_on_c, 9, 54, 127
9, 71764, Note_off_c, 9, 54, 64
9, 71764, Note_off_c, 9, 42, 64
9, 71880, Note_on_c, 9, 54, 74
9, 71884, Note_off_c, 9, 54, 64
9, 72000, Note_on_c, 9, 36, 122
9, 72004, Note_off_c, 9, 36, 64
9, 72004, Note_on_c, 9, 42, 127
9, 72004, Note_on_c, 9, 54, 106
9, 72008, Note_off_c, 9, 54, 64
9, 72008, Note_off_c, 9, 42, 64
9, 72120, Note_on_c, 9, 54, 74
9, 72124, Note_off_c, 9, 54, 64
9, 72240, Note_on_c, 9, 42, 106
9, 72240, Note_on_c, 9, 54, 127
9, 72244, Note_off_c, 9, 54, 64
9, 72244, Note_off_c, 9, 42, 64
9, 72360, Note_on_c, 9, 54, 74
9, 72364, Note_off_c, 9, 54, 64
9, 72480, Note_on_c, 9, 38, 122
9, 72484, Note_off_c, 9, 38, 64
9, 72484, Note_on_c, 9, 42, 127
9, 72484, Note_on_c, 9, 54, 106
9, 72488, Note_off_c, 9, 54, 64
9, 72488, Note_off_c, 9, 42, 64
9, 72600, Note_on_c, 9, 54, 74
9, 72604, Note_off_c, 9, 54, 64
9, 72720, Note_on_c, 9, 42, 106
9, 72720, Note_on_c, 9, 54, 127
9, 72724, Note_off_c, 9, 54, 64
9, 72724, Note_off_c, 9, 42, 64
9, 72840, Note_on_c, 9, 54, 74
9, 72844, Note_off_c, 9, 54, 64
9, 72960, Note_on_c, 9, 36, 122
9, 72964, Note_off_c, 9, 36, 64
9, 72964, Note_on_c, 9, 42, 127
9, 72964, Note_on_c, 9, 54, 106
9, 72968, Note_off_c, 9, 54, 64
9, 72968, Note_off_c, 9, 42, 64
9, 73080, Note_on_c, 9, 54, 74
9, 73084, Note_off_c, 9, 54, 64
9, 73200, Note_on_c, 9, 42, 106
9, 73200, Note_on_c, 9, 54, 127
9, 73204, Note_off_c, 9, 54, 64
9, 73204, Note_off_c, 9, 42, 64
9, 73320, Note_on_c, 9, 54, 74
9, 73324, Note_off_c, 9, 54, 64
9, 73440, Note_on_c, 9, 38, 122
9, 73440, Note_on_c, 9, 42, 127
9, 73444, Note_off_c, 9, 42, 64
9, 73444, Note_off_c, 9, 38, 64
9, 73444, Note_on_c, 9, 54, 106
9, 73448, Note_off_c, 9, 54, 64
9, 73560, Note_on_c, 9, 54, 74
9, 73564, Note_off_c, 9, 54, 64
9, 73680, Note_on_c, 9, 42, 106
9, 73680, Note_on_c, 9, 54, 127
9, 73684, Note_off_c, 9, 54, 64
9, 73684, Note_off_c, 9, 42, 64
9, 73800, Note_on_c, 9, 54, 74
9, 73804, Note_off_c, 9, 54, 64
9, 73920, Note_on_c, 9, 36, 122
9, 73924, Note_off_c, 9, 36, 64
9, 73924, Note_on_c, 9, 42, 127
9, 73924, Note_on_c, 9, 54, 106
9, 73928, Note_off_c, 9, 54, 64
9, 73928, Note_off_c, 9, 42, 64
9, 74040, Note_on_c, 9, 54, 74
9, 74044, Note_off_c, 9, 54, 64
9, 74160, Note_on_c, 9, 42, 106
9, 74160, Note_on_c, 9, 54, 127
9, 74164, Note_off_c, 9, 54, 64
9, 74164, Note_off_c, 9, 42, 64
9, 74280, Note_on_c, 9, 54, 74
9, 74284, Note_off_c, 9, 54, 64
9, 74400, Note_on_c, 9, 38, 122
9, 74404, Note_off_c, 9, 38, 64
9, 74404, Note_on_c, 9, 42, 127
9, 74404, Note_on_c, 9, 46, 122
9, 74404, Note_on_c, 9, 54, 106
9, 74408, Note_off_c, 9, 54, 64
9, 74408, Note_off_c, 9, 46, 64
9, 74408, Note_off_c, 9, 42, 64
9, 74520, Note_on_c, 9, 54, 74
9, 74524, Note_off_c, 9, 54, 64
9, 74640, Note_on_c, 9, 42, 106
9, 74640, Note_on_c, 9, 54, 127
9, 74644, Note_off_c, 9, 54, 64
9, 74644, Note_off_c, 9, 42, 64
9, 74760, Note_on_c, 9, 54, 74
9, 74764, Note_off_c, 9, 54, 64
9, 74880, Note_on_c, 9, 36, 122
9, 74884, Note_off_c, 9, 36, 64
9, 74884, Note_on_c, 9, 42, 127
9, 74884, Note_on_c, 9, 54, 106
9, 74888, Note_off_c, 9, 54, 64
9, 74888, Note_off_c, 9, 42, 64
9, 75000, Note_on_c, 9, 54, 74
9, 75004, Note_off_c, 9, 54, 64
9, 75120, Note_on_c, 9, 42, 106
9, 75120, Note_on_c, 9, 54, 127
9, 75124, Note_off_c, 9, 54, 64
9, 75124, Note_off_c, 9, 42, 64
9, 75240, Note_on_c, 9, 54, 74
9, 75244, Note_off_c, 9, 54, 64
9, 75360, Note_on_c, 9, 38, 122
9, 75364, Note_off_c, 9, 38, 64
9, 75364, Note_on_c, 9, 42, 127
9, 75364, Note_on_c, 9, 54, 106
9, 75368, Note_off_c, 9, 54, 64
9, 75368, Note_off_c, 9, 42, 64
9, 75480, Note_on_c, 9, 54, 74
9, 75484, Note_off_c, 9, 54, 64
9, 75600, Note_on_c, 9, 42, 106
9, 75600, Note_on_c, 9, 54, 127
9, 75604, Note_off_c, 9, 54, 64
9, 75604, Note_off_c, 9, 42, 64
9, 75720, Note_on_c, 9, 54, 74
9, 75724, Note_off_c, 9, 54, 64
9, 75840, Note_on_c, 9, 36, 122
9, 75844, Note_off_c, 9, 36, 64
9, 75844, Note_on_c, 9, 42, 127
9, 75844, Note_on_c, 9, 54, 106
9, 75848, Note_off_c, 9, 54, 64
9, 75848, Note_off_c, 9, 42, 64
9, 75960, Note_on_c, 9, 54, 74
9, 75964, Note_off_c, 9, 54, 64
9, 76080, Note_on_c, 9, 42, 106
9, 76080, Note_on_c, 9, 54, 127
9, 76084, Note_off_c, 9, 54, 64
9, 76084, Note_off_c, 9, 42, 64
9, 76200, Note_on_c, 9, 54, 74
9, 76204, Note_off_c, 9, 54, 64
9, 76320, Note_on_c, 9, 38, 122
9, 76324, Note_off_c, 9, 38, 64
9, 76324, Note_on_c, 9, 42, 127
9, 76324, Note_on_c, 9, 54, 106
9, 76328, Note_off_c, 9, 54, 64
9, 76328, Note_off_c, 9, 42, 64
9, 76440, Note_on_c, 9, 54, 74
9, 76444, Note_off_c, 9, 54, 64
9, 76560, Note_on_c, 9, 42, 106
9, 76560, Note_on_c, 9, 54, 127
9, 76564, Note_off_c, 9, 54, 64
9, 76564, Note_off_c, 9, 42, 64
9, 76680, Note_on_c, 9, 54, 74
9, 76684, Note_off_c, 9, 54, 64
9, 76800, Note_on_c, 9, 36, 122
9, 76804, Note_off_c, 9, 36, 64
9, 76804, Note_on_c, 9, 42, 127
9, 76804, Note_on_c, 9, 54, 106
9, 76808, Note_off_c, 9, 54, 64
9, 76808, Note_off_c, 9, 42, 64
9, 76920, Note_on_c, 9, 54, 74
9, 76924, Note_off_c, 9, 54, 64
9, 77040, Note_on_c, 9, 42, 106
9, 77040, Note_on_c, 9, 54, 127
9, 77044, Note_off_c, 9, 54, 64
9, 77044, Note_off_c, 9, 42, 64
9, 77160, Note_on_c, 9, 54, 74
9, 77164, Note_off_c, 9, 54, 64
9, 77280, Note_on_c, 9, 38, 122
9, 77284, Note_off_c, 9, 38, 64
9, 77284, Note_on_c, 9, 42, 127
9, 77284, Note_on_c, 9, 54, 106
9, 77288, Note_off_c, 9, 54, 64
9, 77288, Note_off_c, 9, 42, 64
9, 77400, Note_on_c, 9, 54, 74
9, 77404, Note_off_c, 9, 54, 64
9, 77520, Note_on_c, 9, 42, 106
9, 77520, Note_on_c, 9, 54, 127
9, 77524, Note_off_c, 9, 54, 64
9, 77524, Note_off_c, 9, 42, 64
9, 77640, Note_on_c, 9, 54, 74
9, 77644, Note_off_c, 9, 54, 64
9, 77760, Note_on_c, 9, 36, 122
9, 77764, Note_off_c, 9, 36, 64
9, 77764, Note_on_c, 9, 42, 127
9, 77764, Note_on_c, 9, 54, 106
9, 77768, Note_off_c, 9, 54, 64
9, 77768, Note_off_c, 9, 42, 64
9, 77880, Note_on_c, 9, 54, 74
9, 77884, Note_off_c, 9, 54, 64
9, 78000, Note_on_c, 9, 42, 106
9, 78000, Note_on_c, 9, 54, 127
9, 78004, Note_off_c, 9, 54, 64
9, 78004, Note_off_c, 9, 42, 64
9, 78120, Note_on_c, 9, 54, 74
9, 78124, Note_off_c, 9, 54, 64
9, 78240, Note_on_c, 9, 38, 122
9, 78244, Note_off_c, 9, 38, 64
9, 78244, Note_on_c, 9, 42, 127
9, 78244, Note_on_c, 9, 46, 122
9, 78244, Note_on_c, 9, 54, 106
9, 78248, Note_off_c, 9, 54, 64
9, 78248, Note_off_c, 9, 46, 64
9, 78248, Note_off_c, 9, 42, 64
9, 78360, Note_on_c, 9, 54, 74
9, 78364, Note_off_c, 9, 54, 64
9, 78480, Note_on_c, 9, 42, 106
9, 78480, Note_on_c, 9, 54, 127
9, 78484, Note_off_c, 9, 54, 64
9, 78484, Note_off_c, 9, 42, 64
9, 78600, Note_on_c, 9, 54, 74
9, 78604, Note_off_c, 9, 54, 64
9, 78720, Note_on_c, 9, 36, 122
9, 78724, Note_off_c, 9, 36, 64
9, 78724, Note_on_c, 9, 42, 127
9, 78724, Note_on_c, 9, 54, 106
9, 78728, Note_off_c, 9, 54, 64
9, 78728, Note_off_c, 9, 42, 64
9, 78840, Note_on_c, 9, 54, 74
9, 78844, Note_off_c, 9, 54, 64
9, 78960, Note_on_c, 9, 42, 106
9, 78960, Note_on_c, 9, 54, 127
9, 78964, Note_off_c, 9, 54, 64
9, 78964, Note_off_c, 9, 42, 64
9, 79080, Note_on_c, 9, 54, 74
9, 79084, Note_off_c, 9, 54, 64
9, 79200, Note_on_c, 9, 38, 122
9, 79204, Note_off_c, 9, 38, 64
9, 79204, Note_on_c, 9, 42, 127
9, 79204, Note_on_c, 9, 54, 106
9, 79208, Note_off_c, 9, 54, 64
9, 79208, Note_off_c, 9, 42, 64
9, 79320, Note_on_c, 9, 54, 74
9, 79324, Note_off_c, 9, 54, 64
9, 79440, Note_on_c, 9, 42, 106
9, 79440, Note_on_c, 9, 54, 127
9, 79444, Note_off_c, 9, 54, 64
9, 79444, Note_off_c, 9, 42, 64
9, 79560, Note_on_c, 9, 54, 74
9, 79564, Note_off_c, 9, 54, 64
9, 79680, Note_on_c, 9, 36, 122
9, 79684, Note_off_c, 9, 36, 64
9, 79684, Note_on_c, 9, 42, 127
9, 79684, Note_on_c, 9, 54, 106
9, 79688, Note_off_c, 9, 54, 64
9, 79688, Note_off_c, 9, 42, 64
9, 79800, Note_on_c, 9, 54, 74
9, 79804, Note_off_c, 9, 54, 64
9, 79920, Note_on_c, 9, 42, 106
9, 79920, Note_on_c, 9, 54, 127
9, 79924, Note_off_c, 9, 54, 64
9, 79924, Note_off_c, 9, 42, 64
9, 80040, Note_on_c, 9, 54, 74
9, 80044, Note_off_c, 9, 54, 64
9, 80160, Note_on_c, 9, 38, 122
9, 80164, Note_off_c, 9, 38, 64
9, 80164, Note_on_c, 9, 42, 127
9, 80164, Note_on_c, 9, 54, 106
9, 80168, Note_off_c, 9, 54, 64
9, 80168, Note_off_c, 9, 42, 64
9, 80280, Note_on_c, 9, 54, 74
9, 80284, Note_off_c, 9, 54, 64
9, 80400, Note_on_c, 9, 42, 106
9, 80400, Note_on_c, 9, 54, 127
9, 80404, Note_off_c, 9, 54, 64
9, 80404, Note_off_c, 9, 42, 64
9, 80520, Note_on_c, 9, 54, 74
9, 80524, Note_off_c, 9, 54, 64
9, 80640, Note_on_c, 9, 36, 122
9, 80644, Note_off_c, 9, 36, 64
9, 80644, Note_on_c, 9, 42, 127
9, 80644, Note_on_c, 9, 46, 122
9, 80644, Note_on_c, 9, 54, 106
9, 80648, Note_off_c, 9, 54, 64
9, 80648, Note_off_c, 9, 46, 64
9, 80648, Note_off_c, 9, 42, 64
9, 80760, Note_on_c, 9, 54, 74
9, 80764, Note_off_c, 9, 54, 64
9, 80880, Note_on_c, 9, 42, 106
9, 80880, Note_on_c, 9, 54, 127
9, 80884, Note_off_c, 9, 54, 64
9, 80884, Note_off_c, 9, 42, 64
9, 81000, Note_on_c, 9, 54, 74
9, 81004, Note_off_c, 9, 54, 64
9, 81120, Note_on_c, 9, 38, 122
9, 81124, Note_off_c, 9, 38, 64
9, 81124, Note_on_c, 9, 42, 127
9, 81124, Note_on_c, 9, 54, 106
9, 81128, Note_off_c, 9, 54, 64
9, 81128, Note_off_c, 9, 42, 64
9, 81240, Note_on_c, 9, 54, 74
9, 81244, Note_off_c, 9, 54, 64
9, 81360, Note_on_c, 9, 36, 122
9, 81360, Note_on_c, 9, 42, 106
9, 81364, Note_off_c, 9, 42, 64
9, 81364, Note_off_c, 9, 36, 64
9, 81364, Note_on_c, 9, 46, 122
9, 81364, Note_on_c, 9, 54, 127
9, 81368, Note_off_c, 9, 54, 64
9, 81368, Note_off_c, 9, 46, 64
9, 81480, Note_on_c, 9, 54, 74
9, 81484, Note_off_c, 9, 54, 64
9, 81600, Note_on_c, 9, 42, 127
9, 81604, Note_off_c, 9, 42, 64
9, 81604, Note_on_c, 9, 54, 106
9, 81608, Note_off_c, 9, 54, 64
9, 81720, Note_on_c, 9, 54, 74
9, 81724, Note_off_c, 9, 54, 64
9, 81840, Note_on_c, 9, 38, 122
9, 81840, Note_on_c, 9, 42, 106
9, 81844, Note_off_c, 9, 42, 64
9, 81844, Note_off_c, 9, 38, 64
9, 81844, Note_on_c, 9, 54, 127
9, 81848, Note_off_c, 9, 54, 64
9, 81960, Note_on_c, 9, 54, 74
9, 81964, Note_off_c, 9, 54, 64
9, 82080, Note_on_c, 9, 38, 122
9, 82084, Note_off_c, 9, 38, 64
9, 82084, Note_on_c, 9, 42, 127
9, 82084, Note_on_c, 9, 54, 106
9, 82088, Note_off_c, 9, 54, 64
9, 82088, Note_off_c, 9, 42, 64
9, 82200, Note_on_c, 9, 54, 74
9, 82204, Note_off_c, 9, 54, 64
9, 82320, Note_on_c, 9, 36, 122
9, 82320, Note_on_c, 9, 42, 106
9, 82320, Note_on_c, 9, 46, 122
9, 82324, Note_off_c, 9, 46, 64
9, 82324, Note_off_c, 9, 42, 64
9, 82324, Note_off_c, 9, 36, 64
9, 82324, Note_on_c, 9, 54, 127
9, 82328, Note_off_c, 9, 54, 64
9, 82440, Note_on_c, 9, 54, 74
9, 82444, Note_off_c, 9, 54, 64
9, 82564, Note_on_c, 9, 36, 122
9, 82564, Note_on_c, 9, 42, 127
9, 82564, Note_on_c, 9, 54, 90
9, 82568, Note_off_c, 9, 54, 64
9, 82568, Note_off_c, 9, 42, 64
9, 82568, Note_off_c, 9, 36, 64
9, 82680, Note_on_c, 9, 54, 58
9, 82684, Note_off_c, 9, 54, 64
9, 82800, Note_on_c, 9, 42, 106
9, 82800, Note_on_c, 9, 54, 90
9, 82804, Note_off_c, 9, 54, 64
9, 82804, Note_off_c, 9, 42, 64
9, 82920, Note_on_c, 9, 54, 58
9, 82924, Note_off_c, 9, 54, 64
9, 83040, Note_on_c, 9, 38, 122
9, 83044, Note_off_c, 9, 38, 64
9, 83044, Note_on_c, 9, 42, 127
9, 83044, Note_on_c, 9, 46, 122
9, 83044, Note_on_c, 9, 54, 127
9, 83048, Note_off_c, 9, 54, 64
9, 83048, Note_off_c, 9, 46, 64
9, 83048, Note_off_c, 9, 42, 64
9, 83280, Note_on_c, 9, 42, 106
9, 83284, Note_off_c, 9, 42, 64
9, 83520, Note_on_c, 9, 38, 122
9, 83524, Note_off_c, 9, 38, 64
9, 83524, Note_on_c, 9, 42, 127
9, 83528, Note_off_c, 9, 42, 64
9, 83760, Note_on_c, 9, 42, 106
9, 83764, Note_off_c, 9, 42, 64
9, 83880, Note_on_c, 9, 38, 122
9, 83884, Note_off_c, 9, 38, 64
9, 84000, Note_on_c, 9, 38, 122
9, 84004, Note_off_c, 9, 38, 64
9, 84004, Note_on_c, 9, 42, 127
9, 84004, Note_on_c, 9, 54, 122
9, 84008, Note_off_c, 9, 54, 64
9, 84008, Note_off_c, 9, 42, 64
9, 84060, Note_on_c, 9, 54, 122
9, 84064, Note_off_c, 9, 54, 64
9, 84120, Note_on_c, 9, 54, 122
9, 84124, Note_off_c, 9, 54, 64
9, 84180, Note_on_c, 9, 54, 122
9, 84184, Note_off_c, 9, 54, 64
9, 84240, Note_on_c, 9, 42, 106
9, 84240, Note_on_c, 9, 41, 106
9, 84244, Note_off_c, 9, 41, 64
9, 84244, Note_off_c, 9, 42, 64
9, 84244, Note_on_c, 9, 54, 122
9, 84248, Note_off_c, 9, 54, 64
9, 84480, Note_on_c, 9, 36, 122
9, 84484, Note_off_c, 9, 36, 64
9, 84484, Note_on_c, 9, 42, 122
9, 84484, Note_on_c, 9, 49, 127
9, 84488, Note_off_c, 9, 49, 64
9, 84488, Note_off_c, 9, 42, 64
9, 84720, Note_on_c, 9, 42, 90
9, 84724, Note_off_c, 9, 42, 64
9, 84840, Note_on_c, 9, 54, 42
9, 84844, Note_off_c, 9, 54, 64
9, 84900, Note_on_c, 9, 54, 58
9, 84904, Note_off_c, 9, 54, 64
9, 84960, Note_on_c, 9, 38, 122
9, 84964, Note_off_c, 9, 38, 64
9, 84964, Note_on_c, 9, 42, 122
9, 84964, Note_on_c, 9, 54, 127
9, 84968, Note_off_c, 9, 54, 64
9, 84968, Note_off_c, 9, 42, 64
9, 85200, Note_on_c, 9, 42, 90
9, 85204, Note_off_c, 9, 42, 64
9, 85440, Note_on_c, 9, 36, 122
9, 85444, Note_off_c, 9, 36, 64
9, 85444, Note_on_c, 9, 42, 122
9, 85448, Note_off_c, 9, 42, 64
9, 85680, Note_on_c, 9, 42, 90
9, 85684, Note_off_c, 9, 42, 64
9, 85800, Note_on_c, 9, 54, 42
9, 85804, Note_off_c, 9, 54, 64
9, 85860, Note_on_c, 9, 54, 58
9, 85864, Note_off_c, 9, 54, 64
9, 85920, Note_on_c, 9, 38, 122
9, 85924, Note_off_c, 9, 38, 64
9, 85924, Note_on_c, 9, 42, 122
9, 85924, Note_on_c, 9, 54, 127
9, 85928, Note_off_c, 9, 54, 64
9, 85928, Note_off_c, 9, 42, 64
9, 86160, Note_on_c, 9, 42, 90
9, 86164, Note_off_c, 9, 42, 64
9, 86400, Note_on_c, 9, 36, 122
9, 86404, Note_off_c, 9, 36, 64
9, 86404, Note_on_c, 9, 42, 122
9, 86408, Note_off_c, 9, 42, 64
9, 86640, Note_on_c, 9, 42, 90
9, 86644, Note_off_c, 9, 42, 64
9, 86760, Note_on_c, 9, 54, 42
9, 86764, Note_off_c, 9, 54, 64
9, 86820, Note_on_c, 9, 54, 58
9, 86824, Note_off_c, 9, 54, 64
9, 86880, Note_on_c, 9, 38, 122
9, 86884, Note_off_c, 9, 38, 64
9, 86884, Note_on_c, 9, 42, 122
9, 86884, Note_on_c, 9, 54, 127
9, 86888, Note_off_c, 9, 54, 64
9, 86888, Note_off_c, 9, 42, 64
9, 87120, Note_on_c, 9, 42, 90
9, 87124, Note_off_c, 9, 42, 64
9, 87360, Note_on_c, 9, 36, 122
9, 87364, Note_off_c, 9, 36, 64
9, 87364, Note_on_c, 9, 42, 122
9, 87368, Note_off_c, 9, 42, 64
9, 87600, Note_on_c, 9, 42, 90
9, 87604, Note_off_c, 9, 42, 64
9, 87720, Note_on_c, 9, 54, 42
9, 87724, Note_off_c, 9, 54, 64
9, 87780, Note_on_c, 9, 54, 58
9, 87784, Note_off_c, 9, 54, 64
9, 87840, Note_on_c, 9, 38, 122
9, 87844, Note_off_c, 9, 38, 64
9, 87844, Note_on_c, 9, 42, 122
9, 87844, Note_on_c, 9, 54, 127
9, 87848, Note_off_c, 9, 54, 64
9, 87848, Note_off_c, 9, 42, 64
9, 88080, Note_on_c, 9, 42, 90
9, 88084, Note_off_c, 9, 42, 64
9, 88320, Note_on_c, 9, 36, 122
9, 88324, Note_off_c, 9, 36, 64
9, 88324, Note_on_c, 9, 42, 122
9, 88328, Note_off_c, 9, 42, 64
9, 88560, Note_on_c, 9, 42, 90
9, 88564, Note_off_c, 9, 42, 64
9, 88680, Note_on_c, 9, 54, 42
9, 88684, Note_off_c, 9, 54, 64
9, 88740, Note_on_c, 9, 54, 58
9, 88744, Note_off_c, 9, 54, 64
9, 88800, Note_on_c, 9, 38, 122
9, 88804, Note_off_c, 9, 38, 64
9, 88804, Note_on_c, 9, 42, 122
9, 88804, Note_on_c, 9, 54, 127
9, 88808, Note_off_c, 9, 54, 64
9, 88808, Note_off_c, 9, 42, 64
9, 89040, Note_on_c, 9, 42, 90
9, 89044, Note_off_c, 9, 42, 64
9, 89280, Note_on_c, 9, 36, 122
9, 89284, Note_off_c, 9, 36, 64
9, 89284, Note_on_c, 9, 42, 122
9, 89288, Note_off_c, 9, 42, 64
9, 89520, Note_on_c, 9, 42, 90
9, 89524, Note_off_c, 9, 42, 64
9, 89640, Note_on_c, 9, 54, 42
9, 89644, Note_off_c, 9, 54, 64
9, 89700, Note_on_c, 9, 54, 58
9, 89704, Note_off_c, 9, 54, 64
9, 89760, Note_on_c, 9, 38, 122
9, 89764, Note_off_c, 9, 38, 64
9, 89764, Note_on_c, 9, 42, 122
9, 89764, Note_on_c, 9, 54, 127
9, 89768, Note_off_c, 9, 54, 64
9, 89768, Note_off_c, 9, 42, 64
9, 90000, Note_on_c, 9, 42, 90
9, 90004, Note_off_c, 9, 42, 64
9, 90240, Note_on_c, 9, 36, 122
9, 90244, Note_off_c, 9, 36, 64
9, 90244, Note_on_c, 9, 42, 122
9, 90248, Note_off_c, 9, 42, 64
9, 90480, Note_on_c, 9, 42, 90
9, 90484, Note_off_c, 9, 42, 64
9, 90600, Note_on_c, 9, 54, 42
9, 90604, Note_off_c, 9, 54, 64
9, 90660, Note_on_c, 9, 54, 58
9, 90664, Note_off_c, 9, 54, 64
9, 90720, Note_on_c, 9, 38, 122
9, 90724, Note_off_c, 9, 38, 64
9, 90724, Note_on_c, 9, 42, 122
9, 90724, Note_on_c, 9, 54, 127
9, 90728, Note_off_c, 9, 54, 64
9, 90728, Note_off_c, 9, 42, 64
9, 90960, Note_on_c, 9, 42, 90
9, 90964, Note_off_c, 9, 42, 64
9, 91200, Note_on_c, 9, 36, 122
9, 91204, Note_off_c, 9, 36, 64
9, 91204, Note_on_c, 9, 42, 122
9, 91208, Note_off_c, 9, 42, 64
9, 91440, Note_on_c, 9, 42, 90
9, 91444, Note_off_c, 9, 42, 64
9, 91560, Note_on_c, 9, 54, 42
9, 91564, Note_off_c, 9, 54, 64
9, 91620, Note_on_c, 9, 54, 58
9, 91624, Note_off_c, 9, 54, 64
9, 91680, Note_on_c, 9, 38, 122
9, 91684, Note_off_c, 9, 38, 64
9, 91684, Note_on_c, 9, 42, 122
9, 91684, Note_on_c, 9, 54, 127
9, 91688, Note_off_c, 9, 54, 64
9, 91688, Note_off_c, 9, 42, 64
9, 91920, Note_on_c, 9, 42, 90
9, 91924, Note_off_c, 9, 42, 64
9, 92160, Note_on_c, 9, 36, 122
9, 92164, Note_off_c, 9, 36, 64
9, 92164, Note_on_c, 9, 42, 122
9, 92168, Note_off_c, 9, 42, 64
9, 92400, Note_on_c, 9, 42, 90
9, 92404, Note_off_c, 9, 42, 64
9, 92520, Note_on_c, 9, 54, 42
9, 92524, Note_off_c, 9, 54, 64
9, 92580, Note_on_c, 9, 54, 58
9, 92584, Note_off_c, 9, 54, 64
9, 92640, Note_on_c, 9, 38, 122
9, 92644, Note_off_c, 9, 38, 64
9, 92644, Note_on_c, 9, 42, 122
9, 92644, Note_on_c, 9, 54, 127
9, 92648, Note_off_c, 9, 54, 64
9, 92648, Note_off_c, 9, 42, 64
9, 92880, Note_on_c, 9, 42, 90
9, 92884, Note_off_c, 9, 42, 64
9, 93120, Note_on_c, 9, 36, 122
9, 93124, Note_off_c, 9, 36, 64
9, 93124, Note_on_c, 9, 42, 122
9, 93128, Note_off_c, 9, 42, 64
9, 93360, Note_on_c, 9, 42, 90
9, 93364, Note_off_c, 9, 42, 64
9, 93480, Note_on_c, 9, 54, 42
9, 93484, Note_off_c, 9, 54, 64
9, 93540, Note_on_c, 9, 54, 58
9, 93544, Note_off_c, 9, 54, 64
9, 93600, Note_on_c, 9, 38, 122
9, 93604, Note_off_c, 9, 38, 64
9, 93604, Note_on_c, 9, 42, 122
9, 93604, Note_on_c, 9, 54, 127
9, 93608, Note_off_c, 9, 54, 64
9, 93608, Note_off_c, 9, 42, 64
9, 93840, Note_on_c, 9, 42, 90
9, 93844, Note_off_c, 9, 42, 64
9, 94080, Note_on_c, 9, 36, 122
9, 94084, Note_off_c, 9, 36, 64
9, 94084, Note_on_c, 9, 42, 122
9, 94088, Note_off_c, 9, 42, 64
9, 94320, Note_on_c, 9, 42, 90
9, 94324, Note_off_c, 9, 42, 64
9, 94440, Note_on_c, 9, 54, 42
9, 94444, Note_off_c, 9, 54, 64
9, 94500, Note_on_c, 9, 54, 58
9, 94504, Note_off_c, 9, 54, 64
9, 94560, Note_on_c, 9, 38, 122
9, 94564, Note_off_c, 9, 38, 64
9, 94564, Note_on_c, 9, 42, 122
9, 94564, Note_on_c, 9, 54, 127
9, 94568, Note_off_c, 9, 54, 64
9, 94568, Note_off_c, 9, 42, 64
9, 94800, Note_on_c, 9, 42, 90
9, 94804, Note_off_c, 9, 42, 64
9, 95040, Note_on_c, 9, 36, 122
9, 95044, Note_off_c, 9, 36, 64
9, 95044, Note_on_c, 9, 42, 122
9, 95048, Note_off_c, 9, 42, 64
9, 95280, Note_on_c, 9, 42, 90
9, 95284, Note_off_c, 9, 42, 64
9, 95400, Note_on_c, 9, 54, 42
9, 95404, Note_off_c, 9, 54, 64
9, 95460, Note_on_c, 9, 54, 58
9, 95464, Note_off_c, 9, 54, 64
9, 95520, Note_on_c, 9, 38, 122
9, 95520, Note_on_c, 9, 42, 122
9, 95524, Note_off_c, 9, 42, 64
9, 95524, Note_off_c, 9, 38, 64
9, 95524, Note_on_c, 9, 54, 127
9, 95528, Note_off_c, 9, 54, 64
9, 95760, Note_on_c, 9, 42, 90
9, 95764, Note_off_c, 9, 42, 64
9, 96004, Note_on_c, 9, 36, 122
9, 96004, Note_on_c, 9, 42, 122
9, 96008, Note_off_c, 9, 42, 64
9, 96008, Note_off_c, 9, 36, 64
9, 96240, Note_on_c, 9, 42, 90
9, 96244, Note_off_c, 9, 42, 64
9, 96360, Note_on_c, 9, 54, 42
9, 96364, Note_off_c, 9, 54, 64
9, 96420, Note_on_c, 9, 54, 58
9, 96424, Note_off_c, 9, 54, 64
9, 96480, Note_on_c, 9, 38, 122
9, 96484, Note_off_c, 9, 38, 64
9, 96484, Note_on_c, 9, 42, 122
9, 96484, Note_on_c, 9, 54, 127
9, 96488, Note_off_c, 9, 54, 64
9, 96488, Note_off_c, 9, 42, 64
9, 96720, Note_on_c, 9, 42, 90
9, 96724, Note_off_c, 9, 42, 64
9, 96960, Note_on_c, 9, 36, 122
9, 96964, Note_off_c, 9, 36, 64
9, 96964, Note_on_c, 9, 42, 122
9, 96968, Note_off_c, 9, 42, 64
9, 97200, Note_on_c, 9, 42, 90
9, 97204, Note_off_c, 9, 42, 64
9, 97320, Note_on_c, 9, 54, 42
9, 97324, Note_off_c, 9, 54, 64
9, 97380, Note_on_c, 9, 54, 58
9, 97384, Note_off_c, 9, 54, 64
9, 97440, Note_on_c, 9, 38, 122
9, 97444, Note_off_c, 9, 38, 64
9, 97444, Note_on_c, 9, 42, 122
9, 97444, Note_on_c, 9, 54, 127
9, 97448, Note_off_c, 9, 54, 64
9, 97448, Note_off_c, 9, 42, 64
9, 97680, Note_on_c, 9, 42, 90
9, 97684, Note_off_c, 9, 42, 64
9, 97920, Note_on_c, 9, 36, 122
9, 97924, Note_off_c, 9, 36, 64
9, 97924, Note_on_c, 9, 42, 122
9, 97928, Note_off_c, 9, 42, 64
9, 98160, Note_on_c, 9, 42, 90
9, 98164, Note_off_c, 9, 42, 64
9, 98280, Note_on_c, 9, 54, 42
9, 98284, Note_off_c, 9, 54, 64
9, 98340, Note_on_c, 9, 54, 58
9, 98344, Note_off_c, 9, 54, 64
9, 98400, Note_on_c, 9, 38, 122
9, 98404, Note_off_c, 9, 38, 64
9, 98404, Note_on_c, 9, 42, 122
9, 98404, Note_on_c, 9, 54, 127
9, 98408, Note_off_c, 9, 54, 64
9, 98408, Note_off_c, 9, 42, 64
9, 98640, Note_on_c, 9, 42, 90
9, 98644, Note_off_c, 9, 42, 64
9, 98880, Note_on_c, 9, 36, 122
9, 98884, Note_off_c, 9, 36, 64
9, 98884, Note_on_c, 9, 42, 122
9, 98888, Note_off_c, 9, 42, 64
9, 99120, Note_on_c, 9, 42, 90
9, 99124, Note_off_c, 9, 42, 64
9, 99240, Note_on_c, 9, 54, 42
9, 99244, Note_off_c, 9, 54, 64
9, 99300, Note_on_c, 9, 54, 58
9, 99304, Note_off_c, 9, 54, 64
9, 99360, Note_on_c, 9, 38, 122
9, 99364, Note_off_c, 9, 38, 64
9, 99364, Note_on_c, 9, 42, 122
9, 99364, Note_on_c, 9, 54, 127
9, 99368, Note_off_c, 9, 54, 64
9, 99368, Note_off_c, 9, 42, 64
9, 99600, Note_on_c, 9, 42, 90
9, 99600, Note_on_c, 9, 46, 122
9, 99604, Note_off_c, 9, 46, 64
9, 99604, Note_off_c, 9, 42, 64
9, 99844, Note_on_c, 9, 36, 122
9, 99844, Note_on_c, 9, 42, 122
9, 99848, Note_off_c, 9, 42, 64
9, 99848, Note_off_c, 9, 36, 64
9, 100080, Note_on_c, 9, 42, 90
9, 100084, Note_off_c, 9, 42, 64
9, 100200, Note_on_c, 9, 54, 42
9, 100204, Note_off_c, 9, 54, 64
9, 100260, Note_on_c, 9, 54, 58
9, 100264, Note_off_c, 9, 54, 64
9, 100320, Note_on_c, 9, 38, 122
9, 100324, Note_off_c, 9, 38, 64
9, 100324, Note_on_c, 9, 42, 122
9, 100324, Note_on_c, 9, 54, 127
9, 100328, Note_off_c, 9, 54, 64
9, 100328, Note_off_c, 9, 42, 64
9, 100560, Note_on_c, 9, 42, 90
9, 100564, Note_off_c, 9, 42, 64
9, 100800, Note_on_c, 9, 36, 122
9, 100804, Note_off_c, 9, 36, 64
9, 100804, Note_on_c, 9, 42, 122
9, 100808, Note_off_c, 9, 42, 64
9, 101040, Note_on_c, 9, 42, 90
9, 101044, Note_off_c, 9, 42, 64
9, 101160, Note_on_c, 9, 54, 42
9, 101164, Note_off_c, 9, 54, 64
9, 101220, Note_on_c, 9, 54, 58
9, 101224, Note_off_c, 9, 54, 64
9, 101280, Note_on_c, 9, 38, 122
9, 101284, Note_off_c, 9, 38, 64
9, 101284, Note_on_c, 9, 42, 122
9, 101284, Note_on_c, 9, 54, 127
9, 101288, Note_off_c, 9, 54, 64
9, 101288, Note_off_c, 9, 42, 64
9, 101520, Note_on_c, 9, 42, 90
9, 101524, Note_off_c, 9, 42, 64
9, 101760, Note_on_c, 9, 36, 122
9, 101764, Note_off_c, 9, 36, 64
9, 101764, Note_on_c, 9, 42, 122
9, 101768, Note_off_c, 9, 42, 64
9, 102000, Note_on_c, 9, 42, 90
9, 102004, Note_off_c, 9, 42, 64
9, 102120, Note_on_c, 9, 54, 42
9, 102124, Note_off_c, 9, 54, 64
9, 102180, Note_on_c, 9, 54, 58
9, 102184, Note_off_c, 9, 54, 64
9, 102240, Note_on_c, 9, 38, 122
9, 102244, Note_off_c, 9, 38, 64
9, 102244, Note_on_c, 9, 42, 122
9, 102244, Note_on_c, 9, 54, 127
9, 102248, Note_off_c, 9, 54, 64
9, 102248, Note_off_c, 9, 42, 64
9, 102480, Note_on_c, 9, 42, 90
9, 102484, Note_off_c, 9, 42, 64
9, 102720, Note_on_c, 9, 36, 122
9, 102724, Note_off_c, 9, 36, 64
9, 102724, Note_on_c, 9, 42, 122
9, 102728, Note_off_c, 9, 42, 64
9, 102960, Note_on_c, 9, 42, 90
9, 102964, Note_off_c, 9, 42, 64
9, 103080, Note_on_c, 9, 54, 42
9, 103084, Note_off_c, 9, 54, 64
9, 103140, Note_on_c, 9, 54, 58
9, 103144, Note_off_c, 9, 54, 64
9, 103200, Note_on_c, 9, 38, 122
9, 103204, Note_off_c, 9, 38, 64
9, 103204, Note_on_c, 9, 42, 122
9, 103204, Note_on_c, 9, 54, 127
9, 103208, Note_off_c, 9, 54, 64
9, 103208, Note_off_c, 9, 42, 64
9, 103440, Note_on_c, 9, 42, 90
9, 103444, Note_off_c, 9, 42, 64
9, 103680, Note_on_c, 9, 36, 122
9, 103684, Note_off_c, 9, 36, 64
9, 103684, Note_on_c, 9, 42, 122
9, 103688, Note_off_c, 9, 42, 64
9, 103920, Note_on_c, 9, 42, 90
9, 103924, Note_off_c, 9, 42, 64
9, 104040, Note_on_c, 9, 54, 42
9, 104044, Note_off_c, 9, 54, 64
9, 104100, Note_on_c, 9, 54, 58
9, 104104, Note_off_c, 9, 54, 64
9, 104160, Note_on_c, 9, 38, 122
9, 104164, Note_off_c, 9, 38, 64
9, 104164, Note_on_c, 9, 42, 122
9, 104164, Note_on_c, 9, 54, 127
9, 104168, Note_off_c, 9, 54, 64
9, 104168, Note_off_c, 9, 42, 64
9, 104400, Note_on_c, 9, 42, 90
9, 104404, Note_off_c, 9, 42, 64
9, 104640, Note_on_c, 9, 36, 122
9, 104644, Note_off_c, 9, 36, 64
9, 104644, Note_on_c, 9, 42, 122
9, 104648, Note_off_c, 9, 42, 64
9, 104880, Note_on_c, 9, 42, 90
9, 104884, Note_off_c, 9, 42, 64
9, 105000, Note_on_c, 9, 54, 42
9, 105004, Note_off_c, 9, 54, 64
9, 105060, Note_on_c, 9, 54, 58
9, 105064, Note_off_c, 9, 54, 64
9, 105120, Note_on_c, 9, 38, 122
9, 105124, Note_off_c, 9, 38, 64
9, 105124, Note_on_c, 9, 42, 122
9, 105124, Note_on_c, 9, 54, 127
9, 105128, Note_off_c, 9, 54, 64
9, 105128, Note_off_c, 9, 42, 64
9, 105360, Note_on_c, 9, 42, 90
9, 105364, Note_off_c, 9, 42, 64
9, 105600, Note_on_c, 9, 36, 122
9, 105604, Note_off_c, 9, 36, 64
9, 105604, Note_on_c, 9, 42, 122
9, 105608, Note_off_c, 9, 42, 64
9, 105840, Note_on_c, 9, 42, 90
9, 105844, Note_off_c, 9, 42, 64
9, 105960, Note_on_c, 9, 54, 42
9, 105964, Note_off_c, 9, 54, 64
9, 106020, Note_on_c, 9, 54, 58
9, 106024, Note_off_c, 9, 54, 64
9, 106080, Note_on_c, 9, 38, 122
9, 106084, Note_off_c, 9, 38, 64
9, 106084, Note_on_c, 9, 42, 122
9, 106084, Note_on_c, 9, 54, 127
9, 106088, Note_off_c, 9, 54, 64
9, 106088, Note_off_c, 9, 42, 64
9, 106320, Note_on_c, 9, 42, 90
9, 106324, Note_off_c, 9, 42, 64
9, 106560, Note_on_c, 9, 36, 122
9, 106564, Note_off_c, 9, 36, 64
9, 106564, Note_on_c, 9, 42, 122
9, 106568, Note_off_c, 9, 42, 64
9, 106800, Note_on_c, 9, 42, 90
9, 106804, Note_off_c, 9, 42, 64
9, 106920, Note_on_c, 9, 54, 42
9, 106924, Note_off_c, 9, 54, 64
9, 106980, Note_on_c, 9, 54, 58
9, 106984, Note_off_c, 9, 54, 64
9, 107040, Note_on_c, 9, 38, 122
9, 107044, Note_off_c, 9, 38, 64
9, 107044, Note_on_c, 9, 42, 122
9, 107044, Note_on_c, 9, 54, 127
9, 107048, Note_off_c, 9, 54, 64
9, 107048, Note_off_c, 9, 42, 64
9, 107280, Note_on_c, 9, 42, 90
9, 107284, Note_off_c, 9, 42, 64
9, 107520, Note_on_c, 9, 36, 122
9, 107524, Note_off_c, 9, 36, 64
9, 107524, Note_on_c, 9, 42, 122
9, 107528, Note_off_c, 9, 42, 64
9, 107760, Note_on_c, 9, 42, 90
9, 107764, Note_off_c, 9, 42, 64
9, 107880, Note_on_c, 9, 54, 42
9, 107884, Note_off_c, 9, 54, 64
9, 107940, Note_on_c, 9, 54, 58
9, 107944, Note_off_c, 9, 54, 64
9, 108000, Note_on_c, 9, 38, 122
9, 108004, Note_off_c, 9, 38, 64
9, 108004, Note_on_c, 9, 42, 122
9, 108004, Note_on_c, 9, 54, 127
9, 108008, Note_off_c, 9, 54, 64
9, 108008, Note_off_c, 9, 42, 64
9, 108240, Note_on_c, 9, 42, 90
9, 108244, Note_off_c, 9, 42, 64
9, 108480, Note_on_c, 9, 36, 122
9, 108484, Note_off_c, 9, 36, 64
9, 108484, Note_on_c, 9, 42, 122
9, 108488, Note_off_c, 9, 42, 64
9, 108720, Note_on_c, 9, 42, 90
9, 108724, Note_off_c, 9, 42, 64
9, 108840, Note_on_c, 9, 54, 42
9, 108844, Note_off_c, 9, 54, 64
9, 108900, Note_on_c, 9, 54, 58
9, 108904, Note_off_c, 9, 54, 64
9, 108960, Note_on_c, 9, 38, 122
9, 108964, Note_off_c, 9, 38, 64
9, 108964, Note_on_c, 9, 42, 122
9, 108964, Note_on_c, 9, 54, 127
9, 108968, Note_off_c, 9, 54, 64
9, 108968, Note_off_c, 9, 42, 64
9, 109200, Note_on_c, 9, 42, 90
9, 109204, Note_off_c, 9, 42, 64
9, 109440, Note_on_c, 9, 36, 122
9, 109444, Note_off_c, 9, 36, 64
9, 109444, Note_on_c, 9, 42, 122
9, 109448, Note_off_c, 9, 42, 64
9, 109680, Note_on_c, 9, 42, 90
9, 109684, Note_off_c, 9, 42, 64
9, 109800, Note_on_c, 9, 54, 42
9, 109804, Note_off_c, 9, 54, 64
9, 109860, Note_on_c, 9, 54, 58
9, 109864, Note_off_c, 9, 54, 64
9, 109920, Note_on_c, 9, 38, 122
9, 109924, Note_off_c, 9, 38, 64
9, 109924, Note_on_c, 9, 42, 122
9, 109924, Note_on_c, 9, 54, 127
9, 109928, Note_off_c, 9, 54, 64
9, 109928, Note_off_c, 9, 42, 64
9, 110160, Note_on_c, 9, 42, 90
9, 110164, Note_off_c, 9, 42, 64
9, 110400, Note_on_c, 9, 36, 122
9, 110404, Note_off_c, 9, 36, 64
9, 110404, Note_on_c, 9, 42, 122
9, 110408, Note_off_c, 9, 42, 64
9, 110640, Note_on_c, 9, 42, 90
9, 110644, Note_off_c, 9, 42, 64
9, 110760, Note_on_c, 9, 54, 42
9, 110764, Note_off_c, 9, 54, 64
9, 110820, Note_on_c, 9, 54, 58
9, 110824, Note_off_c, 9, 54, 64
9, 110880, Note_on_c, 9, 38, 122
9, 110884, Note_off_c, 9, 38, 64
9, 110884, Note_on_c, 9, 42, 122
9, 110884, Note_on_c, 9, 54, 127
9, 110888, Note_off_c, 9, 54, 64
9, 110888, Note_off_c, 9, 42, 64
9, 111120, Note_on_c, 9, 42, 90
9, 111124, Note_off_c, 9, 42, 64
9, 111360, Note_on_c, 9, 36, 122
9, 111364, Note_off_c, 9, 36, 64
9, 111364, Note_on_c, 9, 42, 122
9, 111368, Note_off_c, 9, 42, 64
9, 111600, Note_on_c, 9, 42, 90
9, 111604, Note_off_c, 9, 42, 64
9, 111720, Note_on_c, 9, 54, 42
9, 111724, Note_off_c, 9, 54, 64
9, 111780, Note_on_c, 9, 54, 58
9, 111784, Note_off_c, 9, 54, 64
9, 111840, Note_on_c, 9, 38, 122
9, 111844, Note_off_c, 9, 38, 64
9, 111844, Note_on_c, 9, 42, 122
9, 111844, Note_on_c, 9, 54, 127
9, 111848, Note_off_c, 9, 54, 64
9, 111848, Note_off_c, 9, 42, 64
9, 112080, Note_on_c, 9, 42, 90
9, 112084, Note_off_c, 9, 42, 64
9, 112320, Note_on_c, 9, 36, 122
9, 112324, Note_off_c, 9, 36, 64
9, 112324, Note_on_c, 9, 42, 122
9, 112328, Note_off_c, 9, 42, 64
9, 112560, Note_on_c, 9, 42, 90
9, 112564, Note_off_c, 9, 42, 64
9, 112680, Note_on_c, 9, 54, 42
9, 112684, Note_off_c, 9, 54, 64
9, 112740, Note_on_c, 9, 54, 58
9, 112744, Note_off_c, 9, 54, 64
9, 112800, Note_on_c, 9, 38, 122
9, 112804, Note_off_c, 9, 38, 64
9, 112804, Note_on_c, 9, 42, 122
9, 112804, Note_on_c, 9, 54, 127
9, 112808, Note_off_c, 9, 54, 64
9, 112808, Note_off_c, 9, 42, 64
9, 113040, Note_on_c, 9, 42, 90
9, 113044, Note_off_c, 9, 42, 64
9, 113280, Note_on_c, 9, 36, 122
9, 113284, Note_off_c, 9, 36, 64
9, 113284, Note_on_c, 9, 42, 122
9, 113288, Note_off_c, 9, 42, 64
9, 113520, Note_on_c, 9, 42, 90
9, 113524, Note_off_c, 9, 42, 64
9, 113640, Note_on_c, 9, 54, 42
9, 113644, Note_off_c, 9, 54, 64
9, 113700, Note_on_c, 9, 54, 58
9, 113704, Note_off_c, 9, 54, 64
9, 113760, Note_on_c, 9, 38, 122
9, 113764, Note_off_c, 9, 38, 64
9, 113764, Note_on_c, 9, 42, 122
9, 113764, Note_on_c, 9, 54, 127
9, 113768, Note_off_c, 9, 54, 64
9, 113768, Note_off_c, 9, 42, 64
9, 114000, Note_on_c, 9, 42, 90
9, 114004, Note_off_c, 9, 42, 64
9, 114240, Note_on_c, 9, 36, 122
9, 114244, Note_off_c, 9, 36, 64
9, 114244, Note_on_c, 9, 42, 122
9, 114248, Note_off_c, 9, 42, 64
9, 114480, Note_on_c, 9, 42, 90
9, 114484, Note_off_c, 9, 42, 64
9, 114600, Note_on_c, 9, 54, 42
9, 114604, Note_off_c, 9, 54, 64
9, 114660, Note_on_c, 9, 54, 58
9, 114664, Note_off_c, 9, 54, 64
9, 114720, Note_on_c, 9, 38, 122
9, 114724, Note_off_c, 9, 38, 64
9, 114724, Note_on_c, 9, 42, 122
9, 114724, Note_on_c, 9, 54, 127
9, 114728, Note_off_c, 9, 54, 64
9, 114728, Note_off_c, 9, 42, 64
9, 114960, Note_on_c, 9, 42, 90
9, 114960, Note_on_c, 9, 46, 122
9, 114964, Note_off_c, 9, 46, 64
9, 114964, Note_off_c, 9, 42, 64
9, 115200, Note_on_c, 9, 36, 122
9, 115204, Note_off_c, 9, 36, 64
9, 115204, Note_on_c, 9, 42, 122
9, 115208, Note_off_c, 9, 42, 64
9, 115440, Note_on_c, 9, 42, 90
9, 115444, Note_off_c, 9, 42, 64
9, 115560, Note_on_c, 9, 54, 42
9, 115564, Note_off_c, 9, 54, 64
9, 115620, Note_on_c, 9, 54, 58
9, 115624, Note_off_c, 9, 54, 64
9, 115680, Note_on_c, 9, 38, 122
9, 115684, Note_off_c, 9, 38, 64
9, 115684, Note_on_c, 9, 42, 122
9, 115684, Note_on_c, 9, 54, 127
9, 115688, Note_off_c, 9, 54, 64
9, 115688, Note_off_c, 9, 42, 64
9, 115920, Note_on_c, 9, 42, 90
9, 115924, Note_off_c, 9, 42, 64
9, 116160, Note_on_c, 9, 36, 122
9, 116164, Note_off_c, 9, 36, 64
9, 116164, Note_on_c, 9, 42, 122
9, 116168, Note_off_c, 9, 42, 64
9, 116400, Note_on_c, 9, 42, 90
9, 116404, Note_off_c, 9, 42, 64
9, 116520, Note_on_c, 9, 54, 42
9, 116524, Note_off_c, 9, 54, 64
9, 116580, Note_on_c, 9, 54, 58
9, 116584, Note_off_c, 9, 54, 64
9, 116640, Note_on_c, 9, 38, 122
9, 116644, Note_off_c, 9, 38, 64
9, 116644, Note_on_c, 9, 42, 122
9, 116644, Note_on_c, 9, 54, 127
9, 116648, Note_off_c, 9, 54, 64
9, 116648, Note_off_c, 9, 42, 64
9, 116880, Note_on_c, 9, 42, 90
9, 116884, Note_off_c, 9, 42, 64
9, 117120, Note_on_c, 9, 36, 122
9, 117124, Note_off_c, 9, 36, 64
9, 117124, Note_on_c, 9, 42, 122
9, 117128, Note_off_c, 9, 42, 64
9, 117360, Note_on_c, 9, 42, 90
9, 117364, Note_off_c, 9, 42, 64
9, 117480, Note_on_c, 9, 54, 42
9, 117484, Note_off_c, 9, 54, 64
9, 117540, Note_on_c, 9, 54, 58
9, 117544, Note_off_c, 9, 54, 64
9, 117600, Note_on_c, 9, 38, 122
9, 117604, Note_off_c, 9, 38, 64
9, 117604, Note_on_c, 9, 42, 122
9, 117604, Note_on_c, 9, 54, 127
9, 117608, Note_off_c, 9, 54, 64
9, 117608, Note_off_c, 9, 42, 64
9, 117840, Note_on_c, 9, 42, 90
9, 117844, Note_off_c, 9, 42, 64
9, 118080, Note_on_c, 9, 36, 122
9, 118084, Note_off_c, 9, 36, 64
9, 118084, Note_on_c, 9, 42, 122
9, 118088, Note_off_c, 9, 42, 64
9, 118320, Note_on_c, 9, 42, 90
9, 118324, Note_off_c, 9, 42, 64
9, 118440, Note_on_c, 9, 54, 42
9, 118444, Note_off_c, 9, 54, 64
9, 118500, Note_on_c, 9, 54, 58
9, 118504, Note_off_c, 9, 54, 64
9, 118560, Note_on_c, 9, 38, 122
9, 118564, Note_off_c, 9, 38, 64
9, 118564, Note_on_c, 9, 42, 122
9, 118564, Note_on_c, 9, 54, 127
9, 118568, Note_off_c, 9, 54, 64
9, 118568, Note_off_c, 9, 42, 64
9, 118800, Note_on_c, 9, 42, 90
9, 118804, Note_off_c, 9, 42, 64
9, 119040, Note_on_c, 9, 36, 122
9, 119044, Note_off_c, 9, 36, 64
9, 119044, Note_on_c, 9, 42, 122
9, 119048, Note_off_c, 9, 42, 64
9, 119280, Note_on_c, 9, 42, 90
9, 119284, Note_off_c, 9, 42, 64
9, 119400, Note_on_c, 9, 54, 42
9, 119404, Note_off_c, 9, 54, 64
9, 119460, Note_on_c, 9, 54, 58
9, 119464, Note_off_c, 9, 54, 64
9, 119520, Note_on_c, 9, 38, 122
9, 119524, Note_off_c, 9, 38, 64
9, 119524, Note_on_c, 9, 42, 122
9, 119524, Note_on_c, 9, 54, 127
9, 119528, Note_off_c, 9, 54, 64
9, 119528, Note_off_c, 9, 42, 64
9, 119760, Note_on_c, 9, 42, 90
9, 119764, Note_off_c, 9, 42, 64
9, 120000, Note_on_c, 9, 36, 122
9, 120004, Note_off_c, 9, 36, 64
9, 120004, Note_on_c, 9, 42, 122
9, 120008, Note_off_c, 9, 42, 64
9, 120240, Note_on_c, 9, 42, 90
9, 120244, Note_off_c, 9, 42, 64
9, 120360, Note_on_c, 9, 54, 42
9, 120364, Note_off_c, 9, 54, 64
9, 120420, Note_on_c, 9, 54, 58
9, 120424, Note_off_c, 9, 54, 64
9, 120480, Note_on_c, 9, 38, 122
9, 120484, Note_off_c, 9, 38, 64
9, 120484, Note_on_c, 9, 42, 122
9, 120484, Note_on_c, 9, 54, 127
9, 120488, Note_off_c, 9, 54, 64
9, 120488, Note_off_c, 9, 42, 64
9, 120720, Note_on_c, 9, 42, 90
9, 120724, Note_off_c, 9, 42, 64
9, 120960, Note_on_c, 9, 36, 122
9, 120964, Note_off_c, 9, 36, 64
9, 120964, Note_on_c, 9, 42, 122
9, 120968, Note_off_c, 9, 42, 64
9, 121200, Note_on_c, 9, 42, 90
9, 121204, Note_off_c, 9, 42, 64
9, 121320, Note_on_c, 9, 54, 42
9, 121324, Note_off_c, 9, 54, 64
9, 121380, Note_on_c, 9, 54, 58
9, 121384, Note_off_c, 9, 54, 64
9, 121440, Note_on_c, 9, 38, 122
9, 121444, Note_off_c, 9, 38, 64
9, 121444, Note_on_c, 9, 42, 122
9, 121444, Note_on_c, 9, 54, 127
9, 121448, Note_off_c, 9, 54, 64
9, 121448, Note_off_c, 9, 42, 64
9, 121680, Note_on_c, 9, 42, 90
9, 121684, Note_off_c, 9, 42, 64
9, 121920, Note_on_c, 9, 36, 122
9, 121924, Note_off_c, 9, 36, 64
9, 121924, Note_on_c, 9, 42, 122
9, 121928, Note_off_c, 9, 42, 64
9, 122160, Note_on_c, 9, 42, 90
9, 122164, Note_off_c, 9, 42, 64
9, 122280, Note_on_c, 9, 54, 42
9, 122284, Note_off_c, 9, 54, 64
9, 122340, Note_on_c, 9, 54, 58
9, 122344, Note_off_c, 9, 54, 64
9, 122400, Note_on_c, 9, 38, 122
9, 122404, Note_off_c, 9, 38, 64
9, 122404, Note_on_c, 9, 42, 122
9, 122404, Note_on_c, 9, 54, 127
9, 122408, Note_off_c, 9, 54, 64
9, 122408, Note_off_c, 9, 42, 64
9, 122640, Note_on_c, 9, 42, 90
9, 122644, Note_off_c, 9, 42, 64
9, 122880, Note_on_c, 9, 36, 122
9, 122884, Note_off_c, 9, 36, 64
9, 122884, Note_on_c, 9, 42, 122
9, 122888, Note_off_c, 9, 42, 64
9, 123120, Note_on_c, 9, 42, 90
9, 123124, Note_off_c, 9, 42, 64
9, 123240, Note_on_c, 9, 54, 42
9, 123244, Note_off_c, 9, 54, 64
9, 123300, Note_on_c, 9, 54, 58
9, 123304, Note_off_c, 9, 54, 64
9, 123360, Note_on_c, 9, 38, 122
9, 123364, Note_off_c, 9, 38, 64
9, 123364, Note_on_c, 9, 42, 122
9, 123364, Note_on_c, 9, 54, 127
9, 123368, Note_off_c, 9, 54, 64
9, 123368, Note_off_c, 9, 42, 64
9, 123600, Note_on_c, 9, 42, 90
9, 123604, Note_off_c, 9, 42, 64
9, 123840, Note_on_c, 9, 36, 122
9, 123844, Note_off_c, 9, 36, 64
9, 123844, Note_on_c, 9, 42, 122
9, 123848, Note_off_c, 9, 42, 64
9, 124080, Note_on_c, 9, 42, 90
9, 124084, Note_off_c, 9, 42, 64
9, 124200, Note_on_c, 9, 54, 42
9, 124204, Note_off_c, 9, 54, 64
9, 124260, Note_on_c, 9, 54, 58
9, 124264, Note_off_c, 9, 54, 64
9, 124320, Note_on_c, 9, 38, 122
9, 124324, Note_off_c, 9, 38, 64
9, 124324, Note_on_c, 9, 42, 122
9, 124324, Note_on_c, 9, 54, 127
9, 124328, Note_off_c, 9, 54, 64
9, 124328, Note_off_c, 9, 42, 64
9, 124560, Note_on_c, 9, 42, 90
9, 124564, Note_off_c, 9, 42, 64
9, 124800, Note_on_c, 9, 36, 122
9, 124804, Note_off_c, 9, 36, 64
9, 124804, Note_on_c, 9, 42, 122
9, 124808, Note_off_c, 9, 42, 64
9, 125040, Note_on_c, 9, 42, 90
9, 125044, Note_off_c, 9, 42, 64
9, 125160, Note_on_c, 9, 54, 42
9, 125164, Note_off_c, 9, 54, 64
9, 125220, Note_on_c, 9, 54, 58
9, 125224, Note_off_c, 9, 54, 64
9, 125280, Note_on_c, 9, 38, 122
9, 125284, Note_off_c, 9, 38, 64
9, 125284, Note_on_c, 9, 42, 122
9, 125284, Note_on_c, 9, 54, 127
9, 125288, Note_off_c, 9, 54, 64
9, 125288, Note_off_c, 9, 42, 64
9, 125520, Note_on_c, 9, 42, 90
9, 125524, Note_off_c, 9, 42, 64
9, 125760, Note_on_c, 9, 36, 122
9, 125764, Note_off_c, 9, 36, 64
9, 125764, Note_on_c, 9, 42, 122
9, 125768, Note_off_c, 9, 42, 64
9, 126000, Note_on_c, 9, 42, 90
9, 126004, Note_off_c, 9, 42, 64
9, 126120, Note_on_c, 9, 54, 42
9, 126124, Note_off_c, 9, 54, 64
9, 126180, Note_on_c, 9, 54, 58
9, 126184, Note_off_c, 9, 54, 64
9, 126240, Note_on_c, 9, 38, 122
9, 126244, Note_off_c, 9, 38, 64
9, 126244, Note_on_c, 9, 42, 122
9, 126244, Note_on_c, 9, 54, 127
9, 126248, Note_off_c, 9, 54, 64
9, 126248, Note_off_c, 9, 42, 64
9, 126480, Note_on_c, 9, 42, 90
9, 126484, Note_off_c, 9, 42, 64
9, 126720, Note_on_c, 9, 36, 122
9, 126724, Note_off_c, 9, 36, 64
9, 126724, Note_on_c, 9, 42, 122
9, 126728, Note_off_c, 9, 42, 64
9, 126960, Note_on_c, 9, 42, 90
9, 126964, Note_off_c, 9, 42, 64
9, 127080, Note_on_c, 9, 54, 42
9, 127084, Note_off_c, 9, 54, 64
9, 127140, Note_on_c, 9, 54, 58
9, 127144, Note_off_c, 9, 54, 64
9, 127200, Note_on_c, 9, 38, 122
9, 127204, Note_off_c, 9, 38, 64
9, 127204, Note_on_c, 9, 42, 122
9, 127204, Note_on_c, 9, 54, 127
9, 127208, Note_off_c, 9, 54, 64
9, 127208, Note_off_c, 9, 42, 64
9, 127440, Note_on_c, 9, 42, 90
9, 127444, Note_off_c, 9, 42, 64
9, 127680, Note_on_c, 9, 36, 122
9, 127684, Note_off_c, 9, 36, 64
9, 127684, Note_on_c, 9, 42, 122
9, 127688, Note_off_c, 9, 42, 64
9, 127920, Note_on_c, 9, 42, 90
9, 127924, Note_off_c, 9, 42, 64
9, 128040, Note_on_c, 9, 54, 42
9, 128044, Note_off_c, 9, 54, 64
9, 128100, Note_on_c, 9, 54, 58
9, 128104, Note_off_c, 9, 54, 64
9, 128160, Note_on_c, 9, 38, 122
9, 128164, Note_off_c, 9, 38, 64
9, 128164, Note_on_c, 9, 42, 122
9, 128164, Note_on_c, 9, 54, 127
9, 128168, Note_off_c, 9, 54, 64
9, 128168, Note_off_c, 9, 42, 64
9, 128400, Note_on_c, 9, 42, 90
9, 128404, Note_off_c, 9, 42, 64
9, 128640, Note_on_c, 9, 36, 122
9, 128644, Note_off_c, 9, 36, 64
9, 128644, Note_on_c, 9, 42, 122
9, 128648, Note_off_c, 9, 42, 64
9, 128880, Note_on_c, 9, 42, 90
9, 128884, Note_off_c, 9, 42, 64
9, 129000, Note_on_c, 9, 54, 42
9, 129004, Note_off_c, 9, 54, 64
9, 129060, Note_on_c, 9, 54, 58
9, 129064, Note_off_c, 9, 54, 64
9, 129120, Note_on_c, 9, 38, 122
9, 129124, Note_off_c, 9, 38, 64
9, 129124, Note_on_c, 9, 42, 122
9, 129124, Note_on_c, 9, 54, 127
9, 129128, Note_off_c, 9, 54, 64
9, 129128, Note_off_c, 9, 42, 64
9, 129360, Note_on_c, 9, 42, 90
9, 129364, Note_off_c, 9, 42, 64
9, 129600, Note_on_c, 9, 36, 122
9, 129604, Note_off_c, 9, 36, 64
9, 129604, Note_on_c, 9, 42, 122
9, 129608, Note_off_c, 9, 42, 64
9, 129720, Note_on_c, 9, 54, 42
9, 129724, Note_off_c, 9, 54, 64
9, 129780, Note_on_c, 9, 54, 122
9, 129784, Note_off_c, 9, 54, 64
9, 129840, Note_on_c, 9, 42, 90
9, 129844, Note_off_c, 9, 42, 64
9, 130020, Note_on_c, 9, 54, 42
9, 130024, Note_off_c, 9, 54, 64
9, 130080, Note_on_c, 9, 38, 122
9, 130084, Note_off_c, 9, 38, 64
9, 130084, Note_on_c, 9, 42, 122
9, 130084, Note_on_c, 9, 49, 122
9, 130084, Note_on_c, 9, 54, 122
9, 130088, Note_off_c, 9, 54, 64
9, 130088, Note_off_c, 9, 49, 64
9, 130088, Note_off_c, 9, 42, 64
9, 130320, Note_on_c, 9, 42, 90
9, 130324, Note_off_c, 9, 42, 64
9, 130564, Note_on_c, 9, 36, 122
9, 130564, Note_on_c, 9, 42, 127
9, 130564, Note_on_c, 9, 49, 122
9, 130564, Note_on_c, 9, 54, 106
9, 130568, Note_off_c, 9, 54, 64
9, 130568, Note_off_c, 9, 49, 64
9, 130568, Note_off_c, 9, 42, 64
9, 130568, Note_off_c, 9, 36, 64
9, 130680, Note_on_c, 9, 54, 74
9, 130684, Note_off_c, 9, 54, 64
9, 130800, Note_on_c, 9, 42, 106
9, 130800, Note_on_c, 9, 54, 127
9, 130804, Note_off_c, 9, 54, 64
9, 130804, Note_off_c, 9, 42, 64
9, 130920, Note_on_c, 9, 54, 74
9, 130924, Note_off_c, 9, 54, 64
9, 131040, Note_on_c, 9, 38, 122
9, 131044, Note_off_c, 9, 38, 64
9, 131044, Note_on_c, 9, 42, 127
9, 131044, Note_on_c, 9, 54, 106
9, 131048, Note_off_c, 9, 54, 64
9, 131048, Note_off_c, 9, 42, 64
9, 131160, Note_on_c, 9, 54, 74
9, 131164, Note_off_c, 9, 54, 64
9, 131280, Note_on_c, 9, 42, 106
9, 131280, Note_on_c, 9, 54, 127
9, 131284, Note_off_c, 9, 54, 64
9, 131284, Note_off_c, 9, 42, 64
9, 131400, Note_on_c, 9, 54, 74
9, 131404, Note_off_c, 9, 54, 64
9, 131520, Note_on_c, 9, 36, 122
9, 131524, Note_off_c, 9, 36, 64
9, 131524, Note_on_c, 9, 42, 127
9, 131524, Note_on_c, 9, 54, 106
9, 131528, Note_off_c, 9, 54, 64
9, 131528, Note_off_c, 9, 42, 64
9, 131640, Note_on_c, 9, 54, 74
9, 131644, Note_off_c, 9, 54, 64
9, 131760, Note_on_c, 9, 42, 106
9, 131760, Note_on_c, 9, 54, 127
9, 131764, Note_off_c, 9, 54, 64
9, 131764, Note_off_c, 9, 42, 64
9, 131880, Note_on_c, 9, 54, 74
9, 131884, Note_off_c, 9, 54, 64
9, 132000, Note_on_c, 9, 38, 122
9, 132004, Note_off_c, 9, 38, 64
9, 132004, Note_on_c, 9, 42, 127
9, 132004, Note_on_c, 9, 46, 127
9, 132004, Note_on_c, 9, 54, 106
9, 132008, Note_off_c, 9, 54, 64
9, 132008, Note_off_c, 9, 46, 64
9, 132008, Note_off_c, 9, 42, 64
9, 132120, Note_on_c, 9, 54, 74
9, 132124, Note_off_c, 9, 54, 64
9, 132240, Note_on_c, 9, 42, 106
9, 132240, Note_on_c, 9, 54, 127
9, 132244, Note_off_c, 9, 54, 64
9, 132244, Note_off_c, 9, 42, 64
9, 132360, Note_on_c, 9, 54, 74
9, 132364, Note_off_c, 9, 54, 64
9, 132480, Note_on_c, 9, 36, 122
9, 132484, Note_off_c, 9, 36, 64
9, 132484, Note_on_c, 9, 42, 127
9, 132484, Note_on_c, 9, 54, 106
9, 132488, Note_off_c, 9, 54, 64
9, 132488, Note_off_c, 9, 42, 64
9, 132600, Note_on_c, 9, 54, 74
9, 132604, Note_off_c, 9, 54, 64
9, 132720, Note_on_c, 9, 42, 106
9, 132720, Note_on_c, 9, 54, 127
9, 132724, Note_off_c, 9, 54, 64
9, 132724, Note_off_c, 9, 42, 64
9, 132840, Note_on_c, 9, 54, 74
9, 132844, Note_off_c, 9, 54, 64
9, 132960, Note_on_c, 9, 38, 122
9, 132964, Note_off_c, 9, 38, 64
9, 132964, Note_on_c, 9, 42, 127
9, 132964, Note_on_c, 9, 54, 106
9, 132968, Note_off_c, 9, 54, 64
9, 132968, Note_off_c, 9, 42, 64
9, 133080, Note_on_c, 9, 54, 74
9, 133084, Note_off_c, 9, 54, 64
9, 133200, Note_on_c, 9, 42, 106
9, 133200, Note_on_c, 9, 54, 127
9, 133204, Note_off_c, 9, 54, 64
9, 133204, Note_off_c, 9, 42, 64
9, 133320, Note_on_c, 9, 54, 74
9, 133324, Note_off_c, 9, 54, 64
9, 133440, Note_on_c, 9, 36, 122
9, 133444, Note_off_c, 9, 36, 64
9, 133444, Note_on_c, 9, 42, 127
9, 133444, Note_on_c, 9, 54, 106
9, 133448, Note_off_c, 9, 54, 64
9, 133448, Note_off_c, 9, 42, 64
9, 133560, Note_on_c, 9, 54, 74
9, 133564, Note_off_c, 9, 54, 64
9, 133680, Note_on_c, 9, 42, 106
9, 133680, Note_on_c, 9, 54, 127
9, 133684, Note_off_c, 9, 54, 64
9, 133684, Note_off_c, 9, 42, 64
9, 133800, Note_on_c, 9, 54, 74
9, 133804, Note_off_c, 9, 54, 64
9, 133920, Note_on_c, 9, 38, 122
9, 133924, Note_off_c, 9, 38, 64
9, 133924, Note_on_c, 9, 42, 127
9, 133924, Note_on_c, 9, 54, 106
9, 133928, Note_off_c, 9, 54, 64
9, 133928, Note_off_c, 9, 42, 64
9, 134040, Note_on_c, 9, 54, 74
9, 134044, Note_off_c, 9, 54, 64
9, 134160, Note_on_c, 9, 42, 106
9, 134160, Note_on_c, 9, 54, 127
9, 134164, Note_off_c, 9, 54, 64
9, 134164, Note_off_c, 9, 42, 64
9, 134280, Note_on_c, 9, 54, 74
9, 134284, Note_off_c, 9, 54, 64
9, 134400, Note_on_c, 9, 36, 122
9, 134404, Note_off_c, 9, 36, 64
9, 134404, Note_on_c, 9, 42, 127
9, 134404, Note_on_c, 9, 54, 106
9, 134408, Note_off_c, 9, 54, 64
9, 134408, Note_off_c, 9, 42, 64
9, 134520, Note_on_c, 9, 54, 74
9, 134524, Note_off_c, 9, 54, 64
9, 134640, Note_on_c, 9, 42, 106
9, 134640, Note_on_c, 9, 54, 127
9, 134644, Note_off_c, 9, 54, 64
9, 134644, Note_off_c, 9, 42, 64
9, 134760, Note_on_c, 9, 54, 74
9, 134764, Note_off_c, 9, 54, 64
9, 134880, Note_on_c, 9, 38, 122
9, 134880, Note_on_c, 9, 42, 127
9, 134884, Note_off_c, 9, 42, 64
9, 134884, Note_off_c, 9, 38, 64
9, 134884, Note_on_c, 9, 54, 106
9, 134888, Note_off_c, 9, 54, 64
9, 135000, Note_on_c, 9, 54, 74
9, 135004, Note_off_c, 9, 54, 64
9, 135120, Note_on_c, 9, 42, 106
9, 135120, Note_on_c, 9, 54, 127
9, 135124, Note_off_c, 9, 54, 64
9, 135124, Note_off_c, 9, 42, 64
9, 135240, Note_on_c, 9, 54, 74
9, 135244, Note_off_c, 9, 54, 64
9, 135360, Note_on_c, 9, 36, 122
9, 135364, Note_off_c, 9, 36, 64
9, 135364, Note_on_c, 9, 42, 127
9, 135364, Note_on_c, 9, 54, 106
9, 135368, Note_off_c, 9, 54, 64
9, 135368, Note_off_c, 9, 42, 64
9, 135480, Note_on_c, 9, 54, 74
9, 135484, Note_off_c, 9, 54, 64
9, 135600, Note_on_c, 9, 42, 106
9, 135600, Note_on_c, 9, 54, 127
9, 135604, Note_off_c, 9, 54, 64
9, 135604, Note_off_c, 9, 42, 64
9, 135720, Note_on_c, 9, 54, 74
9, 135724, Note_off_c, 9, 54, 64
9, 135840, Note_on_c, 9, 38, 122
9, 135844, Note_off_c, 9, 38, 64
9, 135844, Note_on_c, 9, 42, 127
9, 135844, Note_on_c, 9, 46, 122
9, 135844, Note_on_c, 9, 54, 106
9, 135848, Note_off_c, 9, 54, 64
9, 135848, Note_off_c, 9, 46, 64
9, 135848, Note_off_c, 9, 42, 64
9, 135960, Note_on_c, 9, 54, 74
9, 135964, Note_off_c, 9, 54, 64
9, 136080, Note_on_c, 9, 42, 106
9, 136080, Note_on_c, 9, 54, 127
9, 136084, Note_off_c, 9, 54, 64
9, 136084, Note_off_c, 9, 42, 64
9, 136200, Note_on_c, 9, 54, 74
9, 136204, Note_off_c, 9, 54, 64
9, 136324, Note_on_c, 9, 36, 122
9, 136324, Note_on_c, 9, 42, 127
9, 136324, Note_on_c, 9, 54, 106
9, 136328, Note_off_c, 9, 54, 64
9, 136328, Note_off_c, 9, 42, 64
9, 136328, Note_off_c, 9, 36, 64
9, 136440, Note_on_c, 9, 54, 74
9, 136444, Note_off_c, 9, 54, 64
9, 136560, Note_on_c, 9, 42, 106
9, 136560, Note_on_c, 9, 54, 127
9, 136564, Note_off_c, 9, 54, 64
9, 136564, Note_off_c, 9, 42, 64
9, 136680, Note_on_c, 9, 54, 74
9, 136684, Note_off_c, 9, 54, 64
9, 136800, Note_on_c, 9, 38, 122
9, 136804, Note_off_c, 9, 38, 64
9, 136804, Note_on_c, 9, 42, 127
9, 136804, Note_on_c, 9, 54, 106
9, 136808, Note_off_c, 9, 54, 64
9, 136808, Note_off_c, 9, 42, 64
9, 136920, Note_on_c, 9, 54, 74
9, 136924, Note_off_c, 9, 54, 64
9, 137040, Note_on_c, 9, 42, 106
9, 137040, Note_on_c, 9, 54, 127
9, 137044, Note_off_c, 9, 54, 64
9, 137044, Note_off_c, 9, 42, 64
9, 137160, Note_on_c, 9, 54, 74
9, 137164, Note_off_c, 9, 54, 64
9, 137280, Note_on_c, 9, 36, 122
9, 137284, Note_off_c, 9, 36, 64
9, 137284, Note_on_c, 9, 42, 127
9, 137284, Note_on_c, 9, 54, 106
9, 137288, Note_off_c, 9, 54, 64
9, 137288, Note_off_c, 9, 42, 64
9, 137400, Note_on_c, 9, 54, 74
9, 137404, Note_off_c, 9, 54, 64
9, 137520, Note_on_c, 9, 42, 106
9, 137520, Note_on_c, 9, 54, 127
9, 137524, Note_off_c, 9, 54, 64
9, 137524, Note_off_c, 9, 42, 64
9, 137640, Note_on_c, 9, 54, 74
9, 137644, Note_off_c, 9, 54, 64
9, 137760, Note_on_c, 9, 38, 122
9, 137764, Note_off_c, 9, 38, 64
9, 137764, Note_on_c, 9, 42, 127
9, 137764, Note_on_c, 9, 54, 106
9, 137768, Note_off_c, 9, 54, 64
9, 137768, Note_off_c, 9, 42, 64
9, 137880, Note_on_c, 9, 54, 74
9, 137884, Note_off_c, 9, 54, 64
9, 138000, Note_on_c, 9, 42, 106
9, 138000, Note_on_c, 9, 54, 127
9, 138004, Note_off_c, 9, 54, 64
9, 138004, Note_off_c, 9, 42, 64
9, 138120, Note_on_c, 9, 54, 74
9, 138124, Note_off_c, 9, 54, 64
9, 138240, Note_on_c, 9, 36, 122
9, 138244, Note_off_c, 9, 36, 64
9, 138244, Note_on_c, 9, 42, 127
9, 138244, Note_on_c, 9, 54, 106
9, 138248, Note_off_c, 9, 54, 64
9, 138248, Note_off_c, 9, 42, 64
9, 138360, Note_on_c, 9, 54, 74
9, 138364, Note_off_c, 9, 54, 64
9, 138480, Note_on_c, 9, 42, 106
9, 138480, Note_on_c, 9, 54, 127
9, 138484, Note_off_c, 9, 54, 64
9, 138484, Note_off_c, 9, 42, 64
9, 138600, Note_on_c, 9, 54, 74
9, 138604, Note_off_c, 9, 54, 64
9, 138720, Note_on_c, 9, 38, 122
9, 138724, Note_off_c, 9, 38, 64
9, 138724, Note_on_c, 9, 42, 127
9, 138724, Note_on_c, 9, 54, 106
9, 138728, Note_off_c, 9, 54, 64
9, 138728, Note_off_c, 9, 42, 64
9, 138840, Note_on_c, 9, 54, 74
9, 138844, Note_off_c, 9, 54, 64
9, 138960, Note_on_c, 9, 42, 106
9, 138960, Note_on_c, 9, 54, 127
9, 138964, Note_off_c, 9, 54, 64
9, 138964, Note_off_c, 9, 42, 64
9, 139080, Note_on_c, 9, 38, 90
9, 139080, Note_on_c, 9, 54, 74
9, 139084, Note_off_c, 9, 54, 64
9, 139084, Note_off_c, 9, 38, 64
9, 139200, Note_on_c, 9, 36, 122
9, 139204, Note_off_c, 9, 36, 64
9, 139204, Note_on_c, 9, 42, 127
9, 139204, Note_on_c, 9, 54, 106
9, 139208, Note_off_c, 9, 54, 64
9, 139208, Note_off_c, 9, 42, 64
9, 139320, Note_on_c, 9, 54, 74
9, 139324, Note_off_c, 9, 54, 64
9, 139440, Note_on_c, 9, 38, 90
9, 139440, Note_on_c, 9, 42, 106
9, 139444, Note_off_c, 9, 42, 64
9, 139444, Note_off_c, 9, 38, 64
9, 139444, Note_on_c, 9, 54, 127
9, 139448, Note_off_c, 9, 54, 64
9, 139560, Note_on_c, 9, 54, 74
9, 139564, Note_off_c, 9, 54, 64
9, 139680, Note_on_c, 9, 38, 122
9, 139684, Note_off_c, 9, 38, 64
9, 139684, Note_on_c, 9, 42, 127
9, 139684, Note_on_c, 9, 46, 122
9, 139684, Note_on_c, 9, 54, 106
9, 139688, Note_off_c, 9, 54, 64
9, 139688, Note_off_c, 9, 46, 64
9, 139688, Note_off_c, 9, 42, 64
9, 139800, Note_on_c, 9, 54, 74
9, 139804, Note_off_c, 9, 54, 64
9, 139920, Note_on_c, 9, 42, 106
9, 139920, Note_on_c, 9, 54, 127
9, 139924, Note_off_c, 9, 54, 64
9, 139924, Note_off_c, 9, 42, 64
9, 140040, Note_on_c, 9, 54, 74
9, 140044, Note_off_c, 9, 54, 64
9, 140164, Note_on_c, 9, 36, 122
9, 140164, Note_on_c, 9, 42, 127
9, 140164, Note_on_c, 9, 54, 106
9, 140168, Note_off_c, 9, 54, 64
9, 140168, Note_off_c, 9, 42, 64
9, 140168, Note_off_c, 9, 36, 64
9, 140280, Note_on_c, 9, 54, 74
9, 140284, Note_off_c, 9, 54, 64
9, 140400, Note_on_c, 9, 42, 106
9, 140400, Note_on_c, 9, 54, 127
9, 140404, Note_off_c, 9, 54, 64
9, 140404, Note_off_c, 9, 42, 64
9, 140520, Note_on_c, 9, 54, 74
9, 140524, Note_off_c, 9, 54, 64
9, 140640, Note_on_c, 9, 38, 122
9, 140644, Note_off_c, 9, 38, 64
9, 140644, Note_on_c, 9, 42, 127
9, 140644, Note_on_c, 9, 54, 106
9, 140648, Note_off_c, 9, 54, 64
9, 140648, Note_off_c, 9, 42, 64
9, 140760, Note_on_c, 9, 54, 74
9, 140764, Note_off_c, 9, 54, 64
9, 140880, Note_on_c, 9, 42, 106
9, 140880, Note_on_c, 9, 54, 127
9, 140884, Note_off_c, 9, 54, 64
9, 140884, Note_off_c, 9, 42, 64
9, 141000, Note_on_c, 9, 54, 74
9, 141004, Note_off_c, 9, 54, 64
9, 141120, Note_on_c, 9, 36, 122
9, 141124, Note_off_c, 9, 36, 64
9, 141124, Note_on_c, 9, 42, 127
9, 141124, Note_on_c, 9, 54, 106
9, 141128, Note_off_c, 9, 54, 64
9, 141128, Note_off_c, 9, 42, 64
9, 141240, Note_on_c, 9, 54, 74
9, 141244, Note_off_c, 9, 54, 64
9, 141360, Note_on_c, 9, 42, 106
9, 141360, Note_on_c, 9, 54, 127
9, 141364, Note_off_c, 9, 54, 64
9, 141364, Note_off_c, 9, 42, 64
9, 141480, Note_on_c, 9, 54, 74
9, 141484, Note_off_c, 9, 54, 64
9, 141600, Note_on_c, 9, 38, 122
9, 141604, Note_off_c, 9, 38, 64
9, 141604, Note_on_c, 9, 42, 127
9, 141604, Note_on_c, 9, 54, 106
9, 141608, Note_off_c, 9, 54, 64
9, 141608, Note_off_c, 9, 42, 64
9, 141720, Note_on_c, 9, 54, 74
9, 141724, Note_off_c, 9, 54, 64
9, 141840, Note_on_c, 9, 42, 106
9, 141840, Note_on_c, 9, 54, 127
9, 141844, Note_off_c, 9, 54, 64
9, 141844, Note_off_c, 9, 42, 64
9, 141960, Note_on_c, 9, 54, 74
9, 141964, Note_off_c, 9, 54, 64
9, 142080, Note_on_c, 9, 36, 122
9, 142084, Note_off_c, 9, 36, 64
9, 142084, Note_on_c, 9, 42, 127
9, 142084, Note_on_c, 9, 54, 106
9, 142088, Note_off_c, 9, 54, 64
9, 142088, Note_off_c, 9, 42, 64
9, 142200, Note_on_c, 9, 54, 74
9, 142204, Note_off_c, 9, 54, 64
9, 142320, Note_on_c, 9, 42, 106
9, 142320, Note_on_c, 9, 54, 127
9, 142324, Note_off_c, 9, 54, 64
9, 142324, Note_off_c, 9, 42, 64
9, 142440, Note_on_c, 9, 54, 74
9, 142444, Note_off_c, 9, 54, 64
9, 142560, Note_on_c, 9, 38, 122
9, 142564, Note_off_c, 9, 38, 64
9, 142564, Note_on_c, 9, 42, 127
9, 142564, Note_on_c, 9, 54, 106
9, 142568, Note_off_c, 9, 54, 64
9, 142568, Note_off_c, 9, 42, 64
9, 142680, Note_on_c, 9, 54, 74
9, 142684, Note_off_c, 9, 54, 64
9, 142800, Note_on_c, 9, 42, 106
9, 142800, Note_on_c, 9, 54, 127
9, 142804, Note_off_c, 9, 54, 64
9, 142804, Note_off_c, 9, 42, 64
9, 142920, Note_on_c, 9, 54, 74
9, 142924, Note_off_c, 9, 54, 64
9, 143040, Note_on_c, 9, 36, 122
9, 143044, Note_off_c, 9, 36, 64
9, 143044, Note_on_c, 9, 42, 127
9, 143044, Note_on_c, 9, 54, 106
9, 143048, Note_off_c, 9, 54, 64
9, 143048, Note_off_c, 9, 42, 64
9, 143160, Note_on_c, 9, 54, 74
9, 143164, Note_off_c, 9, 54, 64
9, 143280, Note_on_c, 9, 42, 106
9, 143280, Note_on_c, 9, 54, 127
9, 143284, Note_off_c, 9, 54, 64
9, 143284, Note_off_c, 9, 42, 64
9, 143400, Note_on_c, 9, 54, 74
9, 143404, Note_off_c, 9, 54, 64
9, 143520, Note_on_c, 9, 38, 122
9, 143524, Note_off_c, 9, 38, 64
9, 143524, Note_on_c, 9, 42, 127
9, 143524, Note_on_c, 9, 46, 122
9, 143524, Note_on_c, 9, 54, 106
9, 143528, Note_off_c, 9, 54, 64
9, 143528, Note_off_c, 9, 46, 64
9, 143528, Note_off_c, 9, 42, 64
9, 143640, Note_on_c, 9, 54, 74
9, 143644, Note_off_c, 9, 54, 64
9, 143760, Note_on_c, 9, 42, 106
9, 143760, Note_on_c, 9, 54, 127
9, 143764, Note_off_c, 9, 54, 64
9, 143764, Note_off_c, 9, 42, 64
9, 143880, Note_on_c, 9, 54, 74
9, 143884, Note_off_c, 9, 54, 64
9, 144004, Note_on_c, 9, 36, 122
9, 144004, Note_on_c, 9, 42, 127
9, 144004, Note_on_c, 9, 54, 106
9, 144008, Note_off_c, 9, 54, 64
9, 144008, Note_off_c, 9, 42, 64
9, 144008, Note_off_c, 9, 36, 64
9, 144120, Note_on_c, 9, 54, 74
9, 144124, Note_off_c, 9, 54, 64
9, 144240, Note_on_c, 9, 42, 106
9, 144240, Note_on_c, 9, 54, 127
9, 144244, Note_off_c, 9, 54, 64
9, 144244, Note_off_c, 9, 42, 64
9, 144360, Note_on_c, 9, 54, 74
9, 144364, Note_off_c, 9, 54, 64
9, 144480, Note_on_c, 9, 38, 122
9, 144484, Note_off_c, 9, 38, 64
9, 144484, Note_on_c, 9, 42, 127
9, 144484, Note_on_c, 9, 54, 106
9, 144488, Note_off_c, 9, 54, 64
9, 144488, Note_off_c, 9, 42, 64
9, 144600, Note_on_c, 9, 54, 74
9, 144604, Note_off_c, 9, 54, 64
9, 144720, Note_on_c, 9, 42, 106
9, 144720, Note_on_c, 9, 54, 127
9, 144724, Note_off_c, 9, 54, 64
9, 144724, Note_off_c, 9, 42, 64
9, 144840, Note_on_c, 9, 54, 74
9, 144844, Note_off_c, 9, 54, 64
9, 144960, Note_on_c, 9, 36, 122
9, 144964, Note_off_c, 9, 36, 64
9, 144964, Note_on_c, 9, 42, 127
9, 144964, Note_on_c, 9, 54, 106
9, 144968, Note_off_c, 9, 54, 64
9, 144968, Note_off_c, 9, 42, 64
9, 145080, Note_on_c, 9, 54, 74
9, 145084, Note_off_c, 9, 54, 64
9, 145200, Note_on_c, 9, 42, 106
9, 145200, Note_on_c, 9, 54, 127
9, 145204, Note_off_c, 9, 54, 64
9, 145204, Note_off_c, 9, 42, 64
9, 145320, Note_on_c, 9, 54, 74
9, 145324, Note_off_c, 9, 54, 64
9, 145440, Note_on_c, 9, 38, 122
9, 145444, Note_off_c, 9, 38, 64
9, 145444, Note_on_c, 9, 42, 127
9, 145444, Note_on_c, 9, 54, 106
9, 145448, Note_off_c, 9, 54, 64
9, 145448, Note_off_c, 9, 42, 64
9, 145560, Note_on_c, 9, 54, 74
9, 145564, Note_off_c, 9, 54, 64
9, 145680, Note_on_c, 9, 42, 106
9, 145680, Note_on_c, 9, 54, 127
9, 145684, Note_off_c, 9, 54, 64
9, 145684, Note_off_c, 9, 42, 64
9, 145800, Note_on_c, 9, 54, 74
9, 145804, Note_off_c, 9, 54, 64
9, 145920, Note_on_c, 9, 36, 122
9, 145924, Note_off_c, 9, 36, 64
9, 145924, Note_on_c, 9, 42, 127
9, 145924, Note_on_c, 9, 49, 122
9, 145924, Note_on_c, 9, 54, 106
9, 145928, Note_off_c, 9, 54, 64
9, 145928, Note_off_c, 9, 49, 64
9, 145928, Note_off_c, 9, 42, 64
9, 146040, Note_on_c, 9, 54, 74
9, 146044, Note_off_c, 9, 54, 64
9, 146160, Note_on_c, 9, 42, 106
9, 146160, Note_on_c, 9, 54, 127
9, 146164, Note_off_c, 9, 54, 64
9, 146164, Note_off_c, 9, 42, 64
9, 146280, Note_on_c, 9, 54, 74
9, 146284, Note_off_c, 9, 54, 64
9, 146400, Note_on_c, 9, 38, 122
9, 146404, Note_off_c, 9, 38, 64
9, 146404, Note_on_c, 9, 42, 127
9, 146404, Note_on_c, 9, 54, 106
9, 146408, Note_off_c, 9, 54, 64
9, 146408, Note_off_c, 9, 42, 64
9, 146520, Note_on_c, 9, 54, 74
9, 146524, Note_off_c, 9, 54, 64
9, 146640, Note_on_c, 9, 42, 106
9, 146640, Note_on_c, 9, 54, 127
9, 146644, Note_off_c, 9, 54, 64
9, 146644, Note_off_c, 9, 42, 64
9, 146760, Note_on_c, 9, 54, 74
9, 146764, Note_off_c, 9, 54, 64
9, 146880, Note_on_c, 9, 36, 122
9, 146884, Note_off_c, 9, 36, 64
9, 146884, Note_on_c, 9, 42, 127
9, 146884, Note_on_c, 9, 54, 106
9, 146888, Note_off_c, 9, 54, 64
9, 146888, Note_off_c, 9, 42, 64
9, 147000, Note_on_c, 9, 54, 74
9, 147004, Note_off_c, 9, 54, 64
9, 147120, Note_on_c, 9, 42, 106
9, 147120, Note_on_c, 9, 54, 127
9, 147124, Note_off_c, 9, 54, 64
9, 147124, Note_off_c, 9, 42, 64
9, 147240, Note_on_c, 9, 54, 74
9, 147244, Note_off_c, 9, 54, 64
9, 147360, Note_on_c, 9, 38, 122
9, 147364, Note_off_c, 9, 38, 64
9, 147364, Note_on_c, 9, 42, 127
9, 147364, Note_on_c, 9, 46, 127
9, 147364, Note_on_c, 9, 54, 106
9, 147368, Note_off_c, 9, 54, 64
9, 147368, Note_off_c, 9, 46, 64
9, 147368, Note_off_c, 9, 42, 64
9, 147480, Note_on_c, 9, 54, 74
9, 147484, Note_off_c, 9, 54, 64
9, 147600, Note_on_c, 9, 42, 106
9, 147600, Note_on_c, 9, 54, 127
9, 147604, Note_off_c, 9, 54, 64
9, 147604, Note_off_c, 9, 42, 64
9, 147720, Note_on_c, 9, 54, 74
9, 147724, Note_off_c, 9, 54, 64
9, 147840, Note_on_c, 9, 36, 122
9, 147844, Note_off_c, 9, 36, 64
9, 147844, Note_on_c, 9, 42, 127
9, 147844, Note_on_c, 9, 54, 106
9, 147848, Note_off_c, 9, 54, 64
9, 147848, Note_off_c, 9, 42, 64
9, 147960, Note_on_c, 9, 54, 74
9, 147964, Note_off_c, 9, 54, 64
9, 148080, Note_on_c, 9, 42, 106
9, 148080, Note_on_c, 9, 54, 127
9, 148084, Note_off_c, 9, 54, 64
9, 148084, Note_off_c, 9, 42, 64
9, 148200, Note_on_c, 9, 54, 74
9, 148204, Note_off_c, 9, 54, 64
9, 148320, Note_on_c, 9, 38, 122
9, 148324, Note_off_c, 9, 38, 64
9, 148324, Note_on_c, 9, 42, 127
9, 148324, Note_on_c, 9, 54, 106
9, 148328, Note_off_c, 9, 54, 64
9, 148328, Note_off_c, 9, 42, 64
9, 148440, Note_on_c, 9, 54, 74
9, 148444, Note_off_c, 9, 54, 64
9, 148560, Note_on_c, 9, 42, 106
9, 148560, Note_on_c, 9, 54, 127
9, 148564, Note_off_c, 9, 54, 64
9, 148564, Note_off_c, 9, 42, 64
9, 148680, Note_on_c, 9, 54, 74
9, 148684, Note_off_c, 9, 54, 64
9, 148800, Note_on_c, 9, 36, 122
9, 148804, Note_off_c, 9, 36, 64
9, 148804, Note_on_c, 9, 42, 127
9, 148804, Note_on_c, 9, 54, 106
9, 148808, Note_off_c, 9, 54, 64
9, 148808, Note_off_c, 9, 42, 64
9, 148920, Note_on_c, 9, 54, 74
9, 148924, Note_off_c, 9, 54, 64
9, 149040, Note_on_c, 9, 42, 106
9, 149040, Note_on_c, 9, 54, 127
9, 149044, Note_off_c, 9, 54, 64
9, 149044, Note_off_c, 9, 42, 64
9, 149160, Note_on_c, 9, 54, 74
9, 149164, Note_off_c, 9, 54, 64
9, 149280, Note_on_c, 9, 38, 122
9, 149284, Note_off_c, 9, 38, 64
9, 149284, Note_on_c, 9, 42, 127
9, 149284, Note_on_c, 9, 54, 106
9, 149288, Note_off_c, 9, 54, 64
9, 149288, Note_off_c, 9, 42, 64
9, 149400, Note_on_c, 9, 54, 74
9, 149404, Note_off_c, 9, 54, 64
9, 149520, Note_on_c, 9, 42, 106
9, 149520, Note_on_c, 9, 54, 127
9, 149524, Note_off_c, 9, 54, 64
9, 149524, Note_off_c, 9, 42, 64
9, 149640, Note_on_c, 9, 54, 74
9, 149644, Note_off_c, 9, 54, 64
9, 149760, Note_on_c, 9, 36, 122
9, 149764, Note_off_c, 9, 36, 64
9, 149764, Note_on_c, 9, 42, 127
9, 149764, Note_on_c, 9, 54, 106
9, 149768, Note_off_c, 9, 54, 64
9, 149768, Note_off_c, 9, 42, 64
9, 149880, Note_on_c, 9, 54, 74
9, 149884, Note_off_c, 9, 54, 64
9, 150000, Note_on_c, 9, 42, 106
9, 150000, Note_on_c, 9, 54, 127
9, 150004, Note_off_c, 9, 54, 64
9, 150004, Note_off_c, 9, 42, 64
9, 150120, Note_on_c, 9, 54, 74
9, 150124, Note_off_c, 9, 54, 64
9, 150240, Note_on_c, 9, 38, 122
9, 150244, Note_off_c, 9, 38, 64
9, 150244, Note_on_c, 9, 42, 127
9, 150244, Note_on_c, 9, 54, 106
9, 150248, Note_off_c, 9, 54, 64
9, 150248, Note_off_c, 9, 42, 64
9, 150360, Note_on_c, 9, 54, 74
9, 150364, Note_off_c, 9, 54, 64
9, 150480, Note_on_c, 9, 42, 106
9, 150480, Note_on_c, 9, 54, 127
9, 150484, Note_off_c, 9, 54, 64
9, 150484, Note_off_c, 9, 42, 64
9, 150600, Note_on_c, 9, 54, 74
9, 150604, Note_off_c, 9, 54, 64
9, 150720, Note_on_c, 9, 36, 122
9, 150724, Note_off_c, 9, 36, 64
9, 150724, Note_on_c, 9, 42, 127
9, 150724, Note_on_c, 9, 54, 106
9, 150728, Note_off_c, 9, 54, 64
9, 150728, Note_off_c, 9, 42, 64
9, 150840, Note_on_c, 9, 54, 74
9, 150844, Note_off_c, 9, 54, 64
9, 150960, Note_on_c, 9, 42, 106
9, 150960, Note_on_c, 9, 54, 127
9, 150964, Note_off_c, 9, 54, 64
9, 150964, Note_off_c, 9, 42, 64
9, 151080, Note_on_c, 9, 54, 74
9, 151084, Note_off_c, 9, 54, 64
9, 151200, Note_on_c, 9, 38, 122
9, 151204, Note_off_c, 9, 38, 64
9, 151204, Note_on_c, 9, 42, 127
9, 151204, Note_on_c, 9, 46, 122
9, 151204, Note_on_c, 9, 54, 106
9, 151208, Note_off_c, 9, 54, 64
9, 151208, Note_off_c, 9, 46, 64
9, 151208, Note_off_c, 9, 42, 64
9, 151320, Note_on_c, 9, 54, 74
9, 151324, Note_off_c, 9, 54, 64
9, 151440, Note_on_c, 9, 42, 106
9, 151440, Note_on_c, 9, 54, 127
9, 151444, Note_off_c, 9, 54, 64
9, 151444, Note_off_c, 9, 42, 64
9, 151560, Note_on_c, 9, 54, 74
9, 151564, Note_off_c, 9, 54, 64
9, 151680, Note_on_c, 9, 36, 122
9, 151680, Note_on_c, 9, 42, 127
9, 151684, Note_off_c, 9, 42, 64
9, 151684, Note_off_c, 9, 36, 64
9, 151684, Note_on_c, 9, 54, 106
9, 151688, Note_off_c, 9, 54, 64
9, 151800, Note_on_c, 9, 54, 74
9, 151804, Note_off_c, 9, 54, 64
9, 151920, Note_on_c, 9, 42, 106
9, 151920, Note_on_c, 9, 54, 127
9, 151924, Note_off_c, 9, 54, 64
9, 151924, Note_off_c, 9, 42, 64
9, 152040, Note_on_c, 9, 54, 74
9, 152044, Note_off_c, 9, 54, 64
9, 152160, Note_on_c, 9, 38, 122
9, 152164, Note_off_c, 9, 38, 64
9, 152164, Note_on_c, 9, 42, 127
9, 152164, Note_on_c, 9, 54, 106
9, 152168, Note_off_c, 9, 54, 64
9, 152168, Note_off_c, 9, 42, 64
9, 152280, Note_on_c, 9, 54, 74
9, 152284, Note_off_c, 9, 54, 64
9, 152400, Note_on_c, 9, 42, 106
9, 152400, Note_on_c, 9, 54, 127
9, 152404, Note_off_c, 9, 54, 64
9, 152404, Note_off_c, 9, 42, 64
9, 152520, Note_on_c, 9, 54, 74
9, 152524, Note_off_c, 9, 54, 64
9, 152640, Note_on_c, 9, 36, 122
9, 152644, Note_off_c, 9, 36, 64
9, 152644, Note_on_c, 9, 42, 127
9, 152644, Note_on_c, 9, 54, 106
9, 152648, Note_off_c, 9, 54, 64
9, 152648, Note_off_c, 9, 42, 64
9, 152760, Note_on_c, 9, 54, 74
9, 152764, Note_off_c, 9, 54, 64
9, 152880, Note_on_c, 9, 42, 106
9, 152880, Note_on_c, 9, 54, 127
9, 152884, Note_off_c, 9, 54, 64
9, 152884, Note_off_c, 9, 42, 64
9, 153000, Note_on_c, 9, 54, 74
9, 153004, Note_off_c, 9, 54, 64
9, 153120, Note_on_c, 9, 38, 122
9, 153124, Note_off_c, 9, 38, 64
9, 153124, Note_on_c, 9, 42, 127
9, 153124, Note_on_c, 9, 54, 106
9, 153128, Note_off_c, 9, 54, 64
9, 153128, Note_off_c, 9, 42, 64
9, 153240, Note_on_c, 9, 54, 74
9, 153244, Note_off_c, 9, 54, 64
9, 153360, Note_on_c, 9, 42, 106
9, 153360, Note_on_c, 9, 54, 127
9, 153364, Note_off_c, 9, 54, 64
9, 153364, Note_off_c, 9, 42, 64
9, 153480, Note_on_c, 9, 54, 74
9, 153484, Note_off_c, 9, 54, 64
9, 153600, Note_on_c, 9, 36, 122
9, 153604, Note_off_c, 9, 36, 64
9, 153604, Note_on_c, 9, 42, 127
9, 153604, Note_on_c, 9, 54, 106
9, 153608, Note_off_c, 9, 54, 64
9, 153608, Note_off_c, 9, 42, 64
9, 153720, Note_on_c, 9, 54, 74
9, 153724, Note_off_c, 9, 54, 64
9, 153840, Note_on_c, 9, 42, 106
9, 153840, Note_on_c, 9, 54, 127
9, 153844, Note_off_c, 9, 54, 64
9, 153844, Note_off_c, 9, 42, 64
9, 153960, Note_on_c, 9, 54, 74
9, 153964, Note_off_c, 9, 54, 64
9, 154080, Note_on_c, 9, 38, 122
9, 154084, Note_off_c, 9, 38, 64
9, 154084, Note_on_c, 9, 42, 127
9, 154084, Note_on_c, 9, 54, 106
9, 154088, Note_off_c, 9, 54, 64
9, 154088, Note_off_c, 9, 42, 64
9, 154200, Note_on_c, 9, 54, 74
9, 154204, Note_off_c, 9, 54, 64
9, 154320, Note_on_c, 9, 42, 106
9, 154320, Note_on_c, 9, 54, 127
9, 154324, Note_off_c, 9, 54, 64
9, 154324, Note_off_c, 9, 42, 64
9, 154440, Note_on_c, 9, 54, 74
9, 154444, Note_off_c, 9, 54, 64
9, 154560, Note_on_c, 9, 36, 122
9, 154564, Note_off_c, 9, 36, 64
9, 154564, Note_on_c, 9, 42, 127
9, 154564, Note_on_c, 9, 54, 106
9, 154568, Note_off_c, 9, 54, 64
9, 154568, Note_off_c, 9, 42, 64
9, 154680, Note_on_c, 9, 54, 74
9, 154684, Note_off_c, 9, 54, 64
9, 154800, Note_on_c, 9, 42, 106
9, 154800, Note_on_c, 9, 54, 127
9, 154804, Note_off_c, 9, 54, 64
9, 154804, Note_off_c, 9, 42, 64
9, 154920, Note_on_c, 9, 54, 74
9, 154924, Note_off_c, 9, 54, 64
9, 155040, Note_on_c, 9, 38, 122
9, 155044, Note_off_c, 9, 38, 64
9, 155044, Note_on_c, 9, 42, 127
9, 155044, Note_on_c, 9, 46, 122
9, 155044, Note_on_c, 9, 0, 106
9, 155048, Note_off_c, 9, 0, 64
9, 155048, Note_off_c, 9, 46, 64
9, 155048, Note_off_c, 9, 42, 64
9, 155160, Note_on_c, 9, 54, 74
9, 155164, Note_off_c, 9, 54, 64
9, 155280, Note_on_c, 9, 42, 106
9, 155280, Note_on_c, 9, 54, 127
9, 155284, Note_off_c, 9, 54, 64
9, 155284, Note_off_c, 9, 42, 64
9, 155400, Note_on_c, 9, 54, 74
9, 155404, Note_off_c, 9, 54, 64
9, 155524, Note_on_c, 9, 36, 122
9, 155524, Note_on_c, 9, 42, 127
9, 155524, Note_on_c, 9, 54, 106
9, 155528, Note_off_c, 9, 54, 64
9, 155528, Note_off_c, 9, 42, 64
9, 155528, Note_off_c, 9, 36, 64
9, 155640, Note_on_c, 9, 54, 74
9, 155644, Note_off_c, 9, 54, 64
9, 155760, Note_on_c, 9, 42, 106
9, 155760, Note_on_c, 9, 54, 127
9, 155764, Note_off_c, 9, 54, 64
9, 155764, Note_off_c, 9, 42, 64
9, 155880, Note_on_c, 9, 54, 74
9, 155884, Note_off_c, 9, 54, 64
9, 156000, Note_on_c, 9, 38, 122
9, 156004, Note_off_c, 9, 38, 64
9, 156004, Note_on_c, 9, 42, 127
9, 156004, Note_on_c, 9, 54, 106
9, 156008, Note_off_c, 9, 54, 64
9, 156008, Note_off_c, 9, 42, 64
9, 156120, Note_on_c, 9, 54, 74
9, 156124, Note_off_c, 9, 54, 64
9, 156240, Note_on_c, 9, 42, 106
9, 156240, Note_on_c, 9, 54, 127
9, 156244, Note_off_c, 9, 54, 64
9, 156244, Note_off_c, 9, 42, 64
9, 156360, Note_on_c, 9, 54, 74
9, 156364, Note_off_c, 9, 54, 64
9, 156480, Note_on_c, 9, 36, 122
9, 156484, Note_off_c, 9, 36, 64
9, 156484, Note_on_c, 9, 42, 127
9, 156484, Note_on_c, 9, 54, 106
9, 156488, Note_off_c, 9, 54, 64
9, 156488, Note_off_c, 9, 42, 64
9, 156600, Note_on_c, 9, 54, 74
9, 156604, Note_off_c, 9, 54, 64
9, 156720, Note_on_c, 9, 42, 106
9, 156720, Note_on_c, 9, 54, 127
9, 156724, Note_off_c, 9, 54, 64
9, 156724, Note_off_c, 9, 42, 64
9, 156840, Note_on_c, 9, 54, 74
9, 156844, Note_off_c, 9, 54, 64
9, 156960, Note_on_c, 9, 38, 122
9, 156964, Note_off_c, 9, 38, 64
9, 156964, Note_on_c, 9, 42, 127
9, 156964, Note_on_c, 9, 54, 106
9, 156968, Note_off_c, 9, 54, 64
9, 156968, Note_off_c, 9, 42, 64
9, 157080, Note_on_c, 9, 54, 74
9, 157084, Note_off_c, 9, 54, 64
9, 157200, Note_on_c, 9, 42, 106
9, 157200, Note_on_c, 9, 54, 127
9, 157204, Note_off_c, 9, 54, 64
9, 157204, Note_off_c, 9, 42, 64
9, 157320, Note_on_c, 9, 54, 74
9, 157324, Note_off_c, 9, 54, 64
9, 157440, Note_on_c, 9, 36, 122
9, 157444, Note_off_c, 9, 36, 64
9, 157444, Note_on_c, 9, 42, 127
9, 157444, Note_on_c, 9, 54, 106
9, 157448, Note_off_c, 9, 54, 64
9, 157448, Note_off_c, 9, 42, 64
9, 157560, Note_on_c, 9, 54, 74
9, 157564, Note_off_c, 9, 54, 64
9, 157680, Note_on_c, 9, 42, 106
9, 157680, Note_on_c, 9, 54, 127
9, 157684, Note_off_c, 9, 54, 64
9, 157684, Note_off_c, 9, 42, 64
9, 157800, Note_on_c, 9, 54, 74
9, 157804, Note_off_c, 9, 54, 64
9, 157920, Note_on_c, 9, 38, 122
9, 157924, Note_off_c, 9, 38, 64
9, 157924, Note_on_c, 9, 42, 127
9, 157924, Note_on_c, 9, 54, 106
9, 157928, Note_off_c, 9, 54, 64
9, 157928, Note_off_c, 9, 42, 64
9, 158040, Note_on_c, 9, 54, 74
9, 158044, Note_off_c, 9, 54, 64
9, 158160, Note_on_c, 9, 42, 106
9, 158160, Note_on_c, 9, 54, 127
9, 158164, Note_off_c, 9, 54, 64
9, 158164, Note_off_c, 9, 42, 64
9, 158280, Note_on_c, 9, 54, 74
9, 158284, Note_off_c, 9, 54, 64
9, 158400, Note_on_c, 9, 36, 122
9, 158404, Note_off_c, 9, 36, 64
9, 158404, Note_on_c, 9, 42, 127
9, 158404, Note_on_c, 9, 54, 106
9, 158408, Note_off_c, 9, 54, 64
9, 158408, Note_off_c, 9, 42, 64
9, 158520, Note_on_c, 9, 54, 74
9, 158524, Note_off_c, 9, 54, 64
9, 158640, Note_on_c, 9, 42, 106
9, 158640, Note_on_c, 9, 54, 127
9, 158644, Note_off_c, 9, 54, 64
9, 158644, Note_off_c, 9, 42, 64
9, 158760, Note_on_c, 9, 54, 74
9, 158764, Note_off_c, 9, 54, 64
9, 158880, Note_on_c, 9, 38, 122
9, 158884, Note_off_c, 9, 38, 64
9, 158884, Note_on_c, 9, 42, 127
9, 158884, Note_on_c, 9, 46, 122
9, 158884, Note_on_c, 9, 54, 106
9, 158888, Note_off_c, 9, 54, 64
9, 158888, Note_off_c, 9, 46, 64
9, 158888, Note_off_c, 9, 42, 64
9, 159000, Note_on_c, 9, 54, 74
9, 159004, Note_off_c, 9, 54, 64
9, 159120, Note_on_c, 9, 42, 106
9, 159120, Note_on_c, 9, 54, 127
9, 159124, Note_off_c, 9, 54, 64
9, 159124, Note_off_c, 9, 42, 64
9, 159240, Note_on_c, 9, 54, 74
9, 159244, Note_off_c, 9, 54, 64
9, 159360, Note_on_c, 9, 36, 122
9, 159364, Note_off_c, 9, 36, 64
9, 159364, Note_on_c, 9, 42, 127
9, 159364, Note_on_c, 9, 54, 106
9, 159368, Note_off_c, 9, 54, 64
9, 159368, Note_off_c, 9, 42, 64
9, 159480, Note_on_c, 9, 54, 74
9, 159484, Note_off_c, 9, 54, 64
9, 159600, Note_on_c, 9, 42, 106
9, 159600, Note_on_c, 9, 54, 127
9, 159604, Note_off_c, 9, 54, 64
9, 159604, Note_off_c, 9, 42, 64
9, 159720, Note_on_c, 9, 54, 74
9, 159724, Note_off_c, 9, 54, 64
9, 159840, Note_on_c, 9, 38, 122
9, 159844, Note_off_c, 9, 38, 64
9, 159844, Note_on_c, 9, 42, 127
9, 159844, Note_on_c, 9, 54, 106
9, 159848, Note_off_c, 9, 54, 64
9, 159848, Note_off_c, 9, 42, 64
9, 159960, Note_on_c, 9, 54, 74
9, 159964, Note_off_c, 9, 54, 64
9, 160080, Note_on_c, 9, 42, 106
9, 160080, Note_on_c, 9, 54, 127
9, 160084, Note_off_c, 9, 54, 64
9, 160084, Note_off_c, 9, 42, 64
9, 160200, Note_on_c, 9, 54, 74
9, 160204, Note_off_c, 9, 54, 64
9, 160320, Note_on_c, 9, 36, 122
9, 160324, Note_off_c, 9, 36, 64
9, 160324, Note_on_c, 9, 42, 127
9, 160324, Note_on_c, 9, 54, 106
9, 160328, Note_off_c, 9, 54, 64
9, 160328, Note_off_c, 9, 42, 64
9, 160440, Note_on_c, 9, 54, 74
9, 160444, Note_off_c, 9, 54, 64
9, 160560, Note_on_c, 9, 42, 106
9, 160560, Note_on_c, 9, 54, 127
9, 160564, Note_off_c, 9, 54, 64
9, 160564, Note_off_c, 9, 42, 64
9, 160680, Note_on_c, 9, 54, 74
9, 160684, Note_off_c, 9, 54, 64
9, 160800, Note_on_c, 9, 38, 122
9, 160804, Note_off_c, 9, 38, 64
9, 160804, Note_on_c, 9, 42, 127
9, 160804, Note_on_c, 9, 54, 106
9, 160808, Note_off_c, 9, 54, 64
9, 160808, Note_off_c, 9, 42, 64
9, 160920, Note_on_c, 9, 54, 74
9, 160924, Note_off_c, 9, 54, 64
9, 161040, Note_on_c, 9, 42, 106
9, 161040, Note_on_c, 9, 54, 127
9, 161044, Note_off_c, 9, 54, 64
9, 161044, Note_off_c, 9, 42, 64
9, 161160, Note_on_c, 9, 54, 74
9, 161164, Note_off_c, 9, 54, 64
9, 161280, Note_on_c, 9, 36, 122
9, 161284, Note_off_c, 9, 36, 64
9, 161284, Note_on_c, 9, 42, 127
9, 161284, Note_on_c, 9, 49, 122
9, 161284, Note_on_c, 9, 54, 106
9, 161288, Note_off_c, 9, 54, 64
9, 161288, Note_off_c, 9, 49, 64
9, 161288, Note_off_c, 9, 42, 64
9, 161400, Note_on_c, 9, 54, 74
9, 161404, Note_off_c, 9, 54, 64
9, 161520, Note_on_c, 9, 42, 106
9, 161520, Note_on_c, 9, 54, 127
9, 161524, Note_off_c, 9, 54, 64
9, 161524, Note_off_c, 9, 42, 64
9, 161640, Note_on_c, 9, 54, 74
9, 161644, Note_off_c, 9, 54, 64
9, 161760, Note_on_c, 9, 38, 122
9, 161764, Note_off_c, 9, 38, 64
9, 161764, Note_on_c, 9, 42, 127
9, 161764, Note_on_c, 9, 54, 106
9, 161768, Note_off_c, 9, 54, 64
9, 161768, Note_off_c, 9, 42, 64
9, 161880, Note_on_c, 9, 54, 74
9, 161884, Note_off_c, 9, 54, 64
9, 162000, Note_on_c, 9, 42, 106
9, 162000, Note_on_c, 9, 54, 127
9, 162004, Note_off_c, 9, 54, 64
9, 162004, Note_off_c, 9, 42, 64
9, 162120, Note_on_c, 9, 38, 90
9, 162120, Note_on_c, 9, 54, 74
9, 162124, Note_off_c, 9, 54, 64
9, 162124, Note_off_c, 9, 38, 64
9, 162240, Note_on_c, 9, 36, 122
9, 162244, Note_off_c, 9, 36, 64
9, 162244, Note_on_c, 9, 42, 127
9, 162244, Note_on_c, 9, 54, 106
9, 162248, Note_off_c, 9, 54, 64
9, 162248, Note_off_c, 9, 42, 64
9, 162360, Note_on_c, 9, 54, 74
9, 162364, Note_off_c, 9, 54, 64
9, 162480, Note_on_c, 9, 42, 106
9, 162480, Note_on_c, 9, 54, 127
9, 162484, Note_off_c, 9, 54, 64
9, 162484, Note_off_c, 9, 42, 64
9, 162600, Note_on_c, 9, 54, 74
9, 162604, Note_off_c, 9, 54, 64
9, 162720, Note_on_c, 9, 38, 122
9, 162724, Note_off_c, 9, 38, 64
9, 162724, Note_on_c, 9, 42, 127
9, 162724, Note_on_c, 9, 46, 122
9, 162724, Note_on_c, 9, 54, 106
9, 162728, Note_off_c, 9, 54, 64
9, 162728, Note_off_c, 9, 46, 64
9, 162728, Note_off_c, 9, 42, 64
9, 162840, Note_on_c, 9, 54, 74
9, 162844, Note_off_c, 9, 54, 64
9, 162960, Note_on_c, 9, 42, 106
9, 162960, Note_on_c, 9, 54, 127
9, 162964, Note_off_c, 9, 54, 64
9, 162964, Note_off_c, 9, 42, 64
9, 163080, Note_on_c, 9, 54, 74
9, 163084, Note_off_c, 9, 54, 64
9, 163200, Note_on_c, 9, 36, 122
9, 163204, Note_off_c, 9, 36, 64
9, 163204, Note_on_c, 9, 42, 127
9, 163204, Note_on_c, 9, 54, 106
9, 163204, Note_on_c, 9, 54, 64
9, 163208, Note_off_c, 9, 54, 64
9, 163208, Note_off_c, 9, 54, 64
9, 163208, Note_off_c, 9, 42, 64
9, 163320, Note_on_c, 9, 54, 74
9, 163324, Note_off_c, 9, 54, 64
9, 163440, Note_on_c, 9, 42, 106
9, 163440, Note_on_c, 9, 54, 127
9, 163444, Note_off_c, 9, 54, 64
9, 163444, Note_off_c, 9, 42, 64
9, 163560, Note_on_c, 9, 54, 74
9, 163564, Note_off_c, 9, 54, 64
9, 163680, Note_on_c, 9, 38, 122
9, 163684, Note_off_c, 9, 38, 64
9, 163684, Note_on_c, 9, 42, 127
9, 163684, Note_on_c, 9, 54, 106
9, 163688, Note_off_c, 9, 54, 64
9, 163688, Note_off_c, 9, 42, 64
9, 163800, Note_on_c, 9, 54, 74
9, 163804, Note_off_c, 9, 54, 64
9, 163920, Note_on_c, 9, 42, 106
9, 163920, Note_on_c, 9, 54, 127
9, 163924, Note_off_c, 9, 54, 64
9, 163924, Note_off_c, 9, 42, 64
9, 164040, Note_on_c, 9, 54, 74
9, 164044, Note_off_c, 9, 54, 64
9, 164160, Note_on_c, 9, 36, 122
9, 164164, Note_off_c, 9, 36, 64
9, 164164, Note_on_c, 9, 42, 127
9, 164164, Note_on_c, 9, 54, 106
9, 164168, Note_off_c, 9, 54, 64
9, 164168, Note_off_c, 9, 42, 64
9, 164280, Note_on_c, 9, 54, 74
9, 164284, Note_off_c, 9, 54, 64
9, 164400, Note_on_c, 9, 42, 106
9, 164400, Note_on_c, 9, 54, 127
9, 164404, Note_off_c, 9, 54, 64
9, 164404, Note_off_c, 9, 42, 64
9, 164520, Note_on_c, 9, 54, 74
9, 164524, Note_off_c, 9, 54, 64
9, 164640, Note_on_c, 9, 38, 122
9, 164644, Note_off_c, 9, 38, 64
9, 164644, Note_on_c, 9, 42, 127
9, 164644, Note_on_c, 9, 54, 106
9, 164648, Note_off_c, 9, 54, 64
9, 164648, Note_off_c, 9, 42, 64
9, 164760, Note_on_c, 9, 54, 74
9, 164764, Note_off_c, 9, 54, 64
9, 164880, Note_on_c, 9, 42, 106
9, 164880, Note_on_c, 9, 54, 127
9, 164884, Note_off_c, 9, 54, 64
9, 164884, Note_off_c, 9, 42, 64
9, 165000, Note_on_c, 9, 54, 74
9, 165004, Note_off_c, 9, 54, 64
9, 165120, Note_on_c, 9, 36, 122
9, 165124, Note_off_c, 9, 36, 64
9, 165124, Note_on_c, 9, 42, 127
9, 165124, Note_on_c, 9, 54, 106
9, 165128, Note_off_c, 9, 54, 64
9, 165128, Note_off_c, 9, 42, 64
9, 165240, Note_on_c, 9, 54, 74
9, 165244, Note_off_c, 9, 54, 64
9, 165360, Note_on_c, 9, 42, 106
9, 165360, Note_on_c, 9, 54, 127
9, 165364, Note_off_c, 9, 54, 64
9, 165364, Note_off_c, 9, 42, 64
9, 165480, Note_on_c, 9, 54, 74
9, 165484, Note_off_c, 9, 54, 64
9, 165600, Note_on_c, 9, 38, 122
9, 165604, Note_off_c, 9, 38, 64
9, 165604, Note_on_c, 9, 42, 127
9, 165604, Note_on_c, 9, 54, 106
9, 165608, Note_off_c, 9, 54, 64
9, 165608, Note_off_c, 9, 42, 64
9, 165720, Note_on_c, 9, 54, 74
9, 165724, Note_off_c, 9, 54, 64
9, 165840, Note_on_c, 9, 42, 106
9, 165840, Note_on_c, 9, 54, 127
9, 165844, Note_off_c, 9, 54, 64
9, 165844, Note_off_c, 9, 42, 64
9, 165960, Note_on_c, 9, 54, 74
9, 165964, Note_off_c, 9, 54, 64
9, 166080, Note_on_c, 9, 36, 122
9, 166084, Note_off_c, 9, 36, 64
9, 166084, Note_on_c, 9, 42, 127
9, 166084, Note_on_c, 9, 54, 106
9, 166088, Note_off_c, 9, 54, 64
9, 166088, Note_off_c, 9, 42, 64
9, 166200, Note_on_c, 9, 54, 74
9, 166204, Note_off_c, 9, 54, 64
9, 166320, Note_on_c, 9, 42, 106
9, 166320, Note_on_c, 9, 54, 127
9, 166324, Note_off_c, 9, 54, 64
9, 166324, Note_off_c, 9, 42, 64
9, 166440, Note_on_c, 9, 54, 74
9, 166444, Note_off_c, 9, 54, 64
9, 166560, Note_on_c, 9, 38, 122
9, 166564, Note_off_c, 9, 38, 64
9, 166564, Note_on_c, 9, 42, 127
9, 166564, Note_on_c, 9, 46, 122
9, 166564, Note_on_c, 9, 54, 106
9, 166568, Note_off_c, 9, 54, 64
9, 166568, Note_off_c, 9, 46, 64
9, 166568, Note_off_c, 9, 42, 64
9, 166680, Note_on_c, 9, 54, 74
9, 166684, Note_off_c, 9, 54, 64
9, 166800, Note_on_c, 9, 42, 106
9, 166800, Note_on_c, 9, 54, 127
9, 166804, Note_off_c, 9, 54, 64
9, 166804, Note_off_c, 9, 42, 64
9, 166920, Note_on_c, 9, 54, 74
9, 166924, Note_off_c, 9, 54, 64
9, 167044, Note_on_c, 9, 36, 122
9, 167044, Note_on_c, 9, 42, 127
9, 167048, Note_off_c, 9, 42, 64
9, 167048, Note_off_c, 9, 36, 64
9, 167048, Note_on_c, 9, 54, 106
9, 167052, Note_off_c, 9, 54, 64
9, 167164, Note_on_c, 9, 54, 74
9, 167168, Note_off_c, 9, 54, 64
9, 167280, Note_on_c, 9, 42, 106
9, 167280, Note_on_c, 9, 54, 127
9, 167284, Note_off_c, 9, 54, 64
9, 167284, Note_off_c, 9, 42, 64
9, 167400, Note_on_c, 9, 54, 74
9, 167404, Note_off_c, 9, 54, 64
9, 167520, Note_on_c, 9, 38, 122
9, 167524, Note_off_c, 9, 38, 64
9, 167524, Note_on_c, 9, 42, 127
9, 167524, Note_on_c, 9, 54, 106
9, 167528, Note_off_c, 9, 54, 64
9, 167528, Note_off_c, 9, 42, 64
9, 167640, Note_on_c, 9, 54, 74
9, 167644, Note_off_c, 9, 54, 64
9, 167760, Note_on_c, 9, 42, 106
9, 167760, Note_on_c, 9, 54, 127
9, 167764, Note_off_c, 9, 54, 64
9, 167764, Note_off_c, 9, 42, 64
9, 167880, Note_on_c, 9, 54, 74
9, 167884, Note_off_c, 9, 54, 64
9, 168000, Note_on_c, 9, 36, 122
9, 168004, Note_off_c, 9, 36, 64
9, 168004, Note_on_c, 9, 42, 127
9, 168004, Note_on_c, 9, 54, 106
9, 168008, Note_off_c, 9, 54, 64
9, 168008, Note_off_c, 9, 42, 64
9, 168120, Note_on_c, 9, 54, 74
9, 168124, Note_off_c, 9, 54, 64
9, 168240, Note_on_c, 9, 42, 106
9, 168240, Note_on_c, 9, 54, 127
9, 168244, Note_off_c, 9, 54, 64
9, 168244, Note_off_c, 9, 42, 64
9, 168360, Note_on_c, 9, 54, 74
9, 168364, Note_off_c, 9, 54, 64
9, 168480, Note_on_c, 9, 38, 122
9, 168484, Note_off_c, 9, 38, 64
9, 168484, Note_on_c, 9, 42, 127
9, 168484, Note_on_c, 9, 54, 106
9, 168488, Note_off_c, 9, 54, 64
9, 168488, Note_off_c, 9, 42, 64
9, 168600, Note_on_c, 9, 54, 74
9, 168604, Note_off_c, 9, 54, 64
9, 168720, Note_on_c, 9, 42, 106
9, 168720, Note_on_c, 9, 54, 127
9, 168724, Note_off_c, 9, 54, 64
9, 168724, Note_off_c, 9, 42, 64
9, 168840, Note_on_c, 9, 54, 74
9, 168844, Note_off_c, 9, 54, 64
9, 168964, Note_on_c, 9, 36, 122
9, 168964, Note_on_c, 9, 42, 127
9, 168964, Note_on_c, 9, 54, 106
9, 168968, Note_off_c, 9, 54, 64
9, 168968, Note_off_c, 9, 42, 64
9, 168968, Note_off_c, 9, 36, 64
9, 169080, Note_on_c, 9, 54, 74
9, 169084, Note_off_c, 9, 54, 64
9, 169200, Note_on_c, 9, 42, 106
9, 169200, Note_on_c, 9, 54, 127
9, 169204, Note_off_c, 9, 54, 64
9, 169204, Note_off_c, 9, 42, 64
9, 169320, Note_on_c, 9, 54, 74
9, 169324, Note_off_c, 9, 54, 64
9, 169440, Note_on_c, 9, 38, 122
9, 169444, Note_off_c, 9, 38, 64
9, 169444, Note_on_c, 9, 42, 127
9, 169444, Note_on_c, 9, 54, 106
9, 169448, Note_off_c, 9, 54, 64
9, 169448, Note_off_c, 9, 42, 64
9, 169560, Note_on_c, 9, 54, 74
9, 169564, Note_off_c, 9, 54, 64
9, 169680, Note_on_c, 9, 42, 106
9, 169680, Note_on_c, 9, 54, 127
9, 169684, Note_off_c, 9, 54, 64
9, 169684, Note_off_c, 9, 42, 64
9, 169800, Note_on_c, 9, 54, 74
9, 169804, Note_off_c, 9, 54, 64
9, 169920, Note_on_c, 9, 36, 122
9, 169924, Note_off_c, 9, 36, 64
9, 169924, Note_on_c, 9, 42, 127
9, 169924, Note_on_c, 9, 54, 106
9, 169928, Note_off_c, 9, 54, 64
9, 169928, Note_off_c, 9, 42, 64
9, 170040, Note_on_c, 9, 54, 74
9, 170044, Note_off_c, 9, 54, 64
9, 170160, Note_on_c, 9, 42, 106
9, 170160, Note_on_c, 9, 54, 127
9, 170164, Note_off_c, 9, 54, 64
9, 170164, Note_off_c, 9, 42, 64
9, 170280, Note_on_c, 9, 54, 74
9, 170284, Note_off_c, 9, 54, 64
9, 170400, Note_on_c, 9, 38, 122
9, 170404, Note_off_c, 9, 38, 64
9, 170404, Note_on_c, 9, 42, 127
9, 170404, Note_on_c, 9, 46, 122
9, 170404, Note_on_c, 9, 54, 106
9, 170408, Note_off_c, 9, 54, 64
9, 170408, Note_off_c, 9, 46, 64
9, 170408, Note_off_c, 9, 42, 64
9, 170520, Note_on_c, 9, 54, 74
9, 170524, Note_off_c, 9, 54, 64
9, 170640, Note_on_c, 9, 42, 106
9, 170640, Note_on_c, 9, 54, 127
9, 170644, Note_off_c, 9, 54, 64
9, 170644, Note_off_c, 9, 42, 64
9, 170760, Note_on_c, 9, 54, 74
9, 170764, Note_off_c, 9, 54, 64
9, 170884, Note_on_c, 9, 36, 122
9, 170884, Note_on_c, 9, 42, 127
9, 170884, Note_on_c, 9, 54, 106
9, 170888, Note_off_c, 9, 54, 64
9, 170888, Note_off_c, 9, 42, 64
9, 170888, Note_off_c, 9, 36, 64
9, 171000, Note_on_c, 9, 54, 74
9, 171004, Note_off_c, 9, 54, 64
9, 171120, Note_on_c, 9, 42, 106
9, 171120, Note_on_c, 9, 54, 127
9, 171124, Note_off_c, 9, 54, 64
9, 171124, Note_off_c, 9, 42, 64
9, 171240, Note_on_c, 9, 54, 74
9, 171244, Note_off_c, 9, 54, 64
9, 171360, Note_on_c, 9, 38, 122
9, 171364, Note_off_c, 9, 38, 64
9, 171364, Note_on_c, 9, 42, 127
9, 171364, Note_on_c, 9, 54, 106
9, 171368, Note_off_c, 9, 54, 64
9, 171368, Note_off_c, 9, 42, 64
9, 171480, Note_on_c, 9, 54, 74
9, 171484, Note_off_c, 9, 54, 64
9, 171600, Note_on_c, 9, 42, 106
9, 171600, Note_on_c, 9, 54, 127
9, 171604, Note_off_c, 9, 54, 64
9, 171604, Note_off_c, 9, 42, 64
9, 171720, Note_on_c, 9, 54, 74
9, 171724, Note_off_c, 9, 54, 64
9, 171840, Note_on_c, 9, 36, 122
9, 171844, Note_off_c, 9, 36, 64
9, 171844, Note_on_c, 9, 42, 127
9, 171844, Note_on_c, 9, 54, 106
9, 171848, Note_off_c, 9, 54, 64
9, 171848, Note_off_c, 9, 42, 64
9, 171960, Note_on_c, 9, 54, 74
9, 171964, Note_off_c, 9, 54, 64
9, 172080, Note_on_c, 9, 42, 106
9, 172080, Note_on_c, 9, 54, 127
9, 172084, Note_off_c, 9, 54, 64
9, 172084, Note_off_c, 9, 42, 64
9, 172200, Note_on_c, 9, 54, 74
9, 172204, Note_off_c, 9, 54, 64
9, 172320, Note_on_c, 9, 38, 122
9, 172324, Note_off_c, 9, 38, 64
9, 172324, Note_on_c, 9, 42, 127
9, 172324, Note_on_c, 9, 54, 106
9, 172328, Note_off_c, 9, 54, 64
9, 172328, Note_off_c, 9, 42, 64
9, 172440, Note_on_c, 9, 54, 74
9, 172444, Note_off_c, 9, 54, 64
9, 172560, Note_on_c, 9, 42, 106
9, 172560, Note_on_c, 9, 54, 127
9, 172564, Note_off_c, 9, 54, 64
9, 172564, Note_off_c, 9, 42, 64
9, 172680, Note_on_c, 9, 54, 74
9, 172684, Note_off_c, 9, 54, 64
9, 172800, Note_on_c, 9, 36, 122
9, 172804, Note_off_c, 9, 36, 64
9, 172804, Note_on_c, 9, 42, 127
9, 172804, Note_on_c, 9, 54, 106
9, 172808, Note_off_c, 9, 54, 64
9, 172808, Note_off_c, 9, 42, 64
9, 172920, Note_on_c, 9, 54, 74
9, 172924, Note_off_c, 9, 54, 64
9, 173040, Note_on_c, 9, 42, 106
9, 173040, Note_on_c, 9, 54, 127
9, 173044, Note_off_c, 9, 54, 64
9, 173044, Note_off_c, 9, 42, 64
9, 173160, Note_on_c, 9, 54, 74
9, 173164, Note_off_c, 9, 54, 64
9, 173280, Note_on_c, 9, 38, 122
9, 173284, Note_off_c, 9, 38, 64
9, 173284, Note_on_c, 9, 42, 127
9, 173284, Note_on_c, 9, 54, 106
9, 173288, Note_off_c, 9, 54, 64
9, 173288, Note_off_c, 9, 42, 64
9, 173400, Note_on_c, 9, 54, 74
9, 173404, Note_off_c, 9, 54, 64
9, 173520, Note_on_c, 9, 42, 106
9, 173520, Note_on_c, 9, 54, 127
9, 173524, Note_off_c, 9, 54, 64
9, 173524, Note_off_c, 9, 42, 64
9, 173640, Note_on_c, 9, 54, 74
9, 173644, Note_off_c, 9, 54, 64
9, 173760, Note_on_c, 9, 36, 122
9, 173764, Note_off_c, 9, 36, 64
9, 173764, Note_on_c, 9, 42, 127
9, 173764, Note_on_c, 9, 54, 106
9, 173768, Note_off_c, 9, 54, 64
9, 173768, Note_off_c, 9, 42, 64
9, 173880, Note_on_c, 9, 54, 74
9, 173884, Note_off_c, 9, 54, 64
9, 174000, Note_on_c, 9, 42, 106
9, 174000, Note_on_c, 9, 54, 127
9, 174004, Note_off_c, 9, 54, 64
9, 174004, Note_off_c, 9, 42, 64
9, 174120, Note_on_c, 9, 54, 74
9, 174124, Note_off_c, 9, 54, 64
9, 174240, Note_on_c, 9, 38, 122
9, 174244, Note_off_c, 9, 38, 64
9, 174244, Note_on_c, 9, 42, 127
9, 174244, Note_on_c, 9, 46, 122
9, 174244, Note_on_c, 9, 54, 106
9, 174248, Note_off_c, 9, 54, 64
9, 174248, Note_off_c, 9, 46, 64
9, 174248, Note_off_c, 9, 42, 64
9, 174360, Note_on_c, 9, 54, 74
9, 174364, Note_off_c, 9, 54, 64
9, 174480, Note_on_c, 9, 42, 106
9, 174480, Note_on_c, 9, 54, 127
9, 174484, Note_off_c, 9, 54, 64
9, 174484, Note_off_c, 9, 42, 64
9, 174600, Note_on_c, 9, 54, 74
9, 174604, Note_off_c, 9, 54, 64
9, 174720, Note_on_c, 9, 36, 122
9, 174724, Note_off_c, 9, 36, 64
9, 174724, Note_on_c, 9, 42, 127
9, 174724, Note_on_c, 9, 54, 106
9, 174728, Note_off_c, 9, 54, 64
9, 174728, Note_off_c, 9, 42, 64
9, 174840, Note_on_c, 9, 54, 74
9, 174844, Note_off_c, 9, 54, 64
9, 174960, Note_on_c, 9, 42, 106
9, 174960, Note_on_c, 9, 54, 127
9, 174964, Note_off_c, 9, 54, 64
9, 174964, Note_off_c, 9, 42, 64
9, 175080, Note_on_c, 9, 54, 74
9, 175084, Note_off_c, 9, 54, 64
9, 175200, Note_on_c, 9, 38, 122
9, 175204, Note_off_c, 9, 38, 64
9, 175204, Note_on_c, 9, 42, 127
9, 175204, Note_on_c, 9, 54, 106
9, 175208, Note_off_c, 9, 54, 64
9, 175208, Note_off_c, 9, 42, 64
9, 175320, Note_on_c, 9, 54, 74
9, 175324, Note_off_c, 9, 54, 64
9, 175440, Note_on_c, 9, 42, 106
9, 175440, Note_on_c, 9, 54, 127
9, 175444, Note_off_c, 9, 54, 64
9, 175444, Note_off_c, 9, 42, 64
9, 175560, Note_on_c, 9, 54, 74
9, 175564, Note_off_c, 9, 54, 64
9, 175680, Note_on_c, 9, 36, 122
9, 175684, Note_off_c, 9, 36, 64
9, 175684, Note_on_c, 9, 42, 127
9, 175684, Note_on_c, 9, 54, 106
9, 175688, Note_off_c, 9, 54, 64
9, 175688, Note_off_c, 9, 42, 64
9, 175800, Note_on_c, 9, 54, 74
9, 175804, Note_off_c, 9, 54, 64
9, 175920, Note_on_c, 9, 42, 106
9, 175920, Note_on_c, 9, 54, 127
9, 175924, Note_off_c, 9, 54, 64
9, 175924, Note_off_c, 9, 42, 64
9, 176040, Note_on_c, 9, 54, 74
9, 176044, Note_off_c, 9, 54, 64
9, 176160, Note_on_c, 9, 38, 122
9, 176164, Note_off_c, 9, 38, 64
9, 176164, Note_on_c, 9, 42, 127
9, 176164, Note_on_c, 9, 54, 106
9, 176168, Note_off_c, 9, 54, 64
9, 176168, Note_off_c, 9, 42, 64
9, 176280, Note_on_c, 9, 54, 74
9, 176284, Note_off_c, 9, 54, 64
9, 176400, Note_on_c, 9, 42, 106
9, 176400, Note_on_c, 9, 54, 127
9, 176404, Note_off_c, 9, 54, 64
9, 176404, Note_off_c, 9, 42, 64
9, 176520, Note_on_c, 9, 54, 74
9, 176524, Note_off_c, 9, 54, 64
9, 176644, Note_on_c, 9, 36, 122
9, 176644, Note_on_c, 9, 42, 127
9, 176644, Note_on_c, 9, 49, 122
9, 176644, Note_on_c, 9, 54, 106
9, 176648, Note_off_c, 9, 54, 64
9, 176648, Note_off_c, 9, 49, 64
9, 176648, Note_off_c, 9, 42, 64
9, 176648, Note_off_c, 9, 36, 64
9, 176760, Note_on_c, 9, 54, 74
9, 176764, Note_off_c, 9, 54, 64
9, 176880, Note_on_c, 9, 42, 106
9, 176880, Note_on_c, 9, 54, 127
9, 176884, Note_off_c, 9, 54, 64
9, 176884, Note_off_c, 9, 42, 64
9, 177000, Note_on_c, 9, 54, 74
9, 177004, Note_off_c, 9, 54, 64
9, 177120, Note_on_c, 9, 38, 122
9, 177124, Note_off_c, 9, 38, 64
9, 177124, Note_on_c, 9, 42, 127
9, 177124, Note_on_c, 9, 54, 106
9, 177128, Note_off_c, 9, 54, 64
9, 177128, Note_off_c, 9, 42, 64
9, 177240, Note_on_c, 9, 54, 74
9, 177244, Note_off_c, 9, 54, 64
9, 177360, Note_on_c, 9, 42, 106
9, 177360, Note_on_c, 9, 54, 127
9, 177364, Note_off_c, 9, 54, 64
9, 177364, Note_off_c, 9, 42, 64
9, 177480, Note_on_c, 9, 54, 74
9, 177484, Note_off_c, 9, 54, 64
9, 177600, Note_on_c, 9, 36, 122
9, 177604, Note_off_c, 9, 36, 64
9, 177604, Note_on_c, 9, 42, 127
9, 177604, Note_on_c, 9, 54, 106
9, 177608, Note_off_c, 9, 54, 64
9, 177608, Note_off_c, 9, 42, 64
9, 177720, Note_on_c, 9, 54, 74
9, 177724, Note_off_c, 9, 54, 64
9, 177840, Note_on_c, 9, 42, 106
9, 177840, Note_on_c, 9, 54, 127
9, 177844, Note_off_c, 9, 54, 64
9, 177844, Note_off_c, 9, 42, 64
9, 177960, Note_on_c, 9, 54, 74
9, 177964, Note_off_c, 9, 54, 64
9, 178080, Note_on_c, 9, 38, 122
9, 178084, Note_off_c, 9, 38, 64
9, 178084, Note_on_c, 9, 42, 127
9, 178084, Note_on_c, 9, 46, 127
9, 178084, Note_on_c, 9, 54, 106
9, 178088, Note_off_c, 9, 54, 64
9, 178088, Note_off_c, 9, 46, 64
9, 178088, Note_off_c, 9, 42, 64
9, 178200, Note_on_c, 9, 54, 74
9, 178204, Note_off_c, 9, 54, 64
9, 178320, Note_on_c, 9, 42, 106
9, 178320, Note_on_c, 9, 54, 127
9, 178324, Note_off_c, 9, 54, 64
9, 178324, Note_off_c, 9, 42, 64
9, 178440, Note_on_c, 9, 54, 74
9, 178444, Note_off_c, 9, 54, 64
9, 178560, Note_on_c, 9, 36, 122
9, 178564, Note_off_c, 9, 36, 64
9, 178564, Note_on_c, 9, 42, 127
9, 178564, Note_on_c, 9, 54, 106
9, 178568, Note_off_c, 9, 54, 64
9, 178568, Note_off_c, 9, 42, 64
9, 178680, Note_on_c, 9, 54, 74
9, 178684, Note_off_c, 9, 54, 64
9, 178800, Note_on_c, 9, 42, 106
9, 178800, Note_on_c, 9, 54, 127
9, 178804, Note_off_c, 9, 54, 64
9, 178804, Note_off_c, 9, 42, 64
9, 178920, Note_on_c, 9, 54, 74
9, 178924, Note_off_c, 9, 54, 64
9, 179040, Note_on_c, 9, 38, 122
9, 179044, Note_off_c, 9, 38, 64
9, 179044, Note_on_c, 9, 42, 127
9, 179044, Note_on_c, 9, 54, 106
9, 179048, Note_off_c, 9, 54, 64
9, 179048, Note_off_c, 9, 42, 64
9, 179160, Note_on_c, 9, 54, 74
9, 179164, Note_off_c, 9, 54, 64
9, 179280, Note_on_c, 9, 42, 106
9, 179280, Note_on_c, 9, 54, 127
9, 179284, Note_off_c, 9, 54, 64
9, 179284, Note_off_c, 9, 42, 64
9, 179400, Note_on_c, 9, 54, 74
9, 179404, Note_off_c, 9, 54, 64
9, 179520, Note_on_c, 9, 36, 122
9, 179524, Note_off_c, 9, 36, 64
9, 179524, Note_on_c, 9, 42, 127
9, 179524, Note_on_c, 9, 54, 106
9, 179528, Note_off_c, 9, 54, 64
9, 179528, Note_off_c, 9, 42, 64
9, 179640, Note_on_c, 9, 54, 74
9, 179644, Note_off_c, 9, 54, 64
9, 179760, Note_on_c, 9, 42, 106
9, 179760, Note_on_c, 9, 54, 127
9, 179764, Note_off_c, 9, 54, 64
9, 179764, Note_off_c, 9, 42, 64
9, 179880, Note_on_c, 9, 54, 74
9, 179884, Note_off_c, 9, 54, 64
9, 180000, Note_on_c, 9, 38, 122
9, 180004, Note_off_c, 9, 38, 64
9, 180004, Note_on_c, 9, 42, 127
9, 180004, Note_on_c, 9, 54, 106
9, 180008, Note_off_c, 9, 54, 64
9, 180008, Note_off_c, 9, 42, 64
9, 180120, Note_on_c, 9, 54, 74
9, 180124, Note_off_c, 9, 54, 64
9, 180240, Note_on_c, 9, 42, 106
9, 180240, Note_on_c, 9, 54, 127
9, 180244, Note_off_c, 9, 54, 64
9, 180244, Note_off_c, 9, 42, 64
9, 180360, Note_on_c, 9, 54, 74
9, 180364, Note_off_c, 9, 54, 64
9, 180484, Note_on_c, 9, 36, 122
9, 180484, Note_on_c, 9, 42, 127
9, 180484, Note_on_c, 9, 54, 106
9, 180488, Note_off_c, 9, 54, 64
9, 180488, Note_off_c, 9, 42, 64
9, 180488, Note_off_c, 9, 36, 64
9, 180600, Note_on_c, 9, 54, 74
9, 180604, Note_off_c, 9, 54, 64
9, 180720, Note_on_c, 9, 42, 106
9, 180720, Note_on_c, 9, 54, 127
9, 180724, Note_off_c, 9, 54, 64
9, 180724, Note_off_c, 9, 42, 64
9, 180840, Note_on_c, 9, 54, 74
9, 180844, Note_off_c, 9, 54, 64
9, 180960, Note_on_c, 9, 38, 122
9, 180964, Note_off_c, 9, 38, 64
9, 180964, Note_on_c, 9, 42, 127
9, 180964, Note_on_c, 9, 54, 106
9, 180968, Note_off_c, 9, 54, 64
9, 180968, Note_off_c, 9, 42, 64
9, 181080, Note_on_c, 9, 54, 74
9, 181084, Note_off_c, 9, 54, 64
9, 181200, Note_on_c, 9, 42, 106
9, 181200, Note_on_c, 9, 54, 127
9, 181204, Note_off_c, 9, 54, 64
9, 181204, Note_off_c, 9, 42, 64
9, 181320, Note_on_c, 9, 54, 74
9, 181324, Note_off_c, 9, 54, 64
9, 181440, Note_on_c, 9, 36, 122
9, 181444, Note_off_c, 9, 36, 64
9, 181444, Note_on_c, 9, 42, 127
9, 181444, Note_on_c, 9, 54, 106
9, 181448, Note_off_c, 9, 54, 64
9, 181448, Note_off_c, 9, 42, 64
9, 181560, Note_on_c, 9, 54, 74
9, 181564, Note_off_c, 9, 54, 64
9, 181680, Note_on_c, 9, 42, 106
9, 181680, Note_on_c, 9, 54, 127
9, 181684, Note_off_c, 9, 54, 64
9, 181684, Note_off_c, 9, 42, 64
9, 181800, Note_on_c, 9, 54, 74
9, 181804, Note_off_c, 9, 54, 64
9, 181920, Note_on_c, 9, 38, 122
9, 181924, Note_off_c, 9, 38, 64
9, 181924, Note_on_c, 9, 42, 127
9, 181924, Note_on_c, 9, 46, 122
9, 181924, Note_on_c, 9, 54, 106
9, 181928, Note_off_c, 9, 54, 64
9, 181928, Note_off_c, 9, 46, 64
9, 181928, Note_off_c, 9, 42, 64
9, 182040, Note_on_c, 9, 54, 74
9, 182044, Note_off_c, 9, 54, 64
9, 182160, Note_on_c, 9, 42, 106
9, 182160, Note_on_c, 9, 54, 127
9, 182164, Note_off_c, 9, 54, 64
9, 182164, Note_off_c, 9, 42, 64
9, 182280, Note_on_c, 9, 54, 74
9, 182284, Note_off_c, 9, 54, 64
9, 182400, Note_on_c, 9, 36, 122
9, 182404, Note_off_c, 9, 36, 64
9, 182404, Note_on_c, 9, 42, 127
9, 182404, Note_on_c, 9, 54, 106
9, 182408, Note_off_c, 9, 54, 64
9, 182408, Note_off_c, 9, 42, 64
9, 182520, Note_on_c, 9, 54, 74
9, 182524, Note_off_c, 9, 54, 64
9, 182640, Note_on_c, 9, 42, 106
9, 182640, Note_on_c, 9, 54, 127
9, 182644, Note_off_c, 9, 54, 64
9, 182644, Note_off_c, 9, 42, 64
9, 182760, Note_on_c, 9, 54, 74
9, 182764, Note_off_c, 9, 54, 64
9, 182880, Note_on_c, 9, 38, 122
9, 182884, Note_off_c, 9, 38, 64
9, 182884, Note_on_c, 9, 42, 127
9, 182884, Note_on_c, 9, 54, 106
9, 182888, Note_off_c, 9, 54, 64
9, 182888, Note_off_c, 9, 42, 64
9, 183000, Note_on_c, 9, 54, 74
9, 183004, Note_off_c, 9, 54, 64
9, 183120, Note_on_c, 9, 42, 106
9, 183120, Note_on_c, 9, 54, 127
9, 183124, Note_off_c, 9, 54, 64
9, 183124, Note_off_c, 9, 42, 64
9, 183240, Note_on_c, 9, 54, 74
9, 183244, Note_off_c, 9, 54, 64
9, 183360, Note_on_c, 9, 36, 122
9, 183364, Note_off_c, 9, 36, 64
9, 183364, Note_on_c, 9, 42, 127
9, 183364, Note_on_c, 9, 54, 106
9, 183368, Note_off_c, 9, 54, 64
9, 183368, Note_off_c, 9, 42, 64
9, 183480, Note_on_c, 9, 54, 74
9, 183484, Note_off_c, 9, 54, 64
9, 183600, Note_on_c, 9, 42, 106
9, 183600, Note_on_c, 9, 54, 127
9, 183604, Note_off_c, 9, 54, 64
9, 183604, Note_off_c, 9, 42, 64
9, 183720, Note_on_c, 9, 54, 74
9, 183724, Note_off_c, 9, 54, 64
9, 183840, Note_on_c, 9, 38, 122
9, 183844, Note_off_c, 9, 38, 64
9, 183844, Note_on_c, 9, 42, 127
9, 183844, Note_on_c, 9, 54, 106
9, 183848, Note_off_c, 9, 54, 64
9, 183848, Note_off_c, 9, 42, 64
9, 183960, Note_on_c, 9, 54, 74
9, 183964, Note_off_c, 9, 54, 64
9, 184080, Note_on_c, 9, 42, 106
9, 184080, Note_on_c, 9, 54, 127
9, 184084, Note_off_c, 9, 54, 64
9, 184084, Note_off_c, 9, 42, 64
9, 184200, Note_on_c, 9, 54, 74
9, 184204, Note_off_c, 9, 54, 64
9, 184324, Note_on_c, 9, 36, 122
9, 184324, Note_on_c, 9, 42, 127
9, 184324, Note_on_c, 9, 49, 122
9, 184324, Note_on_c, 9, 54, 106
9, 184328, Note_off_c, 9, 54, 64
9, 184328, Note_off_c, 9, 49, 64
9, 184328, Note_off_c, 9, 42, 64
9, 184328, Note_off_c, 9, 36, 64
9, 184440, Note_on_c, 9, 54, 74
9, 184444, Note_off_c, 9, 54, 64
9, 184560, Note_on_c, 9, 42, 106
9, 184560, Note_on_c, 9, 54, 127
9, 184564, Note_off_c, 9, 54, 64
9, 184564, Note_off_c, 9, 42, 64
9, 184680, Note_on_c, 9, 54, 74
9, 184684, Note_off_c, 9, 54, 64
9, 184800, Note_on_c, 9, 38, 122
9, 184804, Note_off_c, 9, 38, 64
9, 184804, Note_on_c, 9, 42, 127
9, 184804, Note_on_c, 9, 54, 106
9, 184808, Note_off_c, 9, 54, 64
9, 184808, Note_off_c, 9, 42, 64
9, 184920, Note_on_c, 9, 54, 74
9, 184924, Note_off_c, 9, 54, 64
9, 185040, Note_on_c, 9, 42, 106
9, 185040, Note_on_c, 9, 54, 127
9, 185044, Note_off_c, 9, 54, 64
9, 185044, Note_off_c, 9, 42, 64
9, 185160, Note_on_c, 9, 54, 74
9, 185164, Note_off_c, 9, 54, 64
9, 185280, Note_on_c, 9, 36, 122
9, 185284, Note_off_c, 9, 36, 64
9, 185284, Note_on_c, 9, 42, 127
9, 185284, Note_on_c, 9, 54, 106
9, 185288, Note_off_c, 9, 54, 64
9, 185288, Note_off_c, 9, 42, 64
9, 185400, Note_on_c, 9, 54, 74
9, 185404, Note_off_c, 9, 54, 64
9, 185520, Note_on_c, 9, 42, 106
9, 185520, Note_on_c, 9, 54, 127
9, 185524, Note_off_c, 9, 54, 64
9, 185524, Note_off_c, 9, 42, 64
9, 185640, Note_on_c, 9, 54, 74
9, 185644, Note_off_c, 9, 54, 64
9, 185760, Note_on_c, 9, 38, 122
9, 185764, Note_off_c, 9, 38, 64
9, 185764, Note_on_c, 9, 42, 127
9, 185764, Note_on_c, 9, 46, 127
9, 185764, Note_on_c, 9, 54, 106
9, 185768, Note_off_c, 9, 54, 64
9, 185768, Note_off_c, 9, 46, 64
9, 185768, Note_off_c, 9, 42, 64
9, 185880, Note_on_c, 9, 54, 74
9, 185884, Note_off_c, 9, 54, 64
9, 186000, Note_on_c, 9, 42, 106
9, 186000, Note_on_c, 9, 54, 127
9, 186004, Note_off_c, 9, 54, 64
9, 186004, Note_off_c, 9, 42, 64
9, 186120, Note_on_c, 9, 54, 74
9, 186124, Note_off_c, 9, 54, 64
9, 186240, Note_on_c, 9, 36, 122
9, 186244, Note_off_c, 9, 36, 64
9, 186244, Note_on_c, 9, 42, 127
9, 186244, Note_on_c, 9, 54, 106
9, 186248, Note_off_c, 9, 54, 64
9, 186248, Note_off_c, 9, 42, 64
9, 186360, Note_on_c, 9, 54, 74
9, 186364, Note_off_c, 9, 54, 64
9, 186480, Note_on_c, 9, 42, 106
9, 186480, Note_on_c, 9, 54, 127
9, 186484, Note_off_c, 9, 54, 64
9, 186484, Note_off_c, 9, 42, 64
9, 186600, Note_on_c, 9, 54, 74
9, 186604, Note_off_c, 9, 54, 64
9, 186720, Note_on_c, 9, 38, 122
9, 186724, Note_off_c, 9, 38, 64
9, 186724, Note_on_c, 9, 42, 127
9, 186724, Note_on_c, 9, 54, 106
9, 186728, Note_off_c, 9, 54, 64
9, 186728, Note_off_c, 9, 42, 64
9, 186840, Note_on_c, 9, 54, 74
9, 186844, Note_off_c, 9, 54, 64
9, 186960, Note_on_c, 9, 42, 106
9, 186960, Note_on_c, 9, 54, 127
9, 186964, Note_off_c, 9, 54, 64
9, 186964, Note_off_c, 9, 42, 64
9, 187080, Note_on_c, 9, 54, 74
9, 187084, Note_off_c, 9, 54, 64
9, 187200, Note_on_c, 9, 36, 122
9, 187204, Note_off_c, 9, 36, 64
9, 187204, Note_on_c, 9, 42, 127
9, 187204, Note_on_c, 9, 54, 106
9, 187208, Note_off_c, 9, 54, 64
9, 187208, Note_off_c, 9, 42, 64
9, 187320, Note_on_c, 9, 54, 74
9, 187324, Note_off_c, 9, 54, 64
9, 187440, Note_on_c, 9, 42, 106
9, 187440, Note_on_c, 9, 54, 127
9, 187444, Note_off_c, 9, 54, 64
9, 187444, Note_off_c, 9, 42, 64
9, 187560, Note_on_c, 9, 54, 74
9, 187564, Note_off_c, 9, 54, 64
9, 187680, Note_on_c, 9, 38, 122
9, 187684, Note_off_c, 9, 38, 64
9, 187684, Note_on_c, 9, 42, 127
9, 187684, Note_on_c, 9, 54, 106
9, 187688, Note_off_c, 9, 54, 64
9, 187688, Note_off_c, 9, 42, 64
9, 187800, Note_on_c, 9, 54, 74
9, 187804, Note_off_c, 9, 54, 64
9, 187920, Note_on_c, 9, 42, 106
9, 187920, Note_on_c, 9, 54, 127
9, 187924, Note_off_c, 9, 54, 64
9, 187924, Note_off_c, 9, 42, 64
9, 188040, Note_on_c, 9, 54, 74
9, 188044, Note_off_c, 9, 54, 64
9, 188164, Note_on_c, 9, 36, 122
9, 188164, Note_on_c, 9, 42, 127
9, 188164, Note_on_c, 9, 54, 106
9, 188168, Note_off_c, 9, 54, 64
9, 188168, Note_off_c, 9, 42, 64
9, 188168, Note_off_c, 9, 36, 64
9, 188280, Note_on_c, 9, 54, 74
9, 188284, Note_off_c, 9, 54, 64
9, 188400, Note_on_c, 9, 42, 106
9, 188400, Note_on_c, 9, 54, 127
9, 188404, Note_off_c, 9, 54, 64
9, 188404, Note_off_c, 9, 42, 64
9, 188520, Note_on_c, 9, 54, 74
9, 188524, Note_off_c, 9, 54, 64
9, 188640, Note_on_c, 9, 38, 122
9, 188644, Note_off_c, 9, 38, 64
9, 188644, Note_on_c, 9, 42, 127
9, 188644, Note_on_c, 9, 54, 106
9, 188648, Note_off_c, 9, 54, 64
9, 188648, Note_off_c, 9, 42, 64
9, 188760, Note_on_c, 9, 54, 74
9, 188764, Note_off_c, 9, 54, 64
9, 188880, Note_on_c, 9, 42, 106
9, 188880, Note_on_c, 9, 54, 127
9, 188884, Note_off_c, 9, 54, 64
9, 188884, Note_off_c, 9, 42, 64
9, 189000, Note_on_c, 9, 54, 74
9, 189004, Note_off_c, 9, 54, 64
9, 189120, Note_on_c, 9, 36, 122
9, 189124, Note_off_c, 9, 36, 64
9, 189124, Note_on_c, 9, 42, 127
9, 189124, Note_on_c, 9, 54, 106
9, 189128, Note_off_c, 9, 54, 64
9, 189128, Note_off_c, 9, 42, 64
9, 189240, Note_on_c, 9, 54, 74
9, 189244, Note_off_c, 9, 54, 64
9, 189360, Note_on_c, 9, 42, 106
9, 189360, Note_on_c, 9, 54, 127
9, 189364, Note_off_c, 9, 54, 64
9, 189364, Note_off_c, 9, 42, 64
9, 189480, Note_on_c, 9, 54, 74
9, 189484, Note_off_c, 9, 54, 64
9, 189600, Note_on_c, 9, 38, 122
9, 189604, Note_off_c, 9, 38, 64
9, 189604, Note_on_c, 9, 42, 127
9, 189604, Note_on_c, 9, 46, 122
9, 189604, Note_on_c, 9, 54, 106
9, 189608, Note_off_c, 9, 54, 64
9, 189608, Note_off_c, 9, 46, 64
9, 189608, Note_off_c, 9, 42, 64
9, 189720, Note_on_c, 9, 54, 74
9, 189724, Note_off_c, 9, 54, 64
9, 189840, Note_on_c, 9, 42, 106
9, 189840, Note_on_c, 9, 54, 127
9, 189844, Note_off_c, 9, 54, 64
9, 189844, Note_off_c, 9, 42, 64
9, 189960, Note_on_c, 9, 54, 74
9, 189964, Note_off_c, 9, 54, 64
9, 190080, Note_on_c, 9, 36, 122
9, 190084, Note_off_c, 9, 36, 64
9, 190084, Note_on_c, 9, 42, 127
9, 190084, Note_on_c, 9, 54, 106
9, 190088, Note_off_c, 9, 54, 64
9, 190088, Note_off_c, 9, 42, 64
9, 190200, Note_on_c, 9, 54, 74
9, 190204, Note_off_c, 9, 54, 64
9, 190320, Note_on_c, 9, 42, 106
9, 190320, Note_on_c, 9, 54, 127
9, 190324, Note_off_c, 9, 54, 64
9, 190324, Note_off_c, 9, 42, 64
9, 190440, Note_on_c, 9, 54, 74
9, 190444, Note_off_c, 9, 54, 64
9, 190560, Note_on_c, 9, 38, 122
9, 190564, Note_off_c, 9, 38, 64
9, 190564, Note_on_c, 9, 42, 127
9, 190564, Note_on_c, 9, 54, 106
9, 190568, Note_off_c, 9, 54, 64
9, 190568, Note_off_c, 9, 42, 64
9, 190680, Note_on_c, 9, 54, 74
9, 190684, Note_off_c, 9, 54, 64
9, 190800, Note_on_c, 9, 42, 106
9, 190800, Note_on_c, 9, 54, 127
9, 190804, Note_off_c, 9, 54, 64
9, 190804, Note_off_c, 9, 42, 64
9, 190920, Note_on_c, 9, 54, 74
9, 190924, Note_off_c, 9, 54, 64
9, 191040, Note_on_c, 9, 36, 122
9, 191044, Note_off_c, 9, 36, 64
9, 191044, Note_on_c, 9, 42, 127
9, 191044, Note_on_c, 9, 54, 106
9, 191048, Note_off_c, 9, 54, 64
9, 191048, Note_off_c, 9, 42, 64
9, 191160, Note_on_c, 9, 54, 74
9, 191164, Note_off_c, 9, 54, 64
9, 191280, Note_on_c, 9, 42, 106
9, 191280, Note_on_c, 9, 54, 127
9, 191284, Note_off_c, 9, 54, 64
9, 191284, Note_off_c, 9, 42, 64
9, 191400, Note_on_c, 9, 54, 74
9, 191404, Note_off_c, 9, 54, 64
9, 191520, Note_on_c, 9, 38, 122
9, 191524, Note_off_c, 9, 38, 64
9, 191524, Note_on_c, 9, 42, 127
9, 191524, Note_on_c, 9, 54, 106
9, 191528, Note_off_c, 9, 54, 64
9, 191528, Note_off_c, 9, 42, 64
9, 191640, Note_on_c, 9, 54, 74
9, 191644, Note_off_c, 9, 54, 64
9, 191760, Note_on_c, 9, 42, 106
9, 191760, Note_on_c, 9, 54, 127
9, 191764, Note_off_c, 9, 54, 64
9, 191764, Note_off_c, 9, 42, 64
9, 191880, Note_on_c, 9, 54, 74
9, 191884, Note_off_c, 9, 54, 64
9, 192000, Control_c, 9, 7, 110
9, 192004, Note_on_c, 9, 36, 122
9, 192004, Note_on_c, 9, 42, 127
9, 192004, Note_on_c, 9, 49, 122
9, 192004, Note_on_c, 9, 54, 106
9, 192008, Note_off_c, 9, 54, 64
9, 192008, Note_off_c, 9, 49, 64
9, 192008, Note_off_c, 9, 42, 64
9, 192008, Note_off_c, 9, 36, 64
9, 192120, Note_on_c, 9, 54, 74
9, 192124, Note_off_c, 9, 54, 64
9, 192136, Control_c, 9, 7, 109
9, 192240, Note_on_c, 9, 42, 106
9, 192240, Note_on_c, 9, 54, 127
9, 192244, Note_off_c, 9, 54, 64
9, 192244, Note_off_c, 9, 42, 64
9, 192276, Control_c, 9, 7, 108
9, 192360, Note_on_c, 9, 54, 74
9, 192364, Note_off_c, 9, 54, 64
9, 192412, Control_c, 9, 7, 107
9, 192480, Note_on_c, 9, 38, 122
9, 192484, Note_off_c, 9, 38, 64
9, 192484, Note_on_c, 9, 42, 127
9, 192484, Note_on_c, 9, 54, 106
9, 192488, Note_off_c, 9, 54, 64
9, 192488, Note_off_c, 9, 42, 64
9, 192552, Control_c, 9, 7, 106
9, 192600, Note_on_c, 9, 54, 74
9, 192604, Note_off_c, 9, 54, 64
9, 192692, Control_c, 9, 7, 105
9, 192720, Note_on_c, 9, 42, 106
9, 192720, Note_on_c, 9, 54, 127
9, 192724, Note_off_c, 9, 54, 64
9, 192724, Note_off_c, 9, 42, 64
9, 192828, Control_c, 9, 7, 104
9, 192840, Note_on_c, 9, 54, 74
9, 192844, Note_off_c, 9, 54, 64
9, 192960, Note_on_c, 9, 36, 122
9, 192964, Note_off_c, 9, 36, 64
9, 192964, Note_on_c, 9, 42, 127
9, 192964, Note_on_c, 9, 54, 106
9, 192968, Note_off_c, 9, 54, 64
9, 192968, Note_off_c, 9, 42, 64
9, 192968, Control_c, 9, 7, 103
9, 193080, Note_on_c, 9, 54, 74
9, 193084, Note_off_c, 9, 54, 64
9, 193108, Control_c, 9, 7, 102
9, 193200, Note_on_c, 9, 42, 106
9, 193200, Note_on_c, 9, 54, 127
9, 193204, Note_off_c, 9, 54, 64
9, 193204, Note_off_c, 9, 42, 64
9, 193244, Control_c, 9, 7, 101
9, 193320, Note_on_c, 9, 54, 74
9, 193324, Note_off_c, 9, 54, 64
9, 193384, Control_c, 9, 7, 100
9, 193440, Note_on_c, 9, 38, 122
9, 193444, Note_off_c, 9, 38, 64
9, 193444, Note_on_c, 9, 42, 127
9, 193444, Note_on_c, 9, 46, 127
9, 193444, Note_on_c, 9, 54, 106
9, 193448, Note_off_c, 9, 54, 64
9, 193448, Note_off_c, 9, 46, 64
9, 193448, Note_off_c, 9, 42, 64
9, 193524, Control_c, 9, 7, 99
9, 193560, Note_on_c, 9, 54, 74
9, 193564, Note_off_c, 9, 54, 64
9, 193660, Control_c, 9, 7, 98
9, 193680, Note_on_c, 9, 42, 106
9, 193680, Note_on_c, 9, 54, 127
9, 193684, Note_off_c, 9, 54, 64
9, 193684, Note_off_c, 9, 42, 64
9, 193800, Note_on_c, 9, 54, 74
9, 193800, Control_c, 9, 7, 97
9, 193804, Note_off_c, 9, 54, 64
9, 193920, Note_on_c, 9, 36, 122
9, 193924, Note_off_c, 9, 36, 64
9, 193924, Note_on_c, 9, 42, 127
9, 193924, Note_on_c, 9, 54, 106
9, 193928, Note_off_c, 9, 54, 64
9, 193928, Note_off_c, 9, 42, 64
9, 193936, Control_c, 9, 7, 96
9, 194040, Note_on_c, 9, 54, 74
9, 194044, Note_off_c, 9, 54, 64
9, 194076, Control_c, 9, 7, 95
9, 194160, Note_on_c, 9, 42, 106
9, 194160, Note_on_c, 9, 54, 127
9, 194164, Note_off_c, 9, 54, 64
9, 194164, Note_off_c, 9, 42, 64
9, 194216, Control_c, 9, 7, 94
9, 194280, Note_on_c, 9, 54, 74
9, 194284, Note_off_c, 9, 54, 64
9, 194352, Control_c, 9, 7, 93
9, 194400, Note_on_c, 9, 38, 122
9, 194404, Note_off_c, 9, 38, 64
9, 194404, Note_on_c, 9, 42, 127
9, 194404, Note_on_c, 9, 54, 106
9, 194408, Note_off_c, 9, 54, 64
9, 194408, Note_off_c, 9, 42, 64
9, 194492, Control_c, 9, 7, 92
9, 194520, Note_on_c, 9, 54, 74
9, 194524, Note_off_c, 9, 54, 64
9, 194632, Control_c, 9, 7, 91
9, 194640, Note_on_c, 9, 42, 106
9, 194640, Note_on_c, 9, 54, 127
9, 194644, Note_off_c, 9, 54, 64
9, 194644, Note_off_c, 9, 42, 64
9, 194760, Note_on_c, 9, 54, 74
9, 194764, Note_off_c, 9, 54, 64
9, 194768, Control_c, 9, 7, 90
9, 194880, Note_on_c, 9, 36, 122
9, 194884, Note_off_c, 9, 36, 64
9, 194884, Note_on_c, 9, 42, 127
9, 194884, Note_on_c, 9, 54, 106
9, 194888, Note_off_c, 9, 54, 64
9, 194888, Note_off_c, 9, 42, 64
9, 194908, Control_c, 9, 7, 89
9, 195000, Note_on_c, 9, 54, 74
9, 195004, Note_off_c, 9, 54, 64
9, 195048, Control_c, 9, 7, 88
9, 195120, Note_on_c, 9, 42, 106
9, 195120, Note_on_c, 9, 54, 127
9, 195124, Note_off_c, 9, 54, 64
9, 195124, Note_off_c, 9, 42, 64
9, 195184, Control_c, 9, 7, 87
9, 195240, Note_on_c, 9, 54, 74
9, 195244, Note_off_c, 9, 54, 64
9, 195324, Control_c, 9, 7, 86
9, 195360, Note_on_c, 9, 38, 122
9, 195364, Note_off_c, 9, 38, 64
9, 195364, Note_on_c, 9, 42, 127
9, 195364, Note_on_c, 9, 54, 106
9, 195368, Note_off_c, 9, 54, 64
9, 195368, Note_off_c, 9, 42, 64
9, 195460, Control_c, 9, 7, 85
9, 195480, Note_on_c, 9, 54, 74
9, 195484, Note_off_c, 9, 54, 64
9, 195600, Note_on_c, 9, 42, 106
9, 195600, Note_on_c, 9, 54, 127
9, 195600, Control_c, 9, 7, 84
9, 195604, Note_off_c, 9, 54, 64
9, 195604, Note_off_c, 9, 42, 64
9, 195720, Note_on_c, 9, 54, 74
9, 195724, Note_off_c, 9, 54, 64
9, 195740, Control_c, 9, 7, 83
9, 195844, Note_on_c, 9, 36, 122
9, 195844, Note_on_c, 9, 42, 127
9, 195844, Note_on_c, 9, 54, 106
9, 195848, Note_off_c, 9, 54, 64
9, 195848, Note_off_c, 9, 42, 64
9, 195848, Note_off_c, 9, 36, 64
9, 195876, Control_c, 9, 7, 82
9, 195960, Note_on_c, 9, 54, 74
9, 195964, Note_off_c, 9, 54, 64
9, 196016, Control_c, 9, 7, 81
9, 196080, Note_on_c, 9, 42, 106
9, 196080, Note_on_c, 9, 54, 127
9, 196084, Note_off_c, 9, 54, 64
9, 196084, Note_off_c, 9, 42, 64
9, 196156, Control_c, 9, 7, 80
9, 196200, Note_on_c, 9, 54, 74
9, 196204, Note_off_c, 9, 54, 64
9, 196292, Control_c, 9, 7, 79
9, 196320, Note_on_c, 9, 38, 122
9, 196324, Note_off_c, 9, 38, 64
9, 196324, Note_on_c, 9, 42, 127
9, 196324, Note_on_c, 9, 54, 106
9, 196328, Note_off_c, 9, 54, 64
9, 196328, Note_off_c, 9, 42, 64
9, 196432, Control_c, 9, 7, 78
9, 196440, Note_on_c, 9, 54, 74
9, 196444, Note_off_c, 9, 54, 64
9, 196560, Note_on_c, 9, 42, 106
9, 196560, Note_on_c, 9, 54, 127
9, 196564, Note_off_c, 9, 54, 64
9, 196564, Note_off_c, 9, 42, 64
9, 196572, Control_c, 9, 7, 77
9, 196680, Note_on_c, 9, 54, 74
9, 196684, Note_off_c, 9, 54, 64
9, 196708, Control_c, 9, 7, 76
9, 196800, Note_on_c, 9, 36, 122
9, 196804, Note_off_c, 9, 36, 64
9, 196804, Note_on_c, 9, 42, 127
9, 196804, Note_on_c, 9, 54, 106
9, 196808, Note_off_c, 9, 54, 64
9, 196808, Note_off_c, 9, 42, 64
9, 196848, Control_c, 9, 7, 75
9, 196920, Note_on_c, 9, 54, 74
9, 196924, Note_off_c, 9, 54, 64
9, 196984, Control_c, 9, 7, 74
9, 197040, Note_on_c, 9, 42, 106
9, 197040, Note_on_c, 9, 54, 127
9, 197044, Note_off_c, 9, 54, 64
9, 197044, Note_off_c, 9, 42, 64
9, 197124, Control_c, 9, 7, 73
9, 197160, Note_on_c, 9, 54, 74
9, 197164, Note_off_c, 9, 54, 64
9, 197264, Control_c, 9, 7, 72
9, 197280, Note_on_c, 9, 38, 122
9, 197284, Note_off_c, 9, 38, 64
9, 197284, Note_on_c, 9, 42, 127
9, 197284, Note_on_c, 9, 46, 122
9, 197284, Note_on_c, 9, 54, 106
9, 197288, Note_off_c, 9, 54, 64
9, 197288, Note_off_c, 9, 46, 64
9, 197288, Note_off_c, 9, 42, 64
9, 197400, Note_on_c, 9, 54, 74
9, 197400, Control_c, 9, 7, 71
9, 197404, Note_off_c, 9, 54, 64
9, 197520, Note_on_c, 9, 42, 106
9, 197520, Note_on_c, 9, 54, 127
9, 197524, Note_off_c, 9, 54, 64
9, 197524, Note_off_c, 9, 42, 64
9, 197540, Control_c, 9, 7, 70
9, 197640, Note_on_c, 9, 54, 74
9, 197644, Note_off_c, 9, 54, 64
9, 197680, Control_c, 9, 7, 69
9, 197760, Note_on_c, 9, 36, 122
9, 197764, Note_off_c, 9, 36, 64
9, 197764, Note_on_c, 9, 42, 127
9, 197764, Note_on_c, 9, 54, 106
9, 197768, Note_off_c, 9, 54, 64
9, 197768, Note_off_c, 9, 42, 64
9, 197816, Control_c, 9, 7, 68
9, 197880, Note_on_c, 9, 54, 74
9, 197884, Note_off_c, 9, 54, 64
9, 197956, Control_c, 9, 7, 67
9, 198000, Note_on_c, 9, 42, 106
9, 198000, Note_on_c, 9, 54, 127
9, 198004, Note_off_c, 9, 54, 64
9, 198004, Note_off_c, 9, 42, 64
9, 198096, Control_c, 9, 7, 66
9, 198120, Note_on_c, 9, 54, 74
9, 198124, Note_off_c, 9, 54, 64
9, 198232, Control_c, 9, 7, 65
9, 198240, Note_on_c, 9, 38, 122
9, 198244, Note_off_c, 9, 38, 64
9, 198244, Note_on_c, 9, 42, 127
9, 198244, Note_on_c, 9, 54, 106
9, 198248, Note_off_c, 9, 54, 64
9, 198248, Note_off_c, 9, 42, 64
9, 198360, Note_on_c, 9, 54, 74
9, 198364, Note_off_c, 9, 54, 64
9, 198372, Control_c, 9, 7, 64
9, 198480, Note_on_c, 9, 42, 106
9, 198480, Note_on_c, 9, 54, 127
9, 198484, Note_off_c, 9, 54, 64
9, 198484, Note_off_c, 9, 42, 64
9, 198508, Control_c, 9, 7, 63
9, 198600, Note_on_c, 9, 54, 74
9, 198604, Note_off_c, 9, 54, 64
9, 198648, Control_c, 9, 7, 62
9, 198720, Note_on_c, 9, 36, 122
9, 198724, Note_off_c, 9, 36, 64
9, 198724, Note_on_c, 9, 42, 127
9, 198724, Note_on_c, 9, 54, 106
9, 198728, Note_off_c, 9, 54, 64
9, 198728, Note_off_c, 9, 42, 64
9, 198788, Control_c, 9, 7, 61
9, 198840, Note_on_c, 9, 54, 74
9, 198844, Note_off_c, 9, 54, 64
9, 198924, Control_c, 9, 7, 60
9, 198960, Note_on_c, 9, 42, 106
9, 198960, Note_on_c, 9, 54, 127
9, 198964, Note_off_c, 9, 54, 64
9, 198964, Note_off_c, 9, 42, 64
9, 199064, Control_c, 9, 7, 59
9, 199080, Note_on_c, 9, 54, 74
9, 199084, Note_off_c, 9, 54, 64
9, 199200, Note_on_c, 9, 38, 122
9, 199204, Note_off_c, 9, 38, 64
9, 199204, Note_on_c, 9, 42, 127
9, 199204, Note_on_c, 9, 54, 106
9, 199204, Control_c, 9, 7, 58
9, 199208, Note_off_c, 9, 54, 64
9, 199208, Note_off_c, 9, 42, 64
9, 199320, Note_on_c, 9, 54, 74
9, 199324, Note_off_c, 9, 54, 64
9, 199340, Control_c, 9, 7, 57
9, 199440, Note_on_c, 9, 42, 106
9, 199440, Note_on_c, 9, 54, 127
9, 199444, Note_off_c, 9, 54, 64
9, 199444, Note_off_c, 9, 42, 64
9, 199480, Control_c, 9, 7, 56
9, 199560, Note_on_c, 9, 54, 74
9, 199564, Note_off_c, 9, 54, 64
9, 199620, Control_c, 9, 7, 55
9, 199684, Note_on_c, 9, 36, 122
9, 199684, Note_on_c, 9, 42, 127
9, 199684, Note_on_c, 9, 49, 122
9, 199684, Note_on_c, 9, 54, 106
9, 199688, Note_off_c, 9, 54, 64
9, 199688, Note_off_c, 9, 49, 64
9, 199688, Note_off_c, 9, 42, 64
9, 199688, Note_off_c, 9, 36, 64
9, 199756, Control_c, 9, 7, 54
9, 199800, Note_on_c, 9, 54, 74
9, 199804, Note_off_c, 9, 54, 64
9, 199896, Control_c, 9, 7, 53
9, 199920, Note_on_c, 9, 42, 106
9, 199920, Note_on_c, 9, 54, 127
9, 199924, Note_off_c, 9, 54, 64
9, 199924, Note_off_c, 9, 42, 64
9, 200032, Control_c, 9, 7, 52
9, 200040, Note_on_c, 9, 54, 74
9, 200044, Note_off_c, 9, 54, 64
9, 200160, Note_on_c, 9, 38, 122
9, 200164, Note_off_c, 9, 38, 64
9, 200164, Note_on_c, 9, 42, 127
9, 200164, Note_on_c, 9, 54, 106
9, 200168, Note_off_c, 9, 54, 64
9, 200168, Note_off_c, 9, 42, 64
9, 200172, Control_c, 9, 7, 51
9, 200280, Note_on_c, 9, 54, 74
9, 200284, Note_off_c, 9, 54, 64
9, 200312, Control_c, 9, 7, 50
9, 200400, Note_on_c, 9, 42, 106
9, 200400, Note_on_c, 9, 54, 127
9, 200404, Note_off_c, 9, 54, 64
9, 200404, Note_off_c, 9, 42, 64
9, 200448, Control_c, 9, 7, 49
9, 200520, Note_on_c, 9, 54, 74
9, 200524, Note_off_c, 9, 54, 64
9, 200588, Control_c, 9, 7, 48
9, 200640, Note_on_c, 9, 36, 122
9, 200644, Note_off_c, 9, 36, 64
9, 200644, Note_on_c, 9, 42, 127
9, 200644, Note_on_c, 9, 54, 106
9, 200648, Note_off_c, 9, 54, 64
9, 200648, Note_off_c, 9, 42, 64
9, 200728, Control_c, 9, 7, 47
9, 200760, Note_on_c, 9, 54, 74
9, 200764, Note_off_c, 9, 54, 64
9, 200864, Control_c, 9, 7, 46
9, 200880, Note_on_c, 9, 42, 106
9, 200880, Note_on_c, 9, 54, 127
9, 200884, Note_off_c, 9, 54, 64
9, 200884, Note_off_c, 9, 42, 64
9, 201000, Note_on_c, 9, 54, 74
9, 201004, Note_off_c, 9, 54, 64
9, 201004, Control_c, 9, 7, 45
9, 201120, Note_on_c, 9, 38, 122
9, 201124, Note_off_c, 9, 38, 64
9, 201124, Note_on_c, 9, 42, 127
9, 201124, Note_on_c, 9, 46, 127
9, 201124, Note_on_c, 9, 54, 106
9, 201128, Note_off_c, 9, 54, 64
9, 201128, Note_off_c, 9, 46, 64
9, 201128, Note_off_c, 9, 42, 64
9, 201144, Control_c, 9, 7, 44
9, 201240, Note_on_c, 9, 54, 74
9, 201244, Note_off_c, 9, 54, 64
9, 201280, Control_c, 9, 7, 43
9, 201360, Note_on_c, 9, 42, 106
9, 201360, Note_on_c, 9, 54, 127
9, 201364, Note_off_c, 9, 54, 64
9, 201364, Note_off_c, 9, 42, 64
9, 201420, Control_c, 9, 7, 42
9, 201480, Note_on_c, 9, 54, 74
9, 201484, Note_off_c, 9, 54, 64
9, 201556, Control_c, 9, 7, 41
9, 201600, Note_on_c, 9, 36, 122
9, 201604, Note_off_c, 9, 36, 64
9, 201604, Note_on_c, 9, 42, 127
9, 201604, Note_on_c, 9, 54, 106
9, 201608, Note_off_c, 9, 54, 64
9, 201608, Note_off_c, 9, 42, 64
9, 201696, Control_c, 9, 7, 40
9, 201720, Note_on_c, 9, 54, 74
9, 201724, Note_off_c, 9, 54, 64
9, 201836, Control_c, 9, 7, 39
9, 201840, Note_on_c, 9, 42, 106
9, 201840, Note_on_c, 9, 54, 127
9, 201844, Note_off_c, 9, 54, 64
9, 201844, Note_off_c, 9, 42, 64
9, 201960, Note_on_c, 9, 54, 74
9, 201964, Note_off_c, 9, 54, 64
9, 201972, Control_c, 9, 7, 38
9, 202080, Note_on_c, 9, 38, 122
9, 202084, Note_off_c, 9, 38, 64
9, 202084, Note_on_c, 9, 42, 127
9, 202084, Note_on_c, 9, 54, 106
9, 202088, Note_off_c, 9, 54, 64
9, 202088, Note_off_c, 9, 42, 64
9, 202112, Control_c, 9, 7, 37
9, 202200, Note_on_c, 9, 54, 74
9, 202204, Note_off_c, 9, 54, 64
9, 202252, Control_c, 9, 7, 36
9, 202320, Note_on_c, 9, 42, 106
9, 202320, Note_on_c, 9, 54, 127
9, 202324, Note_off_c, 9, 54, 64
9, 202324, Note_off_c, 9, 42, 64
9, 202388, Control_c, 9, 7, 35
9, 202440, Note_on_c, 9, 54, 74
9, 202444, Note_off_c, 9, 54, 64
9, 202528, Control_c, 9, 7, 34
9, 202560, Note_on_c, 9, 36, 122
9, 202564, Note_off_c, 9, 36, 64
9, 202564, Note_on_c, 9, 42, 127
9, 202564, Note_on_c, 9, 54, 106
9, 202568, Note_off_c, 9, 54, 64
9, 202568, Note_off_c, 9, 42, 64
9, 202668, Control_c, 9, 7, 33
9, 202680, Note_on_c, 9, 54, 74
9, 202684, Note_off_c, 9, 54, 64
9, 202800, Note_on_c, 9, 42, 106
9, 202800, Note_on_c, 9, 54, 127
9, 202804, Note_off_c, 9, 54, 64
9, 202804, Note_off_c, 9, 42, 64
9, 202804, Control_c, 9, 7, 32
9, 202920, Note_on_c, 9, 54, 74
9, 202924, Note_off_c, 9, 54, 64
9, 202944, Control_c, 9, 7, 31
9, 203040, Note_on_c, 9, 38, 122
9, 203044, Note_off_c, 9, 38, 64
9, 203044, Note_on_c, 9, 42, 127
9, 203044, Note_on_c, 9, 54, 106
9, 203048, Note_off_c, 9, 54, 64
9, 203048, Note_off_c, 9, 42, 64
9, 203080, Control_c, 9, 7, 30
9, 203160, Note_on_c, 9, 54, 74
9, 203164, Note_off_c, 9, 54, 64
9, 203220, Control_c, 9, 7, 29
9, 203280, Note_on_c, 9, 42, 106
9, 203280, Note_on_c, 9, 54, 127
9, 203284, Note_off_c, 9, 54, 64
9, 203284, Note_off_c, 9, 42, 64
9, 203360, Control_c, 9, 7, 28
9, 203400, Note_on_c, 9, 54, 74
9, 203404, Note_off_c, 9, 54, 64
9, 203496, Control_c, 9, 7, 27
9, 203524, Note_on_c, 9, 36, 122
9, 203524, Note_on_c, 9, 42, 127
9, 203524, Note_on_c, 9, 54, 106
9, 203528, Note_off_c, 9, 54, 64
9, 203528, Note_off_c, 9, 42, 64
9, 203528, Note_off_c, 9, 36, 64
9, 203636, Control_c, 9, 7, 26
9, 203640, Note_on_c, 9, 54, 74
9, 203644, Note_off_c, 9, 54, 64
9, 203760, Note_on_c, 9, 42, 106
9, 203760, Note_on_c, 9, 54, 127
9, 203764, Note_off_c, 9, 54, 64
9, 203764, Note_off_c, 9, 42, 64
9, 203776, Control_c, 9, 7, 25
9, 203880, Note_on_c, 9, 54, 74
9, 203884, Note_off_c, 9, 54, 64
9, 203912, Control_c, 9, 7, 24
9, 204000, Note_on_c, 9, 38, 122
9, 204004, Note_off_c, 9, 38, 64
9, 204004, Note_on_c, 9, 42, 127
9, 204004, Note_on_c, 9, 54, 106
9, 204008, Note_off_c, 9, 54, 64
9, 204008, Note_off_c, 9, 42, 64
9, 204052, Control_c, 9, 7, 23
9, 204120, Note_on_c, 9, 54, 74
9, 204124, Note_off_c, 9, 54, 64
9, 204192, Control_c, 9, 7, 22
9, 204240, Note_on_c, 9, 42, 106
9, 204240, Note_on_c, 9, 54, 127
9, 204244, Note_off_c, 9, 54, 64
9, 204244, Note_off_c, 9, 42, 64
9, 204328, Control_c, 9, 7, 21
9, 204360, Note_on_c, 9, 54, 74
9, 204364, Note_off_c, 9, 54, 64
9, 204468, Control_c, 9, 7, 20
9, 204480, Note_on_c, 9, 36, 122
9, 204484, Note_off_c, 9, 36, 64
9, 204484, Note_on_c, 9, 42, 127
9, 204484, Note_on_c, 9, 54, 106
9, 204488, Note_off_c, 9, 54, 64
9, 204488, Note_off_c, 9, 42, 64
9, 204600, Note_on_c, 9, 54, 74
9, 204604, Note_off_c, 9, 54, 64
9, 204604, Control_c, 9, 7, 19
9, 204720, Note_on_c, 9, 42, 106
9, 204720, Note_on_c, 9, 54, 127
9, 204724, Note_off_c, 9, 54, 64
9, 204724, Note_off_c, 9, 42, 64
9, 204744, Control_c, 9, 7, 18
9, 204840, Note_on_c, 9, 54, 74
9, 204844, Note_off_c, 9, 54, 64
9, 204884, Control_c, 9, 7, 17
9, 204960, Note_on_c, 9, 38, 122
9, 204964, Note_off_c, 9, 38, 64
9, 204964, Note_on_c, 9, 42, 127
9, 204964, Note_on_c, 9, 46, 122
9, 204964, Note_on_c, 9, 54, 106
9, 204968, Note_off_c, 9, 54, 64
9, 204968, Note_off_c, 9, 46, 64
9, 204968, Note_off_c, 9, 42, 64
9, 205020, Control_c, 9, 7, 16
9, 205080, Note_on_c, 9, 54, 74
9, 205084, Note_off_c, 9, 54, 64
9, 205160, Control_c, 9, 7, 15
9, 205200, Note_on_c, 9, 42, 106
9, 205200, Note_on_c, 9, 54, 127
9, 205204, Note_off_c, 9, 54, 64
9, 205204, Note_off_c, 9, 42, 64
9, 205300, Control_c, 9, 7, 14
9, 205320, Note_on_c, 9, 54, 74
9, 205324, Note_off_c, 9, 54, 64
9, 205436, Control_c, 9, 7, 13
9, 205440, Note_on_c, 9, 36, 122
9, 205444, Note_off_c, 9, 36, 64
9, 205444, Note_on_c, 9, 42, 127
9, 205444, Note_on_c, 9, 54, 106
9, 205448, Note_off_c, 9, 54, 64
9, 205448, Note_off_c, 9, 42, 64
9, 205560, Note_on_c, 9, 54, 74
9, 205564, Note_off_c, 9, 54, 64
9, 205576, Control_c, 9, 7, 12
9, 205680, Note_on_c, 9, 42, 106
9, 205680, Note_on_c, 9, 54, 127
9, 205684, Note_off_c, 9, 54, 64
9, 205684, Note_off_c, 9, 42, 64
9, 205716, Control_c, 9, 7, 11
9, 205800, Note_on_c, 9, 54, 74
9, 205804, Note_off_c, 9, 54, 64
9, 205852, Control_c, 9, 7, 10
9, 205920, Note_on_c, 9, 38, 122
9, 205924, Note_off_c, 9, 38, 64
9, 205924, Note_on_c, 9, 42, 127
9, 205924, Note_on_c, 9, 54, 106
9, 205928, Note_off_c, 9, 54, 64
9, 205928, Note_off_c, 9, 42, 64
9, 205992, Control_c, 9, 7, 9
9, 206040, Note_on_c, 9, 54, 74
9, 206044, Note_off_c, 9, 54, 64
9, 206128, Control_c, 9, 7, 8
9, 206160, Note_on_c, 9, 42, 106
9, 206160, Note_on_c, 9, 54, 127
9, 206164, Note_off_c, 9, 54, 64
9, 206164, Note_off_c, 9, 42, 64
9, 206268, Control_c, 9, 7, 7
9, 206280, Note_on_c, 9, 54, 74
9, 206284, Note_off_c, 9, 54, 64
9, 206400, Note_on_c, 9, 36, 122
9, 206404, Note_off_c, 9, 36, 64
9, 206404, Note_on_c, 9, 42, 127
9, 206404, Note_on_c, 9, 54, 106
9, 206408, Note_off_c, 9, 54, 64
9, 206408, Note_off_c, 9, 42, 64
9, 206408, Control_c, 9, 7, 6
9, 206520, Note_on_c, 9, 54, 74
9, 206524, Note_off_c, 9, 54, 64
9, 206544, Control_c, 9, 7, 5
9, 206640, Note_on_c, 9, 42, 106
9, 206640, Note_on_c, 9, 54, 127
9, 206644, Note_off_c, 9, 54, 64
9, 206644, Note_off_c, 9, 42, 64
9, 206684, Control_c, 9, 7, 4
9, 206760, Note_on_c, 9, 54, 74
9, 206764, Note_off_c, 9, 54, 64
9, 206824, Control_c, 9, 7, 3
9, 206880, Note_on_c, 9, 38, 122
9, 206884, Note_off_c, 9, 38, 64
9, 206884, Note_on_c, 9, 42, 127
9, 206884, Note_on_c, 9, 54, 106
9, 206888, Note_off_c, 9, 54, 64
9, 206888, Note_off_c, 9, 42, 64
9, 206960, Control_c, 9, 7, 2
9, 207000, Note_on_c, 9, 54, 74
9, 207004, Note_off_c, 9, 54, 64
9, 207100, Control_c, 9, 7, 1
9, 207120, Note_on_c, 9, 42, 106
9, 207120, Note_on_c, 9, 54, 127
9, 207124, Note_off_c, 9, 54, 64
9, 207124, Note_off_c, 9, 42, 64
9, 207240, Note_on_c, 9, 54, 74
9, 207240, Control_c, 9, 7, 0
9, 207244, Note_off_c, 9, 54, 64
9, 207244, End_track
10, 0, Start_track
10, 0, Title_t, "******************************"
10, 0, MIDI_port, 0
10, 0, End_track
11, 0, Start_track
11, 0, Title_t, "I Never Knew Love Like This Bef"
11, 0, MIDI_port, 0
11, 0, End_track
12, 0, Start_track
12, 0, Title_t, "Artist: Stephanie Mills"
12, 0, MIDI_port, 0
12, 0, End_track
13, 0, Start_track
13, 0, Title_t, "Sequenced by: Jodi S.A.K."
13, 0, MIDI_port, 0
13, 0, End_track
14, 0, Start_track
14, 0, Title_t, "1995 Holland"
14, 0, MIDI_port, 0
14, 0, End_track
15, 0, Start_track
15, 0, Title_t, "******************************"
15, 0, MIDI_port, 0
15, 0, End_track
0, 0, End_of_file
