0, 0, Header, 1, 41, 480
1, 0, Start_track
1, 0, Title_t, "Nice 'N' Easy"
1, 0, Copyright_t, "Copyright ©1998 by Blue Max Distribution"
1, 0, SMPTE_offset, 96, 0, 3, 0, 0
1, 0, Time_signature, 4, 2, 24, 8
1, 0, Key_signature, -5, "major"
1, 0, Tempo, 517241
1, 0, End_track
2, 0, Start_track
2, 0, Title_t, "Soft karaoke"
2, 0, Text_t, "@KMIDI KARAOKE FILE"
2, 0, Text_t, "@MSKS "
2, 0, Text_t, "@Universal Lyrics Editor"
2, 0, Text_t, "@MDR SOFTWARE"
2, 0, Text_t, "@E-mail: mdr@lgs.it"
2, 0, End_track
3, 0, Start_track
3, 0, Title_t, "Words"
3, 5286, Text_t, "\\"
3, 5608, Text_t, ""
3, 5769, Text_t, ""
3, 6249, Text_t, ""
3, 6567, Text_t, ""
3, 6727, Text_t, ""
3, 8005, Text_t, "Let's "
3, 8648, Text_t, "take "
3, 9129, Text_t, "it "
3, 9606, Text_t, "Nice "
3, 10083, Text_t, "'N "
3, 10404, Text_t, "Eas"
3, 11045, Text_t, "y"
3, 11848, Text_t, "/It's "
3, 12488, Text_t, "gon"
3, 12963, Text_t, "na "
3, 13443, Text_t, "be "
3, 13929, Text_t, "so "
3, 14249, Text_t, "eas"
3, 14883, Text_t, "y"
3, 15689, Text_t, "\\for "
3, 16323, Text_t, "us "
3, 16809, Text_t, "to "
3, 17127, Text_t, "fall "
3, 18728, Text_t, "in "
3, 19046, Text_t, "love"
3, 23368, Text_t, "/Hey, "
3, 24009, Text_t, "bab"
3, 24489, Text_t, "y, "
3, 24966, Text_t, "what's "
3, 25445, Text_t, "your "
3, 25764, Text_t, "hur"
3, 26400, Text_t, "ry?"
3, 27209, Text_t, "\\Re"
3, 27849, Text_t, "lax "
3, 28326, Text_t, "and "
3, 28808, Text_t, "don't "
3, 29284, Text_t, "you "
3, 29603, Text_t, "wor"
3, 30244, Text_t, "ry"
3, 31043, Text_t, "/We're "
3, 31688, Text_t, "gon"
3, 32165, Text_t, "na "
3, 32488, Text_t, "fall "
3, 34086, Text_t, "in "
3, 34407, Text_t, "love"
3, 37769, Text_t, "\\"
3, 38249, Text_t, ""
3, 38640, Text_t, "We're "
3, 39360, Text_t, "on "
3, 39840, Text_t, "the "
3, 40320, Text_t, "road "
3, 40800, Text_t, "to "
3, 41040, Text_t, "ro"
3, 41760, Text_t, "mance,"
3, 42480, Text_t, "/that's "
3, 42727, Text_t, ""
3, 43207, Text_t, ""
3, 43207, Text_t, ""
3, 43527, Text_t, "safe "
3, 43527, Text_t, ""
3, 43688, Text_t, ""
3, 43688, Text_t, "to "
3, 44006, Text_t, ""
3, 44006, Text_t, "say"
3, 44880, Text_t, "\\But "
3, 45120, Text_t, "let's "
3, 45600, Text_t, "make "
3, 46080, Text_t, "all "
3, 47520, Text_t, "the "
3, 47760, Text_t, ""
3, 47760, Text_t, ""
3, 47760, Text_t, "stops"
3, 48480, Text_t, "/a"
3, 48720, Text_t, "long "
3, 49440, Text_t, "the "
3, 49680, Text_t, "way"
3, 51686, Text_t, "\\"
3, 51848, Text_t, ""
3, 52168, Text_t, ""
3, 52328, Text_t, ""
3, 52648, Text_t, ""
3, 54088, Text_t, "The "
3, 54729, Text_t, "prob"
3, 55208, Text_t, "lem "
3, 55688, Text_t, "now, "
3, 56167, Text_t, "of "
3, 56488, Text_t, "course, "
3, 57128, Text_t, "is"
3, 57927, Text_t, "/to "
3, 58562, Text_t, "simp"
3, 59048, Text_t, "ly "
3, 59527, Text_t, "hold "
3, 60008, Text_t, "your "
3, 60327, Text_t, "hors"
3, 60967, Text_t, "es"
3, 61768, Text_t, "\\To "
3, 62406, Text_t, "rush "
3, 62888, Text_t, "would "
3, 63369, Text_t, "b"
3, 63688, Text_t, "e "
3, 64804, Text_t, "a "
3, 65127, Text_t, "crime"
3, 67687, Text_t, "/"
3, 68009, Text_t, ""
3, 68168, Text_t, ""
3, 68489, Text_t, ""
3, 68649, Text_t, ""
3, 68969, Text_t, "'Cause "
3, 69127, Text_t, "Nice "
3, 69607, Text_t, "'N "
3, 69928, Text_t, "Eas"
3, 70568, Text_t, "y "
3, 70884, Text_t, ""
3, 71046, Text_t, "does "
3, 71367, Text_t, ""
3, 71520, Text_t, ""
3, 71848, Text_t, "it"
3, 72329, Text_t, "\\'Cau"
3, 72809, Text_t, "se "
3, 72961, Text_t, "Nice "
3, 73447, Text_t, "'N "
3, 73767, Text_t, "Eas"
3, 74406, Text_t, "y "
3, 74729, Text_t, ""
3, 74887, Text_t, "do"
3, 75202, Text_t, "e"
3, 75369, Text_t, "s "
3, 75686, Text_t, "it"
3, 76168, Text_t, "/'Cau"
3, 76648, Text_t, "se "
3, 76806, Text_t, "Nice "
3, 77127, Text_t, "'N "
3, 77769, Text_t, "E"
3, 77889, Text_t, "a"
3, 78005, Text_t, "s"
3, 78121, Text_t, "y "
3, 78247, Text_t, ""
3, 78564, Text_t, "do"
3, 78725, Text_t, "es "
3, 79046, Text_t, "it"
3, 79686, Text_t, "\\E"
3, 79809, Text_t, "v"
3, 79924, Text_t, "e"
3, 80048, Text_t, "r"
3, 80168, Text_t, "y"
3, 80487, Text_t, "ti"
3, 81445, Text_t, "me"
3, 84808, Text_t, "/I"
3, 85444, Text_t, "N"
3, 85766, Text_t, "S"
3, 88169, Text_t, "T"
3, 88644, Text_t, "R"
3, 89288, Text_t, "U"
3, 89595, Text_t, "M"
3, 91528, Text_t, "E"
3, 91689, Text_t, "N"
3, 92008, Text_t, "T"
3, 93129, Text_t, "A"
3, 94088, Text_t, "L"
3, 94402, Text_t, "\\"
3, 96006, Text_t, ""
3, 96325, Text_t, ""
3, 96488, Text_t, ""
3, 96807, Text_t, ""
3, 100164, Text_t, ""
3, 100807, Text_t, ""
3, 101129, Text_t, ""
3, 103529, Text_t, ""
3, 104006, Text_t, ""
3, 104648, Text_t, ""
3, 104968, Text_t, ""
3, 106887, Text_t, ""
3, 107040, Text_t, ""
3, 107365, Text_t, ""
3, 108483, Text_t, ""
3, 109449, Text_t, ""
3, 109768, Text_t, ""
3, 111369, Text_t, ""
3, 111687, Text_t, ""
3, 111848, Text_t, ""
3, 112165, Text_t, ""
3, 113129, Text_t, ""
3, 113609, Text_t, ""
3, 113767, Text_t, ""
3, 114086, Text_t, ""
3, 115209, Text_t, ""
3, 119527, Text_t, ""
3, 120009, Text_t, ""
3, 120329, Text_t, ""
3, 120483, Text_t, ""
3, 120805, Text_t, ""
3, 121765, Text_t, ""
3, 123208, Text_t, ""
3, 123366, Text_t, ""
3, 123688, Text_t, ""
3, 125289, Text_t, ""
3, 128485, Text_t, ""
3, 128649, Text_t, ""
3, 128969, Text_t, ""
3, 129129, Text_t, ""
3, 129448, Text_t, ""
3, 130883, Text_t, "The "
3, 131523, Text_t, "pro"
3, 132008, Text_t, "blem "
3, 132487, Text_t, "now, "
3, 132967, Text_t, "of "
3, 133289, Text_t, "course, "
3, 133924, Text_t, "is"
3, 134728, Text_t, "/to "
3, 135366, Text_t, "simp"
3, 135847, Text_t, "ly "
3, 136326, Text_t, "hold "
3, 136807, Text_t, "your "
3, 137129, Text_t, "hors"
3, 137769, Text_t, "es"
3, 138569, Text_t, "\\To "
3, 139207, Text_t, "rush "
3, 139686, Text_t, "would "
3, 140168, Text_t, "b"
3, 140486, Text_t, "e "
3, 141609, Text_t, "a "
3, 141929, Text_t, "crime"
3, 144488, Text_t, "/"
3, 144808, Text_t, ""
3, 144969, Text_t, ""
3, 145286, Text_t, ""
3, 145448, Text_t, "'Cau"
3, 145767, Text_t, "se "
3, 145929, Text_t, "Nice "
3, 146409, Text_t, "'N "
3, 146726, Text_t, "Ea"
3, 147368, Text_t, "s"
3, 147688, Text_t, "y "
3, 147848, Text_t, "do"
3, 148167, Text_t, "e"
3, 148329, Text_t, "s "
3, 148648, Text_t, "it"
3, 149125, Text_t, "\\'Cau"
3, 149604, Text_t, "se "
3, 149767, Text_t, "Nice "
3, 150249, Text_t, "'N "
3, 150569, Text_t, "Ea"
3, 151207, Text_t, "s"
3, 151529, Text_t, "y "
3, 151689, Text_t, "do"
3, 152005, Text_t, "e"
3, 152166, Text_t, "s "
3, 152484, Text_t, "it"
3, 152967, Text_t, "/'Cau"
3, 153444, Text_t, "se "
3, 153608, Text_t, "Nice "
3, 153928, Text_t, "'N "
3, 154569, Text_t, "E"
3, 154689, Text_t, ""
3, 154806, Text_t, "a"
3, 154929, Text_t, ""
3, 155049, Text_t, "s"
3, 155368, Text_t, "y "
3, 155527, Text_t, "does "
3, 155848, Text_t, "it"
3, 156489, Text_t, "\\E"
3, 156609, Text_t, "v"
3, 156727, Text_t, "e"
3, 156848, Text_t, "r"
3, 156968, Text_t, "y"
3, 157285, Text_t, "ti"
3, 158242, Text_t, "me"
3, 159126, Text_t, ""
3, 161762, Text_t, "\\"
3, 162249, Text_t, ""
3, 162562, Text_t, ""
3, 163045, Text_t, ""
3, 163443, Text_t, ""
3, 163489, Text_t, ""
3, 163529, Text_t, ""
3, 163566, Text_t, ""
3, 163609, Text_t, ""
3, 163647, Text_t, ""
3, 163688, Text_t, ""
3, 164009, Text_t, ""
3, 174246, Text_t, ""
3, 174568, Text_t, ""
3, 174729, Text_t, ""
3, 175209, Text_t, ""
3, 175527, Text_t, ""
3, 175687, Text_t, ""
3, 176965, Text_t, ""
3, 177608, Text_t, ""
3, 178089, Text_t, ""
3, 178566, Text_t, ""
3, 179043, Text_t, ""
3, 179364, Text_t, ""
3, 180005, Text_t, ""
3, 180808, Text_t, ""
3, 181448, Text_t, ""
3, 181923, Text_t, ""
3, 182403, Text_t, ""
3, 182889, Text_t, ""
3, 183209, Text_t, ""
3, 183843, Text_t, ""
3, 184649, Text_t, ""
3, 185283, Text_t, ""
3, 185769, Text_t, ""
3, 186087, Text_t, ""
3, 187688, Text_t, ""
3, 188006, Text_t, ""
3, 192328, Text_t, ""
3, 192969, Text_t, ""
3, 193449, Text_t, ""
3, 193926, Text_t, ""
3, 194405, Text_t, ""
3, 194724, Text_t, ""
3, 195360, Text_t, ""
3, 196169, Text_t, ""
3, 196809, Text_t, ""
3, 197286, Text_t, ""
3, 197768, Text_t, ""
3, 198244, Text_t, ""
3, 198563, Text_t, ""
3, 199204, Text_t, ""
3, 200003, Text_t, ""
3, 200648, Text_t, ""
3, 201125, Text_t, ""
3, 201448, Text_t, ""
3, 203046, Text_t, ""
3, 203367, Text_t, ""
3, 206729, Text_t, ""
3, 207209, Text_t, ""
3, 207600, Text_t, ""
3, 208320, Text_t, ""
3, 208800, Text_t, ""
3, 209280, Text_t, ""
3, 209760, Text_t, ""
3, 210000, Text_t, ""
3, 210720, Text_t, ""
3, 211440, Text_t, ""
3, 211687, Text_t, ""
3, 212167, Text_t, ""
3, 212167, Text_t, ""
3, 212487, Text_t, ""
3, 212487, Text_t, ""
3, 212648, Text_t, ""
3, 212648, Text_t, ""
3, 212966, Text_t, ""
3, 212966, Text_t, ""
3, 213840, Text_t, ""
3, 214080, Text_t, ""
3, 214560, Text_t, ""
3, 215040, Text_t, ""
3, 216480, Text_t, ""
3, 216720, Text_t, ""
3, 216720, Text_t, ""
3, 216720, Text_t, ""
3, 217440, Text_t, ""
3, 217680, Text_t, ""
3, 218400, Text_t, ""
3, 218640, Text_t, ""
3, 220646, Text_t, ""
3, 220808, Text_t, ""
3, 221128, Text_t, ""
3, 221288, Text_t, ""
3, 221608, Text_t, ""
3, 223048, Text_t, ""
3, 223689, Text_t, ""
3, 224168, Text_t, ""
3, 224648, Text_t, ""
3, 225127, Text_t, ""
3, 225448, Text_t, ""
3, 226088, Text_t, ""
3, 226887, Text_t, ""
3, 227522, Text_t, ""
3, 228008, Text_t, ""
3, 228487, Text_t, ""
3, 228968, Text_t, ""
3, 229287, Text_t, ""
3, 229927, Text_t, ""
3, 230728, Text_t, ""
3, 231366, Text_t, ""
3, 231848, Text_t, ""
3, 232329, Text_t, ""
3, 232648, Text_t, ""
3, 233764, Text_t, ""
3, 234087, Text_t, ""
3, 236647, Text_t, ""
3, 236969, Text_t, ""
3, 237128, Text_t, ""
3, 237449, Text_t, ""
3, 237609, Text_t, ""
3, 237929, Text_t, ""
3, 238087, Text_t, ""
3, 238567, Text_t, ""
3, 238888, Text_t, ""
3, 239528, Text_t, ""
3, 239844, Text_t, ""
3, 240006, Text_t, ""
3, 240327, Text_t, ""
3, 240480, Text_t, ""
3, 240808, Text_t, ""
3, 241289, Text_t, ""
3, 241769, Text_t, ""
3, 241921, Text_t, ""
3, 242407, Text_t, ""
3, 242727, Text_t, ""
3, 243366, Text_t, ""
3, 243689, Text_t, ""
3, 243847, Text_t, ""
3, 244162, Text_t, ""
3, 244329, Text_t, ""
3, 244646, Text_t, ""
3, 245128, Text_t, ""
3, 245608, Text_t, ""
3, 245766, Text_t, ""
3, 246087, Text_t, ""
3, 246729, Text_t, ""
3, 246849, Text_t, ""
3, 246965, Text_t, ""
3, 247081, Text_t, ""
3, 247207, Text_t, ""
3, 247524, Text_t, ""
3, 247685, Text_t, ""
3, 248006, Text_t, ""
3, 248646, Text_t, ""
3, 248769, Text_t, ""
3, 248884, Text_t, ""
3, 249008, Text_t, ""
3, 249128, Text_t, ""
3, 249447, Text_t, ""
3, 250405, Text_t, ""
3, 253768, Text_t, ""
3, 254404, Text_t, ""
3, 254726, Text_t, ""
3, 257129, Text_t, ""
3, 257604, Text_t, ""
3, 258248, Text_t, ""
3, 258555, Text_t, ""
3, 260488, Text_t, ""
3, 260649, Text_t, ""
3, 260968, Text_t, ""
3, 262089, Text_t, ""
3, 263048, Text_t, ""
3, 263362, Text_t, ""
3, 264966, Text_t, ""
3, 265285, Text_t, ""
3, 265448, Text_t, ""
3, 265767, Text_t, ""
3, 269124, Text_t, ""
3, 269767, Text_t, ""
3, 270089, Text_t, ""
3, 272489, Text_t, ""
3, 272966, Text_t, ""
3, 273608, Text_t, ""
3, 273928, Text_t, ""
3, 275847, Text_t, ""
3, 276000, Text_t, ""
3, 276325, Text_t, ""
3, 277443, Text_t, ""
3, 278409, Text_t, ""
3, 278728, Text_t, ""
3, 280329, Text_t, ""
3, 280647, Text_t, ""
3, 280808, Text_t, ""
3, 281125, Text_t, ""
3, 282089, Text_t, ""
3, 282569, Text_t, ""
3, 282727, Text_t, ""
3, 283046, Text_t, ""
3, 284169, Text_t, ""
3, 288487, Text_t, ""
3, 288969, Text_t, ""
3, 289289, Text_t, ""
3, 289443, Text_t, ""
3, 289765, Text_t, ""
3, 290725, Text_t, ""
3, 292168, Text_t, ""
3, 292326, Text_t, ""
3, 292648, Text_t, ""
3, 294249, Text_t, ""
3, 297445, Text_t, ""
3, 297609, Text_t, ""
3, 297929, Text_t, ""
3, 298089, Text_t, ""
3, 298408, Text_t, ""
3, 299843, Text_t, ""
3, 300483, Text_t, ""
3, 300968, Text_t, ""
3, 301447, Text_t, ""
3, 301927, Text_t, ""
3, 302249, Text_t, ""
3, 302884, Text_t, ""
3, 303688, Text_t, ""
3, 304326, Text_t, ""
3, 304807, Text_t, ""
3, 305286, Text_t, ""
3, 305767, Text_t, ""
3, 306089, Text_t, ""
3, 306729, Text_t, ""
3, 307529, Text_t, ""
3, 308167, Text_t, ""
3, 308646, Text_t, ""
3, 309128, Text_t, ""
3, 309446, Text_t, ""
3, 310569, Text_t, ""
3, 310889, Text_t, ""
3, 313448, Text_t, ""
3, 313768, Text_t, ""
3, 313929, Text_t, ""
3, 314246, Text_t, ""
3, 314408, Text_t, ""
3, 314727, Text_t, ""
3, 314889, Text_t, ""
3, 315369, Text_t, ""
3, 315686, Text_t, ""
3, 316328, Text_t, ""
3, 316648, Text_t, ""
3, 316808, Text_t, ""
3, 317127, Text_t, ""
3, 317289, Text_t, ""
3, 317608, Text_t, ""
3, 318085, Text_t, ""
3, 318564, Text_t, ""
3, 318727, Text_t, ""
3, 319209, Text_t, ""
3, 319529, Text_t, ""
3, 320167, Text_t, ""
3, 320489, Text_t, ""
3, 320649, Text_t, ""
3, 320965, Text_t, ""
3, 321126, Text_t, ""
3, 321444, Text_t, ""
3, 321927, Text_t, ""
3, 322404, Text_t, ""
3, 322568, Text_t, ""
3, 322888, Text_t, ""
3, 323529, Text_t, ""
3, 323649, Text_t, ""
3, 323766, Text_t, ""
3, 323889, Text_t, ""
3, 324009, Text_t, ""
3, 324328, Text_t, ""
3, 324487, Text_t, ""
3, 324808, Text_t, ""
3, 325449, Text_t, ""
3, 325569, Text_t, ""
3, 325687, Text_t, ""
3, 325808, Text_t, ""
3, 325928, Text_t, ""
3, 326245, Text_t, ""
3, 327202, Text_t, ""
3, 328086, Text_t, ""
3, 330722, Text_t, ""
3, 331209, Text_t, ""
3, 331522, Text_t, ""
3, 332005, Text_t, ""
3, 332403, Text_t, ""
3, 332449, Text_t, ""
3, 332489, Text_t, ""
3, 332526, Text_t, ""
3, 332569, Text_t, ""
3, 332607, Text_t, ""
3, 332648, Text_t, ""
3, 332969, Text_t, ""
3, 332969, End_track
4, 0, Start_track
4, 0, Title_t, "Soft karaoke"
4, 0, Text_t, "@E-mail: mdr@lgs.it"
4, 0, End_track
5, 0, Start_track
5, 0, Title_t, "Words"
5, 12963, Text_t, "na "
5, 25764, Text_t, "hur"
5, 38249, Text_t, ""
5, 44006, Text_t, ""
5, 52168, Text_t, ""
5, 60967, Text_t, "es"
5, 69928, Text_t, "Eas"
5, 75369, Text_t, "s "
5, 79924, Text_t, "e"
5, 94088, Text_t, "L"
5, 108483, Text_t, ""
5, 120805, Text_t, ""
5, 133289, Text_t, "course, "
5, 144488, Text_t, "\\"
5, 149604, Text_t, "se "
5, 154806, Text_t, "a"
5, 162562, Text_t, ""
5, 176965, Text_t, ""
5, 185769, Text_t, ""
5, 198563, Text_t, ""
5, 210720, Text_t, ""
5, 216720, Text_t, ""
5, 225127, Text_t, ""
5, 234087, Text_t, ""
5, 241289, Text_t, ""
5, 246849, Text_t, ""
5, 254726, Text_t, ""
5, 269767, Text_t, ""
5, 282089, Text_t, ""
5, 297609, Text_t, ""
5, 306089, Text_t, ""
5, 315369, Text_t, ""
5, 320965, Text_t, ""
5, 325569, Text_t, ""
5, 332607, Text_t, ""
5, 332969, Text_t, ""
5, 334055, End_track
6, 0, Start_track
6, 0, Title_t, "Soft karaoke"
6, 0, Text_t, "@E-mail: mdr@lgs.it"
6, 0, End_track
7, 0, Start_track
7, 0, Title_t, "Words"
7, 154806, Text_t, "a"
7, 315369, Text_t, ""
7, 332969, Text_t, ""
7, 369255, End_track
8, 0, Start_track
8, 0, Title_t, "Soft karaoke"
8, 0, Text_t, "@E-mail: mdr@lgs.it"
8, 0, End_track
9, 0, Start_track
9, 0, Title_t, "Words"
9, 332969, Text_t, ""
9, 1052793, End_track
10, 0, Start_track
10, 0, Title_t, "Soft karaoke"
10, 0, Text_t, "@E-mail: mdr@lgs.it"
10, 0, End_track
11, 0, Start_track
11, 0, Title_t, "Words"
11, 332969, Text_t, ""
11, 2384669, End_track
12, 0, Start_track
12, 0, MIDI_port, 0
12, 0, Title_t, "Jazz Kit"
12, 0, Program_c, 9, 32
12, 0, Control_c, 9, 7, 115
12, 0, Control_c, 9, 10, 45
12, 0, Control_c, 9, 91, 94
12, 0, Control_c, 9, 93, 5
12, 0, Control_c, 9, 11, 104
12, 0, Control_c, 9, 123, 0
12, 1926, Note_on_c, 9, 37, 78
12, 2025, Note_on_c, 9, 37, 0
12, 2886, Note_on_c, 9, 37, 84
12, 2986, Note_on_c, 9, 37, 0
12, 3848, Note_on_c, 9, 37, 78
12, 3947, Note_on_c, 9, 37, 0
12, 4328, Note_on_c, 9, 37, 73
12, 4427, Note_on_c, 9, 37, 0
12, 4809, Note_on_c, 9, 37, 83
12, 4908, Note_on_c, 9, 37, 0
12, 5289, Note_on_c, 9, 40, 79
12, 5352, Note_on_c, 9, 40, 0
12, 5609, Note_on_c, 9, 40, 79
12, 5705, Note_on_c, 9, 40, 0
12, 5760, Control_c, 9, 11, 104
12, 5765, Note_on_c, 9, 40, 85
12, 5832, Note_on_c, 9, 40, 0
12, 6000, Control_c, 9, 11, 103
12, 6240, Control_c, 9, 11, 101
12, 6245, Note_on_c, 9, 45, 57
12, 6309, Note_on_c, 9, 45, 0
12, 6480, Control_c, 9, 11, 100
12, 6567, Note_on_c, 9, 45, 53
12, 6662, Note_on_c, 9, 45, 0
12, 6720, Control_c, 9, 11, 99
12, 6729, Note_on_c, 9, 45, 54
12, 6796, Note_on_c, 9, 45, 0
12, 6960, Control_c, 9, 11, 98
12, 7049, Note_on_c, 9, 40, 72
12, 7052, Note_on_c, 9, 42, 76
12, 7054, Note_on_c, 9, 35, 51
12, 7059, Note_on_c, 9, 42, 0
12, 7059, Note_on_c, 9, 40, 0
12, 7061, Note_on_c, 9, 35, 0
12, 7200, Control_c, 9, 11, 96
12, 7207, Note_on_c, 9, 42, 59
12, 7215, Note_on_c, 9, 42, 0
12, 7440, Control_c, 9, 11, 95
12, 7539, Note_on_c, 9, 35, 67
12, 7549, Note_on_c, 9, 35, 0
12, 7680, Control_c, 9, 11, 94
12, 7688, Note_on_c, 9, 49, 69
12, 7783, Note_on_c, 9, 49, 0
12, 8166, Note_on_c, 9, 51, 100
12, 8169, Note_on_c, 9, 42, 72
12, 8262, Note_on_c, 9, 51, 0
12, 8264, Note_on_c, 9, 42, 0
12, 8646, Note_on_c, 9, 51, 83
12, 8741, Note_on_c, 9, 51, 0
12, 9128, Note_on_c, 9, 51, 98
12, 9129, Note_on_c, 9, 42, 74
12, 9129, Note_on_c, 9, 37, 71
12, 9223, Note_on_c, 9, 51, 0
12, 9224, Note_on_c, 9, 37, 0
12, 9227, Note_on_c, 9, 42, 0
12, 9605, Note_on_c, 9, 51, 84
12, 9701, Note_on_c, 9, 51, 0
12, 10088, Note_on_c, 9, 51, 92
12, 10089, Note_on_c, 9, 42, 68
12, 10183, Note_on_c, 9, 51, 0
12, 10184, Note_on_c, 9, 42, 0
12, 10566, Note_on_c, 9, 51, 76
12, 10661, Note_on_c, 9, 51, 0
12, 11043, Note_on_c, 9, 37, 68
12, 11047, Note_on_c, 9, 51, 87
12, 11049, Note_on_c, 9, 42, 73
12, 11138, Note_on_c, 9, 37, 0
12, 11145, Note_on_c, 9, 51, 0
12, 11146, Note_on_c, 9, 42, 0
12, 11526, Note_on_c, 9, 51, 78
12, 11622, Note_on_c, 9, 51, 0
12, 12005, Note_on_c, 9, 42, 74
12, 12008, Note_on_c, 9, 51, 94
12, 12103, Note_on_c, 9, 51, 0
12, 12104, Note_on_c, 9, 42, 0
12, 12362, Note_on_c, 9, 51, 59
12, 12458, Note_on_c, 9, 51, 0
12, 12489, Note_on_c, 9, 51, 78
12, 12585, Note_on_c, 9, 51, 0
12, 12965, Note_on_c, 9, 42, 71
12, 12966, Note_on_c, 9, 51, 87
12, 12969, Note_on_c, 9, 37, 72
12, 13060, Note_on_c, 9, 42, 0
12, 13062, Note_on_c, 9, 51, 0
12, 13066, Note_on_c, 9, 37, 0
12, 13324, Note_on_c, 9, 51, 61
12, 13419, Note_on_c, 9, 51, 0
12, 13446, Note_on_c, 9, 51, 80
12, 13541, Note_on_c, 9, 51, 0
12, 13924, Note_on_c, 9, 42, 67
12, 13925, Note_on_c, 9, 51, 100
12, 14019, Note_on_c, 9, 42, 0
12, 14020, Note_on_c, 9, 51, 0
12, 14408, Note_on_c, 9, 51, 81
12, 14504, Note_on_c, 9, 51, 0
12, 14883, Note_on_c, 9, 37, 66
12, 14888, Note_on_c, 9, 51, 99
12, 14889, Note_on_c, 9, 42, 73
12, 14979, Note_on_c, 9, 37, 0
12, 14984, Note_on_c, 9, 42, 0
12, 14985, Note_on_c, 9, 51, 0
12, 15367, Note_on_c, 9, 51, 79
12, 15462, Note_on_c, 9, 51, 0
12, 15848, Note_on_c, 9, 42, 72
12, 15848, Note_on_c, 9, 51, 93
12, 15943, Note_on_c, 9, 51, 0
12, 15944, Note_on_c, 9, 42, 0
12, 16200, Note_on_c, 9, 51, 64
12, 16295, Note_on_c, 9, 51, 0
12, 16327, Note_on_c, 9, 51, 77
12, 16423, Note_on_c, 9, 51, 0
12, 16803, Note_on_c, 9, 37, 61
12, 16804, Note_on_c, 9, 42, 69
12, 16808, Note_on_c, 9, 51, 85
12, 16898, Note_on_c, 9, 37, 0
12, 16899, Note_on_c, 9, 42, 0
12, 16905, Note_on_c, 9, 51, 0
12, 17160, Note_on_c, 9, 51, 61
12, 17257, Note_on_c, 9, 51, 0
12, 17282, Note_on_c, 9, 51, 78
12, 17379, Note_on_c, 9, 51, 0
12, 17763, Note_on_c, 9, 42, 68
12, 17767, Note_on_c, 9, 51, 90
12, 17858, Note_on_c, 9, 42, 0
12, 17864, Note_on_c, 9, 51, 0
12, 18125, Note_on_c, 9, 51, 56
12, 18220, Note_on_c, 9, 51, 0
12, 18246, Note_on_c, 9, 51, 79
12, 18342, Note_on_c, 9, 51, 0
12, 18724, Note_on_c, 9, 42, 66
12, 18726, Note_on_c, 9, 37, 68
12, 18729, Note_on_c, 9, 51, 86
12, 18820, Note_on_c, 9, 42, 0
12, 18821, Note_on_c, 9, 37, 0
12, 18824, Note_on_c, 9, 51, 0
12, 19083, Note_on_c, 9, 51, 57
12, 19178, Note_on_c, 9, 51, 0
12, 19206, Note_on_c, 9, 51, 81
12, 19301, Note_on_c, 9, 51, 0
12, 19674, Note_on_c, 9, 42, 74
12, 19688, Note_on_c, 9, 51, 86
12, 19769, Note_on_c, 9, 42, 0
12, 19785, Note_on_c, 9, 51, 0
12, 20045, Note_on_c, 9, 51, 55
12, 20142, Note_on_c, 9, 51, 0
12, 20164, Note_on_c, 9, 51, 79
12, 20259, Note_on_c, 9, 51, 0
12, 20646, Note_on_c, 9, 42, 72
12, 20648, Note_on_c, 9, 37, 65
12, 20648, Note_on_c, 9, 51, 85
12, 20742, Note_on_c, 9, 42, 0
12, 20743, Note_on_c, 9, 51, 0
12, 20743, Note_on_c, 9, 37, 0
12, 21003, Note_on_c, 9, 51, 63
12, 21098, Note_on_c, 9, 51, 0
12, 21124, Note_on_c, 9, 51, 78
12, 21219, Note_on_c, 9, 51, 0
12, 21608, Note_on_c, 9, 42, 65
12, 21608, Note_on_c, 9, 51, 91
12, 21703, Note_on_c, 9, 42, 0
12, 21705, Note_on_c, 9, 51, 0
12, 21964, Note_on_c, 9, 51, 57
12, 22061, Note_on_c, 9, 51, 0
12, 22089, Note_on_c, 9, 51, 83
12, 22184, Note_on_c, 9, 51, 0
12, 22406, Note_on_c, 9, 40, 65
12, 22406, Note_on_c, 9, 36, 53
12, 22533, Note_on_c, 9, 36, 0
12, 22533, Note_on_c, 9, 40, 0
12, 22565, Note_on_c, 9, 42, 72
12, 22566, Note_on_c, 9, 51, 88
12, 22661, Note_on_c, 9, 51, 0
12, 22661, Note_on_c, 9, 42, 0
12, 22885, Note_on_c, 9, 40, 36
12, 22920, Note_on_c, 9, 51, 64
12, 23016, Note_on_c, 9, 51, 0
12, 23016, Note_on_c, 9, 40, 0
12, 23046, Note_on_c, 9, 51, 76
12, 23048, Note_on_c, 9, 36, 52
12, 23049, Note_on_c, 9, 40, 70
12, 23141, Note_on_c, 9, 51, 0
12, 23151, Note_on_c, 9, 36, 0
12, 23153, Note_on_c, 9, 40, 0
12, 23525, Note_on_c, 9, 51, 95
12, 23526, Note_on_c, 9, 42, 72
12, 23620, Note_on_c, 9, 51, 0
12, 23621, Note_on_c, 9, 42, 0
12, 24008, Note_on_c, 9, 51, 78
12, 24104, Note_on_c, 9, 51, 0
12, 24485, Note_on_c, 9, 51, 101
12, 24488, Note_on_c, 9, 42, 74
12, 24489, Note_on_c, 9, 37, 71
12, 24581, Note_on_c, 9, 51, 0
12, 24584, Note_on_c, 9, 42, 0
12, 24586, Note_on_c, 9, 37, 0
12, 24968, Note_on_c, 9, 51, 84
12, 25063, Note_on_c, 9, 51, 0
12, 25446, Note_on_c, 9, 42, 72
12, 25447, Note_on_c, 9, 51, 104
12, 25541, Note_on_c, 9, 42, 0
12, 25542, Note_on_c, 9, 51, 0
12, 25924, Note_on_c, 9, 51, 78
12, 26019, Note_on_c, 9, 51, 0
12, 26406, Note_on_c, 9, 51, 101
12, 26406, Note_on_c, 9, 37, 71
12, 26408, Note_on_c, 9, 42, 69
12, 26502, Note_on_c, 9, 37, 0
12, 26503, Note_on_c, 9, 51, 0
12, 26504, Note_on_c, 9, 42, 0
12, 26883, Note_on_c, 9, 51, 79
12, 26979, Note_on_c, 9, 51, 0
12, 27367, Note_on_c, 9, 42, 67
12, 27368, Note_on_c, 9, 51, 94
12, 27462, Note_on_c, 9, 42, 0
12, 27463, Note_on_c, 9, 51, 0
12, 27725, Note_on_c, 9, 51, 63
12, 27820, Note_on_c, 9, 51, 0
12, 27849, Note_on_c, 9, 51, 79
12, 27944, Note_on_c, 9, 51, 0
12, 28320, Note_on_c, 9, 51, 88
12, 28328, Note_on_c, 9, 37, 70
12, 28329, Note_on_c, 9, 42, 72
12, 28418, Note_on_c, 9, 51, 0
12, 28424, Note_on_c, 9, 37, 0
12, 28426, Note_on_c, 9, 42, 0
12, 28685, Note_on_c, 9, 51, 62
12, 28780, Note_on_c, 9, 51, 0
12, 28809, Note_on_c, 9, 51, 84
12, 28904, Note_on_c, 9, 51, 0
12, 29286, Note_on_c, 9, 51, 87
12, 29287, Note_on_c, 9, 42, 69
12, 29382, Note_on_c, 9, 51, 0
12, 29384, Note_on_c, 9, 42, 0
12, 29644, Note_on_c, 9, 51, 63
12, 29740, Note_on_c, 9, 51, 0
12, 29767, Note_on_c, 9, 51, 80
12, 29862, Note_on_c, 9, 51, 0
12, 30245, Note_on_c, 9, 42, 71
12, 30246, Note_on_c, 9, 51, 89
12, 30247, Note_on_c, 9, 37, 69
12, 30340, Note_on_c, 9, 42, 0
12, 30342, Note_on_c, 9, 51, 0
12, 30343, Note_on_c, 9, 37, 0
12, 30603, Note_on_c, 9, 51, 62
12, 30699, Note_on_c, 9, 51, 0
12, 30727, Note_on_c, 9, 51, 83
12, 30822, Note_on_c, 9, 51, 0
12, 31207, Note_on_c, 9, 42, 69
12, 31209, Note_on_c, 9, 51, 103
12, 31302, Note_on_c, 9, 42, 0
12, 31306, Note_on_c, 9, 51, 0
12, 31687, Note_on_c, 9, 51, 84
12, 31785, Note_on_c, 9, 51, 0
12, 32164, Note_on_c, 9, 51, 104
12, 32169, Note_on_c, 9, 42, 70
12, 32169, Note_on_c, 9, 37, 73
12, 32260, Note_on_c, 9, 51, 0
12, 32264, Note_on_c, 9, 42, 0
12, 32266, Note_on_c, 9, 37, 0
12, 32645, Note_on_c, 9, 51, 81
12, 32740, Note_on_c, 9, 51, 0
12, 33125, Note_on_c, 9, 42, 66
12, 33125, Note_on_c, 9, 51, 98
12, 33222, Note_on_c, 9, 51, 0
12, 33222, Note_on_c, 9, 42, 0
12, 33607, Note_on_c, 9, 51, 77
12, 33704, Note_on_c, 9, 51, 0
12, 34084, Note_on_c, 9, 51, 100
12, 34086, Note_on_c, 9, 42, 68
12, 34088, Note_on_c, 9, 37, 68
12, 34179, Note_on_c, 9, 51, 0
12, 34181, Note_on_c, 9, 42, 0
12, 34183, Note_on_c, 9, 37, 0
12, 34567, Note_on_c, 9, 51, 83
12, 34662, Note_on_c, 9, 51, 0
12, 35046, Note_on_c, 9, 42, 69
12, 35047, Note_on_c, 9, 51, 104
12, 35143, Note_on_c, 9, 51, 0
12, 35143, Note_on_c, 9, 42, 0
12, 35526, Note_on_c, 9, 51, 83
12, 35621, Note_on_c, 9, 51, 0
12, 36008, Note_on_c, 9, 51, 97
12, 36009, Note_on_c, 9, 42, 70
12, 36009, Note_on_c, 9, 37, 71
12, 36103, Note_on_c, 9, 51, 0
12, 36107, Note_on_c, 9, 37, 0
12, 36108, Note_on_c, 9, 42, 0
12, 36488, Note_on_c, 9, 51, 83
12, 36583, Note_on_c, 9, 51, 0
12, 36968, Note_on_c, 9, 42, 66
12, 36969, Note_on_c, 9, 51, 90
12, 37063, Note_on_c, 9, 42, 0
12, 37064, Note_on_c, 9, 51, 0
12, 37322, Note_on_c, 9, 51, 62
12, 37417, Note_on_c, 9, 51, 0
12, 37440, Control_c, 9, 11, 94
12, 37448, Note_on_c, 9, 51, 79
12, 37544, Note_on_c, 9, 51, 0
12, 37560, Control_c, 9, 11, 95
12, 37680, Control_c, 9, 11, 96
12, 37759, Note_on_c, 9, 40, 82
12, 37766, Note_on_c, 9, 40, 0
12, 37767, Note_on_c, 9, 36, 69
12, 37775, Note_on_c, 9, 36, 0
12, 37800, Control_c, 9, 11, 98
12, 37920, Control_c, 9, 11, 99
12, 37926, Note_on_c, 9, 42, 66
12, 37928, Note_on_c, 9, 51, 90
12, 38021, Note_on_c, 9, 42, 0
12, 38023, Note_on_c, 9, 51, 0
12, 38040, Control_c, 9, 11, 100
12, 38160, Control_c, 9, 11, 101
12, 38249, Note_on_c, 9, 40, 71
12, 38254, Note_on_c, 9, 36, 51
12, 38262, Note_on_c, 9, 36, 0
12, 38280, Control_c, 9, 11, 103
12, 38310, Note_on_c, 9, 40, 0
12, 38400, Control_c, 9, 11, 104
12, 38402, Note_on_c, 9, 36, 56
12, 38409, Note_on_c, 9, 49, 76
12, 38497, Note_on_c, 9, 36, 0
12, 38504, Note_on_c, 9, 49, 0
12, 38888, Note_on_c, 9, 42, 66
12, 38888, Note_on_c, 9, 51, 98
12, 38983, Note_on_c, 9, 51, 0
12, 38983, Note_on_c, 9, 42, 0
12, 39369, Note_on_c, 9, 51, 83
12, 39464, Note_on_c, 9, 51, 0
12, 39847, Note_on_c, 9, 42, 69
12, 39848, Note_on_c, 9, 37, 70
12, 39848, Note_on_c, 9, 51, 102
12, 39942, Note_on_c, 9, 42, 0
12, 39943, Note_on_c, 9, 51, 0
12, 39943, Note_on_c, 9, 37, 0
12, 40328, Note_on_c, 9, 51, 81
12, 40423, Note_on_c, 9, 51, 0
12, 40806, Note_on_c, 9, 51, 88
12, 40808, Note_on_c, 9, 42, 74
12, 40901, Note_on_c, 9, 51, 0
12, 40904, Note_on_c, 9, 42, 0
12, 41289, Note_on_c, 9, 51, 78
12, 41384, Note_on_c, 9, 51, 0
12, 41766, Note_on_c, 9, 51, 92
12, 41768, Note_on_c, 9, 42, 69
12, 41768, Note_on_c, 9, 37, 73
12, 41863, Note_on_c, 9, 37, 0
12, 41863, Note_on_c, 9, 51, 0
12, 41864, Note_on_c, 9, 42, 0
12, 42246, Note_on_c, 9, 51, 81
12, 42342, Note_on_c, 9, 51, 0
12, 42727, Note_on_c, 9, 42, 74
12, 42728, Note_on_c, 9, 51, 88
12, 42823, Note_on_c, 9, 42, 0
12, 42825, Note_on_c, 9, 51, 0
12, 43079, Note_on_c, 9, 51, 60
12, 43176, Note_on_c, 9, 51, 0
12, 43207, Note_on_c, 9, 51, 75
12, 43303, Note_on_c, 9, 51, 0
12, 43687, Note_on_c, 9, 51, 89
12, 43687, Note_on_c, 9, 42, 71
12, 43688, Note_on_c, 9, 37, 63
12, 43782, Note_on_c, 9, 42, 0
12, 43783, Note_on_c, 9, 51, 0
12, 43785, Note_on_c, 9, 37, 0
12, 44038, Note_on_c, 9, 51, 62
12, 44134, Note_on_c, 9, 51, 0
12, 44163, Note_on_c, 9, 51, 84
12, 44259, Note_on_c, 9, 51, 0
12, 44642, Note_on_c, 9, 42, 70
12, 44648, Note_on_c, 9, 51, 91
12, 44737, Note_on_c, 9, 42, 0
12, 44744, Note_on_c, 9, 51, 0
12, 45128, Note_on_c, 9, 51, 81
12, 45225, Note_on_c, 9, 51, 0
12, 45602, Note_on_c, 9, 42, 70
12, 45606, Note_on_c, 9, 37, 66
12, 45609, Note_on_c, 9, 51, 94
12, 45697, Note_on_c, 9, 42, 0
12, 45703, Note_on_c, 9, 37, 0
12, 45706, Note_on_c, 9, 51, 0
12, 46084, Note_on_c, 9, 51, 78
12, 46179, Note_on_c, 9, 51, 0
12, 46489, Note_on_c, 9, 40, 51
12, 46522, Note_on_c, 9, 40, 57
12, 46527, Note_on_c, 9, 40, 0
12, 46560, Note_on_c, 9, 40, 0
12, 46566, Note_on_c, 9, 40, 46
12, 46566, Note_on_c, 9, 42, 72
12, 46569, Note_on_c, 9, 51, 102
12, 46629, Note_on_c, 9, 40, 0
12, 46662, Note_on_c, 9, 42, 0
12, 46664, Note_on_c, 9, 51, 0
12, 46889, Note_on_c, 9, 40, 80
12, 46938, Note_on_c, 9, 40, 0
12, 47049, Note_on_c, 9, 51, 81
12, 47144, Note_on_c, 9, 51, 0
12, 47525, Note_on_c, 9, 42, 66
12, 47525, Note_on_c, 9, 37, 68
12, 47528, Note_on_c, 9, 51, 104
12, 47620, Note_on_c, 9, 42, 0
12, 47623, Note_on_c, 9, 51, 0
12, 47623, Note_on_c, 9, 37, 0
12, 48008, Note_on_c, 9, 51, 83
12, 48104, Note_on_c, 9, 51, 0
12, 48483, Note_on_c, 9, 36, 68
12, 48484, Note_on_c, 9, 42, 71
12, 48489, Note_on_c, 9, 51, 91
12, 48489, Note_on_c, 9, 40, 68
12, 48579, Note_on_c, 9, 36, 0
12, 48581, Note_on_c, 9, 42, 0
12, 48584, Note_on_c, 9, 40, 0
12, 48585, Note_on_c, 9, 51, 0
12, 48841, Note_on_c, 9, 51, 62
12, 48938, Note_on_c, 9, 51, 0
12, 48961, Note_on_c, 9, 51, 78
12, 49057, Note_on_c, 9, 51, 0
12, 49445, Note_on_c, 9, 42, 74
12, 49445, Note_on_c, 9, 37, 74
12, 49445, Note_on_c, 9, 51, 94
12, 49541, Note_on_c, 9, 37, 0
12, 49542, Note_on_c, 9, 51, 0
12, 49542, Note_on_c, 9, 42, 0
12, 49802, Note_on_c, 9, 51, 60
12, 49897, Note_on_c, 9, 51, 0
12, 49925, Note_on_c, 9, 51, 75
12, 50020, Note_on_c, 9, 51, 0
12, 50407, Note_on_c, 9, 51, 86
12, 50409, Note_on_c, 9, 42, 71
12, 50503, Note_on_c, 9, 51, 0
12, 50505, Note_on_c, 9, 42, 0
12, 50758, Note_on_c, 9, 51, 64
12, 50854, Note_on_c, 9, 51, 0
12, 50888, Note_on_c, 9, 51, 83
12, 50984, Note_on_c, 9, 51, 0
12, 51361, Note_on_c, 9, 51, 89
12, 51366, Note_on_c, 9, 37, 59
12, 51369, Note_on_c, 9, 42, 65
12, 51456, Note_on_c, 9, 51, 0
12, 51461, Note_on_c, 9, 37, 0
12, 51468, Note_on_c, 9, 42, 0
12, 51721, Note_on_c, 9, 51, 61
12, 51817, Note_on_c, 9, 51, 0
12, 51848, Note_on_c, 9, 51, 75
12, 51944, Note_on_c, 9, 51, 0
12, 52169, Note_on_c, 9, 41, 86
12, 52229, Note_on_c, 9, 41, 0
12, 52324, Note_on_c, 9, 40, 64
12, 52328, Note_on_c, 9, 36, 70
12, 52329, Note_on_c, 9, 42, 73
12, 52329, Note_on_c, 9, 51, 90
12, 52376, Note_on_c, 9, 40, 0
12, 52425, Note_on_c, 9, 36, 0
12, 52425, Note_on_c, 9, 42, 0
12, 52425, Note_on_c, 9, 51, 0
12, 52630, Pitch_bend_c, 9, 7948
12, 52647, Note_on_c, 9, 36, 63
12, 52649, Note_on_c, 9, 57, 85
12, 52723, Note_on_c, 9, 36, 0
12, 52726, Note_on_c, 9, 57, 0
12, 53128, Note_on_c, 9, 36, 76
12, 53135, Note_on_c, 9, 36, 0
12, 53282, Note_on_c, 9, 40, 68
12, 53290, Note_on_c, 9, 40, 0
12, 53454, Note_on_c, 9, 40, 38
12, 53462, Note_on_c, 9, 40, 0
12, 53600, Note_on_c, 9, 40, 84
12, 53609, Note_on_c, 9, 40, 0
12, 53619, Note_on_c, 9, 36, 54
12, 53627, Note_on_c, 9, 36, 0
12, 53766, Note_on_c, 9, 36, 56
12, 53769, Note_on_c, 9, 49, 79
12, 53774, Note_on_c, 9, 36, 0
12, 53864, Note_on_c, 9, 49, 0
12, 54085, Note_on_c, 9, 40, 75
12, 54217, Note_on_c, 9, 40, 0
12, 54242, Note_on_c, 9, 42, 74
12, 54246, Note_on_c, 9, 51, 86
12, 54337, Note_on_c, 9, 42, 0
12, 54341, Note_on_c, 9, 51, 0
12, 54603, Note_on_c, 9, 51, 57
12, 54699, Note_on_c, 9, 51, 0
12, 54725, Note_on_c, 9, 51, 82
12, 54822, Note_on_c, 9, 51, 0
12, 55206, Note_on_c, 9, 37, 66
12, 55208, Note_on_c, 9, 42, 65
12, 55208, Note_on_c, 9, 51, 87
12, 55303, Note_on_c, 9, 37, 0
12, 55304, Note_on_c, 9, 42, 0
12, 55305, Note_on_c, 9, 51, 0
12, 55562, Note_on_c, 9, 51, 62
12, 55659, Note_on_c, 9, 51, 0
12, 55688, Note_on_c, 9, 51, 77
12, 55784, Note_on_c, 9, 51, 0
12, 56167, Note_on_c, 9, 42, 66
12, 56168, Note_on_c, 9, 51, 88
12, 56262, Note_on_c, 9, 42, 0
12, 56264, Note_on_c, 9, 51, 0
12, 56649, Note_on_c, 9, 51, 80
12, 56745, Note_on_c, 9, 51, 0
12, 57126, Note_on_c, 9, 42, 67
12, 57127, Note_on_c, 9, 51, 90
12, 57129, Note_on_c, 9, 37, 73
12, 57221, Note_on_c, 9, 42, 0
12, 57222, Note_on_c, 9, 51, 0
12, 57227, Note_on_c, 9, 37, 0
12, 57603, Note_on_c, 9, 51, 80
12, 57701, Note_on_c, 9, 51, 0
12, 57926, Note_on_c, 9, 40, 80
12, 58057, Note_on_c, 9, 40, 0
12, 58083, Note_on_c, 9, 51, 98
12, 58086, Note_on_c, 9, 42, 65
12, 58178, Note_on_c, 9, 51, 0
12, 58183, Note_on_c, 9, 42, 0
12, 58569, Note_on_c, 9, 51, 78
12, 58665, Note_on_c, 9, 51, 0
12, 59046, Note_on_c, 9, 37, 71
12, 59048, Note_on_c, 9, 51, 102
12, 59049, Note_on_c, 9, 42, 73
12, 59143, Note_on_c, 9, 51, 0
12, 59143, Note_on_c, 9, 37, 0
12, 59144, Note_on_c, 9, 42, 0
12, 59527, Note_on_c, 9, 51, 81
12, 59622, Note_on_c, 9, 51, 0
12, 60008, Note_on_c, 9, 42, 65
12, 60009, Note_on_c, 9, 51, 93
12, 60104, Note_on_c, 9, 51, 0
12, 60104, Note_on_c, 9, 42, 0
12, 60485, Note_on_c, 9, 51, 78
12, 60580, Note_on_c, 9, 51, 0
12, 60967, Note_on_c, 9, 37, 70
12, 60968, Note_on_c, 9, 51, 87
12, 60969, Note_on_c, 9, 42, 73
12, 61063, Note_on_c, 9, 51, 0
12, 61064, Note_on_c, 9, 37, 0
12, 61065, Note_on_c, 9, 42, 0
12, 61447, Note_on_c, 9, 51, 81
12, 61543, Note_on_c, 9, 51, 0
12, 61928, Note_on_c, 9, 42, 66
12, 61928, Note_on_c, 9, 51, 89
12, 62023, Note_on_c, 9, 51, 0
12, 62024, Note_on_c, 9, 42, 0
12, 62285, Note_on_c, 9, 51, 60
12, 62380, Note_on_c, 9, 51, 0
12, 62402, Note_on_c, 9, 51, 78
12, 62498, Note_on_c, 9, 51, 0
12, 62884, Note_on_c, 9, 37, 73
12, 62886, Note_on_c, 9, 51, 90
12, 62889, Note_on_c, 9, 42, 70
12, 62980, Note_on_c, 9, 37, 0
12, 62983, Note_on_c, 9, 51, 0
12, 62985, Note_on_c, 9, 42, 0
12, 63243, Note_on_c, 9, 51, 55
12, 63339, Note_on_c, 9, 51, 0
12, 63366, Note_on_c, 9, 51, 77
12, 63461, Note_on_c, 9, 51, 0
12, 63840, Note_on_c, 9, 51, 93
12, 63847, Note_on_c, 9, 42, 65
12, 63936, Note_on_c, 9, 51, 0
12, 63942, Note_on_c, 9, 42, 0
12, 64325, Note_on_c, 9, 51, 81
12, 64421, Note_on_c, 9, 51, 0
12, 64806, Note_on_c, 9, 37, 65
12, 64808, Note_on_c, 9, 42, 66
12, 64809, Note_on_c, 9, 51, 89
12, 64902, Note_on_c, 9, 37, 0
12, 64903, Note_on_c, 9, 42, 0
12, 64905, Note_on_c, 9, 51, 0
12, 65288, Note_on_c, 9, 51, 75
12, 65384, Note_on_c, 9, 51, 0
12, 65598, Note_on_c, 9, 36, 65
12, 65609, Note_on_c, 9, 40, 90
12, 65725, Note_on_c, 9, 36, 0
12, 65736, Note_on_c, 9, 40, 0
12, 65766, Note_on_c, 9, 51, 92
12, 65769, Note_on_c, 9, 42, 70
12, 65861, Note_on_c, 9, 51, 0
12, 65864, Note_on_c, 9, 42, 0
12, 66121, Note_on_c, 9, 51, 63
12, 66217, Note_on_c, 9, 51, 0
12, 66244, Note_on_c, 9, 36, 73
12, 66247, Note_on_c, 9, 51, 76
12, 66249, Note_on_c, 9, 40, 85
12, 66342, Note_on_c, 9, 51, 0
12, 66348, Note_on_c, 9, 36, 0
12, 66353, Note_on_c, 9, 40, 0
12, 66563, Note_on_c, 9, 40, 85
12, 66716, Note_on_c, 9, 40, 0
12, 66727, Note_on_c, 9, 42, 65
12, 66728, Note_on_c, 9, 51, 92
12, 66729, Note_on_c, 9, 40, 65
12, 66804, Note_on_c, 9, 40, 0
12, 66822, Note_on_c, 9, 42, 0
12, 66824, Note_on_c, 9, 51, 0
12, 67046, Note_on_c, 9, 49, 85
12, 67047, Note_on_c, 9, 36, 84
12, 67154, Note_on_c, 9, 49, 0
12, 67155, Note_on_c, 9, 36, 0
12, 67683, Note_on_c, 9, 40, 85
12, 67686, Note_on_c, 9, 42, 72
12, 67688, Note_on_c, 9, 51, 90
12, 67775, Note_on_c, 9, 40, 0
12, 67781, Note_on_c, 9, 42, 0
12, 67784, Note_on_c, 9, 51, 0
12, 68045, Note_on_c, 9, 51, 60
12, 68143, Note_on_c, 9, 51, 0
12, 68169, Note_on_c, 9, 51, 81
12, 68266, Note_on_c, 9, 51, 0
12, 68488, Note_on_c, 9, 40, 65
12, 68492, Note_on_c, 9, 35, 71
12, 68494, Note_on_c, 9, 42, 98
12, 68497, Note_on_c, 9, 40, 0
12, 68501, Note_on_c, 9, 35, 0
12, 68502, Note_on_c, 9, 42, 0
12, 68643, Note_on_c, 9, 42, 60
12, 68648, Note_on_c, 9, 51, 85
12, 68651, Note_on_c, 9, 42, 0
12, 68744, Note_on_c, 9, 51, 0
12, 68977, Note_on_c, 9, 35, 63
12, 68987, Note_on_c, 9, 35, 0
12, 69127, Note_on_c, 9, 35, 73
12, 69128, Note_on_c, 9, 57, 92
12, 69135, Note_on_c, 9, 35, 0
12, 69136, Note_on_c, 9, 57, 0
12, 69600, Note_on_c, 9, 51, 86
12, 69606, Note_on_c, 9, 42, 70
12, 69695, Note_on_c, 9, 51, 0
12, 69702, Note_on_c, 9, 42, 0
12, 69964, Note_on_c, 9, 51, 57
12, 70059, Note_on_c, 9, 51, 0
12, 70088, Note_on_c, 9, 51, 79
12, 70183, Note_on_c, 9, 51, 0
12, 70564, Note_on_c, 9, 37, 72
12, 70568, Note_on_c, 9, 42, 72
12, 70568, Note_on_c, 9, 51, 93
12, 70660, Note_on_c, 9, 37, 0
12, 70664, Note_on_c, 9, 51, 0
12, 70664, Note_on_c, 9, 42, 0
12, 70925, Note_on_c, 9, 51, 64
12, 71021, Note_on_c, 9, 51, 0
12, 71042, Note_on_c, 9, 51, 82
12, 71139, Note_on_c, 9, 51, 0
12, 71525, Note_on_c, 9, 42, 74
12, 71528, Note_on_c, 9, 51, 90
12, 71621, Note_on_c, 9, 42, 0
12, 71623, Note_on_c, 9, 51, 0
12, 72007, Note_on_c, 9, 51, 80
12, 72103, Note_on_c, 9, 51, 0
12, 72321, Note_on_c, 9, 35, 80
12, 72321, Note_on_c, 9, 48, 59
12, 72323, Note_on_c, 9, 40, 70
12, 72323, Note_on_c, 9, 46, 63
12, 72330, Note_on_c, 9, 46, 0
12, 72330, Note_on_c, 9, 48, 0
12, 72331, Note_on_c, 9, 40, 0
12, 72331, Note_on_c, 9, 35, 0
12, 72482, Note_on_c, 9, 50, 48
12, 72488, Note_on_c, 9, 42, 68
12, 72489, Note_on_c, 9, 50, 0
12, 72489, Note_on_c, 9, 42, 74
12, 72496, Note_on_c, 9, 42, 0
12, 72583, Note_on_c, 9, 42, 0
12, 72644, Note_on_c, 9, 47, 61
12, 72651, Note_on_c, 9, 47, 0
12, 72808, Note_on_c, 9, 45, 66
12, 72817, Note_on_c, 9, 45, 0
12, 72960, Note_on_c, 9, 49, 89
12, 72964, Note_on_c, 9, 35, 47
12, 72967, Note_on_c, 9, 49, 0
12, 72973, Note_on_c, 9, 35, 0
12, 73446, Note_on_c, 9, 51, 94
12, 73448, Note_on_c, 9, 42, 74
12, 73541, Note_on_c, 9, 51, 0
12, 73543, Note_on_c, 9, 42, 0
12, 73801, Note_on_c, 9, 51, 57
12, 73896, Note_on_c, 9, 51, 0
12, 73927, Note_on_c, 9, 51, 76
12, 74022, Note_on_c, 9, 51, 0
12, 74408, Note_on_c, 9, 42, 72
12, 74408, Note_on_c, 9, 37, 57
12, 74408, Note_on_c, 9, 51, 87
12, 74503, Note_on_c, 9, 51, 0
12, 74504, Note_on_c, 9, 37, 0
12, 74506, Note_on_c, 9, 42, 0
12, 74756, Note_on_c, 9, 51, 62
12, 74854, Note_on_c, 9, 51, 0
12, 74885, Note_on_c, 9, 51, 75
12, 74980, Note_on_c, 9, 51, 0
12, 75365, Note_on_c, 9, 42, 71
12, 75365, Note_on_c, 9, 51, 91
12, 75461, Note_on_c, 9, 51, 0
12, 75461, Note_on_c, 9, 42, 0
12, 75721, Note_on_c, 9, 51, 64
12, 75816, Note_on_c, 9, 51, 0
12, 75836, Note_on_c, 9, 51, 79
12, 75931, Note_on_c, 9, 51, 0
12, 76167, Note_on_c, 9, 40, 83
12, 76174, Note_on_c, 9, 40, 0
12, 76322, Note_on_c, 9, 42, 66
12, 76329, Note_on_c, 9, 51, 86
12, 76417, Note_on_c, 9, 42, 0
12, 76424, Note_on_c, 9, 51, 0
12, 76654, Note_on_c, 9, 40, 74
12, 76661, Note_on_c, 9, 40, 0
12, 76800, Note_on_c, 9, 49, 92
12, 76807, Note_on_c, 9, 49, 0
12, 76811, Note_on_c, 9, 36, 64
12, 76819, Note_on_c, 9, 36, 0
12, 77288, Note_on_c, 9, 51, 98
12, 77289, Note_on_c, 9, 42, 71
12, 77383, Note_on_c, 9, 51, 0
12, 77385, Note_on_c, 9, 42, 0
12, 77766, Note_on_c, 9, 51, 78
12, 77863, Note_on_c, 9, 51, 0
12, 78247, Note_on_c, 9, 42, 66
12, 78247, Note_on_c, 9, 51, 102
12, 78342, Note_on_c, 9, 42, 0
12, 78343, Note_on_c, 9, 51, 0
12, 78567, Note_on_c, 9, 40, 83
12, 78627, Note_on_c, 9, 40, 0
12, 78728, Note_on_c, 9, 51, 84
12, 78823, Note_on_c, 9, 51, 0
12, 79048, Note_on_c, 9, 40, 52
12, 79133, Note_on_c, 9, 40, 0
12, 79206, Note_on_c, 9, 51, 92
12, 79207, Note_on_c, 9, 36, 54
12, 79208, Note_on_c, 9, 42, 68
12, 79208, Note_on_c, 9, 40, 68
12, 79258, Note_on_c, 9, 36, 0
12, 79261, Note_on_c, 9, 40, 0
12, 79302, Note_on_c, 9, 51, 0
12, 79303, Note_on_c, 9, 42, 0
12, 79525, Note_on_c, 9, 40, 78
12, 79528, Note_on_c, 9, 36, 67
12, 79621, Note_on_c, 9, 40, 0
12, 79624, Note_on_c, 9, 36, 0
12, 79689, Note_on_c, 9, 51, 83
12, 79787, Note_on_c, 9, 51, 0
12, 80162, Note_on_c, 9, 37, 65
12, 80165, Note_on_c, 9, 42, 65
12, 80167, Note_on_c, 9, 51, 94
12, 80257, Note_on_c, 9, 37, 0
12, 80260, Note_on_c, 9, 42, 0
12, 80262, Note_on_c, 9, 51, 0
12, 80520, Note_on_c, 9, 51, 59
12, 80615, Note_on_c, 9, 51, 0
12, 80645, Note_on_c, 9, 51, 76
12, 80740, Note_on_c, 9, 51, 0
12, 81121, Note_on_c, 9, 42, 68
12, 81129, Note_on_c, 9, 51, 101
12, 81216, Note_on_c, 9, 42, 0
12, 81225, Note_on_c, 9, 51, 0
12, 81609, Note_on_c, 9, 51, 75
12, 81704, Note_on_c, 9, 51, 0
12, 82088, Note_on_c, 9, 37, 67
12, 82089, Note_on_c, 9, 42, 71
12, 82089, Note_on_c, 9, 51, 99
12, 82184, Note_on_c, 9, 42, 0
12, 82185, Note_on_c, 9, 37, 0
12, 82186, Note_on_c, 9, 51, 0
12, 82560, Control_c, 9, 11, 104
12, 82560, Note_on_c, 9, 51, 82
12, 82656, Note_on_c, 9, 51, 0
12, 82800, Control_c, 9, 11, 103
12, 83040, Control_c, 9, 11, 101
12, 83040, Note_on_c, 9, 51, 87
12, 83044, Note_on_c, 9, 42, 71
12, 83137, Note_on_c, 9, 51, 0
12, 83139, Note_on_c, 9, 42, 0
12, 83280, Control_c, 9, 11, 100
12, 83404, Note_on_c, 9, 51, 59
12, 83499, Note_on_c, 9, 51, 0
12, 83520, Control_c, 9, 11, 99
12, 83526, Note_on_c, 9, 51, 76
12, 83621, Note_on_c, 9, 51, 0
12, 83760, Control_c, 9, 11, 98
12, 83885, Note_on_c, 9, 38, 64
12, 83979, Note_on_c, 9, 38, 0
12, 84000, Control_c, 9, 11, 96
12, 84007, Note_on_c, 9, 42, 68
12, 84008, Note_on_c, 9, 51, 88
12, 84100, Note_on_c, 9, 42, 0
12, 84104, Note_on_c, 9, 51, 0
12, 84240, Control_c, 9, 11, 95
12, 84358, Note_on_c, 9, 38, 25
12, 84362, Note_on_c, 9, 51, 61
12, 84453, Note_on_c, 9, 38, 0
12, 84457, Note_on_c, 9, 51, 0
12, 84480, Control_c, 9, 11, 94
12, 84483, Note_on_c, 9, 51, 83
12, 84578, Note_on_c, 9, 51, 0
12, 84968, Note_on_c, 9, 51, 87
12, 84969, Note_on_c, 9, 42, 68
12, 85063, Note_on_c, 9, 51, 0
12, 85064, Note_on_c, 9, 42, 0
12, 85314, Note_on_c, 9, 51, 64
12, 85409, Note_on_c, 9, 51, 0
12, 85448, Note_on_c, 9, 51, 79
12, 85544, Note_on_c, 9, 51, 0
12, 85927, Note_on_c, 9, 42, 65
12, 85927, Note_on_c, 9, 37, 59
12, 85928, Note_on_c, 9, 51, 91
12, 86022, Note_on_c, 9, 37, 0
12, 86023, Note_on_c, 9, 42, 0
12, 86024, Note_on_c, 9, 51, 0
12, 86281, Note_on_c, 9, 51, 56
12, 86377, Note_on_c, 9, 51, 0
12, 86406, Note_on_c, 9, 51, 81
12, 86501, Note_on_c, 9, 51, 0
12, 86884, Note_on_c, 9, 42, 65
12, 86885, Note_on_c, 9, 51, 102
12, 86979, Note_on_c, 9, 42, 0
12, 86980, Note_on_c, 9, 51, 0
12, 87365, Note_on_c, 9, 51, 81
12, 87463, Note_on_c, 9, 51, 0
12, 87844, Note_on_c, 9, 42, 68
12, 87847, Note_on_c, 9, 37, 66
12, 87848, Note_on_c, 9, 51, 95
12, 87939, Note_on_c, 9, 42, 0
12, 87943, Note_on_c, 9, 51, 0
12, 87943, Note_on_c, 9, 37, 0
12, 88327, Note_on_c, 9, 51, 77
12, 88423, Note_on_c, 9, 51, 0
12, 88809, Note_on_c, 9, 42, 65
12, 88809, Note_on_c, 9, 51, 93
12, 88904, Note_on_c, 9, 51, 0
12, 88905, Note_on_c, 9, 42, 0
12, 89165, Note_on_c, 9, 51, 63
12, 89261, Note_on_c, 9, 51, 0
12, 89285, Note_on_c, 9, 51, 78
12, 89381, Note_on_c, 9, 51, 0
12, 89762, Note_on_c, 9, 51, 94
12, 89766, Note_on_c, 9, 42, 69
12, 89769, Note_on_c, 9, 37, 69
12, 89859, Note_on_c, 9, 51, 0
12, 89861, Note_on_c, 9, 42, 0
12, 89864, Note_on_c, 9, 37, 0
12, 90125, Note_on_c, 9, 51, 61
12, 90220, Note_on_c, 9, 51, 0
12, 90248, Note_on_c, 9, 51, 76
12, 90344, Note_on_c, 9, 51, 0
12, 90729, Note_on_c, 9, 42, 66
12, 90729, Note_on_c, 9, 51, 98
12, 90824, Note_on_c, 9, 51, 0
12, 90825, Note_on_c, 9, 42, 0
12, 91209, Note_on_c, 9, 51, 76
12, 91304, Note_on_c, 9, 51, 0
12, 91685, Note_on_c, 9, 37, 69
12, 91686, Note_on_c, 9, 51, 97
12, 91687, Note_on_c, 9, 42, 66
12, 91780, Note_on_c, 9, 37, 0
12, 91781, Note_on_c, 9, 51, 0
12, 91782, Note_on_c, 9, 42, 0
12, 92165, Note_on_c, 9, 51, 76
12, 92262, Note_on_c, 9, 51, 0
12, 92642, Note_on_c, 9, 42, 66
12, 92642, Note_on_c, 9, 51, 87
12, 92737, Note_on_c, 9, 42, 0
12, 92738, Note_on_c, 9, 51, 0
12, 92997, Note_on_c, 9, 51, 63
12, 93093, Note_on_c, 9, 51, 0
12, 93128, Note_on_c, 9, 51, 80
12, 93223, Note_on_c, 9, 51, 0
12, 93605, Note_on_c, 9, 42, 73
12, 93606, Note_on_c, 9, 37, 64
12, 93609, Note_on_c, 9, 51, 87
12, 93700, Note_on_c, 9, 42, 0
12, 93702, Note_on_c, 9, 37, 0
12, 93704, Note_on_c, 9, 51, 0
12, 93960, Note_on_c, 9, 51, 62
12, 94057, Note_on_c, 9, 51, 0
12, 94088, Note_on_c, 9, 51, 76
12, 94183, Note_on_c, 9, 51, 0
12, 94559, Note_on_c, 9, 42, 68
12, 94565, Note_on_c, 9, 51, 95
12, 94655, Note_on_c, 9, 42, 0
12, 94661, Note_on_c, 9, 51, 0
12, 95043, Note_on_c, 9, 51, 78
12, 95141, Note_on_c, 9, 51, 0
12, 95525, Note_on_c, 9, 51, 99
12, 95527, Note_on_c, 9, 42, 68
12, 95528, Note_on_c, 9, 37, 68
12, 95620, Note_on_c, 9, 51, 0
12, 95623, Note_on_c, 9, 37, 0
12, 95624, Note_on_c, 9, 42, 0
12, 96003, Note_on_c, 9, 51, 81
12, 96098, Note_on_c, 9, 51, 0
12, 96488, Note_on_c, 9, 51, 93
12, 96489, Note_on_c, 9, 42, 69
12, 96583, Note_on_c, 9, 51, 0
12, 96585, Note_on_c, 9, 42, 0
12, 96843, Note_on_c, 9, 51, 61
12, 96938, Note_on_c, 9, 51, 0
12, 96968, Note_on_c, 9, 51, 84
12, 97065, Note_on_c, 9, 51, 0
12, 97443, Note_on_c, 9, 37, 74
12, 97445, Note_on_c, 9, 51, 88
12, 97449, Note_on_c, 9, 42, 71
12, 97538, Note_on_c, 9, 37, 0
12, 97541, Note_on_c, 9, 51, 0
12, 97544, Note_on_c, 9, 42, 0
12, 97805, Note_on_c, 9, 51, 57
12, 97901, Note_on_c, 9, 51, 0
12, 97929, Note_on_c, 9, 51, 81
12, 98024, Note_on_c, 9, 51, 0
12, 98409, Note_on_c, 9, 42, 70
12, 98409, Note_on_c, 9, 51, 91
12, 98504, Note_on_c, 9, 51, 0
12, 98504, Note_on_c, 9, 42, 0
12, 98764, Note_on_c, 9, 51, 61
12, 98859, Note_on_c, 9, 51, 0
12, 98888, Note_on_c, 9, 51, 81
12, 98984, Note_on_c, 9, 51, 0
12, 99239, Note_on_c, 9, 38, 15
12, 99335, Note_on_c, 9, 38, 0
12, 99367, Note_on_c, 9, 51, 90
12, 99367, Note_on_c, 9, 37, 69
12, 99368, Note_on_c, 9, 38, 37
12, 99369, Note_on_c, 9, 42, 74
12, 99462, Note_on_c, 9, 37, 0
12, 99463, Note_on_c, 9, 51, 0
12, 99463, Note_on_c, 9, 38, 0
12, 99464, Note_on_c, 9, 42, 0
12, 99725, Note_on_c, 9, 51, 63
12, 99821, Note_on_c, 9, 51, 0
12, 99849, Note_on_c, 9, 51, 83
12, 99944, Note_on_c, 9, 51, 0
12, 100328, Note_on_c, 9, 51, 102
12, 100329, Note_on_c, 9, 42, 71
12, 100424, Note_on_c, 9, 51, 0
12, 100426, Note_on_c, 9, 42, 0
12, 100807, Note_on_c, 9, 51, 79
12, 100902, Note_on_c, 9, 51, 0
12, 101285, Note_on_c, 9, 42, 74
12, 101289, Note_on_c, 9, 37, 68
12, 101289, Note_on_c, 9, 51, 97
12, 101381, Note_on_c, 9, 42, 0
12, 101385, Note_on_c, 9, 51, 0
12, 101385, Note_on_c, 9, 37, 0
12, 101769, Note_on_c, 9, 51, 81
12, 101865, Note_on_c, 9, 51, 0
12, 102244, Note_on_c, 9, 42, 72
12, 102244, Note_on_c, 9, 51, 97
12, 102339, Note_on_c, 9, 42, 0
12, 102343, Note_on_c, 9, 51, 0
12, 102729, Note_on_c, 9, 51, 77
12, 102825, Note_on_c, 9, 51, 0
12, 103202, Note_on_c, 9, 42, 71
12, 103208, Note_on_c, 9, 51, 103
12, 103209, Note_on_c, 9, 37, 67
12, 103299, Note_on_c, 9, 42, 0
12, 103304, Note_on_c, 9, 37, 0
12, 103304, Note_on_c, 9, 51, 0
12, 103686, Note_on_c, 9, 51, 82
12, 103781, Note_on_c, 9, 51, 0
12, 104161, Note_on_c, 9, 51, 86
12, 104168, Note_on_c, 9, 42, 65
12, 104258, Note_on_c, 9, 51, 0
12, 104263, Note_on_c, 9, 42, 0
12, 104524, Note_on_c, 9, 51, 55
12, 104621, Note_on_c, 9, 51, 0
12, 104642, Note_on_c, 9, 51, 81
12, 104737, Note_on_c, 9, 51, 0
12, 105124, Note_on_c, 9, 51, 93
12, 105124, Note_on_c, 9, 42, 65
12, 105128, Note_on_c, 9, 37, 72
12, 105219, Note_on_c, 9, 42, 0
12, 105219, Note_on_c, 9, 51, 0
12, 105223, Note_on_c, 9, 37, 0
12, 105485, Note_on_c, 9, 51, 57
12, 105581, Note_on_c, 9, 51, 0
12, 105604, Note_on_c, 9, 51, 83
12, 105699, Note_on_c, 9, 51, 0
12, 106086, Note_on_c, 9, 42, 66
12, 106087, Note_on_c, 9, 51, 87
12, 106182, Note_on_c, 9, 42, 0
12, 106184, Note_on_c, 9, 51, 0
12, 106566, Note_on_c, 9, 51, 80
12, 106661, Note_on_c, 9, 51, 0
12, 107046, Note_on_c, 9, 37, 70
12, 107049, Note_on_c, 9, 42, 65
12, 107049, Note_on_c, 9, 51, 92
12, 107141, Note_on_c, 9, 37, 0
12, 107144, Note_on_c, 9, 42, 0
12, 107145, Note_on_c, 9, 51, 0
12, 107524, Note_on_c, 9, 51, 76
12, 107621, Note_on_c, 9, 51, 0
12, 108008, Note_on_c, 9, 42, 65
12, 108008, Note_on_c, 9, 51, 91
12, 108103, Note_on_c, 9, 51, 0
12, 108103, Note_on_c, 9, 42, 0
12, 108361, Note_on_c, 9, 51, 64
12, 108457, Note_on_c, 9, 51, 0
12, 108487, Note_on_c, 9, 51, 77
12, 108582, Note_on_c, 9, 51, 0
12, 108965, Note_on_c, 9, 42, 72
12, 108969, Note_on_c, 9, 37, 73
12, 108969, Note_on_c, 9, 51, 91
12, 109060, Note_on_c, 9, 42, 0
12, 109065, Note_on_c, 9, 51, 0
12, 109066, Note_on_c, 9, 37, 0
12, 109325, Note_on_c, 9, 51, 60
12, 109420, Note_on_c, 9, 51, 0
12, 109449, Note_on_c, 9, 51, 80
12, 109544, Note_on_c, 9, 51, 0
12, 109926, Note_on_c, 9, 42, 69
12, 109926, Note_on_c, 9, 51, 90
12, 110022, Note_on_c, 9, 51, 0
12, 110023, Note_on_c, 9, 42, 0
12, 110408, Note_on_c, 9, 51, 79
12, 110503, Note_on_c, 9, 51, 0
12, 110882, Note_on_c, 9, 42, 68
12, 110884, Note_on_c, 9, 51, 87
12, 110887, Note_on_c, 9, 37, 68
12, 110977, Note_on_c, 9, 42, 0
12, 110979, Note_on_c, 9, 51, 0
12, 110983, Note_on_c, 9, 37, 0
12, 111367, Note_on_c, 9, 51, 77
12, 111464, Note_on_c, 9, 51, 0
12, 111849, Note_on_c, 9, 42, 72
12, 111849, Note_on_c, 9, 51, 87
12, 111944, Note_on_c, 9, 42, 0
12, 111946, Note_on_c, 9, 51, 0
12, 112205, Note_on_c, 9, 51, 63
12, 112300, Note_on_c, 9, 51, 0
12, 112329, Note_on_c, 9, 51, 80
12, 112425, Note_on_c, 9, 51, 0
12, 112804, Note_on_c, 9, 51, 85
12, 112807, Note_on_c, 9, 42, 69
12, 112809, Note_on_c, 9, 37, 70
12, 112900, Note_on_c, 9, 51, 0
12, 112902, Note_on_c, 9, 42, 0
12, 112904, Note_on_c, 9, 37, 0
12, 113164, Note_on_c, 9, 51, 60
12, 113260, Note_on_c, 9, 51, 0
12, 113286, Note_on_c, 9, 51, 81
12, 113383, Note_on_c, 9, 51, 0
12, 113765, Note_on_c, 9, 51, 93
12, 113769, Note_on_c, 9, 42, 66
12, 113860, Note_on_c, 9, 51, 0
12, 113865, Note_on_c, 9, 42, 0
12, 114240, Control_c, 9, 11, 94
12, 114248, Note_on_c, 9, 51, 81
12, 114344, Note_on_c, 9, 51, 0
12, 114360, Control_c, 9, 11, 95
12, 114480, Control_c, 9, 11, 96
12, 114600, Control_c, 9, 11, 98
12, 114720, Control_c, 9, 11, 99
12, 114726, Note_on_c, 9, 37, 68
12, 114729, Note_on_c, 9, 42, 73
12, 114729, Note_on_c, 9, 51, 94
12, 114822, Note_on_c, 9, 37, 0
12, 114824, Note_on_c, 9, 42, 0
12, 114825, Note_on_c, 9, 51, 0
12, 114840, Control_c, 9, 11, 100
12, 114960, Control_c, 9, 11, 101
12, 115080, Control_c, 9, 11, 103
12, 115176, Control_c, 9, 11, 104
12, 115202, Note_on_c, 9, 49, 74
12, 115209, Note_on_c, 9, 36, 51
12, 115298, Note_on_c, 9, 49, 0
12, 115304, Note_on_c, 9, 36, 0
12, 115679, Note_on_c, 9, 51, 96
12, 115688, Note_on_c, 9, 42, 73
12, 115776, Note_on_c, 9, 51, 0
12, 115783, Note_on_c, 9, 42, 0
12, 116167, Note_on_c, 9, 51, 75
12, 116263, Note_on_c, 9, 51, 0
12, 116644, Note_on_c, 9, 37, 67
12, 116646, Note_on_c, 9, 51, 103
12, 116647, Note_on_c, 9, 42, 70
12, 116739, Note_on_c, 9, 37, 0
12, 116741, Note_on_c, 9, 51, 0
12, 116742, Note_on_c, 9, 42, 0
12, 117129, Note_on_c, 9, 51, 79
12, 117224, Note_on_c, 9, 51, 0
12, 117606, Note_on_c, 9, 42, 71
12, 117608, Note_on_c, 9, 51, 92
12, 117702, Note_on_c, 9, 42, 0
12, 117705, Note_on_c, 9, 51, 0
12, 118089, Note_on_c, 9, 51, 84
12, 118184, Note_on_c, 9, 51, 0
12, 118568, Note_on_c, 9, 42, 68
12, 118569, Note_on_c, 9, 51, 89
12, 118569, Note_on_c, 9, 37, 70
12, 118664, Note_on_c, 9, 51, 0
12, 118664, Note_on_c, 9, 42, 0
12, 118666, Note_on_c, 9, 37, 0
12, 119048, Note_on_c, 9, 51, 77
12, 119144, Note_on_c, 9, 51, 0
12, 119528, Note_on_c, 9, 42, 65
12, 119529, Note_on_c, 9, 51, 91
12, 119623, Note_on_c, 9, 42, 0
12, 119624, Note_on_c, 9, 51, 0
12, 119881, Note_on_c, 9, 51, 57
12, 119976, Note_on_c, 9, 51, 0
12, 120008, Note_on_c, 9, 51, 81
12, 120103, Note_on_c, 9, 51, 0
12, 120483, Note_on_c, 9, 37, 56
12, 120488, Note_on_c, 9, 51, 92
12, 120489, Note_on_c, 9, 42, 66
12, 120578, Note_on_c, 9, 37, 0
12, 120583, Note_on_c, 9, 51, 0
12, 120585, Note_on_c, 9, 42, 0
12, 120839, Note_on_c, 9, 51, 58
12, 120936, Note_on_c, 9, 51, 0
12, 120969, Note_on_c, 9, 51, 81
12, 121064, Note_on_c, 9, 51, 0
12, 121289, Note_on_c, 9, 40, 79
12, 121320, Note_on_c, 9, 40, 0
12, 121443, Note_on_c, 9, 51, 93
12, 121443, Note_on_c, 9, 42, 71
12, 121538, Note_on_c, 9, 42, 0
12, 121538, Note_on_c, 9, 51, 0
12, 121766, Note_on_c, 9, 40, 56
12, 121824, Note_on_c, 9, 40, 0
12, 121926, Note_on_c, 9, 40, 85
12, 121929, Note_on_c, 9, 51, 77
12, 121936, Note_on_c, 9, 36, 62
12, 121960, Note_on_c, 9, 40, 0
12, 121970, Note_on_c, 9, 36, 0
12, 122025, Note_on_c, 9, 51, 0
12, 122403, Note_on_c, 9, 40, 87
12, 122404, Note_on_c, 9, 42, 73
12, 122406, Note_on_c, 9, 51, 89
12, 122407, Note_on_c, 9, 36, 65
12, 122437, Note_on_c, 9, 36, 0
12, 122440, Note_on_c, 9, 40, 0
12, 122501, Note_on_c, 9, 51, 0
12, 122502, Note_on_c, 9, 42, 0
12, 122888, Note_on_c, 9, 36, 65
12, 122888, Note_on_c, 9, 49, 90
12, 122920, Note_on_c, 9, 49, 0
12, 122920, Note_on_c, 9, 36, 0
12, 123287, Note_on_c, 9, 40, 43
12, 123324, Note_on_c, 9, 40, 0
12, 123328, Note_on_c, 9, 40, 55
12, 123363, Note_on_c, 9, 42, 71
12, 123364, Note_on_c, 9, 40, 47
12, 123365, Note_on_c, 9, 40, 0
12, 123365, Note_on_c, 9, 51, 98
12, 123427, Note_on_c, 9, 40, 0
12, 123460, Note_on_c, 9, 51, 0
12, 123460, Note_on_c, 9, 42, 0
12, 123687, Note_on_c, 9, 40, 81
12, 123736, Note_on_c, 9, 40, 0
12, 123847, Note_on_c, 9, 51, 83
12, 123943, Note_on_c, 9, 51, 0
12, 124163, Note_on_c, 9, 40, 77
12, 124316, Note_on_c, 9, 40, 0
12, 124329, Note_on_c, 9, 40, 50
12, 124404, Note_on_c, 9, 40, 0
12, 124626, Note_on_c, 9, 57, 94
12, 124647, Note_on_c, 9, 36, 84
12, 124734, Note_on_c, 9, 57, 0
12, 124755, Note_on_c, 9, 36, 0
12, 125286, Note_on_c, 9, 51, 94
12, 125287, Note_on_c, 9, 42, 74
12, 125287, Note_on_c, 9, 40, 69
12, 125289, Note_on_c, 9, 36, 72
12, 125382, Note_on_c, 9, 42, 0
12, 125382, Note_on_c, 9, 51, 0
12, 125384, Note_on_c, 9, 40, 0
12, 125384, Note_on_c, 9, 36, 0
12, 125645, Note_on_c, 9, 51, 61
12, 125740, Note_on_c, 9, 51, 0
12, 125768, Note_on_c, 9, 51, 78
12, 125863, Note_on_c, 9, 51, 0
12, 126247, Note_on_c, 9, 37, 65
12, 126248, Note_on_c, 9, 51, 94
12, 126248, Note_on_c, 9, 42, 68
12, 126342, Note_on_c, 9, 37, 0
12, 126343, Note_on_c, 9, 42, 0
12, 126346, Note_on_c, 9, 51, 0
12, 126605, Note_on_c, 9, 51, 56
12, 126702, Note_on_c, 9, 51, 0
12, 126725, Note_on_c, 9, 51, 83
12, 126820, Note_on_c, 9, 51, 0
12, 127203, Note_on_c, 9, 42, 73
12, 127208, Note_on_c, 9, 51, 88
12, 127298, Note_on_c, 9, 42, 0
12, 127305, Note_on_c, 9, 51, 0
12, 127559, Note_on_c, 9, 51, 57
12, 127656, Note_on_c, 9, 51, 0
12, 127688, Note_on_c, 9, 51, 78
12, 127784, Note_on_c, 9, 51, 0
12, 128164, Note_on_c, 9, 51, 90
12, 128167, Note_on_c, 9, 42, 67
12, 128168, Note_on_c, 9, 37, 62
12, 128259, Note_on_c, 9, 51, 0
12, 128262, Note_on_c, 9, 42, 0
12, 128263, Note_on_c, 9, 37, 0
12, 128519, Note_on_c, 9, 51, 63
12, 128614, Note_on_c, 9, 51, 0
12, 128649, Note_on_c, 9, 51, 77
12, 128746, Note_on_c, 9, 51, 0
12, 128967, Note_on_c, 9, 41, 82
12, 129027, Note_on_c, 9, 41, 0
12, 129127, Note_on_c, 9, 42, 74
12, 129127, Note_on_c, 9, 51, 92
12, 129127, Note_on_c, 9, 36, 69
12, 129129, Note_on_c, 9, 40, 70
12, 129180, Note_on_c, 9, 40, 0
12, 129222, Note_on_c, 9, 42, 0
12, 129222, Note_on_c, 9, 51, 0
12, 129222, Note_on_c, 9, 36, 0
12, 129430, Pitch_bend_c, 9, 7948
12, 129445, Note_on_c, 9, 36, 60
12, 129448, Note_on_c, 9, 57, 89
12, 129522, Note_on_c, 9, 36, 0
12, 129523, Note_on_c, 9, 57, 0
12, 129925, Note_on_c, 9, 36, 73
12, 129932, Note_on_c, 9, 36, 0
12, 130082, Note_on_c, 9, 40, 67
12, 130089, Note_on_c, 9, 40, 0
12, 130245, Note_on_c, 9, 40, 45
12, 130252, Note_on_c, 9, 40, 0
12, 130408, Note_on_c, 9, 40, 86
12, 130416, Note_on_c, 9, 40, 0
12, 130419, Note_on_c, 9, 36, 51
12, 130428, Note_on_c, 9, 36, 0
12, 130569, Note_on_c, 9, 49, 76
12, 130569, Note_on_c, 9, 36, 57
12, 130577, Note_on_c, 9, 36, 0
12, 130664, Note_on_c, 9, 49, 0
12, 130886, Note_on_c, 9, 40, 82
12, 131017, Note_on_c, 9, 40, 0
12, 131045, Note_on_c, 9, 51, 93
12, 131047, Note_on_c, 9, 42, 71
12, 131140, Note_on_c, 9, 51, 0
12, 131143, Note_on_c, 9, 42, 0
12, 131401, Note_on_c, 9, 51, 59
12, 131498, Note_on_c, 9, 51, 0
12, 131527, Note_on_c, 9, 51, 78
12, 131622, Note_on_c, 9, 51, 0
12, 132006, Note_on_c, 9, 51, 94
12, 132008, Note_on_c, 9, 37, 67
12, 132009, Note_on_c, 9, 42, 70
12, 132102, Note_on_c, 9, 51, 0
12, 132104, Note_on_c, 9, 42, 0
12, 132104, Note_on_c, 9, 37, 0
12, 132362, Note_on_c, 9, 51, 63
12, 132457, Note_on_c, 9, 51, 0
12, 132489, Note_on_c, 9, 51, 76
12, 132587, Note_on_c, 9, 51, 0
12, 132968, Note_on_c, 9, 42, 69
12, 132969, Note_on_c, 9, 51, 85
12, 133063, Note_on_c, 9, 42, 0
12, 133064, Note_on_c, 9, 51, 0
12, 133447, Note_on_c, 9, 51, 80
12, 133542, Note_on_c, 9, 51, 0
12, 133927, Note_on_c, 9, 37, 72
12, 133928, Note_on_c, 9, 51, 91
12, 133929, Note_on_c, 9, 42, 72
12, 134023, Note_on_c, 9, 51, 0
12, 134023, Note_on_c, 9, 37, 0
12, 134025, Note_on_c, 9, 42, 0
12, 134408, Note_on_c, 9, 51, 75
12, 134506, Note_on_c, 9, 51, 0
12, 134727, Note_on_c, 9, 40, 79
12, 134858, Note_on_c, 9, 40, 0
12, 134883, Note_on_c, 9, 42, 74
12, 134887, Note_on_c, 9, 51, 100
12, 134980, Note_on_c, 9, 42, 0
12, 134982, Note_on_c, 9, 51, 0
12, 135367, Note_on_c, 9, 51, 78
12, 135462, Note_on_c, 9, 51, 0
12, 135842, Note_on_c, 9, 37, 74
12, 135848, Note_on_c, 9, 42, 71
12, 135849, Note_on_c, 9, 51, 104
12, 135938, Note_on_c, 9, 37, 0
12, 135943, Note_on_c, 9, 42, 0
12, 135944, Note_on_c, 9, 51, 0
12, 136328, Note_on_c, 9, 51, 75
12, 136425, Note_on_c, 9, 51, 0
12, 136805, Note_on_c, 9, 51, 85
12, 136808, Note_on_c, 9, 42, 74
12, 136900, Note_on_c, 9, 51, 0
12, 136905, Note_on_c, 9, 42, 0
12, 137289, Note_on_c, 9, 51, 84
12, 137384, Note_on_c, 9, 51, 0
12, 137767, Note_on_c, 9, 37, 72
12, 137768, Note_on_c, 9, 51, 90
12, 137768, Note_on_c, 9, 42, 74
12, 137862, Note_on_c, 9, 37, 0
12, 137863, Note_on_c, 9, 42, 0
12, 137863, Note_on_c, 9, 51, 0
12, 138248, Note_on_c, 9, 51, 79
12, 138344, Note_on_c, 9, 51, 0
12, 138729, Note_on_c, 9, 51, 88
12, 138729, Note_on_c, 9, 42, 69
12, 138824, Note_on_c, 9, 42, 0
12, 138825, Note_on_c, 9, 51, 0
12, 139083, Note_on_c, 9, 51, 55
12, 139179, Note_on_c, 9, 51, 0
12, 139206, Note_on_c, 9, 51, 75
12, 139302, Note_on_c, 9, 51, 0
12, 139684, Note_on_c, 9, 51, 92
12, 139686, Note_on_c, 9, 37, 74
12, 139686, Note_on_c, 9, 42, 68
12, 139779, Note_on_c, 9, 51, 0
12, 139781, Note_on_c, 9, 42, 0
12, 139783, Note_on_c, 9, 37, 0
12, 140045, Note_on_c, 9, 51, 63
12, 140140, Note_on_c, 9, 51, 0
12, 140166, Note_on_c, 9, 51, 75
12, 140263, Note_on_c, 9, 51, 0
12, 140647, Note_on_c, 9, 51, 85
12, 140649, Note_on_c, 9, 42, 72
12, 140743, Note_on_c, 9, 51, 0
12, 140744, Note_on_c, 9, 42, 0
12, 141128, Note_on_c, 9, 51, 84
12, 141223, Note_on_c, 9, 51, 0
12, 141601, Note_on_c, 9, 51, 90
12, 141605, Note_on_c, 9, 42, 72
12, 141609, Note_on_c, 9, 37, 68
12, 141697, Note_on_c, 9, 51, 0
12, 141700, Note_on_c, 9, 42, 0
12, 141704, Note_on_c, 9, 37, 0
12, 142088, Note_on_c, 9, 51, 81
12, 142183, Note_on_c, 9, 51, 0
12, 142407, Note_on_c, 9, 40, 88
12, 142409, Note_on_c, 9, 36, 69
12, 142537, Note_on_c, 9, 36, 0
12, 142537, Note_on_c, 9, 40, 0
12, 142567, Note_on_c, 9, 51, 89
12, 142568, Note_on_c, 9, 42, 67
12, 142662, Note_on_c, 9, 51, 0
12, 142664, Note_on_c, 9, 42, 0
12, 142917, Note_on_c, 9, 51, 61
12, 143012, Note_on_c, 9, 51, 0
12, 143048, Note_on_c, 9, 36, 65
12, 143049, Note_on_c, 9, 40, 89
12, 143049, Note_on_c, 9, 51, 79
12, 143144, Note_on_c, 9, 51, 0
12, 143151, Note_on_c, 9, 36, 0
12, 143153, Note_on_c, 9, 40, 0
12, 143369, Note_on_c, 9, 40, 78
12, 143523, Note_on_c, 9, 40, 0
12, 143523, Note_on_c, 9, 42, 69
12, 143524, Note_on_c, 9, 40, 73
12, 143528, Note_on_c, 9, 51, 94
12, 143600, Note_on_c, 9, 40, 0
12, 143618, Note_on_c, 9, 42, 0
12, 143623, Note_on_c, 9, 51, 0
12, 143846, Note_on_c, 9, 49, 86
12, 143849, Note_on_c, 9, 36, 86
12, 143954, Note_on_c, 9, 49, 0
12, 143958, Note_on_c, 9, 36, 0
12, 144485, Note_on_c, 9, 40, 84
12, 144485, Note_on_c, 9, 51, 91
12, 144489, Note_on_c, 9, 42, 70
12, 144576, Note_on_c, 9, 40, 0
12, 144581, Note_on_c, 9, 51, 0
12, 144586, Note_on_c, 9, 42, 0
12, 144845, Note_on_c, 9, 51, 61
12, 144943, Note_on_c, 9, 51, 0
12, 144968, Note_on_c, 9, 51, 77
12, 145064, Note_on_c, 9, 51, 0
12, 145288, Note_on_c, 9, 40, 64
12, 145289, Note_on_c, 9, 35, 70
12, 145294, Note_on_c, 9, 42, 105
12, 145296, Note_on_c, 9, 40, 0
12, 145298, Note_on_c, 9, 35, 0
12, 145301, Note_on_c, 9, 42, 0
12, 145447, Note_on_c, 9, 42, 60
12, 145449, Note_on_c, 9, 51, 94
12, 145457, Note_on_c, 9, 42, 0
12, 145544, Note_on_c, 9, 51, 0
12, 145777, Note_on_c, 9, 35, 64
12, 145784, Note_on_c, 9, 35, 0
12, 145927, Note_on_c, 9, 57, 84
12, 145929, Note_on_c, 9, 35, 74
12, 145936, Note_on_c, 9, 35, 0
12, 145937, Note_on_c, 9, 57, 0
12, 146403, Note_on_c, 9, 42, 73
12, 146408, Note_on_c, 9, 51, 94
12, 146500, Note_on_c, 9, 42, 0
12, 146504, Note_on_c, 9, 51, 0
12, 146763, Note_on_c, 9, 51, 59
12, 146859, Note_on_c, 9, 51, 0
12, 146888, Note_on_c, 9, 51, 79
12, 146983, Note_on_c, 9, 51, 0
12, 147360, Note_on_c, 9, 51, 88
12, 147368, Note_on_c, 9, 37, 65
12, 147368, Note_on_c, 9, 42, 70
12, 147457, Note_on_c, 9, 51, 0
12, 147463, Note_on_c, 9, 42, 0
12, 147463, Note_on_c, 9, 37, 0
12, 147725, Note_on_c, 9, 51, 56
12, 147821, Note_on_c, 9, 51, 0
12, 147843, Note_on_c, 9, 51, 78
12, 147939, Note_on_c, 9, 51, 0
12, 148327, Note_on_c, 9, 51, 93
12, 148329, Note_on_c, 9, 42, 74
12, 148424, Note_on_c, 9, 51, 0
12, 148427, Note_on_c, 9, 42, 0
12, 148809, Note_on_c, 9, 51, 84
12, 148905, Note_on_c, 9, 51, 0
12, 149123, Note_on_c, 9, 46, 56
12, 149124, Note_on_c, 9, 35, 75
12, 149127, Note_on_c, 9, 57, 66
12, 149128, Note_on_c, 9, 40, 66
12, 149130, Note_on_c, 9, 46, 0
12, 149132, Note_on_c, 9, 35, 0
12, 149135, Note_on_c, 9, 57, 0
12, 149135, Note_on_c, 9, 40, 0
12, 149285, Note_on_c, 9, 42, 67
12, 149285, Note_on_c, 9, 42, 67
12, 149287, Note_on_c, 9, 50, 50
12, 149294, Note_on_c, 9, 50, 0
12, 149294, Note_on_c, 9, 42, 0
12, 149380, Note_on_c, 9, 42, 0
12, 149440, Note_on_c, 9, 47, 61
12, 149448, Note_on_c, 9, 47, 0
12, 149607, Note_on_c, 9, 45, 63
12, 149614, Note_on_c, 9, 45, 0
12, 149762, Note_on_c, 9, 35, 51
12, 149768, Note_on_c, 9, 49, 87
12, 149769, Note_on_c, 9, 35, 0
12, 149775, Note_on_c, 9, 49, 0
12, 150247, Note_on_c, 9, 51, 91
12, 150248, Note_on_c, 9, 42, 65
12, 150343, Note_on_c, 9, 42, 0
12, 150345, Note_on_c, 9, 51, 0
12, 150598, Note_on_c, 9, 51, 59
12, 150693, Note_on_c, 9, 51, 0
12, 150727, Note_on_c, 9, 51, 81
12, 150823, Note_on_c, 9, 51, 0
12, 151197, Note_on_c, 9, 51, 88
12, 151203, Note_on_c, 9, 42, 70
12, 151207, Note_on_c, 9, 37, 55
12, 151292, Note_on_c, 9, 51, 0
12, 151299, Note_on_c, 9, 42, 0
12, 151303, Note_on_c, 9, 37, 0
12, 151561, Note_on_c, 9, 51, 56
12, 151658, Note_on_c, 9, 51, 0
12, 151688, Note_on_c, 9, 51, 80
12, 151785, Note_on_c, 9, 51, 0
12, 152165, Note_on_c, 9, 51, 93
12, 152169, Note_on_c, 9, 42, 65
12, 152261, Note_on_c, 9, 51, 0
12, 152264, Note_on_c, 9, 42, 0
12, 152523, Note_on_c, 9, 51, 60
12, 152618, Note_on_c, 9, 51, 0
12, 152649, Note_on_c, 9, 51, 81
12, 152744, Note_on_c, 9, 51, 0
12, 152968, Note_on_c, 9, 40, 84
12, 152977, Note_on_c, 9, 40, 0
12, 153124, Note_on_c, 9, 51, 94
12, 153128, Note_on_c, 9, 42, 74
12, 153219, Note_on_c, 9, 51, 0
12, 153224, Note_on_c, 9, 42, 0
12, 153446, Note_on_c, 9, 40, 68
12, 153457, Note_on_c, 9, 40, 0
12, 153604, Note_on_c, 9, 49, 91
12, 153611, Note_on_c, 9, 49, 0
12, 153613, Note_on_c, 9, 36, 64
12, 153620, Note_on_c, 9, 36, 0
12, 154084, Note_on_c, 9, 51, 95
12, 154087, Note_on_c, 9, 42, 74
12, 154182, Note_on_c, 9, 51, 0
12, 154184, Note_on_c, 9, 42, 0
12, 154569, Note_on_c, 9, 51, 77
12, 154664, Note_on_c, 9, 51, 0
12, 155045, Note_on_c, 9, 51, 99
12, 155047, Note_on_c, 9, 42, 65
12, 155141, Note_on_c, 9, 51, 0
12, 155143, Note_on_c, 9, 42, 0
12, 155361, Note_on_c, 9, 40, 84
12, 155420, Note_on_c, 9, 40, 0
12, 155524, Note_on_c, 9, 51, 84
12, 155619, Note_on_c, 9, 51, 0
12, 155847, Note_on_c, 9, 40, 55
12, 155930, Note_on_c, 9, 40, 0
12, 155998, Note_on_c, 9, 51, 86
12, 156003, Note_on_c, 9, 40, 69
12, 156007, Note_on_c, 9, 42, 65
12, 156008, Note_on_c, 9, 36, 61
12, 156054, Note_on_c, 9, 40, 0
12, 156059, Note_on_c, 9, 36, 0
12, 156093, Note_on_c, 9, 51, 0
12, 156105, Note_on_c, 9, 42, 0
12, 156327, Note_on_c, 9, 36, 70
12, 156329, Note_on_c, 9, 40, 70
12, 156422, Note_on_c, 9, 36, 0
12, 156425, Note_on_c, 9, 40, 0
12, 156487, Note_on_c, 9, 51, 78
12, 156583, Note_on_c, 9, 51, 0
12, 156963, Note_on_c, 9, 37, 68
12, 156966, Note_on_c, 9, 51, 93
12, 156968, Note_on_c, 9, 42, 67
12, 157059, Note_on_c, 9, 37, 0
12, 157062, Note_on_c, 9, 51, 0
12, 157064, Note_on_c, 9, 42, 0
12, 157324, Note_on_c, 9, 51, 55
12, 157419, Note_on_c, 9, 51, 0
12, 157447, Note_on_c, 9, 51, 78
12, 157449, Note_on_c, 9, 36, 56
12, 157507, Note_on_c, 9, 36, 0
12, 157542, Note_on_c, 9, 51, 0
12, 157919, Note_on_c, 9, 36, 64
12, 157925, Note_on_c, 9, 51, 91
12, 157928, Note_on_c, 9, 40, 70
12, 157974, Note_on_c, 9, 36, 0
12, 157984, Note_on_c, 9, 40, 0
12, 158020, Note_on_c, 9, 51, 0
12, 158285, Note_on_c, 9, 51, 60
12, 158325, Note_on_c, 9, 40, 41
12, 158362, Note_on_c, 9, 40, 0
12, 158365, Note_on_c, 9, 40, 48
12, 158380, Note_on_c, 9, 51, 0
12, 158404, Note_on_c, 9, 40, 0
12, 158406, Note_on_c, 9, 51, 83
12, 158408, Note_on_c, 9, 40, 73
12, 158459, Note_on_c, 9, 40, 0
12, 158502, Note_on_c, 9, 51, 0
12, 158724, Note_on_c, 9, 51, 81
12, 158724, Note_on_c, 9, 40, 78
12, 158729, Note_on_c, 9, 36, 67
12, 158816, Note_on_c, 9, 51, 0
12, 158817, Note_on_c, 9, 40, 0
12, 158820, Note_on_c, 9, 36, 0
12, 158888, Note_on_c, 9, 40, 65
12, 158895, Note_on_c, 9, 40, 0
12, 159052, Note_on_c, 9, 40, 44
12, 159059, Note_on_c, 9, 40, 0
12, 159204, Note_on_c, 9, 36, 83
12, 159206, Note_on_c, 9, 40, 87
12, 159314, Note_on_c, 9, 36, 0
12, 159315, Note_on_c, 9, 40, 0
12, 161767, Note_on_c, 9, 40, 70
12, 161769, Note_on_c, 9, 36, 69
12, 161822, Note_on_c, 9, 40, 0
12, 161824, Note_on_c, 9, 36, 0
12, 162165, Note_on_c, 9, 40, 43
12, 162202, Note_on_c, 9, 40, 0
12, 162204, Note_on_c, 9, 40, 52
12, 162243, Note_on_c, 9, 40, 0
12, 162248, Note_on_c, 9, 40, 69
12, 162300, Note_on_c, 9, 40, 0
12, 162568, Note_on_c, 9, 36, 66
12, 162569, Note_on_c, 9, 40, 64
12, 162575, Note_on_c, 9, 36, 0
12, 162576, Note_on_c, 9, 40, 0
12, 162729, Note_on_c, 9, 40, 54
12, 162737, Note_on_c, 9, 40, 0
12, 163045, Note_on_c, 9, 49, 84
12, 163048, Note_on_c, 9, 36, 69
12, 163153, Note_on_c, 9, 49, 0
12, 163155, Note_on_c, 9, 36, 0
12, 163529, Note_on_c, 9, 40, 67
12, 163612, Note_on_c, 9, 40, 0
12, 163686, Note_on_c, 9, 40, 52
12, 163752, Note_on_c, 9, 40, 0
12, 164004, Note_on_c, 9, 40, 66
12, 164007, Note_on_c, 9, 36, 47
12, 164123, Note_on_c, 9, 40, 0
12, 164126, Note_on_c, 9, 36, 0
12, 165120, Control_c, 9, 99, 7
12, 165121, Control_c, 9, 99, 2
12, 165122, Control_c, 9, 99, 23
12, 168960, Control_c, 9, 123, 0
12, 168960, End_track
13, 0, Start_track
13, 0, MIDI_port, 0
13, 0, Title_t, "Jazz Bass"
13, 0, Program_c, 0, 32
13, 0, Control_c, 0, 7, 120
13, 0, Control_c, 0, 10, 44
13, 0, Control_c, 0, 91, 94
13, 0, Control_c, 0, 93, 5
13, 0, Control_c, 0, 11, 104
13, 0, Control_c, 0, 123, 0
13, 5760, Control_c, 0, 11, 104
13, 6000, Control_c, 0, 11, 103
13, 6240, Control_c, 0, 11, 101
13, 6480, Control_c, 0, 11, 100
13, 6720, Control_c, 0, 11, 99
13, 6960, Control_c, 0, 11, 98
13, 7200, Control_c, 0, 11, 96
13, 7440, Control_c, 0, 11, 95
13, 7680, Control_c, 0, 11, 94
13, 7686, Note_on_c, 0, 37, 78
13, 8569, Note_on_c, 0, 37, 0
13, 8648, Note_on_c, 0, 32, 80
13, 9573, Note_on_c, 0, 32, 0
13, 9608, Note_on_c, 0, 37, 80
13, 10508, Note_on_c, 0, 37, 0
13, 10568, Note_on_c, 0, 33, 82
13, 11469, Note_on_c, 0, 33, 0
13, 11528, Note_on_c, 0, 37, 93
13, 12408, Note_on_c, 0, 37, 0
13, 12489, Note_on_c, 0, 32, 81
13, 13390, Note_on_c, 0, 32, 0
13, 13446, Note_on_c, 0, 37, 81
13, 14347, Note_on_c, 0, 37, 0
13, 14409, Note_on_c, 0, 37, 81
13, 15311, Note_on_c, 0, 37, 0
13, 15366, Note_on_c, 0, 42, 74
13, 16328, Note_on_c, 0, 34, 79
13, 16329, Note_on_c, 0, 42, 0
13, 17253, Note_on_c, 0, 34, 0
13, 17286, Note_on_c, 0, 39, 88
13, 18170, Note_on_c, 0, 39, 0
13, 18246, Note_on_c, 0, 39, 85
13, 18719, Note_on_c, 0, 39, 0
13, 18727, Note_on_c, 0, 46, 86
13, 19199, Note_on_c, 0, 46, 0
13, 19208, Note_on_c, 0, 44, 100
13, 20120, Note_on_c, 0, 44, 0
13, 20167, Note_on_c, 0, 39, 90
13, 21091, Note_on_c, 0, 39, 0
13, 21129, Note_on_c, 0, 44, 85
13, 22013, Note_on_c, 0, 44, 0
13, 22089, Note_on_c, 0, 39, 80
13, 22561, Note_on_c, 0, 39, 0
13, 22567, Note_on_c, 0, 44, 84
13, 23040, Control_c, 0, 11, 94
13, 23041, Note_on_c, 0, 44, 0
13, 23049, Note_on_c, 0, 37, 85
13, 23929, Note_on_c, 0, 37, 0
13, 24008, Note_on_c, 0, 32, 79
13, 24932, Note_on_c, 0, 32, 0
13, 24969, Note_on_c, 0, 37, 84
13, 25869, Note_on_c, 0, 37, 0
13, 25925, Note_on_c, 0, 33, 83
13, 26827, Note_on_c, 0, 33, 0
13, 26889, Note_on_c, 0, 37, 98
13, 27770, Note_on_c, 0, 37, 0
13, 27847, Note_on_c, 0, 32, 75
13, 28748, Note_on_c, 0, 32, 0
13, 28808, Note_on_c, 0, 37, 78
13, 29708, Note_on_c, 0, 37, 0
13, 29769, Note_on_c, 0, 37, 77
13, 30669, Note_on_c, 0, 37, 0
13, 30721, Note_on_c, 0, 42, 71
13, 31684, Note_on_c, 0, 42, 0
13, 31687, Note_on_c, 0, 34, 83
13, 32612, Note_on_c, 0, 34, 0
13, 32648, Note_on_c, 0, 39, 86
13, 33532, Note_on_c, 0, 39, 0
13, 33609, Note_on_c, 0, 39, 80
13, 34084, Note_on_c, 0, 39, 0
13, 34087, Note_on_c, 0, 46, 83
13, 34561, Note_on_c, 0, 46, 0
13, 34563, Note_on_c, 0, 44, 95
13, 35398, Note_on_c, 0, 44, 0
13, 35400, Note_on_c, 0, 39, 74
13, 35464, Note_on_c, 0, 39, 0
13, 35528, Note_on_c, 0, 44, 78
13, 36000, Note_on_c, 0, 44, 0
13, 36008, Note_on_c, 0, 38, 84
13, 36480, Note_on_c, 0, 37, 81
13, 36483, Note_on_c, 0, 38, 0
13, 37393, Note_on_c, 0, 37, 0
13, 37440, Control_c, 0, 11, 94
13, 37445, Note_on_c, 0, 37, 75
13, 37560, Control_c, 0, 11, 95
13, 37680, Control_c, 0, 11, 96
13, 37800, Control_c, 0, 11, 98
13, 37917, Note_on_c, 0, 37, 0
13, 37920, Control_c, 0, 11, 99
13, 37929, Note_on_c, 0, 43, 84
13, 38040, Control_c, 0, 11, 100
13, 38160, Control_c, 0, 11, 101
13, 38280, Control_c, 0, 11, 103
13, 38400, Control_c, 0, 11, 104
13, 38401, Note_on_c, 0, 43, 0
13, 38406, Note_on_c, 0, 42, 85
13, 39360, Note_on_c, 0, 37, 75
13, 39442, Note_on_c, 0, 42, 0
13, 40309, Note_on_c, 0, 37, 0
13, 40327, Note_on_c, 0, 30, 80
13, 41227, Note_on_c, 0, 30, 0
13, 41285, Note_on_c, 0, 42, 93
13, 42120, Note_on_c, 0, 42, 0
13, 42123, Note_on_c, 0, 37, 74
13, 42187, Note_on_c, 0, 37, 0
13, 42247, Note_on_c, 0, 49, 84
13, 43134, Note_on_c, 0, 49, 0
13, 43203, Note_on_c, 0, 44, 78
13, 44088, Note_on_c, 0, 44, 0
13, 44162, Note_on_c, 0, 37, 96
13, 45076, Note_on_c, 0, 37, 0
13, 45125, Note_on_c, 0, 37, 92
13, 45598, Note_on_c, 0, 37, 0
13, 45609, Note_on_c, 0, 42, 93
13, 45968, Note_on_c, 0, 30, 71
13, 45969, Note_on_c, 0, 42, 0
13, 46036, Note_on_c, 0, 30, 0
13, 46081, Note_on_c, 0, 41, 89
13, 46399, Note_on_c, 0, 29, 79
13, 46443, Note_on_c, 0, 41, 0
13, 47010, Note_on_c, 0, 29, 0
13, 47046, Note_on_c, 0, 29, 79
13, 47472, Note_on_c, 0, 29, 0
13, 47524, Note_on_c, 0, 41, 82
13, 47996, Note_on_c, 0, 41, 0
13, 48007, Note_on_c, 0, 46, 87
13, 48895, Note_on_c, 0, 46, 0
13, 48960, Note_on_c, 0, 34, 84
13, 49444, Note_on_c, 0, 34, 0
13, 49445, Note_on_c, 0, 38, 91
13, 49917, Note_on_c, 0, 38, 0
13, 49927, Note_on_c, 0, 39, 100
13, 50818, Note_on_c, 0, 39, 0
13, 50881, Note_on_c, 0, 42, 92
13, 51356, Note_on_c, 0, 42, 0
13, 51368, Note_on_c, 0, 39, 95
13, 51726, Note_on_c, 0, 39, 0
13, 51729, Note_on_c, 0, 34, 70
13, 51797, Note_on_c, 0, 34, 0
13, 51848, Note_on_c, 0, 39, 84
13, 52273, Note_on_c, 0, 39, 0
13, 52329, Note_on_c, 0, 45, 79
13, 52649, Note_on_c, 0, 44, 99
13, 52660, Note_on_c, 0, 45, 0
13, 53701, Note_on_c, 0, 44, 0
13, 53767, Note_on_c, 0, 37, 80
13, 54239, Note_on_c, 0, 37, 0
13, 54727, Note_on_c, 0, 36, 81
13, 55200, Note_on_c, 0, 36, 0
13, 55209, Note_on_c, 0, 37, 77
13, 55681, Note_on_c, 0, 37, 0
13, 55689, Note_on_c, 0, 36, 75
13, 56162, Note_on_c, 0, 36, 0
13, 56169, Note_on_c, 0, 37, 80
13, 56488, Note_on_c, 0, 38, 79
13, 56522, Note_on_c, 0, 37, 0
13, 57079, Note_on_c, 0, 38, 0
13, 57127, Note_on_c, 0, 37, 82
13, 57600, Note_on_c, 0, 37, 0
13, 57608, Note_on_c, 0, 49, 72
13, 58533, Note_on_c, 0, 49, 0
13, 58568, Note_on_c, 0, 44, 75
13, 59493, Note_on_c, 0, 44, 0
13, 59527, Note_on_c, 0, 37, 82
13, 60451, Note_on_c, 0, 37, 0
13, 60489, Note_on_c, 0, 44, 78
13, 60961, Note_on_c, 0, 44, 0
13, 60969, Note_on_c, 0, 43, 75
13, 61441, Note_on_c, 0, 43, 0
13, 61449, Note_on_c, 0, 42, 73
13, 62373, Note_on_c, 0, 42, 0
13, 62407, Note_on_c, 0, 37, 82
13, 63331, Note_on_c, 0, 37, 0
13, 63369, Note_on_c, 0, 29, 78
13, 64316, Note_on_c, 0, 29, 0
13, 64329, Note_on_c, 0, 29, 86
13, 64797, Note_on_c, 0, 33, 77
13, 64801, Note_on_c, 0, 29, 0
13, 65272, Note_on_c, 0, 33, 0
13, 65288, Note_on_c, 0, 34, 81
13, 66212, Note_on_c, 0, 34, 0
13, 66251, Note_on_c, 0, 34, 77
13, 67179, Note_on_c, 0, 34, 0
13, 67205, Note_on_c, 0, 39, 73
13, 68089, Note_on_c, 0, 39, 0
13, 68167, Note_on_c, 0, 39, 77
13, 68596, Note_on_c, 0, 39, 0
13, 68648, Note_on_c, 0, 46, 81
13, 69121, Note_on_c, 0, 46, 0
13, 69127, Note_on_c, 0, 32, 75
13, 69874, Note_on_c, 0, 32, 0
13, 69923, Note_on_c, 0, 32, 74
13, 70040, Note_on_c, 0, 32, 0
13, 70089, Note_on_c, 0, 32, 78
13, 70977, Note_on_c, 0, 32, 0
13, 71049, Note_on_c, 0, 32, 70
13, 71937, Note_on_c, 0, 32, 0
13, 72009, Note_on_c, 0, 32, 80
13, 72756, Note_on_c, 0, 32, 0
13, 72809, Note_on_c, 0, 32, 76
13, 72925, Note_on_c, 0, 32, 0
13, 72968, Note_on_c, 0, 32, 82
13, 73714, Note_on_c, 0, 32, 0
13, 73769, Note_on_c, 0, 32, 81
13, 73888, Note_on_c, 0, 32, 0
13, 73921, Note_on_c, 0, 32, 74
13, 74809, Note_on_c, 0, 32, 0
13, 74889, Note_on_c, 0, 32, 72
13, 75778, Note_on_c, 0, 32, 0
13, 75845, Note_on_c, 0, 32, 80
13, 76590, Note_on_c, 0, 32, 0
13, 76643, Note_on_c, 0, 32, 77
13, 76760, Note_on_c, 0, 32, 0
13, 76804, Note_on_c, 0, 32, 76
13, 77550, Note_on_c, 0, 32, 0
13, 77600, Note_on_c, 0, 32, 78
13, 77716, Note_on_c, 0, 32, 0
13, 77769, Note_on_c, 0, 32, 70
13, 78658, Note_on_c, 0, 32, 0
13, 78728, Note_on_c, 0, 32, 72
13, 79616, Note_on_c, 0, 32, 0
13, 79687, Note_on_c, 0, 32, 76
13, 80433, Note_on_c, 0, 32, 0
13, 80488, Note_on_c, 0, 32, 81
13, 80604, Note_on_c, 0, 32, 0
13, 80644, Note_on_c, 0, 37, 85
13, 81532, Note_on_c, 0, 37, 0
13, 81602, Note_on_c, 0, 34, 75
13, 82478, Note_on_c, 0, 34, 0
13, 82560, Control_c, 0, 11, 104
13, 82564, Note_on_c, 0, 39, 91
13, 82800, Control_c, 0, 11, 103
13, 82922, Note_on_c, 0, 34, 65
13, 82999, Note_on_c, 0, 34, 0
13, 83017, Note_on_c, 0, 39, 0
13, 83040, Control_c, 0, 11, 101
13, 83045, Note_on_c, 0, 46, 85
13, 83280, Control_c, 0, 11, 100
13, 83394, Note_on_c, 0, 46, 0
13, 83404, Note_on_c, 0, 34, 71
13, 83468, Note_on_c, 0, 34, 0
13, 83520, Control_c, 0, 11, 99
13, 83527, Note_on_c, 0, 44, 93
13, 83760, Control_c, 0, 11, 98
13, 83882, Note_on_c, 0, 39, 67
13, 83959, Note_on_c, 0, 39, 0
13, 83979, Note_on_c, 0, 44, 0
13, 84000, Control_c, 0, 11, 96
13, 84007, Note_on_c, 0, 51, 85
13, 84240, Control_c, 0, 11, 95
13, 84358, Note_on_c, 0, 51, 0
13, 84365, Note_on_c, 0, 39, 70
13, 84429, Note_on_c, 0, 39, 0
13, 84480, Control_c, 0, 11, 94
13, 84489, Note_on_c, 0, 37, 78
13, 84937, Note_on_c, 0, 37, 0
13, 84968, Note_on_c, 0, 35, 81
13, 85441, Note_on_c, 0, 35, 0
13, 85448, Note_on_c, 0, 36, 79
13, 85921, Note_on_c, 0, 36, 0
13, 85929, Note_on_c, 0, 37, 81
13, 86401, Note_on_c, 0, 37, 0
13, 86404, Note_on_c, 0, 37, 74
13, 86877, Note_on_c, 0, 37, 0
13, 86887, Note_on_c, 0, 44, 77
13, 87363, Note_on_c, 0, 44, 0
13, 87373, Note_on_c, 0, 41, 76
13, 87849, Note_on_c, 0, 41, 0
13, 87851, Note_on_c, 0, 37, 92
13, 88315, Note_on_c, 0, 37, 0
13, 88329, Note_on_c, 0, 37, 76
13, 88803, Note_on_c, 0, 37, 0
13, 88807, Note_on_c, 0, 38, 76
13, 89281, Note_on_c, 0, 38, 0
13, 89285, Note_on_c, 0, 37, 78
13, 89757, Note_on_c, 0, 37, 0
13, 89761, Note_on_c, 0, 37, 84
13, 90234, Note_on_c, 0, 37, 0
13, 90248, Note_on_c, 0, 37, 81
13, 90720, Note_on_c, 0, 37, 0
13, 90727, Note_on_c, 0, 38, 82
13, 91202, Note_on_c, 0, 38, 0
13, 91209, Note_on_c, 0, 37, 82
13, 91682, Note_on_c, 0, 37, 0
13, 91683, Note_on_c, 0, 37, 82
13, 92157, Note_on_c, 0, 37, 0
13, 92166, Note_on_c, 0, 30, 71
13, 92679, Note_on_c, 0, 30, 0
13, 92682, Note_on_c, 0, 33, 67
13, 93115, Note_on_c, 0, 33, 0
13, 93128, Note_on_c, 0, 34, 77
13, 93602, Note_on_c, 0, 34, 0
13, 93608, Note_on_c, 0, 34, 81
13, 94081, Note_on_c, 0, 34, 0
13, 94089, Note_on_c, 0, 39, 74
13, 94324, Note_on_c, 0, 39, 0
13, 94569, Note_on_c, 0, 39, 76
13, 95046, Note_on_c, 0, 34, 78
13, 95094, Note_on_c, 0, 39, 0
13, 95511, Note_on_c, 0, 34, 0
13, 95525, Note_on_c, 0, 43, 79
13, 95998, Note_on_c, 0, 43, 0
13, 96008, Note_on_c, 0, 44, 79
13, 96481, Note_on_c, 0, 44, 0
13, 96484, Note_on_c, 0, 33, 81
13, 96956, Note_on_c, 0, 33, 0
13, 96967, Note_on_c, 0, 44, 96
13, 97325, Note_on_c, 0, 39, 71
13, 97401, Note_on_c, 0, 39, 0
13, 97420, Note_on_c, 0, 44, 0
13, 97449, Note_on_c, 0, 51, 91
13, 97800, Note_on_c, 0, 51, 0
13, 97805, Note_on_c, 0, 39, 74
13, 97869, Note_on_c, 0, 39, 0
13, 97925, Note_on_c, 0, 39, 72
13, 98399, Note_on_c, 0, 39, 0
13, 98405, Note_on_c, 0, 39, 84
13, 98878, Note_on_c, 0, 39, 0
13, 98888, Note_on_c, 0, 44, 81
13, 99360, Note_on_c, 0, 44, 0
13, 99367, Note_on_c, 0, 44, 87
13, 99840, Note_on_c, 0, 44, 0
13, 99846, Note_on_c, 0, 37, 77
13, 100329, Note_on_c, 0, 44, 79
13, 100405, Note_on_c, 0, 37, 0
13, 100801, Note_on_c, 0, 44, 0
13, 100809, Note_on_c, 0, 36, 79
13, 101281, Note_on_c, 0, 36, 0
13, 101284, Note_on_c, 0, 37, 77
13, 101757, Note_on_c, 0, 37, 0
13, 101767, Note_on_c, 0, 37, 83
13, 102249, Note_on_c, 0, 49, 69
13, 102275, Note_on_c, 0, 37, 0
13, 102729, Note_on_c, 0, 44, 76
13, 102779, Note_on_c, 0, 49, 0
13, 103208, Note_on_c, 0, 41, 91
13, 103213, Note_on_c, 0, 44, 0
13, 103681, Note_on_c, 0, 41, 0
13, 103688, Note_on_c, 0, 37, 76
13, 104160, Note_on_c, 0, 37, 0
13, 104169, Note_on_c, 0, 38, 75
13, 104642, Note_on_c, 0, 38, 0
13, 104647, Note_on_c, 0, 37, 79
13, 105121, Note_on_c, 0, 37, 0
13, 105129, Note_on_c, 0, 37, 79
13, 105602, Note_on_c, 0, 37, 0
13, 105607, Note_on_c, 0, 37, 78
13, 106111, Note_on_c, 0, 37, 0
13, 106117, Note_on_c, 0, 36, 60
13, 106558, Note_on_c, 0, 36, 0
13, 106560, Note_on_c, 0, 37, 83
13, 107032, Note_on_c, 0, 37, 0
13, 107049, Note_on_c, 0, 37, 81
13, 107524, Note_on_c, 0, 37, 0
13, 107529, Note_on_c, 0, 42, 85
13, 107884, Note_on_c, 0, 30, 76
13, 107887, Note_on_c, 0, 42, 0
13, 108005, Note_on_c, 0, 30, 0
13, 108008, Note_on_c, 0, 42, 85
13, 108477, Note_on_c, 0, 42, 0
13, 108488, Note_on_c, 0, 34, 84
13, 108840, Note_on_c, 0, 22, 70
13, 108847, Note_on_c, 0, 34, 0
13, 108961, Note_on_c, 0, 22, 0
13, 108969, Note_on_c, 0, 34, 82
13, 109439, Note_on_c, 0, 34, 0
13, 109446, Note_on_c, 0, 27, 88
13, 109919, Note_on_c, 0, 27, 0
13, 109928, Note_on_c, 0, 29, 82
13, 110373, Note_on_c, 0, 29, 0
13, 110408, Note_on_c, 0, 30, 72
13, 110880, Note_on_c, 0, 30, 0
13, 110888, Note_on_c, 0, 34, 76
13, 111222, Note_on_c, 0, 34, 0
13, 111242, Note_on_c, 0, 27, 75
13, 111352, Note_on_c, 0, 27, 0
13, 111369, Note_on_c, 0, 44, 77
13, 111841, Note_on_c, 0, 44, 0
13, 111843, Note_on_c, 0, 33, 77
13, 112315, Note_on_c, 0, 33, 0
13, 112328, Note_on_c, 0, 32, 68
13, 112841, Note_on_c, 0, 32, 0
13, 112845, Note_on_c, 0, 36, 72
13, 113278, Note_on_c, 0, 36, 0
13, 113289, Note_on_c, 0, 37, 83
13, 113761, Note_on_c, 0, 37, 0
13, 113762, Note_on_c, 0, 38, 78
13, 114234, Note_on_c, 0, 38, 0
13, 114240, Control_c, 0, 11, 94
13, 114242, Note_on_c, 0, 37, 91
13, 114360, Control_c, 0, 11, 95
13, 114480, Control_c, 0, 11, 96
13, 114598, Note_on_c, 0, 25, 68
13, 114600, Control_c, 0, 11, 98
13, 114667, Note_on_c, 0, 37, 0
13, 114720, Control_c, 0, 11, 99
13, 114722, Note_on_c, 0, 25, 0
13, 114732, Note_on_c, 0, 38, 83
13, 114840, Control_c, 0, 11, 100
13, 114960, Control_c, 0, 11, 101
13, 115080, Control_c, 0, 11, 103
13, 115176, Control_c, 0, 11, 104
13, 115202, Note_on_c, 0, 38, 0
13, 115208, Note_on_c, 0, 42, 79
13, 116166, Note_on_c, 0, 37, 76
13, 116245, Note_on_c, 0, 42, 0
13, 117115, Note_on_c, 0, 37, 0
13, 117126, Note_on_c, 0, 30, 75
13, 118027, Note_on_c, 0, 30, 0
13, 118087, Note_on_c, 0, 42, 91
13, 118922, Note_on_c, 0, 42, 0
13, 118924, Note_on_c, 0, 37, 73
13, 118988, Note_on_c, 0, 37, 0
13, 119049, Note_on_c, 0, 49, 85
13, 119933, Note_on_c, 0, 49, 0
13, 120006, Note_on_c, 0, 44, 79
13, 120891, Note_on_c, 0, 44, 0
13, 120963, Note_on_c, 0, 37, 99
13, 121876, Note_on_c, 0, 37, 0
13, 121919, Note_on_c, 0, 37, 92
13, 122391, Note_on_c, 0, 37, 0
13, 122406, Note_on_c, 0, 42, 87
13, 122764, Note_on_c, 0, 42, 0
13, 122765, Note_on_c, 0, 30, 67
13, 122834, Note_on_c, 0, 30, 0
13, 122889, Note_on_c, 0, 41, 89
13, 123207, Note_on_c, 0, 29, 84
13, 123250, Note_on_c, 0, 41, 0
13, 123818, Note_on_c, 0, 29, 0
13, 123848, Note_on_c, 0, 29, 84
13, 124275, Note_on_c, 0, 29, 0
13, 124329, Note_on_c, 0, 41, 86
13, 124801, Note_on_c, 0, 41, 0
13, 124808, Note_on_c, 0, 46, 83
13, 125699, Note_on_c, 0, 46, 0
13, 125768, Note_on_c, 0, 34, 83
13, 126248, Note_on_c, 0, 38, 87
13, 126254, Note_on_c, 0, 34, 0
13, 126720, Note_on_c, 0, 38, 0
13, 126727, Note_on_c, 0, 39, 97
13, 127615, Note_on_c, 0, 39, 0
13, 127685, Note_on_c, 0, 42, 90
13, 128158, Note_on_c, 0, 42, 0
13, 128165, Note_on_c, 0, 39, 94
13, 128523, Note_on_c, 0, 39, 0
13, 128525, Note_on_c, 0, 34, 74
13, 128595, Note_on_c, 0, 34, 0
13, 128643, Note_on_c, 0, 39, 81
13, 129070, Note_on_c, 0, 39, 0
13, 129124, Note_on_c, 0, 45, 84
13, 129449, Note_on_c, 0, 44, 96
13, 129454, Note_on_c, 0, 45, 0
13, 130503, Note_on_c, 0, 44, 0
13, 130566, Note_on_c, 0, 37, 81
13, 131039, Note_on_c, 0, 37, 0
13, 131525, Note_on_c, 0, 36, 84
13, 131997, Note_on_c, 0, 36, 0
13, 132005, Note_on_c, 0, 37, 84
13, 132477, Note_on_c, 0, 37, 0
13, 132489, Note_on_c, 0, 36, 82
13, 132961, Note_on_c, 0, 36, 0
13, 132968, Note_on_c, 0, 37, 79
13, 133288, Note_on_c, 0, 38, 82
13, 133321, Note_on_c, 0, 37, 0
13, 133881, Note_on_c, 0, 38, 0
13, 133929, Note_on_c, 0, 37, 79
13, 134401, Note_on_c, 0, 37, 0
13, 134403, Note_on_c, 0, 49, 75
13, 135327, Note_on_c, 0, 49, 0
13, 135365, Note_on_c, 0, 44, 79
13, 136289, Note_on_c, 0, 44, 0
13, 136329, Note_on_c, 0, 37, 84
13, 137253, Note_on_c, 0, 37, 0
13, 137286, Note_on_c, 0, 44, 76
13, 137762, Note_on_c, 0, 44, 0
13, 137767, Note_on_c, 0, 43, 78
13, 138240, Note_on_c, 0, 43, 0
13, 138249, Note_on_c, 0, 42, 75
13, 139173, Note_on_c, 0, 42, 0
13, 139207, Note_on_c, 0, 37, 80
13, 140132, Note_on_c, 0, 37, 0
13, 140163, Note_on_c, 0, 29, 78
13, 141113, Note_on_c, 0, 29, 0
13, 141123, Note_on_c, 0, 29, 88
13, 141595, Note_on_c, 0, 29, 0
13, 141609, Note_on_c, 0, 33, 84
13, 142081, Note_on_c, 0, 33, 0
13, 142089, Note_on_c, 0, 34, 81
13, 143014, Note_on_c, 0, 34, 0
13, 143053, Note_on_c, 0, 34, 68
13, 143981, Note_on_c, 0, 34, 0
13, 144008, Note_on_c, 0, 39, 79
13, 144892, Note_on_c, 0, 39, 0
13, 144969, Note_on_c, 0, 39, 80
13, 145398, Note_on_c, 0, 39, 0
13, 145449, Note_on_c, 0, 46, 84
13, 145923, Note_on_c, 0, 46, 0
13, 145926, Note_on_c, 0, 32, 79
13, 146671, Note_on_c, 0, 32, 0
13, 146728, Note_on_c, 0, 32, 80
13, 146844, Note_on_c, 0, 32, 0
13, 146888, Note_on_c, 0, 32, 78
13, 147777, Note_on_c, 0, 32, 0
13, 147849, Note_on_c, 0, 32, 71
13, 148738, Note_on_c, 0, 32, 0
13, 148808, Note_on_c, 0, 32, 75
13, 149555, Note_on_c, 0, 32, 0
13, 149608, Note_on_c, 0, 32, 74
13, 149725, Note_on_c, 0, 32, 0
13, 149763, Note_on_c, 0, 32, 76
13, 150510, Note_on_c, 0, 32, 0
13, 150569, Note_on_c, 0, 32, 78
13, 150686, Note_on_c, 0, 32, 0
13, 150729, Note_on_c, 0, 32, 74
13, 151617, Note_on_c, 0, 32, 0
13, 151689, Note_on_c, 0, 32, 69
13, 152577, Note_on_c, 0, 32, 0
13, 152647, Note_on_c, 0, 32, 83
13, 153394, Note_on_c, 0, 32, 0
13, 153446, Note_on_c, 0, 32, 75
13, 153564, Note_on_c, 0, 32, 0
13, 153606, Note_on_c, 0, 32, 75
13, 154352, Note_on_c, 0, 32, 0
13, 154406, Note_on_c, 0, 32, 75
13, 154522, Note_on_c, 0, 32, 0
13, 154568, Note_on_c, 0, 32, 75
13, 155460, Note_on_c, 0, 32, 0
13, 155528, Note_on_c, 0, 32, 72
13, 156417, Note_on_c, 0, 32, 0
13, 156489, Note_on_c, 0, 32, 74
13, 157236, Note_on_c, 0, 32, 0
13, 157285, Note_on_c, 0, 32, 77
13, 157401, Note_on_c, 0, 32, 0
13, 157449, Note_on_c, 0, 37, 84
13, 157922, Note_on_c, 0, 37, 0
13, 158407, Note_on_c, 0, 34, 79
13, 159149, Note_on_c, 0, 34, 0
13, 159204, Note_on_c, 0, 39, 78
13, 159345, Note_on_c, 0, 39, 0
13, 161769, Note_on_c, 0, 42, 66
13, 161909, Note_on_c, 0, 42, 0
13, 162245, Note_on_c, 0, 40, 58
13, 162524, Note_on_c, 0, 40, 0
13, 162567, Note_on_c, 0, 40, 65
13, 162671, Note_on_c, 0, 40, 0
13, 163048, Note_on_c, 0, 39, 49
13, 163619, Note_on_c, 0, 39, 0
13, 163682, Note_on_c, 0, 38, 42
13, 163972, Note_on_c, 0, 38, 0
13, 164009, Note_on_c, 0, 37, 53
13, 164141, Note_on_c, 0, 37, 0
13, 168960, Control_c, 0, 123, 0
13, 168960, End_track
14, 0, Start_track
14, 0, MIDI_port, 0
14, 0, Title_t, "Piano"
14, 0, Program_c, 1, 0
14, 0, Control_c, 1, 7, 110
14, 0, Control_c, 1, 10, 35
14, 0, Control_c, 1, 91, 94
14, 0, Control_c, 1, 93, 5
14, 0, Control_c, 1, 11, 104
14, 0, Control_c, 1, 123, 0
14, 6085, Note_on_c, 1, 85, 91
14, 6221, Note_on_c, 1, 85, 0
14, 6247, Note_on_c, 1, 97, 109
14, 6318, Note_on_c, 1, 97, 0
14, 7048, Note_on_c, 1, 73, 74
14, 7180, Note_on_c, 1, 73, 0
14, 7205, Note_on_c, 1, 85, 98
14, 7273, Note_on_c, 1, 85, 0
14, 7680, Control_c, 1, 11, 94
14, 7714, Note_on_c, 1, 79, 72
14, 7730, Note_on_c, 1, 37, 60
14, 7736, Note_on_c, 1, 53, 50
14, 7741, Note_on_c, 1, 84, 50
14, 7838, Note_on_c, 1, 79, 0
14, 7873, Note_on_c, 1, 80, 42
14, 8587, Note_on_c, 1, 37, 0
14, 8589, Note_on_c, 1, 53, 0
14, 8593, Note_on_c, 1, 84, 0
14, 8595, Note_on_c, 1, 80, 0
14, 8636, Control_c, 1, 64, 0
14, 8648, Note_on_c, 1, 56, 39
14, 8649, Note_on_c, 1, 68, 50
14, 8669, Note_on_c, 1, 44, 43
14, 8670, Note_on_c, 1, 64, 48
14, 8675, Note_on_c, 1, 60, 53
14, 8736, Note_on_c, 1, 64, 0
14, 8755, Note_on_c, 1, 60, 0
14, 8764, Note_on_c, 1, 56, 0
14, 8765, Note_on_c, 1, 44, 0
14, 8766, Note_on_c, 1, 68, 0
14, 9116, Control_c, 1, 64, 0
14, 9124, Note_on_c, 1, 53, 38
14, 9128, Note_on_c, 1, 65, 53
14, 9144, Note_on_c, 1, 37, 43
14, 9153, Note_on_c, 1, 61, 50
14, 9155, Note_on_c, 1, 56, 46
14, 9219, Note_on_c, 1, 61, 0
14, 9236, Note_on_c, 1, 56, 0
14, 9240, Note_on_c, 1, 53, 0
14, 9242, Note_on_c, 1, 37, 0
14, 9245, Note_on_c, 1, 65, 0
14, 9596, Control_c, 1, 64, 0
14, 9605, Note_on_c, 1, 69, 46
14, 9609, Note_on_c, 1, 57, 36
14, 9627, Note_on_c, 1, 45, 40
14, 9629, Note_on_c, 1, 64, 50
14, 9631, Note_on_c, 1, 61, 48
14, 9694, Note_on_c, 1, 64, 0
14, 9711, Note_on_c, 1, 61, 0
14, 9722, Note_on_c, 1, 69, 0
14, 9723, Note_on_c, 1, 45, 0
14, 9726, Note_on_c, 1, 57, 0
14, 10076, Control_c, 1, 64, 0
14, 10088, Note_on_c, 1, 53, 41
14, 10089, Note_on_c, 1, 65, 46
14, 10107, Note_on_c, 1, 37, 49
14, 10109, Note_on_c, 1, 61, 50
14, 10115, Note_on_c, 1, 57, 45
14, 10173, Note_on_c, 1, 61, 0
14, 10195, Note_on_c, 1, 57, 0
14, 10204, Note_on_c, 1, 37, 0
14, 10205, Note_on_c, 1, 53, 0
14, 10206, Note_on_c, 1, 65, 0
14, 10556, Control_c, 1, 64, 0
14, 10563, Note_on_c, 1, 54, 43
14, 10569, Note_on_c, 1, 66, 53
14, 10586, Note_on_c, 1, 61, 50
14, 10587, Note_on_c, 1, 42, 45
14, 10597, Note_on_c, 1, 57, 52
14, 10650, Note_on_c, 1, 61, 0
14, 10678, Note_on_c, 1, 57, 0
14, 10679, Note_on_c, 1, 54, 0
14, 10683, Note_on_c, 1, 42, 0
14, 10685, Note_on_c, 1, 66, 0
14, 11036, Control_c, 1, 64, 0
14, 11047, Note_on_c, 1, 65, 46
14, 11048, Note_on_c, 1, 53, 37
14, 11068, Note_on_c, 1, 37, 43
14, 11070, Note_on_c, 1, 61, 43
14, 11077, Note_on_c, 1, 57, 52
14, 11134, Note_on_c, 1, 61, 0
14, 11159, Note_on_c, 1, 57, 0
14, 11164, Note_on_c, 1, 37, 0
14, 11164, Note_on_c, 1, 53, 0
14, 11166, Note_on_c, 1, 65, 0
14, 11520, Control_c, 1, 64, 0
14, 11572, Note_on_c, 1, 77, 68
14, 11819, Note_on_c, 1, 77, 0
14, 11881, Note_on_c, 1, 49, 46
14, 11986, Note_on_c, 1, 49, 0
14, 12030, Note_on_c, 1, 85, 68
14, 12030, Note_on_c, 1, 73, 63
14, 12193, Note_on_c, 1, 85, 0
14, 12269, Note_on_c, 1, 73, 0
14, 12476, Control_c, 1, 64, 0
14, 12488, Note_on_c, 1, 52, 41
14, 12489, Note_on_c, 1, 64, 53
14, 12509, Note_on_c, 1, 37, 47
14, 12509, Note_on_c, 1, 59, 42
14, 12515, Note_on_c, 1, 56, 53
14, 12573, Note_on_c, 1, 59, 0
14, 12595, Note_on_c, 1, 56, 0
14, 12605, Note_on_c, 1, 64, 0
14, 12606, Note_on_c, 1, 37, 0
14, 12608, Note_on_c, 1, 52, 0
14, 12956, Control_c, 1, 64, 0
14, 12967, Note_on_c, 1, 65, 51
14, 12969, Note_on_c, 1, 53, 39
14, 12988, Note_on_c, 1, 37, 42
14, 12992, Note_on_c, 1, 59, 45
14, 12993, Note_on_c, 1, 56, 50
14, 13056, Note_on_c, 1, 59, 0
14, 13074, Note_on_c, 1, 56, 0
14, 13083, Note_on_c, 1, 65, 0
14, 13084, Note_on_c, 1, 37, 0
14, 13085, Note_on_c, 1, 53, 0
14, 13436, Control_c, 1, 64, 0
14, 13446, Note_on_c, 1, 52, 44
14, 13448, Note_on_c, 1, 64, 45
14, 13459, Note_on_c, 1, 37, 40
14, 13466, Note_on_c, 1, 59, 41
14, 13476, Note_on_c, 1, 56, 46
14, 13530, Note_on_c, 1, 59, 0
14, 13555, Note_on_c, 1, 37, 0
14, 13557, Note_on_c, 1, 56, 0
14, 13562, Note_on_c, 1, 52, 0
14, 13565, Note_on_c, 1, 64, 0
14, 13916, Control_c, 1, 64, 0
14, 13924, Note_on_c, 1, 53, 40
14, 13929, Note_on_c, 1, 65, 53
14, 13947, Note_on_c, 1, 37, 49
14, 13952, Note_on_c, 1, 59, 44
14, 13955, Note_on_c, 1, 56, 54
14, 14016, Note_on_c, 1, 59, 0
14, 14035, Note_on_c, 1, 56, 0
14, 14041, Note_on_c, 1, 53, 0
14, 14044, Note_on_c, 1, 37, 0
14, 14046, Note_on_c, 1, 65, 0
14, 14396, Control_c, 1, 64, 0
14, 14405, Note_on_c, 1, 54, 35
14, 14409, Note_on_c, 1, 66, 48
14, 14428, Note_on_c, 1, 44, 40
14, 14428, Note_on_c, 1, 59, 41
14, 14435, Note_on_c, 1, 56, 48
14, 14492, Note_on_c, 1, 59, 0
14, 14515, Note_on_c, 1, 56, 0
14, 14522, Note_on_c, 1, 54, 0
14, 14525, Note_on_c, 1, 66, 0
14, 14527, Note_on_c, 1, 44, 0
14, 14876, Control_c, 1, 64, 0
14, 14888, Note_on_c, 1, 65, 53
14, 14889, Note_on_c, 1, 53, 42
14, 14908, Note_on_c, 1, 37, 49
14, 14912, Note_on_c, 1, 59, 45
14, 14914, Note_on_c, 1, 56, 47
14, 14977, Note_on_c, 1, 59, 0
14, 14995, Note_on_c, 1, 56, 0
14, 15004, Note_on_c, 1, 37, 0
14, 15005, Note_on_c, 1, 53, 0
14, 15005, Note_on_c, 1, 65, 0
14, 15260, Control_c, 1, 64, 0
14, 15763, Note_on_c, 1, 42, 47
14, 15800, Note_on_c, 1, 42, 0
14, 15884, Note_on_c, 1, 73, 59
14, 15952, Note_on_c, 1, 73, 0
14, 15971, Note_on_c, 1, 78, 52
14, 16078, Note_on_c, 1, 73, 40
14, 16182, Note_on_c, 1, 78, 0
14, 16222, Note_on_c, 1, 73, 0
14, 16316, Control_c, 1, 64, 0
14, 16322, Note_on_c, 1, 61, 53
14, 16324, Note_on_c, 1, 49, 39
14, 16349, Note_on_c, 1, 34, 45
14, 16352, Note_on_c, 1, 58, 45
14, 16356, Note_on_c, 1, 53, 45
14, 16417, Note_on_c, 1, 58, 0
14, 16438, Note_on_c, 1, 53, 0
14, 16439, Note_on_c, 1, 61, 0
14, 16441, Note_on_c, 1, 49, 0
14, 16446, Note_on_c, 1, 34, 0
14, 16796, Control_c, 1, 64, 0
14, 16807, Note_on_c, 1, 54, 35
14, 16807, Note_on_c, 1, 66, 47
14, 16827, Note_on_c, 1, 42, 48
14, 16828, Note_on_c, 1, 61, 50
14, 16830, Note_on_c, 1, 58, 50
14, 16892, Note_on_c, 1, 61, 0
14, 16910, Note_on_c, 1, 58, 0
14, 16923, Note_on_c, 1, 42, 0
14, 16923, Note_on_c, 1, 54, 0
14, 16925, Note_on_c, 1, 66, 0
14, 17180, Control_c, 1, 64, 0
14, 17191, Note_on_c, 1, 75, 56
14, 17194, Note_on_c, 1, 82, 30
14, 17358, Note_on_c, 1, 75, 0
14, 17361, Note_on_c, 1, 82, 0
14, 17763, Note_on_c, 1, 63, 40
14, 17774, Note_on_c, 1, 66, 35
14, 17785, Note_on_c, 1, 73, 34
14, 17785, Note_on_c, 1, 70, 37
14, 17795, Note_on_c, 1, 82, 40
14, 17805, Note_on_c, 1, 75, 40
14, 17868, Note_on_c, 1, 63, 0
14, 17876, Note_on_c, 1, 73, 0
14, 17880, Note_on_c, 1, 66, 0
14, 17890, Note_on_c, 1, 70, 0
14, 17891, Note_on_c, 1, 82, 0
14, 17893, Note_on_c, 1, 75, 0
14, 18269, Note_on_c, 1, 66, 24
14, 18276, Note_on_c, 1, 63, 34
14, 18278, Note_on_c, 1, 73, 20
14, 18285, Note_on_c, 1, 82, 21
14, 18285, Note_on_c, 1, 70, 15
14, 18293, Note_on_c, 1, 75, 38
14, 18487, Note_on_c, 1, 63, 0
14, 18496, Note_on_c, 1, 70, 0
14, 18496, Note_on_c, 1, 66, 0
14, 18500, Note_on_c, 1, 82, 0
14, 18505, Note_on_c, 1, 73, 0
14, 18508, Note_on_c, 1, 75, 0
14, 18619, Note_on_c, 1, 70, 47
14, 18623, Note_on_c, 1, 63, 51
14, 18625, Note_on_c, 1, 66, 36
14, 18628, Note_on_c, 1, 75, 43
14, 18629, Note_on_c, 1, 73, 50
14, 18643, Note_on_c, 1, 82, 29
14, 18691, Note_on_c, 1, 70, 0
14, 18693, Note_on_c, 1, 73, 0
14, 18700, Note_on_c, 1, 63, 0
14, 18702, Note_on_c, 1, 66, 0
14, 18716, Note_on_c, 1, 75, 0
14, 18717, Note_on_c, 1, 82, 0
14, 19100, Control_c, 1, 64, 0
14, 21020, Control_c, 1, 64, 0
14, 21039, Note_on_c, 1, 44, 61
14, 21041, Note_on_c, 1, 70, 66
14, 21044, Note_on_c, 1, 75, 67
14, 21049, Note_on_c, 1, 66, 60
14, 21232, Note_on_c, 1, 70, 0
14, 21236, Note_on_c, 1, 44, 0
14, 21253, Note_on_c, 1, 66, 0
14, 21283, Note_on_c, 1, 75, 0
14, 22126, Note_on_c, 1, 63, 48
14, 22134, Note_on_c, 1, 54, 49
14, 22135, Note_on_c, 1, 82, 59
14, 22136, Note_on_c, 1, 87, 74
14, 22142, Note_on_c, 1, 75, 69
14, 22251, Note_on_c, 1, 82, 0
14, 22742, Note_on_c, 1, 63, 0
14, 22778, Note_on_c, 1, 54, 0
14, 22855, Note_on_c, 1, 87, 0
14, 22856, Note_on_c, 1, 75, 0
14, 22985, Note_on_c, 1, 54, 32
14, 23040, Control_c, 1, 64, 0
14, 23045, Note_on_c, 1, 54, 0
14, 23052, Note_on_c, 1, 80, 50
14, 23057, Note_on_c, 1, 87, 35
14, 23128, Note_on_c, 1, 80, 0
14, 23133, Note_on_c, 1, 87, 0
14, 23528, Note_on_c, 1, 68, 40
14, 23536, Note_on_c, 1, 77, 35
14, 23544, Note_on_c, 1, 72, 29
14, 23548, Note_on_c, 1, 75, 33
14, 23556, Note_on_c, 1, 87, 42
14, 23564, Note_on_c, 1, 80, 40
14, 23624, Note_on_c, 1, 77, 0
14, 23632, Note_on_c, 1, 68, 0
14, 23648, Note_on_c, 1, 72, 0
14, 23652, Note_on_c, 1, 75, 0
14, 23652, Note_on_c, 1, 87, 0
14, 23654, Note_on_c, 1, 80, 0
14, 23996, Control_c, 1, 64, 0
14, 24007, Note_on_c, 1, 56, 43
14, 24007, Note_on_c, 1, 68, 51
14, 24019, Note_on_c, 1, 64, 45
14, 24029, Note_on_c, 1, 44, 49
14, 24037, Note_on_c, 1, 60, 54
14, 24083, Note_on_c, 1, 64, 0
14, 24118, Note_on_c, 1, 60, 0
14, 24123, Note_on_c, 1, 56, 0
14, 24124, Note_on_c, 1, 68, 0
14, 24129, Note_on_c, 1, 44, 0
14, 24476, Control_c, 1, 64, 0
14, 24486, Note_on_c, 1, 53, 35
14, 24487, Note_on_c, 1, 65, 45
14, 24508, Note_on_c, 1, 37, 42
14, 24512, Note_on_c, 1, 61, 44
14, 24516, Note_on_c, 1, 56, 46
14, 24578, Note_on_c, 1, 61, 0
14, 24598, Note_on_c, 1, 56, 0
14, 24602, Note_on_c, 1, 53, 0
14, 24603, Note_on_c, 1, 65, 0
14, 24604, Note_on_c, 1, 37, 0
14, 24956, Control_c, 1, 64, 0
14, 24958, Note_on_c, 1, 69, 53
14, 24969, Note_on_c, 1, 57, 41
14, 24987, Note_on_c, 1, 45, 49
14, 24993, Note_on_c, 1, 64, 50
14, 24997, Note_on_c, 1, 61, 53
14, 25058, Note_on_c, 1, 64, 0
14, 25074, Note_on_c, 1, 69, 0
14, 25077, Note_on_c, 1, 61, 0
14, 25083, Note_on_c, 1, 45, 0
14, 25087, Note_on_c, 1, 57, 0
14, 25436, Control_c, 1, 64, 0
14, 25442, Note_on_c, 1, 53, 39
14, 25444, Note_on_c, 1, 65, 48
14, 25467, Note_on_c, 1, 37, 44
14, 25472, Note_on_c, 1, 61, 49
14, 25476, Note_on_c, 1, 57, 49
14, 25536, Note_on_c, 1, 61, 0
14, 25556, Note_on_c, 1, 57, 0
14, 25558, Note_on_c, 1, 53, 0
14, 25560, Note_on_c, 1, 65, 0
14, 25563, Note_on_c, 1, 37, 0
14, 25916, Control_c, 1, 64, 0
14, 25927, Note_on_c, 1, 66, 49
14, 25928, Note_on_c, 1, 54, 35
14, 25944, Note_on_c, 1, 42, 42
14, 25946, Note_on_c, 1, 61, 49
14, 25953, Note_on_c, 1, 57, 53
14, 26010, Note_on_c, 1, 61, 0
14, 26033, Note_on_c, 1, 57, 0
14, 26042, Note_on_c, 1, 42, 0
14, 26044, Note_on_c, 1, 66, 0
14, 26046, Note_on_c, 1, 54, 0
14, 26396, Control_c, 1, 64, 0
14, 26408, Note_on_c, 1, 53, 40
14, 26409, Note_on_c, 1, 65, 52
14, 26422, Note_on_c, 1, 37, 42
14, 26431, Note_on_c, 1, 61, 49
14, 26435, Note_on_c, 1, 57, 54
14, 26495, Note_on_c, 1, 61, 0
14, 26515, Note_on_c, 1, 57, 0
14, 26518, Note_on_c, 1, 37, 0
14, 26524, Note_on_c, 1, 53, 0
14, 26525, Note_on_c, 1, 65, 0
14, 26780, Control_c, 1, 64, 0
14, 26792, Note_on_c, 1, 37, 53
14, 27055, Note_on_c, 1, 37, 0
14, 27252, Note_on_c, 1, 71, 72
14, 27264, Note_on_c, 1, 85, 63
14, 27268, Note_on_c, 1, 77, 75
14, 27333, Note_on_c, 1, 77, 0
14, 27348, Note_on_c, 1, 85, 0
14, 27357, Note_on_c, 1, 71, 0
14, 27836, Control_c, 1, 64, 0
14, 27842, Note_on_c, 1, 52, 43
14, 27848, Note_on_c, 1, 64, 46
14, 27863, Note_on_c, 1, 37, 42
14, 27872, Note_on_c, 1, 59, 44
14, 27877, Note_on_c, 1, 56, 50
14, 27936, Note_on_c, 1, 59, 0
14, 27958, Note_on_c, 1, 52, 0
14, 27958, Note_on_c, 1, 56, 0
14, 27959, Note_on_c, 1, 37, 0
14, 27965, Note_on_c, 1, 64, 0
14, 28316, Control_c, 1, 64, 0
14, 28328, Note_on_c, 1, 65, 52
14, 28329, Note_on_c, 1, 53, 37
14, 28347, Note_on_c, 1, 37, 42
14, 28350, Note_on_c, 1, 59, 46
14, 28356, Note_on_c, 1, 56, 49
14, 28417, Note_on_c, 1, 59, 0
14, 28436, Note_on_c, 1, 56, 0
14, 28443, Note_on_c, 1, 37, 0
14, 28444, Note_on_c, 1, 65, 0
14, 28445, Note_on_c, 1, 53, 0
14, 28796, Control_c, 1, 64, 0
14, 28805, Note_on_c, 1, 64, 49
14, 28807, Note_on_c, 1, 52, 35
14, 28826, Note_on_c, 1, 37, 42
14, 28830, Note_on_c, 1, 59, 47
14, 28830, Note_on_c, 1, 56, 48
14, 28894, Note_on_c, 1, 59, 0
14, 28912, Note_on_c, 1, 56, 0
14, 28921, Note_on_c, 1, 64, 0
14, 28922, Note_on_c, 1, 37, 0
14, 28926, Note_on_c, 1, 52, 0
14, 29276, Control_c, 1, 64, 0
14, 29281, Note_on_c, 1, 53, 35
14, 29285, Note_on_c, 1, 65, 49
14, 29307, Note_on_c, 1, 37, 42
14, 29312, Note_on_c, 1, 59, 44
14, 29317, Note_on_c, 1, 56, 53
14, 29376, Note_on_c, 1, 59, 0
14, 29397, Note_on_c, 1, 53, 0
14, 29397, Note_on_c, 1, 56, 0
14, 29401, Note_on_c, 1, 65, 0
14, 29404, Note_on_c, 1, 37, 0
14, 29756, Control_c, 1, 64, 0
14, 29766, Note_on_c, 1, 54, 37
14, 29766, Note_on_c, 1, 66, 52
14, 29789, Note_on_c, 1, 44, 41
14, 29792, Note_on_c, 1, 59, 41
14, 29794, Note_on_c, 1, 56, 48
14, 29860, Note_on_c, 1, 59, 0
14, 29876, Note_on_c, 1, 56, 0
14, 29882, Note_on_c, 1, 54, 0
14, 29884, Note_on_c, 1, 66, 0
14, 29885, Note_on_c, 1, 44, 0
14, 30236, Control_c, 1, 64, 0
14, 30249, Note_on_c, 1, 53, 36
14, 30249, Note_on_c, 1, 65, 53
14, 30268, Note_on_c, 1, 37, 40
14, 30271, Note_on_c, 1, 59, 43
14, 30272, Note_on_c, 1, 56, 52
14, 30336, Note_on_c, 1, 59, 0
14, 30352, Note_on_c, 1, 56, 0
14, 30364, Note_on_c, 1, 37, 0
14, 30365, Note_on_c, 1, 53, 0
14, 30366, Note_on_c, 1, 65, 0
14, 30620, Control_c, 1, 64, 0
14, 30650, Note_on_c, 1, 66, 59
14, 30651, Note_on_c, 1, 58, 59
14, 30651, Note_on_c, 1, 61, 62
14, 31667, Note_on_c, 1, 61, 0
14, 31668, Note_on_c, 1, 58, 0
14, 31668, Note_on_c, 1, 66, 0
14, 31676, Control_c, 1, 64, 0
14, 31686, Note_on_c, 1, 49, 37
14, 31688, Note_on_c, 1, 61, 46
14, 31708, Note_on_c, 1, 34, 49
14, 31713, Note_on_c, 1, 58, 42
14, 31717, Note_on_c, 1, 53, 47
14, 31778, Note_on_c, 1, 58, 0
14, 31798, Note_on_c, 1, 53, 0
14, 31802, Note_on_c, 1, 49, 0
14, 31804, Note_on_c, 1, 34, 0
14, 31806, Note_on_c, 1, 61, 0
14, 32156, Control_c, 1, 64, 0
14, 32160, Note_on_c, 1, 66, 50
14, 32168, Note_on_c, 1, 54, 36
14, 32184, Note_on_c, 1, 42, 44
14, 32186, Note_on_c, 1, 61, 49
14, 32188, Note_on_c, 1, 58, 46
14, 32251, Note_on_c, 1, 61, 0
14, 32268, Note_on_c, 1, 58, 0
14, 32279, Note_on_c, 1, 66, 0
14, 32282, Note_on_c, 1, 42, 0
14, 32284, Note_on_c, 1, 54, 0
14, 32640, Control_c, 1, 64, 0
14, 33022, Note_on_c, 1, 75, 80
14, 33182, Note_on_c, 1, 75, 0
14, 33461, Note_on_c, 1, 70, 45
14, 33573, Note_on_c, 1, 70, 0
14, 33600, Note_on_c, 1, 75, 72
14, 33894, Note_on_c, 1, 75, 0
14, 34462, Note_on_c, 1, 70, 45
14, 34558, Note_on_c, 1, 70, 0
14, 34560, Control_c, 1, 64, 0
14, 34570, Note_on_c, 1, 44, 55
14, 34744, Note_on_c, 1, 44, 0
14, 34937, Note_on_c, 1, 71, 78
14, 34941, Note_on_c, 1, 78, 72
14, 34943, Note_on_c, 1, 87, 61
14, 35006, Note_on_c, 1, 78, 0
14, 35027, Note_on_c, 1, 87, 0
14, 35043, Note_on_c, 1, 71, 0
14, 35516, Control_c, 1, 64, 0
14, 35526, Note_on_c, 1, 54, 40
14, 35528, Note_on_c, 1, 66, 44
14, 35548, Note_on_c, 1, 59, 46
14, 35549, Note_on_c, 1, 44, 43
14, 35554, Note_on_c, 1, 56, 53
14, 35613, Note_on_c, 1, 59, 0
14, 35636, Note_on_c, 1, 56, 0
14, 35642, Note_on_c, 1, 54, 0
14, 35645, Note_on_c, 1, 66, 0
14, 35646, Note_on_c, 1, 44, 0
14, 35996, Control_c, 1, 64, 0
14, 36003, Note_on_c, 1, 54, 40
14, 36009, Note_on_c, 1, 66, 53
14, 36029, Note_on_c, 1, 44, 47
14, 36033, Note_on_c, 1, 59, 50
14, 36037, Note_on_c, 1, 56, 47
14, 36098, Note_on_c, 1, 59, 0
14, 36117, Note_on_c, 1, 56, 0
14, 36120, Note_on_c, 1, 54, 0
14, 36125, Note_on_c, 1, 44, 0
14, 36125, Note_on_c, 1, 66, 0
14, 36380, Control_c, 1, 64, 0
14, 36413, Note_on_c, 1, 92, 44
14, 36417, Note_on_c, 1, 59, 28
14, 36417, Note_on_c, 1, 80, 36
14, 36420, Note_on_c, 1, 86, 51
14, 36424, Note_on_c, 1, 53, 54
14, 36591, Note_on_c, 1, 86, 0
14, 36634, Note_on_c, 1, 87, 26
14, 36652, Note_on_c, 1, 80, 0
14, 36734, Note_on_c, 1, 53, 0
14, 36735, Note_on_c, 1, 59, 0
14, 36751, Note_on_c, 1, 92, 0
14, 36797, Note_on_c, 1, 87, 0
14, 36865, Note_on_c, 1, 92, 59
14, 36876, Note_on_c, 1, 59, 61
14, 36877, Note_on_c, 1, 86, 75
14, 36879, Note_on_c, 1, 80, 58
14, 36886, Note_on_c, 1, 53, 55
14, 36962, Note_on_c, 1, 86, 0
14, 36982, Note_on_c, 1, 80, 0
14, 36985, Note_on_c, 1, 59, 0
14, 36986, Note_on_c, 1, 53, 0
14, 37014, Note_on_c, 1, 92, 0
14, 37436, Control_c, 1, 64, 0
14, 37440, Control_c, 1, 11, 94
14, 37447, Note_on_c, 1, 65, 51
14, 37449, Note_on_c, 1, 53, 37
14, 37467, Note_on_c, 1, 37, 41
14, 37471, Note_on_c, 1, 59, 46
14, 37476, Note_on_c, 1, 56, 51
14, 37535, Note_on_c, 1, 59, 0
14, 37556, Note_on_c, 1, 56, 0
14, 37560, Control_c, 1, 11, 95
14, 37564, Note_on_c, 1, 37, 0
14, 37564, Note_on_c, 1, 65, 0
14, 37567, Note_on_c, 1, 53, 0
14, 37680, Control_c, 1, 11, 96
14, 37800, Control_c, 1, 11, 98
14, 37916, Control_c, 1, 64, 0
14, 37920, Control_c, 1, 11, 99
14, 37927, Note_on_c, 1, 65, 44
14, 37928, Note_on_c, 1, 53, 40
14, 37941, Note_on_c, 1, 37, 45
14, 37952, Note_on_c, 1, 59, 44
14, 37957, Note_on_c, 1, 55, 50
14, 38016, Note_on_c, 1, 59, 0
14, 38037, Note_on_c, 1, 55, 0
14, 38039, Note_on_c, 1, 37, 0
14, 38040, Control_c, 1, 11, 100
14, 38044, Note_on_c, 1, 65, 0
14, 38045, Note_on_c, 1, 53, 0
14, 38160, Control_c, 1, 11, 101
14, 38280, Control_c, 1, 11, 103
14, 38400, Control_c, 1, 11, 104
14, 38400, Control_c, 1, 64, 0
14, 38418, Note_on_c, 1, 58, 49
14, 38421, Note_on_c, 1, 42, 33
14, 38428, Note_on_c, 1, 54, 46
14, 38443, Note_on_c, 1, 63, 47
14, 38485, Note_on_c, 1, 42, 0
14, 38501, Note_on_c, 1, 58, 0
14, 38510, Note_on_c, 1, 63, 0
14, 38517, Note_on_c, 1, 54, 0
14, 39356, Control_c, 1, 64, 0
14, 39364, Note_on_c, 1, 50, 43
14, 39364, Note_on_c, 1, 62, 53
14, 39388, Note_on_c, 1, 41, 45
14, 39391, Note_on_c, 1, 57, 45
14, 39397, Note_on_c, 1, 53, 54
14, 39455, Note_on_c, 1, 57, 0
14, 39477, Note_on_c, 1, 53, 0
14, 39480, Note_on_c, 1, 50, 0
14, 39480, Note_on_c, 1, 62, 0
14, 39485, Note_on_c, 1, 41, 0
14, 39836, Control_c, 1, 64, 0
14, 39846, Note_on_c, 1, 51, 43
14, 39847, Note_on_c, 1, 63, 53
14, 39868, Note_on_c, 1, 42, 45
14, 39873, Note_on_c, 1, 58, 42
14, 39873, Note_on_c, 1, 54, 47
14, 39937, Note_on_c, 1, 58, 0
14, 39953, Note_on_c, 1, 54, 0
14, 39963, Note_on_c, 1, 63, 0
14, 39965, Note_on_c, 1, 42, 0
14, 39966, Note_on_c, 1, 51, 0
14, 40316, Control_c, 1, 64, 0
14, 40325, Note_on_c, 1, 50, 36
14, 40329, Note_on_c, 1, 62, 52
14, 40347, Note_on_c, 1, 41, 41
14, 40350, Note_on_c, 1, 57, 43
14, 40354, Note_on_c, 1, 53, 48
14, 40414, Note_on_c, 1, 57, 0
14, 40434, Note_on_c, 1, 53, 0
14, 40442, Note_on_c, 1, 50, 0
14, 40443, Note_on_c, 1, 41, 0
14, 40446, Note_on_c, 1, 62, 0
14, 40796, Control_c, 1, 64, 0
14, 40799, Note_on_c, 1, 63, 53
14, 40809, Note_on_c, 1, 51, 36
14, 40823, Note_on_c, 1, 58, 45
14, 40829, Note_on_c, 1, 42, 47
14, 40836, Note_on_c, 1, 54, 45
14, 40888, Note_on_c, 1, 58, 0
14, 40916, Note_on_c, 1, 54, 0
14, 40916, Note_on_c, 1, 63, 0
14, 40926, Note_on_c, 1, 51, 0
14, 40926, Note_on_c, 1, 42, 0
14, 41280, Control_c, 1, 64, 0
14, 41300, Note_on_c, 1, 42, 40
14, 41303, Note_on_c, 1, 58, 51
14, 41304, Note_on_c, 1, 61, 48
14, 41325, Note_on_c, 1, 66, 46
14, 41366, Note_on_c, 1, 42, 0
14, 41384, Note_on_c, 1, 61, 0
14, 41390, Note_on_c, 1, 66, 0
14, 41392, Note_on_c, 1, 58, 0
14, 42240, Control_c, 1, 64, 0
14, 42259, Note_on_c, 1, 49, 63
14, 42261, Note_on_c, 1, 68, 63
14, 42265, Note_on_c, 1, 75, 66
14, 42269, Note_on_c, 1, 65, 60
14, 42362, Note_on_c, 1, 68, 0
14, 42363, Note_on_c, 1, 49, 0
14, 42381, Note_on_c, 1, 65, 0
14, 42413, Note_on_c, 1, 75, 0
14, 43246, Note_on_c, 1, 63, 48
14, 43255, Note_on_c, 1, 87, 79
14, 43257, Note_on_c, 1, 53, 55
14, 43257, Note_on_c, 1, 80, 67
14, 43263, Note_on_c, 1, 75, 69
14, 43373, Note_on_c, 1, 80, 0
14, 43860, Note_on_c, 1, 53, 0
14, 43862, Note_on_c, 1, 63, 0
14, 43973, Note_on_c, 1, 87, 0
14, 43977, Note_on_c, 1, 75, 0
14, 44060, Control_c, 1, 64, 0
14, 44091, Note_on_c, 1, 68, 35
14, 44524, Note_on_c, 1, 68, 0
14, 44672, Note_on_c, 1, 56, 32
14, 45121, Note_on_c, 1, 56, 0
14, 45154, Note_on_c, 1, 67, 79
14, 45156, Note_on_c, 1, 76, 76
14, 45184, Note_on_c, 1, 70, 22
14, 45255, Note_on_c, 1, 67, 0
14, 45284, Note_on_c, 1, 70, 0
14, 45355, Note_on_c, 1, 76, 0
14, 45461, Note_on_c, 1, 70, 35
14, 45513, Note_on_c, 1, 70, 0
14, 45513, Note_on_c, 1, 67, 61
14, 45551, Note_on_c, 1, 67, 0
14, 45639, Note_on_c, 1, 66, 64
14, 45642, Note_on_c, 1, 69, 71
14, 45645, Note_on_c, 1, 75, 57
14, 45888, Note_on_c, 1, 75, 0
14, 45901, Note_on_c, 1, 69, 0
14, 45913, Note_on_c, 1, 66, 0
14, 46014, Note_on_c, 1, 56, 39
14, 46064, Note_on_c, 1, 56, 0
14, 46080, Control_c, 1, 64, 0
14, 46109, Note_on_c, 1, 56, 62
14, 46112, Note_on_c, 1, 63, 61
14, 46112, Note_on_c, 1, 65, 66
14, 46113, Note_on_c, 1, 71, 63
14, 47845, Note_on_c, 1, 56, 0
14, 47847, Note_on_c, 1, 65, 0
14, 47848, Note_on_c, 1, 63, 0
14, 47849, Note_on_c, 1, 71, 0
14, 47900, Control_c, 1, 64, 0
14, 47912, Note_on_c, 1, 50, 43
14, 47913, Note_on_c, 1, 62, 45
14, 47931, Note_on_c, 1, 34, 47
14, 47931, Note_on_c, 1, 56, 45
14, 47940, Note_on_c, 1, 53, 54
14, 48086, Note_on_c, 1, 56, 0
14, 48111, Note_on_c, 1, 53, 0
14, 48118, Note_on_c, 1, 34, 0
14, 48121, Note_on_c, 1, 50, 0
14, 48123, Note_on_c, 1, 62, 0
14, 48977, Note_on_c, 1, 77, 68
14, 48981, Note_on_c, 1, 74, 73
14, 48994, Note_on_c, 1, 70, 72
14, 48999, Note_on_c, 1, 82, 75
14, 49002, Note_on_c, 1, 68, 56
14, 49040, Note_on_c, 1, 70, 0
14, 49041, Note_on_c, 1, 74, 0
14, 49059, Note_on_c, 1, 82, 0
14, 49061, Note_on_c, 1, 77, 0
14, 49066, Note_on_c, 1, 68, 0
14, 49920, Control_c, 1, 64, 0
14, 49928, Note_on_c, 1, 75, 50
14, 49933, Note_on_c, 1, 82, 27
14, 50005, Note_on_c, 1, 75, 0
14, 50009, Note_on_c, 1, 82, 0
14, 50409, Note_on_c, 1, 63, 35
14, 50425, Note_on_c, 1, 66, 26
14, 50425, Note_on_c, 1, 73, 39
14, 50429, Note_on_c, 1, 70, 32
14, 50436, Note_on_c, 1, 82, 39
14, 50442, Note_on_c, 1, 75, 35
14, 50513, Note_on_c, 1, 73, 0
14, 50516, Note_on_c, 1, 63, 0
14, 50530, Note_on_c, 1, 66, 0
14, 50530, Note_on_c, 1, 75, 0
14, 50534, Note_on_c, 1, 70, 0
14, 50534, Note_on_c, 1, 82, 0
14, 50906, Note_on_c, 1, 66, 24
14, 50912, Note_on_c, 1, 63, 25
14, 50917, Note_on_c, 1, 73, 18
14, 50924, Note_on_c, 1, 70, 14
14, 50926, Note_on_c, 1, 75, 38
14, 50930, Note_on_c, 1, 82, 23
14, 51123, Note_on_c, 1, 63, 0
14, 51134, Note_on_c, 1, 66, 0
14, 51137, Note_on_c, 1, 70, 0
14, 51141, Note_on_c, 1, 75, 0
14, 51144, Note_on_c, 1, 73, 0
14, 51146, Note_on_c, 1, 82, 0
14, 51257, Note_on_c, 1, 70, 52
14, 51265, Note_on_c, 1, 63, 55
14, 51265, Note_on_c, 1, 66, 37
14, 51268, Note_on_c, 1, 75, 41
14, 51269, Note_on_c, 1, 73, 42
14, 51285, Note_on_c, 1, 82, 27
14, 51330, Note_on_c, 1, 70, 0
14, 51333, Note_on_c, 1, 73, 0
14, 51341, Note_on_c, 1, 63, 0
14, 51341, Note_on_c, 1, 66, 0
14, 51356, Note_on_c, 1, 75, 0
14, 51359, Note_on_c, 1, 82, 0
14, 51836, Control_c, 1, 64, 0
14, 51845, Note_on_c, 1, 54, 42
14, 51848, Note_on_c, 1, 66, 48
14, 51866, Note_on_c, 1, 39, 40
14, 51868, Note_on_c, 1, 61, 41
14, 51877, Note_on_c, 1, 58, 50
14, 51932, Note_on_c, 1, 61, 0
14, 51958, Note_on_c, 1, 58, 0
14, 51961, Note_on_c, 1, 54, 0
14, 51964, Note_on_c, 1, 66, 0
14, 51966, Note_on_c, 1, 39, 0
14, 52320, Control_c, 1, 64, 0
14, 52330, Note_on_c, 1, 67, 60
14, 52331, Note_on_c, 1, 55, 52
14, 52353, Note_on_c, 1, 45, 60
14, 52356, Note_on_c, 1, 61, 59
14, 52359, Note_on_c, 1, 59, 62
14, 52800, Control_c, 1, 64, 0
14, 53673, Note_on_c, 1, 67, 0
14, 53674, Note_on_c, 1, 55, 0
14, 53696, Note_on_c, 1, 45, 0
14, 53699, Note_on_c, 1, 61, 0
14, 53702, Note_on_c, 1, 59, 0
14, 53773, Note_on_c, 1, 37, 60
14, 53945, Note_on_c, 1, 37, 0
14, 54136, Note_on_c, 1, 70, 73
14, 54147, Note_on_c, 1, 77, 73
14, 54148, Note_on_c, 1, 85, 63
14, 54211, Note_on_c, 1, 77, 0
14, 54233, Note_on_c, 1, 85, 0
14, 54242, Note_on_c, 1, 70, 0
14, 54716, Control_c, 1, 64, 0
14, 54725, Note_on_c, 1, 64, 46
14, 54728, Note_on_c, 1, 52, 35
14, 54744, Note_on_c, 1, 36, 40
14, 54751, Note_on_c, 1, 58, 44
14, 54755, Note_on_c, 1, 55, 49
14, 54816, Note_on_c, 1, 58, 0
14, 54837, Note_on_c, 1, 55, 0
14, 54840, Note_on_c, 1, 36, 0
14, 54841, Note_on_c, 1, 64, 0
14, 54844, Note_on_c, 1, 52, 0
14, 55196, Control_c, 1, 64, 0
14, 55205, Note_on_c, 1, 65, 47
14, 55209, Note_on_c, 1, 53, 39
14, 55225, Note_on_c, 1, 37, 49
14, 55226, Note_on_c, 1, 58, 49
14, 55235, Note_on_c, 1, 56, 45
14, 55291, Note_on_c, 1, 58, 0
14, 55315, Note_on_c, 1, 56, 0
14, 55322, Note_on_c, 1, 37, 0
14, 55322, Note_on_c, 1, 65, 0
14, 55326, Note_on_c, 1, 53, 0
14, 55676, Control_c, 1, 64, 0
14, 55688, Note_on_c, 1, 52, 39
14, 55689, Note_on_c, 1, 64, 50
14, 55704, Note_on_c, 1, 58, 41
14, 55709, Note_on_c, 1, 36, 40
14, 55716, Note_on_c, 1, 55, 54
14, 55768, Note_on_c, 1, 58, 0
14, 55797, Note_on_c, 1, 55, 0
14, 55805, Note_on_c, 1, 36, 0
14, 55805, Note_on_c, 1, 64, 0
14, 55806, Note_on_c, 1, 52, 0
14, 56156, Control_c, 1, 64, 0
14, 56165, Note_on_c, 1, 53, 38
14, 56168, Note_on_c, 1, 65, 50
14, 56188, Note_on_c, 1, 37, 46
14, 56193, Note_on_c, 1, 58, 48
14, 56194, Note_on_c, 1, 56, 49
14, 56259, Note_on_c, 1, 58, 0
14, 56275, Note_on_c, 1, 56, 0
14, 56282, Note_on_c, 1, 53, 0
14, 56284, Note_on_c, 1, 37, 0
14, 56284, Note_on_c, 1, 65, 0
14, 56636, Control_c, 1, 64, 0
14, 56648, Note_on_c, 1, 66, 44
14, 56649, Note_on_c, 1, 54, 40
14, 56666, Note_on_c, 1, 38, 44
14, 56673, Note_on_c, 1, 59, 45
14, 56677, Note_on_c, 1, 57, 48
14, 56738, Note_on_c, 1, 59, 0
14, 56757, Note_on_c, 1, 57, 0
14, 56762, Note_on_c, 1, 38, 0
14, 56764, Note_on_c, 1, 66, 0
14, 56766, Note_on_c, 1, 54, 0
14, 57116, Control_c, 1, 64, 0
14, 57126, Note_on_c, 1, 53, 40
14, 57128, Note_on_c, 1, 65, 48
14, 57148, Note_on_c, 1, 37, 49
14, 57153, Note_on_c, 1, 58, 48
14, 57154, Note_on_c, 1, 56, 52
14, 57220, Note_on_c, 1, 58, 0
14, 57235, Note_on_c, 1, 56, 0
14, 57243, Note_on_c, 1, 53, 0
14, 57244, Note_on_c, 1, 65, 0
14, 57245, Note_on_c, 1, 37, 0
14, 57600, Control_c, 1, 64, 0
14, 57613, Note_on_c, 1, 37, 39
14, 57622, Note_on_c, 1, 59, 49
14, 57623, Note_on_c, 1, 56, 44
14, 57643, Note_on_c, 1, 65, 46
14, 57678, Note_on_c, 1, 37, 0
14, 57702, Note_on_c, 1, 59, 0
14, 57708, Note_on_c, 1, 65, 0
14, 57711, Note_on_c, 1, 56, 0
14, 58556, Control_c, 1, 64, 0
14, 58567, Note_on_c, 1, 52, 43
14, 58569, Note_on_c, 1, 64, 52
14, 58589, Note_on_c, 1, 36, 46
14, 58593, Note_on_c, 1, 58, 42
14, 58595, Note_on_c, 1, 55, 54
14, 58658, Note_on_c, 1, 58, 0
14, 58675, Note_on_c, 1, 55, 0
14, 58685, Note_on_c, 1, 52, 0
14, 58685, Note_on_c, 1, 64, 0
14, 58685, Note_on_c, 1, 36, 0
14, 59036, Control_c, 1, 64, 0
14, 59042, Note_on_c, 1, 65, 50
14, 59049, Note_on_c, 1, 53, 35
14, 59065, Note_on_c, 1, 37, 40
14, 59071, Note_on_c, 1, 59, 46
14, 59072, Note_on_c, 1, 56, 48
14, 59135, Note_on_c, 1, 59, 0
14, 59153, Note_on_c, 1, 56, 0
14, 59160, Note_on_c, 1, 65, 0
14, 59162, Note_on_c, 1, 37, 0
14, 59166, Note_on_c, 1, 53, 0
14, 59516, Control_c, 1, 64, 0
14, 59522, Note_on_c, 1, 52, 42
14, 59523, Note_on_c, 1, 64, 47
14, 59549, Note_on_c, 1, 36, 46
14, 59553, Note_on_c, 1, 58, 45
14, 59555, Note_on_c, 1, 55, 54
14, 59617, Note_on_c, 1, 58, 0
14, 59635, Note_on_c, 1, 55, 0
14, 59639, Note_on_c, 1, 52, 0
14, 59640, Note_on_c, 1, 64, 0
14, 59645, Note_on_c, 1, 36, 0
14, 59996, Control_c, 1, 64, 0
14, 60004, Note_on_c, 1, 65, 52
14, 60009, Note_on_c, 1, 53, 36
14, 60028, Note_on_c, 1, 37, 48
14, 60033, Note_on_c, 1, 59, 50
14, 60035, Note_on_c, 1, 56, 46
14, 60097, Note_on_c, 1, 59, 0
14, 60116, Note_on_c, 1, 56, 0
14, 60120, Note_on_c, 1, 65, 0
14, 60126, Note_on_c, 1, 37, 0
14, 60126, Note_on_c, 1, 53, 0
14, 60476, Control_c, 1, 64, 0
14, 60482, Note_on_c, 1, 54, 35
14, 60487, Note_on_c, 1, 66, 51
14, 60502, Note_on_c, 1, 44, 45
14, 60512, Note_on_c, 1, 59, 43
14, 60514, Note_on_c, 1, 56, 48
14, 60576, Note_on_c, 1, 59, 0
14, 60596, Note_on_c, 1, 56, 0
14, 60598, Note_on_c, 1, 44, 0
14, 60598, Note_on_c, 1, 54, 0
14, 60603, Note_on_c, 1, 66, 0
14, 60956, Control_c, 1, 64, 0
14, 60969, Note_on_c, 1, 53, 40
14, 60969, Note_on_c, 1, 65, 53
14, 60987, Note_on_c, 1, 43, 41
14, 60993, Note_on_c, 1, 59, 43
14, 60996, Note_on_c, 1, 55, 51
14, 61057, Note_on_c, 1, 59, 0
14, 61076, Note_on_c, 1, 55, 0
14, 61083, Note_on_c, 1, 43, 0
14, 61086, Note_on_c, 1, 65, 0
14, 61090, Note_on_c, 1, 53, 0
14, 61440, Control_c, 1, 64, 0
14, 61463, Note_on_c, 1, 70, 91
14, 61464, Note_on_c, 1, 73, 89
14, 61472, Note_on_c, 1, 37, 70
14, 61700, Note_on_c, 1, 37, 0
14, 61728, Note_on_c, 1, 73, 0
14, 61729, Note_on_c, 1, 70, 0
14, 61829, Note_on_c, 1, 70, 44
14, 61841, Note_on_c, 1, 73, 47
14, 61841, Note_on_c, 1, 37, 41
14, 61882, Note_on_c, 1, 70, 0
14, 61901, Note_on_c, 1, 73, 0
14, 61909, Note_on_c, 1, 37, 0
14, 62396, Control_c, 1, 64, 0
14, 62407, Note_on_c, 1, 68, 47
14, 62408, Note_on_c, 1, 56, 40
14, 62427, Note_on_c, 1, 44, 44
14, 62433, Note_on_c, 1, 64, 44
14, 62437, Note_on_c, 1, 60, 51
14, 62499, Note_on_c, 1, 64, 0
14, 62518, Note_on_c, 1, 60, 0
14, 62523, Note_on_c, 1, 44, 0
14, 62523, Note_on_c, 1, 68, 0
14, 62525, Note_on_c, 1, 56, 0
14, 62876, Control_c, 1, 64, 0
14, 62882, Note_on_c, 1, 63, 46
14, 62889, Note_on_c, 1, 51, 42
14, 62907, Note_on_c, 1, 42, 45
14, 62907, Note_on_c, 1, 58, 48
14, 62916, Note_on_c, 1, 54, 46
14, 62973, Note_on_c, 1, 58, 0
14, 62998, Note_on_c, 1, 63, 0
14, 62999, Note_on_c, 1, 54, 0
14, 63004, Note_on_c, 1, 42, 0
14, 63006, Note_on_c, 1, 51, 0
14, 63356, Control_c, 1, 64, 0
14, 63366, Note_on_c, 1, 51, 41
14, 63368, Note_on_c, 1, 63, 45
14, 63389, Note_on_c, 1, 41, 44
14, 63392, Note_on_c, 1, 57, 46
14, 63397, Note_on_c, 1, 53, 52
14, 63456, Note_on_c, 1, 57, 0
14, 63477, Note_on_c, 1, 53, 0
14, 63484, Note_on_c, 1, 51, 0
14, 63484, Note_on_c, 1, 63, 0
14, 63486, Note_on_c, 1, 41, 0
14, 63840, Control_c, 1, 64, 0
14, 63861, Note_on_c, 1, 41, 42
14, 63863, Note_on_c, 1, 57, 49
14, 63868, Note_on_c, 1, 53, 44
14, 63877, Note_on_c, 1, 63, 51
14, 63925, Note_on_c, 1, 41, 0
14, 63943, Note_on_c, 1, 63, 0
14, 63944, Note_on_c, 1, 57, 0
14, 63956, Note_on_c, 1, 53, 0
14, 64796, Control_c, 1, 64, 0
14, 64805, Note_on_c, 1, 63, 49
14, 64809, Note_on_c, 1, 51, 40
14, 64829, Note_on_c, 1, 41, 43
14, 64831, Note_on_c, 1, 57, 50
14, 64837, Note_on_c, 1, 53, 46
14, 64895, Note_on_c, 1, 57, 0
14, 64919, Note_on_c, 1, 53, 0
14, 64921, Note_on_c, 1, 63, 0
14, 64925, Note_on_c, 1, 41, 0
14, 64928, Note_on_c, 1, 51, 0
14, 65280, Control_c, 1, 64, 0
14, 65661, Note_on_c, 1, 77, 78
14, 65820, Note_on_c, 1, 77, 0
14, 66100, Note_on_c, 1, 70, 47
14, 66212, Note_on_c, 1, 70, 0
14, 66249, Note_on_c, 1, 77, 67
14, 66543, Note_on_c, 1, 77, 0
14, 67100, Control_c, 1, 64, 0
14, 67119, Note_on_c, 1, 65, 72
14, 67119, Note_on_c, 1, 70, 67
14, 67121, Note_on_c, 1, 39, 63
14, 67127, Note_on_c, 1, 61, 60
14, 67311, Note_on_c, 1, 65, 0
14, 67319, Note_on_c, 1, 39, 0
14, 67332, Note_on_c, 1, 61, 0
14, 67358, Note_on_c, 1, 70, 0
14, 68208, Note_on_c, 1, 58, 45
14, 68214, Note_on_c, 1, 82, 70
14, 68217, Note_on_c, 1, 49, 56
14, 68217, Note_on_c, 1, 77, 65
14, 68223, Note_on_c, 1, 70, 65
14, 68333, Note_on_c, 1, 77, 0
14, 68823, Note_on_c, 1, 58, 0
14, 68860, Note_on_c, 1, 49, 0
14, 68932, Note_on_c, 1, 82, 0
14, 68939, Note_on_c, 1, 70, 0
14, 69064, Note_on_c, 1, 49, 33
14, 69120, Control_c, 1, 64, 0
14, 69125, Note_on_c, 1, 49, 0
14, 69496, Note_on_c, 1, 87, 73
14, 69616, Note_on_c, 1, 87, 0
14, 69642, Note_on_c, 1, 80, 23
14, 69817, Note_on_c, 1, 80, 0
14, 70121, Note_on_c, 1, 68, 57
14, 70130, Note_on_c, 1, 77, 63
14, 70130, Note_on_c, 1, 87, 62
14, 70133, Note_on_c, 1, 70, 62
14, 70203, Note_on_c, 1, 77, 0
14, 70221, Note_on_c, 1, 68, 0
14, 70233, Note_on_c, 1, 70, 0
14, 70242, Note_on_c, 1, 87, 0
14, 70912, Control_c, 1, 64, 0
14, 70941, Note_on_c, 1, 54, 59
14, 70943, Note_on_c, 1, 63, 58
14, 70944, Note_on_c, 1, 70, 67
14, 70945, Note_on_c, 1, 61, 60
14, 72935, Note_on_c, 1, 54, 0
14, 72936, Note_on_c, 1, 63, 0
14, 72938, Note_on_c, 1, 70, 0
14, 72939, Note_on_c, 1, 61, 0
14, 72960, Control_c, 1, 64, 0
14, 73000, Note_on_c, 1, 76, 53
14, 73016, Note_on_c, 1, 82, 55
14, 73017, Note_on_c, 1, 49, 31
14, 73020, Note_on_c, 1, 65, 36
14, 73124, Note_on_c, 1, 76, 0
14, 73152, Note_on_c, 1, 77, 56
14, 74701, Note_on_c, 1, 82, 0
14, 74725, Note_on_c, 1, 77, 0
14, 74729, Note_on_c, 1, 49, 0
14, 74730, Note_on_c, 1, 65, 0
14, 74780, Control_c, 1, 64, 0
14, 74805, Note_on_c, 1, 65, 62
14, 74808, Note_on_c, 1, 61, 58
14, 74813, Note_on_c, 1, 54, 60
14, 74813, Note_on_c, 1, 58, 67
14, 76639, Note_on_c, 1, 65, 0
14, 76643, Note_on_c, 1, 61, 0
14, 76648, Note_on_c, 1, 54, 0
14, 76648, Note_on_c, 1, 58, 0
14, 76700, Control_c, 1, 64, 0
14, 76732, Note_on_c, 1, 86, 37
14, 76732, Note_on_c, 1, 92, 48
14, 76734, Note_on_c, 1, 58, 35
14, 76734, Note_on_c, 1, 80, 34
14, 76741, Note_on_c, 1, 53, 51
14, 76903, Note_on_c, 1, 86, 0
14, 76952, Note_on_c, 1, 87, 57
14, 76969, Note_on_c, 1, 80, 0
14, 77052, Note_on_c, 1, 53, 0
14, 77052, Note_on_c, 1, 58, 0
14, 77070, Note_on_c, 1, 92, 0
14, 77118, Note_on_c, 1, 87, 0
14, 77180, Note_on_c, 1, 92, 52
14, 77192, Note_on_c, 1, 87, 77
14, 77193, Note_on_c, 1, 80, 54
14, 77201, Note_on_c, 1, 58, 57
14, 77205, Note_on_c, 1, 53, 59
14, 77276, Note_on_c, 1, 87, 0
14, 77295, Note_on_c, 1, 80, 0
14, 77306, Note_on_c, 1, 53, 0
14, 77312, Note_on_c, 1, 58, 0
14, 77328, Note_on_c, 1, 92, 0
14, 78720, Control_c, 1, 64, 0
14, 78749, Note_on_c, 1, 54, 59
14, 78749, Note_on_c, 1, 61, 66
14, 78753, Note_on_c, 1, 65, 61
14, 78753, Note_on_c, 1, 70, 64
14, 79630, Note_on_c, 1, 61, 0
14, 79630, Note_on_c, 1, 54, 0
14, 79633, Note_on_c, 1, 65, 0
14, 79635, Note_on_c, 1, 70, 0
14, 79676, Control_c, 1, 64, 0
14, 79683, Note_on_c, 1, 66, 53
14, 79689, Note_on_c, 1, 54, 38
14, 79708, Note_on_c, 1, 39, 42
14, 79712, Note_on_c, 1, 61, 45
14, 79717, Note_on_c, 1, 58, 47
14, 79777, Note_on_c, 1, 61, 0
14, 79797, Note_on_c, 1, 58, 0
14, 79799, Note_on_c, 1, 66, 0
14, 79805, Note_on_c, 1, 54, 0
14, 79806, Note_on_c, 1, 39, 0
14, 80156, Control_c, 1, 64, 0
14, 80166, Note_on_c, 1, 66, 47
14, 80167, Note_on_c, 1, 54, 35
14, 80188, Note_on_c, 1, 44, 44
14, 80192, Note_on_c, 1, 60, 43
14, 80195, Note_on_c, 1, 58, 50
14, 80256, Note_on_c, 1, 60, 0
14, 80275, Note_on_c, 1, 58, 0
14, 80283, Note_on_c, 1, 54, 0
14, 80284, Note_on_c, 1, 66, 0
14, 80285, Note_on_c, 1, 44, 0
14, 80640, Control_c, 1, 64, 0
14, 80646, Note_on_c, 1, 37, 59
14, 80817, Note_on_c, 1, 37, 0
14, 81014, Note_on_c, 1, 73, 76
14, 81028, Note_on_c, 1, 80, 67
14, 81029, Note_on_c, 1, 89, 61
14, 81092, Note_on_c, 1, 80, 0
14, 81114, Note_on_c, 1, 89, 0
14, 81118, Note_on_c, 1, 73, 0
14, 81596, Control_c, 1, 64, 0
14, 81609, Note_on_c, 1, 49, 41
14, 81609, Note_on_c, 1, 61, 50
14, 81628, Note_on_c, 1, 34, 43
14, 81633, Note_on_c, 1, 56, 44
14, 81633, Note_on_c, 1, 53, 45
14, 81697, Note_on_c, 1, 56, 0
14, 81714, Note_on_c, 1, 53, 0
14, 81725, Note_on_c, 1, 49, 0
14, 81726, Note_on_c, 1, 34, 0
14, 81726, Note_on_c, 1, 61, 0
14, 82076, Control_c, 1, 64, 0
14, 82087, Note_on_c, 1, 50, 43
14, 82089, Note_on_c, 1, 62, 44
14, 82108, Note_on_c, 1, 34, 49
14, 82112, Note_on_c, 1, 56, 41
14, 82115, Note_on_c, 1, 52, 50
14, 82176, Note_on_c, 1, 56, 0
14, 82196, Note_on_c, 1, 52, 0
14, 82204, Note_on_c, 1, 34, 0
14, 82204, Note_on_c, 1, 50, 0
14, 82205, Note_on_c, 1, 62, 0
14, 82560, Control_c, 1, 64, 0
14, 82560, Control_c, 1, 11, 104
14, 82582, Note_on_c, 1, 73, 89
14, 82585, Note_on_c, 1, 77, 91
14, 82590, Note_on_c, 1, 46, 73
14, 82800, Control_c, 1, 11, 103
14, 82820, Note_on_c, 1, 46, 0
14, 82848, Note_on_c, 1, 77, 0
14, 82850, Note_on_c, 1, 73, 0
14, 82947, Note_on_c, 1, 73, 39
14, 82955, Note_on_c, 1, 46, 39
14, 82959, Note_on_c, 1, 77, 47
14, 83000, Note_on_c, 1, 73, 0
14, 83020, Note_on_c, 1, 77, 0
14, 83025, Note_on_c, 1, 46, 0
14, 83040, Control_c, 1, 11, 101
14, 83280, Control_c, 1, 11, 100
14, 83420, Control_c, 1, 64, 0
14, 83454, Note_on_c, 1, 79, 68
14, 83520, Control_c, 1, 11, 99
14, 83577, Note_on_c, 1, 44, 53
14, 83580, Note_on_c, 1, 84, 54
14, 83581, Note_on_c, 1, 54, 52
14, 83669, Note_on_c, 1, 79, 0
14, 83707, Note_on_c, 1, 82, 40
14, 83760, Control_c, 1, 11, 98
14, 84000, Control_c, 1, 11, 96
14, 84240, Control_c, 1, 11, 95
14, 84474, Note_on_c, 1, 82, 0
14, 84478, Note_on_c, 1, 84, 0
14, 84480, Note_on_c, 1, 44, 0
14, 84480, Note_on_c, 1, 54, 0
14, 84480, Control_c, 1, 64, 0
14, 84480, Control_c, 1, 11, 94
14, 84521, Note_on_c, 1, 79, 73
14, 84536, Note_on_c, 1, 37, 58
14, 84537, Note_on_c, 1, 53, 47
14, 84539, Note_on_c, 1, 82, 51
14, 84647, Note_on_c, 1, 79, 0
14, 84671, Note_on_c, 1, 80, 39
14, 85389, Note_on_c, 1, 53, 0
14, 85392, Note_on_c, 1, 82, 0
14, 85393, Note_on_c, 1, 80, 0
14, 85394, Note_on_c, 1, 37, 0
14, 85436, Control_c, 1, 64, 0
14, 85443, Note_on_c, 1, 64, 47
14, 85447, Note_on_c, 1, 52, 35
14, 85469, Note_on_c, 1, 36, 45
14, 85473, Note_on_c, 1, 58, 50
14, 85477, Note_on_c, 1, 55, 51
14, 85537, Note_on_c, 1, 58, 0
14, 85557, Note_on_c, 1, 55, 0
14, 85559, Note_on_c, 1, 64, 0
14, 85565, Note_on_c, 1, 36, 0
14, 85566, Note_on_c, 1, 52, 0
14, 85916, Control_c, 1, 64, 0
14, 85924, Note_on_c, 1, 53, 39
14, 85929, Note_on_c, 1, 65, 49
14, 85947, Note_on_c, 1, 37, 48
14, 85953, Note_on_c, 1, 58, 47
14, 85957, Note_on_c, 1, 56, 50
14, 86017, Note_on_c, 1, 58, 0
14, 86038, Note_on_c, 1, 56, 0
14, 86041, Note_on_c, 1, 53, 0
14, 86044, Note_on_c, 1, 37, 0
14, 86045, Note_on_c, 1, 65, 0
14, 86400, Control_c, 1, 64, 0
14, 86430, Note_on_c, 1, 80, 39
14, 86430, Note_on_c, 1, 92, 40
14, 86431, Note_on_c, 1, 58, 30
14, 86437, Note_on_c, 1, 53, 47
14, 86440, Note_on_c, 1, 86, 44
14, 86520, Note_on_c, 1, 86, 0
14, 86555, Note_on_c, 1, 87, 60
14, 86574, Note_on_c, 1, 80, 0
14, 86656, Note_on_c, 1, 53, 0
14, 86658, Note_on_c, 1, 58, 0
14, 86677, Note_on_c, 1, 92, 0
14, 86719, Note_on_c, 1, 87, 0
14, 86784, Note_on_c, 1, 92, 55
14, 86797, Note_on_c, 1, 80, 50
14, 86797, Note_on_c, 1, 87, 75
14, 86800, Note_on_c, 1, 58, 55
14, 86808, Note_on_c, 1, 53, 60
14, 86882, Note_on_c, 1, 87, 0
14, 86898, Note_on_c, 1, 80, 0
14, 86908, Note_on_c, 1, 53, 0
14, 86910, Note_on_c, 1, 58, 0
14, 86933, Note_on_c, 1, 92, 0
14, 88316, Control_c, 1, 64, 0
14, 88327, Note_on_c, 1, 53, 38
14, 88328, Note_on_c, 1, 65, 48
14, 88349, Note_on_c, 1, 37, 43
14, 88353, Note_on_c, 1, 59, 44
14, 88357, Note_on_c, 1, 56, 54
14, 88420, Note_on_c, 1, 59, 0
14, 88438, Note_on_c, 1, 56, 0
14, 88443, Note_on_c, 1, 53, 0
14, 88445, Note_on_c, 1, 37, 0
14, 88445, Note_on_c, 1, 65, 0
14, 88796, Control_c, 1, 64, 0
14, 88802, Note_on_c, 1, 66, 45
14, 88804, Note_on_c, 1, 54, 36
14, 88826, Note_on_c, 1, 38, 41
14, 88833, Note_on_c, 1, 60, 43
14, 88833, Note_on_c, 1, 57, 54
14, 88898, Note_on_c, 1, 60, 0
14, 88914, Note_on_c, 1, 57, 0
14, 88919, Note_on_c, 1, 66, 0
14, 88920, Note_on_c, 1, 54, 0
14, 88922, Note_on_c, 1, 38, 0
14, 89276, Control_c, 1, 64, 0
14, 89285, Note_on_c, 1, 65, 48
14, 89286, Note_on_c, 1, 53, 42
14, 89306, Note_on_c, 1, 37, 44
14, 89313, Note_on_c, 1, 59, 50
14, 89313, Note_on_c, 1, 56, 48
14, 89378, Note_on_c, 1, 59, 0
14, 89394, Note_on_c, 1, 56, 0
14, 89402, Note_on_c, 1, 65, 0
14, 89403, Note_on_c, 1, 37, 0
14, 89405, Note_on_c, 1, 53, 0
14, 89756, Control_c, 1, 64, 0
14, 89768, Note_on_c, 1, 53, 43
14, 89768, Note_on_c, 1, 65, 53
14, 89788, Note_on_c, 1, 59, 47
14, 89789, Note_on_c, 1, 37, 46
14, 89797, Note_on_c, 1, 56, 50
14, 89852, Note_on_c, 1, 59, 0
14, 89880, Note_on_c, 1, 56, 0
14, 89884, Note_on_c, 1, 53, 0
14, 89884, Note_on_c, 1, 65, 0
14, 89885, Note_on_c, 1, 37, 0
14, 90240, Control_c, 1, 64, 0
14, 90284, Note_on_c, 1, 77, 40
14, 90289, Note_on_c, 1, 85, 64
14, 90289, Note_on_c, 1, 73, 53
14, 90300, Note_on_c, 1, 68, 45
14, 90348, Note_on_c, 1, 77, 0
14, 90378, Note_on_c, 1, 85, 0
14, 90381, Note_on_c, 1, 68, 0
14, 90383, Note_on_c, 1, 73, 0
14, 91196, Control_c, 1, 64, 0
14, 91204, Note_on_c, 1, 65, 44
14, 91209, Note_on_c, 1, 53, 44
14, 91219, Note_on_c, 1, 37, 46
14, 91233, Note_on_c, 1, 59, 46
14, 91236, Note_on_c, 1, 56, 45
14, 91298, Note_on_c, 1, 59, 0
14, 91315, Note_on_c, 1, 37, 0
14, 91317, Note_on_c, 1, 56, 0
14, 91322, Note_on_c, 1, 65, 0
14, 91325, Note_on_c, 1, 53, 0
14, 91676, Control_c, 1, 64, 0
14, 91687, Note_on_c, 1, 53, 37
14, 91689, Note_on_c, 1, 65, 51
14, 91703, Note_on_c, 1, 37, 49
14, 91713, Note_on_c, 1, 59, 50
14, 91713, Note_on_c, 1, 56, 54
14, 91777, Note_on_c, 1, 59, 0
14, 91794, Note_on_c, 1, 56, 0
14, 91801, Note_on_c, 1, 37, 0
14, 91803, Note_on_c, 1, 53, 0
14, 91807, Note_on_c, 1, 65, 0
14, 92032, Control_c, 1, 64, 0
14, 92059, Note_on_c, 1, 58, 63
14, 92061, Note_on_c, 1, 51, 63
14, 92063, Note_on_c, 1, 68, 66
14, 92065, Note_on_c, 1, 61, 65
14, 92972, Note_on_c, 1, 58, 0
14, 92973, Note_on_c, 1, 51, 0
14, 92976, Note_on_c, 1, 68, 0
14, 92977, Note_on_c, 1, 61, 0
14, 93020, Control_c, 1, 64, 0
14, 93052, Note_on_c, 1, 89, 44
14, 93054, Note_on_c, 1, 77, 36
14, 93055, Note_on_c, 1, 56, 29
14, 93058, Note_on_c, 1, 50, 54
14, 93061, Note_on_c, 1, 83, 46
14, 93233, Note_on_c, 1, 83, 0
14, 93273, Note_on_c, 1, 84, 27
14, 93289, Note_on_c, 1, 77, 0
14, 93368, Note_on_c, 1, 50, 0
14, 93374, Note_on_c, 1, 56, 0
14, 93391, Note_on_c, 1, 89, 0
14, 93437, Note_on_c, 1, 84, 0
14, 93503, Note_on_c, 1, 89, 51
14, 93510, Note_on_c, 1, 83, 70
14, 93517, Note_on_c, 1, 77, 59
14, 93520, Note_on_c, 1, 56, 57
14, 93529, Note_on_c, 1, 50, 63
14, 93594, Note_on_c, 1, 83, 0
14, 93618, Note_on_c, 1, 77, 0
14, 93630, Note_on_c, 1, 50, 0
14, 93630, Note_on_c, 1, 56, 0
14, 93651, Note_on_c, 1, 89, 0
14, 94080, Control_c, 1, 64, 0
14, 94120, Note_on_c, 1, 65, 47
14, 94131, Note_on_c, 1, 66, 69
14, 94133, Note_on_c, 1, 70, 64
14, 94205, Note_on_c, 1, 65, 0
14, 94268, Note_on_c, 1, 66, 0
14, 94387, Note_on_c, 1, 70, 0
14, 94469, Note_on_c, 1, 46, 56
14, 95948, Note_on_c, 1, 46, 0
14, 95996, Control_c, 1, 64, 0
14, 96002, Note_on_c, 1, 66, 50
14, 96007, Note_on_c, 1, 54, 35
14, 96023, Note_on_c, 1, 44, 48
14, 96031, Note_on_c, 1, 60, 48
14, 96036, Note_on_c, 1, 58, 46
14, 96095, Note_on_c, 1, 60, 0
14, 96116, Note_on_c, 1, 58, 0
14, 96118, Note_on_c, 1, 66, 0
14, 96120, Note_on_c, 1, 44, 0
14, 96124, Note_on_c, 1, 54, 0
14, 96476, Control_c, 1, 64, 0
14, 96487, Note_on_c, 1, 55, 43
14, 96489, Note_on_c, 1, 67, 48
14, 96506, Note_on_c, 1, 45, 40
14, 96510, Note_on_c, 1, 61, 45
14, 96517, Note_on_c, 1, 59, 53
14, 96575, Note_on_c, 1, 61, 0
14, 96597, Note_on_c, 1, 59, 0
14, 96603, Note_on_c, 1, 45, 0
14, 96605, Note_on_c, 1, 67, 0
14, 96605, Note_on_c, 1, 55, 0
14, 96860, Control_c, 1, 64, 0
14, 97007, Note_on_c, 1, 87, 57
14, 97008, Note_on_c, 1, 78, 45
14, 97009, Note_on_c, 1, 75, 59
14, 97020, Note_on_c, 1, 70, 49
14, 97074, Note_on_c, 1, 78, 0
14, 97096, Note_on_c, 1, 87, 0
14, 97102, Note_on_c, 1, 75, 0
14, 97102, Note_on_c, 1, 70, 0
14, 97820, Control_c, 1, 64, 0
14, 98780, Control_c, 1, 64, 0
14, 99280, Note_on_c, 1, 44, 47
14, 99313, Note_on_c, 1, 44, 0
14, 99409, Note_on_c, 1, 72, 51
14, 99477, Note_on_c, 1, 72, 0
14, 99488, Note_on_c, 1, 78, 53
14, 99699, Note_on_c, 1, 78, 0
14, 99740, Control_c, 1, 64, 0
14, 99882, Note_on_c, 1, 77, 42
14, 99883, Note_on_c, 1, 73, 61
14, 99888, Note_on_c, 1, 85, 60
14, 99895, Note_on_c, 1, 68, 45
14, 99948, Note_on_c, 1, 77, 0
14, 99976, Note_on_c, 1, 73, 0
14, 99976, Note_on_c, 1, 85, 0
14, 99976, Note_on_c, 1, 68, 0
14, 100796, Control_c, 1, 64, 0
14, 100806, Note_on_c, 1, 64, 50
14, 100809, Note_on_c, 1, 52, 43
14, 100824, Note_on_c, 1, 36, 46
14, 100831, Note_on_c, 1, 58, 44
14, 100831, Note_on_c, 1, 55, 54
14, 100895, Note_on_c, 1, 58, 0
14, 100911, Note_on_c, 1, 55, 0
14, 100920, Note_on_c, 1, 36, 0
14, 100922, Note_on_c, 1, 64, 0
14, 100926, Note_on_c, 1, 52, 0
14, 101276, Control_c, 1, 64, 0
14, 101284, Note_on_c, 1, 65, 52
14, 101287, Note_on_c, 1, 53, 36
14, 101308, Note_on_c, 1, 37, 48
14, 101308, Note_on_c, 1, 58, 48
14, 101312, Note_on_c, 1, 56, 49
14, 101376, Note_on_c, 1, 58, 0
14, 101393, Note_on_c, 1, 56, 0
14, 101402, Note_on_c, 1, 65, 0
14, 101404, Note_on_c, 1, 37, 0
14, 101404, Note_on_c, 1, 53, 0
14, 101760, Control_c, 1, 64, 0
14, 102145, Note_on_c, 1, 73, 82
14, 102304, Note_on_c, 1, 73, 0
14, 102579, Note_on_c, 1, 68, 49
14, 102693, Note_on_c, 1, 68, 0
14, 102725, Note_on_c, 1, 73, 70
14, 103019, Note_on_c, 1, 73, 0
14, 103676, Control_c, 1, 64, 0
14, 103681, Note_on_c, 1, 65, 49
14, 103682, Note_on_c, 1, 53, 43
14, 103706, Note_on_c, 1, 37, 44
14, 103712, Note_on_c, 1, 59, 41
14, 103714, Note_on_c, 1, 56, 52
14, 103777, Note_on_c, 1, 59, 0
14, 103794, Note_on_c, 1, 56, 0
14, 103797, Note_on_c, 1, 65, 0
14, 103798, Note_on_c, 1, 53, 0
14, 103805, Note_on_c, 1, 37, 0
14, 104156, Control_c, 1, 64, 0
14, 104162, Note_on_c, 1, 66, 53
14, 104167, Note_on_c, 1, 54, 43
14, 104187, Note_on_c, 1, 38, 47
14, 104187, Note_on_c, 1, 60, 47
14, 104195, Note_on_c, 1, 57, 54
14, 104251, Note_on_c, 1, 60, 0
14, 104278, Note_on_c, 1, 57, 0
14, 104279, Note_on_c, 1, 66, 0
14, 104284, Note_on_c, 1, 54, 0
14, 104287, Note_on_c, 1, 38, 0
14, 104636, Control_c, 1, 64, 0
14, 104647, Note_on_c, 1, 53, 39
14, 104649, Note_on_c, 1, 65, 49
14, 104668, Note_on_c, 1, 37, 44
14, 104668, Note_on_c, 1, 59, 48
14, 104674, Note_on_c, 1, 56, 47
14, 104732, Note_on_c, 1, 59, 0
14, 104755, Note_on_c, 1, 56, 0
14, 104763, Note_on_c, 1, 53, 0
14, 104764, Note_on_c, 1, 37, 0
14, 104766, Note_on_c, 1, 65, 0
14, 105116, Control_c, 1, 64, 0
14, 105128, Note_on_c, 1, 53, 37
14, 105128, Note_on_c, 1, 65, 52
14, 105149, Note_on_c, 1, 37, 40
14, 105152, Note_on_c, 1, 59, 45
14, 105157, Note_on_c, 1, 56, 49
14, 105217, Note_on_c, 1, 59, 0
14, 105238, Note_on_c, 1, 56, 0
14, 105245, Note_on_c, 1, 37, 0
14, 105245, Note_on_c, 1, 53, 0
14, 105246, Note_on_c, 1, 65, 0
14, 105500, Control_c, 1, 64, 0
14, 105652, Note_on_c, 1, 77, 63
14, 105900, Note_on_c, 1, 77, 0
14, 105960, Note_on_c, 1, 49, 47
14, 106065, Note_on_c, 1, 49, 0
14, 106110, Note_on_c, 1, 73, 65
14, 106112, Note_on_c, 1, 85, 69
14, 106275, Note_on_c, 1, 85, 0
14, 106350, Note_on_c, 1, 73, 0
14, 106556, Control_c, 1, 64, 0
14, 106568, Note_on_c, 1, 65, 44
14, 106569, Note_on_c, 1, 53, 42
14, 106588, Note_on_c, 1, 37, 45
14, 106588, Note_on_c, 1, 59, 41
14, 106589, Note_on_c, 1, 56, 45
14, 106653, Note_on_c, 1, 59, 0
14, 106670, Note_on_c, 1, 56, 0
14, 106684, Note_on_c, 1, 37, 0
14, 106685, Note_on_c, 1, 65, 0
14, 106686, Note_on_c, 1, 53, 0
14, 107036, Control_c, 1, 64, 0
14, 107041, Note_on_c, 1, 65, 52
14, 107047, Note_on_c, 1, 53, 36
14, 107068, Note_on_c, 1, 37, 41
14, 107073, Note_on_c, 1, 59, 44
14, 107076, Note_on_c, 1, 56, 49
14, 107137, Note_on_c, 1, 59, 0
14, 107156, Note_on_c, 1, 56, 0
14, 107157, Note_on_c, 1, 65, 0
14, 107165, Note_on_c, 1, 53, 0
14, 107166, Note_on_c, 1, 37, 0
14, 107520, Control_c, 1, 64, 0
14, 107539, Note_on_c, 1, 70, 86
14, 107545, Note_on_c, 1, 73, 90
14, 107546, Note_on_c, 1, 37, 76
14, 107773, Note_on_c, 1, 37, 0
14, 107806, Note_on_c, 1, 70, 0
14, 107807, Note_on_c, 1, 73, 0
14, 107908, Note_on_c, 1, 70, 45
14, 107912, Note_on_c, 1, 73, 43
14, 107919, Note_on_c, 1, 37, 43
14, 107960, Note_on_c, 1, 70, 0
14, 107973, Note_on_c, 1, 73, 0
14, 107989, Note_on_c, 1, 37, 0
14, 108480, Control_c, 1, 64, 0
14, 108527, Note_on_c, 1, 74, 42
14, 108528, Note_on_c, 1, 70, 53
14, 108529, Note_on_c, 1, 82, 62
14, 108535, Note_on_c, 1, 65, 47
14, 108591, Note_on_c, 1, 74, 0
14, 108615, Note_on_c, 1, 65, 0
14, 108618, Note_on_c, 1, 82, 0
14, 108620, Note_on_c, 1, 70, 0
14, 109440, Control_c, 1, 64, 0
14, 109825, Note_on_c, 1, 75, 83
14, 109986, Note_on_c, 1, 75, 0
14, 110260, Note_on_c, 1, 70, 46
14, 110373, Note_on_c, 1, 70, 0
14, 110406, Note_on_c, 1, 75, 64
14, 110700, Note_on_c, 1, 75, 0
14, 111356, Control_c, 1, 64, 0
14, 111358, Note_on_c, 1, 66, 44
14, 111369, Note_on_c, 1, 54, 39
14, 111385, Note_on_c, 1, 60, 44
14, 111386, Note_on_c, 1, 44, 48
14, 111396, Note_on_c, 1, 58, 53
14, 111449, Note_on_c, 1, 60, 0
14, 111474, Note_on_c, 1, 66, 0
14, 111478, Note_on_c, 1, 58, 0
14, 111483, Note_on_c, 1, 44, 0
14, 111486, Note_on_c, 1, 54, 0
14, 111836, Control_c, 1, 64, 0
14, 111846, Note_on_c, 1, 55, 39
14, 111847, Note_on_c, 1, 67, 46
14, 111867, Note_on_c, 1, 45, 40
14, 111870, Note_on_c, 1, 61, 42
14, 111876, Note_on_c, 1, 59, 47
14, 111934, Note_on_c, 1, 61, 0
14, 111957, Note_on_c, 1, 59, 0
14, 111963, Note_on_c, 1, 55, 0
14, 111964, Note_on_c, 1, 45, 0
14, 111967, Note_on_c, 1, 67, 0
14, 112320, Control_c, 1, 64, 0
14, 112359, Note_on_c, 1, 79, 68
14, 112377, Note_on_c, 1, 44, 54
14, 112381, Note_on_c, 1, 54, 43
14, 112381, Note_on_c, 1, 84, 46
14, 112483, Note_on_c, 1, 79, 0
14, 112513, Note_on_c, 1, 82, 43
14, 113234, Note_on_c, 1, 44, 0
14, 113235, Note_on_c, 1, 84, 0
14, 113235, Note_on_c, 1, 54, 0
14, 113236, Note_on_c, 1, 82, 0
14, 113276, Control_c, 1, 64, 0
14, 113289, Note_on_c, 1, 53, 42
14, 113289, Note_on_c, 1, 65, 48
14, 113309, Note_on_c, 1, 37, 43
14, 113312, Note_on_c, 1, 59, 41
14, 113316, Note_on_c, 1, 56, 46
14, 113378, Note_on_c, 1, 59, 0
14, 113397, Note_on_c, 1, 56, 0
14, 113406, Note_on_c, 1, 53, 0
14, 113406, Note_on_c, 1, 65, 0
14, 113407, Note_on_c, 1, 37, 0
14, 113756, Control_c, 1, 64, 0
14, 113764, Note_on_c, 1, 66, 45
14, 113765, Note_on_c, 1, 54, 36
14, 113786, Note_on_c, 1, 38, 47
14, 113790, Note_on_c, 1, 57, 51
14, 113791, Note_on_c, 1, 61, 43
14, 113857, Note_on_c, 1, 61, 0
14, 113872, Note_on_c, 1, 57, 0
14, 113880, Note_on_c, 1, 66, 0
14, 113882, Note_on_c, 1, 38, 0
14, 113883, Note_on_c, 1, 54, 0
14, 114240, Control_c, 1, 64, 0
14, 114240, Control_c, 1, 11, 94
14, 114252, Note_on_c, 1, 80, 49
14, 114257, Note_on_c, 1, 87, 34
14, 114328, Note_on_c, 1, 80, 0
14, 114334, Note_on_c, 1, 87, 0
14, 114360, Control_c, 1, 11, 95
14, 114480, Control_c, 1, 11, 96
14, 114600, Control_c, 1, 11, 98
14, 114720, Control_c, 1, 11, 99
14, 114729, Note_on_c, 1, 68, 38
14, 114741, Note_on_c, 1, 71, 32
14, 114745, Note_on_c, 1, 77, 36
14, 114747, Note_on_c, 1, 75, 32
14, 114751, Note_on_c, 1, 87, 38
14, 114763, Note_on_c, 1, 80, 42
14, 114835, Note_on_c, 1, 68, 0
14, 114836, Note_on_c, 1, 77, 0
14, 114840, Control_c, 1, 11, 100
14, 114846, Note_on_c, 1, 71, 0
14, 114848, Note_on_c, 1, 87, 0
14, 114851, Note_on_c, 1, 75, 0
14, 114854, Note_on_c, 1, 80, 0
14, 114960, Control_c, 1, 11, 101
14, 115080, Control_c, 1, 11, 103
14, 115100, Control_c, 1, 64, 0
14, 115176, Control_c, 1, 11, 104
14, 115221, Note_on_c, 1, 42, 39
14, 115221, Note_on_c, 1, 58, 55
14, 115229, Note_on_c, 1, 54, 48
14, 115244, Note_on_c, 1, 63, 46
14, 115287, Note_on_c, 1, 42, 0
14, 115301, Note_on_c, 1, 58, 0
14, 115308, Note_on_c, 1, 63, 0
14, 115318, Note_on_c, 1, 54, 0
14, 116156, Control_c, 1, 64, 0
14, 116168, Note_on_c, 1, 50, 40
14, 116169, Note_on_c, 1, 62, 53
14, 116189, Note_on_c, 1, 41, 48
14, 116189, Note_on_c, 1, 57, 41
14, 116196, Note_on_c, 1, 53, 54
14, 116253, Note_on_c, 1, 57, 0
14, 116278, Note_on_c, 1, 53, 0
14, 116285, Note_on_c, 1, 50, 0
14, 116285, Note_on_c, 1, 62, 0
14, 116285, Note_on_c, 1, 41, 0
14, 116636, Control_c, 1, 64, 0
14, 116648, Note_on_c, 1, 63, 47
14, 116648, Note_on_c, 1, 51, 35
14, 116668, Note_on_c, 1, 42, 45
14, 116673, Note_on_c, 1, 58, 43
14, 116676, Note_on_c, 1, 54, 52
14, 116738, Note_on_c, 1, 58, 0
14, 116759, Note_on_c, 1, 54, 0
14, 116764, Note_on_c, 1, 63, 0
14, 116765, Note_on_c, 1, 42, 0
14, 116765, Note_on_c, 1, 51, 0
14, 117116, Control_c, 1, 64, 0
14, 117127, Note_on_c, 1, 50, 40
14, 117128, Note_on_c, 1, 62, 46
14, 117148, Note_on_c, 1, 41, 48
14, 117151, Note_on_c, 1, 53, 45
14, 117153, Note_on_c, 1, 57, 46
14, 117217, Note_on_c, 1, 57, 0
14, 117231, Note_on_c, 1, 53, 0
14, 117243, Note_on_c, 1, 50, 0
14, 117244, Note_on_c, 1, 41, 0
14, 117244, Note_on_c, 1, 62, 0
14, 117596, Control_c, 1, 64, 0
14, 117608, Note_on_c, 1, 63, 49
14, 117609, Note_on_c, 1, 51, 42
14, 117624, Note_on_c, 1, 42, 41
14, 117631, Note_on_c, 1, 58, 47
14, 117637, Note_on_c, 1, 54, 47
14, 117695, Note_on_c, 1, 58, 0
14, 117717, Note_on_c, 1, 54, 0
14, 117720, Note_on_c, 1, 42, 0
14, 117725, Note_on_c, 1, 51, 0
14, 117726, Note_on_c, 1, 63, 0
14, 118080, Control_c, 1, 64, 0
14, 118098, Note_on_c, 1, 42, 38
14, 118101, Note_on_c, 1, 61, 55
14, 118107, Note_on_c, 1, 58, 46
14, 118123, Note_on_c, 1, 66, 49
14, 118162, Note_on_c, 1, 42, 0
14, 118181, Note_on_c, 1, 61, 0
14, 118188, Note_on_c, 1, 66, 0
14, 118196, Note_on_c, 1, 58, 0
14, 119040, Control_c, 1, 64, 0
14, 119058, Note_on_c, 1, 49, 62
14, 119062, Note_on_c, 1, 75, 62
14, 119064, Note_on_c, 1, 65, 63
14, 119065, Note_on_c, 1, 68, 63
14, 119163, Note_on_c, 1, 49, 0
14, 119165, Note_on_c, 1, 68, 0
14, 119179, Note_on_c, 1, 65, 0
14, 119210, Note_on_c, 1, 75, 0
14, 120045, Note_on_c, 1, 63, 48
14, 120049, Note_on_c, 1, 80, 67
14, 120054, Note_on_c, 1, 87, 78
14, 120057, Note_on_c, 1, 53, 55
14, 120063, Note_on_c, 1, 75, 64
14, 120165, Note_on_c, 1, 80, 0
14, 120660, Note_on_c, 1, 53, 0
14, 120660, Note_on_c, 1, 63, 0
14, 120772, Note_on_c, 1, 87, 0
14, 120780, Note_on_c, 1, 75, 0
14, 120860, Control_c, 1, 64, 0
14, 120893, Note_on_c, 1, 68, 35
14, 121327, Note_on_c, 1, 68, 0
14, 121473, Note_on_c, 1, 56, 34
14, 121923, Note_on_c, 1, 56, 0
14, 121955, Note_on_c, 1, 76, 78
14, 121957, Note_on_c, 1, 67, 79
14, 121985, Note_on_c, 1, 70, 20
14, 122058, Note_on_c, 1, 67, 0
14, 122085, Note_on_c, 1, 70, 0
14, 122154, Note_on_c, 1, 76, 0
14, 122257, Note_on_c, 1, 70, 36
14, 122310, Note_on_c, 1, 70, 0
14, 122316, Note_on_c, 1, 67, 58
14, 122353, Note_on_c, 1, 67, 0
14, 122432, Note_on_c, 1, 66, 63
14, 122441, Note_on_c, 1, 69, 71
14, 122445, Note_on_c, 1, 75, 66
14, 122689, Note_on_c, 1, 75, 0
14, 122701, Note_on_c, 1, 69, 0
14, 122707, Note_on_c, 1, 66, 0
14, 122817, Note_on_c, 1, 56, 44
14, 122867, Note_on_c, 1, 56, 0
14, 122880, Control_c, 1, 64, 0
14, 122903, Note_on_c, 1, 63, 66
14, 122912, Note_on_c, 1, 71, 65
14, 122913, Note_on_c, 1, 56, 59
14, 122913, Note_on_c, 1, 65, 61
14, 124640, Note_on_c, 1, 63, 0
14, 124647, Note_on_c, 1, 71, 0
14, 124648, Note_on_c, 1, 56, 0
14, 124648, Note_on_c, 1, 65, 0
14, 124700, Control_c, 1, 64, 0
14, 124709, Note_on_c, 1, 62, 44
14, 124712, Note_on_c, 1, 50, 41
14, 124730, Note_on_c, 1, 34, 48
14, 124737, Note_on_c, 1, 56, 47
14, 124741, Note_on_c, 1, 53, 49
14, 124892, Note_on_c, 1, 56, 0
14, 124912, Note_on_c, 1, 53, 0
14, 124917, Note_on_c, 1, 34, 0
14, 124919, Note_on_c, 1, 50, 0
14, 124919, Note_on_c, 1, 62, 0
14, 125783, Note_on_c, 1, 74, 75
14, 125785, Note_on_c, 1, 77, 74
14, 125801, Note_on_c, 1, 82, 78
14, 125801, Note_on_c, 1, 70, 71
14, 125801, Note_on_c, 1, 68, 53
14, 125845, Note_on_c, 1, 74, 0
14, 125846, Note_on_c, 1, 70, 0
14, 125864, Note_on_c, 1, 82, 0
14, 125869, Note_on_c, 1, 77, 0
14, 125869, Note_on_c, 1, 68, 0
14, 126720, Control_c, 1, 64, 0
14, 126731, Note_on_c, 1, 82, 35
14, 126733, Note_on_c, 1, 75, 55
14, 126808, Note_on_c, 1, 82, 0
14, 126809, Note_on_c, 1, 75, 0
14, 127209, Note_on_c, 1, 63, 38
14, 127221, Note_on_c, 1, 73, 36
14, 127223, Note_on_c, 1, 66, 28
14, 127229, Note_on_c, 1, 70, 32
14, 127237, Note_on_c, 1, 82, 35
14, 127243, Note_on_c, 1, 75, 36
14, 127309, Note_on_c, 1, 73, 0
14, 127313, Note_on_c, 1, 63, 0
14, 127328, Note_on_c, 1, 66, 0
14, 127333, Note_on_c, 1, 70, 0
14, 127335, Note_on_c, 1, 82, 0
14, 127335, Note_on_c, 1, 75, 0
14, 127702, Note_on_c, 1, 66, 19
14, 127711, Note_on_c, 1, 63, 31
14, 127716, Note_on_c, 1, 73, 15
14, 127723, Note_on_c, 1, 82, 18
14, 127725, Note_on_c, 1, 70, 22
14, 127731, Note_on_c, 1, 75, 37
14, 127922, Note_on_c, 1, 63, 0
14, 127929, Note_on_c, 1, 66, 0
14, 127937, Note_on_c, 1, 70, 0
14, 127940, Note_on_c, 1, 82, 0
14, 127944, Note_on_c, 1, 73, 0
14, 127946, Note_on_c, 1, 75, 0
14, 128061, Note_on_c, 1, 66, 40
14, 128062, Note_on_c, 1, 63, 53
14, 128063, Note_on_c, 1, 70, 51
14, 128064, Note_on_c, 1, 73, 50
14, 128069, Note_on_c, 1, 75, 48
14, 128083, Note_on_c, 1, 82, 25
14, 128129, Note_on_c, 1, 73, 0
14, 128135, Note_on_c, 1, 70, 0
14, 128138, Note_on_c, 1, 63, 0
14, 128139, Note_on_c, 1, 66, 0
14, 128155, Note_on_c, 1, 82, 0
14, 128159, Note_on_c, 1, 75, 0
14, 128636, Control_c, 1, 64, 0
14, 128641, Note_on_c, 1, 66, 51
14, 128647, Note_on_c, 1, 54, 40
14, 128667, Note_on_c, 1, 39, 41
14, 128670, Note_on_c, 1, 61, 43
14, 128673, Note_on_c, 1, 58, 47
14, 128734, Note_on_c, 1, 61, 0
14, 128753, Note_on_c, 1, 58, 0
14, 128757, Note_on_c, 1, 66, 0
14, 128763, Note_on_c, 1, 39, 0
14, 128763, Note_on_c, 1, 54, 0
14, 129120, Control_c, 1, 64, 0
14, 129132, Note_on_c, 1, 67, 68
14, 129132, Note_on_c, 1, 55, 50
14, 129150, Note_on_c, 1, 45, 59
14, 129155, Note_on_c, 1, 61, 59
14, 129157, Note_on_c, 1, 59, 67
14, 129600, Control_c, 1, 64, 0
14, 130475, Note_on_c, 1, 55, 0
14, 130476, Note_on_c, 1, 67, 0
14, 130493, Note_on_c, 1, 45, 0
14, 130500, Note_on_c, 1, 61, 0
14, 130500, Note_on_c, 1, 59, 0
14, 130570, Note_on_c, 1, 37, 56
14, 130741, Note_on_c, 1, 37, 0
14, 130936, Note_on_c, 1, 70, 73
14, 130947, Note_on_c, 1, 77, 75
14, 130948, Note_on_c, 1, 85, 62
14, 131011, Note_on_c, 1, 77, 0
14, 131032, Note_on_c, 1, 85, 0
14, 131040, Note_on_c, 1, 70, 0
14, 131516, Control_c, 1, 64, 0
14, 131528, Note_on_c, 1, 64, 46
14, 131529, Note_on_c, 1, 52, 39
14, 131546, Note_on_c, 1, 36, 40
14, 131551, Note_on_c, 1, 58, 49
14, 131556, Note_on_c, 1, 55, 46
14, 131615, Note_on_c, 1, 58, 0
14, 131638, Note_on_c, 1, 55, 0
14, 131642, Note_on_c, 1, 36, 0
14, 131644, Note_on_c, 1, 64, 0
14, 131645, Note_on_c, 1, 52, 0
14, 131996, Control_c, 1, 64, 0
14, 132009, Note_on_c, 1, 65, 44
14, 132009, Note_on_c, 1, 53, 43
14, 132028, Note_on_c, 1, 37, 47
14, 132033, Note_on_c, 1, 58, 42
14, 132037, Note_on_c, 1, 56, 50
14, 132101, Note_on_c, 1, 58, 0
14, 132118, Note_on_c, 1, 56, 0
14, 132124, Note_on_c, 1, 37, 0
14, 132126, Note_on_c, 1, 53, 0
14, 132126, Note_on_c, 1, 65, 0
14, 132476, Control_c, 1, 64, 0
14, 132487, Note_on_c, 1, 52, 44
14, 132488, Note_on_c, 1, 64, 48
14, 132505, Note_on_c, 1, 36, 40
14, 132511, Note_on_c, 1, 58, 49
14, 132516, Note_on_c, 1, 55, 48
14, 132577, Note_on_c, 1, 58, 0
14, 132596, Note_on_c, 1, 55, 0
14, 132601, Note_on_c, 1, 36, 0
14, 132603, Note_on_c, 1, 52, 0
14, 132604, Note_on_c, 1, 64, 0
14, 132956, Control_c, 1, 64, 0
14, 132962, Note_on_c, 1, 53, 44
14, 132965, Note_on_c, 1, 65, 44
14, 132984, Note_on_c, 1, 37, 42
14, 132993, Note_on_c, 1, 58, 44
14, 132994, Note_on_c, 1, 56, 53
14, 133057, Note_on_c, 1, 58, 0
14, 133074, Note_on_c, 1, 56, 0
14, 133078, Note_on_c, 1, 53, 0
14, 133081, Note_on_c, 1, 37, 0
14, 133085, Note_on_c, 1, 65, 0
14, 133436, Control_c, 1, 64, 0
14, 133445, Note_on_c, 1, 54, 43
14, 133448, Note_on_c, 1, 66, 45
14, 133465, Note_on_c, 1, 38, 47
14, 133473, Note_on_c, 1, 59, 46
14, 133476, Note_on_c, 1, 57, 46
14, 133538, Note_on_c, 1, 59, 0
14, 133557, Note_on_c, 1, 57, 0
14, 133561, Note_on_c, 1, 38, 0
14, 133564, Note_on_c, 1, 66, 0
14, 133564, Note_on_c, 1, 54, 0
14, 133916, Control_c, 1, 64, 0
14, 133925, Note_on_c, 1, 65, 51
14, 133927, Note_on_c, 1, 53, 39
14, 133942, Note_on_c, 1, 37, 44
14, 133951, Note_on_c, 1, 58, 48
14, 133955, Note_on_c, 1, 56, 50
14, 134016, Note_on_c, 1, 58, 0
14, 134035, Note_on_c, 1, 56, 0
14, 134038, Note_on_c, 1, 37, 0
14, 134043, Note_on_c, 1, 53, 0
14, 134044, Note_on_c, 1, 65, 0
14, 134400, Control_c, 1, 64, 0
14, 134414, Note_on_c, 1, 37, 42
14, 134420, Note_on_c, 1, 59, 50
14, 134429, Note_on_c, 1, 56, 48
14, 134442, Note_on_c, 1, 65, 48
14, 134478, Note_on_c, 1, 37, 0
14, 134502, Note_on_c, 1, 59, 0
14, 134507, Note_on_c, 1, 65, 0
14, 134519, Note_on_c, 1, 56, 0
14, 135356, Control_c, 1, 64, 0
14, 135368, Note_on_c, 1, 64, 44
14, 135368, Note_on_c, 1, 52, 36
14, 135385, Note_on_c, 1, 36, 49
14, 135390, Note_on_c, 1, 58, 41
14, 135397, Note_on_c, 1, 55, 48
14, 135454, Note_on_c, 1, 58, 0
14, 135477, Note_on_c, 1, 55, 0
14, 135483, Note_on_c, 1, 36, 0
14, 135484, Note_on_c, 1, 52, 0
14, 135485, Note_on_c, 1, 64, 0
14, 135836, Control_c, 1, 64, 0
14, 135845, Note_on_c, 1, 65, 47
14, 135849, Note_on_c, 1, 53, 37
14, 135861, Note_on_c, 1, 37, 49
14, 135873, Note_on_c, 1, 59, 44
14, 135874, Note_on_c, 1, 56, 46
14, 135939, Note_on_c, 1, 59, 0
14, 135956, Note_on_c, 1, 56, 0
14, 135957, Note_on_c, 1, 37, 0
14, 135962, Note_on_c, 1, 65, 0
14, 135965, Note_on_c, 1, 53, 0
14, 136316, Control_c, 1, 64, 0
14, 136323, Note_on_c, 1, 52, 44
14, 136326, Note_on_c, 1, 64, 51
14, 136349, Note_on_c, 1, 36, 45
14, 136350, Note_on_c, 1, 58, 42
14, 136355, Note_on_c, 1, 55, 53
14, 136415, Note_on_c, 1, 58, 0
14, 136435, Note_on_c, 1, 55, 0
14, 136440, Note_on_c, 1, 52, 0
14, 136443, Note_on_c, 1, 64, 0
14, 136449, Note_on_c, 1, 36, 0
14, 136796, Control_c, 1, 64, 0
14, 136807, Note_on_c, 1, 65, 53
14, 136809, Note_on_c, 1, 53, 42
14, 136821, Note_on_c, 1, 37, 46
14, 136831, Note_on_c, 1, 59, 46
14, 136837, Note_on_c, 1, 56, 49
14, 136895, Note_on_c, 1, 59, 0
14, 136917, Note_on_c, 1, 37, 0
14, 136919, Note_on_c, 1, 56, 0
14, 136923, Note_on_c, 1, 65, 0
14, 136925, Note_on_c, 1, 53, 0
14, 137276, Control_c, 1, 64, 0
14, 137285, Note_on_c, 1, 66, 46
14, 137288, Note_on_c, 1, 54, 39
14, 137308, Note_on_c, 1, 44, 41
14, 137311, Note_on_c, 1, 59, 45
14, 137316, Note_on_c, 1, 56, 46
14, 137375, Note_on_c, 1, 59, 0
14, 137397, Note_on_c, 1, 56, 0
14, 137402, Note_on_c, 1, 66, 0
14, 137404, Note_on_c, 1, 54, 0
14, 137405, Note_on_c, 1, 44, 0
14, 137756, Control_c, 1, 64, 0
14, 137761, Note_on_c, 1, 53, 37
14, 137767, Note_on_c, 1, 65, 52
14, 137785, Note_on_c, 1, 43, 40
14, 137791, Note_on_c, 1, 59, 48
14, 137795, Note_on_c, 1, 55, 51
14, 137855, Note_on_c, 1, 59, 0
14, 137875, Note_on_c, 1, 55, 0
14, 137877, Note_on_c, 1, 53, 0
14, 137883, Note_on_c, 1, 43, 0
14, 137886, Note_on_c, 1, 65, 0
14, 138240, Control_c, 1, 64, 0
14, 138259, Note_on_c, 1, 73, 84
14, 138265, Note_on_c, 1, 70, 93
14, 138273, Note_on_c, 1, 37, 76
14, 138500, Note_on_c, 1, 37, 0
14, 138521, Note_on_c, 1, 73, 0
14, 138531, Note_on_c, 1, 70, 0
14, 138626, Note_on_c, 1, 70, 43
14, 138636, Note_on_c, 1, 73, 38
14, 138640, Note_on_c, 1, 37, 45
14, 138679, Note_on_c, 1, 70, 0
14, 138696, Note_on_c, 1, 73, 0
14, 138710, Note_on_c, 1, 37, 0
14, 139196, Control_c, 1, 64, 0
14, 139207, Note_on_c, 1, 68, 44
14, 139208, Note_on_c, 1, 56, 44
14, 139223, Note_on_c, 1, 64, 46
14, 139226, Note_on_c, 1, 44, 49
14, 139233, Note_on_c, 1, 60, 53
14, 139288, Note_on_c, 1, 64, 0
14, 139313, Note_on_c, 1, 60, 0
14, 139323, Note_on_c, 1, 44, 0
14, 139325, Note_on_c, 1, 68, 0
14, 139326, Note_on_c, 1, 56, 0
14, 139676, Control_c, 1, 64, 0
14, 139687, Note_on_c, 1, 63, 47
14, 139689, Note_on_c, 1, 51, 37
14, 139708, Note_on_c, 1, 42, 42
14, 139711, Note_on_c, 1, 58, 49
14, 139717, Note_on_c, 1, 54, 45
14, 139779, Note_on_c, 1, 58, 0
14, 139798, Note_on_c, 1, 54, 0
14, 139804, Note_on_c, 1, 42, 0
14, 139805, Note_on_c, 1, 51, 0
14, 139805, Note_on_c, 1, 63, 0
14, 140156, Control_c, 1, 64, 0
14, 140168, Note_on_c, 1, 63, 46
14, 140169, Note_on_c, 1, 51, 37
14, 140183, Note_on_c, 1, 41, 41
14, 140193, Note_on_c, 1, 57, 46
14, 140196, Note_on_c, 1, 53, 53
14, 140258, Note_on_c, 1, 57, 0
14, 140278, Note_on_c, 1, 53, 0
14, 140279, Note_on_c, 1, 41, 0
14, 140284, Note_on_c, 1, 63, 0
14, 140285, Note_on_c, 1, 51, 0
14, 140640, Control_c, 1, 64, 0
14, 140659, Note_on_c, 1, 41, 41
14, 140662, Note_on_c, 1, 57, 49
14, 140668, Note_on_c, 1, 53, 46
14, 140683, Note_on_c, 1, 63, 48
14, 140723, Note_on_c, 1, 41, 0
14, 140744, Note_on_c, 1, 57, 0
14, 140747, Note_on_c, 1, 63, 0
14, 140757, Note_on_c, 1, 53, 0
14, 141596, Control_c, 1, 64, 0
14, 141609, Note_on_c, 1, 63, 46
14, 141609, Note_on_c, 1, 51, 42
14, 141627, Note_on_c, 1, 41, 43
14, 141631, Note_on_c, 1, 57, 42
14, 141637, Note_on_c, 1, 53, 52
14, 141696, Note_on_c, 1, 57, 0
14, 141717, Note_on_c, 1, 53, 0
14, 141723, Note_on_c, 1, 41, 0
14, 141725, Note_on_c, 1, 63, 0
14, 141726, Note_on_c, 1, 51, 0
14, 142080, Control_c, 1, 64, 0
14, 142464, Note_on_c, 1, 77, 81
14, 142624, Note_on_c, 1, 77, 0
14, 142899, Note_on_c, 1, 70, 44
14, 143013, Note_on_c, 1, 70, 0
14, 143047, Note_on_c, 1, 77, 71
14, 143344, Note_on_c, 1, 77, 0
14, 143900, Control_c, 1, 64, 0
14, 143918, Note_on_c, 1, 39, 56
14, 143920, Note_on_c, 1, 61, 60
14, 143923, Note_on_c, 1, 70, 71
14, 143925, Note_on_c, 1, 65, 68
14, 144113, Note_on_c, 1, 39, 0
14, 144117, Note_on_c, 1, 65, 0
14, 144125, Note_on_c, 1, 61, 0
14, 144162, Note_on_c, 1, 70, 0
14, 145008, Note_on_c, 1, 58, 44
14, 145010, Note_on_c, 1, 82, 77
14, 145015, Note_on_c, 1, 77, 60
14, 145016, Note_on_c, 1, 49, 53
14, 145022, Note_on_c, 1, 70, 65
14, 145132, Note_on_c, 1, 77, 0
14, 145626, Note_on_c, 1, 58, 0
14, 145659, Note_on_c, 1, 49, 0
14, 145729, Note_on_c, 1, 82, 0
14, 145736, Note_on_c, 1, 70, 0
14, 145862, Note_on_c, 1, 49, 28
14, 145920, Control_c, 1, 64, 0
14, 145922, Note_on_c, 1, 49, 0
14, 146301, Note_on_c, 1, 87, 73
14, 146421, Note_on_c, 1, 87, 0
14, 146441, Note_on_c, 1, 80, 29
14, 146617, Note_on_c, 1, 80, 0
14, 146920, Note_on_c, 1, 68, 51
14, 146926, Note_on_c, 1, 77, 69
14, 146933, Note_on_c, 1, 70, 53
14, 146933, Note_on_c, 1, 87, 61
14, 147000, Note_on_c, 1, 77, 0
14, 147020, Note_on_c, 1, 68, 0
14, 147033, Note_on_c, 1, 70, 0
14, 147047, Note_on_c, 1, 87, 0
14, 147712, Control_c, 1, 64, 0
14, 147737, Note_on_c, 1, 63, 61
14, 147740, Note_on_c, 1, 54, 60
14, 147744, Note_on_c, 1, 70, 67
14, 147744, Note_on_c, 1, 61, 66
14, 149731, Note_on_c, 1, 63, 0
14, 149736, Note_on_c, 1, 54, 0
14, 149737, Note_on_c, 1, 70, 0
14, 149737, Note_on_c, 1, 61, 0
14, 149760, Control_c, 1, 64, 0
14, 149798, Note_on_c, 1, 76, 49
14, 149813, Note_on_c, 1, 49, 38
14, 149819, Note_on_c, 1, 82, 50
14, 149819, Note_on_c, 1, 65, 34
14, 149922, Note_on_c, 1, 76, 0
14, 149953, Note_on_c, 1, 77, 64
14, 151504, Note_on_c, 1, 82, 0
14, 151525, Note_on_c, 1, 49, 0
14, 151527, Note_on_c, 1, 77, 0
14, 151529, Note_on_c, 1, 65, 0
14, 151580, Control_c, 1, 64, 0
14, 151610, Note_on_c, 1, 65, 62
14, 151612, Note_on_c, 1, 58, 59
14, 151612, Note_on_c, 1, 54, 61
14, 151613, Note_on_c, 1, 61, 65
14, 153446, Note_on_c, 1, 54, 0
14, 153447, Note_on_c, 1, 65, 0
14, 153447, Note_on_c, 1, 58, 0
14, 153449, Note_on_c, 1, 61, 0
14, 153500, Control_c, 1, 64, 0
14, 153531, Note_on_c, 1, 58, 35
14, 153533, Note_on_c, 1, 92, 46
14, 153535, Note_on_c, 1, 80, 38
14, 153540, Note_on_c, 1, 86, 41
14, 153544, Note_on_c, 1, 53, 56
14, 153711, Note_on_c, 1, 86, 0
14, 153754, Note_on_c, 1, 87, 55
14, 153770, Note_on_c, 1, 80, 0
14, 153849, Note_on_c, 1, 58, 0
14, 153854, Note_on_c, 1, 53, 0
14, 153873, Note_on_c, 1, 92, 0
14, 153917, Note_on_c, 1, 87, 0
14, 153983, Note_on_c, 1, 92, 52
14, 153994, Note_on_c, 1, 80, 53
14, 153995, Note_on_c, 1, 87, 75
14, 153996, Note_on_c, 1, 58, 58
14, 154008, Note_on_c, 1, 53, 64
14, 154079, Note_on_c, 1, 87, 0
14, 154096, Note_on_c, 1, 80, 0
14, 154105, Note_on_c, 1, 58, 0
14, 154109, Note_on_c, 1, 53, 0
14, 154131, Note_on_c, 1, 92, 0
14, 155520, Control_c, 1, 64, 0
14, 155545, Note_on_c, 1, 54, 66
14, 155549, Note_on_c, 1, 61, 59
14, 155552, Note_on_c, 1, 65, 66
14, 155553, Note_on_c, 1, 70, 67
14, 156425, Note_on_c, 1, 54, 0
14, 156431, Note_on_c, 1, 61, 0
14, 156432, Note_on_c, 1, 65, 0
14, 156434, Note_on_c, 1, 70, 0
14, 156476, Control_c, 1, 64, 0
14, 156486, Note_on_c, 1, 54, 44
14, 156488, Note_on_c, 1, 66, 48
14, 156507, Note_on_c, 1, 39, 47
14, 156512, Note_on_c, 1, 61, 49
14, 156514, Note_on_c, 1, 58, 49
14, 156576, Note_on_c, 1, 61, 0
14, 156594, Note_on_c, 1, 58, 0
14, 156602, Note_on_c, 1, 54, 0
14, 156603, Note_on_c, 1, 39, 0
14, 156605, Note_on_c, 1, 66, 0
14, 156956, Control_c, 1, 64, 0
14, 156962, Note_on_c, 1, 54, 44
14, 156969, Note_on_c, 1, 66, 49
14, 156985, Note_on_c, 1, 44, 45
14, 156991, Note_on_c, 1, 58, 47
14, 156992, Note_on_c, 1, 60, 43
14, 157056, Note_on_c, 1, 60, 0
14, 157071, Note_on_c, 1, 58, 0
14, 157078, Note_on_c, 1, 54, 0
14, 157081, Note_on_c, 1, 44, 0
14, 157085, Note_on_c, 1, 66, 0
14, 157921, Note_on_c, 1, 61, 61
14, 157925, Note_on_c, 1, 58, 61
14, 157929, Note_on_c, 1, 56, 60
14, 157929, Note_on_c, 1, 53, 68
14, 158026, Note_on_c, 1, 61, 0
14, 158029, Note_on_c, 1, 58, 0
14, 158034, Note_on_c, 1, 56, 0
14, 158034, Note_on_c, 1, 53, 0
14, 158402, Note_on_c, 1, 58, 60
14, 158408, Note_on_c, 1, 55, 53
14, 158409, Note_on_c, 1, 61, 58
14, 158409, Note_on_c, 1, 52, 55
14, 158646, Note_on_c, 1, 58, 0
14, 158651, Note_on_c, 1, 55, 0
14, 158652, Note_on_c, 1, 61, 0
14, 158653, Note_on_c, 1, 52, 0
14, 158725, Note_on_c, 1, 52, 65
14, 158725, Note_on_c, 1, 61, 68
14, 158728, Note_on_c, 1, 58, 66
14, 158729, Note_on_c, 1, 55, 69
14, 158793, Note_on_c, 1, 52, 0
14, 158794, Note_on_c, 1, 61, 0
14, 158799, Note_on_c, 1, 58, 0
14, 158799, Note_on_c, 1, 55, 0
14, 159203, Note_on_c, 1, 58, 67
14, 159205, Note_on_c, 1, 66, 67
14, 159207, Note_on_c, 1, 61, 70
14, 159209, Note_on_c, 1, 68, 73
14, 159287, Note_on_c, 1, 58, 0
14, 159289, Note_on_c, 1, 66, 0
14, 159291, Note_on_c, 1, 61, 0
14, 159293, Note_on_c, 1, 68, 0
14, 159844, Note_on_c, 1, 77, 101
14, 159849, Note_on_c, 1, 89, 97
14, 159949, Note_on_c, 1, 77, 0
14, 159953, Note_on_c, 1, 89, 0
14, 160329, Note_on_c, 1, 80, 86
14, 160574, Note_on_c, 1, 80, 0
14, 160648, Note_on_c, 1, 82, 100
14, 161168, Note_on_c, 1, 82, 0
14, 161287, Note_on_c, 1, 85, 102
14, 161371, Note_on_c, 1, 85, 0
14, 161760, Note_on_c, 1, 58, 73
14, 161762, Note_on_c, 1, 61, 66
14, 161767, Note_on_c, 1, 54, 73
14, 161768, Note_on_c, 1, 52, 70
14, 161864, Note_on_c, 1, 58, 0
14, 161867, Note_on_c, 1, 61, 0
14, 161871, Note_on_c, 1, 54, 0
14, 161873, Note_on_c, 1, 52, 0
14, 162246, Note_on_c, 1, 47, 57
14, 162246, Note_on_c, 1, 61, 51
14, 162247, Note_on_c, 1, 59, 58
14, 162247, Note_on_c, 1, 56, 60
14, 162489, Note_on_c, 1, 61, 0
14, 162489, Note_on_c, 1, 47, 0
14, 162491, Note_on_c, 1, 59, 0
14, 162492, Note_on_c, 1, 56, 0
14, 162564, Note_on_c, 1, 61, 61
14, 162564, Note_on_c, 1, 59, 58
14, 162568, Note_on_c, 1, 47, 65
14, 162569, Note_on_c, 1, 56, 66
14, 162632, Note_on_c, 1, 59, 0
14, 162633, Note_on_c, 1, 61, 0
14, 162636, Note_on_c, 1, 47, 0
14, 162637, Note_on_c, 1, 56, 0
14, 163044, Note_on_c, 1, 58, 48
14, 163046, Note_on_c, 1, 46, 54
14, 163046, Note_on_c, 1, 61, 54
14, 163049, Note_on_c, 1, 54, 49
14, 163604, Note_on_c, 1, 58, 0
14, 163606, Note_on_c, 1, 46, 0
14, 163606, Note_on_c, 1, 61, 0
14, 163610, Note_on_c, 1, 54, 0
14, 163685, Note_on_c, 1, 61, 38
14, 163687, Note_on_c, 1, 54, 35
14, 163689, Note_on_c, 1, 57, 40
14, 163689, Note_on_c, 1, 45, 43
14, 163940, Note_on_c, 1, 61, 0
14, 163943, Note_on_c, 1, 45, 0
14, 163944, Note_on_c, 1, 57, 0
14, 163944, Note_on_c, 1, 54, 0
14, 164006, Note_on_c, 1, 61, 50
14, 164008, Note_on_c, 1, 44, 54
14, 164009, Note_on_c, 1, 56, 51
14, 164009, Note_on_c, 1, 53, 53
14, 164103, Note_on_c, 1, 61, 0
14, 164105, Note_on_c, 1, 53, 0
14, 164105, Note_on_c, 1, 56, 0
14, 164107, Note_on_c, 1, 44, 0
14, 168960, Control_c, 1, 123, 0
14, 168960, End_track
15, 0, Start_track
15, 0, MIDI_port, 0
15, 0, Title_t, "Alto Sax 1"
15, 0, Program_c, 2, 65
15, 0, Control_c, 2, 7, 110
15, 0, Control_c, 2, 10, 57
15, 0, Control_c, 2, 91, 94
15, 0, Control_c, 2, 93, 5
15, 0, Control_c, 2, 11, 127
15, 0, Control_c, 2, 123, 0
15, 5286, Note_on_c, 2, 73, 105
15, 5588, Note_on_c, 2, 73, 0
15, 5608, Note_on_c, 2, 72, 80
15, 5752, Note_on_c, 2, 72, 0
15, 5769, Note_on_c, 2, 73, 90
15, 5885, Note_on_c, 2, 73, 0
15, 6249, Note_on_c, 2, 61, 78
15, 6551, Note_on_c, 2, 61, 0
15, 6567, Note_on_c, 2, 60, 57
15, 6712, Note_on_c, 2, 60, 0
15, 6727, Note_on_c, 2, 61, 69
15, 6845, Note_on_c, 2, 61, 0
15, 8005, Note_on_c, 2, 65, 80
15, 8541, Note_on_c, 2, 65, 0
15, 8648, Note_on_c, 2, 64, 69
15, 8767, Note_on_c, 2, 64, 0
15, 9129, Note_on_c, 2, 65, 69
15, 9245, Note_on_c, 2, 65, 0
15, 9606, Note_on_c, 2, 64, 67
15, 9723, Note_on_c, 2, 64, 0
15, 10083, Note_on_c, 2, 65, 65
15, 10362, Note_on_c, 2, 65, 0
15, 10400, Pitch_bend_c, 2, 8110
15, 10404, Note_on_c, 2, 66, 80
15, 10410, Pitch_bend_c, 2, 6650
15, 10420, Pitch_bend_c, 2, 6326
15, 10440, Pitch_bend_c, 2, 6163
15, 10450, Pitch_bend_c, 2, 6001
15, 10460, Pitch_bend_c, 2, 5839
15, 10470, Pitch_bend_c, 2, 5677
15, 10490, Pitch_bend_c, 2, 5839
15, 10500, Pitch_bend_c, 2, 6001
15, 10510, Pitch_bend_c, 2, 6163
15, 10520, Pitch_bend_c, 2, 6488
15, 10530, Pitch_bend_c, 2, 6650
15, 10540, Pitch_bend_c, 2, 6974
15, 10550, Pitch_bend_c, 2, 8192
15, 10988, Note_on_c, 2, 66, 0
15, 11045, Note_on_c, 2, 65, 70
15, 11150, Note_on_c, 2, 65, 0
15, 11848, Note_on_c, 2, 65, 80
15, 12384, Note_on_c, 2, 65, 0
15, 12488, Note_on_c, 2, 64, 66
15, 12605, Note_on_c, 2, 64, 0
15, 12963, Note_on_c, 2, 65, 67
15, 13082, Note_on_c, 2, 65, 0
15, 13443, Note_on_c, 2, 64, 70
15, 13560, Note_on_c, 2, 64, 0
15, 13929, Note_on_c, 2, 65, 58
15, 14207, Note_on_c, 2, 65, 0
15, 14240, Pitch_bend_c, 2, 8110
15, 14249, Note_on_c, 2, 66, 74
15, 14250, Pitch_bend_c, 2, 6650
15, 14260, Pitch_bend_c, 2, 6326
15, 14280, Pitch_bend_c, 2, 6163
15, 14290, Pitch_bend_c, 2, 6001
15, 14300, Pitch_bend_c, 2, 5839
15, 14310, Pitch_bend_c, 2, 5677
15, 14330, Pitch_bend_c, 2, 5839
15, 14340, Pitch_bend_c, 2, 6001
15, 14350, Pitch_bend_c, 2, 6163
15, 14360, Pitch_bend_c, 2, 6488
15, 14370, Pitch_bend_c, 2, 6650
15, 14380, Pitch_bend_c, 2, 6974
15, 14390, Pitch_bend_c, 2, 8192
15, 14835, Note_on_c, 2, 66, 0
15, 14883, Note_on_c, 2, 65, 70
15, 14988, Note_on_c, 2, 65, 0
15, 15689, Note_on_c, 2, 66, 77
15, 16225, Note_on_c, 2, 66, 0
15, 16323, Note_on_c, 2, 65, 66
15, 16439, Note_on_c, 2, 65, 0
15, 16809, Note_on_c, 2, 66, 64
15, 17123, Note_on_c, 2, 66, 0
15, 17127, Note_on_c, 2, 68, 68
15, 18589, Note_on_c, 2, 68, 0
15, 18728, Note_on_c, 2, 66, 62
15, 19042, Note_on_c, 2, 66, 0
15, 19046, Note_on_c, 2, 63, 61
15, 19200, Control_c, 2, 11, 127
15, 19392, Control_c, 2, 11, 127
15, 19560, Control_c, 2, 11, 125
15, 19680, Control_c, 2, 11, 124
15, 19800, Control_c, 2, 11, 121
15, 19920, Control_c, 2, 11, 119
15, 20016, Control_c, 2, 11, 116
15, 20136, Control_c, 2, 11, 113
15, 20208, Control_c, 2, 11, 110
15, 20328, Control_c, 2, 11, 106
15, 20400, Control_c, 2, 11, 103
15, 20448, Control_c, 2, 11, 100
15, 20544, Control_c, 2, 11, 95
15, 20616, Control_c, 2, 11, 91
15, 20688, Control_c, 2, 11, 86
15, 20760, Control_c, 2, 11, 81
15, 20808, Control_c, 2, 11, 77
15, 20856, Control_c, 2, 11, 74
15, 20880, Control_c, 2, 11, 71
15, 20928, Control_c, 2, 11, 67
15, 20976, Control_c, 2, 11, 62
15, 21000, Control_c, 2, 11, 59
15, 21024, Control_c, 2, 11, 56
15, 21048, Control_c, 2, 11, 52
15, 21096, Control_c, 2, 11, 46
15, 21120, Control_c, 2, 11, 41
15, 21144, Control_c, 2, 11, 37
15, 21168, Control_c, 2, 11, 31
15, 21192, Control_c, 2, 11, 25
15, 21216, Control_c, 2, 11, 15
15, 21301, Note_on_c, 2, 63, 0
15, 23016, Control_c, 2, 11, 127
15, 23368, Note_on_c, 2, 65, 72
15, 23904, Note_on_c, 2, 65, 0
15, 24009, Note_on_c, 2, 64, 71
15, 24125, Note_on_c, 2, 64, 0
15, 24489, Note_on_c, 2, 65, 73
15, 24605, Note_on_c, 2, 65, 0
15, 24966, Note_on_c, 2, 64, 71
15, 25083, Note_on_c, 2, 64, 0
15, 25445, Note_on_c, 2, 65, 65
15, 25723, Note_on_c, 2, 65, 0
15, 25760, Pitch_bend_c, 2, 8110
15, 25764, Note_on_c, 2, 66, 79
15, 25770, Pitch_bend_c, 2, 6650
15, 25780, Pitch_bend_c, 2, 6326
15, 25800, Pitch_bend_c, 2, 6163
15, 25810, Pitch_bend_c, 2, 6001
15, 25820, Pitch_bend_c, 2, 5839
15, 25830, Pitch_bend_c, 2, 5677
15, 25850, Pitch_bend_c, 2, 5839
15, 25860, Pitch_bend_c, 2, 6001
15, 25870, Pitch_bend_c, 2, 6163
15, 25880, Pitch_bend_c, 2, 6488
15, 25890, Pitch_bend_c, 2, 6650
15, 25900, Pitch_bend_c, 2, 6974
15, 25910, Pitch_bend_c, 2, 8192
15, 26347, Note_on_c, 2, 66, 0
15, 26400, Note_on_c, 2, 65, 73
15, 26506, Note_on_c, 2, 65, 0
15, 27209, Note_on_c, 2, 65, 80
15, 27746, Note_on_c, 2, 65, 0
15, 27849, Note_on_c, 2, 64, 65
15, 27967, Note_on_c, 2, 64, 0
15, 28326, Note_on_c, 2, 65, 67
15, 28442, Note_on_c, 2, 65, 0
15, 28808, Note_on_c, 2, 64, 73
15, 28925, Note_on_c, 2, 64, 0
15, 29284, Note_on_c, 2, 65, 61
15, 29563, Note_on_c, 2, 65, 0
15, 29600, Pitch_bend_c, 2, 8110
15, 29603, Note_on_c, 2, 66, 76
15, 29610, Pitch_bend_c, 2, 6650
15, 29620, Pitch_bend_c, 2, 6326
15, 29640, Pitch_bend_c, 2, 6163
15, 29650, Pitch_bend_c, 2, 6001
15, 29660, Pitch_bend_c, 2, 5839
15, 29670, Pitch_bend_c, 2, 5677
15, 29690, Pitch_bend_c, 2, 5839
15, 29700, Pitch_bend_c, 2, 6001
15, 29710, Pitch_bend_c, 2, 6163
15, 29720, Pitch_bend_c, 2, 6488
15, 29730, Pitch_bend_c, 2, 6650
15, 29740, Pitch_bend_c, 2, 6974
15, 29750, Pitch_bend_c, 2, 8192
15, 30187, Note_on_c, 2, 66, 0
15, 30244, Note_on_c, 2, 65, 73
15, 30348, Note_on_c, 2, 65, 0
15, 31043, Note_on_c, 2, 66, 75
15, 31580, Note_on_c, 2, 66, 0
15, 31688, Note_on_c, 2, 65, 71
15, 31805, Note_on_c, 2, 65, 0
15, 32165, Note_on_c, 2, 66, 64
15, 32480, Note_on_c, 2, 66, 0
15, 32488, Note_on_c, 2, 68, 67
15, 33951, Note_on_c, 2, 68, 0
15, 34086, Note_on_c, 2, 66, 62
15, 34401, Note_on_c, 2, 66, 0
15, 34407, Note_on_c, 2, 70, 73
15, 34560, Control_c, 2, 11, 127
15, 34752, Control_c, 2, 11, 127
15, 34920, Control_c, 2, 11, 125
15, 35040, Control_c, 2, 11, 124
15, 35160, Control_c, 2, 11, 121
15, 35280, Control_c, 2, 11, 119
15, 35376, Control_c, 2, 11, 116
15, 35496, Control_c, 2, 11, 113
15, 35568, Control_c, 2, 11, 110
15, 35688, Control_c, 2, 11, 106
15, 35760, Control_c, 2, 11, 103
15, 35808, Control_c, 2, 11, 100
15, 35904, Control_c, 2, 11, 95
15, 35976, Control_c, 2, 11, 91
15, 36048, Control_c, 2, 11, 86
15, 36120, Control_c, 2, 11, 81
15, 36168, Control_c, 2, 11, 77
15, 36216, Control_c, 2, 11, 74
15, 36240, Control_c, 2, 11, 71
15, 36288, Control_c, 2, 11, 67
15, 36336, Control_c, 2, 11, 62
15, 36360, Control_c, 2, 11, 59
15, 36384, Control_c, 2, 11, 56
15, 36408, Control_c, 2, 11, 52
15, 36456, Control_c, 2, 11, 46
15, 36480, Control_c, 2, 11, 41
15, 36504, Control_c, 2, 11, 37
15, 36528, Control_c, 2, 11, 31
15, 36552, Control_c, 2, 11, 25
15, 36576, Control_c, 2, 11, 15
15, 36661, Note_on_c, 2, 70, 0
15, 36960, Control_c, 2, 11, 127
15, 37769, Note_on_c, 2, 63, 81
15, 37911, Note_on_c, 2, 63, 0
15, 38249, Note_on_c, 2, 61, 69
15, 38381, Note_on_c, 2, 61, 0
15, 38400, Control_c, 2, 86, 37
15, 38640, Note_on_c, 2, 73, 127
15, 39024, Note_on_c, 2, 73, 0
15, 39360, Note_on_c, 2, 72, 127
15, 39744, Note_on_c, 2, 72, 0
15, 39840, Note_on_c, 2, 73, 127
15, 40224, Note_on_c, 2, 73, 0
15, 40320, Note_on_c, 2, 72, 127
15, 40704, Note_on_c, 2, 72, 0
15, 40800, Note_on_c, 2, 73, 127
15, 41040, Note_on_c, 2, 75, 127
15, 41184, Note_on_c, 2, 73, 0
15, 41328, Note_on_c, 2, 75, 0
15, 41760, Note_on_c, 2, 73, 127
15, 42240, Note_on_c, 2, 73, 0
15, 42480, Note_on_c, 2, 73, 101
15, 42620, Note_on_c, 2, 73, 0
15, 42727, Note_on_c, 2, 73, 101
15, 42867, Note_on_c, 2, 73, 0
15, 43207, Note_on_c, 2, 73, 88
15, 43207, Note_on_c, 2, 73, 88
15, 43521, Note_on_c, 2, 73, 0
15, 43521, Note_on_c, 2, 73, 0
15, 43527, Note_on_c, 2, 72, 80
15, 43527, Note_on_c, 2, 72, 80
15, 43682, Note_on_c, 2, 72, 0
15, 43682, Note_on_c, 2, 72, 0
15, 43688, Note_on_c, 2, 70, 75
15, 43688, Note_on_c, 2, 70, 75
15, 44002, Note_on_c, 2, 70, 0
15, 44002, Note_on_c, 2, 70, 0
15, 44006, Note_on_c, 2, 68, 91
15, 44006, Note_on_c, 2, 68, 91
15, 44880, Note_on_c, 2, 65, 127
15, 44882, Note_on_c, 2, 68, 0
15, 44882, Note_on_c, 2, 68, 0
15, 45072, Note_on_c, 2, 65, 0
15, 45120, Note_on_c, 2, 68, 92
15, 45252, Note_on_c, 2, 68, 0
15, 45600, Note_on_c, 2, 70, 127
15, 45984, Note_on_c, 2, 70, 0
15, 46080, Note_on_c, 2, 71, 127
15, 46848, Note_on_c, 2, 71, 0
15, 47520, Note_on_c, 2, 70, 127
15, 47712, Note_on_c, 2, 70, 0
15, 47760, Note_on_c, 2, 68, 127
15, 47760, Note_on_c, 2, 68, 127
15, 47760, Note_on_c, 2, 68, 127
15, 47952, Note_on_c, 2, 68, 0
15, 47952, Note_on_c, 2, 68, 0
15, 48432, Note_on_c, 2, 68, 0
15, 48456, Control_c, 2, 11, 127
15, 48480, Note_on_c, 2, 68, 127
15, 48600, Control_c, 2, 11, 127
15, 48672, Note_on_c, 2, 68, 0
15, 48720, Note_on_c, 2, 66, 127
15, 48720, Control_c, 2, 11, 125
15, 48840, Control_c, 2, 11, 123
15, 48912, Control_c, 2, 11, 120
15, 49032, Control_c, 2, 11, 116
15, 49104, Control_c, 2, 11, 113
15, 49152, Control_c, 2, 11, 110
15, 49224, Control_c, 2, 11, 106
15, 49296, Note_on_c, 2, 66, 0
15, 49296, Control_c, 2, 11, 103
15, 49320, Control_c, 2, 11, 100
15, 49392, Control_c, 2, 11, 95
15, 49440, Note_on_c, 2, 65, 127
15, 49440, Control_c, 2, 11, 91
15, 49488, Control_c, 2, 11, 86
15, 49536, Control_c, 2, 11, 81
15, 49584, Control_c, 2, 11, 76
15, 49632, Note_on_c, 2, 65, 0
15, 49632, Control_c, 2, 11, 70
15, 49656, Control_c, 2, 11, 66
15, 49680, Note_on_c, 2, 63, 127
15, 49680, Control_c, 2, 11, 62
15, 49704, Control_c, 2, 11, 59
15, 49728, Control_c, 2, 11, 55
15, 49752, Control_c, 2, 11, 50
15, 49776, Control_c, 2, 11, 44
15, 49800, Control_c, 2, 11, 37
15, 49824, Control_c, 2, 11, 30
15, 49848, Control_c, 2, 11, 17
15, 49896, Control_c, 2, 11, 127
15, 50352, Note_on_c, 2, 63, 0
15, 51686, Note_on_c, 2, 65, 81
15, 51845, Note_on_c, 2, 65, 0
15, 51848, Note_on_c, 2, 68, 73
15, 52162, Note_on_c, 2, 68, 0
15, 52168, Note_on_c, 2, 65, 87
15, 52324, Note_on_c, 2, 65, 0
15, 52328, Note_on_c, 2, 66, 71
15, 52630, Pitch_bend_c, 2, 7948
15, 52640, Pitch_bend_c, 2, 5352
15, 52643, Note_on_c, 2, 66, 0
15, 52648, Note_on_c, 2, 70, 84
15, 52650, Pitch_bend_c, 2, 4866
15, 52660, Pitch_bend_c, 2, 4704
15, 52690, Pitch_bend_c, 2, 4866
15, 52700, Pitch_bend_c, 2, 5028
15, 52710, Pitch_bend_c, 2, 5352
15, 52720, Pitch_bend_c, 2, 5515
15, 52730, Pitch_bend_c, 2, 5839
15, 52740, Pitch_bend_c, 2, 6163
15, 52750, Pitch_bend_c, 2, 6650
15, 52760, Pitch_bend_c, 2, 6812
15, 52770, Pitch_bend_c, 2, 6974
15, 52780, Pitch_bend_c, 2, 7137
15, 52790, Pitch_bend_c, 2, 7461
15, 52800, Pitch_bend_c, 2, 8110
15, 52800, Control_c, 2, 11, 127
15, 52810, Pitch_bend_c, 2, 8192
15, 52944, Control_c, 2, 11, 125
15, 53040, Control_c, 2, 11, 121
15, 53112, Control_c, 2, 11, 118
15, 53160, Control_c, 2, 11, 115
15, 53208, Control_c, 2, 11, 110
15, 53256, Control_c, 2, 11, 106
15, 53304, Control_c, 2, 11, 101
15, 53328, Control_c, 2, 11, 98
15, 53352, Control_c, 2, 11, 95
15, 53376, Control_c, 2, 11, 91
15, 53400, Control_c, 2, 11, 88
15, 53424, Control_c, 2, 11, 84
15, 53448, Control_c, 2, 11, 79
15, 53472, Control_c, 2, 11, 75
15, 53496, Control_c, 2, 11, 69
15, 53500, Note_on_c, 2, 70, 0
15, 53520, Control_c, 2, 11, 64
15, 53544, Control_c, 2, 11, 56
15, 53568, Control_c, 2, 11, 47
15, 53592, Control_c, 2, 11, 37
15, 53616, Control_c, 2, 11, 22
15, 53736, Control_c, 2, 11, 127
15, 54088, Note_on_c, 2, 65, 91
15, 54222, Note_on_c, 2, 65, 0
15, 54729, Note_on_c, 2, 64, 67
15, 54847, Note_on_c, 2, 64, 0
15, 55208, Note_on_c, 2, 65, 69
15, 55325, Note_on_c, 2, 65, 0
15, 55688, Note_on_c, 2, 64, 70
15, 55804, Note_on_c, 2, 64, 0
15, 56167, Note_on_c, 2, 65, 62
15, 56445, Note_on_c, 2, 65, 0
15, 56480, Pitch_bend_c, 2, 8110
15, 56488, Note_on_c, 2, 66, 78
15, 56490, Pitch_bend_c, 2, 6650
15, 56500, Pitch_bend_c, 2, 6326
15, 56520, Pitch_bend_c, 2, 6163
15, 56530, Pitch_bend_c, 2, 6001
15, 56540, Pitch_bend_c, 2, 5839
15, 56550, Pitch_bend_c, 2, 5677
15, 56570, Pitch_bend_c, 2, 5839
15, 56580, Pitch_bend_c, 2, 6001
15, 56590, Pitch_bend_c, 2, 6163
15, 56600, Pitch_bend_c, 2, 6488
15, 56610, Pitch_bend_c, 2, 6650
15, 56620, Pitch_bend_c, 2, 6974
15, 56630, Pitch_bend_c, 2, 8192
15, 57072, Note_on_c, 2, 66, 0
15, 57128, Note_on_c, 2, 65, 67
15, 57233, Note_on_c, 2, 65, 0
15, 57927, Note_on_c, 2, 65, 97
15, 58059, Note_on_c, 2, 65, 0
15, 58562, Note_on_c, 2, 64, 65
15, 58679, Note_on_c, 2, 64, 0
15, 59048, Note_on_c, 2, 65, 69
15, 59164, Note_on_c, 2, 65, 0
15, 59527, Note_on_c, 2, 64, 74
15, 59646, Note_on_c, 2, 64, 0
15, 60008, Note_on_c, 2, 65, 60
15, 60286, Note_on_c, 2, 65, 0
15, 60320, Pitch_bend_c, 2, 8110
15, 60327, Note_on_c, 2, 66, 71
15, 60330, Pitch_bend_c, 2, 6650
15, 60340, Pitch_bend_c, 2, 6326
15, 60360, Pitch_bend_c, 2, 6163
15, 60370, Pitch_bend_c, 2, 6001
15, 60380, Pitch_bend_c, 2, 5839
15, 60390, Pitch_bend_c, 2, 5677
15, 60410, Pitch_bend_c, 2, 5839
15, 60420, Pitch_bend_c, 2, 6001
15, 60430, Pitch_bend_c, 2, 6163
15, 60440, Pitch_bend_c, 2, 6488
15, 60450, Pitch_bend_c, 2, 6650
15, 60460, Pitch_bend_c, 2, 6974
15, 60470, Pitch_bend_c, 2, 8192
15, 60910, Note_on_c, 2, 66, 0
15, 60967, Note_on_c, 2, 65, 74
15, 61071, Note_on_c, 2, 65, 0
15, 61768, Note_on_c, 2, 70, 80
15, 62304, Note_on_c, 2, 70, 0
15, 62406, Note_on_c, 2, 69, 73
15, 62522, Note_on_c, 2, 69, 0
15, 62888, Note_on_c, 2, 70, 73
15, 63004, Note_on_c, 2, 70, 0
15, 63369, Note_on_c, 2, 71, 64
15, 63686, Note_on_c, 2, 71, 0
15, 63688, Note_on_c, 2, 72, 77
15, 64747, Note_on_c, 2, 72, 0
15, 64804, Note_on_c, 2, 65, 58
15, 65127, Note_on_c, 2, 73, 82
15, 65143, Note_on_c, 2, 65, 0
15, 67068, Note_on_c, 2, 73, 0
15, 67687, Note_on_c, 2, 73, 103
15, 68001, Note_on_c, 2, 73, 0
15, 68009, Note_on_c, 2, 70, 109
15, 68164, Note_on_c, 2, 70, 0
15, 68168, Note_on_c, 2, 72, 96
15, 68482, Note_on_c, 2, 72, 0
15, 68489, Note_on_c, 2, 73, 115
15, 68644, Note_on_c, 2, 73, 0
15, 68649, Note_on_c, 2, 72, 87
15, 68964, Note_on_c, 2, 72, 0
15, 68969, Note_on_c, 2, 70, 106
15, 69126, Note_on_c, 2, 70, 0
15, 69127, Note_on_c, 2, 72, 93
15, 69575, Note_on_c, 2, 72, 0
15, 69607, Note_on_c, 2, 73, 108
15, 69921, Note_on_c, 2, 73, 0
15, 69928, Note_on_c, 2, 72, 102
15, 70511, Note_on_c, 2, 72, 0
15, 70568, Note_on_c, 2, 68, 97
15, 70882, Note_on_c, 2, 68, 0
15, 70884, Note_on_c, 2, 61, 106
15, 71039, Note_on_c, 2, 61, 0
15, 71046, Note_on_c, 2, 66, 85
15, 71361, Note_on_c, 2, 66, 0
15, 71367, Note_on_c, 2, 68, 103
15, 71520, Note_on_c, 2, 66, 85
15, 71523, Note_on_c, 2, 68, 0
15, 71810, Note_on_c, 2, 66, 0
15, 71848, Note_on_c, 2, 66, 103
15, 71981, Note_on_c, 2, 66, 0
15, 72329, Note_on_c, 2, 73, 91
15, 72801, Note_on_c, 2, 73, 0
15, 72809, Note_on_c, 2, 70, 106
15, 72961, Note_on_c, 2, 72, 96
15, 72964, Note_on_c, 2, 70, 0
15, 73409, Note_on_c, 2, 72, 0
15, 73447, Note_on_c, 2, 73, 108
15, 73761, Note_on_c, 2, 73, 0
15, 73767, Note_on_c, 2, 72, 97
15, 74351, Note_on_c, 2, 72, 0
15, 74406, Note_on_c, 2, 68, 94
15, 74723, Note_on_c, 2, 68, 0
15, 74729, Note_on_c, 2, 61, 104
15, 74886, Note_on_c, 2, 61, 0
15, 74887, Note_on_c, 2, 66, 83
15, 75201, Note_on_c, 2, 66, 0
15, 75202, Note_on_c, 2, 68, 98
15, 75357, Note_on_c, 2, 68, 0
15, 75369, Note_on_c, 2, 66, 82
15, 75661, Note_on_c, 2, 66, 0
15, 75686, Note_on_c, 2, 66, 103
15, 75818, Note_on_c, 2, 66, 0
15, 76168, Note_on_c, 2, 73, 94
15, 76640, Note_on_c, 2, 73, 0
15, 76648, Note_on_c, 2, 70, 98
15, 76803, Note_on_c, 2, 70, 0
15, 76806, Note_on_c, 2, 72, 81
15, 77121, Note_on_c, 2, 72, 0
15, 77127, Note_on_c, 2, 73, 98
15, 77758, Note_on_c, 2, 73, 0
15, 77769, Note_on_c, 2, 72, 87
15, 77889, Note_on_c, 2, 73, 88
15, 77899, Note_on_c, 2, 72, 0
15, 78005, Note_on_c, 2, 72, 72
15, 78018, Note_on_c, 2, 73, 0
15, 78121, Note_on_c, 2, 68, 74
15, 78133, Note_on_c, 2, 72, 0
15, 78247, Note_on_c, 2, 65, 82
15, 78249, Note_on_c, 2, 68, 0
15, 78562, Note_on_c, 2, 65, 0
15, 78564, Note_on_c, 2, 61, 90
15, 78720, Note_on_c, 2, 61, 0
15, 78725, Note_on_c, 2, 66, 82
15, 79039, Note_on_c, 2, 66, 0
15, 79046, Note_on_c, 2, 68, 96
15, 79629, Note_on_c, 2, 68, 0
15, 79686, Note_on_c, 2, 65, 86
15, 79809, Note_on_c, 2, 66, 91
15, 79815, Note_on_c, 2, 65, 0
15, 79924, Note_on_c, 2, 65, 73
15, 79937, Note_on_c, 2, 66, 0
15, 80048, Note_on_c, 2, 63, 76
15, 80052, Note_on_c, 2, 65, 0
15, 80168, Note_on_c, 2, 58, 79
15, 80177, Note_on_c, 2, 63, 0
15, 80482, Note_on_c, 2, 58, 0
15, 80487, Note_on_c, 2, 61, 79
15, 81387, Note_on_c, 2, 61, 0
15, 81445, Note_on_c, 2, 58, 89
15, 81553, Note_on_c, 2, 58, 0
15, 84808, Note_on_c, 2, 65, 68
15, 85416, Note_on_c, 2, 65, 0
15, 85444, Note_on_c, 2, 64, 54
15, 85746, Note_on_c, 2, 64, 0
15, 85766, Note_on_c, 2, 65, 64
15, 85875, Note_on_c, 2, 65, 0
15, 88169, Note_on_c, 2, 68, 76
15, 88289, Note_on_c, 2, 68, 0
15, 88644, Note_on_c, 2, 69, 69
15, 89239, Note_on_c, 2, 69, 0
15, 89288, Note_on_c, 2, 70, 59
15, 89578, Note_on_c, 2, 70, 0
15, 89595, Note_on_c, 2, 61, 81
15, 89704, Note_on_c, 2, 61, 0
15, 91528, Note_on_c, 2, 69, 59
15, 91683, Note_on_c, 2, 69, 0
15, 91689, Note_on_c, 2, 70, 56
15, 92003, Note_on_c, 2, 70, 0
15, 92008, Note_on_c, 2, 73, 66
15, 93116, Note_on_c, 2, 73, 0
15, 93129, Note_on_c, 2, 70, 62
15, 94030, Note_on_c, 2, 70, 0
15, 94088, Note_on_c, 2, 68, 53
15, 94390, Note_on_c, 2, 68, 0
15, 94402, Note_on_c, 2, 66, 71
15, 94511, Note_on_c, 2, 66, 0
15, 96006, Note_on_c, 2, 65, 57
15, 96310, Note_on_c, 2, 65, 0
15, 96325, Note_on_c, 2, 63, 70
15, 96457, Note_on_c, 2, 63, 0
15, 96488, Note_on_c, 2, 65, 67
15, 96778, Note_on_c, 2, 65, 0
15, 96807, Note_on_c, 2, 65, 76
15, 96915, Note_on_c, 2, 65, 0
15, 100164, Note_on_c, 2, 65, 64
15, 100773, Note_on_c, 2, 65, 0
15, 100807, Note_on_c, 2, 64, 55
15, 101109, Note_on_c, 2, 64, 0
15, 101129, Note_on_c, 2, 65, 62
15, 101237, Note_on_c, 2, 65, 0
15, 103529, Note_on_c, 2, 68, 79
15, 103649, Note_on_c, 2, 68, 0
15, 104006, Note_on_c, 2, 69, 64
15, 104601, Note_on_c, 2, 69, 0
15, 104648, Note_on_c, 2, 70, 57
15, 104940, Note_on_c, 2, 70, 0
15, 104968, Note_on_c, 2, 61, 80
15, 105076, Note_on_c, 2, 61, 0
15, 106887, Note_on_c, 2, 69, 66
15, 107040, Note_on_c, 2, 70, 52
15, 107043, Note_on_c, 2, 69, 0
15, 107354, Note_on_c, 2, 70, 0
15, 107365, Note_on_c, 2, 73, 65
15, 108471, Note_on_c, 2, 73, 0
15, 108483, Note_on_c, 2, 70, 67
15, 109383, Note_on_c, 2, 70, 0
15, 109449, Note_on_c, 2, 68, 57
15, 109752, Note_on_c, 2, 68, 0
15, 109768, Note_on_c, 2, 66, 75
15, 109876, Note_on_c, 2, 66, 0
15, 111369, Note_on_c, 2, 65, 57
15, 111673, Note_on_c, 2, 65, 0
15, 111687, Note_on_c, 2, 63, 66
15, 111819, Note_on_c, 2, 63, 0
15, 111848, Note_on_c, 2, 65, 57
15, 112139, Note_on_c, 2, 65, 0
15, 112165, Note_on_c, 2, 65, 75
15, 112273, Note_on_c, 2, 65, 0
15, 113129, Note_on_c, 2, 70, 68
15, 113577, Note_on_c, 2, 70, 0
15, 113609, Note_on_c, 2, 68, 67
15, 113764, Note_on_c, 2, 68, 0
15, 113767, Note_on_c, 2, 70, 64
15, 114070, Control_c, 2, 11, 104
15, 114082, Note_on_c, 2, 70, 0
15, 114086, Note_on_c, 2, 68, 78
15, 114330, Control_c, 2, 11, 105
15, 114520, Control_c, 2, 11, 106
15, 114640, Control_c, 2, 11, 108
15, 114740, Control_c, 2, 11, 109
15, 114840, Control_c, 2, 11, 110
15, 114930, Control_c, 2, 11, 113
15, 115030, Control_c, 2, 11, 115
15, 115090, Control_c, 2, 11, 118
15, 115098, Note_on_c, 2, 68, 0
15, 115150, Control_c, 2, 11, 121
15, 115180, Control_c, 2, 11, 124
15, 115190, Control_c, 2, 11, 127
15, 115200, Control_c, 2, 11, 127
15, 115209, Note_on_c, 2, 63, 86
15, 115326, Note_on_c, 2, 63, 0
15, 119527, Note_on_c, 2, 73, 93
15, 119668, Note_on_c, 2, 73, 0
15, 120009, Note_on_c, 2, 73, 85
15, 120326, Note_on_c, 2, 73, 0
15, 120329, Note_on_c, 2, 72, 84
15, 120483, Note_on_c, 2, 70, 81
15, 120486, Note_on_c, 2, 72, 0
15, 120797, Note_on_c, 2, 70, 0
15, 120805, Note_on_c, 2, 68, 88
15, 121681, Note_on_c, 2, 68, 0
15, 121765, Note_on_c, 2, 65, 85
15, 121898, Note_on_c, 2, 65, 0
15, 123208, Note_on_c, 2, 63, 80
15, 123354, Note_on_c, 2, 63, 0
15, 123366, Note_on_c, 2, 63, 78
15, 123670, Note_on_c, 2, 63, 0
15, 123688, Note_on_c, 2, 63, 91
15, 123808, Note_on_c, 2, 63, 0
15, 125256, Control_c, 2, 11, 127
15, 125289, Note_on_c, 2, 62, 84
15, 125400, Control_c, 2, 11, 127
15, 125520, Control_c, 2, 11, 125
15, 125640, Control_c, 2, 11, 123
15, 125712, Control_c, 2, 11, 120
15, 125832, Control_c, 2, 11, 116
15, 125904, Control_c, 2, 11, 113
15, 125952, Control_c, 2, 11, 110
15, 126024, Control_c, 2, 11, 106
15, 126096, Control_c, 2, 11, 103
15, 126120, Control_c, 2, 11, 100
15, 126192, Control_c, 2, 11, 95
15, 126240, Control_c, 2, 11, 91
15, 126288, Control_c, 2, 11, 86
15, 126336, Control_c, 2, 11, 81
15, 126384, Control_c, 2, 11, 76
15, 126432, Control_c, 2, 11, 70
15, 126456, Control_c, 2, 11, 66
15, 126480, Control_c, 2, 11, 62
15, 126504, Control_c, 2, 11, 59
15, 126528, Control_c, 2, 11, 55
15, 126552, Control_c, 2, 11, 50
15, 126553, Note_on_c, 2, 62, 0
15, 126576, Control_c, 2, 11, 44
15, 126600, Control_c, 2, 11, 37
15, 126624, Control_c, 2, 11, 30
15, 126648, Control_c, 2, 11, 17
15, 126696, Control_c, 2, 11, 127
15, 128485, Note_on_c, 2, 65, 78
15, 128641, Note_on_c, 2, 65, 0
15, 128649, Note_on_c, 2, 68, 78
15, 128963, Note_on_c, 2, 68, 0
15, 128969, Note_on_c, 2, 65, 79
15, 129126, Note_on_c, 2, 65, 0
15, 129129, Note_on_c, 2, 66, 68
15, 129430, Pitch_bend_c, 2, 7948
15, 129440, Pitch_bend_c, 2, 5352
15, 129443, Note_on_c, 2, 66, 0
15, 129448, Note_on_c, 2, 70, 90
15, 129450, Pitch_bend_c, 2, 4866
15, 129460, Pitch_bend_c, 2, 4704
15, 129490, Pitch_bend_c, 2, 4866
15, 129500, Pitch_bend_c, 2, 5028
15, 129510, Pitch_bend_c, 2, 5352
15, 129520, Pitch_bend_c, 2, 5515
15, 129530, Pitch_bend_c, 2, 5839
15, 129540, Pitch_bend_c, 2, 6163
15, 129550, Pitch_bend_c, 2, 6650
15, 129560, Pitch_bend_c, 2, 6812
15, 129570, Pitch_bend_c, 2, 6974
15, 129580, Pitch_bend_c, 2, 7137
15, 129590, Pitch_bend_c, 2, 7461
15, 129600, Pitch_bend_c, 2, 8110
15, 129600, Control_c, 2, 11, 127
15, 129610, Pitch_bend_c, 2, 8192
15, 129744, Control_c, 2, 11, 125
15, 129840, Control_c, 2, 11, 121
15, 129912, Control_c, 2, 11, 118
15, 129960, Control_c, 2, 11, 115
15, 130008, Control_c, 2, 11, 110
15, 130056, Control_c, 2, 11, 106
15, 130104, Control_c, 2, 11, 101
15, 130128, Control_c, 2, 11, 98
15, 130152, Control_c, 2, 11, 95
15, 130176, Control_c, 2, 11, 91
15, 130200, Control_c, 2, 11, 88
15, 130224, Control_c, 2, 11, 84
15, 130248, Control_c, 2, 11, 79
15, 130272, Control_c, 2, 11, 75
15, 130296, Control_c, 2, 11, 69
15, 130300, Note_on_c, 2, 70, 0
15, 130320, Control_c, 2, 11, 64
15, 130344, Control_c, 2, 11, 56
15, 130368, Control_c, 2, 11, 47
15, 130392, Control_c, 2, 11, 37
15, 130416, Control_c, 2, 11, 22
15, 130536, Control_c, 2, 11, 127
15, 130883, Note_on_c, 2, 65, 96
15, 131016, Note_on_c, 2, 65, 0
15, 131523, Note_on_c, 2, 64, 72
15, 131640, Note_on_c, 2, 64, 0
15, 132008, Note_on_c, 2, 65, 69
15, 132124, Note_on_c, 2, 65, 0
15, 132487, Note_on_c, 2, 64, 65
15, 132603, Note_on_c, 2, 64, 0
15, 132967, Note_on_c, 2, 65, 62
15, 133247, Note_on_c, 2, 65, 0
15, 133280, Pitch_bend_c, 2, 8110
15, 133289, Note_on_c, 2, 66, 76
15, 133290, Pitch_bend_c, 2, 6650
15, 133300, Pitch_bend_c, 2, 6326
15, 133320, Pitch_bend_c, 2, 6163
15, 133330, Pitch_bend_c, 2, 6001
15, 133340, Pitch_bend_c, 2, 5839
15, 133350, Pitch_bend_c, 2, 5677
15, 133370, Pitch_bend_c, 2, 5839
15, 133380, Pitch_bend_c, 2, 6001
15, 133390, Pitch_bend_c, 2, 6163
15, 133400, Pitch_bend_c, 2, 6488
15, 133410, Pitch_bend_c, 2, 6650
15, 133420, Pitch_bend_c, 2, 6974
15, 133430, Pitch_bend_c, 2, 8192
15, 133873, Note_on_c, 2, 66, 0
15, 133924, Note_on_c, 2, 65, 67
15, 134028, Note_on_c, 2, 65, 0
15, 134728, Note_on_c, 2, 65, 95
15, 134862, Note_on_c, 2, 65, 0
15, 135366, Note_on_c, 2, 64, 65
15, 135484, Note_on_c, 2, 64, 0
15, 135847, Note_on_c, 2, 65, 74
15, 135965, Note_on_c, 2, 65, 0
15, 136326, Note_on_c, 2, 64, 69
15, 136443, Note_on_c, 2, 64, 0
15, 136807, Note_on_c, 2, 65, 66
15, 137087, Note_on_c, 2, 65, 0
15, 137120, Pitch_bend_c, 2, 8110
15, 137129, Note_on_c, 2, 66, 76
15, 137130, Pitch_bend_c, 2, 6650
15, 137140, Pitch_bend_c, 2, 6326
15, 137160, Pitch_bend_c, 2, 6163
15, 137170, Pitch_bend_c, 2, 6001
15, 137180, Pitch_bend_c, 2, 5839
15, 137190, Pitch_bend_c, 2, 5677
15, 137210, Pitch_bend_c, 2, 5839
15, 137220, Pitch_bend_c, 2, 6001
15, 137230, Pitch_bend_c, 2, 6163
15, 137240, Pitch_bend_c, 2, 6488
15, 137250, Pitch_bend_c, 2, 6650
15, 137260, Pitch_bend_c, 2, 6974
15, 137270, Pitch_bend_c, 2, 8192
15, 137713, Note_on_c, 2, 66, 0
15, 137769, Note_on_c, 2, 65, 69
15, 137874, Note_on_c, 2, 65, 0
15, 138569, Note_on_c, 2, 70, 72
15, 139107, Note_on_c, 2, 70, 0
15, 139207, Note_on_c, 2, 69, 74
15, 139323, Note_on_c, 2, 69, 0
15, 139686, Note_on_c, 2, 70, 68
15, 139803, Note_on_c, 2, 70, 0
15, 140168, Note_on_c, 2, 71, 63
15, 140482, Note_on_c, 2, 71, 0
15, 140486, Note_on_c, 2, 72, 78
15, 141546, Note_on_c, 2, 72, 0
15, 141609, Note_on_c, 2, 65, 64
15, 141929, Note_on_c, 2, 73, 85
15, 141950, Note_on_c, 2, 65, 0
15, 143866, Note_on_c, 2, 73, 0
15, 144488, Note_on_c, 2, 73, 97
15, 144803, Note_on_c, 2, 73, 0
15, 144808, Note_on_c, 2, 70, 105
15, 144964, Note_on_c, 2, 70, 0
15, 144969, Note_on_c, 2, 72, 87
15, 145285, Note_on_c, 2, 72, 0
15, 145286, Note_on_c, 2, 73, 100
15, 145442, Note_on_c, 2, 73, 0
15, 145448, Note_on_c, 2, 72, 86
15, 145764, Note_on_c, 2, 72, 0
15, 145767, Note_on_c, 2, 70, 98
15, 145923, Note_on_c, 2, 70, 0
15, 145929, Note_on_c, 2, 72, 89
15, 146378, Note_on_c, 2, 72, 0
15, 146409, Note_on_c, 2, 73, 98
15, 146723, Note_on_c, 2, 73, 0
15, 146726, Note_on_c, 2, 72, 96
15, 147309, Note_on_c, 2, 72, 0
15, 147368, Note_on_c, 2, 68, 88
15, 147684, Note_on_c, 2, 68, 0
15, 147688, Note_on_c, 2, 61, 101
15, 147843, Note_on_c, 2, 61, 0
15, 147848, Note_on_c, 2, 66, 81
15, 148163, Note_on_c, 2, 66, 0
15, 148167, Note_on_c, 2, 68, 98
15, 148322, Note_on_c, 2, 68, 0
15, 148329, Note_on_c, 2, 66, 85
15, 148621, Note_on_c, 2, 66, 0
15, 148648, Note_on_c, 2, 66, 91
15, 148780, Note_on_c, 2, 66, 0
15, 149125, Note_on_c, 2, 73, 93
15, 149597, Note_on_c, 2, 73, 0
15, 149604, Note_on_c, 2, 70, 92
15, 149759, Note_on_c, 2, 70, 0
15, 149767, Note_on_c, 2, 72, 89
15, 150215, Note_on_c, 2, 72, 0
15, 150249, Note_on_c, 2, 73, 101
15, 150563, Note_on_c, 2, 73, 0
15, 150569, Note_on_c, 2, 72, 96
15, 151152, Note_on_c, 2, 72, 0
15, 151207, Note_on_c, 2, 68, 88
15, 151521, Note_on_c, 2, 68, 0
15, 151529, Note_on_c, 2, 61, 102
15, 151684, Note_on_c, 2, 61, 0
15, 151689, Note_on_c, 2, 66, 80
15, 152003, Note_on_c, 2, 66, 0
15, 152005, Note_on_c, 2, 68, 91
15, 152161, Note_on_c, 2, 68, 0
15, 152166, Note_on_c, 2, 66, 82
15, 152456, Note_on_c, 2, 66, 0
15, 152484, Note_on_c, 2, 66, 99
15, 152617, Note_on_c, 2, 66, 0
15, 152967, Note_on_c, 2, 73, 92
15, 153440, Note_on_c, 2, 73, 0
15, 153444, Note_on_c, 2, 70, 92
15, 153599, Note_on_c, 2, 70, 0
15, 153608, Note_on_c, 2, 72, 79
15, 153923, Note_on_c, 2, 72, 0
15, 153928, Note_on_c, 2, 73, 96
15, 154560, Note_on_c, 2, 73, 0
15, 154569, Note_on_c, 2, 72, 77
15, 154689, Note_on_c, 2, 73, 88
15, 154697, Note_on_c, 2, 72, 0
15, 154806, Note_on_c, 2, 72, 66
15, 154817, Note_on_c, 2, 73, 0
15, 154929, Note_on_c, 2, 68, 77
15, 154934, Note_on_c, 2, 72, 0
15, 155049, Note_on_c, 2, 65, 79
15, 155057, Note_on_c, 2, 68, 0
15, 155363, Note_on_c, 2, 65, 0
15, 155368, Note_on_c, 2, 61, 93
15, 155524, Note_on_c, 2, 61, 0
15, 155527, Note_on_c, 2, 66, 82
15, 155843, Note_on_c, 2, 66, 0
15, 155848, Note_on_c, 2, 68, 91
15, 156432, Note_on_c, 2, 68, 0
15, 156489, Note_on_c, 2, 65, 80
15, 156609, Note_on_c, 2, 66, 93
15, 156619, Note_on_c, 2, 65, 0
15, 156727, Note_on_c, 2, 65, 72
15, 156737, Note_on_c, 2, 66, 0
15, 156848, Note_on_c, 2, 63, 68
15, 156855, Note_on_c, 2, 65, 0
15, 156968, Note_on_c, 2, 58, 77
15, 156977, Note_on_c, 2, 63, 0
15, 157285, Note_on_c, 2, 58, 0
15, 157285, Note_on_c, 2, 61, 81
15, 158187, Note_on_c, 2, 61, 0
15, 158242, Note_on_c, 2, 58, 85
15, 158350, Note_on_c, 2, 58, 0
15, 159126, Note_on_c, 2, 61, 51
15, 159360, Control_c, 2, 11, 127
15, 159528, Control_c, 2, 11, 127
15, 159648, Control_c, 2, 11, 125
15, 159768, Control_c, 2, 11, 124
15, 159864, Control_c, 2, 11, 121
15, 159984, Control_c, 2, 11, 118
15, 160080, Control_c, 2, 11, 115
15, 160176, Control_c, 2, 11, 111
15, 160248, Control_c, 2, 11, 108
15, 160296, Control_c, 2, 11, 105
15, 160368, Control_c, 2, 11, 101
15, 160440, Control_c, 2, 11, 98
15, 160464, Control_c, 2, 11, 95
15, 160536, Control_c, 2, 11, 90
15, 160584, Control_c, 2, 11, 86
15, 160632, Control_c, 2, 11, 82
15, 160680, Control_c, 2, 11, 79
15, 160704, Control_c, 2, 11, 76
15, 160752, Control_c, 2, 11, 70
15, 160776, Control_c, 2, 11, 67
15, 160824, Control_c, 2, 11, 61
15, 160848, Control_c, 2, 11, 57
15, 160896, Control_c, 2, 11, 50
15, 160920, Control_c, 2, 11, 46
15, 160944, Control_c, 2, 11, 41
15, 160957, Note_on_c, 2, 61, 0
15, 160968, Control_c, 2, 11, 35
15, 160992, Control_c, 2, 11, 27
15, 161016, Control_c, 2, 11, 16
15, 161256, Control_c, 2, 11, 127
15, 161762, Note_on_c, 2, 73, 75
15, 161903, Note_on_c, 2, 73, 0
15, 162249, Note_on_c, 2, 73, 62
15, 162527, Note_on_c, 2, 73, 0
15, 162562, Note_on_c, 2, 73, 69
15, 162666, Note_on_c, 2, 73, 0
15, 163045, Note_on_c, 2, 68, 57
15, 163443, Note_on_c, 2, 67, 10
15, 163450, Note_on_c, 2, 68, 0
15, 163489, Note_on_c, 2, 66, 16
15, 163492, Note_on_c, 2, 67, 0
15, 163529, Note_on_c, 2, 65, 18
15, 163539, Note_on_c, 2, 66, 0
15, 163566, Note_on_c, 2, 64, 21
15, 163578, Note_on_c, 2, 65, 0
15, 163609, Note_on_c, 2, 63, 28
15, 163615, Note_on_c, 2, 64, 0
15, 163647, Note_on_c, 2, 62, 39
15, 163659, Note_on_c, 2, 63, 0
15, 163688, Note_on_c, 2, 61, 52
15, 163699, Note_on_c, 2, 62, 0
15, 163978, Note_on_c, 2, 61, 0
15, 164009, Note_on_c, 2, 61, 57
15, 164141, Note_on_c, 2, 61, 0
15, 168960, Control_c, 2, 123, 0
15, 168960, End_track
16, 0, Start_track
16, 0, MIDI_port, 0
16, 0, Title_t, "Alto Sax 2"
16, 0, Program_c, 3, 65
16, 0, Control_c, 3, 7, 100
16, 0, Control_c, 3, 10, 89
16, 0, Control_c, 3, 91, 94
16, 0, Control_c, 3, 93, 5
16, 0, Control_c, 3, 11, 127
16, 0, Control_c, 3, 123, 0
16, 5287, Note_on_c, 3, 70, 98
16, 5590, Note_on_c, 3, 70, 0
16, 5602, Note_on_c, 3, 69, 72
16, 5746, Note_on_c, 3, 69, 0
16, 5769, Note_on_c, 3, 70, 91
16, 5885, Note_on_c, 3, 70, 0
16, 6246, Note_on_c, 3, 58, 64
16, 6549, Note_on_c, 3, 58, 0
16, 6566, Note_on_c, 3, 57, 50
16, 6711, Note_on_c, 3, 57, 0
16, 6729, Note_on_c, 3, 58, 61
16, 6846, Note_on_c, 3, 58, 0
16, 37762, Note_on_c, 3, 59, 71
16, 37902, Note_on_c, 3, 59, 0
16, 38244, Note_on_c, 3, 59, 58
16, 38378, Note_on_c, 3, 59, 0
16, 38407, Note_on_c, 3, 61, 71
16, 38535, Note_on_c, 3, 61, 0
16, 46406, Note_on_c, 3, 59, 72
16, 46551, Note_on_c, 3, 59, 0
16, 46569, Note_on_c, 3, 59, 66
16, 46871, Note_on_c, 3, 59, 0
16, 46888, Note_on_c, 3, 59, 85
16, 47009, Note_on_c, 3, 59, 0
16, 48456, Control_c, 3, 11, 127
16, 48485, Note_on_c, 3, 58, 73
16, 48600, Control_c, 3, 11, 127
16, 48720, Control_c, 3, 11, 125
16, 48840, Control_c, 3, 11, 123
16, 48912, Control_c, 3, 11, 120
16, 49032, Control_c, 3, 11, 116
16, 49104, Control_c, 3, 11, 113
16, 49152, Control_c, 3, 11, 110
16, 49224, Control_c, 3, 11, 106
16, 49296, Control_c, 3, 11, 103
16, 49320, Control_c, 3, 11, 100
16, 49392, Control_c, 3, 11, 95
16, 49440, Control_c, 3, 11, 91
16, 49488, Control_c, 3, 11, 86
16, 49536, Control_c, 3, 11, 81
16, 49584, Control_c, 3, 11, 76
16, 49632, Control_c, 3, 11, 70
16, 49656, Control_c, 3, 11, 66
16, 49680, Control_c, 3, 11, 62
16, 49704, Control_c, 3, 11, 59
16, 49728, Control_c, 3, 11, 55
16, 49749, Note_on_c, 3, 58, 0
16, 49752, Control_c, 3, 11, 50
16, 49776, Control_c, 3, 11, 44
16, 49800, Control_c, 3, 11, 37
16, 49824, Control_c, 3, 11, 30
16, 49848, Control_c, 3, 11, 17
16, 49896, Control_c, 3, 11, 127
16, 52325, Note_on_c, 3, 63, 66
16, 52642, Note_on_c, 3, 63, 0
16, 52649, Note_on_c, 3, 65, 84
16, 52800, Control_c, 3, 11, 127
16, 52944, Control_c, 3, 11, 125
16, 53040, Control_c, 3, 11, 121
16, 53112, Control_c, 3, 11, 118
16, 53160, Control_c, 3, 11, 115
16, 53208, Control_c, 3, 11, 110
16, 53256, Control_c, 3, 11, 106
16, 53304, Control_c, 3, 11, 101
16, 53328, Control_c, 3, 11, 98
16, 53352, Control_c, 3, 11, 95
16, 53376, Control_c, 3, 11, 91
16, 53400, Control_c, 3, 11, 88
16, 53424, Control_c, 3, 11, 84
16, 53448, Control_c, 3, 11, 79
16, 53472, Control_c, 3, 11, 75
16, 53496, Control_c, 3, 11, 69
16, 53504, Note_on_c, 3, 65, 0
16, 53520, Control_c, 3, 11, 64
16, 53544, Control_c, 3, 11, 56
16, 53568, Control_c, 3, 11, 47
16, 53592, Control_c, 3, 11, 37
16, 53616, Control_c, 3, 11, 22
16, 53736, Control_c, 3, 11, 127
16, 54086, Note_on_c, 3, 61, 91
16, 54218, Note_on_c, 3, 61, 0
16, 54727, Note_on_c, 3, 60, 66
16, 54844, Note_on_c, 3, 60, 0
16, 55207, Note_on_c, 3, 61, 57
16, 55324, Note_on_c, 3, 61, 0
16, 55688, Note_on_c, 3, 60, 57
16, 55804, Note_on_c, 3, 60, 0
16, 56168, Note_on_c, 3, 61, 54
16, 56446, Note_on_c, 3, 61, 0
16, 56480, Pitch_bend_c, 3, 8110
16, 56489, Note_on_c, 3, 62, 64
16, 56490, Pitch_bend_c, 3, 6650
16, 56500, Pitch_bend_c, 3, 6326
16, 56520, Pitch_bend_c, 3, 6163
16, 56530, Pitch_bend_c, 3, 6001
16, 56540, Pitch_bend_c, 3, 5839
16, 56550, Pitch_bend_c, 3, 5677
16, 56570, Pitch_bend_c, 3, 5839
16, 56580, Pitch_bend_c, 3, 6001
16, 56590, Pitch_bend_c, 3, 6163
16, 56600, Pitch_bend_c, 3, 6488
16, 56610, Pitch_bend_c, 3, 6650
16, 56620, Pitch_bend_c, 3, 6974
16, 56630, Pitch_bend_c, 3, 8192
16, 57074, Note_on_c, 3, 62, 0
16, 57127, Note_on_c, 3, 61, 64
16, 57233, Note_on_c, 3, 61, 0
16, 57928, Note_on_c, 3, 61, 85
16, 58062, Note_on_c, 3, 61, 0
16, 58563, Note_on_c, 3, 60, 65
16, 58681, Note_on_c, 3, 60, 0
16, 59044, Note_on_c, 3, 61, 59
16, 59160, Note_on_c, 3, 61, 0
16, 59527, Note_on_c, 3, 60, 61
16, 59643, Note_on_c, 3, 60, 0
16, 60006, Note_on_c, 3, 61, 54
16, 60284, Note_on_c, 3, 61, 0
16, 60320, Pitch_bend_c, 3, 8110
16, 60329, Note_on_c, 3, 62, 70
16, 60330, Pitch_bend_c, 3, 6650
16, 60340, Pitch_bend_c, 3, 6326
16, 60360, Pitch_bend_c, 3, 6163
16, 60370, Pitch_bend_c, 3, 6001
16, 60380, Pitch_bend_c, 3, 5839
16, 60390, Pitch_bend_c, 3, 5677
16, 60410, Pitch_bend_c, 3, 5839
16, 60420, Pitch_bend_c, 3, 6001
16, 60430, Pitch_bend_c, 3, 6163
16, 60440, Pitch_bend_c, 3, 6488
16, 60450, Pitch_bend_c, 3, 6650
16, 60460, Pitch_bend_c, 3, 6974
16, 60470, Pitch_bend_c, 3, 8192
16, 60912, Note_on_c, 3, 62, 0
16, 60968, Note_on_c, 3, 61, 58
16, 61073, Note_on_c, 3, 61, 0
16, 61769, Note_on_c, 3, 66, 72
16, 62306, Note_on_c, 3, 66, 0
16, 62407, Note_on_c, 3, 65, 57
16, 62524, Note_on_c, 3, 65, 0
16, 62889, Note_on_c, 3, 66, 58
16, 63007, Note_on_c, 3, 66, 0
16, 63363, Note_on_c, 3, 69, 53
16, 63677, Note_on_c, 3, 69, 0
16, 63688, Note_on_c, 3, 69, 71
16, 64746, Note_on_c, 3, 69, 0
16, 84804, Note_on_c, 3, 61, 62
16, 85411, Note_on_c, 3, 61, 0
16, 85449, Note_on_c, 3, 60, 48
16, 85751, Note_on_c, 3, 60, 0
16, 85769, Note_on_c, 3, 61, 51
16, 85880, Note_on_c, 3, 61, 0
16, 88168, Note_on_c, 3, 63, 67
16, 88288, Note_on_c, 3, 63, 0
16, 88649, Note_on_c, 3, 64, 61
16, 89244, Note_on_c, 3, 64, 0
16, 89289, Note_on_c, 3, 63, 51
16, 89582, Note_on_c, 3, 63, 0
16, 89607, Note_on_c, 3, 59, 66
16, 89715, Note_on_c, 3, 59, 0
16, 91526, Note_on_c, 3, 62, 53
16, 91681, Note_on_c, 3, 62, 0
16, 91688, Note_on_c, 3, 63, 52
16, 92002, Note_on_c, 3, 63, 0
16, 92005, Note_on_c, 3, 68, 54
16, 93111, Note_on_c, 3, 68, 0
16, 93127, Note_on_c, 3, 65, 58
16, 94027, Note_on_c, 3, 65, 0
16, 94087, Note_on_c, 3, 65, 46
16, 94390, Note_on_c, 3, 65, 0
16, 94403, Note_on_c, 3, 63, 67
16, 94511, Note_on_c, 3, 63, 0
16, 96006, Note_on_c, 3, 60, 56
16, 96309, Note_on_c, 3, 60, 0
16, 96328, Note_on_c, 3, 60, 58
16, 96462, Note_on_c, 3, 60, 0
16, 96489, Note_on_c, 3, 61, 50
16, 96780, Note_on_c, 3, 61, 0
16, 96809, Note_on_c, 3, 60, 73
16, 96917, Note_on_c, 3, 60, 0
16, 100169, Note_on_c, 3, 61, 67
16, 100776, Note_on_c, 3, 61, 0
16, 100807, Note_on_c, 3, 60, 54
16, 101110, Note_on_c, 3, 60, 0
16, 101129, Note_on_c, 3, 61, 59
16, 101239, Note_on_c, 3, 61, 0
16, 103526, Note_on_c, 3, 63, 67
16, 103646, Note_on_c, 3, 63, 0
16, 104007, Note_on_c, 3, 64, 58
16, 104602, Note_on_c, 3, 64, 0
16, 104648, Note_on_c, 3, 63, 58
16, 104938, Note_on_c, 3, 63, 0
16, 104967, Note_on_c, 3, 59, 72
16, 105075, Note_on_c, 3, 59, 0
16, 106886, Note_on_c, 3, 62, 53
16, 107041, Note_on_c, 3, 63, 53
16, 107042, Note_on_c, 3, 62, 0
16, 107355, Note_on_c, 3, 63, 0
16, 107362, Note_on_c, 3, 68, 55
16, 108470, Note_on_c, 3, 68, 0
16, 108489, Note_on_c, 3, 65, 58
16, 109389, Note_on_c, 3, 65, 0
16, 109442, Note_on_c, 3, 65, 50
16, 109745, Note_on_c, 3, 65, 0
16, 109768, Note_on_c, 3, 63, 70
16, 109876, Note_on_c, 3, 63, 0
16, 111367, Note_on_c, 3, 60, 53
16, 111669, Note_on_c, 3, 60, 0
16, 111687, Note_on_c, 3, 60, 65
16, 111820, Note_on_c, 3, 60, 0
16, 111848, Note_on_c, 3, 61, 55
16, 112140, Note_on_c, 3, 61, 0
16, 112164, Note_on_c, 3, 60, 65
16, 112272, Note_on_c, 3, 60, 0
16, 113129, Note_on_c, 3, 63, 58
16, 113577, Note_on_c, 3, 63, 0
16, 113608, Note_on_c, 3, 63, 65
16, 113764, Note_on_c, 3, 63, 0
16, 113769, Note_on_c, 3, 64, 59
16, 114070, Control_c, 3, 11, 104
16, 114085, Note_on_c, 3, 64, 0
16, 114089, Note_on_c, 3, 63, 76
16, 114330, Control_c, 3, 11, 105
16, 114520, Control_c, 3, 11, 106
16, 114640, Control_c, 3, 11, 108
16, 114740, Control_c, 3, 11, 109
16, 114840, Control_c, 3, 11, 110
16, 114930, Control_c, 3, 11, 113
16, 115030, Control_c, 3, 11, 115
16, 115090, Control_c, 3, 11, 118
16, 115101, Note_on_c, 3, 63, 0
16, 115150, Control_c, 3, 11, 121
16, 115180, Control_c, 3, 11, 124
16, 115190, Control_c, 3, 11, 127
16, 115200, Control_c, 3, 11, 127
16, 115208, Note_on_c, 3, 61, 73
16, 115325, Note_on_c, 3, 61, 0
16, 123207, Note_on_c, 3, 59, 71
16, 123352, Note_on_c, 3, 59, 0
16, 123369, Note_on_c, 3, 59, 67
16, 123673, Note_on_c, 3, 59, 0
16, 123689, Note_on_c, 3, 59, 76
16, 123809, Note_on_c, 3, 59, 0
16, 125256, Control_c, 3, 11, 127
16, 125288, Note_on_c, 3, 58, 74
16, 125400, Control_c, 3, 11, 127
16, 125520, Control_c, 3, 11, 125
16, 125640, Control_c, 3, 11, 123
16, 125712, Control_c, 3, 11, 120
16, 125832, Control_c, 3, 11, 116
16, 125904, Control_c, 3, 11, 113
16, 125952, Control_c, 3, 11, 110
16, 126024, Control_c, 3, 11, 106
16, 126096, Control_c, 3, 11, 103
16, 126120, Control_c, 3, 11, 100
16, 126192, Control_c, 3, 11, 95
16, 126240, Control_c, 3, 11, 91
16, 126288, Control_c, 3, 11, 86
16, 126336, Control_c, 3, 11, 81
16, 126384, Control_c, 3, 11, 76
16, 126432, Control_c, 3, 11, 70
16, 126456, Control_c, 3, 11, 66
16, 126480, Control_c, 3, 11, 62
16, 126504, Control_c, 3, 11, 59
16, 126528, Control_c, 3, 11, 55
16, 126552, Note_on_c, 3, 58, 0
16, 126552, Control_c, 3, 11, 50
16, 126576, Control_c, 3, 11, 44
16, 126600, Control_c, 3, 11, 37
16, 126624, Control_c, 3, 11, 30
16, 126648, Control_c, 3, 11, 17
16, 126696, Control_c, 3, 11, 127
16, 129126, Note_on_c, 3, 63, 62
16, 129442, Note_on_c, 3, 63, 0
16, 129445, Note_on_c, 3, 65, 79
16, 129600, Control_c, 3, 11, 127
16, 129744, Control_c, 3, 11, 125
16, 129840, Control_c, 3, 11, 121
16, 129912, Control_c, 3, 11, 118
16, 129960, Control_c, 3, 11, 115
16, 130008, Control_c, 3, 11, 110
16, 130056, Control_c, 3, 11, 106
16, 130104, Control_c, 3, 11, 101
16, 130128, Control_c, 3, 11, 98
16, 130152, Control_c, 3, 11, 95
16, 130176, Control_c, 3, 11, 91
16, 130200, Control_c, 3, 11, 88
16, 130224, Control_c, 3, 11, 84
16, 130248, Control_c, 3, 11, 79
16, 130272, Control_c, 3, 11, 75
16, 130296, Control_c, 3, 11, 69
16, 130297, Note_on_c, 3, 65, 0
16, 130320, Control_c, 3, 11, 64
16, 130344, Control_c, 3, 11, 56
16, 130368, Control_c, 3, 11, 47
16, 130392, Control_c, 3, 11, 37
16, 130416, Control_c, 3, 11, 22
16, 130536, Control_c, 3, 11, 127
16, 130884, Note_on_c, 3, 61, 84
16, 131016, Note_on_c, 3, 61, 0
16, 131528, Note_on_c, 3, 60, 64
16, 131646, Note_on_c, 3, 60, 0
16, 132002, Note_on_c, 3, 61, 63
16, 132119, Note_on_c, 3, 61, 0
16, 132484, Note_on_c, 3, 60, 57
16, 132600, Note_on_c, 3, 60, 0
16, 132966, Note_on_c, 3, 61, 60
16, 133244, Note_on_c, 3, 61, 0
16, 133280, Pitch_bend_c, 3, 8110
16, 133289, Note_on_c, 3, 62, 65
16, 133290, Pitch_bend_c, 3, 6650
16, 133300, Pitch_bend_c, 3, 6326
16, 133320, Pitch_bend_c, 3, 6163
16, 133330, Pitch_bend_c, 3, 6001
16, 133340, Pitch_bend_c, 3, 5839
16, 133350, Pitch_bend_c, 3, 5677
16, 133370, Pitch_bend_c, 3, 5839
16, 133380, Pitch_bend_c, 3, 6001
16, 133390, Pitch_bend_c, 3, 6163
16, 133400, Pitch_bend_c, 3, 6488
16, 133410, Pitch_bend_c, 3, 6650
16, 133420, Pitch_bend_c, 3, 6974
16, 133430, Pitch_bend_c, 3, 8192
16, 133872, Note_on_c, 3, 62, 0
16, 133925, Note_on_c, 3, 61, 60
16, 134032, Note_on_c, 3, 61, 0
16, 134727, Note_on_c, 3, 61, 92
16, 134860, Note_on_c, 3, 61, 0
16, 135367, Note_on_c, 3, 60, 63
16, 135483, Note_on_c, 3, 60, 0
16, 135845, Note_on_c, 3, 61, 62
16, 135962, Note_on_c, 3, 61, 0
16, 136326, Note_on_c, 3, 60, 62
16, 136442, Note_on_c, 3, 60, 0
16, 136808, Note_on_c, 3, 61, 59
16, 137086, Note_on_c, 3, 61, 0
16, 137120, Pitch_bend_c, 3, 8110
16, 137126, Note_on_c, 3, 62, 73
16, 137130, Pitch_bend_c, 3, 6650
16, 137140, Pitch_bend_c, 3, 6326
16, 137160, Pitch_bend_c, 3, 6163
16, 137170, Pitch_bend_c, 3, 6001
16, 137180, Pitch_bend_c, 3, 5839
16, 137190, Pitch_bend_c, 3, 5677
16, 137210, Pitch_bend_c, 3, 5839
16, 137220, Pitch_bend_c, 3, 6001
16, 137230, Pitch_bend_c, 3, 6163
16, 137240, Pitch_bend_c, 3, 6488
16, 137250, Pitch_bend_c, 3, 6650
16, 137260, Pitch_bend_c, 3, 6974
16, 137270, Pitch_bend_c, 3, 8192
16, 137711, Note_on_c, 3, 62, 0
16, 137769, Note_on_c, 3, 61, 64
16, 137873, Note_on_c, 3, 61, 0
16, 138569, Note_on_c, 3, 66, 65
16, 139105, Note_on_c, 3, 66, 0
16, 139208, Note_on_c, 3, 65, 58
16, 139324, Note_on_c, 3, 65, 0
16, 139688, Note_on_c, 3, 66, 64
16, 139805, Note_on_c, 3, 66, 0
16, 140168, Note_on_c, 3, 69, 54
16, 140479, Note_on_c, 3, 69, 64
16, 140482, Note_on_c, 3, 69, 0
16, 141538, Note_on_c, 3, 69, 0
16, 159128, Note_on_c, 3, 58, 49
16, 159360, Control_c, 3, 11, 127
16, 159528, Control_c, 3, 11, 127
16, 159648, Control_c, 3, 11, 125
16, 159768, Control_c, 3, 11, 124
16, 159864, Control_c, 3, 11, 121
16, 159984, Control_c, 3, 11, 118
16, 160080, Control_c, 3, 11, 115
16, 160176, Control_c, 3, 11, 111
16, 160248, Control_c, 3, 11, 108
16, 160296, Control_c, 3, 11, 105
16, 160368, Control_c, 3, 11, 101
16, 160440, Control_c, 3, 11, 98
16, 160464, Control_c, 3, 11, 95
16, 160536, Control_c, 3, 11, 90
16, 160584, Control_c, 3, 11, 86
16, 160632, Control_c, 3, 11, 82
16, 160680, Control_c, 3, 11, 79
16, 160704, Control_c, 3, 11, 76
16, 160752, Control_c, 3, 11, 70
16, 160776, Control_c, 3, 11, 67
16, 160824, Control_c, 3, 11, 61
16, 160848, Control_c, 3, 11, 57
16, 160896, Control_c, 3, 11, 50
16, 160920, Control_c, 3, 11, 46
16, 160944, Control_c, 3, 11, 41
16, 160955, Note_on_c, 3, 58, 0
16, 160968, Control_c, 3, 11, 35
16, 160992, Control_c, 3, 11, 27
16, 161016, Control_c, 3, 11, 16
16, 161256, Control_c, 3, 11, 127
16, 161768, Note_on_c, 3, 68, 69
16, 161909, Note_on_c, 3, 68, 0
16, 162240, Note_on_c, 3, 68, 54
16, 162518, Note_on_c, 3, 68, 0
16, 162566, Note_on_c, 3, 68, 57
16, 162670, Note_on_c, 3, 68, 0
16, 163046, Note_on_c, 3, 61, 45
16, 163593, Note_on_c, 3, 61, 0
16, 163605, Note_on_c, 3, 62, 32
16, 163643, Note_on_c, 3, 60, 34
16, 163654, Note_on_c, 3, 62, 0
16, 163688, Note_on_c, 3, 59, 40
16, 163692, Note_on_c, 3, 60, 0
16, 163978, Note_on_c, 3, 59, 0
16, 164009, Note_on_c, 3, 58, 46
16, 164141, Note_on_c, 3, 58, 0
16, 168960, Control_c, 3, 123, 0
16, 168960, End_track
17, 0, Start_track
17, 0, MIDI_port, 0
17, 0, Title_t, "Tenor Sax 1"
17, 0, Program_c, 4, 66
17, 0, Control_c, 4, 7, 100
17, 0, Control_c, 4, 10, 57
17, 0, Control_c, 4, 91, 94
17, 0, Control_c, 4, 93, 5
17, 0, Control_c, 4, 11, 127
17, 0, Control_c, 4, 123, 0
17, 5288, Note_on_c, 4, 68, 89
17, 5590, Note_on_c, 4, 68, 0
17, 5607, Note_on_c, 4, 67, 72
17, 5751, Note_on_c, 4, 67, 0
17, 5765, Note_on_c, 4, 68, 91
17, 5881, Note_on_c, 4, 68, 0
17, 6243, Note_on_c, 4, 56, 71
17, 6545, Note_on_c, 4, 56, 0
17, 6568, Note_on_c, 4, 55, 53
17, 6712, Note_on_c, 4, 55, 0
17, 6727, Note_on_c, 4, 56, 58
17, 6844, Note_on_c, 4, 56, 0
17, 8008, Note_on_c, 4, 65, 79
17, 8544, Note_on_c, 4, 65, 0
17, 8647, Note_on_c, 4, 64, 71
17, 8764, Note_on_c, 4, 64, 0
17, 9125, Note_on_c, 4, 65, 71
17, 9242, Note_on_c, 4, 65, 0
17, 9609, Note_on_c, 4, 64, 70
17, 9726, Note_on_c, 4, 64, 0
17, 10086, Note_on_c, 4, 65, 57
17, 10366, Note_on_c, 4, 65, 0
17, 10400, Pitch_bend_c, 4, 8110
17, 10408, Note_on_c, 4, 66, 73
17, 10410, Pitch_bend_c, 4, 6650
17, 10420, Pitch_bend_c, 4, 6326
17, 10440, Pitch_bend_c, 4, 6163
17, 10450, Pitch_bend_c, 4, 6001
17, 10460, Pitch_bend_c, 4, 5839
17, 10470, Pitch_bend_c, 4, 5677
17, 10490, Pitch_bend_c, 4, 5839
17, 10500, Pitch_bend_c, 4, 6001
17, 10510, Pitch_bend_c, 4, 6163
17, 10520, Pitch_bend_c, 4, 6488
17, 10530, Pitch_bend_c, 4, 6650
17, 10540, Pitch_bend_c, 4, 6974
17, 10550, Pitch_bend_c, 4, 8192
17, 10991, Note_on_c, 4, 66, 0
17, 11043, Note_on_c, 4, 65, 69
17, 11149, Note_on_c, 4, 65, 0
17, 11849, Note_on_c, 4, 65, 77
17, 12388, Note_on_c, 4, 65, 0
17, 12485, Note_on_c, 4, 64, 65
17, 12601, Note_on_c, 4, 64, 0
17, 12965, Note_on_c, 4, 65, 66
17, 13081, Note_on_c, 4, 65, 0
17, 13449, Note_on_c, 4, 64, 67
17, 13565, Note_on_c, 4, 64, 0
17, 13929, Note_on_c, 4, 65, 57
17, 14208, Note_on_c, 4, 65, 0
17, 14240, Pitch_bend_c, 4, 8110
17, 14246, Note_on_c, 4, 66, 77
17, 14250, Pitch_bend_c, 4, 6650
17, 14260, Pitch_bend_c, 4, 6326
17, 14280, Pitch_bend_c, 4, 6163
17, 14290, Pitch_bend_c, 4, 6001
17, 14300, Pitch_bend_c, 4, 5839
17, 14310, Pitch_bend_c, 4, 5677
17, 14330, Pitch_bend_c, 4, 5839
17, 14340, Pitch_bend_c, 4, 6001
17, 14350, Pitch_bend_c, 4, 6163
17, 14360, Pitch_bend_c, 4, 6488
17, 14370, Pitch_bend_c, 4, 6650
17, 14380, Pitch_bend_c, 4, 6974
17, 14390, Pitch_bend_c, 4, 8192
17, 14829, Note_on_c, 4, 66, 0
17, 14887, Note_on_c, 4, 65, 71
17, 14992, Note_on_c, 4, 65, 0
17, 15689, Note_on_c, 4, 66, 78
17, 16225, Note_on_c, 4, 66, 0
17, 16329, Note_on_c, 4, 65, 70
17, 16445, Note_on_c, 4, 65, 0
17, 16809, Note_on_c, 4, 66, 61
17, 17126, Note_on_c, 4, 66, 0
17, 17129, Note_on_c, 4, 68, 67
17, 18593, Note_on_c, 4, 68, 0
17, 18722, Note_on_c, 4, 66, 62
17, 19038, Note_on_c, 4, 66, 0
17, 19046, Note_on_c, 4, 63, 66
17, 19200, Control_c, 4, 11, 127
17, 19392, Control_c, 4, 11, 127
17, 19560, Control_c, 4, 11, 125
17, 19680, Control_c, 4, 11, 124
17, 19800, Control_c, 4, 11, 121
17, 19920, Control_c, 4, 11, 119
17, 20016, Control_c, 4, 11, 116
17, 20136, Control_c, 4, 11, 113
17, 20208, Control_c, 4, 11, 110
17, 20328, Control_c, 4, 11, 106
17, 20400, Control_c, 4, 11, 103
17, 20448, Control_c, 4, 11, 100
17, 20544, Control_c, 4, 11, 95
17, 20616, Control_c, 4, 11, 91
17, 20688, Control_c, 4, 11, 86
17, 20760, Control_c, 4, 11, 81
17, 20808, Control_c, 4, 11, 77
17, 20856, Control_c, 4, 11, 74
17, 20880, Control_c, 4, 11, 71
17, 20928, Control_c, 4, 11, 67
17, 20976, Control_c, 4, 11, 62
17, 21000, Control_c, 4, 11, 59
17, 21024, Control_c, 4, 11, 56
17, 21048, Control_c, 4, 11, 52
17, 21096, Control_c, 4, 11, 46
17, 21120, Control_c, 4, 11, 41
17, 21144, Control_c, 4, 11, 37
17, 21168, Control_c, 4, 11, 31
17, 21192, Control_c, 4, 11, 25
17, 21216, Control_c, 4, 11, 15
17, 21301, Note_on_c, 4, 63, 0
17, 23016, Control_c, 4, 11, 127
17, 23369, Note_on_c, 4, 65, 79
17, 23906, Note_on_c, 4, 65, 0
17, 24009, Note_on_c, 4, 64, 73
17, 24126, Note_on_c, 4, 64, 0
17, 24489, Note_on_c, 4, 65, 64
17, 24607, Note_on_c, 4, 65, 0
17, 24969, Note_on_c, 4, 64, 72
17, 25086, Note_on_c, 4, 64, 0
17, 25447, Note_on_c, 4, 65, 61
17, 25726, Note_on_c, 4, 65, 0
17, 25760, Pitch_bend_c, 4, 8110
17, 25765, Note_on_c, 4, 66, 76
17, 25770, Pitch_bend_c, 4, 6650
17, 25780, Pitch_bend_c, 4, 6326
17, 25800, Pitch_bend_c, 4, 6163
17, 25810, Pitch_bend_c, 4, 6001
17, 25820, Pitch_bend_c, 4, 5839
17, 25830, Pitch_bend_c, 4, 5677
17, 25850, Pitch_bend_c, 4, 5839
17, 25860, Pitch_bend_c, 4, 6001
17, 25870, Pitch_bend_c, 4, 6163
17, 25880, Pitch_bend_c, 4, 6488
17, 25890, Pitch_bend_c, 4, 6650
17, 25900, Pitch_bend_c, 4, 6974
17, 25910, Pitch_bend_c, 4, 8192
17, 26349, Note_on_c, 4, 66, 0
17, 26407, Note_on_c, 4, 65, 72
17, 26511, Note_on_c, 4, 65, 0
17, 27202, Note_on_c, 4, 65, 71
17, 27740, Note_on_c, 4, 65, 0
17, 27849, Note_on_c, 4, 64, 66
17, 27966, Note_on_c, 4, 64, 0
17, 28327, Note_on_c, 4, 65, 68
17, 28443, Note_on_c, 4, 65, 0
17, 28807, Note_on_c, 4, 64, 70
17, 28923, Note_on_c, 4, 64, 0
17, 29289, Note_on_c, 4, 65, 63
17, 29567, Note_on_c, 4, 65, 0
17, 29600, Pitch_bend_c, 4, 8110
17, 29609, Note_on_c, 4, 66, 70
17, 29610, Pitch_bend_c, 4, 6650
17, 29620, Pitch_bend_c, 4, 6326
17, 29640, Pitch_bend_c, 4, 6163
17, 29650, Pitch_bend_c, 4, 6001
17, 29660, Pitch_bend_c, 4, 5839
17, 29670, Pitch_bend_c, 4, 5677
17, 29690, Pitch_bend_c, 4, 5839
17, 29700, Pitch_bend_c, 4, 6001
17, 29710, Pitch_bend_c, 4, 6163
17, 29720, Pitch_bend_c, 4, 6488
17, 29730, Pitch_bend_c, 4, 6650
17, 29740, Pitch_bend_c, 4, 6974
17, 29750, Pitch_bend_c, 4, 8192
17, 30192, Note_on_c, 4, 66, 0
17, 30247, Note_on_c, 4, 65, 69
17, 30351, Note_on_c, 4, 65, 0
17, 31049, Note_on_c, 4, 66, 78
17, 31587, Note_on_c, 4, 66, 0
17, 31683, Note_on_c, 4, 65, 68
17, 31799, Note_on_c, 4, 65, 0
17, 32169, Note_on_c, 4, 66, 59
17, 32482, Note_on_c, 4, 68, 71
17, 32486, Note_on_c, 4, 66, 0
17, 33944, Note_on_c, 4, 68, 0
17, 34087, Note_on_c, 4, 66, 58
17, 34401, Note_on_c, 4, 66, 0
17, 34406, Note_on_c, 4, 70, 70
17, 34560, Control_c, 4, 11, 127
17, 34752, Control_c, 4, 11, 127
17, 34920, Control_c, 4, 11, 125
17, 35040, Control_c, 4, 11, 124
17, 35160, Control_c, 4, 11, 121
17, 35280, Control_c, 4, 11, 119
17, 35376, Control_c, 4, 11, 116
17, 35496, Control_c, 4, 11, 113
17, 35568, Control_c, 4, 11, 110
17, 35688, Control_c, 4, 11, 106
17, 35760, Control_c, 4, 11, 103
17, 35808, Control_c, 4, 11, 100
17, 35904, Control_c, 4, 11, 95
17, 35976, Control_c, 4, 11, 91
17, 36048, Control_c, 4, 11, 86
17, 36120, Control_c, 4, 11, 81
17, 36168, Control_c, 4, 11, 77
17, 36216, Control_c, 4, 11, 74
17, 36240, Control_c, 4, 11, 71
17, 36288, Control_c, 4, 11, 67
17, 36336, Control_c, 4, 11, 62
17, 36360, Control_c, 4, 11, 59
17, 36384, Control_c, 4, 11, 56
17, 36408, Control_c, 4, 11, 52
17, 36456, Control_c, 4, 11, 46
17, 36480, Control_c, 4, 11, 41
17, 36504, Control_c, 4, 11, 37
17, 36528, Control_c, 4, 11, 31
17, 36552, Control_c, 4, 11, 25
17, 36576, Control_c, 4, 11, 15
17, 36660, Note_on_c, 4, 70, 0
17, 36960, Control_c, 4, 11, 127
17, 37769, Note_on_c, 4, 57, 79
17, 37910, Note_on_c, 4, 57, 0
17, 38249, Note_on_c, 4, 57, 60
17, 38383, Note_on_c, 4, 57, 0
17, 38409, Note_on_c, 4, 58, 76
17, 38538, Note_on_c, 4, 58, 0
17, 42725, Note_on_c, 4, 61, 98
17, 42866, Note_on_c, 4, 61, 0
17, 43209, Note_on_c, 4, 61, 92
17, 43523, Note_on_c, 4, 61, 0
17, 43525, Note_on_c, 4, 60, 80
17, 43680, Note_on_c, 4, 60, 0
17, 43687, Note_on_c, 4, 58, 76
17, 44002, Note_on_c, 4, 58, 0
17, 44009, Note_on_c, 4, 56, 86
17, 44885, Note_on_c, 4, 56, 0
17, 44969, Note_on_c, 4, 53, 85
17, 45102, Note_on_c, 4, 53, 0
17, 46406, Note_on_c, 4, 56, 72
17, 46550, Note_on_c, 4, 56, 0
17, 46567, Note_on_c, 4, 56, 69
17, 46872, Note_on_c, 4, 56, 0
17, 46888, Note_on_c, 4, 56, 76
17, 47011, Note_on_c, 4, 56, 0
17, 48456, Control_c, 4, 11, 127
17, 48486, Note_on_c, 4, 56, 74
17, 48600, Control_c, 4, 11, 127
17, 48720, Control_c, 4, 11, 125
17, 48840, Control_c, 4, 11, 123
17, 48912, Control_c, 4, 11, 120
17, 49032, Control_c, 4, 11, 116
17, 49104, Control_c, 4, 11, 113
17, 49152, Control_c, 4, 11, 110
17, 49224, Control_c, 4, 11, 106
17, 49296, Control_c, 4, 11, 103
17, 49320, Control_c, 4, 11, 100
17, 49392, Control_c, 4, 11, 95
17, 49440, Control_c, 4, 11, 91
17, 49488, Control_c, 4, 11, 86
17, 49536, Control_c, 4, 11, 81
17, 49584, Control_c, 4, 11, 76
17, 49632, Control_c, 4, 11, 70
17, 49656, Control_c, 4, 11, 66
17, 49680, Control_c, 4, 11, 62
17, 49704, Control_c, 4, 11, 59
17, 49728, Control_c, 4, 11, 55
17, 49750, Note_on_c, 4, 56, 0
17, 49752, Control_c, 4, 11, 50
17, 49776, Control_c, 4, 11, 44
17, 49800, Control_c, 4, 11, 37
17, 49824, Control_c, 4, 11, 30
17, 49848, Control_c, 4, 11, 17
17, 49896, Control_c, 4, 11, 127
17, 51688, Note_on_c, 4, 53, 84
17, 51845, Note_on_c, 4, 53, 0
17, 51847, Note_on_c, 4, 56, 76
17, 52162, Note_on_c, 4, 56, 0
17, 52166, Note_on_c, 4, 53, 81
17, 52323, Note_on_c, 4, 53, 0
17, 52326, Note_on_c, 4, 61, 62
17, 52642, Note_on_c, 4, 61, 0
17, 52646, Note_on_c, 4, 60, 81
17, 52800, Control_c, 4, 11, 127
17, 52944, Control_c, 4, 11, 125
17, 53040, Control_c, 4, 11, 121
17, 53112, Control_c, 4, 11, 118
17, 53160, Control_c, 4, 11, 115
17, 53208, Control_c, 4, 11, 110
17, 53256, Control_c, 4, 11, 106
17, 53304, Control_c, 4, 11, 101
17, 53328, Control_c, 4, 11, 98
17, 53352, Control_c, 4, 11, 95
17, 53376, Control_c, 4, 11, 91
17, 53400, Control_c, 4, 11, 88
17, 53424, Control_c, 4, 11, 84
17, 53448, Control_c, 4, 11, 79
17, 53472, Control_c, 4, 11, 75
17, 53496, Control_c, 4, 11, 69
17, 53498, Note_on_c, 4, 60, 0
17, 53520, Control_c, 4, 11, 64
17, 53544, Control_c, 4, 11, 56
17, 53568, Control_c, 4, 11, 47
17, 53592, Control_c, 4, 11, 37
17, 53616, Control_c, 4, 11, 22
17, 53736, Control_c, 4, 11, 127
17, 54082, Note_on_c, 4, 58, 84
17, 54214, Note_on_c, 4, 58, 0
17, 54726, Note_on_c, 4, 58, 57
17, 54843, Note_on_c, 4, 58, 0
17, 55209, Note_on_c, 4, 59, 61
17, 55325, Note_on_c, 4, 59, 0
17, 55688, Note_on_c, 4, 58, 58
17, 55804, Note_on_c, 4, 58, 0
17, 56166, Note_on_c, 4, 58, 56
17, 56444, Note_on_c, 4, 58, 0
17, 56480, Pitch_bend_c, 4, 8110
17, 56483, Note_on_c, 4, 59, 65
17, 56490, Pitch_bend_c, 4, 6650
17, 56500, Pitch_bend_c, 4, 6326
17, 56520, Pitch_bend_c, 4, 6163
17, 56530, Pitch_bend_c, 4, 6001
17, 56540, Pitch_bend_c, 4, 5839
17, 56550, Pitch_bend_c, 4, 5677
17, 56570, Pitch_bend_c, 4, 5839
17, 56580, Pitch_bend_c, 4, 6001
17, 56590, Pitch_bend_c, 4, 6163
17, 56600, Pitch_bend_c, 4, 6488
17, 56610, Pitch_bend_c, 4, 6650
17, 56620, Pitch_bend_c, 4, 6974
17, 56630, Pitch_bend_c, 4, 8192
17, 57066, Note_on_c, 4, 59, 0
17, 57126, Note_on_c, 4, 58, 57
17, 57230, Note_on_c, 4, 58, 0
17, 57929, Note_on_c, 4, 59, 89
17, 58061, Note_on_c, 4, 59, 0
17, 58569, Note_on_c, 4, 58, 65
17, 58685, Note_on_c, 4, 58, 0
17, 59048, Note_on_c, 4, 59, 60
17, 59165, Note_on_c, 4, 59, 0
17, 59527, Note_on_c, 4, 58, 60
17, 59644, Note_on_c, 4, 58, 0
17, 60002, Note_on_c, 4, 59, 59
17, 60281, Note_on_c, 4, 59, 0
17, 60320, Pitch_bend_c, 4, 8110
17, 60329, Note_on_c, 4, 59, 69
17, 60330, Pitch_bend_c, 4, 6650
17, 60340, Pitch_bend_c, 4, 6326
17, 60360, Pitch_bend_c, 4, 6163
17, 60370, Pitch_bend_c, 4, 6001
17, 60380, Pitch_bend_c, 4, 5839
17, 60390, Pitch_bend_c, 4, 5677
17, 60410, Pitch_bend_c, 4, 5839
17, 60420, Pitch_bend_c, 4, 6001
17, 60430, Pitch_bend_c, 4, 6163
17, 60440, Pitch_bend_c, 4, 6488
17, 60450, Pitch_bend_c, 4, 6650
17, 60460, Pitch_bend_c, 4, 6974
17, 60470, Pitch_bend_c, 4, 8192
17, 60913, Note_on_c, 4, 59, 0
17, 60965, Note_on_c, 4, 59, 62
17, 61069, Note_on_c, 4, 59, 0
17, 61769, Note_on_c, 4, 63, 68
17, 62305, Note_on_c, 4, 63, 0
17, 62405, Note_on_c, 4, 63, 59
17, 62524, Note_on_c, 4, 63, 0
17, 62889, Note_on_c, 4, 63, 59
17, 63006, Note_on_c, 4, 63, 0
17, 63362, Note_on_c, 4, 67, 54
17, 63676, Note_on_c, 4, 67, 0
17, 63689, Note_on_c, 4, 67, 66
17, 64748, Note_on_c, 4, 67, 0
17, 64807, Note_on_c, 4, 53, 66
17, 65125, Note_on_c, 4, 61, 82
17, 65145, Note_on_c, 4, 53, 0
17, 67062, Note_on_c, 4, 61, 0
17, 67687, Note_on_c, 4, 73, 108
17, 68002, Note_on_c, 4, 73, 0
17, 68002, Note_on_c, 4, 70, 108
17, 68160, Note_on_c, 4, 70, 0
17, 68169, Note_on_c, 4, 72, 100
17, 68483, Note_on_c, 4, 72, 0
17, 68489, Note_on_c, 4, 73, 114
17, 68645, Note_on_c, 4, 73, 0
17, 68648, Note_on_c, 4, 72, 90
17, 68962, Note_on_c, 4, 72, 0
17, 68966, Note_on_c, 4, 70, 111
17, 69121, Note_on_c, 4, 70, 0
17, 69129, Note_on_c, 4, 72, 97
17, 69579, Note_on_c, 4, 72, 0
17, 69608, Note_on_c, 4, 73, 110
17, 69922, Note_on_c, 4, 73, 0
17, 69925, Note_on_c, 4, 72, 99
17, 70509, Note_on_c, 4, 72, 0
17, 70564, Note_on_c, 4, 68, 96
17, 70878, Note_on_c, 4, 68, 0
17, 70887, Note_on_c, 4, 61, 105
17, 71042, Note_on_c, 4, 61, 0
17, 71049, Note_on_c, 4, 66, 83
17, 71364, Note_on_c, 4, 66, 0
17, 71369, Note_on_c, 4, 68, 97
17, 71524, Note_on_c, 4, 68, 0
17, 71527, Note_on_c, 4, 66, 84
17, 71817, Note_on_c, 4, 66, 0
17, 71846, Note_on_c, 4, 66, 95
17, 71978, Note_on_c, 4, 66, 0
17, 72326, Note_on_c, 4, 73, 93
17, 72798, Note_on_c, 4, 73, 0
17, 72802, Note_on_c, 4, 70, 101
17, 72958, Note_on_c, 4, 70, 0
17, 72967, Note_on_c, 4, 72, 91
17, 73415, Note_on_c, 4, 72, 0
17, 73444, Note_on_c, 4, 73, 107
17, 73760, Note_on_c, 4, 73, 0
17, 73764, Note_on_c, 4, 72, 104
17, 74351, Note_on_c, 4, 72, 0
17, 74409, Note_on_c, 4, 68, 95
17, 74723, Note_on_c, 4, 68, 0
17, 74726, Note_on_c, 4, 61, 101
17, 74882, Note_on_c, 4, 61, 0
17, 74889, Note_on_c, 4, 66, 86
17, 75202, Note_on_c, 4, 68, 96
17, 75207, Note_on_c, 4, 66, 0
17, 75357, Note_on_c, 4, 68, 0
17, 75369, Note_on_c, 4, 66, 87
17, 75659, Note_on_c, 4, 66, 0
17, 75686, Note_on_c, 4, 66, 99
17, 75821, Note_on_c, 4, 66, 0
17, 76169, Note_on_c, 4, 73, 88
17, 76643, Note_on_c, 4, 73, 0
17, 76645, Note_on_c, 4, 70, 100
17, 76801, Note_on_c, 4, 70, 0
17, 76809, Note_on_c, 4, 72, 80
17, 77126, Note_on_c, 4, 72, 0
17, 77127, Note_on_c, 4, 73, 102
17, 77761, Note_on_c, 4, 73, 0
17, 77767, Note_on_c, 4, 72, 86
17, 77889, Note_on_c, 4, 73, 86
17, 77895, Note_on_c, 4, 72, 0
17, 78006, Note_on_c, 4, 72, 75
17, 78018, Note_on_c, 4, 73, 0
17, 78125, Note_on_c, 4, 68, 78
17, 78135, Note_on_c, 4, 72, 0
17, 78248, Note_on_c, 4, 65, 80
17, 78254, Note_on_c, 4, 68, 0
17, 78562, Note_on_c, 4, 65, 0
17, 78564, Note_on_c, 4, 61, 94
17, 78719, Note_on_c, 4, 61, 0
17, 78728, Note_on_c, 4, 66, 83
17, 79042, Note_on_c, 4, 68, 92
17, 79043, Note_on_c, 4, 66, 0
17, 79625, Note_on_c, 4, 68, 0
17, 79689, Note_on_c, 4, 65, 86
17, 79807, Note_on_c, 4, 66, 91
17, 79818, Note_on_c, 4, 65, 0
17, 79929, Note_on_c, 4, 65, 66
17, 79935, Note_on_c, 4, 66, 0
17, 80049, Note_on_c, 4, 63, 72
17, 80059, Note_on_c, 4, 65, 0
17, 80166, Note_on_c, 4, 58, 79
17, 80178, Note_on_c, 4, 63, 0
17, 80481, Note_on_c, 4, 58, 0
17, 80485, Note_on_c, 4, 61, 87
17, 81385, Note_on_c, 4, 61, 0
17, 81447, Note_on_c, 4, 58, 90
17, 81555, Note_on_c, 4, 58, 0
17, 84807, Note_on_c, 4, 58, 63
17, 85414, Note_on_c, 4, 58, 0
17, 85444, Note_on_c, 4, 58, 53
17, 85746, Note_on_c, 4, 58, 0
17, 85769, Note_on_c, 4, 58, 51
17, 85878, Note_on_c, 4, 58, 0
17, 88168, Note_on_c, 4, 59, 67
17, 88290, Note_on_c, 4, 59, 0
17, 88648, Note_on_c, 4, 60, 61
17, 89243, Note_on_c, 4, 60, 0
17, 89289, Note_on_c, 4, 59, 56
17, 89579, Note_on_c, 4, 59, 0
17, 89608, Note_on_c, 4, 56, 67
17, 89716, Note_on_c, 4, 56, 0
17, 91526, Note_on_c, 4, 58, 54
17, 91682, Note_on_c, 4, 58, 0
17, 91687, Note_on_c, 4, 59, 54
17, 92002, Note_on_c, 4, 59, 0
17, 92007, Note_on_c, 4, 63, 53
17, 93113, Note_on_c, 4, 63, 0
17, 93122, Note_on_c, 4, 62, 59
17, 94023, Note_on_c, 4, 62, 0
17, 94083, Note_on_c, 4, 61, 54
17, 94386, Note_on_c, 4, 61, 0
17, 94409, Note_on_c, 4, 61, 66
17, 94517, Note_on_c, 4, 61, 0
17, 96005, Note_on_c, 4, 58, 57
17, 96309, Note_on_c, 4, 58, 0
17, 96325, Note_on_c, 4, 58, 58
17, 96460, Note_on_c, 4, 58, 0
17, 96486, Note_on_c, 4, 59, 54
17, 96776, Note_on_c, 4, 59, 0
17, 96806, Note_on_c, 4, 58, 69
17, 96916, Note_on_c, 4, 58, 0
17, 100168, Note_on_c, 4, 58, 67
17, 100776, Note_on_c, 4, 58, 0
17, 100803, Note_on_c, 4, 58, 54
17, 101107, Note_on_c, 4, 58, 0
17, 101129, Note_on_c, 4, 58, 52
17, 101240, Note_on_c, 4, 58, 0
17, 103526, Note_on_c, 4, 59, 64
17, 103650, Note_on_c, 4, 59, 0
17, 104008, Note_on_c, 4, 60, 66
17, 104603, Note_on_c, 4, 60, 0
17, 104645, Note_on_c, 4, 59, 58
17, 104935, Note_on_c, 4, 59, 0
17, 104963, Note_on_c, 4, 56, 70
17, 105071, Note_on_c, 4, 56, 0
17, 106883, Note_on_c, 4, 58, 50
17, 107039, Note_on_c, 4, 58, 0
17, 107049, Note_on_c, 4, 59, 47
17, 107366, Note_on_c, 4, 59, 0
17, 107368, Note_on_c, 4, 63, 55
17, 108476, Note_on_c, 4, 63, 0
17, 108488, Note_on_c, 4, 62, 59
17, 109388, Note_on_c, 4, 62, 0
17, 109446, Note_on_c, 4, 61, 53
17, 109748, Note_on_c, 4, 61, 0
17, 109768, Note_on_c, 4, 61, 64
17, 109878, Note_on_c, 4, 61, 0
17, 111367, Note_on_c, 4, 58, 51
17, 111669, Note_on_c, 4, 58, 0
17, 111688, Note_on_c, 4, 58, 57
17, 111820, Note_on_c, 4, 58, 0
17, 111847, Note_on_c, 4, 59, 57
17, 112138, Note_on_c, 4, 59, 0
17, 112167, Note_on_c, 4, 58, 70
17, 112276, Note_on_c, 4, 58, 0
17, 113126, Note_on_c, 4, 59, 58
17, 113575, Note_on_c, 4, 59, 0
17, 113606, Note_on_c, 4, 59, 61
17, 113761, Note_on_c, 4, 59, 0
17, 113764, Note_on_c, 4, 60, 52
17, 114070, Control_c, 4, 11, 104
17, 114079, Note_on_c, 4, 60, 0
17, 114086, Note_on_c, 4, 59, 70
17, 114330, Control_c, 4, 11, 105
17, 114520, Control_c, 4, 11, 106
17, 114640, Control_c, 4, 11, 108
17, 114740, Control_c, 4, 11, 109
17, 114840, Control_c, 4, 11, 110
17, 114930, Control_c, 4, 11, 113
17, 115030, Control_c, 4, 11, 115
17, 115090, Control_c, 4, 11, 118
17, 115100, Note_on_c, 4, 59, 0
17, 115150, Control_c, 4, 11, 121
17, 115180, Control_c, 4, 11, 124
17, 115190, Control_c, 4, 11, 127
17, 115200, Control_c, 4, 11, 127
17, 115208, Note_on_c, 4, 58, 75
17, 115325, Note_on_c, 4, 58, 0
17, 119528, Note_on_c, 4, 61, 92
17, 119669, Note_on_c, 4, 61, 0
17, 120003, Note_on_c, 4, 61, 86
17, 120317, Note_on_c, 4, 61, 0
17, 120324, Note_on_c, 4, 60, 84
17, 120479, Note_on_c, 4, 60, 0
17, 120488, Note_on_c, 4, 58, 72
17, 120803, Note_on_c, 4, 58, 0
17, 120809, Note_on_c, 4, 56, 85
17, 121688, Note_on_c, 4, 56, 0
17, 121769, Note_on_c, 4, 53, 89
17, 121902, Note_on_c, 4, 53, 0
17, 123206, Note_on_c, 4, 56, 70
17, 123350, Note_on_c, 4, 56, 0
17, 123367, Note_on_c, 4, 56, 64
17, 123669, Note_on_c, 4, 56, 0
17, 123688, Note_on_c, 4, 56, 80
17, 123809, Note_on_c, 4, 56, 0
17, 125256, Control_c, 4, 11, 127
17, 125286, Note_on_c, 4, 56, 77
17, 125400, Control_c, 4, 11, 127
17, 125520, Control_c, 4, 11, 125
17, 125640, Control_c, 4, 11, 123
17, 125712, Control_c, 4, 11, 120
17, 125832, Control_c, 4, 11, 116
17, 125904, Control_c, 4, 11, 113
17, 125952, Control_c, 4, 11, 110
17, 126024, Control_c, 4, 11, 106
17, 126096, Control_c, 4, 11, 103
17, 126120, Control_c, 4, 11, 100
17, 126192, Control_c, 4, 11, 95
17, 126240, Control_c, 4, 11, 91
17, 126288, Control_c, 4, 11, 86
17, 126336, Control_c, 4, 11, 81
17, 126384, Control_c, 4, 11, 76
17, 126432, Control_c, 4, 11, 70
17, 126456, Control_c, 4, 11, 66
17, 126480, Control_c, 4, 11, 62
17, 126504, Control_c, 4, 11, 59
17, 126528, Control_c, 4, 11, 55
17, 126552, Note_on_c, 4, 56, 0
17, 126552, Control_c, 4, 11, 50
17, 126576, Control_c, 4, 11, 44
17, 126600, Control_c, 4, 11, 37
17, 126624, Control_c, 4, 11, 30
17, 126648, Control_c, 4, 11, 17
17, 126696, Control_c, 4, 11, 127
17, 128485, Note_on_c, 4, 53, 85
17, 128641, Note_on_c, 4, 53, 0
17, 128645, Note_on_c, 4, 56, 78
17, 128959, Note_on_c, 4, 56, 0
17, 128964, Note_on_c, 4, 53, 84
17, 129119, Note_on_c, 4, 53, 0
17, 129123, Note_on_c, 4, 61, 62
17, 129437, Note_on_c, 4, 61, 0
17, 129448, Note_on_c, 4, 60, 79
17, 129600, Control_c, 4, 11, 127
17, 129744, Control_c, 4, 11, 125
17, 129840, Control_c, 4, 11, 121
17, 129912, Control_c, 4, 11, 118
17, 129960, Control_c, 4, 11, 115
17, 130008, Control_c, 4, 11, 110
17, 130056, Control_c, 4, 11, 106
17, 130104, Control_c, 4, 11, 101
17, 130128, Control_c, 4, 11, 98
17, 130152, Control_c, 4, 11, 95
17, 130176, Control_c, 4, 11, 91
17, 130200, Control_c, 4, 11, 88
17, 130224, Control_c, 4, 11, 84
17, 130248, Control_c, 4, 11, 79
17, 130272, Control_c, 4, 11, 75
17, 130296, Control_c, 4, 11, 69
17, 130301, Note_on_c, 4, 60, 0
17, 130320, Control_c, 4, 11, 64
17, 130344, Control_c, 4, 11, 56
17, 130368, Control_c, 4, 11, 47
17, 130392, Control_c, 4, 11, 37
17, 130416, Control_c, 4, 11, 22
17, 130536, Control_c, 4, 11, 127
17, 130881, Note_on_c, 4, 58, 87
17, 131013, Note_on_c, 4, 58, 0
17, 131526, Note_on_c, 4, 58, 64
17, 131642, Note_on_c, 4, 58, 0
17, 131997, Note_on_c, 4, 59, 65
17, 132113, Note_on_c, 4, 59, 0
17, 132487, Note_on_c, 4, 58, 59
17, 132603, Note_on_c, 4, 58, 0
17, 132965, Note_on_c, 4, 58, 58
17, 133244, Note_on_c, 4, 58, 0
17, 133280, Pitch_bend_c, 4, 8110
17, 133284, Note_on_c, 4, 59, 66
17, 133290, Pitch_bend_c, 4, 6650
17, 133300, Pitch_bend_c, 4, 6326
17, 133320, Pitch_bend_c, 4, 6163
17, 133330, Pitch_bend_c, 4, 6001
17, 133340, Pitch_bend_c, 4, 5839
17, 133350, Pitch_bend_c, 4, 5677
17, 133370, Pitch_bend_c, 4, 5839
17, 133380, Pitch_bend_c, 4, 6001
17, 133390, Pitch_bend_c, 4, 6163
17, 133400, Pitch_bend_c, 4, 6488
17, 133410, Pitch_bend_c, 4, 6650
17, 133420, Pitch_bend_c, 4, 6974
17, 133430, Pitch_bend_c, 4, 8192
17, 133868, Note_on_c, 4, 59, 0
17, 133925, Note_on_c, 4, 58, 62
17, 134029, Note_on_c, 4, 58, 0
17, 134727, Note_on_c, 4, 59, 90
17, 134859, Note_on_c, 4, 59, 0
17, 135369, Note_on_c, 4, 58, 59
17, 135486, Note_on_c, 4, 58, 0
17, 135845, Note_on_c, 4, 59, 60
17, 135962, Note_on_c, 4, 59, 0
17, 136326, Note_on_c, 4, 58, 63
17, 136442, Note_on_c, 4, 58, 0
17, 136806, Note_on_c, 4, 59, 53
17, 137085, Note_on_c, 4, 59, 0
17, 137120, Pitch_bend_c, 4, 8110
17, 137120, Note_on_c, 4, 59, 64
17, 137130, Pitch_bend_c, 4, 6650
17, 137140, Pitch_bend_c, 4, 6326
17, 137160, Pitch_bend_c, 4, 6163
17, 137170, Pitch_bend_c, 4, 6001
17, 137180, Pitch_bend_c, 4, 5839
17, 137190, Pitch_bend_c, 4, 5677
17, 137210, Pitch_bend_c, 4, 5839
17, 137220, Pitch_bend_c, 4, 6001
17, 137230, Pitch_bend_c, 4, 6163
17, 137240, Pitch_bend_c, 4, 6488
17, 137250, Pitch_bend_c, 4, 6650
17, 137260, Pitch_bend_c, 4, 6974
17, 137270, Pitch_bend_c, 4, 8192
17, 137703, Note_on_c, 4, 59, 0
17, 137769, Note_on_c, 4, 59, 66
17, 137876, Note_on_c, 4, 59, 0
17, 138563, Note_on_c, 4, 63, 70
17, 139100, Note_on_c, 4, 63, 0
17, 139207, Note_on_c, 4, 63, 59
17, 139323, Note_on_c, 4, 63, 0
17, 139686, Note_on_c, 4, 63, 64
17, 139805, Note_on_c, 4, 63, 0
17, 140167, Note_on_c, 4, 67, 51
17, 140482, Note_on_c, 4, 67, 0
17, 140489, Note_on_c, 4, 67, 66
17, 141547, Note_on_c, 4, 67, 0
17, 141602, Note_on_c, 4, 53, 58
17, 141925, Note_on_c, 4, 61, 80
17, 141940, Note_on_c, 4, 53, 0
17, 143863, Note_on_c, 4, 61, 0
17, 144483, Note_on_c, 4, 73, 98
17, 144798, Note_on_c, 4, 73, 0
17, 144806, Note_on_c, 4, 70, 104
17, 144962, Note_on_c, 4, 70, 0
17, 144962, Note_on_c, 4, 72, 84
17, 145276, Note_on_c, 4, 72, 0
17, 145288, Note_on_c, 4, 73, 97
17, 145443, Note_on_c, 4, 73, 0
17, 145445, Note_on_c, 4, 72, 76
17, 145762, Note_on_c, 4, 72, 0
17, 145762, Note_on_c, 4, 70, 99
17, 145920, Note_on_c, 4, 70, 0
17, 145922, Note_on_c, 4, 72, 91
17, 146370, Note_on_c, 4, 72, 0
17, 146408, Note_on_c, 4, 73, 98
17, 146725, Note_on_c, 4, 73, 0
17, 146729, Note_on_c, 4, 72, 89
17, 147312, Note_on_c, 4, 72, 0
17, 147368, Note_on_c, 4, 68, 85
17, 147682, Note_on_c, 4, 68, 0
17, 147686, Note_on_c, 4, 61, 96
17, 147841, Note_on_c, 4, 61, 0
17, 147849, Note_on_c, 4, 66, 76
17, 148164, Note_on_c, 4, 66, 0
17, 148167, Note_on_c, 4, 68, 91
17, 148322, Note_on_c, 4, 68, 0
17, 148329, Note_on_c, 4, 66, 85
17, 148619, Note_on_c, 4, 66, 0
17, 148646, Note_on_c, 4, 66, 95
17, 148778, Note_on_c, 4, 66, 0
17, 149128, Note_on_c, 4, 73, 88
17, 149600, Note_on_c, 4, 73, 0
17, 149604, Note_on_c, 4, 70, 95
17, 149760, Note_on_c, 4, 70, 0
17, 149769, Note_on_c, 4, 72, 88
17, 150217, Note_on_c, 4, 72, 0
17, 150249, Note_on_c, 4, 73, 103
17, 150563, Note_on_c, 4, 73, 0
17, 150569, Note_on_c, 4, 72, 95
17, 151152, Note_on_c, 4, 72, 0
17, 151209, Note_on_c, 4, 68, 88
17, 151523, Note_on_c, 4, 68, 0
17, 151525, Note_on_c, 4, 61, 101
17, 151681, Note_on_c, 4, 61, 0
17, 151685, Note_on_c, 4, 66, 82
17, 152003, Note_on_c, 4, 66, 0
17, 152008, Note_on_c, 4, 68, 89
17, 152163, Note_on_c, 4, 68, 0
17, 152167, Note_on_c, 4, 66, 78
17, 152459, Note_on_c, 4, 66, 0
17, 152481, Note_on_c, 4, 66, 94
17, 152613, Note_on_c, 4, 66, 0
17, 152961, Note_on_c, 4, 73, 92
17, 153433, Note_on_c, 4, 73, 0
17, 153446, Note_on_c, 4, 70, 93
17, 153602, Note_on_c, 4, 70, 0
17, 153606, Note_on_c, 4, 72, 76
17, 153918, Note_on_c, 4, 73, 91
17, 153921, Note_on_c, 4, 72, 0
17, 154551, Note_on_c, 4, 73, 0
17, 154564, Note_on_c, 4, 72, 76
17, 154687, Note_on_c, 4, 73, 89
17, 154692, Note_on_c, 4, 72, 0
17, 154805, Note_on_c, 4, 72, 66
17, 154816, Note_on_c, 4, 73, 0
17, 154929, Note_on_c, 4, 68, 72
17, 154934, Note_on_c, 4, 72, 0
17, 155046, Note_on_c, 4, 65, 78
17, 155057, Note_on_c, 4, 68, 0
17, 155360, Note_on_c, 4, 65, 0
17, 155369, Note_on_c, 4, 61, 88
17, 155527, Note_on_c, 4, 61, 0
17, 155528, Note_on_c, 4, 66, 80
17, 155845, Note_on_c, 4, 66, 0
17, 155847, Note_on_c, 4, 68, 92
17, 156431, Note_on_c, 4, 68, 0
17, 156489, Note_on_c, 4, 65, 81
17, 156609, Note_on_c, 4, 66, 92
17, 156617, Note_on_c, 4, 65, 0
17, 156729, Note_on_c, 4, 65, 64
17, 156737, Note_on_c, 4, 66, 0
17, 156849, Note_on_c, 4, 63, 68
17, 156857, Note_on_c, 4, 65, 0
17, 156969, Note_on_c, 4, 58, 70
17, 156977, Note_on_c, 4, 63, 0
17, 157283, Note_on_c, 4, 58, 0
17, 157285, Note_on_c, 4, 61, 85
17, 158185, Note_on_c, 4, 61, 0
17, 158248, Note_on_c, 4, 58, 87
17, 158357, Note_on_c, 4, 58, 0
17, 159125, Note_on_c, 4, 54, 42
17, 159360, Control_c, 4, 11, 127
17, 159528, Control_c, 4, 11, 127
17, 159648, Control_c, 4, 11, 125
17, 159768, Control_c, 4, 11, 124
17, 159864, Control_c, 4, 11, 121
17, 159984, Control_c, 4, 11, 118
17, 160080, Control_c, 4, 11, 115
17, 160176, Control_c, 4, 11, 111
17, 160248, Control_c, 4, 11, 108
17, 160296, Control_c, 4, 11, 105
17, 160368, Control_c, 4, 11, 101
17, 160440, Control_c, 4, 11, 98
17, 160464, Control_c, 4, 11, 95
17, 160536, Control_c, 4, 11, 90
17, 160584, Control_c, 4, 11, 86
17, 160632, Control_c, 4, 11, 82
17, 160680, Control_c, 4, 11, 79
17, 160704, Control_c, 4, 11, 76
17, 160752, Control_c, 4, 11, 70
17, 160776, Control_c, 4, 11, 67
17, 160824, Control_c, 4, 11, 61
17, 160848, Control_c, 4, 11, 57
17, 160896, Control_c, 4, 11, 50
17, 160920, Control_c, 4, 11, 46
17, 160944, Control_c, 4, 11, 41
17, 160953, Note_on_c, 4, 54, 0
17, 160968, Control_c, 4, 11, 35
17, 160992, Control_c, 4, 11, 27
17, 161016, Control_c, 4, 11, 16
17, 161256, Control_c, 4, 11, 127
17, 161769, Note_on_c, 4, 64, 65
17, 161909, Note_on_c, 4, 64, 0
17, 162249, Note_on_c, 4, 66, 59
17, 162529, Note_on_c, 4, 66, 0
17, 162567, Note_on_c, 4, 66, 63
17, 162671, Note_on_c, 4, 66, 0
17, 163043, Note_on_c, 4, 58, 52
17, 163616, Note_on_c, 4, 58, 0
17, 163689, Note_on_c, 4, 57, 46
17, 163979, Note_on_c, 4, 57, 0
17, 164009, Note_on_c, 4, 56, 53
17, 164142, Note_on_c, 4, 56, 0
17, 168960, Control_c, 4, 123, 0
17, 168960, End_track
18, 0, Start_track
18, 0, MIDI_port, 0
18, 0, Title_t, "Tenor Sax 2"
18, 0, Program_c, 5, 66
18, 0, Control_c, 5, 7, 100
18, 0, Control_c, 5, 10, 45
18, 0, Control_c, 5, 91, 94
18, 0, Control_c, 5, 93, 5
18, 0, Control_c, 5, 11, 127
18, 0, Control_c, 5, 123, 0
18, 5289, Note_on_c, 5, 65, 97
18, 5591, Note_on_c, 5, 65, 0
18, 5607, Note_on_c, 5, 64, 73
18, 5751, Note_on_c, 5, 64, 0
18, 5768, Note_on_c, 5, 65, 85
18, 5886, Note_on_c, 5, 65, 0
18, 6247, Note_on_c, 5, 53, 64
18, 6549, Note_on_c, 5, 53, 0
18, 6569, Note_on_c, 5, 52, 45
18, 6713, Note_on_c, 5, 52, 0
18, 6728, Note_on_c, 5, 53, 61
18, 6844, Note_on_c, 5, 53, 0
18, 37768, Note_on_c, 5, 53, 79
18, 37908, Note_on_c, 5, 53, 0
18, 38249, Note_on_c, 5, 53, 61
18, 38382, Note_on_c, 5, 53, 0
18, 38409, Note_on_c, 5, 54, 76
18, 38537, Note_on_c, 5, 54, 0
18, 46407, Note_on_c, 5, 51, 71
18, 46551, Note_on_c, 5, 51, 0
18, 46567, Note_on_c, 5, 51, 69
18, 46869, Note_on_c, 5, 51, 0
18, 46888, Note_on_c, 5, 51, 84
18, 47009, Note_on_c, 5, 51, 0
18, 48456, Control_c, 5, 11, 127
18, 48489, Note_on_c, 5, 53, 76
18, 48600, Control_c, 5, 11, 127
18, 48720, Control_c, 5, 11, 125
18, 48840, Control_c, 5, 11, 123
18, 48912, Control_c, 5, 11, 120
18, 49032, Control_c, 5, 11, 116
18, 49104, Control_c, 5, 11, 113
18, 49152, Control_c, 5, 11, 110
18, 49224, Control_c, 5, 11, 106
18, 49296, Control_c, 5, 11, 103
18, 49320, Control_c, 5, 11, 100
18, 49392, Control_c, 5, 11, 95
18, 49440, Control_c, 5, 11, 91
18, 49488, Control_c, 5, 11, 86
18, 49536, Control_c, 5, 11, 81
18, 49584, Control_c, 5, 11, 76
18, 49632, Control_c, 5, 11, 70
18, 49656, Control_c, 5, 11, 66
18, 49680, Control_c, 5, 11, 62
18, 49704, Control_c, 5, 11, 59
18, 49728, Control_c, 5, 11, 55
18, 49752, Control_c, 5, 11, 50
18, 49753, Note_on_c, 5, 53, 0
18, 49776, Control_c, 5, 11, 44
18, 49800, Control_c, 5, 11, 37
18, 49824, Control_c, 5, 11, 30
18, 49848, Control_c, 5, 11, 17
18, 49896, Control_c, 5, 11, 127
18, 52327, Note_on_c, 5, 55, 64
18, 52642, Note_on_c, 5, 55, 0
18, 52649, Note_on_c, 5, 54, 84
18, 52800, Control_c, 5, 11, 127
18, 52944, Control_c, 5, 11, 125
18, 53040, Control_c, 5, 11, 121
18, 53112, Control_c, 5, 11, 118
18, 53160, Control_c, 5, 11, 115
18, 53208, Control_c, 5, 11, 110
18, 53256, Control_c, 5, 11, 106
18, 53304, Control_c, 5, 11, 101
18, 53328, Control_c, 5, 11, 98
18, 53352, Control_c, 5, 11, 95
18, 53376, Control_c, 5, 11, 91
18, 53400, Control_c, 5, 11, 88
18, 53424, Control_c, 5, 11, 84
18, 53448, Control_c, 5, 11, 79
18, 53472, Control_c, 5, 11, 75
18, 53496, Control_c, 5, 11, 69
18, 53501, Note_on_c, 5, 54, 0
18, 53520, Control_c, 5, 11, 64
18, 53544, Control_c, 5, 11, 56
18, 53568, Control_c, 5, 11, 47
18, 53592, Control_c, 5, 11, 37
18, 53616, Control_c, 5, 11, 22
18, 53736, Control_c, 5, 11, 127
18, 54085, Note_on_c, 5, 56, 91
18, 54218, Note_on_c, 5, 56, 0
18, 54725, Note_on_c, 5, 55, 64
18, 54844, Note_on_c, 5, 55, 0
18, 55208, Note_on_c, 5, 56, 64
18, 55325, Note_on_c, 5, 56, 0
18, 55689, Note_on_c, 5, 55, 61
18, 55806, Note_on_c, 5, 55, 0
18, 56167, Note_on_c, 5, 56, 58
18, 56446, Note_on_c, 5, 56, 0
18, 56480, Pitch_bend_c, 5, 8110
18, 56485, Note_on_c, 5, 57, 71
18, 56490, Pitch_bend_c, 5, 6650
18, 56500, Pitch_bend_c, 5, 6326
18, 56520, Pitch_bend_c, 5, 6163
18, 56530, Pitch_bend_c, 5, 6001
18, 56540, Pitch_bend_c, 5, 5839
18, 56550, Pitch_bend_c, 5, 5677
18, 56570, Pitch_bend_c, 5, 5839
18, 56580, Pitch_bend_c, 5, 6001
18, 56590, Pitch_bend_c, 5, 6163
18, 56600, Pitch_bend_c, 5, 6488
18, 56610, Pitch_bend_c, 5, 6650
18, 56620, Pitch_bend_c, 5, 6974
18, 56630, Pitch_bend_c, 5, 8192
18, 57069, Note_on_c, 5, 57, 0
18, 57121, Note_on_c, 5, 56, 64
18, 57227, Note_on_c, 5, 56, 0
18, 57929, Note_on_c, 5, 56, 86
18, 58061, Note_on_c, 5, 56, 0
18, 58567, Note_on_c, 5, 55, 65
18, 58684, Note_on_c, 5, 55, 0
18, 59043, Note_on_c, 5, 56, 63
18, 59159, Note_on_c, 5, 56, 0
18, 59527, Note_on_c, 5, 55, 65
18, 59645, Note_on_c, 5, 55, 0
18, 60006, Note_on_c, 5, 56, 55
18, 60284, Note_on_c, 5, 56, 0
18, 60320, Pitch_bend_c, 5, 8110
18, 60328, Note_on_c, 5, 56, 71
18, 60330, Pitch_bend_c, 5, 6650
18, 60340, Pitch_bend_c, 5, 6326
18, 60360, Pitch_bend_c, 5, 6163
18, 60370, Pitch_bend_c, 5, 6001
18, 60380, Pitch_bend_c, 5, 5839
18, 60390, Pitch_bend_c, 5, 5677
18, 60410, Pitch_bend_c, 5, 5839
18, 60420, Pitch_bend_c, 5, 6001
18, 60430, Pitch_bend_c, 5, 6163
18, 60440, Pitch_bend_c, 5, 6488
18, 60450, Pitch_bend_c, 5, 6650
18, 60460, Pitch_bend_c, 5, 6974
18, 60470, Pitch_bend_c, 5, 8192
18, 60911, Note_on_c, 5, 56, 0
18, 60968, Note_on_c, 5, 55, 60
18, 61072, Note_on_c, 5, 55, 0
18, 61769, Note_on_c, 5, 61, 68
18, 62307, Note_on_c, 5, 61, 0
18, 62405, Note_on_c, 5, 61, 66
18, 62521, Note_on_c, 5, 61, 0
18, 62889, Note_on_c, 5, 61, 59
18, 63006, Note_on_c, 5, 61, 0
18, 63369, Note_on_c, 5, 63, 58
18, 63683, Note_on_c, 5, 63, 0
18, 63683, Note_on_c, 5, 63, 69
18, 64741, Note_on_c, 5, 63, 0
18, 84806, Note_on_c, 5, 56, 64
18, 85414, Note_on_c, 5, 56, 0
18, 85449, Note_on_c, 5, 55, 50
18, 85751, Note_on_c, 5, 55, 0
18, 85767, Note_on_c, 5, 56, 52
18, 85875, Note_on_c, 5, 56, 0
18, 88164, Note_on_c, 5, 53, 69
18, 88285, Note_on_c, 5, 53, 0
18, 88646, Note_on_c, 5, 54, 57
18, 89241, Note_on_c, 5, 54, 0
18, 89286, Note_on_c, 5, 53, 58
18, 89577, Note_on_c, 5, 53, 0
18, 89606, Note_on_c, 5, 53, 65
18, 89715, Note_on_c, 5, 53, 0
18, 91528, Note_on_c, 5, 52, 55
18, 91684, Note_on_c, 5, 52, 0
18, 91687, Note_on_c, 5, 53, 45
18, 92001, Note_on_c, 5, 53, 0
18, 92004, Note_on_c, 5, 58, 59
18, 93111, Note_on_c, 5, 58, 0
18, 93129, Note_on_c, 5, 56, 55
18, 94030, Note_on_c, 5, 56, 0
18, 94087, Note_on_c, 5, 58, 47
18, 94389, Note_on_c, 5, 58, 0
18, 94403, Note_on_c, 5, 58, 73
18, 94511, Note_on_c, 5, 58, 0
18, 96009, Note_on_c, 5, 54, 59
18, 96312, Note_on_c, 5, 54, 0
18, 96325, Note_on_c, 5, 54, 56
18, 96460, Note_on_c, 5, 54, 0
18, 96488, Note_on_c, 5, 55, 58
18, 96778, Note_on_c, 5, 55, 0
18, 96808, Note_on_c, 5, 54, 72
18, 96917, Note_on_c, 5, 54, 0
18, 100167, Note_on_c, 5, 56, 64
18, 100775, Note_on_c, 5, 56, 0
18, 100809, Note_on_c, 5, 55, 48
18, 101113, Note_on_c, 5, 55, 0
18, 101127, Note_on_c, 5, 56, 58
18, 101237, Note_on_c, 5, 56, 0
18, 103525, Note_on_c, 5, 53, 64
18, 103645, Note_on_c, 5, 53, 0
18, 104005, Note_on_c, 5, 54, 61
18, 104600, Note_on_c, 5, 54, 0
18, 104649, Note_on_c, 5, 53, 53
18, 104939, Note_on_c, 5, 53, 0
18, 104969, Note_on_c, 5, 53, 67
18, 105078, Note_on_c, 5, 53, 0
18, 106885, Note_on_c, 5, 52, 56
18, 107044, Note_on_c, 5, 52, 0
18, 107045, Note_on_c, 5, 53, 52
18, 107359, Note_on_c, 5, 53, 0
18, 107365, Note_on_c, 5, 58, 58
18, 108471, Note_on_c, 5, 58, 0
18, 108485, Note_on_c, 5, 56, 51
18, 109385, Note_on_c, 5, 56, 0
18, 109442, Note_on_c, 5, 58, 52
18, 109744, Note_on_c, 5, 58, 0
18, 109768, Note_on_c, 5, 58, 68
18, 109877, Note_on_c, 5, 58, 0
18, 111366, Note_on_c, 5, 54, 57
18, 111668, Note_on_c, 5, 54, 0
18, 111685, Note_on_c, 5, 54, 61
18, 111818, Note_on_c, 5, 54, 0
18, 111846, Note_on_c, 5, 55, 56
18, 112136, Note_on_c, 5, 55, 0
18, 112169, Note_on_c, 5, 54, 69
18, 112278, Note_on_c, 5, 54, 0
18, 113127, Note_on_c, 5, 53, 61
18, 113575, Note_on_c, 5, 53, 0
18, 113609, Note_on_c, 5, 53, 62
18, 113765, Note_on_c, 5, 53, 0
18, 113768, Note_on_c, 5, 54, 51
18, 114070, Control_c, 5, 11, 104
18, 114082, Note_on_c, 5, 54, 0
18, 114087, Note_on_c, 5, 53, 79
18, 114330, Control_c, 5, 11, 105
18, 114520, Control_c, 5, 11, 106
18, 114640, Control_c, 5, 11, 108
18, 114740, Control_c, 5, 11, 109
18, 114840, Control_c, 5, 11, 110
18, 114930, Control_c, 5, 11, 113
18, 115030, Control_c, 5, 11, 115
18, 115090, Control_c, 5, 11, 118
18, 115098, Note_on_c, 5, 53, 0
18, 115150, Control_c, 5, 11, 121
18, 115180, Control_c, 5, 11, 124
18, 115190, Control_c, 5, 11, 127
18, 115200, Control_c, 5, 11, 127
18, 115208, Note_on_c, 5, 54, 75
18, 115324, Note_on_c, 5, 54, 0
18, 123204, Note_on_c, 5, 51, 71
18, 123348, Note_on_c, 5, 51, 0
18, 123368, Note_on_c, 5, 51, 64
18, 123671, Note_on_c, 5, 51, 0
18, 123677, Note_on_c, 5, 51, 78
18, 123797, Note_on_c, 5, 51, 0
18, 125256, Control_c, 5, 11, 127
18, 125284, Note_on_c, 5, 53, 77
18, 125400, Control_c, 5, 11, 127
18, 125520, Control_c, 5, 11, 125
18, 125640, Control_c, 5, 11, 123
18, 125712, Control_c, 5, 11, 120
18, 125832, Control_c, 5, 11, 116
18, 125904, Control_c, 5, 11, 113
18, 125952, Control_c, 5, 11, 110
18, 126024, Control_c, 5, 11, 106
18, 126096, Control_c, 5, 11, 103
18, 126120, Control_c, 5, 11, 100
18, 126192, Control_c, 5, 11, 95
18, 126240, Control_c, 5, 11, 91
18, 126288, Control_c, 5, 11, 86
18, 126336, Control_c, 5, 11, 81
18, 126384, Control_c, 5, 11, 76
18, 126432, Control_c, 5, 11, 70
18, 126456, Control_c, 5, 11, 66
18, 126480, Control_c, 5, 11, 62
18, 126504, Control_c, 5, 11, 59
18, 126528, Control_c, 5, 11, 55
18, 126548, Note_on_c, 5, 53, 0
18, 126552, Control_c, 5, 11, 50
18, 126576, Control_c, 5, 11, 44
18, 126600, Control_c, 5, 11, 37
18, 126624, Control_c, 5, 11, 30
18, 126648, Control_c, 5, 11, 17
18, 126696, Control_c, 5, 11, 127
18, 129127, Note_on_c, 5, 55, 58
18, 129442, Note_on_c, 5, 55, 0
18, 129449, Note_on_c, 5, 54, 85
18, 129600, Control_c, 5, 11, 127
18, 129744, Control_c, 5, 11, 125
18, 129840, Control_c, 5, 11, 121
18, 129912, Control_c, 5, 11, 118
18, 129960, Control_c, 5, 11, 115
18, 130008, Control_c, 5, 11, 110
18, 130056, Control_c, 5, 11, 106
18, 130104, Control_c, 5, 11, 101
18, 130128, Control_c, 5, 11, 98
18, 130152, Control_c, 5, 11, 95
18, 130176, Control_c, 5, 11, 91
18, 130200, Control_c, 5, 11, 88
18, 130224, Control_c, 5, 11, 84
18, 130248, Control_c, 5, 11, 79
18, 130272, Control_c, 5, 11, 75
18, 130296, Control_c, 5, 11, 69
18, 130302, Note_on_c, 5, 54, 0
18, 130320, Control_c, 5, 11, 64
18, 130344, Control_c, 5, 11, 56
18, 130368, Control_c, 5, 11, 47
18, 130392, Control_c, 5, 11, 37
18, 130416, Control_c, 5, 11, 22
18, 130536, Control_c, 5, 11, 127
18, 130889, Note_on_c, 5, 56, 87
18, 131021, Note_on_c, 5, 56, 0
18, 131528, Note_on_c, 5, 55, 62
18, 131644, Note_on_c, 5, 55, 0
18, 132006, Note_on_c, 5, 56, 64
18, 132122, Note_on_c, 5, 56, 0
18, 132485, Note_on_c, 5, 55, 59
18, 132601, Note_on_c, 5, 55, 0
18, 132969, Note_on_c, 5, 56, 57
18, 133248, Note_on_c, 5, 56, 0
18, 133280, Pitch_bend_c, 5, 8110
18, 133285, Note_on_c, 5, 57, 65
18, 133290, Pitch_bend_c, 5, 6650
18, 133300, Pitch_bend_c, 5, 6326
18, 133320, Pitch_bend_c, 5, 6163
18, 133330, Pitch_bend_c, 5, 6001
18, 133340, Pitch_bend_c, 5, 5839
18, 133350, Pitch_bend_c, 5, 5677
18, 133370, Pitch_bend_c, 5, 5839
18, 133380, Pitch_bend_c, 5, 6001
18, 133390, Pitch_bend_c, 5, 6163
18, 133400, Pitch_bend_c, 5, 6488
18, 133410, Pitch_bend_c, 5, 6650
18, 133420, Pitch_bend_c, 5, 6974
18, 133430, Pitch_bend_c, 5, 8192
18, 133868, Note_on_c, 5, 57, 0
18, 133928, Note_on_c, 5, 56, 63
18, 134032, Note_on_c, 5, 56, 0
18, 134729, Note_on_c, 5, 56, 83
18, 134861, Note_on_c, 5, 56, 0
18, 135369, Note_on_c, 5, 55, 60
18, 135485, Note_on_c, 5, 55, 0
18, 135849, Note_on_c, 5, 56, 59
18, 135966, Note_on_c, 5, 56, 0
18, 136328, Note_on_c, 5, 55, 64
18, 136445, Note_on_c, 5, 55, 0
18, 136808, Note_on_c, 5, 56, 56
18, 137086, Note_on_c, 5, 56, 0
18, 137120, Pitch_bend_c, 5, 8110
18, 137127, Note_on_c, 5, 56, 72
18, 137130, Pitch_bend_c, 5, 6650
18, 137140, Pitch_bend_c, 5, 6326
18, 137160, Pitch_bend_c, 5, 6163
18, 137170, Pitch_bend_c, 5, 6001
18, 137180, Pitch_bend_c, 5, 5839
18, 137190, Pitch_bend_c, 5, 5677
18, 137210, Pitch_bend_c, 5, 5839
18, 137220, Pitch_bend_c, 5, 6001
18, 137230, Pitch_bend_c, 5, 6163
18, 137240, Pitch_bend_c, 5, 6488
18, 137250, Pitch_bend_c, 5, 6650
18, 137260, Pitch_bend_c, 5, 6974
18, 137270, Pitch_bend_c, 5, 8192
18, 137710, Note_on_c, 5, 56, 0
18, 137766, Note_on_c, 5, 55, 61
18, 137873, Note_on_c, 5, 55, 0
18, 138565, Note_on_c, 5, 61, 72
18, 139101, Note_on_c, 5, 61, 0
18, 139208, Note_on_c, 5, 61, 58
18, 139325, Note_on_c, 5, 61, 0
18, 139689, Note_on_c, 5, 61, 60
18, 139805, Note_on_c, 5, 61, 0
18, 140168, Note_on_c, 5, 63, 51
18, 140482, Note_on_c, 5, 63, 0
18, 140487, Note_on_c, 5, 63, 67
18, 141545, Note_on_c, 5, 63, 0
18, 159129, Note_on_c, 5, 51, 42
18, 159360, Control_c, 5, 11, 127
18, 159528, Control_c, 5, 11, 127
18, 159648, Control_c, 5, 11, 125
18, 159768, Control_c, 5, 11, 124
18, 159864, Control_c, 5, 11, 121
18, 159984, Control_c, 5, 11, 118
18, 160080, Control_c, 5, 11, 115
18, 160176, Control_c, 5, 11, 111
18, 160248, Control_c, 5, 11, 108
18, 160296, Control_c, 5, 11, 105
18, 160368, Control_c, 5, 11, 101
18, 160440, Control_c, 5, 11, 98
18, 160464, Control_c, 5, 11, 95
18, 160536, Control_c, 5, 11, 90
18, 160584, Control_c, 5, 11, 86
18, 160632, Control_c, 5, 11, 82
18, 160680, Control_c, 5, 11, 79
18, 160704, Control_c, 5, 11, 76
18, 160752, Control_c, 5, 11, 70
18, 160776, Control_c, 5, 11, 67
18, 160824, Control_c, 5, 11, 61
18, 160848, Control_c, 5, 11, 57
18, 160896, Control_c, 5, 11, 50
18, 160920, Control_c, 5, 11, 46
18, 160944, Control_c, 5, 11, 41
18, 160956, Note_on_c, 5, 51, 0
18, 160968, Control_c, 5, 11, 35
18, 160992, Control_c, 5, 11, 27
18, 161016, Control_c, 5, 11, 16
18, 161256, Control_c, 5, 11, 127
18, 161769, Note_on_c, 5, 58, 72
18, 161909, Note_on_c, 5, 58, 0
18, 162235, Note_on_c, 5, 59, 53
18, 162513, Note_on_c, 5, 59, 0
18, 162569, Note_on_c, 5, 59, 60
18, 162677, Note_on_c, 5, 59, 0
18, 163047, Note_on_c, 5, 54, 53
18, 163618, Note_on_c, 5, 54, 0
18, 163689, Note_on_c, 5, 54, 43
18, 163979, Note_on_c, 5, 54, 0
18, 164009, Note_on_c, 5, 53, 48
18, 164141, Note_on_c, 5, 53, 0
18, 168960, Control_c, 5, 123, 0
18, 168960, End_track
19, 0, Start_track
19, 0, MIDI_port, 0
19, 0, Title_t, "Bari Sax"
19, 0, Program_c, 6, 67
19, 0, Control_c, 6, 7, 100
19, 0, Control_c, 6, 10, 104
19, 0, Control_c, 6, 91, 94
19, 0, Control_c, 6, 93, 5
19, 0, Control_c, 6, 11, 127
19, 0, Control_c, 6, 123, 0
19, 5289, Note_on_c, 6, 56, 96
19, 5593, Note_on_c, 6, 56, 0
19, 5609, Note_on_c, 6, 55, 71
19, 5753, Note_on_c, 6, 55, 0
19, 5769, Note_on_c, 6, 56, 91
19, 5885, Note_on_c, 6, 56, 0
19, 6241, Note_on_c, 6, 44, 67
19, 6544, Note_on_c, 6, 44, 0
19, 6569, Note_on_c, 6, 43, 51
19, 6715, Note_on_c, 6, 43, 0
19, 6729, Note_on_c, 6, 44, 62
19, 6847, Note_on_c, 6, 44, 0
19, 19529, Note_on_c, 6, 44, 63
19, 19670, Note_on_c, 6, 44, 0
19, 20004, Note_on_c, 6, 44, 50
19, 20150, Note_on_c, 6, 44, 0
19, 20161, Note_on_c, 6, 44, 57
19, 20280, Note_on_c, 6, 44, 0
19, 20963, Note_on_c, 6, 44, 59
19, 21072, Note_on_c, 6, 44, 0
19, 21447, Note_on_c, 6, 44, 53
19, 21591, Note_on_c, 6, 44, 0
19, 21608, Note_on_c, 6, 44, 56
19, 21724, Note_on_c, 6, 44, 0
19, 22408, Note_on_c, 6, 44, 63
19, 22549, Note_on_c, 6, 44, 0
19, 22889, Note_on_c, 6, 44, 45
19, 23033, Note_on_c, 6, 44, 0
19, 23049, Note_on_c, 6, 49, 62
19, 23166, Note_on_c, 6, 49, 0
19, 34885, Note_on_c, 6, 51, 66
19, 35025, Note_on_c, 6, 51, 0
19, 35367, Note_on_c, 6, 49, 57
19, 35512, Note_on_c, 6, 49, 0
19, 35527, Note_on_c, 6, 51, 64
19, 35645, Note_on_c, 6, 51, 0
19, 36326, Note_on_c, 6, 51, 64
19, 36435, Note_on_c, 6, 51, 0
19, 36808, Note_on_c, 6, 49, 52
19, 36953, Note_on_c, 6, 49, 0
19, 36967, Note_on_c, 6, 51, 61
19, 37083, Note_on_c, 6, 51, 0
19, 38722, Note_on_c, 6, 49, 68
19, 39247, Note_on_c, 6, 49, 0
19, 39362, Note_on_c, 6, 48, 60
19, 39466, Note_on_c, 6, 48, 0
19, 39845, Note_on_c, 6, 49, 59
19, 39951, Note_on_c, 6, 49, 0
19, 40329, Note_on_c, 6, 48, 61
19, 40433, Note_on_c, 6, 48, 0
19, 40808, Note_on_c, 6, 49, 61
19, 40912, Note_on_c, 6, 49, 0
19, 41289, Note_on_c, 6, 51, 52
19, 41555, Note_on_c, 6, 51, 0
19, 41603, Note_on_c, 6, 49, 64
19, 41707, Note_on_c, 6, 49, 0
19, 42088, Note_on_c, 6, 49, 57
19, 42240, Control_c, 6, 11, 127
19, 42432, Control_c, 6, 11, 127
19, 42552, Control_c, 6, 11, 125
19, 42672, Control_c, 6, 11, 124
19, 42792, Control_c, 6, 11, 121
19, 42912, Control_c, 6, 11, 119
19, 42984, Control_c, 6, 11, 116
19, 43104, Control_c, 6, 11, 113
19, 43176, Control_c, 6, 11, 110
19, 43272, Control_c, 6, 11, 106
19, 43344, Control_c, 6, 11, 103
19, 43392, Control_c, 6, 11, 100
19, 43464, Control_c, 6, 11, 96
19, 43512, Control_c, 6, 11, 93
19, 43560, Control_c, 6, 11, 90
19, 43608, Control_c, 6, 11, 86
19, 43656, Control_c, 6, 11, 82
19, 43704, Control_c, 6, 11, 79
19, 43728, Control_c, 6, 11, 76
19, 43776, Control_c, 6, 11, 72
19, 43824, Control_c, 6, 11, 67
19, 43872, Control_c, 6, 11, 61
19, 43920, Control_c, 6, 11, 55
19, 43944, Control_c, 6, 11, 51
19, 43967, Note_on_c, 6, 49, 0
19, 43968, Control_c, 6, 11, 47
19, 43992, Control_c, 6, 11, 44
19, 44016, Control_c, 6, 11, 38
19, 44040, Control_c, 6, 11, 32
19, 44064, Control_c, 6, 11, 26
19, 44088, Control_c, 6, 11, 15
19, 44136, Control_c, 6, 11, 127
19, 46407, Note_on_c, 6, 38, 76
19, 46551, Note_on_c, 6, 38, 0
19, 46565, Note_on_c, 6, 38, 65
19, 46867, Note_on_c, 6, 38, 0
19, 46889, Note_on_c, 6, 38, 85
19, 47009, Note_on_c, 6, 38, 0
19, 48456, Control_c, 6, 11, 127
19, 48486, Note_on_c, 6, 43, 71
19, 48600, Control_c, 6, 11, 127
19, 48720, Control_c, 6, 11, 125
19, 48840, Control_c, 6, 11, 123
19, 48912, Control_c, 6, 11, 120
19, 49032, Control_c, 6, 11, 116
19, 49104, Control_c, 6, 11, 113
19, 49152, Control_c, 6, 11, 110
19, 49224, Control_c, 6, 11, 106
19, 49296, Control_c, 6, 11, 103
19, 49320, Control_c, 6, 11, 100
19, 49392, Control_c, 6, 11, 95
19, 49440, Control_c, 6, 11, 91
19, 49488, Control_c, 6, 11, 86
19, 49536, Control_c, 6, 11, 81
19, 49584, Control_c, 6, 11, 76
19, 49632, Control_c, 6, 11, 70
19, 49656, Control_c, 6, 11, 66
19, 49680, Control_c, 6, 11, 62
19, 49704, Control_c, 6, 11, 59
19, 49728, Control_c, 6, 11, 55
19, 49750, Note_on_c, 6, 43, 0
19, 49752, Control_c, 6, 11, 50
19, 49776, Control_c, 6, 11, 44
19, 49800, Control_c, 6, 11, 37
19, 49824, Control_c, 6, 11, 30
19, 49848, Control_c, 6, 11, 17
19, 49896, Control_c, 6, 11, 127
19, 51683, Note_on_c, 6, 53, 82
19, 51839, Note_on_c, 6, 53, 0
19, 51848, Note_on_c, 6, 56, 75
19, 52163, Note_on_c, 6, 56, 0
19, 52164, Note_on_c, 6, 53, 80
19, 52320, Note_on_c, 6, 53, 0
19, 52326, Note_on_c, 6, 45, 66
19, 52641, Note_on_c, 6, 45, 0
19, 52648, Note_on_c, 6, 44, 84
19, 52800, Control_c, 6, 11, 127
19, 52944, Control_c, 6, 11, 125
19, 53040, Control_c, 6, 11, 121
19, 53112, Control_c, 6, 11, 118
19, 53160, Control_c, 6, 11, 115
19, 53208, Control_c, 6, 11, 110
19, 53256, Control_c, 6, 11, 106
19, 53304, Control_c, 6, 11, 101
19, 53328, Control_c, 6, 11, 98
19, 53352, Control_c, 6, 11, 95
19, 53376, Control_c, 6, 11, 91
19, 53400, Control_c, 6, 11, 88
19, 53424, Control_c, 6, 11, 84
19, 53448, Control_c, 6, 11, 79
19, 53472, Control_c, 6, 11, 75
19, 53496, Control_c, 6, 11, 69
19, 53501, Note_on_c, 6, 44, 0
19, 53520, Control_c, 6, 11, 64
19, 53544, Control_c, 6, 11, 56
19, 53568, Control_c, 6, 11, 47
19, 53592, Control_c, 6, 11, 37
19, 53616, Control_c, 6, 11, 22
19, 53736, Control_c, 6, 11, 127
19, 54087, Note_on_c, 6, 53, 84
19, 54219, Note_on_c, 6, 53, 0
19, 54728, Note_on_c, 6, 52, 62
19, 54844, Note_on_c, 6, 52, 0
19, 55209, Note_on_c, 6, 53, 60
19, 55327, Note_on_c, 6, 53, 0
19, 55688, Note_on_c, 6, 52, 58
19, 55804, Note_on_c, 6, 52, 0
19, 56169, Note_on_c, 6, 53, 54
19, 56448, Note_on_c, 6, 53, 0
19, 56480, Pitch_bend_c, 6, 8110
19, 56489, Note_on_c, 6, 54, 67
19, 56490, Pitch_bend_c, 6, 6650
19, 56500, Pitch_bend_c, 6, 6326
19, 56520, Pitch_bend_c, 6, 6163
19, 56530, Pitch_bend_c, 6, 6001
19, 56540, Pitch_bend_c, 6, 5839
19, 56550, Pitch_bend_c, 6, 5677
19, 56570, Pitch_bend_c, 6, 5839
19, 56580, Pitch_bend_c, 6, 6001
19, 56590, Pitch_bend_c, 6, 6163
19, 56600, Pitch_bend_c, 6, 6488
19, 56610, Pitch_bend_c, 6, 6650
19, 56620, Pitch_bend_c, 6, 6974
19, 56630, Pitch_bend_c, 6, 8192
19, 57074, Note_on_c, 6, 54, 0
19, 57129, Note_on_c, 6, 53, 61
19, 57234, Note_on_c, 6, 53, 0
19, 57924, Note_on_c, 6, 53, 92
19, 58058, Note_on_c, 6, 53, 0
19, 58564, Note_on_c, 6, 52, 60
19, 58683, Note_on_c, 6, 52, 0
19, 59049, Note_on_c, 6, 53, 64
19, 59168, Note_on_c, 6, 53, 0
19, 59529, Note_on_c, 6, 52, 65
19, 59645, Note_on_c, 6, 52, 0
19, 60007, Note_on_c, 6, 53, 60
19, 60286, Note_on_c, 6, 53, 0
19, 60320, Pitch_bend_c, 6, 8110
19, 60325, Note_on_c, 6, 54, 66
19, 60330, Pitch_bend_c, 6, 6650
19, 60340, Pitch_bend_c, 6, 6326
19, 60360, Pitch_bend_c, 6, 6163
19, 60370, Pitch_bend_c, 6, 6001
19, 60380, Pitch_bend_c, 6, 5839
19, 60390, Pitch_bend_c, 6, 5677
19, 60410, Pitch_bend_c, 6, 5839
19, 60420, Pitch_bend_c, 6, 6001
19, 60430, Pitch_bend_c, 6, 6163
19, 60440, Pitch_bend_c, 6, 6488
19, 60450, Pitch_bend_c, 6, 6650
19, 60460, Pitch_bend_c, 6, 6974
19, 60470, Pitch_bend_c, 6, 8192
19, 60908, Note_on_c, 6, 54, 0
19, 60969, Note_on_c, 6, 53, 61
19, 61075, Note_on_c, 6, 53, 0
19, 61768, Note_on_c, 6, 42, 66
19, 62306, Note_on_c, 6, 42, 0
19, 62407, Note_on_c, 6, 44, 57
19, 62523, Note_on_c, 6, 44, 0
19, 62887, Note_on_c, 6, 42, 60
19, 63003, Note_on_c, 6, 42, 0
19, 63367, Note_on_c, 6, 41, 58
19, 63682, Note_on_c, 6, 41, 0
19, 63686, Note_on_c, 6, 41, 71
19, 65196, Note_on_c, 6, 41, 0
19, 68472, Control_c, 6, 11, 114
19, 68488, Note_on_c, 6, 51, 76
19, 69032, Note_on_c, 6, 51, 0
19, 69128, Note_on_c, 6, 49, 73
19, 69257, Note_on_c, 6, 49, 0
19, 69607, Note_on_c, 6, 49, 78
19, 69736, Note_on_c, 6, 49, 0
19, 70084, Note_on_c, 6, 49, 70
19, 70362, Note_on_c, 6, 49, 0
19, 70396, Note_on_c, 6, 49, 73
19, 70501, Note_on_c, 6, 49, 0
19, 70889, Note_on_c, 6, 51, 78
19, 71437, Note_on_c, 6, 51, 0
19, 71529, Note_on_c, 6, 51, 65
19, 71664, Control_c, 6, 11, 115
19, 71808, Note_on_c, 6, 51, 0
19, 71849, Note_on_c, 6, 51, 79
19, 71957, Note_on_c, 6, 51, 0
19, 72969, Note_on_c, 6, 49, 73
19, 73099, Note_on_c, 6, 49, 0
19, 73444, Note_on_c, 6, 49, 72
19, 73573, Note_on_c, 6, 49, 0
19, 73800, Control_c, 6, 11, 116
19, 73922, Note_on_c, 6, 49, 71
19, 74200, Note_on_c, 6, 49, 0
19, 74248, Note_on_c, 6, 49, 71
19, 74353, Note_on_c, 6, 49, 0
19, 74727, Note_on_c, 6, 51, 79
19, 75168, Control_c, 6, 11, 118
19, 75274, Note_on_c, 6, 51, 0
19, 75363, Note_on_c, 6, 51, 72
19, 75642, Note_on_c, 6, 51, 0
19, 75687, Note_on_c, 6, 51, 70
19, 75795, Note_on_c, 6, 51, 0
19, 76152, Control_c, 6, 11, 119
19, 76809, Note_on_c, 6, 49, 76
19, 76896, Control_c, 6, 11, 120
19, 76937, Note_on_c, 6, 49, 0
19, 77289, Note_on_c, 6, 49, 78
19, 77417, Note_on_c, 6, 49, 0
19, 77496, Control_c, 6, 11, 121
19, 77761, Note_on_c, 6, 49, 71
19, 77928, Control_c, 6, 11, 123
19, 78040, Note_on_c, 6, 49, 0
19, 78087, Note_on_c, 6, 49, 78
19, 78191, Note_on_c, 6, 49, 0
19, 78240, Control_c, 6, 11, 124
19, 78456, Control_c, 6, 11, 125
19, 78528, Control_c, 6, 11, 125
19, 78552, Control_c, 6, 11, 127
19, 78568, Note_on_c, 6, 51, 79
19, 79118, Note_on_c, 6, 51, 0
19, 79207, Note_on_c, 6, 51, 64
19, 79485, Note_on_c, 6, 51, 0
19, 79529, Note_on_c, 6, 51, 78
19, 79639, Note_on_c, 6, 51, 0
19, 84804, Note_on_c, 6, 53, 65
19, 85411, Note_on_c, 6, 53, 0
19, 85441, Note_on_c, 6, 52, 52
19, 85745, Note_on_c, 6, 52, 0
19, 85765, Note_on_c, 6, 53, 57
19, 85874, Note_on_c, 6, 53, 0
19, 88169, Note_on_c, 6, 49, 73
19, 88289, Note_on_c, 6, 49, 0
19, 88649, Note_on_c, 6, 50, 64
19, 89244, Note_on_c, 6, 50, 0
19, 89285, Note_on_c, 6, 49, 57
19, 89578, Note_on_c, 6, 49, 0
19, 89603, Note_on_c, 6, 49, 69
19, 89714, Note_on_c, 6, 49, 0
19, 91529, Note_on_c, 6, 48, 54
19, 91683, Note_on_c, 6, 49, 51
19, 91684, Note_on_c, 6, 48, 0
19, 91998, Note_on_c, 6, 49, 0
19, 92009, Note_on_c, 6, 42, 52
19, 93116, Note_on_c, 6, 42, 0
19, 93127, Note_on_c, 6, 46, 52
19, 94027, Note_on_c, 6, 46, 0
19, 94080, Note_on_c, 6, 39, 48
19, 94383, Note_on_c, 6, 39, 0
19, 94409, Note_on_c, 6, 39, 63
19, 94529, Note_on_c, 6, 39, 0
19, 96005, Note_on_c, 6, 44, 55
19, 96308, Note_on_c, 6, 44, 0
19, 96328, Note_on_c, 6, 44, 63
19, 96460, Note_on_c, 6, 44, 0
19, 96489, Note_on_c, 6, 45, 57
19, 96779, Note_on_c, 6, 45, 0
19, 96808, Note_on_c, 6, 44, 68
19, 96917, Note_on_c, 6, 44, 0
19, 97929, Note_on_c, 6, 46, 54
19, 98682, Note_on_c, 6, 46, 0
19, 98729, Note_on_c, 6, 44, 54
19, 99619, Note_on_c, 6, 44, 0
19, 99687, Note_on_c, 6, 46, 63
19, 99807, Note_on_c, 6, 46, 0
19, 100168, Note_on_c, 6, 53, 61
19, 100776, Note_on_c, 6, 53, 0
19, 100809, Note_on_c, 6, 52, 51
19, 101112, Note_on_c, 6, 52, 0
19, 101129, Note_on_c, 6, 53, 57
19, 101238, Note_on_c, 6, 53, 0
19, 103529, Note_on_c, 6, 49, 64
19, 103652, Note_on_c, 6, 49, 0
19, 104009, Note_on_c, 6, 50, 63
19, 104606, Note_on_c, 6, 50, 0
19, 104648, Note_on_c, 6, 49, 50
19, 104940, Note_on_c, 6, 49, 0
19, 104964, Note_on_c, 6, 49, 64
19, 105072, Note_on_c, 6, 49, 0
19, 106886, Note_on_c, 6, 48, 52
19, 107042, Note_on_c, 6, 48, 0
19, 107048, Note_on_c, 6, 49, 54
19, 107362, Note_on_c, 6, 49, 0
19, 107369, Note_on_c, 6, 42, 53
19, 108476, Note_on_c, 6, 42, 0
19, 108489, Note_on_c, 6, 46, 53
19, 109389, Note_on_c, 6, 46, 0
19, 109448, Note_on_c, 6, 39, 52
19, 109750, Note_on_c, 6, 39, 0
19, 109764, Note_on_c, 6, 39, 65
19, 109884, Note_on_c, 6, 39, 0
19, 111365, Note_on_c, 6, 44, 54
19, 111667, Note_on_c, 6, 44, 0
19, 111685, Note_on_c, 6, 44, 62
19, 111819, Note_on_c, 6, 44, 0
19, 111844, Note_on_c, 6, 45, 54
19, 112135, Note_on_c, 6, 45, 0
19, 112163, Note_on_c, 6, 44, 68
19, 112271, Note_on_c, 6, 44, 0
19, 113125, Note_on_c, 6, 49, 56
19, 113573, Note_on_c, 6, 49, 0
19, 113599, Note_on_c, 6, 49, 64
19, 113755, Note_on_c, 6, 49, 0
19, 113769, Note_on_c, 6, 50, 59
19, 114070, Control_c, 6, 11, 104
19, 114085, Note_on_c, 6, 50, 0
19, 114088, Note_on_c, 6, 49, 78
19, 114330, Control_c, 6, 11, 105
19, 114520, Control_c, 6, 11, 106
19, 114640, Control_c, 6, 11, 108
19, 114740, Control_c, 6, 11, 109
19, 114840, Control_c, 6, 11, 110
19, 114930, Control_c, 6, 11, 113
19, 115030, Control_c, 6, 11, 115
19, 115090, Control_c, 6, 11, 118
19, 115100, Note_on_c, 6, 49, 0
19, 115150, Control_c, 6, 11, 121
19, 115180, Control_c, 6, 11, 124
19, 115190, Control_c, 6, 11, 127
19, 115200, Control_c, 6, 11, 127
19, 115529, Note_on_c, 6, 49, 65
19, 116053, Note_on_c, 6, 49, 0
19, 116164, Note_on_c, 6, 48, 65
19, 116270, Note_on_c, 6, 48, 0
19, 116647, Note_on_c, 6, 49, 60
19, 116754, Note_on_c, 6, 49, 0
19, 117128, Note_on_c, 6, 48, 60
19, 117232, Note_on_c, 6, 48, 0
19, 117609, Note_on_c, 6, 49, 61
19, 117714, Note_on_c, 6, 49, 0
19, 118089, Note_on_c, 6, 51, 51
19, 118355, Note_on_c, 6, 51, 0
19, 118407, Note_on_c, 6, 49, 64
19, 118512, Note_on_c, 6, 49, 0
19, 118887, Note_on_c, 6, 49, 57
19, 119040, Control_c, 6, 11, 127
19, 119232, Control_c, 6, 11, 127
19, 119352, Control_c, 6, 11, 125
19, 119472, Control_c, 6, 11, 124
19, 119592, Control_c, 6, 11, 121
19, 119712, Control_c, 6, 11, 119
19, 119784, Control_c, 6, 11, 116
19, 119904, Control_c, 6, 11, 113
19, 119976, Control_c, 6, 11, 110
19, 120072, Control_c, 6, 11, 106
19, 120144, Control_c, 6, 11, 103
19, 120192, Control_c, 6, 11, 100
19, 120264, Control_c, 6, 11, 96
19, 120312, Control_c, 6, 11, 93
19, 120360, Control_c, 6, 11, 90
19, 120408, Control_c, 6, 11, 86
19, 120456, Control_c, 6, 11, 82
19, 120504, Control_c, 6, 11, 79
19, 120528, Control_c, 6, 11, 76
19, 120576, Control_c, 6, 11, 72
19, 120624, Control_c, 6, 11, 67
19, 120672, Control_c, 6, 11, 61
19, 120720, Control_c, 6, 11, 55
19, 120744, Control_c, 6, 11, 51
19, 120766, Note_on_c, 6, 49, 0
19, 120768, Control_c, 6, 11, 47
19, 120792, Control_c, 6, 11, 44
19, 120816, Control_c, 6, 11, 38
19, 120840, Control_c, 6, 11, 32
19, 120864, Control_c, 6, 11, 26
19, 120888, Control_c, 6, 11, 15
19, 120936, Control_c, 6, 11, 127
19, 123208, Note_on_c, 6, 38, 73
19, 123352, Note_on_c, 6, 38, 0
19, 123369, Note_on_c, 6, 38, 71
19, 123671, Note_on_c, 6, 38, 0
19, 123687, Note_on_c, 6, 38, 78
19, 123808, Note_on_c, 6, 38, 0
19, 125256, Control_c, 6, 11, 127
19, 125289, Note_on_c, 6, 43, 76
19, 125400, Control_c, 6, 11, 127
19, 125520, Control_c, 6, 11, 125
19, 125640, Control_c, 6, 11, 123
19, 125712, Control_c, 6, 11, 120
19, 125832, Control_c, 6, 11, 116
19, 125904, Control_c, 6, 11, 113
19, 125952, Control_c, 6, 11, 110
19, 126024, Control_c, 6, 11, 106
19, 126096, Control_c, 6, 11, 103
19, 126120, Control_c, 6, 11, 100
19, 126192, Control_c, 6, 11, 95
19, 126240, Control_c, 6, 11, 91
19, 126288, Control_c, 6, 11, 86
19, 126336, Control_c, 6, 11, 81
19, 126384, Control_c, 6, 11, 76
19, 126432, Control_c, 6, 11, 70
19, 126456, Control_c, 6, 11, 66
19, 126480, Control_c, 6, 11, 62
19, 126504, Control_c, 6, 11, 59
19, 126528, Control_c, 6, 11, 55
19, 126552, Control_c, 6, 11, 50
19, 126553, Note_on_c, 6, 43, 0
19, 126576, Control_c, 6, 11, 44
19, 126600, Control_c, 6, 11, 37
19, 126624, Control_c, 6, 11, 30
19, 126648, Control_c, 6, 11, 17
19, 126696, Control_c, 6, 11, 127
19, 128489, Note_on_c, 6, 53, 82
19, 128644, Note_on_c, 6, 53, 0
19, 128647, Note_on_c, 6, 56, 77
19, 128963, Note_on_c, 6, 56, 0
19, 128965, Note_on_c, 6, 53, 85
19, 129120, Note_on_c, 6, 53, 0
19, 129128, Note_on_c, 6, 45, 65
19, 129445, Note_on_c, 6, 45, 0
19, 129445, Note_on_c, 6, 44, 85
19, 129600, Control_c, 6, 11, 127
19, 129744, Control_c, 6, 11, 125
19, 129840, Control_c, 6, 11, 121
19, 129912, Control_c, 6, 11, 118
19, 129960, Control_c, 6, 11, 115
19, 130008, Control_c, 6, 11, 110
19, 130056, Control_c, 6, 11, 106
19, 130104, Control_c, 6, 11, 101
19, 130128, Control_c, 6, 11, 98
19, 130152, Control_c, 6, 11, 95
19, 130176, Control_c, 6, 11, 91
19, 130200, Control_c, 6, 11, 88
19, 130224, Control_c, 6, 11, 84
19, 130248, Control_c, 6, 11, 79
19, 130272, Control_c, 6, 11, 75
19, 130296, Control_c, 6, 11, 69
19, 130297, Note_on_c, 6, 44, 0
19, 130320, Control_c, 6, 11, 64
19, 130344, Control_c, 6, 11, 56
19, 130368, Control_c, 6, 11, 47
19, 130392, Control_c, 6, 11, 37
19, 130416, Control_c, 6, 11, 22
19, 130536, Control_c, 6, 11, 127
19, 130889, Note_on_c, 6, 53, 91
19, 131021, Note_on_c, 6, 53, 0
19, 131526, Note_on_c, 6, 52, 58
19, 131644, Note_on_c, 6, 52, 0
19, 132006, Note_on_c, 6, 53, 64
19, 132122, Note_on_c, 6, 53, 0
19, 132489, Note_on_c, 6, 52, 62
19, 132607, Note_on_c, 6, 52, 0
19, 132967, Note_on_c, 6, 53, 52
19, 133246, Note_on_c, 6, 53, 0
19, 133280, Pitch_bend_c, 6, 8110
19, 133282, Note_on_c, 6, 54, 70
19, 133290, Pitch_bend_c, 6, 6650
19, 133300, Pitch_bend_c, 6, 6326
19, 133320, Pitch_bend_c, 6, 6163
19, 133330, Pitch_bend_c, 6, 6001
19, 133340, Pitch_bend_c, 6, 5839
19, 133350, Pitch_bend_c, 6, 5677
19, 133370, Pitch_bend_c, 6, 5839
19, 133380, Pitch_bend_c, 6, 6001
19, 133390, Pitch_bend_c, 6, 6163
19, 133400, Pitch_bend_c, 6, 6488
19, 133410, Pitch_bend_c, 6, 6650
19, 133420, Pitch_bend_c, 6, 6974
19, 133430, Pitch_bend_c, 6, 8192
19, 133866, Note_on_c, 6, 54, 0
19, 133921, Note_on_c, 6, 53, 59
19, 134025, Note_on_c, 6, 53, 0
19, 134729, Note_on_c, 6, 53, 84
19, 134865, Note_on_c, 6, 53, 0
19, 135367, Note_on_c, 6, 52, 62
19, 135485, Note_on_c, 6, 52, 0
19, 135846, Note_on_c, 6, 53, 64
19, 135962, Note_on_c, 6, 53, 0
19, 136328, Note_on_c, 6, 52, 57
19, 136445, Note_on_c, 6, 52, 0
19, 136798, Note_on_c, 6, 53, 51
19, 137078, Note_on_c, 6, 53, 0
19, 137120, Pitch_bend_c, 6, 8110
19, 137126, Note_on_c, 6, 54, 69
19, 137130, Pitch_bend_c, 6, 6650
19, 137140, Pitch_bend_c, 6, 6326
19, 137160, Pitch_bend_c, 6, 6163
19, 137170, Pitch_bend_c, 6, 6001
19, 137180, Pitch_bend_c, 6, 5839
19, 137190, Pitch_bend_c, 6, 5677
19, 137210, Pitch_bend_c, 6, 5839
19, 137220, Pitch_bend_c, 6, 6001
19, 137230, Pitch_bend_c, 6, 6163
19, 137240, Pitch_bend_c, 6, 6488
19, 137250, Pitch_bend_c, 6, 6650
19, 137260, Pitch_bend_c, 6, 6974
19, 137270, Pitch_bend_c, 6, 8192
19, 137710, Note_on_c, 6, 54, 0
19, 137767, Note_on_c, 6, 53, 63
19, 137872, Note_on_c, 6, 53, 0
19, 138569, Note_on_c, 6, 42, 69
19, 139105, Note_on_c, 6, 42, 0
19, 139209, Note_on_c, 6, 44, 61
19, 139325, Note_on_c, 6, 44, 0
19, 139685, Note_on_c, 6, 42, 66
19, 139802, Note_on_c, 6, 42, 0
19, 140167, Note_on_c, 6, 41, 55
19, 140482, Note_on_c, 6, 41, 0
19, 140488, Note_on_c, 6, 41, 71
19, 141998, Note_on_c, 6, 41, 0
19, 145272, Control_c, 6, 11, 114
19, 145285, Note_on_c, 6, 51, 71
19, 145829, Note_on_c, 6, 51, 0
19, 145927, Note_on_c, 6, 49, 70
19, 146056, Note_on_c, 6, 49, 0
19, 146408, Note_on_c, 6, 49, 78
19, 146538, Note_on_c, 6, 49, 0
19, 146886, Note_on_c, 6, 49, 73
19, 147164, Note_on_c, 6, 49, 0
19, 147205, Note_on_c, 6, 49, 70
19, 147309, Note_on_c, 6, 49, 0
19, 147681, Note_on_c, 6, 51, 84
19, 148228, Note_on_c, 6, 51, 0
19, 148327, Note_on_c, 6, 51, 67
19, 148464, Control_c, 6, 11, 115
19, 148605, Note_on_c, 6, 51, 0
19, 148649, Note_on_c, 6, 51, 74
19, 148757, Note_on_c, 6, 51, 0
19, 149762, Note_on_c, 6, 49, 78
19, 149891, Note_on_c, 6, 49, 0
19, 150242, Note_on_c, 6, 49, 71
19, 150371, Note_on_c, 6, 49, 0
19, 150600, Control_c, 6, 11, 116
19, 150729, Note_on_c, 6, 49, 73
19, 151008, Note_on_c, 6, 49, 0
19, 151048, Note_on_c, 6, 49, 72
19, 151154, Note_on_c, 6, 49, 0
19, 151529, Note_on_c, 6, 51, 80
19, 151968, Control_c, 6, 11, 118
19, 152076, Note_on_c, 6, 51, 0
19, 152168, Note_on_c, 6, 51, 67
19, 152449, Note_on_c, 6, 51, 0
19, 152487, Note_on_c, 6, 51, 78
19, 152595, Note_on_c, 6, 51, 0
19, 152952, Control_c, 6, 11, 119
19, 153607, Note_on_c, 6, 49, 75
19, 153696, Control_c, 6, 11, 120
19, 153736, Note_on_c, 6, 49, 0
19, 154086, Note_on_c, 6, 49, 79
19, 154217, Note_on_c, 6, 49, 0
19, 154296, Control_c, 6, 11, 121
19, 154569, Note_on_c, 6, 49, 66
19, 154728, Control_c, 6, 11, 123
19, 154849, Note_on_c, 6, 49, 0
19, 154889, Note_on_c, 6, 49, 72
19, 154995, Note_on_c, 6, 49, 0
19, 155040, Control_c, 6, 11, 124
19, 155256, Control_c, 6, 11, 125
19, 155328, Control_c, 6, 11, 125
19, 155352, Control_c, 6, 11, 127
19, 155360, Note_on_c, 6, 51, 79
19, 155907, Note_on_c, 6, 51, 0
19, 156009, Note_on_c, 6, 51, 70
19, 156287, Note_on_c, 6, 51, 0
19, 156328, Note_on_c, 6, 51, 71
19, 156436, Note_on_c, 6, 51, 0
19, 159129, Note_on_c, 6, 44, 42
19, 159360, Control_c, 6, 11, 127
19, 159528, Control_c, 6, 11, 127
19, 159648, Control_c, 6, 11, 125
19, 159768, Control_c, 6, 11, 124
19, 159864, Control_c, 6, 11, 121
19, 159984, Control_c, 6, 11, 118
19, 160080, Control_c, 6, 11, 115
19, 160176, Control_c, 6, 11, 111
19, 160248, Control_c, 6, 11, 108
19, 160296, Control_c, 6, 11, 105
19, 160368, Control_c, 6, 11, 101
19, 160440, Control_c, 6, 11, 98
19, 160464, Control_c, 6, 11, 95
19, 160536, Control_c, 6, 11, 90
19, 160584, Control_c, 6, 11, 86
19, 160632, Control_c, 6, 11, 82
19, 160680, Control_c, 6, 11, 79
19, 160704, Control_c, 6, 11, 76
19, 160752, Control_c, 6, 11, 70
19, 160776, Control_c, 6, 11, 67
19, 160824, Control_c, 6, 11, 61
19, 160848, Control_c, 6, 11, 57
19, 160896, Control_c, 6, 11, 50
19, 160920, Control_c, 6, 11, 46
19, 160944, Control_c, 6, 11, 41
19, 160957, Note_on_c, 6, 44, 0
19, 160968, Control_c, 6, 11, 35
19, 160992, Control_c, 6, 11, 27
19, 161016, Control_c, 6, 11, 16
19, 161256, Control_c, 6, 11, 127
19, 161758, Note_on_c, 6, 42, 72
19, 161898, Note_on_c, 6, 42, 0
19, 162249, Note_on_c, 6, 40, 51
19, 162527, Note_on_c, 6, 40, 0
19, 162569, Note_on_c, 6, 40, 61
19, 162673, Note_on_c, 6, 40, 0
19, 163048, Note_on_c, 6, 39, 49
19, 163619, Note_on_c, 6, 39, 0
19, 163687, Note_on_c, 6, 38, 49
19, 163978, Note_on_c, 6, 38, 0
19, 164009, Note_on_c, 6, 37, 51
19, 164142, Note_on_c, 6, 37, 0
19, 168960, Control_c, 6, 123, 0
19, 168960, End_track
20, 0, Start_track
20, 0, MIDI_port, 0
20, 0, Title_t, "Trumpet 1"
20, 0, Program_c, 7, 56
20, 0, Control_c, 7, 7, 127
20, 0, Control_c, 7, 10, 79
20, 0, Control_c, 7, 91, 100
20, 0, Control_c, 7, 93, 10
20, 0, Control_c, 7, 11, 127
20, 0, Control_c, 7, 123, 0
20, 5289, Note_on_c, 7, 73, 109
20, 5579, Note_on_c, 7, 73, 0
20, 5609, Note_on_c, 7, 72, 89
20, 5742, Note_on_c, 7, 72, 0
20, 5769, Note_on_c, 7, 73, 100
20, 5873, Note_on_c, 7, 73, 0
20, 6249, Note_on_c, 7, 61, 80
20, 6540, Note_on_c, 7, 61, 0
20, 6569, Note_on_c, 7, 60, 61
20, 6701, Note_on_c, 7, 60, 0
20, 6721, Note_on_c, 7, 61, 72
20, 6825, Note_on_c, 7, 61, 0
20, 19529, Note_on_c, 7, 72, 71
20, 19657, Note_on_c, 7, 72, 0
20, 20007, Note_on_c, 7, 73, 57
20, 20139, Note_on_c, 7, 73, 0
20, 20168, Note_on_c, 7, 72, 64
20, 20274, Note_on_c, 7, 72, 0
20, 20968, Note_on_c, 7, 72, 78
20, 21065, Note_on_c, 7, 72, 0
20, 21448, Note_on_c, 7, 73, 64
20, 21581, Note_on_c, 7, 73, 0
20, 21602, Note_on_c, 7, 72, 69
20, 21708, Note_on_c, 7, 72, 0
20, 22409, Note_on_c, 7, 72, 77
20, 22538, Note_on_c, 7, 72, 0
20, 22888, Note_on_c, 7, 73, 57
20, 23023, Note_on_c, 7, 73, 0
20, 23048, Note_on_c, 7, 72, 77
20, 23154, Note_on_c, 7, 72, 0
20, 38728, Note_on_c, 7, 73, 87
20, 39252, Note_on_c, 7, 73, 0
20, 39367, Note_on_c, 7, 72, 76
20, 39472, Note_on_c, 7, 72, 0
20, 39847, Note_on_c, 7, 73, 80
20, 39951, Note_on_c, 7, 73, 0
20, 40328, Note_on_c, 7, 72, 84
20, 40433, Note_on_c, 7, 72, 0
20, 40809, Note_on_c, 7, 73, 78
20, 40913, Note_on_c, 7, 73, 0
20, 41283, Note_on_c, 7, 75, 75
20, 41550, Note_on_c, 7, 75, 0
20, 41606, Note_on_c, 7, 73, 80
20, 41710, Note_on_c, 7, 73, 0
20, 42087, Note_on_c, 7, 68, 77
20, 42240, Control_c, 7, 11, 127
20, 42432, Control_c, 7, 11, 127
20, 42552, Control_c, 7, 11, 125
20, 42672, Control_c, 7, 11, 124
20, 42792, Control_c, 7, 11, 121
20, 42912, Control_c, 7, 11, 119
20, 42984, Control_c, 7, 11, 116
20, 43104, Control_c, 7, 11, 113
20, 43176, Control_c, 7, 11, 110
20, 43272, Control_c, 7, 11, 106
20, 43344, Control_c, 7, 11, 103
20, 43392, Control_c, 7, 11, 100
20, 43464, Control_c, 7, 11, 96
20, 43512, Control_c, 7, 11, 93
20, 43560, Control_c, 7, 11, 90
20, 43608, Control_c, 7, 11, 86
20, 43656, Control_c, 7, 11, 82
20, 43704, Control_c, 7, 11, 79
20, 43728, Control_c, 7, 11, 76
20, 43776, Control_c, 7, 11, 72
20, 43824, Control_c, 7, 11, 67
20, 43872, Control_c, 7, 11, 61
20, 43920, Control_c, 7, 11, 55
20, 43944, Control_c, 7, 11, 51
20, 43965, Note_on_c, 7, 68, 0
20, 43968, Control_c, 7, 11, 47
20, 43992, Control_c, 7, 11, 44
20, 44016, Control_c, 7, 11, 38
20, 44040, Control_c, 7, 11, 32
20, 44064, Control_c, 7, 11, 26
20, 44088, Control_c, 7, 11, 15
20, 44136, Control_c, 7, 11, 127
20, 44486, Note_on_c, 7, 65, 95
20, 44911, Note_on_c, 7, 65, 0
20, 44969, Note_on_c, 7, 65, 87
20, 45102, Note_on_c, 7, 65, 0
20, 45128, Note_on_c, 7, 68, 90
20, 45233, Note_on_c, 7, 68, 0
20, 45607, Note_on_c, 7, 70, 92
20, 45712, Note_on_c, 7, 70, 0
20, 46080, Pitch_bend_c, 7, 6650
20, 46087, Note_on_c, 7, 71, 91
20, 46092, Pitch_bend_c, 7, 6163
20, 46104, Pitch_bend_c, 7, 5515
20, 46116, Pitch_bend_c, 7, 5190
20, 46128, Pitch_bend_c, 7, 4866
20, 46140, Pitch_bend_c, 7, 5028
20, 46152, Pitch_bend_c, 7, 5190
20, 46164, Pitch_bend_c, 7, 5515
20, 46176, Pitch_bend_c, 7, 5677
20, 46188, Pitch_bend_c, 7, 6001
20, 46212, Pitch_bend_c, 7, 6326
20, 46224, Pitch_bend_c, 7, 6650
20, 46236, Pitch_bend_c, 7, 7299
20, 46248, Pitch_bend_c, 7, 7785
20, 46260, Pitch_bend_c, 7, 8192
20, 47464, Note_on_c, 7, 71, 0
20, 47528, Note_on_c, 7, 70, 86
20, 47820, Note_on_c, 7, 70, 0
20, 47849, Note_on_c, 7, 68, 97
20, 48432, Note_on_c, 7, 68, 0
20, 48481, Note_on_c, 7, 67, 79
20, 48772, Note_on_c, 7, 67, 0
20, 48807, Note_on_c, 7, 62, 98
20, 48940, Note_on_c, 7, 62, 0
20, 48967, Note_on_c, 7, 66, 83
20, 49233, Note_on_c, 7, 66, 0
20, 49289, Note_on_c, 7, 65, 96
20, 49394, Note_on_c, 7, 65, 0
20, 49767, Note_on_c, 7, 63, 97
20, 49920, Control_c, 7, 11, 127
20, 49968, Control_c, 7, 11, 124
20, 50016, Control_c, 7, 11, 120
20, 50088, Control_c, 7, 11, 115
20, 50160, Control_c, 7, 11, 110
20, 50232, Control_c, 7, 11, 106
20, 50280, Control_c, 7, 11, 103
20, 50328, Control_c, 7, 11, 99
20, 50376, Control_c, 7, 11, 96
20, 50400, Control_c, 7, 11, 94
20, 50400, Control_c, 7, 11, 94
20, 50952, Control_c, 7, 11, 95
20, 51360, Control_c, 7, 11, 96
20, 51624, Control_c, 7, 11, 98
20, 51816, Control_c, 7, 11, 99
20, 51984, Control_c, 7, 11, 100
20, 52152, Control_c, 7, 11, 101
20, 52272, Control_c, 7, 11, 103
20, 52392, Control_c, 7, 11, 104
20, 52512, Control_c, 7, 11, 105
20, 52632, Control_c, 7, 11, 106
20, 52752, Control_c, 7, 11, 109
20, 52872, Control_c, 7, 11, 111
20, 52992, Control_c, 7, 11, 114
20, 53112, Control_c, 7, 11, 118
20, 53184, Control_c, 7, 11, 121
20, 53208, Control_c, 7, 11, 124
20, 53256, Control_c, 7, 11, 127
20, 53309, Note_on_c, 7, 63, 0
20, 54085, Note_on_c, 7, 65, 92
20, 54218, Note_on_c, 7, 65, 0
20, 57928, Note_on_c, 7, 65, 90
20, 58060, Note_on_c, 7, 65, 0
20, 61752, Control_c, 7, 11, 114
20, 61764, Note_on_c, 7, 70, 83
20, 62288, Note_on_c, 7, 70, 0
20, 62404, Note_on_c, 7, 69, 72
20, 62424, Control_c, 7, 11, 115
20, 62510, Note_on_c, 7, 69, 0
20, 62856, Control_c, 7, 11, 116
20, 62887, Note_on_c, 7, 70, 73
20, 62992, Note_on_c, 7, 70, 0
20, 63144, Control_c, 7, 11, 118
20, 63336, Control_c, 7, 11, 119
20, 63369, Note_on_c, 7, 71, 70
20, 63504, Control_c, 7, 11, 120
20, 63624, Control_c, 7, 11, 121
20, 63671, Note_on_c, 7, 71, 0
20, 63677, Note_on_c, 7, 72, 78
20, 63744, Control_c, 7, 11, 123
20, 63816, Control_c, 7, 11, 125
20, 63840, Control_c, 7, 11, 127
20, 63840, Control_c, 7, 11, 127
20, 63984, Control_c, 7, 11, 127
20, 64104, Control_c, 7, 11, 125
20, 64224, Control_c, 7, 11, 123
20, 64296, Control_c, 7, 11, 120
20, 64392, Control_c, 7, 11, 116
20, 64488, Control_c, 7, 11, 113
20, 64536, Control_c, 7, 11, 110
20, 64608, Control_c, 7, 11, 106
20, 64656, Control_c, 7, 11, 103
20, 64704, Control_c, 7, 11, 99
20, 64752, Control_c, 7, 11, 96
20, 64800, Control_c, 7, 11, 91
20, 64848, Control_c, 7, 11, 88
20, 64872, Control_c, 7, 11, 85
20, 64896, Control_c, 7, 11, 82
20, 64944, Control_c, 7, 11, 76
20, 64992, Control_c, 7, 11, 70
20, 65016, Control_c, 7, 11, 67
20, 65040, Control_c, 7, 11, 64
20, 65064, Control_c, 7, 11, 59
20, 65088, Control_c, 7, 11, 55
20, 65112, Control_c, 7, 11, 50
20, 65136, Control_c, 7, 11, 45
20, 65160, Control_c, 7, 11, 37
20, 65175, Note_on_c, 7, 72, 0
20, 65184, Control_c, 7, 11, 30
20, 65208, Control_c, 7, 11, 17
20, 65256, Control_c, 7, 11, 127
20, 65601, Note_on_c, 7, 77, 98
20, 65730, Note_on_c, 7, 77, 0
20, 66083, Note_on_c, 7, 75, 83
20, 66203, Note_on_c, 7, 75, 0
20, 66244, Note_on_c, 7, 77, 98
20, 66348, Note_on_c, 7, 77, 0
20, 67043, Note_on_c, 7, 79, 90
20, 67152, Note_on_c, 7, 79, 0
20, 67529, Note_on_c, 7, 77, 78
20, 67650, Note_on_c, 7, 77, 0
20, 67687, Note_on_c, 7, 79, 92
20, 67780, Note_on_c, 7, 79, 0
20, 68472, Control_c, 7, 11, 114
20, 68480, Note_on_c, 7, 65, 78
20, 69012, Note_on_c, 7, 65, 0
20, 69126, Note_on_c, 7, 68, 87
20, 69242, Note_on_c, 7, 68, 0
20, 69608, Note_on_c, 7, 68, 91
20, 69726, Note_on_c, 7, 68, 0
20, 70089, Note_on_c, 7, 68, 72
20, 70355, Note_on_c, 7, 68, 0
20, 70407, Note_on_c, 7, 68, 79
20, 70500, Note_on_c, 7, 68, 0
20, 70888, Note_on_c, 7, 73, 87
20, 71424, Note_on_c, 7, 73, 0
20, 71529, Note_on_c, 7, 73, 73
20, 71664, Control_c, 7, 11, 115
20, 71795, Note_on_c, 7, 73, 0
20, 71849, Note_on_c, 7, 73, 79
20, 71945, Note_on_c, 7, 73, 0
20, 72965, Note_on_c, 7, 68, 85
20, 73083, Note_on_c, 7, 68, 0
20, 73442, Note_on_c, 7, 68, 89
20, 73558, Note_on_c, 7, 68, 0
20, 73800, Control_c, 7, 11, 116
20, 73929, Note_on_c, 7, 68, 73
20, 74196, Note_on_c, 7, 68, 0
20, 74246, Note_on_c, 7, 68, 85
20, 74338, Note_on_c, 7, 68, 0
20, 74727, Note_on_c, 7, 73, 83
20, 75168, Control_c, 7, 11, 118
20, 75263, Note_on_c, 7, 73, 0
20, 75367, Note_on_c, 7, 73, 70
20, 75633, Note_on_c, 7, 73, 0
20, 75684, Note_on_c, 7, 73, 85
20, 75781, Note_on_c, 7, 73, 0
20, 76152, Control_c, 7, 11, 119
20, 76808, Note_on_c, 7, 68, 83
20, 76896, Control_c, 7, 11, 120
20, 76925, Note_on_c, 7, 68, 0
20, 77286, Note_on_c, 7, 68, 84
20, 77402, Note_on_c, 7, 68, 0
20, 77496, Control_c, 7, 11, 121
20, 77763, Note_on_c, 7, 68, 73
20, 77928, Control_c, 7, 11, 123
20, 78029, Note_on_c, 7, 68, 0
20, 78086, Note_on_c, 7, 68, 82
20, 78180, Note_on_c, 7, 68, 0
20, 78240, Control_c, 7, 11, 124
20, 78456, Control_c, 7, 11, 125
20, 78528, Control_c, 7, 11, 125
20, 78552, Control_c, 7, 11, 127
20, 78561, Note_on_c, 7, 73, 86
20, 79097, Note_on_c, 7, 73, 0
20, 79207, Note_on_c, 7, 73, 74
20, 79476, Note_on_c, 7, 73, 0
20, 79529, Note_on_c, 7, 73, 76
20, 79625, Note_on_c, 7, 73, 0
20, 81927, Note_on_c, 7, 80, 89
20, 82512, Note_on_c, 7, 80, 0
20, 82569, Note_on_c, 7, 77, 77
20, 83313, Note_on_c, 7, 77, 0
20, 83367, Note_on_c, 7, 70, 65
20, 84243, Note_on_c, 7, 70, 0
20, 84328, Note_on_c, 7, 68, 51
20, 84436, Note_on_c, 7, 68, 0
20, 97929, Note_on_c, 7, 73, 62
20, 98671, Note_on_c, 7, 73, 0
20, 98727, Note_on_c, 7, 72, 63
20, 99603, Note_on_c, 7, 72, 0
20, 99689, Note_on_c, 7, 70, 71
20, 99797, Note_on_c, 7, 70, 0
20, 115526, Note_on_c, 7, 73, 88
20, 116050, Note_on_c, 7, 73, 0
20, 116164, Note_on_c, 7, 72, 80
20, 116268, Note_on_c, 7, 72, 0
20, 116648, Note_on_c, 7, 73, 79
20, 116752, Note_on_c, 7, 73, 0
20, 117126, Note_on_c, 7, 72, 79
20, 117231, Note_on_c, 7, 72, 0
20, 117609, Note_on_c, 7, 73, 77
20, 117714, Note_on_c, 7, 73, 0
20, 118085, Note_on_c, 7, 75, 78
20, 118353, Note_on_c, 7, 75, 0
20, 118409, Note_on_c, 7, 73, 78
20, 118513, Note_on_c, 7, 73, 0
20, 118888, Note_on_c, 7, 68, 82
20, 119040, Control_c, 7, 11, 127
20, 119232, Control_c, 7, 11, 127
20, 119352, Control_c, 7, 11, 125
20, 119472, Control_c, 7, 11, 124
20, 119592, Control_c, 7, 11, 121
20, 119712, Control_c, 7, 11, 119
20, 119784, Control_c, 7, 11, 116
20, 119904, Control_c, 7, 11, 113
20, 119976, Control_c, 7, 11, 110
20, 120072, Control_c, 7, 11, 106
20, 120144, Control_c, 7, 11, 103
20, 120192, Control_c, 7, 11, 100
20, 120264, Control_c, 7, 11, 96
20, 120312, Control_c, 7, 11, 93
20, 120360, Control_c, 7, 11, 90
20, 120408, Control_c, 7, 11, 86
20, 120456, Control_c, 7, 11, 82
20, 120504, Control_c, 7, 11, 79
20, 120528, Control_c, 7, 11, 76
20, 120576, Control_c, 7, 11, 72
20, 120624, Control_c, 7, 11, 67
20, 120672, Control_c, 7, 11, 61
20, 120720, Control_c, 7, 11, 55
20, 120744, Control_c, 7, 11, 51
20, 120766, Note_on_c, 7, 68, 0
20, 120768, Control_c, 7, 11, 47
20, 120792, Control_c, 7, 11, 44
20, 120816, Control_c, 7, 11, 38
20, 120840, Control_c, 7, 11, 32
20, 120864, Control_c, 7, 11, 26
20, 120888, Control_c, 7, 11, 15
20, 120936, Control_c, 7, 11, 127
20, 121289, Note_on_c, 7, 65, 96
20, 121417, Note_on_c, 7, 65, 0
20, 121766, Note_on_c, 7, 65, 86
20, 121898, Note_on_c, 7, 65, 0
20, 121926, Note_on_c, 7, 68, 94
20, 122033, Note_on_c, 7, 68, 0
20, 122403, Note_on_c, 7, 70, 97
20, 122507, Note_on_c, 7, 70, 0
20, 122880, Pitch_bend_c, 7, 6650
20, 122888, Note_on_c, 7, 71, 95
20, 122892, Pitch_bend_c, 7, 6163
20, 122904, Pitch_bend_c, 7, 5515
20, 122916, Pitch_bend_c, 7, 5190
20, 122928, Pitch_bend_c, 7, 4866
20, 122940, Pitch_bend_c, 7, 5028
20, 122952, Pitch_bend_c, 7, 5190
20, 122964, Pitch_bend_c, 7, 5515
20, 122976, Pitch_bend_c, 7, 5677
20, 122988, Pitch_bend_c, 7, 6001
20, 123012, Pitch_bend_c, 7, 6326
20, 123024, Pitch_bend_c, 7, 6650
20, 123036, Pitch_bend_c, 7, 7299
20, 123048, Pitch_bend_c, 7, 7785
20, 123060, Pitch_bend_c, 7, 8192
20, 124264, Note_on_c, 7, 71, 0
20, 124328, Note_on_c, 7, 70, 84
20, 124618, Note_on_c, 7, 70, 0
20, 124649, Note_on_c, 7, 68, 97
20, 125233, Note_on_c, 7, 68, 0
20, 125287, Note_on_c, 7, 67, 81
20, 125578, Note_on_c, 7, 67, 0
20, 125604, Note_on_c, 7, 62, 98
20, 125736, Note_on_c, 7, 62, 0
20, 125761, Note_on_c, 7, 66, 90
20, 126027, Note_on_c, 7, 66, 0
20, 126086, Note_on_c, 7, 65, 91
20, 126190, Note_on_c, 7, 65, 0
20, 126564, Note_on_c, 7, 63, 103
20, 126720, Control_c, 7, 11, 127
20, 126768, Control_c, 7, 11, 124
20, 126816, Control_c, 7, 11, 120
20, 126888, Control_c, 7, 11, 115
20, 126960, Control_c, 7, 11, 110
20, 127032, Control_c, 7, 11, 106
20, 127080, Control_c, 7, 11, 103
20, 127128, Control_c, 7, 11, 99
20, 127176, Control_c, 7, 11, 96
20, 127200, Control_c, 7, 11, 94
20, 127200, Control_c, 7, 11, 94
20, 127752, Control_c, 7, 11, 95
20, 128160, Control_c, 7, 11, 96
20, 128424, Control_c, 7, 11, 98
20, 128616, Control_c, 7, 11, 99
20, 128784, Control_c, 7, 11, 100
20, 128952, Control_c, 7, 11, 101
20, 129072, Control_c, 7, 11, 103
20, 129192, Control_c, 7, 11, 104
20, 129312, Control_c, 7, 11, 105
20, 129432, Control_c, 7, 11, 106
20, 129552, Control_c, 7, 11, 109
20, 129672, Control_c, 7, 11, 111
20, 129792, Control_c, 7, 11, 114
20, 129912, Control_c, 7, 11, 118
20, 129984, Control_c, 7, 11, 121
20, 130008, Control_c, 7, 11, 124
20, 130056, Control_c, 7, 11, 127
20, 130105, Note_on_c, 7, 63, 0
20, 130888, Note_on_c, 7, 65, 85
20, 131020, Note_on_c, 7, 65, 0
20, 134726, Note_on_c, 7, 65, 85
20, 134861, Note_on_c, 7, 65, 0
20, 138552, Control_c, 7, 11, 114
20, 138568, Note_on_c, 7, 70, 82
20, 139092, Note_on_c, 7, 70, 0
20, 139207, Note_on_c, 7, 69, 73
20, 139224, Control_c, 7, 11, 115
20, 139312, Note_on_c, 7, 69, 0
20, 139656, Control_c, 7, 11, 116
20, 139688, Note_on_c, 7, 70, 71
20, 139792, Note_on_c, 7, 70, 0
20, 139944, Control_c, 7, 11, 118
20, 140136, Control_c, 7, 11, 119
20, 140166, Note_on_c, 7, 71, 74
20, 140304, Control_c, 7, 11, 120
20, 140424, Control_c, 7, 11, 121
20, 140468, Note_on_c, 7, 71, 0
20, 140489, Note_on_c, 7, 72, 81
20, 140544, Control_c, 7, 11, 123
20, 140616, Control_c, 7, 11, 125
20, 140640, Control_c, 7, 11, 127
20, 140640, Control_c, 7, 11, 127
20, 140784, Control_c, 7, 11, 127
20, 140904, Control_c, 7, 11, 125
20, 141024, Control_c, 7, 11, 123
20, 141096, Control_c, 7, 11, 120
20, 141192, Control_c, 7, 11, 116
20, 141288, Control_c, 7, 11, 113
20, 141336, Control_c, 7, 11, 110
20, 141408, Control_c, 7, 11, 106
20, 141456, Control_c, 7, 11, 103
20, 141504, Control_c, 7, 11, 99
20, 141552, Control_c, 7, 11, 96
20, 141600, Control_c, 7, 11, 91
20, 141648, Control_c, 7, 11, 88
20, 141672, Control_c, 7, 11, 85
20, 141696, Control_c, 7, 11, 82
20, 141744, Control_c, 7, 11, 76
20, 141792, Control_c, 7, 11, 70
20, 141816, Control_c, 7, 11, 67
20, 141840, Control_c, 7, 11, 64
20, 141864, Control_c, 7, 11, 59
20, 141888, Control_c, 7, 11, 55
20, 141912, Control_c, 7, 11, 50
20, 141936, Control_c, 7, 11, 45
20, 141960, Control_c, 7, 11, 37
20, 141984, Control_c, 7, 11, 30
20, 141988, Note_on_c, 7, 72, 0
20, 142008, Control_c, 7, 11, 17
20, 142056, Control_c, 7, 11, 127
20, 142409, Note_on_c, 7, 77, 94
20, 142539, Note_on_c, 7, 77, 0
20, 142889, Note_on_c, 7, 75, 88
20, 143009, Note_on_c, 7, 75, 0
20, 143049, Note_on_c, 7, 77, 95
20, 143155, Note_on_c, 7, 77, 0
20, 143847, Note_on_c, 7, 79, 96
20, 143955, Note_on_c, 7, 79, 0
20, 144329, Note_on_c, 7, 77, 77
20, 144449, Note_on_c, 7, 77, 0
20, 144488, Note_on_c, 7, 79, 91
20, 144580, Note_on_c, 7, 79, 0
20, 145272, Control_c, 7, 11, 114
20, 145288, Note_on_c, 7, 65, 78
20, 145820, Note_on_c, 7, 65, 0
20, 145924, Note_on_c, 7, 68, 89
20, 146041, Note_on_c, 7, 68, 0
20, 146409, Note_on_c, 7, 68, 83
20, 146526, Note_on_c, 7, 68, 0
20, 146888, Note_on_c, 7, 68, 72
20, 147154, Note_on_c, 7, 68, 0
20, 147203, Note_on_c, 7, 68, 84
20, 147295, Note_on_c, 7, 68, 0
20, 147686, Note_on_c, 7, 73, 89
20, 148224, Note_on_c, 7, 73, 0
20, 148329, Note_on_c, 7, 73, 72
20, 148464, Control_c, 7, 11, 115
20, 148596, Note_on_c, 7, 73, 0
20, 148648, Note_on_c, 7, 73, 81
20, 148748, Note_on_c, 7, 73, 0
20, 149767, Note_on_c, 7, 68, 87
20, 149884, Note_on_c, 7, 68, 0
20, 150248, Note_on_c, 7, 68, 87
20, 150367, Note_on_c, 7, 68, 0
20, 150600, Control_c, 7, 11, 116
20, 150725, Note_on_c, 7, 68, 74
20, 150991, Note_on_c, 7, 68, 0
20, 151048, Note_on_c, 7, 68, 82
20, 151140, Note_on_c, 7, 68, 0
20, 151529, Note_on_c, 7, 73, 92
20, 151968, Control_c, 7, 11, 118
20, 152065, Note_on_c, 7, 73, 0
20, 152168, Note_on_c, 7, 73, 70
20, 152434, Note_on_c, 7, 73, 0
20, 152484, Note_on_c, 7, 73, 80
20, 152581, Note_on_c, 7, 73, 0
20, 152952, Control_c, 7, 11, 119
20, 153604, Note_on_c, 7, 68, 85
20, 153696, Control_c, 7, 11, 120
20, 153720, Note_on_c, 7, 68, 0
20, 154087, Note_on_c, 7, 68, 92
20, 154204, Note_on_c, 7, 68, 0
20, 154296, Control_c, 7, 11, 121
20, 154567, Note_on_c, 7, 68, 77
20, 154728, Control_c, 7, 11, 123
20, 154835, Note_on_c, 7, 68, 0
20, 154879, Note_on_c, 7, 68, 76
20, 154972, Note_on_c, 7, 68, 0
20, 155040, Control_c, 7, 11, 124
20, 155256, Control_c, 7, 11, 125
20, 155328, Control_c, 7, 11, 125
20, 155352, Control_c, 7, 11, 127
20, 155369, Note_on_c, 7, 73, 83
20, 155905, Note_on_c, 7, 73, 0
20, 156009, Note_on_c, 7, 73, 75
20, 156275, Note_on_c, 7, 73, 0
20, 156323, Note_on_c, 7, 73, 84
20, 156419, Note_on_c, 7, 73, 0
20, 157925, Note_on_c, 7, 73, 84
20, 158053, Note_on_c, 7, 73, 0
20, 158409, Note_on_c, 7, 73, 76
20, 158676, Note_on_c, 7, 73, 0
20, 158724, Note_on_c, 7, 73, 90
20, 158816, Note_on_c, 7, 73, 0
20, 159206, Note_on_c, 7, 80, 95
20, 159314, Note_on_c, 7, 80, 0
20, 161769, Note_on_c, 7, 73, 89
20, 161897, Note_on_c, 7, 73, 0
20, 162245, Note_on_c, 7, 73, 72
20, 162511, Note_on_c, 7, 73, 0
20, 162569, Note_on_c, 7, 73, 82
20, 162663, Note_on_c, 7, 73, 0
20, 163048, Note_on_c, 7, 68, 73
20, 163441, Note_on_c, 7, 68, 0
20, 163443, Note_on_c, 7, 67, 12
20, 163480, Note_on_c, 7, 67, 0
20, 163489, Note_on_c, 7, 66, 14
20, 163526, Note_on_c, 7, 65, 14
20, 163527, Note_on_c, 7, 66, 0
20, 163564, Note_on_c, 7, 65, 0
20, 163569, Note_on_c, 7, 64, 15
20, 163605, Note_on_c, 7, 63, 31
20, 163609, Note_on_c, 7, 64, 0
20, 163643, Note_on_c, 7, 63, 0
20, 163649, Note_on_c, 7, 62, 44
20, 163686, Note_on_c, 7, 62, 0
20, 163689, Note_on_c, 7, 61, 59
20, 163967, Note_on_c, 7, 61, 0
20, 164009, Note_on_c, 7, 61, 64
20, 164129, Note_on_c, 7, 61, 0
20, 168960, Control_c, 7, 123, 0
20, 168960, End_track
21, 0, Start_track
21, 0, MIDI_port, 0
21, 0, Title_t, "Trumpet 2"
21, 0, Program_c, 8, 56
21, 0, Control_c, 8, 7, 127
21, 0, Control_c, 8, 10, 64
21, 0, Control_c, 8, 91, 100
21, 0, Control_c, 8, 93, 10
21, 0, Control_c, 8, 11, 127
21, 0, Control_c, 8, 123, 0
21, 5285, Note_on_c, 8, 70, 98
21, 5575, Note_on_c, 8, 70, 0
21, 5605, Note_on_c, 8, 69, 85
21, 5737, Note_on_c, 8, 69, 0
21, 5764, Note_on_c, 8, 70, 97
21, 5869, Note_on_c, 8, 70, 0
21, 6246, Note_on_c, 8, 58, 73
21, 6536, Note_on_c, 8, 58, 0
21, 6569, Note_on_c, 8, 57, 60
21, 6702, Note_on_c, 8, 57, 0
21, 6728, Note_on_c, 8, 58, 65
21, 6834, Note_on_c, 8, 58, 0
21, 19526, Note_on_c, 8, 68, 64
21, 19655, Note_on_c, 8, 68, 0
21, 20004, Note_on_c, 8, 68, 55
21, 20136, Note_on_c, 8, 68, 0
21, 20166, Note_on_c, 8, 68, 58
21, 20271, Note_on_c, 8, 68, 0
21, 20967, Note_on_c, 8, 68, 73
21, 21064, Note_on_c, 8, 68, 0
21, 21445, Note_on_c, 8, 68, 55
21, 21577, Note_on_c, 8, 68, 0
21, 21607, Note_on_c, 8, 68, 58
21, 21711, Note_on_c, 8, 68, 0
21, 22404, Note_on_c, 8, 68, 69
21, 22532, Note_on_c, 8, 68, 0
21, 22889, Note_on_c, 8, 68, 55
21, 23022, Note_on_c, 8, 68, 0
21, 23044, Note_on_c, 8, 68, 64
21, 23149, Note_on_c, 8, 68, 0
21, 38728, Note_on_c, 8, 70, 83
21, 39256, Note_on_c, 8, 70, 0
21, 39368, Note_on_c, 8, 69, 70
21, 39472, Note_on_c, 8, 69, 0
21, 39849, Note_on_c, 8, 70, 74
21, 39953, Note_on_c, 8, 70, 0
21, 40328, Note_on_c, 8, 69, 79
21, 40433, Note_on_c, 8, 69, 0
21, 40804, Note_on_c, 8, 70, 72
21, 40909, Note_on_c, 8, 70, 0
21, 41286, Note_on_c, 8, 73, 66
21, 41554, Note_on_c, 8, 73, 0
21, 41606, Note_on_c, 8, 70, 77
21, 41710, Note_on_c, 8, 70, 0
21, 42086, Note_on_c, 8, 65, 79
21, 42240, Control_c, 8, 11, 127
21, 42432, Control_c, 8, 11, 127
21, 42552, Control_c, 8, 11, 125
21, 42672, Control_c, 8, 11, 124
21, 42792, Control_c, 8, 11, 121
21, 42912, Control_c, 8, 11, 119
21, 42984, Control_c, 8, 11, 116
21, 43104, Control_c, 8, 11, 113
21, 43176, Control_c, 8, 11, 110
21, 43272, Control_c, 8, 11, 106
21, 43344, Control_c, 8, 11, 103
21, 43392, Control_c, 8, 11, 100
21, 43464, Control_c, 8, 11, 96
21, 43512, Control_c, 8, 11, 93
21, 43560, Control_c, 8, 11, 90
21, 43608, Control_c, 8, 11, 86
21, 43656, Control_c, 8, 11, 82
21, 43704, Control_c, 8, 11, 79
21, 43728, Control_c, 8, 11, 76
21, 43776, Control_c, 8, 11, 72
21, 43824, Control_c, 8, 11, 67
21, 43872, Control_c, 8, 11, 61
21, 43920, Control_c, 8, 11, 55
21, 43944, Control_c, 8, 11, 51
21, 43965, Note_on_c, 8, 65, 0
21, 43968, Control_c, 8, 11, 47
21, 43992, Control_c, 8, 11, 44
21, 44016, Control_c, 8, 11, 38
21, 44040, Control_c, 8, 11, 32
21, 44064, Control_c, 8, 11, 26
21, 44088, Control_c, 8, 11, 15
21, 44136, Control_c, 8, 11, 127
21, 54087, Note_on_c, 8, 61, 84
21, 54221, Note_on_c, 8, 61, 0
21, 57925, Note_on_c, 8, 61, 80
21, 58057, Note_on_c, 8, 61, 0
21, 61752, Control_c, 8, 11, 114
21, 61769, Note_on_c, 8, 66, 75
21, 62295, Note_on_c, 8, 66, 0
21, 62408, Note_on_c, 8, 65, 68
21, 62424, Control_c, 8, 11, 115
21, 62512, Note_on_c, 8, 65, 0
21, 62856, Control_c, 8, 11, 116
21, 62888, Note_on_c, 8, 66, 67
21, 62992, Note_on_c, 8, 66, 0
21, 63144, Control_c, 8, 11, 118
21, 63336, Control_c, 8, 11, 119
21, 63366, Note_on_c, 8, 69, 70
21, 63504, Control_c, 8, 11, 120
21, 63624, Control_c, 8, 11, 121
21, 63668, Note_on_c, 8, 69, 0
21, 63688, Note_on_c, 8, 69, 72
21, 63744, Control_c, 8, 11, 123
21, 63816, Control_c, 8, 11, 125
21, 63840, Control_c, 8, 11, 127
21, 63840, Control_c, 8, 11, 127
21, 63984, Control_c, 8, 11, 127
21, 64104, Control_c, 8, 11, 125
21, 64224, Control_c, 8, 11, 123
21, 64296, Control_c, 8, 11, 120
21, 64392, Control_c, 8, 11, 116
21, 64488, Control_c, 8, 11, 113
21, 64536, Control_c, 8, 11, 110
21, 64608, Control_c, 8, 11, 106
21, 64656, Control_c, 8, 11, 103
21, 64704, Control_c, 8, 11, 99
21, 64752, Control_c, 8, 11, 96
21, 64800, Control_c, 8, 11, 91
21, 64848, Control_c, 8, 11, 88
21, 64872, Control_c, 8, 11, 85
21, 64896, Control_c, 8, 11, 82
21, 64944, Control_c, 8, 11, 76
21, 64992, Control_c, 8, 11, 70
21, 65016, Control_c, 8, 11, 67
21, 65040, Control_c, 8, 11, 64
21, 65064, Control_c, 8, 11, 59
21, 65088, Control_c, 8, 11, 55
21, 65112, Control_c, 8, 11, 50
21, 65136, Control_c, 8, 11, 45
21, 65160, Control_c, 8, 11, 37
21, 65184, Control_c, 8, 11, 30
21, 65186, Note_on_c, 8, 69, 0
21, 65208, Control_c, 8, 11, 17
21, 65256, Control_c, 8, 11, 127
21, 65607, Note_on_c, 8, 73, 83
21, 65736, Note_on_c, 8, 73, 0
21, 66082, Note_on_c, 8, 73, 78
21, 66202, Note_on_c, 8, 73, 0
21, 66245, Note_on_c, 8, 73, 92
21, 66349, Note_on_c, 8, 73, 0
21, 67048, Note_on_c, 8, 75, 90
21, 67157, Note_on_c, 8, 75, 0
21, 67527, Note_on_c, 8, 75, 79
21, 67647, Note_on_c, 8, 75, 0
21, 67688, Note_on_c, 8, 75, 83
21, 67781, Note_on_c, 8, 75, 0
21, 68472, Control_c, 8, 11, 114
21, 68489, Note_on_c, 8, 61, 82
21, 69023, Note_on_c, 8, 61, 0
21, 69128, Note_on_c, 8, 65, 85
21, 69244, Note_on_c, 8, 65, 0
21, 69606, Note_on_c, 8, 65, 77
21, 69722, Note_on_c, 8, 65, 0
21, 70086, Note_on_c, 8, 65, 73
21, 70352, Note_on_c, 8, 65, 0
21, 70409, Note_on_c, 8, 65, 79
21, 70501, Note_on_c, 8, 65, 0
21, 70888, Note_on_c, 8, 70, 82
21, 71424, Note_on_c, 8, 70, 0
21, 71529, Note_on_c, 8, 70, 68
21, 71664, Control_c, 8, 11, 115
21, 71797, Note_on_c, 8, 70, 0
21, 71847, Note_on_c, 8, 70, 74
21, 71943, Note_on_c, 8, 70, 0
21, 72967, Note_on_c, 8, 65, 83
21, 73085, Note_on_c, 8, 65, 0
21, 73448, Note_on_c, 8, 65, 79
21, 73565, Note_on_c, 8, 65, 0
21, 73800, Control_c, 8, 11, 116
21, 73927, Note_on_c, 8, 65, 70
21, 74193, Note_on_c, 8, 65, 0
21, 74246, Note_on_c, 8, 65, 77
21, 74338, Note_on_c, 8, 65, 0
21, 74720, Note_on_c, 8, 70, 83
21, 75168, Control_c, 8, 11, 118
21, 75258, Note_on_c, 8, 70, 0
21, 75369, Note_on_c, 8, 70, 65
21, 75636, Note_on_c, 8, 70, 0
21, 75689, Note_on_c, 8, 70, 70
21, 75786, Note_on_c, 8, 70, 0
21, 76152, Control_c, 8, 11, 119
21, 76809, Note_on_c, 8, 65, 80
21, 76896, Control_c, 8, 11, 120
21, 76926, Note_on_c, 8, 65, 0
21, 77289, Note_on_c, 8, 65, 85
21, 77407, Note_on_c, 8, 65, 0
21, 77496, Control_c, 8, 11, 121
21, 77767, Note_on_c, 8, 65, 68
21, 77928, Control_c, 8, 11, 123
21, 78033, Note_on_c, 8, 65, 0
21, 78084, Note_on_c, 8, 65, 74
21, 78176, Note_on_c, 8, 65, 0
21, 78240, Control_c, 8, 11, 124
21, 78456, Control_c, 8, 11, 125
21, 78528, Control_c, 8, 11, 125
21, 78552, Control_c, 8, 11, 127
21, 78566, Note_on_c, 8, 70, 78
21, 79103, Note_on_c, 8, 70, 0
21, 79208, Note_on_c, 8, 70, 64
21, 79477, Note_on_c, 8, 70, 0
21, 79528, Note_on_c, 8, 70, 79
21, 79624, Note_on_c, 8, 70, 0
21, 84673, Note_on_c, 8, 72, 78
21, 84745, Note_on_c, 8, 72, 0
21, 84770, Note_on_c, 8, 73, 74
21, 84860, Note_on_c, 8, 73, 0
21, 84896, Note_on_c, 8, 75, 93
21, 84989, Note_on_c, 8, 75, 0
21, 85011, Note_on_c, 8, 77, 75
21, 85113, Note_on_c, 8, 77, 0
21, 85137, Note_on_c, 8, 78, 115
21, 85231, Note_on_c, 8, 78, 0
21, 85249, Note_on_c, 8, 80, 79
21, 85345, Note_on_c, 8, 80, 0
21, 85368, Note_on_c, 8, 82, 103
21, 85440, Note_on_c, 8, 82, 0
21, 85469, Note_on_c, 8, 81, 108
21, 85619, Note_on_c, 8, 81, 0
21, 85946, Note_on_c, 8, 78, 112
21, 86038, Note_on_c, 8, 78, 0
21, 86088, Note_on_c, 8, 82, 120
21, 86148, Note_on_c, 8, 82, 0
21, 86186, Note_on_c, 8, 80, 103
21, 86282, Note_on_c, 8, 80, 0
21, 86332, Note_on_c, 8, 77, 118
21, 86401, Note_on_c, 8, 77, 0
21, 86445, Note_on_c, 8, 75, 81
21, 86538, Note_on_c, 8, 75, 0
21, 86578, Note_on_c, 8, 73, 93
21, 86653, Note_on_c, 8, 73, 0
21, 86685, Note_on_c, 8, 72, 72
21, 86769, Note_on_c, 8, 72, 0
21, 86813, Note_on_c, 8, 70, 90
21, 86873, Note_on_c, 8, 70, 0
21, 86913, Note_on_c, 8, 68, 75
21, 87026, Note_on_c, 8, 68, 0
21, 87053, Note_on_c, 8, 67, 69
21, 87144, Note_on_c, 8, 67, 0
21, 87157, Note_on_c, 8, 66, 82
21, 87250, Note_on_c, 8, 66, 0
21, 87275, Note_on_c, 8, 65, 78
21, 87367, Note_on_c, 8, 65, 0
21, 87391, Note_on_c, 8, 63, 62
21, 87491, Note_on_c, 8, 63, 0
21, 87533, Note_on_c, 8, 61, 65
21, 87601, Note_on_c, 8, 61, 0
21, 87632, Note_on_c, 8, 60, 81
21, 87748, Note_on_c, 8, 60, 0
21, 87757, Note_on_c, 8, 58, 83
21, 87809, Note_on_c, 8, 58, 0
21, 87864, Note_on_c, 8, 56, 75
21, 88254, Note_on_c, 8, 56, 0
21, 90270, Note_on_c, 8, 58, 98
21, 90436, Note_on_c, 8, 63, 127
21, 90441, Note_on_c, 8, 58, 0
21, 90504, Note_on_c, 8, 63, 0
21, 90675, Note_on_c, 8, 58, 75
21, 90733, Note_on_c, 8, 58, 0
21, 90757, Note_on_c, 8, 63, 120
21, 91021, Note_on_c, 8, 63, 0
21, 91933, Note_on_c, 8, 59, 112
21, 92029, Note_on_c, 8, 59, 0
21, 92205, Note_on_c, 8, 58, 103
21, 92554, Note_on_c, 8, 58, 0
21, 92668, Note_on_c, 8, 63, 109
21, 93037, Note_on_c, 8, 63, 0
21, 93152, Note_on_c, 8, 65, 103
21, 93566, Note_on_c, 8, 62, 75
21, 93593, Note_on_c, 8, 65, 0
21, 93674, Note_on_c, 8, 62, 0
21, 93791, Note_on_c, 8, 65, 99
21, 93895, Note_on_c, 8, 65, 0
21, 94020, Note_on_c, 8, 68, 109
21, 94108, Note_on_c, 8, 68, 0
21, 94120, Note_on_c, 8, 69, 94
21, 94244, Note_on_c, 8, 69, 0
21, 94297, Note_on_c, 8, 70, 93
21, 94586, Note_on_c, 8, 65, 83
21, 94599, Note_on_c, 8, 70, 0
21, 94981, Note_on_c, 8, 68, 88
21, 94997, Note_on_c, 8, 65, 0
21, 95073, Note_on_c, 8, 68, 0
21, 95081, Note_on_c, 8, 66, 66
21, 95209, Note_on_c, 8, 66, 0
21, 95225, Note_on_c, 8, 63, 64
21, 95563, Note_on_c, 8, 63, 0
21, 98169, Note_on_c, 8, 60, 117
21, 98275, Note_on_c, 8, 60, 0
21, 98304, Note_on_c, 8, 61, 103
21, 98392, Note_on_c, 8, 61, 0
21, 98429, Note_on_c, 8, 60, 74
21, 98517, Note_on_c, 8, 60, 0
21, 98548, Note_on_c, 8, 59, 109
21, 98616, Note_on_c, 8, 59, 0
21, 98669, Note_on_c, 8, 58, 62
21, 98775, Note_on_c, 8, 58, 0
21, 98795, Note_on_c, 8, 57, 99
21, 98885, Note_on_c, 8, 57, 0
21, 98903, Note_on_c, 8, 56, 75
21, 99023, Note_on_c, 8, 56, 0
21, 99045, Note_on_c, 8, 57, 98
21, 99137, Note_on_c, 8, 57, 0
21, 99156, Note_on_c, 8, 59, 89
21, 99208, Note_on_c, 8, 59, 0
21, 99279, Note_on_c, 8, 60, 84
21, 99376, Note_on_c, 8, 60, 0
21, 99399, Note_on_c, 8, 64, 73
21, 99467, Note_on_c, 8, 64, 0
21, 99519, Note_on_c, 8, 68, 81
21, 99591, Note_on_c, 8, 68, 0
21, 99617, Note_on_c, 8, 71, 110
21, 99708, Note_on_c, 8, 71, 0
21, 99755, Note_on_c, 8, 69, 108
21, 99828, Note_on_c, 8, 69, 0
21, 99881, Note_on_c, 8, 68, 100
21, 99952, Note_on_c, 8, 68, 0
21, 100009, Note_on_c, 8, 65, 86
21, 100073, Note_on_c, 8, 65, 0
21, 100117, Note_on_c, 8, 63, 70
21, 100245, Note_on_c, 8, 63, 0
21, 100264, Note_on_c, 8, 61, 58
21, 100321, Note_on_c, 8, 61, 0
21, 100357, Note_on_c, 8, 66, 119
21, 100485, Note_on_c, 8, 64, 74
21, 100497, Note_on_c, 8, 66, 0
21, 100565, Note_on_c, 8, 64, 0
21, 100587, Note_on_c, 8, 65, 94
21, 100703, Note_on_c, 8, 65, 0
21, 102271, Note_on_c, 8, 68, 127
21, 102375, Note_on_c, 8, 68, 0
21, 102413, Note_on_c, 8, 68, 124
21, 102466, Note_on_c, 8, 68, 0
21, 102497, Note_on_c, 8, 68, 113
21, 102612, Note_on_c, 8, 68, 0
21, 102653, Note_on_c, 8, 68, 110
21, 102690, Note_on_c, 8, 68, 0
21, 102741, Note_on_c, 8, 68, 101
21, 102855, Note_on_c, 8, 68, 0
21, 102969, Note_on_c, 8, 69, 97
21, 103013, Note_on_c, 8, 70, 96
21, 103015, Note_on_c, 8, 69, 0
21, 103101, Note_on_c, 8, 70, 0
21, 103220, Note_on_c, 8, 68, 105
21, 103496, Note_on_c, 8, 68, 0
21, 106019, Note_on_c, 8, 62, 110
21, 106107, Note_on_c, 8, 62, 0
21, 106133, Note_on_c, 8, 61, 72
21, 106230, Note_on_c, 8, 61, 0
21, 106257, Note_on_c, 8, 60, 109
21, 106346, Note_on_c, 8, 60, 0
21, 106371, Note_on_c, 8, 59, 71
21, 106465, Note_on_c, 8, 59, 0
21, 106501, Note_on_c, 8, 58, 96
21, 106581, Note_on_c, 8, 58, 0
21, 106589, Note_on_c, 8, 59, 101
21, 106639, Note_on_c, 8, 59, 0
21, 106676, Note_on_c, 8, 63, 89
21, 106733, Note_on_c, 8, 63, 0
21, 106742, Note_on_c, 8, 66, 123
21, 106790, Note_on_c, 8, 66, 0
21, 106841, Note_on_c, 8, 70, 111
21, 106941, Note_on_c, 8, 70, 0
21, 106964, Note_on_c, 8, 71, 127
21, 107030, Note_on_c, 8, 71, 0
21, 107083, Note_on_c, 8, 70, 71
21, 107155, Note_on_c, 8, 70, 0
21, 107204, Note_on_c, 8, 66, 103
21, 107292, Note_on_c, 8, 66, 0
21, 107303, Note_on_c, 8, 65, 65
21, 107449, Note_on_c, 8, 65, 0
21, 107483, Note_on_c, 8, 61, 28
21, 107527, Note_on_c, 8, 61, 0
21, 107706, Note_on_c, 8, 63, 105
21, 107770, Note_on_c, 8, 63, 0
21, 107818, Note_on_c, 8, 65, 80
21, 107931, Note_on_c, 8, 65, 0
21, 107938, Note_on_c, 8, 68, 117
21, 108039, Note_on_c, 8, 68, 0
21, 108066, Note_on_c, 8, 65, 73
21, 108159, Note_on_c, 8, 65, 0
21, 108189, Note_on_c, 8, 66, 110
21, 108264, Note_on_c, 8, 66, 0
21, 108305, Note_on_c, 8, 70, 86
21, 108397, Note_on_c, 8, 70, 0
21, 108416, Note_on_c, 8, 73, 107
21, 108468, Note_on_c, 8, 73, 0
21, 108498, Note_on_c, 8, 72, 92
21, 108587, Note_on_c, 8, 68, 62
21, 108588, Note_on_c, 8, 72, 0
21, 108651, Note_on_c, 8, 68, 0
21, 108663, Note_on_c, 8, 76, 119
21, 108744, Note_on_c, 8, 72, 90
21, 108752, Note_on_c, 8, 76, 0
21, 108818, Note_on_c, 8, 68, 69
21, 108839, Note_on_c, 8, 72, 0
21, 108913, Note_on_c, 8, 65, 77
21, 108919, Note_on_c, 8, 68, 0
21, 108962, Note_on_c, 8, 65, 0
21, 108990, Note_on_c, 8, 79, 123
21, 109064, Note_on_c, 8, 76, 96
21, 109076, Note_on_c, 8, 79, 0
21, 109151, Note_on_c, 8, 72, 78
21, 109164, Note_on_c, 8, 76, 0
21, 109228, Note_on_c, 8, 68, 70
21, 109259, Note_on_c, 8, 72, 0
21, 109350, Note_on_c, 8, 68, 0
21, 111383, Note_on_c, 8, 72, 127
21, 111511, Note_on_c, 8, 72, 0
21, 111541, Note_on_c, 8, 73, 115
21, 111649, Note_on_c, 8, 73, 0
21, 111696, Note_on_c, 8, 75, 117
21, 111799, Note_on_c, 8, 75, 0
21, 112006, Note_on_c, 8, 78, 127
21, 112087, Note_on_c, 8, 78, 0
21, 112124, Note_on_c, 8, 79, 100
21, 112233, Note_on_c, 8, 79, 0
21, 112264, Note_on_c, 8, 81, 127
21, 112333, Note_on_c, 8, 81, 0
21, 112349, Note_on_c, 8, 78, 97
21, 112461, Note_on_c, 8, 78, 0
21, 112496, Note_on_c, 8, 73, 63
21, 112564, Note_on_c, 8, 73, 0
21, 112593, Note_on_c, 8, 74, 73
21, 112693, Note_on_c, 8, 74, 0
21, 112732, Note_on_c, 8, 77, 117
21, 112825, Note_on_c, 8, 77, 0
21, 112844, Note_on_c, 8, 75, 65
21, 112958, Note_on_c, 8, 75, 0
21, 112973, Note_on_c, 8, 77, 104
21, 113054, Note_on_c, 8, 77, 0
21, 113081, Note_on_c, 8, 78, 91
21, 113185, Note_on_c, 8, 78, 0
21, 113207, Note_on_c, 8, 80, 103
21, 113271, Note_on_c, 8, 80, 0
21, 113309, Note_on_c, 8, 77, 94
21, 113504, Note_on_c, 8, 77, 0
21, 113788, Note_on_c, 8, 74, 84
21, 113928, Note_on_c, 8, 74, 0
21, 114034, Note_on_c, 8, 71, 59
21, 114130, Note_on_c, 8, 71, 0
21, 114184, Note_on_c, 8, 74, 93
21, 114233, Note_on_c, 8, 74, 0
21, 114280, Note_on_c, 8, 71, 83
21, 114475, Note_on_c, 8, 71, 0
21, 114504, Note_on_c, 8, 75, 89
21, 114620, Note_on_c, 8, 75, 0
21, 114651, Note_on_c, 8, 79, 97
21, 114741, Note_on_c, 8, 79, 0
21, 114749, Note_on_c, 8, 80, 124
21, 114897, Note_on_c, 8, 80, 0
21, 115527, Note_on_c, 8, 70, 76
21, 116051, Note_on_c, 8, 70, 0
21, 116156, Note_on_c, 8, 69, 70
21, 116261, Note_on_c, 8, 69, 0
21, 116641, Note_on_c, 8, 70, 70
21, 116745, Note_on_c, 8, 70, 0
21, 117126, Note_on_c, 8, 69, 78
21, 117230, Note_on_c, 8, 69, 0
21, 117608, Note_on_c, 8, 70, 70
21, 117713, Note_on_c, 8, 70, 0
21, 118088, Note_on_c, 8, 73, 71
21, 118354, Note_on_c, 8, 73, 0
21, 118405, Note_on_c, 8, 70, 79
21, 118509, Note_on_c, 8, 70, 0
21, 118887, Note_on_c, 8, 65, 70
21, 119040, Control_c, 8, 11, 127
21, 119232, Control_c, 8, 11, 127
21, 119352, Control_c, 8, 11, 125
21, 119472, Control_c, 8, 11, 124
21, 119592, Control_c, 8, 11, 121
21, 119712, Control_c, 8, 11, 119
21, 119784, Control_c, 8, 11, 116
21, 119904, Control_c, 8, 11, 113
21, 119976, Control_c, 8, 11, 110
21, 120072, Control_c, 8, 11, 106
21, 120144, Control_c, 8, 11, 103
21, 120192, Control_c, 8, 11, 100
21, 120264, Control_c, 8, 11, 96
21, 120312, Control_c, 8, 11, 93
21, 120360, Control_c, 8, 11, 90
21, 120408, Control_c, 8, 11, 86
21, 120456, Control_c, 8, 11, 82
21, 120504, Control_c, 8, 11, 79
21, 120528, Control_c, 8, 11, 76
21, 120576, Control_c, 8, 11, 72
21, 120624, Control_c, 8, 11, 67
21, 120672, Control_c, 8, 11, 61
21, 120720, Control_c, 8, 11, 55
21, 120744, Control_c, 8, 11, 51
21, 120768, Note_on_c, 8, 65, 0
21, 120768, Control_c, 8, 11, 47
21, 120792, Control_c, 8, 11, 44
21, 120816, Control_c, 8, 11, 38
21, 120840, Control_c, 8, 11, 32
21, 120864, Control_c, 8, 11, 26
21, 120888, Control_c, 8, 11, 15
21, 120936, Control_c, 8, 11, 127
21, 130888, Note_on_c, 8, 61, 79
21, 130888, Note_on_c, 8, 61, 80
21, 131020, Note_on_c, 8, 61, 0
21, 131021, Note_on_c, 8, 61, 0
21, 134727, Note_on_c, 8, 61, 84
21, 134728, Note_on_c, 8, 61, 82
21, 134859, Note_on_c, 8, 61, 0
21, 134860, Note_on_c, 8, 61, 0
21, 138552, Control_c, 8, 11, 114
21, 138567, Note_on_c, 8, 66, 76
21, 139093, Note_on_c, 8, 66, 0
21, 139207, Note_on_c, 8, 65, 71
21, 139224, Control_c, 8, 11, 115
21, 139311, Note_on_c, 8, 65, 0
21, 139656, Control_c, 8, 11, 116
21, 139689, Note_on_c, 8, 66, 73
21, 139795, Note_on_c, 8, 66, 0
21, 139944, Control_c, 8, 11, 118
21, 140136, Control_c, 8, 11, 119
21, 140166, Note_on_c, 8, 69, 72
21, 140304, Control_c, 8, 11, 120
21, 140424, Control_c, 8, 11, 121
21, 140468, Note_on_c, 8, 69, 0
21, 140487, Note_on_c, 8, 69, 78
21, 140544, Control_c, 8, 11, 123
21, 140616, Control_c, 8, 11, 125
21, 140640, Control_c, 8, 11, 127
21, 140640, Control_c, 8, 11, 127
21, 140784, Control_c, 8, 11, 127
21, 140904, Control_c, 8, 11, 125
21, 141024, Control_c, 8, 11, 123
21, 141096, Control_c, 8, 11, 120
21, 141192, Control_c, 8, 11, 116
21, 141288, Control_c, 8, 11, 113
21, 141336, Control_c, 8, 11, 110
21, 141408, Control_c, 8, 11, 106
21, 141456, Control_c, 8, 11, 103
21, 141504, Control_c, 8, 11, 99
21, 141552, Control_c, 8, 11, 96
21, 141600, Control_c, 8, 11, 91
21, 141648, Control_c, 8, 11, 88
21, 141672, Control_c, 8, 11, 85
21, 141696, Control_c, 8, 11, 82
21, 141744, Control_c, 8, 11, 76
21, 141792, Control_c, 8, 11, 70
21, 141816, Control_c, 8, 11, 67
21, 141840, Control_c, 8, 11, 64
21, 141864, Control_c, 8, 11, 59
21, 141888, Control_c, 8, 11, 55
21, 141912, Control_c, 8, 11, 50
21, 141936, Control_c, 8, 11, 45
21, 141960, Control_c, 8, 11, 37
21, 141984, Control_c, 8, 11, 30
21, 141986, Note_on_c, 8, 69, 0
21, 142008, Control_c, 8, 11, 17
21, 142056, Control_c, 8, 11, 127
21, 142409, Note_on_c, 8, 73, 85
21, 142537, Note_on_c, 8, 73, 0
21, 142889, Note_on_c, 8, 73, 81
21, 143009, Note_on_c, 8, 73, 0
21, 143049, Note_on_c, 8, 73, 84
21, 143153, Note_on_c, 8, 73, 0
21, 143845, Note_on_c, 8, 75, 92
21, 143955, Note_on_c, 8, 75, 0
21, 144321, Note_on_c, 8, 75, 70
21, 144441, Note_on_c, 8, 75, 0
21, 144489, Note_on_c, 8, 75, 83
21, 144581, Note_on_c, 8, 75, 0
21, 145272, Control_c, 8, 11, 114
21, 145286, Note_on_c, 8, 61, 83
21, 145287, Note_on_c, 8, 61, 84
21, 145819, Note_on_c, 8, 61, 0
21, 145822, Note_on_c, 8, 61, 0
21, 145928, Note_on_c, 8, 65, 83
21, 146045, Note_on_c, 8, 65, 0
21, 146405, Note_on_c, 8, 65, 79
21, 146521, Note_on_c, 8, 65, 0
21, 146888, Note_on_c, 8, 65, 66
21, 147155, Note_on_c, 8, 65, 0
21, 147208, Note_on_c, 8, 65, 79
21, 147301, Note_on_c, 8, 65, 0
21, 147688, Note_on_c, 8, 70, 81
21, 148224, Note_on_c, 8, 70, 0
21, 148327, Note_on_c, 8, 70, 72
21, 148464, Control_c, 8, 11, 115
21, 148593, Note_on_c, 8, 70, 0
21, 148649, Note_on_c, 8, 70, 79
21, 148745, Note_on_c, 8, 70, 0
21, 149766, Note_on_c, 8, 65, 79
21, 149884, Note_on_c, 8, 65, 0
21, 150248, Note_on_c, 8, 65, 78
21, 150364, Note_on_c, 8, 65, 0
21, 150600, Control_c, 8, 11, 116
21, 150727, Note_on_c, 8, 65, 68
21, 150993, Note_on_c, 8, 65, 0
21, 151044, Note_on_c, 8, 65, 75
21, 151136, Note_on_c, 8, 65, 0
21, 151529, Note_on_c, 8, 70, 80
21, 151968, Control_c, 8, 11, 118
21, 152067, Note_on_c, 8, 70, 0
21, 152164, Note_on_c, 8, 70, 64
21, 152431, Note_on_c, 8, 70, 0
21, 152489, Note_on_c, 8, 70, 76
21, 152586, Note_on_c, 8, 70, 0
21, 152952, Control_c, 8, 11, 119
21, 153606, Note_on_c, 8, 65, 78
21, 153696, Control_c, 8, 11, 120
21, 153722, Note_on_c, 8, 65, 0
21, 154087, Note_on_c, 8, 65, 76
21, 154204, Note_on_c, 8, 65, 0
21, 154296, Control_c, 8, 11, 121
21, 154565, Note_on_c, 8, 65, 68
21, 154728, Control_c, 8, 11, 123
21, 154831, Note_on_c, 8, 65, 0
21, 154886, Note_on_c, 8, 65, 71
21, 154979, Note_on_c, 8, 65, 0
21, 155040, Control_c, 8, 11, 124
21, 155256, Control_c, 8, 11, 125
21, 155328, Control_c, 8, 11, 125
21, 155352, Control_c, 8, 11, 127
21, 155368, Note_on_c, 8, 70, 85
21, 155905, Note_on_c, 8, 70, 0
21, 156009, Note_on_c, 8, 70, 64
21, 156277, Note_on_c, 8, 70, 0
21, 156329, Note_on_c, 8, 70, 70
21, 156427, Note_on_c, 8, 70, 0
21, 157926, Note_on_c, 8, 70, 72
21, 158054, Note_on_c, 8, 70, 0
21, 158402, Note_on_c, 8, 70, 69
21, 158669, Note_on_c, 8, 70, 0
21, 158726, Note_on_c, 8, 70, 85
21, 158818, Note_on_c, 8, 70, 0
21, 159207, Note_on_c, 8, 77, 88
21, 159315, Note_on_c, 8, 77, 0
21, 161767, Note_on_c, 8, 70, 84
21, 161895, Note_on_c, 8, 70, 0
21, 162244, Note_on_c, 8, 71, 66
21, 162510, Note_on_c, 8, 71, 0
21, 162564, Note_on_c, 8, 71, 71
21, 162658, Note_on_c, 8, 71, 0
21, 163041, Note_on_c, 8, 66, 60
21, 163435, Note_on_c, 8, 66, 0
21, 163449, Note_on_c, 8, 65, 6
21, 163486, Note_on_c, 8, 65, 0
21, 163489, Note_on_c, 8, 64, 12
21, 163523, Note_on_c, 8, 63, 13
21, 163528, Note_on_c, 8, 64, 0
21, 163560, Note_on_c, 8, 63, 0
21, 163566, Note_on_c, 8, 62, 18
21, 163604, Note_on_c, 8, 62, 0
21, 163608, Note_on_c, 8, 61, 25
21, 163645, Note_on_c, 8, 61, 0
21, 163649, Note_on_c, 8, 60, 40
21, 163686, Note_on_c, 8, 60, 0
21, 163687, Note_on_c, 8, 59, 48
21, 163965, Note_on_c, 8, 59, 0
21, 164009, Note_on_c, 8, 58, 61
21, 164129, Note_on_c, 8, 58, 0
21, 168960, Control_c, 8, 123, 0
21, 168960, End_track
22, 0, Start_track
22, 0, MIDI_port, 0
22, 0, Title_t, "Trumpet 3"
22, 0, Program_c, 10, 56
22, 0, Control_c, 10, 7, 127
22, 0, Control_c, 10, 10, 49
22, 0, Control_c, 10, 91, 100
22, 0, Control_c, 10, 93, 10
22, 0, Control_c, 10, 11, 127
22, 0, Control_c, 10, 123, 0
22, 5279, Note_on_c, 10, 68, 99
22, 5570, Note_on_c, 10, 68, 0
22, 5608, Note_on_c, 10, 67, 83
22, 5740, Note_on_c, 10, 67, 0
22, 5767, Note_on_c, 10, 68, 96
22, 5874, Note_on_c, 10, 68, 0
22, 6249, Note_on_c, 10, 56, 71
22, 6542, Note_on_c, 10, 56, 0
22, 6568, Note_on_c, 10, 55, 53
22, 6702, Note_on_c, 10, 55, 0
22, 6729, Note_on_c, 10, 56, 70
22, 6833, Note_on_c, 10, 56, 0
22, 19526, Note_on_c, 10, 66, 67
22, 19657, Note_on_c, 10, 66, 0
22, 20006, Note_on_c, 10, 66, 53
22, 20138, Note_on_c, 10, 66, 0
22, 20167, Note_on_c, 10, 66, 61
22, 20273, Note_on_c, 10, 66, 0
22, 20968, Note_on_c, 10, 66, 66
22, 21064, Note_on_c, 10, 66, 0
22, 21448, Note_on_c, 10, 66, 51
22, 21580, Note_on_c, 10, 66, 0
22, 21607, Note_on_c, 10, 66, 66
22, 21712, Note_on_c, 10, 66, 0
22, 22409, Note_on_c, 10, 66, 68
22, 22537, Note_on_c, 10, 66, 0
22, 22889, Note_on_c, 10, 66, 56
22, 23021, Note_on_c, 10, 66, 0
22, 23047, Note_on_c, 10, 65, 72
22, 23153, Note_on_c, 10, 65, 0
22, 38728, Note_on_c, 10, 68, 77
22, 39252, Note_on_c, 10, 68, 0
22, 39367, Note_on_c, 10, 67, 79
22, 39474, Note_on_c, 10, 67, 0
22, 39847, Note_on_c, 10, 68, 76
22, 39951, Note_on_c, 10, 68, 0
22, 40326, Note_on_c, 10, 67, 71
22, 40430, Note_on_c, 10, 67, 0
22, 40808, Note_on_c, 10, 68, 76
22, 40912, Note_on_c, 10, 68, 0
22, 41285, Note_on_c, 10, 70, 73
22, 41552, Note_on_c, 10, 70, 0
22, 41603, Note_on_c, 10, 68, 70
22, 41707, Note_on_c, 10, 68, 0
22, 42088, Note_on_c, 10, 63, 76
22, 42240, Control_c, 10, 11, 127
22, 42432, Control_c, 10, 11, 127
22, 42552, Control_c, 10, 11, 125
22, 42672, Control_c, 10, 11, 124
22, 42792, Control_c, 10, 11, 121
22, 42912, Control_c, 10, 11, 119
22, 42984, Control_c, 10, 11, 116
22, 43104, Control_c, 10, 11, 113
22, 43176, Control_c, 10, 11, 110
22, 43272, Control_c, 10, 11, 106
22, 43344, Control_c, 10, 11, 103
22, 43392, Control_c, 10, 11, 100
22, 43464, Control_c, 10, 11, 96
22, 43512, Control_c, 10, 11, 93
22, 43560, Control_c, 10, 11, 90
22, 43608, Control_c, 10, 11, 86
22, 43656, Control_c, 10, 11, 82
22, 43704, Control_c, 10, 11, 79
22, 43728, Control_c, 10, 11, 76
22, 43776, Control_c, 10, 11, 72
22, 43824, Control_c, 10, 11, 67
22, 43872, Control_c, 10, 11, 61
22, 43920, Control_c, 10, 11, 55
22, 43944, Control_c, 10, 11, 51
22, 43967, Note_on_c, 10, 63, 0
22, 43968, Control_c, 10, 11, 47
22, 43992, Control_c, 10, 11, 44
22, 44016, Control_c, 10, 11, 38
22, 44040, Control_c, 10, 11, 32
22, 44064, Control_c, 10, 11, 26
22, 44088, Control_c, 10, 11, 15
22, 44136, Control_c, 10, 11, 127
22, 54086, Note_on_c, 10, 58, 78
22, 54221, Note_on_c, 10, 58, 0
22, 57928, Note_on_c, 10, 59, 82
22, 58060, Note_on_c, 10, 59, 0
22, 61752, Control_c, 10, 11, 114
22, 61769, Note_on_c, 10, 63, 77
22, 62293, Note_on_c, 10, 63, 0
22, 62408, Note_on_c, 10, 63, 73
22, 62424, Control_c, 10, 11, 115
22, 62512, Note_on_c, 10, 63, 0
22, 62856, Control_c, 10, 11, 116
22, 62887, Note_on_c, 10, 63, 64
22, 62991, Note_on_c, 10, 63, 0
22, 63144, Control_c, 10, 11, 118
22, 63336, Control_c, 10, 11, 119
22, 63369, Note_on_c, 10, 67, 65
22, 63504, Control_c, 10, 11, 120
22, 63624, Control_c, 10, 11, 121
22, 63672, Note_on_c, 10, 67, 0
22, 63687, Note_on_c, 10, 67, 74
22, 63744, Control_c, 10, 11, 123
22, 63816, Control_c, 10, 11, 125
22, 63840, Control_c, 10, 11, 127
22, 63840, Control_c, 10, 11, 127
22, 63984, Control_c, 10, 11, 127
22, 64104, Control_c, 10, 11, 125
22, 64224, Control_c, 10, 11, 123
22, 64296, Control_c, 10, 11, 120
22, 64392, Control_c, 10, 11, 116
22, 64488, Control_c, 10, 11, 113
22, 64536, Control_c, 10, 11, 110
22, 64608, Control_c, 10, 11, 106
22, 64656, Control_c, 10, 11, 103
22, 64704, Control_c, 10, 11, 99
22, 64752, Control_c, 10, 11, 96
22, 64800, Control_c, 10, 11, 91
22, 64848, Control_c, 10, 11, 88
22, 64872, Control_c, 10, 11, 85
22, 64896, Control_c, 10, 11, 82
22, 64944, Control_c, 10, 11, 76
22, 64992, Control_c, 10, 11, 70
22, 65016, Control_c, 10, 11, 67
22, 65040, Control_c, 10, 11, 64
22, 65064, Control_c, 10, 11, 59
22, 65088, Control_c, 10, 11, 55
22, 65112, Control_c, 10, 11, 50
22, 65136, Control_c, 10, 11, 45
22, 65160, Control_c, 10, 11, 37
22, 65184, Control_c, 10, 11, 30
22, 65185, Note_on_c, 10, 67, 0
22, 65208, Control_c, 10, 11, 17
22, 65256, Control_c, 10, 11, 127
22, 65606, Note_on_c, 10, 70, 87
22, 65734, Note_on_c, 10, 70, 0
22, 66087, Note_on_c, 10, 70, 78
22, 66207, Note_on_c, 10, 70, 0
22, 66249, Note_on_c, 10, 70, 84
22, 66355, Note_on_c, 10, 70, 0
22, 67047, Note_on_c, 10, 73, 86
22, 67156, Note_on_c, 10, 73, 0
22, 67525, Note_on_c, 10, 73, 79
22, 67647, Note_on_c, 10, 73, 0
22, 67689, Note_on_c, 10, 73, 77
22, 67781, Note_on_c, 10, 73, 0
22, 68472, Control_c, 10, 11, 114
22, 68484, Note_on_c, 10, 58, 84
22, 69016, Note_on_c, 10, 58, 0
22, 69125, Note_on_c, 10, 63, 82
22, 69243, Note_on_c, 10, 63, 0
22, 69609, Note_on_c, 10, 63, 77
22, 69725, Note_on_c, 10, 63, 0
22, 70085, Note_on_c, 10, 63, 67
22, 70352, Note_on_c, 10, 63, 0
22, 70405, Note_on_c, 10, 63, 78
22, 70500, Note_on_c, 10, 63, 0
22, 70884, Note_on_c, 10, 66, 85
22, 71420, Note_on_c, 10, 66, 0
22, 71524, Note_on_c, 10, 66, 65
22, 71664, Control_c, 10, 11, 115
22, 71791, Note_on_c, 10, 66, 0
22, 71843, Note_on_c, 10, 66, 78
22, 71941, Note_on_c, 10, 66, 0
22, 72969, Note_on_c, 10, 63, 81
22, 73085, Note_on_c, 10, 63, 0
22, 73446, Note_on_c, 10, 63, 77
22, 73562, Note_on_c, 10, 63, 0
22, 73800, Control_c, 10, 11, 116
22, 73923, Note_on_c, 10, 63, 71
22, 74189, Note_on_c, 10, 63, 0
22, 74246, Note_on_c, 10, 63, 75
22, 74340, Note_on_c, 10, 63, 0
22, 74728, Note_on_c, 10, 66, 85
22, 75168, Control_c, 10, 11, 118
22, 75265, Note_on_c, 10, 66, 0
22, 75369, Note_on_c, 10, 66, 65
22, 75638, Note_on_c, 10, 66, 0
22, 75686, Note_on_c, 10, 66, 72
22, 75782, Note_on_c, 10, 66, 0
22, 76152, Control_c, 10, 11, 119
22, 76808, Note_on_c, 10, 63, 80
22, 76896, Control_c, 10, 11, 120
22, 76928, Note_on_c, 10, 63, 0
22, 77288, Note_on_c, 10, 63, 84
22, 77405, Note_on_c, 10, 63, 0
22, 77496, Control_c, 10, 11, 121
22, 77769, Note_on_c, 10, 63, 72
22, 77928, Control_c, 10, 11, 123
22, 78035, Note_on_c, 10, 63, 0
22, 78088, Note_on_c, 10, 63, 79
22, 78181, Note_on_c, 10, 63, 0
22, 78240, Control_c, 10, 11, 124
22, 78456, Control_c, 10, 11, 125
22, 78528, Control_c, 10, 11, 125
22, 78552, Control_c, 10, 11, 127
22, 78568, Note_on_c, 10, 66, 84
22, 79106, Note_on_c, 10, 66, 0
22, 79209, Note_on_c, 10, 66, 66
22, 79475, Note_on_c, 10, 66, 0
22, 79527, Note_on_c, 10, 66, 70
22, 79623, Note_on_c, 10, 66, 0
22, 81928, Note_on_c, 10, 76, 84
22, 82513, Note_on_c, 10, 76, 0
22, 82563, Note_on_c, 10, 73, 78
22, 83305, Note_on_c, 10, 73, 0
22, 83367, Note_on_c, 10, 66, 60
22, 84247, Note_on_c, 10, 66, 0
22, 84327, Note_on_c, 10, 65, 48
22, 84437, Note_on_c, 10, 65, 0
22, 97927, Note_on_c, 10, 70, 57
22, 98671, Note_on_c, 10, 70, 0
22, 98729, Note_on_c, 10, 69, 56
22, 99606, Note_on_c, 10, 69, 0
22, 99687, Note_on_c, 10, 68, 62
22, 99796, Note_on_c, 10, 68, 0
22, 115528, Note_on_c, 10, 68, 81
22, 116052, Note_on_c, 10, 68, 0
22, 116169, Note_on_c, 10, 67, 73
22, 116273, Note_on_c, 10, 67, 0
22, 116649, Note_on_c, 10, 68, 78
22, 116754, Note_on_c, 10, 68, 0
22, 117129, Note_on_c, 10, 67, 75
22, 117233, Note_on_c, 10, 67, 0
22, 117607, Note_on_c, 10, 68, 70
22, 117711, Note_on_c, 10, 68, 0
22, 118086, Note_on_c, 10, 70, 67
22, 118352, Note_on_c, 10, 70, 0
22, 118407, Note_on_c, 10, 68, 78
22, 118512, Note_on_c, 10, 68, 0
22, 118888, Note_on_c, 10, 63, 76
22, 119040, Control_c, 10, 11, 127
22, 119232, Control_c, 10, 11, 127
22, 119352, Control_c, 10, 11, 125
22, 119472, Control_c, 10, 11, 124
22, 119592, Control_c, 10, 11, 121
22, 119712, Control_c, 10, 11, 119
22, 119784, Control_c, 10, 11, 116
22, 119904, Control_c, 10, 11, 113
22, 119976, Control_c, 10, 11, 110
22, 120072, Control_c, 10, 11, 106
22, 120144, Control_c, 10, 11, 103
22, 120192, Control_c, 10, 11, 100
22, 120264, Control_c, 10, 11, 96
22, 120312, Control_c, 10, 11, 93
22, 120360, Control_c, 10, 11, 90
22, 120408, Control_c, 10, 11, 86
22, 120456, Control_c, 10, 11, 82
22, 120504, Control_c, 10, 11, 79
22, 120528, Control_c, 10, 11, 76
22, 120576, Control_c, 10, 11, 72
22, 120624, Control_c, 10, 11, 67
22, 120672, Control_c, 10, 11, 61
22, 120720, Control_c, 10, 11, 55
22, 120744, Control_c, 10, 11, 51
22, 120766, Note_on_c, 10, 63, 0
22, 120768, Control_c, 10, 11, 47
22, 120792, Control_c, 10, 11, 44
22, 120816, Control_c, 10, 11, 38
22, 120840, Control_c, 10, 11, 32
22, 120864, Control_c, 10, 11, 26
22, 120888, Control_c, 10, 11, 15
22, 120936, Control_c, 10, 11, 127
22, 130889, Note_on_c, 10, 58, 75
22, 131024, Note_on_c, 10, 58, 0
22, 134728, Note_on_c, 10, 59, 79
22, 134861, Note_on_c, 10, 59, 0
22, 138552, Control_c, 10, 11, 114
22, 138569, Note_on_c, 10, 63, 79
22, 139094, Note_on_c, 10, 63, 0
22, 139205, Note_on_c, 10, 63, 71
22, 139224, Control_c, 10, 11, 115
22, 139309, Note_on_c, 10, 63, 0
22, 139656, Control_c, 10, 11, 116
22, 139689, Note_on_c, 10, 63, 73
22, 139794, Note_on_c, 10, 63, 0
22, 139944, Control_c, 10, 11, 118
22, 140136, Control_c, 10, 11, 119
22, 140168, Note_on_c, 10, 67, 64
22, 140304, Control_c, 10, 11, 120
22, 140424, Control_c, 10, 11, 121
22, 140470, Note_on_c, 10, 67, 0
22, 140487, Note_on_c, 10, 67, 73
22, 140544, Control_c, 10, 11, 123
22, 140616, Control_c, 10, 11, 125
22, 140640, Control_c, 10, 11, 127
22, 140640, Control_c, 10, 11, 127
22, 140784, Control_c, 10, 11, 127
22, 140904, Control_c, 10, 11, 125
22, 141024, Control_c, 10, 11, 123
22, 141096, Control_c, 10, 11, 120
22, 141192, Control_c, 10, 11, 116
22, 141288, Control_c, 10, 11, 113
22, 141336, Control_c, 10, 11, 110
22, 141408, Control_c, 10, 11, 106
22, 141456, Control_c, 10, 11, 103
22, 141504, Control_c, 10, 11, 99
22, 141552, Control_c, 10, 11, 96
22, 141600, Control_c, 10, 11, 91
22, 141648, Control_c, 10, 11, 88
22, 141672, Control_c, 10, 11, 85
22, 141696, Control_c, 10, 11, 82
22, 141744, Control_c, 10, 11, 76
22, 141792, Control_c, 10, 11, 70
22, 141816, Control_c, 10, 11, 67
22, 141840, Control_c, 10, 11, 64
22, 141864, Control_c, 10, 11, 59
22, 141888, Control_c, 10, 11, 55
22, 141912, Control_c, 10, 11, 50
22, 141936, Control_c, 10, 11, 45
22, 141960, Control_c, 10, 11, 37
22, 141984, Control_c, 10, 11, 30
22, 141985, Note_on_c, 10, 67, 0
22, 142008, Control_c, 10, 11, 17
22, 142056, Control_c, 10, 11, 127
22, 142407, Note_on_c, 10, 70, 89
22, 142536, Note_on_c, 10, 70, 0
22, 142889, Note_on_c, 10, 70, 79
22, 143009, Note_on_c, 10, 70, 0
22, 143049, Note_on_c, 10, 70, 87
22, 143153, Note_on_c, 10, 70, 0
22, 143849, Note_on_c, 10, 73, 85
22, 143957, Note_on_c, 10, 73, 0
22, 144329, Note_on_c, 10, 73, 79
22, 144449, Note_on_c, 10, 73, 0
22, 144482, Note_on_c, 10, 73, 82
22, 144574, Note_on_c, 10, 73, 0
22, 145272, Control_c, 10, 11, 114
22, 145287, Note_on_c, 10, 58, 77
22, 145819, Note_on_c, 10, 58, 0
22, 145925, Note_on_c, 10, 63, 80
22, 146041, Note_on_c, 10, 63, 0
22, 146408, Note_on_c, 10, 63, 76
22, 146525, Note_on_c, 10, 63, 0
22, 146885, Note_on_c, 10, 63, 73
22, 147152, Note_on_c, 10, 63, 0
22, 147209, Note_on_c, 10, 63, 79
22, 147303, Note_on_c, 10, 63, 0
22, 147687, Note_on_c, 10, 66, 79
22, 148223, Note_on_c, 10, 66, 0
22, 148320, Note_on_c, 10, 66, 64
22, 148464, Control_c, 10, 11, 115
22, 148587, Note_on_c, 10, 66, 0
22, 148640, Note_on_c, 10, 66, 73
22, 148739, Note_on_c, 10, 66, 0
22, 149765, Note_on_c, 10, 63, 83
22, 149882, Note_on_c, 10, 63, 0
22, 150249, Note_on_c, 10, 63, 79
22, 150366, Note_on_c, 10, 63, 0
22, 150600, Control_c, 10, 11, 116
22, 150720, Note_on_c, 10, 63, 70
22, 150987, Note_on_c, 10, 63, 0
22, 151040, Note_on_c, 10, 63, 75
22, 151135, Note_on_c, 10, 63, 0
22, 151528, Note_on_c, 10, 66, 81
22, 151968, Control_c, 10, 11, 118
22, 152064, Note_on_c, 10, 66, 0
22, 152165, Note_on_c, 10, 66, 70
22, 152433, Note_on_c, 10, 66, 0
22, 152489, Note_on_c, 10, 66, 75
22, 152586, Note_on_c, 10, 66, 0
22, 152952, Control_c, 10, 11, 119
22, 153597, Note_on_c, 10, 63, 77
22, 153696, Control_c, 10, 11, 120
22, 153713, Note_on_c, 10, 63, 0
22, 154088, Note_on_c, 10, 63, 77
22, 154204, Note_on_c, 10, 63, 0
22, 154296, Control_c, 10, 11, 121
22, 154569, Note_on_c, 10, 63, 68
22, 154728, Control_c, 10, 11, 123
22, 154836, Note_on_c, 10, 63, 0
22, 154889, Note_on_c, 10, 63, 75
22, 154981, Note_on_c, 10, 63, 0
22, 155040, Control_c, 10, 11, 124
22, 155256, Control_c, 10, 11, 125
22, 155328, Control_c, 10, 11, 125
22, 155352, Control_c, 10, 11, 127
22, 155365, Note_on_c, 10, 66, 83
22, 155902, Note_on_c, 10, 66, 0
22, 156009, Note_on_c, 10, 66, 67
22, 156275, Note_on_c, 10, 66, 0
22, 156328, Note_on_c, 10, 66, 76
22, 156426, Note_on_c, 10, 66, 0
22, 157929, Note_on_c, 10, 68, 77
22, 158058, Note_on_c, 10, 68, 0
22, 158407, Note_on_c, 10, 67, 68
22, 158673, Note_on_c, 10, 67, 0
22, 158728, Note_on_c, 10, 67, 80
22, 158821, Note_on_c, 10, 67, 0
22, 159206, Note_on_c, 10, 74, 86
22, 159315, Note_on_c, 10, 74, 0
22, 161767, Note_on_c, 10, 68, 84
22, 161895, Note_on_c, 10, 68, 0
22, 162246, Note_on_c, 10, 68, 72
22, 162512, Note_on_c, 10, 68, 0
22, 162564, Note_on_c, 10, 68, 78
22, 162656, Note_on_c, 10, 68, 0
22, 163049, Note_on_c, 10, 63, 66
22, 163467, Note_on_c, 10, 63, 0
22, 163486, Note_on_c, 10, 62, 10
22, 163521, Note_on_c, 10, 61, 13
22, 163523, Note_on_c, 10, 62, 0
22, 163558, Note_on_c, 10, 61, 0
22, 163569, Note_on_c, 10, 60, 20
22, 163606, Note_on_c, 10, 59, 29
22, 163608, Note_on_c, 10, 60, 0
22, 163643, Note_on_c, 10, 59, 0
22, 163649, Note_on_c, 10, 58, 45
22, 163688, Note_on_c, 10, 58, 0
22, 163689, Note_on_c, 10, 57, 50
22, 163968, Note_on_c, 10, 57, 0
22, 164009, Note_on_c, 10, 56, 61
22, 164131, Note_on_c, 10, 56, 0
22, 168960, Control_c, 10, 123, 0
22, 168960, End_track
23, 0, Start_track
23, 0, MIDI_port, 0
23, 0, Title_t, "Trumpet 4"
23, 0, Program_c, 11, 56
23, 0, Control_c, 11, 7, 127
23, 0, Control_c, 11, 10, 38
23, 0, Control_c, 11, 91, 100
23, 0, Control_c, 11, 93, 10
23, 0, Control_c, 11, 11, 127
23, 0, Control_c, 11, 123, 0
23, 5287, Note_on_c, 11, 65, 99
23, 5577, Note_on_c, 11, 65, 0
23, 5607, Note_on_c, 11, 64, 77
23, 5742, Note_on_c, 11, 64, 0
23, 5769, Note_on_c, 11, 65, 89
23, 5873, Note_on_c, 11, 65, 0
23, 19527, Note_on_c, 11, 63, 68
23, 19655, Note_on_c, 11, 63, 0
23, 20003, Note_on_c, 11, 63, 56
23, 20135, Note_on_c, 11, 63, 0
23, 20168, Note_on_c, 11, 63, 66
23, 20274, Note_on_c, 11, 63, 0
23, 20965, Note_on_c, 11, 63, 71
23, 21061, Note_on_c, 11, 63, 0
23, 21446, Note_on_c, 11, 63, 60
23, 21579, Note_on_c, 11, 63, 0
23, 21606, Note_on_c, 11, 63, 66
23, 21710, Note_on_c, 11, 63, 0
23, 22409, Note_on_c, 11, 63, 70
23, 22537, Note_on_c, 11, 63, 0
23, 22889, Note_on_c, 11, 63, 54
23, 23025, Note_on_c, 11, 63, 0
23, 23048, Note_on_c, 11, 63, 65
23, 23154, Note_on_c, 11, 63, 0
23, 38729, Note_on_c, 11, 63, 76
23, 39254, Note_on_c, 11, 63, 0
23, 39369, Note_on_c, 11, 62, 73
23, 39473, Note_on_c, 11, 62, 0
23, 39848, Note_on_c, 11, 63, 78
23, 39952, Note_on_c, 11, 63, 0
23, 40323, Note_on_c, 11, 62, 79
23, 40428, Note_on_c, 11, 62, 0
23, 40806, Note_on_c, 11, 63, 70
23, 40910, Note_on_c, 11, 63, 0
23, 41288, Note_on_c, 11, 68, 73
23, 41554, Note_on_c, 11, 68, 0
23, 41605, Note_on_c, 11, 63, 78
23, 41710, Note_on_c, 11, 63, 0
23, 42087, Note_on_c, 11, 61, 79
23, 42240, Control_c, 11, 11, 127
23, 42432, Control_c, 11, 11, 127
23, 42552, Control_c, 11, 11, 125
23, 42672, Control_c, 11, 11, 124
23, 42792, Control_c, 11, 11, 121
23, 42912, Control_c, 11, 11, 119
23, 42984, Control_c, 11, 11, 116
23, 43104, Control_c, 11, 11, 113
23, 43176, Control_c, 11, 11, 110
23, 43272, Control_c, 11, 11, 106
23, 43344, Control_c, 11, 11, 103
23, 43392, Control_c, 11, 11, 100
23, 43464, Control_c, 11, 11, 96
23, 43512, Control_c, 11, 11, 93
23, 43560, Control_c, 11, 11, 90
23, 43608, Control_c, 11, 11, 86
23, 43656, Control_c, 11, 11, 82
23, 43704, Control_c, 11, 11, 79
23, 43728, Control_c, 11, 11, 76
23, 43776, Control_c, 11, 11, 72
23, 43824, Control_c, 11, 11, 67
23, 43872, Control_c, 11, 11, 61
23, 43920, Control_c, 11, 11, 55
23, 43944, Control_c, 11, 11, 51
23, 43965, Note_on_c, 11, 61, 0
23, 43968, Control_c, 11, 11, 47
23, 43992, Control_c, 11, 11, 44
23, 44016, Control_c, 11, 11, 38
23, 44040, Control_c, 11, 11, 32
23, 44064, Control_c, 11, 11, 26
23, 44088, Control_c, 11, 11, 15
23, 44136, Control_c, 11, 11, 127
23, 54079, Note_on_c, 11, 56, 82
23, 54213, Note_on_c, 11, 56, 0
23, 57920, Note_on_c, 11, 56, 76
23, 58052, Note_on_c, 11, 56, 0
23, 61752, Control_c, 11, 11, 114
23, 61765, Note_on_c, 11, 61, 78
23, 62290, Note_on_c, 11, 61, 0
23, 62405, Note_on_c, 11, 61, 67
23, 62424, Control_c, 11, 11, 115
23, 62509, Note_on_c, 11, 61, 0
23, 62856, Control_c, 11, 11, 116
23, 62886, Note_on_c, 11, 61, 66
23, 62991, Note_on_c, 11, 61, 0
23, 63144, Control_c, 11, 11, 118
23, 63336, Control_c, 11, 11, 119
23, 63364, Note_on_c, 11, 63, 70
23, 63504, Control_c, 11, 11, 120
23, 63624, Control_c, 11, 11, 121
23, 63667, Note_on_c, 11, 63, 0
23, 63687, Note_on_c, 11, 63, 78
23, 63744, Control_c, 11, 11, 123
23, 63816, Control_c, 11, 11, 125
23, 63840, Control_c, 11, 11, 127
23, 63840, Control_c, 11, 11, 127
23, 63984, Control_c, 11, 11, 127
23, 64104, Control_c, 11, 11, 125
23, 64224, Control_c, 11, 11, 123
23, 64296, Control_c, 11, 11, 120
23, 64392, Control_c, 11, 11, 116
23, 64488, Control_c, 11, 11, 113
23, 64536, Control_c, 11, 11, 110
23, 64608, Control_c, 11, 11, 106
23, 64656, Control_c, 11, 11, 103
23, 64704, Control_c, 11, 11, 99
23, 64752, Control_c, 11, 11, 96
23, 64800, Control_c, 11, 11, 91
23, 64848, Control_c, 11, 11, 88
23, 64872, Control_c, 11, 11, 85
23, 64896, Control_c, 11, 11, 82
23, 64944, Control_c, 11, 11, 76
23, 64992, Control_c, 11, 11, 70
23, 65016, Control_c, 11, 11, 67
23, 65040, Control_c, 11, 11, 64
23, 65064, Control_c, 11, 11, 59
23, 65088, Control_c, 11, 11, 55
23, 65112, Control_c, 11, 11, 50
23, 65136, Control_c, 11, 11, 45
23, 65160, Control_c, 11, 11, 37
23, 65184, Control_c, 11, 11, 30
23, 65186, Note_on_c, 11, 63, 0
23, 65208, Control_c, 11, 11, 17
23, 65256, Control_c, 11, 11, 127
23, 65609, Note_on_c, 11, 68, 90
23, 65737, Note_on_c, 11, 68, 0
23, 66085, Note_on_c, 11, 68, 77
23, 66207, Note_on_c, 11, 68, 0
23, 66249, Note_on_c, 11, 68, 89
23, 66354, Note_on_c, 11, 68, 0
23, 67049, Note_on_c, 11, 70, 89
23, 67157, Note_on_c, 11, 70, 0
23, 67521, Note_on_c, 11, 70, 71
23, 67641, Note_on_c, 11, 70, 0
23, 67682, Note_on_c, 11, 70, 77
23, 67774, Note_on_c, 11, 70, 0
23, 68472, Control_c, 11, 11, 114
23, 69126, Note_on_c, 11, 61, 80
23, 69244, Note_on_c, 11, 61, 0
23, 69606, Note_on_c, 11, 61, 76
23, 69722, Note_on_c, 11, 61, 0
23, 70088, Note_on_c, 11, 61, 64
23, 70355, Note_on_c, 11, 61, 0
23, 70407, Note_on_c, 11, 61, 74
23, 70499, Note_on_c, 11, 61, 0
23, 70889, Note_on_c, 11, 63, 80
23, 71426, Note_on_c, 11, 63, 0
23, 71527, Note_on_c, 11, 63, 73
23, 71664, Control_c, 11, 11, 115
23, 71793, Note_on_c, 11, 63, 0
23, 71848, Note_on_c, 11, 63, 72
23, 71945, Note_on_c, 11, 63, 0
23, 72968, Note_on_c, 11, 61, 85
23, 73085, Note_on_c, 11, 61, 0
23, 73447, Note_on_c, 11, 61, 77
23, 73563, Note_on_c, 11, 61, 0
23, 73800, Control_c, 11, 11, 116
23, 73926, Note_on_c, 11, 61, 69
23, 74194, Note_on_c, 11, 61, 0
23, 74247, Note_on_c, 11, 61, 72
23, 74339, Note_on_c, 11, 61, 0
23, 74727, Note_on_c, 11, 63, 85
23, 75168, Control_c, 11, 11, 118
23, 75263, Note_on_c, 11, 63, 0
23, 75367, Note_on_c, 11, 63, 69
23, 75634, Note_on_c, 11, 63, 0
23, 75687, Note_on_c, 11, 63, 72
23, 75783, Note_on_c, 11, 63, 0
23, 76152, Control_c, 11, 11, 119
23, 76807, Note_on_c, 11, 61, 82
23, 76896, Control_c, 11, 11, 120
23, 76926, Note_on_c, 11, 61, 0
23, 77286, Note_on_c, 11, 61, 83
23, 77402, Note_on_c, 11, 61, 0
23, 77496, Control_c, 11, 11, 121
23, 77769, Note_on_c, 11, 61, 73
23, 77928, Control_c, 11, 11, 123
23, 78036, Note_on_c, 11, 61, 0
23, 78084, Note_on_c, 11, 61, 70
23, 78177, Note_on_c, 11, 61, 0
23, 78240, Control_c, 11, 11, 124
23, 78456, Control_c, 11, 11, 125
23, 78528, Control_c, 11, 11, 125
23, 78552, Control_c, 11, 11, 127
23, 78563, Note_on_c, 11, 63, 78
23, 79100, Note_on_c, 11, 63, 0
23, 79209, Note_on_c, 11, 63, 70
23, 79476, Note_on_c, 11, 63, 0
23, 79523, Note_on_c, 11, 63, 76
23, 79620, Note_on_c, 11, 63, 0
23, 81927, Note_on_c, 11, 74, 76
23, 82511, Note_on_c, 11, 74, 0
23, 82568, Note_on_c, 11, 70, 70
23, 83310, Note_on_c, 11, 70, 0
23, 83367, Note_on_c, 11, 63, 65
23, 84243, Note_on_c, 11, 63, 0
23, 84327, Note_on_c, 11, 61, 50
23, 84438, Note_on_c, 11, 61, 0
23, 97926, Note_on_c, 11, 66, 56
23, 98669, Note_on_c, 11, 66, 0
23, 98722, Note_on_c, 11, 66, 55
23, 99599, Note_on_c, 11, 66, 0
23, 99689, Note_on_c, 11, 65, 62
23, 99798, Note_on_c, 11, 65, 0
23, 115522, Note_on_c, 11, 63, 81
23, 116047, Note_on_c, 11, 63, 0
23, 116169, Note_on_c, 11, 62, 78
23, 116275, Note_on_c, 11, 62, 0
23, 116649, Note_on_c, 11, 63, 78
23, 116755, Note_on_c, 11, 63, 0
23, 117123, Note_on_c, 11, 62, 79
23, 117227, Note_on_c, 11, 62, 0
23, 117606, Note_on_c, 11, 63, 70
23, 117712, Note_on_c, 11, 63, 0
23, 118087, Note_on_c, 11, 68, 69
23, 118353, Note_on_c, 11, 68, 0
23, 118409, Note_on_c, 11, 63, 72
23, 118513, Note_on_c, 11, 63, 0
23, 118886, Note_on_c, 11, 61, 77
23, 119040, Control_c, 11, 11, 127
23, 119232, Control_c, 11, 11, 127
23, 119352, Control_c, 11, 11, 125
23, 119472, Control_c, 11, 11, 124
23, 119592, Control_c, 11, 11, 121
23, 119712, Control_c, 11, 11, 119
23, 119784, Control_c, 11, 11, 116
23, 119904, Control_c, 11, 11, 113
23, 119976, Control_c, 11, 11, 110
23, 120072, Control_c, 11, 11, 106
23, 120144, Control_c, 11, 11, 103
23, 120192, Control_c, 11, 11, 100
23, 120264, Control_c, 11, 11, 96
23, 120312, Control_c, 11, 11, 93
23, 120360, Control_c, 11, 11, 90
23, 120408, Control_c, 11, 11, 86
23, 120456, Control_c, 11, 11, 82
23, 120504, Control_c, 11, 11, 79
23, 120528, Control_c, 11, 11, 76
23, 120576, Control_c, 11, 11, 72
23, 120624, Control_c, 11, 11, 67
23, 120672, Control_c, 11, 11, 61
23, 120720, Control_c, 11, 11, 55
23, 120744, Control_c, 11, 11, 51
23, 120764, Note_on_c, 11, 61, 0
23, 120768, Control_c, 11, 11, 47
23, 120792, Control_c, 11, 11, 44
23, 120816, Control_c, 11, 11, 38
23, 120840, Control_c, 11, 11, 32
23, 120864, Control_c, 11, 11, 26
23, 120888, Control_c, 11, 11, 15
23, 120936, Control_c, 11, 11, 127
23, 130889, Note_on_c, 11, 56, 80
23, 131021, Note_on_c, 11, 56, 0
23, 134727, Note_on_c, 11, 56, 80
23, 134860, Note_on_c, 11, 56, 0
23, 138552, Control_c, 11, 11, 114
23, 138565, Note_on_c, 11, 61, 79
23, 139089, Note_on_c, 11, 61, 0
23, 139201, Note_on_c, 11, 61, 72
23, 139224, Control_c, 11, 11, 115
23, 139307, Note_on_c, 11, 61, 0
23, 139656, Control_c, 11, 11, 116
23, 139684, Note_on_c, 11, 61, 72
23, 139788, Note_on_c, 11, 61, 0
23, 139944, Control_c, 11, 11, 118
23, 140136, Control_c, 11, 11, 119
23, 140167, Note_on_c, 11, 63, 64
23, 140304, Control_c, 11, 11, 120
23, 140424, Control_c, 11, 11, 121
23, 140471, Note_on_c, 11, 63, 0
23, 140486, Note_on_c, 11, 63, 72
23, 140544, Control_c, 11, 11, 123
23, 140616, Control_c, 11, 11, 125
23, 140640, Control_c, 11, 11, 127
23, 140640, Control_c, 11, 11, 127
23, 140784, Control_c, 11, 11, 127
23, 140904, Control_c, 11, 11, 125
23, 141024, Control_c, 11, 11, 123
23, 141096, Control_c, 11, 11, 120
23, 141192, Control_c, 11, 11, 116
23, 141288, Control_c, 11, 11, 113
23, 141336, Control_c, 11, 11, 110
23, 141408, Control_c, 11, 11, 106
23, 141456, Control_c, 11, 11, 103
23, 141504, Control_c, 11, 11, 99
23, 141552, Control_c, 11, 11, 96
23, 141600, Control_c, 11, 11, 91
23, 141648, Control_c, 11, 11, 88
23, 141672, Control_c, 11, 11, 85
23, 141696, Control_c, 11, 11, 82
23, 141744, Control_c, 11, 11, 76
23, 141792, Control_c, 11, 11, 70
23, 141816, Control_c, 11, 11, 67
23, 141840, Control_c, 11, 11, 64
23, 141864, Control_c, 11, 11, 59
23, 141888, Control_c, 11, 11, 55
23, 141912, Control_c, 11, 11, 50
23, 141936, Control_c, 11, 11, 45
23, 141960, Control_c, 11, 11, 37
23, 141984, Note_on_c, 11, 63, 0
23, 141984, Control_c, 11, 11, 30
23, 142008, Control_c, 11, 11, 17
23, 142056, Control_c, 11, 11, 127
23, 142409, Note_on_c, 11, 68, 83
23, 142537, Note_on_c, 11, 68, 0
23, 142889, Note_on_c, 11, 68, 81
23, 143009, Note_on_c, 11, 68, 0
23, 143047, Note_on_c, 11, 68, 90
23, 143151, Note_on_c, 11, 68, 0
23, 143847, Note_on_c, 11, 70, 91
23, 143957, Note_on_c, 11, 70, 0
23, 144327, Note_on_c, 11, 70, 73
23, 144449, Note_on_c, 11, 70, 0
23, 144488, Note_on_c, 11, 70, 76
23, 144580, Note_on_c, 11, 70, 0
23, 145272, Control_c, 11, 11, 114
23, 145927, Note_on_c, 11, 61, 79
23, 146044, Note_on_c, 11, 61, 0
23, 146409, Note_on_c, 11, 61, 81
23, 146526, Note_on_c, 11, 61, 0
23, 146889, Note_on_c, 11, 61, 70
23, 147156, Note_on_c, 11, 61, 0
23, 147201, Note_on_c, 11, 61, 79
23, 147293, Note_on_c, 11, 61, 0
23, 147685, Note_on_c, 11, 63, 84
23, 148221, Note_on_c, 11, 63, 0
23, 148326, Note_on_c, 11, 63, 73
23, 148464, Control_c, 11, 11, 115
23, 148592, Note_on_c, 11, 63, 0
23, 148644, Note_on_c, 11, 63, 77
23, 148743, Note_on_c, 11, 63, 0
23, 149768, Note_on_c, 11, 61, 77
23, 149884, Note_on_c, 11, 61, 0
23, 150249, Note_on_c, 11, 61, 84
23, 150366, Note_on_c, 11, 61, 0
23, 150600, Control_c, 11, 11, 116
23, 150729, Note_on_c, 11, 61, 66
23, 150995, Note_on_c, 11, 61, 0
23, 151041, Note_on_c, 11, 61, 72
23, 151134, Note_on_c, 11, 61, 0
23, 151528, Note_on_c, 11, 63, 79
23, 151968, Control_c, 11, 11, 118
23, 152066, Note_on_c, 11, 63, 0
23, 152167, Note_on_c, 11, 63, 64
23, 152434, Note_on_c, 11, 63, 0
23, 152482, Note_on_c, 11, 63, 76
23, 152579, Note_on_c, 11, 63, 0
23, 152952, Control_c, 11, 11, 119
23, 153609, Note_on_c, 11, 61, 76
23, 153696, Control_c, 11, 11, 120
23, 153725, Note_on_c, 11, 61, 0
23, 154089, Note_on_c, 11, 61, 80
23, 154205, Note_on_c, 11, 61, 0
23, 154296, Control_c, 11, 11, 121
23, 154567, Note_on_c, 11, 61, 64
23, 154728, Control_c, 11, 11, 123
23, 154833, Note_on_c, 11, 61, 0
23, 154881, Note_on_c, 11, 61, 75
23, 154973, Note_on_c, 11, 61, 0
23, 155040, Control_c, 11, 11, 124
23, 155256, Control_c, 11, 11, 125
23, 155328, Control_c, 11, 11, 125
23, 155352, Control_c, 11, 11, 127
23, 155367, Note_on_c, 11, 63, 76
23, 155903, Note_on_c, 11, 63, 0
23, 156002, Note_on_c, 11, 63, 69
23, 156269, Note_on_c, 11, 63, 0
23, 156329, Note_on_c, 11, 63, 72
23, 156426, Note_on_c, 11, 63, 0
23, 157928, Note_on_c, 11, 65, 76
23, 158057, Note_on_c, 11, 65, 0
23, 158406, Note_on_c, 11, 64, 73
23, 158672, Note_on_c, 11, 64, 0
23, 158728, Note_on_c, 11, 64, 77
23, 158820, Note_on_c, 11, 64, 0
23, 159206, Note_on_c, 11, 70, 88
23, 159314, Note_on_c, 11, 70, 0
23, 161768, Note_on_c, 11, 64, 80
23, 161896, Note_on_c, 11, 64, 0
23, 162244, Note_on_c, 11, 64, 65
23, 162510, Note_on_c, 11, 64, 0
23, 162569, Note_on_c, 11, 64, 75
23, 162661, Note_on_c, 11, 64, 0
23, 163049, Note_on_c, 11, 61, 62
23, 163608, Note_on_c, 11, 62, 28
23, 163633, Note_on_c, 11, 61, 0
23, 163643, Note_on_c, 11, 60, 37
23, 163647, Note_on_c, 11, 62, 0
23, 163681, Note_on_c, 11, 60, 0
23, 163684, Note_on_c, 11, 59, 45
23, 163963, Note_on_c, 11, 59, 0
23, 164006, Note_on_c, 11, 58, 62
23, 164126, Note_on_c, 11, 58, 0
23, 168960, Control_c, 11, 123, 0
23, 168960, End_track
24, 0, Start_track
24, 0, MIDI_port, 0
24, 0, Title_t, "Trombone 1"
24, 0, Program_c, 12, 57
24, 0, Control_c, 12, 7, 121
24, 0, Control_c, 12, 10, 84
24, 0, Control_c, 12, 91, 94
24, 0, Control_c, 12, 93, 5
24, 0, Control_c, 12, 11, 127
24, 0, Control_c, 12, 123, 0
24, 7152, Control_c, 12, 11, 114
24, 7208, Note_on_c, 12, 56, 73
24, 7522, Note_on_c, 12, 56, 0
24, 7523, Note_on_c, 12, 55, 60
24, 7679, Note_on_c, 12, 55, 0
24, 7682, Note_on_c, 12, 56, 66
24, 8448, Control_c, 12, 11, 115
24, 9312, Control_c, 12, 11, 116
24, 9580, Note_on_c, 12, 56, 0
24, 9609, Note_on_c, 12, 57, 60
24, 9864, Control_c, 12, 11, 118
24, 10272, Control_c, 12, 11, 119
24, 10584, Control_c, 12, 11, 120
24, 10824, Control_c, 12, 11, 121
24, 10992, Control_c, 12, 11, 123
24, 11136, Control_c, 12, 11, 124
24, 11232, Control_c, 12, 11, 125
24, 11253, Note_on_c, 12, 57, 0
24, 11280, Control_c, 12, 11, 127
24, 11368, Note_on_c, 12, 61, 57
24, 11523, Note_on_c, 12, 61, 0
24, 11527, Note_on_c, 12, 58, 45
24, 11839, Note_on_c, 12, 59, 58
24, 11844, Note_on_c, 12, 58, 0
24, 12000, Control_c, 12, 11, 127
24, 12456, Control_c, 12, 11, 127
24, 12792, Control_c, 12, 11, 125
24, 13032, Control_c, 12, 11, 124
24, 13200, Control_c, 12, 11, 123
24, 13344, Control_c, 12, 11, 121
24, 13488, Control_c, 12, 11, 120
24, 13608, Control_c, 12, 11, 119
24, 13728, Control_c, 12, 11, 118
24, 13848, Control_c, 12, 11, 116
24, 13968, Control_c, 12, 11, 114
24, 14088, Control_c, 12, 11, 113
24, 14160, Control_c, 12, 11, 110
24, 14280, Control_c, 12, 11, 108
24, 14376, Control_c, 12, 11, 105
24, 14496, Control_c, 12, 11, 101
24, 14568, Control_c, 12, 11, 98
24, 14616, Control_c, 12, 11, 95
24, 14688, Control_c, 12, 11, 89
24, 14727, Note_on_c, 12, 59, 0
24, 15144, Control_c, 12, 11, 114
24, 15202, Note_on_c, 12, 63, 60
24, 15357, Note_on_c, 12, 63, 0
24, 15366, Note_on_c, 12, 57, 46
24, 15681, Note_on_c, 12, 57, 0
24, 15686, Note_on_c, 12, 58, 53
24, 16104, Control_c, 12, 11, 115
24, 16776, Control_c, 12, 11, 116
24, 17184, Control_c, 12, 11, 118
24, 17472, Control_c, 12, 11, 119
24, 17624, Note_on_c, 12, 58, 0
24, 17712, Control_c, 12, 11, 120
24, 17769, Note_on_c, 12, 61, 63
24, 17880, Control_c, 12, 11, 121
24, 18024, Control_c, 12, 11, 123
24, 18084, Note_on_c, 12, 61, 0
24, 18089, Note_on_c, 12, 58, 57
24, 18144, Control_c, 12, 11, 124
24, 18192, Control_c, 12, 11, 125
24, 18216, Control_c, 12, 11, 127
24, 18242, Note_on_c, 12, 62, 72
24, 18246, Note_on_c, 12, 58, 0
24, 18520, Note_on_c, 12, 62, 0
24, 18566, Note_on_c, 12, 63, 72
24, 18662, Note_on_c, 12, 63, 0
24, 19527, Note_on_c, 12, 60, 73
24, 19655, Note_on_c, 12, 60, 0
24, 20007, Note_on_c, 12, 61, 56
24, 20139, Note_on_c, 12, 61, 0
24, 20169, Note_on_c, 12, 60, 64
24, 20274, Note_on_c, 12, 60, 0
24, 20965, Note_on_c, 12, 60, 72
24, 21061, Note_on_c, 12, 60, 0
24, 21449, Note_on_c, 12, 61, 58
24, 21581, Note_on_c, 12, 61, 0
24, 21608, Note_on_c, 12, 60, 59
24, 21712, Note_on_c, 12, 60, 0
24, 22409, Note_on_c, 12, 60, 68
24, 22539, Note_on_c, 12, 60, 0
24, 22882, Note_on_c, 12, 61, 59
24, 23014, Note_on_c, 12, 61, 0
24, 23047, Note_on_c, 12, 63, 65
24, 23151, Note_on_c, 12, 63, 0
24, 24744, Control_c, 12, 11, 114
24, 24798, Note_on_c, 12, 61, 51
24, 24954, Note_on_c, 12, 61, 0
24, 24966, Note_on_c, 12, 57, 51
24, 25368, Control_c, 12, 11, 115
24, 25776, Control_c, 12, 11, 116
24, 26040, Control_c, 12, 11, 118
24, 26232, Control_c, 12, 11, 119
24, 26400, Control_c, 12, 11, 120
24, 26520, Control_c, 12, 11, 121
24, 26610, Note_on_c, 12, 57, 0
24, 26640, Control_c, 12, 11, 123
24, 26688, Control_c, 12, 11, 125
24, 26712, Control_c, 12, 11, 127
24, 26726, Note_on_c, 12, 61, 53
24, 26881, Note_on_c, 12, 61, 0
24, 26887, Note_on_c, 12, 58, 52
24, 27202, Note_on_c, 12, 58, 0
24, 27206, Note_on_c, 12, 59, 51
24, 27360, Control_c, 12, 11, 127
24, 27816, Control_c, 12, 11, 127
24, 28152, Control_c, 12, 11, 125
24, 28392, Control_c, 12, 11, 124
24, 28560, Control_c, 12, 11, 123
24, 28704, Control_c, 12, 11, 121
24, 28848, Control_c, 12, 11, 120
24, 28968, Control_c, 12, 11, 119
24, 29088, Control_c, 12, 11, 118
24, 29208, Control_c, 12, 11, 116
24, 29328, Control_c, 12, 11, 114
24, 29448, Control_c, 12, 11, 113
24, 29520, Control_c, 12, 11, 110
24, 29640, Control_c, 12, 11, 108
24, 29736, Control_c, 12, 11, 105
24, 29856, Control_c, 12, 11, 101
24, 29928, Control_c, 12, 11, 98
24, 29976, Control_c, 12, 11, 95
24, 30048, Control_c, 12, 11, 89
24, 30094, Note_on_c, 12, 59, 0
24, 30552, Control_c, 12, 11, 114
24, 30569, Note_on_c, 12, 63, 66
24, 30724, Note_on_c, 12, 63, 0
24, 30724, Note_on_c, 12, 57, 47
24, 31038, Note_on_c, 12, 57, 0
24, 31046, Note_on_c, 12, 58, 55
24, 31512, Control_c, 12, 11, 115
24, 32160, Control_c, 12, 11, 116
24, 32568, Control_c, 12, 11, 118
24, 32856, Control_c, 12, 11, 119
24, 32984, Note_on_c, 12, 58, 0
24, 33072, Control_c, 12, 11, 120
24, 33127, Note_on_c, 12, 61, 65
24, 33264, Control_c, 12, 11, 121
24, 33384, Control_c, 12, 11, 123
24, 33443, Note_on_c, 12, 61, 0
24, 33448, Note_on_c, 12, 58, 51
24, 33504, Control_c, 12, 11, 124
24, 33552, Control_c, 12, 11, 125
24, 33576, Control_c, 12, 11, 127
24, 33604, Note_on_c, 12, 58, 0
24, 33609, Note_on_c, 12, 62, 73
24, 33887, Note_on_c, 12, 62, 0
24, 33928, Note_on_c, 12, 63, 77
24, 34025, Note_on_c, 12, 63, 0
24, 34882, Note_on_c, 12, 63, 81
24, 35014, Note_on_c, 12, 63, 0
24, 35368, Note_on_c, 12, 61, 65
24, 35500, Note_on_c, 12, 61, 0
24, 35522, Note_on_c, 12, 63, 77
24, 35626, Note_on_c, 12, 63, 0
24, 36321, Note_on_c, 12, 63, 78
24, 36419, Note_on_c, 12, 63, 0
24, 36808, Note_on_c, 12, 61, 64
24, 36941, Note_on_c, 12, 61, 0
24, 36969, Note_on_c, 12, 63, 77
24, 37073, Note_on_c, 12, 63, 0
24, 38726, Note_on_c, 12, 61, 79
24, 39253, Note_on_c, 12, 61, 0
24, 39369, Note_on_c, 12, 60, 72
24, 39474, Note_on_c, 12, 60, 0
24, 39845, Note_on_c, 12, 61, 68
24, 39949, Note_on_c, 12, 61, 0
24, 40325, Note_on_c, 12, 60, 73
24, 40429, Note_on_c, 12, 60, 0
24, 40808, Note_on_c, 12, 61, 65
24, 40913, Note_on_c, 12, 61, 0
24, 41283, Note_on_c, 12, 63, 60
24, 41551, Note_on_c, 12, 63, 0
24, 41600, Note_on_c, 12, 61, 72
24, 41705, Note_on_c, 12, 61, 0
24, 42089, Note_on_c, 12, 58, 64
24, 42240, Control_c, 12, 11, 127
24, 42432, Control_c, 12, 11, 127
24, 42552, Control_c, 12, 11, 125
24, 42672, Control_c, 12, 11, 124
24, 42792, Control_c, 12, 11, 121
24, 42912, Control_c, 12, 11, 119
24, 42984, Control_c, 12, 11, 116
24, 43104, Control_c, 12, 11, 113
24, 43176, Control_c, 12, 11, 110
24, 43272, Control_c, 12, 11, 106
24, 43344, Control_c, 12, 11, 103
24, 43392, Control_c, 12, 11, 100
24, 43464, Control_c, 12, 11, 96
24, 43512, Control_c, 12, 11, 93
24, 43560, Control_c, 12, 11, 90
24, 43608, Control_c, 12, 11, 86
24, 43656, Control_c, 12, 11, 82
24, 43704, Control_c, 12, 11, 79
24, 43728, Control_c, 12, 11, 76
24, 43776, Control_c, 12, 11, 72
24, 43824, Control_c, 12, 11, 67
24, 43872, Control_c, 12, 11, 61
24, 43920, Control_c, 12, 11, 55
24, 43944, Control_c, 12, 11, 51
24, 43967, Note_on_c, 12, 58, 0
24, 43968, Control_c, 12, 11, 47
24, 43992, Control_c, 12, 11, 44
24, 44016, Control_c, 12, 11, 38
24, 44040, Control_c, 12, 11, 32
24, 44064, Control_c, 12, 11, 26
24, 44088, Control_c, 12, 11, 15
24, 44136, Control_c, 12, 11, 127
24, 54083, Note_on_c, 12, 61, 80
24, 54217, Note_on_c, 12, 61, 0
24, 57929, Note_on_c, 12, 61, 84
24, 58061, Note_on_c, 12, 61, 0
24, 61752, Control_c, 12, 11, 114
24, 61765, Note_on_c, 12, 58, 78
24, 62290, Note_on_c, 12, 58, 0
24, 62405, Note_on_c, 12, 57, 67
24, 62424, Control_c, 12, 11, 115
24, 62509, Note_on_c, 12, 57, 0
24, 62856, Control_c, 12, 11, 116
24, 62889, Note_on_c, 12, 58, 65
24, 62995, Note_on_c, 12, 58, 0
24, 63144, Control_c, 12, 11, 118
24, 63336, Control_c, 12, 11, 119
24, 63369, Note_on_c, 12, 59, 66
24, 63504, Control_c, 12, 11, 120
24, 63624, Control_c, 12, 11, 121
24, 63671, Note_on_c, 12, 59, 0
24, 63687, Note_on_c, 12, 60, 78
24, 63744, Control_c, 12, 11, 123
24, 63816, Control_c, 12, 11, 125
24, 63840, Control_c, 12, 11, 127
24, 63840, Control_c, 12, 11, 127
24, 63984, Control_c, 12, 11, 127
24, 64104, Control_c, 12, 11, 125
24, 64224, Control_c, 12, 11, 123
24, 64296, Control_c, 12, 11, 120
24, 64392, Control_c, 12, 11, 116
24, 64488, Control_c, 12, 11, 113
24, 64536, Control_c, 12, 11, 110
24, 64608, Control_c, 12, 11, 106
24, 64656, Control_c, 12, 11, 103
24, 64704, Control_c, 12, 11, 99
24, 64752, Control_c, 12, 11, 96
24, 64800, Control_c, 12, 11, 91
24, 64848, Control_c, 12, 11, 88
24, 64872, Control_c, 12, 11, 85
24, 64896, Control_c, 12, 11, 82
24, 64944, Control_c, 12, 11, 76
24, 64992, Control_c, 12, 11, 70
24, 65016, Control_c, 12, 11, 67
24, 65040, Control_c, 12, 11, 64
24, 65064, Control_c, 12, 11, 59
24, 65088, Control_c, 12, 11, 55
24, 65112, Control_c, 12, 11, 50
24, 65136, Control_c, 12, 11, 45
24, 65160, Control_c, 12, 11, 37
24, 65184, Control_c, 12, 11, 30
24, 65185, Note_on_c, 12, 60, 0
24, 65208, Control_c, 12, 11, 17
24, 65256, Control_c, 12, 11, 127
24, 65606, Note_on_c, 12, 65, 89
24, 65734, Note_on_c, 12, 65, 0
24, 66089, Note_on_c, 12, 63, 76
24, 66212, Note_on_c, 12, 63, 0
24, 66247, Note_on_c, 12, 65, 91
24, 66351, Note_on_c, 12, 65, 0
24, 67049, Note_on_c, 12, 65, 86
24, 67157, Note_on_c, 12, 65, 0
24, 67528, Note_on_c, 12, 63, 74
24, 67648, Note_on_c, 12, 63, 0
24, 67688, Note_on_c, 12, 65, 83
24, 67780, Note_on_c, 12, 65, 0
24, 68472, Control_c, 12, 11, 114
24, 68487, Note_on_c, 12, 54, 81
24, 69021, Note_on_c, 12, 54, 0
24, 69129, Note_on_c, 12, 58, 76
24, 69245, Note_on_c, 12, 58, 0
24, 69608, Note_on_c, 12, 58, 77
24, 69725, Note_on_c, 12, 58, 0
24, 70088, Note_on_c, 12, 58, 70
24, 70354, Note_on_c, 12, 58, 0
24, 70405, Note_on_c, 12, 58, 71
24, 70497, Note_on_c, 12, 58, 0
24, 70881, Note_on_c, 12, 58, 79
24, 71419, Note_on_c, 12, 58, 0
24, 71529, Note_on_c, 12, 58, 68
24, 71664, Control_c, 12, 11, 115
24, 71795, Note_on_c, 12, 58, 0
24, 71848, Note_on_c, 12, 58, 76
24, 71947, Note_on_c, 12, 58, 0
24, 72965, Note_on_c, 12, 58, 81
24, 73081, Note_on_c, 12, 58, 0
24, 73448, Note_on_c, 12, 58, 83
24, 73564, Note_on_c, 12, 58, 0
24, 73800, Control_c, 12, 11, 116
24, 73924, Note_on_c, 12, 58, 65
24, 74191, Note_on_c, 12, 58, 0
24, 74248, Note_on_c, 12, 58, 71
24, 74341, Note_on_c, 12, 58, 0
24, 74729, Note_on_c, 12, 58, 79
24, 75168, Control_c, 12, 11, 118
24, 75267, Note_on_c, 12, 58, 0
24, 75367, Note_on_c, 12, 58, 72
24, 75633, Note_on_c, 12, 58, 0
24, 75686, Note_on_c, 12, 58, 71
24, 75782, Note_on_c, 12, 58, 0
24, 76152, Control_c, 12, 11, 119
24, 76808, Note_on_c, 12, 58, 84
24, 76896, Control_c, 12, 11, 120
24, 76924, Note_on_c, 12, 58, 0
24, 77286, Note_on_c, 12, 58, 76
24, 77402, Note_on_c, 12, 58, 0
24, 77496, Control_c, 12, 11, 121
24, 77767, Note_on_c, 12, 58, 66
24, 77928, Control_c, 12, 11, 123
24, 78033, Note_on_c, 12, 58, 0
24, 78085, Note_on_c, 12, 58, 75
24, 78178, Note_on_c, 12, 58, 0
24, 78240, Control_c, 12, 11, 124
24, 78456, Control_c, 12, 11, 125
24, 78528, Control_c, 12, 11, 125
24, 78552, Control_c, 12, 11, 127
24, 78569, Note_on_c, 12, 58, 82
24, 79105, Note_on_c, 12, 58, 0
24, 79207, Note_on_c, 12, 58, 67
24, 79474, Note_on_c, 12, 58, 0
24, 79528, Note_on_c, 12, 58, 71
24, 79624, Note_on_c, 12, 58, 0
24, 81928, Note_on_c, 12, 68, 81
24, 82511, Note_on_c, 12, 68, 0
24, 82567, Note_on_c, 12, 65, 79
24, 83309, Note_on_c, 12, 65, 0
24, 83362, Note_on_c, 12, 60, 59
24, 84238, Note_on_c, 12, 60, 0
24, 84328, Note_on_c, 12, 61, 50
24, 84436, Note_on_c, 12, 61, 0
24, 97929, Note_on_c, 12, 61, 58
24, 98673, Note_on_c, 12, 61, 0
24, 98728, Note_on_c, 12, 60, 51
24, 99604, Note_on_c, 12, 60, 0
24, 99687, Note_on_c, 12, 58, 64
24, 99796, Note_on_c, 12, 58, 0
24, 115528, Note_on_c, 12, 61, 77
24, 116052, Note_on_c, 12, 61, 0
24, 116167, Note_on_c, 12, 60, 64
24, 116272, Note_on_c, 12, 60, 0
24, 116648, Note_on_c, 12, 61, 64
24, 116754, Note_on_c, 12, 61, 0
24, 117126, Note_on_c, 12, 60, 64
24, 117230, Note_on_c, 12, 60, 0
24, 117609, Note_on_c, 12, 61, 67
24, 117714, Note_on_c, 12, 61, 0
24, 118086, Note_on_c, 12, 63, 64
24, 118352, Note_on_c, 12, 63, 0
24, 118407, Note_on_c, 12, 61, 70
24, 118511, Note_on_c, 12, 61, 0
24, 118888, Note_on_c, 12, 58, 68
24, 119040, Control_c, 12, 11, 127
24, 119232, Control_c, 12, 11, 127
24, 119352, Control_c, 12, 11, 125
24, 119472, Control_c, 12, 11, 124
24, 119592, Control_c, 12, 11, 121
24, 119712, Control_c, 12, 11, 119
24, 119784, Control_c, 12, 11, 116
24, 119904, Control_c, 12, 11, 113
24, 119976, Control_c, 12, 11, 110
24, 120072, Control_c, 12, 11, 106
24, 120144, Control_c, 12, 11, 103
24, 120192, Control_c, 12, 11, 100
24, 120264, Control_c, 12, 11, 96
24, 120312, Control_c, 12, 11, 93
24, 120360, Control_c, 12, 11, 90
24, 120408, Control_c, 12, 11, 86
24, 120456, Control_c, 12, 11, 82
24, 120504, Control_c, 12, 11, 79
24, 120528, Control_c, 12, 11, 76
24, 120576, Control_c, 12, 11, 72
24, 120624, Control_c, 12, 11, 67
24, 120672, Control_c, 12, 11, 61
24, 120720, Control_c, 12, 11, 55
24, 120744, Control_c, 12, 11, 51
24, 120767, Note_on_c, 12, 58, 0
24, 120768, Control_c, 12, 11, 47
24, 120792, Control_c, 12, 11, 44
24, 120816, Control_c, 12, 11, 38
24, 120840, Control_c, 12, 11, 32
24, 120864, Control_c, 12, 11, 26
24, 120888, Control_c, 12, 11, 15
24, 120936, Control_c, 12, 11, 127
24, 130889, Note_on_c, 12, 61, 78
24, 131022, Note_on_c, 12, 61, 0
24, 134728, Note_on_c, 12, 61, 77
24, 134860, Note_on_c, 12, 61, 0
24, 138552, Control_c, 12, 11, 114
24, 138564, Note_on_c, 12, 58, 71
24, 139089, Note_on_c, 12, 58, 0
24, 139204, Note_on_c, 12, 57, 73
24, 139224, Control_c, 12, 11, 115
24, 139310, Note_on_c, 12, 57, 0
24, 139656, Control_c, 12, 11, 116
24, 139687, Note_on_c, 12, 58, 71
24, 139791, Note_on_c, 12, 58, 0
24, 139944, Control_c, 12, 11, 118
24, 140136, Control_c, 12, 11, 119
24, 140169, Note_on_c, 12, 59, 71
24, 140304, Control_c, 12, 11, 120
24, 140424, Control_c, 12, 11, 121
24, 140473, Note_on_c, 12, 59, 0
24, 140482, Note_on_c, 12, 60, 73
24, 140544, Control_c, 12, 11, 123
24, 140616, Control_c, 12, 11, 125
24, 140640, Control_c, 12, 11, 127
24, 140640, Control_c, 12, 11, 127
24, 140784, Control_c, 12, 11, 127
24, 140904, Control_c, 12, 11, 125
24, 141024, Control_c, 12, 11, 123
24, 141096, Control_c, 12, 11, 120
24, 141192, Control_c, 12, 11, 116
24, 141288, Control_c, 12, 11, 113
24, 141336, Control_c, 12, 11, 110
24, 141408, Control_c, 12, 11, 106
24, 141456, Control_c, 12, 11, 103
24, 141504, Control_c, 12, 11, 99
24, 141552, Control_c, 12, 11, 96
24, 141600, Control_c, 12, 11, 91
24, 141648, Control_c, 12, 11, 88
24, 141672, Control_c, 12, 11, 85
24, 141696, Control_c, 12, 11, 82
24, 141744, Control_c, 12, 11, 76
24, 141792, Control_c, 12, 11, 70
24, 141816, Control_c, 12, 11, 67
24, 141840, Control_c, 12, 11, 64
24, 141864, Control_c, 12, 11, 59
24, 141888, Control_c, 12, 11, 55
24, 141912, Control_c, 12, 11, 50
24, 141936, Control_c, 12, 11, 45
24, 141960, Control_c, 12, 11, 37
24, 141983, Note_on_c, 12, 60, 0
24, 141984, Control_c, 12, 11, 30
24, 142008, Control_c, 12, 11, 17
24, 142056, Control_c, 12, 11, 127
24, 142407, Note_on_c, 12, 65, 87
24, 142538, Note_on_c, 12, 65, 0
24, 142883, Note_on_c, 12, 63, 79
24, 143003, Note_on_c, 12, 63, 0
24, 143048, Note_on_c, 12, 65, 90
24, 143152, Note_on_c, 12, 65, 0
24, 143847, Note_on_c, 12, 65, 84
24, 143956, Note_on_c, 12, 65, 0
24, 144326, Note_on_c, 12, 63, 76
24, 144446, Note_on_c, 12, 63, 0
24, 144486, Note_on_c, 12, 65, 81
24, 144578, Note_on_c, 12, 65, 0
24, 145272, Control_c, 12, 11, 114
24, 145289, Note_on_c, 12, 54, 80
24, 145823, Note_on_c, 12, 54, 0
24, 145929, Note_on_c, 12, 58, 85
24, 146046, Note_on_c, 12, 58, 0
24, 146409, Note_on_c, 12, 58, 83
24, 146526, Note_on_c, 12, 58, 0
24, 146889, Note_on_c, 12, 58, 67
24, 147156, Note_on_c, 12, 58, 0
24, 147206, Note_on_c, 12, 58, 70
24, 147299, Note_on_c, 12, 58, 0
24, 147684, Note_on_c, 12, 58, 85
24, 148220, Note_on_c, 12, 58, 0
24, 148327, Note_on_c, 12, 58, 72
24, 148464, Control_c, 12, 11, 115
24, 148596, Note_on_c, 12, 58, 0
24, 148649, Note_on_c, 12, 58, 75
24, 148745, Note_on_c, 12, 58, 0
24, 149768, Note_on_c, 12, 58, 79
24, 149884, Note_on_c, 12, 58, 0
24, 150244, Note_on_c, 12, 58, 85
24, 150360, Note_on_c, 12, 58, 0
24, 150600, Control_c, 12, 11, 116
24, 150725, Note_on_c, 12, 58, 65
24, 150991, Note_on_c, 12, 58, 0
24, 151048, Note_on_c, 12, 58, 77
24, 151140, Note_on_c, 12, 58, 0
24, 151523, Note_on_c, 12, 58, 81
24, 151968, Control_c, 12, 11, 118
24, 152060, Note_on_c, 12, 58, 0
24, 152163, Note_on_c, 12, 58, 70
24, 152429, Note_on_c, 12, 58, 0
24, 152489, Note_on_c, 12, 58, 78
24, 152587, Note_on_c, 12, 58, 0
24, 152952, Control_c, 12, 11, 119
24, 153604, Note_on_c, 12, 58, 76
24, 153696, Control_c, 12, 11, 120
24, 153720, Note_on_c, 12, 58, 0
24, 154089, Note_on_c, 12, 58, 85
24, 154206, Note_on_c, 12, 58, 0
24, 154296, Control_c, 12, 11, 121
24, 154566, Note_on_c, 12, 58, 70
24, 154728, Control_c, 12, 11, 123
24, 154832, Note_on_c, 12, 58, 0
24, 154888, Note_on_c, 12, 58, 73
24, 154980, Note_on_c, 12, 58, 0
24, 155040, Control_c, 12, 11, 124
24, 155256, Control_c, 12, 11, 125
24, 155328, Control_c, 12, 11, 125
24, 155352, Control_c, 12, 11, 127
24, 155366, Note_on_c, 12, 58, 82
24, 155904, Note_on_c, 12, 58, 0
24, 156009, Note_on_c, 12, 58, 71
24, 156276, Note_on_c, 12, 58, 0
24, 156323, Note_on_c, 12, 58, 75
24, 156419, Note_on_c, 12, 58, 0
24, 157921, Note_on_c, 12, 61, 74
24, 158049, Note_on_c, 12, 61, 0
24, 158409, Note_on_c, 12, 61, 64
24, 158675, Note_on_c, 12, 61, 0
24, 158724, Note_on_c, 12, 61, 82
24, 158816, Note_on_c, 12, 61, 0
24, 159203, Note_on_c, 12, 68, 86
24, 159311, Note_on_c, 12, 68, 0
24, 161766, Note_on_c, 12, 61, 78
24, 161896, Note_on_c, 12, 61, 0
24, 162247, Note_on_c, 12, 61, 66
24, 162515, Note_on_c, 12, 61, 0
24, 162566, Note_on_c, 12, 61, 74
24, 162658, Note_on_c, 12, 61, 0
24, 163040, Note_on_c, 12, 61, 62
24, 163625, Note_on_c, 12, 61, 0
24, 163688, Note_on_c, 12, 61, 49
24, 163967, Note_on_c, 12, 61, 0
24, 164007, Note_on_c, 12, 61, 61
24, 164127, Note_on_c, 12, 61, 0
24, 168960, Control_c, 12, 123, 0
24, 168960, End_track
25, 0, Start_track
25, 0, MIDI_port, 0
25, 0, Title_t, "Trombone 2"
25, 0, Program_c, 13, 57
25, 0, Control_c, 13, 7, 121
25, 0, Control_c, 13, 10, 91
25, 0, Control_c, 13, 91, 94
25, 0, Control_c, 13, 93, 5
25, 0, Control_c, 13, 11, 127
25, 0, Control_c, 13, 123, 0
25, 19528, Note_on_c, 13, 58, 62
25, 19656, Note_on_c, 13, 58, 0
25, 20008, Note_on_c, 13, 58, 52
25, 20142, Note_on_c, 13, 58, 0
25, 20169, Note_on_c, 13, 58, 57
25, 20273, Note_on_c, 13, 58, 0
25, 20968, Note_on_c, 13, 58, 58
25, 21065, Note_on_c, 13, 58, 0
25, 21445, Note_on_c, 13, 58, 50
25, 21578, Note_on_c, 13, 58, 0
25, 21608, Note_on_c, 13, 58, 53
25, 21712, Note_on_c, 13, 58, 0
25, 22409, Note_on_c, 13, 58, 66
25, 22537, Note_on_c, 13, 58, 0
25, 22888, Note_on_c, 13, 58, 54
25, 23020, Note_on_c, 13, 58, 0
25, 23048, Note_on_c, 13, 60, 64
25, 23152, Note_on_c, 13, 60, 0
25, 34878, Note_on_c, 13, 59, 64
25, 35006, Note_on_c, 13, 59, 0
25, 35368, Note_on_c, 13, 59, 54
25, 35500, Note_on_c, 13, 59, 0
25, 35529, Note_on_c, 13, 59, 64
25, 35633, Note_on_c, 13, 59, 0
25, 36327, Note_on_c, 13, 59, 68
25, 36423, Note_on_c, 13, 59, 0
25, 36807, Note_on_c, 13, 59, 60
25, 36940, Note_on_c, 13, 59, 0
25, 36968, Note_on_c, 13, 59, 66
25, 37074, Note_on_c, 13, 59, 0
25, 38727, Note_on_c, 13, 58, 64
25, 39252, Note_on_c, 13, 58, 0
25, 39369, Note_on_c, 13, 57, 66
25, 39474, Note_on_c, 13, 57, 0
25, 39848, Note_on_c, 13, 58, 63
25, 39952, Note_on_c, 13, 58, 0
25, 40327, Note_on_c, 13, 57, 62
25, 40432, Note_on_c, 13, 57, 0
25, 40802, Note_on_c, 13, 58, 58
25, 40906, Note_on_c, 13, 58, 0
25, 41285, Note_on_c, 13, 61, 54
25, 41553, Note_on_c, 13, 61, 0
25, 41609, Note_on_c, 13, 58, 64
25, 41713, Note_on_c, 13, 58, 0
25, 42083, Note_on_c, 13, 61, 65
25, 42240, Control_c, 13, 11, 127
25, 42432, Control_c, 13, 11, 127
25, 42552, Control_c, 13, 11, 125
25, 42672, Control_c, 13, 11, 124
25, 42792, Control_c, 13, 11, 121
25, 42912, Control_c, 13, 11, 119
25, 42984, Control_c, 13, 11, 116
25, 43104, Control_c, 13, 11, 113
25, 43176, Control_c, 13, 11, 110
25, 43272, Control_c, 13, 11, 106
25, 43344, Control_c, 13, 11, 103
25, 43392, Control_c, 13, 11, 100
25, 43464, Control_c, 13, 11, 96
25, 43512, Control_c, 13, 11, 93
25, 43560, Control_c, 13, 11, 90
25, 43608, Control_c, 13, 11, 86
25, 43656, Control_c, 13, 11, 82
25, 43704, Control_c, 13, 11, 79
25, 43728, Control_c, 13, 11, 76
25, 43776, Control_c, 13, 11, 72
25, 43824, Control_c, 13, 11, 67
25, 43872, Control_c, 13, 11, 61
25, 43920, Control_c, 13, 11, 55
25, 43944, Control_c, 13, 11, 51
25, 43962, Note_on_c, 13, 61, 0
25, 43968, Control_c, 13, 11, 47
25, 43992, Control_c, 13, 11, 44
25, 44016, Control_c, 13, 11, 38
25, 44040, Control_c, 13, 11, 32
25, 44064, Control_c, 13, 11, 26
25, 44088, Control_c, 13, 11, 15
25, 44136, Control_c, 13, 11, 127
25, 44484, Note_on_c, 13, 53, 84
25, 44909, Note_on_c, 13, 53, 0
25, 44968, Note_on_c, 13, 53, 76
25, 45102, Note_on_c, 13, 53, 0
25, 45129, Note_on_c, 13, 56, 82
25, 45236, Note_on_c, 13, 56, 0
25, 45606, Note_on_c, 13, 58, 78
25, 45711, Note_on_c, 13, 58, 0
25, 46080, Pitch_bend_c, 13, 6650
25, 46086, Note_on_c, 13, 59, 82
25, 46092, Pitch_bend_c, 13, 6163
25, 46104, Pitch_bend_c, 13, 5515
25, 46116, Pitch_bend_c, 13, 5190
25, 46128, Pitch_bend_c, 13, 4866
25, 46140, Pitch_bend_c, 13, 5028
25, 46152, Pitch_bend_c, 13, 5190
25, 46164, Pitch_bend_c, 13, 5515
25, 46176, Pitch_bend_c, 13, 5677
25, 46188, Pitch_bend_c, 13, 6001
25, 46212, Pitch_bend_c, 13, 6326
25, 46224, Pitch_bend_c, 13, 6650
25, 46236, Pitch_bend_c, 13, 7299
25, 46248, Pitch_bend_c, 13, 7785
25, 46260, Pitch_bend_c, 13, 8192
25, 47462, Note_on_c, 13, 59, 0
25, 47529, Note_on_c, 13, 58, 77
25, 47822, Note_on_c, 13, 58, 0
25, 47847, Note_on_c, 13, 56, 76
25, 48430, Note_on_c, 13, 56, 0
25, 48487, Note_on_c, 13, 55, 62
25, 48777, Note_on_c, 13, 55, 0
25, 48807, Note_on_c, 13, 50, 82
25, 48940, Note_on_c, 13, 50, 0
25, 48969, Note_on_c, 13, 54, 76
25, 49235, Note_on_c, 13, 54, 0
25, 49288, Note_on_c, 13, 53, 77
25, 49393, Note_on_c, 13, 53, 0
25, 49764, Note_on_c, 13, 51, 81
25, 49920, Control_c, 13, 11, 127
25, 49968, Control_c, 13, 11, 124
25, 50016, Control_c, 13, 11, 120
25, 50088, Control_c, 13, 11, 115
25, 50160, Control_c, 13, 11, 110
25, 50232, Control_c, 13, 11, 106
25, 50280, Control_c, 13, 11, 103
25, 50328, Control_c, 13, 11, 99
25, 50376, Control_c, 13, 11, 96
25, 50400, Control_c, 13, 11, 94
25, 50400, Control_c, 13, 11, 94
25, 50952, Control_c, 13, 11, 95
25, 51360, Control_c, 13, 11, 96
25, 51624, Control_c, 13, 11, 98
25, 51816, Control_c, 13, 11, 99
25, 51984, Control_c, 13, 11, 100
25, 52152, Control_c, 13, 11, 101
25, 52272, Control_c, 13, 11, 103
25, 52392, Control_c, 13, 11, 104
25, 52512, Control_c, 13, 11, 105
25, 52632, Control_c, 13, 11, 106
25, 52752, Control_c, 13, 11, 109
25, 52872, Control_c, 13, 11, 111
25, 52992, Control_c, 13, 11, 114
25, 53112, Control_c, 13, 11, 118
25, 53184, Control_c, 13, 11, 121
25, 53208, Control_c, 13, 11, 124
25, 53256, Control_c, 13, 11, 127
25, 53307, Note_on_c, 13, 51, 0
25, 54089, Note_on_c, 13, 58, 70
25, 54222, Note_on_c, 13, 58, 0
25, 57919, Note_on_c, 13, 59, 70
25, 58051, Note_on_c, 13, 59, 0
25, 61752, Control_c, 13, 11, 114
25, 61763, Note_on_c, 13, 54, 64
25, 62287, Note_on_c, 13, 54, 0
25, 62402, Note_on_c, 13, 53, 60
25, 62424, Control_c, 13, 11, 115
25, 62506, Note_on_c, 13, 53, 0
25, 62856, Control_c, 13, 11, 116
25, 62889, Note_on_c, 13, 54, 64
25, 62993, Note_on_c, 13, 54, 0
25, 63144, Control_c, 13, 11, 118
25, 63336, Control_c, 13, 11, 119
25, 63367, Note_on_c, 13, 57, 58
25, 63504, Control_c, 13, 11, 120
25, 63624, Control_c, 13, 11, 121
25, 63670, Note_on_c, 13, 57, 0
25, 63687, Note_on_c, 13, 57, 70
25, 63744, Control_c, 13, 11, 123
25, 63816, Control_c, 13, 11, 125
25, 63840, Control_c, 13, 11, 127
25, 63840, Control_c, 13, 11, 127
25, 63984, Control_c, 13, 11, 127
25, 64104, Control_c, 13, 11, 125
25, 64224, Control_c, 13, 11, 123
25, 64296, Control_c, 13, 11, 120
25, 64392, Control_c, 13, 11, 116
25, 64488, Control_c, 13, 11, 113
25, 64536, Control_c, 13, 11, 110
25, 64608, Control_c, 13, 11, 106
25, 64656, Control_c, 13, 11, 103
25, 64704, Control_c, 13, 11, 99
25, 64752, Control_c, 13, 11, 96
25, 64800, Control_c, 13, 11, 91
25, 64848, Control_c, 13, 11, 88
25, 64872, Control_c, 13, 11, 85
25, 64896, Control_c, 13, 11, 82
25, 64944, Control_c, 13, 11, 76
25, 64992, Control_c, 13, 11, 70
25, 65016, Control_c, 13, 11, 67
25, 65040, Control_c, 13, 11, 64
25, 65064, Control_c, 13, 11, 59
25, 65088, Control_c, 13, 11, 55
25, 65112, Control_c, 13, 11, 50
25, 65136, Control_c, 13, 11, 45
25, 65160, Control_c, 13, 11, 37
25, 65184, Control_c, 13, 11, 30
25, 65185, Note_on_c, 13, 57, 0
25, 65208, Control_c, 13, 11, 17
25, 65256, Control_c, 13, 11, 127
25, 65608, Note_on_c, 13, 61, 82
25, 65736, Note_on_c, 13, 61, 0
25, 66086, Note_on_c, 13, 61, 70
25, 66207, Note_on_c, 13, 61, 0
25, 66248, Note_on_c, 13, 61, 76
25, 66352, Note_on_c, 13, 61, 0
25, 67049, Note_on_c, 13, 61, 79
25, 67159, Note_on_c, 13, 61, 0
25, 67525, Note_on_c, 13, 61, 66
25, 67646, Note_on_c, 13, 61, 0
25, 67687, Note_on_c, 13, 61, 75
25, 67779, Note_on_c, 13, 61, 0
25, 68472, Control_c, 13, 11, 114
25, 68485, Note_on_c, 13, 53, 64
25, 69017, Note_on_c, 13, 53, 0
25, 69126, Note_on_c, 13, 56, 66
25, 69243, Note_on_c, 13, 56, 0
25, 69608, Note_on_c, 13, 56, 64
25, 69725, Note_on_c, 13, 56, 0
25, 70087, Note_on_c, 13, 56, 61
25, 70353, Note_on_c, 13, 56, 0
25, 70408, Note_on_c, 13, 56, 72
25, 70503, Note_on_c, 13, 56, 0
25, 70888, Note_on_c, 13, 54, 72
25, 71426, Note_on_c, 13, 54, 0
25, 71529, Note_on_c, 13, 54, 59
25, 71664, Control_c, 13, 11, 115
25, 71797, Note_on_c, 13, 54, 0
25, 71844, Note_on_c, 13, 54, 66
25, 71941, Note_on_c, 13, 54, 0
25, 72966, Note_on_c, 13, 56, 66
25, 73083, Note_on_c, 13, 56, 0
25, 73447, Note_on_c, 13, 56, 68
25, 73563, Note_on_c, 13, 56, 0
25, 73800, Control_c, 13, 11, 116
25, 73929, Note_on_c, 13, 56, 61
25, 74195, Note_on_c, 13, 56, 0
25, 74247, Note_on_c, 13, 56, 68
25, 74339, Note_on_c, 13, 56, 0
25, 74729, Note_on_c, 13, 54, 78
25, 75168, Control_c, 13, 11, 118
25, 75265, Note_on_c, 13, 54, 0
25, 75365, Note_on_c, 13, 54, 65
25, 75631, Note_on_c, 13, 54, 0
25, 75688, Note_on_c, 13, 54, 71
25, 75784, Note_on_c, 13, 54, 0
25, 76152, Control_c, 13, 11, 119
25, 76808, Note_on_c, 13, 56, 69
25, 76896, Control_c, 13, 11, 120
25, 76924, Note_on_c, 13, 56, 0
25, 77286, Note_on_c, 13, 56, 64
25, 77402, Note_on_c, 13, 56, 0
25, 77496, Control_c, 13, 11, 121
25, 77769, Note_on_c, 13, 56, 60
25, 77928, Control_c, 13, 11, 123
25, 78037, Note_on_c, 13, 56, 0
25, 78086, Note_on_c, 13, 56, 73
25, 78180, Note_on_c, 13, 56, 0
25, 78240, Control_c, 13, 11, 124
25, 78456, Control_c, 13, 11, 125
25, 78528, Control_c, 13, 11, 125
25, 78552, Control_c, 13, 11, 127
25, 78567, Note_on_c, 13, 54, 76
25, 79105, Note_on_c, 13, 54, 0
25, 79205, Note_on_c, 13, 54, 61
25, 79472, Note_on_c, 13, 54, 0
25, 79529, Note_on_c, 13, 54, 73
25, 79625, Note_on_c, 13, 54, 0
25, 81928, Note_on_c, 13, 64, 73
25, 82511, Note_on_c, 13, 64, 0
25, 82569, Note_on_c, 13, 61, 69
25, 83312, Note_on_c, 13, 61, 0
25, 83357, Note_on_c, 13, 58, 59
25, 84235, Note_on_c, 13, 58, 0
25, 84329, Note_on_c, 13, 58, 41
25, 84440, Note_on_c, 13, 58, 0
25, 97927, Note_on_c, 13, 58, 51
25, 98669, Note_on_c, 13, 58, 0
25, 98729, Note_on_c, 13, 57, 52
25, 99605, Note_on_c, 13, 57, 0
25, 99685, Note_on_c, 13, 56, 57
25, 99793, Note_on_c, 13, 56, 0
25, 115524, Note_on_c, 13, 58, 70
25, 116050, Note_on_c, 13, 58, 0
25, 116169, Note_on_c, 13, 57, 61
25, 116274, Note_on_c, 13, 57, 0
25, 116648, Note_on_c, 13, 58, 64
25, 116754, Note_on_c, 13, 58, 0
25, 117128, Note_on_c, 13, 57, 62
25, 117232, Note_on_c, 13, 57, 0
25, 117609, Note_on_c, 13, 58, 65
25, 117714, Note_on_c, 13, 58, 0
25, 118086, Note_on_c, 13, 61, 58
25, 118353, Note_on_c, 13, 61, 0
25, 118405, Note_on_c, 13, 58, 60
25, 118510, Note_on_c, 13, 58, 0
25, 118882, Note_on_c, 13, 61, 58
25, 119040, Control_c, 13, 11, 127
25, 119232, Control_c, 13, 11, 127
25, 119352, Control_c, 13, 11, 125
25, 119472, Control_c, 13, 11, 124
25, 119592, Control_c, 13, 11, 121
25, 119712, Control_c, 13, 11, 119
25, 119784, Control_c, 13, 11, 116
25, 119904, Control_c, 13, 11, 113
25, 119976, Control_c, 13, 11, 110
25, 120072, Control_c, 13, 11, 106
25, 120144, Control_c, 13, 11, 103
25, 120192, Control_c, 13, 11, 100
25, 120264, Control_c, 13, 11, 96
25, 120312, Control_c, 13, 11, 93
25, 120360, Control_c, 13, 11, 90
25, 120408, Control_c, 13, 11, 86
25, 120456, Control_c, 13, 11, 82
25, 120504, Control_c, 13, 11, 79
25, 120528, Control_c, 13, 11, 76
25, 120576, Control_c, 13, 11, 72
25, 120624, Control_c, 13, 11, 67
25, 120672, Control_c, 13, 11, 61
25, 120720, Control_c, 13, 11, 55
25, 120744, Control_c, 13, 11, 51
25, 120761, Note_on_c, 13, 61, 0
25, 120768, Control_c, 13, 11, 47
25, 120792, Control_c, 13, 11, 44
25, 120816, Control_c, 13, 11, 38
25, 120840, Control_c, 13, 11, 32
25, 120864, Control_c, 13, 11, 26
25, 120888, Control_c, 13, 11, 15
25, 120936, Control_c, 13, 11, 127
25, 121287, Note_on_c, 13, 53, 76
25, 121415, Note_on_c, 13, 53, 0
25, 121769, Note_on_c, 13, 53, 73
25, 121901, Note_on_c, 13, 53, 0
25, 121926, Note_on_c, 13, 56, 78
25, 122031, Note_on_c, 13, 56, 0
25, 122409, Note_on_c, 13, 58, 76
25, 122513, Note_on_c, 13, 58, 0
25, 122880, Pitch_bend_c, 13, 6650
25, 122887, Note_on_c, 13, 59, 76
25, 122892, Pitch_bend_c, 13, 6163
25, 122904, Pitch_bend_c, 13, 5515
25, 122916, Pitch_bend_c, 13, 5190
25, 122928, Pitch_bend_c, 13, 4866
25, 122940, Pitch_bend_c, 13, 5028
25, 122952, Pitch_bend_c, 13, 5190
25, 122964, Pitch_bend_c, 13, 5515
25, 122976, Pitch_bend_c, 13, 5677
25, 122988, Pitch_bend_c, 13, 6001
25, 123012, Pitch_bend_c, 13, 6326
25, 123024, Pitch_bend_c, 13, 6650
25, 123036, Pitch_bend_c, 13, 7299
25, 123048, Pitch_bend_c, 13, 7785
25, 123060, Pitch_bend_c, 13, 8192
25, 124263, Note_on_c, 13, 59, 0
25, 124329, Note_on_c, 13, 58, 77
25, 124619, Note_on_c, 13, 58, 0
25, 124646, Note_on_c, 13, 56, 84
25, 125230, Note_on_c, 13, 56, 0
25, 125289, Note_on_c, 13, 55, 62
25, 125579, Note_on_c, 13, 55, 0
25, 125602, Note_on_c, 13, 50, 76
25, 125734, Note_on_c, 13, 50, 0
25, 125769, Note_on_c, 13, 54, 77
25, 126036, Note_on_c, 13, 54, 0
25, 126087, Note_on_c, 13, 53, 84
25, 126191, Note_on_c, 13, 53, 0
25, 126568, Note_on_c, 13, 51, 85
25, 126720, Control_c, 13, 11, 127
25, 126768, Control_c, 13, 11, 124
25, 126816, Control_c, 13, 11, 120
25, 126888, Control_c, 13, 11, 115
25, 126960, Control_c, 13, 11, 110
25, 127032, Control_c, 13, 11, 106
25, 127080, Control_c, 13, 11, 103
25, 127128, Control_c, 13, 11, 99
25, 127176, Control_c, 13, 11, 96
25, 127200, Control_c, 13, 11, 94
25, 127200, Control_c, 13, 11, 94
25, 127752, Control_c, 13, 11, 95
25, 128160, Control_c, 13, 11, 96
25, 128424, Control_c, 13, 11, 98
25, 128616, Control_c, 13, 11, 99
25, 128784, Control_c, 13, 11, 100
25, 128952, Control_c, 13, 11, 101
25, 129072, Control_c, 13, 11, 103
25, 129192, Control_c, 13, 11, 104
25, 129312, Control_c, 13, 11, 105
25, 129432, Control_c, 13, 11, 106
25, 129552, Control_c, 13, 11, 109
25, 129672, Control_c, 13, 11, 111
25, 129792, Control_c, 13, 11, 114
25, 129912, Control_c, 13, 11, 118
25, 129984, Control_c, 13, 11, 121
25, 130008, Control_c, 13, 11, 124
25, 130056, Control_c, 13, 11, 127
25, 130109, Note_on_c, 13, 51, 0
25, 130888, Note_on_c, 13, 58, 78
25, 131020, Note_on_c, 13, 58, 0
25, 134726, Note_on_c, 13, 59, 75
25, 134858, Note_on_c, 13, 59, 0
25, 138552, Control_c, 13, 11, 114
25, 138564, Note_on_c, 13, 54, 67
25, 139089, Note_on_c, 13, 54, 0
25, 139205, Note_on_c, 13, 53, 63
25, 139224, Control_c, 13, 11, 115
25, 139309, Note_on_c, 13, 53, 0
25, 139656, Control_c, 13, 11, 116
25, 139689, Note_on_c, 13, 54, 61
25, 139794, Note_on_c, 13, 54, 0
25, 139944, Control_c, 13, 11, 118
25, 140136, Control_c, 13, 11, 119
25, 140164, Note_on_c, 13, 57, 60
25, 140304, Control_c, 13, 11, 120
25, 140424, Control_c, 13, 11, 121
25, 140467, Note_on_c, 13, 57, 0
25, 140485, Note_on_c, 13, 57, 71
25, 140544, Control_c, 13, 11, 123
25, 140616, Control_c, 13, 11, 125
25, 140640, Control_c, 13, 11, 127
25, 140640, Control_c, 13, 11, 127
25, 140784, Control_c, 13, 11, 127
25, 140904, Control_c, 13, 11, 125
25, 141024, Control_c, 13, 11, 123
25, 141096, Control_c, 13, 11, 120
25, 141192, Control_c, 13, 11, 116
25, 141288, Control_c, 13, 11, 113
25, 141336, Control_c, 13, 11, 110
25, 141408, Control_c, 13, 11, 106
25, 141456, Control_c, 13, 11, 103
25, 141504, Control_c, 13, 11, 99
25, 141552, Control_c, 13, 11, 96
25, 141600, Control_c, 13, 11, 91
25, 141648, Control_c, 13, 11, 88
25, 141672, Control_c, 13, 11, 85
25, 141696, Control_c, 13, 11, 82
25, 141744, Control_c, 13, 11, 76
25, 141792, Control_c, 13, 11, 70
25, 141816, Control_c, 13, 11, 67
25, 141840, Control_c, 13, 11, 64
25, 141864, Control_c, 13, 11, 59
25, 141888, Control_c, 13, 11, 55
25, 141912, Control_c, 13, 11, 50
25, 141936, Control_c, 13, 11, 45
25, 141960, Control_c, 13, 11, 37
25, 141983, Note_on_c, 13, 57, 0
25, 141984, Control_c, 13, 11, 30
25, 142008, Control_c, 13, 11, 17
25, 142056, Control_c, 13, 11, 127
25, 142406, Note_on_c, 13, 61, 85
25, 142535, Note_on_c, 13, 61, 0
25, 142887, Note_on_c, 13, 61, 78
25, 143010, Note_on_c, 13, 61, 0
25, 143043, Note_on_c, 13, 61, 85
25, 143148, Note_on_c, 13, 61, 0
25, 143840, Note_on_c, 13, 61, 82
25, 143948, Note_on_c, 13, 61, 0
25, 144322, Note_on_c, 13, 61, 65
25, 144442, Note_on_c, 13, 61, 0
25, 144489, Note_on_c, 13, 61, 71
25, 144583, Note_on_c, 13, 61, 0
25, 145272, Control_c, 13, 11, 114
25, 145284, Note_on_c, 13, 53, 71
25, 145817, Note_on_c, 13, 53, 0
25, 145927, Note_on_c, 13, 56, 65
25, 146045, Note_on_c, 13, 56, 0
25, 146408, Note_on_c, 13, 56, 71
25, 146525, Note_on_c, 13, 56, 0
25, 146889, Note_on_c, 13, 56, 62
25, 147155, Note_on_c, 13, 56, 0
25, 147209, Note_on_c, 13, 56, 64
25, 147303, Note_on_c, 13, 56, 0
25, 147685, Note_on_c, 13, 54, 77
25, 148221, Note_on_c, 13, 54, 0
25, 148329, Note_on_c, 13, 54, 66
25, 148464, Control_c, 13, 11, 115
25, 148595, Note_on_c, 13, 54, 0
25, 148649, Note_on_c, 13, 54, 72
25, 148745, Note_on_c, 13, 54, 0
25, 149769, Note_on_c, 13, 56, 66
25, 149885, Note_on_c, 13, 56, 0
25, 150246, Note_on_c, 13, 56, 68
25, 150364, Note_on_c, 13, 56, 0
25, 150600, Control_c, 13, 11, 116
25, 150723, Note_on_c, 13, 56, 64
25, 150989, Note_on_c, 13, 56, 0
25, 151049, Note_on_c, 13, 56, 66
25, 151141, Note_on_c, 13, 56, 0
25, 151529, Note_on_c, 13, 54, 72
25, 151968, Control_c, 13, 11, 118
25, 152066, Note_on_c, 13, 54, 0
25, 152164, Note_on_c, 13, 54, 58
25, 152431, Note_on_c, 13, 54, 0
25, 152488, Note_on_c, 13, 54, 72
25, 152585, Note_on_c, 13, 54, 0
25, 152952, Control_c, 13, 11, 119
25, 153609, Note_on_c, 13, 56, 65
25, 153696, Control_c, 13, 11, 120
25, 153725, Note_on_c, 13, 56, 0
25, 154083, Note_on_c, 13, 56, 69
25, 154199, Note_on_c, 13, 56, 0
25, 154296, Control_c, 13, 11, 121
25, 154565, Note_on_c, 13, 56, 64
25, 154728, Control_c, 13, 11, 123
25, 154831, Note_on_c, 13, 56, 0
25, 154887, Note_on_c, 13, 56, 73
25, 154979, Note_on_c, 13, 56, 0
25, 155040, Control_c, 13, 11, 124
25, 155256, Control_c, 13, 11, 125
25, 155328, Control_c, 13, 11, 125
25, 155352, Control_c, 13, 11, 127
25, 155364, Note_on_c, 13, 54, 76
25, 155901, Note_on_c, 13, 54, 0
25, 156009, Note_on_c, 13, 54, 62
25, 156276, Note_on_c, 13, 54, 0
25, 156327, Note_on_c, 13, 54, 67
25, 156423, Note_on_c, 13, 54, 0
25, 157927, Note_on_c, 13, 58, 67
25, 158056, Note_on_c, 13, 58, 0
25, 158404, Note_on_c, 13, 58, 62
25, 158670, Note_on_c, 13, 58, 0
25, 158729, Note_on_c, 13, 58, 73
25, 158822, Note_on_c, 13, 58, 0
25, 159206, Note_on_c, 13, 66, 83
25, 159314, Note_on_c, 13, 66, 0
25, 161769, Note_on_c, 13, 58, 72
25, 161898, Note_on_c, 13, 58, 0
25, 162249, Note_on_c, 13, 59, 59
25, 162515, Note_on_c, 13, 59, 0
25, 162568, Note_on_c, 13, 59, 73
25, 162660, Note_on_c, 13, 59, 0
25, 163049, Note_on_c, 13, 58, 51
25, 163632, Note_on_c, 13, 58, 0
25, 163689, Note_on_c, 13, 57, 47
25, 163967, Note_on_c, 13, 57, 0
25, 164009, Note_on_c, 13, 56, 60
25, 164129, Note_on_c, 13, 56, 0
25, 168960, Control_c, 13, 123, 0
25, 168960, End_track
26, 0, Start_track
26, 0, MIDI_port, 0
26, 0, Title_t, "Trombone 3"
26, 0, Program_c, 14, 57
26, 0, Control_c, 14, 7, 121
26, 0, Control_c, 14, 10, 98
26, 0, Control_c, 14, 91, 94
26, 0, Control_c, 14, 93, 5
26, 0, Control_c, 14, 11, 127
26, 0, Control_c, 14, 123, 0
26, 19526, Note_on_c, 14, 54, 62
26, 19655, Note_on_c, 14, 54, 0
26, 20009, Note_on_c, 14, 54, 45
26, 20142, Note_on_c, 14, 54, 0
26, 20164, Note_on_c, 14, 54, 60
26, 20268, Note_on_c, 14, 54, 0
26, 20964, Note_on_c, 14, 54, 61
26, 21060, Note_on_c, 14, 54, 0
26, 21446, Note_on_c, 14, 54, 52
26, 21580, Note_on_c, 14, 54, 0
26, 21606, Note_on_c, 14, 54, 59
26, 21710, Note_on_c, 14, 54, 0
26, 22406, Note_on_c, 14, 54, 61
26, 22534, Note_on_c, 14, 54, 0
26, 22888, Note_on_c, 14, 54, 50
26, 23021, Note_on_c, 14, 54, 0
26, 23048, Note_on_c, 14, 56, 60
26, 23152, Note_on_c, 14, 56, 0
26, 34889, Note_on_c, 14, 56, 72
26, 35018, Note_on_c, 14, 56, 0
26, 35366, Note_on_c, 14, 56, 57
26, 35500, Note_on_c, 14, 56, 0
26, 35529, Note_on_c, 14, 56, 64
26, 35636, Note_on_c, 14, 56, 0
26, 36329, Note_on_c, 14, 56, 67
26, 36426, Note_on_c, 14, 56, 0
26, 36809, Note_on_c, 14, 56, 57
26, 36943, Note_on_c, 14, 56, 0
26, 36969, Note_on_c, 14, 56, 62
26, 37073, Note_on_c, 14, 56, 0
26, 38726, Note_on_c, 14, 54, 73
26, 39250, Note_on_c, 14, 54, 0
26, 39363, Note_on_c, 14, 53, 64
26, 39468, Note_on_c, 14, 53, 0
26, 39849, Note_on_c, 14, 54, 60
26, 39954, Note_on_c, 14, 54, 0
26, 40328, Note_on_c, 14, 53, 66
26, 40432, Note_on_c, 14, 53, 0
26, 40807, Note_on_c, 14, 54, 57
26, 40912, Note_on_c, 14, 54, 0
26, 41289, Note_on_c, 14, 58, 60
26, 41556, Note_on_c, 14, 58, 0
26, 41601, Note_on_c, 14, 54, 57
26, 41705, Note_on_c, 14, 54, 0
26, 42085, Note_on_c, 14, 56, 66
26, 42240, Control_c, 14, 11, 127
26, 42432, Control_c, 14, 11, 127
26, 42552, Control_c, 14, 11, 125
26, 42672, Control_c, 14, 11, 124
26, 42792, Control_c, 14, 11, 121
26, 42912, Control_c, 14, 11, 119
26, 42984, Control_c, 14, 11, 116
26, 43104, Control_c, 14, 11, 113
26, 43176, Control_c, 14, 11, 110
26, 43272, Control_c, 14, 11, 106
26, 43344, Control_c, 14, 11, 103
26, 43392, Control_c, 14, 11, 100
26, 43464, Control_c, 14, 11, 96
26, 43512, Control_c, 14, 11, 93
26, 43560, Control_c, 14, 11, 90
26, 43608, Control_c, 14, 11, 86
26, 43656, Control_c, 14, 11, 82
26, 43704, Control_c, 14, 11, 79
26, 43728, Control_c, 14, 11, 76
26, 43776, Control_c, 14, 11, 72
26, 43824, Control_c, 14, 11, 67
26, 43872, Control_c, 14, 11, 61
26, 43920, Control_c, 14, 11, 55
26, 43944, Control_c, 14, 11, 51
26, 43966, Note_on_c, 14, 56, 0
26, 43968, Control_c, 14, 11, 47
26, 43992, Control_c, 14, 11, 44
26, 44016, Control_c, 14, 11, 38
26, 44040, Control_c, 14, 11, 32
26, 44064, Control_c, 14, 11, 26
26, 44088, Control_c, 14, 11, 15
26, 44136, Control_c, 14, 11, 127
26, 54088, Note_on_c, 14, 56, 70
26, 54222, Note_on_c, 14, 56, 0
26, 57928, Note_on_c, 14, 56, 74
26, 58060, Note_on_c, 14, 56, 0
26, 61752, Control_c, 14, 11, 114
26, 61764, Note_on_c, 14, 51, 65
26, 62288, Note_on_c, 14, 51, 0
26, 62409, Note_on_c, 14, 49, 64
26, 62424, Control_c, 14, 11, 115
26, 62514, Note_on_c, 14, 49, 0
26, 62856, Control_c, 14, 11, 116
26, 62889, Note_on_c, 14, 51, 65
26, 62994, Note_on_c, 14, 51, 0
26, 63144, Control_c, 14, 11, 118
26, 63336, Control_c, 14, 11, 119
26, 63368, Note_on_c, 14, 55, 64
26, 63504, Control_c, 14, 11, 120
26, 63624, Control_c, 14, 11, 121
26, 63670, Note_on_c, 14, 55, 0
26, 63685, Note_on_c, 14, 55, 72
26, 63744, Control_c, 14, 11, 123
26, 63816, Control_c, 14, 11, 125
26, 63840, Control_c, 14, 11, 127
26, 63840, Control_c, 14, 11, 127
26, 63984, Control_c, 14, 11, 127
26, 64104, Control_c, 14, 11, 125
26, 64224, Control_c, 14, 11, 123
26, 64296, Control_c, 14, 11, 120
26, 64392, Control_c, 14, 11, 116
26, 64488, Control_c, 14, 11, 113
26, 64536, Control_c, 14, 11, 110
26, 64608, Control_c, 14, 11, 106
26, 64656, Control_c, 14, 11, 103
26, 64704, Control_c, 14, 11, 99
26, 64752, Control_c, 14, 11, 96
26, 64800, Control_c, 14, 11, 91
26, 64848, Control_c, 14, 11, 88
26, 64872, Control_c, 14, 11, 85
26, 64896, Control_c, 14, 11, 82
26, 64944, Control_c, 14, 11, 76
26, 64992, Control_c, 14, 11, 70
26, 65016, Control_c, 14, 11, 67
26, 65040, Control_c, 14, 11, 64
26, 65064, Control_c, 14, 11, 59
26, 65088, Control_c, 14, 11, 55
26, 65112, Control_c, 14, 11, 50
26, 65136, Control_c, 14, 11, 45
26, 65160, Control_c, 14, 11, 37
26, 65183, Note_on_c, 14, 55, 0
26, 65184, Control_c, 14, 11, 30
26, 65208, Control_c, 14, 11, 17
26, 65256, Control_c, 14, 11, 127
26, 65607, Note_on_c, 14, 56, 79
26, 65736, Note_on_c, 14, 56, 0
26, 66088, Note_on_c, 14, 56, 75
26, 66211, Note_on_c, 14, 56, 0
26, 66244, Note_on_c, 14, 56, 81
26, 66349, Note_on_c, 14, 56, 0
26, 67048, Note_on_c, 14, 58, 81
26, 67156, Note_on_c, 14, 58, 0
26, 67525, Note_on_c, 14, 58, 65
26, 67645, Note_on_c, 14, 58, 0
26, 67688, Note_on_c, 14, 58, 78
26, 67780, Note_on_c, 14, 58, 0
26, 68472, Control_c, 14, 11, 114
26, 68488, Note_on_c, 14, 49, 67
26, 69020, Note_on_c, 14, 49, 0
26, 69129, Note_on_c, 14, 53, 65
26, 69246, Note_on_c, 14, 53, 0
26, 69606, Note_on_c, 14, 53, 70
26, 69722, Note_on_c, 14, 53, 0
26, 70082, Note_on_c, 14, 53, 57
26, 70348, Note_on_c, 14, 53, 0
26, 70405, Note_on_c, 14, 53, 67
26, 70498, Note_on_c, 14, 53, 0
26, 70888, Note_on_c, 14, 49, 79
26, 71425, Note_on_c, 14, 49, 0
26, 71527, Note_on_c, 14, 49, 59
26, 71664, Control_c, 14, 11, 115
26, 71793, Note_on_c, 14, 49, 0
26, 71846, Note_on_c, 14, 49, 72
26, 71943, Note_on_c, 14, 49, 0
26, 72969, Note_on_c, 14, 53, 70
26, 73087, Note_on_c, 14, 53, 0
26, 73449, Note_on_c, 14, 53, 73
26, 73565, Note_on_c, 14, 53, 0
26, 73800, Control_c, 14, 11, 116
26, 73928, Note_on_c, 14, 53, 61
26, 74197, Note_on_c, 14, 53, 0
26, 74247, Note_on_c, 14, 53, 72
26, 74339, Note_on_c, 14, 53, 0
26, 74729, Note_on_c, 14, 49, 74
26, 75168, Control_c, 14, 11, 118
26, 75265, Note_on_c, 14, 49, 0
26, 75369, Note_on_c, 14, 49, 59
26, 75635, Note_on_c, 14, 49, 0
26, 75689, Note_on_c, 14, 49, 71
26, 75785, Note_on_c, 14, 49, 0
26, 76152, Control_c, 14, 11, 119
26, 76803, Note_on_c, 14, 53, 65
26, 76896, Control_c, 14, 11, 120
26, 76920, Note_on_c, 14, 53, 0
26, 77289, Note_on_c, 14, 53, 71
26, 77405, Note_on_c, 14, 53, 0
26, 77496, Control_c, 14, 11, 121
26, 77765, Note_on_c, 14, 53, 59
26, 77928, Control_c, 14, 11, 123
26, 78031, Note_on_c, 14, 53, 0
26, 78088, Note_on_c, 14, 53, 67
26, 78180, Note_on_c, 14, 53, 0
26, 78240, Control_c, 14, 11, 124
26, 78456, Control_c, 14, 11, 125
26, 78528, Control_c, 14, 11, 125
26, 78552, Control_c, 14, 11, 127
26, 78564, Note_on_c, 14, 49, 76
26, 79101, Note_on_c, 14, 49, 0
26, 79205, Note_on_c, 14, 49, 64
26, 79471, Note_on_c, 14, 49, 0
26, 79529, Note_on_c, 14, 49, 71
26, 79625, Note_on_c, 14, 49, 0
26, 81927, Note_on_c, 14, 62, 79
26, 82510, Note_on_c, 14, 62, 0
26, 82559, Note_on_c, 14, 58, 68
26, 83301, Note_on_c, 14, 58, 0
26, 83369, Note_on_c, 14, 54, 58
26, 84245, Note_on_c, 14, 54, 0
26, 84327, Note_on_c, 14, 56, 41
26, 84435, Note_on_c, 14, 56, 0
26, 97924, Note_on_c, 14, 54, 46
26, 98666, Note_on_c, 14, 54, 0
26, 98728, Note_on_c, 14, 54, 53
26, 99605, Note_on_c, 14, 54, 0
26, 99689, Note_on_c, 14, 53, 55
26, 99797, Note_on_c, 14, 53, 0
26, 115525, Note_on_c, 14, 54, 67
26, 116049, Note_on_c, 14, 54, 0
26, 116167, Note_on_c, 14, 53, 59
26, 116271, Note_on_c, 14, 53, 0
26, 116647, Note_on_c, 14, 54, 63
26, 116751, Note_on_c, 14, 54, 0
26, 117128, Note_on_c, 14, 53, 65
26, 117232, Note_on_c, 14, 53, 0
26, 117609, Note_on_c, 14, 54, 57
26, 117716, Note_on_c, 14, 54, 0
26, 118089, Note_on_c, 14, 58, 51
26, 118355, Note_on_c, 14, 58, 0
26, 118408, Note_on_c, 14, 54, 65
26, 118512, Note_on_c, 14, 54, 0
26, 118888, Note_on_c, 14, 56, 64
26, 119040, Control_c, 14, 11, 127
26, 119232, Control_c, 14, 11, 127
26, 119352, Control_c, 14, 11, 125
26, 119472, Control_c, 14, 11, 124
26, 119592, Control_c, 14, 11, 121
26, 119712, Control_c, 14, 11, 119
26, 119784, Control_c, 14, 11, 116
26, 119904, Control_c, 14, 11, 113
26, 119976, Control_c, 14, 11, 110
26, 120072, Control_c, 14, 11, 106
26, 120144, Control_c, 14, 11, 103
26, 120192, Control_c, 14, 11, 100
26, 120264, Control_c, 14, 11, 96
26, 120312, Control_c, 14, 11, 93
26, 120360, Control_c, 14, 11, 90
26, 120408, Control_c, 14, 11, 86
26, 120456, Control_c, 14, 11, 82
26, 120504, Control_c, 14, 11, 79
26, 120528, Control_c, 14, 11, 76
26, 120576, Control_c, 14, 11, 72
26, 120624, Control_c, 14, 11, 67
26, 120672, Control_c, 14, 11, 61
26, 120720, Control_c, 14, 11, 55
26, 120744, Control_c, 14, 11, 51
26, 120767, Note_on_c, 14, 56, 0
26, 120768, Control_c, 14, 11, 47
26, 120792, Control_c, 14, 11, 44
26, 120816, Control_c, 14, 11, 38
26, 120840, Control_c, 14, 11, 32
26, 120864, Control_c, 14, 11, 26
26, 120888, Control_c, 14, 11, 15
26, 120936, Control_c, 14, 11, 127
26, 130888, Note_on_c, 14, 56, 71
26, 131022, Note_on_c, 14, 56, 0
26, 134727, Note_on_c, 14, 56, 78
26, 134859, Note_on_c, 14, 56, 0
26, 138552, Control_c, 14, 11, 114
26, 138569, Note_on_c, 14, 51, 72
26, 139094, Note_on_c, 14, 51, 0
26, 139209, Note_on_c, 14, 49, 62
26, 139224, Control_c, 14, 11, 115
26, 139313, Note_on_c, 14, 49, 0
26, 139656, Control_c, 14, 11, 116
26, 139681, Note_on_c, 14, 51, 59
26, 139786, Note_on_c, 14, 51, 0
26, 139944, Control_c, 14, 11, 118
26, 140136, Control_c, 14, 11, 119
26, 140168, Note_on_c, 14, 55, 63
26, 140304, Control_c, 14, 11, 120
26, 140424, Control_c, 14, 11, 121
26, 140470, Note_on_c, 14, 55, 0
26, 140485, Note_on_c, 14, 55, 65
26, 140544, Control_c, 14, 11, 123
26, 140616, Control_c, 14, 11, 125
26, 140640, Control_c, 14, 11, 127
26, 140640, Control_c, 14, 11, 127
26, 140784, Control_c, 14, 11, 127
26, 140904, Control_c, 14, 11, 125
26, 141024, Control_c, 14, 11, 123
26, 141096, Control_c, 14, 11, 120
26, 141192, Control_c, 14, 11, 116
26, 141288, Control_c, 14, 11, 113
26, 141336, Control_c, 14, 11, 110
26, 141408, Control_c, 14, 11, 106
26, 141456, Control_c, 14, 11, 103
26, 141504, Control_c, 14, 11, 99
26, 141552, Control_c, 14, 11, 96
26, 141600, Control_c, 14, 11, 91
26, 141648, Control_c, 14, 11, 88
26, 141672, Control_c, 14, 11, 85
26, 141696, Control_c, 14, 11, 82
26, 141744, Control_c, 14, 11, 76
26, 141792, Control_c, 14, 11, 70
26, 141816, Control_c, 14, 11, 67
26, 141840, Control_c, 14, 11, 64
26, 141864, Control_c, 14, 11, 59
26, 141888, Control_c, 14, 11, 55
26, 141912, Control_c, 14, 11, 50
26, 141936, Control_c, 14, 11, 45
26, 141960, Control_c, 14, 11, 37
26, 141983, Note_on_c, 14, 55, 0
26, 141984, Control_c, 14, 11, 30
26, 142008, Control_c, 14, 11, 17
26, 142056, Control_c, 14, 11, 127
26, 142407, Note_on_c, 14, 56, 85
26, 142537, Note_on_c, 14, 56, 0
26, 142889, Note_on_c, 14, 56, 79
26, 143010, Note_on_c, 14, 56, 0
26, 143048, Note_on_c, 14, 56, 82
26, 143152, Note_on_c, 14, 56, 0
26, 143844, Note_on_c, 14, 58, 80
26, 143953, Note_on_c, 14, 58, 0
26, 144326, Note_on_c, 14, 58, 72
26, 144447, Note_on_c, 14, 58, 0
26, 144488, Note_on_c, 14, 58, 73
26, 144581, Note_on_c, 14, 58, 0
26, 145272, Control_c, 14, 11, 114
26, 145284, Note_on_c, 14, 49, 72
26, 145816, Note_on_c, 14, 49, 0
26, 145926, Note_on_c, 14, 53, 68
26, 146043, Note_on_c, 14, 53, 0
26, 146405, Note_on_c, 14, 53, 66
26, 146521, Note_on_c, 14, 53, 0
26, 146889, Note_on_c, 14, 53, 65
26, 147155, Note_on_c, 14, 53, 0
26, 147205, Note_on_c, 14, 53, 65
26, 147299, Note_on_c, 14, 53, 0
26, 147689, Note_on_c, 14, 49, 71
26, 148226, Note_on_c, 14, 49, 0
26, 148323, Note_on_c, 14, 49, 61
26, 148464, Control_c, 14, 11, 115
26, 148591, Note_on_c, 14, 49, 0
26, 148648, Note_on_c, 14, 49, 73
26, 148748, Note_on_c, 14, 49, 0
26, 149769, Note_on_c, 14, 53, 68
26, 149886, Note_on_c, 14, 53, 0
26, 150245, Note_on_c, 14, 53, 66
26, 150361, Note_on_c, 14, 53, 0
26, 150600, Control_c, 14, 11, 116
26, 150727, Note_on_c, 14, 53, 66
26, 150995, Note_on_c, 14, 53, 0
26, 151048, Note_on_c, 14, 53, 67
26, 151141, Note_on_c, 14, 53, 0
26, 151524, Note_on_c, 14, 49, 72
26, 151968, Control_c, 14, 11, 118
26, 152060, Note_on_c, 14, 49, 0
26, 152169, Note_on_c, 14, 49, 64
26, 152435, Note_on_c, 14, 49, 0
26, 152489, Note_on_c, 14, 49, 72
26, 152585, Note_on_c, 14, 49, 0
26, 152952, Control_c, 14, 11, 119
26, 153598, Note_on_c, 14, 53, 71
26, 153696, Control_c, 14, 11, 120
26, 153714, Note_on_c, 14, 53, 0
26, 154086, Note_on_c, 14, 53, 64
26, 154205, Note_on_c, 14, 53, 0
26, 154296, Control_c, 14, 11, 121
26, 154562, Note_on_c, 14, 53, 64
26, 154728, Control_c, 14, 11, 123
26, 154828, Note_on_c, 14, 53, 0
26, 154887, Note_on_c, 14, 53, 64
26, 154980, Note_on_c, 14, 53, 0
26, 155040, Control_c, 14, 11, 124
26, 155256, Control_c, 14, 11, 125
26, 155328, Control_c, 14, 11, 125
26, 155352, Control_c, 14, 11, 127
26, 155367, Note_on_c, 14, 49, 74
26, 155905, Note_on_c, 14, 49, 0
26, 156009, Note_on_c, 14, 49, 61
26, 156275, Note_on_c, 14, 49, 0
26, 156324, Note_on_c, 14, 49, 71
26, 156421, Note_on_c, 14, 49, 0
26, 157925, Note_on_c, 14, 56, 69
26, 158053, Note_on_c, 14, 56, 0
26, 158406, Note_on_c, 14, 55, 57
26, 158672, Note_on_c, 14, 55, 0
26, 158727, Note_on_c, 14, 55, 75
26, 158819, Note_on_c, 14, 55, 0
26, 159208, Note_on_c, 14, 61, 77
26, 159319, Note_on_c, 14, 61, 0
26, 161766, Note_on_c, 14, 54, 78
26, 161894, Note_on_c, 14, 54, 0
26, 162249, Note_on_c, 14, 56, 58
26, 162515, Note_on_c, 14, 56, 0
26, 162565, Note_on_c, 14, 56, 67
26, 162657, Note_on_c, 14, 56, 0
26, 163049, Note_on_c, 14, 54, 54
26, 163633, Note_on_c, 14, 54, 0
26, 163687, Note_on_c, 14, 54, 41
26, 163965, Note_on_c, 14, 54, 0
26, 164006, Note_on_c, 14, 53, 59
26, 164127, Note_on_c, 14, 53, 0
26, 168960, Control_c, 14, 123, 0
26, 168960, End_track
27, 0, Start_track
27, 0, MIDI_port, 0
27, 0, Title_t, "Trombone 4"
27, 0, Program_c, 15, 57
27, 0, Control_c, 15, 7, 121
27, 0, Control_c, 15, 10, 105
27, 0, Control_c, 15, 91, 94
27, 0, Control_c, 15, 93, 5
27, 0, Control_c, 15, 11, 127
27, 0, Control_c, 15, 123, 0
27, 19525, Note_on_c, 15, 51, 59
27, 19653, Note_on_c, 15, 51, 0
27, 20009, Note_on_c, 15, 51, 46
27, 20141, Note_on_c, 15, 51, 0
27, 20161, Note_on_c, 15, 51, 54
27, 20266, Note_on_c, 15, 51, 0
27, 20967, Note_on_c, 15, 51, 61
27, 21064, Note_on_c, 15, 51, 0
27, 21447, Note_on_c, 15, 51, 54
27, 21579, Note_on_c, 15, 51, 0
27, 21608, Note_on_c, 15, 51, 56
27, 21712, Note_on_c, 15, 51, 0
27, 22409, Note_on_c, 15, 51, 64
27, 22538, Note_on_c, 15, 51, 0
27, 22889, Note_on_c, 15, 51, 49
27, 23021, Note_on_c, 15, 51, 0
27, 23046, Note_on_c, 15, 53, 65
27, 23151, Note_on_c, 15, 53, 0
27, 34885, Note_on_c, 15, 54, 71
27, 35014, Note_on_c, 15, 54, 0
27, 35367, Note_on_c, 15, 54, 56
27, 35499, Note_on_c, 15, 54, 0
27, 35527, Note_on_c, 15, 54, 59
27, 35632, Note_on_c, 15, 54, 0
27, 36326, Note_on_c, 15, 54, 68
27, 36426, Note_on_c, 15, 54, 0
27, 36808, Note_on_c, 15, 54, 60
27, 36942, Note_on_c, 15, 54, 0
27, 36962, Note_on_c, 15, 54, 66
27, 37066, Note_on_c, 15, 54, 0
27, 38726, Note_on_c, 15, 51, 72
27, 39250, Note_on_c, 15, 51, 0
27, 39369, Note_on_c, 15, 50, 65
27, 39474, Note_on_c, 15, 50, 0
27, 39844, Note_on_c, 15, 51, 59
27, 39949, Note_on_c, 15, 51, 0
27, 40329, Note_on_c, 15, 50, 58
27, 40434, Note_on_c, 15, 50, 0
27, 40809, Note_on_c, 15, 51, 58
27, 40914, Note_on_c, 15, 51, 0
27, 41284, Note_on_c, 15, 54, 51
27, 41553, Note_on_c, 15, 54, 0
27, 41608, Note_on_c, 15, 51, 62
27, 41713, Note_on_c, 15, 51, 0
27, 42087, Note_on_c, 15, 53, 59
27, 42240, Control_c, 15, 11, 127
27, 42432, Control_c, 15, 11, 127
27, 42552, Control_c, 15, 11, 125
27, 42672, Control_c, 15, 11, 124
27, 42792, Control_c, 15, 11, 121
27, 42912, Control_c, 15, 11, 119
27, 42984, Control_c, 15, 11, 116
27, 43104, Control_c, 15, 11, 113
27, 43176, Control_c, 15, 11, 110
27, 43272, Control_c, 15, 11, 106
27, 43344, Control_c, 15, 11, 103
27, 43392, Control_c, 15, 11, 100
27, 43464, Control_c, 15, 11, 96
27, 43512, Control_c, 15, 11, 93
27, 43560, Control_c, 15, 11, 90
27, 43608, Control_c, 15, 11, 86
27, 43656, Control_c, 15, 11, 82
27, 43704, Control_c, 15, 11, 79
27, 43728, Control_c, 15, 11, 76
27, 43776, Control_c, 15, 11, 72
27, 43824, Control_c, 15, 11, 67
27, 43872, Control_c, 15, 11, 61
27, 43920, Control_c, 15, 11, 55
27, 43944, Control_c, 15, 11, 51
27, 43965, Note_on_c, 15, 53, 0
27, 43968, Control_c, 15, 11, 47
27, 43992, Control_c, 15, 11, 44
27, 44016, Control_c, 15, 11, 38
27, 44040, Control_c, 15, 11, 32
27, 44064, Control_c, 15, 11, 26
27, 44088, Control_c, 15, 11, 15
27, 44136, Control_c, 15, 11, 127
27, 54085, Note_on_c, 15, 53, 76
27, 54219, Note_on_c, 15, 53, 0
27, 57929, Note_on_c, 15, 53, 74
27, 58062, Note_on_c, 15, 53, 0
27, 61752, Control_c, 15, 11, 114
27, 61769, Note_on_c, 15, 49, 71
27, 62294, Note_on_c, 15, 49, 0
27, 62409, Note_on_c, 15, 49, 60
27, 62424, Control_c, 15, 11, 115
27, 62513, Note_on_c, 15, 49, 0
27, 62856, Control_c, 15, 11, 116
27, 62887, Note_on_c, 15, 49, 66
27, 62991, Note_on_c, 15, 49, 0
27, 63144, Control_c, 15, 11, 118
27, 63336, Control_c, 15, 11, 119
27, 63369, Note_on_c, 15, 51, 57
27, 63504, Control_c, 15, 11, 120
27, 63624, Control_c, 15, 11, 121
27, 63671, Note_on_c, 15, 51, 0
27, 63689, Note_on_c, 15, 51, 68
27, 63744, Control_c, 15, 11, 123
27, 63816, Control_c, 15, 11, 125
27, 63840, Control_c, 15, 11, 127
27, 63840, Control_c, 15, 11, 127
27, 63984, Control_c, 15, 11, 127
27, 64104, Control_c, 15, 11, 125
27, 64224, Control_c, 15, 11, 123
27, 64296, Control_c, 15, 11, 120
27, 64392, Control_c, 15, 11, 116
27, 64488, Control_c, 15, 11, 113
27, 64536, Control_c, 15, 11, 110
27, 64608, Control_c, 15, 11, 106
27, 64656, Control_c, 15, 11, 103
27, 64704, Control_c, 15, 11, 99
27, 64752, Control_c, 15, 11, 96
27, 64800, Control_c, 15, 11, 91
27, 64848, Control_c, 15, 11, 88
27, 64872, Control_c, 15, 11, 85
27, 64896, Control_c, 15, 11, 82
27, 64944, Control_c, 15, 11, 76
27, 64992, Control_c, 15, 11, 70
27, 65016, Control_c, 15, 11, 67
27, 65040, Control_c, 15, 11, 64
27, 65064, Control_c, 15, 11, 59
27, 65088, Control_c, 15, 11, 55
27, 65112, Control_c, 15, 11, 50
27, 65136, Control_c, 15, 11, 45
27, 65160, Control_c, 15, 11, 37
27, 65184, Control_c, 15, 11, 30
27, 65187, Note_on_c, 15, 51, 0
27, 65208, Control_c, 15, 11, 17
27, 65256, Control_c, 15, 11, 127
27, 65607, Note_on_c, 15, 53, 83
27, 65735, Note_on_c, 15, 53, 0
27, 66089, Note_on_c, 15, 51, 77
27, 66210, Note_on_c, 15, 51, 0
27, 66243, Note_on_c, 15, 53, 82
27, 66349, Note_on_c, 15, 53, 0
27, 67048, Note_on_c, 15, 55, 84
27, 67156, Note_on_c, 15, 55, 0
27, 67528, Note_on_c, 15, 55, 65
27, 67648, Note_on_c, 15, 55, 0
27, 67689, Note_on_c, 15, 55, 76
27, 67782, Note_on_c, 15, 55, 0
27, 68472, Control_c, 15, 11, 114
27, 68489, Note_on_c, 15, 46, 67
27, 69023, Note_on_c, 15, 46, 0
27, 69122, Note_on_c, 15, 49, 64
27, 69239, Note_on_c, 15, 49, 0
27, 69609, Note_on_c, 15, 49, 73
27, 69727, Note_on_c, 15, 49, 0
27, 70083, Note_on_c, 15, 49, 64
27, 70351, Note_on_c, 15, 49, 0
27, 70407, Note_on_c, 15, 49, 66
27, 70499, Note_on_c, 15, 49, 0
27, 70887, Note_on_c, 15, 46, 75
27, 71423, Note_on_c, 15, 46, 0
27, 71527, Note_on_c, 15, 46, 64
27, 71664, Control_c, 15, 11, 115
27, 71793, Note_on_c, 15, 46, 0
27, 71844, Note_on_c, 15, 46, 69
27, 71940, Note_on_c, 15, 46, 0
27, 72961, Note_on_c, 15, 49, 66
27, 73077, Note_on_c, 15, 49, 0
27, 73443, Note_on_c, 15, 49, 64
27, 73559, Note_on_c, 15, 49, 0
27, 73800, Control_c, 15, 11, 116
27, 73928, Note_on_c, 15, 49, 62
27, 74194, Note_on_c, 15, 49, 0
27, 74247, Note_on_c, 15, 49, 66
27, 74340, Note_on_c, 15, 49, 0
27, 74726, Note_on_c, 15, 46, 73
27, 75168, Control_c, 15, 11, 118
27, 75262, Note_on_c, 15, 46, 0
27, 75366, Note_on_c, 15, 46, 58
27, 75633, Note_on_c, 15, 46, 0
27, 75685, Note_on_c, 15, 46, 65
27, 75781, Note_on_c, 15, 46, 0
27, 76152, Control_c, 15, 11, 119
27, 76806, Note_on_c, 15, 49, 67
27, 76896, Control_c, 15, 11, 120
27, 76922, Note_on_c, 15, 49, 0
27, 77289, Note_on_c, 15, 49, 70
27, 77406, Note_on_c, 15, 49, 0
27, 77496, Control_c, 15, 11, 121
27, 77769, Note_on_c, 15, 49, 64
27, 77928, Control_c, 15, 11, 123
27, 78035, Note_on_c, 15, 49, 0
27, 78087, Note_on_c, 15, 49, 72
27, 78179, Note_on_c, 15, 49, 0
27, 78240, Control_c, 15, 11, 124
27, 78456, Control_c, 15, 11, 125
27, 78528, Control_c, 15, 11, 125
27, 78552, Control_c, 15, 11, 127
27, 78567, Note_on_c, 15, 46, 74
27, 79103, Note_on_c, 15, 46, 0
27, 79203, Note_on_c, 15, 46, 58
27, 79471, Note_on_c, 15, 46, 0
27, 79521, Note_on_c, 15, 46, 73
27, 79617, Note_on_c, 15, 46, 0
27, 81924, Note_on_c, 15, 58, 77
27, 82507, Note_on_c, 15, 58, 0
27, 82569, Note_on_c, 15, 55, 73
27, 83312, Note_on_c, 15, 55, 0
27, 83369, Note_on_c, 15, 51, 58
27, 84245, Note_on_c, 15, 51, 0
27, 84329, Note_on_c, 15, 53, 45
27, 84439, Note_on_c, 15, 53, 0
27, 97921, Note_on_c, 15, 51, 54
27, 98663, Note_on_c, 15, 51, 0
27, 98725, Note_on_c, 15, 51, 52
27, 99603, Note_on_c, 15, 51, 0
27, 99689, Note_on_c, 15, 49, 55
27, 99797, Note_on_c, 15, 49, 0
27, 115528, Note_on_c, 15, 51, 70
27, 116052, Note_on_c, 15, 51, 0
27, 116168, Note_on_c, 15, 50, 60
27, 116274, Note_on_c, 15, 50, 0
27, 116646, Note_on_c, 15, 51, 60
27, 116751, Note_on_c, 15, 51, 0
27, 117128, Note_on_c, 15, 50, 65
27, 117232, Note_on_c, 15, 50, 0
27, 117603, Note_on_c, 15, 51, 60
27, 117707, Note_on_c, 15, 51, 0
27, 118087, Note_on_c, 15, 54, 54
27, 118353, Note_on_c, 15, 54, 0
27, 118408, Note_on_c, 15, 51, 57
27, 118513, Note_on_c, 15, 51, 0
27, 118884, Note_on_c, 15, 53, 59
27, 119040, Control_c, 15, 11, 127
27, 119232, Control_c, 15, 11, 127
27, 119352, Control_c, 15, 11, 125
27, 119472, Control_c, 15, 11, 124
27, 119592, Control_c, 15, 11, 121
27, 119712, Control_c, 15, 11, 119
27, 119784, Control_c, 15, 11, 116
27, 119904, Control_c, 15, 11, 113
27, 119976, Control_c, 15, 11, 110
27, 120072, Control_c, 15, 11, 106
27, 120144, Control_c, 15, 11, 103
27, 120192, Control_c, 15, 11, 100
27, 120264, Control_c, 15, 11, 96
27, 120312, Control_c, 15, 11, 93
27, 120360, Control_c, 15, 11, 90
27, 120408, Control_c, 15, 11, 86
27, 120456, Control_c, 15, 11, 82
27, 120504, Control_c, 15, 11, 79
27, 120528, Control_c, 15, 11, 76
27, 120576, Control_c, 15, 11, 72
27, 120624, Control_c, 15, 11, 67
27, 120672, Control_c, 15, 11, 61
27, 120720, Control_c, 15, 11, 55
27, 120744, Control_c, 15, 11, 51
27, 120763, Note_on_c, 15, 53, 0
27, 120768, Control_c, 15, 11, 47
27, 120792, Control_c, 15, 11, 44
27, 120816, Control_c, 15, 11, 38
27, 120840, Control_c, 15, 11, 32
27, 120864, Control_c, 15, 11, 26
27, 120888, Control_c, 15, 11, 15
27, 120936, Control_c, 15, 11, 127
27, 130885, Note_on_c, 15, 53, 75
27, 131019, Note_on_c, 15, 53, 0
27, 134728, Note_on_c, 15, 53, 76
27, 134860, Note_on_c, 15, 53, 0
27, 138552, Control_c, 15, 11, 114
27, 138565, Note_on_c, 15, 49, 68
27, 139089, Note_on_c, 15, 49, 0
27, 139209, Note_on_c, 15, 49, 66
27, 139224, Control_c, 15, 11, 115
27, 139313, Note_on_c, 15, 49, 0
27, 139656, Control_c, 15, 11, 116
27, 139686, Note_on_c, 15, 49, 60
27, 139793, Note_on_c, 15, 49, 0
27, 139944, Control_c, 15, 11, 118
27, 140136, Control_c, 15, 11, 119
27, 140168, Note_on_c, 15, 51, 63
27, 140304, Control_c, 15, 11, 120
27, 140424, Control_c, 15, 11, 121
27, 140470, Note_on_c, 15, 51, 0
27, 140487, Note_on_c, 15, 51, 65
27, 140544, Control_c, 15, 11, 123
27, 140616, Control_c, 15, 11, 125
27, 140640, Control_c, 15, 11, 127
27, 140640, Control_c, 15, 11, 127
27, 140784, Control_c, 15, 11, 127
27, 140904, Control_c, 15, 11, 125
27, 141024, Control_c, 15, 11, 123
27, 141096, Control_c, 15, 11, 120
27, 141192, Control_c, 15, 11, 116
27, 141288, Control_c, 15, 11, 113
27, 141336, Control_c, 15, 11, 110
27, 141408, Control_c, 15, 11, 106
27, 141456, Control_c, 15, 11, 103
27, 141504, Control_c, 15, 11, 99
27, 141552, Control_c, 15, 11, 96
27, 141600, Control_c, 15, 11, 91
27, 141648, Control_c, 15, 11, 88
27, 141672, Control_c, 15, 11, 85
27, 141696, Control_c, 15, 11, 82
27, 141744, Control_c, 15, 11, 76
27, 141792, Control_c, 15, 11, 70
27, 141816, Control_c, 15, 11, 67
27, 141840, Control_c, 15, 11, 64
27, 141864, Control_c, 15, 11, 59
27, 141888, Control_c, 15, 11, 55
27, 141912, Control_c, 15, 11, 50
27, 141936, Control_c, 15, 11, 45
27, 141960, Control_c, 15, 11, 37
27, 141984, Control_c, 15, 11, 30
27, 141985, Note_on_c, 15, 51, 0
27, 142008, Control_c, 15, 11, 17
27, 142056, Control_c, 15, 11, 127
27, 142409, Note_on_c, 15, 53, 83
27, 142538, Note_on_c, 15, 53, 0
27, 142889, Note_on_c, 15, 51, 76
27, 143011, Note_on_c, 15, 51, 0
27, 143049, Note_on_c, 15, 53, 84
27, 143154, Note_on_c, 15, 53, 0
27, 143849, Note_on_c, 15, 55, 85
27, 143960, Note_on_c, 15, 55, 0
27, 144322, Note_on_c, 15, 55, 69
27, 144442, Note_on_c, 15, 55, 0
27, 144489, Note_on_c, 15, 55, 78
27, 144582, Note_on_c, 15, 55, 0
27, 145272, Control_c, 15, 11, 114
27, 145288, Note_on_c, 15, 46, 69
27, 145821, Note_on_c, 15, 46, 0
27, 145928, Note_on_c, 15, 49, 72
27, 146044, Note_on_c, 15, 49, 0
27, 146399, Note_on_c, 15, 49, 64
27, 146515, Note_on_c, 15, 49, 0
27, 146886, Note_on_c, 15, 49, 64
27, 147152, Note_on_c, 15, 49, 0
27, 147209, Note_on_c, 15, 49, 71
27, 147301, Note_on_c, 15, 49, 0
27, 147687, Note_on_c, 15, 46, 73
27, 148223, Note_on_c, 15, 46, 0
27, 148320, Note_on_c, 15, 46, 68
27, 148464, Control_c, 15, 11, 115
27, 148587, Note_on_c, 15, 46, 0
27, 148644, Note_on_c, 15, 46, 65
27, 148741, Note_on_c, 15, 46, 0
27, 149769, Note_on_c, 15, 49, 68
27, 149885, Note_on_c, 15, 49, 0
27, 150249, Note_on_c, 15, 49, 69
27, 150366, Note_on_c, 15, 49, 0
27, 150600, Control_c, 15, 11, 116
27, 150726, Note_on_c, 15, 49, 67
27, 150992, Note_on_c, 15, 49, 0
27, 151046, Note_on_c, 15, 49, 66
27, 151139, Note_on_c, 15, 49, 0
27, 151528, Note_on_c, 15, 46, 78
27, 151968, Control_c, 15, 11, 118
27, 152065, Note_on_c, 15, 46, 0
27, 152169, Note_on_c, 15, 46, 63
27, 152436, Note_on_c, 15, 46, 0
27, 152482, Note_on_c, 15, 46, 67
27, 152579, Note_on_c, 15, 46, 0
27, 152952, Control_c, 15, 11, 119
27, 153609, Note_on_c, 15, 49, 69
27, 153696, Control_c, 15, 11, 120
27, 153727, Note_on_c, 15, 49, 0
27, 154089, Note_on_c, 15, 49, 72
27, 154205, Note_on_c, 15, 49, 0
27, 154296, Control_c, 15, 11, 121
27, 154565, Note_on_c, 15, 49, 62
27, 154728, Control_c, 15, 11, 123
27, 154833, Note_on_c, 15, 49, 0
27, 154887, Note_on_c, 15, 49, 73
27, 154979, Note_on_c, 15, 49, 0
27, 155040, Control_c, 15, 11, 124
27, 155256, Control_c, 15, 11, 125
27, 155328, Control_c, 15, 11, 125
27, 155352, Control_c, 15, 11, 127
27, 155369, Note_on_c, 15, 46, 73
27, 155906, Note_on_c, 15, 46, 0
27, 156008, Note_on_c, 15, 46, 62
27, 156274, Note_on_c, 15, 46, 0
27, 156327, Note_on_c, 15, 46, 71
27, 156423, Note_on_c, 15, 46, 0
27, 157927, Note_on_c, 15, 53, 71
27, 158055, Note_on_c, 15, 53, 0
27, 158396, Note_on_c, 15, 52, 65
27, 158663, Note_on_c, 15, 52, 0
27, 158724, Note_on_c, 15, 52, 76
27, 158816, Note_on_c, 15, 52, 0
27, 159208, Note_on_c, 15, 58, 80
27, 159316, Note_on_c, 15, 58, 0
27, 161764, Note_on_c, 15, 52, 71
27, 161893, Note_on_c, 15, 52, 0
27, 162246, Note_on_c, 15, 47, 61
27, 162515, Note_on_c, 15, 47, 0
27, 162561, Note_on_c, 15, 47, 64
27, 162653, Note_on_c, 15, 47, 0
27, 163043, Note_on_c, 15, 46, 53
27, 163626, Note_on_c, 15, 46, 0
27, 163688, Note_on_c, 15, 45, 49
27, 163967, Note_on_c, 15, 45, 0
27, 164009, Note_on_c, 15, 44, 58
27, 164130, Note_on_c, 15, 44, 0
27, 168960, Control_c, 15, 123, 0
27, 168960, End_track
28, 0, Start_track
28, 0, MIDI_port, 0
28, 0, Title_t, "Melody"
28, 0, Program_c, 2, 11
28, 0, Control_c, 2, 7, 100
28, 0, Control_c, 2, 10, 50
28, 0, Control_c, 2, 91, 94
28, 0, Control_c, 2, 93, 5
28, 0, Control_c, 2, 11, 127
28, 0, Control_c, 2, 123, 0
28, 5286, Note_on_c, 2, 73, 105
28, 5588, Note_on_c, 2, 73, 0
28, 5608, Note_on_c, 2, 72, 80
28, 5752, Note_on_c, 2, 72, 0
28, 5769, Note_on_c, 2, 73, 90
28, 5885, Note_on_c, 2, 73, 0
28, 6249, Note_on_c, 2, 61, 78
28, 6551, Note_on_c, 2, 61, 0
28, 6567, Note_on_c, 2, 60, 57
28, 6712, Note_on_c, 2, 60, 0
28, 6727, Note_on_c, 2, 61, 69
28, 6845, Note_on_c, 2, 61, 0
28, 8005, Note_on_c, 2, 65, 80
28, 8541, Note_on_c, 2, 65, 0
28, 8648, Note_on_c, 2, 64, 69
28, 8767, Note_on_c, 2, 64, 0
28, 9129, Note_on_c, 2, 65, 69
28, 9245, Note_on_c, 2, 65, 0
28, 9606, Note_on_c, 2, 64, 67
28, 9723, Note_on_c, 2, 64, 0
28, 10083, Note_on_c, 2, 65, 65
28, 10362, Note_on_c, 2, 65, 0
28, 10400, Pitch_bend_c, 2, 8110
28, 10404, Note_on_c, 2, 66, 80
28, 10410, Pitch_bend_c, 2, 6650
28, 10420, Pitch_bend_c, 2, 6326
28, 10440, Pitch_bend_c, 2, 6163
28, 10450, Pitch_bend_c, 2, 6001
28, 10460, Pitch_bend_c, 2, 5839
28, 10470, Pitch_bend_c, 2, 5677
28, 10490, Pitch_bend_c, 2, 5839
28, 10500, Pitch_bend_c, 2, 6001
28, 10510, Pitch_bend_c, 2, 6163
28, 10520, Pitch_bend_c, 2, 6488
28, 10530, Pitch_bend_c, 2, 6650
28, 10540, Pitch_bend_c, 2, 6974
28, 10550, Pitch_bend_c, 2, 8192
28, 10988, Note_on_c, 2, 66, 0
28, 11045, Note_on_c, 2, 65, 70
28, 11150, Note_on_c, 2, 65, 0
28, 11848, Note_on_c, 2, 65, 80
28, 12384, Note_on_c, 2, 65, 0
28, 12488, Note_on_c, 2, 64, 66
28, 12605, Note_on_c, 2, 64, 0
28, 12963, Note_on_c, 2, 65, 67
28, 13082, Note_on_c, 2, 65, 0
28, 13443, Note_on_c, 2, 64, 70
28, 13560, Note_on_c, 2, 64, 0
28, 13929, Note_on_c, 2, 65, 58
28, 14207, Note_on_c, 2, 65, 0
28, 14240, Pitch_bend_c, 2, 8110
28, 14249, Note_on_c, 2, 66, 74
28, 14250, Pitch_bend_c, 2, 6650
28, 14260, Pitch_bend_c, 2, 6326
28, 14280, Pitch_bend_c, 2, 6163
28, 14290, Pitch_bend_c, 2, 6001
28, 14300, Pitch_bend_c, 2, 5839
28, 14310, Pitch_bend_c, 2, 5677
28, 14330, Pitch_bend_c, 2, 5839
28, 14340, Pitch_bend_c, 2, 6001
28, 14350, Pitch_bend_c, 2, 6163
28, 14360, Pitch_bend_c, 2, 6488
28, 14370, Pitch_bend_c, 2, 6650
28, 14380, Pitch_bend_c, 2, 6974
28, 14390, Pitch_bend_c, 2, 8192
28, 14835, Note_on_c, 2, 66, 0
28, 14883, Note_on_c, 2, 65, 70
28, 14988, Note_on_c, 2, 65, 0
28, 15689, Note_on_c, 2, 66, 77
28, 16225, Note_on_c, 2, 66, 0
28, 16323, Note_on_c, 2, 65, 66
28, 16439, Note_on_c, 2, 65, 0
28, 16809, Note_on_c, 2, 66, 64
28, 17123, Note_on_c, 2, 66, 0
28, 17127, Note_on_c, 2, 68, 68
28, 18589, Note_on_c, 2, 68, 0
28, 18728, Note_on_c, 2, 66, 62
28, 19042, Note_on_c, 2, 66, 0
28, 19046, Note_on_c, 2, 63, 61
28, 19200, Control_c, 2, 11, 127
28, 19392, Control_c, 2, 11, 127
28, 19560, Control_c, 2, 11, 125
28, 19680, Control_c, 2, 11, 124
28, 19800, Control_c, 2, 11, 121
28, 19920, Control_c, 2, 11, 119
28, 20016, Control_c, 2, 11, 116
28, 20136, Control_c, 2, 11, 113
28, 20208, Control_c, 2, 11, 110
28, 20328, Control_c, 2, 11, 106
28, 20400, Control_c, 2, 11, 103
28, 20448, Control_c, 2, 11, 100
28, 20544, Control_c, 2, 11, 95
28, 20616, Control_c, 2, 11, 91
28, 20688, Control_c, 2, 11, 86
28, 20760, Control_c, 2, 11, 81
28, 20808, Control_c, 2, 11, 77
28, 20856, Control_c, 2, 11, 74
28, 20880, Control_c, 2, 11, 71
28, 20928, Control_c, 2, 11, 67
28, 20976, Control_c, 2, 11, 62
28, 21000, Control_c, 2, 11, 59
28, 21024, Control_c, 2, 11, 56
28, 21048, Control_c, 2, 11, 52
28, 21096, Control_c, 2, 11, 46
28, 21120, Control_c, 2, 11, 41
28, 21144, Control_c, 2, 11, 37
28, 21168, Control_c, 2, 11, 31
28, 21192, Control_c, 2, 11, 25
28, 21216, Control_c, 2, 11, 15
28, 21301, Note_on_c, 2, 63, 0
28, 23016, Control_c, 2, 11, 127
28, 23368, Note_on_c, 2, 65, 72
28, 23904, Note_on_c, 2, 65, 0
28, 24009, Note_on_c, 2, 64, 71
28, 24125, Note_on_c, 2, 64, 0
28, 24489, Note_on_c, 2, 65, 73
28, 24605, Note_on_c, 2, 65, 0
28, 24966, Note_on_c, 2, 64, 71
28, 25083, Note_on_c, 2, 64, 0
28, 25445, Note_on_c, 2, 65, 65
28, 25723, Note_on_c, 2, 65, 0
28, 25760, Pitch_bend_c, 2, 8110
28, 25764, Note_on_c, 2, 66, 79
28, 25770, Pitch_bend_c, 2, 6650
28, 25780, Pitch_bend_c, 2, 6326
28, 25800, Pitch_bend_c, 2, 6163
28, 25810, Pitch_bend_c, 2, 6001
28, 25820, Pitch_bend_c, 2, 5839
28, 25830, Pitch_bend_c, 2, 5677
28, 25850, Pitch_bend_c, 2, 5839
28, 25860, Pitch_bend_c, 2, 6001
28, 25870, Pitch_bend_c, 2, 6163
28, 25880, Pitch_bend_c, 2, 6488
28, 25890, Pitch_bend_c, 2, 6650
28, 25900, Pitch_bend_c, 2, 6974
28, 25910, Pitch_bend_c, 2, 8192
28, 26347, Note_on_c, 2, 66, 0
28, 26400, Note_on_c, 2, 65, 73
28, 26506, Note_on_c, 2, 65, 0
28, 27209, Note_on_c, 2, 65, 80
28, 27746, Note_on_c, 2, 65, 0
28, 27849, Note_on_c, 2, 64, 65
28, 27967, Note_on_c, 2, 64, 0
28, 28326, Note_on_c, 2, 65, 67
28, 28442, Note_on_c, 2, 65, 0
28, 28808, Note_on_c, 2, 64, 73
28, 28925, Note_on_c, 2, 64, 0
28, 29284, Note_on_c, 2, 65, 61
28, 29563, Note_on_c, 2, 65, 0
28, 29600, Pitch_bend_c, 2, 8110
28, 29603, Note_on_c, 2, 66, 76
28, 29610, Pitch_bend_c, 2, 6650
28, 29620, Pitch_bend_c, 2, 6326
28, 29640, Pitch_bend_c, 2, 6163
28, 29650, Pitch_bend_c, 2, 6001
28, 29660, Pitch_bend_c, 2, 5839
28, 29670, Pitch_bend_c, 2, 5677
28, 29690, Pitch_bend_c, 2, 5839
28, 29700, Pitch_bend_c, 2, 6001
28, 29710, Pitch_bend_c, 2, 6163
28, 29720, Pitch_bend_c, 2, 6488
28, 29730, Pitch_bend_c, 2, 6650
28, 29740, Pitch_bend_c, 2, 6974
28, 29750, Pitch_bend_c, 2, 8192
28, 30187, Note_on_c, 2, 66, 0
28, 30244, Note_on_c, 2, 65, 73
28, 30348, Note_on_c, 2, 65, 0
28, 31043, Note_on_c, 2, 66, 75
28, 31580, Note_on_c, 2, 66, 0
28, 31688, Note_on_c, 2, 65, 71
28, 31805, Note_on_c, 2, 65, 0
28, 32165, Note_on_c, 2, 66, 64
28, 32480, Note_on_c, 2, 66, 0
28, 32488, Note_on_c, 2, 68, 67
28, 33951, Note_on_c, 2, 68, 0
28, 34086, Note_on_c, 2, 66, 62
28, 34401, Note_on_c, 2, 66, 0
28, 34407, Note_on_c, 2, 70, 73
28, 34560, Control_c, 2, 11, 127
28, 34752, Control_c, 2, 11, 127
28, 34920, Control_c, 2, 11, 125
28, 35040, Control_c, 2, 11, 124
28, 35160, Control_c, 2, 11, 121
28, 35280, Control_c, 2, 11, 119
28, 35376, Control_c, 2, 11, 116
28, 35496, Control_c, 2, 11, 113
28, 35568, Control_c, 2, 11, 110
28, 35688, Control_c, 2, 11, 106
28, 35760, Control_c, 2, 11, 103
28, 35808, Control_c, 2, 11, 100
28, 35904, Control_c, 2, 11, 95
28, 35976, Control_c, 2, 11, 91
28, 36048, Control_c, 2, 11, 86
28, 36120, Control_c, 2, 11, 81
28, 36168, Control_c, 2, 11, 77
28, 36216, Control_c, 2, 11, 74
28, 36240, Control_c, 2, 11, 71
28, 36288, Control_c, 2, 11, 67
28, 36336, Control_c, 2, 11, 62
28, 36360, Control_c, 2, 11, 59
28, 36384, Control_c, 2, 11, 56
28, 36408, Control_c, 2, 11, 52
28, 36456, Control_c, 2, 11, 46
28, 36480, Control_c, 2, 11, 41
28, 36504, Control_c, 2, 11, 37
28, 36528, Control_c, 2, 11, 31
28, 36552, Control_c, 2, 11, 25
28, 36576, Control_c, 2, 11, 15
28, 36661, Note_on_c, 2, 70, 0
28, 36960, Control_c, 2, 11, 127
28, 37769, Note_on_c, 2, 63, 81
28, 37911, Note_on_c, 2, 63, 0
28, 38249, Note_on_c, 2, 61, 69
28, 38381, Note_on_c, 2, 61, 0
28, 38400, Control_c, 2, 86, 37
28, 38640, Note_on_c, 2, 73, 127
28, 39024, Note_on_c, 2, 73, 0
28, 39360, Note_on_c, 2, 72, 127
28, 39744, Note_on_c, 2, 72, 0
28, 39840, Note_on_c, 2, 73, 127
28, 40224, Note_on_c, 2, 73, 0
28, 40320, Note_on_c, 2, 72, 127
28, 40704, Note_on_c, 2, 72, 0
28, 40800, Note_on_c, 2, 73, 127
28, 41040, Note_on_c, 2, 75, 127
28, 41184, Note_on_c, 2, 73, 0
28, 41328, Note_on_c, 2, 75, 0
28, 41760, Note_on_c, 2, 73, 127
28, 42240, Note_on_c, 2, 73, 0
28, 42480, Note_on_c, 2, 73, 101
28, 42620, Note_on_c, 2, 73, 0
28, 42727, Note_on_c, 2, 73, 101
28, 42867, Note_on_c, 2, 73, 0
28, 43207, Note_on_c, 2, 73, 88
28, 43207, Note_on_c, 2, 73, 88
28, 43521, Note_on_c, 2, 73, 0
28, 43521, Note_on_c, 2, 73, 0
28, 43527, Note_on_c, 2, 72, 80
28, 43527, Note_on_c, 2, 72, 80
28, 43682, Note_on_c, 2, 72, 0
28, 43682, Note_on_c, 2, 72, 0
28, 43688, Note_on_c, 2, 70, 75
28, 43688, Note_on_c, 2, 70, 75
28, 44002, Note_on_c, 2, 70, 0
28, 44002, Note_on_c, 2, 70, 0
28, 44006, Note_on_c, 2, 68, 91
28, 44006, Note_on_c, 2, 68, 91
28, 44880, Note_on_c, 2, 65, 127
28, 44882, Note_on_c, 2, 68, 0
28, 44882, Note_on_c, 2, 68, 0
28, 45072, Note_on_c, 2, 65, 0
28, 45120, Note_on_c, 2, 68, 92
28, 45252, Note_on_c, 2, 68, 0
28, 45600, Note_on_c, 2, 70, 127
28, 45984, Note_on_c, 2, 70, 0
28, 46080, Note_on_c, 2, 71, 127
28, 46848, Note_on_c, 2, 71, 0
28, 47520, Note_on_c, 2, 70, 127
28, 47712, Note_on_c, 2, 70, 0
28, 47760, Note_on_c, 2, 68, 127
28, 47760, Note_on_c, 2, 68, 127
28, 47760, Note_on_c, 2, 68, 127
28, 47952, Note_on_c, 2, 68, 0
28, 47952, Note_on_c, 2, 68, 0
28, 48432, Note_on_c, 2, 68, 0
28, 48456, Control_c, 2, 11, 127
28, 48480, Note_on_c, 2, 68, 127
28, 48600, Control_c, 2, 11, 127
28, 48672, Note_on_c, 2, 68, 0
28, 48720, Note_on_c, 2, 66, 127
28, 48720, Control_c, 2, 11, 125
28, 48840, Control_c, 2, 11, 123
28, 48912, Control_c, 2, 11, 120
28, 49032, Control_c, 2, 11, 116
28, 49104, Control_c, 2, 11, 113
28, 49152, Control_c, 2, 11, 110
28, 49224, Control_c, 2, 11, 106
28, 49296, Note_on_c, 2, 66, 0
28, 49296, Control_c, 2, 11, 103
28, 49320, Control_c, 2, 11, 100
28, 49392, Control_c, 2, 11, 95
28, 49440, Note_on_c, 2, 65, 127
28, 49440, Control_c, 2, 11, 91
28, 49488, Control_c, 2, 11, 86
28, 49536, Control_c, 2, 11, 81
28, 49584, Control_c, 2, 11, 76
28, 49632, Note_on_c, 2, 65, 0
28, 49632, Control_c, 2, 11, 70
28, 49656, Control_c, 2, 11, 66
28, 49680, Note_on_c, 2, 63, 127
28, 49680, Control_c, 2, 11, 62
28, 49704, Control_c, 2, 11, 59
28, 49728, Control_c, 2, 11, 55
28, 49752, Control_c, 2, 11, 50
28, 49776, Control_c, 2, 11, 44
28, 49800, Control_c, 2, 11, 37
28, 49824, Control_c, 2, 11, 30
28, 49848, Control_c, 2, 11, 17
28, 49896, Control_c, 2, 11, 127
28, 50352, Note_on_c, 2, 63, 0
28, 51686, Note_on_c, 2, 65, 81
28, 51845, Note_on_c, 2, 65, 0
28, 51848, Note_on_c, 2, 68, 73
28, 52162, Note_on_c, 2, 68, 0
28, 52168, Note_on_c, 2, 65, 87
28, 52324, Note_on_c, 2, 65, 0
28, 52328, Note_on_c, 2, 66, 71
28, 52630, Pitch_bend_c, 2, 7948
28, 52640, Pitch_bend_c, 2, 5352
28, 52643, Note_on_c, 2, 66, 0
28, 52648, Note_on_c, 2, 70, 84
28, 52650, Pitch_bend_c, 2, 4866
28, 52660, Pitch_bend_c, 2, 4704
28, 52690, Pitch_bend_c, 2, 4866
28, 52700, Pitch_bend_c, 2, 5028
28, 52710, Pitch_bend_c, 2, 5352
28, 52720, Pitch_bend_c, 2, 5515
28, 52730, Pitch_bend_c, 2, 5839
28, 52740, Pitch_bend_c, 2, 6163
28, 52750, Pitch_bend_c, 2, 6650
28, 52760, Pitch_bend_c, 2, 6812
28, 52770, Pitch_bend_c, 2, 6974
28, 52780, Pitch_bend_c, 2, 7137
28, 52790, Pitch_bend_c, 2, 7461
28, 52800, Pitch_bend_c, 2, 8110
28, 52800, Control_c, 2, 11, 127
28, 52810, Pitch_bend_c, 2, 8192
28, 52944, Control_c, 2, 11, 125
28, 53040, Control_c, 2, 11, 121
28, 53112, Control_c, 2, 11, 118
28, 53160, Control_c, 2, 11, 115
28, 53208, Control_c, 2, 11, 110
28, 53256, Control_c, 2, 11, 106
28, 53304, Control_c, 2, 11, 101
28, 53328, Control_c, 2, 11, 98
28, 53352, Control_c, 2, 11, 95
28, 53376, Control_c, 2, 11, 91
28, 53400, Control_c, 2, 11, 88
28, 53424, Control_c, 2, 11, 84
28, 53448, Control_c, 2, 11, 79
28, 53472, Control_c, 2, 11, 75
28, 53496, Control_c, 2, 11, 69
28, 53500, Note_on_c, 2, 70, 0
28, 53520, Control_c, 2, 11, 64
28, 53544, Control_c, 2, 11, 56
28, 53568, Control_c, 2, 11, 47
28, 53592, Control_c, 2, 11, 37
28, 53616, Control_c, 2, 11, 22
28, 53736, Control_c, 2, 11, 127
28, 54088, Note_on_c, 2, 65, 91
28, 54222, Note_on_c, 2, 65, 0
28, 54729, Note_on_c, 2, 64, 67
28, 54847, Note_on_c, 2, 64, 0
28, 55208, Note_on_c, 2, 65, 69
28, 55325, Note_on_c, 2, 65, 0
28, 55688, Note_on_c, 2, 64, 70
28, 55804, Note_on_c, 2, 64, 0
28, 56167, Note_on_c, 2, 65, 62
28, 56445, Note_on_c, 2, 65, 0
28, 56480, Pitch_bend_c, 2, 8110
28, 56488, Note_on_c, 2, 66, 78
28, 56490, Pitch_bend_c, 2, 6650
28, 56500, Pitch_bend_c, 2, 6326
28, 56520, Pitch_bend_c, 2, 6163
28, 56530, Pitch_bend_c, 2, 6001
28, 56540, Pitch_bend_c, 2, 5839
28, 56550, Pitch_bend_c, 2, 5677
28, 56570, Pitch_bend_c, 2, 5839
28, 56580, Pitch_bend_c, 2, 6001
28, 56590, Pitch_bend_c, 2, 6163
28, 56600, Pitch_bend_c, 2, 6488
28, 56610, Pitch_bend_c, 2, 6650
28, 56620, Pitch_bend_c, 2, 6974
28, 56630, Pitch_bend_c, 2, 8192
28, 57072, Note_on_c, 2, 66, 0
28, 57128, Note_on_c, 2, 65, 67
28, 57233, Note_on_c, 2, 65, 0
28, 57927, Note_on_c, 2, 65, 97
28, 58059, Note_on_c, 2, 65, 0
28, 58562, Note_on_c, 2, 64, 65
28, 58679, Note_on_c, 2, 64, 0
28, 59048, Note_on_c, 2, 65, 69
28, 59164, Note_on_c, 2, 65, 0
28, 59527, Note_on_c, 2, 64, 74
28, 59646, Note_on_c, 2, 64, 0
28, 60008, Note_on_c, 2, 65, 60
28, 60286, Note_on_c, 2, 65, 0
28, 60320, Pitch_bend_c, 2, 8110
28, 60327, Note_on_c, 2, 66, 71
28, 60330, Pitch_bend_c, 2, 6650
28, 60340, Pitch_bend_c, 2, 6326
28, 60360, Pitch_bend_c, 2, 6163
28, 60370, Pitch_bend_c, 2, 6001
28, 60380, Pitch_bend_c, 2, 5839
28, 60390, Pitch_bend_c, 2, 5677
28, 60410, Pitch_bend_c, 2, 5839
28, 60420, Pitch_bend_c, 2, 6001
28, 60430, Pitch_bend_c, 2, 6163
28, 60440, Pitch_bend_c, 2, 6488
28, 60450, Pitch_bend_c, 2, 6650
28, 60460, Pitch_bend_c, 2, 6974
28, 60470, Pitch_bend_c, 2, 8192
28, 60910, Note_on_c, 2, 66, 0
28, 60967, Note_on_c, 2, 65, 74
28, 61071, Note_on_c, 2, 65, 0
28, 61768, Note_on_c, 2, 70, 80
28, 62304, Note_on_c, 2, 70, 0
28, 62406, Note_on_c, 2, 69, 73
28, 62522, Note_on_c, 2, 69, 0
28, 62888, Note_on_c, 2, 70, 73
28, 63004, Note_on_c, 2, 70, 0
28, 63369, Note_on_c, 2, 71, 64
28, 63686, Note_on_c, 2, 71, 0
28, 63688, Note_on_c, 2, 72, 77
28, 64747, Note_on_c, 2, 72, 0
28, 64804, Note_on_c, 2, 65, 58
28, 65127, Note_on_c, 2, 73, 82
28, 65143, Note_on_c, 2, 65, 0
28, 67068, Note_on_c, 2, 73, 0
28, 67687, Note_on_c, 2, 73, 103
28, 68001, Note_on_c, 2, 73, 0
28, 68009, Note_on_c, 2, 70, 109
28, 68164, Note_on_c, 2, 70, 0
28, 68168, Note_on_c, 2, 72, 96
28, 68482, Note_on_c, 2, 72, 0
28, 68489, Note_on_c, 2, 73, 115
28, 68644, Note_on_c, 2, 73, 0
28, 68649, Note_on_c, 2, 72, 87
28, 68964, Note_on_c, 2, 72, 0
28, 68969, Note_on_c, 2, 70, 106
28, 69126, Note_on_c, 2, 70, 0
28, 69127, Note_on_c, 2, 72, 93
28, 69575, Note_on_c, 2, 72, 0
28, 69607, Note_on_c, 2, 73, 108
28, 69921, Note_on_c, 2, 73, 0
28, 69928, Note_on_c, 2, 72, 102
28, 70511, Note_on_c, 2, 72, 0
28, 70568, Note_on_c, 2, 68, 97
28, 70882, Note_on_c, 2, 68, 0
28, 70884, Note_on_c, 2, 61, 106
28, 71039, Note_on_c, 2, 61, 0
28, 71046, Note_on_c, 2, 66, 85
28, 71361, Note_on_c, 2, 66, 0
28, 71367, Note_on_c, 2, 68, 103
28, 71520, Note_on_c, 2, 66, 85
28, 71523, Note_on_c, 2, 68, 0
28, 71810, Note_on_c, 2, 66, 0
28, 71848, Note_on_c, 2, 66, 103
28, 71981, Note_on_c, 2, 66, 0
28, 72329, Note_on_c, 2, 73, 91
28, 72801, Note_on_c, 2, 73, 0
28, 72809, Note_on_c, 2, 70, 106
28, 72961, Note_on_c, 2, 72, 96
28, 72964, Note_on_c, 2, 70, 0
28, 73409, Note_on_c, 2, 72, 0
28, 73447, Note_on_c, 2, 73, 108
28, 73761, Note_on_c, 2, 73, 0
28, 73767, Note_on_c, 2, 72, 97
28, 74351, Note_on_c, 2, 72, 0
28, 74406, Note_on_c, 2, 68, 94
28, 74723, Note_on_c, 2, 68, 0
28, 74729, Note_on_c, 2, 61, 104
28, 74886, Note_on_c, 2, 61, 0
28, 74887, Note_on_c, 2, 66, 83
28, 75201, Note_on_c, 2, 66, 0
28, 75202, Note_on_c, 2, 68, 98
28, 75357, Note_on_c, 2, 68, 0
28, 75369, Note_on_c, 2, 66, 82
28, 75661, Note_on_c, 2, 66, 0
28, 75686, Note_on_c, 2, 66, 103
28, 75818, Note_on_c, 2, 66, 0
28, 76168, Note_on_c, 2, 73, 94
28, 76640, Note_on_c, 2, 73, 0
28, 76648, Note_on_c, 2, 70, 98
28, 76803, Note_on_c, 2, 70, 0
28, 76806, Note_on_c, 2, 72, 81
28, 77121, Note_on_c, 2, 72, 0
28, 77127, Note_on_c, 2, 73, 98
28, 77758, Note_on_c, 2, 73, 0
28, 77769, Note_on_c, 2, 72, 87
28, 77889, Note_on_c, 2, 73, 88
28, 77899, Note_on_c, 2, 72, 0
28, 78005, Note_on_c, 2, 72, 72
28, 78018, Note_on_c, 2, 73, 0
28, 78121, Note_on_c, 2, 68, 74
28, 78133, Note_on_c, 2, 72, 0
28, 78247, Note_on_c, 2, 65, 82
28, 78249, Note_on_c, 2, 68, 0
28, 78562, Note_on_c, 2, 65, 0
28, 78564, Note_on_c, 2, 61, 90
28, 78720, Note_on_c, 2, 61, 0
28, 78725, Note_on_c, 2, 66, 82
28, 79039, Note_on_c, 2, 66, 0
28, 79046, Note_on_c, 2, 68, 96
28, 79629, Note_on_c, 2, 68, 0
28, 79686, Note_on_c, 2, 65, 86
28, 79809, Note_on_c, 2, 66, 91
28, 79815, Note_on_c, 2, 65, 0
28, 79924, Note_on_c, 2, 65, 73
28, 79937, Note_on_c, 2, 66, 0
28, 80048, Note_on_c, 2, 63, 76
28, 80052, Note_on_c, 2, 65, 0
28, 80168, Note_on_c, 2, 58, 79
28, 80177, Note_on_c, 2, 63, 0
28, 80482, Note_on_c, 2, 58, 0
28, 80487, Note_on_c, 2, 61, 79
28, 81387, Note_on_c, 2, 61, 0
28, 81445, Note_on_c, 2, 58, 89
28, 81553, Note_on_c, 2, 58, 0
28, 84808, Note_on_c, 2, 65, 68
28, 85416, Note_on_c, 2, 65, 0
28, 85444, Note_on_c, 2, 64, 54
28, 85746, Note_on_c, 2, 64, 0
28, 85766, Note_on_c, 2, 65, 64
28, 85875, Note_on_c, 2, 65, 0
28, 88169, Note_on_c, 2, 68, 76
28, 88289, Note_on_c, 2, 68, 0
28, 88644, Note_on_c, 2, 69, 69
28, 89239, Note_on_c, 2, 69, 0
28, 89288, Note_on_c, 2, 70, 59
28, 89578, Note_on_c, 2, 70, 0
28, 89595, Note_on_c, 2, 61, 81
28, 89704, Note_on_c, 2, 61, 0
28, 91528, Note_on_c, 2, 69, 59
28, 91683, Note_on_c, 2, 69, 0
28, 91689, Note_on_c, 2, 70, 56
28, 92003, Note_on_c, 2, 70, 0
28, 92008, Note_on_c, 2, 73, 66
28, 93116, Note_on_c, 2, 73, 0
28, 93129, Note_on_c, 2, 70, 62
28, 94030, Note_on_c, 2, 70, 0
28, 94088, Note_on_c, 2, 68, 53
28, 94390, Note_on_c, 2, 68, 0
28, 94402, Note_on_c, 2, 66, 71
28, 94511, Note_on_c, 2, 66, 0
28, 96006, Note_on_c, 2, 65, 57
28, 96310, Note_on_c, 2, 65, 0
28, 96325, Note_on_c, 2, 63, 70
28, 96457, Note_on_c, 2, 63, 0
28, 96488, Note_on_c, 2, 65, 67
28, 96778, Note_on_c, 2, 65, 0
28, 96807, Note_on_c, 2, 65, 76
28, 96915, Note_on_c, 2, 65, 0
28, 100164, Note_on_c, 2, 65, 64
28, 100773, Note_on_c, 2, 65, 0
28, 100807, Note_on_c, 2, 64, 55
28, 101109, Note_on_c, 2, 64, 0
28, 101129, Note_on_c, 2, 65, 62
28, 101237, Note_on_c, 2, 65, 0
28, 103529, Note_on_c, 2, 68, 79
28, 103649, Note_on_c, 2, 68, 0
28, 104006, Note_on_c, 2, 69, 64
28, 104601, Note_on_c, 2, 69, 0
28, 104648, Note_on_c, 2, 70, 57
28, 104940, Note_on_c, 2, 70, 0
28, 104968, Note_on_c, 2, 61, 80
28, 105076, Note_on_c, 2, 61, 0
28, 106887, Note_on_c, 2, 69, 66
28, 107040, Note_on_c, 2, 70, 52
28, 107043, Note_on_c, 2, 69, 0
28, 107354, Note_on_c, 2, 70, 0
28, 107365, Note_on_c, 2, 73, 65
28, 108471, Note_on_c, 2, 73, 0
28, 108483, Note_on_c, 2, 70, 67
28, 109383, Note_on_c, 2, 70, 0
28, 109449, Note_on_c, 2, 68, 57
28, 109752, Note_on_c, 2, 68, 0
28, 109768, Note_on_c, 2, 66, 75
28, 109876, Note_on_c, 2, 66, 0
28, 111369, Note_on_c, 2, 65, 57
28, 111673, Note_on_c, 2, 65, 0
28, 111687, Note_on_c, 2, 63, 66
28, 111819, Note_on_c, 2, 63, 0
28, 111848, Note_on_c, 2, 65, 57
28, 112139, Note_on_c, 2, 65, 0
28, 112165, Note_on_c, 2, 65, 75
28, 112273, Note_on_c, 2, 65, 0
28, 113129, Note_on_c, 2, 70, 68
28, 113577, Note_on_c, 2, 70, 0
28, 113609, Note_on_c, 2, 68, 67
28, 113764, Note_on_c, 2, 68, 0
28, 113767, Note_on_c, 2, 70, 64
28, 114070, Control_c, 2, 11, 104
28, 114082, Note_on_c, 2, 70, 0
28, 114086, Note_on_c, 2, 68, 78
28, 114330, Control_c, 2, 11, 105
28, 114520, Control_c, 2, 11, 106
28, 114640, Control_c, 2, 11, 108
28, 114740, Control_c, 2, 11, 109
28, 114840, Control_c, 2, 11, 110
28, 114930, Control_c, 2, 11, 113
28, 115030, Control_c, 2, 11, 115
28, 115090, Control_c, 2, 11, 118
28, 115098, Note_on_c, 2, 68, 0
28, 115150, Control_c, 2, 11, 121
28, 115180, Control_c, 2, 11, 124
28, 115190, Control_c, 2, 11, 127
28, 115200, Control_c, 2, 11, 127
28, 115209, Note_on_c, 2, 63, 86
28, 115326, Note_on_c, 2, 63, 0
28, 119527, Note_on_c, 2, 73, 93
28, 119668, Note_on_c, 2, 73, 0
28, 120009, Note_on_c, 2, 73, 85
28, 120326, Note_on_c, 2, 73, 0
28, 120329, Note_on_c, 2, 72, 84
28, 120483, Note_on_c, 2, 70, 81
28, 120486, Note_on_c, 2, 72, 0
28, 120797, Note_on_c, 2, 70, 0
28, 120805, Note_on_c, 2, 68, 88
28, 121681, Note_on_c, 2, 68, 0
28, 121765, Note_on_c, 2, 65, 85
28, 121898, Note_on_c, 2, 65, 0
28, 123208, Note_on_c, 2, 63, 80
28, 123354, Note_on_c, 2, 63, 0
28, 123366, Note_on_c, 2, 63, 78
28, 123670, Note_on_c, 2, 63, 0
28, 123688, Note_on_c, 2, 63, 91
28, 123808, Note_on_c, 2, 63, 0
28, 125256, Control_c, 2, 11, 127
28, 125289, Note_on_c, 2, 62, 84
28, 125400, Control_c, 2, 11, 127
28, 125520, Control_c, 2, 11, 125
28, 125640, Control_c, 2, 11, 123
28, 125712, Control_c, 2, 11, 120
28, 125832, Control_c, 2, 11, 116
28, 125904, Control_c, 2, 11, 113
28, 125952, Control_c, 2, 11, 110
28, 126024, Control_c, 2, 11, 106
28, 126096, Control_c, 2, 11, 103
28, 126120, Control_c, 2, 11, 100
28, 126192, Control_c, 2, 11, 95
28, 126240, Control_c, 2, 11, 91
28, 126288, Control_c, 2, 11, 86
28, 126336, Control_c, 2, 11, 81
28, 126384, Control_c, 2, 11, 76
28, 126432, Control_c, 2, 11, 70
28, 126456, Control_c, 2, 11, 66
28, 126480, Control_c, 2, 11, 62
28, 126504, Control_c, 2, 11, 59
28, 126528, Control_c, 2, 11, 55
28, 126552, Control_c, 2, 11, 50
28, 126553, Note_on_c, 2, 62, 0
28, 126576, Control_c, 2, 11, 44
28, 126600, Control_c, 2, 11, 37
28, 126624, Control_c, 2, 11, 30
28, 126648, Control_c, 2, 11, 17
28, 126696, Control_c, 2, 11, 127
28, 128485, Note_on_c, 2, 65, 78
28, 128641, Note_on_c, 2, 65, 0
28, 128649, Note_on_c, 2, 68, 78
28, 128963, Note_on_c, 2, 68, 0
28, 128969, Note_on_c, 2, 65, 79
28, 129126, Note_on_c, 2, 65, 0
28, 129129, Note_on_c, 2, 66, 68
28, 129430, Pitch_bend_c, 2, 7948
28, 129440, Pitch_bend_c, 2, 5352
28, 129443, Note_on_c, 2, 66, 0
28, 129448, Note_on_c, 2, 70, 90
28, 129450, Pitch_bend_c, 2, 4866
28, 129460, Pitch_bend_c, 2, 4704
28, 129490, Pitch_bend_c, 2, 4866
28, 129500, Pitch_bend_c, 2, 5028
28, 129510, Pitch_bend_c, 2, 5352
28, 129520, Pitch_bend_c, 2, 5515
28, 129530, Pitch_bend_c, 2, 5839
28, 129540, Pitch_bend_c, 2, 6163
28, 129550, Pitch_bend_c, 2, 6650
28, 129560, Pitch_bend_c, 2, 6812
28, 129570, Pitch_bend_c, 2, 6974
28, 129580, Pitch_bend_c, 2, 7137
28, 129590, Pitch_bend_c, 2, 7461
28, 129600, Pitch_bend_c, 2, 8110
28, 129600, Control_c, 2, 11, 127
28, 129610, Pitch_bend_c, 2, 8192
28, 129744, Control_c, 2, 11, 125
28, 129840, Control_c, 2, 11, 121
28, 129912, Control_c, 2, 11, 118
28, 129960, Control_c, 2, 11, 115
28, 130008, Control_c, 2, 11, 110
28, 130056, Control_c, 2, 11, 106
28, 130104, Control_c, 2, 11, 101
28, 130128, Control_c, 2, 11, 98
28, 130152, Control_c, 2, 11, 95
28, 130176, Control_c, 2, 11, 91
28, 130200, Control_c, 2, 11, 88
28, 130224, Control_c, 2, 11, 84
28, 130248, Control_c, 2, 11, 79
28, 130272, Control_c, 2, 11, 75
28, 130296, Control_c, 2, 11, 69
28, 130300, Note_on_c, 2, 70, 0
28, 130320, Control_c, 2, 11, 64
28, 130344, Control_c, 2, 11, 56
28, 130368, Control_c, 2, 11, 47
28, 130392, Control_c, 2, 11, 37
28, 130416, Control_c, 2, 11, 22
28, 130536, Control_c, 2, 11, 127
28, 130883, Note_on_c, 2, 65, 96
28, 131016, Note_on_c, 2, 65, 0
28, 131523, Note_on_c, 2, 64, 72
28, 131640, Note_on_c, 2, 64, 0
28, 132008, Note_on_c, 2, 65, 69
28, 132124, Note_on_c, 2, 65, 0
28, 132487, Note_on_c, 2, 64, 65
28, 132603, Note_on_c, 2, 64, 0
28, 132967, Note_on_c, 2, 65, 62
28, 133247, Note_on_c, 2, 65, 0
28, 133280, Pitch_bend_c, 2, 8110
28, 133289, Note_on_c, 2, 66, 76
28, 133290, Pitch_bend_c, 2, 6650
28, 133300, Pitch_bend_c, 2, 6326
28, 133320, Pitch_bend_c, 2, 6163
28, 133330, Pitch_bend_c, 2, 6001
28, 133340, Pitch_bend_c, 2, 5839
28, 133350, Pitch_bend_c, 2, 5677
28, 133370, Pitch_bend_c, 2, 5839
28, 133380, Pitch_bend_c, 2, 6001
28, 133390, Pitch_bend_c, 2, 6163
28, 133400, Pitch_bend_c, 2, 6488
28, 133410, Pitch_bend_c, 2, 6650
28, 133420, Pitch_bend_c, 2, 6974
28, 133430, Pitch_bend_c, 2, 8192
28, 133873, Note_on_c, 2, 66, 0
28, 133924, Note_on_c, 2, 65, 67
28, 134028, Note_on_c, 2, 65, 0
28, 134728, Note_on_c, 2, 65, 95
28, 134862, Note_on_c, 2, 65, 0
28, 135366, Note_on_c, 2, 64, 65
28, 135484, Note_on_c, 2, 64, 0
28, 135847, Note_on_c, 2, 65, 74
28, 135965, Note_on_c, 2, 65, 0
28, 136326, Note_on_c, 2, 64, 69
28, 136443, Note_on_c, 2, 64, 0
28, 136807, Note_on_c, 2, 65, 66
28, 137087, Note_on_c, 2, 65, 0
28, 137120, Pitch_bend_c, 2, 8110
28, 137129, Note_on_c, 2, 66, 76
28, 137130, Pitch_bend_c, 2, 6650
28, 137140, Pitch_bend_c, 2, 6326
28, 137160, Pitch_bend_c, 2, 6163
28, 137170, Pitch_bend_c, 2, 6001
28, 137180, Pitch_bend_c, 2, 5839
28, 137190, Pitch_bend_c, 2, 5677
28, 137210, Pitch_bend_c, 2, 5839
28, 137220, Pitch_bend_c, 2, 6001
28, 137230, Pitch_bend_c, 2, 6163
28, 137240, Pitch_bend_c, 2, 6488
28, 137250, Pitch_bend_c, 2, 6650
28, 137260, Pitch_bend_c, 2, 6974
28, 137270, Pitch_bend_c, 2, 8192
28, 137713, Note_on_c, 2, 66, 0
28, 137769, Note_on_c, 2, 65, 69
28, 137874, Note_on_c, 2, 65, 0
28, 138569, Note_on_c, 2, 70, 72
28, 139107, Note_on_c, 2, 70, 0
28, 139207, Note_on_c, 2, 69, 74
28, 139323, Note_on_c, 2, 69, 0
28, 139686, Note_on_c, 2, 70, 68
28, 139803, Note_on_c, 2, 70, 0
28, 140168, Note_on_c, 2, 71, 63
28, 140482, Note_on_c, 2, 71, 0
28, 140486, Note_on_c, 2, 72, 78
28, 141546, Note_on_c, 2, 72, 0
28, 141609, Note_on_c, 2, 65, 64
28, 141929, Note_on_c, 2, 73, 85
28, 141950, Note_on_c, 2, 65, 0
28, 143866, Note_on_c, 2, 73, 0
28, 144488, Note_on_c, 2, 73, 97
28, 144803, Note_on_c, 2, 73, 0
28, 144808, Note_on_c, 2, 70, 105
28, 144964, Note_on_c, 2, 70, 0
28, 144969, Note_on_c, 2, 72, 87
28, 145285, Note_on_c, 2, 72, 0
28, 145286, Note_on_c, 2, 73, 100
28, 145442, Note_on_c, 2, 73, 0
28, 145448, Note_on_c, 2, 72, 86
28, 145764, Note_on_c, 2, 72, 0
28, 145767, Note_on_c, 2, 70, 98
28, 145923, Note_on_c, 2, 70, 0
28, 145929, Note_on_c, 2, 72, 89
28, 146378, Note_on_c, 2, 72, 0
28, 146409, Note_on_c, 2, 73, 98
28, 146723, Note_on_c, 2, 73, 0
28, 146726, Note_on_c, 2, 72, 96
28, 147309, Note_on_c, 2, 72, 0
28, 147368, Note_on_c, 2, 68, 88
28, 147684, Note_on_c, 2, 68, 0
28, 147688, Note_on_c, 2, 61, 101
28, 147843, Note_on_c, 2, 61, 0
28, 147848, Note_on_c, 2, 66, 81
28, 148163, Note_on_c, 2, 66, 0
28, 148167, Note_on_c, 2, 68, 98
28, 148322, Note_on_c, 2, 68, 0
28, 148329, Note_on_c, 2, 66, 85
28, 148621, Note_on_c, 2, 66, 0
28, 148648, Note_on_c, 2, 66, 91
28, 148780, Note_on_c, 2, 66, 0
28, 149125, Note_on_c, 2, 73, 93
28, 149597, Note_on_c, 2, 73, 0
28, 149604, Note_on_c, 2, 70, 92
28, 149759, Note_on_c, 2, 70, 0
28, 149767, Note_on_c, 2, 72, 89
28, 150215, Note_on_c, 2, 72, 0
28, 150249, Note_on_c, 2, 73, 101
28, 150563, Note_on_c, 2, 73, 0
28, 150569, Note_on_c, 2, 72, 96
28, 151152, Note_on_c, 2, 72, 0
28, 151207, Note_on_c, 2, 68, 88
28, 151521, Note_on_c, 2, 68, 0
28, 151529, Note_on_c, 2, 61, 102
28, 151684, Note_on_c, 2, 61, 0
28, 151689, Note_on_c, 2, 66, 80
28, 152003, Note_on_c, 2, 66, 0
28, 152005, Note_on_c, 2, 68, 91
28, 152161, Note_on_c, 2, 68, 0
28, 152166, Note_on_c, 2, 66, 82
28, 152456, Note_on_c, 2, 66, 0
28, 152484, Note_on_c, 2, 66, 99
28, 152617, Note_on_c, 2, 66, 0
28, 152967, Note_on_c, 2, 73, 92
28, 153440, Note_on_c, 2, 73, 0
28, 153444, Note_on_c, 2, 70, 92
28, 153599, Note_on_c, 2, 70, 0
28, 153608, Note_on_c, 2, 72, 79
28, 153923, Note_on_c, 2, 72, 0
28, 153928, Note_on_c, 2, 73, 96
28, 154560, Note_on_c, 2, 73, 0
28, 154569, Note_on_c, 2, 72, 77
28, 154689, Note_on_c, 2, 73, 88
28, 154697, Note_on_c, 2, 72, 0
28, 154806, Note_on_c, 2, 72, 66
28, 154817, Note_on_c, 2, 73, 0
28, 154929, Note_on_c, 2, 68, 77
28, 154934, Note_on_c, 2, 72, 0
28, 155049, Note_on_c, 2, 65, 79
28, 155057, Note_on_c, 2, 68, 0
28, 155363, Note_on_c, 2, 65, 0
28, 155368, Note_on_c, 2, 61, 93
28, 155524, Note_on_c, 2, 61, 0
28, 155527, Note_on_c, 2, 66, 82
28, 155843, Note_on_c, 2, 66, 0
28, 155848, Note_on_c, 2, 68, 91
28, 156432, Note_on_c, 2, 68, 0
28, 156489, Note_on_c, 2, 65, 80
28, 156609, Note_on_c, 2, 66, 93
28, 156619, Note_on_c, 2, 65, 0
28, 156727, Note_on_c, 2, 65, 72
28, 156737, Note_on_c, 2, 66, 0
28, 156848, Note_on_c, 2, 63, 68
28, 156855, Note_on_c, 2, 65, 0
28, 156968, Note_on_c, 2, 58, 77
28, 156977, Note_on_c, 2, 63, 0
28, 157285, Note_on_c, 2, 58, 0
28, 157285, Note_on_c, 2, 61, 81
28, 158187, Note_on_c, 2, 61, 0
28, 158242, Note_on_c, 2, 58, 85
28, 158350, Note_on_c, 2, 58, 0
28, 159126, Note_on_c, 2, 61, 51
28, 159360, Control_c, 2, 11, 127
28, 159528, Control_c, 2, 11, 127
28, 159648, Control_c, 2, 11, 125
28, 159768, Control_c, 2, 11, 124
28, 159864, Control_c, 2, 11, 121
28, 159984, Control_c, 2, 11, 118
28, 160080, Control_c, 2, 11, 115
28, 160176, Control_c, 2, 11, 111
28, 160248, Control_c, 2, 11, 108
28, 160296, Control_c, 2, 11, 105
28, 160368, Control_c, 2, 11, 101
28, 160440, Control_c, 2, 11, 98
28, 160464, Control_c, 2, 11, 95
28, 160536, Control_c, 2, 11, 90
28, 160584, Control_c, 2, 11, 86
28, 160632, Control_c, 2, 11, 82
28, 160680, Control_c, 2, 11, 79
28, 160704, Control_c, 2, 11, 76
28, 160752, Control_c, 2, 11, 70
28, 160776, Control_c, 2, 11, 67
28, 160824, Control_c, 2, 11, 61
28, 160848, Control_c, 2, 11, 57
28, 160896, Control_c, 2, 11, 50
28, 160920, Control_c, 2, 11, 46
28, 160944, Control_c, 2, 11, 41
28, 160957, Note_on_c, 2, 61, 0
28, 160968, Control_c, 2, 11, 35
28, 160992, Control_c, 2, 11, 27
28, 161016, Control_c, 2, 11, 16
28, 161256, Control_c, 2, 11, 127
28, 161762, Note_on_c, 2, 73, 75
28, 161903, Note_on_c, 2, 73, 0
28, 162249, Note_on_c, 2, 73, 62
28, 162527, Note_on_c, 2, 73, 0
28, 162562, Note_on_c, 2, 73, 69
28, 162666, Note_on_c, 2, 73, 0
28, 163045, Note_on_c, 2, 68, 57
28, 163443, Note_on_c, 2, 67, 10
28, 163450, Note_on_c, 2, 68, 0
28, 163489, Note_on_c, 2, 66, 16
28, 163492, Note_on_c, 2, 67, 0
28, 163529, Note_on_c, 2, 65, 18
28, 163539, Note_on_c, 2, 66, 0
28, 163566, Note_on_c, 2, 64, 21
28, 163578, Note_on_c, 2, 65, 0
28, 163609, Note_on_c, 2, 63, 28
28, 163615, Note_on_c, 2, 64, 0
28, 163647, Note_on_c, 2, 62, 39
28, 163659, Note_on_c, 2, 63, 0
28, 163688, Note_on_c, 2, 61, 52
28, 163699, Note_on_c, 2, 62, 0
28, 163978, Note_on_c, 2, 61, 0
28, 164009, Note_on_c, 2, 61, 57
28, 164141, Note_on_c, 2, 61, 0
28, 168960, Control_c, 2, 123, 0
28, 168960, End_track
29, 0, Start_track
29, 0, MIDI_port, 0
29, 0, Title_t, """Nice 'n' Easy"""
29, 0, Program_c, 0, 32
29, 0, Control_c, 0, 7, 120
29, 0, Control_c, 0, 10, 44
29, 0, Control_c, 0, 91, 94
29, 0, Control_c, 0, 93, 5
29, 0, End_track
30, 0, Start_track
30, 0, MIDI_port, 0
30, 0, Title_t, "(Count Basie Orchestra)"
30, 0, Program_c, 0, 32
30, 0, Control_c, 0, 7, 120
30, 0, Control_c, 0, 10, 44
30, 0, Control_c, 0, 91, 94
30, 0, Control_c, 0, 93, 5
30, 0, End_track
31, 0, Start_track
31, 0, MIDI_port, 0
31, 0, Title_t, "Sequenced for General MIDI "
31, 0, Program_c, 0, 32
31, 0, Control_c, 0, 7, 120
31, 0, Control_c, 0, 10, 44
31, 0, Control_c, 0, 91, 94
31, 0, Control_c, 0, 93, 5
31, 0, End_track
32, 0, Start_track
32, 0, MIDI_port, 0
32, 0, Title_t, "by GaryW0001@AOL.com"
32, 0, Program_c, 0, 32
32, 0, Control_c, 0, 7, 120
32, 0, Control_c, 0, 10, 44
32, 0, Control_c, 0, 91, 94
32, 0, Control_c, 0, 93, 5
32, 0, End_track
33, 0, Start_track
33, 0, MIDI_port, 0
33, 0, Title_t, "Music by Al Spence"
33, 0, Program_c, 0, 32
33, 0, Control_c, 0, 7, 120
33, 0, Control_c, 0, 10, 44
33, 0, Control_c, 0, 91, 94
33, 0, Control_c, 0, 93, 5
33, 0, End_track
34, 0, Start_track
34, 0, MIDI_port, 0
34, 0, Title_t, "Sequence Copyright ©1998"
34, 0, Program_c, 0, 32
34, 0, Control_c, 0, 7, 120
34, 0, Control_c, 0, 10, 44
34, 0, Control_c, 0, 91, 94
34, 0, Control_c, 0, 93, 5
34, 0, End_track
35, 0, Start_track
35, 0, MIDI_port, 0
35, 0, Title_t, "by Blue Max Distribution"
35, 0, Program_c, 0, 32
35, 0, Control_c, 0, 7, 120
35, 0, Control_c, 0, 10, 44
35, 0, Control_c, 0, 91, 94
35, 0, Control_c, 0, 93, 5
35, 0, End_track
36, 0, Start_track
36, 0, MIDI_port, 0
36, 0, Title_t, "All Rights Reserved"
36, 0, Program_c, 0, 32
36, 0, Control_c, 0, 7, 120
36, 0, Control_c, 0, 10, 44
36, 0, Control_c, 0, 91, 94
36, 0, Control_c, 0, 93, 5
36, 0, End_track
37, 0, Start_track
37, 0, MIDI_port, 0
37, 0, Title_t, "Make NO Alterations!"
37, 0, Program_c, 0, 32
37, 0, Control_c, 0, 7, 120
37, 0, Control_c, 0, 10, 44
37, 0, Control_c, 0, 91, 94
37, 0, Control_c, 0, 93, 5
37, 0, End_track
38, 0, Start_track
38, 0, MIDI_port, 0
38, 0, Title_t, "E-Mail: GaryW0001@AOL.com"
38, 0, Program_c, 0, 32
38, 0, Control_c, 0, 7, 120
38, 0, Control_c, 0, 10, 44
38, 0, Control_c, 0, 91, 94
38, 0, Control_c, 0, 93, 5
38, 0, End_track
39, 0, Start_track
39, 0, MIDI_port, 0
39, 0, Title_t, "For a COMPLETE Archive of my"
39, 0, Program_c, 0, 32
39, 0, Control_c, 0, 7, 120
39, 0, Control_c, 0, 10, 44
39, 0, Control_c, 0, 91, 94
39, 0, Control_c, 0, 93, 5
39, 0, End_track
40, 0, Start_track
40, 0, MIDI_port, 0
40, 0, Title_t, "visit my Official MIDI Homep"
40, 0, Program_c, 0, 32
40, 0, Control_c, 0, 7, 120
40, 0, Control_c, 0, 10, 44
40, 0, Control_c, 0, 91, 94
40, 0, Control_c, 0, 93, 5
40, 0, End_track
41, 0, Start_track
41, 0, MIDI_port, 0
41, 0, Title_t, "http://garyw0001.simplenet.c"
41, 0, Program_c, 0, 32
41, 0, Control_c, 0, 7, 120
41, 0, Control_c, 0, 10, 44
41, 0, Control_c, 0, 91, 94
41, 0, Control_c, 0, 93, 5
41, 0, End_track
0, 0, End_of_file
