0, 0, Header, 0, 1, 96
1, 0, Start_track
1, 0, Title_t, "NIGHTS ON BROADWAY              ;Barry Gibb / Robin Gibb / Maurice Gibb"
1, 0, Copyright_t, "(C) 1994 Tune 1000 Corporation  ;1975 Gibb Bros. Music (BMI). Int'l Rights Secured."
1, 0, Time_signature, 4, 2, 24, 8
1, 0, Tempo, 652174
1, 0, Key_signature, 6, "major"
1, 0, System_exclusive, 5, 126, 127, 9, 1, 247
1, 0, Text_t, "Back Vocal"
1, 0, Lyric_t, "ALL rights reserved. Not for broadcast or "
1, 0, Lyric_t, "\015"
1, 0, Lyric_t, "transmission of any kind. "
1, 0, Lyric_t, "\015"
1, 0, Lyric_t, "DO NOT DUPLICATE. NOT FOR RENTAL. "
1, 0, Lyric_t, "\015"
1, 98, Program_c, 0, 1
1, 99, Control_c, 0, 7, 105
1, 99, Control_c, 0, 10, 66
1, 99, Control_c, 0, 11, 127
1, 100, Control_c, 0, 91, 55
1, 100, Control_c, 0, 93, 10
1, 103, Program_c, 1, 38
1, 104, Control_c, 1, 7, 105
1, 104, Control_c, 1, 10, 64
1, 104, Control_c, 1, 11, 127
1, 105, Control_c, 1, 91, 10
1, 105, Control_c, 1, 93, 30
1, 108, Program_c, 2, 27
1, 109, Control_c, 2, 7, 90
1, 109, Control_c, 2, 10, 8
1, 109, Control_c, 2, 11, 127
1, 110, Control_c, 2, 91, 60
1, 110, Control_c, 2, 93, 35
1, 113, Program_c, 3, 62
1, 114, Control_c, 3, 7, 100
1, 114, Control_c, 3, 10, 59
1, 114, Control_c, 3, 11, 127
1, 115, Control_c, 3, 91, 60
1, 115, Control_c, 3, 93, 0
1, 118, Program_c, 4, 60
1, 119, Control_c, 4, 7, 90
1, 119, Control_c, 4, 10, 76
1, 119, Control_c, 4, 11, 127
1, 120, Control_c, 4, 91, 57
1, 120, Control_c, 4, 93, 0
1, 123, Program_c, 5, 54
1, 124, Control_c, 5, 7, 100
1, 124, Control_c, 5, 10, 110
1, 124, Control_c, 5, 11, 127
1, 125, Control_c, 5, 91, 65
1, 125, Control_c, 5, 93, 0
1, 128, Program_c, 6, 7
1, 129, Control_c, 6, 7, 105
1, 129, Control_c, 6, 10, 90
1, 129, Control_c, 6, 11, 127
1, 130, Control_c, 6, 91, 65
1, 130, Control_c, 6, 93, 30
1, 133, Program_c, 7, 50
1, 134, Control_c, 7, 7, 100
1, 134, Control_c, 7, 10, 72
1, 134, Control_c, 7, 11, 127
1, 135, Control_c, 7, 91, 60
1, 135, Control_c, 7, 93, 20
1, 138, Program_c, 8, 57
1, 139, Control_c, 8, 7, 90
1, 139, Control_c, 8, 10, 14
1, 139, Control_c, 8, 11, 127
1, 140, Control_c, 8, 91, 65
1, 140, Control_c, 8, 93, 20
1, 144, Control_c, 9, 7, 105
1, 144, Control_c, 9, 11, 127
1, 145, Control_c, 9, 91, 57
1, 145, Control_c, 9, 93, 0
1, 719, Note_on_c, 9, 38, 123
1, 720, Note_off_c, 9, 38, 64
1, 720, Control_c, 9, 1, 0
1, 720, Pitch_bend_c, 9, 8192
1, 767, Note_on_c, 0, 39, 108
1, 767, Note_on_c, 0, 51, 92
1, 767, Note_on_c, 6, 54, 92
1, 767, Note_on_c, 6, 58, 98
1, 767, Note_on_c, 6, 39, 108
1, 767, Note_on_c, 9, 35, 127
1, 768, Control_c, 0, 1, 0
1, 768, Pitch_bend_c, 0, 8192
1, 768, Note_on_c, 0, 61, 115
1, 768, Note_on_c, 0, 66, 123
1, 768, Note_on_c, 0, 70, 123
1, 768, Note_on_c, 1, 27, 126
1, 768, Control_c, 6, 1, 0
1, 768, Pitch_bend_c, 6, 8192
1, 768, Note_off_c, 9, 35, 64
1, 769, Control_c, 1, 1, 0
1, 769, Pitch_bend_c, 1, 8192
1, 825, Note_off_c, 0, 61, 64
1, 828, Note_off_c, 0, 39, 64
1, 828, Note_off_c, 6, 39, 64
1, 838, Note_on_c, 9, 35, 127
1, 839, Note_on_c, 0, 61, 90
1, 839, Note_on_c, 6, 39, 80
1, 839, Note_off_c, 9, 35, 64
1, 841, Note_off_c, 0, 51, 64
1, 841, Note_on_c, 0, 39, 105
1, 842, Note_off_c, 0, 70, 64
1, 843, Note_off_c, 6, 54, 64
1, 845, Note_off_c, 6, 58, 64
1, 846, Note_off_c, 0, 66, 64
1, 851, Note_off_c, 6, 39, 64
1, 862, Note_on_c, 6, 54, 87
1, 862, Note_on_c, 6, 58, 100
1, 863, Note_on_c, 0, 66, 109
1, 863, Note_on_c, 0, 70, 111
1, 863, Note_on_c, 6, 39, 106
1, 863, Note_on_c, 9, 38, 124
1, 864, Note_off_c, 9, 38, 64
1, 864, Note_on_c, 9, 42, 79
1, 865, Note_on_c, 0, 51, 113
1, 865, Note_off_c, 9, 42, 64
1, 866, Note_off_c, 0, 39, 64
1, 872, Note_off_c, 0, 61, 64
1, 873, Note_off_c, 0, 66, 64
1, 875, Note_off_c, 0, 70, 64
1, 875, Note_off_c, 6, 58, 64
1, 876, Note_off_c, 6, 54, 64
1, 881, Note_off_c, 6, 39, 64
1, 886, Note_on_c, 0, 39, 96
1, 887, Note_on_c, 6, 60, 102
1, 887, Note_on_c, 6, 56, 102
1, 888, Note_on_c, 0, 72, 115
1, 888, Note_on_c, 0, 68, 119
1, 889, Note_on_c, 0, 63, 111
1, 889, Note_on_c, 9, 42, 70
1, 890, Note_off_c, 9, 42, 64
1, 893, Note_off_c, 0, 51, 64
1, 898, Note_off_c, 6, 56, 64
1, 900, Note_off_c, 6, 60, 64
1, 901, Note_off_c, 0, 68, 64
1, 901, Note_off_c, 0, 63, 64
1, 903, Note_off_c, 0, 72, 64
1, 909, Note_off_c, 0, 39, 64
1, 911, Note_on_c, 9, 42, 73
1, 912, Note_off_c, 9, 42, 64
1, 935, Note_on_c, 9, 35, 113
1, 935, Note_on_c, 9, 42, 69
1, 936, Note_off_c, 9, 42, 64
1, 936, Note_off_c, 9, 35, 64
1, 959, Note_on_c, 9, 42, 82
1, 960, Note_off_c, 9, 42, 64
1, 960, Note_on_c, 9, 35, 120
1, 961, Note_off_c, 9, 35, 64
1, 984, Note_on_c, 9, 42, 64
1, 985, Note_off_c, 9, 42, 64
1, 1009, Note_on_c, 9, 42, 70
1, 1010, Note_off_c, 9, 42, 64
1, 1031, Note_on_c, 9, 35, 120
1, 1032, Note_on_c, 0, 63, 99
1, 1032, Note_off_c, 9, 35, 64
1, 1033, Note_on_c, 0, 39, 97
1, 1033, Note_on_c, 6, 39, 92
1, 1033, Note_on_c, 9, 42, 69
1, 1034, Note_off_c, 9, 42, 64
1, 1044, Note_off_c, 6, 39, 64
1, 1055, Note_on_c, 0, 51, 109
1, 1056, Note_on_c, 0, 70, 97
1, 1056, Note_on_c, 0, 73, 105
1, 1056, Note_on_c, 6, 58, 95
1, 1056, Note_on_c, 6, 61, 95
1, 1056, Note_on_c, 9, 38, 125
1, 1057, Note_on_c, 6, 39, 92
1, 1057, Note_off_c, 9, 38, 64
1, 1057, Note_on_c, 9, 42, 84
1, 1058, Note_off_c, 9, 42, 64
1, 1060, Note_off_c, 0, 39, 64
1, 1066, Note_off_c, 0, 63, 64
1, 1069, Note_off_c, 6, 39, 64
1, 1069, Note_off_c, 6, 61, 64
1, 1069, Note_off_c, 6, 58, 64
1, 1079, Note_off_c, 0, 70, 64
1, 1079, Note_off_c, 0, 73, 64
1, 1079, Note_on_c, 0, 39, 102
1, 1079, Note_on_c, 6, 60, 94
1, 1080, Note_on_c, 0, 72, 119
1, 1081, Note_on_c, 0, 68, 119
1, 1081, Note_on_c, 0, 63, 123
1, 1081, Note_on_c, 6, 56, 94
1, 1081, Note_on_c, 6, 39, 97
1, 1082, Note_on_c, 9, 42, 66
1, 1083, Note_off_c, 9, 42, 64
1, 1088, Note_off_c, 0, 51, 64
1, 1097, Note_off_c, 6, 39, 64
1, 1102, Note_off_c, 0, 39, 64
1, 1103, Note_off_c, 0, 72, 64
1, 1104, Note_off_c, 0, 68, 64
1, 1104, Note_off_c, 0, 63, 64
1, 1106, Note_on_c, 9, 42, 75
1, 1107, Note_off_c, 9, 42, 64
1, 1122, Note_off_c, 6, 56, 64
1, 1122, Note_off_c, 6, 60, 64
1, 1127, Note_on_c, 9, 35, 110
1, 1128, Note_off_c, 9, 35, 64
1, 1129, Note_on_c, 9, 46, 66
1, 1130, Note_off_c, 9, 46, 64
1, 1147, Note_off_c, 1, 27, 64
1, 1151, Note_on_c, 0, 75, 115
1, 1151, Note_on_c, 0, 48, 123
1, 1151, Note_on_c, 9, 35, 123
1, 1152, Note_on_c, 1, 36, 120
1, 1152, Note_off_c, 9, 35, 64
1, 1153, Note_on_c, 6, 48, 104
1, 1154, Note_on_c, 9, 42, 70
1, 1155, Note_off_c, 9, 42, 64
1, 1175, Note_on_c, 0, 72, 98
1, 1175, Note_on_c, 0, 44, 92
1, 1175, Note_off_c, 1, 36, 64
1, 1175, Note_on_c, 6, 44, 84
1, 1176, Note_on_c, 1, 32, 111
1, 1178, Note_on_c, 9, 42, 72
1, 1179, Note_off_c, 9, 42, 64
1, 1180, Note_off_c, 6, 48, 64
1, 1182, Note_off_c, 0, 48, 64
1, 1186, Note_off_c, 0, 75, 64
1, 1197, Note_off_c, 1, 32, 64
1, 1198, Note_on_c, 0, 68, 105
1, 1198, Note_on_c, 1, 27, 114
1, 1199, Note_on_c, 6, 39, 66
1, 1201, Note_off_c, 0, 72, 64
1, 1201, Note_on_c, 0, 39, 103
1, 1201, Note_off_c, 6, 44, 64
1, 1202, Note_on_c, 9, 42, 73
1, 1203, Note_off_c, 9, 42, 64
1, 1207, Note_off_c, 0, 44, 64
1, 1208, Note_off_c, 0, 68, 64
1, 1222, Note_off_c, 1, 27, 64
1, 1222, Note_on_c, 6, 60, 80
1, 1222, Note_on_c, 6, 56, 80
1, 1223, Note_on_c, 0, 72, 111
1, 1223, Note_on_c, 0, 68, 111
1, 1223, Note_on_c, 0, 63, 111
1, 1223, Note_on_c, 0, 44, 108
1, 1223, Note_on_c, 1, 32, 118
1, 1223, Note_on_c, 6, 44, 92
1, 1223, Note_on_c, 9, 35, 127
1, 1224, Note_off_c, 9, 35, 64
1, 1225, Note_on_c, 9, 42, 68
1, 1226, Note_off_c, 9, 42, 64
1, 1230, Note_off_c, 0, 39, 64
1, 1232, Note_off_c, 6, 39, 64
1, 1244, Note_off_c, 6, 56, 64
1, 1245, Note_off_c, 6, 60, 64
1, 1247, Note_off_c, 0, 44, 64
1, 1247, Note_off_c, 1, 32, 64
1, 1247, Note_off_c, 6, 44, 64
1, 1248, Note_off_c, 0, 63, 64
1, 1249, Note_off_c, 0, 68, 64
1, 1249, Note_on_c, 9, 42, 82
1, 1250, Note_off_c, 0, 72, 64
1, 1250, Note_off_c, 9, 42, 64
1, 1270, Note_on_c, 0, 44, 84
1, 1270, Note_on_c, 1, 32, 117
1, 1271, Note_on_c, 6, 44, 98
1, 1271, Note_on_c, 6, 56, 95
1, 1271, Note_on_c, 9, 35, 125
1, 1272, Note_on_c, 0, 72, 102
1, 1272, Note_on_c, 6, 60, 91
1, 1272, Note_off_c, 9, 35, 64
1, 1273, Note_on_c, 0, 63, 106
1, 1273, Note_on_c, 0, 68, 98
1, 1273, Note_on_c, 9, 42, 69
1, 1274, Note_off_c, 9, 42, 64
1, 1286, Note_off_c, 0, 68, 64
1, 1286, Note_off_c, 0, 63, 64
1, 1286, Note_off_c, 0, 72, 64
1, 1293, Note_off_c, 1, 32, 64
1, 1293, Note_on_c, 6, 58, 78
1, 1294, Note_on_c, 1, 27, 112
1, 1294, Note_on_c, 6, 54, 80
1, 1295, Note_on_c, 0, 39, 108
1, 1295, Note_on_c, 0, 51, 106
1, 1296, Note_on_c, 0, 66, 105
1, 1296, Note_on_c, 0, 70, 95
1, 1296, Note_off_c, 6, 60, 64
1, 1296, Note_off_c, 6, 44, 64
1, 1296, Note_on_c, 6, 39, 95
1, 1296, Note_on_c, 9, 38, 124
1, 1296, Note_on_c, 9, 42, 73
1, 1297, Note_off_c, 9, 42, 64
1, 1297, Note_off_c, 9, 38, 64
1, 1298, Note_on_c, 0, 61, 92
1, 1300, Note_off_c, 6, 56, 64
1, 1303, Note_off_c, 0, 44, 64
1, 1320, Note_on_c, 9, 42, 68
1, 1321, Note_off_c, 9, 42, 64
1, 1345, Note_on_c, 9, 42, 79
1, 1346, Note_off_c, 9, 42, 64
1, 1368, Note_on_c, 9, 35, 115
1, 1369, Note_off_c, 9, 35, 64
1, 1369, Note_on_c, 9, 42, 66
1, 1370, Note_off_c, 9, 42, 64
1, 1391, Note_on_c, 9, 35, 108
1, 1392, Note_off_c, 9, 35, 64
1, 1393, Note_on_c, 9, 42, 73
1, 1394, Note_off_c, 9, 42, 64
1, 1415, Note_on_c, 9, 38, 123
1, 1416, Note_off_c, 9, 38, 64
1, 1418, Note_on_c, 9, 42, 71
1, 1419, Note_off_c, 9, 42, 64
1, 1440, Note_on_c, 9, 35, 127
1, 1441, Note_off_c, 9, 35, 64
1, 1441, Note_on_c, 9, 42, 80
1, 1442, Note_off_c, 9, 42, 64
1, 1461, Note_off_c, 6, 39, 64
1, 1465, Note_on_c, 9, 42, 72
1, 1466, Note_off_c, 9, 42, 64
1, 1487, Note_on_c, 9, 38, 121
1, 1488, Note_off_c, 0, 61, 64
1, 1488, Note_off_c, 9, 38, 64
1, 1489, Note_on_c, 9, 46, 83
1, 1490, Note_off_c, 9, 46, 64
1, 1492, Note_off_c, 0, 66, 64
1, 1493, Note_off_c, 0, 70, 64
1, 1506, Note_off_c, 0, 51, 64
1, 1509, Note_off_c, 0, 39, 64
1, 1531, Note_off_c, 6, 54, 64
1, 1531, Note_off_c, 6, 58, 64
1, 1534, Note_off_c, 1, 27, 64
1, 1535, Note_on_c, 0, 66, 117
1, 1535, Note_on_c, 0, 61, 106
1, 1535, Note_on_c, 1, 27, 123
1, 1535, Note_on_c, 6, 39, 90
1, 1535, Note_on_c, 6, 54, 95
1, 1535, Note_on_c, 6, 58, 104
1, 1536, Note_on_c, 0, 70, 119
1, 1537, Note_on_c, 0, 39, 99
1, 1537, Note_on_c, 0, 51, 111
1, 1537, Note_on_c, 9, 35, 127
1, 1538, Note_on_c, 0, 45, 74
1, 1538, Note_off_c, 9, 35, 64
1, 1538, Note_on_c, 9, 42, 77
1, 1539, Note_off_c, 9, 42, 64
1, 1544, Note_off_c, 0, 45, 64
1, 1562, Note_on_c, 9, 42, 70
1, 1563, Note_off_c, 9, 42, 64
1, 1585, Note_on_c, 9, 42, 70
1, 1586, Note_off_c, 9, 42, 64
1, 1598, Note_off_c, 6, 39, 64
1, 1601, Note_off_c, 0, 61, 64
1, 1607, Note_on_c, 6, 39, 80
1, 1608, Note_on_c, 9, 35, 120
1, 1609, Note_on_c, 0, 61, 77
1, 1609, Note_off_c, 9, 35, 64
1, 1609, Note_on_c, 9, 42, 72
1, 1610, Note_off_c, 0, 70, 64
1, 1610, Note_off_c, 9, 42, 64
1, 1612, Note_off_c, 0, 39, 64
1, 1612, Note_off_c, 6, 54, 64
1, 1613, Note_off_c, 6, 58, 64
1, 1616, Note_off_c, 0, 66, 64
1, 1622, Note_off_c, 6, 39, 64
1, 1625, Note_off_c, 0, 61, 64
1, 1630, Note_on_c, 6, 54, 73
1, 1630, Note_on_c, 6, 58, 90
1, 1631, Note_on_c, 0, 39, 109
1, 1631, Note_on_c, 6, 39, 85
1, 1632, Note_on_c, 0, 61, 84
1, 1632, Note_on_c, 0, 70, 113
1, 1632, Note_on_c, 0, 66, 111
1, 1633, Note_on_c, 9, 38, 122
1, 1633, Note_on_c, 9, 42, 79
1, 1634, Note_off_c, 9, 42, 64
1, 1634, Note_off_c, 9, 38, 64
1, 1642, Note_off_c, 6, 58, 64
1, 1643, Note_off_c, 6, 54, 64
1, 1645, Note_off_c, 0, 66, 64
1, 1645, Note_off_c, 0, 61, 64
1, 1646, Note_off_c, 0, 51, 64
1, 1648, Note_off_c, 0, 70, 64
1, 1653, Note_off_c, 6, 39, 64
1, 1655, Note_on_c, 6, 60, 98
1, 1656, Note_on_c, 6, 56, 95
1, 1657, Note_on_c, 9, 42, 73
1, 1658, Note_on_c, 0, 68, 111
1, 1658, Note_on_c, 0, 72, 113
1, 1658, Note_on_c, 0, 63, 102
1, 1658, Note_off_c, 9, 42, 64
1, 1659, Note_on_c, 0, 51, 109
1, 1670, Note_off_c, 6, 56, 64
1, 1671, Note_off_c, 0, 63, 64
1, 1671, Note_off_c, 0, 68, 64
1, 1672, Note_off_c, 6, 60, 64
1, 1673, Note_off_c, 0, 72, 64
1, 1680, Note_on_c, 9, 42, 77
1, 1681, Note_off_c, 0, 39, 64
1, 1681, Note_off_c, 9, 42, 64
1, 1683, Note_off_c, 0, 51, 64
1, 1705, Note_on_c, 9, 35, 115
1, 1706, Note_off_c, 9, 35, 64
1, 1706, Note_on_c, 9, 42, 71
1, 1707, Note_off_c, 9, 42, 64
1, 1727, Note_on_c, 9, 35, 123
1, 1728, Note_off_c, 9, 35, 64
1, 1728, Note_on_c, 9, 42, 78
1, 1729, Note_off_c, 9, 42, 64
1, 1752, Note_on_c, 9, 42, 71
1, 1753, Note_off_c, 9, 42, 64
1, 1775, Note_on_c, 9, 42, 75
1, 1776, Note_off_c, 9, 42, 64
1, 1777, Note_on_c, 9, 35, 127
1, 1778, Note_off_c, 9, 35, 64
1, 1798, Note_on_c, 9, 42, 75
1, 1799, Note_on_c, 6, 39, 64
1, 1799, Note_off_c, 9, 42, 64
1, 1800, Note_on_c, 0, 39, 108
1, 1801, Note_on_c, 0, 63, 96
1, 1809, Note_off_c, 6, 39, 64
1, 1822, Note_on_c, 0, 51, 103
1, 1823, Note_on_c, 0, 70, 103
1, 1823, Note_on_c, 0, 73, 113
1, 1823, Note_on_c, 6, 39, 86
1, 1823, Note_on_c, 6, 58, 92
1, 1823, Note_on_c, 6, 61, 87
1, 1823, Note_on_c, 9, 38, 120
1, 1823, Note_on_c, 9, 42, 79
1, 1824, Note_off_c, 9, 42, 64
1, 1824, Note_off_c, 9, 38, 64
1, 1828, Note_off_c, 0, 39, 64
1, 1835, Note_off_c, 0, 70, 64
1, 1835, Note_off_c, 0, 63, 64
1, 1835, Note_off_c, 6, 39, 64
1, 1836, Note_off_c, 0, 73, 64
1, 1838, Note_off_c, 6, 61, 64
1, 1840, Note_off_c, 6, 58, 64
1, 1847, Note_on_c, 6, 39, 98
1, 1847, Note_on_c, 9, 42, 75
1, 1848, Note_on_c, 0, 39, 111
1, 1848, Note_on_c, 6, 60, 97
1, 1848, Note_off_c, 9, 42, 64
1, 1849, Note_on_c, 0, 63, 121
1, 1849, Note_on_c, 0, 72, 123
1, 1849, Note_on_c, 0, 68, 123
1, 1849, Note_on_c, 6, 56, 95
1, 1866, Note_off_c, 6, 56, 64
1, 1871, Note_off_c, 6, 60, 64
1, 1871, Note_on_c, 9, 42, 73
1, 1872, Note_off_c, 9, 42, 64
1, 1877, Note_off_c, 0, 63, 64
1, 1877, Note_off_c, 0, 51, 64
1, 1878, Note_off_c, 0, 68, 64
1, 1878, Note_off_c, 0, 72, 64
1, 1885, Note_off_c, 0, 39, 64
1, 1894, Note_off_c, 6, 39, 64
1, 1895, Note_on_c, 9, 35, 115
1, 1896, Note_off_c, 9, 35, 64
1, 1897, Note_on_c, 9, 42, 72
1, 1898, Note_off_c, 9, 42, 64
1, 1918, Note_on_c, 0, 41, 111
1, 1918, Note_off_c, 1, 27, 64
1, 1919, Note_on_c, 0, 53, 119
1, 1919, Note_on_c, 1, 29, 125
1, 1919, Note_on_c, 6, 41, 104
1, 1919, Note_on_c, 9, 35, 121
1, 1920, Note_off_c, 9, 35, 64
1, 1920, Note_on_c, 9, 42, 79
1, 1921, Note_off_c, 9, 42, 64
1, 1943, Note_on_c, 0, 44, 88
1, 1943, Note_on_c, 0, 56, 106
1, 1943, Note_off_c, 1, 29, 64
1, 1943, Note_on_c, 6, 44, 85
1, 1943, Note_on_c, 9, 42, 73
1, 1944, Note_on_c, 1, 32, 108
1, 1944, Note_off_c, 9, 42, 64
1, 1950, Note_off_c, 0, 53, 64
1, 1950, Note_off_c, 6, 41, 64
1, 1952, Note_off_c, 0, 41, 64
1, 1966, Note_on_c, 0, 46, 84
1, 1967, Note_on_c, 0, 58, 94
1, 1967, Note_on_c, 6, 46, 73
1, 1967, Note_on_c, 9, 42, 71
1, 1968, Note_off_c, 1, 32, 64
1, 1968, Note_off_c, 9, 42, 64
1, 1969, Note_on_c, 1, 34, 110
1, 1977, Note_off_c, 0, 56, 64
1, 1977, Note_off_c, 6, 44, 64
1, 1978, Note_off_c, 0, 44, 64
1, 1991, Note_on_c, 0, 49, 115
1, 1991, Note_on_c, 9, 35, 127
1, 1991, Note_on_c, 9, 42, 69
1, 1992, Note_on_c, 0, 61, 103
1, 1992, Note_off_c, 1, 34, 64
1, 1992, Note_off_c, 9, 42, 64
1, 1992, Note_off_c, 9, 35, 64
1, 1993, Note_on_c, 1, 37, 121
1, 1993, Note_on_c, 6, 49, 106
1, 1997, Note_off_c, 0, 58, 64
1, 1998, Note_off_c, 6, 46, 64
1, 2000, Note_off_c, 0, 46, 64
1, 2008, Note_off_c, 0, 61, 64
1, 2013, Note_off_c, 0, 49, 64
1, 2016, Note_on_c, 9, 42, 78
1, 2017, Note_off_c, 1, 37, 64
1, 2017, Note_off_c, 6, 49, 64
1, 2017, Note_off_c, 9, 42, 64
1, 2038, Note_on_c, 0, 61, 123
1, 2038, Note_on_c, 0, 49, 117
1, 2039, Note_on_c, 1, 37, 118
1, 2039, Note_on_c, 9, 35, 127
1, 2040, Note_on_c, 6, 49, 110
1, 2040, Note_off_c, 9, 35, 64
1, 2040, Note_on_c, 9, 42, 72
1, 2041, Note_off_c, 9, 42, 64
1, 2060, Note_off_c, 0, 61, 64
1, 2062, Note_on_c, 0, 46, 101
1, 2062, Note_on_c, 0, 58, 113
1, 2062, Note_on_c, 9, 38, 124
1, 2063, Note_off_c, 6, 49, 64
1, 2063, Note_on_c, 6, 46, 88
1, 2063, Note_off_c, 9, 38, 64
1, 2063, Note_on_c, 9, 42, 76
1, 2064, Note_off_c, 0, 49, 64
1, 2064, Note_off_c, 1, 37, 64
1, 2064, Note_off_c, 9, 42, 64
1, 2065, Note_on_c, 1, 34, 112
1, 2086, Note_on_c, 9, 42, 73
1, 2087, Note_off_c, 9, 42, 64
1, 2110, Note_on_c, 9, 42, 82
1, 2111, Note_off_c, 9, 42, 64
1, 2134, Note_on_c, 9, 42, 77
1, 2135, Note_off_c, 9, 42, 64
1, 2135, Note_on_c, 9, 35, 127
1, 2136, Note_off_c, 9, 35, 64
1, 2158, Note_on_c, 9, 42, 82
1, 2159, Note_off_c, 9, 42, 64
1, 2183, Note_on_c, 9, 42, 85
1, 2184, Note_off_c, 9, 42, 64
1, 2184, Note_on_c, 9, 35, 127
1, 2185, Note_off_c, 9, 35, 64
1, 2207, Note_on_c, 9, 42, 87
1, 2208, Note_off_c, 9, 42, 64
1, 2231, Note_on_c, 9, 42, 92
1, 2232, Note_off_c, 9, 42, 64
1, 2233, Note_on_c, 9, 35, 127
1, 2234, Note_off_c, 9, 35, 64
1, 2254, Note_off_c, 0, 46, 64
1, 2254, Note_on_c, 9, 46, 80
1, 2255, Note_off_c, 0, 58, 64
1, 2255, Note_off_c, 9, 46, 64
1, 2256, Note_on_c, 9, 38, 127
1, 2257, Note_off_c, 9, 38, 64
1, 2272, Note_off_c, 6, 46, 64
1, 2302, Note_off_c, 1, 34, 64
1, 2303, Note_on_c, 0, 39, 108
1, 2303, Note_on_c, 0, 51, 92
1, 2303, Note_on_c, 1, 27, 117
1, 2304, Note_on_c, 0, 61, 115
1, 2304, Note_on_c, 0, 66, 123
1, 2304, Note_on_c, 0, 70, 123
1, 2305, Note_on_c, 6, 39, 94
1, 2305, Note_on_c, 6, 54, 97
1, 2305, Note_on_c, 6, 58, 106
1, 2305, Note_on_c, 9, 35, 125
1, 2305, Note_on_c, 9, 42, 75
1, 2306, Note_off_c, 9, 42, 64
1, 2306, Note_off_c, 9, 35, 64
1, 2328, Note_on_c, 9, 42, 70
1, 2329, Note_off_c, 9, 42, 64
1, 2351, Note_on_c, 9, 42, 73
1, 2352, Note_off_c, 9, 42, 64
1, 2361, Note_off_c, 0, 61, 64
1, 2363, Note_off_c, 6, 39, 64
1, 2364, Note_off_c, 0, 39, 64
1, 2375, Note_on_c, 0, 61, 90
1, 2375, Note_on_c, 6, 39, 79
1, 2375, Note_on_c, 9, 35, 117
1, 2375, Note_on_c, 9, 42, 70
1, 2376, Note_off_c, 9, 42, 64
1, 2376, Note_off_c, 9, 35, 64
1, 2377, Note_off_c, 0, 51, 64
1, 2377, Note_on_c, 0, 39, 105
1, 2377, Note_off_c, 6, 54, 64
1, 2378, Note_off_c, 0, 70, 64
1, 2378, Note_off_c, 6, 58, 64
1, 2382, Note_off_c, 0, 66, 64
1, 2387, Note_off_c, 6, 39, 64
1, 2399, Note_on_c, 0, 66, 109
1, 2399, Note_on_c, 0, 70, 111
1, 2399, Note_on_c, 6, 54, 81
1, 2399, Note_on_c, 6, 58, 94
1, 2399, Note_on_c, 6, 39, 97
1, 2399, Note_on_c, 9, 42, 82
1, 2400, Note_off_c, 9, 42, 64
1, 2401, Note_on_c, 0, 51, 113
1, 2401, Note_on_c, 9, 38, 119
1, 2402, Note_off_c, 0, 39, 64
1, 2402, Note_off_c, 9, 38, 64
1, 2408, Note_off_c, 0, 61, 64
1, 2409, Note_off_c, 0, 66, 64
1, 2411, Note_off_c, 0, 70, 64
1, 2412, Note_off_c, 6, 58, 64
1, 2412, Note_off_c, 6, 54, 64
1, 2422, Note_on_c, 0, 39, 96
1, 2423, Note_on_c, 6, 60, 94
1, 2423, Note_on_c, 6, 56, 94
1, 2423, Note_on_c, 9, 42, 67
1, 2424, Note_on_c, 0, 72, 115
1, 2424, Note_on_c, 0, 68, 119
1, 2424, Note_off_c, 9, 42, 64
1, 2425, Note_on_c, 0, 63, 111
1, 2426, Note_off_c, 6, 39, 64
1, 2429, Note_off_c, 0, 51, 64
1, 2436, Note_off_c, 6, 56, 64
1, 2437, Note_off_c, 0, 68, 64
1, 2437, Note_off_c, 0, 63, 64
1, 2439, Note_off_c, 0, 72, 64
1, 2439, Note_off_c, 6, 60, 64
1, 2445, Note_off_c, 0, 39, 64
1, 2447, Note_on_c, 9, 42, 70
1, 2448, Note_off_c, 9, 42, 64
1, 2471, Note_on_c, 9, 35, 108
1, 2471, Note_on_c, 9, 42, 70
1, 2472, Note_off_c, 9, 42, 64
1, 2472, Note_off_c, 9, 35, 64
1, 2495, Note_on_c, 9, 35, 117
1, 2495, Note_on_c, 9, 42, 79
1, 2496, Note_off_c, 9, 42, 64
1, 2496, Note_off_c, 9, 35, 64
1, 2518, Note_on_c, 9, 42, 69
1, 2519, Note_off_c, 9, 42, 64
1, 2543, Note_on_c, 9, 42, 73
1, 2544, Note_off_c, 9, 42, 64
1, 2545, Note_on_c, 9, 35, 123
1, 2546, Note_off_c, 9, 35, 64
1, 2567, Note_on_c, 9, 42, 68
1, 2568, Note_on_c, 0, 63, 99
1, 2568, Note_on_c, 6, 39, 91
1, 2568, Note_off_c, 9, 42, 64
1, 2569, Note_on_c, 0, 39, 97
1, 2579, Note_off_c, 6, 39, 64
1, 2591, Note_on_c, 0, 51, 109
1, 2591, Note_on_c, 6, 58, 104
1, 2591, Note_on_c, 6, 61, 98
1, 2591, Note_on_c, 9, 38, 123
1, 2591, Note_on_c, 9, 42, 82
1, 2592, Note_on_c, 0, 70, 97
1, 2592, Note_on_c, 0, 73, 105
1, 2592, Note_off_c, 9, 42, 64
1, 2592, Note_off_c, 9, 38, 64
1, 2593, Note_on_c, 6, 39, 102
1, 2596, Note_off_c, 0, 39, 64
1, 2602, Note_off_c, 0, 63, 64
1, 2605, Note_off_c, 6, 39, 64
1, 2608, Note_off_c, 6, 61, 64
1, 2610, Note_off_c, 6, 58, 64
1, 2615, Note_off_c, 0, 70, 64
1, 2615, Note_off_c, 0, 73, 64
1, 2615, Note_on_c, 0, 39, 102
1, 2615, Note_on_c, 6, 39, 104
1, 2615, Note_on_c, 9, 42, 69
1, 2616, Note_on_c, 0, 72, 119
1, 2616, Note_off_c, 9, 42, 64
1, 2617, Note_on_c, 0, 68, 119
1, 2617, Note_on_c, 0, 63, 123
1, 2617, Note_on_c, 6, 60, 104
1, 2617, Note_on_c, 6, 56, 98
1, 2624, Note_off_c, 0, 51, 64
1, 2631, Note_off_c, 6, 56, 64
1, 2635, Note_off_c, 6, 60, 64
1, 2638, Note_off_c, 0, 39, 64
1, 2638, Note_on_c, 9, 42, 71
1, 2639, Note_off_c, 0, 72, 64
1, 2639, Note_off_c, 9, 42, 64
1, 2640, Note_off_c, 0, 68, 64
1, 2640, Note_off_c, 0, 63, 64
1, 2654, Note_off_c, 6, 39, 64
1, 2663, Note_on_c, 6, 39, 94
1, 2663, Note_on_c, 9, 35, 95
1, 2663, Note_on_c, 9, 42, 71
1, 2664, Note_off_c, 9, 42, 64
1, 2664, Note_off_c, 9, 35, 64
1, 2685, Note_off_c, 1, 27, 64
1, 2687, Note_on_c, 0, 75, 115
1, 2687, Note_on_c, 0, 48, 123
1, 2687, Note_on_c, 1, 36, 119
1, 2687, Note_on_c, 9, 42, 80
1, 2688, Note_off_c, 9, 42, 64
1, 2688, Note_on_c, 9, 35, 123
1, 2689, Note_on_c, 6, 48, 112
1, 2689, Note_off_c, 9, 35, 64
1, 2691, Note_off_c, 6, 39, 64
1, 2710, Note_off_c, 1, 36, 64
1, 2711, Note_on_c, 0, 72, 98
1, 2711, Note_on_c, 0, 44, 92
1, 2711, Note_on_c, 1, 32, 112
1, 2711, Note_on_c, 9, 42, 67
1, 2712, Note_on_c, 6, 44, 88
1, 2712, Note_off_c, 9, 42, 64
1, 2718, Note_off_c, 0, 48, 64
1, 2718, Note_off_c, 6, 48, 64
1, 2722, Note_off_c, 0, 75, 64
1, 2733, Note_off_c, 1, 32, 64
1, 2734, Note_on_c, 0, 68, 105
1, 2734, Note_on_c, 1, 27, 113
1, 2735, Note_on_c, 9, 42, 73
1, 2736, Note_on_c, 6, 39, 84
1, 2736, Note_off_c, 9, 42, 64
1, 2737, Note_off_c, 0, 72, 64
1, 2737, Note_on_c, 0, 39, 103
1, 2739, Note_off_c, 6, 44, 64
1, 2743, Note_off_c, 0, 44, 64
1, 2744, Note_off_c, 0, 68, 64
1, 2758, Note_off_c, 1, 27, 64
1, 2759, Note_on_c, 0, 72, 111
1, 2759, Note_on_c, 0, 68, 111
1, 2759, Note_on_c, 0, 63, 111
1, 2759, Note_on_c, 0, 44, 108
1, 2759, Note_on_c, 1, 32, 117
1, 2760, Note_on_c, 6, 44, 102
1, 2760, Note_on_c, 9, 42, 69
1, 2761, Note_off_c, 6, 39, 64
1, 2761, Note_off_c, 9, 42, 64
1, 2762, Note_on_c, 9, 35, 123
1, 2763, Note_on_c, 6, 56, 85
1, 2763, Note_off_c, 9, 35, 64
1, 2764, Note_on_c, 6, 60, 85
1, 2766, Note_off_c, 0, 39, 64
1, 2780, Note_off_c, 6, 44, 64
1, 2783, Note_off_c, 0, 44, 64
1, 2783, Note_on_c, 9, 42, 84
1, 2784, Note_off_c, 0, 63, 64
1, 2784, Note_off_c, 9, 42, 64
1, 2785, Note_off_c, 0, 68, 64
1, 2786, Note_off_c, 0, 72, 64
1, 2786, Note_off_c, 1, 32, 64
1, 2786, Note_off_c, 6, 60, 64
1, 2786, Note_off_c, 6, 56, 64
1, 2806, Note_on_c, 0, 44, 84
1, 2806, Note_on_c, 6, 56, 87
1, 2807, Note_on_c, 1, 32, 117
1, 2807, Note_on_c, 6, 44, 100
1, 2807, Note_on_c, 6, 60, 81
1, 2807, Note_on_c, 9, 42, 68
1, 2808, Note_on_c, 0, 72, 102
1, 2808, Note_off_c, 9, 42, 64
1, 2809, Note_on_c, 0, 63, 106
1, 2809, Note_on_c, 0, 68, 98
1, 2809, Note_on_c, 9, 35, 121
1, 2810, Note_off_c, 9, 35, 64
1, 2822, Note_off_c, 0, 68, 64
1, 2822, Note_off_c, 0, 63, 64
1, 2822, Note_off_c, 0, 72, 64
1, 2825, Note_off_c, 6, 60, 64
1, 2827, Note_on_c, 6, 58, 71
1, 2830, Note_off_c, 1, 32, 64
1, 2830, Note_on_c, 6, 54, 80
1, 2831, Note_on_c, 0, 39, 108
1, 2831, Note_on_c, 0, 51, 106
1, 2831, Note_on_c, 1, 27, 110
1, 2831, Note_on_c, 6, 39, 83
1, 2831, Note_on_c, 9, 38, 127
1, 2832, Note_on_c, 0, 66, 105
1, 2832, Note_on_c, 0, 70, 95
1, 2832, Note_off_c, 6, 56, 64
1, 2832, Note_off_c, 9, 38, 64
1, 2833, Note_on_c, 9, 42, 74
1, 2834, Note_on_c, 0, 61, 92
1, 2834, Note_off_c, 9, 42, 64
1, 2835, Note_off_c, 6, 44, 64
1, 2839, Note_off_c, 0, 44, 64
1, 2856, Note_on_c, 9, 42, 69
1, 2857, Note_off_c, 9, 42, 64
1, 2879, Note_on_c, 9, 42, 84
1, 2880, Note_off_c, 9, 42, 64
1, 2904, Note_on_c, 9, 42, 79
1, 2905, Note_off_c, 9, 42, 64
1, 2906, Note_on_c, 9, 35, 121
1, 2907, Note_off_c, 9, 35, 64
1, 2929, Note_on_c, 9, 42, 79
1, 2930, Note_off_c, 9, 42, 64
1, 2952, Note_on_c, 9, 35, 127
1, 2952, Note_on_c, 9, 42, 82
1, 2953, Note_off_c, 9, 42, 64
1, 2953, Note_off_c, 9, 35, 64
1, 2977, Note_on_c, 9, 42, 85
1, 2978, Note_off_c, 9, 42, 64
1, 3001, Note_on_c, 9, 42, 82
1, 3002, Note_off_c, 6, 39, 64
1, 3002, Note_off_c, 9, 42, 64
1, 3002, Note_on_c, 9, 35, 127
1, 3003, Note_off_c, 9, 35, 64
1, 3024, Note_off_c, 0, 61, 64
1, 3024, Note_on_c, 9, 46, 82
1, 3025, Note_off_c, 9, 46, 64
1, 3025, Note_on_c, 9, 38, 123
1, 3026, Note_off_c, 9, 38, 64
1, 3028, Note_off_c, 0, 66, 64
1, 3029, Note_off_c, 0, 70, 64
1, 3042, Note_off_c, 0, 51, 64
1, 3045, Note_off_c, 0, 39, 64
1, 3068, Note_off_c, 1, 27, 64
1, 3070, Note_off_c, 6, 58, 64
1, 3071, Note_on_c, 0, 66, 117
1, 3071, Note_on_c, 0, 61, 106
1, 3071, Note_on_c, 1, 27, 117
1, 3071, Note_on_c, 6, 39, 91
1, 3071, Note_on_c, 9, 35, 127
1, 3072, Note_on_c, 0, 70, 119
1, 3072, Note_off_c, 6, 54, 64
1, 3072, Note_off_c, 9, 35, 64
1, 3073, Note_on_c, 0, 39, 99
1, 3073, Note_on_c, 0, 51, 111
1, 3073, Note_on_c, 6, 58, 100
1, 3073, Note_on_c, 6, 54, 90
1, 3073, Note_on_c, 9, 42, 81
1, 3074, Note_on_c, 0, 45, 74
1, 3074, Note_off_c, 9, 42, 64
1, 3080, Note_off_c, 0, 45, 64
1, 3097, Note_on_c, 9, 42, 72
1, 3098, Note_off_c, 9, 42, 64
1, 3119, Note_on_c, 9, 42, 73
1, 3120, Note_off_c, 9, 42, 64
1, 3130, Note_off_c, 6, 39, 64
1, 3137, Note_off_c, 0, 61, 64
1, 3142, Note_on_c, 9, 35, 117
1, 3143, Note_on_c, 6, 39, 72
1, 3143, Note_off_c, 9, 35, 64
1, 3143, Note_on_c, 9, 42, 71
1, 3144, Note_off_c, 9, 42, 64
1, 3145, Note_on_c, 0, 61, 77
1, 3146, Note_off_c, 0, 70, 64
1, 3148, Note_off_c, 0, 39, 64
1, 3148, Note_off_c, 6, 58, 64
1, 3149, Note_off_c, 6, 54, 64
1, 3152, Note_off_c, 0, 66, 64
1, 3152, Note_off_c, 6, 39, 64
1, 3161, Note_off_c, 0, 61, 64
1, 3166, Note_on_c, 6, 54, 72
1, 3166, Note_on_c, 9, 38, 121
1, 3167, Note_on_c, 0, 39, 109
1, 3167, Note_on_c, 6, 58, 92
1, 3167, Note_off_c, 9, 38, 64
1, 3168, Note_on_c, 0, 61, 84
1, 3168, Note_on_c, 0, 70, 113
1, 3168, Note_on_c, 0, 66, 111
1, 3168, Note_on_c, 6, 39, 100
1, 3168, Note_on_c, 9, 42, 85
1, 3169, Note_off_c, 9, 42, 64
1, 3181, Note_off_c, 0, 66, 64
1, 3181, Note_off_c, 0, 61, 64
1, 3181, Note_off_c, 6, 58, 64
1, 3182, Note_off_c, 0, 51, 64
1, 3182, Note_off_c, 6, 54, 64
1, 3184, Note_off_c, 0, 70, 64
1, 3191, Note_on_c, 6, 56, 95
1, 3191, Note_on_c, 6, 60, 97
1, 3192, Note_off_c, 6, 39, 64
1, 3193, Note_on_c, 9, 42, 70
1, 3194, Note_on_c, 0, 68, 111
1, 3194, Note_on_c, 0, 72, 113
1, 3194, Note_on_c, 0, 63, 102
1, 3194, Note_off_c, 9, 42, 64
1, 3195, Note_on_c, 0, 51, 109
1, 3204, Note_off_c, 6, 56, 64
1, 3205, Note_off_c, 6, 60, 64
1, 3207, Note_off_c, 0, 63, 64
1, 3207, Note_off_c, 0, 68, 64
1, 3209, Note_off_c, 0, 72, 64
1, 3215, Note_on_c, 9, 42, 77
1, 3216, Note_off_c, 9, 42, 64
1, 3217, Note_off_c, 0, 39, 64
1, 3219, Note_off_c, 0, 51, 64
1, 3237, Note_on_c, 9, 35, 114
1, 3238, Note_off_c, 9, 35, 64
1, 3239, Note_on_c, 9, 42, 71
1, 3240, Note_off_c, 9, 42, 64
1, 3261, Note_on_c, 9, 35, 117
1, 3262, Note_off_c, 9, 35, 64
1, 3263, Note_on_c, 9, 42, 81
1, 3264, Note_off_c, 9, 42, 64
1, 3287, Note_on_c, 9, 42, 70
1, 3288, Note_off_c, 9, 42, 64
1, 3310, Note_on_c, 9, 42, 75
1, 3311, Note_off_c, 9, 42, 64
1, 3311, Note_on_c, 9, 35, 123
1, 3312, Note_off_c, 9, 35, 64
1, 3334, Note_on_c, 9, 42, 70
1, 3335, Note_on_c, 6, 39, 84
1, 3335, Note_off_c, 9, 42, 64
1, 3336, Note_on_c, 0, 39, 108
1, 3337, Note_on_c, 0, 63, 96
1, 3347, Note_off_c, 6, 39, 64
1, 3358, Note_on_c, 0, 51, 103
1, 3359, Note_on_c, 0, 70, 103
1, 3359, Note_on_c, 0, 73, 113
1, 3359, Note_on_c, 6, 58, 95
1, 3359, Note_on_c, 6, 39, 91
1, 3359, Note_on_c, 9, 38, 123
1, 3359, Note_on_c, 9, 42, 79
1, 3360, Note_on_c, 6, 61, 98
1, 3360, Note_off_c, 9, 42, 64
1, 3360, Note_off_c, 9, 38, 64
1, 3364, Note_off_c, 0, 39, 64
1, 3371, Note_off_c, 0, 70, 64
1, 3371, Note_off_c, 0, 63, 64
1, 3372, Note_off_c, 0, 73, 64
1, 3374, Note_off_c, 6, 61, 64
1, 3377, Note_off_c, 6, 58, 64
1, 3382, Note_on_c, 9, 42, 69
1, 3383, Note_on_c, 6, 46, 80
1, 3383, Note_on_c, 6, 60, 97
1, 3383, Note_on_c, 6, 56, 92
1, 3383, Note_off_c, 9, 42, 64
1, 3384, Note_on_c, 0, 39, 111
1, 3385, Note_on_c, 0, 63, 121
1, 3385, Note_on_c, 0, 72, 123
1, 3385, Note_on_c, 0, 68, 123
1, 3392, Note_off_c, 6, 39, 64
1, 3403, Note_off_c, 6, 56, 64
1, 3407, Note_off_c, 6, 60, 64
1, 3407, Note_on_c, 6, 51, 90
1, 3407, Note_on_c, 9, 42, 78
1, 3408, Note_off_c, 9, 42, 64
1, 3409, Note_off_c, 6, 46, 64
1, 3413, Note_off_c, 0, 63, 64
1, 3413, Note_off_c, 0, 51, 64
1, 3414, Note_off_c, 0, 68, 64
1, 3414, Note_off_c, 0, 72, 64
1, 3421, Note_off_c, 0, 39, 64
1, 3430, Note_off_c, 6, 51, 64
1, 3431, Note_on_c, 9, 35, 103
1, 3431, Note_on_c, 9, 42, 73
1, 3432, Note_off_c, 9, 42, 64
1, 3432, Note_off_c, 9, 35, 64
1, 3453, Note_off_c, 1, 27, 64
1, 3454, Note_on_c, 0, 41, 111
1, 3454, Note_on_c, 1, 29, 122
1, 3455, Note_on_c, 0, 53, 119
1, 3455, Note_on_c, 9, 42, 82
1, 3456, Note_off_c, 9, 42, 64
1, 3456, Note_on_c, 9, 35, 127
1, 3457, Note_on_c, 6, 41, 92
1, 3457, Note_off_c, 9, 35, 64
1, 3478, Note_off_c, 1, 29, 64
1, 3478, Note_on_c, 9, 42, 79
1, 3479, Note_on_c, 0, 44, 88
1, 3479, Note_on_c, 0, 56, 106
1, 3479, Note_on_c, 1, 32, 109
1, 3479, Note_off_c, 9, 42, 64
1, 3480, Note_on_c, 6, 44, 86
1, 3486, Note_off_c, 0, 53, 64
1, 3488, Note_off_c, 0, 41, 64
1, 3490, Note_off_c, 6, 41, 64
1, 3502, Note_on_c, 0, 46, 84
1, 3502, Note_off_c, 1, 32, 64
1, 3503, Note_on_c, 0, 58, 94
1, 3503, Note_on_c, 1, 34, 108
1, 3503, Note_on_c, 6, 46, 79
1, 3503, Note_on_c, 9, 42, 81
1, 3504, Note_off_c, 9, 42, 64
1, 3509, Note_off_c, 6, 44, 64
1, 3513, Note_off_c, 0, 56, 64
1, 3514, Note_off_c, 0, 44, 64
1, 3526, Note_off_c, 1, 34, 64
1, 3527, Note_on_c, 0, 49, 115
1, 3527, Note_on_c, 1, 37, 117
1, 3527, Note_on_c, 6, 49, 95
1, 3527, Note_on_c, 9, 42, 79
1, 3528, Note_on_c, 0, 61, 103
1, 3528, Note_off_c, 9, 42, 64
1, 3529, Note_off_c, 6, 46, 64
1, 3530, Note_on_c, 9, 35, 127
1, 3531, Note_off_c, 9, 35, 64
1, 3533, Note_off_c, 0, 58, 64
1, 3536, Note_off_c, 0, 46, 64
1, 3544, Note_off_c, 0, 61, 64
1, 3549, Note_off_c, 0, 49, 64
1, 3551, Note_on_c, 9, 42, 82
1, 3552, Note_off_c, 1, 37, 64
1, 3552, Note_off_c, 6, 49, 64
1, 3552, Note_off_c, 9, 42, 64
1, 3574, Note_on_c, 0, 61, 123
1, 3574, Note_on_c, 0, 49, 117
1, 3574, Note_on_c, 1, 37, 116
1, 3575, Note_on_c, 6, 49, 114
1, 3576, Note_on_c, 9, 35, 123
1, 3576, Note_on_c, 9, 42, 84
1, 3577, Note_off_c, 9, 42, 64
1, 3577, Note_off_c, 9, 35, 64
1, 3596, Note_off_c, 0, 61, 64
1, 3598, Note_on_c, 0, 46, 101
1, 3598, Note_on_c, 0, 58, 113
1, 3598, Note_off_c, 1, 37, 64
1, 3599, Note_on_c, 1, 34, 117
1, 3599, Note_off_c, 6, 49, 64
1, 3599, Note_on_c, 6, 46, 97
1, 3599, Note_on_c, 9, 38, 127
1, 3599, Note_on_c, 9, 46, 83
1, 3600, Note_off_c, 0, 49, 64
1, 3600, Note_off_c, 9, 46, 64
1, 3600, Note_off_c, 9, 38, 64
1, 3645, Note_on_c, 9, 38, 120
1, 3646, Note_off_c, 9, 38, 64
1, 3647, Note_on_c, 3, 75, 112
1, 3648, Control_c, 3, 1, 0
1, 3648, Pitch_bend_c, 3, 8192
1, 3658, Note_on_c, 9, 38, 102
1, 3659, Note_off_c, 9, 38, 64
1, 3671, Note_on_c, 9, 41, 114
1, 3672, Note_off_c, 9, 41, 64
1, 3696, Note_on_c, 9, 41, 118
1, 3697, Note_off_c, 9, 41, 64
1, 3719, Note_on_c, 9, 48, 110
1, 3720, Note_off_c, 9, 48, 64
1, 3732, Note_on_c, 9, 47, 88
1, 3733, Note_off_c, 9, 47, 64
1, 3745, Note_on_c, 9, 47, 116
1, 3746, Note_off_c, 9, 47, 64
1, 3768, Note_on_c, 9, 47, 114
1, 3769, Note_off_c, 9, 47, 64
1, 3790, Note_off_c, 0, 46, 64
1, 3791, Note_off_c, 0, 58, 64
1, 3793, Note_on_c, 9, 45, 122
1, 3794, Note_off_c, 9, 45, 64
1, 3805, Note_on_c, 9, 45, 100
1, 3806, Note_off_c, 9, 45, 64
1, 3817, Note_on_c, 9, 43, 125
1, 3818, Note_off_c, 9, 43, 64
1, 3833, Note_on_c, 2, 51, 44
1, 3834, Note_on_c, 0, 63, 106
1, 3834, Note_on_c, 0, 61, 98
1, 3834, Control_c, 2, 1, 0
1, 3834, Pitch_bend_c, 2, 8192
1, 3834, Note_on_c, 2, 66, 30
1, 3835, Note_on_c, 0, 58, 90
1, 3835, Note_on_c, 0, 66, 103
1, 3835, Note_on_c, 2, 58, 73
1, 3836, Note_on_c, 2, 63, 75
1, 3837, Note_off_c, 1, 34, 64
1, 3837, Note_on_c, 2, 70, 80
1, 3838, Note_off_c, 6, 46, 64
1, 3838, Note_on_c, 9, 35, 121
1, 3839, Note_on_c, 1, 39, 117
1, 3839, Note_off_c, 9, 35, 64
1, 3840, Note_on_c, 0, 39, 113
1, 3841, Note_on_c, 6, 46, 87
1, 3841, Note_on_c, 6, 51, 95
1, 3841, Note_on_c, 9, 49, 101
1, 3842, Note_off_c, 9, 49, 64
1, 3886, Note_on_c, 9, 42, 77
1, 3887, Note_off_c, 9, 42, 64
1, 3911, Note_off_c, 2, 70, 64
1, 3912, Note_on_c, 2, 70, 73
1, 3912, Note_on_c, 9, 35, 111
1, 3913, Note_off_c, 2, 66, 64
1, 3913, Note_off_c, 9, 35, 64
1, 3914, Note_on_c, 2, 66, 55
1, 3924, Note_off_c, 6, 46, 64
1, 3927, Note_off_c, 6, 51, 64
1, 3933, Note_off_c, 0, 39, 64
1, 3934, Note_on_c, 0, 34, 101
1, 3934, Note_off_c, 2, 66, 64
1, 3934, Note_off_c, 2, 70, 64
1, 3934, Note_off_c, 2, 63, 64
1, 3934, Note_off_c, 2, 58, 64
1, 3935, Note_off_c, 1, 39, 64
1, 3935, Note_on_c, 1, 34, 114
1, 3935, Note_on_c, 2, 58, 69
1, 3935, Note_on_c, 2, 63, 69
1, 3935, Note_on_c, 2, 70, 81
1, 3935, Note_on_c, 2, 66, 70
1, 3935, Note_on_c, 6, 46, 90
1, 3935, Note_on_c, 6, 51, 102
1, 3935, Note_on_c, 9, 42, 86
1, 3936, Note_off_c, 9, 42, 64
1, 3937, Note_on_c, 9, 38, 121
1, 3938, Note_off_c, 9, 38, 64
1, 3943, Note_off_c, 2, 51, 64
1, 3949, Note_off_c, 2, 58, 64
1, 3949, Note_off_c, 2, 66, 64
1, 3950, Note_off_c, 2, 63, 64
1, 3950, Note_off_c, 2, 70, 64
1, 3958, Note_on_c, 0, 37, 91
1, 3958, Note_off_c, 1, 34, 64
1, 3959, Note_on_c, 1, 37, 113
1, 3959, Note_on_c, 9, 42, 68
1, 3960, Note_off_c, 9, 42, 64
1, 3962, Note_off_c, 6, 46, 64
1, 3963, Note_off_c, 6, 51, 64
1, 3965, Note_off_c, 0, 34, 64
1, 3978, Note_off_c, 3, 75, 64
1, 3982, Note_on_c, 9, 42, 73
1, 3983, Note_on_c, 0, 39, 109
1, 3983, Note_off_c, 9, 42, 64
1, 3984, Note_off_c, 1, 37, 64
1, 3985, Note_on_c, 1, 39, 110
1, 3988, Note_off_c, 0, 37, 64
1, 3988, Note_on_c, 3, 75, 109
1, 4007, Note_on_c, 9, 42, 70
1, 4008, Note_on_c, 2, 70, 77
1, 4008, Note_off_c, 9, 42, 64
1, 4009, Note_off_c, 0, 39, 64
1, 4009, Note_on_c, 2, 66, 77
1, 4009, Note_on_c, 9, 35, 103
1, 4010, Note_on_c, 2, 63, 50
1, 4010, Note_off_c, 9, 35, 64
1, 4012, Note_on_c, 2, 58, 30
1, 4012, Note_on_c, 3, 63, 98
1, 4013, Note_off_c, 3, 75, 64
1, 4015, Note_off_c, 1, 39, 64
1, 4031, Note_off_c, 0, 66, 64
1, 4031, Note_off_c, 0, 61, 64
1, 4031, Note_off_c, 2, 63, 64
1, 4031, Note_on_c, 9, 42, 79
1, 4032, Note_off_c, 2, 66, 64
1, 4032, Note_on_c, 2, 63, 66
1, 4032, Note_off_c, 9, 42, 64
1, 4033, Note_off_c, 0, 58, 64
1, 4033, Note_off_c, 0, 63, 64
1, 4033, Note_off_c, 2, 70, 64
1, 4033, Note_on_c, 2, 66, 76
1, 4033, Note_on_c, 9, 35, 127
1, 4034, Note_on_c, 2, 70, 80
1, 4034, Note_off_c, 9, 35, 64
1, 4040, Note_off_c, 3, 63, 64
1, 4044, Note_off_c, 2, 58, 64
1, 4048, Note_off_c, 2, 63, 64
1, 4048, Note_off_c, 2, 66, 64
1, 4049, Note_off_c, 2, 70, 64
1, 4055, Note_on_c, 9, 42, 71
1, 4056, Note_off_c, 9, 42, 64
1, 4078, Note_on_c, 2, 58, 61
1, 4079, Note_on_c, 2, 63, 74
1, 4079, Note_on_c, 2, 66, 73
1, 4079, Note_on_c, 2, 70, 64
1, 4079, Note_on_c, 9, 42, 75
1, 4080, Note_off_c, 9, 42, 64
1, 4091, Note_off_c, 2, 63, 64
1, 4091, Note_off_c, 2, 58, 64
1, 4092, Note_off_c, 2, 70, 64
1, 4094, Note_off_c, 2, 66, 64
1, 4102, Note_on_c, 0, 34, 106
1, 4102, Note_on_c, 6, 46, 80
1, 4103, Note_on_c, 9, 42, 72
1, 4104, Note_off_c, 9, 42, 64
1, 4105, Note_on_c, 9, 35, 109
1, 4106, Note_off_c, 9, 35, 64
1, 4114, Note_off_c, 6, 46, 64
1, 4117, Note_off_c, 0, 34, 64
1, 4126, Note_on_c, 6, 46, 92
1, 4127, Note_on_c, 0, 34, 123
1, 4127, Note_on_c, 2, 58, 66
1, 4127, Note_on_c, 2, 63, 72
1, 4128, Note_on_c, 2, 66, 73
1, 4128, Note_on_c, 2, 70, 57
1, 4128, Note_on_c, 9, 42, 80
1, 4129, Note_off_c, 9, 42, 64
1, 4129, Note_on_c, 9, 38, 120
1, 4130, Note_off_c, 9, 38, 64
1, 4139, Note_off_c, 2, 66, 64
1, 4142, Note_off_c, 2, 70, 64
1, 4146, Note_off_c, 6, 46, 64
1, 4151, Note_on_c, 0, 37, 97
1, 4151, Note_on_c, 6, 49, 108
1, 4151, Note_on_c, 6, 54, 104
1, 4152, Note_on_c, 0, 58, 98
1, 4153, Note_on_c, 0, 61, 108
1, 4153, Note_on_c, 0, 66, 113
1, 4153, Note_on_c, 0, 63, 109
1, 4153, Note_on_c, 2, 70, 76
1, 4153, Note_on_c, 2, 66, 73
1, 4153, Note_on_c, 9, 42, 72
1, 4154, Note_off_c, 9, 42, 64
1, 4156, Note_off_c, 0, 34, 64
1, 4170, Note_off_c, 0, 63, 64
1, 4171, Note_off_c, 0, 61, 64
1, 4171, Note_off_c, 0, 66, 64
1, 4172, Note_off_c, 0, 58, 64
1, 4175, Note_on_c, 0, 39, 103
1, 4176, Note_on_c, 9, 42, 71
1, 4177, Note_off_c, 2, 66, 64
1, 4177, Note_off_c, 2, 70, 64
1, 4177, Note_off_c, 2, 63, 64
1, 4177, Note_off_c, 9, 42, 64
1, 4178, Note_on_c, 2, 63, 71
1, 4178, Note_on_c, 2, 66, 77
1, 4178, Note_on_c, 2, 70, 79
1, 4182, Note_off_c, 6, 49, 64
1, 4184, Note_off_c, 0, 37, 64
1, 4184, Note_off_c, 6, 54, 64
1, 4190, Note_off_c, 2, 58, 64
1, 4192, Note_off_c, 2, 66, 64
1, 4193, Note_off_c, 2, 63, 64
1, 4193, Note_off_c, 2, 70, 64
1, 4199, Note_on_c, 0, 42, 108
1, 4199, Note_on_c, 1, 42, 114
1, 4199, Note_on_c, 9, 35, 111
1, 4199, Note_on_c, 9, 42, 71
1, 4200, Note_off_c, 9, 42, 64
1, 4200, Note_off_c, 9, 35, 64
1, 4204, Note_off_c, 0, 39, 64
1, 4223, Note_on_c, 0, 66, 90
1, 4223, Note_off_c, 1, 42, 64
1, 4223, Note_on_c, 6, 46, 91
1, 4223, Note_on_c, 6, 51, 98
1, 4223, Note_on_c, 9, 35, 117
1, 4223, Note_on_c, 9, 42, 77
1, 4224, Note_on_c, 0, 63, 86
1, 4224, Note_on_c, 0, 61, 84
1, 4224, Note_on_c, 1, 39, 112
1, 4224, Note_on_c, 2, 51, 57
1, 4224, Note_on_c, 2, 66, 63
1, 4224, Note_off_c, 9, 42, 64
1, 4224, Note_off_c, 9, 35, 64
1, 4225, Note_off_c, 0, 42, 64
1, 4225, Note_on_c, 0, 58, 81
1, 4225, Note_on_c, 2, 58, 71
1, 4226, Note_on_c, 0, 39, 113
1, 4227, Note_on_c, 2, 63, 73
1, 4227, Note_on_c, 2, 70, 79
1, 4248, Note_on_c, 9, 42, 69
1, 4249, Note_off_c, 9, 42, 64
1, 4271, Note_on_c, 9, 42, 75
1, 4272, Note_off_c, 9, 42, 64
1, 4294, Note_off_c, 2, 70, 64
1, 4295, Note_off_c, 2, 66, 64
1, 4295, Note_on_c, 2, 70, 76
1, 4295, Note_on_c, 9, 42, 73
1, 4296, Note_off_c, 2, 63, 64
1, 4296, Note_on_c, 2, 66, 75
1, 4296, Note_off_c, 9, 42, 64
1, 4296, Note_on_c, 9, 35, 117
1, 4297, Note_on_c, 2, 63, 69
1, 4297, Note_off_c, 9, 35, 64
1, 4311, Note_off_c, 6, 46, 64
1, 4312, Note_off_c, 6, 51, 64
1, 4314, Note_on_c, 3, 75, 111
1, 4314, Note_on_c, 4, 75, 106
1, 4315, Control_c, 4, 1, 0
1, 4315, Pitch_bend_c, 4, 8192
1, 4317, Note_off_c, 2, 58, 64
1, 4318, Note_off_c, 1, 39, 64
1, 4318, Note_off_c, 2, 66, 64
1, 4318, Note_off_c, 2, 70, 64
1, 4318, Note_off_c, 2, 63, 64
1, 4318, Note_on_c, 2, 58, 63
1, 4319, Note_on_c, 2, 66, 75
1, 4319, Note_on_c, 2, 63, 69
1, 4319, Note_on_c, 6, 46, 84
1, 4319, Note_on_c, 9, 42, 79
1, 4320, Note_off_c, 0, 39, 64
1, 4320, Note_on_c, 1, 34, 114
1, 4320, Note_on_c, 2, 70, 79
1, 4320, Note_off_c, 9, 42, 64
1, 4320, Note_on_c, 9, 38, 120
1, 4321, Note_on_c, 0, 34, 102
1, 4321, Note_on_c, 6, 51, 95
1, 4321, Note_off_c, 9, 38, 64
1, 4333, Note_off_c, 2, 63, 64
1, 4336, Note_off_c, 2, 66, 64
1, 4337, Note_off_c, 4, 75, 64
1, 4337, Note_on_c, 4, 77, 100
1, 4338, Note_off_c, 2, 70, 64
1, 4339, Note_on_c, 3, 77, 109
1, 4341, Note_off_c, 1, 34, 64
1, 4341, Note_off_c, 2, 58, 64
1, 4342, Note_on_c, 1, 37, 110
1, 4343, Note_on_c, 9, 42, 72
1, 4344, Note_off_c, 6, 51, 64
1, 4344, Note_off_c, 6, 46, 64
1, 4344, Note_off_c, 9, 42, 64
1, 4345, Note_on_c, 0, 37, 101
1, 4346, Note_off_c, 3, 75, 64
1, 4351, Note_off_c, 0, 34, 64
1, 4366, Note_off_c, 1, 37, 64
1, 4367, Note_on_c, 1, 39, 112
1, 4367, Note_on_c, 9, 42, 75
1, 4368, Note_off_c, 9, 42, 64
1, 4369, Note_on_c, 0, 39, 115
1, 4371, Note_off_c, 0, 37, 64
1, 4371, Note_on_c, 2, 66, 52
1, 4391, Note_on_c, 9, 42, 71
1, 4392, Note_off_c, 0, 39, 64
1, 4392, Note_off_c, 2, 66, 64
1, 4392, Note_off_c, 9, 42, 64
1, 4392, Note_on_c, 9, 35, 102
1, 4393, Note_on_c, 2, 70, 75
1, 4393, Note_on_c, 2, 66, 75
1, 4393, Note_off_c, 9, 35, 64
1, 4395, Note_on_c, 2, 63, 44
1, 4403, Note_off_c, 1, 39, 64
1, 4404, Note_off_c, 3, 77, 64
1, 4412, Note_on_c, 3, 78, 106
1, 4412, Note_off_c, 4, 77, 64
1, 4412, Note_on_c, 4, 78, 101
1, 4414, Note_off_c, 2, 63, 64
1, 4415, Note_off_c, 2, 66, 64
1, 4415, Note_on_c, 2, 63, 52
1, 4415, Note_on_c, 9, 42, 77
1, 4416, Note_off_c, 2, 63, 64
1, 4416, Note_off_c, 2, 70, 64
1, 4416, Note_on_c, 2, 66, 66
1, 4416, Note_off_c, 9, 42, 64
1, 4416, Note_on_c, 9, 35, 121
1, 4417, Note_off_c, 2, 66, 64
1, 4417, Note_on_c, 2, 70, 63
1, 4417, Note_off_c, 9, 35, 64
1, 4418, Note_off_c, 2, 70, 64
1, 4421, Note_off_c, 0, 66, 64
1, 4422, Note_off_c, 0, 61, 64
1, 4422, Note_off_c, 0, 63, 64
1, 4424, Note_off_c, 0, 58, 64
1, 4439, Note_on_c, 2, 70, 63
1, 4439, Note_on_c, 9, 42, 70
1, 4440, Note_off_c, 2, 70, 64
1, 4440, Note_off_c, 9, 42, 64
1, 4441, Note_on_c, 2, 66, 55
1, 4442, Note_off_c, 2, 66, 64
1, 4463, Note_on_c, 2, 63, 27
1, 4463, Note_on_c, 9, 42, 73
1, 4464, Note_off_c, 2, 63, 64
1, 4464, Note_on_c, 2, 66, 56
1, 4464, Note_off_c, 9, 42, 64
1, 4465, Note_off_c, 2, 66, 64
1, 4465, Note_on_c, 2, 70, 51
1, 4466, Note_off_c, 2, 70, 64
1, 4486, Note_on_c, 0, 34, 105
1, 4486, Note_on_c, 9, 35, 111
1, 4487, Note_on_c, 6, 46, 81
1, 4487, Note_off_c, 9, 35, 64
1, 4487, Note_on_c, 9, 42, 71
1, 4488, Note_on_c, 2, 70, 63
1, 4488, Note_off_c, 9, 42, 64
1, 4489, Note_off_c, 2, 70, 64
1, 4489, Note_on_c, 2, 66, 60
1, 4490, Note_off_c, 2, 66, 64
1, 4499, Note_off_c, 0, 34, 64
1, 4499, Note_off_c, 6, 46, 64
1, 4507, Note_off_c, 3, 78, 64
1, 4507, Note_on_c, 3, 77, 107
1, 4508, Note_off_c, 4, 78, 64
1, 4508, Note_on_c, 4, 77, 93
1, 4510, Note_on_c, 2, 58, 30
1, 4511, Note_on_c, 0, 34, 111
1, 4511, Note_on_c, 9, 38, 122
1, 4511, Note_on_c, 9, 42, 79
1, 4512, Note_on_c, 2, 63, 58
1, 4512, Note_on_c, 2, 66, 66
1, 4512, Note_on_c, 6, 46, 91
1, 4512, Note_off_c, 9, 42, 64
1, 4512, Note_off_c, 9, 38, 64
1, 4514, Note_on_c, 2, 70, 66
1, 4530, Note_off_c, 2, 70, 64
1, 4530, Note_off_c, 2, 66, 64
1, 4530, Note_off_c, 6, 46, 64
1, 4532, Note_off_c, 2, 63, 64
1, 4532, Note_off_c, 2, 58, 64
1, 4532, Note_on_c, 3, 75, 109
1, 4532, Note_off_c, 4, 77, 64
1, 4532, Note_on_c, 4, 75, 97
1, 4535, Note_on_c, 0, 58, 96
1, 4535, Note_on_c, 0, 61, 102
1, 4535, Note_on_c, 0, 63, 111
1, 4535, Note_on_c, 0, 66, 113
1, 4535, Note_on_c, 0, 37, 103
1, 4535, Note_on_c, 2, 70, 75
1, 4535, Note_on_c, 6, 49, 112
1, 4535, Note_on_c, 6, 54, 112
1, 4536, Note_on_c, 9, 42, 71
1, 4537, Note_on_c, 2, 66, 73
1, 4537, Note_off_c, 9, 42, 64
1, 4540, Note_off_c, 0, 34, 64
1, 4540, Note_off_c, 3, 77, 64
1, 4548, Note_off_c, 0, 66, 64
1, 4548, Note_off_c, 0, 63, 64
1, 4548, Note_off_c, 0, 61, 64
1, 4551, Note_off_c, 0, 58, 64
1, 4557, Note_off_c, 2, 66, 64
1, 4559, Note_on_c, 0, 39, 109
1, 4559, Note_on_c, 2, 63, 73
1, 4559, Note_on_c, 9, 42, 76
1, 4560, Note_off_c, 2, 70, 64
1, 4560, Note_on_c, 2, 66, 73
1, 4560, Note_off_c, 9, 42, 64
1, 4561, Note_on_c, 2, 70, 79
1, 4562, Note_off_c, 6, 54, 64
1, 4565, Note_off_c, 2, 51, 64
1, 4567, Note_off_c, 6, 49, 64
1, 4569, Note_off_c, 0, 37, 64
1, 4573, Note_off_c, 2, 70, 64
1, 4575, Note_off_c, 2, 66, 64
1, 4577, Note_off_c, 2, 63, 64
1, 4582, Note_on_c, 9, 35, 98
1, 4583, Note_on_c, 1, 42, 109
1, 4583, Note_off_c, 9, 35, 64
1, 4584, Note_on_c, 0, 42, 101
1, 4584, Note_on_c, 9, 42, 71
1, 4585, Note_off_c, 9, 42, 64
1, 4587, Note_off_c, 0, 39, 64
1, 4598, Note_off_c, 0, 42, 64
1, 4600, Note_off_c, 3, 75, 64
1, 4604, Note_off_c, 4, 75, 64
1, 4604, Note_on_c, 4, 73, 99
1, 4606, Note_on_c, 2, 58, 49
1, 4606, Note_on_c, 6, 49, 100
1, 4606, Note_on_c, 6, 53, 108
1, 4607, Note_on_c, 0, 65, 86
1, 4607, Note_on_c, 0, 61, 91
1, 4607, Note_on_c, 0, 56, 81
1, 4607, Note_on_c, 0, 58, 85
1, 4607, Note_on_c, 2, 61, 73
1, 4607, Note_on_c, 2, 65, 77
1, 4607, Note_on_c, 2, 70, 77
1, 4607, Note_on_c, 9, 35, 125
1, 4607, Note_on_c, 9, 42, 78
1, 4608, Note_off_c, 1, 42, 64
1, 4608, Note_on_c, 3, 73, 104
1, 4608, Note_off_c, 9, 42, 64
1, 4608, Note_off_c, 9, 35, 64
1, 4609, Note_on_c, 1, 46, 115
1, 4610, Note_on_c, 0, 46, 111
1, 4632, Note_on_c, 9, 42, 71
1, 4633, Note_off_c, 9, 42, 64
1, 4655, Note_on_c, 9, 42, 75
1, 4656, Note_off_c, 9, 42, 64
1, 4678, Note_off_c, 2, 70, 64
1, 4679, Note_off_c, 2, 65, 64
1, 4679, Note_on_c, 9, 35, 115
1, 4679, Note_on_c, 9, 42, 75
1, 4680, Note_on_c, 2, 65, 75
1, 4680, Note_off_c, 9, 42, 64
1, 4680, Note_off_c, 9, 35, 64
1, 4681, Note_on_c, 2, 70, 73
1, 4696, Note_off_c, 6, 49, 64
1, 4697, Note_off_c, 6, 53, 64
1, 4701, Note_off_c, 2, 58, 64
1, 4702, Note_off_c, 0, 46, 64
1, 4702, Note_off_c, 2, 61, 64
1, 4702, Note_off_c, 2, 65, 64
1, 4702, Note_off_c, 2, 70, 64
1, 4702, Note_on_c, 2, 58, 70
1, 4702, Note_on_c, 6, 49, 85
1, 4703, Note_on_c, 2, 70, 85
1, 4703, Note_on_c, 2, 61, 75
1, 4703, Note_on_c, 2, 65, 70
1, 4703, Note_on_c, 6, 53, 88
1, 4703, Note_on_c, 9, 42, 78
1, 4704, Note_off_c, 1, 46, 64
1, 4704, Note_off_c, 9, 42, 64
1, 4704, Note_on_c, 9, 38, 121
1, 4705, Note_on_c, 0, 41, 98
1, 4705, Note_on_c, 1, 41, 109
1, 4705, Note_off_c, 9, 38, 64
1, 4718, Note_off_c, 2, 61, 64
1, 4721, Note_off_c, 2, 58, 64
1, 4721, Note_off_c, 2, 70, 64
1, 4721, Note_off_c, 6, 49, 64
1, 4722, Note_off_c, 2, 65, 64
1, 4722, Note_off_c, 6, 53, 64
1, 4726, Note_on_c, 9, 42, 70
1, 4727, Note_on_c, 0, 44, 94
1, 4727, Note_off_c, 9, 42, 64
1, 4728, Note_off_c, 1, 41, 64
1, 4729, Note_on_c, 1, 44, 110
1, 4734, Note_off_c, 0, 41, 64
1, 4751, Note_on_c, 9, 42, 73
1, 4752, Note_off_c, 1, 44, 64
1, 4752, Note_off_c, 9, 42, 64
1, 4753, Note_on_c, 0, 46, 108
1, 4753, Note_on_c, 1, 46, 110
1, 4758, Note_off_c, 0, 44, 64
1, 4775, Note_on_c, 9, 35, 113
1, 4775, Note_on_c, 9, 42, 73
1, 4776, Note_off_c, 9, 42, 64
1, 4776, Note_off_c, 9, 35, 64
1, 4779, Note_off_c, 0, 46, 64
1, 4787, Note_off_c, 1, 46, 64
1, 4796, Note_on_c, 3, 70, 95
1, 4799, Note_off_c, 3, 73, 64
1, 4799, Note_on_c, 9, 42, 80
1, 4800, Note_off_c, 9, 42, 64
1, 4800, Note_on_c, 9, 35, 121
1, 4801, Note_off_c, 4, 73, 64
1, 4801, Note_on_c, 4, 70, 92
1, 4801, Note_off_c, 9, 35, 64
1, 4807, Note_off_c, 0, 58, 64
1, 4808, Note_off_c, 0, 61, 64
1, 4809, Note_off_c, 0, 65, 64
1, 4811, Note_off_c, 0, 56, 64
1, 4823, Note_on_c, 9, 42, 70
1, 4824, Note_off_c, 9, 42, 64
1, 4847, Note_on_c, 9, 42, 73
1, 4848, Note_off_c, 9, 42, 64
1, 4869, Note_on_c, 2, 70, 76
1, 4869, Note_on_c, 2, 65, 77
1, 4870, Note_on_c, 0, 41, 103
1, 4870, Note_on_c, 2, 61, 32
1, 4871, Note_on_c, 6, 41, 88
1, 4872, Note_on_c, 9, 35, 111
1, 4872, Note_on_c, 9, 42, 69
1, 4873, Note_off_c, 9, 42, 64
1, 4873, Note_off_c, 9, 35, 64
1, 4884, Note_off_c, 6, 41, 64
1, 4886, Note_off_c, 0, 41, 64
1, 4891, Note_off_c, 2, 61, 64
1, 4891, Note_off_c, 2, 65, 64
1, 4891, Note_off_c, 2, 70, 64
1, 4892, Note_on_c, 2, 58, 65
1, 4892, Note_on_c, 2, 61, 73
1, 4892, Note_on_c, 2, 65, 78
1, 4892, Note_on_c, 2, 70, 75
1, 4895, Note_on_c, 0, 41, 117
1, 4895, Note_on_c, 6, 41, 88
1, 4896, Note_on_c, 9, 42, 79
1, 4897, Note_off_c, 4, 70, 64
1, 4897, Note_off_c, 9, 42, 64
1, 4897, Note_on_c, 9, 38, 122
1, 4898, Note_off_c, 9, 38, 64
1, 4914, Note_off_c, 2, 70, 64
1, 4914, Note_off_c, 2, 65, 64
1, 4915, Note_off_c, 6, 41, 64
1, 4918, Note_on_c, 2, 65, 73
1, 4918, Note_on_c, 2, 70, 73
1, 4918, Note_on_c, 6, 49, 102
1, 4919, Note_on_c, 0, 44, 109
1, 4919, Note_on_c, 6, 53, 106
1, 4920, Note_on_c, 0, 58, 111
1, 4920, Note_on_c, 9, 42, 72
1, 4921, Note_on_c, 0, 65, 115
1, 4921, Note_on_c, 0, 56, 105
1, 4921, Note_on_c, 0, 61, 106
1, 4921, Note_off_c, 9, 42, 64
1, 4924, Note_off_c, 0, 41, 64
1, 4930, Note_off_c, 2, 61, 64
1, 4930, Note_off_c, 2, 58, 64
1, 4936, Note_off_c, 2, 65, 64
1, 4936, Note_off_c, 2, 70, 64
1, 4941, Note_off_c, 0, 56, 64
1, 4942, Note_off_c, 6, 49, 64
1, 4943, Note_off_c, 0, 61, 64
1, 4944, Note_off_c, 0, 58, 64
1, 4944, Note_off_c, 0, 65, 64
1, 4944, Note_on_c, 0, 46, 98
1, 4944, Note_off_c, 6, 53, 64
1, 4945, Note_on_c, 9, 42, 77
1, 4946, Note_off_c, 9, 42, 64
1, 4953, Note_off_c, 0, 44, 64
1, 4957, Note_off_c, 3, 70, 64
1, 4966, Note_on_c, 9, 35, 113
1, 4967, Note_on_c, 1, 49, 113
1, 4967, Note_off_c, 9, 35, 64
1, 4968, Note_on_c, 0, 49, 109
1, 4968, Note_on_c, 9, 42, 72
1, 4969, Note_off_c, 9, 42, 64
1, 4971, Note_off_c, 0, 46, 64
1, 4990, Note_off_c, 0, 49, 64
1, 4990, Note_off_c, 1, 49, 64
1, 4990, Note_on_c, 2, 58, 48
1, 4991, Note_on_c, 1, 46, 112
1, 4991, Note_on_c, 2, 61, 77
1, 4991, Note_on_c, 6, 49, 102
1, 4991, Note_on_c, 6, 53, 112
1, 4991, Note_on_c, 9, 35, 123
1, 4992, Note_on_c, 2, 65, 77
1, 4992, Note_off_c, 9, 35, 64
1, 4992, Note_on_c, 9, 42, 78
1, 4993, Note_on_c, 0, 65, 96
1, 4993, Note_on_c, 0, 58, 94
1, 4993, Note_on_c, 0, 61, 98
1, 4993, Note_on_c, 0, 56, 91
1, 4993, Note_on_c, 0, 46, 105
1, 4993, Note_on_c, 2, 70, 78
1, 4993, Note_off_c, 9, 42, 64
1, 5017, Note_on_c, 9, 42, 66
1, 5018, Note_off_c, 9, 42, 64
1, 5040, Note_on_c, 9, 42, 73
1, 5041, Note_off_c, 9, 42, 64
1, 5063, Note_on_c, 9, 35, 114
1, 5064, Note_off_c, 2, 70, 64
1, 5064, Note_off_c, 9, 35, 64
1, 5064, Note_on_c, 9, 42, 70
1, 5065, Note_off_c, 2, 65, 64
1, 5065, Note_on_c, 2, 70, 75
1, 5065, Note_off_c, 9, 42, 64
1, 5066, Note_on_c, 2, 65, 75
1, 5076, Note_off_c, 6, 53, 64
1, 5077, Note_off_c, 6, 49, 64
1, 5080, Note_off_c, 0, 46, 64
1, 5086, Note_on_c, 0, 41, 99
1, 5086, Note_off_c, 1, 46, 64
1, 5087, Note_on_c, 6, 49, 102
1, 5087, Note_on_c, 6, 53, 95
1, 5088, Note_off_c, 2, 61, 64
1, 5088, Note_on_c, 9, 38, 121
1, 5089, Note_on_c, 1, 41, 116
1, 5089, Note_off_c, 2, 65, 64
1, 5089, Note_on_c, 2, 61, 70
1, 5089, Note_off_c, 9, 38, 64
1, 5089, Note_on_c, 9, 42, 79
1, 5090, Note_off_c, 2, 70, 64
1, 5090, Note_off_c, 9, 42, 64
1, 5091, Note_on_c, 2, 65, 77
1, 5091, Note_on_c, 2, 70, 79
1, 5101, Note_off_c, 2, 61, 64
1, 5110, Note_on_c, 0, 44, 99
1, 5111, Note_off_c, 1, 41, 64
1, 5112, Note_on_c, 1, 44, 110
1, 5112, Note_off_c, 2, 58, 64
1, 5112, Note_off_c, 2, 65, 64
1, 5112, Note_off_c, 6, 53, 64
1, 5113, Note_off_c, 6, 49, 64
1, 5113, Note_on_c, 9, 42, 69
1, 5114, Note_off_c, 9, 42, 64
1, 5116, Note_off_c, 2, 70, 64
1, 5118, Note_off_c, 0, 41, 64
1, 5135, Note_on_c, 0, 46, 106
1, 5135, Note_off_c, 1, 44, 64
1, 5136, Note_on_c, 1, 46, 112
1, 5137, Note_on_c, 9, 42, 79
1, 5138, Note_off_c, 9, 42, 64
1, 5141, Note_off_c, 0, 44, 64
1, 5157, Note_off_c, 0, 46, 64
1, 5158, Note_on_c, 9, 35, 106
1, 5159, Note_off_c, 9, 35, 64
1, 5160, Note_on_c, 2, 70, 74
1, 5161, Note_on_c, 9, 42, 72
1, 5162, Note_on_c, 2, 65, 73
1, 5162, Note_off_c, 9, 42, 64
1, 5163, Note_on_c, 2, 61, 54
1, 5168, Note_off_c, 1, 46, 64
1, 5183, Note_off_c, 0, 65, 64
1, 5183, Note_on_c, 9, 35, 125
1, 5183, Note_on_c, 9, 42, 78
1, 5184, Note_off_c, 0, 56, 64
1, 5184, Note_off_c, 2, 61, 64
1, 5184, Note_off_c, 9, 42, 64
1, 5184, Note_off_c, 9, 35, 64
1, 5185, Note_off_c, 0, 61, 64
1, 5185, Note_off_c, 0, 58, 64
1, 5185, Note_off_c, 2, 65, 64
1, 5185, Note_on_c, 2, 61, 73
1, 5186, Note_on_c, 2, 65, 79
1, 5187, Note_off_c, 2, 70, 64
1, 5189, Note_on_c, 2, 70, 55
1, 5205, Note_off_c, 2, 65, 64
1, 5205, Note_off_c, 2, 61, 64
1, 5207, Note_off_c, 2, 70, 64
1, 5207, Note_on_c, 9, 42, 71
1, 5208, Note_off_c, 9, 42, 64
1, 5231, Note_on_c, 2, 58, 38
1, 5231, Note_on_c, 9, 42, 72
1, 5232, Note_off_c, 2, 58, 64
1, 5232, Note_on_c, 2, 61, 52
1, 5232, Note_off_c, 9, 42, 64
1, 5233, Note_off_c, 2, 61, 64
1, 5233, Note_on_c, 2, 65, 56
1, 5234, Note_off_c, 2, 65, 64
1, 5234, Note_on_c, 2, 70, 55
1, 5235, Note_off_c, 2, 70, 64
1, 5253, Note_on_c, 0, 41, 105
1, 5254, Note_on_c, 6, 41, 80
1, 5255, Note_on_c, 9, 35, 104
1, 5255, Note_on_c, 9, 42, 70
1, 5256, Note_on_c, 2, 65, 55
1, 5256, Note_off_c, 9, 42, 64
1, 5256, Note_off_c, 9, 35, 64
1, 5257, Note_off_c, 2, 65, 64
1, 5258, Note_on_c, 2, 70, 55
1, 5259, Note_off_c, 2, 70, 64
1, 5268, Note_off_c, 6, 41, 64
1, 5269, Note_off_c, 0, 41, 64
1, 5278, Note_on_c, 0, 41, 113
1, 5278, Note_on_c, 6, 41, 81
1, 5279, Note_on_c, 9, 42, 77
1, 5280, Note_off_c, 9, 42, 64
1, 5281, Note_on_c, 2, 61, 48
1, 5281, Note_on_c, 9, 38, 121
1, 5282, Note_off_c, 2, 61, 64
1, 5282, Note_on_c, 2, 65, 54
1, 5282, Note_off_c, 9, 38, 64
1, 5283, Note_off_c, 2, 65, 64
1, 5283, Note_on_c, 2, 70, 55
1, 5284, Note_off_c, 2, 70, 64
1, 5298, Note_off_c, 6, 41, 64
1, 5301, Note_on_c, 6, 49, 110
1, 5301, Note_on_c, 6, 53, 110
1, 5302, Note_on_c, 0, 56, 92
1, 5302, Note_on_c, 0, 65, 102
1, 5302, Note_on_c, 0, 58, 95
1, 5302, Note_on_c, 0, 44, 99
1, 5302, Note_on_c, 9, 42, 73
1, 5303, Note_on_c, 0, 61, 101
1, 5303, Note_off_c, 9, 42, 64
1, 5305, Note_on_c, 2, 65, 77
1, 5305, Note_on_c, 2, 70, 69
1, 5307, Note_on_c, 2, 58, 47
1, 5308, Note_off_c, 0, 41, 64
1, 5316, Note_off_c, 0, 58, 64
1, 5317, Note_off_c, 0, 56, 64
1, 5318, Note_off_c, 0, 61, 64
1, 5320, Note_off_c, 0, 65, 64
1, 5326, Note_off_c, 6, 53, 64
1, 5326, Note_off_c, 6, 49, 64
1, 5326, Note_on_c, 9, 42, 74
1, 5327, Note_on_c, 0, 46, 102
1, 5327, Note_off_c, 2, 70, 64
1, 5327, Note_off_c, 2, 65, 64
1, 5327, Note_off_c, 9, 42, 64
1, 5328, Note_on_c, 2, 61, 73
1, 5328, Note_on_c, 2, 65, 76
1, 5328, Note_on_c, 2, 70, 78
1, 5338, Note_off_c, 0, 44, 64
1, 5344, Note_off_c, 2, 70, 64
1, 5346, Note_off_c, 2, 58, 64
1, 5346, Note_off_c, 2, 61, 64
1, 5346, Note_off_c, 2, 65, 64
1, 5350, Note_on_c, 9, 42, 71
1, 5351, Note_on_c, 0, 49, 109
1, 5351, Note_on_c, 1, 49, 114
1, 5351, Note_off_c, 9, 42, 64
1, 5351, Note_on_c, 9, 35, 97
1, 5352, Note_off_c, 9, 35, 64
1, 5354, Note_off_c, 0, 46, 64
1, 5375, Note_on_c, 0, 63, 89
1, 5375, Note_on_c, 0, 61, 85
1, 5375, Note_on_c, 0, 58, 81
1, 5375, Note_on_c, 0, 66, 84
1, 5375, Note_on_c, 0, 39, 109
1, 5375, Note_off_c, 1, 49, 64
1, 5375, Note_on_c, 2, 58, 62
1, 5375, Note_on_c, 6, 46, 85
1, 5375, Note_on_c, 9, 42, 78
1, 5376, Note_off_c, 0, 49, 64
1, 5376, Note_on_c, 1, 39, 107
1, 5376, Note_on_c, 2, 63, 37
1, 5376, Note_on_c, 3, 75, 108
1, 5376, Note_off_c, 9, 42, 64
1, 5377, Note_on_c, 6, 51, 97
1, 5377, Note_on_c, 9, 35, 127
1, 5378, Note_on_c, 2, 66, 72
1, 5378, Note_on_c, 2, 70, 79
1, 5378, Note_off_c, 9, 35, 64
1, 5399, Note_on_c, 9, 42, 69
1, 5400, Note_off_c, 9, 42, 64
1, 5412, Note_off_c, 3, 75, 64
1, 5421, Note_on_c, 3, 75, 106
1, 5423, Note_on_c, 9, 42, 74
1, 5424, Note_off_c, 9, 42, 64
1, 5434, Note_off_c, 0, 39, 64
1, 5446, Note_on_c, 9, 35, 114
1, 5447, Note_on_c, 3, 78, 102
1, 5447, Note_off_c, 9, 35, 64
1, 5447, Note_on_c, 9, 42, 70
1, 5448, Note_off_c, 2, 63, 64
1, 5448, Note_off_c, 9, 42, 64
1, 5450, Note_off_c, 2, 70, 64
1, 5451, Note_off_c, 2, 66, 64
1, 5451, Note_off_c, 2, 58, 64
1, 5451, Note_on_c, 2, 70, 73
1, 5452, Note_on_c, 2, 66, 73
1, 5452, Note_on_c, 2, 63, 63
1, 5452, Note_on_c, 2, 58, 56
1, 5452, Note_off_c, 3, 75, 64
1, 5463, Note_off_c, 6, 46, 64
1, 5464, Note_off_c, 6, 51, 64
1, 5466, Note_off_c, 1, 39, 64
1, 5470, Note_on_c, 1, 34, 104
1, 5471, Note_on_c, 6, 46, 78
1, 5471, Note_on_c, 9, 38, 123
1, 5471, Note_on_c, 9, 42, 79
1, 5472, Note_on_c, 0, 34, 80
1, 5472, Note_off_c, 9, 42, 64
1, 5472, Note_off_c, 9, 38, 64
1, 5473, Note_on_c, 6, 51, 94
1, 5474, Note_off_c, 2, 66, 64
1, 5475, Note_off_c, 2, 63, 64
1, 5475, Note_on_c, 2, 66, 70
1, 5476, Note_off_c, 2, 70, 64
1, 5476, Note_on_c, 2, 63, 71
1, 5482, Note_off_c, 3, 78, 64
1, 5490, Note_off_c, 2, 63, 64
1, 5490, Note_off_c, 2, 66, 64
1, 5492, Note_off_c, 1, 34, 64
1, 5492, Note_off_c, 2, 58, 64
1, 5493, Note_on_c, 1, 37, 110
1, 5495, Note_on_c, 3, 78, 107
1, 5495, Note_on_c, 9, 42, 70
1, 5496, Note_on_c, 0, 37, 89
1, 5496, Note_off_c, 9, 42, 64
1, 5499, Note_off_c, 6, 46, 64
1, 5501, Note_off_c, 6, 51, 64
1, 5504, Note_off_c, 0, 34, 64
1, 5517, Note_off_c, 1, 37, 64
1, 5517, Note_on_c, 3, 75, 103
1, 5518, Note_on_c, 1, 39, 107
1, 5521, Note_on_c, 0, 39, 102
1, 5521, Note_on_c, 9, 42, 73
1, 5522, Note_off_c, 3, 78, 64
1, 5522, Note_off_c, 9, 42, 64
1, 5526, Note_off_c, 0, 37, 64
1, 5537, Note_off_c, 0, 66, 64
1, 5538, Note_off_c, 0, 63, 64
1, 5538, Note_off_c, 0, 61, 64
1, 5541, Note_on_c, 9, 35, 98
1, 5542, Note_off_c, 0, 58, 64
1, 5542, Note_off_c, 9, 35, 64
1, 5544, Note_off_c, 0, 39, 64
1, 5546, Note_on_c, 9, 42, 70
1, 5547, Note_off_c, 9, 42, 64
1, 5558, Note_off_c, 1, 39, 64
1, 5566, Note_on_c, 9, 35, 127
1, 5567, Note_on_c, 2, 58, 55
1, 5567, Note_off_c, 9, 35, 64
1, 5569, Note_on_c, 2, 63, 70
1, 5569, Note_on_c, 9, 42, 79
1, 5570, Note_on_c, 2, 66, 75
1, 5570, Note_on_c, 2, 70, 76
1, 5570, Note_off_c, 9, 42, 64
1, 5573, Note_off_c, 3, 75, 64
1, 5593, Note_on_c, 9, 42, 69
1, 5594, Note_off_c, 9, 42, 64
1, 5614, Note_off_c, 2, 58, 64
1, 5615, Note_off_c, 2, 63, 64
1, 5615, Note_on_c, 2, 58, 35
1, 5616, Note_off_c, 2, 58, 64
1, 5616, Note_off_c, 2, 66, 64
1, 5616, Note_on_c, 2, 63, 64
1, 5617, Note_off_c, 2, 63, 64
1, 5617, Note_off_c, 2, 70, 64
1, 5617, Note_on_c, 2, 66, 72
1, 5617, Note_on_c, 9, 42, 82
1, 5618, Note_off_c, 2, 66, 64
1, 5618, Note_on_c, 2, 70, 75
1, 5618, Note_off_c, 9, 42, 64
1, 5619, Note_off_c, 2, 70, 64
1, 5638, Note_on_c, 0, 34, 105
1, 5639, Note_on_c, 6, 46, 83
1, 5639, Note_on_c, 9, 35, 111
1, 5640, Note_off_c, 9, 35, 64
1, 5641, Note_on_c, 2, 70, 74
1, 5641, Note_on_c, 9, 46, 79
1, 5642, Note_off_c, 2, 70, 64
1, 5642, Note_on_c, 2, 66, 67
1, 5642, Note_off_c, 9, 46, 64
1, 5643, Note_off_c, 2, 66, 64
1, 5653, Note_off_c, 0, 34, 64
1, 5654, Note_off_c, 6, 46, 64
1, 5663, Note_on_c, 0, 34, 111
1, 5663, Note_on_c, 9, 38, 121
1, 5664, Note_on_c, 2, 63, 63
1, 5664, Note_off_c, 9, 38, 64
1, 5665, Note_on_c, 2, 66, 76
1, 5665, Note_on_c, 6, 46, 92
1, 5665, Note_on_c, 9, 42, 73
1, 5666, Note_on_c, 2, 70, 77
1, 5666, Note_off_c, 9, 42, 64
1, 5685, Note_off_c, 6, 46, 64
1, 5686, Note_on_c, 0, 58, 97
1, 5686, Note_on_c, 0, 61, 105
1, 5686, Note_on_c, 0, 66, 106
1, 5686, Note_on_c, 0, 63, 103
1, 5687, Note_on_c, 0, 37, 102
1, 5687, Note_on_c, 6, 49, 108
1, 5687, Note_on_c, 6, 54, 110
1, 5687, Note_on_c, 9, 35, 123
1, 5687, Note_on_c, 9, 42, 73
1, 5688, Note_off_c, 2, 70, 64
1, 5688, Note_off_c, 9, 42, 64
1, 5688, Note_off_c, 9, 35, 64
1, 5689, Note_off_c, 2, 66, 64
1, 5689, Note_on_c, 2, 70, 74
1, 5690, Note_on_c, 2, 66, 83
1, 5691, Note_off_c, 0, 34, 64
1, 5691, Note_on_c, 2, 58, 63
1, 5707, Note_off_c, 6, 49, 64
1, 5709, Note_off_c, 6, 54, 64
1, 5710, Note_on_c, 0, 39, 103
1, 5710, Note_on_c, 9, 42, 75
1, 5711, Note_off_c, 9, 42, 64
1, 5712, Note_off_c, 2, 58, 64
1, 5713, Note_off_c, 2, 63, 64
1, 5714, Note_off_c, 0, 63, 64
1, 5715, Note_off_c, 0, 66, 64
1, 5715, Note_off_c, 0, 61, 64
1, 5715, Note_off_c, 2, 66, 64
1, 5716, Note_off_c, 0, 58, 64
1, 5716, Note_off_c, 2, 70, 64
1, 5717, Note_off_c, 0, 37, 64
1, 5734, Note_on_c, 0, 42, 99
1, 5734, Note_on_c, 9, 42, 72
1, 5735, Note_on_c, 1, 42, 111
1, 5735, Note_off_c, 9, 42, 64
1, 5736, Note_off_c, 0, 39, 64
1, 5737, Note_on_c, 9, 35, 127
1, 5738, Note_off_c, 9, 35, 64
1, 5755, Note_on_c, 2, 51, 30
1, 5755, Note_on_c, 2, 58, 67
1, 5757, Note_off_c, 0, 42, 64
1, 5757, Note_on_c, 2, 63, 70
1, 5757, Note_on_c, 2, 66, 75
1, 5758, Note_on_c, 0, 61, 95
1, 5758, Note_on_c, 0, 63, 97
1, 5758, Note_on_c, 0, 58, 91
1, 5758, Note_on_c, 0, 66, 97
1, 5758, Note_off_c, 1, 42, 64
1, 5758, Note_on_c, 2, 70, 75
1, 5758, Note_on_c, 6, 46, 91
1, 5758, Note_on_c, 6, 51, 98
1, 5758, Note_on_c, 9, 42, 82
1, 5759, Note_on_c, 0, 39, 111
1, 5759, Note_on_c, 1, 39, 112
1, 5759, Note_off_c, 9, 42, 64
1, 5762, Note_on_c, 9, 35, 125
1, 5763, Note_off_c, 9, 35, 64
1, 5782, Note_on_c, 9, 46, 78
1, 5783, Note_off_c, 9, 46, 64
1, 5806, Note_on_c, 9, 42, 73
1, 5807, Note_off_c, 9, 42, 64
1, 5828, Note_off_c, 2, 70, 64
1, 5829, Note_off_c, 2, 66, 64
1, 5829, Note_on_c, 2, 70, 75
1, 5830, Note_off_c, 2, 63, 64
1, 5830, Note_on_c, 2, 66, 73
1, 5830, Note_on_c, 9, 42, 75
1, 5831, Note_on_c, 2, 63, 67
1, 5831, Note_off_c, 9, 42, 64
1, 5833, Note_on_c, 9, 35, 113
1, 5834, Note_off_c, 9, 35, 64
1, 5844, Note_off_c, 6, 46, 64
1, 5849, Note_off_c, 0, 39, 64
1, 5849, Note_off_c, 6, 51, 64
1, 5851, Note_on_c, 4, 75, 106
1, 5853, Note_off_c, 2, 63, 64
1, 5854, Note_on_c, 0, 34, 94
1, 5854, Note_off_c, 1, 39, 64
1, 5854, Note_off_c, 2, 66, 64
1, 5854, Note_on_c, 2, 63, 67
1, 5855, Note_on_c, 1, 34, 110
1, 5855, Note_off_c, 2, 70, 64
1, 5855, Note_on_c, 6, 46, 80
1, 5855, Note_on_c, 6, 51, 80
1, 5855, Note_on_c, 9, 42, 76
1, 5856, Note_on_c, 2, 66, 73
1, 5856, Note_on_c, 2, 70, 78
1, 5856, Note_off_c, 9, 42, 64
1, 5857, Note_on_c, 9, 38, 122
1, 5858, Note_on_c, 3, 75, 112
1, 5858, Note_off_c, 9, 38, 64
1, 5864, Note_off_c, 2, 51, 64
1, 5869, Note_off_c, 2, 70, 64
1, 5872, Note_off_c, 2, 63, 64
1, 5872, Note_off_c, 2, 58, 64
1, 5873, Note_off_c, 2, 66, 64
1, 5877, Note_off_c, 4, 75, 64
1, 5877, Note_on_c, 4, 77, 103
1, 5878, Note_on_c, 0, 37, 95
1, 5878, Note_off_c, 1, 34, 64
1, 5879, Note_on_c, 1, 37, 110
1, 5879, Note_on_c, 9, 42, 73
1, 5880, Note_off_c, 9, 42, 64
1, 5882, Note_on_c, 3, 77, 110
1, 5883, Note_off_c, 0, 34, 64
1, 5884, Note_off_c, 3, 75, 64
1, 5886, Note_off_c, 6, 46, 64
1, 5887, Note_off_c, 6, 51, 64
1, 5901, Note_on_c, 0, 39, 106
1, 5902, Note_off_c, 1, 37, 64
1, 5903, Note_on_c, 1, 39, 111
1, 5903, Note_on_c, 9, 42, 74
1, 5904, Note_off_c, 0, 37, 64
1, 5904, Note_off_c, 9, 42, 64
1, 5925, Note_off_c, 0, 39, 64
1, 5927, Note_on_c, 9, 42, 70
1, 5928, Note_off_c, 9, 42, 64
1, 5929, Note_on_c, 9, 35, 107
1, 5930, Note_off_c, 9, 35, 64
1, 5931, Note_off_c, 0, 66, 64
1, 5936, Note_off_c, 1, 39, 64
1, 5938, Note_off_c, 0, 63, 64
1, 5938, Note_off_c, 3, 77, 64
1, 5939, Note_off_c, 0, 61, 64
1, 5941, Note_off_c, 0, 58, 64
1, 5947, Note_off_c, 4, 77, 64
1, 5947, Note_on_c, 4, 78, 102
1, 5950, Note_on_c, 3, 78, 110
1, 5951, Note_on_c, 9, 42, 79
1, 5952, Note_off_c, 9, 42, 64
1, 5953, Note_on_c, 9, 35, 121
1, 5954, Note_off_c, 9, 35, 64
1, 5975, Note_on_c, 9, 42, 73
1, 5976, Note_off_c, 9, 42, 64
1, 5999, Note_on_c, 2, 58, 37
1, 5999, Note_on_c, 9, 42, 77
1, 6000, Note_off_c, 2, 58, 64
1, 6000, Note_on_c, 2, 63, 65
1, 6000, Note_off_c, 9, 42, 64
1, 6001, Note_off_c, 2, 63, 64
1, 6001, Note_on_c, 2, 66, 75
1, 6002, Note_off_c, 2, 66, 64
1, 6002, Note_on_c, 2, 70, 75
1, 6003, Note_off_c, 2, 70, 64
1, 6021, Note_on_c, 0, 34, 105
1, 6023, Note_on_c, 9, 42, 67
1, 6024, Note_off_c, 9, 42, 64
1, 6025, Note_on_c, 2, 70, 72
1, 6025, Note_on_c, 9, 35, 114
1, 6026, Note_off_c, 2, 70, 64
1, 6026, Note_on_c, 6, 46, 81
1, 6026, Note_off_c, 9, 35, 64
1, 6035, Note_off_c, 0, 34, 64
1, 6039, Note_off_c, 6, 46, 64
1, 6041, Note_off_c, 3, 78, 64
1, 6043, Note_on_c, 3, 77, 110
1, 6043, Note_off_c, 4, 78, 64
1, 6043, Note_on_c, 4, 77, 100
1, 6047, Note_on_c, 0, 34, 113
1, 6047, Note_on_c, 9, 42, 86
1, 6048, Note_off_c, 9, 42, 64
1, 6049, Note_on_c, 2, 63, 57
1, 6049, Note_on_c, 9, 38, 116
1, 6050, Note_on_c, 2, 66, 56
1, 6050, Note_on_c, 6, 46, 86
1, 6050, Note_off_c, 9, 38, 64
1, 6067, Note_on_c, 3, 75, 116
1, 6069, Note_off_c, 4, 77, 64
1, 6069, Note_on_c, 4, 75, 103
1, 6070, Note_on_c, 0, 66, 102
1, 6070, Note_on_c, 0, 58, 95
1, 6070, Note_on_c, 0, 61, 103
1, 6070, Note_on_c, 0, 63, 109
1, 6070, Note_on_c, 0, 37, 108
1, 6070, Note_off_c, 2, 66, 64
1, 6070, Note_off_c, 2, 63, 64
1, 6070, Note_on_c, 2, 58, 72
1, 6071, Note_on_c, 2, 63, 69
1, 6071, Note_on_c, 2, 66, 75
1, 6071, Note_on_c, 2, 70, 70
1, 6071, Note_off_c, 6, 46, 64
1, 6071, Note_on_c, 6, 49, 104
1, 6071, Note_on_c, 6, 54, 114
1, 6071, Note_on_c, 9, 46, 73
1, 6072, Note_off_c, 9, 46, 64
1, 6074, Note_off_c, 3, 77, 64
1, 6074, Note_on_c, 9, 35, 127
1, 6075, Note_off_c, 0, 34, 64
1, 6075, Note_off_c, 9, 35, 64
1, 6086, Note_off_c, 0, 63, 64
1, 6087, Note_off_c, 0, 61, 64
1, 6087, Note_off_c, 0, 66, 64
1, 6089, Note_off_c, 0, 58, 64
1, 6095, Note_on_c, 0, 39, 109
1, 6096, Note_off_c, 6, 54, 64
1, 6096, Note_on_c, 9, 42, 72
1, 6097, Note_off_c, 9, 42, 64
1, 6099, Note_off_c, 6, 49, 64
1, 6103, Note_off_c, 0, 37, 64
1, 6116, Note_off_c, 2, 70, 64
1, 6119, Note_on_c, 0, 42, 98
1, 6119, Note_on_c, 1, 42, 110
1, 6120, Note_off_c, 2, 66, 64
1, 6122, Note_off_c, 0, 39, 64
1, 6122, Note_on_c, 9, 35, 110
1, 6122, Note_on_c, 9, 42, 78
1, 6123, Note_off_c, 9, 42, 64
1, 6123, Note_off_c, 9, 35, 64
1, 6124, Note_off_c, 2, 58, 64
1, 6127, Note_off_c, 2, 63, 64
1, 6134, Note_off_c, 3, 75, 64
1, 6139, Note_off_c, 4, 75, 64
1, 6139, Note_on_c, 4, 73, 102
1, 6142, Note_on_c, 0, 58, 82
1, 6142, Note_on_c, 0, 65, 82
1, 6142, Note_on_c, 0, 61, 91
1, 6142, Note_on_c, 0, 56, 86
1, 6143, Note_off_c, 1, 42, 64
1, 6144, Note_on_c, 1, 46, 116
1, 6144, Note_on_c, 3, 73, 106
1, 6145, Note_on_c, 0, 46, 106
1, 6145, Note_on_c, 2, 58, 49
1, 6145, Note_on_c, 6, 53, 92
1, 6145, Note_on_c, 9, 35, 123
1, 6146, Note_on_c, 6, 49, 64
1, 6146, Note_off_c, 9, 35, 64
1, 6146, Note_on_c, 9, 42, 78
1, 6147, Note_on_c, 2, 61, 74
1, 6147, Note_off_c, 9, 42, 64
1, 6148, Note_on_c, 2, 65, 76
1, 6149, Note_on_c, 2, 70, 73
1, 6151, Note_off_c, 0, 42, 64
1, 6169, Note_on_c, 9, 42, 71
1, 6170, Note_off_c, 9, 42, 64
1, 6193, Note_on_c, 9, 42, 76
1, 6194, Note_off_c, 9, 42, 64
1, 6214, Note_off_c, 2, 70, 64
1, 6215, Note_off_c, 2, 65, 64
1, 6215, Note_on_c, 2, 70, 73
1, 6216, Note_on_c, 2, 65, 72
1, 6217, Note_on_c, 9, 35, 113
1, 6217, Note_on_c, 9, 42, 70
1, 6218, Note_off_c, 9, 42, 64
1, 6218, Note_off_c, 9, 35, 64
1, 6236, Note_off_c, 6, 49, 64
1, 6236, Note_off_c, 6, 53, 64
1, 6237, Note_off_c, 1, 46, 64
1, 6238, Note_on_c, 1, 41, 109
1, 6239, Note_off_c, 2, 58, 64
1, 6239, Note_on_c, 6, 49, 110
1, 6239, Note_on_c, 6, 53, 110
1, 6240, Note_off_c, 2, 61, 64
1, 6240, Note_on_c, 2, 58, 63
1, 6241, Note_off_c, 0, 46, 64
1, 6241, Note_on_c, 0, 41, 102
1, 6241, Note_off_c, 2, 65, 64
1, 6241, Note_on_c, 9, 38, 118
1, 6241, Note_on_c, 9, 42, 81
1, 6242, Note_off_c, 2, 70, 64
1, 6242, Note_on_c, 2, 61, 73
1, 6242, Note_on_c, 2, 65, 76
1, 6242, Note_off_c, 9, 42, 64
1, 6242, Note_off_c, 9, 38, 64
1, 6243, Note_on_c, 2, 70, 77
1, 6259, Note_off_c, 2, 61, 64
1, 6260, Note_off_c, 2, 70, 64
1, 6261, Note_off_c, 2, 58, 64
1, 6262, Note_off_c, 1, 41, 64
1, 6262, Note_off_c, 2, 65, 64
1, 6263, Note_on_c, 0, 44, 90
1, 6263, Note_on_c, 1, 44, 106
1, 6263, Note_on_c, 9, 42, 71
1, 6264, Note_off_c, 9, 42, 64
1, 6267, Note_off_c, 0, 41, 64
1, 6271, Note_off_c, 6, 49, 64
1, 6273, Note_off_c, 6, 53, 64
1, 6286, Note_off_c, 1, 44, 64
1, 6287, Note_on_c, 1, 46, 109
1, 6287, Note_on_c, 9, 42, 75
1, 6288, Note_off_c, 9, 42, 64
1, 6289, Note_on_c, 0, 46, 106
1, 6296, Note_off_c, 0, 44, 64
1, 6310, Note_on_c, 9, 35, 113
1, 6311, Note_on_c, 2, 70, 75
1, 6311, Note_off_c, 9, 35, 64
1, 6312, Note_off_c, 0, 46, 64
1, 6312, Note_on_c, 2, 65, 72
1, 6313, Note_on_c, 2, 61, 57
1, 6313, Note_on_c, 9, 42, 70
1, 6314, Note_on_c, 2, 58, 26
1, 6314, Note_off_c, 9, 42, 64
1, 6323, Note_off_c, 1, 46, 64
1, 6330, Note_off_c, 0, 61, 64
1, 6331, Note_off_c, 0, 58, 64
1, 6331, Note_off_c, 0, 65, 64
1, 6333, Note_off_c, 0, 56, 64
1, 6334, Note_off_c, 2, 61, 64
1, 6334, Note_on_c, 3, 70, 100
1, 6335, Note_off_c, 2, 70, 64
1, 6335, Note_off_c, 2, 65, 64
1, 6335, Note_on_c, 2, 61, 75
1, 6335, Note_on_c, 9, 35, 115
1, 6335, Note_on_c, 9, 42, 79
1, 6336, Note_on_c, 2, 65, 79
1, 6336, Note_on_c, 2, 70, 79
1, 6336, Note_off_c, 4, 73, 64
1, 6336, Note_on_c, 4, 70, 92
1, 6336, Note_off_c, 9, 42, 64
1, 6336, Note_off_c, 9, 35, 64
1, 6340, Note_off_c, 3, 73, 64
1, 6354, Note_off_c, 2, 61, 64
1, 6355, Note_off_c, 2, 70, 64
1, 6357, Note_off_c, 2, 65, 64
1, 6358, Note_off_c, 2, 58, 64
1, 6359, Note_on_c, 9, 42, 71
1, 6360, Note_off_c, 9, 42, 64
1, 6382, Note_on_c, 2, 58, 39
1, 6383, Note_off_c, 2, 58, 64
1, 6383, Note_on_c, 2, 61, 67
1, 6384, Note_off_c, 2, 61, 64
1, 6384, Note_on_c, 2, 65, 73
1, 6385, Note_off_c, 2, 65, 64
1, 6385, Note_on_c, 9, 42, 75
1, 6386, Note_on_c, 2, 70, 73
1, 6386, Note_off_c, 9, 42, 64
1, 6387, Note_off_c, 2, 70, 64
1, 6406, Note_on_c, 0, 41, 99
1, 6407, Note_on_c, 6, 41, 88
1, 6407, Note_on_c, 9, 35, 121
1, 6407, Note_on_c, 9, 42, 77
1, 6408, Note_on_c, 2, 70, 75
1, 6408, Note_off_c, 9, 42, 64
1, 6408, Note_off_c, 9, 35, 64
1, 6409, Note_off_c, 2, 70, 64
1, 6409, Note_on_c, 2, 65, 73
1, 6410, Note_off_c, 2, 65, 64
1, 6421, Note_off_c, 0, 41, 64
1, 6422, Note_off_c, 6, 41, 64
1, 6431, Note_on_c, 0, 41, 117
1, 6431, Note_on_c, 2, 61, 55
1, 6431, Note_on_c, 6, 41, 83
1, 6431, Note_on_c, 9, 38, 118
1, 6431, Note_on_c, 9, 42, 82
1, 6432, Note_on_c, 2, 65, 77
1, 6432, Note_on_c, 2, 70, 78
1, 6432, Note_off_c, 9, 42, 64
1, 6432, Note_off_c, 9, 38, 64
1, 6451, Note_off_c, 3, 70, 64
1, 6454, Note_on_c, 0, 58, 101
1, 6454, Note_on_c, 0, 56, 98
1, 6454, Note_on_c, 0, 44, 97
1, 6454, Note_off_c, 2, 70, 64
1, 6454, Note_on_c, 6, 53, 112
1, 6454, Note_on_c, 6, 49, 108
1, 6454, Note_on_c, 9, 46, 78
1, 6455, Note_on_c, 0, 65, 108
1, 6455, Note_on_c, 0, 61, 106
1, 6455, Note_off_c, 2, 65, 64
1, 6455, Note_on_c, 2, 70, 70
1, 6455, Note_off_c, 6, 41, 64
1, 6455, Note_off_c, 9, 46, 64
1, 6456, Note_on_c, 2, 65, 75
1, 6456, Note_on_c, 9, 35, 127
1, 6457, Note_off_c, 9, 35, 64
1, 6458, Note_off_c, 0, 41, 64
1, 6472, Note_off_c, 4, 70, 64
1, 6476, Note_off_c, 6, 49, 64
1, 6477, Note_off_c, 6, 53, 64
1, 6478, Note_on_c, 0, 46, 91
1, 6480, Note_off_c, 2, 65, 64
1, 6480, Note_off_c, 2, 61, 64
1, 6481, Note_off_c, 2, 70, 64
1, 6481, Note_on_c, 9, 42, 76
1, 6482, Note_off_c, 9, 42, 64
1, 6486, Note_off_c, 0, 44, 64
1, 6487, Note_off_c, 0, 61, 64
1, 6488, Note_off_c, 0, 56, 64
1, 6488, Note_off_c, 0, 58, 64
1, 6489, Note_off_c, 0, 65, 64
1, 6502, Note_on_c, 0, 49, 91
1, 6503, Note_on_c, 1, 49, 110
1, 6504, Note_on_c, 9, 35, 114
1, 6505, Note_off_c, 0, 46, 64
1, 6505, Note_off_c, 9, 35, 64
1, 6505, Note_on_c, 9, 42, 80
1, 6506, Note_off_c, 9, 42, 64
1, 6524, Note_on_c, 2, 58, 55
1, 6525, Note_on_c, 2, 61, 75
1, 6526, Note_on_c, 2, 65, 73
1, 6527, Note_on_c, 0, 65, 96
1, 6527, Note_on_c, 0, 61, 96
1, 6527, Note_on_c, 0, 58, 92
1, 6527, Note_on_c, 0, 56, 90
1, 6527, Note_on_c, 0, 46, 106
1, 6527, Note_off_c, 1, 49, 64
1, 6527, Note_on_c, 6, 49, 104
1, 6527, Note_on_c, 6, 53, 106
1, 6527, Note_on_c, 9, 35, 121
1, 6528, Note_on_c, 1, 46, 112
1, 6528, Note_on_c, 2, 70, 79
1, 6528, Note_off_c, 9, 35, 64
1, 6529, Note_on_c, 9, 42, 82
1, 6530, Note_off_c, 0, 49, 64
1, 6530, Note_off_c, 9, 42, 64
1, 6553, Note_on_c, 9, 46, 76
1, 6554, Note_off_c, 9, 46, 64
1, 6577, Note_on_c, 9, 42, 77
1, 6578, Note_off_c, 9, 42, 64
1, 6597, Note_off_c, 2, 70, 64
1, 6598, Note_off_c, 2, 65, 64
1, 6598, Note_on_c, 2, 70, 75
1, 6599, Note_on_c, 2, 65, 75
1, 6600, Note_on_c, 9, 35, 118
1, 6601, Note_off_c, 9, 35, 64
1, 6601, Note_on_c, 9, 42, 79
1, 6602, Note_off_c, 9, 42, 64
1, 6616, Note_off_c, 6, 53, 64
1, 6618, Note_off_c, 6, 49, 64
1, 6621, Note_off_c, 1, 46, 64
1, 6622, Note_off_c, 0, 46, 64
1, 6622, Note_on_c, 1, 41, 109
1, 6623, Note_on_c, 0, 41, 95
1, 6623, Note_on_c, 6, 53, 87
1, 6623, Note_on_c, 6, 49, 94
1, 6623, Note_on_c, 9, 38, 120
1, 6624, Note_off_c, 2, 58, 64
1, 6624, Note_off_c, 9, 38, 64
1, 6625, Note_off_c, 2, 61, 64
1, 6625, Note_on_c, 2, 58, 64
1, 6625, Note_on_c, 9, 42, 82
1, 6626, Note_off_c, 2, 70, 64
1, 6626, Note_off_c, 2, 65, 64
1, 6626, Note_on_c, 2, 61, 74
1, 6626, Note_off_c, 9, 42, 64
1, 6628, Note_on_c, 2, 65, 71
1, 6629, Note_on_c, 2, 70, 70
1, 6643, Note_off_c, 2, 70, 64
1, 6643, Note_off_c, 2, 58, 64
1, 6643, Note_off_c, 2, 61, 64
1, 6645, Note_off_c, 1, 41, 64
1, 6645, Note_off_c, 2, 65, 64
1, 6646, Note_on_c, 0, 44, 92
1, 6646, Note_on_c, 1, 44, 105
1, 6647, Note_off_c, 6, 49, 64
1, 6647, Note_off_c, 6, 53, 64
1, 6649, Note_on_c, 9, 42, 78
1, 6650, Note_off_c, 9, 42, 64
1, 6653, Note_off_c, 0, 41, 64
1, 6664, Note_on_c, 3, 73, 113
1, 6669, Note_off_c, 1, 44, 64
1, 6669, Note_on_c, 4, 73, 96
1, 6670, Note_on_c, 0, 46, 105
1, 6670, Note_on_c, 1, 46, 111
1, 6673, Note_on_c, 9, 42, 79
1, 6674, Note_off_c, 9, 42, 64
1, 6675, Note_off_c, 0, 44, 64
1, 6689, Note_off_c, 0, 61, 64
1, 6692, Note_off_c, 0, 56, 64
1, 6692, Note_off_c, 0, 58, 64
1, 6693, Note_off_c, 0, 65, 64
1, 6694, Note_on_c, 9, 35, 113
1, 6695, Note_off_c, 0, 46, 64
1, 6695, Note_on_c, 2, 70, 75
1, 6695, Note_off_c, 9, 35, 64
1, 6696, Note_on_c, 2, 65, 76
1, 6697, Note_on_c, 2, 58, 52
1, 6697, Note_on_c, 9, 42, 76
1, 6698, Note_on_c, 2, 61, 65
1, 6698, Note_off_c, 9, 42, 64
1, 6706, Note_off_c, 1, 46, 64
1, 6707, Note_off_c, 3, 73, 64
1, 6715, Note_off_c, 4, 73, 64
1, 6716, Note_on_c, 3, 73, 109
1, 6716, Note_on_c, 4, 73, 103
1, 6719, Note_off_c, 2, 61, 64
1, 6719, Note_off_c, 2, 65, 64
1, 6719, Note_on_c, 9, 35, 121
1, 6720, Note_on_c, 2, 61, 73
1, 6720, Note_on_c, 2, 65, 79
1, 6720, Note_off_c, 9, 35, 64
1, 6721, Note_off_c, 2, 70, 64
1, 6721, Note_on_c, 9, 42, 82
1, 6722, Note_on_c, 2, 70, 77
1, 6722, Note_off_c, 9, 42, 64
1, 6738, Note_off_c, 2, 70, 64
1, 6738, Note_off_c, 2, 58, 64
1, 6738, Note_off_c, 2, 61, 64
1, 6739, Note_off_c, 2, 65, 64
1, 6745, Note_on_c, 9, 46, 79
1, 6746, Note_off_c, 9, 46, 64
1, 6767, Note_on_c, 2, 58, 64
1, 6768, Note_off_c, 2, 58, 64
1, 6768, Note_on_c, 2, 61, 75
1, 6768, Note_on_c, 9, 42, 73
1, 6769, Note_off_c, 2, 61, 64
1, 6769, Note_on_c, 2, 65, 77
1, 6769, Note_off_c, 9, 42, 64
1, 6770, Note_off_c, 2, 65, 64
1, 6770, Note_on_c, 2, 70, 77
1, 6771, Note_off_c, 2, 70, 64
1, 6784, Note_off_c, 3, 73, 64
1, 6785, Note_off_c, 4, 73, 64
1, 6785, Note_on_c, 4, 75, 101
1, 6786, Note_on_c, 3, 75, 105
1, 6790, Note_on_c, 0, 41, 111
1, 6790, Note_on_c, 6, 41, 95
1, 6790, Note_on_c, 9, 35, 117
1, 6791, Note_off_c, 9, 35, 64
1, 6791, Note_on_c, 9, 42, 73
1, 6792, Note_off_c, 9, 42, 64
1, 6793, Note_on_c, 2, 70, 74
1, 6794, Note_off_c, 2, 70, 64
1, 6794, Note_on_c, 2, 65, 76
1, 6795, Note_off_c, 2, 65, 64
1, 6804, Note_off_c, 6, 41, 64
1, 6807, Note_off_c, 0, 41, 64
1, 6814, Note_on_c, 6, 41, 92
1, 6814, Note_on_c, 9, 38, 120
1, 6815, Note_on_c, 0, 41, 101
1, 6815, Note_off_c, 9, 38, 64
1, 6815, Note_on_c, 9, 42, 81
1, 6816, Note_off_c, 9, 42, 64
1, 6818, Note_on_c, 2, 61, 70
1, 6820, Note_on_c, 2, 65, 72
1, 6836, Note_off_c, 6, 41, 64
1, 6838, Note_on_c, 6, 53, 117
1, 6838, Note_on_c, 6, 49, 112
1, 6839, Note_on_c, 0, 58, 99
1, 6839, Note_on_c, 0, 56, 97
1, 6839, Note_on_c, 0, 61, 102
1, 6839, Note_on_c, 0, 65, 108
1, 6839, Note_on_c, 0, 44, 95
1, 6839, Note_on_c, 9, 35, 127
1, 6839, Note_on_c, 9, 42, 71
1, 6840, Note_off_c, 9, 42, 64
1, 6840, Note_off_c, 9, 35, 64
1, 6841, Note_off_c, 2, 65, 64
1, 6841, Note_off_c, 2, 61, 64
1, 6842, Note_on_c, 2, 58, 69
1, 6842, Note_on_c, 2, 70, 31
1, 6842, Note_on_c, 2, 61, 72
1, 6842, Note_on_c, 2, 65, 80
1, 6846, Note_off_c, 0, 41, 64
1, 6853, Note_off_c, 4, 75, 64
1, 6853, Note_on_c, 4, 77, 103
1, 6856, Note_off_c, 3, 75, 64
1, 6859, Note_on_c, 3, 77, 108
1, 6859, Note_off_c, 6, 49, 64
1, 6861, Note_off_c, 0, 61, 64
1, 6861, Note_off_c, 6, 53, 64
1, 6862, Note_off_c, 0, 58, 64
1, 6862, Note_off_c, 0, 56, 64
1, 6862, Note_off_c, 2, 61, 64
1, 6862, Note_on_c, 9, 42, 79
1, 6863, Note_on_c, 0, 46, 101
1, 6863, Note_off_c, 9, 42, 64
1, 6864, Note_off_c, 0, 65, 64
1, 6865, Note_off_c, 2, 58, 64
1, 6866, Note_off_c, 2, 70, 64
1, 6866, Note_off_c, 2, 65, 64
1, 6872, Note_off_c, 0, 44, 64
1, 6886, Note_on_c, 0, 49, 111
1, 6886, Note_on_c, 9, 42, 75
1, 6887, Note_off_c, 9, 42, 64
1, 6887, Note_on_c, 9, 35, 113
1, 6888, Note_off_c, 0, 46, 64
1, 6888, Note_off_c, 9, 35, 64
1, 6904, Note_off_c, 0, 49, 64
1, 6905, Note_on_c, 2, 59, 30
1, 6907, Note_on_c, 2, 63, 74
1, 6908, Note_on_c, 2, 66, 78
1, 6908, Note_off_c, 3, 77, 64
1, 6909, Note_off_c, 4, 77, 64
1, 6909, Note_on_c, 4, 80, 105
1, 6909, Note_on_c, 6, 59, 75
1, 6910, Note_on_c, 0, 66, 96
1, 6910, Note_on_c, 0, 59, 100
1, 6910, Note_on_c, 0, 63, 108
1, 6910, Note_on_c, 1, 47, 107
1, 6910, Note_on_c, 3, 80, 111
1, 6910, Note_on_c, 6, 63, 90
1, 6910, Note_on_c, 6, 66, 87
1, 6910, Note_on_c, 9, 42, 84
1, 6911, Note_off_c, 9, 42, 64
1, 6911, Note_on_c, 9, 35, 120
1, 6912, Note_off_c, 9, 35, 64
1, 6923, Note_on_c, 2, 71, 50
1, 6933, Note_off_c, 1, 47, 64
1, 6934, Note_on_c, 1, 44, 108
1, 6934, Note_on_c, 9, 42, 71
1, 6935, Note_off_c, 9, 42, 64
1, 6958, Note_off_c, 1, 44, 64
1, 6959, Note_on_c, 1, 42, 105
1, 6959, Note_on_c, 9, 42, 82
1, 6960, Note_off_c, 9, 42, 64
1, 6978, Note_off_c, 2, 71, 64
1, 6979, Note_on_c, 2, 71, 77
1, 6980, Note_off_c, 2, 66, 64
1, 6981, Note_off_c, 2, 63, 64
1, 6981, Note_on_c, 2, 66, 75
1, 6982, Note_on_c, 2, 63, 63
1, 6983, Note_on_c, 9, 35, 115
1, 6984, Note_off_c, 1, 42, 64
1, 6984, Note_off_c, 9, 35, 64
1, 6985, Note_on_c, 1, 39, 110
1, 6985, Note_on_c, 9, 42, 73
1, 6986, Note_off_c, 9, 42, 64
1, 6997, Note_off_c, 6, 59, 64
1, 6998, Note_off_c, 6, 66, 64
1, 6998, Note_off_c, 6, 63, 64
1, 7001, Note_off_c, 0, 63, 64
1, 7001, Note_off_c, 0, 59, 64
1, 7001, Note_off_c, 0, 66, 64
1, 7006, Note_off_c, 2, 63, 64
1, 7007, Note_on_c, 0, 59, 90
1, 7007, Note_on_c, 0, 66, 96
1, 7007, Note_on_c, 6, 66, 84
1, 7007, Note_on_c, 6, 59, 79
1, 7007, Note_on_c, 6, 63, 102
1, 7007, Note_on_c, 9, 38, 118
1, 7008, Note_on_c, 0, 63, 113
1, 7008, Note_off_c, 2, 66, 64
1, 7008, Note_off_c, 2, 71, 64
1, 7008, Note_on_c, 2, 63, 73
1, 7008, Note_off_c, 9, 38, 64
1, 7008, Note_on_c, 9, 42, 81
1, 7009, Note_off_c, 1, 39, 64
1, 7009, Note_on_c, 2, 66, 72
1, 7009, Note_on_c, 2, 71, 78
1, 7009, Note_off_c, 9, 42, 64
1, 7010, Note_on_c, 1, 35, 112
1, 7026, Note_off_c, 0, 63, 64
1, 7026, Note_off_c, 2, 71, 64
1, 7026, Note_off_c, 6, 63, 64
1, 7026, Note_off_c, 6, 59, 64
1, 7027, Note_off_c, 2, 59, 64
1, 7028, Note_off_c, 0, 59, 64
1, 7029, Note_off_c, 0, 66, 64
1, 7029, Note_off_c, 2, 66, 64
1, 7029, Note_off_c, 6, 66, 64
1, 7030, Note_off_c, 2, 63, 64
1, 7033, Note_on_c, 9, 42, 70
1, 7034, Note_off_c, 9, 42, 64
1, 7045, Note_off_c, 1, 35, 64
1, 7049, Note_off_c, 3, 80, 64
1, 7051, Note_on_c, 3, 78, 108
1, 7052, Note_off_c, 4, 80, 64
1, 7052, Note_on_c, 4, 78, 101
1, 7057, Note_on_c, 9, 42, 82
1, 7058, Note_off_c, 9, 42, 64
1, 7076, Note_on_c, 3, 77, 104
1, 7078, Note_off_c, 4, 78, 64
1, 7078, Note_on_c, 4, 77, 91
1, 7079, Note_on_c, 9, 35, 106
1, 7080, Note_off_c, 9, 35, 64
1, 7081, Note_off_c, 3, 78, 64
1, 7082, Note_on_c, 2, 71, 75
1, 7082, Note_on_c, 9, 42, 70
1, 7083, Note_off_c, 9, 42, 64
1, 7084, Note_on_c, 2, 66, 75
1, 7085, Note_on_c, 2, 63, 60
1, 7086, Note_on_c, 2, 59, 30
1, 7099, Note_on_c, 3, 78, 105
1, 7101, Note_off_c, 4, 77, 64
1, 7101, Note_on_c, 4, 78, 99
1, 7102, Note_on_c, 1, 47, 113
1, 7104, Note_off_c, 3, 77, 64
1, 7105, Note_on_c, 9, 35, 125
1, 7106, Note_off_c, 2, 63, 64
1, 7106, Note_off_c, 9, 35, 64
1, 7106, Note_on_c, 9, 42, 80
1, 7107, Note_off_c, 2, 71, 64
1, 7107, Note_off_c, 2, 66, 64
1, 7107, Note_on_c, 2, 63, 72
1, 7107, Note_off_c, 9, 42, 64
1, 7108, Note_on_c, 2, 66, 76
1, 7108, Note_on_c, 2, 71, 79
1, 7126, Note_off_c, 2, 59, 64
1, 7127, Note_off_c, 2, 71, 64
1, 7128, Note_off_c, 2, 66, 64
1, 7129, Note_off_c, 2, 63, 64
1, 7129, Note_on_c, 9, 42, 73
1, 7130, Note_off_c, 9, 42, 64
1, 7134, Note_off_c, 1, 47, 64
1, 7149, Note_on_c, 2, 59, 30
1, 7149, Note_off_c, 3, 78, 64
1, 7150, Note_off_c, 2, 59, 64
1, 7150, Note_on_c, 6, 59, 75
1, 7150, Note_on_c, 6, 66, 88
1, 7151, Note_on_c, 6, 63, 91
1, 7152, Note_on_c, 2, 63, 71
1, 7153, Note_off_c, 2, 63, 64
1, 7153, Note_on_c, 2, 66, 77
1, 7154, Note_off_c, 2, 66, 64
1, 7154, Note_on_c, 2, 71, 80
1, 7154, Note_on_c, 9, 42, 81
1, 7155, Note_off_c, 2, 71, 64
1, 7155, Note_off_c, 9, 42, 64
1, 7166, Note_off_c, 6, 63, 64
1, 7167, Note_off_c, 6, 66, 64
1, 7168, Note_off_c, 6, 59, 64
1, 7174, Note_on_c, 1, 47, 112
1, 7175, Note_on_c, 9, 35, 118
1, 7176, Note_off_c, 9, 35, 64
1, 7177, Note_on_c, 2, 71, 76
1, 7178, Note_off_c, 2, 71, 64
1, 7178, Note_on_c, 2, 66, 74
1, 7178, Note_on_c, 9, 42, 74
1, 7179, Note_off_c, 2, 66, 64
1, 7179, Note_off_c, 9, 42, 64
1, 7197, Note_off_c, 1, 47, 64
1, 7198, Note_on_c, 1, 42, 113
1, 7198, Note_on_c, 9, 38, 120
1, 7199, Note_on_c, 2, 63, 61
1, 7199, Note_off_c, 9, 38, 64
1, 7201, Note_on_c, 2, 66, 79
1, 7201, Note_on_c, 2, 71, 81
1, 7201, Note_on_c, 9, 42, 87
1, 7202, Note_off_c, 9, 42, 64
1, 7203, Note_off_c, 4, 78, 64
1, 7221, Note_off_c, 1, 42, 64
1, 7222, Note_on_c, 1, 44, 112
1, 7223, Note_on_c, 0, 59, 108
1, 7223, Note_off_c, 2, 71, 64
1, 7223, Note_on_c, 9, 35, 125
1, 7223, Note_on_c, 9, 46, 80
1, 7224, Note_on_c, 0, 66, 105
1, 7224, Note_on_c, 0, 63, 113
1, 7224, Note_off_c, 2, 66, 64
1, 7224, Note_on_c, 2, 71, 75
1, 7224, Note_off_c, 9, 46, 64
1, 7224, Note_off_c, 9, 35, 64
1, 7225, Note_off_c, 2, 63, 64
1, 7225, Note_on_c, 6, 59, 73
1, 7225, Note_on_c, 6, 63, 87
1, 7225, Note_on_c, 6, 66, 84
1, 7226, Note_on_c, 2, 66, 73
1, 7226, Note_on_c, 2, 63, 74
1, 7241, Note_off_c, 0, 66, 64
1, 7242, Note_off_c, 0, 63, 64
1, 7243, Note_off_c, 0, 59, 64
1, 7244, Note_off_c, 6, 66, 64
1, 7245, Note_off_c, 6, 63, 64
1, 7245, Note_off_c, 6, 59, 64
1, 7248, Note_on_c, 9, 42, 77
1, 7249, Note_off_c, 9, 42, 64
1, 7251, Note_off_c, 2, 66, 64
1, 7252, Note_off_c, 2, 71, 64
1, 7254, Note_off_c, 2, 63, 64
1, 7270, Note_on_c, 9, 42, 73
1, 7271, Note_off_c, 9, 42, 64
1, 7272, Note_on_c, 9, 35, 115
1, 7273, Note_off_c, 9, 35, 64
1, 7283, Note_off_c, 1, 44, 64
1, 7291, Note_on_c, 2, 59, 53
1, 7293, Note_on_c, 2, 62, 76
1, 7295, Note_on_c, 0, 62, 95
1, 7295, Note_on_c, 0, 59, 93
1, 7295, Note_on_c, 0, 66, 99
1, 7295, Note_on_c, 1, 47, 112
1, 7295, Note_on_c, 2, 66, 59
1, 7295, Note_on_c, 2, 71, 74
1, 7295, Note_on_c, 6, 62, 89
1, 7295, Note_on_c, 6, 59, 87
1, 7295, Note_on_c, 6, 66, 98
1, 7295, Note_on_c, 9, 42, 84
1, 7296, Note_off_c, 9, 42, 64
1, 7297, Note_on_c, 9, 35, 121
1, 7298, Note_off_c, 9, 35, 64
1, 7318, Note_on_c, 9, 46, 73
1, 7319, Note_off_c, 9, 46, 64
1, 7320, Note_off_c, 1, 47, 64
1, 7321, Note_on_c, 1, 44, 108
1, 7343, Note_on_c, 9, 42, 75
1, 7344, Note_off_c, 1, 44, 64
1, 7344, Note_off_c, 9, 42, 64
1, 7345, Note_on_c, 1, 42, 108
1, 7366, Note_on_c, 9, 35, 117
1, 7367, Note_off_c, 2, 71, 64
1, 7367, Note_off_c, 9, 35, 64
1, 7368, Note_off_c, 1, 42, 64
1, 7368, Note_off_c, 2, 66, 64
1, 7368, Note_on_c, 2, 71, 75
1, 7368, Note_on_c, 9, 42, 69
1, 7369, Note_on_c, 1, 38, 109
1, 7369, Note_on_c, 2, 66, 75
1, 7369, Note_off_c, 9, 42, 64
1, 7379, Note_off_c, 0, 59, 64
1, 7379, Note_off_c, 0, 62, 64
1, 7381, Note_off_c, 0, 66, 64
1, 7381, Note_off_c, 6, 59, 64
1, 7382, Note_off_c, 6, 66, 64
1, 7382, Note_off_c, 6, 62, 64
1, 7391, Note_on_c, 0, 66, 97
1, 7391, Note_on_c, 0, 59, 92
1, 7391, Note_on_c, 0, 62, 100
1, 7391, Note_off_c, 2, 59, 64
1, 7391, Note_on_c, 9, 38, 121
1, 7391, Note_on_c, 9, 42, 84
1, 7392, Note_off_c, 1, 38, 64
1, 7392, Note_off_c, 2, 62, 64
1, 7392, Note_off_c, 2, 66, 64
1, 7392, Note_on_c, 2, 59, 55
1, 7392, Note_off_c, 9, 42, 64
1, 7392, Note_off_c, 9, 38, 64
1, 7393, Note_on_c, 1, 35, 119
1, 7393, Note_off_c, 2, 71, 64
1, 7393, Note_on_c, 2, 62, 72
1, 7393, Note_on_c, 2, 66, 76
1, 7393, Note_on_c, 6, 66, 86
1, 7393, Note_on_c, 6, 62, 82
1, 7393, Note_on_c, 6, 59, 81
1, 7395, Note_on_c, 2, 71, 77
1, 7405, Note_off_c, 0, 62, 64
1, 7406, Note_off_c, 0, 59, 64
1, 7406, Note_off_c, 0, 66, 64
1, 7415, Note_on_c, 9, 46, 75
1, 7416, Note_off_c, 2, 71, 64
1, 7416, Note_off_c, 2, 59, 64
1, 7416, Note_off_c, 9, 46, 64
1, 7417, Note_off_c, 2, 66, 64
1, 7417, Note_on_c, 2, 71, 73
1, 7418, Note_off_c, 2, 71, 64
1, 7418, Note_on_c, 2, 66, 75
1, 7419, Note_off_c, 2, 66, 64
1, 7419, Note_off_c, 6, 59, 64
1, 7419, Note_off_c, 6, 62, 64
1, 7419, Note_off_c, 6, 66, 64
1, 7421, Note_off_c, 2, 62, 64
1, 7431, Note_off_c, 1, 35, 64
1, 7439, Note_on_c, 3, 78, 104
1, 7440, Note_on_c, 4, 78, 97
1, 7440, Note_on_c, 4, 74, 100
1, 7441, Note_on_c, 2, 62, 70
1, 7441, Note_on_c, 9, 42, 76
1, 7442, Note_off_c, 2, 62, 64
1, 7442, Note_on_c, 2, 66, 76
1, 7442, Note_off_c, 9, 42, 64
1, 7443, Note_off_c, 2, 66, 64
1, 7443, Note_on_c, 2, 71, 78
1, 7444, Note_off_c, 2, 71, 64
1, 7463, Note_on_c, 9, 35, 109
1, 7464, Note_off_c, 9, 35, 64
1, 7465, Note_on_c, 2, 71, 74
1, 7465, Note_on_c, 9, 42, 80
1, 7466, Note_on_c, 2, 66, 76
1, 7466, Note_off_c, 9, 42, 64
1, 7471, Note_off_c, 3, 78, 64
1, 7479, Note_off_c, 2, 71, 64
1, 7480, Note_off_c, 2, 66, 64
1, 7486, Note_on_c, 1, 47, 115
1, 7487, Note_on_c, 3, 78, 107
1, 7487, Note_off_c, 4, 74, 64
1, 7487, Note_off_c, 4, 78, 64
1, 7488, Note_on_c, 4, 78, 97
1, 7488, Note_on_c, 4, 74, 94
1, 7488, Note_on_c, 9, 35, 127
1, 7489, Note_off_c, 9, 35, 64
1, 7490, Note_on_c, 9, 42, 75
1, 7491, Note_off_c, 9, 42, 64
1, 7512, Note_on_c, 9, 42, 81
1, 7513, Note_off_c, 9, 42, 64
1, 7517, Note_off_c, 1, 47, 64
1, 7534, Note_on_c, 2, 59, 57
1, 7534, Note_on_c, 6, 68, 91
1, 7534, Note_on_c, 6, 62, 85
1, 7535, Note_off_c, 2, 59, 64
1, 7535, Note_on_c, 6, 59, 85
1, 7535, Note_on_c, 9, 42, 71
1, 7536, Note_on_c, 2, 62, 73
1, 7536, Note_off_c, 9, 42, 64
1, 7537, Note_off_c, 2, 62, 64
1, 7537, Note_on_c, 2, 66, 77
1, 7537, Note_on_c, 2, 71, 76
1, 7538, Note_off_c, 2, 71, 64
1, 7538, Note_off_c, 2, 66, 64
1, 7555, Note_off_c, 3, 78, 64
1, 7555, Note_off_c, 6, 59, 64
1, 7557, Note_on_c, 3, 80, 109
1, 7558, Note_on_c, 1, 47, 111
1, 7558, Note_off_c, 6, 62, 64
1, 7558, Note_on_c, 9, 35, 120
1, 7559, Note_off_c, 4, 74, 64
1, 7559, Note_off_c, 6, 68, 64
1, 7559, Note_off_c, 9, 35, 64
1, 7559, Note_on_c, 9, 42, 83
1, 7560, Note_off_c, 4, 78, 64
1, 7560, Note_on_c, 4, 74, 94
1, 7560, Note_on_c, 4, 80, 101
1, 7560, Note_off_c, 9, 42, 64
1, 7561, Note_on_c, 2, 71, 73
1, 7562, Note_off_c, 2, 71, 64
1, 7562, Note_on_c, 2, 66, 64
1, 7563, Note_off_c, 2, 66, 64
1, 7581, Note_off_c, 1, 47, 64
1, 7582, Note_on_c, 1, 42, 110
1, 7582, Note_on_c, 9, 38, 118
1, 7583, Note_on_c, 2, 59, 53
1, 7583, Note_off_c, 9, 38, 64
1, 7583, Note_on_c, 9, 42, 82
1, 7584, Note_on_c, 2, 62, 73
1, 7584, Note_off_c, 9, 42, 64
1, 7586, Note_on_c, 2, 66, 76
1, 7587, Note_on_c, 2, 71, 75
1, 7604, Note_off_c, 3, 80, 64
1, 7605, Note_off_c, 1, 42, 64
1, 7605, Note_on_c, 9, 46, 74
1, 7606, Note_on_c, 1, 44, 111
1, 7606, Note_on_c, 6, 62, 81
1, 7606, Note_on_c, 6, 59, 73
1, 7606, Note_off_c, 9, 46, 64
1, 7606, Note_on_c, 9, 35, 127
1, 7607, Note_on_c, 0, 62, 102
1, 7607, Note_on_c, 0, 59, 104
1, 7607, Note_on_c, 0, 66, 106
1, 7607, Note_off_c, 2, 71, 64
1, 7607, Note_off_c, 4, 74, 64
1, 7607, Note_on_c, 6, 66, 85
1, 7607, Note_off_c, 9, 35, 64
1, 7608, Note_off_c, 2, 66, 64
1, 7608, Note_on_c, 2, 71, 71
1, 7608, Note_on_c, 3, 82, 109
1, 7608, Note_off_c, 4, 80, 64
1, 7608, Note_on_c, 4, 78, 100
1, 7608, Note_on_c, 4, 74, 99
1, 7609, Note_on_c, 2, 66, 75
1, 7621, Note_off_c, 0, 59, 64
1, 7622, Note_off_c, 0, 66, 64
1, 7623, Note_off_c, 0, 62, 64
1, 7631, Note_off_c, 2, 62, 64
1, 7631, Note_on_c, 9, 42, 84
1, 7632, Note_off_c, 6, 59, 64
1, 7632, Note_off_c, 9, 42, 64
1, 7633, Note_off_c, 6, 62, 64
1, 7634, Note_off_c, 2, 59, 64
1, 7635, Note_off_c, 2, 71, 64
1, 7636, Note_off_c, 2, 66, 64
1, 7638, Note_off_c, 6, 66, 64
1, 7648, Note_off_c, 1, 44, 64
1, 7655, Note_on_c, 9, 42, 82
1, 7656, Note_off_c, 9, 42, 64
1, 7656, Note_on_c, 9, 35, 118
1, 7657, Note_off_c, 9, 35, 64
1, 7668, Note_off_c, 4, 74, 64
1, 7668, Note_off_c, 4, 78, 64
1, 7672, Note_off_c, 3, 82, 64
1, 7673, Note_on_c, 2, 58, 30
1, 7674, Note_on_c, 2, 61, 71
1, 7675, Note_on_c, 2, 66, 75
1, 7676, Note_on_c, 2, 70, 79
1, 7678, Note_on_c, 0, 58, 85
1, 7678, Note_on_c, 3, 80, 105
1, 7678, Note_on_c, 6, 61, 92
1, 7678, Note_on_c, 6, 58, 97
1, 7678, Note_on_c, 6, 54, 86
1, 7679, Note_on_c, 0, 61, 97
1, 7679, Note_on_c, 0, 66, 97
1, 7679, Note_on_c, 1, 42, 113
1, 7679, Note_on_c, 9, 42, 80
1, 7680, Note_on_c, 4, 73, 105
1, 7680, Note_on_c, 4, 78, 99
1, 7680, Note_off_c, 9, 42, 64
1, 7681, Note_on_c, 9, 35, 127
1, 7682, Note_off_c, 9, 35, 64
1, 7702, Note_off_c, 1, 42, 64
1, 7703, Note_on_c, 1, 39, 110
1, 7703, Note_on_c, 9, 42, 75
1, 7704, Note_off_c, 9, 42, 64
1, 7725, Note_off_c, 1, 39, 64
1, 7726, Note_on_c, 1, 37, 108
1, 7727, Note_on_c, 9, 42, 73
1, 7728, Note_off_c, 9, 42, 64
1, 7747, Note_off_c, 2, 70, 64
1, 7748, Note_on_c, 2, 70, 75
1, 7749, Note_off_c, 1, 37, 64
1, 7749, Note_off_c, 2, 66, 64
1, 7750, Note_on_c, 1, 34, 113
1, 7750, Note_off_c, 2, 61, 64
1, 7750, Note_on_c, 2, 66, 73
1, 7750, Note_on_c, 9, 35, 118
1, 7751, Note_on_c, 2, 61, 57
1, 7751, Note_off_c, 9, 35, 64
1, 7753, Note_on_c, 9, 42, 82
1, 7754, Note_off_c, 9, 42, 64
1, 7763, Note_off_c, 0, 61, 64
1, 7763, Note_off_c, 0, 58, 64
1, 7764, Note_off_c, 0, 66, 64
1, 7768, Note_off_c, 6, 54, 64
1, 7769, Note_off_c, 6, 58, 64
1, 7770, Note_off_c, 6, 61, 64
1, 7774, Note_on_c, 0, 66, 89
1, 7774, Note_off_c, 1, 34, 64
1, 7775, Note_on_c, 0, 61, 99
1, 7775, Note_on_c, 0, 58, 92
1, 7775, Note_on_c, 1, 30, 114
1, 7775, Note_off_c, 2, 61, 64
1, 7775, Note_on_c, 6, 58, 88
1, 7775, Note_on_c, 6, 61, 87
1, 7775, Note_on_c, 6, 54, 72
1, 7775, Note_on_c, 9, 38, 121
1, 7776, Note_on_c, 2, 61, 75
1, 7776, Note_off_c, 9, 38, 64
1, 7777, Note_off_c, 2, 66, 64
1, 7777, Note_off_c, 2, 70, 64
1, 7777, Note_on_c, 9, 42, 75
1, 7778, Note_on_c, 2, 66, 79
1, 7778, Note_on_c, 2, 70, 81
1, 7778, Note_off_c, 9, 42, 64
1, 7792, Note_off_c, 6, 58, 64
1, 7793, Note_off_c, 6, 54, 64
1, 7795, Note_off_c, 6, 61, 64
1, 7796, Note_off_c, 2, 70, 64
1, 7796, Note_off_c, 2, 61, 64
1, 7797, Note_off_c, 0, 61, 64
1, 7798, Note_off_c, 0, 58, 64
1, 7798, Note_off_c, 2, 66, 64
1, 7798, Note_off_c, 2, 58, 64
1, 7799, Note_off_c, 0, 66, 64
1, 7799, Note_on_c, 9, 42, 76
1, 7800, Note_off_c, 9, 42, 64
1, 7815, Note_off_c, 3, 80, 64
1, 7817, Note_off_c, 1, 30, 64
1, 7821, Note_on_c, 3, 78, 105
1, 7823, Note_off_c, 4, 78, 64
1, 7823, Note_off_c, 4, 73, 64
1, 7823, Note_on_c, 9, 42, 73
1, 7824, Note_on_c, 4, 78, 92
1, 7824, Note_on_c, 4, 73, 97
1, 7824, Note_off_c, 9, 42, 64
1, 7847, Note_on_c, 9, 42, 80
1, 7848, Note_off_c, 9, 42, 64
1, 7849, Note_on_c, 2, 70, 76
1, 7849, Note_on_c, 9, 35, 108
1, 7850, Note_on_c, 2, 66, 75
1, 7850, Note_off_c, 9, 35, 64
1, 7851, Note_on_c, 2, 61, 35
1, 7865, Note_off_c, 3, 78, 64
1, 7870, Note_on_c, 1, 42, 113
1, 7870, Note_on_c, 3, 78, 107
1, 7871, Note_off_c, 4, 73, 64
1, 7871, Note_off_c, 4, 78, 64
1, 7871, Note_on_c, 9, 42, 82
1, 7872, Note_off_c, 2, 61, 64
1, 7872, Note_off_c, 2, 66, 64
1, 7872, Note_off_c, 2, 70, 64
1, 7872, Note_on_c, 4, 73, 93
1, 7872, Note_on_c, 4, 78, 94
1, 7872, Note_off_c, 9, 42, 64
1, 7873, Note_on_c, 2, 58, 64
1, 7873, Note_on_c, 2, 61, 77
1, 7873, Note_on_c, 2, 66, 75
1, 7873, Note_on_c, 2, 70, 77
1, 7874, Note_on_c, 9, 35, 120
1, 7875, Note_off_c, 9, 35, 64
1, 7886, Note_off_c, 2, 70, 64
1, 7889, Note_off_c, 2, 58, 64
1, 7889, Note_off_c, 2, 61, 64
1, 7889, Note_off_c, 2, 66, 64
1, 7894, Note_on_c, 9, 46, 74
1, 7895, Note_off_c, 9, 46, 64
1, 7904, Note_off_c, 1, 42, 64
1, 7910, Note_off_c, 3, 78, 64
1, 7919, Note_on_c, 2, 58, 41
1, 7919, Note_on_c, 9, 42, 73
1, 7920, Note_off_c, 2, 58, 64
1, 7920, Note_off_c, 4, 78, 64
1, 7920, Note_off_c, 4, 73, 64
1, 7920, Note_off_c, 9, 42, 64
1, 7921, Note_on_c, 2, 61, 74
1, 7921, Note_on_c, 2, 66, 74
1, 7922, Note_off_c, 2, 66, 64
1, 7922, Note_off_c, 2, 61, 64
1, 7923, Note_on_c, 2, 70, 79
1, 7924, Note_off_c, 2, 70, 64
1, 7942, Note_on_c, 1, 42, 112
1, 7942, Note_on_c, 9, 35, 117
1, 7942, Note_on_c, 9, 42, 70
1, 7943, Note_off_c, 9, 42, 64
1, 7943, Note_off_c, 9, 35, 64
1, 7944, Note_on_c, 2, 70, 77
1, 7945, Note_off_c, 2, 70, 64
1, 7945, Note_on_c, 2, 66, 75
1, 7946, Note_off_c, 2, 66, 64
1, 7965, Note_off_c, 1, 42, 64
1, 7966, Note_on_c, 1, 37, 109
1, 7966, Note_on_c, 9, 42, 80
1, 7967, Note_on_c, 2, 61, 73
1, 7967, Note_on_c, 2, 66, 75
1, 7967, Note_on_c, 6, 61, 94
1, 7967, Note_on_c, 6, 58, 98
1, 7967, Note_on_c, 6, 54, 80
1, 7967, Note_off_c, 9, 42, 64
1, 7968, Note_on_c, 9, 38, 113
1, 7969, Note_on_c, 2, 70, 80
1, 7969, Note_off_c, 9, 38, 64
1, 7989, Note_off_c, 1, 37, 64
1, 7989, Note_off_c, 6, 61, 64
1, 7989, Note_on_c, 6, 63, 79
1, 7990, Note_on_c, 1, 39, 115
1, 7990, Note_off_c, 2, 70, 64
1, 7990, Note_on_c, 9, 42, 70
1, 7991, Note_on_c, 0, 66, 105
1, 7991, Note_on_c, 0, 61, 105
1, 7991, Note_on_c, 0, 58, 95
1, 7991, Note_on_c, 2, 70, 75
1, 7991, Note_off_c, 9, 42, 64
1, 7992, Note_off_c, 2, 66, 64
1, 7992, Note_on_c, 9, 35, 123
1, 7993, Note_on_c, 2, 66, 73
1, 7993, Note_off_c, 9, 35, 64
1, 8006, Note_off_c, 6, 58, 64
1, 8007, Note_off_c, 6, 54, 64
1, 8009, Note_off_c, 0, 61, 64
1, 8010, Note_off_c, 2, 61, 64
1, 8011, Note_off_c, 0, 58, 64
1, 8012, Note_off_c, 0, 66, 64
1, 8012, Note_off_c, 2, 70, 64
1, 8014, Note_off_c, 2, 66, 64
1, 8014, Note_on_c, 9, 42, 78
1, 8015, Note_off_c, 9, 42, 64
1, 8016, Note_off_c, 6, 63, 64
1, 8036, Note_off_c, 1, 39, 64
1, 8038, Note_on_c, 9, 42, 72
1, 8039, Note_off_c, 9, 42, 64
1, 8040, Note_on_c, 9, 35, 123
1, 8041, Note_off_c, 9, 35, 64
1, 8059, Note_on_c, 2, 58, 60
1, 8060, Note_on_c, 2, 61, 73
1, 8061, Note_on_c, 2, 66, 75
1, 8062, Note_on_c, 2, 70, 75
1, 8062, Note_on_c, 9, 42, 83
1, 8063, Note_on_c, 0, 58, 91
1, 8063, Note_on_c, 0, 61, 102
1, 8063, Note_on_c, 0, 66, 101
1, 8063, Note_on_c, 1, 42, 112
1, 8063, Note_on_c, 6, 58, 95
1, 8063, Note_off_c, 9, 42, 64
1, 8064, Note_on_c, 6, 61, 94
1, 8064, Note_on_c, 6, 54, 80
1, 8066, Note_on_c, 9, 35, 125
1, 8067, Note_off_c, 9, 35, 64
1, 8085, Note_off_c, 2, 70, 64
1, 8085, Note_on_c, 9, 46, 75
1, 8086, Note_off_c, 2, 66, 64
1, 8086, Note_on_c, 2, 70, 75
1, 8086, Note_off_c, 9, 46, 64
1, 8087, Note_off_c, 1, 42, 64
1, 8087, Note_on_c, 2, 66, 74
1, 8088, Note_on_c, 1, 39, 106
1, 8107, Note_off_c, 2, 61, 64
1, 8108, Note_on_c, 2, 61, 55
1, 8109, Note_off_c, 2, 66, 64
1, 8110, Note_off_c, 1, 39, 64
1, 8110, Note_off_c, 2, 70, 64
1, 8110, Note_on_c, 2, 66, 72
1, 8110, Note_on_c, 9, 42, 73
1, 8111, Note_on_c, 1, 37, 108
1, 8111, Note_on_c, 2, 70, 77
1, 8111, Note_off_c, 9, 42, 64
1, 8133, Note_off_c, 2, 70, 64
1, 8134, Note_off_c, 1, 37, 64
1, 8134, Note_off_c, 2, 66, 64
1, 8134, Note_on_c, 2, 70, 75
1, 8134, Note_on_c, 9, 35, 110
1, 8134, Note_on_c, 9, 42, 72
1, 8135, Note_on_c, 1, 34, 112
1, 8135, Note_on_c, 2, 66, 63
1, 8135, Note_off_c, 9, 42, 64
1, 8135, Note_off_c, 9, 35, 64
1, 8149, Note_off_c, 0, 66, 64
1, 8150, Note_off_c, 0, 61, 64
1, 8150, Note_off_c, 0, 58, 64
1, 8151, Note_off_c, 6, 54, 64
1, 8151, Note_off_c, 6, 58, 64
1, 8152, Note_off_c, 6, 61, 64
1, 8157, Note_off_c, 2, 61, 64
1, 8158, Note_on_c, 2, 61, 70
1, 8158, Note_on_c, 9, 42, 84
1, 8159, Note_off_c, 1, 34, 64
1, 8159, Note_off_c, 2, 66, 64
1, 8159, Note_off_c, 9, 42, 64
1, 8159, Note_on_c, 9, 38, 118
1, 8160, Note_on_c, 1, 30, 112
1, 8160, Note_on_c, 2, 66, 75
1, 8160, Note_off_c, 9, 38, 64
1, 8161, Note_on_c, 0, 66, 99
1, 8161, Note_on_c, 0, 58, 98
1, 8161, Note_on_c, 0, 61, 108
1, 8161, Note_off_c, 2, 70, 64
1, 8161, Note_on_c, 6, 54, 73
1, 8161, Note_on_c, 6, 61, 87
1, 8161, Note_on_c, 6, 58, 91
1, 8162, Note_on_c, 2, 70, 54
1, 8177, Note_off_c, 0, 61, 64
1, 8177, Note_off_c, 6, 58, 64
1, 8178, Note_off_c, 6, 54, 64
1, 8179, Note_off_c, 6, 61, 64
1, 8180, Note_off_c, 0, 66, 64
1, 8181, Note_off_c, 2, 61, 64
1, 8181, Note_off_c, 2, 58, 64
1, 8182, Note_off_c, 0, 58, 64
1, 8182, Note_off_c, 2, 66, 64
1, 8182, Note_off_c, 2, 70, 64
1, 8182, Note_on_c, 2, 58, 68
1, 8182, Note_on_c, 2, 61, 75
1, 8183, Note_off_c, 2, 61, 64
1, 8183, Note_off_c, 2, 58, 64
1, 8183, Note_on_c, 2, 66, 72
1, 8183, Note_on_c, 9, 46, 79
1, 8184, Note_off_c, 2, 66, 64
1, 8184, Note_off_c, 9, 46, 64
1, 8185, Note_on_c, 2, 70, 71
1, 8186, Note_off_c, 2, 70, 64
1, 8193, Note_off_c, 1, 30, 64
1, 8207, Note_on_c, 9, 42, 77
1, 8208, Note_off_c, 9, 42, 64
1, 8228, Note_on_c, 3, 78, 101
1, 8231, Note_on_c, 9, 35, 120
1, 8231, Note_on_c, 9, 42, 72
1, 8232, Note_on_c, 4, 78, 92
1, 8232, Note_on_c, 4, 70, 101
1, 8232, Note_off_c, 9, 42, 64
1, 8232, Note_off_c, 9, 35, 64
1, 8234, Note_on_c, 2, 70, 75
1, 8235, Note_off_c, 2, 70, 64
1, 8235, Note_on_c, 2, 66, 74
1, 8235, Note_on_c, 2, 61, 54
1, 8236, Note_off_c, 2, 61, 64
1, 8236, Note_off_c, 2, 66, 64
1, 8248, Note_off_c, 3, 78, 64
1, 8250, Note_on_c, 3, 82, 107
1, 8254, Note_on_c, 1, 42, 112
1, 8254, Note_on_c, 9, 42, 80
1, 8255, Note_on_c, 2, 58, 30
1, 8255, Note_off_c, 4, 78, 64
1, 8255, Note_off_c, 9, 42, 64
1, 8256, Note_off_c, 4, 70, 64
1, 8256, Note_on_c, 4, 73, 98
1, 8256, Note_on_c, 4, 78, 93
1, 8257, Note_on_c, 2, 61, 73
1, 8257, Note_on_c, 9, 35, 127
1, 8258, Note_on_c, 2, 66, 77
1, 8258, Note_off_c, 9, 35, 64
1, 8260, Note_on_c, 2, 70, 70
1, 8271, Note_off_c, 2, 58, 64
1, 8276, Note_off_c, 2, 61, 64
1, 8276, Note_off_c, 2, 66, 64
1, 8276, Note_off_c, 3, 82, 64
1, 8278, Note_on_c, 9, 42, 73
1, 8279, Note_off_c, 2, 70, 64
1, 8279, Note_on_c, 3, 82, 100
1, 8279, Note_off_c, 4, 78, 64
1, 8279, Note_off_c, 9, 42, 64
1, 8280, Note_off_c, 4, 73, 64
1, 8280, Note_on_c, 4, 75, 97
1, 8280, Note_on_c, 4, 78, 90
1, 8290, Note_off_c, 1, 42, 64
1, 8302, Note_on_c, 9, 42, 76
1, 8303, Note_off_c, 9, 42, 64
1, 8304, Note_on_c, 2, 58, 55
1, 8305, Note_off_c, 2, 58, 64
1, 8305, Note_on_c, 2, 61, 72
1, 8306, Note_off_c, 2, 61, 64
1, 8306, Note_on_c, 2, 66, 76
1, 8307, Note_off_c, 2, 66, 64
1, 8307, Note_on_c, 2, 70, 75
1, 8308, Note_off_c, 2, 70, 64
1, 8326, Note_on_c, 1, 42, 110
1, 8326, Note_on_c, 9, 42, 72
1, 8327, Note_off_c, 9, 42, 64
1, 8327, Note_on_c, 9, 35, 118
1, 8328, Note_on_c, 2, 70, 74
1, 8328, Note_off_c, 3, 82, 64
1, 8328, Note_off_c, 4, 78, 64
1, 8328, Note_off_c, 4, 75, 64
1, 8328, Note_on_c, 4, 73, 103
1, 8328, Note_on_c, 4, 77, 92
1, 8328, Note_on_c, 4, 80, 95
1, 8328, Note_off_c, 9, 35, 64
1, 8329, Note_off_c, 2, 70, 64
1, 8330, Note_on_c, 2, 66, 74
1, 8330, Note_on_c, 3, 80, 108
1, 8331, Note_off_c, 2, 66, 64
1, 8349, Note_on_c, 2, 58, 52
1, 8350, Note_off_c, 1, 42, 64
1, 8350, Note_on_c, 9, 42, 81
1, 8351, Note_on_c, 1, 37, 112
1, 8351, Note_on_c, 2, 61, 70
1, 8351, Note_off_c, 9, 42, 64
1, 8351, Note_on_c, 9, 38, 116
1, 8352, Note_on_c, 2, 66, 73
1, 8352, Note_on_c, 6, 61, 95
1, 8352, Note_off_c, 9, 38, 64
1, 8353, Note_on_c, 6, 58, 98
1, 8353, Note_on_c, 6, 54, 81
1, 8354, Note_on_c, 2, 70, 76
1, 8372, Note_off_c, 6, 61, 64
1, 8374, Note_off_c, 1, 37, 64
1, 8374, Note_off_c, 3, 80, 64
1, 8374, Note_on_c, 9, 42, 75
1, 8375, Note_on_c, 0, 58, 102
1, 8375, Note_on_c, 1, 39, 112
1, 8375, Note_off_c, 4, 73, 64
1, 8375, Note_on_c, 6, 63, 71
1, 8375, Note_off_c, 9, 42, 64
1, 8376, Note_on_c, 0, 61, 113
1, 8376, Note_on_c, 0, 66, 106
1, 8376, Note_off_c, 2, 70, 64
1, 8376, Note_off_c, 2, 66, 64
1, 8376, Note_off_c, 2, 61, 64
1, 8376, Note_off_c, 4, 80, 64
1, 8376, Note_off_c, 4, 77, 64
1, 8376, Note_on_c, 4, 70, 95
1, 8376, Note_on_c, 4, 73, 92
1, 8376, Note_on_c, 4, 78, 95
1, 8377, Note_on_c, 2, 66, 77
1, 8377, Note_on_c, 2, 61, 70
1, 8377, Note_on_c, 3, 78, 105
1, 8377, Note_on_c, 9, 35, 127
1, 8378, Note_off_c, 9, 35, 64
1, 8382, Note_on_c, 2, 70, 70
1, 8386, Note_off_c, 0, 61, 64
1, 8387, Note_off_c, 0, 66, 64
1, 8387, Note_off_c, 0, 58, 64
1, 8393, Note_off_c, 6, 54, 64
1, 8393, Note_off_c, 6, 58, 64
1, 8398, Note_off_c, 6, 63, 64
1, 8398, Note_on_c, 9, 42, 77
1, 8399, Note_off_c, 2, 61, 64
1, 8399, Note_off_c, 9, 42, 64
1, 8402, Note_off_c, 2, 70, 64
1, 8404, Note_off_c, 2, 58, 64
1, 8407, Note_off_c, 2, 66, 64
1, 8410, Note_off_c, 3, 78, 64
1, 8412, Note_off_c, 1, 39, 64
1, 8422, Note_on_c, 9, 42, 75
1, 8423, Note_off_c, 9, 42, 64
1, 8424, Note_off_c, 4, 78, 64
1, 8424, Note_off_c, 4, 73, 64
1, 8424, Note_off_c, 4, 70, 64
1, 8425, Note_on_c, 9, 35, 114
1, 8426, Note_off_c, 9, 35, 64
1, 8441, Note_on_c, 2, 59, 60
1, 8442, Note_on_c, 2, 68, 58
1, 8444, Note_on_c, 2, 63, 77
1, 8446, Note_on_c, 0, 66, 91
1, 8446, Note_on_c, 2, 71, 83
1, 8446, Note_on_c, 9, 42, 83
1, 8447, Note_on_c, 0, 56, 87
1, 8447, Note_on_c, 0, 59, 93
1, 8447, Note_on_c, 0, 63, 96
1, 8447, Note_on_c, 6, 59, 85
1, 8447, Note_on_c, 6, 56, 92
1, 8447, Note_on_c, 6, 54, 78
1, 8447, Note_off_c, 9, 42, 64
1, 8448, Note_on_c, 4, 78, 110
1, 8448, Note_on_c, 4, 75, 101
1, 8449, Note_on_c, 1, 44, 117
1, 8449, Note_on_c, 9, 35, 123
1, 8450, Note_on_c, 3, 82, 105
1, 8450, Note_off_c, 9, 35, 64
1, 8468, Note_off_c, 2, 71, 64
1, 8469, Note_off_c, 2, 68, 64
1, 8469, Note_on_c, 2, 71, 79
1, 8470, Note_on_c, 2, 68, 73
1, 8470, Note_on_c, 9, 42, 69
1, 8471, Note_off_c, 9, 42, 64
1, 8481, Note_off_c, 1, 44, 64
1, 8490, Note_off_c, 2, 63, 64
1, 8492, Note_off_c, 2, 68, 64
1, 8493, Note_on_c, 2, 63, 57
1, 8494, Note_off_c, 2, 71, 64
1, 8495, Note_on_c, 2, 71, 79
1, 8495, Note_on_c, 9, 42, 79
1, 8496, Note_on_c, 2, 68, 75
1, 8496, Note_off_c, 9, 42, 64
1, 8516, Note_off_c, 2, 71, 64
1, 8517, Note_off_c, 2, 68, 64
1, 8517, Note_on_c, 2, 71, 79
1, 8518, Note_on_c, 1, 44, 112
1, 8518, Note_on_c, 2, 68, 66
1, 8518, Note_on_c, 9, 42, 70
1, 8519, Note_off_c, 9, 42, 64
1, 8520, Note_on_c, 9, 35, 121
1, 8521, Note_off_c, 9, 35, 64
1, 8532, Note_off_c, 0, 63, 64
1, 8533, Note_off_c, 0, 59, 64
1, 8533, Note_off_c, 0, 56, 64
1, 8533, Note_off_c, 6, 56, 64
1, 8533, Note_off_c, 6, 59, 64
1, 8535, Note_off_c, 0, 66, 64
1, 8535, Note_off_c, 6, 54, 64
1, 8541, Note_off_c, 2, 63, 64
1, 8542, Note_off_c, 1, 44, 64
1, 8542, Note_off_c, 2, 71, 64
1, 8542, Note_on_c, 2, 63, 77
1, 8543, Note_on_c, 0, 66, 91
1, 8543, Note_on_c, 1, 39, 108
1, 8543, Note_off_c, 2, 68, 64
1, 8543, Note_on_c, 9, 42, 87
1, 8544, Note_on_c, 0, 59, 96
1, 8544, Note_on_c, 0, 63, 96
1, 8544, Note_on_c, 6, 59, 89
1, 8544, Note_on_c, 6, 56, 92
1, 8544, Note_on_c, 6, 54, 73
1, 8544, Note_off_c, 9, 42, 64
1, 8545, Note_on_c, 0, 56, 91
1, 8545, Note_on_c, 2, 68, 73
1, 8545, Note_on_c, 2, 71, 83
1, 8545, Note_on_c, 9, 38, 118
1, 8546, Note_off_c, 9, 38, 64
1, 8566, Note_on_c, 9, 46, 79
1, 8567, Note_off_c, 0, 59, 64
1, 8567, Note_off_c, 2, 71, 64
1, 8567, Note_off_c, 9, 46, 64
1, 8568, Note_off_c, 2, 68, 64
1, 8568, Note_on_c, 2, 71, 81
1, 8569, Note_off_c, 0, 56, 64
1, 8569, Note_off_c, 0, 63, 64
1, 8569, Note_off_c, 1, 39, 64
1, 8569, Note_on_c, 2, 68, 77
1, 8570, Note_on_c, 1, 42, 108
1, 8570, Note_off_c, 6, 54, 64
1, 8570, Note_off_c, 6, 56, 64
1, 8570, Note_off_c, 6, 59, 64
1, 8573, Note_off_c, 0, 66, 64
1, 8583, Note_off_c, 2, 59, 64
1, 8585, Note_off_c, 2, 68, 64
1, 8586, Note_off_c, 2, 71, 64
1, 8586, Note_off_c, 2, 63, 64
1, 8587, Note_off_c, 3, 82, 64
1, 8589, Note_on_c, 3, 80, 103
1, 8591, Note_off_c, 4, 75, 64
1, 8591, Note_off_c, 4, 78, 64
1, 8592, Note_on_c, 4, 75, 100
1, 8592, Note_on_c, 4, 78, 97
1, 8593, Note_on_c, 9, 42, 76
1, 8594, Note_off_c, 9, 42, 64
1, 8604, Note_off_c, 1, 42, 64
1, 8612, Note_off_c, 3, 80, 64
1, 8614, Note_on_c, 9, 35, 113
1, 8615, Note_on_c, 2, 71, 84
1, 8615, Note_on_c, 3, 80, 105
1, 8615, Note_off_c, 4, 78, 64
1, 8615, Note_off_c, 4, 75, 64
1, 8615, Note_off_c, 9, 35, 64
1, 8615, Note_on_c, 9, 42, 82
1, 8616, Note_off_c, 2, 71, 64
1, 8616, Note_on_c, 2, 68, 79
1, 8616, Note_on_c, 4, 75, 100
1, 8616, Note_on_c, 4, 78, 96
1, 8616, Note_off_c, 9, 42, 64
1, 8617, Note_off_c, 2, 68, 64
1, 8618, Note_on_c, 2, 63, 53
1, 8619, Note_off_c, 2, 63, 64
1, 8638, Note_on_c, 1, 44, 113
1, 8639, Note_on_c, 2, 59, 66
1, 8639, Note_on_c, 2, 63, 76
1, 8639, Note_on_c, 2, 68, 75
1, 8640, Note_on_c, 9, 35, 120
1, 8640, Note_on_c, 9, 42, 87
1, 8641, Note_on_c, 2, 71, 74
1, 8641, Note_off_c, 9, 42, 64
1, 8641, Note_off_c, 9, 35, 64
1, 8652, Note_off_c, 4, 78, 64
1, 8652, Note_off_c, 4, 75, 64
1, 8653, Note_off_c, 3, 80, 64
1, 8655, Note_off_c, 2, 63, 64
1, 8657, Note_off_c, 2, 71, 64
1, 8657, Note_off_c, 2, 68, 64
1, 8658, Note_off_c, 2, 59, 64
1, 8663, Note_on_c, 9, 46, 82
1, 8664, Note_off_c, 9, 46, 64
1, 8672, Note_off_c, 1, 44, 64
1, 8686, Note_on_c, 2, 59, 41
1, 8686, Note_on_c, 2, 63, 74
1, 8686, Note_on_c, 2, 71, 44
1, 8686, Note_on_c, 6, 54, 83
1, 8686, Note_on_c, 6, 59, 95
1, 8686, Note_on_c, 6, 56, 98
1, 8687, Note_off_c, 2, 71, 64
1, 8687, Note_off_c, 2, 63, 64
1, 8687, Note_off_c, 2, 59, 64
1, 8687, Note_on_c, 2, 68, 76
1, 8687, Note_on_c, 9, 42, 77
1, 8688, Note_off_c, 2, 68, 64
1, 8688, Note_off_c, 9, 42, 64
1, 8705, Note_off_c, 6, 56, 64
1, 8706, Note_off_c, 6, 59, 64
1, 8709, Note_off_c, 6, 54, 64
1, 8710, Note_on_c, 1, 44, 112
1, 8711, Note_on_c, 9, 42, 77
1, 8712, Note_on_c, 2, 71, 83
1, 8712, Note_off_c, 9, 42, 64
1, 8712, Note_on_c, 9, 35, 115
1, 8713, Note_off_c, 2, 71, 64
1, 8713, Note_on_c, 2, 68, 79
1, 8713, Note_off_c, 9, 35, 64
1, 8714, Note_off_c, 2, 68, 64
1, 8733, Note_off_c, 1, 44, 64
1, 8733, Note_on_c, 2, 63, 70
1, 8734, Note_on_c, 1, 39, 110
1, 8734, Note_on_c, 9, 42, 79
1, 8735, Note_on_c, 2, 68, 73
1, 8735, Note_off_c, 9, 42, 64
1, 8736, Note_on_c, 2, 71, 81
1, 8736, Note_on_c, 9, 38, 115
1, 8737, Note_off_c, 9, 38, 64
1, 8757, Note_off_c, 1, 39, 64
1, 8758, Note_on_c, 1, 42, 115
1, 8758, Note_on_c, 6, 59, 95
1, 8758, Note_on_c, 6, 54, 80
1, 8758, Note_on_c, 6, 56, 92
1, 8759, Note_on_c, 0, 59, 95
1, 8759, Note_on_c, 0, 66, 98
1, 8759, Note_on_c, 0, 56, 90
1, 8759, Note_on_c, 0, 63, 94
1, 8759, Note_off_c, 2, 71, 64
1, 8759, Note_off_c, 2, 68, 64
1, 8759, Note_on_c, 9, 46, 79
1, 8760, Note_on_c, 2, 71, 78
1, 8760, Note_on_c, 2, 68, 76
1, 8760, Note_off_c, 9, 46, 64
1, 8761, Note_on_c, 9, 35, 125
1, 8762, Note_off_c, 9, 35, 64
1, 8772, Note_off_c, 0, 63, 64
1, 8773, Note_off_c, 0, 56, 64
1, 8773, Note_off_c, 0, 59, 64
1, 8776, Note_off_c, 0, 66, 64
1, 8777, Note_off_c, 6, 56, 64
1, 8778, Note_off_c, 6, 59, 64
1, 8779, Note_off_c, 6, 54, 64
1, 8783, Note_on_c, 9, 42, 82
1, 8784, Note_off_c, 2, 63, 64
1, 8784, Note_off_c, 9, 42, 64
1, 8785, Note_off_c, 2, 71, 64
1, 8788, Note_off_c, 2, 68, 64
1, 8801, Note_off_c, 1, 42, 64
1, 8807, Note_on_c, 9, 42, 73
1, 8808, Note_off_c, 9, 42, 64
1, 8809, Note_on_c, 9, 35, 111
1, 8810, Note_off_c, 9, 35, 64
1, 8827, Note_on_c, 2, 59, 30
1, 8829, Note_on_c, 2, 63, 71
1, 8830, Note_on_c, 1, 44, 109
1, 8830, Note_on_c, 6, 56, 95
1, 8831, Note_on_c, 0, 59, 96
1, 8831, Note_on_c, 0, 66, 97
1, 8831, Note_on_c, 0, 56, 91
1, 8831, Note_on_c, 0, 63, 101
1, 8831, Note_on_c, 6, 54, 81
1, 8831, Note_on_c, 6, 59, 101
1, 8832, Note_on_c, 2, 68, 72
1, 8832, Note_on_c, 2, 71, 81
1, 8832, Note_on_c, 9, 42, 84
1, 8833, Note_off_c, 9, 42, 64
1, 8834, Note_on_c, 9, 35, 121
1, 8835, Note_off_c, 9, 35, 64
1, 8853, Note_off_c, 2, 71, 64
1, 8854, Note_off_c, 2, 68, 64
1, 8854, Note_on_c, 2, 71, 79
1, 8855, Note_on_c, 2, 68, 75
1, 8855, Note_on_c, 9, 46, 80
1, 8856, Note_off_c, 9, 46, 64
1, 8874, Note_off_c, 1, 44, 64
1, 8880, Note_on_c, 9, 42, 83
1, 8881, Note_off_c, 9, 42, 64
1, 8902, Note_on_c, 1, 44, 110
1, 8903, Note_on_c, 9, 35, 110
1, 8904, Note_off_c, 9, 35, 64
1, 8904, Note_on_c, 9, 42, 73
1, 8905, Note_off_c, 9, 42, 64
1, 8911, Note_off_c, 0, 63, 64
1, 8912, Note_off_c, 0, 56, 64
1, 8912, Note_off_c, 0, 66, 64
1, 8913, Note_off_c, 0, 59, 64
1, 8914, Note_off_c, 6, 59, 64
1, 8915, Note_off_c, 6, 54, 64
1, 8915, Note_off_c, 6, 56, 64
1, 8925, Note_off_c, 1, 44, 64
1, 8926, Note_on_c, 0, 66, 87
1, 8926, Note_on_c, 0, 56, 88
1, 8926, Note_on_c, 1, 39, 106
1, 8927, Note_on_c, 0, 59, 90
1, 8927, Note_on_c, 0, 63, 101
1, 8927, Note_on_c, 6, 54, 73
1, 8927, Note_on_c, 6, 59, 89
1, 8927, Note_on_c, 6, 56, 90
1, 8927, Note_on_c, 9, 42, 84
1, 8928, Note_off_c, 9, 42, 64
1, 8928, Note_on_c, 9, 38, 118
1, 8929, Note_off_c, 9, 38, 64
1, 8945, Note_off_c, 0, 63, 64
1, 8945, Note_off_c, 0, 59, 64
1, 8948, Note_off_c, 0, 56, 64
1, 8948, Note_off_c, 0, 66, 64
1, 8949, Note_off_c, 1, 39, 64
1, 8950, Note_on_c, 1, 42, 114
1, 8950, Note_on_c, 9, 46, 74
1, 8951, Note_off_c, 6, 56, 64
1, 8951, Note_off_c, 9, 46, 64
1, 8952, Note_off_c, 6, 59, 64
1, 8954, Note_off_c, 6, 54, 64
1, 8972, Note_on_c, 3, 78, 106
1, 8975, Note_on_c, 9, 42, 79
1, 8976, Note_off_c, 2, 63, 64
1, 8976, Note_on_c, 4, 75, 111
1, 8976, Note_on_c, 4, 78, 94
1, 8976, Note_off_c, 9, 42, 64
1, 8977, Note_off_c, 2, 68, 64
1, 8977, Note_on_c, 2, 63, 51
1, 8978, Note_on_c, 2, 68, 71
1, 8979, Note_off_c, 2, 71, 64
1, 8980, Note_on_c, 2, 71, 81
1, 8994, Note_off_c, 1, 42, 64
1, 8998, Note_on_c, 9, 35, 106
1, 8999, Note_off_c, 2, 71, 64
1, 8999, Note_off_c, 9, 35, 64
1, 8999, Note_on_c, 9, 42, 69
1, 9000, Note_off_c, 2, 68, 64
1, 9000, Note_on_c, 2, 71, 81
1, 9000, Note_off_c, 9, 42, 64
1, 9001, Note_on_c, 2, 68, 70
1, 9017, Note_off_c, 3, 78, 64
1, 9022, Note_off_c, 2, 59, 64
1, 9022, Note_on_c, 3, 82, 110
1, 9023, Note_off_c, 2, 63, 64
1, 9023, Note_off_c, 2, 71, 64
1, 9023, Note_off_c, 2, 68, 64
1, 9023, Note_on_c, 2, 59, 70
1, 9023, Note_off_c, 4, 78, 64
1, 9023, Note_off_c, 4, 75, 64
1, 9023, Note_on_c, 9, 35, 120
1, 9023, Note_on_c, 9, 42, 83
1, 9024, Note_on_c, 1, 44, 113
1, 9024, Note_on_c, 2, 63, 79
1, 9024, Note_on_c, 4, 75, 107
1, 9024, Note_on_c, 4, 78, 100
1, 9024, Note_off_c, 9, 42, 64
1, 9024, Note_off_c, 9, 35, 64
1, 9026, Note_on_c, 2, 68, 53
1, 9026, Note_on_c, 2, 71, 80
1, 9042, Note_off_c, 2, 71, 64
1, 9044, Note_off_c, 2, 59, 64
1, 9045, Note_off_c, 2, 68, 64
1, 9045, Note_off_c, 2, 63, 64
1, 9047, Note_on_c, 9, 46, 75
1, 9048, Note_off_c, 9, 46, 64
1, 9061, Note_off_c, 1, 44, 64
1, 9070, Note_on_c, 2, 59, 52
1, 9070, Note_on_c, 6, 59, 107
1, 9070, Note_on_c, 6, 54, 84
1, 9070, Note_on_c, 6, 56, 97
1, 9071, Note_off_c, 2, 59, 64
1, 9071, Note_on_c, 2, 63, 73
1, 9071, Note_on_c, 2, 68, 76
1, 9071, Note_on_c, 9, 42, 77
1, 9072, Note_off_c, 2, 68, 64
1, 9072, Note_off_c, 2, 63, 64
1, 9072, Note_off_c, 9, 42, 64
1, 9073, Note_on_c, 2, 71, 80
1, 9074, Note_off_c, 2, 71, 64
1, 9088, Note_off_c, 3, 82, 64
1, 9089, Note_on_c, 3, 80, 105
1, 9091, Note_off_c, 6, 56, 64
1, 9091, Note_off_c, 6, 59, 64
1, 9094, Note_on_c, 1, 44, 109
1, 9094, Note_on_c, 2, 71, 81
1, 9095, Note_off_c, 2, 71, 64
1, 9095, Note_on_c, 2, 68, 74
1, 9095, Note_off_c, 4, 75, 64
1, 9095, Note_off_c, 6, 54, 64
1, 9095, Note_on_c, 9, 35, 118
1, 9096, Note_off_c, 2, 68, 64
1, 9096, Note_off_c, 4, 78, 64
1, 9096, Note_on_c, 4, 77, 100
1, 9096, Note_on_c, 4, 75, 111
1, 9096, Note_off_c, 9, 35, 64
1, 9096, Note_on_c, 9, 42, 79
1, 9097, Note_off_c, 9, 42, 64
1, 9116, Note_on_c, 2, 59, 49
1, 9116, Note_on_c, 2, 63, 73
1, 9117, Note_off_c, 1, 44, 64
1, 9117, Note_on_c, 2, 68, 74
1, 9118, Note_on_c, 1, 39, 105
1, 9118, Note_on_c, 2, 71, 80
1, 9119, Note_on_c, 9, 38, 118
1, 9119, Note_on_c, 9, 42, 79
1, 9120, Note_off_c, 9, 42, 64
1, 9120, Note_off_c, 9, 38, 64
1, 9139, Note_off_c, 2, 71, 64
1, 9140, Note_off_c, 2, 68, 64
1, 9140, Note_on_c, 2, 71, 79
1, 9141, Note_on_c, 2, 68, 74
1, 9142, Note_on_c, 0, 59, 108
1, 9142, Note_off_c, 1, 39, 64
1, 9143, Note_on_c, 0, 66, 105
1, 9143, Note_on_c, 0, 56, 99
1, 9143, Note_on_c, 0, 63, 105
1, 9143, Note_on_c, 1, 42, 115
1, 9143, Note_on_c, 6, 59, 104
1, 9143, Note_on_c, 6, 56, 100
1, 9143, Note_on_c, 6, 54, 90
1, 9143, Note_on_c, 9, 35, 123
1, 9143, Note_on_c, 9, 46, 77
1, 9144, Note_off_c, 9, 46, 64
1, 9144, Note_off_c, 9, 35, 64
1, 9153, Note_off_c, 0, 56, 64
1, 9153, Note_off_c, 0, 59, 64
1, 9155, Note_off_c, 0, 63, 64
1, 9158, Note_off_c, 3, 80, 64
1, 9159, Note_off_c, 0, 66, 64
1, 9161, Note_on_c, 3, 78, 108
1, 9162, Note_off_c, 6, 56, 64
1, 9162, Note_off_c, 6, 59, 64
1, 9163, Note_off_c, 2, 71, 64
1, 9164, Note_off_c, 6, 54, 64
1, 9166, Note_off_c, 2, 68, 64
1, 9166, Note_off_c, 2, 59, 64
1, 9167, Note_off_c, 2, 63, 64
1, 9167, Note_off_c, 4, 75, 64
1, 9167, Note_on_c, 9, 42, 79
1, 9168, Note_off_c, 4, 77, 64
1, 9168, Note_on_c, 4, 75, 111
1, 9168, Note_on_c, 4, 78, 103
1, 9168, Note_off_c, 9, 42, 64
1, 9180, Note_off_c, 1, 42, 64
1, 9191, Note_on_c, 9, 42, 72
1, 9192, Note_off_c, 9, 42, 64
1, 9192, Note_on_c, 9, 35, 117
1, 9193, Note_off_c, 9, 35, 64
1, 9213, Note_on_c, 3, 82, 110
1, 9214, Note_on_c, 0, 70, 99
1, 9214, Note_on_c, 1, 46, 113
1, 9214, Note_on_c, 2, 58, 30
1, 9214, Note_on_c, 6, 56, 87
1, 9214, Note_on_c, 6, 65, 106
1, 9214, Note_on_c, 6, 58, 90
1, 9215, Note_on_c, 0, 65, 103
1, 9215, Note_on_c, 0, 63, 97
1, 9215, Note_on_c, 9, 42, 82
1, 9216, Note_on_c, 2, 63, 75
1, 9216, Note_off_c, 3, 78, 64
1, 9216, Note_off_c, 4, 78, 64
1, 9216, Note_off_c, 4, 75, 64
1, 9216, Note_on_c, 4, 80, 98
1, 9216, Note_on_c, 4, 77, 104
1, 9216, Note_off_c, 9, 42, 64
1, 9217, Note_on_c, 9, 35, 127
1, 9218, Note_on_c, 2, 65, 76
1, 9218, Note_on_c, 2, 70, 81
1, 9218, Note_off_c, 9, 35, 64
1, 9231, Note_off_c, 0, 63, 64
1, 9231, Note_off_c, 0, 65, 64
1, 9232, Note_off_c, 0, 70, 64
1, 9239, Note_on_c, 9, 46, 76
1, 9240, Note_off_c, 9, 46, 64
1, 9244, Note_off_c, 1, 46, 64
1, 9262, Note_on_c, 1, 46, 110
1, 9263, Note_on_c, 0, 70, 106
1, 9263, Note_on_c, 0, 63, 103
1, 9263, Note_on_c, 0, 65, 108
1, 9263, Note_on_c, 9, 42, 71
1, 9264, Note_off_c, 9, 42, 64
1, 9273, Note_off_c, 0, 65, 64
1, 9273, Note_off_c, 0, 63, 64
1, 9276, Note_off_c, 0, 70, 64
1, 9287, Note_on_c, 9, 35, 117
1, 9288, Note_off_c, 9, 35, 64
1, 9288, Note_on_c, 9, 42, 73
1, 9289, Note_off_c, 9, 42, 64
1, 9293, Note_off_c, 1, 46, 64
1, 9310, Note_on_c, 1, 46, 115
1, 9311, Note_on_c, 0, 70, 108
1, 9311, Note_on_c, 0, 65, 113
1, 9311, Note_on_c, 0, 63, 108
1, 9311, Note_on_c, 9, 38, 119
1, 9312, Note_off_c, 2, 63, 64
1, 9312, Note_off_c, 9, 38, 64
1, 9313, Note_off_c, 2, 65, 64
1, 9313, Note_on_c, 2, 63, 77
1, 9313, Note_on_c, 9, 42, 78
1, 9314, Note_off_c, 9, 42, 64
1, 9315, Note_off_c, 2, 70, 64
1, 9316, Note_on_c, 2, 65, 76
1, 9316, Note_on_c, 2, 70, 77
1, 9336, Note_on_c, 9, 42, 83
1, 9337, Note_off_c, 9, 42, 64
1, 9349, Note_off_c, 1, 46, 64
1, 9354, Note_off_c, 0, 63, 64
1, 9358, Note_off_c, 0, 65, 64
1, 9358, Note_off_c, 0, 70, 64
1, 9359, Note_on_c, 9, 46, 79
1, 9360, Note_off_c, 9, 46, 64
1, 9361, Note_on_c, 9, 35, 127
1, 9362, Note_off_c, 9, 35, 64
1, 9382, Note_off_c, 2, 70, 64
1, 9383, Note_on_c, 1, 46, 116
1, 9383, Note_on_c, 2, 70, 83
1, 9383, Note_on_c, 9, 38, 105
1, 9384, Note_on_c, 0, 62, 104
1, 9384, Note_on_c, 0, 70, 108
1, 9384, Note_off_c, 2, 65, 64
1, 9384, Note_off_c, 9, 38, 64
1, 9385, Note_on_c, 0, 65, 117
1, 9385, Note_on_c, 2, 65, 77
1, 9391, Note_on_c, 9, 38, 110
1, 9392, Note_off_c, 9, 38, 64
1, 9394, Note_off_c, 2, 58, 64
1, 9402, Note_off_c, 2, 63, 64
1, 9405, Note_on_c, 2, 58, 22
1, 9406, Note_off_c, 0, 65, 64
1, 9406, Note_off_c, 0, 62, 64
1, 9406, Note_on_c, 9, 38, 100
1, 9407, Note_off_c, 2, 65, 64
1, 9407, Note_on_c, 2, 62, 75
1, 9407, Note_off_c, 9, 38, 64
1, 9408, Note_off_c, 0, 70, 64
1, 9408, Note_off_c, 2, 70, 64
1, 9408, Note_on_c, 2, 65, 79
1, 9409, Note_on_c, 2, 70, 83
1, 9410, Note_off_c, 1, 46, 64
1, 9430, Note_on_c, 9, 38, 84
1, 9431, Note_on_c, 0, 62, 88
1, 9431, Note_on_c, 0, 70, 98
1, 9431, Note_on_c, 0, 65, 106
1, 9431, Note_off_c, 9, 38, 64
1, 9432, Note_on_c, 1, 46, 119
1, 9434, Note_off_c, 2, 65, 64
1, 9436, Note_off_c, 2, 70, 64
1, 9436, Note_off_c, 2, 62, 64
1, 9437, Note_off_c, 2, 58, 64
1, 9452, Note_off_c, 0, 65, 64
1, 9453, Note_off_c, 0, 62, 64
1, 9454, Note_off_c, 0, 70, 64
1, 9455, Note_on_c, 2, 62, 46
1, 9455, Note_on_c, 9, 38, 95
1, 9456, Note_on_c, 2, 65, 73
1, 9456, Note_off_c, 4, 77, 64
1, 9456, Note_off_c, 4, 80, 64
1, 9456, Note_off_c, 9, 38, 64
1, 9459, Note_on_c, 2, 70, 54
1, 9464, Note_off_c, 3, 82, 64
1, 9477, Note_off_c, 2, 70, 64
1, 9478, Note_on_c, 0, 70, 90
1, 9478, Note_on_c, 0, 62, 86
1, 9478, Note_on_c, 0, 65, 105
1, 9478, Note_on_c, 2, 70, 80
1, 9479, Note_off_c, 2, 65, 64
1, 9479, Note_on_c, 9, 38, 103
1, 9480, Note_off_c, 2, 62, 64
1, 9480, Note_on_c, 2, 65, 73
1, 9480, Note_off_c, 9, 38, 64
1, 9482, Note_on_c, 2, 62, 47
1, 9494, Note_off_c, 1, 46, 64
1, 9501, Note_off_c, 2, 62, 64
1, 9501, Note_on_c, 2, 58, 57
1, 9501, Note_on_c, 3, 78, 111
1, 9503, Note_on_c, 1, 37, 115
1, 9503, Note_off_c, 2, 65, 64
1, 9503, Note_off_c, 2, 70, 64
1, 9503, Note_on_c, 2, 62, 78
1, 9503, Note_on_c, 9, 38, 112
1, 9504, Note_on_c, 2, 65, 76
1, 9504, Note_on_c, 2, 70, 80
1, 9504, Note_on_c, 4, 82, 111
1, 9504, Note_on_c, 4, 70, 99
1, 9504, Note_off_c, 9, 38, 64
1, 9525, Note_off_c, 2, 70, 64
1, 9525, Note_off_c, 3, 78, 64
1, 9526, Note_off_c, 1, 37, 64
1, 9526, Note_off_c, 2, 65, 64
1, 9526, Note_on_c, 2, 70, 79
1, 9526, Note_on_c, 3, 78, 105
1, 9527, Note_on_c, 1, 39, 110
1, 9527, Note_off_c, 2, 62, 64
1, 9527, Note_on_c, 2, 65, 80
1, 9527, Note_off_c, 4, 70, 64
1, 9527, Note_off_c, 4, 82, 64
1, 9527, Note_on_c, 9, 38, 120
1, 9528, Note_on_c, 2, 62, 70
1, 9528, Note_on_c, 4, 82, 98
1, 9528, Note_on_c, 4, 70, 102
1, 9528, Note_off_c, 9, 38, 64
1, 9546, Note_off_c, 2, 58, 64
1, 9548, Note_off_c, 2, 62, 64
1, 9548, Note_off_c, 2, 65, 64
1, 9549, Note_off_c, 2, 70, 64
1, 9549, Note_on_c, 2, 62, 76
1, 9549, Note_on_c, 2, 65, 83
1, 9549, Note_off_c, 3, 78, 64
1, 9550, Note_off_c, 1, 39, 64
1, 9550, Note_off_c, 2, 65, 64
1, 9550, Note_off_c, 2, 62, 64
1, 9550, Note_on_c, 3, 78, 103
1, 9551, Note_on_c, 1, 42, 112
1, 9551, Note_on_c, 2, 70, 77
1, 9551, Note_off_c, 4, 70, 64
1, 9551, Note_off_c, 4, 82, 64
1, 9552, Note_off_c, 2, 70, 64
1, 9552, Note_on_c, 4, 70, 96
1, 9552, Note_on_c, 4, 82, 99
1, 9552, Note_off_c, 6, 58, 64
1, 9552, Note_on_c, 9, 38, 123
1, 9553, Note_off_c, 6, 56, 64
1, 9553, Note_off_c, 9, 38, 64
1, 9554, Note_off_c, 6, 65, 64
1, 9569, Note_off_c, 3, 78, 64
1, 9570, Note_on_c, 3, 78, 111
1, 9571, Note_off_c, 0, 65, 64
1, 9573, Note_off_c, 0, 62, 64
1, 9573, Note_on_c, 2, 62, 81
1, 9573, Note_on_c, 2, 70, 81
1, 9574, Note_off_c, 0, 70, 64
1, 9574, Note_off_c, 2, 70, 64
1, 9574, Note_off_c, 2, 62, 64
1, 9575, Note_off_c, 4, 82, 64
1, 9576, Note_off_c, 4, 70, 64
1, 9576, Note_on_c, 4, 82, 100
1, 9576, Note_on_c, 4, 73, 103
1, 9576, Note_on_c, 9, 38, 127
1, 9577, Note_off_c, 9, 38, 64
1, 9585, Note_off_c, 1, 42, 64
1, 9595, Note_on_c, 2, 58, 48
1, 9597, Note_on_c, 2, 61, 75
1, 9597, Note_on_c, 2, 66, 79
1, 9598, Note_on_c, 2, 70, 82
1, 9598, Note_on_c, 7, 70, 85
1, 9598, Note_on_c, 7, 73, 87
1, 9598, Note_on_c, 7, 78, 83
1, 9598, Note_on_c, 9, 49, 121
1, 9599, Note_on_c, 0, 61, 105
1, 9599, Note_on_c, 0, 58, 95
1, 9599, Note_on_c, 0, 66, 108
1, 9599, Control_c, 7, 1, 0
1, 9599, Pitch_bend_c, 7, 8192
1, 9599, Note_off_c, 9, 49, 64
1, 9599, Note_on_c, 9, 35, 121
1, 9600, Note_off_c, 4, 82, 64
1, 9600, Note_off_c, 9, 35, 64
1, 9601, Note_on_c, 1, 42, 117
1, 9603, Note_off_c, 3, 78, 64
1, 9612, Note_off_c, 4, 73, 64
1, 9617, Note_off_c, 2, 70, 64
1, 9620, Note_on_c, 2, 70, 79
1, 9621, Note_off_c, 2, 66, 64
1, 9622, Note_on_c, 2, 66, 78
1, 9643, Note_off_c, 1, 42, 64
1, 9647, Note_on_c, 9, 42, 79
1, 9648, Note_off_c, 9, 42, 64
1, 9668, Note_off_c, 2, 70, 64
1, 9669, Note_on_c, 2, 70, 79
1, 9670, Note_off_c, 2, 66, 64
1, 9671, Note_on_c, 2, 66, 73
1, 9672, Note_on_c, 1, 42, 108
1, 9672, Note_off_c, 2, 61, 64
1, 9673, Note_on_c, 2, 61, 51
1, 9673, Note_on_c, 9, 35, 114
1, 9674, Note_off_c, 9, 35, 64
1, 9684, Note_off_c, 1, 42, 64
1, 9691, Note_off_c, 2, 58, 64
1, 9692, Note_on_c, 2, 58, 66
1, 9693, Note_off_c, 2, 61, 64
1, 9694, Note_off_c, 2, 66, 64
1, 9694, Note_on_c, 2, 61, 77
1, 9695, Note_off_c, 2, 70, 64
1, 9695, Note_on_c, 2, 66, 79
1, 9695, Note_on_c, 9, 42, 85
1, 9696, Note_on_c, 1, 42, 120
1, 9696, Note_on_c, 2, 70, 83
1, 9696, Note_off_c, 9, 42, 64
1, 9697, Note_on_c, 9, 38, 116
1, 9698, Note_off_c, 9, 38, 64
1, 9715, Note_off_c, 2, 58, 64
1, 9716, Note_off_c, 2, 61, 64
1, 9718, Note_off_c, 2, 66, 64
1, 9718, Note_off_c, 2, 70, 64
1, 9719, Note_on_c, 9, 42, 67
1, 9720, Note_off_c, 9, 42, 64
1, 9743, Note_on_c, 9, 42, 78
1, 9744, Note_off_c, 9, 42, 64
1, 9748, Note_off_c, 1, 42, 64
1, 9766, Note_on_c, 9, 42, 72
1, 9767, Note_off_c, 9, 42, 64
1, 9767, Note_on_c, 9, 35, 106
1, 9768, Note_on_c, 2, 70, 78
1, 9768, Note_off_c, 9, 35, 64
1, 9769, Note_on_c, 1, 42, 116
1, 9769, Note_on_c, 2, 66, 77
1, 9788, Note_off_c, 2, 66, 64
1, 9791, Note_on_c, 9, 35, 118
1, 9791, Note_on_c, 9, 42, 84
1, 9792, Note_off_c, 1, 42, 64
1, 9792, Note_off_c, 2, 70, 64
1, 9792, Note_off_c, 9, 42, 64
1, 9792, Note_off_c, 9, 35, 64
1, 9809, Note_on_c, 3, 78, 109
1, 9814, Note_on_c, 4, 73, 99
1, 9814, Note_on_c, 4, 70, 92
1, 9815, Note_on_c, 9, 42, 69
1, 9816, Note_on_c, 1, 42, 115
1, 9816, Note_off_c, 9, 42, 64
1, 9832, Note_off_c, 3, 78, 64
1, 9833, Note_on_c, 3, 78, 104
1, 9837, Note_on_c, 2, 66, 77
1, 9837, Note_off_c, 4, 70, 64
1, 9837, Note_off_c, 4, 73, 64
1, 9838, Note_off_c, 2, 66, 64
1, 9838, Note_on_c, 2, 70, 83
1, 9838, Note_on_c, 4, 70, 86
1, 9838, Note_on_c, 4, 73, 95
1, 9839, Note_off_c, 2, 70, 64
1, 9839, Note_on_c, 9, 42, 76
1, 9840, Note_on_c, 2, 61, 55
1, 9840, Note_off_c, 9, 42, 64
1, 9841, Note_off_c, 1, 42, 64
1, 9841, Note_off_c, 2, 61, 64
1, 9858, Note_off_c, 3, 78, 64
1, 9859, Note_on_c, 3, 78, 108
1, 9860, Note_on_c, 2, 70, 79
1, 9861, Note_off_c, 2, 70, 64
1, 9861, Note_on_c, 2, 66, 74
1, 9861, Note_off_c, 4, 73, 64
1, 9861, Note_off_c, 4, 70, 64
1, 9862, Note_off_c, 2, 66, 64
1, 9862, Note_on_c, 4, 70, 88
1, 9862, Note_on_c, 4, 73, 100
1, 9862, Note_on_c, 9, 42, 71
1, 9863, Note_off_c, 9, 42, 64
1, 9865, Note_on_c, 1, 42, 113
1, 9865, Note_on_c, 9, 35, 113
1, 9866, Note_off_c, 9, 35, 64
1, 9884, Note_on_c, 2, 61, 75
1, 9885, Note_off_c, 1, 42, 64
1, 9885, Note_on_c, 2, 66, 79
1, 9886, Note_on_c, 9, 42, 84
1, 9887, Note_on_c, 1, 37, 115
1, 9887, Note_on_c, 2, 70, 81
1, 9887, Note_off_c, 9, 42, 64
1, 9889, Note_on_c, 9, 38, 121
1, 9890, Note_off_c, 9, 38, 64
1, 9904, Note_off_c, 3, 78, 64
1, 9905, Note_on_c, 3, 78, 111
1, 9909, Note_off_c, 4, 73, 64
1, 9909, Note_off_c, 4, 70, 64
1, 9910, Note_off_c, 1, 37, 64
1, 9910, Note_off_c, 2, 61, 64
1, 9910, Note_on_c, 4, 70, 97
1, 9910, Note_on_c, 4, 73, 102
1, 9911, Note_on_c, 1, 39, 111
1, 9911, Note_on_c, 9, 42, 72
1, 9912, Note_off_c, 2, 70, 64
1, 9912, Note_off_c, 9, 42, 64
1, 9912, Note_on_c, 9, 35, 115
1, 9913, Note_off_c, 2, 66, 64
1, 9913, Note_off_c, 9, 35, 64
1, 9934, Note_off_c, 1, 39, 64
1, 9935, Note_on_c, 1, 42, 116
1, 9935, Note_off_c, 3, 78, 64
1, 9935, Note_on_c, 9, 42, 77
1, 9936, Note_on_c, 2, 61, 63
1, 9936, Note_off_c, 9, 42, 64
1, 9937, Note_off_c, 2, 61, 64
1, 9937, Note_on_c, 2, 66, 77
1, 9938, Note_off_c, 2, 66, 64
1, 9938, Note_on_c, 2, 70, 80
1, 9939, Note_off_c, 2, 70, 64
1, 9940, Note_off_c, 0, 66, 64
1, 9955, Note_off_c, 0, 58, 64
1, 9956, Note_off_c, 0, 61, 64
1, 9959, Note_on_c, 9, 42, 69
1, 9960, Note_off_c, 9, 42, 64
1, 9961, Note_on_c, 9, 35, 103
1, 9962, Note_on_c, 2, 66, 69
1, 9962, Note_off_c, 9, 35, 64
1, 9963, Note_off_c, 2, 66, 64
1, 9963, Note_on_c, 2, 70, 79
1, 9964, Note_off_c, 2, 70, 64
1, 9970, Note_off_c, 4, 73, 64
1, 9970, Note_off_c, 4, 70, 64
1, 9973, Note_off_c, 1, 42, 64
1, 9979, Note_off_c, 7, 78, 64
1, 9979, Note_off_c, 7, 73, 64
1, 9979, Note_off_c, 7, 70, 64
1, 9980, Note_on_c, 0, 61, 103
1, 9980, Note_on_c, 0, 58, 95
1, 9980, Note_on_c, 3, 82, 112
1, 9981, Note_on_c, 0, 65, 96
1, 9982, Note_on_c, 4, 70, 91
1, 9982, Note_on_c, 4, 73, 95
1, 9982, Note_on_c, 4, 82, 95
1, 9982, Note_on_c, 7, 70, 80
1, 9982, Note_on_c, 7, 77, 79
1, 9982, Note_on_c, 7, 73, 69
1, 9983, Note_on_c, 9, 42, 79
1, 9984, Note_off_c, 9, 42, 64
1, 9985, Note_on_c, 1, 46, 115
1, 9985, Note_on_c, 2, 58, 74
1, 9985, Note_on_c, 9, 35, 127
1, 9986, Note_off_c, 2, 58, 64
1, 9986, Note_off_c, 9, 35, 64
1, 9987, Note_on_c, 2, 61, 75
1, 9987, Note_on_c, 2, 65, 77
1, 9988, Note_off_c, 2, 65, 64
1, 9988, Note_off_c, 2, 61, 64
1, 9988, Note_on_c, 2, 70, 80
1, 9989, Note_off_c, 2, 70, 64
1, 10006, Note_on_c, 9, 46, 72
1, 10007, Note_off_c, 9, 46, 64
1, 10010, Note_on_c, 2, 65, 73
1, 10011, Note_on_c, 2, 70, 78
1, 10023, Note_off_c, 1, 46, 64
1, 10031, Note_on_c, 9, 42, 78
1, 10032, Note_off_c, 9, 42, 64
1, 10042, Note_off_c, 4, 82, 64
1, 10053, Note_off_c, 2, 70, 64
1, 10053, Note_off_c, 4, 73, 64
1, 10053, Note_off_c, 4, 70, 64
1, 10054, Note_on_c, 2, 70, 77
1, 10054, Note_on_c, 4, 80, 93
1, 10054, Note_on_c, 4, 73, 94
1, 10054, Note_on_c, 4, 70, 89
1, 10054, Note_on_c, 9, 42, 70
1, 10055, Note_off_c, 2, 70, 64
1, 10055, Note_off_c, 2, 65, 64
1, 10055, Note_off_c, 9, 42, 64
1, 10056, Note_on_c, 2, 65, 73
1, 10056, Note_on_c, 3, 80, 105
1, 10057, Note_on_c, 1, 46, 112
1, 10057, Note_off_c, 2, 65, 64
1, 10057, Note_off_c, 3, 82, 64
1, 10057, Note_on_c, 9, 35, 107
1, 10058, Note_off_c, 9, 35, 64
1, 10069, Note_off_c, 1, 46, 64
1, 10077, Note_on_c, 2, 58, 61
1, 10078, Note_off_c, 2, 58, 64
1, 10079, Note_on_c, 2, 61, 75
1, 10079, Note_on_c, 9, 42, 77
1, 10080, Note_off_c, 2, 61, 64
1, 10080, Note_off_c, 9, 42, 64
1, 10081, Note_on_c, 1, 46, 117
1, 10081, Note_on_c, 2, 65, 81
1, 10081, Note_on_c, 2, 70, 78
1, 10081, Note_on_c, 9, 38, 118
1, 10082, Note_off_c, 2, 70, 64
1, 10082, Note_off_c, 2, 65, 64
1, 10082, Note_off_c, 9, 38, 64
1, 10102, Note_off_c, 4, 80, 64
1, 10102, Note_on_c, 4, 78, 90
1, 10102, Note_on_c, 9, 42, 69
1, 10103, Note_on_c, 2, 65, 78
1, 10103, Note_off_c, 9, 42, 64
1, 10104, Note_on_c, 2, 61, 67
1, 10105, Note_on_c, 2, 70, 77
1, 10126, Note_off_c, 4, 78, 64
1, 10126, Note_off_c, 4, 70, 64
1, 10126, Note_off_c, 4, 73, 64
1, 10126, Note_on_c, 4, 75, 91
1, 10128, Note_on_c, 9, 42, 76
1, 10129, Note_off_c, 9, 42, 64
1, 10130, Note_off_c, 1, 46, 64
1, 10132, Note_off_c, 2, 70, 64
1, 10132, Note_off_c, 2, 61, 64
1, 10132, Note_off_c, 2, 65, 64
1, 10150, Note_off_c, 4, 75, 64
1, 10150, Note_on_c, 4, 73, 90
1, 10151, Note_on_c, 9, 35, 118
1, 10151, Note_on_c, 9, 42, 75
1, 10152, Note_off_c, 9, 42, 64
1, 10152, Note_off_c, 9, 35, 64
1, 10153, Note_on_c, 1, 46, 117
1, 10156, Note_on_c, 2, 65, 79
1, 10156, Note_on_c, 2, 61, 70
1, 10157, Note_on_c, 2, 70, 79
1, 10171, Note_off_c, 3, 80, 64
1, 10176, Note_on_c, 9, 42, 84
1, 10177, Note_off_c, 9, 42, 64
1, 10177, Note_on_c, 9, 35, 127
1, 10178, Note_off_c, 9, 35, 64
1, 10179, Note_off_c, 1, 46, 64
1, 10184, Note_off_c, 2, 70, 64
1, 10184, Note_off_c, 2, 65, 64
1, 10186, Note_off_c, 4, 73, 64
1, 10187, Note_off_c, 2, 61, 64
1, 10199, Note_on_c, 9, 46, 77
1, 10200, Note_off_c, 9, 46, 64
1, 10201, Note_on_c, 1, 46, 118
1, 10203, Note_on_c, 2, 65, 79
1, 10204, Note_on_c, 2, 70, 78
1, 10224, Note_off_c, 2, 70, 64
1, 10224, Note_on_c, 9, 42, 82
1, 10225, Note_off_c, 9, 42, 64
1, 10228, Note_off_c, 2, 65, 64
1, 10230, Note_off_c, 1, 46, 64
1, 10247, Note_on_c, 2, 70, 79
1, 10248, Note_on_c, 2, 65, 77
1, 10248, Note_on_c, 9, 35, 118
1, 10249, Note_on_c, 1, 46, 113
1, 10249, Note_off_c, 9, 35, 64
1, 10249, Note_on_c, 9, 42, 77
1, 10250, Note_off_c, 9, 42, 64
1, 10268, Note_off_c, 1, 46, 64
1, 10269, Note_on_c, 2, 58, 52
1, 10269, Note_on_c, 3, 73, 106
1, 10270, Note_off_c, 2, 58, 64
1, 10270, Note_on_c, 4, 73, 97
1, 10271, Note_on_c, 1, 41, 106
1, 10271, Note_off_c, 2, 65, 64
1, 10271, Note_on_c, 2, 61, 73
1, 10271, Note_on_c, 9, 38, 117
1, 10272, Note_off_c, 2, 61, 64
1, 10272, Note_off_c, 2, 70, 64
1, 10272, Note_on_c, 2, 65, 79
1, 10272, Note_off_c, 9, 38, 64
1, 10272, Note_on_c, 9, 42, 79
1, 10273, Note_off_c, 2, 65, 64
1, 10273, Note_on_c, 2, 70, 80
1, 10273, Note_off_c, 9, 42, 64
1, 10274, Note_off_c, 2, 70, 64
1, 10292, Note_off_c, 3, 73, 64
1, 10293, Note_on_c, 3, 73, 100
1, 10293, Note_off_c, 4, 73, 64
1, 10294, Note_off_c, 1, 41, 64
1, 10294, Note_on_c, 4, 73, 86
1, 10295, Note_on_c, 1, 44, 110
1, 10295, Note_on_c, 2, 70, 77
1, 10295, Note_on_c, 9, 46, 82
1, 10296, Note_off_c, 2, 70, 64
1, 10296, Note_on_c, 2, 65, 77
1, 10296, Note_off_c, 9, 46, 64
1, 10296, Note_on_c, 9, 35, 127
1, 10297, Note_off_c, 2, 65, 64
1, 10297, Note_off_c, 9, 35, 64
1, 10312, Note_off_c, 0, 65, 64
1, 10313, Note_off_c, 0, 61, 64
1, 10314, Note_off_c, 3, 73, 64
1, 10315, Note_on_c, 3, 73, 108
1, 10317, Note_off_c, 4, 73, 64
1, 10318, Note_off_c, 0, 58, 64
1, 10318, Note_off_c, 1, 44, 64
1, 10318, Note_on_c, 2, 61, 75
1, 10318, Note_on_c, 4, 73, 97
1, 10319, Note_on_c, 1, 46, 113
1, 10319, Note_on_c, 2, 65, 79
1, 10320, Note_on_c, 2, 70, 81
1, 10320, Note_on_c, 9, 42, 80
1, 10321, Note_off_c, 9, 42, 64
1, 10337, Note_off_c, 2, 70, 64
1, 10338, Note_off_c, 2, 65, 64
1, 10338, Note_off_c, 2, 61, 64
1, 10345, Note_on_c, 9, 42, 79
1, 10346, Note_off_c, 9, 42, 64
1, 10346, Note_on_c, 9, 35, 111
1, 10347, Note_off_c, 9, 35, 64
1, 10350, Note_off_c, 1, 46, 64
1, 10362, Note_on_c, 0, 66, 96
1, 10362, Note_on_c, 0, 59, 92
1, 10362, Note_off_c, 3, 73, 64
1, 10363, Note_on_c, 0, 63, 108
1, 10363, Note_off_c, 7, 77, 64
1, 10364, Note_off_c, 7, 73, 64
1, 10365, Note_on_c, 3, 80, 109
1, 10365, Note_off_c, 7, 70, 64
1, 10366, Note_on_c, 2, 59, 50
1, 10366, Note_off_c, 4, 73, 64
1, 10366, Note_on_c, 4, 78, 98
1, 10366, Note_on_c, 4, 75, 97
1, 10366, Note_on_c, 7, 71, 86
1, 10366, Note_on_c, 7, 75, 77
1, 10367, Note_on_c, 1, 47, 119
1, 10367, Note_off_c, 2, 59, 64
1, 10367, Note_on_c, 7, 78, 76
1, 10367, Note_on_c, 9, 42, 80
1, 10368, Note_on_c, 2, 63, 74
1, 10368, Note_off_c, 9, 42, 64
1, 10369, Note_off_c, 2, 63, 64
1, 10369, Note_on_c, 2, 66, 74
1, 10369, Note_on_c, 9, 35, 125
1, 10370, Note_off_c, 2, 66, 64
1, 10370, Note_on_c, 2, 71, 79
1, 10370, Note_off_c, 9, 35, 64
1, 10371, Note_off_c, 2, 71, 64
1, 10391, Note_on_c, 2, 71, 76
1, 10391, Note_on_c, 2, 66, 76
1, 10391, Note_on_c, 9, 46, 80
1, 10392, Note_off_c, 9, 46, 64
1, 10408, Note_off_c, 1, 47, 64
1, 10415, Note_on_c, 9, 42, 79
1, 10416, Note_off_c, 9, 42, 64
1, 10433, Note_off_c, 3, 80, 64
1, 10437, Note_off_c, 2, 71, 64
1, 10437, Note_off_c, 4, 75, 64
1, 10437, Note_off_c, 4, 78, 64
1, 10438, Note_on_c, 3, 78, 108
1, 10438, Note_on_c, 4, 75, 90
1, 10438, Note_on_c, 4, 78, 92
1, 10439, Note_off_c, 2, 66, 64
1, 10440, Note_on_c, 2, 66, 76
1, 10440, Note_on_c, 9, 42, 81
1, 10441, Note_on_c, 1, 47, 112
1, 10441, Note_off_c, 2, 66, 64
1, 10441, Note_on_c, 2, 71, 72
1, 10441, Note_off_c, 9, 42, 64
1, 10441, Note_on_c, 9, 35, 118
1, 10442, Note_off_c, 2, 71, 64
1, 10442, Note_on_c, 2, 63, 58
1, 10442, Note_off_c, 9, 35, 64
1, 10443, Note_off_c, 2, 63, 64
1, 10451, Note_off_c, 1, 47, 64
1, 10463, Note_on_c, 1, 47, 117
1, 10464, Note_on_c, 9, 38, 118
1, 10464, Note_on_c, 9, 42, 77
1, 10465, Note_on_c, 2, 66, 75
1, 10465, Note_off_c, 9, 42, 64
1, 10465, Note_off_c, 9, 38, 64
1, 10466, Note_off_c, 2, 66, 64
1, 10468, Note_on_c, 2, 71, 80
1, 10469, Note_off_c, 2, 71, 64
1, 10487, Note_on_c, 9, 42, 77
1, 10488, Note_off_c, 9, 42, 64
1, 10490, Note_on_c, 2, 66, 77
1, 10491, Note_on_c, 2, 71, 73
1, 10491, Note_on_c, 2, 63, 68
1, 10492, Note_on_c, 2, 59, 51
1, 10499, Note_off_c, 1, 47, 64
1, 10512, Note_on_c, 9, 42, 76
1, 10513, Note_off_c, 9, 42, 64
1, 10522, Note_off_c, 3, 78, 64
1, 10522, Note_off_c, 4, 78, 64
1, 10522, Note_off_c, 4, 75, 64
1, 10533, Note_off_c, 2, 71, 64
1, 10534, Note_on_c, 1, 47, 111
1, 10535, Note_on_c, 9, 35, 115
1, 10536, Note_off_c, 2, 66, 64
1, 10536, Note_off_c, 9, 35, 64
1, 10536, Note_on_c, 9, 42, 82
1, 10537, Note_on_c, 2, 66, 75
1, 10537, Note_off_c, 9, 42, 64
1, 10538, Note_on_c, 2, 71, 76
1, 10559, Note_on_c, 9, 42, 82
1, 10560, Note_off_c, 9, 42, 64
1, 10560, Note_on_c, 9, 35, 121
1, 10561, Note_off_c, 9, 35, 64
1, 10565, Note_off_c, 1, 47, 64
1, 10582, Note_on_c, 1, 47, 120
1, 10582, Note_on_c, 9, 46, 81
1, 10583, Note_off_c, 2, 59, 64
1, 10583, Note_off_c, 9, 46, 64
1, 10605, Note_off_c, 2, 63, 64
1, 10606, Note_off_c, 2, 66, 64
1, 10606, Note_on_c, 2, 63, 72
1, 10607, Note_off_c, 2, 63, 64
1, 10607, Note_off_c, 2, 71, 64
1, 10607, Note_on_c, 2, 66, 79
1, 10607, Note_on_c, 9, 42, 77
1, 10608, Note_off_c, 2, 66, 64
1, 10608, Note_on_c, 2, 71, 79
1, 10608, Note_off_c, 9, 42, 64
1, 10609, Note_off_c, 2, 71, 64
1, 10610, Note_off_c, 1, 47, 64
1, 10630, Note_on_c, 2, 66, 63
1, 10630, Note_on_c, 9, 35, 114
1, 10631, Note_on_c, 1, 47, 117
1, 10631, Note_off_c, 2, 66, 64
1, 10631, Note_on_c, 2, 71, 78
1, 10631, Note_off_c, 9, 35, 64
1, 10631, Note_on_c, 9, 42, 79
1, 10632, Note_off_c, 2, 71, 64
1, 10632, Note_off_c, 9, 42, 64
1, 10652, Note_on_c, 3, 78, 104
1, 10654, Note_on_c, 4, 75, 89
1, 10654, Note_on_c, 4, 71, 89
1, 10654, Note_on_c, 9, 38, 117
1, 10655, Note_on_c, 2, 66, 79
1, 10655, Note_off_c, 9, 38, 64
1, 10655, Note_on_c, 9, 42, 74
1, 10656, Note_off_c, 1, 47, 64
1, 10656, Note_on_c, 2, 63, 66
1, 10656, Note_off_c, 9, 42, 64
1, 10657, Note_on_c, 1, 42, 112
1, 10657, Note_on_c, 2, 71, 77
1, 10673, Note_off_c, 3, 78, 64
1, 10675, Note_off_c, 2, 71, 64
1, 10676, Note_on_c, 2, 71, 77
1, 10676, Note_on_c, 3, 78, 101
1, 10677, Note_off_c, 2, 66, 64
1, 10677, Note_off_c, 4, 71, 64
1, 10677, Note_off_c, 4, 75, 64
1, 10678, Note_on_c, 2, 66, 73
1, 10678, Note_on_c, 4, 75, 88
1, 10678, Note_on_c, 4, 71, 83
1, 10678, Note_on_c, 9, 35, 125
1, 10679, Note_off_c, 9, 35, 64
1, 10679, Note_on_c, 9, 42, 79
1, 10680, Note_off_c, 1, 42, 64
1, 10680, Note_off_c, 9, 42, 64
1, 10681, Note_on_c, 1, 44, 110
1, 10697, Note_off_c, 0, 63, 64
1, 10698, Note_off_c, 3, 78, 64
1, 10699, Note_on_c, 3, 78, 107
1, 10700, Note_off_c, 0, 66, 64
1, 10700, Note_off_c, 2, 63, 64
1, 10701, Note_off_c, 0, 59, 64
1, 10701, Note_off_c, 2, 66, 64
1, 10701, Note_on_c, 2, 63, 75
1, 10701, Note_off_c, 4, 71, 64
1, 10701, Note_off_c, 4, 75, 64
1, 10702, Note_off_c, 2, 71, 64
1, 10702, Note_on_c, 2, 66, 79
1, 10702, Note_on_c, 4, 75, 97
1, 10702, Note_on_c, 4, 71, 90
1, 10702, Note_on_c, 9, 42, 73
1, 10703, Note_on_c, 2, 71, 80
1, 10703, Note_off_c, 9, 42, 64
1, 10704, Note_off_c, 1, 44, 64
1, 10705, Note_on_c, 1, 47, 116
1, 10718, Note_off_c, 2, 66, 64
1, 10719, Note_off_c, 2, 71, 64
1, 10721, Note_off_c, 2, 63, 64
1, 10726, Note_on_c, 9, 42, 73
1, 10727, Note_off_c, 9, 42, 64
1, 10729, Note_on_c, 9, 35, 103
1, 10730, Note_off_c, 1, 47, 64
1, 10730, Note_off_c, 9, 35, 64
1, 10733, Note_off_c, 3, 78, 64
1, 10738, Note_off_c, 4, 71, 64
1, 10738, Note_off_c, 4, 75, 64
1, 10745, Note_off_c, 7, 71, 64
1, 10746, Note_on_c, 0, 62, 89
1, 10746, Note_on_c, 0, 66, 99
1, 10746, Note_on_c, 0, 59, 93
1, 10747, Note_off_c, 7, 78, 64
1, 10747, Note_off_c, 7, 75, 64
1, 10748, Note_on_c, 2, 59, 39
1, 10749, Note_on_c, 7, 71, 78
1, 10749, Note_on_c, 7, 74, 78
1, 10749, Note_on_c, 7, 78, 72
1, 10750, Note_on_c, 2, 62, 73
1, 10751, Note_on_c, 1, 47, 113
1, 10751, Note_on_c, 2, 66, 82
1, 10751, Note_on_c, 9, 42, 79
1, 10752, Note_on_c, 2, 71, 81
1, 10752, Note_off_c, 9, 42, 64
1, 10753, Note_on_c, 9, 35, 127
1, 10754, Note_off_c, 9, 35, 64
1, 10775, Note_on_c, 9, 42, 71
1, 10776, Note_off_c, 9, 42, 64
1, 10792, Note_on_c, 3, 78, 107
1, 10796, Note_off_c, 1, 47, 64
1, 10798, Note_on_c, 4, 71, 98
1, 10798, Note_on_c, 4, 74, 98
1, 10799, Note_on_c, 9, 42, 69
1, 10800, Note_off_c, 2, 71, 64
1, 10800, Note_off_c, 2, 66, 64
1, 10800, Note_off_c, 9, 42, 64
1, 10802, Note_on_c, 2, 71, 75
1, 10802, Note_on_c, 2, 66, 66
1, 10822, Note_on_c, 9, 42, 74
1, 10823, Note_off_c, 9, 42, 64
1, 10823, Note_on_c, 9, 35, 111
1, 10824, Note_on_c, 1, 47, 109
1, 10824, Note_off_c, 9, 35, 64
1, 10836, Note_off_c, 1, 47, 64
1, 10840, Note_off_c, 3, 78, 64
1, 10842, Note_off_c, 2, 59, 64
1, 10843, Note_on_c, 2, 59, 56
1, 10843, Note_on_c, 3, 80, 108
1, 10844, Note_off_c, 2, 62, 64
1, 10845, Note_off_c, 2, 66, 64
1, 10845, Note_on_c, 2, 62, 73
1, 10845, Note_off_c, 4, 74, 64
1, 10845, Note_off_c, 4, 71, 64
1, 10846, Note_off_c, 2, 71, 64
1, 10846, Note_on_c, 2, 66, 79
1, 10846, Note_on_c, 4, 71, 93
1, 10846, Note_on_c, 4, 74, 97
1, 10847, Note_on_c, 2, 71, 74
1, 10847, Note_on_c, 9, 38, 118
1, 10847, Note_on_c, 9, 42, 82
1, 10848, Note_on_c, 1, 47, 123
1, 10848, Note_off_c, 9, 42, 64
1, 10848, Note_off_c, 9, 38, 64
1, 10871, Note_on_c, 9, 35, 123
1, 10871, Note_on_c, 9, 42, 71
1, 10872, Note_off_c, 9, 42, 64
1, 10872, Note_off_c, 9, 35, 64
1, 10874, Note_off_c, 2, 71, 64
1, 10874, Note_off_c, 2, 66, 64
1, 10874, Note_off_c, 2, 62, 64
1, 10876, Note_off_c, 2, 59, 64
1, 10883, Note_off_c, 1, 47, 64
1, 10884, Note_off_c, 3, 80, 64
1, 10887, Note_on_c, 3, 78, 105
1, 10893, Note_off_c, 4, 74, 64
1, 10893, Note_off_c, 4, 71, 64
1, 10894, Note_on_c, 4, 71, 92
1, 10894, Note_on_c, 4, 74, 96
1, 10895, Note_on_c, 9, 42, 75
1, 10896, Note_off_c, 9, 42, 64
1, 10915, Note_on_c, 3, 80, 110
1, 10917, Note_off_c, 4, 74, 64
1, 10917, Note_off_c, 4, 71, 64
1, 10918, Note_off_c, 3, 78, 64
1, 10918, Note_on_c, 4, 71, 95
1, 10918, Note_on_c, 4, 74, 97
1, 10918, Note_on_c, 9, 42, 71
1, 10919, Note_off_c, 9, 42, 64
1, 10919, Note_on_c, 9, 35, 114
1, 10920, Note_off_c, 9, 35, 64
1, 10943, Note_on_c, 9, 35, 125
1, 10943, Note_on_c, 9, 42, 78
1, 10944, Note_off_c, 9, 42, 64
1, 10944, Note_off_c, 9, 35, 64
1, 10960, Note_on_c, 3, 78, 105
1, 10961, Note_off_c, 3, 80, 64
1, 10965, Note_off_c, 4, 74, 64
1, 10965, Note_off_c, 4, 71, 64
1, 10965, Note_on_c, 5, 85, 93
1, 10966, Note_on_c, 4, 71, 96
1, 10966, Note_on_c, 4, 74, 96
1, 10966, Control_c, 5, 1, 0
1, 10966, Pitch_bend_c, 5, 8192
1, 10966, Note_on_c, 9, 42, 73
1, 10967, Note_off_c, 9, 42, 64
1, 10969, Note_on_c, 1, 50, 109
1, 10990, Note_on_c, 9, 42, 82
1, 10991, Note_off_c, 9, 42, 64
1, 10992, Note_off_c, 1, 50, 64
1, 10992, Note_on_c, 9, 35, 118
1, 10993, Note_on_c, 1, 49, 112
1, 10993, Note_off_c, 9, 35, 64
1, 10999, Note_off_c, 3, 78, 64
1, 11002, Note_off_c, 4, 74, 64
1, 11002, Note_off_c, 4, 71, 64
1, 11015, Note_on_c, 2, 66, 76
1, 11015, Note_on_c, 2, 71, 71
1, 11015, Note_on_c, 9, 42, 68
1, 11016, Note_off_c, 1, 49, 64
1, 11016, Note_on_c, 2, 62, 57
1, 11016, Note_off_c, 9, 42, 64
1, 11017, Note_on_c, 1, 47, 103
1, 11021, Note_off_c, 5, 85, 64
1, 11034, Note_on_c, 5, 85, 90
1, 11038, Note_on_c, 4, 74, 98
1, 11038, Note_on_c, 4, 71, 98
1, 11039, Note_on_c, 3, 80, 110
1, 11039, Note_on_c, 9, 35, 118
1, 11039, Note_on_c, 9, 42, 77
1, 11040, Note_off_c, 1, 47, 64
1, 11040, Note_off_c, 9, 42, 64
1, 11040, Note_off_c, 9, 35, 64
1, 11041, Note_on_c, 1, 44, 112
1, 11054, Note_off_c, 5, 85, 64
1, 11061, Note_off_c, 4, 71, 64
1, 11061, Note_off_c, 4, 74, 64
1, 11062, Note_off_c, 2, 71, 64
1, 11062, Note_on_c, 4, 74, 89
1, 11062, Note_on_c, 4, 71, 96
1, 11062, Note_on_c, 5, 85, 79
1, 11063, Note_off_c, 1, 44, 64
1, 11063, Note_off_c, 2, 66, 64
1, 11063, Note_on_c, 2, 71, 76
1, 11063, Note_off_c, 3, 80, 64
1, 11063, Note_on_c, 9, 35, 115
1, 11063, Note_on_c, 9, 42, 79
1, 11064, Note_on_c, 1, 42, 102
1, 11064, Note_on_c, 2, 66, 77
1, 11064, Note_on_c, 3, 80, 106
1, 11064, Note_off_c, 9, 42, 64
1, 11064, Note_off_c, 9, 35, 64
1, 11070, Note_on_c, 2, 59, 30
1, 11076, Note_off_c, 0, 59, 64
1, 11076, Note_off_c, 0, 62, 64
1, 11078, Note_off_c, 5, 85, 64
1, 11081, Note_off_c, 0, 66, 64
1, 11084, Note_off_c, 3, 80, 64
1, 11085, Note_on_c, 3, 80, 101
1, 11085, Note_off_c, 4, 71, 64
1, 11085, Note_off_c, 4, 74, 64
1, 11086, Note_off_c, 1, 42, 64
1, 11086, Note_on_c, 4, 74, 95
1, 11086, Note_on_c, 4, 71, 92
1, 11087, Note_on_c, 1, 38, 109
1, 11087, Note_off_c, 2, 62, 64
1, 11087, Note_on_c, 5, 85, 95
1, 11087, Note_on_c, 9, 35, 117
1, 11087, Note_on_c, 9, 46, 82
1, 11088, Note_off_c, 2, 66, 64
1, 11088, Note_on_c, 2, 62, 60
1, 11088, Note_off_c, 9, 46, 64
1, 11088, Note_off_c, 9, 35, 64
1, 11089, Note_off_c, 2, 71, 64
1, 11089, Note_on_c, 2, 66, 70
1, 11090, Note_on_c, 2, 71, 57
1, 11096, Note_off_c, 5, 85, 64
1, 11108, Note_on_c, 5, 85, 87
1, 11110, Note_off_c, 2, 71, 64
1, 11110, Note_on_c, 3, 78, 109
1, 11110, Note_off_c, 4, 71, 64
1, 11110, Note_off_c, 4, 74, 64
1, 11110, Note_on_c, 4, 73, 100
1, 11110, Note_on_c, 4, 70, 100
1, 11111, Note_off_c, 1, 38, 64
1, 11111, Note_on_c, 2, 71, 77
1, 11112, Note_on_c, 1, 35, 109
1, 11114, Note_off_c, 3, 80, 64
1, 11123, Note_off_c, 2, 62, 64
1, 11124, Note_off_c, 2, 59, 64
1, 11126, Note_off_c, 2, 66, 64
1, 11126, Note_off_c, 2, 71, 64
1, 11131, Note_off_c, 1, 35, 64
1, 11131, Note_off_c, 7, 78, 64
1, 11131, Note_off_c, 7, 74, 64
1, 11131, Note_off_c, 7, 71, 64
1, 11133, Note_on_c, 7, 70, 76
1, 11133, Note_on_c, 7, 73, 68
1, 11133, Note_on_c, 7, 78, 76
1, 11134, Note_on_c, 0, 61, 106
1, 11135, Note_on_c, 0, 66, 103
1, 11135, Note_on_c, 0, 58, 96
1, 11135, Note_on_c, 1, 42, 109
1, 11135, Note_on_c, 2, 58, 54
1, 11135, Note_on_c, 9, 42, 75
1, 11136, Note_off_c, 9, 42, 64
1, 11136, Note_on_c, 9, 35, 127
1, 11137, Note_on_c, 2, 61, 73
1, 11137, Note_off_c, 9, 35, 64
1, 11138, Note_on_c, 2, 66, 77
1, 11139, Note_on_c, 2, 70, 70
1, 11146, Note_off_c, 4, 70, 64
1, 11146, Note_off_c, 4, 73, 64
1, 11151, Note_off_c, 3, 78, 64
1, 11156, Note_off_c, 5, 85, 64
1, 11157, Note_off_c, 2, 70, 64
1, 11158, Note_on_c, 2, 70, 77
1, 11158, Note_on_c, 9, 42, 73
1, 11159, Note_off_c, 2, 70, 64
1, 11159, Note_off_c, 2, 66, 64
1, 11159, Note_off_c, 9, 42, 64
1, 11160, Note_on_c, 2, 66, 70
1, 11161, Note_off_c, 2, 66, 64
1, 11161, Note_off_c, 2, 58, 64
1, 11162, Note_off_c, 2, 61, 64
1, 11180, Note_off_c, 1, 42, 64
1, 11182, Note_on_c, 9, 42, 77
1, 11183, Note_off_c, 9, 42, 64
1, 11206, Note_on_c, 1, 42, 105
1, 11206, Note_on_c, 9, 42, 73
1, 11207, Note_off_c, 9, 42, 64
1, 11208, Note_on_c, 2, 70, 73
1, 11209, Note_on_c, 2, 66, 59
1, 11209, Note_on_c, 9, 35, 121
1, 11210, Note_off_c, 9, 35, 64
1, 11222, Note_off_c, 1, 42, 64
1, 11231, Note_on_c, 1, 42, 109
1, 11231, Note_on_c, 2, 58, 49
1, 11231, Note_on_c, 9, 42, 82
1, 11232, Note_off_c, 9, 42, 64
1, 11233, Note_off_c, 2, 66, 64
1, 11233, Note_on_c, 2, 61, 75
1, 11233, Note_on_c, 9, 38, 121
1, 11234, Note_off_c, 2, 70, 64
1, 11234, Note_on_c, 2, 66, 79
1, 11234, Note_off_c, 9, 38, 64
1, 11235, Note_on_c, 2, 70, 79
1, 11255, Note_off_c, 2, 70, 64
1, 11255, Note_on_c, 9, 42, 71
1, 11256, Note_off_c, 9, 42, 64
1, 11257, Note_on_c, 2, 70, 76
1, 11258, Note_off_c, 2, 66, 64
1, 11259, Note_on_c, 2, 66, 63
1, 11272, Note_off_c, 1, 42, 64
1, 11279, Note_on_c, 9, 42, 75
1, 11280, Note_off_c, 2, 66, 64
1, 11280, Note_off_c, 2, 61, 64
1, 11280, Note_off_c, 9, 42, 64
1, 11281, Note_off_c, 2, 70, 64
1, 11281, Note_on_c, 2, 61, 64
1, 11281, Note_on_c, 2, 66, 79
1, 11283, Note_on_c, 2, 70, 73
1, 11293, Note_off_c, 2, 61, 64
1, 11295, Note_off_c, 2, 58, 64
1, 11295, Note_off_c, 2, 70, 64
1, 11299, Note_off_c, 2, 66, 64
1, 11303, Note_on_c, 9, 42, 71
1, 11304, Note_off_c, 9, 42, 64
1, 11305, Note_on_c, 9, 35, 103
1, 11306, Note_off_c, 9, 35, 64
1, 11326, Note_on_c, 2, 58, 41
1, 11327, Note_on_c, 9, 35, 103
1, 11327, Note_on_c, 9, 42, 83
1, 11328, Note_on_c, 2, 61, 67
1, 11328, Note_off_c, 9, 42, 64
1, 11328, Note_off_c, 9, 35, 64
1, 11330, Note_on_c, 2, 66, 77
1, 11331, Note_on_c, 2, 70, 71
1, 11350, Note_on_c, 1, 42, 110
1, 11350, Note_on_c, 4, 70, 86
1, 11350, Note_on_c, 4, 73, 92
1, 11351, Note_off_c, 2, 70, 64
1, 11351, Note_off_c, 2, 61, 64
1, 11351, Note_on_c, 9, 42, 73
1, 11352, Note_off_c, 9, 42, 64
1, 11352, Note_on_c, 9, 35, 99
1, 11353, Note_on_c, 2, 70, 77
1, 11353, Note_off_c, 9, 35, 64
1, 11354, Note_off_c, 2, 70, 64
1, 11354, Note_off_c, 2, 66, 64
1, 11355, Note_on_c, 2, 66, 70
1, 11355, Note_on_c, 3, 78, 112
1, 11356, Note_off_c, 2, 66, 64
1, 11356, Note_off_c, 2, 58, 64
1, 11371, Note_off_c, 1, 42, 64
1, 11373, Note_off_c, 4, 73, 64
1, 11373, Note_off_c, 4, 70, 64
1, 11374, Note_on_c, 2, 58, 25
1, 11374, Note_on_c, 4, 73, 92
1, 11374, Note_on_c, 4, 70, 83
1, 11375, Note_on_c, 2, 61, 64
1, 11375, Note_off_c, 3, 78, 64
1, 11375, Note_on_c, 9, 42, 73
1, 11376, Note_on_c, 2, 66, 75
1, 11376, Note_on_c, 3, 78, 108
1, 11376, Note_off_c, 9, 42, 64
1, 11376, Note_on_c, 9, 35, 113
1, 11377, Note_on_c, 2, 70, 78
1, 11377, Note_off_c, 9, 35, 64
1, 11389, Note_off_c, 2, 61, 64
1, 11390, Note_off_c, 2, 58, 64
1, 11391, Note_off_c, 2, 70, 64
1, 11393, Note_off_c, 2, 66, 64
1, 11397, Note_off_c, 4, 70, 64
1, 11397, Note_off_c, 4, 73, 64
1, 11398, Note_on_c, 1, 42, 112
1, 11398, Note_on_c, 4, 70, 89
1, 11398, Note_on_c, 4, 73, 97
1, 11399, Note_on_c, 9, 42, 71
1, 11400, Note_off_c, 9, 42, 64
1, 11401, Note_off_c, 3, 78, 64
1, 11403, Note_on_c, 3, 78, 114
1, 11420, Note_off_c, 1, 42, 64
1, 11421, Note_on_c, 2, 58, 37
1, 11422, Note_on_c, 1, 37, 110
1, 11423, Note_on_c, 2, 61, 74
1, 11423, Note_on_c, 9, 38, 123
1, 11423, Note_on_c, 9, 42, 80
1, 11424, Note_on_c, 2, 66, 79
1, 11424, Note_off_c, 9, 42, 64
1, 11424, Note_off_c, 9, 38, 64
1, 11426, Note_on_c, 2, 70, 80
1, 11444, Note_off_c, 3, 78, 64
1, 11445, Note_off_c, 1, 37, 64
1, 11445, Note_off_c, 4, 73, 64
1, 11445, Note_off_c, 4, 70, 64
1, 11446, Note_on_c, 1, 39, 108
1, 11446, Note_on_c, 4, 70, 97
1, 11446, Note_on_c, 4, 73, 103
1, 11446, Note_on_c, 9, 42, 70
1, 11447, Note_off_c, 9, 42, 64
1, 11448, Note_on_c, 3, 78, 116
1, 11453, Note_off_c, 2, 61, 64
1, 11458, Note_off_c, 2, 58, 64
1, 11459, Note_off_c, 2, 66, 64
1, 11459, Note_off_c, 2, 70, 64
1, 11470, Note_off_c, 1, 39, 64
1, 11470, Note_on_c, 9, 42, 80
1, 11471, Note_on_c, 1, 42, 112
1, 11471, Note_off_c, 9, 42, 64
1, 11474, Note_on_c, 2, 70, 79
1, 11475, Note_off_c, 0, 66, 64
1, 11475, Note_off_c, 2, 70, 64
1, 11475, Note_on_c, 2, 66, 77
1, 11476, Note_off_c, 2, 66, 64
1, 11476, Note_on_c, 2, 61, 50
1, 11477, Note_off_c, 2, 61, 64
1, 11479, Note_off_c, 0, 61, 64
1, 11480, Note_off_c, 0, 58, 64
1, 11495, Note_on_c, 9, 42, 70
1, 11496, Note_off_c, 1, 42, 64
1, 11496, Note_off_c, 3, 78, 64
1, 11496, Note_off_c, 9, 42, 64
1, 11496, Note_on_c, 9, 35, 113
1, 11497, Note_off_c, 9, 35, 64
1, 11515, Note_off_c, 7, 78, 64
1, 11516, Note_off_c, 7, 73, 64
1, 11516, Note_off_c, 7, 70, 64
1, 11517, Note_on_c, 3, 82, 109
1, 11517, Note_off_c, 4, 73, 64
1, 11517, Note_off_c, 4, 70, 64
1, 11518, Note_on_c, 0, 61, 105
1, 11518, Note_on_c, 4, 82, 102
1, 11518, Note_on_c, 4, 73, 97
1, 11518, Note_on_c, 4, 70, 95
1, 11518, Note_on_c, 7, 73, 68
1, 11518, Note_on_c, 7, 70, 64
1, 11518, Note_on_c, 7, 77, 77
1, 11519, Note_on_c, 0, 58, 91
1, 11519, Note_on_c, 0, 65, 96
1, 11519, Note_on_c, 9, 42, 83
1, 11520, Note_off_c, 9, 42, 64
1, 11520, Note_on_c, 9, 35, 121
1, 11521, Note_on_c, 1, 46, 108
1, 11521, Note_off_c, 9, 35, 64
1, 11522, Note_on_c, 2, 61, 63
1, 11523, Note_on_c, 2, 65, 81
1, 11524, Note_on_c, 2, 70, 80
1, 11543, Note_on_c, 9, 42, 68
1, 11544, Note_off_c, 9, 42, 64
1, 11563, Note_off_c, 1, 46, 64
1, 11567, Note_on_c, 9, 42, 77
1, 11568, Note_off_c, 9, 42, 64
1, 11587, Note_off_c, 2, 70, 64
1, 11589, Note_off_c, 2, 65, 64
1, 11589, Note_off_c, 4, 70, 64
1, 11589, Note_off_c, 4, 73, 64
1, 11590, Note_on_c, 1, 46, 105
1, 11590, Note_on_c, 2, 65, 78
1, 11590, Note_on_c, 3, 80, 108
1, 11590, Note_off_c, 4, 82, 64
1, 11590, Note_on_c, 4, 70, 93
1, 11590, Note_on_c, 4, 73, 93
1, 11590, Note_on_c, 4, 80, 98
1, 11591, Note_on_c, 9, 35, 117
1, 11592, Note_on_c, 2, 70, 75
1, 11592, Note_off_c, 9, 35, 64
1, 11592, Note_on_c, 9, 42, 70
1, 11593, Note_off_c, 3, 82, 64
1, 11593, Note_off_c, 9, 42, 64
1, 11607, Note_off_c, 1, 46, 64
1, 11614, Note_off_c, 2, 61, 64
1, 11615, Note_on_c, 1, 46, 106
1, 11615, Note_off_c, 2, 70, 64
1, 11615, Note_off_c, 2, 65, 64
1, 11615, Note_on_c, 2, 58, 59
1, 11615, Note_on_c, 2, 61, 76
1, 11615, Note_on_c, 9, 38, 118
1, 11615, Note_on_c, 9, 42, 85
1, 11616, Note_off_c, 9, 42, 64
1, 11616, Note_off_c, 9, 38, 64
1, 11617, Note_on_c, 2, 65, 79
1, 11618, Note_on_c, 2, 70, 81
1, 11633, Note_off_c, 2, 65, 64
1, 11634, Note_off_c, 2, 58, 64
1, 11634, Note_off_c, 2, 61, 64
1, 11638, Note_off_c, 2, 70, 64
1, 11638, Note_off_c, 4, 80, 64
1, 11638, Note_on_c, 4, 78, 91
1, 11639, Note_on_c, 9, 42, 69
1, 11640, Note_off_c, 9, 42, 64
1, 11653, Note_off_c, 1, 46, 64
1, 11662, Note_off_c, 4, 78, 64
1, 11662, Note_off_c, 4, 73, 64
1, 11662, Note_off_c, 4, 70, 64
1, 11662, Note_on_c, 4, 75, 90
1, 11664, Note_on_c, 9, 42, 78
1, 11665, Note_off_c, 9, 42, 64
1, 11667, Note_off_c, 3, 80, 64
1, 11686, Note_on_c, 2, 65, 77
1, 11686, Note_off_c, 4, 75, 64
1, 11686, Note_on_c, 4, 73, 93
1, 11686, Note_on_c, 9, 35, 106
1, 11687, Note_off_c, 9, 35, 64
1, 11688, Note_on_c, 2, 61, 61
1, 11688, Note_on_c, 2, 70, 77
1, 11689, Note_on_c, 9, 42, 71
1, 11690, Note_off_c, 9, 42, 64
1, 11711, Note_on_c, 9, 35, 118
1, 11712, Note_off_c, 9, 35, 64
1, 11712, Note_on_c, 9, 42, 82
1, 11713, Note_off_c, 9, 42, 64
1, 11734, Note_off_c, 4, 73, 64
1, 11735, Note_off_c, 2, 70, 64
1, 11735, Note_on_c, 9, 35, 123
1, 11735, Note_on_c, 9, 42, 73
1, 11736, Note_off_c, 9, 42, 64
1, 11736, Note_off_c, 9, 35, 64
1, 11737, Note_on_c, 1, 46, 111
1, 11738, Note_off_c, 2, 61, 64
1, 11738, Note_off_c, 2, 65, 64
1, 11739, Note_on_c, 2, 65, 77
1, 11739, Note_on_c, 2, 70, 78
1, 11739, Note_on_c, 2, 61, 58
1, 11758, Note_off_c, 2, 61, 64
1, 11758, Note_on_c, 9, 42, 77
1, 11759, Note_off_c, 2, 65, 64
1, 11759, Note_on_c, 2, 61, 77
1, 11759, Note_off_c, 9, 42, 64
1, 11760, Note_off_c, 1, 46, 64
1, 11760, Note_off_c, 2, 61, 64
1, 11761, Note_off_c, 2, 70, 64
1, 11761, Note_on_c, 2, 65, 77
1, 11762, Note_off_c, 2, 65, 64
1, 11762, Note_on_c, 2, 70, 82
1, 11763, Note_off_c, 2, 70, 64
1, 11782, Note_on_c, 1, 46, 109
1, 11784, Note_on_c, 9, 35, 125
1, 11784, Note_on_c, 9, 42, 71
1, 11785, Note_off_c, 9, 42, 64
1, 11785, Note_off_c, 9, 35, 64
1, 11804, Note_on_c, 3, 73, 105
1, 11806, Note_off_c, 1, 46, 64
1, 11806, Note_on_c, 4, 73, 88
1, 11807, Note_on_c, 1, 41, 107
1, 11807, Note_on_c, 9, 42, 82
1, 11808, Note_on_c, 2, 58, 60
1, 11808, Note_off_c, 9, 42, 64
1, 11808, Note_on_c, 9, 38, 122
1, 11809, Note_off_c, 9, 38, 64
1, 11828, Note_off_c, 3, 73, 64
1, 11829, Note_on_c, 3, 73, 94
1, 11829, Note_off_c, 4, 73, 64
1, 11830, Note_off_c, 1, 41, 64
1, 11830, Note_on_c, 4, 73, 86
1, 11830, Note_on_c, 9, 42, 69
1, 11831, Note_on_c, 1, 44, 109
1, 11831, Note_off_c, 9, 42, 64
1, 11834, Note_on_c, 2, 65, 77
1, 11835, Note_on_c, 2, 61, 73
1, 11837, Note_off_c, 0, 65, 64
1, 11837, Note_on_c, 2, 70, 74
1, 11842, Note_off_c, 0, 58, 64
1, 11843, Note_off_c, 0, 61, 64
1, 11844, Note_off_c, 2, 58, 64
1, 11849, Note_off_c, 2, 65, 64
1, 11849, Note_off_c, 2, 61, 64
1, 11849, Note_off_c, 2, 70, 64
1, 11850, Note_off_c, 3, 73, 64
1, 11851, Note_on_c, 3, 73, 102
1, 11853, Note_off_c, 4, 73, 64
1, 11854, Note_on_c, 4, 73, 95
1, 11854, Note_on_c, 9, 42, 76
1, 11855, Note_off_c, 9, 42, 64
1, 11856, Note_off_c, 1, 44, 64
1, 11857, Note_on_c, 1, 46, 107
1, 11878, Note_off_c, 1, 46, 64
1, 11879, Note_on_c, 9, 42, 70
1, 11880, Note_off_c, 9, 42, 64
1, 11880, Note_on_c, 9, 35, 107
1, 11881, Note_off_c, 9, 35, 64
1, 11898, Note_off_c, 3, 73, 64
1, 11899, Note_off_c, 7, 77, 64
1, 11900, Note_on_c, 0, 66, 105
1, 11900, Note_on_c, 0, 63, 103
1, 11900, Note_off_c, 7, 70, 64
1, 11900, Note_off_c, 7, 73, 64
1, 11901, Note_on_c, 0, 59, 93
1, 11901, Note_on_c, 2, 59, 36
1, 11901, Note_on_c, 3, 80, 105
1, 11901, Note_on_c, 7, 71, 66
1, 11901, Note_on_c, 7, 78, 72
1, 11901, Note_on_c, 7, 75, 77
1, 11902, Note_off_c, 4, 73, 64
1, 11902, Note_on_c, 4, 75, 95
1, 11902, Note_on_c, 4, 71, 86
1, 11903, Note_on_c, 2, 63, 73
1, 11903, Note_on_c, 9, 42, 81
1, 11904, Note_on_c, 2, 66, 78
1, 11904, Note_off_c, 9, 42, 64
1, 11905, Note_on_c, 1, 47, 111
1, 11905, Note_on_c, 2, 71, 79
1, 11905, Note_on_c, 9, 35, 121
1, 11906, Note_off_c, 9, 35, 64
1, 11926, Note_on_c, 9, 42, 73
1, 11927, Note_off_c, 9, 42, 64
1, 11944, Note_off_c, 1, 47, 64
1, 11950, Note_on_c, 9, 42, 76
1, 11951, Note_off_c, 9, 42, 64
1, 11971, Note_off_c, 2, 71, 64
1, 11971, Note_on_c, 3, 78, 106
1, 11972, Note_off_c, 3, 80, 64
1, 11973, Note_on_c, 2, 71, 77
1, 11973, Note_off_c, 4, 71, 64
1, 11973, Note_off_c, 4, 75, 64
1, 11974, Note_off_c, 2, 66, 64
1, 11974, Note_on_c, 4, 75, 97
1, 11974, Note_on_c, 4, 71, 92
1, 11975, Note_on_c, 1, 47, 103
1, 11975, Note_on_c, 2, 66, 73
1, 11975, Note_on_c, 9, 35, 118
1, 11976, Note_off_c, 9, 35, 64
1, 11977, Note_on_c, 9, 42, 70
1, 11978, Note_off_c, 9, 42, 64
1, 11990, Note_off_c, 1, 47, 64
1, 11996, Note_off_c, 2, 59, 64
1, 11997, Note_on_c, 2, 59, 46
1, 11998, Note_off_c, 2, 63, 64
1, 11999, Note_off_c, 2, 66, 64
1, 11999, Note_on_c, 2, 63, 74
1, 11999, Note_on_c, 9, 38, 119
1, 11999, Note_on_c, 9, 42, 83
1, 12000, Note_on_c, 1, 47, 110
1, 12000, Note_on_c, 2, 66, 78
1, 12000, Note_off_c, 9, 42, 64
1, 12000, Note_off_c, 9, 38, 64
1, 12001, Note_off_c, 2, 71, 64
1, 12002, Note_on_c, 2, 71, 77
1, 12012, Note_off_c, 2, 59, 64
1, 12017, Note_off_c, 2, 66, 64
1, 12017, Note_off_c, 2, 71, 64
1, 12018, Note_off_c, 2, 63, 64
1, 12022, Note_on_c, 9, 42, 72
1, 12023, Note_off_c, 9, 42, 64
1, 12034, Note_off_c, 3, 78, 64
1, 12038, Note_off_c, 1, 47, 64
1, 12047, Note_on_c, 9, 42, 77
1, 12048, Note_off_c, 4, 71, 64
1, 12048, Note_off_c, 9, 42, 64
1, 12052, Note_off_c, 4, 75, 64
1, 12071, Note_on_c, 9, 35, 115
1, 12071, Note_on_c, 9, 42, 72
1, 12072, Note_on_c, 2, 66, 75
1, 12072, Note_on_c, 2, 71, 71
1, 12072, Note_off_c, 9, 42, 64
1, 12072, Note_off_c, 9, 35, 64
1, 12073, Note_on_c, 2, 63, 57
1, 12095, Note_on_c, 9, 42, 80
1, 12096, Note_off_c, 9, 42, 64
1, 12096, Note_on_c, 9, 35, 125
1, 12097, Note_off_c, 9, 35, 64
1, 12118, Note_on_c, 9, 42, 73
1, 12119, Note_on_c, 1, 47, 110
1, 12119, Note_off_c, 9, 42, 64
1, 12138, Note_off_c, 2, 63, 64
1, 12139, Note_on_c, 2, 63, 48
1, 12140, Note_off_c, 2, 66, 64
1, 12141, Note_on_c, 2, 66, 79
1, 12142, Note_off_c, 2, 71, 64
1, 12143, Note_off_c, 1, 47, 64
1, 12143, Note_on_c, 2, 71, 82
1, 12143, Note_on_c, 9, 35, 127
1, 12143, Note_on_c, 9, 42, 82
1, 12144, Note_off_c, 9, 42, 64
1, 12144, Note_off_c, 9, 35, 64
1, 12153, Note_off_c, 2, 63, 64
1, 12154, Note_off_c, 2, 71, 64
1, 12154, Note_off_c, 2, 66, 64
1, 12166, Note_on_c, 9, 46, 81
1, 12167, Note_on_c, 1, 47, 112
1, 12167, Note_off_c, 9, 46, 64
1, 12187, Note_on_c, 2, 59, 56
1, 12188, Note_off_c, 2, 59, 64
1, 12188, Note_on_c, 3, 78, 109
1, 12188, Note_on_c, 4, 75, 96
1, 12188, Note_on_c, 4, 71, 95
1, 12189, Note_on_c, 2, 63, 72
1, 12190, Note_off_c, 1, 47, 64
1, 12190, Note_off_c, 2, 63, 64
1, 12190, Note_on_c, 2, 66, 79
1, 12190, Note_on_c, 9, 38, 120
1, 12191, Note_on_c, 1, 42, 112
1, 12191, Note_off_c, 2, 66, 64
1, 12191, Note_on_c, 2, 71, 81
1, 12191, Note_off_c, 9, 38, 64
1, 12191, Note_on_c, 9, 42, 76
1, 12192, Note_off_c, 2, 71, 64
1, 12192, Note_off_c, 9, 42, 64
1, 12209, Note_off_c, 3, 78, 64
1, 12211, Note_on_c, 3, 78, 107
1, 12211, Note_off_c, 4, 71, 64
1, 12211, Note_off_c, 4, 75, 64
1, 12212, Note_on_c, 4, 71, 97
1, 12212, Note_on_c, 4, 75, 92
1, 12213, Note_on_c, 2, 71, 77
1, 12214, Note_off_c, 1, 42, 64
1, 12214, Note_off_c, 2, 71, 64
1, 12214, Note_on_c, 9, 42, 73
1, 12215, Note_on_c, 1, 44, 106
1, 12215, Note_on_c, 2, 66, 78
1, 12215, Note_off_c, 9, 42, 64
1, 12216, Note_off_c, 2, 66, 64
1, 12234, Note_off_c, 0, 63, 64
1, 12236, Note_off_c, 0, 66, 64
1, 12236, Note_off_c, 3, 78, 64
1, 12238, Note_on_c, 2, 63, 55
1, 12238, Note_on_c, 9, 42, 74
1, 12239, Note_on_c, 2, 71, 79
1, 12239, Note_on_c, 2, 66, 79
1, 12239, Note_off_c, 9, 42, 64
1, 12240, Note_off_c, 0, 59, 64
1, 12240, Note_off_c, 1, 44, 64
1, 12241, Note_on_c, 1, 47, 112
1, 12248, Note_off_c, 4, 75, 64
1, 12248, Note_off_c, 4, 71, 64
1, 12254, Note_off_c, 2, 66, 64
1, 12254, Note_off_c, 2, 71, 64
1, 12254, Note_off_c, 2, 63, 64
1, 12262, Note_on_c, 9, 42, 72
1, 12263, Note_off_c, 9, 42, 64
1, 12265, Note_on_c, 9, 35, 117
1, 12266, Note_off_c, 9, 35, 64
1, 12270, Note_off_c, 1, 47, 64
1, 12281, Note_off_c, 7, 75, 64
1, 12283, Note_on_c, 2, 59, 41
1, 12283, Note_off_c, 7, 71, 64
1, 12284, Note_on_c, 2, 62, 73
1, 12284, Note_off_c, 7, 78, 64
1, 12285, Note_on_c, 2, 66, 77
1, 12285, Note_on_c, 7, 71, 72
1, 12285, Note_on_c, 7, 78, 75
1, 12285, Note_on_c, 7, 74, 74
1, 12286, Note_on_c, 0, 62, 95
1, 12286, Note_on_c, 0, 66, 101
1, 12286, Note_on_c, 0, 59, 93
1, 12286, Note_on_c, 2, 71, 81
1, 12287, Note_on_c, 1, 47, 107
1, 12287, Note_on_c, 9, 42, 81
1, 12288, Note_off_c, 9, 42, 64
1, 12289, Note_on_c, 9, 35, 125
1, 12290, Note_off_c, 9, 35, 64
1, 12308, Note_on_c, 4, 71, 95
1, 12308, Note_on_c, 4, 74, 95
1, 12309, Note_on_c, 3, 80, 111
1, 12311, Note_on_c, 9, 42, 73
1, 12312, Note_off_c, 9, 42, 64
1, 12324, Note_off_c, 1, 47, 64
1, 12335, Note_on_c, 9, 42, 76
1, 12336, Note_off_c, 9, 42, 64
1, 12354, Note_off_c, 3, 80, 64
1, 12355, Note_off_c, 4, 74, 64
1, 12355, Note_off_c, 4, 71, 64
1, 12356, Note_off_c, 2, 71, 64
1, 12356, Note_on_c, 4, 71, 89
1, 12356, Note_on_c, 4, 74, 89
1, 12358, Note_on_c, 1, 47, 105
1, 12358, Note_on_c, 2, 71, 77
1, 12359, Note_off_c, 2, 66, 64
1, 12359, Note_on_c, 3, 78, 101
1, 12359, Note_on_c, 9, 35, 111
1, 12359, Note_on_c, 9, 42, 73
1, 12360, Note_on_c, 2, 66, 76
1, 12360, Note_off_c, 9, 42, 64
1, 12360, Note_off_c, 9, 35, 64
1, 12371, Note_off_c, 1, 47, 64
1, 12379, Note_off_c, 4, 74, 64
1, 12379, Note_off_c, 4, 71, 64
1, 12380, Note_on_c, 4, 74, 87
1, 12380, Note_on_c, 4, 71, 91
1, 12382, Note_on_c, 1, 47, 108
1, 12382, Note_off_c, 2, 59, 64
1, 12382, Note_off_c, 2, 62, 64
1, 12382, Note_on_c, 3, 80, 109
1, 12382, Note_on_c, 9, 42, 79
1, 12383, Note_off_c, 2, 71, 64
1, 12383, Note_off_c, 2, 66, 64
1, 12383, Note_on_c, 2, 59, 59
1, 12383, Note_on_c, 2, 62, 77
1, 12383, Note_off_c, 3, 78, 64
1, 12383, Note_off_c, 9, 42, 64
1, 12384, Note_on_c, 2, 66, 80
1, 12385, Note_on_c, 9, 38, 119
1, 12386, Note_on_c, 2, 71, 73
1, 12386, Note_off_c, 9, 38, 64
1, 12401, Note_off_c, 2, 62, 64
1, 12402, Note_off_c, 2, 59, 64
1, 12402, Note_off_c, 2, 66, 64
1, 12404, Note_off_c, 2, 71, 64
1, 12406, Note_on_c, 9, 42, 70
1, 12407, Note_off_c, 1, 47, 64
1, 12407, Note_off_c, 9, 42, 64
1, 12427, Note_off_c, 4, 71, 64
1, 12427, Note_off_c, 4, 74, 64
1, 12428, Note_on_c, 3, 78, 98
1, 12428, Note_on_c, 4, 74, 91
1, 12428, Note_on_c, 4, 71, 92
1, 12430, Note_off_c, 3, 80, 64
1, 12431, Note_on_c, 9, 42, 77
1, 12432, Note_off_c, 9, 42, 64
1, 12450, Note_off_c, 3, 78, 64
1, 12451, Note_off_c, 4, 71, 64
1, 12451, Note_off_c, 4, 74, 64
1, 12452, Note_on_c, 4, 71, 91
1, 12452, Note_on_c, 4, 74, 89
1, 12453, Note_on_c, 2, 71, 76
1, 12453, Note_on_c, 3, 78, 103
1, 12454, Note_on_c, 2, 66, 76
1, 12454, Note_on_c, 9, 42, 71
1, 12455, Note_on_c, 2, 62, 51
1, 12455, Note_off_c, 9, 42, 64
1, 12455, Note_on_c, 9, 35, 114
1, 12456, Note_off_c, 9, 35, 64
1, 12477, Note_off_c, 2, 71, 64
1, 12477, Note_on_c, 2, 59, 66
1, 12478, Note_off_c, 2, 59, 64
1, 12478, Note_off_c, 2, 62, 64
1, 12478, Note_off_c, 2, 66, 64
1, 12479, Note_on_c, 2, 62, 77
1, 12479, Note_on_c, 2, 66, 78
1, 12479, Note_on_c, 2, 71, 80
1, 12479, Note_on_c, 9, 35, 127
1, 12479, Note_on_c, 9, 42, 80
1, 12480, Note_off_c, 2, 71, 64
1, 12480, Note_off_c, 2, 66, 64
1, 12480, Note_off_c, 2, 62, 64
1, 12480, Note_off_c, 9, 42, 64
1, 12480, Note_off_c, 9, 35, 64
1, 12487, Note_off_c, 3, 78, 64
1, 12500, Note_off_c, 4, 74, 64
1, 12500, Note_off_c, 4, 71, 64
1, 12502, Note_on_c, 1, 50, 108
1, 12502, Note_on_c, 9, 42, 70
1, 12503, Note_off_c, 9, 42, 64
1, 12526, Note_off_c, 1, 50, 64
1, 12527, Note_on_c, 1, 49, 108
1, 12527, Note_on_c, 9, 42, 82
1, 12528, Note_off_c, 9, 42, 64
1, 12528, Note_on_c, 9, 35, 125
1, 12529, Note_off_c, 9, 35, 64
1, 12552, Note_off_c, 1, 49, 64
1, 12552, Note_on_c, 9, 42, 70
1, 12553, Note_on_c, 1, 47, 109
1, 12553, Note_off_c, 9, 42, 64
1, 12570, Note_on_c, 3, 75, 111
1, 12574, Note_off_c, 1, 47, 64
1, 12575, Note_on_c, 1, 44, 113
1, 12575, Note_on_c, 9, 38, 123
1, 12576, Note_off_c, 9, 38, 64
1, 12577, Note_on_c, 9, 42, 83
1, 12578, Note_off_c, 9, 42, 64
1, 12597, Note_on_c, 2, 59, 30
1, 12598, Note_off_c, 1, 44, 64
1, 12598, Note_on_c, 2, 62, 75
1, 12599, Note_on_c, 1, 42, 101
1, 12599, Note_on_c, 2, 66, 79
1, 12599, Note_on_c, 9, 46, 83
1, 12600, Note_off_c, 9, 46, 64
1, 12601, Note_on_c, 2, 71, 73
1, 12622, Note_off_c, 2, 71, 64
1, 12623, Note_off_c, 1, 42, 64
1, 12623, Note_off_c, 2, 66, 64
1, 12623, Note_on_c, 2, 71, 75
1, 12623, Note_on_c, 9, 38, 119
1, 12623, Note_on_c, 9, 42, 82
1, 12624, Note_on_c, 1, 38, 110
1, 12624, Note_on_c, 2, 66, 75
1, 12624, Note_off_c, 9, 42, 64
1, 12624, Note_off_c, 9, 38, 64
1, 12625, Note_on_c, 9, 35, 127
1, 12626, Note_off_c, 9, 35, 64
1, 12637, Note_off_c, 0, 62, 64
1, 12642, Note_off_c, 0, 59, 64
1, 12642, Note_off_c, 0, 66, 64
1, 12645, Note_off_c, 2, 66, 64
1, 12645, Note_off_c, 2, 71, 64
1, 12645, Note_off_c, 2, 62, 64
1, 12646, Note_on_c, 2, 71, 79
1, 12646, Note_on_c, 2, 62, 65
1, 12646, Note_on_c, 2, 66, 77
1, 12648, Note_off_c, 1, 38, 64
1, 12648, Note_on_c, 9, 35, 115
1, 12649, Note_on_c, 1, 35, 109
1, 12649, Note_off_c, 9, 35, 64
1, 12658, Note_off_c, 2, 71, 64
1, 12663, Note_off_c, 2, 66, 64
1, 12664, Note_off_c, 2, 59, 64
1, 12665, Note_off_c, 2, 62, 64
1, 12665, Note_on_c, 2, 51, 44
1, 12666, Note_on_c, 0, 63, 106
1, 12666, Note_on_c, 0, 61, 98
1, 12666, Note_on_c, 2, 66, 30
1, 12667, Note_on_c, 0, 58, 90
1, 12667, Note_on_c, 0, 66, 103
1, 12667, Note_on_c, 2, 58, 73
1, 12668, Note_off_c, 1, 35, 64
1, 12668, Note_on_c, 2, 63, 75
1, 12668, Note_off_c, 7, 74, 64
1, 12669, Note_on_c, 2, 70, 80
1, 12669, Note_off_c, 7, 78, 64
1, 12669, Note_off_c, 7, 71, 64
1, 12671, Note_on_c, 1, 39, 109
1, 12672, Note_on_c, 0, 39, 113
1, 12672, Note_on_c, 9, 35, 114
1, 12672, Note_on_c, 9, 49, 93
1, 12673, Note_on_c, 6, 46, 87
1, 12673, Note_on_c, 6, 51, 95
1, 12673, Note_off_c, 9, 49, 64
1, 12673, Note_off_c, 9, 35, 64
1, 12721, Note_on_c, 9, 42, 79
1, 12722, Note_off_c, 9, 42, 64
1, 12743, Note_off_c, 2, 70, 64
1, 12744, Note_on_c, 2, 70, 73
1, 12745, Note_off_c, 2, 66, 64
1, 12745, Note_on_c, 9, 35, 115
1, 12746, Note_on_c, 2, 66, 55
1, 12746, Note_off_c, 9, 35, 64
1, 12756, Note_off_c, 6, 46, 64
1, 12759, Note_off_c, 3, 75, 64
1, 12759, Note_off_c, 6, 51, 64
1, 12765, Note_off_c, 0, 39, 64
1, 12766, Note_on_c, 0, 34, 101
1, 12766, Note_off_c, 1, 39, 64
1, 12766, Note_off_c, 2, 66, 64
1, 12766, Note_off_c, 2, 70, 64
1, 12766, Note_off_c, 2, 63, 64
1, 12766, Note_off_c, 2, 58, 64
1, 12766, Note_on_c, 3, 75, 109
1, 12767, Note_on_c, 1, 34, 110
1, 12767, Note_on_c, 2, 58, 69
1, 12767, Note_on_c, 2, 63, 69
1, 12767, Note_on_c, 2, 70, 81
1, 12767, Note_on_c, 2, 66, 70
1, 12767, Note_on_c, 6, 46, 90
1, 12767, Note_on_c, 6, 51, 102
1, 12769, Note_on_c, 9, 38, 118
1, 12769, Note_on_c, 9, 42, 84
1, 12770, Note_off_c, 9, 42, 64
1, 12770, Note_off_c, 9, 38, 64
1, 12775, Note_off_c, 2, 51, 64
1, 12781, Note_off_c, 2, 58, 64
1, 12781, Note_off_c, 2, 66, 64
1, 12782, Note_off_c, 2, 63, 64
1, 12782, Note_off_c, 2, 70, 64
1, 12790, Note_on_c, 0, 37, 91
1, 12791, Note_off_c, 1, 34, 64
1, 12792, Note_on_c, 1, 37, 109
1, 12794, Note_off_c, 6, 46, 64
1, 12794, Note_on_c, 9, 42, 69
1, 12795, Note_off_c, 6, 51, 64
1, 12795, Note_off_c, 9, 42, 64
1, 12797, Note_off_c, 0, 34, 64
1, 12815, Note_on_c, 0, 39, 109
1, 12815, Note_off_c, 1, 37, 64
1, 12816, Note_on_c, 1, 39, 108
1, 12817, Note_off_c, 3, 75, 64
1, 12817, Note_on_c, 9, 42, 73
1, 12818, Note_off_c, 9, 42, 64
1, 12819, Note_on_c, 3, 75, 103
1, 12820, Note_off_c, 0, 37, 64
1, 12839, Note_on_c, 3, 63, 93
1, 12840, Note_on_c, 2, 70, 77
1, 12840, Note_on_c, 9, 35, 104
1, 12840, Note_on_c, 9, 42, 70
1, 12841, Note_off_c, 0, 39, 64
1, 12841, Note_on_c, 2, 66, 77
1, 12841, Note_off_c, 9, 42, 64
1, 12841, Note_off_c, 9, 35, 64
1, 12842, Note_on_c, 2, 63, 50
1, 12842, Note_off_c, 3, 75, 64
1, 12844, Note_on_c, 2, 58, 30
1, 12848, Note_off_c, 1, 39, 64
1, 12863, Note_off_c, 0, 66, 64
1, 12863, Note_off_c, 0, 61, 64
1, 12863, Note_off_c, 2, 63, 64
1, 12864, Note_off_c, 2, 66, 64
1, 12864, Note_on_c, 2, 63, 66
1, 12864, Note_on_c, 9, 35, 121
1, 12864, Note_on_c, 9, 42, 80
1, 12865, Note_off_c, 0, 58, 64
1, 12865, Note_off_c, 0, 63, 64
1, 12865, Note_off_c, 2, 70, 64
1, 12865, Note_on_c, 2, 66, 76
1, 12865, Note_off_c, 9, 42, 64
1, 12865, Note_off_c, 9, 35, 64
1, 12866, Note_on_c, 2, 70, 80
1, 12876, Note_off_c, 2, 58, 64
1, 12880, Note_off_c, 2, 63, 64
1, 12880, Note_off_c, 2, 66, 64
1, 12881, Note_off_c, 2, 70, 64
1, 12887, Note_on_c, 9, 42, 69
1, 12888, Note_off_c, 9, 42, 64
1, 12889, Note_off_c, 3, 63, 64
1, 12910, Note_on_c, 2, 58, 61
1, 12911, Note_on_c, 2, 63, 74
1, 12911, Note_on_c, 2, 66, 73
1, 12911, Note_on_c, 2, 70, 64
1, 12911, Note_on_c, 9, 42, 74
1, 12912, Note_off_c, 9, 42, 64
1, 12923, Note_off_c, 2, 63, 64
1, 12923, Note_off_c, 2, 58, 64
1, 12924, Note_off_c, 2, 70, 64
1, 12926, Note_off_c, 2, 66, 64
1, 12934, Note_on_c, 0, 34, 106
1, 12934, Note_on_c, 6, 46, 80
1, 12935, Note_on_c, 9, 35, 101
1, 12935, Note_on_c, 9, 42, 71
1, 12936, Note_off_c, 9, 42, 64
1, 12936, Note_off_c, 9, 35, 64
1, 12946, Note_off_c, 6, 46, 64
1, 12949, Note_off_c, 0, 34, 64
1, 12958, Note_on_c, 6, 46, 92
1, 12959, Note_on_c, 0, 34, 123
1, 12959, Note_on_c, 2, 58, 66
1, 12959, Note_on_c, 2, 63, 72
1, 12959, Note_on_c, 9, 42, 81
1, 12960, Note_on_c, 2, 66, 73
1, 12960, Note_on_c, 2, 70, 57
1, 12960, Note_off_c, 9, 42, 64
1, 12961, Note_on_c, 9, 38, 116
1, 12962, Note_off_c, 9, 38, 64
1, 12971, Note_off_c, 2, 66, 64
1, 12974, Note_off_c, 2, 70, 64
1, 12978, Note_off_c, 6, 46, 64
1, 12982, Note_on_c, 9, 42, 69
1, 12983, Note_on_c, 0, 37, 97
1, 12983, Note_on_c, 6, 49, 108
1, 12983, Note_on_c, 6, 54, 104
1, 12983, Note_off_c, 9, 42, 64
1, 12984, Note_on_c, 0, 58, 98
1, 12985, Note_on_c, 0, 61, 108
1, 12985, Note_on_c, 0, 66, 113
1, 12985, Note_on_c, 0, 63, 109
1, 12985, Note_on_c, 2, 70, 76
1, 12985, Note_on_c, 2, 66, 73
1, 12988, Note_off_c, 0, 34, 64
1, 13002, Note_off_c, 0, 63, 64
1, 13003, Note_off_c, 0, 61, 64
1, 13003, Note_off_c, 0, 66, 64
1, 13004, Note_off_c, 0, 58, 64
1, 13007, Note_on_c, 0, 39, 103
1, 13007, Note_on_c, 9, 42, 70
1, 13008, Note_off_c, 9, 42, 64
1, 13009, Note_off_c, 2, 66, 64
1, 13009, Note_off_c, 2, 70, 64
1, 13009, Note_off_c, 2, 63, 64
1, 13010, Note_on_c, 2, 63, 71
1, 13010, Note_on_c, 2, 66, 77
1, 13010, Note_on_c, 2, 70, 79
1, 13014, Note_off_c, 6, 49, 64
1, 13016, Note_off_c, 0, 37, 64
1, 13016, Note_off_c, 6, 54, 64
1, 13022, Note_off_c, 2, 58, 64
1, 13024, Note_off_c, 2, 66, 64
1, 13025, Note_off_c, 2, 63, 64
1, 13025, Note_off_c, 2, 70, 64
1, 13031, Note_on_c, 0, 42, 108
1, 13031, Note_on_c, 1, 42, 110
1, 13031, Note_on_c, 9, 35, 103
1, 13032, Note_off_c, 9, 35, 64
1, 13032, Note_on_c, 9, 42, 73
1, 13033, Note_off_c, 9, 42, 64
1, 13036, Note_off_c, 0, 39, 64
1, 13055, Note_on_c, 0, 66, 90
1, 13055, Note_on_c, 6, 46, 91
1, 13055, Note_on_c, 6, 51, 98
1, 13055, Note_on_c, 9, 35, 121
1, 13055, Note_on_c, 9, 42, 80
1, 13056, Note_on_c, 0, 63, 86
1, 13056, Note_on_c, 0, 61, 84
1, 13056, Note_off_c, 1, 42, 64
1, 13056, Note_on_c, 2, 51, 57
1, 13056, Note_on_c, 2, 66, 63
1, 13056, Note_off_c, 9, 42, 64
1, 13056, Note_off_c, 9, 35, 64
1, 13057, Note_off_c, 0, 42, 64
1, 13057, Note_on_c, 0, 58, 81
1, 13057, Note_on_c, 1, 39, 106
1, 13057, Note_on_c, 2, 58, 71
1, 13058, Note_on_c, 0, 39, 113
1, 13059, Note_on_c, 2, 63, 73
1, 13059, Note_on_c, 2, 70, 79
1, 13080, Note_on_c, 9, 42, 69
1, 13081, Note_off_c, 9, 42, 64
1, 13105, Note_on_c, 9, 42, 74
1, 13106, Note_off_c, 9, 42, 64
1, 13126, Note_off_c, 2, 70, 64
1, 13127, Note_off_c, 2, 66, 64
1, 13127, Note_on_c, 2, 70, 76
1, 13127, Note_on_c, 9, 42, 71
1, 13128, Note_off_c, 2, 63, 64
1, 13128, Note_on_c, 2, 66, 75
1, 13128, Note_off_c, 9, 42, 64
1, 13128, Note_on_c, 9, 35, 103
1, 13129, Note_on_c, 2, 63, 69
1, 13129, Note_off_c, 9, 35, 64
1, 13143, Note_off_c, 6, 46, 64
1, 13144, Note_off_c, 6, 51, 64
1, 13148, Note_on_c, 3, 75, 105
1, 13149, Note_off_c, 2, 58, 64
1, 13149, Note_on_c, 4, 78, 108
1, 13150, Note_off_c, 1, 39, 64
1, 13150, Note_off_c, 2, 66, 64
1, 13150, Note_off_c, 2, 70, 64
1, 13150, Note_off_c, 2, 63, 64
1, 13150, Note_on_c, 2, 58, 63
1, 13151, Note_on_c, 1, 34, 107
1, 13151, Note_on_c, 2, 66, 75
1, 13151, Note_on_c, 2, 63, 69
1, 13151, Note_on_c, 6, 46, 84
1, 13152, Note_off_c, 0, 39, 64
1, 13152, Note_on_c, 2, 70, 79
1, 13152, Note_on_c, 9, 42, 81
1, 13153, Note_on_c, 0, 34, 102
1, 13153, Note_on_c, 6, 51, 95
1, 13153, Note_off_c, 9, 42, 64
1, 13153, Note_on_c, 9, 38, 122
1, 13154, Note_off_c, 9, 38, 64
1, 13165, Note_off_c, 2, 63, 64
1, 13168, Note_off_c, 2, 66, 64
1, 13170, Note_off_c, 2, 70, 64
1, 13173, Note_off_c, 2, 58, 64
1, 13173, Note_on_c, 3, 77, 106
1, 13173, Note_off_c, 4, 78, 64
1, 13173, Note_on_c, 4, 80, 100
1, 13174, Note_off_c, 1, 34, 64
1, 13175, Note_on_c, 1, 37, 107
1, 13176, Note_off_c, 6, 51, 64
1, 13176, Note_off_c, 6, 46, 64
1, 13177, Note_on_c, 0, 37, 101
1, 13177, Note_on_c, 9, 42, 72
1, 13178, Note_off_c, 9, 42, 64
1, 13180, Note_off_c, 3, 75, 64
1, 13183, Note_off_c, 0, 34, 64
1, 13199, Note_off_c, 1, 37, 64
1, 13200, Note_on_c, 1, 39, 108
1, 13201, Note_on_c, 0, 39, 115
1, 13201, Note_on_c, 9, 42, 73
1, 13202, Note_off_c, 9, 42, 64
1, 13203, Note_off_c, 0, 37, 64
1, 13203, Note_on_c, 2, 66, 52
1, 13223, Note_on_c, 9, 35, 101
1, 13224, Note_off_c, 0, 39, 64
1, 13224, Note_off_c, 2, 66, 64
1, 13224, Note_off_c, 9, 35, 64
1, 13224, Note_on_c, 9, 42, 71
1, 13225, Note_on_c, 2, 70, 75
1, 13225, Note_on_c, 2, 66, 75
1, 13225, Note_off_c, 9, 42, 64
1, 13227, Note_on_c, 2, 63, 44
1, 13245, Note_off_c, 1, 39, 64
1, 13246, Note_off_c, 2, 63, 64
1, 13247, Note_off_c, 2, 66, 64
1, 13247, Note_on_c, 2, 63, 52
1, 13247, Note_on_c, 9, 35, 114
1, 13247, Note_on_c, 9, 42, 81
1, 13248, Note_off_c, 2, 63, 64
1, 13248, Note_off_c, 2, 70, 64
1, 13248, Note_on_c, 2, 66, 66
1, 13248, Note_off_c, 9, 42, 64
1, 13248, Note_off_c, 9, 35, 64
1, 13249, Note_off_c, 2, 66, 64
1, 13249, Note_on_c, 2, 70, 63
1, 13249, Note_off_c, 4, 80, 64
1, 13249, Note_on_c, 4, 82, 104
1, 13250, Note_off_c, 2, 70, 64
1, 13250, Note_off_c, 3, 77, 64
1, 13250, Note_on_c, 3, 78, 103
1, 13253, Note_off_c, 0, 66, 64
1, 13254, Note_off_c, 0, 61, 64
1, 13254, Note_off_c, 0, 63, 64
1, 13256, Note_off_c, 0, 58, 64
1, 13270, Note_on_c, 9, 42, 73
1, 13271, Note_on_c, 2, 70, 63
1, 13271, Note_off_c, 9, 42, 64
1, 13272, Note_off_c, 2, 70, 64
1, 13273, Note_on_c, 2, 66, 55
1, 13274, Note_off_c, 2, 66, 64
1, 13294, Note_on_c, 9, 42, 72
1, 13295, Note_on_c, 2, 63, 27
1, 13295, Note_off_c, 9, 42, 64
1, 13296, Note_off_c, 2, 63, 64
1, 13296, Note_on_c, 2, 66, 56
1, 13297, Note_off_c, 2, 66, 64
1, 13297, Note_on_c, 2, 70, 51
1, 13298, Note_off_c, 2, 70, 64
1, 13318, Note_on_c, 0, 34, 105
1, 13319, Note_on_c, 6, 46, 81
1, 13319, Note_on_c, 9, 35, 107
1, 13319, Note_on_c, 9, 42, 73
1, 13320, Note_on_c, 2, 70, 63
1, 13320, Note_off_c, 9, 42, 64
1, 13320, Note_off_c, 9, 35, 64
1, 13321, Note_off_c, 2, 70, 64
1, 13321, Note_on_c, 2, 66, 60
1, 13322, Note_off_c, 2, 66, 64
1, 13331, Note_off_c, 0, 34, 64
1, 13331, Note_off_c, 6, 46, 64
1, 13339, Note_off_c, 3, 78, 64
1, 13341, Note_on_c, 3, 77, 108
1, 13342, Note_on_c, 2, 58, 30
1, 13342, Note_off_c, 4, 82, 64
1, 13342, Note_on_c, 4, 80, 99
1, 13343, Note_on_c, 0, 34, 111
1, 13343, Note_on_c, 9, 42, 81
1, 13344, Note_on_c, 2, 63, 58
1, 13344, Note_on_c, 2, 66, 66
1, 13344, Note_on_c, 6, 46, 91
1, 13344, Note_off_c, 9, 42, 64
1, 13345, Note_on_c, 9, 38, 121
1, 13346, Note_on_c, 2, 70, 66
1, 13346, Note_off_c, 9, 38, 64
1, 13362, Note_off_c, 2, 70, 64
1, 13362, Note_off_c, 2, 66, 64
1, 13362, Note_off_c, 6, 46, 64
1, 13364, Note_off_c, 2, 63, 64
1, 13364, Note_off_c, 2, 58, 64
1, 13366, Note_on_c, 3, 75, 104
1, 13366, Note_off_c, 4, 80, 64
1, 13366, Note_on_c, 4, 78, 100
1, 13366, Note_on_c, 9, 42, 73
1, 13367, Note_on_c, 0, 58, 96
1, 13367, Note_on_c, 0, 61, 102
1, 13367, Note_on_c, 0, 63, 111
1, 13367, Note_on_c, 0, 66, 113
1, 13367, Note_on_c, 0, 37, 103
1, 13367, Note_on_c, 2, 70, 75
1, 13367, Note_on_c, 6, 49, 112
1, 13367, Note_on_c, 6, 54, 112
1, 13367, Note_off_c, 9, 42, 64
1, 13369, Note_on_c, 2, 66, 73
1, 13372, Note_off_c, 0, 34, 64
1, 13372, Note_off_c, 3, 77, 64
1, 13380, Note_off_c, 0, 66, 64
1, 13380, Note_off_c, 0, 63, 64
1, 13380, Note_off_c, 0, 61, 64
1, 13383, Note_off_c, 0, 58, 64
1, 13389, Note_off_c, 2, 66, 64
1, 13390, Note_on_c, 9, 42, 77
1, 13391, Note_on_c, 0, 39, 109
1, 13391, Note_on_c, 2, 63, 73
1, 13391, Note_off_c, 9, 42, 64
1, 13392, Note_off_c, 2, 70, 64
1, 13392, Note_on_c, 2, 66, 73
1, 13393, Note_on_c, 2, 70, 79
1, 13394, Note_off_c, 6, 54, 64
1, 13397, Note_off_c, 2, 51, 64
1, 13399, Note_off_c, 6, 49, 64
1, 13401, Note_off_c, 0, 37, 64
1, 13405, Note_off_c, 2, 70, 64
1, 13407, Note_off_c, 2, 66, 64
1, 13409, Note_off_c, 2, 63, 64
1, 13415, Note_on_c, 1, 41, 101
1, 13415, Note_on_c, 9, 35, 107
1, 13415, Note_on_c, 9, 42, 71
1, 13416, Note_on_c, 0, 42, 101
1, 13416, Note_off_c, 9, 42, 64
1, 13416, Note_off_c, 9, 35, 64
1, 13419, Note_off_c, 0, 39, 64
1, 13430, Note_off_c, 0, 42, 64
1, 13434, Note_off_c, 1, 41, 64
1, 13437, Note_off_c, 4, 78, 64
1, 13437, Note_on_c, 4, 77, 102
1, 13438, Note_on_c, 2, 58, 49
1, 13438, Note_on_c, 6, 49, 100
1, 13438, Note_on_c, 6, 53, 108
1, 13439, Note_on_c, 0, 65, 86
1, 13439, Note_on_c, 0, 61, 91
1, 13439, Note_on_c, 0, 56, 81
1, 13439, Note_on_c, 0, 58, 85
1, 13439, Note_on_c, 1, 46, 113
1, 13439, Note_on_c, 2, 61, 73
1, 13439, Note_on_c, 2, 65, 77
1, 13439, Note_on_c, 2, 70, 77
1, 13439, Note_on_c, 9, 35, 115
1, 13439, Note_on_c, 9, 42, 81
1, 13440, Note_off_c, 9, 42, 64
1, 13440, Note_off_c, 9, 35, 64
1, 13441, Note_on_c, 3, 73, 109
1, 13442, Note_on_c, 0, 46, 111
1, 13442, Note_off_c, 3, 75, 64
1, 13463, Note_on_c, 9, 42, 71
1, 13464, Note_off_c, 9, 42, 64
1, 13487, Note_on_c, 9, 42, 71
1, 13488, Note_off_c, 9, 42, 64
1, 13510, Note_off_c, 2, 70, 64
1, 13510, Note_on_c, 9, 42, 70
1, 13511, Note_off_c, 2, 65, 64
1, 13511, Note_off_c, 9, 42, 64
1, 13511, Note_on_c, 9, 35, 110
1, 13512, Note_on_c, 2, 65, 75
1, 13512, Note_off_c, 9, 35, 64
1, 13513, Note_on_c, 2, 70, 73
1, 13528, Note_off_c, 6, 49, 64
1, 13529, Note_off_c, 6, 53, 64
1, 13533, Note_off_c, 2, 58, 64
1, 13534, Note_off_c, 0, 46, 64
1, 13534, Note_off_c, 1, 46, 64
1, 13534, Note_off_c, 2, 61, 64
1, 13534, Note_off_c, 2, 65, 64
1, 13534, Note_off_c, 2, 70, 64
1, 13534, Note_on_c, 2, 58, 70
1, 13534, Note_on_c, 6, 49, 85
1, 13535, Note_on_c, 1, 41, 109
1, 13535, Note_on_c, 2, 70, 85
1, 13535, Note_on_c, 2, 61, 75
1, 13535, Note_on_c, 2, 65, 70
1, 13535, Note_on_c, 6, 53, 88
1, 13535, Note_on_c, 9, 38, 115
1, 13535, Note_on_c, 9, 42, 79
1, 13536, Note_off_c, 9, 42, 64
1, 13536, Note_off_c, 9, 38, 64
1, 13537, Note_on_c, 0, 41, 98
1, 13550, Note_off_c, 2, 61, 64
1, 13553, Note_off_c, 2, 58, 64
1, 13553, Note_off_c, 2, 70, 64
1, 13553, Note_off_c, 6, 49, 64
1, 13554, Note_off_c, 2, 65, 64
1, 13554, Note_off_c, 6, 53, 64
1, 13558, Note_off_c, 1, 41, 64
1, 13559, Note_on_c, 0, 44, 94
1, 13559, Note_on_c, 1, 44, 105
1, 13559, Note_on_c, 9, 42, 69
1, 13560, Note_off_c, 9, 42, 64
1, 13566, Note_off_c, 0, 41, 64
1, 13582, Note_off_c, 1, 44, 64
1, 13583, Note_on_c, 1, 46, 107
1, 13583, Note_on_c, 9, 42, 73
1, 13584, Note_off_c, 9, 42, 64
1, 13585, Note_on_c, 0, 46, 108
1, 13590, Note_off_c, 0, 44, 64
1, 13607, Note_on_c, 9, 35, 109
1, 13607, Note_on_c, 9, 42, 69
1, 13608, Note_off_c, 9, 42, 64
1, 13608, Note_off_c, 9, 35, 64
1, 13611, Note_off_c, 0, 46, 64
1, 13622, Note_off_c, 1, 46, 64
1, 13628, Note_off_c, 4, 77, 64
1, 13628, Note_on_c, 4, 73, 92
1, 13629, Note_off_c, 3, 73, 64
1, 13631, Note_on_c, 3, 70, 100
1, 13631, Note_on_c, 9, 42, 81
1, 13632, Note_off_c, 9, 42, 64
1, 13632, Note_on_c, 9, 35, 127
1, 13633, Note_off_c, 9, 35, 64
1, 13639, Note_off_c, 0, 58, 64
1, 13640, Note_off_c, 0, 61, 64
1, 13641, Note_off_c, 0, 65, 64
1, 13643, Note_off_c, 0, 56, 64
1, 13654, Note_on_c, 9, 42, 69
1, 13655, Note_off_c, 9, 42, 64
1, 13679, Note_on_c, 9, 42, 75
1, 13680, Note_off_c, 9, 42, 64
1, 13701, Note_on_c, 2, 70, 76
1, 13701, Note_on_c, 2, 65, 77
1, 13702, Note_on_c, 0, 41, 103
1, 13702, Note_on_c, 2, 61, 32
1, 13703, Note_on_c, 6, 41, 88
1, 13703, Note_on_c, 9, 35, 111
1, 13704, Note_off_c, 9, 35, 64
1, 13704, Note_on_c, 9, 42, 71
1, 13705, Note_off_c, 9, 42, 64
1, 13716, Note_off_c, 6, 41, 64
1, 13718, Note_off_c, 0, 41, 64
1, 13723, Note_off_c, 2, 61, 64
1, 13723, Note_off_c, 2, 65, 64
1, 13723, Note_off_c, 2, 70, 64
1, 13724, Note_on_c, 2, 58, 65
1, 13724, Note_on_c, 2, 61, 73
1, 13724, Note_on_c, 2, 65, 78
1, 13724, Note_on_c, 2, 70, 75
1, 13727, Note_on_c, 0, 41, 117
1, 13727, Note_on_c, 6, 41, 88
1, 13727, Note_on_c, 9, 42, 81
1, 13728, Note_off_c, 9, 42, 64
1, 13729, Note_on_c, 9, 38, 119
1, 13730, Note_off_c, 9, 38, 64
1, 13739, Note_off_c, 3, 70, 64
1, 13746, Note_off_c, 2, 70, 64
1, 13746, Note_off_c, 2, 65, 64
1, 13747, Note_off_c, 6, 41, 64
1, 13750, Note_on_c, 2, 65, 73
1, 13750, Note_on_c, 2, 70, 73
1, 13750, Note_on_c, 6, 49, 102
1, 13751, Note_on_c, 0, 44, 109
1, 13751, Note_on_c, 6, 53, 106
1, 13751, Note_on_c, 9, 42, 71
1, 13752, Note_on_c, 0, 58, 111
1, 13752, Note_off_c, 9, 42, 64
1, 13753, Note_on_c, 0, 65, 115
1, 13753, Note_on_c, 0, 56, 105
1, 13753, Note_on_c, 0, 61, 106
1, 13756, Note_off_c, 0, 41, 64
1, 13762, Note_off_c, 2, 61, 64
1, 13762, Note_off_c, 2, 58, 64
1, 13768, Note_off_c, 2, 65, 64
1, 13768, Note_off_c, 2, 70, 64
1, 13773, Note_off_c, 0, 56, 64
1, 13774, Note_off_c, 6, 49, 64
1, 13775, Note_off_c, 0, 61, 64
1, 13775, Note_on_c, 9, 42, 72
1, 13776, Note_off_c, 0, 58, 64
1, 13776, Note_off_c, 0, 65, 64
1, 13776, Note_on_c, 0, 46, 98
1, 13776, Note_off_c, 6, 53, 64
1, 13776, Note_off_c, 9, 42, 64
1, 13780, Note_off_c, 4, 73, 64
1, 13785, Note_off_c, 0, 44, 64
1, 13798, Note_on_c, 9, 35, 103
1, 13799, Note_on_c, 1, 49, 112
1, 13799, Note_off_c, 9, 35, 64
1, 13799, Note_on_c, 9, 42, 72
1, 13800, Note_on_c, 0, 49, 109
1, 13800, Note_off_c, 9, 42, 64
1, 13803, Note_off_c, 0, 46, 64
1, 13822, Note_off_c, 0, 49, 64
1, 13822, Note_on_c, 2, 58, 48
1, 13823, Note_on_c, 2, 61, 77
1, 13823, Note_on_c, 6, 49, 102
1, 13823, Note_on_c, 6, 53, 112
1, 13823, Note_on_c, 9, 35, 121
1, 13823, Note_on_c, 9, 42, 77
1, 13824, Note_off_c, 1, 49, 64
1, 13824, Note_on_c, 2, 65, 77
1, 13824, Note_off_c, 9, 42, 64
1, 13824, Note_off_c, 9, 35, 64
1, 13825, Note_on_c, 0, 65, 96
1, 13825, Note_on_c, 0, 58, 94
1, 13825, Note_on_c, 0, 61, 98
1, 13825, Note_on_c, 0, 56, 91
1, 13825, Note_on_c, 0, 46, 105
1, 13825, Note_on_c, 1, 46, 106
1, 13825, Note_on_c, 2, 70, 78
1, 13846, Note_on_c, 9, 42, 66
1, 13847, Note_off_c, 9, 42, 64
1, 13870, Note_on_c, 9, 42, 74
1, 13871, Note_off_c, 9, 42, 64
1, 13894, Note_on_c, 9, 42, 74
1, 13895, Note_off_c, 9, 42, 64
1, 13896, Note_off_c, 2, 70, 64
1, 13896, Note_on_c, 9, 35, 109
1, 13897, Note_off_c, 2, 65, 64
1, 13897, Note_on_c, 2, 70, 75
1, 13897, Note_off_c, 9, 35, 64
1, 13898, Note_on_c, 2, 65, 75
1, 13908, Note_off_c, 6, 53, 64
1, 13909, Note_off_c, 6, 49, 64
1, 13912, Note_off_c, 0, 46, 64
1, 13918, Note_on_c, 0, 41, 99
1, 13918, Note_off_c, 1, 46, 64
1, 13918, Note_on_c, 9, 42, 79
1, 13919, Note_on_c, 1, 41, 109
1, 13919, Note_on_c, 6, 49, 102
1, 13919, Note_on_c, 6, 53, 95
1, 13919, Note_off_c, 9, 42, 64
1, 13920, Note_off_c, 2, 61, 64
1, 13921, Note_off_c, 2, 65, 64
1, 13921, Note_on_c, 2, 61, 70
1, 13921, Note_on_c, 9, 38, 118
1, 13922, Note_off_c, 2, 70, 64
1, 13922, Note_off_c, 9, 38, 64
1, 13923, Note_on_c, 2, 65, 77
1, 13923, Note_on_c, 2, 70, 79
1, 13933, Note_off_c, 2, 61, 64
1, 13942, Note_on_c, 0, 44, 99
1, 13942, Note_off_c, 1, 41, 64
1, 13942, Note_on_c, 9, 42, 73
1, 13943, Note_on_c, 1, 44, 108
1, 13943, Note_off_c, 9, 42, 64
1, 13944, Note_off_c, 2, 58, 64
1, 13944, Note_off_c, 2, 65, 64
1, 13944, Note_off_c, 6, 53, 64
1, 13945, Note_off_c, 6, 49, 64
1, 13948, Note_off_c, 2, 70, 64
1, 13950, Note_off_c, 0, 41, 64
1, 13966, Note_off_c, 1, 44, 64
1, 13967, Note_on_c, 0, 46, 106
1, 13967, Note_on_c, 1, 46, 108
1, 13967, Note_on_c, 9, 42, 73
1, 13968, Note_off_c, 9, 42, 64
1, 13973, Note_off_c, 0, 44, 64
1, 13989, Note_off_c, 0, 46, 64
1, 13991, Note_on_c, 9, 35, 111
1, 13992, Note_on_c, 2, 70, 74
1, 13992, Note_off_c, 9, 35, 64
1, 13992, Note_on_c, 9, 42, 73
1, 13993, Note_off_c, 9, 42, 64
1, 13994, Note_on_c, 2, 65, 73
1, 13995, Note_on_c, 2, 61, 54
1, 14013, Note_off_c, 1, 46, 64
1, 14015, Note_off_c, 0, 65, 64
1, 14015, Note_on_c, 9, 35, 111
1, 14015, Note_on_c, 9, 42, 79
1, 14016, Note_off_c, 0, 56, 64
1, 14016, Note_off_c, 2, 61, 64
1, 14016, Note_off_c, 9, 42, 64
1, 14016, Note_off_c, 9, 35, 64
1, 14017, Note_off_c, 0, 61, 64
1, 14017, Note_off_c, 0, 58, 64
1, 14017, Note_off_c, 2, 65, 64
1, 14017, Note_on_c, 2, 61, 73
1, 14018, Note_on_c, 2, 65, 79
1, 14019, Note_off_c, 2, 70, 64
1, 14021, Note_on_c, 2, 70, 55
1, 14037, Note_off_c, 2, 65, 64
1, 14037, Note_off_c, 2, 61, 64
1, 14039, Note_off_c, 2, 70, 64
1, 14039, Note_on_c, 9, 42, 75
1, 14040, Note_off_c, 9, 42, 64
1, 14063, Note_on_c, 2, 58, 38
1, 14063, Note_on_c, 9, 42, 73
1, 14064, Note_off_c, 2, 58, 64
1, 14064, Note_on_c, 2, 61, 52
1, 14064, Note_off_c, 9, 42, 64
1, 14065, Note_off_c, 2, 61, 64
1, 14065, Note_on_c, 2, 65, 56
1, 14066, Note_off_c, 2, 65, 64
1, 14066, Note_on_c, 2, 70, 55
1, 14067, Note_off_c, 2, 70, 64
1, 14085, Note_on_c, 0, 41, 105
1, 14086, Note_on_c, 6, 41, 80
1, 14087, Note_on_c, 9, 35, 103
1, 14087, Note_on_c, 9, 42, 72
1, 14088, Note_on_c, 2, 65, 55
1, 14088, Note_off_c, 9, 42, 64
1, 14088, Note_off_c, 9, 35, 64
1, 14089, Note_off_c, 2, 65, 64
1, 14090, Note_on_c, 2, 70, 55
1, 14091, Note_off_c, 2, 70, 64
1, 14100, Note_off_c, 6, 41, 64
1, 14101, Note_off_c, 0, 41, 64
1, 14110, Note_on_c, 0, 41, 113
1, 14110, Note_on_c, 6, 41, 81
1, 14111, Note_on_c, 9, 42, 83
1, 14112, Note_off_c, 9, 42, 64
1, 14113, Note_on_c, 2, 61, 48
1, 14113, Note_on_c, 9, 38, 119
1, 14114, Note_off_c, 2, 61, 64
1, 14114, Note_on_c, 2, 65, 54
1, 14114, Note_off_c, 9, 38, 64
1, 14115, Note_off_c, 2, 65, 64
1, 14115, Note_on_c, 2, 70, 55
1, 14116, Note_off_c, 2, 70, 64
1, 14130, Note_off_c, 6, 41, 64
1, 14133, Note_on_c, 6, 49, 110
1, 14133, Note_on_c, 6, 53, 110
1, 14134, Note_on_c, 0, 56, 92
1, 14134, Note_on_c, 0, 65, 102
1, 14134, Note_on_c, 0, 58, 95
1, 14134, Note_on_c, 0, 44, 99
1, 14134, Note_on_c, 9, 42, 67
1, 14135, Note_on_c, 0, 61, 101
1, 14135, Note_off_c, 9, 42, 64
1, 14137, Note_on_c, 2, 65, 77
1, 14137, Note_on_c, 2, 70, 69
1, 14139, Note_on_c, 2, 58, 47
1, 14140, Note_off_c, 0, 41, 64
1, 14148, Note_off_c, 0, 58, 64
1, 14149, Note_off_c, 0, 56, 64
1, 14150, Note_off_c, 0, 61, 64
1, 14152, Note_off_c, 0, 65, 64
1, 14158, Note_off_c, 6, 53, 64
1, 14158, Note_off_c, 6, 49, 64
1, 14159, Note_on_c, 0, 46, 102
1, 14159, Note_off_c, 2, 70, 64
1, 14159, Note_off_c, 2, 65, 64
1, 14159, Note_on_c, 9, 42, 71
1, 14160, Note_on_c, 2, 61, 73
1, 14160, Note_on_c, 2, 65, 76
1, 14160, Note_on_c, 2, 70, 78
1, 14160, Note_off_c, 9, 42, 64
1, 14170, Note_off_c, 0, 44, 64
1, 14176, Note_off_c, 2, 70, 64
1, 14178, Note_off_c, 2, 58, 64
1, 14178, Note_off_c, 2, 61, 64
1, 14178, Note_off_c, 2, 65, 64
1, 14182, Note_on_c, 9, 35, 95
1, 14183, Note_on_c, 0, 49, 109
1, 14183, Note_off_c, 9, 35, 64
1, 14185, Note_on_c, 1, 49, 111
1, 14185, Note_on_c, 9, 42, 70
1, 14186, Note_off_c, 0, 46, 64
1, 14186, Note_off_c, 9, 42, 64
1, 14207, Note_on_c, 0, 63, 89
1, 14207, Note_on_c, 0, 61, 85
1, 14207, Note_on_c, 0, 58, 81
1, 14207, Note_on_c, 0, 66, 84
1, 14207, Note_on_c, 0, 39, 109
1, 14207, Note_on_c, 2, 58, 62
1, 14207, Note_on_c, 6, 46, 85
1, 14207, Note_on_c, 9, 35, 123
1, 14207, Note_on_c, 9, 42, 81
1, 14208, Note_off_c, 0, 49, 64
1, 14208, Note_off_c, 1, 49, 64
1, 14208, Note_on_c, 2, 63, 37
1, 14208, Note_on_c, 3, 75, 110
1, 14208, Note_off_c, 9, 42, 64
1, 14208, Note_off_c, 9, 35, 64
1, 14209, Note_on_c, 1, 39, 110
1, 14209, Note_on_c, 6, 51, 97
1, 14210, Note_on_c, 2, 66, 72
1, 14210, Note_on_c, 2, 70, 79
1, 14231, Note_on_c, 9, 42, 73
1, 14232, Note_off_c, 9, 42, 64
1, 14251, Note_off_c, 3, 75, 64
1, 14252, Note_on_c, 3, 75, 103
1, 14255, Note_on_c, 9, 42, 70
1, 14256, Note_off_c, 9, 42, 64
1, 14266, Note_off_c, 0, 39, 64
1, 14277, Note_on_c, 3, 78, 105
1, 14279, Note_off_c, 3, 75, 64
1, 14279, Note_on_c, 9, 42, 73
1, 14280, Note_off_c, 2, 63, 64
1, 14280, Note_off_c, 9, 42, 64
1, 14281, Note_on_c, 9, 35, 107
1, 14282, Note_off_c, 2, 70, 64
1, 14282, Note_off_c, 9, 35, 64
1, 14283, Note_off_c, 2, 66, 64
1, 14283, Note_off_c, 2, 58, 64
1, 14283, Note_on_c, 2, 70, 73
1, 14284, Note_on_c, 2, 66, 73
1, 14284, Note_on_c, 2, 63, 63
1, 14284, Note_on_c, 2, 58, 56
1, 14295, Note_off_c, 6, 46, 64
1, 14296, Note_off_c, 6, 51, 64
1, 14303, Note_on_c, 6, 46, 78
1, 14303, Note_on_c, 9, 42, 79
1, 14304, Note_on_c, 0, 34, 80
1, 14304, Note_off_c, 9, 42, 64
1, 14305, Note_off_c, 1, 39, 64
1, 14305, Note_on_c, 6, 51, 94
1, 14305, Note_on_c, 9, 38, 118
1, 14306, Note_on_c, 1, 34, 107
1, 14306, Note_off_c, 2, 66, 64
1, 14306, Note_off_c, 9, 38, 64
1, 14307, Note_off_c, 2, 63, 64
1, 14307, Note_on_c, 2, 66, 70
1, 14308, Note_off_c, 2, 70, 64
1, 14308, Note_on_c, 2, 63, 71
1, 14322, Note_off_c, 2, 63, 64
1, 14322, Note_off_c, 2, 66, 64
1, 14324, Note_off_c, 2, 58, 64
1, 14324, Note_off_c, 3, 78, 64
1, 14326, Note_on_c, 3, 78, 106
1, 14327, Note_on_c, 9, 42, 73
1, 14328, Note_on_c, 0, 37, 89
1, 14328, Note_off_c, 1, 34, 64
1, 14328, Note_off_c, 9, 42, 64
1, 14329, Note_on_c, 1, 37, 107
1, 14331, Note_off_c, 6, 46, 64
1, 14333, Note_off_c, 6, 51, 64
1, 14336, Note_off_c, 0, 34, 64
1, 14351, Note_off_c, 1, 37, 64
1, 14352, Note_on_c, 1, 39, 106
1, 14352, Note_on_c, 9, 42, 72
1, 14353, Note_on_c, 0, 39, 102
1, 14353, Note_off_c, 3, 78, 64
1, 14353, Note_on_c, 3, 75, 111
1, 14353, Note_off_c, 9, 42, 64
1, 14358, Note_off_c, 0, 37, 64
1, 14369, Note_off_c, 0, 66, 64
1, 14370, Note_off_c, 0, 63, 64
1, 14370, Note_off_c, 0, 61, 64
1, 14374, Note_off_c, 0, 58, 64
1, 14375, Note_on_c, 9, 35, 106
1, 14376, Note_off_c, 0, 39, 64
1, 14376, Note_off_c, 9, 35, 64
1, 14377, Note_on_c, 9, 42, 70
1, 14378, Note_off_c, 9, 42, 64
1, 14397, Note_off_c, 1, 39, 64
1, 14399, Note_on_c, 2, 58, 55
1, 14400, Note_on_c, 9, 42, 81
1, 14401, Note_on_c, 2, 63, 70
1, 14401, Note_off_c, 9, 42, 64
1, 14401, Note_on_c, 9, 35, 123
1, 14402, Note_on_c, 2, 66, 75
1, 14402, Note_on_c, 2, 70, 76
1, 14402, Note_off_c, 9, 35, 64
1, 14410, Note_off_c, 3, 75, 64
1, 14423, Note_on_c, 9, 42, 75
1, 14424, Note_off_c, 9, 42, 64
1, 14446, Note_off_c, 2, 58, 64
1, 14447, Note_off_c, 2, 63, 64
1, 14447, Note_on_c, 2, 58, 35
1, 14448, Note_off_c, 2, 58, 64
1, 14448, Note_off_c, 2, 66, 64
1, 14448, Note_on_c, 2, 63, 64
1, 14449, Note_off_c, 2, 63, 64
1, 14449, Note_off_c, 2, 70, 64
1, 14449, Note_on_c, 2, 66, 72
1, 14449, Note_on_c, 9, 42, 81
1, 14450, Note_off_c, 2, 66, 64
1, 14450, Note_on_c, 2, 70, 75
1, 14450, Note_off_c, 9, 42, 64
1, 14451, Note_off_c, 2, 70, 64
1, 14470, Note_on_c, 0, 34, 105
1, 14470, Note_on_c, 9, 35, 113
1, 14470, Note_on_c, 9, 46, 76
1, 14471, Note_on_c, 6, 46, 83
1, 14471, Note_off_c, 9, 46, 64
1, 14471, Note_off_c, 9, 35, 64
1, 14473, Note_on_c, 2, 70, 74
1, 14474, Note_off_c, 2, 70, 64
1, 14474, Note_on_c, 2, 66, 67
1, 14475, Note_off_c, 2, 66, 64
1, 14485, Note_off_c, 0, 34, 64
1, 14486, Note_off_c, 6, 46, 64
1, 14494, Note_on_c, 9, 38, 116
1, 14495, Note_on_c, 0, 34, 111
1, 14495, Note_off_c, 9, 38, 64
1, 14496, Note_on_c, 2, 63, 63
1, 14496, Note_on_c, 9, 42, 81
1, 14497, Note_on_c, 2, 66, 76
1, 14497, Note_on_c, 6, 46, 92
1, 14497, Note_off_c, 9, 42, 64
1, 14498, Note_on_c, 2, 70, 77
1, 14517, Note_off_c, 6, 46, 64
1, 14518, Note_on_c, 0, 58, 97
1, 14518, Note_on_c, 0, 61, 105
1, 14518, Note_on_c, 0, 66, 106
1, 14518, Note_on_c, 0, 63, 103
1, 14519, Note_on_c, 0, 37, 102
1, 14519, Note_on_c, 6, 49, 108
1, 14519, Note_on_c, 6, 54, 110
1, 14519, Note_on_c, 9, 42, 73
1, 14520, Note_off_c, 2, 70, 64
1, 14520, Note_off_c, 9, 42, 64
1, 14520, Note_on_c, 9, 35, 127
1, 14521, Note_off_c, 2, 66, 64
1, 14521, Note_on_c, 2, 70, 74
1, 14521, Note_off_c, 9, 35, 64
1, 14522, Note_on_c, 2, 66, 83
1, 14523, Note_off_c, 0, 34, 64
1, 14523, Note_on_c, 2, 58, 63
1, 14539, Note_off_c, 6, 49, 64
1, 14541, Note_off_c, 6, 54, 64
1, 14542, Note_on_c, 0, 39, 103
1, 14543, Note_on_c, 9, 42, 76
1, 14544, Note_off_c, 2, 58, 64
1, 14544, Note_off_c, 9, 42, 64
1, 14545, Note_off_c, 2, 63, 64
1, 14546, Note_off_c, 0, 63, 64
1, 14547, Note_off_c, 0, 66, 64
1, 14547, Note_off_c, 0, 61, 64
1, 14547, Note_off_c, 2, 66, 64
1, 14548, Note_off_c, 0, 58, 64
1, 14548, Note_off_c, 2, 70, 64
1, 14549, Note_off_c, 0, 37, 64
1, 14566, Note_on_c, 0, 42, 99
1, 14566, Note_on_c, 1, 42, 108
1, 14567, Note_on_c, 9, 35, 115
1, 14567, Note_on_c, 9, 42, 77
1, 14568, Note_off_c, 0, 39, 64
1, 14568, Note_off_c, 9, 42, 64
1, 14568, Note_off_c, 9, 35, 64
1, 14587, Note_on_c, 2, 51, 30
1, 14587, Note_on_c, 2, 58, 67
1, 14589, Note_off_c, 0, 42, 64
1, 14589, Note_on_c, 2, 63, 70
1, 14589, Note_on_c, 2, 66, 75
1, 14590, Note_on_c, 0, 61, 95
1, 14590, Note_on_c, 0, 63, 97
1, 14590, Note_on_c, 0, 58, 91
1, 14590, Note_on_c, 0, 66, 97
1, 14590, Note_off_c, 1, 42, 64
1, 14590, Note_on_c, 2, 70, 75
1, 14590, Note_on_c, 6, 46, 91
1, 14590, Note_on_c, 6, 51, 98
1, 14591, Note_on_c, 0, 39, 111
1, 14591, Note_on_c, 1, 39, 110
1, 14591, Note_on_c, 9, 35, 127
1, 14591, Note_on_c, 9, 42, 77
1, 14592, Note_off_c, 9, 42, 64
1, 14592, Note_off_c, 9, 35, 64
1, 14615, Note_on_c, 9, 46, 75
1, 14616, Note_off_c, 9, 46, 64
1, 14639, Note_on_c, 9, 42, 76
1, 14640, Note_off_c, 9, 42, 64
1, 14660, Note_off_c, 2, 70, 64
1, 14661, Note_off_c, 2, 66, 64
1, 14661, Note_on_c, 2, 70, 75
1, 14662, Note_off_c, 2, 63, 64
1, 14662, Note_on_c, 2, 66, 73
1, 14663, Note_on_c, 2, 63, 67
1, 14663, Note_on_c, 9, 35, 117
1, 14663, Note_on_c, 9, 42, 72
1, 14664, Note_off_c, 9, 42, 64
1, 14664, Note_off_c, 9, 35, 64
1, 14676, Note_off_c, 6, 46, 64
1, 14681, Note_off_c, 0, 39, 64
1, 14681, Note_off_c, 6, 51, 64
1, 14685, Note_off_c, 1, 39, 64
1, 14685, Note_off_c, 2, 63, 64
1, 14686, Note_on_c, 0, 34, 94
1, 14686, Note_off_c, 2, 66, 64
1, 14686, Note_on_c, 2, 63, 67
1, 14687, Note_on_c, 1, 34, 105
1, 14687, Note_off_c, 2, 70, 64
1, 14687, Note_on_c, 6, 46, 80
1, 14687, Note_on_c, 6, 51, 80
1, 14687, Note_on_c, 9, 38, 117
1, 14687, Note_on_c, 9, 42, 75
1, 14688, Note_on_c, 2, 66, 73
1, 14688, Note_on_c, 2, 70, 78
1, 14688, Note_off_c, 9, 42, 64
1, 14688, Note_off_c, 9, 38, 64
1, 14696, Note_off_c, 2, 51, 64
1, 14701, Note_off_c, 2, 70, 64
1, 14704, Note_off_c, 2, 63, 64
1, 14704, Note_off_c, 2, 58, 64
1, 14705, Note_off_c, 2, 66, 64
1, 14710, Note_on_c, 0, 37, 95
1, 14710, Note_off_c, 1, 34, 64
1, 14711, Note_on_c, 1, 37, 109
1, 14711, Note_on_c, 9, 42, 76
1, 14712, Note_off_c, 9, 42, 64
1, 14715, Note_off_c, 0, 34, 64
1, 14718, Note_off_c, 6, 46, 64
1, 14719, Note_off_c, 6, 51, 64
1, 14732, Note_on_c, 3, 78, 102
1, 14733, Note_on_c, 0, 39, 106
1, 14733, Note_on_c, 4, 78, 97
1, 14734, Note_off_c, 1, 37, 64
1, 14735, Note_on_c, 1, 39, 106
1, 14735, Note_on_c, 9, 42, 77
1, 14736, Note_off_c, 0, 37, 64
1, 14736, Note_off_c, 9, 42, 64
1, 14754, Note_off_c, 3, 78, 64
1, 14756, Note_on_c, 3, 78, 107
1, 14757, Note_off_c, 0, 39, 64
1, 14758, Note_off_c, 4, 78, 64
1, 14758, Note_on_c, 9, 35, 113
1, 14759, Note_on_c, 4, 78, 100
1, 14759, Note_off_c, 9, 35, 64
1, 14759, Note_on_c, 9, 42, 73
1, 14760, Note_off_c, 9, 42, 64
1, 14763, Note_off_c, 0, 66, 64
1, 14770, Note_off_c, 0, 63, 64
1, 14771, Note_off_c, 0, 61, 64
1, 14773, Note_off_c, 0, 58, 64
1, 14783, Note_on_c, 9, 42, 78
1, 14784, Note_off_c, 9, 42, 64
1, 14785, Note_off_c, 1, 39, 64
1, 14785, Note_on_c, 9, 35, 121
1, 14786, Note_off_c, 9, 35, 64
1, 14799, Note_off_c, 3, 78, 64
1, 14800, Note_on_c, 3, 78, 103
1, 14802, Note_off_c, 4, 78, 64
1, 14803, Note_on_c, 4, 78, 96
1, 14807, Note_on_c, 9, 42, 70
1, 14808, Note_off_c, 9, 42, 64
1, 14822, Note_off_c, 3, 78, 64
1, 14824, Note_on_c, 3, 78, 107
1, 14827, Note_off_c, 4, 78, 64
1, 14828, Note_on_c, 4, 78, 102
1, 14830, Note_on_c, 9, 42, 79
1, 14831, Note_on_c, 2, 58, 37
1, 14831, Note_off_c, 9, 42, 64
1, 14832, Note_off_c, 2, 58, 64
1, 14832, Note_on_c, 2, 63, 65
1, 14833, Note_off_c, 2, 63, 64
1, 14833, Note_on_c, 2, 66, 75
1, 14834, Note_off_c, 2, 66, 64
1, 14834, Note_on_c, 2, 70, 75
1, 14835, Note_off_c, 2, 70, 64
1, 14853, Note_on_c, 0, 34, 105
1, 14854, Note_on_c, 9, 35, 117
1, 14854, Note_on_c, 9, 42, 74
1, 14855, Note_off_c, 9, 42, 64
1, 14855, Note_off_c, 9, 35, 64
1, 14857, Note_on_c, 2, 70, 72
1, 14858, Note_off_c, 2, 70, 64
1, 14858, Note_on_c, 6, 46, 81
1, 14867, Note_off_c, 0, 34, 64
1, 14871, Note_off_c, 6, 46, 64
1, 14874, Note_off_c, 3, 78, 64
1, 14874, Note_off_c, 4, 78, 64
1, 14874, Note_on_c, 4, 77, 102
1, 14876, Note_on_c, 3, 77, 105
1, 14878, Note_on_c, 9, 42, 82
1, 14879, Note_on_c, 0, 34, 113
1, 14879, Note_off_c, 9, 42, 64
1, 14879, Note_on_c, 9, 38, 116
1, 14880, Note_off_c, 9, 38, 64
1, 14881, Note_on_c, 2, 63, 57
1, 14882, Note_on_c, 2, 66, 56
1, 14882, Note_on_c, 6, 46, 86
1, 14902, Note_on_c, 0, 66, 102
1, 14902, Note_on_c, 0, 58, 95
1, 14902, Note_on_c, 0, 61, 103
1, 14902, Note_on_c, 0, 63, 109
1, 14902, Note_on_c, 0, 37, 108
1, 14902, Note_off_c, 2, 66, 64
1, 14902, Note_off_c, 2, 63, 64
1, 14902, Note_on_c, 2, 58, 72
1, 14902, Note_on_c, 9, 46, 73
1, 14903, Note_on_c, 2, 63, 69
1, 14903, Note_on_c, 2, 66, 75
1, 14903, Note_on_c, 2, 70, 70
1, 14903, Note_off_c, 6, 46, 64
1, 14903, Note_on_c, 6, 49, 104
1, 14903, Note_on_c, 6, 54, 114
1, 14903, Note_off_c, 9, 46, 64
1, 14904, Note_on_c, 9, 35, 121
1, 14905, Note_off_c, 9, 35, 64
1, 14907, Note_off_c, 0, 34, 64
1, 14918, Note_off_c, 0, 63, 64
1, 14919, Note_off_c, 0, 61, 64
1, 14919, Note_off_c, 0, 66, 64
1, 14921, Note_off_c, 0, 58, 64
1, 14926, Note_off_c, 4, 77, 64
1, 14926, Note_on_c, 4, 75, 96
1, 14927, Note_on_c, 0, 39, 109
1, 14927, Note_off_c, 3, 77, 64
1, 14927, Note_on_c, 9, 42, 72
1, 14928, Note_off_c, 6, 54, 64
1, 14928, Note_off_c, 9, 42, 64
1, 14929, Note_on_c, 3, 75, 105
1, 14931, Note_off_c, 6, 49, 64
1, 14935, Note_off_c, 0, 37, 64
1, 14948, Note_off_c, 2, 70, 64
1, 14950, Note_on_c, 1, 41, 103
1, 14951, Note_on_c, 0, 42, 98
1, 14951, Note_on_c, 9, 42, 73
1, 14952, Note_off_c, 2, 66, 64
1, 14952, Note_off_c, 4, 75, 64
1, 14952, Note_on_c, 4, 73, 108
1, 14952, Note_off_c, 9, 42, 64
1, 14953, Note_off_c, 3, 75, 64
1, 14953, Note_on_c, 9, 35, 106
1, 14954, Note_off_c, 0, 39, 64
1, 14954, Note_on_c, 3, 77, 106
1, 14954, Note_off_c, 9, 35, 64
1, 14956, Note_off_c, 2, 58, 64
1, 14959, Note_off_c, 2, 63, 64
1, 14974, Note_on_c, 0, 58, 82
1, 14974, Note_on_c, 0, 65, 82
1, 14974, Note_on_c, 0, 61, 91
1, 14974, Note_on_c, 0, 56, 86
1, 14974, Note_off_c, 1, 41, 64
1, 14975, Note_on_c, 1, 46, 110
1, 14976, Note_on_c, 9, 35, 123
1, 14976, Note_on_c, 9, 42, 81
1, 14977, Note_on_c, 0, 46, 106
1, 14977, Note_on_c, 2, 58, 49
1, 14977, Note_on_c, 6, 53, 92
1, 14977, Note_off_c, 9, 42, 64
1, 14977, Note_off_c, 9, 35, 64
1, 14978, Note_on_c, 6, 49, 64
1, 14979, Note_on_c, 2, 61, 74
1, 14980, Note_on_c, 2, 65, 76
1, 14981, Note_on_c, 2, 70, 73
1, 14983, Note_off_c, 0, 42, 64
1, 15001, Note_on_c, 9, 42, 73
1, 15002, Note_off_c, 9, 42, 64
1, 15025, Note_on_c, 9, 42, 76
1, 15026, Note_off_c, 9, 42, 64
1, 15046, Note_off_c, 2, 70, 64
1, 15047, Note_off_c, 2, 65, 64
1, 15047, Note_on_c, 2, 70, 73
1, 15048, Note_on_c, 2, 65, 72
1, 15050, Note_on_c, 9, 35, 106
1, 15050, Note_on_c, 9, 42, 70
1, 15051, Note_off_c, 9, 42, 64
1, 15051, Note_off_c, 9, 35, 64
1, 15067, Note_off_c, 1, 46, 64
1, 15068, Note_off_c, 6, 49, 64
1, 15068, Note_off_c, 6, 53, 64
1, 15070, Note_on_c, 1, 41, 106
1, 15071, Note_off_c, 2, 58, 64
1, 15071, Note_on_c, 6, 49, 110
1, 15071, Note_on_c, 6, 53, 110
1, 15072, Note_off_c, 2, 61, 64
1, 15072, Note_on_c, 2, 58, 63
1, 15072, Note_on_c, 9, 42, 82
1, 15073, Note_off_c, 0, 46, 64
1, 15073, Note_on_c, 0, 41, 102
1, 15073, Note_off_c, 2, 65, 64
1, 15073, Note_off_c, 9, 42, 64
1, 15073, Note_on_c, 9, 38, 120
1, 15074, Note_off_c, 2, 70, 64
1, 15074, Note_on_c, 2, 61, 73
1, 15074, Note_on_c, 2, 65, 76
1, 15074, Note_off_c, 9, 38, 64
1, 15075, Note_on_c, 2, 70, 77
1, 15091, Note_off_c, 2, 61, 64
1, 15092, Note_off_c, 2, 70, 64
1, 15093, Note_off_c, 1, 41, 64
1, 15093, Note_off_c, 2, 58, 64
1, 15094, Note_on_c, 1, 44, 104
1, 15094, Note_off_c, 2, 65, 64
1, 15095, Note_on_c, 0, 44, 90
1, 15096, Note_on_c, 9, 42, 71
1, 15097, Note_off_c, 9, 42, 64
1, 15099, Note_off_c, 0, 41, 64
1, 15103, Note_off_c, 6, 49, 64
1, 15105, Note_off_c, 6, 53, 64
1, 15118, Note_off_c, 1, 44, 64
1, 15119, Note_on_c, 1, 46, 108
1, 15121, Note_on_c, 0, 46, 106
1, 15121, Note_on_c, 9, 42, 76
1, 15122, Note_off_c, 9, 42, 64
1, 15128, Note_off_c, 0, 44, 64
1, 15139, Note_off_c, 3, 77, 64
1, 15140, Note_off_c, 4, 73, 64
1, 15141, Note_on_c, 3, 77, 105
1, 15141, Note_on_c, 4, 73, 100
1, 15143, Note_on_c, 2, 70, 75
1, 15143, Note_on_c, 9, 35, 103
1, 15144, Note_off_c, 0, 46, 64
1, 15144, Note_on_c, 2, 65, 72
1, 15144, Note_off_c, 9, 35, 64
1, 15145, Note_on_c, 2, 61, 57
1, 15145, Note_on_c, 9, 42, 73
1, 15146, Note_on_c, 2, 58, 26
1, 15146, Note_off_c, 9, 42, 64
1, 15153, Note_off_c, 4, 73, 64
1, 15153, Note_on_c, 4, 72, 93
1, 15156, Note_on_c, 3, 75, 105
1, 15160, Note_off_c, 1, 46, 64
1, 15162, Note_off_c, 0, 61, 64
1, 15163, Note_off_c, 0, 58, 64
1, 15163, Note_off_c, 0, 65, 64
1, 15164, Note_off_c, 3, 77, 64
1, 15165, Note_off_c, 0, 56, 64
1, 15165, Note_off_c, 4, 72, 64
1, 15165, Note_on_c, 4, 70, 92
1, 15166, Note_off_c, 2, 61, 64
1, 15167, Note_off_c, 2, 70, 64
1, 15167, Note_off_c, 2, 65, 64
1, 15167, Note_on_c, 2, 61, 75
1, 15167, Note_on_c, 9, 35, 120
1, 15167, Note_on_c, 9, 42, 82
1, 15168, Note_on_c, 2, 65, 79
1, 15168, Note_on_c, 2, 70, 79
1, 15168, Note_off_c, 9, 42, 64
1, 15168, Note_off_c, 9, 35, 64
1, 15169, Note_on_c, 3, 73, 97
1, 15175, Note_off_c, 3, 75, 64
1, 15186, Note_off_c, 2, 61, 64
1, 15187, Note_off_c, 2, 70, 64
1, 15189, Note_off_c, 2, 65, 64
1, 15190, Note_off_c, 2, 58, 64
1, 15192, Note_on_c, 9, 42, 70
1, 15193, Note_off_c, 9, 42, 64
1, 15214, Note_on_c, 2, 58, 39
1, 15215, Note_off_c, 2, 58, 64
1, 15215, Note_on_c, 2, 61, 67
1, 15216, Note_off_c, 2, 61, 64
1, 15216, Note_on_c, 2, 65, 73
1, 15216, Note_on_c, 9, 42, 77
1, 15217, Note_off_c, 2, 65, 64
1, 15217, Note_off_c, 9, 42, 64
1, 15218, Note_on_c, 2, 70, 73
1, 15219, Note_off_c, 2, 70, 64
1, 15224, Note_off_c, 3, 73, 64
1, 15224, Note_off_c, 4, 70, 64
1, 15238, Note_on_c, 0, 41, 99
1, 15239, Note_on_c, 6, 41, 88
1, 15239, Note_on_c, 9, 35, 107
1, 15239, Note_on_c, 9, 42, 71
1, 15240, Note_on_c, 2, 70, 75
1, 15240, Note_off_c, 9, 42, 64
1, 15240, Note_off_c, 9, 35, 64
1, 15241, Note_off_c, 2, 70, 64
1, 15241, Note_on_c, 2, 65, 73
1, 15242, Note_off_c, 2, 65, 64
1, 15253, Note_off_c, 0, 41, 64
1, 15254, Note_off_c, 6, 41, 64
1, 15262, Note_on_c, 9, 42, 78
1, 15263, Note_on_c, 0, 41, 117
1, 15263, Note_on_c, 2, 61, 55
1, 15263, Note_on_c, 6, 41, 83
1, 15263, Note_off_c, 9, 42, 64
1, 15263, Note_on_c, 9, 38, 116
1, 15264, Note_on_c, 2, 65, 77
1, 15264, Note_on_c, 2, 70, 78
1, 15264, Note_off_c, 9, 38, 64
1, 15286, Note_on_c, 0, 58, 101
1, 15286, Note_on_c, 0, 56, 98
1, 15286, Note_on_c, 0, 44, 97
1, 15286, Note_off_c, 2, 70, 64
1, 15286, Note_on_c, 6, 53, 112
1, 15286, Note_on_c, 6, 49, 108
1, 15286, Note_on_c, 9, 35, 121
1, 15286, Note_on_c, 9, 46, 77
1, 15287, Note_on_c, 0, 65, 108
1, 15287, Note_on_c, 0, 61, 106
1, 15287, Note_off_c, 2, 65, 64
1, 15287, Note_on_c, 2, 70, 70
1, 15287, Note_off_c, 6, 41, 64
1, 15287, Note_off_c, 9, 46, 64
1, 15287, Note_off_c, 9, 35, 64
1, 15288, Note_on_c, 2, 65, 75
1, 15290, Note_off_c, 0, 41, 64
1, 15308, Note_off_c, 6, 49, 64
1, 15309, Note_off_c, 6, 53, 64
1, 15310, Note_on_c, 0, 46, 91
1, 15311, Note_on_c, 9, 42, 79
1, 15312, Note_off_c, 2, 65, 64
1, 15312, Note_off_c, 2, 61, 64
1, 15312, Note_off_c, 9, 42, 64
1, 15313, Note_off_c, 2, 70, 64
1, 15318, Note_off_c, 0, 44, 64
1, 15319, Note_off_c, 0, 61, 64
1, 15320, Note_off_c, 0, 56, 64
1, 15320, Note_off_c, 0, 58, 64
1, 15321, Note_off_c, 0, 65, 64
1, 15334, Note_on_c, 0, 49, 91
1, 15334, Note_on_c, 9, 42, 68
1, 15335, Note_off_c, 9, 42, 64
1, 15337, Note_off_c, 0, 46, 64
1, 15337, Note_on_c, 9, 35, 117
1, 15338, Note_on_c, 1, 49, 116
1, 15338, Note_off_c, 9, 35, 64
1, 15356, Note_on_c, 2, 58, 55
1, 15357, Note_on_c, 2, 61, 75
1, 15358, Note_on_c, 2, 65, 73
1, 15359, Note_on_c, 0, 65, 96
1, 15359, Note_on_c, 0, 61, 96
1, 15359, Note_on_c, 0, 58, 92
1, 15359, Note_on_c, 0, 56, 90
1, 15359, Note_on_c, 0, 46, 106
1, 15359, Note_on_c, 6, 49, 104
1, 15359, Note_on_c, 6, 53, 106
1, 15359, Note_on_c, 9, 42, 80
1, 15360, Note_on_c, 2, 70, 79
1, 15360, Note_off_c, 9, 42, 64
1, 15361, Note_off_c, 1, 49, 64
1, 15361, Note_on_c, 9, 35, 117
1, 15362, Note_off_c, 0, 49, 64
1, 15362, Note_on_c, 1, 46, 106
1, 15362, Note_off_c, 9, 35, 64
1, 15383, Note_on_c, 9, 46, 76
1, 15384, Note_off_c, 9, 46, 64
1, 15409, Note_on_c, 9, 42, 75
1, 15410, Note_off_c, 9, 42, 64
1, 15429, Note_off_c, 2, 70, 64
1, 15430, Note_off_c, 2, 65, 64
1, 15430, Note_on_c, 2, 70, 75
1, 15431, Note_on_c, 2, 65, 75
1, 15431, Note_on_c, 9, 35, 111
1, 15432, Note_off_c, 9, 35, 64
1, 15432, Note_on_c, 9, 42, 71
1, 15433, Note_off_c, 9, 42, 64
1, 15448, Note_off_c, 6, 53, 64
1, 15450, Note_off_c, 1, 46, 64
1, 15450, Note_off_c, 6, 49, 64
1, 15454, Note_off_c, 0, 46, 64
1, 15454, Note_on_c, 1, 41, 108
1, 15455, Note_on_c, 0, 41, 95
1, 15455, Note_on_c, 6, 53, 87
1, 15455, Note_on_c, 6, 49, 94
1, 15455, Note_on_c, 9, 42, 73
1, 15456, Note_off_c, 2, 58, 64
1, 15456, Note_off_c, 9, 42, 64
1, 15456, Note_on_c, 9, 38, 117
1, 15457, Note_off_c, 2, 61, 64
1, 15457, Note_on_c, 2, 58, 64
1, 15457, Note_off_c, 9, 38, 64
1, 15458, Note_off_c, 2, 70, 64
1, 15458, Note_off_c, 2, 65, 64
1, 15458, Note_on_c, 2, 61, 74
1, 15460, Note_on_c, 2, 65, 71
1, 15461, Note_on_c, 2, 70, 70
1, 15475, Note_off_c, 2, 70, 64
1, 15475, Note_off_c, 2, 58, 64
1, 15475, Note_off_c, 2, 61, 64
1, 15477, Note_off_c, 1, 41, 64
1, 15477, Note_off_c, 2, 65, 64
1, 15478, Note_on_c, 0, 44, 92
1, 15478, Note_on_c, 1, 44, 108
1, 15479, Note_off_c, 6, 49, 64
1, 15479, Note_off_c, 6, 53, 64
1, 15480, Note_on_c, 9, 42, 75
1, 15481, Note_off_c, 9, 42, 64
1, 15485, Note_off_c, 0, 41, 64
1, 15498, Note_on_c, 3, 73, 104
1, 15498, Note_on_c, 4, 73, 90
1, 15502, Note_on_c, 0, 46, 105
1, 15502, Note_off_c, 1, 44, 64
1, 15503, Note_on_c, 1, 46, 108
1, 15505, Note_on_c, 9, 42, 73
1, 15506, Note_off_c, 9, 42, 64
1, 15507, Note_off_c, 0, 44, 64
1, 15521, Note_off_c, 0, 61, 64
1, 15524, Note_off_c, 0, 56, 64
1, 15524, Note_off_c, 0, 58, 64
1, 15525, Note_off_c, 0, 65, 64
1, 15526, Note_on_c, 9, 35, 113
1, 15527, Note_off_c, 0, 46, 64
1, 15527, Note_on_c, 2, 70, 75
1, 15527, Note_off_c, 9, 35, 64
1, 15528, Note_on_c, 2, 65, 76
1, 15529, Note_on_c, 2, 58, 52
1, 15530, Note_on_c, 2, 61, 65
1, 15530, Note_on_c, 9, 42, 73
1, 15531, Note_off_c, 9, 42, 64
1, 15533, Note_off_c, 1, 46, 64
1, 15543, Note_off_c, 3, 73, 64
1, 15547, Note_on_c, 3, 73, 111
1, 15549, Note_off_c, 4, 73, 64
1, 15550, Note_on_c, 4, 73, 103
1, 15551, Note_off_c, 2, 61, 64
1, 15551, Note_off_c, 2, 65, 64
1, 15551, Note_on_c, 9, 35, 121
1, 15552, Note_on_c, 2, 61, 73
1, 15552, Note_on_c, 2, 65, 79
1, 15552, Note_off_c, 9, 35, 64
1, 15553, Note_off_c, 2, 70, 64
1, 15553, Note_on_c, 9, 42, 79
1, 15554, Note_on_c, 2, 70, 77
1, 15554, Note_off_c, 9, 42, 64
1, 15570, Note_off_c, 2, 70, 64
1, 15570, Note_off_c, 2, 58, 64
1, 15570, Note_off_c, 2, 61, 64
1, 15571, Note_off_c, 2, 65, 64
1, 15577, Note_on_c, 9, 46, 73
1, 15578, Note_off_c, 9, 46, 64
1, 15599, Note_on_c, 2, 58, 64
1, 15599, Note_on_c, 9, 42, 73
1, 15600, Note_off_c, 2, 58, 64
1, 15600, Note_on_c, 2, 61, 75
1, 15600, Note_off_c, 9, 42, 64
1, 15601, Note_off_c, 2, 61, 64
1, 15601, Note_on_c, 2, 65, 77
1, 15602, Note_off_c, 2, 65, 64
1, 15602, Note_on_c, 2, 70, 77
1, 15603, Note_off_c, 2, 70, 64
1, 15614, Note_off_c, 3, 73, 64
1, 15615, Note_off_c, 4, 73, 64
1, 15615, Note_on_c, 4, 75, 97
1, 15616, Note_on_c, 3, 75, 108
1, 15621, Note_on_c, 9, 35, 103
1, 15622, Note_on_c, 0, 41, 111
1, 15622, Note_on_c, 6, 41, 95
1, 15622, Note_off_c, 9, 35, 64
1, 15625, Note_on_c, 2, 70, 74
1, 15625, Note_on_c, 9, 42, 77
1, 15626, Note_off_c, 2, 70, 64
1, 15626, Note_on_c, 2, 65, 76
1, 15626, Note_off_c, 9, 42, 64
1, 15627, Note_off_c, 2, 65, 64
1, 15636, Note_off_c, 6, 41, 64
1, 15639, Note_off_c, 0, 41, 64
1, 15645, Note_on_c, 9, 38, 116
1, 15646, Note_on_c, 6, 41, 92
1, 15646, Note_off_c, 9, 38, 64
1, 15647, Note_on_c, 0, 41, 101
1, 15648, Note_on_c, 9, 42, 76
1, 15649, Note_off_c, 9, 42, 64
1, 15650, Note_on_c, 2, 61, 70
1, 15652, Note_on_c, 2, 65, 72
1, 15668, Note_off_c, 6, 41, 64
1, 15670, Note_on_c, 6, 53, 117
1, 15670, Note_on_c, 6, 49, 112
1, 15670, Note_on_c, 9, 35, 123
1, 15671, Note_on_c, 0, 58, 99
1, 15671, Note_on_c, 0, 56, 97
1, 15671, Note_on_c, 0, 61, 102
1, 15671, Note_on_c, 0, 65, 108
1, 15671, Note_on_c, 0, 44, 95
1, 15671, Note_off_c, 9, 35, 64
1, 15672, Note_on_c, 9, 42, 73
1, 15673, Note_off_c, 2, 65, 64
1, 15673, Note_off_c, 2, 61, 64
1, 15673, Note_off_c, 9, 42, 64
1, 15674, Note_on_c, 2, 58, 69
1, 15674, Note_on_c, 2, 70, 31
1, 15674, Note_on_c, 2, 61, 72
1, 15674, Note_on_c, 2, 65, 80
1, 15678, Note_off_c, 0, 41, 64
1, 15683, Note_off_c, 4, 75, 64
1, 15683, Note_on_c, 4, 77, 100
1, 15684, Note_off_c, 3, 75, 64
1, 15688, Note_on_c, 3, 77, 106
1, 15691, Note_off_c, 6, 49, 64
1, 15693, Note_off_c, 0, 61, 64
1, 15693, Note_off_c, 6, 53, 64
1, 15694, Note_off_c, 0, 58, 64
1, 15694, Note_off_c, 0, 56, 64
1, 15694, Note_off_c, 2, 61, 64
1, 15695, Note_on_c, 0, 46, 101
1, 15695, Note_on_c, 9, 42, 77
1, 15696, Note_off_c, 0, 65, 64
1, 15696, Note_off_c, 9, 42, 64
1, 15697, Note_off_c, 2, 58, 64
1, 15698, Note_off_c, 2, 70, 64
1, 15698, Note_off_c, 2, 65, 64
1, 15704, Note_off_c, 0, 44, 64
1, 15718, Note_on_c, 0, 49, 111
1, 15719, Note_on_c, 9, 35, 113
1, 15719, Note_on_c, 9, 42, 79
1, 15720, Note_off_c, 0, 46, 64
1, 15720, Note_off_c, 9, 42, 64
1, 15720, Note_off_c, 9, 35, 64
1, 15736, Note_off_c, 0, 49, 64
1, 15737, Note_on_c, 2, 59, 30
1, 15739, Note_on_c, 2, 63, 74
1, 15740, Note_on_c, 2, 66, 78
1, 15740, Note_on_c, 3, 80, 107
1, 15741, Note_on_c, 6, 59, 75
1, 15742, Note_on_c, 0, 66, 96
1, 15742, Note_on_c, 0, 59, 100
1, 15742, Note_on_c, 0, 63, 108
1, 15742, Note_on_c, 1, 47, 109
1, 15742, Note_on_c, 6, 63, 90
1, 15742, Note_on_c, 6, 66, 87
1, 15742, Note_on_c, 9, 42, 82
1, 15743, Note_off_c, 3, 77, 64
1, 15743, Note_off_c, 9, 42, 64
1, 15743, Note_on_c, 9, 35, 114
1, 15744, Note_off_c, 4, 77, 64
1, 15744, Note_on_c, 4, 80, 101
1, 15744, Note_off_c, 9, 35, 64
1, 15755, Note_on_c, 2, 71, 50
1, 15766, Note_off_c, 1, 47, 64
1, 15766, Note_on_c, 9, 42, 74
1, 15767, Note_on_c, 1, 44, 106
1, 15767, Note_off_c, 9, 42, 64
1, 15791, Note_on_c, 9, 42, 81
1, 15792, Note_off_c, 1, 44, 64
1, 15792, Note_off_c, 9, 42, 64
1, 15793, Note_on_c, 1, 42, 106
1, 15810, Note_off_c, 2, 71, 64
1, 15811, Note_on_c, 2, 71, 77
1, 15812, Note_off_c, 2, 66, 64
1, 15813, Note_off_c, 2, 63, 64
1, 15813, Note_on_c, 2, 66, 75
1, 15814, Note_off_c, 1, 42, 64
1, 15814, Note_on_c, 2, 63, 63
1, 15815, Note_on_c, 1, 39, 106
1, 15816, Note_on_c, 9, 35, 108
1, 15816, Note_on_c, 9, 42, 73
1, 15817, Note_off_c, 9, 42, 64
1, 15817, Note_off_c, 9, 35, 64
1, 15829, Note_off_c, 6, 59, 64
1, 15830, Note_off_c, 6, 66, 64
1, 15830, Note_off_c, 6, 63, 64
1, 15833, Note_off_c, 0, 63, 64
1, 15833, Note_off_c, 0, 59, 64
1, 15833, Note_off_c, 0, 66, 64
1, 15838, Note_off_c, 2, 63, 64
1, 15839, Note_on_c, 0, 59, 90
1, 15839, Note_on_c, 0, 66, 96
1, 15839, Note_off_c, 1, 39, 64
1, 15839, Note_on_c, 6, 66, 84
1, 15839, Note_on_c, 6, 59, 79
1, 15839, Note_on_c, 6, 63, 102
1, 15840, Note_on_c, 0, 63, 113
1, 15840, Note_on_c, 1, 35, 108
1, 15840, Note_off_c, 2, 66, 64
1, 15840, Note_off_c, 2, 71, 64
1, 15840, Note_on_c, 2, 63, 73
1, 15840, Note_on_c, 9, 42, 79
1, 15841, Note_on_c, 2, 66, 72
1, 15841, Note_on_c, 2, 71, 78
1, 15841, Note_off_c, 9, 42, 64
1, 15841, Note_on_c, 9, 38, 117
1, 15842, Note_off_c, 9, 38, 64
1, 15858, Note_off_c, 0, 63, 64
1, 15858, Note_off_c, 2, 71, 64
1, 15858, Note_off_c, 6, 63, 64
1, 15858, Note_off_c, 6, 59, 64
1, 15859, Note_off_c, 2, 59, 64
1, 15860, Note_off_c, 0, 59, 64
1, 15861, Note_off_c, 0, 66, 64
1, 15861, Note_off_c, 2, 66, 64
1, 15861, Note_off_c, 6, 66, 64
1, 15862, Note_off_c, 2, 63, 64
1, 15863, Note_on_c, 9, 42, 72
1, 15864, Note_off_c, 9, 42, 64
1, 15882, Note_off_c, 1, 35, 64
1, 15884, Note_off_c, 3, 80, 64
1, 15887, Note_off_c, 4, 80, 64
1, 15887, Note_on_c, 4, 78, 98
1, 15888, Note_on_c, 3, 78, 98
1, 15889, Note_on_c, 9, 42, 76
1, 15890, Note_off_c, 9, 42, 64
1, 15909, Note_off_c, 4, 78, 64
1, 15909, Note_on_c, 4, 77, 92
1, 15910, Note_on_c, 9, 35, 110
1, 15911, Note_on_c, 3, 77, 98
1, 15911, Note_off_c, 9, 35, 64
1, 15913, Note_on_c, 9, 42, 73
1, 15914, Note_on_c, 2, 71, 75
1, 15914, Note_off_c, 3, 78, 64
1, 15914, Note_off_c, 9, 42, 64
1, 15916, Note_on_c, 2, 66, 75
1, 15917, Note_on_c, 2, 63, 60
1, 15918, Note_on_c, 2, 59, 30
1, 15933, Note_off_c, 4, 77, 64
1, 15933, Note_on_c, 4, 78, 97
1, 15935, Note_on_c, 1, 47, 109
1, 15935, Note_on_c, 9, 35, 114
1, 15936, Note_on_c, 3, 78, 109
1, 15936, Note_off_c, 9, 35, 64
1, 15937, Note_on_c, 9, 42, 80
1, 15938, Note_off_c, 2, 63, 64
1, 15938, Note_off_c, 9, 42, 64
1, 15939, Note_off_c, 2, 71, 64
1, 15939, Note_off_c, 2, 66, 64
1, 15939, Note_on_c, 2, 63, 72
1, 15940, Note_on_c, 2, 66, 76
1, 15940, Note_on_c, 2, 71, 79
1, 15943, Note_off_c, 3, 77, 64
1, 15958, Note_off_c, 2, 59, 64
1, 15959, Note_off_c, 2, 71, 64
1, 15960, Note_off_c, 2, 66, 64
1, 15960, Note_on_c, 9, 42, 71
1, 15961, Note_off_c, 2, 63, 64
1, 15961, Note_off_c, 9, 42, 64
1, 15973, Note_off_c, 1, 47, 64
1, 15979, Note_off_c, 3, 78, 64
1, 15981, Note_on_c, 2, 59, 30
1, 15982, Note_off_c, 2, 59, 64
1, 15982, Note_on_c, 6, 59, 75
1, 15982, Note_on_c, 6, 66, 88
1, 15983, Note_on_c, 6, 63, 91
1, 15983, Note_on_c, 9, 42, 73
1, 15984, Note_on_c, 2, 63, 71
1, 15984, Note_off_c, 9, 42, 64
1, 15985, Note_off_c, 2, 63, 64
1, 15985, Note_on_c, 2, 66, 77
1, 15985, Note_off_c, 4, 78, 64
1, 15986, Note_off_c, 2, 66, 64
1, 15986, Note_on_c, 2, 71, 80
1, 15987, Note_off_c, 2, 71, 64
1, 15998, Note_off_c, 6, 63, 64
1, 15999, Note_off_c, 6, 66, 64
1, 16000, Note_off_c, 6, 59, 64
1, 16007, Note_on_c, 1, 47, 109
1, 16007, Note_on_c, 9, 35, 107
1, 16007, Note_on_c, 9, 42, 70
1, 16008, Note_off_c, 9, 42, 64
1, 16008, Note_off_c, 9, 35, 64
1, 16009, Note_on_c, 2, 71, 76
1, 16010, Note_off_c, 2, 71, 64
1, 16010, Note_on_c, 2, 66, 74
1, 16011, Note_off_c, 2, 66, 64
1, 16031, Note_on_c, 2, 63, 61
1, 16031, Note_on_c, 9, 38, 118
1, 16032, Note_off_c, 1, 47, 64
1, 16032, Note_off_c, 9, 38, 64
1, 16032, Note_on_c, 9, 42, 84
1, 16033, Note_on_c, 1, 42, 106
1, 16033, Note_on_c, 2, 66, 79
1, 16033, Note_on_c, 2, 71, 81
1, 16033, Note_off_c, 9, 42, 64
1, 16055, Note_on_c, 0, 59, 108
1, 16055, Note_off_c, 2, 71, 64
1, 16055, Note_on_c, 9, 46, 71
1, 16056, Note_on_c, 0, 66, 105
1, 16056, Note_on_c, 0, 63, 113
1, 16056, Note_off_c, 1, 42, 64
1, 16056, Note_off_c, 2, 66, 64
1, 16056, Note_on_c, 2, 71, 75
1, 16056, Note_off_c, 9, 46, 64
1, 16056, Note_on_c, 9, 35, 127
1, 16057, Note_on_c, 1, 44, 111
1, 16057, Note_off_c, 2, 63, 64
1, 16057, Note_on_c, 6, 59, 73
1, 16057, Note_on_c, 6, 63, 87
1, 16057, Note_on_c, 6, 66, 84
1, 16057, Note_off_c, 9, 35, 64
1, 16058, Note_on_c, 2, 66, 73
1, 16058, Note_on_c, 2, 63, 74
1, 16073, Note_off_c, 0, 66, 64
1, 16074, Note_off_c, 0, 63, 64
1, 16075, Note_off_c, 0, 59, 64
1, 16076, Note_off_c, 6, 66, 64
1, 16077, Note_off_c, 6, 63, 64
1, 16077, Note_off_c, 6, 59, 64
1, 16078, Note_on_c, 9, 42, 73
1, 16079, Note_off_c, 9, 42, 64
1, 16083, Note_off_c, 2, 66, 64
1, 16084, Note_off_c, 2, 71, 64
1, 16086, Note_off_c, 2, 63, 64
1, 16103, Note_on_c, 9, 42, 75
1, 16104, Note_off_c, 9, 42, 64
1, 16105, Note_on_c, 9, 35, 114
1, 16106, Note_off_c, 9, 35, 64
1, 16117, Note_off_c, 1, 44, 64
1, 16123, Note_on_c, 2, 59, 53
1, 16125, Note_on_c, 2, 62, 76
1, 16127, Note_on_c, 0, 62, 95
1, 16127, Note_on_c, 0, 59, 93
1, 16127, Note_on_c, 0, 66, 99
1, 16127, Note_on_c, 1, 47, 107
1, 16127, Note_on_c, 2, 66, 59
1, 16127, Note_on_c, 2, 71, 74
1, 16127, Note_on_c, 6, 62, 89
1, 16127, Note_on_c, 6, 59, 87
1, 16127, Note_on_c, 6, 66, 98
1, 16127, Note_on_c, 9, 42, 80
1, 16128, Note_off_c, 9, 42, 64
1, 16129, Note_on_c, 9, 35, 117
1, 16130, Note_off_c, 9, 35, 64
1, 16150, Note_off_c, 1, 47, 64
1, 16151, Note_on_c, 1, 44, 106
1, 16151, Note_on_c, 9, 46, 78
1, 16152, Note_off_c, 9, 46, 64
1, 16174, Note_off_c, 1, 44, 64
1, 16175, Note_on_c, 1, 42, 106
1, 16175, Note_on_c, 9, 42, 75
1, 16176, Note_off_c, 9, 42, 64
1, 16197, Note_off_c, 1, 42, 64
1, 16198, Note_on_c, 1, 38, 105
1, 16199, Note_off_c, 2, 71, 64
1, 16199, Note_on_c, 9, 35, 114
1, 16199, Note_on_c, 9, 42, 73
1, 16200, Note_off_c, 2, 66, 64
1, 16200, Note_on_c, 2, 71, 75
1, 16200, Note_off_c, 9, 42, 64
1, 16200, Note_off_c, 9, 35, 64
1, 16201, Note_on_c, 2, 66, 75
1, 16211, Note_off_c, 0, 59, 64
1, 16211, Note_off_c, 0, 62, 64
1, 16213, Note_off_c, 0, 66, 64
1, 16213, Note_off_c, 6, 59, 64
1, 16214, Note_off_c, 6, 66, 64
1, 16214, Note_off_c, 6, 62, 64
1, 16222, Note_off_c, 1, 38, 64
1, 16223, Note_on_c, 0, 66, 97
1, 16223, Note_on_c, 0, 59, 92
1, 16223, Note_on_c, 0, 62, 100
1, 16223, Note_on_c, 1, 35, 109
1, 16223, Note_off_c, 2, 59, 64
1, 16223, Note_on_c, 9, 38, 114
1, 16223, Note_on_c, 9, 42, 77
1, 16224, Note_off_c, 2, 62, 64
1, 16224, Note_off_c, 2, 66, 64
1, 16224, Note_on_c, 2, 59, 55
1, 16224, Note_off_c, 9, 42, 64
1, 16224, Note_off_c, 9, 38, 64
1, 16225, Note_off_c, 2, 71, 64
1, 16225, Note_on_c, 2, 62, 72
1, 16225, Note_on_c, 2, 66, 76
1, 16225, Note_on_c, 6, 66, 86
1, 16225, Note_on_c, 6, 62, 82
1, 16225, Note_on_c, 6, 59, 81
1, 16227, Note_on_c, 2, 71, 77
1, 16237, Note_off_c, 0, 62, 64
1, 16238, Note_off_c, 0, 59, 64
1, 16238, Note_off_c, 0, 66, 64
1, 16247, Note_on_c, 9, 46, 77
1, 16248, Note_off_c, 2, 71, 64
1, 16248, Note_off_c, 2, 59, 64
1, 16248, Note_off_c, 9, 46, 64
1, 16249, Note_off_c, 2, 66, 64
1, 16249, Note_on_c, 2, 71, 73
1, 16250, Note_off_c, 2, 71, 64
1, 16250, Note_on_c, 2, 66, 75
1, 16251, Note_off_c, 2, 66, 64
1, 16251, Note_off_c, 6, 59, 64
1, 16251, Note_off_c, 6, 62, 64
1, 16251, Note_off_c, 6, 66, 64
1, 16253, Note_off_c, 2, 62, 64
1, 16266, Note_off_c, 1, 35, 64
1, 16270, Note_on_c, 4, 74, 96
1, 16270, Note_on_c, 4, 78, 97
1, 16271, Note_on_c, 9, 42, 77
1, 16272, Note_on_c, 3, 78, 103
1, 16272, Note_off_c, 9, 42, 64
1, 16273, Note_on_c, 2, 62, 70
1, 16274, Note_off_c, 2, 62, 64
1, 16274, Note_on_c, 2, 66, 76
1, 16275, Note_off_c, 2, 66, 64
1, 16275, Note_on_c, 2, 71, 78
1, 16276, Note_off_c, 2, 71, 64
1, 16295, Note_on_c, 9, 35, 103
1, 16296, Note_off_c, 9, 35, 64
1, 16296, Note_on_c, 9, 42, 76
1, 16297, Note_on_c, 2, 71, 74
1, 16297, Note_off_c, 9, 42, 64
1, 16298, Note_on_c, 2, 66, 76
1, 16311, Note_off_c, 2, 71, 64
1, 16312, Note_off_c, 2, 66, 64
1, 16317, Note_off_c, 4, 78, 64
1, 16317, Note_off_c, 4, 74, 64
1, 16318, Note_on_c, 1, 47, 110
1, 16318, Note_on_c, 4, 78, 100
1, 16318, Note_on_c, 4, 74, 94
1, 16319, Note_off_c, 3, 78, 64
1, 16319, Note_on_c, 9, 35, 121
1, 16319, Note_on_c, 9, 42, 73
1, 16320, Note_off_c, 9, 42, 64
1, 16320, Note_off_c, 9, 35, 64
1, 16322, Note_on_c, 3, 78, 102
1, 16343, Note_on_c, 9, 42, 72
1, 16344, Note_off_c, 9, 42, 64
1, 16349, Note_off_c, 1, 47, 64
1, 16366, Note_on_c, 2, 59, 57
1, 16366, Note_on_c, 6, 68, 91
1, 16366, Note_on_c, 6, 62, 85
1, 16367, Note_off_c, 2, 59, 64
1, 16367, Note_on_c, 6, 59, 85
1, 16367, Note_on_c, 9, 42, 77
1, 16368, Note_on_c, 2, 62, 73
1, 16368, Note_off_c, 9, 42, 64
1, 16369, Note_off_c, 2, 62, 64
1, 16369, Note_on_c, 2, 66, 77
1, 16369, Note_on_c, 2, 71, 76
1, 16370, Note_off_c, 2, 71, 64
1, 16370, Note_off_c, 2, 66, 64
1, 16387, Note_off_c, 6, 59, 64
1, 16388, Note_off_c, 3, 78, 64
1, 16389, Note_off_c, 4, 74, 64
1, 16390, Note_on_c, 1, 47, 107
1, 16390, Note_on_c, 3, 80, 106
1, 16390, Note_off_c, 4, 78, 64
1, 16390, Note_on_c, 4, 74, 96
1, 16390, Note_on_c, 4, 80, 102
1, 16390, Note_off_c, 6, 62, 64
1, 16390, Note_on_c, 9, 35, 110
1, 16391, Note_off_c, 6, 68, 64
1, 16391, Note_off_c, 9, 35, 64
1, 16391, Note_on_c, 9, 42, 74
1, 16392, Note_off_c, 9, 42, 64
1, 16393, Note_on_c, 2, 71, 73
1, 16394, Note_off_c, 2, 71, 64
1, 16394, Note_on_c, 2, 66, 64
1, 16395, Note_off_c, 2, 66, 64
1, 16414, Note_on_c, 9, 38, 117
1, 16415, Note_on_c, 2, 59, 53
1, 16415, Note_off_c, 9, 38, 64
1, 16416, Note_off_c, 1, 47, 64
1, 16416, Note_on_c, 2, 62, 73
1, 16416, Note_on_c, 9, 42, 82
1, 16417, Note_on_c, 1, 42, 107
1, 16417, Note_off_c, 9, 42, 64
1, 16418, Note_on_c, 2, 66, 76
1, 16419, Note_on_c, 2, 71, 75
1, 16438, Note_on_c, 6, 62, 81
1, 16438, Note_on_c, 6, 59, 73
1, 16439, Note_on_c, 0, 62, 102
1, 16439, Note_on_c, 0, 59, 104
1, 16439, Note_on_c, 0, 66, 106
1, 16439, Note_off_c, 2, 71, 64
1, 16439, Note_on_c, 6, 66, 85
1, 16439, Note_on_c, 9, 35, 127
1, 16439, Note_on_c, 9, 46, 76
1, 16440, Note_off_c, 1, 42, 64
1, 16440, Note_off_c, 2, 66, 64
1, 16440, Note_on_c, 2, 71, 71
1, 16440, Note_off_c, 9, 46, 64
1, 16440, Note_off_c, 9, 35, 64
1, 16441, Note_on_c, 1, 44, 110
1, 16441, Note_on_c, 2, 66, 75
1, 16449, Note_off_c, 4, 74, 64
1, 16450, Note_off_c, 4, 80, 64
1, 16450, Note_on_c, 4, 78, 96
1, 16450, Note_on_c, 4, 74, 100
1, 16453, Note_off_c, 0, 59, 64
1, 16454, Note_off_c, 0, 66, 64
1, 16455, Note_off_c, 0, 62, 64
1, 16456, Note_on_c, 3, 82, 102
1, 16457, Note_off_c, 3, 80, 64
1, 16463, Note_off_c, 2, 62, 64
1, 16463, Note_on_c, 9, 42, 80
1, 16464, Note_off_c, 6, 59, 64
1, 16464, Note_off_c, 9, 42, 64
1, 16465, Note_off_c, 6, 62, 64
1, 16466, Note_off_c, 2, 59, 64
1, 16467, Note_off_c, 2, 71, 64
1, 16468, Note_off_c, 2, 66, 64
1, 16470, Note_off_c, 6, 66, 64
1, 16487, Note_on_c, 9, 42, 68
1, 16488, Note_off_c, 9, 42, 64
1, 16488, Note_on_c, 9, 35, 104
1, 16489, Note_off_c, 1, 44, 64
1, 16489, Note_off_c, 9, 35, 64
1, 16498, Note_off_c, 4, 74, 64
1, 16498, Note_off_c, 4, 78, 64
1, 16505, Note_on_c, 2, 58, 30
1, 16506, Note_on_c, 2, 61, 71
1, 16507, Note_on_c, 2, 66, 75
1, 16508, Note_on_c, 2, 70, 79
1, 16510, Note_on_c, 0, 58, 85
1, 16510, Note_off_c, 3, 82, 64
1, 16510, Note_on_c, 3, 80, 107
1, 16510, Note_on_c, 4, 78, 104
1, 16510, Note_on_c, 4, 73, 101
1, 16510, Note_on_c, 6, 61, 92
1, 16510, Note_on_c, 6, 58, 97
1, 16510, Note_on_c, 6, 54, 86
1, 16510, Note_on_c, 9, 42, 73
1, 16511, Note_on_c, 0, 61, 97
1, 16511, Note_on_c, 0, 66, 97
1, 16511, Note_on_c, 1, 42, 110
1, 16511, Note_off_c, 9, 42, 64
1, 16512, Note_on_c, 9, 35, 118
1, 16513, Note_off_c, 9, 35, 64
1, 16534, Note_off_c, 1, 42, 64
1, 16534, Note_on_c, 9, 42, 73
1, 16535, Note_on_c, 1, 39, 108
1, 16535, Note_off_c, 9, 42, 64
1, 16557, Note_off_c, 1, 39, 64
1, 16558, Note_on_c, 1, 37, 105
1, 16559, Note_on_c, 9, 42, 75
1, 16560, Note_off_c, 9, 42, 64
1, 16579, Note_off_c, 2, 70, 64
1, 16580, Note_on_c, 2, 70, 75
1, 16581, Note_off_c, 1, 37, 64
1, 16581, Note_off_c, 2, 66, 64
1, 16582, Note_on_c, 1, 34, 106
1, 16582, Note_off_c, 2, 61, 64
1, 16582, Note_on_c, 2, 66, 73
1, 16582, Note_on_c, 9, 35, 108
1, 16583, Note_on_c, 2, 61, 57
1, 16583, Note_off_c, 9, 35, 64
1, 16583, Note_on_c, 9, 42, 70
1, 16584, Note_off_c, 9, 42, 64
1, 16595, Note_off_c, 0, 61, 64
1, 16595, Note_off_c, 0, 58, 64
1, 16596, Note_off_c, 0, 66, 64
1, 16600, Note_off_c, 6, 54, 64
1, 16601, Note_off_c, 6, 58, 64
1, 16602, Note_off_c, 6, 61, 64
1, 16606, Note_on_c, 0, 66, 89
1, 16606, Note_off_c, 1, 34, 64
1, 16607, Note_on_c, 0, 61, 99
1, 16607, Note_on_c, 0, 58, 92
1, 16607, Note_on_c, 1, 30, 110
1, 16607, Note_off_c, 2, 61, 64
1, 16607, Note_on_c, 6, 58, 88
1, 16607, Note_on_c, 6, 61, 87
1, 16607, Note_on_c, 6, 54, 72
1, 16607, Note_on_c, 9, 38, 116
1, 16607, Note_on_c, 9, 42, 79
1, 16608, Note_on_c, 2, 61, 75
1, 16608, Note_off_c, 9, 42, 64
1, 16608, Note_off_c, 9, 38, 64
1, 16609, Note_off_c, 2, 66, 64
1, 16609, Note_off_c, 2, 70, 64
1, 16610, Note_on_c, 2, 66, 79
1, 16610, Note_on_c, 2, 70, 81
1, 16624, Note_off_c, 6, 58, 64
1, 16625, Note_off_c, 6, 54, 64
1, 16627, Note_off_c, 6, 61, 64
1, 16628, Note_off_c, 2, 70, 64
1, 16628, Note_off_c, 2, 61, 64
1, 16629, Note_off_c, 0, 61, 64
1, 16630, Note_off_c, 0, 58, 64
1, 16630, Note_off_c, 2, 66, 64
1, 16630, Note_off_c, 2, 58, 64
1, 16631, Note_off_c, 0, 66, 64
1, 16631, Note_on_c, 9, 42, 74
1, 16632, Note_off_c, 9, 42, 64
1, 16647, Note_off_c, 3, 80, 64
1, 16653, Note_off_c, 4, 73, 64
1, 16653, Note_off_c, 4, 78, 64
1, 16654, Note_on_c, 3, 78, 103
1, 16654, Note_on_c, 4, 78, 91
1, 16654, Note_on_c, 4, 73, 95
1, 16656, Note_off_c, 1, 30, 64
1, 16657, Note_on_c, 9, 42, 76
1, 16658, Note_off_c, 9, 42, 64
1, 16679, Note_on_c, 9, 42, 74
1, 16680, Note_off_c, 9, 42, 64
1, 16681, Note_on_c, 2, 70, 76
1, 16681, Note_on_c, 9, 35, 109
1, 16682, Note_on_c, 2, 66, 75
1, 16682, Note_off_c, 9, 35, 64
1, 16683, Note_on_c, 2, 61, 35
1, 16701, Note_off_c, 4, 73, 64
1, 16701, Note_off_c, 4, 78, 64
1, 16702, Note_on_c, 1, 42, 111
1, 16702, Note_off_c, 3, 78, 64
1, 16702, Note_on_c, 4, 78, 97
1, 16702, Note_on_c, 4, 73, 92
1, 16704, Note_off_c, 2, 61, 64
1, 16704, Note_off_c, 2, 66, 64
1, 16704, Note_off_c, 2, 70, 64
1, 16705, Note_on_c, 2, 58, 64
1, 16705, Note_on_c, 2, 61, 77
1, 16705, Note_on_c, 2, 66, 75
1, 16705, Note_on_c, 2, 70, 77
1, 16705, Note_on_c, 9, 35, 120
1, 16705, Note_on_c, 9, 42, 81
1, 16706, Note_on_c, 3, 78, 103
1, 16706, Note_off_c, 9, 42, 64
1, 16706, Note_off_c, 9, 35, 64
1, 16718, Note_off_c, 2, 70, 64
1, 16721, Note_off_c, 2, 58, 64
1, 16721, Note_off_c, 2, 61, 64
1, 16721, Note_off_c, 2, 66, 64
1, 16727, Note_on_c, 9, 46, 74
1, 16728, Note_off_c, 9, 46, 64
1, 16741, Note_off_c, 1, 42, 64
1, 16750, Note_off_c, 4, 73, 64
1, 16750, Note_off_c, 4, 78, 64
1, 16751, Note_on_c, 2, 58, 41
1, 16751, Note_on_c, 9, 42, 76
1, 16752, Note_off_c, 2, 58, 64
1, 16752, Note_off_c, 9, 42, 64
1, 16753, Note_on_c, 2, 61, 74
1, 16753, Note_on_c, 2, 66, 74
1, 16754, Note_off_c, 2, 66, 64
1, 16754, Note_off_c, 2, 61, 64
1, 16755, Note_on_c, 2, 70, 79
1, 16756, Note_off_c, 2, 70, 64
1, 16758, Note_off_c, 3, 78, 64
1, 16774, Note_on_c, 1, 42, 110
1, 16774, Note_on_c, 9, 35, 110
1, 16775, Note_off_c, 9, 35, 64
1, 16775, Note_on_c, 9, 42, 70
1, 16776, Note_on_c, 2, 70, 77
1, 16776, Note_off_c, 9, 42, 64
1, 16777, Note_off_c, 2, 70, 64
1, 16777, Note_on_c, 2, 66, 75
1, 16778, Note_off_c, 2, 66, 64
1, 16797, Note_off_c, 1, 42, 64
1, 16798, Note_on_c, 1, 37, 109
1, 16798, Note_on_c, 9, 42, 75
1, 16799, Note_on_c, 2, 61, 73
1, 16799, Note_on_c, 2, 66, 75
1, 16799, Note_on_c, 6, 61, 94
1, 16799, Note_on_c, 6, 58, 98
1, 16799, Note_on_c, 6, 54, 80
1, 16799, Note_off_c, 9, 42, 64
1, 16799, Note_on_c, 9, 38, 116
1, 16800, Note_off_c, 9, 38, 64
1, 16801, Note_on_c, 2, 70, 80
1, 16821, Note_off_c, 1, 37, 64
1, 16821, Note_off_c, 6, 61, 64
1, 16821, Note_on_c, 6, 63, 79
1, 16822, Note_on_c, 1, 39, 110
1, 16822, Note_off_c, 2, 70, 64
1, 16822, Note_on_c, 9, 42, 71
1, 16823, Note_on_c, 0, 66, 105
1, 16823, Note_on_c, 0, 61, 105
1, 16823, Note_on_c, 0, 58, 95
1, 16823, Note_on_c, 2, 70, 75
1, 16823, Note_off_c, 9, 42, 64
1, 16823, Note_on_c, 9, 35, 121
1, 16824, Note_off_c, 2, 66, 64
1, 16824, Note_off_c, 9, 35, 64
1, 16825, Note_on_c, 2, 66, 73
1, 16838, Note_off_c, 6, 58, 64
1, 16839, Note_off_c, 6, 54, 64
1, 16841, Note_off_c, 0, 61, 64
1, 16842, Note_off_c, 2, 61, 64
1, 16843, Note_off_c, 0, 58, 64
1, 16844, Note_off_c, 0, 66, 64
1, 16844, Note_off_c, 2, 70, 64
1, 16846, Note_off_c, 2, 66, 64
1, 16847, Note_on_c, 9, 42, 76
1, 16848, Note_off_c, 6, 63, 64
1, 16848, Note_off_c, 9, 42, 64
1, 16871, Note_on_c, 9, 35, 113
1, 16872, Note_off_c, 9, 35, 64
1, 16872, Note_on_c, 9, 42, 73
1, 16873, Note_off_c, 9, 42, 64
1, 16887, Note_off_c, 1, 39, 64
1, 16891, Note_on_c, 2, 58, 60
1, 16892, Note_on_c, 2, 61, 73
1, 16893, Note_on_c, 2, 66, 75
1, 16894, Note_on_c, 1, 42, 112
1, 16894, Note_on_c, 2, 70, 75
1, 16895, Note_on_c, 0, 58, 91
1, 16895, Note_on_c, 0, 61, 102
1, 16895, Note_on_c, 0, 66, 101
1, 16895, Note_on_c, 6, 58, 95
1, 16895, Note_on_c, 9, 35, 123
1, 16896, Note_on_c, 6, 61, 94
1, 16896, Note_on_c, 6, 54, 80
1, 16896, Note_off_c, 9, 35, 64
1, 16896, Note_on_c, 9, 42, 81
1, 16897, Note_off_c, 9, 42, 64
1, 16917, Note_off_c, 1, 42, 64
1, 16917, Note_off_c, 2, 70, 64
1, 16918, Note_on_c, 1, 39, 102
1, 16918, Note_off_c, 2, 66, 64
1, 16918, Note_on_c, 2, 70, 75
1, 16919, Note_on_c, 2, 66, 74
1, 16919, Note_on_c, 9, 46, 78
1, 16920, Note_off_c, 9, 46, 64
1, 16939, Note_off_c, 2, 61, 64
1, 16940, Note_on_c, 2, 61, 55
1, 16941, Note_off_c, 2, 66, 64
1, 16942, Note_off_c, 1, 39, 64
1, 16942, Note_off_c, 2, 70, 64
1, 16942, Note_on_c, 2, 66, 72
1, 16943, Note_on_c, 1, 37, 106
1, 16943, Note_on_c, 2, 70, 77
1, 16943, Note_on_c, 9, 42, 77
1, 16944, Note_off_c, 9, 42, 64
1, 16965, Note_off_c, 1, 37, 64
1, 16965, Note_off_c, 2, 70, 64
1, 16966, Note_on_c, 1, 34, 106
1, 16966, Note_off_c, 2, 66, 64
1, 16966, Note_on_c, 2, 70, 75
1, 16967, Note_on_c, 2, 66, 63
1, 16967, Note_on_c, 9, 35, 117
1, 16967, Note_on_c, 9, 42, 70
1, 16968, Note_off_c, 9, 42, 64
1, 16968, Note_off_c, 9, 35, 64
1, 16981, Note_off_c, 0, 66, 64
1, 16982, Note_off_c, 0, 61, 64
1, 16982, Note_off_c, 0, 58, 64
1, 16983, Note_off_c, 6, 54, 64
1, 16983, Note_off_c, 6, 58, 64
1, 16984, Note_off_c, 6, 61, 64
1, 16989, Note_off_c, 2, 61, 64
1, 16990, Note_off_c, 1, 34, 64
1, 16990, Note_on_c, 2, 61, 70
1, 16991, Note_on_c, 1, 30, 112
1, 16991, Note_off_c, 2, 66, 64
1, 16991, Note_on_c, 9, 42, 78
1, 16992, Note_on_c, 2, 66, 75
1, 16992, Note_off_c, 9, 42, 64
1, 16992, Note_on_c, 9, 38, 118
1, 16993, Note_on_c, 0, 66, 99
1, 16993, Note_on_c, 0, 58, 98
1, 16993, Note_on_c, 0, 61, 108
1, 16993, Note_off_c, 2, 70, 64
1, 16993, Note_on_c, 6, 54, 73
1, 16993, Note_on_c, 6, 61, 87
1, 16993, Note_on_c, 6, 58, 91
1, 16993, Note_off_c, 9, 38, 64
1, 16994, Note_on_c, 2, 70, 54
1, 17009, Note_off_c, 0, 61, 64
1, 17009, Note_off_c, 6, 58, 64
1, 17010, Note_off_c, 6, 54, 64
1, 17011, Note_off_c, 6, 61, 64
1, 17012, Note_off_c, 0, 66, 64
1, 17013, Note_off_c, 2, 61, 64
1, 17013, Note_off_c, 2, 58, 64
1, 17014, Note_off_c, 0, 58, 64
1, 17014, Note_off_c, 2, 66, 64
1, 17014, Note_off_c, 2, 70, 64
1, 17014, Note_on_c, 2, 58, 68
1, 17014, Note_on_c, 2, 61, 75
1, 17015, Note_off_c, 2, 61, 64
1, 17015, Note_off_c, 2, 58, 64
1, 17015, Note_on_c, 2, 66, 72
1, 17015, Note_on_c, 9, 46, 76
1, 17016, Note_off_c, 2, 66, 64
1, 17016, Note_off_c, 9, 46, 64
1, 17017, Note_on_c, 2, 70, 71
1, 17018, Note_off_c, 2, 70, 64
1, 17036, Note_off_c, 1, 30, 64
1, 17039, Note_on_c, 9, 42, 81
1, 17040, Note_off_c, 9, 42, 64
1, 17056, Note_on_c, 3, 78, 103
1, 17061, Note_on_c, 4, 70, 101
1, 17061, Note_on_c, 4, 78, 92
1, 17062, Note_on_c, 9, 42, 73
1, 17063, Note_off_c, 9, 42, 64
1, 17063, Note_on_c, 9, 35, 111
1, 17064, Note_off_c, 9, 35, 64
1, 17066, Note_on_c, 2, 70, 75
1, 17067, Note_off_c, 2, 70, 64
1, 17067, Note_on_c, 2, 66, 74
1, 17067, Note_on_c, 2, 61, 54
1, 17068, Note_off_c, 2, 61, 64
1, 17068, Note_off_c, 2, 66, 64
1, 17081, Note_off_c, 3, 78, 64
1, 17081, Note_on_c, 3, 82, 103
1, 17084, Note_off_c, 4, 78, 64
1, 17085, Note_off_c, 4, 70, 64
1, 17085, Note_on_c, 4, 73, 98
1, 17085, Note_on_c, 4, 78, 93
1, 17086, Note_on_c, 9, 42, 75
1, 17087, Note_on_c, 1, 42, 114
1, 17087, Note_on_c, 2, 58, 30
1, 17087, Note_off_c, 9, 42, 64
1, 17088, Note_on_c, 9, 35, 121
1, 17089, Note_on_c, 2, 61, 73
1, 17089, Note_off_c, 9, 35, 64
1, 17090, Note_on_c, 2, 66, 77
1, 17092, Note_on_c, 2, 70, 70
1, 17103, Note_off_c, 2, 58, 64
1, 17108, Note_off_c, 2, 61, 64
1, 17108, Note_off_c, 2, 66, 64
1, 17108, Note_off_c, 4, 78, 64
1, 17109, Note_off_c, 3, 82, 64
1, 17109, Note_off_c, 4, 73, 64
1, 17109, Note_on_c, 4, 75, 97
1, 17109, Note_on_c, 4, 78, 90
1, 17110, Note_on_c, 3, 82, 107
1, 17111, Note_off_c, 2, 70, 64
1, 17111, Note_on_c, 9, 42, 70
1, 17112, Note_off_c, 9, 42, 64
1, 17125, Note_off_c, 1, 42, 64
1, 17135, Note_on_c, 9, 42, 76
1, 17136, Note_on_c, 2, 58, 55
1, 17136, Note_off_c, 9, 42, 64
1, 17137, Note_off_c, 2, 58, 64
1, 17137, Note_on_c, 2, 61, 72
1, 17138, Note_off_c, 2, 61, 64
1, 17138, Note_on_c, 2, 66, 76
1, 17139, Note_off_c, 2, 66, 64
1, 17139, Note_on_c, 2, 70, 75
1, 17140, Note_off_c, 2, 70, 64
1, 17157, Note_off_c, 4, 78, 64
1, 17157, Note_off_c, 4, 75, 64
1, 17157, Note_on_c, 4, 73, 103
1, 17157, Note_on_c, 4, 77, 92
1, 17157, Note_on_c, 4, 80, 92
1, 17158, Note_on_c, 1, 42, 110
1, 17159, Note_off_c, 3, 82, 64
1, 17159, Note_on_c, 3, 80, 105
1, 17159, Note_on_c, 9, 35, 117
1, 17159, Note_on_c, 9, 42, 73
1, 17160, Note_on_c, 2, 70, 74
1, 17160, Note_off_c, 9, 42, 64
1, 17160, Note_off_c, 9, 35, 64
1, 17161, Note_off_c, 2, 70, 64
1, 17162, Note_on_c, 2, 66, 74
1, 17163, Note_off_c, 2, 66, 64
1, 17181, Note_off_c, 1, 42, 64
1, 17181, Note_on_c, 2, 58, 52
1, 17182, Note_on_c, 1, 37, 112
1, 17183, Note_on_c, 2, 61, 70
1, 17183, Note_on_c, 9, 38, 118
1, 17183, Note_on_c, 9, 42, 79
1, 17184, Note_on_c, 2, 66, 73
1, 17184, Note_on_c, 6, 61, 95
1, 17184, Note_off_c, 9, 42, 64
1, 17184, Note_off_c, 9, 38, 64
1, 17185, Note_on_c, 6, 58, 98
1, 17185, Note_on_c, 6, 54, 81
1, 17186, Note_on_c, 2, 70, 76
1, 17204, Note_off_c, 4, 73, 64
1, 17204, Note_off_c, 6, 61, 64
1, 17205, Note_off_c, 4, 80, 64
1, 17205, Note_off_c, 4, 77, 64
1, 17205, Note_on_c, 4, 70, 95
1, 17205, Note_on_c, 4, 73, 92
1, 17205, Note_on_c, 4, 78, 95
1, 17206, Note_off_c, 1, 37, 64
1, 17206, Note_off_c, 3, 80, 64
1, 17206, Note_on_c, 9, 42, 73
1, 17207, Note_on_c, 0, 58, 102
1, 17207, Note_on_c, 1, 39, 110
1, 17207, Note_on_c, 3, 78, 105
1, 17207, Note_on_c, 6, 63, 71
1, 17207, Note_off_c, 9, 42, 64
1, 17207, Note_on_c, 9, 35, 127
1, 17208, Note_on_c, 0, 61, 113
1, 17208, Note_on_c, 0, 66, 106
1, 17208, Note_off_c, 2, 70, 64
1, 17208, Note_off_c, 2, 66, 64
1, 17208, Note_off_c, 2, 61, 64
1, 17208, Note_off_c, 9, 35, 64
1, 17209, Note_on_c, 2, 66, 77
1, 17209, Note_on_c, 2, 61, 70
1, 17214, Note_on_c, 2, 70, 70
1, 17218, Note_off_c, 0, 61, 64
1, 17219, Note_off_c, 0, 66, 64
1, 17219, Note_off_c, 0, 58, 64
1, 17225, Note_off_c, 6, 54, 64
1, 17225, Note_off_c, 6, 58, 64
1, 17230, Note_off_c, 6, 63, 64
1, 17231, Note_off_c, 2, 61, 64
1, 17231, Note_on_c, 9, 42, 78
1, 17232, Note_off_c, 9, 42, 64
1, 17234, Note_off_c, 2, 70, 64
1, 17236, Note_off_c, 2, 58, 64
1, 17239, Note_off_c, 2, 66, 64
1, 17254, Note_off_c, 1, 39, 64
1, 17255, Note_on_c, 9, 35, 111
1, 17255, Note_on_c, 9, 42, 76
1, 17256, Note_off_c, 9, 42, 64
1, 17256, Note_off_c, 9, 35, 64
1, 17265, Note_off_c, 4, 78, 64
1, 17265, Note_off_c, 4, 73, 64
1, 17265, Note_off_c, 4, 70, 64
1, 17273, Note_on_c, 2, 59, 60
1, 17274, Note_on_c, 2, 68, 58
1, 17276, Note_on_c, 2, 63, 77
1, 17276, Note_on_c, 3, 82, 104
1, 17277, Note_on_c, 4, 78, 110
1, 17277, Note_on_c, 4, 75, 101
1, 17278, Note_on_c, 0, 66, 91
1, 17278, Note_on_c, 1, 44, 113
1, 17278, Note_on_c, 2, 71, 83
1, 17278, Note_off_c, 3, 78, 64
1, 17279, Note_on_c, 0, 56, 87
1, 17279, Note_on_c, 0, 59, 93
1, 17279, Note_on_c, 0, 63, 96
1, 17279, Note_on_c, 6, 59, 85
1, 17279, Note_on_c, 6, 56, 92
1, 17279, Note_on_c, 6, 54, 78
1, 17279, Note_on_c, 9, 35, 121
1, 17279, Note_on_c, 9, 42, 80
1, 17280, Note_off_c, 9, 42, 64
1, 17280, Note_off_c, 9, 35, 64
1, 17300, Note_off_c, 2, 71, 64
1, 17301, Note_off_c, 2, 68, 64
1, 17301, Note_on_c, 2, 71, 79
1, 17302, Note_on_c, 2, 68, 73
1, 17303, Note_on_c, 9, 42, 73
1, 17304, Note_off_c, 9, 42, 64
1, 17322, Note_off_c, 2, 63, 64
1, 17324, Note_off_c, 2, 68, 64
1, 17325, Note_on_c, 2, 63, 57
1, 17326, Note_off_c, 2, 71, 64
1, 17327, Note_on_c, 2, 71, 79
1, 17327, Note_on_c, 9, 42, 76
1, 17328, Note_on_c, 2, 68, 75
1, 17328, Note_off_c, 9, 42, 64
1, 17330, Note_off_c, 1, 44, 64
1, 17348, Note_off_c, 2, 71, 64
1, 17349, Note_off_c, 2, 68, 64
1, 17349, Note_on_c, 2, 71, 79
1, 17350, Note_on_c, 2, 68, 66
1, 17351, Note_on_c, 1, 44, 110
1, 17351, Note_on_c, 9, 35, 120
1, 17352, Note_off_c, 9, 35, 64
1, 17352, Note_on_c, 9, 42, 76
1, 17353, Note_off_c, 9, 42, 64
1, 17364, Note_off_c, 0, 63, 64
1, 17365, Note_off_c, 0, 59, 64
1, 17365, Note_off_c, 0, 56, 64
1, 17365, Note_off_c, 6, 56, 64
1, 17365, Note_off_c, 6, 59, 64
1, 17367, Note_off_c, 0, 66, 64
1, 17367, Note_off_c, 6, 54, 64
1, 17373, Note_off_c, 2, 63, 64
1, 17374, Note_off_c, 1, 44, 64
1, 17374, Note_off_c, 2, 71, 64
1, 17374, Note_on_c, 2, 63, 77
1, 17375, Note_on_c, 0, 66, 91
1, 17375, Note_on_c, 1, 39, 106
1, 17375, Note_off_c, 2, 68, 64
1, 17375, Note_on_c, 9, 38, 118
1, 17375, Note_on_c, 9, 42, 82
1, 17376, Note_on_c, 0, 59, 96
1, 17376, Note_on_c, 0, 63, 96
1, 17376, Note_on_c, 6, 59, 89
1, 17376, Note_on_c, 6, 56, 92
1, 17376, Note_on_c, 6, 54, 73
1, 17376, Note_off_c, 9, 42, 64
1, 17376, Note_off_c, 9, 38, 64
1, 17377, Note_on_c, 0, 56, 91
1, 17377, Note_on_c, 2, 68, 73
1, 17377, Note_on_c, 2, 71, 83
1, 17398, Note_off_c, 1, 39, 64
1, 17399, Note_off_c, 0, 59, 64
1, 17399, Note_on_c, 1, 42, 112
1, 17399, Note_off_c, 2, 71, 64
1, 17399, Note_on_c, 9, 46, 76
1, 17400, Note_off_c, 2, 68, 64
1, 17400, Note_on_c, 2, 71, 81
1, 17400, Note_off_c, 9, 46, 64
1, 17401, Note_off_c, 0, 56, 64
1, 17401, Note_off_c, 0, 63, 64
1, 17401, Note_on_c, 2, 68, 77
1, 17402, Note_off_c, 6, 54, 64
1, 17402, Note_off_c, 6, 56, 64
1, 17402, Note_off_c, 6, 59, 64
1, 17405, Note_off_c, 0, 66, 64
1, 17415, Note_off_c, 2, 59, 64
1, 17417, Note_off_c, 2, 68, 64
1, 17418, Note_off_c, 2, 71, 64
1, 17418, Note_off_c, 2, 63, 64
1, 17420, Note_off_c, 3, 82, 64
1, 17420, Note_off_c, 4, 75, 64
1, 17420, Note_off_c, 4, 78, 64
1, 17421, Note_on_c, 4, 75, 100
1, 17421, Note_on_c, 4, 78, 97
1, 17422, Note_on_c, 3, 80, 98
1, 17423, Note_on_c, 9, 42, 79
1, 17424, Note_off_c, 9, 42, 64
1, 17444, Note_off_c, 4, 78, 64
1, 17444, Note_off_c, 4, 75, 64
1, 17445, Note_on_c, 4, 78, 96
1, 17445, Note_on_c, 4, 75, 100
1, 17446, Note_off_c, 3, 80, 64
1, 17446, Note_on_c, 9, 42, 77
1, 17447, Note_on_c, 2, 71, 84
1, 17447, Note_off_c, 9, 42, 64
1, 17447, Note_on_c, 9, 35, 110
1, 17448, Note_off_c, 2, 71, 64
1, 17448, Note_on_c, 2, 68, 79
1, 17448, Note_on_c, 3, 80, 103
1, 17448, Note_off_c, 9, 35, 64
1, 17449, Note_off_c, 2, 68, 64
1, 17450, Note_on_c, 2, 63, 53
1, 17451, Note_off_c, 2, 63, 64
1, 17459, Note_off_c, 1, 42, 64
1, 17470, Note_on_c, 9, 42, 77
1, 17471, Note_on_c, 1, 44, 110
1, 17471, Note_on_c, 2, 59, 66
1, 17471, Note_on_c, 2, 63, 76
1, 17471, Note_on_c, 2, 68, 75
1, 17471, Note_off_c, 9, 42, 64
1, 17472, Note_on_c, 9, 35, 118
1, 17473, Note_on_c, 2, 71, 74
1, 17473, Note_off_c, 9, 35, 64
1, 17481, Note_off_c, 4, 75, 64
1, 17481, Note_off_c, 4, 78, 64
1, 17487, Note_off_c, 2, 63, 64
1, 17487, Note_off_c, 3, 80, 64
1, 17489, Note_off_c, 2, 71, 64
1, 17489, Note_off_c, 2, 68, 64
1, 17490, Note_off_c, 2, 59, 64
1, 17495, Note_on_c, 9, 46, 81
1, 17496, Note_off_c, 9, 46, 64
1, 17518, Note_on_c, 2, 59, 41
1, 17518, Note_on_c, 2, 63, 74
1, 17518, Note_on_c, 2, 71, 44
1, 17518, Note_on_c, 6, 54, 83
1, 17518, Note_on_c, 6, 59, 95
1, 17518, Note_on_c, 6, 56, 98
1, 17519, Note_off_c, 1, 44, 64
1, 17519, Note_off_c, 2, 71, 64
1, 17519, Note_off_c, 2, 63, 64
1, 17519, Note_off_c, 2, 59, 64
1, 17519, Note_on_c, 2, 68, 76
1, 17519, Note_on_c, 9, 42, 69
1, 17520, Note_off_c, 2, 68, 64
1, 17520, Note_off_c, 9, 42, 64
1, 17537, Note_off_c, 6, 56, 64
1, 17538, Note_off_c, 6, 59, 64
1, 17541, Note_off_c, 6, 54, 64
1, 17542, Note_on_c, 9, 35, 115
1, 17542, Note_on_c, 9, 42, 74
1, 17543, Note_on_c, 1, 44, 113
1, 17543, Note_off_c, 9, 42, 64
1, 17543, Note_off_c, 9, 35, 64
1, 17544, Note_on_c, 2, 71, 83
1, 17545, Note_off_c, 2, 71, 64
1, 17545, Note_on_c, 2, 68, 79
1, 17546, Note_off_c, 2, 68, 64
1, 17565, Note_on_c, 2, 63, 70
1, 17567, Note_on_c, 2, 68, 73
1, 17567, Note_on_c, 9, 38, 119
1, 17567, Note_on_c, 9, 42, 82
1, 17568, Note_off_c, 1, 44, 64
1, 17568, Note_on_c, 2, 71, 81
1, 17568, Note_off_c, 9, 42, 64
1, 17568, Note_off_c, 9, 38, 64
1, 17569, Note_on_c, 1, 39, 108
1, 17590, Note_off_c, 1, 39, 64
1, 17590, Note_on_c, 6, 59, 95
1, 17590, Note_on_c, 6, 54, 80
1, 17590, Note_on_c, 6, 56, 92
1, 17591, Note_on_c, 0, 59, 95
1, 17591, Note_on_c, 0, 66, 98
1, 17591, Note_on_c, 0, 56, 90
1, 17591, Note_on_c, 0, 63, 94
1, 17591, Note_on_c, 1, 42, 107
1, 17591, Note_off_c, 2, 71, 64
1, 17591, Note_off_c, 2, 68, 64
1, 17591, Note_on_c, 9, 35, 106
1, 17591, Note_on_c, 9, 46, 79
1, 17592, Note_on_c, 2, 71, 78
1, 17592, Note_on_c, 2, 68, 76
1, 17592, Note_off_c, 9, 46, 64
1, 17592, Note_off_c, 9, 35, 64
1, 17604, Note_off_c, 0, 63, 64
1, 17605, Note_off_c, 0, 56, 64
1, 17605, Note_off_c, 0, 59, 64
1, 17608, Note_off_c, 0, 66, 64
1, 17609, Note_off_c, 6, 56, 64
1, 17610, Note_off_c, 6, 59, 64
1, 17611, Note_off_c, 6, 54, 64
1, 17615, Note_on_c, 9, 42, 78
1, 17616, Note_off_c, 2, 63, 64
1, 17616, Note_off_c, 9, 42, 64
1, 17617, Note_off_c, 2, 71, 64
1, 17620, Note_off_c, 2, 68, 64
1, 17638, Note_on_c, 9, 42, 74
1, 17639, Note_off_c, 9, 42, 64
1, 17641, Note_on_c, 9, 35, 102
1, 17642, Note_off_c, 9, 35, 64
1, 17648, Note_off_c, 1, 42, 64
1, 17659, Note_on_c, 2, 59, 30
1, 17661, Note_on_c, 2, 63, 71
1, 17662, Note_on_c, 1, 44, 110
1, 17662, Note_on_c, 6, 56, 95
1, 17663, Note_on_c, 0, 59, 96
1, 17663, Note_on_c, 0, 66, 97
1, 17663, Note_on_c, 0, 56, 91
1, 17663, Note_on_c, 0, 63, 101
1, 17663, Note_on_c, 6, 54, 81
1, 17663, Note_on_c, 6, 59, 101
1, 17663, Note_on_c, 9, 42, 75
1, 17664, Note_on_c, 2, 68, 72
1, 17664, Note_on_c, 2, 71, 81
1, 17664, Note_off_c, 9, 42, 64
1, 17665, Note_on_c, 9, 35, 120
1, 17666, Note_off_c, 9, 35, 64
1, 17685, Note_off_c, 2, 71, 64
1, 17686, Note_off_c, 2, 68, 64
1, 17686, Note_on_c, 2, 71, 79
1, 17687, Note_on_c, 2, 68, 75
1, 17687, Note_on_c, 9, 46, 79
1, 17688, Note_off_c, 9, 46, 64
1, 17711, Note_on_c, 9, 42, 76
1, 17712, Note_off_c, 1, 44, 64
1, 17712, Note_off_c, 9, 42, 64
1, 17734, Note_on_c, 1, 44, 113
1, 17734, Note_on_c, 9, 42, 76
1, 17735, Note_off_c, 9, 42, 64
1, 17735, Note_on_c, 9, 35, 106
1, 17736, Note_off_c, 9, 35, 64
1, 17743, Note_off_c, 0, 63, 64
1, 17744, Note_off_c, 0, 56, 64
1, 17744, Note_off_c, 0, 66, 64
1, 17745, Note_off_c, 0, 59, 64
1, 17746, Note_off_c, 6, 59, 64
1, 17747, Note_off_c, 6, 54, 64
1, 17747, Note_off_c, 6, 56, 64
1, 17758, Note_on_c, 0, 66, 87
1, 17758, Note_on_c, 0, 56, 88
1, 17758, Note_off_c, 1, 44, 64
1, 17758, Note_on_c, 9, 42, 82
1, 17759, Note_on_c, 0, 59, 90
1, 17759, Note_on_c, 0, 63, 101
1, 17759, Note_on_c, 1, 39, 108
1, 17759, Note_on_c, 6, 54, 73
1, 17759, Note_on_c, 6, 59, 89
1, 17759, Note_on_c, 6, 56, 90
1, 17759, Note_off_c, 9, 42, 64
1, 17759, Note_on_c, 9, 38, 117
1, 17760, Note_off_c, 9, 38, 64
1, 17777, Note_off_c, 0, 63, 64
1, 17777, Note_off_c, 0, 59, 64
1, 17780, Note_off_c, 0, 56, 64
1, 17780, Note_off_c, 0, 66, 64
1, 17783, Note_off_c, 6, 56, 64
1, 17783, Note_on_c, 9, 46, 80
1, 17784, Note_off_c, 1, 39, 64
1, 17784, Note_off_c, 6, 59, 64
1, 17784, Note_off_c, 9, 46, 64
1, 17785, Note_on_c, 1, 42, 112
1, 17786, Note_off_c, 6, 54, 64
1, 17805, Note_on_c, 4, 75, 111
1, 17805, Note_on_c, 4, 78, 94
1, 17806, Note_on_c, 3, 78, 109
1, 17807, Note_on_c, 9, 42, 74
1, 17808, Note_off_c, 2, 63, 64
1, 17808, Note_off_c, 9, 42, 64
1, 17809, Note_off_c, 2, 68, 64
1, 17809, Note_on_c, 2, 63, 51
1, 17810, Note_on_c, 2, 68, 71
1, 17811, Note_off_c, 2, 71, 64
1, 17812, Note_on_c, 2, 71, 81
1, 17831, Note_off_c, 2, 71, 64
1, 17831, Note_on_c, 9, 35, 102
1, 17831, Note_on_c, 9, 42, 79
1, 17832, Note_off_c, 2, 68, 64
1, 17832, Note_on_c, 2, 71, 81
1, 17832, Note_off_c, 9, 42, 64
1, 17832, Note_off_c, 9, 35, 64
1, 17833, Note_on_c, 2, 68, 70
1, 17837, Note_off_c, 1, 42, 64
1, 17850, Note_off_c, 3, 78, 64
1, 17852, Note_off_c, 4, 78, 64
1, 17852, Note_off_c, 4, 75, 64
1, 17853, Note_on_c, 4, 75, 107
1, 17853, Note_on_c, 4, 78, 100
1, 17854, Note_on_c, 1, 44, 110
1, 17854, Note_off_c, 2, 59, 64
1, 17855, Note_off_c, 2, 63, 64
1, 17855, Note_off_c, 2, 71, 64
1, 17855, Note_off_c, 2, 68, 64
1, 17855, Note_on_c, 2, 59, 70
1, 17855, Note_on_c, 3, 82, 105
1, 17855, Note_on_c, 9, 35, 120
1, 17855, Note_on_c, 9, 42, 78
1, 17856, Note_on_c, 2, 63, 79
1, 17856, Note_off_c, 9, 42, 64
1, 17856, Note_off_c, 9, 35, 64
1, 17858, Note_on_c, 2, 68, 53
1, 17858, Note_on_c, 2, 71, 80
1, 17874, Note_off_c, 2, 71, 64
1, 17876, Note_off_c, 2, 59, 64
1, 17877, Note_off_c, 2, 68, 64
1, 17877, Note_off_c, 2, 63, 64
1, 17879, Note_on_c, 9, 46, 72
1, 17880, Note_off_c, 9, 46, 64
1, 17898, Note_off_c, 1, 44, 64
1, 17902, Note_on_c, 2, 59, 52
1, 17902, Note_on_c, 6, 59, 107
1, 17902, Note_on_c, 6, 54, 84
1, 17902, Note_on_c, 6, 56, 97
1, 17902, Note_on_c, 9, 42, 78
1, 17903, Note_off_c, 2, 59, 64
1, 17903, Note_on_c, 2, 63, 73
1, 17903, Note_on_c, 2, 68, 76
1, 17903, Note_off_c, 9, 42, 64
1, 17904, Note_off_c, 2, 68, 64
1, 17904, Note_off_c, 2, 63, 64
1, 17905, Note_on_c, 2, 71, 80
1, 17906, Note_off_c, 2, 71, 64
1, 17921, Note_on_c, 3, 80, 108
1, 17922, Note_off_c, 3, 82, 64
1, 17923, Note_off_c, 6, 56, 64
1, 17923, Note_off_c, 6, 59, 64
1, 17924, Note_off_c, 4, 75, 64
1, 17925, Note_off_c, 4, 78, 64
1, 17925, Note_on_c, 4, 77, 100
1, 17925, Note_on_c, 4, 75, 111
1, 17926, Note_on_c, 1, 44, 111
1, 17926, Note_on_c, 2, 71, 81
1, 17927, Note_off_c, 2, 71, 64
1, 17927, Note_on_c, 2, 68, 74
1, 17927, Note_off_c, 6, 54, 64
1, 17927, Note_on_c, 9, 35, 110
1, 17927, Note_on_c, 9, 42, 74
1, 17928, Note_off_c, 2, 68, 64
1, 17928, Note_off_c, 9, 42, 64
1, 17928, Note_off_c, 9, 35, 64
1, 17948, Note_on_c, 2, 59, 49
1, 17948, Note_on_c, 2, 63, 73
1, 17949, Note_off_c, 1, 44, 64
1, 17949, Note_on_c, 2, 68, 74
1, 17950, Note_on_c, 1, 39, 109
1, 17950, Note_on_c, 2, 71, 80
1, 17951, Note_on_c, 9, 38, 116
1, 17952, Note_off_c, 9, 38, 64
1, 17952, Note_on_c, 9, 42, 86
1, 17953, Note_off_c, 9, 42, 64
1, 17971, Note_off_c, 2, 71, 64
1, 17972, Note_off_c, 2, 68, 64
1, 17972, Note_on_c, 2, 71, 79
1, 17973, Note_on_c, 2, 68, 74
1, 17974, Note_on_c, 0, 59, 108
1, 17975, Note_on_c, 0, 66, 105
1, 17975, Note_on_c, 0, 56, 99
1, 17975, Note_on_c, 0, 63, 105
1, 17975, Note_off_c, 1, 39, 64
1, 17975, Note_on_c, 6, 59, 104
1, 17975, Note_on_c, 6, 56, 100
1, 17975, Note_on_c, 6, 54, 90
1, 17975, Note_on_c, 9, 35, 121
1, 17975, Note_on_c, 9, 46, 73
1, 17976, Note_on_c, 1, 42, 107
1, 17976, Note_off_c, 9, 46, 64
1, 17976, Note_off_c, 9, 35, 64
1, 17985, Note_off_c, 0, 56, 64
1, 17985, Note_off_c, 0, 59, 64
1, 17987, Note_off_c, 0, 63, 64
1, 17990, Note_off_c, 3, 80, 64
1, 17991, Note_off_c, 0, 66, 64
1, 17993, Note_on_c, 3, 78, 107
1, 17994, Note_off_c, 6, 56, 64
1, 17994, Note_off_c, 6, 59, 64
1, 17995, Note_off_c, 2, 71, 64
1, 17996, Note_off_c, 4, 75, 64
1, 17996, Note_off_c, 6, 54, 64
1, 17997, Note_off_c, 4, 77, 64
1, 17997, Note_on_c, 4, 75, 111
1, 17997, Note_on_c, 4, 78, 103
1, 17998, Note_off_c, 2, 68, 64
1, 17998, Note_off_c, 2, 59, 64
1, 17999, Note_off_c, 2, 63, 64
1, 17999, Note_on_c, 9, 42, 79
1, 18000, Note_off_c, 9, 42, 64
1, 18018, Note_off_c, 1, 42, 64
1, 18023, Note_on_c, 9, 35, 92
1, 18023, Note_on_c, 9, 42, 76
1, 18024, Note_off_c, 9, 42, 64
1, 18024, Note_off_c, 9, 35, 64
1, 18045, Note_off_c, 4, 78, 64
1, 18045, Note_off_c, 4, 75, 64
1, 18045, Note_on_c, 4, 80, 98
1, 18045, Note_on_c, 4, 77, 104
1, 18046, Note_on_c, 0, 70, 99
1, 18046, Note_on_c, 2, 58, 30
1, 18046, Note_on_c, 3, 82, 108
1, 18046, Note_on_c, 6, 56, 87
1, 18046, Note_on_c, 6, 65, 106
1, 18046, Note_on_c, 6, 58, 90
1, 18047, Note_on_c, 0, 65, 103
1, 18047, Note_on_c, 0, 63, 97
1, 18047, Note_on_c, 1, 46, 110
1, 18047, Note_on_c, 9, 42, 80
1, 18048, Note_on_c, 2, 63, 75
1, 18048, Note_off_c, 9, 42, 64
1, 18049, Note_off_c, 3, 78, 64
1, 18049, Note_on_c, 9, 35, 118
1, 18050, Note_on_c, 2, 65, 76
1, 18050, Note_on_c, 2, 70, 81
1, 18050, Note_off_c, 9, 35, 64
1, 18063, Note_off_c, 0, 63, 64
1, 18063, Note_off_c, 0, 65, 64
1, 18064, Note_off_c, 0, 70, 64
1, 18071, Note_on_c, 9, 46, 79
1, 18072, Note_off_c, 9, 46, 64
1, 18079, Note_off_c, 1, 46, 64
1, 18095, Note_on_c, 0, 70, 106
1, 18095, Note_on_c, 0, 63, 103
1, 18095, Note_on_c, 0, 65, 108
1, 18095, Note_on_c, 1, 46, 108
1, 18097, Note_on_c, 9, 42, 75
1, 18098, Note_off_c, 9, 42, 64
1, 18105, Note_off_c, 0, 65, 64
1, 18105, Note_off_c, 0, 63, 64
1, 18108, Note_off_c, 0, 70, 64
1, 18119, Note_on_c, 9, 35, 109
1, 18120, Note_off_c, 9, 35, 64
1, 18121, Note_on_c, 9, 42, 79
1, 18122, Note_off_c, 9, 42, 64
1, 18124, Note_off_c, 1, 46, 64
1, 18143, Note_on_c, 0, 70, 108
1, 18143, Note_on_c, 0, 65, 113
1, 18143, Note_on_c, 0, 63, 108
1, 18143, Note_on_c, 9, 38, 116
1, 18144, Note_on_c, 1, 46, 110
1, 18144, Note_off_c, 2, 63, 64
1, 18144, Note_off_c, 9, 38, 64
1, 18145, Note_off_c, 2, 65, 64
1, 18145, Note_on_c, 2, 63, 77
1, 18145, Note_on_c, 9, 42, 78
1, 18146, Note_off_c, 9, 42, 64
1, 18147, Note_off_c, 2, 70, 64
1, 18148, Note_on_c, 2, 65, 76
1, 18148, Note_on_c, 2, 70, 77
1, 18169, Note_on_c, 9, 42, 82
1, 18170, Note_off_c, 9, 42, 64
1, 18177, Note_off_c, 1, 46, 64
1, 18186, Note_off_c, 0, 63, 64
1, 18190, Note_off_c, 0, 65, 64
1, 18190, Note_off_c, 0, 70, 64
1, 18191, Note_on_c, 1, 46, 108
1, 18191, Note_on_c, 9, 46, 80
1, 18192, Note_off_c, 9, 46, 64
1, 18207, Note_off_c, 1, 46, 64
1, 18214, Note_off_c, 2, 70, 64
1, 18215, Note_on_c, 2, 70, 83
1, 18215, Note_on_c, 9, 35, 110
1, 18216, Note_on_c, 0, 62, 104
1, 18216, Note_on_c, 0, 70, 108
1, 18216, Note_off_c, 2, 65, 64
1, 18216, Note_off_c, 9, 35, 64
1, 18217, Note_on_c, 0, 65, 117
1, 18217, Note_on_c, 1, 46, 110
1, 18217, Note_on_c, 2, 65, 77
1, 18226, Note_off_c, 2, 58, 64
1, 18234, Note_off_c, 2, 63, 64
1, 18237, Note_on_c, 2, 58, 22
1, 18238, Note_off_c, 0, 65, 64
1, 18238, Note_off_c, 0, 62, 64
1, 18239, Note_off_c, 2, 65, 64
1, 18239, Note_on_c, 2, 62, 75
1, 18240, Note_off_c, 0, 70, 64
1, 18240, Note_off_c, 2, 70, 64
1, 18240, Note_on_c, 2, 65, 79
1, 18240, Note_on_c, 9, 35, 125
1, 18241, Note_on_c, 2, 70, 83
1, 18241, Note_off_c, 9, 35, 64
1, 18248, Note_off_c, 1, 46, 64
1, 18263, Note_on_c, 0, 62, 88
1, 18263, Note_on_c, 0, 70, 98
1, 18263, Note_on_c, 0, 65, 106
1, 18263, Note_on_c, 1, 46, 117
1, 18266, Note_off_c, 2, 65, 64
1, 18268, Note_off_c, 2, 70, 64
1, 18268, Note_off_c, 2, 62, 64
1, 18269, Note_off_c, 2, 58, 64
1, 18284, Note_off_c, 0, 65, 64
1, 18285, Note_off_c, 0, 62, 64
1, 18285, Note_off_c, 4, 77, 64
1, 18285, Note_off_c, 4, 80, 64
1, 18286, Note_off_c, 0, 70, 64
1, 18287, Note_on_c, 2, 62, 46
1, 18288, Note_on_c, 2, 65, 73
1, 18288, Note_off_c, 3, 82, 64
1, 18291, Note_on_c, 2, 70, 54
1, 18297, Note_off_c, 1, 46, 64
1, 18309, Note_off_c, 2, 70, 64
1, 18310, Note_on_c, 0, 70, 90
1, 18310, Note_on_c, 0, 62, 86
1, 18310, Note_on_c, 0, 65, 105
1, 18310, Note_on_c, 2, 70, 80
1, 18311, Note_on_c, 1, 46, 112
1, 18311, Note_off_c, 2, 65, 64
1, 18311, Note_on_c, 9, 35, 107
1, 18312, Note_off_c, 2, 62, 64
1, 18312, Note_on_c, 2, 65, 73
1, 18312, Note_off_c, 9, 35, 64
1, 18314, Note_on_c, 2, 62, 47
1, 18325, Note_off_c, 1, 46, 64
1, 18333, Note_off_c, 2, 62, 64
1, 18333, Note_on_c, 2, 58, 57
1, 18333, Note_on_c, 4, 82, 111
1, 18333, Note_on_c, 4, 70, 99
1, 18335, Note_off_c, 2, 65, 64
1, 18335, Note_off_c, 2, 70, 64
1, 18335, Note_on_c, 2, 62, 78
1, 18335, Note_on_c, 3, 78, 119
1, 18335, Note_on_c, 9, 38, 121
1, 18336, Note_on_c, 2, 65, 76
1, 18336, Note_on_c, 2, 70, 80
1, 18336, Note_off_c, 9, 38, 64
1, 18337, Note_on_c, 1, 37, 115
1, 18356, Note_off_c, 3, 78, 64
1, 18356, Note_off_c, 4, 70, 64
1, 18356, Note_off_c, 4, 82, 64
1, 18357, Note_off_c, 2, 70, 64
1, 18357, Note_on_c, 3, 78, 97
1, 18357, Note_on_c, 4, 82, 98
1, 18357, Note_on_c, 4, 70, 102
1, 18358, Note_off_c, 2, 65, 64
1, 18358, Note_on_c, 2, 70, 79
1, 18359, Note_off_c, 2, 62, 64
1, 18359, Note_on_c, 2, 65, 80
1, 18360, Note_off_c, 1, 37, 64
1, 18360, Note_on_c, 2, 62, 70
1, 18361, Note_on_c, 1, 39, 109
1, 18378, Note_off_c, 2, 58, 64
1, 18378, Note_off_c, 3, 78, 64
1, 18380, Note_off_c, 2, 62, 64
1, 18380, Note_off_c, 2, 65, 64
1, 18380, Note_off_c, 4, 70, 64
1, 18380, Note_off_c, 4, 82, 64
1, 18381, Note_off_c, 2, 70, 64
1, 18381, Note_on_c, 2, 62, 76
1, 18381, Note_on_c, 2, 65, 83
1, 18381, Note_on_c, 3, 78, 103
1, 18381, Note_on_c, 4, 70, 96
1, 18381, Note_on_c, 4, 82, 99
1, 18381, Note_on_c, 9, 55, 93
1, 18382, Note_off_c, 2, 65, 64
1, 18382, Note_off_c, 2, 62, 64
1, 18382, Note_off_c, 9, 55, 64
1, 18383, Note_on_c, 2, 70, 77
1, 18383, Note_on_c, 9, 35, 127
1, 18384, Note_off_c, 2, 70, 64
1, 18384, Note_off_c, 6, 58, 64
1, 18384, Note_off_c, 9, 35, 64
1, 18385, Note_off_c, 1, 39, 64
1, 18385, Note_off_c, 6, 56, 64
1, 18386, Note_on_c, 1, 42, 113
1, 18386, Note_off_c, 6, 65, 64
1, 18402, Note_off_c, 3, 78, 64
1, 18403, Note_off_c, 0, 65, 64
1, 18403, Note_on_c, 3, 78, 111
1, 18404, Note_off_c, 4, 82, 64
1, 18405, Note_off_c, 0, 62, 64
1, 18405, Note_on_c, 2, 62, 81
1, 18405, Note_on_c, 2, 70, 81
1, 18405, Note_off_c, 4, 70, 64
1, 18405, Note_on_c, 4, 82, 100
1, 18406, Note_off_c, 0, 70, 64
1, 18406, Note_off_c, 2, 70, 64
1, 18406, Note_off_c, 2, 62, 64
1, 18411, Note_on_c, 4, 73, 103
1, 18419, Note_off_c, 1, 42, 64
1, 18427, Note_on_c, 2, 58, 48
1, 18429, Note_on_c, 2, 61, 75
1, 18429, Note_on_c, 2, 66, 79
1, 18429, Note_off_c, 4, 82, 64
1, 18430, Note_on_c, 2, 70, 82
1, 18430, Note_off_c, 3, 78, 64
1, 18430, Note_on_c, 7, 70, 85
1, 18430, Note_on_c, 7, 73, 87
1, 18430, Note_on_c, 7, 78, 83
1, 18430, Note_on_c, 9, 49, 92
1, 18431, Note_on_c, 0, 61, 105
1, 18431, Note_on_c, 0, 58, 95
1, 18431, Note_on_c, 0, 66, 108
1, 18431, Note_off_c, 9, 49, 64
1, 18432, Note_on_c, 1, 42, 111
1, 18432, Note_on_c, 9, 35, 118
1, 18433, Note_off_c, 9, 35, 64
1, 18447, Note_off_c, 4, 73, 64
1, 18449, Note_off_c, 2, 70, 64
1, 18452, Note_on_c, 2, 70, 79
1, 18453, Note_off_c, 2, 66, 64
1, 18454, Note_on_c, 2, 66, 78
1, 18478, Note_off_c, 1, 42, 64
1, 18479, Note_on_c, 9, 42, 75
1, 18480, Note_off_c, 9, 42, 64
1, 18500, Note_off_c, 2, 70, 64
1, 18501, Note_on_c, 2, 70, 79
1, 18502, Note_on_c, 1, 42, 105
1, 18502, Note_off_c, 2, 66, 64
1, 18503, Note_on_c, 2, 66, 73
1, 18504, Note_off_c, 2, 61, 64
1, 18505, Note_on_c, 2, 61, 51
1, 18506, Note_on_c, 9, 35, 107
1, 18507, Note_off_c, 9, 35, 64
1, 18517, Note_off_c, 1, 42, 64
1, 18521, Note_on_c, 5, 85, 89
1, 18523, Note_off_c, 2, 58, 64
1, 18524, Note_on_c, 2, 58, 66
1, 18525, Note_off_c, 2, 61, 64
1, 18526, Note_on_c, 1, 42, 110
1, 18526, Note_off_c, 2, 66, 64
1, 18526, Note_on_c, 2, 61, 77
1, 18527, Note_off_c, 2, 70, 64
1, 18527, Note_on_c, 2, 66, 79
1, 18527, Note_on_c, 9, 42, 81
1, 18528, Note_on_c, 2, 70, 83
1, 18528, Note_off_c, 9, 42, 64
1, 18530, Note_on_c, 9, 38, 122
1, 18531, Note_off_c, 9, 38, 64
1, 18541, Note_off_c, 5, 85, 64
1, 18545, Note_on_c, 5, 85, 89
1, 18547, Note_off_c, 2, 58, 64
1, 18548, Note_off_c, 2, 61, 64
1, 18550, Note_off_c, 2, 66, 64
1, 18550, Note_off_c, 2, 70, 64
1, 18551, Note_on_c, 9, 42, 66
1, 18552, Note_off_c, 9, 42, 64
1, 18567, Note_off_c, 5, 85, 64
1, 18571, Note_on_c, 5, 85, 89
1, 18575, Note_on_c, 9, 42, 77
1, 18576, Note_off_c, 9, 42, 64
1, 18579, Note_off_c, 1, 42, 64
1, 18589, Note_off_c, 5, 85, 64
1, 18594, Note_on_c, 5, 85, 89
1, 18599, Note_on_c, 9, 42, 72
1, 18600, Note_on_c, 2, 70, 78
1, 18600, Note_off_c, 9, 42, 64
1, 18601, Note_on_c, 2, 66, 77
1, 18601, Note_on_c, 9, 35, 106
1, 18602, Note_off_c, 9, 35, 64
1, 18620, Note_off_c, 2, 66, 64
1, 18621, Note_off_c, 5, 85, 64
1, 18623, Note_on_c, 9, 42, 83
1, 18624, Note_off_c, 2, 70, 64
1, 18624, Note_off_c, 9, 42, 64
1, 18625, Note_on_c, 9, 35, 120
1, 18626, Note_off_c, 9, 35, 64
1, 18643, Note_on_c, 3, 78, 110
1, 18645, Note_on_c, 4, 70, 92
1, 18645, Note_on_c, 4, 73, 99
1, 18647, Note_on_c, 1, 42, 113
1, 18647, Note_on_c, 9, 42, 72
1, 18648, Note_off_c, 9, 42, 64
1, 18667, Note_off_c, 1, 42, 64
1, 18668, Note_off_c, 3, 78, 64
1, 18668, Note_off_c, 4, 73, 64
1, 18668, Note_off_c, 4, 70, 64
1, 18669, Note_on_c, 2, 66, 77
1, 18669, Note_on_c, 3, 78, 106
1, 18669, Note_on_c, 4, 73, 95
1, 18669, Note_on_c, 4, 70, 86
1, 18670, Note_off_c, 2, 66, 64
1, 18670, Note_on_c, 2, 70, 83
1, 18671, Note_off_c, 2, 70, 64
1, 18671, Note_on_c, 9, 42, 76
1, 18672, Note_on_c, 2, 61, 55
1, 18672, Note_off_c, 9, 42, 64
1, 18673, Note_off_c, 2, 61, 64
1, 18692, Note_on_c, 2, 70, 79
1, 18692, Note_off_c, 4, 70, 64
1, 18692, Note_off_c, 4, 73, 64
1, 18693, Note_off_c, 2, 70, 64
1, 18693, Note_on_c, 2, 66, 74
1, 18693, Note_off_c, 3, 78, 64
1, 18693, Note_on_c, 4, 70, 88
1, 18693, Note_on_c, 4, 73, 100
1, 18694, Note_off_c, 2, 66, 64
1, 18694, Note_on_c, 3, 78, 107
1, 18695, Note_on_c, 1, 42, 111
1, 18695, Note_on_c, 9, 42, 73
1, 18696, Note_off_c, 9, 42, 64
1, 18696, Note_on_c, 9, 35, 113
1, 18697, Note_off_c, 9, 35, 64
1, 18716, Note_off_c, 1, 42, 64
1, 18716, Note_on_c, 2, 61, 75
1, 18717, Note_on_c, 2, 66, 79
1, 18718, Note_on_c, 1, 37, 110
1, 18719, Note_on_c, 2, 70, 81
1, 18719, Note_on_c, 9, 42, 85
1, 18720, Note_off_c, 9, 42, 64
1, 18720, Note_on_c, 9, 38, 118
1, 18721, Note_off_c, 9, 38, 64
1, 18737, Note_off_c, 3, 78, 64
1, 18740, Note_on_c, 3, 78, 109
1, 18740, Note_off_c, 4, 73, 64
1, 18740, Note_off_c, 4, 70, 64
1, 18741, Note_off_c, 1, 37, 64
1, 18741, Note_on_c, 4, 70, 97
1, 18741, Note_on_c, 4, 73, 102
1, 18742, Note_on_c, 1, 39, 103
1, 18742, Note_off_c, 2, 61, 64
1, 18743, Note_on_c, 9, 42, 74
1, 18744, Note_off_c, 2, 70, 64
1, 18744, Note_off_c, 9, 42, 64
1, 18745, Note_off_c, 2, 66, 64
1, 18745, Note_on_c, 9, 35, 127
1, 18746, Note_off_c, 9, 35, 64
1, 18766, Note_off_c, 1, 39, 64
1, 18767, Note_on_c, 1, 42, 113
1, 18767, Note_on_c, 9, 42, 79
1, 18768, Note_on_c, 2, 61, 63
1, 18768, Note_off_c, 9, 42, 64
1, 18769, Note_off_c, 2, 61, 64
1, 18769, Note_on_c, 2, 66, 77
1, 18770, Note_off_c, 2, 66, 64
1, 18770, Note_on_c, 2, 70, 80
1, 18771, Note_off_c, 2, 70, 64
1, 18772, Note_off_c, 0, 66, 64
1, 18787, Note_off_c, 0, 58, 64
1, 18788, Note_off_c, 0, 61, 64
1, 18790, Note_off_c, 3, 78, 64
1, 18790, Note_on_c, 9, 42, 66
1, 18791, Note_off_c, 9, 42, 64
1, 18792, Note_on_c, 9, 35, 118
1, 18793, Note_off_c, 9, 35, 64
1, 18794, Note_on_c, 2, 66, 69
1, 18795, Note_off_c, 2, 66, 64
1, 18795, Note_on_c, 2, 70, 79
1, 18796, Note_off_c, 2, 70, 64
1, 18797, Note_off_c, 1, 42, 64
1, 18801, Note_off_c, 4, 73, 64
1, 18801, Note_off_c, 4, 70, 64
1, 18809, Note_on_c, 3, 82, 106
1, 18811, Note_off_c, 7, 78, 64
1, 18811, Note_off_c, 7, 73, 64
1, 18811, Note_off_c, 7, 70, 64
1, 18812, Note_on_c, 0, 61, 103
1, 18812, Note_on_c, 0, 58, 95
1, 18813, Note_on_c, 0, 65, 96
1, 18813, Note_on_c, 4, 73, 95
1, 18813, Note_on_c, 4, 70, 91
1, 18813, Note_on_c, 4, 82, 95
1, 18814, Note_on_c, 7, 70, 80
1, 18814, Note_on_c, 7, 77, 79
1, 18814, Note_on_c, 7, 73, 69
1, 18815, Note_on_c, 1, 46, 110
1, 18815, Note_on_c, 9, 42, 84
1, 18816, Note_off_c, 9, 42, 64
1, 18816, Note_on_c, 9, 35, 123
1, 18817, Note_on_c, 2, 58, 74
1, 18817, Note_off_c, 9, 35, 64
1, 18818, Note_off_c, 2, 58, 64
1, 18819, Note_on_c, 2, 61, 75
1, 18819, Note_on_c, 2, 65, 77
1, 18820, Note_off_c, 2, 65, 64
1, 18820, Note_off_c, 2, 61, 64
1, 18820, Note_on_c, 2, 70, 80
1, 18821, Note_off_c, 2, 70, 64
1, 18838, Note_on_c, 9, 46, 79
1, 18839, Note_off_c, 9, 46, 64
1, 18842, Note_on_c, 2, 65, 73
1, 18843, Note_on_c, 2, 70, 78
1, 18862, Note_on_c, 9, 42, 71
1, 18863, Note_off_c, 9, 42, 64
1, 18868, Note_off_c, 1, 46, 64
1, 18873, Note_off_c, 4, 82, 64
1, 18875, Note_off_c, 3, 82, 64
1, 18882, Note_on_c, 3, 80, 104
1, 18884, Note_off_c, 4, 70, 64
1, 18884, Note_off_c, 4, 73, 64
1, 18885, Note_off_c, 2, 70, 64
1, 18885, Note_on_c, 4, 80, 93
1, 18885, Note_on_c, 4, 73, 94
1, 18885, Note_on_c, 4, 70, 89
1, 18886, Note_on_c, 1, 46, 102
1, 18886, Note_on_c, 2, 70, 77
1, 18886, Note_on_c, 9, 35, 114
1, 18886, Note_on_c, 9, 42, 76
1, 18887, Note_off_c, 2, 70, 64
1, 18887, Note_off_c, 2, 65, 64
1, 18887, Note_off_c, 9, 42, 64
1, 18887, Note_off_c, 9, 35, 64
1, 18888, Note_on_c, 2, 65, 73
1, 18888, Note_on_c, 5, 85, 90
1, 18889, Note_off_c, 2, 65, 64
1, 18900, Note_off_c, 1, 46, 64
1, 18909, Note_on_c, 2, 58, 61
1, 18910, Note_off_c, 2, 58, 64
1, 18910, Note_on_c, 9, 42, 73
1, 18911, Note_on_c, 1, 46, 109
1, 18911, Note_on_c, 2, 61, 75
1, 18911, Note_off_c, 9, 42, 64
1, 18911, Note_on_c, 9, 38, 116
1, 18912, Note_off_c, 2, 61, 64
1, 18912, Note_off_c, 9, 38, 64
1, 18913, Note_on_c, 2, 65, 81
1, 18913, Note_on_c, 2, 70, 78
1, 18914, Note_off_c, 2, 70, 64
1, 18914, Note_off_c, 2, 65, 64
1, 18932, Note_off_c, 5, 85, 64
1, 18933, Note_off_c, 4, 80, 64
1, 18933, Note_on_c, 4, 78, 90
1, 18933, Note_on_c, 5, 85, 90
1, 18934, Note_on_c, 9, 42, 79
1, 18935, Note_on_c, 2, 65, 78
1, 18935, Note_off_c, 9, 42, 64
1, 18936, Note_on_c, 2, 61, 67
1, 18937, Note_on_c, 2, 70, 77
1, 18953, Note_off_c, 3, 80, 64
1, 18957, Note_off_c, 4, 78, 64
1, 18957, Note_off_c, 4, 70, 64
1, 18957, Note_off_c, 4, 73, 64
1, 18957, Note_on_c, 4, 75, 91
1, 18958, Note_on_c, 9, 42, 75
1, 18959, Note_off_c, 5, 85, 64
1, 18959, Note_off_c, 9, 42, 64
1, 18960, Note_on_c, 5, 85, 90
1, 18964, Note_off_c, 2, 70, 64
1, 18964, Note_off_c, 2, 61, 64
1, 18964, Note_off_c, 2, 65, 64
1, 18968, Note_off_c, 1, 46, 64
1, 18981, Note_off_c, 4, 75, 64
1, 18981, Note_on_c, 4, 73, 90
1, 18981, Note_off_c, 5, 85, 64
1, 18982, Note_on_c, 5, 85, 90
1, 18982, Note_on_c, 9, 35, 115
1, 18983, Note_off_c, 9, 35, 64
1, 18983, Note_on_c, 9, 42, 80
1, 18984, Note_off_c, 9, 42, 64
1, 18988, Note_on_c, 2, 65, 79
1, 18988, Note_on_c, 2, 61, 70
1, 18989, Note_on_c, 2, 70, 79
1, 19006, Note_off_c, 5, 85, 64
1, 19007, Note_on_c, 9, 35, 120
1, 19007, Note_on_c, 9, 42, 79
1, 19008, Note_off_c, 9, 42, 64
1, 19008, Note_off_c, 9, 35, 64
1, 19009, Note_on_c, 5, 85, 90
1, 19016, Note_off_c, 2, 70, 64
1, 19016, Note_off_c, 2, 65, 64
1, 19017, Note_off_c, 4, 73, 64
1, 19019, Note_off_c, 2, 61, 64
1, 19031, Note_on_c, 1, 46, 110
1, 19031, Note_on_c, 9, 46, 78
1, 19032, Note_off_c, 9, 46, 64
1, 19035, Note_on_c, 2, 65, 79
1, 19036, Note_on_c, 2, 70, 78
1, 19044, Note_off_c, 5, 85, 64
1, 19044, Note_on_c, 5, 82, 91
1, 19052, Note_off_c, 1, 46, 64
1, 19056, Note_off_c, 2, 70, 64
1, 19056, Note_on_c, 9, 42, 76
1, 19057, Note_off_c, 9, 42, 64
1, 19060, Note_off_c, 2, 65, 64
1, 19076, Note_off_c, 5, 82, 64
1, 19078, Note_on_c, 9, 35, 114
1, 19079, Note_on_c, 1, 46, 110
1, 19079, Note_on_c, 2, 70, 79
1, 19079, Note_off_c, 9, 35, 64
1, 19079, Note_on_c, 9, 42, 73
1, 19080, Note_on_c, 2, 65, 77
1, 19080, Note_on_c, 5, 80, 91
1, 19080, Note_off_c, 9, 42, 64
1, 19098, Note_on_c, 3, 73, 105
1, 19101, Note_off_c, 1, 46, 64
1, 19101, Note_on_c, 2, 58, 52
1, 19101, Note_on_c, 4, 73, 97
1, 19102, Note_on_c, 1, 41, 107
1, 19102, Note_off_c, 2, 58, 64
1, 19103, Note_off_c, 2, 65, 64
1, 19103, Note_on_c, 2, 61, 73
1, 19103, Note_on_c, 9, 38, 116
1, 19103, Note_on_c, 9, 42, 86
1, 19104, Note_off_c, 2, 61, 64
1, 19104, Note_off_c, 2, 70, 64
1, 19104, Note_on_c, 2, 65, 79
1, 19104, Note_off_c, 9, 42, 64
1, 19104, Note_off_c, 9, 38, 64
1, 19105, Note_off_c, 2, 65, 64
1, 19105, Note_on_c, 2, 70, 80
1, 19106, Note_off_c, 2, 70, 64
1, 19121, Note_off_c, 5, 80, 64
1, 19122, Note_off_c, 3, 73, 64
1, 19123, Note_on_c, 3, 73, 98
1, 19124, Note_off_c, 4, 73, 64
1, 19125, Note_on_c, 4, 73, 86
1, 19126, Note_off_c, 1, 41, 64
1, 19127, Note_on_c, 1, 44, 107
1, 19127, Note_on_c, 2, 70, 77
1, 19127, Note_on_c, 9, 46, 80
1, 19128, Note_off_c, 2, 70, 64
1, 19128, Note_on_c, 2, 65, 77
1, 19128, Note_on_c, 5, 78, 92
1, 19128, Note_off_c, 9, 46, 64
1, 19129, Note_off_c, 2, 65, 64
1, 19129, Note_on_c, 9, 35, 127
1, 19130, Note_off_c, 9, 35, 64
1, 19143, Note_off_c, 3, 73, 64
1, 19144, Note_off_c, 0, 65, 64
1, 19144, Note_on_c, 3, 73, 101
1, 19145, Note_off_c, 0, 61, 64
1, 19148, Note_off_c, 4, 73, 64
1, 19149, Note_off_c, 1, 44, 64
1, 19149, Note_on_c, 4, 73, 97
1, 19150, Note_off_c, 0, 58, 64
1, 19150, Note_on_c, 1, 46, 110
1, 19150, Note_on_c, 2, 61, 75
1, 19151, Note_on_c, 2, 65, 79
1, 19151, Note_on_c, 9, 42, 84
1, 19152, Note_on_c, 2, 70, 81
1, 19152, Note_off_c, 9, 42, 64
1, 19156, Note_off_c, 5, 78, 64
1, 19169, Note_off_c, 2, 70, 64
1, 19170, Note_off_c, 2, 65, 64
1, 19170, Note_off_c, 2, 61, 64
1, 19175, Note_on_c, 9, 35, 113
1, 19175, Note_on_c, 9, 42, 76
1, 19176, Note_off_c, 9, 42, 64
1, 19176, Note_off_c, 9, 35, 64
1, 19186, Note_off_c, 1, 46, 64
1, 19192, Note_off_c, 3, 73, 64
1, 19194, Note_on_c, 0, 66, 96
1, 19194, Note_on_c, 0, 59, 92
1, 19194, Note_on_c, 3, 80, 106
1, 19195, Note_on_c, 0, 63, 108
1, 19195, Note_off_c, 7, 77, 64
1, 19196, Note_off_c, 7, 73, 64
1, 19197, Note_off_c, 4, 73, 64
1, 19197, Note_on_c, 4, 78, 98
1, 19197, Note_on_c, 4, 75, 97
1, 19197, Note_off_c, 7, 70, 64
1, 19198, Note_on_c, 2, 59, 50
1, 19198, Note_on_c, 7, 71, 86
1, 19198, Note_on_c, 7, 75, 77
1, 19198, Note_on_c, 9, 42, 77
1, 19199, Note_on_c, 1, 47, 112
1, 19199, Note_off_c, 2, 59, 64
1, 19199, Note_on_c, 7, 78, 76
1, 19199, Note_off_c, 9, 42, 64
1, 19200, Note_on_c, 2, 63, 74
1, 19200, Note_on_c, 9, 35, 127
1, 19201, Note_off_c, 2, 63, 64
1, 19201, Note_on_c, 2, 66, 74
1, 19201, Note_off_c, 9, 35, 64
1, 19202, Note_off_c, 2, 66, 64
1, 19202, Note_on_c, 2, 71, 79
1, 19203, Note_off_c, 2, 71, 64
1, 19223, Note_on_c, 2, 71, 76
1, 19223, Note_on_c, 2, 66, 76
1, 19224, Note_on_c, 9, 46, 81
1, 19225, Note_off_c, 9, 46, 64
1, 19247, Note_on_c, 9, 42, 82
1, 19248, Note_off_c, 9, 42, 64
1, 19251, Note_off_c, 1, 47, 64
1, 19262, Note_off_c, 3, 80, 64
1, 19264, Note_on_c, 3, 78, 108
1, 19268, Note_off_c, 4, 75, 64
1, 19268, Note_off_c, 4, 78, 64
1, 19269, Note_off_c, 2, 71, 64
1, 19269, Note_on_c, 4, 75, 90
1, 19269, Note_on_c, 4, 78, 92
1, 19271, Note_off_c, 2, 66, 64
1, 19271, Note_on_c, 9, 35, 114
1, 19271, Note_on_c, 9, 42, 74
1, 19272, Note_on_c, 1, 47, 106
1, 19272, Note_on_c, 2, 66, 76
1, 19272, Note_off_c, 9, 42, 64
1, 19272, Note_off_c, 9, 35, 64
1, 19273, Note_off_c, 2, 66, 64
1, 19273, Note_on_c, 2, 71, 72
1, 19274, Note_off_c, 2, 71, 64
1, 19274, Note_on_c, 2, 63, 58
1, 19275, Note_off_c, 2, 63, 64
1, 19286, Note_off_c, 1, 47, 64
1, 19294, Note_on_c, 9, 42, 78
1, 19295, Note_off_c, 9, 42, 64
1, 19295, Note_on_c, 9, 38, 118
1, 19296, Note_on_c, 1, 47, 111
1, 19296, Note_off_c, 9, 38, 64
1, 19297, Note_on_c, 2, 66, 75
1, 19298, Note_off_c, 2, 66, 64
1, 19300, Note_on_c, 2, 71, 80
1, 19301, Note_off_c, 2, 71, 64
1, 19310, Note_off_c, 3, 78, 64
1, 19318, Note_on_c, 9, 42, 75
1, 19319, Note_off_c, 9, 42, 64
1, 19322, Note_on_c, 2, 66, 77
1, 19323, Note_on_c, 2, 71, 73
1, 19323, Note_on_c, 2, 63, 68
1, 19324, Note_on_c, 2, 59, 51
1, 19341, Note_off_c, 1, 47, 64
1, 19343, Note_on_c, 9, 42, 83
1, 19344, Note_off_c, 9, 42, 64
1, 19353, Note_off_c, 4, 78, 64
1, 19353, Note_off_c, 4, 75, 64
1, 19365, Note_off_c, 2, 71, 64
1, 19366, Note_on_c, 9, 42, 75
1, 19367, Note_off_c, 9, 42, 64
1, 19367, Note_on_c, 9, 35, 115
1, 19368, Note_off_c, 2, 66, 64
1, 19368, Note_off_c, 9, 35, 64
1, 19369, Note_on_c, 2, 66, 75
1, 19370, Note_on_c, 2, 71, 76
1, 19391, Note_on_c, 9, 42, 86
1, 19392, Note_off_c, 9, 42, 64
1, 19392, Note_on_c, 9, 35, 121
1, 19393, Note_off_c, 9, 35, 64
1, 19414, Note_on_c, 9, 46, 77
1, 19415, Note_on_c, 1, 47, 112
1, 19415, Note_off_c, 2, 59, 64
1, 19415, Note_off_c, 9, 46, 64
1, 19437, Note_off_c, 2, 63, 64
1, 19438, Note_off_c, 1, 47, 64
1, 19438, Note_off_c, 2, 66, 64
1, 19438, Note_on_c, 2, 63, 72
1, 19439, Note_off_c, 2, 63, 64
1, 19439, Note_off_c, 2, 71, 64
1, 19439, Note_on_c, 2, 66, 79
1, 19439, Note_on_c, 9, 42, 79
1, 19440, Note_off_c, 2, 66, 64
1, 19440, Note_on_c, 2, 71, 79
1, 19440, Note_off_c, 9, 42, 64
1, 19441, Note_off_c, 2, 71, 64
1, 19462, Note_on_c, 1, 47, 110
1, 19462, Note_on_c, 2, 66, 63
1, 19463, Note_off_c, 2, 66, 64
1, 19463, Note_on_c, 2, 71, 78
1, 19463, Note_on_c, 9, 35, 114
1, 19463, Note_on_c, 9, 42, 75
1, 19464, Note_off_c, 2, 71, 64
1, 19464, Note_off_c, 9, 42, 64
1, 19464, Note_off_c, 9, 35, 64
1, 19482, Note_off_c, 1, 47, 64
1, 19483, Note_on_c, 3, 78, 109
1, 19485, Note_on_c, 1, 42, 106
1, 19485, Note_on_c, 4, 75, 89
1, 19485, Note_on_c, 4, 71, 89
1, 19487, Note_on_c, 2, 66, 79
1, 19487, Note_on_c, 9, 38, 116
1, 19487, Note_on_c, 9, 42, 78
1, 19488, Note_on_c, 2, 63, 66
1, 19488, Note_off_c, 9, 42, 64
1, 19488, Note_off_c, 9, 38, 64
1, 19489, Note_on_c, 2, 71, 77
1, 19506, Note_off_c, 3, 78, 64
1, 19507, Note_off_c, 2, 71, 64
1, 19507, Note_on_c, 3, 78, 101
1, 19508, Note_on_c, 2, 71, 77
1, 19508, Note_off_c, 4, 71, 64
1, 19508, Note_off_c, 4, 75, 64
1, 19509, Note_off_c, 1, 42, 64
1, 19509, Note_off_c, 2, 66, 64
1, 19509, Note_on_c, 4, 71, 83
1, 19509, Note_on_c, 4, 75, 88
1, 19510, Note_on_c, 1, 44, 102
1, 19510, Note_on_c, 2, 66, 73
1, 19510, Note_on_c, 9, 42, 75
1, 19511, Note_off_c, 9, 42, 64
1, 19511, Note_on_c, 9, 35, 127
1, 19512, Note_off_c, 9, 35, 64
1, 19526, Note_off_c, 3, 78, 64
1, 19529, Note_off_c, 0, 63, 64
1, 19529, Note_on_c, 3, 78, 108
1, 19532, Note_off_c, 0, 66, 64
1, 19532, Note_off_c, 2, 63, 64
1, 19532, Note_off_c, 4, 75, 64
1, 19532, Note_off_c, 4, 71, 64
1, 19533, Note_off_c, 0, 59, 64
1, 19533, Note_off_c, 2, 66, 64
1, 19533, Note_on_c, 2, 63, 75
1, 19533, Note_on_c, 4, 75, 97
1, 19533, Note_on_c, 4, 71, 90
1, 19534, Note_off_c, 1, 44, 64
1, 19534, Note_off_c, 2, 71, 64
1, 19534, Note_on_c, 2, 66, 79
1, 19534, Note_on_c, 9, 42, 82
1, 19535, Note_on_c, 1, 47, 112
1, 19535, Note_on_c, 2, 71, 80
1, 19535, Note_off_c, 9, 42, 64
1, 19550, Note_off_c, 2, 66, 64
1, 19551, Note_off_c, 2, 71, 64
1, 19553, Note_off_c, 2, 63, 64
1, 19557, Note_off_c, 4, 71, 64
1, 19557, Note_off_c, 4, 75, 64
1, 19558, Note_on_c, 9, 42, 70
1, 19559, Note_off_c, 9, 42, 64
1, 19560, Note_on_c, 9, 35, 111
1, 19561, Note_off_c, 9, 35, 64
1, 19563, Note_off_c, 3, 78, 64
1, 19572, Note_off_c, 1, 47, 64
1, 19577, Note_off_c, 7, 71, 64
1, 19578, Note_on_c, 0, 62, 89
1, 19578, Note_on_c, 0, 66, 99
1, 19578, Note_on_c, 0, 59, 93
1, 19579, Note_off_c, 7, 78, 64
1, 19579, Note_off_c, 7, 75, 64
1, 19580, Note_on_c, 2, 59, 39
1, 19581, Note_on_c, 7, 71, 78
1, 19581, Note_on_c, 7, 74, 78
1, 19581, Note_on_c, 7, 78, 72
1, 19582, Note_on_c, 2, 62, 73
1, 19582, Note_on_c, 9, 42, 77
1, 19583, Note_on_c, 1, 47, 113
1, 19583, Note_on_c, 2, 66, 82
1, 19583, Note_off_c, 9, 42, 64
1, 19584, Note_on_c, 2, 71, 81
1, 19585, Note_on_c, 9, 35, 127
1, 19586, Note_off_c, 9, 35, 64
1, 19606, Note_on_c, 9, 42, 73
1, 19607, Note_off_c, 9, 42, 64
1, 19628, Note_on_c, 3, 78, 104
1, 19629, Note_on_c, 4, 71, 98
1, 19629, Note_on_c, 4, 74, 98
1, 19630, Note_on_c, 9, 42, 77
1, 19631, Note_off_c, 1, 47, 64
1, 19631, Note_off_c, 9, 42, 64
1, 19632, Note_off_c, 2, 71, 64
1, 19632, Note_off_c, 2, 66, 64
1, 19634, Note_on_c, 2, 71, 75
1, 19634, Note_on_c, 2, 66, 66
1, 19655, Note_on_c, 9, 42, 74
1, 19656, Note_off_c, 9, 42, 64
1, 19656, Note_on_c, 9, 35, 114
1, 19657, Note_on_c, 1, 47, 105
1, 19657, Note_off_c, 9, 35, 64
1, 19672, Note_off_c, 1, 47, 64
1, 19673, Note_off_c, 3, 78, 64
1, 19674, Note_off_c, 2, 59, 64
1, 19675, Note_on_c, 2, 59, 56
1, 19676, Note_off_c, 2, 62, 64
1, 19676, Note_off_c, 4, 74, 64
1, 19676, Note_off_c, 4, 71, 64
1, 19677, Note_off_c, 2, 66, 64
1, 19677, Note_on_c, 2, 62, 73
1, 19677, Note_on_c, 3, 80, 100
1, 19677, Note_on_c, 4, 74, 97
1, 19677, Note_on_c, 4, 71, 93
1, 19678, Note_off_c, 2, 71, 64
1, 19678, Note_on_c, 2, 66, 79
1, 19678, Note_on_c, 9, 42, 82
1, 19679, Note_on_c, 2, 71, 74
1, 19679, Note_off_c, 9, 42, 64
1, 19679, Note_on_c, 9, 38, 116
1, 19680, Note_off_c, 9, 38, 64
1, 19681, Note_on_c, 1, 47, 112
1, 19702, Note_on_c, 9, 42, 73
1, 19703, Note_off_c, 9, 42, 64
1, 19703, Note_on_c, 9, 35, 123
1, 19704, Note_off_c, 9, 35, 64
1, 19706, Note_off_c, 2, 71, 64
1, 19706, Note_off_c, 2, 66, 64
1, 19706, Note_off_c, 2, 62, 64
1, 19708, Note_off_c, 2, 59, 64
1, 19717, Note_off_c, 1, 47, 64
1, 19719, Note_off_c, 3, 80, 64
1, 19722, Note_on_c, 3, 78, 98
1, 19724, Note_off_c, 4, 71, 64
1, 19724, Note_off_c, 4, 74, 64
1, 19725, Note_on_c, 4, 71, 92
1, 19725, Note_on_c, 4, 74, 96
1, 19726, Note_on_c, 9, 42, 76
1, 19727, Note_off_c, 9, 42, 64
1, 19746, Note_off_c, 3, 78, 64
1, 19747, Note_on_c, 3, 80, 104
1, 19748, Note_off_c, 4, 74, 64
1, 19748, Note_off_c, 4, 71, 64
1, 19749, Note_on_c, 4, 71, 95
1, 19749, Note_on_c, 4, 74, 97
1, 19750, Note_on_c, 9, 42, 75
1, 19751, Note_off_c, 9, 42, 64
1, 19751, Note_on_c, 9, 35, 113
1, 19752, Note_off_c, 9, 35, 64
1, 19771, Note_on_c, 5, 85, 93
1, 19774, Note_on_c, 9, 42, 82
1, 19775, Note_off_c, 9, 42, 64
1, 19775, Note_on_c, 9, 35, 127
1, 19776, Note_off_c, 9, 35, 64
1, 19791, Note_off_c, 3, 80, 64
1, 19793, Note_on_c, 3, 78, 107
1, 19796, Note_off_c, 4, 74, 64
1, 19796, Note_off_c, 4, 71, 64
1, 19797, Note_on_c, 4, 71, 96
1, 19797, Note_on_c, 4, 74, 96
1, 19798, Note_on_c, 1, 50, 106
1, 19798, Note_on_c, 9, 42, 72
1, 19799, Note_off_c, 9, 42, 64
1, 19822, Note_off_c, 1, 50, 64
1, 19822, Note_on_c, 9, 42, 77
1, 19823, Note_on_c, 1, 49, 110
1, 19823, Note_off_c, 9, 42, 64
1, 19825, Note_on_c, 9, 35, 120
1, 19826, Note_off_c, 3, 78, 64
1, 19826, Note_off_c, 9, 35, 64
1, 19833, Note_off_c, 4, 74, 64
1, 19833, Note_off_c, 4, 71, 64
1, 19846, Note_off_c, 1, 49, 64
1, 19847, Note_on_c, 1, 47, 103
1, 19847, Note_on_c, 2, 66, 76
1, 19847, Note_on_c, 2, 71, 71
1, 19847, Note_on_c, 9, 42, 73
1, 19848, Note_on_c, 2, 62, 57
1, 19848, Note_off_c, 9, 42, 64
1, 19866, Note_off_c, 5, 85, 64
1, 19867, Note_on_c, 3, 80, 107
1, 19869, Note_on_c, 4, 74, 98
1, 19869, Note_on_c, 4, 71, 98
1, 19870, Note_off_c, 1, 47, 64
1, 19870, Note_on_c, 5, 85, 95
1, 19871, Note_on_c, 1, 44, 112
1, 19871, Note_on_c, 9, 38, 118
1, 19871, Note_on_c, 9, 42, 79
1, 19872, Note_off_c, 9, 42, 64
1, 19872, Note_off_c, 9, 38, 64
1, 19892, Note_off_c, 3, 80, 64
1, 19892, Note_off_c, 4, 71, 64
1, 19892, Note_off_c, 4, 74, 64
1, 19893, Note_on_c, 3, 80, 103
1, 19893, Note_on_c, 4, 74, 89
1, 19893, Note_on_c, 4, 71, 96
1, 19894, Note_off_c, 1, 44, 64
1, 19894, Note_off_c, 2, 71, 64
1, 19894, Note_on_c, 9, 42, 74
1, 19895, Note_on_c, 1, 42, 100
1, 19895, Note_off_c, 2, 66, 64
1, 19895, Note_on_c, 2, 71, 76
1, 19895, Note_off_c, 9, 42, 64
1, 19896, Note_on_c, 2, 66, 77
1, 19896, Note_off_c, 5, 85, 64
1, 19896, Note_on_c, 9, 35, 127
1, 19897, Note_on_c, 5, 85, 89
1, 19897, Note_off_c, 9, 35, 64
1, 19902, Note_on_c, 2, 59, 30
1, 19908, Note_off_c, 0, 59, 64
1, 19908, Note_off_c, 0, 62, 64
1, 19913, Note_off_c, 0, 66, 64
1, 19913, Note_off_c, 3, 80, 64
1, 19914, Note_on_c, 3, 80, 102
1, 19915, Note_off_c, 5, 85, 64
1, 19916, Note_off_c, 4, 71, 64
1, 19916, Note_off_c, 4, 74, 64
1, 19916, Note_on_c, 5, 85, 93
1, 19917, Note_off_c, 1, 42, 64
1, 19917, Note_on_c, 4, 74, 95
1, 19917, Note_on_c, 4, 71, 92
1, 19918, Note_on_c, 1, 38, 103
1, 19918, Note_on_c, 9, 42, 75
1, 19919, Note_off_c, 2, 62, 64
1, 19919, Note_off_c, 9, 42, 64
1, 19920, Note_off_c, 2, 66, 64
1, 19920, Note_on_c, 2, 62, 60
1, 19921, Note_off_c, 2, 71, 64
1, 19921, Note_on_c, 2, 66, 70
1, 19922, Note_on_c, 2, 71, 57
1, 19937, Note_off_c, 3, 80, 64
1, 19937, Note_on_c, 3, 78, 107
1, 19937, Note_off_c, 5, 85, 64
1, 19941, Note_off_c, 4, 71, 64
1, 19941, Note_off_c, 4, 74, 64
1, 19941, Note_on_c, 4, 73, 100
1, 19941, Note_on_c, 4, 70, 100
1, 19942, Note_off_c, 2, 71, 64
1, 19942, Note_on_c, 5, 85, 95
1, 19942, Note_on_c, 9, 42, 73
1, 19943, Note_on_c, 2, 71, 77
1, 19943, Note_off_c, 9, 42, 64
1, 19943, Note_on_c, 9, 35, 109
1, 19944, Note_off_c, 9, 35, 64
1, 19945, Note_off_c, 1, 38, 64
1, 19946, Note_on_c, 1, 35, 108
1, 19955, Note_off_c, 2, 62, 64
1, 19956, Note_off_c, 2, 59, 64
1, 19958, Note_off_c, 2, 66, 64
1, 19958, Note_off_c, 2, 71, 64
1, 19963, Note_off_c, 7, 78, 64
1, 19963, Note_off_c, 7, 74, 64
1, 19963, Note_off_c, 7, 71, 64
1, 19965, Note_on_c, 7, 70, 76
1, 19965, Note_on_c, 7, 73, 68
1, 19965, Note_on_c, 7, 78, 76
1, 19966, Note_on_c, 0, 61, 106
1, 19966, Note_on_c, 9, 42, 77
1, 19967, Note_on_c, 0, 66, 103
1, 19967, Note_on_c, 0, 58, 96
1, 19967, Note_on_c, 2, 58, 54
1, 19967, Note_off_c, 9, 42, 64
1, 19968, Note_off_c, 1, 35, 64
1, 19969, Note_on_c, 1, 42, 110
1, 19969, Note_on_c, 2, 61, 73
1, 19969, Note_on_c, 9, 35, 125
1, 19970, Note_on_c, 2, 66, 77
1, 19970, Note_off_c, 9, 35, 64
1, 19971, Note_on_c, 2, 70, 70
1, 19973, Note_off_c, 3, 78, 64
1, 19977, Note_off_c, 4, 70, 64
1, 19977, Note_off_c, 4, 73, 64
1, 19978, Note_off_c, 5, 85, 64
1, 19989, Note_off_c, 2, 70, 64
1, 19990, Note_on_c, 2, 70, 77
1, 19990, Note_on_c, 9, 42, 72
1, 19991, Note_off_c, 2, 70, 64
1, 19991, Note_off_c, 2, 66, 64
1, 19991, Note_off_c, 9, 42, 64
1, 19992, Note_on_c, 2, 66, 70
1, 19993, Note_off_c, 2, 66, 64
1, 19993, Note_off_c, 2, 58, 64
1, 19994, Note_off_c, 2, 61, 64
1, 20011, Note_on_c, 5, 85, 87
1, 20014, Note_on_c, 9, 42, 71
1, 20015, Note_off_c, 9, 42, 64
1, 20018, Note_off_c, 1, 42, 64
1, 20038, Note_on_c, 9, 42, 71
1, 20039, Note_off_c, 9, 42, 64
1, 20040, Note_on_c, 1, 42, 104
1, 20040, Note_on_c, 2, 70, 73
1, 20041, Note_on_c, 2, 66, 59
1, 20041, Note_on_c, 9, 35, 117
1, 20042, Note_off_c, 9, 35, 64
1, 20053, Note_off_c, 1, 42, 64
1, 20059, Note_off_c, 5, 85, 64
1, 20061, Note_on_c, 5, 85, 88
1, 20062, Note_on_c, 9, 42, 77
1, 20063, Note_on_c, 2, 58, 49
1, 20063, Note_off_c, 9, 42, 64
1, 20064, Note_on_c, 1, 42, 106
1, 20064, Note_on_c, 9, 38, 118
1, 20065, Note_off_c, 2, 66, 64
1, 20065, Note_on_c, 2, 61, 75
1, 20065, Note_off_c, 9, 38, 64
1, 20066, Note_off_c, 2, 70, 64
1, 20066, Note_on_c, 2, 66, 79
1, 20067, Note_on_c, 2, 70, 79
1, 20086, Note_on_c, 9, 42, 69
1, 20087, Note_off_c, 2, 70, 64
1, 20087, Note_off_c, 9, 42, 64
1, 20089, Note_on_c, 2, 70, 76
1, 20090, Note_off_c, 2, 66, 64
1, 20091, Note_on_c, 2, 66, 63
1, 20095, Note_off_c, 1, 42, 64
1, 20105, Note_off_c, 5, 85, 64
1, 20106, Note_on_c, 5, 85, 87
1, 20110, Note_on_c, 9, 42, 76
1, 20111, Note_off_c, 9, 42, 64
1, 20112, Note_off_c, 2, 66, 64
1, 20112, Note_off_c, 2, 61, 64
1, 20113, Note_off_c, 2, 70, 64
1, 20113, Note_on_c, 2, 61, 64
1, 20113, Note_on_c, 2, 66, 79
1, 20115, Note_on_c, 2, 70, 73
1, 20125, Note_off_c, 2, 61, 64
1, 20127, Note_off_c, 2, 58, 64
1, 20127, Note_off_c, 2, 70, 64
1, 20131, Note_off_c, 2, 66, 64
1, 20132, Note_off_c, 5, 85, 64
1, 20133, Note_on_c, 5, 85, 87
1, 20134, Note_on_c, 9, 42, 72
1, 20135, Note_off_c, 9, 42, 64
1, 20135, Note_on_c, 9, 35, 114
1, 20136, Note_off_c, 9, 35, 64
1, 20158, Note_on_c, 2, 58, 41
1, 20158, Note_on_c, 9, 42, 79
1, 20159, Note_off_c, 9, 42, 64
1, 20160, Note_on_c, 2, 61, 67
1, 20160, Note_on_c, 9, 35, 121
1, 20161, Note_off_c, 9, 35, 64
1, 20162, Note_on_c, 2, 66, 77
1, 20163, Note_on_c, 2, 70, 71
1, 20173, Note_off_c, 5, 85, 64
1, 20181, Note_on_c, 4, 70, 86
1, 20181, Note_on_c, 4, 73, 92
1, 20182, Note_on_c, 3, 78, 109
1, 20182, Note_on_c, 9, 42, 66
1, 20183, Note_on_c, 1, 42, 106
1, 20183, Note_off_c, 2, 70, 64
1, 20183, Note_off_c, 2, 61, 64
1, 20183, Note_off_c, 9, 42, 64
1, 20185, Note_on_c, 2, 70, 77
1, 20185, Note_on_c, 9, 35, 106
1, 20186, Note_off_c, 2, 70, 64
1, 20186, Note_off_c, 2, 66, 64
1, 20186, Note_off_c, 9, 35, 64
1, 20187, Note_on_c, 2, 66, 70
1, 20188, Note_off_c, 2, 66, 64
1, 20188, Note_off_c, 2, 58, 64
1, 20202, Note_off_c, 3, 78, 64
1, 20203, Note_off_c, 1, 42, 64
1, 20204, Note_off_c, 4, 73, 64
1, 20204, Note_off_c, 4, 70, 64
1, 20205, Note_on_c, 3, 78, 103
1, 20205, Note_on_c, 4, 70, 83
1, 20205, Note_on_c, 4, 73, 92
1, 20206, Note_on_c, 2, 58, 25
1, 20206, Note_on_c, 9, 42, 79
1, 20207, Note_on_c, 2, 61, 64
1, 20207, Note_off_c, 9, 42, 64
1, 20208, Note_on_c, 2, 66, 75
1, 20208, Note_on_c, 9, 35, 93
1, 20209, Note_on_c, 2, 70, 78
1, 20209, Note_off_c, 9, 35, 64
1, 20221, Note_off_c, 2, 61, 64
1, 20222, Note_off_c, 2, 58, 64
1, 20223, Note_off_c, 2, 70, 64
1, 20225, Note_off_c, 2, 66, 64
1, 20228, Note_off_c, 3, 78, 64
1, 20228, Note_off_c, 4, 73, 64
1, 20228, Note_off_c, 4, 70, 64
1, 20229, Note_on_c, 4, 70, 89
1, 20229, Note_on_c, 4, 73, 97
1, 20230, Note_on_c, 1, 42, 110
1, 20230, Note_on_c, 9, 42, 73
1, 20231, Note_on_c, 3, 78, 103
1, 20231, Note_off_c, 9, 42, 64
1, 20231, Note_on_c, 9, 35, 83
1, 20232, Note_off_c, 9, 35, 64
1, 20253, Note_on_c, 2, 58, 37
1, 20254, Note_off_c, 1, 42, 64
1, 20254, Note_on_c, 9, 42, 80
1, 20255, Note_on_c, 1, 37, 110
1, 20255, Note_on_c, 2, 61, 74
1, 20255, Note_off_c, 9, 42, 64
1, 20255, Note_on_c, 9, 38, 113
1, 20256, Note_on_c, 2, 66, 79
1, 20256, Note_off_c, 9, 38, 64
1, 20258, Note_on_c, 2, 70, 80
1, 20276, Note_off_c, 4, 73, 64
1, 20276, Note_off_c, 4, 70, 64
1, 20277, Note_off_c, 3, 78, 64
1, 20277, Note_on_c, 4, 70, 97
1, 20277, Note_on_c, 4, 73, 103
1, 20278, Note_off_c, 1, 37, 64
1, 20278, Note_on_c, 3, 78, 109
1, 20278, Note_on_c, 9, 42, 73
1, 20279, Note_on_c, 1, 39, 110
1, 20279, Note_off_c, 9, 42, 64
1, 20285, Note_off_c, 2, 61, 64
1, 20290, Note_off_c, 2, 58, 64
1, 20291, Note_off_c, 2, 66, 64
1, 20291, Note_off_c, 2, 70, 64
1, 20302, Note_on_c, 9, 42, 76
1, 20303, Note_off_c, 1, 39, 64
1, 20303, Note_off_c, 9, 42, 64
1, 20304, Note_on_c, 1, 42, 112
1, 20306, Note_on_c, 2, 70, 79
1, 20307, Note_off_c, 0, 66, 64
1, 20307, Note_off_c, 2, 70, 64
1, 20307, Note_on_c, 2, 66, 77
1, 20308, Note_off_c, 2, 66, 64
1, 20308, Note_on_c, 2, 61, 50
1, 20309, Note_off_c, 2, 61, 64
1, 20311, Note_off_c, 0, 61, 64
1, 20312, Note_off_c, 0, 58, 64
1, 20327, Note_on_c, 9, 42, 73
1, 20328, Note_off_c, 9, 42, 64
1, 20329, Note_on_c, 9, 35, 106
1, 20330, Note_off_c, 9, 35, 64
1, 20333, Note_off_c, 1, 42, 64
1, 20347, Note_on_c, 3, 82, 106
1, 20347, Note_off_c, 7, 78, 64
1, 20348, Note_off_c, 3, 78, 64
1, 20348, Note_off_c, 4, 73, 64
1, 20348, Note_off_c, 4, 70, 64
1, 20348, Note_off_c, 7, 73, 64
1, 20348, Note_off_c, 7, 70, 64
1, 20349, Note_on_c, 4, 82, 102
1, 20349, Note_on_c, 4, 73, 97
1, 20349, Note_on_c, 4, 70, 95
1, 20350, Note_on_c, 0, 61, 105
1, 20350, Note_on_c, 7, 73, 68
1, 20350, Note_on_c, 7, 70, 64
1, 20350, Note_on_c, 7, 77, 77
1, 20351, Note_on_c, 0, 58, 91
1, 20351, Note_on_c, 0, 65, 96
1, 20351, Note_on_c, 9, 35, 114
1, 20351, Note_on_c, 9, 42, 79
1, 20352, Note_off_c, 9, 42, 64
1, 20352, Note_off_c, 9, 35, 64
1, 20353, Note_on_c, 1, 46, 113
1, 20354, Note_on_c, 2, 61, 63
1, 20355, Note_on_c, 2, 65, 81
1, 20356, Note_on_c, 2, 70, 80
1, 20374, Note_on_c, 9, 42, 76
1, 20375, Note_off_c, 9, 42, 64
1, 20400, Note_off_c, 1, 46, 64
1, 20400, Note_on_c, 9, 42, 76
1, 20401, Note_off_c, 9, 42, 64
1, 20418, Note_off_c, 3, 82, 64
1, 20418, Note_on_c, 5, 85, 95
1, 20419, Note_off_c, 2, 70, 64
1, 20420, Note_on_c, 3, 80, 105
1, 20420, Note_off_c, 4, 70, 64
1, 20420, Note_off_c, 4, 73, 64
1, 20421, Note_off_c, 2, 65, 64
1, 20421, Note_off_c, 4, 82, 64
1, 20421, Note_on_c, 4, 80, 98
1, 20421, Note_on_c, 4, 70, 93
1, 20421, Note_on_c, 4, 73, 93
1, 20422, Note_on_c, 2, 65, 78
1, 20423, Note_on_c, 9, 35, 111
1, 20424, Note_on_c, 1, 46, 105
1, 20424, Note_on_c, 2, 70, 75
1, 20424, Note_off_c, 9, 35, 64
1, 20424, Note_on_c, 9, 42, 75
1, 20425, Note_off_c, 9, 42, 64
1, 20440, Note_off_c, 1, 46, 64
1, 20446, Note_off_c, 2, 61, 64
1, 20447, Note_off_c, 2, 70, 64
1, 20447, Note_off_c, 2, 65, 64
1, 20447, Note_on_c, 2, 58, 59
1, 20447, Note_on_c, 2, 61, 76
1, 20447, Note_on_c, 9, 38, 115
1, 20447, Note_on_c, 9, 42, 79
1, 20448, Note_off_c, 9, 42, 64
1, 20448, Note_off_c, 9, 38, 64
1, 20449, Note_on_c, 1, 46, 109
1, 20449, Note_on_c, 2, 65, 79
1, 20450, Note_on_c, 2, 70, 81
1, 20462, Note_off_c, 5, 85, 64
1, 20465, Note_off_c, 2, 65, 64
1, 20466, Note_off_c, 2, 58, 64
1, 20466, Note_off_c, 2, 61, 64
1, 20467, Note_on_c, 5, 85, 95
1, 20469, Note_off_c, 4, 80, 64
1, 20469, Note_on_c, 4, 78, 91
1, 20470, Note_off_c, 2, 70, 64
1, 20471, Note_on_c, 9, 42, 69
1, 20472, Note_off_c, 9, 42, 64
1, 20484, Note_off_c, 1, 46, 64
1, 20488, Note_off_c, 3, 80, 64
1, 20490, Note_off_c, 5, 85, 64
1, 20493, Note_off_c, 4, 78, 64
1, 20493, Note_off_c, 4, 73, 64
1, 20493, Note_off_c, 4, 70, 64
1, 20493, Note_on_c, 4, 75, 90
1, 20493, Note_on_c, 5, 85, 89
1, 20496, Note_on_c, 9, 42, 77
1, 20497, Note_off_c, 9, 42, 64
1, 20513, Note_off_c, 5, 85, 64
1, 20514, Note_on_c, 5, 85, 95
1, 20517, Note_off_c, 4, 75, 64
1, 20517, Note_on_c, 4, 73, 93
1, 20518, Note_on_c, 2, 65, 77
1, 20519, Note_on_c, 9, 35, 111
1, 20519, Note_on_c, 9, 42, 73
1, 20520, Note_on_c, 2, 61, 61
1, 20520, Note_on_c, 2, 70, 77
1, 20520, Note_off_c, 9, 42, 64
1, 20520, Note_off_c, 9, 35, 64
1, 20541, Note_off_c, 5, 85, 64
1, 20542, Note_on_c, 5, 85, 95
1, 20543, Note_on_c, 9, 35, 118
1, 20543, Note_on_c, 9, 42, 77
1, 20544, Note_off_c, 9, 42, 64
1, 20544, Note_off_c, 9, 35, 64
1, 20562, Note_off_c, 5, 85, 64
1, 20565, Note_off_c, 4, 73, 64
1, 20567, Note_off_c, 2, 70, 64
1, 20567, Note_on_c, 5, 82, 95
1, 20567, Note_on_c, 9, 42, 71
1, 20568, Note_off_c, 9, 42, 64
1, 20568, Note_on_c, 9, 35, 111
1, 20569, Note_on_c, 1, 46, 110
1, 20569, Note_off_c, 9, 35, 64
1, 20570, Note_off_c, 2, 61, 64
1, 20570, Note_off_c, 2, 65, 64
1, 20571, Note_on_c, 2, 65, 77
1, 20571, Note_on_c, 2, 70, 78
1, 20571, Note_on_c, 2, 61, 58
1, 20588, Note_off_c, 1, 46, 64
1, 20590, Note_off_c, 2, 61, 64
1, 20591, Note_off_c, 2, 65, 64
1, 20591, Note_on_c, 2, 61, 77
1, 20591, Note_on_c, 9, 42, 73
1, 20592, Note_off_c, 2, 61, 64
1, 20592, Note_off_c, 9, 42, 64
1, 20593, Note_off_c, 2, 70, 64
1, 20593, Note_on_c, 2, 65, 77
1, 20594, Note_off_c, 2, 65, 64
1, 20594, Note_on_c, 2, 70, 82
1, 20595, Note_off_c, 2, 70, 64
1, 20611, Note_off_c, 5, 82, 64
1, 20614, Note_on_c, 5, 80, 88
1, 20615, Note_on_c, 1, 46, 110
1, 20616, Note_on_c, 9, 35, 118
1, 20616, Note_on_c, 9, 42, 70
1, 20617, Note_off_c, 9, 42, 64
1, 20617, Note_off_c, 9, 35, 64
1, 20637, Note_off_c, 1, 46, 64
1, 20637, Note_on_c, 3, 73, 107
1, 20637, Note_on_c, 4, 73, 88
1, 20638, Note_on_c, 1, 41, 108
1, 20639, Note_on_c, 9, 42, 81
1, 20640, Note_on_c, 2, 58, 60
1, 20640, Note_off_c, 9, 42, 64
1, 20640, Note_on_c, 9, 38, 116
1, 20641, Note_off_c, 9, 38, 64
1, 20653, Note_off_c, 5, 80, 64
1, 20658, Note_on_c, 5, 78, 87
1, 20660, Note_off_c, 4, 73, 64
1, 20661, Note_off_c, 3, 73, 64
1, 20661, Note_on_c, 4, 73, 86
1, 20662, Note_off_c, 1, 41, 64
1, 20662, Note_on_c, 3, 73, 98
1, 20663, Note_on_c, 1, 44, 109
1, 20663, Note_on_c, 9, 42, 73
1, 20664, Note_off_c, 9, 42, 64
1, 20666, Note_on_c, 2, 65, 77
1, 20667, Note_on_c, 2, 61, 73
1, 20669, Note_off_c, 0, 65, 64
1, 20669, Note_on_c, 2, 70, 74
1, 20674, Note_off_c, 0, 58, 64
1, 20675, Note_off_c, 0, 61, 64
1, 20676, Note_off_c, 2, 58, 64
1, 20681, Note_off_c, 2, 65, 64
1, 20681, Note_off_c, 2, 61, 64
1, 20681, Note_off_c, 2, 70, 64
1, 20682, Note_off_c, 3, 73, 64
1, 20684, Note_on_c, 3, 73, 102
1, 20684, Note_off_c, 4, 73, 64
1, 20685, Note_on_c, 4, 73, 95
1, 20685, Note_off_c, 5, 78, 64
1, 20686, Note_off_c, 1, 44, 64
1, 20687, Note_on_c, 1, 46, 110
1, 20687, Note_on_c, 9, 42, 75
1, 20688, Note_off_c, 9, 42, 64
1, 20711, Note_on_c, 9, 42, 72
1, 20712, Note_off_c, 9, 42, 64
1, 20713, Note_on_c, 9, 35, 115
1, 20714, Note_off_c, 9, 35, 64
1, 20716, Note_off_c, 1, 46, 64
1, 20731, Note_off_c, 7, 77, 64
1, 20732, Note_on_c, 0, 66, 105
1, 20732, Note_on_c, 0, 63, 103
1, 20732, Note_off_c, 3, 73, 64
1, 20732, Note_on_c, 3, 80, 105
1, 20732, Note_off_c, 7, 70, 64
1, 20732, Note_off_c, 7, 73, 64
1, 20733, Note_on_c, 0, 59, 93
1, 20733, Note_on_c, 2, 59, 36
1, 20733, Note_off_c, 4, 73, 64
1, 20733, Note_on_c, 4, 75, 95
1, 20733, Note_on_c, 4, 71, 86
1, 20733, Note_on_c, 7, 71, 66
1, 20733, Note_on_c, 7, 78, 72
1, 20733, Note_on_c, 7, 75, 77
1, 20734, Note_on_c, 9, 42, 80
1, 20735, Note_on_c, 2, 63, 73
1, 20735, Note_off_c, 9, 42, 64
1, 20736, Note_on_c, 2, 66, 78
1, 20736, Note_on_c, 9, 35, 121
1, 20737, Note_on_c, 1, 47, 112
1, 20737, Note_on_c, 2, 71, 79
1, 20737, Note_off_c, 9, 35, 64
1, 20758, Note_on_c, 9, 42, 70
1, 20759, Note_off_c, 9, 42, 64
1, 20783, Note_on_c, 9, 42, 77
1, 20784, Note_off_c, 1, 47, 64
1, 20784, Note_off_c, 9, 42, 64
1, 20802, Note_off_c, 3, 80, 64
1, 20802, Note_on_c, 3, 78, 103
1, 20803, Note_off_c, 2, 71, 64
1, 20804, Note_off_c, 4, 71, 64
1, 20804, Note_off_c, 4, 75, 64
1, 20805, Note_on_c, 2, 71, 77
1, 20805, Note_on_c, 4, 75, 97
1, 20805, Note_on_c, 4, 71, 92
1, 20806, Note_off_c, 2, 66, 64
1, 20807, Note_on_c, 1, 47, 109
1, 20807, Note_on_c, 2, 66, 73
1, 20807, Note_on_c, 9, 35, 114
1, 20807, Note_on_c, 9, 42, 71
1, 20808, Note_off_c, 9, 42, 64
1, 20808, Note_off_c, 9, 35, 64
1, 20820, Note_off_c, 1, 47, 64
1, 20828, Note_off_c, 2, 59, 64
1, 20829, Note_on_c, 2, 59, 46
1, 20830, Note_off_c, 2, 63, 64
1, 20831, Note_on_c, 1, 47, 111
1, 20831, Note_off_c, 2, 66, 64
1, 20831, Note_on_c, 2, 63, 74
1, 20831, Note_on_c, 9, 38, 117
1, 20831, Note_on_c, 9, 42, 80
1, 20832, Note_on_c, 2, 66, 78
1, 20832, Note_off_c, 9, 42, 64
1, 20832, Note_off_c, 9, 38, 64
1, 20833, Note_off_c, 2, 71, 64
1, 20834, Note_on_c, 2, 71, 77
1, 20844, Note_off_c, 2, 59, 64
1, 20849, Note_off_c, 2, 66, 64
1, 20849, Note_off_c, 2, 71, 64
1, 20850, Note_off_c, 2, 63, 64
1, 20851, Note_off_c, 3, 78, 64
1, 20854, Note_on_c, 9, 42, 64
1, 20855, Note_off_c, 9, 42, 64
1, 20866, Note_off_c, 1, 47, 64
1, 20877, Note_off_c, 4, 71, 64
1, 20877, Note_off_c, 4, 75, 64
1, 20879, Note_on_c, 9, 42, 79
1, 20880, Note_off_c, 9, 42, 64
1, 20903, Note_on_c, 9, 35, 117
1, 20903, Note_on_c, 9, 42, 71
1, 20904, Note_on_c, 2, 66, 75
1, 20904, Note_on_c, 2, 71, 71
1, 20904, Note_off_c, 9, 42, 64
1, 20904, Note_off_c, 9, 35, 64
1, 20905, Note_on_c, 2, 63, 57
1, 20927, Note_on_c, 9, 35, 115
1, 20928, Note_off_c, 9, 35, 64
1, 20928, Note_on_c, 9, 42, 85
1, 20929, Note_off_c, 9, 42, 64
1, 20951, Note_on_c, 1, 47, 110
1, 20951, Note_on_c, 9, 46, 81
1, 20952, Note_off_c, 9, 46, 64
1, 20970, Note_off_c, 2, 63, 64
1, 20971, Note_on_c, 2, 63, 48
1, 20972, Note_off_c, 2, 66, 64
1, 20973, Note_on_c, 2, 66, 79
1, 20974, Note_off_c, 1, 47, 64
1, 20974, Note_off_c, 2, 71, 64
1, 20975, Note_on_c, 2, 71, 82
1, 20975, Note_on_c, 9, 35, 120
1, 20975, Note_on_c, 9, 42, 76
1, 20976, Note_off_c, 9, 42, 64
1, 20976, Note_off_c, 9, 35, 64
1, 20985, Note_off_c, 2, 63, 64
1, 20986, Note_off_c, 2, 71, 64
1, 20986, Note_off_c, 2, 66, 64
1, 20998, Note_on_c, 9, 42, 75
1, 20999, Note_on_c, 1, 47, 114
1, 20999, Note_off_c, 9, 42, 64
1, 21019, Note_on_c, 2, 59, 56
1, 21020, Note_off_c, 2, 59, 64
1, 21021, Note_on_c, 2, 63, 72
1, 21021, Note_on_c, 4, 71, 95
1, 21021, Note_on_c, 4, 75, 96
1, 21022, Note_off_c, 2, 63, 64
1, 21022, Note_on_c, 2, 66, 79
1, 21022, Note_on_c, 9, 38, 118
1, 21022, Note_on_c, 9, 42, 80
1, 21023, Note_off_c, 2, 66, 64
1, 21023, Note_on_c, 2, 71, 81
1, 21023, Note_on_c, 3, 78, 113
1, 21023, Note_off_c, 9, 42, 64
1, 21023, Note_off_c, 9, 38, 64
1, 21024, Note_off_c, 1, 47, 64
1, 21024, Note_off_c, 2, 71, 64
1, 21025, Note_on_c, 1, 42, 112
1, 21044, Note_off_c, 4, 75, 64
1, 21044, Note_off_c, 4, 71, 64
1, 21045, Note_on_c, 2, 71, 77
1, 21045, Note_on_c, 4, 71, 97
1, 21045, Note_on_c, 4, 75, 92
1, 21046, Note_off_c, 2, 71, 64
1, 21046, Note_off_c, 3, 78, 64
1, 21047, Note_off_c, 1, 42, 64
1, 21047, Note_on_c, 2, 66, 78
1, 21047, Note_on_c, 3, 78, 109
1, 21047, Note_on_c, 9, 42, 73
1, 21048, Note_on_c, 1, 44, 109
1, 21048, Note_off_c, 2, 66, 64
1, 21048, Note_off_c, 9, 42, 64
1, 21066, Note_off_c, 0, 63, 64
1, 21067, Note_off_c, 3, 78, 64
1, 21068, Note_off_c, 0, 66, 64
1, 21069, Note_off_c, 4, 75, 64
1, 21069, Note_off_c, 4, 71, 64
1, 21070, Note_on_c, 2, 63, 55
1, 21071, Note_on_c, 2, 71, 79
1, 21071, Note_on_c, 2, 66, 79
1, 21071, Note_on_c, 9, 42, 76
1, 21072, Note_off_c, 0, 59, 64
1, 21072, Note_off_c, 1, 44, 64
1, 21072, Note_off_c, 9, 42, 64
1, 21073, Note_on_c, 1, 47, 112
1, 21086, Note_off_c, 2, 66, 64
1, 21086, Note_off_c, 2, 71, 64
1, 21086, Note_off_c, 2, 63, 64
1, 21095, Note_on_c, 9, 42, 70
1, 21096, Note_off_c, 9, 42, 64
1, 21096, Note_on_c, 9, 35, 121
1, 21097, Note_off_c, 9, 35, 64
1, 21100, Note_off_c, 1, 47, 64
1, 21113, Note_off_c, 7, 75, 64
1, 21115, Note_on_c, 2, 59, 41
1, 21115, Note_off_c, 7, 71, 64
1, 21116, Note_on_c, 2, 62, 73
1, 21116, Note_off_c, 7, 78, 64
1, 21117, Note_on_c, 2, 66, 77
1, 21117, Note_on_c, 7, 71, 72
1, 21117, Note_on_c, 7, 78, 75
1, 21117, Note_on_c, 7, 74, 74
1, 21118, Note_on_c, 0, 62, 95
1, 21118, Note_on_c, 0, 66, 101
1, 21118, Note_on_c, 0, 59, 93
1, 21118, Note_on_c, 2, 71, 81
1, 21119, Note_on_c, 1, 47, 110
1, 21120, Note_on_c, 9, 35, 127
1, 21120, Note_on_c, 9, 42, 81
1, 21121, Note_off_c, 9, 42, 64
1, 21121, Note_off_c, 9, 35, 64
1, 21141, Note_on_c, 4, 71, 95
1, 21141, Note_on_c, 4, 74, 95
1, 21142, Note_on_c, 3, 80, 111
1, 21143, Note_on_c, 9, 42, 73
1, 21144, Note_off_c, 9, 42, 64
1, 21164, Note_off_c, 1, 47, 64
1, 21166, Note_on_c, 9, 42, 74
1, 21167, Note_off_c, 9, 42, 64
1, 21183, Note_off_c, 3, 80, 64
1, 21185, Note_on_c, 3, 78, 97
1, 21188, Note_off_c, 2, 71, 64
1, 21188, Note_off_c, 4, 74, 64
1, 21188, Note_off_c, 4, 71, 64
1, 21189, Note_on_c, 4, 71, 89
1, 21189, Note_on_c, 4, 74, 89
1, 21190, Note_on_c, 1, 47, 104
1, 21190, Note_on_c, 2, 71, 77
1, 21191, Note_off_c, 2, 66, 64
1, 21191, Note_on_c, 9, 42, 73
1, 21192, Note_on_c, 2, 66, 76
1, 21192, Note_off_c, 9, 42, 64
1, 21192, Note_on_c, 9, 35, 110
1, 21193, Note_off_c, 9, 35, 64
1, 21203, Note_off_c, 1, 47, 64
1, 21207, Note_off_c, 3, 78, 64
1, 21209, Note_on_c, 3, 80, 106
1, 21212, Note_off_c, 4, 74, 64
1, 21212, Note_off_c, 4, 71, 64
1, 21213, Note_on_c, 4, 71, 91
1, 21213, Note_on_c, 4, 74, 87
1, 21214, Note_on_c, 1, 47, 116
1, 21214, Note_off_c, 2, 59, 64
1, 21214, Note_off_c, 2, 62, 64
1, 21215, Note_off_c, 2, 71, 64
1, 21215, Note_off_c, 2, 66, 64
1, 21215, Note_on_c, 2, 59, 59
1, 21215, Note_on_c, 2, 62, 77
1, 21215, Note_on_c, 9, 42, 77
1, 21216, Note_on_c, 2, 66, 80
1, 21216, Note_off_c, 9, 42, 64
1, 21216, Note_on_c, 9, 38, 120
1, 21217, Note_off_c, 9, 38, 64
1, 21218, Note_on_c, 2, 71, 73
1, 21233, Note_off_c, 2, 62, 64
1, 21234, Note_off_c, 2, 59, 64
1, 21234, Note_off_c, 2, 66, 64
1, 21236, Note_off_c, 2, 71, 64
1, 21238, Note_off_c, 1, 47, 64
1, 21238, Note_on_c, 9, 42, 70
1, 21239, Note_off_c, 9, 42, 64
1, 21260, Note_off_c, 3, 80, 64
1, 21260, Note_on_c, 3, 78, 95
1, 21260, Note_off_c, 4, 74, 64
1, 21260, Note_off_c, 4, 71, 64
1, 21261, Note_on_c, 4, 74, 91
1, 21261, Note_on_c, 4, 71, 92
1, 21262, Note_on_c, 9, 42, 77
1, 21263, Note_off_c, 9, 42, 64
1, 21281, Note_off_c, 3, 78, 64
1, 21283, Note_on_c, 3, 78, 105
1, 21284, Note_off_c, 4, 71, 64
1, 21284, Note_off_c, 4, 74, 64
1, 21285, Note_on_c, 2, 71, 76
1, 21285, Note_on_c, 4, 71, 91
1, 21285, Note_on_c, 4, 74, 89
1, 21286, Note_on_c, 2, 66, 76
1, 21286, Note_on_c, 9, 35, 114
1, 21286, Note_on_c, 9, 42, 71
1, 21287, Note_on_c, 2, 62, 51
1, 21287, Note_off_c, 9, 42, 64
1, 21287, Note_off_c, 9, 35, 64
1, 21288, Note_on_c, 1, 50, 113
1, 21288, Note_on_c, 5, 85, 87
1, 21309, Note_off_c, 2, 71, 64
1, 21309, Note_on_c, 2, 59, 66
1, 21310, Note_off_c, 2, 59, 64
1, 21310, Note_off_c, 2, 62, 64
1, 21310, Note_off_c, 2, 66, 64
1, 21310, Note_on_c, 9, 35, 121
1, 21311, Note_on_c, 2, 62, 77
1, 21311, Note_on_c, 2, 66, 78
1, 21311, Note_on_c, 2, 71, 80
1, 21311, Note_off_c, 9, 35, 64
1, 21311, Note_on_c, 9, 42, 76
1, 21312, Note_off_c, 2, 71, 64
1, 21312, Note_off_c, 2, 66, 64
1, 21312, Note_off_c, 2, 62, 64
1, 21312, Note_off_c, 9, 42, 64
1, 21316, Note_off_c, 1, 50, 64
1, 21321, Note_off_c, 4, 74, 64
1, 21321, Note_off_c, 4, 71, 64
1, 21324, Note_off_c, 3, 78, 64
1, 21334, Note_on_c, 9, 42, 73
1, 21335, Note_off_c, 9, 42, 64
1, 21337, Note_on_c, 1, 49, 113
1, 21358, Note_on_c, 9, 42, 77
1, 21359, Note_off_c, 9, 42, 64
1, 21360, Note_on_c, 9, 35, 121
1, 21361, Note_off_c, 9, 35, 64
1, 21372, Note_off_c, 1, 49, 64
1, 21382, Note_on_c, 9, 42, 75
1, 21383, Note_off_c, 9, 42, 64
1, 21385, Note_on_c, 1, 47, 117
1, 21407, Note_on_c, 9, 38, 118
1, 21407, Note_on_c, 9, 42, 86
1, 21408, Note_off_c, 9, 42, 64
1, 21408, Note_off_c, 9, 38, 64
1, 21409, Note_off_c, 1, 47, 64
1, 21429, Note_on_c, 2, 59, 30
1, 21430, Note_on_c, 2, 62, 75
1, 21430, Note_on_c, 9, 46, 77
1, 21431, Note_on_c, 1, 44, 101
1, 21431, Note_on_c, 2, 66, 79
1, 21431, Note_off_c, 5, 85, 64
1, 21431, Note_off_c, 9, 46, 64
1, 21432, Note_on_c, 5, 82, 82
1, 21433, Note_on_c, 2, 71, 73
1, 21454, Note_off_c, 2, 71, 64
1, 21455, Note_off_c, 1, 44, 64
1, 21455, Note_off_c, 2, 66, 64
1, 21455, Note_on_c, 2, 71, 75
1, 21455, Note_on_c, 9, 35, 125
1, 21455, Note_on_c, 9, 38, 122
1, 21455, Note_on_c, 9, 42, 87
1, 21456, Note_on_c, 1, 42, 107
1, 21456, Note_on_c, 2, 66, 75
1, 21456, Note_off_c, 9, 42, 64
1, 21456, Note_off_c, 9, 38, 64
1, 21456, Note_off_c, 9, 35, 64
1, 21469, Note_off_c, 0, 62, 64
1, 21474, Note_off_c, 0, 59, 64
1, 21474, Note_off_c, 0, 66, 64
1, 21477, Note_off_c, 2, 66, 64
1, 21477, Note_off_c, 2, 71, 64
1, 21477, Note_off_c, 2, 62, 64
1, 21478, Note_off_c, 1, 42, 64
1, 21478, Note_on_c, 2, 71, 79
1, 21478, Note_on_c, 2, 62, 65
1, 21478, Note_on_c, 2, 66, 77
1, 21479, Note_on_c, 1, 38, 105
1, 21481, Note_off_c, 5, 82, 64
1, 21481, Note_on_c, 9, 35, 123
1, 21482, Note_off_c, 9, 35, 64
1, 21483, Note_on_c, 5, 80, 80
1, 21490, Note_off_c, 2, 71, 64
1, 21495, Note_off_c, 2, 66, 64
1, 21496, Note_off_c, 2, 59, 64
1, 21497, Note_off_c, 2, 62, 64
1, 21498, Note_on_c, 9, 49, 100
1, 21499, Note_off_c, 9, 49, 64
1, 21500, Note_off_c, 7, 74, 64
1, 21501, Note_off_c, 7, 78, 64
1, 21501, Note_off_c, 7, 71, 64
1, 21502, Note_on_c, 2, 58, 64
1, 21503, Note_on_c, 0, 39, 108
1, 21503, Note_on_c, 0, 51, 92
1, 21503, Note_off_c, 1, 38, 64
1, 21503, Note_on_c, 6, 54, 92
1, 21503, Note_on_c, 6, 58, 98
1, 21503, Note_on_c, 6, 39, 108
1, 21504, Note_on_c, 0, 61, 115
1, 21504, Note_on_c, 0, 66, 123
1, 21504, Note_on_c, 0, 70, 123
1, 21504, Note_on_c, 1, 39, 116
1, 21504, Note_on_c, 9, 35, 120
1, 21505, Note_on_c, 2, 70, 76
1, 21505, Note_off_c, 9, 35, 64
1, 21506, Note_on_c, 2, 63, 67
1, 21507, Note_on_c, 2, 66, 72
1, 21534, Note_on_c, 5, 78, 75
1, 21535, Note_off_c, 5, 80, 64
1, 21551, Note_on_c, 9, 42, 80
1, 21552, Note_off_c, 9, 42, 64
1, 21554, Note_on_c, 5, 75, 81
1, 21556, Note_off_c, 5, 78, 64
1, 21561, Note_off_c, 0, 61, 64
1, 21564, Note_off_c, 0, 39, 64
1, 21564, Note_off_c, 6, 39, 64
1, 21574, Note_on_c, 9, 35, 109
1, 21575, Note_on_c, 0, 61, 90
1, 21575, Note_off_c, 2, 66, 64
1, 21575, Note_off_c, 2, 70, 64
1, 21575, Note_on_c, 6, 39, 80
1, 21575, Note_off_c, 9, 35, 64
1, 21577, Note_off_c, 0, 51, 64
1, 21577, Note_on_c, 0, 39, 105
1, 21578, Note_off_c, 0, 70, 64
1, 21578, Note_on_c, 2, 70, 75
1, 21579, Note_on_c, 2, 66, 67
1, 21579, Note_off_c, 6, 54, 64
1, 21581, Note_off_c, 6, 58, 64
1, 21582, Note_off_c, 0, 66, 64
1, 21587, Note_off_c, 6, 39, 64
1, 21592, Note_off_c, 5, 75, 64
1, 21598, Note_off_c, 2, 58, 64
1, 21598, Note_on_c, 6, 54, 87
1, 21598, Note_on_c, 6, 58, 100
1, 21599, Note_on_c, 0, 66, 109
1, 21599, Note_on_c, 0, 70, 111
1, 21599, Note_on_c, 2, 58, 64
1, 21599, Note_on_c, 6, 39, 106
1, 21599, Note_on_c, 9, 38, 119
1, 21599, Note_on_c, 9, 42, 87
1, 21600, Note_off_c, 9, 42, 64
1, 21600, Note_off_c, 9, 38, 64
1, 21601, Note_on_c, 0, 51, 113
1, 21601, Note_off_c, 2, 63, 64
1, 21602, Note_off_c, 0, 39, 64
1, 21603, Note_off_c, 2, 66, 64
1, 21603, Note_on_c, 2, 63, 68
1, 21604, Note_off_c, 2, 70, 64
1, 21604, Note_on_c, 2, 66, 72
1, 21605, Note_on_c, 2, 70, 76
1, 21608, Note_off_c, 0, 61, 64
1, 21609, Note_off_c, 0, 66, 64
1, 21611, Note_off_c, 0, 70, 64
1, 21611, Note_off_c, 6, 58, 64
1, 21612, Note_off_c, 6, 54, 64
1, 21617, Note_off_c, 6, 39, 64
1, 21622, Note_on_c, 0, 39, 96
1, 21623, Note_on_c, 6, 60, 102
1, 21623, Note_on_c, 6, 56, 102
1, 21623, Note_on_c, 9, 42, 72
1, 21624, Note_on_c, 0, 72, 115
1, 21624, Note_on_c, 0, 68, 119
1, 21624, Note_off_c, 9, 42, 64
1, 21625, Note_on_c, 0, 63, 111
1, 21625, Note_off_c, 2, 70, 64
1, 21625, Note_off_c, 2, 58, 64
1, 21627, Note_off_c, 2, 66, 64
1, 21628, Note_off_c, 2, 63, 64
1, 21629, Note_off_c, 0, 51, 64
1, 21634, Note_off_c, 6, 56, 64
1, 21636, Note_off_c, 6, 60, 64
1, 21637, Note_off_c, 0, 68, 64
1, 21637, Note_off_c, 0, 63, 64
1, 21639, Note_off_c, 0, 72, 64
1, 21645, Note_off_c, 0, 39, 64
1, 21647, Note_on_c, 9, 42, 77
1, 21648, Note_off_c, 9, 42, 64
1, 21671, Note_on_c, 9, 42, 72
1, 21672, Note_off_c, 9, 42, 64
1, 21673, Note_on_c, 9, 35, 104
1, 21674, Note_on_c, 2, 66, 75
1, 21674, Note_on_c, 2, 63, 75
1, 21674, Note_on_c, 2, 70, 75
1, 21674, Note_off_c, 9, 35, 64
1, 21692, Note_off_c, 2, 63, 64
1, 21695, Note_on_c, 9, 42, 86
1, 21696, Note_off_c, 2, 66, 64
1, 21696, Note_off_c, 9, 42, 64
1, 21697, Note_on_c, 2, 63, 70
1, 21697, Note_on_c, 9, 35, 127
1, 21698, Note_off_c, 9, 35, 64
1, 21699, Note_off_c, 2, 70, 64
1, 21699, Note_on_c, 2, 66, 75
1, 21700, Note_on_c, 2, 70, 78
1, 21712, Note_off_c, 2, 70, 64
1, 21712, Note_off_c, 2, 66, 64
1, 21713, Note_off_c, 2, 63, 64
1, 21719, Note_on_c, 9, 46, 79
1, 21720, Note_off_c, 9, 46, 64
1, 21744, Note_on_c, 9, 42, 79
1, 21745, Note_off_c, 9, 42, 64
1, 21747, Note_on_c, 2, 63, 69
1, 21748, Note_off_c, 2, 63, 64
1, 21748, Note_on_c, 2, 66, 74
1, 21748, Note_on_c, 2, 70, 79
1, 21749, Note_off_c, 2, 70, 64
1, 21749, Note_off_c, 2, 66, 64
1, 21768, Note_on_c, 0, 63, 99
1, 21769, Note_on_c, 0, 39, 97
1, 21769, Note_on_c, 6, 39, 92
1, 21769, Note_on_c, 9, 35, 106
1, 21769, Note_on_c, 9, 42, 78
1, 21770, Note_off_c, 9, 42, 64
1, 21770, Note_off_c, 9, 35, 64
1, 21772, Note_on_c, 2, 70, 76
1, 21773, Note_off_c, 2, 70, 64
1, 21780, Note_off_c, 6, 39, 64
1, 21790, Note_on_c, 2, 58, 32
1, 21791, Note_on_c, 0, 51, 109
1, 21791, Note_off_c, 2, 58, 64
1, 21792, Note_on_c, 0, 70, 97
1, 21792, Note_on_c, 0, 73, 105
1, 21792, Note_on_c, 2, 63, 67
1, 21792, Note_on_c, 6, 58, 95
1, 21792, Note_on_c, 6, 61, 95
1, 21792, Note_on_c, 9, 42, 82
1, 21793, Note_off_c, 2, 63, 64
1, 21793, Note_on_c, 6, 39, 92
1, 21793, Note_off_c, 9, 42, 64
1, 21794, Note_on_c, 2, 66, 74
1, 21794, Note_on_c, 9, 38, 120
1, 21795, Note_off_c, 2, 66, 64
1, 21795, Note_off_c, 9, 38, 64
1, 21796, Note_off_c, 0, 39, 64
1, 21796, Note_on_c, 2, 70, 77
1, 21797, Note_off_c, 2, 70, 64
1, 21802, Note_off_c, 0, 63, 64
1, 21805, Note_off_c, 6, 39, 64
1, 21805, Note_off_c, 6, 61, 64
1, 21805, Note_off_c, 6, 58, 64
1, 21815, Note_off_c, 0, 70, 64
1, 21815, Note_off_c, 0, 73, 64
1, 21815, Note_on_c, 0, 39, 102
1, 21815, Note_on_c, 6, 60, 94
1, 21815, Note_on_c, 9, 46, 79
1, 21816, Note_on_c, 0, 72, 119
1, 21816, Note_off_c, 9, 46, 64
1, 21817, Note_on_c, 0, 68, 119
1, 21817, Note_on_c, 0, 63, 123
1, 21817, Note_on_c, 2, 63, 77
1, 21817, Note_on_c, 2, 66, 77
1, 21817, Note_on_c, 2, 70, 77
1, 21817, Note_on_c, 6, 56, 94
1, 21817, Note_on_c, 6, 39, 97
1, 21824, Note_off_c, 0, 51, 64
1, 21833, Note_off_c, 6, 39, 64
1, 21838, Note_off_c, 0, 39, 64
1, 21839, Note_off_c, 0, 72, 64
1, 21840, Note_off_c, 0, 68, 64
1, 21840, Note_off_c, 0, 63, 64
1, 21840, Note_on_c, 9, 42, 80
1, 21841, Note_off_c, 9, 42, 64
1, 21858, Note_off_c, 6, 56, 64
1, 21858, Note_off_c, 6, 60, 64
1, 21863, Note_on_c, 9, 42, 76
1, 21864, Note_off_c, 9, 42, 64
1, 21867, Note_off_c, 2, 70, 64
1, 21867, Note_off_c, 2, 63, 64
1, 21868, Note_off_c, 2, 66, 64
1, 21885, Note_off_c, 1, 39, 64
1, 21886, Note_on_c, 1, 48, 112
1, 21887, Note_on_c, 0, 75, 115
1, 21887, Note_on_c, 0, 48, 123
1, 21887, Note_on_c, 2, 63, 69
1, 21887, Note_on_c, 9, 42, 84
1, 21888, Note_off_c, 9, 42, 64
1, 21888, Note_on_c, 9, 35, 121
1, 21889, Note_on_c, 6, 48, 104
1, 21889, Note_off_c, 9, 35, 64
1, 21891, Note_on_c, 2, 66, 75
1, 21892, Note_on_c, 2, 70, 75
1, 21909, Note_off_c, 1, 48, 64
1, 21910, Note_on_c, 1, 44, 106
1, 21910, Note_off_c, 2, 66, 64
1, 21911, Note_on_c, 0, 72, 98
1, 21911, Note_on_c, 0, 44, 92
1, 21911, Note_on_c, 6, 44, 84
1, 21911, Note_on_c, 9, 46, 79
1, 21912, Note_off_c, 9, 46, 64
1, 21913, Note_off_c, 2, 70, 64
1, 21913, Note_off_c, 2, 63, 64
1, 21914, Note_on_c, 2, 63, 75
1, 21914, Note_on_c, 2, 66, 75
1, 21914, Note_on_c, 2, 70, 75
1, 21915, Note_off_c, 2, 70, 64
1, 21915, Note_off_c, 2, 66, 64
1, 21915, Note_off_c, 2, 63, 64
1, 21916, Note_off_c, 6, 48, 64
1, 21918, Note_off_c, 0, 48, 64
1, 21922, Note_off_c, 0, 75, 64
1, 21933, Note_off_c, 1, 44, 64
1, 21934, Note_on_c, 0, 68, 105
1, 21934, Note_on_c, 1, 39, 104
1, 21935, Note_on_c, 6, 39, 66
1, 21935, Note_on_c, 9, 38, 118
1, 21935, Note_on_c, 9, 42, 75
1, 21936, Note_off_c, 9, 42, 64
1, 21936, Note_off_c, 9, 38, 64
1, 21937, Note_off_c, 0, 72, 64
1, 21937, Note_on_c, 0, 39, 103
1, 21937, Note_off_c, 6, 44, 64
1, 21938, Note_on_c, 2, 63, 67
1, 21939, Note_off_c, 2, 63, 64
1, 21939, Note_on_c, 2, 66, 70
1, 21940, Note_off_c, 2, 66, 64
1, 21941, Note_on_c, 2, 70, 75
1, 21942, Note_off_c, 2, 70, 64
1, 21943, Note_off_c, 0, 44, 64
1, 21944, Note_off_c, 0, 68, 64
1, 21958, Note_off_c, 1, 39, 64
1, 21958, Note_on_c, 6, 60, 80
1, 21958, Note_on_c, 6, 56, 80
1, 21958, Note_on_c, 9, 42, 73
1, 21959, Note_on_c, 0, 72, 111
1, 21959, Note_on_c, 0, 68, 111
1, 21959, Note_on_c, 0, 63, 111
1, 21959, Note_on_c, 0, 44, 108
1, 21959, Note_on_c, 1, 44, 110
1, 21959, Note_on_c, 6, 44, 92
1, 21959, Note_off_c, 9, 42, 64
1, 21959, Note_on_c, 9, 35, 123
1, 21960, Note_off_c, 9, 35, 64
1, 21961, Note_on_c, 2, 72, 73
1, 21962, Note_on_c, 2, 63, 67
1, 21962, Note_on_c, 2, 68, 67
1, 21966, Note_off_c, 0, 39, 64
1, 21968, Note_off_c, 6, 39, 64
1, 21980, Note_off_c, 6, 56, 64
1, 21981, Note_off_c, 6, 60, 64
1, 21983, Note_off_c, 0, 44, 64
1, 21983, Note_off_c, 6, 44, 64
1, 21983, Note_on_c, 9, 42, 86
1, 21984, Note_off_c, 0, 63, 64
1, 21984, Note_off_c, 9, 42, 64
1, 21985, Note_off_c, 0, 68, 64
1, 21986, Note_off_c, 0, 72, 64
1, 21988, Note_off_c, 1, 44, 64
1, 22006, Note_on_c, 0, 44, 84
1, 22006, Note_on_c, 9, 35, 125
1, 22006, Note_on_c, 9, 42, 77
1, 22007, Note_on_c, 1, 44, 110
1, 22007, Note_off_c, 2, 68, 64
1, 22007, Note_off_c, 2, 63, 64
1, 22007, Note_off_c, 2, 72, 64
1, 22007, Note_on_c, 6, 44, 98
1, 22007, Note_on_c, 6, 56, 95
1, 22007, Note_off_c, 9, 42, 64
1, 22007, Note_off_c, 9, 35, 64
1, 22008, Note_on_c, 0, 72, 102
1, 22008, Note_on_c, 2, 63, 68
1, 22008, Note_on_c, 2, 68, 68
1, 22008, Note_on_c, 2, 72, 74
1, 22008, Note_on_c, 6, 60, 91
1, 22009, Note_on_c, 0, 63, 106
1, 22009, Note_on_c, 0, 68, 98
1, 22022, Note_off_c, 0, 68, 64
1, 22022, Note_off_c, 0, 63, 64
1, 22022, Note_off_c, 0, 72, 64
1, 22029, Note_on_c, 6, 58, 78
1, 22030, Note_off_c, 1, 44, 64
1, 22030, Note_on_c, 6, 54, 80
1, 22030, Note_on_c, 9, 38, 124
1, 22031, Note_on_c, 0, 39, 108
1, 22031, Note_on_c, 0, 51, 106
1, 22031, Note_on_c, 1, 39, 107
1, 22031, Note_off_c, 9, 38, 64
1, 22031, Note_on_c, 9, 46, 80
1, 22032, Note_on_c, 0, 66, 105
1, 22032, Note_on_c, 0, 70, 95
1, 22032, Note_off_c, 6, 60, 64
1, 22032, Note_off_c, 6, 44, 64
1, 22032, Note_on_c, 6, 39, 95
1, 22032, Note_off_c, 9, 46, 64
1, 22033, Note_off_c, 2, 63, 64
1, 22033, Note_on_c, 2, 58, 64
1, 22034, Note_on_c, 0, 61, 92
1, 22034, Note_off_c, 2, 72, 64
1, 22034, Note_off_c, 2, 68, 64
1, 22034, Note_on_c, 2, 63, 63
1, 22034, Note_on_c, 2, 66, 78
1, 22036, Note_on_c, 2, 70, 75
1, 22036, Note_off_c, 6, 56, 64
1, 22039, Note_off_c, 0, 44, 64
1, 22079, Note_on_c, 9, 42, 78
1, 22080, Note_off_c, 9, 42, 64
1, 22103, Note_on_c, 9, 35, 127
1, 22103, Note_on_c, 9, 42, 70
1, 22104, Note_off_c, 9, 42, 64
1, 22104, Note_off_c, 9, 35, 64
1, 22126, Note_off_c, 2, 58, 64
1, 22127, Note_on_c, 9, 42, 80
1, 22128, Note_off_c, 2, 63, 64
1, 22128, Note_off_c, 9, 42, 64
1, 22129, Note_off_c, 2, 66, 64
1, 22129, Note_off_c, 2, 70, 64
1, 22130, Note_on_c, 2, 63, 70
1, 22130, Note_on_c, 2, 66, 69
1, 22130, Note_on_c, 2, 70, 79
1, 22131, Note_off_c, 2, 70, 64
1, 22131, Note_off_c, 2, 66, 64
1, 22131, Note_off_c, 2, 63, 64
1, 22151, Note_on_c, 9, 35, 114
1, 22151, Note_on_c, 9, 42, 73
1, 22152, Note_on_c, 2, 70, 75
1, 22152, Note_off_c, 9, 42, 64
1, 22152, Note_off_c, 9, 35, 64
1, 22153, Note_off_c, 2, 70, 64
1, 22175, Note_on_c, 2, 58, 63
1, 22175, Note_on_c, 2, 63, 68
1, 22176, Note_off_c, 2, 63, 64
1, 22176, Note_off_c, 2, 58, 64
1, 22176, Note_on_c, 2, 66, 75
1, 22176, Note_on_c, 9, 42, 77
1, 22177, Note_off_c, 2, 66, 64
1, 22177, Note_on_c, 2, 70, 79
1, 22177, Note_off_c, 9, 42, 64
1, 22178, Note_off_c, 2, 70, 64
1, 22197, Note_off_c, 6, 39, 64
1, 22199, Note_on_c, 2, 63, 75
1, 22199, Note_on_c, 2, 70, 75
1, 22199, Note_on_c, 9, 42, 79
1, 22200, Note_off_c, 2, 70, 64
1, 22200, Note_off_c, 2, 63, 64
1, 22200, Note_off_c, 9, 42, 64
1, 22201, Note_on_c, 9, 35, 127
1, 22202, Note_off_c, 9, 35, 64
1, 22223, Note_on_c, 9, 38, 123
1, 22223, Note_on_c, 9, 46, 79
1, 22224, Note_off_c, 0, 61, 64
1, 22224, Note_on_c, 2, 63, 77
1, 22224, Note_on_c, 2, 66, 67
1, 22224, Note_on_c, 2, 70, 84
1, 22224, Note_off_c, 9, 46, 64
1, 22224, Note_off_c, 9, 38, 64
1, 22228, Note_off_c, 0, 66, 64
1, 22229, Note_off_c, 0, 70, 64
1, 22242, Note_off_c, 0, 51, 64
1, 22245, Note_off_c, 0, 39, 64
1, 22247, Note_off_c, 2, 66, 64
1, 22247, Note_off_c, 2, 63, 64
1, 22251, Note_off_c, 2, 70, 64
1, 22267, Note_off_c, 6, 54, 64
1, 22267, Note_off_c, 6, 58, 64
1, 22269, Note_on_c, 2, 58, 59
1, 22270, Note_off_c, 1, 39, 64
1, 22270, Note_on_c, 2, 70, 77
1, 22270, Note_on_c, 2, 63, 68
1, 22271, Note_on_c, 0, 66, 117
1, 22271, Note_on_c, 0, 61, 106
1, 22271, Note_on_c, 1, 39, 109
1, 22271, Note_on_c, 2, 66, 77
1, 22271, Note_on_c, 6, 39, 90
1, 22271, Note_on_c, 6, 54, 95
1, 22271, Note_on_c, 6, 58, 104
1, 22271, Note_on_c, 9, 35, 121
1, 22272, Note_on_c, 0, 70, 119
1, 22272, Note_off_c, 9, 35, 64
1, 22272, Note_on_c, 9, 42, 79
1, 22273, Note_on_c, 0, 39, 99
1, 22273, Note_on_c, 0, 51, 111
1, 22273, Note_off_c, 9, 42, 64
1, 22274, Note_on_c, 0, 45, 74
1, 22280, Note_off_c, 0, 45, 64
1, 22295, Note_on_c, 9, 42, 73
1, 22296, Note_off_c, 9, 42, 64
1, 22319, Note_on_c, 9, 42, 77
1, 22320, Note_off_c, 9, 42, 64
1, 22334, Note_off_c, 6, 39, 64
1, 22337, Note_off_c, 0, 61, 64
1, 22342, Note_off_c, 2, 70, 64
1, 22343, Note_on_c, 2, 70, 75
1, 22343, Note_on_c, 6, 39, 80
1, 22343, Note_on_c, 9, 35, 115
1, 22343, Note_on_c, 9, 42, 73
1, 22344, Note_off_c, 9, 42, 64
1, 22344, Note_off_c, 9, 35, 64
1, 22345, Note_on_c, 0, 61, 77
1, 22346, Note_off_c, 0, 70, 64
1, 22348, Note_off_c, 0, 39, 64
1, 22348, Note_off_c, 6, 54, 64
1, 22349, Note_off_c, 6, 58, 64
1, 22352, Note_off_c, 0, 66, 64
1, 22358, Note_off_c, 6, 39, 64
1, 22361, Note_off_c, 0, 61, 64
1, 22366, Note_off_c, 2, 70, 64
1, 22366, Note_off_c, 2, 66, 64
1, 22366, Note_off_c, 2, 63, 64
1, 22366, Note_off_c, 2, 58, 64
1, 22366, Note_on_c, 6, 54, 73
1, 22366, Note_on_c, 6, 58, 90
1, 22367, Note_on_c, 0, 39, 109
1, 22367, Note_on_c, 2, 58, 67
1, 22367, Note_on_c, 2, 70, 73
1, 22367, Note_on_c, 2, 63, 73
1, 22367, Note_on_c, 2, 66, 65
1, 22367, Note_on_c, 6, 39, 85
1, 22367, Note_on_c, 9, 38, 118
1, 22368, Note_on_c, 0, 61, 84
1, 22368, Note_on_c, 0, 70, 113
1, 22368, Note_on_c, 0, 66, 111
1, 22368, Note_off_c, 9, 38, 64
1, 22368, Note_on_c, 9, 42, 88
1, 22369, Note_off_c, 9, 42, 64
1, 22378, Note_off_c, 6, 58, 64
1, 22379, Note_off_c, 6, 54, 64
1, 22381, Note_off_c, 0, 66, 64
1, 22381, Note_off_c, 0, 61, 64
1, 22382, Note_off_c, 0, 51, 64
1, 22384, Note_off_c, 0, 70, 64
1, 22389, Note_off_c, 6, 39, 64
1, 22390, Note_on_c, 9, 46, 76
1, 22391, Note_on_c, 6, 60, 98
1, 22391, Note_off_c, 9, 46, 64
1, 22392, Note_on_c, 6, 56, 95
1, 22394, Note_on_c, 0, 68, 111
1, 22394, Note_on_c, 0, 72, 113
1, 22394, Note_on_c, 0, 63, 102
1, 22395, Note_on_c, 0, 51, 109
1, 22395, Note_off_c, 2, 70, 64
1, 22396, Note_off_c, 2, 66, 64
1, 22396, Note_off_c, 2, 63, 64
1, 22398, Note_off_c, 2, 58, 64
1, 22406, Note_off_c, 6, 56, 64
1, 22407, Note_off_c, 0, 63, 64
1, 22407, Note_off_c, 0, 68, 64
1, 22408, Note_off_c, 6, 60, 64
1, 22409, Note_off_c, 0, 72, 64
1, 22416, Note_on_c, 9, 42, 82
1, 22417, Note_off_c, 0, 39, 64
1, 22417, Note_off_c, 9, 42, 64
1, 22419, Note_off_c, 0, 51, 64
1, 22439, Note_on_c, 9, 42, 75
1, 22440, Note_off_c, 9, 42, 64
1, 22440, Note_on_c, 9, 35, 102
1, 22441, Note_on_c, 2, 66, 75
1, 22441, Note_off_c, 9, 35, 64
1, 22442, Note_on_c, 2, 70, 75
1, 22462, Note_off_c, 2, 70, 64
1, 22463, Note_off_c, 2, 66, 64
1, 22463, Note_on_c, 2, 58, 66
1, 22463, Note_on_c, 2, 63, 72
1, 22463, Note_on_c, 9, 42, 87
1, 22464, Note_on_c, 2, 66, 73
1, 22464, Note_on_c, 2, 70, 80
1, 22464, Note_off_c, 9, 42, 64
1, 22464, Note_on_c, 9, 35, 121
1, 22465, Note_off_c, 9, 35, 64
1, 22475, Note_off_c, 2, 63, 64
1, 22478, Note_off_c, 2, 58, 64
1, 22478, Note_off_c, 2, 66, 64
1, 22478, Note_off_c, 2, 70, 64
1, 22486, Note_on_c, 9, 42, 74
1, 22487, Note_off_c, 9, 42, 64
1, 22510, Note_on_c, 9, 42, 82
1, 22511, Note_off_c, 9, 42, 64
1, 22514, Note_on_c, 9, 35, 123
1, 22515, Note_off_c, 9, 35, 64
1, 22516, Note_on_c, 2, 66, 70
1, 22517, Note_off_c, 2, 66, 64
1, 22517, Note_on_c, 2, 63, 50
1, 22518, Note_off_c, 2, 63, 64
1, 22518, Note_on_c, 2, 70, 66
1, 22519, Note_off_c, 2, 70, 64
1, 22534, Note_on_c, 9, 46, 83
1, 22535, Note_on_c, 6, 39, 64
1, 22535, Note_off_c, 9, 46, 64
1, 22536, Note_on_c, 0, 39, 108
1, 22537, Note_on_c, 0, 63, 96
1, 22538, Note_on_c, 2, 63, 73
1, 22538, Note_on_c, 2, 66, 73
1, 22538, Note_on_c, 2, 70, 73
1, 22539, Note_off_c, 2, 70, 64
1, 22539, Note_off_c, 2, 66, 64
1, 22539, Note_off_c, 2, 63, 64
1, 22545, Note_off_c, 6, 39, 64
1, 22558, Note_on_c, 0, 51, 103
1, 22559, Note_on_c, 0, 70, 103
1, 22559, Note_on_c, 0, 73, 113
1, 22559, Note_on_c, 2, 63, 70
1, 22559, Note_on_c, 2, 66, 77
1, 22559, Note_on_c, 6, 39, 86
1, 22559, Note_on_c, 6, 58, 92
1, 22559, Note_on_c, 6, 61, 87
1, 22559, Note_on_c, 9, 38, 122
1, 22559, Note_on_c, 9, 42, 80
1, 22560, Note_off_c, 2, 66, 64
1, 22560, Note_off_c, 2, 63, 64
1, 22560, Note_on_c, 2, 70, 77
1, 22560, Note_off_c, 9, 42, 64
1, 22560, Note_off_c, 9, 38, 64
1, 22561, Note_off_c, 2, 70, 64
1, 22564, Note_off_c, 0, 39, 64
1, 22571, Note_off_c, 0, 70, 64
1, 22571, Note_off_c, 0, 63, 64
1, 22571, Note_off_c, 6, 39, 64
1, 22572, Note_off_c, 0, 73, 64
1, 22574, Note_off_c, 6, 61, 64
1, 22576, Note_off_c, 6, 58, 64
1, 22581, Note_on_c, 9, 42, 64
1, 22582, Note_on_c, 2, 70, 73
1, 22582, Note_off_c, 9, 42, 64
1, 22583, Note_on_c, 6, 39, 98
1, 22584, Note_on_c, 0, 39, 111
1, 22584, Note_on_c, 2, 63, 70
1, 22584, Note_on_c, 2, 66, 70
1, 22584, Note_on_c, 6, 60, 97
1, 22585, Note_on_c, 0, 63, 121
1, 22585, Note_on_c, 0, 72, 123
1, 22585, Note_on_c, 0, 68, 123
1, 22585, Note_on_c, 6, 56, 95
1, 22602, Note_off_c, 6, 56, 64
1, 22606, Note_on_c, 9, 42, 81
1, 22607, Note_off_c, 6, 60, 64
1, 22607, Note_off_c, 9, 42, 64
1, 22612, Note_off_c, 2, 66, 64
1, 22612, Note_off_c, 2, 63, 64
1, 22612, Note_off_c, 2, 70, 64
1, 22613, Note_off_c, 0, 63, 64
1, 22613, Note_off_c, 0, 51, 64
1, 22614, Note_off_c, 0, 68, 64
1, 22614, Note_off_c, 0, 72, 64
1, 22621, Note_off_c, 0, 39, 64
1, 22630, Note_off_c, 6, 39, 64
1, 22630, Note_on_c, 9, 42, 72
1, 22631, Note_off_c, 9, 42, 64
1, 22632, Note_on_c, 2, 63, 65
1, 22632, Note_on_c, 2, 66, 73
1, 22632, Note_on_c, 2, 70, 77
1, 22632, Note_off_c, 2, 70, 64
1, 22633, Note_off_c, 2, 66, 64
1, 22633, Note_off_c, 2, 63, 64
1, 22653, Note_off_c, 1, 39, 64
1, 22654, Note_on_c, 0, 41, 111
1, 22654, Note_on_c, 1, 41, 117
1, 22654, Note_on_c, 9, 42, 79
1, 22655, Note_on_c, 0, 53, 119
1, 22655, Note_on_c, 2, 70, 73
1, 22655, Note_on_c, 2, 58, 67
1, 22655, Note_on_c, 2, 63, 64
1, 22655, Note_on_c, 2, 66, 73
1, 22655, Note_on_c, 6, 41, 104
1, 22655, Note_off_c, 9, 42, 64
1, 22655, Note_on_c, 9, 35, 117
1, 22656, Time_signature, 2, 2, 24, 8
1, 22656, Note_off_c, 9, 35, 64
1, 22675, Note_off_c, 2, 70, 64
1, 22677, Note_off_c, 1, 41, 64
1, 22677, Note_off_c, 2, 66, 64
1, 22678, Note_on_c, 1, 44, 108
1, 22678, Note_on_c, 2, 66, 71
1, 22678, Note_on_c, 2, 70, 73
1, 22678, Note_on_c, 9, 35, 108
1, 22678, Note_on_c, 9, 42, 73
1, 22679, Note_on_c, 0, 44, 88
1, 22679, Note_on_c, 0, 56, 106
1, 22679, Note_on_c, 6, 44, 85
1, 22679, Note_off_c, 9, 42, 64
1, 22679, Note_off_c, 9, 35, 64
1, 22686, Note_off_c, 0, 53, 64
1, 22686, Note_off_c, 2, 58, 64
1, 22686, Note_off_c, 6, 41, 64
1, 22688, Note_off_c, 0, 41, 64
1, 22697, Note_off_c, 2, 63, 64
1, 22701, Note_off_c, 2, 66, 64
1, 22701, Note_off_c, 2, 70, 64
1, 22702, Note_on_c, 0, 46, 84
1, 22702, Note_off_c, 1, 44, 64
1, 22702, Note_on_c, 2, 66, 73
1, 22702, Note_on_c, 2, 63, 65
1, 22702, Note_on_c, 2, 70, 75
1, 22702, Note_on_c, 9, 38, 117
1, 22702, Note_on_c, 9, 42, 84
1, 22703, Note_on_c, 0, 58, 94
1, 22703, Note_on_c, 1, 46, 106
1, 22703, Note_on_c, 6, 46, 73
1, 22703, Note_off_c, 9, 42, 64
1, 22703, Note_off_c, 9, 38, 64
1, 22713, Note_off_c, 0, 56, 64
1, 22713, Note_off_c, 6, 44, 64
1, 22714, Note_off_c, 0, 44, 64
1, 22720, Note_off_c, 2, 70, 64
1, 22720, Note_off_c, 2, 66, 64
1, 22721, Note_off_c, 2, 63, 64
1, 22722, Note_on_c, 2, 73, 74
1, 22724, Note_on_c, 2, 68, 74
1, 22725, Note_off_c, 2, 68, 64
1, 22725, Note_on_c, 2, 63, 73
1, 22726, Note_off_c, 2, 63, 64
1, 22726, Note_on_c, 9, 42, 82
1, 22727, Note_on_c, 0, 49, 115
1, 22727, Note_off_c, 1, 46, 64
1, 22727, Note_off_c, 9, 42, 64
1, 22727, Note_on_c, 9, 35, 127
1, 22728, Note_on_c, 0, 61, 103
1, 22728, Note_on_c, 1, 49, 113
1, 22728, Note_off_c, 9, 35, 64
1, 22729, Note_on_c, 6, 49, 106
1, 22733, Note_off_c, 0, 58, 64
1, 22734, Note_off_c, 6, 46, 64
1, 22736, Note_off_c, 0, 46, 64
1, 22739, Note_off_c, 2, 73, 64
1, 22744, Note_off_c, 0, 61, 64
1, 22749, Note_off_c, 0, 49, 64
1, 22750, Note_on_c, 9, 42, 82
1, 22751, Note_off_c, 9, 42, 64
1, 22753, Note_off_c, 6, 49, 64
1, 22756, Note_off_c, 1, 49, 64
1, 22774, Note_on_c, 0, 61, 123
1, 22774, Note_on_c, 0, 49, 117
1, 22774, Note_on_c, 9, 42, 89
1, 22775, Note_off_c, 9, 42, 64
1, 22775, Note_on_c, 9, 35, 123
1, 22776, Note_on_c, 1, 49, 113
1, 22776, Note_on_c, 6, 49, 110
1, 22776, Note_off_c, 9, 35, 64
1, 22796, Note_off_c, 0, 61, 64
1, 22798, Note_on_c, 0, 46, 101
1, 22798, Note_on_c, 0, 58, 113
1, 22799, Note_off_c, 6, 49, 64
1, 22799, Note_on_c, 6, 46, 88
1, 22799, Note_on_c, 9, 35, 127
1, 22800, Note_off_c, 0, 49, 64
1, 22800, Note_on_c, 0, 39, 108
1, 22800, Note_on_c, 0, 51, 92
1, 22800, Note_off_c, 1, 49, 64
1, 22800, Note_off_c, 9, 35, 64
1, 22800, Note_on_c, 9, 49, 107
1, 22801, Note_on_c, 1, 46, 110
1, 22801, Note_off_c, 9, 49, 64
1, 22842, Note_on_c, 2, 58, 58
1, 22845, Note_on_c, 2, 61, 70
1, 22847, Note_on_c, 2, 65, 79
1, 22848, Time_signature, 4, 2, 24, 8
1, 22848, Tempo, 681818
1, 22850, Note_on_c, 2, 70, 78
1, 22876, Note_on_c, 9, 45, 110
1, 22877, Note_off_c, 9, 45, 64
1, 22884, Note_on_c, 9, 45, 75
1, 22885, Note_off_c, 9, 45, 64
1, 22889, Note_on_c, 9, 45, 78
1, 22890, Note_off_c, 9, 45, 64
1, 22892, Note_off_c, 2, 61, 64
1, 22893, Note_off_c, 2, 58, 64
1, 22894, Note_on_c, 2, 58, 50
1, 22896, Note_off_c, 2, 65, 64
1, 22896, Note_off_c, 2, 70, 64
1, 22896, Note_on_c, 2, 61, 55
1, 22897, Note_on_c, 2, 65, 70
1, 22899, Note_on_c, 2, 70, 67
1, 22900, Note_on_c, 9, 45, 103
1, 22901, Note_off_c, 9, 45, 64
1, 22924, Note_on_c, 9, 45, 106
1, 22925, Note_off_c, 9, 45, 64
1, 22938, Note_off_c, 2, 58, 64
1, 22940, Note_off_c, 2, 61, 64
1, 22941, Note_on_c, 2, 58, 52
1, 22942, Note_off_c, 2, 65, 64
1, 22942, Note_on_c, 2, 61, 68
1, 22945, Note_off_c, 2, 70, 64
1, 22945, Note_on_c, 2, 65, 77
1, 22946, Note_on_c, 2, 70, 75
1, 22946, Note_on_c, 9, 45, 114
1, 22947, Note_off_c, 9, 45, 64
1, 22985, Note_off_c, 2, 58, 64
1, 22986, Note_off_c, 2, 61, 64
1, 22987, Note_on_c, 2, 58, 30
1, 22990, Note_off_c, 2, 65, 64
1, 22990, Note_on_c, 2, 61, 63
1, 22992, Note_off_c, 2, 70, 64
1, 22992, Note_on_c, 2, 65, 79
1, 22995, Note_on_c, 2, 70, 79
1, 23012, Note_on_c, 9, 43, 111
1, 23013, Note_off_c, 9, 43, 64
1, 23021, Note_on_c, 9, 43, 100
1, 23022, Note_off_c, 9, 43, 64
1, 23029, Note_on_c, 9, 43, 103
1, 23030, Note_off_c, 9, 43, 64
1, 23031, Note_off_c, 2, 58, 64
1, 23034, Note_off_c, 2, 61, 64
1, 23035, Note_on_c, 2, 58, 47
1, 23037, Note_off_c, 2, 65, 64
1, 23037, Note_on_c, 2, 61, 70
1, 23038, Note_on_c, 2, 65, 77
1, 23038, Note_on_c, 7, 82, 89
1, 23039, Note_off_c, 2, 70, 64
1, 23041, Note_on_c, 2, 70, 78
1, 23041, Note_on_c, 9, 43, 113
1, 23042, Note_off_c, 9, 43, 64
1, 23067, Note_on_c, 9, 43, 105
1, 23068, Note_off_c, 9, 43, 64
1, 23080, Note_off_c, 2, 58, 64
1, 23082, Note_off_c, 2, 61, 64
1, 23083, Note_off_c, 2, 65, 64
1, 23083, Note_on_c, 2, 58, 37
1, 23085, Note_on_c, 2, 61, 67
1, 23085, Note_on_c, 3, 66, 108
1, 23086, Note_on_c, 2, 65, 78
1, 23087, Note_off_c, 2, 70, 64
1, 23088, Note_on_c, 2, 70, 75
1, 23093, Note_on_c, 9, 43, 120
1, 23094, Note_off_c, 9, 43, 64
1, 23126, Note_off_c, 2, 58, 64
1, 23131, Note_on_c, 2, 58, 57
1, 23131, Note_off_c, 3, 66, 64
1, 23132, Note_off_c, 2, 61, 64
1, 23132, Note_on_c, 3, 68, 103
1, 23133, Note_off_c, 2, 65, 64
1, 23133, Note_on_c, 2, 61, 75
1, 23135, Note_off_c, 2, 70, 64
1, 23136, Note_on_c, 2, 65, 81
1, 23139, Note_on_c, 2, 70, 77
1, 23160, Note_on_c, 9, 41, 92
1, 23161, Note_off_c, 9, 41, 64
1, 23171, Note_on_c, 9, 41, 83
1, 23172, Note_off_c, 9, 41, 64
1, 23178, Note_off_c, 2, 58, 64
1, 23179, Note_off_c, 2, 61, 64
1, 23179, Note_on_c, 2, 58, 50
1, 23180, Note_off_c, 2, 65, 64
1, 23180, Note_on_c, 9, 41, 80
1, 23181, Note_off_c, 2, 70, 64
1, 23181, Note_on_c, 3, 70, 101
1, 23181, Note_off_c, 9, 41, 64
1, 23182, Note_on_c, 2, 61, 67
1, 23184, Note_on_c, 2, 65, 81
1, 23186, Note_on_c, 2, 70, 80
1, 23186, Note_off_c, 3, 68, 64
1, 23214, Note_off_c, 2, 61, 64
1, 23217, Note_off_c, 2, 70, 64
1, 23220, Note_off_c, 2, 65, 64
1, 23222, Note_off_c, 2, 58, 64
1, 23229, Note_off_c, 0, 58, 64
1, 23229, Note_off_c, 0, 46, 64
1, 23230, Note_on_c, 1, 39, 109
1, 23230, Note_off_c, 6, 46, 64
1, 23230, Note_on_c, 9, 35, 123
1, 23230, Note_on_c, 9, 55, 72
1, 23230, Note_on_c, 9, 49, 71
1, 23231, Note_off_c, 0, 39, 64
1, 23231, Note_off_c, 0, 51, 64
1, 23231, Note_off_c, 9, 49, 64
1, 23231, Note_off_c, 9, 55, 64
1, 23231, Note_off_c, 9, 35, 64
1, 23232, Note_off_c, 1, 46, 64
1, 23233, Note_on_c, 2, 51, 73
1, 23258, Note_off_c, 3, 70, 64
1, 23282, Note_on_c, 9, 42, 77
1, 23283, Note_on_c, 2, 63, 59
1, 23283, Note_off_c, 9, 42, 64
1, 23328, Note_on_c, 9, 38, 120
1, 23329, Note_off_c, 9, 38, 64
1, 23330, Note_on_c, 9, 42, 73
1, 23331, Note_off_c, 1, 39, 64
1, 23331, Note_off_c, 9, 42, 64
1, 23334, Note_on_c, 2, 58, 20
1, 23377, Note_on_c, 1, 39, 102
1, 23377, Note_on_c, 9, 35, 121
1, 23377, Note_on_c, 9, 42, 73
1, 23378, Note_off_c, 2, 63, 64
1, 23378, Note_off_c, 9, 42, 64
1, 23378, Note_off_c, 9, 35, 64
1, 23383, Note_on_c, 2, 63, 52
1, 23392, Note_off_c, 1, 39, 64
1, 23425, Note_on_c, 0, 75, 99
1, 23425, Note_on_c, 1, 39, 109
1, 23425, Note_on_c, 9, 35, 127
1, 23425, Note_on_c, 9, 42, 70
1, 23426, Note_on_c, 0, 87, 108
1, 23426, Note_off_c, 9, 42, 64
1, 23426, Note_off_c, 9, 35, 64
1, 23427, Note_off_c, 2, 51, 64
1, 23429, Note_on_c, 2, 51, 48
1, 23464, Note_off_c, 2, 63, 64
1, 23471, Note_on_c, 0, 82, 94
1, 23472, Note_on_c, 0, 70, 86
1, 23473, Note_on_c, 9, 42, 67
1, 23474, Note_off_c, 0, 87, 64
1, 23474, Note_off_c, 9, 42, 64
1, 23475, Note_on_c, 2, 63, 69
1, 23476, Note_off_c, 0, 75, 64
1, 23488, Note_off_c, 2, 58, 64
1, 23518, Note_off_c, 1, 39, 64
1, 23519, Note_on_c, 1, 53, 95
1, 23520, Note_on_c, 0, 78, 92
1, 23520, Pitch_bend_c, 1, 4480
1, 23521, Note_on_c, 0, 66, 83
1, 23521, Note_on_c, 9, 38, 120
1, 23522, Pitch_bend_c, 1, 4864
1, 23522, Note_off_c, 9, 38, 64
1, 23522, Note_on_c, 9, 42, 72
1, 23523, Note_on_c, 2, 58, 52
1, 23523, Note_off_c, 9, 42, 64
1, 23524, Pitch_bend_c, 1, 5248
1, 23526, Note_off_c, 0, 82, 64
1, 23528, Note_off_c, 0, 70, 64
1, 23528, Pitch_bend_c, 1, 5632
1, 23530, Pitch_bend_c, 1, 6016
1, 23532, Pitch_bend_c, 1, 6528
1, 23536, Pitch_bend_c, 1, 6912
1, 23538, Pitch_bend_c, 1, 7296
1, 23540, Pitch_bend_c, 1, 7680
1, 23544, Pitch_bend_c, 1, 8192
1, 23559, Note_off_c, 2, 51, 64
1, 23566, Note_off_c, 1, 53, 64
1, 23567, Note_on_c, 1, 51, 103
1, 23568, Note_on_c, 0, 75, 89
1, 23568, Note_on_c, 2, 51, 36
1, 23569, Note_on_c, 9, 42, 70
1, 23570, Note_on_c, 0, 63, 86
1, 23570, Note_off_c, 9, 42, 64
1, 23570, Note_on_c, 9, 35, 117
1, 23571, Note_off_c, 0, 78, 64
1, 23571, Note_off_c, 9, 35, 64
1, 23577, Note_off_c, 0, 66, 64
1, 23604, Note_off_c, 2, 51, 64
1, 23616, Note_off_c, 1, 51, 64
1, 23617, Note_off_c, 0, 75, 64
1, 23617, Note_on_c, 1, 39, 103
1, 23617, Note_on_c, 9, 35, 123
1, 23617, Note_on_c, 9, 42, 67
1, 23618, Note_off_c, 9, 42, 64
1, 23618, Note_off_c, 9, 35, 64
1, 23621, Note_on_c, 0, 78, 103
1, 23621, Note_on_c, 0, 66, 91
1, 23626, Note_off_c, 0, 63, 64
1, 23659, Note_off_c, 2, 63, 64
1, 23666, Note_on_c, 2, 63, 63
1, 23666, Note_on_c, 9, 42, 69
1, 23667, Note_off_c, 9, 42, 64
1, 23704, Note_off_c, 2, 58, 64
1, 23712, Note_on_c, 9, 38, 117
1, 23713, Note_on_c, 2, 58, 65
1, 23713, Note_off_c, 9, 38, 64
1, 23713, Note_on_c, 9, 42, 68
1, 23714, Note_off_c, 9, 42, 64
1, 23716, Note_off_c, 1, 39, 64
1, 23759, Note_on_c, 9, 35, 121
1, 23760, Note_off_c, 9, 35, 64
1, 23760, Note_on_c, 9, 42, 70
1, 23761, Note_on_c, 1, 39, 101
1, 23761, Note_on_c, 2, 51, 51
1, 23761, Note_off_c, 9, 42, 64
1, 23782, Note_off_c, 1, 39, 64
1, 23803, Note_off_c, 2, 51, 64
1, 23807, Note_on_c, 9, 35, 123
1, 23807, Note_on_c, 9, 42, 69
1, 23808, Note_on_c, 1, 39, 105
1, 23808, Note_off_c, 9, 42, 64
1, 23808, Note_off_c, 9, 35, 64
1, 23810, Note_on_c, 0, 75, 101
1, 23810, Note_on_c, 0, 87, 111
1, 23810, Note_on_c, 2, 51, 50
1, 23847, Note_off_c, 2, 63, 64
1, 23856, Note_on_c, 9, 42, 68
1, 23857, Note_off_c, 9, 42, 64
1, 23858, Note_on_c, 2, 63, 71
1, 23894, Note_off_c, 2, 58, 64
1, 23898, Note_off_c, 0, 78, 64
1, 23903, Note_off_c, 0, 66, 64
1, 23903, Note_on_c, 9, 38, 119
1, 23903, Note_on_c, 9, 42, 67
1, 23904, Note_on_c, 0, 78, 96
1, 23904, Note_on_c, 0, 66, 75
1, 23904, Note_off_c, 9, 42, 64
1, 23904, Note_off_c, 9, 38, 64
1, 23905, Note_off_c, 1, 39, 64
1, 23906, Note_on_c, 2, 58, 57
1, 23911, Note_off_c, 0, 87, 64
1, 23912, Note_off_c, 0, 75, 64
1, 23927, Note_on_c, 0, 77, 97
1, 23927, Note_on_c, 0, 65, 94
1, 23932, Note_off_c, 0, 78, 64
1, 23934, Note_off_c, 0, 66, 64
1, 23942, Note_off_c, 2, 51, 64
1, 23949, Note_on_c, 0, 75, 99
1, 23949, Note_on_c, 0, 63, 97
1, 23951, Note_on_c, 1, 39, 114
1, 23951, Note_on_c, 9, 42, 67
1, 23952, Note_off_c, 9, 42, 64
1, 23952, Note_on_c, 9, 35, 120
1, 23953, Note_off_c, 9, 35, 64
1, 23954, Note_on_c, 2, 51, 26
1, 23955, Note_off_c, 0, 77, 64
1, 23956, Note_off_c, 0, 65, 64
1, 23964, Note_off_c, 2, 63, 64
1, 23965, Note_off_c, 2, 51, 64
1, 23972, Note_off_c, 1, 39, 64
1, 23972, Note_off_c, 2, 58, 64
1, 23983, Note_off_c, 0, 75, 64
1, 23984, Note_off_c, 0, 63, 64
1, 23996, Note_on_c, 3, 70, 103
1, 23996, Note_on_c, 4, 66, 92
1, 23996, Note_on_c, 4, 61, 90
1, 23996, Note_on_c, 4, 70, 87
1, 23998, Note_on_c, 2, 54, 63
1, 23999, Note_on_c, 9, 35, 127
1, 23999, Note_on_c, 9, 42, 67
1, 24000, Note_on_c, 0, 70, 102
1, 24000, Note_off_c, 9, 42, 64
1, 24000, Note_off_c, 9, 35, 64
1, 24001, Note_on_c, 1, 42, 109
1, 24043, Note_off_c, 4, 70, 64
1, 24043, Note_off_c, 4, 61, 64
1, 24043, Note_off_c, 4, 66, 64
1, 24044, Note_off_c, 3, 70, 64
1, 24044, Note_on_c, 4, 70, 90
1, 24044, Note_on_c, 4, 61, 90
1, 24044, Note_on_c, 4, 66, 91
1, 24045, Note_on_c, 3, 70, 102
1, 24046, Note_on_c, 0, 66, 83
1, 24046, Note_on_c, 2, 66, 81
1, 24049, Note_on_c, 9, 42, 65
1, 24050, Note_off_c, 9, 42, 64
1, 24091, Note_off_c, 3, 70, 64
1, 24091, Note_off_c, 4, 66, 64
1, 24091, Note_off_c, 4, 61, 64
1, 24091, Note_off_c, 4, 70, 64
1, 24092, Note_on_c, 3, 70, 101
1, 24092, Note_on_c, 4, 61, 83
1, 24092, Note_on_c, 4, 66, 91
1, 24092, Note_on_c, 4, 70, 91
1, 24095, Note_on_c, 9, 42, 71
1, 24096, Note_on_c, 0, 61, 79
1, 24096, Note_on_c, 2, 61, 63
1, 24096, Note_off_c, 9, 42, 64
1, 24097, Note_on_c, 9, 38, 120
1, 24098, Note_off_c, 9, 38, 64
1, 24100, Note_off_c, 1, 42, 64
1, 24104, Note_off_c, 0, 70, 64
1, 24137, Note_off_c, 3, 70, 64
1, 24139, Note_off_c, 4, 70, 64
1, 24139, Note_off_c, 4, 66, 64
1, 24139, Note_off_c, 4, 61, 64
1, 24140, Note_on_c, 3, 70, 98
1, 24140, Note_on_c, 4, 66, 94
1, 24140, Note_on_c, 4, 70, 92
1, 24140, Note_on_c, 4, 61, 92
1, 24143, Note_on_c, 2, 58, 50
1, 24143, Note_on_c, 9, 35, 117
1, 24144, Note_on_c, 0, 70, 97
1, 24144, Note_off_c, 9, 35, 64
1, 24144, Note_on_c, 9, 42, 70
1, 24145, Note_on_c, 1, 42, 103
1, 24145, Note_off_c, 9, 42, 64
1, 24166, Note_off_c, 1, 42, 64
1, 24166, Note_off_c, 2, 54, 64
1, 24187, Note_off_c, 3, 70, 64
1, 24187, Note_off_c, 4, 61, 64
1, 24187, Note_off_c, 4, 70, 64
1, 24187, Note_off_c, 4, 66, 64
1, 24188, Note_on_c, 4, 61, 93
1, 24188, Note_on_c, 4, 70, 93
1, 24188, Note_on_c, 4, 66, 95
1, 24190, Note_on_c, 3, 70, 106
1, 24191, Note_on_c, 9, 42, 68
1, 24192, Note_on_c, 0, 78, 105
1, 24192, Note_off_c, 9, 42, 64
1, 24192, Note_on_c, 9, 35, 127
1, 24193, Note_on_c, 1, 42, 106
1, 24193, Note_off_c, 9, 35, 64
1, 24194, Note_on_c, 2, 54, 50
1, 24231, Note_off_c, 2, 66, 64
1, 24236, Note_off_c, 4, 66, 64
1, 24236, Note_off_c, 4, 70, 64
1, 24236, Note_off_c, 4, 61, 64
1, 24239, Note_on_c, 9, 42, 69
1, 24240, Note_on_c, 0, 73, 99
1, 24240, Note_off_c, 9, 42, 64
1, 24242, Note_off_c, 0, 78, 64
1, 24242, Note_on_c, 2, 66, 81
1, 24243, Note_off_c, 3, 70, 64
1, 24275, Note_off_c, 2, 61, 64
1, 24288, Note_on_c, 0, 82, 105
1, 24288, Note_on_c, 9, 42, 72
1, 24289, Note_off_c, 9, 42, 64
1, 24289, Note_on_c, 9, 38, 118
1, 24290, Note_on_c, 2, 61, 59
1, 24290, Note_off_c, 9, 38, 64
1, 24292, Note_off_c, 0, 61, 64
1, 24292, Note_off_c, 1, 42, 64
1, 24295, Note_off_c, 0, 66, 64
1, 24297, Note_off_c, 0, 70, 64
1, 24307, Note_off_c, 0, 73, 64
1, 24313, Note_on_c, 0, 80, 91
1, 24326, Note_off_c, 2, 58, 64
1, 24330, Note_off_c, 0, 82, 64
1, 24332, Note_on_c, 4, 66, 91
1, 24332, Note_on_c, 4, 70, 97
1, 24332, Note_on_c, 4, 61, 90
1, 24335, Note_on_c, 1, 42, 106
1, 24335, Note_on_c, 9, 35, 117
1, 24336, Note_on_c, 0, 78, 109
1, 24336, Note_on_c, 3, 70, 106
1, 24336, Note_off_c, 9, 35, 64
1, 24337, Note_on_c, 9, 42, 71
1, 24338, Note_on_c, 2, 58, 61
1, 24338, Note_off_c, 9, 42, 64
1, 24344, Note_off_c, 0, 80, 64
1, 24357, Note_off_c, 2, 54, 64
1, 24362, Note_off_c, 1, 42, 64
1, 24371, Note_off_c, 0, 78, 64
1, 24374, Note_off_c, 2, 61, 64
1, 24379, Note_off_c, 4, 70, 64
1, 24380, Note_off_c, 3, 70, 64
1, 24380, Note_off_c, 4, 61, 64
1, 24380, Note_off_c, 4, 66, 64
1, 24380, Note_on_c, 4, 70, 95
1, 24380, Note_on_c, 4, 63, 98
1, 24380, Note_on_c, 4, 60, 95
1, 24380, Note_on_c, 7, 80, 85
1, 24382, Note_on_c, 3, 70, 107
1, 24383, Note_on_c, 1, 44, 109
1, 24383, Note_off_c, 2, 66, 64
1, 24383, Note_off_c, 2, 58, 64
1, 24383, Note_on_c, 9, 35, 121
1, 24384, Note_on_c, 0, 72, 106
1, 24384, Note_on_c, 2, 56, 77
1, 24384, Note_on_c, 2, 60, 35
1, 24384, Note_off_c, 9, 35, 64
1, 24384, Note_on_c, 9, 42, 70
1, 24385, Note_off_c, 7, 82, 64
1, 24385, Note_off_c, 9, 42, 64
1, 24427, Note_off_c, 4, 60, 64
1, 24427, Note_off_c, 4, 63, 64
1, 24428, Note_off_c, 4, 70, 64
1, 24428, Note_on_c, 4, 68, 91
1, 24428, Note_on_c, 4, 60, 88
1, 24428, Note_on_c, 4, 63, 81
1, 24429, Note_on_c, 0, 68, 94
1, 24429, Note_on_c, 2, 68, 69
1, 24429, Note_on_c, 3, 68, 101
1, 24433, Note_on_c, 9, 42, 73
1, 24434, Note_off_c, 9, 42, 64
1, 24435, Note_off_c, 3, 70, 64
1, 24475, Note_off_c, 3, 68, 64
1, 24475, Note_off_c, 4, 63, 64
1, 24475, Note_off_c, 4, 60, 64
1, 24475, Note_off_c, 4, 68, 64
1, 24476, Note_on_c, 4, 60, 90
1, 24476, Note_on_c, 4, 63, 91
1, 24476, Note_on_c, 4, 68, 91
1, 24477, Note_on_c, 0, 63, 82
1, 24478, Note_on_c, 2, 63, 48
1, 24478, Note_on_c, 3, 68, 102
1, 24479, Note_off_c, 0, 72, 64
1, 24479, Note_on_c, 9, 42, 73
1, 24480, Note_off_c, 9, 42, 64
1, 24481, Note_on_c, 9, 38, 117
1, 24482, Note_off_c, 9, 38, 64
1, 24484, Note_off_c, 1, 44, 64
1, 24515, Note_off_c, 2, 60, 64
1, 24527, Note_on_c, 0, 72, 96
1, 24527, Note_on_c, 1, 44, 107
1, 24528, Note_on_c, 2, 60, 54
1, 24528, Note_on_c, 9, 42, 70
1, 24529, Note_off_c, 9, 42, 64
1, 24529, Note_on_c, 9, 35, 118
1, 24530, Note_off_c, 9, 35, 64
1, 24537, Note_off_c, 3, 68, 64
1, 24546, Note_off_c, 1, 44, 64
1, 24548, Note_off_c, 4, 68, 64
1, 24548, Note_off_c, 4, 63, 64
1, 24548, Note_off_c, 4, 60, 64
1, 24568, Note_off_c, 2, 56, 64
1, 24574, Note_on_c, 0, 80, 115
1, 24575, Note_on_c, 2, 56, 60
1, 24575, Note_on_c, 9, 35, 120
1, 24576, Note_off_c, 9, 35, 64
1, 24576, Note_on_c, 9, 42, 70
1, 24577, Note_on_c, 1, 44, 110
1, 24577, Note_off_c, 9, 42, 64
1, 24615, Note_off_c, 2, 68, 64
1, 24623, Note_on_c, 0, 75, 106
1, 24623, Note_on_c, 3, 68, 105
1, 24624, Note_on_c, 9, 42, 69
1, 24625, Note_off_c, 0, 80, 64
1, 24625, Note_off_c, 2, 63, 64
1, 24625, Note_on_c, 2, 68, 71
1, 24625, Note_off_c, 9, 42, 64
1, 24626, Note_on_c, 2, 63, 43
1, 24661, Note_off_c, 2, 63, 64
1, 24670, Note_on_c, 3, 66, 97
1, 24671, Note_on_c, 0, 84, 97
1, 24671, Note_on_c, 2, 63, 77
1, 24671, Note_off_c, 3, 68, 64
1, 24671, Note_on_c, 9, 42, 73
1, 24672, Note_off_c, 1, 44, 64
1, 24672, Note_off_c, 9, 42, 64
1, 24672, Note_on_c, 9, 38, 118
1, 24673, Note_off_c, 9, 38, 64
1, 24692, Note_on_c, 0, 82, 88
1, 24697, Note_off_c, 0, 84, 64
1, 24710, Note_off_c, 2, 60, 64
1, 24715, Note_on_c, 3, 68, 105
1, 24716, Note_off_c, 3, 66, 64
1, 24718, Note_on_c, 0, 80, 109
1, 24720, Note_on_c, 1, 42, 107
1, 24720, Note_on_c, 2, 60, 51
1, 24720, Note_on_c, 9, 35, 114
1, 24721, Note_off_c, 9, 35, 64
1, 24721, Note_on_c, 9, 42, 73
1, 24722, Note_off_c, 9, 42, 64
1, 24723, Note_off_c, 0, 82, 64
1, 24741, Note_off_c, 2, 56, 64
1, 24747, Note_off_c, 2, 63, 64
1, 24753, Note_off_c, 2, 60, 64
1, 24764, Note_off_c, 0, 72, 64
1, 24766, Note_off_c, 0, 75, 64
1, 24767, Note_off_c, 0, 63, 64
1, 24767, Note_on_c, 9, 42, 73
1, 24768, Note_on_c, 0, 72, 111
1, 24768, Note_on_c, 2, 53, 77
1, 24768, Note_off_c, 9, 42, 64
1, 24769, Note_off_c, 0, 80, 64
1, 24769, Note_off_c, 1, 42, 64
1, 24769, Note_on_c, 9, 35, 123
1, 24770, Note_on_c, 1, 41, 108
1, 24770, Note_off_c, 9, 35, 64
1, 24771, Note_off_c, 0, 68, 64
1, 24808, Note_off_c, 2, 68, 64
1, 24816, Note_on_c, 0, 68, 84
1, 24816, Note_on_c, 9, 42, 72
1, 24817, Note_on_c, 2, 68, 80
1, 24817, Note_off_c, 9, 42, 64
1, 24837, Note_on_c, 3, 70, 97
1, 24841, Note_off_c, 3, 68, 64
1, 24855, Note_on_c, 3, 68, 98
1, 24859, Note_off_c, 3, 70, 64
1, 24862, Note_on_c, 2, 65, 66
1, 24864, Note_on_c, 9, 42, 74
1, 24865, Note_off_c, 0, 72, 64
1, 24865, Note_off_c, 9, 42, 64
1, 24865, Note_on_c, 9, 38, 116
1, 24866, Note_off_c, 9, 38, 64
1, 24867, Note_on_c, 0, 65, 84
1, 24872, Note_off_c, 1, 41, 64
1, 24910, Note_on_c, 1, 41, 108
1, 24911, Note_on_c, 2, 60, 44
1, 24911, Note_on_c, 9, 35, 114
1, 24912, Note_off_c, 9, 35, 64
1, 24912, Note_on_c, 9, 42, 73
1, 24913, Note_off_c, 9, 42, 64
1, 24914, Note_off_c, 3, 68, 64
1, 24916, Note_on_c, 0, 72, 98
1, 24925, Note_off_c, 1, 41, 64
1, 24951, Note_off_c, 2, 53, 64
1, 24957, Note_off_c, 2, 60, 64
1, 24957, Note_on_c, 2, 53, 63
1, 24958, Note_on_c, 1, 41, 110
1, 24958, Note_off_c, 2, 65, 64
1, 24958, Note_on_c, 2, 60, 59
1, 24959, Note_on_c, 9, 35, 121
1, 24959, Note_on_c, 9, 42, 73
1, 24960, Note_off_c, 9, 42, 64
1, 24960, Note_off_c, 9, 35, 64
1, 24962, Note_on_c, 0, 80, 113
1, 24962, Note_on_c, 2, 65, 38
1, 24996, Note_off_c, 2, 68, 64
1, 25006, Note_on_c, 2, 68, 81
1, 25007, Note_on_c, 9, 42, 70
1, 25008, Note_off_c, 2, 65, 64
1, 25008, Note_off_c, 9, 42, 64
1, 25009, Note_on_c, 2, 65, 50
1, 25010, Note_on_c, 0, 77, 101
1, 25011, Note_off_c, 0, 80, 64
1, 25050, Note_off_c, 2, 60, 64
1, 25053, Note_on_c, 2, 60, 54
1, 25054, Note_off_c, 2, 65, 64
1, 25055, Note_on_c, 9, 38, 116
1, 25055, Note_on_c, 9, 42, 73
1, 25056, Note_on_c, 0, 84, 97
1, 25056, Note_on_c, 2, 65, 52
1, 25056, Note_off_c, 9, 42, 64
1, 25056, Note_off_c, 9, 38, 64
1, 25062, Note_off_c, 1, 41, 64
1, 25079, Note_on_c, 0, 82, 91
1, 25090, Note_off_c, 0, 77, 64
1, 25093, Note_off_c, 0, 84, 64
1, 25098, Note_off_c, 2, 53, 64
1, 25101, Note_off_c, 2, 60, 64
1, 25101, Note_on_c, 2, 53, 77
1, 25103, Note_on_c, 0, 80, 108
1, 25103, Note_on_c, 1, 36, 112
1, 25103, Note_on_c, 2, 60, 60
1, 25103, Note_on_c, 9, 35, 109
1, 25103, Note_on_c, 9, 42, 71
1, 25104, Note_off_c, 9, 42, 64
1, 25104, Note_off_c, 9, 35, 64
1, 25110, Note_off_c, 0, 82, 64
1, 25121, Note_off_c, 0, 72, 64
1, 25124, Note_off_c, 0, 65, 64
1, 25129, Note_off_c, 0, 68, 64
1, 25150, Note_off_c, 2, 65, 64
1, 25151, Note_on_c, 0, 72, 99
1, 25151, Note_off_c, 2, 60, 64
1, 25151, Note_off_c, 2, 53, 64
1, 25151, Note_on_c, 9, 35, 117
1, 25151, Note_on_c, 9, 42, 73
1, 25152, Note_off_c, 1, 36, 64
1, 25152, Note_off_c, 2, 68, 64
1, 25152, Note_on_c, 2, 53, 63
1, 25152, Note_on_c, 2, 60, 56
1, 25152, Note_off_c, 9, 42, 64
1, 25152, Note_off_c, 9, 35, 64
1, 25153, Note_on_c, 1, 41, 110
1, 25153, Note_on_c, 2, 65, 30
1, 25197, Note_on_c, 2, 68, 68
1, 25199, Note_off_c, 2, 65, 64
1, 25199, Note_on_c, 9, 42, 69
1, 25200, Note_off_c, 9, 42, 64
1, 25201, Note_on_c, 0, 68, 95
1, 25203, Note_off_c, 0, 80, 64
1, 25246, Note_on_c, 2, 65, 67
1, 25247, Note_on_c, 9, 38, 114
1, 25247, Note_on_c, 9, 42, 73
1, 25248, Note_off_c, 2, 60, 64
1, 25248, Note_off_c, 9, 42, 64
1, 25248, Note_off_c, 9, 38, 64
1, 25250, Note_off_c, 0, 72, 64
1, 25250, Note_on_c, 0, 65, 88
1, 25250, Note_on_c, 2, 60, 36
1, 25251, Note_off_c, 1, 41, 64
1, 25284, Note_off_c, 2, 60, 64
1, 25293, Note_on_c, 2, 60, 62
1, 25295, Note_on_c, 1, 41, 110
1, 25295, Note_on_c, 9, 35, 118
1, 25295, Note_on_c, 9, 42, 70
1, 25296, Note_on_c, 0, 72, 99
1, 25296, Note_off_c, 9, 42, 64
1, 25296, Note_off_c, 9, 35, 64
1, 25312, Note_off_c, 1, 41, 64
1, 25333, Note_off_c, 2, 53, 64
1, 25340, Note_on_c, 0, 80, 106
1, 25342, Note_on_c, 2, 53, 57
1, 25342, Note_on_c, 9, 42, 72
1, 25343, Note_on_c, 1, 41, 111
1, 25343, Note_off_c, 9, 42, 64
1, 25343, Note_on_c, 9, 35, 123
1, 25344, Note_off_c, 9, 35, 64
1, 25346, Note_off_c, 2, 65, 64
1, 25381, Note_off_c, 2, 68, 64
1, 25388, Note_on_c, 0, 77, 98
1, 25389, Note_on_c, 2, 68, 78
1, 25390, Note_off_c, 0, 80, 64
1, 25390, Note_on_c, 2, 65, 37
1, 25391, Note_on_c, 9, 42, 70
1, 25392, Note_off_c, 9, 42, 64
1, 25426, Note_off_c, 2, 65, 64
1, 25436, Note_on_c, 0, 84, 96
1, 25438, Note_on_c, 2, 65, 66
1, 25439, Note_on_c, 9, 38, 116
1, 25439, Note_on_c, 9, 42, 73
1, 25440, Note_off_c, 9, 42, 64
1, 25440, Note_off_c, 9, 38, 64
1, 25445, Note_off_c, 1, 41, 64
1, 25457, Note_on_c, 0, 82, 86
1, 25466, Note_off_c, 0, 84, 64
1, 25475, Note_off_c, 2, 60, 64
1, 25484, Note_on_c, 0, 80, 101
1, 25485, Note_on_c, 2, 60, 55
1, 25487, Note_off_c, 0, 77, 64
1, 25487, Note_on_c, 1, 36, 110
1, 25487, Note_on_c, 9, 35, 104
1, 25487, Note_on_c, 9, 42, 67
1, 25488, Note_off_c, 9, 42, 64
1, 25488, Note_off_c, 9, 35, 64
1, 25491, Note_off_c, 0, 82, 64
1, 25506, Note_off_c, 2, 53, 64
1, 25511, Note_off_c, 2, 68, 64
1, 25512, Note_off_c, 2, 65, 64
1, 25520, Note_off_c, 2, 60, 64
1, 25526, Note_on_c, 7, 82, 85
1, 25527, Note_off_c, 0, 65, 64
1, 25529, Note_off_c, 0, 72, 64
1, 25530, Note_on_c, 3, 75, 105
1, 25531, Note_off_c, 7, 80, 64
1, 25532, Note_off_c, 0, 68, 64
1, 25533, Note_on_c, 2, 58, 73
1, 25533, Note_on_c, 4, 78, 90
1, 25533, Note_on_c, 4, 75, 87
1, 25534, Note_off_c, 0, 80, 64
1, 25534, Note_off_c, 1, 36, 64
1, 25535, Note_on_c, 9, 42, 70
1, 25536, Note_on_c, 2, 70, 80
1, 25536, Note_off_c, 9, 42, 64
1, 25536, Note_on_c, 9, 35, 110
1, 25537, Note_on_c, 1, 34, 110
1, 25537, Note_off_c, 9, 35, 64
1, 25579, Note_off_c, 2, 58, 64
1, 25580, Note_off_c, 3, 75, 64
1, 25580, Note_off_c, 4, 75, 64
1, 25580, Note_off_c, 4, 78, 64
1, 25581, Note_on_c, 3, 75, 105
1, 25581, Note_on_c, 4, 75, 92
1, 25581, Note_on_c, 4, 78, 95
1, 25582, Note_on_c, 2, 58, 66
1, 25583, Note_on_c, 9, 42, 68
1, 25584, Note_on_c, 0, 78, 89
1, 25584, Note_off_c, 2, 70, 64
1, 25584, Note_off_c, 9, 42, 64
1, 25585, Note_on_c, 2, 70, 80
1, 25624, Note_off_c, 3, 75, 64
1, 25626, Note_off_c, 2, 58, 64
1, 25626, Note_on_c, 3, 75, 100
1, 25628, Note_on_c, 0, 61, 79
1, 25628, Note_off_c, 4, 78, 64
1, 25628, Note_off_c, 4, 75, 64
1, 25629, Note_on_c, 4, 75, 89
1, 25629, Note_on_c, 4, 78, 89
1, 25630, Note_on_c, 2, 58, 76
1, 25631, Note_off_c, 0, 78, 64
1, 25632, Note_on_c, 0, 70, 84
1, 25632, Note_off_c, 2, 70, 64
1, 25632, Note_on_c, 9, 42, 70
1, 25633, Note_on_c, 2, 70, 82
1, 25633, Note_off_c, 9, 42, 64
1, 25633, Note_on_c, 9, 38, 118
1, 25634, Note_off_c, 9, 38, 64
1, 25636, Note_off_c, 1, 34, 64
1, 25670, Note_off_c, 3, 75, 64
1, 25673, Note_on_c, 3, 75, 101
1, 25675, Note_off_c, 2, 58, 64
1, 25676, Note_on_c, 0, 66, 79
1, 25676, Note_off_c, 4, 78, 64
1, 25676, Note_off_c, 4, 75, 64
1, 25677, Note_on_c, 4, 78, 92
1, 25677, Note_on_c, 4, 75, 92
1, 25678, Note_on_c, 1, 34, 106
1, 25678, Note_on_c, 2, 58, 70
1, 25679, Note_off_c, 2, 70, 64
1, 25681, Note_on_c, 2, 70, 82
1, 25681, Note_on_c, 9, 35, 106
1, 25681, Note_on_c, 9, 42, 69
1, 25682, Note_off_c, 9, 42, 64
1, 25682, Note_off_c, 9, 35, 64
1, 25690, Note_off_c, 0, 70, 64
1, 25701, Note_off_c, 1, 34, 64
1, 25720, Note_off_c, 3, 75, 64
1, 25722, Note_on_c, 0, 82, 91
1, 25722, Note_off_c, 2, 58, 64
1, 25722, Note_on_c, 3, 75, 105
1, 25724, Note_off_c, 4, 75, 64
1, 25724, Note_off_c, 4, 78, 64
1, 25725, Note_on_c, 2, 58, 77
1, 25725, Note_on_c, 4, 78, 95
1, 25725, Note_on_c, 4, 75, 97
1, 25727, Note_on_c, 1, 34, 110
1, 25728, Note_off_c, 2, 70, 64
1, 25728, Note_on_c, 9, 35, 120
1, 25728, Note_on_c, 9, 42, 68
1, 25729, Note_on_c, 2, 70, 83
1, 25729, Note_off_c, 9, 42, 64
1, 25729, Note_off_c, 9, 35, 64
1, 25768, Note_off_c, 2, 58, 64
1, 25773, Note_on_c, 0, 77, 84
1, 25773, Note_off_c, 2, 70, 64
1, 25773, Note_on_c, 2, 58, 57
1, 25774, Note_on_c, 2, 70, 83
1, 25775, Note_off_c, 3, 75, 64
1, 25777, Note_on_c, 9, 42, 68
1, 25778, Note_off_c, 9, 42, 64
1, 25817, Note_off_c, 2, 58, 64
1, 25820, Note_on_c, 3, 77, 103
1, 25821, Note_off_c, 4, 75, 64
1, 25821, Note_off_c, 4, 78, 64
1, 25821, Note_on_c, 4, 80, 90
1, 25821, Note_on_c, 4, 77, 91
1, 25822, Note_on_c, 0, 73, 79
1, 25822, Note_off_c, 2, 70, 64
1, 25822, Note_on_c, 2, 58, 69
1, 25823, Note_on_c, 2, 70, 81
1, 25824, Note_on_c, 9, 38, 120
1, 25825, Note_off_c, 9, 38, 64
1, 25825, Note_on_c, 9, 42, 70
1, 25826, Note_off_c, 9, 42, 64
1, 25829, Note_off_c, 0, 77, 64
1, 25829, Note_off_c, 1, 34, 64
1, 25864, Note_off_c, 3, 77, 64
1, 25867, Note_off_c, 2, 58, 64
1, 25868, Note_on_c, 3, 75, 103
1, 25868, Note_off_c, 4, 77, 64
1, 25868, Note_off_c, 4, 80, 64
1, 25869, Note_on_c, 4, 80, 90
1, 25869, Note_on_c, 4, 77, 90
1, 25870, Note_on_c, 2, 58, 81
1, 25871, Note_on_c, 0, 70, 91
1, 25871, Note_on_c, 9, 35, 103
1, 25872, Note_on_c, 1, 34, 110
1, 25872, Note_off_c, 2, 70, 64
1, 25872, Note_off_c, 9, 35, 64
1, 25873, Note_on_c, 9, 42, 71
1, 25874, Note_on_c, 2, 70, 83
1, 25874, Note_off_c, 9, 42, 64
1, 25876, Note_off_c, 0, 73, 64
1, 25891, Note_on_c, 3, 73, 98
1, 25892, Note_off_c, 3, 75, 64
1, 25893, Note_off_c, 4, 77, 64
1, 25893, Note_off_c, 4, 80, 64
1, 25893, Note_on_c, 4, 75, 90
1, 25893, Note_on_c, 4, 78, 82
1, 25908, Note_off_c, 1, 34, 64
1, 25912, Note_off_c, 0, 70, 64
1, 25913, Note_off_c, 0, 66, 64
1, 25913, Note_on_c, 3, 70, 95
1, 25916, Note_off_c, 2, 58, 64
1, 25916, Note_off_c, 3, 73, 64
1, 25917, Note_off_c, 4, 78, 64
1, 25917, Note_off_c, 4, 75, 64
1, 25917, Note_on_c, 4, 77, 93
1, 25917, Note_on_c, 4, 73, 82
1, 25918, Note_off_c, 0, 61, 64
1, 25919, Note_on_c, 2, 58, 81
1, 25919, Note_on_c, 9, 42, 70
1, 25920, Note_on_c, 0, 70, 91
1, 25920, Note_off_c, 2, 70, 64
1, 25920, Note_off_c, 9, 42, 64
1, 25920, Note_on_c, 9, 35, 120
1, 25921, Note_on_c, 1, 46, 112
1, 25921, Note_off_c, 9, 35, 64
1, 25922, Note_on_c, 2, 70, 83
1, 25940, Note_off_c, 0, 82, 64
1, 25961, Note_off_c, 3, 70, 64
1, 25962, Note_off_c, 2, 58, 64
1, 25964, Note_on_c, 3, 70, 99
1, 25964, Note_off_c, 4, 73, 64
1, 25964, Note_off_c, 4, 77, 64
1, 25965, Note_on_c, 4, 77, 92
1, 25965, Note_on_c, 4, 73, 92
1, 25966, Note_on_c, 2, 58, 76
1, 25967, Note_off_c, 2, 70, 64
1, 25969, Note_on_c, 0, 65, 85
1, 25969, Note_on_c, 2, 70, 81
1, 25969, Note_on_c, 9, 42, 68
1, 25970, Note_off_c, 9, 42, 64
1, 26012, Note_off_c, 2, 58, 64
1, 26015, Note_off_c, 2, 70, 64
1, 26015, Note_on_c, 9, 38, 120
1, 26015, Note_on_c, 9, 42, 73
1, 26016, Note_on_c, 0, 61, 81
1, 26016, Note_on_c, 2, 58, 76
1, 26016, Note_on_c, 8, 61, 59
1, 26016, Note_on_c, 8, 70, 60
1, 26016, Note_off_c, 9, 42, 64
1, 26016, Note_off_c, 9, 38, 64
1, 26017, Note_on_c, 2, 70, 82
1, 26017, Control_c, 8, 1, 0
1, 26017, Pitch_bend_c, 8, 8192
1, 26020, Note_off_c, 1, 46, 64
1, 26023, Note_off_c, 0, 70, 64
1, 26027, Note_off_c, 0, 65, 64
1, 26047, Note_off_c, 8, 70, 64
1, 26047, Note_off_c, 8, 61, 64
1, 26055, Note_off_c, 2, 58, 64
1, 26055, Note_off_c, 3, 70, 64
1, 26062, Note_off_c, 2, 70, 64
1, 26063, Note_on_c, 1, 34, 108
1, 26063, Note_on_c, 2, 58, 65
1, 26063, Note_on_c, 2, 70, 81
1, 26063, Note_on_c, 9, 35, 104
1, 26063, Note_on_c, 9, 42, 70
1, 26064, Note_on_c, 0, 65, 81
1, 26064, Note_on_c, 8, 61, 59
1, 26064, Note_on_c, 8, 70, 62
1, 26064, Note_off_c, 9, 42, 64
1, 26064, Note_off_c, 9, 35, 64
1, 26073, Note_off_c, 4, 73, 64
1, 26073, Note_off_c, 4, 77, 64
1, 26098, Note_off_c, 8, 70, 64
1, 26098, Note_off_c, 8, 61, 64
1, 26105, Note_off_c, 2, 58, 64
1, 26109, Note_on_c, 0, 82, 90
1, 26109, Note_on_c, 2, 58, 72
1, 26110, Note_off_c, 1, 34, 64
1, 26110, Note_off_c, 2, 70, 64
1, 26111, Note_on_c, 1, 34, 110
1, 26111, Note_on_c, 2, 70, 84
1, 26111, Note_on_c, 9, 35, 120
1, 26111, Note_on_c, 9, 42, 70
1, 26112, Note_on_c, 8, 61, 70
1, 26112, Note_on_c, 8, 70, 85
1, 26112, Note_off_c, 9, 42, 64
1, 26112, Note_off_c, 9, 35, 64
1, 26145, Note_off_c, 8, 61, 64
1, 26146, Note_off_c, 8, 70, 64
1, 26154, Note_off_c, 2, 58, 64
1, 26157, Note_on_c, 0, 77, 83
1, 26157, Note_off_c, 1, 34, 64
1, 26157, Note_on_c, 3, 73, 109
1, 26158, Note_on_c, 1, 46, 107
1, 26158, Note_on_c, 4, 77, 103
1, 26158, Note_on_c, 4, 73, 100
1, 26158, Note_on_c, 9, 42, 70
1, 26159, Note_off_c, 2, 70, 64
1, 26159, Note_on_c, 2, 58, 69
1, 26159, Note_off_c, 9, 42, 64
1, 26160, Note_on_c, 2, 70, 84
1, 26160, Note_on_c, 8, 61, 76
1, 26160, Note_on_c, 8, 70, 92
1, 26196, Note_off_c, 8, 61, 64
1, 26198, Note_off_c, 8, 70, 64
1, 26200, Note_off_c, 2, 58, 64
1, 26202, Note_on_c, 0, 73, 76
1, 26204, Note_off_c, 3, 73, 64
1, 26204, Note_on_c, 3, 75, 106
1, 26205, Note_off_c, 1, 46, 64
1, 26206, Note_on_c, 1, 44, 109
1, 26206, Note_off_c, 2, 70, 64
1, 26206, Note_off_c, 4, 73, 64
1, 26206, Note_off_c, 4, 77, 64
1, 26206, Note_on_c, 4, 75, 97
1, 26206, Note_on_c, 4, 78, 94
1, 26207, Note_off_c, 0, 77, 64
1, 26207, Note_on_c, 2, 58, 57
1, 26207, Note_on_c, 2, 70, 85
1, 26207, Note_on_c, 9, 38, 121
1, 26207, Note_on_c, 9, 42, 74
1, 26208, Note_on_c, 8, 70, 102
1, 26208, Note_on_c, 8, 61, 92
1, 26208, Note_off_c, 9, 42, 64
1, 26208, Note_off_c, 9, 38, 64
1, 26236, Note_off_c, 0, 82, 64
1, 26246, Note_off_c, 8, 61, 64
1, 26246, Note_off_c, 8, 70, 64
1, 26248, Note_off_c, 2, 58, 64
1, 26251, Note_on_c, 0, 77, 91
1, 26252, Note_off_c, 3, 75, 64
1, 26252, Note_on_c, 3, 77, 106
1, 26254, Note_on_c, 2, 58, 73
1, 26254, Note_off_c, 4, 78, 64
1, 26254, Note_off_c, 4, 75, 64
1, 26254, Note_on_c, 4, 77, 82
1, 26254, Note_on_c, 4, 80, 97
1, 26255, Note_off_c, 2, 70, 64
1, 26255, Note_on_c, 9, 46, 79
1, 26256, Note_on_c, 2, 70, 84
1, 26256, Note_on_c, 8, 70, 95
1, 26256, Note_on_c, 8, 61, 106
1, 26256, Note_off_c, 9, 46, 64
1, 26256, Note_on_c, 9, 35, 111
1, 26257, Note_off_c, 9, 35, 64
1, 26276, Note_off_c, 0, 73, 64
1, 26288, Note_off_c, 0, 61, 64
1, 26294, Note_off_c, 0, 65, 64
1, 26294, Note_off_c, 0, 77, 64
1, 26294, Note_off_c, 8, 61, 64
1, 26294, Note_off_c, 8, 70, 64
1, 26295, Note_on_c, 7, 78, 84
1, 26297, Note_off_c, 1, 44, 64
1, 26298, Note_off_c, 7, 82, 64
1, 26300, Note_off_c, 3, 77, 64
1, 26301, Note_off_c, 4, 80, 64
1, 26301, Note_off_c, 4, 77, 64
1, 26302, Note_on_c, 2, 66, 25
1, 26302, Note_on_c, 2, 54, 76
1, 26302, Note_on_c, 4, 80, 99
1, 26302, Note_on_c, 4, 77, 97
1, 26303, Note_on_c, 1, 42, 111
1, 26303, Note_off_c, 2, 58, 64
1, 26303, Note_on_c, 3, 77, 110
1, 26303, Note_on_c, 9, 35, 121
1, 26303, Note_on_c, 9, 42, 81
1, 26304, Note_on_c, 0, 78, 117
1, 26304, Note_off_c, 2, 70, 64
1, 26304, Note_on_c, 2, 58, 68
1, 26304, Note_on_c, 8, 58, 97
1, 26304, Note_on_c, 8, 66, 100
1, 26304, Note_off_c, 9, 42, 64
1, 26304, Note_off_c, 9, 35, 64
1, 26306, Note_on_c, 2, 61, 53
1, 26327, Note_on_c, 9, 42, 70
1, 26328, Note_off_c, 9, 42, 64
1, 26343, Note_off_c, 2, 66, 64
1, 26351, Note_off_c, 2, 61, 64
1, 26351, Note_on_c, 9, 42, 77
1, 26352, Note_on_c, 2, 66, 79
1, 26352, Note_on_c, 2, 61, 59
1, 26352, Note_off_c, 9, 42, 64
1, 26367, Note_off_c, 3, 77, 64
1, 26373, Note_on_c, 3, 78, 106
1, 26374, Note_off_c, 4, 77, 64
1, 26374, Note_off_c, 4, 80, 64
1, 26374, Note_on_c, 4, 78, 97
1, 26374, Note_on_c, 4, 82, 92
1, 26375, Note_on_c, 9, 42, 71
1, 26376, Note_off_c, 9, 42, 64
1, 26394, Note_off_c, 2, 58, 64
1, 26398, Note_on_c, 0, 73, 98
1, 26399, Note_off_c, 2, 61, 64
1, 26399, Note_on_c, 9, 37, 118
1, 26399, Note_on_c, 9, 42, 79
1, 26400, Note_off_c, 9, 42, 64
1, 26400, Note_off_c, 9, 37, 64
1, 26403, Note_on_c, 2, 61, 37
1, 26403, Note_on_c, 2, 58, 56
1, 26423, Note_on_c, 9, 42, 73
1, 26424, Note_off_c, 9, 42, 64
1, 26431, Note_off_c, 1, 42, 64
1, 26443, Note_off_c, 3, 78, 64
1, 26444, Note_off_c, 0, 78, 64
1, 26444, Note_on_c, 3, 78, 104
1, 26445, Note_off_c, 2, 61, 64
1, 26445, Note_off_c, 4, 82, 64
1, 26445, Note_off_c, 4, 78, 64
1, 26446, Note_on_c, 1, 42, 106
1, 26446, Note_off_c, 2, 66, 64
1, 26446, Note_on_c, 2, 70, 68
1, 26446, Note_on_c, 4, 78, 93
1, 26446, Note_on_c, 4, 82, 95
1, 26447, Note_on_c, 2, 66, 69
1, 26447, Note_on_c, 9, 35, 109
1, 26447, Note_on_c, 9, 42, 72
1, 26448, Note_on_c, 0, 70, 99
1, 26448, Note_on_c, 2, 61, 36
1, 26448, Note_off_c, 9, 42, 64
1, 26448, Note_off_c, 9, 35, 64
1, 26454, Note_off_c, 0, 73, 64
1, 26470, Note_on_c, 9, 42, 70
1, 26471, Note_off_c, 9, 42, 64
1, 26486, Note_off_c, 1, 42, 64
1, 26489, Note_off_c, 2, 54, 64
1, 26491, Note_off_c, 2, 58, 64
1, 26494, Note_on_c, 9, 35, 114
1, 26494, Note_on_c, 9, 42, 78
1, 26495, Note_on_c, 1, 42, 110
1, 26495, Note_on_c, 2, 54, 37
1, 26495, Note_off_c, 9, 42, 64
1, 26495, Note_off_c, 9, 35, 64
1, 26497, Note_on_c, 0, 78, 109
1, 26500, Note_on_c, 2, 58, 25
1, 26504, Note_off_c, 0, 70, 64
1, 26519, Note_on_c, 9, 42, 71
1, 26520, Note_off_c, 9, 42, 64
1, 26534, Note_off_c, 2, 70, 64
1, 26541, Note_off_c, 2, 66, 64
1, 26542, Note_on_c, 2, 66, 66
1, 26543, Note_on_c, 2, 70, 81
1, 26543, Note_on_c, 9, 42, 73
1, 26544, Note_off_c, 9, 42, 64
1, 26567, Note_on_c, 9, 42, 71
1, 26568, Note_off_c, 9, 42, 64
1, 26586, Note_off_c, 2, 61, 64
1, 26591, Note_on_c, 0, 73, 94
1, 26591, Note_on_c, 9, 37, 126
1, 26591, Note_on_c, 9, 42, 80
1, 26592, Note_off_c, 9, 42, 64
1, 26592, Note_off_c, 9, 37, 64
1, 26595, Note_on_c, 2, 61, 51
1, 26596, Note_off_c, 0, 78, 64
1, 26615, Note_on_c, 9, 42, 69
1, 26616, Note_off_c, 9, 42, 64
1, 26627, Note_off_c, 1, 42, 64
1, 26629, Note_off_c, 2, 58, 64
1, 26637, Note_off_c, 2, 54, 64
1, 26638, Note_on_c, 2, 54, 44
1, 26639, Note_on_c, 1, 42, 112
1, 26639, Note_on_c, 9, 42, 71
1, 26640, Note_on_c, 2, 58, 54
1, 26640, Note_off_c, 9, 42, 64
1, 26640, Note_on_c, 9, 35, 115
1, 26641, Note_on_c, 0, 70, 92
1, 26641, Note_off_c, 9, 35, 64
1, 26646, Note_off_c, 0, 73, 64
1, 26662, Note_on_c, 9, 42, 73
1, 26663, Note_off_c, 9, 42, 64
1, 26678, Note_off_c, 1, 42, 64
1, 26678, Note_off_c, 2, 54, 64
1, 26686, Note_off_c, 2, 58, 64
1, 26687, Note_on_c, 1, 42, 108
1, 26687, Note_on_c, 2, 58, 46
1, 26687, Note_on_c, 9, 35, 123
1, 26687, Note_on_c, 9, 42, 77
1, 26688, Note_on_c, 0, 78, 98
1, 26688, Note_on_c, 2, 54, 66
1, 26688, Note_off_c, 9, 42, 64
1, 26688, Note_off_c, 9, 35, 64
1, 26696, Note_off_c, 0, 70, 64
1, 26710, Note_off_c, 4, 82, 64
1, 26710, Note_off_c, 4, 78, 64
1, 26710, Note_on_c, 9, 42, 70
1, 26711, Note_off_c, 9, 42, 64
1, 26714, Note_off_c, 3, 78, 64
1, 26724, Note_off_c, 2, 70, 64
1, 26734, Note_off_c, 2, 66, 64
1, 26735, Note_on_c, 2, 66, 67
1, 26735, Note_on_c, 9, 42, 71
1, 26736, Note_on_c, 2, 70, 81
1, 26736, Note_off_c, 9, 42, 64
1, 26759, Note_on_c, 9, 42, 70
1, 26760, Note_off_c, 9, 42, 64
1, 26771, Note_off_c, 2, 66, 64
1, 26779, Note_on_c, 0, 73, 94
1, 26782, Note_on_c, 2, 66, 80
1, 26783, Note_off_c, 0, 78, 64
1, 26783, Note_off_c, 2, 61, 64
1, 26783, Note_on_c, 9, 37, 121
1, 26783, Note_on_c, 9, 42, 78
1, 26784, Note_off_c, 9, 42, 64
1, 26784, Note_off_c, 9, 37, 64
1, 26785, Note_on_c, 2, 61, 48
1, 26807, Note_on_c, 9, 42, 75
1, 26808, Note_off_c, 9, 42, 64
1, 26810, Note_off_c, 1, 42, 64
1, 26824, Note_off_c, 2, 58, 64
1, 26828, Note_on_c, 0, 70, 91
1, 26828, Note_on_c, 3, 85, 105
1, 26829, Note_on_c, 1, 42, 110
1, 26830, Note_on_c, 4, 75, 97
1, 26830, Note_on_c, 4, 82, 102
1, 26831, Note_on_c, 9, 42, 73
1, 26832, Note_on_c, 2, 58, 57
1, 26832, Note_off_c, 9, 42, 64
1, 26833, Note_on_c, 9, 35, 110
1, 26834, Note_off_c, 9, 35, 64
1, 26835, Note_off_c, 0, 73, 64
1, 26854, Note_on_c, 9, 42, 72
1, 26855, Note_off_c, 9, 42, 64
1, 26870, Note_off_c, 2, 54, 64
1, 26871, Note_off_c, 3, 85, 64
1, 26875, Note_on_c, 3, 84, 98
1, 26877, Note_off_c, 1, 42, 64
1, 26877, Note_off_c, 2, 58, 64
1, 26877, Note_on_c, 2, 54, 64
1, 26878, Note_on_c, 0, 78, 102
1, 26878, Note_on_c, 1, 41, 110
1, 26878, Note_on_c, 2, 58, 51
1, 26878, Note_off_c, 4, 82, 64
1, 26878, Note_off_c, 4, 75, 64
1, 26878, Note_on_c, 4, 80, 100
1, 26878, Note_on_c, 9, 42, 78
1, 26879, Note_off_c, 9, 42, 64
1, 26880, Note_on_c, 9, 35, 121
1, 26881, Note_off_c, 0, 70, 64
1, 26881, Note_off_c, 9, 35, 64
1, 26902, Note_on_c, 9, 42, 73
1, 26903, Note_off_c, 9, 42, 64
1, 26918, Note_off_c, 3, 84, 64
1, 26919, Note_off_c, 2, 66, 64
1, 26919, Note_on_c, 3, 85, 98
1, 26926, Note_off_c, 2, 61, 64
1, 26926, Note_on_c, 2, 66, 77
1, 26926, Note_off_c, 4, 80, 64
1, 26926, Note_on_c, 4, 78, 99
1, 26926, Note_on_c, 4, 82, 94
1, 26927, Note_on_c, 2, 61, 43
1, 26927, Note_on_c, 9, 42, 75
1, 26928, Note_off_c, 9, 42, 64
1, 26950, Note_on_c, 9, 42, 73
1, 26951, Note_off_c, 9, 42, 64
1, 26967, Note_on_c, 3, 84, 102
1, 26968, Note_off_c, 2, 58, 64
1, 26970, Note_off_c, 3, 85, 64
1, 26971, Note_off_c, 2, 61, 64
1, 26973, Note_off_c, 1, 41, 64
1, 26973, Note_on_c, 2, 58, 58
1, 26974, Note_on_c, 0, 73, 91
1, 26974, Note_on_c, 1, 39, 108
1, 26974, Note_off_c, 4, 82, 64
1, 26974, Note_off_c, 4, 78, 64
1, 26974, Note_on_c, 4, 80, 102
1, 26974, Note_on_c, 4, 77, 97
1, 26975, Note_on_c, 9, 37, 126
1, 26975, Note_on_c, 9, 42, 77
1, 26976, Note_off_c, 0, 78, 64
1, 26976, Note_on_c, 2, 61, 39
1, 26976, Note_off_c, 9, 42, 64
1, 26976, Note_off_c, 9, 37, 64
1, 26998, Note_on_c, 9, 42, 81
1, 26999, Note_off_c, 9, 42, 64
1, 27015, Note_off_c, 3, 84, 64
1, 27018, Note_on_c, 3, 82, 99
1, 27019, Note_off_c, 2, 66, 64
1, 27020, Note_on_c, 0, 70, 91
1, 27020, Note_off_c, 2, 61, 64
1, 27021, Note_on_c, 2, 66, 77
1, 27022, Note_off_c, 0, 73, 64
1, 27022, Note_on_c, 2, 61, 39
1, 27022, Note_off_c, 4, 77, 64
1, 27022, Note_off_c, 4, 80, 64
1, 27022, Note_on_c, 4, 75, 101
1, 27022, Note_on_c, 4, 78, 99
1, 27022, Note_on_c, 9, 46, 74
1, 27023, Note_off_c, 9, 46, 64
1, 27024, Note_on_c, 9, 35, 113
1, 27025, Note_off_c, 9, 35, 64
1, 27058, Note_off_c, 3, 82, 64
1, 27063, Note_off_c, 2, 54, 64
1, 27064, Note_off_c, 2, 61, 64
1, 27064, Note_on_c, 7, 77, 86
1, 27065, Note_off_c, 0, 70, 64
1, 27066, Note_off_c, 2, 70, 64
1, 27066, Note_on_c, 3, 79, 93
1, 27066, Note_off_c, 7, 78, 64
1, 27068, Note_off_c, 2, 66, 64
1, 27069, Note_off_c, 4, 75, 64
1, 27070, Note_off_c, 1, 39, 64
1, 27070, Note_off_c, 4, 78, 64
1, 27070, Note_on_c, 4, 73, 90
1, 27070, Note_on_c, 4, 75, 98
1, 27071, Note_on_c, 1, 37, 107
1, 27071, Note_on_c, 9, 35, 123
1, 27071, Note_on_c, 9, 42, 76
1, 27072, Note_on_c, 0, 61, 101
1, 27072, Note_on_c, 2, 56, 66
1, 27072, Note_on_c, 2, 61, 69
1, 27072, Note_off_c, 8, 66, 64
1, 27072, Note_off_c, 8, 58, 64
1, 27072, Note_on_c, 8, 65, 88
1, 27072, Note_on_c, 8, 56, 85
1, 27072, Note_off_c, 9, 42, 64
1, 27072, Note_off_c, 9, 35, 64
1, 27073, Note_off_c, 2, 58, 64
1, 27075, Note_on_c, 2, 65, 59
1, 27095, Note_on_c, 9, 42, 70
1, 27096, Note_off_c, 9, 42, 64
1, 27115, Note_off_c, 2, 65, 64
1, 27117, Note_on_c, 0, 65, 84
1, 27118, Note_on_c, 9, 42, 75
1, 27119, Note_off_c, 9, 42, 64
1, 27122, Note_on_c, 2, 65, 44
1, 27137, Note_off_c, 3, 79, 64
1, 27139, Note_on_c, 3, 80, 102
1, 27141, Note_off_c, 4, 73, 64
1, 27142, Note_off_c, 4, 75, 64
1, 27142, Note_on_c, 4, 77, 95
1, 27142, Note_on_c, 4, 73, 90
1, 27142, Note_on_c, 9, 42, 74
1, 27143, Note_off_c, 9, 42, 64
1, 27159, Note_off_c, 2, 61, 64
1, 27163, Note_on_c, 0, 68, 91
1, 27166, Note_on_c, 9, 37, 123
1, 27166, Note_on_c, 9, 42, 78
1, 27167, Note_off_c, 9, 42, 64
1, 27167, Note_off_c, 9, 37, 64
1, 27168, Note_on_c, 2, 61, 43
1, 27172, Note_off_c, 0, 65, 64
1, 27190, Note_on_c, 9, 42, 71
1, 27191, Note_off_c, 9, 42, 64
1, 27199, Note_off_c, 1, 37, 64
1, 27204, Note_off_c, 2, 56, 64
1, 27207, Note_off_c, 3, 80, 64
1, 27208, Note_off_c, 2, 61, 64
1, 27209, Note_on_c, 3, 80, 102
1, 27213, Note_on_c, 2, 61, 57
1, 27213, Note_off_c, 4, 73, 64
1, 27213, Note_off_c, 4, 77, 64
1, 27213, Note_on_c, 9, 42, 72
1, 27214, Note_on_c, 4, 77, 97
1, 27214, Note_on_c, 4, 73, 90
1, 27214, Note_off_c, 9, 42, 64
1, 27215, Note_on_c, 0, 65, 83
1, 27215, Note_on_c, 1, 37, 107
1, 27215, Note_on_c, 9, 35, 108
1, 27216, Note_off_c, 9, 35, 64
1, 27218, Note_on_c, 2, 56, 58
1, 27221, Note_off_c, 0, 68, 64
1, 27237, Note_on_c, 9, 42, 71
1, 27238, Note_off_c, 9, 42, 64
1, 27252, Note_off_c, 2, 56, 64
1, 27254, Note_off_c, 1, 37, 64
1, 27260, Note_off_c, 2, 61, 64
1, 27261, Note_on_c, 2, 56, 60
1, 27262, Note_off_c, 2, 65, 64
1, 27262, Note_on_c, 2, 61, 57
1, 27262, Note_on_c, 9, 42, 77
1, 27263, Note_on_c, 0, 68, 97
1, 27263, Note_on_c, 1, 37, 108
1, 27263, Note_off_c, 9, 42, 64
1, 27263, Note_on_c, 9, 35, 115
1, 27264, Note_off_c, 9, 35, 64
1, 27285, Note_on_c, 9, 42, 70
1, 27286, Note_off_c, 9, 42, 64
1, 27310, Note_on_c, 9, 42, 73
1, 27311, Note_off_c, 9, 42, 64
1, 27313, Note_on_c, 2, 68, 85
1, 27314, Note_on_c, 2, 65, 30
1, 27334, Note_on_c, 9, 42, 68
1, 27335, Note_off_c, 9, 42, 64
1, 27348, Note_off_c, 2, 65, 64
1, 27358, Note_on_c, 9, 42, 78
1, 27359, Note_off_c, 2, 61, 64
1, 27359, Note_on_c, 2, 65, 80
1, 27359, Note_off_c, 9, 42, 64
1, 27359, Note_on_c, 9, 37, 124
1, 27360, Note_off_c, 9, 37, 64
1, 27361, Note_on_c, 0, 77, 123
1, 27362, Note_on_c, 2, 61, 29
1, 27373, Note_off_c, 0, 65, 64
1, 27376, Note_off_c, 0, 61, 64
1, 27376, Note_off_c, 0, 68, 64
1, 27382, Note_on_c, 9, 42, 73
1, 27383, Note_off_c, 9, 42, 64
1, 27386, Note_on_c, 0, 75, 95
1, 27391, Note_off_c, 1, 37, 64
1, 27392, Note_off_c, 2, 61, 64
1, 27394, Note_off_c, 0, 77, 64
1, 27405, Note_off_c, 2, 56, 64
1, 27406, Note_on_c, 1, 37, 108
1, 27406, Note_on_c, 2, 61, 68
1, 27406, Note_on_c, 2, 56, 47
1, 27406, Note_on_c, 9, 42, 73
1, 27407, Note_off_c, 9, 42, 64
1, 27407, Note_on_c, 9, 35, 115
1, 27408, Note_off_c, 9, 35, 64
1, 27411, Note_on_c, 0, 73, 101
1, 27416, Note_off_c, 0, 75, 64
1, 27430, Note_on_c, 9, 42, 70
1, 27431, Note_off_c, 9, 42, 64
1, 27447, Note_off_c, 1, 37, 64
1, 27448, Note_off_c, 2, 56, 64
1, 27453, Note_off_c, 2, 61, 64
1, 27453, Note_off_c, 2, 65, 64
1, 27454, Note_off_c, 0, 73, 64
1, 27454, Note_on_c, 2, 61, 56
1, 27454, Note_on_c, 2, 56, 53
1, 27454, Note_on_c, 2, 65, 57
1, 27454, Note_off_c, 4, 73, 64
1, 27454, Note_on_c, 9, 42, 76
1, 27455, Note_on_c, 1, 37, 109
1, 27455, Note_off_c, 9, 42, 64
1, 27455, Note_on_c, 9, 35, 127
1, 27456, Note_on_c, 0, 65, 97
1, 27456, Note_off_c, 9, 35, 64
1, 27464, Note_off_c, 3, 80, 64
1, 27466, Note_off_c, 4, 77, 64
1, 27478, Note_on_c, 9, 42, 64
1, 27479, Note_off_c, 9, 42, 64
1, 27494, Note_off_c, 2, 68, 64
1, 27500, Note_on_c, 0, 73, 106
1, 27502, Note_off_c, 2, 65, 64
1, 27502, Note_on_c, 2, 68, 84
1, 27503, Note_on_c, 2, 65, 75
1, 27503, Note_on_c, 9, 42, 76
1, 27504, Note_off_c, 9, 42, 64
1, 27521, Note_off_c, 0, 65, 64
1, 27527, Note_on_c, 9, 42, 76
1, 27528, Note_off_c, 9, 42, 64
1, 27543, Note_off_c, 2, 61, 64
1, 27549, Note_on_c, 2, 61, 70
1, 27550, Note_off_c, 2, 65, 64
1, 27551, Note_on_c, 2, 65, 46
1, 27551, Note_on_c, 9, 42, 82
1, 27552, Note_off_c, 9, 42, 64
1, 27553, Note_on_c, 0, 68, 101
1, 27553, Note_on_c, 9, 37, 124
1, 27554, Note_off_c, 9, 37, 64
1, 27575, Note_on_c, 9, 46, 79
1, 27576, Note_off_c, 9, 46, 64
1, 27585, Note_off_c, 1, 37, 64
1, 27597, Note_off_c, 2, 61, 64
1, 27598, Note_off_c, 0, 73, 64
1, 27599, Note_on_c, 1, 37, 110
1, 27599, Note_on_c, 2, 61, 48
1, 27599, Note_on_c, 9, 35, 120
1, 27599, Note_on_c, 9, 42, 77
1, 27600, Note_off_c, 9, 42, 64
1, 27600, Note_off_c, 9, 35, 64
1, 27604, Note_on_c, 0, 65, 102
1, 27608, Note_off_c, 0, 68, 64
1, 27623, Note_on_c, 9, 42, 76
1, 27624, Note_off_c, 9, 42, 64
1, 27630, Note_off_c, 1, 37, 64
1, 27640, Note_off_c, 0, 65, 64
1, 27642, Note_off_c, 2, 56, 64
1, 27645, Note_on_c, 4, 73, 93
1, 27645, Note_on_c, 4, 77, 97
1, 27646, Note_on_c, 2, 56, 61
1, 27646, Note_on_c, 9, 42, 75
1, 27647, Note_on_c, 1, 37, 115
1, 27647, Note_off_c, 2, 61, 64
1, 27647, Note_off_c, 9, 42, 64
1, 27647, Note_on_c, 9, 35, 127
1, 27648, Note_on_c, 0, 73, 113
1, 27648, Note_on_c, 2, 61, 52
1, 27648, Note_off_c, 9, 35, 64
1, 27649, Note_on_c, 3, 73, 105
1, 27650, Note_on_c, 0, 65, 97
1, 27669, Note_on_c, 9, 42, 72
1, 27670, Note_off_c, 9, 42, 64
1, 27684, Note_off_c, 2, 68, 64
1, 27686, Note_off_c, 0, 65, 64
1, 27687, Note_off_c, 0, 73, 64
1, 27692, Note_off_c, 4, 77, 64
1, 27692, Note_off_c, 4, 73, 64
1, 27693, Note_on_c, 2, 68, 73
1, 27693, Note_on_c, 4, 73, 100
1, 27693, Note_on_c, 4, 77, 95
1, 27694, Note_off_c, 3, 73, 64
1, 27694, Note_on_c, 9, 42, 78
1, 27695, Note_on_c, 3, 73, 106
1, 27695, Note_off_c, 9, 42, 64
1, 27697, Note_on_c, 0, 73, 103
1, 27698, Note_on_c, 0, 65, 111
1, 27718, Note_on_c, 9, 42, 74
1, 27719, Note_off_c, 9, 42, 64
1, 27719, Note_on_c, 9, 35, 121
1, 27720, Note_off_c, 9, 35, 64
1, 27727, Note_off_c, 2, 65, 64
1, 27736, Note_off_c, 3, 73, 64
1, 27739, Note_on_c, 3, 75, 106
1, 27740, Note_on_c, 2, 65, 80
1, 27741, Note_off_c, 4, 77, 64
1, 27741, Note_off_c, 4, 73, 64
1, 27741, Note_on_c, 4, 78, 99
1, 27741, Note_on_c, 4, 75, 99
1, 27742, Note_on_c, 9, 42, 82
1, 27743, Note_off_c, 9, 42, 64
1, 27743, Note_on_c, 9, 37, 118
1, 27744, Note_off_c, 9, 37, 64
1, 27745, Note_on_c, 0, 75, 111
1, 27745, Note_on_c, 0, 66, 103
1, 27748, Note_off_c, 0, 73, 64
1, 27752, Note_off_c, 0, 65, 64
1, 27766, Note_on_c, 9, 42, 77
1, 27767, Note_off_c, 9, 42, 64
1, 27774, Note_off_c, 2, 61, 64
1, 27780, Note_off_c, 3, 75, 64
1, 27782, Note_off_c, 1, 37, 64
1, 27786, Note_on_c, 3, 77, 109
1, 27788, Note_off_c, 0, 75, 64
1, 27789, Note_on_c, 2, 61, 73
1, 27789, Note_off_c, 4, 75, 64
1, 27789, Note_off_c, 4, 78, 64
1, 27789, Note_on_c, 4, 77, 95
1, 27789, Note_on_c, 4, 80, 91
1, 27790, Note_on_c, 0, 77, 108
1, 27790, Note_off_c, 2, 56, 64
1, 27790, Note_on_c, 9, 35, 127
1, 27790, Note_on_c, 9, 42, 78
1, 27791, Note_on_c, 0, 68, 103
1, 27791, Note_on_c, 1, 39, 113
1, 27791, Note_off_c, 9, 42, 64
1, 27791, Note_off_c, 9, 35, 64
1, 27792, Note_on_c, 2, 56, 30
1, 27794, Note_off_c, 0, 66, 64
1, 27807, Note_off_c, 2, 68, 64
1, 27811, Note_off_c, 2, 65, 64
1, 27812, Note_off_c, 2, 61, 64
1, 27814, Note_off_c, 1, 39, 64
1, 27814, Note_on_c, 9, 42, 78
1, 27815, Note_on_c, 1, 41, 110
1, 27815, Note_off_c, 2, 56, 64
1, 27815, Note_off_c, 9, 42, 64
1, 27830, Note_off_c, 0, 77, 64
1, 27833, Note_on_c, 7, 78, 86
1, 27834, Note_off_c, 0, 68, 64
1, 27834, Note_off_c, 3, 77, 64
1, 27834, Note_off_c, 7, 77, 64
1, 27836, Note_off_c, 4, 80, 64
1, 27836, Note_off_c, 4, 77, 64
1, 27837, Note_on_c, 0, 42, 105
1, 27837, Note_on_c, 4, 77, 99
1, 27837, Note_on_c, 4, 80, 103
1, 27838, Note_on_c, 9, 46, 67
1, 27839, Note_off_c, 1, 41, 64
1, 27839, Note_off_c, 9, 46, 64
1, 27839, Note_on_c, 9, 35, 121
1, 27840, Note_on_c, 0, 54, 95
1, 27840, Note_off_c, 8, 56, 64
1, 27840, Note_off_c, 8, 65, 64
1, 27840, Note_on_c, 8, 66, 89
1, 27840, Note_on_c, 8, 58, 80
1, 27840, Note_off_c, 9, 35, 64
1, 27841, Note_on_c, 1, 42, 108
1, 27841, Note_on_c, 3, 77, 109
1, 27842, Note_on_c, 2, 54, 78
1, 27843, Note_on_c, 0, 73, 102
1, 27843, Note_on_c, 0, 78, 109
1, 27843, Note_on_c, 2, 58, 44
1, 27864, Note_on_c, 9, 46, 65
1, 27865, Note_off_c, 9, 46, 64
1, 27885, Note_on_c, 2, 70, 75
1, 27886, Note_off_c, 1, 42, 64
1, 27886, Note_on_c, 2, 66, 75
1, 27887, Note_on_c, 1, 42, 113
1, 27889, Note_on_c, 0, 70, 73
1, 27889, Note_on_c, 2, 61, 30
1, 27889, Note_on_c, 9, 42, 70
1, 27890, Note_off_c, 9, 42, 64
1, 27898, Note_off_c, 0, 73, 64
1, 27903, Note_off_c, 0, 78, 64
1, 27905, Note_off_c, 3, 77, 64
1, 27906, Note_on_c, 3, 78, 100
1, 27909, Note_off_c, 4, 80, 64
1, 27909, Note_off_c, 4, 77, 64
1, 27909, Note_on_c, 4, 78, 101
1, 27909, Note_on_c, 4, 82, 95
1, 27913, Note_on_c, 9, 42, 69
1, 27914, Note_off_c, 9, 42, 64
1, 27914, Note_on_c, 9, 35, 115
1, 27915, Note_off_c, 9, 35, 64
1, 27931, Note_off_c, 2, 61, 64
1, 27933, Note_on_c, 2, 61, 44
1, 27936, Note_on_c, 0, 73, 95
1, 27936, Note_on_c, 0, 78, 97
1, 27937, Note_off_c, 0, 70, 64
1, 27937, Note_on_c, 9, 37, 120
1, 27937, Note_on_c, 9, 46, 71
1, 27938, Note_off_c, 9, 46, 64
1, 27938, Note_off_c, 9, 37, 64
1, 27960, Note_on_c, 9, 46, 64
1, 27961, Note_off_c, 9, 46, 64
1, 27971, Note_off_c, 2, 58, 64
1, 27978, Note_off_c, 3, 78, 64
1, 27980, Note_on_c, 3, 78, 103
1, 27980, Note_off_c, 4, 82, 64
1, 27980, Note_off_c, 4, 78, 64
1, 27981, Note_off_c, 1, 42, 64
1, 27981, Note_on_c, 2, 58, 50
1, 27981, Note_on_c, 4, 82, 98
1, 27981, Note_on_c, 4, 78, 100
1, 27983, Note_on_c, 1, 42, 108
1, 27983, Note_on_c, 9, 35, 118
1, 27984, Note_off_c, 9, 35, 64
1, 27985, Note_on_c, 0, 70, 65
1, 27985, Note_on_c, 9, 42, 69
1, 27986, Note_off_c, 9, 42, 64
1, 27992, Note_off_c, 0, 78, 64
1, 27993, Note_off_c, 0, 73, 64
1, 28007, Note_on_c, 9, 42, 69
1, 28008, Note_off_c, 9, 42, 64
1, 28025, Note_off_c, 2, 54, 64
1, 28029, Note_on_c, 0, 73, 97
1, 28029, Note_on_c, 0, 78, 98
1, 28030, Note_off_c, 1, 42, 64
1, 28030, Note_on_c, 2, 54, 70
1, 28031, Note_on_c, 1, 42, 111
1, 28031, Note_on_c, 9, 35, 127
1, 28031, Note_on_c, 9, 46, 75
1, 28032, Note_off_c, 9, 46, 64
1, 28032, Note_off_c, 9, 35, 64
1, 28033, Note_off_c, 0, 70, 64
1, 28033, Note_off_c, 2, 58, 64
1, 28055, Note_on_c, 9, 46, 70
1, 28056, Note_off_c, 9, 46, 64
1, 28071, Note_off_c, 2, 70, 64
1, 28077, Note_on_c, 2, 70, 81
1, 28078, Note_off_c, 2, 66, 64
1, 28079, Note_on_c, 2, 66, 66
1, 28080, Note_on_c, 0, 70, 65
1, 28080, Note_on_c, 9, 42, 68
1, 28081, Note_off_c, 9, 42, 64
1, 28089, Note_off_c, 0, 78, 64
1, 28091, Note_off_c, 0, 73, 64
1, 28104, Note_on_c, 9, 35, 120
1, 28104, Note_on_c, 9, 42, 69
1, 28105, Note_off_c, 9, 42, 64
1, 28105, Note_off_c, 9, 35, 64
1, 28118, Note_off_c, 2, 66, 64
1, 28126, Note_on_c, 2, 66, 77
1, 28127, Note_on_c, 9, 37, 121
1, 28127, Note_on_c, 9, 46, 75
1, 28128, Note_on_c, 0, 73, 98
1, 28128, Note_off_c, 9, 46, 64
1, 28128, Note_off_c, 9, 37, 64
1, 28129, Note_on_c, 0, 78, 102
1, 28130, Note_off_c, 2, 61, 64
1, 28133, Note_off_c, 0, 70, 64
1, 28151, Note_on_c, 9, 46, 73
1, 28152, Note_off_c, 9, 46, 64
1, 28173, Note_off_c, 1, 42, 64
1, 28174, Note_on_c, 0, 70, 57
1, 28175, Note_on_c, 9, 35, 114
1, 28175, Note_on_c, 9, 42, 69
1, 28176, Note_on_c, 1, 34, 110
1, 28176, Note_off_c, 9, 42, 64
1, 28176, Note_off_c, 9, 35, 64
1, 28177, Note_on_c, 2, 61, 63
1, 28179, Note_off_c, 0, 78, 64
1, 28185, Note_off_c, 0, 73, 64
1, 28187, Note_off_c, 0, 42, 64
1, 28190, Note_off_c, 0, 54, 64
1, 28198, Note_off_c, 1, 34, 64
1, 28199, Note_on_c, 1, 37, 110
1, 28199, Note_on_c, 9, 42, 69
1, 28200, Note_off_c, 9, 42, 64
1, 28218, Note_off_c, 2, 54, 64
1, 28219, Note_on_c, 0, 42, 102
1, 28221, Note_on_c, 0, 54, 106
1, 28221, Note_on_c, 0, 73, 97
1, 28222, Note_on_c, 0, 78, 101
1, 28222, Note_on_c, 2, 54, 72
1, 28222, Note_on_c, 9, 46, 72
1, 28223, Note_off_c, 9, 46, 64
1, 28223, Note_on_c, 9, 35, 127
1, 28224, Note_on_c, 2, 58, 55
1, 28224, Note_off_c, 9, 35, 64
1, 28225, Note_off_c, 1, 37, 64
1, 28226, Note_off_c, 0, 70, 64
1, 28226, Note_on_c, 1, 42, 108
1, 28226, Note_off_c, 2, 61, 64
1, 28246, Note_on_c, 9, 46, 69
1, 28247, Note_off_c, 9, 46, 64
1, 28264, Note_off_c, 2, 66, 64
1, 28268, Note_on_c, 0, 70, 61
1, 28270, Note_on_c, 2, 66, 80
1, 28271, Note_on_c, 9, 42, 67
1, 28272, Note_off_c, 9, 42, 64
1, 28273, Note_on_c, 2, 61, 35
1, 28277, Note_off_c, 0, 78, 64
1, 28278, Note_off_c, 0, 73, 64
1, 28295, Note_on_c, 9, 42, 69
1, 28296, Note_off_c, 9, 42, 64
1, 28296, Note_on_c, 9, 35, 121
1, 28297, Note_off_c, 9, 35, 64
1, 28313, Note_off_c, 2, 58, 64
1, 28316, Note_on_c, 0, 73, 95
1, 28317, Note_on_c, 0, 78, 97
1, 28318, Note_off_c, 2, 61, 64
1, 28318, Note_on_c, 2, 58, 45
1, 28319, Note_on_c, 9, 46, 70
1, 28320, Note_on_c, 2, 61, 49
1, 28320, Note_off_c, 9, 46, 64
1, 28320, Note_on_c, 9, 37, 120
1, 28321, Note_off_c, 0, 70, 64
1, 28321, Note_off_c, 9, 37, 64
1, 28325, Note_off_c, 3, 78, 64
1, 28329, Note_off_c, 4, 78, 64
1, 28329, Note_off_c, 4, 82, 64
1, 28342, Note_on_c, 9, 46, 70
1, 28343, Note_off_c, 9, 46, 64
1, 28357, Note_off_c, 2, 70, 64
1, 28364, Note_off_c, 1, 42, 64
1, 28364, Note_off_c, 2, 66, 64
1, 28365, Note_on_c, 2, 70, 72
1, 28366, Note_on_c, 2, 66, 56
1, 28367, Note_on_c, 1, 42, 106
1, 28367, Note_on_c, 9, 35, 127
1, 28367, Note_on_c, 9, 42, 74
1, 28368, Note_on_c, 0, 70, 69
1, 28368, Note_off_c, 9, 42, 64
1, 28368, Note_off_c, 9, 35, 64
1, 28371, Note_off_c, 0, 78, 64
1, 28378, Note_off_c, 0, 73, 64
1, 28389, Note_on_c, 9, 38, 70
1, 28390, Note_off_c, 9, 38, 64
1, 28393, Note_on_c, 9, 38, 78
1, 28394, Note_off_c, 9, 38, 64
1, 28401, Note_on_c, 9, 38, 102
1, 28402, Note_off_c, 9, 38, 64
1, 28404, Note_off_c, 2, 54, 64
1, 28411, Note_on_c, 9, 38, 104
1, 28412, Note_off_c, 8, 66, 64
1, 28412, Note_off_c, 9, 38, 64
1, 28413, Note_on_c, 0, 73, 101
1, 28413, Note_on_c, 2, 54, 68
1, 28413, Note_on_c, 9, 45, 91
1, 28414, Note_on_c, 0, 78, 103
1, 28414, Note_off_c, 9, 45, 64
1, 28415, Note_off_c, 8, 58, 64
1, 28416, Note_off_c, 1, 42, 64
1, 28416, Note_on_c, 8, 58, 79
1, 28416, Note_on_c, 8, 66, 89
1, 28417, Note_off_c, 0, 70, 64
1, 28417, Note_on_c, 1, 42, 109
1, 28434, Note_on_c, 9, 45, 99
1, 28435, Note_off_c, 9, 45, 64
1, 28456, Note_off_c, 2, 70, 64
1, 28457, Note_off_c, 2, 66, 64
1, 28458, Note_on_c, 9, 38, 98
1, 28459, Note_off_c, 9, 38, 64
1, 28462, Note_on_c, 0, 70, 79
1, 28462, Note_on_c, 2, 70, 80
1, 28463, Note_off_c, 0, 78, 64
1, 28463, Note_off_c, 1, 42, 64
1, 28463, Note_off_c, 8, 66, 64
1, 28463, Note_off_c, 8, 58, 64
1, 28464, Note_on_c, 1, 42, 106
1, 28464, Note_on_c, 8, 58, 80
1, 28464, Note_on_c, 8, 66, 89
1, 28465, Note_on_c, 2, 66, 78
1, 28469, Note_off_c, 0, 73, 64
1, 28482, Note_on_c, 9, 43, 103
1, 28483, Note_off_c, 9, 43, 64
1, 28503, Note_off_c, 2, 61, 64
1, 28503, Note_on_c, 7, 80, 91
1, 28508, Note_off_c, 7, 78, 64
1, 28509, Note_off_c, 1, 42, 64
1, 28509, Note_on_c, 9, 45, 102
1, 28510, Note_off_c, 0, 70, 64
1, 28510, Note_on_c, 0, 75, 101
1, 28510, Note_on_c, 2, 63, 69
1, 28510, Note_off_c, 9, 45, 64
1, 28511, Note_on_c, 1, 44, 108
1, 28512, Note_on_c, 0, 80, 102
1, 28512, Note_off_c, 8, 58, 64
1, 28512, Note_on_c, 8, 68, 94
1, 28512, Note_on_c, 8, 60, 94
1, 28515, Note_off_c, 8, 66, 64
1, 28531, Note_on_c, 9, 45, 102
1, 28532, Note_off_c, 9, 45, 64
1, 28552, Note_off_c, 2, 58, 64
1, 28556, Note_off_c, 8, 68, 64
1, 28557, Note_on_c, 2, 60, 72
1, 28558, Note_off_c, 1, 44, 64
1, 28558, Note_off_c, 8, 60, 64
1, 28558, Note_on_c, 9, 41, 110
1, 28559, Note_on_c, 1, 44, 109
1, 28559, Note_on_c, 2, 56, 38
1, 28559, Note_off_c, 9, 41, 64
1, 28560, Note_off_c, 2, 54, 64
1, 28560, Note_on_c, 8, 68, 94
1, 28560, Note_on_c, 8, 60, 94
1, 28563, Note_on_c, 0, 72, 87
1, 28569, Note_off_c, 0, 75, 64
1, 28572, Note_off_c, 0, 80, 64
1, 28582, Note_on_c, 9, 41, 109
1, 28583, Note_off_c, 9, 41, 64
1, 28585, Note_off_c, 0, 54, 64
1, 28588, Note_off_c, 2, 66, 64
1, 28590, Note_off_c, 0, 42, 64
1, 28598, Note_off_c, 2, 63, 64
1, 28599, Note_off_c, 0, 72, 64
1, 28600, Note_off_c, 2, 60, 64
1, 28603, Note_off_c, 2, 70, 64
1, 28604, Note_on_c, 2, 58, 64
1, 28604, Note_on_c, 7, 82, 91
1, 28605, Note_on_c, 4, 75, 101
1, 28605, Note_on_c, 4, 78, 104
1, 28606, Note_on_c, 0, 58, 87
1, 28606, Note_off_c, 1, 44, 64
1, 28606, Note_off_c, 2, 56, 64
1, 28606, Note_on_c, 2, 61, 70
1, 28607, Note_on_c, 1, 46, 107
1, 28607, Note_on_c, 3, 75, 115
1, 28607, Note_on_c, 9, 35, 127
1, 28607, Note_on_c, 9, 49, 92
1, 28608, Note_on_c, 0, 75, 103
1, 28608, Note_on_c, 0, 78, 102
1, 28608, Note_on_c, 0, 82, 91
1, 28608, Note_on_c, 2, 65, 76
1, 28608, Note_off_c, 8, 60, 64
1, 28608, Note_off_c, 8, 68, 64
1, 28608, Note_on_c, 8, 61, 93
1, 28608, Note_on_c, 8, 70, 93
1, 28608, Note_off_c, 9, 49, 64
1, 28608, Note_off_c, 9, 35, 64
1, 28609, Note_off_c, 7, 80, 64
1, 28610, Note_on_c, 2, 70, 62
1, 28645, Note_off_c, 0, 58, 64
1, 28647, Note_off_c, 0, 75, 64
1, 28647, Note_off_c, 0, 82, 64
1, 28648, Note_off_c, 0, 78, 64
1, 28651, Note_on_c, 9, 55, 53
1, 28652, Note_off_c, 4, 78, 64
1, 28652, Note_off_c, 4, 75, 64
1, 28652, Note_off_c, 9, 55, 64
1, 28653, Note_off_c, 2, 58, 64
1, 28653, Note_off_c, 3, 75, 64
1, 28653, Note_on_c, 4, 75, 100
1, 28653, Note_on_c, 4, 78, 98
1, 28654, Note_on_c, 0, 58, 91
1, 28654, Note_off_c, 2, 61, 64
1, 28654, Note_on_c, 2, 58, 41
1, 28654, Note_on_c, 3, 75, 108
1, 28655, Note_on_c, 0, 75, 96
1, 28655, Note_on_c, 0, 78, 98
1, 28656, Note_off_c, 2, 65, 64
1, 28656, Note_on_c, 2, 61, 67
1, 28657, Note_on_c, 0, 82, 106
1, 28657, Note_off_c, 2, 70, 64
1, 28657, Note_on_c, 2, 65, 80
1, 28658, Note_on_c, 2, 70, 77
1, 28698, Note_off_c, 3, 75, 64
1, 28699, Note_on_c, 3, 75, 102
1, 28700, Note_off_c, 2, 58, 64
1, 28700, Note_off_c, 4, 78, 64
1, 28700, Note_off_c, 4, 75, 64
1, 28701, Note_on_c, 4, 75, 94
1, 28701, Note_on_c, 4, 78, 97
1, 28702, Note_on_c, 2, 58, 51
1, 28703, Note_off_c, 2, 61, 64
1, 28703, Note_on_c, 9, 37, 116
1, 28704, Note_off_c, 9, 37, 64
1, 28705, Note_off_c, 2, 65, 64
1, 28705, Note_on_c, 2, 61, 69
1, 28705, Note_on_c, 9, 42, 82
1, 28706, Note_off_c, 2, 70, 64
1, 28706, Note_on_c, 2, 65, 78
1, 28706, Note_off_c, 9, 42, 64
1, 28707, Note_on_c, 2, 70, 80
1, 28729, Note_on_c, 9, 42, 68
1, 28730, Note_off_c, 9, 42, 64
1, 28737, Note_off_c, 1, 46, 64
1, 28740, Note_off_c, 0, 82, 64
1, 28740, Note_off_c, 0, 78, 64
1, 28740, Note_off_c, 0, 75, 64
1, 28741, Note_off_c, 0, 58, 64
1, 28743, Note_off_c, 3, 75, 64
1, 28746, Note_on_c, 3, 75, 107
1, 28748, Note_off_c, 2, 58, 64
1, 28748, Note_off_c, 4, 78, 64
1, 28748, Note_off_c, 4, 75, 64
1, 28749, Note_on_c, 4, 75, 91
1, 28749, Note_on_c, 4, 78, 100
1, 28750, Note_on_c, 0, 75, 91
1, 28750, Note_on_c, 0, 78, 105
1, 28750, Note_on_c, 1, 46, 108
1, 28750, Note_on_c, 2, 58, 55
1, 28751, Note_on_c, 0, 82, 98
1, 28751, Note_on_c, 0, 58, 91
1, 28751, Note_on_c, 9, 42, 73
1, 28752, Note_off_c, 2, 61, 64
1, 28752, Note_off_c, 9, 42, 64
1, 28753, Note_off_c, 2, 65, 64
1, 28753, Note_on_c, 2, 61, 72
1, 28754, Note_off_c, 2, 70, 64
1, 28754, Note_on_c, 2, 65, 79
1, 28755, Note_on_c, 2, 70, 76
1, 28775, Note_on_c, 9, 35, 121
1, 28775, Note_on_c, 9, 42, 70
1, 28776, Note_off_c, 9, 42, 64
1, 28776, Note_off_c, 9, 35, 64
1, 28789, Note_off_c, 0, 58, 64
1, 28789, Note_off_c, 0, 75, 64
1, 28790, Note_off_c, 0, 82, 64
1, 28791, Note_off_c, 0, 78, 64
1, 28791, Note_off_c, 1, 46, 64
1, 28791, Note_off_c, 3, 75, 64
1, 28794, Note_on_c, 3, 75, 115
1, 28795, Note_off_c, 2, 58, 64
1, 28796, Note_off_c, 4, 78, 64
1, 28796, Note_off_c, 4, 75, 64
1, 28797, Note_on_c, 4, 75, 99
1, 28797, Note_on_c, 4, 78, 107
1, 28798, Note_on_c, 0, 58, 89
1, 28798, Note_on_c, 2, 58, 57
1, 28799, Note_on_c, 0, 78, 113
1, 28799, Note_on_c, 1, 46, 106
1, 28799, Note_on_c, 9, 35, 121
1, 28799, Note_on_c, 9, 42, 80
1, 28800, Note_on_c, 0, 75, 103
1, 28800, Note_on_c, 0, 82, 115
1, 28800, Note_off_c, 2, 61, 64
1, 28800, Note_off_c, 2, 65, 64
1, 28800, Note_off_c, 9, 42, 64
1, 28800, Note_off_c, 9, 35, 64
1, 28801, Note_on_c, 2, 61, 73
1, 28802, Note_off_c, 2, 70, 64
1, 28802, Note_on_c, 2, 65, 79
1, 28803, Note_on_c, 2, 70, 71
1, 28823, Note_on_c, 9, 42, 70
1, 28824, Note_off_c, 9, 42, 64
1, 28837, Note_off_c, 0, 82, 64
1, 28837, Note_off_c, 0, 75, 64
1, 28837, Note_off_c, 0, 78, 64
1, 28838, Note_off_c, 0, 58, 64
1, 28843, Note_off_c, 2, 58, 64
1, 28846, Note_on_c, 0, 75, 106
1, 28846, Note_on_c, 0, 78, 111
1, 28846, Note_on_c, 0, 58, 86
1, 28846, Note_on_c, 0, 82, 108
1, 28846, Note_off_c, 2, 61, 64
1, 28846, Note_on_c, 2, 58, 59
1, 28846, Note_on_c, 9, 42, 73
1, 28847, Note_off_c, 9, 42, 64
1, 28848, Note_off_c, 2, 65, 64
1, 28848, Note_on_c, 2, 61, 70
1, 28849, Note_off_c, 2, 70, 64
1, 28849, Note_on_c, 2, 65, 76
1, 28850, Note_on_c, 2, 70, 61
1, 28870, Note_on_c, 9, 42, 70
1, 28871, Note_off_c, 9, 42, 64
1, 28873, Note_on_c, 9, 35, 117
1, 28874, Note_off_c, 9, 35, 64
1, 28883, Note_off_c, 3, 75, 64
1, 28890, Note_off_c, 2, 58, 64
1, 28890, Note_on_c, 3, 77, 108
1, 28893, Note_on_c, 2, 58, 56
1, 28893, Note_off_c, 4, 78, 64
1, 28893, Note_off_c, 4, 75, 64
1, 28893, Note_on_c, 4, 80, 93
1, 28893, Note_on_c, 4, 77, 98
1, 28894, Note_off_c, 2, 61, 64
1, 28894, Note_on_c, 9, 42, 79
1, 28895, Note_off_c, 2, 70, 64
1, 28895, Note_off_c, 2, 65, 64
1, 28895, Note_on_c, 2, 61, 77
1, 28895, Note_off_c, 9, 42, 64
1, 28896, Note_on_c, 2, 65, 79
1, 28897, Note_on_c, 2, 70, 81
1, 28897, Note_on_c, 9, 37, 123
1, 28898, Note_off_c, 9, 37, 64
1, 28919, Note_on_c, 9, 42, 66
1, 28920, Note_off_c, 9, 42, 64
1, 28926, Note_off_c, 1, 46, 64
1, 28928, Note_off_c, 0, 58, 64
1, 28929, Note_off_c, 0, 75, 64
1, 28929, Note_off_c, 0, 78, 64
1, 28929, Note_off_c, 0, 82, 64
1, 28939, Note_off_c, 2, 58, 64
1, 28940, Note_on_c, 0, 58, 84
1, 28940, Note_off_c, 2, 61, 64
1, 28940, Note_on_c, 2, 58, 32
1, 28940, Note_off_c, 3, 77, 64
1, 28940, Note_off_c, 4, 77, 64
1, 28940, Note_off_c, 4, 80, 64
1, 28941, Note_on_c, 0, 75, 102
1, 28941, Note_on_c, 0, 78, 106
1, 28941, Note_on_c, 0, 82, 102
1, 28941, Note_on_c, 4, 80, 97
1, 28941, Note_on_c, 4, 77, 97
1, 28942, Note_on_c, 1, 46, 105
1, 28942, Note_on_c, 2, 61, 76
1, 28942, Note_on_c, 3, 75, 109
1, 28943, Note_off_c, 2, 65, 64
1, 28943, Note_on_c, 9, 42, 70
1, 28944, Note_on_c, 2, 65, 79
1, 28944, Note_off_c, 9, 42, 64
1, 28945, Note_off_c, 2, 70, 64
1, 28946, Note_on_c, 2, 70, 79
1, 28964, Note_on_c, 3, 73, 103
1, 28965, Note_off_c, 4, 77, 64
1, 28965, Note_off_c, 4, 80, 64
1, 28965, Note_on_c, 4, 75, 89
1, 28965, Note_on_c, 4, 78, 96
1, 28968, Note_on_c, 9, 42, 69
1, 28969, Note_off_c, 3, 75, 64
1, 28969, Note_off_c, 9, 42, 64
1, 28969, Note_on_c, 9, 35, 120
1, 28970, Note_off_c, 9, 35, 64
1, 28982, Note_off_c, 0, 82, 64
1, 28984, Note_off_c, 0, 78, 64
1, 28984, Note_off_c, 0, 75, 64
1, 28984, Note_off_c, 1, 46, 64
1, 28987, Note_on_c, 3, 70, 105
1, 28988, Note_off_c, 0, 58, 64
1, 28988, Note_off_c, 2, 61, 64
1, 28988, Note_off_c, 2, 58, 64
1, 28989, Note_on_c, 2, 56, 65
1, 28989, Note_off_c, 4, 78, 64
1, 28989, Note_off_c, 4, 75, 64
1, 28989, Note_on_c, 4, 77, 100
1, 28989, Note_on_c, 4, 73, 97
1, 28990, Note_on_c, 0, 73, 95
1, 28990, Note_on_c, 0, 77, 108
1, 28990, Note_on_c, 0, 82, 99
1, 28990, Note_on_c, 0, 56, 95
1, 28990, Note_on_c, 2, 61, 77
1, 28991, Note_on_c, 1, 44, 107
1, 28991, Note_off_c, 2, 65, 64
1, 28991, Note_off_c, 2, 70, 64
1, 28991, Note_off_c, 3, 73, 64
1, 28991, Note_on_c, 9, 35, 110
1, 28991, Note_on_c, 9, 42, 79
1, 28992, Note_on_c, 2, 65, 81
1, 28992, Note_off_c, 8, 70, 64
1, 28992, Note_off_c, 8, 61, 64
1, 28992, Note_on_c, 8, 56, 91
1, 28992, Note_on_c, 8, 68, 96
1, 28992, Note_off_c, 9, 42, 64
1, 28992, Note_off_c, 9, 35, 64
1, 28994, Note_on_c, 2, 70, 77
1, 29015, Note_on_c, 9, 42, 66
1, 29016, Note_off_c, 9, 42, 64
1, 29029, Note_off_c, 0, 77, 64
1, 29030, Note_off_c, 0, 73, 64
1, 29031, Note_off_c, 0, 82, 64
1, 29033, Note_off_c, 0, 56, 64
1, 29034, Note_off_c, 3, 70, 64
1, 29036, Note_off_c, 2, 56, 64
1, 29036, Note_off_c, 4, 73, 64
1, 29036, Note_off_c, 4, 77, 64
1, 29037, Note_on_c, 3, 70, 104
1, 29037, Note_on_c, 4, 77, 99
1, 29037, Note_on_c, 4, 73, 101
1, 29038, Note_on_c, 0, 77, 108
1, 29038, Note_on_c, 0, 73, 98
1, 29038, Note_on_c, 0, 82, 105
1, 29038, Note_off_c, 2, 61, 64
1, 29039, Note_on_c, 2, 56, 52
1, 29039, Note_on_c, 2, 61, 73
1, 29039, Note_on_c, 9, 42, 71
1, 29040, Note_on_c, 0, 56, 103
1, 29040, Note_off_c, 2, 65, 64
1, 29040, Note_off_c, 9, 42, 64
1, 29041, Note_off_c, 2, 70, 64
1, 29041, Note_on_c, 2, 65, 79
1, 29042, Note_on_c, 2, 70, 78
1, 29063, Note_on_c, 9, 42, 68
1, 29064, Note_off_c, 9, 42, 64
1, 29066, Note_on_c, 9, 35, 114
1, 29067, Note_off_c, 9, 35, 64
1, 29084, Note_off_c, 2, 56, 64
1, 29087, Note_on_c, 9, 42, 79
1, 29088, Note_off_c, 2, 61, 64
1, 29088, Note_off_c, 9, 42, 64
1, 29089, Note_off_c, 2, 65, 64
1, 29089, Note_on_c, 2, 61, 74
1, 29089, Note_on_c, 9, 37, 120
1, 29090, Note_off_c, 2, 70, 64
1, 29090, Note_on_c, 2, 56, 54
1, 29090, Note_on_c, 2, 65, 79
1, 29090, Note_off_c, 9, 37, 64
1, 29091, Note_on_c, 2, 70, 77
1, 29111, Note_on_c, 9, 42, 65
1, 29112, Note_off_c, 9, 42, 64
1, 29120, Note_off_c, 1, 44, 64
1, 29120, Note_off_c, 3, 70, 64
1, 29122, Note_off_c, 0, 82, 64
1, 29123, Note_off_c, 0, 77, 64
1, 29125, Note_off_c, 0, 73, 64
1, 29125, Note_off_c, 0, 56, 64
1, 29132, Note_off_c, 2, 56, 64
1, 29134, Note_on_c, 0, 77, 106
1, 29134, Note_on_c, 0, 73, 98
1, 29134, Note_on_c, 0, 82, 105
1, 29134, Note_on_c, 1, 44, 108
1, 29134, Note_off_c, 2, 61, 64
1, 29135, Note_on_c, 0, 56, 91
1, 29135, Note_on_c, 9, 42, 72
1, 29136, Note_off_c, 2, 65, 64
1, 29136, Note_off_c, 9, 42, 64
1, 29137, Note_off_c, 2, 70, 64
1, 29137, Note_on_c, 2, 56, 56
1, 29138, Note_on_c, 2, 65, 76
1, 29139, Note_on_c, 2, 70, 75
1, 29141, Note_on_c, 2, 61, 63
1, 29157, Note_off_c, 4, 73, 64
1, 29157, Note_off_c, 4, 77, 64
1, 29159, Note_on_c, 9, 35, 115
1, 29159, Note_on_c, 9, 42, 68
1, 29160, Note_off_c, 9, 42, 64
1, 29160, Note_off_c, 9, 35, 64
1, 29170, Note_off_c, 1, 44, 64
1, 29172, Note_off_c, 0, 73, 64
1, 29173, Note_off_c, 0, 82, 64
1, 29174, Note_off_c, 0, 77, 64
1, 29174, Note_off_c, 0, 56, 64
1, 29178, Note_off_c, 2, 56, 64
1, 29178, Note_on_c, 3, 70, 110
1, 29180, Note_off_c, 2, 61, 64
1, 29181, Note_on_c, 4, 73, 92
1, 29182, Note_on_c, 1, 44, 111
1, 29182, Note_on_c, 4, 82, 96
1, 29182, Note_on_c, 4, 61, 101
1, 29182, Note_on_c, 9, 35, 123
1, 29183, Note_on_c, 0, 56, 91
1, 29183, Note_on_c, 0, 77, 113
1, 29183, Note_on_c, 2, 61, 73
1, 29183, Note_off_c, 9, 35, 64
1, 29183, Note_on_c, 9, 42, 79
1, 29184, Note_on_c, 0, 73, 113
1, 29184, Note_on_c, 0, 82, 111
1, 29184, Note_off_c, 2, 70, 64
1, 29184, Note_off_c, 2, 65, 64
1, 29184, Note_off_c, 9, 42, 64
1, 29185, Note_on_c, 2, 56, 59
1, 29185, Note_on_c, 2, 65, 77
1, 29186, Note_on_c, 2, 70, 79
1, 29207, Note_on_c, 9, 42, 69
1, 29208, Note_off_c, 9, 42, 64
1, 29216, Note_off_c, 0, 73, 64
1, 29218, Note_off_c, 0, 82, 64
1, 29221, Note_off_c, 0, 77, 64
1, 29223, Note_off_c, 0, 56, 64
1, 29225, Note_off_c, 2, 56, 64
1, 29227, Note_off_c, 2, 61, 64
1, 29230, Note_on_c, 0, 73, 101
1, 29230, Note_on_c, 0, 77, 108
1, 29230, Note_on_c, 0, 56, 94
1, 29230, Note_on_c, 0, 82, 105
1, 29231, Note_off_c, 2, 65, 64
1, 29231, Note_on_c, 2, 56, 56
1, 29231, Note_on_c, 9, 42, 73
1, 29232, Note_off_c, 2, 70, 64
1, 29232, Note_on_c, 2, 65, 79
1, 29232, Note_off_c, 9, 42, 64
1, 29233, Note_on_c, 2, 61, 73
1, 29233, Note_on_c, 2, 70, 77
1, 29255, Note_on_c, 9, 35, 111
1, 29255, Note_on_c, 9, 42, 66
1, 29256, Note_off_c, 9, 42, 64
1, 29256, Note_off_c, 9, 35, 64
1, 29266, Note_off_c, 4, 82, 64
1, 29266, Note_on_c, 4, 77, 87
1, 29266, Note_on_c, 4, 70, 93
1, 29266, Note_on_c, 4, 85, 95
1, 29274, Note_off_c, 2, 56, 64
1, 29276, Note_off_c, 3, 70, 64
1, 29276, Note_on_c, 3, 73, 109
1, 29277, Note_off_c, 2, 61, 64
1, 29277, Note_on_c, 2, 56, 63
1, 29277, Note_off_c, 4, 73, 64
1, 29278, Note_off_c, 2, 65, 64
1, 29278, Note_on_c, 2, 61, 76
1, 29278, Note_off_c, 4, 61, 64
1, 29279, Note_off_c, 2, 70, 64
1, 29279, Note_on_c, 2, 65, 79
1, 29279, Note_on_c, 9, 37, 121
1, 29279, Note_on_c, 9, 42, 77
1, 29280, Note_off_c, 9, 42, 64
1, 29280, Note_off_c, 9, 37, 64
1, 29282, Note_on_c, 2, 70, 79
1, 29303, Note_on_c, 9, 42, 78
1, 29304, Note_off_c, 9, 42, 64
1, 29311, Note_off_c, 0, 82, 64
1, 29312, Note_off_c, 0, 77, 64
1, 29313, Note_off_c, 0, 56, 64
1, 29313, Note_off_c, 0, 73, 64
1, 29320, Note_off_c, 1, 44, 64
1, 29325, Note_on_c, 0, 82, 99
1, 29325, Note_on_c, 0, 77, 108
1, 29325, Note_off_c, 2, 56, 64
1, 29326, Note_on_c, 0, 73, 106
1, 29326, Note_on_c, 0, 56, 97
1, 29326, Note_on_c, 1, 44, 110
1, 29326, Note_off_c, 2, 61, 64
1, 29326, Note_off_c, 4, 70, 64
1, 29326, Note_off_c, 4, 77, 64
1, 29326, Note_off_c, 4, 85, 64
1, 29326, Note_on_c, 4, 73, 91
1, 29326, Note_on_c, 4, 82, 98
1, 29326, Note_on_c, 4, 65, 99
1, 29327, Note_off_c, 2, 65, 64
1, 29327, Note_on_c, 2, 61, 75
1, 29327, Note_off_c, 3, 73, 64
1, 29327, Note_on_c, 3, 70, 107
1, 29327, Note_on_c, 9, 42, 78
1, 29328, Note_on_c, 2, 56, 60
1, 29328, Note_on_c, 2, 65, 77
1, 29328, Note_off_c, 9, 42, 64
1, 29329, Note_off_c, 2, 70, 64
1, 29330, Note_on_c, 2, 70, 72
1, 29349, Note_off_c, 1, 44, 64
1, 29350, Note_on_c, 1, 46, 112
1, 29350, Note_on_c, 9, 35, 117
1, 29351, Note_off_c, 9, 35, 64
1, 29368, Note_off_c, 0, 73, 64
1, 29369, Note_off_c, 0, 82, 64
1, 29369, Note_off_c, 0, 77, 64
1, 29370, Note_off_c, 2, 56, 64
1, 29371, Note_on_c, 0, 67, 95
1, 29371, Note_on_c, 0, 61, 81
1, 29371, Note_on_c, 0, 77, 77
1, 29372, Note_off_c, 0, 56, 64
1, 29372, Note_on_c, 0, 70, 96
1, 29372, Note_off_c, 2, 70, 64
1, 29373, Note_on_c, 2, 55, 61
1, 29374, Note_off_c, 1, 46, 64
1, 29374, Note_off_c, 2, 61, 64
1, 29374, Note_off_c, 2, 65, 64
1, 29374, Note_on_c, 9, 35, 127
1, 29375, Note_on_c, 0, 51, 115
1, 29375, Note_on_c, 1, 39, 111
1, 29375, Note_off_c, 8, 68, 64
1, 29375, Note_off_c, 9, 35, 64
1, 29376, Note_off_c, 8, 56, 64
1, 29377, Note_on_c, 2, 65, 80
1, 29378, Note_on_c, 2, 61, 44
1, 29379, Note_on_c, 2, 70, 80
1, 29379, Note_off_c, 7, 82, 64
1, 29420, Note_off_c, 3, 70, 64
1, 29421, Note_off_c, 4, 73, 64
1, 29422, Note_off_c, 4, 65, 64
1, 29422, Note_off_c, 4, 82, 64
1, 29422, Note_on_c, 4, 70, 86
1, 29422, Note_on_c, 4, 73, 92
1, 29422, Note_on_c, 4, 77, 92
1, 29422, Note_on_c, 4, 61, 92
1, 29423, Note_off_c, 2, 61, 64
1, 29423, Note_on_c, 3, 65, 104
1, 29424, Note_off_c, 2, 65, 64
1, 29425, Note_off_c, 2, 70, 64
1, 29426, Note_on_c, 2, 61, 57
1, 29427, Note_on_c, 2, 65, 67
1, 29428, Note_on_c, 2, 70, 59
1, 29471, Note_off_c, 2, 65, 64
1, 29473, Note_off_c, 2, 55, 64
1, 29474, Note_off_c, 2, 61, 64
1, 29474, Note_on_c, 2, 55, 52
1, 29475, Note_on_c, 2, 61, 59
1, 29476, Note_off_c, 2, 70, 64
1, 29476, Note_on_c, 2, 65, 73
1, 29477, Note_on_c, 2, 70, 64
1, 29520, Note_off_c, 2, 55, 64
1, 29521, Note_off_c, 2, 61, 64
1, 29521, Note_on_c, 2, 55, 66
1, 29522, Note_off_c, 2, 65, 64
1, 29522, Note_on_c, 2, 61, 75
1, 29523, Note_off_c, 2, 70, 64
1, 29524, Note_on_c, 2, 65, 79
1, 29525, Note_on_c, 2, 70, 77
1, 29568, Note_off_c, 2, 55, 64
1, 29569, Note_off_c, 2, 61, 64
1, 29569, Note_on_c, 2, 55, 57
1, 29570, Note_off_c, 2, 65, 64
1, 29570, Note_on_c, 2, 61, 76
1, 29571, Note_off_c, 2, 70, 64
1, 29571, Note_on_c, 2, 65, 77
1, 29572, Note_on_c, 2, 70, 79
1, 29614, Note_off_c, 2, 55, 64
1, 29615, Note_on_c, 2, 55, 54
1, 29616, Note_off_c, 2, 61, 64
1, 29617, Note_off_c, 2, 65, 64
1, 29617, Note_on_c, 2, 61, 73
1, 29618, Note_off_c, 2, 70, 64
1, 29618, Note_on_c, 2, 65, 78
1, 29619, Note_on_c, 2, 70, 77
1, 29660, Note_off_c, 2, 70, 64
1, 29661, Note_off_c, 2, 55, 64
1, 29661, Note_off_c, 2, 61, 64
1, 29662, Note_on_c, 2, 55, 59
1, 29663, Note_off_c, 2, 65, 64
1, 29663, Note_on_c, 2, 61, 76
1, 29665, Note_on_c, 2, 65, 78
1, 29666, Note_on_c, 2, 70, 77
1, 29705, Note_off_c, 2, 55, 64
1, 29708, Note_off_c, 2, 61, 64
1, 29708, Note_on_c, 2, 55, 51
1, 29709, Note_off_c, 2, 65, 64
1, 29710, Note_on_c, 2, 61, 66
1, 29710, Note_on_c, 2, 65, 77
1, 29711, Note_off_c, 2, 70, 64
1, 29712, Note_on_c, 2, 70, 72
1, 29731, Note_on_c, 9, 47, 88
1, 29732, Note_off_c, 9, 47, 64
1, 29754, Note_off_c, 2, 55, 64
1, 29755, Note_on_c, 7, 89, 89
1, 29755, Note_on_c, 9, 47, 122
1, 29756, Note_off_c, 2, 65, 64
1, 29756, Note_off_c, 2, 61, 64
1, 29756, Note_on_c, 2, 55, 57
1, 29756, Note_on_c, 3, 73, 104
1, 29756, Note_off_c, 9, 47, 64
1, 29757, Note_on_c, 2, 61, 74
1, 29757, Note_off_c, 4, 77, 64
1, 29757, Note_off_c, 4, 70, 64
1, 29757, Note_off_c, 4, 73, 64
1, 29758, Note_off_c, 2, 70, 64
1, 29758, Note_on_c, 2, 65, 74
1, 29758, Note_off_c, 4, 61, 64
1, 29758, Note_on_c, 4, 77, 90
1, 29758, Note_on_c, 4, 73, 88
1, 29758, Note_on_c, 4, 70, 93
1, 29758, Note_on_c, 4, 82, 90
1, 29759, Note_on_c, 2, 70, 80
1, 29762, Tempo, 666667
1, 29765, Note_off_c, 3, 65, 64
1, 29799, Note_off_c, 2, 55, 64
1, 29802, Note_on_c, 2, 55, 57
1, 29803, Note_off_c, 2, 61, 64
1, 29804, Note_off_c, 2, 65, 64
1, 29804, Note_on_c, 2, 61, 67
1, 29805, Note_on_c, 2, 65, 77
1, 29806, Note_off_c, 2, 70, 64
1, 29807, Note_on_c, 2, 70, 63
1, 29809, Note_on_c, 9, 45, 88
1, 29810, Note_off_c, 9, 45, 64
1, 29830, Note_on_c, 9, 45, 91
1, 29831, Note_off_c, 9, 45, 64
1, 29849, Note_off_c, 2, 55, 64
1, 29851, Note_off_c, 2, 61, 64
1, 29851, Note_on_c, 2, 55, 46
1, 29852, Note_off_c, 2, 65, 64
1, 29852, Note_off_c, 2, 70, 64
1, 29852, Note_on_c, 2, 61, 67
1, 29853, Note_on_c, 2, 65, 77
1, 29854, Note_on_c, 2, 70, 75
1, 29855, Note_on_c, 5, 73, 81
1, 29855, Note_on_c, 9, 45, 120
1, 29856, Note_off_c, 9, 45, 64
1, 29897, Note_off_c, 2, 55, 64
1, 29899, Note_on_c, 2, 55, 51
1, 29900, Note_off_c, 2, 61, 64
1, 29901, Note_off_c, 2, 65, 64
1, 29901, Note_on_c, 2, 61, 67
1, 29902, Note_on_c, 2, 65, 77
1, 29903, Note_off_c, 2, 70, 64
1, 29904, Note_on_c, 2, 70, 69
1, 29924, Note_on_c, 9, 43, 91
1, 29925, Note_off_c, 9, 43, 64
1, 29946, Note_off_c, 2, 55, 64
1, 29947, Note_on_c, 2, 55, 52
1, 29947, Note_on_c, 9, 43, 92
1, 29948, Note_off_c, 2, 61, 64
1, 29948, Note_off_c, 9, 43, 64
1, 29949, Note_off_c, 2, 65, 64
1, 29949, Note_on_c, 2, 61, 70
1, 29950, Note_on_c, 2, 65, 77
1, 29951, Note_off_c, 2, 70, 64
1, 29951, Note_on_c, 5, 70, 75
1, 29952, Note_on_c, 2, 70, 79
1, 29958, Note_off_c, 5, 73, 64
1, 29970, Note_on_c, 9, 43, 121
1, 29971, Note_off_c, 9, 43, 64
1, 29994, Note_off_c, 2, 55, 64
1, 29994, Note_off_c, 3, 73, 64
1, 29996, Note_off_c, 2, 61, 64
1, 29996, Note_on_c, 2, 55, 43
1, 29997, Note_off_c, 2, 65, 64
1, 29997, Note_on_c, 2, 61, 70
1, 29998, Note_on_c, 2, 65, 79
1, 29999, Note_off_c, 2, 70, 64
1, 30000, Note_on_c, 2, 70, 79
1, 30021, Note_on_c, 9, 43, 102
1, 30022, Note_off_c, 4, 82, 64
1, 30022, Note_off_c, 4, 70, 64
1, 30022, Note_off_c, 4, 73, 64
1, 30022, Note_off_c, 9, 43, 64
1, 30034, Note_off_c, 4, 77, 64
1, 30043, Note_off_c, 2, 55, 64
1, 30044, Note_on_c, 5, 82, 95
1, 30045, Note_off_c, 2, 61, 64
1, 30045, Note_on_c, 2, 55, 57
1, 30046, Note_off_c, 2, 65, 64
1, 30046, Note_on_c, 2, 61, 76
1, 30046, Note_on_c, 4, 82, 111
1, 30046, Note_on_c, 4, 70, 99
1, 30046, Note_on_c, 9, 41, 110
1, 30047, Note_on_c, 2, 65, 80
1, 30047, Note_on_c, 3, 78, 114
1, 30047, Note_off_c, 9, 41, 64
1, 30048, Note_off_c, 2, 70, 64
1, 30049, Note_on_c, 2, 70, 80
1, 30066, Note_off_c, 5, 82, 64
1, 30068, Note_off_c, 3, 78, 64
1, 30069, Note_on_c, 3, 78, 103
1, 30069, Note_off_c, 4, 70, 64
1, 30069, Note_off_c, 4, 82, 64
1, 30069, Note_on_c, 5, 82, 87
1, 30069, Note_on_c, 9, 41, 103
1, 30070, Note_on_c, 4, 82, 98
1, 30070, Note_on_c, 4, 70, 102
1, 30070, Note_off_c, 9, 41, 64
1, 30072, Tempo, 674157
1, 30074, Note_off_c, 5, 70, 64
1, 30086, Note_off_c, 5, 82, 64
1, 30087, Note_off_c, 3, 78, 64
1, 30089, Note_off_c, 2, 61, 64
1, 30089, Note_on_c, 3, 78, 95
1, 30091, Note_off_c, 2, 55, 64
1, 30091, Note_on_c, 9, 38, 113
1, 30092, Note_off_c, 9, 38, 64
1, 30093, Note_off_c, 2, 65, 64
1, 30093, Note_on_c, 2, 55, 58
1, 30093, Note_off_c, 4, 70, 64
1, 30093, Note_off_c, 4, 82, 64
1, 30093, Note_on_c, 5, 82, 95
1, 30094, Note_on_c, 2, 61, 76
1, 30094, Note_on_c, 4, 70, 96
1, 30094, Note_on_c, 4, 82, 99
1, 30094, Note_on_c, 9, 38, 127
1, 30095, Note_off_c, 9, 38, 64
1, 30096, Tempo, 666667
1, 30096, Note_off_c, 2, 70, 64
1, 30096, Note_on_c, 2, 65, 80
1, 30098, Note_on_c, 2, 70, 81
1, 30102, Note_off_c, 5, 82, 64
1, 30112, Note_off_c, 3, 78, 64
1, 30113, Note_on_c, 3, 78, 113
1, 30115, Note_on_c, 5, 82, 95
1, 30117, Note_off_c, 4, 82, 64
1, 30118, Note_off_c, 4, 70, 64
1, 30118, Note_on_c, 4, 82, 100
1, 30120, Tempo, 659341
1, 30123, Note_on_c, 4, 73, 103
1, 30136, Note_off_c, 0, 67, 64
1, 30137, Note_off_c, 0, 70, 64
1, 30137, Note_off_c, 0, 61, 64
1, 30139, Note_off_c, 0, 51, 64
1, 30139, Note_on_c, 2, 58, 48
1, 30140, Note_off_c, 2, 70, 64
1, 30140, Note_off_c, 2, 65, 64
1, 30140, Note_off_c, 2, 61, 64
1, 30141, Note_on_c, 2, 61, 75
1, 30141, Note_on_c, 2, 66, 79
1, 30141, Note_on_c, 9, 49, 93
1, 30142, Tempo, 652174
1, 30142, Note_off_c, 0, 77, 64
1, 30142, Note_off_c, 1, 39, 64
1, 30142, Note_on_c, 2, 70, 82
1, 30142, Note_off_c, 4, 82, 64
1, 30142, Note_off_c, 7, 89, 64
1, 30142, Note_on_c, 7, 70, 85
1, 30142, Note_on_c, 7, 73, 87
1, 30142, Note_on_c, 7, 78, 83
1, 30142, Note_off_c, 9, 49, 64
1, 30143, Note_on_c, 0, 61, 105
1, 30143, Note_on_c, 0, 58, 95
1, 30143, Note_on_c, 0, 66, 108
1, 30143, Note_on_c, 1, 42, 112
1, 30143, Note_on_c, 9, 35, 125
1, 30144, Note_off_c, 9, 35, 64
1, 30145, Note_off_c, 3, 78, 64
1, 30146, Note_off_c, 2, 55, 64
1, 30156, Note_off_c, 5, 82, 64
1, 30159, Note_off_c, 4, 73, 64
1, 30161, Note_off_c, 2, 70, 64
1, 30164, Note_on_c, 2, 70, 79
1, 30165, Note_off_c, 2, 66, 64
1, 30166, Note_on_c, 2, 66, 78
1, 30191, Note_on_c, 9, 42, 77
1, 30192, Note_off_c, 9, 42, 64
1, 30197, Note_off_c, 1, 42, 64
1, 30212, Note_off_c, 2, 70, 64
1, 30213, Note_on_c, 2, 70, 79
1, 30214, Note_off_c, 2, 66, 64
1, 30214, Note_on_c, 9, 35, 115
1, 30215, Note_on_c, 1, 42, 108
1, 30215, Note_on_c, 2, 66, 73
1, 30215, Note_off_c, 9, 35, 64
1, 30216, Note_off_c, 2, 61, 64
1, 30217, Note_on_c, 2, 61, 51
1, 30230, Note_off_c, 1, 42, 64
1, 30235, Note_off_c, 2, 58, 64
1, 30236, Note_on_c, 2, 58, 66
1, 30236, Note_on_c, 5, 85, 94
1, 30237, Note_off_c, 2, 61, 64
1, 30238, Note_off_c, 2, 66, 64
1, 30238, Note_on_c, 2, 61, 77
1, 30238, Note_on_c, 9, 38, 121
1, 30239, Note_on_c, 1, 42, 112
1, 30239, Note_off_c, 2, 70, 64
1, 30239, Note_on_c, 2, 66, 79
1, 30239, Note_off_c, 9, 38, 64
1, 30239, Note_on_c, 9, 42, 82
1, 30240, Note_on_c, 2, 70, 83
1, 30240, Note_off_c, 9, 42, 64
1, 30259, Note_off_c, 2, 58, 64
1, 30260, Note_off_c, 2, 61, 64
1, 30262, Note_off_c, 2, 66, 64
1, 30262, Note_off_c, 2, 70, 64
1, 30263, Note_on_c, 9, 42, 69
1, 30264, Note_off_c, 9, 42, 64
1, 30276, Note_off_c, 1, 42, 64
1, 30276, Note_off_c, 5, 85, 64
1, 30285, Note_on_c, 5, 85, 84
1, 30287, Note_on_c, 9, 42, 74
1, 30288, Note_off_c, 9, 42, 64
1, 30299, Note_off_c, 5, 85, 64
1, 30308, Note_on_c, 5, 85, 90
1, 30311, Note_on_c, 9, 35, 118
1, 30311, Note_on_c, 9, 42, 69
1, 30312, Note_on_c, 2, 70, 78
1, 30312, Note_off_c, 9, 42, 64
1, 30312, Note_off_c, 9, 35, 64
1, 30313, Note_on_c, 2, 66, 77
1, 30332, Note_off_c, 2, 66, 64
1, 30335, Note_on_c, 9, 35, 114
1, 30335, Note_on_c, 9, 42, 79
1, 30336, Note_off_c, 2, 70, 64
1, 30336, Note_off_c, 9, 42, 64
1, 30336, Note_off_c, 9, 35, 64
1, 30357, Note_on_c, 3, 78, 112
1, 30358, Note_on_c, 4, 73, 99
1, 30358, Note_on_c, 4, 70, 92
1, 30359, Note_on_c, 9, 35, 113
1, 30359, Note_on_c, 9, 42, 69
1, 30360, Note_on_c, 1, 42, 113
1, 30360, Note_off_c, 9, 42, 64
1, 30360, Note_off_c, 9, 35, 64
1, 30367, Note_off_c, 5, 85, 64
1, 30375, Note_off_c, 3, 78, 64
1, 30378, Note_off_c, 1, 42, 64
1, 30378, Note_on_c, 3, 78, 100
1, 30381, Note_on_c, 2, 66, 77
1, 30381, Note_off_c, 4, 70, 64
1, 30381, Note_off_c, 4, 73, 64
1, 30382, Note_off_c, 2, 66, 64
1, 30382, Note_on_c, 2, 70, 83
1, 30382, Note_on_c, 4, 70, 86
1, 30382, Note_on_c, 4, 73, 95
1, 30383, Note_off_c, 2, 70, 64
1, 30383, Note_on_c, 9, 42, 77
1, 30384, Note_on_c, 2, 61, 55
1, 30384, Note_off_c, 9, 42, 64
1, 30385, Note_off_c, 2, 61, 64
1, 30404, Note_on_c, 2, 70, 79
1, 30404, Note_off_c, 3, 78, 64
1, 30405, Note_off_c, 2, 70, 64
1, 30405, Note_on_c, 2, 66, 74
1, 30405, Note_off_c, 4, 73, 64
1, 30405, Note_off_c, 4, 70, 64
1, 30406, Note_on_c, 1, 42, 110
1, 30406, Note_off_c, 2, 66, 64
1, 30406, Note_on_c, 3, 78, 114
1, 30406, Note_on_c, 4, 70, 88
1, 30406, Note_on_c, 4, 73, 100
1, 30406, Note_on_c, 9, 35, 125
1, 30407, Note_off_c, 9, 35, 64
1, 30407, Note_on_c, 9, 42, 70
1, 30408, Note_off_c, 9, 42, 64
1, 30427, Note_off_c, 1, 42, 64
1, 30428, Note_on_c, 2, 61, 75
1, 30429, Note_on_c, 2, 66, 79
1, 30430, Note_on_c, 1, 37, 104
1, 30430, Note_on_c, 9, 38, 121
1, 30431, Note_on_c, 2, 70, 81
1, 30431, Note_off_c, 9, 38, 64
1, 30431, Note_on_c, 9, 42, 81
1, 30432, Note_off_c, 9, 42, 64
1, 30452, Note_off_c, 3, 78, 64
1, 30453, Note_off_c, 1, 37, 64
1, 30453, Note_off_c, 4, 73, 64
1, 30453, Note_off_c, 4, 70, 64
1, 30454, Note_on_c, 1, 39, 110
1, 30454, Note_off_c, 2, 61, 64
1, 30454, Note_on_c, 4, 73, 102
1, 30454, Note_on_c, 4, 70, 97
1, 30454, Note_on_c, 9, 42, 66
1, 30455, Note_on_c, 3, 78, 115
1, 30455, Note_off_c, 9, 42, 64
1, 30456, Note_off_c, 2, 70, 64
1, 30457, Note_off_c, 2, 66, 64
1, 30478, Note_off_c, 1, 39, 64
1, 30479, Note_on_c, 1, 42, 108
1, 30479, Note_on_c, 9, 42, 76
1, 30480, Note_on_c, 2, 61, 63
1, 30480, Note_off_c, 9, 42, 64
1, 30481, Note_off_c, 2, 61, 64
1, 30481, Note_on_c, 2, 66, 77
1, 30482, Note_off_c, 2, 66, 64
1, 30482, Note_on_c, 2, 70, 80
1, 30483, Note_off_c, 2, 70, 64
1, 30484, Note_off_c, 0, 66, 64
1, 30499, Note_off_c, 0, 58, 64
1, 30500, Note_off_c, 0, 61, 64
1, 30502, Note_off_c, 3, 78, 64
1, 30502, Note_on_c, 9, 35, 120
1, 30502, Note_on_c, 9, 42, 65
1, 30503, Note_off_c, 9, 42, 64
1, 30503, Note_off_c, 9, 35, 64
1, 30506, Note_off_c, 1, 42, 64
1, 30506, Note_on_c, 2, 66, 69
1, 30507, Note_off_c, 2, 66, 64
1, 30507, Note_on_c, 2, 70, 79
1, 30508, Note_off_c, 2, 70, 64
1, 30514, Note_off_c, 4, 70, 64
1, 30514, Note_off_c, 4, 73, 64
1, 30522, Note_on_c, 3, 82, 109
1, 30523, Note_off_c, 7, 78, 64
1, 30523, Note_off_c, 7, 73, 64
1, 30523, Note_off_c, 7, 70, 64
1, 30524, Note_on_c, 0, 61, 103
1, 30524, Note_on_c, 0, 58, 95
1, 30525, Note_on_c, 0, 65, 96
1, 30526, Note_on_c, 1, 46, 110
1, 30526, Note_on_c, 4, 70, 91
1, 30526, Note_on_c, 4, 73, 95
1, 30526, Note_on_c, 4, 82, 95
1, 30526, Note_on_c, 7, 70, 80
1, 30526, Note_on_c, 7, 77, 79
1, 30526, Note_on_c, 7, 73, 69
1, 30526, Note_on_c, 9, 42, 79
1, 30527, Note_off_c, 9, 42, 64
1, 30527, Note_on_c, 9, 35, 127
1, 30528, Note_off_c, 9, 35, 64
1, 30529, Note_on_c, 2, 58, 74
1, 30530, Note_off_c, 2, 58, 64
1, 30531, Note_on_c, 2, 61, 75
1, 30531, Note_on_c, 2, 65, 77
1, 30532, Note_off_c, 2, 65, 64
1, 30532, Note_off_c, 2, 61, 64
1, 30532, Note_on_c, 2, 70, 80
1, 30533, Note_off_c, 2, 70, 64
1, 30550, Note_on_c, 9, 42, 70
1, 30551, Note_off_c, 9, 42, 64
1, 30554, Note_on_c, 2, 65, 73
1, 30555, Note_on_c, 2, 70, 78
1, 30574, Note_on_c, 9, 42, 74
1, 30575, Note_off_c, 9, 42, 64
1, 30582, Note_off_c, 1, 46, 64
1, 30586, Note_off_c, 4, 82, 64
1, 30591, Note_on_c, 5, 85, 86
1, 30594, Note_off_c, 3, 82, 64
1, 30597, Note_off_c, 2, 70, 64
1, 30597, Note_off_c, 4, 73, 64
1, 30597, Note_off_c, 4, 70, 64
1, 30598, Note_on_c, 2, 70, 77
1, 30598, Note_on_c, 3, 80, 106
1, 30598, Note_on_c, 4, 80, 93
1, 30598, Note_on_c, 4, 73, 94
1, 30598, Note_on_c, 4, 70, 89
1, 30598, Note_on_c, 9, 35, 114
1, 30598, Note_on_c, 9, 42, 73
1, 30599, Note_on_c, 1, 46, 110
1, 30599, Note_off_c, 2, 70, 64
1, 30599, Note_off_c, 2, 65, 64
1, 30599, Note_off_c, 9, 42, 64
1, 30599, Note_off_c, 9, 35, 64
1, 30600, Note_on_c, 2, 65, 73
1, 30601, Note_off_c, 2, 65, 64
1, 30613, Note_off_c, 1, 46, 64
1, 30621, Note_on_c, 2, 58, 61
1, 30622, Note_off_c, 2, 58, 64
1, 30622, Note_on_c, 9, 42, 79
1, 30623, Note_on_c, 1, 46, 109
1, 30623, Note_on_c, 2, 61, 75
1, 30623, Note_off_c, 9, 42, 64
1, 30623, Note_on_c, 9, 38, 119
1, 30624, Note_off_c, 2, 61, 64
1, 30624, Note_off_c, 9, 38, 64
1, 30625, Note_on_c, 2, 65, 81
1, 30625, Note_on_c, 2, 70, 78
1, 30626, Note_off_c, 2, 70, 64
1, 30626, Note_off_c, 2, 65, 64
1, 30641, Note_off_c, 5, 85, 64
1, 30646, Note_off_c, 4, 80, 64
1, 30646, Note_on_c, 4, 78, 90
1, 30646, Note_on_c, 9, 42, 73
1, 30647, Note_on_c, 2, 65, 78
1, 30647, Note_on_c, 5, 85, 81
1, 30647, Note_off_c, 9, 42, 64
1, 30648, Note_on_c, 2, 61, 67
1, 30649, Note_on_c, 2, 70, 77
1, 30659, Note_off_c, 1, 46, 64
1, 30665, Note_off_c, 5, 85, 64
1, 30669, Note_off_c, 3, 80, 64
1, 30670, Note_off_c, 4, 78, 64
1, 30670, Note_off_c, 4, 70, 64
1, 30670, Note_off_c, 4, 73, 64
1, 30670, Note_on_c, 4, 75, 91
1, 30670, Note_on_c, 5, 85, 82
1, 30670, Note_on_c, 9, 42, 75
1, 30671, Note_off_c, 9, 42, 64
1, 30676, Note_off_c, 2, 70, 64
1, 30676, Note_off_c, 2, 61, 64
1, 30676, Note_off_c, 2, 65, 64
1, 30688, Note_off_c, 5, 85, 64
1, 30691, Note_on_c, 5, 85, 71
1, 30694, Note_off_c, 4, 75, 64
1, 30694, Note_on_c, 4, 73, 90
1, 30694, Note_on_c, 9, 35, 103
1, 30694, Note_on_c, 9, 42, 71
1, 30695, Note_off_c, 9, 42, 64
1, 30695, Note_off_c, 9, 35, 64
1, 30700, Note_on_c, 2, 65, 79
1, 30700, Note_on_c, 2, 61, 70
1, 30701, Note_on_c, 2, 70, 79
1, 30710, Note_off_c, 5, 85, 64
1, 30711, Note_on_c, 5, 85, 85
1, 30718, Note_on_c, 9, 35, 120
1, 30718, Note_on_c, 9, 42, 78
1, 30719, Note_off_c, 9, 42, 64
1, 30719, Note_off_c, 9, 35, 64
1, 30728, Note_off_c, 2, 70, 64
1, 30728, Note_off_c, 2, 65, 64
1, 30730, Note_off_c, 4, 73, 64
1, 30731, Note_off_c, 2, 61, 64
1, 30740, Note_off_c, 5, 85, 64
1, 30742, Note_on_c, 1, 46, 109
1, 30742, Note_on_c, 5, 82, 80
1, 30742, Note_on_c, 9, 42, 72
1, 30743, Note_off_c, 9, 42, 64
1, 30743, Note_on_c, 9, 35, 125
1, 30744, Note_off_c, 9, 35, 64
1, 30747, Note_on_c, 2, 65, 79
1, 30748, Note_on_c, 2, 70, 78
1, 30764, Note_off_c, 1, 46, 64
1, 30767, Note_on_c, 9, 42, 75
1, 30768, Note_off_c, 2, 70, 64
1, 30768, Note_off_c, 9, 42, 64
1, 30772, Note_off_c, 2, 65, 64
1, 30782, Note_off_c, 5, 82, 64
1, 30788, Note_on_c, 5, 80, 86
1, 30789, Note_on_c, 1, 46, 109
1, 30790, Note_on_c, 9, 35, 123
1, 30790, Note_on_c, 9, 42, 73
1, 30791, Note_on_c, 2, 70, 79
1, 30791, Note_off_c, 9, 42, 64
1, 30791, Note_off_c, 9, 35, 64
1, 30792, Note_on_c, 2, 65, 77
1, 30812, Note_off_c, 1, 46, 64
1, 30812, Note_on_c, 3, 73, 110
1, 30813, Note_on_c, 1, 41, 104
1, 30813, Note_on_c, 2, 58, 52
1, 30814, Note_off_c, 2, 58, 64
1, 30814, Note_on_c, 4, 73, 97
1, 30814, Note_on_c, 9, 42, 79
1, 30815, Note_off_c, 2, 65, 64
1, 30815, Note_on_c, 2, 61, 73
1, 30815, Note_off_c, 9, 42, 64
1, 30815, Note_on_c, 9, 38, 121
1, 30816, Note_off_c, 2, 61, 64
1, 30816, Note_off_c, 2, 70, 64
1, 30816, Note_on_c, 2, 65, 79
1, 30816, Note_off_c, 9, 38, 64
1, 30817, Note_off_c, 2, 65, 64
1, 30817, Note_on_c, 2, 70, 80
1, 30818, Note_off_c, 2, 70, 64
1, 30827, Note_off_c, 5, 80, 64
1, 30832, Note_on_c, 5, 78, 79
1, 30833, Note_off_c, 3, 73, 64
1, 30834, Note_on_c, 3, 73, 98
1, 30837, Note_off_c, 1, 41, 64
1, 30837, Note_off_c, 4, 73, 64
1, 30838, Note_on_c, 1, 44, 108
1, 30838, Note_on_c, 4, 73, 86
1, 30838, Note_on_c, 9, 42, 69
1, 30839, Note_on_c, 2, 70, 77
1, 30839, Note_off_c, 9, 42, 64
1, 30840, Note_off_c, 2, 70, 64
1, 30840, Note_on_c, 2, 65, 77
1, 30841, Note_off_c, 2, 65, 64
1, 30855, Note_off_c, 3, 73, 64
1, 30856, Note_off_c, 0, 65, 64
1, 30857, Note_off_c, 0, 61, 64
1, 30857, Note_on_c, 3, 73, 101
1, 30861, Note_off_c, 1, 44, 64
1, 30861, Note_off_c, 4, 73, 64
1, 30862, Note_off_c, 0, 58, 64
1, 30862, Note_on_c, 1, 46, 108
1, 30862, Note_on_c, 2, 61, 75
1, 30862, Note_on_c, 4, 73, 97
1, 30862, Note_on_c, 9, 42, 74
1, 30863, Note_on_c, 2, 65, 79
1, 30863, Note_off_c, 9, 42, 64
1, 30864, Note_on_c, 2, 70, 81
1, 30877, Note_off_c, 5, 78, 64
1, 30881, Note_off_c, 2, 70, 64
1, 30882, Note_off_c, 2, 65, 64
1, 30882, Note_off_c, 2, 61, 64
1, 30887, Note_on_c, 9, 42, 72
1, 30888, Note_off_c, 9, 42, 64
1, 30889, Note_on_c, 9, 35, 117
1, 30890, Note_off_c, 9, 35, 64
1, 30894, Note_off_c, 1, 46, 64
1, 30906, Note_on_c, 0, 66, 96
1, 30906, Note_on_c, 0, 59, 92
1, 30907, Note_on_c, 0, 63, 108
1, 30907, Note_off_c, 3, 73, 64
1, 30907, Note_on_c, 3, 80, 106
1, 30907, Note_off_c, 7, 77, 64
1, 30908, Note_off_c, 7, 73, 64
1, 30909, Note_off_c, 7, 70, 64
1, 30910, Note_on_c, 1, 47, 112
1, 30910, Note_on_c, 2, 59, 50
1, 30910, Note_off_c, 4, 73, 64
1, 30910, Note_on_c, 4, 78, 98
1, 30910, Note_on_c, 4, 75, 97
1, 30910, Note_on_c, 7, 71, 86
1, 30910, Note_on_c, 7, 75, 77
1, 30911, Note_off_c, 2, 59, 64
1, 30911, Note_on_c, 7, 78, 76
1, 30911, Note_on_c, 9, 42, 78
1, 30912, Note_on_c, 2, 63, 74
1, 30912, Note_off_c, 9, 42, 64
1, 30912, Note_on_c, 9, 35, 125
1, 30913, Note_off_c, 2, 63, 64
1, 30913, Note_on_c, 2, 66, 74
1, 30913, Note_off_c, 9, 35, 64
1, 30914, Note_off_c, 2, 66, 64
1, 30914, Note_on_c, 2, 71, 79
1, 30915, Note_off_c, 2, 71, 64
1, 30934, Note_on_c, 9, 42, 73
1, 30935, Note_on_c, 2, 71, 76
1, 30935, Note_on_c, 2, 66, 76
1, 30935, Note_off_c, 9, 42, 64
1, 30958, Note_on_c, 9, 42, 75
1, 30959, Note_off_c, 9, 42, 64
1, 30962, Note_off_c, 1, 47, 64
1, 30974, Note_off_c, 3, 80, 64
1, 30977, Note_on_c, 3, 78, 106
1, 30981, Note_off_c, 2, 71, 64
1, 30981, Note_off_c, 4, 75, 64
1, 30981, Note_off_c, 4, 78, 64
1, 30982, Note_on_c, 4, 78, 92
1, 30982, Note_on_c, 4, 75, 90
1, 30982, Note_on_c, 9, 35, 117
1, 30983, Note_on_c, 1, 47, 112
1, 30983, Note_off_c, 2, 66, 64
1, 30983, Note_off_c, 9, 35, 64
1, 30983, Note_on_c, 9, 42, 73
1, 30984, Note_on_c, 2, 66, 76
1, 30984, Note_off_c, 9, 42, 64
1, 30985, Note_off_c, 2, 66, 64
1, 30985, Note_on_c, 2, 71, 72
1, 30986, Note_off_c, 2, 71, 64
1, 30986, Note_on_c, 2, 63, 58
1, 30987, Note_off_c, 2, 63, 64
1, 30996, Note_off_c, 1, 47, 64
1, 31005, Note_on_c, 5, 80, 79
1, 31007, Note_on_c, 9, 38, 120
1, 31007, Note_on_c, 9, 42, 78
1, 31008, Note_on_c, 1, 47, 117
1, 31008, Note_off_c, 9, 42, 64
1, 31008, Note_off_c, 9, 38, 64
1, 31009, Note_on_c, 2, 66, 75
1, 31010, Note_off_c, 2, 66, 64
1, 31012, Note_on_c, 2, 71, 80
1, 31013, Note_off_c, 2, 71, 64
1, 31031, Note_on_c, 9, 42, 73
1, 31032, Note_off_c, 9, 42, 64
1, 31034, Note_on_c, 2, 66, 77
1, 31035, Note_on_c, 2, 71, 73
1, 31035, Note_on_c, 2, 63, 68
1, 31036, Note_on_c, 2, 59, 51
1, 31036, Note_off_c, 3, 78, 64
1, 31038, Note_off_c, 1, 47, 64
1, 31053, Note_on_c, 5, 78, 74
1, 31055, Note_on_c, 9, 42, 75
1, 31056, Note_off_c, 9, 42, 64
1, 31059, Note_off_c, 5, 80, 64
1, 31066, Note_off_c, 4, 75, 64
1, 31066, Note_off_c, 4, 78, 64
1, 31074, Note_off_c, 5, 78, 64
1, 31077, Note_off_c, 2, 71, 64
1, 31079, Note_on_c, 9, 42, 73
1, 31080, Note_off_c, 2, 66, 64
1, 31080, Note_off_c, 9, 42, 64
1, 31080, Note_on_c, 9, 35, 111
1, 31081, Note_on_c, 2, 66, 75
1, 31081, Note_off_c, 9, 35, 64
1, 31082, Note_on_c, 2, 71, 76
1, 31101, Note_on_c, 5, 80, 80
1, 31102, Note_on_c, 9, 42, 80
1, 31103, Note_off_c, 9, 42, 64
1, 31104, Note_on_c, 9, 35, 123
1, 31105, Note_off_c, 9, 35, 64
1, 31126, Note_on_c, 1, 47, 110
1, 31126, Note_on_c, 9, 42, 72
1, 31127, Note_off_c, 2, 59, 64
1, 31127, Note_off_c, 9, 42, 64
1, 31128, Note_on_c, 9, 35, 120
1, 31129, Note_off_c, 9, 35, 64
1, 31142, Note_on_c, 5, 78, 72
1, 31148, Note_off_c, 1, 47, 64
1, 31149, Note_off_c, 2, 63, 64
1, 31150, Note_off_c, 2, 66, 64
1, 31150, Note_on_c, 2, 63, 72
1, 31151, Note_off_c, 2, 63, 64
1, 31151, Note_off_c, 2, 71, 64
1, 31151, Note_on_c, 2, 66, 79
1, 31151, Note_off_c, 5, 80, 64
1, 31151, Note_on_c, 9, 42, 73
1, 31152, Note_off_c, 2, 66, 64
1, 31152, Note_on_c, 2, 71, 79
1, 31152, Note_off_c, 9, 42, 64
1, 31153, Note_off_c, 2, 71, 64
1, 31174, Note_on_c, 1, 47, 110
1, 31174, Note_on_c, 2, 66, 63
1, 31175, Note_off_c, 2, 66, 64
1, 31175, Note_on_c, 2, 71, 78
1, 31175, Note_on_c, 9, 42, 72
1, 31176, Note_off_c, 2, 71, 64
1, 31176, Note_off_c, 9, 42, 64
1, 31177, Note_off_c, 5, 78, 64
1, 31177, Note_on_c, 9, 35, 121
1, 31178, Note_off_c, 9, 35, 64
1, 31197, Note_off_c, 1, 47, 64
1, 31198, Note_on_c, 1, 42, 106
1, 31198, Note_on_c, 3, 78, 114
1, 31198, Note_on_c, 4, 71, 89
1, 31198, Note_on_c, 4, 75, 89
1, 31199, Note_on_c, 2, 66, 79
1, 31199, Note_on_c, 9, 42, 79
1, 31200, Note_on_c, 2, 63, 66
1, 31200, Note_off_c, 9, 42, 64
1, 31200, Note_on_c, 9, 38, 121
1, 31201, Note_on_c, 2, 71, 77
1, 31201, Note_off_c, 9, 38, 64
1, 31219, Note_off_c, 2, 71, 64
1, 31219, Note_off_c, 3, 78, 64
1, 31220, Note_on_c, 2, 71, 77
1, 31221, Note_off_c, 2, 66, 64
1, 31221, Note_on_c, 3, 78, 97
1, 31221, Note_off_c, 4, 75, 64
1, 31221, Note_off_c, 4, 71, 64
1, 31222, Note_off_c, 1, 42, 64
1, 31222, Note_on_c, 2, 66, 73
1, 31222, Note_on_c, 4, 71, 83
1, 31222, Note_on_c, 4, 75, 88
1, 31222, Note_on_c, 9, 42, 70
1, 31223, Note_on_c, 1, 44, 104
1, 31223, Note_off_c, 9, 42, 64
1, 31241, Note_off_c, 0, 63, 64
1, 31242, Note_off_c, 3, 78, 64
1, 31244, Note_off_c, 0, 66, 64
1, 31244, Note_off_c, 2, 63, 64
1, 31244, Note_on_c, 3, 78, 108
1, 31245, Note_off_c, 0, 59, 64
1, 31245, Note_off_c, 2, 66, 64
1, 31245, Note_on_c, 2, 63, 75
1, 31245, Note_off_c, 4, 75, 64
1, 31245, Note_off_c, 4, 71, 64
1, 31246, Note_off_c, 2, 71, 64
1, 31246, Note_on_c, 2, 66, 79
1, 31246, Note_on_c, 4, 75, 97
1, 31246, Note_on_c, 4, 71, 90
1, 31247, Note_on_c, 2, 71, 80
1, 31247, Note_on_c, 9, 42, 77
1, 31248, Note_off_c, 1, 44, 64
1, 31248, Note_off_c, 9, 42, 64
1, 31249, Note_on_c, 1, 47, 111
1, 31262, Note_off_c, 2, 66, 64
1, 31263, Note_off_c, 2, 71, 64
1, 31265, Note_off_c, 2, 63, 64
1, 31270, Note_off_c, 4, 71, 64
1, 31270, Note_off_c, 4, 75, 64
1, 31271, Note_on_c, 9, 35, 106
1, 31271, Note_on_c, 9, 42, 71
1, 31272, Note_off_c, 9, 42, 64
1, 31272, Note_off_c, 9, 35, 64
1, 31275, Note_off_c, 1, 47, 64
1, 31275, Note_off_c, 3, 78, 64
1, 31289, Note_off_c, 7, 71, 64
1, 31290, Note_on_c, 0, 62, 89
1, 31290, Note_on_c, 0, 66, 99
1, 31290, Note_on_c, 0, 59, 93
1, 31291, Note_off_c, 7, 78, 64
1, 31291, Note_off_c, 7, 75, 64
1, 31292, Note_on_c, 2, 59, 39
1, 31294, Note_on_c, 2, 62, 73
1, 31295, Note_on_c, 1, 47, 109
1, 31295, Note_on_c, 2, 66, 82
1, 31295, Note_on_c, 7, 71, 83
1, 31295, Note_on_c, 9, 35, 127
1, 31295, Note_on_c, 9, 42, 81
1, 31296, Note_on_c, 2, 71, 81
1, 31296, Note_off_c, 9, 42, 64
1, 31296, Note_off_c, 9, 35, 64
1, 31297, Note_on_c, 7, 74, 83
1, 31297, Note_on_c, 7, 78, 83
1, 31319, Note_on_c, 9, 42, 74
1, 31320, Note_off_c, 9, 42, 64
1, 31341, Note_on_c, 3, 78, 111
1, 31341, Note_on_c, 4, 74, 98
1, 31341, Note_on_c, 4, 71, 98
1, 31342, Note_off_c, 1, 47, 64
1, 31343, Note_on_c, 9, 42, 76
1, 31344, Note_off_c, 2, 71, 64
1, 31344, Note_off_c, 2, 66, 64
1, 31344, Note_off_c, 9, 42, 64
1, 31346, Note_on_c, 2, 71, 75
1, 31346, Note_on_c, 2, 66, 66
1, 31366, Note_on_c, 1, 47, 103
1, 31367, Note_on_c, 9, 42, 73
1, 31368, Note_off_c, 9, 42, 64
1, 31368, Note_on_c, 9, 35, 114
1, 31369, Note_off_c, 9, 35, 64
1, 31378, Note_off_c, 1, 47, 64
1, 31386, Note_off_c, 2, 59, 64
1, 31387, Note_on_c, 2, 59, 56
1, 31388, Note_off_c, 2, 62, 64
1, 31388, Note_off_c, 4, 71, 64
1, 31388, Note_off_c, 4, 74, 64
1, 31389, Note_off_c, 2, 66, 64
1, 31389, Note_on_c, 2, 62, 73
1, 31389, Note_off_c, 3, 78, 64
1, 31389, Note_on_c, 4, 71, 93
1, 31389, Note_on_c, 4, 74, 97
1, 31390, Note_off_c, 2, 71, 64
1, 31390, Note_on_c, 2, 66, 79
1, 31391, Note_on_c, 1, 47, 117
1, 31391, Note_on_c, 2, 71, 74
1, 31391, Note_on_c, 3, 80, 105
1, 31391, Note_on_c, 9, 42, 82
1, 31392, Note_off_c, 9, 42, 64
1, 31392, Note_on_c, 9, 38, 123
1, 31393, Note_off_c, 9, 38, 64
1, 31414, Note_on_c, 9, 42, 71
1, 31415, Note_off_c, 9, 42, 64
1, 31418, Note_off_c, 2, 71, 64
1, 31418, Note_off_c, 2, 66, 64
1, 31418, Note_off_c, 2, 62, 64
1, 31420, Note_off_c, 1, 47, 64
1, 31420, Note_off_c, 2, 59, 64
1, 31435, Note_off_c, 3, 80, 64
1, 31435, Note_on_c, 3, 78, 100
1, 31436, Note_off_c, 4, 74, 64
1, 31436, Note_off_c, 4, 71, 64
1, 31437, Note_on_c, 4, 71, 92
1, 31437, Note_on_c, 4, 74, 96
1, 31438, Note_on_c, 9, 42, 76
1, 31439, Note_off_c, 9, 42, 64
1, 31460, Note_off_c, 3, 78, 64
1, 31460, Note_off_c, 4, 74, 64
1, 31460, Note_off_c, 4, 71, 64
1, 31461, Note_on_c, 3, 80, 107
1, 31461, Note_on_c, 4, 71, 95
1, 31461, Note_on_c, 4, 74, 97
1, 31462, Note_on_c, 9, 35, 114
1, 31462, Note_on_c, 9, 42, 73
1, 31463, Note_off_c, 9, 42, 64
1, 31463, Note_off_c, 9, 35, 64
1, 31485, Note_on_c, 5, 85, 92
1, 31486, Note_on_c, 9, 35, 120
1, 31486, Note_on_c, 9, 42, 79
1, 31487, Note_off_c, 9, 42, 64
1, 31487, Note_off_c, 9, 35, 64
1, 31503, Note_off_c, 3, 80, 64
1, 31505, Note_on_c, 3, 78, 108
1, 31508, Note_off_c, 4, 74, 64
1, 31508, Note_off_c, 4, 71, 64
1, 31509, Note_on_c, 4, 71, 96
1, 31509, Note_on_c, 4, 74, 96
1, 31509, Note_on_c, 9, 42, 69
1, 31510, Note_on_c, 1, 50, 110
1, 31510, Note_off_c, 9, 42, 64
1, 31511, Note_on_c, 9, 35, 115
1, 31512, Note_off_c, 9, 35, 64
1, 31534, Note_off_c, 1, 50, 64
1, 31534, Note_on_c, 9, 42, 79
1, 31535, Note_on_c, 1, 49, 112
1, 31535, Note_off_c, 9, 42, 64
1, 31540, Note_off_c, 3, 78, 64
1, 31545, Note_off_c, 4, 74, 64
1, 31545, Note_off_c, 4, 71, 64
1, 31558, Note_off_c, 1, 49, 64
1, 31558, Note_on_c, 9, 35, 121
1, 31558, Note_on_c, 9, 42, 66
1, 31559, Note_on_c, 1, 47, 106
1, 31559, Note_on_c, 2, 66, 76
1, 31559, Note_on_c, 2, 71, 71
1, 31559, Note_off_c, 9, 42, 64
1, 31559, Note_off_c, 9, 35, 64
1, 31560, Note_on_c, 2, 62, 57
1, 31578, Note_off_c, 5, 85, 64
1, 31579, Note_on_c, 3, 80, 113
1, 31580, Note_on_c, 5, 85, 82
1, 31581, Note_on_c, 4, 74, 98
1, 31581, Note_on_c, 4, 71, 98
1, 31582, Note_on_c, 9, 42, 82
1, 31583, Note_off_c, 9, 42, 64
1, 31583, Note_on_c, 9, 38, 122
1, 31584, Note_off_c, 1, 47, 64
1, 31584, Note_off_c, 9, 38, 64
1, 31585, Note_on_c, 1, 44, 112
1, 31601, Note_off_c, 3, 80, 64
1, 31602, Note_off_c, 5, 85, 64
1, 31604, Note_on_c, 3, 80, 105
1, 31604, Note_off_c, 4, 71, 64
1, 31604, Note_off_c, 4, 74, 64
1, 31605, Note_on_c, 4, 74, 89
1, 31605, Note_on_c, 4, 71, 96
1, 31606, Note_off_c, 2, 71, 64
1, 31606, Note_on_c, 5, 85, 79
1, 31607, Note_off_c, 1, 44, 64
1, 31607, Note_off_c, 2, 66, 64
1, 31607, Note_on_c, 2, 71, 76
1, 31607, Note_on_c, 9, 35, 127
1, 31607, Note_on_c, 9, 42, 71
1, 31608, Note_on_c, 1, 42, 101
1, 31608, Note_on_c, 2, 66, 77
1, 31608, Note_off_c, 9, 42, 64
1, 31608, Note_off_c, 9, 35, 64
1, 31614, Note_on_c, 2, 59, 30
1, 31620, Note_off_c, 0, 59, 64
1, 31620, Note_off_c, 0, 62, 64
1, 31621, Note_off_c, 5, 85, 64
1, 31623, Note_off_c, 3, 80, 64
1, 31624, Note_on_c, 3, 80, 100
1, 31624, Note_on_c, 5, 85, 72
1, 31625, Note_off_c, 0, 66, 64
1, 31628, Note_off_c, 4, 71, 64
1, 31628, Note_off_c, 4, 74, 64
1, 31629, Note_on_c, 4, 74, 95
1, 31629, Note_on_c, 4, 71, 92
1, 31630, Note_on_c, 9, 55, 92
1, 31630, Note_on_c, 9, 49, 92
1, 31631, Note_off_c, 2, 62, 64
1, 31631, Note_off_c, 9, 49, 64
1, 31631, Note_off_c, 9, 55, 64
1, 31632, Note_off_c, 2, 66, 64
1, 31632, Note_on_c, 2, 62, 60
1, 31633, Note_off_c, 1, 42, 64
1, 31633, Note_off_c, 2, 71, 64
1, 31633, Note_on_c, 2, 66, 70
1, 31634, Note_on_c, 1, 38, 109
1, 31634, Note_on_c, 2, 71, 57
1, 31642, Note_off_c, 5, 85, 64
1, 31645, Note_on_c, 5, 85, 90
1, 31646, Note_off_c, 3, 80, 64
1, 31646, Note_on_c, 3, 78, 108
1, 31653, Note_off_c, 4, 71, 64
1, 31653, Note_off_c, 4, 74, 64
1, 31653, Note_on_c, 4, 70, 100
1, 31653, Note_on_c, 4, 73, 100
1, 31654, Note_off_c, 2, 71, 64
1, 31655, Note_on_c, 2, 71, 77
1, 31656, Note_off_c, 1, 38, 64
1, 31657, Note_on_c, 1, 35, 108
1, 31667, Note_off_c, 2, 62, 64
1, 31668, Note_off_c, 2, 59, 64
1, 31670, Note_off_c, 2, 66, 64
1, 31670, Note_off_c, 2, 71, 64
1, 31674, Note_off_c, 7, 71, 64
1, 31675, Note_on_c, 2, 58, 48
1, 31676, Note_off_c, 7, 78, 64
1, 31676, Note_off_c, 7, 74, 64
1, 31677, Note_on_c, 2, 61, 75
1, 31677, Note_on_c, 2, 66, 79
1, 31678, Note_on_c, 2, 70, 82
1, 31678, Note_on_c, 7, 78, 83
1, 31678, Note_on_c, 7, 70, 85
1, 31678, Note_on_c, 7, 73, 87
1, 31679, Note_on_c, 0, 61, 105
1, 31679, Note_on_c, 0, 58, 95
1, 31679, Note_on_c, 0, 66, 108
1, 31679, Note_off_c, 1, 35, 64
1, 31679, Note_on_c, 9, 35, 127
1, 31680, Note_on_c, 1, 42, 113
1, 31680, Note_off_c, 9, 35, 64
1, 31682, Note_on_c, 9, 49, 105
1, 31683, Note_off_c, 9, 49, 64
1, 31689, Note_off_c, 3, 78, 64
1, 31689, Note_off_c, 4, 73, 64
1, 31689, Note_off_c, 4, 70, 64
1, 31696, Note_off_c, 5, 85, 64
1, 31697, Note_off_c, 2, 70, 64
1, 31700, Note_on_c, 2, 70, 79
1, 31701, Note_off_c, 2, 66, 64
1, 31702, Note_on_c, 2, 66, 78
1, 31726, Note_on_c, 5, 85, 86
1, 31728, Note_off_c, 1, 42, 64
1, 31729, Note_on_c, 9, 42, 79
1, 31730, Note_off_c, 9, 42, 64
1, 31748, Note_off_c, 2, 70, 64
1, 31749, Note_on_c, 2, 70, 79
1, 31750, Note_off_c, 2, 66, 64
1, 31751, Note_on_c, 1, 42, 109
1, 31751, Note_on_c, 2, 66, 73
1, 31751, Note_on_c, 9, 35, 115
1, 31752, Note_off_c, 2, 61, 64
1, 31752, Note_off_c, 9, 35, 64
1, 31753, Note_on_c, 2, 61, 51
1, 31764, Note_off_c, 1, 42, 64
1, 31771, Note_off_c, 2, 58, 64
1, 31771, Note_off_c, 5, 85, 64
1, 31772, Note_on_c, 2, 58, 66
1, 31773, Note_off_c, 2, 61, 64
1, 31774, Note_off_c, 2, 66, 64
1, 31774, Note_on_c, 2, 61, 77
1, 31774, Note_on_c, 9, 38, 118
1, 31775, Note_on_c, 1, 42, 110
1, 31775, Note_off_c, 2, 70, 64
1, 31775, Note_on_c, 2, 66, 79
1, 31775, Note_off_c, 9, 38, 64
1, 31776, Note_on_c, 2, 70, 83
1, 31777, Note_on_c, 5, 85, 87
1, 31777, Note_on_c, 9, 42, 82
1, 31778, Note_off_c, 9, 42, 64
1, 31795, Note_off_c, 2, 58, 64
1, 31796, Note_off_c, 2, 61, 64
1, 31798, Note_off_c, 2, 66, 64
1, 31798, Note_off_c, 2, 70, 64
1, 31800, Note_on_c, 9, 42, 71
1, 31801, Note_off_c, 9, 42, 64
1, 31809, Note_off_c, 1, 42, 64
1, 31816, Note_off_c, 5, 85, 64
1, 31820, Note_on_c, 5, 85, 86
1, 31825, Note_on_c, 9, 42, 75
1, 31826, Note_off_c, 9, 42, 64
1, 31842, Note_off_c, 5, 85, 64
1, 31845, Note_on_c, 5, 85, 84
1, 31846, Note_on_c, 9, 35, 114
1, 31847, Note_off_c, 9, 35, 64
1, 31847, Note_on_c, 9, 42, 73
1, 31848, Note_on_c, 2, 70, 78
1, 31848, Note_off_c, 9, 42, 64
1, 31849, Note_on_c, 2, 66, 77
1, 31868, Note_off_c, 2, 66, 64
1, 31871, Note_on_c, 9, 35, 117
1, 31871, Note_on_c, 9, 42, 79
1, 31872, Note_off_c, 2, 70, 64
1, 31872, Note_off_c, 9, 42, 64
1, 31872, Note_off_c, 9, 35, 64
1, 31886, Note_off_c, 5, 85, 64
1, 31891, Note_on_c, 3, 78, 113
1, 31893, Note_on_c, 4, 73, 92
1, 31893, Note_on_c, 4, 70, 86
1, 31894, Note_on_c, 1, 42, 110
1, 31894, Note_on_c, 9, 42, 73
1, 31895, Note_off_c, 9, 42, 64
1, 31895, Note_on_c, 9, 35, 115
1, 31896, Note_off_c, 9, 35, 64
1, 31913, Note_off_c, 3, 78, 64
1, 31914, Note_on_c, 3, 78, 101
1, 31916, Note_off_c, 4, 70, 64
1, 31916, Note_off_c, 4, 73, 64
1, 31917, Note_off_c, 1, 42, 64
1, 31917, Note_on_c, 2, 66, 77
1, 31917, Note_on_c, 4, 73, 92
1, 31917, Note_on_c, 4, 70, 83
1, 31918, Note_off_c, 2, 66, 64
1, 31918, Note_on_c, 2, 70, 83
1, 31918, Note_on_c, 9, 42, 75
1, 31919, Note_off_c, 2, 70, 64
1, 31919, Note_off_c, 9, 42, 64
1, 31920, Note_on_c, 2, 61, 55
1, 31921, Note_off_c, 2, 61, 64
1, 31937, Note_off_c, 3, 78, 64
1, 31938, Note_on_c, 3, 78, 108
1, 31940, Note_on_c, 2, 70, 79
1, 31940, Note_off_c, 4, 70, 64
1, 31940, Note_off_c, 4, 73, 64
1, 31941, Note_off_c, 2, 70, 64
1, 31941, Note_on_c, 2, 66, 74
1, 31941, Note_on_c, 4, 73, 97
1, 31941, Note_on_c, 4, 70, 89
1, 31942, Note_on_c, 1, 42, 110
1, 31942, Note_off_c, 2, 66, 64
1, 31942, Note_on_c, 9, 35, 120
1, 31942, Note_on_c, 9, 42, 73
1, 31943, Note_off_c, 9, 42, 64
1, 31943, Note_off_c, 9, 35, 64
1, 31964, Note_on_c, 2, 61, 75
1, 31965, Note_off_c, 1, 42, 64
1, 31965, Note_on_c, 2, 66, 79
1, 31966, Note_on_c, 9, 42, 77
1, 31967, Note_on_c, 1, 37, 110
1, 31967, Note_on_c, 2, 70, 81
1, 31967, Note_off_c, 9, 42, 64
1, 31967, Note_on_c, 9, 38, 118
1, 31968, Note_off_c, 9, 38, 64
1, 31983, Note_off_c, 3, 78, 64
1, 31986, Note_on_c, 3, 78, 110
1, 31988, Note_off_c, 4, 70, 64
1, 31988, Note_off_c, 4, 73, 64
1, 31989, Note_on_c, 4, 70, 97
1, 31989, Note_on_c, 4, 73, 103
1, 31989, Note_on_c, 9, 42, 72
1, 31990, Note_off_c, 1, 37, 64
1, 31990, Note_off_c, 2, 61, 64
1, 31990, Note_off_c, 9, 42, 64
1, 31991, Note_on_c, 1, 39, 110
1, 31992, Note_off_c, 2, 70, 64
1, 31993, Note_off_c, 2, 66, 64
1, 32014, Note_off_c, 1, 39, 64
1, 32014, Note_on_c, 9, 42, 76
1, 32015, Note_on_c, 1, 42, 109
1, 32015, Note_off_c, 9, 42, 64
1, 32016, Note_on_c, 2, 61, 63
1, 32017, Note_off_c, 2, 61, 64
1, 32017, Note_on_c, 2, 66, 77
1, 32018, Note_off_c, 2, 66, 64
1, 32018, Note_on_c, 2, 70, 80
1, 32019, Note_off_c, 2, 70, 64
1, 32020, Note_off_c, 0, 66, 64
1, 32035, Note_off_c, 0, 58, 64
1, 32036, Note_off_c, 0, 61, 64
1, 32038, Note_on_c, 9, 35, 117
1, 32038, Note_on_c, 9, 42, 73
1, 32039, Note_off_c, 9, 42, 64
1, 32039, Note_off_c, 9, 35, 64
1, 32040, Note_off_c, 3, 78, 64
1, 32042, Note_on_c, 2, 66, 69
1, 32043, Note_off_c, 2, 66, 64
1, 32043, Note_on_c, 2, 70, 79
1, 32044, Note_off_c, 2, 70, 64
1, 32046, Note_off_c, 1, 42, 64
1, 32052, Note_off_c, 4, 73, 64
1, 32052, Note_off_c, 4, 70, 64
1, 32059, Note_on_c, 3, 82, 105
1, 32059, Note_off_c, 7, 73, 64
1, 32059, Note_off_c, 7, 70, 64
1, 32059, Note_off_c, 7, 78, 64
1, 32060, Note_on_c, 0, 61, 103
1, 32060, Note_on_c, 0, 58, 95
1, 32061, Note_on_c, 0, 65, 96
1, 32061, Note_on_c, 4, 82, 102
1, 32061, Note_on_c, 4, 70, 95
1, 32061, Note_on_c, 4, 73, 97
1, 32062, Note_on_c, 7, 70, 80
1, 32062, Note_on_c, 7, 77, 79
1, 32062, Note_on_c, 7, 73, 69
1, 32063, Note_on_c, 9, 35, 127
1, 32063, Note_on_c, 9, 42, 79
1, 32064, Note_off_c, 9, 42, 64
1, 32064, Note_off_c, 9, 35, 64
1, 32065, Note_on_c, 1, 46, 107
1, 32065, Note_on_c, 2, 58, 74
1, 32066, Note_off_c, 2, 58, 64
1, 32067, Note_on_c, 2, 61, 75
1, 32067, Note_on_c, 2, 65, 77
1, 32068, Note_off_c, 2, 65, 64
1, 32068, Note_off_c, 2, 61, 64
1, 32068, Note_on_c, 2, 70, 80
1, 32069, Note_off_c, 2, 70, 64
1, 32087, Note_on_c, 9, 42, 73
1, 32088, Note_off_c, 9, 42, 64
1, 32090, Note_on_c, 2, 65, 73
1, 32091, Note_on_c, 2, 70, 78
1, 32108, Note_off_c, 1, 46, 64
1, 32110, Note_on_c, 9, 42, 78
1, 32111, Note_off_c, 9, 42, 64
1, 32128, Note_on_c, 5, 85, 85
1, 32129, Note_off_c, 3, 82, 64
1, 32132, Note_off_c, 4, 73, 64
1, 32132, Note_off_c, 4, 70, 64
1, 32133, Note_off_c, 2, 70, 64
1, 32133, Note_on_c, 3, 80, 105
1, 32133, Note_off_c, 4, 82, 64
1, 32133, Note_on_c, 4, 73, 93
1, 32133, Note_on_c, 4, 80, 98
1, 32133, Note_on_c, 4, 70, 93
1, 32134, Note_on_c, 2, 70, 77
1, 32134, Note_on_c, 9, 35, 118
1, 32134, Note_on_c, 9, 42, 75
1, 32135, Note_on_c, 1, 46, 106
1, 32135, Note_off_c, 2, 70, 64
1, 32135, Note_off_c, 2, 65, 64
1, 32135, Note_off_c, 9, 42, 64
1, 32135, Note_off_c, 9, 35, 64
1, 32136, Note_on_c, 2, 65, 73
1, 32137, Note_off_c, 2, 65, 64
1, 32147, Note_off_c, 1, 46, 64
1, 32157, Note_on_c, 2, 58, 61
1, 32158, Note_off_c, 2, 58, 64
1, 32158, Note_on_c, 9, 42, 79
1, 32159, Note_on_c, 1, 46, 110
1, 32159, Note_on_c, 2, 61, 75
1, 32159, Note_off_c, 9, 42, 64
1, 32159, Note_on_c, 9, 38, 119
1, 32160, Note_off_c, 2, 61, 64
1, 32160, Note_off_c, 9, 38, 64
1, 32161, Note_on_c, 2, 65, 81
1, 32161, Note_on_c, 2, 70, 78
1, 32162, Note_off_c, 2, 70, 64
1, 32162, Note_off_c, 2, 65, 64
1, 32174, Note_off_c, 5, 85, 64
1, 32177, Note_on_c, 5, 85, 78
1, 32181, Note_off_c, 4, 80, 64
1, 32181, Note_on_c, 4, 78, 91
1, 32182, Note_on_c, 9, 42, 64
1, 32183, Note_on_c, 2, 65, 78
1, 32183, Note_off_c, 9, 42, 64
1, 32184, Note_on_c, 2, 61, 67
1, 32185, Note_on_c, 2, 70, 77
1, 32195, Note_off_c, 1, 46, 64
1, 32198, Note_off_c, 5, 85, 64
1, 32199, Note_on_c, 5, 85, 69
1, 32200, Note_off_c, 3, 80, 64
1, 32205, Note_off_c, 4, 78, 64
1, 32205, Note_off_c, 4, 70, 64
1, 32205, Note_off_c, 4, 73, 64
1, 32205, Note_on_c, 4, 75, 90
1, 32206, Note_on_c, 9, 42, 75
1, 32207, Note_off_c, 9, 42, 64
1, 32212, Note_off_c, 2, 70, 64
1, 32212, Note_off_c, 2, 61, 64
1, 32212, Note_off_c, 2, 65, 64
1, 32218, Note_off_c, 5, 85, 64
1, 32221, Note_on_c, 5, 85, 76
1, 32229, Note_off_c, 4, 75, 64
1, 32229, Note_on_c, 4, 73, 93
1, 32230, Note_on_c, 9, 35, 113
1, 32230, Note_on_c, 9, 42, 75
1, 32231, Note_off_c, 9, 42, 64
1, 32231, Note_off_c, 9, 35, 64
1, 32236, Note_on_c, 2, 65, 79
1, 32236, Note_on_c, 2, 61, 70
1, 32237, Note_on_c, 2, 70, 79
1, 32243, Note_off_c, 5, 85, 64
1, 32245, Note_on_c, 5, 85, 79
1, 32254, Note_on_c, 9, 42, 78
1, 32255, Note_off_c, 9, 42, 64
1, 32255, Note_on_c, 9, 35, 121
1, 32256, Note_off_c, 9, 35, 64
1, 32264, Note_off_c, 2, 70, 64
1, 32264, Note_off_c, 2, 65, 64
1, 32267, Note_off_c, 2, 61, 64
1, 32272, Note_off_c, 5, 85, 64
1, 32275, Note_on_c, 5, 82, 79
1, 32277, Note_off_c, 4, 73, 64
1, 32278, Note_on_c, 9, 42, 74
1, 32279, Note_on_c, 1, 46, 110
1, 32279, Note_off_c, 9, 42, 64
1, 32279, Note_on_c, 9, 35, 111
1, 32280, Note_off_c, 9, 35, 64
1, 32283, Note_on_c, 2, 65, 79
1, 32284, Note_on_c, 2, 70, 78
1, 32301, Note_off_c, 1, 46, 64
1, 32302, Note_on_c, 9, 42, 75
1, 32303, Note_off_c, 9, 42, 64
1, 32304, Note_off_c, 2, 70, 64
1, 32308, Note_off_c, 2, 65, 64
1, 32315, Note_off_c, 5, 82, 64
1, 32319, Note_on_c, 5, 80, 79
1, 32326, Note_on_c, 1, 46, 109
1, 32326, Note_on_c, 9, 42, 74
1, 32327, Note_on_c, 2, 70, 79
1, 32327, Note_off_c, 9, 42, 64
1, 32327, Note_on_c, 9, 35, 121
1, 32328, Note_on_c, 2, 65, 77
1, 32328, Note_off_c, 9, 35, 64
1, 32349, Note_on_c, 2, 58, 52
1, 32349, Note_on_c, 4, 73, 88
1, 32350, Note_off_c, 1, 46, 64
1, 32350, Note_off_c, 2, 58, 64
1, 32350, Note_on_c, 3, 73, 105
1, 32350, Note_on_c, 9, 42, 77
1, 32351, Note_on_c, 1, 41, 114
1, 32351, Note_off_c, 2, 65, 64
1, 32351, Note_on_c, 2, 61, 73
1, 32351, Note_off_c, 9, 42, 64
1, 32351, Note_on_c, 9, 38, 120
1, 32352, Note_off_c, 2, 61, 64
1, 32352, Note_off_c, 2, 70, 64
1, 32352, Note_on_c, 2, 65, 79
1, 32352, Note_off_c, 9, 38, 64
1, 32353, Note_off_c, 2, 65, 64
1, 32353, Note_on_c, 2, 70, 80
1, 32354, Note_off_c, 2, 70, 64
1, 32358, Note_off_c, 5, 80, 64
1, 32364, Note_on_c, 5, 78, 75
1, 32372, Note_off_c, 4, 73, 64
1, 32373, Note_on_c, 4, 73, 86
1, 32374, Note_off_c, 1, 41, 64
1, 32374, Note_off_c, 3, 73, 64
1, 32374, Note_on_c, 9, 42, 69
1, 32375, Note_on_c, 1, 44, 112
1, 32375, Note_on_c, 2, 70, 77
1, 32375, Note_off_c, 9, 42, 64
1, 32376, Note_off_c, 2, 70, 64
1, 32376, Note_on_c, 2, 65, 77
1, 32376, Note_on_c, 3, 73, 90
1, 32377, Note_off_c, 2, 65, 64
1, 32392, Note_off_c, 0, 65, 64
1, 32393, Note_off_c, 0, 61, 64
1, 32394, Note_off_c, 3, 73, 64
1, 32396, Note_on_c, 3, 73, 98
1, 32396, Note_off_c, 4, 73, 64
1, 32397, Note_on_c, 4, 73, 95
1, 32398, Note_off_c, 0, 58, 64
1, 32398, Note_off_c, 1, 44, 64
1, 32398, Note_on_c, 2, 61, 75
1, 32399, Note_on_c, 1, 46, 107
1, 32399, Note_on_c, 2, 65, 79
1, 32399, Note_on_c, 9, 35, 103
1, 32399, Note_on_c, 9, 42, 78
1, 32400, Note_on_c, 2, 70, 81
1, 32400, Note_off_c, 9, 42, 64
1, 32400, Note_off_c, 9, 35, 64
1, 32401, Note_off_c, 5, 78, 64
1, 32417, Note_off_c, 2, 70, 64
1, 32418, Note_off_c, 2, 65, 64
1, 32418, Note_off_c, 2, 61, 64
1, 32424, Note_on_c, 9, 42, 70
1, 32425, Note_off_c, 9, 42, 64
1, 32430, Note_off_c, 1, 46, 64
1, 32442, Note_on_c, 0, 66, 96
1, 32442, Note_on_c, 0, 59, 92
1, 32443, Note_on_c, 0, 63, 108
1, 32443, Note_off_c, 7, 77, 64
1, 32444, Note_off_c, 7, 73, 64
1, 32445, Note_off_c, 4, 73, 64
1, 32445, Note_on_c, 4, 75, 95
1, 32445, Note_on_c, 4, 71, 86
1, 32445, Note_off_c, 7, 70, 64
1, 32446, Note_on_c, 2, 59, 50
1, 32446, Note_on_c, 7, 71, 86
1, 32446, Note_on_c, 7, 75, 77
1, 32447, Note_on_c, 1, 47, 109
1, 32447, Note_off_c, 2, 59, 64
1, 32447, Note_on_c, 7, 78, 76
1, 32447, Note_on_c, 9, 35, 127
1, 32447, Note_on_c, 9, 42, 79
1, 32448, Note_on_c, 2, 63, 74
1, 32448, Note_off_c, 9, 42, 64
1, 32448, Note_off_c, 9, 35, 64
1, 32449, Note_off_c, 2, 63, 64
1, 32449, Note_on_c, 2, 66, 74
1, 32449, Note_off_c, 3, 73, 64
1, 32449, Note_on_c, 3, 80, 104
1, 32450, Note_off_c, 2, 66, 64
1, 32450, Note_on_c, 2, 71, 79
1, 32451, Note_off_c, 2, 71, 64
1, 32471, Note_on_c, 2, 71, 76
1, 32471, Note_on_c, 2, 66, 76
1, 32471, Note_on_c, 9, 42, 70
1, 32472, Note_off_c, 9, 42, 64
1, 32491, Note_off_c, 1, 47, 64
1, 32495, Note_on_c, 9, 42, 76
1, 32496, Note_off_c, 9, 42, 64
1, 32516, Note_off_c, 3, 80, 64
1, 32516, Note_off_c, 4, 71, 64
1, 32516, Note_off_c, 4, 75, 64
1, 32517, Note_off_c, 2, 71, 64
1, 32517, Note_on_c, 3, 78, 107
1, 32517, Note_on_c, 4, 75, 97
1, 32517, Note_on_c, 4, 71, 92
1, 32519, Note_on_c, 1, 47, 111
1, 32519, Note_off_c, 2, 66, 64
1, 32519, Note_on_c, 9, 35, 117
1, 32519, Note_on_c, 9, 42, 72
1, 32520, Note_on_c, 2, 66, 76
1, 32520, Note_off_c, 9, 42, 64
1, 32520, Note_off_c, 9, 35, 64
1, 32521, Note_off_c, 2, 66, 64
1, 32521, Note_on_c, 2, 71, 72
1, 32522, Note_off_c, 2, 71, 64
1, 32522, Note_on_c, 2, 63, 58
1, 32523, Note_off_c, 2, 63, 64
1, 32526, Note_on_c, 5, 82, 80
1, 32534, Note_off_c, 1, 47, 64
1, 32543, Note_on_c, 9, 38, 118
1, 32543, Note_on_c, 9, 42, 79
1, 32544, Note_on_c, 1, 47, 112
1, 32544, Note_off_c, 9, 42, 64
1, 32544, Note_off_c, 9, 38, 64
1, 32545, Note_on_c, 2, 66, 75
1, 32546, Note_off_c, 2, 66, 64
1, 32548, Note_on_c, 2, 71, 80
1, 32549, Note_off_c, 2, 71, 64
1, 32563, Note_off_c, 3, 78, 64
1, 32566, Note_on_c, 9, 42, 64
1, 32567, Note_off_c, 9, 42, 64
1, 32570, Note_on_c, 2, 66, 77
1, 32571, Note_on_c, 2, 71, 73
1, 32571, Note_on_c, 2, 63, 68
1, 32572, Note_on_c, 2, 59, 51
1, 32583, Note_off_c, 1, 47, 64
1, 32589, Note_off_c, 4, 71, 64
1, 32589, Note_off_c, 4, 75, 64
1, 32591, Note_on_c, 9, 42, 75
1, 32592, Note_off_c, 9, 42, 64
1, 32609, Note_on_c, 5, 80, 75
1, 32611, Note_off_c, 5, 82, 64
1, 32613, Note_off_c, 2, 71, 64
1, 32614, Note_on_c, 9, 42, 72
1, 32615, Note_off_c, 9, 42, 64
1, 32615, Note_on_c, 9, 35, 103
1, 32616, Note_off_c, 2, 66, 64
1, 32616, Note_off_c, 9, 35, 64
1, 32617, Note_on_c, 2, 66, 75
1, 32618, Note_on_c, 2, 71, 76
1, 32638, Note_on_c, 9, 42, 80
1, 32639, Note_off_c, 9, 42, 64
1, 32639, Note_on_c, 9, 35, 104
1, 32640, Note_off_c, 9, 35, 64
1, 32662, Note_on_c, 1, 47, 112
1, 32662, Note_on_c, 5, 78, 77
1, 32662, Note_on_c, 9, 35, 98
1, 32662, Note_on_c, 9, 42, 73
1, 32663, Note_off_c, 2, 59, 64
1, 32663, Note_off_c, 9, 42, 64
1, 32663, Note_off_c, 9, 35, 64
1, 32664, Note_off_c, 5, 80, 64
1, 32685, Note_off_c, 2, 63, 64
1, 32686, Note_off_c, 1, 47, 64
1, 32686, Note_off_c, 2, 66, 64
1, 32686, Note_on_c, 2, 63, 72
1, 32686, Note_on_c, 9, 42, 74
1, 32687, Note_off_c, 2, 63, 64
1, 32687, Note_off_c, 2, 71, 64
1, 32687, Note_on_c, 2, 66, 79
1, 32687, Note_off_c, 9, 42, 64
1, 32688, Note_off_c, 2, 66, 64
1, 32688, Note_on_c, 2, 71, 79
1, 32689, Note_off_c, 2, 71, 64
1, 32696, Note_off_c, 5, 78, 64
1, 32710, Note_on_c, 1, 47, 112
1, 32710, Note_on_c, 2, 66, 63
1, 32710, Note_on_c, 9, 35, 120
1, 32710, Note_on_c, 9, 42, 71
1, 32711, Note_off_c, 2, 66, 64
1, 32711, Note_on_c, 2, 71, 78
1, 32711, Note_off_c, 9, 42, 64
1, 32711, Note_off_c, 9, 35, 64
1, 32712, Note_off_c, 2, 71, 64
1, 32731, Note_on_c, 3, 78, 100
1, 32733, Note_off_c, 1, 47, 64
1, 32733, Note_on_c, 4, 75, 96
1, 32733, Note_on_c, 4, 71, 95
1, 32734, Note_on_c, 1, 42, 109
1, 32734, Note_on_c, 9, 38, 121
1, 32734, Note_on_c, 9, 42, 81
1, 32735, Note_on_c, 2, 66, 79
1, 32735, Note_off_c, 9, 42, 64
1, 32735, Note_off_c, 9, 38, 64
1, 32736, Note_on_c, 2, 63, 66
1, 32737, Note_on_c, 2, 71, 77
1, 32751, Note_off_c, 3, 78, 64
1, 32753, Note_on_c, 3, 78, 103
1, 32755, Note_off_c, 2, 71, 64
1, 32756, Note_on_c, 2, 71, 77
1, 32756, Note_off_c, 4, 71, 64
1, 32756, Note_off_c, 4, 75, 64
1, 32757, Note_off_c, 2, 66, 64
1, 32757, Note_on_c, 4, 75, 92
1, 32757, Note_on_c, 4, 71, 97
1, 32758, Note_off_c, 1, 42, 64
1, 32758, Note_on_c, 2, 66, 73
1, 32758, Note_on_c, 9, 42, 70
1, 32759, Note_on_c, 1, 44, 105
1, 32759, Note_off_c, 9, 42, 64
1, 32777, Note_off_c, 0, 63, 64
1, 32780, Note_off_c, 0, 66, 64
1, 32780, Note_off_c, 2, 63, 64
1, 32780, Note_off_c, 3, 78, 64
1, 32781, Note_off_c, 0, 59, 64
1, 32781, Note_off_c, 2, 66, 64
1, 32781, Note_on_c, 2, 63, 75
1, 32781, Note_off_c, 4, 71, 64
1, 32782, Note_off_c, 2, 71, 64
1, 32782, Note_on_c, 2, 66, 79
1, 32782, Note_on_c, 9, 42, 78
1, 32783, Note_off_c, 1, 44, 64
1, 32783, Note_on_c, 2, 71, 80
1, 32783, Note_off_c, 9, 42, 64
1, 32784, Note_on_c, 1, 47, 110
1, 32784, Note_on_c, 9, 35, 113
1, 32785, Note_off_c, 9, 35, 64
1, 32793, Note_off_c, 4, 75, 64
1, 32798, Note_off_c, 2, 66, 64
1, 32799, Note_off_c, 2, 71, 64
1, 32801, Note_off_c, 2, 63, 64
1, 32807, Note_on_c, 9, 42, 71
1, 32808, Note_off_c, 9, 42, 64
1, 32814, Note_off_c, 1, 47, 64
1, 32825, Note_off_c, 7, 71, 64
1, 32826, Note_on_c, 0, 62, 89
1, 32826, Note_on_c, 0, 66, 99
1, 32826, Note_on_c, 0, 59, 93
1, 32827, Note_off_c, 7, 78, 64
1, 32827, Note_off_c, 7, 75, 64
1, 32828, Note_on_c, 2, 59, 39
1, 32830, Note_on_c, 2, 62, 73
1, 32830, Note_on_c, 7, 71, 83
1, 32831, Note_on_c, 1, 47, 110
1, 32831, Note_on_c, 2, 66, 82
1, 32831, Note_on_c, 7, 74, 83
1, 32831, Note_on_c, 9, 42, 83
1, 32832, Note_on_c, 2, 71, 81
1, 32832, Note_off_c, 9, 42, 64
1, 32833, Note_on_c, 7, 78, 83
1, 32833, Note_on_c, 9, 35, 127
1, 32834, Note_off_c, 9, 35, 64
1, 32853, Note_on_c, 4, 74, 95
1, 32853, Note_on_c, 4, 71, 95
1, 32854, Note_on_c, 9, 42, 65
1, 32855, Note_off_c, 9, 42, 64
1, 32856, Note_on_c, 3, 80, 113
1, 32880, Note_off_c, 2, 71, 64
1, 32880, Note_off_c, 2, 66, 64
1, 32880, Note_on_c, 9, 42, 82
1, 32881, Note_off_c, 9, 42, 64
1, 32882, Note_on_c, 2, 71, 75
1, 32882, Note_on_c, 2, 66, 66
1, 32883, Note_off_c, 1, 47, 64
1, 32897, Note_off_c, 3, 80, 64
1, 32898, Note_on_c, 3, 78, 91
1, 32900, Note_off_c, 4, 71, 64
1, 32900, Note_off_c, 4, 74, 64
1, 32901, Note_on_c, 4, 71, 89
1, 32901, Note_on_c, 4, 74, 89
1, 32902, Note_on_c, 1, 47, 107
1, 32904, Note_on_c, 9, 35, 103
1, 32904, Note_on_c, 9, 42, 71
1, 32905, Note_off_c, 9, 42, 64
1, 32905, Note_off_c, 9, 35, 64
1, 32915, Note_off_c, 1, 47, 64
1, 32921, Note_off_c, 3, 78, 64
1, 32922, Note_off_c, 2, 59, 64
1, 32922, Note_on_c, 3, 80, 108
1, 32923, Note_on_c, 2, 59, 56
1, 32924, Note_off_c, 2, 62, 64
1, 32924, Note_off_c, 4, 74, 64
1, 32924, Note_off_c, 4, 71, 64
1, 32925, Note_off_c, 2, 66, 64
1, 32925, Note_on_c, 2, 62, 73
1, 32925, Note_on_c, 4, 71, 91
1, 32925, Note_on_c, 4, 74, 87
1, 32926, Note_on_c, 1, 47, 110
1, 32926, Note_off_c, 2, 71, 64
1, 32926, Note_on_c, 2, 66, 79
1, 32927, Note_on_c, 2, 71, 74
1, 32928, Note_on_c, 9, 38, 118
1, 32929, Note_off_c, 9, 38, 64
1, 32929, Note_on_c, 9, 42, 75
1, 32930, Note_off_c, 9, 42, 64
1, 32951, Note_on_c, 9, 35, 118
1, 32951, Note_on_c, 9, 46, 70
1, 32952, Note_off_c, 9, 46, 64
1, 32952, Note_off_c, 9, 35, 64
1, 32954, Note_off_c, 2, 71, 64
1, 32954, Note_off_c, 2, 66, 64
1, 32954, Note_off_c, 2, 62, 64
1, 32956, Note_off_c, 2, 59, 64
1, 32962, Note_off_c, 1, 47, 64
1, 32970, Note_off_c, 3, 80, 64
1, 32972, Note_on_c, 3, 78, 104
1, 32972, Note_off_c, 4, 74, 64
1, 32972, Note_off_c, 4, 71, 64
1, 32973, Note_on_c, 4, 74, 91
1, 32973, Note_on_c, 4, 71, 92
1, 32976, Note_on_c, 9, 42, 73
1, 32977, Note_off_c, 9, 42, 64
1, 32996, Note_off_c, 3, 78, 64
1, 32996, Note_off_c, 4, 71, 64
1, 32996, Note_off_c, 4, 74, 64
1, 32997, Note_on_c, 3, 78, 114
1, 32997, Note_on_c, 4, 74, 89
1, 32997, Note_on_c, 4, 71, 91
1, 33000, Note_on_c, 9, 46, 72
1, 33001, Note_off_c, 9, 46, 64
1, 33001, Note_on_c, 9, 35, 117
1, 33002, Note_off_c, 9, 35, 64
1, 33025, Note_on_c, 9, 42, 73
1, 33026, Note_off_c, 9, 42, 64
1, 33030, Note_off_c, 3, 78, 64
1, 33044, Note_on_c, 1, 50, 112
1, 33045, Note_off_c, 4, 74, 64
1, 33047, Note_off_c, 4, 71, 64
1, 33048, Note_on_c, 9, 46, 73
1, 33049, Note_off_c, 9, 46, 64
1, 33049, Note_on_c, 9, 35, 127
1, 33050, Note_off_c, 9, 35, 64
1, 33070, Note_off_c, 1, 50, 64
1, 33072, Note_on_c, 9, 42, 73
1, 33073, Note_off_c, 9, 42, 64
1, 33093, Note_on_c, 1, 49, 110
1, 33095, Note_on_c, 2, 66, 76
1, 33095, Note_on_c, 2, 71, 71
1, 33095, Note_on_c, 9, 46, 71
1, 33096, Note_on_c, 2, 62, 57
1, 33096, Note_off_c, 9, 46, 64
1, 33097, Note_on_c, 9, 35, 127
1, 33098, Note_off_c, 9, 35, 64
1, 33119, Note_on_c, 3, 78, 114
1, 33119, Note_on_c, 4, 82, 111
1, 33119, Note_on_c, 4, 70, 99
1, 33119, Note_on_c, 9, 42, 77
1, 33120, Note_off_c, 9, 42, 64
1, 33123, Note_off_c, 1, 49, 64
1, 33140, Note_off_c, 3, 78, 64
1, 33141, Note_on_c, 1, 47, 103
1, 33141, Note_on_c, 3, 78, 103
1, 33142, Note_off_c, 2, 71, 64
1, 33142, Note_off_c, 4, 70, 64
1, 33142, Note_off_c, 4, 82, 64
1, 33142, Note_on_c, 9, 42, 76
1, 33143, Note_off_c, 2, 66, 64
1, 33143, Note_on_c, 2, 71, 76
1, 33143, Note_on_c, 4, 82, 98
1, 33143, Note_on_c, 4, 70, 102
1, 33143, Note_off_c, 9, 42, 64
1, 33144, Note_on_c, 2, 66, 77
1, 33144, Note_on_c, 9, 35, 127
1, 33145, Note_off_c, 9, 35, 64
1, 33150, Note_on_c, 2, 59, 30
1, 33156, Note_off_c, 0, 59, 64
1, 33156, Note_off_c, 0, 62, 64
1, 33159, Note_off_c, 3, 78, 64
1, 33161, Note_off_c, 0, 66, 64
1, 33161, Note_on_c, 3, 78, 95
1, 33165, Note_off_c, 1, 47, 64
1, 33165, Note_on_c, 9, 55, 92
1, 33165, Note_on_c, 9, 49, 87
1, 33166, Note_on_c, 1, 44, 102
1, 33166, Note_off_c, 4, 70, 64
1, 33166, Note_off_c, 4, 82, 64
1, 33166, Note_off_c, 9, 49, 64
1, 33166, Note_off_c, 9, 55, 64
1, 33167, Note_off_c, 2, 62, 64
1, 33167, Note_on_c, 4, 70, 96
1, 33167, Note_on_c, 4, 82, 99
1, 33167, Note_on_c, 9, 35, 127
1, 33168, Note_off_c, 2, 66, 64
1, 33168, Note_on_c, 2, 62, 60
1, 33168, Note_off_c, 9, 35, 64
1, 33169, Note_off_c, 2, 71, 64
1, 33169, Note_on_c, 2, 66, 70
1, 33170, Note_on_c, 2, 71, 57
1, 33184, Note_off_c, 3, 78, 64
1, 33185, Note_on_c, 3, 78, 113
1, 33189, Note_off_c, 1, 44, 64
1, 33190, Note_on_c, 1, 42, 104
1, 33190, Note_off_c, 2, 71, 64
1, 33190, Note_off_c, 4, 82, 64
1, 33191, Note_on_c, 2, 71, 77
1, 33191, Note_off_c, 4, 70, 64
1, 33191, Note_on_c, 4, 82, 100
1, 33191, Note_on_c, 4, 73, 103
1, 33203, Note_off_c, 2, 62, 64
1, 33204, Note_off_c, 2, 59, 64
1, 33206, Note_off_c, 2, 66, 64
1, 33206, Note_off_c, 2, 71, 64
1, 33209, Note_off_c, 7, 71, 64
1, 33210, Note_off_c, 7, 74, 64
1, 33211, Note_on_c, 2, 58, 48
1, 33212, Note_off_c, 7, 78, 64
1, 33213, Note_on_c, 2, 61, 75
1, 33213, Note_on_c, 2, 66, 79
1, 33214, Note_on_c, 2, 70, 82
1, 33214, Note_on_c, 7, 70, 85
1, 33214, Note_on_c, 7, 73, 87
1, 33214, Note_on_c, 7, 78, 83
1, 33215, Note_on_c, 0, 61, 105
1, 33215, Note_on_c, 0, 58, 95
1, 33215, Note_on_c, 0, 66, 108
1, 33215, Note_off_c, 1, 42, 64
1, 33215, Note_off_c, 4, 82, 64
1, 33217, Note_on_c, 1, 42, 110
1, 33217, Note_off_c, 3, 78, 64
1, 33218, Note_on_c, 9, 35, 120
1, 33218, Note_on_c, 9, 49, 109
1, 33219, Note_off_c, 9, 49, 64
1, 33219, Note_off_c, 9, 35, 64
1, 33227, Note_off_c, 4, 73, 64
1, 33233, Note_off_c, 2, 70, 64
1, 33236, Note_on_c, 2, 70, 79
1, 33237, Note_off_c, 2, 66, 64
1, 33238, Note_on_c, 2, 66, 78
1, 33257, Note_on_c, 5, 85, 80
1, 33265, Note_on_c, 9, 42, 85
1, 33266, Note_off_c, 9, 42, 64
1, 33274, Note_off_c, 1, 42, 64
1, 33284, Note_off_c, 2, 70, 64
1, 33285, Note_on_c, 2, 70, 79
1, 33286, Note_off_c, 2, 66, 64
1, 33287, Note_on_c, 2, 66, 73
1, 33287, Note_on_c, 9, 35, 107
1, 33288, Note_on_c, 1, 42, 107
1, 33288, Note_off_c, 2, 61, 64
1, 33288, Note_off_c, 9, 35, 64
1, 33289, Note_on_c, 2, 61, 51
1, 33289, Note_on_c, 9, 42, 75
1, 33290, Note_off_c, 9, 42, 64
1, 33305, Note_off_c, 1, 42, 64
1, 33307, Note_off_c, 2, 58, 64
1, 33307, Note_off_c, 5, 85, 64
1, 33308, Note_on_c, 2, 58, 66
1, 33309, Note_off_c, 2, 61, 64
1, 33310, Note_off_c, 2, 66, 64
1, 33310, Note_on_c, 2, 61, 77
1, 33310, Note_on_c, 5, 85, 78
1, 33311, Note_off_c, 2, 70, 64
1, 33311, Note_on_c, 2, 66, 79
1, 33312, Note_on_c, 2, 70, 83
1, 33313, Note_on_c, 1, 42, 109
1, 33313, Note_on_c, 9, 38, 120
1, 33313, Note_on_c, 9, 42, 81
1, 33314, Note_off_c, 9, 42, 64
1, 33314, Note_off_c, 9, 38, 64
1, 33331, Note_off_c, 2, 58, 64
1, 33332, Note_off_c, 2, 61, 64
1, 33334, Note_off_c, 2, 66, 64
1, 33334, Note_off_c, 2, 70, 64
1, 33337, Note_on_c, 9, 42, 75
1, 33338, Note_off_c, 9, 42, 64
1, 33352, Note_off_c, 5, 85, 64
1, 33355, Note_off_c, 1, 42, 64
1, 33355, Note_on_c, 5, 85, 80
1, 33361, Note_on_c, 9, 42, 77
1, 33362, Note_off_c, 9, 42, 64
1, 33379, Note_off_c, 5, 85, 64
1, 33380, Note_on_c, 5, 85, 80
1, 33382, Note_on_c, 9, 35, 103
1, 33383, Note_off_c, 9, 35, 64
1, 33384, Note_on_c, 2, 70, 78
1, 33385, Note_on_c, 2, 66, 77
1, 33386, Note_on_c, 9, 42, 73
1, 33387, Note_off_c, 9, 42, 64
1, 33404, Note_off_c, 2, 66, 64
1, 33406, Note_on_c, 9, 35, 113
1, 33407, Note_off_c, 9, 35, 64
1, 33408, Note_off_c, 2, 70, 64
1, 33409, Note_on_c, 9, 42, 83
1, 33410, Note_off_c, 9, 42, 64
1, 33417, Note_off_c, 5, 85, 64
1, 33429, Note_on_c, 3, 78, 112
1, 33429, Note_on_c, 4, 73, 99
1, 33429, Note_on_c, 4, 70, 92
1, 33431, Note_on_c, 9, 35, 109
1, 33432, Note_off_c, 9, 35, 64
1, 33433, Note_on_c, 1, 42, 109
1, 33433, Note_on_c, 9, 42, 75
1, 33434, Note_off_c, 9, 42, 64
1, 33447, Note_off_c, 3, 78, 64
1, 33450, Note_on_c, 3, 78, 100
1, 33452, Note_off_c, 4, 70, 64
1, 33452, Note_off_c, 4, 73, 64
1, 33453, Note_on_c, 2, 66, 77
1, 33453, Note_on_c, 4, 73, 95
1, 33453, Note_on_c, 4, 70, 86
1, 33454, Note_off_c, 2, 66, 64
1, 33454, Note_on_c, 2, 70, 83
1, 33455, Note_off_c, 2, 70, 64
1, 33455, Note_on_c, 9, 42, 69
1, 33456, Note_on_c, 2, 61, 55
1, 33456, Note_off_c, 9, 42, 64
1, 33457, Note_off_c, 1, 42, 64
1, 33457, Note_off_c, 2, 61, 64
1, 33476, Note_on_c, 2, 70, 79
1, 33476, Note_off_c, 3, 78, 64
1, 33476, Note_off_c, 4, 70, 64
1, 33476, Note_off_c, 4, 73, 64
1, 33477, Note_off_c, 2, 70, 64
1, 33477, Note_on_c, 2, 66, 74
1, 33477, Note_on_c, 4, 70, 88
1, 33477, Note_on_c, 4, 73, 100
1, 33478, Note_off_c, 2, 66, 64
1, 33478, Note_on_c, 3, 78, 114
1, 33478, Note_on_c, 9, 35, 117
1, 33479, Note_off_c, 9, 35, 64
1, 33479, Note_on_c, 9, 42, 76
1, 33480, Note_on_c, 1, 42, 108
1, 33480, Note_off_c, 9, 42, 64
1, 33500, Note_on_c, 2, 61, 75
1, 33501, Note_on_c, 2, 66, 79
1, 33503, Note_off_c, 1, 42, 64
1, 33503, Note_on_c, 2, 70, 81
1, 33503, Note_on_c, 9, 38, 116
1, 33503, Note_on_c, 9, 42, 81
1, 33504, Note_on_c, 1, 37, 104
1, 33504, Note_off_c, 9, 42, 64
1, 33504, Note_off_c, 9, 38, 64
1, 33524, Note_off_c, 3, 78, 64
1, 33524, Note_off_c, 4, 73, 64
1, 33524, Note_off_c, 4, 70, 64
1, 33525, Note_on_c, 4, 73, 102
1, 33525, Note_on_c, 4, 70, 97
1, 33526, Note_off_c, 1, 37, 64
1, 33526, Note_off_c, 2, 61, 64
1, 33527, Note_on_c, 1, 39, 108
1, 33527, Note_on_c, 3, 78, 115
1, 33527, Note_on_c, 9, 42, 73
1, 33528, Note_off_c, 2, 70, 64
1, 33528, Note_off_c, 9, 42, 64
1, 33529, Note_off_c, 2, 66, 64
1, 33551, Note_off_c, 1, 39, 64
1, 33551, Note_on_c, 9, 42, 73
1, 33552, Note_on_c, 1, 42, 105
1, 33552, Note_on_c, 2, 61, 63
1, 33552, Note_off_c, 9, 42, 64
1, 33553, Note_off_c, 2, 61, 64
1, 33553, Note_on_c, 2, 66, 77
1, 33554, Note_off_c, 2, 66, 64
1, 33554, Note_on_c, 2, 70, 80
1, 33555, Note_off_c, 2, 70, 64
1, 33556, Note_off_c, 0, 66, 64
1, 33571, Note_off_c, 0, 58, 64
1, 33572, Note_off_c, 0, 61, 64
1, 33574, Note_off_c, 3, 78, 64
1, 33575, Note_on_c, 9, 42, 75
1, 33576, Note_off_c, 9, 42, 64
1, 33576, Note_on_c, 9, 35, 110
1, 33577, Note_off_c, 9, 35, 64
1, 33578, Note_on_c, 2, 66, 69
1, 33579, Note_off_c, 2, 66, 64
1, 33579, Note_on_c, 2, 70, 79
1, 33580, Note_off_c, 2, 70, 64
1, 33584, Note_off_c, 1, 42, 64
1, 33585, Note_off_c, 4, 70, 64
1, 33585, Note_off_c, 4, 73, 64
1, 33594, Note_on_c, 3, 82, 109
1, 33595, Note_off_c, 7, 78, 64
1, 33595, Note_off_c, 7, 73, 64
1, 33595, Note_off_c, 7, 70, 64
1, 33596, Note_on_c, 0, 61, 103
1, 33596, Note_on_c, 0, 58, 95
1, 33597, Note_on_c, 0, 65, 96
1, 33597, Note_on_c, 4, 70, 91
1, 33597, Note_on_c, 4, 73, 95
1, 33597, Note_on_c, 4, 82, 95
1, 33598, Note_on_c, 7, 70, 80
1, 33598, Note_on_c, 7, 77, 79
1, 33598, Note_on_c, 7, 73, 69
1, 33599, Note_on_c, 9, 42, 79
1, 33600, Note_off_c, 9, 42, 64
1, 33601, Note_on_c, 1, 46, 109
1, 33601, Note_on_c, 2, 58, 74
1, 33601, Note_on_c, 9, 35, 121
1, 33602, Note_off_c, 2, 58, 64
1, 33602, Note_off_c, 9, 35, 64
1, 33603, Note_on_c, 2, 61, 75
1, 33603, Note_on_c, 2, 65, 77
1, 33604, Note_off_c, 2, 65, 64
1, 33604, Note_off_c, 2, 61, 64
1, 33604, Note_on_c, 2, 70, 80
1, 33605, Note_off_c, 2, 70, 64
1, 33618, Control_c, 4, 11, 126
1, 33621, Control_c, 0, 11, 126
1, 33621, Control_c, 1, 11, 126
1, 33621, Control_c, 2, 11, 126
1, 33621, Control_c, 3, 11, 126
1, 33621, Control_c, 5, 11, 126
1, 33621, Control_c, 7, 11, 126
1, 33621, Control_c, 9, 11, 126
1, 33622, Note_on_c, 9, 42, 73
1, 33623, Note_off_c, 9, 42, 64
1, 33626, Note_on_c, 2, 65, 73
1, 33627, Note_on_c, 2, 70, 78
1, 33644, Note_off_c, 1, 46, 64
1, 33646, Note_on_c, 9, 42, 67
1, 33647, Note_off_c, 9, 42, 64
1, 33657, Note_off_c, 4, 82, 64
1, 33660, Control_c, 4, 11, 124
1, 33663, Control_c, 0, 11, 124
1, 33663, Control_c, 1, 11, 124
1, 33663, Control_c, 2, 11, 124
1, 33663, Control_c, 3, 11, 124
1, 33663, Control_c, 5, 11, 124
1, 33663, Note_on_c, 5, 85, 82
1, 33663, Control_c, 7, 11, 124
1, 33663, Control_c, 9, 11, 124
1, 33666, Note_off_c, 3, 82, 64
1, 33668, Note_off_c, 4, 73, 64
1, 33668, Note_off_c, 4, 70, 64
1, 33669, Note_off_c, 2, 70, 64
1, 33669, Note_on_c, 4, 80, 93
1, 33669, Note_on_c, 4, 73, 94
1, 33669, Note_on_c, 4, 70, 89
1, 33670, Note_on_c, 2, 70, 77
1, 33670, Note_on_c, 3, 80, 106
1, 33670, Note_on_c, 9, 42, 68
1, 33671, Note_on_c, 1, 46, 110
1, 33671, Note_off_c, 2, 70, 64
1, 33671, Note_off_c, 2, 65, 64
1, 33671, Note_off_c, 9, 42, 64
1, 33671, Note_on_c, 9, 35, 104
1, 33672, Note_on_c, 2, 65, 73
1, 33672, Note_off_c, 9, 35, 64
1, 33673, Note_off_c, 2, 65, 64
1, 33686, Note_off_c, 1, 46, 64
1, 33693, Note_on_c, 2, 58, 61
1, 33694, Note_off_c, 2, 58, 64
1, 33694, Note_on_c, 9, 42, 79
1, 33695, Note_on_c, 2, 61, 75
1, 33695, Note_off_c, 9, 42, 64
1, 33696, Note_on_c, 1, 46, 110
1, 33696, Note_off_c, 2, 61, 64
1, 33697, Note_on_c, 2, 65, 81
1, 33697, Note_on_c, 2, 70, 78
1, 33697, Note_on_c, 9, 38, 120
1, 33698, Note_off_c, 2, 70, 64
1, 33698, Note_off_c, 2, 65, 64
1, 33698, Note_off_c, 9, 38, 64
1, 33702, Control_c, 4, 11, 122
1, 33705, Control_c, 0, 11, 122
1, 33705, Control_c, 1, 11, 122
1, 33705, Control_c, 2, 11, 122
1, 33705, Control_c, 3, 11, 122
1, 33705, Control_c, 5, 11, 122
1, 33705, Control_c, 7, 11, 122
1, 33705, Control_c, 9, 11, 122
1, 33715, Note_off_c, 4, 80, 64
1, 33715, Note_off_c, 5, 85, 64
1, 33717, Note_on_c, 4, 78, 90
1, 33718, Note_on_c, 5, 85, 84
1, 33719, Note_on_c, 2, 65, 78
1, 33719, Note_on_c, 9, 42, 75
1, 33720, Note_on_c, 2, 61, 67
1, 33720, Note_off_c, 9, 42, 64
1, 33721, Note_on_c, 2, 70, 77
1, 33739, Note_off_c, 4, 78, 64
1, 33739, Note_off_c, 5, 85, 64
1, 33740, Note_off_c, 1, 46, 64
1, 33741, Note_off_c, 3, 80, 64
1, 33741, Note_off_c, 4, 70, 64
1, 33741, Note_off_c, 4, 73, 64
1, 33741, Note_on_c, 4, 75, 91
1, 33742, Note_on_c, 5, 85, 82
1, 33745, Control_c, 4, 11, 120
1, 33745, Note_on_c, 9, 42, 74
1, 33746, Note_off_c, 9, 42, 64
1, 33748, Control_c, 0, 11, 120
1, 33748, Control_c, 1, 11, 120
1, 33748, Note_off_c, 2, 70, 64
1, 33748, Note_off_c, 2, 61, 64
1, 33748, Note_off_c, 2, 65, 64
1, 33748, Control_c, 2, 11, 120
1, 33748, Control_c, 3, 11, 120
1, 33748, Control_c, 5, 11, 120
1, 33748, Control_c, 7, 11, 120
1, 33748, Control_c, 9, 11, 120
1, 33760, Note_off_c, 5, 85, 64
1, 33763, Note_off_c, 4, 75, 64
1, 33763, Note_on_c, 5, 85, 77
1, 33765, Note_on_c, 4, 73, 90
1, 33768, Note_on_c, 9, 35, 110
1, 33769, Note_off_c, 9, 35, 64
1, 33769, Note_on_c, 9, 42, 72
1, 33770, Note_off_c, 9, 42, 64
1, 33772, Note_on_c, 2, 65, 79
1, 33772, Note_on_c, 2, 61, 70
1, 33773, Note_on_c, 2, 70, 79
1, 33782, Note_off_c, 5, 85, 64
1, 33783, Note_on_c, 5, 85, 76
1, 33790, Control_c, 0, 11, 118
1, 33790, Control_c, 1, 11, 118
1, 33790, Control_c, 2, 11, 118
1, 33790, Control_c, 3, 11, 118
1, 33790, Control_c, 4, 11, 118
1, 33790, Control_c, 5, 11, 118
1, 33790, Control_c, 7, 11, 118
1, 33790, Control_c, 9, 11, 118
1, 33792, Note_on_c, 9, 35, 115
1, 33792, Note_on_c, 9, 42, 76
1, 33793, Note_off_c, 9, 42, 64
1, 33793, Note_off_c, 9, 35, 64
1, 33800, Note_off_c, 2, 70, 64
1, 33800, Note_off_c, 2, 65, 64
1, 33801, Note_off_c, 4, 73, 64
1, 33803, Note_off_c, 2, 61, 64
1, 33814, Note_off_c, 5, 85, 64
1, 33815, Note_on_c, 9, 42, 71
1, 33816, Note_off_c, 9, 42, 64
1, 33817, Note_on_c, 5, 82, 80
1, 33817, Note_on_c, 9, 35, 107
1, 33818, Note_on_c, 1, 46, 110
1, 33818, Note_off_c, 9, 35, 64
1, 33819, Note_on_c, 2, 65, 79
1, 33820, Note_on_c, 2, 70, 78
1, 33832, Control_c, 0, 11, 116
1, 33832, Control_c, 1, 11, 116
1, 33832, Control_c, 2, 11, 116
1, 33832, Control_c, 3, 11, 116
1, 33832, Control_c, 4, 11, 116
1, 33832, Control_c, 5, 11, 116
1, 33832, Control_c, 7, 11, 116
1, 33832, Control_c, 9, 11, 116
1, 33838, Note_off_c, 1, 46, 64
1, 33840, Note_off_c, 2, 70, 64
1, 33840, Note_on_c, 9, 42, 73
1, 33841, Note_off_c, 9, 42, 64
1, 33844, Note_off_c, 2, 65, 64
1, 33860, Note_off_c, 5, 82, 64
1, 33860, Note_on_c, 5, 80, 75
1, 33863, Note_on_c, 1, 46, 109
1, 33863, Note_on_c, 2, 70, 79
1, 33863, Note_on_c, 9, 42, 73
1, 33864, Note_on_c, 2, 65, 77
1, 33864, Note_off_c, 9, 42, 64
1, 33865, Note_on_c, 9, 35, 110
1, 33866, Note_off_c, 9, 35, 64
1, 33875, Control_c, 0, 11, 114
1, 33875, Control_c, 1, 11, 114
1, 33875, Control_c, 2, 11, 114
1, 33875, Control_c, 3, 11, 114
1, 33875, Control_c, 4, 11, 114
1, 33875, Control_c, 5, 11, 114
1, 33875, Control_c, 7, 11, 114
1, 33875, Control_c, 9, 11, 114
1, 33884, Note_on_c, 3, 73, 110
1, 33885, Note_on_c, 2, 58, 52
1, 33885, Note_on_c, 4, 73, 97
1, 33886, Note_off_c, 2, 58, 64
1, 33887, Note_off_c, 1, 46, 64
1, 33887, Note_off_c, 2, 65, 64
1, 33887, Note_on_c, 2, 61, 73
1, 33887, Note_on_c, 9, 42, 78
1, 33888, Note_off_c, 2, 61, 64
1, 33888, Note_off_c, 2, 70, 64
1, 33888, Note_on_c, 2, 65, 79
1, 33888, Note_off_c, 9, 42, 64
1, 33889, Note_on_c, 1, 41, 109
1, 33889, Note_off_c, 2, 65, 64
1, 33889, Note_on_c, 2, 70, 80
1, 33889, Note_on_c, 9, 38, 121
1, 33890, Note_off_c, 2, 70, 64
1, 33890, Note_off_c, 9, 38, 64
1, 33904, Note_on_c, 5, 78, 77
1, 33905, Note_off_c, 3, 73, 64
1, 33905, Note_off_c, 5, 80, 64
1, 33906, Note_on_c, 3, 73, 98
1, 33908, Note_off_c, 4, 73, 64
1, 33909, Note_on_c, 4, 73, 86
1, 33911, Note_off_c, 1, 41, 64
1, 33911, Note_on_c, 2, 70, 77
1, 33912, Note_on_c, 1, 44, 106
1, 33912, Note_off_c, 2, 70, 64
1, 33912, Note_on_c, 2, 65, 77
1, 33913, Note_off_c, 2, 65, 64
1, 33913, Note_on_c, 9, 42, 75
1, 33914, Control_c, 4, 11, 112
1, 33914, Note_off_c, 9, 42, 64
1, 33917, Control_c, 0, 11, 112
1, 33917, Control_c, 1, 11, 112
1, 33917, Control_c, 2, 11, 112
1, 33917, Control_c, 3, 11, 112
1, 33917, Control_c, 5, 11, 112
1, 33917, Control_c, 7, 11, 112
1, 33917, Control_c, 9, 11, 112
1, 33927, Note_off_c, 3, 73, 64
1, 33928, Note_off_c, 0, 65, 64
1, 33929, Note_off_c, 0, 61, 64
1, 33929, Note_on_c, 3, 73, 101
1, 33932, Note_off_c, 4, 73, 64
1, 33933, Note_on_c, 4, 73, 97
1, 33934, Note_off_c, 0, 58, 64
1, 33934, Note_off_c, 1, 44, 64
1, 33934, Note_on_c, 2, 61, 75
1, 33935, Note_on_c, 1, 46, 105
1, 33935, Note_on_c, 2, 65, 79
1, 33935, Note_on_c, 9, 42, 76
1, 33936, Note_on_c, 2, 70, 81
1, 33936, Note_off_c, 9, 42, 64
1, 33938, Note_off_c, 5, 78, 64
1, 33953, Note_off_c, 2, 70, 64
1, 33954, Note_off_c, 2, 65, 64
1, 33954, Note_off_c, 2, 61, 64
1, 33956, Control_c, 4, 11, 110
1, 33959, Control_c, 0, 11, 110
1, 33959, Control_c, 1, 11, 110
1, 33959, Control_c, 2, 11, 110
1, 33959, Control_c, 3, 11, 110
1, 33959, Control_c, 5, 11, 110
1, 33959, Control_c, 7, 11, 110
1, 33959, Control_c, 9, 11, 110
1, 33960, Note_on_c, 9, 42, 75
1, 33961, Note_off_c, 9, 42, 64
1, 33961, Note_on_c, 9, 35, 87
1, 33962, Note_off_c, 9, 35, 64
1, 33964, Note_off_c, 1, 46, 64
1, 33978, Note_on_c, 0, 66, 96
1, 33978, Note_on_c, 0, 59, 92
1, 33979, Note_on_c, 0, 63, 108
1, 33979, Note_on_c, 3, 80, 106
1, 33979, Note_off_c, 7, 77, 64
1, 33980, Note_off_c, 3, 73, 64
1, 33980, Note_off_c, 7, 73, 64
1, 33981, Note_off_c, 4, 73, 64
1, 33981, Note_on_c, 4, 78, 98
1, 33981, Note_on_c, 4, 75, 97
1, 33981, Note_off_c, 7, 70, 64
1, 33982, Note_on_c, 2, 59, 50
1, 33982, Note_on_c, 7, 71, 86
1, 33982, Note_on_c, 7, 75, 77
1, 33983, Note_off_c, 2, 59, 64
1, 33983, Note_on_c, 7, 78, 76
1, 33984, Note_on_c, 2, 63, 74
1, 33984, Note_on_c, 9, 42, 82
1, 33985, Note_on_c, 1, 47, 111
1, 33985, Note_off_c, 2, 63, 64
1, 33985, Note_on_c, 2, 66, 74
1, 33985, Note_off_c, 9, 42, 64
1, 33985, Note_on_c, 9, 35, 125
1, 33986, Note_off_c, 2, 66, 64
1, 33986, Note_on_c, 2, 71, 79
1, 33986, Note_off_c, 9, 35, 64
1, 33987, Note_off_c, 2, 71, 64
1, 33998, Control_c, 4, 11, 108
1, 34001, Control_c, 0, 11, 108
1, 34001, Control_c, 1, 11, 108
1, 34001, Control_c, 2, 11, 108
1, 34001, Control_c, 3, 11, 108
1, 34001, Control_c, 5, 11, 108
1, 34001, Control_c, 7, 11, 108
1, 34001, Control_c, 9, 11, 108
1, 34006, Note_on_c, 9, 42, 71
1, 34007, Note_on_c, 2, 71, 76
1, 34007, Note_on_c, 2, 66, 76
1, 34007, Note_off_c, 9, 42, 64
1, 34026, Note_off_c, 1, 47, 64
1, 34031, Note_on_c, 9, 42, 74
1, 34032, Note_off_c, 9, 42, 64
1, 34041, Control_c, 4, 11, 106
1, 34044, Control_c, 0, 11, 106
1, 34044, Control_c, 1, 11, 106
1, 34044, Control_c, 2, 11, 106
1, 34044, Control_c, 3, 11, 106
1, 34044, Control_c, 5, 11, 106
1, 34044, Control_c, 7, 11, 106
1, 34044, Control_c, 9, 11, 106
1, 34046, Note_off_c, 3, 80, 64
1, 34049, Note_on_c, 3, 78, 106
1, 34052, Note_off_c, 4, 75, 64
1, 34052, Note_off_c, 4, 78, 64
1, 34053, Note_off_c, 2, 71, 64
1, 34053, Note_on_c, 4, 78, 92
1, 34053, Note_on_c, 4, 75, 90
1, 34055, Note_on_c, 1, 47, 104
1, 34055, Note_off_c, 2, 66, 64
1, 34055, Note_on_c, 9, 35, 99
1, 34056, Note_on_c, 2, 66, 76
1, 34056, Note_off_c, 9, 35, 64
1, 34057, Note_off_c, 2, 66, 64
1, 34057, Note_on_c, 2, 71, 72
1, 34057, Note_on_c, 9, 42, 70
1, 34058, Note_off_c, 2, 71, 64
1, 34058, Note_on_c, 2, 63, 58
1, 34058, Note_off_c, 9, 42, 64
1, 34059, Note_off_c, 2, 63, 64
1, 34070, Note_off_c, 1, 47, 64
1, 34079, Note_on_c, 1, 47, 109
1, 34079, Note_on_c, 9, 38, 118
1, 34080, Note_off_c, 9, 38, 64
1, 34081, Note_on_c, 2, 66, 75
1, 34081, Note_on_c, 9, 42, 79
1, 34082, Note_off_c, 2, 66, 64
1, 34082, Note_off_c, 9, 42, 64
1, 34083, Control_c, 4, 11, 104
1, 34084, Note_on_c, 2, 71, 80
1, 34085, Note_off_c, 2, 71, 64
1, 34086, Control_c, 0, 11, 104
1, 34086, Control_c, 1, 11, 104
1, 34086, Control_c, 2, 11, 104
1, 34086, Control_c, 3, 11, 104
1, 34086, Control_c, 5, 11, 104
1, 34086, Control_c, 7, 11, 104
1, 34086, Control_c, 9, 11, 104
1, 34103, Note_on_c, 9, 42, 73
1, 34104, Note_off_c, 9, 42, 64
1, 34106, Note_on_c, 2, 66, 77
1, 34106, Note_on_c, 5, 78, 75
1, 34107, Note_on_c, 2, 71, 73
1, 34107, Note_on_c, 2, 63, 68
1, 34108, Note_on_c, 2, 59, 51
1, 34108, Note_off_c, 3, 78, 64
1, 34121, Note_off_c, 1, 47, 64
1, 34128, Control_c, 0, 11, 102
1, 34128, Control_c, 1, 11, 102
1, 34128, Control_c, 2, 11, 102
1, 34128, Control_c, 3, 11, 102
1, 34128, Control_c, 4, 11, 102
1, 34128, Control_c, 5, 11, 102
1, 34128, Control_c, 7, 11, 102
1, 34128, Control_c, 9, 11, 102
1, 34129, Note_on_c, 9, 42, 76
1, 34130, Note_off_c, 9, 42, 64
1, 34137, Note_off_c, 4, 75, 64
1, 34137, Note_off_c, 4, 78, 64
1, 34149, Note_off_c, 2, 71, 64
1, 34149, Note_off_c, 5, 78, 64
1, 34150, Note_on_c, 5, 78, 85
1, 34151, Note_on_c, 9, 35, 106
1, 34152, Note_off_c, 2, 66, 64
1, 34152, Note_off_c, 9, 35, 64
1, 34152, Note_on_c, 9, 42, 72
1, 34153, Note_on_c, 2, 66, 75
1, 34153, Note_off_c, 9, 42, 64
1, 34154, Note_on_c, 2, 71, 76
1, 34171, Control_c, 0, 11, 100
1, 34171, Control_c, 1, 11, 100
1, 34171, Control_c, 2, 11, 100
1, 34171, Control_c, 3, 11, 100
1, 34171, Control_c, 4, 11, 100
1, 34171, Control_c, 5, 11, 100
1, 34171, Control_c, 7, 11, 100
1, 34171, Control_c, 9, 11, 100
1, 34177, Note_on_c, 9, 35, 111
1, 34177, Note_on_c, 9, 46, 80
1, 34178, Note_off_c, 9, 46, 64
1, 34178, Note_off_c, 9, 35, 64
1, 34199, Note_off_c, 2, 59, 64
1, 34199, Note_on_c, 9, 46, 76
1, 34200, Note_off_c, 9, 46, 64
1, 34200, Note_on_c, 9, 35, 108
1, 34201, Note_on_c, 1, 47, 115
1, 34201, Note_off_c, 9, 35, 64
1, 34213, Control_c, 0, 11, 98
1, 34213, Control_c, 1, 11, 98
1, 34213, Control_c, 2, 11, 98
1, 34213, Control_c, 3, 11, 98
1, 34213, Control_c, 4, 11, 98
1, 34213, Control_c, 5, 11, 98
1, 34213, Control_c, 7, 11, 98
1, 34213, Control_c, 9, 11, 98
1, 34220, Note_off_c, 1, 47, 64
1, 34221, Note_off_c, 2, 63, 64
1, 34222, Note_off_c, 2, 66, 64
1, 34222, Note_on_c, 2, 63, 72
1, 34222, Note_off_c, 5, 78, 64
1, 34223, Note_off_c, 2, 63, 64
1, 34223, Note_off_c, 2, 71, 64
1, 34223, Note_on_c, 2, 66, 79
1, 34223, Note_on_c, 9, 42, 81
1, 34224, Note_off_c, 2, 66, 64
1, 34224, Note_on_c, 2, 71, 79
1, 34224, Note_off_c, 9, 42, 64
1, 34225, Note_off_c, 2, 71, 64
1, 34246, Note_on_c, 2, 66, 63
1, 34247, Note_on_c, 1, 47, 115
1, 34247, Note_off_c, 2, 66, 64
1, 34247, Note_on_c, 2, 71, 78
1, 34247, Note_on_c, 9, 35, 113
1, 34247, Note_on_c, 9, 42, 74
1, 34248, Note_off_c, 2, 71, 64
1, 34248, Note_off_c, 9, 42, 64
1, 34248, Note_off_c, 9, 35, 64
1, 34254, Control_c, 4, 11, 96
1, 34255, Control_c, 0, 11, 96
1, 34255, Control_c, 1, 11, 96
1, 34255, Control_c, 2, 11, 96
1, 34255, Control_c, 3, 11, 96
1, 34255, Control_c, 5, 11, 96
1, 34255, Control_c, 7, 11, 96
1, 34255, Control_c, 9, 11, 96
1, 34268, Note_on_c, 4, 75, 89
1, 34268, Note_on_c, 4, 71, 89
1, 34270, Note_off_c, 1, 47, 64
1, 34270, Note_on_c, 3, 78, 114
1, 34270, Note_on_c, 9, 42, 77
1, 34271, Note_on_c, 1, 42, 110
1, 34271, Note_on_c, 2, 66, 79
1, 34271, Note_off_c, 9, 42, 64
1, 34271, Note_on_c, 9, 38, 122
1, 34272, Note_on_c, 2, 63, 66
1, 34272, Note_off_c, 9, 38, 64
1, 34273, Note_on_c, 2, 71, 77
1, 34291, Note_off_c, 2, 71, 64
1, 34291, Note_off_c, 3, 78, 64
1, 34291, Note_off_c, 4, 71, 64
1, 34291, Note_off_c, 4, 75, 64
1, 34292, Note_on_c, 2, 71, 77
1, 34292, Note_on_c, 4, 71, 83
1, 34292, Note_on_c, 4, 75, 88
1, 34293, Note_off_c, 1, 42, 64
1, 34293, Note_off_c, 2, 66, 64
1, 34293, Note_on_c, 3, 78, 97
1, 34294, Note_on_c, 2, 66, 73
1, 34294, Note_on_c, 9, 42, 73
1, 34295, Note_on_c, 1, 44, 108
1, 34295, Note_off_c, 9, 42, 64
1, 34297, Control_c, 4, 11, 94
1, 34298, Control_c, 0, 11, 94
1, 34298, Control_c, 1, 11, 94
1, 34298, Control_c, 2, 11, 94
1, 34298, Control_c, 3, 11, 94
1, 34298, Control_c, 5, 11, 94
1, 34298, Control_c, 7, 11, 94
1, 34298, Control_c, 9, 11, 94
1, 34313, Note_off_c, 0, 63, 64
1, 34314, Note_off_c, 3, 78, 64
1, 34315, Note_off_c, 4, 75, 64
1, 34315, Note_off_c, 4, 71, 64
1, 34316, Note_off_c, 0, 66, 64
1, 34316, Note_off_c, 2, 63, 64
1, 34316, Note_on_c, 3, 78, 108
1, 34316, Note_on_c, 4, 75, 97
1, 34316, Note_on_c, 4, 71, 90
1, 34317, Note_off_c, 0, 59, 64
1, 34317, Note_off_c, 2, 66, 64
1, 34317, Note_on_c, 2, 63, 75
1, 34318, Note_off_c, 2, 71, 64
1, 34318, Note_on_c, 2, 66, 79
1, 34319, Note_on_c, 2, 71, 80
1, 34319, Note_on_c, 9, 42, 82
1, 34320, Note_off_c, 1, 44, 64
1, 34320, Note_off_c, 9, 42, 64
1, 34320, Note_on_c, 9, 35, 127
1, 34321, Note_on_c, 1, 47, 114
1, 34321, Note_off_c, 9, 35, 64
1, 34334, Note_off_c, 2, 66, 64
1, 34335, Note_off_c, 2, 71, 64
1, 34337, Note_off_c, 2, 63, 64
1, 34339, Control_c, 4, 11, 92
1, 34340, Control_c, 0, 11, 92
1, 34340, Control_c, 1, 11, 92
1, 34340, Control_c, 2, 11, 92
1, 34340, Control_c, 3, 11, 92
1, 34340, Control_c, 5, 11, 92
1, 34340, Control_c, 7, 11, 92
1, 34340, Control_c, 9, 11, 92
1, 34342, Note_on_c, 9, 42, 74
1, 34343, Note_off_c, 9, 42, 64
1, 34347, Note_off_c, 3, 78, 64
1, 34351, Note_off_c, 1, 47, 64
1, 34352, Note_off_c, 4, 71, 64
1, 34352, Note_off_c, 4, 75, 64
1, 34361, Note_off_c, 7, 71, 64
1, 34362, Note_on_c, 0, 62, 89
1, 34362, Note_on_c, 0, 66, 99
1, 34362, Note_on_c, 0, 59, 93
1, 34363, Note_off_c, 7, 78, 64
1, 34363, Note_off_c, 7, 75, 64
1, 34364, Note_on_c, 2, 59, 39
1, 34366, Note_on_c, 2, 62, 73
1, 34366, Note_on_c, 7, 71, 83
1, 34367, Note_on_c, 2, 66, 82
1, 34367, Note_on_c, 7, 74, 83
1, 34367, Note_on_c, 9, 42, 82
1, 34368, Note_on_c, 1, 47, 109
1, 34368, Note_on_c, 2, 71, 81
1, 34368, Note_on_c, 7, 78, 83
1, 34368, Note_off_c, 9, 42, 64
1, 34369, Note_on_c, 9, 35, 127
1, 34370, Note_off_c, 9, 35, 64
1, 34381, Control_c, 4, 11, 90
1, 34382, Control_c, 0, 11, 90
1, 34382, Control_c, 1, 11, 90
1, 34382, Control_c, 2, 11, 90
1, 34382, Control_c, 3, 11, 90
1, 34382, Control_c, 5, 11, 90
1, 34382, Control_c, 7, 11, 90
1, 34382, Control_c, 9, 11, 90
1, 34390, Note_on_c, 9, 46, 76
1, 34391, Note_off_c, 9, 46, 64
1, 34412, Note_on_c, 4, 74, 98
1, 34412, Note_on_c, 4, 71, 98
1, 34413, Note_on_c, 3, 78, 111
1, 34414, Note_off_c, 1, 47, 64
1, 34415, Note_on_c, 1, 50, 110
1, 34415, Note_on_c, 9, 42, 82
1, 34416, Note_off_c, 2, 71, 64
1, 34416, Note_off_c, 2, 66, 64
1, 34416, Note_off_c, 9, 42, 64
1, 34417, Note_on_c, 9, 38, 117
1, 34418, Note_on_c, 2, 71, 75
1, 34418, Note_on_c, 2, 66, 66
1, 34418, Note_off_c, 9, 38, 64
1, 34424, Control_c, 4, 11, 88
1, 34425, Control_c, 0, 11, 88
1, 34425, Control_c, 1, 11, 88
1, 34425, Control_c, 2, 11, 88
1, 34425, Control_c, 3, 11, 88
1, 34425, Control_c, 5, 11, 88
1, 34425, Control_c, 7, 11, 88
1, 34425, Control_c, 9, 11, 88
1, 34439, Note_on_c, 9, 46, 74
1, 34440, Note_off_c, 1, 50, 64
1, 34440, Note_off_c, 9, 46, 64
1, 34441, Note_on_c, 1, 49, 109
1, 34458, Note_off_c, 2, 59, 64
1, 34459, Note_on_c, 2, 59, 56
1, 34459, Note_off_c, 4, 71, 64
1, 34459, Note_off_c, 4, 74, 64
1, 34460, Note_off_c, 2, 62, 64
1, 34460, Note_on_c, 4, 71, 93
1, 34460, Note_on_c, 4, 74, 97
1, 34461, Note_off_c, 2, 66, 64
1, 34461, Note_on_c, 2, 62, 73
1, 34461, Note_off_c, 3, 78, 64
1, 34462, Note_off_c, 2, 71, 64
1, 34462, Note_on_c, 2, 66, 79
1, 34463, Note_on_c, 2, 71, 74
1, 34463, Note_on_c, 3, 80, 105
1, 34463, Note_on_c, 9, 35, 96
1, 34463, Note_on_c, 9, 38, 112
1, 34464, Note_off_c, 9, 38, 64
1, 34464, Note_off_c, 9, 35, 64
1, 34465, Note_on_c, 9, 42, 79
1, 34466, Control_c, 4, 11, 86
1, 34466, Note_off_c, 9, 42, 64
1, 34467, Control_c, 0, 11, 86
1, 34467, Control_c, 1, 11, 86
1, 34467, Control_c, 2, 11, 86
1, 34467, Control_c, 3, 11, 86
1, 34467, Control_c, 5, 11, 86
1, 34467, Control_c, 7, 11, 86
1, 34467, Control_c, 9, 11, 86
1, 34486, Note_off_c, 1, 49, 64
1, 34487, Note_on_c, 1, 47, 103
1, 34488, Note_on_c, 9, 46, 74
1, 34489, Note_off_c, 9, 46, 64
1, 34490, Note_off_c, 2, 71, 64
1, 34490, Note_off_c, 2, 66, 64
1, 34490, Note_off_c, 2, 62, 64
1, 34492, Note_off_c, 2, 59, 64
1, 34507, Note_off_c, 3, 80, 64
1, 34507, Note_on_c, 3, 78, 100
1, 34507, Note_off_c, 4, 74, 64
1, 34507, Note_off_c, 4, 71, 64
1, 34508, Note_on_c, 4, 71, 92
1, 34508, Control_c, 4, 11, 84
1, 34508, Note_on_c, 4, 74, 96
1, 34509, Control_c, 0, 11, 84
1, 34509, Control_c, 1, 11, 84
1, 34509, Control_c, 2, 11, 84
1, 34509, Control_c, 3, 11, 84
1, 34509, Control_c, 5, 11, 84
1, 34509, Control_c, 7, 11, 84
1, 34509, Control_c, 9, 11, 84
1, 34512, Note_off_c, 1, 47, 64
1, 34512, Note_on_c, 9, 38, 118
1, 34513, Note_on_c, 1, 44, 103
1, 34513, Note_off_c, 9, 38, 64
1, 34513, Note_on_c, 9, 42, 79
1, 34514, Note_off_c, 9, 42, 64
1, 34531, Note_off_c, 4, 74, 64
1, 34531, Note_off_c, 4, 71, 64
1, 34532, Note_off_c, 3, 78, 64
1, 34532, Note_on_c, 4, 71, 95
1, 34532, Note_on_c, 4, 74, 97
1, 34533, Note_on_c, 3, 80, 107
1, 34536, Note_off_c, 1, 44, 64
1, 34537, Note_on_c, 1, 42, 106
1, 34537, Note_on_c, 9, 46, 76
1, 34538, Note_off_c, 9, 46, 64
1, 34551, Control_c, 4, 11, 82
1, 34552, Control_c, 0, 11, 82
1, 34552, Control_c, 1, 11, 82
1, 34552, Control_c, 2, 11, 82
1, 34552, Control_c, 3, 11, 82
1, 34552, Control_c, 5, 11, 82
1, 34552, Control_c, 7, 11, 82
1, 34552, Control_c, 9, 11, 82
1, 34557, Note_off_c, 1, 42, 64
1, 34560, Note_on_c, 9, 42, 77
1, 34561, Note_off_c, 9, 42, 64
1, 34561, Note_on_c, 9, 35, 110
1, 34561, Note_on_c, 9, 38, 119
1, 34562, Note_on_c, 1, 44, 113
1, 34562, Note_off_c, 9, 38, 64
1, 34562, Note_off_c, 9, 35, 64
1, 34575, Note_off_c, 3, 80, 64
1, 34577, Note_on_c, 3, 78, 108
1, 34579, Note_off_c, 4, 74, 64
1, 34579, Note_off_c, 4, 71, 64
1, 34580, Note_on_c, 4, 71, 96
1, 34580, Note_on_c, 4, 74, 96
1, 34584, Note_on_c, 9, 46, 70
1, 34585, Note_off_c, 1, 44, 64
1, 34585, Note_off_c, 9, 46, 64
1, 34586, Note_on_c, 1, 42, 106
1, 34593, Control_c, 4, 11, 80
1, 34594, Control_c, 0, 11, 80
1, 34594, Control_c, 1, 11, 80
1, 34594, Control_c, 2, 11, 80
1, 34594, Control_c, 3, 11, 80
1, 34594, Control_c, 5, 11, 80
1, 34594, Control_c, 7, 11, 80
1, 34594, Control_c, 9, 11, 80
1, 34609, Note_off_c, 1, 42, 64
1, 34609, Note_on_c, 9, 38, 116
1, 34609, Note_on_c, 9, 42, 75
1, 34610, Note_on_c, 1, 38, 103
1, 34610, Note_off_c, 9, 42, 64
1, 34610, Note_off_c, 9, 38, 64
1, 34612, Note_off_c, 3, 78, 64
1, 34616, Note_off_c, 4, 74, 64
1, 34616, Note_off_c, 4, 71, 64
1, 34631, Note_on_c, 2, 66, 76
1, 34631, Note_on_c, 2, 71, 71
1, 34632, Note_on_c, 2, 62, 57
1, 34633, Note_off_c, 1, 38, 64
1, 34633, Note_on_c, 9, 46, 75
1, 34634, Note_on_c, 1, 35, 109
1, 34634, Note_off_c, 9, 46, 64
1, 34635, Control_c, 4, 11, 78
1, 34636, Control_c, 0, 11, 78
1, 34636, Control_c, 1, 11, 78
1, 34636, Control_c, 2, 11, 78
1, 34636, Control_c, 3, 11, 78
1, 34636, Control_c, 5, 11, 78
1, 34636, Control_c, 7, 11, 78
1, 34636, Control_c, 9, 11, 78
1, 34651, Note_on_c, 3, 80, 113
1, 34652, Note_on_c, 4, 74, 98
1, 34652, Note_on_c, 4, 71, 98
1, 34656, Note_off_c, 1, 35, 64
1, 34656, Note_on_c, 9, 42, 72
1, 34657, Note_off_c, 9, 42, 64
1, 34657, Note_on_c, 9, 35, 117
1, 34657, Note_on_c, 9, 38, 120
1, 34658, Note_on_c, 1, 35, 106
1, 34658, Note_off_c, 9, 38, 64
1, 34658, Note_off_c, 9, 35, 64
1, 34673, Note_off_c, 3, 80, 64
1, 34675, Note_off_c, 4, 71, 64
1, 34675, Note_off_c, 4, 74, 64
1, 34676, Note_on_c, 3, 80, 105
1, 34676, Note_on_c, 4, 74, 89
1, 34676, Note_on_c, 4, 71, 96
1, 34678, Note_off_c, 2, 71, 64
1, 34678, Control_c, 4, 11, 76
1, 34679, Control_c, 0, 11, 76
1, 34679, Control_c, 1, 11, 76
1, 34679, Note_off_c, 2, 66, 64
1, 34679, Control_c, 2, 11, 76
1, 34679, Note_on_c, 2, 71, 76
1, 34679, Control_c, 3, 11, 76
1, 34679, Control_c, 5, 11, 76
1, 34679, Control_c, 7, 11, 76
1, 34679, Control_c, 9, 11, 76
1, 34680, Note_off_c, 1, 35, 64
1, 34680, Note_on_c, 2, 66, 77
1, 34681, Note_on_c, 1, 35, 97
1, 34681, Note_on_c, 9, 46, 74
1, 34682, Note_off_c, 9, 46, 64
1, 34686, Note_on_c, 2, 59, 30
1, 34692, Note_off_c, 0, 59, 64
1, 34692, Note_off_c, 0, 62, 64
1, 34695, Note_off_c, 3, 80, 64
1, 34696, Note_on_c, 3, 80, 100
1, 34697, Note_off_c, 0, 66, 64
1, 34699, Note_off_c, 4, 71, 64
1, 34699, Note_off_c, 4, 74, 64
1, 34700, Note_on_c, 4, 74, 95
1, 34700, Note_on_c, 4, 71, 92
1, 34702, Note_off_c, 1, 35, 64
1, 34703, Note_on_c, 1, 35, 100
1, 34703, Note_off_c, 2, 62, 64
1, 34704, Note_off_c, 2, 66, 64
1, 34704, Note_on_c, 2, 62, 60
1, 34704, Note_on_c, 9, 55, 95
1, 34704, Note_on_c, 9, 49, 93
1, 34705, Note_off_c, 2, 71, 64
1, 34705, Note_on_c, 2, 66, 70
1, 34705, Note_off_c, 9, 49, 64
1, 34705, Note_off_c, 9, 55, 64
1, 34705, Note_on_c, 9, 38, 122
1, 34706, Note_on_c, 2, 71, 57
1, 34706, Note_off_c, 9, 38, 64
1, 34718, Note_off_c, 3, 80, 64
1, 34718, Note_on_c, 3, 78, 108
1, 34720, Control_c, 4, 11, 74
1, 34721, Control_c, 0, 11, 74
1, 34721, Control_c, 1, 11, 74
1, 34721, Control_c, 2, 11, 74
1, 34721, Control_c, 3, 11, 74
1, 34721, Control_c, 5, 11, 74
1, 34721, Control_c, 7, 11, 74
1, 34721, Control_c, 9, 11, 74
1, 34724, Note_off_c, 4, 71, 64
1, 34724, Note_off_c, 4, 74, 64
1, 34724, Note_on_c, 4, 73, 100
1, 34724, Note_on_c, 4, 70, 100
1, 34726, Note_off_c, 2, 71, 64
1, 34727, Note_on_c, 2, 71, 77
1, 34739, Note_off_c, 2, 62, 64
1, 34740, Note_off_c, 2, 59, 64
1, 34742, Note_off_c, 2, 66, 64
1, 34742, Note_off_c, 2, 71, 64
1, 34743, Note_off_c, 1, 35, 64
1, 34745, Note_off_c, 7, 71, 64
1, 34746, Note_off_c, 7, 74, 64
1, 34747, Note_on_c, 2, 58, 48
1, 34747, Note_off_c, 7, 78, 64
1, 34749, Note_on_c, 2, 61, 75
1, 34749, Note_on_c, 2, 66, 79
1, 34750, Note_on_c, 2, 70, 82
1, 34750, Note_on_c, 7, 70, 85
1, 34750, Note_on_c, 7, 73, 87
1, 34750, Note_on_c, 7, 78, 83
1, 34751, Note_on_c, 0, 61, 105
1, 34751, Note_on_c, 0, 58, 95
1, 34751, Note_on_c, 0, 66, 108
1, 34753, Note_on_c, 1, 42, 110
1, 34753, Note_on_c, 9, 49, 101
1, 34754, Note_off_c, 9, 49, 64
1, 34754, Note_on_c, 9, 35, 120
1, 34755, Note_off_c, 9, 35, 64
1, 34761, Note_off_c, 3, 78, 64
1, 34763, Control_c, 0, 11, 72
1, 34763, Control_c, 1, 11, 72
1, 34763, Control_c, 2, 11, 72
1, 34763, Control_c, 3, 11, 72
1, 34763, Control_c, 4, 11, 72
1, 34763, Control_c, 5, 11, 72
1, 34763, Control_c, 7, 11, 72
1, 34763, Control_c, 9, 11, 72
1, 34769, Note_off_c, 2, 70, 64
1, 34772, Note_on_c, 2, 70, 79
1, 34772, Note_off_c, 4, 70, 64
1, 34772, Note_off_c, 4, 73, 64
1, 34773, Note_off_c, 2, 66, 64
1, 34774, Note_on_c, 2, 66, 78
1, 34800, Note_on_c, 5, 85, 77
1, 34801, Note_on_c, 9, 42, 85
1, 34802, Note_off_c, 9, 42, 64
1, 34805, Control_c, 0, 11, 70
1, 34805, Control_c, 1, 11, 70
1, 34805, Control_c, 2, 11, 70
1, 34805, Control_c, 3, 11, 70
1, 34805, Control_c, 4, 11, 70
1, 34805, Control_c, 5, 11, 70
1, 34805, Control_c, 7, 11, 70
1, 34805, Control_c, 9, 11, 70
1, 34810, Note_off_c, 1, 42, 64
1, 34820, Note_off_c, 2, 70, 64
1, 34821, Note_on_c, 2, 70, 79
1, 34822, Note_off_c, 2, 66, 64
1, 34823, Note_on_c, 2, 66, 73
1, 34823, Note_on_c, 9, 35, 107
1, 34824, Note_on_c, 1, 42, 107
1, 34824, Note_off_c, 2, 61, 64
1, 34824, Note_off_c, 9, 35, 64
1, 34825, Note_on_c, 2, 61, 51
1, 34825, Note_on_c, 9, 42, 75
1, 34826, Note_off_c, 9, 42, 64
1, 34841, Note_off_c, 1, 42, 64
1, 34843, Note_off_c, 2, 58, 64
1, 34844, Note_on_c, 2, 58, 66
1, 34845, Note_off_c, 2, 61, 64
1, 34846, Note_off_c, 2, 66, 64
1, 34846, Note_on_c, 2, 61, 77
1, 34847, Note_off_c, 2, 70, 64
1, 34847, Note_on_c, 2, 66, 79
1, 34848, Control_c, 0, 11, 68
1, 34848, Control_c, 1, 11, 68
1, 34848, Control_c, 2, 11, 68
1, 34848, Note_on_c, 2, 70, 83
1, 34848, Control_c, 3, 11, 68
1, 34848, Control_c, 4, 11, 68
1, 34848, Note_off_c, 5, 85, 64
1, 34848, Control_c, 5, 11, 68
1, 34848, Control_c, 7, 11, 68
1, 34848, Control_c, 9, 11, 68
1, 34849, Note_on_c, 1, 42, 109
1, 34849, Note_on_c, 9, 38, 120
1, 34849, Note_on_c, 9, 42, 81
1, 34850, Note_off_c, 9, 42, 64
1, 34850, Note_off_c, 9, 38, 64
1, 34852, Note_on_c, 5, 85, 67
1, 34867, Note_off_c, 2, 58, 64
1, 34868, Note_off_c, 2, 61, 64
1, 34870, Note_off_c, 2, 66, 64
1, 34870, Note_off_c, 2, 70, 64
1, 34873, Note_on_c, 9, 42, 75
1, 34874, Note_off_c, 9, 42, 64
1, 34890, Control_c, 0, 11, 66
1, 34890, Control_c, 1, 11, 66
1, 34890, Control_c, 2, 11, 66
1, 34890, Control_c, 3, 11, 66
1, 34890, Control_c, 4, 11, 66
1, 34890, Control_c, 5, 11, 66
1, 34890, Control_c, 7, 11, 66
1, 34890, Control_c, 9, 11, 66
1, 34891, Note_off_c, 1, 42, 64
1, 34891, Note_off_c, 5, 85, 64
1, 34893, Note_on_c, 5, 85, 75
1, 34897, Note_on_c, 9, 42, 77
1, 34898, Note_off_c, 9, 42, 64
1, 34915, Note_off_c, 5, 85, 64
1, 34918, Note_on_c, 5, 85, 78
1, 34918, Note_on_c, 9, 35, 103
1, 34919, Note_off_c, 9, 35, 64
1, 34920, Note_on_c, 2, 70, 78
1, 34921, Note_on_c, 2, 66, 77
1, 34922, Note_on_c, 9, 42, 73
1, 34923, Note_off_c, 9, 42, 64
1, 34932, Control_c, 0, 11, 64
1, 34932, Control_c, 1, 11, 64
1, 34932, Control_c, 2, 11, 64
1, 34932, Control_c, 3, 11, 64
1, 34932, Control_c, 4, 11, 64
1, 34932, Control_c, 5, 11, 64
1, 34932, Control_c, 7, 11, 64
1, 34932, Control_c, 9, 11, 64
1, 34940, Note_off_c, 2, 66, 64
1, 34942, Note_on_c, 9, 35, 113
1, 34943, Note_off_c, 9, 35, 64
1, 34944, Note_off_c, 2, 70, 64
1, 34945, Note_on_c, 9, 42, 83
1, 34946, Note_off_c, 9, 42, 64
1, 34959, Note_off_c, 5, 85, 64
1, 34963, Note_on_c, 3, 78, 113
1, 34964, Note_on_c, 4, 70, 86
1, 34964, Note_on_c, 4, 73, 92
1, 34967, Note_on_c, 9, 35, 109
1, 34968, Note_off_c, 9, 35, 64
1, 34969, Note_on_c, 1, 42, 109
1, 34969, Note_on_c, 9, 42, 75
1, 34970, Note_off_c, 9, 42, 64
1, 34971, Control_c, 4, 11, 62
1, 34975, Control_c, 0, 11, 62
1, 34975, Control_c, 1, 11, 62
1, 34975, Control_c, 2, 11, 62
1, 34975, Control_c, 3, 11, 62
1, 34975, Control_c, 5, 11, 62
1, 34975, Control_c, 7, 11, 62
1, 34975, Control_c, 9, 11, 62
1, 34985, Note_off_c, 3, 78, 64
1, 34986, Note_on_c, 3, 78, 101
1, 34987, Note_off_c, 4, 73, 64
1, 34987, Note_off_c, 4, 70, 64
1, 34988, Note_on_c, 4, 70, 83
1, 34988, Note_on_c, 4, 73, 92
1, 34989, Note_on_c, 2, 66, 77
1, 34990, Note_off_c, 2, 66, 64
1, 34990, Note_on_c, 2, 70, 83
1, 34991, Note_off_c, 2, 70, 64
1, 34991, Note_on_c, 9, 42, 69
1, 34992, Note_on_c, 2, 61, 55
1, 34992, Note_off_c, 9, 42, 64
1, 34993, Note_off_c, 1, 42, 64
1, 34993, Note_off_c, 2, 61, 64
1, 35009, Note_off_c, 3, 78, 64
1, 35010, Note_on_c, 3, 78, 108
1, 35011, Note_off_c, 4, 73, 64
1, 35011, Note_off_c, 4, 70, 64
1, 35012, Note_on_c, 2, 70, 79
1, 35012, Note_on_c, 4, 70, 89
1, 35012, Note_on_c, 4, 73, 97
1, 35013, Note_off_c, 2, 70, 64
1, 35013, Note_on_c, 2, 66, 74
1, 35013, Control_c, 4, 11, 60
1, 35014, Note_off_c, 2, 66, 64
1, 35014, Note_on_c, 9, 35, 117
1, 35015, Note_off_c, 9, 35, 64
1, 35015, Note_on_c, 9, 42, 76
1, 35016, Note_on_c, 1, 42, 108
1, 35016, Note_off_c, 9, 42, 64
1, 35017, Control_c, 0, 11, 60
1, 35017, Control_c, 1, 11, 60
1, 35017, Control_c, 2, 11, 60
1, 35017, Control_c, 3, 11, 60
1, 35017, Control_c, 5, 11, 60
1, 35017, Control_c, 7, 11, 60
1, 35017, Control_c, 9, 11, 60
1, 35036, Note_on_c, 2, 61, 75
1, 35037, Note_on_c, 2, 66, 79
1, 35039, Note_off_c, 1, 42, 64
1, 35039, Note_on_c, 2, 70, 81
1, 35039, Note_on_c, 9, 38, 116
1, 35039, Note_on_c, 9, 42, 81
1, 35040, Note_on_c, 1, 37, 104
1, 35040, Note_off_c, 9, 42, 64
1, 35040, Note_off_c, 9, 38, 64
1, 35055, Note_off_c, 3, 78, 64
1, 35055, Control_c, 4, 11, 58
1, 35058, Note_on_c, 3, 78, 110
1, 35059, Control_c, 0, 11, 58
1, 35059, Control_c, 1, 11, 58
1, 35059, Control_c, 2, 11, 58
1, 35059, Control_c, 3, 11, 58
1, 35059, Note_off_c, 4, 73, 64
1, 35059, Note_off_c, 4, 70, 64
1, 35059, Control_c, 5, 11, 58
1, 35059, Control_c, 7, 11, 58
1, 35059, Control_c, 9, 11, 58
1, 35060, Note_on_c, 4, 73, 103
1, 35060, Note_on_c, 4, 70, 97
1, 35062, Note_off_c, 1, 37, 64
1, 35062, Note_off_c, 2, 61, 64
1, 35063, Note_on_c, 1, 39, 108
1, 35063, Note_on_c, 9, 42, 73
1, 35064, Note_off_c, 2, 70, 64
1, 35064, Note_off_c, 9, 42, 64
1, 35065, Note_off_c, 2, 66, 64
1, 35087, Note_off_c, 1, 39, 64
1, 35087, Note_on_c, 9, 42, 73
1, 35088, Note_on_c, 1, 42, 105
1, 35088, Note_on_c, 2, 61, 63
1, 35088, Note_off_c, 9, 42, 64
1, 35089, Note_off_c, 2, 61, 64
1, 35089, Note_on_c, 2, 66, 77
1, 35090, Note_off_c, 2, 66, 64
1, 35090, Note_on_c, 2, 70, 80
1, 35091, Note_off_c, 2, 70, 64
1, 35092, Note_off_c, 0, 66, 64
1, 35098, Control_c, 4, 11, 56
1, 35100, Note_off_c, 3, 78, 64
1, 35102, Control_c, 0, 11, 56
1, 35102, Control_c, 1, 11, 56
1, 35102, Control_c, 2, 11, 56
1, 35102, Control_c, 3, 11, 56
1, 35102, Control_c, 5, 11, 56
1, 35102, Control_c, 7, 11, 56
1, 35102, Control_c, 9, 11, 56
1, 35107, Note_off_c, 0, 58, 64
1, 35108, Note_off_c, 0, 61, 64
1, 35111, Note_on_c, 9, 42, 75
1, 35112, Note_off_c, 9, 42, 64
1, 35112, Note_on_c, 9, 35, 110
1, 35113, Note_off_c, 9, 35, 64
1, 35114, Note_on_c, 2, 66, 69
1, 35115, Note_off_c, 2, 66, 64
1, 35115, Note_on_c, 2, 70, 79
1, 35116, Note_off_c, 2, 70, 64
1, 35120, Note_off_c, 1, 42, 64
1, 35131, Note_on_c, 3, 82, 105
1, 35131, Note_off_c, 4, 70, 64
1, 35131, Note_off_c, 4, 73, 64
1, 35131, Note_off_c, 7, 78, 64
1, 35131, Note_off_c, 7, 73, 64
1, 35131, Note_off_c, 7, 70, 64
1, 35132, Note_on_c, 0, 61, 103
1, 35132, Note_on_c, 0, 58, 95
1, 35132, Note_on_c, 4, 82, 102
1, 35132, Note_on_c, 4, 70, 95
1, 35132, Note_on_c, 4, 73, 97
1, 35133, Note_on_c, 0, 65, 96
1, 35134, Note_on_c, 7, 70, 80
1, 35134, Note_on_c, 7, 77, 79
1, 35134, Note_on_c, 7, 73, 69
1, 35135, Note_on_c, 9, 42, 79
1, 35136, Note_off_c, 9, 42, 64
1, 35137, Note_on_c, 1, 46, 109
1, 35137, Note_on_c, 2, 58, 74
1, 35137, Note_on_c, 9, 35, 121
1, 35138, Note_off_c, 2, 58, 64
1, 35138, Note_off_c, 9, 35, 64
1, 35139, Note_on_c, 2, 61, 75
1, 35139, Note_on_c, 2, 65, 77
1, 35140, Note_off_c, 2, 65, 64
1, 35140, Note_off_c, 2, 61, 64
1, 35140, Note_on_c, 2, 70, 80
1, 35140, Control_c, 4, 11, 54
1, 35141, Note_off_c, 2, 70, 64
1, 35144, Control_c, 0, 11, 54
1, 35144, Control_c, 1, 11, 54
1, 35144, Control_c, 2, 11, 54
1, 35144, Control_c, 3, 11, 54
1, 35144, Control_c, 5, 11, 54
1, 35144, Control_c, 7, 11, 54
1, 35144, Control_c, 9, 11, 54
1, 35158, Note_on_c, 9, 42, 73
1, 35159, Note_off_c, 9, 42, 64
1, 35162, Note_on_c, 2, 65, 73
1, 35163, Note_on_c, 2, 70, 78
1, 35180, Note_off_c, 1, 46, 64
1, 35182, Control_c, 4, 11, 52
1, 35182, Note_on_c, 9, 42, 67
1, 35183, Note_off_c, 9, 42, 64
1, 35186, Control_c, 0, 11, 52
1, 35186, Control_c, 1, 11, 52
1, 35186, Control_c, 2, 11, 52
1, 35186, Control_c, 3, 11, 52
1, 35186, Control_c, 5, 11, 52
1, 35186, Control_c, 7, 11, 52
1, 35186, Control_c, 9, 11, 52
1, 35201, Note_off_c, 3, 82, 64
1, 35203, Note_off_c, 4, 73, 64
1, 35203, Note_off_c, 4, 70, 64
1, 35204, Note_off_c, 4, 82, 64
1, 35204, Note_on_c, 4, 73, 93
1, 35204, Note_on_c, 4, 70, 93
1, 35204, Note_on_c, 4, 80, 98
1, 35205, Note_off_c, 2, 70, 64
1, 35205, Note_on_c, 3, 80, 105
1, 35206, Note_on_c, 2, 70, 77
1, 35206, Note_on_c, 9, 42, 68
1, 35207, Note_on_c, 1, 46, 110
1, 35207, Note_off_c, 2, 70, 64
1, 35207, Note_off_c, 2, 65, 64
1, 35207, Note_off_c, 9, 42, 64
1, 35207, Note_on_c, 9, 35, 104
1, 35208, Note_on_c, 2, 65, 73
1, 35208, Note_off_c, 9, 35, 64
1, 35209, Note_off_c, 2, 65, 64
1, 35211, Note_on_c, 5, 85, 84
1, 35222, Note_off_c, 1, 46, 64
1, 35225, Control_c, 4, 11, 50
1, 35229, Control_c, 0, 11, 50
1, 35229, Control_c, 1, 11, 50
1, 35229, Control_c, 2, 11, 50
1, 35229, Note_on_c, 2, 58, 61
1, 35229, Control_c, 3, 11, 50
1, 35229, Control_c, 5, 11, 50
1, 35229, Control_c, 7, 11, 50
1, 35229, Control_c, 9, 11, 50
1, 35230, Note_off_c, 2, 58, 64
1, 35230, Note_on_c, 9, 42, 79
1, 35231, Note_on_c, 2, 61, 75
1, 35231, Note_off_c, 9, 42, 64
1, 35232, Note_on_c, 1, 46, 110
1, 35232, Note_off_c, 2, 61, 64
1, 35233, Note_on_c, 2, 65, 81
1, 35233, Note_on_c, 2, 70, 78
1, 35233, Note_on_c, 9, 38, 120
1, 35234, Note_off_c, 2, 70, 64
1, 35234, Note_off_c, 2, 65, 64
1, 35234, Note_off_c, 9, 38, 64
1, 35252, Note_off_c, 4, 80, 64
1, 35252, Note_on_c, 4, 78, 91
1, 35255, Note_on_c, 2, 65, 78
1, 35255, Note_on_c, 9, 42, 75
1, 35256, Note_on_c, 2, 61, 67
1, 35256, Note_off_c, 5, 85, 64
1, 35256, Note_off_c, 9, 42, 64
1, 35257, Note_on_c, 2, 70, 77
1, 35257, Note_on_c, 5, 85, 72
1, 35267, Control_c, 4, 11, 48
1, 35271, Control_c, 0, 11, 48
1, 35271, Control_c, 1, 11, 48
1, 35271, Control_c, 2, 11, 48
1, 35271, Control_c, 3, 11, 48
1, 35271, Control_c, 5, 11, 48
1, 35271, Control_c, 7, 11, 48
1, 35271, Control_c, 9, 11, 48
1, 35272, Note_off_c, 3, 80, 64
1, 35276, Note_off_c, 1, 46, 64
1, 35276, Note_off_c, 4, 78, 64
1, 35276, Note_off_c, 4, 70, 64
1, 35276, Note_off_c, 4, 73, 64
1, 35276, Note_on_c, 4, 75, 90
1, 35278, Note_off_c, 5, 85, 64
1, 35279, Note_on_c, 5, 85, 74
1, 35281, Note_on_c, 9, 42, 74
1, 35282, Note_off_c, 9, 42, 64
1, 35284, Note_off_c, 2, 70, 64
1, 35284, Note_off_c, 2, 61, 64
1, 35284, Note_off_c, 2, 65, 64
1, 35299, Note_off_c, 5, 85, 64
1, 35300, Note_off_c, 4, 75, 64
1, 35300, Note_on_c, 4, 73, 93
1, 35302, Note_on_c, 5, 85, 72
1, 35304, Note_on_c, 9, 35, 110
1, 35305, Note_off_c, 9, 35, 64
1, 35305, Note_on_c, 9, 42, 72
1, 35306, Note_off_c, 9, 42, 64
1, 35308, Note_on_c, 2, 65, 79
1, 35308, Note_on_c, 2, 61, 70
1, 35309, Note_on_c, 2, 70, 79
1, 35309, Control_c, 4, 11, 46
1, 35313, Control_c, 0, 11, 46
1, 35313, Control_c, 1, 11, 46
1, 35313, Control_c, 2, 11, 46
1, 35313, Control_c, 3, 11, 46
1, 35313, Control_c, 5, 11, 46
1, 35313, Control_c, 7, 11, 46
1, 35313, Control_c, 9, 11, 46
1, 35323, Note_off_c, 5, 85, 64
1, 35324, Note_on_c, 5, 85, 75
1, 35328, Note_on_c, 9, 35, 115
1, 35328, Note_on_c, 9, 42, 76
1, 35329, Note_off_c, 9, 42, 64
1, 35329, Note_off_c, 9, 35, 64
1, 35336, Note_off_c, 2, 70, 64
1, 35336, Note_off_c, 2, 65, 64
1, 35339, Note_off_c, 2, 61, 64
1, 35348, Note_off_c, 4, 73, 64
1, 35351, Note_on_c, 9, 42, 71
1, 35352, Note_off_c, 9, 42, 64
1, 35353, Note_on_c, 9, 35, 107
1, 35354, Note_on_c, 1, 46, 110
1, 35354, Note_on_c, 5, 82, 77
1, 35354, Note_off_c, 9, 35, 64
1, 35355, Note_on_c, 2, 65, 79
1, 35355, Note_off_c, 5, 85, 64
1, 35356, Control_c, 0, 11, 44
1, 35356, Control_c, 1, 11, 44
1, 35356, Control_c, 2, 11, 44
1, 35356, Note_on_c, 2, 70, 78
1, 35356, Control_c, 3, 11, 44
1, 35356, Control_c, 4, 11, 44
1, 35356, Control_c, 5, 11, 44
1, 35356, Control_c, 7, 11, 44
1, 35356, Control_c, 9, 11, 44
1, 35374, Note_off_c, 1, 46, 64
1, 35376, Note_off_c, 2, 70, 64
1, 35376, Note_on_c, 9, 42, 73
1, 35377, Note_off_c, 9, 42, 64
1, 35380, Note_off_c, 2, 65, 64
1, 35395, Note_off_c, 5, 82, 64
1, 35397, Note_on_c, 5, 80, 80
1, 35398, Control_c, 0, 11, 42
1, 35398, Control_c, 1, 11, 42
1, 35398, Control_c, 2, 11, 42
1, 35398, Control_c, 3, 11, 42
1, 35398, Control_c, 4, 11, 42
1, 35398, Control_c, 5, 11, 42
1, 35398, Control_c, 7, 11, 42
1, 35398, Control_c, 9, 11, 42
1, 35399, Note_on_c, 1, 46, 109
1, 35399, Note_on_c, 2, 70, 79
1, 35399, Note_on_c, 9, 42, 73
1, 35400, Note_on_c, 2, 65, 77
1, 35400, Note_off_c, 9, 42, 64
1, 35401, Note_on_c, 9, 35, 110
1, 35402, Note_off_c, 9, 35, 64
1, 35421, Note_on_c, 2, 58, 52
1, 35421, Note_on_c, 4, 73, 88
1, 35422, Note_off_c, 2, 58, 64
1, 35422, Note_on_c, 3, 73, 105
1, 35423, Note_off_c, 1, 46, 64
1, 35423, Note_off_c, 2, 65, 64
1, 35423, Note_on_c, 2, 61, 73
1, 35423, Note_on_c, 9, 42, 78
1, 35424, Note_off_c, 2, 61, 64
1, 35424, Note_off_c, 2, 70, 64
1, 35424, Note_on_c, 2, 65, 79
1, 35424, Note_off_c, 9, 42, 64
1, 35425, Note_on_c, 1, 41, 109
1, 35425, Note_off_c, 2, 65, 64
1, 35425, Note_on_c, 2, 70, 80
1, 35425, Note_on_c, 9, 38, 121
1, 35426, Note_off_c, 2, 70, 64
1, 35426, Note_off_c, 9, 38, 64
1, 35439, Control_c, 4, 11, 40
1, 35439, Note_on_c, 5, 78, 77
1, 35440, Control_c, 0, 11, 40
1, 35440, Control_c, 1, 11, 40
1, 35440, Control_c, 2, 11, 40
1, 35440, Control_c, 3, 11, 40
1, 35440, Note_off_c, 5, 80, 64
1, 35440, Control_c, 5, 11, 40
1, 35440, Control_c, 7, 11, 40
1, 35440, Control_c, 9, 11, 40
1, 35444, Note_off_c, 4, 73, 64
1, 35445, Note_on_c, 4, 73, 86
1, 35446, Note_off_c, 3, 73, 64
1, 35447, Note_off_c, 1, 41, 64
1, 35447, Note_on_c, 2, 70, 77
1, 35448, Note_on_c, 1, 44, 106
1, 35448, Note_off_c, 2, 70, 64
1, 35448, Note_on_c, 2, 65, 77
1, 35448, Note_on_c, 3, 73, 90
1, 35449, Note_off_c, 2, 65, 64
1, 35449, Note_on_c, 9, 42, 75
1, 35450, Note_off_c, 9, 42, 64
1, 35464, Note_off_c, 0, 65, 64
1, 35465, Note_off_c, 0, 61, 64
1, 35466, Note_off_c, 3, 73, 64
1, 35466, Note_off_c, 5, 78, 64
1, 35468, Note_on_c, 3, 73, 98
1, 35468, Note_off_c, 4, 73, 64
1, 35469, Note_on_c, 4, 73, 95
1, 35470, Note_off_c, 0, 58, 64
1, 35470, Note_off_c, 1, 44, 64
1, 35470, Note_on_c, 2, 61, 75
1, 35471, Note_on_c, 1, 46, 105
1, 35471, Note_on_c, 2, 65, 79
1, 35471, Note_on_c, 9, 42, 76
1, 35472, Note_on_c, 2, 70, 81
1, 35472, Note_off_c, 9, 42, 64
1, 35482, Control_c, 4, 11, 38
1, 35483, Control_c, 0, 11, 38
1, 35483, Control_c, 1, 11, 38
1, 35483, Control_c, 2, 11, 38
1, 35483, Control_c, 3, 11, 38
1, 35483, Control_c, 5, 11, 38
1, 35483, Control_c, 7, 11, 38
1, 35483, Control_c, 9, 11, 38
1, 35489, Note_off_c, 2, 70, 64
1, 35490, Note_off_c, 2, 65, 64
1, 35490, Note_off_c, 2, 61, 64
1, 35496, Note_on_c, 9, 42, 75
1, 35497, Note_off_c, 9, 42, 64
1, 35497, Note_on_c, 9, 35, 87
1, 35498, Note_off_c, 9, 35, 64
1, 35500, Note_off_c, 1, 46, 64
1, 35514, Note_on_c, 0, 66, 96
1, 35514, Note_on_c, 0, 59, 92
1, 35515, Note_on_c, 0, 63, 108
1, 35515, Note_off_c, 7, 77, 64
1, 35516, Note_off_c, 7, 73, 64
1, 35517, Note_off_c, 4, 73, 64
1, 35517, Note_on_c, 4, 75, 95
1, 35517, Note_on_c, 4, 71, 86
1, 35517, Note_off_c, 7, 70, 64
1, 35518, Note_on_c, 2, 59, 50
1, 35518, Note_on_c, 7, 71, 86
1, 35518, Note_on_c, 7, 75, 77
1, 35519, Note_off_c, 2, 59, 64
1, 35519, Note_off_c, 3, 73, 64
1, 35519, Note_on_c, 7, 78, 76
1, 35520, Note_on_c, 2, 63, 74
1, 35520, Note_on_c, 9, 42, 82
1, 35521, Note_on_c, 1, 47, 111
1, 35521, Note_off_c, 2, 63, 64
1, 35521, Note_on_c, 2, 66, 74
1, 35521, Note_on_c, 3, 80, 104
1, 35521, Note_off_c, 9, 42, 64
1, 35521, Note_on_c, 9, 35, 125
1, 35522, Note_off_c, 2, 66, 64
1, 35522, Note_on_c, 2, 71, 79
1, 35522, Note_off_c, 9, 35, 64
1, 35523, Note_off_c, 2, 71, 64
1, 35524, Control_c, 4, 11, 36
1, 35525, Control_c, 0, 11, 36
1, 35525, Control_c, 1, 11, 36
1, 35525, Control_c, 2, 11, 36
1, 35525, Control_c, 3, 11, 36
1, 35525, Control_c, 5, 11, 36
1, 35525, Control_c, 7, 11, 36
1, 35525, Control_c, 9, 11, 36
1, 35542, Note_on_c, 9, 42, 71
1, 35543, Note_on_c, 2, 71, 76
1, 35543, Note_on_c, 2, 66, 76
1, 35543, Note_off_c, 9, 42, 64
1, 35562, Note_off_c, 1, 47, 64
1, 35566, Control_c, 4, 11, 34
1, 35567, Control_c, 0, 11, 34
1, 35567, Control_c, 1, 11, 34
1, 35567, Control_c, 2, 11, 34
1, 35567, Control_c, 3, 11, 34
1, 35567, Control_c, 5, 11, 34
1, 35567, Control_c, 7, 11, 34
1, 35567, Control_c, 9, 11, 34
1, 35567, Note_on_c, 9, 42, 74
1, 35568, Note_off_c, 9, 42, 64
1, 35588, Note_off_c, 3, 80, 64
1, 35588, Note_off_c, 4, 71, 64
1, 35588, Note_off_c, 4, 75, 64
1, 35589, Note_off_c, 2, 71, 64
1, 35589, Note_on_c, 3, 78, 107
1, 35589, Note_on_c, 4, 75, 97
1, 35589, Note_on_c, 4, 71, 92
1, 35591, Note_on_c, 1, 47, 104
1, 35591, Note_off_c, 2, 66, 64
1, 35591, Note_on_c, 9, 35, 99
1, 35592, Note_on_c, 2, 66, 76
1, 35592, Note_off_c, 9, 35, 64
1, 35593, Note_off_c, 2, 66, 64
1, 35593, Note_on_c, 2, 71, 72
1, 35593, Note_on_c, 9, 42, 70
1, 35594, Note_off_c, 2, 71, 64
1, 35594, Note_on_c, 2, 63, 58
1, 35594, Note_off_c, 9, 42, 64
1, 35595, Note_off_c, 2, 63, 64
1, 35606, Note_off_c, 1, 47, 64
1, 35608, Control_c, 4, 11, 32
1, 35609, Control_c, 0, 11, 32
1, 35609, Control_c, 1, 11, 32
1, 35609, Control_c, 2, 11, 32
1, 35609, Control_c, 3, 11, 32
1, 35609, Control_c, 5, 11, 32
1, 35609, Control_c, 7, 11, 32
1, 35609, Control_c, 9, 11, 32
1, 35615, Note_on_c, 1, 47, 109
1, 35615, Note_on_c, 5, 85, 84
1, 35615, Note_on_c, 9, 38, 118
1, 35616, Note_off_c, 9, 38, 64
1, 35617, Note_on_c, 2, 66, 75
1, 35617, Note_on_c, 9, 42, 79
1, 35618, Note_off_c, 2, 66, 64
1, 35618, Note_off_c, 9, 42, 64
1, 35620, Note_on_c, 2, 71, 80
1, 35621, Note_off_c, 2, 71, 64
1, 35635, Note_off_c, 3, 78, 64
1, 35639, Note_on_c, 9, 42, 73
1, 35640, Note_off_c, 9, 42, 64
1, 35642, Note_on_c, 2, 66, 77
1, 35643, Note_on_c, 2, 71, 73
1, 35643, Note_on_c, 2, 63, 68
1, 35644, Note_on_c, 2, 59, 51
1, 35651, Control_c, 4, 11, 30
1, 35652, Control_c, 0, 11, 30
1, 35652, Control_c, 1, 11, 30
1, 35652, Control_c, 2, 11, 30
1, 35652, Control_c, 3, 11, 30
1, 35652, Control_c, 5, 11, 30
1, 35652, Control_c, 7, 11, 30
1, 35652, Control_c, 9, 11, 30
1, 35657, Note_off_c, 1, 47, 64
1, 35661, Note_off_c, 4, 71, 64
1, 35661, Note_off_c, 4, 75, 64
1, 35665, Note_on_c, 9, 42, 76
1, 35666, Note_off_c, 9, 42, 64
1, 35685, Note_off_c, 2, 71, 64
1, 35687, Note_on_c, 9, 35, 106
1, 35688, Note_off_c, 2, 66, 64
1, 35688, Note_off_c, 9, 35, 64
1, 35688, Note_on_c, 9, 42, 72
1, 35689, Note_on_c, 2, 66, 75
1, 35689, Note_off_c, 9, 42, 64
1, 35690, Note_on_c, 2, 71, 76
1, 35693, Control_c, 4, 11, 28
1, 35694, Control_c, 0, 11, 28
1, 35694, Control_c, 1, 11, 28
1, 35694, Control_c, 2, 11, 28
1, 35694, Control_c, 3, 11, 28
1, 35694, Control_c, 5, 11, 28
1, 35694, Control_c, 7, 11, 28
1, 35694, Control_c, 9, 11, 28
1, 35706, Note_on_c, 5, 82, 77
1, 35707, Note_off_c, 5, 85, 64
1, 35713, Note_on_c, 9, 35, 111
1, 35713, Note_on_c, 9, 46, 80
1, 35714, Note_off_c, 9, 46, 64
1, 35714, Note_off_c, 9, 35, 64
1, 35735, Note_off_c, 2, 59, 64
1, 35735, Control_c, 4, 11, 26
1, 35735, Note_on_c, 9, 46, 76
1, 35736, Control_c, 0, 11, 26
1, 35736, Control_c, 1, 11, 26
1, 35736, Control_c, 2, 11, 26
1, 35736, Control_c, 3, 11, 26
1, 35736, Control_c, 5, 11, 26
1, 35736, Control_c, 7, 11, 26
1, 35736, Note_off_c, 9, 46, 64
1, 35736, Control_c, 9, 11, 26
1, 35736, Note_on_c, 9, 35, 108
1, 35737, Note_on_c, 1, 47, 115
1, 35737, Note_off_c, 9, 35, 64
1, 35756, Note_off_c, 1, 47, 64
1, 35757, Note_off_c, 2, 63, 64
1, 35758, Note_off_c, 2, 66, 64
1, 35758, Note_on_c, 2, 63, 72
1, 35759, Note_off_c, 2, 63, 64
1, 35759, Note_off_c, 2, 71, 64
1, 35759, Note_on_c, 2, 66, 79
1, 35759, Note_on_c, 9, 42, 81
1, 35760, Note_off_c, 2, 66, 64
1, 35760, Note_on_c, 2, 71, 79
1, 35760, Note_off_c, 9, 42, 64
1, 35761, Note_off_c, 2, 71, 64
1, 35778, Control_c, 4, 11, 24
1, 35778, Note_off_c, 5, 82, 64
1, 35778, Note_on_c, 5, 80, 77
1, 35779, Control_c, 0, 11, 24
1, 35779, Control_c, 1, 11, 24
1, 35779, Control_c, 2, 11, 24
1, 35779, Control_c, 3, 11, 24
1, 35779, Control_c, 5, 11, 24
1, 35779, Control_c, 7, 11, 24
1, 35779, Control_c, 9, 11, 24
1, 35782, Note_on_c, 2, 66, 63
1, 35783, Note_on_c, 1, 47, 115
1, 35783, Note_off_c, 2, 66, 64
1, 35783, Note_on_c, 2, 71, 78
1, 35783, Note_on_c, 9, 35, 113
1, 35783, Note_on_c, 9, 42, 74
1, 35784, Note_off_c, 2, 71, 64
1, 35784, Note_off_c, 9, 42, 64
1, 35784, Note_off_c, 9, 35, 64
1, 35803, Note_on_c, 3, 78, 100
1, 35805, Note_on_c, 4, 75, 96
1, 35805, Note_on_c, 4, 71, 95
1, 35806, Note_off_c, 1, 47, 64
1, 35806, Note_on_c, 9, 42, 77
1, 35807, Note_on_c, 1, 42, 110
1, 35807, Note_on_c, 2, 66, 79
1, 35807, Note_off_c, 9, 42, 64
1, 35807, Note_on_c, 9, 38, 122
1, 35808, Note_on_c, 2, 63, 66
1, 35808, Note_off_c, 9, 38, 64
1, 35809, Note_on_c, 2, 71, 77
1, 35820, Control_c, 4, 11, 22
1, 35821, Control_c, 0, 11, 22
1, 35821, Control_c, 1, 11, 22
1, 35821, Control_c, 2, 11, 22
1, 35821, Control_c, 3, 11, 22
1, 35821, Control_c, 5, 11, 22
1, 35821, Control_c, 7, 11, 22
1, 35821, Control_c, 9, 11, 22
1, 35823, Note_off_c, 3, 78, 64
1, 35825, Note_on_c, 3, 78, 103
1, 35825, Note_off_c, 5, 80, 64
1, 35825, Note_on_c, 5, 78, 75
1, 35827, Note_off_c, 2, 71, 64
1, 35828, Note_on_c, 2, 71, 77
1, 35828, Note_off_c, 4, 71, 64
1, 35828, Note_off_c, 4, 75, 64
1, 35829, Note_off_c, 1, 42, 64
1, 35829, Note_off_c, 2, 66, 64
1, 35829, Note_on_c, 4, 75, 92
1, 35829, Note_on_c, 4, 71, 97
1, 35830, Note_on_c, 2, 66, 73
1, 35830, Note_on_c, 9, 42, 73
1, 35831, Note_on_c, 1, 44, 108
1, 35831, Note_off_c, 9, 42, 64
1, 35849, Note_off_c, 0, 63, 64
1, 35852, Note_off_c, 0, 66, 64
1, 35852, Note_off_c, 2, 63, 64
1, 35852, Note_off_c, 3, 78, 64
1, 35853, Note_off_c, 0, 59, 64
1, 35853, Note_off_c, 2, 66, 64
1, 35853, Note_on_c, 2, 63, 75
1, 35854, Note_off_c, 2, 71, 64
1, 35854, Note_on_c, 2, 66, 79
1, 35855, Note_on_c, 2, 71, 80
1, 35855, Note_on_c, 9, 42, 82
1, 35856, Note_off_c, 1, 44, 64
1, 35856, Note_off_c, 9, 42, 64
1, 35856, Note_on_c, 9, 35, 127
1, 35857, Note_on_c, 1, 47, 114
1, 35857, Note_off_c, 9, 35, 64
1, 35862, Control_c, 4, 11, 20
1, 35863, Control_c, 0, 11, 20
1, 35863, Control_c, 1, 11, 20
1, 35863, Control_c, 2, 11, 20
1, 35863, Control_c, 3, 11, 20
1, 35863, Note_off_c, 5, 78, 64
1, 35863, Control_c, 5, 11, 20
1, 35863, Control_c, 7, 11, 20
1, 35863, Control_c, 9, 11, 20
1, 35865, Note_off_c, 4, 71, 64
1, 35865, Note_off_c, 4, 75, 64
1, 35870, Note_off_c, 2, 66, 64
1, 35871, Note_off_c, 2, 71, 64
1, 35873, Note_off_c, 2, 63, 64
1, 35878, Note_on_c, 9, 42, 74
1, 35879, Note_off_c, 9, 42, 64
1, 35887, Note_off_c, 1, 47, 64
1, 35897, Note_off_c, 7, 71, 64
1, 35898, Note_on_c, 0, 62, 89
1, 35898, Note_on_c, 0, 66, 99
1, 35898, Note_on_c, 0, 59, 93
1, 35899, Note_off_c, 7, 78, 64
1, 35899, Note_off_c, 7, 75, 64
1, 35900, Note_on_c, 2, 59, 39
1, 35902, Note_on_c, 2, 62, 73
1, 35903, Note_on_c, 2, 66, 82
1, 35903, Note_on_c, 9, 42, 82
1, 35904, Note_on_c, 1, 47, 109
1, 35904, Note_on_c, 2, 71, 81
1, 35904, Note_on_c, 7, 78, 76
1, 35904, Note_off_c, 9, 42, 64
1, 35905, Control_c, 4, 11, 18
1, 35905, Note_on_c, 7, 71, 86
1, 35905, Note_on_c, 9, 35, 127
1, 35906, Control_c, 0, 11, 18
1, 35906, Control_c, 1, 11, 18
1, 35906, Control_c, 2, 11, 18
1, 35906, Control_c, 3, 11, 18
1, 35906, Control_c, 5, 11, 18
1, 35906, Control_c, 7, 11, 18
1, 35906, Note_off_c, 9, 35, 64
1, 35906, Control_c, 9, 11, 18
1, 35907, Note_on_c, 7, 74, 77
1, 35925, Note_on_c, 4, 71, 95
1, 35925, Note_on_c, 4, 74, 95
1, 35926, Note_on_c, 9, 46, 76
1, 35927, Note_off_c, 9, 46, 64
1, 35928, Note_on_c, 3, 80, 113
1, 35947, Control_c, 4, 11, 16
1, 35948, Control_c, 0, 11, 16
1, 35948, Control_c, 1, 11, 16
1, 35948, Control_c, 2, 11, 16
1, 35948, Control_c, 3, 11, 16
1, 35948, Control_c, 5, 11, 16
1, 35948, Control_c, 7, 11, 16
1, 35948, Control_c, 9, 11, 16
1, 35950, Note_off_c, 1, 47, 64
1, 35951, Note_on_c, 1, 50, 110
1, 35951, Note_on_c, 9, 42, 82
1, 35952, Note_off_c, 2, 71, 64
1, 35952, Note_off_c, 2, 66, 64
1, 35952, Note_off_c, 9, 42, 64
1, 35953, Note_on_c, 9, 38, 117
1, 35954, Note_on_c, 2, 71, 75
1, 35954, Note_on_c, 2, 66, 66
1, 35954, Note_off_c, 9, 38, 64
1, 35969, Note_off_c, 3, 80, 64
1, 35970, Note_on_c, 3, 78, 91
1, 35972, Note_off_c, 4, 74, 64
1, 35972, Note_off_c, 4, 71, 64
1, 35973, Note_on_c, 4, 71, 89
1, 35973, Note_on_c, 4, 74, 89
1, 35975, Note_on_c, 9, 46, 74
1, 35976, Note_off_c, 1, 50, 64
1, 35976, Note_off_c, 9, 46, 64
1, 35977, Note_on_c, 1, 49, 109
1, 35983, Note_on_c, 5, 85, 80
1, 35989, Control_c, 4, 11, 14
1, 35990, Control_c, 0, 11, 14
1, 35990, Control_c, 1, 11, 14
1, 35990, Control_c, 2, 11, 14
1, 35990, Control_c, 3, 11, 14
1, 35990, Control_c, 5, 11, 14
1, 35990, Control_c, 7, 11, 14
1, 35990, Control_c, 9, 11, 14
1, 35993, Note_off_c, 3, 78, 64
1, 35994, Note_off_c, 2, 59, 64
1, 35994, Note_on_c, 3, 80, 108
1, 35995, Note_on_c, 2, 59, 56
1, 35996, Note_off_c, 2, 62, 64
1, 35996, Note_off_c, 4, 74, 64
1, 35996, Note_off_c, 4, 71, 64
1, 35997, Note_off_c, 2, 66, 64
1, 35997, Note_on_c, 2, 62, 73
1, 35997, Note_on_c, 4, 74, 87
1, 35997, Note_on_c, 4, 71, 91
1, 35998, Note_off_c, 2, 71, 64
1, 35998, Note_on_c, 2, 66, 79
1, 35999, Note_on_c, 2, 71, 74
1, 35999, Note_on_c, 9, 35, 96
1, 35999, Note_on_c, 9, 38, 112
1, 36000, Note_off_c, 9, 38, 64
1, 36000, Note_off_c, 9, 35, 64
1, 36001, Note_on_c, 9, 42, 79
1, 36002, Note_off_c, 9, 42, 64
1, 36022, Note_off_c, 1, 49, 64
1, 36023, Note_on_c, 1, 47, 103
1, 36024, Note_on_c, 9, 46, 74
1, 36025, Note_off_c, 9, 46, 64
1, 36026, Note_off_c, 2, 71, 64
1, 36026, Note_off_c, 2, 66, 64
1, 36026, Note_off_c, 2, 62, 64
1, 36028, Note_off_c, 2, 59, 64
1, 36032, Control_c, 4, 11, 12
1, 36033, Control_c, 0, 11, 12
1, 36033, Control_c, 1, 11, 12
1, 36033, Control_c, 2, 11, 12
1, 36033, Control_c, 3, 11, 12
1, 36033, Control_c, 5, 11, 12
1, 36033, Control_c, 7, 11, 12
1, 36033, Control_c, 9, 11, 12
1, 36042, Note_off_c, 3, 80, 64
1, 36044, Note_on_c, 3, 78, 104
1, 36044, Note_off_c, 4, 71, 64
1, 36044, Note_off_c, 4, 74, 64
1, 36045, Note_on_c, 4, 74, 91
1, 36045, Note_on_c, 4, 71, 92
1, 36048, Note_off_c, 1, 47, 64
1, 36048, Note_on_c, 9, 38, 118
1, 36049, Note_on_c, 1, 44, 103
1, 36049, Note_off_c, 9, 38, 64
1, 36049, Note_on_c, 9, 42, 79
1, 36050, Note_off_c, 9, 42, 64
1, 36062, Note_off_c, 5, 85, 64
1, 36066, Note_on_c, 5, 82, 78
1, 36067, Note_off_c, 3, 78, 64
1, 36068, Note_off_c, 4, 71, 64
1, 36068, Note_off_c, 4, 74, 64
1, 36069, Note_on_c, 3, 78, 114
1, 36069, Note_on_c, 4, 71, 91
1, 36069, Note_on_c, 4, 74, 89
1, 36072, Note_off_c, 1, 44, 64
1, 36073, Note_on_c, 1, 42, 106
1, 36073, Note_on_c, 9, 46, 76
1, 36074, Control_c, 4, 11, 10
1, 36074, Note_off_c, 9, 46, 64
1, 36075, Control_c, 0, 11, 10
1, 36075, Control_c, 1, 11, 10
1, 36075, Control_c, 2, 11, 10
1, 36075, Control_c, 3, 11, 10
1, 36075, Control_c, 5, 11, 10
1, 36075, Control_c, 7, 11, 10
1, 36075, Control_c, 9, 11, 10
1, 36093, Note_off_c, 1, 42, 64
1, 36096, Note_on_c, 9, 42, 77
1, 36097, Note_off_c, 9, 42, 64
1, 36097, Note_on_c, 9, 35, 110
1, 36097, Note_on_c, 9, 38, 119
1, 36098, Note_on_c, 1, 44, 113
1, 36098, Note_off_c, 9, 38, 64
1, 36098, Note_off_c, 9, 35, 64
1, 36102, Note_off_c, 3, 78, 64
1, 36108, Note_off_c, 5, 82, 64
1, 36114, Note_on_c, 5, 78, 72
1, 36117, Control_c, 0, 11, 8
1, 36117, Control_c, 1, 11, 8
1, 36117, Control_c, 2, 11, 8
1, 36117, Control_c, 3, 11, 8
1, 36117, Note_off_c, 4, 74, 64
1, 36117, Note_off_c, 4, 71, 64
1, 36117, Control_c, 4, 11, 8
1, 36117, Control_c, 5, 11, 8
1, 36117, Control_c, 7, 11, 8
1, 36117, Control_c, 9, 11, 8
1, 36120, Note_on_c, 9, 46, 70
1, 36121, Note_off_c, 1, 44, 64
1, 36121, Note_off_c, 9, 46, 64
1, 36122, Note_on_c, 1, 42, 106
1, 36145, Note_off_c, 1, 42, 64
1, 36145, Note_on_c, 9, 38, 116
1, 36145, Note_on_c, 9, 42, 75
1, 36146, Note_on_c, 1, 38, 103
1, 36146, Note_off_c, 9, 42, 64
1, 36146, Note_off_c, 9, 38, 64
1, 36153, Note_off_c, 5, 78, 64
1, 36160, Control_c, 0, 11, 6
1, 36160, Control_c, 1, 11, 6
1, 36160, Control_c, 2, 11, 6
1, 36160, Control_c, 3, 11, 6
1, 36160, Control_c, 4, 11, 6
1, 36160, Control_c, 5, 11, 6
1, 36160, Control_c, 7, 11, 6
1, 36160, Control_c, 9, 11, 6
1, 36163, Note_on_c, 5, 80, 79
1, 36167, Note_on_c, 2, 66, 76
1, 36167, Note_on_c, 2, 71, 71
1, 36168, Note_on_c, 2, 62, 57
1, 36169, Note_off_c, 1, 38, 64
1, 36169, Note_on_c, 9, 46, 75
1, 36170, Note_on_c, 1, 35, 109
1, 36170, Note_off_c, 9, 46, 64
1, 36188, Note_on_c, 4, 74, 109
1, 36188, Note_on_c, 4, 71, 117
1, 36192, Note_off_c, 1, 35, 64
1, 36192, Note_on_c, 9, 42, 72
1, 36193, Note_on_c, 3, 80, 107
1, 36193, Note_off_c, 9, 42, 64
1, 36193, Note_on_c, 9, 35, 117
1, 36193, Note_on_c, 9, 38, 120
1, 36194, Note_on_c, 1, 35, 106
1, 36194, Note_off_c, 9, 38, 64
1, 36194, Note_off_c, 9, 35, 64
1, 36200, Control_c, 4, 11, 4
1, 36202, Control_c, 0, 11, 4
1, 36202, Control_c, 1, 11, 4
1, 36202, Control_c, 2, 11, 4
1, 36202, Control_c, 3, 11, 4
1, 36202, Control_c, 5, 11, 4
1, 36202, Control_c, 7, 11, 4
1, 36202, Control_c, 9, 11, 4
1, 36208, Note_off_c, 5, 80, 64
1, 36211, Note_off_c, 4, 71, 64
1, 36211, Note_off_c, 4, 74, 64
1, 36212, Note_off_c, 3, 80, 64
1, 36212, Note_on_c, 4, 74, 91
1, 36212, Note_on_c, 4, 71, 95
1, 36214, Note_off_c, 2, 71, 64
1, 36215, Note_off_c, 2, 66, 64
1, 36215, Note_on_c, 2, 71, 76
1, 36215, Note_on_c, 3, 80, 99
1, 36216, Note_off_c, 1, 35, 64
1, 36216, Note_on_c, 2, 66, 77
1, 36216, Note_on_c, 5, 78, 72
1, 36217, Note_on_c, 1, 35, 97
1, 36217, Note_on_c, 9, 46, 74
1, 36218, Note_off_c, 9, 46, 64
1, 36222, Note_on_c, 2, 59, 30
1, 36228, Note_off_c, 0, 59, 64
1, 36228, Note_off_c, 0, 62, 64
1, 36233, Note_off_c, 0, 66, 64
1, 36235, Note_off_c, 3, 80, 64
1, 36235, Note_off_c, 4, 71, 64
1, 36235, Note_off_c, 4, 74, 64
1, 36236, Note_on_c, 4, 71, 103
1, 36236, Note_on_c, 4, 74, 103
1, 36238, Note_off_c, 1, 35, 64
1, 36238, Note_on_c, 3, 80, 104
1, 36239, Note_on_c, 1, 35, 100
1, 36239, Note_off_c, 2, 62, 64
1, 36240, Note_off_c, 2, 66, 64
1, 36240, Note_on_c, 2, 62, 60
1, 36240, Note_on_c, 9, 52, 112
1, 36241, Note_off_c, 2, 71, 64
1, 36241, Note_on_c, 2, 66, 70
1, 36241, Note_off_c, 9, 52, 64
1, 36241, Note_on_c, 9, 38, 122
1, 36242, Note_on_c, 2, 71, 57
1, 36242, Control_c, 4, 11, 2
1, 36242, Note_off_c, 9, 38, 64
1, 36244, Control_c, 0, 11, 2
1, 36244, Control_c, 1, 11, 2
1, 36244, Control_c, 2, 11, 2
1, 36244, Control_c, 3, 11, 2
1, 36244, Control_c, 5, 11, 2
1, 36244, Control_c, 7, 11, 2
1, 36244, Control_c, 9, 11, 2
1, 36255, Note_off_c, 5, 78, 64
1, 36260, Note_off_c, 4, 74, 64
1, 36260, Note_off_c, 4, 71, 64
1, 36260, Note_on_c, 4, 66, 81
1, 36260, Note_on_c, 4, 73, 106
1, 36260, Note_on_c, 4, 70, 75
1, 36262, Note_off_c, 2, 71, 64
1, 36262, Note_off_c, 3, 80, 64
1, 36263, Note_on_c, 2, 71, 77
1, 36264, Note_on_c, 3, 78, 109
1, 36275, Note_off_c, 2, 62, 64
1, 36276, Note_off_c, 2, 59, 64
1, 36278, Note_off_c, 2, 66, 64
1, 36278, Note_off_c, 2, 71, 64
1, 36279, Note_off_c, 1, 35, 64
1, 36284, Note_off_c, 7, 71, 64
1, 36284, Note_off_c, 7, 78, 64
1, 36285, Control_c, 4, 11, 0
1, 36287, Control_c, 0, 11, 0
1, 36287, Control_c, 1, 11, 0
1, 36287, Note_on_c, 1, 30, 100
1, 36287, Control_c, 2, 11, 0
1, 36287, Control_c, 3, 11, 0
1, 36287, Control_c, 5, 11, 0
1, 36287, Control_c, 7, 11, 0
1, 36287, Control_c, 9, 11, 0
1, 36288, Note_on_c, 2, 66, 76
1, 36288, Note_off_c, 7, 74, 64
1, 36288, Note_on_c, 7, 78, 76
1, 36289, Note_on_c, 0, 58, 96
1, 36289, Note_on_c, 2, 70, 76
1, 36289, Note_on_c, 7, 73, 77
1, 36289, Note_on_c, 9, 35, 117
1, 36290, Note_on_c, 0, 66, 102
1, 36290, Note_on_c, 0, 61, 106
1, 36290, Note_off_c, 9, 35, 64
1, 36291, Note_on_c, 2, 61, 76
1, 36291, Note_on_c, 7, 70, 86
1, 36291, Note_on_c, 9, 49, 90
1, 36292, Note_off_c, 9, 49, 64
1, 36380, Note_off_c, 4, 73, 64
1, 36382, Note_off_c, 3, 78, 64
1, 36383, Note_off_c, 2, 66, 64
1, 36384, Note_off_c, 2, 70, 64
1, 36386, Note_off_c, 2, 61, 64
1, 36392, Note_off_c, 4, 70, 64
1, 36392, Note_off_c, 4, 66, 64
1, 36599, Note_off_c, 7, 78, 64
1, 36600, Note_off_c, 7, 73, 64
1, 36602, Note_off_c, 7, 70, 64
1, 36641, Note_off_c, 0, 58, 64
1, 36641, Note_on_c, 9, 46, 64
1, 36642, Note_off_c, 9, 46, 64
1, 36645, Note_off_c, 0, 61, 64
1, 36647, Note_off_c, 0, 66, 64
1, 36652, Note_on_c, 9, 45, 87
1, 36653, Note_off_c, 9, 45, 64
1, 36662, Note_on_c, 9, 43, 110
1, 36663, Note_off_c, 9, 43, 64
1, 36671, Note_on_c, 9, 42, 75
1, 36672, Note_off_c, 9, 42, 64
1, 36673, Note_off_c, 1, 30, 64
1, 36673, Note_on_c, 9, 35, 110
1, 36674, Note_off_c, 9, 35, 64
1, 36674, End_track
0, 0, End_of_file
