0, 0, Header, 1, 10, 240
1, 0, Start_track
1, 0, Time_signature, 4, 2, 24, 8
1, 0, Key_signature, 0, "major"
1, 0, Tempo, 666667
1, 0, Marker_t, "Nobody Knows"
1, 0, End_track
2, 0, Start_track
2, 0, MIDI_port, 0
2, 0, Title_t, "Strings"
2, 0, Program_c, 1, 50
2, 0, Control_c, 1, 7, 83
2, 480, Control_c, 1, 0, 0
2, 485, Control_c, 1, 32, 0
2, 495, Control_c, 1, 1, 0
2, 505, Control_c, 1, 10, 64
2, 510, Control_c, 1, 11, 127
2, 515, Control_c, 1, 64, 0
2, 520, Control_c, 1, 91, 64
2, 525, Control_c, 1, 93, 0
2, 530, Pitch_bend_c, 1, 8192
2, 960, Note_on_c, 1, 60, 63
2, 960, Note_on_c, 1, 69, 63
2, 960, Note_on_c, 1, 65, 63
2, 1200, Control_c, 1, 7, 83
2, 1200, Control_c, 1, 91, 64
2, 1920, Note_on_c, 1, 65, 0
2, 1920, Note_on_c, 1, 69, 0
2, 1920, Note_on_c, 1, 67, 63
2, 1920, Note_on_c, 1, 64, 63
2, 2880, Note_on_c, 1, 64, 0
2, 2880, Note_on_c, 1, 67, 0
2, 2880, Note_on_c, 1, 69, 63
2, 2880, Note_on_c, 1, 65, 63
2, 2880, Note_on_c, 1, 62, 63
2, 3840, Note_on_c, 1, 62, 0
2, 3840, Note_on_c, 1, 60, 0
2, 3840, Note_on_c, 1, 69, 0
2, 3840, Note_on_c, 1, 65, 0
2, 3840, Note_on_c, 1, 67, 79
2, 4155, Note_on_c, 1, 67, 0
2, 4320, Note_on_c, 1, 69, 79
2, 4480, Note_on_c, 1, 69, 0
2, 4560, Note_on_c, 1, 70, 79
2, 4720, Note_on_c, 1, 70, 0
2, 4800, Note_on_c, 1, 72, 79
2, 5275, Note_on_c, 1, 72, 0
2, 5520, Note_on_c, 1, 77, 79
2, 5600, Note_on_c, 1, 77, 0
2, 5640, Note_on_c, 1, 72, 79
2, 5720, Note_on_c, 1, 72, 0
2, 5760, Note_on_c, 1, 72, 79
2, 5920, Note_on_c, 1, 72, 0
2, 6000, Note_on_c, 1, 77, 79
2, 6080, Note_on_c, 1, 77, 0
2, 6120, Note_on_c, 1, 72, 79
2, 6320, Note_on_c, 1, 72, 0
2, 6360, Note_on_c, 1, 70, 79
2, 6440, Note_on_c, 1, 70, 0
2, 6480, Note_on_c, 1, 69, 79
2, 6560, Note_on_c, 1, 69, 0
2, 6600, Note_on_c, 1, 65, 79
2, 6680, Note_on_c, 1, 65, 0
2, 6720, Note_on_c, 1, 65, 79
2, 7195, Note_on_c, 1, 65, 0
2, 7440, Note_on_c, 1, 60, 79
2, 7520, Note_on_c, 1, 60, 0
2, 7560, Note_on_c, 1, 65, 79
2, 7640, Note_on_c, 1, 65, 0
2, 7680, Note_on_c, 1, 67, 79
2, 7840, Note_on_c, 1, 67, 0
2, 7920, Note_on_c, 1, 65, 79
2, 8000, Note_on_c, 1, 65, 0
2, 8040, Note_on_c, 1, 70, 79
2, 8240, Note_on_c, 1, 70, 0
2, 8280, Note_on_c, 1, 69, 79
2, 8360, Note_on_c, 1, 69, 0
2, 8400, Note_on_c, 1, 65, 79
2, 8560, Note_on_c, 1, 65, 0
2, 21960, Note_on_c, 1, 65, 47
2, 22020, Note_on_c, 1, 65, 0
2, 22020, Note_on_c, 1, 67, 63
2, 22080, Note_on_c, 1, 67, 0
2, 22080, Note_on_c, 1, 72, 47
2, 22080, Note_on_c, 1, 69, 47
2, 22080, Note_on_c, 1, 65, 47
2, 22560, Note_on_c, 1, 65, 0
2, 22920, Note_on_c, 1, 65, 63
2, 23040, Note_on_c, 1, 72, 0
2, 23040, Note_on_c, 1, 60, 63
2, 23675, Note_on_c, 1, 60, 0
2, 23675, Note_on_c, 1, 65, 0
2, 23675, Note_on_c, 1, 69, 0
2, 24000, Note_on_c, 1, 65, 47
2, 24000, Note_on_c, 1, 60, 47
2, 24000, Note_on_c, 1, 62, 63
2, 24000, Note_on_c, 1, 69, 63
2, 24960, Note_on_c, 1, 69, 0
2, 24960, Note_on_c, 1, 65, 0
2, 24960, Note_on_c, 1, 60, 0
2, 24960, Note_on_c, 1, 62, 0
2, 24960, Note_on_c, 1, 60, 63
2, 24960, Note_on_c, 1, 64, 63
2, 24960, Note_on_c, 1, 67, 63
2, 25920, Note_on_c, 1, 67, 0
2, 25920, Note_on_c, 1, 64, 0
2, 25920, Note_on_c, 1, 60, 0
2, 25920, Note_on_c, 1, 70, 63
2, 25920, Note_on_c, 1, 58, 63
2, 25920, Note_on_c, 1, 62, 63
2, 25920, Note_on_c, 1, 65, 63
2, 26880, Note_on_c, 1, 65, 0
2, 26880, Note_on_c, 1, 70, 0
2, 26880, Note_on_c, 1, 58, 0
2, 26880, Note_on_c, 1, 62, 0
2, 26880, Note_on_c, 1, 67, 63
2, 26880, Note_on_c, 1, 60, 63
2, 26880, Note_on_c, 1, 64, 63
2, 27840, Note_on_c, 1, 64, 0
2, 27840, Note_on_c, 1, 60, 0
2, 27840, Note_on_c, 1, 67, 0
2, 27840, Note_on_c, 1, 72, 63
2, 27840, Note_on_c, 1, 69, 63
2, 27840, Note_on_c, 1, 62, 63
2, 27840, Note_on_c, 1, 65, 63
2, 28800, Note_on_c, 1, 65, 0
2, 28800, Note_on_c, 1, 62, 0
2, 28800, Note_on_c, 1, 69, 0
2, 28800, Note_on_c, 1, 64, 63
2, 28800, Note_on_c, 1, 67, 63
2, 29760, Note_on_c, 1, 67, 0
2, 29760, Note_on_c, 1, 64, 0
2, 29760, Note_on_c, 1, 72, 0
2, 29760, Note_on_c, 1, 70, 63
2, 29760, Note_on_c, 1, 65, 63
2, 29760, Note_on_c, 1, 62, 63
2, 31355, Note_on_c, 1, 62, 0
2, 31355, Note_on_c, 1, 65, 0
2, 31355, Note_on_c, 1, 70, 0
2, 35520, Note_on_c, 1, 70, 47
2, 35520, Note_on_c, 1, 62, 63
2, 35520, Note_on_c, 1, 65, 63
2, 36480, Note_on_c, 1, 65, 0
2, 36480, Note_on_c, 1, 62, 0
2, 36480, Note_on_c, 1, 62, 63
2, 36480, Note_on_c, 1, 67, 63
2, 37440, Note_on_c, 1, 67, 0
2, 37440, Note_on_c, 1, 62, 0
2, 37440, Note_on_c, 1, 70, 0
2, 37440, Note_on_c, 1, 69, 63
2, 37440, Note_on_c, 1, 65, 63
2, 37440, Note_on_c, 1, 60, 63
2, 39035, Note_on_c, 1, 60, 0
2, 39035, Note_on_c, 1, 65, 0
2, 39035, Note_on_c, 1, 69, 0
2, 43200, Note_on_c, 1, 70, 47
2, 43200, Note_on_c, 1, 62, 63
2, 43200, Note_on_c, 1, 58, 47
2, 44160, Note_on_c, 1, 58, 0
2, 44160, Note_on_c, 1, 62, 0
2, 44160, Note_on_c, 1, 62, 63
2, 44160, Note_on_c, 1, 67, 63
2, 44795, Note_on_c, 1, 67, 0
2, 45120, Note_on_c, 1, 62, 0
2, 45120, Note_on_c, 1, 70, 0
2, 45120, Note_on_c, 1, 65, 79
2, 45595, Note_on_c, 1, 65, 0
2, 45840, Note_on_c, 1, 60, 79
2, 45920, Note_on_c, 1, 60, 0
2, 45960, Note_on_c, 1, 65, 79
2, 46040, Note_on_c, 1, 65, 0
2, 46080, Note_on_c, 1, 67, 79
2, 46240, Note_on_c, 1, 67, 0
2, 46320, Note_on_c, 1, 65, 63
2, 46400, Note_on_c, 1, 65, 0
2, 46440, Note_on_c, 1, 70, 63
2, 46640, Note_on_c, 1, 70, 0
2, 46680, Note_on_c, 1, 69, 63
2, 46760, Note_on_c, 1, 69, 0
2, 46800, Note_on_c, 1, 65, 79
2, 46960, Note_on_c, 1, 65, 0
2, 50880, Note_on_c, 1, 72, 63
2, 51355, Note_on_c, 1, 72, 0
2, 51600, Note_on_c, 1, 77, 63
2, 51680, Note_on_c, 1, 77, 0
2, 51720, Note_on_c, 1, 72, 63
2, 51800, Note_on_c, 1, 72, 0
2, 51840, Note_on_c, 1, 72, 63
2, 52000, Note_on_c, 1, 72, 0
2, 52080, Note_on_c, 1, 77, 63
2, 52160, Note_on_c, 1, 77, 0
2, 52200, Note_on_c, 1, 72, 63
2, 52400, Note_on_c, 1, 72, 0
2, 52440, Note_on_c, 1, 70, 63
2, 52520, Note_on_c, 1, 70, 0
2, 52560, Note_on_c, 1, 69, 63
2, 52640, Note_on_c, 1, 69, 0
2, 52680, Note_on_c, 1, 65, 63
2, 52760, Note_on_c, 1, 65, 0
2, 52800, Note_on_c, 1, 69, 63
2, 52800, Note_on_c, 1, 65, 63
2, 53760, Note_on_c, 1, 69, 0
2, 53760, Note_on_c, 1, 60, 63
2, 54395, Note_on_c, 1, 60, 0
2, 54395, Note_on_c, 1, 65, 0
2, 54720, Note_on_c, 1, 69, 63
2, 54720, Note_on_c, 1, 60, 63
2, 54720, Note_on_c, 1, 62, 63
2, 54720, Note_on_c, 1, 65, 47
2, 55680, Note_on_c, 1, 65, 0
2, 55680, Note_on_c, 1, 69, 0
2, 55680, Note_on_c, 1, 60, 0
2, 55680, Note_on_c, 1, 62, 0
2, 55680, Note_on_c, 1, 67, 63
2, 55680, Note_on_c, 1, 60, 63
2, 55680, Note_on_c, 1, 64, 63
2, 56640, Note_on_c, 1, 64, 0
2, 56640, Note_on_c, 1, 60, 0
2, 56640, Note_on_c, 1, 67, 0
2, 56640, Note_on_c, 1, 70, 63
2, 56640, Note_on_c, 1, 65, 63
2, 56640, Note_on_c, 1, 62, 63
2, 57600, Note_on_c, 1, 62, 0
2, 57600, Note_on_c, 1, 65, 0
2, 57600, Note_on_c, 1, 70, 0
2, 57600, Note_on_c, 1, 67, 63
2, 57600, Note_on_c, 1, 64, 63
2, 57600, Note_on_c, 1, 72, 63
2, 58235, Note_on_c, 1, 72, 0
2, 58560, Note_on_c, 1, 64, 0
2, 58560, Note_on_c, 1, 67, 0
2, 58560, Note_on_c, 1, 69, 63
2, 58560, Note_on_c, 1, 60, 63
2, 58560, Note_on_c, 1, 65, 63
2, 58560, Note_on_c, 1, 62, 63
2, 59520, Note_on_c, 1, 62, 0
2, 59520, Note_on_c, 1, 69, 0
2, 59520, Note_on_c, 1, 60, 0
2, 59520, Note_on_c, 1, 65, 0
2, 59520, Note_on_c, 1, 67, 63
2, 59520, Note_on_c, 1, 60, 63
2, 59520, Note_on_c, 1, 64, 63
2, 60480, Note_on_c, 1, 64, 0
2, 60480, Note_on_c, 1, 60, 0
2, 60480, Note_on_c, 1, 67, 0
2, 60480, Note_on_c, 1, 65, 63
2, 60480, Note_on_c, 1, 62, 63
2, 60480, Note_on_c, 1, 70, 63
2, 62075, Note_on_c, 1, 70, 0
2, 62400, Note_on_c, 1, 62, 0
2, 62400, Note_on_c, 1, 65, 0
2, 66240, Note_on_c, 1, 70, 47
2, 66240, Note_on_c, 1, 62, 63
2, 66240, Note_on_c, 1, 65, 47
2, 67200, Note_on_c, 1, 65, 0
2, 67200, Note_on_c, 1, 62, 0
2, 67200, Note_on_c, 1, 70, 0
2, 67200, Note_on_c, 1, 70, 47
2, 67200, Note_on_c, 1, 67, 63
2, 67200, Note_on_c, 1, 62, 63
2, 68160, Note_on_c, 1, 62, 0
2, 68160, Note_on_c, 1, 67, 0
2, 68160, Note_on_c, 1, 70, 0
2, 68160, Note_on_c, 1, 69, 63
2, 68160, Note_on_c, 1, 65, 63
2, 68160, Note_on_c, 1, 60, 63
2, 69755, Note_on_c, 1, 60, 0
2, 69755, Note_on_c, 1, 65, 0
2, 69755, Note_on_c, 1, 69, 0
2, 70080, Note_on_c, 1, 69, 63
2, 70080, Note_on_c, 1, 60, 63
2, 70080, Note_on_c, 1, 62, 63
2, 70080, Note_on_c, 1, 65, 63
2, 71040, Note_on_c, 1, 65, 0
2, 71040, Note_on_c, 1, 69, 0
2, 71040, Note_on_c, 1, 60, 0
2, 71040, Note_on_c, 1, 62, 0
2, 71040, Note_on_c, 1, 67, 63
2, 71040, Note_on_c, 1, 60, 63
2, 71040, Note_on_c, 1, 64, 63
2, 72000, Note_on_c, 1, 64, 0
2, 72000, Note_on_c, 1, 60, 0
2, 72000, Note_on_c, 1, 67, 0
2, 72000, Note_on_c, 1, 70, 63
2, 72000, Note_on_c, 1, 62, 63
2, 72000, Note_on_c, 1, 65, 63
2, 72960, Note_on_c, 1, 65, 0
2, 72960, Note_on_c, 1, 62, 0
2, 72960, Note_on_c, 1, 70, 0
2, 72960, Note_on_c, 1, 67, 63
2, 72960, Note_on_c, 1, 60, 63
2, 72960, Note_on_c, 1, 64, 63
2, 73920, Note_on_c, 1, 64, 0
2, 73920, Note_on_c, 1, 60, 0
2, 73920, Note_on_c, 1, 67, 0
2, 73920, Note_on_c, 1, 69, 63
2, 73920, Note_on_c, 1, 60, 63
2, 73920, Note_on_c, 1, 62, 63
2, 73920, Note_on_c, 1, 65, 63
2, 74880, Note_on_c, 1, 65, 0
2, 74880, Note_on_c, 1, 69, 0
2, 74880, Note_on_c, 1, 60, 0
2, 74880, Note_on_c, 1, 62, 0
2, 74880, Note_on_c, 1, 60, 63
2, 74880, Note_on_c, 1, 64, 63
2, 74880, Note_on_c, 1, 67, 63
2, 75840, Note_on_c, 1, 67, 0
2, 75840, Note_on_c, 1, 64, 0
2, 75840, Note_on_c, 1, 60, 0
2, 75840, Note_on_c, 1, 70, 63
2, 75840, Note_on_c, 1, 62, 63
2, 75840, Note_on_c, 1, 65, 63
2, 77435, Note_on_c, 1, 65, 0
2, 77435, Note_on_c, 1, 62, 0
2, 77435, Note_on_c, 1, 70, 0
2, 77760, Note_on_c, 1, 69, 63
2, 78720, Note_on_c, 1, 69, 0
2, 78720, Note_on_c, 1, 67, 63
2, 79680, Note_on_c, 1, 67, 0
2, 79680, Note_on_c, 1, 65, 63
2, 80640, Note_on_c, 1, 65, 0
2, 80640, Note_on_c, 1, 67, 79
2, 81120, Note_on_c, 1, 67, 0
2, 81120, Note_on_c, 1, 69, 79
2, 81360, Note_on_c, 1, 69, 0
2, 81360, Note_on_c, 1, 70, 79
2, 81600, Note_on_c, 1, 70, 0
2, 81600, Note_on_c, 1, 70, 47
2, 81600, Note_on_c, 1, 62, 63
2, 81600, Note_on_c, 1, 65, 47
2, 81600, Note_on_c, 1, 72, 63
2, 82075, Note_on_c, 1, 72, 0
2, 82320, Note_on_c, 1, 77, 63
2, 82400, Note_on_c, 1, 77, 0
2, 82440, Note_on_c, 1, 65, 0
2, 82440, Note_on_c, 1, 65, 63
2, 82440, Note_on_c, 1, 72, 79
2, 82520, Note_on_c, 1, 72, 0
2, 82560, Note_on_c, 1, 65, 0
2, 82560, Note_on_c, 1, 62, 0
2, 82560, Note_on_c, 1, 74, 63
2, 82560, Note_on_c, 1, 72, 63
2, 82720, Note_on_c, 1, 72, 0
2, 82800, Note_on_c, 1, 77, 63
2, 82880, Note_on_c, 1, 77, 0
2, 82920, Note_on_c, 1, 72, 79
2, 83120, Note_on_c, 1, 72, 0
2, 83160, Note_on_c, 1, 70, 0
2, 83160, Note_on_c, 1, 70, 79
2, 83240, Note_on_c, 1, 70, 0
2, 83280, Note_on_c, 1, 69, 79
2, 83360, Note_on_c, 1, 69, 0
2, 83400, Note_on_c, 1, 65, 79
2, 83480, Note_on_c, 1, 65, 0
2, 83520, Note_on_c, 1, 74, 0
2, 83520, Note_on_c, 1, 69, 47
2, 83520, Note_on_c, 1, 65, 63
2, 83520, Note_on_c, 1, 60, 47
2, 83520, Note_on_c, 1, 65, 63
2, 83521, Note_on_c, 1, 65, 0
2, 84240, Note_on_c, 1, 60, 0
2, 84240, Note_on_c, 1, 65, 0
2, 84240, Note_on_c, 1, 60, 79
2, 84320, Note_on_c, 1, 60, 0
2, 84360, Note_on_c, 1, 65, 79
2, 84440, Note_on_c, 1, 65, 0
2, 84480, Note_on_c, 1, 67, 79
2, 84640, Note_on_c, 1, 67, 0
2, 84840, Note_on_c, 1, 70, 79
2, 85040, Note_on_c, 1, 70, 0
2, 85160, Note_on_c, 1, 69, 0
2, 85200, Note_on_c, 1, 65, 79
2, 85360, Note_on_c, 1, 65, 0
2, 85440, Note_on_c, 1, 69, 63
2, 85440, Note_on_c, 1, 65, 63
2, 86400, Note_on_c, 1, 65, 0
2, 86400, Note_on_c, 1, 69, 0
2, 86400, Note_on_c, 1, 67, 47
2, 86400, Note_on_c, 1, 64, 47
2, 86400, Note_on_c, 1, 60, 47
2, 87360, Note_on_c, 1, 60, 0
2, 87360, Note_on_c, 1, 64, 0
2, 87360, Note_on_c, 1, 67, 0
2, 87360, Note_on_c, 1, 69, 47
2, 87360, Note_on_c, 1, 62, 47
2, 87360, Note_on_c, 1, 65, 47
2, 87360, Note_on_c, 1, 60, 47
2, 88320, Note_on_c, 1, 60, 0
2, 88320, Note_on_c, 1, 69, 0
2, 88320, Note_on_c, 1, 62, 0
2, 88320, Note_on_c, 1, 65, 0
2, 88320, Note_on_c, 1, 67, 47
2, 88320, Note_on_c, 1, 60, 47
2, 88320, Note_on_c, 1, 64, 47
2, 89280, Note_on_c, 1, 64, 0
2, 89280, Note_on_c, 1, 60, 0
2, 89280, Note_on_c, 1, 67, 0
2, 89280, Note_on_c, 1, 70, 47
2, 89280, Note_on_c, 1, 65, 47
2, 89280, Note_on_c, 1, 62, 47
2, 90240, Note_on_c, 1, 62, 0
2, 90240, Note_on_c, 1, 65, 0
2, 90240, Note_on_c, 1, 70, 0
2, 90240, Note_on_c, 1, 70, 47
2, 90240, Note_on_c, 1, 62, 47
2, 90240, Note_on_c, 1, 67, 47
2, 91200, Note_on_c, 1, 67, 0
2, 91200, Note_on_c, 1, 62, 0
2, 91200, Note_on_c, 1, 70, 0
2, 91200, Note_on_c, 1, 69, 47
2, 91200, Note_on_c, 1, 60, 47
2, 91200, Note_on_c, 1, 65, 47
2, 92795, Note_on_c, 1, 65, 0
2, 92795, Note_on_c, 1, 60, 0
2, 92795, Note_on_c, 1, 69, 0
2, 93120, Note_on_c, 1, 69, 31
2, 93120, Note_on_c, 1, 60, 31
2, 93120, Note_on_c, 1, 65, 31
2, 94080, Note_on_c, 1, 65, 0
2, 94080, Note_on_c, 1, 60, 0
2, 94080, Note_on_c, 1, 69, 0
2, 94080, Note_on_c, 1, 67, 31
2, 94080, Note_on_c, 1, 64, 31
2, 94080, Note_on_c, 1, 60, 31
2, 95040, Note_on_c, 1, 60, 0
2, 95040, Note_on_c, 1, 64, 0
2, 95040, Note_on_c, 1, 67, 0
2, 95040, Note_on_c, 1, 69, 31
2, 95040, Note_on_c, 1, 65, 31
2, 95040, Note_on_c, 1, 62, 31
2, 95040, Note_on_c, 1, 60, 31
2, 96000, Note_on_c, 1, 60, 0
2, 96000, Note_on_c, 1, 69, 0
2, 96000, Note_on_c, 1, 65, 0
2, 96000, Note_on_c, 1, 62, 0
2, 96000, Note_on_c, 1, 67, 31
2, 96000, Note_on_c, 1, 60, 31
2, 96000, Note_on_c, 1, 64, 31
2, 96960, Note_on_c, 1, 64, 0
2, 96960, Note_on_c, 1, 60, 0
2, 96960, Note_on_c, 1, 67, 0
2, 96960, Note_on_c, 1, 70, 31
2, 96960, Note_on_c, 1, 62, 31
2, 96960, Note_on_c, 1, 65, 31
2, 97920, Note_on_c, 1, 65, 0
2, 97920, Note_on_c, 1, 67, 31
2, 98880, Note_on_c, 1, 67, 0
2, 98880, Note_on_c, 1, 62, 0
2, 98880, Note_on_c, 1, 70, 0
2, 98880, Note_on_c, 1, 69, 31
2, 98880, Note_on_c, 1, 60, 31
2, 98880, Note_on_c, 1, 65, 31
2, 100475, Note_on_c, 1, 65, 0
2, 100475, Note_on_c, 1, 60, 0
2, 100475, Note_on_c, 1, 69, 0
2, 100475, End_track
3, 0, Start_track
3, 0, MIDI_port, 0
3, 0, Title_t, "AcousticGt"
3, 0, Program_c, 2, 25
3, 0, Control_c, 2, 7, 83
3, 480, Control_c, 2, 0, 0
3, 485, Control_c, 2, 32, 0
3, 495, Control_c, 2, 1, 0
3, 505, Control_c, 2, 10, 27
3, 510, Control_c, 2, 11, 127
3, 515, Control_c, 2, 64, 0
3, 520, Control_c, 2, 91, 64
3, 525, Control_c, 2, 93, 0
3, 530, Pitch_bend_c, 2, 8192
3, 960, Note_on_c, 2, 69, 79
3, 1080, Note_on_c, 2, 57, 79
3, 1160, Note_on_c, 2, 57, 0
3, 1200, Control_c, 2, 7, 83
3, 1200, Control_c, 2, 91, 64
3, 1200, Note_on_c, 2, 60, 79
3, 1280, Note_on_c, 2, 60, 0
3, 1320, Note_on_c, 2, 65, 79
3, 1400, Note_on_c, 2, 65, 0
3, 1440, Note_on_c, 2, 60, 79
3, 1520, Note_on_c, 2, 60, 0
3, 1560, Note_on_c, 2, 57, 79
3, 1595, Note_on_c, 2, 69, 0
3, 1640, Note_on_c, 2, 57, 0
3, 1680, Note_on_c, 2, 65, 79
3, 1760, Note_on_c, 2, 65, 0
3, 1800, Note_on_c, 2, 60, 79
3, 1880, Note_on_c, 2, 60, 0
3, 1920, Note_on_c, 2, 67, 79
3, 2040, Note_on_c, 2, 52, 79
3, 2120, Note_on_c, 2, 52, 0
3, 2160, Note_on_c, 2, 55, 79
3, 2240, Note_on_c, 2, 55, 0
3, 2280, Note_on_c, 2, 60, 79
3, 2360, Note_on_c, 2, 60, 0
3, 2400, Note_on_c, 2, 55, 79
3, 2555, Note_on_c, 2, 67, 0
3, 2560, Note_on_c, 2, 55, 0
3, 2640, Note_on_c, 2, 60, 79
3, 2720, Note_on_c, 2, 60, 0
3, 2760, Note_on_c, 2, 55, 79
3, 2840, Note_on_c, 2, 55, 0
3, 2880, Note_on_c, 2, 65, 79
3, 3000, Note_on_c, 2, 57, 79
3, 3080, Note_on_c, 2, 57, 0
3, 3120, Note_on_c, 2, 60, 79
3, 3200, Note_on_c, 2, 60, 0
3, 3240, Note_on_c, 2, 65, 0
3, 3240, Note_on_c, 2, 65, 79
3, 3320, Note_on_c, 2, 65, 0
3, 3360, Note_on_c, 2, 60, 79
3, 3440, Note_on_c, 2, 60, 0
3, 3480, Note_on_c, 2, 57, 79
3, 3560, Note_on_c, 2, 57, 0
3, 3600, Note_on_c, 2, 65, 79
3, 3680, Note_on_c, 2, 65, 0
3, 3720, Note_on_c, 2, 60, 79
3, 3800, Note_on_c, 2, 60, 0
3, 3840, Note_on_c, 2, 67, 79
3, 3960, Note_on_c, 2, 55, 79
3, 4040, Note_on_c, 2, 55, 0
3, 4080, Note_on_c, 2, 60, 79
3, 4155, Note_on_c, 2, 67, 0
3, 4160, Note_on_c, 2, 60, 0
3, 4200, Note_on_c, 2, 64, 79
3, 4280, Note_on_c, 2, 64, 0
3, 4320, Note_on_c, 2, 55, 79
3, 4320, Note_on_c, 2, 69, 79
3, 4480, Note_on_c, 2, 69, 0
3, 4480, Note_on_c, 2, 55, 0
3, 4560, Note_on_c, 2, 60, 79
3, 4560, Note_on_c, 2, 70, 79
3, 4640, Note_on_c, 2, 60, 0
3, 4680, Note_on_c, 2, 64, 79
3, 4720, Note_on_c, 2, 70, 0
3, 4760, Note_on_c, 2, 64, 0
3, 4800, Note_on_c, 2, 72, 79
3, 4920, Note_on_c, 2, 53, 79
3, 5000, Note_on_c, 2, 53, 0
3, 5040, Note_on_c, 2, 58, 79
3, 5120, Note_on_c, 2, 58, 0
3, 5160, Note_on_c, 2, 62, 79
3, 5240, Note_on_c, 2, 62, 0
3, 5275, Note_on_c, 2, 72, 0
3, 5280, Note_on_c, 2, 58, 79
3, 5360, Note_on_c, 2, 58, 0
3, 5400, Note_on_c, 2, 53, 79
3, 5480, Note_on_c, 2, 53, 0
3, 5520, Note_on_c, 2, 62, 79
3, 5600, Note_on_c, 2, 62, 0
3, 5640, Note_on_c, 2, 60, 79
3, 5720, Note_on_c, 2, 60, 0
3, 5880, Note_on_c, 2, 57, 79
3, 5960, Note_on_c, 2, 57, 0
3, 6000, Note_on_c, 2, 58, 79
3, 6080, Note_on_c, 2, 58, 0
3, 6120, Note_on_c, 2, 62, 79
3, 6200, Note_on_c, 2, 62, 0
3, 6240, Note_on_c, 2, 58, 79
3, 6320, Note_on_c, 2, 58, 0
3, 6360, Note_on_c, 2, 53, 79
3, 6360, Note_on_c, 2, 70, 79
3, 6440, Note_on_c, 2, 70, 0
3, 6440, Note_on_c, 2, 53, 0
3, 6480, Note_on_c, 2, 62, 79
3, 6480, Note_on_c, 2, 69, 79
3, 6560, Note_on_c, 2, 69, 0
3, 6560, Note_on_c, 2, 62, 0
3, 6600, Note_on_c, 2, 60, 79
3, 6600, Note_on_c, 2, 65, 79
3, 6680, Note_on_c, 2, 65, 0
3, 6680, Note_on_c, 2, 60, 0
3, 6720, Note_on_c, 2, 65, 79
3, 6840, Note_on_c, 2, 57, 79
3, 6920, Note_on_c, 2, 57, 0
3, 6960, Note_on_c, 2, 60, 79
3, 7040, Note_on_c, 2, 60, 0
3, 7080, Note_on_c, 2, 65, 0
3, 7080, Note_on_c, 2, 65, 79
3, 7160, Note_on_c, 2, 65, 0
3, 7200, Note_on_c, 2, 60, 79
3, 7280, Note_on_c, 2, 60, 0
3, 7320, Note_on_c, 2, 57, 79
3, 7440, Note_on_c, 2, 60, 79
3, 7520, Note_on_c, 2, 60, 0
3, 7560, Note_on_c, 2, 65, 79
3, 7600, Note_on_c, 2, 57, 0
3, 7640, Note_on_c, 2, 65, 0
3, 7680, Note_on_c, 2, 65, 79
3, 7680, Note_on_c, 2, 60, 79
3, 7680, Note_on_c, 2, 69, 79
3, 8315, Note_on_c, 2, 69, 0
3, 8315, Note_on_c, 2, 60, 0
3, 8315, Note_on_c, 2, 65, 0
3, 8640, Note_on_c, 2, 57, 63
3, 8640, Note_on_c, 2, 60, 63
3, 8640, Note_on_c, 2, 65, 63
3, 9275, Note_on_c, 2, 65, 0
3, 9275, Note_on_c, 2, 60, 0
3, 9275, Note_on_c, 2, 57, 0
3, 9600, Note_on_c, 2, 60, 63
3, 9600, Note_on_c, 2, 64, 63
3, 9600, Note_on_c, 2, 67, 63
3, 10235, Note_on_c, 2, 67, 0
3, 10235, Note_on_c, 2, 64, 0
3, 10235, Note_on_c, 2, 60, 0
3, 10560, Note_on_c, 2, 60, 63
3, 10560, Note_on_c, 2, 57, 63
3, 10560, Note_on_c, 2, 65, 63
3, 11195, Note_on_c, 2, 65, 0
3, 11195, Note_on_c, 2, 57, 0
3, 11195, Note_on_c, 2, 60, 0
3, 11520, Note_on_c, 2, 64, 63
3, 11520, Note_on_c, 2, 60, 63
3, 11520, Note_on_c, 2, 67, 63
3, 12120, Note_on_c, 2, 67, 0
3, 12120, Note_on_c, 2, 64, 0
3, 12155, Note_on_c, 2, 60, 0
3, 12480, Note_on_c, 2, 58, 79
3, 12480, Note_on_c, 2, 62, 63
3, 12480, Note_on_c, 2, 65, 79
3, 13115, Note_on_c, 2, 65, 0
3, 13115, Note_on_c, 2, 62, 0
3, 13115, Note_on_c, 2, 58, 0
3, 13440, Note_on_c, 2, 67, 63
3, 13440, Note_on_c, 2, 62, 79
3, 13440, Note_on_c, 2, 70, 79
3, 14075, Note_on_c, 2, 70, 0
3, 14075, Note_on_c, 2, 62, 0
3, 14075, Note_on_c, 2, 67, 0
3, 14400, Note_on_c, 2, 60, 63
3, 14400, Note_on_c, 2, 65, 63
3, 14400, Note_on_c, 2, 69, 79
3, 14520, Note_on_c, 2, 48, 79
3, 14600, Note_on_c, 2, 48, 0
3, 14640, Note_on_c, 2, 53, 79
3, 14720, Note_on_c, 2, 53, 0
3, 14760, Note_on_c, 2, 57, 79
3, 14960, Note_on_c, 2, 57, 0
3, 15000, Note_on_c, 2, 48, 79
3, 15035, Note_on_c, 2, 60, 0
3, 15035, Note_on_c, 2, 69, 0
3, 15035, Note_on_c, 2, 65, 0
3, 15080, Note_on_c, 2, 48, 0
3, 15120, Note_on_c, 2, 53, 79
3, 15200, Note_on_c, 2, 53, 0
3, 15240, Note_on_c, 2, 57, 79
3, 15320, Note_on_c, 2, 57, 0
3, 15360, Note_on_c, 2, 65, 79
3, 15360, Note_on_c, 2, 60, 63
3, 15360, Note_on_c, 2, 69, 63
3, 15480, Note_on_c, 2, 48, 79
3, 15560, Note_on_c, 2, 48, 0
3, 15600, Note_on_c, 2, 57, 79
3, 15680, Note_on_c, 2, 57, 0
3, 15720, Note_on_c, 2, 53, 79
3, 15920, Note_on_c, 2, 53, 0
3, 15960, Note_on_c, 2, 48, 79
3, 15995, Note_on_c, 2, 65, 0
3, 15995, Note_on_c, 2, 69, 0
3, 15995, Note_on_c, 2, 60, 0
3, 16040, Note_on_c, 2, 48, 0
3, 16080, Note_on_c, 2, 57, 79
3, 16160, Note_on_c, 2, 57, 0
3, 16200, Note_on_c, 2, 58, 79
3, 16280, Note_on_c, 2, 58, 0
3, 16320, Note_on_c, 2, 57, 63
3, 16320, Note_on_c, 2, 60, 63
3, 16320, Note_on_c, 2, 65, 63
3, 16955, Note_on_c, 2, 65, 0
3, 16955, Note_on_c, 2, 60, 0
3, 16955, Note_on_c, 2, 57, 0
3, 17280, Note_on_c, 2, 60, 63
3, 17280, Note_on_c, 2, 64, 63
3, 17280, Note_on_c, 2, 67, 63
3, 17915, Note_on_c, 2, 67, 0
3, 17915, Note_on_c, 2, 64, 0
3, 17915, Note_on_c, 2, 60, 0
3, 18240, Note_on_c, 2, 57, 63
3, 18240, Note_on_c, 2, 60, 63
3, 18240, Note_on_c, 2, 65, 63
3, 18875, Note_on_c, 2, 65, 0
3, 18875, Note_on_c, 2, 60, 0
3, 18875, Note_on_c, 2, 57, 0
3, 19200, Note_on_c, 2, 60, 63
3, 19200, Note_on_c, 2, 64, 63
3, 19200, Note_on_c, 2, 67, 63
3, 19800, Note_on_c, 2, 64, 0
3, 19800, Note_on_c, 2, 60, 0
3, 19835, Note_on_c, 2, 67, 0
3, 19920, Note_on_c, 2, 69, 63
3, 20080, Note_on_c, 2, 69, 0
3, 20160, Note_on_c, 2, 62, 79
3, 20160, Note_on_c, 2, 58, 79
3, 20160, Note_on_c, 2, 70, 63
3, 20795, Note_on_c, 2, 70, 0
3, 20795, Note_on_c, 2, 58, 0
3, 20795, Note_on_c, 2, 62, 0
3, 21120, Note_on_c, 2, 67, 79
3, 21120, Note_on_c, 2, 62, 79
3, 21120, Note_on_c, 2, 70, 79
3, 21755, Note_on_c, 2, 70, 0
3, 21755, Note_on_c, 2, 62, 0
3, 21755, Note_on_c, 2, 67, 0
3, 22080, Note_on_c, 2, 65, 79
3, 22080, Note_on_c, 2, 60, 79
3, 22080, Note_on_c, 2, 69, 79
3, 22200, Note_on_c, 2, 48, 79
3, 22280, Note_on_c, 2, 48, 0
3, 22320, Note_on_c, 2, 53, 79
3, 22400, Note_on_c, 2, 53, 0
3, 22440, Note_on_c, 2, 57, 79
3, 22715, Note_on_c, 2, 69, 0
3, 22715, Note_on_c, 2, 65, 0
3, 22715, Note_on_c, 2, 60, 0
3, 22720, Note_on_c, 2, 57, 0
3, 22800, Note_on_c, 2, 48, 79
3, 22880, Note_on_c, 2, 48, 0
3, 22920, Note_on_c, 2, 53, 79
3, 23000, Note_on_c, 2, 53, 0
3, 23040, Note_on_c, 2, 60, 63
3, 23040, Note_on_c, 2, 65, 63
3, 23040, Note_on_c, 2, 69, 79
3, 23040, Note_on_c, 2, 57, 79
3, 23120, Note_on_c, 2, 57, 0
3, 23160, Note_on_c, 2, 53, 79
3, 23240, Note_on_c, 2, 53, 0
3, 23280, Note_on_c, 2, 48, 79
3, 23360, Note_on_c, 2, 48, 0
3, 23400, Note_on_c, 2, 57, 79
3, 23480, Note_on_c, 2, 57, 0
3, 23520, Note_on_c, 2, 53, 79
3, 23600, Note_on_c, 2, 53, 0
3, 23640, Note_on_c, 2, 48, 79
3, 23675, Note_on_c, 2, 69, 0
3, 23675, Note_on_c, 2, 65, 0
3, 23840, Note_on_c, 2, 48, 0
3, 24000, Note_on_c, 2, 60, 0
3, 24000, Note_on_c, 2, 69, 79
3, 24000, Note_on_c, 2, 65, 79
3, 24000, Note_on_c, 2, 72, 79
3, 24635, Note_on_c, 2, 72, 0
3, 24635, Note_on_c, 2, 65, 0
3, 24635, Note_on_c, 2, 69, 0
3, 24960, Note_on_c, 2, 67, 79
3, 24960, Note_on_c, 2, 64, 79
3, 24960, Note_on_c, 2, 72, 79
3, 25595, Note_on_c, 2, 72, 0
3, 25595, Note_on_c, 2, 64, 0
3, 25595, Note_on_c, 2, 67, 0
3, 25920, Note_on_c, 2, 65, 79
3, 25920, Note_on_c, 2, 62, 79
3, 25920, Note_on_c, 2, 72, 79
3, 26640, Note_on_c, 2, 72, 0
3, 26640, Note_on_c, 2, 62, 0
3, 26640, Note_on_c, 2, 65, 0
3, 26760, Note_on_c, 2, 69, 79
3, 26760, Note_on_c, 2, 60, 79
3, 26760, Note_on_c, 2, 64, 79
3, 27515, Note_on_c, 2, 64, 0
3, 27515, Note_on_c, 2, 60, 0
3, 27515, Note_on_c, 2, 69, 0
3, 27840, Note_on_c, 2, 65, 79
3, 27840, Note_on_c, 2, 62, 79
3, 27840, Note_on_c, 2, 72, 79
3, 28475, Note_on_c, 2, 72, 0
3, 28475, Note_on_c, 2, 62, 0
3, 28475, Note_on_c, 2, 65, 0
3, 28800, Note_on_c, 2, 67, 79
3, 28800, Note_on_c, 2, 64, 79
3, 28800, Note_on_c, 2, 72, 79
3, 29435, Note_on_c, 2, 72, 0
3, 29435, Note_on_c, 2, 64, 0
3, 29435, Note_on_c, 2, 67, 0
3, 29760, Note_on_c, 2, 65, 79
3, 29760, Note_on_c, 2, 62, 79
3, 29760, Note_on_c, 2, 70, 79
3, 30395, Note_on_c, 2, 70, 0
3, 30395, Note_on_c, 2, 62, 0
3, 30395, Note_on_c, 2, 65, 0
3, 30720, Note_on_c, 2, 62, 79
3, 30720, Note_on_c, 2, 65, 79
3, 31035, Note_on_c, 2, 65, 0
3, 31035, Note_on_c, 2, 62, 0
3, 31200, Note_on_c, 2, 65, 79
3, 31200, Note_on_c, 2, 70, 79
3, 31515, Note_on_c, 2, 70, 0
3, 31515, Note_on_c, 2, 65, 0
3, 31680, Note_on_c, 2, 57, 79
3, 31680, Note_on_c, 2, 53, 63
3, 31680, Note_on_c, 2, 60, 63
3, 32315, Note_on_c, 2, 60, 0
3, 32315, Note_on_c, 2, 53, 0
3, 32315, Note_on_c, 2, 57, 0
3, 32640, Note_on_c, 2, 60, 63
3, 32640, Note_on_c, 2, 64, 63
3, 32640, Note_on_c, 2, 67, 79
3, 33275, Note_on_c, 2, 67, 0
3, 33275, Note_on_c, 2, 64, 0
3, 33275, Note_on_c, 2, 60, 0
3, 33600, Note_on_c, 2, 60, 79
3, 33600, Note_on_c, 2, 57, 63
3, 33600, Note_on_c, 2, 65, 63
3, 34235, Note_on_c, 2, 65, 0
3, 34235, Note_on_c, 2, 57, 0
3, 34235, Note_on_c, 2, 60, 0
3, 34560, Note_on_c, 2, 64, 63
3, 34560, Note_on_c, 2, 60, 63
3, 34560, Note_on_c, 2, 67, 79
3, 35195, Note_on_c, 2, 67, 0
3, 35195, Note_on_c, 2, 60, 0
3, 35195, Note_on_c, 2, 64, 0
3, 35520, Note_on_c, 2, 62, 79
3, 35520, Note_on_c, 2, 58, 79
3, 35520, Note_on_c, 2, 70, 79
3, 36155, Note_on_c, 2, 70, 0
3, 36155, Note_on_c, 2, 58, 0
3, 36155, Note_on_c, 2, 62, 0
3, 36480, Note_on_c, 2, 67, 79
3, 36480, Note_on_c, 2, 62, 79
3, 36480, Note_on_c, 2, 70, 79
3, 36560, Note_on_c, 2, 70, 0
3, 36560, Note_on_c, 2, 62, 0
3, 36560, Note_on_c, 2, 67, 0
3, 36600, Note_on_c, 2, 67, 79
3, 36600, Note_on_c, 2, 62, 79
3, 36600, Note_on_c, 2, 70, 79
3, 36680, Note_on_c, 2, 70, 0
3, 36680, Note_on_c, 2, 62, 0
3, 36680, Note_on_c, 2, 67, 0
3, 36720, Note_on_c, 2, 65, 79
3, 36720, Note_on_c, 2, 60, 79
3, 36720, Note_on_c, 2, 69, 79
3, 36800, Note_on_c, 2, 69, 0
3, 36800, Note_on_c, 2, 60, 0
3, 36800, Note_on_c, 2, 65, 0
3, 36840, Note_on_c, 2, 67, 79
3, 36840, Note_on_c, 2, 62, 79
3, 36840, Note_on_c, 2, 70, 79
3, 37040, Note_on_c, 2, 70, 0
3, 37040, Note_on_c, 2, 62, 0
3, 37040, Note_on_c, 2, 67, 0
3, 37080, Note_on_c, 2, 65, 79
3, 37080, Note_on_c, 2, 60, 79
3, 37080, Note_on_c, 2, 69, 79
3, 37160, Note_on_c, 2, 69, 0
3, 37160, Note_on_c, 2, 60, 0
3, 37160, Note_on_c, 2, 65, 0
3, 37200, Note_on_c, 2, 65, 79
3, 37280, Note_on_c, 2, 65, 0
3, 37320, Note_on_c, 2, 69, 79
3, 37360, Note_on_c, 2, 69, 0
3, 37380, Note_on_c, 2, 67, 79
3, 37420, Note_on_c, 2, 67, 0
3, 37440, Note_on_c, 2, 65, 79
3, 37520, Note_on_c, 2, 65, 0
3, 37560, Note_on_c, 2, 57, 79
3, 37640, Note_on_c, 2, 57, 0
3, 37680, Note_on_c, 2, 60, 79
3, 37760, Note_on_c, 2, 60, 0
3, 37800, Note_on_c, 2, 65, 79
3, 38000, Note_on_c, 2, 65, 0
3, 38040, Note_on_c, 2, 57, 79
3, 38120, Note_on_c, 2, 57, 0
3, 38160, Note_on_c, 2, 60, 79
3, 38320, Note_on_c, 2, 60, 0
3, 38400, Note_on_c, 2, 67, 79
3, 38560, Note_on_c, 2, 67, 0
3, 38640, Note_on_c, 2, 65, 79
3, 38720, Note_on_c, 2, 65, 0
3, 38760, Note_on_c, 2, 70, 79
3, 38960, Note_on_c, 2, 70, 0
3, 39000, Note_on_c, 2, 69, 79
3, 39080, Note_on_c, 2, 69, 0
3, 39120, Note_on_c, 2, 65, 79
3, 39280, Note_on_c, 2, 65, 0
3, 39360, Note_on_c, 2, 57, 63
3, 39360, Note_on_c, 2, 60, 79
3, 39360, Note_on_c, 2, 65, 63
3, 39995, Note_on_c, 2, 65, 0
3, 39995, Note_on_c, 2, 60, 0
3, 39995, Note_on_c, 2, 57, 0
3, 40320, Note_on_c, 2, 60, 63
3, 40320, Note_on_c, 2, 64, 63
3, 40320, Note_on_c, 2, 67, 79
3, 40955, Note_on_c, 2, 67, 0
3, 40955, Note_on_c, 2, 64, 0
3, 40955, Note_on_c, 2, 60, 0
3, 41280, Note_on_c, 2, 60, 63
3, 41280, Note_on_c, 2, 57, 63
3, 41280, Note_on_c, 2, 65, 79
3, 41915, Note_on_c, 2, 65, 0
3, 41915, Note_on_c, 2, 57, 0
3, 41915, Note_on_c, 2, 60, 0
3, 42240, Note_on_c, 2, 64, 63
3, 42240, Note_on_c, 2, 60, 63
3, 42240, Note_on_c, 2, 67, 79
3, 42840, Note_on_c, 2, 67, 0
3, 42840, Note_on_c, 2, 64, 0
3, 42875, Note_on_c, 2, 60, 0
3, 43200, Note_on_c, 2, 58, 79
3, 43200, Note_on_c, 2, 62, 79
3, 43200, Note_on_c, 2, 65, 79
3, 43835, Note_on_c, 2, 65, 0
3, 43835, Note_on_c, 2, 62, 0
3, 43835, Note_on_c, 2, 58, 0
3, 44160, Note_on_c, 2, 67, 79
3, 44160, Note_on_c, 2, 70, 63
3, 44160, Note_on_c, 2, 67, 63
3, 44160, Note_on_c, 2, 62, 63
3, 44160, Note_on_c, 2, 70, 79
3, 44161, Note_on_c, 2, 70, 0
3, 44161, Note_on_c, 2, 67, 0
3, 44240, Note_on_c, 2, 67, 0
3, 44280, Note_on_c, 2, 70, 0
3, 44280, Note_on_c, 2, 62, 0
3, 44280, Note_on_c, 2, 67, 63
3, 44280, Note_on_c, 2, 62, 63
3, 44280, Note_on_c, 2, 70, 63
3, 44360, Note_on_c, 2, 70, 0
3, 44360, Note_on_c, 2, 62, 0
3, 44360, Note_on_c, 2, 67, 0
3, 44400, Note_on_c, 2, 65, 63
3, 44400, Note_on_c, 2, 60, 63
3, 44400, Note_on_c, 2, 69, 63
3, 44480, Note_on_c, 2, 69, 0
3, 44480, Note_on_c, 2, 60, 0
3, 44480, Note_on_c, 2, 65, 0
3, 44520, Note_on_c, 2, 67, 63
3, 44520, Note_on_c, 2, 62, 63
3, 44720, Note_on_c, 2, 62, 0
3, 44720, Note_on_c, 2, 67, 0
3, 44760, Note_on_c, 2, 65, 63
3, 44760, Note_on_c, 2, 60, 63
3, 44840, Note_on_c, 2, 60, 0
3, 44840, Note_on_c, 2, 65, 0
3, 44880, Note_on_c, 2, 65, 63
3, 44960, Note_on_c, 2, 65, 0
3, 45000, Note_on_c, 2, 69, 63
3, 45040, Note_on_c, 2, 69, 0
3, 45060, Note_on_c, 2, 67, 63
3, 45100, Note_on_c, 2, 67, 0
3, 45120, Note_on_c, 2, 65, 79
3, 45120, Note_on_c, 2, 69, 79
3, 45240, Note_on_c, 2, 48, 79
3, 45320, Note_on_c, 2, 48, 0
3, 45360, Note_on_c, 2, 53, 79
3, 45440, Note_on_c, 2, 53, 0
3, 45480, Note_on_c, 2, 57, 79
3, 45680, Note_on_c, 2, 57, 0
3, 45720, Note_on_c, 2, 48, 79
3, 45755, Note_on_c, 2, 69, 0
3, 45755, Note_on_c, 2, 65, 0
3, 45800, Note_on_c, 2, 48, 0
3, 45840, Note_on_c, 2, 53, 79
3, 45920, Note_on_c, 2, 53, 0
3, 45960, Note_on_c, 2, 57, 79
3, 46040, Note_on_c, 2, 57, 0
3, 46080, Note_on_c, 2, 65, 79
3, 46080, Note_on_c, 2, 69, 79
3, 46200, Note_on_c, 2, 48, 79
3, 46280, Note_on_c, 2, 48, 0
3, 46320, Note_on_c, 2, 57, 79
3, 46400, Note_on_c, 2, 57, 0
3, 46440, Note_on_c, 2, 53, 79
3, 46640, Note_on_c, 2, 53, 0
3, 46680, Note_on_c, 2, 48, 79
3, 46715, Note_on_c, 2, 69, 0
3, 46715, Note_on_c, 2, 65, 0
3, 46760, Note_on_c, 2, 48, 0
3, 46800, Note_on_c, 2, 57, 79
3, 46880, Note_on_c, 2, 57, 0
3, 46920, Note_on_c, 2, 58, 79
3, 47000, Note_on_c, 2, 58, 0
3, 47040, Note_on_c, 2, 57, 63
3, 47040, Note_on_c, 2, 60, 79
3, 47040, Note_on_c, 2, 65, 63
3, 47675, Note_on_c, 2, 65, 0
3, 47675, Note_on_c, 2, 60, 0
3, 47675, Note_on_c, 2, 57, 0
3, 48000, Note_on_c, 2, 60, 79
3, 48000, Note_on_c, 2, 64, 63
3, 48000, Note_on_c, 2, 67, 63
3, 48635, Note_on_c, 2, 67, 0
3, 48635, Note_on_c, 2, 64, 0
3, 48635, Note_on_c, 2, 60, 0
3, 48960, Note_on_c, 2, 57, 63
3, 48960, Note_on_c, 2, 60, 63
3, 48960, Note_on_c, 2, 65, 79
3, 49595, Note_on_c, 2, 65, 0
3, 49595, Note_on_c, 2, 60, 0
3, 49595, Note_on_c, 2, 57, 0
3, 49920, Note_on_c, 2, 60, 63
3, 49920, Note_on_c, 2, 64, 79
3, 49920, Note_on_c, 2, 67, 63
3, 50520, Note_on_c, 2, 64, 0
3, 50520, Note_on_c, 2, 60, 0
3, 50555, Note_on_c, 2, 67, 0
3, 50880, Note_on_c, 2, 62, 79
3, 50880, Note_on_c, 2, 58, 79
3, 50880, Note_on_c, 2, 70, 79
3, 51515, Note_on_c, 2, 70, 0
3, 51515, Note_on_c, 2, 58, 0
3, 51515, Note_on_c, 2, 62, 0
3, 51840, Note_on_c, 2, 67, 79
3, 51840, Note_on_c, 2, 62, 79
3, 51840, Note_on_c, 2, 70, 79
3, 52475, Note_on_c, 2, 70, 0
3, 52475, Note_on_c, 2, 62, 0
3, 52475, Note_on_c, 2, 67, 0
3, 52800, Note_on_c, 2, 65, 79
3, 52800, Note_on_c, 2, 60, 79
3, 52800, Note_on_c, 2, 69, 79
3, 52920, Note_on_c, 2, 48, 79
3, 53000, Note_on_c, 2, 48, 0
3, 53040, Note_on_c, 2, 53, 79
3, 53120, Note_on_c, 2, 53, 0
3, 53160, Note_on_c, 2, 57, 79
3, 53435, Note_on_c, 2, 69, 0
3, 53435, Note_on_c, 2, 65, 0
3, 53435, Note_on_c, 2, 60, 0
3, 53440, Note_on_c, 2, 57, 0
3, 53520, Note_on_c, 2, 48, 79
3, 53600, Note_on_c, 2, 48, 0
3, 53640, Note_on_c, 2, 53, 79
3, 53720, Note_on_c, 2, 53, 0
3, 53760, Note_on_c, 2, 60, 95
3, 53760, Note_on_c, 2, 65, 79
3, 53760, Note_on_c, 2, 69, 79
3, 53760, Note_on_c, 2, 57, 79
3, 53840, Note_on_c, 2, 57, 0
3, 53880, Note_on_c, 2, 53, 79
3, 53960, Note_on_c, 2, 53, 0
3, 54000, Note_on_c, 2, 48, 79
3, 54080, Note_on_c, 2, 48, 0
3, 54120, Note_on_c, 2, 57, 79
3, 54200, Note_on_c, 2, 57, 0
3, 54240, Note_on_c, 2, 53, 79
3, 54320, Note_on_c, 2, 53, 0
3, 54360, Note_on_c, 2, 48, 79
3, 54395, Note_on_c, 2, 69, 0
3, 54395, Note_on_c, 2, 65, 0
3, 54560, Note_on_c, 2, 48, 0
3, 54720, Note_on_c, 2, 60, 0
3, 54720, Note_on_c, 2, 69, 79
3, 54720, Note_on_c, 2, 65, 79
3, 54720, Note_on_c, 2, 72, 79
3, 55355, Note_on_c, 2, 72, 0
3, 55355, Note_on_c, 2, 65, 0
3, 55355, Note_on_c, 2, 69, 0
3, 55680, Note_on_c, 2, 67, 79
3, 55680, Note_on_c, 2, 64, 79
3, 55680, Note_on_c, 2, 72, 79
3, 56315, Note_on_c, 2, 72, 0
3, 56315, Note_on_c, 2, 64, 0
3, 56315, Note_on_c, 2, 67, 0
3, 56640, Note_on_c, 2, 65, 79
3, 56640, Note_on_c, 2, 62, 79
3, 56640, Note_on_c, 2, 72, 79
3, 57360, Note_on_c, 2, 72, 0
3, 57360, Note_on_c, 2, 62, 0
3, 57360, Note_on_c, 2, 65, 0
3, 57480, Note_on_c, 2, 69, 79
3, 57480, Note_on_c, 2, 60, 79
3, 57480, Note_on_c, 2, 64, 79
3, 58235, Note_on_c, 2, 64, 0
3, 58235, Note_on_c, 2, 60, 0
3, 58235, Note_on_c, 2, 69, 0
3, 58560, Note_on_c, 2, 65, 79
3, 58560, Note_on_c, 2, 62, 79
3, 58560, Note_on_c, 2, 72, 79
3, 59195, Note_on_c, 2, 72, 0
3, 59195, Note_on_c, 2, 62, 0
3, 59195, Note_on_c, 2, 65, 0
3, 59520, Note_on_c, 2, 67, 79
3, 59520, Note_on_c, 2, 64, 79
3, 59520, Note_on_c, 2, 72, 79
3, 60155, Note_on_c, 2, 72, 0
3, 60155, Note_on_c, 2, 64, 0
3, 60155, Note_on_c, 2, 67, 0
3, 60480, Note_on_c, 2, 65, 79
3, 60480, Note_on_c, 2, 62, 79
3, 60480, Note_on_c, 2, 70, 79
3, 61115, Note_on_c, 2, 70, 0
3, 61115, Note_on_c, 2, 62, 0
3, 61115, Note_on_c, 2, 65, 0
3, 61440, Note_on_c, 2, 62, 79
3, 61440, Note_on_c, 2, 65, 79
3, 61755, Note_on_c, 2, 65, 0
3, 61755, Note_on_c, 2, 62, 0
3, 61920, Note_on_c, 2, 65, 79
3, 61920, Note_on_c, 2, 70, 79
3, 62235, Note_on_c, 2, 70, 0
3, 62235, Note_on_c, 2, 65, 0
3, 62400, Note_on_c, 2, 57, 63
3, 62400, Note_on_c, 2, 53, 63
3, 62400, Note_on_c, 2, 60, 79
3, 63035, Note_on_c, 2, 60, 0
3, 63035, Note_on_c, 2, 53, 0
3, 63035, Note_on_c, 2, 57, 0
3, 63360, Note_on_c, 2, 60, 63
3, 63360, Note_on_c, 2, 64, 79
3, 63360, Note_on_c, 2, 67, 63
3, 63995, Note_on_c, 2, 67, 0
3, 63995, Note_on_c, 2, 64, 0
3, 63995, Note_on_c, 2, 60, 0
3, 64320, Note_on_c, 2, 60, 63
3, 64320, Note_on_c, 2, 57, 79
3, 64320, Note_on_c, 2, 65, 63
3, 64955, Note_on_c, 2, 65, 0
3, 64955, Note_on_c, 2, 57, 0
3, 64955, Note_on_c, 2, 60, 0
3, 65280, Note_on_c, 2, 64, 63
3, 65280, Note_on_c, 2, 60, 63
3, 65280, Note_on_c, 2, 67, 79
3, 65915, Note_on_c, 2, 67, 0
3, 65915, Note_on_c, 2, 60, 0
3, 65915, Note_on_c, 2, 64, 0
3, 66240, Note_on_c, 2, 62, 79
3, 66240, Note_on_c, 2, 58, 79
3, 66240, Note_on_c, 2, 70, 79
3, 66875, Note_on_c, 2, 70, 0
3, 66875, Note_on_c, 2, 58, 0
3, 66875, Note_on_c, 2, 62, 0
3, 67200, Note_on_c, 2, 65, 63
3, 67200, Note_on_c, 2, 62, 63
3, 67200, Note_on_c, 2, 70, 63
3, 67835, Note_on_c, 2, 70, 0
3, 67835, Note_on_c, 2, 62, 0
3, 67835, Note_on_c, 2, 65, 0
3, 68160, Note_on_c, 2, 65, 79
3, 68160, Note_on_c, 2, 65, 63
3, 68160, Note_on_c, 2, 69, 63
3, 68161, Note_on_c, 2, 65, 0
3, 68280, Note_on_c, 2, 57, 79
3, 68360, Note_on_c, 2, 57, 0
3, 68400, Note_on_c, 2, 60, 79
3, 68480, Note_on_c, 2, 60, 0
3, 68520, Note_on_c, 2, 65, 0
3, 68520, Note_on_c, 2, 65, 79
3, 68720, Note_on_c, 2, 65, 0
3, 68760, Note_on_c, 2, 57, 79
3, 68795, Note_on_c, 2, 69, 0
3, 68840, Note_on_c, 2, 57, 0
3, 68880, Note_on_c, 2, 60, 79
3, 69040, Note_on_c, 2, 60, 0
3, 69120, Note_on_c, 2, 65, 63
3, 69120, Note_on_c, 2, 67, 79
3, 69120, Note_on_c, 2, 69, 63
3, 69280, Note_on_c, 2, 67, 0
3, 69360, Note_on_c, 2, 65, 0
3, 69360, Note_on_c, 2, 65, 79
3, 69440, Note_on_c, 2, 65, 0
3, 69480, Note_on_c, 2, 70, 79
3, 69680, Note_on_c, 2, 70, 0
3, 69720, Note_on_c, 2, 69, 0
3, 69720, Note_on_c, 2, 69, 79
3, 69800, Note_on_c, 2, 69, 0
3, 69840, Note_on_c, 2, 65, 79
3, 70000, Note_on_c, 2, 65, 0
3, 70080, Control_c, 2, 7, 96
3, 70080, Note_on_c, 2, 57, 79
3, 70080, Note_on_c, 2, 53, 79
3, 70080, Note_on_c, 2, 60, 63
3, 70080, Note_on_c, 2, 65, 79
3, 70140, Control_c, 2, 7, 96
3, 70320, Note_on_c, 2, 65, 0
3, 70395, Note_on_c, 2, 57, 0
3, 70395, Note_on_c, 2, 53, 0
3, 70395, Note_on_c, 2, 60, 0
3, 70440, Note_on_c, 2, 65, 79
3, 70500, Note_on_c, 2, 65, 0
3, 70500, Note_on_c, 2, 69, 95
3, 70560, Note_on_c, 2, 69, 0
3, 70560, Note_on_c, 2, 60, 79
3, 70560, Note_on_c, 2, 57, 79
3, 70560, Note_on_c, 2, 53, 79
3, 70560, Note_on_c, 2, 62, 79
3, 70560, Note_on_c, 2, 72, 79
3, 70640, Note_on_c, 2, 72, 0
3, 70720, Note_on_c, 2, 53, 0
3, 70720, Note_on_c, 2, 60, 0
3, 70720, Note_on_c, 2, 57, 0
3, 70720, Note_on_c, 2, 62, 0
3, 70800, Note_on_c, 2, 62, 79
3, 70800, Note_on_c, 2, 60, 79
3, 70800, Note_on_c, 2, 57, 79
3, 70800, Note_on_c, 2, 65, 79
3, 70800, Note_on_c, 2, 69, 95
3, 70960, Note_on_c, 2, 65, 0
3, 70960, Note_on_c, 2, 57, 0
3, 70960, Note_on_c, 2, 62, 0
3, 70960, Note_on_c, 2, 60, 0
3, 70980, Note_on_c, 2, 60, 95
3, 71000, Note_on_c, 2, 69, 0
3, 71020, Note_on_c, 2, 60, 0
3, 71040, Note_on_c, 2, 60, 79
3, 71040, Note_on_c, 2, 55, 79
3, 71040, Note_on_c, 2, 64, 95
3, 71160, Note_on_c, 2, 55, 0
3, 71160, Note_on_c, 2, 55, 79
3, 71240, Note_on_c, 2, 55, 0
3, 71280, Note_on_c, 2, 60, 0
3, 71280, Note_on_c, 2, 60, 79
3, 71380, Note_on_c, 2, 60, 0
3, 71400, Note_on_c, 2, 64, 0
3, 71400, Note_on_c, 2, 64, 79
3, 71680, Note_on_c, 2, 64, 0
3, 71760, Note_on_c, 2, 60, 79
3, 71860, Note_on_c, 2, 60, 0
3, 71880, Note_on_c, 2, 64, 95
3, 71960, Note_on_c, 2, 64, 0
3, 72000, Note_on_c, 2, 58, 79
3, 72000, Note_on_c, 2, 53, 79
3, 72000, Note_on_c, 2, 62, 79
3, 72120, Note_on_c, 2, 57, 79
3, 72220, Note_on_c, 2, 57, 0
3, 72240, Note_on_c, 2, 58, 0
3, 72240, Note_on_c, 2, 58, 79
3, 72320, Note_on_c, 2, 58, 0
3, 72360, Note_on_c, 2, 62, 0
3, 72360, Note_on_c, 2, 62, 79
3, 72440, Note_on_c, 2, 62, 0
3, 72475, Note_on_c, 2, 53, 0
3, 72480, Note_on_c, 2, 58, 79
3, 72680, Note_on_c, 2, 58, 0
3, 72720, Note_on_c, 2, 58, 79
3, 72720, Note_on_c, 2, 62, 79
3, 72720, Note_on_c, 2, 62, 79
3, 72720, Note_on_c, 2, 65, 95
3, 72721, Note_on_c, 2, 62, 0
3, 72800, Note_on_c, 2, 62, 0
3, 72840, Note_on_c, 2, 60, 79
3, 72880, Note_on_c, 2, 58, 0
3, 72880, Note_on_c, 2, 65, 0
3, 72920, Note_on_c, 2, 60, 0
3, 72960, Note_on_c, 2, 60, 79
3, 72960, Note_on_c, 2, 55, 79
3, 72960, Note_on_c, 2, 64, 79
3, 72960, Note_on_c, 2, 67, 79
3, 73435, Note_on_c, 2, 64, 0
3, 73435, Note_on_c, 2, 60, 0
3, 73435, Note_on_c, 2, 55, 0
3, 73440, Note_on_c, 2, 67, 0
3, 73440, Note_on_c, 2, 69, 95
3, 73680, Note_on_c, 2, 69, 0
3, 73680, Note_on_c, 2, 55, 79
3, 73680, Note_on_c, 2, 52, 79
3, 73680, Note_on_c, 2, 60, 79
3, 73680, Note_on_c, 2, 70, 95
3, 73840, Note_on_c, 2, 70, 0
3, 73840, Note_on_c, 2, 55, 0
3, 73840, Note_on_c, 2, 52, 0
3, 73840, Note_on_c, 2, 60, 0
3, 73920, Note_on_c, 2, 60, 79
3, 73920, Note_on_c, 2, 57, 79
3, 73920, Note_on_c, 2, 53, 79
3, 73920, Note_on_c, 2, 62, 79
3, 73920, Note_on_c, 2, 65, 95
3, 74000, Note_on_c, 2, 65, 0
3, 74100, Note_on_c, 2, 57, 0
3, 74100, Note_on_c, 2, 57, 79
3, 74140, Note_on_c, 2, 57, 0
3, 74160, Note_on_c, 2, 60, 0
3, 74160, Note_on_c, 2, 60, 79
3, 74235, Note_on_c, 2, 53, 0
3, 74235, Note_on_c, 2, 62, 0
3, 74240, Note_on_c, 2, 60, 0
3, 74280, Note_on_c, 2, 65, 95
3, 74360, Note_on_c, 2, 65, 0
3, 74400, Note_on_c, 2, 60, 79
3, 74400, Note_on_c, 2, 55, 79
3, 74400, Note_on_c, 2, 60, 79
3, 74400, Note_on_c, 2, 64, 79
3, 74401, Note_on_c, 2, 60, 0
3, 74480, Note_on_c, 2, 60, 0
3, 74520, Note_on_c, 2, 57, 95
3, 74560, Note_on_c, 2, 55, 0
3, 74560, Note_on_c, 2, 64, 0
3, 74600, Note_on_c, 2, 57, 0
3, 74640, Note_on_c, 2, 62, 79
3, 74640, Note_on_c, 2, 60, 79
3, 74640, Note_on_c, 2, 57, 79
3, 74640, Note_on_c, 2, 65, 79
3, 74760, Note_on_c, 2, 60, 0
3, 74760, Note_on_c, 2, 60, 95
3, 74800, Note_on_c, 2, 62, 0
3, 74800, Note_on_c, 2, 65, 0
3, 74800, Note_on_c, 2, 57, 0
3, 74840, Note_on_c, 2, 60, 0
3, 74880, Note_on_c, 2, 60, 79
3, 74880, Note_on_c, 2, 55, 79
3, 74880, Note_on_c, 2, 64, 79
3, 75000, Note_on_c, 2, 55, 0
3, 75000, Note_on_c, 2, 55, 79
3, 75080, Note_on_c, 2, 55, 0
3, 75120, Note_on_c, 2, 60, 0
3, 75120, Note_on_c, 2, 60, 79
3, 75200, Note_on_c, 2, 60, 0
3, 75240, Note_on_c, 2, 64, 0
3, 75240, Note_on_c, 2, 64, 79
3, 75320, Note_on_c, 2, 64, 0
3, 75360, Note_on_c, 2, 55, 79
3, 75520, Note_on_c, 2, 55, 0
3, 75600, Note_on_c, 2, 55, 79
3, 75600, Note_on_c, 2, 52, 79
3, 75600, Note_on_c, 2, 60, 79
3, 75760, Note_on_c, 2, 60, 0
3, 75760, Note_on_c, 2, 52, 0
3, 75760, Note_on_c, 2, 55, 0
3, 75840, Note_on_c, 2, 58, 79
3, 75840, Note_on_c, 2, 53, 79
3, 75840, Note_on_c, 2, 62, 79
3, 76155, Note_on_c, 2, 62, 0
3, 76155, Note_on_c, 2, 53, 0
3, 76155, Note_on_c, 2, 58, 0
3, 76320, Note_on_c, 2, 62, 79
3, 76320, Note_on_c, 2, 58, 79
3, 76320, Note_on_c, 2, 65, 79
3, 76440, Note_on_c, 2, 67, 79
3, 76480, Note_on_c, 2, 65, 0
3, 76480, Note_on_c, 2, 62, 0
3, 76480, Note_on_c, 2, 58, 0
3, 76560, Note_on_c, 2, 67, 0
3, 76560, Note_on_c, 2, 69, 79
3, 76560, Note_on_c, 2, 62, 79
3, 76560, Note_on_c, 2, 65, 79
3, 76880, Note_on_c, 2, 65, 0
3, 76880, Note_on_c, 2, 62, 0
3, 76880, Note_on_c, 2, 69, 0
3, 76920, Note_on_c, 2, 69, 79
3, 76960, Note_on_c, 2, 69, 0
3, 76980, Note_on_c, 2, 70, 79
3, 77095, Note_on_c, 2, 70, 0
3, 77120, Note_on_c, 2, 69, 79
3, 77175, Note_on_c, 2, 69, 0
3, 77200, Note_on_c, 2, 67, 79
3, 77255, Note_on_c, 2, 67, 0
3, 77280, Note_on_c, 2, 65, 79
3, 77440, Note_on_c, 2, 65, 0
3, 77520, Note_on_c, 2, 69, 79
3, 77575, Note_on_c, 2, 69, 0
3, 77600, Note_on_c, 2, 64, 79
3, 77655, Note_on_c, 2, 64, 0
3, 77680, Note_on_c, 2, 67, 79
3, 77735, Note_on_c, 2, 67, 0
3, 77760, Note_on_c, 2, 60, 79
3, 77760, Note_on_c, 2, 57, 79
3, 77760, Note_on_c, 2, 65, 95
3, 78040, Note_on_c, 2, 65, 0
3, 78040, Note_on_c, 2, 57, 0
3, 78040, Note_on_c, 2, 60, 0
3, 78240, Control_c, 2, 7, 83
3, 78300, Control_c, 2, 7, 83
3, 78720, Note_on_c, 2, 64, 79
3, 78720, Note_on_c, 2, 67, 79
3, 78720, Note_on_c, 2, 72, 79
3, 79355, Note_on_c, 2, 72, 0
3, 79355, Note_on_c, 2, 67, 0
3, 79355, Note_on_c, 2, 64, 0
3, 79680, Note_on_c, 2, 69, 79
3, 79680, Note_on_c, 2, 65, 79
3, 80515, Note_on_c, 2, 65, 0
3, 80515, Note_on_c, 2, 69, 0
3, 80580, Note_on_c, 2, 67, 79
3, 80580, Note_on_c, 2, 64, 79
3, 81115, Note_on_c, 2, 64, 0
3, 81115, Note_on_c, 2, 67, 0
3, 81600, Note_on_c, 2, 62, 79
3, 81600, Note_on_c, 2, 65, 79
3, 81915, Note_on_c, 2, 65, 0
3, 81915, Note_on_c, 2, 62, 0
3, 81960, Note_on_c, 2, 69, 79
3, 82020, Note_on_c, 2, 69, 0
3, 82020, Note_on_c, 2, 67, 79
3, 82080, Note_on_c, 2, 67, 0
3, 82080, Note_on_c, 2, 62, 79
3, 82080, Note_on_c, 2, 65, 79
3, 82320, Note_on_c, 2, 65, 0
3, 82320, Note_on_c, 2, 62, 0
3, 82440, Note_on_c, 2, 65, 79
3, 82520, Note_on_c, 2, 65, 0
3, 82560, Note_on_c, 2, 70, 79
3, 82560, Note_on_c, 2, 65, 79
3, 82560, Note_on_c, 2, 74, 79
3, 82640, Note_on_c, 2, 74, 0
3, 82640, Note_on_c, 2, 65, 0
3, 82640, Note_on_c, 2, 70, 0
3, 82680, Note_on_c, 2, 72, 79
3, 82760, Note_on_c, 2, 72, 0
3, 82800, Note_on_c, 2, 70, 79
3, 82880, Note_on_c, 2, 70, 0
3, 82920, Note_on_c, 2, 70, 79
3, 82920, Note_on_c, 2, 65, 79
3, 82920, Note_on_c, 2, 72, 79
3, 83200, Note_on_c, 2, 72, 0
3, 83200, Note_on_c, 2, 65, 0
3, 83200, Note_on_c, 2, 70, 0
3, 83280, Note_on_c, 2, 74, 79
3, 83280, Note_on_c, 2, 65, 79
3, 83280, Note_on_c, 2, 70, 79
3, 83520, Note_on_c, 2, 70, 0
3, 83520, Note_on_c, 2, 65, 0
3, 83520, Note_on_c, 2, 74, 0
3, 83760, Note_on_c, 2, 69, 79
3, 83760, Note_on_c, 2, 65, 79
3, 83760, Note_on_c, 2, 60, 79
3, 85115, Note_on_c, 2, 60, 0
3, 85115, Note_on_c, 2, 65, 0
3, 85115, Note_on_c, 2, 69, 0
3, 85440, Note_on_c, 2, 57, 79
3, 85440, Note_on_c, 2, 53, 79
3, 85440, Note_on_c, 2, 60, 79
3, 85560, Note_on_c, 2, 60, 0
3, 85560, Note_on_c, 2, 53, 0
3, 85560, Note_on_c, 2, 57, 0
3, 85620, Note_on_c, 2, 60, 79
3, 85660, Note_on_c, 2, 60, 0
3, 86400, Note_on_c, 2, 60, 79
3, 86400, Note_on_c, 2, 64, 79
3, 86400, Note_on_c, 2, 67, 79
3, 87035, Note_on_c, 2, 67, 0
3, 87035, Note_on_c, 2, 64, 0
3, 87035, Note_on_c, 2, 60, 0
3, 87360, Note_on_c, 2, 60, 79
3, 87360, Note_on_c, 2, 57, 79
3, 87360, Note_on_c, 2, 65, 79
3, 87995, Note_on_c, 2, 65, 0
3, 87995, Note_on_c, 2, 57, 0
3, 87995, Note_on_c, 2, 60, 0
3, 88320, Note_on_c, 2, 60, 79
3, 88320, Note_on_c, 2, 64, 79
3, 88920, Note_on_c, 2, 64, 0
3, 88920, Note_on_c, 2, 60, 0
3, 89280, Note_on_c, 2, 69, 79
3, 89280, Note_on_c, 2, 58, 79
3, 89280, Note_on_c, 2, 62, 79
3, 90240, Note_on_c, 2, 62, 0
3, 90240, Note_on_c, 2, 58, 0
3, 90240, Note_on_c, 2, 69, 0
3, 90240, Note_on_c, 2, 67, 79
3, 90240, Note_on_c, 2, 62, 79
3, 90240, Note_on_c, 2, 70, 79
3, 90320, Note_on_c, 2, 70, 0
3, 90320, Note_on_c, 2, 62, 0
3, 90320, Note_on_c, 2, 67, 0
3, 90360, Note_on_c, 2, 67, 79
3, 90360, Note_on_c, 2, 62, 79
3, 90360, Note_on_c, 2, 70, 79
3, 90440, Note_on_c, 2, 70, 0
3, 90440, Note_on_c, 2, 62, 0
3, 90440, Note_on_c, 2, 67, 0
3, 90480, Note_on_c, 2, 65, 79
3, 90480, Note_on_c, 2, 60, 79
3, 90480, Note_on_c, 2, 69, 79
3, 90560, Note_on_c, 2, 69, 0
3, 90560, Note_on_c, 2, 60, 0
3, 90560, Note_on_c, 2, 65, 0
3, 90600, Note_on_c, 2, 67, 79
3, 90600, Note_on_c, 2, 62, 79
3, 90600, Note_on_c, 2, 70, 79
3, 90800, Note_on_c, 2, 70, 0
3, 90800, Note_on_c, 2, 62, 0
3, 90800, Note_on_c, 2, 67, 0
3, 90840, Note_on_c, 2, 65, 79
3, 90840, Note_on_c, 2, 60, 79
3, 90840, Note_on_c, 2, 69, 79
3, 90920, Note_on_c, 2, 69, 0
3, 90920, Note_on_c, 2, 60, 0
3, 90920, Note_on_c, 2, 65, 0
3, 90960, Note_on_c, 2, 65, 79
3, 91040, Note_on_c, 2, 65, 0
3, 91080, Note_on_c, 2, 69, 79
3, 91120, Note_on_c, 2, 69, 0
3, 91140, Note_on_c, 2, 67, 79
3, 91180, Note_on_c, 2, 67, 0
3, 91200, Note_on_c, 2, 65, 79
3, 91280, Note_on_c, 2, 65, 0
3, 91320, Note_on_c, 2, 57, 79
3, 91400, Note_on_c, 2, 57, 0
3, 91440, Note_on_c, 2, 60, 79
3, 91520, Note_on_c, 2, 60, 0
3, 91560, Note_on_c, 2, 65, 79
3, 91760, Note_on_c, 2, 65, 0
3, 91800, Note_on_c, 2, 57, 79
3, 91880, Note_on_c, 2, 57, 0
3, 91920, Note_on_c, 2, 60, 79
3, 92080, Note_on_c, 2, 60, 0
3, 92160, Note_on_c, 2, 67, 79
3, 92320, Note_on_c, 2, 67, 0
3, 92400, Note_on_c, 2, 65, 79
3, 92480, Note_on_c, 2, 65, 0
3, 92520, Note_on_c, 2, 70, 79
3, 92720, Note_on_c, 2, 70, 0
3, 92760, Note_on_c, 2, 69, 79
3, 92820, Note_on_c, 2, 67, 79
3, 92840, Note_on_c, 2, 69, 0
3, 92880, Note_on_c, 2, 67, 0
3, 92880, Note_on_c, 2, 65, 79
3, 93040, Note_on_c, 2, 65, 0
3, 93040, End_track
4, 0, Start_track
4, 0, MIDI_port, 0
4, 0, Title_t, "Bass"
4, 0, Program_c, 3, 36
4, 0, Control_c, 3, 7, 89
4, 480, Control_c, 3, 0, 0
4, 485, Control_c, 3, 32, 0
4, 495, Control_c, 3, 1, 0
4, 505, Control_c, 3, 10, 99
4, 510, Control_c, 3, 11, 127
4, 515, Control_c, 3, 64, 0
4, 520, Control_c, 3, 91, 39
4, 525, Control_c, 3, 93, 0
4, 530, Pitch_bend_c, 3, 8192
4, 960, Note_on_c, 3, 41, 79
4, 1200, Control_c, 3, 7, 89
4, 1200, Control_c, 3, 91, 39
4, 1595, Note_on_c, 3, 41, 0
4, 1920, Note_on_c, 3, 40, 79
4, 2555, Note_on_c, 3, 40, 0
4, 2880, Note_on_c, 3, 38, 79
4, 3515, Note_on_c, 3, 38, 0
4, 3840, Note_on_c, 3, 36, 79
4, 4475, Note_on_c, 3, 36, 0
4, 4800, Note_on_c, 3, 34, 79
4, 5435, Note_on_c, 3, 34, 0
4, 5760, Note_on_c, 3, 36, 79
4, 6395, Note_on_c, 3, 36, 0
4, 6720, Note_on_c, 3, 41, 79
4, 7355, Note_on_c, 3, 41, 0
4, 7680, Note_on_c, 3, 41, 79
4, 8155, Note_on_c, 3, 41, 0
4, 8400, Note_on_c, 3, 50, 79
4, 8480, Note_on_c, 3, 50, 0
4, 8520, Note_on_c, 3, 48, 79
4, 8600, Note_on_c, 3, 48, 0
4, 8640, Note_on_c, 3, 41, 79
4, 8880, Note_on_c, 3, 41, 0
4, 9000, Note_on_c, 3, 41, 79
4, 9080, Note_on_c, 3, 41, 0
4, 9120, Note_on_c, 3, 41, 79
4, 9360, Note_on_c, 3, 41, 0
4, 9480, Note_on_c, 3, 41, 79
4, 9560, Note_on_c, 3, 41, 0
4, 9600, Note_on_c, 3, 40, 79
4, 9840, Note_on_c, 3, 40, 0
4, 9960, Note_on_c, 3, 40, 79
4, 10040, Note_on_c, 3, 40, 0
4, 10080, Note_on_c, 3, 40, 79
4, 10320, Note_on_c, 3, 40, 0
4, 10440, Note_on_c, 3, 40, 79
4, 10520, Note_on_c, 3, 40, 0
4, 10560, Note_on_c, 3, 38, 79
4, 10800, Note_on_c, 3, 38, 0
4, 10920, Note_on_c, 3, 38, 79
4, 11000, Note_on_c, 3, 38, 0
4, 11040, Note_on_c, 3, 38, 79
4, 11280, Note_on_c, 3, 38, 0
4, 11400, Note_on_c, 3, 38, 79
4, 11480, Note_on_c, 3, 38, 0
4, 11520, Note_on_c, 3, 36, 79
4, 11760, Note_on_c, 3, 36, 0
4, 11880, Note_on_c, 3, 36, 79
4, 11960, Note_on_c, 3, 36, 0
4, 12000, Note_on_c, 3, 36, 79
4, 12240, Note_on_c, 3, 36, 0
4, 12360, Note_on_c, 3, 33, 79
4, 12440, Note_on_c, 3, 33, 0
4, 12480, Note_on_c, 3, 34, 79
4, 12720, Note_on_c, 3, 34, 0
4, 12840, Note_on_c, 3, 34, 79
4, 12920, Note_on_c, 3, 34, 0
4, 12960, Note_on_c, 3, 34, 79
4, 13200, Note_on_c, 3, 34, 0
4, 13320, Note_on_c, 3, 34, 79
4, 13400, Note_on_c, 3, 34, 0
4, 13440, Note_on_c, 3, 36, 79
4, 13680, Note_on_c, 3, 36, 0
4, 13800, Note_on_c, 3, 36, 79
4, 13880, Note_on_c, 3, 36, 0
4, 13920, Note_on_c, 3, 36, 79
4, 14160, Note_on_c, 3, 36, 0
4, 14280, Note_on_c, 3, 36, 79
4, 14360, Note_on_c, 3, 36, 0
4, 14400, Note_on_c, 3, 41, 79
4, 14640, Note_on_c, 3, 41, 0
4, 14760, Note_on_c, 3, 41, 79
4, 14840, Note_on_c, 3, 41, 0
4, 14880, Note_on_c, 3, 41, 79
4, 15120, Note_on_c, 3, 41, 0
4, 15240, Note_on_c, 3, 41, 79
4, 15320, Note_on_c, 3, 41, 0
4, 15360, Note_on_c, 3, 41, 79
4, 15600, Note_on_c, 3, 41, 0
4, 15720, Note_on_c, 3, 41, 79
4, 15800, Note_on_c, 3, 41, 0
4, 15840, Note_on_c, 3, 41, 79
4, 16000, Note_on_c, 3, 41, 0
4, 16080, Note_on_c, 3, 43, 79
4, 16240, Note_on_c, 3, 43, 0
4, 16320, Note_on_c, 3, 41, 79
4, 16560, Note_on_c, 3, 41, 0
4, 16680, Note_on_c, 3, 41, 79
4, 16760, Note_on_c, 3, 41, 0
4, 16800, Note_on_c, 3, 41, 79
4, 17040, Note_on_c, 3, 41, 0
4, 17160, Note_on_c, 3, 41, 79
4, 17240, Note_on_c, 3, 41, 0
4, 17280, Note_on_c, 3, 40, 79
4, 17520, Note_on_c, 3, 40, 0
4, 17640, Note_on_c, 3, 40, 79
4, 17720, Note_on_c, 3, 40, 0
4, 17760, Note_on_c, 3, 40, 79
4, 18000, Note_on_c, 3, 40, 0
4, 18120, Note_on_c, 3, 40, 79
4, 18200, Note_on_c, 3, 40, 0
4, 18240, Note_on_c, 3, 38, 79
4, 18480, Note_on_c, 3, 38, 0
4, 18600, Note_on_c, 3, 38, 79
4, 18680, Note_on_c, 3, 38, 0
4, 18720, Note_on_c, 3, 38, 79
4, 18960, Note_on_c, 3, 38, 0
4, 19080, Note_on_c, 3, 38, 79
4, 19160, Note_on_c, 3, 38, 0
4, 19200, Note_on_c, 3, 36, 79
4, 19440, Note_on_c, 3, 36, 0
4, 19560, Note_on_c, 3, 36, 79
4, 19640, Note_on_c, 3, 36, 0
4, 19680, Note_on_c, 3, 36, 79
4, 19920, Note_on_c, 3, 36, 0
4, 20040, Note_on_c, 3, 33, 79
4, 20120, Note_on_c, 3, 33, 0
4, 20160, Note_on_c, 3, 34, 79
4, 20400, Note_on_c, 3, 34, 0
4, 20520, Note_on_c, 3, 34, 79
4, 20600, Note_on_c, 3, 34, 0
4, 20640, Note_on_c, 3, 34, 79
4, 20880, Note_on_c, 3, 34, 0
4, 21000, Note_on_c, 3, 34, 79
4, 21080, Note_on_c, 3, 34, 0
4, 21120, Note_on_c, 3, 36, 79
4, 21360, Note_on_c, 3, 36, 0
4, 21480, Note_on_c, 3, 36, 79
4, 21560, Note_on_c, 3, 36, 0
4, 21600, Note_on_c, 3, 36, 79
4, 21840, Note_on_c, 3, 36, 0
4, 21960, Note_on_c, 3, 36, 79
4, 22040, Note_on_c, 3, 36, 0
4, 22080, Note_on_c, 3, 41, 79
4, 22320, Note_on_c, 3, 41, 0
4, 22440, Note_on_c, 3, 41, 79
4, 22520, Note_on_c, 3, 41, 0
4, 22560, Note_on_c, 3, 41, 79
4, 22800, Note_on_c, 3, 41, 0
4, 22920, Note_on_c, 3, 41, 79
4, 23000, Note_on_c, 3, 41, 0
4, 23040, Note_on_c, 3, 41, 79
4, 23280, Note_on_c, 3, 41, 0
4, 23400, Note_on_c, 3, 41, 79
4, 23480, Note_on_c, 3, 41, 0
4, 23520, Note_on_c, 3, 41, 79
4, 23680, Note_on_c, 3, 41, 0
4, 23760, Note_on_c, 3, 43, 79
4, 23920, Note_on_c, 3, 43, 0
4, 24000, Note_on_c, 3, 38, 79
4, 24240, Note_on_c, 3, 38, 0
4, 24360, Note_on_c, 3, 38, 79
4, 24440, Note_on_c, 3, 38, 0
4, 24480, Note_on_c, 3, 38, 79
4, 24720, Note_on_c, 3, 38, 0
4, 24840, Note_on_c, 3, 38, 79
4, 24920, Note_on_c, 3, 38, 0
4, 24960, Note_on_c, 3, 36, 79
4, 25200, Note_on_c, 3, 36, 0
4, 25320, Note_on_c, 3, 36, 79
4, 25400, Note_on_c, 3, 36, 0
4, 25440, Note_on_c, 3, 36, 79
4, 25680, Note_on_c, 3, 36, 0
4, 25800, Note_on_c, 3, 36, 79
4, 25880, Note_on_c, 3, 36, 0
4, 25920, Note_on_c, 3, 34, 79
4, 26160, Note_on_c, 3, 34, 0
4, 26280, Note_on_c, 3, 34, 79
4, 26360, Note_on_c, 3, 34, 0
4, 26400, Note_on_c, 3, 34, 79
4, 26640, Note_on_c, 3, 34, 0
4, 26760, Note_on_c, 3, 34, 79
4, 26840, Note_on_c, 3, 34, 0
4, 26880, Note_on_c, 3, 36, 79
4, 27120, Note_on_c, 3, 36, 0
4, 27240, Note_on_c, 3, 36, 79
4, 27320, Note_on_c, 3, 36, 0
4, 27360, Note_on_c, 3, 36, 79
4, 27600, Note_on_c, 3, 36, 0
4, 27720, Note_on_c, 3, 36, 79
4, 27800, Note_on_c, 3, 36, 0
4, 27840, Note_on_c, 3, 38, 79
4, 28080, Note_on_c, 3, 38, 0
4, 28200, Note_on_c, 3, 38, 79
4, 28280, Note_on_c, 3, 38, 0
4, 28320, Note_on_c, 3, 38, 79
4, 28560, Note_on_c, 3, 38, 0
4, 28680, Note_on_c, 3, 38, 79
4, 28760, Note_on_c, 3, 38, 0
4, 28800, Note_on_c, 3, 36, 79
4, 29040, Note_on_c, 3, 36, 0
4, 29160, Note_on_c, 3, 36, 79
4, 29240, Note_on_c, 3, 36, 0
4, 29280, Note_on_c, 3, 36, 79
4, 29520, Note_on_c, 3, 36, 0
4, 29640, Note_on_c, 3, 36, 79
4, 29720, Note_on_c, 3, 36, 0
4, 29760, Note_on_c, 3, 34, 79
4, 30000, Note_on_c, 3, 34, 0
4, 30120, Note_on_c, 3, 34, 79
4, 30200, Note_on_c, 3, 34, 0
4, 30240, Note_on_c, 3, 34, 79
4, 30555, Note_on_c, 3, 34, 0
4, 30720, Note_on_c, 3, 34, 79
4, 31355, Note_on_c, 3, 34, 0
4, 31680, Note_on_c, 3, 41, 79
4, 31920, Note_on_c, 3, 41, 0
4, 32040, Note_on_c, 3, 41, 79
4, 32120, Note_on_c, 3, 41, 0
4, 32160, Note_on_c, 3, 41, 79
4, 32400, Note_on_c, 3, 41, 0
4, 32520, Note_on_c, 3, 41, 79
4, 32600, Note_on_c, 3, 41, 0
4, 32640, Note_on_c, 3, 40, 79
4, 32880, Note_on_c, 3, 40, 0
4, 33000, Note_on_c, 3, 40, 79
4, 33080, Note_on_c, 3, 40, 0
4, 33120, Note_on_c, 3, 40, 79
4, 33360, Note_on_c, 3, 40, 0
4, 33480, Note_on_c, 3, 40, 79
4, 33560, Note_on_c, 3, 40, 0
4, 33600, Note_on_c, 3, 38, 79
4, 33840, Note_on_c, 3, 38, 0
4, 33960, Note_on_c, 3, 38, 79
4, 34040, Note_on_c, 3, 38, 0
4, 34080, Note_on_c, 3, 38, 79
4, 34320, Note_on_c, 3, 38, 0
4, 34440, Note_on_c, 3, 38, 79
4, 34520, Note_on_c, 3, 38, 0
4, 34560, Note_on_c, 3, 36, 79
4, 34800, Note_on_c, 3, 36, 0
4, 34920, Note_on_c, 3, 36, 79
4, 35000, Note_on_c, 3, 36, 0
4, 35040, Note_on_c, 3, 36, 79
4, 35280, Note_on_c, 3, 36, 0
4, 35400, Note_on_c, 3, 33, 79
4, 35480, Note_on_c, 3, 33, 0
4, 35520, Note_on_c, 3, 34, 79
4, 35760, Note_on_c, 3, 34, 0
4, 35880, Note_on_c, 3, 34, 79
4, 35960, Note_on_c, 3, 34, 0
4, 36000, Note_on_c, 3, 34, 79
4, 36240, Note_on_c, 3, 34, 0
4, 36360, Note_on_c, 3, 34, 79
4, 36440, Note_on_c, 3, 34, 0
4, 36480, Note_on_c, 3, 36, 79
4, 36720, Note_on_c, 3, 36, 0
4, 36840, Note_on_c, 3, 36, 79
4, 36920, Note_on_c, 3, 36, 0
4, 36960, Note_on_c, 3, 36, 79
4, 37200, Note_on_c, 3, 36, 0
4, 37320, Note_on_c, 3, 36, 79
4, 37400, Note_on_c, 3, 36, 0
4, 37440, Note_on_c, 3, 41, 79
4, 37680, Note_on_c, 3, 41, 0
4, 37800, Note_on_c, 3, 41, 79
4, 37880, Note_on_c, 3, 41, 0
4, 37920, Note_on_c, 3, 41, 79
4, 38160, Note_on_c, 3, 41, 0
4, 38280, Note_on_c, 3, 41, 79
4, 38360, Note_on_c, 3, 41, 0
4, 38400, Note_on_c, 3, 41, 79
4, 38640, Note_on_c, 3, 41, 0
4, 38760, Note_on_c, 3, 41, 79
4, 38840, Note_on_c, 3, 41, 0
4, 38880, Note_on_c, 3, 41, 79
4, 39040, Note_on_c, 3, 41, 0
4, 39120, Note_on_c, 3, 43, 79
4, 39280, Note_on_c, 3, 43, 0
4, 39360, Note_on_c, 3, 41, 79
4, 39600, Note_on_c, 3, 41, 0
4, 39720, Note_on_c, 3, 41, 79
4, 39800, Note_on_c, 3, 41, 0
4, 39840, Note_on_c, 3, 41, 79
4, 40080, Note_on_c, 3, 41, 0
4, 40200, Note_on_c, 3, 41, 79
4, 40280, Note_on_c, 3, 41, 0
4, 40320, Note_on_c, 3, 40, 79
4, 40560, Note_on_c, 3, 40, 0
4, 40680, Note_on_c, 3, 40, 79
4, 40760, Note_on_c, 3, 40, 0
4, 40800, Note_on_c, 3, 40, 79
4, 41040, Note_on_c, 3, 40, 0
4, 41160, Note_on_c, 3, 40, 79
4, 41240, Note_on_c, 3, 40, 0
4, 41280, Note_on_c, 3, 38, 79
4, 41520, Note_on_c, 3, 38, 0
4, 41640, Note_on_c, 3, 38, 79
4, 41720, Note_on_c, 3, 38, 0
4, 41760, Note_on_c, 3, 38, 79
4, 42000, Note_on_c, 3, 38, 0
4, 42120, Note_on_c, 3, 38, 79
4, 42200, Note_on_c, 3, 38, 0
4, 42240, Note_on_c, 3, 36, 79
4, 42480, Note_on_c, 3, 36, 0
4, 42600, Note_on_c, 3, 36, 79
4, 42680, Note_on_c, 3, 36, 0
4, 42720, Note_on_c, 3, 36, 79
4, 42960, Note_on_c, 3, 36, 0
4, 43080, Note_on_c, 3, 33, 79
4, 43160, Note_on_c, 3, 33, 0
4, 43200, Note_on_c, 3, 34, 79
4, 43440, Note_on_c, 3, 34, 0
4, 43560, Note_on_c, 3, 34, 79
4, 43640, Note_on_c, 3, 34, 0
4, 43680, Note_on_c, 3, 34, 79
4, 43920, Note_on_c, 3, 34, 0
4, 44040, Note_on_c, 3, 34, 79
4, 44120, Note_on_c, 3, 34, 0
4, 44160, Note_on_c, 3, 36, 79
4, 44400, Note_on_c, 3, 36, 0
4, 44520, Note_on_c, 3, 36, 79
4, 44600, Note_on_c, 3, 36, 0
4, 44640, Note_on_c, 3, 36, 79
4, 44880, Note_on_c, 3, 36, 0
4, 45000, Note_on_c, 3, 36, 79
4, 45080, Note_on_c, 3, 36, 0
4, 45120, Note_on_c, 3, 41, 79
4, 45360, Note_on_c, 3, 41, 0
4, 45480, Note_on_c, 3, 41, 79
4, 45560, Note_on_c, 3, 41, 0
4, 45600, Note_on_c, 3, 41, 79
4, 45840, Note_on_c, 3, 41, 0
4, 45960, Note_on_c, 3, 41, 79
4, 46040, Note_on_c, 3, 41, 0
4, 46080, Note_on_c, 3, 41, 79
4, 46320, Note_on_c, 3, 41, 0
4, 46440, Note_on_c, 3, 41, 79
4, 46520, Note_on_c, 3, 41, 0
4, 46560, Note_on_c, 3, 41, 79
4, 46720, Note_on_c, 3, 41, 0
4, 46800, Note_on_c, 3, 43, 79
4, 46960, Note_on_c, 3, 43, 0
4, 47040, Note_on_c, 3, 41, 79
4, 47280, Note_on_c, 3, 41, 0
4, 47400, Note_on_c, 3, 41, 79
4, 47480, Note_on_c, 3, 41, 0
4, 47520, Note_on_c, 3, 41, 79
4, 47760, Note_on_c, 3, 41, 0
4, 47880, Note_on_c, 3, 41, 79
4, 47960, Note_on_c, 3, 41, 0
4, 48000, Note_on_c, 3, 40, 79
4, 48240, Note_on_c, 3, 40, 0
4, 48360, Note_on_c, 3, 40, 79
4, 48440, Note_on_c, 3, 40, 0
4, 48480, Note_on_c, 3, 40, 79
4, 48720, Note_on_c, 3, 40, 0
4, 48840, Note_on_c, 3, 40, 79
4, 48920, Note_on_c, 3, 40, 0
4, 48960, Note_on_c, 3, 38, 79
4, 49200, Note_on_c, 3, 38, 0
4, 49320, Note_on_c, 3, 38, 79
4, 49400, Note_on_c, 3, 38, 0
4, 49440, Note_on_c, 3, 38, 79
4, 49680, Note_on_c, 3, 38, 0
4, 49800, Note_on_c, 3, 38, 79
4, 49880, Note_on_c, 3, 38, 0
4, 49920, Note_on_c, 3, 36, 79
4, 50160, Note_on_c, 3, 36, 0
4, 50280, Note_on_c, 3, 36, 79
4, 50360, Note_on_c, 3, 36, 0
4, 50400, Note_on_c, 3, 36, 79
4, 50640, Note_on_c, 3, 36, 0
4, 50760, Note_on_c, 3, 33, 79
4, 50840, Note_on_c, 3, 33, 0
4, 50880, Note_on_c, 3, 34, 79
4, 51120, Note_on_c, 3, 34, 0
4, 51240, Note_on_c, 3, 34, 79
4, 51320, Note_on_c, 3, 34, 0
4, 51360, Note_on_c, 3, 34, 79
4, 51600, Note_on_c, 3, 34, 0
4, 51720, Note_on_c, 3, 34, 79
4, 51800, Note_on_c, 3, 34, 0
4, 51840, Note_on_c, 3, 36, 79
4, 52080, Note_on_c, 3, 36, 0
4, 52200, Note_on_c, 3, 36, 79
4, 52280, Note_on_c, 3, 36, 0
4, 52320, Note_on_c, 3, 36, 79
4, 52560, Note_on_c, 3, 36, 0
4, 52680, Note_on_c, 3, 36, 79
4, 52760, Note_on_c, 3, 36, 0
4, 52800, Note_on_c, 3, 41, 79
4, 53040, Note_on_c, 3, 41, 0
4, 53160, Note_on_c, 3, 41, 79
4, 53240, Note_on_c, 3, 41, 0
4, 53280, Note_on_c, 3, 41, 79
4, 53520, Note_on_c, 3, 41, 0
4, 53640, Note_on_c, 3, 41, 79
4, 53720, Note_on_c, 3, 41, 0
4, 53760, Note_on_c, 3, 41, 79
4, 54000, Note_on_c, 3, 41, 0
4, 54120, Note_on_c, 3, 41, 79
4, 54200, Note_on_c, 3, 41, 0
4, 54240, Note_on_c, 3, 41, 79
4, 54400, Note_on_c, 3, 41, 0
4, 54480, Note_on_c, 3, 43, 79
4, 54640, Note_on_c, 3, 43, 0
4, 54720, Note_on_c, 3, 38, 79
4, 54960, Note_on_c, 3, 38, 0
4, 55080, Note_on_c, 3, 38, 79
4, 55160, Note_on_c, 3, 38, 0
4, 55200, Note_on_c, 3, 38, 79
4, 55440, Note_on_c, 3, 38, 0
4, 55560, Note_on_c, 3, 38, 79
4, 55640, Note_on_c, 3, 38, 0
4, 55680, Note_on_c, 3, 36, 79
4, 55920, Note_on_c, 3, 36, 0
4, 56040, Note_on_c, 3, 36, 79
4, 56120, Note_on_c, 3, 36, 0
4, 56160, Note_on_c, 3, 36, 79
4, 56400, Note_on_c, 3, 36, 0
4, 56520, Note_on_c, 3, 36, 79
4, 56600, Note_on_c, 3, 36, 0
4, 56640, Note_on_c, 3, 34, 79
4, 56880, Note_on_c, 3, 34, 0
4, 57000, Note_on_c, 3, 34, 79
4, 57080, Note_on_c, 3, 34, 0
4, 57120, Note_on_c, 3, 34, 79
4, 57360, Note_on_c, 3, 34, 0
4, 57480, Note_on_c, 3, 34, 79
4, 57560, Note_on_c, 3, 34, 0
4, 57600, Note_on_c, 3, 36, 79
4, 57840, Note_on_c, 3, 36, 0
4, 57960, Note_on_c, 3, 36, 79
4, 58040, Note_on_c, 3, 36, 0
4, 58080, Note_on_c, 3, 36, 79
4, 58320, Note_on_c, 3, 36, 0
4, 58440, Note_on_c, 3, 36, 79
4, 58520, Note_on_c, 3, 36, 0
4, 58560, Note_on_c, 3, 38, 79
4, 58800, Note_on_c, 3, 38, 0
4, 58920, Note_on_c, 3, 38, 79
4, 59000, Note_on_c, 3, 38, 0
4, 59040, Note_on_c, 3, 38, 79
4, 59280, Note_on_c, 3, 38, 0
4, 59400, Note_on_c, 3, 38, 79
4, 59480, Note_on_c, 3, 38, 0
4, 59520, Note_on_c, 3, 36, 79
4, 59760, Note_on_c, 3, 36, 0
4, 59880, Note_on_c, 3, 36, 79
4, 59960, Note_on_c, 3, 36, 0
4, 60000, Note_on_c, 3, 36, 79
4, 60240, Note_on_c, 3, 36, 0
4, 60360, Note_on_c, 3, 36, 79
4, 60440, Note_on_c, 3, 36, 0
4, 60480, Note_on_c, 3, 34, 79
4, 60720, Note_on_c, 3, 34, 0
4, 60840, Note_on_c, 3, 34, 79
4, 60920, Note_on_c, 3, 34, 0
4, 60960, Note_on_c, 3, 34, 79
4, 61275, Note_on_c, 3, 34, 0
4, 61440, Note_on_c, 3, 34, 79
4, 62075, Note_on_c, 3, 34, 0
4, 62400, Note_on_c, 3, 41, 79
4, 62640, Note_on_c, 3, 41, 0
4, 62760, Note_on_c, 3, 41, 79
4, 62840, Note_on_c, 3, 41, 0
4, 62880, Note_on_c, 3, 41, 79
4, 63120, Note_on_c, 3, 41, 0
4, 63240, Note_on_c, 3, 41, 79
4, 63320, Note_on_c, 3, 41, 0
4, 63360, Note_on_c, 3, 40, 79
4, 63600, Note_on_c, 3, 40, 0
4, 63720, Note_on_c, 3, 40, 79
4, 63800, Note_on_c, 3, 40, 0
4, 63840, Note_on_c, 3, 40, 79
4, 64080, Note_on_c, 3, 40, 0
4, 64200, Note_on_c, 3, 40, 79
4, 64280, Note_on_c, 3, 40, 0
4, 64320, Note_on_c, 3, 38, 79
4, 64560, Note_on_c, 3, 38, 0
4, 64680, Note_on_c, 3, 38, 79
4, 64760, Note_on_c, 3, 38, 0
4, 64800, Note_on_c, 3, 38, 79
4, 65040, Note_on_c, 3, 38, 0
4, 65160, Note_on_c, 3, 38, 79
4, 65240, Note_on_c, 3, 38, 0
4, 65280, Note_on_c, 3, 36, 79
4, 65520, Note_on_c, 3, 36, 0
4, 65640, Note_on_c, 3, 36, 79
4, 65720, Note_on_c, 3, 36, 0
4, 65760, Note_on_c, 3, 36, 79
4, 66000, Note_on_c, 3, 36, 0
4, 66120, Note_on_c, 3, 33, 79
4, 66200, Note_on_c, 3, 33, 0
4, 66240, Note_on_c, 3, 34, 79
4, 66480, Note_on_c, 3, 34, 0
4, 66600, Note_on_c, 3, 34, 79
4, 66680, Note_on_c, 3, 34, 0
4, 66720, Note_on_c, 3, 34, 79
4, 66960, Note_on_c, 3, 34, 0
4, 67080, Note_on_c, 3, 34, 79
4, 67160, Note_on_c, 3, 34, 0
4, 67200, Note_on_c, 3, 36, 79
4, 67440, Note_on_c, 3, 36, 0
4, 67560, Note_on_c, 3, 36, 79
4, 67640, Note_on_c, 3, 36, 0
4, 67680, Note_on_c, 3, 36, 79
4, 67920, Note_on_c, 3, 36, 0
4, 68040, Note_on_c, 3, 36, 79
4, 68120, Note_on_c, 3, 36, 0
4, 68160, Note_on_c, 3, 41, 79
4, 68400, Note_on_c, 3, 41, 0
4, 68520, Note_on_c, 3, 41, 79
4, 68600, Note_on_c, 3, 41, 0
4, 68640, Note_on_c, 3, 41, 79
4, 68880, Note_on_c, 3, 41, 0
4, 69000, Note_on_c, 3, 41, 79
4, 69080, Note_on_c, 3, 41, 0
4, 69120, Note_on_c, 3, 41, 79
4, 69360, Note_on_c, 3, 41, 0
4, 69480, Note_on_c, 3, 41, 79
4, 69560, Note_on_c, 3, 41, 0
4, 69600, Note_on_c, 3, 41, 79
4, 69760, Note_on_c, 3, 41, 0
4, 69840, Note_on_c, 3, 43, 79
4, 70000, Note_on_c, 3, 43, 0
4, 70080, Note_on_c, 3, 38, 79
4, 70320, Note_on_c, 3, 38, 0
4, 70440, Note_on_c, 3, 38, 79
4, 70520, Note_on_c, 3, 38, 0
4, 70560, Note_on_c, 3, 38, 79
4, 70800, Note_on_c, 3, 38, 0
4, 70920, Note_on_c, 3, 38, 79
4, 71000, Note_on_c, 3, 38, 0
4, 71040, Note_on_c, 3, 36, 79
4, 71280, Note_on_c, 3, 36, 0
4, 71400, Note_on_c, 3, 36, 79
4, 71480, Note_on_c, 3, 36, 0
4, 71520, Note_on_c, 3, 36, 79
4, 71760, Note_on_c, 3, 36, 0
4, 71880, Note_on_c, 3, 36, 79
4, 71960, Note_on_c, 3, 36, 0
4, 72000, Note_on_c, 3, 34, 79
4, 72240, Note_on_c, 3, 34, 0
4, 72360, Note_on_c, 3, 34, 79
4, 72440, Note_on_c, 3, 34, 0
4, 72480, Note_on_c, 3, 34, 79
4, 72720, Note_on_c, 3, 34, 0
4, 72840, Note_on_c, 3, 36, 79
4, 72920, Note_on_c, 3, 36, 0
4, 72960, Note_on_c, 3, 36, 79
4, 73200, Note_on_c, 3, 36, 0
4, 73320, Note_on_c, 3, 36, 79
4, 73400, Note_on_c, 3, 36, 0
4, 73440, Note_on_c, 3, 36, 79
4, 73680, Note_on_c, 3, 36, 0
4, 73800, Note_on_c, 3, 36, 79
4, 73880, Note_on_c, 3, 36, 0
4, 73920, Note_on_c, 3, 38, 79
4, 74160, Note_on_c, 3, 38, 0
4, 74280, Note_on_c, 3, 38, 79
4, 74360, Note_on_c, 3, 38, 0
4, 74400, Note_on_c, 3, 38, 79
4, 74640, Note_on_c, 3, 38, 0
4, 74760, Note_on_c, 3, 38, 79
4, 74840, Note_on_c, 3, 38, 0
4, 74880, Note_on_c, 3, 36, 79
4, 75120, Note_on_c, 3, 36, 0
4, 75240, Note_on_c, 3, 36, 79
4, 75320, Note_on_c, 3, 36, 0
4, 75360, Note_on_c, 3, 36, 79
4, 75600, Note_on_c, 3, 36, 0
4, 75720, Note_on_c, 3, 36, 79
4, 75800, Note_on_c, 3, 36, 0
4, 75840, Note_on_c, 3, 34, 79
4, 76080, Note_on_c, 3, 34, 0
4, 76200, Note_on_c, 3, 34, 79
4, 76280, Note_on_c, 3, 34, 0
4, 76320, Note_on_c, 3, 34, 79
4, 76635, Note_on_c, 3, 34, 0
4, 76800, Note_on_c, 3, 34, 79
4, 77435, Note_on_c, 3, 34, 0
4, 77760, Note_on_c, 3, 41, 79
4, 78000, Note_on_c, 3, 41, 0
4, 78120, Note_on_c, 3, 41, 79
4, 78200, Note_on_c, 3, 41, 0
4, 78240, Note_on_c, 3, 41, 79
4, 78480, Note_on_c, 3, 41, 0
4, 78600, Note_on_c, 3, 41, 79
4, 78680, Note_on_c, 3, 41, 0
4, 78720, Note_on_c, 3, 40, 79
4, 78960, Note_on_c, 3, 40, 0
4, 79080, Note_on_c, 3, 40, 79
4, 79160, Note_on_c, 3, 40, 0
4, 79200, Note_on_c, 3, 40, 79
4, 79440, Note_on_c, 3, 40, 0
4, 79560, Note_on_c, 3, 40, 79
4, 79640, Note_on_c, 3, 40, 0
4, 79680, Note_on_c, 3, 38, 79
4, 79920, Note_on_c, 3, 38, 0
4, 80040, Note_on_c, 3, 38, 79
4, 80120, Note_on_c, 3, 38, 0
4, 80160, Note_on_c, 3, 38, 79
4, 80400, Note_on_c, 3, 38, 0
4, 80520, Note_on_c, 3, 38, 79
4, 80600, Note_on_c, 3, 38, 0
4, 80640, Note_on_c, 3, 36, 79
4, 80880, Note_on_c, 3, 36, 0
4, 81000, Note_on_c, 3, 36, 79
4, 81080, Note_on_c, 3, 36, 0
4, 81120, Note_on_c, 3, 36, 79
4, 81360, Note_on_c, 3, 36, 0
4, 81480, Note_on_c, 3, 33, 79
4, 81560, Note_on_c, 3, 33, 0
4, 81600, Note_on_c, 3, 34, 79
4, 81840, Note_on_c, 3, 34, 0
4, 81960, Note_on_c, 3, 34, 79
4, 82040, Note_on_c, 3, 34, 0
4, 82080, Note_on_c, 3, 34, 79
4, 82320, Note_on_c, 3, 34, 0
4, 82440, Note_on_c, 3, 34, 79
4, 82520, Note_on_c, 3, 34, 0
4, 82560, Note_on_c, 3, 36, 79
4, 82800, Note_on_c, 3, 36, 0
4, 82920, Note_on_c, 3, 36, 79
4, 83000, Note_on_c, 3, 36, 0
4, 83040, Note_on_c, 3, 36, 79
4, 83280, Note_on_c, 3, 36, 0
4, 83400, Note_on_c, 3, 36, 79
4, 83480, Note_on_c, 3, 36, 0
4, 83520, Note_on_c, 3, 41, 79
4, 83760, Note_on_c, 3, 41, 0
4, 83880, Note_on_c, 3, 41, 79
4, 83960, Note_on_c, 3, 41, 0
4, 84000, Note_on_c, 3, 41, 79
4, 84240, Note_on_c, 3, 41, 0
4, 84360, Note_on_c, 3, 41, 79
4, 84440, Note_on_c, 3, 41, 0
4, 84480, Note_on_c, 3, 41, 79
4, 84720, Note_on_c, 3, 41, 0
4, 84840, Note_on_c, 3, 41, 79
4, 84920, Note_on_c, 3, 41, 0
4, 84960, Note_on_c, 3, 41, 79
4, 85120, Note_on_c, 3, 41, 0
4, 85200, Note_on_c, 3, 43, 79
4, 85360, Note_on_c, 3, 43, 0
4, 85440, Note_on_c, 3, 41, 79
4, 85680, Note_on_c, 3, 41, 0
4, 85800, Note_on_c, 3, 41, 79
4, 85880, Note_on_c, 3, 41, 0
4, 85920, Note_on_c, 3, 41, 79
4, 86160, Note_on_c, 3, 41, 0
4, 86280, Note_on_c, 3, 41, 79
4, 86360, Note_on_c, 3, 41, 0
4, 86400, Note_on_c, 3, 40, 79
4, 86640, Note_on_c, 3, 40, 0
4, 86760, Note_on_c, 3, 40, 79
4, 86840, Note_on_c, 3, 40, 0
4, 86880, Note_on_c, 3, 40, 79
4, 87120, Note_on_c, 3, 40, 0
4, 87240, Note_on_c, 3, 40, 79
4, 87320, Note_on_c, 3, 40, 0
4, 87360, Note_on_c, 3, 38, 79
4, 87600, Note_on_c, 3, 38, 0
4, 87720, Note_on_c, 3, 38, 79
4, 87800, Note_on_c, 3, 38, 0
4, 87840, Note_on_c, 3, 38, 79
4, 88080, Note_on_c, 3, 38, 0
4, 88200, Note_on_c, 3, 38, 79
4, 88280, Note_on_c, 3, 38, 0
4, 88320, Note_on_c, 3, 36, 79
4, 88560, Note_on_c, 3, 36, 0
4, 88680, Note_on_c, 3, 36, 79
4, 88760, Note_on_c, 3, 36, 0
4, 88800, Note_on_c, 3, 36, 79
4, 89040, Note_on_c, 3, 36, 0
4, 89160, Note_on_c, 3, 33, 79
4, 89240, Note_on_c, 3, 33, 0
4, 89280, Note_on_c, 3, 34, 79
4, 89520, Note_on_c, 3, 34, 0
4, 89640, Note_on_c, 3, 34, 79
4, 89720, Note_on_c, 3, 34, 0
4, 89760, Note_on_c, 3, 34, 79
4, 90000, Note_on_c, 3, 34, 0
4, 90120, Note_on_c, 3, 34, 79
4, 90200, Note_on_c, 3, 34, 0
4, 90240, Note_on_c, 3, 36, 79
4, 90480, Note_on_c, 3, 36, 0
4, 90600, Note_on_c, 3, 36, 79
4, 90680, Note_on_c, 3, 36, 0
4, 90720, Note_on_c, 3, 36, 79
4, 90960, Note_on_c, 3, 36, 0
4, 91080, Note_on_c, 3, 36, 79
4, 91160, Note_on_c, 3, 36, 0
4, 91200, Note_on_c, 3, 41, 79
4, 91440, Note_on_c, 3, 41, 0
4, 91560, Note_on_c, 3, 41, 79
4, 91640, Note_on_c, 3, 41, 0
4, 91680, Note_on_c, 3, 41, 79
4, 91920, Note_on_c, 3, 41, 0
4, 92040, Note_on_c, 3, 41, 79
4, 92120, Note_on_c, 3, 41, 0
4, 92160, Note_on_c, 3, 41, 79
4, 92400, Note_on_c, 3, 41, 0
4, 92520, Note_on_c, 3, 41, 79
4, 92600, Note_on_c, 3, 41, 0
4, 92640, Note_on_c, 3, 41, 79
4, 92800, Note_on_c, 3, 41, 0
4, 92880, Note_on_c, 3, 43, 79
4, 93040, Note_on_c, 3, 43, 0
4, 93040, End_track
5, 0, Start_track
5, 0, MIDI_port, 0
5, 0, Title_t, "LeadVocal"
5, 0, Program_c, 4, 24
5, 0, Control_c, 4, 7, 83
5, 480, Control_c, 4, 0, 0
5, 485, Control_c, 4, 32, 0
5, 495, Control_c, 4, 1, 5
5, 505, Control_c, 4, 10, 63
5, 510, Control_c, 4, 11, 127
5, 515, Control_c, 4, 64, 0
5, 520, Control_c, 4, 91, 127
5, 525, Control_c, 4, 93, 0
5, 530, Pitch_bend_c, 4, 8192
5, 1200, Control_c, 4, 1, 5
5, 1200, Control_c, 4, 11, 127
5, 1200, Control_c, 4, 7, 83
5, 1200, Control_c, 4, 91, 127
5, 8880, Note_on_c, 4, 69, 79
5, 8960, Note_on_c, 4, 69, 0
5, 9000, Note_on_c, 4, 70, 79
5, 9080, Note_on_c, 4, 70, 0
5, 9120, Note_on_c, 4, 69, 79
5, 9280, Note_on_c, 4, 69, 0
5, 9360, Note_on_c, 4, 65, 79
5, 9440, Note_on_c, 4, 65, 0
5, 9480, Note_on_c, 4, 65, 79
5, 9560, Note_on_c, 4, 65, 0
5, 9600, Note_on_c, 4, 67, 79
5, 9680, Note_on_c, 4, 67, 0
5, 9720, Note_on_c, 4, 67, 79
5, 9800, Note_on_c, 4, 67, 0
5, 9840, Note_on_c, 4, 67, 79
5, 9880, Note_on_c, 4, 67, 0
5, 9900, Note_on_c, 4, 65, 79
5, 9940, Note_on_c, 4, 65, 0
5, 9960, Note_on_c, 4, 69, 79
5, 10240, Note_on_c, 4, 69, 0
5, 10800, Note_on_c, 4, 69, 79
5, 10880, Note_on_c, 4, 69, 0
5, 10920, Note_on_c, 4, 69, 79
5, 11000, Note_on_c, 4, 69, 0
5, 11040, Note_on_c, 4, 69, 79
5, 11200, Note_on_c, 4, 69, 0
5, 11280, Note_on_c, 4, 65, 79
5, 11360, Note_on_c, 4, 65, 0
5, 11400, Note_on_c, 4, 65, 79
5, 11480, Note_on_c, 4, 65, 0
5, 11520, Note_on_c, 4, 67, 79
5, 11600, Note_on_c, 4, 67, 0
5, 11640, Note_on_c, 4, 67, 79
5, 11720, Note_on_c, 4, 67, 0
5, 11760, Note_on_c, 4, 65, 79
5, 11840, Note_on_c, 4, 65, 0
5, 11880, Note_on_c, 4, 69, 79
5, 12120, Note_on_c, 4, 69, 0
5, 12180, Note_on_c, 4, 60, 79
5, 12220, Note_on_c, 4, 60, 0
5, 12240, Note_on_c, 4, 69, 79
5, 12400, Note_on_c, 4, 69, 0
5, 12480, Note_on_c, 4, 69, 79
5, 12540, Note_on_c, 4, 69, 0
5, 12540, Note_on_c, 4, 67, 79
5, 12600, Note_on_c, 4, 67, 0
5, 12600, Note_on_c, 4, 65, 79
5, 12680, Note_on_c, 4, 65, 0
5, 12720, Note_on_c, 4, 65, 79
5, 12800, Note_on_c, 4, 65, 0
5, 12840, Note_on_c, 4, 65, 79
5, 13200, Note_on_c, 4, 65, 0
5, 13320, Note_on_c, 4, 60, 79
5, 13400, Note_on_c, 4, 60, 0
5, 13440, Note_on_c, 4, 70, 79
5, 13520, Note_on_c, 4, 70, 0
5, 13560, Note_on_c, 4, 70, 79
5, 13640, Note_on_c, 4, 70, 0
5, 13680, Note_on_c, 4, 69, 79
5, 13760, Note_on_c, 4, 69, 0
5, 13800, Note_on_c, 4, 70, 79
5, 14000, Note_on_c, 4, 70, 0
5, 14040, Note_on_c, 4, 69, 79
5, 14120, Note_on_c, 4, 69, 0
5, 14160, Note_on_c, 4, 65, 79
5, 14240, Note_on_c, 4, 65, 0
5, 14280, Note_on_c, 4, 69, 79
5, 14340, Note_on_c, 4, 69, 0
5, 14340, Note_on_c, 4, 67, 79
5, 14400, Note_on_c, 4, 67, 0
5, 14400, Note_on_c, 4, 65, 79
5, 14560, Note_on_c, 4, 65, 0
5, 16560, Note_on_c, 4, 69, 79
5, 16640, Note_on_c, 4, 69, 0
5, 16680, Note_on_c, 4, 69, 79
5, 16760, Note_on_c, 4, 69, 0
5, 16800, Note_on_c, 4, 69, 79
5, 16860, Note_on_c, 4, 69, 0
5, 16860, Note_on_c, 4, 67, 79
5, 16920, Note_on_c, 4, 67, 0
5, 16920, Note_on_c, 4, 65, 79
5, 17000, Note_on_c, 4, 65, 0
5, 17040, Note_on_c, 4, 65, 79
5, 17200, Note_on_c, 4, 65, 0
5, 17280, Note_on_c, 4, 67, 79
5, 17360, Note_on_c, 4, 67, 0
5, 17400, Note_on_c, 4, 67, 79
5, 17480, Note_on_c, 4, 67, 0
5, 17520, Note_on_c, 4, 65, 79
5, 17600, Note_on_c, 4, 65, 0
5, 17640, Note_on_c, 4, 69, 79
5, 17920, Note_on_c, 4, 69, 0
5, 18420, Note_on_c, 4, 65, 79
5, 18460, Note_on_c, 4, 65, 0
5, 18480, Note_on_c, 4, 69, 79
5, 18560, Note_on_c, 4, 69, 0
5, 18600, Note_on_c, 4, 69, 79
5, 18680, Note_on_c, 4, 69, 0
5, 18720, Note_on_c, 4, 69, 79
5, 18880, Note_on_c, 4, 69, 0
5, 18960, Note_on_c, 4, 65, 79
5, 19000, Note_on_c, 4, 65, 0
5, 19020, Note_on_c, 4, 65, 79
5, 19060, Note_on_c, 4, 65, 0
5, 19080, Note_on_c, 4, 65, 79
5, 19160, Note_on_c, 4, 65, 0
5, 19200, Note_on_c, 4, 67, 79
5, 19280, Note_on_c, 4, 67, 0
5, 19320, Note_on_c, 4, 67, 79
5, 19400, Note_on_c, 4, 67, 0
5, 19440, Note_on_c, 4, 65, 79
5, 19520, Note_on_c, 4, 65, 0
5, 19560, Note_on_c, 4, 69, 79
5, 19800, Note_on_c, 4, 69, 0
5, 19860, Note_on_c, 4, 60, 79
5, 19900, Note_on_c, 4, 60, 0
5, 19920, Note_on_c, 4, 69, 79
5, 20080, Note_on_c, 4, 69, 0
5, 20160, Note_on_c, 4, 69, 79
5, 20240, Note_on_c, 4, 69, 0
5, 20280, Note_on_c, 4, 65, 79
5, 20360, Note_on_c, 4, 65, 0
5, 20400, Note_on_c, 4, 65, 79
5, 20480, Note_on_c, 4, 65, 0
5, 20520, Note_on_c, 4, 65, 79
5, 20880, Note_on_c, 4, 65, 0
5, 21000, Note_on_c, 4, 60, 79
5, 21080, Note_on_c, 4, 60, 0
5, 21120, Note_on_c, 4, 70, 79
5, 21200, Note_on_c, 4, 70, 0
5, 21240, Note_on_c, 4, 70, 79
5, 21320, Note_on_c, 4, 70, 0
5, 21360, Note_on_c, 4, 69, 79
5, 21440, Note_on_c, 4, 69, 0
5, 21480, Note_on_c, 4, 70, 79
5, 21680, Note_on_c, 4, 70, 0
5, 21720, Note_on_c, 4, 69, 79
5, 21800, Note_on_c, 4, 69, 0
5, 21840, Note_on_c, 4, 65, 79
5, 21920, Note_on_c, 4, 65, 0
5, 21960, Note_on_c, 4, 69, 79
5, 22020, Note_on_c, 4, 69, 0
5, 22020, Note_on_c, 4, 67, 79
5, 22080, Note_on_c, 4, 67, 0
5, 22080, Note_on_c, 4, 65, 79
5, 22240, Note_on_c, 4, 65, 0
5, 23880, Note_on_c, 4, 69, 79
5, 23940, Note_on_c, 4, 69, 0
5, 23940, Note_on_c, 4, 72, 79
5, 23980, Note_on_c, 4, 72, 0
5, 24000, Note_on_c, 4, 72, 79
5, 24080, Note_on_c, 4, 72, 0
5, 24120, Note_on_c, 4, 72, 79
5, 24200, Note_on_c, 4, 72, 0
5, 24240, Note_on_c, 4, 72, 79
5, 24320, Note_on_c, 4, 72, 0
5, 24360, Note_on_c, 4, 72, 79
5, 24640, Note_on_c, 4, 72, 0
5, 24840, Note_on_c, 4, 69, 79
5, 24920, Note_on_c, 4, 69, 0
5, 24960, Note_on_c, 4, 72, 79
5, 25040, Note_on_c, 4, 72, 0
5, 25080, Note_on_c, 4, 72, 79
5, 25160, Note_on_c, 4, 72, 0
5, 25200, Note_on_c, 4, 72, 79
5, 25240, Note_on_c, 4, 72, 0
5, 25260, Note_on_c, 4, 72, 79
5, 25300, Note_on_c, 4, 72, 0
5, 25320, Note_on_c, 4, 69, 79
5, 25400, Note_on_c, 4, 69, 0
5, 25440, Note_on_c, 4, 72, 79
5, 25600, Note_on_c, 4, 72, 0
5, 25920, Note_on_c, 4, 72, 79
5, 26000, Note_on_c, 4, 72, 0
5, 26040, Note_on_c, 4, 72, 79
5, 26120, Note_on_c, 4, 72, 0
5, 26160, Note_on_c, 4, 70, 79
5, 26240, Note_on_c, 4, 70, 0
5, 26280, Note_on_c, 4, 70, 79
5, 26480, Note_on_c, 4, 70, 0
5, 26520, Note_on_c, 4, 69, 79
5, 26720, Note_on_c, 4, 69, 0
5, 26760, Note_on_c, 4, 69, 79
5, 26960, Note_on_c, 4, 69, 0
5, 27000, Note_on_c, 4, 65, 79
5, 27080, Note_on_c, 4, 65, 0
5, 27120, Note_on_c, 4, 69, 79
5, 27160, Note_on_c, 4, 69, 0
5, 27180, Note_on_c, 4, 69, 79
5, 27220, Note_on_c, 4, 69, 0
5, 27240, Note_on_c, 4, 69, 79
5, 27520, Note_on_c, 4, 69, 0
5, 27600, Note_on_c, 4, 72, 79
5, 27680, Note_on_c, 4, 72, 0
5, 27720, Note_on_c, 4, 72, 79
5, 27800, Note_on_c, 4, 72, 0
5, 27840, Note_on_c, 4, 72, 79
5, 28000, Note_on_c, 4, 72, 0
5, 28080, Note_on_c, 4, 72, 79
5, 28160, Note_on_c, 4, 72, 0
5, 28200, Note_on_c, 4, 72, 79
5, 28400, Note_on_c, 4, 72, 0
5, 28440, Note_on_c, 4, 65, 79
5, 28720, Note_on_c, 4, 65, 0
5, 28800, Note_on_c, 4, 72, 79
5, 28880, Note_on_c, 4, 72, 0
5, 28920, Note_on_c, 4, 72, 79
5, 29000, Note_on_c, 4, 72, 0
5, 29040, Note_on_c, 4, 74, 79
5, 29120, Note_on_c, 4, 74, 0
5, 29160, Note_on_c, 4, 72, 79
5, 29400, Note_on_c, 4, 72, 0
5, 29400, Note_on_c, 4, 74, 79
5, 29480, Note_on_c, 4, 74, 0
5, 29880, Note_on_c, 4, 74, 79
5, 29960, Note_on_c, 4, 74, 0
5, 30000, Note_on_c, 4, 72, 79
5, 30080, Note_on_c, 4, 72, 0
5, 30120, Note_on_c, 4, 72, 79
5, 30160, Note_on_c, 4, 72, 0
5, 30180, Note_on_c, 4, 69, 79
5, 30220, Note_on_c, 4, 69, 0
5, 30240, Note_on_c, 4, 72, 79
5, 30320, Note_on_c, 4, 72, 0
5, 30360, Note_on_c, 4, 74, 79
5, 30440, Note_on_c, 4, 74, 0
5, 30480, Note_on_c, 4, 72, 79
5, 30640, Note_on_c, 4, 72, 0
5, 30780, Note_on_c, 4, 69, 79
5, 30820, Note_on_c, 4, 69, 0
5, 30840, Note_on_c, 4, 72, 79
5, 30920, Note_on_c, 4, 72, 0
5, 30960, Note_on_c, 4, 72, 79
5, 31040, Note_on_c, 4, 72, 0
5, 31080, Note_on_c, 4, 72, 79
5, 31120, Note_on_c, 4, 72, 0
5, 31140, Note_on_c, 4, 69, 95
5, 31180, Note_on_c, 4, 69, 0
5, 31200, Note_on_c, 4, 74, 79
5, 31320, Note_on_c, 4, 74, 0
5, 31320, Note_on_c, 4, 72, 95
5, 31600, Note_on_c, 4, 72, 0
5, 31860, Note_on_c, 4, 60, 79
5, 31900, Note_on_c, 4, 60, 0
5, 31920, Note_on_c, 4, 69, 79
5, 32000, Note_on_c, 4, 69, 0
5, 32040, Note_on_c, 4, 69, 79
5, 32120, Note_on_c, 4, 69, 0
5, 32160, Note_on_c, 4, 69, 79
5, 32320, Note_on_c, 4, 69, 0
5, 32400, Note_on_c, 4, 65, 79
5, 32520, Note_on_c, 4, 65, 0
5, 32580, Note_on_c, 4, 60, 79
5, 32620, Note_on_c, 4, 60, 0
5, 32640, Note_on_c, 4, 67, 79
5, 32720, Note_on_c, 4, 67, 0
5, 32760, Note_on_c, 4, 67, 79
5, 32840, Note_on_c, 4, 67, 0
5, 32880, Note_on_c, 4, 65, 79
5, 32960, Note_on_c, 4, 65, 0
5, 33000, Note_on_c, 4, 69, 79
5, 33280, Note_on_c, 4, 69, 0
5, 33360, Note_on_c, 4, 65, 79
5, 33520, Note_on_c, 4, 65, 0
5, 33780, Note_on_c, 4, 60, 79
5, 33820, Note_on_c, 4, 60, 0
5, 33840, Note_on_c, 4, 69, 79
5, 33920, Note_on_c, 4, 69, 0
5, 33960, Note_on_c, 4, 69, 79
5, 34040, Note_on_c, 4, 69, 0
5, 34080, Note_on_c, 4, 69, 79
5, 34120, Note_on_c, 4, 69, 0
5, 34140, Note_on_c, 4, 67, 79
5, 34180, Note_on_c, 4, 67, 0
5, 34200, Note_on_c, 4, 65, 79
5, 34240, Note_on_c, 4, 65, 0
5, 34260, Note_on_c, 4, 65, 79
5, 34400, Note_on_c, 4, 65, 0
5, 34440, Note_on_c, 4, 65, 79
5, 34520, Note_on_c, 4, 65, 0
5, 34560, Note_on_c, 4, 67, 79
5, 34640, Note_on_c, 4, 67, 0
5, 34680, Note_on_c, 4, 67, 79
5, 34760, Note_on_c, 4, 67, 0
5, 34800, Note_on_c, 4, 65, 79
5, 34880, Note_on_c, 4, 65, 0
5, 34920, Note_on_c, 4, 69, 79
5, 35160, Note_on_c, 4, 69, 0
5, 35220, Note_on_c, 4, 60, 79
5, 35260, Note_on_c, 4, 60, 0
5, 35280, Note_on_c, 4, 69, 79
5, 35440, Note_on_c, 4, 69, 0
5, 35520, Note_on_c, 4, 69, 79
5, 35680, Note_on_c, 4, 69, 0
5, 35760, Note_on_c, 4, 65, 79
5, 35840, Note_on_c, 4, 65, 0
5, 35880, Note_on_c, 4, 65, 79
5, 36240, Note_on_c, 4, 65, 0
5, 36360, Note_on_c, 4, 60, 79
5, 36440, Note_on_c, 4, 60, 0
5, 36480, Note_on_c, 4, 70, 79
5, 36560, Note_on_c, 4, 70, 0
5, 36600, Note_on_c, 4, 70, 79
5, 36680, Note_on_c, 4, 70, 0
5, 36720, Note_on_c, 4, 69, 79
5, 36800, Note_on_c, 4, 69, 0
5, 36840, Note_on_c, 4, 70, 79
5, 37040, Note_on_c, 4, 70, 0
5, 37080, Note_on_c, 4, 69, 79
5, 37160, Note_on_c, 4, 69, 0
5, 37200, Note_on_c, 4, 65, 79
5, 37280, Note_on_c, 4, 65, 0
5, 37320, Note_on_c, 4, 69, 79
5, 37380, Note_on_c, 4, 69, 0
5, 37380, Note_on_c, 4, 67, 79
5, 37440, Note_on_c, 4, 67, 0
5, 37440, Note_on_c, 4, 65, 79
5, 37600, Note_on_c, 4, 65, 0
5, 39540, Note_on_c, 4, 65, 79
5, 39580, Note_on_c, 4, 65, 0
5, 39600, Note_on_c, 4, 69, 79
5, 39640, Note_on_c, 4, 69, 0
5, 39660, Note_on_c, 4, 69, 79
5, 39700, Note_on_c, 4, 69, 0
5, 39720, Note_on_c, 4, 72, 79
5, 39800, Note_on_c, 4, 72, 0
5, 39840, Note_on_c, 4, 74, 79
5, 40000, Note_on_c, 4, 74, 0
5, 40080, Note_on_c, 4, 69, 79
5, 40160, Note_on_c, 4, 69, 0
5, 40200, Note_on_c, 4, 72, 79
5, 40280, Note_on_c, 4, 72, 0
5, 40320, Note_on_c, 4, 72, 79
5, 40400, Note_on_c, 4, 72, 0
5, 40440, Note_on_c, 4, 72, 79
5, 40520, Note_on_c, 4, 72, 0
5, 40560, Note_on_c, 4, 69, 79
5, 40640, Note_on_c, 4, 69, 0
5, 40680, Note_on_c, 4, 74, 79
5, 40960, Note_on_c, 4, 74, 0
5, 41040, Note_on_c, 4, 69, 79
5, 41120, Note_on_c, 4, 69, 0
5, 41160, Note_on_c, 4, 70, 79
5, 41360, Note_on_c, 4, 70, 0
5, 41400, Note_on_c, 4, 70, 79
5, 41600, Note_on_c, 4, 70, 0
5, 41640, Note_on_c, 4, 70, 79
5, 41840, Note_on_c, 4, 70, 0
5, 41880, Note_on_c, 4, 69, 79
5, 41960, Note_on_c, 4, 69, 0
5, 42000, Note_on_c, 4, 70, 79
5, 42080, Note_on_c, 4, 70, 0
5, 42120, Note_on_c, 4, 69, 79
5, 42200, Note_on_c, 4, 69, 0
5, 42240, Note_on_c, 4, 69, 79
5, 42320, Note_on_c, 4, 69, 0
5, 42360, Note_on_c, 4, 69, 79
5, 42440, Note_on_c, 4, 69, 0
5, 42480, Note_on_c, 4, 69, 79
5, 42560, Note_on_c, 4, 69, 0
5, 42600, Note_on_c, 4, 72, 79
5, 42880, Note_on_c, 4, 72, 0
5, 42960, Note_on_c, 4, 69, 79
5, 43120, Note_on_c, 4, 69, 0
5, 43200, Note_on_c, 4, 69, 79
5, 43280, Note_on_c, 4, 69, 0
5, 43320, Note_on_c, 4, 69, 79
5, 43400, Note_on_c, 4, 69, 0
5, 43440, Note_on_c, 4, 72, 79
5, 43600, Note_on_c, 4, 72, 0
5, 43680, Note_on_c, 4, 69, 79
5, 43920, Note_on_c, 4, 69, 0
5, 44040, Note_on_c, 4, 60, 79
5, 44120, Note_on_c, 4, 60, 0
5, 44160, Note_on_c, 4, 70, 79
5, 44240, Note_on_c, 4, 70, 0
5, 44280, Note_on_c, 4, 70, 79
5, 44360, Note_on_c, 4, 70, 0
5, 44400, Note_on_c, 4, 69, 79
5, 44480, Note_on_c, 4, 69, 0
5, 44520, Note_on_c, 4, 70, 79
5, 44720, Note_on_c, 4, 70, 0
5, 44760, Note_on_c, 4, 69, 79
5, 44840, Note_on_c, 4, 69, 0
5, 44880, Note_on_c, 4, 65, 79
5, 44960, Note_on_c, 4, 65, 0
5, 45000, Note_on_c, 4, 69, 79
5, 45060, Note_on_c, 4, 69, 0
5, 45060, Note_on_c, 4, 67, 79
5, 45120, Note_on_c, 4, 67, 0
5, 45120, Note_on_c, 4, 65, 79
5, 45280, Note_on_c, 4, 65, 0
5, 47220, Note_on_c, 4, 65, 79
5, 47260, Note_on_c, 4, 65, 0
5, 47280, Note_on_c, 4, 69, 79
5, 47360, Note_on_c, 4, 69, 0
5, 47400, Note_on_c, 4, 72, 79
5, 47480, Note_on_c, 4, 72, 0
5, 47520, Note_on_c, 4, 74, 79
5, 47680, Note_on_c, 4, 74, 0
5, 47760, Note_on_c, 4, 69, 79
5, 47840, Note_on_c, 4, 69, 0
5, 47880, Note_on_c, 4, 72, 79
5, 47960, Note_on_c, 4, 72, 0
5, 48000, Note_on_c, 4, 72, 79
5, 48080, Note_on_c, 4, 72, 0
5, 48120, Note_on_c, 4, 72, 79
5, 48200, Note_on_c, 4, 72, 0
5, 48240, Note_on_c, 4, 69, 79
5, 48320, Note_on_c, 4, 69, 0
5, 48360, Note_on_c, 4, 74, 79
5, 48640, Note_on_c, 4, 74, 0
5, 48840, Note_on_c, 4, 69, 79
5, 48920, Note_on_c, 4, 69, 0
5, 48960, Note_on_c, 4, 70, 79
5, 49040, Note_on_c, 4, 70, 0
5, 49080, Note_on_c, 4, 69, 79
5, 49160, Note_on_c, 4, 69, 0
5, 49200, Note_on_c, 4, 70, 79
5, 49280, Note_on_c, 4, 70, 0
5, 49320, Note_on_c, 4, 70, 79
5, 49520, Note_on_c, 4, 70, 0
5, 49560, Note_on_c, 4, 70, 79
5, 49640, Note_on_c, 4, 70, 0
5, 49680, Note_on_c, 4, 69, 79
5, 49760, Note_on_c, 4, 69, 0
5, 49800, Note_on_c, 4, 69, 79
5, 49880, Note_on_c, 4, 69, 0
5, 49920, Note_on_c, 4, 69, 79
5, 50000, Note_on_c, 4, 69, 0
5, 50040, Note_on_c, 4, 72, 79
5, 50240, Note_on_c, 4, 72, 0
5, 50280, Note_on_c, 4, 69, 79
5, 50560, Note_on_c, 4, 69, 0
5, 50640, Note_on_c, 4, 69, 79
5, 50720, Note_on_c, 4, 69, 0
5, 50760, Note_on_c, 4, 69, 79
5, 50840, Note_on_c, 4, 69, 0
5, 50880, Note_on_c, 4, 69, 79
5, 50960, Note_on_c, 4, 69, 0
5, 51000, Note_on_c, 4, 69, 79
5, 51080, Note_on_c, 4, 69, 0
5, 51120, Note_on_c, 4, 72, 79
5, 51200, Note_on_c, 4, 72, 0
5, 51240, Note_on_c, 4, 72, 79
5, 51320, Note_on_c, 4, 72, 0
5, 51360, Note_on_c, 4, 72, 79
5, 51600, Note_on_c, 4, 72, 0
5, 51720, Note_on_c, 4, 60, 79
5, 51800, Note_on_c, 4, 60, 0
5, 51840, Note_on_c, 4, 70, 79
5, 51920, Note_on_c, 4, 70, 0
5, 51960, Note_on_c, 4, 70, 79
5, 52040, Note_on_c, 4, 70, 0
5, 52080, Note_on_c, 4, 69, 79
5, 52160, Note_on_c, 4, 69, 0
5, 52200, Note_on_c, 4, 70, 79
5, 52400, Note_on_c, 4, 70, 0
5, 52440, Note_on_c, 4, 69, 79
5, 52520, Note_on_c, 4, 69, 0
5, 52560, Note_on_c, 4, 65, 79
5, 52640, Note_on_c, 4, 65, 0
5, 52680, Note_on_c, 4, 69, 79
5, 52740, Note_on_c, 4, 69, 0
5, 52740, Note_on_c, 4, 67, 79
5, 52800, Note_on_c, 4, 67, 0
5, 52800, Note_on_c, 4, 65, 79
5, 52960, Note_on_c, 4, 65, 0
5, 54600, Note_on_c, 4, 69, 79
5, 54660, Note_on_c, 4, 69, 0
5, 54660, Note_on_c, 4, 72, 79
5, 54700, Note_on_c, 4, 72, 0
5, 54720, Note_on_c, 4, 72, 79
5, 54800, Note_on_c, 4, 72, 0
5, 54840, Note_on_c, 4, 72, 79
5, 54920, Note_on_c, 4, 72, 0
5, 54960, Note_on_c, 4, 72, 79
5, 55040, Note_on_c, 4, 72, 0
5, 55080, Note_on_c, 4, 72, 79
5, 55360, Note_on_c, 4, 72, 0
5, 55440, Note_on_c, 4, 69, 79
5, 55480, Note_on_c, 4, 69, 0
5, 55500, Note_on_c, 4, 72, 79
5, 55620, Note_on_c, 4, 72, 0
5, 55680, Note_on_c, 4, 72, 79
5, 55760, Note_on_c, 4, 72, 0
5, 55800, Note_on_c, 4, 72, 79
5, 56000, Note_on_c, 4, 72, 0
5, 56040, Note_on_c, 4, 74, 79
5, 56320, Note_on_c, 4, 74, 0
5, 56400, Note_on_c, 4, 69, 79
5, 56480, Note_on_c, 4, 69, 0
5, 56520, Note_on_c, 4, 70, 79
5, 56720, Note_on_c, 4, 70, 0
5, 56760, Note_on_c, 4, 70, 79
5, 56840, Note_on_c, 4, 70, 0
5, 56880, Note_on_c, 4, 70, 79
5, 56960, Note_on_c, 4, 70, 0
5, 57000, Note_on_c, 4, 70, 79
5, 57080, Note_on_c, 4, 70, 0
5, 57120, Note_on_c, 4, 70, 79
5, 57200, Note_on_c, 4, 70, 0
5, 57240, Note_on_c, 4, 69, 79
5, 57320, Note_on_c, 4, 69, 0
5, 57360, Note_on_c, 4, 70, 79
5, 57440, Note_on_c, 4, 70, 0
5, 57480, Note_on_c, 4, 69, 79
5, 57560, Note_on_c, 4, 69, 0
5, 57600, Note_on_c, 4, 72, 79
5, 57680, Note_on_c, 4, 72, 0
5, 57720, Note_on_c, 4, 65, 79
5, 57800, Note_on_c, 4, 65, 0
5, 57840, Note_on_c, 4, 67, 79
5, 57920, Note_on_c, 4, 67, 0
5, 57960, Note_on_c, 4, 67, 79
5, 58240, Note_on_c, 4, 67, 0
5, 58320, Note_on_c, 4, 69, 79
5, 58400, Note_on_c, 4, 69, 0
5, 58440, Note_on_c, 4, 72, 79
5, 58520, Note_on_c, 4, 72, 0
5, 58560, Note_on_c, 4, 72, 79
5, 58640, Note_on_c, 4, 72, 0
5, 58680, Note_on_c, 4, 72, 79
5, 58760, Note_on_c, 4, 72, 0
5, 58800, Note_on_c, 4, 69, 79
5, 58880, Note_on_c, 4, 69, 0
5, 58920, Note_on_c, 4, 74, 79
5, 59200, Note_on_c, 4, 74, 0
5, 59400, Note_on_c, 4, 72, 79
5, 59520, Note_on_c, 4, 72, 0
5, 59520, Note_on_c, 4, 72, 79
5, 59600, Note_on_c, 4, 72, 0
5, 59640, Note_on_c, 4, 72, 79
5, 59720, Note_on_c, 4, 72, 0
5, 59760, Note_on_c, 4, 74, 79
5, 59840, Note_on_c, 4, 74, 0
5, 59880, Note_on_c, 4, 72, 79
5, 60120, Note_on_c, 4, 72, 0
5, 60120, Note_on_c, 4, 69, 79
5, 60200, Note_on_c, 4, 69, 0
5, 60240, Note_on_c, 4, 69, 79
5, 60320, Note_on_c, 4, 69, 0
5, 60360, Note_on_c, 4, 69, 79
5, 60440, Note_on_c, 4, 69, 0
5, 60480, Note_on_c, 4, 70, 79
5, 60560, Note_on_c, 4, 70, 0
5, 60600, Note_on_c, 4, 69, 79
5, 60680, Note_on_c, 4, 69, 0
5, 60720, Note_on_c, 4, 70, 79
5, 60800, Note_on_c, 4, 70, 0
5, 60840, Note_on_c, 4, 69, 79
5, 60920, Note_on_c, 4, 69, 0
5, 60960, Note_on_c, 4, 70, 79
5, 61120, Note_on_c, 4, 70, 0
5, 61440, Note_on_c, 4, 70, 79
5, 61520, Note_on_c, 4, 70, 0
5, 61560, Note_on_c, 4, 70, 79
5, 61640, Note_on_c, 4, 70, 0
5, 61680, Note_on_c, 4, 70, 79
5, 61720, Note_on_c, 4, 70, 0
5, 61740, Note_on_c, 4, 69, 79
5, 61780, Note_on_c, 4, 69, 0
5, 61800, Note_on_c, 4, 70, 95
5, 61880, Note_on_c, 4, 70, 0
5, 61920, Note_on_c, 4, 72, 95
5, 62235, Note_on_c, 4, 72, 0
5, 62580, Note_on_c, 4, 60, 79
5, 62620, Note_on_c, 4, 60, 0
5, 62640, Note_on_c, 4, 69, 79
5, 62720, Note_on_c, 4, 69, 0
5, 62760, Note_on_c, 4, 69, 79
5, 62840, Note_on_c, 4, 69, 0
5, 62880, Note_on_c, 4, 69, 79
5, 63040, Note_on_c, 4, 69, 0
5, 63120, Note_on_c, 4, 65, 79
5, 63240, Note_on_c, 4, 65, 0
5, 63300, Note_on_c, 4, 60, 79
5, 63340, Note_on_c, 4, 60, 0
5, 63360, Note_on_c, 4, 67, 79
5, 63440, Note_on_c, 4, 67, 0
5, 63480, Note_on_c, 4, 67, 79
5, 63560, Note_on_c, 4, 67, 0
5, 63600, Note_on_c, 4, 65, 79
5, 63680, Note_on_c, 4, 65, 0
5, 63720, Note_on_c, 4, 69, 79
5, 64000, Note_on_c, 4, 69, 0
5, 64080, Note_on_c, 4, 65, 79
5, 64240, Note_on_c, 4, 65, 0
5, 64500, Note_on_c, 4, 60, 79
5, 64540, Note_on_c, 4, 60, 0
5, 64560, Note_on_c, 4, 69, 79
5, 64640, Note_on_c, 4, 69, 0
5, 64680, Note_on_c, 4, 69, 79
5, 64760, Note_on_c, 4, 69, 0
5, 64800, Note_on_c, 4, 69, 79
5, 64840, Note_on_c, 4, 69, 0
5, 64860, Note_on_c, 4, 67, 79
5, 64900, Note_on_c, 4, 67, 0
5, 64920, Note_on_c, 4, 65, 79
5, 64960, Note_on_c, 4, 65, 0
5, 64980, Note_on_c, 4, 65, 79
5, 65120, Note_on_c, 4, 65, 0
5, 65160, Note_on_c, 4, 65, 79
5, 65240, Note_on_c, 4, 65, 0
5, 65280, Note_on_c, 4, 67, 79
5, 65360, Note_on_c, 4, 67, 0
5, 65400, Note_on_c, 4, 67, 79
5, 65480, Note_on_c, 4, 67, 0
5, 65520, Note_on_c, 4, 65, 79
5, 65600, Note_on_c, 4, 65, 0
5, 65640, Note_on_c, 4, 69, 79
5, 65880, Note_on_c, 4, 69, 0
5, 65940, Note_on_c, 4, 60, 79
5, 65980, Note_on_c, 4, 60, 0
5, 66000, Note_on_c, 4, 69, 79
5, 66160, Note_on_c, 4, 69, 0
5, 66240, Note_on_c, 4, 69, 79
5, 66400, Note_on_c, 4, 69, 0
5, 66480, Note_on_c, 4, 65, 79
5, 66560, Note_on_c, 4, 65, 0
5, 66600, Note_on_c, 4, 65, 79
5, 66960, Note_on_c, 4, 65, 0
5, 67080, Note_on_c, 4, 60, 79
5, 67160, Note_on_c, 4, 60, 0
5, 67200, Note_on_c, 4, 70, 79
5, 67280, Note_on_c, 4, 70, 0
5, 67320, Note_on_c, 4, 70, 79
5, 67400, Note_on_c, 4, 70, 0
5, 67440, Note_on_c, 4, 69, 79
5, 67520, Note_on_c, 4, 69, 0
5, 67560, Note_on_c, 4, 70, 79
5, 67760, Note_on_c, 4, 70, 0
5, 67800, Note_on_c, 4, 69, 79
5, 67880, Note_on_c, 4, 69, 0
5, 67920, Note_on_c, 4, 65, 79
5, 68000, Note_on_c, 4, 65, 0
5, 68040, Note_on_c, 4, 69, 79
5, 68100, Note_on_c, 4, 69, 0
5, 68100, Note_on_c, 4, 67, 79
5, 68160, Note_on_c, 4, 67, 0
5, 68160, Note_on_c, 4, 65, 79
5, 68320, Note_on_c, 4, 65, 0
5, 78060, Note_on_c, 4, 69, 79
5, 78100, Note_on_c, 4, 69, 0
5, 78120, Note_on_c, 4, 72, 79
5, 78160, Note_on_c, 4, 72, 0
5, 78180, Note_on_c, 4, 72, 79
5, 78220, Note_on_c, 4, 72, 0
5, 78240, Note_on_c, 4, 74, 79
5, 78320, Note_on_c, 4, 74, 0
5, 78360, Note_on_c, 4, 72, 79
5, 78440, Note_on_c, 4, 72, 0
5, 78600, Note_on_c, 4, 72, 79
5, 78680, Note_on_c, 4, 72, 0
5, 78720, Note_on_c, 4, 72, 79
5, 78745, Note_on_c, 4, 72, 0
5, 78760, Note_on_c, 4, 72, 79
5, 78785, Note_on_c, 4, 72, 0
5, 78800, Note_on_c, 4, 72, 79
5, 78825, Note_on_c, 4, 72, 0
5, 78840, Note_on_c, 4, 72, 79
5, 78920, Note_on_c, 4, 72, 0
5, 78960, Note_on_c, 4, 69, 79
5, 79040, Note_on_c, 4, 69, 0
5, 79080, Note_on_c, 4, 74, 79
5, 79360, Note_on_c, 4, 74, 0
5, 79560, Note_on_c, 4, 74, 79
5, 79600, Note_on_c, 4, 74, 0
5, 79620, Note_on_c, 4, 74, 79
5, 79660, Note_on_c, 4, 74, 0
5, 79680, Note_on_c, 4, 74, 79
5, 79760, Note_on_c, 4, 74, 0
5, 79800, Note_on_c, 4, 74, 79
5, 79880, Note_on_c, 4, 74, 0
5, 79920, Note_on_c, 4, 74, 79
5, 80000, Note_on_c, 4, 74, 0
5, 80040, Note_on_c, 4, 74, 79
5, 80240, Note_on_c, 4, 74, 0
5, 80280, Note_on_c, 4, 72, 79
5, 80520, Note_on_c, 4, 72, 0
5, 80580, Note_on_c, 4, 72, 79
5, 80680, Note_on_c, 4, 72, 0
5, 80700, Note_on_c, 4, 72, 79
5, 80780, Note_on_c, 4, 72, 0
5, 80820, Note_on_c, 4, 72, 79
5, 80920, Note_on_c, 4, 72, 0
5, 80940, Note_on_c, 4, 69, 79
5, 81020, Note_on_c, 4, 69, 0
5, 81060, Note_on_c, 4, 74, 79
5, 81280, Note_on_c, 4, 74, 0
5, 81360, Note_on_c, 4, 72, 79
5, 81400, Note_on_c, 4, 72, 0
5, 81420, Note_on_c, 4, 70, 79
5, 81460, Note_on_c, 4, 70, 0
5, 81480, Note_on_c, 4, 69, 79
5, 81520, Note_on_c, 4, 69, 0
5, 81540, Note_on_c, 4, 69, 79
5, 81580, Note_on_c, 4, 69, 0
5, 81600, Note_on_c, 4, 70, 79
5, 81640, Note_on_c, 4, 70, 0
5, 81660, Note_on_c, 4, 72, 79
5, 81740, Note_on_c, 4, 72, 0
5, 81780, Note_on_c, 4, 69, 79
5, 81820, Note_on_c, 4, 69, 0
5, 81840, Note_on_c, 4, 72, 79
5, 81960, Note_on_c, 4, 69, 79
5, 82020, Note_on_c, 4, 69, 0
5, 82020, Note_on_c, 4, 67, 79
5, 82080, Note_on_c, 4, 67, 0
5, 82080, Note_on_c, 4, 72, 0
5, 82080, Note_on_c, 4, 65, 79
5, 82400, Note_on_c, 4, 65, 0
5, 82440, Note_on_c, 4, 65, 95
5, 82520, Note_on_c, 4, 65, 0
5, 82560, Note_on_c, 4, 74, 95
5, 82640, Note_on_c, 4, 74, 0
5, 82680, Note_on_c, 4, 72, 95
5, 82760, Note_on_c, 4, 72, 0
5, 82800, Note_on_c, 4, 70, 95
5, 82880, Note_on_c, 4, 70, 0
5, 82920, Note_on_c, 4, 72, 95
5, 83200, Note_on_c, 4, 72, 0
5, 83280, Note_on_c, 4, 74, 95
5, 83440, Note_on_c, 4, 74, 0
5, 83760, Note_on_c, 4, 69, 95
5, 83820, Note_on_c, 4, 69, 0
5, 83820, Note_on_c, 4, 67, 95
5, 83880, Note_on_c, 4, 67, 0
5, 83880, Note_on_c, 4, 69, 95
5, 84000, Note_on_c, 4, 69, 0
5, 85620, Note_on_c, 4, 60, 79
5, 85660, Note_on_c, 4, 60, 0
5, 85680, Note_on_c, 4, 69, 79
5, 85760, Note_on_c, 4, 69, 0
5, 85800, Note_on_c, 4, 69, 79
5, 85880, Note_on_c, 4, 69, 0
5, 85920, Note_on_c, 4, 69, 79
5, 86080, Note_on_c, 4, 69, 0
5, 86160, Note_on_c, 4, 65, 79
5, 86280, Note_on_c, 4, 65, 0
5, 86340, Note_on_c, 4, 60, 79
5, 86380, Note_on_c, 4, 60, 0
5, 86400, Note_on_c, 4, 67, 79
5, 86480, Note_on_c, 4, 67, 0
5, 86520, Note_on_c, 4, 67, 79
5, 86600, Note_on_c, 4, 67, 0
5, 86640, Note_on_c, 4, 65, 79
5, 86720, Note_on_c, 4, 65, 0
5, 86760, Note_on_c, 4, 69, 79
5, 87040, Note_on_c, 4, 69, 0
5, 87120, Note_on_c, 4, 65, 79
5, 87280, Note_on_c, 4, 65, 0
5, 87540, Note_on_c, 4, 60, 79
5, 87580, Note_on_c, 4, 60, 0
5, 87600, Note_on_c, 4, 69, 79
5, 87680, Note_on_c, 4, 69, 0
5, 87720, Note_on_c, 4, 69, 79
5, 87800, Note_on_c, 4, 69, 0
5, 87840, Note_on_c, 4, 69, 79
5, 87880, Note_on_c, 4, 69, 0
5, 87900, Note_on_c, 4, 67, 79
5, 87940, Note_on_c, 4, 67, 0
5, 87960, Note_on_c, 4, 65, 79
5, 88000, Note_on_c, 4, 65, 0
5, 88020, Note_on_c, 4, 65, 79
5, 88160, Note_on_c, 4, 65, 0
5, 88200, Note_on_c, 4, 65, 79
5, 88280, Note_on_c, 4, 65, 0
5, 88320, Note_on_c, 4, 67, 79
5, 88400, Note_on_c, 4, 67, 0
5, 88440, Note_on_c, 4, 67, 79
5, 88520, Note_on_c, 4, 67, 0
5, 88560, Note_on_c, 4, 65, 79
5, 88640, Note_on_c, 4, 65, 0
5, 88680, Note_on_c, 4, 69, 79
5, 88920, Note_on_c, 4, 69, 0
5, 88980, Note_on_c, 4, 60, 79
5, 89020, Note_on_c, 4, 60, 0
5, 89040, Note_on_c, 4, 69, 79
5, 89200, Note_on_c, 4, 69, 0
5, 89280, Note_on_c, 4, 69, 79
5, 89440, Note_on_c, 4, 69, 0
5, 89520, Note_on_c, 4, 65, 79
5, 89600, Note_on_c, 4, 65, 0
5, 89640, Note_on_c, 4, 65, 79
5, 90000, Note_on_c, 4, 65, 0
5, 90120, Note_on_c, 4, 60, 79
5, 90200, Note_on_c, 4, 60, 0
5, 90240, Note_on_c, 4, 70, 79
5, 90320, Note_on_c, 4, 70, 0
5, 90360, Note_on_c, 4, 70, 79
5, 90440, Note_on_c, 4, 70, 0
5, 90480, Note_on_c, 4, 69, 79
5, 90560, Note_on_c, 4, 69, 0
5, 90600, Note_on_c, 4, 70, 79
5, 90800, Note_on_c, 4, 70, 0
5, 90840, Note_on_c, 4, 69, 79
5, 90920, Note_on_c, 4, 69, 0
5, 90960, Note_on_c, 4, 65, 79
5, 91040, Note_on_c, 4, 65, 0
5, 91080, Note_on_c, 4, 69, 79
5, 91140, Note_on_c, 4, 69, 0
5, 91140, Note_on_c, 4, 67, 79
5, 91200, Note_on_c, 4, 67, 0
5, 91200, Note_on_c, 4, 65, 79
5, 91360, Note_on_c, 4, 65, 0
5, 93300, Note_on_c, 4, 60, 79
5, 93340, Note_on_c, 4, 60, 0
5, 93360, Note_on_c, 4, 69, 79
5, 93440, Note_on_c, 4, 69, 0
5, 93480, Note_on_c, 4, 69, 79
5, 93560, Note_on_c, 4, 69, 0
5, 93600, Note_on_c, 4, 69, 79
5, 93760, Note_on_c, 4, 69, 0
5, 93840, Note_on_c, 4, 65, 79
5, 93960, Note_on_c, 4, 65, 0
5, 94020, Note_on_c, 4, 60, 79
5, 94060, Note_on_c, 4, 60, 0
5, 94080, Note_on_c, 4, 67, 79
5, 94160, Note_on_c, 4, 67, 0
5, 94200, Note_on_c, 4, 67, 79
5, 94280, Note_on_c, 4, 67, 0
5, 94320, Note_on_c, 4, 65, 79
5, 94400, Note_on_c, 4, 65, 0
5, 94440, Note_on_c, 4, 69, 79
5, 94720, Note_on_c, 4, 69, 0
5, 94800, Note_on_c, 4, 65, 79
5, 94960, Note_on_c, 4, 65, 0
5, 95220, Note_on_c, 4, 60, 79
5, 95260, Note_on_c, 4, 60, 0
5, 95280, Note_on_c, 4, 69, 79
5, 95360, Note_on_c, 4, 69, 0
5, 95400, Note_on_c, 4, 69, 79
5, 95480, Note_on_c, 4, 69, 0
5, 95520, Note_on_c, 4, 69, 79
5, 95560, Note_on_c, 4, 69, 0
5, 95580, Note_on_c, 4, 67, 79
5, 95620, Note_on_c, 4, 67, 0
5, 95640, Note_on_c, 4, 65, 79
5, 95680, Note_on_c, 4, 65, 0
5, 95700, Note_on_c, 4, 65, 79
5, 95840, Note_on_c, 4, 65, 0
5, 95880, Note_on_c, 4, 65, 79
5, 95960, Note_on_c, 4, 65, 0
5, 96000, Note_on_c, 4, 67, 79
5, 96080, Note_on_c, 4, 67, 0
5, 96120, Note_on_c, 4, 67, 79
5, 96200, Note_on_c, 4, 67, 0
5, 96240, Note_on_c, 4, 65, 79
5, 96320, Note_on_c, 4, 65, 0
5, 96360, Note_on_c, 4, 69, 79
5, 96600, Note_on_c, 4, 69, 0
5, 96660, Note_on_c, 4, 60, 79
5, 96700, Note_on_c, 4, 60, 0
5, 96720, Note_on_c, 4, 69, 79
5, 96880, Note_on_c, 4, 69, 0
5, 96960, Note_on_c, 4, 69, 79
5, 97120, Note_on_c, 4, 69, 0
5, 97200, Note_on_c, 4, 65, 79
5, 97280, Note_on_c, 4, 65, 0
5, 97320, Note_on_c, 4, 65, 79
5, 97680, Note_on_c, 4, 65, 0
5, 97800, Note_on_c, 4, 60, 79
5, 97880, Note_on_c, 4, 60, 0
5, 97920, Note_on_c, 4, 70, 79
5, 98000, Note_on_c, 4, 70, 0
5, 98040, Note_on_c, 4, 70, 79
5, 98120, Note_on_c, 4, 70, 0
5, 98160, Note_on_c, 4, 69, 79
5, 98240, Note_on_c, 4, 69, 0
5, 98280, Note_on_c, 4, 70, 79
5, 98480, Note_on_c, 4, 70, 0
5, 98520, Note_on_c, 4, 69, 79
5, 98600, Note_on_c, 4, 69, 0
5, 98640, Note_on_c, 4, 65, 79
5, 98720, Note_on_c, 4, 65, 0
5, 98760, Note_on_c, 4, 69, 79
5, 98820, Note_on_c, 4, 69, 0
5, 98820, Note_on_c, 4, 67, 79
5, 98880, Note_on_c, 4, 67, 0
5, 98880, Note_on_c, 4, 65, 79
5, 99515, Note_on_c, 4, 65, 0
5, 99515, End_track
6, 0, Start_track
6, 0, MIDI_port, 0
6, 0, Title_t, "BackVocal"
6, 0, Program_c, 5, 54
6, 0, Control_c, 5, 7, 83
6, 482, Control_c, 5, 0, 0
6, 487, Control_c, 5, 32, 0
6, 497, Control_c, 5, 1, 0
6, 507, Control_c, 5, 10, 27
6, 512, Control_c, 5, 11, 127
6, 517, Control_c, 5, 64, 0
6, 522, Control_c, 5, 91, 0
6, 527, Control_c, 5, 93, 0
6, 532, Pitch_bend_c, 5, 8192
6, 1200, Control_c, 5, 7, 83
6, 21000, Note_on_c, 5, 60, 63
6, 21000, Note_on_c, 5, 64, 63
6, 21080, Note_on_c, 5, 64, 0
6, 21080, Note_on_c, 5, 60, 0
6, 21120, Note_on_c, 5, 67, 79
6, 21120, Note_on_c, 5, 62, 79
6, 21120, Note_on_c, 5, 70, 79
6, 21200, Note_on_c, 5, 70, 0
6, 21200, Note_on_c, 5, 62, 0
6, 21200, Note_on_c, 5, 67, 0
6, 21240, Note_on_c, 5, 67, 79
6, 21240, Note_on_c, 5, 62, 79
6, 21240, Note_on_c, 5, 70, 79
6, 21320, Note_on_c, 5, 70, 0
6, 21320, Note_on_c, 5, 62, 0
6, 21320, Note_on_c, 5, 67, 0
6, 21360, Note_on_c, 5, 65, 79
6, 21360, Note_on_c, 5, 60, 79
6, 21360, Note_on_c, 5, 69, 79
6, 21440, Note_on_c, 5, 69, 0
6, 21440, Note_on_c, 5, 60, 0
6, 21440, Note_on_c, 5, 65, 0
6, 21480, Note_on_c, 5, 67, 79
6, 21480, Note_on_c, 5, 62, 79
6, 21480, Note_on_c, 5, 70, 79
6, 21680, Note_on_c, 5, 70, 0
6, 21680, Note_on_c, 5, 62, 0
6, 21680, Note_on_c, 5, 67, 0
6, 21720, Note_on_c, 5, 65, 79
6, 21720, Note_on_c, 5, 60, 79
6, 21720, Note_on_c, 5, 69, 79
6, 21800, Note_on_c, 5, 69, 0
6, 21800, Note_on_c, 5, 60, 0
6, 21800, Note_on_c, 5, 65, 0
6, 21840, Note_on_c, 5, 65, 79
6, 21840, Note_on_c, 5, 69, 79
6, 21920, Note_on_c, 5, 69, 0
6, 21920, Note_on_c, 5, 65, 0
6, 21960, Note_on_c, 5, 65, 79
6, 21960, Note_on_c, 5, 69, 79
6, 22000, Note_on_c, 5, 69, 0
6, 22020, Note_on_c, 5, 65, 0
6, 22020, Note_on_c, 5, 65, 79
6, 22020, Note_on_c, 5, 67, 79
6, 22060, Note_on_c, 5, 67, 0
6, 22080, Note_on_c, 5, 65, 0
6, 22080, Note_on_c, 5, 69, 79
6, 22080, Note_on_c, 5, 65, 79
6, 23675, Note_on_c, 5, 65, 0
6, 23675, Note_on_c, 5, 69, 0
6, 36360, Note_on_c, 5, 60, 79
6, 36440, Note_on_c, 5, 60, 0
6, 36480, Note_on_c, 5, 67, 79
6, 36560, Note_on_c, 5, 67, 0
6, 36600, Note_on_c, 5, 67, 79
6, 36680, Note_on_c, 5, 67, 0
6, 36720, Note_on_c, 5, 65, 79
6, 36800, Note_on_c, 5, 65, 0
6, 36840, Note_on_c, 5, 67, 79
6, 37040, Note_on_c, 5, 67, 0
6, 37080, Note_on_c, 5, 65, 79
6, 37160, Note_on_c, 5, 65, 0
6, 37200, Note_on_c, 5, 60, 79
6, 37320, Note_on_c, 5, 60, 0
6, 37320, Note_on_c, 5, 58, 79
6, 37400, Note_on_c, 5, 58, 0
6, 37440, Note_on_c, 5, 57, 79
6, 38075, Note_on_c, 5, 57, 0
6, 51720, Note_on_c, 5, 60, 63
6, 51720, Note_on_c, 5, 64, 63
6, 51800, Note_on_c, 5, 64, 0
6, 51800, Note_on_c, 5, 60, 0
6, 51840, Note_on_c, 5, 67, 79
6, 51840, Note_on_c, 5, 62, 79
6, 51840, Note_on_c, 5, 70, 79
6, 51920, Note_on_c, 5, 70, 0
6, 51920, Note_on_c, 5, 62, 0
6, 51920, Note_on_c, 5, 67, 0
6, 51960, Note_on_c, 5, 67, 79
6, 51960, Note_on_c, 5, 62, 79
6, 51960, Note_on_c, 5, 70, 79
6, 52040, Note_on_c, 5, 70, 0
6, 52040, Note_on_c, 5, 62, 0
6, 52040, Note_on_c, 5, 67, 0
6, 52080, Note_on_c, 5, 65, 79
6, 52080, Note_on_c, 5, 60, 79
6, 52080, Note_on_c, 5, 69, 79
6, 52160, Note_on_c, 5, 69, 0
6, 52160, Note_on_c, 5, 60, 0
6, 52160, Note_on_c, 5, 65, 0
6, 52200, Note_on_c, 5, 67, 79
6, 52200, Note_on_c, 5, 62, 79
6, 52200, Note_on_c, 5, 70, 79
6, 52400, Note_on_c, 5, 70, 0
6, 52400, Note_on_c, 5, 62, 0
6, 52400, Note_on_c, 5, 67, 0
6, 52440, Note_on_c, 5, 65, 79
6, 52440, Note_on_c, 5, 60, 79
6, 52440, Note_on_c, 5, 69, 79
6, 52520, Note_on_c, 5, 69, 0
6, 52520, Note_on_c, 5, 60, 0
6, 52520, Note_on_c, 5, 65, 0
6, 52560, Note_on_c, 5, 65, 79
6, 52560, Note_on_c, 5, 69, 79
6, 52640, Note_on_c, 5, 69, 0
6, 52640, Note_on_c, 5, 65, 0
6, 52680, Note_on_c, 5, 65, 79
6, 52680, Note_on_c, 5, 69, 79
6, 52720, Note_on_c, 5, 69, 0
6, 52740, Note_on_c, 5, 65, 0
6, 52740, Note_on_c, 5, 65, 79
6, 52740, Note_on_c, 5, 67, 79
6, 52780, Note_on_c, 5, 67, 0
6, 52800, Note_on_c, 5, 65, 0
6, 52800, Note_on_c, 5, 69, 79
6, 52800, Note_on_c, 5, 65, 79
6, 54395, Note_on_c, 5, 65, 0
6, 54395, Note_on_c, 5, 69, 0
6, 61440, Note_on_c, 5, 62, 79
6, 61520, Note_on_c, 5, 62, 0
6, 61560, Note_on_c, 5, 65, 79
6, 61640, Note_on_c, 5, 65, 0
6, 61680, Note_on_c, 5, 70, 79
6, 61720, Note_on_c, 5, 70, 0
6, 61740, Note_on_c, 5, 69, 79
6, 61780, Note_on_c, 5, 69, 0
6, 61800, Note_on_c, 5, 70, 79
6, 61900, Note_on_c, 5, 70, 0
6, 61920, Note_on_c, 5, 70, 79
6, 62235, Note_on_c, 5, 70, 0
6, 67080, Note_on_c, 5, 60, 79
6, 67160, Note_on_c, 5, 60, 0
6, 67200, Note_on_c, 5, 67, 79
6, 67280, Note_on_c, 5, 67, 0
6, 67320, Note_on_c, 5, 67, 79
6, 67400, Note_on_c, 5, 67, 0
6, 67440, Note_on_c, 5, 65, 79
6, 67520, Note_on_c, 5, 65, 0
6, 67560, Note_on_c, 5, 67, 79
6, 67760, Note_on_c, 5, 67, 0
6, 67800, Note_on_c, 5, 65, 79
6, 67880, Note_on_c, 5, 65, 0
6, 67920, Note_on_c, 5, 60, 79
6, 68040, Note_on_c, 5, 60, 0
6, 68040, Note_on_c, 5, 58, 79
6, 68120, Note_on_c, 5, 58, 0
6, 68160, Note_on_c, 5, 57, 79
6, 68795, Note_on_c, 5, 57, 0
6, 82560, Note_on_c, 5, 70, 79
6, 82560, Note_on_c, 5, 67, 79
6, 82560, Note_on_c, 5, 74, 79
6, 82640, Note_on_c, 5, 74, 0
6, 82640, Note_on_c, 5, 67, 0
6, 82640, Note_on_c, 5, 70, 0
6, 82680, Note_on_c, 5, 70, 79
6, 82680, Note_on_c, 5, 67, 79
6, 82680, Note_on_c, 5, 72, 79
6, 82760, Note_on_c, 5, 72, 0
6, 82760, Note_on_c, 5, 67, 0
6, 82760, Note_on_c, 5, 70, 0
6, 82800, Note_on_c, 5, 67, 79
6, 82800, Note_on_c, 5, 65, 79
6, 82800, Note_on_c, 5, 70, 79
6, 82880, Note_on_c, 5, 70, 0
6, 82880, Note_on_c, 5, 65, 0
6, 82880, Note_on_c, 5, 67, 0
6, 82920, Note_on_c, 5, 70, 79
6, 82920, Note_on_c, 5, 65, 79
6, 82920, Note_on_c, 5, 72, 79
6, 83200, Note_on_c, 5, 72, 0
6, 83200, Note_on_c, 5, 65, 0
6, 83200, Note_on_c, 5, 70, 0
6, 83280, Note_on_c, 5, 70, 79
6, 83280, Note_on_c, 5, 65, 79
6, 83280, Note_on_c, 5, 74, 79
6, 83440, Note_on_c, 5, 74, 0
6, 83440, Note_on_c, 5, 65, 0
6, 83440, Note_on_c, 5, 70, 0
6, 83760, Note_on_c, 5, 65, 79
6, 83760, Note_on_c, 5, 60, 79
6, 85115, Note_on_c, 5, 60, 0
6, 85115, Note_on_c, 5, 65, 0
6, 93300, Note_on_c, 5, 60, 79
6, 93340, Note_on_c, 5, 60, 0
6, 93360, Note_on_c, 5, 69, 79
6, 93440, Note_on_c, 5, 69, 0
6, 93480, Note_on_c, 5, 69, 79
6, 93560, Note_on_c, 5, 69, 0
6, 93600, Note_on_c, 5, 69, 79
6, 93760, Note_on_c, 5, 69, 0
6, 93840, Note_on_c, 5, 65, 79
6, 93960, Note_on_c, 5, 65, 0
6, 94020, Note_on_c, 5, 60, 79
6, 94060, Note_on_c, 5, 60, 0
6, 94080, Note_on_c, 5, 67, 79
6, 94160, Note_on_c, 5, 67, 0
6, 94200, Note_on_c, 5, 67, 79
6, 94280, Note_on_c, 5, 67, 0
6, 94320, Note_on_c, 5, 65, 79
6, 94400, Note_on_c, 5, 65, 0
6, 94440, Note_on_c, 5, 69, 79
6, 94720, Note_on_c, 5, 69, 0
6, 94800, Note_on_c, 5, 65, 79
6, 94960, Note_on_c, 5, 65, 0
6, 95220, Note_on_c, 5, 60, 79
6, 95260, Note_on_c, 5, 60, 0
6, 95280, Note_on_c, 5, 69, 79
6, 95360, Note_on_c, 5, 69, 0
6, 95400, Note_on_c, 5, 69, 79
6, 95480, Note_on_c, 5, 69, 0
6, 95520, Note_on_c, 5, 69, 79
6, 95560, Note_on_c, 5, 69, 0
6, 95580, Note_on_c, 5, 67, 79
6, 95620, Note_on_c, 5, 67, 0
6, 95640, Note_on_c, 5, 65, 79
6, 95680, Note_on_c, 5, 65, 0
6, 95700, Note_on_c, 5, 65, 79
6, 95840, Note_on_c, 5, 65, 0
6, 95880, Note_on_c, 5, 65, 79
6, 95960, Note_on_c, 5, 65, 0
6, 96000, Note_on_c, 5, 67, 79
6, 96080, Note_on_c, 5, 67, 0
6, 96120, Note_on_c, 5, 67, 79
6, 96200, Note_on_c, 5, 67, 0
6, 96240, Note_on_c, 5, 65, 79
6, 96320, Note_on_c, 5, 65, 0
6, 96360, Note_on_c, 5, 69, 79
6, 96600, Note_on_c, 5, 69, 0
6, 96660, Note_on_c, 5, 60, 79
6, 96700, Note_on_c, 5, 60, 0
6, 96720, Note_on_c, 5, 69, 79
6, 96880, Note_on_c, 5, 69, 0
6, 96960, Note_on_c, 5, 69, 79
6, 97120, Note_on_c, 5, 69, 0
6, 97200, Note_on_c, 5, 65, 79
6, 97280, Note_on_c, 5, 65, 0
6, 97320, Note_on_c, 5, 65, 79
6, 97680, Note_on_c, 5, 65, 0
6, 97800, Note_on_c, 5, 58, 79
6, 97800, Note_on_c, 5, 60, 79
6, 97880, Note_on_c, 5, 60, 0
6, 97880, Note_on_c, 5, 58, 0
6, 97920, Note_on_c, 5, 67, 79
6, 97920, Note_on_c, 5, 70, 79
6, 98000, Note_on_c, 5, 70, 0
6, 98000, Note_on_c, 5, 67, 0
6, 98040, Note_on_c, 5, 67, 79
6, 98040, Note_on_c, 5, 70, 79
6, 98120, Note_on_c, 5, 70, 0
6, 98120, Note_on_c, 5, 67, 0
6, 98160, Note_on_c, 5, 65, 79
6, 98160, Note_on_c, 5, 69, 79
6, 98240, Note_on_c, 5, 69, 0
6, 98240, Note_on_c, 5, 65, 0
6, 98280, Note_on_c, 5, 67, 79
6, 98280, Note_on_c, 5, 70, 79
6, 98480, Note_on_c, 5, 70, 0
6, 98480, Note_on_c, 5, 67, 0
6, 98520, Note_on_c, 5, 65, 79
6, 98520, Note_on_c, 5, 69, 79
6, 98600, Note_on_c, 5, 69, 0
6, 98600, Note_on_c, 5, 65, 0
6, 98640, Note_on_c, 5, 60, 79
6, 98640, Note_on_c, 5, 65, 79
6, 98720, Note_on_c, 5, 65, 0
6, 98720, Note_on_c, 5, 60, 0
6, 98760, Note_on_c, 5, 65, 79
6, 98760, Note_on_c, 5, 69, 79
6, 98800, Note_on_c, 5, 69, 0
6, 98800, Note_on_c, 5, 65, 0
6, 98820, Note_on_c, 5, 67, 79
6, 98820, Note_on_c, 5, 69, 79
6, 98860, Note_on_c, 5, 69, 0
6, 98860, Note_on_c, 5, 67, 0
6, 98880, Note_on_c, 5, 65, 79
6, 98880, Note_on_c, 5, 69, 63
6, 99515, Note_on_c, 5, 69, 0
6, 99515, Note_on_c, 5, 65, 0
6, 99515, End_track
7, 0, Start_track
7, 0, MIDI_port, 0
7, 0, Title_t, "Rhythm&SE"
7, 0, Program_c, 9, 0
7, 0, Control_c, 9, 7, 77
7, 482, Control_c, 9, 0, 0
7, 487, Control_c, 9, 32, 0
7, 497, Control_c, 9, 1, 0
7, 507, Control_c, 9, 10, 64
7, 512, Control_c, 9, 11, 127
7, 517, Control_c, 9, 64, 0
7, 522, Control_c, 9, 91, 33
7, 527, Control_c, 9, 93, 0
7, 532, Pitch_bend_c, 9, 8192
7, 1200, Control_c, 9, 7, 77
7, 1200, Control_c, 9, 91, 33
7, 1200, Note_on_c, 9, 63, 106
7, 1320, Note_on_c, 9, 63, 0
7, 1320, Note_on_c, 9, 63, 106
7, 1480, Note_on_c, 9, 63, 0
7, 1680, Note_on_c, 9, 63, 106
7, 1800, Note_on_c, 9, 64, 106
7, 1810, Note_on_c, 9, 64, 0
7, 1920, Note_on_c, 9, 63, 0
7, 2160, Note_on_c, 9, 63, 106
7, 2280, Note_on_c, 9, 63, 0
7, 2280, Note_on_c, 9, 63, 106
7, 2440, Note_on_c, 9, 63, 0
7, 2640, Note_on_c, 9, 63, 106
7, 2760, Note_on_c, 9, 64, 106
7, 2770, Note_on_c, 9, 64, 0
7, 2800, Note_on_c, 9, 63, 0
7, 3120, Note_on_c, 9, 63, 106
7, 3240, Note_on_c, 9, 63, 0
7, 3240, Note_on_c, 9, 63, 106
7, 3450, Note_on_c, 9, 63, 0
7, 3600, Note_on_c, 9, 63, 106
7, 3720, Note_on_c, 9, 64, 106
7, 3730, Note_on_c, 9, 64, 0
7, 3810, Note_on_c, 9, 63, 0
7, 4080, Note_on_c, 9, 63, 106
7, 4200, Note_on_c, 9, 63, 0
7, 4200, Note_on_c, 9, 63, 106
7, 4410, Note_on_c, 9, 63, 0
7, 4560, Note_on_c, 9, 63, 106
7, 4680, Note_on_c, 9, 64, 106
7, 4690, Note_on_c, 9, 64, 0
7, 4770, Note_on_c, 9, 63, 0
7, 5040, Note_on_c, 9, 63, 106
7, 5160, Note_on_c, 9, 63, 0
7, 5160, Note_on_c, 9, 63, 106
7, 5370, Note_on_c, 9, 63, 0
7, 5520, Note_on_c, 9, 63, 106
7, 5640, Note_on_c, 9, 64, 106
7, 5700, Note_on_c, 9, 64, 0
7, 5730, Note_on_c, 9, 63, 0
7, 6000, Note_on_c, 9, 63, 106
7, 6120, Note_on_c, 9, 63, 0
7, 6120, Note_on_c, 9, 63, 106
7, 6330, Note_on_c, 9, 63, 0
7, 6480, Note_on_c, 9, 63, 106
7, 6600, Note_on_c, 9, 64, 106
7, 6660, Note_on_c, 9, 64, 0
7, 6690, Note_on_c, 9, 63, 0
7, 6960, Note_on_c, 9, 63, 106
7, 7080, Note_on_c, 9, 63, 0
7, 7080, Note_on_c, 9, 63, 106
7, 7320, Note_on_c, 9, 63, 0
7, 7440, Note_on_c, 9, 63, 106
7, 7560, Note_on_c, 9, 64, 106
7, 7620, Note_on_c, 9, 64, 0
7, 7680, Note_on_c, 9, 63, 0
7, 8400, Note_on_c, 9, 63, 106
7, 8520, Note_on_c, 9, 64, 106
7, 8560, Note_on_c, 9, 64, 0
7, 8640, Note_on_c, 9, 63, 0
7, 8640, Note_on_c, 9, 42, 106
7, 8640, Note_on_c, 9, 54, 106
7, 8720, Note_on_c, 9, 54, 0
7, 8720, Note_on_c, 9, 42, 0
7, 8760, Note_on_c, 9, 42, 106
7, 8775, Note_on_c, 9, 42, 0
7, 8880, Note_on_c, 9, 42, 106
7, 8880, Note_on_c, 9, 63, 106
7, 8890, Note_on_c, 9, 63, 0
7, 8960, Note_on_c, 9, 42, 0
7, 9000, Note_on_c, 9, 42, 106
7, 9000, Note_on_c, 9, 63, 106
7, 9015, Note_on_c, 9, 63, 0
7, 9080, Note_on_c, 9, 42, 0
7, 9120, Note_on_c, 9, 42, 106
7, 9120, Note_on_c, 9, 54, 106
7, 9125, Note_on_c, 9, 54, 0
7, 9200, Note_on_c, 9, 42, 0
7, 9240, Note_on_c, 9, 42, 106
7, 9320, Note_on_c, 9, 42, 0
7, 9360, Note_on_c, 9, 63, 106
7, 9360, Note_on_c, 9, 42, 106
7, 9375, Note_on_c, 9, 42, 0
7, 9480, Note_on_c, 9, 42, 106
7, 9480, Note_on_c, 9, 64, 106
7, 9490, Note_on_c, 9, 64, 0
7, 9560, Note_on_c, 9, 42, 0
7, 9600, Note_on_c, 9, 63, 0
7, 9600, Note_on_c, 9, 42, 106
7, 9600, Note_on_c, 9, 54, 106
7, 9655, Note_on_c, 9, 54, 0
7, 9680, Note_on_c, 9, 42, 0
7, 9720, Note_on_c, 9, 42, 106
7, 9735, Note_on_c, 9, 42, 0
7, 9840, Note_on_c, 9, 42, 106
7, 9840, Note_on_c, 9, 63, 106
7, 9845, Note_on_c, 9, 63, 0
7, 9895, Note_on_c, 9, 42, 0
7, 9960, Note_on_c, 9, 42, 106
7, 9960, Note_on_c, 9, 63, 106
7, 9995, Note_on_c, 9, 63, 0
7, 10040, Note_on_c, 9, 42, 0
7, 10080, Note_on_c, 9, 42, 106
7, 10080, Note_on_c, 9, 54, 106
7, 10085, Note_on_c, 9, 54, 0
7, 10160, Note_on_c, 9, 42, 0
7, 10200, Note_on_c, 9, 42, 106
7, 10280, Note_on_c, 9, 42, 0
7, 10320, Note_on_c, 9, 42, 106
7, 10320, Note_on_c, 9, 63, 106
7, 10325, Note_on_c, 9, 63, 0
7, 10335, Note_on_c, 9, 42, 0
7, 10440, Note_on_c, 9, 42, 106
7, 10440, Note_on_c, 9, 64, 106
7, 10445, Note_on_c, 9, 64, 0
7, 10520, Note_on_c, 9, 42, 0
7, 10560, Note_on_c, 9, 42, 106
7, 10560, Note_on_c, 9, 54, 106
7, 10615, Note_on_c, 9, 54, 0
7, 10640, Note_on_c, 9, 42, 0
7, 10680, Note_on_c, 9, 42, 106
7, 10695, Note_on_c, 9, 42, 0
7, 10800, Note_on_c, 9, 42, 106
7, 10800, Note_on_c, 9, 63, 106
7, 10815, Note_on_c, 9, 63, 0
7, 10855, Note_on_c, 9, 42, 0
7, 10920, Note_on_c, 9, 42, 106
7, 10920, Note_on_c, 9, 63, 106
7, 10955, Note_on_c, 9, 63, 0
7, 11000, Note_on_c, 9, 42, 0
7, 11040, Note_on_c, 9, 42, 106
7, 11040, Note_on_c, 9, 54, 106
7, 11050, Note_on_c, 9, 54, 0
7, 11120, Note_on_c, 9, 42, 0
7, 11160, Note_on_c, 9, 42, 106
7, 11240, Note_on_c, 9, 42, 0
7, 11280, Note_on_c, 9, 42, 106
7, 11280, Note_on_c, 9, 63, 106
7, 11285, Note_on_c, 9, 63, 0
7, 11295, Note_on_c, 9, 42, 0
7, 11400, Note_on_c, 9, 42, 106
7, 11400, Note_on_c, 9, 64, 106
7, 11405, Note_on_c, 9, 64, 0
7, 11480, Note_on_c, 9, 42, 0
7, 11520, Note_on_c, 9, 42, 106
7, 11520, Note_on_c, 9, 54, 106
7, 11575, Note_on_c, 9, 54, 0
7, 11600, Note_on_c, 9, 42, 0
7, 11640, Note_on_c, 9, 42, 106
7, 11655, Note_on_c, 9, 42, 0
7, 11760, Note_on_c, 9, 42, 106
7, 11760, Note_on_c, 9, 63, 106
7, 11775, Note_on_c, 9, 63, 0
7, 11815, Note_on_c, 9, 42, 0
7, 11880, Note_on_c, 9, 42, 106
7, 11880, Note_on_c, 9, 63, 106
7, 11915, Note_on_c, 9, 63, 0
7, 11960, Note_on_c, 9, 42, 0
7, 12000, Note_on_c, 9, 42, 106
7, 12000, Note_on_c, 9, 54, 106
7, 12010, Note_on_c, 9, 54, 0
7, 12080, Note_on_c, 9, 42, 0
7, 12120, Note_on_c, 9, 42, 106
7, 12200, Note_on_c, 9, 42, 0
7, 12240, Note_on_c, 9, 42, 106
7, 12240, Note_on_c, 9, 63, 106
7, 12245, Note_on_c, 9, 63, 0
7, 12255, Note_on_c, 9, 42, 0
7, 12360, Note_on_c, 9, 42, 106
7, 12360, Note_on_c, 9, 64, 106
7, 12365, Note_on_c, 9, 64, 0
7, 12440, Note_on_c, 9, 42, 0
7, 12480, Note_on_c, 9, 42, 106
7, 12480, Note_on_c, 9, 54, 106
7, 12535, Note_on_c, 9, 54, 0
7, 12560, Note_on_c, 9, 42, 0
7, 12600, Note_on_c, 9, 42, 106
7, 12615, Note_on_c, 9, 42, 0
7, 12720, Note_on_c, 9, 42, 106
7, 12720, Note_on_c, 9, 63, 106
7, 12735, Note_on_c, 9, 63, 0
7, 12775, Note_on_c, 9, 42, 0
7, 12840, Note_on_c, 9, 42, 106
7, 12840, Note_on_c, 9, 63, 106
7, 12875, Note_on_c, 9, 63, 0
7, 12920, Note_on_c, 9, 42, 0
7, 12960, Note_on_c, 9, 42, 106
7, 12960, Note_on_c, 9, 54, 106
7, 12970, Note_on_c, 9, 54, 0
7, 13040, Note_on_c, 9, 42, 0
7, 13080, Note_on_c, 9, 42, 106
7, 13160, Note_on_c, 9, 42, 0
7, 13200, Note_on_c, 9, 42, 106
7, 13200, Note_on_c, 9, 63, 106
7, 13205, Note_on_c, 9, 63, 0
7, 13215, Note_on_c, 9, 42, 0
7, 13320, Note_on_c, 9, 42, 106
7, 13320, Note_on_c, 9, 64, 106
7, 13325, Note_on_c, 9, 64, 0
7, 13400, Note_on_c, 9, 42, 0
7, 13440, Note_on_c, 9, 42, 106
7, 13440, Note_on_c, 9, 54, 106
7, 13495, Note_on_c, 9, 54, 0
7, 13520, Note_on_c, 9, 42, 0
7, 13560, Note_on_c, 9, 42, 106
7, 13575, Note_on_c, 9, 42, 0
7, 13680, Note_on_c, 9, 42, 106
7, 13680, Note_on_c, 9, 63, 106
7, 13695, Note_on_c, 9, 63, 0
7, 13735, Note_on_c, 9, 42, 0
7, 13800, Note_on_c, 9, 42, 106
7, 13800, Note_on_c, 9, 63, 106
7, 13835, Note_on_c, 9, 63, 0
7, 13880, Note_on_c, 9, 42, 0
7, 13920, Note_on_c, 9, 42, 106
7, 13920, Note_on_c, 9, 54, 106
7, 13930, Note_on_c, 9, 54, 0
7, 14000, Note_on_c, 9, 42, 0
7, 14040, Note_on_c, 9, 42, 106
7, 14120, Note_on_c, 9, 42, 0
7, 14160, Note_on_c, 9, 42, 106
7, 14160, Note_on_c, 9, 63, 106
7, 14170, Note_on_c, 9, 63, 0
7, 14175, Note_on_c, 9, 42, 0
7, 14280, Note_on_c, 9, 42, 106
7, 14280, Note_on_c, 9, 64, 106
7, 14285, Note_on_c, 9, 64, 0
7, 14360, Note_on_c, 9, 42, 0
7, 14400, Note_on_c, 9, 42, 106
7, 14400, Note_on_c, 9, 54, 106
7, 14455, Note_on_c, 9, 54, 0
7, 14480, Note_on_c, 9, 42, 0
7, 14520, Note_on_c, 9, 42, 106
7, 14535, Note_on_c, 9, 42, 0
7, 14640, Note_on_c, 9, 42, 106
7, 14640, Note_on_c, 9, 63, 106
7, 14655, Note_on_c, 9, 63, 0
7, 14695, Note_on_c, 9, 42, 0
7, 14760, Note_on_c, 9, 42, 106
7, 14760, Note_on_c, 9, 63, 106
7, 14795, Note_on_c, 9, 63, 0
7, 14840, Note_on_c, 9, 42, 0
7, 14880, Note_on_c, 9, 42, 106
7, 14880, Note_on_c, 9, 54, 106
7, 14940, Note_on_c, 9, 54, 0
7, 14960, Note_on_c, 9, 42, 0
7, 15000, Note_on_c, 9, 42, 106
7, 15080, Note_on_c, 9, 42, 0
7, 15120, Note_on_c, 9, 42, 106
7, 15120, Note_on_c, 9, 63, 106
7, 15125, Note_on_c, 9, 63, 0
7, 15135, Note_on_c, 9, 42, 0
7, 15240, Note_on_c, 9, 42, 106
7, 15240, Note_on_c, 9, 64, 106
7, 15245, Note_on_c, 9, 64, 0
7, 15320, Note_on_c, 9, 42, 0
7, 15360, Note_on_c, 9, 42, 106
7, 15360, Note_on_c, 9, 54, 106
7, 15415, Note_on_c, 9, 54, 0
7, 15440, Note_on_c, 9, 42, 0
7, 15480, Note_on_c, 9, 42, 106
7, 15495, Note_on_c, 9, 42, 0
7, 15600, Note_on_c, 9, 42, 106
7, 15600, Note_on_c, 9, 63, 106
7, 15615, Note_on_c, 9, 63, 0
7, 15655, Note_on_c, 9, 42, 0
7, 15720, Note_on_c, 9, 42, 106
7, 15720, Note_on_c, 9, 63, 106
7, 15755, Note_on_c, 9, 63, 0
7, 15800, Note_on_c, 9, 42, 0
7, 15840, Note_on_c, 9, 42, 106
7, 15840, Note_on_c, 9, 54, 106
7, 15850, Note_on_c, 9, 54, 0
7, 15920, Note_on_c, 9, 42, 0
7, 15960, Note_on_c, 9, 42, 106
7, 16040, Note_on_c, 9, 42, 0
7, 16080, Note_on_c, 9, 42, 106
7, 16080, Note_on_c, 9, 63, 106
7, 16085, Note_on_c, 9, 63, 0
7, 16095, Note_on_c, 9, 42, 0
7, 16200, Note_on_c, 9, 42, 106
7, 16200, Note_on_c, 9, 64, 106
7, 16205, Note_on_c, 9, 64, 0
7, 16280, Note_on_c, 9, 42, 0
7, 16320, Note_on_c, 9, 42, 106
7, 16320, Note_on_c, 9, 54, 106
7, 16375, Note_on_c, 9, 54, 0
7, 16400, Note_on_c, 9, 42, 0
7, 16440, Note_on_c, 9, 42, 106
7, 16455, Note_on_c, 9, 42, 0
7, 16560, Note_on_c, 9, 42, 106
7, 16560, Note_on_c, 9, 63, 106
7, 16575, Note_on_c, 9, 63, 0
7, 16615, Note_on_c, 9, 42, 0
7, 16680, Note_on_c, 9, 42, 106
7, 16680, Note_on_c, 9, 63, 106
7, 16715, Note_on_c, 9, 63, 0
7, 16760, Note_on_c, 9, 42, 0
7, 16800, Note_on_c, 9, 42, 106
7, 16800, Note_on_c, 9, 54, 106
7, 16810, Note_on_c, 9, 54, 0
7, 16880, Note_on_c, 9, 42, 0
7, 16920, Note_on_c, 9, 42, 106
7, 17000, Note_on_c, 9, 42, 0
7, 17040, Note_on_c, 9, 42, 106
7, 17040, Note_on_c, 9, 63, 106
7, 17045, Note_on_c, 9, 63, 0
7, 17055, Note_on_c, 9, 42, 0
7, 17160, Note_on_c, 9, 42, 106
7, 17160, Note_on_c, 9, 64, 106
7, 17165, Note_on_c, 9, 64, 0
7, 17240, Note_on_c, 9, 42, 0
7, 17280, Note_on_c, 9, 42, 106
7, 17280, Note_on_c, 9, 54, 106
7, 17335, Note_on_c, 9, 54, 0
7, 17360, Note_on_c, 9, 42, 0
7, 17400, Note_on_c, 9, 42, 106
7, 17415, Note_on_c, 9, 42, 0
7, 17520, Note_on_c, 9, 42, 106
7, 17520, Note_on_c, 9, 63, 106
7, 17535, Note_on_c, 9, 63, 0
7, 17575, Note_on_c, 9, 42, 0
7, 17640, Note_on_c, 9, 42, 106
7, 17640, Note_on_c, 9, 63, 106
7, 17675, Note_on_c, 9, 63, 0
7, 17720, Note_on_c, 9, 42, 0
7, 17760, Note_on_c, 9, 42, 106
7, 17760, Note_on_c, 9, 54, 106
7, 17770, Note_on_c, 9, 54, 0
7, 17840, Note_on_c, 9, 42, 0
7, 17880, Note_on_c, 9, 42, 106
7, 17960, Note_on_c, 9, 42, 0
7, 18000, Note_on_c, 9, 42, 106
7, 18000, Note_on_c, 9, 63, 106
7, 18005, Note_on_c, 9, 63, 0
7, 18015, Note_on_c, 9, 42, 0
7, 18120, Note_on_c, 9, 42, 106
7, 18120, Note_on_c, 9, 64, 106
7, 18125, Note_on_c, 9, 64, 0
7, 18200, Note_on_c, 9, 42, 0
7, 18240, Note_on_c, 9, 42, 106
7, 18240, Note_on_c, 9, 54, 106
7, 18295, Note_on_c, 9, 54, 0
7, 18320, Note_on_c, 9, 42, 0
7, 18360, Note_on_c, 9, 42, 106
7, 18375, Note_on_c, 9, 42, 0
7, 18480, Note_on_c, 9, 42, 106
7, 18480, Note_on_c, 9, 63, 106
7, 18495, Note_on_c, 9, 63, 0
7, 18535, Note_on_c, 9, 42, 0
7, 18600, Note_on_c, 9, 42, 106
7, 18600, Note_on_c, 9, 63, 106
7, 18635, Note_on_c, 9, 63, 0
7, 18680, Note_on_c, 9, 42, 0
7, 18720, Note_on_c, 9, 42, 106
7, 18720, Note_on_c, 9, 54, 106
7, 18730, Note_on_c, 9, 54, 0
7, 18800, Note_on_c, 9, 42, 0
7, 18840, Note_on_c, 9, 42, 106
7, 18920, Note_on_c, 9, 42, 0
7, 18960, Note_on_c, 9, 42, 106
7, 18960, Note_on_c, 9, 63, 106
7, 18965, Note_on_c, 9, 63, 0
7, 18975, Note_on_c, 9, 42, 0
7, 19080, Note_on_c, 9, 42, 106
7, 19080, Note_on_c, 9, 64, 106
7, 19085, Note_on_c, 9, 64, 0
7, 19160, Note_on_c, 9, 42, 0
7, 19200, Note_on_c, 9, 42, 106
7, 19200, Note_on_c, 9, 54, 106
7, 19255, Note_on_c, 9, 54, 0
7, 19280, Note_on_c, 9, 42, 0
7, 19320, Note_on_c, 9, 42, 106
7, 19335, Note_on_c, 9, 42, 0
7, 19440, Note_on_c, 9, 42, 106
7, 19440, Note_on_c, 9, 63, 106
7, 19455, Note_on_c, 9, 63, 0
7, 19495, Note_on_c, 9, 42, 0
7, 19560, Note_on_c, 9, 42, 106
7, 19560, Note_on_c, 9, 63, 106
7, 19595, Note_on_c, 9, 63, 0
7, 19640, Note_on_c, 9, 42, 0
7, 19680, Note_on_c, 9, 42, 106
7, 19680, Note_on_c, 9, 54, 106
7, 19690, Note_on_c, 9, 54, 0
7, 19760, Note_on_c, 9, 42, 0
7, 19800, Note_on_c, 9, 42, 106
7, 19880, Note_on_c, 9, 42, 0
7, 19920, Note_on_c, 9, 42, 106
7, 19920, Note_on_c, 9, 63, 106
7, 19925, Note_on_c, 9, 63, 0
7, 19935, Note_on_c, 9, 42, 0
7, 20040, Note_on_c, 9, 42, 106
7, 20040, Note_on_c, 9, 64, 106
7, 20045, Note_on_c, 9, 64, 0
7, 20120, Note_on_c, 9, 42, 0
7, 20160, Note_on_c, 9, 42, 106
7, 20160, Note_on_c, 9, 54, 106
7, 20215, Note_on_c, 9, 54, 0
7, 20240, Note_on_c, 9, 42, 0
7, 20280, Note_on_c, 9, 42, 106
7, 20295, Note_on_c, 9, 42, 0
7, 20400, Note_on_c, 9, 42, 106
7, 20400, Note_on_c, 9, 63, 106
7, 20415, Note_on_c, 9, 63, 0
7, 20455, Note_on_c, 9, 42, 0
7, 20520, Note_on_c, 9, 42, 106
7, 20520, Note_on_c, 9, 63, 106
7, 20555, Note_on_c, 9, 63, 0
7, 20600, Note_on_c, 9, 42, 0
7, 20640, Note_on_c, 9, 42, 106
7, 20640, Note_on_c, 9, 54, 106
7, 20650, Note_on_c, 9, 54, 0
7, 20720, Note_on_c, 9, 42, 0
7, 20760, Note_on_c, 9, 42, 106
7, 20840, Note_on_c, 9, 42, 0
7, 20880, Note_on_c, 9, 42, 106
7, 20880, Note_on_c, 9, 63, 106
7, 20885, Note_on_c, 9, 63, 0
7, 20895, Note_on_c, 9, 42, 0
7, 21000, Note_on_c, 9, 42, 106
7, 21000, Note_on_c, 9, 64, 106
7, 21005, Note_on_c, 9, 64, 0
7, 21080, Note_on_c, 9, 42, 0
7, 21120, Note_on_c, 9, 42, 106
7, 21120, Note_on_c, 9, 54, 106
7, 21175, Note_on_c, 9, 54, 0
7, 21200, Note_on_c, 9, 42, 0
7, 21240, Note_on_c, 9, 42, 106
7, 21255, Note_on_c, 9, 42, 0
7, 21360, Note_on_c, 9, 42, 106
7, 21360, Note_on_c, 9, 63, 106
7, 21375, Note_on_c, 9, 63, 0
7, 21415, Note_on_c, 9, 42, 0
7, 21480, Note_on_c, 9, 42, 106
7, 21480, Note_on_c, 9, 63, 106
7, 21515, Note_on_c, 9, 63, 0
7, 21560, Note_on_c, 9, 42, 0
7, 21600, Note_on_c, 9, 42, 106
7, 21600, Note_on_c, 9, 54, 106
7, 21610, Note_on_c, 9, 54, 0
7, 21680, Note_on_c, 9, 42, 0
7, 21720, Note_on_c, 9, 42, 106
7, 21800, Note_on_c, 9, 42, 0
7, 21840, Note_on_c, 9, 42, 106
7, 21840, Note_on_c, 9, 63, 106
7, 21845, Note_on_c, 9, 63, 0
7, 21855, Note_on_c, 9, 42, 0
7, 21960, Note_on_c, 9, 42, 106
7, 21960, Note_on_c, 9, 64, 106
7, 21965, Note_on_c, 9, 64, 0
7, 22040, Note_on_c, 9, 42, 0
7, 22080, Note_on_c, 9, 42, 106
7, 22080, Note_on_c, 9, 54, 106
7, 22135, Note_on_c, 9, 54, 0
7, 22160, Note_on_c, 9, 42, 0
7, 22200, Note_on_c, 9, 42, 106
7, 22215, Note_on_c, 9, 42, 0
7, 22320, Note_on_c, 9, 42, 106
7, 22320, Note_on_c, 9, 63, 106
7, 22335, Note_on_c, 9, 63, 0
7, 22375, Note_on_c, 9, 42, 0
7, 22440, Note_on_c, 9, 42, 106
7, 22440, Note_on_c, 9, 63, 106
7, 22475, Note_on_c, 9, 63, 0
7, 22520, Note_on_c, 9, 42, 0
7, 22560, Note_on_c, 9, 42, 106
7, 22560, Note_on_c, 9, 54, 106
7, 22570, Note_on_c, 9, 54, 0
7, 22640, Note_on_c, 9, 42, 0
7, 22680, Note_on_c, 9, 42, 106
7, 22760, Note_on_c, 9, 42, 0
7, 22800, Note_on_c, 9, 42, 106
7, 22800, Note_on_c, 9, 63, 106
7, 22805, Note_on_c, 9, 63, 0
7, 22815, Note_on_c, 9, 42, 0
7, 22920, Note_on_c, 9, 42, 106
7, 22920, Note_on_c, 9, 64, 106
7, 22925, Note_on_c, 9, 64, 0
7, 23000, Note_on_c, 9, 42, 0
7, 23040, Note_on_c, 9, 42, 106
7, 23040, Note_on_c, 9, 54, 106
7, 23095, Note_on_c, 9, 54, 0
7, 23120, Note_on_c, 9, 42, 0
7, 23160, Note_on_c, 9, 42, 106
7, 23175, Note_on_c, 9, 42, 0
7, 23280, Note_on_c, 9, 42, 106
7, 23280, Note_on_c, 9, 63, 106
7, 23295, Note_on_c, 9, 63, 0
7, 23335, Note_on_c, 9, 42, 0
7, 23400, Note_on_c, 9, 42, 106
7, 23400, Note_on_c, 9, 63, 106
7, 23435, Note_on_c, 9, 63, 0
7, 23480, Note_on_c, 9, 42, 0
7, 23520, Note_on_c, 9, 42, 106
7, 23520, Note_on_c, 9, 54, 106
7, 23530, Note_on_c, 9, 54, 0
7, 23600, Note_on_c, 9, 42, 0
7, 23640, Note_on_c, 9, 42, 106
7, 23720, Note_on_c, 9, 42, 0
7, 23760, Note_on_c, 9, 42, 106
7, 23760, Note_on_c, 9, 63, 106
7, 23765, Note_on_c, 9, 63, 0
7, 23775, Note_on_c, 9, 42, 0
7, 23880, Note_on_c, 9, 42, 106
7, 23880, Note_on_c, 9, 64, 106
7, 23885, Note_on_c, 9, 64, 0
7, 23960, Note_on_c, 9, 42, 0
7, 24000, Note_on_c, 9, 42, 106
7, 24000, Note_on_c, 9, 54, 106
7, 24055, Note_on_c, 9, 54, 0
7, 24080, Note_on_c, 9, 42, 0
7, 24120, Note_on_c, 9, 42, 106
7, 24135, Note_on_c, 9, 42, 0
7, 24240, Note_on_c, 9, 42, 106
7, 24240, Note_on_c, 9, 63, 106
7, 24255, Note_on_c, 9, 63, 0
7, 24295, Note_on_c, 9, 42, 0
7, 24360, Note_on_c, 9, 42, 106
7, 24360, Note_on_c, 9, 63, 106
7, 24395, Note_on_c, 9, 63, 0
7, 24440, Note_on_c, 9, 42, 0
7, 24480, Note_on_c, 9, 42, 106
7, 24480, Note_on_c, 9, 54, 106
7, 24490, Note_on_c, 9, 54, 0
7, 24560, Note_on_c, 9, 42, 0
7, 24600, Note_on_c, 9, 42, 106
7, 24680, Note_on_c, 9, 42, 0
7, 24720, Note_on_c, 9, 42, 106
7, 24720, Note_on_c, 9, 63, 106
7, 24725, Note_on_c, 9, 63, 0
7, 24735, Note_on_c, 9, 42, 0
7, 24840, Note_on_c, 9, 42, 106
7, 24840, Note_on_c, 9, 64, 106
7, 24845, Note_on_c, 9, 64, 0
7, 24920, Note_on_c, 9, 42, 0
7, 24960, Note_on_c, 9, 42, 106
7, 24960, Note_on_c, 9, 54, 106
7, 25015, Note_on_c, 9, 54, 0
7, 25040, Note_on_c, 9, 42, 0
7, 25080, Note_on_c, 9, 42, 106
7, 25095, Note_on_c, 9, 42, 0
7, 25200, Note_on_c, 9, 42, 106
7, 25200, Note_on_c, 9, 63, 106
7, 25215, Note_on_c, 9, 63, 0
7, 25255, Note_on_c, 9, 42, 0
7, 25320, Note_on_c, 9, 42, 106
7, 25320, Note_on_c, 9, 63, 106
7, 25355, Note_on_c, 9, 63, 0
7, 25400, Note_on_c, 9, 42, 0
7, 25440, Note_on_c, 9, 42, 106
7, 25440, Note_on_c, 9, 54, 106
7, 25450, Note_on_c, 9, 54, 0
7, 25520, Note_on_c, 9, 42, 0
7, 25560, Note_on_c, 9, 42, 106
7, 25640, Note_on_c, 9, 42, 0
7, 25680, Note_on_c, 9, 42, 106
7, 25680, Note_on_c, 9, 63, 106
7, 25685, Note_on_c, 9, 63, 0
7, 25695, Note_on_c, 9, 42, 0
7, 25800, Note_on_c, 9, 42, 106
7, 25800, Note_on_c, 9, 64, 106
7, 25805, Note_on_c, 9, 64, 0
7, 25880, Note_on_c, 9, 42, 0
7, 25920, Note_on_c, 9, 42, 106
7, 25920, Note_on_c, 9, 54, 106
7, 25975, Note_on_c, 9, 54, 0
7, 26000, Note_on_c, 9, 42, 0
7, 26040, Note_on_c, 9, 42, 106
7, 26055, Note_on_c, 9, 42, 0
7, 26160, Note_on_c, 9, 42, 106
7, 26160, Note_on_c, 9, 63, 106
7, 26175, Note_on_c, 9, 63, 0
7, 26215, Note_on_c, 9, 42, 0
7, 26280, Note_on_c, 9, 42, 106
7, 26280, Note_on_c, 9, 63, 106
7, 26315, Note_on_c, 9, 63, 0
7, 26360, Note_on_c, 9, 42, 0
7, 26400, Note_on_c, 9, 42, 106
7, 26400, Note_on_c, 9, 54, 106
7, 26410, Note_on_c, 9, 54, 0
7, 26480, Note_on_c, 9, 42, 0
7, 26520, Note_on_c, 9, 42, 106
7, 26600, Note_on_c, 9, 42, 0
7, 26640, Note_on_c, 9, 42, 106
7, 26640, Note_on_c, 9, 63, 106
7, 26645, Note_on_c, 9, 63, 0
7, 26655, Note_on_c, 9, 42, 0
7, 26760, Note_on_c, 9, 42, 106
7, 26760, Note_on_c, 9, 64, 106
7, 26765, Note_on_c, 9, 64, 0
7, 26840, Note_on_c, 9, 42, 0
7, 26880, Note_on_c, 9, 42, 106
7, 26880, Note_on_c, 9, 54, 106
7, 26935, Note_on_c, 9, 54, 0
7, 26960, Note_on_c, 9, 42, 0
7, 27000, Note_on_c, 9, 42, 106
7, 27015, Note_on_c, 9, 42, 0
7, 27120, Note_on_c, 9, 42, 106
7, 27120, Note_on_c, 9, 63, 106
7, 27135, Note_on_c, 9, 63, 0
7, 27175, Note_on_c, 9, 42, 0
7, 27240, Note_on_c, 9, 42, 106
7, 27240, Note_on_c, 9, 63, 106
7, 27275, Note_on_c, 9, 63, 0
7, 27320, Note_on_c, 9, 42, 0
7, 27360, Note_on_c, 9, 42, 106
7, 27360, Note_on_c, 9, 54, 106
7, 27370, Note_on_c, 9, 54, 0
7, 27440, Note_on_c, 9, 42, 0
7, 27480, Note_on_c, 9, 42, 106
7, 27560, Note_on_c, 9, 42, 0
7, 27600, Note_on_c, 9, 42, 106
7, 27600, Note_on_c, 9, 63, 106
7, 27605, Note_on_c, 9, 63, 0
7, 27615, Note_on_c, 9, 42, 0
7, 27720, Note_on_c, 9, 42, 106
7, 27720, Note_on_c, 9, 64, 106
7, 27725, Note_on_c, 9, 64, 0
7, 27800, Note_on_c, 9, 42, 0
7, 27840, Note_on_c, 9, 42, 106
7, 27840, Note_on_c, 9, 54, 106
7, 27895, Note_on_c, 9, 54, 0
7, 27920, Note_on_c, 9, 42, 0
7, 27960, Note_on_c, 9, 42, 106
7, 27975, Note_on_c, 9, 42, 0
7, 28080, Note_on_c, 9, 42, 106
7, 28080, Note_on_c, 9, 63, 106
7, 28095, Note_on_c, 9, 63, 0
7, 28135, Note_on_c, 9, 42, 0
7, 28200, Note_on_c, 9, 42, 106
7, 28200, Note_on_c, 9, 63, 106
7, 28235, Note_on_c, 9, 63, 0
7, 28280, Note_on_c, 9, 42, 0
7, 28320, Note_on_c, 9, 42, 106
7, 28320, Note_on_c, 9, 54, 106
7, 28330, Note_on_c, 9, 54, 0
7, 28400, Note_on_c, 9, 42, 0
7, 28440, Note_on_c, 9, 42, 106
7, 28520, Note_on_c, 9, 42, 0
7, 28560, Note_on_c, 9, 42, 106
7, 28560, Note_on_c, 9, 63, 106
7, 28565, Note_on_c, 9, 63, 0
7, 28575, Note_on_c, 9, 42, 0
7, 28680, Note_on_c, 9, 42, 106
7, 28680, Note_on_c, 9, 64, 106
7, 28685, Note_on_c, 9, 64, 0
7, 28760, Note_on_c, 9, 42, 0
7, 28800, Note_on_c, 9, 42, 106
7, 28800, Note_on_c, 9, 54, 106
7, 28855, Note_on_c, 9, 54, 0
7, 28880, Note_on_c, 9, 42, 0
7, 28920, Note_on_c, 9, 42, 106
7, 28935, Note_on_c, 9, 42, 0
7, 29040, Note_on_c, 9, 42, 106
7, 29040, Note_on_c, 9, 63, 106
7, 29055, Note_on_c, 9, 63, 0
7, 29095, Note_on_c, 9, 42, 0
7, 29160, Note_on_c, 9, 42, 106
7, 29160, Note_on_c, 9, 63, 106
7, 29195, Note_on_c, 9, 63, 0
7, 29240, Note_on_c, 9, 42, 0
7, 29280, Note_on_c, 9, 42, 106
7, 29280, Note_on_c, 9, 54, 106
7, 29290, Note_on_c, 9, 54, 0
7, 29360, Note_on_c, 9, 42, 0
7, 29400, Note_on_c, 9, 42, 106
7, 29480, Note_on_c, 9, 42, 0
7, 29520, Note_on_c, 9, 42, 106
7, 29520, Note_on_c, 9, 63, 106
7, 29525, Note_on_c, 9, 63, 0
7, 29535, Note_on_c, 9, 42, 0
7, 29640, Note_on_c, 9, 42, 106
7, 29640, Note_on_c, 9, 64, 106
7, 29645, Note_on_c, 9, 64, 0
7, 29720, Note_on_c, 9, 42, 0
7, 29760, Note_on_c, 9, 42, 106
7, 29760, Note_on_c, 9, 54, 106
7, 29815, Note_on_c, 9, 54, 0
7, 29840, Note_on_c, 9, 42, 0
7, 29880, Note_on_c, 9, 42, 106
7, 29895, Note_on_c, 9, 42, 0
7, 30000, Note_on_c, 9, 42, 106
7, 30000, Note_on_c, 9, 63, 106
7, 30015, Note_on_c, 9, 63, 0
7, 30055, Note_on_c, 9, 42, 0
7, 30120, Note_on_c, 9, 42, 106
7, 30120, Note_on_c, 9, 63, 106
7, 30155, Note_on_c, 9, 63, 0
7, 30200, Note_on_c, 9, 42, 0
7, 30240, Note_on_c, 9, 42, 106
7, 30240, Note_on_c, 9, 54, 106
7, 30250, Note_on_c, 9, 54, 0
7, 30320, Note_on_c, 9, 42, 0
7, 30360, Note_on_c, 9, 42, 106
7, 30440, Note_on_c, 9, 42, 0
7, 30480, Note_on_c, 9, 42, 106
7, 30480, Note_on_c, 9, 63, 106
7, 30485, Note_on_c, 9, 63, 0
7, 30495, Note_on_c, 9, 42, 0
7, 30600, Note_on_c, 9, 42, 106
7, 30600, Note_on_c, 9, 64, 106
7, 30605, Note_on_c, 9, 64, 0
7, 30680, Note_on_c, 9, 42, 0
7, 30720, Note_on_c, 9, 42, 106
7, 30720, Note_on_c, 9, 54, 106
7, 30775, Note_on_c, 9, 54, 0
7, 30800, Note_on_c, 9, 42, 0
7, 30840, Note_on_c, 9, 42, 106
7, 30855, Note_on_c, 9, 42, 0
7, 30960, Note_on_c, 9, 42, 106
7, 30960, Note_on_c, 9, 63, 106
7, 30975, Note_on_c, 9, 63, 0
7, 31015, Note_on_c, 9, 42, 0
7, 31080, Note_on_c, 9, 42, 106
7, 31080, Note_on_c, 9, 63, 106
7, 31115, Note_on_c, 9, 63, 0
7, 31160, Note_on_c, 9, 42, 0
7, 31200, Note_on_c, 9, 42, 106
7, 31200, Note_on_c, 9, 54, 106
7, 31210, Note_on_c, 9, 54, 0
7, 31280, Note_on_c, 9, 42, 0
7, 31320, Note_on_c, 9, 42, 106
7, 31400, Note_on_c, 9, 42, 0
7, 31440, Note_on_c, 9, 42, 106
7, 31440, Note_on_c, 9, 63, 106
7, 31445, Note_on_c, 9, 63, 0
7, 31455, Note_on_c, 9, 42, 0
7, 31560, Note_on_c, 9, 42, 106
7, 31560, Note_on_c, 9, 64, 106
7, 31565, Note_on_c, 9, 64, 0
7, 31640, Note_on_c, 9, 42, 0
7, 31680, Note_on_c, 9, 42, 106
7, 31680, Note_on_c, 9, 54, 106
7, 31735, Note_on_c, 9, 54, 0
7, 31760, Note_on_c, 9, 42, 0
7, 31800, Note_on_c, 9, 42, 106
7, 31815, Note_on_c, 9, 42, 0
7, 31920, Note_on_c, 9, 42, 106
7, 31920, Note_on_c, 9, 63, 106
7, 31935, Note_on_c, 9, 63, 0
7, 31975, Note_on_c, 9, 42, 0
7, 32040, Note_on_c, 9, 42, 106
7, 32040, Note_on_c, 9, 63, 106
7, 32075, Note_on_c, 9, 63, 0
7, 32120, Note_on_c, 9, 42, 0
7, 32160, Note_on_c, 9, 42, 106
7, 32160, Note_on_c, 9, 54, 106
7, 32170, Note_on_c, 9, 54, 0
7, 32240, Note_on_c, 9, 42, 0
7, 32280, Note_on_c, 9, 42, 106
7, 32360, Note_on_c, 9, 42, 0
7, 32400, Note_on_c, 9, 42, 106
7, 32400, Note_on_c, 9, 63, 106
7, 32405, Note_on_c, 9, 63, 0
7, 32415, Note_on_c, 9, 42, 0
7, 32520, Note_on_c, 9, 42, 106
7, 32520, Note_on_c, 9, 64, 106
7, 32525, Note_on_c, 9, 64, 0
7, 32600, Note_on_c, 9, 42, 0
7, 32640, Note_on_c, 9, 42, 106
7, 32640, Note_on_c, 9, 54, 106
7, 32695, Note_on_c, 9, 54, 0
7, 32720, Note_on_c, 9, 42, 0
7, 32760, Note_on_c, 9, 42, 106
7, 32775, Note_on_c, 9, 42, 0
7, 32880, Note_on_c, 9, 42, 106
7, 32880, Note_on_c, 9, 63, 106
7, 32895, Note_on_c, 9, 63, 0
7, 32935, Note_on_c, 9, 42, 0
7, 33000, Note_on_c, 9, 42, 106
7, 33000, Note_on_c, 9, 63, 106
7, 33035, Note_on_c, 9, 63, 0
7, 33080, Note_on_c, 9, 42, 0
7, 33120, Note_on_c, 9, 42, 106
7, 33120, Note_on_c, 9, 54, 106
7, 33130, Note_on_c, 9, 54, 0
7, 33200, Note_on_c, 9, 42, 0
7, 33240, Note_on_c, 9, 42, 106
7, 33320, Note_on_c, 9, 42, 0
7, 33360, Note_on_c, 9, 42, 106
7, 33360, Note_on_c, 9, 63, 106
7, 33365, Note_on_c, 9, 63, 0
7, 33375, Note_on_c, 9, 42, 0
7, 33480, Note_on_c, 9, 42, 106
7, 33480, Note_on_c, 9, 64, 106
7, 33485, Note_on_c, 9, 64, 0
7, 33560, Note_on_c, 9, 42, 0
7, 33600, Note_on_c, 9, 42, 106
7, 33600, Note_on_c, 9, 54, 106
7, 33655, Note_on_c, 9, 54, 0
7, 33680, Note_on_c, 9, 42, 0
7, 33720, Note_on_c, 9, 42, 106
7, 33735, Note_on_c, 9, 42, 0
7, 33840, Note_on_c, 9, 42, 106
7, 33840, Note_on_c, 9, 63, 106
7, 33855, Note_on_c, 9, 63, 0
7, 33895, Note_on_c, 9, 42, 0
7, 33960, Note_on_c, 9, 42, 106
7, 33960, Note_on_c, 9, 63, 106
7, 33995, Note_on_c, 9, 63, 0
7, 34040, Note_on_c, 9, 42, 0
7, 34080, Note_on_c, 9, 42, 106
7, 34080, Note_on_c, 9, 54, 106
7, 34090, Note_on_c, 9, 54, 0
7, 34160, Note_on_c, 9, 42, 0
7, 34200, Note_on_c, 9, 42, 106
7, 34280, Note_on_c, 9, 42, 0
7, 34320, Note_on_c, 9, 42, 106
7, 34320, Note_on_c, 9, 63, 106
7, 34325, Note_on_c, 9, 63, 0
7, 34335, Note_on_c, 9, 42, 0
7, 34440, Note_on_c, 9, 42, 106
7, 34440, Note_on_c, 9, 64, 106
7, 34445, Note_on_c, 9, 64, 0
7, 34520, Note_on_c, 9, 42, 0
7, 34560, Note_on_c, 9, 42, 106
7, 34560, Note_on_c, 9, 54, 106
7, 34615, Note_on_c, 9, 54, 0
7, 34640, Note_on_c, 9, 42, 0
7, 34680, Note_on_c, 9, 42, 106
7, 34695, Note_on_c, 9, 42, 0
7, 34800, Note_on_c, 9, 42, 106
7, 34800, Note_on_c, 9, 63, 106
7, 34815, Note_on_c, 9, 63, 0
7, 34855, Note_on_c, 9, 42, 0
7, 34920, Note_on_c, 9, 42, 106
7, 34920, Note_on_c, 9, 63, 106
7, 34955, Note_on_c, 9, 63, 0
7, 35000, Note_on_c, 9, 42, 0
7, 35040, Note_on_c, 9, 42, 106
7, 35040, Note_on_c, 9, 54, 106
7, 35050, Note_on_c, 9, 54, 0
7, 35120, Note_on_c, 9, 42, 0
7, 35160, Note_on_c, 9, 42, 106
7, 35240, Note_on_c, 9, 42, 0
7, 35280, Note_on_c, 9, 42, 106
7, 35280, Note_on_c, 9, 63, 106
7, 35285, Note_on_c, 9, 63, 0
7, 35295, Note_on_c, 9, 42, 0
7, 35400, Note_on_c, 9, 42, 106
7, 35400, Note_on_c, 9, 64, 106
7, 35405, Note_on_c, 9, 64, 0
7, 35480, Note_on_c, 9, 42, 0
7, 35520, Note_on_c, 9, 42, 106
7, 35520, Note_on_c, 9, 54, 106
7, 35575, Note_on_c, 9, 54, 0
7, 35600, Note_on_c, 9, 42, 0
7, 35640, Note_on_c, 9, 42, 106
7, 35655, Note_on_c, 9, 42, 0
7, 35760, Note_on_c, 9, 42, 106
7, 35760, Note_on_c, 9, 63, 106
7, 35775, Note_on_c, 9, 63, 0
7, 35815, Note_on_c, 9, 42, 0
7, 35880, Note_on_c, 9, 42, 106
7, 35880, Note_on_c, 9, 63, 106
7, 35915, Note_on_c, 9, 63, 0
7, 35960, Note_on_c, 9, 42, 0
7, 36000, Note_on_c, 9, 42, 106
7, 36000, Note_on_c, 9, 54, 106
7, 36010, Note_on_c, 9, 54, 0
7, 36080, Note_on_c, 9, 42, 0
7, 36120, Note_on_c, 9, 42, 106
7, 36200, Note_on_c, 9, 42, 0
7, 36240, Note_on_c, 9, 42, 106
7, 36240, Note_on_c, 9, 63, 106
7, 36245, Note_on_c, 9, 63, 0
7, 36255, Note_on_c, 9, 42, 0
7, 36360, Note_on_c, 9, 42, 106
7, 36360, Note_on_c, 9, 64, 106
7, 36365, Note_on_c, 9, 64, 0
7, 36440, Note_on_c, 9, 42, 0
7, 36480, Note_on_c, 9, 42, 106
7, 36480, Note_on_c, 9, 54, 106
7, 36535, Note_on_c, 9, 54, 0
7, 36560, Note_on_c, 9, 42, 0
7, 36600, Note_on_c, 9, 42, 106
7, 36615, Note_on_c, 9, 42, 0
7, 36720, Note_on_c, 9, 42, 106
7, 36720, Note_on_c, 9, 63, 106
7, 36735, Note_on_c, 9, 63, 0
7, 36775, Note_on_c, 9, 42, 0
7, 36840, Note_on_c, 9, 42, 106
7, 36840, Note_on_c, 9, 63, 106
7, 36875, Note_on_c, 9, 63, 0
7, 36920, Note_on_c, 9, 42, 0
7, 36960, Note_on_c, 9, 42, 106
7, 36960, Note_on_c, 9, 54, 106
7, 36970, Note_on_c, 9, 54, 0
7, 37040, Note_on_c, 9, 42, 0
7, 37080, Note_on_c, 9, 42, 106
7, 37160, Note_on_c, 9, 42, 0
7, 37200, Note_on_c, 9, 42, 106
7, 37200, Note_on_c, 9, 63, 106
7, 37205, Note_on_c, 9, 63, 0
7, 37215, Note_on_c, 9, 42, 0
7, 37320, Note_on_c, 9, 42, 106
7, 37320, Note_on_c, 9, 64, 106
7, 37325, Note_on_c, 9, 64, 0
7, 37400, Note_on_c, 9, 42, 0
7, 37440, Note_on_c, 9, 42, 106
7, 37440, Note_on_c, 9, 54, 106
7, 37495, Note_on_c, 9, 54, 0
7, 37520, Note_on_c, 9, 42, 0
7, 37560, Note_on_c, 9, 42, 106
7, 37575, Note_on_c, 9, 42, 0
7, 37680, Note_on_c, 9, 42, 106
7, 37680, Note_on_c, 9, 63, 106
7, 37695, Note_on_c, 9, 63, 0
7, 37735, Note_on_c, 9, 42, 0
7, 37800, Note_on_c, 9, 42, 106
7, 37800, Note_on_c, 9, 63, 106
7, 37835, Note_on_c, 9, 63, 0
7, 37880, Note_on_c, 9, 42, 0
7, 37920, Note_on_c, 9, 42, 106
7, 37920, Note_on_c, 9, 54, 106
7, 37930, Note_on_c, 9, 54, 0
7, 38000, Note_on_c, 9, 42, 0
7, 38040, Note_on_c, 9, 42, 106
7, 38120, Note_on_c, 9, 42, 0
7, 38160, Note_on_c, 9, 42, 106
7, 38160, Note_on_c, 9, 63, 106
7, 38165, Note_on_c, 9, 63, 0
7, 38175, Note_on_c, 9, 42, 0
7, 38280, Note_on_c, 9, 42, 106
7, 38280, Note_on_c, 9, 64, 106
7, 38285, Note_on_c, 9, 64, 0
7, 38360, Note_on_c, 9, 42, 0
7, 38400, Note_on_c, 9, 42, 106
7, 38400, Note_on_c, 9, 54, 106
7, 38455, Note_on_c, 9, 54, 0
7, 38480, Note_on_c, 9, 42, 0
7, 38520, Note_on_c, 9, 42, 106
7, 38535, Note_on_c, 9, 42, 0
7, 38640, Note_on_c, 9, 42, 106
7, 38640, Note_on_c, 9, 63, 106
7, 38655, Note_on_c, 9, 63, 0
7, 38695, Note_on_c, 9, 42, 0
7, 38760, Note_on_c, 9, 42, 106
7, 38760, Note_on_c, 9, 63, 106
7, 38795, Note_on_c, 9, 63, 0
7, 38840, Note_on_c, 9, 42, 0
7, 38880, Note_on_c, 9, 42, 106
7, 38880, Note_on_c, 9, 54, 106
7, 38890, Note_on_c, 9, 54, 0
7, 38960, Note_on_c, 9, 42, 0
7, 39000, Note_on_c, 9, 42, 106
7, 39080, Note_on_c, 9, 42, 0
7, 39120, Note_on_c, 9, 42, 106
7, 39120, Note_on_c, 9, 63, 106
7, 39125, Note_on_c, 9, 63, 0
7, 39135, Note_on_c, 9, 42, 0
7, 39240, Note_on_c, 9, 42, 106
7, 39240, Note_on_c, 9, 64, 106
7, 39245, Note_on_c, 9, 64, 0
7, 39320, Note_on_c, 9, 42, 0
7, 39360, Note_on_c, 9, 42, 106
7, 39360, Note_on_c, 9, 54, 106
7, 39440, Note_on_c, 9, 54, 0
7, 39440, Note_on_c, 9, 42, 0
7, 39480, Note_on_c, 9, 42, 106
7, 39495, Note_on_c, 9, 42, 0
7, 39600, Note_on_c, 9, 42, 106
7, 39600, Note_on_c, 9, 63, 106
7, 39610, Note_on_c, 9, 63, 0
7, 39680, Note_on_c, 9, 42, 0
7, 39720, Note_on_c, 9, 42, 106
7, 39720, Note_on_c, 9, 63, 106
7, 39735, Note_on_c, 9, 63, 0
7, 39800, Note_on_c, 9, 42, 0
7, 39840, Note_on_c, 9, 42, 106
7, 39840, Note_on_c, 9, 54, 106
7, 39845, Note_on_c, 9, 54, 0
7, 39920, Note_on_c, 9, 42, 0
7, 39960, Note_on_c, 9, 42, 106
7, 40040, Note_on_c, 9, 42, 0
7, 40080, Note_on_c, 9, 63, 106
7, 40080, Note_on_c, 9, 42, 106
7, 40095, Note_on_c, 9, 42, 0
7, 40200, Note_on_c, 9, 42, 106
7, 40200, Note_on_c, 9, 64, 106
7, 40210, Note_on_c, 9, 64, 0
7, 40280, Note_on_c, 9, 42, 0
7, 40320, Note_on_c, 9, 63, 0
7, 40320, Note_on_c, 9, 42, 106
7, 40320, Note_on_c, 9, 54, 106
7, 40375, Note_on_c, 9, 54, 0
7, 40400, Note_on_c, 9, 42, 0
7, 40440, Note_on_c, 9, 42, 106
7, 40455, Note_on_c, 9, 42, 0
7, 40560, Note_on_c, 9, 42, 106
7, 40560, Note_on_c, 9, 63, 106
7, 40565, Note_on_c, 9, 63, 0
7, 40615, Note_on_c, 9, 42, 0
7, 40680, Note_on_c, 9, 42, 106
7, 40680, Note_on_c, 9, 63, 106
7, 40715, Note_on_c, 9, 63, 0
7, 40760, Note_on_c, 9, 42, 0
7, 40800, Note_on_c, 9, 42, 106
7, 40800, Note_on_c, 9, 54, 106
7, 40805, Note_on_c, 9, 54, 0
7, 40880, Note_on_c, 9, 42, 0
7, 40920, Note_on_c, 9, 42, 106
7, 41000, Note_on_c, 9, 42, 0
7, 41040, Note_on_c, 9, 42, 106
7, 41040, Note_on_c, 9, 63, 106
7, 41045, Note_on_c, 9, 63, 0
7, 41055, Note_on_c, 9, 42, 0
7, 41160, Note_on_c, 9, 42, 106
7, 41160, Note_on_c, 9, 64, 106
7, 41165, Note_on_c, 9, 64, 0
7, 41240, Note_on_c, 9, 42, 0
7, 41280, Note_on_c, 9, 42, 106
7, 41280, Note_on_c, 9, 54, 106
7, 41335, Note_on_c, 9, 54, 0
7, 41360, Note_on_c, 9, 42, 0
7, 41400, Note_on_c, 9, 42, 106
7, 41415, Note_on_c, 9, 42, 0
7, 41520, Note_on_c, 9, 42, 106
7, 41520, Note_on_c, 9, 63, 106
7, 41535, Note_on_c, 9, 63, 0
7, 41575, Note_on_c, 9, 42, 0
7, 41640, Note_on_c, 9, 42, 106
7, 41640, Note_on_c, 9, 63, 106
7, 41675, Note_on_c, 9, 63, 0
7, 41720, Note_on_c, 9, 42, 0
7, 41760, Note_on_c, 9, 42, 106
7, 41760, Note_on_c, 9, 54, 106
7, 41770, Note_on_c, 9, 54, 0
7, 41840, Note_on_c, 9, 42, 0
7, 41880, Note_on_c, 9, 42, 106
7, 41960, Note_on_c, 9, 42, 0
7, 42000, Note_on_c, 9, 42, 106
7, 42000, Note_on_c, 9, 63, 106
7, 42005, Note_on_c, 9, 63, 0
7, 42015, Note_on_c, 9, 42, 0
7, 42120, Note_on_c, 9, 42, 106
7, 42120, Note_on_c, 9, 64, 106
7, 42125, Note_on_c, 9, 64, 0
7, 42200, Note_on_c, 9, 42, 0
7, 42240, Note_on_c, 9, 42, 106
7, 42240, Note_on_c, 9, 54, 106
7, 42295, Note_on_c, 9, 54, 0
7, 42320, Note_on_c, 9, 42, 0
7, 42360, Note_on_c, 9, 42, 106
7, 42375, Note_on_c, 9, 42, 0
7, 42480, Note_on_c, 9, 42, 106
7, 42480, Note_on_c, 9, 63, 106
7, 42495, Note_on_c, 9, 63, 0
7, 42535, Note_on_c, 9, 42, 0
7, 42600, Note_on_c, 9, 42, 106
7, 42600, Note_on_c, 9, 63, 106
7, 42635, Note_on_c, 9, 63, 0
7, 42680, Note_on_c, 9, 42, 0
7, 42720, Note_on_c, 9, 42, 106
7, 42720, Note_on_c, 9, 54, 106
7, 42730, Note_on_c, 9, 54, 0
7, 42800, Note_on_c, 9, 42, 0
7, 42840, Note_on_c, 9, 42, 106
7, 42920, Note_on_c, 9, 42, 0
7, 42960, Note_on_c, 9, 42, 106
7, 42960, Note_on_c, 9, 63, 106
7, 42965, Note_on_c, 9, 63, 0
7, 42975, Note_on_c, 9, 42, 0
7, 43080, Note_on_c, 9, 42, 106
7, 43080, Note_on_c, 9, 64, 106
7, 43085, Note_on_c, 9, 64, 0
7, 43160, Note_on_c, 9, 42, 0
7, 43200, Note_on_c, 9, 42, 106
7, 43200, Note_on_c, 9, 54, 106
7, 43255, Note_on_c, 9, 54, 0
7, 43280, Note_on_c, 9, 42, 0
7, 43320, Note_on_c, 9, 42, 106
7, 43335, Note_on_c, 9, 42, 0
7, 43440, Note_on_c, 9, 42, 106
7, 43440, Note_on_c, 9, 63, 106
7, 43455, Note_on_c, 9, 63, 0
7, 43495, Note_on_c, 9, 42, 0
7, 43560, Note_on_c, 9, 42, 106
7, 43560, Note_on_c, 9, 63, 106
7, 43595, Note_on_c, 9, 63, 0
7, 43640, Note_on_c, 9, 42, 0
7, 43680, Note_on_c, 9, 42, 106
7, 43680, Note_on_c, 9, 54, 106
7, 43690, Note_on_c, 9, 54, 0
7, 43760, Note_on_c, 9, 42, 0
7, 43800, Note_on_c, 9, 42, 106
7, 43880, Note_on_c, 9, 42, 0
7, 43920, Note_on_c, 9, 42, 106
7, 43920, Note_on_c, 9, 63, 106
7, 43925, Note_on_c, 9, 63, 0
7, 43935, Note_on_c, 9, 42, 0
7, 44040, Note_on_c, 9, 42, 106
7, 44040, Note_on_c, 9, 64, 106
7, 44045, Note_on_c, 9, 64, 0
7, 44120, Note_on_c, 9, 42, 0
7, 44160, Note_on_c, 9, 42, 106
7, 44160, Note_on_c, 9, 54, 106
7, 44215, Note_on_c, 9, 54, 0
7, 44240, Note_on_c, 9, 42, 0
7, 44280, Note_on_c, 9, 42, 106
7, 44295, Note_on_c, 9, 42, 0
7, 44400, Note_on_c, 9, 42, 106
7, 44400, Note_on_c, 9, 63, 106
7, 44415, Note_on_c, 9, 63, 0
7, 44455, Note_on_c, 9, 42, 0
7, 44520, Note_on_c, 9, 42, 106
7, 44520, Note_on_c, 9, 63, 106
7, 44555, Note_on_c, 9, 63, 0
7, 44600, Note_on_c, 9, 42, 0
7, 44640, Note_on_c, 9, 42, 106
7, 44640, Note_on_c, 9, 54, 106
7, 44650, Note_on_c, 9, 54, 0
7, 44720, Note_on_c, 9, 42, 0
7, 44760, Note_on_c, 9, 42, 106
7, 44840, Note_on_c, 9, 42, 0
7, 44880, Note_on_c, 9, 42, 106
7, 44880, Note_on_c, 9, 63, 106
7, 44890, Note_on_c, 9, 63, 0
7, 44895, Note_on_c, 9, 42, 0
7, 45000, Note_on_c, 9, 42, 106
7, 45000, Note_on_c, 9, 64, 106
7, 45005, Note_on_c, 9, 64, 0
7, 45080, Note_on_c, 9, 42, 0
7, 45120, Note_on_c, 9, 42, 106
7, 45120, Note_on_c, 9, 54, 106
7, 45175, Note_on_c, 9, 54, 0
7, 45200, Note_on_c, 9, 42, 0
7, 45240, Note_on_c, 9, 42, 106
7, 45255, Note_on_c, 9, 42, 0
7, 45360, Note_on_c, 9, 42, 106
7, 45360, Note_on_c, 9, 63, 106
7, 45375, Note_on_c, 9, 63, 0
7, 45415, Note_on_c, 9, 42, 0
7, 45480, Note_on_c, 9, 42, 106
7, 45480, Note_on_c, 9, 63, 106
7, 45515, Note_on_c, 9, 63, 0
7, 45560, Note_on_c, 9, 42, 0
7, 45600, Note_on_c, 9, 42, 106
7, 45600, Note_on_c, 9, 54, 106
7, 45660, Note_on_c, 9, 54, 0
7, 45680, Note_on_c, 9, 42, 0
7, 45720, Note_on_c, 9, 42, 106
7, 45800, Note_on_c, 9, 42, 0
7, 45840, Note_on_c, 9, 42, 106
7, 45840, Note_on_c, 9, 63, 106
7, 45845, Note_on_c, 9, 63, 0
7, 45855, Note_on_c, 9, 42, 0
7, 45960, Note_on_c, 9, 42, 106
7, 45960, Note_on_c, 9, 64, 106
7, 45965, Note_on_c, 9, 64, 0
7, 46040, Note_on_c, 9, 42, 0
7, 46080, Note_on_c, 9, 42, 106
7, 46080, Note_on_c, 9, 54, 106
7, 46135, Note_on_c, 9, 54, 0
7, 46160, Note_on_c, 9, 42, 0
7, 46200, Note_on_c, 9, 42, 106
7, 46215, Note_on_c, 9, 42, 0
7, 46320, Note_on_c, 9, 42, 106
7, 46320, Note_on_c, 9, 63, 106
7, 46335, Note_on_c, 9, 63, 0
7, 46375, Note_on_c, 9, 42, 0
7, 46440, Note_on_c, 9, 42, 106
7, 46440, Note_on_c, 9, 63, 106
7, 46475, Note_on_c, 9, 63, 0
7, 46520, Note_on_c, 9, 42, 0
7, 46560, Note_on_c, 9, 42, 106
7, 46560, Note_on_c, 9, 54, 106
7, 46570, Note_on_c, 9, 54, 0
7, 46640, Note_on_c, 9, 42, 0
7, 46680, Note_on_c, 9, 42, 106
7, 46760, Note_on_c, 9, 42, 0
7, 46800, Note_on_c, 9, 42, 106
7, 46800, Note_on_c, 9, 63, 106
7, 46805, Note_on_c, 9, 63, 0
7, 46815, Note_on_c, 9, 42, 0
7, 46920, Note_on_c, 9, 42, 106
7, 46920, Note_on_c, 9, 64, 106
7, 46925, Note_on_c, 9, 64, 0
7, 47000, Note_on_c, 9, 42, 0
7, 47040, Note_on_c, 9, 42, 106
7, 47040, Note_on_c, 9, 54, 106
7, 47095, Note_on_c, 9, 54, 0
7, 47120, Note_on_c, 9, 42, 0
7, 47160, Note_on_c, 9, 42, 106
7, 47175, Note_on_c, 9, 42, 0
7, 47280, Note_on_c, 9, 42, 106
7, 47280, Note_on_c, 9, 63, 106
7, 47295, Note_on_c, 9, 63, 0
7, 47335, Note_on_c, 9, 42, 0
7, 47400, Note_on_c, 9, 42, 106
7, 47400, Note_on_c, 9, 63, 106
7, 47435, Note_on_c, 9, 63, 0
7, 47480, Note_on_c, 9, 42, 0
7, 47520, Note_on_c, 9, 42, 106
7, 47520, Note_on_c, 9, 54, 106
7, 47530, Note_on_c, 9, 54, 0
7, 47600, Note_on_c, 9, 42, 0
7, 47640, Note_on_c, 9, 42, 106
7, 47720, Note_on_c, 9, 42, 0
7, 47760, Note_on_c, 9, 42, 106
7, 47760, Note_on_c, 9, 63, 106
7, 47765, Note_on_c, 9, 63, 0
7, 47775, Note_on_c, 9, 42, 0
7, 47880, Note_on_c, 9, 42, 106
7, 47880, Note_on_c, 9, 64, 106
7, 47885, Note_on_c, 9, 64, 0
7, 47960, Note_on_c, 9, 42, 0
7, 48000, Note_on_c, 9, 42, 106
7, 48000, Note_on_c, 9, 54, 106
7, 48055, Note_on_c, 9, 54, 0
7, 48080, Note_on_c, 9, 42, 0
7, 48120, Note_on_c, 9, 42, 106
7, 48135, Note_on_c, 9, 42, 0
7, 48240, Note_on_c, 9, 42, 106
7, 48240, Note_on_c, 9, 63, 106
7, 48255, Note_on_c, 9, 63, 0
7, 48295, Note_on_c, 9, 42, 0
7, 48360, Note_on_c, 9, 42, 106
7, 48360, Note_on_c, 9, 63, 106
7, 48395, Note_on_c, 9, 63, 0
7, 48440, Note_on_c, 9, 42, 0
7, 48480, Note_on_c, 9, 42, 106
7, 48480, Note_on_c, 9, 54, 106
7, 48490, Note_on_c, 9, 54, 0
7, 48560, Note_on_c, 9, 42, 0
7, 48600, Note_on_c, 9, 42, 106
7, 48680, Note_on_c, 9, 42, 0
7, 48720, Note_on_c, 9, 42, 106
7, 48720, Note_on_c, 9, 63, 106
7, 48725, Note_on_c, 9, 63, 0
7, 48735, Note_on_c, 9, 42, 0
7, 48840, Note_on_c, 9, 42, 106
7, 48840, Note_on_c, 9, 64, 106
7, 48845, Note_on_c, 9, 64, 0
7, 48920, Note_on_c, 9, 42, 0
7, 48960, Note_on_c, 9, 42, 106
7, 48960, Note_on_c, 9, 54, 106
7, 49015, Note_on_c, 9, 54, 0
7, 49040, Note_on_c, 9, 42, 0
7, 49080, Note_on_c, 9, 42, 106
7, 49095, Note_on_c, 9, 42, 0
7, 49200, Note_on_c, 9, 42, 106
7, 49200, Note_on_c, 9, 63, 106
7, 49215, Note_on_c, 9, 63, 0
7, 49255, Note_on_c, 9, 42, 0
7, 49320, Note_on_c, 9, 42, 106
7, 49320, Note_on_c, 9, 63, 106
7, 49355, Note_on_c, 9, 63, 0
7, 49400, Note_on_c, 9, 42, 0
7, 49440, Note_on_c, 9, 42, 106
7, 49440, Note_on_c, 9, 54, 106
7, 49450, Note_on_c, 9, 54, 0
7, 49520, Note_on_c, 9, 42, 0
7, 49560, Note_on_c, 9, 42, 106
7, 49640, Note_on_c, 9, 42, 0
7, 49680, Note_on_c, 9, 42, 106
7, 49680, Note_on_c, 9, 63, 106
7, 49685, Note_on_c, 9, 63, 0
7, 49695, Note_on_c, 9, 42, 0
7, 49800, Note_on_c, 9, 42, 106
7, 49800, Note_on_c, 9, 64, 106
7, 49805, Note_on_c, 9, 64, 0
7, 49880, Note_on_c, 9, 42, 0
7, 49920, Note_on_c, 9, 42, 106
7, 49920, Note_on_c, 9, 54, 106
7, 49975, Note_on_c, 9, 54, 0
7, 50000, Note_on_c, 9, 42, 0
7, 50040, Note_on_c, 9, 42, 106
7, 50055, Note_on_c, 9, 42, 0
7, 50160, Note_on_c, 9, 42, 106
7, 50160, Note_on_c, 9, 63, 106
7, 50175, Note_on_c, 9, 63, 0
7, 50215, Note_on_c, 9, 42, 0
7, 50280, Note_on_c, 9, 42, 106
7, 50280, Note_on_c, 9, 63, 106
7, 50315, Note_on_c, 9, 63, 0
7, 50360, Note_on_c, 9, 42, 0
7, 50400, Note_on_c, 9, 42, 106
7, 50400, Note_on_c, 9, 54, 106
7, 50410, Note_on_c, 9, 54, 0
7, 50480, Note_on_c, 9, 42, 0
7, 50520, Note_on_c, 9, 42, 106
7, 50600, Note_on_c, 9, 42, 0
7, 50640, Note_on_c, 9, 42, 106
7, 50640, Note_on_c, 9, 63, 106
7, 50645, Note_on_c, 9, 63, 0
7, 50655, Note_on_c, 9, 42, 0
7, 50760, Note_on_c, 9, 42, 106
7, 50760, Note_on_c, 9, 64, 106
7, 50765, Note_on_c, 9, 64, 0
7, 50840, Note_on_c, 9, 42, 0
7, 50880, Note_on_c, 9, 42, 106
7, 50880, Note_on_c, 9, 54, 106
7, 50935, Note_on_c, 9, 54, 0
7, 50960, Note_on_c, 9, 42, 0
7, 51000, Note_on_c, 9, 42, 106
7, 51015, Note_on_c, 9, 42, 0
7, 51120, Note_on_c, 9, 42, 106
7, 51120, Note_on_c, 9, 63, 106
7, 51135, Note_on_c, 9, 63, 0
7, 51175, Note_on_c, 9, 42, 0
7, 51240, Note_on_c, 9, 42, 106
7, 51240, Note_on_c, 9, 63, 106
7, 51275, Note_on_c, 9, 63, 0
7, 51320, Note_on_c, 9, 42, 0
7, 51360, Note_on_c, 9, 42, 106
7, 51360, Note_on_c, 9, 54, 106
7, 51370, Note_on_c, 9, 54, 0
7, 51440, Note_on_c, 9, 42, 0
7, 51480, Note_on_c, 9, 42, 106
7, 51560, Note_on_c, 9, 42, 0
7, 51600, Note_on_c, 9, 42, 106
7, 51600, Note_on_c, 9, 63, 106
7, 51605, Note_on_c, 9, 63, 0
7, 51615, Note_on_c, 9, 42, 0
7, 51720, Note_on_c, 9, 42, 106
7, 51720, Note_on_c, 9, 64, 106
7, 51725, Note_on_c, 9, 64, 0
7, 51800, Note_on_c, 9, 42, 0
7, 51840, Note_on_c, 9, 42, 106
7, 51840, Note_on_c, 9, 54, 106
7, 51895, Note_on_c, 9, 54, 0
7, 51920, Note_on_c, 9, 42, 0
7, 51960, Note_on_c, 9, 42, 106
7, 51975, Note_on_c, 9, 42, 0
7, 52080, Note_on_c, 9, 42, 106
7, 52080, Note_on_c, 9, 63, 106
7, 52095, Note_on_c, 9, 63, 0
7, 52135, Note_on_c, 9, 42, 0
7, 52200, Note_on_c, 9, 42, 106
7, 52200, Note_on_c, 9, 63, 106
7, 52235, Note_on_c, 9, 63, 0
7, 52280, Note_on_c, 9, 42, 0
7, 52320, Note_on_c, 9, 42, 106
7, 52320, Note_on_c, 9, 54, 106
7, 52330, Note_on_c, 9, 54, 0
7, 52400, Note_on_c, 9, 42, 0
7, 52440, Note_on_c, 9, 42, 106
7, 52520, Note_on_c, 9, 42, 0
7, 52560, Note_on_c, 9, 42, 106
7, 52560, Note_on_c, 9, 63, 106
7, 52565, Note_on_c, 9, 63, 0
7, 52575, Note_on_c, 9, 42, 0
7, 52680, Note_on_c, 9, 42, 106
7, 52680, Note_on_c, 9, 64, 106
7, 52685, Note_on_c, 9, 64, 0
7, 52760, Note_on_c, 9, 42, 0
7, 52800, Note_on_c, 9, 42, 106
7, 52800, Note_on_c, 9, 54, 106
7, 52855, Note_on_c, 9, 54, 0
7, 52880, Note_on_c, 9, 42, 0
7, 52920, Note_on_c, 9, 42, 106
7, 52935, Note_on_c, 9, 42, 0
7, 53040, Note_on_c, 9, 42, 106
7, 53040, Note_on_c, 9, 63, 106
7, 53055, Note_on_c, 9, 63, 0
7, 53095, Note_on_c, 9, 42, 0
7, 53160, Note_on_c, 9, 42, 106
7, 53160, Note_on_c, 9, 63, 106
7, 53195, Note_on_c, 9, 63, 0
7, 53240, Note_on_c, 9, 42, 0
7, 53280, Note_on_c, 9, 42, 106
7, 53280, Note_on_c, 9, 54, 106
7, 53290, Note_on_c, 9, 54, 0
7, 53360, Note_on_c, 9, 42, 0
7, 53400, Note_on_c, 9, 42, 106
7, 53480, Note_on_c, 9, 42, 0
7, 53520, Note_on_c, 9, 42, 106
7, 53520, Note_on_c, 9, 63, 106
7, 53525, Note_on_c, 9, 63, 0
7, 53535, Note_on_c, 9, 42, 0
7, 53640, Note_on_c, 9, 42, 106
7, 53640, Note_on_c, 9, 64, 106
7, 53645, Note_on_c, 9, 64, 0
7, 53720, Note_on_c, 9, 42, 0
7, 53760, Note_on_c, 9, 42, 106
7, 53760, Note_on_c, 9, 54, 106
7, 53815, Note_on_c, 9, 54, 0
7, 53840, Note_on_c, 9, 42, 0
7, 53880, Note_on_c, 9, 42, 106
7, 53895, Note_on_c, 9, 42, 0
7, 54000, Note_on_c, 9, 42, 106
7, 54000, Note_on_c, 9, 63, 106
7, 54015, Note_on_c, 9, 63, 0
7, 54055, Note_on_c, 9, 42, 0
7, 54120, Note_on_c, 9, 42, 106
7, 54120, Note_on_c, 9, 63, 106
7, 54155, Note_on_c, 9, 63, 0
7, 54200, Note_on_c, 9, 42, 0
7, 54240, Note_on_c, 9, 42, 106
7, 54240, Note_on_c, 9, 54, 106
7, 54250, Note_on_c, 9, 54, 0
7, 54320, Note_on_c, 9, 42, 0
7, 54360, Note_on_c, 9, 42, 106
7, 54440, Note_on_c, 9, 42, 0
7, 54480, Note_on_c, 9, 42, 106
7, 54480, Note_on_c, 9, 63, 106
7, 54485, Note_on_c, 9, 63, 0
7, 54495, Note_on_c, 9, 42, 0
7, 54600, Note_on_c, 9, 42, 106
7, 54600, Note_on_c, 9, 64, 106
7, 54605, Note_on_c, 9, 64, 0
7, 54680, Note_on_c, 9, 42, 0
7, 54720, Note_on_c, 9, 42, 106
7, 54720, Note_on_c, 9, 54, 106
7, 54775, Note_on_c, 9, 54, 0
7, 54800, Note_on_c, 9, 42, 0
7, 54840, Note_on_c, 9, 42, 106
7, 54855, Note_on_c, 9, 42, 0
7, 54960, Note_on_c, 9, 42, 106
7, 54960, Note_on_c, 9, 63, 106
7, 54975, Note_on_c, 9, 63, 0
7, 55015, Note_on_c, 9, 42, 0
7, 55080, Note_on_c, 9, 42, 106
7, 55080, Note_on_c, 9, 63, 106
7, 55115, Note_on_c, 9, 63, 0
7, 55160, Note_on_c, 9, 42, 0
7, 55200, Note_on_c, 9, 42, 106
7, 55200, Note_on_c, 9, 54, 106
7, 55210, Note_on_c, 9, 54, 0
7, 55280, Note_on_c, 9, 42, 0
7, 55320, Note_on_c, 9, 42, 106
7, 55400, Note_on_c, 9, 42, 0
7, 55440, Note_on_c, 9, 42, 106
7, 55440, Note_on_c, 9, 63, 106
7, 55445, Note_on_c, 9, 63, 0
7, 55455, Note_on_c, 9, 42, 0
7, 55560, Note_on_c, 9, 42, 106
7, 55560, Note_on_c, 9, 64, 106
7, 55565, Note_on_c, 9, 64, 0
7, 55640, Note_on_c, 9, 42, 0
7, 55680, Note_on_c, 9, 42, 106
7, 55680, Note_on_c, 9, 54, 106
7, 55735, Note_on_c, 9, 54, 0
7, 55760, Note_on_c, 9, 42, 0
7, 55800, Note_on_c, 9, 42, 106
7, 55815, Note_on_c, 9, 42, 0
7, 55920, Note_on_c, 9, 42, 106
7, 55920, Note_on_c, 9, 63, 106
7, 55935, Note_on_c, 9, 63, 0
7, 55975, Note_on_c, 9, 42, 0
7, 56040, Note_on_c, 9, 42, 106
7, 56040, Note_on_c, 9, 63, 106
7, 56075, Note_on_c, 9, 63, 0
7, 56120, Note_on_c, 9, 42, 0
7, 56160, Note_on_c, 9, 42, 106
7, 56160, Note_on_c, 9, 54, 106
7, 56170, Note_on_c, 9, 54, 0
7, 56240, Note_on_c, 9, 42, 0
7, 56280, Note_on_c, 9, 42, 106
7, 56360, Note_on_c, 9, 42, 0
7, 56400, Note_on_c, 9, 42, 106
7, 56400, Note_on_c, 9, 63, 106
7, 56405, Note_on_c, 9, 63, 0
7, 56415, Note_on_c, 9, 42, 0
7, 56520, Note_on_c, 9, 42, 106
7, 56520, Note_on_c, 9, 64, 106
7, 56525, Note_on_c, 9, 64, 0
7, 56600, Note_on_c, 9, 42, 0
7, 56640, Note_on_c, 9, 42, 106
7, 56640, Note_on_c, 9, 54, 106
7, 56695, Note_on_c, 9, 54, 0
7, 56720, Note_on_c, 9, 42, 0
7, 56760, Note_on_c, 9, 42, 106
7, 56775, Note_on_c, 9, 42, 0
7, 56880, Note_on_c, 9, 42, 106
7, 56880, Note_on_c, 9, 63, 106
7, 56895, Note_on_c, 9, 63, 0
7, 56935, Note_on_c, 9, 42, 0
7, 57000, Note_on_c, 9, 42, 106
7, 57000, Note_on_c, 9, 63, 106
7, 57035, Note_on_c, 9, 63, 0
7, 57080, Note_on_c, 9, 42, 0
7, 57120, Note_on_c, 9, 42, 106
7, 57120, Note_on_c, 9, 54, 106
7, 57130, Note_on_c, 9, 54, 0
7, 57200, Note_on_c, 9, 42, 0
7, 57240, Note_on_c, 9, 42, 106
7, 57320, Note_on_c, 9, 42, 0
7, 57360, Note_on_c, 9, 42, 106
7, 57360, Note_on_c, 9, 63, 106
7, 57365, Note_on_c, 9, 63, 0
7, 57375, Note_on_c, 9, 42, 0
7, 57480, Note_on_c, 9, 42, 106
7, 57480, Note_on_c, 9, 64, 106
7, 57485, Note_on_c, 9, 64, 0
7, 57560, Note_on_c, 9, 42, 0
7, 57600, Note_on_c, 9, 42, 106
7, 57600, Note_on_c, 9, 54, 106
7, 57655, Note_on_c, 9, 54, 0
7, 57680, Note_on_c, 9, 42, 0
7, 57720, Note_on_c, 9, 42, 106
7, 57735, Note_on_c, 9, 42, 0
7, 57840, Note_on_c, 9, 42, 106
7, 57840, Note_on_c, 9, 63, 106
7, 57855, Note_on_c, 9, 63, 0
7, 57895, Note_on_c, 9, 42, 0
7, 57960, Note_on_c, 9, 42, 106
7, 57960, Note_on_c, 9, 63, 106
7, 57995, Note_on_c, 9, 63, 0
7, 58040, Note_on_c, 9, 42, 0
7, 58080, Note_on_c, 9, 42, 106
7, 58080, Note_on_c, 9, 54, 106
7, 58090, Note_on_c, 9, 54, 0
7, 58160, Note_on_c, 9, 42, 0
7, 58200, Note_on_c, 9, 42, 106
7, 58280, Note_on_c, 9, 42, 0
7, 58320, Note_on_c, 9, 42, 106
7, 58320, Note_on_c, 9, 63, 106
7, 58325, Note_on_c, 9, 63, 0
7, 58335, Note_on_c, 9, 42, 0
7, 58440, Note_on_c, 9, 42, 106
7, 58440, Note_on_c, 9, 64, 106
7, 58445, Note_on_c, 9, 64, 0
7, 58520, Note_on_c, 9, 42, 0
7, 58560, Note_on_c, 9, 42, 106
7, 58560, Note_on_c, 9, 54, 106
7, 58615, Note_on_c, 9, 54, 0
7, 58640, Note_on_c, 9, 42, 0
7, 58680, Note_on_c, 9, 42, 106
7, 58695, Note_on_c, 9, 42, 0
7, 58800, Note_on_c, 9, 42, 106
7, 58800, Note_on_c, 9, 63, 106
7, 58815, Note_on_c, 9, 63, 0
7, 58855, Note_on_c, 9, 42, 0
7, 58920, Note_on_c, 9, 42, 106
7, 58920, Note_on_c, 9, 63, 106
7, 58955, Note_on_c, 9, 63, 0
7, 59000, Note_on_c, 9, 42, 0
7, 59040, Note_on_c, 9, 42, 106
7, 59040, Note_on_c, 9, 54, 106
7, 59050, Note_on_c, 9, 54, 0
7, 59120, Note_on_c, 9, 42, 0
7, 59160, Note_on_c, 9, 42, 106
7, 59240, Note_on_c, 9, 42, 0
7, 59280, Note_on_c, 9, 42, 106
7, 59280, Note_on_c, 9, 63, 106
7, 59285, Note_on_c, 9, 63, 0
7, 59295, Note_on_c, 9, 42, 0
7, 59400, Note_on_c, 9, 42, 106
7, 59400, Note_on_c, 9, 64, 106
7, 59405, Note_on_c, 9, 64, 0
7, 59480, Note_on_c, 9, 42, 0
7, 59520, Note_on_c, 9, 42, 106
7, 59520, Note_on_c, 9, 54, 106
7, 59575, Note_on_c, 9, 54, 0
7, 59600, Note_on_c, 9, 42, 0
7, 59640, Note_on_c, 9, 42, 106
7, 59655, Note_on_c, 9, 42, 0
7, 59760, Note_on_c, 9, 42, 106
7, 59760, Note_on_c, 9, 63, 106
7, 59775, Note_on_c, 9, 63, 0
7, 59815, Note_on_c, 9, 42, 0
7, 59880, Note_on_c, 9, 42, 106
7, 59880, Note_on_c, 9, 63, 106
7, 59915, Note_on_c, 9, 63, 0
7, 59960, Note_on_c, 9, 42, 0
7, 60000, Note_on_c, 9, 42, 106
7, 60000, Note_on_c, 9, 54, 106
7, 60010, Note_on_c, 9, 54, 0
7, 60080, Note_on_c, 9, 42, 0
7, 60120, Note_on_c, 9, 42, 106
7, 60200, Note_on_c, 9, 42, 0
7, 60240, Note_on_c, 9, 42, 106
7, 60240, Note_on_c, 9, 63, 106
7, 60245, Note_on_c, 9, 63, 0
7, 60255, Note_on_c, 9, 42, 0
7, 60360, Note_on_c, 9, 42, 106
7, 60360, Note_on_c, 9, 64, 106
7, 60365, Note_on_c, 9, 64, 0
7, 60440, Note_on_c, 9, 42, 0
7, 60480, Note_on_c, 9, 42, 106
7, 60480, Note_on_c, 9, 54, 106
7, 60535, Note_on_c, 9, 54, 0
7, 60560, Note_on_c, 9, 42, 0
7, 60600, Note_on_c, 9, 42, 106
7, 60615, Note_on_c, 9, 42, 0
7, 60720, Note_on_c, 9, 42, 106
7, 60720, Note_on_c, 9, 63, 106
7, 60735, Note_on_c, 9, 63, 0
7, 60775, Note_on_c, 9, 42, 0
7, 60840, Note_on_c, 9, 42, 106
7, 60840, Note_on_c, 9, 63, 106
7, 60875, Note_on_c, 9, 63, 0
7, 60920, Note_on_c, 9, 42, 0
7, 60960, Note_on_c, 9, 42, 106
7, 60960, Note_on_c, 9, 54, 106
7, 60970, Note_on_c, 9, 54, 0
7, 61040, Note_on_c, 9, 42, 0
7, 61080, Note_on_c, 9, 42, 106
7, 61160, Note_on_c, 9, 42, 0
7, 61200, Note_on_c, 9, 42, 106
7, 61200, Note_on_c, 9, 63, 106
7, 61205, Note_on_c, 9, 63, 0
7, 61215, Note_on_c, 9, 42, 0
7, 61320, Note_on_c, 9, 42, 106
7, 61320, Note_on_c, 9, 64, 106
7, 61325, Note_on_c, 9, 64, 0
7, 61400, Note_on_c, 9, 42, 0
7, 61440, Note_on_c, 9, 42, 106
7, 61440, Note_on_c, 9, 54, 106
7, 61495, Note_on_c, 9, 54, 0
7, 61520, Note_on_c, 9, 42, 0
7, 61560, Note_on_c, 9, 42, 106
7, 61575, Note_on_c, 9, 42, 0
7, 61680, Note_on_c, 9, 42, 106
7, 61680, Note_on_c, 9, 63, 106
7, 61695, Note_on_c, 9, 63, 0
7, 61735, Note_on_c, 9, 42, 0
7, 61800, Note_on_c, 9, 42, 106
7, 61800, Note_on_c, 9, 63, 106
7, 61835, Note_on_c, 9, 63, 0
7, 61880, Note_on_c, 9, 42, 0
7, 61920, Note_on_c, 9, 42, 106
7, 61920, Note_on_c, 9, 54, 106
7, 61930, Note_on_c, 9, 54, 0
7, 62000, Note_on_c, 9, 42, 0
7, 62040, Note_on_c, 9, 42, 106
7, 62120, Note_on_c, 9, 42, 0
7, 62160, Note_on_c, 9, 42, 106
7, 62160, Note_on_c, 9, 63, 106
7, 62165, Note_on_c, 9, 63, 0
7, 62175, Note_on_c, 9, 42, 0
7, 62280, Note_on_c, 9, 42, 106
7, 62280, Note_on_c, 9, 64, 106
7, 62285, Note_on_c, 9, 64, 0
7, 62360, Note_on_c, 9, 42, 0
7, 62400, Note_on_c, 9, 42, 106
7, 62400, Note_on_c, 9, 54, 106
7, 62455, Note_on_c, 9, 54, 0
7, 62480, Note_on_c, 9, 42, 0
7, 62520, Note_on_c, 9, 42, 106
7, 62535, Note_on_c, 9, 42, 0
7, 62640, Note_on_c, 9, 42, 106
7, 62640, Note_on_c, 9, 63, 106
7, 62655, Note_on_c, 9, 63, 0
7, 62695, Note_on_c, 9, 42, 0
7, 62760, Note_on_c, 9, 42, 106
7, 62760, Note_on_c, 9, 63, 106
7, 62795, Note_on_c, 9, 63, 0
7, 62840, Note_on_c, 9, 42, 0
7, 62880, Note_on_c, 9, 42, 106
7, 62880, Note_on_c, 9, 54, 106
7, 62890, Note_on_c, 9, 54, 0
7, 62960, Note_on_c, 9, 42, 0
7, 63000, Note_on_c, 9, 42, 106
7, 63080, Note_on_c, 9, 42, 0
7, 63120, Note_on_c, 9, 42, 106
7, 63120, Note_on_c, 9, 63, 106
7, 63125, Note_on_c, 9, 63, 0
7, 63135, Note_on_c, 9, 42, 0
7, 63240, Note_on_c, 9, 42, 106
7, 63240, Note_on_c, 9, 64, 106
7, 63245, Note_on_c, 9, 64, 0
7, 63320, Note_on_c, 9, 42, 0
7, 63360, Note_on_c, 9, 42, 106
7, 63360, Note_on_c, 9, 54, 106
7, 63415, Note_on_c, 9, 54, 0
7, 63440, Note_on_c, 9, 42, 0
7, 63480, Note_on_c, 9, 42, 106
7, 63495, Note_on_c, 9, 42, 0
7, 63600, Note_on_c, 9, 42, 106
7, 63600, Note_on_c, 9, 63, 106
7, 63615, Note_on_c, 9, 63, 0
7, 63655, Note_on_c, 9, 42, 0
7, 63720, Note_on_c, 9, 42, 106
7, 63720, Note_on_c, 9, 63, 106
7, 63755, Note_on_c, 9, 63, 0
7, 63800, Note_on_c, 9, 42, 0
7, 63840, Note_on_c, 9, 42, 106
7, 63840, Note_on_c, 9, 54, 106
7, 63850, Note_on_c, 9, 54, 0
7, 63920, Note_on_c, 9, 42, 0
7, 63960, Note_on_c, 9, 42, 106
7, 64040, Note_on_c, 9, 42, 0
7, 64080, Note_on_c, 9, 42, 106
7, 64080, Note_on_c, 9, 63, 106
7, 64085, Note_on_c, 9, 63, 0
7, 64095, Note_on_c, 9, 42, 0
7, 64200, Note_on_c, 9, 42, 106
7, 64200, Note_on_c, 9, 64, 106
7, 64205, Note_on_c, 9, 64, 0
7, 64280, Note_on_c, 9, 42, 0
7, 64320, Note_on_c, 9, 42, 106
7, 64320, Note_on_c, 9, 54, 106
7, 64375, Note_on_c, 9, 54, 0
7, 64400, Note_on_c, 9, 42, 0
7, 64440, Note_on_c, 9, 42, 106
7, 64455, Note_on_c, 9, 42, 0
7, 64560, Note_on_c, 9, 42, 106
7, 64560, Note_on_c, 9, 63, 106
7, 64575, Note_on_c, 9, 63, 0
7, 64615, Note_on_c, 9, 42, 0
7, 64680, Note_on_c, 9, 42, 106
7, 64680, Note_on_c, 9, 63, 106
7, 64715, Note_on_c, 9, 63, 0
7, 64760, Note_on_c, 9, 42, 0
7, 64800, Note_on_c, 9, 42, 106
7, 64800, Note_on_c, 9, 54, 106
7, 64810, Note_on_c, 9, 54, 0
7, 64880, Note_on_c, 9, 42, 0
7, 64920, Note_on_c, 9, 42, 106
7, 65000, Note_on_c, 9, 42, 0
7, 65040, Note_on_c, 9, 42, 106
7, 65040, Note_on_c, 9, 63, 106
7, 65045, Note_on_c, 9, 63, 0
7, 65055, Note_on_c, 9, 42, 0
7, 65160, Note_on_c, 9, 42, 106
7, 65160, Note_on_c, 9, 64, 106
7, 65165, Note_on_c, 9, 64, 0
7, 65240, Note_on_c, 9, 42, 0
7, 65280, Note_on_c, 9, 42, 106
7, 65280, Note_on_c, 9, 54, 106
7, 65335, Note_on_c, 9, 54, 0
7, 65360, Note_on_c, 9, 42, 0
7, 65400, Note_on_c, 9, 42, 106
7, 65415, Note_on_c, 9, 42, 0
7, 65520, Note_on_c, 9, 42, 106
7, 65520, Note_on_c, 9, 63, 106
7, 65535, Note_on_c, 9, 63, 0
7, 65575, Note_on_c, 9, 42, 0
7, 65640, Note_on_c, 9, 42, 106
7, 65640, Note_on_c, 9, 63, 106
7, 65675, Note_on_c, 9, 63, 0
7, 65720, Note_on_c, 9, 42, 0
7, 65760, Note_on_c, 9, 42, 106
7, 65760, Note_on_c, 9, 54, 106
7, 65770, Note_on_c, 9, 54, 0
7, 65840, Note_on_c, 9, 42, 0
7, 65880, Note_on_c, 9, 42, 106
7, 65960, Note_on_c, 9, 42, 0
7, 66000, Note_on_c, 9, 42, 106
7, 66000, Note_on_c, 9, 63, 106
7, 66005, Note_on_c, 9, 63, 0
7, 66015, Note_on_c, 9, 42, 0
7, 66120, Note_on_c, 9, 42, 106
7, 66120, Note_on_c, 9, 64, 106
7, 66125, Note_on_c, 9, 64, 0
7, 66200, Note_on_c, 9, 42, 0
7, 66240, Note_on_c, 9, 42, 106
7, 66240, Note_on_c, 9, 54, 106
7, 66295, Note_on_c, 9, 54, 0
7, 66320, Note_on_c, 9, 42, 0
7, 66360, Note_on_c, 9, 42, 106
7, 66375, Note_on_c, 9, 42, 0
7, 66480, Note_on_c, 9, 42, 106
7, 66480, Note_on_c, 9, 63, 106
7, 66495, Note_on_c, 9, 63, 0
7, 66535, Note_on_c, 9, 42, 0
7, 66600, Note_on_c, 9, 42, 106
7, 66600, Note_on_c, 9, 63, 106
7, 66635, Note_on_c, 9, 63, 0
7, 66680, Note_on_c, 9, 42, 0
7, 66720, Note_on_c, 9, 42, 106
7, 66720, Note_on_c, 9, 54, 106
7, 66730, Note_on_c, 9, 54, 0
7, 66800, Note_on_c, 9, 42, 0
7, 66840, Note_on_c, 9, 42, 106
7, 66920, Note_on_c, 9, 42, 0
7, 66960, Note_on_c, 9, 42, 106
7, 66960, Note_on_c, 9, 63, 106
7, 66965, Note_on_c, 9, 63, 0
7, 66975, Note_on_c, 9, 42, 0
7, 67080, Note_on_c, 9, 42, 106
7, 67080, Note_on_c, 9, 64, 106
7, 67085, Note_on_c, 9, 64, 0
7, 67160, Note_on_c, 9, 42, 0
7, 67200, Note_on_c, 9, 42, 106
7, 67200, Note_on_c, 9, 54, 106
7, 67255, Note_on_c, 9, 54, 0
7, 67280, Note_on_c, 9, 42, 0
7, 67320, Note_on_c, 9, 42, 106
7, 67335, Note_on_c, 9, 42, 0
7, 67440, Note_on_c, 9, 42, 106
7, 67440, Note_on_c, 9, 63, 106
7, 67455, Note_on_c, 9, 63, 0
7, 67495, Note_on_c, 9, 42, 0
7, 67560, Note_on_c, 9, 42, 106
7, 67560, Note_on_c, 9, 63, 106
7, 67595, Note_on_c, 9, 63, 0
7, 67640, Note_on_c, 9, 42, 0
7, 67680, Note_on_c, 9, 42, 106
7, 67680, Note_on_c, 9, 54, 106
7, 67690, Note_on_c, 9, 54, 0
7, 67760, Note_on_c, 9, 42, 0
7, 67800, Note_on_c, 9, 42, 106
7, 67880, Note_on_c, 9, 42, 0
7, 67920, Note_on_c, 9, 42, 106
7, 67920, Note_on_c, 9, 63, 106
7, 67925, Note_on_c, 9, 63, 0
7, 67935, Note_on_c, 9, 42, 0
7, 68040, Note_on_c, 9, 42, 106
7, 68040, Note_on_c, 9, 64, 106
7, 68045, Note_on_c, 9, 64, 0
7, 68120, Note_on_c, 9, 42, 0
7, 68160, Note_on_c, 9, 42, 106
7, 68160, Note_on_c, 9, 54, 106
7, 68215, Note_on_c, 9, 54, 0
7, 68240, Note_on_c, 9, 42, 0
7, 68280, Note_on_c, 9, 42, 106
7, 68295, Note_on_c, 9, 42, 0
7, 68400, Note_on_c, 9, 42, 106
7, 68400, Note_on_c, 9, 63, 106
7, 68415, Note_on_c, 9, 63, 0
7, 68455, Note_on_c, 9, 42, 0
7, 68520, Note_on_c, 9, 42, 106
7, 68520, Note_on_c, 9, 63, 106
7, 68555, Note_on_c, 9, 63, 0
7, 68600, Note_on_c, 9, 42, 0
7, 68640, Note_on_c, 9, 42, 106
7, 68640, Note_on_c, 9, 54, 106
7, 68650, Note_on_c, 9, 54, 0
7, 68720, Note_on_c, 9, 42, 0
7, 68760, Note_on_c, 9, 42, 106
7, 68840, Note_on_c, 9, 42, 0
7, 68880, Note_on_c, 9, 42, 106
7, 68880, Note_on_c, 9, 63, 106
7, 68885, Note_on_c, 9, 63, 0
7, 68895, Note_on_c, 9, 42, 0
7, 69000, Note_on_c, 9, 42, 106
7, 69000, Note_on_c, 9, 64, 106
7, 69005, Note_on_c, 9, 64, 0
7, 69080, Note_on_c, 9, 42, 0
7, 69120, Note_on_c, 9, 42, 106
7, 69120, Note_on_c, 9, 54, 106
7, 69175, Note_on_c, 9, 54, 0
7, 69200, Note_on_c, 9, 42, 0
7, 69240, Note_on_c, 9, 42, 106
7, 69255, Note_on_c, 9, 42, 0
7, 69360, Note_on_c, 9, 42, 106
7, 69360, Note_on_c, 9, 63, 106
7, 69375, Note_on_c, 9, 63, 0
7, 69415, Note_on_c, 9, 42, 0
7, 69480, Note_on_c, 9, 42, 106
7, 69480, Note_on_c, 9, 63, 106
7, 69515, Note_on_c, 9, 63, 0
7, 69560, Note_on_c, 9, 42, 0
7, 69600, Note_on_c, 9, 42, 106
7, 69600, Note_on_c, 9, 54, 106
7, 69610, Note_on_c, 9, 54, 0
7, 69680, Note_on_c, 9, 42, 0
7, 69720, Note_on_c, 9, 42, 106
7, 69800, Note_on_c, 9, 42, 0
7, 69840, Note_on_c, 9, 42, 106
7, 69840, Note_on_c, 9, 63, 106
7, 69845, Note_on_c, 9, 63, 0
7, 69855, Note_on_c, 9, 42, 0
7, 69960, Note_on_c, 9, 42, 106
7, 69960, Note_on_c, 9, 64, 106
7, 69965, Note_on_c, 9, 64, 0
7, 70040, Note_on_c, 9, 42, 0
7, 70080, Note_on_c, 9, 42, 106
7, 70080, Note_on_c, 9, 54, 106
7, 70135, Note_on_c, 9, 54, 0
7, 70160, Note_on_c, 9, 42, 0
7, 70200, Note_on_c, 9, 42, 106
7, 70215, Note_on_c, 9, 42, 0
7, 70320, Note_on_c, 9, 42, 106
7, 70320, Note_on_c, 9, 63, 106
7, 70335, Note_on_c, 9, 63, 0
7, 70375, Note_on_c, 9, 42, 0
7, 70440, Note_on_c, 9, 42, 106
7, 70440, Note_on_c, 9, 63, 106
7, 70475, Note_on_c, 9, 63, 0
7, 70520, Note_on_c, 9, 42, 0
7, 70560, Note_on_c, 9, 42, 106
7, 70560, Note_on_c, 9, 54, 106
7, 70570, Note_on_c, 9, 54, 0
7, 70640, Note_on_c, 9, 42, 0
7, 70680, Note_on_c, 9, 42, 106
7, 70760, Note_on_c, 9, 42, 0
7, 70800, Note_on_c, 9, 42, 106
7, 70800, Note_on_c, 9, 63, 106
7, 70805, Note_on_c, 9, 63, 0
7, 70815, Note_on_c, 9, 42, 0
7, 70920, Note_on_c, 9, 42, 106
7, 70920, Note_on_c, 9, 64, 106
7, 70925, Note_on_c, 9, 64, 0
7, 71000, Note_on_c, 9, 42, 0
7, 71040, Note_on_c, 9, 42, 106
7, 71040, Note_on_c, 9, 54, 106
7, 71095, Note_on_c, 9, 54, 0
7, 71120, Note_on_c, 9, 42, 0
7, 71160, Note_on_c, 9, 42, 106
7, 71175, Note_on_c, 9, 42, 0
7, 71280, Note_on_c, 9, 42, 106
7, 71280, Note_on_c, 9, 63, 106
7, 71295, Note_on_c, 9, 63, 0
7, 71335, Note_on_c, 9, 42, 0
7, 71400, Note_on_c, 9, 42, 106
7, 71400, Note_on_c, 9, 63, 106
7, 71435, Note_on_c, 9, 63, 0
7, 71480, Note_on_c, 9, 42, 0
7, 71520, Note_on_c, 9, 42, 106
7, 71520, Note_on_c, 9, 54, 106
7, 71530, Note_on_c, 9, 54, 0
7, 71600, Note_on_c, 9, 42, 0
7, 71640, Note_on_c, 9, 42, 106
7, 71720, Note_on_c, 9, 42, 0
7, 71760, Note_on_c, 9, 42, 106
7, 71760, Note_on_c, 9, 63, 106
7, 71765, Note_on_c, 9, 63, 0
7, 71775, Note_on_c, 9, 42, 0
7, 71880, Note_on_c, 9, 42, 106
7, 71880, Note_on_c, 9, 64, 106
7, 71885, Note_on_c, 9, 64, 0
7, 71960, Note_on_c, 9, 42, 0
7, 72000, Note_on_c, 9, 42, 106
7, 72000, Note_on_c, 9, 54, 106
7, 72055, Note_on_c, 9, 54, 0
7, 72080, Note_on_c, 9, 42, 0
7, 72120, Note_on_c, 9, 42, 106
7, 72135, Note_on_c, 9, 42, 0
7, 72240, Note_on_c, 9, 42, 106
7, 72240, Note_on_c, 9, 63, 106
7, 72255, Note_on_c, 9, 63, 0
7, 72295, Note_on_c, 9, 42, 0
7, 72360, Note_on_c, 9, 42, 106
7, 72360, Note_on_c, 9, 63, 106
7, 72395, Note_on_c, 9, 63, 0
7, 72440, Note_on_c, 9, 42, 0
7, 72480, Note_on_c, 9, 42, 106
7, 72480, Note_on_c, 9, 54, 106
7, 72490, Note_on_c, 9, 54, 0
7, 72560, Note_on_c, 9, 42, 0
7, 72600, Note_on_c, 9, 42, 106
7, 72680, Note_on_c, 9, 42, 0
7, 72720, Note_on_c, 9, 42, 106
7, 72720, Note_on_c, 9, 63, 106
7, 72725, Note_on_c, 9, 63, 0
7, 72735, Note_on_c, 9, 42, 0
7, 72840, Note_on_c, 9, 42, 106
7, 72840, Note_on_c, 9, 64, 106
7, 72845, Note_on_c, 9, 64, 0
7, 72920, Note_on_c, 9, 42, 0
7, 72960, Note_on_c, 9, 42, 106
7, 72960, Note_on_c, 9, 54, 106
7, 73015, Note_on_c, 9, 54, 0
7, 73040, Note_on_c, 9, 42, 0
7, 73080, Note_on_c, 9, 42, 106
7, 73095, Note_on_c, 9, 42, 0
7, 73200, Note_on_c, 9, 42, 106
7, 73200, Note_on_c, 9, 63, 106
7, 73215, Note_on_c, 9, 63, 0
7, 73255, Note_on_c, 9, 42, 0
7, 73320, Note_on_c, 9, 42, 106
7, 73320, Note_on_c, 9, 63, 106
7, 73355, Note_on_c, 9, 63, 0
7, 73400, Note_on_c, 9, 42, 0
7, 73440, Note_on_c, 9, 42, 106
7, 73440, Note_on_c, 9, 54, 106
7, 73450, Note_on_c, 9, 54, 0
7, 73520, Note_on_c, 9, 42, 0
7, 73560, Note_on_c, 9, 42, 106
7, 73640, Note_on_c, 9, 42, 0
7, 73680, Note_on_c, 9, 42, 106
7, 73680, Note_on_c, 9, 63, 106
7, 73685, Note_on_c, 9, 63, 0
7, 73695, Note_on_c, 9, 42, 0
7, 73800, Note_on_c, 9, 42, 106
7, 73800, Note_on_c, 9, 64, 106
7, 73805, Note_on_c, 9, 64, 0
7, 73880, Note_on_c, 9, 42, 0
7, 73920, Note_on_c, 9, 42, 106
7, 73920, Note_on_c, 9, 54, 106
7, 73975, Note_on_c, 9, 54, 0
7, 74000, Note_on_c, 9, 42, 0
7, 74040, Note_on_c, 9, 42, 106
7, 74055, Note_on_c, 9, 42, 0
7, 74160, Note_on_c, 9, 42, 106
7, 74160, Note_on_c, 9, 63, 106
7, 74175, Note_on_c, 9, 63, 0
7, 74215, Note_on_c, 9, 42, 0
7, 74280, Note_on_c, 9, 42, 106
7, 74280, Note_on_c, 9, 63, 106
7, 74315, Note_on_c, 9, 63, 0
7, 74360, Note_on_c, 9, 42, 0
7, 74400, Note_on_c, 9, 42, 106
7, 74400, Note_on_c, 9, 54, 106
7, 74410, Note_on_c, 9, 54, 0
7, 74480, Note_on_c, 9, 42, 0
7, 74520, Note_on_c, 9, 42, 106
7, 74600, Note_on_c, 9, 42, 0
7, 74640, Note_on_c, 9, 42, 106
7, 74640, Note_on_c, 9, 63, 106
7, 74645, Note_on_c, 9, 63, 0
7, 74655, Note_on_c, 9, 42, 0
7, 74760, Note_on_c, 9, 42, 106
7, 74760, Note_on_c, 9, 64, 106
7, 74765, Note_on_c, 9, 64, 0
7, 74840, Note_on_c, 9, 42, 0
7, 74880, Note_on_c, 9, 42, 106
7, 74880, Note_on_c, 9, 54, 106
7, 74935, Note_on_c, 9, 54, 0
7, 74960, Note_on_c, 9, 42, 0
7, 75000, Note_on_c, 9, 42, 106
7, 75015, Note_on_c, 9, 42, 0
7, 75120, Note_on_c, 9, 42, 106
7, 75120, Note_on_c, 9, 63, 106
7, 75135, Note_on_c, 9, 63, 0
7, 75175, Note_on_c, 9, 42, 0
7, 75240, Note_on_c, 9, 42, 106
7, 75240, Note_on_c, 9, 63, 106
7, 75275, Note_on_c, 9, 63, 0
7, 75320, Note_on_c, 9, 42, 0
7, 75360, Note_on_c, 9, 42, 106
7, 75360, Note_on_c, 9, 54, 106
7, 75370, Note_on_c, 9, 54, 0
7, 75440, Note_on_c, 9, 42, 0
7, 75480, Note_on_c, 9, 42, 106
7, 75560, Note_on_c, 9, 42, 0
7, 75600, Note_on_c, 9, 42, 106
7, 75600, Note_on_c, 9, 63, 106
7, 75605, Note_on_c, 9, 63, 0
7, 75615, Note_on_c, 9, 42, 0
7, 75720, Note_on_c, 9, 42, 106
7, 75720, Note_on_c, 9, 64, 106
7, 75725, Note_on_c, 9, 64, 0
7, 75800, Note_on_c, 9, 42, 0
7, 75840, Note_on_c, 9, 42, 106
7, 75840, Note_on_c, 9, 54, 106
7, 75895, Note_on_c, 9, 54, 0
7, 75920, Note_on_c, 9, 42, 0
7, 75960, Note_on_c, 9, 42, 106
7, 75975, Note_on_c, 9, 42, 0
7, 76080, Note_on_c, 9, 42, 106
7, 76080, Note_on_c, 9, 63, 106
7, 76095, Note_on_c, 9, 63, 0
7, 76135, Note_on_c, 9, 42, 0
7, 76200, Note_on_c, 9, 42, 106
7, 76200, Note_on_c, 9, 63, 106
7, 76235, Note_on_c, 9, 63, 0
7, 76280, Note_on_c, 9, 42, 0
7, 76320, Note_on_c, 9, 42, 106
7, 76320, Note_on_c, 9, 54, 106
7, 76330, Note_on_c, 9, 54, 0
7, 76400, Note_on_c, 9, 42, 0
7, 76440, Note_on_c, 9, 42, 106
7, 76520, Note_on_c, 9, 42, 0
7, 76560, Note_on_c, 9, 42, 106
7, 76560, Note_on_c, 9, 63, 106
7, 76565, Note_on_c, 9, 63, 0
7, 76575, Note_on_c, 9, 42, 0
7, 76680, Note_on_c, 9, 42, 106
7, 76680, Note_on_c, 9, 64, 106
7, 76685, Note_on_c, 9, 64, 0
7, 76760, Note_on_c, 9, 42, 0
7, 76800, Note_on_c, 9, 42, 106
7, 76800, Note_on_c, 9, 54, 106
7, 76855, Note_on_c, 9, 54, 0
7, 76880, Note_on_c, 9, 42, 0
7, 76920, Note_on_c, 9, 42, 106
7, 76935, Note_on_c, 9, 42, 0
7, 77040, Note_on_c, 9, 42, 106
7, 77040, Note_on_c, 9, 63, 106
7, 77055, Note_on_c, 9, 63, 0
7, 77095, Note_on_c, 9, 42, 0
7, 77160, Note_on_c, 9, 42, 106
7, 77160, Note_on_c, 9, 63, 106
7, 77195, Note_on_c, 9, 63, 0
7, 77240, Note_on_c, 9, 42, 0
7, 77280, Note_on_c, 9, 42, 106
7, 77280, Note_on_c, 9, 54, 106
7, 77290, Note_on_c, 9, 54, 0
7, 77360, Note_on_c, 9, 42, 0
7, 77400, Note_on_c, 9, 42, 106
7, 77480, Note_on_c, 9, 42, 0
7, 77520, Note_on_c, 9, 42, 106
7, 77520, Note_on_c, 9, 63, 106
7, 77525, Note_on_c, 9, 63, 0
7, 77535, Note_on_c, 9, 42, 0
7, 77640, Note_on_c, 9, 42, 106
7, 77640, Note_on_c, 9, 64, 106
7, 77645, Note_on_c, 9, 64, 0
7, 77720, Note_on_c, 9, 42, 0
7, 77760, Note_on_c, 9, 42, 106
7, 77760, Note_on_c, 9, 54, 106
7, 77815, Note_on_c, 9, 54, 0
7, 77840, Note_on_c, 9, 42, 0
7, 77880, Note_on_c, 9, 42, 106
7, 77895, Note_on_c, 9, 42, 0
7, 78000, Note_on_c, 9, 42, 106
7, 78000, Note_on_c, 9, 63, 106
7, 78015, Note_on_c, 9, 63, 0
7, 78055, Note_on_c, 9, 42, 0
7, 78120, Note_on_c, 9, 42, 106
7, 78120, Note_on_c, 9, 63, 106
7, 78155, Note_on_c, 9, 63, 0
7, 78200, Note_on_c, 9, 42, 0
7, 78240, Note_on_c, 9, 42, 106
7, 78240, Note_on_c, 9, 54, 106
7, 78250, Note_on_c, 9, 54, 0
7, 78320, Note_on_c, 9, 42, 0
7, 78360, Note_on_c, 9, 42, 106
7, 78440, Note_on_c, 9, 42, 0
7, 78480, Note_on_c, 9, 42, 106
7, 78480, Note_on_c, 9, 63, 106
7, 78485, Note_on_c, 9, 63, 0
7, 78495, Note_on_c, 9, 42, 0
7, 78600, Note_on_c, 9, 42, 106
7, 78600, Note_on_c, 9, 64, 106
7, 78605, Note_on_c, 9, 64, 0
7, 78680, Note_on_c, 9, 42, 0
7, 78720, Note_on_c, 9, 42, 106
7, 78720, Note_on_c, 9, 54, 106
7, 78775, Note_on_c, 9, 54, 0
7, 78800, Note_on_c, 9, 42, 0
7, 78840, Note_on_c, 9, 42, 106
7, 78855, Note_on_c, 9, 42, 0
7, 78960, Note_on_c, 9, 42, 106
7, 78960, Note_on_c, 9, 63, 106
7, 78975, Note_on_c, 9, 63, 0
7, 79015, Note_on_c, 9, 42, 0
7, 79080, Note_on_c, 9, 42, 106
7, 79080, Note_on_c, 9, 63, 106
7, 79115, Note_on_c, 9, 63, 0
7, 79160, Note_on_c, 9, 42, 0
7, 79200, Note_on_c, 9, 42, 106
7, 79200, Note_on_c, 9, 54, 106
7, 79210, Note_on_c, 9, 54, 0
7, 79280, Note_on_c, 9, 42, 0
7, 79320, Note_on_c, 9, 42, 106
7, 79400, Note_on_c, 9, 42, 0
7, 79440, Note_on_c, 9, 42, 106
7, 79440, Note_on_c, 9, 63, 106
7, 79445, Note_on_c, 9, 63, 0
7, 79455, Note_on_c, 9, 42, 0
7, 79560, Note_on_c, 9, 42, 106
7, 79560, Note_on_c, 9, 64, 106
7, 79565, Note_on_c, 9, 64, 0
7, 79640, Note_on_c, 9, 42, 0
7, 79680, Note_on_c, 9, 42, 106
7, 79680, Note_on_c, 9, 54, 106
7, 79735, Note_on_c, 9, 54, 0
7, 79760, Note_on_c, 9, 42, 0
7, 79800, Note_on_c, 9, 42, 106
7, 79815, Note_on_c, 9, 42, 0
7, 79920, Note_on_c, 9, 42, 106
7, 79920, Note_on_c, 9, 63, 106
7, 79935, Note_on_c, 9, 63, 0
7, 79975, Note_on_c, 9, 42, 0
7, 80040, Note_on_c, 9, 42, 106
7, 80040, Note_on_c, 9, 63, 106
7, 80075, Note_on_c, 9, 63, 0
7, 80120, Note_on_c, 9, 42, 0
7, 80160, Note_on_c, 9, 42, 106
7, 80160, Note_on_c, 9, 54, 106
7, 80170, Note_on_c, 9, 54, 0
7, 80240, Note_on_c, 9, 42, 0
7, 80280, Note_on_c, 9, 42, 106
7, 80360, Note_on_c, 9, 42, 0
7, 80400, Note_on_c, 9, 42, 106
7, 80400, Note_on_c, 9, 63, 106
7, 80405, Note_on_c, 9, 63, 0
7, 80415, Note_on_c, 9, 42, 0
7, 80520, Note_on_c, 9, 42, 106
7, 80520, Note_on_c, 9, 64, 106
7, 80525, Note_on_c, 9, 64, 0
7, 80600, Note_on_c, 9, 42, 0
7, 80640, Note_on_c, 9, 42, 106
7, 80640, Note_on_c, 9, 54, 106
7, 80695, Note_on_c, 9, 54, 0
7, 80720, Note_on_c, 9, 42, 0
7, 80760, Note_on_c, 9, 42, 106
7, 80775, Note_on_c, 9, 42, 0
7, 80880, Note_on_c, 9, 42, 106
7, 80880, Note_on_c, 9, 63, 106
7, 80895, Note_on_c, 9, 63, 0
7, 80935, Note_on_c, 9, 42, 0
7, 81000, Note_on_c, 9, 42, 106
7, 81000, Note_on_c, 9, 63, 106
7, 81035, Note_on_c, 9, 63, 0
7, 81080, Note_on_c, 9, 42, 0
7, 81120, Note_on_c, 9, 42, 106
7, 81120, Note_on_c, 9, 54, 106
7, 81130, Note_on_c, 9, 54, 0
7, 81200, Note_on_c, 9, 42, 0
7, 81240, Note_on_c, 9, 42, 106
7, 81320, Note_on_c, 9, 42, 0
7, 81360, Note_on_c, 9, 42, 106
7, 81360, Note_on_c, 9, 63, 106
7, 81365, Note_on_c, 9, 63, 0
7, 81375, Note_on_c, 9, 42, 0
7, 81480, Note_on_c, 9, 42, 106
7, 81480, Note_on_c, 9, 64, 106
7, 81485, Note_on_c, 9, 64, 0
7, 81560, Note_on_c, 9, 42, 0
7, 81600, Note_on_c, 9, 42, 106
7, 81600, Note_on_c, 9, 54, 106
7, 81655, Note_on_c, 9, 54, 0
7, 81680, Note_on_c, 9, 42, 0
7, 81720, Note_on_c, 9, 42, 106
7, 81735, Note_on_c, 9, 42, 0
7, 81840, Note_on_c, 9, 42, 106
7, 81840, Note_on_c, 9, 63, 106
7, 81855, Note_on_c, 9, 63, 0
7, 81895, Note_on_c, 9, 42, 0
7, 81960, Note_on_c, 9, 42, 106
7, 81960, Note_on_c, 9, 63, 106
7, 81995, Note_on_c, 9, 63, 0
7, 82040, Note_on_c, 9, 42, 0
7, 82080, Note_on_c, 9, 42, 106
7, 82080, Note_on_c, 9, 54, 106
7, 82090, Note_on_c, 9, 54, 0
7, 82160, Note_on_c, 9, 42, 0
7, 82200, Note_on_c, 9, 42, 106
7, 82280, Note_on_c, 9, 42, 0
7, 82320, Note_on_c, 9, 42, 106
7, 82320, Note_on_c, 9, 63, 106
7, 82325, Note_on_c, 9, 63, 0
7, 82335, Note_on_c, 9, 42, 0
7, 82440, Note_on_c, 9, 42, 106
7, 82440, Note_on_c, 9, 64, 106
7, 82445, Note_on_c, 9, 64, 0
7, 82520, Note_on_c, 9, 42, 0
7, 82560, Note_on_c, 9, 42, 106
7, 82560, Note_on_c, 9, 54, 106
7, 82615, Note_on_c, 9, 54, 0
7, 82640, Note_on_c, 9, 42, 0
7, 82680, Note_on_c, 9, 42, 106
7, 82695, Note_on_c, 9, 42, 0
7, 82800, Note_on_c, 9, 42, 106
7, 82800, Note_on_c, 9, 63, 106
7, 82815, Note_on_c, 9, 63, 0
7, 82855, Note_on_c, 9, 42, 0
7, 82920, Note_on_c, 9, 42, 106
7, 82920, Note_on_c, 9, 63, 106
7, 82955, Note_on_c, 9, 63, 0
7, 83000, Note_on_c, 9, 42, 0
7, 83040, Note_on_c, 9, 42, 106
7, 83040, Note_on_c, 9, 54, 106
7, 83050, Note_on_c, 9, 54, 0
7, 83120, Note_on_c, 9, 42, 0
7, 83160, Note_on_c, 9, 42, 106
7, 83240, Note_on_c, 9, 42, 0
7, 83280, Note_on_c, 9, 42, 106
7, 83280, Note_on_c, 9, 63, 106
7, 83285, Note_on_c, 9, 63, 0
7, 83295, Note_on_c, 9, 42, 0
7, 83400, Note_on_c, 9, 42, 106
7, 83400, Note_on_c, 9, 64, 106
7, 83405, Note_on_c, 9, 64, 0
7, 83480, Note_on_c, 9, 42, 0
7, 83520, Note_on_c, 9, 42, 106
7, 83520, Note_on_c, 9, 54, 106
7, 83575, Note_on_c, 9, 54, 0
7, 83600, Note_on_c, 9, 42, 0
7, 83640, Note_on_c, 9, 42, 106
7, 83655, Note_on_c, 9, 42, 0
7, 83760, Note_on_c, 9, 42, 106
7, 83760, Note_on_c, 9, 63, 106
7, 83775, Note_on_c, 9, 63, 0
7, 83815, Note_on_c, 9, 42, 0
7, 83880, Note_on_c, 9, 42, 106
7, 83880, Note_on_c, 9, 63, 106
7, 83915, Note_on_c, 9, 63, 0
7, 83960, Note_on_c, 9, 42, 0
7, 84000, Note_on_c, 9, 42, 106
7, 84000, Note_on_c, 9, 54, 106
7, 84010, Note_on_c, 9, 54, 0
7, 84080, Note_on_c, 9, 42, 0
7, 84120, Note_on_c, 9, 42, 106
7, 84200, Note_on_c, 9, 42, 0
7, 84240, Note_on_c, 9, 42, 106
7, 84240, Note_on_c, 9, 63, 106
7, 84245, Note_on_c, 9, 63, 0
7, 84255, Note_on_c, 9, 42, 0
7, 84360, Note_on_c, 9, 42, 106
7, 84360, Note_on_c, 9, 64, 106
7, 84365, Note_on_c, 9, 64, 0
7, 84440, Note_on_c, 9, 42, 0
7, 84480, Note_on_c, 9, 42, 106
7, 84480, Note_on_c, 9, 54, 106
7, 84535, Note_on_c, 9, 54, 0
7, 84560, Note_on_c, 9, 42, 0
7, 84600, Note_on_c, 9, 42, 106
7, 84615, Note_on_c, 9, 42, 0
7, 84720, Note_on_c, 9, 42, 106
7, 84720, Note_on_c, 9, 63, 106
7, 84735, Note_on_c, 9, 63, 0
7, 84775, Note_on_c, 9, 42, 0
7, 84840, Note_on_c, 9, 42, 106
7, 84840, Note_on_c, 9, 63, 106
7, 84875, Note_on_c, 9, 63, 0
7, 84920, Note_on_c, 9, 42, 0
7, 84960, Note_on_c, 9, 42, 106
7, 84960, Note_on_c, 9, 54, 106
7, 84970, Note_on_c, 9, 54, 0
7, 85040, Note_on_c, 9, 42, 0
7, 85080, Note_on_c, 9, 42, 106
7, 85160, Note_on_c, 9, 42, 0
7, 85200, Note_on_c, 9, 42, 106
7, 85200, Note_on_c, 9, 63, 106
7, 85205, Note_on_c, 9, 63, 0
7, 85215, Note_on_c, 9, 42, 0
7, 85320, Note_on_c, 9, 42, 106
7, 85320, Note_on_c, 9, 64, 106
7, 85325, Note_on_c, 9, 64, 0
7, 85400, Note_on_c, 9, 42, 0
7, 85440, Note_on_c, 9, 42, 106
7, 85440, Note_on_c, 9, 54, 106
7, 85495, Note_on_c, 9, 54, 0
7, 85520, Note_on_c, 9, 42, 0
7, 85560, Note_on_c, 9, 42, 106
7, 85575, Note_on_c, 9, 42, 0
7, 85680, Note_on_c, 9, 42, 106
7, 85680, Note_on_c, 9, 63, 106
7, 85695, Note_on_c, 9, 63, 0
7, 85735, Note_on_c, 9, 42, 0
7, 85800, Note_on_c, 9, 42, 106
7, 85800, Note_on_c, 9, 63, 106
7, 85835, Note_on_c, 9, 63, 0
7, 85880, Note_on_c, 9, 42, 0
7, 85920, Note_on_c, 9, 42, 106
7, 85920, Note_on_c, 9, 54, 106
7, 85930, Note_on_c, 9, 54, 0
7, 86000, Note_on_c, 9, 42, 0
7, 86040, Note_on_c, 9, 42, 106
7, 86120, Note_on_c, 9, 42, 0
7, 86160, Note_on_c, 9, 42, 106
7, 86160, Note_on_c, 9, 63, 106
7, 86165, Note_on_c, 9, 63, 0
7, 86175, Note_on_c, 9, 42, 0
7, 86280, Note_on_c, 9, 42, 106
7, 86280, Note_on_c, 9, 64, 106
7, 86285, Note_on_c, 9, 64, 0
7, 86360, Note_on_c, 9, 42, 0
7, 86400, Note_on_c, 9, 42, 106
7, 86400, Note_on_c, 9, 54, 106
7, 86455, Note_on_c, 9, 54, 0
7, 86480, Note_on_c, 9, 42, 0
7, 86520, Note_on_c, 9, 42, 106
7, 86535, Note_on_c, 9, 42, 0
7, 86640, Note_on_c, 9, 42, 106
7, 86640, Note_on_c, 9, 63, 106
7, 86655, Note_on_c, 9, 63, 0
7, 86695, Note_on_c, 9, 42, 0
7, 86760, Note_on_c, 9, 42, 106
7, 86760, Note_on_c, 9, 63, 106
7, 86795, Note_on_c, 9, 63, 0
7, 86840, Note_on_c, 9, 42, 0
7, 86880, Note_on_c, 9, 42, 106
7, 86880, Note_on_c, 9, 54, 106
7, 86890, Note_on_c, 9, 54, 0
7, 86960, Note_on_c, 9, 42, 0
7, 87000, Note_on_c, 9, 42, 106
7, 87080, Note_on_c, 9, 42, 0
7, 87120, Note_on_c, 9, 42, 106
7, 87120, Note_on_c, 9, 63, 106
7, 87125, Note_on_c, 9, 63, 0
7, 87135, Note_on_c, 9, 42, 0
7, 87240, Note_on_c, 9, 42, 106
7, 87240, Note_on_c, 9, 64, 106
7, 87245, Note_on_c, 9, 64, 0
7, 87320, Note_on_c, 9, 42, 0
7, 87360, Note_on_c, 9, 42, 106
7, 87360, Note_on_c, 9, 54, 106
7, 87415, Note_on_c, 9, 54, 0
7, 87440, Note_on_c, 9, 42, 0
7, 87480, Note_on_c, 9, 42, 106
7, 87495, Note_on_c, 9, 42, 0
7, 87600, Note_on_c, 9, 42, 106
7, 87600, Note_on_c, 9, 63, 106
7, 87615, Note_on_c, 9, 63, 0
7, 87655, Note_on_c, 9, 42, 0
7, 87720, Note_on_c, 9, 42, 106
7, 87720, Note_on_c, 9, 63, 106
7, 87755, Note_on_c, 9, 63, 0
7, 87800, Note_on_c, 9, 42, 0
7, 87840, Note_on_c, 9, 42, 106
7, 87840, Note_on_c, 9, 54, 106
7, 87850, Note_on_c, 9, 54, 0
7, 87920, Note_on_c, 9, 42, 0
7, 87960, Note_on_c, 9, 42, 106
7, 88040, Note_on_c, 9, 42, 0
7, 88080, Note_on_c, 9, 42, 106
7, 88080, Note_on_c, 9, 63, 106
7, 88085, Note_on_c, 9, 63, 0
7, 88095, Note_on_c, 9, 42, 0
7, 88200, Note_on_c, 9, 42, 106
7, 88200, Note_on_c, 9, 64, 106
7, 88205, Note_on_c, 9, 64, 0
7, 88280, Note_on_c, 9, 42, 0
7, 88320, Note_on_c, 9, 42, 106
7, 88320, Note_on_c, 9, 54, 106
7, 88375, Note_on_c, 9, 54, 0
7, 88400, Note_on_c, 9, 42, 0
7, 88440, Note_on_c, 9, 42, 106
7, 88455, Note_on_c, 9, 42, 0
7, 88560, Note_on_c, 9, 42, 106
7, 88560, Note_on_c, 9, 63, 106
7, 88575, Note_on_c, 9, 63, 0
7, 88615, Note_on_c, 9, 42, 0
7, 88680, Note_on_c, 9, 42, 106
7, 88680, Note_on_c, 9, 63, 106
7, 88715, Note_on_c, 9, 63, 0
7, 88760, Note_on_c, 9, 42, 0
7, 88800, Note_on_c, 9, 42, 106
7, 88800, Note_on_c, 9, 54, 106
7, 88810, Note_on_c, 9, 54, 0
7, 88880, Note_on_c, 9, 42, 0
7, 88920, Note_on_c, 9, 42, 106
7, 89000, Note_on_c, 9, 42, 0
7, 89040, Note_on_c, 9, 42, 106
7, 89040, Note_on_c, 9, 63, 106
7, 89045, Note_on_c, 9, 63, 0
7, 89055, Note_on_c, 9, 42, 0
7, 89160, Note_on_c, 9, 42, 106
7, 89160, Note_on_c, 9, 64, 106
7, 89165, Note_on_c, 9, 64, 0
7, 89240, Note_on_c, 9, 42, 0
7, 89280, Note_on_c, 9, 42, 106
7, 89280, Note_on_c, 9, 54, 106
7, 89335, Note_on_c, 9, 54, 0
7, 89360, Note_on_c, 9, 42, 0
7, 89400, Note_on_c, 9, 42, 106
7, 89415, Note_on_c, 9, 42, 0
7, 89520, Note_on_c, 9, 42, 106
7, 89520, Note_on_c, 9, 63, 106
7, 89535, Note_on_c, 9, 63, 0
7, 89575, Note_on_c, 9, 42, 0
7, 89640, Note_on_c, 9, 42, 106
7, 89640, Note_on_c, 9, 63, 106
7, 89675, Note_on_c, 9, 63, 0
7, 89720, Note_on_c, 9, 42, 0
7, 89760, Note_on_c, 9, 42, 106
7, 89760, Note_on_c, 9, 54, 106
7, 89770, Note_on_c, 9, 54, 0
7, 89840, Note_on_c, 9, 42, 0
7, 89880, Note_on_c, 9, 42, 106
7, 89960, Note_on_c, 9, 42, 0
7, 90000, Note_on_c, 9, 42, 106
7, 90000, Note_on_c, 9, 63, 106
7, 90005, Note_on_c, 9, 63, 0
7, 90015, Note_on_c, 9, 42, 0
7, 90120, Note_on_c, 9, 42, 106
7, 90120, Note_on_c, 9, 64, 106
7, 90125, Note_on_c, 9, 64, 0
7, 90200, Note_on_c, 9, 42, 0
7, 90240, Note_on_c, 9, 42, 106
7, 90240, Note_on_c, 9, 54, 106
7, 90295, Note_on_c, 9, 54, 0
7, 90320, Note_on_c, 9, 42, 0
7, 90360, Note_on_c, 9, 42, 106
7, 90375, Note_on_c, 9, 42, 0
7, 90480, Note_on_c, 9, 42, 106
7, 90480, Note_on_c, 9, 63, 106
7, 90495, Note_on_c, 9, 63, 0
7, 90535, Note_on_c, 9, 42, 0
7, 90600, Note_on_c, 9, 42, 106
7, 90600, Note_on_c, 9, 63, 106
7, 90635, Note_on_c, 9, 63, 0
7, 90680, Note_on_c, 9, 42, 0
7, 90720, Note_on_c, 9, 42, 106
7, 90720, Note_on_c, 9, 54, 106
7, 90730, Note_on_c, 9, 54, 0
7, 90800, Note_on_c, 9, 42, 0
7, 90840, Note_on_c, 9, 42, 106
7, 90920, Note_on_c, 9, 42, 0
7, 90960, Note_on_c, 9, 42, 106
7, 90960, Note_on_c, 9, 63, 106
7, 90965, Note_on_c, 9, 63, 0
7, 90975, Note_on_c, 9, 42, 0
7, 91080, Note_on_c, 9, 42, 106
7, 91080, Note_on_c, 9, 64, 106
7, 91085, Note_on_c, 9, 64, 0
7, 91160, Note_on_c, 9, 42, 0
7, 91200, Note_on_c, 9, 42, 106
7, 91200, Note_on_c, 9, 54, 106
7, 91255, Note_on_c, 9, 54, 0
7, 91280, Note_on_c, 9, 42, 0
7, 91320, Note_on_c, 9, 42, 106
7, 91335, Note_on_c, 9, 42, 0
7, 91440, Note_on_c, 9, 42, 106
7, 91440, Note_on_c, 9, 63, 106
7, 91455, Note_on_c, 9, 63, 0
7, 91495, Note_on_c, 9, 42, 0
7, 91560, Note_on_c, 9, 42, 106
7, 91560, Note_on_c, 9, 63, 106
7, 91595, Note_on_c, 9, 63, 0
7, 91640, Note_on_c, 9, 42, 0
7, 91680, Note_on_c, 9, 42, 106
7, 91680, Note_on_c, 9, 54, 106
7, 91690, Note_on_c, 9, 54, 0
7, 91760, Note_on_c, 9, 42, 0
7, 91800, Note_on_c, 9, 42, 106
7, 91880, Note_on_c, 9, 42, 0
7, 91920, Note_on_c, 9, 42, 106
7, 91920, Note_on_c, 9, 63, 106
7, 91925, Note_on_c, 9, 63, 0
7, 91935, Note_on_c, 9, 42, 0
7, 92040, Note_on_c, 9, 42, 106
7, 92040, Note_on_c, 9, 64, 106
7, 92045, Note_on_c, 9, 64, 0
7, 92120, Note_on_c, 9, 42, 0
7, 92160, Note_on_c, 9, 42, 106
7, 92160, Note_on_c, 9, 54, 106
7, 92215, Note_on_c, 9, 54, 0
7, 92240, Note_on_c, 9, 42, 0
7, 92280, Note_on_c, 9, 42, 106
7, 92295, Note_on_c, 9, 42, 0
7, 92400, Note_on_c, 9, 42, 106
7, 92400, Note_on_c, 9, 63, 106
7, 92415, Note_on_c, 9, 63, 0
7, 92455, Note_on_c, 9, 42, 0
7, 92520, Note_on_c, 9, 42, 106
7, 92520, Note_on_c, 9, 63, 106
7, 92555, Note_on_c, 9, 63, 0
7, 92600, Note_on_c, 9, 42, 0
7, 92640, Note_on_c, 9, 42, 106
7, 92640, Note_on_c, 9, 54, 106
7, 92650, Note_on_c, 9, 54, 0
7, 92720, Note_on_c, 9, 42, 0
7, 92760, Note_on_c, 9, 42, 106
7, 92840, Note_on_c, 9, 42, 0
7, 92880, Note_on_c, 9, 42, 106
7, 92880, Note_on_c, 9, 63, 106
7, 92885, Note_on_c, 9, 63, 0
7, 92895, Note_on_c, 9, 42, 0
7, 93000, Note_on_c, 9, 42, 106
7, 93000, Note_on_c, 9, 64, 106
7, 93005, Note_on_c, 9, 64, 0
7, 93080, Note_on_c, 9, 42, 0
7, 93120, Note_on_c, 9, 54, 106
7, 93120, Note_on_c, 9, 42, 106
7, 94080, Note_on_c, 9, 42, 0
7, 94080, Note_on_c, 9, 54, 0
7, 94080, End_track
8, 0, Start_track
8, 0, MIDI_port, 0
8, 0, Title_t, "        ""Nobody Knows"""
8, 0, End_track
9, 0, Start_track
9, 0, MIDI_port, 0
9, 0, Title_t, "By: The Tony Rich Project"
9, 0, End_track
10, 0, Start_track
10, 0, MIDI_port, 0
10, 0, Title_t, "   Seq. by Norma Williams"
10, 0, End_track
0, 0, End_of_file
