0, 0, Header, 0, 1, 480
1, 0, Start_track
1, 32, Title_t, "\001"
1, 32, Time_signature, 4, 2, 24, 8
1, 32, Tempo, 952380
1, 32, Lyric_t, "\001"
1, 32, Lyric_t, "\001"
1, 72, System_exclusive, 5, 126, 127, 9, 1, 247
1, 72, System_exclusive, 10, 65, 16, 66, 18, 64, 0, 127, 0, 65, 247
1, 192, System_exclusive, 10, 65, 16, 66, 18, 64, 1, 51, 80, 60, 247
1, 192, System_exclusive, 10, 65, 16, 66, 18, 64, 1, 52, 80, 59, 247
1, 514, Control_c, 15, 121, 0
1, 538, Control_c, 1, 0, 0
1, 543, Control_c, 1, 32, 0
1, 548, Program_c, 1, 35
1, 553, Control_c, 1, 7, 117
1, 553, Control_c, 1, 10, 64
1, 553, Control_c, 1, 11, 127
1, 558, Control_c, 1, 91, 0
1, 558, Control_c, 1, 93, 41
1, 558, Control_c, 2, 0, 0
1, 563, Control_c, 2, 32, 0
1, 568, Program_c, 2, 48
1, 573, Control_c, 2, 7, 91
1, 573, Control_c, 2, 10, 50
1, 573, Control_c, 2, 11, 127
1, 578, Control_c, 2, 91, 77
1, 578, Control_c, 2, 93, 19
1, 578, Control_c, 2, 99, 1
1, 578, Control_c, 2, 98, 99
1, 578, Control_c, 2, 6, 65
1, 579, Control_c, 2, 99, 1
1, 579, Control_c, 2, 98, 100
1, 580, Control_c, 2, 6, 0
1, 580, Control_c, 2, 99, 1
1, 582, Control_c, 2, 98, 102
1, 582, Control_c, 2, 6, 70
1, 583, Control_c, 2, 99, 1
1, 583, Control_c, 2, 98, 33
1, 583, Control_c, 2, 6, 85
1, 588, Control_c, 3, 0, 0
1, 593, Control_c, 3, 32, 0
1, 598, Program_c, 3, 73
1, 603, Control_c, 3, 7, 113
1, 603, Control_c, 3, 10, 64
1, 603, Control_c, 3, 11, 127
1, 608, Control_c, 3, 91, 70
1, 608, Control_c, 3, 93, 22
1, 613, Control_c, 4, 0, 0
1, 618, Control_c, 4, 32, 0
1, 623, Program_c, 4, 52
1, 628, Control_c, 4, 7, 100
1, 628, Control_c, 4, 10, 58
1, 628, Control_c, 4, 11, 127
1, 633, Control_c, 4, 91, 51
1, 633, Control_c, 4, 93, 24
1, 633, Control_c, 4, 99, 1
1, 633, Control_c, 4, 98, 99
1, 634, Control_c, 4, 6, 63
1, 635, Control_c, 4, 99, 1
1, 637, Control_c, 4, 98, 33
1, 638, Control_c, 4, 6, 110
1, 638, Control_c, 5, 0, 0
1, 643, Control_c, 5, 32, 0
1, 644, Pitch_bend_c, 15, 8192
1, 648, Program_c, 5, 53
1, 653, Control_c, 5, 7, 97
1, 653, Control_c, 5, 10, 80
1, 653, Control_c, 5, 11, 127
1, 658, Control_c, 5, 91, 35
1, 658, Control_c, 5, 93, 29
1, 658, Control_c, 5, 99, 1
1, 658, Control_c, 5, 98, 100
1, 658, Control_c, 5, 6, 127
1, 659, Control_c, 5, 99, 1
1, 659, Control_c, 5, 98, 102
1, 660, Control_c, 5, 6, 52
1, 660, Control_c, 5, 99, 1
1, 662, Control_c, 5, 98, 33
1, 662, Control_c, 5, 6, 0
1, 663, Control_c, 5, 99, 1
1, 663, Control_c, 5, 98, 32
1, 663, Control_c, 5, 6, 70
1, 663, Control_c, 5, 99, 1
1, 663, Control_c, 6, 0, 8
1, 664, Control_c, 5, 98, 99
1, 664, Control_c, 5, 6, 0
1, 668, Control_c, 6, 32, 0
1, 673, Program_c, 6, 5
1, 678, Control_c, 6, 7, 111
1, 678, Control_c, 6, 10, 64
1, 678, Control_c, 6, 11, 127
1, 683, Control_c, 6, 91, 74
1, 683, Control_c, 6, 93, 38
1, 683, Control_c, 6, 99, 1
1, 683, Control_c, 6, 98, 33
1, 683, Control_c, 6, 6, 80
1, 688, Control_c, 7, 0, 0
1, 693, Control_c, 7, 32, 0
1, 694, Control_c, 15, 11, 127
1, 698, Program_c, 7, 51
1, 703, Control_c, 7, 7, 99
1, 703, Control_c, 7, 10, 64
1, 703, Control_c, 7, 11, 127
1, 704, Control_c, 15, 7, 100
1, 708, Control_c, 7, 91, 84
1, 708, Control_c, 7, 93, 25
1, 712, Control_c, 8, 0, 0
1, 714, Control_c, 15, 10, 64
1, 717, Control_c, 8, 32, 0
1, 722, Program_c, 8, 2
1, 724, Control_c, 15, 91, 0
1, 727, Control_c, 8, 7, 106
1, 727, Control_c, 8, 10, 60
1, 727, Control_c, 8, 11, 127
1, 732, Control_c, 8, 91, 93
1, 732, Control_c, 8, 93, 19
1, 733, Control_c, 8, 99, 1
1, 734, Control_c, 15, 93, 0
1, 738, Control_c, 8, 98, 102
1, 738, Control_c, 9, 0, 0
1, 743, Control_c, 8, 6, 71
1, 743, Control_c, 8, 99, 1
1, 743, Control_c, 9, 32, 0
1, 748, Control_c, 8, 98, 99
1, 748, Program_c, 9, 25
1, 753, Control_c, 8, 6, 61
1, 753, Control_c, 9, 7, 110
1, 753, Control_c, 9, 10, 64
1, 753, Control_c, 9, 11, 127
1, 758, Control_c, 9, 91, 46
1, 758, Control_c, 9, 93, 0
1, 763, Control_c, 10, 0, 0
1, 768, Control_c, 10, 32, 0
1, 773, Program_c, 10, 60
1, 778, Control_c, 10, 7, 127
1, 778, Control_c, 10, 10, 64
1, 778, Control_c, 10, 11, 127
1, 783, Control_c, 10, 91, 43
1, 783, Control_c, 10, 93, 21
1, 787, Control_c, 11, 0, 0
1, 792, Control_c, 11, 32, 0
1, 797, Program_c, 11, 27
1, 798, Control_c, 10, 99, 1
1, 802, Control_c, 11, 7, 100
1, 802, Control_c, 11, 10, 80
1, 802, Control_c, 11, 11, 127
1, 803, Control_c, 10, 98, 102
1, 807, Control_c, 11, 91, 89
1, 807, Control_c, 11, 93, 22
1, 807, Control_c, 11, 99, 1
1, 808, Control_c, 10, 6, 85
1, 808, Control_c, 11, 98, 102
1, 808, Control_c, 11, 6, 79
1, 808, Control_c, 11, 99, 1
1, 808, Control_c, 11, 98, 33
1, 809, Control_c, 11, 6, 87
1, 813, Control_c, 10, 99, 1
1, 813, Control_c, 12, 0, 0
1, 818, Control_c, 10, 98, 33
1, 818, Control_c, 12, 32, 0
1, 819, Control_c, 15, 0, 0
1, 823, Control_c, 10, 6, 0
1, 823, Program_c, 12, 26
1, 828, Control_c, 10, 99, 1
1, 828, Control_c, 12, 7, 113
1, 828, Control_c, 12, 10, 90
1, 828, Control_c, 12, 11, 127
1, 833, Control_c, 10, 98, 32
1, 833, Control_c, 12, 91, 52
1, 833, Control_c, 12, 93, 30
1, 838, Control_c, 10, 6, 11
1, 843, Control_c, 10, 99, 1
1, 848, Control_c, 10, 98, 99
1, 853, Control_c, 10, 6, 43
1, 858, Control_c, 10, 99, 29
1, 863, Control_c, 10, 98, 36
1, 868, Control_c, 10, 6, 0
1, 873, Control_c, 10, 99, 24
1, 878, Control_c, 10, 98, 56
1, 883, Control_c, 10, 6, 72
1, 888, Control_c, 10, 99, 24
1, 893, Control_c, 10, 98, 40
1, 898, Control_c, 10, 6, 65
1, 903, Control_c, 10, 99, 28
1, 908, Control_c, 10, 98, 56
1, 913, Control_c, 10, 6, 40
1, 918, Control_c, 10, 99, 28
1, 923, Control_c, 10, 98, 60
1, 928, Control_c, 10, 6, 40
1, 933, Control_c, 10, 99, 28
1, 938, Control_c, 10, 98, 61
1, 943, Control_c, 10, 6, 40
1, 948, Control_c, 10, 99, 24
1, 953, Control_c, 10, 98, 85
1, 958, Control_c, 10, 6, 84
1, 963, Control_c, 10, 99, 28
1, 968, Control_c, 10, 98, 69
1, 973, Control_c, 10, 6, 64
1, 973, Control_c, 10, 99, 1
1, 974, Control_c, 10, 98, 99
1, 975, Control_c, 10, 6, 62
1, 993, Control_c, 1, 99, 1
1, 994, Control_c, 15, 17, 8
1, 998, Control_c, 1, 98, 100
1, 1003, Control_c, 1, 6, 127
1, 1008, Control_c, 1, 99, 1
1, 1013, Control_c, 1, 98, 99
1, 1018, Control_c, 1, 6, 0
1, 1023, Control_c, 1, 99, 1
1, 1028, Control_c, 1, 98, 32
1, 1033, Control_c, 1, 6, 0
1, 1178, Control_c, 3, 99, 1
1, 1178, Control_c, 7, 99, 1
1, 1178, Control_c, 12, 99, 1
1, 1183, Control_c, 3, 98, 33
1, 1183, Control_c, 7, 98, 99
1, 1183, Control_c, 12, 98, 33
1, 1188, Control_c, 3, 6, 95
1, 1188, Control_c, 7, 6, 0
1, 1188, Control_c, 12, 6, 75
1, 1193, Control_c, 7, 99, 1
1, 1198, Control_c, 7, 98, 102
1, 1203, Control_c, 7, 6, 60
1, 1208, Control_c, 7, 99, 1
1, 1213, Control_c, 7, 98, 100
1, 1218, Control_c, 7, 6, 127
1, 1223, Control_c, 7, 99, 1
1, 1228, Control_c, 7, 98, 33
1, 1233, Control_c, 7, 6, 79
1, 1273, Control_c, 9, 99, 24
1, 1278, Control_c, 9, 98, 39
1, 1283, Control_c, 9, 6, 80
1, 1288, Control_c, 9, 99, 28
1, 1293, Control_c, 9, 98, 82
1, 1298, Control_c, 9, 6, 35
1, 1303, Control_c, 9, 99, 28
1, 1308, Control_c, 9, 98, 42
1, 1309, Control_c, 11, 99, 1
1, 1310, Control_c, 11, 98, 32
1, 1310, Control_c, 11, 6, 47
1, 1313, Control_c, 9, 6, 40
1, 1318, Control_c, 9, 99, 28
1, 1323, Control_c, 9, 98, 46
1, 1328, Control_c, 9, 6, 40
1, 1333, Control_c, 9, 99, 29
1, 1338, Control_c, 9, 98, 40
1, 1343, Control_c, 9, 6, 40
1, 1348, Control_c, 9, 99, 29
1, 1353, Control_c, 5, 65, 127
1, 1353, Control_c, 9, 98, 36
1, 1358, Control_c, 9, 6, 0
1, 1363, Control_c, 9, 99, 24
1, 1368, Control_c, 9, 98, 56
1, 1373, Control_c, 9, 6, 72
1, 1378, Control_c, 9, 99, 24
1, 1383, Control_c, 9, 98, 40
1, 1388, Control_c, 9, 6, 65
1, 1393, Control_c, 9, 99, 28
1, 1398, Control_c, 9, 98, 56
1, 1403, Control_c, 9, 6, 40
1, 1408, Control_c, 9, 99, 28
1, 1413, Control_c, 9, 98, 60
1, 1418, Control_c, 9, 6, 40
1, 1423, Control_c, 9, 99, 28
1, 1428, Control_c, 9, 98, 61
1, 1433, Control_c, 9, 6, 40
1, 1438, Control_c, 9, 99, 24
1, 1443, Control_c, 9, 98, 85
1, 1448, Control_c, 9, 6, 84
1, 1453, Control_c, 9, 99, 28
1, 1458, Control_c, 9, 98, 69
1, 1463, Control_c, 9, 6, 64
1, 1463, Control_c, 9, 99, 1
1, 1463, Control_c, 9, 98, 99
1, 1465, Control_c, 9, 6, 62
1, 1473, Control_c, 5, 5, 27
1, 1478, Control_c, 12, 99, 1
1, 1483, Control_c, 12, 98, 99
1, 1488, Control_c, 12, 6, 52
1, 1833, Pitch_bend_c, 9, 0
1, 1952, Note_on_c, 9, 42, 57
1, 1979, Note_on_c, 9, 42, 0
1, 2432, Note_on_c, 9, 44, 30
1, 2459, Note_on_c, 9, 44, 0
1, 2912, Note_on_c, 9, 42, 41
1, 2939, Note_on_c, 9, 42, 0
1, 3152, Note_on_c, 9, 44, 9
1, 3179, Note_on_c, 9, 44, 0
1, 3249, Pitch_bend_c, 3, 7590
1, 3269, Pitch_bend_c, 3, 0
1, 3272, Lyric_t, "\001"
1, 3272, Note_on_c, 3, 58, 110
1, 3289, Pitch_bend_c, 3, 420
1, 3309, Pitch_bend_c, 3, 8192
1, 3392, Note_on_c, 9, 44, 26
1, 3419, Note_on_c, 9, 44, 0
1, 3422, Note_on_c, 3, 58, 0
1, 3512, Lyric_t, "\001"
1, 3512, Note_on_c, 3, 58, 92
1, 3512, Note_on_c, 9, 42, 35
1, 3539, Note_on_c, 9, 42, 0
1, 3565, Note_on_c, 3, 58, 0
1, 3632, Lyric_t, "\001"
1, 3632, Note_on_c, 3, 60, 101
1, 3632, Note_on_c, 9, 46, 50
1, 3659, Note_on_c, 9, 46, 0
1, 3733, Note_on_c, 3, 60, 0
1, 3752, Lyric_t, "\001"
1, 3752, Note_on_c, 3, 58, 89
1, 3789, Pitch_bend_c, 12, 4650
1, 3809, Note_on_c, 3, 58, 0
1, 3810, Pitch_bend_c, 12, 0
1, 3848, Pitch_bend_c, 3, 0
1, 3867, Note_on_c, 2, 58, 72
1, 3867, Note_on_c, 2, 70, 72
1, 3868, Pitch_bend_c, 3, 1200
1, 3870, Note_on_c, 6, 63, 75
1, 3870, Note_on_c, 6, 67, 93
1, 3870, Note_on_c, 6, 70, 77
1, 3872, Lyric_t, "\001"
1, 3872, Note_on_c, 1, 29, 127
1, 3872, Note_on_c, 3, 63, 107
1, 3872, Note_on_c, 5, 67, 82
1, 3872, Note_on_c, 5, 70, 82
1, 3872, Note_on_c, 9, 36, 127
1, 3872, Note_on_c, 9, 44, 78
1, 3872, Note_on_c, 12, 89, 109
1, 3872, Note_on_c, 15, 63, 1
1, 3872, Note_on_c, 15, 67, 1
1, 3872, Note_on_c, 15, 70, 1
1, 3873, Control_c, 5, 91, 68
1, 3873, Control_c, 6, 10, 84
1, 3888, Pitch_bend_c, 3, 8192
1, 3899, Note_on_c, 9, 36, 0
1, 3899, Note_on_c, 9, 44, 0
1, 3903, Pitch_bend_c, 12, 1500
1, 3923, Pitch_bend_c, 12, 4020
1, 3943, Pitch_bend_c, 12, 5820
1, 3964, Pitch_bend_c, 12, 8192
1, 3989, Note_on_c, 5, 70, 0
1, 3992, Note_on_c, 9, 42, 88
1, 4004, Note_on_c, 5, 67, 0
1, 4019, Note_on_c, 9, 42, 0
1, 4023, Note_on_c, 3, 63, 0
1, 4048, Pitch_bend_c, 12, 6690
1, 4052, Note_on_c, 12, 89, 0
1, 4068, Pitch_bend_c, 12, 2580
1, 4088, Pitch_bend_c, 12, 0
1, 4112, Lyric_t, "\001"
1, 4112, Note_on_c, 3, 63, 103
1, 4112, Note_on_c, 5, 67, 73
1, 4112, Note_on_c, 5, 70, 71
1, 4112, Note_on_c, 9, 44, 74
1, 4112, Note_on_c, 12, 89, 107
1, 4139, Note_on_c, 9, 44, 0
1, 4150, Pitch_bend_c, 12, 810
1, 4170, Pitch_bend_c, 12, 4530
1, 4192, Pitch_bend_c, 12, 4830
1, 4212, Pitch_bend_c, 12, 6480
1, 4213, Note_on_c, 5, 70, 0
1, 4225, Note_on_c, 3, 63, 0
1, 4233, Control_c, 6, 10, 44
1, 4233, Pitch_bend_c, 12, 8192
1, 4234, Note_on_c, 5, 67, 0
1, 4283, Note_on_c, 12, 89, 0
1, 4304, Pitch_bend_c, 12, 3630
1, 4317, Note_on_c, 1, 29, 0
1, 4325, Pitch_bend_c, 12, 0
1, 4352, Lyric_t, "\001"
1, 4352, Note_on_c, 1, 31, 127
1, 4352, Note_on_c, 3, 63, 102
1, 4352, Note_on_c, 5, 67, 78
1, 4352, Note_on_c, 5, 70, 78
1, 4352, Note_on_c, 9, 38, 127
1, 4352, Note_on_c, 9, 42, 100
1, 4352, Note_on_c, 12, 89, 79
1, 4379, Note_on_c, 9, 38, 0
1, 4379, Note_on_c, 9, 42, 0
1, 4398, Pitch_bend_c, 12, 2910
1, 4418, Pitch_bend_c, 12, 4860
1, 4438, Pitch_bend_c, 12, 4920
1, 4459, Pitch_bend_c, 12, 6300
1, 4459, Note_on_c, 5, 70, 0
1, 4475, Note_on_c, 3, 63, 0
1, 4477, Note_on_c, 5, 67, 0
1, 4479, Pitch_bend_c, 12, 6960
1, 4493, Note_on_c, 1, 31, 0
1, 4500, Pitch_bend_c, 12, 7020
1, 4522, Pitch_bend_c, 12, 7320
1, 4528, Note_on_c, 12, 89, 0
1, 4542, Pitch_bend_c, 12, 3840
1, 4562, Pitch_bend_c, 12, 0
1, 4590, Note_on_c, 9, 36, 65
1, 4592, Lyric_t, "\001"
1, 4592, Note_on_c, 3, 63, 67
1, 4592, Note_on_c, 5, 67, 69
1, 4592, Note_on_c, 5, 70, 65
1, 4592, Note_on_c, 9, 42, 73
1, 4592, Note_on_c, 10, 15, 94
1, 4592, Note_on_c, 12, 89, 83
1, 4593, Control_c, 6, 10, 84
1, 4617, Note_on_c, 9, 36, 0
1, 4619, Note_on_c, 9, 42, 0
1, 4619, Note_on_c, 10, 15, 0
1, 4634, Pitch_bend_c, 12, 2220
1, 4654, Pitch_bend_c, 12, 3030
1, 4675, Pitch_bend_c, 12, 3780
1, 4683, Note_on_c, 3, 63, 0
1, 4692, Note_on_c, 5, 70, 0
1, 4697, Pitch_bend_c, 12, 4770
1, 4714, Note_on_c, 5, 67, 0
1, 4717, Pitch_bend_c, 12, 5820
1, 4738, Pitch_bend_c, 12, 6570
1, 4758, Pitch_bend_c, 12, 6810
1, 4769, Note_on_c, 12, 89, 0
1, 4778, Pitch_bend_c, 12, 6000
1, 4799, Pitch_bend_c, 12, 2010
1, 4824, Note_on_c, 2, 70, 0
1, 4827, Note_on_c, 2, 56, 72
1, 4827, Note_on_c, 2, 68, 72
1, 4828, Pitch_bend_c, 12, 60
1, 4829, Note_on_c, 2, 58, 0
1, 4832, Lyric_t, "\001"
1, 4832, Lyric_t, "\001"
1, 4832, Note_on_c, 3, 63, 106
1, 4832, Note_on_c, 5, 67, 56
1, 4832, Note_on_c, 5, 70, 54
1, 4832, Note_on_c, 9, 36, 127
1, 4832, Note_on_c, 9, 44, 78
1, 4832, Note_on_c, 12, 89, 70
1, 4859, Note_on_c, 9, 36, 0
1, 4859, Note_on_c, 9, 44, 0
1, 4865, Note_on_c, 3, 63, 0
1, 4872, Pitch_bend_c, 12, 960
1, 4892, Pitch_bend_c, 12, 3840
1, 4913, Pitch_bend_c, 12, 4560
1, 4933, Pitch_bend_c, 12, 5130
1, 4934, Note_on_c, 5, 70, 0
1, 4952, Note_on_c, 9, 42, 88
1, 4953, Control_c, 6, 10, 44
1, 4953, Pitch_bend_c, 12, 6660
1, 4963, Note_on_c, 5, 67, 0
1, 4974, Pitch_bend_c, 12, 7170
1, 4979, Note_on_c, 9, 42, 0
1, 5014, Note_on_c, 12, 89, 0
1, 5015, Pitch_bend_c, 12, 7230
1, 5035, Pitch_bend_c, 12, 4650
1, 5057, Pitch_bend_c, 12, 1290
1, 5072, Note_on_c, 5, 55, 72
1, 5072, Note_on_c, 9, 44, 74
1, 5072, Note_on_c, 12, 89, 59
1, 5078, Pitch_bend_c, 12, 210
1, 5084, Note_on_c, 5, 58, 72
1, 5098, Pitch_bend_c, 12, 180
1, 5099, Note_on_c, 9, 44, 0
1, 5118, Pitch_bend_c, 12, 2580
1, 5138, Pitch_bend_c, 12, 4230
1, 5159, Pitch_bend_c, 12, 4680
1, 5179, Pitch_bend_c, 12, 5820
1, 5190, Note_on_c, 6, 63, 78
1, 5190, Note_on_c, 6, 67, 79
1, 5192, Lyric_t, "\001"
1, 5192, Note_on_c, 1, 24, 127
1, 5192, Note_on_c, 3, 58, 109
1, 5192, Note_on_c, 5, 67, 72
1, 5197, Note_on_c, 5, 55, 0
1, 5199, Pitch_bend_c, 3, 0
1, 5200, Pitch_bend_c, 12, 6240
1, 5201, Note_on_c, 5, 58, 0
1, 5202, Note_on_c, 5, 70, 72
1, 5220, Pitch_bend_c, 3, 1890
1, 5220, Pitch_bend_c, 12, 6300
1, 5240, Pitch_bend_c, 3, 8192
1, 5242, Pitch_bend_c, 12, 6570
1, 5257, Note_on_c, 2, 56, 0
1, 5258, Note_on_c, 12, 89, 0
1, 5262, Pitch_bend_c, 12, 6000
1, 5283, Pitch_bend_c, 12, 4920
1, 5284, Note_on_c, 2, 68, 0
1, 5290, Note_on_c, 1, 24, 0
1, 5303, Pitch_bend_c, 12, 4980
1, 5307, Note_on_c, 2, 55, 72
1, 5307, Note_on_c, 2, 67, 72
1, 5312, Note_on_c, 1, 27, 127
1, 5312, Note_on_c, 9, 38, 127
1, 5312, Note_on_c, 9, 42, 100
1, 5313, Control_c, 6, 10, 84
1, 5323, Pitch_bend_c, 12, 7020
1, 5339, Note_on_c, 9, 38, 0
1, 5339, Note_on_c, 9, 42, 0
1, 5344, Pitch_bend_c, 12, 8192
1, 5374, Note_on_c, 3, 58, 0
1, 5432, Lyric_t, "\001"
1, 5432, Note_on_c, 3, 58, 110
1, 5444, Note_on_c, 1, 27, 0
1, 5488, Note_on_c, 3, 58, 0
1, 5552, Lyric_t, "\001"
1, 5552, Note_on_c, 3, 60, 118
1, 5552, Note_on_c, 5, 67, 72
1, 5552, Note_on_c, 9, 42, 73
1, 5554, Note_on_c, 5, 70, 0
1, 5565, Note_on_c, 5, 63, 72
1, 5565, Note_on_c, 5, 67, 0
1, 5579, Note_on_c, 9, 42, 0
1, 5645, Note_on_c, 3, 60, 0
1, 5663, Note_on_c, 6, 63, 0
1, 5672, Lyric_t, "\001"
1, 5672, Note_on_c, 3, 58, 103
1, 5673, Control_c, 5, 91, 0
1, 5673, Note_on_c, 5, 63, 72
1, 5673, Control_c, 6, 10, 44
1, 5673, Note_on_c, 6, 67, 0
1, 5673, Note_on_c, 5, 63, 0
1, 5674, Note_on_c, 5, 67, 0
1, 5682, Note_on_c, 5, 58, 72
1, 5688, Note_on_c, 6, 70, 0
1, 5737, Note_on_c, 6, 67, 0
1, 5744, Note_on_c, 3, 58, 0
1, 5753, Note_on_c, 6, 63, 0
1, 5787, Note_on_c, 2, 58, 72
1, 5787, Note_on_c, 2, 70, 72
1, 5790, Note_on_c, 6, 60, 74
1, 5790, Note_on_c, 6, 63, 77
1, 5790, Note_on_c, 6, 67, 87
1, 5792, Lyric_t, "\001"
1, 5792, Note_on_c, 1, 29, 127
1, 5792, Note_on_c, 3, 63, 115
1, 5792, Note_on_c, 9, 36, 127
1, 5792, Note_on_c, 9, 44, 78
1, 5798, Pitch_bend_c, 3, 0
1, 5800, Note_on_c, 2, 67, 0
1, 5808, Note_on_c, 2, 55, 0
1, 5819, Note_on_c, 9, 36, 0
1, 5819, Note_on_c, 9, 44, 0
1, 5828, Pitch_bend_c, 3, 8192
1, 5912, Note_on_c, 9, 42, 88
1, 5939, Note_on_c, 9, 42, 0
1, 5952, Note_on_c, 3, 63, 0
1, 6032, Lyric_t, "\001"
1, 6032, Note_on_c, 3, 63, 108
1, 6032, Note_on_c, 9, 44, 74
1, 6033, Control_c, 6, 10, 84
1, 6059, Note_on_c, 9, 44, 0
1, 6172, Note_on_c, 3, 63, 0
1, 6214, Note_on_c, 1, 29, 0
1, 6272, Lyric_t, "\001"
1, 6272, Note_on_c, 1, 31, 127
1, 6272, Note_on_c, 3, 63, 116
1, 6272, Note_on_c, 9, 38, 127
1, 6272, Note_on_c, 9, 42, 100
1, 6299, Note_on_c, 9, 38, 0
1, 6299, Note_on_c, 9, 42, 0
1, 6393, Control_c, 6, 10, 44
1, 6414, Note_on_c, 1, 31, 0
1, 6420, Note_on_c, 3, 63, 0
1, 6512, Lyric_t, "\001"
1, 6512, Note_on_c, 3, 63, 112
1, 6512, Note_on_c, 9, 42, 73
1, 6539, Note_on_c, 9, 42, 0
1, 6633, Note_on_c, 5, 63, 0
1, 6653, Note_on_c, 3, 63, 0
1, 6719, Note_on_c, 5, 58, 0
1, 6735, Note_on_c, 2, 70, 0
1, 6747, Note_on_c, 2, 56, 72
1, 6747, Note_on_c, 2, 68, 72
1, 6747, Note_on_c, 2, 58, 0
1, 6752, Lyric_t, "\001"
1, 6752, Lyric_t, "\001"
1, 6752, Note_on_c, 3, 63, 121
1, 6752, Note_on_c, 9, 36, 127
1, 6752, Note_on_c, 9, 44, 78
1, 6753, Control_c, 6, 10, 84
1, 6779, Note_on_c, 9, 36, 0
1, 6779, Note_on_c, 9, 44, 0
1, 6795, Note_on_c, 3, 63, 0
1, 6872, Note_on_c, 9, 42, 88
1, 6899, Note_on_c, 9, 42, 0
1, 6992, Note_on_c, 1, 22, 127
1, 6992, Note_on_c, 9, 36, 127
1, 6992, Note_on_c, 9, 44, 74
1, 7011, Note_on_c, 6, 60, 0
1, 7019, Note_on_c, 9, 36, 0
1, 7019, Note_on_c, 9, 44, 0
1, 7023, Note_on_c, 6, 67, 0
1, 7028, Note_on_c, 6, 63, 0
1, 7102, Pitch_bend_c, 3, 960
1, 7112, Lyric_t, "\001"
1, 7112, Note_on_c, 3, 63, 96
1, 7113, Control_c, 6, 10, 44
1, 7122, Pitch_bend_c, 3, 180
1, 7143, Pitch_bend_c, 3, 8192
1, 7198, Note_on_c, 1, 22, 0
1, 7218, Note_on_c, 15, 63, 0
1, 7218, Note_on_c, 15, 67, 0
1, 7218, Note_on_c, 15, 70, 0
1, 7220, Note_on_c, 5, 63, 73
1, 7223, Note_on_c, 5, 60, 81
1, 7227, Note_on_c, 2, 55, 72
1, 7227, Note_on_c, 2, 67, 72
1, 7228, Note_on_c, 2, 68, 0
1, 7230, Note_on_c, 6, 60, 81
1, 7230, Note_on_c, 6, 63, 75
1, 7232, Note_on_c, 1, 24, 127
1, 7232, Note_on_c, 9, 34, 115
1, 7232, Note_on_c, 9, 36, 127
1, 7232, Note_on_c, 9, 38, 127
1, 7232, Note_on_c, 9, 42, 100
1, 7232, Note_on_c, 15, 60, 1
1, 7232, Note_on_c, 15, 63, 1
1, 7239, Note_on_c, 2, 56, 0
1, 7253, Pitch_bend_c, 9, 6210
1, 7259, Note_on_c, 9, 34, 0
1, 7259, Note_on_c, 9, 36, 0
1, 7259, Note_on_c, 9, 38, 0
1, 7259, Note_on_c, 9, 42, 0
1, 7265, Note_on_c, 3, 63, 0
1, 7273, Pitch_bend_c, 9, 8192
1, 7350, Note_on_c, 6, 62, 81
1, 7350, Note_on_c, 6, 65, 70
1, 7351, Note_on_c, 6, 63, 0
1, 7352, Lyric_t, "\001"
1, 7352, Note_on_c, 3, 63, 102
1, 7352, Note_on_c, 15, 62, 1
1, 7352, Note_on_c, 15, 65, 1
1, 7353, Note_on_c, 5, 63, 0
1, 7358, Note_on_c, 5, 65, 79
1, 7364, Note_on_c, 5, 62, 69
1, 7364, Note_on_c, 5, 60, 0
1, 7365, Note_on_c, 15, 63, 0
1, 7373, Note_on_c, 15, 60, 0
1, 7380, Note_on_c, 6, 60, 0
1, 7382, Note_on_c, 1, 24, 0
1, 7389, Note_on_c, 3, 63, 0
1, 7459, Note_on_c, 5, 65, 0
1, 7460, Note_on_c, 6, 65, 0
1, 7465, Pitch_bend_c, 3, 2640
1, 7469, Note_on_c, 15, 62, 0
1, 7469, Note_on_c, 15, 65, 0
1, 7470, Note_on_c, 5, 67, 74
1, 7470, Note_on_c, 6, 63, 79
1, 7470, Note_on_c, 6, 67, 83
1, 7472, Lyric_t, "\001"
1, 7472, Note_on_c, 3, 63, 102
1, 7472, Note_on_c, 9, 42, 73
1, 7472, Note_on_c, 15, 63, 1
1, 7472, Note_on_c, 15, 67, 1
1, 7473, Control_c, 6, 10, 84
1, 7479, Note_on_c, 5, 62, 0
1, 7480, Note_on_c, 5, 63, 80
1, 7487, Pitch_bend_c, 3, 2070
1, 7492, Note_on_c, 6, 62, 0
1, 7499, Note_on_c, 9, 42, 0
1, 7507, Pitch_bend_c, 3, 8192
1, 7509, Note_on_c, 3, 63, 0
1, 7592, Lyric_t, "\001"
1, 7592, Note_on_c, 3, 63, 115
1, 7658, Note_on_c, 2, 55, 0
1, 7668, Note_on_c, 6, 63, 0
1, 7675, Pitch_bend_c, 9, 0
1, 7683, Note_on_c, 6, 67, 0
1, 7686, Note_on_c, 5, 67, 0
1, 7693, Note_on_c, 5, 65, 84
1, 7693, Note_on_c, 5, 63, 0
1, 7697, Note_on_c, 5, 62, 91
1, 7704, Note_on_c, 2, 67, 0
1, 7707, Note_on_c, 2, 53, 72
1, 7707, Note_on_c, 2, 65, 72
1, 7709, Note_on_c, 15, 63, 0
1, 7709, Note_on_c, 15, 67, 0
1, 7710, Note_on_c, 6, 60, 74
1, 7710, Note_on_c, 6, 65, 86
1, 7712, Lyric_t, "\001"
1, 7712, Note_on_c, 1, 31, 127
1, 7712, Note_on_c, 3, 62, 127
1, 7712, Note_on_c, 9, 36, 127
1, 7712, Note_on_c, 9, 44, 78
1, 7712, Note_on_c, 15, 62, 1
1, 7712, Note_on_c, 15, 65, 1
1, 7739, Note_on_c, 9, 36, 0
1, 7739, Note_on_c, 9, 44, 0
1, 7748, Note_on_c, 3, 63, 0
1, 7832, Note_on_c, 9, 42, 88
1, 7833, Control_c, 6, 10, 44
1, 7854, Note_on_c, 3, 62, 0
1, 7859, Note_on_c, 9, 42, 0
1, 7952, Lyric_t, "\001"
1, 7952, Note_on_c, 3, 62, 118
1, 7952, Note_on_c, 9, 44, 74
1, 7979, Note_on_c, 9, 44, 0
1, 8050, Note_on_c, 5, 58, 85
1, 8054, Note_on_c, 5, 65, 0
1, 8070, Note_on_c, 6, 50, 75
1, 8070, Note_on_c, 6, 58, 63
1, 8092, Note_on_c, 3, 62, 0
1, 8147, Pitch_bend_c, 3, 4290
1, 8167, Pitch_bend_c, 3, 3570
1, 8178, Note_on_c, 1, 31, 0
1, 8187, Pitch_bend_c, 3, 5700
1, 8192, Lyric_t, "\001"
1, 8192, Note_on_c, 1, 34, 127
1, 8192, Note_on_c, 3, 62, 117
1, 8192, Note_on_c, 9, 38, 127
1, 8192, Note_on_c, 9, 42, 100
1, 8193, Control_c, 6, 10, 84
1, 8207, Pitch_bend_c, 3, 8192
1, 8219, Note_on_c, 9, 38, 0
1, 8219, Note_on_c, 9, 42, 0
1, 8304, Note_on_c, 1, 34, 0
1, 8329, Note_on_c, 3, 62, 0
1, 8379, Pitch_bend_c, 3, 4140
1, 8399, Pitch_bend_c, 3, 0
1, 8409, Note_on_c, 5, 62, 0
1, 8430, Pitch_bend_c, 3, 1440
1, 8430, Note_on_c, 9, 36, 65
1, 8432, Lyric_t, "\001"
1, 8432, Note_on_c, 3, 62, 115
1, 8432, Note_on_c, 5, 53, 80
1, 8432, Note_on_c, 9, 42, 73
1, 8432, Note_on_c, 10, 15, 94
1, 8450, Pitch_bend_c, 3, 8192
1, 8457, Note_on_c, 9, 36, 0
1, 8459, Note_on_c, 9, 42, 0
1, 8459, Note_on_c, 10, 15, 0
1, 8553, Control_c, 6, 10, 44
1, 8577, Note_on_c, 3, 62, 0
1, 8672, Lyric_t, "\001"
1, 8672, Lyric_t, "\001"
1, 8672, Note_on_c, 3, 62, 127
1, 8672, Note_on_c, 9, 36, 127
1, 8672, Note_on_c, 9, 44, 78
1, 8699, Note_on_c, 9, 36, 0
1, 8699, Note_on_c, 9, 44, 0
1, 8715, Note_on_c, 3, 62, 0
1, 8792, Note_on_c, 9, 42, 88
1, 8819, Note_on_c, 9, 42, 0
1, 8912, Note_on_c, 9, 44, 74
1, 8913, Control_c, 6, 10, 84
1, 8939, Note_on_c, 9, 44, 0
1, 9022, Note_on_c, 5, 53, 83
1, 9029, Note_on_c, 15, 62, 0
1, 9029, Note_on_c, 15, 65, 0
1, 9032, Note_on_c, 1, 22, 127
1, 9032, Note_on_c, 15, 70, 1
1, 9034, Pitch_bend_c, 3, 0
1, 9036, Note_on_c, 6, 60, 0
1, 9038, Note_on_c, 6, 65, 0
1, 9042, Lyric_t, "\001"
1, 9042, Note_on_c, 3, 58, 117
1, 9050, Note_on_c, 5, 53, 0
1, 9053, Note_on_c, 5, 58, 0
1, 9065, Pitch_bend_c, 3, 8192
1, 9144, Pitch_bend_c, 5, 12302
1, 9149, Note_on_c, 1, 22, 0
1, 9152, Note_on_c, 1, 24, 127
1, 9152, Note_on_c, 9, 38, 127
1, 9152, Note_on_c, 9, 42, 100
1, 9165, Pitch_bend_c, 5, 16383
1, 9179, Note_on_c, 9, 38, 0
1, 9179, Note_on_c, 9, 42, 0
1, 9183, Note_on_c, 3, 58, 0
1, 9269, Lyric_t, "\001"
1, 9269, Note_on_c, 3, 58, 108
1, 9270, Note_on_c, 6, 53, 70
1, 9270, Note_on_c, 6, 56, 49
1, 9270, Note_on_c, 6, 58, 60
1, 9270, Note_on_c, 6, 62, 62
1, 9273, Control_c, 6, 10, 44
1, 9312, Note_on_c, 1, 24, 0
1, 9332, Note_on_c, 3, 58, 0
1, 9349, Note_on_c, 5, 53, 0
1, 9360, Pitch_bend_c, 5, 15902
1, 9382, Pitch_bend_c, 5, 8192
1, 9387, Note_on_c, 5, 65, 92
1, 9388, Lyric_t, "\001"
1, 9388, Note_on_c, 3, 60, 117
1, 9389, Note_on_c, 15, 70, 0
1, 9392, Note_on_c, 9, 42, 73
1, 9392, Note_on_c, 15, 63, 1
1, 9392, Note_on_c, 15, 68, 1
1, 9419, Note_on_c, 9, 42, 0
1, 9421, Note_on_c, 6, 58, 0
1, 9430, Note_on_c, 6, 50, 0
1, 9500, Note_on_c, 3, 60, 0
1, 9509, Note_on_c, 15, 68, 0
1, 9512, Note_on_c, 15, 67, 1
1, 9517, Lyric_t, "\001"
1, 9517, Note_on_c, 3, 58, 96
1, 9525, Pitch_bend_c, 5, 0
1, 9578, Note_on_c, 6, 62, 0
1, 9588, Note_on_c, 6, 58, 0
1, 9593, Note_on_c, 6, 53, 0
1, 9594, Note_on_c, 2, 53, 0
1, 9594, Note_on_c, 2, 65, 0
1, 9595, Note_on_c, 6, 56, 0
1, 9602, Note_on_c, 3, 58, 0
1, 9627, Note_on_c, 2, 51, 72
1, 9627, Note_on_c, 2, 63, 72
1, 9629, Note_on_c, 15, 63, 0
1, 9630, Note_on_c, 6, 60, 78
1, 9630, Note_on_c, 6, 63, 81
1, 9630, Note_on_c, 6, 67, 84
1, 9632, Note_on_c, 1, 29, 127
1, 9632, Note_on_c, 9, 36, 127
1, 9632, Note_on_c, 9, 44, 78
1, 9632, Note_on_c, 15, 63, 1
1, 9633, Pitch_bend_c, 3, 0
1, 9633, Control_c, 6, 10, 84
1, 9637, Lyric_t, "\001"
1, 9637, Note_on_c, 3, 63, 108
1, 9653, Pitch_bend_c, 3, 810
1, 9659, Note_on_c, 9, 36, 0
1, 9659, Note_on_c, 9, 44, 0
1, 9673, Pitch_bend_c, 3, 8192
1, 9752, Note_on_c, 9, 42, 88
1, 9773, Control_c, 5, 1, 4
1, 9779, Note_on_c, 9, 42, 0
1, 9782, Note_on_c, 3, 63, 0
1, 9803, Control_c, 5, 1, 39
1, 9835, Control_c, 5, 1, 101
1, 9865, Control_c, 5, 1, 118
1, 9872, Lyric_t, "\001"
1, 9872, Note_on_c, 3, 63, 107
1, 9872, Note_on_c, 9, 44, 74
1, 9897, Control_c, 5, 1, 125
1, 9899, Note_on_c, 9, 44, 0
1, 9969, Control_c, 5, 1, 127
1, 9993, Control_c, 6, 10, 44
1, 10015, Note_on_c, 3, 63, 0
1, 10032, Control_c, 5, 1, 125
1, 10062, Control_c, 5, 1, 0
1, 10069, Pitch_bend_c, 3, 6480
1, 10074, Note_on_c, 5, 65, 0
1, 10089, Pitch_bend_c, 3, 0
1, 10092, Note_on_c, 1, 29, 0
1, 10093, Pitch_bend_c, 5, 8192
1, 10108, Lyric_t, "\001"
1, 10108, Note_on_c, 3, 63, 111
1, 10109, Pitch_bend_c, 3, 1770
1, 10110, Note_on_c, 11, 63, 102
1, 10110, Note_on_c, 11, 67, 123
1, 10110, Note_on_c, 11, 70, 109
1, 10112, Note_on_c, 1, 31, 127
1, 10112, Note_on_c, 9, 36, 127
1, 10112, Note_on_c, 9, 38, 127
1, 10112, Note_on_c, 9, 42, 100
1, 10113, Pitch_bend_c, 5, 8192
1, 10129, Pitch_bend_c, 3, 8192
1, 10139, Note_on_c, 9, 36, 0
1, 10139, Note_on_c, 9, 38, 0
1, 10139, Note_on_c, 9, 42, 0
1, 10243, Note_on_c, 3, 63, 0
1, 10257, Note_on_c, 1, 31, 0
1, 10261, Note_on_c, 11, 70, 0
1, 10262, Note_on_c, 11, 63, 0
1, 10270, Note_on_c, 11, 63, 107
1, 10270, Note_on_c, 11, 67, 108
1, 10270, Note_on_c, 11, 70, 108
1, 10273, Note_on_c, 11, 67, 0
1, 10303, Pitch_bend_c, 3, 7650
1, 10323, Pitch_bend_c, 3, 0
1, 10339, Lyric_t, "\001"
1, 10339, Note_on_c, 3, 63, 110
1, 10352, Note_on_c, 9, 42, 73
1, 10353, Pitch_bend_c, 3, 1620
1, 10353, Control_c, 6, 10, 84
1, 10373, Pitch_bend_c, 3, 8192
1, 10379, Note_on_c, 9, 42, 0
1, 10396, Note_on_c, 11, 70, 0
1, 10405, Note_on_c, 11, 63, 0
1, 10415, Note_on_c, 11, 67, 0
1, 10430, Note_on_c, 11, 63, 98
1, 10430, Note_on_c, 11, 67, 98
1, 10430, Note_on_c, 11, 70, 98
1, 10469, Note_on_c, 3, 63, 0
1, 10553, Note_on_c, 11, 70, 0
1, 10555, Pitch_bend_c, 3, 4920
1, 10560, Note_on_c, 11, 67, 0
1, 10572, Note_on_c, 11, 63, 0
1, 10575, Pitch_bend_c, 3, 0
1, 10588, Lyric_t, "\001"
1, 10588, Lyric_t, "\001"
1, 10588, Note_on_c, 3, 63, 115
1, 10590, Note_on_c, 11, 63, 89
1, 10590, Note_on_c, 11, 67, 90
1, 10590, Note_on_c, 11, 70, 90
1, 10592, Note_on_c, 1, 24, 127
1, 10592, Note_on_c, 9, 36, 127
1, 10592, Note_on_c, 9, 44, 78
1, 10595, Pitch_bend_c, 3, 2880
1, 10617, Pitch_bend_c, 3, 8192
1, 10619, Note_on_c, 9, 36, 0
1, 10619, Note_on_c, 9, 44, 0
1, 10667, Pitch_bend_c, 3, 5220
1, 10674, Note_on_c, 3, 63, 0
1, 10688, Pitch_bend_c, 3, 0
1, 10712, Note_on_c, 9, 38, 92
1, 10712, Note_on_c, 9, 42, 88
1, 10713, Control_c, 6, 10, 44
1, 10723, Note_on_c, 11, 70, 0
1, 10725, Note_on_c, 11, 63, 0
1, 10739, Note_on_c, 9, 38, 0
1, 10739, Note_on_c, 9, 42, 0
1, 10743, Note_on_c, 11, 67, 0
1, 10749, Note_on_c, 1, 24, 0
1, 10750, Note_on_c, 11, 63, 81
1, 10750, Note_on_c, 11, 67, 81
1, 10750, Note_on_c, 11, 70, 81
1, 10789, Pitch_bend_c, 3, 1380
1, 10798, Pitch_bend_c, 12, 4410
1, 10809, Pitch_bend_c, 3, 8192
1, 10818, Pitch_bend_c, 12, 0
1, 10829, Note_on_c, 12, 77, 88
1, 10832, Note_on_c, 9, 36, 127
1, 10832, Note_on_c, 9, 44, 74
1, 10833, Note_on_c, 12, 72, 80
1, 10859, Pitch_bend_c, 12, 3660
1, 10859, Note_on_c, 9, 36, 0
1, 10859, Note_on_c, 9, 44, 0
1, 10880, Pitch_bend_c, 12, 8192
1, 10892, Note_on_c, 11, 63, 0
1, 10897, Note_on_c, 11, 70, 0
1, 10906, Note_on_c, 11, 67, 0
1, 10910, Note_on_c, 11, 63, 72
1, 10910, Note_on_c, 11, 67, 72
1, 10910, Note_on_c, 11, 70, 72
1, 10929, Pitch_bend_c, 3, 7590
1, 10949, Pitch_bend_c, 3, 0
1, 10949, Note_on_c, 15, 67, 0
1, 10949, Note_on_c, 15, 63, 0
1, 10952, Lyric_t, "\001"
1, 10952, Note_on_c, 1, 24, 127
1, 10952, Note_on_c, 3, 58, 110
1, 10963, Pitch_bend_c, 12, 4470
1, 10969, Pitch_bend_c, 3, 420
1, 10975, Note_on_c, 6, 67, 0
1, 10976, Note_on_c, 6, 63, 0
1, 10983, Pitch_bend_c, 12, 0
1, 10987, Note_on_c, 6, 60, 0
1, 10989, Pitch_bend_c, 3, 8192
1, 11055, Note_on_c, 11, 63, 0
1, 11057, Note_on_c, 11, 70, 0
1, 11063, Note_on_c, 11, 67, 0
1, 11070, Note_on_c, 6, 60, 70
1, 11070, Note_on_c, 6, 64, 74
1, 11070, Note_on_c, 6, 68, 67
1, 11070, Note_on_c, 11, 63, 63
1, 11070, Note_on_c, 11, 67, 64
1, 11070, Note_on_c, 11, 70, 64
1, 11072, Note_on_c, 9, 38, 127
1, 11072, Note_on_c, 9, 42, 100
1, 11073, Control_c, 6, 10, 84
1, 11099, Note_on_c, 9, 38, 0
1, 11099, Note_on_c, 9, 42, 0
1, 11102, Note_on_c, 3, 58, 0
1, 11138, Control_c, 12, 1, 121
1, 11179, Control_c, 12, 1, 127
1, 11192, Lyric_t, "\001"
1, 11192, Note_on_c, 3, 58, 92
1, 11208, Note_on_c, 11, 63, 0
1, 11217, Note_on_c, 11, 70, 0
1, 11221, Note_on_c, 11, 67, 0
1, 11230, Note_on_c, 11, 63, 54
1, 11230, Note_on_c, 11, 67, 54
1, 11230, Note_on_c, 11, 70, 55
1, 11245, Note_on_c, 3, 58, 0
1, 11270, Note_on_c, 1, 24, 0
1, 11312, Lyric_t, "\001"
1, 11312, Note_on_c, 1, 27, 127
1, 11312, Note_on_c, 3, 60, 101
1, 11312, Note_on_c, 9, 42, 73
1, 11339, Note_on_c, 9, 42, 0
1, 11373, Note_on_c, 11, 67, 0
1, 11377, Note_on_c, 11, 63, 0
1, 11388, Note_on_c, 11, 70, 0
1, 11390, Note_on_c, 11, 63, 45
1, 11390, Note_on_c, 11, 67, 46
1, 11390, Note_on_c, 11, 70, 45
1, 11413, Note_on_c, 3, 60, 0
1, 11424, Note_on_c, 1, 27, 0
1, 11432, Lyric_t, "\001"
1, 11432, Note_on_c, 3, 58, 89
1, 11433, Control_c, 6, 10, 44
1, 11433, Note_on_c, 12, 72, 0
1, 11441, Note_on_c, 12, 77, 0
1, 11448, Control_c, 12, 1, 0
1, 11454, Note_on_c, 2, 63, 0
1, 11458, Pitch_bend_c, 12, 8192
1, 11469, Pitch_bend_c, 12, 4650
1, 11473, Note_on_c, 2, 51, 0
1, 11489, Note_on_c, 3, 58, 0
1, 11490, Pitch_bend_c, 12, 0
1, 11493, Note_on_c, 6, 60, 0
1, 11506, Note_on_c, 11, 70, 0
1, 11508, Note_on_c, 6, 64, 0
1, 11508, Note_on_c, 6, 68, 0
1, 11513, Note_on_c, 11, 63, 0
1, 11516, Note_on_c, 11, 67, 0
1, 11528, Pitch_bend_c, 3, 0
1, 11547, Note_on_c, 2, 58, 72
1, 11547, Note_on_c, 2, 70, 72
1, 11547, Note_on_c, 4, 67, 87
1, 11548, Pitch_bend_c, 3, 1200
1, 11550, Note_on_c, 6, 63, 66
1, 11550, Note_on_c, 6, 67, 88
1, 11550, Note_on_c, 6, 70, 65
1, 11552, Lyric_t, "\001"
1, 11552, Note_on_c, 1, 29, 127
1, 11552, Note_on_c, 3, 63, 107
1, 11552, Note_on_c, 9, 36, 127
1, 11552, Note_on_c, 9, 44, 78
1, 11552, Note_on_c, 12, 89, 112
1, 11552, Note_on_c, 15, 63, 1
1, 11552, Note_on_c, 15, 67, 1
1, 11552, Note_on_c, 15, 70, 1
1, 11568, Pitch_bend_c, 3, 8192
1, 11579, Note_on_c, 9, 36, 0
1, 11579, Note_on_c, 9, 44, 0
1, 11583, Pitch_bend_c, 12, 1500
1, 11603, Pitch_bend_c, 12, 4020
1, 11623, Pitch_bend_c, 12, 5820
1, 11644, Pitch_bend_c, 12, 8192
1, 11672, Note_on_c, 9, 42, 88
1, 11699, Note_on_c, 9, 42, 0
1, 11703, Note_on_c, 3, 63, 0
1, 11728, Pitch_bend_c, 12, 6690
1, 11732, Note_on_c, 12, 89, 0
1, 11744, Note_on_c, 4, 67, 0
1, 11748, Pitch_bend_c, 12, 2580
1, 11768, Pitch_bend_c, 12, 0
1, 11790, Note_on_c, 4, 67, 85
1, 11792, Lyric_t, "\001"
1, 11792, Note_on_c, 3, 63, 103
1, 11792, Note_on_c, 9, 44, 74
1, 11792, Note_on_c, 12, 89, 110
1, 11793, Control_c, 6, 10, 84
1, 11819, Note_on_c, 9, 44, 0
1, 11830, Pitch_bend_c, 12, 810
1, 11850, Pitch_bend_c, 12, 4530
1, 11872, Pitch_bend_c, 12, 4830
1, 11892, Pitch_bend_c, 12, 6480
1, 11905, Note_on_c, 3, 63, 0
1, 11913, Pitch_bend_c, 12, 8192
1, 11963, Note_on_c, 12, 89, 0
1, 11976, Note_on_c, 4, 67, 0
1, 11984, Pitch_bend_c, 12, 3630
1, 11998, Note_on_c, 1, 29, 0
1, 12005, Pitch_bend_c, 12, 0
1, 12030, Note_on_c, 4, 67, 76
1, 12032, Lyric_t, "\001"
1, 12032, Note_on_c, 1, 31, 127
1, 12032, Note_on_c, 3, 63, 102
1, 12032, Note_on_c, 9, 38, 127
1, 12032, Note_on_c, 9, 42, 100
1, 12032, Note_on_c, 12, 89, 82
1, 12059, Note_on_c, 9, 38, 0
1, 12059, Note_on_c, 9, 42, 0
1, 12078, Pitch_bend_c, 12, 2910
1, 12098, Pitch_bend_c, 12, 4860
1, 12118, Pitch_bend_c, 12, 4920
1, 12139, Pitch_bend_c, 12, 6300
1, 12153, Control_c, 6, 10, 44
1, 12155, Note_on_c, 3, 63, 0
1, 12159, Pitch_bend_c, 12, 6960
1, 12170, Note_on_c, 1, 31, 0
1, 12180, Pitch_bend_c, 12, 7020
1, 12202, Pitch_bend_c, 12, 7320
1, 12208, Note_on_c, 12, 89, 0
1, 12222, Pitch_bend_c, 12, 3840
1, 12223, Note_on_c, 4, 67, 0
1, 12242, Pitch_bend_c, 12, 0
1, 12264, Note_on_c, 4, 67, 88
1, 12270, Note_on_c, 9, 36, 65
1, 12272, Lyric_t, "\001"
1, 12272, Note_on_c, 3, 63, 67
1, 12272, Note_on_c, 9, 42, 73
1, 12272, Note_on_c, 10, 15, 94
1, 12272, Note_on_c, 12, 89, 86
1, 12297, Note_on_c, 9, 36, 0
1, 12299, Note_on_c, 9, 42, 0
1, 12299, Note_on_c, 10, 15, 0
1, 12314, Pitch_bend_c, 12, 2220
1, 12334, Pitch_bend_c, 12, 3030
1, 12355, Pitch_bend_c, 12, 3780
1, 12363, Note_on_c, 3, 63, 0
1, 12377, Pitch_bend_c, 12, 4770
1, 12397, Pitch_bend_c, 12, 5820
1, 12418, Pitch_bend_c, 12, 6570
1, 12438, Pitch_bend_c, 12, 6810
1, 12449, Note_on_c, 12, 89, 0
1, 12457, Note_on_c, 4, 67, 0
1, 12458, Pitch_bend_c, 12, 6000
1, 12479, Pitch_bend_c, 12, 2010
1, 12502, Note_on_c, 4, 67, 88
1, 12504, Note_on_c, 2, 70, 0
1, 12507, Note_on_c, 2, 56, 72
1, 12507, Note_on_c, 2, 68, 72
1, 12508, Pitch_bend_c, 12, 60
1, 12509, Note_on_c, 2, 58, 0
1, 12512, Lyric_t, "\001"
1, 12512, Lyric_t, "\001"
1, 12512, Note_on_c, 3, 63, 106
1, 12512, Note_on_c, 9, 36, 127
1, 12512, Note_on_c, 9, 44, 78
1, 12512, Note_on_c, 12, 89, 73
1, 12513, Control_c, 6, 10, 84
1, 12539, Note_on_c, 9, 36, 0
1, 12539, Note_on_c, 9, 44, 0
1, 12545, Note_on_c, 3, 63, 0
1, 12552, Pitch_bend_c, 12, 960
1, 12572, Pitch_bend_c, 12, 3840
1, 12590, Note_on_c, 4, 67, 0
1, 12593, Pitch_bend_c, 12, 4560
1, 12613, Pitch_bend_c, 12, 5130
1, 12632, Note_on_c, 9, 42, 88
1, 12633, Pitch_bend_c, 12, 6660
1, 12654, Pitch_bend_c, 12, 7170
1, 12659, Note_on_c, 9, 42, 0
1, 12694, Note_on_c, 12, 89, 0
1, 12695, Pitch_bend_c, 12, 7230
1, 12715, Pitch_bend_c, 12, 4650
1, 12737, Pitch_bend_c, 12, 1290
1, 12752, Note_on_c, 5, 55, 72
1, 12752, Note_on_c, 9, 44, 74
1, 12752, Note_on_c, 12, 89, 62
1, 12758, Pitch_bend_c, 12, 210
1, 12764, Note_on_c, 5, 58, 72
1, 12778, Pitch_bend_c, 12, 180
1, 12779, Note_on_c, 9, 44, 0
1, 12798, Pitch_bend_c, 12, 2580
1, 12818, Pitch_bend_c, 12, 4230
1, 12839, Pitch_bend_c, 12, 4680
1, 12859, Pitch_bend_c, 12, 5820
1, 12872, Lyric_t, "\001"
1, 12872, Note_on_c, 1, 24, 127
1, 12872, Note_on_c, 3, 58, 109
1, 12872, Note_on_c, 4, 70, 82
1, 12872, Note_on_c, 5, 67, 72
1, 12873, Control_c, 6, 10, 44
1, 12877, Note_on_c, 5, 55, 0
1, 12879, Pitch_bend_c, 3, 0
1, 12880, Pitch_bend_c, 12, 6240
1, 12881, Note_on_c, 5, 58, 0
1, 12882, Note_on_c, 5, 70, 72
1, 12900, Pitch_bend_c, 3, 1890
1, 12900, Pitch_bend_c, 12, 6300
1, 12920, Pitch_bend_c, 3, 8192
1, 12922, Pitch_bend_c, 12, 6570
1, 12937, Note_on_c, 2, 56, 0
1, 12938, Note_on_c, 12, 89, 0
1, 12942, Pitch_bend_c, 12, 6000
1, 12963, Pitch_bend_c, 12, 4920
1, 12964, Note_on_c, 2, 68, 0
1, 12983, Pitch_bend_c, 12, 4980
1, 12987, Note_on_c, 2, 55, 72
1, 12987, Note_on_c, 2, 67, 72
1, 12989, Note_on_c, 1, 24, 0
1, 12992, Note_on_c, 1, 27, 127
1, 12992, Note_on_c, 9, 38, 127
1, 12992, Note_on_c, 9, 42, 100
1, 12995, Note_on_c, 6, 63, 0
1, 13003, Pitch_bend_c, 12, 7020
1, 13015, Note_on_c, 6, 67, 0
1, 13018, Note_on_c, 6, 70, 0
1, 13019, Note_on_c, 9, 38, 0
1, 13019, Note_on_c, 9, 42, 0
1, 13024, Pitch_bend_c, 12, 8192
1, 13054, Note_on_c, 3, 58, 0
1, 13110, Note_on_c, 6, 67, 85
1, 13110, Note_on_c, 6, 70, 71
1, 13112, Lyric_t, "\001"
1, 13112, Note_on_c, 3, 58, 110
1, 13142, Note_on_c, 1, 27, 0
1, 13168, Note_on_c, 3, 58, 0
1, 13173, Note_on_c, 4, 70, 0
1, 13232, Lyric_t, "\001"
1, 13232, Note_on_c, 3, 60, 118
1, 13232, Note_on_c, 4, 68, 78
1, 13232, Note_on_c, 5, 67, 72
1, 13232, Note_on_c, 9, 42, 73
1, 13233, Control_c, 6, 10, 84
1, 13234, Note_on_c, 5, 70, 0
1, 13245, Note_on_c, 5, 63, 72
1, 13245, Note_on_c, 5, 67, 0
1, 13259, Note_on_c, 9, 42, 0
1, 13325, Note_on_c, 3, 60, 0
1, 13328, Note_on_c, 4, 68, 0
1, 13352, Lyric_t, "\001"
1, 13352, Note_on_c, 3, 58, 103
1, 13352, Note_on_c, 4, 67, 75
1, 13353, Note_on_c, 5, 63, 72
1, 13353, Note_on_c, 5, 63, 0
1, 13354, Note_on_c, 5, 67, 0
1, 13362, Note_on_c, 5, 58, 72
1, 13424, Note_on_c, 3, 58, 0
1, 13427, Note_on_c, 6, 67, 0
1, 13427, Note_on_c, 6, 70, 0
1, 13444, Note_on_c, 4, 67, 0
1, 13467, Note_on_c, 2, 58, 72
1, 13467, Note_on_c, 2, 70, 72
1, 13470, Note_on_c, 6, 63, 72
1, 13470, Note_on_c, 6, 67, 91
1, 13470, Note_on_c, 6, 70, 73
1, 13472, Lyric_t, "\001"
1, 13472, Note_on_c, 1, 29, 127
1, 13472, Note_on_c, 3, 63, 115
1, 13472, Note_on_c, 4, 67, 97
1, 13472, Note_on_c, 9, 36, 127
1, 13472, Note_on_c, 9, 44, 78
1, 13478, Pitch_bend_c, 3, 0
1, 13480, Note_on_c, 2, 67, 0
1, 13488, Note_on_c, 2, 55, 0
1, 13499, Note_on_c, 9, 36, 0
1, 13499, Note_on_c, 9, 44, 0
1, 13508, Pitch_bend_c, 3, 8192
1, 13555, Note_on_c, 12, 70, 74
1, 13592, Note_on_c, 9, 42, 88
1, 13592, Note_on_c, 12, 77, 91
1, 13593, Control_c, 6, 10, 44
1, 13619, Note_on_c, 9, 42, 0
1, 13621, Note_on_c, 12, 70, 0
1, 13632, Note_on_c, 3, 63, 0
1, 13653, Note_on_c, 4, 67, 0
1, 13663, Note_on_c, 12, 77, 0
1, 13712, Lyric_t, "\001"
1, 13712, Note_on_c, 3, 63, 108
1, 13712, Note_on_c, 4, 67, 82
1, 13712, Note_on_c, 9, 44, 74
1, 13724, Note_on_c, 12, 70, 73
1, 13739, Note_on_c, 9, 44, 0
1, 13762, Note_on_c, 12, 77, 78
1, 13784, Note_on_c, 12, 70, 0
1, 13829, Note_on_c, 12, 77, 0
1, 13852, Note_on_c, 3, 63, 0
1, 13889, Note_on_c, 12, 70, 67
1, 13892, Note_on_c, 4, 67, 0
1, 13925, Note_on_c, 1, 29, 0
1, 13928, Note_on_c, 12, 77, 65
1, 13947, Note_on_c, 12, 70, 0
1, 13952, Lyric_t, "\001"
1, 13952, Note_on_c, 1, 31, 127
1, 13952, Note_on_c, 3, 63, 116
1, 13952, Note_on_c, 4, 67, 81
1, 13952, Note_on_c, 9, 38, 127
1, 13952, Note_on_c, 9, 42, 100
1, 13953, Control_c, 6, 10, 84
1, 13979, Note_on_c, 9, 38, 0
1, 13979, Note_on_c, 9, 42, 0
1, 13993, Note_on_c, 12, 77, 0
1, 14043, Note_on_c, 12, 70, 47
1, 14059, Note_on_c, 1, 31, 0
1, 14084, Note_on_c, 12, 77, 58
1, 14100, Note_on_c, 3, 63, 0
1, 14105, Note_on_c, 12, 70, 0
1, 14118, Note_on_c, 4, 67, 0
1, 14149, Note_on_c, 12, 77, 0
1, 14192, Lyric_t, "\001"
1, 14192, Note_on_c, 3, 63, 112
1, 14192, Note_on_c, 4, 67, 87
1, 14192, Note_on_c, 9, 42, 73
1, 14200, Note_on_c, 12, 70, 42
1, 14219, Note_on_c, 9, 42, 0
1, 14233, Note_on_c, 12, 77, 47
1, 14263, Note_on_c, 12, 70, 0
1, 14309, Note_on_c, 12, 77, 0
1, 14313, Control_c, 6, 10, 44
1, 14313, Note_on_c, 5, 63, 0
1, 14333, Note_on_c, 3, 63, 0
1, 14342, Note_on_c, 4, 67, 0
1, 14345, Note_on_c, 12, 70, 35
1, 14392, Note_on_c, 12, 77, 44
1, 14399, Note_on_c, 5, 58, 0
1, 14403, Note_on_c, 12, 70, 0
1, 14415, Note_on_c, 2, 70, 0
1, 14427, Note_on_c, 2, 56, 72
1, 14427, Note_on_c, 2, 68, 72
1, 14427, Note_on_c, 2, 58, 0
1, 14432, Lyric_t, "\001"
1, 14432, Lyric_t, "\001"
1, 14432, Note_on_c, 3, 63, 121
1, 14432, Note_on_c, 4, 67, 87
1, 14432, Note_on_c, 9, 36, 127
1, 14432, Note_on_c, 9, 44, 78
1, 14459, Note_on_c, 9, 36, 0
1, 14459, Note_on_c, 9, 44, 0
1, 14463, Note_on_c, 12, 77, 0
1, 14475, Note_on_c, 3, 63, 0
1, 14499, Note_on_c, 12, 70, 24
1, 14522, Note_on_c, 4, 67, 0
1, 14539, Note_on_c, 12, 77, 29
1, 14552, Note_on_c, 9, 42, 88
1, 14564, Note_on_c, 12, 70, 0
1, 14579, Note_on_c, 9, 42, 0
1, 14610, Note_on_c, 12, 77, 0
1, 14626, Note_on_c, 6, 63, 0
1, 14633, Note_on_c, 6, 67, 0
1, 14633, Note_on_c, 6, 70, 0
1, 14650, Note_on_c, 12, 70, 19
1, 14672, Note_on_c, 1, 22, 127
1, 14672, Note_on_c, 9, 36, 127
1, 14672, Note_on_c, 9, 44, 74
1, 14673, Control_c, 6, 10, 84
1, 14699, Note_on_c, 9, 36, 0
1, 14699, Note_on_c, 9, 44, 0
1, 14700, Note_on_c, 12, 70, 0
1, 14705, Note_on_c, 12, 77, 28
1, 14761, Note_on_c, 12, 77, 0
1, 14782, Pitch_bend_c, 3, 960
1, 14792, Lyric_t, "\001"
1, 14792, Note_on_c, 3, 63, 96
1, 14802, Pitch_bend_c, 3, 180
1, 14804, Note_on_c, 4, 67, 98
1, 14823, Pitch_bend_c, 3, 8192
1, 14889, Note_on_c, 1, 22, 0
1, 14898, Note_on_c, 15, 63, 0
1, 14898, Note_on_c, 15, 67, 0
1, 14898, Note_on_c, 15, 70, 0
1, 14900, Note_on_c, 5, 63, 73
1, 14903, Note_on_c, 5, 60, 81
1, 14907, Note_on_c, 2, 55, 72
1, 14907, Note_on_c, 2, 67, 72
1, 14908, Note_on_c, 2, 68, 0
1, 14912, Note_on_c, 1, 24, 127
1, 14912, Note_on_c, 9, 34, 115
1, 14912, Note_on_c, 9, 36, 127
1, 14912, Note_on_c, 9, 38, 127
1, 14912, Note_on_c, 9, 42, 100
1, 14912, Note_on_c, 15, 60, 1
1, 14912, Note_on_c, 15, 63, 1
1, 14919, Note_on_c, 6, 63, 70
1, 14919, Note_on_c, 2, 56, 0
1, 14923, Note_on_c, 6, 60, 64
1, 14933, Pitch_bend_c, 9, 6210
1, 14939, Note_on_c, 9, 34, 0
1, 14939, Note_on_c, 9, 36, 0
1, 14939, Note_on_c, 9, 38, 0
1, 14939, Note_on_c, 9, 42, 0
1, 14945, Note_on_c, 3, 63, 0
1, 14953, Pitch_bend_c, 9, 8192
1, 14960, Note_on_c, 4, 67, 0
1, 15025, Note_on_c, 4, 67, 91
1, 15032, Lyric_t, "\001"
1, 15032, Note_on_c, 3, 63, 102
1, 15032, Note_on_c, 6, 62, 76
1, 15032, Note_on_c, 15, 62, 1
1, 15032, Note_on_c, 15, 65, 1
1, 15033, Control_c, 6, 10, 44
1, 15033, Note_on_c, 5, 63, 0
1, 15038, Note_on_c, 5, 65, 79
1, 15041, Note_on_c, 6, 63, 0
1, 15044, Note_on_c, 5, 62, 69
1, 15044, Note_on_c, 5, 60, 0
1, 15045, Note_on_c, 15, 63, 0
1, 15048, Note_on_c, 6, 65, 76
1, 15049, Note_on_c, 6, 60, 0
1, 15053, Note_on_c, 15, 60, 0
1, 15069, Note_on_c, 3, 63, 0
1, 15081, Note_on_c, 4, 67, 0
1, 15094, Note_on_c, 1, 24, 0
1, 15139, Note_on_c, 5, 65, 0
1, 15145, Pitch_bend_c, 3, 2640
1, 15148, Note_on_c, 4, 67, 90
1, 15148, Note_on_c, 6, 65, 0
1, 15149, Note_on_c, 15, 62, 0
1, 15149, Note_on_c, 15, 65, 0
1, 15150, Note_on_c, 5, 67, 74
1, 15152, Lyric_t, "\001"
1, 15152, Note_on_c, 3, 63, 102
1, 15152, Note_on_c, 9, 42, 73
1, 15152, Note_on_c, 15, 63, 1
1, 15152, Note_on_c, 15, 67, 1
1, 15157, Note_on_c, 6, 67, 91
1, 15159, Note_on_c, 5, 62, 0
1, 15160, Note_on_c, 5, 63, 80
1, 15160, Note_on_c, 6, 63, 83
1, 15167, Pitch_bend_c, 3, 2070
1, 15168, Note_on_c, 6, 62, 0
1, 15179, Note_on_c, 9, 42, 0
1, 15187, Pitch_bend_c, 3, 8192
1, 15189, Note_on_c, 3, 63, 0
1, 15272, Lyric_t, "\001"
1, 15272, Note_on_c, 3, 63, 115
1, 15310, Note_on_c, 4, 67, 0
1, 15338, Note_on_c, 2, 55, 0
1, 15355, Pitch_bend_c, 9, 0
1, 15366, Note_on_c, 5, 67, 0
1, 15373, Note_on_c, 5, 65, 84
1, 15373, Note_on_c, 5, 63, 0
1, 15377, Note_on_c, 5, 62, 91
1, 15378, Note_on_c, 6, 63, 0
1, 15382, Note_on_c, 4, 65, 97
1, 15384, Note_on_c, 2, 67, 0
1, 15384, Note_on_c, 6, 67, 0
1, 15387, Note_on_c, 2, 53, 52
1, 15387, Note_on_c, 2, 77, 67
1, 15389, Note_on_c, 15, 63, 0
1, 15389, Note_on_c, 15, 67, 0
1, 15390, Note_on_c, 6, 60, 72
1, 15390, Note_on_c, 6, 65, 74
1, 15392, Lyric_t, "\001"
1, 15392, Note_on_c, 1, 31, 127
1, 15392, Note_on_c, 3, 62, 127
1, 15392, Note_on_c, 9, 36, 127
1, 15392, Note_on_c, 9, 44, 78
1, 15392, Note_on_c, 15, 62, 1
1, 15392, Note_on_c, 15, 65, 1
1, 15393, Control_c, 6, 10, 84
1, 15419, Note_on_c, 9, 36, 0
1, 15419, Note_on_c, 9, 44, 0
1, 15428, Note_on_c, 3, 63, 0
1, 15509, Note_on_c, 4, 65, 0
1, 15512, Note_on_c, 9, 42, 88
1, 15534, Note_on_c, 3, 62, 0
1, 15539, Note_on_c, 9, 42, 0
1, 15629, Note_on_c, 4, 65, 94
1, 15632, Lyric_t, "\001"
1, 15632, Note_on_c, 3, 62, 118
1, 15632, Note_on_c, 9, 44, 74
1, 15659, Note_on_c, 9, 44, 0
1, 15730, Note_on_c, 5, 58, 85
1, 15734, Note_on_c, 5, 65, 0
1, 15750, Note_on_c, 6, 50, 72
1, 15750, Note_on_c, 6, 58, 62
1, 15753, Control_c, 6, 10, 44
1, 15759, Note_on_c, 4, 65, 0
1, 15766, Note_on_c, 6, 60, 0
1, 15772, Note_on_c, 3, 62, 0
1, 15827, Pitch_bend_c, 3, 4290
1, 15847, Pitch_bend_c, 3, 3570
1, 15867, Pitch_bend_c, 3, 5700
1, 15872, Lyric_t, "\001"
1, 15872, Note_on_c, 1, 34, 127
1, 15872, Note_on_c, 3, 62, 117
1, 15872, Note_on_c, 9, 38, 127
1, 15872, Note_on_c, 9, 42, 100
1, 15874, Note_on_c, 4, 65, 94
1, 15879, Note_on_c, 1, 31, 0
1, 15887, Pitch_bend_c, 3, 8192
1, 15899, Note_on_c, 9, 38, 0
1, 15899, Note_on_c, 9, 42, 0
1, 15967, Note_on_c, 1, 34, 0
1, 15992, Note_on_c, 4, 65, 0
1, 16009, Note_on_c, 3, 62, 0
1, 16059, Pitch_bend_c, 3, 4140
1, 16079, Pitch_bend_c, 3, 0
1, 16089, Note_on_c, 5, 62, 0
1, 16108, Note_on_c, 4, 65, 86
1, 16110, Pitch_bend_c, 3, 1440
1, 16110, Note_on_c, 9, 36, 65
1, 16112, Lyric_t, "\001"
1, 16112, Note_on_c, 3, 62, 115
1, 16112, Note_on_c, 5, 53, 80
1, 16112, Note_on_c, 9, 42, 73
1, 16112, Note_on_c, 10, 15, 94
1, 16113, Control_c, 6, 10, 84
1, 16130, Pitch_bend_c, 3, 8192
1, 16137, Note_on_c, 9, 36, 0
1, 16139, Note_on_c, 9, 42, 0
1, 16139, Note_on_c, 10, 15, 0
1, 16239, Note_on_c, 4, 65, 0
1, 16257, Note_on_c, 3, 62, 0
1, 16352, Lyric_t, "\001"
1, 16352, Lyric_t, "\001"
1, 16352, Note_on_c, 3, 62, 127
1, 16352, Note_on_c, 4, 65, 97
1, 16352, Note_on_c, 9, 36, 127
1, 16352, Note_on_c, 9, 44, 78
1, 16379, Note_on_c, 9, 36, 0
1, 16379, Note_on_c, 9, 44, 0
1, 16395, Note_on_c, 3, 62, 0
1, 16443, Note_on_c, 4, 65, 0
1, 16472, Note_on_c, 9, 42, 88
1, 16473, Control_c, 6, 10, 44
1, 16499, Note_on_c, 9, 42, 0
1, 16592, Note_on_c, 9, 44, 74
1, 16619, Note_on_c, 9, 44, 0
1, 16702, Note_on_c, 5, 53, 83
1, 16709, Note_on_c, 15, 62, 0
1, 16709, Note_on_c, 15, 65, 0
1, 16712, Note_on_c, 1, 22, 127
1, 16712, Note_on_c, 15, 70, 1
1, 16714, Pitch_bend_c, 3, 0
1, 16722, Lyric_t, "\001"
1, 16722, Note_on_c, 3, 58, 117
1, 16724, Note_on_c, 4, 70, 90
1, 16730, Note_on_c, 5, 53, 0
1, 16733, Note_on_c, 5, 58, 0
1, 16745, Pitch_bend_c, 3, 8192
1, 16824, Pitch_bend_c, 5, 12302
1, 16825, Note_on_c, 1, 22, 0
1, 16832, Note_on_c, 1, 24, 127
1, 16832, Note_on_c, 9, 38, 127
1, 16832, Note_on_c, 9, 42, 100
1, 16833, Control_c, 6, 10, 84
1, 16845, Pitch_bend_c, 5, 16383
1, 16847, Note_on_c, 6, 58, 0
1, 16848, Note_on_c, 6, 50, 0
1, 16859, Note_on_c, 9, 38, 0
1, 16859, Note_on_c, 9, 42, 0
1, 16863, Note_on_c, 6, 65, 0
1, 16863, Note_on_c, 3, 58, 0
1, 16884, Note_on_c, 4, 70, 0
1, 16937, Note_on_c, 4, 70, 74
1, 16949, Lyric_t, "\001"
1, 16949, Note_on_c, 3, 58, 108
1, 16950, Note_on_c, 6, 55, 64
1, 16950, Note_on_c, 6, 58, 57
1, 16950, Note_on_c, 6, 60, 68
1, 16985, Note_on_c, 1, 24, 0
1, 17012, Note_on_c, 3, 58, 0
1, 17029, Note_on_c, 5, 53, 0
1, 17040, Pitch_bend_c, 5, 15902
1, 17042, Note_on_c, 4, 70, 0
1, 17059, Note_on_c, 4, 68, 72
1, 17062, Pitch_bend_c, 5, 8192
1, 17067, Note_on_c, 5, 65, 92
1, 17068, Lyric_t, "\001"
1, 17068, Note_on_c, 3, 60, 117
1, 17069, Note_on_c, 15, 70, 0
1, 17072, Note_on_c, 9, 42, 73
1, 17072, Note_on_c, 15, 63, 1
1, 17072, Note_on_c, 15, 68, 1
1, 17099, Note_on_c, 9, 42, 0
1, 17166, Note_on_c, 4, 68, 0
1, 17170, Note_on_c, 4, 67, 80
1, 17180, Note_on_c, 3, 60, 0
1, 17189, Note_on_c, 15, 68, 0
1, 17192, Note_on_c, 15, 67, 1
1, 17193, Control_c, 6, 10, 44
1, 17197, Lyric_t, "\001"
1, 17197, Note_on_c, 3, 58, 96
1, 17205, Pitch_bend_c, 5, 0
1, 17266, Note_on_c, 4, 67, 0
1, 17274, Note_on_c, 2, 53, 0
1, 17274, Note_on_c, 2, 77, 0
1, 17282, Note_on_c, 3, 58, 0
1, 17290, Note_on_c, 6, 55, 0
1, 17292, Note_on_c, 6, 60, 0
1, 17295, Note_on_c, 6, 58, 0
1, 17298, Note_on_c, 4, 67, 98
1, 17307, Note_on_c, 2, 51, 52
1, 17307, Note_on_c, 2, 75, 67
1, 17309, Note_on_c, 15, 63, 0
1, 17310, Note_on_c, 6, 60, 77
1, 17310, Note_on_c, 6, 63, 83
1, 17310, Note_on_c, 6, 67, 86
1, 17312, Note_on_c, 1, 31, 127
1, 17312, Note_on_c, 9, 36, 127
1, 17312, Note_on_c, 9, 44, 78
1, 17312, Note_on_c, 15, 63, 1
1, 17313, Pitch_bend_c, 3, 0
1, 17317, Lyric_t, "\001"
1, 17317, Note_on_c, 3, 63, 108
1, 17333, Pitch_bend_c, 3, 810
1, 17339, Note_on_c, 9, 36, 0
1, 17339, Note_on_c, 9, 44, 0
1, 17353, Pitch_bend_c, 3, 8192
1, 17432, Note_on_c, 9, 42, 88
1, 17453, Control_c, 5, 1, 4
1, 17459, Note_on_c, 9, 42, 0
1, 17462, Note_on_c, 3, 63, 0
1, 17470, Note_on_c, 4, 67, 0
1, 17483, Control_c, 5, 1, 39
1, 17515, Control_c, 5, 1, 101
1, 17545, Control_c, 5, 1, 118
1, 17550, Note_on_c, 4, 67, 93
1, 17552, Lyric_t, "\001"
1, 17552, Note_on_c, 3, 63, 107
1, 17552, Note_on_c, 9, 44, 74
1, 17553, Control_c, 6, 10, 84
1, 17577, Control_c, 5, 1, 125
1, 17579, Note_on_c, 9, 44, 0
1, 17648, Note_on_c, 11, 67, 77
1, 17649, Control_c, 5, 1, 127
1, 17657, Note_on_c, 4, 67, 0
1, 17695, Note_on_c, 3, 63, 0
1, 17697, Note_on_c, 11, 70, 72
1, 17699, Note_on_c, 11, 67, 0
1, 17712, Control_c, 5, 1, 125
1, 17734, Note_on_c, 11, 70, 0
1, 17742, Control_c, 5, 1, 0
1, 17743, Note_on_c, 11, 67, 87
1, 17749, Pitch_bend_c, 3, 6480
1, 17754, Note_on_c, 5, 65, 0
1, 17769, Pitch_bend_c, 3, 0
1, 17773, Pitch_bend_c, 5, 8192
1, 17783, Note_on_c, 11, 67, 0
1, 17784, Note_on_c, 1, 31, 0
1, 17788, Lyric_t, "\001"
1, 17788, Note_on_c, 3, 63, 111
1, 17789, Pitch_bend_c, 3, 1770
1, 17790, Note_on_c, 11, 70, 88
1, 17792, Note_on_c, 1, 34, 127
1, 17792, Note_on_c, 4, 67, 89
1, 17792, Note_on_c, 9, 36, 127
1, 17792, Note_on_c, 9, 38, 127
1, 17792, Note_on_c, 9, 42, 100
1, 17793, Pitch_bend_c, 5, 8192
1, 17809, Pitch_bend_c, 3, 8192
1, 17819, Note_on_c, 9, 36, 0
1, 17819, Note_on_c, 9, 38, 0
1, 17819, Note_on_c, 9, 42, 0
1, 17823, Note_on_c, 11, 70, 0
1, 17834, Note_on_c, 11, 67, 95
1, 17871, Note_on_c, 11, 67, 0
1, 17879, Note_on_c, 11, 70, 94
1, 17910, Note_on_c, 11, 70, 0
1, 17913, Control_c, 6, 10, 44
1, 17914, Note_on_c, 4, 67, 0
1, 17923, Note_on_c, 3, 63, 0
1, 17925, Note_on_c, 11, 67, 107
1, 17952, Note_on_c, 1, 34, 0
1, 17962, Note_on_c, 11, 67, 0
1, 17968, Note_on_c, 11, 70, 116
1, 17983, Pitch_bend_c, 3, 7650
1, 17999, Note_on_c, 11, 70, 0
1, 18003, Pitch_bend_c, 3, 0
1, 18013, Note_on_c, 11, 67, 123
1, 18019, Lyric_t, "\001"
1, 18019, Note_on_c, 3, 63, 110
1, 18025, Note_on_c, 4, 67, 89
1, 18032, Note_on_c, 9, 42, 73
1, 18033, Pitch_bend_c, 3, 1620
1, 18049, Note_on_c, 11, 67, 0
1, 18053, Pitch_bend_c, 3, 8192
1, 18057, Note_on_c, 11, 70, 127
1, 18059, Note_on_c, 9, 42, 0
1, 18089, Note_on_c, 11, 70, 0
1, 18109, Note_on_c, 11, 67, 127
1, 18142, Note_on_c, 4, 67, 0
1, 18149, Note_on_c, 3, 63, 0
1, 18150, Note_on_c, 11, 70, 127
1, 18154, Note_on_c, 11, 67, 0
1, 18185, Note_on_c, 11, 70, 0
1, 18202, Note_on_c, 11, 67, 126
1, 18235, Pitch_bend_c, 3, 4920
1, 18239, Note_on_c, 11, 67, 0
1, 18244, Note_on_c, 11, 70, 123
1, 18255, Pitch_bend_c, 3, 0
1, 18260, Note_on_c, 4, 67, 91
1, 18268, Lyric_t, "\001"
1, 18268, Lyric_t, "\001"
1, 18268, Note_on_c, 3, 63, 115
1, 18272, Note_on_c, 1, 24, 127
1, 18272, Note_on_c, 9, 36, 127
1, 18272, Note_on_c, 9, 42, 72
1, 18273, Control_c, 6, 10, 84
1, 18275, Pitch_bend_c, 3, 2880
1, 18277, Note_on_c, 11, 70, 0
1, 18289, Note_on_c, 11, 67, 120
1, 18297, Pitch_bend_c, 3, 8192
1, 18299, Note_on_c, 9, 36, 0
1, 18299, Note_on_c, 9, 42, 0
1, 18327, Note_on_c, 11, 67, 0
1, 18332, Note_on_c, 9, 44, 50
1, 18335, Note_on_c, 11, 70, 113
1, 18347, Pitch_bend_c, 3, 5220
1, 18354, Note_on_c, 3, 63, 0
1, 18359, Note_on_c, 9, 44, 0
1, 18368, Pitch_bend_c, 3, 0
1, 18368, Note_on_c, 11, 70, 0
1, 18373, Note_on_c, 4, 67, 0
1, 18378, Note_on_c, 11, 67, 98
1, 18392, Note_on_c, 9, 38, 127
1, 18392, Note_on_c, 9, 42, 45
1, 18404, Note_on_c, 1, 24, 0
1, 18415, Note_on_c, 11, 67, 0
1, 18419, Note_on_c, 9, 38, 0
1, 18419, Note_on_c, 9, 42, 0
1, 18429, Note_on_c, 11, 70, 91
1, 18452, Note_on_c, 9, 44, 44
1, 18459, Note_on_c, 11, 70, 0
1, 18467, Note_on_c, 11, 67, 91
1, 18469, Pitch_bend_c, 3, 1380
1, 18478, Pitch_bend_c, 12, 4410
1, 18479, Note_on_c, 9, 44, 0
1, 18489, Pitch_bend_c, 3, 8192
1, 18498, Pitch_bend_c, 12, 0
1, 18508, Note_on_c, 11, 67, 0
1, 18509, Note_on_c, 12, 77, 98
1, 18512, Note_on_c, 9, 36, 121
1, 18512, Note_on_c, 9, 42, 65
1, 18513, Note_on_c, 12, 72, 90
1, 18519, Note_on_c, 11, 70, 84
1, 18539, Pitch_bend_c, 12, 3660
1, 18539, Note_on_c, 9, 36, 0
1, 18539, Note_on_c, 9, 42, 0
1, 18551, Note_on_c, 11, 70, 0
1, 18555, Note_on_c, 11, 67, 84
1, 18560, Pitch_bend_c, 12, 8192
1, 18572, Note_on_c, 9, 38, 93
1, 18572, Note_on_c, 9, 44, 45
1, 18598, Note_on_c, 11, 67, 0
1, 18599, Note_on_c, 9, 38, 0
1, 18599, Note_on_c, 9, 44, 0
1, 18607, Note_on_c, 11, 70, 74
1, 18629, Note_on_c, 15, 67, 0
1, 18629, Note_on_c, 15, 63, 0
1, 18632, Note_on_c, 1, 24, 127
1, 18632, Note_on_c, 9, 42, 45
1, 18633, Control_c, 6, 10, 44
1, 18638, Note_on_c, 11, 70, 0
1, 18643, Pitch_bend_c, 12, 4470
1, 18644, Note_on_c, 11, 67, 81
1, 18659, Note_on_c, 9, 42, 0
1, 18663, Pitch_bend_c, 12, 0
1, 18686, Note_on_c, 11, 67, 0
1, 18690, Note_on_c, 11, 70, 70
1, 18692, Note_on_c, 9, 44, 50
1, 18719, Note_on_c, 9, 44, 0
1, 18721, Note_on_c, 11, 70, 0
1, 18732, Note_on_c, 11, 67, 76
1, 18752, Note_on_c, 9, 38, 127
1, 18752, Note_on_c, 9, 42, 93
1, 18770, Note_on_c, 11, 67, 0
1, 18777, Note_on_c, 11, 70, 63
1, 18779, Note_on_c, 9, 38, 0
1, 18779, Note_on_c, 9, 42, 0
1, 18783, Note_on_c, 6, 63, 0
1, 18796, Note_on_c, 6, 60, 0
1, 18805, Note_on_c, 11, 70, 0
1, 18812, Note_on_c, 6, 67, 0
1, 18813, Note_on_c, 11, 67, 71
1, 18818, Control_c, 12, 1, 121
1, 18854, Note_on_c, 11, 67, 0
1, 18859, Control_c, 12, 1, 127
1, 18870, Note_on_c, 6, 56, 87
1, 18870, Note_on_c, 6, 60, 75
1, 18870, Note_on_c, 6, 64, 83
1, 18969, Note_on_c, 1, 24, 0
1, 18992, Note_on_c, 1, 27, 127
1, 18993, Control_c, 6, 10, 84
1, 19113, Note_on_c, 12, 72, 0
1, 19121, Note_on_c, 12, 77, 0
1, 19123, Note_on_c, 1, 27, 0
1, 19128, Control_c, 12, 1, 0
1, 19134, Note_on_c, 2, 75, 0
1, 19138, Pitch_bend_c, 12, 8192
1, 19149, Pitch_bend_c, 12, 4650
1, 19153, Note_on_c, 2, 51, 0
1, 19170, Pitch_bend_c, 12, 0
1, 19178, Note_on_c, 6, 60, 0
1, 19186, Note_on_c, 6, 64, 0
1, 19190, Note_on_c, 6, 56, 0
1, 19210, Pitch_bend_c, 3, 5760
1, 19230, Pitch_bend_c, 3, 0
1, 19230, Note_on_c, 6, 63, 75
1, 19230, Note_on_c, 6, 67, 93
1, 19230, Note_on_c, 6, 70, 77
1, 19232, Note_on_c, 1, 29, 127
1, 19232, Note_on_c, 9, 36, 127
1, 19232, Note_on_c, 9, 44, 78
1, 19232, Note_on_c, 12, 89, 108
1, 19233, Control_c, 6, 10, 84
1, 19245, Lyric_t, "\001"
1, 19245, Note_on_c, 3, 60, 127
1, 19259, Note_on_c, 9, 36, 0
1, 19259, Note_on_c, 9, 44, 0
1, 19263, Pitch_bend_c, 12, 1500
1, 19272, Pitch_bend_c, 3, 8192
1, 19283, Pitch_bend_c, 12, 4020
1, 19303, Pitch_bend_c, 12, 5820
1, 19324, Pitch_bend_c, 12, 8192
1, 19331, Note_on_c, 3, 60, 0
1, 19352, Lyric_t, "\001"
1, 19352, Note_on_c, 3, 60, 127
1, 19352, Note_on_c, 9, 42, 88
1, 19379, Note_on_c, 9, 42, 0
1, 19408, Pitch_bend_c, 12, 6690
1, 19412, Note_on_c, 12, 89, 0
1, 19423, Lyric_t, "\001"
1, 19423, Note_on_c, 3, 63, 115
1, 19428, Pitch_bend_c, 12, 2580
1, 19438, Note_on_c, 3, 60, 0
1, 19448, Pitch_bend_c, 12, 0
1, 19472, Note_on_c, 9, 44, 74
1, 19472, Note_on_c, 12, 89, 106
1, 19499, Note_on_c, 9, 44, 0
1, 19510, Pitch_bend_c, 12, 810
1, 19530, Pitch_bend_c, 12, 4530
1, 19531, Note_on_c, 3, 63, 0
1, 19552, Pitch_bend_c, 12, 4830
1, 19572, Pitch_bend_c, 12, 6480
1, 19575, Lyric_t, "\001"
1, 19575, Note_on_c, 3, 65, 117
1, 19593, Control_c, 6, 10, 44
1, 19593, Pitch_bend_c, 12, 8192
1, 19643, Note_on_c, 12, 89, 0
1, 19660, Note_on_c, 3, 65, 0
1, 19664, Pitch_bend_c, 12, 3630
1, 19677, Pitch_bend_c, 3, 8100
1, 19677, Note_on_c, 1, 29, 0
1, 19685, Pitch_bend_c, 12, 0
1, 19697, Pitch_bend_c, 3, 0
1, 19709, Lyric_t, "\001"
1, 19709, Note_on_c, 3, 65, 126
1, 19712, Note_on_c, 1, 31, 127
1, 19712, Note_on_c, 9, 38, 127
1, 19712, Note_on_c, 9, 42, 100
1, 19712, Note_on_c, 12, 89, 78
1, 19727, Pitch_bend_c, 3, 8192
1, 19739, Note_on_c, 9, 38, 0
1, 19739, Note_on_c, 9, 42, 0
1, 19758, Pitch_bend_c, 12, 2910
1, 19778, Pitch_bend_c, 12, 4860
1, 19797, Note_on_c, 3, 65, 0
1, 19798, Pitch_bend_c, 12, 4920
1, 19819, Pitch_bend_c, 12, 6300
1, 19832, Lyric_t, "\001"
1, 19832, Lyric_t, "\001"
1, 19832, Note_on_c, 3, 63, 112
1, 19839, Pitch_bend_c, 12, 6960
1, 19853, Note_on_c, 1, 31, 0
1, 19860, Pitch_bend_c, 12, 7020
1, 19873, Note_on_c, 3, 63, 0
1, 19882, Pitch_bend_c, 12, 7320
1, 19888, Note_on_c, 12, 89, 0
1, 19902, Pitch_bend_c, 12, 3840
1, 19922, Pitch_bend_c, 12, 0
1, 19950, Note_on_c, 9, 36, 65
1, 19952, Lyric_t, "\001"
1, 19952, Note_on_c, 3, 63, 123
1, 19952, Note_on_c, 9, 42, 73
1, 19952, Note_on_c, 10, 15, 94
1, 19952, Note_on_c, 12, 89, 82
1, 19953, Control_c, 6, 10, 84
1, 19977, Note_on_c, 9, 36, 0
1, 19979, Note_on_c, 9, 42, 0
1, 19979, Note_on_c, 10, 15, 0
1, 19994, Pitch_bend_c, 12, 2220
1, 19997, Note_on_c, 3, 63, 0
1, 20014, Pitch_bend_c, 12, 3030
1, 20035, Pitch_bend_c, 12, 3780
1, 20057, Pitch_bend_c, 12, 4770
1, 20065, Lyric_t, "\001"
1, 20065, Note_on_c, 3, 63, 125
1, 20077, Pitch_bend_c, 12, 5820
1, 20098, Pitch_bend_c, 12, 6570
1, 20112, Note_on_c, 3, 63, 0
1, 20118, Pitch_bend_c, 12, 6810
1, 20129, Note_on_c, 12, 89, 0
1, 20138, Pitch_bend_c, 12, 6000
1, 20153, Pitch_bend_c, 3, 7020
1, 20159, Pitch_bend_c, 12, 2010
1, 20173, Pitch_bend_c, 3, 0
1, 20188, Pitch_bend_c, 12, 60
1, 20192, Lyric_t, "\001"
1, 20192, Note_on_c, 3, 60, 127
1, 20192, Note_on_c, 9, 36, 127
1, 20192, Note_on_c, 9, 44, 78
1, 20192, Note_on_c, 12, 89, 69
1, 20203, Pitch_bend_c, 3, 8192
1, 20219, Note_on_c, 9, 36, 0
1, 20219, Note_on_c, 9, 44, 0
1, 20232, Pitch_bend_c, 12, 960
1, 20252, Pitch_bend_c, 12, 3840
1, 20273, Pitch_bend_c, 12, 4560
1, 20278, Note_on_c, 3, 60, 0
1, 20293, Pitch_bend_c, 12, 5130
1, 20298, Lyric_t, "\001"
1, 20298, Note_on_c, 3, 60, 127
1, 20312, Note_on_c, 9, 42, 88
1, 20313, Control_c, 6, 10, 44
1, 20313, Pitch_bend_c, 12, 6660
1, 20334, Pitch_bend_c, 12, 7170
1, 20339, Note_on_c, 9, 42, 0
1, 20368, Lyric_t, "\001"
1, 20368, Note_on_c, 3, 63, 121
1, 20374, Note_on_c, 12, 89, 0
1, 20375, Pitch_bend_c, 12, 7230
1, 20384, Note_on_c, 3, 60, 0
1, 20395, Pitch_bend_c, 12, 4650
1, 20417, Pitch_bend_c, 12, 1290
1, 20432, Note_on_c, 5, 55, 72
1, 20432, Note_on_c, 9, 44, 74
1, 20432, Note_on_c, 12, 89, 58
1, 20438, Pitch_bend_c, 12, 210
1, 20444, Note_on_c, 5, 58, 72
1, 20458, Pitch_bend_c, 12, 180
1, 20459, Note_on_c, 9, 44, 0
1, 20478, Pitch_bend_c, 12, 2580
1, 20490, Note_on_c, 3, 63, 0
1, 20498, Pitch_bend_c, 12, 4230
1, 20519, Pitch_bend_c, 12, 4680
1, 20525, Lyric_t, "\001"
1, 20525, Note_on_c, 3, 65, 123
1, 20539, Pitch_bend_c, 12, 5820
1, 20550, Note_on_c, 6, 63, 78
1, 20550, Note_on_c, 6, 67, 79
1, 20552, Note_on_c, 1, 24, 127
1, 20552, Note_on_c, 5, 67, 72
1, 20557, Note_on_c, 5, 55, 0
1, 20560, Pitch_bend_c, 12, 6240
1, 20561, Note_on_c, 5, 58, 0
1, 20562, Note_on_c, 5, 70, 72
1, 20580, Pitch_bend_c, 12, 6300
1, 20602, Pitch_bend_c, 12, 6570
1, 20618, Note_on_c, 12, 89, 0
1, 20621, Note_on_c, 3, 65, 0
1, 20622, Pitch_bend_c, 12, 6000
1, 20640, Pitch_bend_c, 3, 7530
1, 20643, Pitch_bend_c, 12, 4920
1, 20650, Note_on_c, 1, 24, 0
1, 20660, Pitch_bend_c, 3, 0
1, 20663, Pitch_bend_c, 12, 4980
1, 20665, Lyric_t, "\001"
1, 20665, Lyric_t, "\001"
1, 20665, Note_on_c, 3, 67, 127
1, 20672, Note_on_c, 1, 27, 127
1, 20672, Note_on_c, 9, 38, 127
1, 20672, Note_on_c, 9, 42, 100
1, 20673, Control_c, 6, 10, 84
1, 20683, Pitch_bend_c, 12, 7020
1, 20699, Note_on_c, 9, 38, 0
1, 20699, Note_on_c, 9, 42, 0
1, 20702, Pitch_bend_c, 3, 8192
1, 20704, Pitch_bend_c, 12, 8192
1, 20804, Note_on_c, 1, 27, 0
1, 20812, Note_on_c, 3, 67, 0
1, 20813, Pitch_bend_c, 3, 4770
1, 20833, Pitch_bend_c, 3, 0
1, 20853, Pitch_bend_c, 3, 1620
1, 20873, Pitch_bend_c, 3, 8192
1, 20912, Note_on_c, 5, 67, 72
1, 20912, Note_on_c, 9, 42, 73
1, 20914, Note_on_c, 5, 70, 0
1, 20925, Note_on_c, 5, 63, 72
1, 20925, Note_on_c, 5, 67, 0
1, 20939, Note_on_c, 9, 42, 0
1, 21023, Note_on_c, 6, 63, 0
1, 21033, Note_on_c, 5, 63, 72
1, 21033, Control_c, 6, 10, 44
1, 21033, Note_on_c, 6, 67, 0
1, 21033, Note_on_c, 5, 63, 0
1, 21034, Note_on_c, 5, 67, 0
1, 21042, Note_on_c, 5, 58, 72
1, 21048, Note_on_c, 6, 70, 0
1, 21097, Note_on_c, 6, 67, 0
1, 21113, Note_on_c, 6, 63, 0
1, 21129, Pitch_bend_c, 3, 3240
1, 21150, Pitch_bend_c, 3, 0
1, 21150, Note_on_c, 6, 60, 74
1, 21150, Note_on_c, 6, 63, 77
1, 21150, Note_on_c, 6, 67, 87
1, 21152, Note_on_c, 1, 29, 127
1, 21152, Note_on_c, 9, 36, 127
1, 21152, Note_on_c, 9, 44, 78
1, 21157, Lyric_t, "\001"
1, 21157, Note_on_c, 3, 60, 122
1, 21179, Note_on_c, 9, 36, 0
1, 21179, Note_on_c, 9, 44, 0
1, 21182, Pitch_bend_c, 3, 8192
1, 21272, Note_on_c, 9, 42, 88
1, 21285, Note_on_c, 3, 60, 0
1, 21299, Note_on_c, 9, 42, 0
1, 21317, Lyric_t, "\001"
1, 21317, Note_on_c, 3, 63, 127
1, 21392, Note_on_c, 9, 44, 74
1, 21393, Control_c, 6, 10, 84
1, 21403, Note_on_c, 3, 63, 0
1, 21408, Lyric_t, "\001"
1, 21408, Note_on_c, 3, 63, 127
1, 21419, Note_on_c, 9, 44, 0
1, 21493, Lyric_t, "\001"
1, 21493, Note_on_c, 3, 65, 122
1, 21494, Note_on_c, 3, 63, 0
1, 21574, Note_on_c, 1, 29, 0
1, 21581, Note_on_c, 3, 65, 0
1, 21618, Pitch_bend_c, 3, 0
1, 21630, Lyric_t, "\001"
1, 21630, Note_on_c, 3, 65, 127
1, 21630, Note_on_c, 11, 63, 96
1, 21630, Note_on_c, 11, 67, 117
1, 21630, Note_on_c, 11, 70, 103
1, 21632, Note_on_c, 1, 31, 127
1, 21632, Note_on_c, 9, 38, 127
1, 21632, Note_on_c, 9, 42, 100
1, 21648, Pitch_bend_c, 3, 8192
1, 21659, Note_on_c, 9, 38, 0
1, 21659, Note_on_c, 9, 42, 0
1, 21708, Note_on_c, 3, 65, 0
1, 21748, Lyric_t, "\001"
1, 21748, Lyric_t, "\001"
1, 21748, Note_on_c, 3, 63, 103
1, 21753, Control_c, 6, 10, 44
1, 21774, Note_on_c, 1, 31, 0
1, 21781, Note_on_c, 11, 70, 0
1, 21782, Note_on_c, 11, 63, 0
1, 21785, Note_on_c, 3, 63, 0
1, 21790, Note_on_c, 11, 63, 101
1, 21790, Note_on_c, 11, 67, 102
1, 21790, Note_on_c, 11, 70, 102
1, 21793, Note_on_c, 11, 67, 0
1, 21869, Lyric_t, "\001"
1, 21869, Note_on_c, 3, 63, 121
1, 21872, Note_on_c, 9, 42, 73
1, 21899, Note_on_c, 9, 42, 0
1, 21909, Note_on_c, 3, 63, 0
1, 21916, Note_on_c, 11, 70, 0
1, 21925, Note_on_c, 11, 63, 0
1, 21935, Note_on_c, 11, 67, 0
1, 21950, Note_on_c, 11, 63, 92
1, 21950, Note_on_c, 11, 67, 92
1, 21950, Note_on_c, 11, 70, 92
1, 21985, Lyric_t, "\001"
1, 21985, Note_on_c, 3, 63, 127
1, 21993, Note_on_c, 5, 63, 0
1, 22017, Note_on_c, 3, 63, 0
1, 22073, Note_on_c, 11, 70, 0
1, 22079, Note_on_c, 5, 58, 0
1, 22080, Note_on_c, 11, 67, 0
1, 22087, Pitch_bend_c, 3, 2400
1, 22092, Note_on_c, 11, 63, 0
1, 22102, Lyric_t, "\001"
1, 22102, Note_on_c, 3, 60, 122
1, 22108, Pitch_bend_c, 3, 570
1, 22110, Note_on_c, 11, 63, 83
1, 22110, Note_on_c, 11, 67, 84
1, 22110, Note_on_c, 11, 70, 84
1, 22112, Note_on_c, 9, 36, 127
1, 22112, Note_on_c, 9, 44, 78
1, 22113, Control_c, 6, 10, 84
1, 22128, Pitch_bend_c, 3, 8192
1, 22139, Note_on_c, 9, 36, 0
1, 22139, Note_on_c, 9, 44, 0
1, 22232, Note_on_c, 9, 42, 88
1, 22243, Note_on_c, 11, 70, 0
1, 22245, Note_on_c, 11, 63, 0
1, 22247, Note_on_c, 3, 60, 0
1, 22259, Note_on_c, 9, 42, 0
1, 22263, Note_on_c, 11, 67, 0
1, 22270, Note_on_c, 11, 63, 75
1, 22270, Note_on_c, 11, 67, 75
1, 22270, Note_on_c, 11, 70, 75
1, 22277, Lyric_t, "\001"
1, 22277, Note_on_c, 3, 63, 127
1, 22352, Note_on_c, 1, 22, 127
1, 22352, Note_on_c, 9, 36, 127
1, 22352, Note_on_c, 9, 44, 74
1, 22363, Note_on_c, 3, 63, 0
1, 22368, Lyric_t, "\001"
1, 22368, Note_on_c, 3, 63, 127
1, 22371, Note_on_c, 6, 60, 0
1, 22379, Note_on_c, 9, 36, 0
1, 22379, Note_on_c, 9, 44, 0
1, 22383, Note_on_c, 6, 67, 0
1, 22388, Note_on_c, 6, 63, 0
1, 22412, Note_on_c, 11, 63, 0
1, 22417, Note_on_c, 11, 70, 0
1, 22426, Note_on_c, 11, 67, 0
1, 22430, Note_on_c, 11, 63, 66
1, 22430, Note_on_c, 11, 67, 66
1, 22430, Note_on_c, 11, 70, 66
1, 22448, Lyric_t, "\001"
1, 22448, Note_on_c, 3, 65, 123
1, 22454, Note_on_c, 3, 63, 0
1, 22473, Control_c, 6, 10, 44
1, 22545, Note_on_c, 3, 65, 0
1, 22558, Note_on_c, 1, 22, 0
1, 22573, Pitch_bend_c, 3, 0
1, 22575, Note_on_c, 11, 63, 0
1, 22577, Note_on_c, 11, 70, 0
1, 22580, Note_on_c, 5, 63, 73
1, 22583, Note_on_c, 5, 60, 81
1, 22583, Note_on_c, 11, 67, 0
1, 22587, Lyric_t, "\001"
1, 22587, Lyric_t, "\001"
1, 22587, Note_on_c, 3, 67, 121
1, 22590, Note_on_c, 6, 60, 81
1, 22590, Note_on_c, 6, 63, 75
1, 22590, Note_on_c, 11, 63, 57
1, 22590, Note_on_c, 11, 67, 58
1, 22590, Note_on_c, 11, 70, 58
1, 22592, Note_on_c, 1, 24, 127
1, 22592, Note_on_c, 9, 34, 115
1, 22592, Note_on_c, 9, 36, 127
1, 22592, Note_on_c, 9, 38, 127
1, 22592, Note_on_c, 9, 42, 100
1, 22613, Pitch_bend_c, 9, 6210
1, 22619, Note_on_c, 9, 34, 0
1, 22619, Note_on_c, 9, 36, 0
1, 22619, Note_on_c, 9, 38, 0
1, 22619, Note_on_c, 9, 42, 0
1, 22623, Pitch_bend_c, 3, 8192
1, 22633, Pitch_bend_c, 9, 8192
1, 22710, Note_on_c, 6, 62, 81
1, 22710, Note_on_c, 6, 65, 70
1, 22711, Note_on_c, 6, 63, 0
1, 22713, Note_on_c, 5, 63, 0
1, 22714, Pitch_bend_c, 3, 4620
1, 22718, Note_on_c, 5, 65, 79
1, 22724, Note_on_c, 5, 62, 69
1, 22724, Note_on_c, 5, 60, 0
1, 22728, Note_on_c, 11, 63, 0
1, 22729, Note_on_c, 3, 67, 0
1, 22737, Pitch_bend_c, 3, 1560
1, 22737, Note_on_c, 11, 70, 0
1, 22740, Note_on_c, 6, 60, 0
1, 22741, Note_on_c, 11, 67, 0
1, 22742, Note_on_c, 1, 24, 0
1, 22750, Note_on_c, 11, 63, 48
1, 22750, Note_on_c, 11, 67, 48
1, 22750, Note_on_c, 11, 70, 49
1, 22757, Pitch_bend_c, 3, 0
1, 22777, Pitch_bend_c, 3, 2850
1, 22797, Pitch_bend_c, 3, 8192
1, 22819, Note_on_c, 5, 65, 0
1, 22820, Note_on_c, 6, 65, 0
1, 22830, Note_on_c, 5, 67, 74
1, 22830, Note_on_c, 6, 63, 79
1, 22830, Note_on_c, 6, 67, 83
1, 22832, Note_on_c, 9, 42, 73
1, 22833, Control_c, 6, 10, 84
1, 22839, Note_on_c, 5, 62, 0
1, 22840, Note_on_c, 5, 63, 80
1, 22852, Note_on_c, 6, 62, 0
1, 22859, Note_on_c, 9, 42, 0
1, 22893, Note_on_c, 11, 67, 0
1, 22897, Note_on_c, 11, 63, 0
1, 22908, Note_on_c, 11, 70, 0
1, 22910, Note_on_c, 11, 63, 39
1, 22910, Note_on_c, 11, 67, 40
1, 22910, Note_on_c, 11, 70, 39
1, 22920, Pitch_bend_c, 3, 0
1, 22947, Lyric_t, "\001"
1, 22947, Note_on_c, 3, 63, 114
1, 22960, Pitch_bend_c, 3, 8192
1, 23026, Note_on_c, 11, 70, 0
1, 23028, Note_on_c, 6, 63, 0
1, 23033, Note_on_c, 11, 63, 0
1, 23035, Pitch_bend_c, 9, 0
1, 23036, Note_on_c, 11, 67, 0
1, 23043, Note_on_c, 6, 67, 0
1, 23046, Note_on_c, 5, 67, 0
1, 23049, Note_on_c, 3, 63, 0
1, 23053, Note_on_c, 5, 65, 84
1, 23053, Note_on_c, 5, 63, 0
1, 23057, Note_on_c, 5, 62, 91
1, 23070, Note_on_c, 6, 60, 74
1, 23070, Note_on_c, 6, 65, 86
1, 23072, Note_on_c, 1, 31, 127
1, 23072, Note_on_c, 9, 36, 127
1, 23072, Note_on_c, 9, 44, 78
1, 23083, Lyric_t, "\001"
1, 23083, Note_on_c, 3, 65, 121
1, 23099, Note_on_c, 9, 36, 0
1, 23099, Note_on_c, 9, 44, 0
1, 23192, Note_on_c, 9, 42, 88
1, 23193, Control_c, 6, 10, 44
1, 23219, Note_on_c, 3, 65, 0
1, 23219, Note_on_c, 9, 42, 0
1, 23265, Lyric_t, "\001"
1, 23265, Note_on_c, 3, 62, 122
1, 23312, Note_on_c, 9, 44, 74
1, 23339, Note_on_c, 9, 44, 0
1, 23343, Lyric_t, "\001"
1, 23343, Note_on_c, 3, 62, 122
1, 23363, Note_on_c, 3, 62, 0
1, 23410, Note_on_c, 5, 58, 85
1, 23414, Note_on_c, 5, 65, 0
1, 23418, Lyric_t, "\001"
1, 23418, Note_on_c, 3, 62, 122
1, 23421, Note_on_c, 3, 62, 0
1, 23430, Note_on_c, 6, 50, 75
1, 23430, Note_on_c, 6, 58, 63
1, 23496, Note_on_c, 3, 62, 0
1, 23528, Pitch_bend_c, 3, 0
1, 23538, Note_on_c, 1, 31, 0
1, 23544, Lyric_t, "\001"
1, 23544, Note_on_c, 3, 60, 127
1, 23552, Note_on_c, 1, 34, 127
1, 23552, Note_on_c, 9, 38, 127
1, 23552, Note_on_c, 9, 42, 100
1, 23553, Control_c, 6, 10, 84
1, 23558, Pitch_bend_c, 3, 8192
1, 23579, Note_on_c, 9, 38, 0
1, 23579, Note_on_c, 9, 42, 0
1, 23620, Note_on_c, 3, 60, 0
1, 23662, Lyric_t, "\001"
1, 23662, Note_on_c, 3, 58, 117
1, 23664, Note_on_c, 1, 34, 0
1, 23724, Note_on_c, 3, 58, 0
1, 23769, Note_on_c, 5, 62, 0
1, 23772, Lyric_t, "\001"
1, 23772, Note_on_c, 3, 58, 120
1, 23790, Note_on_c, 9, 36, 65
1, 23792, Note_on_c, 5, 53, 80
1, 23792, Note_on_c, 9, 42, 73
1, 23792, Note_on_c, 10, 15, 94
1, 23817, Note_on_c, 9, 36, 0
1, 23819, Note_on_c, 9, 42, 0
1, 23819, Note_on_c, 10, 15, 0
1, 23879, Note_on_c, 3, 58, 0
1, 23900, Lyric_t, "\001"
1, 23900, Lyric_t, "\001"
1, 23900, Note_on_c, 3, 60, 121
1, 23913, Control_c, 6, 10, 44
1, 23995, Note_on_c, 3, 60, 0
1, 24010, Pitch_bend_c, 3, 7620
1, 24030, Pitch_bend_c, 3, 0
1, 24032, Lyric_t, "\001"
1, 24032, Note_on_c, 3, 62, 116
1, 24032, Note_on_c, 9, 36, 127
1, 24032, Note_on_c, 9, 44, 78
1, 24050, Pitch_bend_c, 3, 600
1, 24059, Note_on_c, 9, 36, 0
1, 24059, Note_on_c, 9, 44, 0
1, 24070, Pitch_bend_c, 3, 8192
1, 24152, Note_on_c, 9, 42, 88
1, 24177, Note_on_c, 3, 62, 0
1, 24179, Note_on_c, 9, 42, 0
1, 24214, Lyric_t, "\001"
1, 24214, Note_on_c, 3, 60, 118
1, 24272, Note_on_c, 9, 44, 74
1, 24273, Control_c, 6, 10, 84
1, 24299, Note_on_c, 9, 44, 0
1, 24330, Note_on_c, 3, 60, 0
1, 24367, Lyric_t, "\001"
1, 24367, Note_on_c, 3, 58, 125
1, 24382, Note_on_c, 5, 53, 83
1, 24392, Note_on_c, 1, 22, 127
1, 24396, Note_on_c, 6, 60, 0
1, 24398, Note_on_c, 6, 65, 0
1, 24410, Note_on_c, 5, 53, 0
1, 24413, Note_on_c, 5, 58, 0
1, 24443, Note_on_c, 3, 58, 0
1, 24467, Pitch_bend_c, 3, 6930
1, 24487, Pitch_bend_c, 3, 0
1, 24489, Lyric_t, "\001"
1, 24489, Lyric_t, "\001"
1, 24489, Note_on_c, 3, 60, 127
1, 24504, Pitch_bend_c, 5, 12302
1, 24509, Note_on_c, 1, 22, 0
1, 24512, Note_on_c, 1, 24, 127
1, 24512, Note_on_c, 9, 38, 127
1, 24512, Note_on_c, 9, 42, 100
1, 24517, Pitch_bend_c, 3, 8192
1, 24525, Pitch_bend_c, 5, 16383
1, 24539, Note_on_c, 9, 38, 0
1, 24539, Note_on_c, 9, 42, 0
1, 24568, Pitch_bend_c, 3, 0
1, 24602, Note_on_c, 3, 60, 0
1, 24608, Pitch_bend_c, 3, 8192
1, 24612, Note_on_c, 3, 55, 127
1, 24630, Note_on_c, 6, 53, 70
1, 24630, Note_on_c, 6, 56, 49
1, 24630, Note_on_c, 6, 58, 60
1, 24630, Note_on_c, 6, 62, 62
1, 24633, Control_c, 6, 10, 44
1, 24644, Note_on_c, 3, 55, 0
1, 24672, Note_on_c, 1, 24, 0
1, 24709, Note_on_c, 5, 53, 0
1, 24720, Pitch_bend_c, 5, 15902
1, 24742, Pitch_bend_c, 5, 8192
1, 24747, Note_on_c, 5, 65, 92
1, 24752, Note_on_c, 9, 42, 73
1, 24779, Note_on_c, 9, 42, 0
1, 24781, Note_on_c, 6, 58, 0
1, 24790, Note_on_c, 6, 50, 0
1, 24885, Pitch_bend_c, 5, 0
1, 24899, Lyric_t, "\001"
1, 24899, Note_on_c, 3, 58, 127
1, 24919, Note_on_c, 3, 58, 0
1, 24938, Note_on_c, 6, 62, 0
1, 24948, Note_on_c, 6, 58, 0
1, 24953, Note_on_c, 6, 53, 0
1, 24955, Note_on_c, 6, 56, 0
1, 24972, Lyric_t, "\001"
1, 24972, Note_on_c, 3, 68, 127
1, 24990, Note_on_c, 6, 60, 78
1, 24990, Note_on_c, 6, 63, 81
1, 24990, Note_on_c, 6, 67, 84
1, 24992, Note_on_c, 1, 29, 127
1, 24992, Note_on_c, 9, 36, 127
1, 24992, Note_on_c, 9, 44, 78
1, 24993, Control_c, 6, 10, 84
1, 25019, Note_on_c, 9, 36, 0
1, 25019, Note_on_c, 9, 44, 0
1, 25064, Note_on_c, 3, 68, 0
1, 25097, Lyric_t, "\001"
1, 25097, Note_on_c, 3, 68, 102
1, 25112, Note_on_c, 9, 42, 88
1, 25120, Note_on_c, 3, 68, 0
1, 25133, Control_c, 5, 1, 4
1, 25139, Note_on_c, 9, 42, 0
1, 25163, Control_c, 5, 1, 39
1, 25164, Lyric_t, "\001"
1, 25164, Note_on_c, 3, 67, 127
1, 25195, Control_c, 5, 1, 101
1, 25225, Control_c, 5, 1, 118
1, 25232, Note_on_c, 9, 44, 74
1, 25257, Control_c, 5, 1, 125
1, 25259, Note_on_c, 9, 44, 0
1, 25309, Note_on_c, 3, 67, 0
1, 25329, Control_c, 5, 1, 127
1, 25344, Lyric_t, "\001"
1, 25344, Note_on_c, 3, 65, 127
1, 25353, Control_c, 6, 10, 44
1, 25389, Note_on_c, 3, 65, 0
1, 25392, Control_c, 5, 1, 125
1, 25422, Control_c, 5, 1, 0
1, 25434, Note_on_c, 5, 65, 0
1, 25452, Note_on_c, 1, 29, 0
1, 25453, Pitch_bend_c, 5, 8192
1, 25463, Lyric_t, "\001"
1, 25463, Note_on_c, 3, 65, 127
1, 25470, Note_on_c, 11, 63, 102
1, 25470, Note_on_c, 11, 67, 123
1, 25470, Note_on_c, 11, 70, 109
1, 25472, Note_on_c, 1, 31, 127
1, 25472, Note_on_c, 9, 36, 127
1, 25472, Note_on_c, 9, 38, 127
1, 25472, Note_on_c, 9, 42, 100
1, 25473, Pitch_bend_c, 5, 8192
1, 25499, Note_on_c, 9, 36, 0
1, 25499, Note_on_c, 9, 38, 0
1, 25499, Note_on_c, 9, 42, 0
1, 25509, Note_on_c, 3, 65, 0
1, 25592, Lyric_t, "\001"
1, 25592, Note_on_c, 3, 65, 113
1, 25604, Note_on_c, 3, 65, 0
1, 25617, Note_on_c, 1, 31, 0
1, 25621, Note_on_c, 11, 70, 0
1, 25622, Note_on_c, 11, 63, 0
1, 25630, Note_on_c, 11, 63, 107
1, 25630, Note_on_c, 11, 67, 108
1, 25630, Note_on_c, 11, 70, 108
1, 25633, Note_on_c, 11, 67, 0
1, 25707, Lyric_t, "\001"
1, 25707, Lyric_t, "\001"
1, 25707, Note_on_c, 3, 63, 127
1, 25712, Note_on_c, 9, 42, 73
1, 25713, Control_c, 6, 10, 84
1, 25739, Note_on_c, 9, 42, 0
1, 25756, Note_on_c, 11, 70, 0
1, 25765, Note_on_c, 11, 63, 0
1, 25775, Note_on_c, 11, 67, 0
1, 25790, Note_on_c, 11, 63, 98
1, 25790, Note_on_c, 11, 67, 98
1, 25790, Note_on_c, 11, 70, 98
1, 25889, Note_on_c, 3, 63, 0
1, 25913, Note_on_c, 11, 70, 0
1, 25920, Pitch_bend_c, 3, 0
1, 25920, Note_on_c, 11, 67, 0
1, 25932, Note_on_c, 11, 63, 0
1, 25937, Lyric_t, "\001"
1, 25937, Note_on_c, 3, 68, 127
1, 25950, Note_on_c, 11, 63, 89
1, 25950, Note_on_c, 11, 67, 90
1, 25950, Note_on_c, 11, 70, 90
1, 25952, Note_on_c, 1, 24, 127
1, 25952, Pitch_bend_c, 3, 1920
1, 25952, Note_on_c, 9, 36, 127
1, 25952, Note_on_c, 9, 44, 78
1, 25972, Pitch_bend_c, 3, 8192
1, 25979, Note_on_c, 9, 36, 0
1, 25979, Note_on_c, 9, 44, 0
1, 26072, Note_on_c, 9, 38, 92
1, 26072, Note_on_c, 9, 42, 88
1, 26073, Control_c, 6, 10, 44
1, 26083, Note_on_c, 11, 70, 0
1, 26085, Note_on_c, 11, 63, 0
1, 26090, Lyric_t, "\001"
1, 26090, Note_on_c, 3, 68, 127
1, 26099, Note_on_c, 9, 38, 0
1, 26099, Note_on_c, 9, 42, 0
1, 26103, Note_on_c, 11, 67, 0
1, 26104, Note_on_c, 3, 68, 0
1, 26109, Note_on_c, 1, 24, 0
1, 26110, Note_on_c, 11, 63, 81
1, 26110, Note_on_c, 11, 67, 81
1, 26110, Note_on_c, 11, 70, 81
1, 26147, Lyric_t, "\001"
1, 26147, Note_on_c, 3, 67, 127
1, 26157, Note_on_c, 3, 68, 0
1, 26158, Pitch_bend_c, 12, 4410
1, 26178, Pitch_bend_c, 12, 0
1, 26189, Note_on_c, 12, 77, 88
1, 26192, Note_on_c, 9, 36, 127
1, 26192, Note_on_c, 9, 44, 74
1, 26193, Note_on_c, 12, 72, 80
1, 26219, Pitch_bend_c, 12, 3660
1, 26219, Note_on_c, 9, 36, 0
1, 26219, Note_on_c, 9, 44, 0
1, 26240, Pitch_bend_c, 12, 8192
1, 26252, Note_on_c, 11, 63, 0
1, 26257, Note_on_c, 11, 70, 0
1, 26266, Note_on_c, 11, 67, 0
1, 26270, Note_on_c, 11, 63, 72
1, 26270, Note_on_c, 11, 67, 72
1, 26270, Note_on_c, 11, 70, 72
1, 26295, Note_on_c, 3, 67, 0
1, 26300, Lyric_t, "\001"
1, 26300, Note_on_c, 3, 65, 127
1, 26312, Note_on_c, 1, 24, 127
1, 26323, Pitch_bend_c, 12, 4470
1, 26335, Note_on_c, 6, 67, 0
1, 26336, Note_on_c, 6, 63, 0
1, 26343, Pitch_bend_c, 12, 0
1, 26347, Note_on_c, 6, 60, 0
1, 26367, Note_on_c, 3, 65, 0
1, 26415, Note_on_c, 11, 63, 0
1, 26417, Note_on_c, 11, 70, 0
1, 26423, Note_on_c, 11, 67, 0
1, 26430, Lyric_t, "\001"
1, 26430, Note_on_c, 3, 65, 127
1, 26430, Note_on_c, 6, 60, 70
1, 26430, Note_on_c, 6, 64, 74
1, 26430, Note_on_c, 6, 68, 67
1, 26430, Note_on_c, 11, 63, 63
1, 26430, Note_on_c, 11, 67, 64
1, 26430, Note_on_c, 11, 70, 64
1, 26432, Note_on_c, 9, 38, 127
1, 26432, Note_on_c, 9, 42, 100
1, 26433, Control_c, 6, 10, 84
1, 26459, Note_on_c, 9, 38, 0
1, 26459, Note_on_c, 9, 42, 0
1, 26490, Pitch_bend_c, 3, 14342
1, 26498, Control_c, 12, 1, 121
1, 26510, Pitch_bend_c, 3, 8192
1, 26539, Control_c, 12, 1, 127
1, 26543, Note_on_c, 3, 65, 0
1, 26544, Lyric_t, "\001"
1, 26544, Lyric_t, "\001"
1, 26544, Note_on_c, 3, 63, 127
1, 26568, Note_on_c, 11, 63, 0
1, 26577, Note_on_c, 11, 70, 0
1, 26581, Note_on_c, 11, 67, 0
1, 26590, Note_on_c, 11, 63, 54
1, 26590, Note_on_c, 11, 67, 54
1, 26590, Note_on_c, 11, 70, 55
1, 26630, Note_on_c, 1, 24, 0
1, 26672, Note_on_c, 1, 27, 127
1, 26672, Note_on_c, 9, 42, 73
1, 26699, Note_on_c, 9, 42, 0
1, 26730, Note_on_c, 3, 63, 0
1, 26733, Note_on_c, 11, 67, 0
1, 26737, Note_on_c, 11, 63, 0
1, 26748, Note_on_c, 11, 70, 0
1, 26750, Note_on_c, 11, 63, 45
1, 26750, Note_on_c, 11, 67, 46
1, 26750, Note_on_c, 11, 70, 45
1, 26784, Note_on_c, 1, 27, 0
1, 26793, Control_c, 6, 10, 44
1, 26793, Note_on_c, 12, 72, 0
1, 26801, Note_on_c, 12, 77, 0
1, 26808, Control_c, 12, 1, 0
1, 26818, Pitch_bend_c, 12, 8192
1, 26829, Pitch_bend_c, 12, 4650
1, 26850, Pitch_bend_c, 12, 0
1, 26853, Note_on_c, 6, 60, 0
1, 26866, Note_on_c, 11, 70, 0
1, 26868, Note_on_c, 6, 64, 0
1, 26868, Note_on_c, 6, 68, 0
1, 26873, Note_on_c, 11, 63, 0
1, 26876, Note_on_c, 11, 67, 0
1, 26910, Note_on_c, 6, 63, 66
1, 26910, Note_on_c, 6, 67, 88
1, 26910, Note_on_c, 6, 70, 65
1, 26912, Note_on_c, 1, 29, 127
1, 26912, Note_on_c, 9, 36, 127
1, 26912, Note_on_c, 9, 44, 78
1, 26912, Note_on_c, 12, 89, 112
1, 26927, Lyric_t, "\001"
1, 26927, Note_on_c, 3, 63, 127
1, 26939, Note_on_c, 9, 36, 0
1, 26939, Note_on_c, 9, 44, 0
1, 26943, Pitch_bend_c, 12, 1500
1, 26963, Pitch_bend_c, 12, 4020
1, 26975, Note_on_c, 3, 63, 0
1, 26983, Pitch_bend_c, 12, 5820
1, 27004, Pitch_bend_c, 12, 8192
1, 27032, Note_on_c, 9, 42, 88
1, 27037, Lyric_t, "\001"
1, 27037, Note_on_c, 3, 63, 111
1, 27048, Note_on_c, 3, 63, 0
1, 27059, Note_on_c, 9, 42, 0
1, 27088, Pitch_bend_c, 12, 6690
1, 27092, Note_on_c, 12, 89, 0
1, 27102, Lyric_t, "\001"
1, 27102, Note_on_c, 3, 63, 127
1, 27108, Pitch_bend_c, 12, 2580
1, 27128, Pitch_bend_c, 12, 0
1, 27152, Note_on_c, 9, 44, 74
1, 27152, Note_on_c, 12, 89, 110
1, 27153, Control_c, 6, 10, 84
1, 27179, Note_on_c, 9, 44, 0
1, 27190, Pitch_bend_c, 12, 810
1, 27210, Pitch_bend_c, 12, 4530
1, 27232, Pitch_bend_c, 12, 4830
1, 27252, Pitch_bend_c, 12, 6480
1, 27273, Pitch_bend_c, 12, 8192
1, 27273, Note_on_c, 3, 63, 0
1, 27282, Lyric_t, "\001"
1, 27282, Note_on_c, 3, 65, 127
1, 27303, Note_on_c, 3, 65, 0
1, 27323, Note_on_c, 12, 89, 0
1, 27344, Pitch_bend_c, 12, 3630
1, 27358, Note_on_c, 1, 29, 0
1, 27365, Pitch_bend_c, 12, 0
1, 27392, Note_on_c, 1, 31, 127
1, 27392, Note_on_c, 9, 38, 127
1, 27392, Note_on_c, 9, 42, 100
1, 27392, Note_on_c, 12, 89, 82
1, 27404, Lyric_t, "\001"
1, 27404, Note_on_c, 3, 65, 127
1, 27419, Note_on_c, 9, 38, 0
1, 27419, Note_on_c, 9, 42, 0
1, 27438, Pitch_bend_c, 12, 2910
1, 27458, Pitch_bend_c, 12, 4860
1, 27478, Pitch_bend_c, 12, 4920
1, 27495, Note_on_c, 3, 65, 0
1, 27499, Pitch_bend_c, 12, 6300
1, 27513, Control_c, 6, 10, 44
1, 27517, Lyric_t, "\001"
1, 27517, Note_on_c, 3, 55, 127
1, 27519, Pitch_bend_c, 12, 6960
1, 27530, Note_on_c, 1, 31, 0
1, 27538, Note_on_c, 3, 55, 0
1, 27540, Pitch_bend_c, 12, 7020
1, 27562, Pitch_bend_c, 12, 7320
1, 27568, Note_on_c, 12, 89, 0
1, 27582, Pitch_bend_c, 12, 3840
1, 27588, Pitch_bend_c, 3, 7860
1, 27602, Pitch_bend_c, 12, 0
1, 27608, Pitch_bend_c, 3, 690
1, 27628, Pitch_bend_c, 3, 600
1, 27630, Lyric_t, "\001"
1, 27630, Lyric_t, "\001"
1, 27630, Note_on_c, 3, 63, 122
1, 27630, Note_on_c, 9, 36, 65
1, 27632, Note_on_c, 9, 42, 73
1, 27632, Note_on_c, 10, 15, 94
1, 27632, Note_on_c, 12, 89, 86
1, 27649, Pitch_bend_c, 3, 5520
1, 27657, Note_on_c, 9, 36, 0
1, 27659, Note_on_c, 9, 42, 0
1, 27659, Note_on_c, 10, 15, 0
1, 27669, Pitch_bend_c, 3, 8192
1, 27674, Pitch_bend_c, 12, 2220
1, 27694, Pitch_bend_c, 12, 3030
1, 27715, Pitch_bend_c, 12, 3780
1, 27716, Note_on_c, 3, 63, 0
1, 27732, Pitch_bend_c, 3, 5010
1, 27737, Pitch_bend_c, 12, 4770
1, 27747, Lyric_t, "\001"
1, 27747, Note_on_c, 3, 63, 127
1, 27752, Pitch_bend_c, 3, 2580
1, 27757, Pitch_bend_c, 12, 5820
1, 27772, Pitch_bend_c, 3, 8192
1, 27778, Pitch_bend_c, 12, 6570
1, 27798, Pitch_bend_c, 12, 6810
1, 27809, Note_on_c, 12, 89, 0
1, 27818, Pitch_bend_c, 12, 6000
1, 27825, Note_on_c, 3, 63, 0
1, 27839, Pitch_bend_c, 12, 2010
1, 27855, Lyric_t, "\001"
1, 27855, Note_on_c, 3, 60, 122
1, 27862, Pitch_bend_c, 3, 0
1, 27868, Pitch_bend_c, 12, 60
1, 27872, Note_on_c, 9, 36, 127
1, 27872, Note_on_c, 9, 44, 78
1, 27872, Note_on_c, 12, 89, 73
1, 27873, Control_c, 6, 10, 84
1, 27892, Pitch_bend_c, 3, 8192
1, 27899, Note_on_c, 9, 36, 0
1, 27899, Note_on_c, 9, 44, 0
1, 27912, Pitch_bend_c, 12, 960
1, 27932, Pitch_bend_c, 12, 3840
1, 27941, Note_on_c, 3, 60, 0
1, 27953, Pitch_bend_c, 12, 4560
1, 27972, Lyric_t, "\001"
1, 27972, Note_on_c, 3, 60, 127
1, 27973, Pitch_bend_c, 12, 5130
1, 27992, Note_on_c, 9, 42, 88
1, 27993, Pitch_bend_c, 12, 6660
1, 28014, Pitch_bend_c, 12, 7170
1, 28019, Note_on_c, 9, 42, 0
1, 28050, Lyric_t, "\001"
1, 28050, Note_on_c, 3, 63, 127
1, 28050, Note_on_c, 3, 60, 0
1, 28054, Note_on_c, 12, 89, 0
1, 28055, Pitch_bend_c, 12, 7230
1, 28075, Pitch_bend_c, 12, 4650
1, 28097, Pitch_bend_c, 12, 1290
1, 28112, Note_on_c, 5, 55, 72
1, 28112, Note_on_c, 9, 44, 74
1, 28112, Note_on_c, 12, 89, 62
1, 28118, Pitch_bend_c, 12, 210
1, 28124, Note_on_c, 5, 58, 72
1, 28138, Pitch_bend_c, 12, 180
1, 28139, Note_on_c, 9, 44, 0
1, 28158, Pitch_bend_c, 12, 2580
1, 28161, Note_on_c, 3, 63, 0
1, 28178, Pitch_bend_c, 12, 4230
1, 28199, Pitch_bend_c, 12, 4680
1, 28212, Lyric_t, "\001"
1, 28212, Note_on_c, 3, 65, 127
1, 28219, Pitch_bend_c, 12, 5820
1, 28232, Note_on_c, 1, 24, 127
1, 28232, Note_on_c, 5, 67, 72
1, 28233, Control_c, 6, 10, 44
1, 28237, Note_on_c, 5, 55, 0
1, 28240, Pitch_bend_c, 12, 6240
1, 28241, Note_on_c, 5, 58, 0
1, 28242, Note_on_c, 5, 70, 72
1, 28260, Pitch_bend_c, 12, 6300
1, 28282, Pitch_bend_c, 12, 6570
1, 28298, Note_on_c, 12, 89, 0
1, 28299, Note_on_c, 3, 65, 0
1, 28302, Pitch_bend_c, 12, 6000
1, 28323, Pitch_bend_c, 12, 4920
1, 28328, Pitch_bend_c, 3, 0
1, 28343, Pitch_bend_c, 12, 4980
1, 28345, Lyric_t, "\001"
1, 28345, Lyric_t, "\001"
1, 28345, Note_on_c, 3, 67, 127
1, 28349, Note_on_c, 1, 24, 0
1, 28352, Note_on_c, 1, 27, 127
1, 28352, Note_on_c, 9, 38, 127
1, 28352, Note_on_c, 9, 42, 100
1, 28355, Note_on_c, 6, 63, 0
1, 28358, Pitch_bend_c, 3, 3180
1, 28363, Pitch_bend_c, 12, 7020
1, 28375, Note_on_c, 6, 67, 0
1, 28378, Note_on_c, 6, 70, 0
1, 28379, Pitch_bend_c, 3, 8192
1, 28379, Note_on_c, 9, 38, 0
1, 28379, Note_on_c, 9, 42, 0
1, 28384, Pitch_bend_c, 12, 8192
1, 28470, Note_on_c, 6, 67, 85
1, 28470, Note_on_c, 6, 70, 71
1, 28498, Note_on_c, 3, 67, 0
1, 28500, Pitch_bend_c, 3, 4590
1, 28502, Note_on_c, 1, 27, 0
1, 28520, Pitch_bend_c, 3, 0
1, 28542, Pitch_bend_c, 3, 8192
1, 28562, Pitch_bend_c, 3, 8192
1, 28592, Note_on_c, 5, 67, 72
1, 28592, Note_on_c, 9, 42, 73
1, 28593, Control_c, 6, 10, 84
1, 28594, Note_on_c, 5, 70, 0
1, 28605, Note_on_c, 5, 63, 72
1, 28605, Note_on_c, 5, 67, 0
1, 28619, Note_on_c, 9, 42, 0
1, 28713, Note_on_c, 5, 63, 72
1, 28713, Note_on_c, 5, 63, 0
1, 28714, Note_on_c, 5, 67, 0
1, 28722, Note_on_c, 5, 58, 72
1, 28787, Note_on_c, 6, 67, 0
1, 28787, Note_on_c, 6, 70, 0
1, 28805, Pitch_bend_c, 3, 0
1, 28818, Pitch_bend_c, 3, 0
1, 28828, Lyric_t, "\001"
1, 28828, Note_on_c, 3, 60, 127
1, 28830, Note_on_c, 6, 63, 72
1, 28830, Note_on_c, 6, 67, 91
1, 28830, Note_on_c, 6, 70, 73
1, 28832, Note_on_c, 1, 29, 127
1, 28832, Note_on_c, 9, 36, 127
1, 28832, Note_on_c, 9, 44, 78
1, 28849, Pitch_bend_c, 3, 1320
1, 28857, Pitch_bend_c, 3, 8192
1, 28859, Note_on_c, 9, 36, 0
1, 28859, Note_on_c, 9, 44, 0
1, 28869, Pitch_bend_c, 3, 8192
1, 28952, Note_on_c, 9, 42, 88
1, 28953, Control_c, 6, 10, 44
1, 28979, Note_on_c, 9, 42, 0
1, 28983, Note_on_c, 3, 60, 0
1, 29022, Lyric_t, "\001"
1, 29022, Note_on_c, 3, 63, 127
1, 29072, Note_on_c, 9, 44, 74
1, 29099, Note_on_c, 9, 44, 0
1, 29144, Note_on_c, 3, 63, 0
1, 29192, Lyric_t, "\001"
1, 29192, Note_on_c, 3, 65, 127
1, 29257, Note_on_c, 3, 65, 0
1, 29285, Note_on_c, 1, 29, 0
1, 29303, Pitch_bend_c, 3, 0
1, 29312, Note_on_c, 1, 31, 127
1, 29312, Note_on_c, 9, 38, 127
1, 29312, Note_on_c, 9, 42, 100
1, 29313, Control_c, 6, 10, 84
1, 29314, Lyric_t, "\001"
1, 29314, Note_on_c, 3, 65, 127
1, 29333, Pitch_bend_c, 3, 4650
1, 29339, Note_on_c, 9, 38, 0
1, 29339, Note_on_c, 9, 42, 0
1, 29353, Pitch_bend_c, 3, 8192
1, 29403, Pitch_bend_c, 3, 8130
1, 29410, Note_on_c, 3, 65, 0
1, 29419, Note_on_c, 1, 31, 0
1, 29423, Pitch_bend_c, 3, 0
1, 29430, Lyric_t, "\001"
1, 29430, Note_on_c, 3, 63, 127
1, 29454, Pitch_bend_c, 3, 8192
1, 29512, Note_on_c, 3, 63, 0
1, 29544, Lyric_t, "\001"
1, 29544, Lyric_t, "\001"
1, 29544, Note_on_c, 3, 63, 125
1, 29552, Note_on_c, 9, 42, 73
1, 29579, Note_on_c, 9, 42, 0
1, 29639, Note_on_c, 3, 63, 0
1, 29673, Control_c, 6, 10, 44
1, 29673, Note_on_c, 5, 63, 0
1, 29752, Pitch_bend_c, 3, 7410
1, 29759, Note_on_c, 5, 58, 0
1, 29772, Pitch_bend_c, 3, 0
1, 29785, Lyric_t, "\001"
1, 29785, Note_on_c, 3, 60, 127
1, 29792, Note_on_c, 9, 36, 127
1, 29792, Note_on_c, 9, 44, 78
1, 29793, Pitch_bend_c, 3, 480
1, 29813, Pitch_bend_c, 3, 8192
1, 29819, Note_on_c, 9, 36, 0
1, 29819, Note_on_c, 9, 44, 0
1, 29873, Note_on_c, 3, 60, 0
1, 29893, Lyric_t, "\001"
1, 29893, Note_on_c, 3, 60, 116
1, 29912, Note_on_c, 9, 42, 88
1, 29939, Note_on_c, 9, 42, 0
1, 29959, Lyric_t, "\001"
1, 29959, Note_on_c, 3, 63, 127
1, 29969, Note_on_c, 3, 60, 0
1, 29986, Note_on_c, 6, 63, 0
1, 29993, Note_on_c, 6, 67, 0
1, 29993, Note_on_c, 6, 70, 0
1, 30032, Note_on_c, 1, 22, 127
1, 30032, Note_on_c, 9, 36, 127
1, 30032, Note_on_c, 9, 44, 74
1, 30033, Control_c, 6, 10, 84
1, 30059, Note_on_c, 9, 36, 0
1, 30059, Note_on_c, 9, 44, 0
1, 30099, Note_on_c, 3, 63, 0
1, 30137, Lyric_t, "\001"
1, 30137, Note_on_c, 3, 65, 127
1, 30218, Note_on_c, 3, 65, 0
1, 30249, Note_on_c, 1, 22, 0
1, 30258, Pitch_bend_c, 3, 0
1, 30260, Note_on_c, 5, 63, 73
1, 30263, Note_on_c, 5, 60, 81
1, 30268, Lyric_t, "\001"
1, 30268, Lyric_t, "\001"
1, 30268, Note_on_c, 3, 67, 127
1, 30270, Note_on_c, 11, 63, 96
1, 30270, Note_on_c, 11, 67, 117
1, 30270, Note_on_c, 11, 70, 103
1, 30272, Note_on_c, 1, 24, 127
1, 30272, Note_on_c, 9, 34, 115
1, 30272, Note_on_c, 9, 36, 127
1, 30272, Note_on_c, 9, 38, 127
1, 30272, Note_on_c, 9, 42, 100
1, 30279, Note_on_c, 6, 63, 70
1, 30283, Note_on_c, 6, 60, 64
1, 30288, Pitch_bend_c, 3, 2460
1, 30293, Pitch_bend_c, 9, 6210
1, 30299, Note_on_c, 9, 34, 0
1, 30299, Note_on_c, 9, 36, 0
1, 30299, Note_on_c, 9, 38, 0
1, 30299, Note_on_c, 9, 42, 0
1, 30308, Pitch_bend_c, 3, 8192
1, 30313, Pitch_bend_c, 9, 8192
1, 30359, Pitch_bend_c, 3, 4830
1, 30379, Pitch_bend_c, 3, 0
1, 30379, Note_on_c, 3, 67, 0
1, 30392, Note_on_c, 6, 62, 76
1, 30393, Control_c, 6, 10, 44
1, 30393, Note_on_c, 5, 63, 0
1, 30398, Note_on_c, 5, 65, 79
1, 30401, Note_on_c, 6, 63, 0
1, 30404, Note_on_c, 5, 62, 69
1, 30404, Note_on_c, 5, 60, 0
1, 30408, Note_on_c, 6, 65, 76
1, 30409, Note_on_c, 6, 60, 0
1, 30420, Pitch_bend_c, 3, 8192
1, 30421, Note_on_c, 11, 70, 0
1, 30422, Note_on_c, 11, 63, 0
1, 30430, Note_on_c, 11, 63, 101
1, 30430, Note_on_c, 11, 67, 102
1, 30430, Note_on_c, 11, 70, 102
1, 30433, Note_on_c, 11, 67, 0
1, 30440, Pitch_bend_c, 3, 8192
1, 30454, Note_on_c, 1, 24, 0
1, 30499, Note_on_c, 5, 65, 0
1, 30508, Note_on_c, 6, 65, 0
1, 30510, Note_on_c, 5, 67, 74
1, 30512, Note_on_c, 9, 42, 73
1, 30517, Note_on_c, 6, 67, 91
1, 30519, Note_on_c, 5, 62, 0
1, 30520, Note_on_c, 5, 63, 80
1, 30520, Note_on_c, 6, 63, 83
1, 30528, Note_on_c, 6, 62, 0
1, 30539, Note_on_c, 9, 42, 0
1, 30556, Note_on_c, 11, 70, 0
1, 30565, Note_on_c, 11, 63, 0
1, 30575, Note_on_c, 11, 67, 0
1, 30590, Note_on_c, 11, 63, 92
1, 30590, Note_on_c, 11, 67, 92
1, 30590, Note_on_c, 11, 70, 92
1, 30624, Lyric_t, "\001"
1, 30624, Note_on_c, 3, 63, 127
1, 30659, Note_on_c, 3, 63, 0
1, 30713, Note_on_c, 11, 70, 0
1, 30715, Pitch_bend_c, 9, 0
1, 30720, Note_on_c, 11, 67, 0
1, 30726, Note_on_c, 5, 67, 0
1, 30732, Pitch_bend_c, 3, 0
1, 30732, Note_on_c, 11, 63, 0
1, 30733, Note_on_c, 5, 65, 84
1, 30733, Note_on_c, 5, 63, 0
1, 30737, Note_on_c, 5, 62, 91
1, 30738, Note_on_c, 6, 63, 0
1, 30744, Note_on_c, 6, 67, 0
1, 30747, Lyric_t, "\001"
1, 30747, Note_on_c, 3, 65, 127
1, 30750, Note_on_c, 6, 60, 72
1, 30750, Note_on_c, 6, 65, 74
1, 30750, Note_on_c, 11, 63, 83
1, 30750, Note_on_c, 11, 67, 84
1, 30750, Note_on_c, 11, 70, 84
1, 30752, Note_on_c, 1, 31, 127
1, 30752, Note_on_c, 9, 36, 127
1, 30752, Note_on_c, 9, 44, 78
1, 30753, Control_c, 6, 10, 84
1, 30760, Pitch_bend_c, 3, 1680
1, 30779, Note_on_c, 9, 36, 0
1, 30779, Note_on_c, 9, 44, 0
1, 30783, Pitch_bend_c, 3, 8192
1, 30872, Note_on_c, 9, 42, 88
1, 30879, Lyric_t, "\001"
1, 30879, Note_on_c, 3, 65, 127
1, 30883, Note_on_c, 11, 70, 0
1, 30885, Note_on_c, 11, 63, 0
1, 30899, Note_on_c, 9, 42, 0
1, 30903, Note_on_c, 11, 67, 0
1, 30904, Note_on_c, 3, 65, 0
1, 30910, Note_on_c, 11, 63, 75
1, 30910, Note_on_c, 11, 67, 75
1, 30910, Note_on_c, 11, 70, 75
1, 30914, Note_on_c, 3, 65, 0
1, 30943, Lyric_t, "\001"
1, 30943, Note_on_c, 3, 62, 127
1, 30992, Note_on_c, 9, 44, 74
1, 31019, Note_on_c, 9, 44, 0
1, 31052, Note_on_c, 11, 63, 0
1, 31057, Note_on_c, 11, 70, 0
1, 31064, Note_on_c, 3, 62, 0
1, 31066, Note_on_c, 11, 67, 0
1, 31070, Note_on_c, 11, 63, 66
1, 31070, Note_on_c, 11, 67, 66
1, 31070, Note_on_c, 11, 70, 66
1, 31090, Note_on_c, 5, 58, 85
1, 31094, Note_on_c, 5, 65, 0
1, 31110, Note_on_c, 6, 50, 72
1, 31110, Note_on_c, 6, 58, 62
1, 31113, Lyric_t, "\001"
1, 31113, Note_on_c, 3, 62, 127
1, 31113, Control_c, 6, 10, 44
1, 31126, Note_on_c, 6, 60, 0
1, 31189, Note_on_c, 3, 62, 0
1, 31198, Pitch_bend_c, 3, 7770
1, 31215, Note_on_c, 11, 63, 0
1, 31217, Note_on_c, 11, 70, 0
1, 31218, Pitch_bend_c, 3, 0
1, 31223, Note_on_c, 11, 67, 0
1, 31230, Note_on_c, 11, 63, 57
1, 31230, Note_on_c, 11, 67, 58
1, 31230, Note_on_c, 11, 70, 58
1, 31232, Note_on_c, 1, 34, 127
1, 31232, Note_on_c, 9, 38, 127
1, 31232, Note_on_c, 9, 42, 100
1, 31235, Lyric_t, "\001"
1, 31235, Note_on_c, 3, 60, 127
1, 31239, Note_on_c, 1, 31, 0
1, 31249, Pitch_bend_c, 3, 8192
1, 31259, Note_on_c, 9, 38, 0
1, 31259, Note_on_c, 9, 42, 0
1, 31317, Note_on_c, 3, 60, 0
1, 31327, Note_on_c, 1, 34, 0
1, 31352, Lyric_t, "\001"
1, 31352, Lyric_t, "\001"
1, 31352, Note_on_c, 3, 58, 127
1, 31368, Note_on_c, 11, 63, 0
1, 31377, Note_on_c, 11, 70, 0
1, 31381, Note_on_c, 11, 67, 0
1, 31390, Note_on_c, 11, 63, 48
1, 31390, Note_on_c, 11, 67, 48
1, 31390, Note_on_c, 11, 70, 49
1, 31419, Note_on_c, 3, 58, 0
1, 31449, Note_on_c, 5, 62, 0
1, 31463, Lyric_t, "\001"
1, 31463, Note_on_c, 3, 58, 127
1, 31470, Note_on_c, 9, 36, 65
1, 31472, Note_on_c, 5, 53, 80
1, 31472, Note_on_c, 9, 42, 73
1, 31472, Note_on_c, 10, 15, 94
1, 31473, Control_c, 6, 10, 84
1, 31497, Note_on_c, 9, 36, 0
1, 31499, Note_on_c, 9, 42, 0
1, 31499, Note_on_c, 10, 15, 0
1, 31533, Note_on_c, 11, 67, 0
1, 31537, Note_on_c, 11, 63, 0
1, 31540, Note_on_c, 3, 58, 0
1, 31548, Note_on_c, 11, 70, 0
1, 31550, Note_on_c, 11, 63, 39
1, 31550, Note_on_c, 11, 67, 40
1, 31550, Note_on_c, 11, 70, 39
1, 31583, Lyric_t, "\001"
1, 31583, Note_on_c, 3, 60, 127
1, 31658, Note_on_c, 3, 60, 0
1, 31666, Note_on_c, 11, 70, 0
1, 31673, Note_on_c, 11, 63, 0
1, 31676, Note_on_c, 11, 67, 0
1, 31690, Pitch_bend_c, 3, 0
1, 31702, Lyric_t, "\001"
1, 31702, Note_on_c, 3, 62, 127
1, 31712, Pitch_bend_c, 3, 210
1, 31712, Note_on_c, 9, 36, 127
1, 31712, Note_on_c, 9, 44, 78
1, 31732, Pitch_bend_c, 3, 8192
1, 31739, Note_on_c, 9, 36, 0
1, 31739, Note_on_c, 9, 44, 0
1, 31762, Note_on_c, 3, 62, 0
1, 31813, Lyric_t, "\001"
1, 31813, Note_on_c, 3, 62, 127
1, 31832, Note_on_c, 9, 42, 88
1, 31833, Control_c, 6, 10, 44
1, 31844, Note_on_c, 3, 62, 0
1, 31859, Note_on_c, 9, 42, 0
1, 31895, Lyric_t, "\001"
1, 31895, Note_on_c, 3, 60, 127
1, 31952, Note_on_c, 9, 44, 74
1, 31977, Note_on_c, 3, 60, 0
1, 31979, Note_on_c, 9, 44, 0
1, 32045, Lyric_t, "\001"
1, 32045, Pitch_bend_c, 3, 7980
1, 32045, Note_on_c, 3, 60, 127
1, 32062, Note_on_c, 5, 53, 83
1, 32070, Pitch_bend_c, 3, 0
1, 32072, Note_on_c, 1, 22, 127
1, 32090, Note_on_c, 5, 53, 0
1, 32093, Note_on_c, 5, 58, 0
1, 32127, Note_on_c, 3, 60, 0
1, 32184, Pitch_bend_c, 5, 12302
1, 32185, Note_on_c, 1, 22, 0
1, 32192, Note_on_c, 1, 24, 127
1, 32192, Note_on_c, 9, 38, 127
1, 32192, Note_on_c, 9, 42, 100
1, 32193, Control_c, 6, 10, 84
1, 32199, Lyric_t, "\001"
1, 32199, Lyric_t, "\001"
1, 32199, Note_on_c, 3, 60, 127
1, 32203, Pitch_bend_c, 3, 1380
1, 32205, Pitch_bend_c, 5, 16383
1, 32207, Note_on_c, 6, 58, 0
1, 32208, Note_on_c, 6, 50, 0
1, 32219, Note_on_c, 9, 38, 0
1, 32219, Note_on_c, 9, 42, 0
1, 32223, Pitch_bend_c, 3, 8192
1, 32223, Note_on_c, 6, 65, 0
1, 32253, Pitch_bend_c, 3, 7260
1, 32259, Note_on_c, 3, 60, 0
1, 32273, Pitch_bend_c, 3, 0
1, 32310, Note_on_c, 6, 55, 64
1, 32310, Note_on_c, 6, 58, 57
1, 32310, Note_on_c, 6, 60, 68
1, 32345, Note_on_c, 1, 24, 0
1, 32389, Note_on_c, 5, 53, 0
1, 32400, Pitch_bend_c, 5, 15902
1, 32422, Pitch_bend_c, 5, 8192
1, 32427, Note_on_c, 5, 65, 92
1, 32432, Note_on_c, 9, 42, 73
1, 32459, Note_on_c, 9, 42, 0
1, 32512, Pitch_bend_c, 3, 3660
1, 32533, Pitch_bend_c, 3, 8192
1, 32552, Lyric_t, "\001"
1, 32552, Note_on_c, 3, 55, 127
1, 32553, Control_c, 6, 10, 44
1, 32565, Pitch_bend_c, 5, 0
1, 32579, Note_on_c, 3, 55, 0
1, 32650, Note_on_c, 6, 55, 0
1, 32652, Note_on_c, 6, 60, 0
1, 32653, Pitch_bend_c, 3, 0
1, 32655, Note_on_c, 6, 58, 0
1, 32670, Note_on_c, 6, 60, 77
1, 32670, Note_on_c, 6, 63, 83
1, 32670, Note_on_c, 6, 67, 86
1, 32672, Note_on_c, 1, 31, 127
1, 32672, Note_on_c, 9, 36, 127
1, 32672, Note_on_c, 9, 44, 78
1, 32674, Lyric_t, "\001"
1, 32674, Note_on_c, 3, 68, 127
1, 32699, Note_on_c, 9, 36, 0
1, 32699, Note_on_c, 9, 44, 0
1, 32704, Pitch_bend_c, 3, 8192
1, 32792, Note_on_c, 9, 42, 88
1, 32807, Lyric_t, "\001"
1, 32807, Note_on_c, 3, 68, 127
1, 32813, Control_c, 5, 1, 4
1, 32819, Note_on_c, 9, 42, 0
1, 32827, Note_on_c, 3, 68, 0
1, 32834, Note_on_c, 3, 68, 0
1, 32843, Control_c, 5, 1, 39
1, 32857, Lyric_t, "\001"
1, 32857, Note_on_c, 3, 67, 127
1, 32875, Control_c, 5, 1, 101
1, 32905, Control_c, 5, 1, 118
1, 32912, Note_on_c, 9, 44, 74
1, 32913, Control_c, 6, 10, 84
1, 32937, Control_c, 5, 1, 125
1, 32939, Note_on_c, 9, 44, 0
1, 32998, Note_on_c, 3, 67, 0
1, 33008, Note_on_c, 11, 67, 77
1, 33009, Control_c, 5, 1, 127
1, 33020, Lyric_t, "\001"
1, 33020, Note_on_c, 3, 65, 127
1, 33057, Note_on_c, 11, 70, 72
1, 33059, Note_on_c, 11, 67, 0
1, 33068, Note_on_c, 3, 65, 0
1, 33072, Control_c, 5, 1, 125
1, 33094, Note_on_c, 11, 70, 0
1, 33102, Control_c, 5, 1, 0
1, 33103, Note_on_c, 11, 67, 87
1, 33114, Note_on_c, 5, 65, 0
1, 33133, Pitch_bend_c, 5, 8192
1, 33140, Pitch_bend_c, 3, 0
1, 33143, Lyric_t, "\001"
1, 33143, Lyric_t, "\001"
1, 33143, Note_on_c, 3, 65, 127
1, 33143, Note_on_c, 11, 67, 0
1, 33144, Note_on_c, 1, 31, 0
1, 33150, Note_on_c, 11, 70, 88
1, 33152, Note_on_c, 1, 34, 127
1, 33152, Note_on_c, 9, 36, 127
1, 33152, Note_on_c, 9, 38, 127
1, 33152, Note_on_c, 9, 42, 100
1, 33153, Pitch_bend_c, 5, 8192
1, 33172, Pitch_bend_c, 3, 8192
1, 33179, Note_on_c, 9, 36, 0
1, 33179, Note_on_c, 9, 38, 0
1, 33179, Note_on_c, 9, 42, 0
1, 33183, Note_on_c, 11, 70, 0
1, 33194, Note_on_c, 11, 67, 95
1, 33212, Pitch_bend_c, 3, 6030
1, 33231, Note_on_c, 11, 67, 0
1, 33232, Pitch_bend_c, 3, 2880
1, 33239, Note_on_c, 11, 70, 94
1, 33253, Pitch_bend_c, 3, 0
1, 33270, Note_on_c, 11, 70, 0
1, 33273, Control_c, 6, 10, 44
1, 33279, Note_on_c, 3, 65, 0
1, 33285, Note_on_c, 11, 67, 107
1, 33312, Note_on_c, 1, 34, 0
1, 33322, Note_on_c, 11, 67, 0
1, 33328, Note_on_c, 11, 70, 116
1, 33359, Note_on_c, 11, 70, 0
1, 33363, Pitch_bend_c, 3, 8192
1, 33373, Note_on_c, 11, 67, 123
1, 33392, Note_on_c, 9, 42, 73
1, 33409, Note_on_c, 11, 67, 0
1, 33417, Note_on_c, 11, 70, 127
1, 33419, Note_on_c, 9, 42, 0
1, 33449, Note_on_c, 11, 70, 0
1, 33469, Note_on_c, 11, 67, 127
1, 33507, Lyric_t, "\001"
1, 33507, Note_on_c, 3, 55, 127
1, 33510, Note_on_c, 11, 70, 127
1, 33514, Note_on_c, 11, 67, 0
1, 33537, Note_on_c, 3, 55, 0
1, 33545, Note_on_c, 11, 70, 0
1, 33562, Note_on_c, 11, 67, 126
1, 33593, Pitch_bend_c, 3, 7770
1, 33599, Note_on_c, 11, 67, 0
1, 33604, Note_on_c, 11, 70, 123
1, 33613, Pitch_bend_c, 3, 0
1, 33627, Lyric_t, "\001"
1, 33627, Note_on_c, 3, 68, 127
1, 33632, Note_on_c, 1, 24, 127
1, 33632, Note_on_c, 9, 36, 127
1, 33632, Note_on_c, 9, 42, 72
1, 33633, Control_c, 6, 10, 84
1, 33637, Note_on_c, 11, 70, 0
1, 33649, Note_on_c, 11, 67, 120
1, 33653, Pitch_bend_c, 3, 8192
1, 33659, Note_on_c, 9, 36, 0
1, 33659, Note_on_c, 9, 42, 0
1, 33687, Note_on_c, 11, 67, 0
1, 33692, Note_on_c, 9, 44, 50
1, 33695, Note_on_c, 11, 70, 113
1, 33719, Note_on_c, 9, 44, 0
1, 33728, Note_on_c, 11, 70, 0
1, 33738, Note_on_c, 11, 67, 98
1, 33752, Note_on_c, 9, 38, 127
1, 33752, Note_on_c, 9, 42, 45
1, 33764, Note_on_c, 1, 24, 0
1, 33769, Note_on_c, 3, 68, 0
1, 33775, Note_on_c, 11, 67, 0
1, 33779, Note_on_c, 9, 38, 0
1, 33779, Note_on_c, 9, 42, 0
1, 33789, Note_on_c, 11, 70, 91
1, 33812, Lyric_t, "\001"
1, 33812, Note_on_c, 3, 67, 127
1, 33812, Note_on_c, 9, 44, 44
1, 33819, Note_on_c, 11, 70, 0
1, 33827, Note_on_c, 11, 67, 91
1, 33838, Pitch_bend_c, 12, 4410
1, 33839, Note_on_c, 9, 44, 0
1, 33858, Pitch_bend_c, 12, 0
1, 33868, Note_on_c, 11, 67, 0
1, 33869, Note_on_c, 12, 77, 98
1, 33872, Note_on_c, 9, 36, 121
1, 33872, Note_on_c, 9, 42, 65
1, 33873, Note_on_c, 12, 72, 90
1, 33879, Note_on_c, 11, 70, 84
1, 33899, Pitch_bend_c, 12, 3660
1, 33899, Note_on_c, 9, 36, 0
1, 33899, Note_on_c, 9, 42, 0
1, 33911, Note_on_c, 11, 70, 0
1, 33915, Note_on_c, 11, 67, 84
1, 33919, Note_on_c, 3, 67, 0
1, 33920, Pitch_bend_c, 12, 8192
1, 33932, Note_on_c, 9, 38, 93
1, 33932, Note_on_c, 9, 44, 45
1, 33958, Note_on_c, 11, 67, 0
1, 33959, Note_on_c, 9, 38, 0
1, 33959, Note_on_c, 9, 44, 0
1, 33967, Lyric_t, "\001"
1, 33967, Note_on_c, 3, 65, 127
1, 33967, Note_on_c, 11, 70, 74
1, 33992, Note_on_c, 1, 24, 127
1, 33992, Note_on_c, 9, 42, 45
1, 33993, Control_c, 6, 10, 44
1, 33998, Note_on_c, 11, 70, 0
1, 34003, Pitch_bend_c, 12, 4470
1, 34004, Note_on_c, 11, 67, 81
1, 34018, Note_on_c, 3, 65, 0
1, 34019, Note_on_c, 9, 42, 0
1, 34023, Pitch_bend_c, 12, 0
1, 34046, Note_on_c, 11, 67, 0
1, 34050, Note_on_c, 11, 70, 70
1, 34052, Note_on_c, 9, 44, 50
1, 34058, Lyric_t, "\001"
1, 34058, Lyric_t, "\001"
1, 34058, Note_on_c, 3, 65, 127
1, 34078, Pitch_bend_c, 3, 0
1, 34079, Note_on_c, 9, 44, 0
1, 34081, Note_on_c, 11, 70, 0
1, 34092, Note_on_c, 11, 67, 76
1, 34112, Note_on_c, 9, 38, 127
1, 34112, Note_on_c, 9, 42, 93
1, 34117, Lyric_t, "\001"
1, 34117, Note_on_c, 3, 58, 127
1, 34118, Pitch_bend_c, 3, 8192
1, 34130, Note_on_c, 3, 63, 104
1, 34130, Note_on_c, 11, 67, 0
1, 34134, Note_on_c, 3, 65, 0
1, 34137, Note_on_c, 11, 70, 63
1, 34139, Note_on_c, 9, 38, 0
1, 34139, Note_on_c, 9, 42, 0
1, 34143, Note_on_c, 6, 63, 0
1, 34156, Note_on_c, 6, 60, 0
1, 34165, Note_on_c, 11, 70, 0
1, 34172, Note_on_c, 6, 67, 0
1, 34173, Note_on_c, 11, 67, 71
1, 34178, Control_c, 12, 1, 121
1, 34195, Note_on_c, 3, 63, 0
1, 34214, Note_on_c, 3, 58, 0
1, 34214, Note_on_c, 11, 67, 0
1, 34219, Control_c, 12, 1, 127
1, 34230, Note_on_c, 6, 56, 87
1, 34230, Note_on_c, 6, 60, 75
1, 34230, Note_on_c, 6, 64, 83
1, 34252, Lyric_t, "\001"
1, 34252, Note_on_c, 3, 58, 127
1, 34329, Note_on_c, 1, 24, 0
1, 34342, Lyric_t, "\001"
1, 34342, Note_on_c, 3, 60, 127
1, 34349, Note_on_c, 3, 58, 0
1, 34352, Note_on_c, 1, 27, 127
1, 34353, Control_c, 6, 10, 84
1, 34463, Note_on_c, 3, 60, 0
1, 34473, Note_on_c, 12, 72, 0
1, 34481, Note_on_c, 12, 77, 0
1, 34482, Lyric_t, "\001"
1, 34482, Note_on_c, 3, 58, 125
1, 34483, Note_on_c, 1, 27, 0
1, 34488, Control_c, 12, 1, 0
1, 34498, Pitch_bend_c, 12, 8192
1, 34509, Pitch_bend_c, 12, 4650
1, 34530, Pitch_bend_c, 12, 0
1, 34538, Note_on_c, 6, 60, 0
1, 34546, Note_on_c, 6, 64, 0
1, 34547, Note_on_c, 3, 58, 0
1, 34550, Note_on_c, 6, 56, 0
1, 34578, Pitch_bend_c, 3, 0
1, 34587, Note_on_c, 2, 58, 72
1, 34587, Note_on_c, 2, 70, 72
1, 34590, Note_on_c, 6, 63, 75
1, 34590, Note_on_c, 6, 67, 93
1, 34590, Note_on_c, 6, 70, 77
1, 34592, Note_on_c, 1, 29, 127
1, 34592, Note_on_c, 5, 67, 82
1, 34592, Note_on_c, 5, 70, 82
1, 34592, Note_on_c, 9, 36, 127
1, 34592, Note_on_c, 9, 44, 78
1, 34592, Note_on_c, 12, 89, 109
1, 34592, Note_on_c, 15, 63, 1
1, 34592, Note_on_c, 15, 67, 1
1, 34592, Note_on_c, 15, 70, 1
1, 34593, Control_c, 5, 91, 68
1, 34593, Control_c, 6, 10, 84
1, 34594, Lyric_t, "\001"
1, 34594, Note_on_c, 3, 63, 127
1, 34619, Pitch_bend_c, 3, 3480
1, 34619, Note_on_c, 9, 36, 0
1, 34619, Note_on_c, 9, 44, 0
1, 34623, Pitch_bend_c, 12, 1500
1, 34639, Pitch_bend_c, 3, 8192
1, 34643, Pitch_bend_c, 12, 4020
1, 34663, Pitch_bend_c, 12, 5820
1, 34684, Pitch_bend_c, 12, 8192
1, 34709, Note_on_c, 5, 70, 0
1, 34712, Note_on_c, 9, 42, 88
1, 34724, Note_on_c, 5, 67, 0
1, 34739, Note_on_c, 9, 42, 0
1, 34759, Note_on_c, 3, 63, 0
1, 34768, Pitch_bend_c, 12, 6690
1, 34772, Note_on_c, 12, 89, 0
1, 34788, Pitch_bend_c, 12, 2580
1, 34808, Pitch_bend_c, 12, 0
1, 34832, Note_on_c, 5, 67, 73
1, 34832, Note_on_c, 5, 70, 71
1, 34832, Note_on_c, 9, 44, 74
1, 34832, Note_on_c, 12, 89, 107
1, 34852, Lyric_t, "\001"
1, 34852, Note_on_c, 3, 63, 115
1, 34859, Note_on_c, 9, 44, 0
1, 34870, Pitch_bend_c, 12, 810
1, 34890, Pitch_bend_c, 12, 4530
1, 34912, Pitch_bend_c, 12, 4830
1, 34932, Pitch_bend_c, 12, 6480
1, 34933, Note_on_c, 5, 70, 0
1, 34953, Control_c, 6, 10, 44
1, 34953, Pitch_bend_c, 12, 8192
1, 34954, Note_on_c, 5, 67, 0
1, 34982, Note_on_c, 3, 63, 0
1, 35003, Note_on_c, 12, 89, 0
1, 35024, Pitch_bend_c, 12, 3630
1, 35037, Note_on_c, 1, 29, 0
1, 35045, Pitch_bend_c, 12, 0
1, 35072, Note_on_c, 1, 31, 127
1, 35072, Note_on_c, 5, 67, 78
1, 35072, Note_on_c, 5, 70, 78
1, 35072, Note_on_c, 9, 38, 127
1, 35072, Note_on_c, 9, 42, 100
1, 35072, Note_on_c, 12, 89, 79
1, 35077, Lyric_t, "\001"
1, 35077, Note_on_c, 3, 63, 118
1, 35099, Note_on_c, 9, 38, 0
1, 35099, Note_on_c, 9, 42, 0
1, 35118, Pitch_bend_c, 12, 2910
1, 35138, Pitch_bend_c, 12, 4860
1, 35158, Pitch_bend_c, 12, 4920
1, 35179, Pitch_bend_c, 12, 6300
1, 35179, Note_on_c, 5, 70, 0
1, 35197, Note_on_c, 5, 67, 0
1, 35199, Pitch_bend_c, 12, 6960
1, 35213, Note_on_c, 1, 31, 0
1, 35220, Pitch_bend_c, 12, 7020
1, 35220, Note_on_c, 3, 63, 0
1, 35242, Pitch_bend_c, 12, 7320
1, 35248, Note_on_c, 12, 89, 0
1, 35262, Pitch_bend_c, 12, 3840
1, 35282, Pitch_bend_c, 12, 0
1, 35308, Lyric_t, "\001"
1, 35308, Note_on_c, 3, 63, 122
1, 35310, Note_on_c, 9, 36, 65
1, 35312, Note_on_c, 5, 67, 69
1, 35312, Note_on_c, 5, 70, 65
1, 35312, Note_on_c, 9, 42, 73
1, 35312, Note_on_c, 10, 15, 94
1, 35312, Note_on_c, 12, 89, 83
1, 35313, Control_c, 6, 10, 84
1, 35337, Note_on_c, 9, 36, 0
1, 35339, Note_on_c, 9, 42, 0
1, 35339, Note_on_c, 10, 15, 0
1, 35354, Pitch_bend_c, 12, 2220
1, 35374, Pitch_bend_c, 12, 3030
1, 35395, Pitch_bend_c, 12, 3780
1, 35412, Note_on_c, 5, 70, 0
1, 35417, Pitch_bend_c, 12, 4770
1, 35434, Note_on_c, 5, 67, 0
1, 35437, Pitch_bend_c, 12, 5820
1, 35458, Pitch_bend_c, 12, 6570
1, 35458, Note_on_c, 3, 63, 0
1, 35478, Pitch_bend_c, 12, 6810
1, 35489, Note_on_c, 12, 89, 0
1, 35498, Pitch_bend_c, 12, 6000
1, 35519, Pitch_bend_c, 12, 2010
1, 35544, Note_on_c, 2, 70, 0
1, 35547, Note_on_c, 2, 56, 72
1, 35547, Note_on_c, 2, 68, 72
1, 35548, Pitch_bend_c, 12, 60
1, 35549, Lyric_t, "\001"
1, 35549, Lyric_t, "\001"
1, 35549, Note_on_c, 3, 63, 127
1, 35549, Note_on_c, 2, 58, 0
1, 35552, Note_on_c, 5, 67, 56
1, 35552, Note_on_c, 5, 70, 54
1, 35552, Note_on_c, 9, 36, 127
1, 35552, Note_on_c, 9, 44, 78
1, 35552, Note_on_c, 12, 89, 70
1, 35579, Note_on_c, 9, 36, 0
1, 35579, Note_on_c, 9, 44, 0
1, 35592, Pitch_bend_c, 12, 960
1, 35612, Pitch_bend_c, 12, 3840
1, 35614, Note_on_c, 3, 63, 0
1, 35633, Pitch_bend_c, 12, 4560
1, 35653, Pitch_bend_c, 12, 5130
1, 35654, Note_on_c, 5, 70, 0
1, 35672, Note_on_c, 9, 42, 88
1, 35673, Control_c, 6, 10, 44
1, 35673, Pitch_bend_c, 12, 6660
1, 35683, Note_on_c, 5, 67, 0
1, 35694, Pitch_bend_c, 12, 7170
1, 35699, Note_on_c, 9, 42, 0
1, 35734, Note_on_c, 12, 89, 0
1, 35735, Pitch_bend_c, 12, 7230
1, 35742, Pitch_bend_c, 4, 6000
1, 35755, Pitch_bend_c, 12, 4650
1, 35763, Pitch_bend_c, 4, 0
1, 35777, Pitch_bend_c, 12, 1290
1, 35792, Note_on_c, 4, 67, 103
1, 35792, Note_on_c, 5, 55, 72
1, 35792, Note_on_c, 9, 44, 74
1, 35792, Note_on_c, 12, 89, 59
1, 35793, Pitch_bend_c, 4, 870
1, 35798, Pitch_bend_c, 12, 210
1, 35804, Note_on_c, 5, 58, 72
1, 35813, Pitch_bend_c, 4, 8192
1, 35818, Pitch_bend_c, 12, 180
1, 35819, Note_on_c, 9, 44, 0
1, 35838, Pitch_bend_c, 12, 2580
1, 35849, Note_on_c, 4, 67, 0
1, 35858, Pitch_bend_c, 12, 4230
1, 35879, Pitch_bend_c, 12, 4680
1, 35899, Pitch_bend_c, 12, 5820
1, 35900, Pitch_bend_c, 3, 0
1, 35910, Note_on_c, 6, 63, 78
1, 35910, Note_on_c, 6, 67, 79
1, 35912, Note_on_c, 1, 24, 127
1, 35912, Note_on_c, 4, 65, 112
1, 35912, Note_on_c, 5, 67, 72
1, 35917, Note_on_c, 5, 55, 0
1, 35918, Lyric_t, "\001"
1, 35918, Note_on_c, 3, 58, 127
1, 35920, Pitch_bend_c, 12, 6240
1, 35921, Note_on_c, 5, 58, 0
1, 35922, Note_on_c, 5, 70, 72
1, 35940, Pitch_bend_c, 12, 6300
1, 35942, Pitch_bend_c, 3, 8192
1, 35962, Pitch_bend_c, 12, 6570
1, 35977, Note_on_c, 2, 56, 0
1, 35978, Note_on_c, 12, 89, 0
1, 35982, Pitch_bend_c, 12, 6000
1, 36003, Pitch_bend_c, 12, 4920
1, 36004, Note_on_c, 2, 68, 0
1, 36010, Note_on_c, 1, 24, 0
1, 36023, Pitch_bend_c, 12, 4980
1, 36027, Note_on_c, 2, 55, 72
1, 36027, Note_on_c, 2, 67, 72
1, 36032, Note_on_c, 1, 27, 127
1, 36032, Note_on_c, 9, 38, 127
1, 36032, Note_on_c, 9, 42, 100
1, 36033, Control_c, 6, 10, 84
1, 36043, Pitch_bend_c, 12, 7020
1, 36059, Note_on_c, 9, 38, 0
1, 36059, Note_on_c, 9, 42, 0
1, 36064, Pitch_bend_c, 12, 8192
1, 36086, Note_on_c, 3, 58, 0
1, 36157, Lyric_t, "\001"
1, 36157, Note_on_c, 3, 58, 118
1, 36164, Note_on_c, 1, 27, 0
1, 36172, Note_on_c, 3, 58, 0
1, 36174, Note_on_c, 4, 65, 0
1, 36257, Pitch_bend_c, 3, 7680
1, 36272, Note_on_c, 5, 67, 72
1, 36272, Note_on_c, 9, 42, 73
1, 36274, Lyric_t, "\001"
1, 36274, Note_on_c, 3, 60, 127
1, 36274, Note_on_c, 5, 70, 0
1, 36278, Pitch_bend_c, 3, 0
1, 36285, Note_on_c, 5, 63, 72
1, 36285, Note_on_c, 5, 67, 0
1, 36299, Note_on_c, 9, 42, 0
1, 36308, Pitch_bend_c, 3, 8192
1, 36383, Note_on_c, 6, 63, 0
1, 36393, Control_c, 5, 91, 0
1, 36393, Note_on_c, 5, 63, 72
1, 36393, Control_c, 6, 10, 44
1, 36393, Note_on_c, 6, 67, 0
1, 36393, Note_on_c, 5, 63, 0
1, 36394, Note_on_c, 5, 67, 0
1, 36402, Note_on_c, 5, 58, 72
1, 36404, Note_on_c, 3, 60, 0
1, 36408, Note_on_c, 6, 70, 0
1, 36412, Lyric_t, "\001"
1, 36412, Note_on_c, 3, 58, 117
1, 36450, Note_on_c, 3, 58, 0
1, 36457, Note_on_c, 6, 67, 0
1, 36473, Note_on_c, 6, 63, 0
1, 36507, Note_on_c, 2, 58, 72
1, 36507, Note_on_c, 2, 70, 72
1, 36510, Note_on_c, 6, 60, 74
1, 36510, Note_on_c, 6, 63, 77
1, 36510, Note_on_c, 6, 67, 87
1, 36512, Note_on_c, 1, 29, 127
1, 36512, Note_on_c, 9, 36, 127
1, 36512, Note_on_c, 9, 44, 78
1, 36517, Lyric_t, "\001"
1, 36517, Note_on_c, 3, 63, 127
1, 36520, Note_on_c, 2, 67, 0
1, 36528, Note_on_c, 2, 55, 0
1, 36539, Note_on_c, 9, 36, 0
1, 36539, Note_on_c, 9, 44, 0
1, 36632, Note_on_c, 9, 42, 88
1, 36659, Note_on_c, 3, 63, 0
1, 36659, Note_on_c, 9, 42, 0
1, 36748, Lyric_t, "\001"
1, 36748, Note_on_c, 3, 63, 127
1, 36752, Note_on_c, 9, 44, 74
1, 36753, Control_c, 6, 10, 84
1, 36779, Note_on_c, 9, 44, 0
1, 36880, Note_on_c, 3, 63, 0
1, 36934, Note_on_c, 1, 29, 0
1, 36992, Lyric_t, "\001"
1, 36992, Note_on_c, 1, 31, 127
1, 36992, Note_on_c, 3, 63, 127
1, 36992, Note_on_c, 9, 38, 127
1, 36992, Note_on_c, 9, 42, 100
1, 37019, Note_on_c, 9, 38, 0
1, 37019, Note_on_c, 9, 42, 0
1, 37113, Control_c, 6, 10, 44
1, 37115, Note_on_c, 3, 63, 0
1, 37134, Note_on_c, 1, 31, 0
1, 37227, Lyric_t, "\001"
1, 37227, Note_on_c, 3, 63, 127
1, 37232, Note_on_c, 9, 42, 73
1, 37259, Note_on_c, 9, 42, 0
1, 37338, Note_on_c, 3, 63, 0
1, 37353, Note_on_c, 5, 63, 0
1, 37433, Pitch_bend_c, 4, 6210
1, 37439, Note_on_c, 5, 58, 0
1, 37453, Pitch_bend_c, 3, 4500
1, 37453, Pitch_bend_c, 4, 0
1, 37455, Note_on_c, 2, 70, 0
1, 37457, Lyric_t, "\001"
1, 37457, Lyric_t, "\001"
1, 37457, Note_on_c, 3, 63, 127
1, 37463, Note_on_c, 4, 70, 116
1, 37467, Note_on_c, 2, 56, 72
1, 37467, Note_on_c, 2, 68, 72
1, 37467, Note_on_c, 2, 58, 0
1, 37472, Note_on_c, 9, 36, 127
1, 37472, Note_on_c, 9, 44, 78
1, 37473, Pitch_bend_c, 3, 8192
1, 37473, Control_c, 6, 10, 84
1, 37483, Pitch_bend_c, 4, 4140
1, 37499, Note_on_c, 9, 36, 0
1, 37499, Note_on_c, 9, 44, 0
1, 37503, Pitch_bend_c, 4, 8192
1, 37544, Pitch_bend_c, 4, 7560
1, 37554, Note_on_c, 3, 63, 0
1, 37565, Pitch_bend_c, 3, 0
1, 37565, Pitch_bend_c, 4, 3150
1, 37585, Pitch_bend_c, 4, 1380
1, 37592, Note_on_c, 9, 42, 88
1, 37605, Pitch_bend_c, 4, 5490
1, 37617, Pitch_bend_c, 3, 8192
1, 37619, Note_on_c, 9, 42, 0
1, 37627, Pitch_bend_c, 4, 8192
1, 37704, Note_on_c, 4, 68, 91
1, 37712, Note_on_c, 1, 22, 127
1, 37712, Note_on_c, 9, 36, 127
1, 37712, Note_on_c, 9, 44, 74
1, 37713, Note_on_c, 4, 70, 0
1, 37731, Note_on_c, 6, 60, 0
1, 37739, Note_on_c, 9, 36, 0
1, 37739, Note_on_c, 9, 44, 0
1, 37743, Note_on_c, 6, 67, 0
1, 37748, Note_on_c, 6, 63, 0
1, 37756, Note_on_c, 4, 68, 0
1, 37793, Pitch_bend_c, 3, 4740
1, 37813, Pitch_bend_c, 3, 0
1, 37829, Pitch_bend_c, 4, 2700
1, 37833, Lyric_t, "\001"
1, 37833, Pitch_bend_c, 3, 1860
1, 37833, Note_on_c, 3, 63, 127
1, 37833, Control_c, 6, 10, 44
1, 37842, Note_on_c, 4, 67, 106
1, 37849, Pitch_bend_c, 4, 1980
1, 37853, Pitch_bend_c, 3, 8192
1, 37869, Pitch_bend_c, 4, 8192
1, 37918, Note_on_c, 1, 22, 0
1, 37938, Note_on_c, 15, 63, 0
1, 37938, Note_on_c, 15, 67, 0
1, 37938, Note_on_c, 15, 70, 0
1, 37940, Note_on_c, 5, 63, 73
1, 37943, Note_on_c, 5, 60, 81
1, 37947, Note_on_c, 2, 55, 72
1, 37947, Note_on_c, 2, 67, 72
1, 37948, Note_on_c, 2, 68, 0
1, 37950, Note_on_c, 6, 60, 81
1, 37950, Note_on_c, 6, 63, 75
1, 37952, Note_on_c, 1, 24, 127
1, 37952, Note_on_c, 9, 34, 115
1, 37952, Note_on_c, 9, 36, 127
1, 37952, Note_on_c, 9, 38, 127
1, 37952, Note_on_c, 9, 42, 100
1, 37952, Note_on_c, 15, 60, 1
1, 37952, Note_on_c, 15, 63, 1
1, 37959, Note_on_c, 2, 56, 0
1, 37973, Note_on_c, 4, 65, 95
1, 37973, Pitch_bend_c, 9, 6210
1, 37977, Note_on_c, 4, 67, 0
1, 37979, Note_on_c, 9, 34, 0
1, 37979, Note_on_c, 9, 36, 0
1, 37979, Note_on_c, 9, 38, 0
1, 37979, Note_on_c, 9, 42, 0
1, 37986, Note_on_c, 3, 63, 0
1, 37993, Pitch_bend_c, 9, 8192
1, 38005, Note_on_c, 4, 65, 0
1, 38017, Note_on_c, 4, 63, 89
1, 38040, Note_on_c, 4, 63, 0
1, 38070, Note_on_c, 6, 62, 81
1, 38070, Note_on_c, 6, 65, 70
1, 38071, Note_on_c, 6, 63, 0
1, 38072, Note_on_c, 15, 62, 1
1, 38072, Note_on_c, 15, 65, 1
1, 38073, Note_on_c, 5, 63, 0
1, 38077, Lyric_t, "\001"
1, 38077, Note_on_c, 3, 63, 126
1, 38078, Note_on_c, 5, 65, 79
1, 38084, Note_on_c, 5, 62, 69
1, 38084, Note_on_c, 5, 60, 0
1, 38085, Note_on_c, 15, 63, 0
1, 38093, Note_on_c, 15, 60, 0
1, 38100, Note_on_c, 6, 60, 0
1, 38102, Note_on_c, 1, 24, 0
1, 38108, Note_on_c, 3, 63, 0
1, 38179, Note_on_c, 5, 65, 0
1, 38180, Note_on_c, 6, 65, 0
1, 38189, Note_on_c, 15, 62, 0
1, 38189, Note_on_c, 15, 65, 0
1, 38190, Note_on_c, 5, 67, 74
1, 38190, Note_on_c, 6, 63, 79
1, 38190, Note_on_c, 6, 67, 83
1, 38192, Note_on_c, 9, 42, 73
1, 38192, Note_on_c, 15, 63, 1
1, 38192, Note_on_c, 15, 67, 1
1, 38193, Control_c, 6, 10, 84
1, 38199, Lyric_t, "\001"
1, 38199, Note_on_c, 3, 63, 127
1, 38199, Note_on_c, 5, 62, 0
1, 38200, Note_on_c, 5, 63, 80
1, 38212, Note_on_c, 6, 62, 0
1, 38219, Note_on_c, 9, 42, 0
1, 38332, Lyric_t, "\001"
1, 38332, Note_on_c, 3, 63, 126
1, 38354, Note_on_c, 3, 63, 0
1, 38363, Note_on_c, 3, 63, 0
1, 38378, Note_on_c, 2, 55, 0
1, 38388, Note_on_c, 6, 63, 0
1, 38395, Pitch_bend_c, 9, 0
1, 38402, Pitch_bend_c, 3, 4830
1, 38403, Note_on_c, 6, 67, 0
1, 38406, Note_on_c, 5, 67, 0
1, 38413, Note_on_c, 5, 65, 84
1, 38413, Note_on_c, 5, 63, 0
1, 38417, Note_on_c, 5, 62, 91
1, 38422, Pitch_bend_c, 3, 0
1, 38424, Note_on_c, 2, 67, 0
1, 38427, Lyric_t, "\001"
1, 38427, Note_on_c, 2, 53, 72
1, 38427, Note_on_c, 2, 65, 72
1, 38427, Note_on_c, 3, 62, 127
1, 38429, Note_on_c, 15, 63, 0
1, 38429, Note_on_c, 15, 67, 0
1, 38430, Note_on_c, 6, 60, 74
1, 38430, Note_on_c, 6, 65, 86
1, 38432, Note_on_c, 1, 31, 127
1, 38432, Note_on_c, 9, 36, 127
1, 38432, Note_on_c, 9, 44, 78
1, 38432, Note_on_c, 15, 62, 1
1, 38432, Note_on_c, 15, 65, 1
1, 38442, Pitch_bend_c, 3, 4260
1, 38459, Note_on_c, 9, 36, 0
1, 38459, Note_on_c, 9, 44, 0
1, 38463, Pitch_bend_c, 3, 8192
1, 38552, Note_on_c, 9, 42, 88
1, 38553, Control_c, 6, 10, 44
1, 38579, Note_on_c, 3, 62, 0
1, 38579, Note_on_c, 9, 42, 0
1, 38672, Note_on_c, 9, 44, 74
1, 38679, Lyric_t, "\001"
1, 38679, Note_on_c, 3, 62, 127
1, 38699, Note_on_c, 9, 44, 0
1, 38770, Note_on_c, 5, 58, 85
1, 38774, Note_on_c, 5, 65, 0
1, 38790, Note_on_c, 6, 50, 75
1, 38790, Note_on_c, 6, 58, 63
1, 38804, Note_on_c, 3, 62, 0
1, 38898, Note_on_c, 1, 31, 0
1, 38903, Lyric_t, "\001"
1, 38903, Note_on_c, 3, 62, 127
1, 38912, Note_on_c, 1, 34, 127
1, 38912, Note_on_c, 9, 38, 127
1, 38912, Note_on_c, 9, 42, 100
1, 38913, Control_c, 6, 10, 84
1, 38939, Note_on_c, 9, 38, 0
1, 38939, Note_on_c, 9, 42, 0
1, 39024, Note_on_c, 1, 34, 0
1, 39025, Note_on_c, 3, 62, 0
1, 39129, Note_on_c, 5, 62, 0
1, 39147, Lyric_t, "\001"
1, 39147, Note_on_c, 3, 62, 127
1, 39150, Note_on_c, 9, 36, 65
1, 39152, Note_on_c, 5, 53, 80
1, 39152, Note_on_c, 9, 42, 73
1, 39152, Note_on_c, 10, 15, 94
1, 39177, Note_on_c, 9, 36, 0
1, 39179, Note_on_c, 9, 42, 0
1, 39179, Note_on_c, 10, 15, 0
1, 39253, Note_on_c, 3, 62, 0
1, 39273, Control_c, 6, 10, 44
1, 39387, Lyric_t, "\001"
1, 39387, Lyric_t, "\001"
1, 39387, Note_on_c, 3, 62, 127
1, 39392, Note_on_c, 9, 36, 127
1, 39392, Note_on_c, 9, 44, 78
1, 39419, Note_on_c, 9, 36, 0
1, 39419, Note_on_c, 9, 44, 0
1, 39454, Note_on_c, 3, 62, 0
1, 39487, Pitch_bend_c, 4, 0
1, 39503, Note_on_c, 4, 65, 99
1, 39512, Note_on_c, 9, 42, 88
1, 39527, Pitch_bend_c, 4, 8192
1, 39539, Note_on_c, 9, 42, 0
1, 39625, Note_on_c, 4, 65, 0
1, 39628, Note_on_c, 4, 63, 96
1, 39632, Note_on_c, 9, 44, 74
1, 39633, Control_c, 6, 10, 84
1, 39659, Note_on_c, 9, 44, 0
1, 39701, Note_on_c, 4, 63, 0
1, 39742, Note_on_c, 5, 53, 83
1, 39745, Note_on_c, 4, 62, 97
1, 39749, Note_on_c, 15, 62, 0
1, 39749, Note_on_c, 15, 65, 0
1, 39752, Note_on_c, 1, 22, 127
1, 39752, Note_on_c, 15, 70, 1
1, 39754, Pitch_bend_c, 3, 0
1, 39756, Note_on_c, 6, 60, 0
1, 39757, Lyric_t, "\001"
1, 39757, Note_on_c, 3, 58, 127
1, 39758, Note_on_c, 6, 65, 0
1, 39770, Note_on_c, 5, 53, 0
1, 39773, Note_on_c, 5, 58, 0
1, 39785, Pitch_bend_c, 3, 8192
1, 39864, Pitch_bend_c, 5, 12302
1, 39869, Note_on_c, 1, 22, 0
1, 39872, Note_on_c, 1, 24, 127
1, 39872, Note_on_c, 9, 38, 127
1, 39872, Note_on_c, 9, 42, 100
1, 39885, Pitch_bend_c, 5, 16383
1, 39899, Note_on_c, 9, 38, 0
1, 39899, Note_on_c, 9, 42, 0
1, 39909, Note_on_c, 3, 58, 0
1, 39981, Note_on_c, 4, 62, 0
1, 39990, Note_on_c, 6, 53, 70
1, 39990, Note_on_c, 6, 56, 49
1, 39990, Note_on_c, 6, 58, 60
1, 39990, Note_on_c, 6, 62, 62
1, 39993, Note_on_c, 4, 58, 96
1, 39993, Control_c, 6, 10, 44
1, 39998, Lyric_t, "\001"
1, 39998, Note_on_c, 3, 58, 111
1, 40032, Note_on_c, 1, 24, 0
1, 40036, Note_on_c, 3, 58, 0
1, 40066, Note_on_c, 4, 58, 0
1, 40069, Note_on_c, 5, 53, 0
1, 40080, Pitch_bend_c, 5, 15902
1, 40102, Pitch_bend_c, 5, 8192
1, 40107, Note_on_c, 5, 65, 92
1, 40109, Note_on_c, 15, 70, 0
1, 40112, Note_on_c, 9, 42, 73
1, 40112, Note_on_c, 15, 63, 1
1, 40112, Note_on_c, 15, 68, 1
1, 40113, Lyric_t, "\001"
1, 40113, Note_on_c, 3, 60, 127
1, 40139, Note_on_c, 9, 42, 0
1, 40141, Note_on_c, 6, 58, 0
1, 40150, Note_on_c, 6, 50, 0
1, 40224, Note_on_c, 3, 60, 0
1, 40229, Note_on_c, 15, 68, 0
1, 40232, Note_on_c, 15, 67, 1
1, 40237, Lyric_t, "\001"
1, 40237, Note_on_c, 3, 58, 96
1, 40245, Pitch_bend_c, 5, 0
1, 40284, Note_on_c, 3, 58, 0
1, 40298, Note_on_c, 6, 62, 0
1, 40308, Note_on_c, 6, 58, 0
1, 40313, Note_on_c, 6, 53, 0
1, 40314, Note_on_c, 2, 53, 0
1, 40314, Note_on_c, 2, 65, 0
1, 40315, Note_on_c, 6, 56, 0
1, 40343, Pitch_bend_c, 3, 0
1, 40347, Note_on_c, 2, 51, 72
1, 40347, Note_on_c, 2, 63, 72
1, 40349, Note_on_c, 15, 63, 0
1, 40350, Note_on_c, 6, 60, 78
1, 40350, Note_on_c, 6, 63, 81
1, 40350, Note_on_c, 6, 67, 84
1, 40352, Note_on_c, 1, 29, 127
1, 40352, Note_on_c, 9, 36, 127
1, 40352, Note_on_c, 9, 44, 78
1, 40352, Note_on_c, 15, 63, 1
1, 40353, Lyric_t, "\001"
1, 40353, Note_on_c, 3, 63, 127
1, 40353, Control_c, 6, 10, 84
1, 40373, Pitch_bend_c, 3, 8192
1, 40379, Note_on_c, 9, 36, 0
1, 40379, Note_on_c, 9, 44, 0
1, 40472, Note_on_c, 9, 42, 88
1, 40493, Control_c, 5, 1, 4
1, 40499, Note_on_c, 9, 42, 0
1, 40501, Note_on_c, 3, 63, 0
1, 40523, Control_c, 5, 1, 39
1, 40555, Control_c, 5, 1, 101
1, 40585, Control_c, 5, 1, 118
1, 40592, Note_on_c, 9, 44, 74
1, 40602, Lyric_t, "\001"
1, 40602, Note_on_c, 3, 63, 127
1, 40617, Control_c, 5, 1, 125
1, 40619, Note_on_c, 9, 44, 0
1, 40689, Control_c, 5, 1, 127
1, 40713, Control_c, 6, 10, 44
1, 40713, Note_on_c, 3, 63, 0
1, 40752, Control_c, 5, 1, 125
1, 40782, Control_c, 5, 1, 0
1, 40794, Note_on_c, 5, 65, 0
1, 40809, Pitch_bend_c, 3, 1500
1, 40812, Note_on_c, 1, 29, 0
1, 40813, Pitch_bend_c, 5, 8192
1, 40824, Lyric_t, "\001"
1, 40824, Note_on_c, 3, 63, 127
1, 40829, Pitch_bend_c, 3, 660
1, 40830, Note_on_c, 11, 63, 102
1, 40830, Note_on_c, 11, 67, 123
1, 40830, Note_on_c, 11, 70, 109
1, 40832, Note_on_c, 1, 31, 127
1, 40832, Note_on_c, 9, 36, 127
1, 40832, Note_on_c, 9, 38, 127
1, 40832, Note_on_c, 9, 42, 100
1, 40833, Pitch_bend_c, 5, 8192
1, 40849, Pitch_bend_c, 3, 8192
1, 40859, Note_on_c, 9, 36, 0
1, 40859, Note_on_c, 9, 38, 0
1, 40859, Note_on_c, 9, 42, 0
1, 40977, Note_on_c, 3, 63, 0
1, 40977, Note_on_c, 1, 31, 0
1, 40981, Note_on_c, 11, 70, 0
1, 40982, Note_on_c, 11, 63, 0
1, 40990, Note_on_c, 11, 63, 107
1, 40990, Note_on_c, 11, 67, 108
1, 40990, Note_on_c, 11, 70, 108
1, 40993, Note_on_c, 11, 67, 0
1, 41022, Pitch_bend_c, 3, 2820
1, 41043, Pitch_bend_c, 3, 0
1, 41057, Lyric_t, "\001"
1, 41057, Note_on_c, 3, 63, 125
1, 41063, Pitch_bend_c, 3, 3150
1, 41072, Note_on_c, 9, 42, 73
1, 41073, Control_c, 6, 10, 84
1, 41083, Pitch_bend_c, 3, 8192
1, 41099, Note_on_c, 9, 42, 0
1, 41116, Note_on_c, 11, 70, 0
1, 41125, Note_on_c, 11, 63, 0
1, 41135, Note_on_c, 11, 67, 0
1, 41150, Note_on_c, 11, 63, 98
1, 41150, Note_on_c, 11, 67, 98
1, 41150, Note_on_c, 11, 70, 98
1, 41200, Note_on_c, 3, 63, 0
1, 41244, Pitch_bend_c, 3, 3960
1, 41265, Pitch_bend_c, 3, 0
1, 41273, Note_on_c, 11, 70, 0
1, 41279, Pitch_bend_c, 4, 0
1, 41280, Note_on_c, 11, 67, 0
1, 41292, Note_on_c, 11, 63, 0
1, 41295, Pitch_bend_c, 3, 1740
1, 41299, Note_on_c, 4, 63, 127
1, 41305, Lyric_t, "\001"
1, 41305, Lyric_t, "\001"
1, 41305, Note_on_c, 3, 63, 127
1, 41310, Note_on_c, 11, 63, 89
1, 41310, Note_on_c, 11, 67, 90
1, 41310, Note_on_c, 11, 70, 90
1, 41312, Note_on_c, 1, 24, 127
1, 41312, Note_on_c, 9, 36, 127
1, 41312, Note_on_c, 9, 44, 78
1, 41315, Pitch_bend_c, 3, 8192
1, 41320, Pitch_bend_c, 4, 8192
1, 41339, Note_on_c, 9, 36, 0
1, 41339, Note_on_c, 9, 44, 0
1, 41386, Note_on_c, 4, 63, 0
1, 41397, Pitch_bend_c, 3, 1920
1, 41407, Note_on_c, 3, 63, 0
1, 41418, Pitch_bend_c, 3, 0
1, 41432, Note_on_c, 9, 38, 92
1, 41432, Note_on_c, 9, 42, 88
1, 41433, Note_on_c, 4, 65, 127
1, 41433, Control_c, 6, 10, 44
1, 41443, Note_on_c, 11, 70, 0
1, 41445, Note_on_c, 11, 63, 0
1, 41459, Note_on_c, 9, 38, 0
1, 41459, Note_on_c, 9, 42, 0
1, 41463, Note_on_c, 11, 67, 0
1, 41468, Pitch_bend_c, 3, 1620
1, 41469, Note_on_c, 1, 24, 0
1, 41470, Note_on_c, 11, 63, 81
1, 41470, Note_on_c, 11, 67, 81
1, 41470, Note_on_c, 11, 70, 81
1, 41479, Note_on_c, 4, 65, 0
1, 41488, Pitch_bend_c, 3, 8192
1, 41518, Pitch_bend_c, 12, 4410
1, 41538, Pitch_bend_c, 12, 0
1, 41549, Note_on_c, 4, 67, 127
1, 41549, Note_on_c, 12, 77, 88
1, 41552, Note_on_c, 9, 36, 127
1, 41552, Note_on_c, 9, 44, 74
1, 41553, Note_on_c, 12, 72, 80
1, 41579, Pitch_bend_c, 12, 3660
1, 41579, Note_on_c, 9, 36, 0
1, 41579, Note_on_c, 9, 44, 0
1, 41585, Note_on_c, 4, 67, 0
1, 41600, Pitch_bend_c, 12, 8192
1, 41612, Note_on_c, 11, 63, 0
1, 41617, Note_on_c, 11, 70, 0
1, 41626, Note_on_c, 11, 67, 0
1, 41630, Note_on_c, 11, 63, 72
1, 41630, Note_on_c, 11, 67, 72
1, 41630, Note_on_c, 11, 70, 72
1, 41638, Pitch_bend_c, 3, 7560
1, 41658, Pitch_bend_c, 3, 0
1, 41665, Pitch_bend_c, 4, 0
1, 41669, Note_on_c, 15, 67, 0
1, 41669, Note_on_c, 15, 63, 0
1, 41672, Lyric_t, "\001"
1, 41672, Note_on_c, 1, 24, 127
1, 41672, Note_on_c, 3, 58, 127
1, 41672, Note_on_c, 4, 72, 127
1, 41683, Pitch_bend_c, 12, 4470
1, 41689, Pitch_bend_c, 3, 8192
1, 41695, Note_on_c, 6, 67, 0
1, 41696, Note_on_c, 6, 63, 0
1, 41698, Pitch_bend_c, 4, 8192
1, 41703, Pitch_bend_c, 12, 0
1, 41707, Note_on_c, 6, 60, 0
1, 41775, Note_on_c, 11, 63, 0
1, 41777, Note_on_c, 11, 70, 0
1, 41783, Note_on_c, 11, 67, 0
1, 41790, Note_on_c, 6, 60, 70
1, 41790, Note_on_c, 6, 64, 74
1, 41790, Note_on_c, 6, 68, 67
1, 41790, Note_on_c, 11, 63, 63
1, 41790, Note_on_c, 11, 67, 64
1, 41790, Note_on_c, 11, 70, 64
1, 41792, Note_on_c, 9, 38, 127
1, 41792, Note_on_c, 9, 42, 100
1, 41793, Control_c, 6, 10, 84
1, 41798, Pitch_bend_c, 4, 0
1, 41819, Note_on_c, 9, 38, 0
1, 41819, Note_on_c, 9, 42, 0
1, 41834, Note_on_c, 3, 58, 0
1, 41858, Control_c, 12, 1, 121
1, 41899, Control_c, 12, 1, 127
1, 41915, Lyric_t, "\001"
1, 41915, Note_on_c, 3, 58, 107
1, 41928, Note_on_c, 11, 63, 0
1, 41937, Note_on_c, 11, 70, 0
1, 41941, Note_on_c, 11, 67, 0
1, 41943, Note_on_c, 3, 58, 0
1, 41950, Note_on_c, 11, 63, 54
1, 41950, Note_on_c, 11, 67, 54
1, 41950, Note_on_c, 11, 70, 55
1, 41990, Note_on_c, 1, 24, 0
1, 42015, Note_on_c, 4, 72, 0
1, 42032, Note_on_c, 1, 27, 127
1, 42032, Note_on_c, 9, 42, 73
1, 42034, Lyric_t, "\001"
1, 42034, Note_on_c, 3, 60, 127
1, 42059, Note_on_c, 9, 42, 0
1, 42083, Control_c, 4, 1, 8
1, 42093, Note_on_c, 11, 67, 0
1, 42097, Note_on_c, 11, 63, 0
1, 42108, Note_on_c, 11, 70, 0
1, 42110, Note_on_c, 11, 63, 45
1, 42110, Note_on_c, 11, 67, 46
1, 42110, Note_on_c, 11, 70, 45
1, 42113, Control_c, 4, 1, 0
1, 42113, Pitch_bend_c, 4, 8192
1, 42133, Pitch_bend_c, 4, 8192
1, 42144, Note_on_c, 1, 27, 0
1, 42146, Note_on_c, 3, 60, 0
1, 42153, Control_c, 6, 10, 44
1, 42153, Note_on_c, 12, 72, 0
1, 42157, Lyric_t, "\001"
1, 42157, Note_on_c, 3, 58, 106
1, 42161, Note_on_c, 12, 77, 0
1, 42168, Control_c, 12, 1, 0
1, 42174, Note_on_c, 2, 63, 0
1, 42178, Pitch_bend_c, 12, 8192
1, 42189, Pitch_bend_c, 12, 4650
1, 42189, Note_on_c, 3, 58, 0
1, 42193, Note_on_c, 2, 51, 0
1, 42210, Pitch_bend_c, 12, 0
1, 42213, Note_on_c, 6, 60, 0
1, 42226, Note_on_c, 11, 70, 0
1, 42228, Note_on_c, 6, 64, 0
1, 42228, Note_on_c, 6, 68, 0
1, 42233, Note_on_c, 11, 63, 0
1, 42235, Pitch_bend_c, 3, 6840
1, 42236, Note_on_c, 11, 67, 0
1, 42257, Pitch_bend_c, 3, 0
1, 42267, Note_on_c, 2, 58, 72
1, 42267, Note_on_c, 2, 70, 72
1, 42270, Lyric_t, "\001"
1, 42270, Note_on_c, 3, 63, 127
1, 42270, Note_on_c, 6, 63, 66
1, 42270, Note_on_c, 6, 67, 88
1, 42270, Note_on_c, 6, 70, 65
1, 42272, Note_on_c, 1, 29, 127
1, 42272, Note_on_c, 9, 36, 127
1, 42272, Note_on_c, 9, 44, 78
1, 42272, Note_on_c, 12, 89, 112
1, 42272, Note_on_c, 15, 63, 1
1, 42272, Note_on_c, 15, 67, 1
1, 42272, Note_on_c, 15, 70, 1
1, 42275, Note_on_c, 4, 67, 114
1, 42287, Pitch_bend_c, 3, 8192
1, 42299, Note_on_c, 9, 36, 0
1, 42299, Note_on_c, 9, 44, 0
1, 42303, Pitch_bend_c, 12, 1500
1, 42323, Pitch_bend_c, 12, 4020
1, 42343, Pitch_bend_c, 12, 5820
1, 42364, Pitch_bend_c, 12, 8192
1, 42388, Note_on_c, 4, 67, 0
1, 42392, Note_on_c, 9, 42, 88
1, 42405, Note_on_c, 3, 63, 0
1, 42419, Note_on_c, 9, 42, 0
1, 42448, Pitch_bend_c, 12, 6690
1, 42452, Note_on_c, 12, 89, 0
1, 42468, Pitch_bend_c, 12, 2580
1, 42488, Pitch_bend_c, 12, 0
1, 42512, Lyric_t, "\001"
1, 42512, Note_on_c, 3, 63, 127
1, 42512, Note_on_c, 9, 44, 74
1, 42512, Note_on_c, 12, 89, 110
1, 42513, Control_c, 6, 10, 84
1, 42517, Note_on_c, 4, 67, 115
1, 42539, Note_on_c, 9, 44, 0
1, 42550, Pitch_bend_c, 12, 810
1, 42570, Pitch_bend_c, 12, 4530
1, 42592, Pitch_bend_c, 12, 4830
1, 42612, Pitch_bend_c, 12, 6480
1, 42617, Note_on_c, 3, 63, 0
1, 42622, Note_on_c, 4, 67, 0
1, 42633, Pitch_bend_c, 12, 8192
1, 42683, Note_on_c, 12, 89, 0
1, 42704, Pitch_bend_c, 12, 3630
1, 42718, Note_on_c, 1, 29, 0
1, 42725, Pitch_bend_c, 12, 0
1, 42740, Lyric_t, "\001"
1, 42740, Note_on_c, 3, 63, 126
1, 42752, Note_on_c, 1, 31, 127
1, 42752, Note_on_c, 4, 67, 104
1, 42752, Note_on_c, 9, 38, 127
1, 42752, Note_on_c, 9, 42, 100
1, 42752, Note_on_c, 12, 89, 82
1, 42779, Note_on_c, 9, 38, 0
1, 42779, Note_on_c, 9, 42, 0
1, 42798, Pitch_bend_c, 12, 2910
1, 42818, Pitch_bend_c, 12, 4860
1, 42838, Pitch_bend_c, 12, 4920
1, 42859, Pitch_bend_c, 12, 6300
1, 42867, Note_on_c, 3, 63, 0
1, 42873, Control_c, 6, 10, 44
1, 42879, Pitch_bend_c, 12, 6960
1, 42882, Note_on_c, 4, 67, 0
1, 42890, Note_on_c, 1, 31, 0
1, 42900, Pitch_bend_c, 12, 7020
1, 42922, Pitch_bend_c, 12, 7320
1, 42928, Note_on_c, 12, 89, 0
1, 42942, Pitch_bend_c, 12, 3840
1, 42962, Pitch_bend_c, 12, 0
1, 42983, Lyric_t, "\001"
1, 42983, Note_on_c, 3, 63, 106
1, 42984, Note_on_c, 4, 67, 93
1, 42990, Note_on_c, 9, 36, 65
1, 42992, Note_on_c, 9, 42, 73
1, 42992, Note_on_c, 10, 15, 94
1, 42992, Note_on_c, 12, 89, 86
1, 43017, Note_on_c, 9, 36, 0
1, 43019, Note_on_c, 9, 42, 0
1, 43019, Note_on_c, 10, 15, 0
1, 43034, Pitch_bend_c, 12, 2220
1, 43054, Pitch_bend_c, 12, 3030
1, 43075, Pitch_bend_c, 12, 3780
1, 43097, Pitch_bend_c, 12, 4770
1, 43108, Note_on_c, 3, 63, 0
1, 43117, Pitch_bend_c, 12, 5820
1, 43134, Note_on_c, 4, 67, 0
1, 43138, Pitch_bend_c, 12, 6570
1, 43158, Pitch_bend_c, 12, 6810
1, 43169, Note_on_c, 12, 89, 0
1, 43178, Pitch_bend_c, 12, 6000
1, 43199, Pitch_bend_c, 12, 2010
1, 43218, Note_on_c, 4, 67, 95
1, 43224, Note_on_c, 2, 70, 0
1, 43225, Lyric_t, "\001"
1, 43225, Lyric_t, "\001"
1, 43225, Note_on_c, 3, 63, 97
1, 43227, Note_on_c, 2, 56, 72
1, 43227, Note_on_c, 2, 68, 72
1, 43228, Pitch_bend_c, 12, 60
1, 43229, Note_on_c, 2, 58, 0
1, 43232, Note_on_c, 9, 36, 127
1, 43232, Note_on_c, 9, 44, 78
1, 43232, Note_on_c, 12, 89, 73
1, 43233, Control_c, 6, 10, 84
1, 43259, Note_on_c, 9, 36, 0
1, 43259, Note_on_c, 9, 44, 0
1, 43272, Pitch_bend_c, 12, 960
1, 43278, Note_on_c, 4, 67, 0
1, 43292, Pitch_bend_c, 12, 3840
1, 43303, Note_on_c, 3, 63, 0
1, 43313, Pitch_bend_c, 12, 4560
1, 43333, Pitch_bend_c, 12, 5130
1, 43352, Note_on_c, 9, 42, 88
1, 43353, Pitch_bend_c, 12, 6660
1, 43374, Pitch_bend_c, 12, 7170
1, 43379, Note_on_c, 9, 42, 0
1, 43414, Note_on_c, 12, 89, 0
1, 43415, Pitch_bend_c, 12, 7230
1, 43435, Pitch_bend_c, 12, 4650
1, 43457, Pitch_bend_c, 12, 1290
1, 43472, Note_on_c, 5, 55, 72
1, 43472, Note_on_c, 9, 44, 74
1, 43472, Note_on_c, 12, 89, 62
1, 43478, Pitch_bend_c, 12, 210
1, 43484, Note_on_c, 5, 58, 72
1, 43498, Pitch_bend_c, 12, 180
1, 43499, Note_on_c, 9, 44, 0
1, 43518, Pitch_bend_c, 12, 2580
1, 43538, Pitch_bend_c, 12, 4230
1, 43559, Pitch_bend_c, 12, 4680
1, 43572, Pitch_bend_c, 3, 5520
1, 43579, Pitch_bend_c, 12, 5820
1, 43587, Pitch_bend_c, 3, 1170
1, 43592, Note_on_c, 1, 24, 127
1, 43592, Note_on_c, 5, 67, 72
1, 43593, Pitch_bend_c, 3, 180
1, 43593, Control_c, 6, 10, 44
1, 43597, Note_on_c, 5, 55, 0
1, 43600, Pitch_bend_c, 12, 6240
1, 43601, Note_on_c, 5, 58, 0
1, 43602, Lyric_t, "\001"
1, 43602, Note_on_c, 3, 58, 127
1, 43602, Note_on_c, 5, 70, 72
1, 43607, Pitch_bend_c, 3, 1650
1, 43613, Pitch_bend_c, 3, 3810
1, 43620, Pitch_bend_c, 12, 6300
1, 43628, Pitch_bend_c, 3, 8192
1, 43633, Pitch_bend_c, 3, 8192
1, 43642, Pitch_bend_c, 12, 6570
1, 43657, Note_on_c, 2, 56, 0
1, 43658, Note_on_c, 12, 89, 0
1, 43662, Pitch_bend_c, 12, 6000
1, 43683, Pitch_bend_c, 12, 4920
1, 43684, Note_on_c, 2, 68, 0
1, 43703, Pitch_bend_c, 12, 4980
1, 43707, Note_on_c, 2, 55, 72
1, 43707, Note_on_c, 2, 67, 72
1, 43709, Note_on_c, 1, 24, 0
1, 43712, Note_on_c, 1, 27, 127
1, 43712, Note_on_c, 9, 38, 127
1, 43712, Note_on_c, 9, 42, 100
1, 43715, Note_on_c, 6, 63, 0
1, 43723, Pitch_bend_c, 12, 7020
1, 43735, Note_on_c, 6, 67, 0
1, 43738, Note_on_c, 6, 70, 0
1, 43739, Note_on_c, 9, 38, 0
1, 43739, Note_on_c, 9, 42, 0
1, 43744, Pitch_bend_c, 12, 8192
1, 43744, Note_on_c, 3, 58, 0
1, 43830, Note_on_c, 6, 67, 85
1, 43830, Note_on_c, 6, 70, 71
1, 43832, Lyric_t, "\001"
1, 43832, Note_on_c, 3, 58, 109
1, 43862, Note_on_c, 1, 27, 0
1, 43879, Note_on_c, 3, 58, 0
1, 43948, Lyric_t, "\001"
1, 43948, Note_on_c, 3, 60, 127
1, 43952, Note_on_c, 5, 67, 72
1, 43952, Note_on_c, 9, 42, 73
1, 43953, Control_c, 6, 10, 84
1, 43954, Note_on_c, 5, 70, 0
1, 43965, Note_on_c, 5, 63, 72
1, 43965, Note_on_c, 5, 67, 0
1, 43979, Note_on_c, 9, 42, 0
1, 44061, Note_on_c, 3, 60, 0
1, 44070, Lyric_t, "\001"
1, 44070, Note_on_c, 3, 58, 102
1, 44073, Note_on_c, 5, 63, 72
1, 44073, Note_on_c, 5, 63, 0
1, 44074, Note_on_c, 5, 67, 0
1, 44082, Note_on_c, 5, 58, 72
1, 44147, Note_on_c, 6, 67, 0
1, 44147, Note_on_c, 6, 70, 0
1, 44165, Pitch_bend_c, 4, 1320
1, 44166, Note_on_c, 3, 58, 0
1, 44187, Note_on_c, 2, 58, 72
1, 44187, Note_on_c, 2, 70, 72
1, 44187, Note_on_c, 4, 67, 106
1, 44190, Note_on_c, 6, 63, 72
1, 44190, Note_on_c, 6, 67, 91
1, 44190, Note_on_c, 6, 70, 73
1, 44192, Note_on_c, 1, 29, 127
1, 44192, Note_on_c, 9, 36, 127
1, 44192, Note_on_c, 9, 44, 78
1, 44194, Pitch_bend_c, 3, 0
1, 44194, Pitch_bend_c, 4, 2250
1, 44195, Lyric_t, "\001"
1, 44195, Note_on_c, 3, 63, 127
1, 44200, Note_on_c, 2, 67, 0
1, 44208, Note_on_c, 2, 55, 0
1, 44215, Pitch_bend_c, 4, 8192
1, 44217, Pitch_bend_c, 3, 8192
1, 44219, Note_on_c, 9, 36, 0
1, 44219, Note_on_c, 9, 44, 0
1, 44275, Note_on_c, 12, 70, 74
1, 44308, Note_on_c, 3, 63, 0
1, 44312, Note_on_c, 9, 42, 88
1, 44312, Note_on_c, 12, 77, 91
1, 44313, Control_c, 6, 10, 44
1, 44333, Note_on_c, 4, 67, 0
1, 44339, Note_on_c, 9, 42, 0
1, 44341, Note_on_c, 12, 70, 0
1, 44383, Note_on_c, 12, 77, 0
1, 44432, Note_on_c, 4, 67, 99
1, 44432, Note_on_c, 9, 44, 74
1, 44435, Lyric_t, "\001"
1, 44435, Note_on_c, 3, 63, 123
1, 44444, Note_on_c, 12, 70, 73
1, 44459, Note_on_c, 9, 44, 0
1, 44482, Note_on_c, 12, 77, 78
1, 44504, Note_on_c, 12, 70, 0
1, 44549, Note_on_c, 4, 67, 0
1, 44549, Note_on_c, 12, 77, 0
1, 44553, Note_on_c, 3, 63, 0
1, 44609, Note_on_c, 12, 70, 67
1, 44645, Note_on_c, 1, 29, 0
1, 44648, Note_on_c, 12, 77, 65
1, 44653, Pitch_bend_c, 3, 2850
1, 44667, Lyric_t, "\001"
1, 44667, Note_on_c, 3, 63, 118
1, 44667, Note_on_c, 12, 70, 0
1, 44668, Note_on_c, 4, 67, 97
1, 44672, Note_on_c, 1, 31, 127
1, 44672, Note_on_c, 9, 38, 127
1, 44672, Note_on_c, 9, 42, 100
1, 44673, Pitch_bend_c, 3, 2820
1, 44673, Control_c, 6, 10, 84
1, 44693, Pitch_bend_c, 3, 8192
1, 44699, Note_on_c, 9, 38, 0
1, 44699, Note_on_c, 9, 42, 0
1, 44713, Note_on_c, 12, 77, 0
1, 44763, Note_on_c, 12, 70, 47
1, 44779, Note_on_c, 1, 31, 0
1, 44790, Note_on_c, 4, 67, 0
1, 44804, Note_on_c, 12, 77, 58
1, 44812, Note_on_c, 3, 63, 0
1, 44825, Note_on_c, 12, 70, 0
1, 44844, Pitch_bend_c, 3, 6360
1, 44864, Pitch_bend_c, 3, 2580
1, 44869, Note_on_c, 12, 77, 0
1, 44885, Pitch_bend_c, 3, 1740
1, 44892, Note_on_c, 4, 67, 105
1, 44900, Lyric_t, "\001"
1, 44900, Note_on_c, 3, 63, 107
1, 44905, Pitch_bend_c, 3, 5100
1, 44912, Note_on_c, 9, 42, 73
1, 44920, Note_on_c, 12, 70, 42
1, 44925, Pitch_bend_c, 3, 8192
1, 44939, Note_on_c, 9, 42, 0
1, 44953, Note_on_c, 12, 77, 47
1, 44983, Note_on_c, 12, 70, 0
1, 45029, Note_on_c, 12, 77, 0
1, 45033, Control_c, 6, 10, 44
1, 45033, Note_on_c, 5, 63, 0
1, 45041, Note_on_c, 3, 63, 0
1, 45065, Note_on_c, 12, 70, 35
1, 45069, Note_on_c, 4, 67, 0
1, 45088, Pitch_bend_c, 3, 8100
1, 45108, Pitch_bend_c, 3, 4620
1, 45112, Note_on_c, 12, 77, 44
1, 45119, Note_on_c, 5, 58, 0
1, 45123, Note_on_c, 12, 70, 0
1, 45128, Pitch_bend_c, 3, 2490
1, 45135, Note_on_c, 2, 70, 0
1, 45139, Note_on_c, 4, 67, 123
1, 45147, Lyric_t, "\001"
1, 45147, Lyric_t, "\001"
1, 45147, Note_on_c, 2, 56, 72
1, 45147, Note_on_c, 2, 68, 72
1, 45147, Note_on_c, 3, 63, 127
1, 45147, Note_on_c, 2, 58, 0
1, 45149, Pitch_bend_c, 3, 4980
1, 45152, Note_on_c, 9, 36, 127
1, 45152, Note_on_c, 9, 44, 78
1, 45164, Note_on_c, 4, 67, 0
1, 45170, Pitch_bend_c, 3, 8192
1, 45179, Note_on_c, 9, 36, 0
1, 45179, Note_on_c, 9, 44, 0
1, 45183, Note_on_c, 12, 77, 0
1, 45219, Note_on_c, 12, 70, 24
1, 45232, Pitch_bend_c, 3, 6330
1, 45244, Note_on_c, 3, 63, 0
1, 45252, Pitch_bend_c, 3, 2370
1, 45259, Note_on_c, 12, 77, 29
1, 45272, Pitch_bend_c, 3, 0
1, 45272, Note_on_c, 9, 42, 88
1, 45284, Note_on_c, 12, 70, 0
1, 45292, Pitch_bend_c, 3, 1830
1, 45299, Note_on_c, 9, 42, 0
1, 45312, Pitch_bend_c, 3, 8192
1, 45330, Note_on_c, 12, 77, 0
1, 45346, Note_on_c, 6, 63, 0
1, 45353, Note_on_c, 6, 67, 0
1, 45353, Note_on_c, 6, 70, 0
1, 45370, Note_on_c, 12, 70, 19
1, 45392, Note_on_c, 1, 22, 127
1, 45392, Note_on_c, 9, 36, 127
1, 45392, Note_on_c, 9, 44, 74
1, 45393, Control_c, 6, 10, 84
1, 45419, Note_on_c, 9, 36, 0
1, 45419, Note_on_c, 9, 44, 0
1, 45420, Note_on_c, 12, 70, 0
1, 45425, Note_on_c, 12, 77, 28
1, 45477, Pitch_bend_c, 3, 5400
1, 45481, Note_on_c, 12, 77, 0
1, 45483, Pitch_bend_c, 4, 5820
1, 45498, Pitch_bend_c, 3, 0
1, 45503, Pitch_bend_c, 4, 0
1, 45512, Note_on_c, 4, 70, 91
1, 45518, Pitch_bend_c, 3, 2280
1, 45519, Lyric_t, "\001"
1, 45519, Note_on_c, 3, 63, 127
1, 45538, Pitch_bend_c, 3, 8192
1, 45543, Pitch_bend_c, 4, 4200
1, 45563, Pitch_bend_c, 4, 8192
1, 45609, Note_on_c, 1, 22, 0
1, 45618, Note_on_c, 15, 63, 0
1, 45618, Note_on_c, 15, 67, 0
1, 45618, Note_on_c, 15, 70, 0
1, 45620, Note_on_c, 5, 63, 73
1, 45623, Note_on_c, 5, 60, 81
1, 45627, Note_on_c, 2, 55, 72
1, 45627, Note_on_c, 2, 67, 72
1, 45628, Note_on_c, 2, 68, 0
1, 45632, Note_on_c, 1, 24, 127
1, 45632, Note_on_c, 9, 34, 115
1, 45632, Note_on_c, 9, 36, 127
1, 45632, Note_on_c, 9, 38, 127
1, 45632, Note_on_c, 9, 42, 100
1, 45632, Note_on_c, 15, 60, 1
1, 45632, Note_on_c, 15, 63, 1
1, 45639, Note_on_c, 6, 63, 70
1, 45639, Note_on_c, 2, 56, 0
1, 45643, Note_on_c, 6, 60, 64
1, 45649, Note_on_c, 3, 63, 0
1, 45653, Pitch_bend_c, 9, 6210
1, 45659, Note_on_c, 9, 34, 0
1, 45659, Note_on_c, 9, 36, 0
1, 45659, Note_on_c, 9, 38, 0
1, 45659, Note_on_c, 9, 42, 0
1, 45664, Note_on_c, 4, 70, 0
1, 45673, Pitch_bend_c, 9, 8192
1, 45743, Lyric_t, "\001"
1, 45743, Note_on_c, 3, 63, 94
1, 45752, Note_on_c, 4, 70, 75
1, 45752, Note_on_c, 6, 62, 76
1, 45752, Note_on_c, 15, 62, 1
1, 45752, Note_on_c, 15, 65, 1
1, 45753, Control_c, 6, 10, 44
1, 45753, Note_on_c, 5, 63, 0
1, 45758, Note_on_c, 5, 65, 79
1, 45761, Note_on_c, 6, 63, 0
1, 45761, Note_on_c, 3, 63, 0
1, 45764, Note_on_c, 5, 62, 69
1, 45764, Note_on_c, 5, 60, 0
1, 45765, Note_on_c, 15, 63, 0
1, 45768, Note_on_c, 6, 65, 76
1, 45769, Note_on_c, 6, 60, 0
1, 45773, Note_on_c, 15, 60, 0
1, 45814, Note_on_c, 1, 24, 0
1, 45838, Pitch_bend_c, 4, 6540
1, 45858, Pitch_bend_c, 4, 0
1, 45859, Note_on_c, 5, 65, 0
1, 45867, Pitch_bend_c, 3, 420
1, 45868, Lyric_t, "\001"
1, 45868, Note_on_c, 3, 63, 127
1, 45868, Note_on_c, 6, 65, 0
1, 45869, Note_on_c, 15, 62, 0
1, 45869, Note_on_c, 15, 65, 0
1, 45870, Note_on_c, 5, 67, 74
1, 45872, Note_on_c, 9, 42, 73
1, 45872, Note_on_c, 15, 63, 1
1, 45872, Note_on_c, 15, 67, 1
1, 45877, Note_on_c, 6, 67, 91
1, 45879, Note_on_c, 5, 62, 0
1, 45880, Note_on_c, 5, 63, 80
1, 45880, Note_on_c, 6, 63, 83
1, 45888, Pitch_bend_c, 3, 3120
1, 45888, Note_on_c, 6, 62, 0
1, 45899, Note_on_c, 9, 42, 0
1, 45908, Pitch_bend_c, 3, 8192
1, 45992, Note_on_c, 4, 67, 87
1, 45999, Pitch_bend_c, 4, 8192
1, 46028, Lyric_t, "\001"
1, 46028, Note_on_c, 3, 63, 94
1, 46034, Note_on_c, 3, 63, 0
1, 46035, Note_on_c, 4, 70, 0
1, 46046, Note_on_c, 3, 63, 0
1, 46058, Note_on_c, 2, 55, 0
1, 46069, Pitch_bend_c, 3, 4050
1, 46075, Pitch_bend_c, 9, 0
1, 46086, Note_on_c, 5, 67, 0
1, 46093, Note_on_c, 5, 65, 84
1, 46093, Note_on_c, 5, 63, 0
1, 46097, Note_on_c, 5, 62, 91
1, 46098, Pitch_bend_c, 3, 3180
1, 46098, Note_on_c, 6, 63, 0
1, 46099, Note_on_c, 4, 67, 0
1, 46104, Note_on_c, 2, 67, 0
1, 46104, Note_on_c, 6, 67, 0
1, 46107, Lyric_t, "\001"
1, 46107, Note_on_c, 2, 53, 52
1, 46107, Note_on_c, 2, 77, 67
1, 46107, Note_on_c, 3, 62, 127
1, 46109, Note_on_c, 15, 63, 0
1, 46109, Note_on_c, 15, 67, 0
1, 46110, Note_on_c, 6, 60, 72
1, 46110, Note_on_c, 6, 65, 74
1, 46112, Note_on_c, 1, 31, 127
1, 46112, Note_on_c, 4, 65, 93
1, 46112, Note_on_c, 9, 36, 127
1, 46112, Note_on_c, 9, 44, 78
1, 46112, Note_on_c, 15, 62, 1
1, 46112, Note_on_c, 15, 65, 1
1, 46113, Control_c, 6, 10, 84
1, 46120, Pitch_bend_c, 3, 8192
1, 46139, Note_on_c, 9, 36, 0
1, 46139, Note_on_c, 9, 44, 0
1, 46232, Note_on_c, 9, 42, 88
1, 46234, Note_on_c, 4, 65, 0
1, 46255, Note_on_c, 3, 62, 0
1, 46259, Note_on_c, 9, 42, 0
1, 46344, Lyric_t, "\001"
1, 46344, Note_on_c, 3, 62, 120
1, 46352, Note_on_c, 4, 65, 99
1, 46352, Note_on_c, 9, 44, 74
1, 46379, Note_on_c, 9, 44, 0
1, 46450, Note_on_c, 5, 58, 85
1, 46454, Note_on_c, 5, 65, 0
1, 46459, Note_on_c, 4, 65, 0
1, 46470, Note_on_c, 6, 50, 72
1, 46470, Note_on_c, 6, 58, 62
1, 46473, Control_c, 6, 10, 44
1, 46486, Note_on_c, 6, 60, 0
1, 46492, Note_on_c, 3, 62, 0
1, 46525, Pitch_bend_c, 3, 5820
1, 46545, Pitch_bend_c, 3, 3180
1, 46567, Lyric_t, "\001"
1, 46567, Pitch_bend_c, 3, 4080
1, 46567, Note_on_c, 3, 62, 127
1, 46587, Pitch_bend_c, 3, 8192
1, 46592, Note_on_c, 1, 34, 127
1, 46592, Note_on_c, 4, 65, 97
1, 46592, Note_on_c, 9, 38, 127
1, 46592, Note_on_c, 9, 42, 100
1, 46599, Note_on_c, 1, 31, 0
1, 46619, Note_on_c, 9, 38, 0
1, 46619, Note_on_c, 9, 42, 0
1, 46687, Note_on_c, 1, 34, 0
1, 46722, Note_on_c, 4, 65, 0
1, 46742, Note_on_c, 3, 62, 0
1, 46779, Pitch_bend_c, 3, 4620
1, 46799, Pitch_bend_c, 3, 1710
1, 46809, Note_on_c, 5, 62, 0
1, 46819, Pitch_bend_c, 3, 840
1, 46822, Lyric_t, "\001"
1, 46822, Note_on_c, 3, 62, 127
1, 46830, Note_on_c, 9, 36, 65
1, 46832, Note_on_c, 4, 65, 95
1, 46832, Note_on_c, 5, 53, 80
1, 46832, Note_on_c, 9, 42, 73
1, 46832, Note_on_c, 10, 15, 94
1, 46833, Control_c, 6, 10, 84
1, 46839, Pitch_bend_c, 3, 3210
1, 46857, Note_on_c, 9, 36, 0
1, 46859, Pitch_bend_c, 3, 8192
1, 46859, Note_on_c, 9, 42, 0
1, 46859, Note_on_c, 10, 15, 0
1, 46960, Note_on_c, 4, 65, 0
1, 46982, Note_on_c, 3, 62, 0
1, 47013, Pitch_bend_c, 3, 6120
1, 47033, Pitch_bend_c, 3, 1620
1, 47053, Pitch_bend_c, 3, 1800
1, 47062, Lyric_t, "\001"
1, 47062, Lyric_t, "\001"
1, 47062, Note_on_c, 3, 62, 127
1, 47072, Note_on_c, 4, 65, 107
1, 47072, Note_on_c, 9, 36, 127
1, 47072, Note_on_c, 9, 44, 78
1, 47073, Pitch_bend_c, 3, 6360
1, 47093, Pitch_bend_c, 3, 8192
1, 47099, Note_on_c, 9, 36, 0
1, 47099, Note_on_c, 9, 44, 0
1, 47144, Note_on_c, 4, 65, 0
1, 47153, Pitch_bend_c, 3, 6960
1, 47168, Note_on_c, 3, 62, 0
1, 47173, Pitch_bend_c, 3, 0
1, 47192, Note_on_c, 9, 42, 88
1, 47193, Control_c, 6, 10, 44
1, 47219, Note_on_c, 9, 42, 0
1, 47234, Pitch_bend_c, 3, 8192
1, 47312, Note_on_c, 9, 44, 74
1, 47339, Note_on_c, 9, 44, 0
1, 47418, Pitch_bend_c, 3, 0
1, 47422, Note_on_c, 5, 53, 83
1, 47429, Note_on_c, 15, 62, 0
1, 47429, Note_on_c, 15, 65, 0
1, 47432, Lyric_t, "\001"
1, 47432, Note_on_c, 1, 22, 127
1, 47432, Note_on_c, 3, 58, 127
1, 47432, Note_on_c, 15, 70, 1
1, 47445, Pitch_bend_c, 4, 0
1, 47449, Pitch_bend_c, 3, 8192
1, 47450, Note_on_c, 5, 53, 0
1, 47452, Note_on_c, 4, 63, 97
1, 47453, Note_on_c, 5, 58, 0
1, 47475, Pitch_bend_c, 4, 8192
1, 47544, Pitch_bend_c, 5, 12302
1, 47545, Note_on_c, 1, 22, 0
1, 47552, Note_on_c, 1, 24, 127
1, 47552, Note_on_c, 9, 38, 127
1, 47552, Note_on_c, 9, 42, 100
1, 47553, Control_c, 6, 10, 84
1, 47565, Pitch_bend_c, 5, 16383
1, 47567, Note_on_c, 6, 58, 0
1, 47568, Note_on_c, 6, 50, 0
1, 47568, Note_on_c, 3, 58, 0
1, 47579, Note_on_c, 9, 38, 0
1, 47579, Note_on_c, 9, 42, 0
1, 47583, Note_on_c, 6, 65, 0
1, 47612, Note_on_c, 4, 63, 0
1, 47670, Note_on_c, 6, 55, 64
1, 47670, Note_on_c, 6, 58, 57
1, 47670, Note_on_c, 6, 60, 68
1, 47672, Lyric_t, "\001"
1, 47672, Note_on_c, 3, 58, 103
1, 47682, Note_on_c, 4, 63, 70
1, 47704, Note_on_c, 3, 58, 0
1, 47705, Note_on_c, 1, 24, 0
1, 47749, Note_on_c, 5, 53, 0
1, 47760, Pitch_bend_c, 5, 15902
1, 47774, Note_on_c, 4, 63, 0
1, 47782, Pitch_bend_c, 5, 8192
1, 47787, Note_on_c, 5, 65, 92
1, 47789, Note_on_c, 15, 70, 0
1, 47792, Lyric_t, "\001"
1, 47792, Note_on_c, 3, 60, 127
1, 47792, Note_on_c, 9, 42, 73
1, 47792, Note_on_c, 15, 63, 1
1, 47792, Note_on_c, 15, 68, 1
1, 47799, Note_on_c, 4, 65, 97
1, 47819, Note_on_c, 9, 42, 0
1, 47904, Note_on_c, 4, 65, 0
1, 47909, Note_on_c, 15, 68, 0
1, 47910, Note_on_c, 4, 63, 79
1, 47912, Lyric_t, "\001"
1, 47912, Note_on_c, 3, 58, 96
1, 47912, Note_on_c, 15, 67, 1
1, 47913, Control_c, 6, 10, 44
1, 47917, Note_on_c, 3, 60, 0
1, 47925, Pitch_bend_c, 5, 0
1, 47945, Note_on_c, 3, 58, 0
1, 47993, Note_on_c, 4, 63, 0
1, 47994, Note_on_c, 2, 53, 0
1, 47994, Note_on_c, 2, 77, 0
1, 47998, Pitch_bend_c, 3, 0
1, 48010, Note_on_c, 6, 55, 0
1, 48012, Note_on_c, 6, 60, 0
1, 48015, Note_on_c, 6, 58, 0
1, 48024, Pitch_bend_c, 4, 0
1, 48024, Note_on_c, 4, 67, 106
1, 48027, Note_on_c, 2, 51, 52
1, 48027, Note_on_c, 2, 75, 67
1, 48028, Pitch_bend_c, 3, 8192
1, 48029, Note_on_c, 15, 63, 0
1, 48030, Note_on_c, 6, 60, 77
1, 48030, Note_on_c, 6, 63, 83
1, 48030, Note_on_c, 6, 67, 86
1, 48032, Lyric_t, "\001"
1, 48032, Note_on_c, 1, 31, 127
1, 48032, Note_on_c, 3, 63, 126
1, 48032, Note_on_c, 9, 36, 127
1, 48032, Note_on_c, 9, 44, 78
1, 48032, Note_on_c, 15, 63, 1
1, 48045, Pitch_bend_c, 4, 8192
1, 48059, Note_on_c, 9, 36, 0
1, 48059, Note_on_c, 9, 44, 0
1, 48152, Note_on_c, 9, 42, 88
1, 48173, Control_c, 5, 1, 4
1, 48175, Note_on_c, 4, 67, 0
1, 48179, Note_on_c, 9, 42, 0
1, 48193, Note_on_c, 3, 63, 0
1, 48203, Control_c, 5, 1, 39
1, 48235, Control_c, 5, 1, 101
1, 48265, Control_c, 5, 1, 118
1, 48272, Lyric_t, "\001"
1, 48272, Note_on_c, 3, 63, 123
1, 48272, Note_on_c, 9, 44, 74
1, 48273, Control_c, 6, 10, 84
1, 48275, Note_on_c, 4, 67, 97
1, 48297, Control_c, 5, 1, 125
1, 48299, Note_on_c, 9, 44, 0
1, 48368, Note_on_c, 11, 67, 77
1, 48369, Control_c, 5, 1, 127
1, 48404, Note_on_c, 3, 63, 0
1, 48417, Note_on_c, 11, 70, 72
1, 48417, Note_on_c, 4, 67, 0
1, 48419, Note_on_c, 11, 67, 0
1, 48432, Control_c, 5, 1, 125
1, 48454, Note_on_c, 11, 70, 0
1, 48462, Control_c, 5, 1, 0
1, 48463, Note_on_c, 11, 67, 87
1, 48467, Pitch_bend_c, 3, 5760
1, 48474, Note_on_c, 5, 65, 0
1, 48488, Pitch_bend_c, 3, 4770
1, 48493, Pitch_bend_c, 5, 8192
1, 48503, Note_on_c, 11, 67, 0
1, 48504, Note_on_c, 1, 31, 0
1, 48505, Note_on_c, 4, 67, 99
1, 48510, Note_on_c, 11, 70, 88
1, 48512, Lyric_t, "\001"
1, 48512, Note_on_c, 1, 34, 127
1, 48512, Note_on_c, 3, 63, 110
1, 48512, Note_on_c, 9, 36, 127
1, 48512, Note_on_c, 9, 38, 127
1, 48512, Note_on_c, 9, 42, 100
1, 48513, Pitch_bend_c, 5, 8192
1, 48517, Pitch_bend_c, 3, 8192
1, 48539, Note_on_c, 9, 36, 0
1, 48539, Note_on_c, 9, 38, 0
1, 48539, Note_on_c, 9, 42, 0
1, 48543, Note_on_c, 11, 70, 0
1, 48554, Note_on_c, 11, 67, 95
1, 48591, Note_on_c, 11, 67, 0
1, 48599, Note_on_c, 11, 70, 94
1, 48630, Note_on_c, 11, 70, 0
1, 48633, Control_c, 6, 10, 44
1, 48645, Note_on_c, 11, 67, 107
1, 48653, Note_on_c, 4, 67, 0
1, 48654, Note_on_c, 3, 63, 0
1, 48672, Note_on_c, 1, 34, 0
1, 48682, Note_on_c, 11, 67, 0
1, 48688, Note_on_c, 11, 70, 116
1, 48700, Pitch_bend_c, 3, 5700
1, 48719, Note_on_c, 11, 70, 0
1, 48720, Pitch_bend_c, 3, 480
1, 48733, Note_on_c, 11, 67, 123
1, 48734, Note_on_c, 4, 67, 92
1, 48740, Pitch_bend_c, 3, 2970
1, 48752, Lyric_t, "\001"
1, 48752, Note_on_c, 3, 63, 122
1, 48752, Note_on_c, 9, 42, 73
1, 48760, Pitch_bend_c, 3, 8192
1, 48769, Note_on_c, 11, 67, 0
1, 48777, Note_on_c, 11, 70, 127
1, 48779, Note_on_c, 9, 42, 0
1, 48809, Note_on_c, 11, 70, 0
1, 48829, Note_on_c, 11, 67, 127
1, 48870, Note_on_c, 11, 70, 127
1, 48874, Note_on_c, 11, 67, 0
1, 48877, Note_on_c, 4, 67, 0
1, 48899, Note_on_c, 3, 63, 0
1, 48905, Note_on_c, 11, 70, 0
1, 48922, Note_on_c, 11, 67, 126
1, 48933, Pitch_bend_c, 3, 4410
1, 48953, Pitch_bend_c, 3, 0
1, 48959, Note_on_c, 11, 67, 0
1, 48964, Note_on_c, 11, 70, 123
1, 48982, Note_on_c, 4, 67, 110
1, 48992, Lyric_t, "\001"
1, 48992, Lyric_t, "\001"
1, 48992, Note_on_c, 1, 24, 127
1, 48992, Note_on_c, 3, 63, 127
1, 48992, Note_on_c, 9, 36, 127
1, 48992, Note_on_c, 9, 42, 72
1, 48993, Control_c, 6, 10, 84
1, 48997, Note_on_c, 11, 70, 0
1, 49004, Pitch_bend_c, 3, 8192
1, 49009, Note_on_c, 11, 67, 120
1, 49019, Note_on_c, 9, 36, 0
1, 49019, Note_on_c, 9, 42, 0
1, 49047, Note_on_c, 11, 67, 0
1, 49052, Note_on_c, 9, 44, 50
1, 49055, Note_on_c, 11, 70, 113
1, 49079, Note_on_c, 9, 44, 0
1, 49084, Note_on_c, 3, 63, 0
1, 49088, Note_on_c, 4, 67, 0
1, 49088, Note_on_c, 11, 70, 0
1, 49098, Note_on_c, 11, 67, 98
1, 49112, Note_on_c, 9, 38, 127
1, 49112, Note_on_c, 9, 42, 45
1, 49124, Note_on_c, 1, 24, 0
1, 49135, Note_on_c, 11, 67, 0
1, 49139, Note_on_c, 9, 38, 0
1, 49139, Note_on_c, 9, 42, 0
1, 49149, Note_on_c, 11, 70, 91
1, 49172, Note_on_c, 9, 44, 44
1, 49179, Note_on_c, 11, 70, 0
1, 49187, Note_on_c, 11, 67, 91
1, 49198, Pitch_bend_c, 12, 4410
1, 49199, Note_on_c, 9, 44, 0
1, 49218, Pitch_bend_c, 12, 0
1, 49228, Note_on_c, 11, 67, 0
1, 49229, Note_on_c, 12, 77, 98
1, 49232, Note_on_c, 9, 36, 121
1, 49232, Note_on_c, 9, 42, 65
1, 49233, Note_on_c, 12, 72, 90
1, 49239, Note_on_c, 11, 70, 84
1, 49259, Pitch_bend_c, 12, 3660
1, 49259, Note_on_c, 9, 36, 0
1, 49259, Note_on_c, 9, 42, 0
1, 49271, Note_on_c, 11, 70, 0
1, 49275, Note_on_c, 11, 67, 84
1, 49280, Pitch_bend_c, 12, 8192
1, 49292, Note_on_c, 9, 38, 93
1, 49292, Note_on_c, 9, 44, 45
1, 49318, Note_on_c, 11, 67, 0
1, 49319, Note_on_c, 9, 38, 0
1, 49319, Note_on_c, 9, 44, 0
1, 49327, Note_on_c, 11, 70, 74
1, 49349, Note_on_c, 15, 67, 0
1, 49349, Note_on_c, 15, 63, 0
1, 49352, Note_on_c, 1, 24, 127
1, 49352, Note_on_c, 9, 42, 45
1, 49353, Control_c, 6, 10, 44
1, 49358, Note_on_c, 11, 70, 0
1, 49363, Pitch_bend_c, 12, 4470
1, 49364, Note_on_c, 11, 67, 81
1, 49379, Note_on_c, 9, 42, 0
1, 49383, Pitch_bend_c, 12, 0
1, 49406, Note_on_c, 11, 67, 0
1, 49410, Note_on_c, 11, 70, 70
1, 49412, Note_on_c, 9, 44, 50
1, 49439, Note_on_c, 9, 44, 0
1, 49441, Note_on_c, 11, 70, 0
1, 49452, Note_on_c, 11, 67, 76
1, 49472, Note_on_c, 9, 38, 127
1, 49472, Note_on_c, 9, 42, 93
1, 49490, Note_on_c, 11, 67, 0
1, 49497, Note_on_c, 11, 70, 63
1, 49499, Note_on_c, 9, 38, 0
1, 49499, Note_on_c, 9, 42, 0
1, 49503, Note_on_c, 6, 63, 0
1, 49516, Note_on_c, 6, 60, 0
1, 49525, Note_on_c, 11, 70, 0
1, 49532, Note_on_c, 6, 67, 0
1, 49533, Note_on_c, 11, 67, 71
1, 49538, Control_c, 12, 1, 121
1, 49574, Note_on_c, 11, 67, 0
1, 49579, Control_c, 12, 1, 127
1, 49590, Note_on_c, 6, 56, 87
1, 49590, Note_on_c, 6, 60, 75
1, 49590, Note_on_c, 6, 64, 83
1, 49689, Note_on_c, 1, 24, 0
1, 49712, Note_on_c, 1, 27, 127
1, 49713, Control_c, 6, 10, 84
1, 49833, Note_on_c, 12, 72, 0
1, 49841, Note_on_c, 12, 77, 0
1, 49843, Note_on_c, 1, 27, 0
1, 49847, Lyric_t, "\001"
1, 49847, Note_on_c, 3, 60, 115
1, 49848, Control_c, 12, 1, 0
1, 49854, Note_on_c, 2, 75, 0
1, 49858, Pitch_bend_c, 12, 8192
1, 49869, Pitch_bend_c, 12, 4650
1, 49873, Note_on_c, 2, 51, 0
1, 49890, Pitch_bend_c, 12, 0
1, 49898, Note_on_c, 6, 60, 0
1, 49906, Note_on_c, 6, 64, 0
1, 49910, Note_on_c, 6, 56, 0
1, 49950, Note_on_c, 6, 63, 75
1, 49950, Note_on_c, 6, 67, 93
1, 49950, Note_on_c, 6, 70, 77
1, 49952, Note_on_c, 9, 36, 127
1, 49952, Note_on_c, 9, 44, 78
1, 49952, Note_on_c, 12, 89, 108
1, 49953, Note_on_c, 1, 29, 127
1, 49953, Control_c, 6, 10, 84
1, 49979, Note_on_c, 9, 36, 0
1, 49979, Note_on_c, 9, 44, 0
1, 49983, Pitch_bend_c, 12, 1500
1, 49992, Note_on_c, 3, 60, 0
1, 50003, Pitch_bend_c, 12, 4020
1, 50023, Pitch_bend_c, 12, 5820
1, 50044, Pitch_bend_c, 12, 8192
1, 50072, Note_on_c, 9, 42, 88
1, 50079, Lyric_t, "\001"
1, 50079, Note_on_c, 3, 63, 127
1, 50091, Note_on_c, 3, 63, 0
1, 50099, Note_on_c, 9, 42, 0
1, 50118, Note_on_c, 1, 29, 0
1, 50128, Note_on_c, 1, 36, 127
1, 50128, Pitch_bend_c, 12, 6690
1, 50132, Note_on_c, 12, 89, 0
1, 50142, Lyric_t, "\001"
1, 50142, Note_on_c, 3, 63, 127
1, 50148, Pitch_bend_c, 12, 2580
1, 50168, Pitch_bend_c, 12, 0
1, 50192, Note_on_c, 9, 44, 74
1, 50192, Note_on_c, 12, 89, 106
1, 50219, Note_on_c, 9, 44, 0
1, 50230, Pitch_bend_c, 12, 810
1, 50250, Pitch_bend_c, 12, 4530
1, 50272, Note_on_c, 1, 43, 127
1, 50272, Pitch_bend_c, 12, 4830
1, 50278, Pitch_bend_c, 1, 0
1, 50284, Note_on_c, 1, 36, 0
1, 50292, Pitch_bend_c, 12, 6480
1, 50295, Note_on_c, 3, 63, 0
1, 50307, Lyric_t, "\001"
1, 50307, Note_on_c, 3, 65, 115
1, 50313, Control_c, 6, 10, 44
1, 50313, Pitch_bend_c, 12, 8192
1, 50318, Pitch_bend_c, 1, 8192
1, 50334, Note_on_c, 3, 65, 0
1, 50363, Note_on_c, 12, 89, 0
1, 50384, Pitch_bend_c, 12, 3630
1, 50405, Pitch_bend_c, 12, 0
1, 50419, Pitch_bend_c, 1, 7920
1, 50432, Lyric_t, "\001"
1, 50432, Note_on_c, 3, 65, 127
1, 50432, Note_on_c, 9, 38, 127
1, 50432, Note_on_c, 9, 42, 100
1, 50432, Note_on_c, 12, 89, 78
1, 50440, Pitch_bend_c, 1, 0
1, 50459, Note_on_c, 9, 38, 0
1, 50459, Note_on_c, 9, 42, 0
1, 50478, Pitch_bend_c, 12, 2910
1, 50498, Pitch_bend_c, 12, 4860
1, 50518, Pitch_bend_c, 12, 4920
1, 50539, Pitch_bend_c, 12, 6300
1, 50549, Lyric_t, "\001"
1, 50549, Note_on_c, 3, 63, 117
1, 50554, Note_on_c, 3, 65, 0
1, 50559, Pitch_bend_c, 12, 6960
1, 50572, Note_on_c, 3, 63, 0
1, 50580, Pitch_bend_c, 12, 7020
1, 50593, Control_c, 1, 1, 16
1, 50602, Pitch_bend_c, 12, 7320
1, 50608, Note_on_c, 12, 89, 0
1, 50622, Pitch_bend_c, 12, 3840
1, 50623, Control_c, 1, 1, 98
1, 50642, Pitch_bend_c, 12, 0
1, 50653, Control_c, 1, 1, 84
1, 50670, Note_on_c, 9, 36, 65
1, 50672, Note_on_c, 9, 42, 73
1, 50672, Note_on_c, 12, 89, 82
1, 50673, Control_c, 6, 10, 84
1, 50677, Lyric_t, "\001"
1, 50677, Lyric_t, "\001"
1, 50677, Note_on_c, 3, 63, 127
1, 50694, Control_c, 1, 1, 77
1, 50697, Note_on_c, 9, 36, 0
1, 50699, Note_on_c, 9, 42, 0
1, 50714, Pitch_bend_c, 12, 2220
1, 50724, Control_c, 1, 1, 62
1, 50734, Pitch_bend_c, 12, 3030
1, 50754, Control_c, 1, 1, 127
1, 50755, Pitch_bend_c, 12, 3780
1, 50758, Note_on_c, 3, 63, 0
1, 50777, Pitch_bend_c, 12, 4770
1, 50788, Lyric_t, "\001"
1, 50788, Note_on_c, 3, 63, 125
1, 50797, Pitch_bend_c, 12, 5820
1, 50818, Pitch_bend_c, 12, 6570
1, 50827, Control_c, 1, 1, 0
1, 50829, Note_on_c, 1, 43, 0
1, 50838, Pitch_bend_c, 12, 6810
1, 50845, Pitch_bend_c, 1, 8192
1, 50849, Note_on_c, 12, 89, 0
1, 50858, Pitch_bend_c, 12, 6000
1, 50858, Note_on_c, 3, 63, 0
1, 50879, Pitch_bend_c, 12, 2010
1, 50908, Pitch_bend_c, 12, 60
1, 50912, Note_on_c, 9, 36, 127
1, 50912, Note_on_c, 9, 44, 78
1, 50912, Note_on_c, 10, 15, 94
1, 50912, Note_on_c, 12, 89, 69
1, 50913, Lyric_t, "\001"
1, 50913, Note_on_c, 3, 60, 127
1, 50939, Note_on_c, 9, 36, 0
1, 50939, Note_on_c, 9, 44, 0
1, 50939, Note_on_c, 10, 15, 0
1, 50952, Pitch_bend_c, 12, 960
1, 50972, Pitch_bend_c, 12, 3840
1, 50993, Pitch_bend_c, 12, 4560
1, 51013, Pitch_bend_c, 12, 5130
1, 51032, Note_on_c, 9, 42, 88
1, 51033, Control_c, 6, 10, 44
1, 51033, Pitch_bend_c, 12, 6660
1, 51054, Pitch_bend_c, 12, 7170
1, 51054, Note_on_c, 3, 60, 0
1, 51059, Note_on_c, 9, 42, 0
1, 51070, Lyric_t, "\001"
1, 51070, Note_on_c, 3, 63, 127
1, 51094, Note_on_c, 12, 89, 0
1, 51095, Pitch_bend_c, 12, 7230
1, 51115, Pitch_bend_c, 12, 4650
1, 51137, Pitch_bend_c, 12, 1290
1, 51143, Note_on_c, 3, 63, 0
1, 51152, Note_on_c, 5, 55, 72
1, 51152, Note_on_c, 9, 44, 74
1, 51152, Note_on_c, 12, 89, 58
1, 51155, Lyric_t, "\001"
1, 51155, Note_on_c, 3, 63, 126
1, 51158, Pitch_bend_c, 12, 210
1, 51164, Note_on_c, 5, 58, 72
1, 51178, Pitch_bend_c, 12, 180
1, 51179, Note_on_c, 9, 44, 0
1, 51198, Pitch_bend_c, 12, 2580
1, 51218, Pitch_bend_c, 12, 4230
1, 51239, Pitch_bend_c, 12, 4680
1, 51259, Pitch_bend_c, 12, 5820
1, 51265, Lyric_t, "\001"
1, 51265, Note_on_c, 3, 65, 127
1, 51270, Note_on_c, 6, 63, 78
1, 51270, Note_on_c, 6, 67, 79
1, 51272, Note_on_c, 5, 67, 72
1, 51277, Note_on_c, 5, 55, 0
1, 51278, Note_on_c, 3, 63, 0
1, 51280, Pitch_bend_c, 12, 6240
1, 51281, Note_on_c, 5, 58, 0
1, 51282, Note_on_c, 5, 70, 72
1, 51300, Pitch_bend_c, 12, 6300
1, 51322, Pitch_bend_c, 12, 6570
1, 51338, Note_on_c, 12, 89, 0
1, 51338, Note_on_c, 3, 65, 0
1, 51342, Pitch_bend_c, 12, 6000
1, 51363, Pitch_bend_c, 12, 4920
1, 51383, Pitch_bend_c, 12, 4980
1, 51384, Pitch_bend_c, 3, 0
1, 51392, Note_on_c, 9, 38, 127
1, 51392, Note_on_c, 9, 42, 100
1, 51393, Control_c, 6, 10, 84
1, 51397, Lyric_t, "\001"
1, 51397, Lyric_t, "\001"
1, 51397, Note_on_c, 3, 67, 127
1, 51403, Pitch_bend_c, 12, 7020
1, 51415, Pitch_bend_c, 3, 8192
1, 51419, Note_on_c, 9, 38, 0
1, 51419, Note_on_c, 9, 42, 0
1, 51424, Pitch_bend_c, 12, 8192
1, 51507, Pitch_bend_c, 3, 0
1, 51509, Note_on_c, 3, 67, 0
1, 51528, Pitch_bend_c, 3, 8192
1, 51548, Pitch_bend_c, 3, 8192
1, 51632, Note_on_c, 5, 67, 72
1, 51632, Note_on_c, 9, 42, 73
1, 51634, Note_on_c, 5, 70, 0
1, 51645, Note_on_c, 5, 63, 72
1, 51645, Note_on_c, 5, 67, 0
1, 51659, Note_on_c, 9, 42, 0
1, 51743, Note_on_c, 6, 63, 0
1, 51753, Note_on_c, 5, 63, 72
1, 51753, Control_c, 6, 10, 44
1, 51753, Note_on_c, 6, 67, 0
1, 51753, Note_on_c, 5, 63, 0
1, 51754, Note_on_c, 5, 67, 0
1, 51762, Note_on_c, 5, 58, 72
1, 51768, Note_on_c, 6, 70, 0
1, 51817, Note_on_c, 6, 67, 0
1, 51833, Note_on_c, 6, 63, 0
1, 51847, Pitch_bend_c, 3, 3690
1, 51867, Lyric_t, "\001"
1, 51867, Pitch_bend_c, 3, 2520
1, 51867, Note_on_c, 3, 60, 127
1, 51870, Note_on_c, 6, 60, 74
1, 51870, Note_on_c, 6, 63, 77
1, 51870, Note_on_c, 6, 67, 87
1, 51872, Note_on_c, 1, 29, 127
1, 51872, Note_on_c, 9, 36, 127
1, 51872, Note_on_c, 9, 44, 78
1, 51887, Pitch_bend_c, 3, 8192
1, 51899, Note_on_c, 9, 36, 0
1, 51899, Note_on_c, 9, 44, 0
1, 51992, Note_on_c, 9, 42, 88
1, 52019, Note_on_c, 9, 42, 0
1, 52039, Note_on_c, 3, 60, 0
1, 52077, Lyric_t, "\001"
1, 52077, Note_on_c, 3, 63, 127
1, 52112, Note_on_c, 9, 44, 74
1, 52113, Control_c, 6, 10, 84
1, 52139, Note_on_c, 9, 44, 0
1, 52189, Note_on_c, 3, 63, 0
1, 52245, Lyric_t, "\001"
1, 52245, Note_on_c, 3, 65, 127
1, 52278, Note_on_c, 3, 65, 0
1, 52294, Note_on_c, 1, 29, 0
1, 52350, Note_on_c, 11, 63, 96
1, 52350, Note_on_c, 11, 67, 117
1, 52350, Note_on_c, 11, 70, 103
1, 52352, Note_on_c, 1, 31, 127
1, 52352, Note_on_c, 9, 38, 127
1, 52352, Note_on_c, 9, 42, 100
1, 52363, Lyric_t, "\001"
1, 52363, Note_on_c, 3, 65, 127
1, 52379, Note_on_c, 9, 38, 0
1, 52379, Note_on_c, 9, 42, 0
1, 52384, Pitch_bend_c, 3, 14582
1, 52404, Pitch_bend_c, 3, 8192
1, 52473, Control_c, 6, 10, 44
1, 52483, Lyric_t, "\001"
1, 52483, Note_on_c, 3, 63, 127
1, 52484, Note_on_c, 3, 65, 0
1, 52494, Note_on_c, 1, 31, 0
1, 52501, Note_on_c, 11, 70, 0
1, 52502, Note_on_c, 11, 63, 0
1, 52510, Note_on_c, 11, 63, 101
1, 52510, Note_on_c, 11, 67, 102
1, 52510, Note_on_c, 11, 70, 102
1, 52513, Note_on_c, 11, 67, 0
1, 52523, Note_on_c, 3, 63, 0
1, 52592, Note_on_c, 9, 42, 73
1, 52615, Lyric_t, "\001"
1, 52615, Lyric_t, "\001"
1, 52615, Note_on_c, 3, 63, 123
1, 52619, Note_on_c, 9, 42, 0
1, 52636, Note_on_c, 11, 70, 0
1, 52645, Note_on_c, 11, 63, 0
1, 52655, Note_on_c, 11, 67, 0
1, 52670, Note_on_c, 11, 63, 92
1, 52670, Note_on_c, 11, 67, 92
1, 52670, Note_on_c, 11, 70, 92
1, 52693, Note_on_c, 3, 63, 0
1, 52713, Note_on_c, 5, 63, 0
1, 52725, Lyric_t, "\001"
1, 52725, Note_on_c, 3, 63, 126
1, 52748, Note_on_c, 3, 63, 0
1, 52793, Note_on_c, 11, 70, 0
1, 52799, Note_on_c, 5, 58, 0
1, 52800, Note_on_c, 11, 67, 0
1, 52805, Pitch_bend_c, 3, 3840
1, 52812, Note_on_c, 11, 63, 0
1, 52822, Lyric_t, "\001"
1, 52822, Note_on_c, 3, 58, 127
1, 52830, Note_on_c, 11, 63, 83
1, 52830, Note_on_c, 11, 67, 84
1, 52830, Note_on_c, 11, 70, 84
1, 52832, Note_on_c, 9, 36, 127
1, 52832, Note_on_c, 9, 44, 78
1, 52833, Control_c, 6, 10, 84
1, 52835, Pitch_bend_c, 3, 570
1, 52857, Pitch_bend_c, 3, 8192
1, 52859, Note_on_c, 9, 36, 0
1, 52859, Note_on_c, 9, 44, 0
1, 52952, Note_on_c, 9, 42, 88
1, 52963, Note_on_c, 11, 70, 0
1, 52965, Note_on_c, 11, 63, 0
1, 52977, Note_on_c, 3, 58, 0
1, 52979, Note_on_c, 9, 42, 0
1, 52983, Note_on_c, 11, 67, 0
1, 52990, Note_on_c, 11, 63, 75
1, 52990, Note_on_c, 11, 67, 75
1, 52990, Note_on_c, 11, 70, 75
1, 52999, Lyric_t, "\001"
1, 52999, Note_on_c, 3, 56, 126
1, 53072, Note_on_c, 1, 22, 127
1, 53072, Note_on_c, 9, 36, 127
1, 53072, Note_on_c, 9, 44, 74
1, 53091, Note_on_c, 6, 60, 0
1, 53099, Note_on_c, 9, 36, 0
1, 53099, Note_on_c, 9, 44, 0
1, 53103, Note_on_c, 6, 67, 0
1, 53108, Note_on_c, 6, 63, 0
1, 53130, Pitch_bend_c, 3, 16082
1, 53132, Note_on_c, 11, 63, 0
1, 53137, Note_on_c, 11, 70, 0
1, 53146, Note_on_c, 11, 67, 0
1, 53150, Pitch_bend_c, 3, 8192
1, 53150, Note_on_c, 11, 63, 66
1, 53150, Note_on_c, 11, 67, 66
1, 53150, Note_on_c, 11, 70, 66
1, 53167, Note_on_c, 3, 56, 0
1, 53170, Lyric_t, "\001"
1, 53170, Note_on_c, 3, 55, 127
1, 53193, Control_c, 6, 10, 44
1, 53278, Note_on_c, 1, 22, 0
1, 53295, Note_on_c, 11, 63, 0
1, 53295, Note_on_c, 3, 55, 0
1, 53297, Note_on_c, 11, 70, 0
1, 53300, Note_on_c, 5, 63, 73
1, 53303, Note_on_c, 5, 60, 81
1, 53303, Note_on_c, 11, 67, 0
1, 53310, Note_on_c, 6, 60, 81
1, 53310, Note_on_c, 6, 63, 75
1, 53310, Note_on_c, 11, 63, 57
1, 53310, Note_on_c, 11, 67, 58
1, 53310, Note_on_c, 11, 70, 58
1, 53312, Lyric_t, "\001"
1, 53312, Lyric_t, "\001"
1, 53312, Note_on_c, 1, 24, 127
1, 53312, Note_on_c, 3, 63, 125
1, 53312, Note_on_c, 9, 34, 115
1, 53312, Note_on_c, 9, 36, 127
1, 53312, Note_on_c, 9, 38, 127
1, 53312, Note_on_c, 9, 42, 100
1, 53328, Pitch_bend_c, 3, 0
1, 53333, Pitch_bend_c, 9, 6210
1, 53339, Note_on_c, 9, 34, 0
1, 53339, Note_on_c, 9, 36, 0
1, 53339, Note_on_c, 9, 38, 0
1, 53339, Note_on_c, 9, 42, 0
1, 53353, Pitch_bend_c, 9, 8192
1, 53358, Pitch_bend_c, 3, 8192
1, 53430, Note_on_c, 6, 62, 81
1, 53430, Note_on_c, 6, 65, 70
1, 53431, Note_on_c, 6, 63, 0
1, 53433, Note_on_c, 5, 63, 0
1, 53438, Note_on_c, 5, 65, 79
1, 53444, Note_on_c, 5, 62, 69
1, 53444, Note_on_c, 5, 60, 0
1, 53448, Note_on_c, 11, 63, 0
1, 53457, Note_on_c, 11, 70, 0
1, 53460, Note_on_c, 6, 60, 0
1, 53461, Note_on_c, 11, 67, 0
1, 53462, Note_on_c, 1, 24, 0
1, 53470, Note_on_c, 11, 63, 48
1, 53470, Note_on_c, 11, 67, 48
1, 53470, Note_on_c, 11, 70, 49
1, 53539, Note_on_c, 5, 65, 0
1, 53540, Note_on_c, 6, 65, 0
1, 53550, Note_on_c, 5, 67, 74
1, 53550, Note_on_c, 6, 63, 79
1, 53550, Note_on_c, 6, 67, 83
1, 53552, Note_on_c, 9, 42, 73
1, 53553, Control_c, 6, 10, 84
1, 53559, Note_on_c, 5, 62, 0
1, 53560, Note_on_c, 5, 63, 80
1, 53562, Note_on_c, 3, 63, 0
1, 53572, Note_on_c, 6, 62, 0
1, 53579, Note_on_c, 9, 42, 0
1, 53613, Note_on_c, 11, 67, 0
1, 53617, Note_on_c, 11, 63, 0
1, 53628, Note_on_c, 11, 70, 0
1, 53630, Note_on_c, 11, 63, 39
1, 53630, Note_on_c, 11, 67, 40
1, 53630, Note_on_c, 11, 70, 39
1, 53679, Lyric_t, "\001"
1, 53679, Note_on_c, 3, 63, 123
1, 53741, Note_on_c, 3, 63, 0
1, 53746, Note_on_c, 11, 70, 0
1, 53748, Note_on_c, 6, 63, 0
1, 53753, Note_on_c, 11, 63, 0
1, 53755, Pitch_bend_c, 9, 0
1, 53756, Note_on_c, 11, 67, 0
1, 53763, Note_on_c, 6, 67, 0
1, 53766, Note_on_c, 5, 67, 0
1, 53773, Note_on_c, 5, 65, 84
1, 53773, Note_on_c, 5, 63, 0
1, 53777, Note_on_c, 5, 62, 91
1, 53789, Pitch_bend_c, 3, 16383
1, 53790, Note_on_c, 6, 60, 74
1, 53790, Note_on_c, 6, 65, 86
1, 53792, Lyric_t, "\001"
1, 53792, Note_on_c, 1, 31, 127
1, 53792, Note_on_c, 3, 62, 127
1, 53792, Note_on_c, 9, 36, 127
1, 53792, Note_on_c, 9, 44, 78
1, 53809, Pitch_bend_c, 3, 16172
1, 53819, Note_on_c, 9, 36, 0
1, 53819, Note_on_c, 9, 44, 0
1, 53829, Pitch_bend_c, 3, 8192
1, 53912, Note_on_c, 9, 42, 88
1, 53913, Control_c, 6, 10, 44
1, 53923, Note_on_c, 3, 62, 0
1, 53939, Note_on_c, 9, 42, 0
1, 53948, Lyric_t, "\001"
1, 53948, Note_on_c, 3, 60, 124
1, 54005, Lyric_t, "\001"
1, 54005, Note_on_c, 3, 60, 125
1, 54019, Note_on_c, 3, 60, 0
1, 54032, Note_on_c, 9, 44, 74
1, 54059, Note_on_c, 9, 44, 0
1, 54121, Note_on_c, 3, 60, 0
1, 54130, Note_on_c, 5, 58, 85
1, 54134, Note_on_c, 5, 65, 0
1, 54143, Lyric_t, "\001"
1, 54143, Note_on_c, 3, 60, 124
1, 54150, Note_on_c, 6, 50, 75
1, 54150, Note_on_c, 6, 58, 63
1, 54214, Note_on_c, 3, 60, 0
1, 54245, Pitch_bend_c, 3, 16383
1, 54257, Lyric_t, "\001"
1, 54257, Note_on_c, 3, 60, 127
1, 54258, Note_on_c, 1, 31, 0
1, 54265, Pitch_bend_c, 3, 15782
1, 54272, Note_on_c, 1, 34, 127
1, 54272, Note_on_c, 9, 38, 127
1, 54272, Note_on_c, 9, 42, 100
1, 54273, Control_c, 6, 10, 84
1, 54287, Pitch_bend_c, 3, 8192
1, 54299, Note_on_c, 9, 38, 0
1, 54299, Note_on_c, 9, 42, 0
1, 54374, Note_on_c, 3, 60, 0
1, 54377, Lyric_t, "\001"
1, 54377, Note_on_c, 3, 58, 112
1, 54384, Note_on_c, 1, 34, 0
1, 54432, Note_on_c, 3, 58, 0
1, 54489, Note_on_c, 5, 62, 0
1, 54510, Lyric_t, "\001"
1, 54510, Lyric_t, "\001"
1, 54510, Note_on_c, 3, 58, 127
1, 54510, Note_on_c, 9, 36, 65
1, 54512, Note_on_c, 5, 53, 80
1, 54512, Note_on_c, 9, 42, 73
1, 54512, Note_on_c, 10, 15, 94
1, 54537, Note_on_c, 9, 36, 0
1, 54539, Note_on_c, 9, 42, 0
1, 54539, Note_on_c, 10, 15, 0
1, 54617, Note_on_c, 3, 58, 0
1, 54622, Lyric_t, "\001"
1, 54622, Note_on_c, 3, 60, 127
1, 54633, Control_c, 6, 10, 44
1, 54644, Note_on_c, 3, 60, 0
1, 54699, Pitch_bend_c, 3, 7590
1, 54719, Pitch_bend_c, 3, 0
1, 54735, Lyric_t, "\001"
1, 54735, Note_on_c, 3, 62, 127
1, 54739, Pitch_bend_c, 3, 420
1, 54752, Note_on_c, 9, 42, 37
1, 54752, Note_on_c, 9, 70, 49
1, 54760, Pitch_bend_c, 3, 8192
1, 54779, Note_on_c, 9, 42, 0
1, 54779, Note_on_c, 9, 70, 0
1, 54812, Note_on_c, 9, 44, 35
1, 54839, Note_on_c, 9, 44, 0
1, 54862, Lyric_t, "\001"
1, 54862, Note_on_c, 3, 62, 127
1, 54872, Note_on_c, 9, 42, 9
1, 54883, Note_on_c, 3, 62, 0
1, 54899, Note_on_c, 9, 42, 0
1, 54902, Note_on_c, 3, 62, 0
1, 54924, Lyric_t, "\001"
1, 54924, Note_on_c, 3, 60, 118
1, 54932, Note_on_c, 9, 44, 27
1, 54959, Note_on_c, 9, 44, 0
1, 54992, Note_on_c, 9, 42, 57
1, 54992, Note_on_c, 9, 70, 33
1, 54993, Control_c, 6, 10, 84
1, 55019, Note_on_c, 9, 42, 0
1, 55019, Note_on_c, 9, 70, 0
1, 55064, Note_on_c, 3, 60, 0
1, 55100, Lyric_t, "\001"
1, 55100, Note_on_c, 3, 58, 107
1, 55102, Note_on_c, 5, 53, 83
1, 55112, Note_on_c, 1, 22, 127
1, 55112, Note_on_c, 9, 44, 27
1, 55116, Note_on_c, 6, 60, 0
1, 55118, Note_on_c, 6, 65, 0
1, 55130, Note_on_c, 5, 53, 0
1, 55133, Note_on_c, 5, 58, 0
1, 55139, Note_on_c, 9, 44, 0
1, 55178, Note_on_c, 3, 58, 0
1, 55215, Lyric_t, "\001"
1, 55215, Lyric_t, "\001"
1, 55215, Note_on_c, 3, 60, 126
1, 55217, Pitch_bend_c, 3, 0
1, 55224, Pitch_bend_c, 5, 12302
1, 55229, Note_on_c, 1, 22, 0
1, 55232, Note_on_c, 1, 24, 127
1, 55232, Note_on_c, 9, 42, 30
1, 55232, Note_on_c, 9, 70, 53
1, 55245, Pitch_bend_c, 5, 16383
1, 55247, Pitch_bend_c, 3, 8192
1, 55259, Note_on_c, 9, 42, 0
1, 55259, Note_on_c, 9, 70, 0
1, 55318, Pitch_bend_c, 3, 4440
1, 55338, Pitch_bend_c, 3, 0
1, 55340, Note_on_c, 3, 60, 0
1, 55350, Note_on_c, 6, 53, 70
1, 55350, Note_on_c, 6, 56, 49
1, 55350, Note_on_c, 6, 58, 60
1, 55350, Note_on_c, 6, 62, 62
1, 55353, Control_c, 6, 10, 44
1, 55368, Pitch_bend_c, 3, 8192
1, 55392, Note_on_c, 1, 24, 0
1, 55429, Note_on_c, 5, 53, 0
1, 55440, Pitch_bend_c, 5, 15902
1, 55462, Pitch_bend_c, 5, 8192
1, 55467, Note_on_c, 5, 65, 92
1, 55472, Note_on_c, 9, 44, 9
1, 55499, Note_on_c, 9, 44, 0
1, 55501, Note_on_c, 6, 58, 0
1, 55510, Note_on_c, 6, 50, 0
1, 55600, Lyric_t, "\001"
1, 55600, Note_on_c, 3, 58, 127
1, 55605, Pitch_bend_c, 5, 0
1, 55617, Note_on_c, 3, 58, 0
1, 55658, Note_on_c, 6, 62, 0
1, 55668, Note_on_c, 6, 58, 0
1, 55673, Note_on_c, 6, 53, 0
1, 55675, Note_on_c, 6, 56, 0
1, 55699, Pitch_bend_c, 3, 0
1, 55708, Lyric_t, "\001"
1, 55708, Note_on_c, 3, 67, 127
1, 55710, Note_on_c, 6, 60, 78
1, 55710, Note_on_c, 6, 63, 81
1, 55710, Note_on_c, 6, 67, 84
1, 55712, Note_on_c, 1, 29, 127
1, 55712, Note_on_c, 9, 36, 127
1, 55712, Note_on_c, 9, 44, 78
1, 55713, Control_c, 6, 10, 84
1, 55739, Note_on_c, 9, 36, 0
1, 55739, Note_on_c, 9, 44, 0
1, 55742, Pitch_bend_c, 3, 8192
1, 55832, Note_on_c, 9, 42, 88
1, 55853, Control_c, 5, 1, 4
1, 55859, Note_on_c, 9, 42, 0
1, 55871, Note_on_c, 3, 67, 0
1, 55883, Control_c, 5, 1, 39
1, 55905, Lyric_t, "\001"
1, 55905, Note_on_c, 3, 67, 127
1, 55915, Control_c, 5, 1, 101
1, 55945, Control_c, 5, 1, 118
1, 55952, Note_on_c, 9, 44, 74
1, 55977, Control_c, 5, 1, 125
1, 55979, Note_on_c, 9, 44, 0
1, 56035, Note_on_c, 3, 67, 0
1, 56049, Control_c, 5, 1, 127
1, 56073, Control_c, 6, 10, 44
1, 56079, Lyric_t, "\001"
1, 56079, Note_on_c, 3, 67, 127
1, 56112, Control_c, 5, 1, 125
1, 56121, Note_on_c, 3, 67, 0
1, 56142, Control_c, 5, 1, 0
1, 56154, Note_on_c, 5, 65, 0
1, 56172, Note_on_c, 1, 29, 0
1, 56173, Pitch_bend_c, 5, 8192
1, 56182, Lyric_t, "\001"
1, 56182, Note_on_c, 3, 67, 127
1, 56190, Note_on_c, 11, 63, 102
1, 56190, Note_on_c, 11, 67, 123
1, 56190, Note_on_c, 11, 70, 109
1, 56192, Note_on_c, 1, 31, 127
1, 56192, Note_on_c, 9, 36, 127
1, 56192, Note_on_c, 9, 38, 127
1, 56192, Note_on_c, 9, 42, 100
1, 56193, Pitch_bend_c, 5, 8192
1, 56197, Pitch_bend_c, 3, 0
1, 56219, Note_on_c, 9, 36, 0
1, 56219, Note_on_c, 9, 38, 0
1, 56219, Note_on_c, 9, 42, 0
1, 56310, Lyric_t, "\001"
1, 56310, Lyric_t, "\001"
1, 56310, Note_on_c, 3, 63, 127
1, 56318, Note_on_c, 3, 67, 0
1, 56329, Pitch_bend_c, 3, 8192
1, 56335, Note_on_c, 3, 63, 0
1, 56337, Note_on_c, 1, 31, 0
1, 56341, Note_on_c, 11, 70, 0
1, 56342, Note_on_c, 11, 63, 0
1, 56350, Note_on_c, 11, 63, 107
1, 56350, Note_on_c, 11, 67, 108
1, 56350, Note_on_c, 11, 70, 108
1, 56353, Note_on_c, 11, 67, 0
1, 56432, Note_on_c, 9, 42, 73
1, 56433, Control_c, 6, 10, 84
1, 56437, Lyric_t, "\001"
1, 56437, Note_on_c, 3, 63, 127
1, 56459, Note_on_c, 9, 42, 0
1, 56476, Note_on_c, 11, 70, 0
1, 56483, Note_on_c, 3, 63, 0
1, 56485, Note_on_c, 11, 63, 0
1, 56495, Note_on_c, 11, 67, 0
1, 56510, Note_on_c, 11, 63, 98
1, 56510, Note_on_c, 11, 67, 98
1, 56510, Note_on_c, 11, 70, 98
1, 56552, Lyric_t, "\001"
1, 56552, Note_on_c, 3, 63, 127
1, 56575, Note_on_c, 3, 63, 0
1, 56633, Note_on_c, 11, 70, 0
1, 56640, Note_on_c, 11, 67, 0
1, 56647, Pitch_bend_c, 3, 0
1, 56652, Note_on_c, 11, 63, 0
1, 56660, Lyric_t, "\001"
1, 56660, Note_on_c, 3, 60, 127
1, 56670, Note_on_c, 11, 63, 89
1, 56670, Note_on_c, 11, 67, 90
1, 56670, Note_on_c, 11, 70, 90
1, 56672, Note_on_c, 1, 24, 127
1, 56672, Note_on_c, 9, 36, 127
1, 56672, Note_on_c, 9, 44, 78
1, 56688, Pitch_bend_c, 3, 8192
1, 56699, Note_on_c, 9, 36, 0
1, 56699, Note_on_c, 9, 44, 0
1, 56777, Lyric_t, "\001"
1, 56777, Note_on_c, 3, 60, 127
1, 56792, Note_on_c, 9, 38, 92
1, 56792, Note_on_c, 9, 42, 88
1, 56793, Control_c, 6, 10, 44
1, 56800, Note_on_c, 3, 60, 0
1, 56803, Note_on_c, 11, 70, 0
1, 56805, Note_on_c, 11, 63, 0
1, 56819, Note_on_c, 3, 60, 0
1, 56819, Note_on_c, 9, 38, 0
1, 56819, Note_on_c, 9, 42, 0
1, 56823, Note_on_c, 11, 67, 0
1, 56829, Note_on_c, 1, 24, 0
1, 56830, Note_on_c, 11, 63, 81
1, 56830, Note_on_c, 11, 67, 81
1, 56830, Note_on_c, 11, 70, 81
1, 56857, Lyric_t, "\001"
1, 56857, Note_on_c, 3, 63, 127
1, 56878, Pitch_bend_c, 12, 4410
1, 56898, Pitch_bend_c, 12, 0
1, 56909, Note_on_c, 12, 77, 88
1, 56912, Note_on_c, 9, 36, 127
1, 56912, Note_on_c, 9, 44, 74
1, 56913, Note_on_c, 12, 72, 80
1, 56939, Pitch_bend_c, 12, 3660
1, 56939, Note_on_c, 9, 36, 0
1, 56939, Note_on_c, 9, 44, 0
1, 56960, Pitch_bend_c, 12, 8192
1, 56967, Note_on_c, 3, 63, 0
1, 56972, Note_on_c, 11, 63, 0
1, 56977, Note_on_c, 11, 70, 0
1, 56986, Note_on_c, 11, 67, 0
1, 56990, Note_on_c, 11, 63, 72
1, 56990, Note_on_c, 11, 67, 72
1, 56990, Note_on_c, 11, 70, 72
1, 57027, Lyric_t, "\001"
1, 57027, Note_on_c, 3, 65, 127
1, 57032, Note_on_c, 1, 24, 127
1, 57043, Pitch_bend_c, 12, 4470
1, 57055, Note_on_c, 6, 67, 0
1, 57056, Note_on_c, 6, 63, 0
1, 57063, Pitch_bend_c, 12, 0
1, 57067, Note_on_c, 6, 60, 0
1, 57092, Note_on_c, 3, 65, 0
1, 57135, Note_on_c, 11, 63, 0
1, 57137, Note_on_c, 11, 70, 0
1, 57143, Pitch_bend_c, 3, 0
1, 57143, Note_on_c, 11, 67, 0
1, 57150, Note_on_c, 6, 60, 70
1, 57150, Note_on_c, 6, 64, 74
1, 57150, Note_on_c, 6, 68, 67
1, 57150, Note_on_c, 11, 63, 63
1, 57150, Note_on_c, 11, 67, 64
1, 57150, Note_on_c, 11, 70, 64
1, 57152, Lyric_t, "\001"
1, 57152, Lyric_t, "\001"
1, 57152, Note_on_c, 3, 67, 127
1, 57152, Note_on_c, 9, 38, 127
1, 57152, Note_on_c, 9, 42, 100
1, 57153, Control_c, 6, 10, 84
1, 57175, Pitch_bend_c, 3, 1950
1, 57179, Note_on_c, 9, 38, 0
1, 57179, Note_on_c, 9, 42, 0
1, 57195, Pitch_bend_c, 3, 8192
1, 57218, Control_c, 12, 1, 121
1, 57259, Control_c, 12, 1, 127
1, 57288, Note_on_c, 11, 63, 0
1, 57297, Note_on_c, 11, 70, 0
1, 57301, Note_on_c, 11, 67, 0
1, 57310, Note_on_c, 11, 63, 54
1, 57310, Note_on_c, 11, 67, 54
1, 57310, Note_on_c, 11, 70, 55
1, 57328, Pitch_bend_c, 3, 5160
1, 57334, Note_on_c, 3, 67, 0
1, 57348, Pitch_bend_c, 3, 0
1, 57350, Note_on_c, 1, 24, 0
1, 57392, Note_on_c, 1, 27, 127
1, 57392, Note_on_c, 9, 42, 73
1, 57408, Pitch_bend_c, 3, 8192
1, 57419, Note_on_c, 9, 42, 0
1, 57453, Note_on_c, 11, 67, 0
1, 57457, Note_on_c, 11, 63, 0
1, 57468, Note_on_c, 11, 70, 0
1, 57470, Note_on_c, 11, 63, 45
1, 57470, Note_on_c, 11, 67, 46
1, 57470, Note_on_c, 11, 70, 45
1, 57504, Note_on_c, 1, 27, 0
1, 57513, Control_c, 6, 10, 44
1, 57513, Note_on_c, 12, 72, 0
1, 57521, Note_on_c, 12, 77, 0
1, 57528, Control_c, 12, 1, 0
1, 57538, Pitch_bend_c, 12, 8192
1, 57549, Pitch_bend_c, 12, 4650
1, 57570, Pitch_bend_c, 12, 0
1, 57573, Note_on_c, 6, 60, 0
1, 57586, Note_on_c, 11, 70, 0
1, 57588, Note_on_c, 6, 64, 0
1, 57588, Note_on_c, 6, 68, 0
1, 57593, Note_on_c, 11, 63, 0
1, 57596, Note_on_c, 11, 67, 0
1, 57618, Pitch_bend_c, 3, 0
1, 57630, Note_on_c, 6, 63, 66
1, 57630, Note_on_c, 6, 67, 88
1, 57630, Note_on_c, 6, 70, 65
1, 57632, Lyric_t, "\001"
1, 57632, Note_on_c, 1, 29, 127
1, 57632, Note_on_c, 3, 60, 127
1, 57632, Note_on_c, 9, 36, 127
1, 57632, Note_on_c, 9, 44, 78
1, 57632, Note_on_c, 12, 89, 112
1, 57658, Pitch_bend_c, 3, 8192
1, 57659, Note_on_c, 9, 36, 0
1, 57659, Note_on_c, 9, 44, 0
1, 57663, Pitch_bend_c, 12, 1500
1, 57683, Pitch_bend_c, 12, 4020
1, 57703, Pitch_bend_c, 12, 5820
1, 57724, Pitch_bend_c, 12, 8192
1, 57752, Note_on_c, 9, 42, 88
1, 57777, Note_on_c, 3, 60, 0
1, 57779, Note_on_c, 9, 42, 0
1, 57808, Pitch_bend_c, 12, 6690
1, 57812, Lyric_t, "\001"
1, 57812, Note_on_c, 3, 63, 127
1, 57812, Note_on_c, 12, 89, 0
1, 57828, Pitch_bend_c, 12, 2580
1, 57848, Pitch_bend_c, 12, 0
1, 57872, Note_on_c, 9, 44, 74
1, 57872, Note_on_c, 12, 89, 110
1, 57873, Control_c, 6, 10, 84
1, 57874, Lyric_t, "\001"
1, 57874, Note_on_c, 3, 63, 127
1, 57877, Note_on_c, 3, 63, 0
1, 57899, Note_on_c, 9, 44, 0
1, 57910, Pitch_bend_c, 12, 810
1, 57930, Pitch_bend_c, 12, 4530
1, 57952, Pitch_bend_c, 12, 4830
1, 57972, Pitch_bend_c, 12, 6480
1, 57992, Lyric_t, "\001"
1, 57992, Note_on_c, 3, 65, 127
1, 57993, Pitch_bend_c, 12, 8192
1, 57994, Note_on_c, 3, 63, 0
1, 58043, Note_on_c, 12, 89, 0
1, 58057, Note_on_c, 3, 65, 0
1, 58064, Pitch_bend_c, 12, 3630
1, 58078, Note_on_c, 1, 29, 0
1, 58085, Pitch_bend_c, 12, 0
1, 58110, Pitch_bend_c, 3, 0
1, 58112, Note_on_c, 1, 31, 127
1, 58112, Note_on_c, 9, 38, 127
1, 58112, Note_on_c, 9, 42, 100
1, 58112, Note_on_c, 12, 89, 82
1, 58118, Lyric_t, "\001"
1, 58118, Note_on_c, 3, 67, 127
1, 58139, Note_on_c, 9, 38, 0
1, 58139, Note_on_c, 9, 42, 0
1, 58143, Pitch_bend_c, 3, 8192
1, 58158, Pitch_bend_c, 12, 2910
1, 58178, Pitch_bend_c, 12, 4860
1, 58198, Pitch_bend_c, 12, 4920
1, 58219, Pitch_bend_c, 12, 6300
1, 58233, Control_c, 6, 10, 44
1, 58239, Pitch_bend_c, 12, 6960
1, 58244, Note_on_c, 3, 67, 0
1, 58250, Lyric_t, "\001"
1, 58250, Note_on_c, 3, 65, 127
1, 58250, Note_on_c, 1, 31, 0
1, 58260, Pitch_bend_c, 12, 7020
1, 58281, Note_on_c, 3, 65, 0
1, 58282, Pitch_bend_c, 12, 7320
1, 58288, Note_on_c, 12, 89, 0
1, 58302, Pitch_bend_c, 12, 3840
1, 58322, Pitch_bend_c, 12, 0
1, 58350, Note_on_c, 9, 36, 65
1, 58352, Note_on_c, 9, 42, 73
1, 58352, Note_on_c, 10, 15, 94
1, 58352, Note_on_c, 12, 89, 86
1, 58368, Lyric_t, "\001"
1, 58368, Note_on_c, 3, 65, 127
1, 58377, Note_on_c, 9, 36, 0
1, 58379, Note_on_c, 9, 42, 0
1, 58379, Note_on_c, 10, 15, 0
1, 58394, Pitch_bend_c, 12, 2220
1, 58414, Pitch_bend_c, 12, 3030
1, 58429, Note_on_c, 3, 65, 0
1, 58435, Pitch_bend_c, 12, 3780
1, 58457, Pitch_bend_c, 12, 4770
1, 58477, Lyric_t, "\001"
1, 58477, Lyric_t, "\001"
1, 58477, Note_on_c, 3, 63, 127
1, 58477, Pitch_bend_c, 12, 5820
1, 58498, Pitch_bend_c, 12, 6570
1, 58518, Pitch_bend_c, 12, 6810
1, 58529, Note_on_c, 12, 89, 0
1, 58538, Pitch_bend_c, 12, 6000
1, 58539, Note_on_c, 3, 63, 0
1, 58559, Pitch_bend_c, 12, 2010
1, 58588, Pitch_bend_c, 12, 60
1, 58592, Note_on_c, 9, 36, 127
1, 58592, Note_on_c, 9, 44, 78
1, 58592, Note_on_c, 12, 89, 73
1, 58593, Control_c, 6, 10, 84
1, 58599, Pitch_bend_c, 3, 0
1, 58605, Lyric_t, "\001"
1, 58605, Note_on_c, 3, 60, 127
1, 58619, Note_on_c, 9, 36, 0
1, 58619, Note_on_c, 9, 44, 0
1, 58632, Pitch_bend_c, 12, 960
1, 58639, Pitch_bend_c, 3, 8192
1, 58652, Pitch_bend_c, 12, 3840
1, 58673, Pitch_bend_c, 12, 4560
1, 58693, Pitch_bend_c, 12, 5130
1, 58712, Note_on_c, 9, 42, 88
1, 58713, Pitch_bend_c, 12, 6660
1, 58734, Pitch_bend_c, 12, 7170
1, 58739, Note_on_c, 9, 42, 0
1, 58746, Note_on_c, 3, 60, 0
1, 58772, Lyric_t, "\001"
1, 58772, Note_on_c, 3, 63, 127
1, 58774, Note_on_c, 12, 89, 0
1, 58775, Pitch_bend_c, 12, 7230
1, 58795, Pitch_bend_c, 12, 4650
1, 58817, Pitch_bend_c, 12, 1290
1, 58832, Note_on_c, 5, 55, 72
1, 58832, Note_on_c, 9, 44, 74
1, 58832, Note_on_c, 12, 89, 62
1, 58838, Pitch_bend_c, 12, 210
1, 58844, Note_on_c, 5, 58, 72
1, 58858, Pitch_bend_c, 12, 180
1, 58859, Note_on_c, 9, 44, 0
1, 58869, Note_on_c, 3, 63, 0
1, 58878, Pitch_bend_c, 12, 2580
1, 58898, Pitch_bend_c, 12, 4230
1, 58919, Pitch_bend_c, 12, 4680
1, 58928, Lyric_t, "\001"
1, 58928, Note_on_c, 3, 65, 127
1, 58939, Pitch_bend_c, 12, 5820
1, 58952, Note_on_c, 1, 24, 127
1, 58952, Note_on_c, 5, 67, 72
1, 58953, Control_c, 6, 10, 44
1, 58957, Note_on_c, 5, 55, 0
1, 58960, Pitch_bend_c, 12, 6240
1, 58961, Note_on_c, 5, 58, 0
1, 58962, Note_on_c, 5, 70, 72
1, 58980, Pitch_bend_c, 12, 6300
1, 58990, Note_on_c, 3, 65, 0
1, 59002, Pitch_bend_c, 12, 6570
1, 59018, Note_on_c, 12, 89, 0
1, 59022, Pitch_bend_c, 12, 6000
1, 59035, Pitch_bend_c, 3, 0
1, 59043, Pitch_bend_c, 12, 4920
1, 59055, Lyric_t, "\001"
1, 59055, Lyric_t, "\001"
1, 59055, Note_on_c, 3, 67, 127
1, 59063, Pitch_bend_c, 12, 4980
1, 59065, Pitch_bend_c, 3, 270
1, 59069, Note_on_c, 1, 24, 0
1, 59072, Note_on_c, 1, 27, 127
1, 59072, Note_on_c, 9, 38, 127
1, 59072, Note_on_c, 9, 42, 100
1, 59075, Note_on_c, 6, 63, 0
1, 59083, Pitch_bend_c, 12, 7020
1, 59085, Pitch_bend_c, 3, 8192
1, 59095, Note_on_c, 6, 67, 0
1, 59098, Note_on_c, 6, 70, 0
1, 59099, Note_on_c, 9, 38, 0
1, 59099, Note_on_c, 9, 42, 0
1, 59104, Pitch_bend_c, 12, 8192
1, 59190, Note_on_c, 6, 67, 85
1, 59190, Note_on_c, 6, 70, 71
1, 59222, Note_on_c, 3, 67, 0
1, 59222, Note_on_c, 1, 27, 0
1, 59228, Note_on_c, 3, 65, 127
1, 59312, Note_on_c, 5, 67, 72
1, 59312, Note_on_c, 9, 42, 73
1, 59313, Control_c, 6, 10, 84
1, 59314, Note_on_c, 5, 70, 0
1, 59325, Note_on_c, 5, 63, 72
1, 59325, Note_on_c, 5, 67, 0
1, 59339, Note_on_c, 9, 42, 0
1, 59359, Pitch_bend_c, 3, 6480
1, 59375, Note_on_c, 3, 65, 0
1, 59379, Pitch_bend_c, 3, 0
1, 59410, Pitch_bend_c, 3, 8492
1, 59430, Pitch_bend_c, 3, 8192
1, 59433, Note_on_c, 5, 63, 72
1, 59433, Note_on_c, 5, 63, 0
1, 59434, Note_on_c, 5, 67, 0
1, 59442, Note_on_c, 5, 58, 72
1, 59483, Pitch_bend_c, 3, 7290
1, 59503, Pitch_bend_c, 3, 0
1, 59507, Note_on_c, 6, 67, 0
1, 59507, Note_on_c, 6, 70, 0
1, 59519, Lyric_t, "\001"
1, 59519, Note_on_c, 3, 60, 127
1, 59543, Pitch_bend_c, 3, 8192
1, 59550, Note_on_c, 6, 63, 72
1, 59550, Note_on_c, 6, 67, 91
1, 59550, Note_on_c, 6, 70, 73
1, 59552, Note_on_c, 1, 29, 127
1, 59552, Note_on_c, 9, 36, 127
1, 59552, Note_on_c, 9, 44, 78
1, 59579, Note_on_c, 9, 36, 0
1, 59579, Note_on_c, 9, 44, 0
1, 59605, Note_on_c, 3, 60, 0
1, 59644, Lyric_t, "\001"
1, 59644, Note_on_c, 3, 60, 126
1, 59672, Note_on_c, 9, 42, 88
1, 59673, Control_c, 6, 10, 44
1, 59699, Note_on_c, 9, 42, 0
1, 59701, Note_on_c, 3, 60, 0
1, 59722, Lyric_t, "\001"
1, 59722, Note_on_c, 3, 63, 127
1, 59792, Note_on_c, 9, 44, 74
1, 59819, Note_on_c, 9, 44, 0
1, 59854, Note_on_c, 3, 63, 0
1, 59902, Lyric_t, "\001"
1, 59902, Note_on_c, 3, 65, 127
1, 59932, Note_on_c, 3, 65, 0
1, 60005, Note_on_c, 1, 29, 0
1, 60010, Pitch_bend_c, 3, 0
1, 60020, Lyric_t, "\001"
1, 60020, Note_on_c, 3, 65, 127
1, 60032, Note_on_c, 1, 31, 127
1, 60032, Note_on_c, 9, 38, 127
1, 60032, Note_on_c, 9, 42, 100
1, 60033, Control_c, 6, 10, 84
1, 60040, Pitch_bend_c, 3, 8192
1, 60059, Note_on_c, 9, 38, 0
1, 60059, Note_on_c, 9, 42, 0
1, 60137, Lyric_t, "\001"
1, 60137, Lyric_t, "\001"
1, 60137, Note_on_c, 3, 63, 127
1, 60138, Note_on_c, 3, 65, 0
1, 60139, Note_on_c, 1, 31, 0
1, 60155, Note_on_c, 3, 63, 0
1, 60272, Note_on_c, 9, 42, 73
1, 60299, Note_on_c, 9, 42, 0
1, 60357, Pitch_bend_c, 3, 0
1, 60377, Lyric_t, "\001"
1, 60377, Note_on_c, 3, 63, 127
1, 60392, Note_on_c, 3, 63, 0
1, 60393, Control_c, 6, 10, 44
1, 60393, Note_on_c, 5, 63, 0
1, 60397, Pitch_bend_c, 3, 8192
1, 60430, Lyric_t, "\001"
1, 60430, Note_on_c, 3, 63, 117
1, 60453, Note_on_c, 3, 63, 0
1, 60479, Note_on_c, 5, 58, 0
1, 60494, Lyric_t, "\001"
1, 60494, Note_on_c, 3, 67, 127
1, 60512, Note_on_c, 9, 36, 127
1, 60512, Note_on_c, 9, 44, 78
1, 60539, Note_on_c, 9, 36, 0
1, 60539, Note_on_c, 9, 44, 0
1, 60617, Lyric_t, "\001"
1, 60617, Note_on_c, 3, 67, 127
1, 60632, Note_on_c, 9, 42, 88
1, 60635, Note_on_c, 3, 67, 0
1, 60659, Note_on_c, 9, 42, 0
1, 60660, Note_on_c, 3, 67, 0
1, 60680, Pitch_bend_c, 3, 0
1, 60687, Lyric_t, "\001"
1, 60687, Note_on_c, 3, 65, 127
1, 60706, Note_on_c, 6, 63, 0
1, 60712, Pitch_bend_c, 3, 8192
1, 60713, Note_on_c, 6, 67, 0
1, 60713, Note_on_c, 6, 70, 0
1, 60752, Note_on_c, 1, 22, 127
1, 60752, Note_on_c, 9, 36, 127
1, 60752, Note_on_c, 9, 44, 74
1, 60753, Control_c, 6, 10, 84
1, 60779, Note_on_c, 9, 36, 0
1, 60779, Note_on_c, 9, 44, 0
1, 60847, Note_on_c, 3, 65, 0
1, 60872, Lyric_t, "\001"
1, 60872, Note_on_c, 3, 63, 111
1, 60909, Note_on_c, 3, 63, 0
1, 60957, Pitch_bend_c, 3, 8160
1, 60969, Note_on_c, 1, 22, 0
1, 60977, Pitch_bend_c, 3, 0
1, 60980, Note_on_c, 5, 63, 73
1, 60982, Lyric_t, "\001"
1, 60982, Lyric_t, "\001"
1, 60982, Note_on_c, 3, 67, 127
1, 60983, Note_on_c, 5, 60, 81
1, 60990, Note_on_c, 11, 63, 96
1, 60990, Note_on_c, 11, 67, 117
1, 60990, Note_on_c, 11, 70, 103
1, 60992, Note_on_c, 1, 24, 127
1, 60992, Note_on_c, 9, 34, 115
1, 60992, Note_on_c, 9, 36, 127
1, 60992, Note_on_c, 9, 38, 127
1, 60992, Note_on_c, 9, 42, 100
1, 60999, Note_on_c, 6, 63, 70
1, 61003, Note_on_c, 6, 60, 64
1, 61008, Pitch_bend_c, 3, 8192
1, 61013, Pitch_bend_c, 9, 6210
1, 61019, Note_on_c, 9, 34, 0
1, 61019, Note_on_c, 9, 36, 0
1, 61019, Note_on_c, 9, 38, 0
1, 61019, Note_on_c, 9, 42, 0
1, 61033, Pitch_bend_c, 9, 8192
1, 61112, Note_on_c, 6, 62, 76
1, 61113, Control_c, 6, 10, 44
1, 61113, Note_on_c, 5, 63, 0
1, 61113, Note_on_c, 3, 67, 0
1, 61117, Note_on_c, 3, 70, 99
1, 61118, Note_on_c, 5, 65, 79
1, 61121, Note_on_c, 6, 63, 0
1, 61124, Note_on_c, 5, 62, 69
1, 61124, Note_on_c, 5, 60, 0
1, 61128, Note_on_c, 6, 65, 76
1, 61129, Note_on_c, 6, 60, 0
1, 61141, Note_on_c, 11, 70, 0
1, 61142, Note_on_c, 11, 63, 0
1, 61150, Note_on_c, 11, 63, 101
1, 61150, Note_on_c, 11, 67, 102
1, 61150, Note_on_c, 11, 70, 102
1, 61153, Note_on_c, 11, 67, 0
1, 61174, Note_on_c, 1, 24, 0
1, 61219, Note_on_c, 5, 65, 0
1, 61228, Note_on_c, 6, 65, 0
1, 61230, Note_on_c, 5, 67, 74
1, 61232, Note_on_c, 9, 42, 73
1, 61237, Note_on_c, 6, 67, 91
1, 61239, Note_on_c, 5, 62, 0
1, 61240, Note_on_c, 5, 63, 80
1, 61240, Note_on_c, 6, 63, 83
1, 61248, Note_on_c, 6, 62, 0
1, 61259, Note_on_c, 9, 42, 0
1, 61276, Note_on_c, 11, 70, 0
1, 61285, Note_on_c, 11, 63, 0
1, 61295, Note_on_c, 11, 67, 0
1, 61310, Note_on_c, 11, 63, 92
1, 61310, Note_on_c, 11, 67, 92
1, 61310, Note_on_c, 11, 70, 92
1, 61354, Note_on_c, 3, 70, 0
1, 61433, Note_on_c, 11, 70, 0
1, 61435, Pitch_bend_c, 9, 0
1, 61440, Note_on_c, 11, 67, 0
1, 61446, Note_on_c, 5, 67, 0
1, 61452, Pitch_bend_c, 3, 0
1, 61452, Note_on_c, 11, 63, 0
1, 61453, Note_on_c, 5, 65, 84
1, 61453, Note_on_c, 5, 63, 0
1, 61457, Note_on_c, 5, 62, 91
1, 61458, Note_on_c, 6, 63, 0
1, 61464, Lyric_t, "\001"
1, 61464, Note_on_c, 3, 62, 127
1, 61464, Note_on_c, 6, 67, 0
1, 61470, Note_on_c, 6, 60, 72
1, 61470, Note_on_c, 6, 65, 74
1, 61470, Note_on_c, 11, 63, 83
1, 61470, Note_on_c, 11, 67, 84
1, 61470, Note_on_c, 11, 70, 84
1, 61472, Note_on_c, 1, 31, 127
1, 61472, Note_on_c, 9, 36, 127
1, 61472, Note_on_c, 9, 44, 78
1, 61473, Control_c, 6, 10, 84
1, 61492, Pitch_bend_c, 3, 8192
1, 61499, Note_on_c, 9, 36, 0
1, 61499, Note_on_c, 9, 44, 0
1, 61549, Note_on_c, 3, 62, 0
1, 61588, Lyric_t, "\001"
1, 61588, Note_on_c, 3, 62, 104
1, 61592, Note_on_c, 9, 42, 88
1, 61603, Note_on_c, 11, 70, 0
1, 61605, Note_on_c, 11, 63, 0
1, 61609, Note_on_c, 3, 62, 0
1, 61619, Note_on_c, 9, 42, 0
1, 61623, Note_on_c, 11, 67, 0
1, 61630, Note_on_c, 11, 63, 75
1, 61630, Note_on_c, 11, 67, 75
1, 61630, Note_on_c, 11, 70, 75
1, 61647, Lyric_t, "\001"
1, 61647, Note_on_c, 3, 62, 127
1, 61712, Note_on_c, 9, 44, 74
1, 61739, Note_on_c, 9, 44, 0
1, 61772, Note_on_c, 11, 63, 0
1, 61777, Note_on_c, 11, 70, 0
1, 61786, Note_on_c, 11, 67, 0
1, 61790, Note_on_c, 11, 63, 66
1, 61790, Note_on_c, 11, 67, 66
1, 61790, Note_on_c, 11, 70, 66
1, 61809, Note_on_c, 3, 62, 0
1, 61810, Note_on_c, 5, 58, 85
1, 61814, Note_on_c, 5, 65, 0
1, 61830, Note_on_c, 6, 50, 72
1, 61830, Note_on_c, 6, 58, 62
1, 61832, Lyric_t, "\001"
1, 61832, Note_on_c, 3, 60, 118
1, 61833, Control_c, 6, 10, 44
1, 61846, Note_on_c, 6, 60, 0
1, 61869, Note_on_c, 3, 60, 0
1, 61935, Note_on_c, 11, 63, 0
1, 61937, Note_on_c, 11, 70, 0
1, 61943, Note_on_c, 11, 67, 0
1, 61948, Pitch_bend_c, 3, 0
1, 61950, Note_on_c, 11, 63, 57
1, 61950, Note_on_c, 11, 67, 58
1, 61950, Note_on_c, 11, 70, 58
1, 61952, Lyric_t, "\001"
1, 61952, Note_on_c, 1, 34, 127
1, 61952, Note_on_c, 3, 60, 127
1, 61952, Note_on_c, 9, 38, 127
1, 61952, Note_on_c, 9, 42, 100
1, 61959, Note_on_c, 1, 31, 0
1, 61978, Pitch_bend_c, 3, 8192
1, 61979, Note_on_c, 9, 38, 0
1, 61979, Note_on_c, 9, 42, 0
1, 62047, Note_on_c, 1, 34, 0
1, 62058, Lyric_t, "\001"
1, 62058, Lyric_t, "\001"
1, 62058, Note_on_c, 3, 58, 102
1, 62062, Note_on_c, 3, 60, 0
1, 62088, Note_on_c, 11, 63, 0
1, 62095, Note_on_c, 3, 58, 0
1, 62097, Note_on_c, 11, 70, 0
1, 62101, Note_on_c, 11, 67, 0
1, 62110, Note_on_c, 11, 63, 48
1, 62110, Note_on_c, 11, 67, 48
1, 62110, Note_on_c, 11, 70, 49
1, 62169, Note_on_c, 5, 62, 0
1, 62177, Lyric_t, "\001"
1, 62177, Note_on_c, 3, 58, 127
1, 62190, Note_on_c, 9, 36, 65
1, 62192, Note_on_c, 5, 53, 80
1, 62192, Note_on_c, 9, 42, 73
1, 62192, Note_on_c, 10, 15, 94
1, 62193, Control_c, 6, 10, 84
1, 62217, Note_on_c, 9, 36, 0
1, 62219, Note_on_c, 9, 42, 0
1, 62219, Note_on_c, 10, 15, 0
1, 62253, Note_on_c, 11, 67, 0
1, 62257, Note_on_c, 11, 63, 0
1, 62268, Note_on_c, 11, 70, 0
1, 62270, Note_on_c, 11, 63, 39
1, 62270, Note_on_c, 11, 67, 40
1, 62270, Note_on_c, 11, 70, 39
1, 62302, Lyric_t, "\001"
1, 62302, Note_on_c, 3, 60, 127
1, 62308, Note_on_c, 3, 58, 0
1, 62328, Note_on_c, 3, 60, 0
1, 62386, Note_on_c, 11, 70, 0
1, 62393, Note_on_c, 11, 63, 0
1, 62396, Note_on_c, 11, 67, 0
1, 62412, Pitch_bend_c, 3, 0
1, 62428, Lyric_t, "\001"
1, 62428, Note_on_c, 3, 62, 127
1, 62432, Note_on_c, 9, 36, 127
1, 62432, Note_on_c, 9, 44, 78
1, 62453, Pitch_bend_c, 3, 8192
1, 62459, Note_on_c, 9, 36, 0
1, 62459, Note_on_c, 9, 44, 0
1, 62552, Note_on_c, 9, 42, 88
1, 62553, Control_c, 6, 10, 44
1, 62579, Lyric_t, "\001"
1, 62579, Note_on_c, 3, 62, 121
1, 62579, Note_on_c, 9, 42, 0
1, 62580, Note_on_c, 3, 62, 0
1, 62612, Lyric_t, "\001"
1, 62612, Note_on_c, 3, 60, 127
1, 62625, Note_on_c, 3, 62, 0
1, 62672, Note_on_c, 9, 44, 74
1, 62699, Note_on_c, 9, 44, 0
1, 62729, Lyric_t, "\001"
1, 62729, Note_on_c, 3, 60, 121
1, 62753, Note_on_c, 3, 60, 0
1, 62775, Note_on_c, 3, 60, 0
1, 62782, Note_on_c, 5, 53, 83
1, 62789, Lyric_t, "\001"
1, 62789, Note_on_c, 3, 58, 121
1, 62792, Note_on_c, 1, 22, 127
1, 62810, Note_on_c, 5, 53, 0
1, 62813, Note_on_c, 5, 58, 0
1, 62835, Note_on_c, 3, 58, 0
1, 62899, Pitch_bend_c, 3, 0
1, 62900, Lyric_t, "\001"
1, 62900, Lyric_t, "\001"
1, 62900, Note_on_c, 3, 60, 127
1, 62904, Pitch_bend_c, 5, 12302
1, 62905, Note_on_c, 1, 22, 0
1, 62912, Note_on_c, 1, 24, 127
1, 62912, Note_on_c, 9, 38, 127
1, 62912, Note_on_c, 9, 42, 100
1, 62913, Control_c, 6, 10, 84
1, 62919, Pitch_bend_c, 3, 2340
1, 62925, Pitch_bend_c, 5, 16383
1, 62927, Note_on_c, 6, 58, 0
1, 62928, Note_on_c, 6, 50, 0
1, 62939, Note_on_c, 9, 38, 0
1, 62939, Note_on_c, 9, 42, 0
1, 62940, Pitch_bend_c, 3, 8192
1, 62943, Note_on_c, 6, 65, 0
1, 62980, Pitch_bend_c, 3, 4560
1, 63002, Pitch_bend_c, 3, 0
1, 63023, Note_on_c, 3, 60, 0
1, 63030, Note_on_c, 3, 55, 127
1, 63030, Note_on_c, 6, 55, 64
1, 63030, Note_on_c, 6, 58, 57
1, 63030, Note_on_c, 6, 60, 68
1, 63032, Pitch_bend_c, 3, 8192
1, 63055, Note_on_c, 3, 55, 0
1, 63065, Note_on_c, 1, 24, 0
1, 63109, Note_on_c, 5, 53, 0
1, 63120, Pitch_bend_c, 5, 15902
1, 63142, Pitch_bend_c, 5, 8192
1, 63147, Note_on_c, 5, 65, 92
1, 63152, Note_on_c, 9, 42, 73
1, 63179, Note_on_c, 9, 42, 0
1, 63255, Lyric_t, "\001"
1, 63255, Note_on_c, 3, 55, 127
1, 63271, Note_on_c, 3, 55, 0
1, 63273, Control_c, 6, 10, 44
1, 63285, Pitch_bend_c, 5, 0
1, 63345, Pitch_bend_c, 3, 7980
1, 63365, Pitch_bend_c, 3, 0
1, 63370, Note_on_c, 6, 55, 0
1, 63372, Note_on_c, 6, 60, 0
1, 63375, Lyric_t, "\001"
1, 63375, Note_on_c, 3, 60, 127
1, 63375, Note_on_c, 6, 58, 0
1, 63390, Note_on_c, 6, 60, 77
1, 63390, Note_on_c, 6, 63, 83
1, 63390, Note_on_c, 6, 67, 86
1, 63392, Note_on_c, 1, 31, 127
1, 63392, Note_on_c, 9, 36, 127
1, 63392, Note_on_c, 9, 44, 78
1, 63394, Pitch_bend_c, 3, 8192
1, 63419, Note_on_c, 9, 36, 0
1, 63419, Note_on_c, 9, 44, 0
1, 63468, Note_on_c, 3, 60, 0
1, 63497, Lyric_t, "\001"
1, 63497, Note_on_c, 3, 63, 127
1, 63512, Note_on_c, 9, 42, 88
1, 63520, Note_on_c, 3, 63, 0
1, 63533, Control_c, 5, 1, 4
1, 63539, Note_on_c, 9, 42, 0
1, 63563, Control_c, 5, 1, 39
1, 63568, Lyric_t, "\001"
1, 63568, Note_on_c, 3, 63, 127
1, 63595, Control_c, 5, 1, 101
1, 63625, Control_c, 5, 1, 118
1, 63632, Note_on_c, 9, 44, 74
1, 63633, Control_c, 6, 10, 84
1, 63657, Control_c, 5, 1, 125
1, 63659, Note_on_c, 9, 44, 0
1, 63716, Note_on_c, 3, 63, 0
1, 63728, Note_on_c, 11, 67, 77
1, 63729, Control_c, 5, 1, 127
1, 63742, Lyric_t, "\001"
1, 63742, Note_on_c, 3, 65, 127
1, 63769, Note_on_c, 3, 65, 0
1, 63777, Note_on_c, 11, 70, 72
1, 63779, Note_on_c, 11, 67, 0
1, 63792, Control_c, 5, 1, 125
1, 63814, Note_on_c, 11, 70, 0
1, 63822, Control_c, 5, 1, 0
1, 63823, Note_on_c, 11, 67, 87
1, 63834, Note_on_c, 5, 65, 0
1, 63852, Pitch_bend_c, 3, 0
1, 63853, Pitch_bend_c, 5, 8192
1, 63862, Lyric_t, "\001"
1, 63862, Note_on_c, 3, 65, 127
1, 63863, Note_on_c, 11, 67, 0
1, 63864, Note_on_c, 1, 31, 0
1, 63870, Note_on_c, 11, 70, 88
1, 63872, Note_on_c, 1, 34, 127
1, 63872, Note_on_c, 9, 36, 127
1, 63872, Note_on_c, 9, 38, 127
1, 63872, Note_on_c, 9, 42, 100
1, 63873, Pitch_bend_c, 5, 8192
1, 63883, Pitch_bend_c, 3, 8192
1, 63899, Note_on_c, 9, 36, 0
1, 63899, Note_on_c, 9, 38, 0
1, 63899, Note_on_c, 9, 42, 0
1, 63903, Note_on_c, 11, 70, 0
1, 63914, Note_on_c, 11, 67, 95
1, 63951, Note_on_c, 11, 67, 0
1, 63959, Note_on_c, 11, 70, 94
1, 63979, Lyric_t, "\001"
1, 63979, Lyric_t, "\001"
1, 63979, Note_on_c, 3, 63, 127
1, 63985, Note_on_c, 3, 65, 0
1, 63990, Note_on_c, 11, 70, 0
1, 63993, Control_c, 6, 10, 44
1, 63999, Note_on_c, 3, 63, 0
1, 64005, Note_on_c, 11, 67, 107
1, 64032, Note_on_c, 1, 34, 0
1, 64042, Note_on_c, 11, 67, 0
1, 64048, Note_on_c, 11, 70, 116
1, 64079, Note_on_c, 11, 70, 0
1, 64093, Note_on_c, 11, 67, 123
1, 64105, Lyric_t, "\001"
1, 64105, Note_on_c, 3, 63, 127
1, 64112, Note_on_c, 9, 42, 73
1, 64129, Note_on_c, 11, 67, 0
1, 64137, Note_on_c, 11, 70, 127
1, 64139, Note_on_c, 9, 42, 0
1, 64169, Note_on_c, 11, 70, 0
1, 64189, Note_on_c, 11, 67, 127
1, 64202, Note_on_c, 3, 63, 0
1, 64230, Lyric_t, "\001"
1, 64230, Note_on_c, 3, 63, 127
1, 64230, Note_on_c, 11, 70, 127
1, 64234, Note_on_c, 11, 67, 0
1, 64245, Note_on_c, 3, 63, 0
1, 64265, Note_on_c, 11, 70, 0
1, 64282, Note_on_c, 11, 67, 126
1, 64319, Note_on_c, 11, 67, 0
1, 64324, Note_on_c, 11, 70, 123
1, 64338, Pitch_bend_c, 3, 0
1, 64347, Lyric_t, "\001"
1, 64347, Note_on_c, 3, 63, 127
1, 64352, Note_on_c, 1, 24, 127
1, 64352, Note_on_c, 9, 36, 127
1, 64352, Note_on_c, 9, 42, 72
1, 64353, Control_c, 6, 10, 84
1, 64357, Note_on_c, 11, 70, 0
1, 64369, Note_on_c, 11, 67, 120
1, 64378, Pitch_bend_c, 3, 8192
1, 64379, Note_on_c, 9, 36, 0
1, 64379, Note_on_c, 9, 42, 0
1, 64407, Note_on_c, 11, 67, 0
1, 64412, Note_on_c, 9, 44, 50
1, 64415, Note_on_c, 11, 70, 113
1, 64439, Note_on_c, 9, 44, 0
1, 64448, Note_on_c, 11, 70, 0
1, 64458, Note_on_c, 11, 67, 98
1, 64470, Lyric_t, "\001"
1, 64470, Note_on_c, 3, 63, 127
1, 64472, Note_on_c, 9, 38, 127
1, 64472, Note_on_c, 9, 42, 45
1, 64484, Note_on_c, 1, 24, 0
1, 64485, Note_on_c, 3, 63, 0
1, 64492, Note_on_c, 3, 63, 0
1, 64495, Note_on_c, 11, 67, 0
1, 64499, Note_on_c, 9, 38, 0
1, 64499, Note_on_c, 9, 42, 0
1, 64509, Note_on_c, 11, 70, 91
1, 64532, Note_on_c, 9, 44, 44
1, 64533, Lyric_t, "\001"
1, 64533, Note_on_c, 3, 67, 127
1, 64539, Note_on_c, 11, 70, 0
1, 64547, Note_on_c, 11, 67, 91
1, 64558, Pitch_bend_c, 12, 4410
1, 64559, Note_on_c, 9, 44, 0
1, 64578, Pitch_bend_c, 12, 0
1, 64588, Note_on_c, 11, 67, 0
1, 64589, Note_on_c, 12, 77, 98
1, 64592, Note_on_c, 9, 36, 121
1, 64592, Note_on_c, 9, 42, 65
1, 64593, Note_on_c, 12, 72, 90
1, 64599, Note_on_c, 11, 70, 84
1, 64619, Pitch_bend_c, 12, 3660
1, 64619, Note_on_c, 9, 36, 0
1, 64619, Note_on_c, 9, 42, 0
1, 64631, Note_on_c, 11, 70, 0
1, 64635, Note_on_c, 11, 67, 84
1, 64640, Pitch_bend_c, 12, 8192
1, 64652, Note_on_c, 9, 38, 93
1, 64652, Note_on_c, 9, 44, 45
1, 64655, Note_on_c, 3, 67, 0
1, 64678, Note_on_c, 11, 67, 0
1, 64679, Note_on_c, 9, 38, 0
1, 64679, Note_on_c, 9, 44, 0
1, 64687, Note_on_c, 11, 70, 74
1, 64700, Lyric_t, "\001"
1, 64700, Note_on_c, 3, 70, 127
1, 64712, Note_on_c, 1, 24, 127
1, 64712, Note_on_c, 9, 42, 45
1, 64713, Control_c, 6, 10, 44
1, 64718, Note_on_c, 11, 70, 0
1, 64723, Pitch_bend_c, 12, 4470
1, 64724, Note_on_c, 11, 67, 81
1, 64739, Note_on_c, 9, 42, 0
1, 64743, Pitch_bend_c, 12, 0
1, 64766, Note_on_c, 11, 67, 0
1, 64770, Note_on_c, 11, 70, 70
1, 64772, Note_on_c, 9, 44, 50
1, 64788, Note_on_c, 3, 70, 0
1, 64799, Note_on_c, 9, 44, 0
1, 64801, Note_on_c, 11, 70, 0
1, 64812, Note_on_c, 11, 67, 76
1, 64819, Lyric_t, "\001"
1, 64819, Lyric_t, "\001"
1, 64819, Note_on_c, 3, 72, 127
1, 64825, Pitch_bend_c, 3, 0
1, 64832, Note_on_c, 9, 38, 127
1, 64832, Note_on_c, 9, 42, 93
1, 64849, Lyric_t, "\001"
1, 64849, Note_on_c, 3, 58, 25
1, 64850, Note_on_c, 11, 67, 0
1, 64857, Note_on_c, 11, 70, 63
1, 64859, Note_on_c, 9, 38, 0
1, 64859, Note_on_c, 9, 42, 0
1, 64863, Note_on_c, 6, 63, 0
1, 64867, Pitch_bend_c, 3, 8192
1, 64876, Note_on_c, 6, 60, 0
1, 64885, Note_on_c, 11, 70, 0
1, 64892, Note_on_c, 6, 67, 0
1, 64893, Note_on_c, 11, 67, 71
1, 64898, Control_c, 12, 1, 121
1, 64934, Note_on_c, 11, 67, 0
1, 64939, Control_c, 12, 1, 127
1, 64950, Note_on_c, 6, 56, 87
1, 64950, Note_on_c, 6, 60, 75
1, 64950, Note_on_c, 6, 64, 83
1, 64966, Note_on_c, 3, 72, 0
1, 64967, Lyric_t, "\001"
1, 64967, Note_on_c, 3, 58, 127
1, 64974, Note_on_c, 3, 58, 0
1, 64998, Pitch_bend_c, 3, 8192
1, 65049, Note_on_c, 1, 24, 0
1, 65072, Lyric_t, "\001"
1, 65072, Note_on_c, 1, 27, 127
1, 65072, Note_on_c, 3, 60, 126
1, 65073, Control_c, 6, 10, 84
1, 65092, Note_on_c, 3, 58, 0
1, 65193, Note_on_c, 12, 72, 0
1, 65197, Note_on_c, 3, 60, 0
1, 65201, Note_on_c, 12, 77, 0
1, 65203, Note_on_c, 1, 27, 0
1, 65208, Control_c, 12, 1, 0
1, 65218, Pitch_bend_c, 12, 8192
1, 65222, Lyric_t, "\001"
1, 65222, Note_on_c, 3, 58, 126
1, 65229, Pitch_bend_c, 12, 4650
1, 65250, Pitch_bend_c, 12, 0
1, 65258, Note_on_c, 6, 60, 0
1, 65266, Note_on_c, 6, 64, 0
1, 65270, Note_on_c, 6, 56, 0
1, 65272, Pitch_bend_c, 3, 8192
1, 65307, Note_on_c, 2, 58, 72
1, 65307, Note_on_c, 2, 70, 72
1, 65310, Note_on_c, 6, 63, 75
1, 65310, Note_on_c, 6, 67, 93
1, 65310, Note_on_c, 6, 70, 77
1, 65312, Lyric_t, "\001"
1, 65312, Note_on_c, 1, 29, 127
1, 65312, Note_on_c, 3, 63, 127
1, 65312, Note_on_c, 5, 67, 82
1, 65312, Note_on_c, 5, 70, 82
1, 65312, Note_on_c, 9, 36, 127
1, 65312, Note_on_c, 9, 44, 78
1, 65312, Note_on_c, 12, 89, 109
1, 65312, Note_on_c, 15, 63, 1
1, 65312, Note_on_c, 15, 67, 1
1, 65312, Note_on_c, 15, 70, 1
1, 65313, Control_c, 5, 91, 68
1, 65313, Control_c, 6, 10, 84
1, 65339, Note_on_c, 9, 36, 0
1, 65339, Note_on_c, 9, 44, 0
1, 65342, Pitch_bend_c, 3, 8192
1, 65343, Pitch_bend_c, 12, 1500
1, 65347, Note_on_c, 3, 58, 0
1, 65363, Pitch_bend_c, 12, 4020
1, 65383, Pitch_bend_c, 12, 5820
1, 65404, Pitch_bend_c, 12, 8192
1, 65429, Note_on_c, 5, 70, 0
1, 65432, Note_on_c, 9, 42, 88
1, 65437, Note_on_c, 3, 63, 0
1, 65444, Note_on_c, 5, 67, 0
1, 65459, Note_on_c, 9, 42, 0
1, 65488, Pitch_bend_c, 12, 6690
1, 65492, Note_on_c, 12, 89, 0
1, 65508, Pitch_bend_c, 12, 2580
1, 65528, Pitch_bend_c, 12, 0
1, 65552, Lyric_t, "\001"
1, 65552, Note_on_c, 3, 63, 125
1, 65552, Note_on_c, 5, 67, 73
1, 65552, Note_on_c, 5, 70, 71
1, 65552, Note_on_c, 9, 44, 74
1, 65552, Note_on_c, 12, 89, 107
1, 65579, Note_on_c, 9, 44, 0
1, 65590, Pitch_bend_c, 12, 810
1, 65610, Pitch_bend_c, 12, 4530
1, 65632, Pitch_bend_c, 12, 4830
1, 65652, Pitch_bend_c, 12, 6480
1, 65653, Note_on_c, 5, 70, 0
1, 65673, Control_c, 6, 10, 44
1, 65673, Pitch_bend_c, 12, 8192
1, 65674, Note_on_c, 3, 63, 0
1, 65674, Note_on_c, 5, 67, 0
1, 65723, Note_on_c, 12, 89, 0
1, 65744, Pitch_bend_c, 12, 3630
1, 65757, Note_on_c, 1, 29, 0
1, 65765, Pitch_bend_c, 12, 0
1, 65792, Lyric_t, "\001"
1, 65792, Note_on_c, 1, 31, 127
1, 65792, Note_on_c, 3, 63, 126
1, 65792, Note_on_c, 5, 67, 78
1, 65792, Note_on_c, 5, 70, 78
1, 65792, Note_on_c, 9, 38, 127
1, 65792, Note_on_c, 9, 42, 100
1, 65792, Note_on_c, 12, 89, 79
1, 65819, Note_on_c, 9, 38, 0
1, 65819, Note_on_c, 9, 42, 0
1, 65838, Pitch_bend_c, 12, 2910
1, 65858, Pitch_bend_c, 12, 4860
1, 65878, Pitch_bend_c, 12, 4920
1, 65899, Pitch_bend_c, 12, 6300
1, 65899, Note_on_c, 5, 70, 0
1, 65917, Note_on_c, 3, 63, 0
1, 65917, Note_on_c, 5, 67, 0
1, 65919, Pitch_bend_c, 12, 6960
1, 65933, Note_on_c, 1, 31, 0
1, 65940, Pitch_bend_c, 12, 7020
1, 65962, Pitch_bend_c, 12, 7320
1, 65968, Note_on_c, 12, 89, 0
1, 65982, Pitch_bend_c, 12, 3840
1, 66002, Pitch_bend_c, 12, 0
1, 66030, Note_on_c, 9, 36, 65
1, 66032, Lyric_t, "\001"
1, 66032, Note_on_c, 3, 63, 121
1, 66032, Note_on_c, 5, 67, 69
1, 66032, Note_on_c, 5, 70, 65
1, 66032, Note_on_c, 9, 42, 73
1, 66032, Note_on_c, 10, 15, 94
1, 66032, Note_on_c, 12, 89, 83
1, 66033, Control_c, 6, 10, 84
1, 66057, Note_on_c, 9, 36, 0
1, 66059, Note_on_c, 9, 42, 0
1, 66059, Note_on_c, 10, 15, 0
1, 66074, Pitch_bend_c, 12, 2220
1, 66094, Pitch_bend_c, 12, 3030
1, 66115, Pitch_bend_c, 12, 3780
1, 66132, Note_on_c, 5, 70, 0
1, 66137, Pitch_bend_c, 12, 4770
1, 66139, Note_on_c, 3, 63, 0
1, 66154, Note_on_c, 5, 67, 0
1, 66157, Pitch_bend_c, 12, 5820
1, 66178, Pitch_bend_c, 12, 6570
1, 66198, Pitch_bend_c, 12, 6810
1, 66209, Note_on_c, 12, 89, 0
1, 66218, Pitch_bend_c, 12, 6000
1, 66239, Pitch_bend_c, 12, 2010
1, 66264, Note_on_c, 2, 70, 0
1, 66267, Note_on_c, 2, 56, 72
1, 66267, Note_on_c, 2, 68, 72
1, 66268, Pitch_bend_c, 12, 60
1, 66269, Note_on_c, 2, 58, 0
1, 66272, Lyric_t, "\001"
1, 66272, Lyric_t, "\001"
1, 66272, Note_on_c, 3, 63, 127
1, 66272, Note_on_c, 5, 67, 56
1, 66272, Note_on_c, 5, 70, 54
1, 66272, Note_on_c, 9, 36, 127
1, 66272, Note_on_c, 9, 44, 78
1, 66272, Note_on_c, 12, 89, 70
1, 66299, Note_on_c, 9, 36, 0
1, 66299, Note_on_c, 9, 44, 0
1, 66312, Pitch_bend_c, 12, 960
1, 66327, Note_on_c, 3, 63, 0
1, 66332, Pitch_bend_c, 12, 3840
1, 66353, Pitch_bend_c, 12, 4560
1, 66369, Pitch_bend_c, 4, 0
1, 66373, Pitch_bend_c, 12, 5130
1, 66374, Note_on_c, 5, 70, 0
1, 66388, Note_on_c, 4, 75, 127
1, 66392, Note_on_c, 9, 42, 88
1, 66393, Control_c, 6, 10, 44
1, 66393, Pitch_bend_c, 12, 6660
1, 66402, Pitch_bend_c, 4, 1530
1, 66403, Note_on_c, 5, 67, 0
1, 66414, Pitch_bend_c, 12, 7170
1, 66419, Note_on_c, 9, 42, 0
1, 66422, Pitch_bend_c, 4, 8192
1, 66454, Note_on_c, 12, 89, 0
1, 66455, Pitch_bend_c, 12, 7230
1, 66475, Pitch_bend_c, 12, 4650
1, 66497, Pitch_bend_c, 12, 1290
1, 66504, Note_on_c, 4, 74, 108
1, 66512, Note_on_c, 5, 55, 72
1, 66512, Note_on_c, 9, 44, 74
1, 66512, Note_on_c, 12, 89, 59
1, 66514, Note_on_c, 4, 75, 0
1, 66518, Pitch_bend_c, 12, 210
1, 66524, Note_on_c, 5, 58, 72
1, 66538, Pitch_bend_c, 12, 180
1, 66539, Note_on_c, 9, 44, 0
1, 66558, Pitch_bend_c, 12, 2580
1, 66578, Pitch_bend_c, 12, 4230
1, 66599, Pitch_bend_c, 12, 4680
1, 66612, Note_on_c, 4, 74, 0
1, 66619, Note_on_c, 4, 72, 118
1, 66619, Pitch_bend_c, 12, 5820
1, 66624, Pitch_bend_c, 3, 0
1, 66630, Note_on_c, 6, 63, 78
1, 66630, Note_on_c, 6, 67, 79
1, 66632, Lyric_t, "\001"
1, 66632, Note_on_c, 1, 24, 127
1, 66632, Note_on_c, 3, 58, 114
1, 66632, Note_on_c, 5, 67, 72
1, 66637, Note_on_c, 5, 55, 0
1, 66640, Pitch_bend_c, 12, 6240
1, 66641, Note_on_c, 5, 58, 0
1, 66642, Note_on_c, 5, 70, 72
1, 66657, Note_on_c, 4, 72, 0
1, 66660, Pitch_bend_c, 12, 6300
1, 66669, Pitch_bend_c, 3, 8192
1, 66682, Pitch_bend_c, 12, 6570
1, 66697, Note_on_c, 2, 56, 0
1, 66698, Note_on_c, 12, 89, 0
1, 66702, Pitch_bend_c, 12, 6000
1, 66723, Pitch_bend_c, 12, 4920
1, 66724, Note_on_c, 2, 68, 0
1, 66725, Pitch_bend_c, 4, 0
1, 66730, Note_on_c, 1, 24, 0
1, 66737, Note_on_c, 4, 72, 127
1, 66743, Pitch_bend_c, 12, 4980
1, 66747, Note_on_c, 2, 55, 72
1, 66747, Note_on_c, 2, 67, 72
1, 66752, Note_on_c, 1, 27, 127
1, 66752, Note_on_c, 9, 38, 127
1, 66752, Note_on_c, 9, 42, 100
1, 66753, Control_c, 6, 10, 84
1, 66763, Pitch_bend_c, 12, 7020
1, 66767, Pitch_bend_c, 4, 1200
1, 66779, Note_on_c, 9, 38, 0
1, 66779, Note_on_c, 9, 42, 0
1, 66784, Pitch_bend_c, 12, 8192
1, 66787, Pitch_bend_c, 4, 8192
1, 66799, Note_on_c, 3, 58, 0
1, 66828, Pitch_bend_c, 4, 7920
1, 66848, Pitch_bend_c, 4, 0
1, 66872, Lyric_t, "\001"
1, 66872, Note_on_c, 3, 58, 114
1, 66884, Note_on_c, 1, 27, 0
1, 66915, Note_on_c, 3, 58, 0
1, 66992, Lyric_t, "\001"
1, 66992, Note_on_c, 3, 60, 127
1, 66992, Note_on_c, 5, 67, 72
1, 66992, Note_on_c, 9, 42, 73
1, 66994, Note_on_c, 5, 70, 0
1, 67005, Note_on_c, 5, 63, 72
1, 67005, Note_on_c, 5, 67, 0
1, 67019, Note_on_c, 9, 42, 0
1, 67039, Note_on_c, 4, 72, 0
1, 67049, Pitch_bend_c, 4, 8192
1, 67062, Note_on_c, 4, 67, 127
1, 67070, Pitch_bend_c, 4, 8192
1, 67084, Note_on_c, 4, 67, 0
1, 67103, Note_on_c, 6, 63, 0
1, 67105, Note_on_c, 3, 60, 0
1, 67112, Lyric_t, "\001"
1, 67112, Note_on_c, 3, 58, 96
1, 67113, Control_c, 5, 91, 0
1, 67113, Note_on_c, 5, 63, 72
1, 67113, Control_c, 6, 10, 44
1, 67113, Note_on_c, 6, 67, 0
1, 67113, Note_on_c, 5, 63, 0
1, 67114, Note_on_c, 5, 67, 0
1, 67122, Note_on_c, 5, 58, 72
1, 67128, Note_on_c, 6, 70, 0
1, 67144, Note_on_c, 3, 58, 0
1, 67177, Note_on_c, 6, 67, 0
1, 67193, Note_on_c, 6, 63, 0
1, 67218, Pitch_bend_c, 3, 0
1, 67227, Note_on_c, 2, 58, 72
1, 67227, Note_on_c, 2, 70, 72
1, 67230, Note_on_c, 6, 60, 74
1, 67230, Note_on_c, 6, 63, 77
1, 67230, Note_on_c, 6, 67, 87
1, 67232, Lyric_t, "\001"
1, 67232, Note_on_c, 1, 29, 127
1, 67232, Note_on_c, 3, 63, 127
1, 67232, Note_on_c, 9, 36, 127
1, 67232, Note_on_c, 9, 44, 78
1, 67240, Note_on_c, 2, 67, 0
1, 67248, Note_on_c, 2, 55, 0
1, 67258, Pitch_bend_c, 3, 8192
1, 67259, Note_on_c, 9, 36, 0
1, 67259, Note_on_c, 9, 44, 0
1, 67352, Note_on_c, 9, 42, 88
1, 67379, Note_on_c, 9, 42, 0
1, 67388, Note_on_c, 3, 63, 0
1, 67472, Lyric_t, "\001"
1, 67472, Note_on_c, 3, 63, 125
1, 67472, Note_on_c, 9, 44, 74
1, 67473, Control_c, 6, 10, 84
1, 67499, Note_on_c, 9, 44, 0
1, 67604, Note_on_c, 3, 63, 0
1, 67654, Note_on_c, 1, 29, 0
1, 67712, Lyric_t, "\001"
1, 67712, Note_on_c, 1, 31, 127
1, 67712, Note_on_c, 3, 63, 127
1, 67712, Note_on_c, 9, 38, 127
1, 67712, Note_on_c, 9, 42, 100
1, 67739, Note_on_c, 9, 38, 0
1, 67739, Note_on_c, 9, 42, 0
1, 67833, Control_c, 6, 10, 44
1, 67844, Note_on_c, 3, 63, 0
1, 67854, Note_on_c, 1, 31, 0
1, 67952, Lyric_t, "\001"
1, 67952, Note_on_c, 3, 63, 127
1, 67952, Note_on_c, 9, 42, 73
1, 67979, Note_on_c, 9, 42, 0
1, 68030, Pitch_bend_c, 4, 0
1, 68068, Note_on_c, 4, 70, 120
1, 68073, Note_on_c, 5, 63, 0
1, 68082, Pitch_bend_c, 4, 8192
1, 68083, Note_on_c, 3, 63, 0
1, 68121, Note_on_c, 4, 70, 0
1, 68159, Note_on_c, 5, 58, 0
1, 68167, Pitch_bend_c, 3, 630
1, 68175, Note_on_c, 2, 70, 0
1, 68187, Note_on_c, 2, 56, 72
1, 68187, Note_on_c, 2, 68, 72
1, 68187, Note_on_c, 4, 67, 125
1, 68187, Note_on_c, 2, 58, 0
1, 68188, Pitch_bend_c, 3, 240
1, 68192, Lyric_t, "\001"
1, 68192, Lyric_t, "\001"
1, 68192, Note_on_c, 3, 63, 127
1, 68192, Note_on_c, 9, 36, 127
1, 68192, Note_on_c, 9, 44, 78
1, 68193, Control_c, 6, 10, 84
1, 68208, Pitch_bend_c, 3, 8192
1, 68219, Note_on_c, 9, 36, 0
1, 68219, Note_on_c, 9, 44, 0
1, 68274, Pitch_bend_c, 4, 6780
1, 68278, Note_on_c, 3, 63, 0
1, 68294, Pitch_bend_c, 4, 7170
1, 68312, Note_on_c, 9, 42, 88
1, 68314, Pitch_bend_c, 4, 7170
1, 68335, Pitch_bend_c, 4, 4560
1, 68339, Note_on_c, 9, 42, 0
1, 68355, Pitch_bend_c, 4, 6570
1, 68377, Pitch_bend_c, 4, 7800
1, 68397, Pitch_bend_c, 4, 8192
1, 68432, Note_on_c, 1, 22, 127
1, 68432, Note_on_c, 9, 36, 127
1, 68432, Note_on_c, 9, 44, 74
1, 68447, Note_on_c, 4, 67, 0
1, 68451, Note_on_c, 6, 60, 0
1, 68459, Note_on_c, 9, 36, 0
1, 68459, Note_on_c, 9, 44, 0
1, 68463, Note_on_c, 6, 67, 0
1, 68468, Note_on_c, 6, 63, 0
1, 68532, Pitch_bend_c, 3, 4740
1, 68548, Pitch_bend_c, 4, 0
1, 68552, Lyric_t, "\001"
1, 68552, Pitch_bend_c, 3, 240
1, 68552, Note_on_c, 3, 63, 113
1, 68553, Control_c, 6, 10, 44
1, 68554, Note_on_c, 4, 70, 121
1, 68568, Pitch_bend_c, 4, 1020
1, 68573, Pitch_bend_c, 3, 8192
1, 68588, Pitch_bend_c, 4, 8192
1, 68614, Note_on_c, 4, 70, 0
1, 68638, Note_on_c, 1, 22, 0
1, 68658, Note_on_c, 15, 63, 0
1, 68658, Note_on_c, 15, 67, 0
1, 68658, Note_on_c, 15, 70, 0
1, 68660, Note_on_c, 5, 63, 73
1, 68663, Note_on_c, 5, 60, 81
1, 68667, Note_on_c, 2, 55, 72
1, 68667, Note_on_c, 2, 67, 72
1, 68668, Note_on_c, 4, 67, 112
1, 68668, Note_on_c, 2, 68, 0
1, 68670, Note_on_c, 6, 60, 81
1, 68670, Note_on_c, 6, 63, 75
1, 68672, Note_on_c, 1, 24, 127
1, 68672, Note_on_c, 9, 34, 115
1, 68672, Note_on_c, 9, 36, 127
1, 68672, Note_on_c, 9, 38, 127
1, 68672, Note_on_c, 9, 42, 100
1, 68672, Note_on_c, 15, 60, 1
1, 68672, Note_on_c, 15, 63, 1
1, 68679, Note_on_c, 2, 56, 0
1, 68693, Pitch_bend_c, 9, 6210
1, 68698, Note_on_c, 3, 63, 0
1, 68699, Note_on_c, 9, 34, 0
1, 68699, Note_on_c, 9, 36, 0
1, 68699, Note_on_c, 9, 38, 0
1, 68699, Note_on_c, 9, 42, 0
1, 68713, Pitch_bend_c, 9, 8192
1, 68790, Note_on_c, 6, 62, 81
1, 68790, Note_on_c, 6, 65, 70
1, 68791, Note_on_c, 6, 63, 0
1, 68792, Lyric_t, "\001"
1, 68792, Note_on_c, 3, 63, 99
1, 68792, Control_c, 4, 1, 127
1, 68792, Note_on_c, 15, 62, 1
1, 68792, Note_on_c, 15, 65, 1
1, 68793, Note_on_c, 5, 63, 0
1, 68798, Note_on_c, 5, 65, 79
1, 68804, Note_on_c, 5, 62, 69
1, 68804, Note_on_c, 5, 60, 0
1, 68805, Note_on_c, 15, 63, 0
1, 68813, Note_on_c, 15, 60, 0
1, 68814, Note_on_c, 3, 63, 0
1, 68820, Note_on_c, 6, 60, 0
1, 68822, Note_on_c, 1, 24, 0
1, 68883, Control_c, 4, 1, 125
1, 68899, Note_on_c, 5, 65, 0
1, 68900, Note_on_c, 6, 65, 0
1, 68909, Note_on_c, 15, 62, 0
1, 68909, Note_on_c, 15, 65, 0
1, 68910, Note_on_c, 5, 67, 74
1, 68910, Note_on_c, 6, 63, 79
1, 68910, Note_on_c, 6, 67, 83
1, 68912, Lyric_t, "\001"
1, 68912, Note_on_c, 3, 63, 127
1, 68912, Note_on_c, 9, 42, 73
1, 68912, Note_on_c, 15, 63, 1
1, 68912, Note_on_c, 15, 67, 1
1, 68913, Control_c, 4, 1, 0
1, 68913, Control_c, 6, 10, 84
1, 68919, Note_on_c, 5, 62, 0
1, 68920, Note_on_c, 5, 63, 80
1, 68932, Note_on_c, 6, 62, 0
1, 68939, Note_on_c, 9, 42, 0
1, 68971, Note_on_c, 4, 67, 0
1, 68973, Pitch_bend_c, 4, 8040
1, 68993, Pitch_bend_c, 4, 0
1, 69007, Note_on_c, 4, 65, 113
1, 69024, Pitch_bend_c, 4, 8192
1, 69054, Note_on_c, 3, 63, 0
1, 69058, Note_on_c, 4, 65, 0
1, 69062, Lyric_t, "\001"
1, 69062, Note_on_c, 3, 63, 99
1, 69068, Note_on_c, 4, 67, 114
1, 69084, Note_on_c, 3, 63, 0
1, 69098, Note_on_c, 2, 55, 0
1, 69108, Note_on_c, 6, 63, 0
1, 69109, Pitch_bend_c, 3, 7560
1, 69111, Note_on_c, 4, 67, 0
1, 69115, Pitch_bend_c, 9, 0
1, 69123, Note_on_c, 6, 67, 0
1, 69126, Note_on_c, 5, 67, 0
1, 69129, Pitch_bend_c, 3, 0
1, 69133, Note_on_c, 5, 65, 84
1, 69133, Note_on_c, 5, 63, 0
1, 69137, Note_on_c, 4, 65, 101
1, 69137, Note_on_c, 5, 62, 91
1, 69144, Note_on_c, 2, 67, 0
1, 69147, Note_on_c, 2, 53, 72
1, 69147, Note_on_c, 2, 65, 72
1, 69149, Note_on_c, 15, 63, 0
1, 69149, Note_on_c, 15, 67, 0
1, 69150, Note_on_c, 6, 60, 74
1, 69150, Note_on_c, 6, 65, 86
1, 69152, Lyric_t, "\001"
1, 69152, Note_on_c, 1, 31, 127
1, 69152, Note_on_c, 3, 62, 127
1, 69152, Note_on_c, 9, 36, 127
1, 69152, Note_on_c, 9, 44, 78
1, 69152, Note_on_c, 15, 62, 1
1, 69152, Note_on_c, 15, 65, 1
1, 69159, Pitch_bend_c, 3, 8192
1, 69179, Note_on_c, 9, 36, 0
1, 69179, Note_on_c, 9, 44, 0
1, 69272, Note_on_c, 9, 42, 88
1, 69273, Control_c, 6, 10, 44
1, 69299, Note_on_c, 9, 42, 0
1, 69304, Note_on_c, 3, 62, 0
1, 69338, Control_c, 4, 1, 127
1, 69392, Lyric_t, "\001"
1, 69392, Note_on_c, 3, 62, 127
1, 69392, Note_on_c, 9, 44, 74
1, 69419, Note_on_c, 9, 44, 0
1, 69450, Control_c, 4, 1, 0
1, 69490, Note_on_c, 5, 58, 85
1, 69494, Note_on_c, 5, 65, 0
1, 69503, Note_on_c, 4, 65, 0
1, 69507, Note_on_c, 4, 62, 99
1, 69510, Note_on_c, 6, 50, 75
1, 69510, Note_on_c, 6, 58, 63
1, 69532, Note_on_c, 3, 62, 0
1, 69555, Note_on_c, 4, 62, 0
1, 69618, Note_on_c, 1, 31, 0
1, 69632, Lyric_t, "\001"
1, 69632, Note_on_c, 1, 34, 127
1, 69632, Note_on_c, 3, 62, 127
1, 69632, Note_on_c, 9, 38, 127
1, 69632, Note_on_c, 9, 42, 100
1, 69633, Control_c, 6, 10, 84
1, 69659, Note_on_c, 9, 38, 0
1, 69659, Note_on_c, 9, 42, 0
1, 69744, Note_on_c, 1, 34, 0
1, 69764, Note_on_c, 3, 62, 0
1, 69849, Note_on_c, 5, 62, 0
1, 69870, Note_on_c, 9, 36, 65
1, 69872, Lyric_t, "\001"
1, 69872, Note_on_c, 3, 62, 127
1, 69872, Note_on_c, 5, 53, 80
1, 69872, Note_on_c, 9, 42, 73
1, 69872, Note_on_c, 10, 15, 94
1, 69897, Note_on_c, 9, 36, 0
1, 69899, Note_on_c, 9, 42, 0
1, 69899, Note_on_c, 10, 15, 0
1, 69993, Control_c, 6, 10, 44
1, 69998, Note_on_c, 3, 62, 0
1, 70048, Pitch_bend_c, 3, 8130
1, 70068, Pitch_bend_c, 3, 1260
1, 70088, Pitch_bend_c, 3, 1290
1, 70108, Pitch_bend_c, 3, 8192
1, 70112, Lyric_t, "\001"
1, 70112, Lyric_t, "\001"
1, 70112, Note_on_c, 3, 62, 127
1, 70112, Note_on_c, 9, 36, 127
1, 70112, Note_on_c, 9, 44, 78
1, 70139, Note_on_c, 9, 36, 0
1, 70139, Note_on_c, 9, 44, 0
1, 70213, Pitch_bend_c, 4, 0
1, 70217, Note_on_c, 3, 62, 0
1, 70227, Note_on_c, 4, 65, 117
1, 70232, Note_on_c, 9, 42, 88
1, 70253, Pitch_bend_c, 4, 8192
1, 70259, Note_on_c, 9, 42, 0
1, 70323, Pitch_bend_c, 4, 0
1, 70347, Note_on_c, 4, 67, 102
1, 70347, Note_on_c, 4, 65, 0
1, 70352, Note_on_c, 9, 44, 74
1, 70353, Control_c, 6, 10, 84
1, 70363, Pitch_bend_c, 4, 8192
1, 70379, Note_on_c, 9, 44, 0
1, 70430, Note_on_c, 4, 67, 0
1, 70462, Note_on_c, 5, 53, 83
1, 70469, Note_on_c, 4, 68, 116
1, 70469, Note_on_c, 15, 62, 0
1, 70469, Note_on_c, 15, 65, 0
1, 70472, Lyric_t, "\001"
1, 70472, Note_on_c, 1, 22, 127
1, 70472, Note_on_c, 3, 58, 109
1, 70472, Note_on_c, 15, 70, 1
1, 70476, Note_on_c, 6, 60, 0
1, 70478, Note_on_c, 6, 65, 0
1, 70490, Note_on_c, 5, 53, 0
1, 70493, Note_on_c, 5, 58, 0
1, 70584, Pitch_bend_c, 5, 12302
1, 70589, Note_on_c, 1, 22, 0
1, 70592, Note_on_c, 1, 24, 127
1, 70592, Note_on_c, 9, 38, 127
1, 70592, Note_on_c, 9, 42, 100
1, 70605, Pitch_bend_c, 5, 16383
1, 70613, Note_on_c, 3, 58, 0
1, 70619, Note_on_c, 9, 38, 0
1, 70619, Note_on_c, 9, 42, 0
1, 70672, Note_on_c, 4, 68, 0
1, 70699, Pitch_bend_c, 4, 0
1, 70710, Note_on_c, 6, 53, 70
1, 70710, Note_on_c, 6, 56, 49
1, 70710, Note_on_c, 6, 58, 60
1, 70710, Note_on_c, 6, 62, 62
1, 70712, Lyric_t, "\001"
1, 70712, Note_on_c, 3, 58, 123
1, 70712, Note_on_c, 4, 65, 126
1, 70713, Control_c, 6, 10, 44
1, 70740, Pitch_bend_c, 4, 8192
1, 70752, Note_on_c, 1, 24, 0
1, 70759, Note_on_c, 3, 58, 0
1, 70763, Note_on_c, 4, 65, 0
1, 70772, Note_on_c, 4, 63, 95
1, 70789, Note_on_c, 5, 53, 0
1, 70800, Pitch_bend_c, 5, 15902
1, 70822, Pitch_bend_c, 5, 8192
1, 70827, Note_on_c, 4, 60, 97
1, 70827, Note_on_c, 5, 65, 92
1, 70829, Note_on_c, 15, 70, 0
1, 70829, Note_on_c, 4, 63, 0
1, 70832, Lyric_t, "\001"
1, 70832, Note_on_c, 3, 60, 127
1, 70832, Note_on_c, 9, 42, 73
1, 70832, Note_on_c, 15, 63, 1
1, 70832, Note_on_c, 15, 68, 1
1, 70859, Note_on_c, 9, 42, 0
1, 70861, Note_on_c, 6, 58, 0
1, 70870, Note_on_c, 6, 50, 0
1, 70929, Note_on_c, 4, 60, 0
1, 70944, Note_on_c, 3, 60, 0
1, 70949, Note_on_c, 4, 58, 120
1, 70949, Note_on_c, 15, 68, 0
1, 70952, Lyric_t, "\001"
1, 70952, Note_on_c, 3, 58, 96
1, 70952, Note_on_c, 15, 67, 1
1, 70965, Pitch_bend_c, 5, 0
1, 70977, Note_on_c, 4, 58, 0
1, 70987, Note_on_c, 3, 58, 0
1, 71018, Note_on_c, 6, 62, 0
1, 71028, Note_on_c, 6, 58, 0
1, 71033, Note_on_c, 6, 53, 0
1, 71034, Note_on_c, 2, 53, 0
1, 71034, Note_on_c, 2, 65, 0
1, 71035, Note_on_c, 6, 56, 0
1, 71050, Pitch_bend_c, 3, 0
1, 71067, Note_on_c, 2, 51, 72
1, 71067, Note_on_c, 2, 63, 72
1, 71069, Note_on_c, 15, 63, 0
1, 71070, Note_on_c, 6, 60, 78
1, 71070, Note_on_c, 6, 63, 81
1, 71070, Note_on_c, 6, 67, 84
1, 71072, Lyric_t, "\001"
1, 71072, Note_on_c, 1, 29, 127
1, 71072, Note_on_c, 3, 63, 127
1, 71072, Note_on_c, 9, 36, 127
1, 71072, Note_on_c, 9, 44, 78
1, 71072, Note_on_c, 15, 63, 1
1, 71073, Control_c, 6, 10, 84
1, 71083, Pitch_bend_c, 3, 8192
1, 71099, Note_on_c, 9, 36, 0
1, 71099, Note_on_c, 9, 44, 0
1, 71192, Note_on_c, 9, 42, 88
1, 71208, Note_on_c, 3, 63, 0
1, 71213, Control_c, 5, 1, 4
1, 71219, Note_on_c, 9, 42, 0
1, 71243, Control_c, 5, 1, 39
1, 71275, Control_c, 5, 1, 101
1, 71305, Control_c, 5, 1, 118
1, 71312, Lyric_t, "\001"
1, 71312, Note_on_c, 3, 63, 127
1, 71312, Note_on_c, 9, 44, 74
1, 71337, Control_c, 5, 1, 125
1, 71339, Note_on_c, 9, 44, 0
1, 71409, Control_c, 5, 1, 127
1, 71432, Note_on_c, 3, 63, 0
1, 71433, Control_c, 6, 10, 44
1, 71472, Control_c, 5, 1, 125
1, 71502, Control_c, 5, 1, 0
1, 71514, Note_on_c, 5, 65, 0
1, 71532, Note_on_c, 1, 29, 0
1, 71533, Pitch_bend_c, 5, 8192
1, 71550, Note_on_c, 11, 63, 102
1, 71550, Note_on_c, 11, 67, 123
1, 71550, Note_on_c, 11, 70, 109
1, 71552, Lyric_t, "\001"
1, 71552, Note_on_c, 1, 31, 127
1, 71552, Note_on_c, 3, 63, 127
1, 71552, Note_on_c, 9, 36, 127
1, 71552, Note_on_c, 9, 38, 127
1, 71552, Note_on_c, 9, 42, 100
1, 71553, Pitch_bend_c, 5, 8192
1, 71579, Note_on_c, 9, 36, 0
1, 71579, Note_on_c, 9, 38, 0
1, 71579, Note_on_c, 9, 42, 0
1, 71674, Note_on_c, 3, 63, 0
1, 71697, Note_on_c, 1, 31, 0
1, 71701, Note_on_c, 11, 70, 0
1, 71702, Note_on_c, 11, 63, 0
1, 71710, Note_on_c, 11, 63, 107
1, 71710, Note_on_c, 11, 67, 108
1, 71710, Note_on_c, 11, 70, 108
1, 71713, Note_on_c, 11, 67, 0
1, 71752, Pitch_bend_c, 4, 8130
1, 71772, Pitch_bend_c, 4, 0
1, 71784, Note_on_c, 4, 63, 127
1, 71792, Lyric_t, "\001"
1, 71792, Note_on_c, 3, 63, 127
1, 71792, Note_on_c, 9, 42, 73
1, 71793, Control_c, 6, 10, 84
1, 71813, Pitch_bend_c, 4, 8192
1, 71819, Note_on_c, 9, 42, 0
1, 71836, Note_on_c, 11, 70, 0
1, 71844, Note_on_c, 4, 63, 0
1, 71845, Note_on_c, 11, 63, 0
1, 71855, Note_on_c, 11, 67, 0
1, 71870, Note_on_c, 11, 63, 98
1, 71870, Note_on_c, 11, 67, 98
1, 71870, Note_on_c, 11, 70, 98
1, 71909, Note_on_c, 4, 65, 127
1, 71910, Note_on_c, 3, 63, 0
1, 71957, Note_on_c, 4, 65, 0
1, 71993, Note_on_c, 11, 70, 0
1, 71995, Pitch_bend_c, 3, 7290
1, 72000, Note_on_c, 11, 67, 0
1, 72012, Note_on_c, 11, 63, 0
1, 72015, Pitch_bend_c, 3, 0
1, 72029, Pitch_bend_c, 4, 0
1, 72030, Note_on_c, 11, 63, 89
1, 72030, Note_on_c, 11, 67, 90
1, 72030, Note_on_c, 11, 70, 90
1, 72032, Lyric_t, "\001"
1, 72032, Lyric_t, "\001"
1, 72032, Note_on_c, 1, 24, 127
1, 72032, Note_on_c, 3, 63, 127
1, 72032, Note_on_c, 9, 36, 127
1, 72032, Note_on_c, 9, 44, 78
1, 72033, Note_on_c, 4, 67, 127
1, 72045, Pitch_bend_c, 3, 8192
1, 72049, Pitch_bend_c, 4, 8192
1, 72059, Note_on_c, 9, 36, 0
1, 72059, Note_on_c, 9, 44, 0
1, 72134, Note_on_c, 3, 63, 0
1, 72134, Note_on_c, 4, 67, 0
1, 72152, Note_on_c, 9, 38, 92
1, 72152, Note_on_c, 9, 42, 88
1, 72153, Control_c, 6, 10, 44
1, 72159, Note_on_c, 4, 67, 108
1, 72163, Note_on_c, 11, 70, 0
1, 72165, Note_on_c, 11, 63, 0
1, 72179, Note_on_c, 9, 38, 0
1, 72179, Note_on_c, 9, 42, 0
1, 72183, Note_on_c, 11, 67, 0
1, 72189, Note_on_c, 1, 24, 0
1, 72190, Note_on_c, 11, 63, 81
1, 72190, Note_on_c, 11, 67, 81
1, 72190, Note_on_c, 11, 70, 81
1, 72230, Note_on_c, 4, 67, 0
1, 72238, Pitch_bend_c, 12, 4410
1, 72258, Pitch_bend_c, 12, 0
1, 72269, Note_on_c, 12, 77, 88
1, 72272, Note_on_c, 9, 36, 127
1, 72272, Note_on_c, 9, 44, 74
1, 72273, Note_on_c, 12, 72, 80
1, 72285, Note_on_c, 4, 63, 127
1, 72299, Pitch_bend_c, 12, 3660
1, 72299, Note_on_c, 9, 36, 0
1, 72299, Note_on_c, 9, 44, 0
1, 72320, Pitch_bend_c, 12, 8192
1, 72332, Note_on_c, 11, 63, 0
1, 72337, Note_on_c, 11, 70, 0
1, 72346, Note_on_c, 11, 67, 0
1, 72350, Note_on_c, 11, 63, 72
1, 72350, Note_on_c, 11, 67, 72
1, 72350, Note_on_c, 11, 70, 72
1, 72373, Note_on_c, 4, 63, 0
1, 72389, Note_on_c, 15, 67, 0
1, 72389, Note_on_c, 15, 63, 0
1, 72392, Lyric_t, "\001"
1, 72392, Note_on_c, 1, 24, 127
1, 72392, Note_on_c, 3, 58, 116
1, 72403, Pitch_bend_c, 12, 4470
1, 72405, Note_on_c, 4, 65, 110
1, 72415, Note_on_c, 6, 67, 0
1, 72416, Note_on_c, 6, 63, 0
1, 72423, Pitch_bend_c, 12, 0
1, 72427, Note_on_c, 6, 60, 0
1, 72445, Note_on_c, 4, 65, 0
1, 72495, Note_on_c, 11, 63, 0
1, 72497, Note_on_c, 11, 70, 0
1, 72503, Note_on_c, 11, 67, 0
1, 72508, Pitch_bend_c, 4, 0
1, 72510, Note_on_c, 6, 60, 70
1, 72510, Note_on_c, 6, 64, 74
1, 72510, Note_on_c, 6, 68, 67
1, 72510, Note_on_c, 11, 63, 63
1, 72510, Note_on_c, 11, 67, 64
1, 72510, Note_on_c, 11, 70, 64
1, 72512, Note_on_c, 9, 38, 127
1, 72512, Note_on_c, 9, 42, 100
1, 72513, Control_c, 6, 10, 84
1, 72519, Note_on_c, 4, 67, 127
1, 72529, Note_on_c, 3, 58, 0
1, 72538, Pitch_bend_c, 4, 8192
1, 72539, Note_on_c, 9, 38, 0
1, 72539, Note_on_c, 9, 42, 0
1, 72578, Control_c, 12, 1, 121
1, 72619, Control_c, 12, 1, 127
1, 72632, Lyric_t, "\001"
1, 72632, Note_on_c, 3, 58, 112
1, 72648, Note_on_c, 11, 63, 0
1, 72651, Note_on_c, 4, 67, 0
1, 72657, Note_on_c, 11, 70, 0
1, 72661, Note_on_c, 11, 67, 0
1, 72670, Note_on_c, 11, 63, 54
1, 72670, Note_on_c, 11, 67, 54
1, 72670, Note_on_c, 11, 70, 55
1, 72684, Note_on_c, 3, 58, 0
1, 72710, Note_on_c, 1, 24, 0
1, 72752, Lyric_t, "\001"
1, 72752, Note_on_c, 1, 27, 127
1, 72752, Note_on_c, 3, 60, 127
1, 72752, Note_on_c, 4, 63, 127
1, 72752, Note_on_c, 9, 42, 73
1, 72779, Note_on_c, 9, 42, 0
1, 72813, Note_on_c, 11, 67, 0
1, 72817, Note_on_c, 11, 63, 0
1, 72828, Note_on_c, 11, 70, 0
1, 72830, Note_on_c, 11, 63, 45
1, 72830, Note_on_c, 11, 67, 46
1, 72830, Note_on_c, 11, 70, 45
1, 72839, Note_on_c, 4, 63, 0
1, 72864, Note_on_c, 1, 27, 0
1, 72870, Note_on_c, 3, 60, 0
1, 72872, Lyric_t, "\001"
1, 72872, Note_on_c, 3, 58, 96
1, 72873, Control_c, 6, 10, 44
1, 72873, Note_on_c, 12, 72, 0
1, 72881, Note_on_c, 12, 77, 0
1, 72888, Control_c, 12, 1, 0
1, 72894, Note_on_c, 2, 63, 0
1, 72898, Pitch_bend_c, 12, 8192
1, 72909, Pitch_bend_c, 12, 4650
1, 72913, Note_on_c, 2, 51, 0
1, 72915, Note_on_c, 3, 58, 0
1, 72930, Pitch_bend_c, 12, 0
1, 72933, Note_on_c, 6, 60, 0
1, 72946, Note_on_c, 11, 70, 0
1, 72948, Note_on_c, 6, 64, 0
1, 72948, Note_on_c, 6, 68, 0
1, 72953, Note_on_c, 11, 63, 0
1, 72956, Note_on_c, 11, 67, 0
1, 72978, Pitch_bend_c, 3, 0
1, 72987, Note_on_c, 2, 58, 72
1, 72987, Note_on_c, 2, 70, 72
1, 72990, Note_on_c, 6, 63, 66
1, 72990, Note_on_c, 6, 67, 88
1, 72990, Note_on_c, 6, 70, 65
1, 72992, Lyric_t, "\001"
1, 72992, Note_on_c, 1, 29, 127
1, 72992, Note_on_c, 3, 63, 127
1, 72992, Note_on_c, 9, 36, 127
1, 72992, Note_on_c, 9, 44, 78
1, 72992, Note_on_c, 12, 89, 112
1, 72992, Note_on_c, 15, 63, 1
1, 72992, Note_on_c, 15, 67, 1
1, 72992, Note_on_c, 15, 70, 1
1, 73003, Note_on_c, 4, 67, 112
1, 73018, Pitch_bend_c, 3, 8192
1, 73019, Note_on_c, 9, 36, 0
1, 73019, Note_on_c, 9, 44, 0
1, 73023, Pitch_bend_c, 12, 1500
1, 73043, Pitch_bend_c, 12, 4020
1, 73063, Pitch_bend_c, 12, 5820
1, 73084, Pitch_bend_c, 12, 8192
1, 73112, Note_on_c, 9, 42, 88
1, 73128, Note_on_c, 3, 63, 0
1, 73139, Note_on_c, 9, 42, 0
1, 73144, Note_on_c, 4, 67, 0
1, 73168, Pitch_bend_c, 12, 6690
1, 73172, Note_on_c, 12, 89, 0
1, 73188, Pitch_bend_c, 12, 2580
1, 73208, Pitch_bend_c, 12, 0
1, 73232, Lyric_t, "\001"
1, 73232, Note_on_c, 3, 63, 123
1, 73232, Note_on_c, 9, 44, 74
1, 73232, Note_on_c, 12, 89, 110
1, 73233, Control_c, 6, 10, 84
1, 73237, Note_on_c, 4, 67, 99
1, 73259, Note_on_c, 9, 44, 0
1, 73270, Pitch_bend_c, 12, 810
1, 73290, Pitch_bend_c, 12, 4530
1, 73312, Pitch_bend_c, 12, 4830
1, 73332, Pitch_bend_c, 12, 6480
1, 73353, Pitch_bend_c, 12, 8192
1, 73355, Note_on_c, 3, 63, 0
1, 73368, Note_on_c, 4, 67, 0
1, 73403, Note_on_c, 12, 89, 0
1, 73424, Pitch_bend_c, 12, 3630
1, 73438, Note_on_c, 1, 29, 0
1, 73445, Pitch_bend_c, 12, 0
1, 73465, Note_on_c, 4, 67, 97
1, 73472, Lyric_t, "\001"
1, 73472, Note_on_c, 1, 31, 127
1, 73472, Note_on_c, 3, 63, 127
1, 73472, Note_on_c, 9, 38, 127
1, 73472, Note_on_c, 9, 42, 100
1, 73472, Note_on_c, 12, 89, 82
1, 73499, Note_on_c, 9, 38, 0
1, 73499, Note_on_c, 9, 42, 0
1, 73518, Pitch_bend_c, 12, 2910
1, 73538, Pitch_bend_c, 12, 4860
1, 73558, Pitch_bend_c, 12, 4920
1, 73579, Pitch_bend_c, 12, 6300
1, 73593, Control_c, 6, 10, 44
1, 73595, Note_on_c, 3, 63, 0
1, 73599, Pitch_bend_c, 12, 6960
1, 73610, Note_on_c, 1, 31, 0
1, 73611, Note_on_c, 4, 67, 0
1, 73620, Pitch_bend_c, 12, 7020
1, 73642, Pitch_bend_c, 12, 7320
1, 73648, Note_on_c, 12, 89, 0
1, 73662, Pitch_bend_c, 12, 3840
1, 73682, Pitch_bend_c, 12, 0
1, 73697, Note_on_c, 4, 67, 75
1, 73710, Note_on_c, 9, 36, 65
1, 73712, Lyric_t, "\001"
1, 73712, Note_on_c, 3, 63, 122
1, 73712, Note_on_c, 9, 42, 73
1, 73712, Note_on_c, 10, 15, 94
1, 73712, Note_on_c, 12, 89, 86
1, 73737, Note_on_c, 9, 36, 0
1, 73739, Note_on_c, 9, 42, 0
1, 73739, Note_on_c, 10, 15, 0
1, 73754, Pitch_bend_c, 12, 2220
1, 73774, Pitch_bend_c, 12, 3030
1, 73795, Pitch_bend_c, 12, 3780
1, 73817, Pitch_bend_c, 12, 4770
1, 73828, Note_on_c, 4, 67, 0
1, 73830, Note_on_c, 3, 63, 0
1, 73837, Pitch_bend_c, 12, 5820
1, 73858, Pitch_bend_c, 12, 6570
1, 73878, Pitch_bend_c, 12, 6810
1, 73889, Note_on_c, 12, 89, 0
1, 73898, Pitch_bend_c, 12, 6000
1, 73919, Pitch_bend_c, 12, 2010
1, 73944, Note_on_c, 2, 70, 0
1, 73947, Note_on_c, 2, 56, 72
1, 73947, Note_on_c, 2, 68, 72
1, 73948, Pitch_bend_c, 12, 60
1, 73949, Note_on_c, 2, 58, 0
1, 73952, Lyric_t, "\001"
1, 73952, Lyric_t, "\001"
1, 73952, Note_on_c, 3, 63, 127
1, 73952, Note_on_c, 9, 36, 127
1, 73952, Note_on_c, 9, 44, 78
1, 73952, Note_on_c, 12, 89, 73
1, 73953, Control_c, 6, 10, 84
1, 73957, Note_on_c, 4, 67, 50
1, 73979, Note_on_c, 9, 36, 0
1, 73979, Note_on_c, 9, 44, 0
1, 73992, Pitch_bend_c, 12, 960
1, 74012, Pitch_bend_c, 12, 3840
1, 74033, Pitch_bend_c, 12, 4560
1, 74035, Note_on_c, 3, 63, 0
1, 74049, Note_on_c, 4, 67, 0
1, 74053, Pitch_bend_c, 12, 5130
1, 74072, Note_on_c, 9, 42, 88
1, 74073, Pitch_bend_c, 12, 6660
1, 74094, Pitch_bend_c, 12, 7170
1, 74099, Note_on_c, 9, 42, 0
1, 74134, Note_on_c, 12, 89, 0
1, 74135, Pitch_bend_c, 12, 7230
1, 74155, Pitch_bend_c, 12, 4650
1, 74177, Pitch_bend_c, 12, 1290
1, 74192, Note_on_c, 5, 55, 72
1, 74192, Note_on_c, 9, 44, 74
1, 74192, Note_on_c, 12, 89, 62
1, 74198, Pitch_bend_c, 12, 210
1, 74204, Note_on_c, 5, 58, 72
1, 74218, Pitch_bend_c, 12, 180
1, 74219, Note_on_c, 9, 44, 0
1, 74238, Pitch_bend_c, 12, 2580
1, 74258, Pitch_bend_c, 12, 4230
1, 74279, Pitch_bend_c, 12, 4680
1, 74299, Pitch_bend_c, 12, 5820
1, 74303, Pitch_bend_c, 4, 7740
1, 74312, Lyric_t, "\001"
1, 74312, Note_on_c, 1, 24, 127
1, 74312, Note_on_c, 3, 58, 97
1, 74312, Note_on_c, 5, 67, 72
1, 74313, Control_c, 6, 10, 44
1, 74317, Note_on_c, 5, 55, 0
1, 74320, Pitch_bend_c, 12, 6240
1, 74321, Note_on_c, 5, 58, 0
1, 74322, Pitch_bend_c, 3, 0
1, 74322, Note_on_c, 5, 70, 72
1, 74323, Pitch_bend_c, 4, 0
1, 74335, Note_on_c, 4, 70, 105
1, 74340, Pitch_bend_c, 12, 6300
1, 74352, Pitch_bend_c, 3, 8192
1, 74362, Pitch_bend_c, 12, 6570
1, 74363, Pitch_bend_c, 4, 8192
1, 74377, Note_on_c, 2, 56, 0
1, 74378, Note_on_c, 12, 89, 0
1, 74382, Pitch_bend_c, 12, 6000
1, 74403, Pitch_bend_c, 12, 4920
1, 74404, Note_on_c, 2, 68, 0
1, 74423, Pitch_bend_c, 12, 4980
1, 74427, Note_on_c, 2, 55, 72
1, 74427, Note_on_c, 2, 67, 72
1, 74429, Note_on_c, 1, 24, 0
1, 74432, Note_on_c, 1, 27, 127
1, 74432, Note_on_c, 9, 38, 127
1, 74432, Note_on_c, 9, 42, 100
1, 74435, Note_on_c, 6, 63, 0
1, 74443, Pitch_bend_c, 12, 7020
1, 74455, Note_on_c, 6, 67, 0
1, 74458, Note_on_c, 6, 70, 0
1, 74459, Note_on_c, 9, 38, 0
1, 74459, Note_on_c, 9, 42, 0
1, 74464, Pitch_bend_c, 12, 8192
1, 74479, Note_on_c, 3, 58, 0
1, 74508, Note_on_c, 4, 70, 0
1, 74550, Note_on_c, 6, 67, 85
1, 74550, Note_on_c, 6, 70, 71
1, 74552, Lyric_t, "\001"
1, 74552, Note_on_c, 3, 58, 94
1, 74555, Note_on_c, 4, 70, 105
1, 74582, Note_on_c, 1, 27, 0
1, 74613, Note_on_c, 3, 58, 0
1, 74657, Note_on_c, 4, 70, 0
1, 74672, Lyric_t, "\001"
1, 74672, Note_on_c, 3, 60, 127
1, 74672, Note_on_c, 5, 67, 72
1, 74672, Note_on_c, 9, 42, 73
1, 74673, Control_c, 6, 10, 84
1, 74674, Note_on_c, 5, 70, 0
1, 74677, Note_on_c, 4, 68, 91
1, 74685, Note_on_c, 5, 63, 72
1, 74685, Note_on_c, 5, 67, 0
1, 74699, Note_on_c, 9, 42, 0
1, 74782, Note_on_c, 4, 68, 0
1, 74785, Note_on_c, 3, 60, 0
1, 74787, Note_on_c, 4, 67, 91
1, 74792, Lyric_t, "\001"
1, 74792, Note_on_c, 3, 58, 88
1, 74793, Note_on_c, 5, 63, 72
1, 74793, Note_on_c, 5, 63, 0
1, 74794, Note_on_c, 5, 67, 0
1, 74802, Note_on_c, 5, 58, 72
1, 74840, Note_on_c, 3, 58, 0
1, 74867, Note_on_c, 6, 67, 0
1, 74867, Note_on_c, 6, 70, 0
1, 74888, Pitch_bend_c, 3, 0
1, 74890, Note_on_c, 4, 67, 0
1, 74907, Note_on_c, 2, 58, 72
1, 74907, Note_on_c, 2, 70, 72
1, 74910, Note_on_c, 6, 63, 72
1, 74910, Note_on_c, 6, 67, 91
1, 74910, Note_on_c, 6, 70, 73
1, 74912, Lyric_t, "\001"
1, 74912, Note_on_c, 1, 29, 127
1, 74912, Note_on_c, 3, 63, 127
1, 74912, Note_on_c, 9, 36, 127
1, 74912, Note_on_c, 9, 44, 78
1, 74915, Note_on_c, 4, 67, 106
1, 74918, Pitch_bend_c, 3, 8192
1, 74920, Note_on_c, 2, 67, 0
1, 74928, Note_on_c, 2, 55, 0
1, 74939, Note_on_c, 9, 36, 0
1, 74939, Note_on_c, 9, 44, 0
1, 74995, Note_on_c, 12, 70, 74
1, 75032, Note_on_c, 9, 42, 88
1, 75032, Note_on_c, 12, 77, 91
1, 75033, Control_c, 6, 10, 44
1, 75059, Note_on_c, 9, 42, 0
1, 75061, Note_on_c, 12, 70, 0
1, 75072, Note_on_c, 3, 63, 0
1, 75093, Note_on_c, 4, 67, 0
1, 75102, Pitch_bend_c, 3, 7800
1, 75103, Note_on_c, 12, 77, 0
1, 75122, Pitch_bend_c, 3, 0
1, 75152, Lyric_t, "\001"
1, 75152, Note_on_c, 3, 63, 125
1, 75152, Note_on_c, 9, 44, 74
1, 75158, Note_on_c, 4, 67, 95
1, 75163, Pitch_bend_c, 3, 8192
1, 75164, Note_on_c, 12, 70, 73
1, 75179, Note_on_c, 9, 44, 0
1, 75202, Note_on_c, 12, 77, 78
1, 75224, Note_on_c, 12, 70, 0
1, 75269, Note_on_c, 12, 77, 0
1, 75284, Note_on_c, 4, 67, 0
1, 75328, Note_on_c, 3, 63, 0
1, 75329, Note_on_c, 12, 70, 67
1, 75354, Pitch_bend_c, 3, 6030
1, 75365, Note_on_c, 1, 29, 0
1, 75368, Note_on_c, 12, 77, 65
1, 75374, Pitch_bend_c, 3, 2520
1, 75387, Note_on_c, 12, 70, 0
1, 75392, Lyric_t, "\001"
1, 75392, Note_on_c, 1, 31, 127
1, 75392, Note_on_c, 3, 63, 126
1, 75392, Note_on_c, 9, 38, 127
1, 75392, Note_on_c, 9, 42, 100
1, 75393, Control_c, 6, 10, 84
1, 75394, Pitch_bend_c, 3, 8192
1, 75394, Note_on_c, 4, 67, 98
1, 75419, Note_on_c, 9, 38, 0
1, 75419, Note_on_c, 9, 42, 0
1, 75433, Note_on_c, 12, 77, 0
1, 75483, Note_on_c, 12, 70, 47
1, 75499, Note_on_c, 1, 31, 0
1, 75505, Note_on_c, 4, 67, 0
1, 75524, Note_on_c, 12, 77, 58
1, 75542, Note_on_c, 3, 63, 0
1, 75545, Note_on_c, 12, 70, 0
1, 75589, Note_on_c, 12, 77, 0
1, 75622, Note_on_c, 4, 67, 87
1, 75632, Lyric_t, "\001"
1, 75632, Note_on_c, 3, 63, 127
1, 75632, Note_on_c, 9, 42, 73
1, 75640, Note_on_c, 12, 70, 42
1, 75659, Note_on_c, 9, 42, 0
1, 75673, Note_on_c, 12, 77, 47
1, 75703, Note_on_c, 12, 70, 0
1, 75733, Note_on_c, 4, 67, 0
1, 75749, Note_on_c, 12, 77, 0
1, 75753, Control_c, 6, 10, 44
1, 75753, Note_on_c, 5, 63, 0
1, 75780, Note_on_c, 3, 63, 0
1, 75785, Note_on_c, 12, 70, 35
1, 75822, Pitch_bend_c, 3, 7950
1, 75832, Note_on_c, 12, 77, 44
1, 75839, Note_on_c, 5, 58, 0
1, 75842, Pitch_bend_c, 3, 0
1, 75843, Note_on_c, 12, 70, 0
1, 75855, Note_on_c, 2, 70, 0
1, 75862, Pitch_bend_c, 3, 780
1, 75867, Note_on_c, 2, 56, 72
1, 75867, Note_on_c, 2, 68, 72
1, 75867, Note_on_c, 2, 58, 0
1, 75869, Note_on_c, 4, 67, 92
1, 75872, Lyric_t, "\001"
1, 75872, Lyric_t, "\001"
1, 75872, Note_on_c, 3, 63, 127
1, 75872, Note_on_c, 9, 36, 127
1, 75872, Note_on_c, 9, 44, 78
1, 75883, Pitch_bend_c, 3, 8192
1, 75899, Note_on_c, 9, 36, 0
1, 75899, Note_on_c, 9, 44, 0
1, 75903, Note_on_c, 12, 77, 0
1, 75939, Note_on_c, 12, 70, 24
1, 75959, Note_on_c, 4, 67, 0
1, 75973, Pitch_bend_c, 3, 7260
1, 75979, Note_on_c, 12, 77, 29
1, 75992, Note_on_c, 9, 42, 88
1, 75993, Pitch_bend_c, 3, 0
1, 75997, Note_on_c, 3, 63, 0
1, 76004, Note_on_c, 12, 70, 0
1, 76019, Note_on_c, 9, 42, 0
1, 76044, Pitch_bend_c, 3, 8192
1, 76050, Note_on_c, 12, 77, 0
1, 76066, Note_on_c, 6, 63, 0
1, 76073, Note_on_c, 6, 67, 0
1, 76073, Note_on_c, 6, 70, 0
1, 76090, Note_on_c, 12, 70, 19
1, 76112, Note_on_c, 1, 22, 127
1, 76112, Note_on_c, 9, 36, 127
1, 76112, Note_on_c, 9, 44, 74
1, 76113, Control_c, 6, 10, 84
1, 76139, Note_on_c, 9, 36, 0
1, 76139, Note_on_c, 9, 44, 0
1, 76140, Note_on_c, 12, 70, 0
1, 76145, Note_on_c, 12, 77, 28
1, 76192, Pitch_bend_c, 4, 7530
1, 76197, Pitch_bend_c, 3, 8130
1, 76201, Note_on_c, 12, 77, 0
1, 76212, Pitch_bend_c, 4, 240
1, 76217, Pitch_bend_c, 3, 0
1, 76228, Note_on_c, 4, 67, 99
1, 76232, Lyric_t, "\001"
1, 76232, Note_on_c, 3, 63, 126
1, 76233, Pitch_bend_c, 4, 2370
1, 76238, Pitch_bend_c, 3, 450
1, 76253, Pitch_bend_c, 4, 8192
1, 76258, Pitch_bend_c, 3, 8192
1, 76329, Note_on_c, 1, 22, 0
1, 76338, Note_on_c, 15, 63, 0
1, 76338, Note_on_c, 15, 67, 0
1, 76338, Note_on_c, 15, 70, 0
1, 76340, Note_on_c, 5, 63, 73
1, 76343, Note_on_c, 5, 60, 81
1, 76347, Note_on_c, 2, 55, 72
1, 76347, Note_on_c, 2, 67, 72
1, 76348, Note_on_c, 2, 68, 0
1, 76352, Note_on_c, 1, 24, 127
1, 76352, Note_on_c, 9, 34, 115
1, 76352, Note_on_c, 9, 36, 127
1, 76352, Note_on_c, 9, 38, 127
1, 76352, Note_on_c, 9, 42, 100
1, 76352, Note_on_c, 15, 60, 1
1, 76352, Note_on_c, 15, 63, 1
1, 76359, Note_on_c, 6, 63, 70
1, 76359, Note_on_c, 2, 56, 0
1, 76363, Note_on_c, 6, 60, 64
1, 76373, Pitch_bend_c, 9, 6210
1, 76374, Note_on_c, 3, 63, 0
1, 76379, Note_on_c, 9, 34, 0
1, 76379, Note_on_c, 9, 36, 0
1, 76379, Note_on_c, 9, 38, 0
1, 76379, Note_on_c, 9, 42, 0
1, 76393, Pitch_bend_c, 9, 8192
1, 76428, Note_on_c, 4, 67, 0
1, 76472, Lyric_t, "\001"
1, 76472, Note_on_c, 3, 63, 99
1, 76472, Note_on_c, 6, 62, 76
1, 76472, Note_on_c, 15, 62, 1
1, 76472, Note_on_c, 15, 65, 1
1, 76473, Control_c, 6, 10, 44
1, 76473, Note_on_c, 5, 63, 0
1, 76477, Note_on_c, 4, 67, 93
1, 76478, Note_on_c, 5, 65, 79
1, 76481, Note_on_c, 6, 63, 0
1, 76484, Note_on_c, 5, 62, 69
1, 76484, Note_on_c, 5, 60, 0
1, 76485, Note_on_c, 15, 63, 0
1, 76485, Note_on_c, 3, 63, 0
1, 76488, Note_on_c, 6, 65, 76
1, 76489, Note_on_c, 6, 60, 0
1, 76493, Note_on_c, 15, 60, 0
1, 76534, Note_on_c, 1, 24, 0
1, 76535, Note_on_c, 4, 67, 0
1, 76579, Note_on_c, 5, 65, 0
1, 76588, Note_on_c, 6, 65, 0
1, 76589, Note_on_c, 15, 62, 0
1, 76589, Note_on_c, 15, 65, 0
1, 76590, Note_on_c, 5, 67, 74
1, 76592, Lyric_t, "\001"
1, 76592, Note_on_c, 3, 63, 127
1, 76592, Note_on_c, 9, 42, 73
1, 76592, Note_on_c, 15, 63, 1
1, 76592, Note_on_c, 15, 67, 1
1, 76597, Note_on_c, 6, 67, 91
1, 76599, Note_on_c, 5, 62, 0
1, 76600, Note_on_c, 5, 63, 80
1, 76600, Note_on_c, 6, 63, 83
1, 76602, Note_on_c, 4, 67, 97
1, 76608, Note_on_c, 6, 62, 0
1, 76619, Note_on_c, 9, 42, 0
1, 76727, Lyric_t, "\001"
1, 76727, Note_on_c, 3, 63, 99
1, 76729, Note_on_c, 3, 63, 0
1, 76740, Note_on_c, 3, 63, 0
1, 76762, Note_on_c, 4, 67, 0
1, 76778, Note_on_c, 2, 55, 0
1, 76795, Pitch_bend_c, 9, 0
1, 76797, Pitch_bend_c, 3, 4620
1, 76806, Note_on_c, 5, 67, 0
1, 76813, Note_on_c, 5, 65, 84
1, 76813, Note_on_c, 5, 63, 0
1, 76817, Pitch_bend_c, 3, 0
1, 76817, Note_on_c, 5, 62, 91
1, 76818, Note_on_c, 6, 63, 0
1, 76824, Note_on_c, 2, 67, 0
1, 76824, Note_on_c, 6, 67, 0
1, 76827, Note_on_c, 2, 53, 52
1, 76827, Note_on_c, 2, 77, 67
1, 76829, Note_on_c, 15, 63, 0
1, 76829, Note_on_c, 15, 67, 0
1, 76830, Note_on_c, 6, 60, 72
1, 76830, Note_on_c, 6, 65, 74
1, 76832, Lyric_t, "\001"
1, 76832, Note_on_c, 1, 31, 127
1, 76832, Note_on_c, 3, 62, 127
1, 76832, Note_on_c, 4, 65, 105
1, 76832, Note_on_c, 9, 36, 127
1, 76832, Note_on_c, 9, 44, 78
1, 76832, Note_on_c, 15, 62, 1
1, 76832, Note_on_c, 15, 65, 1
1, 76833, Control_c, 6, 10, 84
1, 76837, Pitch_bend_c, 3, 2040
1, 76858, Pitch_bend_c, 3, 8192
1, 76859, Note_on_c, 9, 36, 0
1, 76859, Note_on_c, 9, 44, 0
1, 76952, Note_on_c, 9, 42, 88
1, 76979, Note_on_c, 9, 42, 0
1, 76995, Note_on_c, 4, 65, 0
1, 77004, Note_on_c, 3, 62, 0
1, 77072, Lyric_t, "\001"
1, 77072, Note_on_c, 3, 62, 127
1, 77072, Note_on_c, 4, 65, 107
1, 77072, Note_on_c, 9, 44, 74
1, 77099, Note_on_c, 9, 44, 0
1, 77170, Note_on_c, 5, 58, 85
1, 77174, Note_on_c, 5, 65, 0
1, 77190, Note_on_c, 6, 50, 72
1, 77190, Note_on_c, 6, 58, 62
1, 77193, Control_c, 6, 10, 44
1, 77199, Note_on_c, 4, 65, 0
1, 77206, Note_on_c, 6, 60, 0
1, 77217, Note_on_c, 3, 62, 0
1, 77253, Pitch_bend_c, 3, 7560
1, 77273, Pitch_bend_c, 3, 0
1, 77293, Pitch_bend_c, 3, 1380
1, 77304, Note_on_c, 4, 65, 108
1, 77312, Lyric_t, "\001"
1, 77312, Note_on_c, 1, 34, 127
1, 77312, Note_on_c, 3, 62, 127
1, 77312, Note_on_c, 9, 38, 127
1, 77312, Note_on_c, 9, 42, 100
1, 77313, Pitch_bend_c, 3, 8192
1, 77319, Note_on_c, 1, 31, 0
1, 77339, Note_on_c, 9, 38, 0
1, 77339, Note_on_c, 9, 42, 0
1, 77407, Note_on_c, 1, 34, 0
1, 77414, Note_on_c, 4, 65, 0
1, 77464, Note_on_c, 3, 62, 0
1, 77475, Pitch_bend_c, 3, 6720
1, 77495, Pitch_bend_c, 3, 0
1, 77527, Pitch_bend_c, 3, 1530
1, 77529, Note_on_c, 5, 62, 0
1, 77540, Note_on_c, 4, 65, 106
1, 77547, Pitch_bend_c, 3, 8192
1, 77550, Note_on_c, 9, 36, 65
1, 77552, Lyric_t, "\001"
1, 77552, Note_on_c, 3, 62, 127
1, 77552, Note_on_c, 5, 53, 80
1, 77552, Note_on_c, 9, 42, 73
1, 77552, Note_on_c, 10, 15, 94
1, 77553, Control_c, 6, 10, 84
1, 77577, Note_on_c, 9, 36, 0
1, 77579, Note_on_c, 9, 42, 0
1, 77579, Note_on_c, 10, 15, 0
1, 77650, Note_on_c, 4, 65, 0
1, 77713, Note_on_c, 3, 62, 0
1, 77759, Pitch_bend_c, 3, 0
1, 77783, Note_on_c, 4, 65, 99
1, 77790, Pitch_bend_c, 3, 930
1, 77792, Lyric_t, "\001"
1, 77792, Lyric_t, "\001"
1, 77792, Note_on_c, 3, 62, 127
1, 77792, Note_on_c, 9, 36, 127
1, 77792, Note_on_c, 9, 44, 78
1, 77810, Pitch_bend_c, 3, 8192
1, 77819, Note_on_c, 9, 36, 0
1, 77819, Note_on_c, 9, 44, 0
1, 77860, Note_on_c, 4, 65, 0
1, 77870, Note_on_c, 3, 62, 0
1, 77912, Note_on_c, 9, 42, 88
1, 77913, Control_c, 6, 10, 44
1, 77939, Note_on_c, 9, 42, 0
1, 78032, Note_on_c, 9, 44, 74
1, 78059, Note_on_c, 9, 44, 0
1, 78093, Pitch_bend_c, 4, 8010
1, 78113, Pitch_bend_c, 4, 0
1, 78142, Note_on_c, 5, 53, 83
1, 78143, Pitch_bend_c, 3, 0
1, 78148, Note_on_c, 4, 70, 109
1, 78149, Note_on_c, 15, 62, 0
1, 78149, Note_on_c, 15, 65, 0
1, 78152, Lyric_t, "\001"
1, 78152, Note_on_c, 1, 22, 127
1, 78152, Note_on_c, 3, 58, 113
1, 78152, Note_on_c, 15, 70, 1
1, 78153, Pitch_bend_c, 4, 690
1, 78170, Note_on_c, 5, 53, 0
1, 78173, Pitch_bend_c, 4, 7260
1, 78173, Note_on_c, 5, 58, 0
1, 78174, Pitch_bend_c, 3, 8192
1, 78193, Pitch_bend_c, 4, 8192
1, 78264, Pitch_bend_c, 5, 12302
1, 78265, Note_on_c, 1, 22, 0
1, 78272, Note_on_c, 1, 24, 127
1, 78272, Note_on_c, 9, 38, 127
1, 78272, Note_on_c, 9, 42, 100
1, 78273, Control_c, 6, 10, 84
1, 78285, Pitch_bend_c, 5, 16383
1, 78287, Note_on_c, 6, 58, 0
1, 78288, Note_on_c, 6, 50, 0
1, 78299, Note_on_c, 9, 38, 0
1, 78299, Note_on_c, 9, 42, 0
1, 78303, Note_on_c, 6, 65, 0
1, 78319, Note_on_c, 3, 58, 0
1, 78356, Note_on_c, 4, 70, 0
1, 78390, Note_on_c, 6, 55, 64
1, 78390, Note_on_c, 6, 58, 57
1, 78390, Note_on_c, 6, 60, 68
1, 78392, Lyric_t, "\001"
1, 78392, Note_on_c, 3, 58, 99
1, 78400, Note_on_c, 4, 70, 97
1, 78425, Note_on_c, 1, 24, 0
1, 78440, Note_on_c, 3, 58, 0
1, 78458, Note_on_c, 4, 70, 0
1, 78469, Note_on_c, 5, 53, 0
1, 78480, Pitch_bend_c, 5, 15902
1, 78502, Pitch_bend_c, 5, 8192
1, 78507, Note_on_c, 5, 65, 92
1, 78509, Note_on_c, 15, 70, 0
1, 78512, Lyric_t, "\001"
1, 78512, Note_on_c, 3, 60, 127
1, 78512, Note_on_c, 9, 42, 73
1, 78512, Note_on_c, 15, 63, 1
1, 78512, Note_on_c, 15, 68, 1
1, 78524, Note_on_c, 4, 68, 101
1, 78539, Note_on_c, 9, 42, 0
1, 78623, Note_on_c, 3, 60, 0
1, 78626, Note_on_c, 4, 68, 0
1, 78629, Note_on_c, 15, 68, 0
1, 78632, Lyric_t, "\001"
1, 78632, Note_on_c, 3, 58, 84
1, 78632, Note_on_c, 15, 67, 1
1, 78633, Control_c, 6, 10, 44
1, 78642, Note_on_c, 4, 67, 78
1, 78645, Pitch_bend_c, 5, 0
1, 78684, Note_on_c, 3, 58, 0
1, 78687, Note_on_c, 4, 67, 0
1, 78714, Note_on_c, 2, 53, 0
1, 78714, Note_on_c, 2, 77, 0
1, 78723, Pitch_bend_c, 3, 4920
1, 78730, Note_on_c, 6, 55, 0
1, 78732, Note_on_c, 6, 60, 0
1, 78735, Note_on_c, 6, 58, 0
1, 78743, Pitch_bend_c, 3, 780
1, 78747, Note_on_c, 2, 51, 52
1, 78747, Note_on_c, 2, 75, 67
1, 78749, Note_on_c, 15, 63, 0
1, 78750, Note_on_c, 6, 60, 77
1, 78750, Note_on_c, 6, 63, 83
1, 78750, Note_on_c, 6, 67, 86
1, 78752, Lyric_t, "\001"
1, 78752, Note_on_c, 1, 31, 127
1, 78752, Note_on_c, 3, 63, 123
1, 78752, Note_on_c, 9, 36, 127
1, 78752, Note_on_c, 9, 44, 78
1, 78752, Note_on_c, 15, 63, 1
1, 78762, Note_on_c, 4, 67, 93
1, 78763, Pitch_bend_c, 3, 8192
1, 78779, Note_on_c, 9, 36, 0
1, 78779, Note_on_c, 9, 44, 0
1, 78872, Note_on_c, 9, 42, 88
1, 78893, Control_c, 5, 1, 4
1, 78899, Note_on_c, 9, 42, 0
1, 78909, Note_on_c, 4, 67, 0
1, 78910, Note_on_c, 3, 63, 0
1, 78923, Control_c, 5, 1, 39
1, 78955, Control_c, 5, 1, 101
1, 78985, Control_c, 5, 1, 118
1, 78992, Lyric_t, "\001"
1, 78992, Note_on_c, 3, 63, 127
1, 78992, Note_on_c, 4, 67, 91
1, 78992, Note_on_c, 9, 44, 74
1, 78993, Control_c, 6, 10, 84
1, 79017, Control_c, 5, 1, 125
1, 79019, Note_on_c, 9, 44, 0
1, 79088, Note_on_c, 11, 67, 77
1, 79089, Control_c, 5, 1, 127
1, 79119, Note_on_c, 4, 67, 0
1, 79124, Note_on_c, 3, 63, 0
1, 79137, Note_on_c, 11, 70, 72
1, 79139, Note_on_c, 11, 67, 0
1, 79152, Control_c, 5, 1, 125
1, 79169, Pitch_bend_c, 3, 7770
1, 79174, Note_on_c, 11, 70, 0
1, 79182, Control_c, 5, 1, 0
1, 79183, Note_on_c, 11, 67, 87
1, 79189, Pitch_bend_c, 3, 0
1, 79194, Note_on_c, 5, 65, 0
1, 79213, Pitch_bend_c, 5, 8192
1, 79219, Pitch_bend_c, 3, 360
1, 79223, Note_on_c, 11, 67, 0
1, 79224, Note_on_c, 1, 31, 0
1, 79230, Note_on_c, 11, 70, 88
1, 79232, Lyric_t, "\001"
1, 79232, Note_on_c, 1, 34, 127
1, 79232, Note_on_c, 3, 63, 127
1, 79232, Note_on_c, 9, 36, 127
1, 79232, Note_on_c, 9, 38, 127
1, 79232, Note_on_c, 9, 42, 100
1, 79233, Pitch_bend_c, 5, 8192
1, 79234, Note_on_c, 4, 67, 102
1, 79240, Pitch_bend_c, 3, 8192
1, 79259, Note_on_c, 9, 36, 0
1, 79259, Note_on_c, 9, 38, 0
1, 79259, Note_on_c, 9, 42, 0
1, 79263, Note_on_c, 11, 70, 0
1, 79274, Note_on_c, 11, 67, 95
1, 79311, Note_on_c, 11, 67, 0
1, 79319, Note_on_c, 11, 70, 94
1, 79332, Note_on_c, 4, 67, 0
1, 79350, Note_on_c, 11, 70, 0
1, 79353, Control_c, 6, 10, 44
1, 79364, Note_on_c, 3, 63, 0
1, 79365, Note_on_c, 11, 67, 107
1, 79392, Note_on_c, 1, 34, 0
1, 79402, Note_on_c, 11, 67, 0
1, 79408, Note_on_c, 11, 70, 116
1, 79423, Pitch_bend_c, 3, 3420
1, 79439, Note_on_c, 11, 70, 0
1, 79443, Pitch_bend_c, 3, 0
1, 79453, Note_on_c, 11, 67, 123
1, 79463, Pitch_bend_c, 3, 1380
1, 79463, Note_on_c, 4, 67, 86
1, 79472, Lyric_t, "\001"
1, 79472, Note_on_c, 3, 63, 127
1, 79472, Note_on_c, 9, 42, 73
1, 79483, Pitch_bend_c, 3, 8192
1, 79489, Note_on_c, 11, 67, 0
1, 79497, Note_on_c, 11, 70, 127
1, 79499, Note_on_c, 9, 42, 0
1, 79529, Note_on_c, 11, 70, 0
1, 79549, Note_on_c, 11, 67, 127
1, 79553, Note_on_c, 4, 67, 0
1, 79590, Note_on_c, 11, 70, 127
1, 79594, Note_on_c, 11, 67, 0
1, 79623, Note_on_c, 3, 63, 0
1, 79625, Note_on_c, 11, 70, 0
1, 79642, Note_on_c, 11, 67, 126
1, 79670, Pitch_bend_c, 3, 7260
1, 79679, Note_on_c, 11, 67, 0
1, 79684, Note_on_c, 11, 70, 123
1, 79690, Pitch_bend_c, 3, 0
1, 79702, Note_on_c, 4, 67, 70
1, 79712, Lyric_t, "\001"
1, 79712, Lyric_t, "\001"
1, 79712, Note_on_c, 1, 24, 127
1, 79712, Note_on_c, 3, 63, 127
1, 79712, Note_on_c, 9, 36, 127
1, 79712, Note_on_c, 9, 42, 72
1, 79713, Control_c, 6, 10, 84
1, 79717, Note_on_c, 11, 70, 0
1, 79729, Note_on_c, 11, 67, 120
1, 79732, Pitch_bend_c, 3, 8192
1, 79739, Note_on_c, 9, 36, 0
1, 79739, Note_on_c, 9, 42, 0
1, 79767, Note_on_c, 11, 67, 0
1, 79772, Note_on_c, 9, 44, 50
1, 79775, Note_on_c, 11, 70, 113
1, 79785, Note_on_c, 4, 67, 0
1, 79799, Note_on_c, 9, 44, 0
1, 79803, Pitch_bend_c, 3, 5880
1, 79808, Note_on_c, 11, 70, 0
1, 79815, Note_on_c, 3, 63, 0
1, 79818, Note_on_c, 11, 67, 98
1, 79823, Pitch_bend_c, 3, 0
1, 79832, Note_on_c, 9, 38, 127
1, 79832, Note_on_c, 9, 42, 45
1, 79844, Note_on_c, 1, 24, 0
1, 79853, Pitch_bend_c, 3, 8192
1, 79855, Note_on_c, 11, 67, 0
1, 79859, Note_on_c, 9, 38, 0
1, 79859, Note_on_c, 9, 42, 0
1, 79869, Note_on_c, 11, 70, 91
1, 79892, Note_on_c, 9, 44, 44
1, 79899, Note_on_c, 11, 70, 0
1, 79907, Note_on_c, 11, 67, 91
1, 79919, Note_on_c, 9, 44, 0
1, 79948, Note_on_c, 11, 67, 0
1, 79952, Note_on_c, 9, 36, 121
1, 79952, Note_on_c, 9, 42, 65
1, 79959, Note_on_c, 11, 70, 84
1, 79979, Note_on_c, 9, 36, 0
1, 79979, Note_on_c, 9, 42, 0
1, 79991, Note_on_c, 11, 70, 0
1, 79995, Note_on_c, 11, 67, 84
1, 80012, Note_on_c, 9, 38, 93
1, 80012, Note_on_c, 9, 44, 45
1, 80038, Note_on_c, 11, 67, 0
1, 80039, Note_on_c, 9, 38, 0
1, 80039, Note_on_c, 9, 44, 0
1, 80047, Note_on_c, 11, 70, 74
1, 80069, Note_on_c, 15, 67, 0
1, 80069, Note_on_c, 15, 63, 0
1, 80072, Note_on_c, 1, 24, 127
1, 80072, Note_on_c, 9, 42, 45
1, 80073, Control_c, 6, 10, 44
1, 80078, Note_on_c, 11, 70, 0
1, 80084, Note_on_c, 11, 67, 81
1, 80099, Note_on_c, 9, 42, 0
1, 80126, Note_on_c, 11, 67, 0
1, 80130, Note_on_c, 11, 70, 70
1, 80132, Note_on_c, 9, 44, 50
1, 80159, Note_on_c, 9, 44, 0
1, 80161, Note_on_c, 11, 70, 0
1, 80172, Note_on_c, 11, 67, 76
1, 80192, Note_on_c, 9, 38, 127
1, 80192, Note_on_c, 9, 42, 93
1, 80198, Note_on_c, 4, 70, 81
1, 80202, Note_on_c, 4, 67, 106
1, 80207, Note_on_c, 4, 63, 81
1, 80210, Note_on_c, 11, 67, 0
1, 80217, Note_on_c, 11, 70, 63
1, 80219, Note_on_c, 9, 38, 0
1, 80219, Note_on_c, 9, 42, 0
1, 80223, Note_on_c, 6, 63, 0
1, 80236, Note_on_c, 6, 60, 0
1, 80245, Note_on_c, 11, 70, 0
1, 80252, Note_on_c, 6, 67, 0
1, 80253, Note_on_c, 11, 67, 71
1, 80294, Note_on_c, 11, 67, 0
1, 80310, Note_on_c, 6, 56, 87
1, 80310, Note_on_c, 6, 60, 75
1, 80310, Note_on_c, 6, 64, 83
1, 80333, Note_on_c, 4, 67, 0
1, 80338, Note_on_c, 4, 63, 0
1, 80344, Note_on_c, 4, 70, 0
1, 80409, Note_on_c, 1, 24, 0
1, 80432, Note_on_c, 1, 27, 127
1, 80432, Note_on_c, 4, 70, 88
1, 80433, Note_on_c, 4, 67, 107
1, 80433, Control_c, 6, 10, 84
1, 80439, Note_on_c, 4, 63, 90
1, 80563, Note_on_c, 1, 27, 0
1, 80574, Note_on_c, 2, 75, 0
1, 80593, Note_on_c, 2, 51, 0
1, 80618, Note_on_c, 6, 60, 0
1, 80626, Note_on_c, 6, 64, 0
1, 80630, Note_on_c, 6, 56, 0
1, 80650, Pitch_bend_c, 1, 8160
1, 80670, Pitch_bend_c, 1, 0
1, 80670, Note_on_c, 7, 65, 72
1, 80670, Note_on_c, 7, 68, 72
1, 80670, Note_on_c, 7, 72, 72
1, 80670, Note_on_c, 7, 75, 72
1, 80672, Note_on_c, 9, 36, 127
1, 80672, Note_on_c, 9, 44, 78
1, 80678, Note_on_c, 1, 37, 127
1, 80699, Note_on_c, 9, 36, 0
1, 80699, Note_on_c, 9, 44, 0
1, 80702, Pitch_bend_c, 1, 8192
1, 80792, Note_on_c, 9, 42, 88
1, 80819, Note_on_c, 9, 42, 0
1, 80853, Pitch_bend_c, 1, 0
1, 80912, Note_on_c, 9, 44, 74
1, 80939, Note_on_c, 9, 44, 0
1, 80995, Note_on_c, 1, 37, 0
1, 81002, Note_on_c, 1, 32, 127
1, 81007, Pitch_bend_c, 1, 8192
1, 81013, Pitch_bend_c, 3, 0
1, 81037, Lyric_t, "\001"
1, 81037, Note_on_c, 3, 67, 127
1, 81064, Pitch_bend_c, 3, 8192
1, 81144, Note_on_c, 3, 67, 0
1, 81149, Note_on_c, 1, 32, 0
1, 81152, Note_on_c, 9, 38, 127
1, 81152, Note_on_c, 9, 42, 100
1, 81160, Note_on_c, 1, 29, 127
1, 81162, Lyric_t, "\001"
1, 81162, Note_on_c, 3, 65, 127
1, 81179, Note_on_c, 9, 38, 0
1, 81179, Note_on_c, 9, 42, 0
1, 81224, Note_on_c, 3, 65, 0
1, 81268, Lyric_t, "\001"
1, 81268, Note_on_c, 3, 63, 126
1, 81300, Note_on_c, 3, 63, 0
1, 81373, Note_on_c, 1, 29, 0
1, 81385, Lyric_t, "\001"
1, 81385, Note_on_c, 3, 60, 127
1, 81390, Note_on_c, 9, 36, 65
1, 81392, Note_on_c, 9, 42, 73
1, 81417, Note_on_c, 9, 36, 0
1, 81419, Note_on_c, 9, 42, 0
1, 81470, Pitch_bend_c, 3, 8160
1, 81492, Pitch_bend_c, 3, 0
1, 81493, Lyric_t, "\001"
1, 81493, Note_on_c, 3, 67, 126
1, 81493, Note_on_c, 3, 60, 0
1, 81522, Pitch_bend_c, 3, 8192
1, 81609, Note_on_c, 3, 67, 0
1, 81619, Lyric_t, "\001"
1, 81619, Note_on_c, 3, 65, 127
1, 81632, Note_on_c, 9, 36, 127
1, 81632, Note_on_c, 9, 44, 78
1, 81647, Note_on_c, 4, 63, 0
1, 81650, Note_on_c, 4, 67, 0
1, 81659, Note_on_c, 9, 36, 0
1, 81659, Note_on_c, 9, 44, 0
1, 81662, Note_on_c, 4, 70, 0
1, 81662, Note_on_c, 3, 65, 0
1, 81742, Lyric_t, "\001"
1, 81742, Note_on_c, 3, 63, 125
1, 81752, Note_on_c, 9, 42, 88
1, 81778, Note_on_c, 3, 63, 0
1, 81779, Note_on_c, 9, 42, 0
1, 81835, Pitch_bend_c, 3, 0
1, 81853, Lyric_t, "\001"
1, 81853, Lyric_t, "\001"
1, 81853, Note_on_c, 3, 65, 127
1, 81872, Note_on_c, 9, 44, 74
1, 81888, Pitch_bend_c, 3, 4230
1, 81899, Note_on_c, 9, 44, 0
1, 81908, Pitch_bend_c, 3, 8192
1, 81997, Note_on_c, 1, 22, 127
1, 82032, Note_on_c, 7, 72, 0
1, 82041, Note_on_c, 7, 65, 0
1, 82046, Note_on_c, 7, 68, 0
1, 82050, Control_c, 3, 1, 127
1, 82050, Note_on_c, 7, 75, 0
1, 82107, Note_on_c, 5, 65, 88
1, 82110, Note_on_c, 7, 65, 72
1, 82110, Note_on_c, 7, 68, 72
1, 82110, Note_on_c, 7, 73, 72
1, 82112, Note_on_c, 5, 61, 87
1, 82112, Note_on_c, 9, 38, 127
1, 82112, Note_on_c, 9, 42, 100
1, 82139, Note_on_c, 9, 38, 0
1, 82139, Note_on_c, 9, 42, 0
1, 82278, Note_on_c, 1, 22, 0
1, 82293, Pitch_bend_c, 3, 6630
1, 82293, Note_on_c, 5, 65, 0
1, 82299, Note_on_c, 5, 67, 89
1, 82302, Note_on_c, 5, 63, 86
1, 82302, Note_on_c, 5, 61, 0
1, 82313, Pitch_bend_c, 3, 0
1, 82315, Note_on_c, 3, 65, 0
1, 82323, Control_c, 3, 1, 0
1, 82343, Pitch_bend_c, 3, 8192
1, 82352, Note_on_c, 9, 42, 73
1, 82363, Pitch_bend_c, 3, 8192
1, 82379, Note_on_c, 9, 42, 0
1, 82452, Note_on_c, 5, 67, 0
1, 82457, Note_on_c, 5, 68, 86
1, 82463, Note_on_c, 5, 65, 92
1, 82484, Note_on_c, 5, 63, 0
1, 82547, Pitch_bend_c, 3, 0
1, 82548, Note_on_c, 7, 65, 0
1, 82555, Note_on_c, 7, 68, 0
1, 82566, Note_on_c, 7, 73, 0
1, 82585, Lyric_t, "\001"
1, 82585, Note_on_c, 3, 65, 127
1, 82589, Note_on_c, 5, 65, 0
1, 82590, Note_on_c, 7, 60, 72
1, 82590, Note_on_c, 7, 63, 72
1, 82590, Note_on_c, 7, 67, 72
1, 82590, Note_on_c, 7, 70, 72
1, 82592, Note_on_c, 1, 24, 127
1, 82592, Note_on_c, 9, 36, 127
1, 82592, Note_on_c, 9, 44, 78
1, 82598, Pitch_bend_c, 3, 8192
1, 82598, Note_on_c, 5, 68, 0
1, 82602, Note_on_c, 5, 70, 90
1, 82607, Note_on_c, 5, 67, 99
1, 82619, Note_on_c, 9, 36, 0
1, 82619, Note_on_c, 9, 44, 0
1, 82678, Note_on_c, 3, 65, 0
1, 82712, Note_on_c, 9, 42, 88
1, 82713, Lyric_t, "\001"
1, 82713, Note_on_c, 3, 65, 127
1, 82739, Note_on_c, 9, 42, 0
1, 82789, Note_on_c, 3, 65, 0
1, 82832, Lyric_t, "\001"
1, 82832, Note_on_c, 3, 67, 127
1, 82832, Note_on_c, 9, 44, 74
1, 82859, Note_on_c, 9, 44, 0
1, 82900, Note_on_c, 3, 67, 0
1, 82928, Note_on_c, 11, 67, 77
1, 82952, Lyric_t, "\001"
1, 82952, Note_on_c, 3, 65, 127
1, 82977, Note_on_c, 11, 70, 72
1, 82979, Note_on_c, 11, 67, 0
1, 83007, Pitch_bend_c, 3, 12782
1, 83014, Note_on_c, 11, 70, 0
1, 83023, Note_on_c, 11, 67, 87
1, 83027, Pitch_bend_c, 3, 8192
1, 83027, Note_on_c, 5, 67, 0
1, 83063, Note_on_c, 11, 67, 0
1, 83068, Note_on_c, 5, 63, 92
1, 83070, Note_on_c, 11, 70, 88
1, 83072, Note_on_c, 5, 60, 97
1, 83072, Note_on_c, 9, 38, 127
1, 83072, Note_on_c, 9, 42, 100
1, 83074, Note_on_c, 5, 70, 0
1, 83099, Note_on_c, 9, 38, 0
1, 83099, Note_on_c, 9, 42, 0
1, 83103, Note_on_c, 11, 70, 0
1, 83114, Note_on_c, 11, 67, 95
1, 83151, Note_on_c, 11, 67, 0
1, 83159, Note_on_c, 11, 70, 94
1, 83167, Note_on_c, 1, 24, 0
1, 83190, Note_on_c, 11, 70, 0
1, 83205, Note_on_c, 11, 67, 107
1, 83209, Control_c, 3, 1, 127
1, 83242, Note_on_c, 11, 67, 0
1, 83248, Note_on_c, 11, 70, 116
1, 83279, Note_on_c, 11, 70, 0
1, 83293, Note_on_c, 11, 67, 123
1, 83300, Control_c, 3, 1, 0
1, 83312, Note_on_c, 9, 42, 73
1, 83314, Lyric_t, "\001"
1, 83314, Note_on_c, 3, 63, 109
1, 83319, Note_on_c, 3, 65, 0
1, 83329, Note_on_c, 11, 67, 0
1, 83337, Note_on_c, 11, 70, 127
1, 83339, Note_on_c, 9, 42, 0
1, 83369, Note_on_c, 11, 70, 0
1, 83385, Note_on_c, 3, 63, 0
1, 83389, Note_on_c, 11, 67, 127
1, 83430, Note_on_c, 11, 70, 127
1, 83432, Note_on_c, 1, 24, 127
1, 83433, Lyric_t, "\001"
1, 83433, Lyric_t, "\001"
1, 83433, Note_on_c, 3, 63, 127
1, 83434, Note_on_c, 11, 67, 0
1, 83465, Note_on_c, 11, 70, 0
1, 83474, Note_on_c, 1, 24, 0
1, 83482, Note_on_c, 11, 67, 126
1, 83519, Note_on_c, 11, 67, 0
1, 83524, Note_on_c, 11, 70, 123
1, 83552, Note_on_c, 1, 24, 127
1, 83552, Note_on_c, 9, 36, 127
1, 83552, Note_on_c, 9, 44, 78
1, 83557, Note_on_c, 11, 70, 0
1, 83564, Control_c, 3, 1, 127
1, 83569, Note_on_c, 11, 67, 120
1, 83579, Note_on_c, 9, 36, 0
1, 83579, Note_on_c, 9, 44, 0
1, 83607, Note_on_c, 11, 67, 0
1, 83615, Note_on_c, 11, 70, 113
1, 83634, Note_on_c, 5, 63, 0
1, 83634, Note_on_c, 5, 60, 0
1, 83648, Note_on_c, 11, 70, 0
1, 83658, Note_on_c, 11, 67, 98
1, 83672, Note_on_c, 9, 42, 88
1, 83695, Note_on_c, 11, 67, 0
1, 83699, Note_on_c, 9, 42, 0
1, 83708, Note_on_c, 3, 63, 0
1, 83708, Note_on_c, 1, 24, 0
1, 83709, Note_on_c, 11, 70, 91
1, 83717, Control_c, 3, 1, 0
1, 83717, Pitch_bend_c, 3, 810
1, 83737, Pitch_bend_c, 3, 8192
1, 83739, Note_on_c, 11, 70, 0
1, 83747, Note_on_c, 11, 67, 91
1, 83788, Note_on_c, 11, 67, 0
1, 83792, Note_on_c, 9, 36, 127
1, 83792, Note_on_c, 9, 44, 74
1, 83799, Note_on_c, 11, 70, 84
1, 83819, Note_on_c, 9, 36, 0
1, 83819, Note_on_c, 9, 44, 0
1, 83831, Note_on_c, 11, 70, 0
1, 83835, Note_on_c, 11, 67, 84
1, 83878, Note_on_c, 11, 67, 0
1, 83887, Note_on_c, 11, 70, 74
1, 83918, Note_on_c, 11, 70, 0
1, 83924, Note_on_c, 11, 67, 81
1, 83966, Note_on_c, 11, 67, 0
1, 83970, Note_on_c, 11, 70, 70
1, 83993, Pitch_bend_c, 3, 0
1, 84001, Note_on_c, 11, 70, 0
1, 84012, Note_on_c, 11, 67, 76
1, 84032, Lyric_t, "\001"
1, 84032, Note_on_c, 1, 24, 127
1, 84032, Note_on_c, 3, 63, 117
1, 84032, Note_on_c, 9, 34, 115
1, 84032, Note_on_c, 9, 36, 127
1, 84032, Note_on_c, 9, 38, 127
1, 84032, Note_on_c, 9, 42, 100
1, 84033, Pitch_bend_c, 3, 510
1, 84050, Note_on_c, 11, 67, 0
1, 84053, Pitch_bend_c, 3, 8192
1, 84053, Pitch_bend_c, 9, 6210
1, 84057, Note_on_c, 11, 70, 63
1, 84059, Note_on_c, 9, 34, 0
1, 84059, Note_on_c, 9, 36, 0
1, 84059, Note_on_c, 9, 38, 0
1, 84059, Note_on_c, 9, 42, 0
1, 84073, Pitch_bend_c, 9, 8192
1, 84085, Note_on_c, 11, 70, 0
1, 84093, Note_on_c, 11, 67, 71
1, 84107, Note_on_c, 3, 63, 0
1, 84134, Note_on_c, 11, 67, 0
1, 84152, Lyric_t, "\001"
1, 84152, Note_on_c, 3, 63, 120
1, 84158, Note_on_c, 1, 24, 0
1, 84198, Note_on_c, 3, 63, 0
1, 84272, Note_on_c, 9, 42, 73
1, 84274, Lyric_t, "\001"
1, 84274, Note_on_c, 3, 63, 127
1, 84299, Note_on_c, 9, 42, 0
1, 84320, Note_on_c, 3, 63, 0
1, 84392, Lyric_t, "\001"
1, 84392, Note_on_c, 3, 63, 127
1, 84435, Note_on_c, 3, 63, 0
1, 84465, Note_on_c, 7, 60, 0
1, 84473, Note_on_c, 7, 63, 0
1, 84475, Pitch_bend_c, 9, 0
1, 84477, Note_on_c, 7, 67, 0
1, 84487, Pitch_bend_c, 1, 0
1, 84488, Note_on_c, 7, 70, 0
1, 84500, Pitch_bend_c, 3, 0
1, 84505, Note_on_c, 1, 39, 127
1, 84510, Lyric_t, "\001"
1, 84510, Note_on_c, 3, 63, 127
1, 84510, Note_on_c, 7, 66, 72
1, 84510, Note_on_c, 7, 68, 72
1, 84510, Note_on_c, 7, 71, 72
1, 84510, Note_on_c, 7, 75, 72
1, 84512, Note_on_c, 9, 36, 127
1, 84512, Note_on_c, 9, 44, 78
1, 84529, Pitch_bend_c, 1, 8192
1, 84530, Pitch_bend_c, 3, 8192
1, 84539, Note_on_c, 9, 36, 0
1, 84539, Note_on_c, 9, 44, 0
1, 84623, Control_c, 3, 1, 127
1, 84632, Note_on_c, 9, 42, 88
1, 84659, Note_on_c, 9, 42, 0
1, 84683, Control_c, 3, 1, 0
1, 84690, Pitch_bend_c, 1, 0
1, 84710, Note_on_c, 3, 63, 0
1, 84739, Lyric_t, "\001"
1, 84739, Note_on_c, 3, 61, 125
1, 84752, Note_on_c, 9, 44, 74
1, 84777, Note_on_c, 3, 61, 0
1, 84779, Note_on_c, 9, 44, 0
1, 84831, Note_on_c, 1, 39, 0
1, 84842, Note_on_c, 1, 35, 126
1, 84853, Pitch_bend_c, 1, 8192
1, 84864, Lyric_t, "\001"
1, 84864, Note_on_c, 3, 61, 127
1, 84948, Control_c, 3, 1, 127
1, 84975, Note_on_c, 1, 35, 0
1, 84985, Note_on_c, 1, 32, 127
1, 84992, Note_on_c, 9, 38, 127
1, 84992, Note_on_c, 9, 42, 100
1, 85019, Note_on_c, 9, 38, 0
1, 85019, Note_on_c, 9, 42, 0
1, 85030, Control_c, 3, 1, 0
1, 85075, Note_on_c, 3, 61, 0
1, 85097, Lyric_t, "\001"
1, 85097, Note_on_c, 3, 59, 127
1, 85144, Note_on_c, 3, 59, 0
1, 85212, Lyric_t, "\001"
1, 85212, Note_on_c, 3, 61, 127
1, 85230, Note_on_c, 9, 36, 65
1, 85232, Note_on_c, 9, 42, 73
1, 85257, Note_on_c, 9, 36, 0
1, 85258, Note_on_c, 3, 61, 0
1, 85259, Note_on_c, 9, 42, 0
1, 85286, Note_on_c, 1, 32, 0
1, 85313, Pitch_bend_c, 3, 0
1, 85322, Lyric_t, "\001"
1, 85322, Lyric_t, "\001"
1, 85322, Note_on_c, 3, 63, 127
1, 85345, Pitch_bend_c, 3, 8192
1, 85459, Note_on_c, 3, 61, 109
1, 85463, Note_on_c, 3, 63, 0
1, 85472, Note_on_c, 9, 36, 127
1, 85472, Note_on_c, 9, 44, 78
1, 85494, Note_on_c, 3, 61, 0
1, 85499, Note_on_c, 9, 36, 0
1, 85499, Note_on_c, 9, 44, 0
1, 85517, Note_on_c, 3, 63, 127
1, 85592, Note_on_c, 9, 42, 88
1, 85619, Note_on_c, 9, 42, 0
1, 85639, Pitch_bend_c, 3, 7260
1, 85659, Pitch_bend_c, 3, 0
1, 85712, Note_on_c, 9, 44, 74
1, 85739, Note_on_c, 9, 44, 0
1, 85822, Control_c, 3, 1, 7
1, 85827, Note_on_c, 5, 56, 97
1, 85832, Note_on_c, 1, 25, 96
1, 85839, Note_on_c, 5, 53, 99
1, 85852, Note_on_c, 7, 66, 0
1, 85853, Control_c, 3, 1, 104
1, 85883, Control_c, 3, 1, 127
1, 85894, Note_on_c, 3, 63, 0
1, 85895, Note_on_c, 7, 75, 0
1, 85899, Note_on_c, 1, 25, 0
1, 85933, Control_c, 3, 1, 0
1, 85942, Note_on_c, 5, 56, 0
1, 85943, Pitch_bend_c, 3, 8192
1, 85947, Note_on_c, 5, 68, 116
1, 85950, Note_on_c, 7, 76, 72
1, 85952, Note_on_c, 1, 25, 127
1, 85952, Note_on_c, 9, 38, 127
1, 85952, Note_on_c, 9, 42, 100
1, 85957, Note_on_c, 5, 53, 0
1, 85960, Note_on_c, 5, 64, 95
1, 85979, Note_on_c, 9, 38, 0
1, 85979, Note_on_c, 9, 42, 0
1, 86057, Pitch_bend_c, 3, 0
1, 86067, Lyric_t, "\001"
1, 86067, Note_on_c, 3, 60, 127
1, 86089, Pitch_bend_c, 3, 8192
1, 86120, Note_on_c, 5, 68, 0
1, 86125, Note_on_c, 5, 64, 0
1, 86128, Note_on_c, 5, 66, 98
1, 86129, Note_on_c, 5, 63, 93
1, 86154, Note_on_c, 1, 25, 0
1, 86169, Note_on_c, 3, 60, 0
1, 86187, Lyric_t, "\001"
1, 86187, Note_on_c, 3, 63, 121
1, 86192, Note_on_c, 9, 42, 73
1, 86219, Note_on_c, 9, 42, 0
1, 86229, Note_on_c, 3, 63, 0
1, 86271, Note_on_c, 5, 66, 0
1, 86274, Note_on_c, 5, 63, 0
1, 86282, Note_on_c, 5, 61, 80
1, 86282, Note_on_c, 5, 64, 91
1, 86297, Lyric_t, "\001"
1, 86297, Note_on_c, 3, 63, 127
1, 86342, Note_on_c, 7, 68, 0
1, 86353, Note_on_c, 7, 71, 0
1, 86373, Note_on_c, 7, 76, 0
1, 86393, Control_c, 3, 1, 127
1, 86409, Note_on_c, 5, 64, 0
1, 86417, Note_on_c, 5, 60, 82
1, 86417, Note_on_c, 5, 63, 86
1, 86422, Note_on_c, 5, 61, 0
1, 86430, Note_on_c, 7, 67, 72
1, 86430, Note_on_c, 7, 70, 72
1, 86430, Note_on_c, 7, 72, 72
1, 86430, Note_on_c, 7, 75, 72
1, 86432, Note_on_c, 1, 32, 127
1, 86432, Note_on_c, 9, 36, 127
1, 86432, Note_on_c, 9, 44, 78
1, 86459, Note_on_c, 9, 36, 0
1, 86459, Note_on_c, 9, 44, 0
1, 86525, Control_c, 3, 1, 125
1, 86552, Note_on_c, 9, 42, 88
1, 86565, Control_c, 3, 1, 87
1, 86579, Note_on_c, 9, 42, 0
1, 86595, Control_c, 3, 1, 0
1, 86637, Note_on_c, 3, 63, 0
1, 86657, Pitch_bend_c, 3, 0
1, 86672, Note_on_c, 9, 44, 74
1, 86673, Lyric_t, "\001"
1, 86673, Note_on_c, 3, 68, 127
1, 86699, Note_on_c, 9, 44, 0
1, 86708, Pitch_bend_c, 3, 8192
1, 86741, Note_on_c, 3, 68, 0
1, 86790, Lyric_t, "\001"
1, 86790, Note_on_c, 3, 63, 127
1, 86902, Control_c, 3, 1, 127
1, 86912, Note_on_c, 9, 36, 127
1, 86912, Note_on_c, 9, 38, 127
1, 86912, Note_on_c, 9, 42, 100
1, 86939, Note_on_c, 9, 36, 0
1, 86939, Note_on_c, 9, 38, 0
1, 86939, Note_on_c, 9, 42, 0
1, 87003, Note_on_c, 3, 63, 0
1, 87013, Control_c, 3, 1, 0
1, 87085, Note_on_c, 5, 60, 0
1, 87123, Pitch_bend_c, 3, 0
1, 87139, Lyric_t, "\001"
1, 87139, Note_on_c, 3, 70, 127
1, 87152, Note_on_c, 9, 42, 73
1, 87152, Note_on_c, 5, 63, 0
1, 87157, Note_on_c, 1, 32, 0
1, 87164, Pitch_bend_c, 3, 8192
1, 87179, Note_on_c, 9, 42, 0
1, 87194, Note_on_c, 3, 70, 0
1, 87267, Lyric_t, "\001"
1, 87267, Lyric_t, "\001"
1, 87267, Note_on_c, 3, 70, 127
1, 87272, Note_on_c, 1, 27, 127
1, 87358, Note_on_c, 1, 27, 0
1, 87363, Control_c, 3, 1, 127
1, 87388, Note_on_c, 5, 60, 84
1, 87392, Note_on_c, 1, 32, 127
1, 87392, Note_on_c, 5, 56, 67
1, 87392, Note_on_c, 9, 36, 127
1, 87392, Note_on_c, 9, 42, 72
1, 87419, Note_on_c, 9, 36, 0
1, 87419, Note_on_c, 9, 42, 0
1, 87423, Control_c, 3, 1, 0
1, 87452, Note_on_c, 9, 44, 50
1, 87479, Note_on_c, 3, 72, 127
1, 87479, Note_on_c, 3, 70, 0
1, 87479, Note_on_c, 9, 44, 0
1, 87512, Note_on_c, 9, 38, 127
1, 87512, Note_on_c, 9, 42, 45
1, 87519, Note_on_c, 3, 70, 127
1, 87524, Note_on_c, 3, 72, 0
1, 87525, Note_on_c, 1, 32, 0
1, 87539, Note_on_c, 9, 38, 0
1, 87539, Note_on_c, 9, 42, 0
1, 87555, Note_on_c, 3, 70, 0
1, 87560, Note_on_c, 3, 68, 92
1, 87572, Note_on_c, 9, 44, 44
1, 87597, Note_on_c, 3, 70, 126
1, 87598, Note_on_c, 3, 68, 0
1, 87599, Note_on_c, 9, 44, 0
1, 87632, Note_on_c, 9, 36, 121
1, 87632, Note_on_c, 9, 42, 65
1, 87659, Note_on_c, 9, 36, 0
1, 87659, Note_on_c, 9, 42, 0
1, 87692, Note_on_c, 9, 38, 93
1, 87692, Note_on_c, 9, 44, 45
1, 87719, Note_on_c, 9, 38, 0
1, 87719, Note_on_c, 9, 44, 0
1, 87752, Note_on_c, 9, 42, 45
1, 87779, Note_on_c, 9, 42, 0
1, 87812, Note_on_c, 9, 44, 50
1, 87820, Note_on_c, 3, 68, 103
1, 87829, Note_on_c, 3, 70, 0
1, 87839, Note_on_c, 9, 44, 0
1, 87855, Note_on_c, 3, 67, 103
1, 87855, Note_on_c, 3, 68, 0
1, 87872, Note_on_c, 1, 32, 127
1, 87872, Note_on_c, 9, 38, 127
1, 87872, Note_on_c, 9, 42, 93
1, 87899, Note_on_c, 9, 38, 0
1, 87899, Note_on_c, 9, 42, 0
1, 87902, Note_on_c, 3, 65, 119
1, 87908, Note_on_c, 3, 67, 0
1, 87940, Note_on_c, 3, 65, 0
1, 87965, Note_on_c, 3, 63, 123
1, 88069, Note_on_c, 1, 32, 0
1, 88112, Note_on_c, 1, 27, 127
1, 88155, Note_on_c, 3, 63, 0
1, 88204, Note_on_c, 5, 60, 0
1, 88205, Note_on_c, 5, 56, 0
1, 88288, Note_on_c, 1, 27, 0
1, 88338, Note_on_c, 7, 67, 0
1, 88338, Note_on_c, 7, 72, 0
1, 88343, Pitch_bend_c, 1, 0
1, 88345, Note_on_c, 7, 70, 0
1, 88350, Note_on_c, 7, 72, 72
1, 88350, Note_on_c, 7, 75, 72
1, 88350, Note_on_c, 7, 77, 72
1, 88350, Note_on_c, 7, 80, 72
1, 88352, Note_on_c, 9, 36, 127
1, 88352, Note_on_c, 9, 44, 78
1, 88355, Note_on_c, 7, 75, 0
1, 88357, Note_on_c, 1, 37, 127
1, 88379, Note_on_c, 9, 36, 0
1, 88379, Note_on_c, 9, 44, 0
1, 88384, Pitch_bend_c, 1, 8192
1, 88472, Note_on_c, 9, 42, 88
1, 88499, Note_on_c, 9, 42, 0
1, 88547, Pitch_bend_c, 1, 0
1, 88554, Pitch_bend_c, 3, 8070
1, 88574, Pitch_bend_c, 3, 0
1, 88592, Note_on_c, 9, 44, 74
1, 88599, Lyric_t, "\001"
1, 88599, Note_on_c, 3, 68, 127
1, 88619, Note_on_c, 9, 44, 0
1, 88625, Pitch_bend_c, 3, 8192
1, 88662, Note_on_c, 3, 68, 0
1, 88683, Note_on_c, 1, 37, 0
1, 88688, Pitch_bend_c, 1, 8192
1, 88688, Note_on_c, 1, 32, 127
1, 88732, Lyric_t, "\001"
1, 88732, Note_on_c, 3, 67, 127
1, 88819, Note_on_c, 1, 32, 0
1, 88832, Note_on_c, 1, 30, 127
1, 88832, Note_on_c, 9, 38, 127
1, 88832, Note_on_c, 9, 42, 100
1, 88859, Note_on_c, 9, 38, 0
1, 88859, Note_on_c, 9, 42, 0
1, 88878, Pitch_bend_c, 3, 11822
1, 88898, Pitch_bend_c, 3, 15242
1, 88919, Pitch_bend_c, 3, 8192
1, 88952, Lyric_t, "\001"
1, 88952, Note_on_c, 3, 67, 127
1, 88984, Note_on_c, 3, 67, 0
1, 89070, Note_on_c, 9, 36, 65
1, 89072, Note_on_c, 9, 42, 73
1, 89082, Note_on_c, 1, 30, 0
1, 89087, Note_on_c, 3, 67, 0
1, 89088, Lyric_t, "\001"
1, 89088, Note_on_c, 3, 63, 105
1, 89097, Note_on_c, 9, 36, 0
1, 89099, Note_on_c, 9, 42, 0
1, 89183, Note_on_c, 3, 63, 0
1, 89213, Lyric_t, "\001"
1, 89213, Pitch_bend_c, 3, 0
1, 89213, Note_on_c, 3, 67, 127
1, 89254, Pitch_bend_c, 3, 8192
1, 89312, Note_on_c, 9, 36, 127
1, 89312, Note_on_c, 9, 44, 78
1, 89339, Note_on_c, 9, 36, 0
1, 89339, Note_on_c, 9, 44, 0
1, 89385, Note_on_c, 3, 67, 0
1, 89432, Note_on_c, 1, 28, 127
1, 89432, Note_on_c, 9, 42, 88
1, 89452, Lyric_t, "\001"
1, 89452, Lyric_t, "\001"
1, 89452, Note_on_c, 3, 63, 120
1, 89459, Note_on_c, 9, 42, 0
1, 89552, Note_on_c, 1, 30, 127
1, 89552, Note_on_c, 9, 44, 74
1, 89573, Note_on_c, 1, 28, 0
1, 89579, Note_on_c, 9, 44, 0
1, 89619, Control_c, 3, 1, 127
1, 89665, Note_on_c, 1, 30, 0
1, 89672, Note_on_c, 5, 56, 112
1, 89731, Note_on_c, 7, 77, 0
1, 89743, Note_on_c, 7, 72, 0
1, 89743, Note_on_c, 7, 80, 0
1, 89747, Note_on_c, 7, 75, 0
1, 89752, Control_c, 3, 1, 0
1, 89752, Pitch_bend_c, 3, 0
1, 89753, Note_on_c, 3, 63, 0
1, 89784, Note_on_c, 5, 56, 0
1, 89790, Note_on_c, 7, 72, 72
1, 89790, Note_on_c, 7, 75, 72
1, 89790, Note_on_c, 7, 79, 72
1, 89792, Note_on_c, 5, 61, 90
1, 89792, Note_on_c, 5, 65, 123
1, 89792, Note_on_c, 9, 38, 127
1, 89792, Note_on_c, 9, 42, 100
1, 89802, Pitch_bend_c, 3, 8192
1, 89819, Note_on_c, 9, 38, 0
1, 89819, Note_on_c, 9, 42, 0
1, 89910, Note_on_c, 1, 29, 127
1, 89928, Note_on_c, 5, 65, 0
1, 89964, Note_on_c, 5, 61, 0
1, 89992, Note_on_c, 5, 63, 97
1, 89992, Note_on_c, 5, 67, 118
1, 90032, Note_on_c, 9, 42, 73
1, 90047, Pitch_bend_c, 1, 16383
1, 90059, Note_on_c, 9, 42, 0
1, 90117, Note_on_c, 1, 29, 0
1, 90119, Note_on_c, 5, 67, 0
1, 90138, Note_on_c, 5, 63, 0
1, 90147, Lyric_t, "\001"
1, 90147, Note_on_c, 3, 63, 118
1, 90152, Note_on_c, 5, 65, 99
1, 90152, Note_on_c, 5, 68, 116
1, 90178, Pitch_bend_c, 1, 8192
1, 90198, Pitch_bend_c, 1, 8192
1, 90228, Note_on_c, 7, 72, 0
1, 90228, Note_on_c, 7, 75, 0
1, 90228, Note_on_c, 7, 79, 0
1, 90228, Note_on_c, 3, 63, 0
1, 90255, Pitch_bend_c, 3, 0
1, 90264, Note_on_c, 5, 68, 0
1, 90270, Note_on_c, 7, 63, 72
1, 90270, Note_on_c, 7, 67, 72
1, 90270, Note_on_c, 7, 70, 72
1, 90270, Note_on_c, 7, 72, 72
1, 90272, Lyric_t, "\001"
1, 90272, Note_on_c, 1, 24, 127
1, 90272, Note_on_c, 3, 65, 127
1, 90272, Note_on_c, 5, 67, 93
1, 90272, Note_on_c, 5, 70, 121
1, 90272, Note_on_c, 9, 36, 127
1, 90272, Note_on_c, 9, 44, 78
1, 90287, Pitch_bend_c, 3, 8192
1, 90299, Note_on_c, 9, 36, 0
1, 90299, Note_on_c, 9, 44, 0
1, 90307, Note_on_c, 5, 65, 0
1, 90392, Note_on_c, 9, 42, 88
1, 90407, Note_on_c, 3, 65, 0
1, 90419, Note_on_c, 9, 42, 0
1, 90462, Lyric_t, "\001"
1, 90462, Note_on_c, 3, 65, 127
1, 90512, Note_on_c, 9, 44, 74
1, 90539, Note_on_c, 9, 44, 0
1, 90564, Note_on_c, 5, 70, 0
1, 90569, Note_on_c, 3, 65, 0
1, 90592, Note_on_c, 5, 63, 88
1, 90592, Note_on_c, 5, 67, 95
1, 90608, Note_on_c, 5, 67, 0
1, 90620, Lyric_t, "\001"
1, 90620, Note_on_c, 3, 68, 127
1, 90649, Note_on_c, 5, 67, 0
1, 90663, Note_on_c, 5, 63, 0
1, 90672, Note_on_c, 5, 61, 80
1, 90672, Note_on_c, 5, 65, 102
1, 90712, Note_on_c, 3, 68, 0
1, 90744, Note_on_c, 5, 65, 0
1, 90745, Note_on_c, 5, 61, 0
1, 90752, Note_on_c, 5, 60, 87
1, 90752, Note_on_c, 5, 63, 99
1, 90752, Note_on_c, 9, 38, 127
1, 90752, Note_on_c, 9, 42, 100
1, 90753, Pitch_bend_c, 3, 0
1, 90767, Lyric_t, "\001"
1, 90767, Note_on_c, 3, 67, 127
1, 90773, Pitch_bend_c, 3, 600
1, 90779, Note_on_c, 9, 38, 0
1, 90779, Note_on_c, 9, 42, 0
1, 90793, Pitch_bend_c, 3, 8192
1, 90925, Pitch_bend_c, 3, 13592
1, 90945, Pitch_bend_c, 3, 8192
1, 90960, Note_on_c, 11, 65, 65
1, 90972, Lyric_t, "\001"
1, 90972, Lyric_t, "\001"
1, 90972, Note_on_c, 3, 65, 122
1, 90974, Note_on_c, 3, 67, 0
1, 90992, Note_on_c, 9, 42, 73
1, 91011, Note_on_c, 11, 65, 0
1, 91019, Note_on_c, 9, 42, 0
1, 91022, Note_on_c, 3, 63, 127
1, 91027, Note_on_c, 11, 68, 81
1, 91029, Note_on_c, 3, 65, 0
1, 91034, Note_on_c, 1, 24, 0
1, 91059, Note_on_c, 11, 68, 0
1, 91067, Note_on_c, 11, 65, 93
1, 91108, Note_on_c, 11, 65, 0
1, 91112, Note_on_c, 1, 22, 127
1, 91118, Note_on_c, 11, 68, 90
1, 91120, Note_on_c, 3, 63, 0
1, 91144, Note_on_c, 11, 68, 0
1, 91153, Note_on_c, 3, 63, 127
1, 91162, Note_on_c, 11, 65, 95
1, 91197, Note_on_c, 11, 65, 0
1, 91199, Note_on_c, 11, 68, 102
1, 91210, Note_on_c, 1, 22, 0
1, 91226, Note_on_c, 11, 68, 0
1, 91232, Note_on_c, 1, 24, 127
1, 91232, Note_on_c, 9, 36, 127
1, 91232, Note_on_c, 9, 44, 78
1, 91244, Note_on_c, 5, 63, 0
1, 91247, Note_on_c, 11, 65, 107
1, 91259, Note_on_c, 9, 36, 0
1, 91259, Note_on_c, 9, 44, 0
1, 91278, Note_on_c, 5, 60, 0
1, 91278, Note_on_c, 11, 65, 0
1, 91282, Note_on_c, 11, 68, 121
1, 91302, Control_c, 3, 1, 127
1, 91309, Note_on_c, 11, 68, 0
1, 91327, Note_on_c, 11, 65, 121
1, 91352, Note_on_c, 9, 42, 88
1, 91358, Note_on_c, 11, 65, 0
1, 91370, Note_on_c, 11, 68, 127
1, 91379, Note_on_c, 9, 42, 0
1, 91389, Note_on_c, 1, 24, 0
1, 91393, Note_on_c, 11, 68, 0
1, 91407, Note_on_c, 11, 65, 126
1, 91413, Pitch_bend_c, 3, 210
1, 91414, Note_on_c, 3, 63, 0
1, 91423, Control_c, 3, 1, 0
1, 91433, Pitch_bend_c, 3, 11462
1, 91435, Note_on_c, 11, 65, 0
1, 91452, Note_on_c, 11, 68, 127
1, 91453, Pitch_bend_c, 3, 8192
1, 91472, Note_on_c, 9, 36, 127
1, 91472, Note_on_c, 9, 44, 74
1, 91477, Note_on_c, 11, 68, 0
1, 91482, Note_on_c, 11, 65, 127
1, 91499, Note_on_c, 9, 36, 0
1, 91499, Note_on_c, 9, 44, 0
1, 91513, Note_on_c, 11, 65, 0
1, 91529, Note_on_c, 11, 68, 127
1, 91554, Note_on_c, 11, 68, 0
1, 91560, Note_on_c, 11, 65, 127
1, 91592, Note_on_c, 11, 65, 0
1, 91607, Note_on_c, 11, 68, 127
1, 91637, Note_on_c, 11, 65, 127
1, 91639, Note_on_c, 11, 68, 0
1, 91669, Note_on_c, 11, 65, 0
1, 91689, Note_on_c, 11, 68, 123
1, 91712, Note_on_c, 9, 34, 115
1, 91712, Note_on_c, 9, 36, 127
1, 91712, Note_on_c, 9, 38, 127
1, 91712, Note_on_c, 9, 42, 100
1, 91714, Note_on_c, 11, 68, 0
1, 91717, Note_on_c, 1, 24, 127
1, 91727, Note_on_c, 11, 65, 120
1, 91733, Pitch_bend_c, 9, 6210
1, 91739, Note_on_c, 9, 34, 0
1, 91739, Note_on_c, 9, 36, 0
1, 91739, Note_on_c, 9, 38, 0
1, 91739, Note_on_c, 9, 42, 0
1, 91753, Pitch_bend_c, 9, 8192
1, 91757, Note_on_c, 11, 65, 0
1, 91772, Note_on_c, 11, 68, 113
1, 91800, Note_on_c, 11, 68, 0
1, 91812, Note_on_c, 11, 65, 102
1, 91815, Pitch_bend_c, 3, 0
1, 91830, Lyric_t, "\001"
1, 91830, Note_on_c, 3, 63, 127
1, 91844, Note_on_c, 11, 65, 0
1, 91857, Pitch_bend_c, 3, 8192
1, 91857, Note_on_c, 11, 68, 97
1, 91887, Note_on_c, 11, 68, 0
1, 91893, Note_on_c, 11, 65, 86
1, 91928, Note_on_c, 11, 65, 0
1, 91930, Note_on_c, 3, 63, 0
1, 91942, Note_on_c, 11, 68, 83
1, 91949, Lyric_t, "\001"
1, 91949, Note_on_c, 3, 65, 127
1, 91952, Note_on_c, 9, 42, 73
1, 91970, Note_on_c, 11, 68, 0
1, 91974, Note_on_c, 11, 65, 83
1, 91979, Note_on_c, 9, 42, 0
1, 92004, Note_on_c, 3, 65, 0
1, 92009, Note_on_c, 11, 65, 0
1, 92018, Note_on_c, 11, 68, 80
1, 92035, Note_on_c, 11, 68, 0
1, 92059, Pitch_bend_c, 3, 0
1, 92069, Lyric_t, "\001"
1, 92069, Note_on_c, 3, 68, 127
1, 92089, Pitch_bend_c, 3, 8192
1, 92125, Note_on_c, 7, 63, 0
1, 92135, Note_on_c, 7, 67, 0
1, 92142, Note_on_c, 7, 70, 0
1, 92152, Note_on_c, 7, 72, 0
1, 92155, Pitch_bend_c, 9, 0
1, 92167, Note_on_c, 1, 24, 0
1, 92190, Note_on_c, 8, 56, 121
1, 92190, Note_on_c, 8, 58, 127
1, 92190, Note_on_c, 8, 61, 127
1, 92190, Note_on_c, 8, 65, 127
1, 92192, Note_on_c, 9, 36, 127
1, 92192, Note_on_c, 9, 44, 78
1, 92197, Note_on_c, 1, 34, 127
1, 92202, Control_c, 3, 1, 127
1, 92219, Note_on_c, 9, 36, 0
1, 92219, Note_on_c, 9, 44, 0
1, 92240, Note_on_c, 3, 68, 0
1, 92263, Control_c, 3, 1, 0
1, 92312, Note_on_c, 9, 42, 88
1, 92322, Lyric_t, "\001"
1, 92322, Note_on_c, 3, 65, 127
1, 92339, Note_on_c, 9, 42, 0
1, 92432, Note_on_c, 9, 44, 74
1, 92435, Note_on_c, 3, 65, 0
1, 92444, Note_on_c, 3, 60, 127
1, 92459, Note_on_c, 9, 44, 0
1, 92466, Note_on_c, 8, 56, 0
1, 92475, Note_on_c, 3, 60, 0
1, 92540, Note_on_c, 8, 58, 0
1, 92545, Pitch_bend_c, 3, 0
1, 92548, Lyric_t, "\001"
1, 92548, Lyric_t, "\001"
1, 92548, Note_on_c, 3, 63, 127
1, 92550, Note_on_c, 8, 56, 92
1, 92552, Note_on_c, 8, 65, 0
1, 92565, Pitch_bend_c, 3, 8192
1, 92568, Note_on_c, 8, 61, 0
1, 92617, Note_on_c, 8, 56, 0
1, 92668, Control_c, 3, 1, 127
1, 92670, Note_on_c, 8, 56, 112
1, 92670, Note_on_c, 8, 60, 127
1, 92670, Note_on_c, 8, 65, 123
1, 92672, Note_on_c, 9, 38, 127
1, 92672, Note_on_c, 9, 42, 100
1, 92699, Note_on_c, 9, 38, 0
1, 92699, Note_on_c, 9, 42, 0
1, 92729, Note_on_c, 3, 63, 0
1, 92738, Control_c, 3, 1, 0
1, 92773, Pitch_bend_c, 3, 0
1, 92793, Lyric_t, "\001"
1, 92793, Note_on_c, 3, 63, 127
1, 92813, Pitch_bend_c, 3, 8192
1, 92866, Note_on_c, 8, 56, 0
1, 92898, Note_on_c, 3, 63, 0
1, 92910, Lyric_t, "\001"
1, 92910, Note_on_c, 3, 65, 127
1, 92910, Note_on_c, 8, 56, 95
1, 92910, Note_on_c, 9, 36, 65
1, 92912, Note_on_c, 9, 42, 73
1, 92928, Note_on_c, 8, 60, 0
1, 92937, Note_on_c, 9, 36, 0
1, 92939, Note_on_c, 9, 42, 0
1, 92943, Note_on_c, 8, 65, 0
1, 92958, Note_on_c, 3, 65, 0
1, 93017, Pitch_bend_c, 3, 0
1, 93028, Lyric_t, "\001"
1, 93028, Note_on_c, 3, 68, 127
1, 93028, Note_on_c, 8, 56, 0
1, 93048, Pitch_bend_c, 3, 8192
1, 93060, Note_on_c, 1, 34, 0
1, 93137, Note_on_c, 1, 36, 127
1, 93150, Note_on_c, 8, 58, 127
1, 93150, Note_on_c, 8, 63, 127
1, 93150, Note_on_c, 8, 65, 127
1, 93152, Note_on_c, 9, 36, 127
1, 93152, Note_on_c, 9, 44, 78
1, 93169, Note_on_c, 3, 68, 0
1, 93179, Note_on_c, 9, 36, 0
1, 93179, Note_on_c, 9, 44, 0
1, 93209, Pitch_bend_c, 3, 7560
1, 93229, Pitch_bend_c, 3, 0
1, 93247, Lyric_t, "\001"
1, 93247, Note_on_c, 3, 65, 127
1, 93269, Pitch_bend_c, 3, 8192
1, 93272, Note_on_c, 9, 42, 88
1, 93299, Note_on_c, 9, 42, 0
1, 93310, Pitch_bend_c, 3, 7500
1, 93330, Pitch_bend_c, 3, 0
1, 93362, Pitch_bend_c, 3, 8192
1, 93368, Note_on_c, 3, 60, 127
1, 93369, Note_on_c, 3, 65, 0
1, 93392, Note_on_c, 9, 44, 74
1, 93419, Note_on_c, 9, 44, 0
1, 93466, Note_on_c, 3, 60, 0
1, 93505, Lyric_t, "\001"
1, 93505, Lyric_t, "\001"
1, 93505, Note_on_c, 3, 63, 127
1, 93548, Note_on_c, 8, 58, 0
1, 93553, Note_on_c, 8, 63, 0
1, 93557, Note_on_c, 1, 36, 0
1, 93561, Note_on_c, 8, 65, 0
1, 93615, Control_c, 3, 1, 127
1, 93630, Note_on_c, 8, 58, 127
1, 93630, Note_on_c, 8, 63, 127
1, 93632, Note_on_c, 9, 38, 127
1, 93632, Note_on_c, 9, 42, 100
1, 93635, Note_on_c, 1, 36, 127
1, 93659, Note_on_c, 9, 38, 0
1, 93659, Note_on_c, 9, 42, 0
1, 93697, Control_c, 3, 1, 0
1, 93697, Note_on_c, 3, 63, 0
1, 93737, Note_on_c, 1, 36, 0
1, 93780, Note_on_c, 8, 58, 0
1, 93807, Note_on_c, 1, 34, 127
1, 93848, Pitch_bend_c, 3, 0
1, 93863, Lyric_t, "\001"
1, 93863, Note_on_c, 3, 63, 127
1, 93870, Note_on_c, 8, 58, 127
1, 93872, Note_on_c, 9, 42, 73
1, 93889, Pitch_bend_c, 3, 8192
1, 93899, Note_on_c, 1, 34, 0
1, 93899, Note_on_c, 9, 42, 0
1, 93939, Note_on_c, 3, 63, 0
1, 93962, Note_on_c, 1, 32, 127
1, 93981, Note_on_c, 8, 63, 0
1, 93987, Lyric_t, "\001"
1, 93987, Note_on_c, 3, 63, 127
1, 94022, Note_on_c, 8, 58, 0
1, 94049, Note_on_c, 3, 63, 0
1, 94060, Note_on_c, 1, 32, 0
1, 94103, Lyric_t, "\001"
1, 94103, Note_on_c, 3, 63, 127
1, 94110, Note_on_c, 8, 53, 127
1, 94110, Note_on_c, 8, 56, 123
1, 94110, Note_on_c, 8, 58, 127
1, 94110, Note_on_c, 8, 61, 127
1, 94112, Note_on_c, 1, 27, 127
1, 94112, Note_on_c, 9, 36, 127
1, 94112, Note_on_c, 9, 44, 78
1, 94139, Note_on_c, 9, 36, 0
1, 94139, Note_on_c, 9, 44, 0
1, 94232, Note_on_c, 9, 42, 88
1, 94243, Pitch_bend_c, 3, 16383
1, 94259, Note_on_c, 9, 42, 0
1, 94334, Note_on_c, 3, 63, 0
1, 94344, Pitch_bend_c, 3, 14582
1, 94352, Note_on_c, 9, 44, 74
1, 94362, Lyric_t, "\001"
1, 94362, Note_on_c, 3, 68, 127
1, 94365, Pitch_bend_c, 3, 8192
1, 94379, Note_on_c, 9, 44, 0
1, 94444, Note_on_c, 3, 68, 0
1, 94468, Pitch_bend_c, 3, 6720
1, 94469, Lyric_t, "\001"
1, 94469, Note_on_c, 3, 68, 127
1, 94488, Pitch_bend_c, 3, 8192
1, 94496, Note_on_c, 8, 61, 0
1, 94497, Note_on_c, 8, 53, 0
1, 94502, Note_on_c, 8, 58, 0
1, 94510, Note_on_c, 8, 56, 0
1, 94537, Note_on_c, 1, 27, 0
1, 94590, Note_on_c, 8, 53, 127
1, 94590, Note_on_c, 8, 56, 118
1, 94590, Note_on_c, 8, 58, 127
1, 94590, Note_on_c, 8, 61, 127
1, 94592, Note_on_c, 1, 27, 127
1, 94592, Note_on_c, 9, 36, 127
1, 94592, Note_on_c, 9, 38, 127
1, 94592, Note_on_c, 9, 42, 100
1, 94619, Note_on_c, 9, 36, 0
1, 94619, Note_on_c, 9, 38, 0
1, 94619, Note_on_c, 9, 42, 0
1, 94694, Note_on_c, 3, 68, 0
1, 94715, Note_on_c, 3, 70, 127
1, 94747, Note_on_c, 1, 27, 0
1, 94766, Note_on_c, 3, 70, 0
1, 94778, Note_on_c, 8, 58, 0
1, 94778, Note_on_c, 8, 61, 0
1, 94780, Note_on_c, 8, 56, 0
1, 94798, Note_on_c, 8, 53, 0
1, 94829, Lyric_t, "\001"
1, 94829, Note_on_c, 3, 72, 127
1, 94830, Note_on_c, 8, 56, 120
1, 94830, Note_on_c, 8, 58, 127
1, 94830, Note_on_c, 8, 61, 127
1, 94830, Note_on_c, 8, 65, 127
1, 94832, Note_on_c, 1, 27, 127
1, 94832, Note_on_c, 9, 42, 73
1, 94859, Note_on_c, 9, 42, 0
1, 94899, Note_on_c, 3, 72, 0
1, 94958, Pitch_bend_c, 3, 0
1, 94965, Lyric_t, "\001"
1, 94965, Lyric_t, "\001"
1, 94965, Note_on_c, 3, 72, 127
1, 94989, Pitch_bend_c, 3, 8192
1, 94999, Note_on_c, 1, 27, 0
1, 95020, Note_on_c, 8, 56, 0
1, 95022, Note_on_c, 8, 58, 0
1, 95032, Note_on_c, 8, 61, 0
1, 95032, Note_on_c, 8, 65, 0
1, 95070, Note_on_c, 8, 58, 127
1, 95070, Note_on_c, 8, 61, 127
1, 95070, Note_on_c, 8, 65, 127
1, 95070, Note_on_c, 8, 68, 127
1, 95072, Note_on_c, 1, 27, 127
1, 95072, Note_on_c, 9, 36, 127
1, 95072, Note_on_c, 9, 44, 78
1, 95099, Note_on_c, 9, 36, 0
1, 95099, Note_on_c, 9, 44, 0
1, 95102, Control_c, 3, 1, 127
1, 95172, Control_c, 3, 1, 0
1, 95183, Note_on_c, 8, 58, 0
1, 95185, Note_on_c, 1, 27, 0
1, 95188, Note_on_c, 8, 61, 0
1, 95192, Note_on_c, 9, 44, 66
1, 95201, Note_on_c, 8, 65, 0
1, 95201, Note_on_c, 8, 68, 0
1, 95203, Note_on_c, 3, 72, 0
1, 95212, Note_on_c, 3, 73, 127
1, 95219, Note_on_c, 9, 44, 0
1, 95303, Note_on_c, 3, 72, 127
1, 95308, Note_on_c, 3, 73, 0
1, 95312, Note_on_c, 9, 42, 66
1, 95339, Note_on_c, 9, 42, 0
1, 95390, Note_on_c, 3, 72, 0
1, 95397, Note_on_c, 3, 68, 125
1, 95494, Note_on_c, 3, 68, 0
1, 95497, Note_on_c, 3, 70, 127
1, 95628, Control_c, 3, 1, 127
1, 95672, Note_on_c, 9, 41, 65
1, 95672, Note_on_c, 10, 39, 66
1, 95699, Note_on_c, 9, 41, 0
1, 95699, Note_on_c, 10, 39, 0
1, 95748, Pitch_bend_c, 10, 7710
1, 95768, Pitch_bend_c, 10, 6870
1, 95788, Pitch_bend_c, 10, 5970
1, 95808, Pitch_bend_c, 10, 5010
1, 95828, Pitch_bend_c, 10, 4260
1, 95848, Pitch_bend_c, 10, 3300
1, 95850, Pitch_bend_c, 3, 6690
1, 95868, Pitch_bend_c, 10, 2430
1, 95870, Pitch_bend_c, 3, 0
1, 95882, Control_c, 3, 1, 0
1, 95884, Note_on_c, 3, 70, 0
1, 95888, Pitch_bend_c, 10, 1680
1, 95909, Pitch_bend_c, 10, 990
1, 95917, Pitch_bend_c, 3, 0
1, 95922, Pitch_bend_c, 3, 8192
1, 95929, Pitch_bend_c, 10, 390
1, 95947, Lyric_t, "\001"
1, 95947, Note_on_c, 3, 70, 127
1, 95949, Pitch_bend_c, 10, 0
1, 95968, Pitch_bend_c, 3, 60
1, 95988, Pitch_bend_c, 3, 4470
1, 96008, Pitch_bend_c, 3, 6120
1, 96024, Note_on_c, 4, 63, 90
1, 96028, Note_on_c, 4, 58, 81
1, 96030, Note_on_c, 4, 67, 97
1, 96030, Note_on_c, 6, 63, 75
1, 96030, Note_on_c, 6, 67, 93
1, 96030, Note_on_c, 6, 70, 77
1, 96032, Note_on_c, 1, 29, 127
1, 96032, Note_on_c, 9, 36, 127
1, 96032, Note_on_c, 9, 44, 78
1, 96032, Note_on_c, 12, 89, 108
1, 96033, Control_c, 6, 10, 84
1, 96033, Pitch_bend_c, 10, 8192
1, 96038, Pitch_bend_c, 3, 7770
1, 96058, Pitch_bend_c, 3, 8010
1, 96059, Note_on_c, 9, 36, 0
1, 96059, Note_on_c, 9, 44, 0
1, 96063, Pitch_bend_c, 12, 1500
1, 96078, Pitch_bend_c, 3, 8192
1, 96083, Pitch_bend_c, 12, 4020
1, 96103, Pitch_bend_c, 12, 5820
1, 96124, Pitch_bend_c, 12, 8192
1, 96139, Pitch_bend_c, 3, 5880
1, 96152, Note_on_c, 9, 42, 88
1, 96159, Pitch_bend_c, 3, 0
1, 96179, Note_on_c, 3, 70, 0
1, 96179, Note_on_c, 9, 42, 0
1, 96187, Note_on_c, 3, 65, 118
1, 96190, Pitch_bend_c, 3, 7890
1, 96208, Pitch_bend_c, 12, 6690
1, 96210, Pitch_bend_c, 3, 8192
1, 96212, Note_on_c, 12, 89, 0
1, 96223, Note_on_c, 3, 65, 0
1, 96228, Pitch_bend_c, 12, 2580
1, 96234, Note_on_c, 3, 63, 127
1, 96248, Pitch_bend_c, 12, 0
1, 96272, Note_on_c, 9, 44, 74
1, 96272, Note_on_c, 12, 89, 106
1, 96294, Note_on_c, 3, 63, 0
1, 96299, Note_on_c, 9, 44, 0
1, 96310, Pitch_bend_c, 12, 810
1, 96330, Pitch_bend_c, 12, 4530
1, 96352, Pitch_bend_c, 12, 4830
1, 96372, Pitch_bend_c, 12, 6480
1, 96393, Control_c, 6, 10, 44
1, 96393, Pitch_bend_c, 12, 8192
1, 96443, Note_on_c, 12, 89, 0
1, 96464, Pitch_bend_c, 12, 3630
1, 96477, Note_on_c, 1, 29, 0
1, 96485, Pitch_bend_c, 12, 0
1, 96512, Note_on_c, 1, 31, 127
1, 96512, Note_on_c, 9, 38, 127
1, 96512, Note_on_c, 9, 42, 100
1, 96512, Note_on_c, 12, 89, 78
1, 96539, Note_on_c, 9, 38, 0
1, 96539, Note_on_c, 9, 42, 0
1, 96558, Pitch_bend_c, 12, 2910
1, 96578, Pitch_bend_c, 12, 4860
1, 96598, Pitch_bend_c, 12, 4920
1, 96619, Pitch_bend_c, 12, 6300
1, 96639, Pitch_bend_c, 12, 6960
1, 96653, Note_on_c, 1, 31, 0
1, 96660, Pitch_bend_c, 12, 7020
1, 96682, Pitch_bend_c, 12, 7320
1, 96688, Note_on_c, 12, 89, 0
1, 96702, Pitch_bend_c, 12, 3840
1, 96722, Pitch_bend_c, 12, 0
1, 96750, Note_on_c, 9, 36, 65
1, 96752, Note_on_c, 9, 42, 73
1, 96752, Note_on_c, 10, 15, 94
1, 96752, Note_on_c, 12, 89, 82
1, 96753, Control_c, 6, 10, 84
1, 96777, Note_on_c, 9, 36, 0
1, 96779, Note_on_c, 9, 42, 0
1, 96779, Note_on_c, 10, 15, 0
1, 96794, Pitch_bend_c, 12, 2220
1, 96814, Pitch_bend_c, 12, 3030
1, 96835, Pitch_bend_c, 12, 3780
1, 96857, Pitch_bend_c, 12, 4770
1, 96877, Pitch_bend_c, 12, 5820
1, 96898, Pitch_bend_c, 12, 6570
1, 96918, Pitch_bend_c, 12, 6810
1, 96929, Note_on_c, 12, 89, 0
1, 96938, Pitch_bend_c, 12, 6000
1, 96959, Pitch_bend_c, 12, 2010
1, 96988, Pitch_bend_c, 12, 60
1, 96992, Note_on_c, 9, 36, 127
1, 96992, Note_on_c, 9, 44, 78
1, 96992, Note_on_c, 12, 89, 69
1, 97019, Note_on_c, 9, 36, 0
1, 97019, Note_on_c, 9, 44, 0
1, 97032, Pitch_bend_c, 12, 960
1, 97052, Pitch_bend_c, 12, 3840
1, 97061, Note_on_c, 4, 58, 0
1, 97065, Note_on_c, 4, 63, 0
1, 97068, Pitch_bend_c, 3, 8100
1, 97068, Note_on_c, 4, 67, 0
1, 97073, Pitch_bend_c, 12, 4560
1, 97089, Pitch_bend_c, 3, 0
1, 97093, Pitch_bend_c, 12, 5130
1, 97112, Note_on_c, 9, 42, 88
1, 97113, Pitch_bend_c, 3, 0
1, 97113, Control_c, 6, 10, 44
1, 97113, Pitch_bend_c, 12, 6660
1, 97119, Lyric_t, "\001"
1, 97119, Note_on_c, 3, 70, 127
1, 97129, Pitch_bend_c, 3, 240
1, 97134, Pitch_bend_c, 12, 7170
1, 97139, Note_on_c, 9, 42, 0
1, 97150, Pitch_bend_c, 3, 8192
1, 97173, Pitch_bend_c, 3, 3870
1, 97174, Note_on_c, 12, 89, 0
1, 97175, Pitch_bend_c, 12, 7230
1, 97193, Pitch_bend_c, 3, 6510
1, 97195, Pitch_bend_c, 12, 4650
1, 97214, Pitch_bend_c, 3, 8192
1, 97217, Pitch_bend_c, 12, 1290
1, 97232, Note_on_c, 5, 55, 72
1, 97232, Note_on_c, 9, 44, 74
1, 97232, Note_on_c, 12, 89, 58
1, 97234, Note_on_c, 3, 70, 0
1, 97238, Pitch_bend_c, 12, 210
1, 97244, Note_on_c, 5, 58, 72
1, 97245, Control_c, 3, 1, 127
1, 97258, Pitch_bend_c, 12, 180
1, 97259, Note_on_c, 9, 44, 0
1, 97272, Lyric_t, "\001"
1, 97272, Note_on_c, 3, 68, 127
1, 97278, Pitch_bend_c, 12, 2580
1, 97298, Pitch_bend_c, 12, 4230
1, 97315, Control_c, 3, 1, 0
1, 97319, Pitch_bend_c, 12, 4680
1, 97339, Pitch_bend_c, 12, 5820
1, 97350, Note_on_c, 6, 63, 78
1, 97350, Note_on_c, 6, 67, 79
1, 97352, Note_on_c, 1, 24, 127
1, 97352, Note_on_c, 5, 67, 72
1, 97357, Note_on_c, 5, 55, 0
1, 97360, Pitch_bend_c, 12, 6240
1, 97361, Note_on_c, 5, 58, 0
1, 97362, Note_on_c, 5, 70, 72
1, 97369, Note_on_c, 3, 68, 0
1, 97380, Pitch_bend_c, 12, 6300
1, 97402, Pitch_bend_c, 12, 6570
1, 97403, Pitch_bend_c, 3, 0
1, 97418, Note_on_c, 12, 89, 0
1, 97422, Pitch_bend_c, 12, 6000
1, 97425, Lyric_t, "\001"
1, 97425, Note_on_c, 3, 67, 127
1, 97443, Pitch_bend_c, 3, 3570
1, 97443, Pitch_bend_c, 12, 4920
1, 97450, Note_on_c, 1, 24, 0
1, 97463, Pitch_bend_c, 12, 4980
1, 97472, Note_on_c, 1, 27, 127
1, 97472, Note_on_c, 9, 38, 127
1, 97472, Note_on_c, 9, 42, 100
1, 97473, Pitch_bend_c, 3, 8192
1, 97473, Control_c, 6, 10, 84
1, 97483, Pitch_bend_c, 12, 7020
1, 97499, Note_on_c, 9, 38, 0
1, 97499, Note_on_c, 9, 42, 0
1, 97504, Pitch_bend_c, 12, 8192
1, 97545, Pitch_bend_c, 3, 8160
1, 97565, Pitch_bend_c, 3, 3780
1, 97585, Pitch_bend_c, 3, 0
1, 97598, Note_on_c, 3, 67, 0
1, 97604, Note_on_c, 1, 27, 0
1, 97607, Pitch_bend_c, 3, 8192
1, 97615, Lyric_t, "\001"
1, 97615, Note_on_c, 3, 63, 122
1, 97712, Note_on_c, 5, 67, 72
1, 97712, Note_on_c, 9, 42, 73
1, 97714, Note_on_c, 5, 70, 0
1, 97725, Note_on_c, 5, 63, 72
1, 97725, Note_on_c, 5, 67, 0
1, 97739, Note_on_c, 9, 42, 0
1, 97742, Control_c, 3, 1, 127
1, 97793, Note_on_c, 3, 63, 0
1, 97812, Control_c, 3, 1, 0
1, 97823, Note_on_c, 6, 63, 0
1, 97833, Note_on_c, 5, 63, 72
1, 97833, Control_c, 6, 10, 44
1, 97833, Note_on_c, 6, 67, 0
1, 97833, Note_on_c, 5, 63, 0
1, 97834, Note_on_c, 5, 67, 0
1, 97842, Note_on_c, 5, 58, 72
1, 97848, Note_on_c, 6, 70, 0
1, 97897, Note_on_c, 6, 67, 0
1, 97913, Note_on_c, 6, 63, 0
1, 97947, Note_on_c, 4, 63, 77
1, 97949, Note_on_c, 4, 58, 65
1, 97950, Note_on_c, 6, 60, 74
1, 97950, Note_on_c, 6, 63, 77
1, 97950, Note_on_c, 6, 67, 87
1, 97952, Note_on_c, 1, 29, 127
1, 97952, Note_on_c, 9, 36, 127
1, 97952, Note_on_c, 9, 44, 78
1, 97953, Note_on_c, 4, 67, 86
1, 97979, Note_on_c, 9, 36, 0
1, 97979, Note_on_c, 9, 44, 0
1, 98072, Note_on_c, 9, 42, 88
1, 98099, Note_on_c, 9, 42, 0
1, 98192, Note_on_c, 9, 44, 74
1, 98193, Control_c, 6, 10, 84
1, 98219, Note_on_c, 9, 44, 0
1, 98369, Pitch_bend_c, 3, 7620
1, 98374, Note_on_c, 1, 29, 0
1, 98389, Pitch_bend_c, 3, 0
1, 98405, Lyric_t, "\001"
1, 98405, Note_on_c, 3, 65, 122
1, 98430, Note_on_c, 11, 63, 96
1, 98430, Note_on_c, 11, 67, 117
1, 98430, Note_on_c, 11, 70, 103
1, 98432, Note_on_c, 1, 31, 127
1, 98432, Note_on_c, 9, 38, 127
1, 98432, Note_on_c, 9, 42, 100
1, 98440, Pitch_bend_c, 3, 1500
1, 98459, Note_on_c, 9, 38, 0
1, 98459, Note_on_c, 9, 42, 0
1, 98460, Pitch_bend_c, 3, 6240
1, 98482, Pitch_bend_c, 3, 8192
1, 98513, Note_on_c, 3, 65, 0
1, 98522, Lyric_t, "\001"
1, 98522, Note_on_c, 3, 63, 102
1, 98553, Control_c, 6, 10, 44
1, 98574, Note_on_c, 1, 31, 0
1, 98581, Note_on_c, 11, 70, 0
1, 98582, Note_on_c, 11, 63, 0
1, 98590, Note_on_c, 11, 63, 101
1, 98590, Note_on_c, 11, 67, 102
1, 98590, Note_on_c, 11, 70, 102
1, 98593, Note_on_c, 11, 67, 0
1, 98623, Control_c, 3, 1, 127
1, 98672, Note_on_c, 9, 42, 73
1, 98699, Note_on_c, 9, 42, 0
1, 98716, Note_on_c, 11, 70, 0
1, 98725, Note_on_c, 11, 63, 0
1, 98735, Note_on_c, 11, 67, 0
1, 98750, Note_on_c, 11, 63, 92
1, 98750, Note_on_c, 11, 67, 92
1, 98750, Note_on_c, 11, 70, 92
1, 98753, Control_c, 3, 1, 125
1, 98793, Note_on_c, 5, 63, 0
1, 98815, Control_c, 3, 1, 121
1, 98847, Control_c, 3, 1, 0
1, 98854, Note_on_c, 3, 63, 0
1, 98873, Note_on_c, 11, 70, 0
1, 98879, Note_on_c, 5, 58, 0
1, 98880, Note_on_c, 11, 67, 0
1, 98887, Pitch_bend_c, 3, 0
1, 98892, Note_on_c, 11, 63, 0
1, 98900, Lyric_t, "\001"
1, 98900, Note_on_c, 3, 65, 115
1, 98908, Control_c, 3, 1, 0
1, 98910, Note_on_c, 11, 63, 83
1, 98910, Note_on_c, 11, 67, 84
1, 98910, Note_on_c, 11, 70, 84
1, 98912, Note_on_c, 9, 36, 127
1, 98912, Note_on_c, 9, 44, 78
1, 98913, Control_c, 6, 10, 84
1, 98938, Pitch_bend_c, 3, 8192
1, 98939, Note_on_c, 9, 36, 0
1, 98939, Note_on_c, 9, 44, 0
1, 98945, Note_on_c, 4, 58, 0
1, 98949, Note_on_c, 4, 63, 0
1, 98953, Note_on_c, 4, 67, 0
1, 99020, Note_on_c, 3, 65, 0
1, 99024, Note_on_c, 3, 68, 127
1, 99032, Note_on_c, 9, 42, 88
1, 99043, Note_on_c, 11, 70, 0
1, 99045, Note_on_c, 11, 63, 0
1, 99059, Note_on_c, 9, 42, 0
1, 99063, Note_on_c, 11, 67, 0
1, 99070, Note_on_c, 11, 63, 75
1, 99070, Note_on_c, 11, 67, 75
1, 99070, Note_on_c, 11, 70, 75
1, 99140, Control_c, 3, 1, 127
1, 99152, Note_on_c, 1, 22, 127
1, 99152, Note_on_c, 9, 36, 127
1, 99152, Note_on_c, 9, 44, 74
1, 99171, Note_on_c, 6, 60, 0
1, 99179, Note_on_c, 9, 36, 0
1, 99179, Note_on_c, 9, 44, 0
1, 99183, Note_on_c, 6, 67, 0
1, 99188, Note_on_c, 6, 63, 0
1, 99212, Note_on_c, 11, 63, 0
1, 99217, Note_on_c, 11, 70, 0
1, 99226, Note_on_c, 11, 67, 0
1, 99230, Note_on_c, 11, 63, 66
1, 99230, Note_on_c, 11, 67, 66
1, 99230, Note_on_c, 11, 70, 66
1, 99273, Control_c, 6, 10, 44
1, 99297, Note_on_c, 3, 68, 0
1, 99302, Pitch_bend_c, 3, 0
1, 99313, Control_c, 3, 1, 0
1, 99323, Pitch_bend_c, 3, 8192
1, 99358, Note_on_c, 1, 22, 0
1, 99375, Note_on_c, 11, 63, 0
1, 99377, Note_on_c, 11, 70, 0
1, 99380, Note_on_c, 5, 63, 73
1, 99383, Note_on_c, 5, 60, 81
1, 99383, Note_on_c, 11, 67, 0
1, 99390, Note_on_c, 6, 60, 81
1, 99390, Note_on_c, 6, 63, 75
1, 99390, Note_on_c, 11, 63, 57
1, 99390, Note_on_c, 11, 67, 58
1, 99390, Note_on_c, 11, 70, 58
1, 99392, Note_on_c, 1, 24, 127
1, 99392, Note_on_c, 9, 34, 115
1, 99392, Note_on_c, 9, 36, 127
1, 99392, Note_on_c, 9, 38, 127
1, 99392, Note_on_c, 9, 42, 100
1, 99413, Pitch_bend_c, 9, 6210
1, 99419, Note_on_c, 9, 34, 0
1, 99419, Note_on_c, 9, 36, 0
1, 99419, Note_on_c, 9, 38, 0
1, 99419, Note_on_c, 9, 42, 0
1, 99433, Pitch_bend_c, 9, 8192
1, 99510, Pitch_bend_c, 3, 0
1, 99510, Note_on_c, 6, 62, 81
1, 99510, Note_on_c, 6, 65, 70
1, 99511, Note_on_c, 6, 63, 0
1, 99513, Note_on_c, 5, 63, 0
1, 99518, Note_on_c, 5, 65, 79
1, 99524, Note_on_c, 5, 62, 69
1, 99524, Note_on_c, 5, 60, 0
1, 99527, Lyric_t, "\001"
1, 99527, Note_on_c, 3, 68, 127
1, 99528, Note_on_c, 11, 63, 0
1, 99537, Note_on_c, 11, 70, 0
1, 99540, Note_on_c, 6, 60, 0
1, 99541, Note_on_c, 11, 67, 0
1, 99542, Note_on_c, 1, 24, 0
1, 99550, Note_on_c, 11, 63, 48
1, 99550, Note_on_c, 11, 67, 48
1, 99550, Note_on_c, 11, 70, 49
1, 99552, Pitch_bend_c, 3, 2070
1, 99572, Pitch_bend_c, 3, 5880
1, 99592, Pitch_bend_c, 3, 6030
1, 99613, Pitch_bend_c, 3, 6000
1, 99619, Note_on_c, 5, 65, 0
1, 99620, Note_on_c, 6, 65, 0
1, 99630, Note_on_c, 5, 67, 74
1, 99630, Note_on_c, 6, 63, 79
1, 99630, Note_on_c, 6, 67, 83
1, 99632, Note_on_c, 9, 42, 73
1, 99633, Pitch_bend_c, 3, 6000
1, 99633, Control_c, 6, 10, 84
1, 99639, Note_on_c, 5, 62, 0
1, 99640, Note_on_c, 5, 63, 80
1, 99652, Note_on_c, 6, 62, 0
1, 99653, Pitch_bend_c, 3, 6120
1, 99659, Note_on_c, 9, 42, 0
1, 99673, Pitch_bend_c, 3, 6870
1, 99693, Pitch_bend_c, 3, 7560
1, 99693, Note_on_c, 11, 67, 0
1, 99697, Note_on_c, 11, 63, 0
1, 99708, Note_on_c, 11, 70, 0
1, 99710, Note_on_c, 11, 63, 39
1, 99710, Note_on_c, 11, 67, 40
1, 99710, Note_on_c, 11, 70, 39
1, 99723, Pitch_bend_c, 3, 4440
1, 99723, Note_on_c, 3, 68, 0
1, 99743, Pitch_bend_c, 3, 0
1, 99764, Pitch_bend_c, 3, 8192
1, 99784, Pitch_bend_c, 3, 8192
1, 99826, Note_on_c, 11, 70, 0
1, 99828, Note_on_c, 6, 63, 0
1, 99833, Note_on_c, 11, 63, 0
1, 99835, Pitch_bend_c, 9, 0
1, 99836, Note_on_c, 11, 67, 0
1, 99843, Note_on_c, 6, 67, 0
1, 99844, Pitch_bend_c, 3, 0
1, 99846, Note_on_c, 5, 67, 0
1, 99853, Note_on_c, 5, 65, 84
1, 99853, Note_on_c, 5, 63, 0
1, 99857, Note_on_c, 5, 62, 91
1, 99868, Lyric_t, "\001"
1, 99868, Note_on_c, 3, 67, 127
1, 99870, Note_on_c, 6, 60, 74
1, 99870, Note_on_c, 6, 65, 86
1, 99872, Note_on_c, 1, 31, 127
1, 99872, Note_on_c, 4, 62, 101
1, 99872, Note_on_c, 9, 36, 127
1, 99872, Note_on_c, 9, 44, 78
1, 99873, Note_on_c, 4, 58, 71
1, 99875, Note_on_c, 4, 65, 92
1, 99895, Pitch_bend_c, 3, 5190
1, 99899, Note_on_c, 9, 36, 0
1, 99899, Note_on_c, 9, 44, 0
1, 99915, Pitch_bend_c, 3, 8192
1, 99992, Note_on_c, 9, 42, 88
1, 99993, Control_c, 6, 10, 44
1, 100019, Note_on_c, 9, 42, 0
1, 100058, Pitch_bend_c, 3, 4980
1, 100078, Pitch_bend_c, 3, 1020
1, 100098, Pitch_bend_c, 3, 2430
1, 100112, Note_on_c, 9, 44, 74
1, 100118, Pitch_bend_c, 3, 8192
1, 100126, Note_on_c, 3, 67, 0
1, 100127, Lyric_t, "\001"
1, 100127, Note_on_c, 3, 65, 127
1, 100139, Note_on_c, 9, 44, 0
1, 100193, Note_on_c, 3, 65, 0
1, 100210, Note_on_c, 5, 58, 85
1, 100214, Note_on_c, 5, 65, 0
1, 100222, Lyric_t, "\001"
1, 100222, Note_on_c, 3, 63, 125
1, 100230, Note_on_c, 6, 50, 75
1, 100230, Note_on_c, 6, 58, 63
1, 100289, Note_on_c, 3, 63, 0
1, 100333, Pitch_bend_c, 3, 0
1, 100338, Lyric_t, "\001"
1, 100338, Lyric_t, "\001"
1, 100338, Note_on_c, 3, 62, 127
1, 100338, Note_on_c, 1, 31, 0
1, 100352, Note_on_c, 1, 34, 127
1, 100352, Note_on_c, 9, 38, 127
1, 100352, Note_on_c, 9, 42, 100
1, 100353, Pitch_bend_c, 3, 60
1, 100353, Control_c, 6, 10, 84
1, 100373, Pitch_bend_c, 3, 6270
1, 100379, Note_on_c, 9, 38, 0
1, 100379, Note_on_c, 9, 42, 0
1, 100393, Pitch_bend_c, 3, 7740
1, 100413, Pitch_bend_c, 3, 8192
1, 100464, Pitch_bend_c, 3, 8040
1, 100464, Note_on_c, 1, 34, 0
1, 100484, Pitch_bend_c, 3, 6810
1, 100504, Pitch_bend_c, 3, 4170
1, 100525, Pitch_bend_c, 3, 4410
1, 100545, Pitch_bend_c, 3, 6630
1, 100565, Pitch_bend_c, 3, 8192
1, 100569, Note_on_c, 5, 62, 0
1, 100590, Note_on_c, 9, 36, 65
1, 100592, Note_on_c, 5, 53, 80
1, 100592, Note_on_c, 9, 42, 73
1, 100592, Note_on_c, 10, 15, 94
1, 100607, Pitch_bend_c, 3, 7620
1, 100617, Note_on_c, 9, 36, 0
1, 100619, Note_on_c, 9, 42, 0
1, 100619, Note_on_c, 10, 15, 0
1, 100627, Pitch_bend_c, 3, 4410
1, 100647, Pitch_bend_c, 3, 4020
1, 100667, Pitch_bend_c, 3, 6120
1, 100688, Pitch_bend_c, 3, 8192
1, 100713, Control_c, 6, 10, 44
1, 100728, Pitch_bend_c, 3, 7620
1, 100748, Pitch_bend_c, 3, 4440
1, 100768, Pitch_bend_c, 3, 4050
1, 100788, Pitch_bend_c, 3, 6750
1, 100809, Pitch_bend_c, 3, 8192
1, 100832, Note_on_c, 9, 36, 127
1, 100832, Note_on_c, 9, 44, 78
1, 100859, Pitch_bend_c, 3, 5730
1, 100859, Note_on_c, 9, 36, 0
1, 100859, Note_on_c, 9, 44, 0
1, 100875, Note_on_c, 4, 58, 0
1, 100877, Note_on_c, 4, 62, 0
1, 100879, Pitch_bend_c, 3, 5760
1, 100882, Note_on_c, 4, 65, 0
1, 100900, Pitch_bend_c, 3, 8192
1, 100940, Pitch_bend_c, 3, 4530
1, 100952, Note_on_c, 9, 42, 88
1, 100960, Pitch_bend_c, 3, 2340
1, 100979, Note_on_c, 9, 42, 0
1, 100982, Pitch_bend_c, 3, 8192
1, 101045, Note_on_c, 3, 58, 114
1, 101049, Note_on_c, 3, 62, 0
1, 101072, Note_on_c, 9, 44, 74
1, 101073, Control_c, 6, 10, 84
1, 101099, Note_on_c, 9, 44, 0
1, 101182, Note_on_c, 5, 53, 83
1, 101192, Note_on_c, 1, 22, 127
1, 101196, Note_on_c, 6, 60, 0
1, 101198, Note_on_c, 6, 65, 0
1, 101210, Note_on_c, 5, 53, 0
1, 101213, Note_on_c, 5, 58, 0
1, 101304, Pitch_bend_c, 5, 12302
1, 101309, Note_on_c, 1, 22, 0
1, 101312, Note_on_c, 1, 24, 127
1, 101312, Note_on_c, 9, 38, 127
1, 101312, Note_on_c, 9, 42, 100
1, 101325, Pitch_bend_c, 5, 16383
1, 101337, Note_on_c, 3, 58, 0
1, 101339, Note_on_c, 9, 38, 0
1, 101339, Note_on_c, 9, 42, 0
1, 101355, Pitch_bend_c, 3, 0
1, 101368, Lyric_t, "\001"
1, 101368, Note_on_c, 3, 60, 126
1, 101407, Pitch_bend_c, 3, 2580
1, 101427, Pitch_bend_c, 3, 8192
1, 101430, Note_on_c, 6, 53, 70
1, 101430, Note_on_c, 6, 56, 49
1, 101430, Note_on_c, 6, 58, 60
1, 101430, Note_on_c, 6, 62, 62
1, 101433, Control_c, 6, 10, 44
1, 101472, Note_on_c, 1, 24, 0
1, 101506, Note_on_c, 3, 60, 0
1, 101509, Note_on_c, 5, 53, 0
1, 101520, Pitch_bend_c, 5, 15902
1, 101532, Note_on_c, 3, 63, 127
1, 101542, Pitch_bend_c, 5, 8192
1, 101547, Note_on_c, 5, 65, 92
1, 101552, Note_on_c, 9, 42, 73
1, 101579, Note_on_c, 9, 42, 0
1, 101581, Note_on_c, 6, 58, 0
1, 101590, Note_on_c, 6, 50, 0
1, 101685, Pitch_bend_c, 5, 0
1, 101687, Note_on_c, 3, 63, 0
1, 101738, Note_on_c, 6, 62, 0
1, 101748, Note_on_c, 6, 58, 0
1, 101753, Note_on_c, 6, 53, 0
1, 101755, Note_on_c, 6, 56, 0
1, 101782, Note_on_c, 4, 63, 84
1, 101784, Note_on_c, 4, 58, 77
1, 101789, Note_on_c, 4, 67, 91
1, 101790, Note_on_c, 6, 60, 78
1, 101790, Note_on_c, 6, 63, 81
1, 101790, Note_on_c, 6, 67, 84
1, 101792, Note_on_c, 1, 29, 127
1, 101792, Note_on_c, 9, 36, 127
1, 101792, Note_on_c, 9, 44, 78
1, 101793, Control_c, 6, 10, 84
1, 101819, Note_on_c, 9, 36, 0
1, 101819, Note_on_c, 9, 44, 0
1, 101912, Note_on_c, 9, 42, 88
1, 101933, Control_c, 5, 1, 4
1, 101939, Note_on_c, 9, 42, 0
1, 101963, Control_c, 5, 1, 39
1, 101995, Control_c, 5, 1, 101
1, 102025, Control_c, 5, 1, 118
1, 102032, Note_on_c, 9, 44, 74
1, 102057, Control_c, 5, 1, 125
1, 102059, Note_on_c, 9, 44, 0
1, 102120, Pitch_bend_c, 3, 6360
1, 102129, Control_c, 5, 1, 127
1, 102140, Pitch_bend_c, 3, 0
1, 102153, Control_c, 6, 10, 44
1, 102162, Lyric_t, "\001"
1, 102162, Note_on_c, 3, 67, 127
1, 102182, Pitch_bend_c, 3, 4260
1, 102192, Control_c, 5, 1, 125
1, 102202, Pitch_bend_c, 3, 6360
1, 102222, Pitch_bend_c, 3, 7260
1, 102222, Control_c, 5, 1, 0
1, 102234, Note_on_c, 5, 65, 0
1, 102242, Pitch_bend_c, 3, 8192
1, 102252, Note_on_c, 1, 29, 0
1, 102253, Pitch_bend_c, 5, 8192
1, 102270, Note_on_c, 11, 63, 102
1, 102270, Note_on_c, 11, 67, 123
1, 102270, Note_on_c, 11, 70, 109
1, 102272, Note_on_c, 1, 31, 127
1, 102272, Note_on_c, 9, 36, 127
1, 102272, Note_on_c, 9, 38, 127
1, 102272, Note_on_c, 9, 42, 100
1, 102273, Pitch_bend_c, 5, 8192
1, 102299, Note_on_c, 9, 36, 0
1, 102299, Note_on_c, 9, 38, 0
1, 102299, Note_on_c, 9, 42, 0
1, 102323, Pitch_bend_c, 3, 8040
1, 102343, Pitch_bend_c, 3, 6180
1, 102363, Pitch_bend_c, 3, 3840
1, 102375, Note_on_c, 3, 67, 0
1, 102383, Pitch_bend_c, 3, 1260
1, 102390, Note_on_c, 3, 65, 127
1, 102404, Pitch_bend_c, 3, 8192
1, 102417, Note_on_c, 1, 31, 0
1, 102421, Note_on_c, 11, 70, 0
1, 102422, Note_on_c, 11, 63, 0
1, 102430, Note_on_c, 11, 63, 107
1, 102430, Note_on_c, 11, 67, 108
1, 102430, Note_on_c, 11, 70, 108
1, 102433, Note_on_c, 11, 67, 0
1, 102493, Note_on_c, 3, 65, 0
1, 102512, Note_on_c, 9, 42, 73
1, 102513, Control_c, 6, 10, 84
1, 102539, Note_on_c, 9, 42, 0
1, 102556, Note_on_c, 11, 70, 0
1, 102565, Note_on_c, 11, 63, 0
1, 102575, Note_on_c, 11, 67, 0
1, 102590, Note_on_c, 11, 63, 98
1, 102590, Note_on_c, 11, 67, 98
1, 102590, Note_on_c, 11, 70, 98
1, 102617, Pitch_bend_c, 3, 0
1, 102632, Lyric_t, "\001"
1, 102632, Note_on_c, 3, 67, 127
1, 102658, Pitch_bend_c, 3, 8192
1, 102713, Note_on_c, 11, 70, 0
1, 102720, Note_on_c, 11, 67, 0
1, 102732, Note_on_c, 11, 63, 0
1, 102750, Note_on_c, 11, 63, 89
1, 102750, Note_on_c, 11, 67, 90
1, 102750, Note_on_c, 11, 70, 90
1, 102752, Note_on_c, 1, 24, 127
1, 102752, Note_on_c, 9, 36, 127
1, 102752, Note_on_c, 9, 44, 78
1, 102779, Note_on_c, 9, 36, 0
1, 102779, Note_on_c, 9, 44, 0
1, 102810, Note_on_c, 3, 67, 0
1, 102814, Note_on_c, 4, 58, 0
1, 102819, Note_on_c, 4, 63, 0
1, 102829, Note_on_c, 4, 67, 0
1, 102862, Note_on_c, 3, 70, 127
1, 102872, Note_on_c, 9, 38, 92
1, 102872, Note_on_c, 9, 42, 88
1, 102873, Control_c, 6, 10, 44
1, 102883, Note_on_c, 11, 70, 0
1, 102885, Note_on_c, 11, 63, 0
1, 102899, Note_on_c, 9, 38, 0
1, 102899, Note_on_c, 9, 42, 0
1, 102903, Note_on_c, 11, 67, 0
1, 102909, Note_on_c, 1, 24, 0
1, 102910, Note_on_c, 11, 63, 81
1, 102910, Note_on_c, 11, 67, 81
1, 102910, Note_on_c, 11, 70, 81
1, 102932, Control_c, 3, 1, 127
1, 102958, Pitch_bend_c, 12, 4410
1, 102978, Pitch_bend_c, 12, 0
1, 102983, Note_on_c, 3, 70, 0
1, 102989, Note_on_c, 12, 77, 88
1, 102992, Control_c, 3, 1, 0
1, 102992, Note_on_c, 9, 36, 127
1, 102992, Note_on_c, 9, 44, 74
1, 102993, Note_on_c, 12, 72, 80
1, 103019, Pitch_bend_c, 12, 3660
1, 103019, Note_on_c, 9, 36, 0
1, 103019, Note_on_c, 9, 44, 0
1, 103040, Pitch_bend_c, 12, 8192
1, 103052, Note_on_c, 11, 63, 0
1, 103057, Note_on_c, 11, 70, 0
1, 103066, Note_on_c, 11, 67, 0
1, 103068, Pitch_bend_c, 3, 120
1, 103070, Note_on_c, 11, 63, 72
1, 103070, Note_on_c, 11, 67, 72
1, 103070, Note_on_c, 11, 70, 72
1, 103082, Lyric_t, "\001"
1, 103082, Note_on_c, 3, 67, 123
1, 103088, Pitch_bend_c, 3, 1800
1, 103108, Pitch_bend_c, 3, 8192
1, 103112, Note_on_c, 1, 24, 127
1, 103123, Pitch_bend_c, 12, 4470
1, 103135, Note_on_c, 6, 67, 0
1, 103136, Note_on_c, 6, 63, 0
1, 103143, Pitch_bend_c, 12, 0
1, 103147, Note_on_c, 6, 60, 0
1, 103179, Note_on_c, 3, 67, 0
1, 103215, Note_on_c, 11, 63, 0
1, 103217, Note_on_c, 11, 70, 0
1, 103218, Lyric_t, "\001"
1, 103218, Note_on_c, 3, 67, 127
1, 103223, Note_on_c, 11, 67, 0
1, 103230, Note_on_c, 6, 60, 70
1, 103230, Note_on_c, 6, 64, 74
1, 103230, Note_on_c, 6, 68, 67
1, 103230, Note_on_c, 11, 63, 63
1, 103230, Note_on_c, 11, 67, 64
1, 103230, Note_on_c, 11, 70, 64
1, 103232, Note_on_c, 9, 38, 127
1, 103232, Note_on_c, 9, 42, 100
1, 103233, Control_c, 6, 10, 84
1, 103259, Note_on_c, 9, 38, 0
1, 103259, Note_on_c, 9, 42, 0
1, 103298, Control_c, 12, 1, 121
1, 103339, Control_c, 12, 1, 127
1, 103340, Note_on_c, 3, 67, 0
1, 103348, Note_on_c, 3, 65, 120
1, 103368, Note_on_c, 11, 63, 0
1, 103377, Note_on_c, 11, 70, 0
1, 103381, Note_on_c, 11, 67, 0
1, 103390, Note_on_c, 11, 63, 54
1, 103390, Note_on_c, 11, 67, 54
1, 103390, Note_on_c, 11, 70, 55
1, 103421, Note_on_c, 3, 65, 0
1, 103430, Note_on_c, 1, 24, 0
1, 103458, Note_on_c, 3, 65, 127
1, 103472, Note_on_c, 1, 27, 127
1, 103472, Note_on_c, 9, 42, 73
1, 103499, Note_on_c, 9, 42, 0
1, 103533, Note_on_c, 11, 67, 0
1, 103537, Note_on_c, 11, 63, 0
1, 103548, Note_on_c, 11, 70, 0
1, 103550, Note_on_c, 11, 63, 45
1, 103550, Note_on_c, 11, 67, 46
1, 103550, Note_on_c, 11, 70, 45
1, 103569, Note_on_c, 3, 65, 0
1, 103584, Note_on_c, 1, 27, 0
1, 103590, Note_on_c, 3, 67, 113
1, 103593, Control_c, 6, 10, 44
1, 103593, Note_on_c, 12, 72, 0
1, 103601, Note_on_c, 12, 77, 0
1, 103608, Control_c, 12, 1, 0
1, 103618, Pitch_bend_c, 12, 8192
1, 103629, Pitch_bend_c, 12, 4650
1, 103650, Pitch_bend_c, 12, 0
1, 103653, Note_on_c, 6, 60, 0
1, 103666, Note_on_c, 11, 70, 0
1, 103668, Note_on_c, 6, 64, 0
1, 103668, Note_on_c, 6, 68, 0
1, 103673, Note_on_c, 11, 63, 0
1, 103676, Note_on_c, 11, 67, 0
1, 103703, Note_on_c, 3, 67, 0
1, 103710, Note_on_c, 4, 63, 82
1, 103710, Note_on_c, 6, 63, 66
1, 103710, Note_on_c, 6, 67, 88
1, 103710, Note_on_c, 6, 70, 65
1, 103712, Note_on_c, 1, 29, 127
1, 103712, Note_on_c, 4, 58, 75
1, 103712, Note_on_c, 9, 36, 127
1, 103712, Note_on_c, 9, 44, 78
1, 103712, Note_on_c, 12, 89, 112
1, 103717, Note_on_c, 4, 67, 91
1, 103739, Note_on_c, 9, 36, 0
1, 103739, Note_on_c, 9, 44, 0
1, 103743, Pitch_bend_c, 12, 1500
1, 103763, Pitch_bend_c, 12, 4020
1, 103783, Pitch_bend_c, 12, 5820
1, 103804, Pitch_bend_c, 12, 8192
1, 103820, Note_on_c, 3, 63, 106
1, 103832, Note_on_c, 9, 42, 88
1, 103859, Note_on_c, 9, 42, 0
1, 103888, Pitch_bend_c, 12, 6690
1, 103892, Note_on_c, 12, 89, 0
1, 103908, Pitch_bend_c, 12, 2580
1, 103928, Pitch_bend_c, 12, 0
1, 103952, Note_on_c, 9, 44, 74
1, 103952, Note_on_c, 12, 89, 110
1, 103953, Control_c, 6, 10, 84
1, 103979, Note_on_c, 9, 44, 0
1, 103990, Pitch_bend_c, 12, 810
1, 104010, Pitch_bend_c, 12, 4530
1, 104032, Pitch_bend_c, 12, 4830
1, 104043, Pitch_bend_c, 3, 7530
1, 104052, Pitch_bend_c, 12, 6480
1, 104053, Control_c, 3, 1, 127
1, 104057, Note_on_c, 3, 63, 0
1, 104063, Pitch_bend_c, 3, 8192
1, 104073, Pitch_bend_c, 12, 8192
1, 104104, Control_c, 3, 1, 0
1, 104123, Note_on_c, 12, 89, 0
1, 104144, Pitch_bend_c, 12, 3630
1, 104158, Note_on_c, 1, 29, 0
1, 104165, Pitch_bend_c, 12, 0
1, 104192, Note_on_c, 1, 31, 127
1, 104192, Note_on_c, 9, 38, 127
1, 104192, Note_on_c, 9, 42, 100
1, 104192, Note_on_c, 12, 89, 82
1, 104219, Note_on_c, 9, 38, 0
1, 104219, Note_on_c, 9, 42, 0
1, 104238, Pitch_bend_c, 12, 2910
1, 104258, Pitch_bend_c, 12, 4860
1, 104278, Pitch_bend_c, 12, 4920
1, 104299, Pitch_bend_c, 12, 6300
1, 104313, Control_c, 6, 10, 44
1, 104319, Pitch_bend_c, 12, 6960
1, 104330, Note_on_c, 1, 31, 0
1, 104340, Pitch_bend_c, 12, 7020
1, 104362, Pitch_bend_c, 12, 7320
1, 104368, Note_on_c, 12, 89, 0
1, 104382, Pitch_bend_c, 12, 3840
1, 104402, Pitch_bend_c, 12, 0
1, 104430, Note_on_c, 9, 36, 65
1, 104432, Note_on_c, 9, 42, 73
1, 104432, Note_on_c, 10, 15, 94
1, 104432, Note_on_c, 12, 89, 86
1, 104457, Note_on_c, 9, 36, 0
1, 104459, Note_on_c, 9, 42, 0
1, 104459, Note_on_c, 10, 15, 0
1, 104474, Pitch_bend_c, 12, 2220
1, 104494, Pitch_bend_c, 12, 3030
1, 104515, Pitch_bend_c, 12, 3780
1, 104537, Pitch_bend_c, 12, 4770
1, 104557, Pitch_bend_c, 12, 5820
1, 104578, Pitch_bend_c, 12, 6570
1, 104598, Pitch_bend_c, 12, 6810
1, 104609, Note_on_c, 12, 89, 0
1, 104618, Pitch_bend_c, 12, 6000
1, 104639, Pitch_bend_c, 12, 2010
1, 104668, Pitch_bend_c, 12, 60
1, 104672, Note_on_c, 9, 36, 127
1, 104672, Note_on_c, 9, 44, 78
1, 104672, Note_on_c, 12, 89, 73
1, 104673, Control_c, 6, 10, 84
1, 104695, Note_on_c, 4, 58, 0
1, 104698, Note_on_c, 4, 63, 0
1, 104699, Note_on_c, 9, 36, 0
1, 104699, Note_on_c, 9, 44, 0
1, 104700, Note_on_c, 4, 67, 0
1, 104712, Pitch_bend_c, 12, 960
1, 104732, Pitch_bend_c, 12, 3840
1, 104753, Pitch_bend_c, 12, 4560
1, 104773, Pitch_bend_c, 12, 5130
1, 104792, Note_on_c, 9, 42, 88
1, 104793, Pitch_bend_c, 12, 6660
1, 104814, Pitch_bend_c, 12, 7170
1, 104819, Note_on_c, 9, 42, 0
1, 104854, Note_on_c, 12, 89, 0
1, 104855, Pitch_bend_c, 12, 7230
1, 104875, Pitch_bend_c, 12, 4650
1, 104897, Pitch_bend_c, 12, 1290
1, 104912, Note_on_c, 5, 55, 72
1, 104912, Note_on_c, 9, 44, 74
1, 104912, Note_on_c, 12, 89, 62
1, 104918, Pitch_bend_c, 12, 210
1, 104924, Note_on_c, 5, 58, 72
1, 104938, Pitch_bend_c, 12, 180
1, 104939, Note_on_c, 9, 44, 0
1, 104958, Pitch_bend_c, 12, 2580
1, 104978, Pitch_bend_c, 3, 0
1, 104978, Pitch_bend_c, 12, 4230
1, 104999, Pitch_bend_c, 12, 4680
1, 105019, Pitch_bend_c, 12, 5820
1, 105032, Lyric_t, "\001"
1, 105032, Note_on_c, 1, 24, 127
1, 105032, Note_on_c, 3, 72, 127
1, 105032, Note_on_c, 5, 67, 72
1, 105033, Control_c, 6, 10, 44
1, 105037, Note_on_c, 5, 55, 0
1, 105040, Pitch_bend_c, 12, 6240
1, 105041, Note_on_c, 5, 58, 0
1, 105042, Note_on_c, 5, 70, 72
1, 105059, Pitch_bend_c, 3, 1980
1, 105060, Pitch_bend_c, 12, 6300
1, 105079, Pitch_bend_c, 3, 8192
1, 105082, Pitch_bend_c, 12, 6570
1, 105098, Note_on_c, 12, 89, 0
1, 105102, Pitch_bend_c, 12, 6000
1, 105123, Pitch_bend_c, 12, 4920
1, 105132, Control_c, 3, 1, 127
1, 105143, Pitch_bend_c, 12, 4980
1, 105149, Note_on_c, 1, 24, 0
1, 105152, Note_on_c, 1, 27, 127
1, 105152, Note_on_c, 9, 38, 127
1, 105152, Note_on_c, 9, 42, 100
1, 105155, Note_on_c, 6, 63, 0
1, 105163, Pitch_bend_c, 12, 7020
1, 105175, Note_on_c, 6, 67, 0
1, 105178, Note_on_c, 6, 70, 0
1, 105179, Note_on_c, 9, 38, 0
1, 105179, Note_on_c, 9, 42, 0
1, 105184, Pitch_bend_c, 12, 8192
1, 105202, Control_c, 3, 1, 0
1, 105250, Note_on_c, 3, 72, 0
1, 105270, Note_on_c, 6, 67, 85
1, 105270, Note_on_c, 6, 70, 71
1, 105272, Lyric_t, "\001"
1, 105272, Note_on_c, 3, 70, 127
1, 105302, Note_on_c, 1, 27, 0
1, 105328, Note_on_c, 3, 70, 0
1, 105392, Lyric_t, "\001"
1, 105392, Note_on_c, 3, 70, 127
1, 105392, Note_on_c, 5, 67, 72
1, 105392, Note_on_c, 9, 42, 73
1, 105393, Control_c, 6, 10, 84
1, 105394, Note_on_c, 5, 70, 0
1, 105405, Note_on_c, 5, 63, 72
1, 105405, Note_on_c, 5, 67, 0
1, 105419, Note_on_c, 9, 42, 0
1, 105465, Control_c, 3, 1, 127
1, 105507, Control_c, 3, 1, 0
1, 105512, Lyric_t, "\001"
1, 105512, Note_on_c, 3, 67, 127
1, 105512, Note_on_c, 3, 70, 0
1, 105513, Note_on_c, 5, 63, 72
1, 105513, Note_on_c, 5, 63, 0
1, 105514, Note_on_c, 5, 67, 0
1, 105522, Note_on_c, 5, 58, 72
1, 105577, Note_on_c, 3, 67, 0
1, 105587, Note_on_c, 6, 67, 0
1, 105587, Note_on_c, 6, 70, 0
1, 105617, Note_on_c, 4, 58, 66
1, 105619, Note_on_c, 4, 67, 88
1, 105624, Note_on_c, 4, 63, 86
1, 105630, Note_on_c, 6, 63, 72
1, 105630, Note_on_c, 6, 67, 91
1, 105630, Note_on_c, 6, 70, 73
1, 105632, Lyric_t, "\001"
1, 105632, Lyric_t, "\001"
1, 105632, Note_on_c, 1, 29, 127
1, 105632, Note_on_c, 3, 65, 127
1, 105632, Note_on_c, 9, 36, 127
1, 105632, Note_on_c, 9, 44, 78
1, 105659, Note_on_c, 9, 36, 0
1, 105659, Note_on_c, 9, 44, 0
1, 105752, Note_on_c, 9, 42, 88
1, 105753, Control_c, 6, 10, 44
1, 105760, Control_c, 3, 1, 127
1, 105779, Note_on_c, 9, 42, 0
1, 105837, Note_on_c, 3, 65, 0
1, 105872, Control_c, 3, 1, 0
1, 105872, Note_on_c, 9, 44, 74
1, 105899, Note_on_c, 9, 44, 0
1, 106085, Note_on_c, 1, 29, 0
1, 106112, Note_on_c, 1, 31, 127
1, 106112, Note_on_c, 9, 38, 127
1, 106112, Note_on_c, 9, 42, 100
1, 106113, Control_c, 6, 10, 84
1, 106139, Note_on_c, 9, 38, 0
1, 106139, Note_on_c, 9, 42, 0
1, 106219, Note_on_c, 1, 31, 0
1, 106352, Note_on_c, 9, 42, 73
1, 106379, Note_on_c, 9, 42, 0
1, 106473, Control_c, 6, 10, 44
1, 106473, Note_on_c, 5, 63, 0
1, 106528, Pitch_bend_c, 3, 7740
1, 106548, Pitch_bend_c, 3, 0
1, 106559, Note_on_c, 5, 58, 0
1, 106587, Lyric_t, "\001"
1, 106587, Note_on_c, 3, 72, 127
1, 106592, Note_on_c, 9, 36, 127
1, 106592, Note_on_c, 9, 44, 78
1, 106617, Note_on_c, 4, 58, 0
1, 106619, Pitch_bend_c, 3, 8192
1, 106619, Note_on_c, 9, 36, 0
1, 106619, Note_on_c, 9, 44, 0
1, 106620, Note_on_c, 4, 63, 0
1, 106625, Note_on_c, 4, 67, 0
1, 106709, Note_on_c, 3, 72, 0
1, 106712, Note_on_c, 9, 42, 88
1, 106713, Lyric_t, "\001"
1, 106713, Note_on_c, 3, 70, 127
1, 106739, Note_on_c, 9, 42, 0
1, 106756, Note_on_c, 3, 70, 0
1, 106786, Note_on_c, 6, 63, 0
1, 106793, Note_on_c, 6, 67, 0
1, 106793, Note_on_c, 6, 70, 0
1, 106812, Pitch_bend_c, 3, 0
1, 106824, Lyric_t, "\001"
1, 106824, Note_on_c, 3, 72, 127
1, 106832, Note_on_c, 1, 22, 127
1, 106832, Note_on_c, 9, 36, 127
1, 106832, Note_on_c, 9, 44, 74
1, 106833, Control_c, 6, 10, 84
1, 106853, Pitch_bend_c, 3, 8192
1, 106859, Note_on_c, 9, 36, 0
1, 106859, Note_on_c, 9, 44, 0
1, 106939, Lyric_t, "\001"
1, 106939, Note_on_c, 3, 70, 127
1, 106944, Note_on_c, 3, 72, 0
1, 107028, Pitch_bend_c, 3, 7800
1, 107034, Note_on_c, 3, 70, 0
1, 107048, Pitch_bend_c, 3, 0
1, 107049, Note_on_c, 1, 22, 0
1, 107060, Note_on_c, 5, 63, 73
1, 107063, Note_on_c, 5, 60, 81
1, 107067, Lyric_t, "\001"
1, 107067, Note_on_c, 3, 67, 127
1, 107070, Note_on_c, 11, 63, 96
1, 107070, Note_on_c, 11, 67, 117
1, 107070, Note_on_c, 11, 70, 103
1, 107072, Note_on_c, 1, 24, 127
1, 107072, Note_on_c, 9, 34, 115
1, 107072, Note_on_c, 9, 36, 127
1, 107072, Note_on_c, 9, 38, 127
1, 107072, Note_on_c, 9, 42, 100
1, 107079, Note_on_c, 6, 63, 70
1, 107083, Note_on_c, 6, 60, 64
1, 107088, Pitch_bend_c, 3, 8192
1, 107093, Pitch_bend_c, 9, 6210
1, 107099, Note_on_c, 9, 34, 0
1, 107099, Note_on_c, 9, 36, 0
1, 107099, Note_on_c, 9, 38, 0
1, 107099, Note_on_c, 9, 42, 0
1, 107113, Pitch_bend_c, 9, 8192
1, 107174, Note_on_c, 3, 67, 0
1, 107192, Note_on_c, 6, 62, 76
1, 107193, Control_c, 6, 10, 44
1, 107193, Note_on_c, 5, 63, 0
1, 107198, Note_on_c, 5, 65, 79
1, 107201, Note_on_c, 6, 63, 0
1, 107204, Note_on_c, 5, 62, 69
1, 107204, Note_on_c, 5, 60, 0
1, 107208, Note_on_c, 6, 65, 76
1, 107209, Note_on_c, 6, 60, 0
1, 107221, Note_on_c, 11, 70, 0
1, 107222, Note_on_c, 11, 63, 0
1, 107230, Note_on_c, 11, 63, 101
1, 107230, Note_on_c, 11, 67, 102
1, 107230, Note_on_c, 11, 70, 102
1, 107233, Note_on_c, 11, 67, 0
1, 107242, Lyric_t, "\001"
1, 107242, Note_on_c, 3, 67, 127
1, 107254, Note_on_c, 1, 24, 0
1, 107299, Note_on_c, 5, 65, 0
1, 107308, Note_on_c, 6, 65, 0
1, 107310, Note_on_c, 5, 67, 74
1, 107312, Note_on_c, 9, 42, 73
1, 107317, Note_on_c, 6, 67, 91
1, 107319, Note_on_c, 5, 62, 0
1, 107320, Note_on_c, 5, 63, 80
1, 107320, Note_on_c, 6, 63, 83
1, 107328, Note_on_c, 6, 62, 0
1, 107333, Note_on_c, 3, 67, 0
1, 107339, Note_on_c, 9, 42, 0
1, 107340, Lyric_t, "\001"
1, 107340, Lyric_t, "\001"
1, 107340, Note_on_c, 3, 65, 113
1, 107356, Note_on_c, 11, 70, 0
1, 107365, Note_on_c, 11, 63, 0
1, 107375, Note_on_c, 11, 67, 0
1, 107390, Note_on_c, 11, 63, 92
1, 107390, Note_on_c, 11, 67, 92
1, 107390, Note_on_c, 11, 70, 92
1, 107477, Note_on_c, 3, 65, 0
1, 107513, Note_on_c, 11, 70, 0
1, 107515, Pitch_bend_c, 9, 0
1, 107520, Note_on_c, 11, 67, 0
1, 107526, Note_on_c, 5, 67, 0
1, 107532, Note_on_c, 11, 63, 0
1, 107533, Note_on_c, 5, 65, 84
1, 107533, Note_on_c, 5, 63, 0
1, 107537, Note_on_c, 5, 62, 91
1, 107538, Note_on_c, 6, 63, 0
1, 107544, Note_on_c, 6, 67, 0
1, 107547, Note_on_c, 4, 58, 84
1, 107549, Note_on_c, 4, 55, 88
1, 107550, Note_on_c, 6, 60, 72
1, 107550, Note_on_c, 6, 65, 74
1, 107550, Note_on_c, 11, 63, 83
1, 107550, Note_on_c, 11, 67, 84
1, 107550, Note_on_c, 11, 70, 84
1, 107552, Note_on_c, 1, 31, 127
1, 107552, Note_on_c, 4, 62, 94
1, 107552, Note_on_c, 9, 36, 127
1, 107552, Note_on_c, 9, 44, 78
1, 107553, Control_c, 6, 10, 84
1, 107579, Note_on_c, 9, 36, 0
1, 107579, Note_on_c, 9, 44, 0
1, 107642, Pitch_bend_c, 3, 0
1, 107652, Note_on_c, 3, 67, 127
1, 107672, Note_on_c, 9, 42, 88
1, 107683, Note_on_c, 11, 70, 0
1, 107685, Note_on_c, 11, 63, 0
1, 107690, Pitch_bend_c, 3, 8192
1, 107699, Note_on_c, 9, 42, 0
1, 107703, Note_on_c, 11, 67, 0
1, 107710, Note_on_c, 11, 63, 75
1, 107710, Note_on_c, 11, 67, 75
1, 107710, Note_on_c, 11, 70, 75
1, 107792, Note_on_c, 9, 44, 74
1, 107819, Note_on_c, 9, 44, 0
1, 107830, Note_on_c, 3, 65, 111
1, 107833, Note_on_c, 3, 67, 0
1, 107852, Note_on_c, 11, 63, 0
1, 107857, Note_on_c, 11, 70, 0
1, 107866, Note_on_c, 11, 67, 0
1, 107868, Note_on_c, 3, 65, 0
1, 107869, Note_on_c, 3, 63, 107
1, 107870, Note_on_c, 11, 63, 66
1, 107870, Note_on_c, 11, 67, 66
1, 107870, Note_on_c, 11, 70, 66
1, 107890, Note_on_c, 5, 58, 85
1, 107894, Note_on_c, 5, 65, 0
1, 107907, Note_on_c, 3, 63, 0
1, 107910, Note_on_c, 6, 50, 72
1, 107910, Note_on_c, 6, 58, 62
1, 107913, Control_c, 6, 10, 44
1, 107918, Note_on_c, 3, 62, 100
1, 107926, Note_on_c, 6, 60, 0
1, 108014, Note_on_c, 3, 62, 0
1, 108015, Note_on_c, 11, 63, 0
1, 108017, Note_on_c, 11, 70, 0
1, 108023, Note_on_c, 11, 67, 0
1, 108030, Note_on_c, 11, 63, 57
1, 108030, Note_on_c, 11, 67, 58
1, 108030, Note_on_c, 11, 70, 58
1, 108032, Note_on_c, 1, 34, 127
1, 108032, Note_on_c, 9, 38, 127
1, 108032, Note_on_c, 9, 42, 100
1, 108039, Note_on_c, 1, 31, 0
1, 108059, Note_on_c, 9, 38, 0
1, 108059, Note_on_c, 9, 42, 0
1, 108127, Note_on_c, 1, 34, 0
1, 108168, Note_on_c, 11, 63, 0
1, 108177, Note_on_c, 11, 70, 0
1, 108181, Note_on_c, 11, 67, 0
1, 108190, Note_on_c, 11, 63, 48
1, 108190, Note_on_c, 11, 67, 48
1, 108190, Note_on_c, 11, 70, 49
1, 108249, Note_on_c, 5, 62, 0
1, 108270, Note_on_c, 9, 36, 65
1, 108272, Note_on_c, 5, 53, 80
1, 108272, Note_on_c, 9, 42, 73
1, 108272, Note_on_c, 10, 15, 94
1, 108273, Control_c, 6, 10, 84
1, 108297, Note_on_c, 9, 36, 0
1, 108299, Note_on_c, 9, 42, 0
1, 108299, Note_on_c, 10, 15, 0
1, 108333, Note_on_c, 11, 67, 0
1, 108337, Note_on_c, 11, 63, 0
1, 108348, Note_on_c, 11, 70, 0
1, 108350, Note_on_c, 11, 63, 39
1, 108350, Note_on_c, 11, 67, 40
1, 108350, Note_on_c, 11, 70, 39
1, 108447, Pitch_bend_c, 3, 7080
1, 108466, Note_on_c, 11, 70, 0
1, 108468, Pitch_bend_c, 3, 0
1, 108473, Note_on_c, 11, 63, 0
1, 108476, Note_on_c, 11, 67, 0
1, 108494, Lyric_t, "\001"
1, 108494, Note_on_c, 3, 63, 125
1, 108512, Note_on_c, 9, 36, 127
1, 108512, Note_on_c, 9, 44, 78
1, 108518, Pitch_bend_c, 3, 8192
1, 108522, Note_on_c, 4, 55, 0
1, 108524, Note_on_c, 4, 58, 0
1, 108524, Note_on_c, 4, 62, 0
1, 108539, Note_on_c, 9, 36, 0
1, 108539, Note_on_c, 9, 44, 0
1, 108596, Note_on_c, 3, 63, 0
1, 108613, Lyric_t, "\001"
1, 108613, Note_on_c, 3, 65, 122
1, 108632, Note_on_c, 9, 42, 88
1, 108633, Control_c, 6, 10, 44
1, 108659, Note_on_c, 9, 42, 0
1, 108695, Note_on_c, 3, 65, 0
1, 108730, Pitch_bend_c, 3, 0
1, 108734, Lyric_t, "\001"
1, 108734, Note_on_c, 3, 67, 127
1, 108752, Note_on_c, 9, 44, 74
1, 108760, Pitch_bend_c, 3, 2820
1, 108779, Note_on_c, 9, 44, 0
1, 108782, Pitch_bend_c, 3, 8192
1, 108862, Note_on_c, 5, 53, 83
1, 108872, Note_on_c, 1, 22, 127
1, 108883, Pitch_bend_c, 3, 5880
1, 108890, Note_on_c, 5, 53, 0
1, 108893, Note_on_c, 5, 58, 0
1, 108903, Pitch_bend_c, 3, 3060
1, 108912, Note_on_c, 3, 67, 0
1, 108923, Pitch_bend_c, 3, 0
1, 108975, Lyric_t, "\001"
1, 108975, Note_on_c, 3, 63, 127
1, 108984, Pitch_bend_c, 3, 5160
1, 108984, Pitch_bend_c, 5, 12302
1, 108985, Note_on_c, 1, 22, 0
1, 108992, Note_on_c, 1, 24, 127
1, 108992, Note_on_c, 9, 38, 127
1, 108992, Note_on_c, 9, 42, 100
1, 108993, Control_c, 6, 10, 84
1, 109004, Pitch_bend_c, 3, 8192
1, 109005, Pitch_bend_c, 5, 16383
1, 109007, Note_on_c, 6, 58, 0
1, 109008, Note_on_c, 6, 50, 0
1, 109019, Note_on_c, 9, 38, 0
1, 109019, Note_on_c, 9, 42, 0
1, 109023, Note_on_c, 6, 65, 0
1, 109078, Note_on_c, 3, 63, 0
1, 109102, Lyric_t, "\001"
1, 109102, Note_on_c, 3, 65, 121
1, 109110, Note_on_c, 6, 55, 64
1, 109110, Note_on_c, 6, 58, 57
1, 109110, Note_on_c, 6, 60, 68
1, 109145, Note_on_c, 1, 24, 0
1, 109189, Note_on_c, 5, 53, 0
1, 109189, Note_on_c, 3, 65, 0
1, 109200, Pitch_bend_c, 5, 15902
1, 109222, Pitch_bend_c, 5, 8192
1, 109227, Note_on_c, 5, 65, 92
1, 109228, Lyric_t, "\001"
1, 109228, Lyric_t, "\001"
1, 109228, Note_on_c, 3, 67, 127
1, 109232, Note_on_c, 9, 42, 73
1, 109259, Note_on_c, 9, 42, 0
1, 109353, Control_c, 6, 10, 44
1, 109358, Note_on_c, 3, 67, 0
1, 109365, Pitch_bend_c, 5, 0
1, 109450, Note_on_c, 6, 55, 0
1, 109452, Note_on_c, 6, 60, 0
1, 109455, Note_on_c, 6, 58, 0
1, 109457, Note_on_c, 4, 63, 89
1, 109459, Note_on_c, 4, 67, 95
1, 109462, Note_on_c, 4, 58, 85
1, 109470, Note_on_c, 6, 60, 77
1, 109470, Note_on_c, 6, 63, 83
1, 109470, Note_on_c, 6, 67, 86
1, 109472, Note_on_c, 1, 31, 127
1, 109472, Note_on_c, 9, 36, 127
1, 109472, Note_on_c, 9, 44, 78
1, 109499, Note_on_c, 9, 36, 0
1, 109499, Note_on_c, 9, 44, 0
1, 109588, Lyric_t, "\001"
1, 109588, Note_on_c, 3, 70, 127
1, 109592, Note_on_c, 9, 42, 88
1, 109613, Control_c, 5, 1, 4
1, 109619, Note_on_c, 9, 42, 0
1, 109643, Control_c, 5, 1, 39
1, 109653, Pitch_bend_c, 3, 16383
1, 109675, Control_c, 5, 1, 101
1, 109705, Control_c, 5, 1, 118
1, 109712, Note_on_c, 9, 44, 74
1, 109713, Pitch_bend_c, 3, 15242
1, 109713, Control_c, 6, 10, 84
1, 109734, Pitch_bend_c, 3, 8192
1, 109737, Control_c, 5, 1, 125
1, 109739, Note_on_c, 9, 44, 0
1, 109796, Note_on_c, 3, 70, 0
1, 109808, Note_on_c, 11, 67, 77
1, 109809, Control_c, 5, 1, 127
1, 109832, Lyric_t, "\001"
1, 109832, Note_on_c, 3, 75, 127
1, 109857, Note_on_c, 11, 70, 72
1, 109859, Note_on_c, 11, 67, 0
1, 109867, Pitch_bend_c, 3, 16383
1, 109872, Control_c, 5, 1, 125
1, 109894, Note_on_c, 11, 70, 0
1, 109898, Control_c, 3, 1, 0
1, 109902, Control_c, 5, 1, 0
1, 109903, Note_on_c, 11, 67, 87
1, 109914, Note_on_c, 5, 65, 0
1, 109933, Pitch_bend_c, 5, 8192
1, 109943, Note_on_c, 11, 67, 0
1, 109944, Note_on_c, 1, 31, 0
1, 109950, Note_on_c, 11, 70, 88
1, 109952, Note_on_c, 1, 34, 127
1, 109952, Note_on_c, 9, 36, 127
1, 109952, Note_on_c, 9, 38, 127
1, 109952, Note_on_c, 9, 42, 100
1, 109953, Pitch_bend_c, 5, 8192
1, 109957, Pitch_bend_c, 3, 8192
1, 109979, Note_on_c, 9, 36, 0
1, 109979, Note_on_c, 9, 38, 0
1, 109979, Note_on_c, 9, 42, 0
1, 109983, Note_on_c, 11, 70, 0
1, 109994, Note_on_c, 11, 67, 95
1, 110031, Note_on_c, 11, 67, 0
1, 110039, Note_on_c, 11, 70, 94
1, 110070, Note_on_c, 11, 70, 0
1, 110073, Control_c, 6, 10, 44
1, 110085, Note_on_c, 11, 67, 107
1, 110090, Control_c, 3, 1, 127
1, 110112, Note_on_c, 1, 34, 0
1, 110122, Note_on_c, 11, 67, 0
1, 110128, Note_on_c, 11, 70, 116
1, 110159, Note_on_c, 11, 70, 0
1, 110173, Note_on_c, 11, 67, 123
1, 110192, Note_on_c, 9, 42, 73
1, 110209, Note_on_c, 11, 67, 0
1, 110217, Note_on_c, 11, 70, 127
1, 110219, Note_on_c, 9, 42, 0
1, 110232, Control_c, 3, 1, 0
1, 110232, Pitch_bend_c, 3, 90
1, 110235, Note_on_c, 3, 75, 0
1, 110249, Note_on_c, 11, 70, 0
1, 110252, Pitch_bend_c, 3, 8192
1, 110269, Note_on_c, 11, 67, 127
1, 110274, Pitch_bend_c, 3, 0
1, 110294, Lyric_t, "\001"
1, 110294, Note_on_c, 3, 72, 127
1, 110308, Pitch_bend_c, 3, 420
1, 110310, Note_on_c, 11, 70, 127
1, 110314, Note_on_c, 11, 67, 0
1, 110328, Pitch_bend_c, 3, 6240
1, 110345, Note_on_c, 11, 70, 0
1, 110348, Pitch_bend_c, 3, 8192
1, 110362, Note_on_c, 11, 67, 126
1, 110399, Note_on_c, 11, 67, 0
1, 110404, Note_on_c, 11, 70, 123
1, 110429, Pitch_bend_c, 3, 7110
1, 110432, Note_on_c, 1, 24, 127
1, 110432, Note_on_c, 9, 36, 127
1, 110432, Note_on_c, 9, 42, 72
1, 110433, Control_c, 6, 10, 84
1, 110437, Note_on_c, 11, 70, 0
1, 110449, Pitch_bend_c, 3, 0
1, 110449, Note_on_c, 11, 67, 120
1, 110459, Note_on_c, 9, 36, 0
1, 110459, Note_on_c, 9, 42, 0
1, 110467, Note_on_c, 3, 72, 0
1, 110474, Lyric_t, "\001"
1, 110474, Lyric_t, "\001"
1, 110474, Note_on_c, 3, 67, 127
1, 110485, Note_on_c, 4, 58, 0
1, 110487, Note_on_c, 11, 67, 0
1, 110489, Pitch_bend_c, 3, 8192
1, 110492, Note_on_c, 9, 44, 50
1, 110494, Note_on_c, 4, 63, 0
1, 110495, Note_on_c, 11, 70, 113
1, 110499, Note_on_c, 4, 67, 0
1, 110499, Note_on_c, 3, 67, 0
1, 110519, Note_on_c, 9, 44, 0
1, 110528, Note_on_c, 11, 70, 0
1, 110538, Note_on_c, 11, 67, 98
1, 110552, Note_on_c, 9, 38, 127
1, 110552, Note_on_c, 9, 42, 45
1, 110564, Note_on_c, 1, 24, 0
1, 110575, Note_on_c, 11, 67, 0
1, 110579, Note_on_c, 9, 38, 0
1, 110579, Note_on_c, 9, 42, 0
1, 110589, Note_on_c, 11, 70, 91
1, 110612, Note_on_c, 9, 44, 44
1, 110619, Note_on_c, 11, 70, 0
1, 110627, Note_on_c, 11, 67, 91
1, 110638, Pitch_bend_c, 12, 4410
1, 110639, Note_on_c, 9, 44, 0
1, 110658, Pitch_bend_c, 12, 0
1, 110668, Note_on_c, 11, 67, 0
1, 110669, Note_on_c, 12, 77, 98
1, 110672, Note_on_c, 9, 36, 121
1, 110672, Note_on_c, 9, 42, 65
1, 110673, Note_on_c, 12, 72, 90
1, 110679, Note_on_c, 11, 70, 84
1, 110699, Pitch_bend_c, 12, 3660
1, 110699, Note_on_c, 9, 36, 0
1, 110699, Note_on_c, 9, 42, 0
1, 110711, Note_on_c, 11, 70, 0
1, 110715, Note_on_c, 11, 67, 84
1, 110720, Pitch_bend_c, 12, 8192
1, 110732, Note_on_c, 9, 38, 93
1, 110732, Note_on_c, 9, 44, 45
1, 110758, Note_on_c, 11, 67, 0
1, 110759, Note_on_c, 9, 38, 0
1, 110759, Note_on_c, 9, 44, 0
1, 110767, Note_on_c, 11, 70, 74
1, 110775, Pitch_bend_c, 3, 0
1, 110782, Lyric_t, "\001"
1, 110782, Note_on_c, 3, 58, 127
1, 110792, Note_on_c, 1, 24, 127
1, 110792, Note_on_c, 9, 42, 45
1, 110793, Control_c, 6, 10, 44
1, 110798, Note_on_c, 11, 70, 0
1, 110803, Pitch_bend_c, 12, 4470
1, 110804, Note_on_c, 11, 67, 81
1, 110817, Pitch_bend_c, 3, 8192
1, 110819, Note_on_c, 9, 42, 0
1, 110823, Pitch_bend_c, 12, 0
1, 110846, Note_on_c, 11, 67, 0
1, 110850, Note_on_c, 11, 70, 70
1, 110852, Note_on_c, 9, 44, 50
1, 110862, Note_on_c, 3, 58, 0
1, 110879, Note_on_c, 9, 44, 0
1, 110881, Note_on_c, 11, 70, 0
1, 110892, Note_on_c, 11, 67, 76
1, 110898, Lyric_t, "\001"
1, 110898, Note_on_c, 3, 63, 127
1, 110912, Note_on_c, 9, 38, 127
1, 110912, Note_on_c, 9, 42, 93
1, 110930, Note_on_c, 11, 67, 0
1, 110937, Note_on_c, 11, 70, 63
1, 110939, Note_on_c, 9, 38, 0
1, 110939, Note_on_c, 9, 42, 0
1, 110943, Note_on_c, 6, 63, 0
1, 110956, Note_on_c, 6, 60, 0
1, 110965, Note_on_c, 11, 70, 0
1, 110972, Note_on_c, 6, 67, 0
1, 110973, Note_on_c, 11, 67, 71
1, 110978, Control_c, 12, 1, 121
1, 110999, Note_on_c, 3, 63, 0
1, 111014, Note_on_c, 11, 67, 0
1, 111019, Control_c, 12, 1, 127
1, 111029, Lyric_t, "\001"
1, 111029, Note_on_c, 3, 65, 127
1, 111030, Note_on_c, 6, 56, 87
1, 111030, Note_on_c, 6, 60, 75
1, 111030, Note_on_c, 6, 64, 83
1, 111102, Note_on_c, 3, 65, 0
1, 111129, Note_on_c, 1, 24, 0
1, 111152, Lyric_t, "\001"
1, 111152, Note_on_c, 1, 27, 127
1, 111152, Note_on_c, 3, 67, 127
1, 111153, Control_c, 6, 10, 84
1, 111264, Note_on_c, 3, 67, 0
1, 111273, Note_on_c, 12, 72, 0
1, 111281, Note_on_c, 12, 77, 0
1, 111283, Note_on_c, 1, 27, 0
1, 111288, Control_c, 12, 1, 0
1, 111298, Pitch_bend_c, 12, 8192
1, 111309, Pitch_bend_c, 12, 4650
1, 111330, Pitch_bend_c, 12, 0
1, 111338, Note_on_c, 6, 60, 0
1, 111346, Note_on_c, 6, 64, 0
1, 111350, Note_on_c, 6, 56, 0
1, 111363, Pitch_bend_c, 3, 0
1, 111375, Lyric_t, "\001"
1, 111375, Note_on_c, 3, 65, 127
1, 111388, Note_on_c, 4, 67, 95
1, 111390, Note_on_c, 4, 58, 80
1, 111390, Note_on_c, 6, 63, 75
1, 111390, Note_on_c, 6, 67, 93
1, 111390, Note_on_c, 6, 70, 77
1, 111392, Note_on_c, 1, 29, 127
1, 111392, Note_on_c, 4, 63, 90
1, 111392, Note_on_c, 9, 36, 127
1, 111392, Note_on_c, 9, 44, 78
1, 111392, Note_on_c, 12, 89, 108
1, 111392, Note_on_c, 12, 89, 109
1, 111392, Note_on_c, 15, 63, 1
1, 111392, Note_on_c, 15, 67, 1
1, 111392, Note_on_c, 15, 70, 1
1, 111393, Control_c, 6, 10, 84
1, 111403, Pitch_bend_c, 3, 8192
1, 111419, Note_on_c, 9, 36, 0
1, 111419, Note_on_c, 9, 44, 0
1, 111423, Pitch_bend_c, 12, 1500
1, 111423, Pitch_bend_c, 12, 1500
1, 111443, Pitch_bend_c, 12, 4020
1, 111443, Pitch_bend_c, 12, 4020
1, 111463, Pitch_bend_c, 12, 5820
1, 111463, Pitch_bend_c, 12, 5820
1, 111484, Pitch_bend_c, 12, 8192
1, 111484, Pitch_bend_c, 12, 8192
1, 111512, Note_on_c, 9, 42, 88
1, 111535, Pitch_bend_c, 3, 6540
1, 111539, Note_on_c, 9, 42, 0
1, 111557, Pitch_bend_c, 3, 3840
1, 111568, Pitch_bend_c, 12, 6690
1, 111568, Pitch_bend_c, 12, 6690
1, 111572, Note_on_c, 12, 89, 0
1, 111572, Note_on_c, 12, 89, 0
1, 111577, Pitch_bend_c, 3, 720
1, 111582, Note_on_c, 3, 65, 0
1, 111588, Pitch_bend_c, 12, 2580
1, 111588, Pitch_bend_c, 12, 2580
1, 111597, Pitch_bend_c, 3, 570
1, 111608, Pitch_bend_c, 12, 0
1, 111608, Pitch_bend_c, 12, 0
1, 111618, Pitch_bend_c, 3, 8192
1, 111632, Lyric_t, "\001"
1, 111632, Note_on_c, 3, 63, 127
1, 111632, Note_on_c, 9, 44, 74
1, 111632, Note_on_c, 12, 89, 106
1, 111632, Note_on_c, 12, 89, 107
1, 111659, Note_on_c, 9, 44, 0
1, 111670, Pitch_bend_c, 12, 810
1, 111670, Pitch_bend_c, 12, 810
1, 111690, Pitch_bend_c, 12, 4530
1, 111690, Pitch_bend_c, 12, 4530
1, 111712, Pitch_bend_c, 12, 4830
1, 111712, Pitch_bend_c, 12, 4830
1, 111717, Note_on_c, 3, 63, 0
1, 111732, Pitch_bend_c, 12, 6480
1, 111732, Pitch_bend_c, 12, 6480
1, 111753, Control_c, 6, 10, 44
1, 111753, Pitch_bend_c, 12, 8192
1, 111753, Pitch_bend_c, 12, 8192
1, 111803, Note_on_c, 12, 89, 0
1, 111803, Note_on_c, 12, 89, 0
1, 111824, Pitch_bend_c, 12, 3630
1, 111824, Pitch_bend_c, 12, 3630
1, 111837, Note_on_c, 1, 29, 0
1, 111840, Pitch_bend_c, 3, 6840
1, 111845, Pitch_bend_c, 12, 0
1, 111845, Pitch_bend_c, 12, 0
1, 111860, Pitch_bend_c, 3, 0
1, 111865, Lyric_t, "\001"
1, 111865, Note_on_c, 3, 65, 127
1, 111872, Note_on_c, 1, 31, 127
1, 111872, Note_on_c, 9, 38, 127
1, 111872, Note_on_c, 9, 42, 100
1, 111872, Note_on_c, 12, 89, 78
1, 111872, Note_on_c, 12, 89, 79
1, 111890, Pitch_bend_c, 3, 2550
1, 111899, Note_on_c, 9, 38, 0
1, 111899, Note_on_c, 9, 42, 0
1, 111912, Pitch_bend_c, 3, 8192
1, 111918, Pitch_bend_c, 12, 2910
1, 111918, Pitch_bend_c, 12, 2910
1, 111938, Pitch_bend_c, 12, 4860
1, 111938, Pitch_bend_c, 12, 4860
1, 111958, Pitch_bend_c, 12, 4920
1, 111958, Pitch_bend_c, 12, 4920
1, 111979, Pitch_bend_c, 12, 6300
1, 111979, Pitch_bend_c, 12, 6300
1, 111993, Pitch_bend_c, 3, 7710
1, 111999, Pitch_bend_c, 12, 6960
1, 111999, Pitch_bend_c, 12, 6960
1, 112013, Note_on_c, 1, 31, 0
1, 112020, Pitch_bend_c, 12, 7020
1, 112020, Pitch_bend_c, 12, 7020
1, 112022, Pitch_bend_c, 3, 4800
1, 112028, Note_on_c, 3, 65, 0
1, 112042, Pitch_bend_c, 12, 7320
1, 112042, Pitch_bend_c, 12, 7320
1, 112043, Pitch_bend_c, 3, 4560
1, 112048, Note_on_c, 12, 89, 0
1, 112048, Note_on_c, 12, 89, 0
1, 112062, Pitch_bend_c, 12, 3840
1, 112062, Pitch_bend_c, 12, 3840
1, 112063, Pitch_bend_c, 3, 4200
1, 112082, Pitch_bend_c, 12, 0
1, 112082, Pitch_bend_c, 12, 0
1, 112083, Pitch_bend_c, 3, 4470
1, 112103, Pitch_bend_c, 3, 8192
1, 112110, Note_on_c, 9, 36, 65
1, 112112, Note_on_c, 9, 42, 73
1, 112112, Note_on_c, 10, 15, 94
1, 112112, Note_on_c, 12, 89, 82
1, 112112, Note_on_c, 12, 89, 83
1, 112113, Control_c, 6, 10, 84
1, 112114, Lyric_t, "\001"
1, 112114, Note_on_c, 3, 63, 127
1, 112137, Note_on_c, 9, 36, 0
1, 112139, Note_on_c, 9, 42, 0
1, 112139, Note_on_c, 10, 15, 0
1, 112154, Pitch_bend_c, 12, 2220
1, 112154, Pitch_bend_c, 12, 2220
1, 112174, Pitch_bend_c, 12, 3030
1, 112174, Pitch_bend_c, 12, 3030
1, 112179, Note_on_c, 3, 63, 0
1, 112195, Pitch_bend_c, 12, 3780
1, 112195, Pitch_bend_c, 12, 3780
1, 112217, Pitch_bend_c, 12, 4770
1, 112217, Pitch_bend_c, 12, 4770
1, 112237, Pitch_bend_c, 12, 5820
1, 112237, Pitch_bend_c, 12, 5820
1, 112258, Pitch_bend_c, 12, 6570
1, 112258, Pitch_bend_c, 12, 6570
1, 112278, Pitch_bend_c, 12, 6810
1, 112278, Pitch_bend_c, 12, 6810
1, 112289, Note_on_c, 12, 89, 0
1, 112289, Note_on_c, 12, 89, 0
1, 112297, Pitch_bend_c, 3, 7560
1, 112298, Pitch_bend_c, 12, 6000
1, 112298, Pitch_bend_c, 12, 6000
1, 112317, Pitch_bend_c, 3, 0
1, 112319, Pitch_bend_c, 12, 2010
1, 112319, Pitch_bend_c, 12, 2010
1, 112333, Lyric_t, "\001"
1, 112333, Note_on_c, 3, 65, 127
1, 112348, Pitch_bend_c, 12, 60
1, 112348, Pitch_bend_c, 12, 60
1, 112352, Note_on_c, 9, 36, 127
1, 112352, Note_on_c, 9, 44, 78
1, 112352, Note_on_c, 12, 89, 69
1, 112352, Note_on_c, 12, 89, 70
1, 112358, Pitch_bend_c, 3, 2490
1, 112378, Pitch_bend_c, 3, 8192
1, 112379, Note_on_c, 9, 36, 0
1, 112379, Note_on_c, 9, 44, 0
1, 112392, Pitch_bend_c, 12, 960
1, 112392, Pitch_bend_c, 12, 960
1, 112412, Pitch_bend_c, 12, 3840
1, 112412, Pitch_bend_c, 12, 3840
1, 112433, Pitch_bend_c, 12, 4560
1, 112433, Pitch_bend_c, 12, 4560
1, 112453, Pitch_bend_c, 12, 5130
1, 112453, Pitch_bend_c, 12, 5130
1, 112472, Note_on_c, 9, 42, 88
1, 112473, Control_c, 6, 10, 44
1, 112473, Pitch_bend_c, 12, 6660
1, 112473, Pitch_bend_c, 12, 6660
1, 112489, Note_on_c, 3, 65, 0
1, 112494, Pitch_bend_c, 12, 7170
1, 112494, Pitch_bend_c, 12, 7170
1, 112499, Note_on_c, 9, 42, 0
1, 112500, Note_on_c, 4, 58, 0
1, 112506, Note_on_c, 4, 67, 0
1, 112507, Note_on_c, 4, 63, 0
1, 112534, Note_on_c, 12, 89, 0
1, 112534, Note_on_c, 12, 89, 0
1, 112535, Pitch_bend_c, 12, 7230
1, 112535, Pitch_bend_c, 12, 7230
1, 112555, Pitch_bend_c, 12, 4650
1, 112555, Pitch_bend_c, 12, 4650
1, 112577, Lyric_t, "\001"
1, 112577, Lyric_t, "\001"
1, 112577, Note_on_c, 3, 63, 120
1, 112577, Pitch_bend_c, 12, 1290
1, 112577, Pitch_bend_c, 12, 1290
1, 112592, Note_on_c, 5, 55, 72
1, 112592, Note_on_c, 9, 44, 74
1, 112592, Note_on_c, 12, 89, 58
1, 112592, Note_on_c, 12, 89, 59
1, 112598, Pitch_bend_c, 12, 210
1, 112598, Pitch_bend_c, 12, 210
1, 112599, Note_on_c, 3, 63, 0
1, 112604, Note_on_c, 5, 58, 72
1, 112618, Pitch_bend_c, 12, 180
1, 112618, Pitch_bend_c, 12, 180
1, 112619, Note_on_c, 9, 44, 0
1, 112638, Pitch_bend_c, 12, 2580
1, 112638, Pitch_bend_c, 12, 2580
1, 112658, Pitch_bend_c, 12, 4230
1, 112658, Pitch_bend_c, 12, 4230
1, 112679, Pitch_bend_c, 12, 4680
1, 112679, Pitch_bend_c, 12, 4680
1, 112699, Pitch_bend_c, 12, 5820
1, 112699, Pitch_bend_c, 12, 5820
1, 112704, Pitch_bend_c, 3, 0
1, 112708, Lyric_t, "\001"
1, 112708, Note_on_c, 3, 58, 127
1, 112710, Note_on_c, 6, 63, 78
1, 112710, Note_on_c, 6, 67, 79
1, 112712, Note_on_c, 1, 24, 127
1, 112712, Note_on_c, 5, 67, 72
1, 112717, Note_on_c, 5, 55, 0
1, 112720, Pitch_bend_c, 12, 6240
1, 112720, Pitch_bend_c, 12, 6240
1, 112721, Note_on_c, 5, 58, 0
1, 112722, Note_on_c, 5, 70, 72
1, 112735, Pitch_bend_c, 3, 8192
1, 112740, Pitch_bend_c, 12, 6300
1, 112740, Pitch_bend_c, 12, 6300
1, 112762, Pitch_bend_c, 12, 6570
1, 112762, Pitch_bend_c, 12, 6570
1, 112778, Note_on_c, 12, 89, 0
1, 112778, Note_on_c, 12, 89, 0
1, 112782, Pitch_bend_c, 12, 6000
1, 112782, Pitch_bend_c, 12, 6000
1, 112803, Pitch_bend_c, 12, 4920
1, 112803, Pitch_bend_c, 12, 4920
1, 112810, Note_on_c, 1, 24, 0
1, 112823, Pitch_bend_c, 12, 4980
1, 112823, Pitch_bend_c, 12, 4980
1, 112832, Note_on_c, 1, 27, 127
1, 112832, Note_on_c, 9, 38, 127
1, 112832, Note_on_c, 9, 42, 100
1, 112833, Control_c, 6, 10, 84
1, 112843, Pitch_bend_c, 12, 7020
1, 112843, Pitch_bend_c, 12, 7020
1, 112859, Note_on_c, 9, 38, 0
1, 112859, Note_on_c, 9, 42, 0
1, 112864, Pitch_bend_c, 12, 8192
1, 112864, Pitch_bend_c, 12, 8192
1, 112886, Note_on_c, 3, 58, 0
1, 112954, Lyric_t, "\001"
1, 112954, Note_on_c, 3, 58, 127
1, 112964, Note_on_c, 1, 27, 0
1, 113012, Note_on_c, 3, 58, 0
1, 113072, Lyric_t, "\001"
1, 113072, Note_on_c, 3, 60, 127
1, 113072, Note_on_c, 5, 67, 72
1, 113072, Note_on_c, 9, 42, 73
1, 113074, Note_on_c, 5, 70, 0
1, 113085, Note_on_c, 5, 63, 72
1, 113085, Note_on_c, 5, 67, 0
1, 113099, Note_on_c, 9, 42, 0
1, 113177, Note_on_c, 3, 60, 0
1, 113183, Note_on_c, 6, 63, 0
1, 113193, Note_on_c, 5, 63, 72
1, 113193, Control_c, 6, 10, 44
1, 113193, Note_on_c, 6, 67, 0
1, 113193, Note_on_c, 5, 63, 0
1, 113194, Lyric_t, "\001"
1, 113194, Note_on_c, 3, 58, 123
1, 113194, Note_on_c, 5, 67, 0
1, 113202, Note_on_c, 5, 58, 72
1, 113208, Note_on_c, 6, 70, 0
1, 113221, Note_on_c, 3, 58, 0
1, 113257, Note_on_c, 6, 67, 0
1, 113273, Note_on_c, 6, 63, 0
1, 113283, Pitch_bend_c, 3, 0
1, 113303, Lyric_t, "\001"
1, 113303, Note_on_c, 3, 63, 127
1, 113310, Note_on_c, 6, 60, 74
1, 113310, Note_on_c, 6, 63, 77
1, 113310, Note_on_c, 6, 67, 87
1, 113312, Note_on_c, 1, 29, 127
1, 113312, Note_on_c, 4, 67, 89
1, 113312, Note_on_c, 4, 63, 77
1, 113312, Note_on_c, 9, 36, 127
1, 113312, Note_on_c, 9, 44, 78
1, 113313, Pitch_bend_c, 3, 810
1, 113315, Note_on_c, 4, 58, 75
1, 113333, Pitch_bend_c, 3, 8192
1, 113339, Note_on_c, 9, 36, 0
1, 113339, Note_on_c, 9, 44, 0
1, 113431, Note_on_c, 3, 63, 0
1, 113432, Note_on_c, 9, 42, 88
1, 113459, Note_on_c, 9, 42, 0
1, 113552, Note_on_c, 9, 44, 74
1, 113553, Control_c, 6, 10, 84
1, 113564, Lyric_t, "\001"
1, 113564, Note_on_c, 3, 63, 127
1, 113579, Note_on_c, 9, 44, 0
1, 113639, Note_on_c, 3, 63, 0
1, 113734, Note_on_c, 1, 29, 0
1, 113784, Lyric_t, "\001"
1, 113784, Note_on_c, 3, 63, 127
1, 113790, Note_on_c, 11, 63, 96
1, 113790, Note_on_c, 11, 67, 117
1, 113790, Note_on_c, 11, 70, 103
1, 113792, Note_on_c, 1, 31, 127
1, 113792, Note_on_c, 9, 38, 127
1, 113792, Note_on_c, 9, 42, 100
1, 113819, Note_on_c, 9, 38, 0
1, 113819, Note_on_c, 9, 42, 0
1, 113879, Note_on_c, 3, 63, 0
1, 113913, Control_c, 6, 10, 44
1, 113934, Note_on_c, 1, 31, 0
1, 113941, Note_on_c, 11, 70, 0
1, 113942, Note_on_c, 11, 63, 0
1, 113950, Note_on_c, 11, 63, 101
1, 113950, Note_on_c, 11, 67, 102
1, 113950, Note_on_c, 11, 70, 102
1, 113953, Note_on_c, 11, 67, 0
1, 114028, Lyric_t, "\001"
1, 114028, Note_on_c, 3, 63, 115
1, 114032, Note_on_c, 9, 42, 73
1, 114059, Note_on_c, 9, 42, 0
1, 114076, Note_on_c, 11, 70, 0
1, 114085, Note_on_c, 11, 63, 0
1, 114095, Note_on_c, 11, 67, 0
1, 114110, Note_on_c, 11, 63, 92
1, 114110, Note_on_c, 11, 67, 92
1, 114110, Note_on_c, 11, 70, 92
1, 114115, Note_on_c, 3, 63, 0
1, 114153, Note_on_c, 5, 63, 0
1, 114233, Note_on_c, 11, 70, 0
1, 114239, Note_on_c, 5, 58, 0
1, 114240, Note_on_c, 11, 67, 0
1, 114252, Note_on_c, 11, 63, 0
1, 114263, Lyric_t, "\001"
1, 114263, Lyric_t, "\001"
1, 114263, Note_on_c, 3, 63, 127
1, 114270, Note_on_c, 11, 63, 83
1, 114270, Note_on_c, 11, 67, 84
1, 114270, Note_on_c, 11, 70, 84
1, 114272, Note_on_c, 9, 36, 127
1, 114272, Note_on_c, 9, 44, 78
1, 114273, Control_c, 6, 10, 84
1, 114299, Note_on_c, 9, 36, 0
1, 114299, Note_on_c, 9, 44, 0
1, 114345, Note_on_c, 3, 63, 0
1, 114348, Note_on_c, 4, 58, 0
1, 114359, Note_on_c, 4, 63, 0
1, 114362, Note_on_c, 4, 67, 0
1, 114392, Note_on_c, 9, 42, 88
1, 114403, Note_on_c, 11, 70, 0
1, 114405, Note_on_c, 11, 63, 0
1, 114419, Note_on_c, 9, 42, 0
1, 114423, Note_on_c, 11, 67, 0
1, 114429, Control_c, 3, 1, 127
1, 114430, Note_on_c, 11, 63, 75
1, 114430, Note_on_c, 11, 67, 75
1, 114430, Note_on_c, 11, 70, 75
1, 114480, Control_c, 3, 1, 0
1, 114512, Note_on_c, 1, 22, 127
1, 114512, Note_on_c, 9, 36, 127
1, 114512, Note_on_c, 9, 44, 74
1, 114531, Note_on_c, 6, 60, 0
1, 114539, Note_on_c, 9, 36, 0
1, 114539, Note_on_c, 9, 44, 0
1, 114543, Note_on_c, 6, 67, 0
1, 114548, Note_on_c, 6, 63, 0
1, 114572, Note_on_c, 11, 63, 0
1, 114577, Note_on_c, 11, 70, 0
1, 114586, Note_on_c, 11, 67, 0
1, 114590, Note_on_c, 11, 63, 66
1, 114590, Note_on_c, 11, 67, 66
1, 114590, Note_on_c, 11, 70, 66
1, 114592, Pitch_bend_c, 3, 7500
1, 114612, Pitch_bend_c, 3, 0
1, 114633, Pitch_bend_c, 3, 30
1, 114633, Control_c, 6, 10, 44
1, 114635, Lyric_t, "\001"
1, 114635, Note_on_c, 3, 63, 127
1, 114653, Pitch_bend_c, 3, 8192
1, 114718, Note_on_c, 1, 22, 0
1, 114735, Note_on_c, 11, 63, 0
1, 114737, Note_on_c, 11, 70, 0
1, 114738, Note_on_c, 15, 63, 0
1, 114738, Note_on_c, 15, 67, 0
1, 114738, Note_on_c, 15, 70, 0
1, 114740, Note_on_c, 5, 63, 73
1, 114743, Note_on_c, 5, 60, 81
1, 114743, Note_on_c, 11, 67, 0
1, 114750, Note_on_c, 6, 60, 81
1, 114750, Note_on_c, 6, 63, 75
1, 114750, Note_on_c, 11, 63, 57
1, 114750, Note_on_c, 11, 67, 58
1, 114750, Note_on_c, 11, 70, 58
1, 114752, Note_on_c, 1, 24, 127
1, 114752, Note_on_c, 9, 34, 115
1, 114752, Note_on_c, 9, 36, 127
1, 114752, Note_on_c, 9, 38, 127
1, 114752, Note_on_c, 9, 42, 100
1, 114752, Note_on_c, 15, 60, 1
1, 114752, Note_on_c, 15, 63, 1
1, 114773, Pitch_bend_c, 9, 6210
1, 114779, Note_on_c, 9, 34, 0
1, 114779, Note_on_c, 9, 36, 0
1, 114779, Note_on_c, 9, 38, 0
1, 114779, Note_on_c, 9, 42, 0
1, 114788, Note_on_c, 3, 63, 0
1, 114793, Pitch_bend_c, 9, 8192
1, 114870, Note_on_c, 6, 62, 81
1, 114870, Note_on_c, 6, 65, 70
1, 114871, Note_on_c, 6, 63, 0
1, 114872, Note_on_c, 15, 62, 1
1, 114872, Note_on_c, 15, 65, 1
1, 114873, Note_on_c, 5, 63, 0
1, 114878, Note_on_c, 5, 65, 79
1, 114883, Lyric_t, "\001"
1, 114883, Note_on_c, 3, 63, 97
1, 114884, Note_on_c, 5, 62, 69
1, 114884, Note_on_c, 5, 60, 0
1, 114885, Note_on_c, 15, 63, 0
1, 114888, Note_on_c, 11, 63, 0
1, 114893, Note_on_c, 15, 60, 0
1, 114897, Note_on_c, 11, 70, 0
1, 114900, Note_on_c, 6, 60, 0
1, 114901, Note_on_c, 11, 67, 0
1, 114902, Note_on_c, 1, 24, 0
1, 114905, Note_on_c, 3, 63, 0
1, 114910, Note_on_c, 11, 63, 48
1, 114910, Note_on_c, 11, 67, 48
1, 114910, Note_on_c, 11, 70, 49
1, 114979, Note_on_c, 5, 65, 0
1, 114980, Note_on_c, 6, 65, 0
1, 114989, Note_on_c, 15, 62, 0
1, 114989, Note_on_c, 15, 65, 0
1, 114990, Note_on_c, 5, 67, 74
1, 114990, Note_on_c, 6, 63, 79
1, 114990, Note_on_c, 6, 67, 83
1, 114992, Note_on_c, 9, 42, 73
1, 114992, Note_on_c, 15, 63, 1
1, 114992, Note_on_c, 15, 67, 1
1, 114993, Control_c, 6, 10, 84
1, 114999, Note_on_c, 5, 62, 0
1, 115000, Note_on_c, 5, 63, 80
1, 115012, Lyric_t, "\001"
1, 115012, Note_on_c, 3, 63, 127
1, 115012, Note_on_c, 6, 62, 0
1, 115019, Note_on_c, 9, 42, 0
1, 115053, Note_on_c, 11, 67, 0
1, 115057, Note_on_c, 11, 63, 0
1, 115068, Note_on_c, 11, 70, 0
1, 115070, Note_on_c, 11, 63, 39
1, 115070, Note_on_c, 11, 67, 40
1, 115070, Note_on_c, 11, 70, 39
1, 115130, Control_c, 3, 1, 127
1, 115138, Lyric_t, "\001"
1, 115138, Note_on_c, 3, 63, 97
1, 115160, Note_on_c, 3, 63, 0
1, 115161, Note_on_c, 3, 63, 0
1, 115170, Control_c, 3, 1, 0
1, 115186, Note_on_c, 11, 70, 0
1, 115188, Note_on_c, 6, 63, 0
1, 115193, Note_on_c, 11, 63, 0
1, 115195, Pitch_bend_c, 9, 0
1, 115196, Note_on_c, 11, 67, 0
1, 115203, Note_on_c, 6, 67, 0
1, 115206, Note_on_c, 5, 67, 0
1, 115213, Note_on_c, 5, 65, 84
1, 115213, Note_on_c, 5, 63, 0
1, 115217, Note_on_c, 5, 62, 91
1, 115229, Note_on_c, 15, 63, 0
1, 115229, Note_on_c, 15, 67, 0
1, 115230, Note_on_c, 6, 60, 74
1, 115230, Note_on_c, 6, 65, 86
1, 115232, Note_on_c, 1, 31, 127
1, 115232, Note_on_c, 9, 36, 127
1, 115232, Note_on_c, 9, 44, 78
1, 115232, Note_on_c, 15, 62, 1
1, 115232, Note_on_c, 15, 65, 1
1, 115242, Lyric_t, "\001"
1, 115242, Note_on_c, 3, 62, 127
1, 115242, Note_on_c, 4, 62, 87
1, 115243, Note_on_c, 4, 58, 65
1, 115245, Note_on_c, 4, 55, 77
1, 115259, Note_on_c, 9, 36, 0
1, 115259, Note_on_c, 9, 44, 0
1, 115352, Note_on_c, 9, 42, 88
1, 115353, Control_c, 6, 10, 44
1, 115364, Note_on_c, 3, 62, 0
1, 115379, Note_on_c, 9, 42, 0
1, 115472, Note_on_c, 9, 44, 74
1, 115477, Lyric_t, "\001"
1, 115477, Note_on_c, 3, 62, 127
1, 115499, Note_on_c, 9, 44, 0
1, 115570, Note_on_c, 5, 58, 85
1, 115574, Note_on_c, 5, 65, 0
1, 115578, Note_on_c, 3, 62, 0
1, 115590, Note_on_c, 6, 50, 75
1, 115590, Note_on_c, 6, 58, 63
1, 115698, Note_on_c, 1, 31, 0
1, 115710, Lyric_t, "\001"
1, 115710, Note_on_c, 3, 62, 127
1, 115712, Note_on_c, 1, 34, 127
1, 115712, Note_on_c, 9, 38, 127
1, 115712, Note_on_c, 9, 42, 100
1, 115713, Control_c, 6, 10, 84
1, 115739, Note_on_c, 9, 38, 0
1, 115739, Note_on_c, 9, 42, 0
1, 115822, Note_on_c, 3, 62, 0
1, 115824, Note_on_c, 1, 34, 0
1, 115929, Note_on_c, 5, 62, 0
1, 115950, Note_on_c, 9, 36, 65
1, 115952, Lyric_t, "\001"
1, 115952, Note_on_c, 3, 62, 127
1, 115952, Note_on_c, 5, 53, 80
1, 115952, Note_on_c, 9, 42, 73
1, 115952, Note_on_c, 10, 15, 94
1, 115977, Note_on_c, 9, 36, 0
1, 115979, Note_on_c, 9, 42, 0
1, 115979, Note_on_c, 10, 15, 0
1, 116042, Note_on_c, 3, 62, 0
1, 116073, Control_c, 6, 10, 44
1, 116133, Pitch_bend_c, 3, 6630
1, 116153, Pitch_bend_c, 3, 0
1, 116168, Note_on_c, 4, 65, 86
1, 116177, Lyric_t, "\001"
1, 116177, Lyric_t, "\001"
1, 116177, Note_on_c, 3, 62, 127
1, 116183, Pitch_bend_c, 3, 1680
1, 116192, Note_on_c, 9, 36, 127
1, 116192, Note_on_c, 9, 44, 78
1, 116204, Pitch_bend_c, 3, 8192
1, 116207, Note_on_c, 4, 55, 0
1, 116219, Note_on_c, 9, 36, 0
1, 116219, Note_on_c, 9, 44, 0
1, 116305, Pitch_bend_c, 3, 5100
1, 116312, Note_on_c, 9, 42, 88
1, 116327, Pitch_bend_c, 3, 2160
1, 116332, Note_on_c, 3, 62, 0
1, 116339, Note_on_c, 9, 42, 0
1, 116347, Pitch_bend_c, 3, 0
1, 116354, Note_on_c, 4, 58, 0
1, 116359, Note_on_c, 4, 62, 0
1, 116367, Pitch_bend_c, 3, 450
1, 116370, Note_on_c, 4, 65, 0
1, 116387, Pitch_bend_c, 3, 8192
1, 116432, Note_on_c, 9, 44, 74
1, 116433, Control_c, 6, 10, 84
1, 116459, Note_on_c, 9, 44, 0
1, 116538, Pitch_bend_c, 3, 0
1, 116542, Note_on_c, 5, 53, 83
1, 116544, Lyric_t, "\001"
1, 116544, Note_on_c, 3, 58, 123
1, 116549, Note_on_c, 15, 62, 0
1, 116549, Note_on_c, 15, 65, 0
1, 116552, Note_on_c, 1, 22, 127
1, 116552, Note_on_c, 15, 70, 1
1, 116556, Note_on_c, 6, 60, 0
1, 116558, Note_on_c, 6, 65, 0
1, 116568, Pitch_bend_c, 3, 8192
1, 116570, Note_on_c, 5, 53, 0
1, 116573, Note_on_c, 5, 58, 0
1, 116664, Pitch_bend_c, 5, 12302
1, 116669, Note_on_c, 1, 22, 0
1, 116672, Note_on_c, 1, 24, 127
1, 116672, Note_on_c, 9, 38, 127
1, 116672, Note_on_c, 9, 42, 100
1, 116685, Pitch_bend_c, 5, 16383
1, 116699, Note_on_c, 3, 58, 0
1, 116699, Note_on_c, 9, 38, 0
1, 116699, Note_on_c, 9, 42, 0
1, 116790, Note_on_c, 6, 53, 70
1, 116790, Note_on_c, 6, 56, 49
1, 116790, Note_on_c, 6, 58, 60
1, 116790, Note_on_c, 6, 62, 62
1, 116793, Lyric_t, "\001"
1, 116793, Note_on_c, 3, 58, 115
1, 116793, Control_c, 6, 10, 44
1, 116829, Note_on_c, 3, 58, 0
1, 116832, Note_on_c, 1, 24, 0
1, 116869, Note_on_c, 5, 53, 0
1, 116880, Pitch_bend_c, 5, 15902
1, 116902, Pitch_bend_c, 5, 8192
1, 116905, Lyric_t, "\001"
1, 116905, Note_on_c, 3, 60, 127
1, 116907, Note_on_c, 5, 65, 92
1, 116909, Note_on_c, 15, 70, 0
1, 116912, Note_on_c, 9, 42, 73
1, 116912, Note_on_c, 15, 63, 1
1, 116912, Note_on_c, 15, 68, 1
1, 116939, Note_on_c, 9, 42, 0
1, 116941, Note_on_c, 6, 58, 0
1, 116950, Note_on_c, 6, 50, 0
1, 117016, Note_on_c, 3, 60, 0
1, 117029, Note_on_c, 15, 68, 0
1, 117032, Note_on_c, 15, 67, 1
1, 117035, Lyric_t, "\001"
1, 117035, Note_on_c, 3, 58, 94
1, 117045, Pitch_bend_c, 5, 0
1, 117052, Note_on_c, 3, 58, 0
1, 117097, Pitch_bend_c, 3, 6720
1, 117098, Note_on_c, 6, 62, 0
1, 117108, Note_on_c, 6, 58, 0
1, 117113, Note_on_c, 6, 53, 0
1, 117115, Note_on_c, 6, 56, 0
1, 117117, Pitch_bend_c, 3, 0
1, 117127, Note_on_c, 4, 67, 87
1, 117129, Note_on_c, 4, 63, 81
1, 117130, Lyric_t, "\001"
1, 117130, Note_on_c, 3, 63, 127
1, 117132, Note_on_c, 4, 58, 72
1, 117137, Pitch_bend_c, 3, 180
1, 117149, Note_on_c, 15, 63, 0
1, 117150, Note_on_c, 6, 60, 78
1, 117150, Note_on_c, 6, 63, 81
1, 117150, Note_on_c, 6, 67, 84
1, 117152, Note_on_c, 1, 29, 127
1, 117152, Note_on_c, 9, 36, 127
1, 117152, Note_on_c, 9, 44, 78
1, 117152, Note_on_c, 15, 63, 1
1, 117153, Control_c, 6, 10, 84
1, 117157, Pitch_bend_c, 3, 8192
1, 117179, Note_on_c, 9, 36, 0
1, 117179, Note_on_c, 9, 44, 0
1, 117268, Note_on_c, 3, 63, 0
1, 117272, Note_on_c, 9, 42, 88
1, 117293, Control_c, 5, 1, 4
1, 117299, Note_on_c, 9, 42, 0
1, 117323, Control_c, 5, 1, 39
1, 117355, Control_c, 5, 1, 101
1, 117380, Lyric_t, "\001"
1, 117380, Note_on_c, 3, 63, 127
1, 117385, Control_c, 5, 1, 118
1, 117392, Note_on_c, 9, 44, 74
1, 117417, Control_c, 5, 1, 125
1, 117419, Note_on_c, 9, 44, 0
1, 117489, Control_c, 5, 1, 127
1, 117492, Note_on_c, 3, 63, 0
1, 117513, Control_c, 6, 10, 44
1, 117552, Control_c, 5, 1, 125
1, 117582, Control_c, 5, 1, 0
1, 117594, Note_on_c, 5, 65, 0
1, 117612, Lyric_t, "\001"
1, 117612, Note_on_c, 3, 63, 127
1, 117612, Note_on_c, 1, 29, 0
1, 117613, Pitch_bend_c, 5, 8192
1, 117630, Note_on_c, 11, 63, 102
1, 117630, Note_on_c, 11, 67, 123
1, 117630, Note_on_c, 11, 70, 109
1, 117632, Note_on_c, 1, 31, 127
1, 117632, Note_on_c, 9, 36, 127
1, 117632, Note_on_c, 9, 38, 127
1, 117632, Note_on_c, 9, 42, 100
1, 117633, Pitch_bend_c, 5, 8192
1, 117659, Note_on_c, 9, 36, 0
1, 117659, Note_on_c, 9, 38, 0
1, 117659, Note_on_c, 9, 42, 0
1, 117733, Note_on_c, 3, 63, 0
1, 117777, Note_on_c, 1, 31, 0
1, 117781, Note_on_c, 11, 70, 0
1, 117782, Note_on_c, 11, 63, 0
1, 117790, Note_on_c, 11, 63, 107
1, 117790, Note_on_c, 11, 67, 108
1, 117790, Note_on_c, 11, 70, 108
1, 117793, Note_on_c, 11, 67, 0
1, 117847, Lyric_t, "\001"
1, 117847, Note_on_c, 3, 63, 127
1, 117872, Note_on_c, 9, 42, 73
1, 117873, Control_c, 6, 10, 84
1, 117899, Note_on_c, 9, 42, 0
1, 117916, Note_on_c, 11, 70, 0
1, 117925, Note_on_c, 11, 63, 0
1, 117935, Note_on_c, 11, 67, 0
1, 117947, Note_on_c, 3, 63, 0
1, 117950, Note_on_c, 11, 63, 98
1, 117950, Note_on_c, 11, 67, 98
1, 117950, Note_on_c, 11, 70, 98
1, 118073, Note_on_c, 11, 70, 0
1, 118080, Note_on_c, 11, 67, 0
1, 118089, Note_on_c, 4, 58, 0
1, 118092, Note_on_c, 11, 63, 0
1, 118097, Note_on_c, 4, 70, 81
1, 118108, Lyric_t, "\001"
1, 118108, Lyric_t, "\001"
1, 118108, Note_on_c, 3, 63, 127
1, 118110, Note_on_c, 11, 63, 89
1, 118110, Note_on_c, 11, 67, 90
1, 118110, Note_on_c, 11, 70, 90
1, 118112, Note_on_c, 1, 24, 127
1, 118112, Note_on_c, 9, 36, 127
1, 118112, Note_on_c, 9, 44, 78
1, 118114, Control_c, 3, 1, 127
1, 118139, Note_on_c, 9, 36, 0
1, 118139, Note_on_c, 9, 44, 0
1, 118195, Control_c, 3, 1, 0
1, 118219, Note_on_c, 3, 63, 0
1, 118232, Note_on_c, 9, 38, 92
1, 118232, Note_on_c, 9, 42, 88
1, 118233, Control_c, 6, 10, 44
1, 118241, Note_on_c, 4, 63, 0
1, 118243, Note_on_c, 11, 70, 0
1, 118245, Note_on_c, 11, 63, 0
1, 118254, Note_on_c, 4, 67, 0
1, 118259, Note_on_c, 9, 38, 0
1, 118259, Note_on_c, 9, 42, 0
1, 118262, Note_on_c, 4, 70, 0
1, 118263, Note_on_c, 11, 67, 0
1, 118269, Note_on_c, 1, 24, 0
1, 118270, Note_on_c, 11, 63, 81
1, 118270, Note_on_c, 11, 67, 81
1, 118270, Note_on_c, 11, 70, 81
1, 118318, Pitch_bend_c, 12, 4410
1, 118338, Pitch_bend_c, 12, 0
1, 118349, Note_on_c, 12, 77, 88
1, 118352, Note_on_c, 9, 36, 127
1, 118352, Note_on_c, 9, 44, 74
1, 118353, Note_on_c, 12, 72, 80
1, 118379, Pitch_bend_c, 12, 3660
1, 118379, Note_on_c, 9, 36, 0
1, 118379, Note_on_c, 9, 44, 0
1, 118400, Pitch_bend_c, 12, 8192
1, 118412, Note_on_c, 11, 63, 0
1, 118417, Note_on_c, 11, 70, 0
1, 118426, Note_on_c, 11, 67, 0
1, 118430, Note_on_c, 11, 63, 72
1, 118430, Note_on_c, 11, 67, 72
1, 118430, Note_on_c, 11, 70, 72
1, 118449, Pitch_bend_c, 3, 0
1, 118469, Note_on_c, 15, 67, 0
1, 118469, Note_on_c, 15, 63, 0
1, 118470, Lyric_t, "\001"
1, 118470, Note_on_c, 3, 58, 126
1, 118472, Note_on_c, 1, 24, 127
1, 118483, Pitch_bend_c, 12, 4470
1, 118489, Pitch_bend_c, 3, 8192
1, 118495, Note_on_c, 6, 67, 0
1, 118496, Note_on_c, 6, 63, 0
1, 118503, Pitch_bend_c, 12, 0
1, 118507, Note_on_c, 6, 60, 0
1, 118575, Note_on_c, 11, 63, 0
1, 118577, Note_on_c, 11, 70, 0
1, 118583, Note_on_c, 11, 67, 0
1, 118590, Note_on_c, 6, 60, 70
1, 118590, Note_on_c, 6, 64, 74
1, 118590, Note_on_c, 6, 68, 67
1, 118590, Note_on_c, 11, 63, 63
1, 118590, Note_on_c, 11, 67, 64
1, 118590, Note_on_c, 11, 70, 64
1, 118592, Note_on_c, 9, 38, 127
1, 118592, Note_on_c, 9, 42, 100
1, 118593, Control_c, 6, 10, 84
1, 118608, Note_on_c, 3, 58, 0
1, 118619, Note_on_c, 9, 38, 0
1, 118619, Note_on_c, 9, 42, 0
1, 118658, Control_c, 12, 1, 121
1, 118699, Control_c, 12, 1, 127
1, 118714, Lyric_t, "\001"
1, 118714, Note_on_c, 3, 58, 127
1, 118728, Note_on_c, 11, 63, 0
1, 118737, Note_on_c, 11, 70, 0
1, 118741, Note_on_c, 11, 67, 0
1, 118750, Note_on_c, 11, 63, 54
1, 118750, Note_on_c, 11, 67, 54
1, 118750, Note_on_c, 11, 70, 55
1, 118759, Note_on_c, 3, 58, 0
1, 118790, Note_on_c, 1, 24, 0
1, 118832, Note_on_c, 1, 27, 127
1, 118832, Note_on_c, 9, 42, 73
1, 118837, Lyric_t, "\001"
1, 118837, Note_on_c, 3, 60, 127
1, 118859, Note_on_c, 9, 42, 0
1, 118893, Note_on_c, 11, 67, 0
1, 118897, Note_on_c, 11, 63, 0
1, 118908, Note_on_c, 11, 70, 0
1, 118910, Note_on_c, 11, 63, 45
1, 118910, Note_on_c, 11, 67, 46
1, 118910, Note_on_c, 11, 70, 45
1, 118944, Note_on_c, 1, 27, 0
1, 118944, Note_on_c, 3, 60, 0
1, 118953, Control_c, 6, 10, 44
1, 118953, Note_on_c, 12, 72, 0
1, 118961, Note_on_c, 12, 77, 0
1, 118962, Lyric_t, "\001"
1, 118962, Note_on_c, 3, 58, 99
1, 118968, Control_c, 12, 1, 0
1, 118978, Pitch_bend_c, 12, 8192
1, 118980, Note_on_c, 3, 58, 0
1, 118989, Pitch_bend_c, 12, 4650
1, 119010, Pitch_bend_c, 12, 0
1, 119013, Note_on_c, 6, 60, 0
1, 119026, Note_on_c, 11, 70, 0
1, 119027, Pitch_bend_c, 3, 6780
1, 119028, Note_on_c, 6, 64, 0
1, 119028, Note_on_c, 6, 68, 0
1, 119033, Note_on_c, 11, 63, 0
1, 119036, Note_on_c, 11, 67, 0
1, 119048, Pitch_bend_c, 3, 0
1, 119062, Note_on_c, 4, 63, 72
1, 119067, Note_on_c, 4, 70, 82
1, 119069, Note_on_c, 4, 67, 97
1, 119070, Note_on_c, 6, 63, 66
1, 119070, Note_on_c, 6, 67, 88
1, 119070, Note_on_c, 6, 70, 65
1, 119072, Note_on_c, 1, 29, 127
1, 119072, Note_on_c, 9, 36, 127
1, 119072, Note_on_c, 9, 44, 78
1, 119072, Note_on_c, 12, 89, 112
1, 119072, Note_on_c, 15, 63, 1
1, 119072, Note_on_c, 15, 67, 1
1, 119072, Note_on_c, 15, 70, 1
1, 119075, Lyric_t, "\001"
1, 119075, Note_on_c, 3, 63, 127
1, 119089, Pitch_bend_c, 3, 8192
1, 119099, Note_on_c, 9, 36, 0
1, 119099, Note_on_c, 9, 44, 0
1, 119103, Pitch_bend_c, 12, 1500
1, 119123, Pitch_bend_c, 12, 4020
1, 119143, Pitch_bend_c, 12, 5820
1, 119164, Pitch_bend_c, 12, 8192
1, 119192, Note_on_c, 9, 42, 88
1, 119210, Note_on_c, 3, 63, 0
1, 119219, Note_on_c, 9, 42, 0
1, 119248, Pitch_bend_c, 12, 6690
1, 119252, Note_on_c, 12, 89, 0
1, 119268, Pitch_bend_c, 12, 2580
1, 119288, Pitch_bend_c, 12, 0
1, 119312, Note_on_c, 9, 44, 74
1, 119312, Note_on_c, 12, 89, 110
1, 119313, Control_c, 6, 10, 84
1, 119323, Lyric_t, "\001"
1, 119323, Note_on_c, 3, 63, 127
1, 119339, Note_on_c, 9, 44, 0
1, 119350, Pitch_bend_c, 12, 810
1, 119370, Pitch_bend_c, 12, 4530
1, 119392, Pitch_bend_c, 12, 4830
1, 119412, Pitch_bend_c, 12, 6480
1, 119426, Note_on_c, 3, 63, 0
1, 119433, Pitch_bend_c, 12, 8192
1, 119483, Note_on_c, 12, 89, 0
1, 119504, Pitch_bend_c, 12, 3630
1, 119518, Note_on_c, 1, 29, 0
1, 119525, Pitch_bend_c, 12, 0
1, 119552, Note_on_c, 1, 31, 127
1, 119552, Note_on_c, 9, 38, 127
1, 119552, Note_on_c, 9, 42, 100
1, 119552, Note_on_c, 12, 89, 82
1, 119553, Lyric_t, "\001"
1, 119553, Note_on_c, 3, 63, 127
1, 119579, Note_on_c, 9, 38, 0
1, 119579, Note_on_c, 9, 42, 0
1, 119598, Pitch_bend_c, 12, 2910
1, 119618, Pitch_bend_c, 12, 4860
1, 119638, Pitch_bend_c, 12, 4920
1, 119659, Pitch_bend_c, 12, 6300
1, 119664, Note_on_c, 3, 63, 0
1, 119673, Control_c, 6, 10, 44
1, 119679, Pitch_bend_c, 12, 6960
1, 119690, Note_on_c, 1, 31, 0
1, 119700, Pitch_bend_c, 12, 7020
1, 119722, Pitch_bend_c, 12, 7320
1, 119728, Note_on_c, 12, 89, 0
1, 119742, Pitch_bend_c, 12, 3840
1, 119762, Pitch_bend_c, 12, 0
1, 119787, Lyric_t, "\001"
1, 119787, Note_on_c, 3, 63, 116
1, 119790, Note_on_c, 9, 36, 65
1, 119792, Note_on_c, 9, 42, 73
1, 119792, Note_on_c, 10, 15, 94
1, 119792, Note_on_c, 12, 89, 86
1, 119817, Note_on_c, 9, 36, 0
1, 119819, Note_on_c, 9, 42, 0
1, 119819, Note_on_c, 10, 15, 0
1, 119834, Pitch_bend_c, 12, 2220
1, 119854, Pitch_bend_c, 12, 3030
1, 119875, Pitch_bend_c, 12, 3780
1, 119880, Note_on_c, 3, 63, 0
1, 119897, Pitch_bend_c, 12, 4770
1, 119917, Pitch_bend_c, 12, 5820
1, 119938, Pitch_bend_c, 12, 6570
1, 119958, Pitch_bend_c, 12, 6810
1, 119969, Note_on_c, 12, 89, 0
1, 119978, Pitch_bend_c, 12, 6000
1, 119999, Pitch_bend_c, 12, 2010
1, 120024, Lyric_t, "\001"
1, 120024, Lyric_t, "\001"
1, 120024, Note_on_c, 3, 63, 127
1, 120028, Pitch_bend_c, 12, 60
1, 120032, Note_on_c, 9, 36, 127
1, 120032, Note_on_c, 9, 44, 78
1, 120032, Note_on_c, 12, 89, 73
1, 120033, Control_c, 6, 10, 84
1, 120059, Note_on_c, 9, 36, 0
1, 120059, Note_on_c, 9, 44, 0
1, 120072, Pitch_bend_c, 12, 960
1, 120092, Pitch_bend_c, 12, 3840
1, 120093, Note_on_c, 4, 63, 0
1, 120094, Note_on_c, 4, 67, 0
1, 120100, Note_on_c, 4, 70, 0
1, 120113, Pitch_bend_c, 12, 4560
1, 120119, Note_on_c, 3, 63, 0
1, 120133, Pitch_bend_c, 12, 5130
1, 120152, Note_on_c, 9, 42, 88
1, 120153, Pitch_bend_c, 12, 6660
1, 120174, Pitch_bend_c, 12, 7170
1, 120179, Note_on_c, 9, 42, 0
1, 120197, Control_c, 3, 1, 127
1, 120214, Note_on_c, 12, 89, 0
1, 120215, Pitch_bend_c, 12, 7230
1, 120235, Pitch_bend_c, 12, 4650
1, 120237, Control_c, 3, 1, 0
1, 120257, Pitch_bend_c, 12, 1290
1, 120272, Note_on_c, 5, 55, 72
1, 120272, Note_on_c, 9, 44, 74
1, 120272, Note_on_c, 12, 89, 62
1, 120278, Pitch_bend_c, 12, 210
1, 120284, Note_on_c, 5, 58, 72
1, 120298, Pitch_bend_c, 12, 180
1, 120299, Note_on_c, 9, 44, 0
1, 120318, Pitch_bend_c, 12, 2580
1, 120338, Pitch_bend_c, 12, 4230
1, 120359, Pitch_bend_c, 12, 4680
1, 120379, Pitch_bend_c, 12, 5820
1, 120392, Note_on_c, 1, 24, 127
1, 120392, Note_on_c, 5, 67, 72
1, 120393, Control_c, 6, 10, 44
1, 120397, Note_on_c, 5, 55, 0
1, 120398, Pitch_bend_c, 3, 0
1, 120400, Pitch_bend_c, 12, 6240
1, 120401, Note_on_c, 5, 58, 0
1, 120402, Note_on_c, 5, 70, 72
1, 120405, Lyric_t, "\001"
1, 120405, Note_on_c, 3, 58, 127
1, 120420, Pitch_bend_c, 12, 6300
1, 120429, Pitch_bend_c, 3, 8192
1, 120442, Pitch_bend_c, 12, 6570
1, 120458, Note_on_c, 12, 89, 0
1, 120462, Pitch_bend_c, 12, 6000
1, 120483, Pitch_bend_c, 12, 4920
1, 120503, Pitch_bend_c, 12, 4980
1, 120509, Note_on_c, 1, 24, 0
1, 120512, Note_on_c, 1, 27, 127
1, 120512, Note_on_c, 9, 38, 127
1, 120512, Note_on_c, 9, 42, 100
1, 120515, Note_on_c, 6, 63, 0
1, 120523, Pitch_bend_c, 12, 7020
1, 120535, Note_on_c, 6, 67, 0
1, 120538, Note_on_c, 6, 70, 0
1, 120539, Note_on_c, 9, 38, 0
1, 120539, Note_on_c, 9, 42, 0
1, 120544, Pitch_bend_c, 12, 8192
1, 120548, Note_on_c, 3, 58, 0
1, 120630, Note_on_c, 6, 67, 85
1, 120630, Note_on_c, 6, 70, 71
1, 120637, Lyric_t, "\001"
1, 120637, Note_on_c, 3, 58, 115
1, 120662, Note_on_c, 1, 27, 0
1, 120689, Note_on_c, 3, 58, 0
1, 120752, Lyric_t, "\001"
1, 120752, Note_on_c, 3, 60, 127
1, 120752, Note_on_c, 5, 67, 72
1, 120752, Note_on_c, 9, 42, 73
1, 120753, Control_c, 6, 10, 84
1, 120754, Note_on_c, 5, 70, 0
1, 120765, Note_on_c, 5, 63, 72
1, 120765, Note_on_c, 5, 67, 0
1, 120779, Note_on_c, 9, 42, 0
1, 120859, Note_on_c, 3, 60, 0
1, 120870, Lyric_t, "\001"
1, 120870, Note_on_c, 3, 58, 98
1, 120873, Note_on_c, 5, 63, 72
1, 120873, Note_on_c, 5, 63, 0
1, 120874, Note_on_c, 5, 67, 0
1, 120882, Note_on_c, 5, 58, 72
1, 120906, Note_on_c, 3, 58, 0
1, 120947, Note_on_c, 6, 67, 0
1, 120947, Note_on_c, 6, 70, 0
1, 120968, Pitch_bend_c, 3, 0
1, 120974, Note_on_c, 4, 67, 92
1, 120977, Note_on_c, 4, 58, 71
1, 120979, Note_on_c, 4, 63, 84
1, 120984, Lyric_t, "\001"
1, 120984, Note_on_c, 3, 63, 127
1, 120990, Note_on_c, 6, 63, 72
1, 120990, Note_on_c, 6, 67, 91
1, 120990, Note_on_c, 6, 70, 73
1, 120992, Note_on_c, 1, 29, 127
1, 120992, Note_on_c, 9, 36, 127
1, 120992, Note_on_c, 9, 44, 78
1, 120998, Pitch_bend_c, 3, 900
1, 121018, Pitch_bend_c, 3, 8192
1, 121019, Note_on_c, 9, 36, 0
1, 121019, Note_on_c, 9, 44, 0
1, 121112, Note_on_c, 9, 42, 88
1, 121113, Control_c, 6, 10, 44
1, 121139, Note_on_c, 9, 42, 0
1, 121144, Note_on_c, 3, 63, 0
1, 121180, Pitch_bend_c, 3, 6120
1, 121200, Pitch_bend_c, 3, 0
1, 121223, Lyric_t, "\001"
1, 121223, Note_on_c, 3, 63, 127
1, 121232, Note_on_c, 9, 44, 74
1, 121242, Pitch_bend_c, 3, 3300
1, 121259, Note_on_c, 9, 44, 0
1, 121262, Pitch_bend_c, 3, 7740
1, 121282, Pitch_bend_c, 3, 7590
1, 121303, Pitch_bend_c, 3, 7620
1, 121323, Pitch_bend_c, 3, 8100
1, 121353, Pitch_bend_c, 3, 8192
1, 121354, Note_on_c, 3, 63, 0
1, 121433, Pitch_bend_c, 3, 8100
1, 121445, Note_on_c, 1, 29, 0
1, 121453, Pitch_bend_c, 3, 8040
1, 121472, Note_on_c, 1, 31, 127
1, 121472, Note_on_c, 9, 38, 127
1, 121472, Note_on_c, 9, 42, 100
1, 121473, Lyric_t, "\001"
1, 121473, Pitch_bend_c, 3, 8192
1, 121473, Note_on_c, 3, 63, 127
1, 121473, Control_c, 6, 10, 84
1, 121499, Note_on_c, 9, 38, 0
1, 121499, Note_on_c, 9, 42, 0
1, 121579, Note_on_c, 1, 31, 0
1, 121579, Note_on_c, 3, 63, 0
1, 121647, Pitch_bend_c, 3, 6480
1, 121667, Pitch_bend_c, 3, 0
1, 121712, Note_on_c, 9, 42, 73
1, 121713, Lyric_t, "\001"
1, 121713, Note_on_c, 3, 63, 127
1, 121718, Pitch_bend_c, 3, 1410
1, 121738, Pitch_bend_c, 3, 5760
1, 121739, Note_on_c, 9, 42, 0
1, 121758, Pitch_bend_c, 3, 7530
1, 121778, Pitch_bend_c, 3, 8192
1, 121799, Note_on_c, 3, 63, 0
1, 121833, Control_c, 6, 10, 44
1, 121833, Note_on_c, 5, 63, 0
1, 121919, Note_on_c, 5, 58, 0
1, 121940, Pitch_bend_c, 3, 3600
1, 121952, Note_on_c, 9, 36, 127
1, 121952, Note_on_c, 9, 44, 78
1, 121953, Lyric_t, "\001"
1, 121953, Lyric_t, "\001"
1, 121953, Note_on_c, 3, 63, 127
1, 121960, Pitch_bend_c, 3, 1800
1, 121979, Note_on_c, 9, 36, 0
1, 121979, Note_on_c, 9, 44, 0
1, 121980, Pitch_bend_c, 3, 8192
1, 122017, Note_on_c, 4, 58, 0
1, 122020, Note_on_c, 4, 63, 0
1, 122029, Note_on_c, 4, 67, 0
1, 122072, Note_on_c, 9, 42, 88
1, 122094, Note_on_c, 3, 63, 0
1, 122099, Note_on_c, 9, 42, 0
1, 122146, Note_on_c, 6, 63, 0
1, 122153, Note_on_c, 6, 67, 0
1, 122153, Note_on_c, 6, 70, 0
1, 122192, Note_on_c, 1, 22, 127
1, 122192, Note_on_c, 9, 36, 127
1, 122192, Note_on_c, 9, 44, 74
1, 122193, Control_c, 6, 10, 84
1, 122219, Note_on_c, 9, 36, 0
1, 122219, Note_on_c, 9, 44, 0
1, 122304, Lyric_t, "\001"
1, 122304, Note_on_c, 3, 63, 122
1, 122335, Control_c, 3, 1, 47
1, 122367, Control_c, 3, 1, 114
1, 122398, Control_c, 3, 1, 0
1, 122409, Note_on_c, 1, 22, 0
1, 122418, Note_on_c, 15, 63, 0
1, 122418, Note_on_c, 15, 67, 0
1, 122418, Note_on_c, 15, 70, 0
1, 122420, Note_on_c, 5, 63, 73
1, 122423, Note_on_c, 5, 60, 81
1, 122430, Note_on_c, 11, 63, 96
1, 122430, Note_on_c, 11, 67, 117
1, 122430, Note_on_c, 11, 70, 103
1, 122432, Note_on_c, 1, 24, 127
1, 122432, Note_on_c, 9, 34, 115
1, 122432, Note_on_c, 9, 36, 127
1, 122432, Note_on_c, 9, 38, 127
1, 122432, Note_on_c, 9, 42, 100
1, 122432, Note_on_c, 15, 60, 1
1, 122432, Note_on_c, 15, 63, 1
1, 122437, Note_on_c, 3, 63, 0
1, 122439, Note_on_c, 6, 63, 70
1, 122443, Note_on_c, 6, 60, 64
1, 122453, Pitch_bend_c, 9, 6210
1, 122459, Note_on_c, 9, 34, 0
1, 122459, Note_on_c, 9, 36, 0
1, 122459, Note_on_c, 9, 38, 0
1, 122459, Note_on_c, 9, 42, 0
1, 122473, Pitch_bend_c, 9, 8192
1, 122547, Lyric_t, "\001"
1, 122547, Note_on_c, 3, 63, 117
1, 122552, Note_on_c, 6, 62, 76
1, 122552, Note_on_c, 15, 62, 1
1, 122552, Note_on_c, 15, 65, 1
1, 122553, Control_c, 6, 10, 44
1, 122553, Note_on_c, 5, 63, 0
1, 122558, Note_on_c, 5, 65, 79
1, 122561, Note_on_c, 6, 63, 0
1, 122564, Note_on_c, 5, 62, 69
1, 122564, Note_on_c, 5, 60, 0
1, 122565, Note_on_c, 15, 63, 0
1, 122568, Note_on_c, 6, 65, 76
1, 122569, Note_on_c, 6, 60, 0
1, 122573, Note_on_c, 15, 60, 0
1, 122573, Note_on_c, 3, 63, 0
1, 122581, Note_on_c, 11, 70, 0
1, 122582, Note_on_c, 11, 63, 0
1, 122590, Note_on_c, 11, 63, 101
1, 122590, Note_on_c, 11, 67, 102
1, 122590, Note_on_c, 11, 70, 102
1, 122593, Note_on_c, 11, 67, 0
1, 122614, Note_on_c, 1, 24, 0
1, 122659, Note_on_c, 5, 65, 0
1, 122668, Note_on_c, 6, 65, 0
1, 122669, Note_on_c, 15, 62, 0
1, 122669, Note_on_c, 15, 65, 0
1, 122670, Note_on_c, 5, 67, 74
1, 122672, Lyric_t, "\001"
1, 122672, Note_on_c, 3, 63, 127
1, 122672, Note_on_c, 9, 42, 73
1, 122672, Note_on_c, 15, 63, 1
1, 122672, Note_on_c, 15, 67, 1
1, 122677, Note_on_c, 6, 67, 91
1, 122679, Note_on_c, 5, 62, 0
1, 122680, Note_on_c, 5, 63, 80
1, 122680, Note_on_c, 6, 63, 83
1, 122688, Note_on_c, 6, 62, 0
1, 122699, Note_on_c, 9, 42, 0
1, 122716, Note_on_c, 11, 70, 0
1, 122725, Note_on_c, 11, 63, 0
1, 122735, Note_on_c, 11, 67, 0
1, 122750, Note_on_c, 11, 63, 92
1, 122750, Note_on_c, 11, 67, 92
1, 122750, Note_on_c, 11, 70, 92
1, 122812, Note_on_c, 3, 63, 0
1, 122817, Lyric_t, "\001"
1, 122817, Note_on_c, 3, 63, 117
1, 122843, Note_on_c, 3, 63, 0
1, 122873, Note_on_c, 11, 70, 0
1, 122875, Pitch_bend_c, 9, 0
1, 122880, Note_on_c, 11, 67, 0
1, 122884, Pitch_bend_c, 3, 0
1, 122886, Note_on_c, 5, 67, 0
1, 122892, Note_on_c, 11, 63, 0
1, 122893, Note_on_c, 5, 65, 84
1, 122893, Note_on_c, 5, 63, 0
1, 122897, Note_on_c, 5, 62, 91
1, 122898, Note_on_c, 6, 63, 0
1, 122904, Note_on_c, 6, 67, 0
1, 122907, Lyric_t, "\001"
1, 122907, Note_on_c, 3, 62, 127
1, 122909, Note_on_c, 15, 63, 0
1, 122909, Note_on_c, 15, 67, 0
1, 122910, Note_on_c, 6, 60, 72
1, 122910, Note_on_c, 6, 65, 74
1, 122910, Note_on_c, 11, 63, 83
1, 122910, Note_on_c, 11, 67, 84
1, 122910, Note_on_c, 11, 70, 84
1, 122912, Note_on_c, 1, 31, 127
1, 122912, Note_on_c, 4, 58, 71
1, 122912, Note_on_c, 9, 36, 127
1, 122912, Note_on_c, 9, 44, 78
1, 122912, Note_on_c, 15, 62, 1
1, 122912, Note_on_c, 15, 65, 1
1, 122913, Control_c, 6, 10, 84
1, 122914, Note_on_c, 4, 55, 81
1, 122917, Note_on_c, 4, 62, 89
1, 122924, Pitch_bend_c, 3, 8192
1, 122939, Note_on_c, 9, 36, 0
1, 122939, Note_on_c, 9, 44, 0
1, 123032, Note_on_c, 9, 42, 88
1, 123043, Note_on_c, 11, 70, 0
1, 123045, Note_on_c, 11, 63, 0
1, 123049, Note_on_c, 3, 62, 0
1, 123059, Note_on_c, 9, 42, 0
1, 123063, Note_on_c, 11, 67, 0
1, 123070, Note_on_c, 11, 63, 75
1, 123070, Note_on_c, 11, 67, 75
1, 123070, Note_on_c, 11, 70, 75
1, 123152, Note_on_c, 9, 44, 74
1, 123153, Lyric_t, "\001"
1, 123153, Note_on_c, 3, 62, 127
1, 123179, Note_on_c, 9, 44, 0
1, 123212, Note_on_c, 11, 63, 0
1, 123217, Note_on_c, 11, 70, 0
1, 123226, Note_on_c, 11, 67, 0
1, 123230, Note_on_c, 11, 63, 66
1, 123230, Note_on_c, 11, 67, 66
1, 123230, Note_on_c, 11, 70, 66
1, 123250, Note_on_c, 5, 58, 85
1, 123254, Note_on_c, 5, 65, 0
1, 123270, Note_on_c, 6, 50, 72
1, 123270, Note_on_c, 6, 58, 62
1, 123273, Control_c, 6, 10, 44
1, 123279, Note_on_c, 3, 62, 0
1, 123286, Note_on_c, 6, 60, 0
1, 123350, Pitch_bend_c, 3, 7290
1, 123370, Pitch_bend_c, 3, 0
1, 123375, Note_on_c, 11, 63, 0
1, 123377, Note_on_c, 11, 70, 0
1, 123383, Note_on_c, 11, 67, 0
1, 123390, Note_on_c, 11, 63, 57
1, 123390, Note_on_c, 11, 67, 58
1, 123390, Note_on_c, 11, 70, 58
1, 123392, Lyric_t, "\001"
1, 123392, Note_on_c, 1, 34, 127
1, 123392, Note_on_c, 3, 62, 127
1, 123392, Note_on_c, 9, 38, 127
1, 123392, Note_on_c, 9, 42, 100
1, 123399, Note_on_c, 1, 31, 0
1, 123402, Pitch_bend_c, 3, 1620
1, 123419, Note_on_c, 9, 38, 0
1, 123419, Note_on_c, 9, 42, 0
1, 123422, Pitch_bend_c, 3, 8192
1, 123487, Note_on_c, 1, 34, 0
1, 123524, Note_on_c, 3, 62, 0
1, 123528, Note_on_c, 11, 63, 0
1, 123537, Note_on_c, 11, 70, 0
1, 123541, Note_on_c, 11, 67, 0
1, 123550, Note_on_c, 11, 63, 48
1, 123550, Note_on_c, 11, 67, 48
1, 123550, Note_on_c, 11, 70, 49
1, 123583, Pitch_bend_c, 3, 7170
1, 123603, Pitch_bend_c, 3, 0
1, 123609, Note_on_c, 5, 62, 0
1, 123627, Lyric_t, "\001"
1, 123627, Note_on_c, 3, 62, 127
1, 123630, Note_on_c, 9, 36, 65
1, 123632, Note_on_c, 5, 53, 80
1, 123632, Note_on_c, 9, 42, 73
1, 123632, Note_on_c, 10, 15, 94
1, 123633, Control_c, 6, 10, 84
1, 123644, Pitch_bend_c, 3, 4980
1, 123657, Note_on_c, 9, 36, 0
1, 123659, Note_on_c, 9, 42, 0
1, 123659, Note_on_c, 10, 15, 0
1, 123664, Pitch_bend_c, 3, 8192
1, 123693, Note_on_c, 11, 67, 0
1, 123697, Note_on_c, 11, 63, 0
1, 123708, Note_on_c, 11, 70, 0
1, 123710, Note_on_c, 11, 63, 39
1, 123710, Note_on_c, 11, 67, 40
1, 123710, Note_on_c, 11, 70, 39
1, 123759, Note_on_c, 3, 62, 0
1, 123826, Note_on_c, 11, 70, 0
1, 123833, Note_on_c, 11, 63, 0
1, 123836, Note_on_c, 11, 67, 0
1, 123862, Lyric_t, "\001"
1, 123862, Lyric_t, "\001"
1, 123862, Note_on_c, 3, 62, 127
1, 123872, Note_on_c, 9, 36, 127
1, 123872, Note_on_c, 9, 44, 78
1, 123899, Note_on_c, 9, 36, 0
1, 123899, Note_on_c, 9, 44, 0
1, 123935, Note_on_c, 4, 55, 0
1, 123938, Control_c, 3, 1, 14
1, 123939, Note_on_c, 4, 58, 0
1, 123944, Note_on_c, 4, 62, 0
1, 123968, Control_c, 3, 1, 127
1, 123992, Note_on_c, 9, 42, 88
1, 123993, Control_c, 6, 10, 44
1, 124019, Note_on_c, 9, 42, 0
1, 124039, Control_c, 3, 1, 0
1, 124039, Pitch_bend_c, 3, 0
1, 124040, Note_on_c, 3, 62, 0
1, 124059, Pitch_bend_c, 3, 8192
1, 124080, Pitch_bend_c, 3, 8192
1, 124112, Note_on_c, 9, 44, 74
1, 124139, Note_on_c, 9, 44, 0
1, 124222, Pitch_bend_c, 3, 0
1, 124222, Note_on_c, 5, 53, 83
1, 124229, Note_on_c, 15, 62, 0
1, 124229, Note_on_c, 15, 65, 0
1, 124232, Note_on_c, 1, 22, 127
1, 124232, Note_on_c, 15, 70, 1
1, 124235, Lyric_t, "\001"
1, 124235, Note_on_c, 3, 58, 127
1, 124250, Note_on_c, 5, 53, 0
1, 124253, Pitch_bend_c, 3, 8192
1, 124253, Note_on_c, 5, 58, 0
1, 124344, Pitch_bend_c, 5, 12302
1, 124345, Note_on_c, 1, 22, 0
1, 124352, Note_on_c, 1, 24, 127
1, 124352, Note_on_c, 9, 38, 127
1, 124352, Note_on_c, 9, 42, 100
1, 124353, Control_c, 6, 10, 84
1, 124365, Pitch_bend_c, 5, 16383
1, 124367, Note_on_c, 6, 58, 0
1, 124368, Note_on_c, 6, 50, 0
1, 124379, Note_on_c, 9, 38, 0
1, 124379, Note_on_c, 9, 42, 0
1, 124381, Note_on_c, 3, 58, 0
1, 124383, Note_on_c, 6, 65, 0
1, 124467, Lyric_t, "\001"
1, 124467, Note_on_c, 3, 58, 108
1, 124470, Note_on_c, 6, 55, 64
1, 124470, Note_on_c, 6, 58, 57
1, 124470, Note_on_c, 6, 60, 68
1, 124505, Note_on_c, 1, 24, 0
1, 124510, Note_on_c, 3, 58, 0
1, 124549, Note_on_c, 5, 53, 0
1, 124560, Pitch_bend_c, 5, 15902
1, 124582, Pitch_bend_c, 5, 8192
1, 124585, Lyric_t, "\001"
1, 124585, Note_on_c, 3, 60, 127
1, 124587, Note_on_c, 5, 65, 92
1, 124589, Note_on_c, 15, 70, 0
1, 124592, Note_on_c, 9, 42, 73
1, 124592, Note_on_c, 15, 63, 1
1, 124592, Note_on_c, 15, 68, 1
1, 124619, Note_on_c, 9, 42, 0
1, 124690, Note_on_c, 3, 60, 0
1, 124703, Lyric_t, "\001"
1, 124703, Note_on_c, 3, 58, 106
1, 124709, Note_on_c, 15, 68, 0
1, 124712, Note_on_c, 15, 67, 1
1, 124713, Control_c, 6, 10, 44
1, 124725, Pitch_bend_c, 5, 0
1, 124739, Note_on_c, 3, 58, 0
1, 124802, Pitch_bend_c, 3, 0
1, 124810, Note_on_c, 6, 55, 0
1, 124812, Note_on_c, 6, 60, 0
1, 124815, Note_on_c, 6, 58, 0
1, 124818, Note_on_c, 4, 70, 60
1, 124819, Lyric_t, "\001"
1, 124819, Note_on_c, 3, 63, 127
1, 124822, Note_on_c, 4, 67, 91
1, 124825, Note_on_c, 4, 63, 92
1, 124829, Note_on_c, 15, 63, 0
1, 124830, Note_on_c, 6, 60, 77
1, 124830, Note_on_c, 6, 63, 83
1, 124830, Note_on_c, 6, 67, 86
1, 124832, Note_on_c, 1, 31, 127
1, 124832, Note_on_c, 9, 36, 127
1, 124832, Note_on_c, 9, 44, 78
1, 124832, Note_on_c, 15, 63, 1
1, 124843, Pitch_bend_c, 3, 8192
1, 124859, Note_on_c, 9, 36, 0
1, 124859, Note_on_c, 9, 44, 0
1, 124941, Note_on_c, 3, 63, 0
1, 124952, Note_on_c, 9, 42, 88
1, 124973, Control_c, 5, 1, 4
1, 124979, Note_on_c, 9, 42, 0
1, 125003, Control_c, 5, 1, 39
1, 125035, Control_c, 5, 1, 101
1, 125063, Lyric_t, "\001"
1, 125063, Note_on_c, 3, 63, 127
1, 125065, Control_c, 5, 1, 118
1, 125072, Note_on_c, 9, 44, 74
1, 125073, Control_c, 6, 10, 84
1, 125097, Control_c, 5, 1, 125
1, 125099, Note_on_c, 9, 44, 0
1, 125168, Note_on_c, 11, 67, 77
1, 125169, Control_c, 5, 1, 127
1, 125170, Note_on_c, 3, 63, 0
1, 125217, Note_on_c, 11, 70, 72
1, 125219, Note_on_c, 11, 67, 0
1, 125232, Control_c, 5, 1, 125
1, 125254, Note_on_c, 11, 70, 0
1, 125262, Control_c, 5, 1, 0
1, 125263, Note_on_c, 11, 67, 87
1, 125274, Note_on_c, 5, 65, 0
1, 125293, Pitch_bend_c, 5, 8192
1, 125303, Note_on_c, 11, 67, 0
1, 125304, Note_on_c, 1, 31, 0
1, 125310, Note_on_c, 11, 70, 88
1, 125312, Lyric_t, "\001"
1, 125312, Note_on_c, 1, 34, 127
1, 125312, Note_on_c, 3, 63, 127
1, 125312, Note_on_c, 9, 36, 127
1, 125312, Note_on_c, 9, 38, 127
1, 125312, Note_on_c, 9, 42, 100
1, 125313, Pitch_bend_c, 5, 8192
1, 125314, Note_on_c, 4, 58, 66
1, 125319, Note_on_c, 4, 70, 0
1, 125339, Note_on_c, 9, 36, 0
1, 125339, Note_on_c, 9, 38, 0
1, 125339, Note_on_c, 9, 42, 0
1, 125343, Note_on_c, 11, 70, 0
1, 125354, Note_on_c, 11, 67, 95
1, 125391, Note_on_c, 11, 67, 0
1, 125399, Note_on_c, 11, 70, 94
1, 125424, Note_on_c, 3, 63, 0
1, 125430, Note_on_c, 11, 70, 0
1, 125433, Control_c, 6, 10, 44
1, 125445, Note_on_c, 11, 67, 107
1, 125472, Note_on_c, 1, 34, 0
1, 125482, Note_on_c, 11, 67, 0
1, 125488, Note_on_c, 11, 70, 116
1, 125519, Note_on_c, 11, 70, 0
1, 125533, Note_on_c, 11, 67, 123
1, 125552, Note_on_c, 9, 42, 73
1, 125557, Lyric_t, "\001"
1, 125557, Note_on_c, 3, 63, 127
1, 125569, Note_on_c, 11, 67, 0
1, 125577, Note_on_c, 11, 70, 127
1, 125579, Note_on_c, 9, 42, 0
1, 125609, Note_on_c, 11, 70, 0
1, 125629, Note_on_c, 11, 67, 127
1, 125670, Note_on_c, 11, 70, 127
1, 125674, Note_on_c, 11, 67, 0
1, 125679, Note_on_c, 3, 63, 0
1, 125705, Note_on_c, 11, 70, 0
1, 125722, Note_on_c, 11, 67, 126
1, 125759, Note_on_c, 11, 67, 0
1, 125764, Note_on_c, 11, 70, 123
1, 125792, Note_on_c, 1, 24, 127
1, 125792, Note_on_c, 9, 36, 127
1, 125792, Note_on_c, 9, 42, 72
1, 125793, Control_c, 6, 10, 84
1, 125797, Lyric_t, "\001"
1, 125797, Lyric_t, "\001"
1, 125797, Note_on_c, 3, 63, 127
1, 125797, Note_on_c, 11, 70, 0
1, 125809, Note_on_c, 11, 67, 120
1, 125819, Note_on_c, 9, 36, 0
1, 125819, Note_on_c, 9, 42, 0
1, 125847, Note_on_c, 11, 67, 0
1, 125852, Note_on_c, 9, 44, 50
1, 125854, Note_on_c, 4, 58, 0
1, 125855, Note_on_c, 11, 70, 113
1, 125862, Note_on_c, 4, 63, 0
1, 125865, Note_on_c, 4, 67, 0
1, 125879, Note_on_c, 9, 44, 0
1, 125888, Note_on_c, 11, 70, 0
1, 125893, Control_c, 3, 1, 127
1, 125898, Note_on_c, 11, 67, 98
1, 125912, Note_on_c, 9, 38, 127
1, 125912, Note_on_c, 9, 42, 45
1, 125924, Note_on_c, 1, 24, 0
1, 125935, Note_on_c, 11, 67, 0
1, 125939, Note_on_c, 9, 38, 0
1, 125939, Note_on_c, 9, 42, 0
1, 125949, Note_on_c, 11, 70, 91
1, 125955, Note_on_c, 3, 63, 0
1, 125964, Control_c, 3, 1, 0
1, 125972, Note_on_c, 9, 44, 44
1, 125979, Note_on_c, 11, 70, 0
1, 125987, Note_on_c, 11, 67, 91
1, 125998, Pitch_bend_c, 12, 4410
1, 125999, Note_on_c, 9, 44, 0
1, 126018, Pitch_bend_c, 12, 0
1, 126028, Note_on_c, 11, 67, 0
1, 126029, Note_on_c, 12, 77, 98
1, 126032, Note_on_c, 9, 36, 121
1, 126032, Note_on_c, 9, 42, 65
1, 126033, Note_on_c, 12, 72, 90
1, 126039, Note_on_c, 11, 70, 84
1, 126059, Pitch_bend_c, 12, 3660
1, 126059, Note_on_c, 9, 36, 0
1, 126059, Note_on_c, 9, 42, 0
1, 126071, Note_on_c, 11, 70, 0
1, 126075, Note_on_c, 11, 67, 84
1, 126080, Pitch_bend_c, 12, 8192
1, 126092, Note_on_c, 9, 38, 93
1, 126092, Note_on_c, 9, 44, 45
1, 126118, Note_on_c, 11, 67, 0
1, 126119, Note_on_c, 9, 38, 0
1, 126119, Note_on_c, 9, 44, 0
1, 126127, Note_on_c, 11, 70, 74
1, 126149, Note_on_c, 15, 67, 0
1, 126149, Note_on_c, 15, 63, 0
1, 126152, Note_on_c, 1, 24, 127
1, 126152, Note_on_c, 9, 42, 45
1, 126153, Control_c, 6, 10, 44
1, 126158, Note_on_c, 11, 70, 0
1, 126163, Pitch_bend_c, 12, 4470
1, 126164, Note_on_c, 11, 67, 81
1, 126179, Note_on_c, 9, 42, 0
1, 126183, Pitch_bend_c, 12, 0
1, 126206, Note_on_c, 11, 67, 0
1, 126210, Note_on_c, 11, 70, 70
1, 126212, Note_on_c, 9, 44, 50
1, 126239, Note_on_c, 9, 44, 0
1, 126241, Note_on_c, 11, 70, 0
1, 126252, Note_on_c, 11, 67, 76
1, 126272, Note_on_c, 9, 38, 127
1, 126272, Note_on_c, 9, 42, 93
1, 126290, Note_on_c, 11, 67, 0
1, 126297, Note_on_c, 11, 70, 63
1, 126299, Note_on_c, 9, 38, 0
1, 126299, Note_on_c, 9, 42, 0
1, 126303, Note_on_c, 6, 63, 0
1, 126316, Note_on_c, 6, 60, 0
1, 126325, Note_on_c, 11, 70, 0
1, 126332, Note_on_c, 6, 67, 0
1, 126333, Note_on_c, 11, 67, 71
1, 126338, Control_c, 12, 1, 121
1, 126374, Note_on_c, 11, 67, 0
1, 126379, Control_c, 12, 1, 127
1, 126489, Note_on_c, 1, 24, 0
1, 126512, Note_on_c, 1, 27, 127
1, 126513, Control_c, 6, 10, 84
1, 126633, Note_on_c, 12, 72, 0
1, 126641, Note_on_c, 12, 77, 0
1, 126643, Note_on_c, 1, 27, 0
1, 126648, Control_c, 12, 1, 0
1, 126658, Pitch_bend_c, 12, 8192
1, 126669, Pitch_bend_c, 12, 4650
1, 126690, Pitch_bend_c, 12, 0
1, 126752, Note_on_c, 9, 36, 127
1, 126752, Note_on_c, 9, 44, 78
1, 126752, Note_on_c, 12, 89, 109
1, 126753, Control_c, 9, 7, 99
1, 126753, Control_c, 10, 7, 127
1, 126779, Note_on_c, 9, 36, 0
1, 126779, Note_on_c, 9, 44, 0
1, 126783, Pitch_bend_c, 12, 1500
1, 126803, Pitch_bend_c, 12, 4020
1, 126823, Pitch_bend_c, 12, 5820
1, 126844, Pitch_bend_c, 12, 8192
1, 126872, Note_on_c, 9, 42, 88
1, 126873, Control_c, 9, 7, 98
1, 126873, Control_c, 10, 7, 126
1, 126899, Note_on_c, 9, 42, 0
1, 126928, Pitch_bend_c, 12, 6690
1, 126932, Note_on_c, 12, 89, 0
1, 126948, Pitch_bend_c, 12, 2580
1, 126968, Pitch_bend_c, 12, 0
1, 126992, Note_on_c, 9, 44, 74
1, 126992, Note_on_c, 12, 89, 107
1, 126993, Control_c, 9, 7, 97
1, 126993, Control_c, 10, 7, 125
1, 127019, Note_on_c, 9, 44, 0
1, 127030, Pitch_bend_c, 12, 810
1, 127050, Pitch_bend_c, 12, 4530
1, 127072, Pitch_bend_c, 12, 4830
1, 127092, Pitch_bend_c, 12, 6480
1, 127113, Control_c, 9, 7, 96
1, 127113, Control_c, 10, 7, 123
1, 127113, Pitch_bend_c, 12, 8192
1, 127163, Note_on_c, 12, 89, 0
1, 127184, Pitch_bend_c, 12, 3630
1, 127205, Pitch_bend_c, 12, 0
1, 127232, Note_on_c, 9, 38, 127
1, 127232, Note_on_c, 9, 42, 100
1, 127232, Note_on_c, 12, 89, 79
1, 127233, Control_c, 9, 7, 95
1, 127233, Control_c, 10, 7, 122
1, 127259, Note_on_c, 9, 38, 0
1, 127259, Note_on_c, 9, 42, 0
1, 127278, Pitch_bend_c, 12, 2910
1, 127298, Pitch_bend_c, 12, 4860
1, 127318, Pitch_bend_c, 12, 4920
1, 127339, Pitch_bend_c, 12, 6300
1, 127353, Control_c, 9, 7, 94
1, 127353, Control_c, 10, 7, 121
1, 127359, Pitch_bend_c, 12, 6960
1, 127380, Pitch_bend_c, 12, 7020
1, 127402, Pitch_bend_c, 12, 7320
1, 127408, Note_on_c, 12, 89, 0
1, 127422, Pitch_bend_c, 12, 3840
1, 127442, Pitch_bend_c, 12, 0
1, 127470, Note_on_c, 9, 36, 65
1, 127472, Note_on_c, 9, 42, 73
1, 127472, Note_on_c, 10, 15, 94
1, 127472, Note_on_c, 12, 89, 83
1, 127473, Control_c, 9, 7, 93
1, 127473, Control_c, 10, 7, 119
1, 127497, Note_on_c, 9, 36, 0
1, 127499, Note_on_c, 9, 42, 0
1, 127499, Note_on_c, 10, 15, 0
1, 127514, Pitch_bend_c, 12, 2220
1, 127534, Pitch_bend_c, 12, 3030
1, 127555, Pitch_bend_c, 12, 3780
1, 127577, Pitch_bend_c, 12, 4770
1, 127593, Control_c, 9, 7, 92
1, 127593, Control_c, 10, 7, 118
1, 127597, Pitch_bend_c, 12, 5820
1, 127618, Pitch_bend_c, 12, 6570
1, 127638, Pitch_bend_c, 12, 6810
1, 127649, Note_on_c, 12, 89, 0
1, 127658, Pitch_bend_c, 12, 6000
1, 127679, Pitch_bend_c, 12, 2010
1, 127708, Pitch_bend_c, 12, 60
1, 127712, Note_on_c, 9, 36, 127
1, 127712, Note_on_c, 9, 44, 78
1, 127712, Note_on_c, 12, 89, 70
1, 127713, Control_c, 9, 7, 91
1, 127713, Control_c, 10, 7, 117
1, 127739, Note_on_c, 9, 36, 0
1, 127739, Note_on_c, 9, 44, 0
1, 127752, Pitch_bend_c, 12, 960
1, 127772, Pitch_bend_c, 12, 3840
1, 127793, Pitch_bend_c, 12, 4560
1, 127813, Pitch_bend_c, 12, 5130
1, 127832, Note_on_c, 9, 42, 88
1, 127833, Control_c, 9, 7, 90
1, 127833, Control_c, 10, 7, 115
1, 127833, Pitch_bend_c, 12, 6660
1, 127854, Pitch_bend_c, 12, 7170
1, 127859, Note_on_c, 9, 42, 0
1, 127894, Note_on_c, 12, 89, 0
1, 127895, Pitch_bend_c, 12, 7230
1, 127915, Pitch_bend_c, 12, 4650
1, 127937, Pitch_bend_c, 12, 1290
1, 127952, Note_on_c, 9, 44, 74
1, 127952, Note_on_c, 12, 89, 59
1, 127953, Control_c, 9, 7, 89
1, 127953, Control_c, 10, 7, 114
1, 127958, Pitch_bend_c, 12, 210
1, 127978, Pitch_bend_c, 12, 180
1, 127979, Note_on_c, 9, 44, 0
1, 127998, Pitch_bend_c, 12, 2580
1, 128018, Pitch_bend_c, 12, 4230
1, 128039, Pitch_bend_c, 12, 4680
1, 128059, Pitch_bend_c, 12, 5820
1, 128073, Control_c, 9, 7, 88
1, 128073, Control_c, 10, 7, 113
1, 128080, Pitch_bend_c, 12, 6240
1, 128100, Pitch_bend_c, 12, 6300
1, 128122, Pitch_bend_c, 12, 6570
1, 128138, Note_on_c, 12, 89, 0
1, 128142, Pitch_bend_c, 12, 6000
1, 128163, Pitch_bend_c, 12, 4920
1, 128183, Pitch_bend_c, 12, 4980
1, 128192, Note_on_c, 9, 38, 127
1, 128192, Note_on_c, 9, 42, 100
1, 128193, Control_c, 9, 7, 87
1, 128193, Control_c, 10, 7, 111
1, 128203, Pitch_bend_c, 12, 7020
1, 128219, Note_on_c, 9, 38, 0
1, 128219, Note_on_c, 9, 42, 0
1, 128224, Pitch_bend_c, 12, 8192
1, 128313, Control_c, 9, 7, 86
1, 128313, Control_c, 10, 7, 110
1, 128432, Note_on_c, 9, 42, 73
1, 128433, Control_c, 9, 7, 85
1, 128433, Control_c, 10, 7, 109
1, 128459, Note_on_c, 9, 42, 0
1, 128553, Control_c, 9, 7, 84
1, 128553, Control_c, 10, 7, 107
1, 128672, Note_on_c, 9, 36, 127
1, 128672, Note_on_c, 9, 44, 78
1, 128673, Control_c, 9, 7, 83
1, 128673, Control_c, 10, 7, 106
1, 128699, Note_on_c, 9, 36, 0
1, 128699, Note_on_c, 9, 44, 0
1, 128792, Note_on_c, 9, 42, 88
1, 128793, Control_c, 9, 7, 82
1, 128793, Control_c, 10, 7, 105
1, 128819, Note_on_c, 9, 42, 0
1, 128912, Note_on_c, 9, 44, 74
1, 128913, Control_c, 9, 7, 81
1, 128913, Control_c, 10, 7, 103
1, 128939, Note_on_c, 9, 44, 0
1, 129033, Control_c, 9, 7, 80
1, 129033, Control_c, 10, 7, 102
1, 129152, Note_on_c, 9, 38, 127
1, 129152, Note_on_c, 9, 42, 100
1, 129153, Control_c, 9, 7, 79
1, 129153, Control_c, 10, 7, 101
1, 129179, Note_on_c, 9, 38, 0
1, 129179, Note_on_c, 9, 42, 0
1, 129273, Control_c, 9, 7, 78
1, 129273, Control_c, 10, 7, 99
1, 129392, Note_on_c, 9, 42, 73
1, 129393, Control_c, 9, 7, 77
1, 129393, Control_c, 10, 7, 98
1, 129419, Note_on_c, 9, 42, 0
1, 129513, Control_c, 9, 7, 76
1, 129513, Control_c, 10, 7, 97
1, 129632, Note_on_c, 9, 36, 127
1, 129632, Note_on_c, 9, 44, 78
1, 129633, Control_c, 9, 7, 74
1, 129633, Control_c, 10, 7, 95
1, 129659, Note_on_c, 9, 36, 0
1, 129659, Note_on_c, 9, 44, 0
1, 129752, Note_on_c, 9, 42, 88
1, 129753, Control_c, 9, 7, 73
1, 129753, Control_c, 10, 7, 94
1, 129779, Note_on_c, 9, 42, 0
1, 129872, Note_on_c, 9, 36, 127
1, 129872, Note_on_c, 9, 44, 74
1, 129873, Control_c, 9, 7, 72
1, 129873, Control_c, 10, 7, 93
1, 129899, Note_on_c, 9, 36, 0
1, 129899, Note_on_c, 9, 44, 0
1, 129993, Control_c, 9, 7, 71
1, 129993, Control_c, 10, 7, 91
1, 130112, Note_on_c, 9, 34, 115
1, 130112, Note_on_c, 9, 36, 127
1, 130112, Note_on_c, 9, 38, 127
1, 130112, Note_on_c, 9, 42, 100
1, 130113, Control_c, 9, 7, 70
1, 130113, Control_c, 10, 7, 90
1, 130133, Pitch_bend_c, 9, 6210
1, 130139, Note_on_c, 9, 34, 0
1, 130139, Note_on_c, 9, 36, 0
1, 130139, Note_on_c, 9, 38, 0
1, 130139, Note_on_c, 9, 42, 0
1, 130153, Pitch_bend_c, 9, 8192
1, 130233, Control_c, 9, 7, 69
1, 130233, Control_c, 10, 7, 89
1, 130352, Note_on_c, 9, 42, 73
1, 130353, Control_c, 9, 7, 68
1, 130353, Control_c, 10, 7, 87
1, 130379, Note_on_c, 9, 42, 0
1, 130473, Control_c, 9, 7, 67
1, 130473, Control_c, 10, 7, 86
1, 130555, Pitch_bend_c, 9, 0
1, 130592, Note_on_c, 9, 36, 127
1, 130592, Note_on_c, 9, 44, 78
1, 130593, Control_c, 9, 7, 66
1, 130593, Control_c, 10, 7, 85
1, 130619, Note_on_c, 9, 36, 0
1, 130619, Note_on_c, 9, 44, 0
1, 130712, Note_on_c, 9, 42, 88
1, 130713, Control_c, 9, 7, 65
1, 130713, Control_c, 10, 7, 83
1, 130739, Note_on_c, 9, 42, 0
1, 130832, Note_on_c, 9, 44, 74
1, 130833, Control_c, 9, 7, 64
1, 130833, Control_c, 10, 7, 82
1, 130859, Note_on_c, 9, 44, 0
1, 130953, Control_c, 9, 7, 63
1, 130953, Control_c, 10, 7, 81
1, 131072, Note_on_c, 9, 38, 127
1, 131072, Note_on_c, 9, 42, 100
1, 131073, Control_c, 9, 7, 62
1, 131073, Control_c, 10, 7, 79
1, 131099, Note_on_c, 9, 38, 0
1, 131099, Note_on_c, 9, 42, 0
1, 131193, Control_c, 9, 7, 61
1, 131193, Control_c, 10, 7, 78
1, 131310, Note_on_c, 9, 36, 65
1, 131312, Note_on_c, 9, 42, 73
1, 131312, Note_on_c, 10, 15, 94
1, 131313, Control_c, 9, 7, 60
1, 131313, Control_c, 10, 7, 77
1, 131337, Note_on_c, 9, 36, 0
1, 131339, Note_on_c, 9, 42, 0
1, 131339, Note_on_c, 10, 15, 0
1, 131433, Control_c, 9, 7, 59
1, 131433, Control_c, 10, 7, 75
1, 131552, Note_on_c, 9, 36, 127
1, 131552, Note_on_c, 9, 44, 78
1, 131553, Control_c, 9, 7, 58
1, 131553, Control_c, 10, 7, 74
1, 131579, Note_on_c, 9, 36, 0
1, 131579, Note_on_c, 9, 44, 0
1, 131672, Note_on_c, 9, 42, 88
1, 131673, Control_c, 9, 7, 57
1, 131673, Control_c, 10, 7, 73
1, 131699, Note_on_c, 9, 42, 0
1, 131792, Note_on_c, 9, 44, 74
1, 131793, Control_c, 9, 7, 56
1, 131793, Control_c, 10, 7, 71
1, 131819, Note_on_c, 9, 44, 0
1, 131913, Control_c, 9, 7, 55
1, 131913, Control_c, 10, 7, 70
1, 132032, Note_on_c, 9, 38, 127
1, 132032, Note_on_c, 9, 42, 100
1, 132033, Control_c, 9, 7, 54
1, 132033, Control_c, 10, 7, 69
1, 132059, Note_on_c, 9, 38, 0
1, 132059, Note_on_c, 9, 42, 0
1, 132153, Control_c, 9, 7, 53
1, 132153, Control_c, 10, 7, 67
1, 132272, Note_on_c, 9, 42, 73
1, 132273, Control_c, 9, 7, 52
1, 132273, Control_c, 10, 7, 66
1, 132299, Note_on_c, 9, 42, 0
1, 132393, Control_c, 9, 7, 51
1, 132393, Control_c, 10, 7, 65
1, 132512, Note_on_c, 9, 36, 127
1, 132512, Note_on_c, 9, 44, 78
1, 132513, Control_c, 9, 7, 49
1, 132513, Control_c, 10, 7, 63
1, 132539, Note_on_c, 9, 36, 0
1, 132539, Note_on_c, 9, 44, 0
1, 132632, Note_on_c, 9, 42, 88
1, 132633, Control_c, 9, 7, 48
1, 132633, Control_c, 10, 7, 62
1, 132659, Note_on_c, 9, 42, 0
1, 132752, Note_on_c, 9, 44, 74
1, 132753, Control_c, 9, 7, 47
1, 132753, Control_c, 10, 7, 61
1, 132779, Note_on_c, 9, 44, 0
1, 132873, Control_c, 9, 7, 46
1, 132873, Control_c, 10, 7, 59
1, 132992, Note_on_c, 9, 36, 127
1, 132992, Note_on_c, 9, 38, 127
1, 132992, Note_on_c, 9, 42, 100
1, 132993, Control_c, 9, 7, 45
1, 132993, Control_c, 10, 7, 58
1, 133019, Note_on_c, 9, 36, 0
1, 133019, Note_on_c, 9, 38, 0
1, 133019, Note_on_c, 9, 42, 0
1, 133113, Control_c, 9, 7, 44
1, 133113, Control_c, 10, 7, 57
1, 133232, Note_on_c, 9, 42, 73
1, 133233, Control_c, 9, 7, 43
1, 133233, Control_c, 10, 7, 55
1, 133259, Note_on_c, 9, 42, 0
1, 133353, Control_c, 9, 7, 42
1, 133353, Control_c, 10, 7, 54
1, 133472, Note_on_c, 9, 36, 127
1, 133472, Note_on_c, 9, 44, 78
1, 133473, Control_c, 9, 7, 41
1, 133473, Control_c, 10, 7, 53
1, 133499, Note_on_c, 9, 36, 0
1, 133499, Note_on_c, 9, 44, 0
1, 133592, Note_on_c, 9, 38, 92
1, 133592, Note_on_c, 9, 42, 88
1, 133593, Control_c, 9, 7, 40
1, 133593, Control_c, 10, 7, 51
1, 133619, Note_on_c, 9, 38, 0
1, 133619, Note_on_c, 9, 42, 0
1, 133712, Note_on_c, 9, 36, 127
1, 133712, Note_on_c, 9, 44, 74
1, 133713, Control_c, 9, 7, 39
1, 133713, Control_c, 10, 7, 50
1, 133739, Note_on_c, 9, 36, 0
1, 133739, Note_on_c, 9, 44, 0
1, 133833, Control_c, 9, 7, 38
1, 133833, Control_c, 10, 7, 49
1, 133952, Note_on_c, 9, 38, 127
1, 133952, Note_on_c, 9, 42, 100
1, 133953, Control_c, 9, 7, 37
1, 133953, Control_c, 10, 7, 47
1, 133979, Note_on_c, 9, 38, 0
1, 133979, Note_on_c, 9, 42, 0
1, 134073, Control_c, 9, 7, 36
1, 134073, Control_c, 10, 7, 46
1, 134192, Note_on_c, 9, 42, 73
1, 134193, Control_c, 9, 7, 35
1, 134193, Control_c, 10, 7, 45
1, 134219, Note_on_c, 9, 42, 0
1, 134313, Control_c, 9, 7, 34
1, 134313, Control_c, 10, 7, 43
1, 134432, Note_on_c, 9, 36, 127
1, 134432, Note_on_c, 9, 44, 78
1, 134433, Control_c, 9, 7, 33
1, 134433, Control_c, 10, 7, 42
1, 134459, Note_on_c, 9, 36, 0
1, 134459, Note_on_c, 9, 44, 0
1, 134552, Note_on_c, 9, 42, 88
1, 134553, Control_c, 9, 7, 32
1, 134553, Control_c, 10, 7, 41
1, 134579, Note_on_c, 9, 42, 0
1, 134672, Note_on_c, 9, 44, 74
1, 134673, Control_c, 9, 7, 31
1, 134673, Control_c, 10, 7, 39
1, 134699, Note_on_c, 9, 44, 0
1, 134793, Control_c, 9, 7, 30
1, 134793, Control_c, 10, 7, 38
1, 134912, Note_on_c, 9, 38, 127
1, 134912, Note_on_c, 9, 42, 100
1, 134913, Control_c, 9, 7, 29
1, 134913, Control_c, 10, 7, 37
1, 134939, Note_on_c, 9, 38, 0
1, 134939, Note_on_c, 9, 42, 0
1, 135033, Control_c, 9, 7, 28
1, 135033, Control_c, 10, 7, 35
1, 135150, Note_on_c, 9, 36, 65
1, 135152, Note_on_c, 9, 42, 73
1, 135152, Note_on_c, 10, 15, 94
1, 135153, Control_c, 9, 7, 27
1, 135153, Control_c, 10, 7, 34
1, 135177, Note_on_c, 9, 36, 0
1, 135179, Note_on_c, 9, 42, 0
1, 135179, Note_on_c, 10, 15, 0
1, 135273, Control_c, 9, 7, 26
1, 135273, Control_c, 10, 7, 33
1, 135392, Note_on_c, 9, 36, 127
1, 135392, Note_on_c, 9, 44, 78
1, 135393, Control_c, 9, 7, 24
1, 135393, Control_c, 10, 7, 31
1, 135419, Note_on_c, 9, 36, 0
1, 135419, Note_on_c, 9, 44, 0
1, 135512, Note_on_c, 9, 42, 88
1, 135513, Control_c, 9, 7, 23
1, 135513, Control_c, 10, 7, 30
1, 135539, Note_on_c, 9, 42, 0
1, 135632, Note_on_c, 9, 44, 74
1, 135633, Control_c, 9, 7, 22
1, 135633, Control_c, 10, 7, 29
1, 135659, Note_on_c, 9, 44, 0
1, 135753, Control_c, 9, 7, 21
1, 135753, Control_c, 10, 7, 27
1, 135872, Note_on_c, 9, 38, 127
1, 135872, Note_on_c, 9, 42, 100
1, 135873, Control_c, 9, 7, 20
1, 135873, Control_c, 10, 7, 26
1, 135899, Note_on_c, 9, 38, 0
1, 135899, Note_on_c, 9, 42, 0
1, 135993, Control_c, 9, 7, 19
1, 135993, Control_c, 10, 7, 25
1, 136112, Note_on_c, 9, 42, 73
1, 136113, Control_c, 9, 7, 18
1, 136113, Control_c, 10, 7, 23
1, 136139, Note_on_c, 9, 42, 0
1, 136233, Control_c, 9, 7, 17
1, 136233, Control_c, 10, 7, 22
1, 136352, Note_on_c, 9, 36, 127
1, 136352, Note_on_c, 9, 44, 78
1, 136353, Control_c, 9, 7, 16
1, 136353, Control_c, 10, 7, 21
1, 136379, Note_on_c, 9, 36, 0
1, 136379, Note_on_c, 9, 44, 0
1, 136472, Note_on_c, 9, 42, 88
1, 136473, Control_c, 9, 7, 15
1, 136473, Control_c, 10, 7, 19
1, 136499, Note_on_c, 9, 42, 0
1, 136592, Note_on_c, 9, 44, 74
1, 136593, Control_c, 9, 7, 14
1, 136593, Control_c, 10, 7, 18
1, 136619, Note_on_c, 9, 44, 0
1, 136713, Control_c, 9, 7, 13
1, 136713, Control_c, 10, 7, 17
1, 136832, Note_on_c, 9, 38, 127
1, 136832, Note_on_c, 9, 42, 100
1, 136833, Control_c, 9, 7, 12
1, 136833, Control_c, 10, 7, 15
1, 136859, Note_on_c, 9, 38, 0
1, 136859, Note_on_c, 9, 42, 0
1, 136953, Control_c, 9, 7, 11
1, 136953, Control_c, 10, 7, 14
1, 137072, Note_on_c, 9, 42, 73
1, 137073, Control_c, 9, 7, 10
1, 137073, Control_c, 10, 7, 13
1, 137099, Note_on_c, 9, 42, 0
1, 137193, Control_c, 9, 7, 9
1, 137193, Control_c, 10, 7, 11
1, 137312, Note_on_c, 9, 36, 127
1, 137312, Note_on_c, 9, 44, 78
1, 137313, Control_c, 9, 7, 8
1, 137313, Control_c, 10, 7, 10
1, 137339, Note_on_c, 9, 36, 0
1, 137339, Note_on_c, 9, 44, 0
1, 137432, Note_on_c, 9, 42, 88
1, 137433, Control_c, 9, 7, 7
1, 137433, Control_c, 10, 7, 9
1, 137459, Note_on_c, 9, 42, 0
1, 137552, Note_on_c, 9, 36, 127
1, 137552, Note_on_c, 9, 44, 74
1, 137553, Control_c, 9, 7, 6
1, 137553, Control_c, 10, 7, 7
1, 137579, Note_on_c, 9, 36, 0
1, 137579, Note_on_c, 9, 44, 0
1, 137673, Control_c, 9, 7, 5
1, 137673, Control_c, 10, 7, 6
1, 137792, Note_on_c, 9, 34, 115
1, 137792, Note_on_c, 9, 36, 127
1, 137792, Note_on_c, 9, 38, 127
1, 137792, Note_on_c, 9, 42, 100
1, 137793, Control_c, 9, 7, 4
1, 137793, Control_c, 10, 7, 5
1, 137813, Pitch_bend_c, 9, 6210
1, 137819, Note_on_c, 9, 34, 0
1, 137819, Note_on_c, 9, 36, 0
1, 137819, Note_on_c, 9, 38, 0
1, 137819, Note_on_c, 9, 42, 0
1, 137833, Pitch_bend_c, 9, 8192
1, 137913, Control_c, 9, 7, 3
1, 137913, Control_c, 10, 7, 3
1, 138032, Note_on_c, 9, 42, 73
1, 138033, Control_c, 9, 7, 2
1, 138033, Control_c, 10, 7, 2
1, 138059, Note_on_c, 9, 42, 0
1, 138153, Control_c, 9, 7, 0
1, 138153, Control_c, 10, 7, 0
1, 138235, Pitch_bend_c, 9, 0
1, 139594, Control_c, 1, 120, 0
1, 139625, Control_c, 1, 123, 0
1, 139683, Control_c, 3, 120, 0
1, 139705, Control_c, 3, 123, 0
1, 139743, Control_c, 5, 120, 0
1, 139754, Control_c, 2, 120, 0
1, 139774, Control_c, 5, 123, 0
1, 139785, Control_c, 2, 123, 0
1, 139825, Control_c, 4, 120, 0
1, 139843, Control_c, 10, 120, 0
1, 139843, Control_c, 15, 120, 0
1, 139858, Control_c, 4, 123, 0
1, 139874, Control_c, 10, 123, 0
1, 139874, Control_c, 15, 123, 0
1, 139890, Control_c, 11, 120, 0
1, 139890, Control_c, 12, 120, 0
1, 139914, Control_c, 9, 120, 0
1, 139923, Control_c, 11, 123, 0
1, 139923, Control_c, 12, 123, 0
1, 139945, Control_c, 9, 123, 0
1, 139958, Control_c, 7, 120, 0
1, 139990, Control_c, 7, 123, 0
1, 140094, Control_c, 8, 120, 0
1, 140125, Control_c, 8, 123, 0
1, 140134, Control_c, 6, 120, 0
1, 140154, Control_c, 6, 123, 0
1, 140154, End_track
0, 0, End_of_file
