0, 0, Header, 1, 18, 240
1, 0, Start_track
1, 0, Time_signature, 4, 2, 24, 8
1, 0, Tempo, 705882
1, 4800, Text_t, "v1"
1, 19200, Text_t, "c1"
1, 27840, Text_t, "v2"
1, 42240, Text_t, "c2"
1, 50880, Text_t, "solo/bridge"
1, 58560, Text_t, "c3"
1, 71040, Text_t, "out c1"
1, 78720, Text_t, "out c2"
1, 78720, End_track
2, 0, Start_track
2, 0, Text_t, "bass"
2, 0, Program_c, 1, 35
2, 0, Control_c, 1, 7, 100
2, 0, Control_c, 1, 93, 40
2, 0, Control_c, 1, 91, 40
2, 0, Control_c, 1, 10, 64
2, 2880, Note_on_c, 1, 40, 64
2, 3840, Note_on_c, 1, 45, 64
2, 3851, Note_off_c, 1, 40, 64
2, 4792, Note_off_c, 1, 45, 64
2, 4800, Note_on_c, 1, 43, 66
2, 5757, Note_off_c, 1, 43, 64
2, 5760, Note_on_c, 1, 45, 60
2, 6715, Note_off_c, 1, 45, 64
2, 6720, Note_on_c, 1, 43, 61
2, 7680, Note_on_c, 1, 45, 58
2, 7694, Note_off_c, 1, 43, 64
2, 8628, Note_off_c, 1, 45, 64
2, 8640, Note_on_c, 1, 43, 69
2, 9600, Note_off_c, 1, 43, 64
2, 9600, Note_on_c, 1, 45, 59
2, 10560, Note_on_c, 1, 47, 60
2, 10576, Note_off_c, 1, 45, 64
2, 10867, Note_off_c, 1, 47, 64
2, 10920, Note_on_c, 1, 47, 73
2, 11520, Note_on_c, 1, 45, 65
2, 11533, Note_off_c, 1, 47, 64
2, 12449, Note_off_c, 1, 45, 64
2, 12480, Note_on_c, 1, 28, 78
2, 12741, Note_off_c, 1, 28, 64
2, 12840, Note_on_c, 1, 28, 73
2, 13338, Note_off_c, 1, 28, 64
2, 13380, Note_on_c, 1, 28, 76
2, 13440, Note_on_c, 1, 30, 62
2, 13450, Note_off_c, 1, 28, 64
2, 13712, Note_off_c, 1, 30, 64
2, 13800, Note_on_c, 1, 30, 69
2, 14400, Note_on_c, 1, 28, 79
2, 14428, Note_off_c, 1, 30, 64
2, 14644, Note_off_c, 1, 28, 64
2, 14760, Note_on_c, 1, 28, 71
2, 15231, Note_off_c, 1, 28, 64
2, 15240, Note_on_c, 1, 40, 73
2, 15292, Note_off_c, 1, 40, 64
2, 15300, Note_on_c, 1, 28, 59
2, 15360, Note_on_c, 1, 29, 78
2, 15383, Note_off_c, 1, 28, 64
2, 15630, Note_off_c, 1, 29, 64
2, 15720, Note_on_c, 1, 29, 62
2, 16128, Note_off_c, 1, 29, 64
2, 16140, Note_on_c, 1, 41, 80
2, 16188, Note_off_c, 1, 41, 64
2, 16200, Note_on_c, 1, 29, 62
2, 16320, Note_on_c, 1, 28, 62
2, 16338, Note_off_c, 1, 29, 64
2, 16590, Note_off_c, 1, 28, 64
2, 16680, Note_on_c, 1, 28, 82
2, 17002, Note_off_c, 1, 28, 64
2, 17040, Note_on_c, 1, 40, 99
2, 17100, Note_on_c, 1, 38, 71
2, 17112, Note_off_c, 1, 40, 64
2, 17160, Note_off_c, 1, 38, 64
2, 17160, Note_on_c, 1, 36, 66
2, 17220, Note_on_c, 1, 33, 70
2, 17227, Note_off_c, 1, 36, 64
2, 17270, Note_off_c, 1, 33, 64
2, 17280, Note_on_c, 1, 31, 80
2, 17558, Note_off_c, 1, 31, 64
2, 17640, Note_on_c, 1, 31, 69
2, 18128, Note_off_c, 1, 31, 64
2, 18180, Note_on_c, 1, 31, 66
2, 18240, Note_on_c, 1, 33, 78
2, 18265, Note_off_c, 1, 31, 64
2, 18508, Note_off_c, 1, 33, 64
2, 18600, Note_on_c, 1, 33, 76
2, 19193, Note_off_c, 1, 33, 64
2, 19200, Note_on_c, 1, 31, 79
2, 19536, Note_off_c, 1, 31, 64
2, 19560, Note_on_c, 1, 33, 69
2, 20160, Note_on_c, 1, 35, 68
2, 20161, Note_off_c, 1, 33, 64
2, 20497, Note_off_c, 1, 35, 64
2, 20520, Note_on_c, 1, 37, 55
2, 21120, Note_on_c, 1, 31, 71
2, 21124, Note_off_c, 1, 37, 64
2, 21471, Note_off_c, 1, 31, 64
2, 21480, Note_on_c, 1, 33, 69
2, 22057, Note_off_c, 1, 33, 64
2, 22080, Note_on_c, 1, 35, 70
2, 22420, Note_off_c, 1, 35, 64
2, 22440, Note_on_c, 1, 37, 60
2, 22782, Note_off_c, 1, 37, 64
2, 22800, Note_on_c, 1, 38, 61
2, 22860, Note_off_c, 1, 38, 64
2, 22860, Note_on_c, 1, 37, 73
2, 22920, Note_on_c, 1, 33, 50
2, 22928, Note_off_c, 1, 37, 64
2, 23021, Note_off_c, 1, 33, 64
2, 23040, Note_on_c, 1, 31, 65
2, 23387, Note_off_c, 1, 31, 64
2, 23400, Note_on_c, 1, 33, 67
2, 23997, Note_off_c, 1, 33, 64
2, 24000, Note_on_c, 1, 35, 62
2, 24338, Note_off_c, 1, 35, 64
2, 24360, Note_on_c, 1, 37, 60
2, 24834, Note_off_c, 1, 37, 64
2, 24840, Note_on_c, 1, 38, 62
2, 24960, Note_on_c, 1, 28, 73
2, 24968, Note_off_c, 1, 38, 64
2, 25279, Note_off_c, 1, 28, 64
2, 25320, Note_on_c, 1, 28, 69
2, 25560, Note_on_c, 1, 31, 64
2, 25561, Note_off_c, 1, 28, 64
2, 25909, Note_off_c, 1, 31, 64
2, 25920, Note_on_c, 1, 33, 60
2, 26860, Note_off_c, 1, 33, 64
2, 26880, Note_on_c, 1, 26, 67
2, 27806, Note_off_c, 1, 26, 64
2, 27840, Note_on_c, 1, 31, 66
2, 28797, Note_off_c, 1, 31, 64
2, 28800, Note_on_c, 1, 33, 60
2, 29755, Note_off_c, 1, 33, 64
2, 29760, Note_on_c, 1, 31, 61
2, 30720, Note_on_c, 1, 33, 58
2, 30734, Note_off_c, 1, 31, 64
2, 31668, Note_off_c, 1, 33, 64
2, 31680, Note_on_c, 1, 31, 69
2, 32640, Note_off_c, 1, 31, 64
2, 32640, Note_on_c, 1, 33, 59
2, 33600, Note_on_c, 1, 35, 60
2, 33616, Note_off_c, 1, 33, 64
2, 33907, Note_off_c, 1, 35, 64
2, 33960, Note_on_c, 1, 35, 73
2, 34560, Note_on_c, 1, 33, 65
2, 34573, Note_off_c, 1, 35, 64
2, 35489, Note_off_c, 1, 33, 64
2, 35520, Note_on_c, 1, 28, 78
2, 35781, Note_off_c, 1, 28, 64
2, 35880, Note_on_c, 1, 28, 73
2, 36378, Note_off_c, 1, 28, 64
2, 36420, Note_on_c, 1, 28, 76
2, 36480, Note_on_c, 1, 30, 62
2, 36490, Note_off_c, 1, 28, 64
2, 36752, Note_off_c, 1, 30, 64
2, 36840, Note_on_c, 1, 30, 69
2, 37440, Note_on_c, 1, 28, 79
2, 37468, Note_off_c, 1, 30, 64
2, 37684, Note_off_c, 1, 28, 64
2, 37800, Note_on_c, 1, 28, 71
2, 38271, Note_off_c, 1, 28, 64
2, 38280, Note_on_c, 1, 40, 73
2, 38332, Note_off_c, 1, 40, 64
2, 38340, Note_on_c, 1, 28, 59
2, 38400, Note_on_c, 1, 29, 78
2, 38423, Note_off_c, 1, 28, 64
2, 38670, Note_off_c, 1, 29, 64
2, 38760, Note_on_c, 1, 29, 62
2, 39168, Note_off_c, 1, 29, 64
2, 39180, Note_on_c, 1, 41, 80
2, 39228, Note_off_c, 1, 41, 64
2, 39240, Note_on_c, 1, 29, 62
2, 39360, Note_on_c, 1, 28, 62
2, 39378, Note_off_c, 1, 29, 64
2, 39630, Note_off_c, 1, 28, 64
2, 39720, Note_on_c, 1, 28, 82
2, 40042, Note_off_c, 1, 28, 64
2, 40080, Note_on_c, 1, 40, 99
2, 40140, Note_on_c, 1, 38, 71
2, 40152, Note_off_c, 1, 40, 64
2, 40200, Note_off_c, 1, 38, 64
2, 40200, Note_on_c, 1, 36, 66
2, 40260, Note_on_c, 1, 33, 70
2, 40267, Note_off_c, 1, 36, 64
2, 40310, Note_off_c, 1, 33, 64
2, 40320, Note_on_c, 1, 31, 80
2, 40598, Note_off_c, 1, 31, 64
2, 40680, Note_on_c, 1, 31, 69
2, 41168, Note_off_c, 1, 31, 64
2, 41220, Note_on_c, 1, 31, 66
2, 41280, Note_on_c, 1, 33, 78
2, 41305, Note_off_c, 1, 31, 64
2, 41548, Note_off_c, 1, 33, 64
2, 41640, Note_on_c, 1, 33, 76
2, 42233, Note_off_c, 1, 33, 64
2, 42240, Note_on_c, 1, 31, 79
2, 42576, Note_off_c, 1, 31, 64
2, 42600, Note_on_c, 1, 33, 69
2, 43200, Note_on_c, 1, 35, 68
2, 43201, Note_off_c, 1, 33, 64
2, 43537, Note_off_c, 1, 35, 64
2, 43560, Note_on_c, 1, 37, 55
2, 44160, Note_on_c, 1, 31, 71
2, 44164, Note_off_c, 1, 37, 64
2, 44511, Note_off_c, 1, 31, 64
2, 44520, Note_on_c, 1, 33, 69
2, 45097, Note_off_c, 1, 33, 64
2, 45120, Note_on_c, 1, 35, 70
2, 45460, Note_off_c, 1, 35, 64
2, 45480, Note_on_c, 1, 37, 60
2, 45822, Note_off_c, 1, 37, 64
2, 45840, Note_on_c, 1, 38, 61
2, 45900, Note_off_c, 1, 38, 64
2, 45900, Note_on_c, 1, 37, 73
2, 45960, Note_on_c, 1, 33, 50
2, 45968, Note_off_c, 1, 37, 64
2, 46061, Note_off_c, 1, 33, 64
2, 46080, Note_on_c, 1, 31, 65
2, 46427, Note_off_c, 1, 31, 64
2, 46440, Note_on_c, 1, 33, 67
2, 47037, Note_off_c, 1, 33, 64
2, 47040, Note_on_c, 1, 35, 62
2, 47378, Note_off_c, 1, 35, 64
2, 47400, Note_on_c, 1, 37, 60
2, 47874, Note_off_c, 1, 37, 64
2, 47880, Note_on_c, 1, 38, 62
2, 48000, Note_on_c, 1, 28, 73
2, 48008, Note_off_c, 1, 38, 64
2, 48319, Note_off_c, 1, 28, 64
2, 48360, Note_on_c, 1, 28, 69
2, 48600, Note_on_c, 1, 31, 64
2, 48601, Note_off_c, 1, 28, 64
2, 48949, Note_off_c, 1, 31, 64
2, 48960, Note_on_c, 1, 33, 60
2, 49900, Note_off_c, 1, 33, 64
2, 49920, Note_on_c, 1, 26, 67
2, 50846, Note_off_c, 1, 26, 64
2, 50880, Note_on_c, 1, 29, 82
2, 51149, Note_off_c, 1, 29, 64
2, 51240, Note_on_c, 1, 29, 83
2, 51743, Note_off_c, 1, 29, 64
2, 51780, Note_on_c, 1, 29, 80
2, 51840, Note_on_c, 1, 28, 79
2, 51841, Note_off_c, 1, 29, 64
2, 52093, Note_off_c, 1, 28, 64
2, 52200, Note_on_c, 1, 28, 82
2, 52789, Note_off_c, 1, 28, 64
2, 52800, Note_on_c, 1, 29, 82
2, 53075, Note_off_c, 1, 29, 64
2, 53160, Note_on_c, 1, 29, 78
2, 53673, Note_off_c, 1, 29, 64
2, 53700, Note_on_c, 1, 26, 85
2, 53760, Note_on_c, 1, 28, 86
2, 53773, Note_off_c, 1, 26, 64
2, 54045, Note_off_c, 1, 28, 64
2, 54120, Note_on_c, 1, 28, 83
2, 54593, Note_off_c, 1, 28, 64
2, 54600, Note_on_c, 1, 26, 73
2, 54660, Note_on_c, 1, 28, 88
2, 54681, Note_off_c, 1, 26, 64
2, 54720, Note_on_c, 1, 29, 88
2, 54728, Note_off_c, 1, 28, 64
2, 55008, Note_off_c, 1, 29, 64
2, 55080, Note_on_c, 1, 29, 82
2, 55573, Note_off_c, 1, 29, 64
2, 55620, Note_on_c, 1, 29, 82
2, 55677, Note_off_c, 1, 29, 64
2, 55680, Note_on_c, 1, 28, 75
2, 55967, Note_off_c, 1, 28, 64
2, 56040, Note_on_c, 1, 28, 88
2, 56519, Note_off_c, 1, 28, 64
2, 56580, Note_on_c, 1, 28, 85
2, 56638, Note_off_c, 1, 28, 64
2, 56640, Note_on_c, 1, 33, 78
2, 56948, Note_off_c, 1, 33, 64
2, 57000, Note_on_c, 1, 33, 79
2, 57449, Note_off_c, 1, 33, 64
2, 57480, Note_on_c, 1, 33, 68
2, 57600, Note_on_c, 1, 35, 72
2, 57605, Note_off_c, 1, 33, 64
2, 57824, Note_off_c, 1, 35, 64
2, 57840, Note_on_c, 1, 35, 72
2, 57927, Note_off_c, 1, 35, 64
2, 57960, Note_on_c, 1, 35, 94
2, 58043, Note_off_c, 1, 35, 64
2, 58080, Note_on_c, 1, 35, 85
2, 58151, Note_off_c, 1, 35, 64
2, 58200, Note_on_c, 1, 35, 83
2, 58251, Note_off_c, 1, 35, 64
2, 58320, Note_on_c, 1, 35, 94
2, 58548, Note_off_c, 1, 35, 64
2, 58680, Note_on_c, 1, 33, 88
2, 58838, Note_off_c, 1, 33, 64
2, 58920, Note_on_c, 1, 35, 100
2, 59513, Note_off_c, 1, 35, 64
2, 59520, Note_on_c, 1, 35, 69
2, 59520, Note_on_c, 1, 37, 68
2, 59521, Note_off_c, 1, 35, 64
2, 59857, Note_off_c, 1, 37, 64
2, 59880, Note_on_c, 1, 39, 55
2, 60480, Note_on_c, 1, 33, 71
2, 60484, Note_off_c, 1, 39, 64
2, 60831, Note_off_c, 1, 33, 64
2, 60840, Note_on_c, 1, 35, 69
2, 61417, Note_off_c, 1, 35, 64
2, 61440, Note_on_c, 1, 37, 70
2, 61780, Note_off_c, 1, 37, 64
2, 61800, Note_on_c, 1, 39, 60
2, 62142, Note_off_c, 1, 39, 64
2, 62160, Note_on_c, 1, 40, 61
2, 62220, Note_off_c, 1, 40, 64
2, 62220, Note_on_c, 1, 39, 73
2, 62280, Note_on_c, 1, 35, 50
2, 62288, Note_off_c, 1, 39, 64
2, 62381, Note_off_c, 1, 35, 64
2, 62400, Note_on_c, 1, 33, 65
2, 62747, Note_off_c, 1, 33, 64
2, 62760, Note_on_c, 1, 35, 67
2, 63357, Note_off_c, 1, 35, 64
2, 63360, Note_on_c, 1, 37, 62
2, 63698, Note_off_c, 1, 37, 64
2, 63720, Note_on_c, 1, 39, 60
2, 64194, Note_off_c, 1, 39, 64
2, 64200, Note_on_c, 1, 40, 62
2, 64320, Note_on_c, 1, 30, 73
2, 64328, Note_off_c, 1, 40, 64
2, 64639, Note_off_c, 1, 30, 64
2, 64680, Note_on_c, 1, 30, 69
2, 64920, Note_on_c, 1, 33, 64
2, 64921, Note_off_c, 1, 30, 64
2, 65269, Note_off_c, 1, 33, 64
2, 65280, Note_on_c, 1, 35, 60
2, 66220, Note_off_c, 1, 35, 64
2, 66240, Note_on_c, 1, 33, 65
2, 66587, Note_off_c, 1, 33, 64
2, 66600, Note_on_c, 1, 35, 67
2, 67197, Note_off_c, 1, 35, 64
2, 67200, Note_on_c, 1, 37, 62
2, 67538, Note_off_c, 1, 37, 64
2, 67560, Note_on_c, 1, 39, 60
2, 68034, Note_off_c, 1, 39, 64
2, 68040, Note_on_c, 1, 40, 62
2, 68160, Note_on_c, 1, 30, 73
2, 68168, Note_off_c, 1, 40, 64
2, 68479, Note_off_c, 1, 30, 64
2, 68520, Note_on_c, 1, 30, 69
2, 68760, Note_on_c, 1, 33, 64
2, 68761, Note_off_c, 1, 30, 64
2, 69109, Note_off_c, 1, 33, 64
2, 69120, Note_on_c, 1, 35, 60
2, 70060, Note_off_c, 1, 35, 64
2, 70080, Note_on_c, 1, 28, 99
2, 70803, Note_off_c, 1, 28, 64
2, 71040, Note_on_c, 1, 33, 79
2, 71376, Note_off_c, 1, 33, 64
2, 71400, Note_on_c, 1, 35, 69
2, 72000, Note_on_c, 1, 37, 68
2, 72001, Note_off_c, 1, 35, 64
2, 72337, Note_off_c, 1, 37, 64
2, 72360, Note_on_c, 1, 39, 55
2, 72960, Note_off_c, 1, 39, 64
2, 72960, Note_on_c, 1, 33, 71
2, 72960, Note_on_c, 1, 39, 55
2, 72964, Note_off_c, 1, 39, 64
2, 73311, Note_off_c, 1, 33, 64
2, 73320, Note_on_c, 1, 35, 69
2, 73897, Note_off_c, 1, 35, 64
2, 73920, Note_on_c, 1, 37, 70
2, 74260, Note_off_c, 1, 37, 64
2, 74280, Note_on_c, 1, 39, 60
2, 74622, Note_off_c, 1, 39, 64
2, 74640, Note_on_c, 1, 40, 61
2, 74700, Note_off_c, 1, 40, 64
2, 74700, Note_on_c, 1, 39, 73
2, 74760, Note_on_c, 1, 35, 50
2, 74768, Note_off_c, 1, 39, 64
2, 74861, Note_off_c, 1, 35, 64
2, 74880, Note_on_c, 1, 33, 65
2, 75227, Note_off_c, 1, 33, 64
2, 75240, Note_on_c, 1, 35, 67
2, 75837, Note_off_c, 1, 35, 64
2, 75840, Note_on_c, 1, 37, 62
2, 76178, Note_off_c, 1, 37, 64
2, 76200, Note_on_c, 1, 39, 60
2, 76674, Note_off_c, 1, 39, 64
2, 76680, Note_on_c, 1, 40, 62
2, 76798, Note_off_c, 1, 40, 64
2, 76800, Note_on_c, 1, 30, 73
2, 77119, Note_off_c, 1, 30, 64
2, 77160, Note_on_c, 1, 30, 69
2, 77400, Note_on_c, 1, 33, 64
2, 77401, Note_off_c, 1, 30, 64
2, 77749, Note_off_c, 1, 33, 64
2, 77760, Note_on_c, 1, 35, 60
2, 78700, Note_off_c, 1, 35, 64
2, 78720, Note_on_c, 1, 33, 79
2, 79056, Note_off_c, 1, 33, 64
2, 79080, Note_on_c, 1, 35, 69
2, 79680, Note_on_c, 1, 37, 68
2, 79681, Note_off_c, 1, 35, 64
2, 80017, Note_off_c, 1, 37, 64
2, 80040, Note_on_c, 1, 39, 55
2, 80640, Note_off_c, 1, 39, 64
2, 80640, Note_on_c, 1, 33, 71
2, 80640, Note_on_c, 1, 39, 55
2, 80644, Note_off_c, 1, 39, 64
2, 80991, Note_off_c, 1, 33, 64
2, 81000, Note_on_c, 1, 35, 69
2, 81577, Note_off_c, 1, 35, 64
2, 81600, Note_on_c, 1, 37, 70
2, 81940, Note_off_c, 1, 37, 64
2, 81960, Note_on_c, 1, 39, 60
2, 82302, Note_off_c, 1, 39, 64
2, 82320, Note_on_c, 1, 40, 61
2, 82380, Note_off_c, 1, 40, 64
2, 82380, Note_on_c, 1, 39, 73
2, 82440, Note_on_c, 1, 35, 50
2, 82448, Note_off_c, 1, 39, 64
2, 82541, Note_off_c, 1, 35, 64
2, 82560, Note_on_c, 1, 33, 65
2, 82907, Note_off_c, 1, 33, 64
2, 82920, Note_on_c, 1, 35, 67
2, 83517, Note_off_c, 1, 35, 64
2, 83520, Note_on_c, 1, 37, 62
2, 83858, Note_off_c, 1, 37, 64
2, 83880, Note_on_c, 1, 39, 60
2, 84354, Note_off_c, 1, 39, 64
2, 84360, Note_on_c, 1, 40, 62
2, 84478, Note_off_c, 1, 40, 64
2, 84480, Note_on_c, 1, 30, 73
2, 84799, Note_off_c, 1, 30, 64
2, 84840, Note_on_c, 1, 30, 69
2, 85080, Note_on_c, 1, 33, 64
2, 85081, Note_off_c, 1, 30, 64
2, 85429, Note_off_c, 1, 33, 64
2, 85440, Note_on_c, 1, 35, 60
2, 88296, Note_off_c, 1, 35, 64
2, 95880, Note_on_c, 1, 37, 77
2, 96000, Note_on_c, 1, 32, 64
2, 96022, Note_off_c, 1, 37, 64
2, 96346, Note_off_c, 1, 32, 64
2, 96360, Note_on_c, 1, 33, 60
2, 96960, Note_on_c, 1, 35, 67
2, 96983, Note_off_c, 1, 33, 64
2, 97309, Note_off_c, 1, 35, 64
2, 97320, Note_on_c, 1, 37, 71
2, 97920, Note_on_c, 1, 32, 58
2, 97926, Note_off_c, 1, 37, 64
2, 98280, Note_on_c, 1, 33, 66
2, 98284, Note_off_c, 1, 32, 64
2, 98880, Note_on_c, 1, 35, 69
2, 98881, Note_off_c, 1, 33, 64
2, 99229, Note_off_c, 1, 35, 64
2, 99240, Note_on_c, 1, 37, 63
2, 99681, Note_off_c, 1, 37, 64
2, 99720, Note_on_c, 1, 37, 63
2, 99840, Note_on_c, 1, 32, 58
2, 99850, Note_off_c, 1, 37, 64
2, 100184, Note_off_c, 1, 32, 64
2, 100200, Note_on_c, 1, 33, 66
2, 100800, Note_on_c, 1, 35, 74
2, 100837, Note_off_c, 1, 33, 64
2, 101152, Note_off_c, 1, 35, 64
2, 101160, Note_on_c, 1, 37, 69
2, 101757, Note_off_c, 1, 37, 64
2, 101760, Note_on_c, 1, 30, 69
2, 102116, Note_off_c, 1, 30, 64
2, 102120, Note_on_c, 1, 32, 68
2, 102712, Note_off_c, 1, 32, 64
2, 102720, Note_on_c, 1, 35, 69
2, 103035, Note_off_c, 1, 35, 64
2, 103080, Note_on_c, 1, 35, 71
2, 103320, Note_on_c, 1, 37, 75
2, 103352, Note_off_c, 1, 35, 64
2, 103658, Note_off_c, 1, 37, 64
2, 103680, Note_on_c, 1, 28, 66
2, 103680, Note_on_c, 1, 29, 68
2, 103693, Note_off_c, 1, 29, 64
2, 105474, Note_off_c, 1, 28, 64
2, 105474, End_track
3, 0, Start_track
3, 0, Text_t, "rhodes 1"
3, 0, Program_c, 2, 5
3, 0, Control_c, 2, 7, 100
3, 0, Control_c, 2, 93, 40
3, 0, Control_c, 2, 91, 65
3, 0, Control_c, 2, 10, 64
3, 960, Note_on_c, 2, 83, 80
3, 1070, Note_off_c, 2, 83, 64
3, 1080, Note_on_c, 2, 81, 80
3, 1313, Note_off_c, 2, 81, 64
3, 1320, Note_on_c, 2, 79, 80
3, 1558, Note_off_c, 2, 79, 64
3, 1560, Note_on_c, 2, 78, 80
3, 1800, Note_on_c, 2, 76, 80
3, 1817, Note_off_c, 2, 78, 64
3, 2789, Note_off_c, 2, 76, 64
3, 2880, Note_on_c, 2, 71, 80
3, 3000, Note_on_c, 2, 69, 80
3, 3014, Note_off_c, 2, 71, 64
3, 3229, Note_off_c, 2, 69, 64
3, 3240, Note_on_c, 2, 67, 80
3, 3469, Note_off_c, 2, 67, 64
3, 3480, Note_on_c, 2, 66, 80
3, 3816, Note_off_c, 2, 66, 64
3, 3840, Note_on_c, 2, 64, 80
3, 4786, Note_off_c, 2, 64, 64
3, 12120, Note_on_c, 2, 62, 78
3, 12240, Note_on_c, 2, 64, 79
3, 12360, Note_on_c, 2, 67, 90
3, 12472, Note_off_c, 2, 62, 64
3, 12482, Note_off_c, 2, 64, 64
3, 13440, Note_off_c, 2, 67, 64
3, 19200, Note_on_c, 2, 81, 86
3, 19535, Note_off_c, 2, 81, 64
3, 19560, Note_on_c, 2, 76, 92
3, 20160, Note_on_c, 2, 74, 83
3, 20167, Note_off_c, 2, 76, 64
3, 20486, Note_off_c, 2, 74, 64
3, 20520, Note_on_c, 2, 76, 97
3, 20760, Note_on_c, 2, 78, 75
3, 20768, Note_off_c, 2, 76, 64
3, 20853, Note_off_c, 2, 78, 64
3, 20880, Note_on_c, 2, 79, 86
3, 21120, Note_on_c, 2, 81, 86
3, 21122, Note_off_c, 2, 79, 64
3, 21480, Note_on_c, 2, 76, 88
3, 21489, Note_off_c, 2, 81, 64
3, 22053, Note_off_c, 2, 76, 64
3, 22080, Note_on_c, 2, 74, 86
3, 22437, Note_off_c, 2, 74, 64
3, 22440, Note_on_c, 2, 76, 100
3, 22680, Note_on_c, 2, 78, 84
3, 22700, Note_off_c, 2, 76, 64
3, 22793, Note_off_c, 2, 78, 64
3, 22800, Note_on_c, 2, 76, 85
3, 22908, Note_off_c, 2, 76, 64
3, 22920, Note_on_c, 2, 74, 86
3, 22993, Note_off_c, 2, 74, 64
3, 23040, Note_on_c, 2, 74, 90
3, 23351, Note_off_c, 2, 74, 64
3, 23400, Note_on_c, 2, 74, 80
3, 23635, Note_off_c, 2, 74, 64
3, 23640, Note_on_c, 2, 73, 77
3, 23756, Note_off_c, 2, 73, 64
3, 23760, Note_on_c, 2, 74, 82
3, 24284, Note_off_c, 2, 74, 64
3, 24360, Note_on_c, 2, 74, 79
3, 24600, Note_on_c, 2, 73, 75
3, 24617, Note_off_c, 2, 74, 64
3, 24720, Note_on_c, 2, 74, 85
3, 24723, Note_off_c, 2, 73, 64
3, 24878, Note_off_c, 2, 74, 64
3, 24960, Note_on_c, 2, 83, 86
3, 25076, Note_off_c, 2, 83, 64
3, 25080, Note_on_c, 2, 81, 80
3, 25312, Note_off_c, 2, 81, 64
3, 25320, Note_on_c, 2, 79, 86
3, 25553, Note_off_c, 2, 79, 64
3, 25560, Note_on_c, 2, 78, 86
3, 25920, Note_on_c, 2, 76, 78
3, 25939, Note_off_c, 2, 78, 64
3, 26778, Note_off_c, 2, 76, 64
3, 26880, Note_on_c, 2, 74, 86
3, 27736, Note_off_c, 2, 74, 64
3, 35160, Note_on_c, 2, 62, 78
3, 35280, Note_on_c, 2, 64, 79
3, 35400, Note_on_c, 2, 67, 90
3, 35512, Note_off_c, 2, 62, 64
3, 35522, Note_off_c, 2, 64, 64
3, 36480, Note_off_c, 2, 67, 64
3, 42240, Note_on_c, 2, 81, 86
3, 42575, Note_off_c, 2, 81, 64
3, 42600, Note_on_c, 2, 76, 92
3, 43200, Note_on_c, 2, 74, 83
3, 43207, Note_off_c, 2, 76, 64
3, 43526, Note_off_c, 2, 74, 64
3, 43560, Note_on_c, 2, 76, 97
3, 43800, Note_on_c, 2, 78, 75
3, 43808, Note_off_c, 2, 76, 64
3, 43893, Note_off_c, 2, 78, 64
3, 43920, Note_on_c, 2, 79, 86
3, 44160, Note_on_c, 2, 81, 86
3, 44162, Note_off_c, 2, 79, 64
3, 44520, Note_on_c, 2, 76, 88
3, 44529, Note_off_c, 2, 81, 64
3, 45093, Note_off_c, 2, 76, 64
3, 45120, Note_on_c, 2, 74, 86
3, 45477, Note_off_c, 2, 74, 64
3, 45480, Note_on_c, 2, 76, 100
3, 45720, Note_on_c, 2, 78, 84
3, 45740, Note_off_c, 2, 76, 64
3, 45833, Note_off_c, 2, 78, 64
3, 45840, Note_on_c, 2, 76, 85
3, 45948, Note_off_c, 2, 76, 64
3, 45960, Note_on_c, 2, 74, 86
3, 46033, Note_off_c, 2, 74, 64
3, 46080, Note_on_c, 2, 74, 90
3, 46391, Note_off_c, 2, 74, 64
3, 46440, Note_on_c, 2, 74, 80
3, 46675, Note_off_c, 2, 74, 64
3, 46680, Note_on_c, 2, 73, 77
3, 46796, Note_off_c, 2, 73, 64
3, 46800, Note_on_c, 2, 74, 82
3, 47324, Note_off_c, 2, 74, 64
3, 47400, Note_on_c, 2, 74, 79
3, 47640, Note_on_c, 2, 73, 75
3, 47657, Note_off_c, 2, 74, 64
3, 47760, Note_on_c, 2, 74, 85
3, 47763, Note_off_c, 2, 73, 64
3, 47918, Note_off_c, 2, 74, 64
3, 48000, Note_on_c, 2, 83, 86
3, 48116, Note_off_c, 2, 83, 64
3, 48120, Note_on_c, 2, 81, 80
3, 48352, Note_off_c, 2, 81, 64
3, 48360, Note_on_c, 2, 79, 86
3, 48593, Note_off_c, 2, 79, 64
3, 48600, Note_on_c, 2, 78, 86
3, 48960, Note_on_c, 2, 76, 78
3, 48979, Note_off_c, 2, 78, 64
3, 49818, Note_off_c, 2, 76, 64
3, 49920, Note_on_c, 2, 74, 86
3, 50776, Note_off_c, 2, 74, 64
3, 58560, Note_on_c, 2, 83, 86
3, 58895, Note_off_c, 2, 83, 64
3, 58920, Note_on_c, 2, 78, 92
3, 59520, Note_on_c, 2, 76, 83
3, 59527, Note_off_c, 2, 78, 64
3, 59846, Note_off_c, 2, 76, 64
3, 59880, Note_on_c, 2, 78, 97
3, 60120, Note_on_c, 2, 80, 75
3, 60128, Note_off_c, 2, 78, 64
3, 60213, Note_off_c, 2, 80, 64
3, 60240, Note_on_c, 2, 81, 86
3, 60480, Note_on_c, 2, 83, 86
3, 60482, Note_off_c, 2, 81, 64
3, 60840, Note_on_c, 2, 78, 88
3, 60849, Note_off_c, 2, 83, 64
3, 61413, Note_off_c, 2, 78, 64
3, 61440, Note_on_c, 2, 76, 86
3, 61797, Note_off_c, 2, 76, 64
3, 61800, Note_on_c, 2, 78, 100
3, 62040, Note_on_c, 2, 80, 84
3, 62060, Note_off_c, 2, 78, 64
3, 62153, Note_off_c, 2, 80, 64
3, 62160, Note_on_c, 2, 78, 85
3, 62268, Note_off_c, 2, 78, 64
3, 62280, Note_on_c, 2, 76, 86
3, 62353, Note_off_c, 2, 76, 64
3, 62400, Note_on_c, 2, 76, 90
3, 62711, Note_off_c, 2, 76, 64
3, 62760, Note_on_c, 2, 76, 80
3, 62995, Note_off_c, 2, 76, 64
3, 63000, Note_on_c, 2, 75, 77
3, 63116, Note_off_c, 2, 75, 64
3, 63120, Note_on_c, 2, 76, 82
3, 63644, Note_off_c, 2, 76, 64
3, 63720, Note_on_c, 2, 76, 79
3, 63960, Note_on_c, 2, 75, 75
3, 63977, Note_off_c, 2, 76, 64
3, 64080, Note_on_c, 2, 76, 85
3, 64083, Note_off_c, 2, 75, 64
3, 64238, Note_off_c, 2, 76, 64
3, 64320, Note_on_c, 2, 85, 86
3, 64436, Note_off_c, 2, 85, 64
3, 64440, Note_on_c, 2, 83, 80
3, 64672, Note_off_c, 2, 83, 64
3, 64680, Note_on_c, 2, 81, 86
3, 64913, Note_off_c, 2, 81, 64
3, 64920, Note_on_c, 2, 80, 86
3, 65280, Note_on_c, 2, 78, 78
3, 65299, Note_off_c, 2, 80, 64
3, 66138, Note_off_c, 2, 78, 64
3, 66240, Note_on_c, 2, 76, 90
3, 66551, Note_off_c, 2, 76, 64
3, 66600, Note_on_c, 2, 76, 80
3, 66835, Note_off_c, 2, 76, 64
3, 66840, Note_on_c, 2, 75, 77
3, 66956, Note_off_c, 2, 75, 64
3, 66960, Note_on_c, 2, 76, 82
3, 67484, Note_off_c, 2, 76, 64
3, 67560, Note_on_c, 2, 76, 79
3, 67800, Note_on_c, 2, 75, 75
3, 67817, Note_off_c, 2, 76, 64
3, 67920, Note_on_c, 2, 76, 85
3, 67923, Note_off_c, 2, 75, 64
3, 68078, Note_off_c, 2, 76, 64
3, 68160, Note_on_c, 2, 85, 86
3, 68276, Note_off_c, 2, 85, 64
3, 68280, Note_on_c, 2, 83, 80
3, 68512, Note_off_c, 2, 83, 64
3, 68520, Note_on_c, 2, 81, 86
3, 68753, Note_off_c, 2, 81, 64
3, 68760, Note_on_c, 2, 80, 86
3, 69120, Note_on_c, 2, 78, 78
3, 69139, Note_off_c, 2, 80, 64
3, 69978, Note_off_c, 2, 78, 64
3, 71040, Note_on_c, 2, 83, 86
3, 71375, Note_off_c, 2, 83, 64
3, 71400, Note_on_c, 2, 78, 92
3, 72000, Note_on_c, 2, 76, 83
3, 72007, Note_off_c, 2, 78, 64
3, 72326, Note_off_c, 2, 76, 64
3, 72360, Note_on_c, 2, 78, 97
3, 72600, Note_on_c, 2, 80, 75
3, 72608, Note_off_c, 2, 78, 64
3, 72693, Note_off_c, 2, 80, 64
3, 72720, Note_on_c, 2, 81, 86
3, 72960, Note_off_c, 2, 81, 64
3, 72960, Note_on_c, 2, 83, 86
3, 72960, Note_on_c, 2, 81, 86
3, 72962, Note_off_c, 2, 81, 64
3, 73320, Note_on_c, 2, 78, 88
3, 73329, Note_off_c, 2, 83, 64
3, 73893, Note_off_c, 2, 78, 64
3, 73920, Note_on_c, 2, 76, 86
3, 74277, Note_off_c, 2, 76, 64
3, 74280, Note_on_c, 2, 78, 100
3, 74520, Note_on_c, 2, 80, 84
3, 74540, Note_off_c, 2, 78, 64
3, 74633, Note_off_c, 2, 80, 64
3, 74640, Note_on_c, 2, 78, 85
3, 74748, Note_off_c, 2, 78, 64
3, 74760, Note_on_c, 2, 76, 86
3, 74833, Note_off_c, 2, 76, 64
3, 74880, Note_on_c, 2, 76, 90
3, 75191, Note_off_c, 2, 76, 64
3, 75240, Note_on_c, 2, 76, 80
3, 75475, Note_off_c, 2, 76, 64
3, 75480, Note_on_c, 2, 75, 77
3, 75596, Note_off_c, 2, 75, 64
3, 75600, Note_on_c, 2, 76, 82
3, 76124, Note_off_c, 2, 76, 64
3, 76200, Note_on_c, 2, 76, 79
3, 76440, Note_on_c, 2, 75, 75
3, 76457, Note_off_c, 2, 76, 64
3, 76560, Note_on_c, 2, 76, 85
3, 76563, Note_off_c, 2, 75, 64
3, 76718, Note_off_c, 2, 76, 64
3, 76800, Note_on_c, 2, 85, 86
3, 76916, Note_off_c, 2, 85, 64
3, 76920, Note_on_c, 2, 83, 80
3, 77152, Note_off_c, 2, 83, 64
3, 77160, Note_on_c, 2, 81, 86
3, 77393, Note_off_c, 2, 81, 64
3, 77400, Note_on_c, 2, 80, 86
3, 77760, Note_on_c, 2, 78, 78
3, 77779, Note_off_c, 2, 80, 64
3, 78618, Note_off_c, 2, 78, 64
3, 78720, Note_on_c, 2, 83, 86
3, 79055, Note_off_c, 2, 83, 64
3, 79080, Note_on_c, 2, 78, 92
3, 79680, Note_on_c, 2, 76, 83
3, 79687, Note_off_c, 2, 78, 64
3, 80006, Note_off_c, 2, 76, 64
3, 80040, Note_on_c, 2, 78, 97
3, 80280, Note_on_c, 2, 80, 75
3, 80288, Note_off_c, 2, 78, 64
3, 80373, Note_off_c, 2, 80, 64
3, 80400, Note_on_c, 2, 81, 86
3, 80640, Note_off_c, 2, 81, 64
3, 80640, Note_on_c, 2, 83, 86
3, 80640, Note_on_c, 2, 81, 86
3, 80642, Note_off_c, 2, 81, 64
3, 81000, Note_on_c, 2, 78, 88
3, 81009, Note_off_c, 2, 83, 64
3, 81573, Note_off_c, 2, 78, 64
3, 81600, Note_on_c, 2, 76, 86
3, 81957, Note_off_c, 2, 76, 64
3, 81960, Note_on_c, 2, 78, 100
3, 82200, Note_on_c, 2, 80, 84
3, 82220, Note_off_c, 2, 78, 64
3, 82313, Note_off_c, 2, 80, 64
3, 82320, Note_on_c, 2, 78, 85
3, 82428, Note_off_c, 2, 78, 64
3, 82440, Note_on_c, 2, 76, 86
3, 82513, Note_off_c, 2, 76, 64
3, 82560, Note_on_c, 2, 76, 90
3, 82871, Note_off_c, 2, 76, 64
3, 82920, Note_on_c, 2, 76, 80
3, 83155, Note_off_c, 2, 76, 64
3, 83160, Note_on_c, 2, 75, 77
3, 83276, Note_off_c, 2, 75, 64
3, 83280, Note_on_c, 2, 76, 82
3, 83804, Note_off_c, 2, 76, 64
3, 83880, Note_on_c, 2, 76, 79
3, 84120, Note_on_c, 2, 75, 75
3, 84137, Note_off_c, 2, 76, 64
3, 84240, Note_on_c, 2, 76, 85
3, 84243, Note_off_c, 2, 75, 64
3, 84398, Note_off_c, 2, 76, 64
3, 84480, Note_on_c, 2, 85, 86
3, 84596, Note_off_c, 2, 85, 64
3, 84600, Note_on_c, 2, 83, 80
3, 84832, Note_off_c, 2, 83, 64
3, 84840, Note_on_c, 2, 81, 86
3, 85073, Note_off_c, 2, 81, 64
3, 85080, Note_on_c, 2, 80, 86
3, 85440, Note_on_c, 2, 66, 81
3, 85608, Note_off_c, 2, 66, 64
3, 85620, Note_on_c, 2, 66, 66
3, 85781, Note_off_c, 2, 66, 64
3, 85800, Note_on_c, 2, 66, 71
3, 86036, Note_off_c, 2, 66, 64
3, 86040, Note_on_c, 2, 68, 86
3, 86156, Note_off_c, 2, 68, 64
3, 86160, Note_on_c, 2, 66, 86
3, 86265, Note_off_c, 2, 66, 64
3, 86280, Note_on_c, 2, 64, 72
3, 86400, Note_off_c, 2, 64, 64
3, 86400, Note_on_c, 2, 66, 81
3, 86568, Note_off_c, 2, 66, 64
3, 86580, Note_on_c, 2, 66, 66
3, 86741, Note_off_c, 2, 66, 64
3, 86760, Note_on_c, 2, 66, 71
3, 86996, Note_off_c, 2, 66, 64
3, 87000, Note_on_c, 2, 68, 86
3, 87116, Note_off_c, 2, 68, 64
3, 87120, Note_on_c, 2, 66, 86
3, 87225, Note_off_c, 2, 66, 64
3, 87240, Note_on_c, 2, 64, 72
3, 87360, Note_on_c, 2, 71, 83
3, 87363, Note_off_c, 2, 64, 64
3, 87540, Note_on_c, 2, 78, 92
3, 87567, Note_off_c, 2, 71, 64
3, 87685, Note_off_c, 2, 78, 64
3, 87720, Note_on_c, 2, 78, 84
3, 87952, Note_off_c, 2, 78, 64
3, 88076, Note_off_c, 2, 80, 64
3, 88080, Note_on_c, 2, 78, 86
3, 88200, Note_on_c, 2, 76, 80
3, 88211, Note_off_c, 2, 78, 64
3, 88320, Note_off_c, 2, 76, 64
3, 88320, Note_on_c, 2, 73, 79
3, 88663, Note_off_c, 2, 73, 64
3, 88680, Note_on_c, 2, 71, 73
3, 89100, Note_on_c, 2, 64, 76
3, 89104, Note_off_c, 2, 71, 64
3, 89280, Note_on_c, 2, 66, 77
3, 89284, Note_off_c, 2, 64, 64
3, 89442, Note_off_c, 2, 66, 64
3, 89460, Note_on_c, 2, 71, 80
3, 89640, Note_on_c, 2, 68, 79
3, 89649, Note_off_c, 2, 71, 64
3, 90225, Note_off_c, 2, 68, 64
3, 90240, Note_on_c, 2, 73, 79
3, 90582, Note_off_c, 2, 73, 64
3, 90600, Note_on_c, 2, 71, 66
3, 91016, Note_off_c, 2, 71, 64
3, 91020, Note_on_c, 2, 64, 71
3, 91188, Note_off_c, 2, 64, 64
3, 91200, Note_on_c, 2, 66, 71
3, 91380, Note_on_c, 2, 71, 82
3, 91384, Note_off_c, 2, 66, 64
3, 91550, Note_off_c, 2, 71, 64
3, 91560, Note_on_c, 2, 68, 77
3, 92030, Note_off_c, 2, 68, 64
3, 92040, Note_on_c, 2, 71, 80
3, 92160, Note_on_c, 2, 73, 71
3, 92173, Note_off_c, 2, 71, 64
3, 92466, Note_off_c, 2, 73, 64
3, 92520, Note_on_c, 2, 71, 75
3, 92928, Note_off_c, 2, 71, 64
3, 92940, Note_on_c, 2, 64, 70
3, 93086, Note_off_c, 2, 64, 64
3, 93120, Note_on_c, 2, 66, 63
3, 93300, Note_off_c, 2, 66, 64
3, 93300, Note_on_c, 2, 71, 78
3, 93480, Note_on_c, 2, 68, 79
3, 93488, Note_off_c, 2, 71, 64
3, 94051, Note_off_c, 2, 68, 64
3, 94080, Note_on_c, 2, 69, 76
3, 94436, Note_off_c, 2, 69, 64
3, 94440, Note_on_c, 2, 68, 84
3, 94920, Note_on_c, 2, 64, 71
3, 94925, Note_off_c, 2, 68, 64
3, 95040, Note_on_c, 2, 66, 79
3, 95049, Note_off_c, 2, 64, 64
3, 95348, Note_off_c, 2, 66, 64
3, 95400, Note_on_c, 2, 66, 84
3, 95640, Note_on_c, 2, 68, 81
3, 95643, Note_off_c, 2, 66, 64
3, 95915, Note_off_c, 2, 68, 64
3, 96000, Note_on_c, 2, 73, 79
3, 96343, Note_off_c, 2, 73, 64
3, 96360, Note_on_c, 2, 71, 73
3, 96780, Note_on_c, 2, 64, 76
3, 96784, Note_off_c, 2, 71, 64
3, 96960, Note_on_c, 2, 66, 77
3, 96964, Note_off_c, 2, 64, 64
3, 97122, Note_off_c, 2, 66, 64
3, 97140, Note_on_c, 2, 71, 80
3, 97320, Note_on_c, 2, 68, 79
3, 97329, Note_off_c, 2, 71, 64
3, 97905, Note_off_c, 2, 68, 64
3, 97920, Note_on_c, 2, 73, 79
3, 98262, Note_off_c, 2, 73, 64
3, 98280, Note_on_c, 2, 71, 66
3, 98696, Note_off_c, 2, 71, 64
3, 98700, Note_on_c, 2, 64, 71
3, 98868, Note_off_c, 2, 64, 64
3, 98880, Note_on_c, 2, 66, 71
3, 99060, Note_on_c, 2, 71, 82
3, 99064, Note_off_c, 2, 66, 64
3, 99230, Note_off_c, 2, 71, 64
3, 99240, Note_on_c, 2, 68, 77
3, 99710, Note_off_c, 2, 68, 64
3, 99720, Note_on_c, 2, 71, 80
3, 99840, Note_on_c, 2, 73, 71
3, 99853, Note_off_c, 2, 71, 64
3, 100146, Note_off_c, 2, 73, 64
3, 100200, Note_on_c, 2, 71, 75
3, 100608, Note_off_c, 2, 71, 64
3, 100620, Note_on_c, 2, 64, 70
3, 100766, Note_off_c, 2, 64, 64
3, 100800, Note_on_c, 2, 66, 63
3, 100980, Note_off_c, 2, 66, 64
3, 100980, Note_on_c, 2, 71, 78
3, 101160, Note_on_c, 2, 68, 79
3, 101168, Note_off_c, 2, 71, 64
3, 101731, Note_off_c, 2, 68, 64
3, 101760, Note_on_c, 2, 69, 76
3, 102116, Note_off_c, 2, 69, 64
3, 102120, Note_on_c, 2, 68, 84
3, 102600, Note_on_c, 2, 64, 71
3, 102605, Note_off_c, 2, 68, 64
3, 102720, Note_on_c, 2, 66, 79
3, 102729, Note_off_c, 2, 64, 64
3, 103028, Note_off_c, 2, 66, 64
3, 103080, Note_on_c, 2, 66, 84
3, 103320, Note_on_c, 2, 68, 81
3, 103323, Note_off_c, 2, 66, 64
3, 103595, Note_off_c, 2, 68, 64
3, 103680, Note_on_c, 2, 64, 90
3, 105416, Note_off_c, 2, 64, 64
3, 105416, End_track
4, 0, Start_track
4, 0, Text_t, "rhodes 2"
4, 960, Note_on_c, 2, 64, 80
4, 1920, Note_on_c, 2, 57, 80
4, 1924, Note_off_c, 2, 64, 64
4, 2040, Note_on_c, 2, 69, 80
4, 2280, Note_on_c, 2, 64, 80
4, 2295, Note_off_c, 2, 69, 64
4, 2520, Note_on_c, 2, 66, 80
4, 2540, Note_off_c, 2, 64, 64
4, 2640, Note_on_c, 2, 64, 80
4, 2647, Note_off_c, 2, 66, 64
4, 2753, Note_off_c, 2, 64, 64
4, 2760, Note_on_c, 2, 62, 80
4, 2879, Note_off_c, 2, 57, 64
4, 2880, Note_on_c, 2, 67, 80
4, 2880, Note_on_c, 2, 52, 80
4, 3000, Note_on_c, 2, 66, 80
4, 3035, Note_off_c, 2, 67, 64
4, 3168, Note_off_c, 2, 66, 64
4, 3240, Note_on_c, 2, 64, 80
4, 3789, Note_off_c, 2, 64, 64
4, 3801, Note_off_c, 2, 62, 64
4, 3814, Note_off_c, 2, 52, 64
4, 3840, Note_on_c, 2, 57, 80
4, 3840, Note_on_c, 2, 62, 80
4, 4800, Note_off_c, 2, 62, 64
4, 4800, Note_off_c, 2, 57, 64
4, 4800, Note_on_c, 2, 59, 69
4, 4800, Note_on_c, 2, 62, 71
4, 4800, Note_on_c, 2, 55, 82
4, 4800, Note_on_c, 2, 66, 57
4, 5204, Control_c, 2, 64, 127
4, 5272, Note_off_c, 2, 55, 64
4, 5285, Note_off_c, 2, 66, 64
4, 5285, Note_off_c, 2, 62, 64
4, 5295, Note_off_c, 2, 59, 64
4, 5760, Note_on_c, 2, 64, 74
4, 5760, Note_on_c, 2, 57, 76
4, 5760, Note_on_c, 2, 61, 75
4, 5790, Control_c, 2, 64, 0
4, 6037, Control_c, 2, 64, 127
4, 6131, Note_off_c, 2, 61, 64
4, 6131, Note_off_c, 2, 64, 64
4, 6139, Note_off_c, 2, 57, 64
4, 6720, Note_on_c, 2, 59, 69
4, 6720, Note_on_c, 2, 62, 74
4, 6720, Note_on_c, 2, 55, 63
4, 6720, Note_on_c, 2, 66, 59
4, 6755, Control_c, 2, 64, 0
4, 6959, Control_c, 2, 64, 127
4, 7011, Note_off_c, 2, 55, 64
4, 7015, Note_off_c, 2, 62, 64
4, 7021, Note_off_c, 2, 59, 64
4, 7022, Note_off_c, 2, 66, 64
4, 7674, Control_c, 2, 64, 0
4, 7680, Note_on_c, 2, 61, 75
4, 7680, Note_on_c, 2, 64, 76
4, 7680, Note_on_c, 2, 57, 72
4, 7770, Control_c, 2, 64, 127
4, 7883, Note_off_c, 2, 61, 64
4, 7886, Note_off_c, 2, 57, 64
4, 7926, Note_off_c, 2, 64, 64
4, 8040, Note_on_c, 2, 69, 79
4, 8063, Note_off_c, 2, 69, 64
4, 8640, Note_on_c, 2, 59, 74
4, 8640, Note_on_c, 2, 62, 74
4, 8640, Note_on_c, 2, 66, 60
4, 8640, Note_on_c, 2, 55, 62
4, 8680, Control_c, 2, 64, 0
4, 8911, Control_c, 2, 64, 127
4, 8965, Note_off_c, 2, 55, 64
4, 8978, Note_off_c, 2, 62, 64
4, 8978, Note_off_c, 2, 59, 64
4, 8981, Note_off_c, 2, 66, 64
4, 9600, Note_on_c, 2, 64, 73
4, 9600, Note_on_c, 2, 57, 71
4, 9600, Note_on_c, 2, 61, 69
4, 9624, Control_c, 2, 64, 0
4, 9872, Control_c, 2, 64, 127
4, 10233, Note_off_c, 2, 64, 64
4, 10234, Note_off_c, 2, 61, 64
4, 10237, Note_off_c, 2, 57, 64
4, 10560, Note_on_c, 2, 61, 75
4, 10560, Note_on_c, 2, 57, 76
4, 10560, Note_on_c, 2, 64, 74
4, 10580, Control_c, 2, 64, 0
4, 10862, Note_off_c, 2, 64, 64
4, 10868, Note_off_c, 2, 61, 64
4, 10920, Note_on_c, 2, 62, 82
4, 10920, Note_on_c, 2, 66, 77
4, 11478, Note_off_c, 2, 57, 64
4, 11482, Note_off_c, 2, 66, 64
4, 11486, Note_off_c, 2, 62, 64
4, 11520, Note_on_c, 2, 57, 73
4, 11520, Note_on_c, 2, 64, 80
4, 11520, Note_on_c, 2, 61, 69
4, 12425, Note_off_c, 2, 61, 64
4, 12429, Note_off_c, 2, 64, 64
4, 12429, Note_off_c, 2, 57, 64
4, 12480, Note_on_c, 2, 59, 82
4, 12480, Note_on_c, 2, 55, 76
4, 12480, Note_on_c, 2, 62, 71
4, 12761, Control_c, 2, 64, 127
4, 12888, Note_off_c, 2, 59, 64
4, 12889, Note_off_c, 2, 62, 64
4, 12903, Note_off_c, 2, 55, 64
4, 13440, Note_on_c, 2, 64, 70
4, 13440, Note_on_c, 2, 57, 61
4, 13440, Note_on_c, 2, 59, 66
4, 13447, Note_on_c, 2, 61, 56
4, 13476, Control_c, 2, 64, 0
4, 13743, Control_c, 2, 64, 127
4, 13845, Note_off_c, 2, 61, 64
4, 13850, Note_off_c, 2, 64, 64
4, 13855, Note_off_c, 2, 59, 64
4, 13858, Note_off_c, 2, 57, 64
4, 14051, Note_on_c, 2, 62, 83
4, 14079, Note_off_c, 2, 62, 64
4, 14386, Note_on_c, 2, 67, 71
4, 14387, Note_on_c, 2, 59, 75
4, 14387, Note_on_c, 2, 55, 66
4, 14387, Note_on_c, 2, 62, 72
4, 14404, Control_c, 2, 64, 0
4, 14651, Control_c, 2, 64, 127
4, 14710, Note_off_c, 2, 62, 64
4, 14710, Note_off_c, 2, 59, 64
4, 14720, Note_off_c, 2, 55, 64
4, 14723, Note_off_c, 2, 67, 64
4, 15356, Note_on_c, 2, 57, 72
4, 15356, Note_on_c, 2, 65, 76
4, 15356, Note_on_c, 2, 60, 80
4, 15370, Control_c, 2, 64, 0
4, 15535, Control_c, 2, 64, 127
4, 15724, Note_off_c, 2, 60, 64
4, 15729, Note_off_c, 2, 65, 64
4, 15736, Note_off_c, 2, 57, 64
4, 16336, Note_on_c, 2, 59, 74
4, 16336, Note_on_c, 2, 67, 72
4, 16336, Note_on_c, 2, 62, 75
4, 16341, Note_on_c, 2, 55, 69
4, 16360, Control_c, 2, 64, 0
4, 16529, Control_c, 2, 64, 127
4, 16778, Note_off_c, 2, 62, 64
4, 16786, Note_off_c, 2, 59, 64
4, 16794, Note_off_c, 2, 67, 64
4, 16800, Note_off_c, 2, 55, 64
4, 16934, Note_on_c, 2, 60, 88
4, 16957, Note_off_c, 2, 60, 64
4, 17282, Note_on_c, 2, 62, 74
4, 17282, Note_on_c, 2, 67, 74
4, 17282, Note_on_c, 2, 59, 68
4, 17310, Control_c, 2, 64, 0
4, 17509, Control_c, 2, 64, 127
4, 18082, Note_off_c, 2, 59, 64
4, 18122, Note_off_c, 2, 62, 64
4, 18126, Note_on_c, 2, 59, 72
4, 18137, Note_off_c, 2, 67, 64
4, 18154, Note_off_c, 2, 59, 64
4, 18248, Note_on_c, 2, 67, 78
4, 18248, Note_on_c, 2, 59, 82
4, 18248, Note_on_c, 2, 62, 82
4, 18262, Control_c, 2, 64, 0
4, 18415, Control_c, 2, 64, 127
4, 18629, Note_off_c, 2, 59, 64
4, 18708, Note_on_c, 2, 59, 59
4, 18759, Note_off_c, 2, 62, 64
4, 18837, Note_on_c, 2, 62, 66
4, 18844, Note_off_c, 2, 67, 64
4, 18948, Note_on_c, 2, 67, 99
4, 19028, Note_off_c, 2, 67, 64
4, 19040, Note_off_c, 2, 62, 64
4, 19040, Note_off_c, 2, 59, 64
4, 19188, Control_c, 2, 64, 1
4, 19200, Note_on_c, 2, 59, 74
4, 19200, Note_on_c, 2, 62, 76
4, 19200, Note_on_c, 2, 55, 70
4, 19494, Note_off_c, 2, 55, 64
4, 19495, Note_off_c, 2, 59, 64
4, 19499, Note_off_c, 2, 62, 64
4, 19560, Note_on_c, 2, 64, 82
4, 19560, Note_on_c, 2, 61, 73
4, 19560, Note_on_c, 2, 57, 66
4, 20113, Note_off_c, 2, 64, 64
4, 20119, Note_off_c, 2, 61, 64
4, 20140, Note_off_c, 2, 57, 64
4, 20160, Note_on_c, 2, 66, 69
4, 20160, Note_on_c, 2, 57, 66
4, 20160, Note_on_c, 2, 62, 78
4, 20453, Note_off_c, 2, 66, 64
4, 20457, Note_off_c, 2, 62, 64
4, 20476, Note_off_c, 2, 57, 64
4, 20520, Note_on_c, 2, 61, 66
4, 20520, Note_on_c, 2, 57, 69
4, 20520, Note_on_c, 2, 64, 69
4, 21060, Note_off_c, 2, 57, 64
4, 21061, Note_off_c, 2, 61, 64
4, 21071, Note_off_c, 2, 64, 64
4, 21120, Note_on_c, 2, 55, 68
4, 21120, Note_on_c, 2, 59, 72
4, 21120, Note_on_c, 2, 62, 66
4, 21402, Note_off_c, 2, 59, 64
4, 21402, Note_off_c, 2, 55, 64
4, 21412, Note_off_c, 2, 62, 64
4, 21480, Note_on_c, 2, 64, 75
4, 21480, Note_on_c, 2, 57, 66
4, 21480, Note_on_c, 2, 61, 73
4, 22034, Note_off_c, 2, 64, 64
4, 22040, Note_off_c, 2, 61, 64
4, 22046, Note_off_c, 2, 57, 64
4, 22080, Note_on_c, 2, 66, 73
4, 22080, Note_on_c, 2, 62, 74
4, 22080, Note_on_c, 2, 57, 66
4, 22343, Note_off_c, 2, 66, 64
4, 22348, Note_off_c, 2, 62, 64
4, 22359, Note_off_c, 2, 57, 64
4, 22440, Note_on_c, 2, 64, 75
4, 22440, Note_on_c, 2, 61, 71
4, 22440, Note_on_c, 2, 57, 62
4, 22973, Note_off_c, 2, 61, 64
4, 22979, Note_off_c, 2, 64, 64
4, 22988, Note_off_c, 2, 57, 64
4, 23040, Note_on_c, 2, 55, 65
4, 23040, Note_on_c, 2, 59, 70
4, 23040, Note_on_c, 2, 62, 72
4, 23325, Note_off_c, 2, 55, 64
4, 23332, Note_off_c, 2, 59, 64
4, 23337, Note_off_c, 2, 62, 64
4, 23400, Note_on_c, 2, 64, 71
4, 23400, Note_on_c, 2, 61, 69
4, 23400, Note_on_c, 2, 57, 63
4, 23935, Note_off_c, 2, 64, 64
4, 23939, Note_off_c, 2, 61, 64
4, 23949, Note_off_c, 2, 57, 64
4, 24000, Note_on_c, 2, 57, 63
4, 24000, Note_on_c, 2, 62, 68
4, 24000, Note_on_c, 2, 66, 63
4, 24278, Note_off_c, 2, 62, 64
4, 24282, Note_off_c, 2, 66, 64
4, 24292, Note_off_c, 2, 57, 64
4, 24360, Note_on_c, 2, 64, 66
4, 24360, Note_on_c, 2, 61, 73
4, 24360, Note_on_c, 2, 57, 66
4, 24888, Note_off_c, 2, 61, 64
4, 24892, Note_off_c, 2, 57, 64
4, 24902, Note_off_c, 2, 64, 64
4, 24960, Note_on_c, 2, 67, 82
4, 24960, Note_on_c, 2, 71, 88
4, 24960, Note_on_c, 2, 62, 74
4, 25051, Note_off_c, 2, 71, 64
4, 25051, Note_off_c, 2, 67, 64
4, 25080, Note_on_c, 2, 66, 77
4, 25080, Note_on_c, 2, 69, 85
4, 25248, Note_off_c, 2, 66, 64
4, 25258, Note_off_c, 2, 69, 64
4, 25273, Note_off_c, 2, 62, 64
4, 25320, Note_on_c, 2, 62, 78
4, 25320, Note_on_c, 2, 59, 62
4, 25320, Note_on_c, 2, 67, 86
4, 25512, Note_off_c, 2, 59, 64
4, 25516, Note_off_c, 2, 62, 64
4, 25517, Note_off_c, 2, 67, 64
4, 25560, Note_on_c, 2, 57, 78
4, 25560, Note_on_c, 2, 66, 77
4, 25560, Note_on_c, 2, 62, 71
4, 25827, Note_off_c, 2, 66, 64
4, 25840, Note_off_c, 2, 57, 64
4, 25845, Note_off_c, 2, 62, 64
4, 25920, Note_on_c, 2, 64, 67
4, 25920, Note_on_c, 2, 57, 64
4, 25920, Note_on_c, 2, 62, 67
4, 26797, Note_off_c, 2, 57, 64
4, 26806, Note_off_c, 2, 62, 64
4, 26808, Note_off_c, 2, 64, 64
4, 26880, Note_on_c, 2, 52, 46
4, 26880, Note_on_c, 2, 54, 46
4, 26880, Note_on_c, 2, 62, 66
4, 26880, Note_on_c, 2, 57, 66
4, 27770, Note_off_c, 2, 52, 64
4, 27776, Note_off_c, 2, 54, 64
4, 27786, Note_off_c, 2, 57, 64
4, 27787, Note_off_c, 2, 62, 64
4, 27840, Note_on_c, 2, 59, 69
4, 27840, Note_on_c, 2, 62, 71
4, 27840, Note_on_c, 2, 55, 82
4, 27840, Note_on_c, 2, 66, 57
4, 28244, Control_c, 2, 64, 127
4, 28312, Note_off_c, 2, 55, 64
4, 28325, Note_off_c, 2, 66, 64
4, 28325, Note_off_c, 2, 62, 64
4, 28335, Note_off_c, 2, 59, 64
4, 28800, Note_on_c, 2, 64, 74
4, 28800, Note_on_c, 2, 57, 76
4, 28800, Note_on_c, 2, 61, 75
4, 28830, Control_c, 2, 64, 0
4, 29077, Control_c, 2, 64, 127
4, 29171, Note_off_c, 2, 61, 64
4, 29171, Note_off_c, 2, 64, 64
4, 29179, Note_off_c, 2, 57, 64
4, 29760, Note_on_c, 2, 59, 69
4, 29760, Note_on_c, 2, 62, 74
4, 29760, Note_on_c, 2, 55, 63
4, 29760, Note_on_c, 2, 66, 59
4, 29795, Control_c, 2, 64, 0
4, 29999, Control_c, 2, 64, 127
4, 30051, Note_off_c, 2, 55, 64
4, 30055, Note_off_c, 2, 62, 64
4, 30061, Note_off_c, 2, 59, 64
4, 30062, Note_off_c, 2, 66, 64
4, 30714, Control_c, 2, 64, 0
4, 30720, Note_on_c, 2, 61, 75
4, 30720, Note_on_c, 2, 64, 76
4, 30720, Note_on_c, 2, 57, 72
4, 30810, Control_c, 2, 64, 127
4, 30923, Note_off_c, 2, 61, 64
4, 30926, Note_off_c, 2, 57, 64
4, 30966, Note_off_c, 2, 64, 64
4, 31080, Note_on_c, 2, 69, 79
4, 31103, Note_off_c, 2, 69, 64
4, 31680, Note_on_c, 2, 59, 74
4, 31680, Note_on_c, 2, 62, 74
4, 31680, Note_on_c, 2, 66, 60
4, 31680, Note_on_c, 2, 55, 62
4, 31720, Control_c, 2, 64, 0
4, 31951, Control_c, 2, 64, 127
4, 32005, Note_off_c, 2, 55, 64
4, 32018, Note_off_c, 2, 62, 64
4, 32018, Note_off_c, 2, 59, 64
4, 32021, Note_off_c, 2, 66, 64
4, 32640, Note_on_c, 2, 64, 73
4, 32640, Note_on_c, 2, 57, 71
4, 32640, Note_on_c, 2, 61, 69
4, 32664, Control_c, 2, 64, 0
4, 32912, Control_c, 2, 64, 127
4, 33273, Note_off_c, 2, 64, 64
4, 33274, Note_off_c, 2, 61, 64
4, 33277, Note_off_c, 2, 57, 64
4, 33600, Note_on_c, 2, 61, 75
4, 33600, Note_on_c, 2, 57, 76
4, 33600, Note_on_c, 2, 64, 74
4, 33620, Control_c, 2, 64, 0
4, 33902, Note_off_c, 2, 64, 64
4, 33908, Note_off_c, 2, 61, 64
4, 33960, Note_on_c, 2, 62, 82
4, 33960, Note_on_c, 2, 66, 77
4, 34518, Note_off_c, 2, 57, 64
4, 34522, Note_off_c, 2, 66, 64
4, 34526, Note_off_c, 2, 62, 64
4, 34560, Note_on_c, 2, 57, 73
4, 34560, Note_on_c, 2, 64, 80
4, 34560, Note_on_c, 2, 61, 69
4, 35465, Note_off_c, 2, 61, 64
4, 35469, Note_off_c, 2, 64, 64
4, 35469, Note_off_c, 2, 57, 64
4, 35520, Note_on_c, 2, 59, 82
4, 35520, Note_on_c, 2, 55, 76
4, 35520, Note_on_c, 2, 62, 71
4, 35801, Control_c, 2, 64, 127
4, 35928, Note_off_c, 2, 59, 64
4, 35929, Note_off_c, 2, 62, 64
4, 35943, Note_off_c, 2, 55, 64
4, 36480, Note_on_c, 2, 64, 70
4, 36480, Note_on_c, 2, 57, 61
4, 36480, Note_on_c, 2, 59, 66
4, 36487, Note_on_c, 2, 61, 56
4, 36516, Control_c, 2, 64, 0
4, 36783, Control_c, 2, 64, 127
4, 36885, Note_off_c, 2, 61, 64
4, 36890, Note_off_c, 2, 64, 64
4, 36895, Note_off_c, 2, 59, 64
4, 36898, Note_off_c, 2, 57, 64
4, 37091, Note_on_c, 2, 62, 83
4, 37119, Note_off_c, 2, 62, 64
4, 37426, Note_on_c, 2, 67, 71
4, 37427, Note_on_c, 2, 59, 75
4, 37427, Note_on_c, 2, 55, 66
4, 37427, Note_on_c, 2, 62, 72
4, 37444, Control_c, 2, 64, 0
4, 37691, Control_c, 2, 64, 127
4, 37750, Note_off_c, 2, 62, 64
4, 37750, Note_off_c, 2, 59, 64
4, 37760, Note_off_c, 2, 55, 64
4, 37763, Note_off_c, 2, 67, 64
4, 38396, Note_on_c, 2, 57, 72
4, 38396, Note_on_c, 2, 65, 76
4, 38396, Note_on_c, 2, 60, 80
4, 38410, Control_c, 2, 64, 0
4, 38575, Control_c, 2, 64, 127
4, 38764, Note_off_c, 2, 60, 64
4, 38769, Note_off_c, 2, 65, 64
4, 38776, Note_off_c, 2, 57, 64
4, 39376, Note_on_c, 2, 59, 74
4, 39376, Note_on_c, 2, 67, 72
4, 39376, Note_on_c, 2, 62, 75
4, 39381, Note_on_c, 2, 55, 69
4, 39400, Control_c, 2, 64, 0
4, 39569, Control_c, 2, 64, 127
4, 39818, Note_off_c, 2, 62, 64
4, 39826, Note_off_c, 2, 59, 64
4, 39834, Note_off_c, 2, 67, 64
4, 39840, Note_off_c, 2, 55, 64
4, 39974, Note_on_c, 2, 60, 88
4, 39997, Note_off_c, 2, 60, 64
4, 40322, Note_on_c, 2, 62, 74
4, 40322, Note_on_c, 2, 67, 74
4, 40322, Note_on_c, 2, 59, 68
4, 40350, Control_c, 2, 64, 0
4, 40549, Control_c, 2, 64, 127
4, 41122, Note_off_c, 2, 59, 64
4, 41162, Note_off_c, 2, 62, 64
4, 41166, Note_on_c, 2, 59, 72
4, 41177, Note_off_c, 2, 67, 64
4, 41194, Note_off_c, 2, 59, 64
4, 41288, Note_on_c, 2, 67, 78
4, 41288, Note_on_c, 2, 59, 82
4, 41288, Note_on_c, 2, 62, 82
4, 41302, Control_c, 2, 64, 0
4, 41455, Control_c, 2, 64, 127
4, 41669, Note_off_c, 2, 59, 64
4, 41748, Note_on_c, 2, 59, 59
4, 41799, Note_off_c, 2, 62, 64
4, 41877, Note_on_c, 2, 62, 66
4, 41884, Note_off_c, 2, 67, 64
4, 41988, Note_on_c, 2, 67, 99
4, 42068, Note_off_c, 2, 67, 64
4, 42080, Note_off_c, 2, 62, 64
4, 42080, Note_off_c, 2, 59, 64
4, 42228, Control_c, 2, 64, 1
4, 42240, Note_on_c, 2, 59, 74
4, 42240, Note_on_c, 2, 62, 76
4, 42240, Note_on_c, 2, 55, 70
4, 42534, Note_off_c, 2, 55, 64
4, 42535, Note_off_c, 2, 59, 64
4, 42539, Note_off_c, 2, 62, 64
4, 42600, Note_on_c, 2, 64, 82
4, 42600, Note_on_c, 2, 61, 73
4, 42600, Note_on_c, 2, 57, 66
4, 43153, Note_off_c, 2, 64, 64
4, 43159, Note_off_c, 2, 61, 64
4, 43180, Note_off_c, 2, 57, 64
4, 43200, Note_on_c, 2, 66, 69
4, 43200, Note_on_c, 2, 57, 66
4, 43200, Note_on_c, 2, 62, 78
4, 43493, Note_off_c, 2, 66, 64
4, 43497, Note_off_c, 2, 62, 64
4, 43516, Note_off_c, 2, 57, 64
4, 43560, Note_on_c, 2, 61, 66
4, 43560, Note_on_c, 2, 57, 69
4, 43560, Note_on_c, 2, 64, 69
4, 44100, Note_off_c, 2, 57, 64
4, 44101, Note_off_c, 2, 61, 64
4, 44111, Note_off_c, 2, 64, 64
4, 44160, Note_on_c, 2, 55, 68
4, 44160, Note_on_c, 2, 59, 72
4, 44160, Note_on_c, 2, 62, 66
4, 44442, Note_off_c, 2, 59, 64
4, 44442, Note_off_c, 2, 55, 64
4, 44452, Note_off_c, 2, 62, 64
4, 44520, Note_on_c, 2, 64, 75
4, 44520, Note_on_c, 2, 57, 66
4, 44520, Note_on_c, 2, 61, 73
4, 45074, Note_off_c, 2, 64, 64
4, 45080, Note_off_c, 2, 61, 64
4, 45086, Note_off_c, 2, 57, 64
4, 45120, Note_on_c, 2, 66, 73
4, 45120, Note_on_c, 2, 62, 74
4, 45120, Note_on_c, 2, 57, 66
4, 45383, Note_off_c, 2, 66, 64
4, 45388, Note_off_c, 2, 62, 64
4, 45399, Note_off_c, 2, 57, 64
4, 45480, Note_on_c, 2, 64, 75
4, 45480, Note_on_c, 2, 61, 71
4, 45480, Note_on_c, 2, 57, 62
4, 46013, Note_off_c, 2, 61, 64
4, 46019, Note_off_c, 2, 64, 64
4, 46028, Note_off_c, 2, 57, 64
4, 46080, Note_on_c, 2, 55, 65
4, 46080, Note_on_c, 2, 59, 70
4, 46080, Note_on_c, 2, 62, 72
4, 46365, Note_off_c, 2, 55, 64
4, 46372, Note_off_c, 2, 59, 64
4, 46377, Note_off_c, 2, 62, 64
4, 46440, Note_on_c, 2, 64, 71
4, 46440, Note_on_c, 2, 61, 69
4, 46440, Note_on_c, 2, 57, 63
4, 46975, Note_off_c, 2, 64, 64
4, 46979, Note_off_c, 2, 61, 64
4, 46989, Note_off_c, 2, 57, 64
4, 47040, Note_on_c, 2, 57, 63
4, 47040, Note_on_c, 2, 62, 68
4, 47040, Note_on_c, 2, 66, 63
4, 47318, Note_off_c, 2, 62, 64
4, 47322, Note_off_c, 2, 66, 64
4, 47332, Note_off_c, 2, 57, 64
4, 47400, Note_on_c, 2, 64, 66
4, 47400, Note_on_c, 2, 61, 73
4, 47400, Note_on_c, 2, 57, 66
4, 47928, Note_off_c, 2, 61, 64
4, 47932, Note_off_c, 2, 57, 64
4, 47942, Note_off_c, 2, 64, 64
4, 48000, Note_on_c, 2, 67, 82
4, 48000, Note_on_c, 2, 71, 88
4, 48000, Note_on_c, 2, 62, 74
4, 48091, Note_off_c, 2, 71, 64
4, 48091, Note_off_c, 2, 67, 64
4, 48120, Note_on_c, 2, 66, 77
4, 48120, Note_on_c, 2, 69, 85
4, 48288, Note_off_c, 2, 66, 64
4, 48298, Note_off_c, 2, 69, 64
4, 48313, Note_off_c, 2, 62, 64
4, 48360, Note_on_c, 2, 62, 78
4, 48360, Note_on_c, 2, 59, 62
4, 48360, Note_on_c, 2, 67, 86
4, 48552, Note_off_c, 2, 59, 64
4, 48556, Note_off_c, 2, 62, 64
4, 48557, Note_off_c, 2, 67, 64
4, 48600, Note_on_c, 2, 57, 78
4, 48600, Note_on_c, 2, 66, 77
4, 48600, Note_on_c, 2, 62, 71
4, 48867, Note_off_c, 2, 66, 64
4, 48880, Note_off_c, 2, 57, 64
4, 48885, Note_off_c, 2, 62, 64
4, 48960, Note_on_c, 2, 64, 67
4, 48960, Note_on_c, 2, 57, 64
4, 48960, Note_on_c, 2, 62, 67
4, 49837, Note_off_c, 2, 57, 64
4, 49846, Note_off_c, 2, 62, 64
4, 49848, Note_off_c, 2, 64, 64
4, 49920, Note_on_c, 2, 52, 46
4, 49920, Note_on_c, 2, 54, 46
4, 49920, Note_on_c, 2, 62, 66
4, 49920, Note_on_c, 2, 57, 66
4, 50810, Note_off_c, 2, 52, 64
4, 50816, Note_off_c, 2, 54, 64
4, 50826, Note_off_c, 2, 57, 64
4, 50827, Note_off_c, 2, 62, 64
4, 50880, Note_on_c, 2, 57, 75
4, 50880, Note_on_c, 2, 65, 82
4, 50880, Note_on_c, 2, 67, 79
4, 50880, Note_on_c, 2, 60, 83
4, 51755, Note_off_c, 2, 65, 64
4, 51760, Note_off_c, 2, 60, 64
4, 51765, Note_off_c, 2, 67, 64
4, 51777, Note_off_c, 2, 57, 64
4, 51840, Note_on_c, 2, 62, 85
4, 51840, Note_on_c, 2, 55, 75
4, 51840, Note_on_c, 2, 60, 85
4, 51840, Note_on_c, 2, 67, 86
4, 52743, Note_off_c, 2, 60, 64
4, 52748, Note_off_c, 2, 62, 64
4, 52760, Note_off_c, 2, 67, 64
4, 52760, Note_off_c, 2, 55, 64
4, 52800, Note_on_c, 2, 57, 79
4, 52800, Note_on_c, 2, 65, 85
4, 52800, Note_on_c, 2, 67, 80
4, 52800, Note_on_c, 2, 60, 85
4, 53710, Note_off_c, 2, 65, 64
4, 53711, Note_off_c, 2, 60, 64
4, 53711, Note_off_c, 2, 67, 64
4, 53719, Note_off_c, 2, 57, 64
4, 53760, Note_on_c, 2, 60, 85
4, 53760, Note_on_c, 2, 62, 86
4, 53760, Note_on_c, 2, 55, 78
4, 53760, Note_on_c, 2, 67, 90
4, 54652, Note_off_c, 2, 62, 64
4, 54652, Note_off_c, 2, 60, 64
4, 54663, Note_off_c, 2, 67, 64
4, 54669, Note_off_c, 2, 55, 64
4, 54720, Note_on_c, 2, 67, 76
4, 54720, Note_on_c, 2, 60, 85
4, 54720, Note_on_c, 2, 65, 75
4, 54720, Note_on_c, 2, 57, 74
4, 55637, Note_off_c, 2, 65, 64
4, 55637, Note_off_c, 2, 60, 64
4, 55637, Note_off_c, 2, 67, 64
4, 55645, Note_off_c, 2, 57, 64
4, 55680, Note_on_c, 2, 60, 88
4, 55680, Note_on_c, 2, 55, 80
4, 55680, Note_on_c, 2, 67, 83
4, 55680, Note_on_c, 2, 62, 88
4, 56544, Note_off_c, 2, 60, 64
4, 56590, Note_off_c, 2, 62, 64
4, 56590, Note_off_c, 2, 67, 64
4, 56618, Note_off_c, 2, 55, 64
4, 56640, Note_on_c, 2, 62, 83
4, 56640, Note_on_c, 2, 57, 83
4, 56640, Note_on_c, 2, 55, 79
4, 56640, Note_on_c, 2, 59, 88
4, 57475, Note_off_c, 2, 59, 64
4, 57484, Note_off_c, 2, 57, 64
4, 57490, Note_off_c, 2, 55, 64
4, 57490, Note_off_c, 2, 62, 64
4, 57600, Note_on_c, 2, 64, 78
4, 57600, Note_on_c, 2, 61, 86
4, 57600, Note_on_c, 2, 57, 82
4, 57600, Note_on_c, 2, 59, 86
4, 57925, Note_off_c, 2, 61, 64
4, 57930, Note_off_c, 2, 64, 64
4, 57938, Note_off_c, 2, 59, 64
4, 57943, Note_off_c, 2, 57, 64
4, 57960, Note_on_c, 2, 64, 82
4, 57960, Note_on_c, 2, 59, 83
4, 57960, Note_on_c, 2, 61, 86
4, 57960, Note_on_c, 2, 57, 70
4, 58038, Note_off_c, 2, 61, 64
4, 58044, Note_off_c, 2, 59, 64
4, 58044, Note_off_c, 2, 64, 64
4, 58050, Note_off_c, 2, 57, 64
4, 58080, Note_on_c, 2, 61, 89
4, 58080, Note_on_c, 2, 59, 97
4, 58080, Note_on_c, 2, 64, 92
4, 58080, Note_on_c, 2, 57, 86
4, 58140, Note_off_c, 2, 61, 64
4, 58144, Note_off_c, 2, 59, 64
4, 58145, Note_off_c, 2, 64, 64
4, 58146, Note_off_c, 2, 57, 64
4, 58200, Note_on_c, 2, 61, 96
4, 58200, Note_on_c, 2, 59, 97
4, 58200, Note_on_c, 2, 57, 90
4, 58200, Note_on_c, 2, 64, 97
4, 58251, Note_off_c, 2, 61, 64
4, 58256, Note_off_c, 2, 57, 64
4, 58256, Note_off_c, 2, 59, 64
4, 58257, Note_off_c, 2, 64, 64
4, 58320, Note_on_c, 2, 61, 92
4, 58320, Note_on_c, 2, 59, 94
4, 58320, Note_on_c, 2, 57, 86
4, 58320, Note_on_c, 2, 64, 90
4, 58380, Note_off_c, 2, 61, 64
4, 58385, Note_off_c, 2, 64, 64
4, 58385, Note_off_c, 2, 57, 64
4, 58385, Note_off_c, 2, 59, 64
4, 58440, Note_on_c, 2, 61, 100
4, 58440, Note_on_c, 2, 64, 99
4, 58440, Note_on_c, 2, 59, 100
4, 58440, Note_on_c, 2, 57, 92
4, 58466, Note_off_c, 2, 61, 64
4, 58467, Note_off_c, 2, 59, 64
4, 58467, Note_off_c, 2, 64, 64
4, 58468, Note_off_c, 2, 57, 64
4, 58680, Note_on_c, 2, 64, 92
4, 58680, Note_on_c, 2, 57, 92
4, 58680, Note_on_c, 2, 61, 96
4, 58795, Note_off_c, 2, 64, 64
4, 58796, Note_off_c, 2, 61, 64
4, 58801, Note_off_c, 2, 57, 64
4, 58920, Note_on_c, 2, 66, 89
4, 58920, Note_on_c, 2, 59, 85
4, 58920, Note_on_c, 2, 63, 89
4, 59458, Note_off_c, 2, 63, 64
4, 59458, Note_off_c, 2, 66, 64
4, 59459, Note_off_c, 2, 59, 64
4, 59520, Note_on_c, 2, 64, 78
4, 59520, Note_on_c, 2, 59, 66
4, 59520, Note_on_c, 2, 68, 69
4, 59813, Note_off_c, 2, 68, 64
4, 59817, Note_off_c, 2, 64, 64
4, 59836, Note_off_c, 2, 59, 64
4, 59880, Note_on_c, 2, 66, 69
4, 59880, Note_on_c, 2, 59, 69
4, 59880, Note_on_c, 2, 63, 66
4, 60420, Note_off_c, 2, 59, 64
4, 60421, Note_off_c, 2, 63, 64
4, 60431, Note_off_c, 2, 66, 64
4, 60480, Note_on_c, 2, 64, 66
4, 60480, Note_on_c, 2, 61, 72
4, 60480, Note_on_c, 2, 57, 68
4, 60762, Note_off_c, 2, 57, 64
4, 60762, Note_off_c, 2, 61, 64
4, 60772, Note_off_c, 2, 64, 64
4, 60840, Note_on_c, 2, 63, 73
4, 60840, Note_on_c, 2, 59, 66
4, 60840, Note_on_c, 2, 66, 75
4, 61394, Note_off_c, 2, 66, 64
4, 61400, Note_off_c, 2, 63, 64
4, 61406, Note_off_c, 2, 59, 64
4, 61440, Note_on_c, 2, 59, 66
4, 61440, Note_on_c, 2, 64, 74
4, 61440, Note_on_c, 2, 68, 73
4, 61703, Note_off_c, 2, 68, 64
4, 61708, Note_off_c, 2, 64, 64
4, 61719, Note_off_c, 2, 59, 64
4, 61800, Note_on_c, 2, 59, 62
4, 61800, Note_on_c, 2, 63, 71
4, 61800, Note_on_c, 2, 66, 75
4, 62333, Note_off_c, 2, 63, 64
4, 62339, Note_off_c, 2, 66, 64
4, 62348, Note_off_c, 2, 59, 64
4, 62400, Note_on_c, 2, 64, 72
4, 62400, Note_on_c, 2, 61, 70
4, 62400, Note_on_c, 2, 57, 65
4, 62685, Note_off_c, 2, 57, 64
4, 62692, Note_off_c, 2, 61, 64
4, 62697, Note_off_c, 2, 64, 64
4, 62760, Note_on_c, 2, 59, 63
4, 62760, Note_on_c, 2, 63, 69
4, 62760, Note_on_c, 2, 66, 71
4, 63295, Note_off_c, 2, 66, 64
4, 63299, Note_off_c, 2, 63, 64
4, 63309, Note_off_c, 2, 59, 64
4, 63360, Note_on_c, 2, 68, 63
4, 63360, Note_on_c, 2, 64, 68
4, 63360, Note_on_c, 2, 59, 63
4, 63638, Note_off_c, 2, 64, 64
4, 63642, Note_off_c, 2, 68, 64
4, 63652, Note_off_c, 2, 59, 64
4, 63720, Note_on_c, 2, 59, 66
4, 63720, Note_on_c, 2, 63, 73
4, 63720, Note_on_c, 2, 66, 66
4, 64248, Note_off_c, 2, 63, 64
4, 64252, Note_off_c, 2, 59, 64
4, 64262, Note_off_c, 2, 66, 64
4, 64320, Note_on_c, 2, 64, 74
4, 64320, Note_on_c, 2, 73, 88
4, 64320, Note_on_c, 2, 69, 82
4, 64411, Note_off_c, 2, 69, 64
4, 64411, Note_off_c, 2, 73, 64
4, 64440, Note_on_c, 2, 71, 85
4, 64440, Note_on_c, 2, 68, 77
4, 64608, Note_off_c, 2, 68, 64
4, 64618, Note_off_c, 2, 71, 64
4, 64633, Note_off_c, 2, 64, 64
4, 64680, Note_on_c, 2, 69, 86
4, 64680, Note_on_c, 2, 61, 62
4, 64680, Note_on_c, 2, 64, 78
4, 64872, Note_off_c, 2, 61, 64
4, 64876, Note_off_c, 2, 64, 64
4, 64877, Note_off_c, 2, 69, 64
4, 64920, Note_on_c, 2, 64, 71
4, 64920, Note_on_c, 2, 68, 77
4, 64920, Note_on_c, 2, 59, 78
4, 65187, Note_off_c, 2, 68, 64
4, 65200, Note_off_c, 2, 59, 64
4, 65205, Note_off_c, 2, 64, 64
4, 65280, Note_on_c, 2, 64, 67
4, 65280, Note_on_c, 2, 59, 64
4, 65280, Note_on_c, 2, 66, 67
4, 66157, Note_off_c, 2, 59, 64
4, 66166, Note_off_c, 2, 64, 64
4, 66168, Note_off_c, 2, 66, 64
4, 66240, Note_on_c, 2, 64, 72
4, 66240, Note_on_c, 2, 61, 70
4, 66240, Note_on_c, 2, 57, 65
4, 66525, Note_off_c, 2, 57, 64
4, 66532, Note_off_c, 2, 61, 64
4, 66537, Note_off_c, 2, 64, 64
4, 66600, Note_on_c, 2, 59, 63
4, 66600, Note_on_c, 2, 63, 69
4, 66600, Note_on_c, 2, 66, 71
4, 67135, Note_off_c, 2, 66, 64
4, 67139, Note_off_c, 2, 63, 64
4, 67149, Note_off_c, 2, 59, 64
4, 67200, Note_on_c, 2, 68, 63
4, 67200, Note_on_c, 2, 64, 68
4, 67200, Note_on_c, 2, 59, 63
4, 67478, Note_off_c, 2, 64, 64
4, 67482, Note_off_c, 2, 68, 64
4, 67492, Note_off_c, 2, 59, 64
4, 67560, Note_on_c, 2, 59, 66
4, 67560, Note_on_c, 2, 63, 73
4, 67560, Note_on_c, 2, 66, 66
4, 68088, Note_off_c, 2, 63, 64
4, 68092, Note_off_c, 2, 59, 64
4, 68102, Note_off_c, 2, 66, 64
4, 68160, Note_on_c, 2, 64, 74
4, 68160, Note_on_c, 2, 73, 88
4, 68160, Note_on_c, 2, 69, 82
4, 68251, Note_off_c, 2, 69, 64
4, 68251, Note_off_c, 2, 73, 64
4, 68280, Note_on_c, 2, 71, 85
4, 68280, Note_on_c, 2, 68, 77
4, 68448, Note_off_c, 2, 68, 64
4, 68458, Note_off_c, 2, 71, 64
4, 68473, Note_off_c, 2, 64, 64
4, 68520, Note_on_c, 2, 69, 86
4, 68520, Note_on_c, 2, 61, 62
4, 68520, Note_on_c, 2, 64, 78
4, 68712, Note_off_c, 2, 61, 64
4, 68716, Note_off_c, 2, 64, 64
4, 68717, Note_off_c, 2, 69, 64
4, 68760, Note_on_c, 2, 64, 71
4, 68760, Note_on_c, 2, 68, 77
4, 68760, Note_on_c, 2, 59, 78
4, 69027, Note_off_c, 2, 68, 64
4, 69040, Note_off_c, 2, 59, 64
4, 69045, Note_off_c, 2, 64, 64
4, 69120, Note_on_c, 2, 64, 67
4, 69120, Note_on_c, 2, 59, 64
4, 69120, Note_on_c, 2, 66, 67
4, 69997, Note_off_c, 2, 59, 64
4, 70006, Note_off_c, 2, 64, 64
4, 70008, Note_off_c, 2, 66, 64
4, 71040, Note_on_c, 2, 57, 70
4, 71040, Note_on_c, 2, 64, 76
4, 71040, Note_on_c, 2, 61, 74
4, 71334, Note_off_c, 2, 57, 64
4, 71335, Note_off_c, 2, 61, 64
4, 71339, Note_off_c, 2, 64, 64
4, 71400, Note_on_c, 2, 59, 66
4, 71400, Note_on_c, 2, 63, 73
4, 71400, Note_on_c, 2, 66, 82
4, 71953, Note_off_c, 2, 66, 64
4, 71959, Note_off_c, 2, 63, 64
4, 71980, Note_off_c, 2, 59, 64
4, 72000, Note_on_c, 2, 64, 78
4, 72000, Note_on_c, 2, 59, 66
4, 72000, Note_on_c, 2, 68, 69
4, 72293, Note_off_c, 2, 68, 64
4, 72297, Note_off_c, 2, 64, 64
4, 72316, Note_off_c, 2, 59, 64
4, 72360, Note_on_c, 2, 66, 69
4, 72360, Note_on_c, 2, 59, 69
4, 72360, Note_on_c, 2, 63, 66
4, 72900, Note_off_c, 2, 59, 64
4, 72901, Note_off_c, 2, 63, 64
4, 72911, Note_off_c, 2, 66, 64
4, 72960, Note_on_c, 2, 64, 66
4, 72960, Note_on_c, 2, 61, 72
4, 72960, Note_on_c, 2, 57, 68
4, 73242, Note_off_c, 2, 57, 64
4, 73242, Note_off_c, 2, 61, 64
4, 73252, Note_off_c, 2, 64, 64
4, 73320, Note_on_c, 2, 63, 73
4, 73320, Note_on_c, 2, 59, 66
4, 73320, Note_on_c, 2, 66, 75
4, 73874, Note_off_c, 2, 66, 64
4, 73880, Note_off_c, 2, 63, 64
4, 73886, Note_off_c, 2, 59, 64
4, 73920, Note_on_c, 2, 59, 66
4, 73920, Note_on_c, 2, 64, 74
4, 73920, Note_on_c, 2, 68, 73
4, 74183, Note_off_c, 2, 68, 64
4, 74188, Note_off_c, 2, 64, 64
4, 74199, Note_off_c, 2, 59, 64
4, 74280, Note_on_c, 2, 59, 62
4, 74280, Note_on_c, 2, 63, 71
4, 74280, Note_on_c, 2, 66, 75
4, 74813, Note_off_c, 2, 63, 64
4, 74819, Note_off_c, 2, 66, 64
4, 74828, Note_off_c, 2, 59, 64
4, 74880, Note_on_c, 2, 64, 72
4, 74880, Note_on_c, 2, 61, 70
4, 74880, Note_on_c, 2, 57, 65
4, 75165, Note_off_c, 2, 57, 64
4, 75172, Note_off_c, 2, 61, 64
4, 75177, Note_off_c, 2, 64, 64
4, 75240, Note_on_c, 2, 59, 63
4, 75240, Note_on_c, 2, 63, 69
4, 75240, Note_on_c, 2, 66, 71
4, 75775, Note_off_c, 2, 66, 64
4, 75779, Note_off_c, 2, 63, 64
4, 75789, Note_off_c, 2, 59, 64
4, 75840, Note_on_c, 2, 68, 63
4, 75840, Note_on_c, 2, 64, 68
4, 75840, Note_on_c, 2, 59, 63
4, 76118, Note_off_c, 2, 64, 64
4, 76122, Note_off_c, 2, 68, 64
4, 76132, Note_off_c, 2, 59, 64
4, 76200, Note_on_c, 2, 59, 66
4, 76200, Note_on_c, 2, 63, 73
4, 76200, Note_on_c, 2, 66, 66
4, 76728, Note_off_c, 2, 63, 64
4, 76732, Note_off_c, 2, 59, 64
4, 76742, Note_off_c, 2, 66, 64
4, 76800, Note_on_c, 2, 64, 74
4, 76800, Note_on_c, 2, 73, 88
4, 76800, Note_on_c, 2, 69, 82
4, 76891, Note_off_c, 2, 69, 64
4, 76891, Note_off_c, 2, 73, 64
4, 76920, Note_on_c, 2, 71, 85
4, 76920, Note_on_c, 2, 68, 77
4, 77088, Note_off_c, 2, 68, 64
4, 77098, Note_off_c, 2, 71, 64
4, 77113, Note_off_c, 2, 64, 64
4, 77160, Note_on_c, 2, 69, 86
4, 77160, Note_on_c, 2, 61, 62
4, 77160, Note_on_c, 2, 64, 78
4, 77352, Note_off_c, 2, 61, 64
4, 77356, Note_off_c, 2, 64, 64
4, 77357, Note_off_c, 2, 69, 64
4, 77400, Note_on_c, 2, 64, 71
4, 77400, Note_on_c, 2, 68, 77
4, 77400, Note_on_c, 2, 59, 78
4, 77667, Note_off_c, 2, 68, 64
4, 77680, Note_off_c, 2, 59, 64
4, 77685, Note_off_c, 2, 64, 64
4, 77760, Note_on_c, 2, 64, 67
4, 77760, Note_on_c, 2, 59, 64
4, 77760, Note_on_c, 2, 66, 67
4, 78637, Note_off_c, 2, 59, 64
4, 78646, Note_off_c, 2, 64, 64
4, 78648, Note_off_c, 2, 66, 64
4, 78720, Note_on_c, 2, 57, 70
4, 78720, Note_on_c, 2, 64, 76
4, 78720, Note_on_c, 2, 61, 74
4, 79014, Note_off_c, 2, 57, 64
4, 79015, Note_off_c, 2, 61, 64
4, 79019, Note_off_c, 2, 64, 64
4, 79080, Note_on_c, 2, 59, 66
4, 79080, Note_on_c, 2, 63, 73
4, 79080, Note_on_c, 2, 66, 82
4, 79633, Note_off_c, 2, 66, 64
4, 79639, Note_off_c, 2, 63, 64
4, 79660, Note_off_c, 2, 59, 64
4, 79680, Note_on_c, 2, 64, 78
4, 79680, Note_on_c, 2, 59, 66
4, 79680, Note_on_c, 2, 68, 69
4, 79973, Note_off_c, 2, 68, 64
4, 79977, Note_off_c, 2, 64, 64
4, 79996, Note_off_c, 2, 59, 64
4, 80040, Note_on_c, 2, 66, 69
4, 80040, Note_on_c, 2, 59, 69
4, 80040, Note_on_c, 2, 63, 66
4, 80580, Note_off_c, 2, 59, 64
4, 80581, Note_off_c, 2, 63, 64
4, 80591, Note_off_c, 2, 66, 64
4, 80640, Note_on_c, 2, 64, 66
4, 80640, Note_on_c, 2, 61, 72
4, 80640, Note_on_c, 2, 57, 68
4, 80922, Note_off_c, 2, 57, 64
4, 80922, Note_off_c, 2, 61, 64
4, 80932, Note_off_c, 2, 64, 64
4, 81000, Note_on_c, 2, 63, 73
4, 81000, Note_on_c, 2, 59, 66
4, 81000, Note_on_c, 2, 66, 75
4, 81554, Note_off_c, 2, 66, 64
4, 81560, Note_off_c, 2, 63, 64
4, 81566, Note_off_c, 2, 59, 64
4, 81600, Note_on_c, 2, 59, 66
4, 81600, Note_on_c, 2, 64, 74
4, 81600, Note_on_c, 2, 68, 73
4, 81863, Note_off_c, 2, 68, 64
4, 81868, Note_off_c, 2, 64, 64
4, 81879, Note_off_c, 2, 59, 64
4, 81960, Note_on_c, 2, 59, 62
4, 81960, Note_on_c, 2, 63, 71
4, 81960, Note_on_c, 2, 66, 75
4, 82493, Note_off_c, 2, 63, 64
4, 82499, Note_off_c, 2, 66, 64
4, 82508, Note_off_c, 2, 59, 64
4, 82560, Note_on_c, 2, 64, 72
4, 82560, Note_on_c, 2, 61, 70
4, 82560, Note_on_c, 2, 57, 65
4, 82845, Note_off_c, 2, 57, 64
4, 82852, Note_off_c, 2, 61, 64
4, 82857, Note_off_c, 2, 64, 64
4, 82920, Note_on_c, 2, 59, 63
4, 82920, Note_on_c, 2, 63, 69
4, 82920, Note_on_c, 2, 66, 71
4, 83455, Note_off_c, 2, 66, 64
4, 83459, Note_off_c, 2, 63, 64
4, 83469, Note_off_c, 2, 59, 64
4, 83520, Note_on_c, 2, 68, 63
4, 83520, Note_on_c, 2, 64, 68
4, 83520, Note_on_c, 2, 59, 63
4, 83798, Note_off_c, 2, 64, 64
4, 83802, Note_off_c, 2, 68, 64
4, 83812, Note_off_c, 2, 59, 64
4, 83880, Note_on_c, 2, 59, 66
4, 83880, Note_on_c, 2, 63, 73
4, 83880, Note_on_c, 2, 66, 66
4, 84408, Note_off_c, 2, 63, 64
4, 84412, Note_off_c, 2, 59, 64
4, 84422, Note_off_c, 2, 66, 64
4, 84480, Note_on_c, 2, 64, 74
4, 84480, Note_on_c, 2, 73, 88
4, 84480, Note_on_c, 2, 69, 82
4, 84571, Note_off_c, 2, 69, 64
4, 84571, Note_off_c, 2, 73, 64
4, 84600, Note_on_c, 2, 71, 85
4, 84600, Note_on_c, 2, 68, 77
4, 84768, Note_off_c, 2, 68, 64
4, 84778, Note_off_c, 2, 71, 64
4, 84793, Note_off_c, 2, 64, 64
4, 84840, Note_on_c, 2, 69, 86
4, 84840, Note_on_c, 2, 61, 62
4, 84840, Note_on_c, 2, 64, 78
4, 85032, Note_off_c, 2, 61, 64
4, 85036, Note_off_c, 2, 64, 64
4, 85037, Note_off_c, 2, 69, 64
4, 85080, Note_on_c, 2, 64, 71
4, 85080, Note_on_c, 2, 68, 77
4, 85080, Note_on_c, 2, 59, 78
4, 85347, Note_off_c, 2, 68, 64
4, 85360, Note_off_c, 2, 59, 64
4, 85365, Note_off_c, 2, 64, 64
4, 85440, Note_on_c, 2, 64, 67
4, 85440, Note_on_c, 2, 59, 64
4, 85440, Note_on_c, 2, 66, 67
4, 86317, Note_off_c, 2, 59, 64
4, 86326, Note_off_c, 2, 64, 64
4, 86328, Note_off_c, 2, 66, 64
4, 86400, Note_on_c, 2, 47, 79
4, 86400, Note_on_c, 2, 42, 84
4, 88189, Note_off_c, 2, 42, 64
4, 88200, Note_off_c, 2, 47, 64
4, 88320, Note_on_c, 2, 56, 69
4, 88320, Note_on_c, 2, 59, 79
4, 88320, Note_on_c, 2, 63, 63
4, 88465, Control_c, 2, 64, 127
4, 88503, Note_off_c, 2, 59, 64
4, 88508, Note_off_c, 2, 63, 64
4, 88513, Note_off_c, 2, 56, 64
4, 88680, Note_on_c, 2, 64, 74
4, 88680, Note_on_c, 2, 57, 70
4, 88680, Note_on_c, 2, 61, 69
4, 88700, Control_c, 2, 64, 0
4, 88792, Control_c, 2, 64, 127
4, 88831, Note_off_c, 2, 64, 64
4, 88838, Note_off_c, 2, 61, 64
4, 88843, Note_off_c, 2, 57, 64
4, 89280, Note_on_c, 2, 66, 75
4, 89280, Note_on_c, 2, 59, 66
4, 89280, Note_on_c, 2, 63, 79
4, 89290, Control_c, 2, 64, 0
4, 89363, Control_c, 2, 64, 127
4, 89386, Note_off_c, 2, 66, 64
4, 89392, Note_off_c, 2, 63, 64
4, 89406, Note_off_c, 2, 59, 64
4, 89640, Note_on_c, 2, 59, 74
4, 89640, Note_on_c, 2, 64, 74
4, 89640, Note_on_c, 2, 61, 77
4, 89640, Note_on_c, 2, 68, 71
4, 89659, Control_c, 2, 64, 0
4, 89756, Control_c, 2, 64, 127
4, 89807, Note_off_c, 2, 61, 64
4, 89817, Note_off_c, 2, 64, 64
4, 89818, Note_off_c, 2, 59, 64
4, 89823, Note_off_c, 2, 68, 64
4, 90240, Note_on_c, 2, 59, 79
4, 90240, Note_on_c, 2, 63, 59
4, 90240, Note_on_c, 2, 56, 66
4, 90263, Control_c, 2, 64, 0
4, 90337, Control_c, 2, 64, 127
4, 90363, Note_off_c, 2, 59, 64
4, 90369, Note_off_c, 2, 63, 64
4, 90379, Note_off_c, 2, 56, 64
4, 90600, Note_on_c, 2, 57, 72
4, 90600, Note_on_c, 2, 64, 74
4, 90600, Note_on_c, 2, 61, 75
4, 90605, Control_c, 2, 64, 0
4, 90695, Control_c, 2, 64, 127
4, 90722, Note_off_c, 2, 64, 64
4, 90723, Note_off_c, 2, 61, 64
4, 90728, Note_off_c, 2, 57, 64
4, 91200, Note_on_c, 2, 59, 62
4, 91200, Note_on_c, 2, 66, 71
4, 91200, Note_on_c, 2, 63, 73
4, 91200, Control_c, 2, 64, 0
4, 91277, Control_c, 2, 64, 127
4, 91282, Note_off_c, 2, 66, 64
4, 91297, Note_off_c, 2, 59, 64
4, 91303, Note_off_c, 2, 63, 64
4, 91560, Note_on_c, 2, 59, 71
4, 91560, Note_on_c, 2, 64, 70
4, 91560, Note_on_c, 2, 61, 69
4, 91560, Note_on_c, 2, 68, 64
4, 91582, Control_c, 2, 64, 0
4, 91661, Control_c, 2, 64, 127
4, 91702, Note_off_c, 2, 61, 64
4, 91707, Note_off_c, 2, 68, 64
4, 91708, Note_off_c, 2, 64, 64
4, 91711, Note_off_c, 2, 59, 64
4, 92160, Note_on_c, 2, 56, 68
4, 92160, Note_on_c, 2, 59, 78
4, 92160, Note_on_c, 2, 63, 54
4, 92164, Control_c, 2, 64, 0
4, 92235, Control_c, 2, 64, 127
4, 92267, Note_off_c, 2, 59, 64
4, 92272, Note_off_c, 2, 63, 64
4, 92272, Note_off_c, 2, 56, 64
4, 92520, Note_on_c, 2, 64, 74
4, 92520, Note_on_c, 2, 61, 77
4, 92520, Note_on_c, 2, 57, 72
4, 92544, Control_c, 2, 64, 0
4, 92620, Control_c, 2, 64, 127
4, 92639, Note_off_c, 2, 64, 64
4, 92645, Note_off_c, 2, 61, 64
4, 92655, Note_off_c, 2, 57, 64
4, 93120, Note_on_c, 2, 59, 62
4, 93120, Note_on_c, 2, 66, 68
4, 93120, Note_on_c, 2, 63, 71
4, 93147, Control_c, 2, 64, 0
4, 93203, Control_c, 2, 64, 127
4, 93220, Note_off_c, 2, 66, 64
4, 93226, Note_off_c, 2, 63, 64
4, 93249, Note_off_c, 2, 59, 64
4, 93480, Note_on_c, 2, 59, 71
4, 93480, Note_on_c, 2, 64, 73
4, 93480, Note_on_c, 2, 61, 73
4, 93480, Note_on_c, 2, 68, 64
4, 93490, Control_c, 2, 64, 0
4, 94064, Note_off_c, 2, 68, 64
4, 94064, Note_off_c, 2, 61, 64
4, 94064, Note_off_c, 2, 64, 64
4, 94070, Note_off_c, 2, 59, 64
4, 94080, Note_on_c, 2, 42, 47
4, 94080, Note_on_c, 2, 57, 69
4, 94080, Note_on_c, 2, 61, 59
4, 94080, Note_on_c, 2, 54, 51
4, 94159, Control_c, 2, 64, 127
4, 94184, Note_off_c, 2, 57, 64
4, 94189, Note_off_c, 2, 42, 64
4, 94194, Note_off_c, 2, 61, 64
4, 94200, Note_off_c, 2, 54, 64
4, 94440, Note_on_c, 2, 44, 49
4, 94440, Note_on_c, 2, 59, 70
4, 94440, Note_on_c, 2, 64, 70
4, 94440, Note_on_c, 2, 56, 54
4, 94451, Control_c, 2, 64, 0
4, 94560, Control_c, 2, 64, 127
4, 94615, Note_off_c, 2, 59, 64
4, 94636, Note_off_c, 2, 64, 64
4, 94637, Note_off_c, 2, 56, 64
4, 94640, Note_off_c, 2, 44, 64
4, 95040, Note_on_c, 2, 59, 52
4, 95040, Note_on_c, 2, 47, 60
4, 95040, Note_on_c, 2, 66, 52
4, 95040, Note_on_c, 2, 64, 61
4, 95060, Control_c, 2, 64, 0
4, 95155, Control_c, 2, 64, 127
4, 95251, Note_off_c, 2, 47, 64
4, 95306, Note_off_c, 2, 59, 64
4, 95307, Note_off_c, 2, 64, 64
4, 95308, Note_off_c, 2, 66, 64
4, 95400, Note_on_c, 2, 59, 58
4, 95400, Note_on_c, 2, 49, 57
4, 95400, Note_on_c, 2, 64, 68
4, 95400, Note_on_c, 2, 66, 57
4, 95421, Control_c, 2, 64, 0
4, 95630, Note_off_c, 2, 66, 64
4, 95640, Note_on_c, 2, 68, 81
4, 95919, Note_off_c, 2, 49, 64
4, 95924, Note_off_c, 2, 68, 64
4, 95924, Note_off_c, 2, 64, 64
4, 95929, Note_off_c, 2, 59, 64
4, 96000, Note_on_c, 2, 56, 69
4, 96000, Note_on_c, 2, 59, 79
4, 96000, Note_on_c, 2, 63, 63
4, 96145, Control_c, 2, 64, 127
4, 96183, Note_off_c, 2, 59, 64
4, 96188, Note_off_c, 2, 63, 64
4, 96193, Note_off_c, 2, 56, 64
4, 96360, Note_on_c, 2, 64, 74
4, 96360, Note_on_c, 2, 57, 70
4, 96360, Note_on_c, 2, 61, 69
4, 96380, Control_c, 2, 64, 0
4, 96472, Control_c, 2, 64, 127
4, 96511, Note_off_c, 2, 64, 64
4, 96518, Note_off_c, 2, 61, 64
4, 96523, Note_off_c, 2, 57, 64
4, 96960, Note_on_c, 2, 66, 75
4, 96960, Note_on_c, 2, 59, 66
4, 96960, Note_on_c, 2, 63, 79
4, 96970, Control_c, 2, 64, 0
4, 97043, Control_c, 2, 64, 127
4, 97066, Note_off_c, 2, 66, 64
4, 97072, Note_off_c, 2, 63, 64
4, 97086, Note_off_c, 2, 59, 64
4, 97320, Note_on_c, 2, 59, 74
4, 97320, Note_on_c, 2, 64, 74
4, 97320, Note_on_c, 2, 61, 77
4, 97320, Note_on_c, 2, 68, 71
4, 97339, Control_c, 2, 64, 0
4, 97436, Control_c, 2, 64, 127
4, 97487, Note_off_c, 2, 61, 64
4, 97497, Note_off_c, 2, 64, 64
4, 97498, Note_off_c, 2, 59, 64
4, 97503, Note_off_c, 2, 68, 64
4, 97920, Note_on_c, 2, 59, 79
4, 97920, Note_on_c, 2, 63, 59
4, 97920, Note_on_c, 2, 56, 66
4, 97943, Control_c, 2, 64, 0
4, 98017, Control_c, 2, 64, 127
4, 98043, Note_off_c, 2, 59, 64
4, 98049, Note_off_c, 2, 63, 64
4, 98059, Note_off_c, 2, 56, 64
4, 98280, Note_on_c, 2, 57, 72
4, 98280, Note_on_c, 2, 64, 74
4, 98280, Note_on_c, 2, 61, 75
4, 98285, Control_c, 2, 64, 0
4, 98375, Control_c, 2, 64, 127
4, 98402, Note_off_c, 2, 64, 64
4, 98403, Note_off_c, 2, 61, 64
4, 98408, Note_off_c, 2, 57, 64
4, 98880, Note_on_c, 2, 59, 62
4, 98880, Note_on_c, 2, 66, 71
4, 98880, Note_on_c, 2, 63, 73
4, 98880, Control_c, 2, 64, 0
4, 98957, Control_c, 2, 64, 127
4, 98962, Note_off_c, 2, 66, 64
4, 98977, Note_off_c, 2, 59, 64
4, 98983, Note_off_c, 2, 63, 64
4, 99240, Note_on_c, 2, 59, 71
4, 99240, Note_on_c, 2, 64, 70
4, 99240, Note_on_c, 2, 61, 69
4, 99240, Note_on_c, 2, 68, 64
4, 99262, Control_c, 2, 64, 0
4, 99341, Control_c, 2, 64, 127
4, 99382, Note_off_c, 2, 61, 64
4, 99387, Note_off_c, 2, 68, 64
4, 99388, Note_off_c, 2, 64, 64
4, 99391, Note_off_c, 2, 59, 64
4, 99840, Note_on_c, 2, 56, 68
4, 99840, Note_on_c, 2, 59, 78
4, 99840, Note_on_c, 2, 63, 54
4, 99844, Control_c, 2, 64, 0
4, 99915, Control_c, 2, 64, 127
4, 99947, Note_off_c, 2, 59, 64
4, 99952, Note_off_c, 2, 63, 64
4, 99952, Note_off_c, 2, 56, 64
4, 100200, Note_on_c, 2, 64, 74
4, 100200, Note_on_c, 2, 61, 77
4, 100200, Note_on_c, 2, 57, 72
4, 100224, Control_c, 2, 64, 0
4, 100300, Control_c, 2, 64, 127
4, 100319, Note_off_c, 2, 64, 64
4, 100325, Note_off_c, 2, 61, 64
4, 100335, Note_off_c, 2, 57, 64
4, 100800, Note_on_c, 2, 59, 62
4, 100800, Note_on_c, 2, 66, 68
4, 100800, Note_on_c, 2, 63, 71
4, 100827, Control_c, 2, 64, 0
4, 100883, Control_c, 2, 64, 127
4, 100900, Note_off_c, 2, 66, 64
4, 100906, Note_off_c, 2, 63, 64
4, 100929, Note_off_c, 2, 59, 64
4, 101160, Note_on_c, 2, 59, 71
4, 101160, Note_on_c, 2, 64, 73
4, 101160, Note_on_c, 2, 61, 73
4, 101160, Note_on_c, 2, 68, 64
4, 101170, Control_c, 2, 64, 0
4, 101744, Note_off_c, 2, 68, 64
4, 101744, Note_off_c, 2, 61, 64
4, 101744, Note_off_c, 2, 64, 64
4, 101750, Note_off_c, 2, 59, 64
4, 101760, Note_on_c, 2, 42, 47
4, 101760, Note_on_c, 2, 57, 69
4, 101760, Note_on_c, 2, 61, 59
4, 101760, Note_on_c, 2, 54, 51
4, 101839, Control_c, 2, 64, 127
4, 101864, Note_off_c, 2, 57, 64
4, 101869, Note_off_c, 2, 42, 64
4, 101874, Note_off_c, 2, 61, 64
4, 101880, Note_off_c, 2, 54, 64
4, 102120, Note_on_c, 2, 44, 49
4, 102120, Note_on_c, 2, 59, 70
4, 102120, Note_on_c, 2, 64, 70
4, 102120, Note_on_c, 2, 56, 54
4, 102131, Control_c, 2, 64, 0
4, 102240, Control_c, 2, 64, 127
4, 102295, Note_off_c, 2, 59, 64
4, 102316, Note_off_c, 2, 64, 64
4, 102317, Note_off_c, 2, 56, 64
4, 102320, Note_off_c, 2, 44, 64
4, 102720, Note_on_c, 2, 59, 52
4, 102720, Note_on_c, 2, 47, 60
4, 102720, Note_on_c, 2, 66, 52
4, 102720, Note_on_c, 2, 64, 61
4, 102740, Control_c, 2, 64, 0
4, 102835, Control_c, 2, 64, 127
4, 102931, Note_off_c, 2, 47, 64
4, 102986, Note_off_c, 2, 59, 64
4, 102987, Note_off_c, 2, 64, 64
4, 102988, Note_off_c, 2, 66, 64
4, 103080, Note_on_c, 2, 59, 58
4, 103080, Note_on_c, 2, 49, 57
4, 103080, Note_on_c, 2, 64, 68
4, 103080, Note_on_c, 2, 66, 57
4, 103101, Control_c, 2, 64, 0
4, 103310, Note_off_c, 2, 66, 64
4, 103320, Note_on_c, 2, 68, 81
4, 103599, Note_off_c, 2, 49, 64
4, 103604, Note_off_c, 2, 68, 64
4, 103604, Note_off_c, 2, 64, 64
4, 103609, Note_off_c, 2, 59, 64
4, 103680, Note_on_c, 2, 59, 75
4, 103680, Note_on_c, 2, 52, 66
4, 103680, Note_on_c, 2, 56, 66
4, 103680, Note_on_c, 2, 54, 68
4, 105486, Note_off_c, 2, 54, 64
4, 105486, Note_off_c, 2, 56, 64
4, 105491, Note_off_c, 2, 59, 64
4, 105492, Note_off_c, 2, 52, 64
4, 105492, End_track
5, 0, Start_track
5, 0, Text_t, "strings"
5, 0, Program_c, 3, 49
5, 0, Control_c, 3, 7, 100
5, 0, Control_c, 3, 93, 0
5, 0, Control_c, 3, 91, 75
5, 0, Control_c, 3, 10, 44
5, 960, Note_on_c, 3, 95, 50
5, 960, Control_c, 3, 64, 127
5, 960, Control_c, 3, 64, 0
5, 992, Control_c, 3, 64, 127
5, 1079, Note_off_c, 3, 95, 64
5, 1080, Note_on_c, 3, 93, 50
5, 1129, Note_off_c, 3, 93, 64
5, 1320, Note_on_c, 3, 91, 50
5, 1353, Note_off_c, 3, 91, 64
5, 1560, Note_on_c, 3, 90, 50
5, 1591, Note_off_c, 3, 90, 64
5, 1800, Note_on_c, 3, 88, 50
5, 1846, Control_c, 3, 64, 0
5, 2874, Note_off_c, 3, 88, 64
5, 2880, Note_on_c, 3, 83, 50
5, 3000, Note_on_c, 3, 81, 50
5, 3023, Note_off_c, 3, 83, 64
5, 3240, Note_on_c, 3, 79, 50
5, 3249, Note_off_c, 3, 81, 64
5, 3480, Note_on_c, 3, 78, 50
5, 3521, Note_off_c, 3, 79, 64
5, 3838, Note_off_c, 3, 78, 64
5, 3840, Note_on_c, 3, 76, 50
5, 4742, Note_off_c, 3, 76, 64
5, 19200, Note_on_c, 3, 81, 50
5, 19535, Note_off_c, 3, 81, 64
5, 19560, Note_on_c, 3, 76, 50
5, 20160, Note_on_c, 3, 74, 50
5, 20167, Note_off_c, 3, 76, 64
5, 20486, Note_off_c, 3, 74, 64
5, 20520, Note_on_c, 3, 76, 50
5, 20760, Note_on_c, 3, 78, 50
5, 20768, Note_off_c, 3, 76, 64
5, 20853, Note_off_c, 3, 78, 64
5, 20880, Note_on_c, 3, 79, 50
5, 21120, Note_on_c, 3, 81, 50
5, 21122, Note_off_c, 3, 79, 64
5, 21480, Note_on_c, 3, 76, 50
5, 21489, Note_off_c, 3, 81, 64
5, 22053, Note_off_c, 3, 76, 64
5, 22080, Note_on_c, 3, 74, 50
5, 22437, Note_off_c, 3, 74, 64
5, 22440, Note_on_c, 3, 76, 50
5, 22680, Note_on_c, 3, 78, 50
5, 22700, Note_off_c, 3, 76, 64
5, 22793, Note_off_c, 3, 78, 64
5, 22800, Note_on_c, 3, 76, 50
5, 22908, Note_off_c, 3, 76, 64
5, 22920, Note_on_c, 3, 74, 50
5, 22993, Note_off_c, 3, 74, 64
5, 23040, Note_on_c, 3, 74, 50
5, 23351, Note_off_c, 3, 74, 64
5, 23400, Note_on_c, 3, 74, 50
5, 23635, Note_off_c, 3, 74, 64
5, 23640, Note_on_c, 3, 73, 50
5, 23756, Note_off_c, 3, 73, 64
5, 23760, Note_on_c, 3, 74, 50
5, 24284, Note_off_c, 3, 74, 64
5, 24360, Note_on_c, 3, 74, 50
5, 24600, Note_on_c, 3, 73, 50
5, 24617, Note_off_c, 3, 74, 64
5, 24720, Note_on_c, 3, 74, 50
5, 24723, Note_off_c, 3, 73, 64
5, 24878, Note_off_c, 3, 74, 64
5, 24960, Note_on_c, 3, 83, 50
5, 25076, Note_off_c, 3, 83, 64
5, 25080, Note_on_c, 3, 81, 50
5, 25312, Note_off_c, 3, 81, 64
5, 25320, Note_on_c, 3, 79, 50
5, 25553, Note_off_c, 3, 79, 64
5, 25560, Note_on_c, 3, 78, 50
5, 25920, Note_on_c, 3, 76, 50
5, 25939, Note_off_c, 3, 78, 64
5, 26778, Note_off_c, 3, 76, 64
5, 26880, Note_on_c, 3, 74, 50
5, 27736, Note_off_c, 3, 74, 64
5, 42240, Note_on_c, 3, 81, 50
5, 42575, Note_off_c, 3, 81, 64
5, 42600, Note_on_c, 3, 76, 50
5, 43200, Note_on_c, 3, 74, 50
5, 43207, Note_off_c, 3, 76, 64
5, 43526, Note_off_c, 3, 74, 64
5, 43560, Note_on_c, 3, 76, 50
5, 43800, Note_on_c, 3, 78, 50
5, 43808, Note_off_c, 3, 76, 64
5, 43893, Note_off_c, 3, 78, 64
5, 43920, Note_on_c, 3, 79, 50
5, 44160, Note_on_c, 3, 81, 50
5, 44162, Note_off_c, 3, 79, 64
5, 44520, Note_on_c, 3, 76, 50
5, 44529, Note_off_c, 3, 81, 64
5, 45093, Note_off_c, 3, 76, 64
5, 45120, Note_on_c, 3, 74, 50
5, 45477, Note_off_c, 3, 74, 64
5, 45480, Note_on_c, 3, 76, 50
5, 45720, Note_on_c, 3, 78, 50
5, 45740, Note_off_c, 3, 76, 64
5, 45833, Note_off_c, 3, 78, 64
5, 45840, Note_on_c, 3, 76, 50
5, 45948, Note_off_c, 3, 76, 64
5, 45960, Note_on_c, 3, 74, 50
5, 46033, Note_off_c, 3, 74, 64
5, 46080, Note_on_c, 3, 74, 50
5, 46391, Note_off_c, 3, 74, 64
5, 46440, Note_on_c, 3, 74, 50
5, 46675, Note_off_c, 3, 74, 64
5, 46680, Note_on_c, 3, 73, 50
5, 46796, Note_off_c, 3, 73, 64
5, 46800, Note_on_c, 3, 74, 50
5, 47324, Note_off_c, 3, 74, 64
5, 47400, Note_on_c, 3, 74, 50
5, 47640, Note_on_c, 3, 73, 50
5, 47657, Note_off_c, 3, 74, 64
5, 47760, Note_on_c, 3, 74, 50
5, 47763, Note_off_c, 3, 73, 64
5, 47918, Note_off_c, 3, 74, 64
5, 48000, Note_on_c, 3, 83, 50
5, 48116, Note_off_c, 3, 83, 64
5, 48120, Note_on_c, 3, 81, 50
5, 48352, Note_off_c, 3, 81, 64
5, 48360, Note_on_c, 3, 79, 50
5, 48593, Note_off_c, 3, 79, 64
5, 48600, Note_on_c, 3, 78, 50
5, 48960, Note_on_c, 3, 76, 50
5, 48979, Note_off_c, 3, 78, 64
5, 49818, Note_off_c, 3, 76, 64
5, 49920, Note_on_c, 3, 74, 50
5, 50776, Note_off_c, 3, 74, 64
5, 50880, Note_on_c, 3, 72, 63
5, 50880, Note_on_c, 3, 65, 57
5, 50880, Note_on_c, 3, 69, 60
5, 51786, Note_off_c, 3, 69, 64
5, 51819, Note_off_c, 3, 65, 64
5, 51840, Note_on_c, 3, 67, 75
5, 51840, Note_on_c, 3, 62, 66
5, 52752, Note_off_c, 3, 72, 64
5, 52762, Note_off_c, 3, 67, 64
5, 52787, Note_off_c, 3, 62, 64
5, 52800, Note_on_c, 3, 72, 51
5, 52800, Note_on_c, 3, 69, 68
5, 52800, Note_on_c, 3, 65, 60
5, 53719, Note_off_c, 3, 69, 64
5, 53753, Note_off_c, 3, 65, 64
5, 53760, Note_on_c, 3, 67, 60
5, 53760, Note_on_c, 3, 62, 58
5, 54458, Note_off_c, 3, 72, 64
5, 54480, Note_on_c, 3, 71, 65
5, 54699, Note_off_c, 3, 67, 64
5, 54705, Note_off_c, 3, 71, 64
5, 54714, Note_off_c, 3, 62, 64
5, 54720, Note_on_c, 3, 72, 40
5, 54720, Note_on_c, 3, 69, 74
5, 54720, Note_on_c, 3, 65, 58
5, 55626, Note_off_c, 3, 65, 64
5, 55630, Note_off_c, 3, 69, 64
5, 55680, Note_on_c, 3, 62, 57
5, 55680, Note_on_c, 3, 67, 68
5, 56540, Note_off_c, 3, 62, 64
5, 56618, Note_off_c, 3, 67, 64
5, 56632, Note_off_c, 3, 72, 64
5, 56640, Note_on_c, 3, 67, 66
5, 56640, Note_on_c, 3, 71, 59
5, 57600, Note_on_c, 3, 69, 76
5, 57600, Note_on_c, 3, 73, 44
5, 57625, Note_off_c, 3, 71, 64
5, 57636, Note_off_c, 3, 67, 64
5, 58539, Note_off_c, 3, 73, 64
5, 58541, Note_off_c, 3, 69, 64
5, 58560, Note_on_c, 3, 83, 50
5, 58895, Note_off_c, 3, 83, 64
5, 58920, Note_on_c, 3, 78, 50
5, 59520, Note_on_c, 3, 76, 50
5, 59527, Note_off_c, 3, 78, 64
5, 59846, Note_off_c, 3, 76, 64
5, 59880, Note_on_c, 3, 78, 50
5, 60120, Note_on_c, 3, 80, 50
5, 60128, Note_off_c, 3, 78, 64
5, 60213, Note_off_c, 3, 80, 64
5, 60240, Note_on_c, 3, 81, 50
5, 60480, Note_on_c, 3, 83, 50
5, 60482, Note_off_c, 3, 81, 64
5, 60840, Note_on_c, 3, 78, 50
5, 60849, Note_off_c, 3, 83, 64
5, 61413, Note_off_c, 3, 78, 64
5, 61440, Note_on_c, 3, 76, 50
5, 61797, Note_off_c, 3, 76, 64
5, 61800, Note_on_c, 3, 78, 50
5, 62040, Note_on_c, 3, 80, 50
5, 62060, Note_off_c, 3, 78, 64
5, 62153, Note_off_c, 3, 80, 64
5, 62160, Note_on_c, 3, 78, 50
5, 62268, Note_off_c, 3, 78, 64
5, 62280, Note_on_c, 3, 76, 50
5, 62353, Note_off_c, 3, 76, 64
5, 62400, Note_on_c, 3, 76, 50
5, 62711, Note_off_c, 3, 76, 64
5, 62760, Note_on_c, 3, 76, 50
5, 62995, Note_off_c, 3, 76, 64
5, 63000, Note_on_c, 3, 75, 50
5, 63116, Note_off_c, 3, 75, 64
5, 63120, Note_on_c, 3, 76, 50
5, 63644, Note_off_c, 3, 76, 64
5, 63720, Note_on_c, 3, 76, 50
5, 63960, Note_on_c, 3, 75, 50
5, 63977, Note_off_c, 3, 76, 64
5, 64080, Note_on_c, 3, 76, 50
5, 64083, Note_off_c, 3, 75, 64
5, 64238, Note_off_c, 3, 76, 64
5, 64320, Note_on_c, 3, 85, 50
5, 64436, Note_off_c, 3, 85, 64
5, 64440, Note_on_c, 3, 83, 50
5, 64672, Note_off_c, 3, 83, 64
5, 64680, Note_on_c, 3, 81, 50
5, 64913, Note_off_c, 3, 81, 64
5, 64920, Note_on_c, 3, 80, 50
5, 65280, Note_on_c, 3, 78, 50
5, 65299, Note_off_c, 3, 80, 64
5, 66138, Note_off_c, 3, 78, 64
5, 66240, Note_on_c, 3, 76, 50
5, 66551, Note_off_c, 3, 76, 64
5, 66600, Note_on_c, 3, 76, 50
5, 66835, Note_off_c, 3, 76, 64
5, 66840, Note_on_c, 3, 75, 50
5, 66956, Note_off_c, 3, 75, 64
5, 66960, Note_on_c, 3, 76, 50
5, 67484, Note_off_c, 3, 76, 64
5, 67560, Note_on_c, 3, 76, 50
5, 67800, Note_on_c, 3, 75, 50
5, 67817, Note_off_c, 3, 76, 64
5, 67920, Note_on_c, 3, 76, 50
5, 67923, Note_off_c, 3, 75, 64
5, 68078, Note_off_c, 3, 76, 64
5, 68160, Note_on_c, 3, 85, 50
5, 68276, Note_off_c, 3, 85, 64
5, 68280, Note_on_c, 3, 83, 50
5, 68512, Note_off_c, 3, 83, 64
5, 68520, Note_on_c, 3, 81, 50
5, 68753, Note_off_c, 3, 81, 64
5, 68760, Note_on_c, 3, 80, 50
5, 69120, Note_on_c, 3, 78, 50
5, 69139, Note_off_c, 3, 80, 64
5, 69978, Note_off_c, 3, 78, 64
5, 71040, Note_on_c, 3, 83, 50
5, 71375, Note_off_c, 3, 83, 64
5, 71400, Note_on_c, 3, 78, 50
5, 72000, Note_on_c, 3, 76, 50
5, 72007, Note_off_c, 3, 78, 64
5, 72326, Note_off_c, 3, 76, 64
5, 72360, Note_on_c, 3, 78, 50
5, 72600, Note_on_c, 3, 80, 50
5, 72608, Note_off_c, 3, 78, 64
5, 72693, Note_off_c, 3, 80, 64
5, 72720, Note_on_c, 3, 81, 50
5, 72960, Note_off_c, 3, 81, 64
5, 72960, Note_on_c, 3, 83, 50
5, 72960, Note_on_c, 3, 81, 50
5, 72962, Note_off_c, 3, 81, 64
5, 73320, Note_on_c, 3, 78, 50
5, 73329, Note_off_c, 3, 83, 64
5, 73893, Note_off_c, 3, 78, 64
5, 73920, Note_on_c, 3, 76, 50
5, 74277, Note_off_c, 3, 76, 64
5, 74280, Note_on_c, 3, 78, 50
5, 74520, Note_on_c, 3, 80, 50
5, 74540, Note_off_c, 3, 78, 64
5, 74633, Note_off_c, 3, 80, 64
5, 74640, Note_on_c, 3, 78, 50
5, 74748, Note_off_c, 3, 78, 64
5, 74760, Note_on_c, 3, 76, 50
5, 74833, Note_off_c, 3, 76, 64
5, 74880, Note_on_c, 3, 76, 50
5, 75191, Note_off_c, 3, 76, 64
5, 75240, Note_on_c, 3, 76, 50
5, 75475, Note_off_c, 3, 76, 64
5, 75480, Note_on_c, 3, 75, 50
5, 75596, Note_off_c, 3, 75, 64
5, 75600, Note_on_c, 3, 76, 50
5, 76124, Note_off_c, 3, 76, 64
5, 76200, Note_on_c, 3, 76, 50
5, 76440, Note_on_c, 3, 75, 50
5, 76457, Note_off_c, 3, 76, 64
5, 76560, Note_on_c, 3, 76, 50
5, 76563, Note_off_c, 3, 75, 64
5, 76718, Note_off_c, 3, 76, 64
5, 76800, Note_on_c, 3, 85, 50
5, 76916, Note_off_c, 3, 85, 64
5, 76920, Note_on_c, 3, 83, 50
5, 77152, Note_off_c, 3, 83, 64
5, 77160, Note_on_c, 3, 81, 50
5, 77393, Note_off_c, 3, 81, 64
5, 77400, Note_on_c, 3, 80, 50
5, 77760, Note_on_c, 3, 78, 50
5, 77779, Note_off_c, 3, 80, 64
5, 78618, Note_off_c, 3, 78, 64
5, 78720, Note_on_c, 3, 83, 50
5, 79055, Note_off_c, 3, 83, 64
5, 79080, Note_on_c, 3, 78, 50
5, 79680, Note_on_c, 3, 76, 50
5, 79687, Note_off_c, 3, 78, 64
5, 80006, Note_off_c, 3, 76, 64
5, 80040, Note_on_c, 3, 78, 50
5, 80280, Note_on_c, 3, 80, 50
5, 80288, Note_off_c, 3, 78, 64
5, 80373, Note_off_c, 3, 80, 64
5, 80400, Note_on_c, 3, 81, 50
5, 80640, Note_off_c, 3, 81, 64
5, 80640, Note_on_c, 3, 83, 50
5, 80640, Note_on_c, 3, 81, 50
5, 80642, Note_off_c, 3, 81, 64
5, 81000, Note_on_c, 3, 78, 50
5, 81009, Note_off_c, 3, 83, 64
5, 81573, Note_off_c, 3, 78, 64
5, 81600, Note_on_c, 3, 76, 50
5, 81957, Note_off_c, 3, 76, 64
5, 81960, Note_on_c, 3, 78, 50
5, 82200, Note_on_c, 3, 80, 50
5, 82220, Note_off_c, 3, 78, 64
5, 82313, Note_off_c, 3, 80, 64
5, 82320, Note_on_c, 3, 78, 50
5, 82428, Note_off_c, 3, 78, 64
5, 82440, Note_on_c, 3, 76, 50
5, 82513, Note_off_c, 3, 76, 64
5, 82560, Note_on_c, 3, 76, 50
5, 82871, Note_off_c, 3, 76, 64
5, 82920, Note_on_c, 3, 76, 50
5, 83155, Note_off_c, 3, 76, 64
5, 83160, Note_on_c, 3, 75, 50
5, 83276, Note_off_c, 3, 75, 64
5, 83280, Note_on_c, 3, 76, 50
5, 83804, Note_off_c, 3, 76, 64
5, 83880, Note_on_c, 3, 76, 50
5, 84120, Note_on_c, 3, 75, 50
5, 84137, Note_off_c, 3, 76, 64
5, 84240, Note_on_c, 3, 76, 50
5, 84243, Note_off_c, 3, 75, 64
5, 84398, Note_off_c, 3, 76, 64
5, 84480, Note_on_c, 3, 85, 50
5, 84596, Note_off_c, 3, 85, 64
5, 84600, Note_on_c, 3, 83, 50
5, 84832, Note_off_c, 3, 83, 64
5, 84840, Note_on_c, 3, 81, 50
5, 85073, Note_off_c, 3, 81, 64
5, 85080, Note_on_c, 3, 80, 50
5, 85440, Note_on_c, 3, 78, 50
5, 85459, Note_off_c, 3, 80, 64
5, 88260, Note_off_c, 3, 78, 64
5, 96000, Note_on_c, 3, 83, 60
5, 99803, Note_off_c, 3, 83, 64
5, 99840, Note_on_c, 3, 83, 55
5, 101760, Note_on_c, 3, 81, 65
5, 101765, Note_off_c, 3, 83, 64
5, 102060, Note_on_c, 3, 80, 51
5, 102099, Note_off_c, 3, 81, 64
5, 102562, Note_off_c, 3, 80, 64
5, 102600, Note_on_c, 3, 76, 51
5, 102720, Note_on_c, 3, 78, 56
5, 102743, Note_off_c, 3, 76, 64
5, 103320, Note_on_c, 3, 80, 56
5, 103338, Note_off_c, 3, 78, 64
5, 103620, Note_on_c, 3, 76, 48
5, 105589, Note_off_c, 3, 76, 64
5, 105600, Note_off_c, 3, 80, 64
5, 105600, End_track
6, 0, Start_track
6, 0, Text_t, "fantasia"
6, 0, Program_c, 4, 88
6, 0, Control_c, 4, 7, 80
6, 0, Control_c, 4, 93, 40
6, 0, Control_c, 4, 91, 75
6, 0, Control_c, 4, 10, 84
6, 960, Note_on_c, 4, 83, 80
6, 1020, Note_off_c, 4, 83, 64
6, 1080, Note_on_c, 4, 81, 80
6, 1140, Note_off_c, 4, 81, 64
6, 1320, Note_on_c, 4, 79, 80
6, 1380, Note_off_c, 4, 79, 64
6, 1560, Note_on_c, 4, 78, 80
6, 1620, Note_off_c, 4, 78, 64
6, 1800, Note_on_c, 4, 76, 80
6, 1860, Note_off_c, 4, 76, 64
6, 2880, Note_on_c, 4, 71, 80
6, 2940, Note_off_c, 4, 71, 64
6, 3000, Note_on_c, 4, 69, 80
6, 3060, Note_off_c, 4, 69, 64
6, 3240, Note_on_c, 4, 67, 80
6, 3300, Note_off_c, 4, 67, 64
6, 3480, Note_on_c, 4, 66, 80
6, 3540, Note_off_c, 4, 66, 64
6, 3840, Note_on_c, 4, 64, 80
6, 3900, Note_off_c, 4, 64, 64
6, 19200, Note_on_c, 4, 81, 86
6, 19260, Note_off_c, 4, 81, 64
6, 19560, Note_on_c, 4, 76, 92
6, 19620, Note_off_c, 4, 76, 64
6, 20160, Note_on_c, 4, 74, 83
6, 20220, Note_off_c, 4, 74, 64
6, 20520, Note_on_c, 4, 76, 97
6, 20580, Note_off_c, 4, 76, 64
6, 20760, Note_on_c, 4, 78, 75
6, 20820, Note_off_c, 4, 78, 64
6, 20880, Note_on_c, 4, 79, 86
6, 20940, Note_off_c, 4, 79, 64
6, 21120, Note_on_c, 4, 81, 86
6, 21180, Note_off_c, 4, 81, 64
6, 21480, Note_on_c, 4, 76, 88
6, 21540, Note_off_c, 4, 76, 64
6, 22080, Note_on_c, 4, 74, 86
6, 22140, Note_off_c, 4, 74, 64
6, 22440, Note_on_c, 4, 76, 100
6, 22500, Note_off_c, 4, 76, 64
6, 22680, Note_on_c, 4, 78, 84
6, 22740, Note_off_c, 4, 78, 64
6, 22800, Note_on_c, 4, 76, 85
6, 22860, Note_off_c, 4, 76, 64
6, 22920, Note_on_c, 4, 74, 86
6, 22980, Note_off_c, 4, 74, 64
6, 23040, Note_on_c, 4, 74, 90
6, 23100, Note_off_c, 4, 74, 64
6, 23400, Note_on_c, 4, 74, 80
6, 23460, Note_off_c, 4, 74, 64
6, 23640, Note_on_c, 4, 73, 77
6, 23700, Note_off_c, 4, 73, 64
6, 23760, Note_on_c, 4, 74, 82
6, 23820, Note_off_c, 4, 74, 64
6, 24360, Note_on_c, 4, 74, 79
6, 24420, Note_off_c, 4, 74, 64
6, 24600, Note_on_c, 4, 73, 75
6, 24660, Note_off_c, 4, 73, 64
6, 24720, Note_on_c, 4, 74, 85
6, 24780, Note_off_c, 4, 74, 64
6, 24960, Note_on_c, 4, 83, 86
6, 25020, Note_off_c, 4, 83, 64
6, 25080, Note_on_c, 4, 81, 80
6, 25140, Note_off_c, 4, 81, 64
6, 25320, Note_on_c, 4, 79, 86
6, 25380, Note_off_c, 4, 79, 64
6, 25560, Note_on_c, 4, 78, 86
6, 25620, Note_off_c, 4, 78, 64
6, 25920, Note_on_c, 4, 76, 78
6, 25980, Note_off_c, 4, 76, 64
6, 26880, Note_on_c, 4, 74, 86
6, 26940, Note_off_c, 4, 74, 64
6, 42240, Note_on_c, 4, 81, 86
6, 42300, Note_off_c, 4, 81, 64
6, 42600, Note_on_c, 4, 76, 92
6, 42660, Note_off_c, 4, 76, 64
6, 43200, Note_on_c, 4, 74, 83
6, 43260, Note_off_c, 4, 74, 64
6, 43560, Note_on_c, 4, 76, 97
6, 43620, Note_off_c, 4, 76, 64
6, 43800, Note_on_c, 4, 78, 75
6, 43860, Note_off_c, 4, 78, 64
6, 43920, Note_on_c, 4, 79, 86
6, 43980, Note_off_c, 4, 79, 64
6, 44160, Note_on_c, 4, 81, 86
6, 44220, Note_off_c, 4, 81, 64
6, 44520, Note_on_c, 4, 76, 88
6, 44580, Note_off_c, 4, 76, 64
6, 45120, Note_on_c, 4, 74, 86
6, 45180, Note_off_c, 4, 74, 64
6, 45480, Note_on_c, 4, 76, 100
6, 45540, Note_off_c, 4, 76, 64
6, 45720, Note_on_c, 4, 78, 84
6, 45780, Note_off_c, 4, 78, 64
6, 45840, Note_on_c, 4, 76, 85
6, 45900, Note_off_c, 4, 76, 64
6, 45960, Note_on_c, 4, 74, 86
6, 46020, Note_off_c, 4, 74, 64
6, 46080, Note_on_c, 4, 74, 90
6, 46140, Note_off_c, 4, 74, 64
6, 46440, Note_on_c, 4, 74, 80
6, 46500, Note_off_c, 4, 74, 64
6, 46680, Note_on_c, 4, 73, 77
6, 46740, Note_off_c, 4, 73, 64
6, 46800, Note_on_c, 4, 74, 82
6, 46860, Note_off_c, 4, 74, 64
6, 47400, Note_on_c, 4, 74, 79
6, 47460, Note_off_c, 4, 74, 64
6, 47640, Note_on_c, 4, 73, 75
6, 47700, Note_off_c, 4, 73, 64
6, 47760, Note_on_c, 4, 74, 85
6, 47820, Note_off_c, 4, 74, 64
6, 48000, Note_on_c, 4, 83, 86
6, 48060, Note_off_c, 4, 83, 64
6, 48120, Note_on_c, 4, 81, 80
6, 48180, Note_off_c, 4, 81, 64
6, 48360, Note_on_c, 4, 79, 86
6, 48420, Note_off_c, 4, 79, 64
6, 48600, Note_on_c, 4, 78, 86
6, 48660, Note_off_c, 4, 78, 64
6, 48960, Note_on_c, 4, 76, 78
6, 49020, Note_off_c, 4, 76, 64
6, 49920, Note_on_c, 4, 74, 86
6, 49980, Note_off_c, 4, 74, 64
6, 58560, Note_on_c, 4, 83, 86
6, 58620, Note_off_c, 4, 83, 64
6, 58920, Note_on_c, 4, 78, 92
6, 58980, Note_off_c, 4, 78, 64
6, 59520, Note_on_c, 4, 76, 83
6, 59580, Note_off_c, 4, 76, 64
6, 59880, Note_on_c, 4, 78, 97
6, 59940, Note_off_c, 4, 78, 64
6, 60120, Note_on_c, 4, 80, 75
6, 60180, Note_off_c, 4, 80, 64
6, 60240, Note_on_c, 4, 81, 86
6, 60300, Note_off_c, 4, 81, 64
6, 60480, Note_on_c, 4, 83, 86
6, 60540, Note_off_c, 4, 83, 64
6, 60840, Note_on_c, 4, 78, 88
6, 60900, Note_off_c, 4, 78, 64
6, 61440, Note_on_c, 4, 76, 86
6, 61500, Note_off_c, 4, 76, 64
6, 61800, Note_on_c, 4, 78, 100
6, 61860, Note_off_c, 4, 78, 64
6, 62040, Note_on_c, 4, 80, 84
6, 62100, Note_off_c, 4, 80, 64
6, 62160, Note_on_c, 4, 78, 85
6, 62220, Note_off_c, 4, 78, 64
6, 62280, Note_on_c, 4, 76, 86
6, 62340, Note_off_c, 4, 76, 64
6, 62400, Note_on_c, 4, 76, 90
6, 62460, Note_off_c, 4, 76, 64
6, 62760, Note_on_c, 4, 76, 80
6, 62820, Note_off_c, 4, 76, 64
6, 63000, Note_on_c, 4, 75, 77
6, 63060, Note_off_c, 4, 75, 64
6, 63120, Note_on_c, 4, 76, 82
6, 63180, Note_off_c, 4, 76, 64
6, 63720, Note_on_c, 4, 76, 79
6, 63780, Note_off_c, 4, 76, 64
6, 63960, Note_on_c, 4, 75, 75
6, 64020, Note_off_c, 4, 75, 64
6, 64080, Note_on_c, 4, 76, 85
6, 64140, Note_off_c, 4, 76, 64
6, 64320, Note_on_c, 4, 85, 86
6, 64380, Note_off_c, 4, 85, 64
6, 64440, Note_on_c, 4, 83, 80
6, 64500, Note_off_c, 4, 83, 64
6, 64680, Note_on_c, 4, 81, 86
6, 64740, Note_off_c, 4, 81, 64
6, 64920, Note_on_c, 4, 80, 86
6, 64980, Note_off_c, 4, 80, 64
6, 65280, Note_on_c, 4, 78, 78
6, 65340, Note_off_c, 4, 78, 64
6, 66240, Note_on_c, 4, 76, 90
6, 66300, Note_off_c, 4, 76, 64
6, 66600, Note_on_c, 4, 76, 80
6, 66660, Note_off_c, 4, 76, 64
6, 66840, Note_on_c, 4, 75, 77
6, 66900, Note_off_c, 4, 75, 64
6, 66960, Note_on_c, 4, 76, 82
6, 67020, Note_off_c, 4, 76, 64
6, 67560, Note_on_c, 4, 76, 79
6, 67620, Note_off_c, 4, 76, 64
6, 67800, Note_on_c, 4, 75, 75
6, 67860, Note_off_c, 4, 75, 64
6, 67920, Note_on_c, 4, 76, 85
6, 67980, Note_off_c, 4, 76, 64
6, 68160, Note_on_c, 4, 85, 86
6, 68220, Note_off_c, 4, 85, 64
6, 68280, Note_on_c, 4, 83, 80
6, 68340, Note_off_c, 4, 83, 64
6, 68520, Note_on_c, 4, 81, 86
6, 68580, Note_off_c, 4, 81, 64
6, 68760, Note_on_c, 4, 80, 86
6, 68820, Note_off_c, 4, 80, 64
6, 69120, Note_on_c, 4, 78, 78
6, 69180, Note_off_c, 4, 78, 64
6, 71040, Note_on_c, 4, 83, 86
6, 71100, Note_off_c, 4, 83, 64
6, 71400, Note_on_c, 4, 78, 92
6, 71460, Note_off_c, 4, 78, 64
6, 72000, Note_on_c, 4, 76, 83
6, 72060, Note_off_c, 4, 76, 64
6, 72360, Note_on_c, 4, 78, 97
6, 72420, Note_off_c, 4, 78, 64
6, 72600, Note_on_c, 4, 80, 75
6, 72660, Note_off_c, 4, 80, 64
6, 72720, Note_on_c, 4, 81, 86
6, 72780, Note_off_c, 4, 81, 64
6, 72960, Note_on_c, 4, 83, 86
6, 73020, Note_off_c, 4, 83, 64
6, 73320, Note_on_c, 4, 78, 88
6, 73380, Note_off_c, 4, 78, 64
6, 73920, Note_on_c, 4, 76, 86
6, 73980, Note_off_c, 4, 76, 64
6, 74280, Note_on_c, 4, 78, 100
6, 74340, Note_off_c, 4, 78, 64
6, 74520, Note_on_c, 4, 80, 84
6, 74580, Note_off_c, 4, 80, 64
6, 74640, Note_on_c, 4, 78, 85
6, 74700, Note_off_c, 4, 78, 64
6, 74760, Note_on_c, 4, 76, 86
6, 74820, Note_off_c, 4, 76, 64
6, 74880, Note_on_c, 4, 76, 90
6, 74940, Note_off_c, 4, 76, 64
6, 75240, Note_on_c, 4, 76, 80
6, 75300, Note_off_c, 4, 76, 64
6, 75480, Note_on_c, 4, 75, 77
6, 75540, Note_off_c, 4, 75, 64
6, 75600, Note_on_c, 4, 76, 82
6, 75660, Note_off_c, 4, 76, 64
6, 76200, Note_on_c, 4, 76, 79
6, 76260, Note_off_c, 4, 76, 64
6, 76440, Note_on_c, 4, 75, 75
6, 76500, Note_off_c, 4, 75, 64
6, 76560, Note_on_c, 4, 76, 85
6, 76620, Note_off_c, 4, 76, 64
6, 76800, Note_on_c, 4, 85, 86
6, 76860, Note_off_c, 4, 85, 64
6, 76920, Note_on_c, 4, 83, 80
6, 76980, Note_off_c, 4, 83, 64
6, 77160, Note_on_c, 4, 81, 86
6, 77220, Note_off_c, 4, 81, 64
6, 77400, Note_on_c, 4, 80, 86
6, 77460, Note_off_c, 4, 80, 64
6, 77760, Note_on_c, 4, 78, 78
6, 77820, Note_off_c, 4, 78, 64
6, 78720, Note_on_c, 4, 83, 86
6, 78780, Note_off_c, 4, 83, 64
6, 79080, Note_on_c, 4, 78, 92
6, 79140, Note_off_c, 4, 78, 64
6, 79680, Note_on_c, 4, 76, 83
6, 79740, Note_off_c, 4, 76, 64
6, 80040, Note_on_c, 4, 78, 97
6, 80100, Note_off_c, 4, 78, 64
6, 80280, Note_on_c, 4, 80, 75
6, 80340, Note_off_c, 4, 80, 64
6, 80400, Note_on_c, 4, 81, 86
6, 80460, Note_off_c, 4, 81, 64
6, 80640, Note_on_c, 4, 83, 86
6, 80700, Note_off_c, 4, 83, 64
6, 81000, Note_on_c, 4, 78, 88
6, 81060, Note_off_c, 4, 78, 64
6, 81600, Note_on_c, 4, 76, 86
6, 81660, Note_off_c, 4, 76, 64
6, 81960, Note_on_c, 4, 78, 100
6, 82020, Note_off_c, 4, 78, 64
6, 82200, Note_on_c, 4, 80, 84
6, 82260, Note_off_c, 4, 80, 64
6, 82320, Note_on_c, 4, 78, 85
6, 82380, Note_off_c, 4, 78, 64
6, 82440, Note_on_c, 4, 76, 86
6, 82500, Note_off_c, 4, 76, 64
6, 82560, Note_on_c, 4, 76, 90
6, 82620, Note_off_c, 4, 76, 64
6, 82920, Note_on_c, 4, 76, 80
6, 82980, Note_off_c, 4, 76, 64
6, 83160, Note_on_c, 4, 75, 77
6, 83220, Note_off_c, 4, 75, 64
6, 83280, Note_on_c, 4, 76, 82
6, 83340, Note_off_c, 4, 76, 64
6, 83880, Note_on_c, 4, 76, 79
6, 83940, Note_off_c, 4, 76, 64
6, 84120, Note_on_c, 4, 75, 75
6, 84180, Note_off_c, 4, 75, 64
6, 84240, Note_on_c, 4, 76, 85
6, 84300, Note_off_c, 4, 76, 64
6, 84480, Note_on_c, 4, 85, 86
6, 84540, Note_off_c, 4, 85, 64
6, 84600, Note_on_c, 4, 83, 80
6, 84660, Note_off_c, 4, 83, 64
6, 84840, Note_on_c, 4, 81, 86
6, 84900, Note_off_c, 4, 81, 64
6, 85080, Note_on_c, 4, 80, 86
6, 85140, Note_off_c, 4, 80, 64
6, 85440, Note_on_c, 4, 66, 81
6, 85500, Note_off_c, 4, 66, 64
6, 85620, Note_on_c, 4, 66, 66
6, 85680, Note_off_c, 4, 66, 64
6, 85800, Note_on_c, 4, 66, 71
6, 85860, Note_off_c, 4, 66, 64
6, 86040, Note_on_c, 4, 68, 86
6, 86100, Note_off_c, 4, 68, 64
6, 86160, Note_on_c, 4, 66, 86
6, 86220, Note_off_c, 4, 66, 64
6, 86280, Note_on_c, 4, 64, 72
6, 86340, Note_off_c, 4, 64, 64
6, 86400, Note_on_c, 4, 66, 81
6, 86460, Note_off_c, 4, 66, 64
6, 86580, Note_on_c, 4, 66, 66
6, 86640, Note_off_c, 4, 66, 64
6, 86760, Note_on_c, 4, 66, 71
6, 86820, Note_off_c, 4, 66, 64
6, 87000, Note_on_c, 4, 68, 86
6, 87060, Note_off_c, 4, 68, 64
6, 87120, Note_on_c, 4, 66, 86
6, 87180, Note_off_c, 4, 66, 64
6, 87240, Note_on_c, 4, 64, 72
6, 87300, Note_off_c, 4, 64, 64
6, 87360, Note_on_c, 4, 71, 83
6, 87420, Note_off_c, 4, 71, 64
6, 87540, Note_on_c, 4, 78, 92
6, 87600, Note_off_c, 4, 78, 64
6, 87720, Note_on_c, 4, 78, 84
6, 87780, Note_off_c, 4, 78, 64
6, 87960, Note_on_c, 4, 80, 81
6, 88020, Note_off_c, 4, 80, 64
6, 88080, Note_on_c, 4, 78, 86
6, 88140, Note_off_c, 4, 78, 64
6, 88200, Note_on_c, 4, 76, 80
6, 88260, Note_off_c, 4, 76, 64
6, 88320, Note_on_c, 4, 73, 79
6, 88380, Note_off_c, 4, 73, 64
6, 88680, Note_on_c, 4, 71, 73
6, 88740, Note_off_c, 4, 71, 64
6, 89100, Note_on_c, 4, 64, 76
6, 89160, Note_off_c, 4, 64, 64
6, 89280, Note_on_c, 4, 66, 77
6, 89340, Note_off_c, 4, 66, 64
6, 89460, Note_on_c, 4, 71, 80
6, 89520, Note_off_c, 4, 71, 64
6, 89640, Note_on_c, 4, 68, 79
6, 89700, Note_off_c, 4, 68, 64
6, 90240, Note_on_c, 4, 73, 79
6, 90300, Note_off_c, 4, 73, 64
6, 90600, Note_on_c, 4, 71, 66
6, 90660, Note_off_c, 4, 71, 64
6, 91020, Note_on_c, 4, 64, 71
6, 91080, Note_off_c, 4, 64, 64
6, 91200, Note_on_c, 4, 66, 71
6, 91260, Note_off_c, 4, 66, 64
6, 91380, Note_on_c, 4, 71, 82
6, 91440, Note_off_c, 4, 71, 64
6, 91560, Note_on_c, 4, 68, 77
6, 91620, Note_off_c, 4, 68, 64
6, 92040, Note_on_c, 4, 71, 80
6, 92100, Note_off_c, 4, 71, 64
6, 92160, Note_on_c, 4, 73, 71
6, 92220, Note_off_c, 4, 73, 64
6, 92520, Note_on_c, 4, 71, 75
6, 92580, Note_off_c, 4, 71, 64
6, 92940, Note_on_c, 4, 64, 70
6, 93000, Note_off_c, 4, 64, 64
6, 93120, Note_on_c, 4, 66, 63
6, 93180, Note_off_c, 4, 66, 64
6, 93300, Note_on_c, 4, 71, 78
6, 93360, Note_off_c, 4, 71, 64
6, 93480, Note_on_c, 4, 68, 79
6, 93540, Note_off_c, 4, 68, 64
6, 94080, Note_on_c, 4, 69, 76
6, 94140, Note_off_c, 4, 69, 64
6, 94440, Note_on_c, 4, 68, 84
6, 94500, Note_off_c, 4, 68, 64
6, 94920, Note_on_c, 4, 64, 71
6, 94980, Note_off_c, 4, 64, 64
6, 95040, Note_on_c, 4, 66, 79
6, 95100, Note_off_c, 4, 66, 64
6, 95400, Note_on_c, 4, 66, 84
6, 95460, Note_off_c, 4, 66, 64
6, 95640, Note_on_c, 4, 68, 81
6, 95700, Note_off_c, 4, 68, 64
6, 96000, Note_on_c, 4, 73, 79
6, 96060, Note_off_c, 4, 73, 64
6, 96360, Note_on_c, 4, 71, 73
6, 96420, Note_off_c, 4, 71, 64
6, 96780, Note_on_c, 4, 64, 76
6, 96840, Note_off_c, 4, 64, 64
6, 96960, Note_on_c, 4, 66, 77
6, 97020, Note_off_c, 4, 66, 64
6, 97140, Note_on_c, 4, 71, 80
6, 97200, Note_off_c, 4, 71, 64
6, 97320, Note_on_c, 4, 68, 79
6, 97380, Note_off_c, 4, 68, 64
6, 97920, Note_on_c, 4, 73, 79
6, 97980, Note_off_c, 4, 73, 64
6, 98280, Note_on_c, 4, 71, 66
6, 98340, Note_off_c, 4, 71, 64
6, 98700, Note_on_c, 4, 64, 71
6, 98760, Note_off_c, 4, 64, 64
6, 98880, Note_on_c, 4, 66, 71
6, 98940, Note_off_c, 4, 66, 64
6, 99060, Note_on_c, 4, 71, 82
6, 99120, Note_off_c, 4, 71, 64
6, 99240, Note_on_c, 4, 68, 77
6, 99300, Note_off_c, 4, 68, 64
6, 99720, Note_on_c, 4, 71, 80
6, 99780, Note_off_c, 4, 71, 64
6, 99840, Note_on_c, 4, 73, 71
6, 99900, Note_off_c, 4, 73, 64
6, 100200, Note_on_c, 4, 71, 75
6, 100260, Note_off_c, 4, 71, 64
6, 100620, Note_on_c, 4, 64, 70
6, 100680, Note_off_c, 4, 64, 64
6, 100800, Note_on_c, 4, 66, 63
6, 100860, Note_off_c, 4, 66, 64
6, 100980, Note_on_c, 4, 71, 78
6, 101040, Note_off_c, 4, 71, 64
6, 101160, Note_on_c, 4, 68, 79
6, 101220, Note_off_c, 4, 68, 64
6, 101760, Note_on_c, 4, 69, 76
6, 101820, Note_off_c, 4, 69, 64
6, 102120, Note_on_c, 4, 68, 84
6, 102180, Note_off_c, 4, 68, 64
6, 102600, Note_on_c, 4, 64, 71
6, 102660, Note_off_c, 4, 64, 64
6, 102720, Note_on_c, 4, 66, 79
6, 102780, Note_off_c, 4, 66, 64
6, 103080, Note_on_c, 4, 66, 84
6, 103140, Note_off_c, 4, 66, 64
6, 103320, Note_on_c, 4, 68, 81
6, 103380, Note_off_c, 4, 68, 64
6, 103680, Note_on_c, 4, 64, 90
6, 103740, Note_off_c, 4, 64, 64
6, 103740, End_track
7, 0, Start_track
7, 0, Text_t, "solo"
7, 0, Program_c, 5, 30
7, 0, Control_c, 5, 7, 100
7, 0, Control_c, 5, 93, 40
7, 0, Control_c, 5, 91, 40
7, 0, Control_c, 5, 10, 64
7, 50697, Note_on_c, 5, 60, 100
7, 50762, Note_on_c, 5, 65, 100
7, 50769, Note_off_c, 5, 60, 64
7, 50826, Note_on_c, 5, 67, 100
7, 50834, Note_off_c, 5, 65, 64
7, 50880, Note_off_c, 5, 67, 64
7, 50895, Note_on_c, 5, 69, 100
7, 51202, Control_c, 5, 1, 2
7, 51207, Control_c, 5, 1, 7
7, 51210, Control_c, 5, 1, 13
7, 51215, Control_c, 5, 1, 19
7, 51219, Control_c, 5, 1, 23
7, 51222, Control_c, 5, 1, 28
7, 51226, Control_c, 5, 1, 31
7, 51230, Control_c, 5, 1, 34
7, 51234, Control_c, 5, 1, 37
7, 51237, Control_c, 5, 1, 41
7, 51242, Control_c, 5, 1, 46
7, 51246, Control_c, 5, 1, 55
7, 51250, Control_c, 5, 1, 61
7, 51254, Control_c, 5, 1, 67
7, 51258, Control_c, 5, 1, 71
7, 51262, Control_c, 5, 1, 73
7, 51265, Control_c, 5, 1, 75
7, 51269, Control_c, 5, 1, 77
7, 51273, Control_c, 5, 1, 78
7, 51277, Control_c, 5, 1, 79
7, 51282, Control_c, 5, 1, 80
7, 51285, Control_c, 5, 1, 81
7, 51289, Control_c, 5, 1, 83
7, 51293, Control_c, 5, 1, 84
7, 51297, Control_c, 5, 1, 85
7, 51300, Control_c, 5, 1, 86
7, 51304, Control_c, 5, 1, 88
7, 51308, Control_c, 5, 1, 89
7, 51313, Control_c, 5, 1, 90
7, 51317, Control_c, 5, 1, 91
7, 51327, Control_c, 5, 1, 92
7, 51342, Control_c, 5, 1, 93
7, 51385, Control_c, 5, 1, 94
7, 51428, Control_c, 5, 1, 93
7, 51432, Control_c, 5, 1, 92
7, 51490, Control_c, 5, 1, 91
7, 51497, Control_c, 5, 1, 90
7, 51505, Control_c, 5, 1, 89
7, 51508, Control_c, 5, 1, 88
7, 51512, Control_c, 5, 1, 86
7, 51517, Control_c, 5, 1, 85
7, 51520, Control_c, 5, 1, 83
7, 51525, Control_c, 5, 1, 80
7, 51528, Control_c, 5, 1, 78
7, 51532, Control_c, 5, 1, 75
7, 51536, Control_c, 5, 1, 71
7, 51540, Control_c, 5, 1, 68
7, 51543, Control_c, 5, 1, 62
7, 51548, Control_c, 5, 1, 57
7, 51552, Control_c, 5, 1, 52
7, 51555, Control_c, 5, 1, 45
7, 51559, Control_c, 5, 1, 39
7, 51563, Control_c, 5, 1, 32
7, 51567, Control_c, 5, 1, 24
7, 51571, Control_c, 5, 1, 15
7, 51575, Control_c, 5, 1, 9
7, 51579, Control_c, 5, 1, 4
7, 51583, Control_c, 5, 1, 1
7, 51586, Control_c, 5, 1, 0
7, 51590, Control_c, 5, 1, 0
7, 51681, Note_off_c, 5, 69, 64
7, 51725, Note_on_c, 5, 71, 100
7, 51777, Pitch_bend_c, 5, 8416
7, 51781, Pitch_bend_c, 5, 8770
7, 51786, Pitch_bend_c, 5, 9155
7, 51789, Pitch_bend_c, 5, 9573
7, 51793, Pitch_bend_c, 5, 10023
7, 51797, Pitch_bend_c, 5, 10505
7, 51801, Pitch_bend_c, 5, 10858
7, 51805, Pitch_bend_c, 5, 11115
7, 51809, Pitch_bend_c, 5, 11372
7, 51813, Pitch_bend_c, 5, 11597
7, 51818, Pitch_bend_c, 5, 11757
7, 51821, Pitch_bend_c, 5, 11886
7, 51825, Pitch_bend_c, 5, 11950
7, 51829, Pitch_bend_c, 5, 11757
7, 51833, Pitch_bend_c, 5, 11565
7, 51837, Pitch_bend_c, 5, 11115
7, 51840, Pitch_bend_c, 5, 10569
7, 51851, Pitch_bend_c, 5, 9412
7, 51855, Pitch_bend_c, 5, 8706
7, 51861, Pitch_bend_c, 5, 8384
7, 51865, Pitch_bend_c, 5, 8192
7, 52063, Note_off_c, 5, 71, 64
7, 52067, Note_on_c, 5, 72, 100
7, 52199, Note_off_c, 5, 72, 64
7, 52204, Note_on_c, 5, 67, 100
7, 52336, Control_c, 5, 1, 2
7, 52339, Control_c, 5, 1, 8
7, 52344, Control_c, 5, 1, 14
7, 52347, Control_c, 5, 1, 20
7, 52351, Control_c, 5, 1, 26
7, 52354, Control_c, 5, 1, 30
7, 52358, Control_c, 5, 1, 35
7, 52363, Control_c, 5, 1, 39
7, 52367, Control_c, 5, 1, 42
7, 52371, Control_c, 5, 1, 45
7, 52375, Control_c, 5, 1, 48
7, 52378, Control_c, 5, 1, 51
7, 52382, Control_c, 5, 1, 53
7, 52386, Control_c, 5, 1, 54
7, 52415, Control_c, 5, 1, 53
7, 52422, Control_c, 5, 1, 52
7, 52426, Control_c, 5, 1, 51
7, 52429, Control_c, 5, 1, 50
7, 52434, Control_c, 5, 1, 48
7, 52438, Control_c, 5, 1, 46
7, 52442, Control_c, 5, 1, 43
7, 52446, Control_c, 5, 1, 40
7, 52450, Control_c, 5, 1, 36
7, 52453, Control_c, 5, 1, 31
7, 52457, Control_c, 5, 1, 25
7, 52461, Control_c, 5, 1, 20
7, 52465, Control_c, 5, 1, 14
7, 52469, Control_c, 5, 1, 11
7, 52473, Control_c, 5, 1, 8
7, 52477, Control_c, 5, 1, 6
7, 52480, Control_c, 5, 1, 4
7, 52484, Control_c, 5, 1, 3
7, 52488, Control_c, 5, 1, 2
7, 52492, Control_c, 5, 1, 0
7, 52497, Control_c, 5, 1, 0
7, 52540, Note_off_c, 5, 67, 64
7, 52551, Note_on_c, 5, 62, 100
7, 52584, Pitch_bend_c, 5, 8481
7, 52587, Pitch_bend_c, 5, 9316
7, 52592, Pitch_bend_c, 5, 10344
7, 52595, Pitch_bend_c, 5, 11308
7, 52599, Pitch_bend_c, 5, 12207
7, 52603, Pitch_bend_c, 5, 13107
7, 52607, Pitch_bend_c, 5, 13781
7, 52611, Pitch_bend_c, 5, 14295
7, 52615, Pitch_bend_c, 5, 14617
7, 52620, Pitch_bend_c, 5, 14713
7, 52623, Pitch_bend_c, 5, 14681
7, 52627, Pitch_bend_c, 5, 14456
7, 52630, Pitch_bend_c, 5, 14070
7, 52635, Pitch_bend_c, 5, 13267
7, 52638, Pitch_bend_c, 5, 12271
7, 52642, Pitch_bend_c, 5, 11243
7, 52647, Pitch_bend_c, 5, 10248
7, 52651, Pitch_bend_c, 5, 9701
7, 52655, Pitch_bend_c, 5, 9155
7, 52659, Pitch_bend_c, 5, 8706
7, 52662, Pitch_bend_c, 5, 8416
7, 52666, Pitch_bend_c, 5, 8256
7, 52669, Pitch_bend_c, 5, 8192
7, 52682, Note_off_c, 5, 62, 64
7, 52686, Note_on_c, 5, 60, 100
7, 52781, Note_off_c, 5, 60, 64
7, 52807, Note_on_c, 5, 69, 100
7, 53029, Note_off_c, 5, 69, 64
7, 53033, Note_on_c, 5, 72, 100
7, 53152, Note_off_c, 5, 72, 64
7, 53174, Note_on_c, 5, 79, 100
7, 53180, Pitch_bend_c, 5, 8384
7, 53185, Pitch_bend_c, 5, 8706
7, 53188, Pitch_bend_c, 5, 9091
7, 53192, Pitch_bend_c, 5, 9798
7, 53196, Pitch_bend_c, 5, 10729
7, 53200, Pitch_bend_c, 5, 11597
7, 53204, Pitch_bend_c, 5, 12432
7, 53207, Pitch_bend_c, 5, 13107
7, 53211, Pitch_bend_c, 5, 13556
7, 53216, Pitch_bend_c, 5, 13910
7, 53219, Pitch_bend_c, 5, 14231
7, 53224, Pitch_bend_c, 5, 14713
7, 53228, Pitch_bend_c, 5, 15227
7, 53232, Pitch_bend_c, 5, 15709
7, 53236, Pitch_bend_c, 5, 16223
7, 53240, Pitch_bend_c, 5, 16383
7, 53371, Control_c, 5, 1, 3
7, 53375, Control_c, 5, 1, 16
7, 53379, Control_c, 5, 1, 34
7, 53384, Control_c, 5, 1, 51
7, 53387, Control_c, 5, 1, 65
7, 53391, Control_c, 5, 1, 75
7, 53395, Control_c, 5, 1, 83
7, 53399, Control_c, 5, 1, 88
7, 53403, Control_c, 5, 1, 91
7, 53406, Control_c, 5, 1, 94
7, 53410, Control_c, 5, 1, 96
7, 53414, Control_c, 5, 1, 100
7, 53418, Control_c, 5, 1, 103
7, 53422, Control_c, 5, 1, 106
7, 53425, Control_c, 5, 1, 108
7, 53429, Control_c, 5, 1, 110
7, 53433, Control_c, 5, 1, 112
7, 53437, Control_c, 5, 1, 113
7, 53453, Control_c, 5, 1, 112
7, 53456, Control_c, 5, 1, 111
7, 53460, Control_c, 5, 1, 110
7, 53468, Control_c, 5, 1, 109
7, 53471, Control_c, 5, 1, 108
7, 53475, Control_c, 5, 1, 107
7, 53478, Control_c, 5, 1, 106
7, 53482, Control_c, 5, 1, 105
7, 53486, Control_c, 5, 1, 104
7, 53490, Control_c, 5, 1, 103
7, 53495, Control_c, 5, 1, 101
7, 53497, Control_c, 5, 1, 100
7, 53509, Control_c, 5, 1, 99
7, 53517, Control_c, 5, 1, 97
7, 53520, Control_c, 5, 1, 96
7, 53524, Control_c, 5, 1, 93
7, 53529, Control_c, 5, 1, 88
7, 53532, Control_c, 5, 1, 80
7, 53536, Control_c, 5, 1, 62
7, 53540, Control_c, 5, 1, 37
7, 53544, Control_c, 5, 1, 17
7, 53548, Control_c, 5, 1, 7
7, 53552, Pitch_bend_c, 5, 16319
7, 53552, Control_c, 5, 1, 2
7, 53556, Pitch_bend_c, 5, 14841
7, 53556, Control_c, 5, 1, 0
7, 53560, Pitch_bend_c, 5, 12593
7, 53561, Control_c, 5, 1, 0
7, 53565, Pitch_bend_c, 5, 10344
7, 53569, Pitch_bend_c, 5, 9155
7, 53570, Note_off_c, 5, 79, 64
7, 53574, Pitch_bend_c, 5, 8609
7, 53577, Pitch_bend_c, 5, 8320
7, 53581, Pitch_bend_c, 5, 8192
7, 53582, Note_on_c, 5, 79, 100
7, 53636, Note_off_c, 5, 79, 64
7, 53636, Note_on_c, 5, 77, 100
7, 53756, Note_on_c, 5, 79, 100
7, 53766, Note_off_c, 5, 77, 64
7, 53951, Note_off_c, 5, 79, 64
7, 53987, Note_on_c, 5, 79, 100
7, 54002, Pitch_bend_c, 5, 8706
7, 54005, Pitch_bend_c, 5, 9958
7, 54009, Pitch_bend_c, 5, 11436
7, 54013, Pitch_bend_c, 5, 12914
7, 54017, Pitch_bend_c, 5, 14199
7, 54021, Pitch_bend_c, 5, 15227
7, 54025, Pitch_bend_c, 5, 16094
7, 54029, Pitch_bend_c, 5, 16383
7, 54094, Pitch_bend_c, 5, 16159
7, 54097, Pitch_bend_c, 5, 14617
7, 54102, Pitch_bend_c, 5, 12689
7, 54105, Pitch_bend_c, 5, 10665
7, 54106, Note_off_c, 5, 79, 64
7, 54111, Pitch_bend_c, 5, 9348
7, 54114, Pitch_bend_c, 5, 8706
7, 54115, Note_on_c, 5, 74, 100
7, 54119, Pitch_bend_c, 5, 8384
7, 54123, Pitch_bend_c, 5, 8192
7, 54130, Pitch_bend_c, 5, 8384
7, 54135, Pitch_bend_c, 5, 9637
7, 54138, Pitch_bend_c, 5, 11565
7, 54142, Pitch_bend_c, 5, 13524
7, 54146, Pitch_bend_c, 5, 14841
7, 54150, Pitch_bend_c, 5, 15645
7, 54154, Pitch_bend_c, 5, 16030
7, 54157, Pitch_bend_c, 5, 16223
7, 54161, Pitch_bend_c, 5, 16383
7, 54279, Control_c, 5, 1, 2
7, 54283, Control_c, 5, 1, 12
7, 54287, Control_c, 5, 1, 25
7, 54292, Control_c, 5, 1, 36
7, 54295, Control_c, 5, 1, 42
7, 54299, Control_c, 5, 1, 46
7, 54302, Control_c, 5, 1, 53
7, 54306, Control_c, 5, 1, 59
7, 54310, Control_c, 5, 1, 67
7, 54314, Control_c, 5, 1, 75
7, 54318, Control_c, 5, 1, 81
7, 54322, Control_c, 5, 1, 87
7, 54326, Control_c, 5, 1, 91
7, 54330, Control_c, 5, 1, 94
7, 54333, Control_c, 5, 1, 96
7, 54337, Control_c, 5, 1, 98
7, 54341, Control_c, 5, 1, 99
7, 54345, Control_c, 5, 1, 100
7, 54392, Control_c, 5, 1, 99
7, 54399, Control_c, 5, 1, 98
7, 54425, Control_c, 5, 1, 97
7, 54438, Control_c, 5, 1, 98
7, 54465, Control_c, 5, 1, 97
7, 54469, Control_c, 5, 1, 96
7, 54473, Control_c, 5, 1, 94
7, 54476, Control_c, 5, 1, 93
7, 54480, Control_c, 5, 1, 91
7, 54483, Control_c, 5, 1, 90
7, 54489, Control_c, 5, 1, 88
7, 54492, Control_c, 5, 1, 86
7, 54496, Control_c, 5, 1, 83
7, 54500, Control_c, 5, 1, 80
7, 54504, Control_c, 5, 1, 78
7, 54508, Control_c, 5, 1, 76
7, 54511, Control_c, 5, 1, 73
7, 54515, Control_c, 5, 1, 70
7, 54519, Control_c, 5, 1, 65
7, 54523, Control_c, 5, 1, 59
7, 54527, Control_c, 5, 1, 52
7, 54532, Control_c, 5, 1, 44
7, 54535, Control_c, 5, 1, 33
7, 54539, Control_c, 5, 1, 20
7, 54543, Control_c, 5, 1, 9
7, 54547, Control_c, 5, 1, 3
7, 54550, Control_c, 5, 1, 0
7, 54554, Control_c, 5, 1, 0
7, 54562, Pitch_bend_c, 5, 16319
7, 54567, Pitch_bend_c, 5, 15002
7, 54570, Pitch_bend_c, 5, 13364
7, 54573, Pitch_bend_c, 5, 11661
7, 54577, Pitch_bend_c, 5, 9958
7, 54581, Pitch_bend_c, 5, 8995
7, 54585, Pitch_bend_c, 5, 8545
7, 54586, Note_off_c, 5, 74, 64
7, 54590, Pitch_bend_c, 5, 8320
7, 54594, Pitch_bend_c, 5, 8192
7, 54603, Note_on_c, 5, 72, 100
7, 54616, Pitch_bend_c, 5, 8545
7, 54620, Pitch_bend_c, 5, 9637
7, 54625, Pitch_bend_c, 5, 11243
7, 54628, Pitch_bend_c, 5, 13203
7, 54632, Pitch_bend_c, 5, 14906
7, 54636, Pitch_bend_c, 5, 16159
7, 54640, Pitch_bend_c, 5, 16383
7, 54722, Pitch_bend_c, 5, 15131
7, 54733, Pitch_bend_c, 5, 11597
7, 54737, Pitch_bend_c, 5, 9798
7, 54743, Pitch_bend_c, 5, 8930
7, 54747, Pitch_bend_c, 5, 8481
7, 54751, Pitch_bend_c, 5, 8256
7, 54754, Pitch_bend_c, 5, 8192
7, 54891, Control_c, 5, 1, 4
7, 54895, Control_c, 5, 1, 11
7, 54899, Control_c, 5, 1, 19
7, 54903, Control_c, 5, 1, 25
7, 54907, Control_c, 5, 1, 28
7, 54910, Control_c, 5, 1, 31
7, 54914, Control_c, 5, 1, 33
7, 54918, Control_c, 5, 1, 34
7, 54922, Control_c, 5, 1, 37
7, 54926, Control_c, 5, 1, 42
7, 54930, Control_c, 5, 1, 48
7, 54933, Control_c, 5, 1, 56
7, 54937, Control_c, 5, 1, 62
7, 54941, Control_c, 5, 1, 67
7, 54945, Control_c, 5, 1, 71
7, 54949, Control_c, 5, 1, 74
7, 54953, Control_c, 5, 1, 77
7, 54957, Control_c, 5, 1, 79
7, 54960, Control_c, 5, 1, 82
7, 54964, Control_c, 5, 1, 86
7, 54969, Control_c, 5, 1, 90
7, 54972, Control_c, 5, 1, 93
7, 54976, Control_c, 5, 1, 96
7, 54980, Control_c, 5, 1, 99
7, 54984, Control_c, 5, 1, 102
7, 54988, Control_c, 5, 1, 104
7, 54991, Control_c, 5, 1, 106
7, 54995, Control_c, 5, 1, 107
7, 54999, Control_c, 5, 1, 109
7, 55003, Control_c, 5, 1, 111
7, 55006, Control_c, 5, 1, 113
7, 55011, Control_c, 5, 1, 114
7, 55015, Control_c, 5, 1, 116
7, 55019, Control_c, 5, 1, 118
7, 55023, Control_c, 5, 1, 119
7, 55042, Control_c, 5, 1, 120
7, 55074, Control_c, 5, 1, 121
7, 55120, Control_c, 5, 1, 120
7, 55131, Control_c, 5, 1, 119
7, 55141, Control_c, 5, 1, 118
7, 55157, Control_c, 5, 1, 117
7, 55161, Control_c, 5, 1, 115
7, 55165, Control_c, 5, 1, 114
7, 55200, Control_c, 5, 1, 113
7, 55204, Control_c, 5, 1, 112
7, 55211, Control_c, 5, 1, 111
7, 55215, Control_c, 5, 1, 110
7, 55223, Control_c, 5, 1, 109
7, 55227, Control_c, 5, 1, 108
7, 55231, Control_c, 5, 1, 107
7, 55234, Control_c, 5, 1, 106
7, 55238, Control_c, 5, 1, 104
7, 55242, Control_c, 5, 1, 103
7, 55260, Control_c, 5, 1, 104
7, 55282, Control_c, 5, 1, 105
7, 55292, Control_c, 5, 1, 106
7, 55308, Control_c, 5, 1, 105
7, 55311, Control_c, 5, 1, 104
7, 55314, Control_c, 5, 1, 103
7, 55336, Control_c, 5, 1, 102
7, 55351, Control_c, 5, 1, 103
7, 55358, Control_c, 5, 1, 104
7, 55376, Control_c, 5, 1, 105
7, 55398, Control_c, 5, 1, 104
7, 55430, Control_c, 5, 1, 105
7, 55456, Control_c, 5, 1, 106
7, 55467, Control_c, 5, 1, 107
7, 55474, Control_c, 5, 1, 108
7, 55510, Control_c, 5, 1, 109
7, 55557, Control_c, 5, 1, 108
7, 55601, Control_c, 5, 1, 106
7, 55604, Control_c, 5, 1, 105
7, 55607, Control_c, 5, 1, 104
7, 55612, Control_c, 5, 1, 103
7, 55615, Control_c, 5, 1, 101
7, 55619, Control_c, 5, 1, 97
7, 55623, Control_c, 5, 1, 92
7, 55628, Control_c, 5, 1, 88
7, 55632, Control_c, 5, 1, 84
7, 55636, Control_c, 5, 1, 78
7, 55640, Control_c, 5, 1, 70
7, 55645, Control_c, 5, 1, 44
7, 55649, Control_c, 5, 1, 21
7, 55650, Note_off_c, 5, 72, 64
7, 55654, Control_c, 5, 1, 9
7, 55658, Control_c, 5, 1, 3
7, 55662, Control_c, 5, 1, 0
7, 55665, Control_c, 5, 1, 0
7, 56281, Note_on_c, 5, 76, 100
7, 56335, Pitch_bend_c, 5, 8481
7, 56339, Pitch_bend_c, 5, 8995
7, 56343, Pitch_bend_c, 5, 9766
7, 56347, Pitch_bend_c, 5, 10505
7, 56350, Pitch_bend_c, 5, 11179
7, 56355, Pitch_bend_c, 5, 11822
7, 56358, Pitch_bend_c, 5, 12271
7, 56363, Pitch_bend_c, 5, 12689
7, 56366, Pitch_bend_c, 5, 12978
7, 56370, Pitch_bend_c, 5, 13139
7, 56374, Pitch_bend_c, 5, 13267
7, 56378, Pitch_bend_c, 5, 13332
7, 56385, Pitch_bend_c, 5, 13203
7, 56389, Pitch_bend_c, 5, 12914
7, 56393, Pitch_bend_c, 5, 12432
7, 56398, Pitch_bend_c, 5, 11500
7, 56401, Pitch_bend_c, 5, 9958
7, 56406, Pitch_bend_c, 5, 8995
7, 56410, Pitch_bend_c, 5, 8545
7, 56413, Pitch_bend_c, 5, 8320
7, 56417, Pitch_bend_c, 5, 8192
7, 56454, Note_on_c, 5, 72, 100
7, 56458, Note_off_c, 5, 76, 64
7, 56519, Note_off_c, 5, 72, 64
7, 56520, Note_on_c, 5, 67, 100
7, 56582, Note_on_c, 5, 65, 100
7, 56589, Note_off_c, 5, 67, 64
7, 56635, Note_off_c, 5, 65, 64
7, 56639, Note_on_c, 5, 64, 100
7, 56870, Control_c, 5, 1, 0
7, 56874, Control_c, 5, 1, 1
7, 56878, Control_c, 5, 1, 3
7, 56882, Control_c, 5, 1, 5
7, 56886, Control_c, 5, 1, 7
7, 56890, Control_c, 5, 1, 9
7, 56894, Control_c, 5, 1, 12
7, 56898, Control_c, 5, 1, 17
7, 56902, Control_c, 5, 1, 23
7, 56906, Control_c, 5, 1, 28
7, 56910, Control_c, 5, 1, 35
7, 56913, Control_c, 5, 1, 41
7, 56918, Control_c, 5, 1, 48
7, 56922, Control_c, 5, 1, 54
7, 56925, Control_c, 5, 1, 59
7, 56929, Control_c, 5, 1, 63
7, 56933, Control_c, 5, 1, 67
7, 56937, Control_c, 5, 1, 70
7, 56941, Control_c, 5, 1, 73
7, 56944, Control_c, 5, 1, 75
7, 56949, Control_c, 5, 1, 78
7, 56953, Control_c, 5, 1, 80
7, 56958, Control_c, 5, 1, 83
7, 56961, Control_c, 5, 1, 85
7, 56964, Control_c, 5, 1, 87
7, 56969, Control_c, 5, 1, 89
7, 56972, Control_c, 5, 1, 90
7, 56976, Control_c, 5, 1, 91
7, 56980, Control_c, 5, 1, 92
7, 56984, Control_c, 5, 1, 93
7, 56989, Control_c, 5, 1, 94
7, 56992, Control_c, 5, 1, 95
7, 57000, Control_c, 5, 1, 96
7, 57003, Control_c, 5, 1, 98
7, 57007, Control_c, 5, 1, 100
7, 57011, Control_c, 5, 1, 101
7, 57015, Control_c, 5, 1, 102
7, 57020, Control_c, 5, 1, 103
7, 57023, Control_c, 5, 1, 104
7, 57028, Control_c, 5, 1, 105
7, 57031, Control_c, 5, 1, 106
7, 57035, Control_c, 5, 1, 107
7, 57042, Control_c, 5, 1, 108
7, 57046, Control_c, 5, 1, 109
7, 57054, Control_c, 5, 1, 110
7, 57058, Control_c, 5, 1, 111
7, 57061, Control_c, 5, 1, 112
7, 57065, Control_c, 5, 1, 113
7, 57073, Control_c, 5, 1, 114
7, 57077, Control_c, 5, 1, 115
7, 57109, Control_c, 5, 1, 116
7, 57117, Control_c, 5, 1, 117
7, 57135, Control_c, 5, 1, 118
7, 57142, Control_c, 5, 1, 119
7, 57153, Control_c, 5, 1, 120
7, 57172, Control_c, 5, 1, 121
7, 57175, Control_c, 5, 1, 122
7, 57197, Control_c, 5, 1, 123
7, 57212, Control_c, 5, 1, 124
7, 57237, Control_c, 5, 1, 125
7, 57289, Control_c, 5, 1, 126
7, 57335, Control_c, 5, 1, 125
7, 57346, Control_c, 5, 1, 124
7, 57350, Control_c, 5, 1, 123
7, 57357, Control_c, 5, 1, 122
7, 57361, Control_c, 5, 1, 121
7, 57370, Control_c, 5, 1, 120
7, 57406, Control_c, 5, 1, 119
7, 57417, Control_c, 5, 1, 120
7, 57556, Control_c, 5, 1, 119
7, 57563, Control_c, 5, 1, 118
7, 57567, Control_c, 5, 1, 117
7, 57570, Control_c, 5, 1, 114
7, 57574, Control_c, 5, 1, 110
7, 57578, Control_c, 5, 1, 102
7, 57582, Control_c, 5, 1, 85
7, 57586, Control_c, 5, 1, 54
7, 57591, Note_off_c, 5, 64, 64
7, 57591, Control_c, 5, 1, 25
7, 57595, Control_c, 5, 1, 11
7, 57599, Control_c, 5, 1, 4
7, 57603, Control_c, 5, 1, 1
7, 57613, Control_c, 5, 1, 0
7, 57617, Control_c, 5, 1, 0
7, 57729, Note_on_c, 5, 73, 100
7, 57830, Note_off_c, 5, 73, 64
7, 57837, Note_on_c, 5, 76, 100
7, 57950, Note_off_c, 5, 76, 64
7, 57960, Note_on_c, 5, 83, 100
7, 57978, Pitch_bend_c, 5, 8545
7, 57983, Pitch_bend_c, 5, 9541
7, 57988, Pitch_bend_c, 5, 10633
7, 57991, Pitch_bend_c, 5, 11822
7, 57995, Pitch_bend_c, 5, 12914
7, 57999, Pitch_bend_c, 5, 13781
7, 58003, Pitch_bend_c, 5, 14424
7, 58008, Pitch_bend_c, 5, 14906
7, 58011, Pitch_bend_c, 5, 15227
7, 58016, Pitch_bend_c, 5, 15452
7, 58020, Pitch_bend_c, 5, 15709
7, 58023, Pitch_bend_c, 5, 15934
7, 58027, Pitch_bend_c, 5, 16159
7, 58031, Pitch_bend_c, 5, 16383
7, 58074, Pitch_bend_c, 5, 16223
7, 58078, Pitch_bend_c, 5, 15773
7, 58082, Pitch_bend_c, 5, 15131
7, 58092, Pitch_bend_c, 5, 12271
7, 58097, Pitch_bend_c, 5, 10151
7, 58101, Pitch_bend_c, 5, 9091
7, 58105, Pitch_bend_c, 5, 8609
7, 58110, Pitch_bend_c, 5, 8320
7, 58114, Pitch_bend_c, 5, 8192
7, 58283, Control_c, 5, 1, 0
7, 58287, Control_c, 5, 1, 2
7, 58291, Control_c, 5, 1, 6
7, 58295, Control_c, 5, 1, 10
7, 58298, Control_c, 5, 1, 15
7, 58302, Control_c, 5, 1, 20
7, 58306, Control_c, 5, 1, 25
7, 58310, Control_c, 5, 1, 31
7, 58314, Control_c, 5, 1, 41
7, 58318, Control_c, 5, 1, 51
7, 58323, Control_c, 5, 1, 59
7, 58332, Control_c, 5, 1, 71
7, 58336, Control_c, 5, 1, 79
7, 58341, Control_c, 5, 1, 87
7, 58345, Control_c, 5, 1, 92
7, 58349, Control_c, 5, 1, 97
7, 58354, Control_c, 5, 1, 102
7, 58357, Control_c, 5, 1, 105
7, 58361, Control_c, 5, 1, 108
7, 58365, Control_c, 5, 1, 111
7, 58369, Control_c, 5, 1, 114
7, 58373, Control_c, 5, 1, 117
7, 58377, Control_c, 5, 1, 120
7, 58381, Control_c, 5, 1, 121
7, 58385, Control_c, 5, 1, 122
7, 58392, Control_c, 5, 1, 124
7, 58396, Control_c, 5, 1, 126
7, 58400, Control_c, 5, 1, 127
7, 58558, Control_c, 5, 1, 124
7, 58562, Control_c, 5, 1, 108
7, 58566, Control_c, 5, 1, 61
7, 58570, Control_c, 5, 1, 29
7, 58574, Note_off_c, 5, 83, 64
7, 58574, Control_c, 5, 1, 13
7, 58577, Control_c, 5, 1, 5
7, 58582, Control_c, 5, 1, 1
7, 58586, Control_c, 5, 1, 0
7, 58590, Control_c, 5, 1, 0
7, 58590, End_track
8, 0, Start_track
8, 0, Text_t, "shaker"
8, 0, Program_c, 9, 0
8, 0, Control_c, 9, 7, 100
8, 0, Control_c, 9, 93, 0
8, 0, Control_c, 9, 91, 40
8, 0, Control_c, 9, 10, 64
8, 960, Note_on_c, 9, 70, 75
8, 1008, Note_off_c, 9, 70, 64
8, 1080, Note_on_c, 9, 70, 40
8, 1120, Note_off_c, 9, 70, 64
8, 1200, Note_on_c, 9, 70, 75
8, 1244, Note_off_c, 9, 70, 64
8, 1320, Note_on_c, 9, 70, 40
8, 1368, Note_off_c, 9, 70, 64
8, 1440, Note_on_c, 9, 70, 77
8, 1487, Note_off_c, 9, 70, 64
8, 1560, Note_on_c, 9, 70, 40
8, 1614, Note_off_c, 9, 70, 64
8, 1680, Note_on_c, 9, 70, 75
8, 1722, Note_off_c, 9, 70, 64
8, 1800, Note_on_c, 9, 70, 40
8, 1837, Note_off_c, 9, 70, 64
8, 1920, Note_on_c, 9, 70, 75
8, 1968, Note_off_c, 9, 70, 64
8, 2040, Note_on_c, 9, 70, 40
8, 2080, Note_off_c, 9, 70, 64
8, 2160, Note_on_c, 9, 70, 75
8, 2204, Note_off_c, 9, 70, 64
8, 2280, Note_on_c, 9, 70, 40
8, 2328, Note_off_c, 9, 70, 64
8, 2400, Note_on_c, 9, 70, 77
8, 2447, Note_off_c, 9, 70, 64
8, 2520, Note_on_c, 9, 70, 40
8, 2574, Note_off_c, 9, 70, 64
8, 2640, Note_on_c, 9, 70, 75
8, 2682, Note_off_c, 9, 70, 64
8, 2760, Note_on_c, 9, 70, 40
8, 2797, Note_off_c, 9, 70, 64
8, 2880, Note_on_c, 9, 70, 75
8, 2928, Note_off_c, 9, 70, 64
8, 3000, Note_on_c, 9, 70, 40
8, 3040, Note_off_c, 9, 70, 64
8, 3120, Note_on_c, 9, 70, 75
8, 3164, Note_off_c, 9, 70, 64
8, 3240, Note_on_c, 9, 70, 40
8, 3288, Note_off_c, 9, 70, 64
8, 3360, Note_on_c, 9, 70, 77
8, 3407, Note_off_c, 9, 70, 64
8, 3480, Note_on_c, 9, 70, 40
8, 3534, Note_off_c, 9, 70, 64
8, 3600, Note_on_c, 9, 70, 75
8, 3642, Note_off_c, 9, 70, 64
8, 3720, Note_on_c, 9, 70, 40
8, 3757, Note_off_c, 9, 70, 64
8, 3840, Note_on_c, 9, 70, 75
8, 3888, Note_off_c, 9, 70, 64
8, 3960, Note_on_c, 9, 70, 40
8, 4000, Note_off_c, 9, 70, 64
8, 4080, Note_on_c, 9, 70, 75
8, 4124, Note_off_c, 9, 70, 64
8, 4200, Note_on_c, 9, 70, 40
8, 4248, Note_off_c, 9, 70, 64
8, 4320, Note_on_c, 9, 70, 77
8, 4367, Note_off_c, 9, 70, 64
8, 4440, Note_on_c, 9, 70, 40
8, 4494, Note_off_c, 9, 70, 64
8, 4560, Note_on_c, 9, 70, 75
8, 4602, Note_off_c, 9, 70, 64
8, 4680, Note_on_c, 9, 70, 40
8, 4717, Note_off_c, 9, 70, 64
8, 4800, Note_on_c, 9, 70, 75
8, 4848, Note_off_c, 9, 70, 64
8, 4920, Note_on_c, 9, 70, 40
8, 4960, Note_off_c, 9, 70, 64
8, 5040, Note_on_c, 9, 70, 75
8, 5084, Note_off_c, 9, 70, 64
8, 5160, Note_on_c, 9, 70, 40
8, 5208, Note_off_c, 9, 70, 64
8, 5280, Note_on_c, 9, 70, 77
8, 5327, Note_off_c, 9, 70, 64
8, 5400, Note_on_c, 9, 70, 40
8, 5454, Note_off_c, 9, 70, 64
8, 5520, Note_on_c, 9, 70, 75
8, 5562, Note_off_c, 9, 70, 64
8, 5640, Note_on_c, 9, 70, 40
8, 5677, Note_off_c, 9, 70, 64
8, 5760, Note_on_c, 9, 70, 75
8, 5808, Note_off_c, 9, 70, 64
8, 5880, Note_on_c, 9, 70, 40
8, 5920, Note_off_c, 9, 70, 64
8, 6000, Note_on_c, 9, 70, 75
8, 6044, Note_off_c, 9, 70, 64
8, 6120, Note_on_c, 9, 70, 40
8, 6168, Note_off_c, 9, 70, 64
8, 6240, Note_on_c, 9, 70, 77
8, 6287, Note_off_c, 9, 70, 64
8, 6360, Note_on_c, 9, 70, 40
8, 6414, Note_off_c, 9, 70, 64
8, 6480, Note_on_c, 9, 70, 75
8, 6522, Note_off_c, 9, 70, 64
8, 6600, Note_on_c, 9, 70, 40
8, 6637, Note_off_c, 9, 70, 64
8, 6720, Note_on_c, 9, 70, 75
8, 6768, Note_off_c, 9, 70, 64
8, 6840, Note_on_c, 9, 70, 40
8, 6880, Note_off_c, 9, 70, 64
8, 6960, Note_on_c, 9, 70, 75
8, 7004, Note_off_c, 9, 70, 64
8, 7080, Note_on_c, 9, 70, 40
8, 7128, Note_off_c, 9, 70, 64
8, 7200, Note_on_c, 9, 70, 77
8, 7247, Note_off_c, 9, 70, 64
8, 7320, Note_on_c, 9, 70, 40
8, 7374, Note_off_c, 9, 70, 64
8, 7440, Note_on_c, 9, 70, 75
8, 7482, Note_off_c, 9, 70, 64
8, 7560, Note_on_c, 9, 70, 40
8, 7597, Note_off_c, 9, 70, 64
8, 7680, Note_on_c, 9, 70, 75
8, 7728, Note_off_c, 9, 70, 64
8, 7800, Note_on_c, 9, 70, 40
8, 7840, Note_off_c, 9, 70, 64
8, 7920, Note_on_c, 9, 70, 75
8, 7964, Note_off_c, 9, 70, 64
8, 8040, Note_on_c, 9, 70, 40
8, 8088, Note_off_c, 9, 70, 64
8, 8160, Note_on_c, 9, 70, 77
8, 8207, Note_off_c, 9, 70, 64
8, 8280, Note_on_c, 9, 70, 40
8, 8334, Note_off_c, 9, 70, 64
8, 8400, Note_on_c, 9, 70, 75
8, 8442, Note_off_c, 9, 70, 64
8, 8520, Note_on_c, 9, 70, 40
8, 8557, Note_off_c, 9, 70, 64
8, 8640, Note_on_c, 9, 70, 75
8, 8688, Note_off_c, 9, 70, 64
8, 8760, Note_on_c, 9, 70, 40
8, 8800, Note_off_c, 9, 70, 64
8, 8880, Note_on_c, 9, 70, 75
8, 8924, Note_off_c, 9, 70, 64
8, 9000, Note_on_c, 9, 70, 40
8, 9048, Note_off_c, 9, 70, 64
8, 9120, Note_on_c, 9, 70, 77
8, 9167, Note_off_c, 9, 70, 64
8, 9240, Note_on_c, 9, 70, 40
8, 9294, Note_off_c, 9, 70, 64
8, 9360, Note_on_c, 9, 70, 75
8, 9402, Note_off_c, 9, 70, 64
8, 9480, Note_on_c, 9, 70, 40
8, 9517, Note_off_c, 9, 70, 64
8, 9600, Note_on_c, 9, 70, 75
8, 9648, Note_off_c, 9, 70, 64
8, 9720, Note_on_c, 9, 70, 40
8, 9760, Note_off_c, 9, 70, 64
8, 9840, Note_on_c, 9, 70, 75
8, 9884, Note_off_c, 9, 70, 64
8, 9960, Note_on_c, 9, 70, 40
8, 10008, Note_off_c, 9, 70, 64
8, 10080, Note_on_c, 9, 70, 77
8, 10127, Note_off_c, 9, 70, 64
8, 10200, Note_on_c, 9, 70, 40
8, 10254, Note_off_c, 9, 70, 64
8, 10320, Note_on_c, 9, 70, 75
8, 10362, Note_off_c, 9, 70, 64
8, 10440, Note_on_c, 9, 70, 40
8, 10477, Note_off_c, 9, 70, 64
8, 10560, Note_on_c, 9, 70, 75
8, 10608, Note_off_c, 9, 70, 64
8, 10680, Note_on_c, 9, 70, 40
8, 10720, Note_off_c, 9, 70, 64
8, 10800, Note_on_c, 9, 70, 75
8, 10844, Note_off_c, 9, 70, 64
8, 10920, Note_on_c, 9, 70, 40
8, 10968, Note_off_c, 9, 70, 64
8, 11040, Note_on_c, 9, 70, 77
8, 11087, Note_off_c, 9, 70, 64
8, 11160, Note_on_c, 9, 70, 40
8, 11214, Note_off_c, 9, 70, 64
8, 11280, Note_on_c, 9, 70, 75
8, 11322, Note_off_c, 9, 70, 64
8, 11400, Note_on_c, 9, 70, 40
8, 11437, Note_off_c, 9, 70, 64
8, 11520, Note_on_c, 9, 70, 75
8, 11568, Note_off_c, 9, 70, 64
8, 11640, Note_on_c, 9, 70, 40
8, 11680, Note_off_c, 9, 70, 64
8, 11760, Note_on_c, 9, 70, 75
8, 11804, Note_off_c, 9, 70, 64
8, 11880, Note_on_c, 9, 70, 40
8, 11928, Note_off_c, 9, 70, 64
8, 12000, Note_on_c, 9, 70, 77
8, 12047, Note_off_c, 9, 70, 64
8, 12120, Note_on_c, 9, 70, 40
8, 12174, Note_off_c, 9, 70, 64
8, 12240, Note_on_c, 9, 70, 75
8, 12282, Note_off_c, 9, 70, 64
8, 12360, Note_on_c, 9, 70, 40
8, 12397, Note_off_c, 9, 70, 64
8, 12480, Note_on_c, 9, 70, 75
8, 12528, Note_off_c, 9, 70, 64
8, 12600, Note_on_c, 9, 70, 40
8, 12640, Note_off_c, 9, 70, 64
8, 12720, Note_on_c, 9, 70, 75
8, 12764, Note_off_c, 9, 70, 64
8, 12840, Note_on_c, 9, 70, 40
8, 12888, Note_off_c, 9, 70, 64
8, 12960, Note_on_c, 9, 70, 77
8, 13007, Note_off_c, 9, 70, 64
8, 13080, Note_on_c, 9, 70, 40
8, 13134, Note_off_c, 9, 70, 64
8, 13200, Note_on_c, 9, 70, 75
8, 13242, Note_off_c, 9, 70, 64
8, 13320, Note_on_c, 9, 70, 40
8, 13357, Note_off_c, 9, 70, 64
8, 13440, Note_on_c, 9, 70, 75
8, 13488, Note_off_c, 9, 70, 64
8, 13560, Note_on_c, 9, 70, 40
8, 13600, Note_off_c, 9, 70, 64
8, 13680, Note_on_c, 9, 70, 75
8, 13724, Note_off_c, 9, 70, 64
8, 13800, Note_on_c, 9, 70, 40
8, 13848, Note_off_c, 9, 70, 64
8, 13920, Note_on_c, 9, 70, 77
8, 13967, Note_off_c, 9, 70, 64
8, 14040, Note_on_c, 9, 70, 40
8, 14094, Note_off_c, 9, 70, 64
8, 14160, Note_on_c, 9, 70, 75
8, 14202, Note_off_c, 9, 70, 64
8, 14280, Note_on_c, 9, 70, 40
8, 14317, Note_off_c, 9, 70, 64
8, 14400, Note_on_c, 9, 70, 75
8, 14448, Note_off_c, 9, 70, 64
8, 14520, Note_on_c, 9, 70, 40
8, 14560, Note_off_c, 9, 70, 64
8, 14640, Note_on_c, 9, 70, 75
8, 14684, Note_off_c, 9, 70, 64
8, 14760, Note_on_c, 9, 70, 40
8, 14808, Note_off_c, 9, 70, 64
8, 14880, Note_on_c, 9, 70, 77
8, 14927, Note_off_c, 9, 70, 64
8, 15000, Note_on_c, 9, 70, 40
8, 15054, Note_off_c, 9, 70, 64
8, 15120, Note_on_c, 9, 70, 75
8, 15162, Note_off_c, 9, 70, 64
8, 15240, Note_on_c, 9, 70, 40
8, 15277, Note_off_c, 9, 70, 64
8, 15360, Note_on_c, 9, 70, 75
8, 15408, Note_off_c, 9, 70, 64
8, 15480, Note_on_c, 9, 70, 40
8, 15520, Note_off_c, 9, 70, 64
8, 15600, Note_on_c, 9, 70, 75
8, 15644, Note_off_c, 9, 70, 64
8, 15720, Note_on_c, 9, 70, 40
8, 15768, Note_off_c, 9, 70, 64
8, 15840, Note_on_c, 9, 70, 77
8, 15887, Note_off_c, 9, 70, 64
8, 15960, Note_on_c, 9, 70, 40
8, 16014, Note_off_c, 9, 70, 64
8, 16080, Note_on_c, 9, 70, 75
8, 16122, Note_off_c, 9, 70, 64
8, 16200, Note_on_c, 9, 70, 40
8, 16237, Note_off_c, 9, 70, 64
8, 16320, Note_on_c, 9, 70, 75
8, 16368, Note_off_c, 9, 70, 64
8, 16440, Note_on_c, 9, 70, 40
8, 16480, Note_off_c, 9, 70, 64
8, 16560, Note_on_c, 9, 70, 75
8, 16604, Note_off_c, 9, 70, 64
8, 16680, Note_on_c, 9, 70, 40
8, 16728, Note_off_c, 9, 70, 64
8, 16800, Note_on_c, 9, 70, 77
8, 16847, Note_off_c, 9, 70, 64
8, 16920, Note_on_c, 9, 70, 40
8, 16974, Note_off_c, 9, 70, 64
8, 17040, Note_on_c, 9, 70, 75
8, 17082, Note_off_c, 9, 70, 64
8, 17160, Note_on_c, 9, 70, 40
8, 17197, Note_off_c, 9, 70, 64
8, 17280, Note_on_c, 9, 70, 75
8, 17328, Note_off_c, 9, 70, 64
8, 17400, Note_on_c, 9, 70, 40
8, 17440, Note_off_c, 9, 70, 64
8, 17520, Note_on_c, 9, 70, 75
8, 17564, Note_off_c, 9, 70, 64
8, 17640, Note_on_c, 9, 70, 40
8, 17688, Note_off_c, 9, 70, 64
8, 17760, Note_on_c, 9, 70, 77
8, 17807, Note_off_c, 9, 70, 64
8, 17880, Note_on_c, 9, 70, 40
8, 17934, Note_off_c, 9, 70, 64
8, 18000, Note_on_c, 9, 70, 75
8, 18042, Note_off_c, 9, 70, 64
8, 18120, Note_on_c, 9, 70, 40
8, 18157, Note_off_c, 9, 70, 64
8, 18240, Note_on_c, 9, 70, 75
8, 18288, Note_off_c, 9, 70, 64
8, 18360, Note_on_c, 9, 70, 40
8, 18400, Note_off_c, 9, 70, 64
8, 18480, Note_on_c, 9, 70, 75
8, 18524, Note_off_c, 9, 70, 64
8, 18600, Note_on_c, 9, 70, 40
8, 18648, Note_off_c, 9, 70, 64
8, 18720, Note_on_c, 9, 70, 77
8, 18767, Note_off_c, 9, 70, 64
8, 18840, Note_on_c, 9, 70, 40
8, 18894, Note_off_c, 9, 70, 64
8, 18960, Note_on_c, 9, 70, 75
8, 19002, Note_off_c, 9, 70, 64
8, 19080, Note_on_c, 9, 70, 40
8, 19117, Note_off_c, 9, 70, 64
8, 19200, Note_on_c, 9, 70, 75
8, 19248, Note_off_c, 9, 70, 64
8, 19320, Note_on_c, 9, 70, 40
8, 19360, Note_off_c, 9, 70, 64
8, 19440, Note_on_c, 9, 70, 75
8, 19484, Note_off_c, 9, 70, 64
8, 19560, Note_on_c, 9, 70, 40
8, 19608, Note_off_c, 9, 70, 64
8, 19680, Note_on_c, 9, 70, 77
8, 19727, Note_off_c, 9, 70, 64
8, 19800, Note_on_c, 9, 70, 40
8, 19854, Note_off_c, 9, 70, 64
8, 19920, Note_on_c, 9, 70, 75
8, 19962, Note_off_c, 9, 70, 64
8, 20040, Note_on_c, 9, 70, 40
8, 20077, Note_off_c, 9, 70, 64
8, 20160, Note_on_c, 9, 70, 75
8, 20208, Note_off_c, 9, 70, 64
8, 20280, Note_on_c, 9, 70, 40
8, 20320, Note_off_c, 9, 70, 64
8, 20400, Note_on_c, 9, 70, 75
8, 20444, Note_off_c, 9, 70, 64
8, 20520, Note_on_c, 9, 70, 40
8, 20568, Note_off_c, 9, 70, 64
8, 20640, Note_on_c, 9, 70, 77
8, 20687, Note_off_c, 9, 70, 64
8, 20760, Note_on_c, 9, 70, 40
8, 20814, Note_off_c, 9, 70, 64
8, 20880, Note_on_c, 9, 70, 75
8, 20922, Note_off_c, 9, 70, 64
8, 21000, Note_on_c, 9, 70, 40
8, 21037, Note_off_c, 9, 70, 64
8, 21120, Note_on_c, 9, 70, 75
8, 21168, Note_off_c, 9, 70, 64
8, 21240, Note_on_c, 9, 70, 40
8, 21280, Note_off_c, 9, 70, 64
8, 21360, Note_on_c, 9, 70, 75
8, 21404, Note_off_c, 9, 70, 64
8, 21480, Note_on_c, 9, 70, 40
8, 21528, Note_off_c, 9, 70, 64
8, 21600, Note_on_c, 9, 70, 77
8, 21647, Note_off_c, 9, 70, 64
8, 21720, Note_on_c, 9, 70, 40
8, 21774, Note_off_c, 9, 70, 64
8, 21840, Note_on_c, 9, 70, 75
8, 21882, Note_off_c, 9, 70, 64
8, 21960, Note_on_c, 9, 70, 40
8, 21997, Note_off_c, 9, 70, 64
8, 22080, Note_on_c, 9, 70, 75
8, 22128, Note_off_c, 9, 70, 64
8, 22200, Note_on_c, 9, 70, 40
8, 22240, Note_off_c, 9, 70, 64
8, 22320, Note_on_c, 9, 70, 75
8, 22364, Note_off_c, 9, 70, 64
8, 22440, Note_on_c, 9, 70, 40
8, 22488, Note_off_c, 9, 70, 64
8, 22560, Note_on_c, 9, 70, 77
8, 22607, Note_off_c, 9, 70, 64
8, 22680, Note_on_c, 9, 70, 40
8, 22734, Note_off_c, 9, 70, 64
8, 22800, Note_on_c, 9, 70, 75
8, 22842, Note_off_c, 9, 70, 64
8, 22920, Note_on_c, 9, 70, 40
8, 22957, Note_off_c, 9, 70, 64
8, 23040, Note_on_c, 9, 70, 75
8, 23088, Note_off_c, 9, 70, 64
8, 23160, Note_on_c, 9, 70, 40
8, 23200, Note_off_c, 9, 70, 64
8, 23280, Note_on_c, 9, 70, 75
8, 23324, Note_off_c, 9, 70, 64
8, 23400, Note_on_c, 9, 70, 40
8, 23448, Note_off_c, 9, 70, 64
8, 23520, Note_on_c, 9, 70, 77
8, 23567, Note_off_c, 9, 70, 64
8, 23640, Note_on_c, 9, 70, 40
8, 23694, Note_off_c, 9, 70, 64
8, 23760, Note_on_c, 9, 70, 75
8, 23802, Note_off_c, 9, 70, 64
8, 23880, Note_on_c, 9, 70, 40
8, 23917, Note_off_c, 9, 70, 64
8, 24000, Note_on_c, 9, 70, 75
8, 24048, Note_off_c, 9, 70, 64
8, 24120, Note_on_c, 9, 70, 40
8, 24160, Note_off_c, 9, 70, 64
8, 24240, Note_on_c, 9, 70, 75
8, 24284, Note_off_c, 9, 70, 64
8, 24360, Note_on_c, 9, 70, 40
8, 24408, Note_off_c, 9, 70, 64
8, 24480, Note_on_c, 9, 70, 77
8, 24527, Note_off_c, 9, 70, 64
8, 24600, Note_on_c, 9, 70, 40
8, 24654, Note_off_c, 9, 70, 64
8, 24720, Note_on_c, 9, 70, 75
8, 24762, Note_off_c, 9, 70, 64
8, 24840, Note_on_c, 9, 70, 40
8, 24877, Note_off_c, 9, 70, 64
8, 24960, Note_on_c, 9, 70, 75
8, 25008, Note_off_c, 9, 70, 64
8, 25080, Note_on_c, 9, 70, 40
8, 25120, Note_off_c, 9, 70, 64
8, 25200, Note_on_c, 9, 70, 75
8, 25244, Note_off_c, 9, 70, 64
8, 25320, Note_on_c, 9, 70, 40
8, 25368, Note_off_c, 9, 70, 64
8, 25440, Note_on_c, 9, 70, 77
8, 25487, Note_off_c, 9, 70, 64
8, 25560, Note_on_c, 9, 70, 40
8, 25614, Note_off_c, 9, 70, 64
8, 25680, Note_on_c, 9, 70, 75
8, 25722, Note_off_c, 9, 70, 64
8, 25800, Note_on_c, 9, 70, 40
8, 25837, Note_off_c, 9, 70, 64
8, 25920, Note_on_c, 9, 70, 75
8, 25968, Note_off_c, 9, 70, 64
8, 26040, Note_on_c, 9, 70, 40
8, 26080, Note_off_c, 9, 70, 64
8, 26160, Note_on_c, 9, 70, 75
8, 26204, Note_off_c, 9, 70, 64
8, 26280, Note_on_c, 9, 70, 40
8, 26328, Note_off_c, 9, 70, 64
8, 26400, Note_on_c, 9, 70, 77
8, 26447, Note_off_c, 9, 70, 64
8, 26520, Note_on_c, 9, 70, 40
8, 26574, Note_off_c, 9, 70, 64
8, 26640, Note_on_c, 9, 70, 75
8, 26682, Note_off_c, 9, 70, 64
8, 26760, Note_on_c, 9, 70, 40
8, 26797, Note_off_c, 9, 70, 64
8, 26880, Note_on_c, 9, 70, 75
8, 26928, Note_off_c, 9, 70, 64
8, 27000, Note_on_c, 9, 70, 40
8, 27040, Note_off_c, 9, 70, 64
8, 27120, Note_on_c, 9, 70, 75
8, 27164, Note_off_c, 9, 70, 64
8, 27240, Note_on_c, 9, 70, 40
8, 27288, Note_off_c, 9, 70, 64
8, 27360, Note_on_c, 9, 70, 77
8, 27407, Note_off_c, 9, 70, 64
8, 27480, Note_on_c, 9, 70, 40
8, 27534, Note_off_c, 9, 70, 64
8, 27600, Note_on_c, 9, 70, 75
8, 27642, Note_off_c, 9, 70, 64
8, 27720, Note_on_c, 9, 70, 40
8, 27757, Note_off_c, 9, 70, 64
8, 27840, Note_on_c, 9, 70, 75
8, 27888, Note_off_c, 9, 70, 64
8, 27960, Note_on_c, 9, 70, 40
8, 28000, Note_off_c, 9, 70, 64
8, 28080, Note_on_c, 9, 70, 75
8, 28124, Note_off_c, 9, 70, 64
8, 28200, Note_on_c, 9, 70, 40
8, 28248, Note_off_c, 9, 70, 64
8, 28320, Note_on_c, 9, 70, 77
8, 28367, Note_off_c, 9, 70, 64
8, 28440, Note_on_c, 9, 70, 40
8, 28494, Note_off_c, 9, 70, 64
8, 28560, Note_on_c, 9, 70, 75
8, 28602, Note_off_c, 9, 70, 64
8, 28680, Note_on_c, 9, 70, 40
8, 28717, Note_off_c, 9, 70, 64
8, 28800, Note_on_c, 9, 70, 75
8, 28848, Note_off_c, 9, 70, 64
8, 28920, Note_on_c, 9, 70, 40
8, 28960, Note_off_c, 9, 70, 64
8, 29040, Note_on_c, 9, 70, 75
8, 29084, Note_off_c, 9, 70, 64
8, 29160, Note_on_c, 9, 70, 40
8, 29208, Note_off_c, 9, 70, 64
8, 29280, Note_on_c, 9, 70, 77
8, 29327, Note_off_c, 9, 70, 64
8, 29400, Note_on_c, 9, 70, 40
8, 29454, Note_off_c, 9, 70, 64
8, 29520, Note_on_c, 9, 70, 75
8, 29562, Note_off_c, 9, 70, 64
8, 29640, Note_on_c, 9, 70, 40
8, 29677, Note_off_c, 9, 70, 64
8, 29760, Note_on_c, 9, 70, 75
8, 29808, Note_off_c, 9, 70, 64
8, 29880, Note_on_c, 9, 70, 40
8, 29920, Note_off_c, 9, 70, 64
8, 30000, Note_on_c, 9, 70, 75
8, 30044, Note_off_c, 9, 70, 64
8, 30120, Note_on_c, 9, 70, 40
8, 30168, Note_off_c, 9, 70, 64
8, 30240, Note_on_c, 9, 70, 77
8, 30287, Note_off_c, 9, 70, 64
8, 30360, Note_on_c, 9, 70, 40
8, 30414, Note_off_c, 9, 70, 64
8, 30480, Note_on_c, 9, 70, 75
8, 30522, Note_off_c, 9, 70, 64
8, 30600, Note_on_c, 9, 70, 40
8, 30637, Note_off_c, 9, 70, 64
8, 30720, Note_on_c, 9, 70, 75
8, 30768, Note_off_c, 9, 70, 64
8, 30840, Note_on_c, 9, 70, 40
8, 30880, Note_off_c, 9, 70, 64
8, 30960, Note_on_c, 9, 70, 75
8, 31004, Note_off_c, 9, 70, 64
8, 31080, Note_on_c, 9, 70, 40
8, 31128, Note_off_c, 9, 70, 64
8, 31200, Note_on_c, 9, 70, 77
8, 31247, Note_off_c, 9, 70, 64
8, 31320, Note_on_c, 9, 70, 40
8, 31374, Note_off_c, 9, 70, 64
8, 31440, Note_on_c, 9, 70, 75
8, 31482, Note_off_c, 9, 70, 64
8, 31560, Note_on_c, 9, 70, 40
8, 31597, Note_off_c, 9, 70, 64
8, 31680, Note_on_c, 9, 70, 75
8, 31728, Note_off_c, 9, 70, 64
8, 31800, Note_on_c, 9, 70, 40
8, 31840, Note_off_c, 9, 70, 64
8, 31920, Note_on_c, 9, 70, 75
8, 31964, Note_off_c, 9, 70, 64
8, 32040, Note_on_c, 9, 70, 40
8, 32088, Note_off_c, 9, 70, 64
8, 32160, Note_on_c, 9, 70, 77
8, 32207, Note_off_c, 9, 70, 64
8, 32280, Note_on_c, 9, 70, 40
8, 32334, Note_off_c, 9, 70, 64
8, 32400, Note_on_c, 9, 70, 75
8, 32442, Note_off_c, 9, 70, 64
8, 32520, Note_on_c, 9, 70, 40
8, 32557, Note_off_c, 9, 70, 64
8, 32640, Note_on_c, 9, 70, 75
8, 32688, Note_off_c, 9, 70, 64
8, 32760, Note_on_c, 9, 70, 40
8, 32800, Note_off_c, 9, 70, 64
8, 32880, Note_on_c, 9, 70, 75
8, 32924, Note_off_c, 9, 70, 64
8, 33000, Note_on_c, 9, 70, 40
8, 33048, Note_off_c, 9, 70, 64
8, 33120, Note_on_c, 9, 70, 77
8, 33167, Note_off_c, 9, 70, 64
8, 33240, Note_on_c, 9, 70, 40
8, 33294, Note_off_c, 9, 70, 64
8, 33360, Note_on_c, 9, 70, 75
8, 33402, Note_off_c, 9, 70, 64
8, 33480, Note_on_c, 9, 70, 40
8, 33517, Note_off_c, 9, 70, 64
8, 33600, Note_on_c, 9, 70, 75
8, 33648, Note_off_c, 9, 70, 64
8, 33720, Note_on_c, 9, 70, 40
8, 33760, Note_off_c, 9, 70, 64
8, 33840, Note_on_c, 9, 70, 75
8, 33884, Note_off_c, 9, 70, 64
8, 33960, Note_on_c, 9, 70, 40
8, 34008, Note_off_c, 9, 70, 64
8, 34080, Note_on_c, 9, 70, 77
8, 34127, Note_off_c, 9, 70, 64
8, 34200, Note_on_c, 9, 70, 40
8, 34254, Note_off_c, 9, 70, 64
8, 34320, Note_on_c, 9, 70, 75
8, 34362, Note_off_c, 9, 70, 64
8, 34440, Note_on_c, 9, 70, 40
8, 34477, Note_off_c, 9, 70, 64
8, 34560, Note_on_c, 9, 70, 75
8, 34608, Note_off_c, 9, 70, 64
8, 34680, Note_on_c, 9, 70, 40
8, 34720, Note_off_c, 9, 70, 64
8, 34800, Note_on_c, 9, 70, 75
8, 34844, Note_off_c, 9, 70, 64
8, 34920, Note_on_c, 9, 70, 40
8, 34968, Note_off_c, 9, 70, 64
8, 35040, Note_on_c, 9, 70, 77
8, 35087, Note_off_c, 9, 70, 64
8, 35160, Note_on_c, 9, 70, 40
8, 35214, Note_off_c, 9, 70, 64
8, 35280, Note_on_c, 9, 70, 75
8, 35322, Note_off_c, 9, 70, 64
8, 35400, Note_on_c, 9, 70, 40
8, 35437, Note_off_c, 9, 70, 64
8, 35520, Note_on_c, 9, 70, 75
8, 35568, Note_off_c, 9, 70, 64
8, 35640, Note_on_c, 9, 70, 40
8, 35680, Note_off_c, 9, 70, 64
8, 35760, Note_on_c, 9, 70, 75
8, 35804, Note_off_c, 9, 70, 64
8, 35880, Note_on_c, 9, 70, 40
8, 35928, Note_off_c, 9, 70, 64
8, 36000, Note_on_c, 9, 70, 77
8, 36047, Note_off_c, 9, 70, 64
8, 36120, Note_on_c, 9, 70, 40
8, 36174, Note_off_c, 9, 70, 64
8, 36240, Note_on_c, 9, 70, 75
8, 36282, Note_off_c, 9, 70, 64
8, 36360, Note_on_c, 9, 70, 40
8, 36397, Note_off_c, 9, 70, 64
8, 36480, Note_on_c, 9, 70, 75
8, 36528, Note_off_c, 9, 70, 64
8, 36600, Note_on_c, 9, 70, 40
8, 36640, Note_off_c, 9, 70, 64
8, 36720, Note_on_c, 9, 70, 75
8, 36764, Note_off_c, 9, 70, 64
8, 36840, Note_on_c, 9, 70, 40
8, 36888, Note_off_c, 9, 70, 64
8, 36960, Note_on_c, 9, 70, 77
8, 37007, Note_off_c, 9, 70, 64
8, 37080, Note_on_c, 9, 70, 40
8, 37134, Note_off_c, 9, 70, 64
8, 37200, Note_on_c, 9, 70, 75
8, 37242, Note_off_c, 9, 70, 64
8, 37320, Note_on_c, 9, 70, 40
8, 37357, Note_off_c, 9, 70, 64
8, 37440, Note_on_c, 9, 70, 75
8, 37488, Note_off_c, 9, 70, 64
8, 37560, Note_on_c, 9, 70, 40
8, 37600, Note_off_c, 9, 70, 64
8, 37680, Note_on_c, 9, 70, 75
8, 37724, Note_off_c, 9, 70, 64
8, 37800, Note_on_c, 9, 70, 40
8, 37848, Note_off_c, 9, 70, 64
8, 37920, Note_on_c, 9, 70, 77
8, 37967, Note_off_c, 9, 70, 64
8, 38040, Note_on_c, 9, 70, 40
8, 38094, Note_off_c, 9, 70, 64
8, 38160, Note_on_c, 9, 70, 75
8, 38202, Note_off_c, 9, 70, 64
8, 38280, Note_on_c, 9, 70, 40
8, 38317, Note_off_c, 9, 70, 64
8, 38400, Note_on_c, 9, 70, 75
8, 38448, Note_off_c, 9, 70, 64
8, 38520, Note_on_c, 9, 70, 40
8, 38560, Note_off_c, 9, 70, 64
8, 38640, Note_on_c, 9, 70, 75
8, 38684, Note_off_c, 9, 70, 64
8, 38760, Note_on_c, 9, 70, 40
8, 38808, Note_off_c, 9, 70, 64
8, 38880, Note_on_c, 9, 70, 77
8, 38927, Note_off_c, 9, 70, 64
8, 39000, Note_on_c, 9, 70, 40
8, 39054, Note_off_c, 9, 70, 64
8, 39120, Note_on_c, 9, 70, 75
8, 39162, Note_off_c, 9, 70, 64
8, 39240, Note_on_c, 9, 70, 40
8, 39277, Note_off_c, 9, 70, 64
8, 39360, Note_on_c, 9, 70, 75
8, 39408, Note_off_c, 9, 70, 64
8, 39480, Note_on_c, 9, 70, 40
8, 39520, Note_off_c, 9, 70, 64
8, 39600, Note_on_c, 9, 70, 75
8, 39644, Note_off_c, 9, 70, 64
8, 39720, Note_on_c, 9, 70, 40
8, 39768, Note_off_c, 9, 70, 64
8, 39840, Note_on_c, 9, 70, 77
8, 39887, Note_off_c, 9, 70, 64
8, 39960, Note_on_c, 9, 70, 40
8, 40014, Note_off_c, 9, 70, 64
8, 40080, Note_on_c, 9, 70, 75
8, 40122, Note_off_c, 9, 70, 64
8, 40200, Note_on_c, 9, 70, 40
8, 40237, Note_off_c, 9, 70, 64
8, 40320, Note_on_c, 9, 70, 75
8, 40368, Note_off_c, 9, 70, 64
8, 40440, Note_on_c, 9, 70, 40
8, 40480, Note_off_c, 9, 70, 64
8, 40560, Note_on_c, 9, 70, 75
8, 40604, Note_off_c, 9, 70, 64
8, 40680, Note_on_c, 9, 70, 40
8, 40728, Note_off_c, 9, 70, 64
8, 40800, Note_on_c, 9, 70, 77
8, 40847, Note_off_c, 9, 70, 64
8, 40920, Note_on_c, 9, 70, 40
8, 40974, Note_off_c, 9, 70, 64
8, 41040, Note_on_c, 9, 70, 75
8, 41082, Note_off_c, 9, 70, 64
8, 41160, Note_on_c, 9, 70, 40
8, 41197, Note_off_c, 9, 70, 64
8, 41280, Note_on_c, 9, 70, 75
8, 41328, Note_off_c, 9, 70, 64
8, 41400, Note_on_c, 9, 70, 40
8, 41440, Note_off_c, 9, 70, 64
8, 41520, Note_on_c, 9, 70, 75
8, 41564, Note_off_c, 9, 70, 64
8, 41640, Note_on_c, 9, 70, 40
8, 41688, Note_off_c, 9, 70, 64
8, 41760, Note_on_c, 9, 70, 77
8, 41807, Note_off_c, 9, 70, 64
8, 41880, Note_on_c, 9, 70, 40
8, 41934, Note_off_c, 9, 70, 64
8, 42000, Note_on_c, 9, 70, 75
8, 42042, Note_off_c, 9, 70, 64
8, 42120, Note_on_c, 9, 70, 40
8, 42157, Note_off_c, 9, 70, 64
8, 42240, Note_on_c, 9, 70, 75
8, 42288, Note_off_c, 9, 70, 64
8, 42360, Note_on_c, 9, 70, 40
8, 42400, Note_off_c, 9, 70, 64
8, 42480, Note_on_c, 9, 70, 75
8, 42524, Note_off_c, 9, 70, 64
8, 42600, Note_on_c, 9, 70, 40
8, 42648, Note_off_c, 9, 70, 64
8, 42720, Note_on_c, 9, 70, 77
8, 42767, Note_off_c, 9, 70, 64
8, 42840, Note_on_c, 9, 70, 40
8, 42894, Note_off_c, 9, 70, 64
8, 42960, Note_on_c, 9, 70, 75
8, 43002, Note_off_c, 9, 70, 64
8, 43080, Note_on_c, 9, 70, 40
8, 43117, Note_off_c, 9, 70, 64
8, 43200, Note_on_c, 9, 70, 75
8, 43248, Note_off_c, 9, 70, 64
8, 43320, Note_on_c, 9, 70, 40
8, 43360, Note_off_c, 9, 70, 64
8, 43440, Note_on_c, 9, 70, 75
8, 43484, Note_off_c, 9, 70, 64
8, 43560, Note_on_c, 9, 70, 40
8, 43608, Note_off_c, 9, 70, 64
8, 43680, Note_on_c, 9, 70, 77
8, 43727, Note_off_c, 9, 70, 64
8, 43800, Note_on_c, 9, 70, 40
8, 43854, Note_off_c, 9, 70, 64
8, 43920, Note_on_c, 9, 70, 75
8, 43962, Note_off_c, 9, 70, 64
8, 44040, Note_on_c, 9, 70, 40
8, 44077, Note_off_c, 9, 70, 64
8, 44160, Note_on_c, 9, 70, 75
8, 44208, Note_off_c, 9, 70, 64
8, 44280, Note_on_c, 9, 70, 40
8, 44320, Note_off_c, 9, 70, 64
8, 44400, Note_on_c, 9, 70, 75
8, 44444, Note_off_c, 9, 70, 64
8, 44520, Note_on_c, 9, 70, 40
8, 44568, Note_off_c, 9, 70, 64
8, 44640, Note_on_c, 9, 70, 77
8, 44687, Note_off_c, 9, 70, 64
8, 44760, Note_on_c, 9, 70, 40
8, 44814, Note_off_c, 9, 70, 64
8, 44880, Note_on_c, 9, 70, 75
8, 44922, Note_off_c, 9, 70, 64
8, 45000, Note_on_c, 9, 70, 40
8, 45037, Note_off_c, 9, 70, 64
8, 45120, Note_on_c, 9, 70, 75
8, 45168, Note_off_c, 9, 70, 64
8, 45240, Note_on_c, 9, 70, 40
8, 45280, Note_off_c, 9, 70, 64
8, 45360, Note_on_c, 9, 70, 75
8, 45404, Note_off_c, 9, 70, 64
8, 45480, Note_on_c, 9, 70, 40
8, 45528, Note_off_c, 9, 70, 64
8, 45600, Note_on_c, 9, 70, 77
8, 45647, Note_off_c, 9, 70, 64
8, 45720, Note_on_c, 9, 70, 40
8, 45774, Note_off_c, 9, 70, 64
8, 45840, Note_on_c, 9, 70, 75
8, 45882, Note_off_c, 9, 70, 64
8, 45960, Note_on_c, 9, 70, 40
8, 45997, Note_off_c, 9, 70, 64
8, 46080, Note_on_c, 9, 70, 75
8, 46128, Note_off_c, 9, 70, 64
8, 46200, Note_on_c, 9, 70, 40
8, 46240, Note_off_c, 9, 70, 64
8, 46320, Note_on_c, 9, 70, 75
8, 46364, Note_off_c, 9, 70, 64
8, 46440, Note_on_c, 9, 70, 40
8, 46488, Note_off_c, 9, 70, 64
8, 46560, Note_on_c, 9, 70, 77
8, 46607, Note_off_c, 9, 70, 64
8, 46680, Note_on_c, 9, 70, 40
8, 46734, Note_off_c, 9, 70, 64
8, 46800, Note_on_c, 9, 70, 75
8, 46842, Note_off_c, 9, 70, 64
8, 46920, Note_on_c, 9, 70, 40
8, 46957, Note_off_c, 9, 70, 64
8, 47040, Note_on_c, 9, 70, 75
8, 47088, Note_off_c, 9, 70, 64
8, 47160, Note_on_c, 9, 70, 40
8, 47200, Note_off_c, 9, 70, 64
8, 47280, Note_on_c, 9, 70, 75
8, 47324, Note_off_c, 9, 70, 64
8, 47400, Note_on_c, 9, 70, 40
8, 47448, Note_off_c, 9, 70, 64
8, 47520, Note_on_c, 9, 70, 77
8, 47567, Note_off_c, 9, 70, 64
8, 47640, Note_on_c, 9, 70, 40
8, 47694, Note_off_c, 9, 70, 64
8, 47760, Note_on_c, 9, 70, 75
8, 47802, Note_off_c, 9, 70, 64
8, 47880, Note_on_c, 9, 70, 40
8, 47917, Note_off_c, 9, 70, 64
8, 48000, Note_on_c, 9, 70, 75
8, 48048, Note_off_c, 9, 70, 64
8, 48120, Note_on_c, 9, 70, 40
8, 48160, Note_off_c, 9, 70, 64
8, 48240, Note_on_c, 9, 70, 75
8, 48284, Note_off_c, 9, 70, 64
8, 48360, Note_on_c, 9, 70, 40
8, 48408, Note_off_c, 9, 70, 64
8, 48480, Note_on_c, 9, 70, 77
8, 48527, Note_off_c, 9, 70, 64
8, 48600, Note_on_c, 9, 70, 40
8, 48654, Note_off_c, 9, 70, 64
8, 48720, Note_on_c, 9, 70, 75
8, 48762, Note_off_c, 9, 70, 64
8, 48840, Note_on_c, 9, 70, 40
8, 48877, Note_off_c, 9, 70, 64
8, 48960, Note_on_c, 9, 70, 75
8, 49008, Note_off_c, 9, 70, 64
8, 49080, Note_on_c, 9, 70, 40
8, 49120, Note_off_c, 9, 70, 64
8, 49200, Note_on_c, 9, 70, 75
8, 49244, Note_off_c, 9, 70, 64
8, 49320, Note_on_c, 9, 70, 40
8, 49368, Note_off_c, 9, 70, 64
8, 49440, Note_on_c, 9, 70, 77
8, 49487, Note_off_c, 9, 70, 64
8, 49560, Note_on_c, 9, 70, 40
8, 49614, Note_off_c, 9, 70, 64
8, 49680, Note_on_c, 9, 70, 75
8, 49722, Note_off_c, 9, 70, 64
8, 49800, Note_on_c, 9, 70, 40
8, 49837, Note_off_c, 9, 70, 64
8, 49920, Note_on_c, 9, 70, 75
8, 49968, Note_off_c, 9, 70, 64
8, 50040, Note_on_c, 9, 70, 40
8, 50080, Note_off_c, 9, 70, 64
8, 50160, Note_on_c, 9, 70, 75
8, 50204, Note_off_c, 9, 70, 64
8, 50280, Note_on_c, 9, 70, 40
8, 50328, Note_off_c, 9, 70, 64
8, 50400, Note_on_c, 9, 70, 77
8, 50447, Note_off_c, 9, 70, 64
8, 50520, Note_on_c, 9, 70, 40
8, 50574, Note_off_c, 9, 70, 64
8, 50640, Note_on_c, 9, 70, 75
8, 50682, Note_off_c, 9, 70, 64
8, 50760, Note_on_c, 9, 70, 40
8, 50797, Note_off_c, 9, 70, 64
8, 50880, Note_on_c, 9, 70, 75
8, 50928, Note_off_c, 9, 70, 64
8, 51000, Note_on_c, 9, 70, 40
8, 51040, Note_off_c, 9, 70, 64
8, 51120, Note_on_c, 9, 70, 75
8, 51164, Note_off_c, 9, 70, 64
8, 51240, Note_on_c, 9, 70, 40
8, 51288, Note_off_c, 9, 70, 64
8, 51360, Note_on_c, 9, 70, 77
8, 51407, Note_off_c, 9, 70, 64
8, 51480, Note_on_c, 9, 70, 40
8, 51534, Note_off_c, 9, 70, 64
8, 51600, Note_on_c, 9, 70, 75
8, 51642, Note_off_c, 9, 70, 64
8, 51720, Note_on_c, 9, 70, 40
8, 51757, Note_off_c, 9, 70, 64
8, 51840, Note_on_c, 9, 70, 75
8, 51888, Note_off_c, 9, 70, 64
8, 51960, Note_on_c, 9, 70, 40
8, 52000, Note_off_c, 9, 70, 64
8, 52080, Note_on_c, 9, 70, 75
8, 52124, Note_off_c, 9, 70, 64
8, 52200, Note_on_c, 9, 70, 40
8, 52248, Note_off_c, 9, 70, 64
8, 52320, Note_on_c, 9, 70, 77
8, 52367, Note_off_c, 9, 70, 64
8, 52440, Note_on_c, 9, 70, 40
8, 52494, Note_off_c, 9, 70, 64
8, 52560, Note_on_c, 9, 70, 75
8, 52602, Note_off_c, 9, 70, 64
8, 52680, Note_on_c, 9, 70, 40
8, 52717, Note_off_c, 9, 70, 64
8, 52800, Note_on_c, 9, 70, 75
8, 52848, Note_off_c, 9, 70, 64
8, 52920, Note_on_c, 9, 70, 40
8, 52960, Note_off_c, 9, 70, 64
8, 53040, Note_on_c, 9, 70, 75
8, 53084, Note_off_c, 9, 70, 64
8, 53160, Note_on_c, 9, 70, 40
8, 53208, Note_off_c, 9, 70, 64
8, 53280, Note_on_c, 9, 70, 77
8, 53327, Note_off_c, 9, 70, 64
8, 53400, Note_on_c, 9, 70, 40
8, 53454, Note_off_c, 9, 70, 64
8, 53520, Note_on_c, 9, 70, 75
8, 53562, Note_off_c, 9, 70, 64
8, 53640, Note_on_c, 9, 70, 40
8, 53677, Note_off_c, 9, 70, 64
8, 53760, Note_on_c, 9, 70, 75
8, 53808, Note_off_c, 9, 70, 64
8, 53880, Note_on_c, 9, 70, 40
8, 53920, Note_off_c, 9, 70, 64
8, 54000, Note_on_c, 9, 70, 75
8, 54044, Note_off_c, 9, 70, 64
8, 54120, Note_on_c, 9, 70, 40
8, 54168, Note_off_c, 9, 70, 64
8, 54240, Note_on_c, 9, 70, 77
8, 54287, Note_off_c, 9, 70, 64
8, 54360, Note_on_c, 9, 70, 40
8, 54414, Note_off_c, 9, 70, 64
8, 54480, Note_on_c, 9, 70, 75
8, 54522, Note_off_c, 9, 70, 64
8, 54600, Note_on_c, 9, 70, 40
8, 54637, Note_off_c, 9, 70, 64
8, 54720, Note_on_c, 9, 70, 75
8, 54768, Note_off_c, 9, 70, 64
8, 54840, Note_on_c, 9, 70, 40
8, 54880, Note_off_c, 9, 70, 64
8, 54960, Note_on_c, 9, 70, 75
8, 55004, Note_off_c, 9, 70, 64
8, 55080, Note_on_c, 9, 70, 40
8, 55128, Note_off_c, 9, 70, 64
8, 55200, Note_on_c, 9, 70, 77
8, 55247, Note_off_c, 9, 70, 64
8, 55320, Note_on_c, 9, 70, 40
8, 55374, Note_off_c, 9, 70, 64
8, 55440, Note_on_c, 9, 70, 75
8, 55482, Note_off_c, 9, 70, 64
8, 55560, Note_on_c, 9, 70, 40
8, 55597, Note_off_c, 9, 70, 64
8, 55680, Note_on_c, 9, 70, 75
8, 55728, Note_off_c, 9, 70, 64
8, 55800, Note_on_c, 9, 70, 40
8, 55840, Note_off_c, 9, 70, 64
8, 55920, Note_on_c, 9, 70, 75
8, 55964, Note_off_c, 9, 70, 64
8, 56040, Note_on_c, 9, 70, 40
8, 56088, Note_off_c, 9, 70, 64
8, 56160, Note_on_c, 9, 70, 77
8, 56207, Note_off_c, 9, 70, 64
8, 56280, Note_on_c, 9, 70, 40
8, 56334, Note_off_c, 9, 70, 64
8, 56400, Note_on_c, 9, 70, 75
8, 56442, Note_off_c, 9, 70, 64
8, 56520, Note_on_c, 9, 70, 40
8, 56557, Note_off_c, 9, 70, 64
8, 56640, Note_on_c, 9, 70, 75
8, 56688, Note_off_c, 9, 70, 64
8, 56760, Note_on_c, 9, 70, 40
8, 56800, Note_off_c, 9, 70, 64
8, 56880, Note_on_c, 9, 70, 75
8, 56924, Note_off_c, 9, 70, 64
8, 57000, Note_on_c, 9, 70, 40
8, 57048, Note_off_c, 9, 70, 64
8, 57120, Note_on_c, 9, 70, 77
8, 57167, Note_off_c, 9, 70, 64
8, 57240, Note_on_c, 9, 70, 40
8, 57294, Note_off_c, 9, 70, 64
8, 57360, Note_on_c, 9, 70, 75
8, 57402, Note_off_c, 9, 70, 64
8, 57480, Note_on_c, 9, 70, 40
8, 57517, Note_off_c, 9, 70, 64
8, 57600, Note_on_c, 9, 70, 75
8, 57648, Note_off_c, 9, 70, 64
8, 57720, Note_on_c, 9, 70, 40
8, 57760, Note_off_c, 9, 70, 64
8, 57840, Note_on_c, 9, 70, 75
8, 57884, Note_off_c, 9, 70, 64
8, 57960, Note_on_c, 9, 70, 40
8, 58008, Note_off_c, 9, 70, 64
8, 58080, Note_on_c, 9, 70, 77
8, 58127, Note_off_c, 9, 70, 64
8, 58200, Note_on_c, 9, 70, 40
8, 58254, Note_off_c, 9, 70, 64
8, 58320, Note_on_c, 9, 70, 75
8, 58362, Note_off_c, 9, 70, 64
8, 58440, Note_on_c, 9, 70, 40
8, 58477, Note_off_c, 9, 70, 64
8, 58560, Note_on_c, 9, 70, 75
8, 58608, Note_off_c, 9, 70, 64
8, 58680, Note_on_c, 9, 70, 40
8, 58720, Note_off_c, 9, 70, 64
8, 58800, Note_on_c, 9, 70, 75
8, 58844, Note_off_c, 9, 70, 64
8, 58920, Note_on_c, 9, 70, 40
8, 58968, Note_off_c, 9, 70, 64
8, 59040, Note_on_c, 9, 70, 77
8, 59087, Note_off_c, 9, 70, 64
8, 59160, Note_on_c, 9, 70, 40
8, 59214, Note_off_c, 9, 70, 64
8, 59280, Note_on_c, 9, 70, 75
8, 59322, Note_off_c, 9, 70, 64
8, 59400, Note_on_c, 9, 70, 40
8, 59437, Note_off_c, 9, 70, 64
8, 59520, Note_on_c, 9, 70, 75
8, 59568, Note_off_c, 9, 70, 64
8, 59640, Note_on_c, 9, 70, 40
8, 59680, Note_off_c, 9, 70, 64
8, 59760, Note_on_c, 9, 70, 75
8, 59804, Note_off_c, 9, 70, 64
8, 59880, Note_on_c, 9, 70, 40
8, 59928, Note_off_c, 9, 70, 64
8, 60000, Note_on_c, 9, 70, 77
8, 60047, Note_off_c, 9, 70, 64
8, 60120, Note_on_c, 9, 70, 40
8, 60174, Note_off_c, 9, 70, 64
8, 60240, Note_on_c, 9, 70, 75
8, 60282, Note_off_c, 9, 70, 64
8, 60360, Note_on_c, 9, 70, 40
8, 60397, Note_off_c, 9, 70, 64
8, 60480, Note_on_c, 9, 70, 75
8, 60528, Note_off_c, 9, 70, 64
8, 60600, Note_on_c, 9, 70, 40
8, 60640, Note_off_c, 9, 70, 64
8, 60720, Note_on_c, 9, 70, 75
8, 60764, Note_off_c, 9, 70, 64
8, 60840, Note_on_c, 9, 70, 40
8, 60888, Note_off_c, 9, 70, 64
8, 60960, Note_on_c, 9, 70, 77
8, 61007, Note_off_c, 9, 70, 64
8, 61080, Note_on_c, 9, 70, 40
8, 61134, Note_off_c, 9, 70, 64
8, 61200, Note_on_c, 9, 70, 75
8, 61242, Note_off_c, 9, 70, 64
8, 61320, Note_on_c, 9, 70, 40
8, 61357, Note_off_c, 9, 70, 64
8, 61440, Note_on_c, 9, 70, 75
8, 61488, Note_off_c, 9, 70, 64
8, 61560, Note_on_c, 9, 70, 40
8, 61600, Note_off_c, 9, 70, 64
8, 61680, Note_on_c, 9, 70, 75
8, 61724, Note_off_c, 9, 70, 64
8, 61800, Note_on_c, 9, 70, 40
8, 61848, Note_off_c, 9, 70, 64
8, 61920, Note_on_c, 9, 70, 77
8, 61967, Note_off_c, 9, 70, 64
8, 62040, Note_on_c, 9, 70, 40
8, 62094, Note_off_c, 9, 70, 64
8, 62160, Note_on_c, 9, 70, 75
8, 62202, Note_off_c, 9, 70, 64
8, 62280, Note_on_c, 9, 70, 40
8, 62317, Note_off_c, 9, 70, 64
8, 62400, Note_on_c, 9, 70, 75
8, 62448, Note_off_c, 9, 70, 64
8, 62520, Note_on_c, 9, 70, 40
8, 62560, Note_off_c, 9, 70, 64
8, 62640, Note_on_c, 9, 70, 75
8, 62684, Note_off_c, 9, 70, 64
8, 62760, Note_on_c, 9, 70, 40
8, 62808, Note_off_c, 9, 70, 64
8, 62880, Note_on_c, 9, 70, 77
8, 62927, Note_off_c, 9, 70, 64
8, 63000, Note_on_c, 9, 70, 40
8, 63054, Note_off_c, 9, 70, 64
8, 63120, Note_on_c, 9, 70, 75
8, 63162, Note_off_c, 9, 70, 64
8, 63240, Note_on_c, 9, 70, 40
8, 63277, Note_off_c, 9, 70, 64
8, 63360, Note_on_c, 9, 70, 75
8, 63408, Note_off_c, 9, 70, 64
8, 63480, Note_on_c, 9, 70, 40
8, 63520, Note_off_c, 9, 70, 64
8, 63600, Note_on_c, 9, 70, 75
8, 63644, Note_off_c, 9, 70, 64
8, 63720, Note_on_c, 9, 70, 40
8, 63768, Note_off_c, 9, 70, 64
8, 63840, Note_on_c, 9, 70, 77
8, 63887, Note_off_c, 9, 70, 64
8, 63960, Note_on_c, 9, 70, 40
8, 64014, Note_off_c, 9, 70, 64
8, 64080, Note_on_c, 9, 70, 75
8, 64122, Note_off_c, 9, 70, 64
8, 64200, Note_on_c, 9, 70, 40
8, 64237, Note_off_c, 9, 70, 64
8, 64320, Note_on_c, 9, 70, 75
8, 64368, Note_off_c, 9, 70, 64
8, 64440, Note_on_c, 9, 70, 40
8, 64480, Note_off_c, 9, 70, 64
8, 64560, Note_on_c, 9, 70, 75
8, 64604, Note_off_c, 9, 70, 64
8, 64680, Note_on_c, 9, 70, 40
8, 64728, Note_off_c, 9, 70, 64
8, 64800, Note_on_c, 9, 70, 77
8, 64847, Note_off_c, 9, 70, 64
8, 64920, Note_on_c, 9, 70, 40
8, 64974, Note_off_c, 9, 70, 64
8, 65040, Note_on_c, 9, 70, 75
8, 65082, Note_off_c, 9, 70, 64
8, 65160, Note_on_c, 9, 70, 40
8, 65197, Note_off_c, 9, 70, 64
8, 65280, Note_on_c, 9, 70, 75
8, 65328, Note_off_c, 9, 70, 64
8, 65400, Note_on_c, 9, 70, 40
8, 65440, Note_off_c, 9, 70, 64
8, 65520, Note_on_c, 9, 70, 75
8, 65564, Note_off_c, 9, 70, 64
8, 65640, Note_on_c, 9, 70, 40
8, 65688, Note_off_c, 9, 70, 64
8, 65760, Note_on_c, 9, 70, 77
8, 65807, Note_off_c, 9, 70, 64
8, 65880, Note_on_c, 9, 70, 40
8, 65934, Note_off_c, 9, 70, 64
8, 66000, Note_on_c, 9, 70, 75
8, 66042, Note_off_c, 9, 70, 64
8, 66120, Note_on_c, 9, 70, 40
8, 66157, Note_off_c, 9, 70, 64
8, 66240, Note_on_c, 9, 70, 75
8, 66288, Note_off_c, 9, 70, 64
8, 66360, Note_on_c, 9, 70, 40
8, 66400, Note_off_c, 9, 70, 64
8, 66480, Note_on_c, 9, 70, 75
8, 66524, Note_off_c, 9, 70, 64
8, 66600, Note_on_c, 9, 70, 40
8, 66648, Note_off_c, 9, 70, 64
8, 66720, Note_on_c, 9, 70, 77
8, 66767, Note_off_c, 9, 70, 64
8, 66840, Note_on_c, 9, 70, 40
8, 66894, Note_off_c, 9, 70, 64
8, 66960, Note_on_c, 9, 70, 75
8, 67002, Note_off_c, 9, 70, 64
8, 67080, Note_on_c, 9, 70, 40
8, 67117, Note_off_c, 9, 70, 64
8, 67200, Note_on_c, 9, 70, 75
8, 67248, Note_off_c, 9, 70, 64
8, 67320, Note_on_c, 9, 70, 40
8, 67360, Note_off_c, 9, 70, 64
8, 67440, Note_on_c, 9, 70, 75
8, 67484, Note_off_c, 9, 70, 64
8, 67560, Note_on_c, 9, 70, 40
8, 67608, Note_off_c, 9, 70, 64
8, 67680, Note_on_c, 9, 70, 77
8, 67727, Note_off_c, 9, 70, 64
8, 67800, Note_on_c, 9, 70, 40
8, 67854, Note_off_c, 9, 70, 64
8, 67920, Note_on_c, 9, 70, 75
8, 67962, Note_off_c, 9, 70, 64
8, 68040, Note_on_c, 9, 70, 40
8, 68077, Note_off_c, 9, 70, 64
8, 68160, Note_on_c, 9, 70, 75
8, 68208, Note_off_c, 9, 70, 64
8, 68280, Note_on_c, 9, 70, 40
8, 68320, Note_off_c, 9, 70, 64
8, 68400, Note_on_c, 9, 70, 75
8, 68444, Note_off_c, 9, 70, 64
8, 68520, Note_on_c, 9, 70, 40
8, 68568, Note_off_c, 9, 70, 64
8, 68640, Note_on_c, 9, 70, 77
8, 68687, Note_off_c, 9, 70, 64
8, 68760, Note_on_c, 9, 70, 40
8, 68814, Note_off_c, 9, 70, 64
8, 68880, Note_on_c, 9, 70, 75
8, 68922, Note_off_c, 9, 70, 64
8, 69000, Note_on_c, 9, 70, 40
8, 69037, Note_off_c, 9, 70, 64
8, 69120, Note_on_c, 9, 70, 75
8, 69168, Note_off_c, 9, 70, 64
8, 69240, Note_on_c, 9, 70, 40
8, 69280, Note_off_c, 9, 70, 64
8, 69360, Note_on_c, 9, 70, 75
8, 69404, Note_off_c, 9, 70, 64
8, 69480, Note_on_c, 9, 70, 40
8, 69528, Note_off_c, 9, 70, 64
8, 69600, Note_on_c, 9, 70, 77
8, 69647, Note_off_c, 9, 70, 64
8, 69720, Note_on_c, 9, 70, 40
8, 69774, Note_off_c, 9, 70, 64
8, 69840, Note_on_c, 9, 70, 75
8, 69882, Note_off_c, 9, 70, 64
8, 69960, Note_on_c, 9, 70, 40
8, 69997, Note_off_c, 9, 70, 64
8, 71040, Note_on_c, 9, 70, 75
8, 71088, Note_off_c, 9, 70, 64
8, 71160, Note_on_c, 9, 70, 40
8, 71200, Note_off_c, 9, 70, 64
8, 71280, Note_on_c, 9, 70, 75
8, 71324, Note_off_c, 9, 70, 64
8, 71400, Note_on_c, 9, 70, 40
8, 71448, Note_off_c, 9, 70, 64
8, 71520, Note_on_c, 9, 70, 77
8, 71567, Note_off_c, 9, 70, 64
8, 71640, Note_on_c, 9, 70, 40
8, 71694, Note_off_c, 9, 70, 64
8, 71760, Note_on_c, 9, 70, 75
8, 71802, Note_off_c, 9, 70, 64
8, 71880, Note_on_c, 9, 70, 40
8, 71917, Note_off_c, 9, 70, 64
8, 72000, Note_on_c, 9, 70, 75
8, 72048, Note_off_c, 9, 70, 64
8, 72120, Note_on_c, 9, 70, 40
8, 72160, Note_off_c, 9, 70, 64
8, 72240, Note_on_c, 9, 70, 75
8, 72284, Note_off_c, 9, 70, 64
8, 72360, Note_on_c, 9, 70, 40
8, 72408, Note_off_c, 9, 70, 64
8, 72480, Note_on_c, 9, 70, 77
8, 72527, Note_off_c, 9, 70, 64
8, 72600, Note_on_c, 9, 70, 40
8, 72654, Note_off_c, 9, 70, 64
8, 72720, Note_on_c, 9, 70, 75
8, 72762, Note_off_c, 9, 70, 64
8, 72840, Note_on_c, 9, 70, 40
8, 72877, Note_off_c, 9, 70, 64
8, 72960, Note_on_c, 9, 70, 75
8, 73008, Note_off_c, 9, 70, 64
8, 73080, Note_on_c, 9, 70, 40
8, 73120, Note_off_c, 9, 70, 64
8, 73200, Note_on_c, 9, 70, 75
8, 73244, Note_off_c, 9, 70, 64
8, 73320, Note_on_c, 9, 70, 40
8, 73368, Note_off_c, 9, 70, 64
8, 73440, Note_on_c, 9, 70, 77
8, 73487, Note_off_c, 9, 70, 64
8, 73560, Note_on_c, 9, 70, 40
8, 73614, Note_off_c, 9, 70, 64
8, 73680, Note_on_c, 9, 70, 75
8, 73722, Note_off_c, 9, 70, 64
8, 73800, Note_on_c, 9, 70, 40
8, 73837, Note_off_c, 9, 70, 64
8, 73920, Note_on_c, 9, 70, 75
8, 73968, Note_off_c, 9, 70, 64
8, 74040, Note_on_c, 9, 70, 40
8, 74080, Note_off_c, 9, 70, 64
8, 74160, Note_on_c, 9, 70, 75
8, 74204, Note_off_c, 9, 70, 64
8, 74280, Note_on_c, 9, 70, 40
8, 74328, Note_off_c, 9, 70, 64
8, 74400, Note_on_c, 9, 70, 77
8, 74447, Note_off_c, 9, 70, 64
8, 74520, Note_on_c, 9, 70, 40
8, 74574, Note_off_c, 9, 70, 64
8, 74640, Note_on_c, 9, 70, 75
8, 74682, Note_off_c, 9, 70, 64
8, 74760, Note_on_c, 9, 70, 40
8, 74797, Note_off_c, 9, 70, 64
8, 74880, Note_on_c, 9, 70, 75
8, 74928, Note_off_c, 9, 70, 64
8, 75000, Note_on_c, 9, 70, 40
8, 75040, Note_off_c, 9, 70, 64
8, 75120, Note_on_c, 9, 70, 75
8, 75164, Note_off_c, 9, 70, 64
8, 75240, Note_on_c, 9, 70, 40
8, 75288, Note_off_c, 9, 70, 64
8, 75360, Note_on_c, 9, 70, 77
8, 75407, Note_off_c, 9, 70, 64
8, 75480, Note_on_c, 9, 70, 40
8, 75534, Note_off_c, 9, 70, 64
8, 75600, Note_on_c, 9, 70, 75
8, 75642, Note_off_c, 9, 70, 64
8, 75720, Note_on_c, 9, 70, 40
8, 75757, Note_off_c, 9, 70, 64
8, 75840, Note_on_c, 9, 70, 75
8, 75888, Note_off_c, 9, 70, 64
8, 75960, Note_on_c, 9, 70, 40
8, 76000, Note_off_c, 9, 70, 64
8, 76080, Note_on_c, 9, 70, 75
8, 76124, Note_off_c, 9, 70, 64
8, 76200, Note_on_c, 9, 70, 40
8, 76248, Note_off_c, 9, 70, 64
8, 76320, Note_on_c, 9, 70, 77
8, 76367, Note_off_c, 9, 70, 64
8, 76440, Note_on_c, 9, 70, 40
8, 76494, Note_off_c, 9, 70, 64
8, 76560, Note_on_c, 9, 70, 75
8, 76602, Note_off_c, 9, 70, 64
8, 76680, Note_on_c, 9, 70, 40
8, 76717, Note_off_c, 9, 70, 64
8, 76800, Note_on_c, 9, 70, 75
8, 76848, Note_off_c, 9, 70, 64
8, 76920, Note_on_c, 9, 70, 40
8, 76960, Note_off_c, 9, 70, 64
8, 77040, Note_on_c, 9, 70, 75
8, 77084, Note_off_c, 9, 70, 64
8, 77160, Note_on_c, 9, 70, 40
8, 77208, Note_off_c, 9, 70, 64
8, 77280, Note_on_c, 9, 70, 77
8, 77327, Note_off_c, 9, 70, 64
8, 77400, Note_on_c, 9, 70, 40
8, 77454, Note_off_c, 9, 70, 64
8, 77520, Note_on_c, 9, 70, 75
8, 77562, Note_off_c, 9, 70, 64
8, 77640, Note_on_c, 9, 70, 40
8, 77677, Note_off_c, 9, 70, 64
8, 77760, Note_on_c, 9, 70, 75
8, 77808, Note_off_c, 9, 70, 64
8, 77880, Note_on_c, 9, 70, 40
8, 77920, Note_off_c, 9, 70, 64
8, 78000, Note_on_c, 9, 70, 75
8, 78044, Note_off_c, 9, 70, 64
8, 78120, Note_on_c, 9, 70, 40
8, 78168, Note_off_c, 9, 70, 64
8, 78240, Note_on_c, 9, 70, 77
8, 78287, Note_off_c, 9, 70, 64
8, 78360, Note_on_c, 9, 70, 40
8, 78414, Note_off_c, 9, 70, 64
8, 78480, Note_on_c, 9, 70, 75
8, 78522, Note_off_c, 9, 70, 64
8, 78600, Note_on_c, 9, 70, 40
8, 78637, Note_off_c, 9, 70, 64
8, 78720, Note_on_c, 9, 70, 75
8, 78768, Note_off_c, 9, 70, 64
8, 78840, Note_on_c, 9, 70, 40
8, 78880, Note_off_c, 9, 70, 64
8, 78960, Note_on_c, 9, 70, 75
8, 79004, Note_off_c, 9, 70, 64
8, 79080, Note_on_c, 9, 70, 40
8, 79128, Note_off_c, 9, 70, 64
8, 79200, Note_on_c, 9, 70, 77
8, 79247, Note_off_c, 9, 70, 64
8, 79320, Note_on_c, 9, 70, 40
8, 79374, Note_off_c, 9, 70, 64
8, 79440, Note_on_c, 9, 70, 75
8, 79482, Note_off_c, 9, 70, 64
8, 79560, Note_on_c, 9, 70, 40
8, 79597, Note_off_c, 9, 70, 64
8, 79680, Note_on_c, 9, 70, 75
8, 79728, Note_off_c, 9, 70, 64
8, 79800, Note_on_c, 9, 70, 40
8, 79840, Note_off_c, 9, 70, 64
8, 79920, Note_on_c, 9, 70, 75
8, 79964, Note_off_c, 9, 70, 64
8, 80040, Note_on_c, 9, 70, 40
8, 80088, Note_off_c, 9, 70, 64
8, 80160, Note_on_c, 9, 70, 77
8, 80207, Note_off_c, 9, 70, 64
8, 80280, Note_on_c, 9, 70, 40
8, 80334, Note_off_c, 9, 70, 64
8, 80400, Note_on_c, 9, 70, 75
8, 80442, Note_off_c, 9, 70, 64
8, 80520, Note_on_c, 9, 70, 40
8, 80557, Note_off_c, 9, 70, 64
8, 80640, Note_on_c, 9, 70, 75
8, 80688, Note_off_c, 9, 70, 64
8, 80760, Note_on_c, 9, 70, 40
8, 80800, Note_off_c, 9, 70, 64
8, 80880, Note_on_c, 9, 70, 75
8, 80924, Note_off_c, 9, 70, 64
8, 81000, Note_on_c, 9, 70, 40
8, 81048, Note_off_c, 9, 70, 64
8, 81120, Note_on_c, 9, 70, 77
8, 81167, Note_off_c, 9, 70, 64
8, 81240, Note_on_c, 9, 70, 40
8, 81294, Note_off_c, 9, 70, 64
8, 81360, Note_on_c, 9, 70, 75
8, 81402, Note_off_c, 9, 70, 64
8, 81480, Note_on_c, 9, 70, 40
8, 81517, Note_off_c, 9, 70, 64
8, 81600, Note_on_c, 9, 70, 75
8, 81648, Note_off_c, 9, 70, 64
8, 81720, Note_on_c, 9, 70, 40
8, 81760, Note_off_c, 9, 70, 64
8, 81840, Note_on_c, 9, 70, 75
8, 81884, Note_off_c, 9, 70, 64
8, 81960, Note_on_c, 9, 70, 40
8, 82008, Note_off_c, 9, 70, 64
8, 82080, Note_on_c, 9, 70, 77
8, 82127, Note_off_c, 9, 70, 64
8, 82200, Note_on_c, 9, 70, 40
8, 82254, Note_off_c, 9, 70, 64
8, 82320, Note_on_c, 9, 70, 75
8, 82362, Note_off_c, 9, 70, 64
8, 82440, Note_on_c, 9, 70, 40
8, 82477, Note_off_c, 9, 70, 64
8, 82560, Note_on_c, 9, 70, 75
8, 82608, Note_off_c, 9, 70, 64
8, 82680, Note_on_c, 9, 70, 40
8, 82720, Note_off_c, 9, 70, 64
8, 82800, Note_on_c, 9, 70, 75
8, 82844, Note_off_c, 9, 70, 64
8, 82920, Note_on_c, 9, 70, 40
8, 82968, Note_off_c, 9, 70, 64
8, 83040, Note_on_c, 9, 70, 77
8, 83087, Note_off_c, 9, 70, 64
8, 83160, Note_on_c, 9, 70, 40
8, 83214, Note_off_c, 9, 70, 64
8, 83280, Note_on_c, 9, 70, 75
8, 83322, Note_off_c, 9, 70, 64
8, 83400, Note_on_c, 9, 70, 40
8, 83437, Note_off_c, 9, 70, 64
8, 83520, Note_on_c, 9, 70, 75
8, 83568, Note_off_c, 9, 70, 64
8, 83640, Note_on_c, 9, 70, 40
8, 83680, Note_off_c, 9, 70, 64
8, 83760, Note_on_c, 9, 70, 75
8, 83804, Note_off_c, 9, 70, 64
8, 83880, Note_on_c, 9, 70, 40
8, 83928, Note_off_c, 9, 70, 64
8, 84000, Note_on_c, 9, 70, 77
8, 84047, Note_off_c, 9, 70, 64
8, 84120, Note_on_c, 9, 70, 40
8, 84174, Note_off_c, 9, 70, 64
8, 84240, Note_on_c, 9, 70, 75
8, 84282, Note_off_c, 9, 70, 64
8, 84360, Note_on_c, 9, 70, 40
8, 84397, Note_off_c, 9, 70, 64
8, 84480, Note_on_c, 9, 70, 75
8, 84528, Note_off_c, 9, 70, 64
8, 84600, Note_on_c, 9, 70, 40
8, 84640, Note_off_c, 9, 70, 64
8, 84720, Note_on_c, 9, 70, 75
8, 84764, Note_off_c, 9, 70, 64
8, 84840, Note_on_c, 9, 70, 40
8, 84888, Note_off_c, 9, 70, 64
8, 84960, Note_on_c, 9, 70, 77
8, 85007, Note_off_c, 9, 70, 64
8, 85080, Note_on_c, 9, 70, 40
8, 85134, Note_off_c, 9, 70, 64
8, 85200, Note_on_c, 9, 70, 75
8, 85242, Note_off_c, 9, 70, 64
8, 85320, Note_on_c, 9, 70, 40
8, 85357, Note_off_c, 9, 70, 64
8, 85440, Note_on_c, 9, 70, 75
8, 85488, Note_off_c, 9, 70, 64
8, 85560, Note_on_c, 9, 70, 40
8, 85600, Note_off_c, 9, 70, 64
8, 85680, Note_on_c, 9, 70, 75
8, 85724, Note_off_c, 9, 70, 64
8, 85800, Note_on_c, 9, 70, 40
8, 85848, Note_off_c, 9, 70, 64
8, 85920, Note_on_c, 9, 70, 77
8, 85967, Note_off_c, 9, 70, 64
8, 86040, Note_on_c, 9, 70, 40
8, 86094, Note_off_c, 9, 70, 64
8, 86160, Note_on_c, 9, 70, 75
8, 86202, Note_off_c, 9, 70, 64
8, 86280, Note_on_c, 9, 70, 40
8, 86317, Note_off_c, 9, 70, 64
8, 86400, Note_on_c, 9, 70, 75
8, 86448, Note_off_c, 9, 70, 64
8, 86520, Note_on_c, 9, 70, 40
8, 86560, Note_off_c, 9, 70, 64
8, 86640, Note_on_c, 9, 70, 75
8, 86684, Note_off_c, 9, 70, 64
8, 86760, Note_on_c, 9, 70, 40
8, 86808, Note_off_c, 9, 70, 64
8, 86880, Note_on_c, 9, 70, 77
8, 86927, Note_off_c, 9, 70, 64
8, 87000, Note_on_c, 9, 70, 40
8, 87054, Note_off_c, 9, 70, 64
8, 87120, Note_on_c, 9, 70, 75
8, 87162, Note_off_c, 9, 70, 64
8, 87240, Note_on_c, 9, 70, 40
8, 87277, Note_off_c, 9, 70, 64
8, 87360, Note_on_c, 9, 70, 75
8, 87408, Note_off_c, 9, 70, 64
8, 87480, Note_on_c, 9, 70, 40
8, 87520, Note_off_c, 9, 70, 64
8, 87600, Note_on_c, 9, 70, 75
8, 87644, Note_off_c, 9, 70, 64
8, 87720, Note_on_c, 9, 70, 40
8, 87768, Note_off_c, 9, 70, 64
8, 87840, Note_on_c, 9, 70, 77
8, 87887, Note_off_c, 9, 70, 64
8, 87960, Note_on_c, 9, 70, 40
8, 88014, Note_off_c, 9, 70, 64
8, 88080, Note_on_c, 9, 70, 75
8, 88122, Note_off_c, 9, 70, 64
8, 88200, Note_on_c, 9, 70, 40
8, 88237, Note_off_c, 9, 70, 64
8, 88320, Note_on_c, 9, 70, 75
8, 88368, Note_off_c, 9, 70, 64
8, 88440, Note_on_c, 9, 70, 40
8, 88480, Note_off_c, 9, 70, 64
8, 88560, Note_on_c, 9, 70, 75
8, 88604, Note_off_c, 9, 70, 64
8, 88680, Note_on_c, 9, 70, 40
8, 88728, Note_off_c, 9, 70, 64
8, 88800, Note_on_c, 9, 70, 77
8, 88847, Note_off_c, 9, 70, 64
8, 88920, Note_on_c, 9, 70, 40
8, 88974, Note_off_c, 9, 70, 64
8, 89040, Note_on_c, 9, 70, 75
8, 89082, Note_off_c, 9, 70, 64
8, 89160, Note_on_c, 9, 70, 40
8, 89197, Note_off_c, 9, 70, 64
8, 89280, Note_on_c, 9, 70, 75
8, 89328, Note_off_c, 9, 70, 64
8, 89400, Note_on_c, 9, 70, 40
8, 89440, Note_off_c, 9, 70, 64
8, 89520, Note_on_c, 9, 70, 75
8, 89564, Note_off_c, 9, 70, 64
8, 89640, Note_on_c, 9, 70, 40
8, 89688, Note_off_c, 9, 70, 64
8, 89760, Note_on_c, 9, 70, 77
8, 89807, Note_off_c, 9, 70, 64
8, 89880, Note_on_c, 9, 70, 40
8, 89934, Note_off_c, 9, 70, 64
8, 90000, Note_on_c, 9, 70, 75
8, 90042, Note_off_c, 9, 70, 64
8, 90120, Note_on_c, 9, 70, 40
8, 90157, Note_off_c, 9, 70, 64
8, 90240, Note_on_c, 9, 70, 75
8, 90288, Note_off_c, 9, 70, 64
8, 90360, Note_on_c, 9, 70, 40
8, 90400, Note_off_c, 9, 70, 64
8, 90480, Note_on_c, 9, 70, 75
8, 90524, Note_off_c, 9, 70, 64
8, 90600, Note_on_c, 9, 70, 40
8, 90648, Note_off_c, 9, 70, 64
8, 90720, Note_on_c, 9, 70, 77
8, 90767, Note_off_c, 9, 70, 64
8, 90840, Note_on_c, 9, 70, 40
8, 90894, Note_off_c, 9, 70, 64
8, 90960, Note_on_c, 9, 70, 75
8, 91002, Note_off_c, 9, 70, 64
8, 91080, Note_on_c, 9, 70, 40
8, 91117, Note_off_c, 9, 70, 64
8, 91200, Note_on_c, 9, 70, 75
8, 91248, Note_off_c, 9, 70, 64
8, 91320, Note_on_c, 9, 70, 40
8, 91360, Note_off_c, 9, 70, 64
8, 91440, Note_on_c, 9, 70, 75
8, 91484, Note_off_c, 9, 70, 64
8, 91560, Note_on_c, 9, 70, 40
8, 91608, Note_off_c, 9, 70, 64
8, 91680, Note_on_c, 9, 70, 77
8, 91727, Note_off_c, 9, 70, 64
8, 91800, Note_on_c, 9, 70, 40
8, 91854, Note_off_c, 9, 70, 64
8, 91920, Note_on_c, 9, 70, 75
8, 91962, Note_off_c, 9, 70, 64
8, 92040, Note_on_c, 9, 70, 40
8, 92077, Note_off_c, 9, 70, 64
8, 92160, Note_on_c, 9, 70, 75
8, 92208, Note_off_c, 9, 70, 64
8, 92280, Note_on_c, 9, 70, 40
8, 92320, Note_off_c, 9, 70, 64
8, 92400, Note_on_c, 9, 70, 75
8, 92444, Note_off_c, 9, 70, 64
8, 92520, Note_on_c, 9, 70, 40
8, 92568, Note_off_c, 9, 70, 64
8, 92640, Note_on_c, 9, 70, 77
8, 92687, Note_off_c, 9, 70, 64
8, 92760, Note_on_c, 9, 70, 40
8, 92814, Note_off_c, 9, 70, 64
8, 92880, Note_on_c, 9, 70, 75
8, 92922, Note_off_c, 9, 70, 64
8, 93000, Note_on_c, 9, 70, 40
8, 93037, Note_off_c, 9, 70, 64
8, 93120, Note_on_c, 9, 70, 75
8, 93168, Note_off_c, 9, 70, 64
8, 93240, Note_on_c, 9, 70, 40
8, 93280, Note_off_c, 9, 70, 64
8, 93360, Note_on_c, 9, 70, 75
8, 93404, Note_off_c, 9, 70, 64
8, 93480, Note_on_c, 9, 70, 40
8, 93528, Note_off_c, 9, 70, 64
8, 93600, Note_on_c, 9, 70, 77
8, 93647, Note_off_c, 9, 70, 64
8, 93720, Note_on_c, 9, 70, 40
8, 93774, Note_off_c, 9, 70, 64
8, 93840, Note_on_c, 9, 70, 75
8, 93882, Note_off_c, 9, 70, 64
8, 93960, Note_on_c, 9, 70, 40
8, 93997, Note_off_c, 9, 70, 64
8, 94080, Note_on_c, 9, 70, 75
8, 94128, Note_off_c, 9, 70, 64
8, 94200, Note_on_c, 9, 70, 40
8, 94240, Note_off_c, 9, 70, 64
8, 94320, Note_on_c, 9, 70, 75
8, 94364, Note_off_c, 9, 70, 64
8, 94440, Note_on_c, 9, 70, 40
8, 94488, Note_off_c, 9, 70, 64
8, 94560, Note_on_c, 9, 70, 77
8, 94607, Note_off_c, 9, 70, 64
8, 94680, Note_on_c, 9, 70, 40
8, 94734, Note_off_c, 9, 70, 64
8, 94800, Note_on_c, 9, 70, 75
8, 94842, Note_off_c, 9, 70, 64
8, 94920, Note_on_c, 9, 70, 40
8, 94957, Note_off_c, 9, 70, 64
8, 95040, Note_on_c, 9, 70, 75
8, 95088, Note_off_c, 9, 70, 64
8, 95160, Note_on_c, 9, 70, 40
8, 95200, Note_off_c, 9, 70, 64
8, 95280, Note_on_c, 9, 70, 75
8, 95324, Note_off_c, 9, 70, 64
8, 95400, Note_on_c, 9, 70, 40
8, 95448, Note_off_c, 9, 70, 64
8, 95520, Note_on_c, 9, 70, 77
8, 95567, Note_off_c, 9, 70, 64
8, 95640, Note_on_c, 9, 70, 40
8, 95694, Note_off_c, 9, 70, 64
8, 95760, Note_on_c, 9, 70, 75
8, 95802, Note_off_c, 9, 70, 64
8, 95880, Note_on_c, 9, 70, 40
8, 95917, Note_off_c, 9, 70, 64
8, 96000, Note_on_c, 9, 70, 75
8, 96048, Note_off_c, 9, 70, 64
8, 96120, Note_on_c, 9, 70, 40
8, 96160, Note_off_c, 9, 70, 64
8, 96240, Note_on_c, 9, 70, 75
8, 96284, Note_off_c, 9, 70, 64
8, 96360, Note_on_c, 9, 70, 40
8, 96408, Note_off_c, 9, 70, 64
8, 96480, Note_on_c, 9, 70, 77
8, 96527, Note_off_c, 9, 70, 64
8, 96600, Note_on_c, 9, 70, 40
8, 96654, Note_off_c, 9, 70, 64
8, 96720, Note_on_c, 9, 70, 75
8, 96762, Note_off_c, 9, 70, 64
8, 96840, Note_on_c, 9, 70, 40
8, 96877, Note_off_c, 9, 70, 64
8, 96960, Note_on_c, 9, 70, 75
8, 97008, Note_off_c, 9, 70, 64
8, 97080, Note_on_c, 9, 70, 40
8, 97120, Note_off_c, 9, 70, 64
8, 97200, Note_on_c, 9, 70, 75
8, 97244, Note_off_c, 9, 70, 64
8, 97320, Note_on_c, 9, 70, 40
8, 97368, Note_off_c, 9, 70, 64
8, 97440, Note_on_c, 9, 70, 77
8, 97487, Note_off_c, 9, 70, 64
8, 97560, Note_on_c, 9, 70, 40
8, 97614, Note_off_c, 9, 70, 64
8, 97680, Note_on_c, 9, 70, 75
8, 97722, Note_off_c, 9, 70, 64
8, 97800, Note_on_c, 9, 70, 40
8, 97837, Note_off_c, 9, 70, 64
8, 97920, Note_on_c, 9, 70, 75
8, 97968, Note_off_c, 9, 70, 64
8, 98040, Note_on_c, 9, 70, 40
8, 98080, Note_off_c, 9, 70, 64
8, 98160, Note_on_c, 9, 70, 75
8, 98204, Note_off_c, 9, 70, 64
8, 98280, Note_on_c, 9, 70, 40
8, 98328, Note_off_c, 9, 70, 64
8, 98400, Note_on_c, 9, 70, 77
8, 98447, Note_off_c, 9, 70, 64
8, 98520, Note_on_c, 9, 70, 40
8, 98574, Note_off_c, 9, 70, 64
8, 98640, Note_on_c, 9, 70, 75
8, 98682, Note_off_c, 9, 70, 64
8, 98760, Note_on_c, 9, 70, 40
8, 98797, Note_off_c, 9, 70, 64
8, 98880, Note_on_c, 9, 70, 75
8, 98928, Note_off_c, 9, 70, 64
8, 99000, Note_on_c, 9, 70, 40
8, 99040, Note_off_c, 9, 70, 64
8, 99120, Note_on_c, 9, 70, 75
8, 99164, Note_off_c, 9, 70, 64
8, 99240, Note_on_c, 9, 70, 40
8, 99288, Note_off_c, 9, 70, 64
8, 99360, Note_on_c, 9, 70, 77
8, 99407, Note_off_c, 9, 70, 64
8, 99480, Note_on_c, 9, 70, 40
8, 99534, Note_off_c, 9, 70, 64
8, 99600, Note_on_c, 9, 70, 75
8, 99642, Note_off_c, 9, 70, 64
8, 99720, Note_on_c, 9, 70, 40
8, 99757, Note_off_c, 9, 70, 64
8, 99840, Note_on_c, 9, 70, 75
8, 99888, Note_off_c, 9, 70, 64
8, 99960, Note_on_c, 9, 70, 40
8, 100000, Note_off_c, 9, 70, 64
8, 100080, Note_on_c, 9, 70, 75
8, 100124, Note_off_c, 9, 70, 64
8, 100200, Note_on_c, 9, 70, 40
8, 100248, Note_off_c, 9, 70, 64
8, 100320, Note_on_c, 9, 70, 77
8, 100367, Note_off_c, 9, 70, 64
8, 100440, Note_on_c, 9, 70, 40
8, 100494, Note_off_c, 9, 70, 64
8, 100560, Note_on_c, 9, 70, 75
8, 100602, Note_off_c, 9, 70, 64
8, 100680, Note_on_c, 9, 70, 40
8, 100717, Note_off_c, 9, 70, 64
8, 100800, Note_on_c, 9, 70, 75
8, 100848, Note_off_c, 9, 70, 64
8, 100920, Note_on_c, 9, 70, 40
8, 100960, Note_off_c, 9, 70, 64
8, 101040, Note_on_c, 9, 70, 75
8, 101084, Note_off_c, 9, 70, 64
8, 101160, Note_on_c, 9, 70, 40
8, 101208, Note_off_c, 9, 70, 64
8, 101280, Note_on_c, 9, 70, 77
8, 101327, Note_off_c, 9, 70, 64
8, 101400, Note_on_c, 9, 70, 40
8, 101454, Note_off_c, 9, 70, 64
8, 101520, Note_on_c, 9, 70, 75
8, 101562, Note_off_c, 9, 70, 64
8, 101640, Note_on_c, 9, 70, 40
8, 101677, Note_off_c, 9, 70, 64
8, 101760, Note_on_c, 9, 70, 75
8, 101808, Note_off_c, 9, 70, 64
8, 101880, Note_on_c, 9, 70, 40
8, 101920, Note_off_c, 9, 70, 64
8, 102000, Note_on_c, 9, 70, 75
8, 102044, Note_off_c, 9, 70, 64
8, 102120, Note_on_c, 9, 70, 40
8, 102168, Note_off_c, 9, 70, 64
8, 102240, Note_on_c, 9, 70, 77
8, 102287, Note_off_c, 9, 70, 64
8, 102360, Note_on_c, 9, 70, 40
8, 102414, Note_off_c, 9, 70, 64
8, 102480, Note_on_c, 9, 70, 75
8, 102522, Note_off_c, 9, 70, 64
8, 102600, Note_on_c, 9, 70, 40
8, 102637, Note_off_c, 9, 70, 64
8, 102720, Note_on_c, 9, 70, 75
8, 102768, Note_off_c, 9, 70, 64
8, 102840, Note_on_c, 9, 70, 40
8, 102880, Note_off_c, 9, 70, 64
8, 102960, Note_on_c, 9, 70, 75
8, 103004, Note_off_c, 9, 70, 64
8, 103080, Note_on_c, 9, 70, 40
8, 103128, Note_off_c, 9, 70, 64
8, 103200, Note_on_c, 9, 70, 77
8, 103247, Note_off_c, 9, 70, 64
8, 103320, Note_on_c, 9, 70, 40
8, 103374, Note_off_c, 9, 70, 64
8, 103440, Note_on_c, 9, 70, 75
8, 103482, Note_off_c, 9, 70, 64
8, 103560, Note_on_c, 9, 70, 40
8, 103597, Note_off_c, 9, 70, 64
8, 103597, End_track
9, 0, Start_track
9, 0, Text_t, "k/s"
9, 4800, Note_on_c, 9, 36, 85
9, 4856, Note_off_c, 9, 36, 64
9, 5160, Note_on_c, 9, 36, 85
9, 5219, Note_off_c, 9, 36, 64
9, 5520, Note_on_c, 9, 37, 86
9, 5571, Note_off_c, 9, 37, 64
9, 5700, Note_on_c, 9, 36, 72
9, 5727, Note_off_c, 9, 36, 64
9, 5760, Note_on_c, 9, 36, 79
9, 5833, Note_off_c, 9, 36, 64
9, 6120, Note_on_c, 9, 36, 75
9, 6216, Note_off_c, 9, 36, 64
9, 6720, Note_on_c, 9, 36, 76
9, 6812, Note_off_c, 9, 36, 64
9, 7080, Note_on_c, 9, 36, 82
9, 7256, Note_off_c, 9, 36, 64
9, 7440, Note_on_c, 9, 37, 84
9, 7496, Note_off_c, 9, 37, 64
9, 7620, Note_on_c, 9, 36, 63
9, 7649, Note_off_c, 9, 36, 64
9, 7680, Note_on_c, 9, 36, 85
9, 7790, Note_off_c, 9, 36, 64
9, 8040, Note_on_c, 9, 36, 88
9, 8128, Note_off_c, 9, 36, 64
9, 8280, Note_on_c, 9, 36, 79
9, 8322, Note_off_c, 9, 36, 64
9, 8460, Note_on_c, 9, 36, 86
9, 8495, Note_off_c, 9, 36, 64
9, 8520, Note_on_c, 9, 36, 75
9, 8575, Note_off_c, 9, 36, 64
9, 8640, Note_on_c, 9, 36, 85
9, 8696, Note_off_c, 9, 36, 64
9, 9000, Note_on_c, 9, 36, 85
9, 9059, Note_off_c, 9, 36, 64
9, 9360, Note_on_c, 9, 37, 86
9, 9411, Note_off_c, 9, 37, 64
9, 9540, Note_on_c, 9, 36, 72
9, 9567, Note_off_c, 9, 36, 64
9, 9600, Note_on_c, 9, 36, 79
9, 9673, Note_off_c, 9, 36, 64
9, 9960, Note_on_c, 9, 36, 75
9, 10056, Note_off_c, 9, 36, 64
9, 10560, Note_on_c, 9, 36, 76
9, 10652, Note_off_c, 9, 36, 64
9, 10920, Note_on_c, 9, 36, 82
9, 11096, Note_off_c, 9, 36, 64
9, 11280, Note_on_c, 9, 37, 84
9, 11336, Note_off_c, 9, 37, 64
9, 11460, Note_on_c, 9, 36, 63
9, 11489, Note_off_c, 9, 36, 64
9, 11520, Note_on_c, 9, 36, 85
9, 11630, Note_off_c, 9, 36, 64
9, 11880, Note_on_c, 9, 36, 88
9, 11968, Note_off_c, 9, 36, 64
9, 12120, Note_on_c, 9, 36, 79
9, 12162, Note_off_c, 9, 36, 64
9, 12300, Note_on_c, 9, 36, 86
9, 12335, Note_off_c, 9, 36, 64
9, 12360, Note_on_c, 9, 36, 75
9, 12415, Note_off_c, 9, 36, 64
9, 12480, Note_on_c, 9, 36, 85
9, 12536, Note_off_c, 9, 36, 64
9, 12840, Note_on_c, 9, 36, 85
9, 12899, Note_off_c, 9, 36, 64
9, 13200, Note_on_c, 9, 37, 86
9, 13251, Note_off_c, 9, 37, 64
9, 13380, Note_on_c, 9, 36, 72
9, 13407, Note_off_c, 9, 36, 64
9, 13440, Note_on_c, 9, 36, 79
9, 13513, Note_off_c, 9, 36, 64
9, 13800, Note_on_c, 9, 36, 75
9, 13896, Note_off_c, 9, 36, 64
9, 14400, Note_on_c, 9, 36, 76
9, 14492, Note_off_c, 9, 36, 64
9, 14760, Note_on_c, 9, 36, 82
9, 14936, Note_off_c, 9, 36, 64
9, 15120, Note_on_c, 9, 37, 84
9, 15176, Note_off_c, 9, 37, 64
9, 15300, Note_on_c, 9, 36, 63
9, 15329, Note_off_c, 9, 36, 64
9, 15360, Note_on_c, 9, 36, 85
9, 15470, Note_off_c, 9, 36, 64
9, 15720, Note_on_c, 9, 36, 88
9, 15808, Note_off_c, 9, 36, 64
9, 15960, Note_on_c, 9, 36, 79
9, 16002, Note_off_c, 9, 36, 64
9, 16140, Note_on_c, 9, 36, 86
9, 16175, Note_off_c, 9, 36, 64
9, 16200, Note_on_c, 9, 36, 75
9, 16255, Note_off_c, 9, 36, 64
9, 16320, Note_on_c, 9, 36, 85
9, 16376, Note_off_c, 9, 36, 64
9, 16680, Note_on_c, 9, 36, 85
9, 16739, Note_off_c, 9, 36, 64
9, 17040, Note_on_c, 9, 37, 86
9, 17091, Note_off_c, 9, 37, 64
9, 17220, Note_on_c, 9, 36, 72
9, 17247, Note_off_c, 9, 36, 64
9, 17280, Note_on_c, 9, 36, 79
9, 17353, Note_off_c, 9, 36, 64
9, 17640, Note_on_c, 9, 36, 75
9, 17736, Note_off_c, 9, 36, 64
9, 18240, Note_on_c, 9, 36, 76
9, 18332, Note_off_c, 9, 36, 64
9, 18600, Note_on_c, 9, 36, 82
9, 18776, Note_off_c, 9, 36, 64
9, 18960, Note_on_c, 9, 38, 84
9, 19016, Note_off_c, 9, 38, 64
9, 19200, Note_on_c, 9, 36, 100
9, 19432, Note_off_c, 9, 36, 64
9, 19440, Note_on_c, 9, 38, 100
9, 19501, Note_off_c, 9, 38, 64
9, 19560, Note_on_c, 9, 36, 100
9, 19754, Note_off_c, 9, 36, 64
9, 19800, Note_on_c, 9, 36, 100
9, 19920, Note_on_c, 9, 38, 99
9, 19927, Note_off_c, 9, 36, 64
9, 19961, Note_off_c, 9, 38, 64
9, 19980, Note_on_c, 9, 36, 100
9, 20007, Note_off_c, 9, 36, 64
9, 20040, Note_on_c, 9, 36, 97
9, 20123, Note_off_c, 9, 36, 64
9, 20160, Note_on_c, 9, 36, 100
9, 20400, Note_on_c, 9, 38, 100
9, 20421, Note_off_c, 9, 36, 64
9, 20474, Note_off_c, 9, 38, 64
9, 20520, Note_on_c, 9, 36, 100
9, 20672, Note_off_c, 9, 36, 64
9, 20760, Note_on_c, 9, 36, 100
9, 20880, Note_on_c, 9, 38, 100
9, 20935, Note_off_c, 9, 38, 64
9, 21013, Note_off_c, 9, 36, 64
9, 21120, Note_on_c, 9, 36, 99
9, 21360, Note_on_c, 9, 38, 100
9, 21383, Note_off_c, 9, 36, 64
9, 21449, Note_off_c, 9, 38, 64
9, 21480, Note_on_c, 9, 36, 100
9, 21631, Note_off_c, 9, 36, 64
9, 21720, Note_on_c, 9, 36, 100
9, 21840, Note_on_c, 9, 38, 99
9, 21859, Note_off_c, 9, 36, 64
9, 21873, Note_off_c, 9, 38, 64
9, 21900, Note_on_c, 9, 36, 75
9, 21928, Note_off_c, 9, 36, 64
9, 21960, Note_on_c, 9, 36, 92
9, 22047, Note_off_c, 9, 36, 64
9, 22080, Note_on_c, 9, 36, 99
9, 22320, Note_on_c, 9, 38, 100
9, 22341, Note_off_c, 9, 36, 64
9, 22387, Note_off_c, 9, 38, 64
9, 22440, Note_on_c, 9, 36, 100
9, 22588, Note_off_c, 9, 36, 64
9, 22680, Note_on_c, 9, 36, 100
9, 22800, Note_on_c, 9, 38, 100
9, 22808, Note_off_c, 9, 36, 64
9, 22842, Note_off_c, 9, 38, 64
9, 22860, Note_on_c, 9, 36, 99
9, 22952, Note_off_c, 9, 36, 64
9, 23040, Note_on_c, 9, 36, 100
9, 23280, Note_on_c, 9, 38, 100
9, 23282, Note_off_c, 9, 36, 64
9, 23366, Note_off_c, 9, 38, 64
9, 23400, Note_on_c, 9, 36, 100
9, 23534, Note_off_c, 9, 36, 64
9, 23640, Note_on_c, 9, 36, 100
9, 23760, Note_on_c, 9, 38, 99
9, 23776, Note_off_c, 9, 36, 64
9, 23792, Note_off_c, 9, 38, 64
9, 23820, Note_on_c, 9, 36, 90
9, 23848, Note_off_c, 9, 36, 64
9, 23880, Note_on_c, 9, 36, 97
9, 23958, Note_off_c, 9, 36, 64
9, 24000, Note_on_c, 9, 36, 100
9, 24240, Note_on_c, 9, 38, 100
9, 24261, Note_off_c, 9, 36, 64
9, 24307, Note_off_c, 9, 38, 64
9, 24360, Note_on_c, 9, 36, 100
9, 24501, Note_off_c, 9, 36, 64
9, 24600, Note_on_c, 9, 36, 100
9, 24720, Note_on_c, 9, 38, 100
9, 24779, Note_off_c, 9, 38, 64
9, 24835, Note_off_c, 9, 36, 64
9, 24900, Note_on_c, 9, 36, 80
9, 24919, Note_off_c, 9, 36, 64
9, 24960, Note_on_c, 9, 36, 100
9, 25200, Note_on_c, 9, 38, 100
9, 25222, Note_off_c, 9, 36, 64
9, 25284, Note_off_c, 9, 38, 64
9, 25320, Note_on_c, 9, 36, 100
9, 25453, Note_off_c, 9, 36, 64
9, 25560, Note_on_c, 9, 36, 100
9, 25680, Note_on_c, 9, 38, 100
9, 25707, Note_off_c, 9, 36, 64
9, 25744, Note_off_c, 9, 38, 64
9, 25800, Note_on_c, 9, 36, 78
9, 25821, Note_off_c, 9, 36, 64
9, 25920, Note_on_c, 9, 36, 100
9, 26160, Note_on_c, 9, 38, 100
9, 26178, Note_off_c, 9, 36, 64
9, 26264, Note_off_c, 9, 38, 64
9, 26280, Note_on_c, 9, 36, 100
9, 26477, Note_off_c, 9, 36, 64
9, 26520, Note_on_c, 9, 38, 100
9, 26543, Note_off_c, 9, 38, 64
9, 26640, Note_on_c, 9, 47, 100
9, 26659, Note_off_c, 9, 47, 64
9, 26760, Note_on_c, 9, 43, 100
9, 26778, Note_off_c, 9, 43, 64
9, 26880, Note_on_c, 9, 36, 100
9, 27195, Note_off_c, 9, 36, 64
9, 27240, Note_on_c, 9, 36, 100
9, 27417, Note_off_c, 9, 36, 64
9, 27480, Note_on_c, 9, 36, 97
9, 27512, Note_off_c, 9, 36, 64
9, 27600, Note_on_c, 9, 38, 100
9, 27628, Note_off_c, 9, 38, 64
9, 27840, Note_on_c, 9, 36, 85
9, 27896, Note_off_c, 9, 36, 64
9, 28200, Note_on_c, 9, 36, 85
9, 28259, Note_off_c, 9, 36, 64
9, 28560, Note_on_c, 9, 37, 86
9, 28611, Note_off_c, 9, 37, 64
9, 28740, Note_on_c, 9, 36, 72
9, 28767, Note_off_c, 9, 36, 64
9, 28800, Note_on_c, 9, 36, 79
9, 28873, Note_off_c, 9, 36, 64
9, 29160, Note_on_c, 9, 36, 75
9, 29256, Note_off_c, 9, 36, 64
9, 29760, Note_on_c, 9, 36, 76
9, 29852, Note_off_c, 9, 36, 64
9, 30120, Note_on_c, 9, 36, 82
9, 30296, Note_off_c, 9, 36, 64
9, 30480, Note_on_c, 9, 37, 84
9, 30536, Note_off_c, 9, 37, 64
9, 30660, Note_on_c, 9, 36, 63
9, 30689, Note_off_c, 9, 36, 64
9, 30720, Note_on_c, 9, 36, 85
9, 30830, Note_off_c, 9, 36, 64
9, 31080, Note_on_c, 9, 36, 88
9, 31168, Note_off_c, 9, 36, 64
9, 31320, Note_on_c, 9, 36, 79
9, 31362, Note_off_c, 9, 36, 64
9, 31500, Note_on_c, 9, 36, 86
9, 31535, Note_off_c, 9, 36, 64
9, 31560, Note_on_c, 9, 36, 75
9, 31615, Note_off_c, 9, 36, 64
9, 31680, Note_on_c, 9, 36, 85
9, 31736, Note_off_c, 9, 36, 64
9, 32040, Note_on_c, 9, 36, 85
9, 32099, Note_off_c, 9, 36, 64
9, 32400, Note_on_c, 9, 37, 86
9, 32451, Note_off_c, 9, 37, 64
9, 32580, Note_on_c, 9, 36, 72
9, 32607, Note_off_c, 9, 36, 64
9, 32640, Note_on_c, 9, 36, 79
9, 32713, Note_off_c, 9, 36, 64
9, 33000, Note_on_c, 9, 36, 75
9, 33096, Note_off_c, 9, 36, 64
9, 33600, Note_on_c, 9, 36, 76
9, 33692, Note_off_c, 9, 36, 64
9, 33960, Note_on_c, 9, 36, 82
9, 34136, Note_off_c, 9, 36, 64
9, 34320, Note_on_c, 9, 37, 84
9, 34376, Note_off_c, 9, 37, 64
9, 34500, Note_on_c, 9, 36, 63
9, 34529, Note_off_c, 9, 36, 64
9, 34560, Note_on_c, 9, 36, 85
9, 34670, Note_off_c, 9, 36, 64
9, 34920, Note_on_c, 9, 36, 88
9, 35008, Note_off_c, 9, 36, 64
9, 35160, Note_on_c, 9, 36, 79
9, 35202, Note_off_c, 9, 36, 64
9, 35340, Note_on_c, 9, 36, 86
9, 35375, Note_off_c, 9, 36, 64
9, 35400, Note_on_c, 9, 36, 75
9, 35455, Note_off_c, 9, 36, 64
9, 35520, Note_on_c, 9, 36, 85
9, 35576, Note_off_c, 9, 36, 64
9, 35880, Note_on_c, 9, 36, 85
9, 35939, Note_off_c, 9, 36, 64
9, 36240, Note_on_c, 9, 37, 86
9, 36291, Note_off_c, 9, 37, 64
9, 36420, Note_on_c, 9, 36, 72
9, 36447, Note_off_c, 9, 36, 64
9, 36480, Note_on_c, 9, 36, 79
9, 36553, Note_off_c, 9, 36, 64
9, 36840, Note_on_c, 9, 36, 75
9, 36936, Note_off_c, 9, 36, 64
9, 37440, Note_on_c, 9, 36, 76
9, 37532, Note_off_c, 9, 36, 64
9, 37800, Note_on_c, 9, 36, 82
9, 37976, Note_off_c, 9, 36, 64
9, 38160, Note_on_c, 9, 37, 84
9, 38216, Note_off_c, 9, 37, 64
9, 38340, Note_on_c, 9, 36, 63
9, 38369, Note_off_c, 9, 36, 64
9, 38400, Note_on_c, 9, 36, 85
9, 38510, Note_off_c, 9, 36, 64
9, 38760, Note_on_c, 9, 36, 88
9, 38848, Note_off_c, 9, 36, 64
9, 39000, Note_on_c, 9, 36, 79
9, 39042, Note_off_c, 9, 36, 64
9, 39180, Note_on_c, 9, 36, 86
9, 39215, Note_off_c, 9, 36, 64
9, 39240, Note_on_c, 9, 36, 75
9, 39295, Note_off_c, 9, 36, 64
9, 39360, Note_on_c, 9, 36, 85
9, 39416, Note_off_c, 9, 36, 64
9, 39720, Note_on_c, 9, 36, 85
9, 39779, Note_off_c, 9, 36, 64
9, 40080, Note_on_c, 9, 37, 86
9, 40131, Note_off_c, 9, 37, 64
9, 40260, Note_on_c, 9, 36, 72
9, 40287, Note_off_c, 9, 36, 64
9, 40320, Note_on_c, 9, 36, 79
9, 40393, Note_off_c, 9, 36, 64
9, 40680, Note_on_c, 9, 36, 75
9, 40776, Note_off_c, 9, 36, 64
9, 41400, Note_on_c, 9, 36, 67
9, 41445, Note_off_c, 9, 36, 64
9, 41520, Note_on_c, 9, 36, 100
9, 41552, Note_off_c, 9, 36, 64
9, 41640, Note_on_c, 9, 36, 100
9, 41755, Note_on_c, 9, 38, 80
9, 41760, Note_on_c, 9, 38, 100
9, 41772, Note_off_c, 9, 36, 64
9, 41785, Note_off_c, 9, 38, 64
9, 41797, Note_off_c, 9, 38, 64
9, 41940, Note_on_c, 9, 36, 100
9, 41972, Note_off_c, 9, 36, 64
9, 42000, Note_on_c, 9, 38, 100
9, 42024, Note_off_c, 9, 38, 64
9, 42060, Note_on_c, 9, 38, 100
9, 42078, Note_off_c, 9, 38, 64
9, 42120, Note_on_c, 9, 43, 100
9, 42138, Note_off_c, 9, 43, 64
9, 42240, Note_on_c, 9, 36, 100
9, 42472, Note_off_c, 9, 36, 64
9, 42480, Note_on_c, 9, 38, 100
9, 42541, Note_off_c, 9, 38, 64
9, 42600, Note_on_c, 9, 36, 100
9, 42794, Note_off_c, 9, 36, 64
9, 42840, Note_on_c, 9, 36, 100
9, 42960, Note_on_c, 9, 38, 99
9, 42967, Note_off_c, 9, 36, 64
9, 43001, Note_off_c, 9, 38, 64
9, 43020, Note_on_c, 9, 36, 100
9, 43047, Note_off_c, 9, 36, 64
9, 43080, Note_on_c, 9, 36, 97
9, 43163, Note_off_c, 9, 36, 64
9, 43200, Note_on_c, 9, 36, 100
9, 43440, Note_on_c, 9, 38, 100
9, 43461, Note_off_c, 9, 36, 64
9, 43514, Note_off_c, 9, 38, 64
9, 43560, Note_on_c, 9, 36, 100
9, 43712, Note_off_c, 9, 36, 64
9, 43800, Note_on_c, 9, 36, 100
9, 43920, Note_on_c, 9, 38, 100
9, 43975, Note_off_c, 9, 38, 64
9, 44053, Note_off_c, 9, 36, 64
9, 44160, Note_on_c, 9, 36, 99
9, 44400, Note_on_c, 9, 38, 100
9, 44423, Note_off_c, 9, 36, 64
9, 44489, Note_off_c, 9, 38, 64
9, 44520, Note_on_c, 9, 36, 100
9, 44671, Note_off_c, 9, 36, 64
9, 44760, Note_on_c, 9, 36, 100
9, 44880, Note_on_c, 9, 38, 99
9, 44899, Note_off_c, 9, 36, 64
9, 44913, Note_off_c, 9, 38, 64
9, 44940, Note_on_c, 9, 36, 75
9, 44968, Note_off_c, 9, 36, 64
9, 45000, Note_on_c, 9, 36, 92
9, 45087, Note_off_c, 9, 36, 64
9, 45120, Note_on_c, 9, 36, 99
9, 45360, Note_on_c, 9, 38, 100
9, 45381, Note_off_c, 9, 36, 64
9, 45427, Note_off_c, 9, 38, 64
9, 45480, Note_on_c, 9, 36, 100
9, 45628, Note_off_c, 9, 36, 64
9, 45720, Note_on_c, 9, 36, 100
9, 45840, Note_on_c, 9, 38, 100
9, 45848, Note_off_c, 9, 36, 64
9, 45882, Note_off_c, 9, 38, 64
9, 45900, Note_on_c, 9, 36, 99
9, 45992, Note_off_c, 9, 36, 64
9, 46080, Note_on_c, 9, 36, 100
9, 46320, Note_on_c, 9, 38, 100
9, 46322, Note_off_c, 9, 36, 64
9, 46406, Note_off_c, 9, 38, 64
9, 46440, Note_on_c, 9, 36, 100
9, 46574, Note_off_c, 9, 36, 64
9, 46680, Note_on_c, 9, 36, 100
9, 46800, Note_on_c, 9, 38, 99
9, 46816, Note_off_c, 9, 36, 64
9, 46832, Note_off_c, 9, 38, 64
9, 46860, Note_on_c, 9, 36, 90
9, 46888, Note_off_c, 9, 36, 64
9, 46920, Note_on_c, 9, 36, 97
9, 46998, Note_off_c, 9, 36, 64
9, 47040, Note_on_c, 9, 36, 100
9, 47280, Note_on_c, 9, 38, 100
9, 47301, Note_off_c, 9, 36, 64
9, 47347, Note_off_c, 9, 38, 64
9, 47400, Note_on_c, 9, 36, 100
9, 47541, Note_off_c, 9, 36, 64
9, 47640, Note_on_c, 9, 36, 100
9, 47760, Note_on_c, 9, 38, 100
9, 47819, Note_off_c, 9, 38, 64
9, 47875, Note_off_c, 9, 36, 64
9, 47940, Note_on_c, 9, 36, 80
9, 47959, Note_off_c, 9, 36, 64
9, 48000, Note_on_c, 9, 36, 100
9, 48240, Note_on_c, 9, 38, 100
9, 48256, Note_off_c, 9, 36, 64
9, 48291, Note_off_c, 9, 38, 64
9, 48360, Note_on_c, 9, 36, 100
9, 48537, Note_off_c, 9, 36, 64
9, 48600, Note_on_c, 9, 36, 100
9, 48720, Note_on_c, 9, 38, 100
9, 48734, Note_off_c, 9, 36, 64
9, 48770, Note_off_c, 9, 38, 64
9, 48780, Note_on_c, 9, 36, 100
9, 48898, Note_off_c, 9, 36, 64
9, 48960, Note_on_c, 9, 36, 100
9, 49083, Note_off_c, 9, 36, 64
9, 49140, Note_on_c, 9, 36, 100
9, 49200, Note_on_c, 9, 38, 100
9, 49262, Note_off_c, 9, 36, 64
9, 49313, Note_off_c, 9, 38, 64
9, 49320, Note_on_c, 9, 36, 100
9, 49468, Note_off_c, 9, 36, 64
9, 49560, Note_on_c, 9, 36, 100
9, 49680, Note_on_c, 9, 38, 100
9, 49718, Note_off_c, 9, 36, 64
9, 49730, Note_off_c, 9, 38, 64
9, 49800, Note_on_c, 9, 36, 72
9, 49823, Note_off_c, 9, 36, 64
9, 49920, Note_on_c, 9, 36, 100
9, 50160, Note_on_c, 9, 38, 100
9, 50195, Note_off_c, 9, 36, 64
9, 50254, Note_off_c, 9, 38, 64
9, 50280, Note_on_c, 9, 36, 100
9, 50442, Note_off_c, 9, 36, 64
9, 50520, Note_on_c, 9, 38, 100
9, 50548, Note_off_c, 9, 38, 64
9, 50580, Note_on_c, 9, 38, 100
9, 50608, Note_off_c, 9, 38, 64
9, 50640, Note_on_c, 9, 38, 100
9, 50659, Note_off_c, 9, 38, 64
9, 50700, Note_on_c, 9, 45, 100
9, 50719, Note_off_c, 9, 45, 64
9, 50880, Note_on_c, 9, 36, 100
9, 51120, Note_on_c, 9, 38, 100
9, 51126, Note_off_c, 9, 36, 64
9, 51170, Note_off_c, 9, 38, 64
9, 51240, Note_on_c, 9, 36, 88
9, 51471, Note_off_c, 9, 36, 64
9, 51600, Note_on_c, 9, 38, 100
9, 51636, Note_off_c, 9, 38, 64
9, 51840, Note_on_c, 9, 36, 100
9, 51872, Note_off_c, 9, 36, 64
9, 52080, Note_on_c, 9, 38, 100
9, 52112, Note_off_c, 9, 38, 64
9, 52200, Note_on_c, 9, 36, 97
9, 52236, Note_off_c, 9, 36, 64
9, 52560, Note_on_c, 9, 38, 100
9, 52595, Note_off_c, 9, 38, 64
9, 52800, Note_on_c, 9, 36, 97
9, 52849, Note_off_c, 9, 36, 64
9, 53040, Note_on_c, 9, 38, 100
9, 53081, Note_off_c, 9, 38, 64
9, 53160, Note_on_c, 9, 36, 92
9, 53209, Note_off_c, 9, 36, 64
9, 53520, Note_on_c, 9, 38, 100
9, 53561, Note_off_c, 9, 38, 64
9, 53760, Note_on_c, 9, 36, 99
9, 53814, Note_off_c, 9, 36, 64
9, 54000, Note_on_c, 9, 38, 100
9, 54041, Note_off_c, 9, 38, 64
9, 54120, Note_on_c, 9, 36, 94
9, 54192, Note_off_c, 9, 36, 64
9, 54480, Note_on_c, 9, 38, 100
9, 54512, Note_off_c, 9, 38, 64
9, 54660, Note_on_c, 9, 36, 73
9, 54679, Note_off_c, 9, 36, 64
9, 54720, Note_on_c, 9, 36, 100
9, 54775, Note_off_c, 9, 36, 64
9, 54960, Note_on_c, 9, 38, 100
9, 55014, Note_off_c, 9, 38, 64
9, 55080, Note_on_c, 9, 36, 92
9, 55147, Note_off_c, 9, 36, 64
9, 55440, Note_on_c, 9, 38, 100
9, 55480, Note_off_c, 9, 38, 64
9, 55680, Note_on_c, 9, 36, 100
9, 55734, Note_off_c, 9, 36, 64
9, 55920, Note_on_c, 9, 38, 100
9, 55960, Note_off_c, 9, 38, 64
9, 56040, Note_on_c, 9, 36, 97
9, 56117, Note_off_c, 9, 36, 64
9, 56280, Note_on_c, 9, 36, 80
9, 56326, Note_off_c, 9, 36, 64
9, 56400, Note_on_c, 9, 38, 100
9, 56450, Note_off_c, 9, 38, 64
9, 56640, Note_on_c, 9, 36, 100
9, 56689, Note_off_c, 9, 36, 64
9, 56880, Note_on_c, 9, 38, 100
9, 56926, Note_off_c, 9, 38, 64
9, 57000, Note_on_c, 9, 36, 94
9, 57090, Note_off_c, 9, 36, 64
9, 57240, Note_on_c, 9, 36, 94
9, 57313, Note_off_c, 9, 36, 64
9, 57360, Note_on_c, 9, 38, 100
9, 57401, Note_off_c, 9, 38, 64
9, 57600, Note_on_c, 9, 36, 79
9, 57630, Note_off_c, 9, 36, 64
9, 57720, Note_on_c, 9, 36, 99
9, 57840, Note_on_c, 9, 38, 100
9, 57865, Note_off_c, 9, 36, 64
9, 57903, Note_off_c, 9, 38, 64
9, 57960, Note_on_c, 9, 36, 97
9, 58001, Note_off_c, 9, 36, 64
9, 58080, Note_on_c, 9, 36, 100
9, 58117, Note_off_c, 9, 36, 64
9, 58200, Note_on_c, 9, 38, 54
9, 58223, Note_off_c, 9, 38, 64
9, 58240, Note_on_c, 9, 38, 62
9, 58263, Note_off_c, 9, 38, 64
9, 58280, Note_on_c, 9, 38, 70
9, 58307, Note_off_c, 9, 38, 64
9, 58320, Note_on_c, 9, 38, 77
9, 58347, Note_off_c, 9, 38, 64
9, 58360, Note_on_c, 9, 47, 85
9, 58390, Note_off_c, 9, 47, 64
9, 58400, Note_on_c, 9, 47, 93
9, 58427, Note_off_c, 9, 47, 64
9, 58440, Note_on_c, 9, 43, 100
9, 58470, Note_off_c, 9, 43, 64
9, 58560, Note_on_c, 9, 38, 100
9, 58601, Note_off_c, 9, 38, 64
9, 58680, Note_on_c, 9, 36, 100
9, 58765, Note_off_c, 9, 36, 64
9, 58800, Note_on_c, 9, 38, 100
9, 58869, Note_off_c, 9, 38, 64
9, 58920, Note_on_c, 9, 36, 100
9, 59111, Note_off_c, 9, 36, 64
9, 59160, Note_on_c, 9, 36, 100
9, 59280, Note_on_c, 9, 38, 100
9, 59312, Note_off_c, 9, 38, 64
9, 59353, Note_off_c, 9, 36, 64
9, 59520, Note_on_c, 9, 36, 100
9, 59760, Note_on_c, 9, 38, 100
9, 59781, Note_off_c, 9, 36, 64
9, 59834, Note_off_c, 9, 38, 64
9, 59880, Note_on_c, 9, 36, 100
9, 60032, Note_off_c, 9, 36, 64
9, 60120, Note_on_c, 9, 36, 100
9, 60240, Note_on_c, 9, 38, 100
9, 60295, Note_off_c, 9, 38, 64
9, 60373, Note_off_c, 9, 36, 64
9, 60480, Note_on_c, 9, 36, 99
9, 60720, Note_on_c, 9, 38, 100
9, 60743, Note_off_c, 9, 36, 64
9, 60809, Note_off_c, 9, 38, 64
9, 60840, Note_on_c, 9, 36, 100
9, 60991, Note_off_c, 9, 36, 64
9, 61080, Note_on_c, 9, 36, 100
9, 61200, Note_on_c, 9, 38, 99
9, 61219, Note_off_c, 9, 36, 64
9, 61233, Note_off_c, 9, 38, 64
9, 61260, Note_on_c, 9, 36, 75
9, 61288, Note_off_c, 9, 36, 64
9, 61320, Note_on_c, 9, 36, 92
9, 61407, Note_off_c, 9, 36, 64
9, 61440, Note_on_c, 9, 36, 99
9, 61680, Note_on_c, 9, 38, 100
9, 61701, Note_off_c, 9, 36, 64
9, 61747, Note_off_c, 9, 38, 64
9, 61800, Note_on_c, 9, 36, 100
9, 61948, Note_off_c, 9, 36, 64
9, 62040, Note_on_c, 9, 36, 100
9, 62160, Note_on_c, 9, 38, 100
9, 62168, Note_off_c, 9, 36, 64
9, 62202, Note_off_c, 9, 38, 64
9, 62220, Note_on_c, 9, 36, 99
9, 62312, Note_off_c, 9, 36, 64
9, 62400, Note_on_c, 9, 36, 100
9, 62640, Note_on_c, 9, 38, 100
9, 62642, Note_off_c, 9, 36, 64
9, 62726, Note_off_c, 9, 38, 64
9, 62760, Note_on_c, 9, 36, 100
9, 62894, Note_off_c, 9, 36, 64
9, 63000, Note_on_c, 9, 36, 100
9, 63120, Note_on_c, 9, 38, 99
9, 63136, Note_off_c, 9, 36, 64
9, 63152, Note_off_c, 9, 38, 64
9, 63180, Note_on_c, 9, 36, 90
9, 63208, Note_off_c, 9, 36, 64
9, 63240, Note_on_c, 9, 36, 97
9, 63318, Note_off_c, 9, 36, 64
9, 63360, Note_on_c, 9, 36, 100
9, 63600, Note_on_c, 9, 38, 100
9, 63621, Note_off_c, 9, 36, 64
9, 63667, Note_off_c, 9, 38, 64
9, 63720, Note_on_c, 9, 36, 100
9, 63861, Note_off_c, 9, 36, 64
9, 63960, Note_on_c, 9, 36, 100
9, 64080, Note_on_c, 9, 38, 100
9, 64139, Note_off_c, 9, 38, 64
9, 64195, Note_off_c, 9, 36, 64
9, 64260, Note_on_c, 9, 36, 80
9, 64279, Note_off_c, 9, 36, 64
9, 64320, Note_on_c, 9, 36, 100
9, 64560, Note_on_c, 9, 38, 100
9, 64576, Note_off_c, 9, 36, 64
9, 64611, Note_off_c, 9, 38, 64
9, 64680, Note_on_c, 9, 36, 100
9, 64857, Note_off_c, 9, 36, 64
9, 64920, Note_on_c, 9, 36, 100
9, 65040, Note_on_c, 9, 38, 100
9, 65054, Note_off_c, 9, 36, 64
9, 65090, Note_off_c, 9, 38, 64
9, 65100, Note_on_c, 9, 36, 100
9, 65218, Note_off_c, 9, 36, 64
9, 65280, Note_on_c, 9, 36, 100
9, 65520, Note_on_c, 9, 38, 100
9, 65553, Note_off_c, 9, 36, 64
9, 65638, Note_off_c, 9, 38, 64
9, 65640, Note_on_c, 9, 36, 100
9, 65766, Note_off_c, 9, 36, 64
9, 65880, Note_on_c, 9, 36, 100
9, 66000, Note_on_c, 9, 38, 100
9, 66011, Note_off_c, 9, 36, 64
9, 66041, Note_off_c, 9, 38, 64
9, 66120, Note_on_c, 9, 38, 100
9, 66144, Note_off_c, 9, 38, 64
9, 66180, Note_on_c, 9, 38, 100
9, 66219, Note_off_c, 9, 38, 64
9, 66240, Note_on_c, 9, 36, 100
9, 66480, Note_on_c, 9, 38, 100
9, 66482, Note_off_c, 9, 36, 64
9, 66566, Note_off_c, 9, 38, 64
9, 66600, Note_on_c, 9, 36, 100
9, 66734, Note_off_c, 9, 36, 64
9, 66840, Note_on_c, 9, 36, 100
9, 66960, Note_on_c, 9, 38, 99
9, 66976, Note_off_c, 9, 36, 64
9, 66992, Note_off_c, 9, 38, 64
9, 67020, Note_on_c, 9, 36, 90
9, 67048, Note_off_c, 9, 36, 64
9, 67080, Note_on_c, 9, 36, 97
9, 67158, Note_off_c, 9, 36, 64
9, 67200, Note_on_c, 9, 36, 100
9, 67440, Note_on_c, 9, 38, 100
9, 67461, Note_off_c, 9, 36, 64
9, 67507, Note_off_c, 9, 38, 64
9, 67560, Note_on_c, 9, 36, 100
9, 67701, Note_off_c, 9, 36, 64
9, 67800, Note_on_c, 9, 36, 100
9, 67920, Note_on_c, 9, 38, 100
9, 67979, Note_off_c, 9, 38, 64
9, 68035, Note_off_c, 9, 36, 64
9, 68100, Note_on_c, 9, 36, 80
9, 68119, Note_off_c, 9, 36, 64
9, 68160, Note_on_c, 9, 36, 100
9, 68400, Note_on_c, 9, 38, 100
9, 68416, Note_off_c, 9, 36, 64
9, 68451, Note_off_c, 9, 38, 64
9, 68520, Note_on_c, 9, 36, 100
9, 68697, Note_off_c, 9, 36, 64
9, 68760, Note_on_c, 9, 36, 100
9, 68880, Note_on_c, 9, 38, 100
9, 68894, Note_off_c, 9, 36, 64
9, 68930, Note_off_c, 9, 38, 64
9, 68940, Note_on_c, 9, 36, 100
9, 69058, Note_off_c, 9, 36, 64
9, 69120, Note_on_c, 9, 36, 100
9, 69218, Note_off_c, 9, 36, 64
9, 69300, Note_on_c, 9, 36, 100
9, 69360, Note_on_c, 9, 38, 100
9, 69399, Note_off_c, 9, 36, 64
9, 69480, Note_on_c, 9, 36, 100
9, 69495, Note_off_c, 9, 38, 64
9, 69600, Note_on_c, 9, 38, 100
9, 69607, Note_off_c, 9, 36, 64
9, 69720, Note_on_c, 9, 36, 100
9, 69739, Note_off_c, 9, 38, 64
9, 69827, Note_off_c, 9, 36, 64
9, 69840, Note_on_c, 9, 38, 100
9, 69872, Note_off_c, 9, 38, 64
9, 69900, Note_on_c, 9, 36, 100
9, 69937, Note_off_c, 9, 36, 64
9, 70740, Note_on_c, 9, 36, 100
9, 70800, Note_on_c, 9, 38, 100
9, 70800, Note_on_c, 9, 43, 100
9, 70821, Note_off_c, 9, 36, 64
9, 70885, Note_off_c, 9, 38, 64
9, 70890, Note_off_c, 9, 43, 64
9, 71040, Note_on_c, 9, 36, 100
9, 71280, Note_on_c, 9, 38, 100
9, 71282, Note_off_c, 9, 36, 64
9, 71366, Note_off_c, 9, 38, 64
9, 71400, Note_on_c, 9, 36, 100
9, 71534, Note_off_c, 9, 36, 64
9, 71640, Note_on_c, 9, 36, 100
9, 71760, Note_on_c, 9, 38, 99
9, 71776, Note_off_c, 9, 36, 64
9, 71792, Note_off_c, 9, 38, 64
9, 71820, Note_on_c, 9, 36, 90
9, 71848, Note_off_c, 9, 36, 64
9, 71880, Note_on_c, 9, 36, 97
9, 71958, Note_off_c, 9, 36, 64
9, 72000, Note_on_c, 9, 36, 100
9, 72240, Note_on_c, 9, 38, 100
9, 72261, Note_off_c, 9, 36, 64
9, 72307, Note_off_c, 9, 38, 64
9, 72360, Note_on_c, 9, 36, 100
9, 72501, Note_off_c, 9, 36, 64
9, 72600, Note_on_c, 9, 36, 100
9, 72720, Note_on_c, 9, 38, 100
9, 72779, Note_off_c, 9, 38, 64
9, 72835, Note_off_c, 9, 36, 64
9, 72900, Note_on_c, 9, 36, 80
9, 72919, Note_off_c, 9, 36, 64
9, 72960, Note_on_c, 9, 36, 99
9, 73200, Note_on_c, 9, 38, 100
9, 73223, Note_off_c, 9, 36, 64
9, 73289, Note_off_c, 9, 38, 64
9, 73320, Note_on_c, 9, 36, 100
9, 73471, Note_off_c, 9, 36, 64
9, 73560, Note_on_c, 9, 36, 100
9, 73680, Note_on_c, 9, 38, 99
9, 73699, Note_off_c, 9, 36, 64
9, 73713, Note_off_c, 9, 38, 64
9, 73740, Note_on_c, 9, 36, 75
9, 73768, Note_off_c, 9, 36, 64
9, 73800, Note_on_c, 9, 36, 92
9, 73887, Note_off_c, 9, 36, 64
9, 73920, Note_on_c, 9, 36, 99
9, 74160, Note_on_c, 9, 38, 100
9, 74181, Note_off_c, 9, 36, 64
9, 74227, Note_off_c, 9, 38, 64
9, 74280, Note_on_c, 9, 36, 100
9, 74428, Note_off_c, 9, 36, 64
9, 74520, Note_on_c, 9, 36, 100
9, 74640, Note_on_c, 9, 38, 100
9, 74648, Note_off_c, 9, 36, 64
9, 74682, Note_off_c, 9, 38, 64
9, 74700, Note_on_c, 9, 36, 99
9, 74792, Note_off_c, 9, 36, 64
9, 74880, Note_on_c, 9, 36, 100
9, 75120, Note_on_c, 9, 38, 100
9, 75122, Note_off_c, 9, 36, 64
9, 75206, Note_off_c, 9, 38, 64
9, 75240, Note_on_c, 9, 36, 100
9, 75374, Note_off_c, 9, 36, 64
9, 75480, Note_on_c, 9, 36, 100
9, 75600, Note_on_c, 9, 38, 99
9, 75616, Note_off_c, 9, 36, 64
9, 75632, Note_off_c, 9, 38, 64
9, 75660, Note_on_c, 9, 36, 90
9, 75688, Note_off_c, 9, 36, 64
9, 75720, Note_on_c, 9, 36, 97
9, 75798, Note_off_c, 9, 36, 64
9, 75840, Note_on_c, 9, 36, 100
9, 76080, Note_on_c, 9, 38, 100
9, 76101, Note_off_c, 9, 36, 64
9, 76147, Note_off_c, 9, 38, 64
9, 76200, Note_on_c, 9, 36, 100
9, 76341, Note_off_c, 9, 36, 64
9, 76440, Note_on_c, 9, 36, 100
9, 76560, Note_on_c, 9, 38, 100
9, 76619, Note_off_c, 9, 38, 64
9, 76675, Note_off_c, 9, 36, 64
9, 76740, Note_on_c, 9, 36, 80
9, 76759, Note_off_c, 9, 36, 64
9, 76800, Note_on_c, 9, 36, 100
9, 77040, Note_on_c, 9, 38, 100
9, 77056, Note_off_c, 9, 36, 64
9, 77091, Note_off_c, 9, 38, 64
9, 77160, Note_on_c, 9, 36, 100
9, 77337, Note_off_c, 9, 36, 64
9, 77400, Note_on_c, 9, 36, 100
9, 77520, Note_on_c, 9, 38, 100
9, 77534, Note_off_c, 9, 36, 64
9, 77570, Note_off_c, 9, 38, 64
9, 77580, Note_on_c, 9, 36, 100
9, 77698, Note_off_c, 9, 36, 64
9, 77760, Note_on_c, 9, 36, 100
9, 77858, Note_off_c, 9, 36, 64
9, 77940, Note_on_c, 9, 36, 100
9, 78000, Note_on_c, 9, 38, 100
9, 78039, Note_off_c, 9, 36, 64
9, 78120, Note_on_c, 9, 36, 100
9, 78135, Note_off_c, 9, 38, 64
9, 78240, Note_on_c, 9, 38, 100
9, 78247, Note_off_c, 9, 36, 64
9, 78360, Note_on_c, 9, 36, 100
9, 78379, Note_off_c, 9, 38, 64
9, 78467, Note_off_c, 9, 36, 64
9, 78480, Note_on_c, 9, 38, 100
9, 78512, Note_off_c, 9, 38, 64
9, 78540, Note_on_c, 9, 36, 100
9, 78577, Note_off_c, 9, 36, 64
9, 78720, Note_on_c, 9, 36, 100
9, 78960, Note_on_c, 9, 38, 100
9, 78962, Note_off_c, 9, 36, 64
9, 79046, Note_off_c, 9, 38, 64
9, 79080, Note_on_c, 9, 36, 100
9, 79214, Note_off_c, 9, 36, 64
9, 79320, Note_on_c, 9, 36, 100
9, 79440, Note_on_c, 9, 38, 99
9, 79456, Note_off_c, 9, 36, 64
9, 79472, Note_off_c, 9, 38, 64
9, 79500, Note_on_c, 9, 36, 90
9, 79528, Note_off_c, 9, 36, 64
9, 79560, Note_on_c, 9, 36, 97
9, 79638, Note_off_c, 9, 36, 64
9, 79680, Note_on_c, 9, 36, 100
9, 79920, Note_on_c, 9, 38, 100
9, 79941, Note_off_c, 9, 36, 64
9, 79987, Note_off_c, 9, 38, 64
9, 80040, Note_on_c, 9, 36, 100
9, 80181, Note_off_c, 9, 36, 64
9, 80280, Note_on_c, 9, 36, 100
9, 80400, Note_on_c, 9, 38, 100
9, 80459, Note_off_c, 9, 38, 64
9, 80515, Note_off_c, 9, 36, 64
9, 80580, Note_on_c, 9, 36, 80
9, 80599, Note_off_c, 9, 36, 64
9, 80640, Note_on_c, 9, 36, 99
9, 80880, Note_on_c, 9, 38, 100
9, 80903, Note_off_c, 9, 36, 64
9, 80969, Note_off_c, 9, 38, 64
9, 81000, Note_on_c, 9, 36, 100
9, 81151, Note_off_c, 9, 36, 64
9, 81240, Note_on_c, 9, 36, 100
9, 81360, Note_on_c, 9, 38, 99
9, 81379, Note_off_c, 9, 36, 64
9, 81393, Note_off_c, 9, 38, 64
9, 81420, Note_on_c, 9, 36, 75
9, 81448, Note_off_c, 9, 36, 64
9, 81480, Note_on_c, 9, 36, 92
9, 81567, Note_off_c, 9, 36, 64
9, 81600, Note_on_c, 9, 36, 99
9, 81840, Note_on_c, 9, 38, 100
9, 81861, Note_off_c, 9, 36, 64
9, 81907, Note_off_c, 9, 38, 64
9, 81960, Note_on_c, 9, 36, 100
9, 82108, Note_off_c, 9, 36, 64
9, 82200, Note_on_c, 9, 36, 100
9, 82320, Note_on_c, 9, 38, 100
9, 82328, Note_off_c, 9, 36, 64
9, 82362, Note_off_c, 9, 38, 64
9, 82380, Note_on_c, 9, 36, 99
9, 82472, Note_off_c, 9, 36, 64
9, 82560, Note_on_c, 9, 36, 100
9, 82800, Note_on_c, 9, 38, 100
9, 82802, Note_off_c, 9, 36, 64
9, 82886, Note_off_c, 9, 38, 64
9, 82920, Note_on_c, 9, 36, 100
9, 83054, Note_off_c, 9, 36, 64
9, 83160, Note_on_c, 9, 36, 100
9, 83280, Note_on_c, 9, 38, 99
9, 83296, Note_off_c, 9, 36, 64
9, 83312, Note_off_c, 9, 38, 64
9, 83340, Note_on_c, 9, 36, 90
9, 83368, Note_off_c, 9, 36, 64
9, 83400, Note_on_c, 9, 36, 97
9, 83478, Note_off_c, 9, 36, 64
9, 83520, Note_on_c, 9, 36, 100
9, 83760, Note_on_c, 9, 38, 100
9, 83781, Note_off_c, 9, 36, 64
9, 83827, Note_off_c, 9, 38, 64
9, 83880, Note_on_c, 9, 36, 100
9, 84021, Note_off_c, 9, 36, 64
9, 84120, Note_on_c, 9, 36, 100
9, 84240, Note_on_c, 9, 38, 100
9, 84299, Note_off_c, 9, 38, 64
9, 84355, Note_off_c, 9, 36, 64
9, 84420, Note_on_c, 9, 36, 80
9, 84439, Note_off_c, 9, 36, 64
9, 84480, Note_on_c, 9, 36, 100
9, 84720, Note_on_c, 9, 38, 100
9, 84736, Note_off_c, 9, 36, 64
9, 84771, Note_off_c, 9, 38, 64
9, 84840, Note_on_c, 9, 36, 100
9, 85017, Note_off_c, 9, 36, 64
9, 85080, Note_on_c, 9, 36, 100
9, 85200, Note_on_c, 9, 38, 100
9, 85214, Note_off_c, 9, 36, 64
9, 85250, Note_off_c, 9, 38, 64
9, 85260, Note_on_c, 9, 36, 100
9, 85378, Note_off_c, 9, 36, 64
9, 85440, Note_on_c, 9, 36, 100
9, 85538, Note_off_c, 9, 36, 64
9, 85620, Note_on_c, 9, 36, 100
9, 85680, Note_on_c, 9, 38, 100
9, 85719, Note_off_c, 9, 36, 64
9, 85800, Note_on_c, 9, 36, 100
9, 85815, Note_off_c, 9, 38, 64
9, 85920, Note_on_c, 9, 38, 100
9, 85927, Note_off_c, 9, 36, 64
9, 86040, Note_on_c, 9, 36, 100
9, 86059, Note_off_c, 9, 38, 64
9, 86147, Note_off_c, 9, 36, 64
9, 86160, Note_on_c, 9, 38, 100
9, 86192, Note_off_c, 9, 38, 64
9, 86220, Note_on_c, 9, 36, 100
9, 86257, Note_off_c, 9, 36, 64
9, 96000, Note_on_c, 9, 36, 97
9, 96105, Note_off_c, 9, 36, 64
9, 96180, Note_on_c, 9, 36, 82
9, 96240, Note_on_c, 9, 39, 89
9, 96259, Note_off_c, 9, 36, 64
9, 96282, Note_off_c, 9, 39, 64
9, 96360, Note_on_c, 9, 36, 85
9, 96484, Note_off_c, 9, 36, 64
9, 96720, Note_on_c, 9, 37, 96
9, 96752, Note_off_c, 9, 37, 64
9, 96960, Note_on_c, 9, 36, 85
9, 97049, Note_off_c, 9, 36, 64
9, 97140, Note_on_c, 9, 36, 85
9, 97192, Note_off_c, 9, 36, 64
9, 97200, Note_on_c, 9, 39, 79
9, 97242, Note_off_c, 9, 39, 64
9, 97320, Note_on_c, 9, 36, 92
9, 97453, Note_off_c, 9, 36, 64
9, 97560, Note_on_c, 9, 36, 80
9, 97628, Note_off_c, 9, 36, 64
9, 97680, Note_on_c, 9, 37, 92
9, 97703, Note_off_c, 9, 37, 64
9, 97920, Note_on_c, 9, 36, 94
9, 98018, Note_off_c, 9, 36, 64
9, 98100, Note_on_c, 9, 36, 80
9, 98159, Note_off_c, 9, 36, 64
9, 98160, Note_on_c, 9, 39, 84
9, 98199, Note_off_c, 9, 39, 64
9, 98280, Note_on_c, 9, 36, 86
9, 98376, Note_off_c, 9, 36, 64
9, 98640, Note_on_c, 9, 37, 89
9, 98676, Note_off_c, 9, 37, 64
9, 98880, Note_on_c, 9, 36, 85
9, 98951, Note_off_c, 9, 36, 64
9, 99060, Note_on_c, 9, 36, 80
9, 99120, Note_on_c, 9, 39, 86
9, 99126, Note_off_c, 9, 36, 64
9, 99155, Note_off_c, 9, 39, 64
9, 99240, Note_on_c, 9, 36, 86
9, 99342, Note_off_c, 9, 36, 64
9, 99480, Note_on_c, 9, 36, 88
9, 99548, Note_off_c, 9, 36, 64
9, 99600, Note_on_c, 9, 37, 92
9, 99626, Note_off_c, 9, 37, 64
9, 99840, Note_on_c, 9, 36, 90
9, 99922, Note_off_c, 9, 36, 64
9, 100020, Note_on_c, 9, 36, 85
9, 100070, Note_off_c, 9, 36, 64
9, 100080, Note_on_c, 9, 39, 89
9, 100116, Note_off_c, 9, 39, 64
9, 100200, Note_on_c, 9, 36, 86
9, 100286, Note_off_c, 9, 36, 64
9, 100560, Note_on_c, 9, 37, 92
9, 100588, Note_off_c, 9, 37, 64
9, 100800, Note_on_c, 9, 36, 88
9, 100880, Note_off_c, 9, 36, 64
9, 100980, Note_on_c, 9, 36, 85
9, 101040, Note_on_c, 9, 39, 84
9, 101042, Note_off_c, 9, 36, 64
9, 101076, Note_off_c, 9, 39, 64
9, 101160, Note_on_c, 9, 36, 88
9, 101258, Note_off_c, 9, 36, 64
9, 101400, Note_on_c, 9, 36, 86
9, 101471, Note_off_c, 9, 36, 64
9, 101520, Note_on_c, 9, 37, 86
9, 101543, Note_off_c, 9, 37, 64
9, 101760, Note_on_c, 9, 36, 90
9, 101839, Note_off_c, 9, 36, 64
9, 101940, Note_on_c, 9, 36, 82
9, 102000, Note_on_c, 9, 39, 92
9, 102008, Note_off_c, 9, 36, 64
9, 102037, Note_off_c, 9, 39, 64
9, 102120, Note_on_c, 9, 36, 90
9, 102193, Note_off_c, 9, 36, 64
9, 102480, Note_on_c, 9, 37, 86
9, 102512, Note_off_c, 9, 37, 64
9, 102720, Note_on_c, 9, 36, 88
9, 102784, Note_off_c, 9, 36, 64
9, 102900, Note_on_c, 9, 36, 82
9, 102959, Note_off_c, 9, 36, 64
9, 102960, Note_on_c, 9, 39, 86
9, 102998, Note_off_c, 9, 39, 64
9, 103080, Note_on_c, 9, 36, 86
9, 103160, Note_off_c, 9, 36, 64
9, 103320, Note_on_c, 9, 36, 86
9, 103388, Note_off_c, 9, 36, 64
9, 103440, Note_on_c, 9, 37, 89
9, 103462, Note_off_c, 9, 37, 64
9, 103680, Note_on_c, 9, 36, 88
9, 103708, Note_off_c, 9, 36, 64
9, 103708, End_track
10, 0, Start_track
10, 0, Text_t, "tamb"
10, 6480, Note_on_c, 9, 54, 100
10, 6597, Note_off_c, 9, 54, 64
10, 8400, Note_on_c, 9, 54, 100
10, 8471, Note_off_c, 9, 54, 64
10, 10320, Note_on_c, 9, 54, 100
10, 10437, Note_off_c, 9, 54, 64
10, 12240, Note_on_c, 9, 54, 100
10, 12311, Note_off_c, 9, 54, 64
10, 14160, Note_on_c, 9, 54, 100
10, 14277, Note_off_c, 9, 54, 64
10, 16080, Note_on_c, 9, 54, 100
10, 16151, Note_off_c, 9, 54, 64
10, 18000, Note_on_c, 9, 54, 100
10, 18117, Note_off_c, 9, 54, 64
10, 29520, Note_on_c, 9, 54, 100
10, 29637, Note_off_c, 9, 54, 64
10, 31440, Note_on_c, 9, 54, 100
10, 31511, Note_off_c, 9, 54, 64
10, 33360, Note_on_c, 9, 54, 100
10, 33477, Note_off_c, 9, 54, 64
10, 35280, Note_on_c, 9, 54, 100
10, 35351, Note_off_c, 9, 54, 64
10, 37200, Note_on_c, 9, 54, 100
10, 37317, Note_off_c, 9, 54, 64
10, 39120, Note_on_c, 9, 54, 100
10, 39191, Note_off_c, 9, 54, 64
10, 41040, Note_on_c, 9, 54, 100
10, 41157, Note_off_c, 9, 54, 64
10, 41157, End_track
11, 0, Start_track
11, 0, Text_t, "claps"
11, 12720, Note_on_c, 9, 39, 85
11, 12743, Note_off_c, 9, 39, 64
11, 14640, Note_on_c, 9, 39, 85
11, 14659, Note_off_c, 9, 39, 64
11, 16560, Note_on_c, 9, 39, 75
11, 16582, Note_off_c, 9, 39, 64
11, 18480, Note_on_c, 9, 39, 85
11, 18496, Note_off_c, 9, 39, 64
11, 35760, Note_on_c, 9, 39, 85
11, 35783, Note_off_c, 9, 39, 64
11, 37680, Note_on_c, 9, 39, 85
11, 37699, Note_off_c, 9, 39, 64
11, 39600, Note_on_c, 9, 39, 75
11, 39622, Note_off_c, 9, 39, 64
11, 41520, Note_on_c, 9, 39, 85
11, 41536, Note_off_c, 9, 39, 64
11, 41536, End_track
12, 0, Start_track
12, 0, Text_t, "hat"
12, 19200, Note_on_c, 9, 42, 78
12, 19230, Note_off_c, 9, 42, 64
12, 19320, Note_on_c, 9, 42, 40
12, 19340, Note_off_c, 9, 42, 64
12, 19440, Note_on_c, 9, 42, 73
12, 19476, Note_off_c, 9, 42, 64
12, 19500, Note_on_c, 9, 42, 54
12, 19539, Note_off_c, 9, 42, 64
12, 19680, Note_on_c, 9, 42, 65
12, 19717, Note_off_c, 9, 42, 64
12, 19800, Note_on_c, 9, 42, 40
12, 19833, Note_off_c, 9, 42, 64
12, 19920, Note_on_c, 9, 42, 68
12, 19961, Note_off_c, 9, 42, 64
12, 20040, Note_on_c, 9, 42, 41
12, 20077, Note_off_c, 9, 42, 64
12, 20160, Note_on_c, 9, 42, 73
12, 20208, Note_off_c, 9, 42, 64
12, 20280, Note_on_c, 9, 42, 40
12, 20318, Note_off_c, 9, 42, 64
12, 20400, Note_on_c, 9, 42, 78
12, 20443, Note_off_c, 9, 42, 64
12, 20520, Note_on_c, 9, 42, 43
12, 20563, Note_off_c, 9, 42, 64
12, 20640, Note_on_c, 9, 42, 68
12, 20676, Note_off_c, 9, 42, 64
12, 20760, Note_on_c, 9, 42, 81
12, 20800, Note_off_c, 9, 42, 64
12, 20820, Note_on_c, 9, 42, 67
12, 20843, Note_off_c, 9, 42, 64
12, 20880, Note_on_c, 9, 42, 40
12, 20918, Note_off_c, 9, 42, 64
12, 20940, Note_on_c, 9, 42, 67
12, 20959, Note_off_c, 9, 42, 64
12, 21000, Note_on_c, 9, 42, 85
12, 21037, Note_off_c, 9, 42, 64
12, 21120, Note_on_c, 9, 42, 78
12, 21150, Note_off_c, 9, 42, 64
12, 21240, Note_on_c, 9, 42, 40
12, 21260, Note_off_c, 9, 42, 64
12, 21360, Note_on_c, 9, 42, 73
12, 21396, Note_off_c, 9, 42, 64
12, 21420, Note_on_c, 9, 42, 54
12, 21459, Note_off_c, 9, 42, 64
12, 21600, Note_on_c, 9, 42, 65
12, 21637, Note_off_c, 9, 42, 64
12, 21720, Note_on_c, 9, 42, 40
12, 21753, Note_off_c, 9, 42, 64
12, 21840, Note_on_c, 9, 42, 68
12, 21881, Note_off_c, 9, 42, 64
12, 21960, Note_on_c, 9, 42, 41
12, 21997, Note_off_c, 9, 42, 64
12, 22080, Note_on_c, 9, 42, 73
12, 22128, Note_off_c, 9, 42, 64
12, 22200, Note_on_c, 9, 42, 40
12, 22238, Note_off_c, 9, 42, 64
12, 22320, Note_on_c, 9, 42, 78
12, 22363, Note_off_c, 9, 42, 64
12, 22440, Note_on_c, 9, 42, 43
12, 22483, Note_off_c, 9, 42, 64
12, 22560, Note_on_c, 9, 42, 68
12, 22596, Note_off_c, 9, 42, 64
12, 22680, Note_on_c, 9, 42, 81
12, 22720, Note_off_c, 9, 42, 64
12, 22740, Note_on_c, 9, 42, 67
12, 22763, Note_off_c, 9, 42, 64
12, 22800, Note_on_c, 9, 42, 40
12, 22838, Note_off_c, 9, 42, 64
12, 22860, Note_on_c, 9, 42, 67
12, 22879, Note_off_c, 9, 42, 64
12, 22920, Note_on_c, 9, 42, 85
12, 22957, Note_off_c, 9, 42, 64
12, 23040, Note_on_c, 9, 42, 78
12, 23070, Note_off_c, 9, 42, 64
12, 23160, Note_on_c, 9, 42, 40
12, 23180, Note_off_c, 9, 42, 64
12, 23280, Note_on_c, 9, 42, 73
12, 23316, Note_off_c, 9, 42, 64
12, 23340, Note_on_c, 9, 42, 54
12, 23379, Note_off_c, 9, 42, 64
12, 23520, Note_on_c, 9, 42, 65
12, 23557, Note_off_c, 9, 42, 64
12, 23640, Note_on_c, 9, 42, 40
12, 23673, Note_off_c, 9, 42, 64
12, 23760, Note_on_c, 9, 42, 68
12, 23801, Note_off_c, 9, 42, 64
12, 23880, Note_on_c, 9, 42, 41
12, 23917, Note_off_c, 9, 42, 64
12, 24000, Note_on_c, 9, 42, 73
12, 24048, Note_off_c, 9, 42, 64
12, 24120, Note_on_c, 9, 42, 40
12, 24158, Note_off_c, 9, 42, 64
12, 24240, Note_on_c, 9, 42, 78
12, 24283, Note_off_c, 9, 42, 64
12, 24360, Note_on_c, 9, 42, 43
12, 24403, Note_off_c, 9, 42, 64
12, 24480, Note_on_c, 9, 42, 68
12, 24516, Note_off_c, 9, 42, 64
12, 24600, Note_on_c, 9, 42, 81
12, 24640, Note_off_c, 9, 42, 64
12, 24660, Note_on_c, 9, 42, 67
12, 24683, Note_off_c, 9, 42, 64
12, 24720, Note_on_c, 9, 42, 40
12, 24758, Note_off_c, 9, 42, 64
12, 24780, Note_on_c, 9, 42, 67
12, 24799, Note_off_c, 9, 42, 64
12, 24840, Note_on_c, 9, 42, 85
12, 24877, Note_off_c, 9, 42, 64
12, 24960, Note_on_c, 9, 42, 78
12, 24990, Note_off_c, 9, 42, 64
12, 25080, Note_on_c, 9, 42, 40
12, 25100, Note_off_c, 9, 42, 64
12, 25200, Note_on_c, 9, 42, 73
12, 25236, Note_off_c, 9, 42, 64
12, 25260, Note_on_c, 9, 42, 54
12, 25299, Note_off_c, 9, 42, 64
12, 25440, Note_on_c, 9, 42, 65
12, 25477, Note_off_c, 9, 42, 64
12, 25560, Note_on_c, 9, 42, 40
12, 25593, Note_off_c, 9, 42, 64
12, 25680, Note_on_c, 9, 42, 68
12, 25721, Note_off_c, 9, 42, 64
12, 25800, Note_on_c, 9, 42, 41
12, 25837, Note_off_c, 9, 42, 64
12, 25920, Note_on_c, 9, 42, 73
12, 25968, Note_off_c, 9, 42, 64
12, 26040, Note_on_c, 9, 42, 40
12, 26078, Note_off_c, 9, 42, 64
12, 26160, Note_on_c, 9, 42, 78
12, 26203, Note_off_c, 9, 42, 64
12, 26280, Note_on_c, 9, 42, 43
12, 26323, Note_off_c, 9, 42, 64
12, 26400, Note_on_c, 9, 42, 68
12, 26436, Note_off_c, 9, 42, 64
12, 26520, Note_on_c, 9, 42, 81
12, 26560, Note_off_c, 9, 42, 64
12, 26580, Note_on_c, 9, 42, 67
12, 26603, Note_off_c, 9, 42, 64
12, 26640, Note_on_c, 9, 42, 40
12, 26678, Note_off_c, 9, 42, 64
12, 26700, Note_on_c, 9, 42, 67
12, 26719, Note_off_c, 9, 42, 64
12, 26760, Note_on_c, 9, 42, 85
12, 26797, Note_off_c, 9, 42, 64
12, 26880, Note_on_c, 9, 42, 63
12, 26936, Note_off_c, 9, 42, 64
12, 27000, Note_on_c, 9, 42, 40
12, 27049, Note_off_c, 9, 42, 64
12, 27120, Note_on_c, 9, 42, 51
12, 27179, Note_off_c, 9, 42, 64
12, 27240, Note_on_c, 9, 42, 40
12, 27290, Note_off_c, 9, 42, 64
12, 27360, Note_on_c, 9, 42, 53
12, 27410, Note_off_c, 9, 42, 64
12, 27480, Note_on_c, 9, 42, 40
12, 27517, Note_off_c, 9, 42, 64
12, 27600, Note_on_c, 9, 42, 60
12, 27655, Note_off_c, 9, 42, 64
12, 27720, Note_on_c, 9, 42, 40
12, 27748, Note_off_c, 9, 42, 64
12, 42240, Note_on_c, 9, 42, 78
12, 42270, Note_off_c, 9, 42, 64
12, 42360, Note_on_c, 9, 42, 40
12, 42380, Note_off_c, 9, 42, 64
12, 42480, Note_on_c, 9, 42, 73
12, 42516, Note_off_c, 9, 42, 64
12, 42540, Note_on_c, 9, 42, 54
12, 42579, Note_off_c, 9, 42, 64
12, 42720, Note_on_c, 9, 42, 65
12, 42757, Note_off_c, 9, 42, 64
12, 42840, Note_on_c, 9, 42, 40
12, 42873, Note_off_c, 9, 42, 64
12, 42960, Note_on_c, 9, 42, 68
12, 43001, Note_off_c, 9, 42, 64
12, 43080, Note_on_c, 9, 42, 41
12, 43117, Note_off_c, 9, 42, 64
12, 43200, Note_on_c, 9, 42, 73
12, 43248, Note_off_c, 9, 42, 64
12, 43320, Note_on_c, 9, 42, 40
12, 43358, Note_off_c, 9, 42, 64
12, 43440, Note_on_c, 9, 42, 78
12, 43483, Note_off_c, 9, 42, 64
12, 43560, Note_on_c, 9, 42, 43
12, 43603, Note_off_c, 9, 42, 64
12, 43680, Note_on_c, 9, 42, 68
12, 43716, Note_off_c, 9, 42, 64
12, 43800, Note_on_c, 9, 42, 81
12, 43840, Note_off_c, 9, 42, 64
12, 43860, Note_on_c, 9, 42, 67
12, 43883, Note_off_c, 9, 42, 64
12, 43920, Note_on_c, 9, 42, 40
12, 43958, Note_off_c, 9, 42, 64
12, 43980, Note_on_c, 9, 42, 67
12, 43999, Note_off_c, 9, 42, 64
12, 44040, Note_on_c, 9, 42, 85
12, 44077, Note_off_c, 9, 42, 64
12, 44160, Note_on_c, 9, 42, 78
12, 44190, Note_off_c, 9, 42, 64
12, 44280, Note_on_c, 9, 42, 40
12, 44300, Note_off_c, 9, 42, 64
12, 44400, Note_on_c, 9, 42, 73
12, 44436, Note_off_c, 9, 42, 64
12, 44460, Note_on_c, 9, 42, 54
12, 44499, Note_off_c, 9, 42, 64
12, 44640, Note_on_c, 9, 42, 65
12, 44677, Note_off_c, 9, 42, 64
12, 44760, Note_on_c, 9, 42, 40
12, 44793, Note_off_c, 9, 42, 64
12, 44880, Note_on_c, 9, 42, 68
12, 44921, Note_off_c, 9, 42, 64
12, 45000, Note_on_c, 9, 42, 41
12, 45037, Note_off_c, 9, 42, 64
12, 45120, Note_on_c, 9, 42, 73
12, 45168, Note_off_c, 9, 42, 64
12, 45240, Note_on_c, 9, 42, 40
12, 45278, Note_off_c, 9, 42, 64
12, 45360, Note_on_c, 9, 42, 78
12, 45403, Note_off_c, 9, 42, 64
12, 45480, Note_on_c, 9, 42, 43
12, 45523, Note_off_c, 9, 42, 64
12, 45600, Note_on_c, 9, 42, 68
12, 45636, Note_off_c, 9, 42, 64
12, 45720, Note_on_c, 9, 42, 81
12, 45760, Note_off_c, 9, 42, 64
12, 45780, Note_on_c, 9, 42, 67
12, 45803, Note_off_c, 9, 42, 64
12, 45840, Note_on_c, 9, 42, 40
12, 45878, Note_off_c, 9, 42, 64
12, 45900, Note_on_c, 9, 42, 67
12, 45919, Note_off_c, 9, 42, 64
12, 45960, Note_on_c, 9, 42, 85
12, 45997, Note_off_c, 9, 42, 64
12, 46080, Note_on_c, 9, 42, 78
12, 46110, Note_off_c, 9, 42, 64
12, 46200, Note_on_c, 9, 42, 40
12, 46220, Note_off_c, 9, 42, 64
12, 46320, Note_on_c, 9, 42, 73
12, 46356, Note_off_c, 9, 42, 64
12, 46380, Note_on_c, 9, 42, 54
12, 46419, Note_off_c, 9, 42, 64
12, 46560, Note_on_c, 9, 42, 65
12, 46597, Note_off_c, 9, 42, 64
12, 46680, Note_on_c, 9, 42, 40
12, 46713, Note_off_c, 9, 42, 64
12, 46800, Note_on_c, 9, 42, 68
12, 46841, Note_off_c, 9, 42, 64
12, 46920, Note_on_c, 9, 42, 41
12, 46957, Note_off_c, 9, 42, 64
12, 47040, Note_on_c, 9, 42, 73
12, 47088, Note_off_c, 9, 42, 64
12, 47160, Note_on_c, 9, 42, 40
12, 47198, Note_off_c, 9, 42, 64
12, 47280, Note_on_c, 9, 42, 78
12, 47323, Note_off_c, 9, 42, 64
12, 47400, Note_on_c, 9, 42, 43
12, 47443, Note_off_c, 9, 42, 64
12, 47520, Note_on_c, 9, 42, 68
12, 47556, Note_off_c, 9, 42, 64
12, 47640, Note_on_c, 9, 42, 81
12, 47680, Note_off_c, 9, 42, 64
12, 47700, Note_on_c, 9, 42, 67
12, 47723, Note_off_c, 9, 42, 64
12, 47760, Note_on_c, 9, 42, 40
12, 47798, Note_off_c, 9, 42, 64
12, 47820, Note_on_c, 9, 42, 67
12, 47839, Note_off_c, 9, 42, 64
12, 47880, Note_on_c, 9, 42, 85
12, 47917, Note_off_c, 9, 42, 64
12, 48000, Note_on_c, 9, 42, 78
12, 48030, Note_off_c, 9, 42, 64
12, 48120, Note_on_c, 9, 42, 40
12, 48140, Note_off_c, 9, 42, 64
12, 48240, Note_on_c, 9, 42, 73
12, 48276, Note_off_c, 9, 42, 64
12, 48300, Note_on_c, 9, 42, 54
12, 48339, Note_off_c, 9, 42, 64
12, 48480, Note_on_c, 9, 42, 65
12, 48517, Note_off_c, 9, 42, 64
12, 48600, Note_on_c, 9, 42, 40
12, 48633, Note_off_c, 9, 42, 64
12, 48720, Note_on_c, 9, 42, 68
12, 48761, Note_off_c, 9, 42, 64
12, 48840, Note_on_c, 9, 42, 41
12, 48877, Note_off_c, 9, 42, 64
12, 48960, Note_on_c, 9, 42, 73
12, 49008, Note_off_c, 9, 42, 64
12, 49080, Note_on_c, 9, 42, 40
12, 49118, Note_off_c, 9, 42, 64
12, 49200, Note_on_c, 9, 42, 78
12, 49243, Note_off_c, 9, 42, 64
12, 49320, Note_on_c, 9, 42, 43
12, 49363, Note_off_c, 9, 42, 64
12, 49440, Note_on_c, 9, 42, 68
12, 49476, Note_off_c, 9, 42, 64
12, 49560, Note_on_c, 9, 42, 81
12, 49600, Note_off_c, 9, 42, 64
12, 49620, Note_on_c, 9, 42, 67
12, 49643, Note_off_c, 9, 42, 64
12, 49680, Note_on_c, 9, 42, 40
12, 49718, Note_off_c, 9, 42, 64
12, 49740, Note_on_c, 9, 42, 67
12, 49759, Note_off_c, 9, 42, 64
12, 49800, Note_on_c, 9, 42, 85
12, 49837, Note_off_c, 9, 42, 64
12, 49920, Note_on_c, 9, 42, 63
12, 49976, Note_off_c, 9, 42, 64
12, 50040, Note_on_c, 9, 42, 40
12, 50089, Note_off_c, 9, 42, 64
12, 50160, Note_on_c, 9, 42, 51
12, 50219, Note_off_c, 9, 42, 64
12, 50280, Note_on_c, 9, 42, 40
12, 50330, Note_off_c, 9, 42, 64
12, 50400, Note_on_c, 9, 42, 53
12, 50450, Note_off_c, 9, 42, 64
12, 50520, Note_on_c, 9, 42, 40
12, 50557, Note_off_c, 9, 42, 64
12, 50640, Note_on_c, 9, 42, 60
12, 50695, Note_off_c, 9, 42, 64
12, 50760, Note_on_c, 9, 42, 40
12, 50788, Note_off_c, 9, 42, 64
12, 50880, Note_on_c, 9, 42, 78
12, 50910, Note_off_c, 9, 42, 64
12, 51000, Note_on_c, 9, 42, 40
12, 51020, Note_off_c, 9, 42, 64
12, 51120, Note_on_c, 9, 42, 73
12, 51156, Note_off_c, 9, 42, 64
12, 51180, Note_on_c, 9, 42, 54
12, 51219, Note_off_c, 9, 42, 64
12, 51360, Note_on_c, 9, 42, 65
12, 51397, Note_off_c, 9, 42, 64
12, 51480, Note_on_c, 9, 42, 40
12, 51513, Note_off_c, 9, 42, 64
12, 51600, Note_on_c, 9, 42, 68
12, 51641, Note_off_c, 9, 42, 64
12, 51720, Note_on_c, 9, 42, 41
12, 51757, Note_off_c, 9, 42, 64
12, 51840, Note_on_c, 9, 42, 73
12, 51888, Note_off_c, 9, 42, 64
12, 51960, Note_on_c, 9, 42, 40
12, 51998, Note_off_c, 9, 42, 64
12, 52080, Note_on_c, 9, 42, 78
12, 52123, Note_off_c, 9, 42, 64
12, 52200, Note_on_c, 9, 42, 43
12, 52243, Note_off_c, 9, 42, 64
12, 52320, Note_on_c, 9, 42, 68
12, 52356, Note_off_c, 9, 42, 64
12, 52440, Note_on_c, 9, 42, 81
12, 52480, Note_off_c, 9, 42, 64
12, 52500, Note_on_c, 9, 42, 67
12, 52523, Note_off_c, 9, 42, 64
12, 52560, Note_on_c, 9, 42, 40
12, 52598, Note_off_c, 9, 42, 64
12, 52620, Note_on_c, 9, 42, 67
12, 52639, Note_off_c, 9, 42, 64
12, 52680, Note_on_c, 9, 42, 85
12, 52717, Note_off_c, 9, 42, 64
12, 52800, Note_on_c, 9, 42, 78
12, 52830, Note_off_c, 9, 42, 64
12, 52920, Note_on_c, 9, 42, 40
12, 52940, Note_off_c, 9, 42, 64
12, 53040, Note_on_c, 9, 42, 73
12, 53076, Note_off_c, 9, 42, 64
12, 53100, Note_on_c, 9, 42, 54
12, 53139, Note_off_c, 9, 42, 64
12, 53280, Note_on_c, 9, 42, 65
12, 53317, Note_off_c, 9, 42, 64
12, 53400, Note_on_c, 9, 42, 40
12, 53433, Note_off_c, 9, 42, 64
12, 53520, Note_on_c, 9, 42, 68
12, 53561, Note_off_c, 9, 42, 64
12, 53640, Note_on_c, 9, 42, 41
12, 53677, Note_off_c, 9, 42, 64
12, 53760, Note_on_c, 9, 42, 73
12, 53808, Note_off_c, 9, 42, 64
12, 53880, Note_on_c, 9, 42, 40
12, 53918, Note_off_c, 9, 42, 64
12, 54000, Note_on_c, 9, 42, 78
12, 54043, Note_off_c, 9, 42, 64
12, 54120, Note_on_c, 9, 42, 43
12, 54163, Note_off_c, 9, 42, 64
12, 54240, Note_on_c, 9, 42, 68
12, 54276, Note_off_c, 9, 42, 64
12, 54360, Note_on_c, 9, 42, 81
12, 54400, Note_off_c, 9, 42, 64
12, 54420, Note_on_c, 9, 42, 67
12, 54443, Note_off_c, 9, 42, 64
12, 54480, Note_on_c, 9, 42, 40
12, 54518, Note_off_c, 9, 42, 64
12, 54540, Note_on_c, 9, 42, 67
12, 54559, Note_off_c, 9, 42, 64
12, 54600, Note_on_c, 9, 42, 85
12, 54637, Note_off_c, 9, 42, 64
12, 54720, Note_on_c, 9, 42, 78
12, 54750, Note_off_c, 9, 42, 64
12, 54840, Note_on_c, 9, 42, 40
12, 54860, Note_off_c, 9, 42, 64
12, 54960, Note_on_c, 9, 42, 73
12, 54996, Note_off_c, 9, 42, 64
12, 55020, Note_on_c, 9, 42, 54
12, 55059, Note_off_c, 9, 42, 64
12, 55200, Note_on_c, 9, 42, 65
12, 55237, Note_off_c, 9, 42, 64
12, 55320, Note_on_c, 9, 42, 40
12, 55353, Note_off_c, 9, 42, 64
12, 55440, Note_on_c, 9, 42, 68
12, 55481, Note_off_c, 9, 42, 64
12, 55560, Note_on_c, 9, 42, 41
12, 55597, Note_off_c, 9, 42, 64
12, 55680, Note_on_c, 9, 42, 73
12, 55728, Note_off_c, 9, 42, 64
12, 55800, Note_on_c, 9, 42, 40
12, 55838, Note_off_c, 9, 42, 64
12, 55920, Note_on_c, 9, 42, 78
12, 55963, Note_off_c, 9, 42, 64
12, 56040, Note_on_c, 9, 42, 43
12, 56083, Note_off_c, 9, 42, 64
12, 56160, Note_on_c, 9, 42, 68
12, 56196, Note_off_c, 9, 42, 64
12, 56280, Note_on_c, 9, 42, 81
12, 56320, Note_off_c, 9, 42, 64
12, 56340, Note_on_c, 9, 42, 67
12, 56363, Note_off_c, 9, 42, 64
12, 56400, Note_on_c, 9, 42, 40
12, 56438, Note_off_c, 9, 42, 64
12, 56460, Note_on_c, 9, 42, 67
12, 56479, Note_off_c, 9, 42, 64
12, 56520, Note_on_c, 9, 42, 85
12, 56557, Note_off_c, 9, 42, 64
12, 56640, Note_on_c, 9, 42, 78
12, 56670, Note_off_c, 9, 42, 64
12, 56760, Note_on_c, 9, 42, 40
12, 56780, Note_off_c, 9, 42, 64
12, 56880, Note_on_c, 9, 42, 73
12, 56916, Note_off_c, 9, 42, 64
12, 56940, Note_on_c, 9, 42, 54
12, 56979, Note_off_c, 9, 42, 64
12, 57120, Note_on_c, 9, 42, 65
12, 57157, Note_off_c, 9, 42, 64
12, 57240, Note_on_c, 9, 42, 40
12, 57273, Note_off_c, 9, 42, 64
12, 57360, Note_on_c, 9, 42, 68
12, 57401, Note_off_c, 9, 42, 64
12, 57480, Note_on_c, 9, 42, 41
12, 57517, Note_off_c, 9, 42, 64
12, 57600, Note_on_c, 9, 42, 73
12, 57648, Note_off_c, 9, 42, 64
12, 57720, Note_on_c, 9, 42, 40
12, 57758, Note_off_c, 9, 42, 64
12, 57840, Note_on_c, 9, 42, 78
12, 57883, Note_off_c, 9, 42, 64
12, 57960, Note_on_c, 9, 42, 43
12, 58003, Note_off_c, 9, 42, 64
12, 58080, Note_on_c, 9, 42, 68
12, 58116, Note_off_c, 9, 42, 64
12, 58560, Note_on_c, 9, 42, 78
12, 58590, Note_off_c, 9, 42, 64
12, 58680, Note_on_c, 9, 42, 40
12, 58700, Note_off_c, 9, 42, 64
12, 58800, Note_on_c, 9, 42, 73
12, 58836, Note_off_c, 9, 42, 64
12, 58860, Note_on_c, 9, 42, 54
12, 58899, Note_off_c, 9, 42, 64
12, 59040, Note_on_c, 9, 42, 65
12, 59077, Note_off_c, 9, 42, 64
12, 59160, Note_on_c, 9, 42, 40
12, 59193, Note_off_c, 9, 42, 64
12, 59280, Note_on_c, 9, 42, 68
12, 59321, Note_off_c, 9, 42, 64
12, 59400, Note_on_c, 9, 42, 41
12, 59437, Note_off_c, 9, 42, 64
12, 59520, Note_on_c, 9, 42, 73
12, 59568, Note_off_c, 9, 42, 64
12, 59640, Note_on_c, 9, 42, 40
12, 59678, Note_off_c, 9, 42, 64
12, 59760, Note_on_c, 9, 42, 78
12, 59803, Note_off_c, 9, 42, 64
12, 59880, Note_on_c, 9, 42, 43
12, 59923, Note_off_c, 9, 42, 64
12, 60000, Note_on_c, 9, 42, 68
12, 60036, Note_off_c, 9, 42, 64
12, 60120, Note_on_c, 9, 42, 81
12, 60160, Note_off_c, 9, 42, 64
12, 60180, Note_on_c, 9, 42, 67
12, 60203, Note_off_c, 9, 42, 64
12, 60240, Note_on_c, 9, 42, 40
12, 60278, Note_off_c, 9, 42, 64
12, 60300, Note_on_c, 9, 42, 67
12, 60319, Note_off_c, 9, 42, 64
12, 60360, Note_on_c, 9, 42, 85
12, 60397, Note_off_c, 9, 42, 64
12, 60480, Note_on_c, 9, 42, 78
12, 60510, Note_off_c, 9, 42, 64
12, 60600, Note_on_c, 9, 42, 40
12, 60620, Note_off_c, 9, 42, 64
12, 60720, Note_on_c, 9, 42, 73
12, 60756, Note_off_c, 9, 42, 64
12, 60780, Note_on_c, 9, 42, 54
12, 60819, Note_off_c, 9, 42, 64
12, 60960, Note_on_c, 9, 42, 65
12, 60997, Note_off_c, 9, 42, 64
12, 61080, Note_on_c, 9, 42, 40
12, 61113, Note_off_c, 9, 42, 64
12, 61200, Note_on_c, 9, 42, 68
12, 61241, Note_off_c, 9, 42, 64
12, 61320, Note_on_c, 9, 42, 41
12, 61357, Note_off_c, 9, 42, 64
12, 61440, Note_on_c, 9, 42, 73
12, 61488, Note_off_c, 9, 42, 64
12, 61560, Note_on_c, 9, 42, 40
12, 61598, Note_off_c, 9, 42, 64
12, 61680, Note_on_c, 9, 42, 78
12, 61723, Note_off_c, 9, 42, 64
12, 61800, Note_on_c, 9, 42, 43
12, 61843, Note_off_c, 9, 42, 64
12, 61920, Note_on_c, 9, 42, 68
12, 61956, Note_off_c, 9, 42, 64
12, 62040, Note_on_c, 9, 42, 81
12, 62080, Note_off_c, 9, 42, 64
12, 62100, Note_on_c, 9, 42, 67
12, 62123, Note_off_c, 9, 42, 64
12, 62160, Note_on_c, 9, 42, 40
12, 62198, Note_off_c, 9, 42, 64
12, 62220, Note_on_c, 9, 42, 67
12, 62239, Note_off_c, 9, 42, 64
12, 62280, Note_on_c, 9, 42, 85
12, 62317, Note_off_c, 9, 42, 64
12, 62400, Note_on_c, 9, 42, 78
12, 62430, Note_off_c, 9, 42, 64
12, 62520, Note_on_c, 9, 42, 40
12, 62540, Note_off_c, 9, 42, 64
12, 62640, Note_on_c, 9, 42, 73
12, 62676, Note_off_c, 9, 42, 64
12, 62700, Note_on_c, 9, 42, 54
12, 62739, Note_off_c, 9, 42, 64
12, 62880, Note_on_c, 9, 42, 65
12, 62917, Note_off_c, 9, 42, 64
12, 63000, Note_on_c, 9, 42, 40
12, 63033, Note_off_c, 9, 42, 64
12, 63120, Note_on_c, 9, 42, 68
12, 63161, Note_off_c, 9, 42, 64
12, 63240, Note_on_c, 9, 42, 41
12, 63277, Note_off_c, 9, 42, 64
12, 63360, Note_on_c, 9, 42, 73
12, 63408, Note_off_c, 9, 42, 64
12, 63480, Note_on_c, 9, 42, 40
12, 63518, Note_off_c, 9, 42, 64
12, 63600, Note_on_c, 9, 42, 78
12, 63643, Note_off_c, 9, 42, 64
12, 63720, Note_on_c, 9, 42, 43
12, 63763, Note_off_c, 9, 42, 64
12, 63840, Note_on_c, 9, 42, 68
12, 63876, Note_off_c, 9, 42, 64
12, 63960, Note_on_c, 9, 42, 81
12, 64000, Note_off_c, 9, 42, 64
12, 64020, Note_on_c, 9, 42, 67
12, 64043, Note_off_c, 9, 42, 64
12, 64080, Note_on_c, 9, 42, 40
12, 64118, Note_off_c, 9, 42, 64
12, 64140, Note_on_c, 9, 42, 67
12, 64159, Note_off_c, 9, 42, 64
12, 64200, Note_on_c, 9, 42, 85
12, 64237, Note_off_c, 9, 42, 64
12, 64320, Note_on_c, 9, 42, 78
12, 64350, Note_off_c, 9, 42, 64
12, 64440, Note_on_c, 9, 42, 40
12, 64460, Note_off_c, 9, 42, 64
12, 64560, Note_on_c, 9, 42, 73
12, 64596, Note_off_c, 9, 42, 64
12, 64620, Note_on_c, 9, 42, 54
12, 64659, Note_off_c, 9, 42, 64
12, 64800, Note_on_c, 9, 42, 65
12, 64837, Note_off_c, 9, 42, 64
12, 64920, Note_on_c, 9, 42, 40
12, 64953, Note_off_c, 9, 42, 64
12, 65040, Note_on_c, 9, 42, 68
12, 65081, Note_off_c, 9, 42, 64
12, 65160, Note_on_c, 9, 42, 41
12, 65197, Note_off_c, 9, 42, 64
12, 65280, Note_on_c, 9, 42, 73
12, 65328, Note_off_c, 9, 42, 64
12, 65400, Note_on_c, 9, 42, 40
12, 65438, Note_off_c, 9, 42, 64
12, 65520, Note_on_c, 9, 42, 78
12, 65563, Note_off_c, 9, 42, 64
12, 65640, Note_on_c, 9, 42, 43
12, 65683, Note_off_c, 9, 42, 64
12, 65760, Note_on_c, 9, 42, 68
12, 65796, Note_off_c, 9, 42, 64
12, 65880, Note_on_c, 9, 42, 81
12, 65920, Note_off_c, 9, 42, 64
12, 65940, Note_on_c, 9, 42, 67
12, 65963, Note_off_c, 9, 42, 64
12, 66000, Note_on_c, 9, 42, 40
12, 66038, Note_off_c, 9, 42, 64
12, 66060, Note_on_c, 9, 42, 67
12, 66079, Note_off_c, 9, 42, 64
12, 66120, Note_on_c, 9, 42, 85
12, 66157, Note_off_c, 9, 42, 64
12, 66240, Note_on_c, 9, 42, 78
12, 66270, Note_off_c, 9, 42, 64
12, 66360, Note_on_c, 9, 42, 40
12, 66380, Note_off_c, 9, 42, 64
12, 66480, Note_on_c, 9, 42, 73
12, 66516, Note_off_c, 9, 42, 64
12, 66540, Note_on_c, 9, 42, 54
12, 66579, Note_off_c, 9, 42, 64
12, 66720, Note_on_c, 9, 42, 65
12, 66757, Note_off_c, 9, 42, 64
12, 66840, Note_on_c, 9, 42, 40
12, 66873, Note_off_c, 9, 42, 64
12, 66960, Note_on_c, 9, 42, 68
12, 67001, Note_off_c, 9, 42, 64
12, 67080, Note_on_c, 9, 42, 41
12, 67117, Note_off_c, 9, 42, 64
12, 67200, Note_on_c, 9, 42, 73
12, 67248, Note_off_c, 9, 42, 64
12, 67320, Note_on_c, 9, 42, 40
12, 67358, Note_off_c, 9, 42, 64
12, 67440, Note_on_c, 9, 42, 78
12, 67483, Note_off_c, 9, 42, 64
12, 67560, Note_on_c, 9, 42, 43
12, 67603, Note_off_c, 9, 42, 64
12, 67680, Note_on_c, 9, 42, 68
12, 67716, Note_off_c, 9, 42, 64
12, 67800, Note_on_c, 9, 42, 81
12, 67840, Note_off_c, 9, 42, 64
12, 67860, Note_on_c, 9, 42, 67
12, 67883, Note_off_c, 9, 42, 64
12, 67920, Note_on_c, 9, 42, 40
12, 67958, Note_off_c, 9, 42, 64
12, 67980, Note_on_c, 9, 42, 67
12, 67999, Note_off_c, 9, 42, 64
12, 68040, Note_on_c, 9, 42, 85
12, 68077, Note_off_c, 9, 42, 64
12, 68160, Note_on_c, 9, 42, 78
12, 68190, Note_off_c, 9, 42, 64
12, 68280, Note_on_c, 9, 42, 40
12, 68300, Note_off_c, 9, 42, 64
12, 68400, Note_on_c, 9, 42, 73
12, 68436, Note_off_c, 9, 42, 64
12, 68460, Note_on_c, 9, 42, 54
12, 68499, Note_off_c, 9, 42, 64
12, 68640, Note_on_c, 9, 42, 65
12, 68677, Note_off_c, 9, 42, 64
12, 68760, Note_on_c, 9, 42, 40
12, 68793, Note_off_c, 9, 42, 64
12, 68880, Note_on_c, 9, 42, 68
12, 68921, Note_off_c, 9, 42, 64
12, 69000, Note_on_c, 9, 42, 41
12, 69037, Note_off_c, 9, 42, 64
12, 69120, Note_on_c, 9, 42, 73
12, 69168, Note_off_c, 9, 42, 64
12, 69240, Note_on_c, 9, 42, 40
12, 69278, Note_off_c, 9, 42, 64
12, 69360, Note_on_c, 9, 42, 78
12, 69403, Note_off_c, 9, 42, 64
12, 69480, Note_on_c, 9, 42, 43
12, 69523, Note_off_c, 9, 42, 64
12, 69600, Note_on_c, 9, 42, 68
12, 69636, Note_off_c, 9, 42, 64
12, 69720, Note_on_c, 9, 42, 81
12, 69760, Note_off_c, 9, 42, 64
12, 69780, Note_on_c, 9, 42, 67
12, 69803, Note_off_c, 9, 42, 64
12, 69840, Note_on_c, 9, 42, 40
12, 69878, Note_off_c, 9, 42, 64
12, 69900, Note_on_c, 9, 42, 67
12, 69919, Note_off_c, 9, 42, 64
12, 69960, Note_on_c, 9, 42, 85
12, 69997, Note_off_c, 9, 42, 64
12, 70080, Note_on_c, 9, 42, 78
12, 70208, Note_off_c, 9, 42, 64
12, 70320, Note_on_c, 9, 42, 75
12, 70453, Note_off_c, 9, 42, 64
12, 70560, Note_on_c, 9, 42, 85
12, 70601, Note_off_c, 9, 42, 64
12, 71040, Note_on_c, 9, 42, 78
12, 71070, Note_off_c, 9, 42, 64
12, 71160, Note_on_c, 9, 42, 40
12, 71180, Note_off_c, 9, 42, 64
12, 71280, Note_on_c, 9, 42, 73
12, 71316, Note_off_c, 9, 42, 64
12, 71340, Note_on_c, 9, 42, 54
12, 71379, Note_off_c, 9, 42, 64
12, 71520, Note_on_c, 9, 42, 65
12, 71557, Note_off_c, 9, 42, 64
12, 71640, Note_on_c, 9, 42, 40
12, 71673, Note_off_c, 9, 42, 64
12, 71760, Note_on_c, 9, 42, 68
12, 71801, Note_off_c, 9, 42, 64
12, 71880, Note_on_c, 9, 42, 41
12, 71917, Note_off_c, 9, 42, 64
12, 72000, Note_on_c, 9, 42, 73
12, 72048, Note_off_c, 9, 42, 64
12, 72120, Note_on_c, 9, 42, 40
12, 72158, Note_off_c, 9, 42, 64
12, 72240, Note_on_c, 9, 42, 78
12, 72283, Note_off_c, 9, 42, 64
12, 72360, Note_on_c, 9, 42, 43
12, 72403, Note_off_c, 9, 42, 64
12, 72480, Note_on_c, 9, 42, 68
12, 72516, Note_off_c, 9, 42, 64
12, 72600, Note_on_c, 9, 42, 81
12, 72640, Note_off_c, 9, 42, 64
12, 72660, Note_on_c, 9, 42, 67
12, 72683, Note_off_c, 9, 42, 64
12, 72720, Note_on_c, 9, 42, 40
12, 72758, Note_off_c, 9, 42, 64
12, 72780, Note_on_c, 9, 42, 67
12, 72799, Note_off_c, 9, 42, 64
12, 72840, Note_on_c, 9, 42, 85
12, 72877, Note_off_c, 9, 42, 64
12, 72960, Note_on_c, 9, 42, 78
12, 72990, Note_off_c, 9, 42, 64
12, 73080, Note_on_c, 9, 42, 40
12, 73100, Note_off_c, 9, 42, 64
12, 73200, Note_on_c, 9, 42, 73
12, 73236, Note_off_c, 9, 42, 64
12, 73260, Note_on_c, 9, 42, 54
12, 73299, Note_off_c, 9, 42, 64
12, 73440, Note_on_c, 9, 42, 65
12, 73477, Note_off_c, 9, 42, 64
12, 73560, Note_on_c, 9, 42, 40
12, 73593, Note_off_c, 9, 42, 64
12, 73680, Note_on_c, 9, 42, 68
12, 73721, Note_off_c, 9, 42, 64
12, 73800, Note_on_c, 9, 42, 41
12, 73837, Note_off_c, 9, 42, 64
12, 73920, Note_on_c, 9, 42, 73
12, 73968, Note_off_c, 9, 42, 64
12, 74040, Note_on_c, 9, 42, 40
12, 74078, Note_off_c, 9, 42, 64
12, 74160, Note_on_c, 9, 42, 78
12, 74203, Note_off_c, 9, 42, 64
12, 74280, Note_on_c, 9, 42, 43
12, 74323, Note_off_c, 9, 42, 64
12, 74400, Note_on_c, 9, 42, 68
12, 74436, Note_off_c, 9, 42, 64
12, 74520, Note_on_c, 9, 42, 81
12, 74560, Note_off_c, 9, 42, 64
12, 74580, Note_on_c, 9, 42, 67
12, 74603, Note_off_c, 9, 42, 64
12, 74640, Note_on_c, 9, 42, 40
12, 74678, Note_off_c, 9, 42, 64
12, 74700, Note_on_c, 9, 42, 67
12, 74719, Note_off_c, 9, 42, 64
12, 74760, Note_on_c, 9, 42, 85
12, 74797, Note_off_c, 9, 42, 64
12, 74880, Note_on_c, 9, 42, 78
12, 74910, Note_off_c, 9, 42, 64
12, 75000, Note_on_c, 9, 42, 40
12, 75020, Note_off_c, 9, 42, 64
12, 75120, Note_on_c, 9, 42, 73
12, 75156, Note_off_c, 9, 42, 64
12, 75180, Note_on_c, 9, 42, 54
12, 75219, Note_off_c, 9, 42, 64
12, 75360, Note_on_c, 9, 42, 65
12, 75397, Note_off_c, 9, 42, 64
12, 75480, Note_on_c, 9, 42, 40
12, 75513, Note_off_c, 9, 42, 64
12, 75600, Note_on_c, 9, 42, 68
12, 75641, Note_off_c, 9, 42, 64
12, 75720, Note_on_c, 9, 42, 41
12, 75757, Note_off_c, 9, 42, 64
12, 75840, Note_on_c, 9, 42, 73
12, 75888, Note_off_c, 9, 42, 64
12, 75960, Note_on_c, 9, 42, 40
12, 75998, Note_off_c, 9, 42, 64
12, 76080, Note_on_c, 9, 42, 78
12, 76123, Note_off_c, 9, 42, 64
12, 76200, Note_on_c, 9, 42, 43
12, 76243, Note_off_c, 9, 42, 64
12, 76320, Note_on_c, 9, 42, 68
12, 76356, Note_off_c, 9, 42, 64
12, 76440, Note_on_c, 9, 42, 81
12, 76480, Note_off_c, 9, 42, 64
12, 76500, Note_on_c, 9, 42, 67
12, 76523, Note_off_c, 9, 42, 64
12, 76560, Note_on_c, 9, 42, 40
12, 76598, Note_off_c, 9, 42, 64
12, 76620, Note_on_c, 9, 42, 67
12, 76639, Note_off_c, 9, 42, 64
12, 76680, Note_on_c, 9, 42, 85
12, 76717, Note_off_c, 9, 42, 64
12, 76800, Note_on_c, 9, 42, 78
12, 76830, Note_off_c, 9, 42, 64
12, 76920, Note_on_c, 9, 42, 40
12, 76940, Note_off_c, 9, 42, 64
12, 77040, Note_on_c, 9, 42, 73
12, 77076, Note_off_c, 9, 42, 64
12, 77100, Note_on_c, 9, 42, 54
12, 77139, Note_off_c, 9, 42, 64
12, 77280, Note_on_c, 9, 42, 65
12, 77317, Note_off_c, 9, 42, 64
12, 77400, Note_on_c, 9, 42, 40
12, 77433, Note_off_c, 9, 42, 64
12, 77520, Note_on_c, 9, 42, 68
12, 77561, Note_off_c, 9, 42, 64
12, 77640, Note_on_c, 9, 42, 41
12, 77677, Note_off_c, 9, 42, 64
12, 77760, Note_on_c, 9, 42, 73
12, 77808, Note_off_c, 9, 42, 64
12, 77880, Note_on_c, 9, 42, 40
12, 77918, Note_off_c, 9, 42, 64
12, 78000, Note_on_c, 9, 42, 78
12, 78043, Note_off_c, 9, 42, 64
12, 78120, Note_on_c, 9, 42, 43
12, 78163, Note_off_c, 9, 42, 64
12, 78240, Note_on_c, 9, 42, 68
12, 78276, Note_off_c, 9, 42, 64
12, 78360, Note_on_c, 9, 42, 81
12, 78400, Note_off_c, 9, 42, 64
12, 78420, Note_on_c, 9, 42, 67
12, 78443, Note_off_c, 9, 42, 64
12, 78480, Note_on_c, 9, 42, 40
12, 78518, Note_off_c, 9, 42, 64
12, 78540, Note_on_c, 9, 42, 67
12, 78559, Note_off_c, 9, 42, 64
12, 78600, Note_on_c, 9, 42, 85
12, 78637, Note_off_c, 9, 42, 64
12, 78720, Note_on_c, 9, 42, 78
12, 78750, Note_off_c, 9, 42, 64
12, 78840, Note_on_c, 9, 42, 40
12, 78860, Note_off_c, 9, 42, 64
12, 78960, Note_on_c, 9, 42, 73
12, 78996, Note_off_c, 9, 42, 64
12, 79020, Note_on_c, 9, 42, 54
12, 79059, Note_off_c, 9, 42, 64
12, 79200, Note_on_c, 9, 42, 65
12, 79237, Note_off_c, 9, 42, 64
12, 79320, Note_on_c, 9, 42, 40
12, 79353, Note_off_c, 9, 42, 64
12, 79440, Note_on_c, 9, 42, 68
12, 79481, Note_off_c, 9, 42, 64
12, 79560, Note_on_c, 9, 42, 41
12, 79597, Note_off_c, 9, 42, 64
12, 79680, Note_on_c, 9, 42, 73
12, 79728, Note_off_c, 9, 42, 64
12, 79800, Note_on_c, 9, 42, 40
12, 79838, Note_off_c, 9, 42, 64
12, 79920, Note_on_c, 9, 42, 78
12, 79963, Note_off_c, 9, 42, 64
12, 80040, Note_on_c, 9, 42, 43
12, 80083, Note_off_c, 9, 42, 64
12, 80160, Note_on_c, 9, 42, 68
12, 80196, Note_off_c, 9, 42, 64
12, 80280, Note_on_c, 9, 42, 81
12, 80320, Note_off_c, 9, 42, 64
12, 80340, Note_on_c, 9, 42, 67
12, 80363, Note_off_c, 9, 42, 64
12, 80400, Note_on_c, 9, 42, 40
12, 80438, Note_off_c, 9, 42, 64
12, 80460, Note_on_c, 9, 42, 67
12, 80479, Note_off_c, 9, 42, 64
12, 80520, Note_on_c, 9, 42, 85
12, 80557, Note_off_c, 9, 42, 64
12, 80640, Note_on_c, 9, 42, 78
12, 80670, Note_off_c, 9, 42, 64
12, 80760, Note_on_c, 9, 42, 40
12, 80780, Note_off_c, 9, 42, 64
12, 80880, Note_on_c, 9, 42, 73
12, 80916, Note_off_c, 9, 42, 64
12, 80940, Note_on_c, 9, 42, 54
12, 80979, Note_off_c, 9, 42, 64
12, 81120, Note_on_c, 9, 42, 65
12, 81157, Note_off_c, 9, 42, 64
12, 81240, Note_on_c, 9, 42, 40
12, 81273, Note_off_c, 9, 42, 64
12, 81360, Note_on_c, 9, 42, 68
12, 81401, Note_off_c, 9, 42, 64
12, 81480, Note_on_c, 9, 42, 41
12, 81517, Note_off_c, 9, 42, 64
12, 81600, Note_on_c, 9, 42, 73
12, 81648, Note_off_c, 9, 42, 64
12, 81720, Note_on_c, 9, 42, 40
12, 81758, Note_off_c, 9, 42, 64
12, 81840, Note_on_c, 9, 42, 78
12, 81883, Note_off_c, 9, 42, 64
12, 81960, Note_on_c, 9, 42, 43
12, 82003, Note_off_c, 9, 42, 64
12, 82080, Note_on_c, 9, 42, 68
12, 82116, Note_off_c, 9, 42, 64
12, 82200, Note_on_c, 9, 42, 81
12, 82240, Note_off_c, 9, 42, 64
12, 82260, Note_on_c, 9, 42, 67
12, 82283, Note_off_c, 9, 42, 64
12, 82320, Note_on_c, 9, 42, 40
12, 82358, Note_off_c, 9, 42, 64
12, 82380, Note_on_c, 9, 42, 67
12, 82399, Note_off_c, 9, 42, 64
12, 82440, Note_on_c, 9, 42, 85
12, 82477, Note_off_c, 9, 42, 64
12, 82560, Note_on_c, 9, 42, 78
12, 82590, Note_off_c, 9, 42, 64
12, 82680, Note_on_c, 9, 42, 40
12, 82700, Note_off_c, 9, 42, 64
12, 82800, Note_on_c, 9, 42, 73
12, 82836, Note_off_c, 9, 42, 64
12, 82860, Note_on_c, 9, 42, 54
12, 82899, Note_off_c, 9, 42, 64
12, 83040, Note_on_c, 9, 42, 65
12, 83077, Note_off_c, 9, 42, 64
12, 83160, Note_on_c, 9, 42, 40
12, 83193, Note_off_c, 9, 42, 64
12, 83280, Note_on_c, 9, 42, 68
12, 83321, Note_off_c, 9, 42, 64
12, 83400, Note_on_c, 9, 42, 41
12, 83437, Note_off_c, 9, 42, 64
12, 83520, Note_on_c, 9, 42, 73
12, 83568, Note_off_c, 9, 42, 64
12, 83640, Note_on_c, 9, 42, 40
12, 83678, Note_off_c, 9, 42, 64
12, 83760, Note_on_c, 9, 42, 78
12, 83803, Note_off_c, 9, 42, 64
12, 83880, Note_on_c, 9, 42, 43
12, 83923, Note_off_c, 9, 42, 64
12, 84000, Note_on_c, 9, 42, 68
12, 84036, Note_off_c, 9, 42, 64
12, 84120, Note_on_c, 9, 42, 81
12, 84160, Note_off_c, 9, 42, 64
12, 84180, Note_on_c, 9, 42, 67
12, 84203, Note_off_c, 9, 42, 64
12, 84240, Note_on_c, 9, 42, 40
12, 84278, Note_off_c, 9, 42, 64
12, 84300, Note_on_c, 9, 42, 67
12, 84319, Note_off_c, 9, 42, 64
12, 84360, Note_on_c, 9, 42, 85
12, 84397, Note_off_c, 9, 42, 64
12, 84480, Note_on_c, 9, 42, 78
12, 84510, Note_off_c, 9, 42, 64
12, 84600, Note_on_c, 9, 42, 40
12, 84620, Note_off_c, 9, 42, 64
12, 84720, Note_on_c, 9, 42, 73
12, 84756, Note_off_c, 9, 42, 64
12, 84780, Note_on_c, 9, 42, 54
12, 84819, Note_off_c, 9, 42, 64
12, 84960, Note_on_c, 9, 42, 65
12, 84997, Note_off_c, 9, 42, 64
12, 85080, Note_on_c, 9, 42, 40
12, 85113, Note_off_c, 9, 42, 64
12, 85200, Note_on_c, 9, 42, 68
12, 85241, Note_off_c, 9, 42, 64
12, 85320, Note_on_c, 9, 42, 41
12, 85357, Note_off_c, 9, 42, 64
12, 85440, Note_on_c, 9, 42, 73
12, 85488, Note_off_c, 9, 42, 64
12, 85560, Note_on_c, 9, 42, 40
12, 85598, Note_off_c, 9, 42, 64
12, 85680, Note_on_c, 9, 42, 78
12, 85723, Note_off_c, 9, 42, 64
12, 85800, Note_on_c, 9, 42, 43
12, 85843, Note_off_c, 9, 42, 64
12, 85920, Note_on_c, 9, 42, 68
12, 85956, Note_off_c, 9, 42, 64
12, 86040, Note_on_c, 9, 42, 81
12, 86080, Note_off_c, 9, 42, 64
12, 86100, Note_on_c, 9, 42, 67
12, 86123, Note_off_c, 9, 42, 64
12, 86160, Note_on_c, 9, 42, 40
12, 86198, Note_off_c, 9, 42, 64
12, 86220, Note_on_c, 9, 42, 67
12, 86239, Note_off_c, 9, 42, 64
12, 86280, Note_on_c, 9, 42, 85
12, 86317, Note_off_c, 9, 42, 64
12, 96000, Note_on_c, 9, 42, 68
12, 96041, Note_off_c, 9, 42, 64
12, 96120, Note_on_c, 9, 42, 41
12, 96157, Note_off_c, 9, 42, 64
12, 96240, Note_on_c, 9, 42, 57
12, 96286, Note_off_c, 9, 42, 64
12, 96360, Note_on_c, 9, 42, 40
12, 96407, Note_off_c, 9, 42, 64
12, 96480, Note_on_c, 9, 42, 60
12, 96530, Note_off_c, 9, 42, 64
12, 96600, Note_on_c, 9, 42, 40
12, 96636, Note_off_c, 9, 42, 64
12, 96720, Note_on_c, 9, 42, 63
12, 96770, Note_off_c, 9, 42, 64
12, 96840, Note_on_c, 9, 42, 45
12, 96894, Note_off_c, 9, 42, 64
12, 96960, Note_on_c, 9, 42, 58
12, 97013, Note_off_c, 9, 42, 64
12, 97080, Note_on_c, 9, 42, 40
12, 97111, Note_off_c, 9, 42, 64
12, 97200, Note_on_c, 9, 42, 60
12, 97250, Note_off_c, 9, 42, 64
12, 97320, Note_on_c, 9, 42, 43
12, 97404, Note_off_c, 9, 42, 64
12, 97440, Note_on_c, 9, 42, 43
12, 97463, Note_off_c, 9, 42, 64
12, 97500, Note_on_c, 9, 42, 40
12, 97528, Note_off_c, 9, 42, 64
12, 97560, Note_on_c, 9, 42, 40
12, 97596, Note_off_c, 9, 42, 64
12, 97680, Note_on_c, 9, 42, 58
12, 97743, Note_off_c, 9, 42, 64
12, 97920, Note_on_c, 9, 42, 53
12, 97976, Note_off_c, 9, 42, 64
12, 98040, Note_on_c, 9, 42, 40
12, 98083, Note_off_c, 9, 42, 64
12, 98160, Note_on_c, 9, 42, 54
12, 98213, Note_off_c, 9, 42, 64
12, 98280, Note_on_c, 9, 42, 40
12, 98320, Note_off_c, 9, 42, 64
12, 98400, Note_on_c, 9, 42, 40
12, 98451, Note_off_c, 9, 42, 64
12, 98520, Note_on_c, 9, 42, 40
12, 98560, Note_off_c, 9, 42, 64
12, 98640, Note_on_c, 9, 42, 45
12, 98704, Note_off_c, 9, 42, 64
12, 98760, Note_on_c, 9, 42, 40
12, 98800, Note_off_c, 9, 42, 64
12, 98880, Note_on_c, 9, 42, 46
12, 98942, Note_off_c, 9, 42, 64
12, 99000, Note_on_c, 9, 42, 40
12, 99041, Note_off_c, 9, 42, 64
12, 99120, Note_on_c, 9, 42, 49
12, 99181, Note_off_c, 9, 42, 64
12, 99240, Note_on_c, 9, 42, 40
12, 99291, Note_off_c, 9, 42, 64
12, 99360, Note_on_c, 9, 42, 53
12, 99398, Note_off_c, 9, 42, 64
12, 99420, Note_on_c, 9, 42, 40
12, 99456, Note_off_c, 9, 42, 64
12, 99480, Note_on_c, 9, 42, 40
12, 99517, Note_off_c, 9, 42, 64
12, 99600, Note_on_c, 9, 42, 47
12, 99658, Note_off_c, 9, 42, 64
12, 99720, Note_on_c, 9, 42, 40
12, 99755, Note_off_c, 9, 42, 64
12, 99840, Note_on_c, 9, 42, 56
12, 99904, Note_off_c, 9, 42, 64
12, 99960, Note_on_c, 9, 42, 40
12, 99991, Note_off_c, 9, 42, 64
12, 100080, Note_on_c, 9, 42, 54
12, 100131, Note_off_c, 9, 42, 64
12, 100200, Note_on_c, 9, 42, 40
12, 100247, Note_off_c, 9, 42, 64
12, 100320, Note_on_c, 9, 42, 49
12, 100375, Note_off_c, 9, 42, 64
12, 100440, Note_on_c, 9, 42, 40
12, 100493, Note_off_c, 9, 42, 64
12, 100560, Note_on_c, 9, 42, 52
12, 100625, Note_off_c, 9, 42, 64
12, 100680, Note_on_c, 9, 42, 40
12, 100734, Note_off_c, 9, 42, 64
12, 100800, Note_on_c, 9, 42, 52
12, 100867, Note_off_c, 9, 42, 64
12, 100920, Note_on_c, 9, 42, 40
12, 100970, Note_off_c, 9, 42, 64
12, 101040, Note_on_c, 9, 42, 56
12, 101100, Note_off_c, 9, 42, 64
12, 101160, Note_on_c, 9, 42, 41
12, 101212, Note_off_c, 9, 42, 64
12, 101280, Note_on_c, 9, 42, 53
12, 101312, Note_off_c, 9, 42, 64
12, 101340, Note_on_c, 9, 42, 40
12, 101376, Note_off_c, 9, 42, 64
12, 101400, Note_on_c, 9, 42, 40
12, 101445, Note_off_c, 9, 42, 64
12, 101520, Note_on_c, 9, 42, 54
12, 101574, Note_off_c, 9, 42, 64
12, 101640, Note_on_c, 9, 42, 50
12, 101694, Note_off_c, 9, 42, 64
12, 101760, Note_on_c, 9, 42, 51
12, 101817, Note_off_c, 9, 42, 64
12, 101880, Note_on_c, 9, 42, 40
12, 101927, Note_off_c, 9, 42, 64
12, 102000, Note_on_c, 9, 42, 57
12, 102054, Note_off_c, 9, 42, 64
12, 102120, Note_on_c, 9, 42, 40
12, 102176, Note_off_c, 9, 42, 64
12, 102240, Note_on_c, 9, 42, 50
12, 102301, Note_off_c, 9, 42, 64
12, 102360, Note_on_c, 9, 42, 40
12, 102414, Note_off_c, 9, 42, 64
12, 102480, Note_on_c, 9, 42, 56
12, 102538, Note_off_c, 9, 42, 64
12, 102600, Note_on_c, 9, 42, 40
12, 102662, Note_off_c, 9, 42, 64
12, 102720, Note_on_c, 9, 42, 48
12, 102759, Note_off_c, 9, 42, 64
12, 102780, Note_on_c, 9, 42, 40
12, 102826, Note_off_c, 9, 42, 64
12, 102840, Note_on_c, 9, 42, 40
12, 102885, Note_off_c, 9, 42, 64
12, 102960, Note_on_c, 9, 42, 54
12, 103011, Note_off_c, 9, 42, 64
12, 103080, Note_on_c, 9, 42, 40
12, 103144, Note_off_c, 9, 42, 64
12, 103200, Note_on_c, 9, 42, 53
12, 103228, Note_off_c, 9, 42, 64
12, 103260, Note_on_c, 9, 42, 40
12, 103300, Note_off_c, 9, 42, 64
12, 103320, Note_on_c, 9, 42, 40
12, 103358, Note_off_c, 9, 42, 64
12, 103440, Note_on_c, 9, 42, 63
12, 103477, Note_off_c, 9, 42, 64
12, 103680, Note_on_c, 9, 51, 65
12, 103698, Note_off_c, 9, 51, 64
12, 103698, End_track
13, 0, Start_track
13, 0, Text_t, "crash"
13, 19200, Note_on_c, 9, 49, 85
13, 19220, Note_off_c, 9, 49, 64
13, 42240, Note_on_c, 9, 49, 85
13, 42260, Note_off_c, 9, 49, 64
13, 49920, Note_on_c, 9, 49, 85
13, 49943, Note_off_c, 9, 49, 64
13, 58680, Note_on_c, 9, 49, 85
13, 58701, Note_off_c, 9, 49, 64
13, 58920, Note_on_c, 9, 49, 78
13, 58942, Note_off_c, 9, 49, 64
13, 66240, Note_on_c, 9, 49, 85
13, 66265, Note_off_c, 9, 49, 64
13, 68760, Note_on_c, 9, 49, 68
13, 68795, Note_off_c, 9, 49, 64
13, 68940, Note_on_c, 9, 49, 73
13, 68968, Note_off_c, 9, 49, 64
13, 71045, Note_on_c, 9, 49, 85
13, 71090, Note_off_c, 9, 49, 64
13, 77400, Note_on_c, 9, 49, 68
13, 77435, Note_off_c, 9, 49, 64
13, 77580, Note_on_c, 9, 49, 73
13, 77608, Note_off_c, 9, 49, 64
13, 78725, Note_on_c, 9, 49, 85
13, 78770, Note_off_c, 9, 49, 64
13, 85080, Note_on_c, 9, 49, 68
13, 85115, Note_off_c, 9, 49, 64
13, 85260, Note_on_c, 9, 49, 73
13, 85288, Note_off_c, 9, 49, 64
13, 85288, End_track
14, 0, Start_track
14, 0, Text_t, "xtra sn"
14, 35280, Note_on_c, 9, 38, 100
14, 35422, Note_off_c, 9, 38, 64
14, 36240, Note_on_c, 9, 38, 100
14, 36366, Note_off_c, 9, 38, 64
14, 37200, Note_on_c, 9, 38, 100
14, 37335, Note_off_c, 9, 38, 64
14, 38160, Note_on_c, 9, 38, 100
14, 38254, Note_off_c, 9, 38, 64
14, 38640, Note_on_c, 9, 38, 100
14, 38776, Note_off_c, 9, 38, 64
14, 39120, Note_on_c, 9, 38, 100
14, 39232, Note_off_c, 9, 38, 64
14, 39600, Note_on_c, 9, 38, 100
14, 39703, Note_off_c, 9, 38, 64
14, 40080, Note_on_c, 9, 38, 100
14, 40183, Note_off_c, 9, 38, 64
14, 40560, Note_on_c, 9, 38, 100
14, 40644, Note_off_c, 9, 38, 64
14, 41040, Note_on_c, 9, 38, 100
14, 41076, Note_off_c, 9, 38, 64
14, 41076, End_track
15, 0, Start_track
15, 0, End_track
16, 0, Start_track
16, 0, Text_t, """Nothing's Broken But My"
16, 0, End_track
17, 0, Start_track
17, 0, Text_t, "    Heart"" by Celine Dion"
17, 0, End_track
18, 0, Start_track
18, 0, Text_t, "GM seq. by LowNotes"
18, 0, End_track
0, 0, End_of_file
