0, 0, Header, 1, 12, 192
1, 0, Start_track
1, 0, Title_t, "untitled"
1, 0, Text_t, "- NOTHING'S\012"
1, 0, Text_t, "- GONNA CHNGE\012"
1, 0, Text_t, "- MY LOVE 4 U\012"
1, 0, SMPTE_offset, 96, 0, 3, 0, 0
1, 0, MIDI_port, 0
1, 0, System_exclusive, 10, 65, 16, 66, 18, 64, 0, 127, 0, 65, 247
1, 0, System_exclusive, 10, 65, 16, 66, 18, 64, 1, 48, 3, 12, 247
1, 0, System_exclusive, 10, 65, 16, 66, 18, 64, 1, 51, 90, 50, 247
1, 0, System_exclusive, 10, 65, 16, 66, 18, 64, 1, 52, 96, 43, 247
1, 0, System_exclusive, 10, 65, 16, 66, 18, 64, 24, 21, 2, 17, 247
1, 0, System_exclusive, 10, 65, 16, 66, 18, 64, 23, 26, 127, 16, 247
1, 0, MIDI_port, 0
1, 0, Time_signature, 4, 2, 24, 8
1, 0, Key_signature, 0, "major"
1, 0, Tempo, 909091
1, 0, Marker_t, "Converted by W2M 1.31..   made by loveforu.."
1, 13824, Tempo, 434783
1, 14592, Tempo, 909091
1, 30720, Tempo, 434783
1, 31488, Tempo, 909091
1, 31488, End_track
2, 0, Start_track
2, 0, MIDI_port, 0
2, 0, Title_t, "drums"
2, 0, Control_c, 9, 0, 0
2, 0, Control_c, 9, 32, 0
2, 0, Program_c, 9, 0
2, 0, Control_c, 9, 7, 84
2, 0, Control_c, 9, 10, 64
2, 36, Control_c, 9, 1, 0
2, 72, Control_c, 9, 11, 127
2, 84, Control_c, 9, 64, 0
2, 96, Control_c, 9, 67, 0
2, 108, Control_c, 9, 91, 80
2, 120, Control_c, 9, 93, 0
2, 121, Control_c, 9, 99, 28
2, 121, Control_c, 9, 98, 42
2, 121, Control_c, 9, 6, 120
2, 122, Control_c, 9, 98, 44
2, 122, Control_c, 9, 6, 120
2, 123, Control_c, 9, 98, 46
2, 123, Control_c, 9, 6, 120
2, 124, Control_c, 9, 98, 49
2, 124, Control_c, 9, 6, 0
2, 5136, Note_on_c, 9, 44, 50
2, 5137, Note_on_c, 9, 44, 0
2, 5184, Note_on_c, 9, 44, 50
2, 5185, Note_on_c, 9, 44, 0
2, 5232, Note_on_c, 9, 44, 50
2, 5233, Note_on_c, 9, 44, 0
2, 5280, Note_on_c, 9, 44, 50
2, 5281, Note_on_c, 9, 44, 0
2, 5328, Note_on_c, 9, 44, 28
2, 5329, Note_on_c, 9, 44, 0
2, 5520, Note_on_c, 9, 44, 51
2, 5521, Note_on_c, 9, 44, 0
2, 5568, Note_on_c, 9, 44, 54
2, 5569, Note_on_c, 9, 44, 0
2, 5616, Note_on_c, 9, 44, 43
2, 5617, Note_on_c, 9, 44, 0
2, 5664, Note_on_c, 9, 44, 32
2, 5665, Note_on_c, 9, 44, 0
2, 5904, Note_on_c, 9, 69, 50
2, 5905, Note_on_c, 9, 69, 0
2, 5952, Note_on_c, 9, 69, 50
2, 5953, Note_on_c, 9, 69, 0
2, 6000, Note_on_c, 9, 69, 45
2, 6001, Note_on_c, 9, 69, 0
2, 6048, Note_on_c, 9, 70, 37
2, 6049, Note_on_c, 9, 70, 0
2, 6096, Note_on_c, 9, 69, 34
2, 6097, Note_on_c, 9, 69, 0
2, 6288, Note_on_c, 9, 70, 50
2, 6289, Note_on_c, 9, 70, 0
2, 6336, Note_on_c, 9, 69, 50
2, 6337, Note_on_c, 9, 69, 0
2, 6384, Note_on_c, 9, 44, 50
2, 6385, Note_on_c, 9, 44, 0
2, 6432, Note_on_c, 9, 69, 50
2, 6433, Note_on_c, 9, 69, 0
2, 6672, Note_on_c, 9, 70, 50
2, 6673, Note_on_c, 9, 70, 0
2, 6720, Note_on_c, 9, 76, 43
2, 6720, Note_on_c, 9, 69, 50
2, 6720, Note_on_c, 9, 62, 66
2, 6721, Note_on_c, 9, 62, 0
2, 6721, Note_on_c, 9, 69, 0
2, 6721, Note_on_c, 9, 76, 0
2, 6768, Note_on_c, 9, 76, 50
2, 6768, Note_on_c, 9, 69, 50
2, 6768, Note_on_c, 9, 62, 67
2, 6769, Note_on_c, 9, 62, 0
2, 6769, Note_on_c, 9, 69, 0
2, 6769, Note_on_c, 9, 76, 0
2, 6816, Note_on_c, 9, 75, 65
2, 6816, Note_on_c, 9, 77, 50
2, 6816, Note_on_c, 9, 44, 65
2, 6816, Note_on_c, 9, 64, 70
2, 6817, Note_on_c, 9, 64, 0
2, 6817, Note_on_c, 9, 75, 0
2, 6817, Note_on_c, 9, 77, 0
2, 6817, Note_on_c, 9, 44, 0
2, 6864, Note_on_c, 9, 75, 73
2, 6864, Note_on_c, 9, 77, 62
2, 6864, Note_on_c, 9, 46, 71
2, 6864, Note_on_c, 9, 62, 68
2, 6865, Note_on_c, 9, 62, 0
2, 6865, Note_on_c, 9, 75, 0
2, 6865, Note_on_c, 9, 77, 0
2, 6865, Note_on_c, 9, 46, 0
2, 7056, Note_on_c, 9, 70, 50
2, 7057, Note_on_c, 9, 70, 0
2, 7104, Note_on_c, 9, 69, 50
2, 7105, Note_on_c, 9, 69, 0
2, 7152, Note_on_c, 9, 44, 50
2, 7153, Note_on_c, 9, 44, 0
2, 7200, Note_on_c, 9, 70, 50
2, 7201, Note_on_c, 9, 70, 0
2, 7248, Note_on_c, 9, 69, 50
2, 7249, Note_on_c, 9, 69, 0
2, 7584, Note_on_c, 9, 46, 63
2, 7585, Note_on_c, 9, 46, 0
2, 7680, Note_on_c, 9, 36, 127
2, 7680, Note_on_c, 9, 42, 65
2, 7681, Note_on_c, 9, 42, 0
2, 7681, Note_on_c, 9, 36, 0
2, 7872, Note_on_c, 9, 42, 65
2, 7873, Note_on_c, 9, 42, 0
2, 7968, Note_on_c, 9, 42, 65
2, 7969, Note_on_c, 9, 42, 0
2, 8016, Note_on_c, 9, 36, 127
2, 8016, Note_on_c, 9, 42, 65
2, 8017, Note_on_c, 9, 42, 0
2, 8017, Note_on_c, 9, 36, 0
2, 8064, Note_on_c, 9, 36, 127
2, 8064, Note_on_c, 9, 42, 65
2, 8065, Note_on_c, 9, 42, 0
2, 8065, Note_on_c, 9, 36, 0
2, 8256, Note_on_c, 9, 42, 65
2, 8257, Note_on_c, 9, 42, 0
2, 8304, Note_on_c, 9, 42, 65
2, 8305, Note_on_c, 9, 42, 0
2, 8352, Note_on_c, 9, 46, 65
2, 8353, Note_on_c, 9, 46, 0
2, 8448, Note_on_c, 9, 36, 127
2, 8448, Note_on_c, 9, 42, 65
2, 8449, Note_on_c, 9, 42, 0
2, 8449, Note_on_c, 9, 36, 0
2, 8640, Note_on_c, 9, 42, 65
2, 8641, Note_on_c, 9, 42, 0
2, 8736, Note_on_c, 9, 42, 65
2, 8737, Note_on_c, 9, 42, 0
2, 8832, Note_on_c, 9, 36, 127
2, 8832, Note_on_c, 9, 44, 65
2, 8833, Note_on_c, 9, 44, 0
2, 8833, Note_on_c, 9, 36, 0
2, 9024, Note_on_c, 9, 44, 65
2, 9025, Note_on_c, 9, 44, 0
2, 9072, Note_on_c, 9, 42, 65
2, 9073, Note_on_c, 9, 42, 0
2, 9120, Note_on_c, 9, 46, 65
2, 9121, Note_on_c, 9, 46, 0
2, 9312, Note_on_c, 9, 42, 65
2, 9313, Note_on_c, 9, 42, 0
2, 9504, Note_on_c, 9, 42, 65
2, 9505, Note_on_c, 9, 42, 0
2, 9600, Note_on_c, 9, 36, 127
2, 9600, Note_on_c, 9, 42, 65
2, 9601, Note_on_c, 9, 42, 0
2, 9601, Note_on_c, 9, 36, 0
2, 9792, Note_on_c, 9, 42, 65
2, 9793, Note_on_c, 9, 42, 0
2, 9840, Note_on_c, 9, 42, 65
2, 9841, Note_on_c, 9, 42, 0
2, 9888, Note_on_c, 9, 42, 65
2, 9889, Note_on_c, 9, 42, 0
2, 9936, Note_on_c, 9, 46, 65
2, 9937, Note_on_c, 9, 46, 0
2, 9984, Note_on_c, 9, 36, 127
2, 9985, Note_on_c, 9, 36, 0
2, 10176, Note_on_c, 9, 42, 65
2, 10177, Note_on_c, 9, 42, 0
2, 10368, Note_on_c, 9, 36, 127
2, 10368, Note_on_c, 9, 42, 65
2, 10369, Note_on_c, 9, 42, 0
2, 10369, Note_on_c, 9, 36, 0
2, 10560, Note_on_c, 9, 42, 65
2, 10561, Note_on_c, 9, 42, 0
2, 10656, Note_on_c, 9, 42, 65
2, 10657, Note_on_c, 9, 42, 0
2, 10752, Note_on_c, 9, 36, 127
2, 10752, Note_on_c, 9, 42, 60
2, 10753, Note_on_c, 9, 42, 0
2, 10753, Note_on_c, 9, 36, 0
2, 10944, Note_on_c, 9, 37, 113
2, 10944, Note_on_c, 9, 42, 60
2, 10945, Note_on_c, 9, 42, 0
2, 10945, Note_on_c, 9, 37, 0
2, 11088, Note_on_c, 9, 36, 100
2, 11089, Note_on_c, 9, 36, 0
2, 11136, Note_on_c, 9, 36, 127
2, 11136, Note_on_c, 9, 42, 60
2, 11137, Note_on_c, 9, 42, 0
2, 11137, Note_on_c, 9, 36, 0
2, 11280, Note_on_c, 9, 42, 60
2, 11281, Note_on_c, 9, 42, 0
2, 11328, Note_on_c, 9, 37, 115
2, 11328, Note_on_c, 9, 42, 60
2, 11328, Note_on_c, 9, 54, 107
2, 11329, Note_on_c, 9, 54, 0
2, 11329, Note_on_c, 9, 42, 0
2, 11329, Note_on_c, 9, 37, 0
2, 11472, Note_on_c, 9, 36, 127
2, 11473, Note_on_c, 9, 36, 0
2, 11520, Note_on_c, 9, 36, 127
2, 11520, Note_on_c, 9, 42, 60
2, 11521, Note_on_c, 9, 42, 0
2, 11521, Note_on_c, 9, 36, 0
2, 11712, Note_on_c, 9, 37, 118
2, 11712, Note_on_c, 9, 42, 60
2, 11713, Note_on_c, 9, 42, 0
2, 11713, Note_on_c, 9, 37, 0
2, 11808, Note_on_c, 9, 42, 60
2, 11809, Note_on_c, 9, 42, 0
2, 11856, Note_on_c, 9, 36, 127
2, 11857, Note_on_c, 9, 36, 0
2, 11904, Note_on_c, 9, 36, 127
2, 11905, Note_on_c, 9, 36, 0
2, 12000, Note_on_c, 9, 42, 60
2, 12001, Note_on_c, 9, 42, 0
2, 12096, Note_on_c, 9, 37, 118
2, 12096, Note_on_c, 9, 42, 60
2, 12096, Note_on_c, 9, 54, 108
2, 12097, Note_on_c, 9, 54, 0
2, 12097, Note_on_c, 9, 42, 0
2, 12097, Note_on_c, 9, 37, 0
2, 12240, Note_on_c, 9, 42, 60
2, 12241, Note_on_c, 9, 42, 0
2, 12288, Note_on_c, 9, 36, 127
2, 12288, Note_on_c, 9, 42, 60
2, 12289, Note_on_c, 9, 42, 0
2, 12289, Note_on_c, 9, 36, 0
2, 12432, Note_on_c, 9, 42, 60
2, 12433, Note_on_c, 9, 42, 0
2, 12480, Note_on_c, 9, 42, 60
2, 12481, Note_on_c, 9, 42, 0
2, 12624, Note_on_c, 9, 36, 127
2, 12625, Note_on_c, 9, 36, 0
2, 12672, Note_on_c, 9, 36, 127
2, 12672, Note_on_c, 9, 42, 60
2, 12673, Note_on_c, 9, 42, 0
2, 12673, Note_on_c, 9, 36, 0
2, 12768, Note_on_c, 9, 42, 60
2, 12769, Note_on_c, 9, 42, 0
2, 12864, Note_on_c, 9, 42, 60
2, 12864, Note_on_c, 9, 54, 106
2, 12865, Note_on_c, 9, 54, 0
2, 12865, Note_on_c, 9, 42, 0
2, 12960, Note_on_c, 9, 42, 60
2, 12961, Note_on_c, 9, 42, 0
2, 13056, Note_on_c, 9, 36, 127
2, 13056, Note_on_c, 9, 42, 60
2, 13057, Note_on_c, 9, 42, 0
2, 13057, Note_on_c, 9, 36, 0
2, 13152, Note_on_c, 9, 42, 60
2, 13153, Note_on_c, 9, 42, 0
2, 13248, Note_on_c, 9, 42, 60
2, 13249, Note_on_c, 9, 42, 0
2, 13296, Note_on_c, 9, 44, 65
2, 13297, Note_on_c, 9, 44, 0
2, 13344, Note_on_c, 9, 44, 72
2, 13345, Note_on_c, 9, 44, 0
2, 13392, Note_on_c, 9, 36, 127
2, 13392, Note_on_c, 9, 42, 50
2, 13393, Note_on_c, 9, 42, 0
2, 13393, Note_on_c, 9, 36, 0
2, 13440, Note_on_c, 9, 36, 127
2, 13440, Note_on_c, 9, 42, 60
2, 13441, Note_on_c, 9, 42, 0
2, 13441, Note_on_c, 9, 36, 0
2, 13536, Note_on_c, 9, 44, 80
2, 13537, Note_on_c, 9, 44, 0
2, 13584, Note_on_c, 9, 44, 77
2, 13585, Note_on_c, 9, 44, 0
2, 13632, Note_on_c, 9, 46, 60
2, 13632, Note_on_c, 9, 40, 112
2, 13633, Note_on_c, 9, 40, 0
2, 13633, Note_on_c, 9, 46, 0
2, 13728, Note_on_c, 9, 42, 60
2, 13729, Note_on_c, 9, 42, 0
2, 13776, Note_on_c, 9, 36, 116
2, 13777, Note_on_c, 9, 36, 0
2, 13824, Note_on_c, 9, 36, 127
2, 13824, Note_on_c, 9, 42, 65
2, 13825, Note_on_c, 9, 42, 0
2, 13825, Note_on_c, 9, 36, 0
2, 13920, Note_on_c, 9, 42, 65
2, 13920, Note_on_c, 9, 40, 115
2, 13921, Note_on_c, 9, 40, 0
2, 13921, Note_on_c, 9, 42, 0
2, 13979, Note_on_c, 9, 40, 91
2, 13980, Note_on_c, 9, 40, 0
2, 13981, Note_on_c, 9, 40, 114
2, 13982, Note_on_c, 9, 40, 0
2, 14016, Note_on_c, 9, 46, 65
2, 14016, Note_on_c, 9, 40, 91
2, 14017, Note_on_c, 9, 40, 0
2, 14017, Note_on_c, 9, 46, 0
2, 14112, Note_on_c, 9, 42, 65
2, 14112, Note_on_c, 9, 47, 115
2, 14113, Note_on_c, 9, 47, 0
2, 14113, Note_on_c, 9, 42, 0
2, 14208, Note_on_c, 9, 45, 100
2, 14209, Note_on_c, 9, 45, 0
2, 14222, Note_on_c, 9, 45, 100
2, 14223, Note_on_c, 9, 45, 0
2, 14294, Note_on_c, 9, 41, 100
2, 14295, Note_on_c, 9, 41, 0
2, 14304, Note_on_c, 9, 43, 100
2, 14305, Note_on_c, 9, 43, 0
2, 14400, Note_on_c, 9, 41, 100
2, 14401, Note_on_c, 9, 41, 0
2, 14592, Note_on_c, 9, 36, 127
2, 14592, Note_on_c, 9, 49, 87
2, 14592, Note_on_c, 9, 42, 60
2, 14593, Note_on_c, 9, 42, 0
2, 14593, Note_on_c, 9, 49, 0
2, 14593, Note_on_c, 9, 36, 0
2, 14640, Note_on_c, 9, 42, 60
2, 14641, Note_on_c, 9, 42, 0
2, 14688, Note_on_c, 9, 42, 60
2, 14689, Note_on_c, 9, 42, 0
2, 14736, Note_on_c, 9, 42, 60
2, 14737, Note_on_c, 9, 42, 0
2, 14784, Note_on_c, 9, 38, 110
2, 14784, Note_on_c, 9, 42, 60
2, 14784, Note_on_c, 9, 54, 110
2, 14785, Note_on_c, 9, 54, 0
2, 14785, Note_on_c, 9, 42, 0
2, 14785, Note_on_c, 9, 38, 0
2, 14832, Note_on_c, 9, 44, 60
2, 14833, Note_on_c, 9, 44, 0
2, 14880, Note_on_c, 9, 44, 60
2, 14881, Note_on_c, 9, 44, 0
2, 14928, Note_on_c, 9, 36, 127
2, 14928, Note_on_c, 9, 42, 60
2, 14929, Note_on_c, 9, 42, 0
2, 14929, Note_on_c, 9, 36, 0
2, 14976, Note_on_c, 9, 36, 127
2, 14977, Note_on_c, 9, 36, 0
2, 15024, Note_on_c, 9, 46, 60
2, 15025, Note_on_c, 9, 46, 0
2, 15072, Note_on_c, 9, 42, 60
2, 15073, Note_on_c, 9, 42, 0
2, 15120, Note_on_c, 9, 42, 60
2, 15121, Note_on_c, 9, 42, 0
2, 15168, Note_on_c, 9, 38, 110
2, 15168, Note_on_c, 9, 44, 60
2, 15168, Note_on_c, 9, 54, 110
2, 15169, Note_on_c, 9, 54, 0
2, 15169, Note_on_c, 9, 44, 0
2, 15169, Note_on_c, 9, 38, 0
2, 15216, Note_on_c, 9, 44, 60
2, 15217, Note_on_c, 9, 44, 0
2, 15264, Note_on_c, 9, 44, 60
2, 15265, Note_on_c, 9, 44, 0
2, 15312, Note_on_c, 9, 44, 60
2, 15313, Note_on_c, 9, 44, 0
2, 15360, Note_on_c, 9, 36, 127
2, 15360, Note_on_c, 9, 42, 60
2, 15361, Note_on_c, 9, 42, 0
2, 15361, Note_on_c, 9, 36, 0
2, 15456, Note_on_c, 9, 42, 60
2, 15457, Note_on_c, 9, 42, 0
2, 15552, Note_on_c, 9, 44, 60
2, 15552, Note_on_c, 9, 54, 110
2, 15552, Note_on_c, 9, 38, 110
2, 15553, Note_on_c, 9, 38, 0
2, 15553, Note_on_c, 9, 54, 0
2, 15553, Note_on_c, 9, 44, 0
2, 15648, Note_on_c, 9, 42, 60
2, 15649, Note_on_c, 9, 42, 0
2, 15696, Note_on_c, 9, 36, 127
2, 15697, Note_on_c, 9, 36, 0
2, 15744, Note_on_c, 9, 36, 127
2, 15744, Note_on_c, 9, 42, 60
2, 15745, Note_on_c, 9, 42, 0
2, 15745, Note_on_c, 9, 36, 0
2, 15792, Note_on_c, 9, 42, 60
2, 15793, Note_on_c, 9, 42, 0
2, 15840, Note_on_c, 9, 46, 60
2, 15841, Note_on_c, 9, 46, 0
2, 15888, Note_on_c, 9, 42, 60
2, 15889, Note_on_c, 9, 42, 0
2, 15936, Note_on_c, 9, 44, 60
2, 15936, Note_on_c, 9, 54, 110
2, 15936, Note_on_c, 9, 38, 110
2, 15937, Note_on_c, 9, 38, 0
2, 15937, Note_on_c, 9, 54, 0
2, 15937, Note_on_c, 9, 44, 0
2, 15984, Note_on_c, 9, 44, 60
2, 15985, Note_on_c, 9, 44, 0
2, 16032, Note_on_c, 9, 42, 60
2, 16033, Note_on_c, 9, 42, 0
2, 16080, Note_on_c, 9, 46, 60
2, 16081, Note_on_c, 9, 46, 0
2, 16128, Note_on_c, 9, 36, 127
2, 16128, Note_on_c, 9, 44, 60
2, 16129, Note_on_c, 9, 44, 0
2, 16129, Note_on_c, 9, 36, 0
2, 16224, Note_on_c, 9, 44, 60
2, 16225, Note_on_c, 9, 44, 0
2, 16320, Note_on_c, 9, 38, 110
2, 16320, Note_on_c, 9, 42, 60
2, 16320, Note_on_c, 9, 54, 110
2, 16321, Note_on_c, 9, 54, 0
2, 16321, Note_on_c, 9, 42, 0
2, 16321, Note_on_c, 9, 38, 0
2, 16416, Note_on_c, 9, 42, 60
2, 16417, Note_on_c, 9, 42, 0
2, 16464, Note_on_c, 9, 36, 127
2, 16464, Note_on_c, 9, 42, 60
2, 16465, Note_on_c, 9, 42, 0
2, 16465, Note_on_c, 9, 36, 0
2, 16512, Note_on_c, 9, 36, 127
2, 16513, Note_on_c, 9, 36, 0
2, 16560, Note_on_c, 9, 42, 60
2, 16561, Note_on_c, 9, 42, 0
2, 16656, Note_on_c, 9, 42, 60
2, 16657, Note_on_c, 9, 42, 0
2, 16704, Note_on_c, 9, 38, 110
2, 16704, Note_on_c, 9, 42, 60
2, 16704, Note_on_c, 9, 54, 110
2, 16705, Note_on_c, 9, 54, 0
2, 16705, Note_on_c, 9, 42, 0
2, 16705, Note_on_c, 9, 38, 0
2, 16752, Note_on_c, 9, 44, 60
2, 16753, Note_on_c, 9, 44, 0
2, 16800, Note_on_c, 9, 44, 60
2, 16801, Note_on_c, 9, 44, 0
2, 16848, Note_on_c, 9, 36, 127
2, 16849, Note_on_c, 9, 36, 0
2, 16896, Note_on_c, 9, 36, 127
2, 16896, Note_on_c, 9, 42, 60
2, 16897, Note_on_c, 9, 42, 0
2, 16897, Note_on_c, 9, 36, 0
2, 16992, Note_on_c, 9, 42, 60
2, 16993, Note_on_c, 9, 42, 0
2, 17088, Note_on_c, 9, 38, 110
2, 17088, Note_on_c, 9, 42, 60
2, 17088, Note_on_c, 9, 54, 110
2, 17089, Note_on_c, 9, 54, 0
2, 17089, Note_on_c, 9, 42, 0
2, 17089, Note_on_c, 9, 38, 0
2, 17136, Note_on_c, 9, 42, 60
2, 17137, Note_on_c, 9, 42, 0
2, 17232, Note_on_c, 9, 36, 127
2, 17233, Note_on_c, 9, 36, 0
2, 17280, Note_on_c, 9, 44, 60
2, 17281, Note_on_c, 9, 44, 0
2, 17424, Note_on_c, 9, 36, 110
2, 17424, Note_on_c, 9, 44, 60
2, 17425, Note_on_c, 9, 44, 0
2, 17425, Note_on_c, 9, 36, 0
2, 17472, Note_on_c, 9, 38, 110
2, 17472, Note_on_c, 9, 47, 100
2, 17472, Note_on_c, 9, 54, 110
2, 17473, Note_on_c, 9, 54, 0
2, 17473, Note_on_c, 9, 47, 0
2, 17473, Note_on_c, 9, 38, 0
2, 17481, Note_on_c, 9, 47, 100
2, 17482, Note_on_c, 9, 47, 0
2, 17520, Note_on_c, 9, 45, 100
2, 17521, Note_on_c, 9, 45, 0
2, 17568, Note_on_c, 9, 43, 100
2, 17569, Note_on_c, 9, 43, 0
2, 17573, Note_on_c, 9, 41, 100
2, 17574, Note_on_c, 9, 41, 0
2, 17664, Note_on_c, 9, 36, 127
2, 17664, Note_on_c, 9, 49, 87
2, 17664, Note_on_c, 9, 42, 60
2, 17665, Note_on_c, 9, 42, 0
2, 17665, Note_on_c, 9, 49, 0
2, 17665, Note_on_c, 9, 36, 0
2, 17712, Note_on_c, 9, 42, 60
2, 17713, Note_on_c, 9, 42, 0
2, 17760, Note_on_c, 9, 42, 60
2, 17761, Note_on_c, 9, 42, 0
2, 17808, Note_on_c, 9, 42, 60
2, 17809, Note_on_c, 9, 42, 0
2, 17856, Note_on_c, 9, 38, 110
2, 17856, Note_on_c, 9, 42, 60
2, 17856, Note_on_c, 9, 54, 110
2, 17857, Note_on_c, 9, 54, 0
2, 17857, Note_on_c, 9, 42, 0
2, 17857, Note_on_c, 9, 38, 0
2, 17904, Note_on_c, 9, 44, 60
2, 17905, Note_on_c, 9, 44, 0
2, 17952, Note_on_c, 9, 44, 60
2, 17953, Note_on_c, 9, 44, 0
2, 18000, Note_on_c, 9, 36, 127
2, 18000, Note_on_c, 9, 42, 60
2, 18001, Note_on_c, 9, 42, 0
2, 18001, Note_on_c, 9, 36, 0
2, 18048, Note_on_c, 9, 36, 127
2, 18049, Note_on_c, 9, 36, 0
2, 18096, Note_on_c, 9, 46, 60
2, 18097, Note_on_c, 9, 46, 0
2, 18144, Note_on_c, 9, 42, 60
2, 18145, Note_on_c, 9, 42, 0
2, 18192, Note_on_c, 9, 42, 60
2, 18193, Note_on_c, 9, 42, 0
2, 18240, Note_on_c, 9, 38, 110
2, 18240, Note_on_c, 9, 44, 60
2, 18240, Note_on_c, 9, 54, 110
2, 18241, Note_on_c, 9, 54, 0
2, 18241, Note_on_c, 9, 44, 0
2, 18241, Note_on_c, 9, 38, 0
2, 18288, Note_on_c, 9, 44, 60
2, 18289, Note_on_c, 9, 44, 0
2, 18336, Note_on_c, 9, 44, 60
2, 18337, Note_on_c, 9, 44, 0
2, 18384, Note_on_c, 9, 44, 60
2, 18385, Note_on_c, 9, 44, 0
2, 18432, Note_on_c, 9, 36, 127
2, 18432, Note_on_c, 9, 42, 60
2, 18433, Note_on_c, 9, 42, 0
2, 18433, Note_on_c, 9, 36, 0
2, 18528, Note_on_c, 9, 42, 60
2, 18529, Note_on_c, 9, 42, 0
2, 18624, Note_on_c, 9, 38, 110
2, 18624, Note_on_c, 9, 44, 60
2, 18624, Note_on_c, 9, 54, 110
2, 18625, Note_on_c, 9, 54, 0
2, 18625, Note_on_c, 9, 44, 0
2, 18625, Note_on_c, 9, 38, 0
2, 18720, Note_on_c, 9, 42, 60
2, 18721, Note_on_c, 9, 42, 0
2, 18768, Note_on_c, 9, 36, 127
2, 18769, Note_on_c, 9, 36, 0
2, 18816, Note_on_c, 9, 36, 127
2, 18816, Note_on_c, 9, 42, 60
2, 18817, Note_on_c, 9, 42, 0
2, 18817, Note_on_c, 9, 36, 0
2, 18864, Note_on_c, 9, 42, 60
2, 18865, Note_on_c, 9, 42, 0
2, 18912, Note_on_c, 9, 46, 60
2, 18913, Note_on_c, 9, 46, 0
2, 18960, Note_on_c, 9, 42, 60
2, 18961, Note_on_c, 9, 42, 0
2, 19008, Note_on_c, 9, 38, 110
2, 19008, Note_on_c, 9, 44, 60
2, 19008, Note_on_c, 9, 54, 110
2, 19009, Note_on_c, 9, 54, 0
2, 19009, Note_on_c, 9, 44, 0
2, 19009, Note_on_c, 9, 38, 0
2, 19056, Note_on_c, 9, 44, 60
2, 19057, Note_on_c, 9, 44, 0
2, 19104, Note_on_c, 9, 42, 60
2, 19105, Note_on_c, 9, 42, 0
2, 19152, Note_on_c, 9, 46, 60
2, 19153, Note_on_c, 9, 46, 0
2, 19200, Note_on_c, 9, 36, 127
2, 19200, Note_on_c, 9, 44, 60
2, 19201, Note_on_c, 9, 44, 0
2, 19201, Note_on_c, 9, 36, 0
2, 19296, Note_on_c, 9, 44, 60
2, 19297, Note_on_c, 9, 44, 0
2, 19392, Note_on_c, 9, 38, 110
2, 19392, Note_on_c, 9, 42, 60
2, 19392, Note_on_c, 9, 54, 110
2, 19393, Note_on_c, 9, 54, 0
2, 19393, Note_on_c, 9, 42, 0
2, 19393, Note_on_c, 9, 38, 0
2, 19488, Note_on_c, 9, 42, 60
2, 19489, Note_on_c, 9, 42, 0
2, 19536, Note_on_c, 9, 36, 127
2, 19536, Note_on_c, 9, 42, 60
2, 19537, Note_on_c, 9, 42, 0
2, 19537, Note_on_c, 9, 36, 0
2, 19584, Note_on_c, 9, 36, 127
2, 19585, Note_on_c, 9, 36, 0
2, 19632, Note_on_c, 9, 42, 60
2, 19633, Note_on_c, 9, 42, 0
2, 19728, Note_on_c, 9, 42, 60
2, 19729, Note_on_c, 9, 42, 0
2, 19776, Note_on_c, 9, 38, 110
2, 19776, Note_on_c, 9, 42, 60
2, 19776, Note_on_c, 9, 54, 110
2, 19777, Note_on_c, 9, 54, 0
2, 19777, Note_on_c, 9, 42, 0
2, 19777, Note_on_c, 9, 38, 0
2, 19824, Note_on_c, 9, 44, 60
2, 19825, Note_on_c, 9, 44, 0
2, 19872, Note_on_c, 9, 44, 60
2, 19873, Note_on_c, 9, 44, 0
2, 19920, Note_on_c, 9, 36, 127
2, 19921, Note_on_c, 9, 36, 0
2, 19968, Note_on_c, 9, 36, 127
2, 19968, Note_on_c, 9, 42, 60
2, 19969, Note_on_c, 9, 42, 0
2, 19969, Note_on_c, 9, 36, 0
2, 20064, Note_on_c, 9, 42, 60
2, 20065, Note_on_c, 9, 42, 0
2, 20160, Note_on_c, 9, 38, 110
2, 20160, Note_on_c, 9, 44, 60
2, 20160, Note_on_c, 9, 54, 110
2, 20161, Note_on_c, 9, 54, 0
2, 20161, Note_on_c, 9, 44, 0
2, 20161, Note_on_c, 9, 38, 0
2, 20256, Note_on_c, 9, 42, 60
2, 20257, Note_on_c, 9, 42, 0
2, 20304, Note_on_c, 9, 36, 127
2, 20305, Note_on_c, 9, 36, 0
2, 20352, Note_on_c, 9, 36, 127
2, 20352, Note_on_c, 9, 42, 60
2, 20353, Note_on_c, 9, 42, 0
2, 20353, Note_on_c, 9, 36, 0
2, 20400, Note_on_c, 9, 42, 60
2, 20401, Note_on_c, 9, 42, 0
2, 20448, Note_on_c, 9, 46, 60
2, 20449, Note_on_c, 9, 46, 0
2, 20496, Note_on_c, 9, 42, 60
2, 20497, Note_on_c, 9, 42, 0
2, 20544, Note_on_c, 9, 38, 110
2, 20544, Note_on_c, 9, 44, 60
2, 20544, Note_on_c, 9, 54, 110
2, 20545, Note_on_c, 9, 54, 0
2, 20545, Note_on_c, 9, 44, 0
2, 20545, Note_on_c, 9, 38, 0
2, 20592, Note_on_c, 9, 44, 60
2, 20593, Note_on_c, 9, 44, 0
2, 20640, Note_on_c, 9, 42, 60
2, 20641, Note_on_c, 9, 42, 0
2, 20688, Note_on_c, 9, 44, 60
2, 20688, Note_on_c, 9, 36, 100
2, 20689, Note_on_c, 9, 36, 0
2, 20689, Note_on_c, 9, 44, 0
2, 20736, Note_on_c, 9, 36, 127
2, 20736, Note_on_c, 9, 42, 60
2, 20736, Note_on_c, 9, 55, 83
2, 20737, Note_on_c, 9, 55, 0
2, 20737, Note_on_c, 9, 42, 0
2, 20737, Note_on_c, 9, 36, 0
2, 20832, Note_on_c, 9, 42, 60
2, 20833, Note_on_c, 9, 42, 0
2, 20880, Note_on_c, 9, 42, 60
2, 20881, Note_on_c, 9, 42, 0
2, 20928, Note_on_c, 9, 46, 60
2, 20929, Note_on_c, 9, 46, 0
2, 21024, Note_on_c, 9, 42, 60
2, 21025, Note_on_c, 9, 42, 0
2, 21072, Note_on_c, 9, 36, 60
2, 21073, Note_on_c, 9, 36, 0
2, 21120, Note_on_c, 9, 36, 127
2, 21120, Note_on_c, 9, 42, 70
2, 21121, Note_on_c, 9, 42, 0
2, 21121, Note_on_c, 9, 36, 0
2, 21168, Note_on_c, 9, 44, 100
2, 21169, Note_on_c, 9, 44, 0
2, 21216, Note_on_c, 9, 48, 100
2, 21217, Note_on_c, 9, 48, 0
2, 21226, Note_on_c, 9, 48, 100
2, 21227, Note_on_c, 9, 48, 0
2, 21264, Note_on_c, 9, 47, 100
2, 21265, Note_on_c, 9, 47, 0
2, 21360, Note_on_c, 9, 45, 100
2, 21361, Note_on_c, 9, 45, 0
2, 21408, Note_on_c, 9, 41, 100
2, 21408, Note_on_c, 9, 51, 100
2, 21409, Note_on_c, 9, 51, 0
2, 21409, Note_on_c, 9, 41, 0
2, 21504, Note_on_c, 9, 36, 127
2, 21504, Note_on_c, 9, 42, 60
2, 21504, Note_on_c, 9, 49, 85
2, 21505, Note_on_c, 9, 49, 0
2, 21505, Note_on_c, 9, 42, 0
2, 21505, Note_on_c, 9, 36, 0
2, 21696, Note_on_c, 9, 37, 113
2, 21696, Note_on_c, 9, 42, 60
2, 21697, Note_on_c, 9, 42, 0
2, 21697, Note_on_c, 9, 37, 0
2, 21840, Note_on_c, 9, 36, 100
2, 21841, Note_on_c, 9, 36, 0
2, 21888, Note_on_c, 9, 36, 127
2, 21888, Note_on_c, 9, 42, 60
2, 21889, Note_on_c, 9, 42, 0
2, 21889, Note_on_c, 9, 36, 0
2, 22032, Note_on_c, 9, 42, 60
2, 22033, Note_on_c, 9, 42, 0
2, 22080, Note_on_c, 9, 37, 115
2, 22080, Note_on_c, 9, 42, 60
2, 22080, Note_on_c, 9, 54, 107
2, 22081, Note_on_c, 9, 54, 0
2, 22081, Note_on_c, 9, 42, 0
2, 22081, Note_on_c, 9, 37, 0
2, 22224, Note_on_c, 9, 36, 127
2, 22225, Note_on_c, 9, 36, 0
2, 22272, Note_on_c, 9, 36, 127
2, 22272, Note_on_c, 9, 42, 60
2, 22273, Note_on_c, 9, 42, 0
2, 22273, Note_on_c, 9, 36, 0
2, 22464, Note_on_c, 9, 37, 118
2, 22464, Note_on_c, 9, 42, 60
2, 22465, Note_on_c, 9, 42, 0
2, 22465, Note_on_c, 9, 37, 0
2, 22560, Note_on_c, 9, 42, 60
2, 22561, Note_on_c, 9, 42, 0
2, 22608, Note_on_c, 9, 36, 127
2, 22609, Note_on_c, 9, 36, 0
2, 22656, Note_on_c, 9, 36, 127
2, 22657, Note_on_c, 9, 36, 0
2, 22752, Note_on_c, 9, 42, 60
2, 22753, Note_on_c, 9, 42, 0
2, 22848, Note_on_c, 9, 42, 60
2, 22848, Note_on_c, 9, 54, 108
2, 22849, Note_on_c, 9, 54, 0
2, 22849, Note_on_c, 9, 42, 0
2, 22992, Note_on_c, 9, 42, 60
2, 22993, Note_on_c, 9, 42, 0
2, 23040, Note_on_c, 9, 36, 127
2, 23040, Note_on_c, 9, 42, 60
2, 23041, Note_on_c, 9, 42, 0
2, 23041, Note_on_c, 9, 36, 0
2, 23232, Note_on_c, 9, 37, 113
2, 23232, Note_on_c, 9, 42, 60
2, 23232, Note_on_c, 9, 54, 110
2, 23233, Note_on_c, 9, 54, 0
2, 23233, Note_on_c, 9, 42, 0
2, 23233, Note_on_c, 9, 37, 0
2, 23376, Note_on_c, 9, 36, 100
2, 23377, Note_on_c, 9, 36, 0
2, 23424, Note_on_c, 9, 36, 127
2, 23424, Note_on_c, 9, 42, 60
2, 23425, Note_on_c, 9, 42, 0
2, 23425, Note_on_c, 9, 36, 0
2, 23568, Note_on_c, 9, 42, 60
2, 23569, Note_on_c, 9, 42, 0
2, 23616, Note_on_c, 9, 37, 115
2, 23616, Note_on_c, 9, 42, 60
2, 23616, Note_on_c, 9, 54, 107
2, 23617, Note_on_c, 9, 54, 0
2, 23617, Note_on_c, 9, 42, 0
2, 23617, Note_on_c, 9, 37, 0
2, 23760, Note_on_c, 9, 36, 127
2, 23761, Note_on_c, 9, 36, 0
2, 23808, Note_on_c, 9, 36, 127
2, 23808, Note_on_c, 9, 42, 60
2, 23809, Note_on_c, 9, 42, 0
2, 23809, Note_on_c, 9, 36, 0
2, 24000, Note_on_c, 9, 37, 118
2, 24000, Note_on_c, 9, 42, 60
2, 24001, Note_on_c, 9, 42, 0
2, 24001, Note_on_c, 9, 37, 0
2, 24096, Note_on_c, 9, 42, 60
2, 24097, Note_on_c, 9, 42, 0
2, 24192, Note_on_c, 9, 36, 127
2, 24193, Note_on_c, 9, 36, 0
2, 24288, Note_on_c, 9, 42, 60
2, 24289, Note_on_c, 9, 42, 0
2, 24336, Note_on_c, 9, 36, 110
2, 24337, Note_on_c, 9, 36, 0
2, 24384, Note_on_c, 9, 42, 60
2, 24384, Note_on_c, 9, 54, 108
2, 24384, Note_on_c, 9, 38, 110
2, 24384, Note_on_c, 9, 40, 110
2, 24385, Note_on_c, 9, 40, 0
2, 24385, Note_on_c, 9, 42, 0
2, 24385, Note_on_c, 9, 54, 0
2, 24385, Note_on_c, 9, 38, 0
2, 24480, Note_on_c, 9, 51, 85
2, 24481, Note_on_c, 9, 51, 0
2, 24507, Note_on_c, 9, 51, 94
2, 24508, Note_on_c, 9, 51, 0
2, 24528, Note_on_c, 9, 42, 60
2, 24528, Note_on_c, 9, 51, 99
2, 24529, Note_on_c, 9, 51, 0
2, 24529, Note_on_c, 9, 42, 0
2, 24576, Note_on_c, 9, 36, 127
2, 24576, Note_on_c, 9, 42, 60
2, 24576, Note_on_c, 9, 51, 110
2, 24577, Note_on_c, 9, 51, 0
2, 24577, Note_on_c, 9, 42, 0
2, 24577, Note_on_c, 9, 36, 0
2, 24768, Note_on_c, 9, 37, 113
2, 24768, Note_on_c, 9, 42, 60
2, 24769, Note_on_c, 9, 42, 0
2, 24769, Note_on_c, 9, 37, 0
2, 24912, Note_on_c, 9, 36, 100
2, 24913, Note_on_c, 9, 36, 0
2, 24960, Note_on_c, 9, 36, 127
2, 24960, Note_on_c, 9, 42, 60
2, 24961, Note_on_c, 9, 42, 0
2, 24961, Note_on_c, 9, 36, 0
2, 25104, Note_on_c, 9, 42, 60
2, 25105, Note_on_c, 9, 42, 0
2, 25152, Note_on_c, 9, 37, 115
2, 25152, Note_on_c, 9, 42, 60
2, 25152, Note_on_c, 9, 54, 107
2, 25153, Note_on_c, 9, 54, 0
2, 25153, Note_on_c, 9, 42, 0
2, 25153, Note_on_c, 9, 37, 0
2, 25296, Note_on_c, 9, 36, 127
2, 25297, Note_on_c, 9, 36, 0
2, 25344, Note_on_c, 9, 36, 127
2, 25344, Note_on_c, 9, 42, 60
2, 25345, Note_on_c, 9, 42, 0
2, 25345, Note_on_c, 9, 36, 0
2, 25536, Note_on_c, 9, 37, 118
2, 25536, Note_on_c, 9, 42, 60
2, 25537, Note_on_c, 9, 42, 0
2, 25537, Note_on_c, 9, 37, 0
2, 25632, Note_on_c, 9, 42, 60
2, 25633, Note_on_c, 9, 42, 0
2, 25680, Note_on_c, 9, 36, 127
2, 25681, Note_on_c, 9, 36, 0
2, 25728, Note_on_c, 9, 36, 127
2, 25729, Note_on_c, 9, 36, 0
2, 25824, Note_on_c, 9, 42, 60
2, 25825, Note_on_c, 9, 42, 0
2, 25920, Note_on_c, 9, 42, 60
2, 25920, Note_on_c, 9, 54, 108
2, 25921, Note_on_c, 9, 54, 0
2, 25921, Note_on_c, 9, 42, 0
2, 26064, Note_on_c, 9, 42, 60
2, 26065, Note_on_c, 9, 42, 0
2, 26112, Note_on_c, 9, 36, 127
2, 26112, Note_on_c, 9, 42, 60
2, 26113, Note_on_c, 9, 42, 0
2, 26113, Note_on_c, 9, 36, 0
2, 26304, Note_on_c, 9, 37, 113
2, 26304, Note_on_c, 9, 42, 60
2, 26304, Note_on_c, 9, 54, 110
2, 26305, Note_on_c, 9, 54, 0
2, 26305, Note_on_c, 9, 42, 0
2, 26305, Note_on_c, 9, 37, 0
2, 26448, Note_on_c, 9, 36, 100
2, 26449, Note_on_c, 9, 36, 0
2, 26496, Note_on_c, 9, 36, 127
2, 26496, Note_on_c, 9, 42, 60
2, 26497, Note_on_c, 9, 42, 0
2, 26497, Note_on_c, 9, 36, 0
2, 26640, Note_on_c, 9, 42, 60
2, 26641, Note_on_c, 9, 42, 0
2, 26688, Note_on_c, 9, 37, 115
2, 26688, Note_on_c, 9, 42, 60
2, 26688, Note_on_c, 9, 54, 107
2, 26689, Note_on_c, 9, 54, 0
2, 26689, Note_on_c, 9, 42, 0
2, 26689, Note_on_c, 9, 37, 0
2, 26832, Note_on_c, 9, 36, 127
2, 26833, Note_on_c, 9, 36, 0
2, 26880, Note_on_c, 9, 36, 127
2, 26880, Note_on_c, 9, 42, 60
2, 26881, Note_on_c, 9, 42, 0
2, 26881, Note_on_c, 9, 36, 0
2, 27072, Note_on_c, 9, 37, 118
2, 27072, Note_on_c, 9, 42, 60
2, 27073, Note_on_c, 9, 42, 0
2, 27073, Note_on_c, 9, 37, 0
2, 27168, Note_on_c, 9, 42, 60
2, 27169, Note_on_c, 9, 42, 0
2, 27264, Note_on_c, 9, 36, 127
2, 27265, Note_on_c, 9, 36, 0
2, 27360, Note_on_c, 9, 42, 60
2, 27361, Note_on_c, 9, 42, 0
2, 27408, Note_on_c, 9, 36, 110
2, 27409, Note_on_c, 9, 36, 0
2, 27456, Note_on_c, 9, 42, 60
2, 27456, Note_on_c, 9, 54, 108
2, 27456, Note_on_c, 9, 38, 110
2, 27456, Note_on_c, 9, 40, 110
2, 27457, Note_on_c, 9, 40, 0
2, 27457, Note_on_c, 9, 42, 0
2, 27457, Note_on_c, 9, 54, 0
2, 27457, Note_on_c, 9, 38, 0
2, 27600, Note_on_c, 9, 42, 60
2, 27601, Note_on_c, 9, 42, 0
2, 27648, Note_on_c, 9, 36, 127
2, 27648, Note_on_c, 9, 42, 60
2, 27649, Note_on_c, 9, 42, 0
2, 27649, Note_on_c, 9, 36, 0
2, 27840, Note_on_c, 9, 42, 60
2, 27840, Note_on_c, 9, 38, 113
2, 27841, Note_on_c, 9, 38, 0
2, 27841, Note_on_c, 9, 42, 0
2, 27984, Note_on_c, 9, 36, 100
2, 27985, Note_on_c, 9, 36, 0
2, 28032, Note_on_c, 9, 36, 127
2, 28032, Note_on_c, 9, 42, 60
2, 28033, Note_on_c, 9, 42, 0
2, 28033, Note_on_c, 9, 36, 0
2, 28176, Note_on_c, 9, 42, 60
2, 28177, Note_on_c, 9, 42, 0
2, 28224, Note_on_c, 9, 42, 60
2, 28224, Note_on_c, 9, 54, 107
2, 28224, Note_on_c, 9, 38, 115
2, 28225, Note_on_c, 9, 38, 0
2, 28225, Note_on_c, 9, 54, 0
2, 28225, Note_on_c, 9, 42, 0
2, 28368, Note_on_c, 9, 36, 127
2, 28369, Note_on_c, 9, 36, 0
2, 28416, Note_on_c, 9, 36, 127
2, 28416, Note_on_c, 9, 42, 60
2, 28417, Note_on_c, 9, 42, 0
2, 28417, Note_on_c, 9, 36, 0
2, 28608, Note_on_c, 9, 42, 60
2, 28608, Note_on_c, 9, 38, 118
2, 28609, Note_on_c, 9, 38, 0
2, 28609, Note_on_c, 9, 42, 0
2, 28704, Note_on_c, 9, 42, 60
2, 28705, Note_on_c, 9, 42, 0
2, 28752, Note_on_c, 9, 36, 127
2, 28753, Note_on_c, 9, 36, 0
2, 28800, Note_on_c, 9, 36, 127
2, 28801, Note_on_c, 9, 36, 0
2, 28896, Note_on_c, 9, 42, 60
2, 28897, Note_on_c, 9, 42, 0
2, 28992, Note_on_c, 9, 42, 60
2, 28992, Note_on_c, 9, 54, 108
2, 28992, Note_on_c, 9, 38, 118
2, 28993, Note_on_c, 9, 38, 0
2, 28993, Note_on_c, 9, 54, 0
2, 28993, Note_on_c, 9, 42, 0
2, 29136, Note_on_c, 9, 42, 60
2, 29137, Note_on_c, 9, 42, 0
2, 29184, Note_on_c, 9, 36, 127
2, 29184, Note_on_c, 9, 42, 60
2, 29185, Note_on_c, 9, 42, 0
2, 29185, Note_on_c, 9, 36, 0
2, 29328, Note_on_c, 9, 42, 60
2, 29329, Note_on_c, 9, 42, 0
2, 29376, Note_on_c, 9, 42, 60
2, 29376, Note_on_c, 9, 38, 120
2, 29377, Note_on_c, 9, 38, 0
2, 29377, Note_on_c, 9, 42, 0
2, 29520, Note_on_c, 9, 36, 127
2, 29521, Note_on_c, 9, 36, 0
2, 29568, Note_on_c, 9, 36, 127
2, 29568, Note_on_c, 9, 42, 60
2, 29569, Note_on_c, 9, 42, 0
2, 29569, Note_on_c, 9, 36, 0
2, 29664, Note_on_c, 9, 42, 60
2, 29665, Note_on_c, 9, 42, 0
2, 29760, Note_on_c, 9, 42, 60
2, 29760, Note_on_c, 9, 54, 106
2, 29760, Note_on_c, 9, 38, 120
2, 29761, Note_on_c, 9, 38, 0
2, 29761, Note_on_c, 9, 54, 0
2, 29761, Note_on_c, 9, 42, 0
2, 29856, Note_on_c, 9, 42, 60
2, 29857, Note_on_c, 9, 42, 0
2, 29952, Note_on_c, 9, 36, 127
2, 29952, Note_on_c, 9, 42, 60
2, 29953, Note_on_c, 9, 42, 0
2, 29953, Note_on_c, 9, 36, 0
2, 30048, Note_on_c, 9, 42, 60
2, 30049, Note_on_c, 9, 42, 0
2, 30144, Note_on_c, 9, 42, 60
2, 30144, Note_on_c, 9, 38, 120
2, 30145, Note_on_c, 9, 38, 0
2, 30145, Note_on_c, 9, 42, 0
2, 30192, Note_on_c, 9, 44, 65
2, 30193, Note_on_c, 9, 44, 0
2, 30240, Note_on_c, 9, 44, 72
2, 30241, Note_on_c, 9, 44, 0
2, 30288, Note_on_c, 9, 36, 127
2, 30288, Note_on_c, 9, 42, 50
2, 30289, Note_on_c, 9, 42, 0
2, 30289, Note_on_c, 9, 36, 0
2, 30336, Note_on_c, 9, 36, 127
2, 30336, Note_on_c, 9, 42, 60
2, 30337, Note_on_c, 9, 42, 0
2, 30337, Note_on_c, 9, 36, 0
2, 30432, Note_on_c, 9, 44, 80
2, 30433, Note_on_c, 9, 44, 0
2, 30480, Note_on_c, 9, 44, 77
2, 30481, Note_on_c, 9, 44, 0
2, 30528, Note_on_c, 9, 46, 60
2, 30528, Note_on_c, 9, 40, 112
2, 30528, Note_on_c, 9, 38, 120
2, 30529, Note_on_c, 9, 38, 0
2, 30529, Note_on_c, 9, 40, 0
2, 30529, Note_on_c, 9, 46, 0
2, 30624, Note_on_c, 9, 42, 60
2, 30625, Note_on_c, 9, 42, 0
2, 30672, Note_on_c, 9, 36, 116
2, 30673, Note_on_c, 9, 36, 0
2, 30720, Note_on_c, 9, 36, 127
2, 30720, Note_on_c, 9, 42, 65
2, 30721, Note_on_c, 9, 42, 0
2, 30721, Note_on_c, 9, 36, 0
2, 30816, Note_on_c, 9, 42, 65
2, 30816, Note_on_c, 9, 38, 115
2, 30817, Note_on_c, 9, 38, 0
2, 30817, Note_on_c, 9, 42, 0
2, 30875, Note_on_c, 9, 38, 91
2, 30876, Note_on_c, 9, 38, 0
2, 30877, Note_on_c, 9, 38, 114
2, 30878, Note_on_c, 9, 38, 0
2, 30912, Note_on_c, 9, 46, 65
2, 30912, Note_on_c, 9, 38, 91
2, 30913, Note_on_c, 9, 38, 0
2, 30913, Note_on_c, 9, 46, 0
2, 31008, Note_on_c, 9, 42, 65
2, 31008, Note_on_c, 9, 47, 115
2, 31009, Note_on_c, 9, 47, 0
2, 31009, Note_on_c, 9, 42, 0
2, 31104, Note_on_c, 9, 45, 100
2, 31105, Note_on_c, 9, 45, 0
2, 31118, Note_on_c, 9, 45, 100
2, 31119, Note_on_c, 9, 45, 0
2, 31190, Note_on_c, 9, 41, 100
2, 31191, Note_on_c, 9, 41, 0
2, 31200, Note_on_c, 9, 43, 100
2, 31201, Note_on_c, 9, 43, 0
2, 31296, Note_on_c, 9, 41, 100
2, 31297, Note_on_c, 9, 41, 0
2, 31488, Note_on_c, 9, 36, 127
2, 31488, Note_on_c, 9, 49, 87
2, 31488, Note_on_c, 9, 42, 60
2, 31489, Note_on_c, 9, 42, 0
2, 31489, Note_on_c, 9, 49, 0
2, 31489, Note_on_c, 9, 36, 0
2, 31536, Note_on_c, 9, 42, 60
2, 31537, Note_on_c, 9, 42, 0
2, 31584, Note_on_c, 9, 42, 60
2, 31585, Note_on_c, 9, 42, 0
2, 31632, Note_on_c, 9, 42, 60
2, 31633, Note_on_c, 9, 42, 0
2, 31680, Note_on_c, 9, 38, 110
2, 31680, Note_on_c, 9, 42, 60
2, 31680, Note_on_c, 9, 54, 110
2, 31681, Note_on_c, 9, 54, 0
2, 31681, Note_on_c, 9, 42, 0
2, 31681, Note_on_c, 9, 38, 0
2, 31728, Note_on_c, 9, 44, 60
2, 31729, Note_on_c, 9, 44, 0
2, 31776, Note_on_c, 9, 44, 60
2, 31777, Note_on_c, 9, 44, 0
2, 31824, Note_on_c, 9, 36, 127
2, 31824, Note_on_c, 9, 42, 60
2, 31825, Note_on_c, 9, 42, 0
2, 31825, Note_on_c, 9, 36, 0
2, 31872, Note_on_c, 9, 36, 127
2, 31873, Note_on_c, 9, 36, 0
2, 31920, Note_on_c, 9, 46, 60
2, 31921, Note_on_c, 9, 46, 0
2, 31968, Note_on_c, 9, 42, 60
2, 31969, Note_on_c, 9, 42, 0
2, 32016, Note_on_c, 9, 42, 60
2, 32017, Note_on_c, 9, 42, 0
2, 32064, Note_on_c, 9, 38, 110
2, 32064, Note_on_c, 9, 44, 60
2, 32064, Note_on_c, 9, 54, 110
2, 32065, Note_on_c, 9, 54, 0
2, 32065, Note_on_c, 9, 44, 0
2, 32065, Note_on_c, 9, 38, 0
2, 32112, Note_on_c, 9, 44, 60
2, 32113, Note_on_c, 9, 44, 0
2, 32160, Note_on_c, 9, 44, 60
2, 32161, Note_on_c, 9, 44, 0
2, 32208, Note_on_c, 9, 44, 60
2, 32209, Note_on_c, 9, 44, 0
2, 32256, Note_on_c, 9, 36, 127
2, 32256, Note_on_c, 9, 42, 60
2, 32257, Note_on_c, 9, 42, 0
2, 32257, Note_on_c, 9, 36, 0
2, 32352, Note_on_c, 9, 42, 60
2, 32353, Note_on_c, 9, 42, 0
2, 32448, Note_on_c, 9, 38, 110
2, 32448, Note_on_c, 9, 44, 60
2, 32448, Note_on_c, 9, 54, 110
2, 32449, Note_on_c, 9, 54, 0
2, 32449, Note_on_c, 9, 44, 0
2, 32449, Note_on_c, 9, 38, 0
2, 32544, Note_on_c, 9, 42, 60
2, 32545, Note_on_c, 9, 42, 0
2, 32592, Note_on_c, 9, 36, 127
2, 32593, Note_on_c, 9, 36, 0
2, 32640, Note_on_c, 9, 36, 127
2, 32640, Note_on_c, 9, 42, 60
2, 32641, Note_on_c, 9, 42, 0
2, 32641, Note_on_c, 9, 36, 0
2, 32688, Note_on_c, 9, 42, 60
2, 32689, Note_on_c, 9, 42, 0
2, 32736, Note_on_c, 9, 46, 60
2, 32737, Note_on_c, 9, 46, 0
2, 32784, Note_on_c, 9, 42, 60
2, 32785, Note_on_c, 9, 42, 0
2, 32832, Note_on_c, 9, 38, 110
2, 32832, Note_on_c, 9, 44, 60
2, 32832, Note_on_c, 9, 54, 110
2, 32833, Note_on_c, 9, 54, 0
2, 32833, Note_on_c, 9, 44, 0
2, 32833, Note_on_c, 9, 38, 0
2, 32880, Note_on_c, 9, 44, 60
2, 32881, Note_on_c, 9, 44, 0
2, 32928, Note_on_c, 9, 42, 60
2, 32929, Note_on_c, 9, 42, 0
2, 32976, Note_on_c, 9, 46, 60
2, 32977, Note_on_c, 9, 46, 0
2, 33024, Note_on_c, 9, 36, 127
2, 33024, Note_on_c, 9, 44, 60
2, 33025, Note_on_c, 9, 44, 0
2, 33025, Note_on_c, 9, 36, 0
2, 33120, Note_on_c, 9, 44, 60
2, 33121, Note_on_c, 9, 44, 0
2, 33216, Note_on_c, 9, 38, 110
2, 33216, Note_on_c, 9, 42, 60
2, 33216, Note_on_c, 9, 54, 110
2, 33217, Note_on_c, 9, 54, 0
2, 33217, Note_on_c, 9, 42, 0
2, 33217, Note_on_c, 9, 38, 0
2, 33312, Note_on_c, 9, 42, 60
2, 33313, Note_on_c, 9, 42, 0
2, 33360, Note_on_c, 9, 36, 127
2, 33360, Note_on_c, 9, 42, 60
2, 33361, Note_on_c, 9, 42, 0
2, 33361, Note_on_c, 9, 36, 0
2, 33408, Note_on_c, 9, 36, 127
2, 33409, Note_on_c, 9, 36, 0
2, 33456, Note_on_c, 9, 42, 60
2, 33457, Note_on_c, 9, 42, 0
2, 33552, Note_on_c, 9, 42, 60
2, 33553, Note_on_c, 9, 42, 0
2, 33600, Note_on_c, 9, 38, 110
2, 33600, Note_on_c, 9, 42, 60
2, 33600, Note_on_c, 9, 54, 110
2, 33601, Note_on_c, 9, 54, 0
2, 33601, Note_on_c, 9, 42, 0
2, 33601, Note_on_c, 9, 38, 0
2, 33648, Note_on_c, 9, 44, 60
2, 33649, Note_on_c, 9, 44, 0
2, 33696, Note_on_c, 9, 44, 60
2, 33697, Note_on_c, 9, 44, 0
2, 33744, Note_on_c, 9, 36, 127
2, 33745, Note_on_c, 9, 36, 0
2, 33792, Note_on_c, 9, 36, 127
2, 33792, Note_on_c, 9, 42, 60
2, 33793, Note_on_c, 9, 42, 0
2, 33793, Note_on_c, 9, 36, 0
2, 33888, Note_on_c, 9, 42, 60
2, 33889, Note_on_c, 9, 42, 0
2, 33984, Note_on_c, 9, 38, 110
2, 33984, Note_on_c, 9, 42, 60
2, 33984, Note_on_c, 9, 54, 110
2, 33985, Note_on_c, 9, 54, 0
2, 33985, Note_on_c, 9, 42, 0
2, 33985, Note_on_c, 9, 38, 0
2, 34032, Note_on_c, 9, 42, 60
2, 34033, Note_on_c, 9, 42, 0
2, 34128, Note_on_c, 9, 36, 127
2, 34129, Note_on_c, 9, 36, 0
2, 34176, Note_on_c, 9, 44, 60
2, 34177, Note_on_c, 9, 44, 0
2, 34320, Note_on_c, 9, 36, 110
2, 34320, Note_on_c, 9, 44, 60
2, 34321, Note_on_c, 9, 44, 0
2, 34321, Note_on_c, 9, 36, 0
2, 34368, Note_on_c, 9, 38, 110
2, 34368, Note_on_c, 9, 47, 100
2, 34368, Note_on_c, 9, 54, 110
2, 34369, Note_on_c, 9, 54, 0
2, 34369, Note_on_c, 9, 47, 0
2, 34369, Note_on_c, 9, 38, 0
2, 34377, Note_on_c, 9, 47, 100
2, 34378, Note_on_c, 9, 47, 0
2, 34416, Note_on_c, 9, 45, 100
2, 34417, Note_on_c, 9, 45, 0
2, 34464, Note_on_c, 9, 43, 100
2, 34465, Note_on_c, 9, 43, 0
2, 34469, Note_on_c, 9, 41, 100
2, 34470, Note_on_c, 9, 41, 0
2, 34560, Note_on_c, 9, 36, 127
2, 34560, Note_on_c, 9, 49, 87
2, 34560, Note_on_c, 9, 42, 60
2, 34561, Note_on_c, 9, 42, 0
2, 34561, Note_on_c, 9, 49, 0
2, 34561, Note_on_c, 9, 36, 0
2, 34608, Note_on_c, 9, 42, 60
2, 34609, Note_on_c, 9, 42, 0
2, 34656, Note_on_c, 9, 42, 60
2, 34657, Note_on_c, 9, 42, 0
2, 34704, Note_on_c, 9, 42, 60
2, 34705, Note_on_c, 9, 42, 0
2, 34752, Note_on_c, 9, 38, 110
2, 34752, Note_on_c, 9, 42, 60
2, 34752, Note_on_c, 9, 54, 110
2, 34753, Note_on_c, 9, 54, 0
2, 34753, Note_on_c, 9, 42, 0
2, 34753, Note_on_c, 9, 38, 0
2, 34800, Note_on_c, 9, 44, 60
2, 34801, Note_on_c, 9, 44, 0
2, 34848, Note_on_c, 9, 44, 60
2, 34849, Note_on_c, 9, 44, 0
2, 34896, Note_on_c, 9, 36, 127
2, 34896, Note_on_c, 9, 42, 60
2, 34897, Note_on_c, 9, 42, 0
2, 34897, Note_on_c, 9, 36, 0
2, 34944, Note_on_c, 9, 36, 127
2, 34945, Note_on_c, 9, 36, 0
2, 34992, Note_on_c, 9, 46, 60
2, 34993, Note_on_c, 9, 46, 0
2, 35040, Note_on_c, 9, 42, 60
2, 35041, Note_on_c, 9, 42, 0
2, 35088, Note_on_c, 9, 42, 60
2, 35089, Note_on_c, 9, 42, 0
2, 35136, Note_on_c, 9, 38, 110
2, 35136, Note_on_c, 9, 44, 60
2, 35136, Note_on_c, 9, 54, 110
2, 35137, Note_on_c, 9, 54, 0
2, 35137, Note_on_c, 9, 44, 0
2, 35137, Note_on_c, 9, 38, 0
2, 35184, Note_on_c, 9, 44, 60
2, 35185, Note_on_c, 9, 44, 0
2, 35232, Note_on_c, 9, 44, 60
2, 35233, Note_on_c, 9, 44, 0
2, 35280, Note_on_c, 9, 44, 60
2, 35281, Note_on_c, 9, 44, 0
2, 35328, Note_on_c, 9, 36, 127
2, 35328, Note_on_c, 9, 42, 60
2, 35329, Note_on_c, 9, 42, 0
2, 35329, Note_on_c, 9, 36, 0
2, 35424, Note_on_c, 9, 42, 60
2, 35425, Note_on_c, 9, 42, 0
2, 35520, Note_on_c, 9, 38, 110
2, 35520, Note_on_c, 9, 44, 60
2, 35520, Note_on_c, 9, 54, 110
2, 35521, Note_on_c, 9, 54, 0
2, 35521, Note_on_c, 9, 44, 0
2, 35521, Note_on_c, 9, 38, 0
2, 35616, Note_on_c, 9, 42, 60
2, 35617, Note_on_c, 9, 42, 0
2, 35664, Note_on_c, 9, 36, 127
2, 35665, Note_on_c, 9, 36, 0
2, 35712, Note_on_c, 9, 36, 127
2, 35712, Note_on_c, 9, 42, 60
2, 35713, Note_on_c, 9, 42, 0
2, 35713, Note_on_c, 9, 36, 0
2, 35760, Note_on_c, 9, 42, 60
2, 35761, Note_on_c, 9, 42, 0
2, 35808, Note_on_c, 9, 46, 60
2, 35809, Note_on_c, 9, 46, 0
2, 35856, Note_on_c, 9, 42, 60
2, 35857, Note_on_c, 9, 42, 0
2, 35904, Note_on_c, 9, 38, 110
2, 35904, Note_on_c, 9, 44, 60
2, 35904, Note_on_c, 9, 54, 110
2, 35905, Note_on_c, 9, 54, 0
2, 35905, Note_on_c, 9, 44, 0
2, 35905, Note_on_c, 9, 38, 0
2, 35952, Note_on_c, 9, 44, 60
2, 35953, Note_on_c, 9, 44, 0
2, 36000, Note_on_c, 9, 42, 60
2, 36001, Note_on_c, 9, 42, 0
2, 36048, Note_on_c, 9, 46, 60
2, 36049, Note_on_c, 9, 46, 0
2, 36096, Note_on_c, 9, 36, 127
2, 36096, Note_on_c, 9, 44, 60
2, 36097, Note_on_c, 9, 44, 0
2, 36097, Note_on_c, 9, 36, 0
2, 36192, Note_on_c, 9, 44, 60
2, 36193, Note_on_c, 9, 44, 0
2, 36288, Note_on_c, 9, 38, 110
2, 36288, Note_on_c, 9, 42, 60
2, 36288, Note_on_c, 9, 54, 110
2, 36289, Note_on_c, 9, 54, 0
2, 36289, Note_on_c, 9, 42, 0
2, 36289, Note_on_c, 9, 38, 0
2, 36384, Note_on_c, 9, 42, 60
2, 36385, Note_on_c, 9, 42, 0
2, 36432, Note_on_c, 9, 36, 127
2, 36432, Note_on_c, 9, 42, 60
2, 36433, Note_on_c, 9, 42, 0
2, 36433, Note_on_c, 9, 36, 0
2, 36480, Note_on_c, 9, 36, 127
2, 36481, Note_on_c, 9, 36, 0
2, 36528, Note_on_c, 9, 42, 60
2, 36529, Note_on_c, 9, 42, 0
2, 36624, Note_on_c, 9, 42, 60
2, 36625, Note_on_c, 9, 42, 0
2, 36672, Note_on_c, 9, 38, 110
2, 36672, Note_on_c, 9, 42, 60
2, 36672, Note_on_c, 9, 54, 110
2, 36673, Note_on_c, 9, 54, 0
2, 36673, Note_on_c, 9, 42, 0
2, 36673, Note_on_c, 9, 38, 0
2, 36720, Note_on_c, 9, 44, 60
2, 36721, Note_on_c, 9, 44, 0
2, 36768, Note_on_c, 9, 44, 60
2, 36769, Note_on_c, 9, 44, 0
2, 36816, Note_on_c, 9, 36, 127
2, 36817, Note_on_c, 9, 36, 0
2, 36864, Note_on_c, 9, 36, 127
2, 36864, Note_on_c, 9, 42, 60
2, 36865, Note_on_c, 9, 42, 0
2, 36865, Note_on_c, 9, 36, 0
2, 36960, Note_on_c, 9, 42, 60
2, 36961, Note_on_c, 9, 42, 0
2, 37008, Note_on_c, 9, 42, 60
2, 37009, Note_on_c, 9, 42, 0
2, 37056, Note_on_c, 9, 46, 60
2, 37056, Note_on_c, 9, 38, 110
2, 37057, Note_on_c, 9, 38, 0
2, 37057, Note_on_c, 9, 46, 0
2, 37152, Note_on_c, 9, 42, 60
2, 37153, Note_on_c, 9, 42, 0
2, 37200, Note_on_c, 9, 36, 60
2, 37201, Note_on_c, 9, 36, 0
2, 37248, Note_on_c, 9, 36, 127
2, 37248, Note_on_c, 9, 42, 70
2, 37249, Note_on_c, 9, 42, 0
2, 37249, Note_on_c, 9, 36, 0
2, 37296, Note_on_c, 9, 44, 100
2, 37297, Note_on_c, 9, 44, 0
2, 37344, Note_on_c, 9, 48, 100
2, 37345, Note_on_c, 9, 48, 0
2, 37354, Note_on_c, 9, 48, 100
2, 37355, Note_on_c, 9, 48, 0
2, 37392, Note_on_c, 9, 47, 100
2, 37393, Note_on_c, 9, 47, 0
2, 37488, Note_on_c, 9, 45, 100
2, 37489, Note_on_c, 9, 45, 0
2, 37536, Note_on_c, 9, 41, 100
2, 37536, Note_on_c, 9, 51, 100
2, 37537, Note_on_c, 9, 51, 0
2, 37537, Note_on_c, 9, 41, 0
2, 37632, Note_on_c, 9, 36, 127
2, 37632, Note_on_c, 9, 49, 87
2, 37632, Note_on_c, 9, 42, 60
2, 37633, Note_on_c, 9, 42, 0
2, 37633, Note_on_c, 9, 49, 0
2, 37633, Note_on_c, 9, 36, 0
2, 37680, Note_on_c, 9, 42, 60
2, 37681, Note_on_c, 9, 42, 0
2, 37728, Note_on_c, 9, 42, 60
2, 37729, Note_on_c, 9, 42, 0
2, 37776, Note_on_c, 9, 42, 60
2, 37777, Note_on_c, 9, 42, 0
2, 37824, Note_on_c, 9, 38, 110
2, 37824, Note_on_c, 9, 42, 60
2, 37824, Note_on_c, 9, 54, 110
2, 37825, Note_on_c, 9, 54, 0
2, 37825, Note_on_c, 9, 42, 0
2, 37825, Note_on_c, 9, 38, 0
2, 37872, Note_on_c, 9, 44, 60
2, 37873, Note_on_c, 9, 44, 0
2, 37920, Note_on_c, 9, 44, 60
2, 37921, Note_on_c, 9, 44, 0
2, 37968, Note_on_c, 9, 36, 127
2, 37968, Note_on_c, 9, 42, 60
2, 37969, Note_on_c, 9, 42, 0
2, 37969, Note_on_c, 9, 36, 0
2, 38016, Note_on_c, 9, 36, 127
2, 38017, Note_on_c, 9, 36, 0
2, 38064, Note_on_c, 9, 46, 60
2, 38065, Note_on_c, 9, 46, 0
2, 38112, Note_on_c, 9, 42, 60
2, 38113, Note_on_c, 9, 42, 0
2, 38160, Note_on_c, 9, 42, 60
2, 38161, Note_on_c, 9, 42, 0
2, 38208, Note_on_c, 9, 38, 110
2, 38208, Note_on_c, 9, 44, 60
2, 38208, Note_on_c, 9, 54, 110
2, 38209, Note_on_c, 9, 54, 0
2, 38209, Note_on_c, 9, 44, 0
2, 38209, Note_on_c, 9, 38, 0
2, 38256, Note_on_c, 9, 44, 60
2, 38257, Note_on_c, 9, 44, 0
2, 38304, Note_on_c, 9, 44, 60
2, 38305, Note_on_c, 9, 44, 0
2, 38352, Note_on_c, 9, 44, 60
2, 38353, Note_on_c, 9, 44, 0
2, 38400, Note_on_c, 9, 36, 127
2, 38400, Note_on_c, 9, 42, 60
2, 38401, Note_on_c, 9, 42, 0
2, 38401, Note_on_c, 9, 36, 0
2, 38496, Note_on_c, 9, 42, 60
2, 38497, Note_on_c, 9, 42, 0
2, 38592, Note_on_c, 9, 38, 110
2, 38592, Note_on_c, 9, 44, 60
2, 38592, Note_on_c, 9, 54, 110
2, 38593, Note_on_c, 9, 54, 0
2, 38593, Note_on_c, 9, 44, 0
2, 38593, Note_on_c, 9, 38, 0
2, 38688, Note_on_c, 9, 42, 60
2, 38689, Note_on_c, 9, 42, 0
2, 38736, Note_on_c, 9, 36, 127
2, 38737, Note_on_c, 9, 36, 0
2, 38784, Note_on_c, 9, 36, 127
2, 38784, Note_on_c, 9, 42, 60
2, 38785, Note_on_c, 9, 42, 0
2, 38785, Note_on_c, 9, 36, 0
2, 38832, Note_on_c, 9, 42, 60
2, 38833, Note_on_c, 9, 42, 0
2, 38880, Note_on_c, 9, 46, 60
2, 38881, Note_on_c, 9, 46, 0
2, 38928, Note_on_c, 9, 42, 60
2, 38929, Note_on_c, 9, 42, 0
2, 38976, Note_on_c, 9, 38, 110
2, 38976, Note_on_c, 9, 44, 60
2, 38976, Note_on_c, 9, 54, 110
2, 38977, Note_on_c, 9, 54, 0
2, 38977, Note_on_c, 9, 44, 0
2, 38977, Note_on_c, 9, 38, 0
2, 39024, Note_on_c, 9, 44, 60
2, 39025, Note_on_c, 9, 44, 0
2, 39072, Note_on_c, 9, 42, 60
2, 39073, Note_on_c, 9, 42, 0
2, 39120, Note_on_c, 9, 46, 60
2, 39121, Note_on_c, 9, 46, 0
2, 39168, Note_on_c, 9, 36, 127
2, 39168, Note_on_c, 9, 44, 60
2, 39169, Note_on_c, 9, 44, 0
2, 39169, Note_on_c, 9, 36, 0
2, 39264, Note_on_c, 9, 44, 60
2, 39265, Note_on_c, 9, 44, 0
2, 39360, Note_on_c, 9, 38, 110
2, 39360, Note_on_c, 9, 42, 60
2, 39360, Note_on_c, 9, 54, 110
2, 39361, Note_on_c, 9, 54, 0
2, 39361, Note_on_c, 9, 42, 0
2, 39361, Note_on_c, 9, 38, 0
2, 39456, Note_on_c, 9, 42, 60
2, 39457, Note_on_c, 9, 42, 0
2, 39504, Note_on_c, 9, 36, 127
2, 39504, Note_on_c, 9, 42, 60
2, 39505, Note_on_c, 9, 42, 0
2, 39505, Note_on_c, 9, 36, 0
2, 39552, Note_on_c, 9, 36, 127
2, 39553, Note_on_c, 9, 36, 0
2, 39600, Note_on_c, 9, 42, 60
2, 39601, Note_on_c, 9, 42, 0
2, 39696, Note_on_c, 9, 42, 60
2, 39697, Note_on_c, 9, 42, 0
2, 39744, Note_on_c, 9, 38, 110
2, 39744, Note_on_c, 9, 42, 60
2, 39744, Note_on_c, 9, 54, 110
2, 39745, Note_on_c, 9, 54, 0
2, 39745, Note_on_c, 9, 42, 0
2, 39745, Note_on_c, 9, 38, 0
2, 39792, Note_on_c, 9, 44, 60
2, 39793, Note_on_c, 9, 44, 0
2, 39840, Note_on_c, 9, 44, 60
2, 39841, Note_on_c, 9, 44, 0
2, 39888, Note_on_c, 9, 36, 127
2, 39889, Note_on_c, 9, 36, 0
2, 39936, Note_on_c, 9, 36, 127
2, 39936, Note_on_c, 9, 42, 60
2, 39937, Note_on_c, 9, 42, 0
2, 39937, Note_on_c, 9, 36, 0
2, 40032, Note_on_c, 9, 42, 60
2, 40033, Note_on_c, 9, 42, 0
2, 40128, Note_on_c, 9, 38, 110
2, 40128, Note_on_c, 9, 44, 60
2, 40128, Note_on_c, 9, 54, 110
2, 40129, Note_on_c, 9, 54, 0
2, 40129, Note_on_c, 9, 44, 0
2, 40129, Note_on_c, 9, 38, 0
2, 40224, Note_on_c, 9, 42, 60
2, 40225, Note_on_c, 9, 42, 0
2, 40272, Note_on_c, 9, 36, 127
2, 40273, Note_on_c, 9, 36, 0
2, 40320, Note_on_c, 9, 36, 127
2, 40320, Note_on_c, 9, 42, 60
2, 40321, Note_on_c, 9, 42, 0
2, 40321, Note_on_c, 9, 36, 0
2, 40368, Note_on_c, 9, 42, 60
2, 40369, Note_on_c, 9, 42, 0
2, 40416, Note_on_c, 9, 46, 60
2, 40417, Note_on_c, 9, 46, 0
2, 40464, Note_on_c, 9, 42, 60
2, 40465, Note_on_c, 9, 42, 0
2, 40512, Note_on_c, 9, 38, 110
2, 40512, Note_on_c, 9, 44, 60
2, 40512, Note_on_c, 9, 54, 110
2, 40513, Note_on_c, 9, 54, 0
2, 40513, Note_on_c, 9, 44, 0
2, 40513, Note_on_c, 9, 38, 0
2, 40560, Note_on_c, 9, 44, 60
2, 40561, Note_on_c, 9, 44, 0
2, 40608, Note_on_c, 9, 42, 60
2, 40609, Note_on_c, 9, 42, 0
2, 40656, Note_on_c, 9, 44, 60
2, 40656, Note_on_c, 9, 36, 100
2, 40657, Note_on_c, 9, 36, 0
2, 40657, Note_on_c, 9, 44, 0
2, 40704, Note_on_c, 9, 36, 127
2, 40704, Note_on_c, 9, 49, 87
2, 40704, Note_on_c, 9, 42, 60
2, 40705, Note_on_c, 9, 42, 0
2, 40705, Note_on_c, 9, 49, 0
2, 40705, Note_on_c, 9, 36, 0
2, 40752, Note_on_c, 9, 42, 60
2, 40753, Note_on_c, 9, 42, 0
2, 40800, Note_on_c, 9, 42, 60
2, 40801, Note_on_c, 9, 42, 0
2, 40848, Note_on_c, 9, 42, 60
2, 40849, Note_on_c, 9, 42, 0
2, 40896, Note_on_c, 9, 38, 110
2, 40896, Note_on_c, 9, 42, 60
2, 40896, Note_on_c, 9, 54, 110
2, 40896, Note_on_c, 9, 57, 91
2, 40897, Note_on_c, 9, 57, 0
2, 40897, Note_on_c, 9, 38, 0
2, 40897, Note_on_c, 9, 42, 0
2, 40897, Note_on_c, 9, 54, 0
2, 40944, Note_on_c, 9, 44, 60
2, 40945, Note_on_c, 9, 44, 0
2, 40992, Note_on_c, 9, 44, 60
2, 40993, Note_on_c, 9, 44, 0
2, 41040, Note_on_c, 9, 36, 127
2, 41040, Note_on_c, 9, 42, 60
2, 41041, Note_on_c, 9, 42, 0
2, 41041, Note_on_c, 9, 36, 0
2, 41088, Note_on_c, 9, 36, 127
2, 41089, Note_on_c, 9, 36, 0
2, 41136, Note_on_c, 9, 46, 60
2, 41137, Note_on_c, 9, 46, 0
2, 41184, Note_on_c, 9, 42, 60
2, 41185, Note_on_c, 9, 42, 0
2, 41232, Note_on_c, 9, 42, 60
2, 41233, Note_on_c, 9, 42, 0
2, 41280, Note_on_c, 9, 38, 110
2, 41280, Note_on_c, 9, 44, 60
2, 41280, Note_on_c, 9, 54, 110
2, 41281, Note_on_c, 9, 54, 0
2, 41281, Note_on_c, 9, 44, 0
2, 41281, Note_on_c, 9, 38, 0
2, 41328, Note_on_c, 9, 44, 60
2, 41329, Note_on_c, 9, 44, 0
2, 41376, Note_on_c, 9, 44, 60
2, 41377, Note_on_c, 9, 44, 0
2, 41424, Note_on_c, 9, 44, 60
2, 41425, Note_on_c, 9, 44, 0
2, 41472, Note_on_c, 9, 36, 127
2, 41472, Note_on_c, 9, 42, 60
2, 41473, Note_on_c, 9, 42, 0
2, 41473, Note_on_c, 9, 36, 0
2, 41568, Note_on_c, 9, 42, 60
2, 41569, Note_on_c, 9, 42, 0
2, 41664, Note_on_c, 9, 38, 110
2, 41664, Note_on_c, 9, 44, 60
2, 41664, Note_on_c, 9, 54, 110
2, 41665, Note_on_c, 9, 54, 0
2, 41665, Note_on_c, 9, 44, 0
2, 41665, Note_on_c, 9, 38, 0
2, 41760, Note_on_c, 9, 42, 60
2, 41761, Note_on_c, 9, 42, 0
2, 41808, Note_on_c, 9, 36, 127
2, 41809, Note_on_c, 9, 36, 0
2, 41856, Note_on_c, 9, 36, 127
2, 41856, Note_on_c, 9, 42, 60
2, 41857, Note_on_c, 9, 42, 0
2, 41857, Note_on_c, 9, 36, 0
2, 41904, Note_on_c, 9, 42, 60
2, 41905, Note_on_c, 9, 42, 0
2, 41952, Note_on_c, 9, 46, 60
2, 41953, Note_on_c, 9, 46, 0
2, 42000, Note_on_c, 9, 42, 60
2, 42001, Note_on_c, 9, 42, 0
2, 42048, Note_on_c, 9, 38, 110
2, 42048, Note_on_c, 9, 44, 60
2, 42048, Note_on_c, 9, 54, 110
2, 42049, Note_on_c, 9, 54, 0
2, 42049, Note_on_c, 9, 44, 0
2, 42049, Note_on_c, 9, 38, 0
2, 42096, Note_on_c, 9, 44, 60
2, 42097, Note_on_c, 9, 44, 0
2, 42144, Note_on_c, 9, 42, 60
2, 42145, Note_on_c, 9, 42, 0
2, 42192, Note_on_c, 9, 46, 60
2, 42193, Note_on_c, 9, 46, 0
2, 42240, Note_on_c, 9, 36, 127
2, 42240, Note_on_c, 9, 44, 60
2, 42241, Note_on_c, 9, 44, 0
2, 42241, Note_on_c, 9, 36, 0
2, 42336, Note_on_c, 9, 44, 60
2, 42337, Note_on_c, 9, 44, 0
2, 42432, Note_on_c, 9, 38, 110
2, 42432, Note_on_c, 9, 42, 60
2, 42432, Note_on_c, 9, 54, 110
2, 42433, Note_on_c, 9, 54, 0
2, 42433, Note_on_c, 9, 42, 0
2, 42433, Note_on_c, 9, 38, 0
2, 42528, Note_on_c, 9, 42, 60
2, 42529, Note_on_c, 9, 42, 0
2, 42576, Note_on_c, 9, 36, 127
2, 42576, Note_on_c, 9, 42, 60
2, 42577, Note_on_c, 9, 42, 0
2, 42577, Note_on_c, 9, 36, 0
2, 42624, Note_on_c, 9, 36, 127
2, 42625, Note_on_c, 9, 36, 0
2, 42672, Note_on_c, 9, 42, 60
2, 42673, Note_on_c, 9, 42, 0
2, 42768, Note_on_c, 9, 42, 60
2, 42769, Note_on_c, 9, 42, 0
2, 42816, Note_on_c, 9, 38, 110
2, 42816, Note_on_c, 9, 42, 60
2, 42816, Note_on_c, 9, 54, 110
2, 42817, Note_on_c, 9, 54, 0
2, 42817, Note_on_c, 9, 42, 0
2, 42817, Note_on_c, 9, 38, 0
2, 42864, Note_on_c, 9, 44, 60
2, 42865, Note_on_c, 9, 44, 0
2, 42912, Note_on_c, 9, 44, 60
2, 42913, Note_on_c, 9, 44, 0
2, 42960, Note_on_c, 9, 36, 127
2, 42961, Note_on_c, 9, 36, 0
2, 43008, Note_on_c, 9, 36, 127
2, 43008, Note_on_c, 9, 42, 60
2, 43009, Note_on_c, 9, 42, 0
2, 43009, Note_on_c, 9, 36, 0
2, 43104, Note_on_c, 9, 42, 60
2, 43105, Note_on_c, 9, 42, 0
2, 43152, Note_on_c, 9, 42, 60
2, 43153, Note_on_c, 9, 42, 0
2, 43200, Note_on_c, 9, 46, 60
2, 43200, Note_on_c, 9, 38, 110
2, 43201, Note_on_c, 9, 38, 0
2, 43201, Note_on_c, 9, 46, 0
2, 43296, Note_on_c, 9, 42, 60
2, 43297, Note_on_c, 9, 42, 0
2, 43344, Note_on_c, 9, 36, 60
2, 43345, Note_on_c, 9, 36, 0
2, 43392, Note_on_c, 9, 36, 127
2, 43392, Note_on_c, 9, 42, 70
2, 43393, Note_on_c, 9, 42, 0
2, 43393, Note_on_c, 9, 36, 0
2, 43440, Note_on_c, 9, 44, 100
2, 43441, Note_on_c, 9, 44, 0
2, 43488, Note_on_c, 9, 48, 100
2, 43489, Note_on_c, 9, 48, 0
2, 43498, Note_on_c, 9, 48, 100
2, 43499, Note_on_c, 9, 48, 0
2, 43536, Note_on_c, 9, 47, 100
2, 43537, Note_on_c, 9, 47, 0
2, 43632, Note_on_c, 9, 45, 100
2, 43633, Note_on_c, 9, 45, 0
2, 43680, Note_on_c, 9, 41, 100
2, 43680, Note_on_c, 9, 51, 100
2, 43681, Note_on_c, 9, 51, 0
2, 43681, Note_on_c, 9, 41, 0
2, 43776, Note_on_c, 9, 36, 127
2, 43776, Note_on_c, 9, 49, 87
2, 43776, Note_on_c, 9, 42, 60
2, 43777, Note_on_c, 9, 42, 0
2, 43777, Note_on_c, 9, 49, 0
2, 43777, Note_on_c, 9, 36, 0
2, 43824, Note_on_c, 9, 42, 60
2, 43825, Note_on_c, 9, 42, 0
2, 43872, Note_on_c, 9, 42, 60
2, 43873, Note_on_c, 9, 42, 0
2, 43920, Note_on_c, 9, 42, 60
2, 43921, Note_on_c, 9, 42, 0
2, 43968, Note_on_c, 9, 38, 110
2, 43968, Note_on_c, 9, 42, 60
2, 43968, Note_on_c, 9, 54, 110
2, 43968, Note_on_c, 9, 57, 91
2, 43969, Note_on_c, 9, 57, 0
2, 43969, Note_on_c, 9, 38, 0
2, 43969, Note_on_c, 9, 42, 0
2, 43969, Note_on_c, 9, 54, 0
2, 44016, Note_on_c, 9, 44, 60
2, 44017, Note_on_c, 9, 44, 0
2, 44064, Note_on_c, 9, 44, 60
2, 44065, Note_on_c, 9, 44, 0
2, 44112, Note_on_c, 9, 36, 127
2, 44112, Note_on_c, 9, 42, 60
2, 44113, Note_on_c, 9, 42, 0
2, 44113, Note_on_c, 9, 36, 0
2, 44160, Note_on_c, 9, 36, 127
2, 44161, Note_on_c, 9, 36, 0
2, 44208, Note_on_c, 9, 46, 60
2, 44209, Note_on_c, 9, 46, 0
2, 44256, Note_on_c, 9, 42, 60
2, 44257, Note_on_c, 9, 42, 0
2, 44304, Note_on_c, 9, 42, 60
2, 44305, Note_on_c, 9, 42, 0
2, 44352, Note_on_c, 9, 38, 110
2, 44352, Note_on_c, 9, 44, 60
2, 44352, Note_on_c, 9, 54, 110
2, 44353, Note_on_c, 9, 54, 0
2, 44353, Note_on_c, 9, 44, 0
2, 44353, Note_on_c, 9, 38, 0
2, 44400, Note_on_c, 9, 44, 60
2, 44401, Note_on_c, 9, 44, 0
2, 44448, Note_on_c, 9, 44, 60
2, 44449, Note_on_c, 9, 44, 0
2, 44496, Note_on_c, 9, 44, 60
2, 44497, Note_on_c, 9, 44, 0
2, 44544, Note_on_c, 9, 36, 127
2, 44544, Note_on_c, 9, 42, 60
2, 44545, Note_on_c, 9, 42, 0
2, 44545, Note_on_c, 9, 36, 0
2, 44640, Note_on_c, 9, 42, 60
2, 44641, Note_on_c, 9, 42, 0
2, 44736, Note_on_c, 9, 38, 110
2, 44736, Note_on_c, 9, 44, 60
2, 44736, Note_on_c, 9, 54, 110
2, 44737, Note_on_c, 9, 54, 0
2, 44737, Note_on_c, 9, 44, 0
2, 44737, Note_on_c, 9, 38, 0
2, 44832, Note_on_c, 9, 42, 60
2, 44833, Note_on_c, 9, 42, 0
2, 44880, Note_on_c, 9, 36, 127
2, 44881, Note_on_c, 9, 36, 0
2, 44928, Note_on_c, 9, 36, 127
2, 44928, Note_on_c, 9, 42, 60
2, 44929, Note_on_c, 9, 42, 0
2, 44929, Note_on_c, 9, 36, 0
2, 44976, Note_on_c, 9, 42, 60
2, 44977, Note_on_c, 9, 42, 0
2, 45024, Note_on_c, 9, 46, 60
2, 45025, Note_on_c, 9, 46, 0
2, 45072, Note_on_c, 9, 42, 60
2, 45073, Note_on_c, 9, 42, 0
2, 45120, Note_on_c, 9, 38, 110
2, 45120, Note_on_c, 9, 44, 60
2, 45120, Note_on_c, 9, 54, 110
2, 45121, Note_on_c, 9, 54, 0
2, 45121, Note_on_c, 9, 44, 0
2, 45121, Note_on_c, 9, 38, 0
2, 45168, Note_on_c, 9, 44, 60
2, 45169, Note_on_c, 9, 44, 0
2, 45216, Note_on_c, 9, 42, 60
2, 45217, Note_on_c, 9, 42, 0
2, 45264, Note_on_c, 9, 46, 60
2, 45265, Note_on_c, 9, 46, 0
2, 45312, Note_on_c, 9, 36, 127
2, 45312, Note_on_c, 9, 44, 60
2, 45313, Note_on_c, 9, 44, 0
2, 45313, Note_on_c, 9, 36, 0
2, 45408, Note_on_c, 9, 44, 60
2, 45409, Note_on_c, 9, 44, 0
2, 45504, Note_on_c, 9, 38, 110
2, 45504, Note_on_c, 9, 42, 60
2, 45504, Note_on_c, 9, 54, 110
2, 45505, Note_on_c, 9, 54, 0
2, 45505, Note_on_c, 9, 42, 0
2, 45505, Note_on_c, 9, 38, 0
2, 45600, Note_on_c, 9, 42, 60
2, 45601, Note_on_c, 9, 42, 0
2, 45648, Note_on_c, 9, 36, 127
2, 45648, Note_on_c, 9, 42, 60
2, 45649, Note_on_c, 9, 42, 0
2, 45649, Note_on_c, 9, 36, 0
2, 45696, Note_on_c, 9, 36, 127
2, 45697, Note_on_c, 9, 36, 0
2, 45744, Note_on_c, 9, 42, 60
2, 45745, Note_on_c, 9, 42, 0
2, 45840, Note_on_c, 9, 42, 60
2, 45841, Note_on_c, 9, 42, 0
2, 45888, Note_on_c, 9, 38, 110
2, 45888, Note_on_c, 9, 42, 60
2, 45888, Note_on_c, 9, 54, 110
2, 45889, Note_on_c, 9, 54, 0
2, 45889, Note_on_c, 9, 42, 0
2, 45889, Note_on_c, 9, 38, 0
2, 45936, Note_on_c, 9, 44, 60
2, 45937, Note_on_c, 9, 44, 0
2, 45984, Note_on_c, 9, 44, 60
2, 45985, Note_on_c, 9, 44, 0
2, 46032, Note_on_c, 9, 36, 127
2, 46033, Note_on_c, 9, 36, 0
2, 46080, Note_on_c, 9, 36, 127
2, 46080, Note_on_c, 9, 42, 60
2, 46081, Note_on_c, 9, 42, 0
2, 46081, Note_on_c, 9, 36, 0
2, 46176, Note_on_c, 9, 42, 60
2, 46177, Note_on_c, 9, 42, 0
2, 46272, Note_on_c, 9, 38, 110
2, 46272, Note_on_c, 9, 44, 60
2, 46272, Note_on_c, 9, 54, 110
2, 46273, Note_on_c, 9, 54, 0
2, 46273, Note_on_c, 9, 44, 0
2, 46273, Note_on_c, 9, 38, 0
2, 46368, Note_on_c, 9, 42, 60
2, 46369, Note_on_c, 9, 42, 0
2, 46416, Note_on_c, 9, 36, 127
2, 46417, Note_on_c, 9, 36, 0
2, 46464, Note_on_c, 9, 36, 127
2, 46464, Note_on_c, 9, 42, 60
2, 46465, Note_on_c, 9, 42, 0
2, 46465, Note_on_c, 9, 36, 0
2, 46512, Note_on_c, 9, 42, 60
2, 46513, Note_on_c, 9, 42, 0
2, 46560, Note_on_c, 9, 46, 60
2, 46561, Note_on_c, 9, 46, 0
2, 46608, Note_on_c, 9, 42, 60
2, 46609, Note_on_c, 9, 42, 0
2, 46656, Note_on_c, 9, 38, 110
2, 46656, Note_on_c, 9, 44, 60
2, 46656, Note_on_c, 9, 54, 110
2, 46657, Note_on_c, 9, 54, 0
2, 46657, Note_on_c, 9, 44, 0
2, 46657, Note_on_c, 9, 38, 0
2, 46704, Note_on_c, 9, 44, 60
2, 46705, Note_on_c, 9, 44, 0
2, 46752, Note_on_c, 9, 42, 60
2, 46753, Note_on_c, 9, 42, 0
2, 46800, Note_on_c, 9, 44, 60
2, 46800, Note_on_c, 9, 36, 100
2, 46801, Note_on_c, 9, 36, 0
2, 46801, Note_on_c, 9, 44, 0
2, 46848, Note_on_c, 9, 36, 127
2, 46848, Note_on_c, 9, 49, 87
2, 46848, Note_on_c, 9, 42, 60
2, 46849, Note_on_c, 9, 42, 0
2, 46849, Note_on_c, 9, 49, 0
2, 46849, Note_on_c, 9, 36, 0
2, 46896, Note_on_c, 9, 42, 60
2, 46897, Note_on_c, 9, 42, 0
2, 46944, Note_on_c, 9, 42, 60
2, 46945, Note_on_c, 9, 42, 0
2, 46992, Note_on_c, 9, 42, 60
2, 46993, Note_on_c, 9, 42, 0
2, 47040, Note_on_c, 9, 38, 110
2, 47040, Note_on_c, 9, 42, 60
2, 47040, Note_on_c, 9, 54, 110
2, 47040, Note_on_c, 9, 57, 91
2, 47041, Note_on_c, 9, 57, 0
2, 47041, Note_on_c, 9, 38, 0
2, 47041, Note_on_c, 9, 42, 0
2, 47041, Note_on_c, 9, 54, 0
2, 47088, Note_on_c, 9, 44, 60
2, 47089, Note_on_c, 9, 44, 0
2, 47136, Note_on_c, 9, 44, 60
2, 47137, Note_on_c, 9, 44, 0
2, 47184, Note_on_c, 9, 36, 127
2, 47184, Note_on_c, 9, 42, 60
2, 47185, Note_on_c, 9, 42, 0
2, 47185, Note_on_c, 9, 36, 0
2, 47232, Note_on_c, 9, 36, 127
2, 47233, Note_on_c, 9, 36, 0
2, 47280, Note_on_c, 9, 46, 60
2, 47281, Note_on_c, 9, 46, 0
2, 47328, Note_on_c, 9, 42, 60
2, 47329, Note_on_c, 9, 42, 0
2, 47376, Note_on_c, 9, 42, 60
2, 47377, Note_on_c, 9, 42, 0
2, 47424, Note_on_c, 9, 38, 110
2, 47424, Note_on_c, 9, 44, 60
2, 47424, Note_on_c, 9, 54, 110
2, 47425, Note_on_c, 9, 54, 0
2, 47425, Note_on_c, 9, 44, 0
2, 47425, Note_on_c, 9, 38, 0
2, 47472, Note_on_c, 9, 44, 60
2, 47473, Note_on_c, 9, 44, 0
2, 47520, Note_on_c, 9, 44, 60
2, 47521, Note_on_c, 9, 44, 0
2, 47568, Note_on_c, 9, 44, 60
2, 47569, Note_on_c, 9, 44, 0
2, 47616, Note_on_c, 9, 36, 127
2, 47616, Note_on_c, 9, 42, 60
2, 47617, Note_on_c, 9, 42, 0
2, 47617, Note_on_c, 9, 36, 0
2, 47712, Note_on_c, 9, 42, 60
2, 47713, Note_on_c, 9, 42, 0
2, 47808, Note_on_c, 9, 38, 110
2, 47808, Note_on_c, 9, 44, 60
2, 47808, Note_on_c, 9, 54, 110
2, 47809, Note_on_c, 9, 54, 0
2, 47809, Note_on_c, 9, 44, 0
2, 47809, Note_on_c, 9, 38, 0
2, 47904, Note_on_c, 9, 42, 60
2, 47905, Note_on_c, 9, 42, 0
2, 47952, Note_on_c, 9, 36, 127
2, 47953, Note_on_c, 9, 36, 0
2, 48000, Note_on_c, 9, 36, 127
2, 48000, Note_on_c, 9, 42, 60
2, 48001, Note_on_c, 9, 42, 0
2, 48001, Note_on_c, 9, 36, 0
2, 48048, Note_on_c, 9, 42, 60
2, 48049, Note_on_c, 9, 42, 0
2, 48096, Note_on_c, 9, 46, 60
2, 48097, Note_on_c, 9, 46, 0
2, 48144, Note_on_c, 9, 42, 60
2, 48145, Note_on_c, 9, 42, 0
2, 48192, Note_on_c, 9, 38, 110
2, 48192, Note_on_c, 9, 44, 60
2, 48192, Note_on_c, 9, 54, 110
2, 48193, Note_on_c, 9, 54, 0
2, 48193, Note_on_c, 9, 44, 0
2, 48193, Note_on_c, 9, 38, 0
2, 48240, Note_on_c, 9, 44, 60
2, 48241, Note_on_c, 9, 44, 0
2, 48288, Note_on_c, 9, 42, 60
2, 48289, Note_on_c, 9, 42, 0
2, 48336, Note_on_c, 9, 46, 60
2, 48337, Note_on_c, 9, 46, 0
2, 48384, Note_on_c, 9, 36, 127
2, 48384, Note_on_c, 9, 44, 60
2, 48385, Note_on_c, 9, 44, 0
2, 48385, Note_on_c, 9, 36, 0
2, 48480, Note_on_c, 9, 44, 60
2, 48481, Note_on_c, 9, 44, 0
2, 48576, Note_on_c, 9, 38, 110
2, 48576, Note_on_c, 9, 42, 60
2, 48576, Note_on_c, 9, 54, 110
2, 48577, Note_on_c, 9, 54, 0
2, 48577, Note_on_c, 9, 42, 0
2, 48577, Note_on_c, 9, 38, 0
2, 48672, Note_on_c, 9, 42, 60
2, 48673, Note_on_c, 9, 42, 0
2, 48720, Note_on_c, 9, 36, 127
2, 48720, Note_on_c, 9, 42, 60
2, 48721, Note_on_c, 9, 42, 0
2, 48721, Note_on_c, 9, 36, 0
2, 48768, Note_on_c, 9, 36, 127
2, 48769, Note_on_c, 9, 36, 0
2, 48816, Note_on_c, 9, 42, 60
2, 48817, Note_on_c, 9, 42, 0
2, 48912, Note_on_c, 9, 42, 60
2, 48913, Note_on_c, 9, 42, 0
2, 48960, Note_on_c, 9, 38, 110
2, 48960, Note_on_c, 9, 42, 60
2, 48960, Note_on_c, 9, 54, 110
2, 48961, Note_on_c, 9, 54, 0
2, 48961, Note_on_c, 9, 42, 0
2, 48961, Note_on_c, 9, 38, 0
2, 49008, Note_on_c, 9, 44, 60
2, 49009, Note_on_c, 9, 44, 0
2, 49056, Note_on_c, 9, 44, 60
2, 49057, Note_on_c, 9, 44, 0
2, 49104, Note_on_c, 9, 36, 127
2, 49105, Note_on_c, 9, 36, 0
2, 49152, Note_on_c, 9, 36, 127
2, 49152, Note_on_c, 9, 42, 60
2, 49153, Note_on_c, 9, 42, 0
2, 49153, Note_on_c, 9, 36, 0
2, 49248, Note_on_c, 9, 42, 60
2, 49249, Note_on_c, 9, 42, 0
2, 49344, Note_on_c, 9, 38, 110
2, 49344, Note_on_c, 9, 44, 60
2, 49344, Note_on_c, 9, 54, 110
2, 49345, Note_on_c, 9, 54, 0
2, 49345, Note_on_c, 9, 44, 0
2, 49345, Note_on_c, 9, 38, 0
2, 49440, Note_on_c, 9, 42, 60
2, 49441, Note_on_c, 9, 42, 0
2, 49488, Note_on_c, 9, 36, 127
2, 49489, Note_on_c, 9, 36, 0
2, 49536, Note_on_c, 9, 36, 127
2, 49536, Note_on_c, 9, 42, 60
2, 49537, Note_on_c, 9, 42, 0
2, 49537, Note_on_c, 9, 36, 0
2, 49584, Note_on_c, 9, 42, 60
2, 49585, Note_on_c, 9, 42, 0
2, 49632, Note_on_c, 9, 46, 60
2, 49633, Note_on_c, 9, 46, 0
2, 49680, Note_on_c, 9, 42, 60
2, 49681, Note_on_c, 9, 42, 0
2, 49728, Note_on_c, 9, 38, 110
2, 49728, Note_on_c, 9, 44, 60
2, 49728, Note_on_c, 9, 54, 110
2, 49729, Note_on_c, 9, 54, 0
2, 49729, Note_on_c, 9, 44, 0
2, 49729, Note_on_c, 9, 38, 0
2, 49776, Note_on_c, 9, 44, 60
2, 49777, Note_on_c, 9, 44, 0
2, 49824, Note_on_c, 9, 42, 60
2, 49825, Note_on_c, 9, 42, 0
2, 49872, Note_on_c, 9, 44, 60
2, 49872, Note_on_c, 9, 36, 100
2, 49873, Note_on_c, 9, 36, 0
2, 49873, Note_on_c, 9, 44, 0
2, 49920, Note_on_c, 9, 36, 127
2, 49920, Note_on_c, 9, 49, 87
2, 49920, Note_on_c, 9, 42, 60
2, 49921, Note_on_c, 9, 42, 0
2, 49921, Note_on_c, 9, 49, 0
2, 49921, Note_on_c, 9, 36, 0
2, 49968, Note_on_c, 9, 42, 60
2, 49969, Note_on_c, 9, 42, 0
2, 50016, Note_on_c, 9, 42, 59
2, 50017, Note_on_c, 9, 42, 0
2, 50064, Note_on_c, 9, 42, 58
2, 50065, Note_on_c, 9, 42, 0
2, 50112, Note_on_c, 9, 38, 107
2, 50112, Note_on_c, 9, 42, 57
2, 50112, Note_on_c, 9, 54, 107
2, 50112, Note_on_c, 9, 57, 88
2, 50113, Note_on_c, 9, 57, 0
2, 50113, Note_on_c, 9, 38, 0
2, 50113, Note_on_c, 9, 42, 0
2, 50113, Note_on_c, 9, 54, 0
2, 50160, Note_on_c, 9, 44, 56
2, 50161, Note_on_c, 9, 44, 0
2, 50208, Note_on_c, 9, 44, 55
2, 50209, Note_on_c, 9, 44, 0
2, 50256, Note_on_c, 9, 36, 121
2, 50256, Note_on_c, 9, 42, 54
2, 50257, Note_on_c, 9, 42, 0
2, 50257, Note_on_c, 9, 36, 0
2, 50304, Note_on_c, 9, 36, 120
2, 50305, Note_on_c, 9, 36, 0
2, 50352, Note_on_c, 9, 46, 52
2, 50353, Note_on_c, 9, 46, 0
2, 50400, Note_on_c, 9, 42, 51
2, 50401, Note_on_c, 9, 42, 0
2, 50448, Note_on_c, 9, 42, 50
2, 50449, Note_on_c, 9, 42, 0
2, 50496, Note_on_c, 9, 38, 99
2, 50496, Note_on_c, 9, 44, 49
2, 50496, Note_on_c, 9, 54, 99
2, 50497, Note_on_c, 9, 54, 0
2, 50497, Note_on_c, 9, 44, 0
2, 50497, Note_on_c, 9, 38, 0
2, 50544, Note_on_c, 9, 44, 48
2, 50545, Note_on_c, 9, 44, 0
2, 50592, Note_on_c, 9, 44, 47
2, 50593, Note_on_c, 9, 44, 0
2, 50640, Note_on_c, 9, 44, 46
2, 50641, Note_on_c, 9, 44, 0
2, 50688, Control_c, 9, 11, 117
2, 50688, Note_on_c, 9, 36, 112
2, 50688, Note_on_c, 9, 42, 45
2, 50689, Note_on_c, 9, 42, 0
2, 50689, Note_on_c, 9, 36, 0
2, 50784, Note_on_c, 9, 42, 43
2, 50785, Note_on_c, 9, 42, 0
2, 50880, Note_on_c, 9, 38, 91
2, 50880, Note_on_c, 9, 44, 41
2, 50880, Note_on_c, 9, 54, 91
2, 50881, Note_on_c, 9, 54, 0
2, 50881, Note_on_c, 9, 44, 0
2, 50881, Note_on_c, 9, 38, 0
2, 50976, Note_on_c, 9, 42, 39
2, 50977, Note_on_c, 9, 42, 0
2, 51024, Note_on_c, 9, 36, 105
2, 51025, Note_on_c, 9, 36, 0
2, 51072, Control_c, 9, 11, 107
2, 51072, Note_on_c, 9, 36, 104
2, 51072, Note_on_c, 9, 42, 37
2, 51073, Note_on_c, 9, 42, 0
2, 51073, Note_on_c, 9, 36, 0
2, 51120, Note_on_c, 9, 42, 36
2, 51121, Note_on_c, 9, 42, 0
2, 51168, Note_on_c, 9, 46, 35
2, 51169, Note_on_c, 9, 46, 0
2, 51216, Note_on_c, 9, 42, 34
2, 51217, Note_on_c, 9, 42, 0
2, 51264, Note_on_c, 9, 38, 83
2, 51264, Note_on_c, 9, 44, 33
2, 51264, Note_on_c, 9, 54, 83
2, 51265, Note_on_c, 9, 54, 0
2, 51265, Note_on_c, 9, 44, 0
2, 51265, Note_on_c, 9, 38, 0
2, 51312, Note_on_c, 9, 44, 32
2, 51313, Note_on_c, 9, 44, 0
2, 51360, Note_on_c, 9, 42, 31
2, 51361, Note_on_c, 9, 42, 0
2, 51408, Note_on_c, 9, 46, 30
2, 51409, Note_on_c, 9, 46, 0
2, 51456, Note_on_c, 9, 36, 96
2, 51456, Note_on_c, 9, 44, 29
2, 51457, Note_on_c, 9, 44, 0
2, 51457, Note_on_c, 9, 36, 0
2, 51552, Note_on_c, 9, 44, 27
2, 51553, Note_on_c, 9, 44, 0
2, 51648, Note_on_c, 9, 38, 75
2, 51648, Note_on_c, 9, 42, 25
2, 51648, Control_c, 9, 11, 97
2, 51648, Note_on_c, 9, 54, 75
2, 51649, Note_on_c, 9, 54, 0
2, 51649, Note_on_c, 9, 42, 0
2, 51649, Note_on_c, 9, 38, 0
2, 51744, Note_on_c, 9, 42, 23
2, 51745, Note_on_c, 9, 42, 0
2, 51792, Note_on_c, 9, 36, 89
2, 51792, Note_on_c, 9, 42, 22
2, 51793, Note_on_c, 9, 42, 0
2, 51793, Note_on_c, 9, 36, 0
2, 51840, Note_on_c, 9, 36, 88
2, 51841, Note_on_c, 9, 36, 0
2, 51888, Note_on_c, 9, 42, 20
2, 51889, Note_on_c, 9, 42, 0
2, 51984, Note_on_c, 9, 42, 18
2, 51985, Note_on_c, 9, 42, 0
2, 52032, Note_on_c, 9, 38, 67
2, 52032, Note_on_c, 9, 42, 17
2, 52032, Note_on_c, 9, 54, 67
2, 52033, Note_on_c, 9, 54, 0
2, 52033, Note_on_c, 9, 42, 0
2, 52033, Note_on_c, 9, 38, 0
2, 52080, Note_on_c, 9, 44, 16
2, 52081, Note_on_c, 9, 44, 0
2, 52128, Note_on_c, 9, 44, 15
2, 52129, Note_on_c, 9, 44, 0
2, 52176, Note_on_c, 9, 36, 81
2, 52177, Note_on_c, 9, 36, 0
2, 52224, Note_on_c, 9, 36, 80
2, 52224, Note_on_c, 9, 42, 13
2, 52225, Note_on_c, 9, 42, 0
2, 52225, Note_on_c, 9, 36, 0
2, 52320, Note_on_c, 9, 42, 11
2, 52321, Note_on_c, 9, 42, 0
2, 52416, Control_c, 9, 11, 87
2, 52416, Note_on_c, 9, 38, 59
2, 52416, Note_on_c, 9, 44, 9
2, 52416, Note_on_c, 9, 54, 59
2, 52417, Note_on_c, 9, 54, 0
2, 52417, Note_on_c, 9, 44, 0
2, 52417, Note_on_c, 9, 38, 0
2, 52512, Note_on_c, 9, 42, 7
2, 52513, Note_on_c, 9, 42, 0
2, 52560, Note_on_c, 9, 36, 73
2, 52561, Note_on_c, 9, 36, 0
2, 52608, Note_on_c, 9, 36, 72
2, 52608, Note_on_c, 9, 42, 5
2, 52609, Note_on_c, 9, 42, 0
2, 52609, Note_on_c, 9, 36, 0
2, 52656, Note_on_c, 9, 42, 4
2, 52657, Note_on_c, 9, 42, 0
2, 52704, Note_on_c, 9, 46, 3
2, 52705, Note_on_c, 9, 46, 0
2, 52752, Note_on_c, 9, 42, 2
2, 52753, Note_on_c, 9, 42, 0
2, 52800, Note_on_c, 9, 38, 51
2, 52800, Note_on_c, 9, 44, 1
2, 52800, Note_on_c, 9, 54, 51
2, 52801, Note_on_c, 9, 54, 0
2, 52801, Note_on_c, 9, 44, 0
2, 52801, Note_on_c, 9, 38, 0
2, 52848, Note_on_c, 9, 44, 1
2, 52849, Note_on_c, 9, 44, 0
2, 52896, Note_on_c, 9, 42, 1
2, 52897, Note_on_c, 9, 42, 0
2, 52944, Note_on_c, 9, 44, 1
2, 52944, Note_on_c, 9, 36, 38
2, 52945, Note_on_c, 9, 36, 0
2, 52945, Note_on_c, 9, 44, 0
2, 52992, Control_c, 9, 11, 77
2, 52992, Note_on_c, 9, 36, 64
2, 52992, Note_on_c, 9, 49, 24
2, 52992, Note_on_c, 9, 42, 1
2, 52993, Note_on_c, 9, 42, 0
2, 52993, Note_on_c, 9, 49, 0
2, 52993, Note_on_c, 9, 36, 0
2, 53040, Note_on_c, 9, 42, 1
2, 53041, Note_on_c, 9, 42, 0
2, 53088, Note_on_c, 9, 42, 1
2, 53089, Note_on_c, 9, 42, 0
2, 53136, Note_on_c, 9, 42, 1
2, 53137, Note_on_c, 9, 42, 0
2, 53184, Control_c, 9, 11, 57
2, 53184, Note_on_c, 9, 38, 43
2, 53184, Note_on_c, 9, 42, 1
2, 53184, Note_on_c, 9, 54, 43
2, 53184, Note_on_c, 9, 57, 24
2, 53185, Note_on_c, 9, 57, 0
2, 53185, Note_on_c, 9, 38, 0
2, 53185, Note_on_c, 9, 42, 0
2, 53185, Note_on_c, 9, 54, 0
2, 53232, Note_on_c, 9, 44, 1
2, 53233, Note_on_c, 9, 44, 0
2, 53280, Note_on_c, 9, 44, 1
2, 53281, Note_on_c, 9, 44, 0
2, 53328, Note_on_c, 9, 36, 57
2, 53328, Note_on_c, 9, 42, 1
2, 53329, Note_on_c, 9, 42, 0
2, 53329, Note_on_c, 9, 36, 0
2, 53376, Control_c, 9, 11, 37
2, 53376, Note_on_c, 9, 36, 56
2, 53377, Note_on_c, 9, 36, 0
2, 53424, Note_on_c, 9, 46, 1
2, 53425, Note_on_c, 9, 46, 0
2, 53472, Note_on_c, 9, 42, 1
2, 53473, Note_on_c, 9, 42, 0
2, 53520, Note_on_c, 9, 42, 1
2, 53521, Note_on_c, 9, 42, 0
2, 53568, Note_on_c, 9, 38, 35
2, 53568, Note_on_c, 9, 44, 1
2, 53568, Control_c, 9, 11, 17
2, 53568, Note_on_c, 9, 54, 35
2, 53569, Note_on_c, 9, 54, 0
2, 53569, Note_on_c, 9, 44, 0
2, 53569, Note_on_c, 9, 38, 0
2, 53616, Note_on_c, 9, 44, 1
2, 53617, Note_on_c, 9, 44, 0
2, 53664, Note_on_c, 9, 44, 1
2, 53665, Note_on_c, 9, 44, 0
2, 53712, Note_on_c, 9, 44, 1
2, 53713, Note_on_c, 9, 44, 0
2, 53760, Note_on_c, 9, 36, 1
2, 53760, Note_on_c, 9, 42, 1
2, 53761, Note_on_c, 9, 42, 0
2, 53761, Note_on_c, 9, 36, 0
2, 53761, End_track
3, 0, Start_track
3, 0, MIDI_port, 0
3, 0, Title_t, "elec piano 1"
3, 0, Program_c, 0, 4
3, 0, Control_c, 0, 7, 55
3, 0, Control_c, 0, 10, 64
3, 36, Control_c, 0, 1, 0
3, 72, Control_c, 0, 11, 127
3, 84, Control_c, 0, 64, 0
3, 96, Control_c, 0, 67, 0
3, 108, Control_c, 0, 91, 40
3, 120, Control_c, 0, 93, 18
3, 765, Note_on_c, 0, 74, 95
3, 771, Note_on_c, 0, 48, 111
3, 776, Control_c, 0, 64, 127
3, 813, Note_on_c, 0, 74, 0
3, 816, Note_on_c, 0, 76, 118
3, 867, Note_on_c, 0, 48, 0
3, 867, Note_on_c, 0, 55, 110
3, 913, Note_on_c, 0, 60, 103
3, 915, Note_on_c, 0, 55, 0
3, 959, Note_on_c, 0, 72, 109
3, 960, Note_on_c, 0, 76, 0
3, 1007, Note_on_c, 0, 72, 0
3, 1009, Note_on_c, 0, 71, 124
3, 1056, Note_on_c, 0, 67, 109
3, 1057, Note_on_c, 0, 71, 0
3, 1057, Note_on_c, 0, 60, 0
3, 1101, Note_on_c, 0, 67, 0
3, 1101, Note_on_c, 0, 67, 123
3, 1138, Control_c, 0, 64, 0
3, 1152, Note_on_c, 0, 41, 114
3, 1165, Control_c, 0, 64, 127
3, 1197, Note_on_c, 0, 67, 0
3, 1200, Note_on_c, 0, 69, 110
3, 1248, Note_on_c, 0, 53, 117
3, 1296, Note_on_c, 0, 53, 0
3, 1296, Note_on_c, 0, 69, 0
3, 1296, Note_on_c, 0, 60, 111
3, 1368, Note_on_c, 0, 60, 0
3, 1390, Note_on_c, 0, 60, 100
3, 1438, Note_on_c, 0, 60, 0
3, 1443, Note_on_c, 0, 62, 117
3, 1488, Note_on_c, 0, 64, 118
3, 1491, Note_on_c, 0, 62, 0
3, 1501, Control_c, 0, 64, 0
3, 1533, Note_on_c, 0, 47, 122
3, 1535, Note_on_c, 0, 62, 103
3, 1536, Note_on_c, 0, 64, 0
3, 1536, Note_on_c, 0, 41, 0
3, 1536, Control_c, 0, 64, 127
3, 1581, Note_on_c, 0, 47, 0
3, 1582, Note_on_c, 0, 50, 121
3, 1629, Note_on_c, 0, 55, 102
3, 1630, Note_on_c, 0, 50, 0
3, 1677, Note_on_c, 0, 55, 0
3, 1680, Note_on_c, 0, 57, 101
3, 1776, Note_on_c, 0, 57, 0
3, 1776, Note_on_c, 0, 59, 112
3, 1823, Note_on_c, 0, 62, 0
3, 1824, Note_on_c, 0, 59, 0
3, 1871, Note_on_c, 0, 53, 102
3, 1872, Control_c, 0, 64, 0
3, 1919, Note_on_c, 0, 53, 0
3, 1920, Control_c, 0, 64, 127
3, 1920, Note_on_c, 0, 52, 110
3, 1971, Note_on_c, 0, 59, 104
3, 2016, Note_on_c, 0, 62, 116
3, 2017, Note_on_c, 0, 77, 111
3, 2019, Note_on_c, 0, 59, 0
3, 2064, Note_on_c, 0, 62, 0
3, 2109, Note_on_c, 0, 56, 113
3, 2112, Note_on_c, 0, 52, 0
3, 2113, Note_on_c, 0, 77, 0
3, 2114, Note_on_c, 0, 76, 107
3, 2205, Note_on_c, 0, 74, 96
3, 2210, Note_on_c, 0, 76, 0
3, 2253, Note_on_c, 0, 74, 0
3, 2253, Note_on_c, 0, 72, 110
3, 2298, Control_c, 0, 64, 0
3, 2301, Note_on_c, 0, 56, 0
3, 2302, Note_on_c, 0, 48, 105
3, 2304, Control_c, 0, 64, 127
3, 2349, Note_on_c, 0, 55, 99
3, 2350, Note_on_c, 0, 48, 0
3, 2397, Note_on_c, 0, 55, 0
3, 2401, Note_on_c, 0, 60, 95
3, 2445, Note_on_c, 0, 72, 0
3, 2449, Note_on_c, 0, 60, 0
3, 2496, Note_on_c, 0, 69, 99
3, 2499, Note_on_c, 0, 60, 104
3, 2547, Note_on_c, 0, 60, 0
3, 2591, Note_on_c, 0, 71, 113
3, 2592, Note_on_c, 0, 69, 0
3, 2639, Note_on_c, 0, 71, 0
3, 2639, Note_on_c, 0, 72, 102
3, 2664, Control_c, 0, 64, 0
3, 2687, Note_on_c, 0, 72, 0
3, 2687, Note_on_c, 0, 41, 101
3, 2688, Control_c, 0, 64, 127
3, 2689, Note_on_c, 0, 76, 116
3, 2735, Note_on_c, 0, 41, 0
3, 2736, Note_on_c, 0, 48, 120
3, 2784, Note_on_c, 0, 48, 0
3, 2784, Note_on_c, 0, 74, 123
3, 2785, Note_on_c, 0, 76, 0
3, 2879, Note_on_c, 0, 69, 106
3, 2880, Note_on_c, 0, 74, 0
3, 2880, Note_on_c, 0, 53, 99
3, 2928, Note_on_c, 0, 53, 0
3, 2975, Note_on_c, 0, 69, 0
3, 2979, Note_on_c, 0, 71, 122
3, 3027, Note_on_c, 0, 71, 0
3, 3027, Note_on_c, 0, 72, 106
3, 3048, Control_c, 0, 64, 0
3, 3069, Note_on_c, 0, 48, 117
3, 3072, Control_c, 0, 64, 127
3, 3117, Note_on_c, 0, 48, 0
3, 3123, Note_on_c, 0, 52, 116
3, 3168, Note_on_c, 0, 55, 121
3, 3171, Note_on_c, 0, 52, 0
3, 3195, Note_on_c, 0, 72, 0
3, 3262, Note_on_c, 0, 57, 111
3, 3263, Note_on_c, 0, 72, 116
3, 3264, Note_on_c, 0, 55, 0
3, 3359, Note_on_c, 0, 72, 0
3, 3360, Note_on_c, 0, 71, 123
3, 3405, Note_on_c, 0, 72, 123
3, 3408, Note_on_c, 0, 71, 0
3, 3450, Control_c, 0, 64, 0
3, 3453, Note_on_c, 0, 72, 0
3, 3454, Note_on_c, 0, 57, 0
3, 3456, Control_c, 0, 64, 127
3, 3456, Note_on_c, 0, 43, 98
3, 3456, Note_on_c, 0, 76, 111
3, 3504, Note_on_c, 0, 43, 0
3, 3507, Note_on_c, 0, 47, 122
3, 3552, Note_on_c, 0, 76, 0
3, 3553, Note_on_c, 0, 50, 96
3, 3555, Note_on_c, 0, 47, 0
3, 3555, Note_on_c, 0, 74, 101
3, 3645, Note_on_c, 0, 53, 123
3, 3649, Note_on_c, 0, 50, 0
3, 3649, Note_on_c, 0, 72, 114
3, 3651, Note_on_c, 0, 74, 0
3, 3744, Note_on_c, 0, 71, 110
3, 3745, Note_on_c, 0, 72, 0
3, 3792, Note_on_c, 0, 71, 0
3, 3795, Note_on_c, 0, 72, 114
3, 3813, Note_on_c, 0, 53, 0
3, 3834, Control_c, 0, 64, 0
3, 3840, Control_c, 0, 64, 127
3, 3842, Note_on_c, 0, 48, 98
3, 3887, Note_on_c, 0, 55, 101
3, 3890, Note_on_c, 0, 48, 0
3, 3935, Note_on_c, 0, 55, 0
3, 3939, Note_on_c, 0, 72, 0
3, 3939, Note_on_c, 0, 60, 118
3, 3987, Note_on_c, 0, 60, 0
3, 3987, Note_on_c, 0, 62, 102
3, 4080, Note_on_c, 0, 64, 110
3, 4083, Note_on_c, 0, 62, 0
3, 4128, Note_on_c, 0, 64, 0
3, 4218, Control_c, 0, 64, 0
3, 4224, Control_c, 0, 64, 127
3, 4225, Note_on_c, 0, 84, 117
3, 4273, Note_on_c, 0, 84, 0
3, 4274, Note_on_c, 0, 83, 101
3, 4320, Note_on_c, 0, 79, 105
3, 4322, Note_on_c, 0, 83, 0
3, 4368, Note_on_c, 0, 79, 0
3, 4368, Note_on_c, 0, 76, 100
3, 4416, Note_on_c, 0, 76, 0
3, 4417, Note_on_c, 0, 72, 109
3, 4463, Note_on_c, 0, 71, 114
3, 4465, Note_on_c, 0, 72, 0
3, 4511, Note_on_c, 0, 71, 0
3, 4511, Note_on_c, 0, 67, 109
3, 4558, Note_on_c, 0, 64, 103
3, 4559, Note_on_c, 0, 67, 0
3, 4584, Control_c, 0, 64, 0
3, 4604, Note_on_c, 0, 64, 0
3, 4607, Note_on_c, 0, 67, 119
3, 4608, Note_on_c, 0, 60, 114
3, 4609, Note_on_c, 0, 64, 102
3, 4990, Note_on_c, 0, 67, 0
3, 4992, Note_on_c, 0, 60, 0
3, 4992, Note_on_c, 0, 67, 117
3, 4993, Note_on_c, 0, 64, 0
3, 4993, Note_on_c, 0, 62, 116
3, 4994, Note_on_c, 0, 59, 110
3, 5375, Note_on_c, 0, 57, 110
3, 5376, Note_on_c, 0, 67, 0
3, 5377, Note_on_c, 0, 62, 0
3, 5377, Note_on_c, 0, 64, 117
3, 5378, Note_on_c, 0, 59, 0
3, 5378, Note_on_c, 0, 60, 98
3, 5757, Note_on_c, 0, 59, 106
3, 5759, Note_on_c, 0, 57, 0
3, 5759, Note_on_c, 0, 67, 101
3, 5760, Note_on_c, 0, 60, 0
3, 5761, Note_on_c, 0, 64, 0
3, 5763, Note_on_c, 0, 62, 109
3, 6141, Note_on_c, 0, 59, 0
3, 6141, Note_on_c, 0, 67, 0
3, 6144, Note_on_c, 0, 57, 104
3, 6146, Note_on_c, 0, 60, 116
3, 6146, Note_on_c, 0, 65, 107
3, 6147, Note_on_c, 0, 62, 0
3, 6528, Note_on_c, 0, 57, 0
3, 6528, Note_on_c, 0, 60, 0
3, 6528, Note_on_c, 0, 60, 122
3, 6528, Note_on_c, 0, 64, 107
3, 6531, Note_on_c, 0, 55, 118
3, 6532, Note_on_c, 0, 65, 0
3, 6718, Note_on_c, 0, 67, 96
3, 6720, Note_on_c, 0, 64, 0
3, 6909, Note_on_c, 0, 69, 103
3, 6910, Note_on_c, 0, 60, 0
3, 6910, Note_on_c, 0, 67, 0
3, 6912, Note_on_c, 0, 60, 105
3, 6913, Note_on_c, 0, 65, 110
3, 6915, Note_on_c, 0, 55, 0
3, 6915, Note_on_c, 0, 62, 123
3, 7293, Note_on_c, 0, 69, 0
3, 7294, Note_on_c, 0, 59, 95
3, 7296, Note_on_c, 0, 60, 0
3, 7297, Note_on_c, 0, 65, 0
3, 7297, Note_on_c, 0, 67, 109
3, 7298, Note_on_c, 0, 62, 0
3, 7298, Note_on_c, 0, 62, 103
3, 7485, Note_on_c, 0, 59, 0
3, 7485, Note_on_c, 0, 60, 102
3, 7488, Note_on_c, 0, 69, 119
3, 7489, Note_on_c, 0, 67, 0
3, 7490, Note_on_c, 0, 62, 0
3, 7490, Note_on_c, 0, 65, 115
3, 7581, Note_on_c, 0, 60, 0
3, 7582, Note_on_c, 0, 62, 106
3, 7584, Note_on_c, 0, 69, 0
3, 7585, Note_on_c, 0, 67, 116
3, 7586, Note_on_c, 0, 65, 0
3, 7587, Note_on_c, 0, 71, 117
3, 7676, Note_on_c, 0, 67, 0
3, 7677, Note_on_c, 0, 67, 110
3, 7677, Note_on_c, 0, 64, 124
3, 7678, Note_on_c, 0, 62, 0
3, 7681, Note_on_c, 0, 60, 125
3, 7683, Note_on_c, 0, 71, 0
3, 7965, Note_on_c, 0, 71, 102
3, 8013, Note_on_c, 0, 71, 0
3, 8017, Note_on_c, 0, 72, 103
3, 8060, Note_on_c, 0, 67, 0
3, 8061, Note_on_c, 0, 64, 0
3, 8061, Note_on_c, 0, 62, 124
3, 8062, Note_on_c, 0, 59, 111
3, 8064, Note_on_c, 0, 67, 110
3, 8065, Note_on_c, 0, 60, 0
3, 8065, Note_on_c, 0, 72, 0
3, 8065, Note_on_c, 0, 74, 117
3, 8245, Note_on_c, 0, 62, 0
3, 8253, Note_on_c, 0, 71, 124
3, 8254, Note_on_c, 0, 59, 0
3, 8256, Note_on_c, 0, 67, 0
3, 8256, Note_on_c, 0, 62, 122
3, 8256, Note_on_c, 0, 67, 108
3, 8257, Note_on_c, 0, 74, 0
3, 8445, Note_on_c, 0, 71, 0
3, 8445, Note_on_c, 0, 60, 120
3, 8447, Note_on_c, 0, 64, 116
3, 8448, Note_on_c, 0, 62, 0
3, 8448, Note_on_c, 0, 67, 0
3, 8448, Note_on_c, 0, 57, 124
3, 8827, Note_on_c, 0, 60, 0
3, 8831, Note_on_c, 0, 64, 0
3, 8832, Note_on_c, 0, 57, 0
3, 8832, Note_on_c, 0, 67, 116
3, 8834, Note_on_c, 0, 59, 119
3, 8835, Note_on_c, 0, 62, 124
3, 9214, Note_on_c, 0, 67, 0
3, 9214, Note_on_c, 0, 57, 111
3, 9218, Note_on_c, 0, 59, 0
3, 9218, Note_on_c, 0, 60, 99
3, 9219, Note_on_c, 0, 62, 0
3, 9219, Note_on_c, 0, 65, 96
3, 9405, Note_on_c, 0, 57, 0
3, 9405, Note_on_c, 0, 57, 119
3, 9407, Note_on_c, 0, 60, 0
3, 9407, Note_on_c, 0, 60, 117
3, 9409, Note_on_c, 0, 67, 122
3, 9413, Note_on_c, 0, 65, 0
3, 9595, Note_on_c, 0, 60, 0
3, 9597, Note_on_c, 0, 57, 0
3, 9599, Note_on_c, 0, 60, 116
3, 9600, Note_on_c, 0, 64, 122
3, 9601, Note_on_c, 0, 67, 0
3, 9601, Note_on_c, 0, 55, 117
3, 9981, Note_on_c, 0, 60, 0
3, 9982, Note_on_c, 0, 60, 104
3, 9982, Note_on_c, 0, 62, 103
3, 9983, Note_on_c, 0, 65, 108
3, 9984, Note_on_c, 0, 64, 0
3, 9984, Note_on_c, 0, 69, 117
3, 9985, Note_on_c, 0, 55, 0
3, 10175, Note_on_c, 0, 65, 0
3, 10176, Note_on_c, 0, 69, 0
3, 10177, Note_on_c, 0, 72, 123
3, 10179, Note_on_c, 0, 69, 97
3, 10365, Note_on_c, 0, 62, 0
3, 10366, Note_on_c, 0, 60, 0
3, 10368, Note_on_c, 0, 59, 98
3, 10368, Note_on_c, 0, 71, 101
3, 10369, Note_on_c, 0, 72, 0
3, 10369, Note_on_c, 0, 67, 114
3, 10371, Note_on_c, 0, 69, 0
3, 10371, Note_on_c, 0, 62, 117
3, 10558, Note_on_c, 0, 65, 124
3, 10559, Note_on_c, 0, 59, 0
3, 10559, Note_on_c, 0, 60, 120
3, 10560, Note_on_c, 0, 71, 0
3, 10561, Note_on_c, 0, 67, 0
3, 10561, Note_on_c, 0, 72, 110
3, 10563, Note_on_c, 0, 62, 0
3, 10653, Note_on_c, 0, 62, 107
3, 10654, Note_on_c, 0, 65, 0
3, 10655, Note_on_c, 0, 60, 0
3, 10656, Note_on_c, 0, 67, 110
3, 10656, Note_on_c, 0, 74, 119
3, 10657, Note_on_c, 0, 72, 0
3, 10749, Note_on_c, 0, 62, 0
3, 10750, Note_on_c, 0, 69, 119
3, 10751, Note_on_c, 0, 65, 102
3, 10751, Note_on_c, 0, 60, 108
3, 10752, Note_on_c, 0, 67, 0
3, 10752, Note_on_c, 0, 74, 0
3, 10755, Note_on_c, 0, 64, 104
3, 11134, Note_on_c, 0, 69, 0
3, 11135, Note_on_c, 0, 60, 0
3, 11135, Note_on_c, 0, 65, 0
3, 11136, Note_on_c, 0, 60, 120
3, 11136, Note_on_c, 0, 67, 108
3, 11137, Note_on_c, 0, 64, 0
3, 11137, Note_on_c, 0, 64, 123
3, 11517, Note_on_c, 0, 62, 103
3, 11520, Note_on_c, 0, 67, 0
3, 11520, Note_on_c, 0, 60, 0
3, 11520, Note_on_c, 0, 70, 115
3, 11520, Note_on_c, 0, 65, 122
3, 11521, Note_on_c, 0, 64, 0
3, 11901, Note_on_c, 0, 62, 0
3, 11903, Note_on_c, 0, 64, 115
3, 11904, Note_on_c, 0, 70, 0
3, 11904, Note_on_c, 0, 65, 0
3, 11904, Note_on_c, 0, 69, 104
3, 11907, Note_on_c, 0, 60, 123
3, 12096, Note_on_c, 0, 72, 119
3, 12285, Note_on_c, 0, 65, 122
3, 12287, Note_on_c, 0, 60, 0
3, 12287, Note_on_c, 0, 64, 0
3, 12287, Note_on_c, 0, 69, 0
3, 12287, Note_on_c, 0, 62, 120
3, 12287, Note_on_c, 0, 69, 110
3, 12287, Note_on_c, 0, 60, 103
3, 12288, Note_on_c, 0, 72, 0
3, 12669, Note_on_c, 0, 65, 0
3, 12671, Note_on_c, 0, 69, 0
3, 12671, Note_on_c, 0, 62, 0
3, 12671, Note_on_c, 0, 60, 0
3, 12672, Note_on_c, 0, 60, 111
3, 12673, Note_on_c, 0, 64, 110
3, 12675, Note_on_c, 0, 67, 101
3, 12867, Note_on_c, 0, 72, 120
3, 13054, Note_on_c, 0, 69, 105
3, 13056, Note_on_c, 0, 60, 0
3, 13056, Note_on_c, 0, 62, 98
3, 13057, Note_on_c, 0, 64, 0
3, 13058, Note_on_c, 0, 65, 103
3, 13059, Note_on_c, 0, 72, 0
3, 13059, Note_on_c, 0, 67, 0
3, 13059, Note_on_c, 0, 60, 116
3, 13437, Note_on_c, 0, 65, 0
3, 13437, Note_on_c, 0, 65, 119
3, 13438, Note_on_c, 0, 69, 0
3, 13438, Note_on_c, 0, 60, 0
3, 13438, Note_on_c, 0, 62, 0
3, 13438, Note_on_c, 0, 62, 98
3, 13440, Note_on_c, 0, 67, 124
3, 13440, Note_on_c, 0, 69, 100
3, 13800, Note_on_c, 0, 69, 0
3, 13821, Note_on_c, 0, 65, 0
3, 13822, Note_on_c, 0, 67, 0
3, 13822, Note_on_c, 0, 62, 0
3, 13822, Note_on_c, 0, 67, 125
3, 13823, Note_on_c, 0, 71, 110
3, 13823, Note_on_c, 0, 62, 110
3, 13826, Note_on_c, 0, 65, 96
3, 14590, Note_on_c, 0, 67, 0
3, 14591, Note_on_c, 0, 71, 0
3, 14591, Note_on_c, 0, 62, 0
3, 14593, Note_on_c, 0, 67, 110
3, 14594, Note_on_c, 0, 65, 0
3, 14594, Note_on_c, 0, 64, 110
3, 14595, Note_on_c, 0, 60, 110
3, 14881, Note_on_c, 0, 67, 0
3, 14882, Note_on_c, 0, 64, 0
3, 14883, Note_on_c, 0, 60, 0
3, 14928, Note_on_c, 0, 60, 110
3, 14928, Note_on_c, 0, 64, 110
3, 14929, Note_on_c, 0, 67, 110
3, 14954, Note_on_c, 0, 60, 0
3, 14956, Note_on_c, 0, 64, 0
3, 14959, Note_on_c, 0, 67, 0
3, 14976, Note_on_c, 0, 65, 110
3, 14976, Note_on_c, 0, 69, 110
3, 14976, Note_on_c, 0, 60, 110
3, 14977, Note_on_c, 0, 62, 110
3, 15359, Note_on_c, 0, 67, 110
3, 15360, Note_on_c, 0, 60, 0
3, 15360, Note_on_c, 0, 65, 0
3, 15360, Note_on_c, 0, 69, 0
3, 15360, Note_on_c, 0, 65, 110
3, 15361, Note_on_c, 0, 62, 0
3, 15361, Note_on_c, 0, 62, 110
3, 15361, Note_on_c, 0, 59, 110
3, 15743, Note_on_c, 0, 67, 0
3, 15744, Note_on_c, 0, 65, 0
3, 15744, Note_on_c, 0, 59, 0
3, 15744, Note_on_c, 0, 59, 110
3, 15745, Note_on_c, 0, 62, 0
3, 15747, Note_on_c, 0, 64, 110
3, 15747, Note_on_c, 0, 67, 110
3, 15839, Note_on_c, 0, 77, 110
3, 15935, Note_on_c, 0, 77, 0
3, 15937, Note_on_c, 0, 76, 110
3, 15939, Note_on_c, 0, 64, 0
3, 16029, Note_on_c, 0, 74, 110
3, 16033, Note_on_c, 0, 76, 0
3, 16125, Note_on_c, 0, 74, 0
3, 16126, Note_on_c, 0, 64, 110
3, 16128, Note_on_c, 0, 59, 0
3, 16129, Note_on_c, 0, 69, 110
3, 16129, Note_on_c, 0, 60, 110
3, 16131, Note_on_c, 0, 67, 0
3, 16222, Note_on_c, 0, 72, 110
3, 16318, Note_on_c, 0, 72, 0
3, 16413, Note_on_c, 0, 69, 0
3, 16413, Note_on_c, 0, 69, 110
3, 16461, Note_on_c, 0, 69, 0
3, 16462, Note_on_c, 0, 71, 110
3, 16509, Note_on_c, 0, 69, 110
3, 16510, Note_on_c, 0, 71, 0
3, 16510, Note_on_c, 0, 64, 0
3, 16512, Note_on_c, 0, 62, 110
3, 16513, Note_on_c, 0, 60, 0
3, 16513, Note_on_c, 0, 64, 110
3, 16514, Note_on_c, 0, 72, 110
3, 16893, Note_on_c, 0, 69, 0
3, 16896, Note_on_c, 0, 62, 0
3, 16896, Note_on_c, 0, 62, 110
3, 16896, Note_on_c, 0, 65, 110
3, 16897, Note_on_c, 0, 64, 0
3, 16897, Note_on_c, 0, 71, 110
3, 16898, Note_on_c, 0, 72, 0
3, 16899, Note_on_c, 0, 69, 110
3, 17089, Note_on_c, 0, 71, 0
3, 17091, Note_on_c, 0, 74, 110
3, 17279, Note_on_c, 0, 67, 110
3, 17280, Note_on_c, 0, 65, 0
3, 17281, Note_on_c, 0, 71, 110
3, 17283, Note_on_c, 0, 74, 0
3, 17283, Note_on_c, 0, 69, 0
3, 17652, Note_on_c, 0, 71, 0
3, 17663, Note_on_c, 0, 67, 0
3, 17664, Note_on_c, 0, 62, 0
3, 17665, Note_on_c, 0, 67, 110
3, 17666, Note_on_c, 0, 64, 110
3, 17667, Note_on_c, 0, 60, 110
3, 17953, Note_on_c, 0, 67, 0
3, 17954, Note_on_c, 0, 64, 0
3, 17955, Note_on_c, 0, 60, 0
3, 18000, Note_on_c, 0, 60, 110
3, 18000, Note_on_c, 0, 64, 110
3, 18001, Note_on_c, 0, 67, 110
3, 18026, Note_on_c, 0, 60, 0
3, 18028, Note_on_c, 0, 64, 0
3, 18031, Note_on_c, 0, 67, 0
3, 18048, Note_on_c, 0, 65, 110
3, 18048, Note_on_c, 0, 69, 110
3, 18048, Note_on_c, 0, 60, 110
3, 18049, Note_on_c, 0, 62, 110
3, 18431, Note_on_c, 0, 67, 110
3, 18432, Note_on_c, 0, 60, 0
3, 18432, Note_on_c, 0, 65, 0
3, 18432, Note_on_c, 0, 69, 0
3, 18432, Note_on_c, 0, 65, 110
3, 18433, Note_on_c, 0, 62, 0
3, 18433, Note_on_c, 0, 62, 110
3, 18433, Note_on_c, 0, 59, 110
3, 18815, Note_on_c, 0, 67, 0
3, 18816, Note_on_c, 0, 65, 0
3, 18816, Note_on_c, 0, 59, 0
3, 18816, Note_on_c, 0, 59, 110
3, 18817, Note_on_c, 0, 62, 0
3, 18819, Note_on_c, 0, 64, 110
3, 18819, Note_on_c, 0, 67, 110
3, 18911, Note_on_c, 0, 77, 110
3, 19007, Note_on_c, 0, 77, 0
3, 19009, Note_on_c, 0, 76, 110
3, 19011, Note_on_c, 0, 64, 0
3, 19101, Note_on_c, 0, 74, 110
3, 19105, Note_on_c, 0, 76, 0
3, 19197, Note_on_c, 0, 74, 0
3, 19198, Note_on_c, 0, 64, 110
3, 19200, Note_on_c, 0, 59, 0
3, 19201, Note_on_c, 0, 69, 110
3, 19201, Note_on_c, 0, 60, 110
3, 19203, Note_on_c, 0, 67, 0
3, 19294, Note_on_c, 0, 72, 110
3, 19390, Note_on_c, 0, 72, 0
3, 19485, Note_on_c, 0, 69, 0
3, 19485, Note_on_c, 0, 69, 110
3, 19533, Note_on_c, 0, 69, 0
3, 19534, Note_on_c, 0, 71, 110
3, 19581, Note_on_c, 0, 69, 110
3, 19582, Note_on_c, 0, 71, 0
3, 19582, Note_on_c, 0, 64, 0
3, 19584, Note_on_c, 0, 62, 110
3, 19585, Note_on_c, 0, 60, 0
3, 19585, Note_on_c, 0, 64, 110
3, 19586, Note_on_c, 0, 72, 110
3, 19965, Note_on_c, 0, 69, 0
3, 19968, Note_on_c, 0, 62, 0
3, 19968, Note_on_c, 0, 62, 110
3, 19968, Note_on_c, 0, 65, 110
3, 19969, Note_on_c, 0, 64, 0
3, 19969, Note_on_c, 0, 71, 110
3, 19970, Note_on_c, 0, 72, 0
3, 19971, Note_on_c, 0, 69, 110
3, 20161, Note_on_c, 0, 71, 0
3, 20163, Note_on_c, 0, 74, 110
3, 20351, Note_on_c, 0, 67, 110
3, 20352, Note_on_c, 0, 65, 0
3, 20353, Note_on_c, 0, 71, 110
3, 20355, Note_on_c, 0, 74, 0
3, 20355, Note_on_c, 0, 69, 0
3, 20724, Note_on_c, 0, 71, 0
3, 20735, Note_on_c, 0, 67, 0
3, 20736, Note_on_c, 0, 62, 0
3, 20736, Control_c, 0, 64, 127
3, 20736, Note_on_c, 0, 67, 110
3, 20736, Note_on_c, 0, 64, 114
3, 20736, Note_on_c, 0, 60, 118
3, 21072, Note_on_c, 0, 67, 0
3, 21114, Control_c, 0, 64, 0
3, 21120, Note_on_c, 0, 60, 0
3, 21120, Note_on_c, 0, 64, 0
3, 21120, Control_c, 0, 64, 127
3, 21121, Note_on_c, 0, 84, 117
3, 21169, Note_on_c, 0, 84, 0
3, 21170, Note_on_c, 0, 83, 101
3, 21216, Note_on_c, 0, 79, 105
3, 21218, Note_on_c, 0, 83, 0
3, 21264, Note_on_c, 0, 79, 0
3, 21264, Note_on_c, 0, 76, 100
3, 21312, Note_on_c, 0, 76, 0
3, 21313, Note_on_c, 0, 72, 109
3, 21359, Note_on_c, 0, 71, 114
3, 21361, Note_on_c, 0, 72, 0
3, 21407, Note_on_c, 0, 71, 0
3, 21407, Note_on_c, 0, 67, 109
3, 21454, Note_on_c, 0, 64, 103
3, 21455, Note_on_c, 0, 67, 0
3, 21480, Control_c, 0, 64, 0
3, 21500, Note_on_c, 0, 64, 0
3, 21504, Note_on_c, 0, 67, 119
3, 21504, Note_on_c, 0, 60, 114
3, 21505, Note_on_c, 0, 64, 102
3, 21648, Note_on_c, 0, 67, 0
3, 21696, Note_on_c, 0, 64, 0
3, 21696, Note_on_c, 0, 72, 113
3, 21696, Note_on_c, 0, 67, 115
3, 21696, Note_on_c, 0, 64, 114
3, 21888, Note_on_c, 0, 64, 0
3, 21888, Note_on_c, 0, 60, 0
3, 21888, Note_on_c, 0, 72, 0
3, 21888, Note_on_c, 0, 67, 0
3, 21888, Note_on_c, 0, 67, 117
3, 21889, Note_on_c, 0, 62, 116
3, 21890, Note_on_c, 0, 59, 110
3, 22080, Note_on_c, 0, 65, 114
3, 22176, Note_on_c, 0, 65, 0
3, 22176, Note_on_c, 0, 67, 0
3, 22176, Note_on_c, 0, 62, 0
3, 22176, Note_on_c, 0, 67, 112
3, 22176, Note_on_c, 0, 62, 115
3, 22271, Note_on_c, 0, 57, 110
3, 22272, Note_on_c, 0, 62, 0
3, 22272, Note_on_c, 0, 67, 0
3, 22273, Note_on_c, 0, 64, 117
3, 22274, Note_on_c, 0, 59, 0
3, 22274, Note_on_c, 0, 60, 98
3, 22653, Note_on_c, 0, 59, 106
3, 22655, Note_on_c, 0, 57, 0
3, 22655, Note_on_c, 0, 67, 101
3, 22656, Note_on_c, 0, 60, 0
3, 22657, Note_on_c, 0, 64, 0
3, 22659, Note_on_c, 0, 62, 109
3, 22847, Note_on_c, 0, 67, 0
3, 22848, Note_on_c, 0, 67, 110
3, 22848, Note_on_c, 0, 64, 110
3, 22851, Note_on_c, 0, 62, 0
3, 23037, Note_on_c, 0, 59, 0
3, 23040, Note_on_c, 0, 67, 0
3, 23040, Note_on_c, 0, 64, 0
3, 23040, Note_on_c, 0, 57, 110
3, 23042, Note_on_c, 0, 60, 116
3, 23042, Note_on_c, 0, 65, 112
3, 23186, Note_on_c, 0, 60, 0
3, 23232, Note_on_c, 0, 57, 0
3, 23232, Note_on_c, 0, 67, 110
3, 23232, Note_on_c, 0, 60, 110
3, 23232, Note_on_c, 0, 57, 110
3, 23234, Note_on_c, 0, 65, 0
3, 23424, Note_on_c, 0, 67, 0
3, 23424, Note_on_c, 0, 60, 0
3, 23424, Note_on_c, 0, 57, 0
3, 23424, Note_on_c, 0, 60, 122
3, 23424, Note_on_c, 0, 64, 107
3, 23427, Note_on_c, 0, 55, 118
3, 23614, Note_on_c, 0, 67, 96
3, 23616, Note_on_c, 0, 55, 0
3, 23616, Note_on_c, 0, 60, 0
3, 23616, Note_on_c, 0, 64, 0
3, 23616, Note_on_c, 0, 72, 110
3, 23616, Note_on_c, 0, 60, 110
3, 23616, Note_on_c, 0, 55, 110
3, 23805, Note_on_c, 0, 69, 103
3, 23806, Note_on_c, 0, 67, 0
3, 23808, Note_on_c, 0, 55, 0
3, 23808, Note_on_c, 0, 72, 0
3, 23808, Note_on_c, 0, 60, 0
3, 23808, Note_on_c, 0, 60, 105
3, 23809, Note_on_c, 0, 65, 110
3, 23811, Note_on_c, 0, 62, 123
3, 24096, Note_on_c, 0, 69, 0
3, 24096, Note_on_c, 0, 67, 110
3, 24144, Note_on_c, 0, 67, 0
3, 24144, Note_on_c, 0, 69, 110
3, 24190, Note_on_c, 0, 59, 95
3, 24192, Note_on_c, 0, 69, 0
3, 24192, Note_on_c, 0, 60, 0
3, 24192, Note_on_c, 0, 71, 110
3, 24193, Note_on_c, 0, 65, 0
3, 24193, Note_on_c, 0, 67, 109
3, 24194, Note_on_c, 0, 62, 0
3, 24194, Note_on_c, 0, 62, 103
3, 24381, Note_on_c, 0, 59, 0
3, 24381, Note_on_c, 0, 60, 102
3, 24384, Note_on_c, 0, 71, 0
3, 24384, Note_on_c, 0, 69, 119
3, 24385, Note_on_c, 0, 67, 0
3, 24386, Note_on_c, 0, 62, 0
3, 24386, Note_on_c, 0, 65, 115
3, 24477, Note_on_c, 0, 60, 0
3, 24478, Note_on_c, 0, 62, 106
3, 24480, Note_on_c, 0, 69, 0
3, 24481, Note_on_c, 0, 67, 116
3, 24482, Note_on_c, 0, 65, 0
3, 24483, Note_on_c, 0, 71, 117
3, 24572, Note_on_c, 0, 67, 0
3, 24573, Note_on_c, 0, 67, 110
3, 24573, Note_on_c, 0, 64, 124
3, 24574, Note_on_c, 0, 62, 0
3, 24577, Note_on_c, 0, 60, 125
3, 24579, Note_on_c, 0, 71, 0
3, 24861, Note_on_c, 0, 71, 102
3, 24909, Note_on_c, 0, 71, 0
3, 24913, Note_on_c, 0, 72, 103
3, 24956, Note_on_c, 0, 67, 0
3, 24957, Note_on_c, 0, 64, 0
3, 24957, Note_on_c, 0, 62, 124
3, 24958, Note_on_c, 0, 59, 111
3, 24960, Note_on_c, 0, 67, 110
3, 24961, Note_on_c, 0, 60, 0
3, 24961, Note_on_c, 0, 72, 0
3, 24961, Note_on_c, 0, 74, 117
3, 25141, Note_on_c, 0, 62, 0
3, 25149, Note_on_c, 0, 71, 124
3, 25150, Note_on_c, 0, 59, 0
3, 25152, Note_on_c, 0, 67, 0
3, 25152, Note_on_c, 0, 62, 122
3, 25152, Note_on_c, 0, 67, 108
3, 25153, Note_on_c, 0, 74, 0
3, 25338, Note_on_c, 0, 60, 120
3, 25341, Note_on_c, 0, 71, 0
3, 25342, Note_on_c, 0, 64, 116
3, 25342, Note_on_c, 0, 57, 124
3, 25344, Note_on_c, 0, 67, 0
3, 25344, Note_on_c, 0, 62, 0
3, 25720, Note_on_c, 0, 60, 0
3, 25726, Note_on_c, 0, 57, 0
3, 25726, Note_on_c, 0, 64, 0
3, 25731, Note_on_c, 0, 67, 116
3, 25731, Note_on_c, 0, 59, 119
3, 25733, Note_on_c, 0, 62, 124
3, 26016, Note_on_c, 0, 69, 110
3, 26016, Note_on_c, 0, 65, 110
3, 26019, Note_on_c, 0, 67, 0
3, 26021, Note_on_c, 0, 62, 0
3, 26064, Note_on_c, 0, 65, 0
3, 26064, Note_on_c, 0, 69, 0
3, 26064, Note_on_c, 0, 67, 110
3, 26067, Note_on_c, 0, 64, 110
3, 26110, Note_on_c, 0, 57, 111
3, 26112, Note_on_c, 0, 67, 0
3, 26114, Note_on_c, 0, 60, 99
3, 26115, Note_on_c, 0, 59, 0
3, 26115, Note_on_c, 0, 64, 0
3, 26115, Note_on_c, 0, 65, 96
3, 26301, Note_on_c, 0, 57, 0
3, 26301, Note_on_c, 0, 57, 119
3, 26303, Note_on_c, 0, 60, 0
3, 26303, Note_on_c, 0, 60, 117
3, 26305, Note_on_c, 0, 67, 122
3, 26309, Note_on_c, 0, 65, 0
3, 26491, Note_on_c, 0, 60, 0
3, 26493, Note_on_c, 0, 57, 0
3, 26495, Note_on_c, 0, 60, 116
3, 26496, Note_on_c, 0, 64, 122
3, 26497, Note_on_c, 0, 67, 0
3, 26497, Note_on_c, 0, 55, 117
3, 26877, Note_on_c, 0, 60, 0
3, 26878, Note_on_c, 0, 60, 104
3, 26878, Note_on_c, 0, 62, 103
3, 26879, Note_on_c, 0, 65, 108
3, 26880, Note_on_c, 0, 64, 0
3, 26880, Note_on_c, 0, 69, 117
3, 26881, Note_on_c, 0, 55, 0
3, 27071, Note_on_c, 0, 65, 0
3, 27072, Note_on_c, 0, 69, 0
3, 27073, Note_on_c, 0, 72, 123
3, 27075, Note_on_c, 0, 69, 97
3, 27261, Note_on_c, 0, 62, 0
3, 27262, Note_on_c, 0, 60, 0
3, 27264, Note_on_c, 0, 59, 98
3, 27264, Note_on_c, 0, 71, 101
3, 27265, Note_on_c, 0, 72, 0
3, 27265, Note_on_c, 0, 67, 114
3, 27267, Note_on_c, 0, 69, 0
3, 27267, Note_on_c, 0, 62, 117
3, 27454, Note_on_c, 0, 65, 124
3, 27455, Note_on_c, 0, 59, 0
3, 27455, Note_on_c, 0, 60, 120
3, 27456, Note_on_c, 0, 71, 0
3, 27457, Note_on_c, 0, 67, 0
3, 27457, Note_on_c, 0, 72, 110
3, 27459, Note_on_c, 0, 62, 0
3, 27549, Note_on_c, 0, 62, 107
3, 27550, Note_on_c, 0, 65, 0
3, 27551, Note_on_c, 0, 60, 0
3, 27552, Note_on_c, 0, 67, 110
3, 27552, Note_on_c, 0, 74, 119
3, 27553, Note_on_c, 0, 72, 0
3, 27645, Note_on_c, 0, 62, 0
3, 27648, Note_on_c, 0, 67, 0
3, 27648, Note_on_c, 0, 74, 0
3, 27648, Note_on_c, 0, 69, 119
3, 27648, Note_on_c, 0, 65, 102
3, 27648, Note_on_c, 0, 60, 108
3, 27651, Note_on_c, 0, 64, 104
3, 28030, Note_on_c, 0, 69, 0
3, 28031, Note_on_c, 0, 65, 0
3, 28031, Note_on_c, 0, 60, 0
3, 28032, Note_on_c, 0, 60, 120
3, 28032, Note_on_c, 0, 67, 108
3, 28033, Note_on_c, 0, 64, 0
3, 28033, Note_on_c, 0, 64, 123
3, 28413, Note_on_c, 0, 62, 103
3, 28416, Note_on_c, 0, 67, 0
3, 28416, Note_on_c, 0, 60, 0
3, 28416, Note_on_c, 0, 70, 115
3, 28416, Note_on_c, 0, 65, 122
3, 28417, Note_on_c, 0, 64, 0
3, 28797, Note_on_c, 0, 62, 0
3, 28799, Note_on_c, 0, 64, 115
3, 28800, Note_on_c, 0, 70, 0
3, 28800, Note_on_c, 0, 65, 0
3, 28800, Note_on_c, 0, 69, 104
3, 28803, Note_on_c, 0, 60, 123
3, 28992, Note_on_c, 0, 72, 119
3, 29181, Note_on_c, 0, 65, 122
3, 29183, Note_on_c, 0, 60, 0
3, 29183, Note_on_c, 0, 64, 0
3, 29183, Note_on_c, 0, 69, 0
3, 29183, Note_on_c, 0, 62, 120
3, 29183, Note_on_c, 0, 69, 110
3, 29183, Note_on_c, 0, 60, 103
3, 29184, Note_on_c, 0, 72, 0
3, 29565, Note_on_c, 0, 65, 0
3, 29567, Note_on_c, 0, 69, 0
3, 29567, Note_on_c, 0, 62, 0
3, 29567, Note_on_c, 0, 60, 0
3, 29568, Note_on_c, 0, 60, 111
3, 29569, Note_on_c, 0, 64, 110
3, 29571, Note_on_c, 0, 67, 101
3, 29763, Note_on_c, 0, 72, 120
3, 29950, Note_on_c, 0, 69, 105
3, 29952, Note_on_c, 0, 60, 0
3, 29952, Note_on_c, 0, 62, 98
3, 29953, Note_on_c, 0, 64, 0
3, 29954, Note_on_c, 0, 65, 103
3, 29955, Note_on_c, 0, 72, 0
3, 29955, Note_on_c, 0, 67, 0
3, 29955, Note_on_c, 0, 60, 116
3, 30333, Note_on_c, 0, 65, 0
3, 30333, Note_on_c, 0, 65, 119
3, 30334, Note_on_c, 0, 69, 0
3, 30334, Note_on_c, 0, 60, 0
3, 30334, Note_on_c, 0, 62, 0
3, 30334, Note_on_c, 0, 62, 98
3, 30336, Note_on_c, 0, 67, 124
3, 30336, Note_on_c, 0, 69, 100
3, 30696, Note_on_c, 0, 69, 0
3, 30717, Note_on_c, 0, 65, 0
3, 30718, Note_on_c, 0, 67, 0
3, 30718, Note_on_c, 0, 62, 0
3, 30718, Note_on_c, 0, 67, 125
3, 30719, Note_on_c, 0, 71, 110
3, 30719, Note_on_c, 0, 62, 110
3, 30722, Note_on_c, 0, 65, 96
3, 31486, Note_on_c, 0, 67, 0
3, 31487, Note_on_c, 0, 71, 0
3, 31487, Note_on_c, 0, 62, 0
3, 31489, Note_on_c, 0, 67, 110
3, 31490, Note_on_c, 0, 65, 0
3, 31490, Note_on_c, 0, 64, 110
3, 31491, Note_on_c, 0, 60, 110
3, 31777, Note_on_c, 0, 67, 0
3, 31778, Note_on_c, 0, 64, 0
3, 31779, Note_on_c, 0, 60, 0
3, 31824, Note_on_c, 0, 60, 110
3, 31824, Note_on_c, 0, 64, 110
3, 31825, Note_on_c, 0, 67, 110
3, 31850, Note_on_c, 0, 60, 0
3, 31852, Note_on_c, 0, 64, 0
3, 31855, Note_on_c, 0, 67, 0
3, 31872, Note_on_c, 0, 65, 110
3, 31872, Note_on_c, 0, 69, 110
3, 31872, Note_on_c, 0, 60, 110
3, 31873, Note_on_c, 0, 62, 110
3, 32255, Note_on_c, 0, 67, 110
3, 32256, Note_on_c, 0, 60, 0
3, 32256, Note_on_c, 0, 65, 0
3, 32256, Note_on_c, 0, 69, 0
3, 32256, Note_on_c, 0, 65, 110
3, 32257, Note_on_c, 0, 62, 0
3, 32257, Note_on_c, 0, 62, 110
3, 32257, Note_on_c, 0, 59, 110
3, 32639, Note_on_c, 0, 67, 0
3, 32640, Note_on_c, 0, 65, 0
3, 32640, Note_on_c, 0, 59, 0
3, 32640, Note_on_c, 0, 59, 110
3, 32641, Note_on_c, 0, 62, 0
3, 32643, Note_on_c, 0, 64, 110
3, 32643, Note_on_c, 0, 67, 110
3, 32735, Note_on_c, 0, 77, 110
3, 32831, Note_on_c, 0, 77, 0
3, 32833, Note_on_c, 0, 76, 110
3, 32835, Note_on_c, 0, 64, 0
3, 32925, Note_on_c, 0, 74, 110
3, 32929, Note_on_c, 0, 76, 0
3, 33021, Note_on_c, 0, 74, 0
3, 33022, Note_on_c, 0, 64, 110
3, 33024, Note_on_c, 0, 59, 0
3, 33025, Note_on_c, 0, 69, 110
3, 33025, Note_on_c, 0, 60, 110
3, 33027, Note_on_c, 0, 67, 0
3, 33118, Note_on_c, 0, 72, 110
3, 33214, Note_on_c, 0, 72, 0
3, 33309, Note_on_c, 0, 69, 0
3, 33309, Note_on_c, 0, 69, 110
3, 33357, Note_on_c, 0, 69, 0
3, 33358, Note_on_c, 0, 71, 110
3, 33405, Note_on_c, 0, 69, 110
3, 33406, Note_on_c, 0, 71, 0
3, 33406, Note_on_c, 0, 64, 0
3, 33408, Note_on_c, 0, 62, 110
3, 33409, Note_on_c, 0, 60, 0
3, 33409, Note_on_c, 0, 64, 110
3, 33410, Note_on_c, 0, 72, 110
3, 33789, Note_on_c, 0, 69, 0
3, 33792, Note_on_c, 0, 62, 0
3, 33792, Note_on_c, 0, 62, 110
3, 33792, Note_on_c, 0, 65, 110
3, 33793, Note_on_c, 0, 64, 0
3, 33793, Note_on_c, 0, 71, 110
3, 33794, Note_on_c, 0, 72, 0
3, 33795, Note_on_c, 0, 69, 110
3, 33985, Note_on_c, 0, 71, 0
3, 33987, Note_on_c, 0, 74, 110
3, 34175, Note_on_c, 0, 67, 110
3, 34176, Note_on_c, 0, 65, 0
3, 34177, Note_on_c, 0, 71, 110
3, 34179, Note_on_c, 0, 74, 0
3, 34179, Note_on_c, 0, 69, 0
3, 34548, Note_on_c, 0, 71, 0
3, 34559, Note_on_c, 0, 67, 0
3, 34560, Note_on_c, 0, 62, 0
3, 34561, Note_on_c, 0, 67, 110
3, 34562, Note_on_c, 0, 64, 110
3, 34563, Note_on_c, 0, 60, 110
3, 34849, Note_on_c, 0, 67, 0
3, 34850, Note_on_c, 0, 64, 0
3, 34851, Note_on_c, 0, 60, 0
3, 34896, Note_on_c, 0, 60, 110
3, 34896, Note_on_c, 0, 64, 110
3, 34897, Note_on_c, 0, 67, 110
3, 34922, Note_on_c, 0, 60, 0
3, 34924, Note_on_c, 0, 64, 0
3, 34927, Note_on_c, 0, 67, 0
3, 34944, Note_on_c, 0, 65, 110
3, 34944, Note_on_c, 0, 69, 110
3, 34944, Note_on_c, 0, 60, 110
3, 34945, Note_on_c, 0, 62, 110
3, 35327, Note_on_c, 0, 67, 110
3, 35328, Note_on_c, 0, 60, 0
3, 35328, Note_on_c, 0, 65, 0
3, 35328, Note_on_c, 0, 69, 0
3, 35328, Note_on_c, 0, 65, 110
3, 35329, Note_on_c, 0, 62, 0
3, 35329, Note_on_c, 0, 62, 110
3, 35329, Note_on_c, 0, 59, 110
3, 35711, Note_on_c, 0, 67, 0
3, 35712, Note_on_c, 0, 65, 0
3, 35712, Note_on_c, 0, 59, 0
3, 35712, Note_on_c, 0, 59, 110
3, 35713, Note_on_c, 0, 62, 0
3, 35715, Note_on_c, 0, 64, 110
3, 35715, Note_on_c, 0, 67, 110
3, 35807, Note_on_c, 0, 77, 110
3, 35903, Note_on_c, 0, 77, 0
3, 35905, Note_on_c, 0, 76, 110
3, 35907, Note_on_c, 0, 64, 0
3, 35997, Note_on_c, 0, 74, 110
3, 36001, Note_on_c, 0, 76, 0
3, 36093, Note_on_c, 0, 74, 0
3, 36094, Note_on_c, 0, 64, 110
3, 36096, Note_on_c, 0, 59, 0
3, 36097, Note_on_c, 0, 69, 110
3, 36097, Note_on_c, 0, 60, 110
3, 36099, Note_on_c, 0, 67, 0
3, 36190, Note_on_c, 0, 72, 110
3, 36286, Note_on_c, 0, 72, 0
3, 36381, Note_on_c, 0, 69, 0
3, 36381, Note_on_c, 0, 69, 110
3, 36429, Note_on_c, 0, 69, 0
3, 36430, Note_on_c, 0, 71, 110
3, 36477, Note_on_c, 0, 69, 110
3, 36478, Note_on_c, 0, 71, 0
3, 36478, Note_on_c, 0, 64, 0
3, 36480, Note_on_c, 0, 62, 110
3, 36481, Note_on_c, 0, 60, 0
3, 36481, Note_on_c, 0, 64, 110
3, 36482, Note_on_c, 0, 72, 110
3, 36861, Note_on_c, 0, 69, 0
3, 36864, Note_on_c, 0, 62, 0
3, 36864, Note_on_c, 0, 62, 110
3, 36864, Note_on_c, 0, 65, 110
3, 36865, Note_on_c, 0, 64, 0
3, 36865, Note_on_c, 0, 71, 110
3, 36866, Note_on_c, 0, 72, 0
3, 36867, Note_on_c, 0, 69, 110
3, 37057, Note_on_c, 0, 71, 0
3, 37059, Note_on_c, 0, 74, 110
3, 37247, Note_on_c, 0, 69, 0
3, 37247, Note_on_c, 0, 68, 110
3, 37248, Note_on_c, 0, 65, 0
3, 37248, Note_on_c, 0, 62, 0
3, 37248, Note_on_c, 0, 63, 120
3, 37249, Note_on_c, 0, 72, 110
3, 37251, Note_on_c, 0, 74, 0
3, 37620, Note_on_c, 0, 72, 0
3, 37631, Note_on_c, 0, 68, 0
3, 37632, Note_on_c, 0, 63, 0
3, 37633, Note_on_c, 0, 68, 110
3, 37634, Note_on_c, 0, 65, 110
3, 37635, Note_on_c, 0, 61, 110
3, 37921, Note_on_c, 0, 68, 0
3, 37922, Note_on_c, 0, 65, 0
3, 37923, Note_on_c, 0, 61, 0
3, 37968, Note_on_c, 0, 61, 110
3, 37968, Note_on_c, 0, 65, 110
3, 37969, Note_on_c, 0, 68, 110
3, 37994, Note_on_c, 0, 61, 0
3, 37996, Note_on_c, 0, 65, 0
3, 37999, Note_on_c, 0, 68, 0
3, 38016, Note_on_c, 0, 66, 110
3, 38016, Note_on_c, 0, 70, 110
3, 38016, Note_on_c, 0, 61, 110
3, 38017, Note_on_c, 0, 63, 110
3, 38399, Note_on_c, 0, 68, 110
3, 38400, Note_on_c, 0, 61, 0
3, 38400, Note_on_c, 0, 66, 0
3, 38400, Note_on_c, 0, 70, 0
3, 38400, Note_on_c, 0, 66, 110
3, 38401, Note_on_c, 0, 63, 0
3, 38401, Note_on_c, 0, 63, 110
3, 38401, Note_on_c, 0, 60, 110
3, 38783, Note_on_c, 0, 68, 0
3, 38784, Note_on_c, 0, 66, 0
3, 38784, Note_on_c, 0, 60, 0
3, 38784, Note_on_c, 0, 60, 110
3, 38785, Note_on_c, 0, 63, 0
3, 38787, Note_on_c, 0, 65, 110
3, 38787, Note_on_c, 0, 68, 110
3, 38879, Note_on_c, 0, 78, 110
3, 38975, Note_on_c, 0, 78, 0
3, 38977, Note_on_c, 0, 77, 110
3, 38979, Note_on_c, 0, 65, 0
3, 39069, Note_on_c, 0, 75, 110
3, 39073, Note_on_c, 0, 77, 0
3, 39165, Note_on_c, 0, 75, 0
3, 39166, Note_on_c, 0, 65, 110
3, 39168, Note_on_c, 0, 60, 0
3, 39169, Note_on_c, 0, 70, 110
3, 39169, Note_on_c, 0, 61, 110
3, 39171, Note_on_c, 0, 68, 0
3, 39262, Note_on_c, 0, 73, 110
3, 39358, Note_on_c, 0, 73, 0
3, 39453, Note_on_c, 0, 70, 0
3, 39453, Note_on_c, 0, 70, 110
3, 39501, Note_on_c, 0, 70, 0
3, 39502, Note_on_c, 0, 72, 110
3, 39549, Note_on_c, 0, 70, 110
3, 39550, Note_on_c, 0, 72, 0
3, 39550, Note_on_c, 0, 65, 0
3, 39552, Note_on_c, 0, 63, 110
3, 39553, Note_on_c, 0, 61, 0
3, 39553, Note_on_c, 0, 65, 110
3, 39554, Note_on_c, 0, 73, 110
3, 39933, Note_on_c, 0, 70, 0
3, 39936, Note_on_c, 0, 63, 0
3, 39936, Note_on_c, 0, 63, 110
3, 39936, Note_on_c, 0, 66, 110
3, 39937, Note_on_c, 0, 65, 0
3, 39937, Note_on_c, 0, 72, 110
3, 39938, Note_on_c, 0, 73, 0
3, 39939, Note_on_c, 0, 70, 110
3, 40129, Note_on_c, 0, 72, 0
3, 40131, Note_on_c, 0, 75, 110
3, 40319, Note_on_c, 0, 68, 110
3, 40320, Note_on_c, 0, 66, 0
3, 40321, Note_on_c, 0, 72, 110
3, 40323, Note_on_c, 0, 75, 0
3, 40323, Note_on_c, 0, 70, 0
3, 40692, Note_on_c, 0, 72, 0
3, 40703, Note_on_c, 0, 68, 0
3, 40704, Note_on_c, 0, 63, 0
3, 40705, Note_on_c, 0, 68, 110
3, 40706, Note_on_c, 0, 65, 110
3, 40707, Note_on_c, 0, 61, 110
3, 40993, Note_on_c, 0, 68, 0
3, 40994, Note_on_c, 0, 65, 0
3, 40995, Note_on_c, 0, 61, 0
3, 41040, Note_on_c, 0, 61, 110
3, 41040, Note_on_c, 0, 65, 110
3, 41041, Note_on_c, 0, 68, 110
3, 41066, Note_on_c, 0, 61, 0
3, 41068, Note_on_c, 0, 65, 0
3, 41071, Note_on_c, 0, 68, 0
3, 41088, Note_on_c, 0, 66, 110
3, 41088, Note_on_c, 0, 70, 110
3, 41088, Note_on_c, 0, 61, 110
3, 41089, Note_on_c, 0, 63, 110
3, 41471, Note_on_c, 0, 68, 110
3, 41472, Note_on_c, 0, 61, 0
3, 41472, Note_on_c, 0, 66, 0
3, 41472, Note_on_c, 0, 70, 0
3, 41472, Note_on_c, 0, 66, 110
3, 41473, Note_on_c, 0, 63, 0
3, 41473, Note_on_c, 0, 63, 110
3, 41473, Note_on_c, 0, 60, 110
3, 41855, Note_on_c, 0, 68, 0
3, 41856, Note_on_c, 0, 66, 0
3, 41856, Note_on_c, 0, 60, 0
3, 41856, Note_on_c, 0, 60, 110
3, 41857, Note_on_c, 0, 63, 0
3, 41859, Note_on_c, 0, 65, 110
3, 41859, Note_on_c, 0, 68, 110
3, 41951, Note_on_c, 0, 78, 110
3, 42047, Note_on_c, 0, 78, 0
3, 42049, Note_on_c, 0, 77, 110
3, 42051, Note_on_c, 0, 65, 0
3, 42141, Note_on_c, 0, 75, 110
3, 42145, Note_on_c, 0, 77, 0
3, 42237, Note_on_c, 0, 75, 0
3, 42238, Note_on_c, 0, 65, 110
3, 42240, Note_on_c, 0, 60, 0
3, 42241, Note_on_c, 0, 70, 110
3, 42241, Note_on_c, 0, 61, 110
3, 42243, Note_on_c, 0, 68, 0
3, 42334, Note_on_c, 0, 73, 110
3, 42430, Note_on_c, 0, 73, 0
3, 42525, Note_on_c, 0, 70, 0
3, 42525, Note_on_c, 0, 70, 110
3, 42573, Note_on_c, 0, 70, 0
3, 42574, Note_on_c, 0, 72, 110
3, 42621, Note_on_c, 0, 70, 110
3, 42622, Note_on_c, 0, 72, 0
3, 42622, Note_on_c, 0, 65, 0
3, 42624, Note_on_c, 0, 63, 110
3, 42625, Note_on_c, 0, 61, 0
3, 42625, Note_on_c, 0, 65, 110
3, 42626, Note_on_c, 0, 73, 110
3, 43005, Note_on_c, 0, 70, 0
3, 43008, Note_on_c, 0, 63, 0
3, 43008, Note_on_c, 0, 63, 110
3, 43008, Note_on_c, 0, 66, 110
3, 43009, Note_on_c, 0, 65, 0
3, 43009, Note_on_c, 0, 72, 110
3, 43010, Note_on_c, 0, 73, 0
3, 43011, Note_on_c, 0, 70, 110
3, 43201, Note_on_c, 0, 72, 0
3, 43203, Note_on_c, 0, 75, 110
3, 43391, Note_on_c, 0, 68, 110
3, 43392, Note_on_c, 0, 66, 0
3, 43393, Note_on_c, 0, 72, 110
3, 43395, Note_on_c, 0, 75, 0
3, 43395, Note_on_c, 0, 70, 0
3, 43764, Note_on_c, 0, 72, 0
3, 43775, Note_on_c, 0, 68, 0
3, 43776, Note_on_c, 0, 63, 0
3, 43777, Note_on_c, 0, 68, 110
3, 43778, Note_on_c, 0, 65, 110
3, 43779, Note_on_c, 0, 61, 110
3, 44065, Note_on_c, 0, 68, 0
3, 44066, Note_on_c, 0, 65, 0
3, 44067, Note_on_c, 0, 61, 0
3, 44112, Note_on_c, 0, 61, 110
3, 44112, Note_on_c, 0, 65, 110
3, 44113, Note_on_c, 0, 68, 110
3, 44138, Note_on_c, 0, 61, 0
3, 44140, Note_on_c, 0, 65, 0
3, 44143, Note_on_c, 0, 68, 0
3, 44160, Note_on_c, 0, 66, 110
3, 44160, Note_on_c, 0, 70, 110
3, 44160, Note_on_c, 0, 61, 110
3, 44161, Note_on_c, 0, 63, 110
3, 44543, Note_on_c, 0, 68, 110
3, 44544, Note_on_c, 0, 61, 0
3, 44544, Note_on_c, 0, 66, 0
3, 44544, Note_on_c, 0, 70, 0
3, 44544, Note_on_c, 0, 66, 110
3, 44545, Note_on_c, 0, 63, 0
3, 44545, Note_on_c, 0, 63, 110
3, 44545, Note_on_c, 0, 60, 110
3, 44927, Note_on_c, 0, 68, 0
3, 44928, Note_on_c, 0, 66, 0
3, 44928, Note_on_c, 0, 60, 0
3, 44928, Note_on_c, 0, 60, 110
3, 44929, Note_on_c, 0, 63, 0
3, 44931, Note_on_c, 0, 65, 110
3, 44931, Note_on_c, 0, 68, 110
3, 45023, Note_on_c, 0, 78, 110
3, 45119, Note_on_c, 0, 78, 0
3, 45121, Note_on_c, 0, 77, 110
3, 45123, Note_on_c, 0, 65, 0
3, 45213, Note_on_c, 0, 75, 110
3, 45217, Note_on_c, 0, 77, 0
3, 45309, Note_on_c, 0, 75, 0
3, 45310, Note_on_c, 0, 65, 110
3, 45312, Note_on_c, 0, 60, 0
3, 45313, Note_on_c, 0, 70, 110
3, 45313, Note_on_c, 0, 61, 110
3, 45315, Note_on_c, 0, 68, 0
3, 45406, Note_on_c, 0, 73, 110
3, 45502, Note_on_c, 0, 73, 0
3, 45597, Note_on_c, 0, 70, 0
3, 45597, Note_on_c, 0, 70, 110
3, 45645, Note_on_c, 0, 70, 0
3, 45646, Note_on_c, 0, 72, 110
3, 45693, Note_on_c, 0, 70, 110
3, 45694, Note_on_c, 0, 72, 0
3, 45694, Note_on_c, 0, 65, 0
3, 45696, Note_on_c, 0, 63, 110
3, 45697, Note_on_c, 0, 61, 0
3, 45697, Note_on_c, 0, 65, 110
3, 45698, Note_on_c, 0, 73, 110
3, 46077, Note_on_c, 0, 70, 0
3, 46080, Note_on_c, 0, 63, 0
3, 46080, Note_on_c, 0, 63, 110
3, 46080, Note_on_c, 0, 66, 110
3, 46081, Note_on_c, 0, 65, 0
3, 46081, Note_on_c, 0, 72, 110
3, 46082, Note_on_c, 0, 73, 0
3, 46083, Note_on_c, 0, 70, 110
3, 46273, Note_on_c, 0, 72, 0
3, 46275, Note_on_c, 0, 75, 110
3, 46463, Note_on_c, 0, 68, 110
3, 46464, Note_on_c, 0, 66, 0
3, 46465, Note_on_c, 0, 72, 110
3, 46467, Note_on_c, 0, 75, 0
3, 46467, Note_on_c, 0, 70, 0
3, 46836, Note_on_c, 0, 72, 0
3, 46847, Note_on_c, 0, 68, 0
3, 46848, Note_on_c, 0, 63, 0
3, 46849, Note_on_c, 0, 68, 110
3, 46850, Note_on_c, 0, 65, 110
3, 46851, Note_on_c, 0, 61, 110
3, 47137, Note_on_c, 0, 68, 0
3, 47138, Note_on_c, 0, 65, 0
3, 47139, Note_on_c, 0, 61, 0
3, 47184, Note_on_c, 0, 61, 110
3, 47184, Note_on_c, 0, 65, 110
3, 47185, Note_on_c, 0, 68, 110
3, 47210, Note_on_c, 0, 61, 0
3, 47212, Note_on_c, 0, 65, 0
3, 47215, Note_on_c, 0, 68, 0
3, 47232, Note_on_c, 0, 66, 110
3, 47232, Note_on_c, 0, 70, 110
3, 47232, Note_on_c, 0, 61, 110
3, 47233, Note_on_c, 0, 63, 110
3, 47615, Note_on_c, 0, 68, 110
3, 47616, Note_on_c, 0, 61, 0
3, 47616, Note_on_c, 0, 66, 0
3, 47616, Note_on_c, 0, 70, 0
3, 47616, Note_on_c, 0, 66, 110
3, 47617, Note_on_c, 0, 63, 0
3, 47617, Note_on_c, 0, 63, 110
3, 47617, Note_on_c, 0, 60, 110
3, 47999, Note_on_c, 0, 68, 0
3, 48000, Note_on_c, 0, 66, 0
3, 48000, Note_on_c, 0, 60, 0
3, 48000, Note_on_c, 0, 60, 110
3, 48001, Note_on_c, 0, 63, 0
3, 48003, Note_on_c, 0, 65, 110
3, 48003, Note_on_c, 0, 68, 110
3, 48095, Note_on_c, 0, 78, 110
3, 48191, Note_on_c, 0, 78, 0
3, 48193, Note_on_c, 0, 77, 110
3, 48195, Note_on_c, 0, 65, 0
3, 48285, Note_on_c, 0, 75, 110
3, 48289, Note_on_c, 0, 77, 0
3, 48381, Note_on_c, 0, 75, 0
3, 48382, Note_on_c, 0, 65, 110
3, 48384, Note_on_c, 0, 60, 0
3, 48385, Note_on_c, 0, 70, 110
3, 48385, Note_on_c, 0, 61, 110
3, 48387, Note_on_c, 0, 68, 0
3, 48478, Note_on_c, 0, 73, 110
3, 48574, Note_on_c, 0, 73, 0
3, 48669, Note_on_c, 0, 70, 0
3, 48669, Note_on_c, 0, 70, 110
3, 48717, Note_on_c, 0, 70, 0
3, 48718, Note_on_c, 0, 72, 110
3, 48765, Note_on_c, 0, 70, 110
3, 48766, Note_on_c, 0, 72, 0
3, 48766, Note_on_c, 0, 65, 0
3, 48768, Note_on_c, 0, 63, 110
3, 48769, Note_on_c, 0, 61, 0
3, 48769, Note_on_c, 0, 65, 110
3, 48770, Note_on_c, 0, 73, 110
3, 49149, Note_on_c, 0, 70, 0
3, 49152, Note_on_c, 0, 63, 0
3, 49152, Note_on_c, 0, 63, 110
3, 49152, Note_on_c, 0, 66, 110
3, 49153, Note_on_c, 0, 65, 0
3, 49153, Note_on_c, 0, 72, 110
3, 49154, Note_on_c, 0, 73, 0
3, 49155, Note_on_c, 0, 70, 110
3, 49345, Note_on_c, 0, 72, 0
3, 49347, Note_on_c, 0, 75, 110
3, 49535, Note_on_c, 0, 68, 110
3, 49536, Note_on_c, 0, 66, 0
3, 49537, Note_on_c, 0, 72, 110
3, 49539, Note_on_c, 0, 75, 0
3, 49539, Note_on_c, 0, 70, 0
3, 49908, Note_on_c, 0, 72, 0
3, 49919, Note_on_c, 0, 68, 0
3, 49920, Note_on_c, 0, 63, 0
3, 49921, Note_on_c, 0, 68, 110
3, 49922, Note_on_c, 0, 65, 110
3, 49923, Note_on_c, 0, 61, 110
3, 50209, Note_on_c, 0, 68, 0
3, 50210, Note_on_c, 0, 65, 0
3, 50211, Note_on_c, 0, 61, 0
3, 50256, Note_on_c, 0, 61, 104
3, 50256, Note_on_c, 0, 65, 104
3, 50257, Note_on_c, 0, 68, 104
3, 50282, Note_on_c, 0, 61, 0
3, 50284, Note_on_c, 0, 65, 0
3, 50287, Note_on_c, 0, 68, 0
3, 50304, Note_on_c, 0, 66, 103
3, 50304, Note_on_c, 0, 70, 103
3, 50304, Note_on_c, 0, 61, 103
3, 50305, Note_on_c, 0, 63, 103
3, 50687, Note_on_c, 0, 68, 95
3, 50688, Note_on_c, 0, 61, 0
3, 50688, Note_on_c, 0, 66, 0
3, 50688, Note_on_c, 0, 70, 0
3, 50688, Note_on_c, 0, 66, 90
3, 50689, Note_on_c, 0, 63, 0
3, 50689, Note_on_c, 0, 63, 90
3, 50689, Note_on_c, 0, 60, 90
3, 51071, Note_on_c, 0, 68, 0
3, 51072, Note_on_c, 0, 66, 0
3, 51072, Note_on_c, 0, 60, 0
3, 51072, Note_on_c, 0, 60, 79
3, 51073, Note_on_c, 0, 63, 0
3, 51075, Note_on_c, 0, 65, 79
3, 51075, Note_on_c, 0, 68, 79
3, 51167, Note_on_c, 0, 78, 76
3, 51263, Note_on_c, 0, 78, 0
3, 51265, Note_on_c, 0, 77, 74
3, 51267, Note_on_c, 0, 65, 0
3, 51357, Note_on_c, 0, 75, 71
3, 51361, Note_on_c, 0, 77, 0
3, 51453, Note_on_c, 0, 75, 0
3, 51454, Note_on_c, 0, 65, 68
3, 51456, Note_on_c, 0, 60, 0
3, 51457, Note_on_c, 0, 70, 68
3, 51457, Note_on_c, 0, 61, 68
3, 51459, Note_on_c, 0, 68, 0
3, 51550, Note_on_c, 0, 73, 65
3, 51646, Note_on_c, 0, 73, 0
3, 51741, Note_on_c, 0, 70, 0
3, 51741, Note_on_c, 0, 70, 60
3, 51789, Note_on_c, 0, 70, 0
3, 51790, Note_on_c, 0, 72, 58
3, 51837, Note_on_c, 0, 70, 57
3, 51838, Note_on_c, 0, 72, 0
3, 51838, Note_on_c, 0, 65, 0
3, 51840, Note_on_c, 0, 63, 57
3, 51841, Note_on_c, 0, 61, 0
3, 51841, Note_on_c, 0, 65, 57
3, 51842, Note_on_c, 0, 73, 57
3, 52221, Note_on_c, 0, 70, 0
3, 52224, Note_on_c, 0, 63, 0
3, 52224, Note_on_c, 0, 63, 46
3, 52224, Note_on_c, 0, 66, 46
3, 52225, Note_on_c, 0, 65, 0
3, 52225, Note_on_c, 0, 72, 45
3, 52226, Note_on_c, 0, 73, 0
3, 52227, Note_on_c, 0, 70, 45
3, 52417, Note_on_c, 0, 72, 0
3, 52419, Note_on_c, 0, 75, 40
3, 52607, Note_on_c, 0, 68, 34
3, 52608, Note_on_c, 0, 66, 0
3, 52609, Note_on_c, 0, 72, 34
3, 52611, Note_on_c, 0, 75, 0
3, 52611, Note_on_c, 0, 70, 0
3, 52980, Note_on_c, 0, 72, 0
3, 52991, Note_on_c, 0, 68, 0
3, 52992, Note_on_c, 0, 63, 0
3, 52993, Note_on_c, 0, 68, 23
3, 52994, Note_on_c, 0, 65, 23
3, 52995, Note_on_c, 0, 61, 23
3, 53281, Note_on_c, 0, 68, 0
3, 53282, Note_on_c, 0, 65, 0
3, 53283, Note_on_c, 0, 61, 0
3, 53328, Note_on_c, 0, 61, 13
3, 53328, Note_on_c, 0, 65, 13
3, 53329, Note_on_c, 0, 68, 13
3, 53354, Note_on_c, 0, 61, 0
3, 53356, Note_on_c, 0, 65, 0
3, 53359, Note_on_c, 0, 68, 0
3, 53376, Note_on_c, 0, 66, 12
3, 53376, Note_on_c, 0, 70, 12
3, 53376, Note_on_c, 0, 61, 12
3, 53377, Note_on_c, 0, 63, 12
3, 53759, Note_on_c, 0, 68, 1
3, 53760, Note_on_c, 0, 61, 0
3, 53760, Note_on_c, 0, 66, 0
3, 53760, Note_on_c, 0, 70, 0
3, 53760, Note_on_c, 0, 66, 1
3, 53761, Note_on_c, 0, 63, 0
3, 53761, Note_on_c, 0, 63, 0
3, 53761, Note_on_c, 0, 63, 0
3, 53761, Note_on_c, 0, 63, 0
3, 53761, Note_on_c, 0, 63, 0
3, 53761, Note_on_c, 0, 60, 0
3, 53761, Note_on_c, 0, 60, 0
3, 53761, Note_on_c, 0, 60, 0
3, 53761, Note_on_c, 0, 60, 0
3, 54143, Note_on_c, 0, 68, 0
3, 54144, Note_on_c, 0, 66, 0
3, 54144, Note_on_c, 0, 60, 0
3, 54144, Note_on_c, 0, 60, 0
3, 54144, Note_on_c, 0, 60, 0
3, 54144, Note_on_c, 0, 60, 0
3, 54145, Note_on_c, 0, 63, 0
3, 54145, Note_on_c, 0, 63, 0
3, 54145, Note_on_c, 0, 63, 0
3, 54145, Note_on_c, 0, 63, 0
3, 54145, End_track
4, 0, Start_track
4, 0, MIDI_port, 0
4, 0, Title_t, "bass"
4, 0, Control_c, 1, 0, 0
4, 0, Control_c, 1, 32, 0
4, 0, Program_c, 1, 33
4, 0, Control_c, 1, 7, 90
4, 0, Control_c, 1, 10, 64
4, 36, Control_c, 1, 1, 0
4, 72, Control_c, 1, 11, 127
4, 84, Control_c, 1, 64, 0
4, 108, Control_c, 1, 91, 50
4, 120, Control_c, 1, 93, 0
4, 7680, Note_on_c, 1, 36, 100
4, 7992, Note_on_c, 1, 36, 0
4, 8016, Note_on_c, 1, 36, 100
4, 8040, Note_on_c, 1, 36, 0
4, 8064, Note_on_c, 1, 35, 100
4, 8448, Note_on_c, 1, 35, 0
4, 8448, Note_on_c, 1, 33, 100
4, 8832, Note_on_c, 1, 33, 0
4, 8832, Note_on_c, 1, 31, 100
4, 9216, Note_on_c, 1, 31, 0
4, 9216, Note_on_c, 1, 29, 100
4, 9600, Note_on_c, 1, 29, 0
4, 9600, Note_on_c, 1, 36, 100
4, 9984, Note_on_c, 1, 36, 0
4, 9984, Note_on_c, 1, 29, 100
4, 10368, Note_on_c, 1, 29, 0
4, 10368, Note_on_c, 1, 31, 100
4, 10752, Note_on_c, 1, 31, 0
4, 10752, Note_on_c, 1, 29, 100
4, 11040, Note_on_c, 1, 29, 0
4, 11088, Note_on_c, 1, 29, 100
4, 11114, Note_on_c, 1, 29, 0
4, 11136, Note_on_c, 1, 28, 100
4, 11496, Note_on_c, 1, 28, 0
4, 11520, Note_on_c, 1, 34, 100
4, 11808, Note_on_c, 1, 34, 0
4, 11856, Note_on_c, 1, 34, 100
4, 11885, Note_on_c, 1, 34, 0
4, 11904, Note_on_c, 1, 29, 100
4, 12288, Note_on_c, 1, 29, 0
4, 12288, Note_on_c, 1, 26, 100
4, 12576, Note_on_c, 1, 26, 0
4, 12624, Note_on_c, 1, 26, 100
4, 12654, Note_on_c, 1, 26, 0
4, 12672, Note_on_c, 1, 28, 100
4, 13032, Note_on_c, 1, 28, 0
4, 13056, Note_on_c, 1, 29, 100
4, 13344, Note_on_c, 1, 29, 0
4, 13392, Note_on_c, 1, 29, 100
4, 13424, Note_on_c, 1, 29, 0
4, 13440, Note_on_c, 1, 31, 100
4, 13680, Note_on_c, 1, 31, 0
4, 13680, Note_on_c, 1, 26, 100
4, 13728, Note_on_c, 1, 26, 0
4, 13728, Note_on_c, 1, 38, 100
4, 13776, Note_on_c, 1, 38, 0
4, 13776, Note_on_c, 1, 33, 100
4, 13824, Note_on_c, 1, 33, 0
4, 13824, Note_on_c, 1, 31, 100
4, 14544, Note_on_c, 1, 31, 0
4, 14592, Note_on_c, 1, 36, 100
4, 14880, Note_on_c, 1, 36, 0
4, 14928, Note_on_c, 1, 28, 100
4, 14955, Note_on_c, 1, 28, 0
4, 14976, Note_on_c, 1, 29, 100
4, 15360, Note_on_c, 1, 29, 0
4, 15360, Note_on_c, 1, 31, 100
4, 15744, Note_on_c, 1, 31, 0
4, 15744, Note_on_c, 1, 28, 100
4, 15936, Note_on_c, 1, 28, 0
4, 15936, Note_on_c, 1, 32, 100
4, 16128, Note_on_c, 1, 32, 0
4, 16128, Note_on_c, 1, 33, 100
4, 16416, Note_on_c, 1, 33, 0
4, 16464, Note_on_c, 1, 33, 100
4, 16498, Note_on_c, 1, 33, 0
4, 16512, Note_on_c, 1, 31, 100
4, 16800, Note_on_c, 1, 31, 0
4, 16848, Note_on_c, 1, 31, 100
4, 16876, Note_on_c, 1, 31, 0
4, 16896, Note_on_c, 1, 29, 100
4, 17184, Note_on_c, 1, 29, 0
4, 17232, Note_on_c, 1, 29, 100
4, 17267, Note_on_c, 1, 29, 0
4, 17280, Note_on_c, 1, 31, 100
4, 17664, Note_on_c, 1, 31, 0
4, 17664, Note_on_c, 1, 36, 100
4, 17952, Note_on_c, 1, 36, 0
4, 18000, Note_on_c, 1, 28, 100
4, 18027, Note_on_c, 1, 28, 0
4, 18048, Note_on_c, 1, 29, 100
4, 18432, Note_on_c, 1, 29, 0
4, 18432, Note_on_c, 1, 31, 100
4, 18816, Note_on_c, 1, 31, 0
4, 18816, Note_on_c, 1, 28, 100
4, 19008, Note_on_c, 1, 28, 0
4, 19008, Note_on_c, 1, 32, 100
4, 19200, Note_on_c, 1, 32, 0
4, 19200, Note_on_c, 1, 33, 100
4, 19488, Note_on_c, 1, 33, 0
4, 19536, Note_on_c, 1, 33, 100
4, 19570, Note_on_c, 1, 33, 0
4, 19584, Note_on_c, 1, 31, 100
4, 19872, Note_on_c, 1, 31, 0
4, 19920, Note_on_c, 1, 31, 100
4, 19948, Note_on_c, 1, 31, 0
4, 19968, Note_on_c, 1, 29, 100
4, 20256, Note_on_c, 1, 29, 0
4, 20304, Note_on_c, 1, 29, 100
4, 20339, Note_on_c, 1, 29, 0
4, 20352, Note_on_c, 1, 31, 100
4, 20736, Note_on_c, 1, 31, 0
4, 20736, Note_on_c, 1, 36, 100
4, 21504, Note_on_c, 1, 36, 0
4, 21504, Note_on_c, 1, 36, 100
4, 21816, Note_on_c, 1, 36, 0
4, 21840, Note_on_c, 1, 36, 100
4, 21864, Note_on_c, 1, 36, 0
4, 21888, Note_on_c, 1, 35, 100
4, 22272, Note_on_c, 1, 35, 0
4, 22272, Note_on_c, 1, 33, 100
4, 22656, Note_on_c, 1, 33, 0
4, 22656, Note_on_c, 1, 31, 100
4, 22944, Note_on_c, 1, 31, 0
4, 22944, Note_on_c, 1, 33, 100
4, 22992, Note_on_c, 1, 33, 0
4, 22992, Note_on_c, 1, 31, 95
4, 23040, Note_on_c, 1, 31, 0
4, 23040, Note_on_c, 1, 29, 100
4, 23424, Note_on_c, 1, 29, 0
4, 23424, Note_on_c, 1, 36, 100
4, 23712, Note_on_c, 1, 36, 0
4, 23712, Note_on_c, 1, 30, 90
4, 23760, Note_on_c, 1, 30, 0
4, 23760, Note_on_c, 1, 36, 100
4, 23808, Note_on_c, 1, 36, 0
4, 23808, Note_on_c, 1, 29, 100
4, 24192, Note_on_c, 1, 29, 0
4, 24192, Note_on_c, 1, 31, 100
4, 24384, Note_on_c, 1, 31, 0
4, 24384, Note_on_c, 1, 35, 97
4, 24576, Note_on_c, 1, 35, 0
4, 24576, Note_on_c, 1, 36, 100
4, 24888, Note_on_c, 1, 36, 0
4, 24912, Note_on_c, 1, 36, 100
4, 24936, Note_on_c, 1, 36, 0
4, 24960, Note_on_c, 1, 35, 100
4, 25200, Note_on_c, 1, 35, 0
4, 25200, Note_on_c, 1, 31, 100
4, 25248, Note_on_c, 1, 31, 0
4, 25248, Note_on_c, 1, 35, 100
4, 25296, Note_on_c, 1, 35, 0
4, 25296, Note_on_c, 1, 31, 100
4, 25344, Note_on_c, 1, 31, 0
4, 25344, Note_on_c, 1, 33, 100
4, 25728, Note_on_c, 1, 33, 0
4, 25728, Note_on_c, 1, 31, 100
4, 26016, Note_on_c, 1, 31, 0
4, 26016, Note_on_c, 1, 33, 100
4, 26064, Note_on_c, 1, 33, 0
4, 26064, Note_on_c, 1, 31, 95
4, 26112, Note_on_c, 1, 31, 0
4, 26112, Note_on_c, 1, 29, 100
4, 26304, Note_on_c, 1, 29, 0
4, 26304, Note_on_c, 1, 31, 100
4, 26496, Note_on_c, 1, 31, 0
4, 26496, Note_on_c, 1, 36, 100
4, 26784, Note_on_c, 1, 36, 0
4, 26784, Note_on_c, 1, 30, 90
4, 26832, Note_on_c, 1, 30, 0
4, 26832, Note_on_c, 1, 36, 100
4, 26880, Note_on_c, 1, 36, 0
4, 26880, Note_on_c, 1, 29, 100
4, 27072, Note_on_c, 1, 29, 0
4, 27072, Note_on_c, 1, 36, 100
4, 27264, Note_on_c, 1, 36, 0
4, 27264, Note_on_c, 1, 31, 100
4, 27648, Note_on_c, 1, 31, 0
4, 27648, Note_on_c, 1, 29, 100
4, 27936, Note_on_c, 1, 29, 0
4, 27984, Note_on_c, 1, 29, 100
4, 28010, Note_on_c, 1, 29, 0
4, 28032, Note_on_c, 1, 28, 100
4, 28392, Note_on_c, 1, 28, 0
4, 28416, Note_on_c, 1, 34, 100
4, 28704, Note_on_c, 1, 34, 0
4, 28752, Note_on_c, 1, 34, 100
4, 28781, Note_on_c, 1, 34, 0
4, 28800, Note_on_c, 1, 29, 100
4, 29184, Note_on_c, 1, 29, 0
4, 29184, Note_on_c, 1, 26, 100
4, 29472, Note_on_c, 1, 26, 0
4, 29520, Note_on_c, 1, 26, 100
4, 29550, Note_on_c, 1, 26, 0
4, 29568, Note_on_c, 1, 28, 100
4, 29928, Note_on_c, 1, 28, 0
4, 29952, Note_on_c, 1, 29, 100
4, 30240, Note_on_c, 1, 29, 0
4, 30288, Note_on_c, 1, 29, 100
4, 30320, Note_on_c, 1, 29, 0
4, 30336, Note_on_c, 1, 31, 100
4, 30576, Note_on_c, 1, 31, 0
4, 30576, Note_on_c, 1, 26, 100
4, 30624, Note_on_c, 1, 26, 0
4, 30624, Note_on_c, 1, 38, 100
4, 30672, Note_on_c, 1, 38, 0
4, 30672, Note_on_c, 1, 33, 100
4, 30720, Note_on_c, 1, 33, 0
4, 30720, Note_on_c, 1, 31, 100
4, 31080, Note_on_c, 1, 31, 0
4, 31488, Note_on_c, 1, 36, 100
4, 31776, Note_on_c, 1, 36, 0
4, 31824, Note_on_c, 1, 28, 100
4, 31851, Note_on_c, 1, 28, 0
4, 31872, Note_on_c, 1, 29, 100
4, 32256, Note_on_c, 1, 29, 0
4, 32256, Note_on_c, 1, 31, 100
4, 32640, Note_on_c, 1, 31, 0
4, 32640, Note_on_c, 1, 28, 100
4, 32832, Note_on_c, 1, 28, 0
4, 32832, Note_on_c, 1, 32, 100
4, 33024, Note_on_c, 1, 32, 0
4, 33024, Note_on_c, 1, 33, 100
4, 33216, Note_on_c, 1, 33, 0
4, 33216, Note_on_c, 1, 31, 100
4, 33408, Note_on_c, 1, 31, 0
4, 33408, Note_on_c, 1, 30, 100
4, 33696, Note_on_c, 1, 30, 0
4, 33744, Note_on_c, 1, 30, 100
4, 33772, Note_on_c, 1, 30, 0
4, 33792, Note_on_c, 1, 29, 100
4, 34080, Note_on_c, 1, 29, 0
4, 34128, Note_on_c, 1, 29, 100
4, 34163, Note_on_c, 1, 29, 0
4, 34176, Note_on_c, 1, 31, 100
4, 34368, Note_on_c, 1, 31, 0
4, 34368, Note_on_c, 1, 35, 100
4, 34560, Note_on_c, 1, 35, 0
4, 34560, Note_on_c, 1, 36, 100
4, 34848, Note_on_c, 1, 36, 0
4, 34896, Note_on_c, 1, 28, 100
4, 34923, Note_on_c, 1, 28, 0
4, 34944, Note_on_c, 1, 29, 100
4, 35328, Note_on_c, 1, 29, 0
4, 35328, Note_on_c, 1, 31, 100
4, 35712, Note_on_c, 1, 31, 0
4, 35712, Note_on_c, 1, 28, 100
4, 35904, Note_on_c, 1, 28, 0
4, 35904, Note_on_c, 1, 32, 100
4, 36096, Note_on_c, 1, 32, 0
4, 36096, Note_on_c, 1, 33, 100
4, 36288, Note_on_c, 1, 33, 0
4, 36288, Note_on_c, 1, 31, 100
4, 36480, Note_on_c, 1, 31, 0
4, 36480, Note_on_c, 1, 30, 100
4, 36768, Note_on_c, 1, 30, 0
4, 36816, Note_on_c, 1, 29, 100
4, 36844, Note_on_c, 1, 29, 0
4, 36864, Note_on_c, 1, 29, 100
4, 37152, Note_on_c, 1, 29, 0
4, 37200, Note_on_c, 1, 29, 100
4, 37235, Note_on_c, 1, 29, 0
4, 37248, Note_on_c, 1, 32, 100
4, 37632, Note_on_c, 1, 32, 0
4, 37632, Note_on_c, 1, 37, 100
4, 37920, Note_on_c, 1, 37, 0
4, 37968, Note_on_c, 1, 29, 100
4, 37995, Note_on_c, 1, 29, 0
4, 38016, Note_on_c, 1, 30, 100
4, 38400, Note_on_c, 1, 30, 0
4, 38400, Note_on_c, 1, 32, 100
4, 38784, Note_on_c, 1, 32, 0
4, 38784, Note_on_c, 1, 29, 100
4, 38976, Note_on_c, 1, 29, 0
4, 38976, Note_on_c, 1, 33, 100
4, 39168, Note_on_c, 1, 33, 0
4, 39168, Note_on_c, 1, 34, 100
4, 39360, Note_on_c, 1, 34, 0
4, 39360, Note_on_c, 1, 32, 100
4, 39552, Note_on_c, 1, 32, 0
4, 39552, Note_on_c, 1, 31, 100
4, 39840, Note_on_c, 1, 31, 0
4, 39888, Note_on_c, 1, 30, 100
4, 39916, Note_on_c, 1, 30, 0
4, 39936, Note_on_c, 1, 30, 100
4, 40224, Note_on_c, 1, 30, 0
4, 40272, Note_on_c, 1, 30, 100
4, 40307, Note_on_c, 1, 30, 0
4, 40320, Note_on_c, 1, 32, 100
4, 40704, Note_on_c, 1, 32, 0
4, 40704, Note_on_c, 1, 29, 103
4, 40992, Note_on_c, 1, 29, 0
4, 41040, Note_on_c, 1, 29, 106
4, 41065, Note_on_c, 1, 29, 0
4, 41088, Note_on_c, 1, 30, 106
4, 41424, Note_on_c, 1, 30, 0
4, 41472, Note_on_c, 1, 32, 106
4, 41664, Note_on_c, 1, 32, 0
4, 41664, Note_on_c, 1, 30, 106
4, 41856, Note_on_c, 1, 30, 0
4, 41856, Note_on_c, 1, 29, 106
4, 42048, Note_on_c, 1, 29, 0
4, 42048, Note_on_c, 1, 36, 106
4, 42240, Note_on_c, 1, 36, 0
4, 42240, Note_on_c, 1, 34, 106
4, 42432, Note_on_c, 1, 34, 0
4, 42432, Note_on_c, 1, 32, 106
4, 42624, Note_on_c, 1, 32, 0
4, 42624, Note_on_c, 1, 31, 106
4, 43008, Note_on_c, 1, 31, 0
4, 43008, Note_on_c, 1, 27, 106
4, 43296, Note_on_c, 1, 27, 0
4, 43344, Note_on_c, 1, 27, 106
4, 43380, Note_on_c, 1, 27, 0
4, 43392, Note_on_c, 1, 32, 106
4, 43584, Note_on_c, 1, 32, 0
4, 43584, Note_on_c, 1, 39, 106
4, 43680, Note_on_c, 1, 39, 0
4, 43680, Note_on_c, 1, 32, 106
4, 43776, Note_on_c, 1, 32, 0
4, 43776, Note_on_c, 1, 37, 100
4, 44064, Note_on_c, 1, 37, 0
4, 44112, Note_on_c, 1, 29, 100
4, 44139, Note_on_c, 1, 29, 0
4, 44160, Note_on_c, 1, 30, 100
4, 44544, Note_on_c, 1, 30, 0
4, 44544, Note_on_c, 1, 32, 100
4, 44928, Note_on_c, 1, 32, 0
4, 44928, Note_on_c, 1, 29, 100
4, 45120, Note_on_c, 1, 29, 0
4, 45120, Note_on_c, 1, 33, 100
4, 45312, Note_on_c, 1, 33, 0
4, 45312, Note_on_c, 1, 34, 100
4, 45504, Note_on_c, 1, 34, 0
4, 45504, Note_on_c, 1, 32, 100
4, 45696, Note_on_c, 1, 32, 0
4, 45696, Note_on_c, 1, 31, 100
4, 45984, Note_on_c, 1, 31, 0
4, 46032, Note_on_c, 1, 30, 100
4, 46060, Note_on_c, 1, 30, 0
4, 46080, Note_on_c, 1, 30, 100
4, 46368, Note_on_c, 1, 30, 0
4, 46416, Note_on_c, 1, 30, 100
4, 46451, Note_on_c, 1, 30, 0
4, 46464, Note_on_c, 1, 32, 100
4, 46848, Note_on_c, 1, 32, 0
4, 46848, Note_on_c, 1, 37, 100
4, 47136, Note_on_c, 1, 37, 0
4, 47184, Note_on_c, 1, 29, 100
4, 47211, Note_on_c, 1, 29, 0
4, 47232, Note_on_c, 1, 30, 100
4, 47616, Note_on_c, 1, 30, 0
4, 47616, Note_on_c, 1, 32, 100
4, 48000, Note_on_c, 1, 32, 0
4, 48000, Note_on_c, 1, 29, 100
4, 48192, Note_on_c, 1, 29, 0
4, 48192, Note_on_c, 1, 33, 100
4, 48384, Note_on_c, 1, 33, 0
4, 48384, Note_on_c, 1, 34, 100
4, 48576, Note_on_c, 1, 34, 0
4, 48576, Note_on_c, 1, 32, 100
4, 48768, Note_on_c, 1, 32, 0
4, 48768, Note_on_c, 1, 31, 100
4, 49056, Note_on_c, 1, 31, 0
4, 49104, Note_on_c, 1, 30, 100
4, 49132, Note_on_c, 1, 30, 0
4, 49152, Note_on_c, 1, 30, 100
4, 49440, Note_on_c, 1, 30, 0
4, 49488, Note_on_c, 1, 30, 100
4, 49523, Note_on_c, 1, 30, 0
4, 49536, Note_on_c, 1, 32, 100
4, 49920, Note_on_c, 1, 32, 0
4, 49920, Note_on_c, 1, 37, 100
4, 50208, Note_on_c, 1, 37, 0
4, 50256, Note_on_c, 1, 29, 94
4, 50283, Note_on_c, 1, 29, 0
4, 50304, Note_on_c, 1, 30, 93
4, 50688, Note_on_c, 1, 30, 0
4, 50688, Note_on_c, 1, 32, 85
4, 51072, Note_on_c, 1, 32, 0
4, 51072, Note_on_c, 1, 29, 75
4, 51264, Note_on_c, 1, 29, 0
4, 51264, Note_on_c, 1, 33, 70
4, 51456, Note_on_c, 1, 33, 0
4, 51456, Note_on_c, 1, 34, 64
4, 51648, Note_on_c, 1, 34, 0
4, 51648, Note_on_c, 1, 32, 59
4, 51840, Note_on_c, 1, 32, 0
4, 51840, Note_on_c, 1, 31, 54
4, 52128, Note_on_c, 1, 31, 0
4, 52176, Note_on_c, 1, 30, 44
4, 52204, Note_on_c, 1, 30, 0
4, 52224, Note_on_c, 1, 30, 43
4, 52512, Note_on_c, 1, 30, 0
4, 52560, Note_on_c, 1, 30, 34
4, 52595, Note_on_c, 1, 30, 0
4, 52608, Note_on_c, 1, 32, 32
4, 52992, Note_on_c, 1, 32, 0
4, 52992, Note_on_c, 1, 37, 22
4, 53280, Note_on_c, 1, 37, 0
4, 53328, Note_on_c, 1, 29, 12
4, 53355, Note_on_c, 1, 29, 0
4, 53376, Note_on_c, 1, 30, 11
4, 53760, Note_on_c, 1, 30, 0
4, 53760, Note_on_c, 1, 32, 1
4, 54144, Note_on_c, 1, 32, 0
4, 54144, End_track
5, 0, Start_track
5, 0, MIDI_port, 0
5, 0, Title_t, "elec piano 2"
5, 0, Control_c, 2, 0, 0
5, 0, Control_c, 2, 32, 0
5, 0, Program_c, 2, 5
5, 0, Control_c, 2, 7, 60
5, 0, Control_c, 2, 10, 84
5, 36, Control_c, 2, 1, 0
5, 72, Control_c, 2, 11, 127
5, 84, Control_c, 2, 64, 0
5, 96, Control_c, 2, 67, 0
5, 108, Control_c, 2, 91, 52
5, 120, Control_c, 2, 93, 32
5, 765, Note_on_c, 2, 74, 95
5, 771, Note_on_c, 2, 48, 111
5, 776, Control_c, 2, 64, 127
5, 813, Note_on_c, 2, 74, 0
5, 816, Note_on_c, 2, 76, 118
5, 867, Note_on_c, 2, 48, 0
5, 867, Note_on_c, 2, 55, 110
5, 913, Note_on_c, 2, 60, 103
5, 915, Note_on_c, 2, 55, 0
5, 959, Note_on_c, 2, 72, 109
5, 960, Note_on_c, 2, 76, 0
5, 1007, Note_on_c, 2, 72, 0
5, 1009, Note_on_c, 2, 71, 124
5, 1056, Note_on_c, 2, 67, 109
5, 1057, Note_on_c, 2, 71, 0
5, 1057, Note_on_c, 2, 60, 0
5, 1101, Note_on_c, 2, 67, 0
5, 1101, Note_on_c, 2, 67, 123
5, 1138, Control_c, 2, 64, 0
5, 1152, Note_on_c, 2, 41, 114
5, 1165, Control_c, 2, 64, 127
5, 1197, Note_on_c, 2, 67, 0
5, 1200, Note_on_c, 2, 69, 110
5, 1248, Note_on_c, 2, 53, 117
5, 1296, Note_on_c, 2, 53, 0
5, 1296, Note_on_c, 2, 69, 0
5, 1296, Note_on_c, 2, 60, 111
5, 1368, Note_on_c, 2, 60, 0
5, 1390, Note_on_c, 2, 60, 100
5, 1438, Note_on_c, 2, 60, 0
5, 1443, Note_on_c, 2, 62, 117
5, 1488, Note_on_c, 2, 64, 118
5, 1491, Note_on_c, 2, 62, 0
5, 1501, Control_c, 2, 64, 0
5, 1533, Note_on_c, 2, 47, 122
5, 1535, Note_on_c, 2, 62, 103
5, 1536, Note_on_c, 2, 64, 0
5, 1536, Note_on_c, 2, 41, 0
5, 1536, Control_c, 2, 64, 127
5, 1581, Note_on_c, 2, 47, 0
5, 1582, Note_on_c, 2, 50, 121
5, 1629, Note_on_c, 2, 55, 102
5, 1630, Note_on_c, 2, 50, 0
5, 1677, Note_on_c, 2, 55, 0
5, 1680, Note_on_c, 2, 57, 101
5, 1776, Note_on_c, 2, 57, 0
5, 1776, Note_on_c, 2, 59, 112
5, 1823, Note_on_c, 2, 62, 0
5, 1824, Note_on_c, 2, 59, 0
5, 1871, Note_on_c, 2, 53, 102
5, 1872, Control_c, 2, 64, 0
5, 1919, Note_on_c, 2, 53, 0
5, 1920, Control_c, 2, 64, 127
5, 1920, Note_on_c, 2, 52, 110
5, 1971, Note_on_c, 2, 59, 104
5, 2016, Note_on_c, 2, 62, 116
5, 2017, Note_on_c, 2, 77, 111
5, 2019, Note_on_c, 2, 59, 0
5, 2064, Note_on_c, 2, 62, 0
5, 2109, Note_on_c, 2, 56, 113
5, 2112, Note_on_c, 2, 52, 0
5, 2113, Note_on_c, 2, 77, 0
5, 2114, Note_on_c, 2, 76, 107
5, 2205, Note_on_c, 2, 74, 96
5, 2210, Note_on_c, 2, 76, 0
5, 2253, Note_on_c, 2, 74, 0
5, 2253, Note_on_c, 2, 72, 110
5, 2298, Control_c, 2, 64, 0
5, 2301, Note_on_c, 2, 56, 0
5, 2302, Note_on_c, 2, 48, 105
5, 2304, Control_c, 2, 64, 127
5, 2349, Note_on_c, 2, 55, 99
5, 2350, Note_on_c, 2, 48, 0
5, 2397, Note_on_c, 2, 55, 0
5, 2401, Note_on_c, 2, 60, 95
5, 2445, Note_on_c, 2, 72, 0
5, 2449, Note_on_c, 2, 60, 0
5, 2496, Note_on_c, 2, 69, 99
5, 2499, Note_on_c, 2, 60, 104
5, 2547, Note_on_c, 2, 60, 0
5, 2591, Note_on_c, 2, 71, 113
5, 2592, Note_on_c, 2, 69, 0
5, 2639, Note_on_c, 2, 71, 0
5, 2639, Note_on_c, 2, 72, 102
5, 2664, Control_c, 2, 64, 0
5, 2687, Note_on_c, 2, 72, 0
5, 2687, Note_on_c, 2, 41, 101
5, 2688, Control_c, 2, 64, 127
5, 2689, Note_on_c, 2, 76, 116
5, 2735, Note_on_c, 2, 41, 0
5, 2736, Note_on_c, 2, 48, 120
5, 2784, Note_on_c, 2, 48, 0
5, 2784, Note_on_c, 2, 74, 123
5, 2785, Note_on_c, 2, 76, 0
5, 2879, Note_on_c, 2, 69, 106
5, 2880, Note_on_c, 2, 74, 0
5, 2880, Note_on_c, 2, 53, 99
5, 2928, Note_on_c, 2, 53, 0
5, 2975, Note_on_c, 2, 69, 0
5, 2979, Note_on_c, 2, 71, 122
5, 3027, Note_on_c, 2, 71, 0
5, 3027, Note_on_c, 2, 72, 106
5, 3048, Control_c, 2, 64, 0
5, 3069, Note_on_c, 2, 48, 117
5, 3072, Control_c, 2, 64, 127
5, 3117, Note_on_c, 2, 48, 0
5, 3123, Note_on_c, 2, 52, 116
5, 3168, Note_on_c, 2, 55, 121
5, 3171, Note_on_c, 2, 52, 0
5, 3195, Note_on_c, 2, 72, 0
5, 3262, Note_on_c, 2, 57, 111
5, 3263, Note_on_c, 2, 72, 116
5, 3264, Note_on_c, 2, 55, 0
5, 3359, Note_on_c, 2, 72, 0
5, 3360, Note_on_c, 2, 71, 123
5, 3405, Note_on_c, 2, 72, 123
5, 3408, Note_on_c, 2, 71, 0
5, 3450, Control_c, 2, 64, 0
5, 3453, Note_on_c, 2, 72, 0
5, 3454, Note_on_c, 2, 57, 0
5, 3456, Control_c, 2, 64, 127
5, 3456, Note_on_c, 2, 43, 98
5, 3456, Note_on_c, 2, 76, 111
5, 3504, Note_on_c, 2, 43, 0
5, 3507, Note_on_c, 2, 47, 122
5, 3552, Note_on_c, 2, 76, 0
5, 3553, Note_on_c, 2, 50, 96
5, 3555, Note_on_c, 2, 47, 0
5, 3555, Note_on_c, 2, 74, 101
5, 3645, Note_on_c, 2, 53, 123
5, 3649, Note_on_c, 2, 50, 0
5, 3649, Note_on_c, 2, 72, 114
5, 3651, Note_on_c, 2, 74, 0
5, 3744, Note_on_c, 2, 71, 110
5, 3745, Note_on_c, 2, 72, 0
5, 3792, Note_on_c, 2, 71, 0
5, 3795, Note_on_c, 2, 72, 114
5, 3813, Note_on_c, 2, 53, 0
5, 3834, Control_c, 2, 64, 0
5, 3840, Control_c, 2, 64, 127
5, 3842, Note_on_c, 2, 48, 98
5, 3887, Note_on_c, 2, 55, 101
5, 3890, Note_on_c, 2, 48, 0
5, 3935, Note_on_c, 2, 55, 0
5, 3939, Note_on_c, 2, 72, 0
5, 3939, Note_on_c, 2, 60, 118
5, 3987, Note_on_c, 2, 60, 0
5, 3987, Note_on_c, 2, 62, 102
5, 4080, Note_on_c, 2, 64, 110
5, 4083, Note_on_c, 2, 62, 0
5, 4128, Note_on_c, 2, 64, 0
5, 4218, Control_c, 2, 64, 0
5, 4224, Control_c, 2, 64, 127
5, 4225, Note_on_c, 2, 84, 117
5, 4273, Note_on_c, 2, 84, 0
5, 4274, Note_on_c, 2, 83, 101
5, 4320, Note_on_c, 2, 79, 105
5, 4322, Note_on_c, 2, 83, 0
5, 4368, Note_on_c, 2, 79, 0
5, 4368, Note_on_c, 2, 76, 100
5, 4416, Note_on_c, 2, 76, 0
5, 4417, Note_on_c, 2, 72, 109
5, 4463, Note_on_c, 2, 71, 114
5, 4465, Note_on_c, 2, 72, 0
5, 4511, Note_on_c, 2, 71, 0
5, 4511, Note_on_c, 2, 67, 109
5, 4558, Note_on_c, 2, 64, 103
5, 4559, Note_on_c, 2, 67, 0
5, 4584, Control_c, 2, 64, 0
5, 4604, Note_on_c, 2, 64, 0
5, 4607, Note_on_c, 2, 67, 119
5, 4608, Note_on_c, 2, 60, 114
5, 4609, Note_on_c, 2, 64, 102
5, 4990, Note_on_c, 2, 67, 0
5, 4992, Note_on_c, 2, 60, 0
5, 4992, Note_on_c, 2, 67, 117
5, 4993, Note_on_c, 2, 64, 0
5, 4993, Note_on_c, 2, 62, 116
5, 4994, Note_on_c, 2, 59, 110
5, 5375, Note_on_c, 2, 57, 110
5, 5376, Note_on_c, 2, 67, 0
5, 5377, Note_on_c, 2, 62, 0
5, 5377, Note_on_c, 2, 64, 117
5, 5378, Note_on_c, 2, 59, 0
5, 5378, Note_on_c, 2, 60, 98
5, 5757, Note_on_c, 2, 59, 96
5, 5759, Note_on_c, 2, 57, 0
5, 5759, Note_on_c, 2, 67, 101
5, 5760, Note_on_c, 2, 60, 0
5, 5761, Note_on_c, 2, 64, 0
5, 5763, Note_on_c, 2, 62, 97
5, 6141, Note_on_c, 2, 59, 0
5, 6141, Note_on_c, 2, 67, 0
5, 6144, Note_on_c, 2, 57, 104
5, 6146, Note_on_c, 2, 60, 116
5, 6146, Note_on_c, 2, 65, 107
5, 6147, Note_on_c, 2, 62, 0
5, 6528, Note_on_c, 2, 57, 0
5, 6528, Note_on_c, 2, 60, 0
5, 6528, Note_on_c, 2, 60, 122
5, 6528, Note_on_c, 2, 64, 107
5, 6531, Note_on_c, 2, 55, 118
5, 6532, Note_on_c, 2, 65, 0
5, 6718, Note_on_c, 2, 67, 96
5, 6720, Note_on_c, 2, 64, 0
5, 6909, Note_on_c, 2, 69, 103
5, 6910, Note_on_c, 2, 60, 0
5, 6910, Note_on_c, 2, 67, 0
5, 6912, Note_on_c, 2, 60, 105
5, 6913, Note_on_c, 2, 65, 110
5, 6915, Note_on_c, 2, 55, 0
5, 6915, Note_on_c, 2, 62, 123
5, 7293, Note_on_c, 2, 69, 0
5, 7294, Note_on_c, 2, 59, 95
5, 7296, Note_on_c, 2, 60, 0
5, 7297, Note_on_c, 2, 65, 0
5, 7297, Note_on_c, 2, 67, 109
5, 7298, Note_on_c, 2, 62, 0
5, 7298, Note_on_c, 2, 62, 103
5, 7485, Note_on_c, 2, 59, 0
5, 7485, Note_on_c, 2, 60, 102
5, 7488, Note_on_c, 2, 69, 119
5, 7489, Note_on_c, 2, 67, 0
5, 7490, Note_on_c, 2, 62, 0
5, 7490, Note_on_c, 2, 65, 115
5, 7581, Note_on_c, 2, 60, 0
5, 7582, Note_on_c, 2, 62, 106
5, 7584, Note_on_c, 2, 69, 0
5, 7585, Note_on_c, 2, 67, 116
5, 7586, Note_on_c, 2, 65, 0
5, 7587, Note_on_c, 2, 71, 117
5, 7676, Note_on_c, 2, 67, 0
5, 7677, Note_on_c, 2, 67, 110
5, 7677, Note_on_c, 2, 64, 124
5, 7678, Note_on_c, 2, 62, 0
5, 7681, Note_on_c, 2, 60, 125
5, 7683, Note_on_c, 2, 71, 0
5, 7965, Note_on_c, 2, 71, 102
5, 8013, Note_on_c, 2, 71, 0
5, 8017, Note_on_c, 2, 72, 103
5, 8060, Note_on_c, 2, 67, 0
5, 8061, Note_on_c, 2, 64, 0
5, 8061, Note_on_c, 2, 62, 124
5, 8062, Note_on_c, 2, 59, 111
5, 8064, Note_on_c, 2, 67, 110
5, 8065, Note_on_c, 2, 60, 0
5, 8065, Note_on_c, 2, 72, 0
5, 8065, Note_on_c, 2, 74, 117
5, 8245, Note_on_c, 2, 62, 0
5, 8253, Note_on_c, 2, 71, 124
5, 8254, Note_on_c, 2, 59, 0
5, 8256, Note_on_c, 2, 67, 0
5, 8256, Note_on_c, 2, 62, 122
5, 8256, Note_on_c, 2, 67, 108
5, 8257, Note_on_c, 2, 74, 0
5, 8445, Note_on_c, 2, 71, 0
5, 8445, Note_on_c, 2, 60, 120
5, 8447, Note_on_c, 2, 64, 116
5, 8448, Note_on_c, 2, 62, 0
5, 8448, Note_on_c, 2, 67, 0
5, 8448, Note_on_c, 2, 57, 124
5, 8827, Note_on_c, 2, 60, 0
5, 8831, Note_on_c, 2, 64, 0
5, 8832, Note_on_c, 2, 57, 0
5, 8832, Note_on_c, 2, 67, 116
5, 8834, Note_on_c, 2, 59, 119
5, 8835, Note_on_c, 2, 62, 124
5, 9214, Note_on_c, 2, 67, 0
5, 9214, Note_on_c, 2, 57, 111
5, 9218, Note_on_c, 2, 59, 0
5, 9218, Note_on_c, 2, 60, 99
5, 9219, Note_on_c, 2, 62, 0
5, 9219, Note_on_c, 2, 65, 96
5, 9405, Note_on_c, 2, 57, 0
5, 9405, Note_on_c, 2, 57, 119
5, 9407, Note_on_c, 2, 60, 0
5, 9407, Note_on_c, 2, 60, 117
5, 9409, Note_on_c, 2, 67, 122
5, 9413, Note_on_c, 2, 65, 0
5, 9595, Note_on_c, 2, 60, 0
5, 9597, Note_on_c, 2, 57, 0
5, 9599, Note_on_c, 2, 60, 116
5, 9600, Note_on_c, 2, 64, 122
5, 9601, Note_on_c, 2, 67, 0
5, 9601, Note_on_c, 2, 55, 117
5, 9981, Note_on_c, 2, 60, 0
5, 9982, Note_on_c, 2, 60, 104
5, 9982, Note_on_c, 2, 62, 103
5, 9983, Note_on_c, 2, 65, 108
5, 9984, Note_on_c, 2, 64, 0
5, 9984, Note_on_c, 2, 69, 117
5, 9985, Note_on_c, 2, 55, 0
5, 10175, Note_on_c, 2, 65, 0
5, 10176, Note_on_c, 2, 69, 0
5, 10177, Note_on_c, 2, 72, 123
5, 10179, Note_on_c, 2, 69, 97
5, 10365, Note_on_c, 2, 62, 0
5, 10366, Note_on_c, 2, 60, 0
5, 10368, Note_on_c, 2, 59, 98
5, 10368, Note_on_c, 2, 71, 101
5, 10369, Note_on_c, 2, 72, 0
5, 10369, Note_on_c, 2, 67, 114
5, 10371, Note_on_c, 2, 69, 0
5, 10371, Note_on_c, 2, 62, 117
5, 10558, Note_on_c, 2, 65, 124
5, 10559, Note_on_c, 2, 59, 0
5, 10559, Note_on_c, 2, 60, 120
5, 10560, Note_on_c, 2, 71, 0
5, 10561, Note_on_c, 2, 67, 0
5, 10561, Note_on_c, 2, 72, 110
5, 10563, Note_on_c, 2, 62, 0
5, 10653, Note_on_c, 2, 62, 107
5, 10654, Note_on_c, 2, 65, 0
5, 10655, Note_on_c, 2, 60, 0
5, 10656, Note_on_c, 2, 67, 110
5, 10656, Note_on_c, 2, 74, 119
5, 10657, Note_on_c, 2, 72, 0
5, 10749, Note_on_c, 2, 62, 0
5, 10750, Note_on_c, 2, 69, 119
5, 10751, Note_on_c, 2, 65, 102
5, 10751, Note_on_c, 2, 60, 108
5, 10752, Note_on_c, 2, 67, 0
5, 10752, Note_on_c, 2, 74, 0
5, 10755, Note_on_c, 2, 64, 104
5, 11134, Note_on_c, 2, 69, 0
5, 11135, Note_on_c, 2, 60, 0
5, 11135, Note_on_c, 2, 65, 0
5, 11136, Note_on_c, 2, 60, 120
5, 11136, Note_on_c, 2, 67, 108
5, 11137, Note_on_c, 2, 64, 0
5, 11137, Note_on_c, 2, 64, 123
5, 11517, Note_on_c, 2, 62, 103
5, 11520, Note_on_c, 2, 67, 0
5, 11520, Note_on_c, 2, 60, 0
5, 11520, Note_on_c, 2, 70, 115
5, 11520, Note_on_c, 2, 65, 122
5, 11521, Note_on_c, 2, 64, 0
5, 11901, Note_on_c, 2, 62, 0
5, 11903, Note_on_c, 2, 64, 115
5, 11904, Note_on_c, 2, 70, 0
5, 11904, Note_on_c, 2, 65, 0
5, 11904, Note_on_c, 2, 69, 104
5, 11907, Note_on_c, 2, 60, 123
5, 12096, Note_on_c, 2, 72, 119
5, 12285, Note_on_c, 2, 65, 122
5, 12287, Note_on_c, 2, 60, 0
5, 12287, Note_on_c, 2, 64, 0
5, 12287, Note_on_c, 2, 69, 0
5, 12287, Note_on_c, 2, 62, 120
5, 12287, Note_on_c, 2, 69, 110
5, 12287, Note_on_c, 2, 60, 103
5, 12288, Note_on_c, 2, 72, 0
5, 12669, Note_on_c, 2, 65, 0
5, 12671, Note_on_c, 2, 69, 0
5, 12671, Note_on_c, 2, 62, 0
5, 12671, Note_on_c, 2, 60, 0
5, 12672, Note_on_c, 2, 60, 111
5, 12673, Note_on_c, 2, 64, 110
5, 12675, Note_on_c, 2, 67, 101
5, 12867, Note_on_c, 2, 72, 120
5, 13054, Note_on_c, 2, 69, 105
5, 13056, Note_on_c, 2, 60, 0
5, 13056, Note_on_c, 2, 62, 98
5, 13057, Note_on_c, 2, 64, 0
5, 13058, Note_on_c, 2, 65, 103
5, 13059, Note_on_c, 2, 72, 0
5, 13059, Note_on_c, 2, 67, 0
5, 13059, Note_on_c, 2, 60, 116
5, 13437, Note_on_c, 2, 65, 0
5, 13437, Note_on_c, 2, 65, 119
5, 13438, Note_on_c, 2, 69, 0
5, 13438, Note_on_c, 2, 62, 0
5, 13438, Note_on_c, 2, 62, 98
5, 13440, Note_on_c, 2, 67, 124
5, 13443, Note_on_c, 2, 60, 0
5, 13443, Note_on_c, 2, 69, 113
5, 13821, Note_on_c, 2, 65, 0
5, 13822, Note_on_c, 2, 67, 0
5, 13822, Note_on_c, 2, 62, 0
5, 13822, Note_on_c, 2, 67, 125
5, 13823, Note_on_c, 2, 71, 110
5, 13823, Note_on_c, 2, 62, 110
5, 13826, Note_on_c, 2, 65, 96
5, 13827, Note_on_c, 2, 69, 0
5, 14590, Note_on_c, 2, 67, 0
5, 14591, Note_on_c, 2, 62, 0
5, 14591, Note_on_c, 2, 71, 0
5, 14593, Note_on_c, 2, 67, 110
5, 14594, Note_on_c, 2, 65, 0
5, 14594, Note_on_c, 2, 64, 110
5, 14595, Note_on_c, 2, 60, 110
5, 14881, Note_on_c, 2, 67, 0
5, 14882, Note_on_c, 2, 64, 0
5, 14883, Note_on_c, 2, 60, 0
5, 14928, Note_on_c, 2, 60, 110
5, 14928, Note_on_c, 2, 64, 110
5, 14929, Note_on_c, 2, 67, 110
5, 14954, Note_on_c, 2, 60, 0
5, 14956, Note_on_c, 2, 64, 0
5, 14959, Note_on_c, 2, 67, 0
5, 14976, Note_on_c, 2, 65, 110
5, 14976, Note_on_c, 2, 69, 110
5, 14976, Note_on_c, 2, 60, 110
5, 14977, Note_on_c, 2, 62, 110
5, 15359, Note_on_c, 2, 67, 110
5, 15360, Note_on_c, 2, 60, 0
5, 15360, Note_on_c, 2, 65, 0
5, 15360, Note_on_c, 2, 69, 0
5, 15360, Note_on_c, 2, 65, 110
5, 15361, Note_on_c, 2, 62, 0
5, 15361, Note_on_c, 2, 62, 110
5, 15361, Note_on_c, 2, 59, 110
5, 15743, Note_on_c, 2, 67, 0
5, 15744, Note_on_c, 2, 65, 0
5, 15744, Note_on_c, 2, 59, 0
5, 15744, Note_on_c, 2, 59, 110
5, 15745, Note_on_c, 2, 62, 0
5, 15747, Note_on_c, 2, 64, 110
5, 15747, Note_on_c, 2, 67, 110
5, 15839, Note_on_c, 2, 77, 110
5, 15935, Note_on_c, 2, 77, 0
5, 15937, Note_on_c, 2, 76, 110
5, 15939, Note_on_c, 2, 64, 0
5, 16029, Note_on_c, 2, 74, 110
5, 16033, Note_on_c, 2, 76, 0
5, 16125, Note_on_c, 2, 74, 0
5, 16126, Note_on_c, 2, 64, 110
5, 16128, Note_on_c, 2, 59, 0
5, 16129, Note_on_c, 2, 69, 110
5, 16129, Note_on_c, 2, 60, 110
5, 16131, Note_on_c, 2, 67, 0
5, 16222, Note_on_c, 2, 72, 110
5, 16318, Note_on_c, 2, 72, 0
5, 16413, Note_on_c, 2, 69, 0
5, 16413, Note_on_c, 2, 69, 110
5, 16461, Note_on_c, 2, 69, 0
5, 16462, Note_on_c, 2, 71, 110
5, 16509, Note_on_c, 2, 69, 110
5, 16510, Note_on_c, 2, 71, 0
5, 16510, Note_on_c, 2, 64, 0
5, 16512, Note_on_c, 2, 62, 110
5, 16513, Note_on_c, 2, 60, 0
5, 16513, Note_on_c, 2, 64, 110
5, 16514, Note_on_c, 2, 72, 110
5, 16893, Note_on_c, 2, 69, 0
5, 16896, Note_on_c, 2, 62, 0
5, 16896, Note_on_c, 2, 62, 110
5, 16896, Note_on_c, 2, 65, 110
5, 16897, Note_on_c, 2, 64, 0
5, 16897, Note_on_c, 2, 71, 110
5, 16898, Note_on_c, 2, 72, 0
5, 16899, Note_on_c, 2, 69, 110
5, 17089, Note_on_c, 2, 71, 0
5, 17091, Note_on_c, 2, 74, 110
5, 17279, Note_on_c, 2, 67, 110
5, 17280, Note_on_c, 2, 65, 0
5, 17280, Note_on_c, 2, 62, 0
5, 17280, Note_on_c, 2, 62, 110
5, 17281, Note_on_c, 2, 71, 110
5, 17283, Note_on_c, 2, 69, 0
5, 17283, Note_on_c, 2, 74, 0
5, 17471, Note_on_c, 2, 67, 0
5, 17472, Note_on_c, 2, 67, 115
5, 17616, Note_on_c, 2, 67, 0
5, 17640, Note_on_c, 2, 62, 0
5, 17647, Note_on_c, 2, 71, 0
5, 17665, Note_on_c, 2, 67, 110
5, 17666, Note_on_c, 2, 64, 110
5, 17667, Note_on_c, 2, 60, 110
5, 17953, Note_on_c, 2, 67, 0
5, 17954, Note_on_c, 2, 64, 0
5, 17955, Note_on_c, 2, 60, 0
5, 18000, Note_on_c, 2, 60, 110
5, 18000, Note_on_c, 2, 64, 110
5, 18001, Note_on_c, 2, 67, 110
5, 18026, Note_on_c, 2, 60, 0
5, 18028, Note_on_c, 2, 64, 0
5, 18031, Note_on_c, 2, 67, 0
5, 18048, Note_on_c, 2, 65, 110
5, 18048, Note_on_c, 2, 69, 110
5, 18048, Note_on_c, 2, 60, 110
5, 18049, Note_on_c, 2, 62, 110
5, 18431, Note_on_c, 2, 67, 110
5, 18432, Note_on_c, 2, 60, 0
5, 18432, Note_on_c, 2, 65, 0
5, 18432, Note_on_c, 2, 69, 0
5, 18432, Note_on_c, 2, 65, 110
5, 18433, Note_on_c, 2, 62, 0
5, 18433, Note_on_c, 2, 62, 110
5, 18433, Note_on_c, 2, 59, 110
5, 18815, Note_on_c, 2, 67, 0
5, 18816, Note_on_c, 2, 65, 0
5, 18816, Note_on_c, 2, 59, 0
5, 18816, Note_on_c, 2, 59, 110
5, 18817, Note_on_c, 2, 62, 0
5, 18819, Note_on_c, 2, 64, 110
5, 18819, Note_on_c, 2, 67, 110
5, 18911, Note_on_c, 2, 77, 110
5, 19007, Note_on_c, 2, 77, 0
5, 19009, Note_on_c, 2, 76, 110
5, 19011, Note_on_c, 2, 64, 0
5, 19101, Note_on_c, 2, 74, 110
5, 19105, Note_on_c, 2, 76, 0
5, 19197, Note_on_c, 2, 74, 0
5, 19198, Note_on_c, 2, 64, 110
5, 19200, Note_on_c, 2, 59, 0
5, 19201, Note_on_c, 2, 69, 110
5, 19201, Note_on_c, 2, 60, 110
5, 19203, Note_on_c, 2, 67, 0
5, 19294, Note_on_c, 2, 72, 110
5, 19390, Note_on_c, 2, 72, 0
5, 19485, Note_on_c, 2, 69, 0
5, 19485, Note_on_c, 2, 69, 110
5, 19533, Note_on_c, 2, 69, 0
5, 19534, Note_on_c, 2, 71, 110
5, 19581, Note_on_c, 2, 69, 110
5, 19582, Note_on_c, 2, 71, 0
5, 19582, Note_on_c, 2, 64, 0
5, 19584, Note_on_c, 2, 62, 110
5, 19585, Note_on_c, 2, 60, 0
5, 19585, Note_on_c, 2, 64, 110
5, 19586, Note_on_c, 2, 72, 110
5, 19965, Note_on_c, 2, 69, 0
5, 19968, Note_on_c, 2, 62, 0
5, 19968, Note_on_c, 2, 62, 110
5, 19968, Note_on_c, 2, 65, 110
5, 19969, Note_on_c, 2, 64, 0
5, 19969, Note_on_c, 2, 71, 110
5, 19970, Note_on_c, 2, 72, 0
5, 19971, Note_on_c, 2, 69, 110
5, 20161, Note_on_c, 2, 71, 0
5, 20163, Note_on_c, 2, 74, 110
5, 20351, Note_on_c, 2, 67, 110
5, 20352, Note_on_c, 2, 65, 0
5, 20352, Note_on_c, 2, 62, 0
5, 20352, Note_on_c, 2, 62, 110
5, 20353, Note_on_c, 2, 71, 110
5, 20355, Note_on_c, 2, 69, 0
5, 20355, Note_on_c, 2, 74, 0
5, 20543, Note_on_c, 2, 67, 0
5, 20544, Note_on_c, 2, 67, 115
5, 20688, Note_on_c, 2, 67, 0
5, 20712, Note_on_c, 2, 62, 0
5, 20719, Note_on_c, 2, 71, 0
5, 20736, Control_c, 2, 64, 127
5, 20736, Control_c, 2, 64, 127
5, 20736, Note_on_c, 2, 67, 110
5, 20736, Note_on_c, 2, 64, 114
5, 20736, Note_on_c, 2, 60, 118
5, 21072, Note_on_c, 2, 67, 0
5, 21114, Control_c, 2, 64, 0
5, 21114, Control_c, 2, 64, 0
5, 21120, Note_on_c, 2, 60, 0
5, 21120, Note_on_c, 2, 64, 0
5, 21120, Control_c, 2, 64, 127
5, 21120, Control_c, 2, 64, 127
5, 21121, Note_on_c, 2, 84, 117
5, 21169, Note_on_c, 2, 84, 0
5, 21170, Note_on_c, 2, 83, 101
5, 21216, Note_on_c, 2, 79, 105
5, 21218, Note_on_c, 2, 83, 0
5, 21264, Note_on_c, 2, 79, 0
5, 21264, Note_on_c, 2, 76, 100
5, 21312, Note_on_c, 2, 76, 0
5, 21313, Note_on_c, 2, 72, 109
5, 21359, Note_on_c, 2, 71, 114
5, 21361, Note_on_c, 2, 72, 0
5, 21407, Note_on_c, 2, 71, 0
5, 21407, Note_on_c, 2, 67, 109
5, 21454, Note_on_c, 2, 64, 103
5, 21455, Note_on_c, 2, 67, 0
5, 21480, Control_c, 2, 64, 0
5, 21480, Control_c, 2, 64, 0
5, 21500, Note_on_c, 2, 64, 0
5, 21504, Note_on_c, 2, 67, 119
5, 21504, Note_on_c, 2, 60, 114
5, 21505, Note_on_c, 2, 64, 102
5, 21648, Note_on_c, 2, 67, 0
5, 21696, Note_on_c, 2, 64, 0
5, 21696, Note_on_c, 2, 72, 113
5, 21696, Note_on_c, 2, 67, 115
5, 21696, Note_on_c, 2, 64, 114
5, 21888, Note_on_c, 2, 64, 0
5, 21888, Note_on_c, 2, 60, 0
5, 21888, Note_on_c, 2, 72, 0
5, 21888, Note_on_c, 2, 67, 0
5, 21888, Note_on_c, 2, 67, 117
5, 21889, Note_on_c, 2, 62, 116
5, 21890, Note_on_c, 2, 59, 110
5, 22080, Note_on_c, 2, 65, 114
5, 22176, Note_on_c, 2, 65, 0
5, 22176, Note_on_c, 2, 67, 0
5, 22176, Note_on_c, 2, 62, 0
5, 22176, Note_on_c, 2, 67, 112
5, 22176, Note_on_c, 2, 62, 115
5, 22271, Note_on_c, 2, 57, 110
5, 22272, Note_on_c, 2, 62, 0
5, 22272, Note_on_c, 2, 67, 0
5, 22273, Note_on_c, 2, 64, 117
5, 22274, Note_on_c, 2, 59, 0
5, 22274, Note_on_c, 2, 60, 98
5, 22653, Note_on_c, 2, 59, 106
5, 22655, Note_on_c, 2, 57, 0
5, 22655, Note_on_c, 2, 67, 101
5, 22656, Note_on_c, 2, 60, 0
5, 22657, Note_on_c, 2, 64, 0
5, 22659, Note_on_c, 2, 62, 109
5, 22847, Note_on_c, 2, 67, 0
5, 22848, Note_on_c, 2, 67, 110
5, 22848, Note_on_c, 2, 64, 110
5, 22851, Note_on_c, 2, 62, 0
5, 23037, Note_on_c, 2, 59, 0
5, 23040, Note_on_c, 2, 67, 0
5, 23040, Note_on_c, 2, 64, 0
5, 23040, Note_on_c, 2, 57, 110
5, 23042, Note_on_c, 2, 60, 116
5, 23042, Note_on_c, 2, 65, 112
5, 23186, Note_on_c, 2, 60, 0
5, 23232, Note_on_c, 2, 57, 0
5, 23232, Note_on_c, 2, 67, 110
5, 23232, Note_on_c, 2, 60, 110
5, 23232, Note_on_c, 2, 57, 110
5, 23234, Note_on_c, 2, 65, 0
5, 23424, Note_on_c, 2, 67, 0
5, 23424, Note_on_c, 2, 60, 0
5, 23424, Note_on_c, 2, 57, 0
5, 23424, Note_on_c, 2, 60, 122
5, 23424, Note_on_c, 2, 64, 107
5, 23427, Note_on_c, 2, 55, 118
5, 23614, Note_on_c, 2, 67, 96
5, 23616, Note_on_c, 2, 55, 0
5, 23616, Note_on_c, 2, 60, 0
5, 23616, Note_on_c, 2, 64, 0
5, 23616, Note_on_c, 2, 72, 110
5, 23616, Note_on_c, 2, 60, 110
5, 23616, Note_on_c, 2, 55, 110
5, 23805, Note_on_c, 2, 69, 103
5, 23806, Note_on_c, 2, 67, 0
5, 23808, Note_on_c, 2, 55, 0
5, 23808, Note_on_c, 2, 72, 0
5, 23808, Note_on_c, 2, 60, 0
5, 23808, Note_on_c, 2, 60, 105
5, 23809, Note_on_c, 2, 65, 110
5, 23811, Note_on_c, 2, 62, 123
5, 24096, Note_on_c, 2, 69, 0
5, 24096, Note_on_c, 2, 67, 110
5, 24144, Note_on_c, 2, 67, 0
5, 24144, Note_on_c, 2, 69, 110
5, 24190, Note_on_c, 2, 59, 95
5, 24192, Note_on_c, 2, 69, 0
5, 24192, Note_on_c, 2, 60, 0
5, 24192, Note_on_c, 2, 71, 110
5, 24193, Note_on_c, 2, 65, 0
5, 24193, Note_on_c, 2, 67, 109
5, 24194, Note_on_c, 2, 62, 0
5, 24194, Note_on_c, 2, 62, 103
5, 24381, Note_on_c, 2, 59, 0
5, 24381, Note_on_c, 2, 60, 102
5, 24384, Note_on_c, 2, 71, 0
5, 24384, Note_on_c, 2, 69, 119
5, 24385, Note_on_c, 2, 67, 0
5, 24386, Note_on_c, 2, 62, 0
5, 24386, Note_on_c, 2, 65, 115
5, 24477, Note_on_c, 2, 60, 0
5, 24478, Note_on_c, 2, 62, 106
5, 24480, Note_on_c, 2, 69, 0
5, 24481, Note_on_c, 2, 67, 116
5, 24482, Note_on_c, 2, 65, 0
5, 24483, Note_on_c, 2, 71, 117
5, 24572, Note_on_c, 2, 67, 0
5, 24573, Note_on_c, 2, 67, 110
5, 24573, Note_on_c, 2, 64, 124
5, 24574, Note_on_c, 2, 62, 0
5, 24577, Note_on_c, 2, 60, 125
5, 24579, Note_on_c, 2, 71, 0
5, 24861, Note_on_c, 2, 71, 102
5, 24909, Note_on_c, 2, 71, 0
5, 24913, Note_on_c, 2, 72, 103
5, 24956, Note_on_c, 2, 67, 0
5, 24957, Note_on_c, 2, 64, 0
5, 24957, Note_on_c, 2, 62, 124
5, 24958, Note_on_c, 2, 59, 111
5, 24960, Note_on_c, 2, 67, 110
5, 24961, Note_on_c, 2, 60, 0
5, 24961, Note_on_c, 2, 72, 0
5, 24961, Note_on_c, 2, 74, 117
5, 25141, Note_on_c, 2, 62, 0
5, 25149, Note_on_c, 2, 71, 124
5, 25150, Note_on_c, 2, 59, 0
5, 25152, Note_on_c, 2, 67, 0
5, 25152, Note_on_c, 2, 62, 122
5, 25152, Note_on_c, 2, 67, 108
5, 25153, Note_on_c, 2, 74, 0
5, 25341, Note_on_c, 2, 71, 0
5, 25341, Note_on_c, 2, 60, 120
5, 25342, Note_on_c, 2, 57, 124
5, 25343, Note_on_c, 2, 64, 116
5, 25344, Note_on_c, 2, 62, 0
5, 25344, Note_on_c, 2, 67, 0
5, 25723, Note_on_c, 2, 60, 0
5, 25726, Note_on_c, 2, 57, 0
5, 25727, Note_on_c, 2, 64, 0
5, 25727, Note_on_c, 2, 59, 119
5, 25730, Note_on_c, 2, 67, 116
5, 25734, Note_on_c, 2, 62, 124
5, 26016, Note_on_c, 2, 69, 110
5, 26017, Note_on_c, 2, 65, 110
5, 26018, Note_on_c, 2, 67, 0
5, 26022, Note_on_c, 2, 62, 0
5, 26064, Note_on_c, 2, 69, 0
5, 26065, Note_on_c, 2, 65, 0
5, 26065, Note_on_c, 2, 67, 110
5, 26065, Note_on_c, 2, 64, 110
5, 26110, Note_on_c, 2, 57, 111
5, 26111, Note_on_c, 2, 59, 0
5, 26113, Note_on_c, 2, 67, 0
5, 26113, Note_on_c, 2, 64, 0
5, 26114, Note_on_c, 2, 60, 99
5, 26115, Note_on_c, 2, 65, 96
5, 26301, Note_on_c, 2, 57, 0
5, 26301, Note_on_c, 2, 57, 119
5, 26303, Note_on_c, 2, 60, 0
5, 26303, Note_on_c, 2, 60, 117
5, 26305, Note_on_c, 2, 67, 122
5, 26309, Note_on_c, 2, 65, 0
5, 26491, Note_on_c, 2, 60, 0
5, 26493, Note_on_c, 2, 57, 0
5, 26495, Note_on_c, 2, 60, 116
5, 26496, Note_on_c, 2, 64, 122
5, 26497, Note_on_c, 2, 67, 0
5, 26497, Note_on_c, 2, 55, 117
5, 26877, Note_on_c, 2, 60, 0
5, 26878, Note_on_c, 2, 60, 104
5, 26878, Note_on_c, 2, 62, 103
5, 26879, Note_on_c, 2, 65, 108
5, 26880, Note_on_c, 2, 64, 0
5, 26880, Note_on_c, 2, 69, 117
5, 26881, Note_on_c, 2, 55, 0
5, 27071, Note_on_c, 2, 65, 0
5, 27072, Note_on_c, 2, 69, 0
5, 27073, Note_on_c, 2, 72, 123
5, 27075, Note_on_c, 2, 69, 97
5, 27261, Note_on_c, 2, 62, 0
5, 27262, Note_on_c, 2, 60, 0
5, 27264, Note_on_c, 2, 59, 98
5, 27264, Note_on_c, 2, 71, 101
5, 27265, Note_on_c, 2, 72, 0
5, 27265, Note_on_c, 2, 67, 114
5, 27267, Note_on_c, 2, 69, 0
5, 27267, Note_on_c, 2, 62, 117
5, 27454, Note_on_c, 2, 65, 124
5, 27455, Note_on_c, 2, 59, 0
5, 27455, Note_on_c, 2, 60, 120
5, 27456, Note_on_c, 2, 71, 0
5, 27457, Note_on_c, 2, 67, 0
5, 27457, Note_on_c, 2, 72, 110
5, 27459, Note_on_c, 2, 62, 0
5, 27549, Note_on_c, 2, 62, 107
5, 27550, Note_on_c, 2, 65, 0
5, 27551, Note_on_c, 2, 60, 0
5, 27552, Note_on_c, 2, 67, 110
5, 27552, Note_on_c, 2, 74, 119
5, 27553, Note_on_c, 2, 72, 0
5, 27645, Note_on_c, 2, 62, 0
5, 27648, Note_on_c, 2, 67, 0
5, 27648, Note_on_c, 2, 74, 0
5, 27648, Note_on_c, 2, 69, 119
5, 27648, Note_on_c, 2, 65, 102
5, 27648, Note_on_c, 2, 60, 108
5, 27651, Note_on_c, 2, 64, 104
5, 28030, Note_on_c, 2, 69, 0
5, 28031, Note_on_c, 2, 65, 0
5, 28031, Note_on_c, 2, 60, 0
5, 28032, Note_on_c, 2, 60, 120
5, 28032, Note_on_c, 2, 67, 108
5, 28033, Note_on_c, 2, 64, 0
5, 28033, Note_on_c, 2, 64, 123
5, 28413, Note_on_c, 2, 62, 103
5, 28416, Note_on_c, 2, 67, 0
5, 28416, Note_on_c, 2, 60, 0
5, 28416, Note_on_c, 2, 70, 115
5, 28416, Note_on_c, 2, 65, 122
5, 28417, Note_on_c, 2, 64, 0
5, 28797, Note_on_c, 2, 62, 0
5, 28799, Note_on_c, 2, 64, 115
5, 28800, Note_on_c, 2, 70, 0
5, 28800, Note_on_c, 2, 65, 0
5, 28800, Note_on_c, 2, 69, 104
5, 28803, Note_on_c, 2, 60, 123
5, 28992, Note_on_c, 2, 72, 119
5, 29181, Note_on_c, 2, 65, 122
5, 29183, Note_on_c, 2, 60, 0
5, 29183, Note_on_c, 2, 64, 0
5, 29183, Note_on_c, 2, 69, 0
5, 29183, Note_on_c, 2, 62, 120
5, 29183, Note_on_c, 2, 69, 110
5, 29183, Note_on_c, 2, 60, 103
5, 29184, Note_on_c, 2, 72, 0
5, 29565, Note_on_c, 2, 65, 0
5, 29567, Note_on_c, 2, 69, 0
5, 29567, Note_on_c, 2, 62, 0
5, 29567, Note_on_c, 2, 60, 0
5, 29568, Note_on_c, 2, 60, 111
5, 29569, Note_on_c, 2, 64, 110
5, 29571, Note_on_c, 2, 67, 101
5, 29763, Note_on_c, 2, 72, 120
5, 29950, Note_on_c, 2, 69, 105
5, 29952, Note_on_c, 2, 60, 0
5, 29952, Note_on_c, 2, 62, 98
5, 29953, Note_on_c, 2, 64, 0
5, 29954, Note_on_c, 2, 65, 103
5, 29955, Note_on_c, 2, 72, 0
5, 29955, Note_on_c, 2, 67, 0
5, 29955, Note_on_c, 2, 60, 116
5, 30333, Note_on_c, 2, 65, 0
5, 30333, Note_on_c, 2, 65, 119
5, 30334, Note_on_c, 2, 69, 0
5, 30334, Note_on_c, 2, 62, 0
5, 30334, Note_on_c, 2, 62, 98
5, 30336, Note_on_c, 2, 67, 124
5, 30339, Note_on_c, 2, 60, 0
5, 30339, Note_on_c, 2, 69, 113
5, 30717, Note_on_c, 2, 65, 0
5, 30718, Note_on_c, 2, 67, 0
5, 30718, Note_on_c, 2, 62, 0
5, 30718, Note_on_c, 2, 67, 125
5, 30719, Note_on_c, 2, 71, 110
5, 30719, Note_on_c, 2, 62, 110
5, 30722, Note_on_c, 2, 65, 96
5, 30723, Note_on_c, 2, 69, 0
5, 31486, Note_on_c, 2, 67, 0
5, 31487, Note_on_c, 2, 62, 0
5, 31487, Note_on_c, 2, 71, 0
5, 31489, Note_on_c, 2, 67, 110
5, 31490, Note_on_c, 2, 65, 0
5, 31490, Note_on_c, 2, 64, 110
5, 31491, Note_on_c, 2, 60, 110
5, 31777, Note_on_c, 2, 67, 0
5, 31778, Note_on_c, 2, 64, 0
5, 31779, Note_on_c, 2, 60, 0
5, 31824, Note_on_c, 2, 60, 110
5, 31824, Note_on_c, 2, 64, 110
5, 31825, Note_on_c, 2, 67, 110
5, 31850, Note_on_c, 2, 60, 0
5, 31852, Note_on_c, 2, 64, 0
5, 31855, Note_on_c, 2, 67, 0
5, 31872, Note_on_c, 2, 65, 110
5, 31872, Note_on_c, 2, 69, 110
5, 31872, Note_on_c, 2, 60, 110
5, 31873, Note_on_c, 2, 62, 110
5, 32255, Note_on_c, 2, 67, 110
5, 32256, Note_on_c, 2, 60, 0
5, 32256, Note_on_c, 2, 65, 0
5, 32256, Note_on_c, 2, 69, 0
5, 32256, Note_on_c, 2, 65, 110
5, 32257, Note_on_c, 2, 62, 0
5, 32257, Note_on_c, 2, 62, 110
5, 32257, Note_on_c, 2, 59, 110
5, 32639, Note_on_c, 2, 67, 0
5, 32640, Note_on_c, 2, 65, 0
5, 32640, Note_on_c, 2, 59, 0
5, 32640, Note_on_c, 2, 59, 110
5, 32641, Note_on_c, 2, 62, 0
5, 32643, Note_on_c, 2, 64, 110
5, 32643, Note_on_c, 2, 67, 110
5, 32735, Note_on_c, 2, 77, 110
5, 32831, Note_on_c, 2, 77, 0
5, 32833, Note_on_c, 2, 76, 110
5, 32835, Note_on_c, 2, 64, 0
5, 32925, Note_on_c, 2, 74, 110
5, 32929, Note_on_c, 2, 76, 0
5, 33021, Note_on_c, 2, 74, 0
5, 33022, Note_on_c, 2, 64, 110
5, 33024, Note_on_c, 2, 59, 0
5, 33025, Note_on_c, 2, 69, 110
5, 33025, Note_on_c, 2, 60, 110
5, 33027, Note_on_c, 2, 67, 0
5, 33118, Note_on_c, 2, 72, 110
5, 33214, Note_on_c, 2, 72, 0
5, 33309, Note_on_c, 2, 69, 0
5, 33309, Note_on_c, 2, 69, 110
5, 33357, Note_on_c, 2, 69, 0
5, 33358, Note_on_c, 2, 71, 110
5, 33405, Note_on_c, 2, 69, 110
5, 33406, Note_on_c, 2, 71, 0
5, 33406, Note_on_c, 2, 64, 0
5, 33408, Note_on_c, 2, 62, 110
5, 33409, Note_on_c, 2, 60, 0
5, 33409, Note_on_c, 2, 64, 110
5, 33410, Note_on_c, 2, 72, 110
5, 33789, Note_on_c, 2, 69, 0
5, 33792, Note_on_c, 2, 62, 0
5, 33792, Note_on_c, 2, 62, 110
5, 33792, Note_on_c, 2, 65, 110
5, 33793, Note_on_c, 2, 64, 0
5, 33793, Note_on_c, 2, 71, 110
5, 33794, Note_on_c, 2, 72, 0
5, 33795, Note_on_c, 2, 69, 110
5, 33985, Note_on_c, 2, 71, 0
5, 33987, Note_on_c, 2, 74, 110
5, 34175, Note_on_c, 2, 67, 110
5, 34176, Note_on_c, 2, 65, 0
5, 34176, Note_on_c, 2, 62, 0
5, 34176, Note_on_c, 2, 62, 110
5, 34177, Note_on_c, 2, 71, 110
5, 34179, Note_on_c, 2, 69, 0
5, 34179, Note_on_c, 2, 74, 0
5, 34367, Note_on_c, 2, 67, 0
5, 34368, Note_on_c, 2, 67, 115
5, 34512, Note_on_c, 2, 67, 0
5, 34536, Note_on_c, 2, 62, 0
5, 34543, Note_on_c, 2, 71, 0
5, 34561, Note_on_c, 2, 67, 110
5, 34562, Note_on_c, 2, 64, 110
5, 34563, Note_on_c, 2, 60, 110
5, 34849, Note_on_c, 2, 67, 0
5, 34850, Note_on_c, 2, 64, 0
5, 34851, Note_on_c, 2, 60, 0
5, 34896, Note_on_c, 2, 60, 110
5, 34896, Note_on_c, 2, 64, 110
5, 34897, Note_on_c, 2, 67, 110
5, 34922, Note_on_c, 2, 60, 0
5, 34924, Note_on_c, 2, 64, 0
5, 34927, Note_on_c, 2, 67, 0
5, 34944, Note_on_c, 2, 65, 110
5, 34944, Note_on_c, 2, 69, 110
5, 34944, Note_on_c, 2, 60, 110
5, 34945, Note_on_c, 2, 62, 110
5, 35327, Note_on_c, 2, 67, 110
5, 35328, Note_on_c, 2, 60, 0
5, 35328, Note_on_c, 2, 65, 0
5, 35328, Note_on_c, 2, 69, 0
5, 35328, Note_on_c, 2, 65, 110
5, 35329, Note_on_c, 2, 62, 0
5, 35329, Note_on_c, 2, 62, 110
5, 35329, Note_on_c, 2, 59, 110
5, 35711, Note_on_c, 2, 67, 0
5, 35712, Note_on_c, 2, 65, 0
5, 35712, Note_on_c, 2, 59, 0
5, 35712, Note_on_c, 2, 59, 110
5, 35713, Note_on_c, 2, 62, 0
5, 35715, Note_on_c, 2, 64, 110
5, 35715, Note_on_c, 2, 67, 110
5, 35807, Note_on_c, 2, 77, 110
5, 35903, Note_on_c, 2, 77, 0
5, 35905, Note_on_c, 2, 76, 110
5, 35907, Note_on_c, 2, 64, 0
5, 35997, Note_on_c, 2, 74, 110
5, 36001, Note_on_c, 2, 76, 0
5, 36093, Note_on_c, 2, 74, 0
5, 36094, Note_on_c, 2, 64, 110
5, 36096, Note_on_c, 2, 59, 0
5, 36097, Note_on_c, 2, 69, 110
5, 36097, Note_on_c, 2, 60, 110
5, 36099, Note_on_c, 2, 67, 0
5, 36190, Note_on_c, 2, 72, 110
5, 36286, Note_on_c, 2, 72, 0
5, 36381, Note_on_c, 2, 69, 0
5, 36381, Note_on_c, 2, 69, 110
5, 36429, Note_on_c, 2, 69, 0
5, 36430, Note_on_c, 2, 71, 110
5, 36477, Note_on_c, 2, 69, 110
5, 36478, Note_on_c, 2, 71, 0
5, 36478, Note_on_c, 2, 64, 0
5, 36480, Note_on_c, 2, 62, 110
5, 36481, Note_on_c, 2, 60, 0
5, 36481, Note_on_c, 2, 64, 110
5, 36482, Note_on_c, 2, 72, 110
5, 36861, Note_on_c, 2, 69, 0
5, 36864, Note_on_c, 2, 62, 0
5, 36864, Note_on_c, 2, 62, 110
5, 36864, Note_on_c, 2, 65, 110
5, 36865, Note_on_c, 2, 64, 0
5, 36865, Note_on_c, 2, 71, 110
5, 36866, Note_on_c, 2, 72, 0
5, 36867, Note_on_c, 2, 69, 110
5, 37057, Note_on_c, 2, 71, 0
5, 37059, Note_on_c, 2, 74, 110
5, 37247, Note_on_c, 2, 68, 110
5, 37248, Note_on_c, 2, 65, 0
5, 37248, Note_on_c, 2, 62, 0
5, 37248, Note_on_c, 2, 63, 110
5, 37249, Note_on_c, 2, 72, 110
5, 37251, Note_on_c, 2, 69, 0
5, 37251, Note_on_c, 2, 74, 0
5, 37439, Note_on_c, 2, 68, 0
5, 37440, Note_on_c, 2, 68, 115
5, 37584, Note_on_c, 2, 68, 0
5, 37608, Note_on_c, 2, 63, 0
5, 37615, Note_on_c, 2, 72, 0
5, 37633, Note_on_c, 2, 68, 110
5, 37634, Note_on_c, 2, 65, 110
5, 37635, Note_on_c, 2, 61, 110
5, 37921, Note_on_c, 2, 68, 0
5, 37922, Note_on_c, 2, 65, 0
5, 37923, Note_on_c, 2, 61, 0
5, 37968, Note_on_c, 2, 61, 110
5, 37968, Note_on_c, 2, 65, 110
5, 37969, Note_on_c, 2, 68, 110
5, 37994, Note_on_c, 2, 61, 0
5, 37996, Note_on_c, 2, 65, 0
5, 37999, Note_on_c, 2, 68, 0
5, 38016, Note_on_c, 2, 66, 110
5, 38016, Note_on_c, 2, 70, 110
5, 38016, Note_on_c, 2, 61, 110
5, 38017, Note_on_c, 2, 63, 110
5, 38399, Note_on_c, 2, 68, 110
5, 38400, Note_on_c, 2, 61, 0
5, 38400, Note_on_c, 2, 66, 0
5, 38400, Note_on_c, 2, 70, 0
5, 38400, Note_on_c, 2, 66, 110
5, 38401, Note_on_c, 2, 63, 0
5, 38401, Note_on_c, 2, 63, 110
5, 38401, Note_on_c, 2, 60, 110
5, 38783, Note_on_c, 2, 68, 0
5, 38784, Note_on_c, 2, 66, 0
5, 38784, Note_on_c, 2, 60, 0
5, 38784, Note_on_c, 2, 60, 110
5, 38785, Note_on_c, 2, 63, 0
5, 38787, Note_on_c, 2, 65, 110
5, 38787, Note_on_c, 2, 68, 110
5, 38879, Note_on_c, 2, 78, 110
5, 38975, Note_on_c, 2, 78, 0
5, 38977, Note_on_c, 2, 77, 110
5, 38979, Note_on_c, 2, 65, 0
5, 39069, Note_on_c, 2, 75, 110
5, 39073, Note_on_c, 2, 77, 0
5, 39165, Note_on_c, 2, 75, 0
5, 39166, Note_on_c, 2, 65, 110
5, 39168, Note_on_c, 2, 60, 0
5, 39169, Note_on_c, 2, 70, 110
5, 39169, Note_on_c, 2, 61, 110
5, 39171, Note_on_c, 2, 68, 0
5, 39262, Note_on_c, 2, 73, 110
5, 39358, Note_on_c, 2, 73, 0
5, 39453, Note_on_c, 2, 70, 0
5, 39453, Note_on_c, 2, 70, 110
5, 39501, Note_on_c, 2, 70, 0
5, 39502, Note_on_c, 2, 72, 110
5, 39549, Note_on_c, 2, 70, 110
5, 39550, Note_on_c, 2, 72, 0
5, 39550, Note_on_c, 2, 65, 0
5, 39552, Note_on_c, 2, 63, 110
5, 39553, Note_on_c, 2, 61, 0
5, 39553, Note_on_c, 2, 65, 110
5, 39554, Note_on_c, 2, 73, 110
5, 39933, Note_on_c, 2, 70, 0
5, 39936, Note_on_c, 2, 63, 0
5, 39936, Note_on_c, 2, 63, 110
5, 39936, Note_on_c, 2, 66, 110
5, 39937, Note_on_c, 2, 65, 0
5, 39937, Note_on_c, 2, 72, 110
5, 39938, Note_on_c, 2, 73, 0
5, 39939, Note_on_c, 2, 70, 110
5, 40129, Note_on_c, 2, 72, 0
5, 40131, Note_on_c, 2, 75, 110
5, 40319, Note_on_c, 2, 68, 110
5, 40320, Note_on_c, 2, 66, 0
5, 40320, Note_on_c, 2, 63, 0
5, 40320, Note_on_c, 2, 63, 110
5, 40321, Note_on_c, 2, 72, 110
5, 40323, Note_on_c, 2, 70, 0
5, 40323, Note_on_c, 2, 75, 0
5, 40511, Note_on_c, 2, 68, 0
5, 40512, Note_on_c, 2, 68, 115
5, 40656, Note_on_c, 2, 68, 0
5, 40680, Note_on_c, 2, 63, 0
5, 40687, Note_on_c, 2, 72, 0
5, 40705, Note_on_c, 2, 68, 110
5, 40706, Note_on_c, 2, 65, 110
5, 40707, Note_on_c, 2, 61, 110
5, 40993, Note_on_c, 2, 68, 0
5, 40994, Note_on_c, 2, 65, 0
5, 40995, Note_on_c, 2, 61, 0
5, 41040, Note_on_c, 2, 61, 110
5, 41040, Note_on_c, 2, 65, 110
5, 41041, Note_on_c, 2, 68, 110
5, 41066, Note_on_c, 2, 61, 0
5, 41068, Note_on_c, 2, 65, 0
5, 41071, Note_on_c, 2, 68, 0
5, 41088, Note_on_c, 2, 66, 110
5, 41088, Note_on_c, 2, 70, 110
5, 41088, Note_on_c, 2, 61, 110
5, 41089, Note_on_c, 2, 63, 110
5, 41471, Note_on_c, 2, 68, 110
5, 41472, Note_on_c, 2, 61, 0
5, 41472, Note_on_c, 2, 66, 0
5, 41472, Note_on_c, 2, 70, 0
5, 41472, Note_on_c, 2, 66, 110
5, 41473, Note_on_c, 2, 63, 0
5, 41473, Note_on_c, 2, 63, 110
5, 41473, Note_on_c, 2, 60, 110
5, 41855, Note_on_c, 2, 68, 0
5, 41856, Note_on_c, 2, 66, 0
5, 41856, Note_on_c, 2, 60, 0
5, 41856, Note_on_c, 2, 60, 110
5, 41857, Note_on_c, 2, 63, 0
5, 41859, Note_on_c, 2, 68, 110
5, 41859, Note_on_c, 2, 63, 110
5, 41951, Note_on_c, 2, 78, 110
5, 42047, Note_on_c, 2, 78, 0
5, 42049, Note_on_c, 2, 77, 110
5, 42051, Note_on_c, 2, 63, 0
5, 42141, Note_on_c, 2, 75, 110
5, 42145, Note_on_c, 2, 77, 0
5, 42237, Note_on_c, 2, 75, 0
5, 42238, Note_on_c, 2, 65, 110
5, 42240, Note_on_c, 2, 60, 0
5, 42241, Note_on_c, 2, 70, 110
5, 42241, Note_on_c, 2, 61, 110
5, 42243, Note_on_c, 2, 68, 0
5, 42334, Note_on_c, 2, 73, 110
5, 42430, Note_on_c, 2, 73, 0
5, 42525, Note_on_c, 2, 70, 0
5, 42525, Note_on_c, 2, 70, 110
5, 42573, Note_on_c, 2, 70, 0
5, 42574, Note_on_c, 2, 72, 110
5, 42621, Note_on_c, 2, 70, 110
5, 42622, Note_on_c, 2, 72, 0
5, 42622, Note_on_c, 2, 65, 0
5, 42624, Note_on_c, 2, 63, 110
5, 42625, Note_on_c, 2, 61, 0
5, 42625, Note_on_c, 2, 65, 110
5, 42626, Note_on_c, 2, 73, 110
5, 43005, Note_on_c, 2, 70, 0
5, 43008, Note_on_c, 2, 63, 0
5, 43008, Note_on_c, 2, 63, 110
5, 43008, Note_on_c, 2, 66, 110
5, 43009, Note_on_c, 2, 65, 0
5, 43009, Note_on_c, 2, 72, 110
5, 43010, Note_on_c, 2, 73, 0
5, 43011, Note_on_c, 2, 70, 110
5, 43201, Note_on_c, 2, 72, 0
5, 43203, Note_on_c, 2, 75, 110
5, 43391, Note_on_c, 2, 68, 110
5, 43392, Note_on_c, 2, 66, 0
5, 43393, Note_on_c, 2, 72, 110
5, 43395, Note_on_c, 2, 75, 0
5, 43395, Note_on_c, 2, 70, 0
5, 43764, Note_on_c, 2, 72, 0
5, 43775, Note_on_c, 2, 68, 0
5, 43776, Note_on_c, 2, 63, 0
5, 43777, Note_on_c, 2, 68, 110
5, 43778, Note_on_c, 2, 65, 110
5, 43779, Note_on_c, 2, 61, 110
5, 44065, Note_on_c, 2, 68, 0
5, 44066, Note_on_c, 2, 65, 0
5, 44067, Note_on_c, 2, 61, 0
5, 44112, Note_on_c, 2, 61, 110
5, 44112, Note_on_c, 2, 65, 110
5, 44113, Note_on_c, 2, 68, 110
5, 44138, Note_on_c, 2, 61, 0
5, 44140, Note_on_c, 2, 65, 0
5, 44143, Note_on_c, 2, 68, 0
5, 44160, Note_on_c, 2, 66, 110
5, 44160, Note_on_c, 2, 70, 110
5, 44160, Note_on_c, 2, 61, 110
5, 44161, Note_on_c, 2, 63, 110
5, 44543, Note_on_c, 2, 68, 110
5, 44544, Note_on_c, 2, 61, 0
5, 44544, Note_on_c, 2, 66, 0
5, 44544, Note_on_c, 2, 70, 0
5, 44544, Note_on_c, 2, 66, 110
5, 44545, Note_on_c, 2, 63, 0
5, 44545, Note_on_c, 2, 63, 110
5, 44545, Note_on_c, 2, 60, 110
5, 44927, Note_on_c, 2, 68, 0
5, 44928, Note_on_c, 2, 66, 0
5, 44928, Note_on_c, 2, 60, 0
5, 44928, Note_on_c, 2, 60, 110
5, 44929, Note_on_c, 2, 63, 0
5, 44931, Note_on_c, 2, 65, 110
5, 44931, Note_on_c, 2, 68, 110
5, 45023, Note_on_c, 2, 78, 110
5, 45119, Note_on_c, 2, 78, 0
5, 45121, Note_on_c, 2, 77, 110
5, 45123, Note_on_c, 2, 65, 0
5, 45213, Note_on_c, 2, 75, 110
5, 45217, Note_on_c, 2, 77, 0
5, 45309, Note_on_c, 2, 75, 0
5, 45310, Note_on_c, 2, 65, 110
5, 45312, Note_on_c, 2, 60, 0
5, 45313, Note_on_c, 2, 70, 110
5, 45313, Note_on_c, 2, 61, 110
5, 45315, Note_on_c, 2, 68, 0
5, 45406, Note_on_c, 2, 73, 110
5, 45502, Note_on_c, 2, 73, 0
5, 45597, Note_on_c, 2, 70, 0
5, 45597, Note_on_c, 2, 70, 110
5, 45645, Note_on_c, 2, 70, 0
5, 45646, Note_on_c, 2, 72, 110
5, 45693, Note_on_c, 2, 70, 110
5, 45694, Note_on_c, 2, 72, 0
5, 45694, Note_on_c, 2, 65, 0
5, 45696, Note_on_c, 2, 63, 110
5, 45697, Note_on_c, 2, 61, 0
5, 45697, Note_on_c, 2, 65, 110
5, 45698, Note_on_c, 2, 73, 110
5, 46077, Note_on_c, 2, 70, 0
5, 46080, Note_on_c, 2, 63, 0
5, 46080, Note_on_c, 2, 63, 110
5, 46080, Note_on_c, 2, 66, 110
5, 46081, Note_on_c, 2, 65, 0
5, 46081, Note_on_c, 2, 72, 110
5, 46082, Note_on_c, 2, 73, 0
5, 46083, Note_on_c, 2, 70, 110
5, 46273, Note_on_c, 2, 72, 0
5, 46275, Note_on_c, 2, 75, 110
5, 46463, Note_on_c, 2, 68, 110
5, 46464, Note_on_c, 2, 66, 0
5, 46464, Note_on_c, 2, 63, 0
5, 46464, Note_on_c, 2, 63, 110
5, 46465, Note_on_c, 2, 72, 110
5, 46467, Note_on_c, 2, 70, 0
5, 46467, Note_on_c, 2, 75, 0
5, 46655, Note_on_c, 2, 68, 0
5, 46656, Note_on_c, 2, 68, 115
5, 46800, Note_on_c, 2, 68, 0
5, 46824, Note_on_c, 2, 63, 0
5, 46831, Note_on_c, 2, 72, 0
5, 46849, Note_on_c, 2, 68, 110
5, 46850, Note_on_c, 2, 65, 110
5, 46851, Note_on_c, 2, 61, 110
5, 47137, Note_on_c, 2, 68, 0
5, 47138, Note_on_c, 2, 65, 0
5, 47139, Note_on_c, 2, 61, 0
5, 47184, Note_on_c, 2, 61, 110
5, 47184, Note_on_c, 2, 65, 110
5, 47185, Note_on_c, 2, 68, 110
5, 47210, Note_on_c, 2, 61, 0
5, 47212, Note_on_c, 2, 65, 0
5, 47215, Note_on_c, 2, 68, 0
5, 47232, Note_on_c, 2, 66, 110
5, 47232, Note_on_c, 2, 70, 110
5, 47232, Note_on_c, 2, 61, 110
5, 47233, Note_on_c, 2, 63, 110
5, 47615, Note_on_c, 2, 68, 110
5, 47616, Note_on_c, 2, 61, 0
5, 47616, Note_on_c, 2, 66, 0
5, 47616, Note_on_c, 2, 70, 0
5, 47616, Note_on_c, 2, 66, 110
5, 47617, Note_on_c, 2, 63, 0
5, 47617, Note_on_c, 2, 63, 110
5, 47617, Note_on_c, 2, 60, 110
5, 47999, Note_on_c, 2, 68, 0
5, 48000, Note_on_c, 2, 66, 0
5, 48000, Note_on_c, 2, 60, 0
5, 48000, Note_on_c, 2, 60, 110
5, 48001, Note_on_c, 2, 63, 0
5, 48003, Note_on_c, 2, 65, 110
5, 48003, Note_on_c, 2, 68, 110
5, 48095, Note_on_c, 2, 78, 110
5, 48191, Note_on_c, 2, 78, 0
5, 48193, Note_on_c, 2, 77, 110
5, 48195, Note_on_c, 2, 65, 0
5, 48285, Note_on_c, 2, 75, 110
5, 48289, Note_on_c, 2, 77, 0
5, 48381, Note_on_c, 2, 75, 0
5, 48382, Note_on_c, 2, 65, 110
5, 48384, Note_on_c, 2, 60, 0
5, 48385, Note_on_c, 2, 70, 110
5, 48385, Note_on_c, 2, 61, 110
5, 48387, Note_on_c, 2, 68, 0
5, 48478, Note_on_c, 2, 73, 110
5, 48574, Note_on_c, 2, 73, 0
5, 48669, Note_on_c, 2, 70, 0
5, 48669, Note_on_c, 2, 70, 110
5, 48717, Note_on_c, 2, 70, 0
5, 48718, Note_on_c, 2, 72, 110
5, 48765, Note_on_c, 2, 70, 110
5, 48766, Note_on_c, 2, 72, 0
5, 48766, Note_on_c, 2, 65, 0
5, 48768, Note_on_c, 2, 63, 110
5, 48769, Note_on_c, 2, 61, 0
5, 48769, Note_on_c, 2, 65, 110
5, 48770, Note_on_c, 2, 73, 110
5, 49149, Note_on_c, 2, 70, 0
5, 49152, Note_on_c, 2, 63, 0
5, 49152, Note_on_c, 2, 63, 110
5, 49152, Note_on_c, 2, 66, 110
5, 49153, Note_on_c, 2, 65, 0
5, 49153, Note_on_c, 2, 72, 110
5, 49154, Note_on_c, 2, 73, 0
5, 49155, Note_on_c, 2, 70, 110
5, 49345, Note_on_c, 2, 72, 0
5, 49347, Note_on_c, 2, 75, 110
5, 49535, Note_on_c, 2, 68, 110
5, 49536, Note_on_c, 2, 66, 0
5, 49536, Note_on_c, 2, 63, 0
5, 49536, Note_on_c, 2, 63, 110
5, 49537, Note_on_c, 2, 72, 110
5, 49539, Note_on_c, 2, 70, 0
5, 49539, Note_on_c, 2, 75, 0
5, 49727, Note_on_c, 2, 68, 0
5, 49728, Note_on_c, 2, 68, 115
5, 49872, Note_on_c, 2, 68, 0
5, 49896, Note_on_c, 2, 63, 0
5, 49903, Note_on_c, 2, 72, 0
5, 49921, Note_on_c, 2, 68, 110
5, 49922, Note_on_c, 2, 65, 110
5, 49923, Note_on_c, 2, 61, 110
5, 50209, Note_on_c, 2, 68, 0
5, 50210, Note_on_c, 2, 65, 0
5, 50211, Note_on_c, 2, 61, 0
5, 50256, Note_on_c, 2, 61, 104
5, 50256, Note_on_c, 2, 65, 104
5, 50257, Note_on_c, 2, 68, 104
5, 50282, Note_on_c, 2, 61, 0
5, 50284, Note_on_c, 2, 65, 0
5, 50287, Note_on_c, 2, 68, 0
5, 50304, Note_on_c, 2, 66, 103
5, 50304, Note_on_c, 2, 70, 103
5, 50304, Note_on_c, 2, 61, 103
5, 50305, Note_on_c, 2, 63, 103
5, 50687, Note_on_c, 2, 68, 95
5, 50688, Note_on_c, 2, 61, 0
5, 50688, Note_on_c, 2, 66, 0
5, 50688, Note_on_c, 2, 70, 0
5, 50688, Note_on_c, 2, 66, 95
5, 50689, Note_on_c, 2, 63, 0
5, 50689, Note_on_c, 2, 63, 95
5, 50689, Note_on_c, 2, 60, 95
5, 51071, Note_on_c, 2, 68, 0
5, 51072, Note_on_c, 2, 66, 0
5, 51072, Note_on_c, 2, 60, 0
5, 51072, Note_on_c, 2, 60, 84
5, 51073, Note_on_c, 2, 63, 0
5, 51075, Note_on_c, 2, 65, 84
5, 51075, Note_on_c, 2, 68, 84
5, 51167, Note_on_c, 2, 78, 81
5, 51263, Note_on_c, 2, 78, 0
5, 51265, Note_on_c, 2, 77, 78
5, 51267, Note_on_c, 2, 65, 0
5, 51357, Note_on_c, 2, 75, 75
5, 51361, Note_on_c, 2, 77, 0
5, 51453, Note_on_c, 2, 75, 0
5, 51454, Note_on_c, 2, 65, 72
5, 51456, Note_on_c, 2, 60, 0
5, 51457, Note_on_c, 2, 70, 72
5, 51457, Note_on_c, 2, 61, 72
5, 51459, Note_on_c, 2, 68, 0
5, 51550, Note_on_c, 2, 73, 69
5, 51646, Note_on_c, 2, 73, 0
5, 51741, Note_on_c, 2, 70, 0
5, 51741, Note_on_c, 2, 70, 63
5, 51789, Note_on_c, 2, 70, 0
5, 51790, Note_on_c, 2, 72, 61
5, 51837, Note_on_c, 2, 70, 60
5, 51838, Note_on_c, 2, 72, 0
5, 51838, Note_on_c, 2, 65, 0
5, 51840, Note_on_c, 2, 63, 60
5, 51841, Note_on_c, 2, 61, 0
5, 51841, Note_on_c, 2, 65, 60
5, 51842, Note_on_c, 2, 73, 60
5, 52221, Note_on_c, 2, 70, 0
5, 52224, Note_on_c, 2, 63, 0
5, 52224, Note_on_c, 2, 63, 48
5, 52224, Note_on_c, 2, 66, 48
5, 52225, Note_on_c, 2, 65, 0
5, 52225, Note_on_c, 2, 72, 48
5, 52226, Note_on_c, 2, 73, 0
5, 52227, Note_on_c, 2, 70, 48
5, 52417, Note_on_c, 2, 72, 0
5, 52419, Note_on_c, 2, 75, 42
5, 52607, Note_on_c, 2, 68, 36
5, 52608, Note_on_c, 2, 66, 0
5, 52608, Note_on_c, 2, 63, 0
5, 52608, Note_on_c, 2, 63, 36
5, 52609, Note_on_c, 2, 72, 36
5, 52611, Note_on_c, 2, 70, 0
5, 52611, Note_on_c, 2, 75, 0
5, 52799, Note_on_c, 2, 68, 0
5, 52800, Note_on_c, 2, 68, 30
5, 52944, Note_on_c, 2, 68, 0
5, 52968, Note_on_c, 2, 63, 0
5, 52975, Note_on_c, 2, 72, 0
5, 52993, Note_on_c, 2, 68, 24
5, 52994, Note_on_c, 2, 65, 24
5, 52995, Note_on_c, 2, 61, 24
5, 53281, Note_on_c, 2, 68, 0
5, 53282, Note_on_c, 2, 65, 0
5, 53283, Note_on_c, 2, 61, 0
5, 53328, Note_on_c, 2, 61, 14
5, 53328, Note_on_c, 2, 65, 14
5, 53329, Note_on_c, 2, 68, 14
5, 53354, Note_on_c, 2, 61, 0
5, 53356, Note_on_c, 2, 65, 0
5, 53359, Note_on_c, 2, 68, 0
5, 53376, Note_on_c, 2, 66, 12
5, 53376, Note_on_c, 2, 70, 12
5, 53376, Note_on_c, 2, 61, 12
5, 53377, Note_on_c, 2, 63, 12
5, 53759, Note_on_c, 2, 68, 1
5, 53760, Note_on_c, 2, 61, 0
5, 53760, Note_on_c, 2, 66, 0
5, 53760, Note_on_c, 2, 70, 0
5, 53760, Note_on_c, 2, 66, 1
5, 53761, Note_on_c, 2, 63, 0
5, 53761, Note_on_c, 2, 63, 0
5, 53761, Note_on_c, 2, 63, 0
5, 53761, Note_on_c, 2, 63, 0
5, 53761, Note_on_c, 2, 63, 0
5, 53761, Note_on_c, 2, 60, 0
5, 53761, Note_on_c, 2, 60, 0
5, 53761, Note_on_c, 2, 60, 0
5, 53761, Note_on_c, 2, 60, 0
5, 54143, Note_on_c, 2, 68, 0
5, 54144, Note_on_c, 2, 66, 0
5, 54144, Note_on_c, 2, 60, 0
5, 54144, Note_on_c, 2, 60, 0
5, 54144, Note_on_c, 2, 60, 0
5, 54144, Note_on_c, 2, 60, 0
5, 54145, Note_on_c, 2, 63, 0
5, 54145, Note_on_c, 2, 63, 0
5, 54145, Note_on_c, 2, 63, 0
5, 54145, Note_on_c, 2, 63, 0
5, 54145, End_track
6, 0, Start_track
6, 0, MIDI_port, 0
6, 0, Title_t, "strings 1"
6, 0, Control_c, 3, 0, 0
6, 0, Control_c, 3, 32, 0
6, 0, Program_c, 3, 49
6, 0, Control_c, 3, 7, 70
6, 0, Control_c, 3, 10, 104
6, 36, Control_c, 3, 1, 0
6, 72, Control_c, 3, 11, 127
6, 84, Control_c, 3, 64, 0
6, 108, Control_c, 3, 91, 89
6, 120, Control_c, 3, 93, 18
6, 12288, Note_on_c, 3, 81, 87
6, 12480, Note_on_c, 3, 81, 0
6, 12480, Note_on_c, 3, 84, 86
6, 12672, Note_on_c, 3, 84, 0
6, 12672, Note_on_c, 3, 79, 105
6, 12768, Note_on_c, 3, 79, 0
6, 12768, Note_on_c, 3, 83, 108
6, 12816, Note_on_c, 3, 83, 0
6, 12816, Note_on_c, 3, 84, 100
6, 13056, Note_on_c, 3, 84, 0
6, 13056, Note_on_c, 3, 93, 86
6, 13248, Note_on_c, 3, 93, 0
6, 13248, Note_on_c, 3, 91, 95
6, 13344, Note_on_c, 3, 91, 0
6, 13344, Note_on_c, 3, 89, 97
6, 13440, Note_on_c, 3, 89, 0
6, 13440, Note_on_c, 3, 88, 101
6, 13728, Note_on_c, 3, 88, 0
6, 13728, Note_on_c, 3, 86, 91
6, 14496, Note_on_c, 3, 86, 0
6, 14592, Note_on_c, 3, 84, 100
6, 15744, Note_on_c, 3, 84, 0
6, 15744, Note_on_c, 3, 88, 100
6, 15936, Note_on_c, 3, 88, 0
6, 15936, Note_on_c, 3, 86, 100
6, 16128, Note_on_c, 3, 86, 0
6, 16128, Note_on_c, 3, 93, 100
6, 17280, Note_on_c, 3, 93, 0
6, 17280, Note_on_c, 3, 95, 100
6, 17472, Note_on_c, 3, 95, 0
6, 17472, Note_on_c, 3, 91, 100
6, 17664, Note_on_c, 3, 91, 0
6, 17664, Note_on_c, 3, 84, 100
6, 18816, Note_on_c, 3, 84, 0
6, 18816, Note_on_c, 3, 88, 100
6, 19008, Note_on_c, 3, 88, 0
6, 19008, Note_on_c, 3, 86, 100
6, 19200, Note_on_c, 3, 86, 0
6, 19200, Note_on_c, 3, 93, 100
6, 20352, Note_on_c, 3, 93, 0
6, 20352, Note_on_c, 3, 95, 100
6, 20544, Note_on_c, 3, 95, 0
6, 20544, Note_on_c, 3, 91, 100
6, 20736, Note_on_c, 3, 91, 0
6, 29184, Note_on_c, 3, 81, 87
6, 29376, Note_on_c, 3, 81, 0
6, 29376, Note_on_c, 3, 84, 86
6, 29568, Note_on_c, 3, 84, 0
6, 29568, Note_on_c, 3, 79, 105
6, 29664, Note_on_c, 3, 79, 0
6, 29664, Note_on_c, 3, 83, 108
6, 29712, Note_on_c, 3, 83, 0
6, 29712, Note_on_c, 3, 84, 100
6, 29952, Note_on_c, 3, 84, 0
6, 29952, Note_on_c, 3, 93, 86
6, 30144, Note_on_c, 3, 93, 0
6, 30144, Note_on_c, 3, 91, 95
6, 30240, Note_on_c, 3, 91, 0
6, 30240, Note_on_c, 3, 89, 97
6, 30336, Note_on_c, 3, 89, 0
6, 30336, Note_on_c, 3, 88, 101
6, 30624, Note_on_c, 3, 88, 0
6, 30624, Note_on_c, 3, 86, 91
6, 31392, Note_on_c, 3, 86, 0
6, 31488, Note_on_c, 3, 84, 100
6, 32640, Note_on_c, 3, 84, 0
6, 32640, Note_on_c, 3, 88, 100
6, 32832, Note_on_c, 3, 88, 0
6, 32832, Note_on_c, 3, 86, 100
6, 33024, Note_on_c, 3, 86, 0
6, 33024, Note_on_c, 3, 93, 100
6, 34176, Note_on_c, 3, 93, 0
6, 34176, Note_on_c, 3, 95, 100
6, 34368, Note_on_c, 3, 95, 0
6, 34368, Note_on_c, 3, 91, 100
6, 34560, Note_on_c, 3, 91, 0
6, 34560, Note_on_c, 3, 84, 100
6, 35712, Note_on_c, 3, 84, 0
6, 35712, Note_on_c, 3, 88, 100
6, 35904, Note_on_c, 3, 88, 0
6, 35904, Note_on_c, 3, 86, 100
6, 36096, Note_on_c, 3, 86, 0
6, 36096, Note_on_c, 3, 93, 100
6, 37248, Note_on_c, 3, 93, 0
6, 37248, Note_on_c, 3, 96, 100
6, 37440, Note_on_c, 3, 96, 0
6, 37440, Note_on_c, 3, 92, 100
6, 37632, Note_on_c, 3, 92, 0
6, 37632, Note_on_c, 3, 85, 100
6, 38784, Note_on_c, 3, 85, 0
6, 38784, Note_on_c, 3, 89, 100
6, 38976, Note_on_c, 3, 89, 0
6, 38976, Note_on_c, 3, 87, 100
6, 39168, Note_on_c, 3, 87, 0
6, 39168, Note_on_c, 3, 94, 100
6, 40320, Note_on_c, 3, 94, 0
6, 40320, Note_on_c, 3, 96, 100
6, 40512, Note_on_c, 3, 96, 0
6, 40512, Note_on_c, 3, 92, 100
6, 40704, Note_on_c, 3, 92, 0
6, 40704, Note_on_c, 3, 85, 100
6, 41856, Note_on_c, 3, 85, 0
6, 41856, Note_on_c, 3, 89, 100
6, 42048, Note_on_c, 3, 89, 0
6, 42048, Note_on_c, 3, 87, 100
6, 42240, Note_on_c, 3, 87, 0
6, 42240, Note_on_c, 3, 94, 100
6, 43392, Note_on_c, 3, 94, 0
6, 43392, Note_on_c, 3, 96, 100
6, 43584, Note_on_c, 3, 96, 0
6, 43584, Note_on_c, 3, 92, 100
6, 43776, Note_on_c, 3, 92, 0
6, 43776, Note_on_c, 3, 85, 100
6, 44928, Note_on_c, 3, 85, 0
6, 44928, Note_on_c, 3, 89, 100
6, 45120, Note_on_c, 3, 89, 0
6, 45120, Note_on_c, 3, 87, 100
6, 45312, Note_on_c, 3, 87, 0
6, 45312, Note_on_c, 3, 94, 100
6, 46464, Note_on_c, 3, 94, 0
6, 46464, Note_on_c, 3, 96, 100
6, 46656, Note_on_c, 3, 96, 0
6, 46656, Note_on_c, 3, 92, 100
6, 46848, Note_on_c, 3, 92, 0
6, 46848, Note_on_c, 3, 85, 100
6, 48000, Note_on_c, 3, 85, 0
6, 48000, Note_on_c, 3, 89, 100
6, 48192, Note_on_c, 3, 89, 0
6, 48192, Note_on_c, 3, 87, 100
6, 48384, Note_on_c, 3, 87, 0
6, 48384, Note_on_c, 3, 94, 100
6, 49536, Note_on_c, 3, 94, 0
6, 49536, Note_on_c, 3, 96, 100
6, 49728, Note_on_c, 3, 96, 0
6, 49728, Note_on_c, 3, 92, 100
6, 49920, Note_on_c, 3, 92, 0
6, 49920, Note_on_c, 3, 85, 100
6, 51072, Note_on_c, 3, 85, 0
6, 51072, Note_on_c, 3, 89, 75
6, 51264, Note_on_c, 3, 89, 0
6, 51264, Note_on_c, 3, 87, 70
6, 51456, Note_on_c, 3, 87, 0
6, 51456, Note_on_c, 3, 94, 64
6, 52608, Note_on_c, 3, 94, 0
6, 52608, Note_on_c, 3, 96, 32
6, 52800, Note_on_c, 3, 96, 0
6, 52800, Note_on_c, 3, 92, 19
6, 52992, Note_on_c, 3, 92, 0
6, 52992, Note_on_c, 3, 85, 8
6, 54144, Note_on_c, 3, 85, 0
6, 54144, End_track
7, 0, Start_track
7, 0, MIDI_port, 0
7, 0, Title_t, "fch horn"
7, 0, Control_c, 4, 0, 0
7, 0, Control_c, 4, 32, 0
7, 0, Program_c, 4, 60
7, 0, Control_c, 4, 7, 90
7, 0, Control_c, 4, 10, 44
7, 36, Control_c, 4, 1, 0
7, 72, Control_c, 4, 11, 127
7, 84, Control_c, 4, 64, 0
7, 108, Control_c, 4, 91, 40
7, 120, Control_c, 4, 93, 10
7, 14592, Note_on_c, 4, 64, 100
7, 14976, Note_on_c, 4, 64, 0
7, 14976, Note_on_c, 4, 65, 100
7, 15360, Note_on_c, 4, 65, 0
7, 15360, Note_on_c, 4, 67, 100
7, 15744, Note_on_c, 4, 67, 0
7, 15744, Note_on_c, 4, 64, 100
7, 15936, Note_on_c, 4, 64, 0
7, 15936, Note_on_c, 4, 68, 100
7, 16128, Note_on_c, 4, 68, 0
7, 16128, Note_on_c, 4, 69, 100
7, 16320, Note_on_c, 4, 69, 0
7, 16320, Note_on_c, 4, 67, 100
7, 16512, Note_on_c, 4, 67, 0
7, 16512, Note_on_c, 4, 67, 100
7, 17280, Note_on_c, 4, 67, 0
7, 17280, Note_on_c, 4, 71, 100
7, 17664, Note_on_c, 4, 71, 0
7, 17664, Note_on_c, 4, 64, 100
7, 18048, Note_on_c, 4, 64, 0
7, 18048, Note_on_c, 4, 65, 100
7, 18432, Note_on_c, 4, 65, 0
7, 18432, Note_on_c, 4, 67, 100
7, 18816, Note_on_c, 4, 67, 0
7, 18816, Note_on_c, 4, 64, 100
7, 19008, Note_on_c, 4, 64, 0
7, 19008, Note_on_c, 4, 68, 100
7, 19200, Note_on_c, 4, 68, 0
7, 19200, Note_on_c, 4, 69, 100
7, 20352, Note_on_c, 4, 69, 0
7, 20352, Note_on_c, 4, 71, 100
7, 20736, Note_on_c, 4, 71, 0
7, 31488, Note_on_c, 4, 64, 100
7, 31872, Note_on_c, 4, 64, 0
7, 31872, Note_on_c, 4, 65, 100
7, 32256, Note_on_c, 4, 65, 0
7, 32256, Note_on_c, 4, 67, 100
7, 32640, Note_on_c, 4, 67, 0
7, 32640, Note_on_c, 4, 64, 100
7, 32832, Note_on_c, 4, 64, 0
7, 32832, Note_on_c, 4, 68, 100
7, 33024, Note_on_c, 4, 68, 0
7, 33024, Note_on_c, 4, 69, 100
7, 33216, Note_on_c, 4, 69, 0
7, 33216, Note_on_c, 4, 67, 100
7, 33408, Note_on_c, 4, 67, 0
7, 33408, Note_on_c, 4, 67, 100
7, 34176, Note_on_c, 4, 67, 0
7, 34176, Note_on_c, 4, 71, 100
7, 34560, Note_on_c, 4, 71, 0
7, 34560, Note_on_c, 4, 64, 100
7, 34944, Note_on_c, 4, 64, 0
7, 34944, Note_on_c, 4, 65, 100
7, 35328, Note_on_c, 4, 65, 0
7, 35328, Note_on_c, 4, 67, 100
7, 35712, Note_on_c, 4, 67, 0
7, 35712, Note_on_c, 4, 64, 100
7, 35904, Note_on_c, 4, 64, 0
7, 35904, Note_on_c, 4, 68, 100
7, 36096, Note_on_c, 4, 68, 0
7, 36096, Note_on_c, 4, 69, 100
7, 37248, Note_on_c, 4, 69, 0
7, 37248, Note_on_c, 4, 72, 100
7, 37632, Note_on_c, 4, 72, 0
7, 37632, Note_on_c, 4, 65, 100
7, 38016, Note_on_c, 4, 65, 0
7, 38016, Note_on_c, 4, 66, 100
7, 38400, Note_on_c, 4, 66, 0
7, 38400, Note_on_c, 4, 68, 100
7, 38784, Note_on_c, 4, 68, 0
7, 38784, Note_on_c, 4, 65, 100
7, 38976, Note_on_c, 4, 65, 0
7, 38976, Note_on_c, 4, 69, 100
7, 39168, Note_on_c, 4, 69, 0
7, 39168, Note_on_c, 4, 70, 100
7, 40320, Note_on_c, 4, 70, 0
7, 40320, Note_on_c, 4, 72, 100
7, 40704, Note_on_c, 4, 72, 0
7, 40704, Note_on_c, 4, 65, 100
7, 41088, Note_on_c, 4, 65, 0
7, 41088, Note_on_c, 4, 66, 100
7, 41472, Note_on_c, 4, 66, 0
7, 41472, Note_on_c, 4, 68, 100
7, 41856, Note_on_c, 4, 68, 0
7, 41856, Note_on_c, 4, 65, 100
7, 42048, Note_on_c, 4, 65, 0
7, 42048, Note_on_c, 4, 69, 100
7, 42240, Note_on_c, 4, 69, 0
7, 42240, Note_on_c, 4, 70, 100
7, 43392, Note_on_c, 4, 70, 0
7, 43392, Note_on_c, 4, 72, 100
7, 43776, Note_on_c, 4, 72, 0
7, 43776, Note_on_c, 4, 65, 100
7, 44160, Note_on_c, 4, 65, 0
7, 44160, Note_on_c, 4, 66, 100
7, 44544, Note_on_c, 4, 66, 0
7, 44544, Note_on_c, 4, 68, 100
7, 44928, Note_on_c, 4, 68, 0
7, 44928, Note_on_c, 4, 65, 100
7, 45120, Note_on_c, 4, 65, 0
7, 45120, Note_on_c, 4, 69, 100
7, 45312, Note_on_c, 4, 69, 0
7, 45312, Note_on_c, 4, 70, 100
7, 46464, Note_on_c, 4, 70, 0
7, 46464, Note_on_c, 4, 72, 100
7, 46848, Note_on_c, 4, 72, 0
7, 46848, Note_on_c, 4, 65, 100
7, 47232, Note_on_c, 4, 65, 0
7, 47232, Note_on_c, 4, 66, 100
7, 47616, Note_on_c, 4, 66, 0
7, 47616, Note_on_c, 4, 68, 100
7, 48000, Note_on_c, 4, 68, 0
7, 48000, Note_on_c, 4, 65, 100
7, 48192, Note_on_c, 4, 65, 0
7, 48192, Note_on_c, 4, 69, 100
7, 48384, Note_on_c, 4, 69, 0
7, 48384, Note_on_c, 4, 70, 100
7, 49536, Note_on_c, 4, 70, 0
7, 49536, Note_on_c, 4, 72, 100
7, 49920, Note_on_c, 4, 72, 0
7, 49920, Note_on_c, 4, 65, 100
7, 50304, Note_on_c, 4, 65, 0
7, 50304, Note_on_c, 4, 66, 93
7, 50688, Note_on_c, 4, 66, 0
7, 50688, Note_on_c, 4, 68, 85
7, 51072, Note_on_c, 4, 68, 0
7, 51072, Note_on_c, 4, 65, 75
7, 51264, Note_on_c, 4, 65, 0
7, 51264, Note_on_c, 4, 69, 70
7, 51456, Note_on_c, 4, 69, 0
7, 51456, Note_on_c, 4, 70, 64
7, 52608, Note_on_c, 4, 70, 0
7, 52608, Note_on_c, 4, 72, 32
7, 52992, Note_on_c, 4, 72, 0
7, 52992, Note_on_c, 4, 65, 22
7, 53376, Note_on_c, 4, 65, 0
7, 53376, Note_on_c, 4, 66, 11
7, 53760, Note_on_c, 4, 66, 0
7, 53760, Note_on_c, 4, 68, 0
7, 53760, Note_on_c, 4, 68, 0
7, 53760, Note_on_c, 4, 68, 0
7, 53760, Note_on_c, 4, 68, 0
7, 54144, Note_on_c, 4, 68, 0
7, 54144, Note_on_c, 4, 68, 0
7, 54144, Note_on_c, 4, 68, 0
7, 54144, Note_on_c, 4, 68, 0
7, 54144, End_track
8, 0, Start_track
8, 0, MIDI_port, 0
8, 0, Title_t, "aahs"
8, 0, Program_c, 5, 54
8, 0, Control_c, 5, 7, 70
8, 0, Control_c, 5, 10, 64
8, 36, Control_c, 5, 1, 0
8, 72, Control_c, 5, 11, 127
8, 84, Control_c, 5, 64, 0
8, 108, Control_c, 5, 91, 63
8, 120, Control_c, 5, 93, 0
8, 14592, Note_on_c, 5, 64, 90
8, 14592, Note_on_c, 5, 60, 90
8, 14976, Note_on_c, 5, 60, 0
8, 14976, Note_on_c, 5, 64, 0
8, 14976, Note_on_c, 5, 65, 90
8, 14976, Note_on_c, 5, 57, 90
8, 15360, Note_on_c, 5, 57, 0
8, 15360, Note_on_c, 5, 65, 0
8, 15360, Note_on_c, 5, 65, 90
8, 15360, Note_on_c, 5, 62, 90
8, 15744, Note_on_c, 5, 62, 0
8, 15744, Note_on_c, 5, 65, 0
8, 15744, Note_on_c, 5, 64, 90
8, 15744, Note_on_c, 5, 59, 90
8, 15936, Note_on_c, 5, 64, 0
8, 15936, Note_on_c, 5, 68, 90
8, 16128, Note_on_c, 5, 68, 0
8, 16128, Note_on_c, 5, 59, 0
8, 16128, Note_on_c, 5, 67, 90
8, 16128, Note_on_c, 5, 60, 90
8, 16512, Note_on_c, 5, 60, 0
8, 16512, Note_on_c, 5, 67, 0
8, 16512, Note_on_c, 5, 69, 90
8, 16512, Note_on_c, 5, 65, 90
8, 16896, Note_on_c, 5, 65, 0
8, 16896, Note_on_c, 5, 69, 0
8, 16896, Note_on_c, 5, 65, 90
8, 16896, Note_on_c, 5, 69, 90
8, 17280, Note_on_c, 5, 74, 90
8, 17472, Note_on_c, 5, 74, 0
8, 17472, Note_on_c, 5, 69, 0
8, 17472, Note_on_c, 5, 67, 90
8, 17664, Note_on_c, 5, 67, 0
8, 17664, Note_on_c, 5, 65, 0
8, 17664, Note_on_c, 5, 64, 90
8, 17664, Note_on_c, 5, 60, 90
8, 18048, Note_on_c, 5, 60, 0
8, 18048, Note_on_c, 5, 64, 0
8, 18048, Note_on_c, 5, 65, 90
8, 18048, Note_on_c, 5, 57, 90
8, 18432, Note_on_c, 5, 57, 0
8, 18432, Note_on_c, 5, 65, 0
8, 18432, Note_on_c, 5, 65, 90
8, 18432, Note_on_c, 5, 62, 90
8, 18816, Note_on_c, 5, 62, 0
8, 18816, Note_on_c, 5, 65, 0
8, 18816, Note_on_c, 5, 64, 90
8, 18816, Note_on_c, 5, 59, 90
8, 19008, Note_on_c, 5, 64, 0
8, 19008, Note_on_c, 5, 68, 90
8, 19200, Note_on_c, 5, 68, 0
8, 19200, Note_on_c, 5, 59, 0
8, 19200, Note_on_c, 5, 67, 90
8, 19200, Note_on_c, 5, 60, 90
8, 19584, Note_on_c, 5, 60, 0
8, 19584, Note_on_c, 5, 67, 0
8, 19584, Note_on_c, 5, 69, 90
8, 19584, Note_on_c, 5, 65, 90
8, 19968, Note_on_c, 5, 65, 0
8, 19968, Note_on_c, 5, 69, 0
8, 19968, Note_on_c, 5, 65, 90
8, 19968, Note_on_c, 5, 69, 90
8, 20352, Note_on_c, 5, 74, 90
8, 20544, Note_on_c, 5, 74, 0
8, 20544, Note_on_c, 5, 69, 0
8, 20544, Note_on_c, 5, 67, 90
8, 20736, Note_on_c, 5, 67, 0
8, 20736, Note_on_c, 5, 65, 0
8, 20736, Note_on_c, 5, 72, 100
8, 20736, Note_on_c, 5, 76, 100
8, 21120, Note_on_c, 5, 76, 0
8, 21120, Note_on_c, 5, 72, 0
8, 31488, Note_on_c, 5, 64, 90
8, 31488, Note_on_c, 5, 60, 90
8, 31872, Note_on_c, 5, 60, 0
8, 31872, Note_on_c, 5, 64, 0
8, 31872, Note_on_c, 5, 65, 90
8, 31872, Note_on_c, 5, 57, 90
8, 32256, Note_on_c, 5, 57, 0
8, 32256, Note_on_c, 5, 65, 0
8, 32256, Note_on_c, 5, 65, 90
8, 32256, Note_on_c, 5, 62, 90
8, 32640, Note_on_c, 5, 62, 0
8, 32640, Note_on_c, 5, 65, 0
8, 32640, Note_on_c, 5, 64, 90
8, 32640, Note_on_c, 5, 59, 90
8, 32832, Note_on_c, 5, 64, 0
8, 32832, Note_on_c, 5, 68, 90
8, 33024, Note_on_c, 5, 68, 0
8, 33024, Note_on_c, 5, 59, 0
8, 33024, Note_on_c, 5, 67, 90
8, 33024, Note_on_c, 5, 60, 90
8, 33408, Note_on_c, 5, 60, 0
8, 33408, Note_on_c, 5, 67, 0
8, 33408, Note_on_c, 5, 69, 90
8, 33408, Note_on_c, 5, 65, 90
8, 33792, Note_on_c, 5, 65, 0
8, 33792, Note_on_c, 5, 69, 0
8, 33792, Note_on_c, 5, 65, 90
8, 33792, Note_on_c, 5, 69, 90
8, 34176, Note_on_c, 5, 74, 90
8, 34368, Note_on_c, 5, 74, 0
8, 34368, Note_on_c, 5, 69, 0
8, 34368, Note_on_c, 5, 67, 90
8, 34560, Note_on_c, 5, 67, 0
8, 34560, Note_on_c, 5, 65, 0
8, 34560, Note_on_c, 5, 64, 90
8, 34560, Note_on_c, 5, 60, 90
8, 34944, Note_on_c, 5, 60, 0
8, 34944, Note_on_c, 5, 64, 0
8, 34944, Note_on_c, 5, 65, 90
8, 34944, Note_on_c, 5, 57, 90
8, 35328, Note_on_c, 5, 57, 0
8, 35328, Note_on_c, 5, 65, 0
8, 35328, Note_on_c, 5, 65, 90
8, 35328, Note_on_c, 5, 62, 90
8, 35712, Note_on_c, 5, 62, 0
8, 35712, Note_on_c, 5, 65, 0
8, 35712, Note_on_c, 5, 64, 90
8, 35712, Note_on_c, 5, 59, 90
8, 35904, Note_on_c, 5, 64, 0
8, 35904, Note_on_c, 5, 68, 90
8, 36096, Note_on_c, 5, 68, 0
8, 36096, Note_on_c, 5, 59, 0
8, 36096, Note_on_c, 5, 67, 90
8, 36096, Note_on_c, 5, 60, 90
8, 36480, Note_on_c, 5, 60, 0
8, 36480, Note_on_c, 5, 67, 0
8, 36480, Note_on_c, 5, 69, 90
8, 36480, Note_on_c, 5, 65, 90
8, 36864, Note_on_c, 5, 65, 0
8, 36864, Note_on_c, 5, 69, 0
8, 36864, Note_on_c, 5, 65, 90
8, 36864, Note_on_c, 5, 69, 90
8, 37248, Note_on_c, 5, 69, 0
8, 37248, Note_on_c, 5, 65, 0
8, 37248, Note_on_c, 5, 75, 90
8, 37248, Note_on_c, 5, 66, 100
8, 37440, Note_on_c, 5, 75, 0
8, 37440, Note_on_c, 5, 68, 90
8, 37632, Note_on_c, 5, 68, 0
8, 37632, Note_on_c, 5, 66, 0
8, 37632, Note_on_c, 5, 65, 90
8, 37632, Note_on_c, 5, 61, 90
8, 38016, Note_on_c, 5, 61, 0
8, 38016, Note_on_c, 5, 65, 0
8, 38016, Note_on_c, 5, 66, 90
8, 38016, Note_on_c, 5, 58, 90
8, 38400, Note_on_c, 5, 58, 0
8, 38400, Note_on_c, 5, 66, 0
8, 38400, Note_on_c, 5, 66, 90
8, 38400, Note_on_c, 5, 63, 90
8, 38784, Note_on_c, 5, 63, 0
8, 38784, Note_on_c, 5, 66, 0
8, 38784, Note_on_c, 5, 65, 90
8, 38784, Note_on_c, 5, 60, 90
8, 38976, Note_on_c, 5, 65, 0
8, 38976, Note_on_c, 5, 69, 90
8, 39168, Note_on_c, 5, 69, 0
8, 39168, Note_on_c, 5, 60, 0
8, 39168, Note_on_c, 5, 68, 90
8, 39168, Note_on_c, 5, 61, 90
8, 39552, Note_on_c, 5, 61, 0
8, 39552, Note_on_c, 5, 68, 0
8, 39552, Note_on_c, 5, 70, 90
8, 39552, Note_on_c, 5, 66, 90
8, 39936, Note_on_c, 5, 66, 0
8, 39936, Note_on_c, 5, 70, 0
8, 39936, Note_on_c, 5, 66, 90
8, 39936, Note_on_c, 5, 70, 90
8, 40320, Note_on_c, 5, 75, 90
8, 40512, Note_on_c, 5, 75, 0
8, 40512, Note_on_c, 5, 70, 0
8, 40512, Note_on_c, 5, 68, 90
8, 40704, Note_on_c, 5, 68, 0
8, 40704, Note_on_c, 5, 66, 0
8, 40704, Note_on_c, 5, 65, 90
8, 40704, Note_on_c, 5, 61, 90
8, 41088, Note_on_c, 5, 61, 0
8, 41088, Note_on_c, 5, 65, 0
8, 41088, Note_on_c, 5, 66, 90
8, 41088, Note_on_c, 5, 58, 90
8, 41472, Note_on_c, 5, 58, 0
8, 41472, Note_on_c, 5, 66, 0
8, 41472, Note_on_c, 5, 66, 90
8, 41472, Note_on_c, 5, 63, 90
8, 41856, Note_on_c, 5, 63, 0
8, 41856, Note_on_c, 5, 66, 0
8, 41856, Note_on_c, 5, 65, 90
8, 41856, Note_on_c, 5, 60, 90
8, 42048, Note_on_c, 5, 65, 0
8, 42048, Note_on_c, 5, 69, 90
8, 42240, Note_on_c, 5, 69, 0
8, 42240, Note_on_c, 5, 60, 0
8, 42240, Note_on_c, 5, 68, 90
8, 42240, Note_on_c, 5, 61, 90
8, 42624, Note_on_c, 5, 61, 0
8, 42624, Note_on_c, 5, 68, 0
8, 42624, Note_on_c, 5, 70, 90
8, 42624, Note_on_c, 5, 66, 90
8, 43008, Note_on_c, 5, 66, 0
8, 43008, Note_on_c, 5, 70, 0
8, 43008, Note_on_c, 5, 66, 90
8, 43008, Note_on_c, 5, 70, 90
8, 43392, Note_on_c, 5, 75, 90
8, 43584, Note_on_c, 5, 75, 0
8, 43584, Note_on_c, 5, 70, 0
8, 43584, Note_on_c, 5, 68, 90
8, 43776, Note_on_c, 5, 68, 0
8, 43776, Note_on_c, 5, 66, 0
8, 43776, Note_on_c, 5, 65, 90
8, 43776, Note_on_c, 5, 61, 90
8, 44160, Note_on_c, 5, 61, 0
8, 44160, Note_on_c, 5, 65, 0
8, 44160, Note_on_c, 5, 66, 90
8, 44160, Note_on_c, 5, 58, 90
8, 44544, Note_on_c, 5, 58, 0
8, 44544, Note_on_c, 5, 66, 0
8, 44544, Note_on_c, 5, 66, 90
8, 44544, Note_on_c, 5, 63, 90
8, 44928, Note_on_c, 5, 63, 0
8, 44928, Note_on_c, 5, 66, 0
8, 44928, Note_on_c, 5, 65, 90
8, 44928, Note_on_c, 5, 60, 90
8, 45120, Note_on_c, 5, 65, 0
8, 45120, Note_on_c, 5, 69, 90
8, 45312, Note_on_c, 5, 69, 0
8, 45312, Note_on_c, 5, 60, 0
8, 45312, Note_on_c, 5, 68, 90
8, 45312, Note_on_c, 5, 61, 90
8, 45696, Note_on_c, 5, 61, 0
8, 45696, Note_on_c, 5, 68, 0
8, 45696, Note_on_c, 5, 70, 90
8, 45696, Note_on_c, 5, 66, 90
8, 46080, Note_on_c, 5, 66, 0
8, 46080, Note_on_c, 5, 70, 0
8, 46080, Note_on_c, 5, 66, 90
8, 46080, Note_on_c, 5, 70, 90
8, 46464, Note_on_c, 5, 75, 90
8, 46656, Note_on_c, 5, 75, 0
8, 46656, Note_on_c, 5, 70, 0
8, 46656, Note_on_c, 5, 68, 90
8, 46848, Note_on_c, 5, 68, 0
8, 46848, Note_on_c, 5, 66, 0
8, 46848, Note_on_c, 5, 65, 90
8, 46848, Note_on_c, 5, 61, 90
8, 47232, Note_on_c, 5, 61, 0
8, 47232, Note_on_c, 5, 65, 0
8, 47232, Note_on_c, 5, 66, 90
8, 47232, Note_on_c, 5, 58, 90
8, 47616, Note_on_c, 5, 58, 0
8, 47616, Note_on_c, 5, 66, 0
8, 47616, Note_on_c, 5, 66, 90
8, 47616, Note_on_c, 5, 63, 90
8, 48000, Note_on_c, 5, 63, 0
8, 48000, Note_on_c, 5, 66, 0
8, 48000, Note_on_c, 5, 65, 90
8, 48000, Note_on_c, 5, 60, 90
8, 48192, Note_on_c, 5, 65, 0
8, 48192, Note_on_c, 5, 69, 90
8, 48384, Note_on_c, 5, 69, 0
8, 48384, Note_on_c, 5, 60, 0
8, 48384, Note_on_c, 5, 68, 90
8, 48384, Note_on_c, 5, 61, 90
8, 48768, Note_on_c, 5, 61, 0
8, 48768, Note_on_c, 5, 68, 0
8, 48768, Note_on_c, 5, 70, 90
8, 48768, Note_on_c, 5, 66, 90
8, 49152, Note_on_c, 5, 66, 0
8, 49152, Note_on_c, 5, 70, 0
8, 49152, Note_on_c, 5, 66, 90
8, 49152, Note_on_c, 5, 70, 90
8, 49536, Note_on_c, 5, 75, 90
8, 49728, Note_on_c, 5, 75, 0
8, 49728, Note_on_c, 5, 70, 0
8, 49728, Note_on_c, 5, 68, 90
8, 49920, Note_on_c, 5, 68, 0
8, 49920, Note_on_c, 5, 66, 0
8, 49920, Note_on_c, 5, 65, 90
8, 49920, Note_on_c, 5, 61, 90
8, 50304, Note_on_c, 5, 61, 0
8, 50304, Note_on_c, 5, 65, 0
8, 50304, Note_on_c, 5, 66, 83
8, 50304, Note_on_c, 5, 58, 83
8, 50688, Note_on_c, 5, 58, 0
8, 50688, Note_on_c, 5, 66, 0
8, 50688, Note_on_c, 5, 66, 75
8, 50688, Note_on_c, 5, 63, 75
8, 51072, Note_on_c, 5, 63, 0
8, 51072, Note_on_c, 5, 66, 0
8, 51072, Note_on_c, 5, 65, 66
8, 51072, Note_on_c, 5, 60, 66
8, 51264, Note_on_c, 5, 65, 0
8, 51264, Note_on_c, 5, 69, 61
8, 51456, Note_on_c, 5, 69, 0
8, 51456, Note_on_c, 5, 60, 0
8, 51456, Note_on_c, 5, 68, 57
8, 51456, Note_on_c, 5, 61, 57
8, 51840, Note_on_c, 5, 61, 0
8, 51840, Note_on_c, 5, 68, 0
8, 51840, Note_on_c, 5, 70, 47
8, 51840, Note_on_c, 5, 66, 47
8, 52224, Note_on_c, 5, 66, 0
8, 52224, Note_on_c, 5, 70, 0
8, 52224, Note_on_c, 5, 66, 38
8, 52224, Note_on_c, 5, 70, 38
8, 52608, Note_on_c, 5, 75, 29
8, 52800, Note_on_c, 5, 75, 0
8, 52800, Note_on_c, 5, 70, 0
8, 52800, Note_on_c, 5, 68, 24
8, 52992, Note_on_c, 5, 68, 0
8, 52992, Note_on_c, 5, 66, 0
8, 52992, Note_on_c, 5, 65, 19
8, 52992, Note_on_c, 5, 61, 19
8, 53376, Note_on_c, 5, 61, 0
8, 53376, Note_on_c, 5, 65, 0
8, 53376, Note_on_c, 5, 66, 10
8, 53376, Note_on_c, 5, 58, 10
8, 53760, Note_on_c, 5, 58, 0
8, 53760, Note_on_c, 5, 66, 0
8, 53760, Note_on_c, 5, 66, 0
8, 53760, Note_on_c, 5, 66, 0
8, 53760, Note_on_c, 5, 66, 0
8, 53760, Note_on_c, 5, 66, 0
8, 53760, Note_on_c, 5, 63, 0
8, 53760, Note_on_c, 5, 63, 0
8, 53760, Note_on_c, 5, 63, 0
8, 53760, Note_on_c, 5, 63, 0
8, 54144, Note_on_c, 5, 66, 0
8, 54144, Note_on_c, 5, 66, 0
8, 54144, Note_on_c, 5, 66, 0
8, 54144, Note_on_c, 5, 66, 0
8, 54144, Note_on_c, 5, 63, 0
8, 54144, Note_on_c, 5, 63, 0
8, 54144, Note_on_c, 5, 63, 0
8, 54144, Note_on_c, 5, 63, 0
8, 54144, End_track
9, 0, Start_track
9, 0, MIDI_port, 0
9, 0, Title_t, "od guitar"
9, 0, Control_c, 6, 0, 0
9, 0, Control_c, 6, 32, 0
9, 0, Program_c, 6, 29
9, 0, Control_c, 6, 7, 100
9, 0, Control_c, 6, 10, 104
9, 36, Control_c, 6, 1, 0
9, 72, Control_c, 6, 11, 127
9, 84, Control_c, 6, 64, 0
9, 108, Control_c, 6, 91, 100
9, 120, Control_c, 6, 93, 20
9, 39936, Note_on_c, 6, 52, 91
9, 39937, Note_on_c, 6, 52, 0
9, 39984, Note_on_c, 6, 52, 91
9, 39985, Note_on_c, 6, 52, 0
9, 40032, Note_on_c, 6, 52, 91
9, 40033, Note_on_c, 6, 52, 0
9, 40080, Note_on_c, 6, 52, 91
9, 40081, Note_on_c, 6, 52, 0
9, 40128, Note_on_c, 6, 52, 91
9, 40129, Note_on_c, 6, 52, 0
9, 40176, Note_on_c, 6, 52, 91
9, 40177, Note_on_c, 6, 52, 0
9, 40224, Note_on_c, 6, 52, 91
9, 40225, Note_on_c, 6, 52, 0
9, 40272, Note_on_c, 6, 52, 91
9, 40273, Note_on_c, 6, 52, 0
9, 40320, Note_on_c, 6, 52, 91
9, 40321, Note_on_c, 6, 52, 0
9, 40368, Note_on_c, 6, 52, 91
9, 40369, Note_on_c, 6, 52, 0
9, 40416, Note_on_c, 6, 52, 91
9, 40417, Note_on_c, 6, 52, 0
9, 40464, Note_on_c, 6, 52, 91
9, 40465, Note_on_c, 6, 52, 0
9, 40512, Note_on_c, 6, 52, 91
9, 40513, Note_on_c, 6, 52, 0
9, 40662, Note_on_c, 6, 65, 94
9, 40687, Note_on_c, 6, 65, 0
9, 40708, Note_on_c, 6, 65, 89
9, 40729, Pitch_bend_c, 6, 7680
9, 40731, Pitch_bend_c, 6, 6400
9, 40733, Pitch_bend_c, 6, 5632
9, 40736, Pitch_bend_c, 6, 5120
9, 40738, Pitch_bend_c, 6, 4864
9, 40744, Pitch_bend_c, 6, 4992
9, 40746, Pitch_bend_c, 6, 5504
9, 40749, Pitch_bend_c, 6, 6144
9, 40751, Pitch_bend_c, 6, 7168
9, 40753, Pitch_bend_c, 6, 8192
9, 40857, Note_on_c, 6, 65, 0
9, 40888, Note_on_c, 6, 65, 89
9, 40936, Note_on_c, 6, 66, 87
9, 40944, Note_on_c, 6, 65, 0
9, 40971, Note_on_c, 6, 66, 0
9, 40986, Note_on_c, 6, 68, 101
9, 40988, Pitch_bend_c, 6, 7936
9, 40990, Pitch_bend_c, 6, 4864
9, 40993, Pitch_bend_c, 6, 1792
9, 40995, Pitch_bend_c, 6, 640
9, 40997, Pitch_bend_c, 6, 128
9, 41001, Pitch_bend_c, 6, 640
9, 41004, Pitch_bend_c, 6, 1664
9, 41006, Pitch_bend_c, 6, 3712
9, 41008, Pitch_bend_c, 6, 6144
9, 41010, Pitch_bend_c, 6, 8192
9, 41012, Note_on_c, 6, 68, 0
9, 41032, Note_on_c, 6, 68, 89
9, 41084, Control_c, 6, 1, 12
9, 41086, Control_c, 6, 1, 20
9, 41090, Control_c, 6, 1, 33
9, 41092, Control_c, 6, 1, 41
9, 41094, Control_c, 6, 1, 49
9, 41096, Control_c, 6, 1, 53
9, 41099, Control_c, 6, 1, 61
9, 41101, Control_c, 6, 1, 70
9, 41103, Control_c, 6, 1, 78
9, 41105, Control_c, 6, 1, 82
9, 41107, Control_c, 6, 1, 86
9, 41110, Control_c, 6, 1, 94
9, 41114, Control_c, 6, 1, 103
9, 41118, Control_c, 6, 1, 107
9, 41124, Control_c, 6, 1, 111
9, 41130, Control_c, 6, 1, 119
9, 41134, Control_c, 6, 1, 123
9, 41139, Control_c, 6, 1, 127
9, 41227, Control_c, 6, 1, 123
9, 41257, Control_c, 6, 1, 119
9, 41263, Control_c, 6, 1, 111
9, 41267, Control_c, 6, 1, 107
9, 41269, Control_c, 6, 1, 99
9, 41271, Control_c, 6, 1, 94
9, 41273, Control_c, 6, 1, 86
9, 41276, Control_c, 6, 1, 78
9, 41278, Control_c, 6, 1, 66
9, 41279, Note_on_c, 6, 68, 0
9, 41281, Control_c, 6, 1, 45
9, 41284, Control_c, 6, 1, 24
9, 41286, Control_c, 6, 1, 4
9, 41288, Control_c, 6, 1, 0
9, 41322, Note_on_c, 6, 68, 83
9, 41365, Note_on_c, 6, 73, 85
9, 41372, Note_on_c, 6, 68, 0
9, 41413, Note_on_c, 6, 73, 0
9, 41413, Note_on_c, 6, 68, 89
9, 41440, Note_on_c, 6, 68, 0
9, 41460, Pitch_bend_c, 6, 5248
9, 41462, Pitch_bend_c, 6, 128
9, 41464, Pitch_bend_c, 6, 0
9, 41471, Pitch_bend_c, 6, 1536
9, 41472, Note_on_c, 6, 77, 115
9, 41474, Pitch_bend_c, 6, 9622
9, 41476, Pitch_bend_c, 6, 11702
9, 41479, Pitch_bend_c, 6, 8972
9, 41481, Pitch_bend_c, 6, 7808
9, 41485, Pitch_bend_c, 6, 8192
9, 41549, Control_c, 6, 1, 8
9, 41552, Control_c, 6, 1, 24
9, 41554, Control_c, 6, 1, 37
9, 41556, Control_c, 6, 1, 53
9, 41558, Control_c, 6, 1, 66
9, 41560, Control_c, 6, 1, 78
9, 41562, Control_c, 6, 1, 90
9, 41565, Control_c, 6, 1, 99
9, 41567, Control_c, 6, 1, 107
9, 41569, Control_c, 6, 1, 111
9, 41572, Control_c, 6, 1, 115
9, 41578, Control_c, 6, 1, 119
9, 41597, Control_c, 6, 1, 115
9, 41605, Control_c, 6, 1, 111
9, 41612, Control_c, 6, 1, 107
9, 41618, Control_c, 6, 1, 103
9, 41624, Control_c, 6, 1, 94
9, 41630, Control_c, 6, 1, 90
9, 41634, Control_c, 6, 1, 82
9, 41636, Control_c, 6, 1, 78
9, 41638, Control_c, 6, 1, 70
9, 41641, Control_c, 6, 1, 57
9, 41643, Control_c, 6, 1, 49
9, 41645, Control_c, 6, 1, 33
9, 41647, Control_c, 6, 1, 20
9, 41649, Control_c, 6, 1, 12
9, 41652, Control_c, 6, 1, 0
9, 41654, Note_on_c, 6, 75, 87
9, 41657, Note_on_c, 6, 77, 0
9, 41703, Note_on_c, 6, 73, 83
9, 41709, Note_on_c, 6, 75, 0
9, 41750, Note_on_c, 6, 73, 0
9, 41753, Note_on_c, 6, 75, 61
9, 41761, Note_on_c, 6, 77, 80
9, 41768, Note_on_c, 6, 75, 0
9, 41778, Note_on_c, 6, 75, 75
9, 41785, Note_on_c, 6, 77, 0
9, 41833, Control_c, 6, 1, 8
9, 41835, Control_c, 6, 1, 12
9, 41837, Control_c, 6, 1, 16
9, 41840, Control_c, 6, 1, 24
9, 41842, Control_c, 6, 1, 28
9, 41844, Control_c, 6, 1, 33
9, 41846, Control_c, 6, 1, 41
9, 41848, Control_c, 6, 1, 45
9, 41851, Control_c, 6, 1, 49
9, 41853, Control_c, 6, 1, 57
9, 41855, Control_c, 6, 1, 61
9, 41858, Control_c, 6, 1, 70
9, 41860, Control_c, 6, 1, 78
9, 41862, Control_c, 6, 1, 86
9, 41865, Control_c, 6, 1, 90
9, 41867, Control_c, 6, 1, 94
9, 41869, Control_c, 6, 1, 99
9, 41873, Control_c, 6, 1, 107
9, 41877, Control_c, 6, 1, 111
9, 41903, Control_c, 6, 1, 107
9, 41907, Control_c, 6, 1, 103
9, 41910, Control_c, 6, 1, 94
9, 41912, Control_c, 6, 1, 90
9, 41914, Control_c, 6, 1, 86
9, 41916, Control_c, 6, 1, 78
9, 41918, Control_c, 6, 1, 70
9, 41921, Control_c, 6, 1, 61
9, 41923, Control_c, 6, 1, 49
9, 41925, Control_c, 6, 1, 41
9, 41927, Control_c, 6, 1, 28
9, 41929, Control_c, 6, 1, 20
9, 41932, Control_c, 6, 1, 8
9, 41934, Control_c, 6, 1, 0
9, 41946, Note_on_c, 6, 73, 83
9, 41948, Note_on_c, 6, 75, 0
9, 41978, Note_on_c, 6, 72, 72
9, 41987, Note_on_c, 6, 73, 0
9, 42012, Control_c, 6, 1, 8
9, 42014, Control_c, 6, 1, 20
9, 42016, Control_c, 6, 1, 33
9, 42018, Control_c, 6, 1, 49
9, 42020, Note_on_c, 6, 70, 74
9, 42021, Control_c, 6, 1, 61
9, 42023, Control_c, 6, 1, 70
9, 42025, Control_c, 6, 1, 82
9, 42027, Note_on_c, 6, 72, 0
9, 42028, Control_c, 6, 1, 90
9, 42030, Control_c, 6, 1, 94
9, 42032, Control_c, 6, 1, 99
9, 42034, Control_c, 6, 1, 103
9, 42039, Control_c, 6, 1, 111
9, 42045, Control_c, 6, 1, 115
9, 42063, Control_c, 6, 1, 111
9, 42089, Control_c, 6, 1, 103
9, 42093, Control_c, 6, 1, 99
9, 42098, Control_c, 6, 1, 94
9, 42100, Control_c, 6, 1, 90
9, 42104, Control_c, 6, 1, 82
9, 42106, Control_c, 6, 1, 74
9, 42108, Control_c, 6, 1, 70
9, 42110, Control_c, 6, 1, 57
9, 42113, Control_c, 6, 1, 49
9, 42115, Control_c, 6, 1, 37
9, 42117, Control_c, 6, 1, 20
9, 42119, Control_c, 6, 1, 4
9, 42121, Control_c, 6, 1, 0
9, 42190, Pitch_bend_c, 6, 7680
9, 42192, Pitch_bend_c, 6, 6016
9, 42193, Note_on_c, 6, 70, 0
9, 42195, Pitch_bend_c, 6, 4096
9, 42197, Pitch_bend_c, 6, 2816
9, 42199, Note_on_c, 6, 78, 75
9, 42200, Pitch_bend_c, 6, 2176
9, 42202, Pitch_bend_c, 6, 2048
9, 42208, Pitch_bend_c, 6, 2432
9, 42210, Pitch_bend_c, 6, 3328
9, 42212, Pitch_bend_c, 6, 4736
9, 42215, Pitch_bend_c, 6, 6784
9, 42217, Pitch_bend_c, 6, 8192
9, 42354, Control_c, 6, 1, 8
9, 42356, Control_c, 6, 1, 16
9, 42358, Control_c, 6, 1, 20
9, 42361, Control_c, 6, 1, 28
9, 42363, Control_c, 6, 1, 33
9, 42365, Control_c, 6, 1, 37
9, 42367, Control_c, 6, 1, 45
9, 42369, Control_c, 6, 1, 53
9, 42372, Control_c, 6, 1, 61
9, 42374, Control_c, 6, 1, 66
9, 42376, Control_c, 6, 1, 74
9, 42378, Control_c, 6, 1, 78
9, 42380, Control_c, 6, 1, 82
9, 42384, Control_c, 6, 1, 86
9, 42389, Control_c, 6, 1, 94
9, 42397, Control_c, 6, 1, 99
9, 42432, Control_c, 6, 1, 103
9, 42443, Control_c, 6, 1, 107
9, 42474, Control_c, 6, 1, 103
9, 42478, Control_c, 6, 1, 94
9, 42482, Control_c, 6, 1, 90
9, 42484, Control_c, 6, 1, 86
9, 42487, Control_c, 6, 1, 82
9, 42489, Control_c, 6, 1, 74
9, 42491, Control_c, 6, 1, 70
9, 42493, Control_c, 6, 1, 61
9, 42496, Control_c, 6, 1, 53
9, 42498, Control_c, 6, 1, 45
9, 42500, Control_c, 6, 1, 33
9, 42502, Control_c, 6, 1, 24
9, 42505, Control_c, 6, 1, 12
9, 42507, Control_c, 6, 1, 0
9, 42516, Note_on_c, 6, 75, 75
9, 42518, Note_on_c, 6, 78, 0
9, 42543, Note_on_c, 6, 73, 74
9, 42549, Note_on_c, 6, 75, 0
9, 42579, Control_c, 6, 1, 12
9, 42581, Control_c, 6, 1, 20
9, 42583, Control_c, 6, 1, 28
9, 42586, Control_c, 6, 1, 37
9, 42588, Control_c, 6, 1, 45
9, 42590, Control_c, 6, 1, 53
9, 42592, Control_c, 6, 1, 61
9, 42594, Control_c, 6, 1, 66
9, 42597, Control_c, 6, 1, 74
9, 42599, Control_c, 6, 1, 78
9, 42601, Control_c, 6, 1, 82
9, 42605, Control_c, 6, 1, 86
9, 42609, Control_c, 6, 1, 90
9, 42629, Control_c, 6, 1, 94
9, 42641, Control_c, 6, 1, 90
9, 42645, Control_c, 6, 1, 86
9, 42650, Control_c, 6, 1, 78
9, 42652, Control_c, 6, 1, 74
9, 42654, Control_c, 6, 1, 66
9, 42656, Control_c, 6, 1, 57
9, 42658, Control_c, 6, 1, 45
9, 42660, Control_c, 6, 1, 37
9, 42663, Control_c, 6, 1, 24
9, 42665, Control_c, 6, 1, 12
9, 42667, Control_c, 6, 1, 0
9, 42775, Control_c, 6, 1, 4
9, 42777, Control_c, 6, 1, 16
9, 42780, Control_c, 6, 1, 24
9, 42782, Control_c, 6, 1, 37
9, 42784, Control_c, 6, 1, 49
9, 42786, Control_c, 6, 1, 61
9, 42788, Control_c, 6, 1, 70
9, 42791, Control_c, 6, 1, 74
9, 42793, Control_c, 6, 1, 82
9, 42795, Control_c, 6, 1, 86
9, 42797, Control_c, 6, 1, 90
9, 42801, Control_c, 6, 1, 99
9, 42805, Control_c, 6, 1, 103
9, 42811, Control_c, 6, 1, 107
9, 42836, Control_c, 6, 1, 103
9, 42838, Control_c, 6, 1, 99
9, 42840, Control_c, 6, 1, 94
9, 42842, Control_c, 6, 1, 86
9, 42845, Control_c, 6, 1, 82
9, 42847, Control_c, 6, 1, 74
9, 42849, Control_c, 6, 1, 61
9, 42851, Control_c, 6, 1, 53
9, 42854, Control_c, 6, 1, 45
9, 42856, Control_c, 6, 1, 37
9, 42858, Control_c, 6, 1, 28
9, 42860, Control_c, 6, 1, 16
9, 42862, Control_c, 6, 1, 12
9, 42865, Control_c, 6, 1, 4
9, 42867, Control_c, 6, 1, 0
9, 42907, Note_on_c, 6, 73, 0
9, 42910, Note_on_c, 6, 63, 72
9, 42961, Note_on_c, 6, 63, 0
9, 42961, Note_on_c, 6, 61, 78
9, 42988, Note_on_c, 6, 61, 0
9, 43009, Note_on_c, 6, 63, 101
9, 43037, Control_c, 6, 1, 8
9, 43039, Control_c, 6, 1, 16
9, 43042, Control_c, 6, 1, 24
9, 43044, Control_c, 6, 1, 28
9, 43046, Control_c, 6, 1, 37
9, 43048, Control_c, 6, 1, 45
9, 43051, Control_c, 6, 1, 49
9, 43053, Control_c, 6, 1, 57
9, 43055, Control_c, 6, 1, 66
9, 43057, Control_c, 6, 1, 70
9, 43059, Control_c, 6, 1, 74
9, 43062, Control_c, 6, 1, 82
9, 43064, Control_c, 6, 1, 86
9, 43066, Control_c, 6, 1, 90
9, 43070, Control_c, 6, 1, 94
9, 43074, Control_c, 6, 1, 99
9, 43081, Control_c, 6, 1, 103
9, 43157, Control_c, 6, 1, 99
9, 43165, Control_c, 6, 1, 94
9, 43179, Control_c, 6, 1, 90
9, 43185, Control_c, 6, 1, 86
9, 43189, Control_c, 6, 1, 82
9, 43193, Control_c, 6, 1, 78
9, 43198, Control_c, 6, 1, 70
9, 43202, Control_c, 6, 1, 61
9, 43206, Control_c, 6, 1, 57
9, 43211, Control_c, 6, 1, 49
9, 43215, Control_c, 6, 1, 45
9, 43221, Control_c, 6, 1, 41
9, 43227, Control_c, 6, 1, 37
9, 43233, Control_c, 6, 1, 33
9, 43237, Control_c, 6, 1, 28
9, 43241, Control_c, 6, 1, 24
9, 43246, Control_c, 6, 1, 16
9, 43250, Control_c, 6, 1, 12
9, 43254, Control_c, 6, 1, 4
9, 43258, Control_c, 6, 1, 0
9, 43388, Note_on_c, 6, 63, 0
9, 43391, Note_on_c, 6, 56, 78
9, 43437, Note_on_c, 6, 58, 78
9, 43445, Note_on_c, 6, 56, 0
9, 43482, Note_on_c, 6, 60, 85
9, 43487, Note_on_c, 6, 58, 0
9, 43529, Note_on_c, 6, 60, 0
9, 43529, Note_on_c, 6, 61, 85
9, 43577, Note_on_c, 6, 61, 0
9, 43578, Note_on_c, 6, 63, 84
9, 43614, Note_on_c, 6, 63, 0
9, 43631, Note_on_c, 6, 66, 81
9, 43641, Note_on_c, 6, 65, 80
9, 43648, Note_on_c, 6, 66, 0
9, 43684, Note_on_c, 6, 66, 84
9, 43689, Note_on_c, 6, 65, 0
9, 43728, Note_on_c, 6, 68, 85
9, 43732, Note_on_c, 6, 66, 0
9, 43750, Pitch_bend_c, 6, 7424
9, 43753, Pitch_bend_c, 6, 6272
9, 43755, Pitch_bend_c, 6, 4736
9, 43757, Pitch_bend_c, 6, 3200
9, 43759, Pitch_bend_c, 6, 2304
9, 43761, Note_on_c, 6, 68, 0
9, 43762, Pitch_bend_c, 6, 2048
9, 43764, Pitch_bend_c, 6, 2176
9, 43766, Pitch_bend_c, 6, 2944
9, 43768, Pitch_bend_c, 6, 6272
9, 43770, Pitch_bend_c, 6, 8192
9, 43773, Pitch_bend_c, 6, 8972
9, 43775, Pitch_bend_c, 6, 8192
9, 43775, End_track
10, 0, Start_track
10, 0, MIDI_port, 0
10, 0, Title_t, "strings 2"
10, 0, Program_c, 8, 49
10, 0, Control_c, 8, 7, 65
10, 0, Control_c, 8, 10, 84
10, 36, Control_c, 8, 1, 0
10, 72, Control_c, 8, 11, 127
10, 84, Control_c, 8, 64, 0
10, 96, Control_c, 8, 67, 0
10, 108, Control_c, 8, 91, 40
10, 120, Control_c, 8, 93, 0
10, 121, Control_c, 8, 99, 1
10, 122, Control_c, 8, 98, 99
10, 123, Control_c, 8, 6, 51
10, 2496, Note_on_c, 8, 69, 110
10, 2592, Note_on_c, 8, 69, 0
10, 2592, Note_on_c, 8, 71, 110
10, 2640, Note_on_c, 8, 71, 0
10, 2640, Note_on_c, 8, 72, 110
10, 2688, Note_on_c, 8, 72, 0
10, 2688, Note_on_c, 8, 76, 110
10, 2784, Note_on_c, 8, 76, 0
10, 2784, Note_on_c, 8, 74, 110
10, 2880, Note_on_c, 8, 74, 0
10, 2880, Note_on_c, 8, 69, 110
10, 2976, Note_on_c, 8, 69, 0
10, 2976, Note_on_c, 8, 71, 110
10, 3024, Note_on_c, 8, 71, 0
10, 3024, Note_on_c, 8, 79, 110
10, 3648, Note_on_c, 8, 79, 0
10, 3648, Note_on_c, 8, 84, 110
10, 3744, Note_on_c, 8, 84, 0
10, 3744, Note_on_c, 8, 83, 110
10, 3792, Note_on_c, 8, 83, 0
10, 3792, Note_on_c, 8, 91, 110
10, 4296, Control_c, 8, 7, 65
10, 4321, Control_c, 8, 7, 64
10, 4346, Control_c, 8, 7, 63
10, 4371, Control_c, 8, 7, 62
10, 4396, Control_c, 8, 7, 61
10, 4421, Control_c, 8, 7, 60
10, 4446, Control_c, 8, 7, 59
10, 4471, Control_c, 8, 7, 58
10, 4496, Control_c, 8, 7, 57
10, 4521, Control_c, 8, 7, 56
10, 4546, Control_c, 8, 7, 55
10, 4571, Control_c, 8, 7, 54
10, 4596, Control_c, 8, 7, 53
10, 4621, Control_c, 8, 7, 52
10, 4646, Control_c, 8, 7, 51
10, 4671, Control_c, 8, 7, 50
10, 4696, Control_c, 8, 7, 49
10, 4721, Control_c, 8, 7, 48
10, 4746, Control_c, 8, 7, 47
10, 4771, Control_c, 8, 7, 46
10, 4796, Control_c, 8, 7, 45
10, 4821, Control_c, 8, 7, 44
10, 4846, Control_c, 8, 7, 43
10, 4871, Control_c, 8, 7, 42
10, 4896, Control_c, 8, 7, 41
10, 4921, Control_c, 8, 7, 40
10, 4946, Control_c, 8, 7, 39
10, 4971, Control_c, 8, 7, 38
10, 4996, Control_c, 8, 7, 37
10, 5021, Control_c, 8, 7, 36
10, 5046, Control_c, 8, 7, 35
10, 5071, Control_c, 8, 7, 34
10, 5096, Control_c, 8, 7, 33
10, 5122, Control_c, 8, 7, 32
10, 5147, Control_c, 8, 7, 31
10, 5172, Control_c, 8, 7, 30
10, 5197, Control_c, 8, 7, 29
10, 5222, Control_c, 8, 7, 28
10, 5247, Control_c, 8, 7, 27
10, 5272, Control_c, 8, 7, 26
10, 5297, Control_c, 8, 7, 25
10, 5322, Control_c, 8, 7, 24
10, 5347, Control_c, 8, 7, 23
10, 5372, Control_c, 8, 7, 22
10, 5397, Control_c, 8, 7, 21
10, 5422, Control_c, 8, 7, 20
10, 5447, Control_c, 8, 7, 19
10, 5472, Control_c, 8, 7, 18
10, 5497, Control_c, 8, 7, 17
10, 5522, Control_c, 8, 7, 16
10, 5547, Control_c, 8, 7, 15
10, 5572, Control_c, 8, 7, 14
10, 5597, Control_c, 8, 7, 13
10, 5622, Control_c, 8, 7, 12
10, 5647, Control_c, 8, 7, 11
10, 5672, Control_c, 8, 7, 10
10, 5697, Control_c, 8, 7, 9
10, 5722, Control_c, 8, 7, 8
10, 5747, Control_c, 8, 7, 7
10, 5772, Control_c, 8, 7, 6
10, 5797, Control_c, 8, 7, 5
10, 5822, Control_c, 8, 7, 4
10, 5847, Control_c, 8, 7, 3
10, 5872, Control_c, 8, 7, 2
10, 5897, Control_c, 8, 7, 1
10, 5923, Control_c, 8, 7, 0
10, 5952, Note_on_c, 8, 91, 0
10, 6132, Control_c, 8, 7, 70
10, 10752, Note_on_c, 8, 65, 99
10, 10752, Note_on_c, 8, 69, 99
10, 11136, Note_on_c, 8, 69, 0
10, 11136, Note_on_c, 8, 65, 0
10, 11136, Note_on_c, 8, 64, 100
10, 11136, Note_on_c, 8, 67, 102
10, 11520, Note_on_c, 8, 67, 0
10, 11520, Note_on_c, 8, 64, 0
10, 11520, Note_on_c, 8, 70, 100
10, 11520, Note_on_c, 8, 65, 105
10, 11904, Note_on_c, 8, 65, 0
10, 11904, Note_on_c, 8, 70, 0
10, 11904, Note_on_c, 8, 69, 102
10, 11904, Note_on_c, 8, 64, 100
10, 12288, Note_on_c, 8, 64, 0
10, 12288, Note_on_c, 8, 69, 0
10, 12288, Note_on_c, 8, 65, 95
10, 12288, Note_on_c, 8, 62, 95
10, 12288, Note_on_c, 8, 81, 95
10, 12480, Note_on_c, 8, 81, 0
10, 12480, Note_on_c, 8, 84, 99
10, 12672, Note_on_c, 8, 84, 0
10, 12672, Note_on_c, 8, 62, 0
10, 12672, Note_on_c, 8, 65, 0
10, 12672, Note_on_c, 8, 64, 102
10, 12672, Note_on_c, 8, 79, 106
10, 12768, Note_on_c, 8, 79, 0
10, 12768, Note_on_c, 8, 83, 102
10, 12816, Note_on_c, 8, 83, 0
10, 12816, Note_on_c, 8, 84, 98
10, 13056, Note_on_c, 8, 84, 0
10, 13056, Note_on_c, 8, 64, 0
10, 13056, Note_on_c, 8, 69, 99
10, 13056, Note_on_c, 8, 65, 93
10, 13056, Note_on_c, 8, 93, 106
10, 13248, Note_on_c, 8, 93, 0
10, 13248, Note_on_c, 8, 91, 99
10, 13344, Note_on_c, 8, 91, 0
10, 13344, Note_on_c, 8, 89, 103
10, 13440, Note_on_c, 8, 89, 0
10, 13440, Note_on_c, 8, 65, 0
10, 13440, Note_on_c, 8, 69, 0
10, 13440, Note_on_c, 8, 71, 103
10, 13440, Note_on_c, 8, 67, 100
10, 13440, Note_on_c, 8, 88, 107
10, 13728, Note_on_c, 8, 88, 0
10, 13728, Note_on_c, 8, 86, 93
10, 13824, Note_on_c, 8, 67, 0
10, 13824, Note_on_c, 8, 71, 0
10, 13824, Note_on_c, 8, 65, 104
10, 13824, Note_on_c, 8, 67, 93
10, 14496, Note_on_c, 8, 86, 0
10, 14592, Note_on_c, 8, 67, 0
10, 14592, Note_on_c, 8, 65, 0
10, 14592, Note_on_c, 8, 84, 100
10, 14592, Note_on_c, 8, 72, 100
10, 14976, Note_on_c, 8, 77, 100
10, 15360, Note_on_c, 8, 77, 0
10, 15360, Note_on_c, 8, 72, 0
10, 15360, Note_on_c, 8, 79, 100
10, 15744, Note_on_c, 8, 79, 0
10, 15744, Note_on_c, 8, 84, 0
10, 15744, Note_on_c, 8, 88, 100
10, 15744, Note_on_c, 8, 76, 100
10, 15936, Note_on_c, 8, 76, 0
10, 15936, Note_on_c, 8, 88, 0
10, 15936, Note_on_c, 8, 92, 100
10, 15936, Note_on_c, 8, 86, 100
10, 16128, Note_on_c, 8, 86, 0
10, 16128, Note_on_c, 8, 92, 0
10, 16128, Note_on_c, 8, 81, 100
10, 16128, Note_on_c, 8, 84, 100
10, 16512, Note_on_c, 8, 81, 0
10, 16512, Note_on_c, 8, 79, 100
10, 16896, Note_on_c, 8, 79, 0
10, 16896, Note_on_c, 8, 81, 100
10, 16896, Note_on_c, 8, 77, 100
10, 17280, Note_on_c, 8, 77, 0
10, 17280, Note_on_c, 8, 81, 0
10, 17280, Note_on_c, 8, 84, 0
10, 17280, Note_on_c, 8, 95, 100
10, 17280, Note_on_c, 8, 83, 100
10, 17472, Note_on_c, 8, 95, 0
10, 17472, Note_on_c, 8, 91, 100
10, 17472, Note_on_c, 8, 79, 100
10, 17664, Note_on_c, 8, 79, 0
10, 17664, Note_on_c, 8, 91, 0
10, 17664, Note_on_c, 8, 83, 0
10, 17664, Note_on_c, 8, 84, 100
10, 17664, Note_on_c, 8, 72, 100
10, 18048, Note_on_c, 8, 77, 100
10, 18432, Note_on_c, 8, 77, 0
10, 18432, Note_on_c, 8, 72, 0
10, 18432, Note_on_c, 8, 79, 100
10, 18816, Note_on_c, 8, 79, 0
10, 18816, Note_on_c, 8, 84, 0
10, 18816, Note_on_c, 8, 88, 100
10, 18816, Note_on_c, 8, 76, 100
10, 19008, Note_on_c, 8, 76, 0
10, 19008, Note_on_c, 8, 88, 0
10, 19008, Note_on_c, 8, 92, 100
10, 19008, Note_on_c, 8, 86, 100
10, 19200, Note_on_c, 8, 86, 0
10, 19200, Note_on_c, 8, 92, 0
10, 19200, Note_on_c, 8, 81, 100
10, 19200, Note_on_c, 8, 84, 100
10, 19584, Note_on_c, 8, 81, 0
10, 19584, Note_on_c, 8, 79, 100
10, 19968, Note_on_c, 8, 79, 0
10, 19968, Note_on_c, 8, 81, 100
10, 19968, Note_on_c, 8, 77, 100
10, 20352, Note_on_c, 8, 77, 0
10, 20352, Note_on_c, 8, 81, 0
10, 20352, Note_on_c, 8, 84, 0
10, 20352, Note_on_c, 8, 83, 100
10, 20448, Note_on_c, 8, 86, 100
10, 20544, Note_on_c, 8, 86, 0
10, 20544, Note_on_c, 8, 83, 0
10, 20544, Note_on_c, 8, 79, 100
10, 20544, Note_on_c, 8, 84, 100
10, 20640, Note_on_c, 8, 84, 0
10, 20640, Note_on_c, 8, 83, 100
10, 20736, Note_on_c, 8, 83, 0
10, 20736, Note_on_c, 8, 79, 0
10, 20736, Note_on_c, 8, 84, 100
10, 20736, Note_on_c, 8, 91, 100
10, 22080, Control_c, 8, 7, 65
10, 22083, Control_c, 8, 7, 64
10, 22087, Control_c, 8, 7, 63
10, 22090, Control_c, 8, 7, 62
10, 22094, Control_c, 8, 7, 61
10, 22097, Control_c, 8, 7, 60
10, 22101, Control_c, 8, 7, 59
10, 22105, Control_c, 8, 7, 58
10, 22108, Control_c, 8, 7, 57
10, 22112, Control_c, 8, 7, 56
10, 22115, Control_c, 8, 7, 55
10, 22119, Control_c, 8, 7, 54
10, 22123, Control_c, 8, 7, 53
10, 22126, Control_c, 8, 7, 52
10, 22130, Control_c, 8, 7, 51
10, 22133, Control_c, 8, 7, 50
10, 22137, Control_c, 8, 7, 49
10, 22140, Control_c, 8, 7, 48
10, 22144, Control_c, 8, 7, 47
10, 22148, Control_c, 8, 7, 46
10, 22151, Control_c, 8, 7, 45
10, 22155, Control_c, 8, 7, 44
10, 22158, Control_c, 8, 7, 43
10, 22162, Control_c, 8, 7, 42
10, 22166, Control_c, 8, 7, 41
10, 22169, Control_c, 8, 7, 40
10, 22173, Control_c, 8, 7, 39
10, 22176, Control_c, 8, 7, 38
10, 22180, Control_c, 8, 7, 37
10, 22183, Control_c, 8, 7, 36
10, 22187, Control_c, 8, 7, 35
10, 22191, Control_c, 8, 7, 34
10, 22194, Control_c, 8, 7, 33
10, 22198, Control_c, 8, 7, 32
10, 22201, Control_c, 8, 7, 31
10, 22205, Control_c, 8, 7, 30
10, 22209, Control_c, 8, 7, 29
10, 22212, Control_c, 8, 7, 28
10, 22216, Control_c, 8, 7, 27
10, 22219, Control_c, 8, 7, 26
10, 22223, Control_c, 8, 7, 25
10, 22226, Control_c, 8, 7, 24
10, 22230, Control_c, 8, 7, 23
10, 22234, Control_c, 8, 7, 22
10, 22237, Control_c, 8, 7, 21
10, 22241, Control_c, 8, 7, 20
10, 22244, Control_c, 8, 7, 19
10, 22248, Control_c, 8, 7, 18
10, 22252, Control_c, 8, 7, 17
10, 22255, Control_c, 8, 7, 16
10, 22259, Control_c, 8, 7, 15
10, 22262, Control_c, 8, 7, 14
10, 22266, Control_c, 8, 7, 13
10, 22269, Control_c, 8, 7, 12
10, 22273, Control_c, 8, 7, 11
10, 22277, Control_c, 8, 7, 10
10, 22280, Control_c, 8, 7, 9
10, 22284, Control_c, 8, 7, 8
10, 22287, Control_c, 8, 7, 7
10, 22291, Control_c, 8, 7, 6
10, 22295, Control_c, 8, 7, 5
10, 22298, Control_c, 8, 7, 4
10, 22302, Control_c, 8, 7, 3
10, 22305, Control_c, 8, 7, 2
10, 22309, Control_c, 8, 7, 1
10, 22313, Control_c, 8, 7, 0
10, 22512, Note_on_c, 8, 91, 0
10, 22512, Note_on_c, 8, 84, 0
10, 22608, Control_c, 8, 7, 65
10, 27648, Note_on_c, 8, 65, 99
10, 27648, Note_on_c, 8, 69, 99
10, 28032, Note_on_c, 8, 69, 0
10, 28032, Note_on_c, 8, 65, 0
10, 28032, Note_on_c, 8, 64, 100
10, 28032, Note_on_c, 8, 67, 102
10, 28416, Note_on_c, 8, 67, 0
10, 28416, Note_on_c, 8, 64, 0
10, 28416, Note_on_c, 8, 70, 100
10, 28416, Note_on_c, 8, 65, 105
10, 28800, Note_on_c, 8, 65, 0
10, 28800, Note_on_c, 8, 70, 0
10, 28800, Note_on_c, 8, 69, 102
10, 28800, Note_on_c, 8, 64, 100
10, 29184, Note_on_c, 8, 64, 0
10, 29184, Note_on_c, 8, 69, 0
10, 29184, Note_on_c, 8, 65, 95
10, 29184, Note_on_c, 8, 62, 95
10, 29184, Note_on_c, 8, 81, 95
10, 29376, Note_on_c, 8, 81, 0
10, 29376, Note_on_c, 8, 84, 99
10, 29568, Note_on_c, 8, 84, 0
10, 29568, Note_on_c, 8, 62, 0
10, 29568, Note_on_c, 8, 65, 0
10, 29568, Note_on_c, 8, 64, 102
10, 29568, Note_on_c, 8, 79, 106
10, 29664, Note_on_c, 8, 79, 0
10, 29664, Note_on_c, 8, 83, 102
10, 29712, Note_on_c, 8, 83, 0
10, 29712, Note_on_c, 8, 84, 98
10, 29952, Note_on_c, 8, 84, 0
10, 29952, Note_on_c, 8, 64, 0
10, 29952, Note_on_c, 8, 69, 99
10, 29952, Note_on_c, 8, 65, 93
10, 29952, Note_on_c, 8, 93, 106
10, 30144, Note_on_c, 8, 93, 0
10, 30144, Note_on_c, 8, 91, 99
10, 30240, Note_on_c, 8, 91, 0
10, 30240, Note_on_c, 8, 89, 103
10, 30336, Note_on_c, 8, 89, 0
10, 30336, Note_on_c, 8, 65, 0
10, 30336, Note_on_c, 8, 69, 0
10, 30336, Note_on_c, 8, 71, 103
10, 30336, Note_on_c, 8, 67, 100
10, 30336, Note_on_c, 8, 88, 107
10, 30624, Note_on_c, 8, 88, 0
10, 30624, Note_on_c, 8, 86, 93
10, 30720, Note_on_c, 8, 67, 0
10, 30720, Note_on_c, 8, 71, 0
10, 30720, Note_on_c, 8, 65, 104
10, 30720, Note_on_c, 8, 67, 93
10, 31392, Note_on_c, 8, 86, 0
10, 31488, Note_on_c, 8, 67, 0
10, 31488, Note_on_c, 8, 65, 0
10, 31488, Note_on_c, 8, 84, 100
10, 31488, Note_on_c, 8, 72, 100
10, 31872, Note_on_c, 8, 77, 100
10, 32256, Note_on_c, 8, 77, 0
10, 32256, Note_on_c, 8, 72, 0
10, 32256, Note_on_c, 8, 79, 100
10, 32640, Note_on_c, 8, 79, 0
10, 32640, Note_on_c, 8, 84, 0
10, 32640, Note_on_c, 8, 88, 100
10, 32640, Note_on_c, 8, 76, 100
10, 32832, Note_on_c, 8, 76, 0
10, 32832, Note_on_c, 8, 88, 0
10, 32832, Note_on_c, 8, 92, 100
10, 32832, Note_on_c, 8, 86, 100
10, 33024, Note_on_c, 8, 86, 0
10, 33024, Note_on_c, 8, 92, 0
10, 33024, Note_on_c, 8, 81, 100
10, 33024, Note_on_c, 8, 84, 100
10, 33408, Note_on_c, 8, 81, 0
10, 33408, Note_on_c, 8, 79, 100
10, 33792, Note_on_c, 8, 79, 0
10, 33792, Note_on_c, 8, 81, 100
10, 33792, Note_on_c, 8, 77, 100
10, 34176, Note_on_c, 8, 77, 0
10, 34176, Note_on_c, 8, 81, 0
10, 34176, Note_on_c, 8, 84, 0
10, 34176, Note_on_c, 8, 95, 100
10, 34176, Note_on_c, 8, 83, 100
10, 34368, Note_on_c, 8, 95, 0
10, 34368, Note_on_c, 8, 91, 100
10, 34368, Note_on_c, 8, 79, 100
10, 34560, Note_on_c, 8, 79, 0
10, 34560, Note_on_c, 8, 91, 0
10, 34560, Note_on_c, 8, 83, 0
10, 34560, Note_on_c, 8, 84, 100
10, 34560, Note_on_c, 8, 72, 100
10, 34944, Note_on_c, 8, 77, 100
10, 35328, Note_on_c, 8, 77, 0
10, 35328, Note_on_c, 8, 72, 0
10, 35328, Note_on_c, 8, 79, 100
10, 35712, Note_on_c, 8, 79, 0
10, 35712, Note_on_c, 8, 84, 0
10, 35712, Note_on_c, 8, 88, 100
10, 35712, Note_on_c, 8, 76, 100
10, 35904, Note_on_c, 8, 76, 0
10, 35904, Note_on_c, 8, 88, 0
10, 35904, Note_on_c, 8, 92, 100
10, 35904, Note_on_c, 8, 86, 100
10, 36096, Note_on_c, 8, 86, 0
10, 36096, Note_on_c, 8, 92, 0
10, 36096, Note_on_c, 8, 81, 100
10, 36096, Note_on_c, 8, 84, 100
10, 36480, Note_on_c, 8, 81, 0
10, 36480, Note_on_c, 8, 79, 100
10, 36864, Note_on_c, 8, 79, 0
10, 36864, Note_on_c, 8, 81, 100
10, 36864, Note_on_c, 8, 77, 100
10, 37248, Note_on_c, 8, 77, 0
10, 37248, Note_on_c, 8, 81, 0
10, 37248, Note_on_c, 8, 84, 0
10, 37248, Note_on_c, 8, 84, 100
10, 37344, Note_on_c, 8, 81, 100
10, 37440, Note_on_c, 8, 81, 0
10, 37440, Note_on_c, 8, 84, 0
10, 37440, Note_on_c, 8, 86, 100
10, 37440, Note_on_c, 8, 83, 100
10, 37536, Note_on_c, 8, 86, 0
10, 37536, Note_on_c, 8, 79, 100
10, 37632, Note_on_c, 8, 79, 0
10, 37632, Note_on_c, 8, 83, 0
10, 37632, Note_on_c, 8, 85, 100
10, 37632, Note_on_c, 8, 73, 100
10, 38016, Note_on_c, 8, 78, 100
10, 38400, Note_on_c, 8, 78, 0
10, 38400, Note_on_c, 8, 73, 0
10, 38400, Note_on_c, 8, 80, 100
10, 38784, Note_on_c, 8, 80, 0
10, 38784, Note_on_c, 8, 85, 0
10, 38784, Note_on_c, 8, 89, 100
10, 38784, Note_on_c, 8, 77, 100
10, 38976, Note_on_c, 8, 77, 0
10, 38976, Note_on_c, 8, 89, 0
10, 38976, Note_on_c, 8, 93, 100
10, 38976, Note_on_c, 8, 87, 100
10, 39168, Note_on_c, 8, 87, 0
10, 39168, Note_on_c, 8, 93, 0
10, 39168, Note_on_c, 8, 82, 100
10, 39168, Note_on_c, 8, 85, 100
10, 39552, Note_on_c, 8, 82, 0
10, 39552, Note_on_c, 8, 80, 100
10, 39936, Note_on_c, 8, 80, 0
10, 39936, Note_on_c, 8, 82, 100
10, 39936, Note_on_c, 8, 78, 100
10, 40320, Note_on_c, 8, 78, 0
10, 40320, Note_on_c, 8, 82, 0
10, 40320, Note_on_c, 8, 85, 0
10, 40320, Note_on_c, 8, 84, 100
10, 40416, Note_on_c, 8, 87, 100
10, 40512, Note_on_c, 8, 87, 0
10, 40512, Note_on_c, 8, 84, 0
10, 40512, Note_on_c, 8, 80, 100
10, 40512, Note_on_c, 8, 85, 100
10, 40608, Note_on_c, 8, 85, 0
10, 40608, Note_on_c, 8, 84, 100
10, 40704, Note_on_c, 8, 84, 0
10, 40704, Note_on_c, 8, 80, 0
10, 40704, Note_on_c, 8, 85, 100
10, 40704, Note_on_c, 8, 92, 100
10, 41472, Note_on_c, 8, 92, 0
10, 41472, Note_on_c, 8, 85, 0
10, 43776, Note_on_c, 8, 85, 100
10, 43776, Note_on_c, 8, 73, 100
10, 44160, Note_on_c, 8, 78, 100
10, 44544, Note_on_c, 8, 78, 0
10, 44544, Note_on_c, 8, 73, 0
10, 44544, Note_on_c, 8, 80, 100
10, 44928, Note_on_c, 8, 80, 0
10, 44928, Note_on_c, 8, 85, 0
10, 44928, Note_on_c, 8, 89, 100
10, 44928, Note_on_c, 8, 77, 100
10, 45120, Note_on_c, 8, 77, 0
10, 45120, Note_on_c, 8, 89, 0
10, 45120, Note_on_c, 8, 93, 100
10, 45120, Note_on_c, 8, 87, 100
10, 45312, Note_on_c, 8, 87, 0
10, 45312, Note_on_c, 8, 93, 0
10, 45312, Note_on_c, 8, 82, 100
10, 45312, Note_on_c, 8, 85, 100
10, 45696, Note_on_c, 8, 82, 0
10, 45696, Note_on_c, 8, 80, 100
10, 46080, Note_on_c, 8, 80, 0
10, 46080, Note_on_c, 8, 82, 100
10, 46080, Note_on_c, 8, 78, 100
10, 46464, Note_on_c, 8, 78, 0
10, 46464, Note_on_c, 8, 82, 0
10, 46464, Note_on_c, 8, 85, 0
10, 46464, Note_on_c, 8, 84, 100
10, 46560, Note_on_c, 8, 87, 100
10, 46656, Note_on_c, 8, 87, 0
10, 46656, Note_on_c, 8, 84, 0
10, 46656, Note_on_c, 8, 80, 100
10, 46656, Note_on_c, 8, 85, 100
10, 46752, Note_on_c, 8, 85, 0
10, 46752, Note_on_c, 8, 84, 100
10, 46848, Note_on_c, 8, 84, 0
10, 46848, Note_on_c, 8, 80, 0
10, 46848, Note_on_c, 8, 85, 100
10, 46848, Note_on_c, 8, 73, 100
10, 47232, Note_on_c, 8, 78, 100
10, 47616, Note_on_c, 8, 78, 0
10, 47616, Note_on_c, 8, 73, 0
10, 47616, Note_on_c, 8, 80, 100
10, 48000, Note_on_c, 8, 80, 0
10, 48000, Note_on_c, 8, 85, 0
10, 48000, Note_on_c, 8, 89, 100
10, 48000, Note_on_c, 8, 77, 100
10, 48192, Note_on_c, 8, 77, 0
10, 48192, Note_on_c, 8, 89, 0
10, 48192, Note_on_c, 8, 93, 100
10, 48192, Note_on_c, 8, 87, 100
10, 48384, Note_on_c, 8, 87, 0
10, 48384, Note_on_c, 8, 93, 0
10, 48384, Note_on_c, 8, 82, 100
10, 48384, Note_on_c, 8, 85, 100
10, 48768, Note_on_c, 8, 82, 0
10, 48768, Note_on_c, 8, 80, 100
10, 49152, Note_on_c, 8, 80, 0
10, 49152, Note_on_c, 8, 82, 100
10, 49152, Note_on_c, 8, 78, 100
10, 49536, Note_on_c, 8, 78, 0
10, 49536, Note_on_c, 8, 82, 0
10, 49536, Note_on_c, 8, 85, 0
10, 49536, Note_on_c, 8, 84, 100
10, 49632, Note_on_c, 8, 87, 100
10, 49728, Note_on_c, 8, 87, 0
10, 49728, Note_on_c, 8, 84, 0
10, 49728, Note_on_c, 8, 80, 100
10, 49728, Note_on_c, 8, 85, 100
10, 49824, Note_on_c, 8, 85, 0
10, 49824, Note_on_c, 8, 84, 100
10, 49920, Note_on_c, 8, 84, 0
10, 49920, Note_on_c, 8, 80, 0
10, 49920, Note_on_c, 8, 85, 100
10, 49920, Note_on_c, 8, 73, 100
10, 50304, Note_on_c, 8, 78, 93
10, 50688, Note_on_c, 8, 78, 0
10, 50688, Note_on_c, 8, 73, 0
10, 50688, Note_on_c, 8, 80, 85
10, 51072, Note_on_c, 8, 80, 0
10, 51072, Note_on_c, 8, 85, 0
10, 51072, Note_on_c, 8, 89, 76
10, 51072, Note_on_c, 8, 77, 76
10, 51264, Note_on_c, 8, 77, 0
10, 51264, Note_on_c, 8, 89, 0
10, 51264, Note_on_c, 8, 93, 71
10, 51264, Note_on_c, 8, 87, 71
10, 51456, Note_on_c, 8, 87, 0
10, 51456, Note_on_c, 8, 93, 0
10, 51456, Note_on_c, 8, 82, 66
10, 51456, Note_on_c, 8, 85, 66
10, 51840, Note_on_c, 8, 82, 0
10, 51840, Note_on_c, 8, 80, 56
10, 52224, Note_on_c, 8, 80, 0
10, 52224, Note_on_c, 8, 82, 47
10, 52224, Note_on_c, 8, 78, 47
10, 52608, Note_on_c, 8, 78, 0
10, 52608, Note_on_c, 8, 82, 0
10, 52608, Note_on_c, 8, 85, 0
10, 52608, Note_on_c, 8, 84, 37
10, 52704, Note_on_c, 8, 87, 35
10, 52800, Note_on_c, 8, 87, 0
10, 52800, Note_on_c, 8, 84, 0
10, 52800, Note_on_c, 8, 80, 32
10, 52800, Note_on_c, 8, 85, 32
10, 52896, Note_on_c, 8, 85, 0
10, 52896, Note_on_c, 8, 84, 30
10, 52992, Note_on_c, 8, 84, 0
10, 52992, Note_on_c, 8, 80, 0
10, 52992, Note_on_c, 8, 85, 27
10, 52992, Note_on_c, 8, 73, 27
10, 53376, Note_on_c, 8, 78, 18
10, 53760, Note_on_c, 8, 78, 0
10, 53760, Note_on_c, 8, 73, 0
10, 53760, Note_on_c, 8, 80, 8
10, 54144, Note_on_c, 8, 80, 0
10, 54144, Note_on_c, 8, 85, 0
10, 54144, End_track
11, 0, Start_track
11, 0, MIDI_port, 0
11, 0, Title_t, "brightness"
11, 0, Control_c, 10, 0, 0
11, 0, Control_c, 10, 32, 0
11, 0, Program_c, 10, 100
11, 0, Control_c, 10, 7, 60
11, 0, Control_c, 10, 10, 64
11, 36, Control_c, 10, 1, 0
11, 72, Control_c, 10, 11, 127
11, 84, Control_c, 10, 64, 0
11, 96, Control_c, 10, 67, 0
11, 108, Control_c, 10, 91, 40
11, 120, Control_c, 10, 93, 0
11, 17664, Note_on_c, 10, 88, 100
11, 18048, Note_on_c, 10, 88, 0
11, 18048, Note_on_c, 10, 89, 100
11, 18432, Note_on_c, 10, 89, 0
11, 18432, Note_on_c, 10, 86, 100
11, 18816, Note_on_c, 10, 86, 0
11, 18816, Note_on_c, 10, 88, 100
11, 19008, Note_on_c, 10, 88, 0
11, 19008, Note_on_c, 10, 86, 100
11, 19200, Note_on_c, 10, 86, 0
11, 19200, Note_on_c, 10, 84, 100
11, 19584, Note_on_c, 10, 84, 0
11, 19584, Note_on_c, 10, 93, 100
11, 19968, Note_on_c, 10, 93, 0
11, 19968, Note_on_c, 10, 93, 100
11, 20448, Note_on_c, 10, 93, 0
11, 20448, Note_on_c, 10, 86, 100
11, 20544, Note_on_c, 10, 86, 0
11, 20544, Note_on_c, 10, 84, 100
11, 20640, Note_on_c, 10, 84, 0
11, 20640, Note_on_c, 10, 83, 100
11, 20724, Program_c, 10, 49
11, 20736, Note_on_c, 10, 83, 0
11, 20736, Note_on_c, 10, 91, 100
11, 20736, Note_on_c, 10, 84, 100
11, 21408, Note_on_c, 10, 84, 0
11, 21408, Note_on_c, 10, 91, 0
11, 34512, Program_c, 10, 50
11, 34560, Note_on_c, 10, 88, 100
11, 34944, Note_on_c, 10, 88, 0
11, 34944, Note_on_c, 10, 89, 100
11, 35328, Note_on_c, 10, 89, 0
11, 35328, Note_on_c, 10, 86, 100
11, 35712, Note_on_c, 10, 86, 0
11, 35712, Note_on_c, 10, 88, 100
11, 35904, Note_on_c, 10, 88, 0
11, 35904, Note_on_c, 10, 86, 100
11, 36096, Note_on_c, 10, 86, 0
11, 36096, Note_on_c, 10, 84, 100
11, 36480, Note_on_c, 10, 84, 0
11, 36480, Note_on_c, 10, 93, 100
11, 36864, Note_on_c, 10, 93, 0
11, 36864, Note_on_c, 10, 93, 100
11, 37344, Note_on_c, 10, 93, 0
11, 37344, Note_on_c, 10, 87, 100
11, 37440, Note_on_c, 10, 87, 0
11, 37440, Note_on_c, 10, 85, 100
11, 37536, Note_on_c, 10, 85, 0
11, 37536, Note_on_c, 10, 84, 100
11, 37632, Note_on_c, 10, 84, 0
11, 37632, Note_on_c, 10, 89, 100
11, 38016, Note_on_c, 10, 89, 0
11, 38016, Note_on_c, 10, 90, 100
11, 38400, Note_on_c, 10, 90, 0
11, 38400, Note_on_c, 10, 87, 100
11, 38784, Note_on_c, 10, 87, 0
11, 38784, Note_on_c, 10, 89, 100
11, 38976, Note_on_c, 10, 89, 0
11, 38976, Note_on_c, 10, 87, 100
11, 39168, Note_on_c, 10, 87, 0
11, 39168, Note_on_c, 10, 85, 100
11, 39552, Note_on_c, 10, 85, 0
11, 39552, Note_on_c, 10, 94, 100
11, 39936, Note_on_c, 10, 94, 0
11, 39936, Note_on_c, 10, 94, 100
11, 40416, Note_on_c, 10, 94, 0
11, 40416, Note_on_c, 10, 92, 100
11, 40704, Note_on_c, 10, 92, 0
11, 43776, Note_on_c, 10, 89, 100
11, 44160, Note_on_c, 10, 89, 0
11, 44160, Note_on_c, 10, 90, 100
11, 44544, Note_on_c, 10, 90, 0
11, 44544, Note_on_c, 10, 87, 100
11, 44928, Note_on_c, 10, 87, 0
11, 44928, Note_on_c, 10, 89, 100
11, 45120, Note_on_c, 10, 89, 0
11, 45120, Note_on_c, 10, 87, 100
11, 45312, Note_on_c, 10, 87, 0
11, 45312, Note_on_c, 10, 85, 100
11, 45696, Note_on_c, 10, 85, 0
11, 45696, Note_on_c, 10, 94, 100
11, 46080, Note_on_c, 10, 94, 0
11, 46080, Note_on_c, 10, 94, 100
11, 46560, Note_on_c, 10, 94, 0
11, 46560, Note_on_c, 10, 92, 100
11, 46848, Note_on_c, 10, 92, 0
11, 46848, Note_on_c, 10, 89, 100
11, 47232, Note_on_c, 10, 89, 0
11, 47232, Note_on_c, 10, 90, 100
11, 47616, Note_on_c, 10, 90, 0
11, 47616, Note_on_c, 10, 87, 100
11, 48000, Note_on_c, 10, 87, 0
11, 48000, Note_on_c, 10, 89, 100
11, 48192, Note_on_c, 10, 89, 0
11, 48192, Note_on_c, 10, 87, 100
11, 48384, Note_on_c, 10, 87, 0
11, 48384, Note_on_c, 10, 85, 100
11, 48768, Note_on_c, 10, 85, 0
11, 48768, Note_on_c, 10, 94, 100
11, 49152, Note_on_c, 10, 94, 0
11, 49152, Note_on_c, 10, 94, 100
11, 49632, Note_on_c, 10, 94, 0
11, 49632, Note_on_c, 10, 92, 100
11, 49920, Note_on_c, 10, 92, 0
11, 49920, Note_on_c, 10, 89, 100
11, 50304, Note_on_c, 10, 89, 0
11, 50304, Note_on_c, 10, 90, 93
11, 50688, Note_on_c, 10, 90, 0
11, 50688, Note_on_c, 10, 87, 85
11, 51072, Note_on_c, 10, 87, 0
11, 51072, Note_on_c, 10, 89, 77
11, 51264, Note_on_c, 10, 89, 0
11, 51264, Note_on_c, 10, 87, 73
11, 51456, Note_on_c, 10, 87, 0
11, 51456, Note_on_c, 10, 85, 69
11, 51840, Note_on_c, 10, 85, 0
11, 51840, Control_c, 10, 7, 65
11, 51840, Note_on_c, 10, 94, 61
11, 52224, Note_on_c, 10, 94, 0
11, 52224, Note_on_c, 10, 94, 53
11, 52704, Note_on_c, 10, 94, 0
11, 52704, Note_on_c, 10, 92, 33
11, 52992, Note_on_c, 10, 92, 0
11, 52992, Note_on_c, 10, 89, 12
11, 53376, Note_on_c, 10, 89, 0
11, 53376, Note_on_c, 10, 90, 2
11, 53760, Note_on_c, 10, 90, 0
11, 53760, Note_on_c, 10, 87, 0
11, 53760, Note_on_c, 10, 87, 0
11, 53760, Note_on_c, 10, 87, 0
11, 53760, Note_on_c, 10, 87, 0
11, 54144, Note_on_c, 10, 87, 0
11, 54144, Note_on_c, 10, 87, 0
11, 54144, Note_on_c, 10, 87, 0
11, 54144, Note_on_c, 10, 87, 0
11, 54144, End_track
12, 0, Start_track
12, 0, MIDI_port, 0
12, 0, Title_t, "soprano sax"
12, 0, Program_c, 11, 73
12, 0, Control_c, 11, 7, 88
12, 0, Control_c, 11, 10, 74
12, 95, Control_c, 11, 91, 100
12, 4511, Note_on_c, 11, 64, 100
12, 4556, Note_on_c, 11, 65, 100
12, 4564, Note_on_c, 11, 64, 0
12, 4607, Note_on_c, 11, 67, 100
12, 4613, Note_on_c, 11, 65, 0
12, 4628, Control_c, 11, 1, 2
12, 4629, Control_c, 11, 1, 5
12, 4630, Control_c, 11, 1, 8
12, 4632, Control_c, 11, 1, 10
12, 4633, Control_c, 11, 1, 13
12, 4634, Control_c, 11, 1, 16
12, 4635, Control_c, 11, 1, 19
12, 4637, Control_c, 11, 1, 20
12, 4638, Control_c, 11, 1, 22
12, 4639, Control_c, 11, 1, 24
12, 4640, Control_c, 11, 1, 26
12, 4641, Control_c, 11, 1, 28
12, 4643, Control_c, 11, 1, 31
12, 4647, Control_c, 11, 1, 33
12, 4650, Control_c, 11, 1, 34
12, 4653, Control_c, 11, 1, 36
12, 4659, Control_c, 11, 1, 38
12, 4684, Control_c, 11, 1, 36
12, 4688, Control_c, 11, 1, 34
12, 4691, Control_c, 11, 1, 32
12, 4692, Control_c, 11, 1, 29
12, 4694, Control_c, 11, 1, 27
12, 4695, Control_c, 11, 1, 26
12, 4696, Control_c, 11, 1, 24
12, 4697, Control_c, 11, 1, 22
12, 4698, Control_c, 11, 1, 20
12, 4700, Control_c, 11, 1, 18
12, 4700, Note_on_c, 11, 64, 100
12, 4701, Note_on_c, 11, 67, 0
12, 4701, Control_c, 11, 1, 15
12, 4703, Control_c, 11, 1, 12
12, 4704, Control_c, 11, 1, 10
12, 4705, Control_c, 11, 1, 7
12, 4706, Control_c, 11, 1, 4
12, 4708, Control_c, 11, 1, 1
12, 4709, Control_c, 11, 1, 0
12, 4750, Note_on_c, 11, 64, 0
12, 4751, Note_on_c, 11, 67, 100
12, 4800, Control_c, 11, 1, 3
12, 4801, Control_c, 11, 1, 5
12, 4802, Control_c, 11, 1, 7
12, 4804, Control_c, 11, 1, 9
12, 4804, Control_c, 11, 1, 11
12, 4806, Control_c, 11, 1, 13
12, 4808, Control_c, 11, 1, 15
12, 4810, Control_c, 11, 1, 17
12, 4813, Control_c, 11, 1, 19
12, 4816, Control_c, 11, 1, 20
12, 4822, Control_c, 11, 1, 22
12, 4830, Control_c, 11, 1, 24
12, 4849, Control_c, 11, 1, 26
12, 4874, Control_c, 11, 1, 24
12, 4877, Control_c, 11, 1, 22
12, 4880, Control_c, 11, 1, 20
12, 4882, Control_c, 11, 1, 17
12, 4884, Control_c, 11, 1, 15
12, 4886, Control_c, 11, 1, 13
12, 4887, Control_c, 11, 1, 11
12, 4888, Control_c, 11, 1, 9
12, 4890, Control_c, 11, 1, 6
12, 4892, Control_c, 11, 1, 4
12, 4893, Control_c, 11, 1, 2
12, 4894, Control_c, 11, 1, 0
12, 4895, Note_on_c, 11, 64, 100
12, 4897, Note_on_c, 11, 67, 0
12, 4947, Note_on_c, 11, 67, 100
12, 4948, Note_on_c, 11, 64, 0
12, 4972, Control_c, 11, 1, 2
12, 4973, Control_c, 11, 1, 5
12, 4974, Control_c, 11, 1, 7
12, 4975, Control_c, 11, 1, 10
12, 4976, Control_c, 11, 1, 12
12, 4978, Control_c, 11, 1, 14
12, 4979, Control_c, 11, 1, 16
12, 4980, Control_c, 11, 1, 18
12, 4982, Control_c, 11, 1, 20
12, 4985, Control_c, 11, 1, 23
12, 4987, Control_c, 11, 1, 25
12, 4990, Control_c, 11, 1, 27
12, 4992, Control_c, 11, 1, 29
12, 4997, Control_c, 11, 1, 31
12, 5009, Control_c, 11, 1, 33
12, 5067, Control_c, 11, 1, 31
12, 5069, Control_c, 11, 1, 29
12, 5071, Control_c, 11, 1, 26
12, 5073, Control_c, 11, 1, 24
12, 5075, Control_c, 11, 1, 22
12, 5076, Control_c, 11, 1, 20
12, 5077, Control_c, 11, 1, 18
12, 5078, Control_c, 11, 1, 16
12, 5079, Control_c, 11, 1, 13
12, 5081, Control_c, 11, 1, 12
12, 5082, Control_c, 11, 1, 9
12, 5083, Control_c, 11, 1, 6
12, 5084, Control_c, 11, 1, 4
12, 5086, Control_c, 11, 1, 1
12, 5087, Control_c, 11, 1, 0
12, 5088, Note_on_c, 11, 64, 100
12, 5094, Note_on_c, 11, 67, 0
12, 5140, Note_on_c, 11, 67, 100
12, 5145, Note_on_c, 11, 64, 0
12, 5247, Note_on_c, 11, 67, 0
12, 5252, Note_on_c, 11, 74, 100
12, 5342, Control_c, 11, 1, 1
12, 5344, Control_c, 11, 1, 3
12, 5345, Control_c, 11, 1, 5
12, 5346, Control_c, 11, 1, 7
12, 5348, Control_c, 11, 1, 9
12, 5348, Control_c, 11, 1, 11
12, 5350, Control_c, 11, 1, 13
12, 5352, Control_c, 11, 1, 15
12, 5355, Control_c, 11, 1, 18
12, 5358, Control_c, 11, 1, 20
12, 5361, Control_c, 11, 1, 22
12, 5373, Control_c, 11, 1, 20
12, 5376, Control_c, 11, 1, 18
12, 5378, Control_c, 11, 1, 16
12, 5380, Control_c, 11, 1, 13
12, 5381, Note_on_c, 11, 72, 100
12, 5382, Control_c, 11, 1, 12
12, 5383, Control_c, 11, 1, 10
12, 5386, Note_on_c, 11, 74, 0
12, 5386, Control_c, 11, 1, 7
12, 5387, Control_c, 11, 1, 5
12, 5388, Control_c, 11, 1, 3
12, 5389, Control_c, 11, 1, 1
12, 5391, Control_c, 11, 1, 0
12, 5523, Note_on_c, 11, 72, 0
12, 5526, Note_on_c, 11, 64, 100
12, 5566, Control_c, 11, 1, 1
12, 5568, Control_c, 11, 1, 3
12, 5570, Control_c, 11, 1, 5
12, 5573, Control_c, 11, 1, 7
12, 5579, Control_c, 11, 1, 9
12, 5587, Control_c, 11, 1, 11
12, 5590, Control_c, 11, 1, 13
12, 5595, Control_c, 11, 1, 15
12, 5600, Control_c, 11, 1, 17
12, 5608, Control_c, 11, 1, 19
12, 5615, Control_c, 11, 1, 20
12, 5625, Control_c, 11, 1, 22
12, 5635, Control_c, 11, 1, 24
12, 5642, Control_c, 11, 1, 26
12, 5652, Control_c, 11, 1, 28
12, 5666, Control_c, 11, 1, 30
12, 5681, Control_c, 11, 1, 28
12, 5687, Control_c, 11, 1, 26
12, 5690, Control_c, 11, 1, 24
12, 5694, Control_c, 11, 1, 22
12, 5697, Control_c, 11, 1, 20
12, 5700, Control_c, 11, 1, 19
12, 5703, Control_c, 11, 1, 17
12, 5705, Control_c, 11, 1, 15
12, 5708, Control_c, 11, 1, 13
12, 5710, Control_c, 11, 1, 10
12, 5712, Control_c, 11, 1, 8
12, 5714, Control_c, 11, 1, 6
12, 5715, Control_c, 11, 1, 4
12, 5716, Control_c, 11, 1, 2
12, 5718, Control_c, 11, 1, 0
12, 5762, Note_on_c, 11, 71, 100
12, 5765, Note_on_c, 11, 64, 0
12, 5855, Note_on_c, 11, 72, 100
12, 5864, Note_on_c, 11, 71, 0
12, 5909, Note_on_c, 11, 71, 100
12, 5920, Note_on_c, 11, 72, 0
12, 6002, Note_on_c, 11, 71, 0
12, 6003, Note_on_c, 11, 67, 100
12, 6042, Control_c, 11, 1, 3
12, 6043, Control_c, 11, 1, 5
12, 6044, Control_c, 11, 1, 6
12, 6046, Control_c, 11, 1, 8
12, 6047, Control_c, 11, 1, 10
12, 6048, Control_c, 11, 1, 12
12, 6049, Control_c, 11, 1, 14
12, 6050, Control_c, 11, 1, 16
12, 6053, Control_c, 11, 1, 19
12, 6055, Control_c, 11, 1, 21
12, 6057, Control_c, 11, 1, 24
12, 6060, Control_c, 11, 1, 26
12, 6062, Control_c, 11, 1, 27
12, 6065, Control_c, 11, 1, 29
12, 6069, Control_c, 11, 1, 31
12, 6075, Control_c, 11, 1, 33
12, 6082, Control_c, 11, 1, 35
12, 6123, Control_c, 11, 1, 33
12, 6126, Control_c, 11, 1, 31
12, 6128, Control_c, 11, 1, 29
12, 6130, Control_c, 11, 1, 27
12, 6132, Control_c, 11, 1, 24
12, 6133, Control_c, 11, 1, 22
12, 6135, Control_c, 11, 1, 20
12, 6136, Control_c, 11, 1, 19
12, 6137, Control_c, 11, 1, 17
12, 6139, Control_c, 11, 1, 14
12, 6139, Control_c, 11, 1, 12
12, 6141, Control_c, 11, 1, 9
12, 6142, Control_c, 11, 1, 6
12, 6143, Control_c, 11, 1, 3
12, 6144, Note_on_c, 11, 67, 0
12, 6144, Note_on_c, 11, 64, 100
12, 6144, Control_c, 11, 1, 0
12, 6240, Note_on_c, 11, 60, 100
12, 6246, Note_on_c, 11, 64, 0
12, 6272, Note_on_c, 11, 60, 0
12, 6294, Note_on_c, 11, 60, 100
12, 6445, Control_c, 11, 1, 1
12, 6454, Control_c, 11, 1, 3
12, 6464, Control_c, 11, 1, 5
12, 6471, Control_c, 11, 1, 7
12, 6479, Control_c, 11, 1, 9
12, 6490, Control_c, 11, 1, 11
12, 6502, Control_c, 11, 1, 13
12, 6512, Control_c, 11, 1, 15
12, 6519, Control_c, 11, 1, 17
12, 6531, Control_c, 11, 1, 19
12, 6543, Control_c, 11, 1, 20
12, 6553, Control_c, 11, 1, 22
12, 6564, Control_c, 11, 1, 24
12, 6580, Control_c, 11, 1, 26
12, 6601, Control_c, 11, 1, 28
12, 6617, Control_c, 11, 1, 30
12, 6641, Control_c, 11, 1, 32
12, 6752, Control_c, 11, 1, 30
12, 6762, Control_c, 11, 1, 28
12, 6768, Control_c, 11, 1, 26
12, 6772, Control_c, 11, 1, 24
12, 6776, Control_c, 11, 1, 22
12, 6780, Control_c, 11, 1, 20
12, 6784, Control_c, 11, 1, 19
12, 6787, Control_c, 11, 1, 17
12, 6790, Control_c, 11, 1, 15
12, 6792, Control_c, 11, 1, 13
12, 6794, Control_c, 11, 1, 10
12, 6796, Control_c, 11, 1, 8
12, 6799, Control_c, 11, 1, 6
12, 6801, Control_c, 11, 1, 3
12, 6803, Control_c, 11, 1, 0
12, 6902, Note_on_c, 11, 60, 0
12, 6906, Note_on_c, 11, 65, 100
12, 7005, Note_on_c, 11, 67, 100
12, 7012, Note_on_c, 11, 65, 0
12, 7059, Note_on_c, 11, 69, 100
12, 7063, Note_on_c, 11, 67, 0
12, 7153, Note_on_c, 11, 67, 100
12, 7165, Note_on_c, 11, 69, 0
12, 7193, Control_c, 11, 1, 1
12, 7195, Control_c, 11, 1, 4
12, 7195, Control_c, 11, 1, 6
12, 7197, Control_c, 11, 1, 9
12, 7198, Control_c, 11, 1, 11
12, 7199, Control_c, 11, 1, 13
12, 7201, Control_c, 11, 1, 15
12, 7201, Control_c, 11, 1, 17
12, 7203, Control_c, 11, 1, 19
12, 7204, Control_c, 11, 1, 21
12, 7205, Control_c, 11, 1, 23
12, 7207, Control_c, 11, 1, 26
12, 7210, Control_c, 11, 1, 28
12, 7213, Control_c, 11, 1, 30
12, 7216, Control_c, 11, 1, 32
12, 7220, Control_c, 11, 1, 34
12, 7226, Control_c, 11, 1, 36
12, 7244, Control_c, 11, 1, 38
12, 7271, Control_c, 11, 1, 36
12, 7274, Control_c, 11, 1, 34
12, 7277, Control_c, 11, 1, 31
12, 7280, Control_c, 11, 1, 29
12, 7282, Control_c, 11, 1, 27
12, 7284, Control_c, 11, 1, 24
12, 7286, Control_c, 11, 1, 22
12, 7287, Control_c, 11, 1, 20
12, 7289, Control_c, 11, 1, 18
12, 7290, Control_c, 11, 1, 16
12, 7291, Control_c, 11, 1, 14
12, 7293, Control_c, 11, 1, 12
12, 7293, Control_c, 11, 1, 9
12, 7294, Note_on_c, 11, 62, 100
12, 7295, Note_on_c, 11, 67, 0
12, 7295, Control_c, 11, 1, 6
12, 7297, Control_c, 11, 1, 3
12, 7297, Control_c, 11, 1, 0
12, 7419, Control_c, 11, 1, 1
12, 7424, Control_c, 11, 1, 3
12, 7430, Control_c, 11, 1, 5
12, 7437, Control_c, 11, 1, 7
12, 7441, Control_c, 11, 1, 9
12, 7447, Control_c, 11, 1, 11
12, 7452, Control_c, 11, 1, 13
12, 7458, Control_c, 11, 1, 15
12, 7464, Control_c, 11, 1, 17
12, 7472, Control_c, 11, 1, 19
12, 7477, Control_c, 11, 1, 20
12, 7481, Control_c, 11, 1, 22
12, 7486, Control_c, 11, 1, 24
12, 7492, Control_c, 11, 1, 26
12, 7497, Control_c, 11, 1, 28
12, 7501, Control_c, 11, 1, 30
12, 7507, Control_c, 11, 1, 32
12, 7517, Control_c, 11, 1, 34
12, 7537, Control_c, 11, 1, 32
12, 7542, Control_c, 11, 1, 30
12, 7545, Control_c, 11, 1, 28
12, 7546, Note_on_c, 11, 62, 0
12, 7548, Control_c, 11, 1, 26
12, 7550, Control_c, 11, 1, 24
12, 7552, Control_c, 11, 1, 22
12, 7554, Control_c, 11, 1, 20
12, 7555, Control_c, 11, 1, 18
12, 7558, Control_c, 11, 1, 15
12, 7558, Control_c, 11, 1, 13
12, 7560, Control_c, 11, 1, 12
12, 7561, Control_c, 11, 1, 9
12, 7562, Control_c, 11, 1, 7
12, 7564, Control_c, 11, 1, 5
12, 7565, Control_c, 11, 1, 2
12, 7566, Control_c, 11, 1, 0
12, 7587, Note_on_c, 11, 64, 100
12, 7629, Note_on_c, 11, 64, 0
12, 7631, Note_on_c, 11, 65, 100
12, 7680, Note_on_c, 11, 65, 0
12, 7680, Note_on_c, 11, 67, 100
12, 7697, Control_c, 11, 1, 3
12, 7698, Control_c, 11, 1, 5
12, 7700, Control_c, 11, 1, 7
12, 7701, Control_c, 11, 1, 10
12, 7702, Control_c, 11, 1, 12
12, 7704, Control_c, 11, 1, 13
12, 7704, Control_c, 11, 1, 15
12, 7707, Control_c, 11, 1, 18
12, 7709, Control_c, 11, 1, 20
12, 7711, Control_c, 11, 1, 22
12, 7714, Control_c, 11, 1, 24
12, 7717, Control_c, 11, 1, 26
12, 7726, Control_c, 11, 1, 28
12, 7759, Control_c, 11, 1, 26
12, 7761, Control_c, 11, 1, 24
12, 7764, Control_c, 11, 1, 22
12, 7766, Control_c, 11, 1, 20
12, 7767, Control_c, 11, 1, 18
12, 7768, Control_c, 11, 1, 16
12, 7770, Control_c, 11, 1, 13
12, 7771, Control_c, 11, 1, 12
12, 7773, Control_c, 11, 1, 10
12, 7773, Control_c, 11, 1, 8
12, 7775, Control_c, 11, 1, 5
12, 7776, Note_on_c, 11, 67, 0
12, 7776, Control_c, 11, 1, 3
12, 7777, Note_on_c, 11, 64, 100
12, 7778, Control_c, 11, 1, 0
12, 7821, Note_on_c, 11, 64, 0
12, 7824, Note_on_c, 11, 67, 100
12, 7968, Note_on_c, 11, 64, 100
12, 7971, Note_on_c, 11, 67, 0
12, 8013, Note_on_c, 11, 67, 100
12, 8015, Note_on_c, 11, 64, 0
12, 8054, Control_c, 11, 1, 2
12, 8055, Control_c, 11, 1, 4
12, 8056, Control_c, 11, 1, 6
12, 8058, Control_c, 11, 1, 8
12, 8059, Control_c, 11, 1, 10
12, 8060, Control_c, 11, 1, 12
12, 8062, Control_c, 11, 1, 14
12, 8064, Control_c, 11, 1, 17
12, 8065, Control_c, 11, 1, 19
12, 8070, Control_c, 11, 1, 20
12, 8074, Control_c, 11, 1, 22
12, 8083, Control_c, 11, 1, 24
12, 8102, Control_c, 11, 1, 26
12, 8137, Control_c, 11, 1, 24
12, 8141, Control_c, 11, 1, 22
12, 8143, Control_c, 11, 1, 20
12, 8145, Control_c, 11, 1, 17
12, 8146, Control_c, 11, 1, 15
12, 8148, Control_c, 11, 1, 13
12, 8149, Control_c, 11, 1, 12
12, 8150, Control_c, 11, 1, 10
12, 8151, Control_c, 11, 1, 7
12, 8153, Control_c, 11, 1, 5
12, 8153, Note_on_c, 11, 64, 100
12, 8154, Control_c, 11, 1, 2
12, 8156, Control_c, 11, 1, 0
12, 8157, Note_on_c, 11, 67, 0
12, 8206, Note_on_c, 11, 67, 100
12, 8213, Note_on_c, 11, 64, 0
12, 8294, Note_on_c, 11, 67, 0
12, 8298, Note_on_c, 11, 74, 100
12, 8398, Note_on_c, 11, 72, 100
12, 8406, Note_on_c, 11, 74, 0
12, 8435, Control_c, 11, 1, 2
12, 8437, Control_c, 11, 1, 4
12, 8438, Control_c, 11, 1, 6
12, 8439, Control_c, 11, 1, 8
12, 8440, Control_c, 11, 1, 10
12, 8441, Control_c, 11, 1, 12
12, 8443, Control_c, 11, 1, 13
12, 8445, Control_c, 11, 1, 16
12, 8447, Control_c, 11, 1, 19
12, 8448, Control_c, 11, 1, 20
12, 8449, Control_c, 11, 1, 22
12, 8455, Control_c, 11, 1, 24
12, 8458, Control_c, 11, 1, 26
12, 8463, Control_c, 11, 1, 28
12, 8472, Control_c, 11, 1, 30
12, 8499, Control_c, 11, 1, 32
12, 8519, Control_c, 11, 1, 30
12, 8522, Control_c, 11, 1, 28
12, 8524, Control_c, 11, 1, 26
12, 8526, Control_c, 11, 1, 24
12, 8529, Control_c, 11, 1, 22
12, 8531, Control_c, 11, 1, 19
12, 8532, Note_on_c, 11, 72, 0
12, 8532, Control_c, 11, 1, 17
12, 8534, Control_c, 11, 1, 15
12, 8535, Note_on_c, 11, 64, 100
12, 8535, Control_c, 11, 1, 13
12, 8537, Control_c, 11, 1, 11
12, 8538, Control_c, 11, 1, 8
12, 8539, Control_c, 11, 1, 6
12, 8541, Control_c, 11, 1, 4
12, 8542, Control_c, 11, 1, 1
12, 8543, Control_c, 11, 1, 0
12, 8637, Control_c, 11, 1, 1
12, 8642, Control_c, 11, 1, 3
12, 8645, Control_c, 11, 1, 5
12, 8652, Control_c, 11, 1, 7
12, 8659, Control_c, 11, 1, 9
12, 8664, Control_c, 11, 1, 11
12, 8671, Control_c, 11, 1, 13
12, 8682, Control_c, 11, 1, 15
12, 8703, Control_c, 11, 1, 17
12, 8722, Control_c, 11, 1, 19
12, 8731, Control_c, 11, 1, 20
12, 8742, Control_c, 11, 1, 22
12, 8810, Control_c, 11, 1, 20
12, 8814, Control_c, 11, 1, 18
12, 8816, Control_c, 11, 1, 16
12, 8818, Control_c, 11, 1, 13
12, 8820, Control_c, 11, 1, 12
12, 8821, Control_c, 11, 1, 10
12, 8822, Control_c, 11, 1, 8
12, 8823, Control_c, 11, 1, 6
12, 8824, Control_c, 11, 1, 4
12, 8826, Control_c, 11, 1, 2
12, 8827, Note_on_c, 11, 71, 100
12, 8827, Control_c, 11, 1, 0
12, 8831, Note_on_c, 11, 64, 0
12, 8931, Note_on_c, 11, 72, 100
12, 8939, Note_on_c, 11, 71, 0
12, 8984, Note_on_c, 11, 71, 100
12, 8994, Note_on_c, 11, 72, 0
12, 9079, Note_on_c, 11, 71, 0
12, 9079, Note_on_c, 11, 67, 100
12, 9151, Control_c, 11, 1, 1
12, 9152, Control_c, 11, 1, 3
12, 9153, Control_c, 11, 1, 5
12, 9155, Control_c, 11, 1, 8
12, 9157, Control_c, 11, 1, 10
12, 9159, Control_c, 11, 1, 12
12, 9161, Control_c, 11, 1, 15
12, 9164, Control_c, 11, 1, 17
12, 9167, Control_c, 11, 1, 19
12, 9170, Control_c, 11, 1, 21
12, 9173, Control_c, 11, 1, 23
12, 9178, Control_c, 11, 1, 25
12, 9199, Control_c, 11, 1, 23
12, 9201, Control_c, 11, 1, 21
12, 9202, Control_c, 11, 1, 19
12, 9205, Control_c, 11, 1, 16
12, 9206, Control_c, 11, 1, 14
12, 9208, Control_c, 11, 1, 12
12, 9209, Control_c, 11, 1, 10
12, 9210, Control_c, 11, 1, 8
12, 9211, Control_c, 11, 1, 6
12, 9212, Control_c, 11, 1, 4
12, 9214, Note_on_c, 11, 64, 100
12, 9214, Control_c, 11, 1, 1
12, 9215, Control_c, 11, 1, 0
12, 9219, Note_on_c, 11, 67, 0
12, 9313, Note_on_c, 11, 60, 100
12, 9325, Note_on_c, 11, 64, 0
12, 9493, Control_c, 11, 1, 1
12, 9506, Control_c, 11, 1, 3
12, 9522, Control_c, 11, 1, 5
12, 9540, Control_c, 11, 1, 7
12, 9563, Control_c, 11, 1, 9
12, 9579, Control_c, 11, 1, 11
12, 9595, Control_c, 11, 1, 13
12, 9613, Control_c, 11, 1, 15
12, 9625, Control_c, 11, 1, 17
12, 9647, Control_c, 11, 1, 19
12, 9678, Control_c, 11, 1, 20
12, 9700, Control_c, 11, 1, 22
12, 9723, Control_c, 11, 1, 24
12, 9842, Control_c, 11, 1, 22
12, 9848, Control_c, 11, 1, 20
12, 9854, Control_c, 11, 1, 19
12, 9857, Control_c, 11, 1, 17
12, 9861, Control_c, 11, 1, 15
12, 9863, Control_c, 11, 1, 13
12, 9865, Control_c, 11, 1, 10
12, 9866, Control_c, 11, 1, 8
12, 9868, Control_c, 11, 1, 6
12, 9869, Control_c, 11, 1, 5
12, 9870, Control_c, 11, 1, 2
12, 9872, Control_c, 11, 1, 0
12, 9891, Note_on_c, 11, 60, 0
12, 9927, Note_on_c, 11, 60, 100
12, 9977, Note_on_c, 11, 65, 100
12, 9980, Note_on_c, 11, 60, 0
12, 10073, Note_on_c, 11, 67, 100
12, 10081, Note_on_c, 11, 65, 0
12, 10126, Note_on_c, 11, 67, 0
12, 10127, Note_on_c, 11, 69, 100
12, 10223, Note_on_c, 11, 67, 100
12, 10236, Note_on_c, 11, 69, 0
12, 10318, Note_on_c, 11, 67, 0
12, 10318, Note_on_c, 11, 62, 100
12, 10387, Control_c, 11, 1, 1
12, 10391, Control_c, 11, 1, 3
12, 10398, Control_c, 11, 1, 5
12, 10404, Control_c, 11, 1, 7
12, 10410, Control_c, 11, 1, 9
12, 10417, Control_c, 11, 1, 11
12, 10422, Control_c, 11, 1, 13
12, 10428, Control_c, 11, 1, 15
12, 10442, Control_c, 11, 1, 17
12, 10451, Control_c, 11, 1, 19
12, 10462, Control_c, 11, 1, 20
12, 10470, Control_c, 11, 1, 22
12, 10484, Control_c, 11, 1, 24
12, 10518, Control_c, 11, 1, 26
12, 10614, Control_c, 11, 1, 24
12, 10651, Control_c, 11, 1, 22
12, 10656, Control_c, 11, 1, 20
12, 10660, Control_c, 11, 1, 19
12, 10663, Control_c, 11, 1, 17
12, 10667, Control_c, 11, 1, 15
12, 10670, Control_c, 11, 1, 13
12, 10673, Control_c, 11, 1, 11
12, 10675, Control_c, 11, 1, 9
12, 10677, Control_c, 11, 1, 6
12, 10679, Control_c, 11, 1, 4
12, 10680, Note_on_c, 11, 62, 0
12, 10682, Control_c, 11, 1, 1
12, 10684, Control_c, 11, 1, 0
12, 10762, Note_on_c, 11, 69, 100
12, 10846, Note_on_c, 11, 71, 100
12, 10849, Note_on_c, 11, 69, 0
12, 10897, Note_on_c, 11, 72, 100
12, 10900, Note_on_c, 11, 71, 0
12, 10989, Note_on_c, 11, 72, 0
12, 10992, Note_on_c, 11, 74, 100
12, 11043, Control_c, 11, 1, 1
12, 11044, Control_c, 11, 1, 3
12, 11046, Control_c, 11, 1, 5
12, 11050, Control_c, 11, 1, 7
12, 11052, Control_c, 11, 1, 10
12, 11055, Control_c, 11, 1, 12
12, 11058, Control_c, 11, 1, 14
12, 11061, Control_c, 11, 1, 16
12, 11064, Control_c, 11, 1, 18
12, 11070, Control_c, 11, 1, 20
12, 11074, Control_c, 11, 1, 22
12, 11078, Control_c, 11, 1, 24
12, 11085, Control_c, 11, 1, 26
12, 11094, Control_c, 11, 1, 27
12, 11109, Control_c, 11, 1, 29
12, 11122, Control_c, 11, 1, 27
12, 11126, Control_c, 11, 1, 26
12, 11130, Control_c, 11, 1, 24
12, 11132, Control_c, 11, 1, 22
12, 11134, Control_c, 11, 1, 20
12, 11135, Note_on_c, 11, 72, 100
12, 11136, Control_c, 11, 1, 17
12, 11136, Control_c, 11, 1, 15
12, 11141, Control_c, 11, 1, 13
12, 11144, Note_on_c, 11, 74, 0
12, 11144, Control_c, 11, 1, 10
12, 11144, Control_c, 11, 1, 8
12, 11146, Control_c, 11, 1, 6
12, 11147, Control_c, 11, 1, 5
12, 11148, Control_c, 11, 1, 3
12, 11150, Control_c, 11, 1, 1
12, 11151, Control_c, 11, 1, 0
12, 11233, Note_on_c, 11, 67, 100
12, 11234, Note_on_c, 11, 72, 0
12, 11260, Note_on_c, 11, 67, 0
12, 11285, Note_on_c, 11, 67, 100
12, 11341, Control_c, 11, 1, 1
12, 11344, Control_c, 11, 1, 3
12, 11347, Control_c, 11, 1, 5
12, 11350, Control_c, 11, 1, 7
12, 11354, Control_c, 11, 1, 9
12, 11357, Control_c, 11, 1, 11
12, 11360, Control_c, 11, 1, 13
12, 11365, Control_c, 11, 1, 15
12, 11372, Control_c, 11, 1, 17
12, 11379, Control_c, 11, 1, 19
12, 11390, Control_c, 11, 1, 20
12, 11404, Control_c, 11, 1, 22
12, 11488, Control_c, 11, 1, 20
12, 11492, Control_c, 11, 1, 19
12, 11495, Control_c, 11, 1, 17
12, 11497, Control_c, 11, 1, 15
12, 11499, Control_c, 11, 1, 13
12, 11501, Control_c, 11, 1, 10
12, 11504, Control_c, 11, 1, 8
12, 11505, Control_c, 11, 1, 5
12, 11507, Control_c, 11, 1, 3
12, 11509, Control_c, 11, 1, 0
12, 11510, Note_on_c, 11, 67, 0
12, 11513, Note_on_c, 11, 77, 100
12, 11605, Note_on_c, 11, 77, 0
12, 11610, Note_on_c, 11, 76, 100
12, 11663, Note_on_c, 11, 77, 100
12, 11672, Note_on_c, 11, 76, 0
12, 11754, Note_on_c, 11, 79, 100
12, 11756, Note_on_c, 11, 77, 0
12, 11795, Control_c, 11, 1, 1
12, 11797, Control_c, 11, 1, 4
12, 11799, Control_c, 11, 1, 6
12, 11801, Control_c, 11, 1, 8
12, 11803, Control_c, 11, 1, 10
12, 11805, Control_c, 11, 1, 12
12, 11808, Control_c, 11, 1, 13
12, 11811, Control_c, 11, 1, 15
12, 11814, Control_c, 11, 1, 17
12, 11820, Control_c, 11, 1, 19
12, 11836, Control_c, 11, 1, 21
12, 11876, Control_c, 11, 1, 19
12, 11883, Control_c, 11, 1, 17
12, 11887, Control_c, 11, 1, 15
12, 11890, Control_c, 11, 1, 13
12, 11893, Control_c, 11, 1, 11
12, 11895, Control_c, 11, 1, 8
12, 11896, Note_on_c, 11, 76, 100
12, 11897, Control_c, 11, 1, 6
12, 11899, Control_c, 11, 1, 3
12, 11901, Control_c, 11, 1, 0
12, 11904, Note_on_c, 11, 79, 0
12, 11990, Note_on_c, 11, 72, 100
12, 11997, Note_on_c, 11, 76, 0
12, 12019, Note_on_c, 11, 72, 0
12, 12045, Note_on_c, 11, 72, 100
12, 12103, Control_c, 11, 1, 1
12, 12106, Control_c, 11, 1, 3
12, 12109, Control_c, 11, 1, 5
12, 12112, Control_c, 11, 1, 7
12, 12118, Control_c, 11, 1, 9
12, 12124, Control_c, 11, 1, 11
12, 12129, Control_c, 11, 1, 13
12, 12136, Control_c, 11, 1, 15
12, 12143, Control_c, 11, 1, 17
12, 12149, Control_c, 11, 1, 19
12, 12159, Control_c, 11, 1, 20
12, 12166, Control_c, 11, 1, 22
12, 12175, Control_c, 11, 1, 24
12, 12187, Control_c, 11, 1, 26
12, 12202, Control_c, 11, 1, 28
12, 12220, Control_c, 11, 1, 30
12, 12233, Control_c, 11, 1, 32
12, 12255, Control_c, 11, 1, 30
12, 12260, Control_c, 11, 1, 28
12, 12263, Control_c, 11, 1, 26
12, 12266, Control_c, 11, 1, 24
12, 12268, Control_c, 11, 1, 22
12, 12270, Control_c, 11, 1, 19
12, 12272, Control_c, 11, 1, 17
12, 12274, Control_c, 11, 1, 15
12, 12275, Control_c, 11, 1, 13
12, 12276, Control_c, 11, 1, 11
12, 12277, Control_c, 11, 1, 9
12, 12279, Control_c, 11, 1, 6
12, 12280, Control_c, 11, 1, 5
12, 12281, Control_c, 11, 1, 3
12, 12282, Note_on_c, 11, 72, 0
12, 12282, Control_c, 11, 1, 0
12, 12285, Note_on_c, 11, 69, 100
12, 12380, Note_on_c, 11, 71, 100
12, 12387, Note_on_c, 11, 69, 0
12, 12430, Note_on_c, 11, 71, 0
12, 12434, Note_on_c, 11, 72, 100
12, 12535, Control_c, 11, 1, 1
12, 12546, Control_c, 11, 1, 3
12, 12554, Control_c, 11, 1, 5
12, 12561, Control_c, 11, 1, 7
12, 12571, Control_c, 11, 1, 9
12, 12578, Control_c, 11, 1, 11
12, 12584, Control_c, 11, 1, 13
12, 12590, Control_c, 11, 1, 15
12, 12601, Control_c, 11, 1, 17
12, 12611, Control_c, 11, 1, 19
12, 12617, Control_c, 11, 1, 20
12, 12623, Control_c, 11, 1, 22
12, 12630, Control_c, 11, 1, 24
12, 12642, Control_c, 11, 1, 26
12, 12649, Control_c, 11, 1, 24
12, 12652, Control_c, 11, 1, 22
12, 12654, Control_c, 11, 1, 19
12, 12656, Control_c, 11, 1, 17
12, 12658, Control_c, 11, 1, 15
12, 12659, Control_c, 11, 1, 13
12, 12660, Control_c, 11, 1, 10
12, 12661, Control_c, 11, 1, 8
12, 12662, Note_on_c, 11, 72, 0
12, 12663, Control_c, 11, 1, 6
12, 12664, Control_c, 11, 1, 3
12, 12665, Note_on_c, 11, 67, 100
12, 12665, Control_c, 11, 1, 0
12, 12760, Note_on_c, 11, 71, 100
12, 12768, Note_on_c, 11, 67, 0
12, 12810, Note_on_c, 11, 72, 100
12, 12814, Note_on_c, 11, 71, 0
12, 13052, Note_on_c, 11, 72, 0
12, 13053, Note_on_c, 11, 69, 100
12, 13148, Note_on_c, 11, 71, 100
12, 13158, Note_on_c, 11, 69, 0
12, 13201, Note_on_c, 11, 72, 100
12, 13209, Note_on_c, 11, 71, 0
12, 13341, Note_on_c, 11, 72, 0
12, 13342, Note_on_c, 11, 69, 100
12, 13445, Note_on_c, 11, 76, 100
12, 13449, Note_on_c, 11, 69, 0
12, 13538, Note_on_c, 11, 74, 100
12, 13545, Note_on_c, 11, 76, 0
12, 13638, Note_on_c, 11, 72, 100
12, 13649, Note_on_c, 11, 74, 0
12, 13728, Note_on_c, 11, 74, 100
12, 13745, Note_on_c, 11, 72, 0
12, 13815, Note_on_c, 11, 74, 0
12, 13824, Note_on_c, 11, 74, 100
12, 14049, Control_c, 11, 1, 1
12, 14056, Control_c, 11, 1, 3
12, 14072, Control_c, 11, 1, 5
12, 14084, Control_c, 11, 1, 7
12, 14096, Control_c, 11, 1, 9
12, 14108, Control_c, 11, 1, 11
12, 14125, Control_c, 11, 1, 13
12, 14137, Control_c, 11, 1, 15
12, 14151, Control_c, 11, 1, 17
12, 14170, Control_c, 11, 1, 19
12, 14183, Control_c, 11, 1, 20
12, 14196, Control_c, 11, 1, 22
12, 14215, Control_c, 11, 1, 24
12, 14233, Control_c, 11, 1, 26
12, 14251, Control_c, 11, 1, 28
12, 14286, Control_c, 11, 1, 30
12, 14309, Control_c, 11, 1, 32
12, 14338, Control_c, 11, 1, 34
12, 14363, Control_c, 11, 1, 36
12, 14403, Control_c, 11, 1, 38
12, 14462, Control_c, 11, 1, 40
12, 14496, Control_c, 11, 1, 38
12, 14508, Control_c, 11, 1, 36
12, 14515, Control_c, 11, 1, 34
12, 14523, Control_c, 11, 1, 32
12, 14532, Control_c, 11, 1, 30
12, 14538, Note_on_c, 11, 74, 0
12, 14538, Control_c, 11, 1, 27
12, 14543, Control_c, 11, 1, 25
12, 14547, Control_c, 11, 1, 22
12, 14552, Control_c, 11, 1, 20
12, 14555, Control_c, 11, 1, 18
12, 14556, Control_c, 11, 1, 16
12, 14561, Control_c, 11, 1, 13
12, 14564, Control_c, 11, 1, 11
12, 14567, Control_c, 11, 1, 9
12, 14569, Control_c, 11, 1, 7
12, 14572, Control_c, 11, 1, 5
12, 14573, Control_c, 11, 1, 2
12, 14576, Control_c, 11, 1, 0
12, 14587, Note_on_c, 11, 74, 100
12, 14638, Note_on_c, 11, 76, 100
12, 14648, Note_on_c, 11, 74, 0
12, 14675, Note_on_c, 11, 76, 0
12, 14688, Note_on_c, 11, 76, 100
12, 14718, Note_on_c, 11, 76, 0
12, 14734, Note_on_c, 11, 76, 100
12, 14763, Note_on_c, 11, 76, 0
12, 14788, Note_on_c, 11, 76, 100
12, 14819, Control_c, 11, 1, 2
12, 14821, Control_c, 11, 1, 4
12, 14822, Control_c, 11, 1, 6
12, 14823, Control_c, 11, 1, 8
12, 14824, Control_c, 11, 1, 10
12, 14825, Control_c, 11, 1, 12
12, 14827, Control_c, 11, 1, 13
12, 14828, Control_c, 11, 1, 15
12, 14831, Control_c, 11, 1, 18
12, 14832, Control_c, 11, 1, 20
12, 14834, Control_c, 11, 1, 23
12, 14838, Control_c, 11, 1, 25
12, 14841, Control_c, 11, 1, 27
12, 14846, Control_c, 11, 1, 29
12, 14868, Control_c, 11, 1, 27
12, 14871, Control_c, 11, 1, 25
12, 14873, Control_c, 11, 1, 23
12, 14874, Note_on_c, 11, 67, 100
12, 14875, Note_on_c, 11, 76, 0
12, 14876, Control_c, 11, 1, 20
12, 14878, Control_c, 11, 1, 18
12, 14880, Control_c, 11, 1, 15
12, 14882, Control_c, 11, 1, 13
12, 14885, Control_c, 11, 1, 10
12, 14887, Control_c, 11, 1, 6
12, 14888, Control_c, 11, 1, 5
12, 14889, Control_c, 11, 1, 3
12, 14891, Control_c, 11, 1, 1
12, 14892, Control_c, 11, 1, 0
12, 14907, Note_on_c, 11, 67, 0
12, 14929, Note_on_c, 11, 67, 100
12, 14966, Control_c, 11, 1, 3
12, 14967, Control_c, 11, 1, 6
12, 14968, Control_c, 11, 1, 9
12, 14970, Control_c, 11, 1, 12
12, 14971, Control_c, 11, 1, 15
12, 14972, Control_c, 11, 1, 17
12, 14973, Control_c, 11, 1, 19
12, 14974, Control_c, 11, 1, 21
12, 14976, Control_c, 11, 1, 24
12, 14977, Control_c, 11, 1, 26
12, 14989, Control_c, 11, 1, 27
12, 15003, Control_c, 11, 1, 26
12, 15008, Control_c, 11, 1, 24
12, 15011, Control_c, 11, 1, 22
12, 15015, Control_c, 11, 1, 20
12, 15018, Control_c, 11, 1, 17
12, 15020, Note_on_c, 11, 69, 100
12, 15021, Control_c, 11, 1, 15
12, 15024, Control_c, 11, 1, 12
12, 15026, Note_on_c, 11, 67, 0
12, 15027, Control_c, 11, 1, 10
12, 15029, Control_c, 11, 1, 8
12, 15031, Control_c, 11, 1, 5
12, 15033, Control_c, 11, 1, 3
12, 15035, Control_c, 11, 1, 0
12, 15047, Note_on_c, 11, 69, 0
12, 15069, Note_on_c, 11, 69, 100
12, 15134, Control_c, 11, 1, 1
12, 15137, Control_c, 11, 1, 3
12, 15140, Control_c, 11, 1, 5
12, 15143, Control_c, 11, 1, 7
12, 15147, Control_c, 11, 1, 9
12, 15151, Control_c, 11, 1, 11
12, 15156, Control_c, 11, 1, 13
12, 15161, Control_c, 11, 1, 15
12, 15165, Control_c, 11, 1, 17
12, 15177, Control_c, 11, 1, 19
12, 15188, Control_c, 11, 1, 20
12, 15204, Control_c, 11, 1, 22
12, 15261, Control_c, 11, 1, 20
12, 15264, Control_c, 11, 1, 19
12, 15267, Control_c, 11, 1, 16
12, 15270, Control_c, 11, 1, 13
12, 15271, Control_c, 11, 1, 11
12, 15273, Control_c, 11, 1, 8
12, 15276, Control_c, 11, 1, 6
12, 15278, Control_c, 11, 1, 3
12, 15280, Control_c, 11, 1, 0
12, 15284, Note_on_c, 11, 69, 0
12, 15310, Note_on_c, 11, 69, 100
12, 15360, Note_on_c, 11, 69, 0
12, 15360, Note_on_c, 11, 74, 100
12, 15391, Note_on_c, 11, 74, 0
12, 15408, Note_on_c, 11, 74, 100
12, 15434, Note_on_c, 11, 74, 0
12, 15454, Note_on_c, 11, 74, 100
12, 15482, Note_on_c, 11, 74, 0
12, 15500, Note_on_c, 11, 74, 100
12, 15526, Note_on_c, 11, 74, 0
12, 15547, Note_on_c, 11, 74, 100
12, 15635, Note_on_c, 11, 74, 0
12, 15638, Note_on_c, 11, 65, 100
12, 15738, Note_on_c, 11, 65, 0
12, 15738, Note_on_c, 11, 64, 100
12, 15770, Control_c, 11, 1, 3
12, 15771, Control_c, 11, 1, 5
12, 15772, Control_c, 11, 1, 7
12, 15773, Control_c, 11, 1, 10
12, 15775, Control_c, 11, 1, 12
12, 15776, Control_c, 11, 1, 13
12, 15777, Control_c, 11, 1, 15
12, 15779, Control_c, 11, 1, 18
12, 15782, Control_c, 11, 1, 20
12, 15784, Control_c, 11, 1, 22
12, 15789, Control_c, 11, 1, 24
12, 15835, Control_c, 11, 1, 22
12, 15836, Note_on_c, 11, 64, 0
12, 15839, Control_c, 11, 1, 20
12, 15840, Control_c, 11, 1, 19
12, 15843, Control_c, 11, 1, 16
12, 15845, Note_on_c, 11, 77, 100
12, 15846, Control_c, 11, 1, 13
12, 15847, Control_c, 11, 1, 12
12, 15848, Control_c, 11, 1, 10
12, 15850, Control_c, 11, 1, 6
12, 15852, Control_c, 11, 1, 3
12, 15854, Control_c, 11, 1, 1
12, 15855, Control_c, 11, 1, 0
12, 15935, Note_on_c, 11, 76, 100
12, 15943, Note_on_c, 11, 77, 0
12, 16039, Note_on_c, 11, 74, 100
12, 16042, Note_on_c, 11, 76, 0
12, 16076, Control_c, 11, 1, 1
12, 16080, Control_c, 11, 1, 3
12, 16083, Control_c, 11, 1, 5
12, 16086, Control_c, 11, 1, 7
12, 16092, Control_c, 11, 1, 9
12, 16096, Control_c, 11, 1, 11
12, 16099, Control_c, 11, 1, 13
12, 16103, Control_c, 11, 1, 15
12, 16107, Control_c, 11, 1, 17
12, 16111, Control_c, 11, 1, 19
12, 16113, Control_c, 11, 1, 20
12, 16116, Control_c, 11, 1, 22
12, 16120, Control_c, 11, 1, 24
12, 16123, Control_c, 11, 1, 26
12, 16127, Control_c, 11, 1, 28
12, 16128, Control_c, 11, 1, 30
12, 16140, Control_c, 11, 1, 32
12, 16228, Control_c, 11, 1, 30
12, 16229, Control_c, 11, 1, 28
12, 16231, Note_on_c, 11, 72, 100
12, 16232, Control_c, 11, 1, 26
12, 16235, Control_c, 11, 1, 23
12, 16237, Control_c, 11, 1, 20
12, 16238, Note_on_c, 11, 74, 0
12, 16239, Control_c, 11, 1, 18
12, 16241, Control_c, 11, 1, 15
12, 16244, Control_c, 11, 1, 12
12, 16246, Control_c, 11, 1, 9
12, 16247, Control_c, 11, 1, 7
12, 16249, Control_c, 11, 1, 5
12, 16251, Control_c, 11, 1, 2
12, 16254, Control_c, 11, 1, 0
12, 16328, Note_on_c, 11, 71, 100
12, 16333, Note_on_c, 11, 72, 0
12, 16418, Note_on_c, 11, 72, 100
12, 16425, Note_on_c, 11, 71, 0
12, 16468, Note_on_c, 11, 76, 100
12, 16471, Note_on_c, 11, 72, 0
12, 16504, Control_c, 11, 1, 3
12, 16506, Control_c, 11, 1, 5
12, 16507, Control_c, 11, 1, 6
12, 16508, Control_c, 11, 1, 8
12, 16509, Control_c, 11, 1, 10
12, 16511, Control_c, 11, 1, 13
12, 16512, Control_c, 11, 1, 15
12, 16513, Control_c, 11, 1, 17
12, 16519, Control_c, 11, 1, 19
12, 16522, Control_c, 11, 1, 21
12, 16525, Control_c, 11, 1, 23
12, 16532, Control_c, 11, 1, 25
12, 16543, Control_c, 11, 1, 27
12, 16605, Note_on_c, 11, 74, 100
12, 16613, Note_on_c, 11, 76, 0
12, 16644, Control_c, 11, 1, 25
12, 16648, Control_c, 11, 1, 23
12, 16649, Control_c, 11, 1, 21
12, 16652, Control_c, 11, 1, 19
12, 16654, Control_c, 11, 1, 17
12, 16656, Control_c, 11, 1, 15
12, 16658, Control_c, 11, 1, 13
12, 16661, Control_c, 11, 1, 11
12, 16663, Control_c, 11, 1, 9
12, 16665, Control_c, 11, 1, 7
12, 16668, Control_c, 11, 1, 5
12, 16670, Control_c, 11, 1, 2
12, 16672, Control_c, 11, 1, 0
12, 16701, Note_on_c, 11, 74, 0
12, 16703, Note_on_c, 11, 69, 100
12, 16807, Note_on_c, 11, 74, 100
12, 16816, Note_on_c, 11, 69, 0
12, 16949, Note_on_c, 11, 72, 100
12, 16955, Note_on_c, 11, 74, 0
12, 16974, Note_on_c, 11, 72, 0
12, 16990, Note_on_c, 11, 72, 100
12, 17016, Note_on_c, 11, 72, 0
12, 17033, Note_on_c, 11, 72, 100
12, 17057, Note_on_c, 11, 72, 0
12, 17085, Note_on_c, 11, 72, 100
12, 17104, Control_c, 11, 1, 3
12, 17105, Control_c, 11, 1, 6
12, 17107, Control_c, 11, 1, 8
12, 17107, Control_c, 11, 1, 11
12, 17109, Control_c, 11, 1, 13
12, 17110, Control_c, 11, 1, 16
12, 17111, Control_c, 11, 1, 18
12, 17113, Control_c, 11, 1, 20
12, 17115, Control_c, 11, 1, 22
12, 17117, Control_c, 11, 1, 25
12, 17120, Control_c, 11, 1, 27
12, 17123, Control_c, 11, 1, 29
12, 17129, Control_c, 11, 1, 31
12, 17159, Control_c, 11, 1, 29
12, 17163, Control_c, 11, 1, 27
12, 17166, Control_c, 11, 1, 25
12, 17170, Control_c, 11, 1, 23
12, 17174, Control_c, 11, 1, 21
12, 17176, Control_c, 11, 1, 19
12, 17177, Note_on_c, 11, 71, 100
12, 17178, Note_on_c, 11, 72, 0
12, 17179, Control_c, 11, 1, 17
12, 17181, Control_c, 11, 1, 15
12, 17183, Control_c, 11, 1, 13
12, 17185, Control_c, 11, 1, 10
12, 17187, Control_c, 11, 1, 8
12, 17189, Control_c, 11, 1, 5
12, 17192, Control_c, 11, 1, 3
12, 17194, Control_c, 11, 1, 0
12, 17206, Note_on_c, 11, 71, 0
12, 17231, Note_on_c, 11, 71, 100
12, 17261, Control_c, 11, 1, 2
12, 17262, Control_c, 11, 1, 4
12, 17264, Control_c, 11, 1, 6
12, 17265, Control_c, 11, 1, 8
12, 17266, Control_c, 11, 1, 10
12, 17267, Control_c, 11, 1, 12
12, 17269, Control_c, 11, 1, 13
12, 17271, Control_c, 11, 1, 16
12, 17273, Control_c, 11, 1, 18
12, 17276, Control_c, 11, 1, 20
12, 17279, Control_c, 11, 1, 22
12, 17280, Control_c, 11, 1, 24
12, 17289, Control_c, 11, 1, 26
12, 17302, Control_c, 11, 1, 27
12, 17327, Control_c, 11, 1, 29
12, 17355, Control_c, 11, 1, 27
12, 17360, Control_c, 11, 1, 26
12, 17363, Control_c, 11, 1, 24
12, 17366, Control_c, 11, 1, 22
12, 17368, Control_c, 11, 1, 20
12, 17369, Note_on_c, 11, 69, 100
12, 17370, Control_c, 11, 1, 18
12, 17373, Control_c, 11, 1, 16
12, 17375, Control_c, 11, 1, 13
12, 17377, Control_c, 11, 1, 11
12, 17379, Note_on_c, 11, 71, 0
12, 17379, Control_c, 11, 1, 9
12, 17380, Control_c, 11, 1, 7
12, 17382, Control_c, 11, 1, 5
12, 17383, Control_c, 11, 1, 3
12, 17385, Control_c, 11, 1, 0
12, 17399, Note_on_c, 11, 69, 0
12, 17420, Note_on_c, 11, 69, 100
12, 17449, Control_c, 11, 1, 1
12, 17451, Control_c, 11, 1, 4
12, 17452, Control_c, 11, 1, 6
12, 17453, Control_c, 11, 1, 8
12, 17455, Control_c, 11, 1, 10
12, 17456, Control_c, 11, 1, 12
12, 17457, Control_c, 11, 1, 14
12, 17458, Control_c, 11, 1, 16
12, 17461, Control_c, 11, 1, 19
12, 17463, Control_c, 11, 1, 20
12, 17465, Control_c, 11, 1, 22
12, 17469, Control_c, 11, 1, 24
12, 17477, Control_c, 11, 1, 26
12, 17515, Note_on_c, 11, 69, 0
12, 17515, Note_on_c, 11, 67, 100
12, 17526, Control_c, 11, 1, 24
12, 17528, Control_c, 11, 1, 22
12, 17531, Control_c, 11, 1, 20
12, 17534, Control_c, 11, 1, 18
12, 17536, Control_c, 11, 1, 16
12, 17538, Control_c, 11, 1, 13
12, 17539, Control_c, 11, 1, 12
12, 17540, Control_c, 11, 1, 10
12, 17542, Control_c, 11, 1, 8
12, 17543, Control_c, 11, 1, 6
12, 17544, Control_c, 11, 1, 4
12, 17547, Control_c, 11, 1, 1
12, 17547, Control_c, 11, 1, 0
12, 17664, Note_on_c, 11, 67, 0
12, 17664, Note_on_c, 11, 74, 100
12, 17714, Note_on_c, 11, 76, 100
12, 17726, Note_on_c, 11, 74, 0
12, 17750, Note_on_c, 11, 76, 0
12, 17766, Note_on_c, 11, 76, 100
12, 17793, Note_on_c, 11, 76, 0
12, 17815, Note_on_c, 11, 76, 100
12, 17845, Note_on_c, 11, 76, 0
12, 17865, Note_on_c, 11, 76, 100
12, 17891, Control_c, 11, 1, 2
12, 17893, Control_c, 11, 1, 5
12, 17895, Control_c, 11, 1, 7
12, 17895, Control_c, 11, 1, 10
12, 17897, Control_c, 11, 1, 12
12, 17898, Control_c, 11, 1, 14
12, 17899, Control_c, 11, 1, 17
12, 17901, Control_c, 11, 1, 19
12, 17902, Control_c, 11, 1, 21
12, 17904, Control_c, 11, 1, 23
12, 17907, Control_c, 11, 1, 25
12, 17910, Control_c, 11, 1, 27
12, 17936, Control_c, 11, 1, 25
12, 17939, Control_c, 11, 1, 22
12, 17942, Control_c, 11, 1, 20
12, 17945, Control_c, 11, 1, 19
12, 17947, Control_c, 11, 1, 17
12, 17948, Note_on_c, 11, 67, 100
12, 17949, Control_c, 11, 1, 15
12, 17951, Note_on_c, 11, 76, 0
12, 17952, Control_c, 11, 1, 12
12, 17954, Control_c, 11, 1, 9
12, 17957, Control_c, 11, 1, 6
12, 17958, Control_c, 11, 1, 4
12, 17960, Control_c, 11, 1, 1
12, 17961, Control_c, 11, 1, 0
12, 17980, Note_on_c, 11, 67, 0
12, 17999, Note_on_c, 11, 67, 100
12, 18030, Control_c, 11, 1, 3
12, 18031, Control_c, 11, 1, 5
12, 18033, Control_c, 11, 1, 8
12, 18034, Control_c, 11, 1, 10
12, 18035, Control_c, 11, 1, 13
12, 18037, Control_c, 11, 1, 15
12, 18037, Control_c, 11, 1, 17
12, 18040, Control_c, 11, 1, 19
12, 18042, Control_c, 11, 1, 22
12, 18045, Control_c, 11, 1, 24
12, 18048, Control_c, 11, 1, 26
12, 18078, Control_c, 11, 1, 24
12, 18083, Control_c, 11, 1, 22
12, 18086, Control_c, 11, 1, 20
12, 18089, Control_c, 11, 1, 18
12, 18090, Note_on_c, 11, 69, 100
12, 18091, Note_on_c, 11, 67, 0
12, 18092, Control_c, 11, 1, 16
12, 18095, Control_c, 11, 1, 13
12, 18097, Control_c, 11, 1, 12
12, 18100, Control_c, 11, 1, 9
12, 18102, Control_c, 11, 1, 6
12, 18104, Control_c, 11, 1, 4
12, 18105, Control_c, 11, 1, 2
12, 18107, Control_c, 11, 1, 0
12, 18117, Note_on_c, 11, 69, 0
12, 18138, Note_on_c, 11, 69, 100
12, 18176, Control_c, 11, 1, 2
12, 18178, Control_c, 11, 1, 5
12, 18180, Control_c, 11, 1, 7
12, 18183, Control_c, 11, 1, 9
12, 18186, Control_c, 11, 1, 11
12, 18189, Control_c, 11, 1, 13
12, 18194, Control_c, 11, 1, 15
12, 18198, Control_c, 11, 1, 17
12, 18204, Control_c, 11, 1, 19
12, 18211, Control_c, 11, 1, 20
12, 18217, Control_c, 11, 1, 22
12, 18225, Control_c, 11, 1, 24
12, 18237, Control_c, 11, 1, 26
12, 18278, Control_c, 11, 1, 24
12, 18300, Control_c, 11, 1, 22
12, 18310, Control_c, 11, 1, 20
12, 18313, Control_c, 11, 1, 19
12, 18315, Control_c, 11, 1, 17
12, 18318, Control_c, 11, 1, 15
12, 18320, Control_c, 11, 1, 12
12, 18322, Control_c, 11, 1, 10
12, 18324, Control_c, 11, 1, 8
12, 18325, Control_c, 11, 1, 6
12, 18327, Control_c, 11, 1, 3
12, 18328, Control_c, 11, 1, 1
12, 18329, Control_c, 11, 1, 0
12, 18353, Note_on_c, 11, 69, 0
12, 18376, Note_on_c, 11, 69, 100
12, 18425, Note_on_c, 11, 74, 100
12, 18430, Note_on_c, 11, 69, 0
12, 18451, Note_on_c, 11, 74, 0
12, 18473, Note_on_c, 11, 74, 100
12, 18498, Note_on_c, 11, 74, 0
12, 18523, Note_on_c, 11, 74, 100
12, 18545, Note_on_c, 11, 74, 0
12, 18570, Note_on_c, 11, 74, 100
12, 18593, Note_on_c, 11, 74, 0
12, 18619, Note_on_c, 11, 74, 100
12, 18713, Note_on_c, 11, 74, 0
12, 18714, Note_on_c, 11, 65, 100
12, 18812, Note_on_c, 11, 65, 0
12, 18814, Note_on_c, 11, 64, 100
12, 18910, Note_on_c, 11, 64, 0
12, 18917, Note_on_c, 11, 77, 100
12, 19008, Note_on_c, 11, 76, 100
12, 19020, Note_on_c, 11, 77, 0
12, 19110, Note_on_c, 11, 74, 100
12, 19120, Note_on_c, 11, 76, 0
12, 19149, Control_c, 11, 1, 1
12, 19150, Control_c, 11, 1, 3
12, 19152, Control_c, 11, 1, 6
12, 19154, Control_c, 11, 1, 8
12, 19156, Control_c, 11, 1, 11
12, 19159, Control_c, 11, 1, 13
12, 19161, Control_c, 11, 1, 15
12, 19163, Control_c, 11, 1, 17
12, 19166, Control_c, 11, 1, 19
12, 19169, Control_c, 11, 1, 20
12, 19173, Control_c, 11, 1, 22
12, 19176, Control_c, 11, 1, 24
12, 19180, Control_c, 11, 1, 26
12, 19188, Control_c, 11, 1, 28
12, 19220, Control_c, 11, 1, 26
12, 19225, Control_c, 11, 1, 24
12, 19229, Control_c, 11, 1, 22
12, 19233, Control_c, 11, 1, 20
12, 19236, Control_c, 11, 1, 19
12, 19239, Control_c, 11, 1, 17
12, 19244, Control_c, 11, 1, 14
12, 19247, Control_c, 11, 1, 12
12, 19249, Control_c, 11, 1, 10
12, 19251, Control_c, 11, 1, 7
12, 19254, Control_c, 11, 1, 5
12, 19254, Note_on_c, 11, 72, 100
12, 19255, Control_c, 11, 1, 3
12, 19257, Control_c, 11, 1, 1
12, 19258, Control_c, 11, 1, 0
12, 19267, Note_on_c, 11, 74, 0
12, 19283, Note_on_c, 11, 72, 0
12, 19298, Note_on_c, 11, 72, 100
12, 19330, Note_on_c, 11, 72, 0
12, 19343, Note_on_c, 11, 72, 100
12, 19393, Note_on_c, 11, 71, 100
12, 19395, Note_on_c, 11, 72, 0
12, 19484, Note_on_c, 11, 72, 100
12, 19493, Note_on_c, 11, 71, 0
12, 19535, Note_on_c, 11, 76, 100
12, 19542, Note_on_c, 11, 72, 0
12, 19564, Control_c, 11, 1, 3
12, 19565, Control_c, 11, 1, 5
12, 19567, Control_c, 11, 1, 6
12, 19568, Control_c, 11, 1, 8
12, 19569, Control_c, 11, 1, 10
12, 19570, Control_c, 11, 1, 12
12, 19573, Control_c, 11, 1, 15
12, 19575, Control_c, 11, 1, 17
12, 19578, Control_c, 11, 1, 19
12, 19581, Control_c, 11, 1, 20
12, 19584, Control_c, 11, 1, 22
12, 19596, Control_c, 11, 1, 24
12, 19685, Note_on_c, 11, 74, 100
12, 19687, Note_on_c, 11, 76, 0
12, 19726, Control_c, 11, 1, 22
12, 19732, Control_c, 11, 1, 20
12, 19735, Control_c, 11, 1, 19
12, 19738, Control_c, 11, 1, 16
12, 19741, Control_c, 11, 1, 14
12, 19743, Control_c, 11, 1, 12
12, 19745, Control_c, 11, 1, 9
12, 19747, Control_c, 11, 1, 6
12, 19750, Control_c, 11, 1, 3
12, 19752, Control_c, 11, 1, 0
12, 19776, Note_on_c, 11, 74, 0
12, 19776, Note_on_c, 11, 69, 100
12, 19872, Note_on_c, 11, 71, 100
12, 19879, Note_on_c, 11, 69, 0
12, 19964, Note_on_c, 11, 72, 100
12, 19968, Note_on_c, 11, 71, 0
12, 20047, Note_on_c, 11, 72, 0
12, 20063, Note_on_c, 11, 72, 100
12, 20143, Note_on_c, 11, 72, 0
12, 20158, Note_on_c, 11, 72, 100
12, 20241, Note_on_c, 11, 72, 0
12, 20256, Note_on_c, 11, 72, 100
12, 20291, Note_on_c, 11, 72, 0
12, 20308, Note_on_c, 11, 72, 100
12, 20344, Control_c, 11, 1, 2
12, 20345, Control_c, 11, 1, 4
12, 20346, Control_c, 11, 1, 6
12, 20348, Control_c, 11, 1, 8
12, 20349, Control_c, 11, 1, 10
12, 20350, Control_c, 11, 1, 12
12, 20351, Control_c, 11, 1, 13
12, 20352, Control_c, 11, 1, 16
12, 20352, Control_c, 11, 1, 19
12, 20355, Control_c, 11, 1, 20
12, 20360, Control_c, 11, 1, 23
12, 20364, Control_c, 11, 1, 25
12, 20367, Control_c, 11, 1, 27
12, 20370, Control_c, 11, 1, 29
12, 20377, Control_c, 11, 1, 31
12, 20433, Control_c, 11, 1, 29
12, 20435, Control_c, 11, 1, 27
12, 20437, Control_c, 11, 1, 25
12, 20440, Control_c, 11, 1, 22
12, 20442, Control_c, 11, 1, 20
12, 20444, Control_c, 11, 1, 17
12, 20446, Note_on_c, 11, 71, 100
12, 20446, Control_c, 11, 1, 15
12, 20448, Control_c, 11, 1, 13
12, 20448, Control_c, 11, 1, 11
12, 20450, Control_c, 11, 1, 9
12, 20452, Control_c, 11, 1, 7
12, 20452, Control_c, 11, 1, 5
12, 20454, Control_c, 11, 1, 3
12, 20456, Note_on_c, 11, 72, 0
12, 20456, Control_c, 11, 1, 1
12, 20456, Control_c, 11, 1, 0
12, 20541, Note_on_c, 11, 69, 100
12, 20552, Note_on_c, 11, 71, 0
12, 20638, Note_on_c, 11, 71, 100
12, 20648, Note_on_c, 11, 69, 0
12, 20735, Note_on_c, 11, 72, 100
12, 20737, Note_on_c, 11, 71, 0
12, 21063, Control_c, 11, 1, 1
12, 21071, Control_c, 11, 1, 3
12, 21076, Control_c, 11, 1, 5
12, 21085, Control_c, 11, 1, 7
12, 21091, Control_c, 11, 1, 9
12, 21096, Control_c, 11, 1, 11
12, 21101, Control_c, 11, 1, 13
12, 21106, Control_c, 11, 1, 15
12, 21111, Control_c, 11, 1, 17
12, 21116, Control_c, 11, 1, 19
12, 21120, Control_c, 11, 1, 20
12, 21126, Control_c, 11, 1, 22
12, 21130, Control_c, 11, 1, 24
12, 21136, Control_c, 11, 1, 26
12, 21142, Control_c, 11, 1, 28
12, 21148, Control_c, 11, 1, 30
12, 21153, Control_c, 11, 1, 32
12, 21161, Control_c, 11, 1, 34
12, 21165, Control_c, 11, 1, 36
12, 21176, Control_c, 11, 1, 38
12, 21185, Control_c, 11, 1, 40
12, 21197, Control_c, 11, 1, 41
12, 21205, Control_c, 11, 1, 43
12, 21213, Control_c, 11, 1, 45
12, 21233, Control_c, 11, 1, 47
12, 21245, Control_c, 11, 1, 49
12, 21259, Control_c, 11, 1, 51
12, 21275, Control_c, 11, 1, 53
12, 21294, Control_c, 11, 1, 55
12, 21317, Control_c, 11, 1, 53
12, 21322, Control_c, 11, 1, 51
12, 21324, Control_c, 11, 1, 49
12, 21326, Control_c, 11, 1, 47
12, 21328, Note_on_c, 11, 72, 0
12, 21328, Control_c, 11, 1, 45
12, 21331, Control_c, 11, 1, 42
12, 21333, Control_c, 11, 1, 40
12, 21335, Control_c, 11, 1, 37
12, 21338, Control_c, 11, 1, 34
12, 21340, Control_c, 11, 1, 32
12, 21341, Control_c, 11, 1, 30
12, 21343, Control_c, 11, 1, 27
12, 21344, Control_c, 11, 1, 26
12, 21345, Control_c, 11, 1, 24
12, 21347, Control_c, 11, 1, 22
12, 21349, Control_c, 11, 1, 19
12, 21350, Control_c, 11, 1, 17
12, 21351, Control_c, 11, 1, 15
12, 21353, Control_c, 11, 1, 13
12, 21354, Control_c, 11, 1, 11
12, 21355, Control_c, 11, 1, 9
12, 21357, Control_c, 11, 1, 7
12, 21357, Control_c, 11, 1, 5
12, 21359, Control_c, 11, 1, 3
12, 21360, Control_c, 11, 1, 1
12, 21361, Control_c, 11, 1, 0
12, 21407, Note_on_c, 11, 64, 100
12, 21452, Note_on_c, 11, 65, 100
12, 21460, Note_on_c, 11, 64, 0
12, 21503, Note_on_c, 11, 67, 100
12, 21509, Note_on_c, 11, 65, 0
12, 21524, Control_c, 11, 1, 2
12, 21525, Control_c, 11, 1, 5
12, 21526, Control_c, 11, 1, 8
12, 21528, Control_c, 11, 1, 10
12, 21529, Control_c, 11, 1, 13
12, 21530, Control_c, 11, 1, 16
12, 21531, Control_c, 11, 1, 19
12, 21533, Control_c, 11, 1, 20
12, 21534, Control_c, 11, 1, 22
12, 21535, Control_c, 11, 1, 24
12, 21536, Control_c, 11, 1, 26
12, 21537, Control_c, 11, 1, 28
12, 21539, Control_c, 11, 1, 31
12, 21543, Control_c, 11, 1, 33
12, 21546, Control_c, 11, 1, 34
12, 21549, Control_c, 11, 1, 36
12, 21555, Control_c, 11, 1, 38
12, 21580, Control_c, 11, 1, 36
12, 21584, Control_c, 11, 1, 34
12, 21587, Control_c, 11, 1, 32
12, 21588, Control_c, 11, 1, 29
12, 21590, Control_c, 11, 1, 27
12, 21591, Control_c, 11, 1, 26
12, 21592, Control_c, 11, 1, 24
12, 21593, Control_c, 11, 1, 22
12, 21594, Control_c, 11, 1, 20
12, 21596, Control_c, 11, 1, 18
12, 21596, Note_on_c, 11, 64, 100
12, 21597, Note_on_c, 11, 67, 0
12, 21597, Control_c, 11, 1, 15
12, 21599, Control_c, 11, 1, 12
12, 21600, Control_c, 11, 1, 10
12, 21601, Control_c, 11, 1, 7
12, 21602, Control_c, 11, 1, 4
12, 21604, Control_c, 11, 1, 1
12, 21605, Control_c, 11, 1, 0
12, 21646, Note_on_c, 11, 64, 0
12, 21647, Note_on_c, 11, 67, 100
12, 21786, Note_on_c, 11, 64, 100
12, 21793, Note_on_c, 11, 67, 0
12, 21836, Note_on_c, 11, 64, 0
12, 21841, Note_on_c, 11, 67, 100
12, 21922, Control_c, 11, 1, 3
12, 21923, Control_c, 11, 1, 5
12, 21925, Control_c, 11, 1, 7
12, 21926, Control_c, 11, 1, 10
12, 21927, Control_c, 11, 1, 12
12, 21929, Control_c, 11, 1, 13
12, 21929, Control_c, 11, 1, 15
12, 21931, Control_c, 11, 1, 17
12, 21932, Control_c, 11, 1, 19
12, 21933, Control_c, 11, 1, 21
12, 21935, Control_c, 11, 1, 24
12, 21936, Control_c, 11, 1, 26
12, 21938, Control_c, 11, 1, 27
12, 21941, Control_c, 11, 1, 29
12, 21944, Control_c, 11, 1, 31
12, 21948, Control_c, 11, 1, 33
12, 21957, Control_c, 11, 1, 35
12, 21966, Control_c, 11, 1, 33
12, 21969, Control_c, 11, 1, 31
12, 21971, Control_c, 11, 1, 29
12, 21972, Note_on_c, 11, 67, 0
12, 21973, Control_c, 11, 1, 27
12, 21976, Control_c, 11, 1, 25
12, 21978, Control_c, 11, 1, 22
12, 21980, Control_c, 11, 1, 20
12, 21981, Control_c, 11, 1, 18
12, 21983, Note_on_c, 11, 64, 100
12, 21983, Control_c, 11, 1, 16
12, 21985, Control_c, 11, 1, 13
12, 21986, Control_c, 11, 1, 12
12, 21987, Control_c, 11, 1, 10
12, 21989, Control_c, 11, 1, 8
12, 21989, Control_c, 11, 1, 6
12, 21991, Control_c, 11, 1, 4
12, 21992, Control_c, 11, 1, 2
12, 21993, Control_c, 11, 1, 0
12, 22033, Note_on_c, 11, 67, 100
12, 22040, Note_on_c, 11, 64, 0
12, 22063, Control_c, 11, 1, 3
12, 22065, Control_c, 11, 1, 5
12, 22065, Control_c, 11, 1, 7
12, 22067, Control_c, 11, 1, 10
12, 22068, Control_c, 11, 1, 12
12, 22069, Control_c, 11, 1, 13
12, 22071, Control_c, 11, 1, 16
12, 22074, Control_c, 11, 1, 18
12, 22077, Control_c, 11, 1, 20
12, 22079, Control_c, 11, 1, 22
12, 22084, Control_c, 11, 1, 24
12, 22089, Control_c, 11, 1, 26
12, 22108, Control_c, 11, 1, 24
12, 22112, Control_c, 11, 1, 22
12, 22114, Control_c, 11, 1, 20
12, 22116, Control_c, 11, 1, 18
12, 22119, Control_c, 11, 1, 15
12, 22121, Control_c, 11, 1, 13
12, 22122, Note_on_c, 11, 67, 0
12, 22122, Control_c, 11, 1, 11
12, 22123, Control_c, 11, 1, 9
12, 22125, Control_c, 11, 1, 7
12, 22126, Note_on_c, 11, 74, 100
12, 22126, Control_c, 11, 1, 5
12, 22128, Control_c, 11, 1, 3
12, 22129, Control_c, 11, 1, 0
12, 22223, Note_on_c, 11, 72, 100
12, 22229, Note_on_c, 11, 74, 0
12, 22261, Control_c, 11, 1, 3
12, 22262, Control_c, 11, 1, 6
12, 22263, Control_c, 11, 1, 8
12, 22264, Control_c, 11, 1, 11
12, 22265, Control_c, 11, 1, 13
12, 22267, Control_c, 11, 1, 15
12, 22268, Control_c, 11, 1, 17
12, 22269, Control_c, 11, 1, 19
12, 22270, Control_c, 11, 1, 21
12, 22271, Control_c, 11, 1, 23
12, 22272, Control_c, 11, 1, 26
12, 22274, Control_c, 11, 1, 28
12, 22280, Control_c, 11, 1, 30
12, 22283, Control_c, 11, 1, 32
12, 22289, Control_c, 11, 1, 34
12, 22320, Control_c, 11, 1, 32
12, 22322, Note_on_c, 11, 72, 0
12, 22324, Control_c, 11, 1, 30
12, 22324, Note_on_c, 11, 64, 100
12, 22326, Control_c, 11, 1, 27
12, 22328, Control_c, 11, 1, 25
12, 22330, Control_c, 11, 1, 22
12, 22331, Control_c, 11, 1, 20
12, 22333, Control_c, 11, 1, 19
12, 22334, Control_c, 11, 1, 17
12, 22335, Control_c, 11, 1, 15
12, 22337, Control_c, 11, 1, 13
12, 22338, Control_c, 11, 1, 11
12, 22339, Control_c, 11, 1, 9
12, 22340, Control_c, 11, 1, 7
12, 22341, Control_c, 11, 1, 5
12, 22343, Control_c, 11, 1, 3
12, 22344, Control_c, 11, 1, 1
12, 22346, Control_c, 11, 1, 0
12, 22432, Control_c, 11, 1, 1
12, 22435, Control_c, 11, 1, 3
12, 22440, Control_c, 11, 1, 5
12, 22444, Control_c, 11, 1, 7
12, 22447, Control_c, 11, 1, 9
12, 22451, Control_c, 11, 1, 11
12, 22456, Control_c, 11, 1, 13
12, 22460, Control_c, 11, 1, 15
12, 22465, Control_c, 11, 1, 17
12, 22472, Control_c, 11, 1, 19
12, 22476, Control_c, 11, 1, 20
12, 22479, Control_c, 11, 1, 22
12, 22484, Control_c, 11, 1, 24
12, 22490, Control_c, 11, 1, 26
12, 22496, Control_c, 11, 1, 28
12, 22503, Control_c, 11, 1, 30
12, 22519, Control_c, 11, 1, 32
12, 22560, Control_c, 11, 1, 30
12, 22563, Control_c, 11, 1, 27
12, 22565, Control_c, 11, 1, 25
12, 22568, Control_c, 11, 1, 22
12, 22570, Control_c, 11, 1, 20
12, 22571, Note_on_c, 11, 64, 0
12, 22573, Control_c, 11, 1, 18
12, 22574, Control_c, 11, 1, 16
12, 22576, Control_c, 11, 1, 13
12, 22577, Control_c, 11, 1, 12
12, 22578, Control_c, 11, 1, 10
12, 22580, Control_c, 11, 1, 8
12, 22581, Control_c, 11, 1, 6
12, 22582, Control_c, 11, 1, 4
12, 22583, Control_c, 11, 1, 2
12, 22584, Control_c, 11, 1, 0
12, 22596, Note_on_c, 11, 64, 100
12, 22642, Note_on_c, 11, 64, 0
12, 22646, Note_on_c, 11, 71, 100
12, 22745, Note_on_c, 11, 72, 100
12, 22750, Note_on_c, 11, 71, 0
12, 22795, Note_on_c, 11, 71, 100
12, 22802, Note_on_c, 11, 72, 0
12, 22843, Control_c, 11, 1, 1
12, 22846, Control_c, 11, 1, 4
12, 22847, Control_c, 11, 1, 6
12, 22848, Control_c, 11, 1, 8
12, 22852, Control_c, 11, 1, 11
12, 22854, Control_c, 11, 1, 13
12, 22856, Control_c, 11, 1, 16
12, 22859, Control_c, 11, 1, 18
12, 22860, Control_c, 11, 1, 20
12, 22862, Control_c, 11, 1, 22
12, 22866, Control_c, 11, 1, 24
12, 22870, Control_c, 11, 1, 26
12, 22875, Control_c, 11, 1, 27
12, 22900, Control_c, 11, 1, 29
12, 22932, Control_c, 11, 1, 27
12, 22937, Control_c, 11, 1, 26
12, 22939, Note_on_c, 11, 71, 0
12, 22940, Control_c, 11, 1, 24
12, 22941, Note_on_c, 11, 67, 100
12, 22943, Control_c, 11, 1, 21
12, 22945, Control_c, 11, 1, 19
12, 22947, Control_c, 11, 1, 16
12, 22948, Control_c, 11, 1, 14
12, 22950, Control_c, 11, 1, 12
12, 22951, Control_c, 11, 1, 10
12, 22952, Control_c, 11, 1, 8
12, 22953, Control_c, 11, 1, 5
12, 22954, Control_c, 11, 1, 3
12, 22956, Control_c, 11, 1, 0
12, 22994, Note_on_c, 11, 64, 100
12, 22997, Note_on_c, 11, 67, 0
12, 23026, Control_c, 11, 1, 1
12, 23027, Control_c, 11, 1, 4
12, 23029, Control_c, 11, 1, 7
12, 23029, Control_c, 11, 1, 10
12, 23031, Control_c, 11, 1, 13
12, 23032, Control_c, 11, 1, 16
12, 23033, Control_c, 11, 1, 19
12, 23035, Control_c, 11, 1, 21
12, 23036, Control_c, 11, 1, 24
12, 23037, Control_c, 11, 1, 26
12, 23038, Control_c, 11, 1, 27
12, 23040, Control_c, 11, 1, 30
12, 23040, Control_c, 11, 1, 32
12, 23044, Control_c, 11, 1, 34
12, 23048, Control_c, 11, 1, 36
12, 23055, Control_c, 11, 1, 38
12, 23099, Control_c, 11, 1, 36
12, 23104, Control_c, 11, 1, 34
12, 23107, Control_c, 11, 1, 32
12, 23110, Control_c, 11, 1, 30
12, 23112, Control_c, 11, 1, 28
12, 23115, Control_c, 11, 1, 26
12, 23117, Control_c, 11, 1, 23
12, 23119, Control_c, 11, 1, 20
12, 23121, Control_c, 11, 1, 17
12, 23123, Control_c, 11, 1, 13
12, 23124, Control_c, 11, 1, 12
12, 23126, Control_c, 11, 1, 10
12, 23128, Control_c, 11, 1, 7
12, 23129, Control_c, 11, 1, 5
12, 23130, Control_c, 11, 1, 3
12, 23131, Note_on_c, 11, 60, 100
12, 23132, Control_c, 11, 1, 1
12, 23134, Note_on_c, 11, 64, 0
12, 23134, Control_c, 11, 1, 0
12, 23161, Note_on_c, 11, 60, 0
12, 23183, Note_on_c, 11, 60, 100
12, 23365, Control_c, 11, 1, 1
12, 23374, Control_c, 11, 1, 3
12, 23380, Control_c, 11, 1, 5
12, 23386, Control_c, 11, 1, 7
12, 23391, Control_c, 11, 1, 9
12, 23396, Control_c, 11, 1, 11
12, 23402, Control_c, 11, 1, 13
12, 23408, Control_c, 11, 1, 15
12, 23416, Control_c, 11, 1, 17
12, 23424, Control_c, 11, 1, 19
12, 23431, Control_c, 11, 1, 20
12, 23437, Control_c, 11, 1, 22
12, 23444, Control_c, 11, 1, 24
12, 23454, Control_c, 11, 1, 26
12, 23463, Control_c, 11, 1, 28
12, 23471, Control_c, 11, 1, 30
12, 23482, Control_c, 11, 1, 32
12, 23497, Control_c, 11, 1, 34
12, 23510, Control_c, 11, 1, 36
12, 23540, Control_c, 11, 1, 38
12, 23607, Control_c, 11, 1, 36
12, 23611, Control_c, 11, 1, 34
12, 23614, Control_c, 11, 1, 32
12, 23616, Control_c, 11, 1, 29
12, 23617, Control_c, 11, 1, 27
12, 23622, Control_c, 11, 1, 25
12, 23624, Control_c, 11, 1, 23
12, 23624, Control_c, 11, 1, 21
12, 23626, Control_c, 11, 1, 19
12, 23627, Control_c, 11, 1, 17
12, 23628, Control_c, 11, 1, 14
12, 23630, Control_c, 11, 1, 12
12, 23630, Control_c, 11, 1, 9
12, 23632, Control_c, 11, 1, 7
12, 23633, Control_c, 11, 1, 5
12, 23634, Control_c, 11, 1, 2
12, 23636, Control_c, 11, 1, 0
12, 23717, Note_on_c, 11, 60, 0
12, 23755, Note_on_c, 11, 60, 100
12, 23801, Note_on_c, 11, 65, 100
12, 23804, Note_on_c, 11, 60, 0
12, 23898, Note_on_c, 11, 67, 100
12, 23904, Note_on_c, 11, 65, 0
12, 23949, Note_on_c, 11, 69, 100
12, 23956, Note_on_c, 11, 67, 0
12, 24044, Note_on_c, 11, 67, 100
12, 24057, Note_on_c, 11, 69, 0
12, 24144, Note_on_c, 11, 62, 100
12, 24145, Note_on_c, 11, 67, 0
12, 24229, Control_c, 11, 1, 1
12, 24232, Control_c, 11, 1, 3
12, 24238, Control_c, 11, 1, 5
12, 24244, Control_c, 11, 1, 7
12, 24252, Control_c, 11, 1, 9
12, 24261, Control_c, 11, 1, 11
12, 24269, Control_c, 11, 1, 13
12, 24275, Control_c, 11, 1, 15
12, 24282, Control_c, 11, 1, 17
12, 24289, Control_c, 11, 1, 19
12, 24295, Control_c, 11, 1, 20
12, 24302, Control_c, 11, 1, 22
12, 24310, Control_c, 11, 1, 24
12, 24314, Control_c, 11, 1, 26
12, 24322, Control_c, 11, 1, 28
12, 24331, Control_c, 11, 1, 30
12, 24340, Control_c, 11, 1, 32
12, 24351, Control_c, 11, 1, 34
12, 24361, Control_c, 11, 1, 36
12, 24372, Control_c, 11, 1, 38
12, 24381, Control_c, 11, 1, 40
12, 24397, Control_c, 11, 1, 41
12, 24438, Control_c, 11, 1, 40
12, 24443, Control_c, 11, 1, 38
12, 24446, Control_c, 11, 1, 36
12, 24449, Control_c, 11, 1, 34
12, 24452, Control_c, 11, 1, 32
12, 24454, Control_c, 11, 1, 30
12, 24456, Control_c, 11, 1, 27
12, 24458, Control_c, 11, 1, 25
12, 24461, Control_c, 11, 1, 22
12, 24462, Control_c, 11, 1, 20
12, 24465, Control_c, 11, 1, 17
12, 24465, Control_c, 11, 1, 15
12, 24467, Control_c, 11, 1, 13
12, 24468, Control_c, 11, 1, 12
12, 24469, Control_c, 11, 1, 10
12, 24471, Control_c, 11, 1, 7
12, 24471, Control_c, 11, 1, 5
12, 24473, Control_c, 11, 1, 3
12, 24474, Control_c, 11, 1, 1
12, 24475, Control_c, 11, 1, 0
12, 24480, Note_on_c, 11, 64, 100
12, 24487, Note_on_c, 11, 62, 0
12, 24525, Note_on_c, 11, 65, 100
12, 24535, Note_on_c, 11, 64, 0
12, 24567, Note_on_c, 11, 65, 0
12, 24573, Note_on_c, 11, 67, 100
12, 24597, Control_c, 11, 1, 2
12, 24597, Control_c, 11, 1, 5
12, 24599, Control_c, 11, 1, 7
12, 24601, Control_c, 11, 1, 9
12, 24601, Control_c, 11, 1, 12
12, 24603, Control_c, 11, 1, 13
12, 24604, Control_c, 11, 1, 15
12, 24605, Control_c, 11, 1, 17
12, 24607, Control_c, 11, 1, 19
12, 24608, Control_c, 11, 1, 22
12, 24610, Control_c, 11, 1, 24
12, 24614, Control_c, 11, 1, 26
12, 24618, Control_c, 11, 1, 27
12, 24623, Control_c, 11, 1, 29
12, 24629, Control_c, 11, 1, 31
12, 24642, Control_c, 11, 1, 33
12, 24658, Control_c, 11, 1, 31
12, 24660, Control_c, 11, 1, 29
12, 24662, Control_c, 11, 1, 27
12, 24664, Control_c, 11, 1, 24
12, 24667, Control_c, 11, 1, 22
12, 24669, Note_on_c, 11, 67, 0
12, 24669, Control_c, 11, 1, 19
12, 24670, Control_c, 11, 1, 17
12, 24671, Note_on_c, 11, 64, 100
12, 24672, Control_c, 11, 1, 14
12, 24674, Control_c, 11, 1, 11
12, 24675, Control_c, 11, 1, 8
12, 24677, Control_c, 11, 1, 6
12, 24678, Control_c, 11, 1, 3
12, 24679, Control_c, 11, 1, 1
12, 24680, Control_c, 11, 1, 0
12, 24721, Note_on_c, 11, 67, 100
12, 24723, Note_on_c, 11, 64, 0
12, 24756, Control_c, 11, 1, 2
12, 24757, Control_c, 11, 1, 5
12, 24759, Control_c, 11, 1, 7
12, 24760, Control_c, 11, 1, 10
12, 24761, Control_c, 11, 1, 13
12, 24762, Control_c, 11, 1, 15
12, 24763, Control_c, 11, 1, 18
12, 24765, Control_c, 11, 1, 20
12, 24766, Control_c, 11, 1, 22
12, 24768, Control_c, 11, 1, 24
12, 24769, Control_c, 11, 1, 26
12, 24771, Control_c, 11, 1, 29
12, 24774, Control_c, 11, 1, 31
12, 24777, Control_c, 11, 1, 33
12, 24780, Control_c, 11, 1, 34
12, 24785, Control_c, 11, 1, 36
12, 24794, Control_c, 11, 1, 38
12, 24835, Control_c, 11, 1, 36
12, 24839, Control_c, 11, 1, 34
12, 24842, Control_c, 11, 1, 33
12, 24845, Control_c, 11, 1, 31
12, 24847, Control_c, 11, 1, 28
12, 24850, Control_c, 11, 1, 25
12, 24851, Control_c, 11, 1, 23
12, 24852, Control_c, 11, 1, 21
12, 24854, Control_c, 11, 1, 19
12, 24854, Control_c, 11, 1, 17
12, 24856, Control_c, 11, 1, 14
12, 24857, Control_c, 11, 1, 12
12, 24858, Control_c, 11, 1, 9
12, 24859, Note_on_c, 11, 64, 100
12, 24860, Control_c, 11, 1, 6
12, 24861, Control_c, 11, 1, 4
12, 24862, Note_on_c, 11, 67, 0
12, 24863, Control_c, 11, 1, 1
12, 24863, Control_c, 11, 1, 0
12, 24907, Note_on_c, 11, 64, 0
12, 24907, Note_on_c, 11, 67, 100
12, 24927, Control_c, 11, 1, 2
12, 24929, Control_c, 11, 1, 5
12, 24930, Control_c, 11, 1, 7
12, 24931, Control_c, 11, 1, 9
12, 24933, Control_c, 11, 1, 12
12, 24934, Control_c, 11, 1, 14
12, 24936, Control_c, 11, 1, 16
12, 24936, Control_c, 11, 1, 18
12, 24938, Control_c, 11, 1, 20
12, 24939, Control_c, 11, 1, 22
12, 24941, Control_c, 11, 1, 24
12, 24943, Control_c, 11, 1, 27
12, 24947, Control_c, 11, 1, 29
12, 24950, Control_c, 11, 1, 31
12, 24953, Control_c, 11, 1, 33
12, 24961, Control_c, 11, 1, 34
12, 25012, Control_c, 11, 1, 33
12, 25015, Control_c, 11, 1, 31
12, 25018, Control_c, 11, 1, 28
12, 25021, Control_c, 11, 1, 26
12, 25023, Control_c, 11, 1, 24
12, 25024, Control_c, 11, 1, 22
12, 25026, Control_c, 11, 1, 20
12, 25027, Control_c, 11, 1, 18
12, 25028, Control_c, 11, 1, 16
12, 25029, Control_c, 11, 1, 13
12, 25031, Control_c, 11, 1, 12
12, 25032, Control_c, 11, 1, 9
12, 25033, Control_c, 11, 1, 6
12, 25034, Control_c, 11, 1, 4
12, 25035, Control_c, 11, 1, 1
12, 25037, Control_c, 11, 1, 0
12, 25043, Note_on_c, 11, 64, 100
12, 25050, Note_on_c, 11, 67, 0
12, 25094, Note_on_c, 11, 67, 100
12, 25103, Note_on_c, 11, 64, 0
12, 25192, Note_on_c, 11, 74, 100
12, 25194, Note_on_c, 11, 67, 0
12, 25289, Note_on_c, 11, 72, 100
12, 25298, Note_on_c, 11, 74, 0
12, 25426, Note_on_c, 11, 64, 100
12, 25428, Note_on_c, 11, 72, 0
12, 25541, Control_c, 11, 1, 1
12, 25547, Control_c, 11, 1, 3
12, 25555, Control_c, 11, 1, 5
12, 25562, Control_c, 11, 1, 7
12, 25566, Control_c, 11, 1, 9
12, 25571, Control_c, 11, 1, 11
12, 25577, Control_c, 11, 1, 13
12, 25581, Control_c, 11, 1, 15
12, 25587, Control_c, 11, 1, 17
12, 25591, Control_c, 11, 1, 19
12, 25597, Control_c, 11, 1, 20
12, 25602, Control_c, 11, 1, 22
12, 25608, Control_c, 11, 1, 24
12, 25613, Control_c, 11, 1, 26
12, 25620, Control_c, 11, 1, 28
12, 25625, Control_c, 11, 1, 30
12, 25635, Control_c, 11, 1, 32
12, 25650, Control_c, 11, 1, 30
12, 25652, Note_on_c, 11, 64, 0
12, 25654, Control_c, 11, 1, 28
12, 25657, Control_c, 11, 1, 26
12, 25660, Control_c, 11, 1, 24
12, 25663, Control_c, 11, 1, 22
12, 25665, Control_c, 11, 1, 19
12, 25668, Control_c, 11, 1, 17
12, 25669, Note_on_c, 11, 64, 100
12, 25671, Control_c, 11, 1, 15
12, 25673, Control_c, 11, 1, 12
12, 25676, Control_c, 11, 1, 10
12, 25677, Control_c, 11, 1, 8
12, 25679, Control_c, 11, 1, 5
12, 25682, Control_c, 11, 1, 3
12, 25684, Control_c, 11, 1, 0
12, 25719, Note_on_c, 11, 64, 0
12, 25720, Note_on_c, 11, 71, 100
12, 25815, Note_on_c, 11, 72, 100
12, 25822, Note_on_c, 11, 71, 0
12, 25868, Note_on_c, 11, 71, 100
12, 25877, Note_on_c, 11, 72, 0
12, 25962, Note_on_c, 11, 71, 0
12, 25963, Note_on_c, 11, 67, 100
12, 26008, Control_c, 11, 1, 2
12, 26010, Control_c, 11, 1, 5
12, 26012, Control_c, 11, 1, 7
12, 26014, Control_c, 11, 1, 10
12, 26016, Control_c, 11, 1, 12
12, 26019, Control_c, 11, 1, 13
12, 26021, Control_c, 11, 1, 15
12, 26024, Control_c, 11, 1, 17
12, 26027, Control_c, 11, 1, 19
12, 26029, Control_c, 11, 1, 21
12, 26032, Control_c, 11, 1, 23
12, 26035, Control_c, 11, 1, 25
12, 26037, Control_c, 11, 1, 27
12, 26040, Control_c, 11, 1, 29
12, 26044, Control_c, 11, 1, 31
12, 26047, Control_c, 11, 1, 33
12, 26053, Control_c, 11, 1, 34
12, 26062, Control_c, 11, 1, 36
12, 26087, Control_c, 11, 1, 34
12, 26090, Control_c, 11, 1, 32
12, 26094, Control_c, 11, 1, 29
12, 26096, Control_c, 11, 1, 27
12, 26098, Control_c, 11, 1, 24
12, 26100, Control_c, 11, 1, 22
12, 26102, Control_c, 11, 1, 19
12, 26104, Control_c, 11, 1, 17
12, 26105, Note_on_c, 11, 64, 100
12, 26106, Note_on_c, 11, 67, 0
12, 26106, Control_c, 11, 1, 15
12, 26107, Control_c, 11, 1, 13
12, 26109, Control_c, 11, 1, 11
12, 26109, Control_c, 11, 1, 8
12, 26110, Control_c, 11, 1, 6
12, 26112, Control_c, 11, 1, 5
12, 26112, Control_c, 11, 1, 3
12, 26113, Control_c, 11, 1, 0
12, 26204, Note_on_c, 11, 60, 100
12, 26210, Note_on_c, 11, 64, 0
12, 26238, Note_on_c, 11, 60, 0
12, 26257, Note_on_c, 11, 60, 100
12, 26511, Control_c, 11, 1, 1
12, 26516, Control_c, 11, 1, 3
12, 26523, Control_c, 11, 1, 5
12, 26530, Control_c, 11, 1, 7
12, 26541, Control_c, 11, 1, 9
12, 26550, Control_c, 11, 1, 11
12, 26561, Control_c, 11, 1, 13
12, 26567, Control_c, 11, 1, 15
12, 26574, Control_c, 11, 1, 17
12, 26586, Control_c, 11, 1, 19
12, 26598, Control_c, 11, 1, 20
12, 26607, Control_c, 11, 1, 22
12, 26615, Control_c, 11, 1, 24
12, 26624, Control_c, 11, 1, 26
12, 26637, Control_c, 11, 1, 28
12, 26650, Control_c, 11, 1, 30
12, 26666, Control_c, 11, 1, 32
12, 26679, Control_c, 11, 1, 34
12, 26691, Control_c, 11, 1, 36
12, 26700, Control_c, 11, 1, 38
12, 26708, Control_c, 11, 1, 40
12, 26726, Control_c, 11, 1, 41
12, 26748, Control_c, 11, 1, 40
12, 26753, Control_c, 11, 1, 38
12, 26757, Control_c, 11, 1, 36
12, 26760, Control_c, 11, 1, 34
12, 26763, Control_c, 11, 1, 32
12, 26766, Control_c, 11, 1, 29
12, 26768, Control_c, 11, 1, 27
12, 26770, Control_c, 11, 1, 24
12, 26772, Control_c, 11, 1, 22
12, 26773, Control_c, 11, 1, 20
12, 26776, Control_c, 11, 1, 17
12, 26777, Control_c, 11, 1, 15
12, 26778, Control_c, 11, 1, 13
12, 26779, Control_c, 11, 1, 11
12, 26780, Control_c, 11, 1, 9
12, 26782, Control_c, 11, 1, 7
12, 26783, Control_c, 11, 1, 5
12, 26784, Control_c, 11, 1, 3
12, 26785, Control_c, 11, 1, 1
12, 26786, Control_c, 11, 1, 0
12, 26795, Note_on_c, 11, 60, 0
12, 26823, Note_on_c, 11, 60, 100
12, 26873, Note_on_c, 11, 65, 100
12, 26877, Note_on_c, 11, 60, 0
12, 26969, Note_on_c, 11, 67, 100
12, 26975, Note_on_c, 11, 65, 0
12, 27021, Note_on_c, 11, 67, 0
12, 27023, Note_on_c, 11, 69, 100
12, 27121, Note_on_c, 11, 67, 100
12, 27144, Note_on_c, 11, 69, 0
12, 27215, Note_on_c, 11, 67, 0
12, 27215, Note_on_c, 11, 62, 100
12, 27278, Control_c, 11, 1, 1
12, 27282, Control_c, 11, 1, 3
12, 27288, Control_c, 11, 1, 5
12, 27294, Control_c, 11, 1, 7
12, 27306, Control_c, 11, 1, 9
12, 27315, Control_c, 11, 1, 11
12, 27324, Control_c, 11, 1, 13
12, 27332, Control_c, 11, 1, 15
12, 27340, Control_c, 11, 1, 17
12, 27351, Control_c, 11, 1, 19
12, 27357, Control_c, 11, 1, 20
12, 27364, Control_c, 11, 1, 22
12, 27372, Control_c, 11, 1, 24
12, 27380, Control_c, 11, 1, 26
12, 27389, Control_c, 11, 1, 28
12, 27405, Control_c, 11, 1, 30
12, 27436, Control_c, 11, 1, 32
12, 27503, Control_c, 11, 1, 30
12, 27508, Control_c, 11, 1, 28
12, 27513, Control_c, 11, 1, 26
12, 27517, Control_c, 11, 1, 24
12, 27521, Control_c, 11, 1, 22
12, 27524, Control_c, 11, 1, 20
12, 27526, Control_c, 11, 1, 18
12, 27528, Control_c, 11, 1, 16
12, 27531, Control_c, 11, 1, 13
12, 27532, Control_c, 11, 1, 12
12, 27534, Note_on_c, 11, 62, 0
12, 27535, Control_c, 11, 1, 10
12, 27538, Control_c, 11, 1, 7
12, 27540, Control_c, 11, 1, 5
12, 27541, Control_c, 11, 1, 2
12, 27544, Control_c, 11, 1, 0
12, 27552, Note_on_c, 11, 62, 100
12, 27611, Note_on_c, 11, 62, 0
12, 27649, Note_on_c, 11, 69, 100
12, 27730, Note_on_c, 11, 69, 0
12, 27743, Note_on_c, 11, 71, 100
12, 27787, Note_on_c, 11, 71, 0
12, 27797, Note_on_c, 11, 72, 100
12, 27879, Control_c, 11, 1, 2
12, 27880, Control_c, 11, 1, 4
12, 27881, Control_c, 11, 1, 6
12, 27883, Control_c, 11, 1, 8
12, 27884, Control_c, 11, 1, 10
12, 27885, Control_c, 11, 1, 12
12, 27886, Control_c, 11, 1, 14
12, 27887, Control_c, 11, 1, 16
12, 27889, Control_c, 11, 1, 18
12, 27891, Control_c, 11, 1, 20
12, 27893, Control_c, 11, 1, 23
12, 27895, Control_c, 11, 1, 25
12, 27898, Control_c, 11, 1, 27
12, 27902, Control_c, 11, 1, 29
12, 27906, Control_c, 11, 1, 31
12, 27931, Note_on_c, 11, 72, 0
12, 27931, Control_c, 11, 1, 29
12, 27934, Control_c, 11, 1, 27
12, 27936, Control_c, 11, 1, 25
12, 27938, Note_on_c, 11, 74, 100
12, 27939, Control_c, 11, 1, 22
12, 27941, Control_c, 11, 1, 20
12, 27944, Control_c, 11, 1, 17
12, 27946, Control_c, 11, 1, 15
12, 27949, Control_c, 11, 1, 12
12, 27949, Control_c, 11, 1, 10
12, 27951, Control_c, 11, 1, 8
12, 27953, Control_c, 11, 1, 5
12, 27954, Control_c, 11, 1, 3
12, 27955, Control_c, 11, 1, 1
12, 27958, Control_c, 11, 1, 0
12, 27989, Note_on_c, 11, 72, 100
12, 28002, Note_on_c, 11, 74, 0
12, 28024, Control_c, 11, 1, 2
12, 28025, Control_c, 11, 1, 5
12, 28026, Control_c, 11, 1, 7
12, 28027, Control_c, 11, 1, 10
12, 28028, Control_c, 11, 1, 12
12, 28030, Control_c, 11, 1, 15
12, 28031, Control_c, 11, 1, 17
12, 28031, Control_c, 11, 1, 19
12, 28032, Control_c, 11, 1, 21
12, 28033, Control_c, 11, 1, 24
12, 28040, Control_c, 11, 1, 26
12, 28043, Control_c, 11, 1, 27
12, 28047, Control_c, 11, 1, 29
12, 28053, Control_c, 11, 1, 31
12, 28067, Control_c, 11, 1, 33
12, 28109, Control_c, 11, 1, 31
12, 28113, Control_c, 11, 1, 29
12, 28115, Control_c, 11, 1, 27
12, 28117, Control_c, 11, 1, 26
12, 28120, Control_c, 11, 1, 23
12, 28121, Control_c, 11, 1, 21
12, 28121, Note_on_c, 11, 67, 100
12, 28123, Control_c, 11, 1, 19
12, 28124, Control_c, 11, 1, 17
12, 28126, Control_c, 11, 1, 15
12, 28127, Note_on_c, 11, 72, 0
12, 28128, Control_c, 11, 1, 12
12, 28130, Control_c, 11, 1, 8
12, 28132, Control_c, 11, 1, 5
12, 28135, Control_c, 11, 1, 2
12, 28136, Control_c, 11, 1, 0
12, 28151, Note_on_c, 11, 67, 0
12, 28172, Note_on_c, 11, 67, 100
12, 28204, Control_c, 11, 1, 2
12, 28206, Control_c, 11, 1, 5
12, 28208, Control_c, 11, 1, 6
12, 28211, Control_c, 11, 1, 8
12, 28213, Control_c, 11, 1, 10
12, 28216, Control_c, 11, 1, 12
12, 28220, Control_c, 11, 1, 14
12, 28223, Control_c, 11, 1, 16
12, 28228, Control_c, 11, 1, 18
12, 28234, Control_c, 11, 1, 20
12, 28240, Control_c, 11, 1, 22
12, 28246, Control_c, 11, 1, 24
12, 28255, Control_c, 11, 1, 26
12, 28264, Control_c, 11, 1, 27
12, 28278, Control_c, 11, 1, 29
12, 28312, Control_c, 11, 1, 27
12, 28316, Control_c, 11, 1, 26
12, 28319, Control_c, 11, 1, 24
12, 28321, Control_c, 11, 1, 22
12, 28323, Control_c, 11, 1, 19
12, 28325, Control_c, 11, 1, 17
12, 28328, Control_c, 11, 1, 15
12, 28328, Control_c, 11, 1, 13
12, 28330, Control_c, 11, 1, 11
12, 28331, Control_c, 11, 1, 9
12, 28332, Control_c, 11, 1, 7
12, 28334, Control_c, 11, 1, 5
12, 28335, Control_c, 11, 1, 3
12, 28336, Control_c, 11, 1, 0
12, 28338, Note_on_c, 11, 67, 0
12, 28364, Note_on_c, 11, 67, 100
12, 28411, Note_on_c, 11, 67, 0
12, 28415, Note_on_c, 11, 77, 100
12, 28510, Note_on_c, 11, 77, 0
12, 28511, Note_on_c, 11, 76, 100
12, 28559, Note_on_c, 11, 76, 0
12, 28563, Note_on_c, 11, 77, 100
12, 28704, Note_on_c, 11, 79, 100
12, 28705, Note_on_c, 11, 77, 0
12, 28796, Note_on_c, 11, 76, 100
12, 28801, Note_on_c, 11, 79, 0
12, 28891, Note_on_c, 11, 76, 0
12, 28893, Note_on_c, 11, 72, 100
12, 28920, Note_on_c, 11, 72, 0
12, 28945, Note_on_c, 11, 72, 100
12, 29013, Control_c, 11, 1, 2
12, 29015, Control_c, 11, 1, 4
12, 29018, Control_c, 11, 1, 6
12, 29022, Control_c, 11, 1, 8
12, 29028, Control_c, 11, 1, 10
12, 29035, Control_c, 11, 1, 12
12, 29041, Control_c, 11, 1, 13
12, 29046, Control_c, 11, 1, 15
12, 29056, Control_c, 11, 1, 17
12, 29062, Control_c, 11, 1, 19
12, 29067, Control_c, 11, 1, 21
12, 29074, Control_c, 11, 1, 23
12, 29080, Control_c, 11, 1, 25
12, 29086, Control_c, 11, 1, 27
12, 29093, Control_c, 11, 1, 29
12, 29103, Control_c, 11, 1, 31
12, 29122, Control_c, 11, 1, 33
12, 29162, Control_c, 11, 1, 31
12, 29165, Control_c, 11, 1, 29
12, 29169, Control_c, 11, 1, 26
12, 29171, Control_c, 11, 1, 24
12, 29173, Control_c, 11, 1, 20
12, 29174, Control_c, 11, 1, 19
12, 29176, Control_c, 11, 1, 17
12, 29176, Control_c, 11, 1, 15
12, 29178, Control_c, 11, 1, 13
12, 29179, Control_c, 11, 1, 10
12, 29180, Control_c, 11, 1, 8
12, 29181, Control_c, 11, 1, 5
12, 29182, Note_on_c, 11, 72, 0
12, 29183, Control_c, 11, 1, 3
12, 29183, Note_on_c, 11, 69, 100
12, 29183, Control_c, 11, 1, 0
12, 29279, Note_on_c, 11, 71, 100
12, 29283, Note_on_c, 11, 69, 0
12, 29331, Note_on_c, 11, 72, 100
12, 29336, Note_on_c, 11, 71, 0
12, 29457, Control_c, 11, 1, 1
12, 29460, Control_c, 11, 1, 3
12, 29463, Control_c, 11, 1, 5
12, 29465, Control_c, 11, 1, 7
12, 29469, Control_c, 11, 1, 9
12, 29471, Control_c, 11, 1, 11
12, 29474, Control_c, 11, 1, 13
12, 29477, Control_c, 11, 1, 15
12, 29480, Control_c, 11, 1, 17
12, 29483, Control_c, 11, 1, 19
12, 29488, Control_c, 11, 1, 20
12, 29495, Control_c, 11, 1, 22
12, 29500, Control_c, 11, 1, 24
12, 29508, Control_c, 11, 1, 26
12, 29520, Control_c, 11, 1, 28
12, 29549, Control_c, 11, 1, 26
12, 29551, Control_c, 11, 1, 23
12, 29553, Control_c, 11, 1, 20
12, 29555, Control_c, 11, 1, 19
12, 29557, Control_c, 11, 1, 15
12, 29558, Control_c, 11, 1, 13
12, 29559, Control_c, 11, 1, 12
12, 29560, Note_on_c, 11, 72, 0
12, 29561, Control_c, 11, 1, 9
12, 29561, Control_c, 11, 1, 6
12, 29563, Control_c, 11, 1, 4
12, 29565, Note_on_c, 11, 67, 100
12, 29565, Control_c, 11, 1, 1
12, 29566, Control_c, 11, 1, 0
12, 29660, Note_on_c, 11, 71, 100
12, 29664, Note_on_c, 11, 67, 0
12, 29711, Note_on_c, 11, 72, 100
12, 29713, Note_on_c, 11, 71, 0
12, 29777, Control_c, 11, 1, 1
12, 29780, Control_c, 11, 1, 3
12, 29785, Control_c, 11, 1, 5
12, 29791, Control_c, 11, 1, 7
12, 29798, Control_c, 11, 1, 9
12, 29805, Control_c, 11, 1, 11
12, 29808, Control_c, 11, 1, 13
12, 29814, Control_c, 11, 1, 15
12, 29822, Control_c, 11, 1, 17
12, 29827, Control_c, 11, 1, 19
12, 29834, Control_c, 11, 1, 20
12, 29840, Control_c, 11, 1, 22
12, 29846, Control_c, 11, 1, 24
12, 29852, Control_c, 11, 1, 26
12, 29858, Control_c, 11, 1, 28
12, 29863, Control_c, 11, 1, 30
12, 29869, Control_c, 11, 1, 32
12, 29878, Control_c, 11, 1, 34
12, 29889, Control_c, 11, 1, 36
12, 29902, Control_c, 11, 1, 38
12, 29927, Control_c, 11, 1, 36
12, 29933, Control_c, 11, 1, 34
12, 29937, Control_c, 11, 1, 32
12, 29939, Control_c, 11, 1, 29
12, 29941, Control_c, 11, 1, 27
12, 29943, Control_c, 11, 1, 24
12, 29945, Control_c, 11, 1, 22
12, 29946, Note_on_c, 11, 72, 0
12, 29947, Control_c, 11, 1, 20
12, 29948, Control_c, 11, 1, 18
12, 29949, Note_on_c, 11, 69, 100
12, 29950, Control_c, 11, 1, 16
12, 29952, Control_c, 11, 1, 13
12, 29952, Control_c, 11, 1, 12
12, 29952, Control_c, 11, 1, 10
12, 29952, Control_c, 11, 1, 8
12, 29954, Control_c, 11, 1, 6
12, 29957, Control_c, 11, 1, 3
12, 29960, Control_c, 11, 1, 1
12, 29963, Control_c, 11, 1, 0
12, 30042, Note_on_c, 11, 71, 100
12, 30047, Note_on_c, 11, 69, 0
12, 30096, Note_on_c, 11, 72, 100
12, 30102, Note_on_c, 11, 71, 0
12, 30124, Control_c, 11, 1, 3
12, 30125, Control_c, 11, 1, 5
12, 30127, Control_c, 11, 1, 7
12, 30128, Control_c, 11, 1, 10
12, 30129, Control_c, 11, 1, 12
12, 30131, Control_c, 11, 1, 14
12, 30131, Control_c, 11, 1, 16
12, 30133, Control_c, 11, 1, 18
12, 30135, Control_c, 11, 1, 20
12, 30137, Control_c, 11, 1, 22
12, 30138, Control_c, 11, 1, 25
12, 30142, Control_c, 11, 1, 27
12, 30144, Control_c, 11, 1, 29
12, 30149, Control_c, 11, 1, 31
12, 30159, Control_c, 11, 1, 33
12, 30185, Control_c, 11, 1, 31
12, 30187, Control_c, 11, 1, 29
12, 30190, Control_c, 11, 1, 27
12, 30192, Control_c, 11, 1, 24
12, 30193, Note_on_c, 11, 72, 0
12, 30194, Note_on_c, 11, 69, 100
12, 30195, Control_c, 11, 1, 22
12, 30197, Control_c, 11, 1, 19
12, 30199, Control_c, 11, 1, 17
12, 30200, Control_c, 11, 1, 15
12, 30201, Control_c, 11, 1, 13
12, 30202, Control_c, 11, 1, 12
12, 30203, Control_c, 11, 1, 10
12, 30205, Control_c, 11, 1, 8
12, 30207, Control_c, 11, 1, 5
12, 30208, Control_c, 11, 1, 3
12, 30210, Control_c, 11, 1, 0
12, 30329, Note_on_c, 11, 76, 100
12, 30330, Note_on_c, 11, 69, 0
12, 30433, Note_on_c, 11, 74, 100
12, 30437, Note_on_c, 11, 76, 0
12, 30529, Note_on_c, 11, 72, 100
12, 30538, Note_on_c, 11, 74, 0
12, 30628, Note_on_c, 11, 74, 100
12, 30640, Note_on_c, 11, 72, 0
12, 30946, Control_c, 11, 1, 1
12, 30957, Control_c, 11, 1, 3
12, 30971, Control_c, 11, 1, 5
12, 30981, Control_c, 11, 1, 7
12, 30992, Control_c, 11, 1, 9
12, 31006, Control_c, 11, 1, 11
12, 31016, Control_c, 11, 1, 13
12, 31027, Control_c, 11, 1, 15
12, 31045, Control_c, 11, 1, 17
12, 31066, Control_c, 11, 1, 19
12, 31079, Control_c, 11, 1, 20
12, 31100, Control_c, 11, 1, 22
12, 31117, Control_c, 11, 1, 24
12, 31139, Control_c, 11, 1, 26
12, 31159, Control_c, 11, 1, 28
12, 31186, Control_c, 11, 1, 30
12, 31214, Control_c, 11, 1, 32
12, 31243, Control_c, 11, 1, 34
12, 31272, Control_c, 11, 1, 32
12, 31278, Control_c, 11, 1, 30
12, 31284, Control_c, 11, 1, 27
12, 31288, Control_c, 11, 1, 26
12, 31293, Control_c, 11, 1, 24
12, 31299, Control_c, 11, 1, 22
12, 31303, Control_c, 11, 1, 20
12, 31310, Control_c, 11, 1, 18
12, 31314, Control_c, 11, 1, 16
12, 31319, Control_c, 11, 1, 14
12, 31323, Control_c, 11, 1, 12
12, 31328, Control_c, 11, 1, 9
12, 31332, Control_c, 11, 1, 6
12, 31337, Control_c, 11, 1, 4
12, 31338, Control_c, 11, 1, 2
12, 31341, Control_c, 11, 1, 0
12, 31395, Note_on_c, 11, 74, 0
12, 31471, Note_on_c, 11, 74, 100
12, 31526, Note_on_c, 11, 76, 100
12, 31534, Note_on_c, 11, 74, 0
12, 31561, Note_on_c, 11, 76, 0
12, 31578, Note_on_c, 11, 76, 100
12, 31603, Note_on_c, 11, 76, 0
12, 31627, Note_on_c, 11, 76, 100
12, 31651, Note_on_c, 11, 76, 0
12, 31674, Note_on_c, 11, 76, 100
12, 31699, Control_c, 11, 1, 1
12, 31700, Control_c, 11, 1, 4
12, 31701, Control_c, 11, 1, 6
12, 31702, Control_c, 11, 1, 8
12, 31704, Control_c, 11, 1, 11
12, 31705, Control_c, 11, 1, 13
12, 31706, Control_c, 11, 1, 16
12, 31708, Control_c, 11, 1, 19
12, 31708, Control_c, 11, 1, 21
12, 31710, Control_c, 11, 1, 23
12, 31711, Control_c, 11, 1, 25
12, 31714, Control_c, 11, 1, 27
12, 31716, Control_c, 11, 1, 30
12, 31717, Control_c, 11, 1, 32
12, 31721, Control_c, 11, 1, 34
12, 31724, Control_c, 11, 1, 36
12, 31730, Control_c, 11, 1, 38
12, 31760, Control_c, 11, 1, 36
12, 31763, Control_c, 11, 1, 34
12, 31766, Control_c, 11, 1, 31
12, 31767, Note_on_c, 11, 67, 100
12, 31768, Control_c, 11, 1, 29
12, 31771, Control_c, 11, 1, 27
12, 31773, Control_c, 11, 1, 24
12, 31774, Control_c, 11, 1, 22
12, 31775, Note_on_c, 11, 76, 0
12, 31776, Control_c, 11, 1, 20
12, 31778, Control_c, 11, 1, 18
12, 31779, Control_c, 11, 1, 16
12, 31781, Control_c, 11, 1, 14
12, 31781, Control_c, 11, 1, 12
12, 31783, Control_c, 11, 1, 10
12, 31784, Control_c, 11, 1, 8
12, 31785, Control_c, 11, 1, 6
12, 31787, Control_c, 11, 1, 4
12, 31788, Control_c, 11, 1, 2
12, 31789, Control_c, 11, 1, 0
12, 31798, Note_on_c, 11, 67, 0
12, 31822, Note_on_c, 11, 67, 100
12, 31860, Control_c, 11, 1, 3
12, 31861, Control_c, 11, 1, 6
12, 31863, Control_c, 11, 1, 8
12, 31864, Control_c, 11, 1, 11
12, 31865, Control_c, 11, 1, 13
12, 31866, Control_c, 11, 1, 15
12, 31867, Control_c, 11, 1, 17
12, 31869, Control_c, 11, 1, 19
12, 31871, Control_c, 11, 1, 22
12, 31872, Control_c, 11, 1, 24
12, 31872, Control_c, 11, 1, 26
12, 31879, Control_c, 11, 1, 28
12, 31882, Control_c, 11, 1, 30
12, 31889, Control_c, 11, 1, 32
12, 31914, Control_c, 11, 1, 29
12, 31916, Note_on_c, 11, 69, 100
12, 31917, Control_c, 11, 1, 27
12, 31918, Note_on_c, 11, 67, 0
12, 31920, Control_c, 11, 1, 25
12, 31923, Control_c, 11, 1, 23
12, 31925, Control_c, 11, 1, 20
12, 31926, Control_c, 11, 1, 19
12, 31929, Control_c, 11, 1, 16
12, 31931, Control_c, 11, 1, 13
12, 31933, Control_c, 11, 1, 11
12, 31935, Control_c, 11, 1, 9
12, 31937, Control_c, 11, 1, 6
12, 31939, Control_c, 11, 1, 4
12, 31942, Control_c, 11, 1, 1
12, 31944, Control_c, 11, 1, 0
12, 31947, Note_on_c, 11, 69, 0
12, 31964, Note_on_c, 11, 69, 100
12, 32004, Control_c, 11, 1, 2
12, 32005, Control_c, 11, 1, 4
12, 32008, Control_c, 11, 1, 6
12, 32010, Control_c, 11, 1, 8
12, 32012, Control_c, 11, 1, 10
12, 32015, Control_c, 11, 1, 12
12, 32018, Control_c, 11, 1, 13
12, 32021, Control_c, 11, 1, 15
12, 32024, Control_c, 11, 1, 17
12, 32030, Control_c, 11, 1, 19
12, 32036, Control_c, 11, 1, 21
12, 32041, Control_c, 11, 1, 23
12, 32046, Control_c, 11, 1, 25
12, 32052, Control_c, 11, 1, 27
12, 32058, Control_c, 11, 1, 29
12, 32064, Control_c, 11, 1, 31
12, 32071, Control_c, 11, 1, 33
12, 32092, Control_c, 11, 1, 34
12, 32136, Control_c, 11, 1, 33
12, 32139, Control_c, 11, 1, 31
12, 32143, Control_c, 11, 1, 29
12, 32144, Control_c, 11, 1, 27
12, 32147, Control_c, 11, 1, 24
12, 32149, Control_c, 11, 1, 22
12, 32151, Control_c, 11, 1, 19
12, 32154, Control_c, 11, 1, 16
12, 32155, Control_c, 11, 1, 14
12, 32157, Control_c, 11, 1, 11
12, 32158, Control_c, 11, 1, 9
12, 32160, Control_c, 11, 1, 7
12, 32160, Control_c, 11, 1, 5
12, 32162, Control_c, 11, 1, 3
12, 32163, Control_c, 11, 1, 1
12, 32164, Control_c, 11, 1, 0
12, 32185, Note_on_c, 11, 69, 0
12, 32207, Note_on_c, 11, 69, 100
12, 32256, Note_on_c, 11, 74, 100
12, 32257, Note_on_c, 11, 69, 0
12, 32286, Note_on_c, 11, 74, 0
12, 32305, Note_on_c, 11, 74, 100
12, 32331, Note_on_c, 11, 74, 0
12, 32351, Note_on_c, 11, 74, 100
12, 32377, Note_on_c, 11, 74, 0
12, 32400, Note_on_c, 11, 74, 100
12, 32419, Note_on_c, 11, 74, 0
12, 32444, Note_on_c, 11, 74, 100
12, 32540, Note_on_c, 11, 74, 0
12, 32541, Note_on_c, 11, 65, 100
12, 32636, Note_on_c, 11, 65, 0
12, 32637, Note_on_c, 11, 64, 100
12, 32733, Note_on_c, 11, 64, 0
12, 32739, Note_on_c, 11, 77, 100
12, 32835, Note_on_c, 11, 76, 100
12, 32848, Note_on_c, 11, 77, 0
12, 32937, Note_on_c, 11, 74, 100
12, 32941, Note_on_c, 11, 76, 0
12, 32964, Control_c, 11, 1, 3
12, 32966, Control_c, 11, 1, 5
12, 32968, Control_c, 11, 1, 7
12, 32970, Control_c, 11, 1, 10
12, 32973, Control_c, 11, 1, 13
12, 32974, Control_c, 11, 1, 15
12, 32976, Control_c, 11, 1, 18
12, 32979, Control_c, 11, 1, 20
12, 32981, Control_c, 11, 1, 22
12, 32985, Control_c, 11, 1, 24
12, 32986, Control_c, 11, 1, 26
12, 32991, Control_c, 11, 1, 27
12, 32995, Control_c, 11, 1, 29
12, 32998, Control_c, 11, 1, 31
12, 33004, Control_c, 11, 1, 33
12, 33011, Control_c, 11, 1, 35
12, 33108, Control_c, 11, 1, 33
12, 33112, Control_c, 11, 1, 31
12, 33115, Control_c, 11, 1, 29
12, 33117, Control_c, 11, 1, 27
12, 33119, Control_c, 11, 1, 24
12, 33121, Control_c, 11, 1, 22
12, 33123, Note_on_c, 11, 72, 100
12, 33124, Control_c, 11, 1, 19
12, 33126, Control_c, 11, 1, 17
12, 33128, Control_c, 11, 1, 14
12, 33130, Control_c, 11, 1, 12
12, 33131, Note_on_c, 11, 74, 0
12, 33131, Control_c, 11, 1, 10
12, 33132, Control_c, 11, 1, 8
12, 33134, Control_c, 11, 1, 6
12, 33135, Control_c, 11, 1, 5
12, 33136, Control_c, 11, 1, 3
12, 33137, Control_c, 11, 1, 1
12, 33138, Control_c, 11, 1, 0
12, 33214, Note_on_c, 11, 71, 100
12, 33225, Note_on_c, 11, 72, 0
12, 33312, Note_on_c, 11, 72, 100
12, 33319, Note_on_c, 11, 71, 0
12, 33362, Note_on_c, 11, 76, 100
12, 33367, Note_on_c, 11, 72, 0
12, 33396, Control_c, 11, 1, 1
12, 33397, Control_c, 11, 1, 3
12, 33399, Control_c, 11, 1, 6
12, 33400, Control_c, 11, 1, 8
12, 33401, Control_c, 11, 1, 10
12, 33403, Control_c, 11, 1, 12
12, 33403, Control_c, 11, 1, 14
12, 33405, Control_c, 11, 1, 16
12, 33407, Control_c, 11, 1, 19
12, 33408, Control_c, 11, 1, 21
12, 33409, Control_c, 11, 1, 23
12, 33415, Control_c, 11, 1, 25
12, 33418, Control_c, 11, 1, 27
12, 33423, Control_c, 11, 1, 29
12, 33428, Control_c, 11, 1, 31
12, 33446, Control_c, 11, 1, 33
12, 33509, Note_on_c, 11, 74, 100
12, 33513, Control_c, 11, 1, 31
12, 33515, Note_on_c, 11, 76, 0
12, 33520, Control_c, 11, 1, 29
12, 33523, Control_c, 11, 1, 27
12, 33528, Control_c, 11, 1, 25
12, 33532, Control_c, 11, 1, 23
12, 33535, Control_c, 11, 1, 21
12, 33537, Control_c, 11, 1, 19
12, 33539, Control_c, 11, 1, 16
12, 33541, Control_c, 11, 1, 14
12, 33542, Control_c, 11, 1, 12
12, 33543, Control_c, 11, 1, 10
12, 33545, Control_c, 11, 1, 8
12, 33545, Control_c, 11, 1, 6
12, 33547, Control_c, 11, 1, 5
12, 33548, Control_c, 11, 1, 3
12, 33549, Control_c, 11, 1, 1
12, 33551, Control_c, 11, 1, 0
12, 33601, Note_on_c, 11, 74, 0
12, 33604, Note_on_c, 11, 69, 100
12, 33698, Note_on_c, 11, 71, 100
12, 33705, Note_on_c, 11, 69, 0
12, 33750, Note_on_c, 11, 72, 100
12, 33755, Note_on_c, 11, 71, 0
12, 33792, Control_c, 11, 1, 2
12, 33792, Control_c, 11, 1, 4
12, 33797, Control_c, 11, 1, 6
12, 33797, Control_c, 11, 1, 8
12, 33799, Control_c, 11, 1, 10
12, 33800, Control_c, 11, 1, 12
12, 33802, Control_c, 11, 1, 14
12, 33804, Control_c, 11, 1, 16
12, 33807, Control_c, 11, 1, 18
12, 33809, Control_c, 11, 1, 20
12, 33811, Control_c, 11, 1, 22
12, 33814, Control_c, 11, 1, 24
12, 33820, Control_c, 11, 1, 26
12, 33854, Control_c, 11, 1, 24
12, 33857, Control_c, 11, 1, 22
12, 33860, Control_c, 11, 1, 20
12, 33862, Control_c, 11, 1, 17
12, 33866, Control_c, 11, 1, 15
12, 33869, Control_c, 11, 1, 13
12, 33871, Control_c, 11, 1, 12
12, 33874, Control_c, 11, 1, 10
12, 33876, Control_c, 11, 1, 8
12, 33877, Control_c, 11, 1, 5
12, 33880, Note_on_c, 11, 72, 0
12, 33880, Control_c, 11, 1, 3
12, 33881, Control_c, 11, 1, 1
12, 33883, Control_c, 11, 1, 0
12, 33887, Note_on_c, 11, 72, 100
12, 33962, Note_on_c, 11, 72, 0
12, 33980, Note_on_c, 11, 72, 100
12, 34000, Control_c, 11, 1, 3
12, 34001, Control_c, 11, 1, 5
12, 34003, Control_c, 11, 1, 6
12, 34003, Control_c, 11, 1, 8
12, 34005, Control_c, 11, 1, 10
12, 34006, Control_c, 11, 1, 12
12, 34009, Control_c, 11, 1, 15
12, 34010, Control_c, 11, 1, 17
12, 34013, Control_c, 11, 1, 19
12, 34016, Control_c, 11, 1, 21
12, 34018, Control_c, 11, 1, 23
12, 34022, Control_c, 11, 1, 25
12, 34050, Control_c, 11, 1, 23
12, 34053, Control_c, 11, 1, 21
12, 34056, Control_c, 11, 1, 19
12, 34059, Control_c, 11, 1, 17
12, 34061, Control_c, 11, 1, 15
12, 34063, Control_c, 11, 1, 13
12, 34065, Note_on_c, 11, 72, 0
12, 34066, Control_c, 11, 1, 11
12, 34068, Control_c, 11, 1, 9
12, 34070, Control_c, 11, 1, 7
12, 34073, Control_c, 11, 1, 5
12, 34073, Note_on_c, 11, 72, 100
12, 34076, Control_c, 11, 1, 3
12, 34078, Control_c, 11, 1, 0
12, 34108, Note_on_c, 11, 72, 0
12, 34125, Note_on_c, 11, 72, 100
12, 34155, Control_c, 11, 1, 2
12, 34156, Control_c, 11, 1, 4
12, 34157, Control_c, 11, 1, 6
12, 34158, Control_c, 11, 1, 8
12, 34160, Control_c, 11, 1, 10
12, 34161, Control_c, 11, 1, 12
12, 34162, Control_c, 11, 1, 14
12, 34165, Control_c, 11, 1, 17
12, 34165, Control_c, 11, 1, 19
12, 34168, Control_c, 11, 1, 21
12, 34170, Control_c, 11, 1, 23
12, 34173, Control_c, 11, 1, 25
12, 34176, Control_c, 11, 1, 27
12, 34184, Control_c, 11, 1, 29
12, 34196, Control_c, 11, 1, 31
12, 34256, Control_c, 11, 1, 29
12, 34258, Control_c, 11, 1, 27
12, 34260, Control_c, 11, 1, 24
12, 34263, Control_c, 11, 1, 22
12, 34263, Note_on_c, 11, 71, 100
12, 34264, Control_c, 11, 1, 20
12, 34266, Control_c, 11, 1, 17
12, 34267, Control_c, 11, 1, 15
12, 34269, Note_on_c, 11, 72, 0
12, 34270, Control_c, 11, 1, 12
12, 34271, Control_c, 11, 1, 10
12, 34272, Control_c, 11, 1, 8
12, 34274, Control_c, 11, 1, 6
12, 34275, Control_c, 11, 1, 5
12, 34276, Control_c, 11, 1, 3
12, 34277, Control_c, 11, 1, 1
12, 34278, Control_c, 11, 1, 0
12, 34361, Note_on_c, 11, 71, 0
12, 34361, Note_on_c, 11, 69, 100
12, 34457, Note_on_c, 11, 69, 0
12, 34458, Note_on_c, 11, 67, 100
12, 34560, Note_on_c, 11, 67, 0
12, 34560, Note_on_c, 11, 74, 100
12, 34608, Note_on_c, 11, 76, 100
12, 34616, Note_on_c, 11, 74, 0
12, 34651, Note_on_c, 11, 76, 0
12, 34660, Note_on_c, 11, 76, 100
12, 34689, Note_on_c, 11, 76, 0
12, 34706, Note_on_c, 11, 76, 100
12, 34740, Note_on_c, 11, 76, 0
12, 34756, Note_on_c, 11, 76, 100
12, 34775, Control_c, 11, 1, 3
12, 34776, Control_c, 11, 1, 6
12, 34778, Control_c, 11, 1, 9
12, 34779, Control_c, 11, 1, 12
12, 34780, Control_c, 11, 1, 15
12, 34781, Control_c, 11, 1, 18
12, 34782, Control_c, 11, 1, 20
12, 34784, Control_c, 11, 1, 22
12, 34785, Control_c, 11, 1, 24
12, 34786, Control_c, 11, 1, 26
12, 34788, Control_c, 11, 1, 29
12, 34791, Control_c, 11, 1, 31
12, 34793, Control_c, 11, 1, 33
12, 34798, Control_c, 11, 1, 34
12, 34834, Control_c, 11, 1, 33
12, 34838, Control_c, 11, 1, 30
12, 34841, Control_c, 11, 1, 27
12, 34843, Note_on_c, 11, 67, 100
12, 34844, Control_c, 11, 1, 25
12, 34846, Note_on_c, 11, 76, 0
12, 34847, Control_c, 11, 1, 22
12, 34847, Control_c, 11, 1, 20
12, 34850, Control_c, 11, 1, 18
12, 34851, Control_c, 11, 1, 16
12, 34854, Control_c, 11, 1, 13
12, 34854, Control_c, 11, 1, 12
12, 34856, Control_c, 11, 1, 10
12, 34857, Control_c, 11, 1, 8
12, 34858, Control_c, 11, 1, 6
12, 34860, Control_c, 11, 1, 3
12, 34863, Control_c, 11, 1, 0
12, 34878, Note_on_c, 11, 67, 0
12, 34896, Note_on_c, 11, 67, 100
12, 34923, Control_c, 11, 1, 1
12, 34924, Control_c, 11, 1, 5
12, 34925, Control_c, 11, 1, 8
12, 34926, Control_c, 11, 1, 11
12, 34928, Control_c, 11, 1, 13
12, 34929, Control_c, 11, 1, 16
12, 34930, Control_c, 11, 1, 18
12, 34931, Control_c, 11, 1, 20
12, 34933, Control_c, 11, 1, 22
12, 34933, Control_c, 11, 1, 24
12, 34936, Control_c, 11, 1, 27
12, 34939, Control_c, 11, 1, 29
12, 34943, Control_c, 11, 1, 31
12, 34955, Control_c, 11, 1, 33
12, 34974, Control_c, 11, 1, 31
12, 34978, Control_c, 11, 1, 29
12, 34980, Control_c, 11, 1, 27
12, 34983, Control_c, 11, 1, 25
12, 34986, Note_on_c, 11, 69, 100
12, 34987, Control_c, 11, 1, 23
12, 34989, Control_c, 11, 1, 21
12, 34991, Note_on_c, 11, 67, 0
12, 34992, Control_c, 11, 1, 19
12, 34994, Control_c, 11, 1, 16
12, 34996, Control_c, 11, 1, 14
12, 34998, Control_c, 11, 1, 12
12, 35000, Control_c, 11, 1, 8
12, 35002, Control_c, 11, 1, 5
12, 35005, Control_c, 11, 1, 2
12, 35006, Control_c, 11, 1, 0
12, 35016, Note_on_c, 11, 69, 0
12, 35034, Note_on_c, 11, 69, 100
12, 35069, Control_c, 11, 1, 1
12, 35072, Control_c, 11, 1, 3
12, 35075, Control_c, 11, 1, 6
12, 35077, Control_c, 11, 1, 8
12, 35080, Control_c, 11, 1, 10
12, 35082, Control_c, 11, 1, 12
12, 35085, Control_c, 11, 1, 13
12, 35088, Control_c, 11, 1, 15
12, 35092, Control_c, 11, 1, 17
12, 35097, Control_c, 11, 1, 19
12, 35104, Control_c, 11, 1, 21
12, 35107, Control_c, 11, 1, 23
12, 35113, Control_c, 11, 1, 25
12, 35120, Control_c, 11, 1, 27
12, 35127, Control_c, 11, 1, 29
12, 35135, Control_c, 11, 1, 31
12, 35148, Control_c, 11, 1, 33
12, 35169, Control_c, 11, 1, 34
12, 35208, Control_c, 11, 1, 33
12, 35212, Control_c, 11, 1, 31
12, 35215, Control_c, 11, 1, 29
12, 35218, Control_c, 11, 1, 26
12, 35221, Control_c, 11, 1, 24
12, 35223, Control_c, 11, 1, 22
12, 35225, Control_c, 11, 1, 20
12, 35227, Control_c, 11, 1, 17
12, 35230, Control_c, 11, 1, 14
12, 35230, Control_c, 11, 1, 12
12, 35232, Control_c, 11, 1, 10
12, 35233, Control_c, 11, 1, 8
12, 35234, Control_c, 11, 1, 6
12, 35236, Control_c, 11, 1, 4
12, 35236, Control_c, 11, 1, 1
12, 35238, Control_c, 11, 1, 0
12, 35251, Note_on_c, 11, 69, 0
12, 35272, Note_on_c, 11, 69, 100
12, 35320, Note_on_c, 11, 74, 100
12, 35322, Note_on_c, 11, 69, 0
12, 35352, Note_on_c, 11, 74, 0
12, 35367, Note_on_c, 11, 74, 100
12, 35396, Note_on_c, 11, 74, 0
12, 35417, Note_on_c, 11, 74, 100
12, 35442, Note_on_c, 11, 74, 0
12, 35464, Note_on_c, 11, 74, 100
12, 35486, Note_on_c, 11, 74, 0
12, 35507, Note_on_c, 11, 74, 100
12, 35607, Note_on_c, 11, 74, 0
12, 35607, Note_on_c, 11, 65, 100
12, 35704, Note_on_c, 11, 65, 0
12, 35704, Note_on_c, 11, 64, 100
12, 35800, Note_on_c, 11, 64, 0
12, 35805, Note_on_c, 11, 77, 100
12, 35899, Note_on_c, 11, 76, 100
12, 35905, Note_on_c, 11, 77, 0
12, 36003, Note_on_c, 11, 74, 100
12, 36008, Note_on_c, 11, 76, 0
12, 36038, Control_c, 11, 1, 1
12, 36040, Control_c, 11, 1, 3
12, 36043, Control_c, 11, 1, 5
12, 36045, Control_c, 11, 1, 7
12, 36047, Control_c, 11, 1, 10
12, 36049, Control_c, 11, 1, 12
12, 36051, Control_c, 11, 1, 13
12, 36053, Control_c, 11, 1, 15
12, 36057, Control_c, 11, 1, 17
12, 36060, Control_c, 11, 1, 19
12, 36062, Control_c, 11, 1, 21
12, 36065, Control_c, 11, 1, 23
12, 36068, Control_c, 11, 1, 25
12, 36071, Control_c, 11, 1, 27
12, 36076, Control_c, 11, 1, 29
12, 36081, Control_c, 11, 1, 31
12, 36087, Control_c, 11, 1, 33
12, 36096, Control_c, 11, 1, 34
12, 36141, Control_c, 11, 1, 33
12, 36144, Control_c, 11, 1, 31
12, 36147, Control_c, 11, 1, 29
12, 36149, Control_c, 11, 1, 27
12, 36150, Note_on_c, 11, 72, 100
12, 36152, Control_c, 11, 1, 24
12, 36154, Control_c, 11, 1, 22
12, 36156, Control_c, 11, 1, 19
12, 36158, Control_c, 11, 1, 17
12, 36160, Control_c, 11, 1, 14
12, 36161, Note_on_c, 11, 74, 0
12, 36162, Control_c, 11, 1, 12
12, 36164, Control_c, 11, 1, 9
12, 36166, Control_c, 11, 1, 6
12, 36168, Control_c, 11, 1, 5
12, 36169, Control_c, 11, 1, 3
12, 36171, Control_c, 11, 1, 0
12, 36179, Note_on_c, 11, 72, 0
12, 36193, Note_on_c, 11, 72, 100
12, 36222, Note_on_c, 11, 72, 0
12, 36239, Note_on_c, 11, 72, 100
12, 36292, Note_on_c, 11, 72, 0
12, 36292, Note_on_c, 11, 71, 100
12, 36384, Note_on_c, 11, 72, 100
12, 36389, Note_on_c, 11, 71, 0
12, 36437, Note_on_c, 11, 76, 100
12, 36442, Note_on_c, 11, 72, 0
12, 36482, Control_c, 11, 1, 2
12, 36485, Control_c, 11, 1, 5
12, 36487, Control_c, 11, 1, 7
12, 36488, Control_c, 11, 1, 9
12, 36489, Control_c, 11, 1, 12
12, 36491, Control_c, 11, 1, 14
12, 36492, Control_c, 11, 1, 16
12, 36493, Control_c, 11, 1, 18
12, 36495, Control_c, 11, 1, 20
12, 36498, Control_c, 11, 1, 23
12, 36500, Control_c, 11, 1, 25
12, 36503, Control_c, 11, 1, 27
12, 36507, Control_c, 11, 1, 29
12, 36517, Control_c, 11, 1, 31
12, 36576, Note_on_c, 11, 74, 100
12, 36584, Note_on_c, 11, 76, 0
12, 36631, Control_c, 11, 1, 29
12, 36637, Control_c, 11, 1, 27
12, 36644, Control_c, 11, 1, 25
12, 36648, Control_c, 11, 1, 22
12, 36651, Control_c, 11, 1, 20
12, 36655, Control_c, 11, 1, 19
12, 36657, Control_c, 11, 1, 16
12, 36659, Control_c, 11, 1, 13
12, 36661, Control_c, 11, 1, 11
12, 36663, Control_c, 11, 1, 8
12, 36665, Control_c, 11, 1, 5
12, 36667, Control_c, 11, 1, 3
12, 36668, Control_c, 11, 1, 1
12, 36669, Note_on_c, 11, 69, 100
12, 36669, Control_c, 11, 1, 0
12, 36672, Note_on_c, 11, 74, 0
12, 36765, Note_on_c, 11, 71, 100
12, 36772, Note_on_c, 11, 69, 0
12, 36857, Note_on_c, 11, 71, 0
12, 36858, Note_on_c, 11, 72, 100
12, 36944, Note_on_c, 11, 72, 0
12, 36962, Note_on_c, 11, 72, 100
12, 37040, Note_on_c, 11, 72, 0
12, 37056, Note_on_c, 11, 72, 100
12, 37084, Control_c, 11, 1, 3
12, 37086, Control_c, 11, 1, 5
12, 37086, Control_c, 11, 1, 6
12, 37088, Control_c, 11, 1, 8
12, 37089, Control_c, 11, 1, 10
12, 37091, Control_c, 11, 1, 13
12, 37093, Control_c, 11, 1, 15
12, 37095, Control_c, 11, 1, 18
12, 37099, Control_c, 11, 1, 20
12, 37102, Control_c, 11, 1, 22
12, 37108, Control_c, 11, 1, 24
12, 37130, Control_c, 11, 1, 22
12, 37133, Control_c, 11, 1, 20
12, 37136, Note_on_c, 11, 72, 0
12, 37136, Control_c, 11, 1, 18
12, 37138, Control_c, 11, 1, 16
12, 37140, Control_c, 11, 1, 14
12, 37143, Control_c, 11, 1, 12
12, 37145, Control_c, 11, 1, 10
12, 37147, Control_c, 11, 1, 7
12, 37149, Control_c, 11, 1, 5
12, 37151, Note_on_c, 11, 72, 100
12, 37152, Control_c, 11, 1, 2
12, 37153, Control_c, 11, 1, 0
12, 37180, Note_on_c, 11, 72, 0
12, 37200, Note_on_c, 11, 72, 100
12, 37226, Control_c, 11, 1, 1
12, 37228, Control_c, 11, 1, 3
12, 37229, Control_c, 11, 1, 6
12, 37230, Control_c, 11, 1, 8
12, 37231, Control_c, 11, 1, 11
12, 37232, Control_c, 11, 1, 13
12, 37234, Control_c, 11, 1, 15
12, 37236, Control_c, 11, 1, 17
12, 37238, Control_c, 11, 1, 20
12, 37241, Control_c, 11, 1, 22
12, 37244, Control_c, 11, 1, 24
12, 37247, Control_c, 11, 1, 26
12, 37255, Control_c, 11, 1, 27
12, 37264, Control_c, 11, 1, 29
12, 37333, Control_c, 11, 1, 27
12, 37336, Control_c, 11, 1, 26
12, 37339, Control_c, 11, 1, 24
12, 37341, Control_c, 11, 1, 21
12, 37343, Control_c, 11, 1, 19
12, 37345, Control_c, 11, 1, 16
12, 37346, Note_on_c, 11, 71, 100
12, 37348, Control_c, 11, 1, 13
12, 37350, Control_c, 11, 1, 11
12, 37352, Control_c, 11, 1, 8
12, 37354, Note_on_c, 11, 72, 0
12, 37354, Control_c, 11, 1, 6
12, 37355, Control_c, 11, 1, 4
12, 37356, Control_c, 11, 1, 2
12, 37358, Control_c, 11, 1, 0
12, 37436, Note_on_c, 11, 72, 100
12, 37440, Note_on_c, 11, 71, 0
12, 37534, Note_on_c, 11, 74, 100
12, 37540, Note_on_c, 11, 72, 0
12, 37604, Note_on_c, 11, 74, 0
12, 37632, Note_on_c, 11, 75, 100
12, 37683, Note_on_c, 11, 77, 100
12, 37693, Note_on_c, 11, 75, 0
12, 37720, Note_on_c, 11, 77, 0
12, 37733, Note_on_c, 11, 77, 100
12, 37763, Note_on_c, 11, 77, 0
12, 37779, Note_on_c, 11, 77, 100
12, 37808, Note_on_c, 11, 77, 0
12, 37833, Note_on_c, 11, 77, 100
12, 37864, Control_c, 11, 1, 2
12, 37866, Control_c, 11, 1, 4
12, 37867, Control_c, 11, 1, 6
12, 37868, Control_c, 11, 1, 8
12, 37869, Control_c, 11, 1, 10
12, 37870, Control_c, 11, 1, 12
12, 37872, Control_c, 11, 1, 13
12, 37873, Control_c, 11, 1, 15
12, 37876, Control_c, 11, 1, 18
12, 37877, Control_c, 11, 1, 20
12, 37879, Control_c, 11, 1, 23
12, 37883, Control_c, 11, 1, 25
12, 37886, Control_c, 11, 1, 27
12, 37891, Control_c, 11, 1, 29
12, 37913, Control_c, 11, 1, 27
12, 37916, Control_c, 11, 1, 25
12, 37918, Control_c, 11, 1, 23
12, 37919, Note_on_c, 11, 68, 100
12, 37920, Note_on_c, 11, 77, 0
12, 37921, Control_c, 11, 1, 20
12, 37923, Control_c, 11, 1, 18
12, 37925, Control_c, 11, 1, 15
12, 37927, Control_c, 11, 1, 13
12, 37930, Control_c, 11, 1, 10
12, 37932, Control_c, 11, 1, 6
12, 37933, Control_c, 11, 1, 5
12, 37934, Control_c, 11, 1, 3
12, 37936, Control_c, 11, 1, 1
12, 37937, Control_c, 11, 1, 0
12, 37952, Note_on_c, 11, 68, 0
12, 37974, Note_on_c, 11, 68, 100
12, 38011, Control_c, 11, 1, 3
12, 38012, Control_c, 11, 1, 6
12, 38013, Control_c, 11, 1, 9
12, 38015, Control_c, 11, 1, 12
12, 38016, Control_c, 11, 1, 15
12, 38017, Control_c, 11, 1, 17
12, 38018, Control_c, 11, 1, 19
12, 38019, Control_c, 11, 1, 21
12, 38021, Control_c, 11, 1, 24
12, 38022, Control_c, 11, 1, 26
12, 38034, Control_c, 11, 1, 27
12, 38048, Control_c, 11, 1, 26
12, 38053, Control_c, 11, 1, 24
12, 38056, Control_c, 11, 1, 22
12, 38060, Control_c, 11, 1, 20
12, 38063, Control_c, 11, 1, 17
12, 38065, Note_on_c, 11, 70, 100
12, 38066, Control_c, 11, 1, 15
12, 38069, Control_c, 11, 1, 12
12, 38071, Note_on_c, 11, 68, 0
12, 38072, Control_c, 11, 1, 10
12, 38074, Control_c, 11, 1, 8
12, 38076, Control_c, 11, 1, 5
12, 38078, Control_c, 11, 1, 3
12, 38080, Control_c, 11, 1, 0
12, 38092, Note_on_c, 11, 70, 0
12, 38114, Note_on_c, 11, 70, 100
12, 38179, Control_c, 11, 1, 1
12, 38182, Control_c, 11, 1, 3
12, 38185, Control_c, 11, 1, 5
12, 38188, Control_c, 11, 1, 7
12, 38192, Control_c, 11, 1, 9
12, 38196, Control_c, 11, 1, 11
12, 38201, Control_c, 11, 1, 13
12, 38206, Control_c, 11, 1, 15
12, 38210, Control_c, 11, 1, 17
12, 38222, Control_c, 11, 1, 19
12, 38233, Control_c, 11, 1, 20
12, 38249, Control_c, 11, 1, 22
12, 38306, Control_c, 11, 1, 20
12, 38309, Control_c, 11, 1, 19
12, 38312, Control_c, 11, 1, 16
12, 38315, Control_c, 11, 1, 13
12, 38316, Control_c, 11, 1, 11
12, 38318, Control_c, 11, 1, 8
12, 38321, Control_c, 11, 1, 6
12, 38323, Control_c, 11, 1, 3
12, 38325, Control_c, 11, 1, 0
12, 38329, Note_on_c, 11, 70, 0
12, 38355, Note_on_c, 11, 70, 100
12, 38405, Note_on_c, 11, 70, 0
12, 38405, Note_on_c, 11, 75, 100
12, 38436, Note_on_c, 11, 75, 0
12, 38453, Note_on_c, 11, 75, 100
12, 38479, Note_on_c, 11, 75, 0
12, 38499, Note_on_c, 11, 75, 100
12, 38527, Note_on_c, 11, 75, 0
12, 38545, Note_on_c, 11, 75, 100
12, 38571, Note_on_c, 11, 75, 0
12, 38592, Note_on_c, 11, 75, 100
12, 38680, Note_on_c, 11, 75, 0
12, 38683, Note_on_c, 11, 66, 100
12, 38783, Note_on_c, 11, 66, 0
12, 38783, Note_on_c, 11, 65, 100
12, 38815, Control_c, 11, 1, 3
12, 38816, Control_c, 11, 1, 5
12, 38817, Control_c, 11, 1, 7
12, 38818, Control_c, 11, 1, 10
12, 38820, Control_c, 11, 1, 12
12, 38821, Control_c, 11, 1, 13
12, 38822, Control_c, 11, 1, 15
12, 38824, Control_c, 11, 1, 18
12, 38827, Control_c, 11, 1, 20
12, 38829, Control_c, 11, 1, 22
12, 38834, Control_c, 11, 1, 24
12, 38880, Control_c, 11, 1, 22
12, 38881, Note_on_c, 11, 65, 0
12, 38884, Control_c, 11, 1, 20
12, 38885, Control_c, 11, 1, 19
12, 38888, Control_c, 11, 1, 16
12, 38890, Note_on_c, 11, 78, 100
12, 38891, Control_c, 11, 1, 13
12, 38892, Control_c, 11, 1, 12
12, 38893, Control_c, 11, 1, 10
12, 38895, Control_c, 11, 1, 6
12, 38897, Control_c, 11, 1, 3
12, 38899, Control_c, 11, 1, 1
12, 38900, Control_c, 11, 1, 0
12, 38980, Note_on_c, 11, 77, 100
12, 38988, Note_on_c, 11, 78, 0
12, 39084, Note_on_c, 11, 75, 100
12, 39087, Note_on_c, 11, 77, 0
12, 39121, Control_c, 11, 1, 1
12, 39125, Control_c, 11, 1, 3
12, 39128, Control_c, 11, 1, 5
12, 39131, Control_c, 11, 1, 7
12, 39137, Control_c, 11, 1, 9
12, 39141, Control_c, 11, 1, 11
12, 39144, Control_c, 11, 1, 13
12, 39148, Control_c, 11, 1, 15
12, 39152, Control_c, 11, 1, 17
12, 39156, Control_c, 11, 1, 19
12, 39158, Control_c, 11, 1, 20
12, 39161, Control_c, 11, 1, 22
12, 39165, Control_c, 11, 1, 24
12, 39168, Control_c, 11, 1, 26
12, 39172, Control_c, 11, 1, 28
12, 39173, Control_c, 11, 1, 30
12, 39185, Control_c, 11, 1, 32
12, 39273, Control_c, 11, 1, 30
12, 39274, Control_c, 11, 1, 28
12, 39276, Note_on_c, 11, 73, 100
12, 39277, Control_c, 11, 1, 26
12, 39280, Control_c, 11, 1, 23
12, 39282, Control_c, 11, 1, 20
12, 39283, Note_on_c, 11, 75, 0
12, 39284, Control_c, 11, 1, 18
12, 39286, Control_c, 11, 1, 15
12, 39289, Control_c, 11, 1, 12
12, 39291, Control_c, 11, 1, 9
12, 39292, Control_c, 11, 1, 7
12, 39294, Control_c, 11, 1, 5
12, 39296, Control_c, 11, 1, 2
12, 39299, Control_c, 11, 1, 0
12, 39373, Note_on_c, 11, 72, 100
12, 39378, Note_on_c, 11, 73, 0
12, 39463, Note_on_c, 11, 73, 100
12, 39470, Note_on_c, 11, 72, 0
12, 39513, Note_on_c, 11, 77, 100
12, 39516, Note_on_c, 11, 73, 0
12, 39549, Control_c, 11, 1, 3
12, 39551, Control_c, 11, 1, 5
12, 39552, Control_c, 11, 1, 6
12, 39553, Control_c, 11, 1, 8
12, 39554, Control_c, 11, 1, 10
12, 39556, Control_c, 11, 1, 13
12, 39557, Control_c, 11, 1, 15
12, 39558, Control_c, 11, 1, 17
12, 39564, Control_c, 11, 1, 19
12, 39567, Control_c, 11, 1, 21
12, 39570, Control_c, 11, 1, 23
12, 39577, Control_c, 11, 1, 25
12, 39588, Control_c, 11, 1, 27
12, 39650, Note_on_c, 11, 75, 100
12, 39658, Note_on_c, 11, 77, 0
12, 39689, Control_c, 11, 1, 25
12, 39693, Control_c, 11, 1, 23
12, 39694, Control_c, 11, 1, 21
12, 39697, Control_c, 11, 1, 19
12, 39699, Control_c, 11, 1, 17
12, 39701, Control_c, 11, 1, 15
12, 39703, Control_c, 11, 1, 13
12, 39706, Control_c, 11, 1, 11
12, 39708, Control_c, 11, 1, 9
12, 39710, Control_c, 11, 1, 7
12, 39713, Control_c, 11, 1, 5
12, 39715, Control_c, 11, 1, 2
12, 39717, Control_c, 11, 1, 0
12, 39746, Note_on_c, 11, 75, 0
12, 39748, Note_on_c, 11, 70, 100
12, 39852, Note_on_c, 11, 75, 100
12, 39861, Note_on_c, 11, 70, 0
12, 39994, Note_on_c, 11, 73, 100
12, 40000, Note_on_c, 11, 75, 0
12, 40019, Note_on_c, 11, 73, 0
12, 40035, Note_on_c, 11, 73, 100
12, 40061, Note_on_c, 11, 73, 0
12, 40078, Note_on_c, 11, 73, 100
12, 40102, Note_on_c, 11, 73, 0
12, 40130, Note_on_c, 11, 73, 100
12, 40149, Control_c, 11, 1, 3
12, 40150, Control_c, 11, 1, 6
12, 40152, Control_c, 11, 1, 8
12, 40152, Control_c, 11, 1, 11
12, 40154, Control_c, 11, 1, 13
12, 40155, Control_c, 11, 1, 16
12, 40156, Control_c, 11, 1, 18
12, 40158, Control_c, 11, 1, 20
12, 40160, Control_c, 11, 1, 22
12, 40162, Control_c, 11, 1, 25
12, 40165, Control_c, 11, 1, 27
12, 40168, Control_c, 11, 1, 29
12, 40174, Control_c, 11, 1, 31
12, 40204, Control_c, 11, 1, 29
12, 40208, Control_c, 11, 1, 27
12, 40211, Control_c, 11, 1, 25
12, 40215, Control_c, 11, 1, 23
12, 40219, Control_c, 11, 1, 21
12, 40221, Control_c, 11, 1, 19
12, 40222, Note_on_c, 11, 72, 100
12, 40223, Note_on_c, 11, 73, 0
12, 40224, Control_c, 11, 1, 17
12, 40226, Control_c, 11, 1, 15
12, 40228, Control_c, 11, 1, 13
12, 40230, Control_c, 11, 1, 10
12, 40232, Control_c, 11, 1, 8
12, 40234, Control_c, 11, 1, 5
12, 40237, Control_c, 11, 1, 3
12, 40239, Control_c, 11, 1, 0
12, 40251, Note_on_c, 11, 72, 0
12, 40276, Note_on_c, 11, 72, 100
12, 40306, Control_c, 11, 1, 2
12, 40307, Control_c, 11, 1, 4
12, 40309, Control_c, 11, 1, 6
12, 40310, Control_c, 11, 1, 8
12, 40311, Control_c, 11, 1, 10
12, 40312, Control_c, 11, 1, 12
12, 40314, Control_c, 11, 1, 13
12, 40316, Control_c, 11, 1, 16
12, 40318, Control_c, 11, 1, 18
12, 40321, Control_c, 11, 1, 20
12, 40324, Control_c, 11, 1, 22
12, 40325, Control_c, 11, 1, 24
12, 40334, Control_c, 11, 1, 26
12, 40347, Control_c, 11, 1, 27
12, 40372, Control_c, 11, 1, 29
12, 40400, Control_c, 11, 1, 27
12, 40405, Control_c, 11, 1, 26
12, 40408, Control_c, 11, 1, 24
12, 40411, Control_c, 11, 1, 22
12, 40413, Control_c, 11, 1, 20
12, 40414, Note_on_c, 11, 70, 100
12, 40415, Control_c, 11, 1, 18
12, 40418, Control_c, 11, 1, 16
12, 40420, Control_c, 11, 1, 13
12, 40422, Control_c, 11, 1, 11
12, 40424, Note_on_c, 11, 72, 0
12, 40424, Control_c, 11, 1, 9
12, 40425, Control_c, 11, 1, 7
12, 40427, Control_c, 11, 1, 5
12, 40428, Control_c, 11, 1, 3
12, 40430, Control_c, 11, 1, 0
12, 40444, Note_on_c, 11, 70, 0
12, 40465, Note_on_c, 11, 70, 100
12, 40494, Control_c, 11, 1, 1
12, 40496, Control_c, 11, 1, 4
12, 40497, Control_c, 11, 1, 6
12, 40498, Control_c, 11, 1, 8
12, 40500, Control_c, 11, 1, 10
12, 40501, Control_c, 11, 1, 12
12, 40502, Control_c, 11, 1, 14
12, 40503, Control_c, 11, 1, 16
12, 40506, Control_c, 11, 1, 19
12, 40508, Control_c, 11, 1, 20
12, 40510, Control_c, 11, 1, 22
12, 40514, Control_c, 11, 1, 24
12, 40522, Control_c, 11, 1, 26
12, 40560, Note_on_c, 11, 70, 0
12, 40560, Note_on_c, 11, 68, 100
12, 40571, Control_c, 11, 1, 24
12, 40573, Control_c, 11, 1, 22
12, 40576, Control_c, 11, 1, 20
12, 40579, Control_c, 11, 1, 18
12, 40581, Control_c, 11, 1, 16
12, 40583, Control_c, 11, 1, 13
12, 40584, Control_c, 11, 1, 12
12, 40585, Control_c, 11, 1, 10
12, 40587, Control_c, 11, 1, 8
12, 40588, Control_c, 11, 1, 6
12, 40589, Control_c, 11, 1, 4
12, 40592, Control_c, 11, 1, 1
12, 40592, Control_c, 11, 1, 0
12, 40709, Note_on_c, 11, 68, 0
12, 40709, Note_on_c, 11, 75, 100
12, 40759, Note_on_c, 11, 77, 100
12, 40771, Note_on_c, 11, 75, 0
12, 40795, Note_on_c, 11, 77, 0
12, 40811, Note_on_c, 11, 77, 100
12, 40838, Note_on_c, 11, 77, 0
12, 40860, Note_on_c, 11, 77, 100
12, 40890, Note_on_c, 11, 77, 0
12, 40910, Note_on_c, 11, 77, 100
12, 40936, Control_c, 11, 1, 2
12, 40938, Control_c, 11, 1, 5
12, 40940, Control_c, 11, 1, 7
12, 40940, Control_c, 11, 1, 10
12, 40942, Control_c, 11, 1, 12
12, 40943, Control_c, 11, 1, 14
12, 40944, Control_c, 11, 1, 17
12, 40946, Control_c, 11, 1, 19
12, 40947, Control_c, 11, 1, 21
12, 40949, Control_c, 11, 1, 23
12, 40952, Control_c, 11, 1, 25
12, 40955, Control_c, 11, 1, 27
12, 40981, Control_c, 11, 1, 25
12, 40984, Control_c, 11, 1, 22
12, 40987, Control_c, 11, 1, 20
12, 40990, Control_c, 11, 1, 19
12, 40992, Control_c, 11, 1, 17
12, 40993, Note_on_c, 11, 68, 100
12, 40994, Control_c, 11, 1, 15
12, 40996, Note_on_c, 11, 77, 0
12, 40997, Control_c, 11, 1, 12
12, 40999, Control_c, 11, 1, 9
12, 41002, Control_c, 11, 1, 6
12, 41003, Control_c, 11, 1, 4
12, 41005, Control_c, 11, 1, 1
12, 41006, Control_c, 11, 1, 0
12, 41025, Note_on_c, 11, 68, 0
12, 41044, Note_on_c, 11, 68, 100
12, 41075, Control_c, 11, 1, 3
12, 41076, Control_c, 11, 1, 5
12, 41078, Control_c, 11, 1, 8
12, 41079, Control_c, 11, 1, 10
12, 41080, Control_c, 11, 1, 13
12, 41082, Control_c, 11, 1, 15
12, 41082, Control_c, 11, 1, 17
12, 41085, Control_c, 11, 1, 19
12, 41087, Control_c, 11, 1, 22
12, 41090, Control_c, 11, 1, 24
12, 41093, Control_c, 11, 1, 26
12, 41123, Control_c, 11, 1, 24
12, 41128, Control_c, 11, 1, 22
12, 41131, Control_c, 11, 1, 20
12, 41134, Control_c, 11, 1, 18
12, 41135, Note_on_c, 11, 70, 100
12, 41136, Note_on_c, 11, 68, 0
12, 41137, Control_c, 11, 1, 16
12, 41140, Control_c, 11, 1, 13
12, 41142, Control_c, 11, 1, 12
12, 41145, Control_c, 11, 1, 9
12, 41147, Control_c, 11, 1, 6
12, 41149, Control_c, 11, 1, 4
12, 41150, Control_c, 11, 1, 2
12, 41152, Control_c, 11, 1, 0
12, 41162, Note_on_c, 11, 70, 0
12, 41183, Note_on_c, 11, 70, 100
12, 41221, Control_c, 11, 1, 2
12, 41223, Control_c, 11, 1, 5
12, 41225, Control_c, 11, 1, 7
12, 41228, Control_c, 11, 1, 9
12, 41231, Control_c, 11, 1, 11
12, 41234, Control_c, 11, 1, 13
12, 41239, Control_c, 11, 1, 15
12, 41243, Control_c, 11, 1, 17
12, 41249, Control_c, 11, 1, 19
12, 41256, Control_c, 11, 1, 20
12, 41262, Control_c, 11, 1, 22
12, 41270, Control_c, 11, 1, 24
12, 41282, Control_c, 11, 1, 26
12, 41323, Control_c, 11, 1, 24
12, 41345, Control_c, 11, 1, 22
12, 41355, Control_c, 11, 1, 20
12, 41358, Control_c, 11, 1, 19
12, 41360, Control_c, 11, 1, 17
12, 41363, Control_c, 11, 1, 15
12, 41365, Control_c, 11, 1, 12
12, 41367, Control_c, 11, 1, 10
12, 41369, Control_c, 11, 1, 8
12, 41370, Control_c, 11, 1, 6
12, 41372, Control_c, 11, 1, 3
12, 41373, Control_c, 11, 1, 1
12, 41374, Control_c, 11, 1, 0
12, 41398, Note_on_c, 11, 70, 0
12, 41421, Note_on_c, 11, 70, 100
12, 41470, Note_on_c, 11, 75, 100
12, 41475, Note_on_c, 11, 70, 0
12, 41496, Note_on_c, 11, 75, 0
12, 41518, Note_on_c, 11, 75, 100
12, 41543, Note_on_c, 11, 75, 0
12, 41568, Note_on_c, 11, 75, 100
12, 41590, Note_on_c, 11, 75, 0
12, 41615, Note_on_c, 11, 75, 100
12, 41638, Note_on_c, 11, 75, 0
12, 41664, Note_on_c, 11, 75, 100
12, 41758, Note_on_c, 11, 75, 0
12, 41759, Note_on_c, 11, 66, 100
12, 41857, Note_on_c, 11, 66, 0
12, 41859, Note_on_c, 11, 65, 100
12, 41955, Note_on_c, 11, 65, 0
12, 41962, Note_on_c, 11, 78, 100
12, 42053, Note_on_c, 11, 77, 100
12, 42065, Note_on_c, 11, 78, 0
12, 42155, Note_on_c, 11, 75, 100
12, 42165, Note_on_c, 11, 77, 0
12, 42194, Control_c, 11, 1, 1
12, 42195, Control_c, 11, 1, 3
12, 42197, Control_c, 11, 1, 6
12, 42199, Control_c, 11, 1, 8
12, 42201, Control_c, 11, 1, 11
12, 42204, Control_c, 11, 1, 13
12, 42206, Control_c, 11, 1, 15
12, 42208, Control_c, 11, 1, 17
12, 42211, Control_c, 11, 1, 19
12, 42214, Control_c, 11, 1, 20
12, 42218, Control_c, 11, 1, 22
12, 42221, Control_c, 11, 1, 24
12, 42225, Control_c, 11, 1, 26
12, 42233, Control_c, 11, 1, 28
12, 42265, Control_c, 11, 1, 26
12, 42270, Control_c, 11, 1, 24
12, 42274, Control_c, 11, 1, 22
12, 42278, Control_c, 11, 1, 20
12, 42281, Control_c, 11, 1, 19
12, 42284, Control_c, 11, 1, 17
12, 42289, Control_c, 11, 1, 14
12, 42292, Control_c, 11, 1, 12
12, 42294, Control_c, 11, 1, 10
12, 42296, Control_c, 11, 1, 7
12, 42299, Control_c, 11, 1, 5
12, 42299, Note_on_c, 11, 73, 100
12, 42300, Control_c, 11, 1, 3
12, 42302, Control_c, 11, 1, 1
12, 42303, Control_c, 11, 1, 0
12, 42312, Note_on_c, 11, 75, 0
12, 42328, Note_on_c, 11, 73, 0
12, 42343, Note_on_c, 11, 73, 100
12, 42375, Note_on_c, 11, 73, 0
12, 42388, Note_on_c, 11, 73, 100
12, 42438, Note_on_c, 11, 72, 100
12, 42440, Note_on_c, 11, 73, 0
12, 42529, Note_on_c, 11, 73, 100
12, 42538, Note_on_c, 11, 72, 0
12, 42580, Note_on_c, 11, 77, 100
12, 42587, Note_on_c, 11, 73, 0
12, 42609, Control_c, 11, 1, 3
12, 42610, Control_c, 11, 1, 5
12, 42612, Control_c, 11, 1, 6
12, 42613, Control_c, 11, 1, 8
12, 42614, Control_c, 11, 1, 10
12, 42615, Control_c, 11, 1, 12
12, 42618, Control_c, 11, 1, 15
12, 42620, Control_c, 11, 1, 17
12, 42623, Control_c, 11, 1, 19
12, 42626, Control_c, 11, 1, 20
12, 42629, Control_c, 11, 1, 22
12, 42641, Control_c, 11, 1, 24
12, 42730, Note_on_c, 11, 75, 100
12, 42732, Note_on_c, 11, 77, 0
12, 42771, Control_c, 11, 1, 22
12, 42777, Control_c, 11, 1, 20
12, 42780, Control_c, 11, 1, 19
12, 42783, Control_c, 11, 1, 16
12, 42786, Control_c, 11, 1, 14
12, 42788, Control_c, 11, 1, 12
12, 42790, Control_c, 11, 1, 9
12, 42792, Control_c, 11, 1, 6
12, 42795, Control_c, 11, 1, 3
12, 42797, Control_c, 11, 1, 0
12, 42821, Note_on_c, 11, 75, 0
12, 42821, Note_on_c, 11, 70, 100
12, 42917, Note_on_c, 11, 72, 100
12, 42924, Note_on_c, 11, 70, 0
12, 43009, Note_on_c, 11, 73, 100
12, 43013, Note_on_c, 11, 72, 0
12, 43092, Note_on_c, 11, 73, 0
12, 43108, Note_on_c, 11, 73, 100
12, 43188, Note_on_c, 11, 73, 0
12, 43203, Note_on_c, 11, 73, 100
12, 43286, Note_on_c, 11, 73, 0
12, 43301, Note_on_c, 11, 73, 100
12, 43336, Note_on_c, 11, 73, 0
12, 43353, Note_on_c, 11, 73, 100
12, 43389, Control_c, 11, 1, 2
12, 43390, Control_c, 11, 1, 4
12, 43391, Control_c, 11, 1, 6
12, 43393, Control_c, 11, 1, 8
12, 43394, Control_c, 11, 1, 10
12, 43395, Control_c, 11, 1, 12
12, 43396, Control_c, 11, 1, 13
12, 43397, Control_c, 11, 1, 16
12, 43397, Control_c, 11, 1, 19
12, 43400, Control_c, 11, 1, 20
12, 43405, Control_c, 11, 1, 23
12, 43409, Control_c, 11, 1, 25
12, 43412, Control_c, 11, 1, 27
12, 43415, Control_c, 11, 1, 29
12, 43422, Control_c, 11, 1, 31
12, 43478, Control_c, 11, 1, 29
12, 43480, Control_c, 11, 1, 27
12, 43482, Control_c, 11, 1, 25
12, 43485, Control_c, 11, 1, 22
12, 43487, Control_c, 11, 1, 20
12, 43489, Control_c, 11, 1, 17
12, 43491, Note_on_c, 11, 72, 100
12, 43491, Control_c, 11, 1, 15
12, 43493, Control_c, 11, 1, 13
12, 43493, Control_c, 11, 1, 11
12, 43495, Control_c, 11, 1, 9
12, 43497, Control_c, 11, 1, 7
12, 43497, Control_c, 11, 1, 5
12, 43499, Control_c, 11, 1, 3
12, 43501, Note_on_c, 11, 73, 0
12, 43501, Control_c, 11, 1, 1
12, 43501, Control_c, 11, 1, 0
12, 43586, Note_on_c, 11, 70, 100
12, 43597, Note_on_c, 11, 72, 0
12, 43683, Note_on_c, 11, 72, 100
12, 43693, Note_on_c, 11, 70, 0
12, 43780, Note_on_c, 11, 75, 100
12, 43782, Note_on_c, 11, 72, 0
12, 43831, Note_on_c, 11, 77, 100
12, 43841, Note_on_c, 11, 75, 0
12, 43868, Note_on_c, 11, 77, 0
12, 43881, Note_on_c, 11, 77, 100
12, 43911, Note_on_c, 11, 77, 0
12, 43927, Note_on_c, 11, 77, 100
12, 43956, Note_on_c, 11, 77, 0
12, 43981, Note_on_c, 11, 77, 100
12, 44012, Control_c, 11, 1, 2
12, 44014, Control_c, 11, 1, 4
12, 44015, Control_c, 11, 1, 6
12, 44016, Control_c, 11, 1, 8
12, 44017, Control_c, 11, 1, 10
12, 44018, Control_c, 11, 1, 12
12, 44020, Control_c, 11, 1, 13
12, 44021, Control_c, 11, 1, 15
12, 44024, Control_c, 11, 1, 18
12, 44025, Control_c, 11, 1, 20
12, 44027, Control_c, 11, 1, 23
12, 44031, Control_c, 11, 1, 25
12, 44034, Control_c, 11, 1, 27
12, 44039, Control_c, 11, 1, 29
12, 44061, Control_c, 11, 1, 27
12, 44064, Control_c, 11, 1, 25
12, 44066, Control_c, 11, 1, 23
12, 44067, Note_on_c, 11, 68, 100
12, 44068, Note_on_c, 11, 77, 0
12, 44069, Control_c, 11, 1, 20
12, 44071, Control_c, 11, 1, 18
12, 44073, Control_c, 11, 1, 15
12, 44075, Control_c, 11, 1, 13
12, 44078, Control_c, 11, 1, 10
12, 44080, Control_c, 11, 1, 6
12, 44081, Control_c, 11, 1, 5
12, 44082, Control_c, 11, 1, 3
12, 44084, Control_c, 11, 1, 1
12, 44085, Control_c, 11, 1, 0
12, 44100, Note_on_c, 11, 68, 0
12, 44122, Note_on_c, 11, 68, 100
12, 44159, Control_c, 11, 1, 3
12, 44160, Control_c, 11, 1, 6
12, 44161, Control_c, 11, 1, 9
12, 44163, Control_c, 11, 1, 12
12, 44164, Control_c, 11, 1, 15
12, 44165, Control_c, 11, 1, 17
12, 44166, Control_c, 11, 1, 19
12, 44167, Control_c, 11, 1, 21
12, 44169, Control_c, 11, 1, 24
12, 44170, Control_c, 11, 1, 26
12, 44182, Control_c, 11, 1, 27
12, 44196, Control_c, 11, 1, 26
12, 44201, Control_c, 11, 1, 24
12, 44204, Control_c, 11, 1, 22
12, 44208, Control_c, 11, 1, 20
12, 44211, Control_c, 11, 1, 17
12, 44213, Note_on_c, 11, 70, 100
12, 44214, Control_c, 11, 1, 15
12, 44217, Control_c, 11, 1, 12
12, 44219, Note_on_c, 11, 68, 0
12, 44220, Control_c, 11, 1, 10
12, 44222, Control_c, 11, 1, 8
12, 44224, Control_c, 11, 1, 5
12, 44226, Control_c, 11, 1, 3
12, 44228, Control_c, 11, 1, 0
12, 44240, Note_on_c, 11, 70, 0
12, 44262, Note_on_c, 11, 70, 100
12, 44327, Control_c, 11, 1, 1
12, 44330, Control_c, 11, 1, 3
12, 44333, Control_c, 11, 1, 5
12, 44336, Control_c, 11, 1, 7
12, 44340, Control_c, 11, 1, 9
12, 44344, Control_c, 11, 1, 11
12, 44349, Control_c, 11, 1, 13
12, 44354, Control_c, 11, 1, 15
12, 44358, Control_c, 11, 1, 17
12, 44370, Control_c, 11, 1, 19
12, 44381, Control_c, 11, 1, 20
12, 44397, Control_c, 11, 1, 22
12, 44454, Control_c, 11, 1, 20
12, 44457, Control_c, 11, 1, 19
12, 44460, Control_c, 11, 1, 16
12, 44463, Control_c, 11, 1, 13
12, 44464, Control_c, 11, 1, 11
12, 44466, Control_c, 11, 1, 8
12, 44469, Control_c, 11, 1, 6
12, 44471, Control_c, 11, 1, 3
12, 44473, Control_c, 11, 1, 0
12, 44477, Note_on_c, 11, 70, 0
12, 44503, Note_on_c, 11, 70, 100
12, 44553, Note_on_c, 11, 70, 0
12, 44553, Note_on_c, 11, 75, 100
12, 44584, Note_on_c, 11, 75, 0
12, 44601, Note_on_c, 11, 75, 100
12, 44627, Note_on_c, 11, 75, 0
12, 44647, Note_on_c, 11, 75, 100
12, 44675, Note_on_c, 11, 75, 0
12, 44693, Note_on_c, 11, 75, 100
12, 44719, Note_on_c, 11, 75, 0
12, 44740, Note_on_c, 11, 75, 100
12, 44828, Note_on_c, 11, 75, 0
12, 44831, Note_on_c, 11, 66, 100
12, 44931, Note_on_c, 11, 66, 0
12, 44931, Note_on_c, 11, 65, 100
12, 44963, Control_c, 11, 1, 3
12, 44964, Control_c, 11, 1, 5
12, 44965, Control_c, 11, 1, 7
12, 44966, Control_c, 11, 1, 10
12, 44968, Control_c, 11, 1, 12
12, 44969, Control_c, 11, 1, 13
12, 44970, Control_c, 11, 1, 15
12, 44972, Control_c, 11, 1, 18
12, 44975, Control_c, 11, 1, 20
12, 44977, Control_c, 11, 1, 22
12, 44982, Control_c, 11, 1, 24
12, 45028, Control_c, 11, 1, 22
12, 45029, Note_on_c, 11, 65, 0
12, 45032, Control_c, 11, 1, 20
12, 45033, Control_c, 11, 1, 19
12, 45036, Control_c, 11, 1, 16
12, 45038, Note_on_c, 11, 78, 100
12, 45039, Control_c, 11, 1, 13
12, 45040, Control_c, 11, 1, 12
12, 45041, Control_c, 11, 1, 10
12, 45043, Control_c, 11, 1, 6
12, 45045, Control_c, 11, 1, 3
12, 45047, Control_c, 11, 1, 1
12, 45048, Control_c, 11, 1, 0
12, 45128, Note_on_c, 11, 77, 100
12, 45136, Note_on_c, 11, 78, 0
12, 45232, Note_on_c, 11, 75, 100
12, 45235, Note_on_c, 11, 77, 0
12, 45269, Control_c, 11, 1, 1
12, 45273, Control_c, 11, 1, 3
12, 45276, Control_c, 11, 1, 5
12, 45279, Control_c, 11, 1, 7
12, 45285, Control_c, 11, 1, 9
12, 45289, Control_c, 11, 1, 11
12, 45292, Control_c, 11, 1, 13
12, 45296, Control_c, 11, 1, 15
12, 45300, Control_c, 11, 1, 17
12, 45304, Control_c, 11, 1, 19
12, 45306, Control_c, 11, 1, 20
12, 45309, Control_c, 11, 1, 22
12, 45313, Control_c, 11, 1, 24
12, 45316, Control_c, 11, 1, 26
12, 45320, Control_c, 11, 1, 28
12, 45321, Control_c, 11, 1, 30
12, 45333, Control_c, 11, 1, 32
12, 45421, Control_c, 11, 1, 30
12, 45422, Control_c, 11, 1, 28
12, 45424, Note_on_c, 11, 73, 100
12, 45425, Control_c, 11, 1, 26
12, 45428, Control_c, 11, 1, 23
12, 45430, Control_c, 11, 1, 20
12, 45431, Note_on_c, 11, 75, 0
12, 45432, Control_c, 11, 1, 18
12, 45434, Control_c, 11, 1, 15
12, 45437, Control_c, 11, 1, 12
12, 45439, Control_c, 11, 1, 9
12, 45440, Control_c, 11, 1, 7
12, 45442, Control_c, 11, 1, 5
12, 45444, Control_c, 11, 1, 2
12, 45447, Control_c, 11, 1, 0
12, 45521, Note_on_c, 11, 72, 100
12, 45526, Note_on_c, 11, 73, 0
12, 45611, Note_on_c, 11, 73, 100
12, 45618, Note_on_c, 11, 72, 0
12, 45661, Note_on_c, 11, 77, 100
12, 45664, Note_on_c, 11, 73, 0
12, 45697, Control_c, 11, 1, 3
12, 45699, Control_c, 11, 1, 5
12, 45700, Control_c, 11, 1, 6
12, 45701, Control_c, 11, 1, 8
12, 45702, Control_c, 11, 1, 10
12, 45704, Control_c, 11, 1, 13
12, 45705, Control_c, 11, 1, 15
12, 45706, Control_c, 11, 1, 17
12, 45712, Control_c, 11, 1, 19
12, 45715, Control_c, 11, 1, 21
12, 45718, Control_c, 11, 1, 23
12, 45725, Control_c, 11, 1, 25
12, 45736, Control_c, 11, 1, 27
12, 45798, Note_on_c, 11, 75, 100
12, 45806, Note_on_c, 11, 77, 0
12, 45837, Control_c, 11, 1, 25
12, 45841, Control_c, 11, 1, 23
12, 45842, Control_c, 11, 1, 21
12, 45845, Control_c, 11, 1, 19
12, 45847, Control_c, 11, 1, 17
12, 45849, Control_c, 11, 1, 15
12, 45851, Control_c, 11, 1, 13
12, 45854, Control_c, 11, 1, 11
12, 45856, Control_c, 11, 1, 9
12, 45858, Control_c, 11, 1, 7
12, 45861, Control_c, 11, 1, 5
12, 45863, Control_c, 11, 1, 2
12, 45865, Control_c, 11, 1, 0
12, 45894, Note_on_c, 11, 75, 0
12, 45896, Note_on_c, 11, 70, 100
12, 46000, Note_on_c, 11, 75, 100
12, 46009, Note_on_c, 11, 70, 0
12, 46142, Note_on_c, 11, 73, 100
12, 46148, Note_on_c, 11, 75, 0
12, 46167, Note_on_c, 11, 73, 0
12, 46183, Note_on_c, 11, 73, 100
12, 46209, Note_on_c, 11, 73, 0
12, 46226, Note_on_c, 11, 73, 100
12, 46250, Note_on_c, 11, 73, 0
12, 46278, Note_on_c, 11, 73, 100
12, 46297, Control_c, 11, 1, 3
12, 46298, Control_c, 11, 1, 6
12, 46300, Control_c, 11, 1, 8
12, 46300, Control_c, 11, 1, 11
12, 46302, Control_c, 11, 1, 13
12, 46303, Control_c, 11, 1, 16
12, 46304, Control_c, 11, 1, 18
12, 46306, Control_c, 11, 1, 20
12, 46308, Control_c, 11, 1, 22
12, 46310, Control_c, 11, 1, 25
12, 46313, Control_c, 11, 1, 27
12, 46316, Control_c, 11, 1, 29
12, 46322, Control_c, 11, 1, 31
12, 46352, Control_c, 11, 1, 29
12, 46356, Control_c, 11, 1, 27
12, 46359, Control_c, 11, 1, 25
12, 46363, Control_c, 11, 1, 23
12, 46367, Control_c, 11, 1, 21
12, 46369, Control_c, 11, 1, 19
12, 46370, Note_on_c, 11, 72, 100
12, 46371, Note_on_c, 11, 73, 0
12, 46372, Control_c, 11, 1, 17
12, 46374, Control_c, 11, 1, 15
12, 46376, Control_c, 11, 1, 13
12, 46378, Control_c, 11, 1, 10
12, 46380, Control_c, 11, 1, 8
12, 46382, Control_c, 11, 1, 5
12, 46385, Control_c, 11, 1, 3
12, 46387, Control_c, 11, 1, 0
12, 46399, Note_on_c, 11, 72, 0
12, 46424, Note_on_c, 11, 72, 100
12, 46454, Control_c, 11, 1, 2
12, 46455, Control_c, 11, 1, 4
12, 46457, Control_c, 11, 1, 6
12, 46458, Control_c, 11, 1, 8
12, 46459, Control_c, 11, 1, 10
12, 46460, Control_c, 11, 1, 12
12, 46462, Control_c, 11, 1, 13
12, 46464, Control_c, 11, 1, 16
12, 46466, Control_c, 11, 1, 18
12, 46469, Control_c, 11, 1, 20
12, 46472, Control_c, 11, 1, 22
12, 46473, Control_c, 11, 1, 24
12, 46482, Control_c, 11, 1, 26
12, 46495, Control_c, 11, 1, 27
12, 46520, Control_c, 11, 1, 29
12, 46548, Control_c, 11, 1, 27
12, 46553, Control_c, 11, 1, 26
12, 46556, Control_c, 11, 1, 24
12, 46559, Control_c, 11, 1, 22
12, 46561, Control_c, 11, 1, 20
12, 46562, Note_on_c, 11, 70, 100
12, 46563, Control_c, 11, 1, 18
12, 46566, Control_c, 11, 1, 16
12, 46568, Control_c, 11, 1, 13
12, 46570, Control_c, 11, 1, 11
12, 46572, Note_on_c, 11, 72, 0
12, 46572, Control_c, 11, 1, 9
12, 46573, Control_c, 11, 1, 7
12, 46575, Control_c, 11, 1, 5
12, 46576, Control_c, 11, 1, 3
12, 46578, Control_c, 11, 1, 0
12, 46592, Note_on_c, 11, 70, 0
12, 46613, Note_on_c, 11, 70, 100
12, 46642, Control_c, 11, 1, 1
12, 46644, Control_c, 11, 1, 4
12, 46645, Control_c, 11, 1, 6
12, 46646, Control_c, 11, 1, 8
12, 46648, Control_c, 11, 1, 10
12, 46649, Control_c, 11, 1, 12
12, 46650, Control_c, 11, 1, 14
12, 46651, Control_c, 11, 1, 16
12, 46654, Control_c, 11, 1, 19
12, 46656, Control_c, 11, 1, 20
12, 46658, Control_c, 11, 1, 22
12, 46662, Control_c, 11, 1, 24
12, 46670, Control_c, 11, 1, 26
12, 46708, Note_on_c, 11, 70, 0
12, 46708, Note_on_c, 11, 68, 100
12, 46719, Control_c, 11, 1, 24
12, 46721, Control_c, 11, 1, 22
12, 46724, Control_c, 11, 1, 20
12, 46727, Control_c, 11, 1, 18
12, 46729, Control_c, 11, 1, 16
12, 46731, Control_c, 11, 1, 13
12, 46732, Control_c, 11, 1, 12
12, 46733, Control_c, 11, 1, 10
12, 46735, Control_c, 11, 1, 8
12, 46736, Control_c, 11, 1, 6
12, 46737, Control_c, 11, 1, 4
12, 46740, Control_c, 11, 1, 1
12, 46740, Control_c, 11, 1, 0
12, 46857, Note_on_c, 11, 68, 0
12, 46857, Note_on_c, 11, 75, 100
12, 46907, Note_on_c, 11, 77, 100
12, 46919, Note_on_c, 11, 75, 0
12, 46943, Note_on_c, 11, 77, 0
12, 46959, Note_on_c, 11, 77, 100
12, 46986, Note_on_c, 11, 77, 0
12, 47008, Note_on_c, 11, 77, 100
12, 47038, Note_on_c, 11, 77, 0
12, 47058, Note_on_c, 11, 77, 100
12, 47084, Control_c, 11, 1, 2
12, 47086, Control_c, 11, 1, 5
12, 47088, Control_c, 11, 1, 7
12, 47088, Control_c, 11, 1, 10
12, 47090, Control_c, 11, 1, 12
12, 47091, Control_c, 11, 1, 14
12, 47092, Control_c, 11, 1, 17
12, 47094, Control_c, 11, 1, 19
12, 47095, Control_c, 11, 1, 21
12, 47097, Control_c, 11, 1, 23
12, 47100, Control_c, 11, 1, 25
12, 47103, Control_c, 11, 1, 27
12, 47129, Control_c, 11, 1, 25
12, 47132, Control_c, 11, 1, 22
12, 47135, Control_c, 11, 1, 20
12, 47138, Control_c, 11, 1, 19
12, 47140, Control_c, 11, 1, 17
12, 47141, Note_on_c, 11, 68, 100
12, 47142, Control_c, 11, 1, 15
12, 47144, Note_on_c, 11, 77, 0
12, 47145, Control_c, 11, 1, 12
12, 47147, Control_c, 11, 1, 9
12, 47150, Control_c, 11, 1, 6
12, 47151, Control_c, 11, 1, 4
12, 47153, Control_c, 11, 1, 1
12, 47154, Control_c, 11, 1, 0
12, 47173, Note_on_c, 11, 68, 0
12, 47192, Note_on_c, 11, 68, 100
12, 47223, Control_c, 11, 1, 3
12, 47224, Control_c, 11, 1, 5
12, 47226, Control_c, 11, 1, 8
12, 47227, Control_c, 11, 1, 10
12, 47228, Control_c, 11, 1, 13
12, 47230, Control_c, 11, 1, 15
12, 47230, Control_c, 11, 1, 17
12, 47233, Control_c, 11, 1, 19
12, 47235, Control_c, 11, 1, 22
12, 47238, Control_c, 11, 1, 24
12, 47241, Control_c, 11, 1, 26
12, 47271, Control_c, 11, 1, 24
12, 47276, Control_c, 11, 1, 22
12, 47279, Control_c, 11, 1, 20
12, 47282, Control_c, 11, 1, 18
12, 47283, Note_on_c, 11, 70, 100
12, 47284, Note_on_c, 11, 68, 0
12, 47285, Control_c, 11, 1, 16
12, 47288, Control_c, 11, 1, 13
12, 47290, Control_c, 11, 1, 12
12, 47293, Control_c, 11, 1, 9
12, 47295, Control_c, 11, 1, 6
12, 47297, Control_c, 11, 1, 4
12, 47298, Control_c, 11, 1, 2
12, 47300, Control_c, 11, 1, 0
12, 47310, Note_on_c, 11, 70, 0
12, 47331, Note_on_c, 11, 70, 100
12, 47369, Control_c, 11, 1, 2
12, 47371, Control_c, 11, 1, 5
12, 47373, Control_c, 11, 1, 7
12, 47376, Control_c, 11, 1, 9
12, 47379, Control_c, 11, 1, 11
12, 47382, Control_c, 11, 1, 13
12, 47387, Control_c, 11, 1, 15
12, 47391, Control_c, 11, 1, 17
12, 47397, Control_c, 11, 1, 19
12, 47404, Control_c, 11, 1, 20
12, 47410, Control_c, 11, 1, 22
12, 47418, Control_c, 11, 1, 24
12, 47430, Control_c, 11, 1, 26
12, 47471, Control_c, 11, 1, 24
12, 47493, Control_c, 11, 1, 22
12, 47503, Control_c, 11, 1, 20
12, 47506, Control_c, 11, 1, 19
12, 47508, Control_c, 11, 1, 17
12, 47511, Control_c, 11, 1, 15
12, 47513, Control_c, 11, 1, 12
12, 47515, Control_c, 11, 1, 10
12, 47517, Control_c, 11, 1, 8
12, 47518, Control_c, 11, 1, 6
12, 47520, Control_c, 11, 1, 3
12, 47521, Control_c, 11, 1, 1
12, 47522, Control_c, 11, 1, 0
12, 47546, Note_on_c, 11, 70, 0
12, 47569, Note_on_c, 11, 70, 100
12, 47618, Note_on_c, 11, 75, 100
12, 47623, Note_on_c, 11, 70, 0
12, 47644, Note_on_c, 11, 75, 0
12, 47666, Note_on_c, 11, 75, 100
12, 47691, Note_on_c, 11, 75, 0
12, 47716, Note_on_c, 11, 75, 100
12, 47738, Note_on_c, 11, 75, 0
12, 47763, Note_on_c, 11, 75, 100
12, 47786, Note_on_c, 11, 75, 0
12, 47812, Note_on_c, 11, 75, 100
12, 47906, Note_on_c, 11, 75, 0
12, 47907, Note_on_c, 11, 66, 100
12, 48005, Note_on_c, 11, 66, 0
12, 48007, Note_on_c, 11, 65, 100
12, 48103, Note_on_c, 11, 65, 0
12, 48110, Note_on_c, 11, 78, 100
12, 48201, Note_on_c, 11, 77, 100
12, 48213, Note_on_c, 11, 78, 0
12, 48303, Note_on_c, 11, 75, 100
12, 48313, Note_on_c, 11, 77, 0
12, 48342, Control_c, 11, 1, 1
12, 48343, Control_c, 11, 1, 3
12, 48345, Control_c, 11, 1, 6
12, 48347, Control_c, 11, 1, 8
12, 48349, Control_c, 11, 1, 11
12, 48352, Control_c, 11, 1, 13
12, 48354, Control_c, 11, 1, 15
12, 48356, Control_c, 11, 1, 17
12, 48359, Control_c, 11, 1, 19
12, 48362, Control_c, 11, 1, 20
12, 48366, Control_c, 11, 1, 22
12, 48369, Control_c, 11, 1, 24
12, 48373, Control_c, 11, 1, 26
12, 48381, Control_c, 11, 1, 28
12, 48413, Control_c, 11, 1, 26
12, 48418, Control_c, 11, 1, 24
12, 48422, Control_c, 11, 1, 22
12, 48426, Control_c, 11, 1, 20
12, 48429, Control_c, 11, 1, 19
12, 48432, Control_c, 11, 1, 17
12, 48437, Control_c, 11, 1, 14
12, 48440, Control_c, 11, 1, 12
12, 48442, Control_c, 11, 1, 10
12, 48444, Control_c, 11, 1, 7
12, 48447, Control_c, 11, 1, 5
12, 48447, Note_on_c, 11, 73, 100
12, 48448, Control_c, 11, 1, 3
12, 48450, Control_c, 11, 1, 1
12, 48451, Control_c, 11, 1, 0
12, 48460, Note_on_c, 11, 75, 0
12, 48476, Note_on_c, 11, 73, 0
12, 48491, Note_on_c, 11, 73, 100
12, 48523, Note_on_c, 11, 73, 0
12, 48536, Note_on_c, 11, 73, 100
12, 48586, Note_on_c, 11, 72, 100
12, 48588, Note_on_c, 11, 73, 0
12, 48677, Note_on_c, 11, 73, 100
12, 48686, Note_on_c, 11, 72, 0
12, 48728, Note_on_c, 11, 77, 100
12, 48735, Note_on_c, 11, 73, 0
12, 48757, Control_c, 11, 1, 3
12, 48758, Control_c, 11, 1, 5
12, 48760, Control_c, 11, 1, 6
12, 48761, Control_c, 11, 1, 8
12, 48762, Control_c, 11, 1, 10
12, 48763, Control_c, 11, 1, 12
12, 48766, Control_c, 11, 1, 15
12, 48768, Control_c, 11, 1, 17
12, 48771, Control_c, 11, 1, 19
12, 48774, Control_c, 11, 1, 20
12, 48777, Control_c, 11, 1, 22
12, 48789, Control_c, 11, 1, 24
12, 48878, Note_on_c, 11, 75, 100
12, 48880, Note_on_c, 11, 77, 0
12, 48919, Control_c, 11, 1, 22
12, 48925, Control_c, 11, 1, 20
12, 48928, Control_c, 11, 1, 19
12, 48931, Control_c, 11, 1, 16
12, 48934, Control_c, 11, 1, 14
12, 48936, Control_c, 11, 1, 12
12, 48938, Control_c, 11, 1, 9
12, 48940, Control_c, 11, 1, 6
12, 48943, Control_c, 11, 1, 3
12, 48945, Control_c, 11, 1, 0
12, 48969, Note_on_c, 11, 75, 0
12, 48969, Note_on_c, 11, 70, 100
12, 49065, Note_on_c, 11, 72, 100
12, 49072, Note_on_c, 11, 70, 0
12, 49157, Note_on_c, 11, 73, 100
12, 49161, Note_on_c, 11, 72, 0
12, 49240, Note_on_c, 11, 73, 0
12, 49256, Note_on_c, 11, 73, 100
12, 49336, Note_on_c, 11, 73, 0
12, 49351, Note_on_c, 11, 73, 100
12, 49434, Note_on_c, 11, 73, 0
12, 49449, Note_on_c, 11, 73, 100
12, 49484, Note_on_c, 11, 73, 0
12, 49501, Note_on_c, 11, 73, 100
12, 49537, Control_c, 11, 1, 2
12, 49538, Control_c, 11, 1, 4
12, 49539, Control_c, 11, 1, 6
12, 49541, Control_c, 11, 1, 8
12, 49542, Control_c, 11, 1, 10
12, 49543, Control_c, 11, 1, 12
12, 49544, Control_c, 11, 1, 13
12, 49545, Control_c, 11, 1, 16
12, 49545, Control_c, 11, 1, 19
12, 49548, Control_c, 11, 1, 20
12, 49553, Control_c, 11, 1, 23
12, 49557, Control_c, 11, 1, 25
12, 49560, Control_c, 11, 1, 27
12, 49563, Control_c, 11, 1, 29
12, 49570, Control_c, 11, 1, 31
12, 49626, Control_c, 11, 1, 29
12, 49628, Control_c, 11, 1, 27
12, 49630, Control_c, 11, 1, 25
12, 49633, Control_c, 11, 1, 22
12, 49635, Control_c, 11, 1, 20
12, 49637, Control_c, 11, 1, 17
12, 49639, Note_on_c, 11, 72, 100
12, 49639, Control_c, 11, 1, 15
12, 49641, Control_c, 11, 1, 13
12, 49641, Control_c, 11, 1, 11
12, 49643, Control_c, 11, 1, 9
12, 49645, Control_c, 11, 1, 7
12, 49645, Control_c, 11, 1, 5
12, 49647, Control_c, 11, 1, 3
12, 49649, Note_on_c, 11, 73, 0
12, 49649, Control_c, 11, 1, 1
12, 49649, Control_c, 11, 1, 0
12, 49734, Note_on_c, 11, 70, 100
12, 49745, Note_on_c, 11, 72, 0
12, 49831, Note_on_c, 11, 72, 100
12, 49841, Note_on_c, 11, 70, 0
12, 49928, Note_on_c, 11, 73, 100
12, 49930, Note_on_c, 11, 72, 0
12, 50256, Control_c, 11, 1, 1
12, 50264, Control_c, 11, 1, 3
12, 50269, Control_c, 11, 1, 5
12, 50278, Control_c, 11, 1, 7
12, 50284, Control_c, 11, 1, 9
12, 50289, Control_c, 11, 1, 11
12, 50294, Control_c, 11, 1, 13
12, 50299, Control_c, 11, 1, 15
12, 50304, Control_c, 11, 1, 17
12, 50309, Control_c, 11, 1, 19
12, 50313, Control_c, 11, 1, 20
12, 50319, Control_c, 11, 1, 22
12, 50323, Control_c, 11, 1, 24
12, 50329, Control_c, 11, 1, 26
12, 50335, Control_c, 11, 1, 28
12, 50341, Control_c, 11, 1, 30
12, 50346, Control_c, 11, 1, 32
12, 50354, Control_c, 11, 1, 34
12, 50358, Control_c, 11, 1, 36
12, 50369, Control_c, 11, 1, 38
12, 50378, Control_c, 11, 1, 40
12, 50390, Control_c, 11, 1, 41
12, 50398, Control_c, 11, 1, 43
12, 50406, Control_c, 11, 1, 45
12, 50426, Control_c, 11, 1, 47
12, 50438, Control_c, 11, 1, 49
12, 50452, Control_c, 11, 1, 51
12, 50468, Control_c, 11, 1, 53
12, 50487, Control_c, 11, 1, 55
12, 50510, Control_c, 11, 1, 53
12, 50515, Control_c, 11, 1, 51
12, 50517, Control_c, 11, 1, 49
12, 50519, Control_c, 11, 1, 47
12, 50521, Note_on_c, 11, 73, 0
12, 50521, Control_c, 11, 1, 45
12, 50524, Control_c, 11, 1, 42
12, 50526, Control_c, 11, 1, 40
12, 50528, Control_c, 11, 1, 37
12, 50531, Control_c, 11, 1, 34
12, 50533, Control_c, 11, 1, 32
12, 50534, Control_c, 11, 1, 30
12, 50536, Control_c, 11, 1, 27
12, 50537, Control_c, 11, 1, 26
12, 50538, Control_c, 11, 1, 24
12, 50540, Control_c, 11, 1, 22
12, 50542, Control_c, 11, 1, 19
12, 50543, Control_c, 11, 1, 17
12, 50544, Control_c, 11, 1, 15
12, 50546, Control_c, 11, 1, 13
12, 50547, Control_c, 11, 1, 11
12, 50548, Control_c, 11, 1, 9
12, 50550, Control_c, 11, 1, 7
12, 50550, Control_c, 11, 1, 5
12, 50552, Control_c, 11, 1, 3
12, 50553, Control_c, 11, 1, 1
12, 50554, Control_c, 11, 1, 0
12, 50554, End_track
0, 0, End_of_file
