0, 0, Header, 1, 2, 960
1, 0, Start_track
1, 0, Control_c, 0, 101, 0
1, 0, Control_c, 0, 100, 0
1, 0, Control_c, 0, 6, 12
1, 0, Control_c, 0, 38, 0
1, 0, Control_c, 1, 101, 0
1, 0, Control_c, 1, 100, 0
1, 0, Control_c, 1, 6, 12
1, 0, Control_c, 1, 38, 0
1, 0, Control_c, 2, 101, 0
1, 0, Control_c, 2, 100, 0
1, 0, Control_c, 2, 6, 12
1, 0, Control_c, 2, 38, 0
1, 0, Control_c, 3, 101, 0
1, 0, Control_c, 3, 100, 0
1, 0, Control_c, 3, 6, 12
1, 0, Control_c, 3, 38, 0
1, 0, Control_c, 4, 101, 0
1, 0, Control_c, 4, 100, 0
1, 0, Control_c, 4, 6, 12
1, 0, Control_c, 4, 38, 0
1, 0, Control_c, 5, 101, 0
1, 0, Control_c, 5, 100, 0
1, 0, Control_c, 5, 6, 12
1, 0, Control_c, 5, 38, 0
1, 0, Control_c, 6, 101, 0
1, 0, Control_c, 6, 100, 0
1, 0, Control_c, 6, 6, 12
1, 0, Control_c, 6, 38, 0
1, 0, Control_c, 7, 101, 0
1, 0, Control_c, 7, 100, 0
1, 0, Control_c, 7, 6, 12
1, 0, Control_c, 7, 38, 0
1, 0, Control_c, 8, 101, 0
1, 0, Control_c, 8, 100, 0
1, 0, Control_c, 8, 6, 12
1, 0, Control_c, 8, 38, 0
1, 0, Control_c, 9, 101, 0
1, 0, Control_c, 9, 100, 0
1, 0, Control_c, 9, 6, 12
1, 0, Control_c, 9, 38, 0
1, 0, Control_c, 10, 101, 0
1, 0, Control_c, 10, 100, 0
1, 0, Control_c, 10, 6, 12
1, 0, Control_c, 10, 38, 0
1, 0, Control_c, 11, 101, 0
1, 0, Control_c, 11, 100, 0
1, 0, Control_c, 11, 6, 12
1, 0, Control_c, 11, 38, 0
1, 0, Control_c, 12, 101, 0
1, 0, Control_c, 12, 100, 0
1, 0, Control_c, 12, 6, 12
1, 0, Control_c, 12, 38, 0
1, 0, Control_c, 13, 101, 0
1, 0, Control_c, 13, 100, 0
1, 0, Control_c, 13, 6, 12
1, 0, Control_c, 13, 38, 0
1, 0, Control_c, 14, 101, 0
1, 0, Control_c, 14, 100, 0
1, 0, Control_c, 14, 6, 12
1, 0, Control_c, 14, 38, 0
1, 0, Control_c, 15, 101, 0
1, 0, Control_c, 15, 100, 0
1, 0, Control_c, 15, 6, 12
1, 0, Control_c, 15, 38, 0
1, 0, Time_signature, 12, 2, 24, 8
1, 0, Tempo, 500000
1, 11520, Time_signature, 6, 2, 24, 8
1, 17280, Time_signature, 5, 2, 24, 8
1, 26880, Time_signature, 6, 2, 24, 8
1, 32640, Time_signature, 3, 3, 12, 8
1, 32640, End_track
2, 0, Start_track
2, 0, Pitch_bend_c, 0, 8192
2, 0, Control_c, 0, 7, 103
2, 0, Control_c, 0, 10, 63
2, 0, Control_c, 0, 93, 0
2, 0, Control_c, 0, 91, 0
2, 0, Control_c, 0, 95, 0
2, 0, Control_c, 0, 92, 0
2, 0, Control_c, 0, 11, 127
2, 0, Program_c, 0, 30
2, 0, Control_c, 1, 7, 103
2, 0, Control_c, 1, 10, 63
2, 0, Control_c, 1, 93, 0
2, 0, Control_c, 1, 91, 0
2, 0, Control_c, 1, 95, 0
2, 0, Control_c, 1, 92, 0
2, 0, Control_c, 1, 11, 127
2, 0, Program_c, 1, 30
2, 0, Note_on_c, 0, 71, 95
2, 480, Note_off_c, 0, 71, 95
2, 480, Note_on_c, 0, 72, 95
2, 960, Note_off_c, 0, 72, 95
2, 960, Note_on_c, 0, 64, 95
2, 1440, Note_off_c, 0, 64, 95
2, 1440, Note_on_c, 0, 75, 95
2, 1920, Note_off_c, 0, 75, 95
2, 1920, Note_on_c, 0, 74, 95
2, 2400, Note_off_c, 0, 74, 95
2, 2400, Note_on_c, 0, 64, 95
2, 2880, Note_off_c, 0, 64, 95
2, 2880, Note_on_c, 0, 81, 95
2, 3360, Note_off_c, 0, 81, 95
2, 3360, Note_on_c, 0, 80, 95
2, 3840, Note_off_c, 0, 80, 95
2, 3840, Note_on_c, 0, 64, 95
2, 4320, Note_off_c, 0, 64, 95
2, 4320, Note_on_c, 0, 67, 95
2, 4800, Note_off_c, 0, 67, 95
2, 4800, Note_on_c, 0, 66, 95
2, 5280, Note_off_c, 0, 66, 95
2, 5280, Note_on_c, 0, 64, 95
2, 5760, Note_off_c, 0, 64, 95
2, 5760, Note_on_c, 0, 68, 95
2, 6240, Note_off_c, 0, 68, 95
2, 6240, Note_on_c, 0, 67, 95
2, 6720, Note_off_c, 0, 67, 95
2, 6720, Note_on_c, 0, 64, 95
2, 7200, Note_off_c, 0, 64, 95
2, 7200, Note_on_c, 0, 69, 95
2, 7680, Note_off_c, 0, 69, 95
2, 7680, Note_on_c, 0, 68, 95
2, 8160, Note_off_c, 0, 68, 95
2, 8160, Note_on_c, 0, 64, 95
2, 8640, Note_off_c, 0, 64, 95
2, 8640, Note_on_c, 0, 70, 95
2, 9120, Note_off_c, 0, 70, 95
2, 9120, Note_on_c, 0, 69, 95
2, 9600, Note_off_c, 0, 69, 95
2, 9600, Note_on_c, 0, 64, 95
2, 10080, Note_off_c, 0, 64, 95
2, 10080, Note_on_c, 0, 71, 95
2, 10560, Note_off_c, 0, 71, 95
2, 10560, Note_on_c, 0, 70, 95
2, 11040, Note_off_c, 0, 70, 95
2, 11040, Note_on_c, 0, 64, 95
2, 11520, Note_off_c, 0, 64, 95
2, 11520, Note_on_c, 0, 70, 95
2, 12000, Note_off_c, 0, 70, 95
2, 12000, Note_on_c, 0, 69, 95
2, 12480, Note_off_c, 0, 69, 95
2, 12480, Note_on_c, 0, 59, 95
2, 12960, Note_off_c, 0, 59, 95
2, 12960, Note_on_c, 0, 60, 95
2, 13440, Note_off_c, 0, 60, 95
2, 13440, Note_on_c, 0, 59, 95
2, 13920, Note_off_c, 0, 59, 95
2, 13920, Note_on_c, 0, 50, 95
2, 14400, Note_off_c, 0, 50, 95
2, 14400, Note_on_c, 0, 78, 95
2, 14880, Note_off_c, 0, 78, 95
2, 14880, Note_on_c, 0, 77, 95
2, 15360, Note_off_c, 0, 77, 95
2, 15360, Note_on_c, 0, 64, 95
2, 15840, Note_off_c, 0, 64, 95
2, 15840, Note_on_c, 0, 70, 95
2, 16320, Note_off_c, 0, 70, 95
2, 16320, Note_on_c, 0, 69, 95
2, 16800, Note_off_c, 0, 69, 95
2, 16800, Note_on_c, 0, 55, 95
2, 17280, Note_off_c, 0, 55, 95
2, 17280, Note_on_c, 0, 75, 95
2, 17760, Note_off_c, 0, 75, 95
2, 17760, Note_on_c, 0, 74, 95
2, 18240, Note_off_c, 0, 74, 95
2, 18240, Note_on_c, 0, 64, 95
2, 18720, Note_off_c, 0, 64, 95
2, 18720, Note_on_c, 0, 71, 95
2, 19200, Note_off_c, 0, 71, 95
2, 19200, Note_on_c, 0, 70, 95
2, 19680, Note_off_c, 0, 70, 95
2, 19680, Note_on_c, 0, 59, 95
2, 20160, Note_off_c, 0, 59, 95
2, 20160, Note_on_c, 0, 69, 95
2, 20640, Note_off_c, 0, 69, 95
2, 20640, Note_on_c, 0, 68, 95
2, 21120, Note_off_c, 0, 68, 95
2, 21120, Note_on_c, 0, 55, 95
2, 21600, Note_off_c, 0, 55, 95
2, 21600, Note_on_c, 0, 58, 95
2, 22080, Note_off_c, 0, 58, 95
2, 22080, Note_on_c, 0, 57, 95
2, 22560, Note_off_c, 0, 57, 95
2, 22560, Note_on_c, 0, 50, 95
2, 23040, Note_off_c, 0, 50, 95
2, 23040, Note_on_c, 0, 52, 95
2, 23520, Note_off_c, 0, 52, 95
2, 23520, Note_on_c, 0, 51, 95
2, 24000, Note_off_c, 0, 51, 95
2, 24000, Note_on_c, 0, 45, 95
2, 24480, Note_off_c, 0, 45, 95
2, 24480, Note_on_c, 0, 46, 95
2, 24960, Note_off_c, 0, 46, 95
2, 24960, Note_on_c, 0, 45, 95
2, 25440, Note_off_c, 0, 45, 95
2, 25440, Note_on_c, 0, 40, 95
2, 25920, Note_off_c, 0, 40, 95
2, 25920, Note_on_c, 0, 42, 95
2, 26160, Note_off_c, 0, 42, 95
2, 26160, Note_on_c, 0, 43, 95
2, 26400, Note_off_c, 0, 43, 95
2, 26400, Note_on_c, 0, 42, 95
2, 26640, Note_off_c, 0, 42, 95
2, 26640, Note_on_c, 0, 43, 95
2, 26880, Note_off_c, 0, 43, 95
2, 26880, Note_on_c, 0, 42, 95
2, 27120, Note_off_c, 0, 42, 95
2, 27120, Note_on_c, 0, 43, 95
2, 27360, Note_off_c, 0, 43, 95
2, 27360, Note_on_c, 0, 42, 95
2, 27600, Note_off_c, 0, 42, 95
2, 27600, Note_on_c, 0, 43, 95
2, 27840, Note_off_c, 0, 43, 95
2, 27840, Note_on_c, 0, 47, 95
2, 28080, Note_off_c, 0, 47, 95
2, 28080, Note_on_c, 0, 46, 95
2, 28320, Note_off_c, 0, 46, 95
2, 28320, Note_on_c, 0, 47, 95
2, 28560, Note_off_c, 0, 47, 95
2, 28560, Note_on_c, 0, 46, 95
2, 28800, Note_off_c, 0, 46, 95
2, 28800, Note_on_c, 0, 71, 95
2, 29040, Note_off_c, 0, 71, 95
2, 29040, Note_on_c, 0, 70, 95
2, 29280, Note_off_c, 0, 70, 95
2, 29280, Note_on_c, 0, 71, 95
2, 29520, Note_off_c, 0, 71, 95
2, 29520, Note_on_c, 0, 70, 95
2, 29760, Note_off_c, 0, 70, 95
2, 29760, Note_on_c, 0, 63, 95
2, 30000, Note_off_c, 0, 63, 95
2, 30000, Note_on_c, 0, 62, 95
2, 30240, Note_off_c, 0, 62, 95
2, 30240, Note_on_c, 0, 63, 95
2, 30480, Note_off_c, 0, 63, 95
2, 30480, Note_on_c, 0, 62, 95
2, 30720, Note_off_c, 0, 62, 95
2, 30720, Note_on_c, 0, 67, 95
2, 30960, Note_off_c, 0, 67, 95
2, 30960, Note_on_c, 0, 66, 95
2, 31200, Note_off_c, 0, 66, 95
2, 31200, Note_on_c, 0, 67, 95
2, 31440, Note_off_c, 0, 67, 95
2, 31440, Note_on_c, 0, 66, 95
2, 31680, Note_off_c, 0, 66, 95
2, 31680, Note_on_c, 0, 63, 95
2, 31920, Note_off_c, 0, 63, 95
2, 31920, Note_on_c, 0, 62, 95
2, 32160, Note_off_c, 0, 62, 95
2, 32160, Note_on_c, 0, 63, 95
2, 32400, Note_off_c, 0, 63, 95
2, 32400, Note_on_c, 0, 62, 95
2, 32640, Note_off_c, 0, 62, 95
2, 32640, Note_on_c, 0, 42, 95
2, 32880, Note_off_c, 0, 42, 95
2, 32880, Note_on_c, 0, 53, 95
2, 33120, Note_off_c, 0, 53, 95
2, 33120, Note_on_c, 0, 61, 95
2, 33360, Note_off_c, 0, 61, 95
2, 33360, Note_on_c, 0, 63, 95
2, 33600, Note_off_c, 0, 63, 95
2, 33600, Note_on_c, 0, 62, 95
2, 33840, Note_off_c, 0, 62, 95
2, 33840, Note_on_c, 0, 64, 95
2, 34080, Note_off_c, 0, 64, 95
2, 34080, Note_on_c, 0, 48, 95
2, 34320, Note_off_c, 0, 48, 95
2, 34320, Note_on_c, 0, 44, 95
2, 34560, Note_off_c, 0, 44, 95
2, 34560, Note_on_c, 0, 61, 95
2, 34800, Note_off_c, 0, 61, 95
2, 34800, Note_on_c, 0, 48, 95
2, 35040, Note_off_c, 0, 48, 95
2, 35040, Note_on_c, 0, 61, 95
2, 35280, Note_off_c, 0, 61, 95
2, 35280, Note_on_c, 0, 48, 95
2, 35520, Note_off_c, 0, 48, 95
2, 35520, Note_on_c, 1, 61, 95
2, 35640, Pitch_bend_c, 1, 8448
2, 35760, Pitch_bend_c, 1, 8832
2, 35760, Pitch_bend_c, 1, 8192
2, 35760, Note_off_c, 1, 61, 95
2, 35760, Note_on_c, 0, 62, 95
2, 36000, Note_off_c, 0, 62, 95
2, 36000, Note_on_c, 1, 60, 95
2, 36120, Pitch_bend_c, 1, 8448
2, 36240, Pitch_bend_c, 1, 8832
2, 36240, Pitch_bend_c, 1, 8192
2, 36240, Note_off_c, 1, 60, 95
2, 36240, Note_on_c, 0, 61, 95
2, 36480, Note_off_c, 0, 61, 95
2, 36480, Note_on_c, 1, 61, 95
2, 36600, Pitch_bend_c, 1, 8448
2, 36720, Pitch_bend_c, 1, 8832
2, 36720, Pitch_bend_c, 1, 8192
2, 36720, Note_off_c, 1, 61, 95
2, 36720, Note_on_c, 0, 62, 95
2, 36960, Note_off_c, 0, 62, 95
2, 36960, Note_on_c, 1, 60, 95
2, 37080, Pitch_bend_c, 1, 8448
2, 37200, Pitch_bend_c, 1, 8832
2, 37200, Pitch_bend_c, 1, 8192
2, 37200, Note_off_c, 1, 60, 95
2, 37200, Note_on_c, 0, 61, 95
2, 37440, Note_off_c, 0, 61, 95
2, 37440, Note_on_c, 0, 62, 95
2, 37680, Note_off_c, 0, 62, 95
2, 37680, Note_on_c, 0, 61, 95
2, 37920, Note_off_c, 0, 61, 95
2, 37920, Note_on_c, 0, 48, 95
2, 38160, Note_off_c, 0, 48, 95
2, 38160, Note_on_c, 0, 61, 95
2, 38400, Note_off_c, 0, 61, 95
2, 38400, Note_on_c, 0, 48, 95
2, 39840, Note_off_c, 0, 48, 95
2, 39840, End_track
0, 0, End_of_file
