0, 0, Header, 1, 4, 960
1, 0, Start_track
1, 0, Control_c, 0, 101, 0
1, 0, Control_c, 0, 100, 0
1, 0, Control_c, 0, 6, 12
1, 0, Control_c, 0, 38, 0
1, 0, Control_c, 1, 101, 0
1, 0, Control_c, 1, 100, 0
1, 0, Control_c, 1, 6, 12
1, 0, Control_c, 1, 38, 0
1, 0, Control_c, 2, 101, 0
1, 0, Control_c, 2, 100, 0
1, 0, Control_c, 2, 6, 12
1, 0, Control_c, 2, 38, 0
1, 0, Control_c, 3, 101, 0
1, 0, Control_c, 3, 100, 0
1, 0, Control_c, 3, 6, 12
1, 0, Control_c, 3, 38, 0
1, 0, Control_c, 4, 101, 0
1, 0, Control_c, 4, 100, 0
1, 0, Control_c, 4, 6, 12
1, 0, Control_c, 4, 38, 0
1, 0, Control_c, 5, 101, 0
1, 0, Control_c, 5, 100, 0
1, 0, Control_c, 5, 6, 12
1, 0, Control_c, 5, 38, 0
1, 0, Control_c, 6, 101, 0
1, 0, Control_c, 6, 100, 0
1, 0, Control_c, 6, 6, 12
1, 0, Control_c, 6, 38, 0
1, 0, Control_c, 7, 101, 0
1, 0, Control_c, 7, 100, 0
1, 0, Control_c, 7, 6, 12
1, 0, Control_c, 7, 38, 0
1, 0, Control_c, 8, 101, 0
1, 0, Control_c, 8, 100, 0
1, 0, Control_c, 8, 6, 12
1, 0, Control_c, 8, 38, 0
1, 0, Control_c, 9, 101, 0
1, 0, Control_c, 9, 100, 0
1, 0, Control_c, 9, 6, 12
1, 0, Control_c, 9, 38, 0
1, 0, Control_c, 10, 101, 0
1, 0, Control_c, 10, 100, 0
1, 0, Control_c, 10, 6, 12
1, 0, Control_c, 10, 38, 0
1, 0, Control_c, 11, 101, 0
1, 0, Control_c, 11, 100, 0
1, 0, Control_c, 11, 6, 12
1, 0, Control_c, 11, 38, 0
1, 0, Control_c, 12, 101, 0
1, 0, Control_c, 12, 100, 0
1, 0, Control_c, 12, 6, 12
1, 0, Control_c, 12, 38, 0
1, 0, Control_c, 13, 101, 0
1, 0, Control_c, 13, 100, 0
1, 0, Control_c, 13, 6, 12
1, 0, Control_c, 13, 38, 0
1, 0, Control_c, 14, 101, 0
1, 0, Control_c, 14, 100, 0
1, 0, Control_c, 14, 6, 12
1, 0, Control_c, 14, 38, 0
1, 0, Control_c, 15, 101, 0
1, 0, Control_c, 15, 100, 0
1, 0, Control_c, 15, 6, 12
1, 0, Control_c, 15, 38, 0
1, 0, Time_signature, 4, 2, 24, 8
1, 0, Tempo, 277777
1, 0, End_track
2, 0, Start_track
2, 0, Pitch_bend_c, 0, 8192
2, 0, Control_c, 0, 7, 103
2, 0, Control_c, 0, 10, 63
2, 0, Control_c, 0, 93, 0
2, 0, Control_c, 0, 91, 0
2, 0, Control_c, 0, 95, 0
2, 0, Control_c, 0, 92, 0
2, 0, Control_c, 0, 11, 127
2, 0, Program_c, 0, 26
2, 0, Control_c, 1, 7, 103
2, 0, Control_c, 1, 10, 63
2, 0, Control_c, 1, 93, 0
2, 0, Control_c, 1, 91, 0
2, 0, Control_c, 1, 95, 0
2, 0, Control_c, 1, 92, 0
2, 0, Control_c, 1, 11, 127
2, 0, Program_c, 1, 26
2, 1920, Note_on_c, 0, 51, 95
2, 2400, Note_off_c, 0, 51, 95
2, 2400, Note_on_c, 0, 53, 54
2, 3360, Note_off_c, 0, 53, 54
2, 3360, Note_on_c, 0, 53, 63
2, 3840, Note_off_c, 0, 53, 63
2, 3840, Note_on_c, 0, 46, 95
2, 4800, Note_off_c, 0, 46, 95
2, 4800, Note_on_c, 0, 53, 95
2, 5280, Note_off_c, 0, 53, 95
2, 5280, Note_on_c, 0, 53, 63
2, 5760, Note_off_c, 0, 53, 63
2, 5760, Note_on_c, 0, 61, 47
2, 5760, Note_on_c, 0, 56, 95
2, 5760, Note_on_c, 0, 53, 63
2, 6240, Note_off_c, 0, 56, 95
2, 6240, Note_on_c, 0, 58, 70
2, 6720, Note_off_c, 0, 61, 47
2, 6720, Note_off_c, 0, 53, 63
2, 6720, Note_off_c, 0, 58, 70
2, 6720, Note_on_c, 0, 53, 95
2, 7200, Note_off_c, 0, 53, 95
2, 7200, Note_on_c, 0, 53, 63
2, 7680, Note_off_c, 0, 53, 63
2, 7680, Note_on_c, 0, 61, 47
2, 7680, Note_on_c, 0, 56, 95
2, 7680, Note_on_c, 0, 53, 63
2, 8160, Note_off_c, 0, 56, 95
2, 8160, Note_on_c, 0, 58, 70
2, 8640, Note_off_c, 0, 61, 47
2, 8640, Note_off_c, 0, 53, 63
2, 8640, Note_off_c, 0, 58, 70
2, 8640, Note_on_c, 0, 53, 95
2, 9120, Note_off_c, 0, 53, 95
2, 9120, Note_on_c, 0, 53, 63
2, 9600, Note_off_c, 0, 53, 63
2, 9600, Note_on_c, 0, 61, 47
2, 9600, Note_on_c, 0, 56, 95
2, 9600, Note_on_c, 0, 53, 63
2, 10080, Note_off_c, 0, 56, 95
2, 10080, Note_on_c, 0, 58, 70
2, 10560, Note_off_c, 0, 61, 47
2, 10560, Note_off_c, 0, 53, 63
2, 10560, Note_off_c, 0, 58, 70
2, 10560, Note_on_c, 0, 53, 95
2, 11040, Note_off_c, 0, 53, 95
2, 11040, Note_on_c, 0, 53, 63
2, 11520, Note_off_c, 0, 53, 63
2, 11520, Note_on_c, 0, 61, 47
2, 11520, Note_on_c, 0, 56, 95
2, 11520, Note_on_c, 0, 53, 63
2, 12000, Note_off_c, 0, 56, 95
2, 12000, Note_on_c, 0, 58, 70
2, 12480, Note_off_c, 0, 61, 47
2, 12480, Note_off_c, 0, 53, 63
2, 12480, Note_off_c, 0, 58, 70
2, 12480, Note_on_c, 0, 53, 95
2, 12960, Note_off_c, 0, 53, 95
2, 12960, Note_on_c, 0, 53, 63
2, 13440, Note_off_c, 0, 53, 63
2, 13440, Note_on_c, 0, 61, 47
2, 13440, Note_on_c, 0, 56, 95
2, 13440, Note_on_c, 0, 53, 63
2, 13920, Note_off_c, 0, 56, 95
2, 13920, Note_on_c, 0, 58, 70
2, 14400, Note_off_c, 0, 61, 47
2, 14400, Note_off_c, 0, 53, 63
2, 14400, Note_off_c, 0, 58, 70
2, 14400, Note_on_c, 0, 53, 95
2, 14880, Note_off_c, 0, 53, 95
2, 14880, Note_on_c, 0, 53, 63
2, 15360, Note_off_c, 0, 53, 63
2, 15360, Note_on_c, 0, 61, 47
2, 15360, Note_on_c, 0, 56, 95
2, 15360, Note_on_c, 0, 53, 63
2, 15840, Note_off_c, 0, 56, 95
2, 15840, Note_on_c, 0, 58, 70
2, 16320, Note_off_c, 0, 61, 47
2, 16320, Note_off_c, 0, 53, 63
2, 16320, Note_off_c, 0, 58, 70
2, 16320, Note_on_c, 0, 53, 95
2, 16800, Note_off_c, 0, 53, 95
2, 16800, Note_on_c, 0, 53, 63
2, 17280, Note_off_c, 0, 53, 63
2, 17280, Note_on_c, 0, 61, 47
2, 17280, Note_on_c, 0, 56, 95
2, 17280, Note_on_c, 0, 53, 63
2, 17760, Note_off_c, 0, 56, 95
2, 17760, Note_on_c, 0, 58, 70
2, 18240, Note_off_c, 0, 61, 47
2, 18240, Note_off_c, 0, 53, 63
2, 18240, Note_off_c, 0, 58, 70
2, 18240, Note_on_c, 0, 51, 95
2, 18348, Note_off_c, 0, 51, 95
2, 19200, Note_on_c, 0, 51, 95
2, 19416, Note_off_c, 0, 51, 95
2, 19680, Note_on_c, 0, 70, 95
2, 20160, Note_on_c, 0, 55, 95
2, 20376, Note_off_c, 0, 55, 95
2, 20640, Note_off_c, 0, 70, 95
2, 20640, Note_on_c, 0, 65, 95
2, 21120, Note_off_c, 0, 65, 95
2, 21120, Note_on_c, 0, 70, 95
2, 21120, Note_on_c, 0, 46, 95
2, 21336, Note_off_c, 0, 46, 95
2, 22080, Note_off_c, 0, 70, 95
2, 22080, Note_on_c, 0, 65, 95
2, 22080, Note_on_c, 0, 55, 95
2, 22296, Note_off_c, 0, 55, 95
2, 23040, Note_off_c, 0, 65, 95
2, 23040, Note_on_c, 0, 70, 95
2, 23040, Note_on_c, 0, 44, 95
2, 23256, Note_off_c, 0, 44, 95
2, 24000, Note_off_c, 0, 70, 95
2, 24000, Note_on_c, 0, 68, 95
2, 24000, Note_on_c, 0, 54, 95
2, 24216, Note_off_c, 0, 54, 95
2, 24480, Note_on_c, 0, 64, 95
2, 24960, Note_off_c, 0, 68, 95
2, 24960, Note_on_c, 0, 44, 95
2, 25176, Note_off_c, 0, 44, 95
2, 25920, Note_off_c, 0, 64, 95
2, 25920, Note_on_c, 0, 65, 95
2, 25920, Note_on_c, 0, 54, 95
2, 26136, Note_off_c, 0, 54, 95
2, 26880, Note_off_c, 0, 65, 95
2, 26880, Note_on_c, 0, 61, 95
2, 27360, Note_off_c, 0, 61, 95
2, 27840, Note_on_c, 0, 63, 95
2, 28160, Note_off_c, 0, 63, 95
2, 28160, Note_on_c, 0, 62, 70
2, 28480, Note_off_c, 0, 62, 70
2, 28480, Note_on_c, 0, 60, 70
2, 28800, Note_off_c, 0, 60, 70
2, 28800, Note_on_c, 0, 59, 95
2, 29120, Note_off_c, 0, 59, 95
2, 29120, Note_on_c, 0, 58, 70
2, 29440, Note_off_c, 0, 58, 70
2, 29440, Note_on_c, 0, 56, 70
2, 29760, Note_off_c, 0, 56, 70
2, 29760, Note_on_c, 0, 54, 95
2, 30080, Note_off_c, 0, 54, 95
2, 30080, Note_on_c, 0, 53, 70
2, 30400, Note_off_c, 0, 53, 70
2, 30400, Note_on_c, 0, 51, 70
2, 30720, Note_off_c, 0, 51, 70
2, 30720, Note_on_c, 0, 49, 95
2, 31680, Note_off_c, 0, 49, 95
2, 31680, Note_on_c, 0, 44, 95
2, 32640, Note_off_c, 0, 44, 95
2, 32640, Note_on_c, 0, 46, 95
2, 33600, Note_off_c, 0, 46, 95
2, 33600, Note_on_c, 0, 48, 95
2, 34560, Note_off_c, 0, 48, 95
2, 34560, Note_on_c, 0, 70, 95
2, 34560, Note_on_c, 0, 49, 95
2, 34776, Note_off_c, 0, 49, 95
2, 35520, Note_off_c, 0, 70, 95
2, 35520, Note_on_c, 0, 68, 95
2, 35520, Note_on_c, 0, 65, 47
2, 35520, Note_on_c, 0, 61, 95
2, 35736, Note_off_c, 0, 61, 95
2, 36000, Note_off_c, 0, 65, 47
2, 36480, Note_off_c, 0, 68, 95
2, 36480, Note_on_c, 0, 70, 95
2, 36480, Note_on_c, 0, 49, 95
2, 36696, Note_off_c, 0, 49, 95
2, 36960, Note_off_c, 0, 70, 95
2, 36960, Note_on_c, 0, 68, 95
2, 37440, Note_on_c, 0, 65, 47
2, 37440, Note_on_c, 0, 61, 95
2, 37656, Note_off_c, 0, 61, 95
2, 37920, Note_off_c, 0, 68, 95
2, 37920, Note_on_c, 0, 70, 95
2, 38400, Note_on_c, 0, 48, 95
2, 38616, Note_off_c, 0, 48, 95
2, 38880, Note_off_c, 0, 70, 95
2, 38880, Note_on_c, 0, 68, 95
2, 39360, Note_on_c, 0, 60, 95
2, 39576, Note_off_c, 0, 60, 95
2, 39840, Note_off_c, 0, 68, 95
2, 39840, Note_on_c, 0, 70, 95
2, 40320, Note_on_c, 0, 48, 95
2, 40536, Note_off_c, 0, 48, 95
2, 40800, Note_off_c, 0, 70, 95
2, 40800, Note_on_c, 0, 68, 95
2, 41280, Note_on_c, 0, 60, 95
2, 41496, Note_off_c, 0, 60, 95
2, 41760, Note_off_c, 0, 68, 95
2, 42240, Note_off_c, 0, 65, 47
2, 42240, Note_on_c, 0, 65, 95
2, 42240, Note_on_c, 0, 61, 95
2, 42240, Note_on_c, 0, 49, 95
2, 42456, Note_off_c, 0, 49, 95
2, 43200, Note_on_c, 0, 53, 95
2, 43416, Note_off_c, 0, 53, 95
2, 44160, Note_on_c, 0, 44, 95
2, 44376, Note_off_c, 0, 44, 95
2, 45120, Note_off_c, 0, 65, 95
2, 45120, Note_off_c, 0, 61, 95
2, 45120, Note_on_c, 0, 53, 95
2, 45336, Note_off_c, 0, 53, 95
2, 45600, Note_on_c, 0, 49, 95
2, 46080, Note_off_c, 0, 49, 95
2, 46560, Note_on_c, 0, 49, 95
2, 47040, Note_off_c, 0, 49, 95
2, 47040, Note_on_c, 0, 48, 95
2, 48000, Note_off_c, 0, 48, 95
2, 48000, Note_on_c, 0, 46, 95
2, 48960, Note_off_c, 0, 46, 95
2, 48960, Note_on_c, 0, 44, 95
2, 49920, Note_off_c, 0, 44, 95
2, 49920, Note_on_c, 0, 51, 95
2, 50136, Note_off_c, 0, 51, 95
2, 50400, Note_on_c, 0, 65, 95
2, 50880, Note_on_c, 0, 55, 95
2, 51096, Note_off_c, 0, 55, 95
2, 51360, Note_off_c, 0, 65, 95
2, 51360, Note_on_c, 0, 63, 95
2, 51840, Note_on_c, 0, 65, 95
2, 51840, Note_on_c, 0, 46, 95
2, 52056, Note_off_c, 0, 46, 95
2, 52320, Note_off_c, 0, 63, 95
2, 52800, Note_off_c, 0, 65, 95
2, 52800, Note_on_c, 0, 63, 95
2, 52800, Note_on_c, 0, 55, 95
2, 53016, Note_off_c, 0, 55, 95
2, 53280, Note_off_c, 0, 63, 95
2, 53760, Note_on_c, 0, 65, 95
2, 53760, Note_on_c, 0, 51, 95
2, 53976, Note_off_c, 0, 51, 95
2, 54720, Note_off_c, 0, 65, 95
2, 54720, Note_on_c, 0, 63, 95
2, 54720, Note_on_c, 0, 55, 95
2, 54936, Note_off_c, 0, 55, 95
2, 55200, Note_off_c, 0, 63, 95
2, 55680, Note_on_c, 0, 65, 95
2, 55680, Note_on_c, 0, 46, 95
2, 55896, Note_off_c, 0, 46, 95
2, 56640, Note_off_c, 0, 65, 95
2, 56640, Note_on_c, 0, 63, 95
2, 56640, Note_on_c, 0, 55, 95
2, 56856, Note_off_c, 0, 55, 95
2, 57120, Note_off_c, 0, 63, 95
2, 57600, Note_on_c, 0, 58, 95
2, 57600, Note_on_c, 0, 43, 95
2, 57816, Note_off_c, 0, 43, 95
2, 58560, Note_on_c, 0, 51, 95
2, 58776, Note_off_c, 0, 51, 95
2, 59520, Note_on_c, 0, 46, 95
2, 59736, Note_off_c, 0, 46, 95
2, 60480, Note_on_c, 0, 51, 95
2, 60696, Note_off_c, 0, 51, 95
2, 61440, Note_off_c, 0, 58, 95
2, 61440, Note_on_c, 0, 43, 95
2, 62080, Note_off_c, 0, 43, 95
2, 62080, Note_on_c, 0, 51, 63
2, 62400, Note_on_c, 0, 51, 95
2, 63040, Note_off_c, 0, 51, 63
2, 63040, Note_on_c, 0, 51, 63
2, 63360, Note_off_c, 0, 51, 95
2, 63360, Note_on_c, 0, 50, 95
2, 64000, Note_off_c, 0, 51, 63
2, 64000, Note_on_c, 0, 51, 63
2, 64320, Note_off_c, 0, 50, 95
2, 64320, Note_on_c, 0, 49, 95
2, 64960, Note_off_c, 0, 51, 63
2, 64960, Note_on_c, 0, 51, 63
2, 65280, Note_off_c, 0, 49, 95
2, 65280, Note_on_c, 0, 48, 95
2, 65760, Note_off_c, 0, 51, 63
2, 65760, Note_off_c, 0, 48, 95
2, 66240, Note_on_c, 0, 56, 95
2, 66240, Note_on_c, 0, 54, 95
2, 66456, Note_off_c, 0, 54, 95
2, 67200, Note_off_c, 0, 56, 95
2, 67200, Note_on_c, 0, 58, 95
2, 67200, Note_on_c, 0, 44, 95
2, 67416, Note_off_c, 0, 44, 95
2, 67680, Note_on_c, 0, 60, 95
2, 68160, Note_on_c, 0, 54, 95
2, 68376, Note_off_c, 0, 54, 95
2, 69120, Note_off_c, 0, 58, 95
2, 69120, Note_off_c, 0, 60, 95
2, 69120, Note_on_c, 0, 68, 95
2, 69120, Note_on_c, 0, 48, 95
2, 69336, Note_off_c, 0, 48, 95
2, 69600, Note_on_c, 0, 60, 95
2, 70080, Note_off_c, 0, 68, 95
2, 70080, Note_on_c, 0, 54, 95
2, 70296, Note_off_c, 0, 54, 95
2, 70560, Note_off_c, 0, 60, 95
2, 70560, Note_on_c, 0, 68, 95
2, 71040, Note_on_c, 0, 44, 95
2, 71256, Note_off_c, 0, 44, 95
2, 72000, Note_off_c, 0, 68, 95
2, 72000, Note_on_c, 0, 58, 47
2, 72000, Note_on_c, 0, 54, 95
2, 72216, Note_off_c, 0, 54, 95
2, 72480, Note_off_c, 0, 58, 47
2, 72960, Note_on_c, 0, 61, 95
2, 72960, Note_on_c, 0, 49, 95
2, 73176, Note_off_c, 0, 49, 95
2, 73440, Note_off_c, 0, 61, 95
2, 73920, Note_on_c, 0, 61, 95
2, 73920, Note_on_c, 0, 53, 95
2, 74136, Note_off_c, 0, 53, 95
2, 74400, Note_off_c, 0, 61, 95
2, 74880, Note_on_c, 0, 61, 95
2, 74880, Note_on_c, 0, 44, 95
2, 75096, Note_off_c, 0, 44, 95
2, 75360, Note_on_c, 0, 65, 95
2, 75840, Note_off_c, 0, 61, 95
2, 75840, Note_on_c, 0, 53, 95
2, 76056, Note_off_c, 0, 53, 95
2, 76320, Note_off_c, 0, 65, 95
2, 76800, Note_on_c, 0, 68, 95
2, 76800, Note_on_c, 0, 49, 95
2, 77016, Note_off_c, 0, 49, 95
2, 77280, Note_on_c, 0, 61, 95
2, 77760, Note_off_c, 0, 68, 95
2, 77760, Note_on_c, 0, 53, 95
2, 77976, Note_off_c, 0, 53, 95
2, 78240, Note_off_c, 0, 61, 95
2, 78240, Note_on_c, 0, 68, 95
2, 78720, Note_on_c, 0, 44, 95
2, 78936, Note_off_c, 0, 44, 95
2, 79680, Note_off_c, 0, 68, 95
2, 79680, Note_on_c, 0, 53, 95
2, 79896, Note_off_c, 0, 53, 95
2, 80640, Note_on_c, 0, 51, 63
2, 80700, Note_on_c, 0, 58, 63
2, 80760, Note_on_c, 0, 63, 95
2, 81600, Note_off_c, 0, 63, 95
2, 81600, Note_off_c, 0, 58, 63
2, 81600, Note_off_c, 0, 51, 63
2, 81600, Note_on_c, 0, 63, 95
2, 82560, Note_off_c, 0, 63, 95
2, 82560, Note_on_c, 0, 63, 95
2, 83200, Note_off_c, 0, 63, 95
2, 83200, Note_on_c, 0, 65, 95
2, 83520, Note_off_c, 0, 65, 95
2, 83520, Note_on_c, 0, 67, 95
2, 84160, Note_off_c, 0, 67, 95
2, 84160, Note_on_c, 0, 68, 95
2, 84480, Note_off_c, 0, 68, 95
2, 84480, Note_on_c, 0, 70, 95
2, 85440, Note_off_c, 0, 70, 95
2, 85440, Note_on_c, 0, 67, 95
2, 86400, Note_off_c, 0, 67, 95
2, 86400, Note_on_c, 0, 65, 95
2, 87360, Note_off_c, 0, 65, 95
2, 87360, Note_on_c, 0, 63, 95
2, 88320, Note_off_c, 0, 63, 95
2, 88320, Note_on_c, 0, 60, 95
2, 88380, Note_on_c, 0, 63, 95
2, 88440, Note_on_c, 0, 68, 95
2, 89280, Note_off_c, 0, 68, 95
2, 89280, Note_off_c, 0, 63, 95
2, 89280, Note_off_c, 0, 60, 95
2, 89280, Note_on_c, 0, 70, 95
2, 90240, Note_off_c, 0, 70, 95
2, 90240, Note_on_c, 0, 58, 95
2, 90300, Note_on_c, 0, 61, 95
2, 90360, Note_on_c, 0, 66, 95
2, 91200, Note_off_c, 0, 66, 95
2, 91200, Note_off_c, 0, 61, 95
2, 91200, Note_off_c, 0, 58, 95
2, 91200, Note_on_c, 0, 68, 95
2, 92160, Note_off_c, 0, 68, 95
2, 92160, Note_on_c, 0, 65, 95
2, 92160, Note_on_c, 0, 60, 95
2, 92160, Note_on_c, 0, 56, 95
2, 93120, Note_off_c, 0, 65, 95
2, 93120, Note_off_c, 0, 60, 95
2, 93120, Note_off_c, 0, 56, 95
2, 93120, Note_on_c, 0, 64, 95
2, 93120, Note_on_c, 0, 61, 95
2, 93120, Note_on_c, 0, 55, 95
2, 94080, Note_off_c, 0, 64, 95
2, 94080, Note_off_c, 0, 61, 95
2, 94080, Note_off_c, 0, 55, 95
2, 94080, Note_on_c, 0, 63, 95
2, 94080, Note_on_c, 0, 60, 95
2, 94080, Note_on_c, 0, 54, 95
2, 95040, Note_off_c, 0, 63, 95
2, 95040, Note_off_c, 0, 60, 95
2, 95040, Note_off_c, 0, 54, 95
2, 95040, Note_on_c, 0, 68, 95
2, 96000, Note_off_c, 0, 68, 95
2, 96000, Note_on_c, 0, 70, 95
2, 96000, Note_on_c, 0, 49, 95
2, 96216, Note_off_c, 0, 49, 95
2, 96960, Note_off_c, 0, 70, 95
2, 96960, Note_on_c, 0, 68, 95
2, 96960, Note_on_c, 0, 65, 47
2, 96960, Note_on_c, 0, 61, 95
2, 97176, Note_off_c, 0, 61, 95
2, 97440, Note_off_c, 0, 65, 47
2, 97920, Note_off_c, 0, 68, 95
2, 97920, Note_on_c, 0, 70, 95
2, 97920, Note_on_c, 0, 49, 95
2, 98136, Note_off_c, 0, 49, 95
2, 98400, Note_off_c, 0, 70, 95
2, 98400, Note_on_c, 0, 68, 95
2, 98880, Note_on_c, 0, 65, 47
2, 98880, Note_on_c, 0, 61, 95
2, 99096, Note_off_c, 0, 61, 95
2, 99360, Note_off_c, 0, 68, 95
2, 99360, Note_on_c, 0, 70, 95
2, 99840, Note_on_c, 0, 48, 95
2, 100056, Note_off_c, 0, 48, 95
2, 100320, Note_off_c, 0, 70, 95
2, 100320, Note_on_c, 0, 68, 95
2, 100800, Note_on_c, 0, 60, 95
2, 101016, Note_off_c, 0, 60, 95
2, 101280, Note_off_c, 0, 68, 95
2, 101280, Note_on_c, 0, 70, 95
2, 101760, Note_on_c, 0, 48, 95
2, 101976, Note_off_c, 0, 48, 95
2, 102240, Note_off_c, 0, 70, 95
2, 102240, Note_on_c, 0, 68, 95
2, 102720, Note_on_c, 0, 60, 95
2, 102936, Note_off_c, 0, 60, 95
2, 103200, Note_off_c, 0, 68, 95
2, 103680, Note_off_c, 0, 65, 47
2, 103680, Note_on_c, 0, 65, 95
2, 103680, Note_on_c, 0, 61, 95
2, 103680, Note_on_c, 0, 49, 95
2, 103896, Note_off_c, 0, 49, 95
2, 104640, Note_on_c, 0, 53, 95
2, 104856, Note_off_c, 0, 53, 95
2, 105600, Note_on_c, 0, 44, 95
2, 105816, Note_off_c, 0, 44, 95
2, 106560, Note_off_c, 0, 65, 95
2, 106560, Note_off_c, 0, 61, 95
2, 106560, Note_on_c, 0, 53, 95
2, 106776, Note_off_c, 0, 53, 95
2, 107040, Note_on_c, 0, 49, 95
2, 107520, Note_off_c, 0, 49, 95
2, 108000, Note_on_c, 0, 49, 95
2, 108480, Note_off_c, 0, 49, 95
2, 108480, Note_on_c, 0, 47, 95
2, 109440, Note_off_c, 0, 47, 95
2, 109440, Note_on_c, 0, 46, 95
2, 110400, Note_off_c, 0, 46, 95
2, 110400, Note_on_c, 0, 44, 95
2, 111360, Note_off_c, 0, 44, 95
2, 111360, Note_on_c, 0, 42, 95
2, 111576, Note_off_c, 0, 42, 95
2, 111840, Note_on_c, 0, 65, 95
2, 112320, Note_on_c, 0, 54, 95
2, 112536, Note_off_c, 0, 54, 95
2, 112800, Note_off_c, 0, 65, 95
2, 112800, Note_on_c, 0, 63, 95
2, 113280, Note_on_c, 0, 65, 95
2, 113280, Note_on_c, 0, 42, 95
2, 113496, Note_off_c, 0, 42, 95
2, 113760, Note_off_c, 0, 63, 95
2, 114240, Note_off_c, 0, 65, 95
2, 114240, Note_on_c, 0, 63, 95
2, 114240, Note_on_c, 0, 54, 95
2, 114456, Note_off_c, 0, 54, 95
2, 114720, Note_off_c, 0, 63, 95
2, 115200, Note_on_c, 0, 65, 95
2, 115200, Note_on_c, 0, 42, 95
2, 115416, Note_off_c, 0, 42, 95
2, 115680, Note_on_c, 0, 63, 95
2, 116160, Note_off_c, 0, 65, 95
2, 116160, Note_on_c, 0, 54, 95
2, 116376, Note_off_c, 0, 54, 95
2, 116640, Note_off_c, 0, 63, 95
2, 116640, Note_on_c, 0, 63, 95
2, 117120, Note_off_c, 0, 63, 95
2, 117120, Note_on_c, 0, 61, 38
2, 117120, Note_on_c, 0, 42, 95
2, 117336, Note_off_c, 0, 42, 95
2, 117600, Note_off_c, 0, 61, 38
2, 117600, Note_on_c, 0, 63, 95
2, 118080, Note_on_c, 0, 54, 95
2, 118296, Note_off_c, 0, 54, 95
2, 118560, Note_off_c, 0, 63, 95
2, 119040, Note_on_c, 0, 65, 95
2, 119040, Note_on_c, 0, 41, 95
2, 119256, Note_off_c, 0, 41, 95
2, 119520, Note_off_c, 0, 65, 95
2, 120000, Note_on_c, 0, 51, 95
2, 120216, Note_off_c, 0, 51, 95
2, 120480, Note_on_c, 0, 56, 95
2, 120960, Note_off_c, 0, 56, 95
2, 120960, Note_on_c, 0, 57, 70
2, 120960, Note_on_c, 0, 48, 95
2, 121176, Note_off_c, 0, 48, 95
2, 121440, Note_off_c, 0, 57, 70
2, 121440, Note_on_c, 0, 60, 95
2, 121920, Note_on_c, 0, 51, 95
2, 122136, Note_off_c, 0, 51, 95
2, 122880, Note_off_c, 0, 60, 95
2, 122880, Note_on_c, 0, 56, 63
2, 122895, Note_on_c, 0, 60, 63
2, 122910, Note_on_c, 0, 65, 95
2, 124800, Note_off_c, 0, 65, 95
2, 124800, Note_off_c, 0, 60, 63
2, 124800, Note_off_c, 0, 56, 63
2, 124800, Note_on_c, 0, 51, 95
2, 125280, Note_off_c, 0, 51, 95
2, 125280, Note_on_c, 0, 53, 70
2, 126240, Note_off_c, 0, 53, 70
2, 126240, Note_on_c, 0, 53, 63
2, 126720, Note_off_c, 0, 53, 63
2, 126720, Note_on_c, 0, 46, 95
2, 127680, Note_off_c, 0, 46, 95
2, 127680, Note_on_c, 0, 53, 95
2, 128160, Note_off_c, 0, 53, 95
2, 128160, Note_on_c, 0, 53, 63
2, 128640, Note_off_c, 0, 53, 63
2, 128640, Note_on_c, 0, 61, 47
2, 128640, Note_on_c, 0, 56, 95
2, 128640, Note_on_c, 0, 53, 63
2, 129120, Note_off_c, 0, 56, 95
2, 129120, Note_on_c, 0, 58, 70
2, 129600, Note_off_c, 0, 61, 47
2, 129600, Note_off_c, 0, 53, 63
2, 129600, Note_off_c, 0, 58, 70
2, 129600, Note_on_c, 0, 53, 95
2, 130080, Note_off_c, 0, 53, 95
2, 130080, Note_on_c, 0, 53, 63
2, 130560, Note_off_c, 0, 53, 63
2, 130560, Note_on_c, 0, 61, 47
2, 130560, Note_on_c, 0, 56, 95
2, 130560, Note_on_c, 0, 53, 63
2, 131040, Note_off_c, 0, 56, 95
2, 131040, Note_on_c, 0, 58, 70
2, 131520, Note_off_c, 0, 61, 47
2, 131520, Note_off_c, 0, 53, 63
2, 131520, Note_off_c, 0, 58, 70
2, 131520, Note_on_c, 0, 53, 95
2, 132000, Note_off_c, 0, 53, 95
2, 132000, Note_on_c, 0, 53, 63
2, 132480, Note_off_c, 0, 53, 63
2, 132480, Note_on_c, 0, 61, 47
2, 132480, Note_on_c, 0, 56, 95
2, 132480, Note_on_c, 0, 53, 63
2, 132960, Note_off_c, 0, 56, 95
2, 132960, Note_on_c, 0, 58, 70
2, 133440, Note_off_c, 0, 61, 47
2, 133440, Note_off_c, 0, 53, 63
2, 133440, Note_off_c, 0, 58, 70
2, 133440, Note_on_c, 0, 53, 95
2, 133920, Note_off_c, 0, 53, 95
2, 133920, Note_on_c, 0, 53, 63
2, 134400, Note_off_c, 0, 53, 63
2, 134400, Note_on_c, 0, 61, 47
2, 134400, Note_on_c, 0, 56, 95
2, 134400, Note_on_c, 0, 53, 63
2, 134880, Note_off_c, 0, 56, 95
2, 134880, Note_on_c, 0, 58, 70
2, 135360, Note_off_c, 0, 61, 47
2, 135360, Note_off_c, 0, 53, 63
2, 135360, Note_off_c, 0, 58, 70
2, 135360, Note_on_c, 0, 53, 95
2, 135840, Note_off_c, 0, 53, 95
2, 135840, Note_on_c, 0, 53, 63
2, 136320, Note_off_c, 0, 53, 63
2, 136320, Note_on_c, 0, 61, 47
2, 136320, Note_on_c, 0, 56, 95
2, 136320, Note_on_c, 0, 53, 63
2, 136800, Note_off_c, 0, 56, 95
2, 136800, Note_on_c, 0, 58, 70
2, 137280, Note_off_c, 0, 61, 47
2, 137280, Note_off_c, 0, 53, 63
2, 137280, Note_off_c, 0, 58, 70
2, 137280, Note_on_c, 0, 53, 95
2, 137760, Note_off_c, 0, 53, 95
2, 137760, Note_on_c, 0, 53, 63
2, 138240, Note_off_c, 0, 53, 63
2, 138240, Note_on_c, 0, 61, 47
2, 138240, Note_on_c, 0, 56, 95
2, 138240, Note_on_c, 0, 53, 63
2, 138720, Note_off_c, 0, 56, 95
2, 138720, Note_on_c, 0, 58, 70
2, 139200, Note_off_c, 0, 61, 47
2, 139200, Note_off_c, 0, 53, 63
2, 139200, Note_off_c, 0, 58, 70
2, 139200, Note_on_c, 0, 53, 95
2, 139680, Note_off_c, 0, 53, 95
2, 139680, Note_on_c, 0, 53, 63
2, 140160, Note_off_c, 0, 53, 63
2, 140160, Note_on_c, 0, 61, 47
2, 140160, Note_on_c, 0, 56, 95
2, 140160, Note_on_c, 0, 53, 63
2, 140640, Note_off_c, 0, 56, 95
2, 140640, Note_on_c, 0, 58, 70
2, 141120, Note_off_c, 0, 61, 47
2, 141120, Note_off_c, 0, 53, 63
2, 141120, Note_off_c, 0, 58, 70
2, 141120, Note_on_c, 0, 51, 95
2, 141228, Note_off_c, 0, 51, 95
2, 142080, Note_on_c, 0, 51, 95
2, 142296, Note_off_c, 0, 51, 95
2, 142560, Note_on_c, 0, 70, 95
2, 143040, Note_on_c, 0, 55, 95
2, 143256, Note_off_c, 0, 55, 95
2, 143520, Note_off_c, 0, 70, 95
2, 143520, Note_on_c, 0, 65, 95
2, 144000, Note_off_c, 0, 65, 95
2, 144000, Note_on_c, 0, 70, 95
2, 144000, Note_on_c, 0, 46, 95
2, 144216, Note_off_c, 0, 46, 95
2, 144960, Note_off_c, 0, 70, 95
2, 144960, Note_on_c, 0, 65, 95
2, 144960, Note_on_c, 0, 55, 95
2, 145176, Note_off_c, 0, 55, 95
2, 145920, Note_off_c, 0, 65, 95
2, 145920, Note_on_c, 0, 70, 95
2, 145920, Note_on_c, 0, 44, 95
2, 146136, Note_off_c, 0, 44, 95
2, 146880, Note_off_c, 0, 70, 95
2, 146880, Note_on_c, 0, 68, 95
2, 146880, Note_on_c, 0, 54, 95
2, 147096, Note_off_c, 0, 54, 95
2, 147360, Note_on_c, 0, 64, 95
2, 147840, Note_off_c, 0, 68, 95
2, 147840, Note_on_c, 0, 44, 95
2, 148056, Note_off_c, 0, 44, 95
2, 148800, Note_off_c, 0, 64, 95
2, 148800, Note_on_c, 0, 65, 95
2, 148800, Note_on_c, 0, 54, 95
2, 149016, Note_off_c, 0, 54, 95
2, 149760, Note_off_c, 0, 65, 95
2, 149760, Note_on_c, 0, 61, 95
2, 149760, Note_on_c, 0, 49, 95
2, 149976, Note_off_c, 0, 49, 95
2, 150720, Note_on_c, 0, 56, 47
2, 150720, Note_on_c, 0, 53, 95
2, 150936, Note_off_c, 0, 53, 95
2, 151200, Note_off_c, 0, 56, 47
2, 151680, Note_on_c, 0, 44, 95
2, 151896, Note_off_c, 0, 44, 95
2, 152640, Note_on_c, 0, 56, 47
2, 152640, Note_on_c, 0, 53, 95
2, 152856, Note_off_c, 0, 53, 95
2, 153120, Note_off_c, 0, 56, 47
2, 153600, Note_off_c, 0, 61, 95
2, 153600, Note_on_c, 0, 53, 95
2, 153920, Note_on_c, 0, 57, 47
2, 154240, Note_off_c, 0, 53, 95
2, 154240, Note_off_c, 0, 57, 47
2, 154240, Note_on_c, 0, 60, 47
2, 154560, Note_on_c, 0, 65, 47
2, 154560, Note_on_c, 0, 51, 95
2, 155520, Note_off_c, 0, 51, 95
2, 155520, Note_on_c, 0, 49, 95
2, 156480, Note_off_c, 0, 49, 95
2, 156480, Note_on_c, 0, 48, 95
2, 157440, Note_off_c, 0, 60, 47
2, 157440, Note_off_c, 0, 65, 47
2, 157440, Note_off_c, 0, 48, 95
2, 157440, Note_on_c, 0, 46, 95
2, 157656, Note_off_c, 0, 46, 95
2, 158400, Note_on_c, 0, 65, 95
2, 158400, Note_on_c, 0, 58, 47
2, 158400, Note_on_c, 0, 53, 95
2, 158616, Note_off_c, 0, 53, 95
2, 158880, Note_off_c, 0, 58, 47
2, 159360, Note_off_c, 0, 65, 95
2, 159360, Note_on_c, 0, 61, 95
2, 159360, Note_on_c, 0, 41, 95
2, 159576, Note_off_c, 0, 41, 95
2, 159840, Note_off_c, 0, 61, 95
2, 159840, Note_on_c, 0, 65, 95
2, 160320, Note_on_c, 0, 58, 47
2, 160320, Note_on_c, 0, 53, 95
2, 160536, Note_off_c, 0, 53, 95
2, 160800, Note_off_c, 0, 58, 47
2, 161280, Note_off_c, 0, 65, 95
2, 161280, Note_on_c, 0, 63, 95
2, 161280, Note_on_c, 0, 48, 95
2, 161496, Note_off_c, 0, 48, 95
2, 162240, Note_off_c, 0, 63, 95
2, 162240, Note_on_c, 0, 65, 95
2, 162240, Note_on_c, 0, 53, 95
2, 162456, Note_off_c, 0, 53, 95
2, 162720, Note_off_c, 0, 65, 95
2, 163200, Note_on_c, 0, 66, 95
2, 163200, Note_on_c, 0, 41, 95
2, 163416, Note_off_c, 0, 41, 95
2, 164160, Note_off_c, 0, 66, 95
2, 164160, Note_on_c, 0, 63, 95
2, 164160, Note_on_c, 0, 53, 95
2, 164376, Note_off_c, 0, 53, 95
2, 164640, Note_off_c, 0, 63, 95
2, 165120, Note_on_c, 0, 46, 95
2, 166080, Note_off_c, 0, 46, 95
2, 166080, Note_on_c, 0, 53, 63
2, 166090, Note_on_c, 0, 58, 63
2, 166100, Note_on_c, 0, 61, 63
2, 166110, Note_on_c, 0, 65, 79
2, 166720, Note_off_c, 0, 65, 79
2, 166720, Note_off_c, 0, 61, 63
2, 166720, Note_off_c, 0, 58, 63
2, 166720, Note_off_c, 0, 53, 63
2, 166720, Note_on_c, 0, 65, 79
2, 166725, Note_on_c, 0, 61, 63
2, 166730, Note_on_c, 0, 58, 63
2, 167040, Note_off_c, 0, 65, 79
2, 167040, Note_off_c, 0, 61, 63
2, 167040, Note_off_c, 0, 58, 63
2, 167040, Note_on_c, 0, 58, 63
2, 167055, Note_on_c, 0, 61, 63
2, 167070, Note_on_c, 0, 65, 95
2, 168000, Note_off_c, 0, 65, 95
2, 168000, Note_off_c, 0, 61, 63
2, 168000, Note_off_c, 0, 58, 63
2, 168000, Note_on_c, 0, 65, 95
2, 168960, Note_off_c, 0, 65, 95
2, 168960, Note_on_c, 0, 63, 95
2, 168960, Note_on_c, 0, 48, 95
2, 169176, Note_off_c, 0, 48, 95
2, 169920, Note_off_c, 0, 63, 95
2, 169920, Note_on_c, 0, 65, 95
2, 169920, Note_on_c, 0, 53, 95
2, 170136, Note_off_c, 0, 53, 95
2, 170400, Note_off_c, 0, 65, 95
2, 170880, Note_on_c, 0, 66, 95
2, 170880, Note_on_c, 0, 41, 95
2, 171096, Note_off_c, 0, 41, 95
2, 171840, Note_off_c, 0, 66, 95
2, 171840, Note_on_c, 0, 63, 95
2, 171840, Note_on_c, 0, 53, 95
2, 172056, Note_off_c, 0, 53, 95
2, 172320, Note_off_c, 0, 63, 95
2, 172800, Note_on_c, 0, 46, 95
2, 173760, Note_on_c, 0, 58, 63
2, 173768, Note_on_c, 0, 61, 63
2, 173776, Note_on_c, 0, 65, 63
2, 174240, Note_off_c, 0, 46, 95
2, 174240, Note_off_c, 0, 65, 63
2, 174240, Note_off_c, 0, 61, 63
2, 174240, Note_off_c, 0, 58, 63
2, 174240, Note_on_c, 0, 65, 31
2, 174248, Note_on_c, 0, 61, 31
2, 174256, Note_on_c, 0, 58, 31
2, 174720, Note_off_c, 0, 65, 31
2, 174720, Note_off_c, 0, 61, 31
2, 174720, Note_off_c, 0, 58, 31
2, 174720, Note_on_c, 0, 51, 95
2, 175200, Note_off_c, 0, 51, 95
2, 175200, Note_on_c, 0, 53, 70
2, 175680, Note_on_c, 0, 58, 63
2, 175688, Note_on_c, 0, 61, 63
2, 175696, Note_on_c, 0, 65, 63
2, 176160, Note_off_c, 0, 53, 70
2, 176160, Note_off_c, 0, 65, 63
2, 176160, Note_off_c, 0, 61, 63
2, 176160, Note_off_c, 0, 58, 63
2, 176160, Note_on_c, 0, 65, 31
2, 176168, Note_on_c, 0, 61, 31
2, 176176, Note_on_c, 0, 58, 31
2, 176640, Note_off_c, 0, 65, 31
2, 176640, Note_off_c, 0, 61, 31
2, 176640, Note_off_c, 0, 58, 31
2, 176640, Note_on_c, 0, 51, 95
2, 177120, Note_off_c, 0, 51, 95
2, 177120, Note_on_c, 0, 53, 95
2, 177600, Note_off_c, 0, 53, 95
2, 177600, Note_on_c, 0, 51, 95
2, 178080, Note_off_c, 0, 51, 95
2, 178080, Note_on_c, 0, 49, 95
2, 178560, Note_off_c, 0, 49, 95
2, 178560, Note_on_c, 0, 46, 95
2, 179520, Note_off_c, 0, 46, 95
2, 179520, Note_on_c, 0, 44, 95
2, 180480, Note_off_c, 0, 44, 95
2, 180480, Note_on_c, 0, 46, 95
2, 181440, Note_on_c, 0, 58, 63
2, 181448, Note_on_c, 0, 61, 63
2, 181456, Note_on_c, 0, 65, 63
2, 181920, Note_off_c, 0, 46, 95
2, 181920, Note_off_c, 0, 65, 63
2, 181920, Note_off_c, 0, 61, 63
2, 181920, Note_off_c, 0, 58, 63
2, 181920, Note_on_c, 0, 65, 31
2, 181928, Note_on_c, 0, 61, 31
2, 181936, Note_on_c, 0, 58, 31
2, 182400, Note_off_c, 0, 65, 31
2, 182400, Note_off_c, 0, 61, 31
2, 182400, Note_off_c, 0, 58, 31
2, 182400, Note_on_c, 0, 56, 95
2, 182880, Note_off_c, 0, 56, 95
2, 182880, Note_on_c, 0, 58, 70
2, 183360, Note_on_c, 0, 61, 63
2, 183368, Note_on_c, 0, 65, 63
2, 183840, Note_off_c, 0, 58, 70
2, 183840, Note_off_c, 0, 65, 63
2, 183840, Note_off_c, 0, 61, 63
2, 183840, Note_on_c, 0, 65, 31
2, 183848, Note_on_c, 0, 61, 31
2, 184320, Note_off_c, 0, 65, 31
2, 184320, Note_off_c, 0, 61, 31
2, 184320, Note_on_c, 0, 56, 95
2, 184800, Note_off_c, 0, 56, 95
2, 184800, Note_on_c, 0, 58, 70
2, 185280, Note_on_c, 0, 61, 63
2, 185288, Note_on_c, 0, 65, 63
2, 185760, Note_off_c, 0, 58, 70
2, 185760, Note_off_c, 0, 65, 63
2, 185760, Note_off_c, 0, 61, 63
2, 185760, Note_on_c, 0, 65, 31
2, 185768, Note_on_c, 0, 61, 31
2, 186240, Note_off_c, 0, 65, 31
2, 186240, Note_off_c, 0, 61, 31
2, 186240, Note_on_c, 0, 56, 95
2, 186720, Note_off_c, 0, 56, 95
2, 186720, Note_on_c, 0, 58, 70
2, 187200, Note_on_c, 0, 61, 63
2, 187208, Note_on_c, 0, 65, 63
2, 187680, Note_off_c, 0, 58, 70
2, 187680, Note_off_c, 0, 65, 63
2, 187680, Note_off_c, 0, 61, 63
2, 187680, Note_on_c, 0, 65, 31
2, 187688, Note_on_c, 0, 61, 31
2, 188160, Note_off_c, 0, 65, 31
2, 188160, Note_off_c, 0, 61, 31
2, 188160, Note_on_c, 0, 46, 95
2, 188376, Note_off_c, 0, 46, 95
2, 189120, Note_on_c, 0, 65, 95
2, 189120, Note_on_c, 0, 58, 47
2, 189120, Note_on_c, 0, 53, 95
2, 189336, Note_off_c, 0, 53, 95
2, 189600, Note_off_c, 0, 58, 47
2, 190080, Note_off_c, 0, 65, 95
2, 190080, Note_on_c, 0, 61, 95
2, 190080, Note_on_c, 0, 41, 95
2, 190296, Note_off_c, 0, 41, 95
2, 190560, Note_off_c, 0, 61, 95
2, 190560, Note_on_c, 0, 65, 95
2, 191040, Note_on_c, 0, 58, 47
2, 191040, Note_on_c, 0, 53, 95
2, 191256, Note_off_c, 0, 53, 95
2, 191520, Note_off_c, 0, 58, 47
2, 192000, Note_off_c, 0, 65, 95
2, 192000, Note_on_c, 0, 63, 95
2, 192000, Note_on_c, 0, 48, 95
2, 192216, Note_off_c, 0, 48, 95
2, 192960, Note_off_c, 0, 63, 95
2, 192960, Note_on_c, 0, 65, 95
2, 192960, Note_on_c, 0, 53, 95
2, 193176, Note_off_c, 0, 53, 95
2, 193440, Note_off_c, 0, 65, 95
2, 193920, Note_on_c, 0, 66, 95
2, 193920, Note_on_c, 0, 41, 95
2, 194136, Note_off_c, 0, 41, 95
2, 194880, Note_off_c, 0, 66, 95
2, 194880, Note_on_c, 0, 63, 95
2, 194880, Note_on_c, 0, 53, 95
2, 195096, Note_off_c, 0, 53, 95
2, 195360, Note_off_c, 0, 63, 95
2, 195840, Note_on_c, 0, 46, 95
2, 196800, Note_off_c, 0, 46, 95
2, 196800, Note_on_c, 0, 53, 63
2, 196810, Note_on_c, 0, 58, 63
2, 196820, Note_on_c, 0, 61, 63
2, 196830, Note_on_c, 0, 65, 79
2, 197440, Note_off_c, 0, 65, 79
2, 197440, Note_off_c, 0, 61, 63
2, 197440, Note_off_c, 0, 58, 63
2, 197440, Note_off_c, 0, 53, 63
2, 197440, Note_on_c, 0, 65, 79
2, 197445, Note_on_c, 0, 61, 63
2, 197450, Note_on_c, 0, 58, 63
2, 197760, Note_off_c, 0, 65, 79
2, 197760, Note_off_c, 0, 61, 63
2, 197760, Note_off_c, 0, 58, 63
2, 197760, Note_on_c, 0, 58, 63
2, 197775, Note_on_c, 0, 61, 63
2, 197790, Note_on_c, 0, 65, 95
2, 198720, Note_off_c, 0, 65, 95
2, 198720, Note_off_c, 0, 61, 63
2, 198720, Note_off_c, 0, 58, 63
2, 198720, Note_on_c, 0, 65, 95
2, 199680, Note_off_c, 0, 65, 95
2, 199680, Note_on_c, 0, 63, 95
2, 199680, Note_on_c, 0, 48, 95
2, 199896, Note_off_c, 0, 48, 95
2, 200640, Note_off_c, 0, 63, 95
2, 200640, Note_on_c, 0, 65, 95
2, 200640, Note_on_c, 0, 53, 95
2, 200856, Note_off_c, 0, 53, 95
2, 201120, Note_off_c, 0, 65, 95
2, 201600, Note_on_c, 0, 66, 95
2, 201600, Note_on_c, 0, 41, 95
2, 201816, Note_off_c, 0, 41, 95
2, 202560, Note_off_c, 0, 66, 95
2, 202560, Note_on_c, 0, 63, 95
2, 202560, Note_on_c, 0, 53, 95
2, 202776, Note_off_c, 0, 53, 95
2, 203040, Note_off_c, 0, 63, 95
2, 203520, Note_on_c, 0, 46, 95
2, 204480, Note_on_c, 0, 58, 63
2, 204488, Note_on_c, 0, 61, 63
2, 204496, Note_on_c, 0, 65, 63
2, 204960, Note_off_c, 0, 46, 95
2, 204960, Note_off_c, 0, 65, 63
2, 204960, Note_off_c, 0, 61, 63
2, 204960, Note_off_c, 0, 58, 63
2, 204960, Note_on_c, 0, 65, 31
2, 204968, Note_on_c, 0, 61, 31
2, 204976, Note_on_c, 0, 58, 31
2, 205440, Note_off_c, 0, 65, 31
2, 205440, Note_off_c, 0, 61, 31
2, 205440, Note_off_c, 0, 58, 31
2, 205440, Note_on_c, 0, 51, 95
2, 205920, Note_off_c, 0, 51, 95
2, 205920, Note_on_c, 0, 53, 70
2, 206400, Note_on_c, 0, 58, 63
2, 206408, Note_on_c, 0, 61, 63
2, 206416, Note_on_c, 0, 65, 63
2, 206880, Note_off_c, 0, 53, 70
2, 206880, Note_off_c, 0, 65, 63
2, 206880, Note_off_c, 0, 61, 63
2, 206880, Note_off_c, 0, 58, 63
2, 206880, Note_on_c, 0, 65, 31
2, 206888, Note_on_c, 0, 61, 31
2, 206896, Note_on_c, 0, 58, 31
2, 207360, Note_off_c, 0, 65, 31
2, 207360, Note_off_c, 0, 61, 31
2, 207360, Note_off_c, 0, 58, 31
2, 207360, Note_on_c, 0, 51, 95
2, 207840, Note_off_c, 0, 51, 95
2, 207840, Note_on_c, 0, 53, 95
2, 208320, Note_off_c, 0, 53, 95
2, 208320, Note_on_c, 0, 51, 95
2, 208800, Note_off_c, 0, 51, 95
2, 208800, Note_on_c, 0, 49, 95
2, 209280, Note_off_c, 0, 49, 95
2, 209280, Note_on_c, 0, 46, 95
2, 210240, Note_off_c, 0, 46, 95
2, 210240, Note_on_c, 0, 44, 95
2, 211200, Note_off_c, 0, 44, 95
2, 211200, Note_on_c, 0, 46, 95
2, 212160, Note_on_c, 0, 58, 63
2, 212168, Note_on_c, 0, 61, 63
2, 212176, Note_on_c, 0, 65, 63
2, 212640, Note_off_c, 0, 46, 95
2, 212640, Note_off_c, 0, 65, 63
2, 212640, Note_off_c, 0, 61, 63
2, 212640, Note_off_c, 0, 58, 63
2, 212640, Note_on_c, 0, 65, 31
2, 212648, Note_on_c, 0, 61, 31
2, 212656, Note_on_c, 0, 58, 31
2, 213120, Note_off_c, 0, 65, 31
2, 213120, Note_off_c, 0, 61, 31
2, 213120, Note_off_c, 0, 58, 31
2, 213120, Note_on_c, 0, 56, 95
2, 213600, Note_off_c, 0, 56, 95
2, 213600, Note_on_c, 0, 58, 70
2, 214080, Note_on_c, 0, 61, 63
2, 214088, Note_on_c, 0, 65, 63
2, 214560, Note_off_c, 0, 58, 70
2, 214560, Note_off_c, 0, 65, 63
2, 214560, Note_off_c, 0, 61, 63
2, 214560, Note_on_c, 0, 65, 31
2, 214568, Note_on_c, 0, 61, 31
2, 215040, Note_off_c, 0, 65, 31
2, 215040, Note_off_c, 0, 61, 31
2, 215040, Note_on_c, 0, 56, 95
2, 215520, Note_off_c, 0, 56, 95
2, 215520, Note_on_c, 0, 58, 70
2, 216000, Note_on_c, 0, 61, 63
2, 216008, Note_on_c, 0, 65, 63
2, 216480, Note_off_c, 0, 58, 70
2, 216480, Note_off_c, 0, 65, 63
2, 216480, Note_off_c, 0, 61, 63
2, 216480, Note_on_c, 0, 65, 31
2, 216488, Note_on_c, 0, 61, 31
2, 216960, Note_off_c, 0, 65, 31
2, 216960, Note_off_c, 0, 61, 31
2, 216960, Note_on_c, 0, 56, 95
2, 217440, Note_off_c, 0, 56, 95
2, 217440, Note_on_c, 0, 58, 70
2, 217920, Note_on_c, 0, 61, 63
2, 217928, Note_on_c, 0, 65, 63
2, 218400, Note_off_c, 0, 58, 70
2, 218400, Note_off_c, 0, 65, 63
2, 218400, Note_off_c, 0, 61, 63
2, 218400, Note_on_c, 0, 65, 31
2, 218408, Note_on_c, 0, 61, 31
2, 218880, Note_off_c, 0, 65, 31
2, 218880, Note_off_c, 0, 61, 31
2, 218880, Note_on_c, 0, 44, 95
2, 219096, Note_off_c, 0, 44, 95
2, 219360, Note_on_c, 0, 68, 95
2, 219840, Note_on_c, 0, 54, 95
2, 220056, Note_off_c, 0, 54, 95
2, 220320, Note_off_c, 0, 68, 95
2, 220320, Note_on_c, 0, 63, 95
2, 220800, Note_off_c, 0, 63, 95
2, 220800, Note_on_c, 0, 68, 95
2, 220800, Note_on_c, 0, 44, 95
2, 221016, Note_off_c, 0, 44, 95
2, 221760, Note_off_c, 0, 68, 95
2, 221760, Note_on_c, 0, 66, 95
2, 221760, Note_on_c, 0, 54, 95
2, 221976, Note_off_c, 0, 54, 95
2, 222240, Note_off_c, 0, 66, 95
2, 222720, Note_on_c, 0, 65, 95
2, 222720, Note_on_c, 0, 49, 95
2, 222936, Note_off_c, 0, 49, 95
2, 223200, Note_on_c, 0, 64, 95
2, 223680, Note_off_c, 0, 65, 95
2, 223680, Note_on_c, 0, 53, 95
2, 223896, Note_off_c, 0, 53, 95
2, 224160, Note_off_c, 0, 64, 95
2, 224160, Note_on_c, 0, 65, 95
2, 224640, Note_on_c, 0, 44, 95
2, 224856, Note_off_c, 0, 44, 95
2, 225600, Note_off_c, 0, 65, 95
2, 225600, Note_on_c, 0, 61, 95
2, 225600, Note_on_c, 0, 53, 95
2, 225816, Note_off_c, 0, 53, 95
2, 226560, Note_off_c, 0, 61, 95
2, 226560, Note_on_c, 0, 44, 95
2, 226776, Note_off_c, 0, 44, 95
2, 227040, Note_on_c, 0, 68, 95
2, 227520, Note_on_c, 0, 54, 95
2, 227736, Note_off_c, 0, 54, 95
2, 228000, Note_off_c, 0, 68, 95
2, 228000, Note_on_c, 0, 63, 95
2, 228480, Note_off_c, 0, 63, 95
2, 228480, Note_on_c, 0, 68, 95
2, 228480, Note_on_c, 0, 44, 95
2, 228696, Note_off_c, 0, 44, 95
2, 229440, Note_off_c, 0, 68, 95
2, 229440, Note_on_c, 0, 66, 95
2, 229440, Note_on_c, 0, 54, 95
2, 229656, Note_off_c, 0, 54, 95
2, 229920, Note_off_c, 0, 66, 95
2, 230400, Note_on_c, 0, 65, 95
2, 230400, Note_on_c, 0, 49, 95
2, 230616, Note_off_c, 0, 49, 95
2, 230880, Note_on_c, 0, 64, 95
2, 231360, Note_off_c, 0, 65, 95
2, 231360, Note_on_c, 0, 53, 95
2, 231576, Note_off_c, 0, 53, 95
2, 231840, Note_off_c, 0, 64, 95
2, 231840, Note_on_c, 0, 65, 95
2, 232320, Note_on_c, 0, 44, 95
2, 232536, Note_off_c, 0, 44, 95
2, 233280, Note_off_c, 0, 65, 95
2, 233280, Note_on_c, 0, 61, 95
2, 233280, Note_on_c, 0, 53, 95
2, 233496, Note_off_c, 0, 53, 95
2, 234240, Note_off_c, 0, 61, 95
2, 234240, Note_on_c, 0, 60, 95
2, 234240, Note_on_c, 0, 48, 95
2, 234456, Note_off_c, 0, 48, 95
2, 235200, Note_off_c, 0, 60, 95
2, 235200, Note_on_c, 0, 65, 95
2, 235200, Note_on_c, 0, 53, 95
2, 235416, Note_off_c, 0, 53, 95
2, 235680, Note_on_c, 0, 63, 95
2, 236160, Note_off_c, 0, 65, 95
2, 236160, Note_on_c, 0, 41, 95
2, 236376, Note_off_c, 0, 41, 95
2, 236640, Note_off_c, 0, 63, 95
2, 236640, Note_on_c, 0, 61, 95
2, 237120, Note_on_c, 0, 53, 95
2, 237336, Note_off_c, 0, 53, 95
2, 237600, Note_off_c, 0, 61, 95
2, 238080, Note_on_c, 0, 65, 95
2, 238080, Note_on_c, 0, 46, 95
2, 238296, Note_off_c, 0, 46, 95
2, 239040, Note_on_c, 0, 58, 47
2, 239040, Note_on_c, 0, 53, 95
2, 239256, Note_off_c, 0, 53, 95
2, 239520, Note_off_c, 0, 58, 47
2, 240000, Note_off_c, 0, 65, 95
2, 240000, Note_on_c, 0, 41, 95
2, 240216, Note_off_c, 0, 41, 95
2, 240480, Note_on_c, 0, 65, 95
2, 240960, Note_on_c, 0, 58, 47
2, 240960, Note_on_c, 0, 53, 95
2, 241176, Note_off_c, 0, 53, 95
2, 241440, Note_off_c, 0, 58, 47
2, 241920, Note_off_c, 0, 65, 95
2, 241920, Note_on_c, 0, 67, 95
2, 241920, Note_on_c, 0, 61, 95
2, 241920, Note_on_c, 0, 58, 95
2, 241920, Note_on_c, 0, 51, 95
2, 242880, Note_off_c, 0, 67, 95
2, 242880, Note_on_c, 0, 67, 95
2, 243360, Note_off_c, 0, 67, 95
2, 243360, Note_on_c, 0, 67, 95
2, 243840, Note_off_c, 0, 67, 95
2, 243840, Note_on_c, 0, 65, 95
2, 244800, Note_off_c, 0, 61, 95
2, 244800, Note_off_c, 0, 65, 95
2, 244800, Note_on_c, 0, 63, 95
2, 245760, Note_off_c, 0, 58, 95
2, 245760, Note_off_c, 0, 51, 95
2, 245760, Note_on_c, 0, 68, 95
2, 246720, Note_off_c, 0, 63, 95
2, 246720, Note_off_c, 0, 68, 95
2, 246720, Note_on_c, 0, 44, 95
2, 247680, Note_off_c, 0, 44, 95
2, 247680, Note_on_c, 0, 46, 95
2, 248640, Note_off_c, 0, 46, 95
2, 248640, Note_on_c, 0, 48, 95
2, 249600, Note_off_c, 0, 48, 95
2, 249600, Note_on_c, 0, 70, 95
2, 249600, Note_on_c, 0, 49, 95
2, 249816, Note_off_c, 0, 49, 95
2, 250560, Note_off_c, 0, 70, 95
2, 250560, Note_on_c, 0, 68, 95
2, 250560, Note_on_c, 0, 65, 47
2, 250560, Note_on_c, 0, 61, 95
2, 250776, Note_off_c, 0, 61, 95
2, 251040, Note_off_c, 0, 65, 47
2, 251520, Note_off_c, 0, 68, 95
2, 251520, Note_on_c, 0, 70, 95
2, 251520, Note_on_c, 0, 49, 95
2, 251736, Note_off_c, 0, 49, 95
2, 252000, Note_off_c, 0, 70, 95
2, 252000, Note_on_c, 0, 68, 95
2, 252480, Note_on_c, 0, 65, 47
2, 252480, Note_on_c, 0, 61, 95
2, 252696, Note_off_c, 0, 61, 95
2, 252960, Note_off_c, 0, 68, 95
2, 252960, Note_on_c, 0, 70, 95
2, 253440, Note_on_c, 0, 48, 95
2, 253656, Note_off_c, 0, 48, 95
2, 253920, Note_off_c, 0, 70, 95
2, 253920, Note_on_c, 0, 68, 95
2, 254400, Note_on_c, 0, 60, 95
2, 254616, Note_off_c, 0, 60, 95
2, 254880, Note_off_c, 0, 68, 95
2, 254880, Note_on_c, 0, 70, 95
2, 255360, Note_on_c, 0, 48, 95
2, 255576, Note_off_c, 0, 48, 95
2, 255840, Note_off_c, 0, 70, 95
2, 255840, Note_on_c, 0, 68, 95
2, 256320, Note_on_c, 0, 60, 95
2, 256536, Note_off_c, 0, 60, 95
2, 256800, Note_off_c, 0, 68, 95
2, 257280, Note_off_c, 0, 65, 47
2, 257280, Note_on_c, 0, 65, 95
2, 257280, Note_on_c, 0, 61, 95
2, 257280, Note_on_c, 0, 49, 95
2, 257496, Note_off_c, 0, 49, 95
2, 258240, Note_on_c, 0, 53, 95
2, 258456, Note_off_c, 0, 53, 95
2, 259200, Note_on_c, 0, 44, 95
2, 259416, Note_off_c, 0, 44, 95
2, 260160, Note_off_c, 0, 65, 95
2, 260160, Note_off_c, 0, 61, 95
2, 260160, Note_on_c, 1, 56, 95
2, 260280, Pitch_bend_c, 1, 8576
2, 260400, Pitch_bend_c, 1, 8960
2, 260520, Pitch_bend_c, 1, 9472
2, 260640, Pitch_bend_c, 1, 9856
2, 260760, Pitch_bend_c, 1, 10368
2, 260880, Pitch_bend_c, 1, 10752
2, 261000, Pitch_bend_c, 1, 11264
2, 261120, Pitch_bend_c, 1, 11648
2, 261120, Pitch_bend_c, 1, 8192
2, 261120, Note_off_c, 1, 56, 95
2, 261120, Note_on_c, 0, 61, 95
2, 261760, Note_off_c, 0, 61, 95
2, 261760, Note_on_c, 0, 56, 70
2, 262080, Note_on_c, 0, 53, 95
2, 262720, Note_off_c, 0, 56, 70
2, 262720, Note_off_c, 0, 53, 95
2, 262720, Note_on_c, 0, 56, 95
2, 263040, Note_on_c, 0, 58, 95
2, 263680, Note_off_c, 0, 56, 95
2, 263680, Note_off_c, 0, 58, 95
2, 263680, Note_on_c, 0, 56, 95
2, 264000, Note_on_c, 0, 53, 95
2, 264640, Note_off_c, 0, 56, 95
2, 264640, Note_off_c, 0, 53, 95
2, 264640, Note_on_c, 0, 56, 95
2, 264960, Note_off_c, 0, 56, 95
2, 264960, Note_on_c, 0, 51, 95
2, 265176, Note_off_c, 0, 51, 95
2, 265440, Note_on_c, 0, 65, 95
2, 265920, Note_on_c, 0, 55, 95
2, 266136, Note_off_c, 0, 55, 95
2, 266400, Note_off_c, 0, 65, 95
2, 266400, Note_on_c, 0, 63, 95
2, 266880, Note_on_c, 0, 65, 95
2, 266880, Note_on_c, 0, 46, 95
2, 267096, Note_off_c, 0, 46, 95
2, 267360, Note_off_c, 0, 63, 95
2, 267840, Note_off_c, 0, 65, 95
2, 267840, Note_on_c, 0, 63, 95
2, 267840, Note_on_c, 0, 55, 95
2, 268056, Note_off_c, 0, 55, 95
2, 268320, Note_off_c, 0, 63, 95
2, 268800, Note_on_c, 0, 65, 95
2, 268800, Note_on_c, 0, 51, 95
2, 269016, Note_off_c, 0, 51, 95
2, 269760, Note_off_c, 0, 65, 95
2, 269760, Note_on_c, 0, 63, 95
2, 269760, Note_on_c, 0, 55, 95
2, 269976, Note_off_c, 0, 55, 95
2, 270240, Note_off_c, 0, 63, 95
2, 270720, Note_on_c, 0, 65, 95
2, 270720, Note_on_c, 0, 46, 95
2, 270936, Note_off_c, 0, 46, 95
2, 271680, Note_off_c, 0, 65, 95
2, 271680, Note_on_c, 0, 63, 95
2, 271680, Note_on_c, 0, 55, 95
2, 271896, Note_off_c, 0, 55, 95
2, 272160, Note_off_c, 0, 63, 95
2, 272640, Note_on_c, 0, 58, 95
2, 272640, Note_on_c, 0, 43, 95
2, 272856, Note_off_c, 0, 43, 95
2, 273600, Note_on_c, 0, 51, 95
2, 273816, Note_off_c, 0, 51, 95
2, 274560, Note_on_c, 0, 46, 95
2, 274776, Note_off_c, 0, 46, 95
2, 275520, Note_on_c, 0, 51, 95
2, 275736, Note_off_c, 0, 51, 95
2, 276480, Note_off_c, 0, 58, 95
2, 276480, Note_on_c, 0, 43, 95
2, 277120, Note_off_c, 0, 43, 95
2, 277120, Note_on_c, 0, 51, 63
2, 277440, Note_on_c, 0, 51, 95
2, 278080, Note_off_c, 0, 51, 63
2, 278080, Note_on_c, 0, 51, 63
2, 278400, Note_off_c, 0, 51, 95
2, 278400, Note_on_c, 0, 50, 95
2, 279040, Note_off_c, 0, 51, 63
2, 279040, Note_on_c, 0, 51, 63
2, 279360, Note_off_c, 0, 50, 95
2, 279360, Note_on_c, 0, 49, 95
2, 280000, Note_off_c, 0, 51, 63
2, 280000, Note_on_c, 0, 51, 63
2, 280320, Note_off_c, 0, 49, 95
2, 280320, Note_on_c, 0, 48, 95
2, 280800, Note_off_c, 0, 51, 63
2, 280800, Note_off_c, 0, 48, 95
2, 281280, Note_on_c, 0, 56, 95
2, 281280, Note_on_c, 0, 54, 95
2, 281496, Note_off_c, 0, 54, 95
2, 282240, Note_off_c, 0, 56, 95
2, 282240, Note_on_c, 0, 58, 95
2, 282240, Note_on_c, 0, 44, 95
2, 282456, Note_off_c, 0, 44, 95
2, 282720, Note_on_c, 0, 60, 95
2, 283200, Note_on_c, 0, 54, 95
2, 283416, Note_off_c, 0, 54, 95
2, 284160, Note_off_c, 0, 58, 95
2, 284160, Note_off_c, 0, 60, 95
2, 284160, Note_on_c, 0, 68, 95
2, 284160, Note_on_c, 0, 48, 95
2, 284376, Note_off_c, 0, 48, 95
2, 284640, Note_on_c, 0, 60, 95
2, 285120, Note_off_c, 0, 68, 95
2, 285120, Note_on_c, 0, 54, 95
2, 285336, Note_off_c, 0, 54, 95
2, 285600, Note_off_c, 0, 60, 95
2, 285600, Note_on_c, 0, 68, 95
2, 286080, Note_on_c, 0, 44, 95
2, 286296, Note_off_c, 0, 44, 95
2, 287040, Note_off_c, 0, 68, 95
2, 287040, Note_on_c, 0, 58, 47
2, 287040, Note_on_c, 0, 54, 95
2, 287256, Note_off_c, 0, 54, 95
2, 287520, Note_off_c, 0, 58, 47
2, 288000, Note_on_c, 0, 61, 95
2, 288000, Note_on_c, 0, 49, 95
2, 288216, Note_off_c, 0, 49, 95
2, 288480, Note_off_c, 0, 61, 95
2, 288960, Note_on_c, 0, 61, 95
2, 288960, Note_on_c, 0, 53, 95
2, 289176, Note_off_c, 0, 53, 95
2, 289440, Note_off_c, 0, 61, 95
2, 289920, Note_on_c, 0, 61, 95
2, 289920, Note_on_c, 0, 44, 95
2, 290136, Note_off_c, 0, 44, 95
2, 290400, Note_on_c, 0, 65, 95
2, 290880, Note_off_c, 0, 61, 95
2, 290880, Note_on_c, 0, 53, 95
2, 291096, Note_off_c, 0, 53, 95
2, 291360, Note_off_c, 0, 65, 95
2, 291840, Note_on_c, 0, 68, 95
2, 291840, Note_on_c, 0, 49, 95
2, 292056, Note_off_c, 0, 49, 95
2, 292320, Note_on_c, 0, 61, 95
2, 292800, Note_off_c, 0, 68, 95
2, 292800, Note_on_c, 0, 53, 95
2, 293016, Note_off_c, 0, 53, 95
2, 293280, Note_off_c, 0, 61, 95
2, 293280, Note_on_c, 0, 68, 95
2, 293760, Note_on_c, 0, 44, 95
2, 293976, Note_off_c, 0, 44, 95
2, 294720, Note_off_c, 0, 68, 95
2, 294720, Note_on_c, 0, 53, 95
2, 294936, Note_off_c, 0, 53, 95
2, 295680, Note_on_c, 0, 51, 95
2, 296320, Note_off_c, 0, 51, 95
2, 296320, Note_on_c, 0, 61, 95
2, 296640, Note_off_c, 0, 61, 95
2, 296640, Note_on_c, 0, 67, 95
2, 297280, Note_off_c, 0, 67, 95
2, 297280, Note_on_c, 0, 51, 95
2, 297600, Note_off_c, 0, 51, 95
2, 297600, Note_on_c, 0, 61, 95
2, 298240, Note_off_c, 0, 61, 95
2, 298240, Note_on_c, 0, 65, 95
2, 298560, Note_off_c, 0, 65, 95
2, 298560, Note_on_c, 0, 51, 95
2, 299200, Note_off_c, 0, 51, 95
2, 299200, Note_on_c, 0, 61, 95
2, 299520, Note_off_c, 0, 61, 95
2, 299520, Note_on_c, 0, 67, 95
2, 300160, Note_off_c, 0, 67, 95
2, 300160, Note_on_c, 0, 51, 95
2, 300480, Note_off_c, 0, 51, 95
2, 300480, Note_on_c, 0, 61, 95
2, 301120, Note_off_c, 0, 61, 95
2, 301120, Note_on_c, 0, 65, 95
2, 301440, Note_off_c, 0, 65, 95
2, 301440, Note_on_c, 0, 51, 95
2, 302080, Note_on_c, 0, 61, 95
2, 302400, Note_on_c, 0, 67, 95
2, 303360, Note_off_c, 0, 51, 95
2, 303360, Note_off_c, 0, 61, 95
2, 303360, Note_off_c, 0, 67, 95
2, 303360, Note_on_c, 0, 62, 95
2, 303680, Note_on_c, 0, 63, 95
2, 304000, Note_on_c, 0, 68, 95
2, 304320, Note_off_c, 0, 62, 95
2, 304320, Note_off_c, 0, 63, 95
2, 304320, Note_on_c, 0, 63, 95
2, 304800, Note_off_c, 0, 68, 95
2, 304800, Note_off_c, 0, 63, 95
2, 305280, Note_on_c, 0, 59, 95
2, 305600, Note_on_c, 0, 60, 95
2, 305920, Note_on_c, 0, 65, 95
2, 306240, Note_off_c, 0, 59, 95
2, 306240, Note_off_c, 0, 60, 95
2, 306240, Note_on_c, 0, 60, 95
2, 306720, Note_off_c, 0, 65, 95
2, 306720, Note_off_c, 0, 60, 95
2, 307200, Note_on_c, 0, 55, 95
2, 307520, Note_on_c, 0, 56, 95
2, 307840, Note_on_c, 0, 60, 95
2, 308160, Note_off_c, 0, 55, 95
2, 308160, Note_on_c, 0, 51, 95
2, 308640, Note_off_c, 0, 56, 95
2, 308640, Note_off_c, 0, 60, 95
2, 308640, Note_off_c, 0, 51, 95
2, 309120, Note_on_c, 0, 50, 95
2, 309440, Note_on_c, 0, 51, 95
2, 309760, Note_on_c, 0, 56, 95
2, 310080, Note_off_c, 0, 50, 95
2, 310080, Note_on_c, 0, 46, 95
2, 310560, Note_off_c, 0, 51, 95
2, 310560, Note_off_c, 0, 56, 95
2, 310560, Note_off_c, 0, 46, 95
2, 311040, Note_on_c, 0, 70, 95
2, 311040, Note_on_c, 0, 49, 95
2, 311256, Note_off_c, 0, 49, 95
2, 312000, Note_off_c, 0, 70, 95
2, 312000, Note_on_c, 0, 68, 95
2, 312000, Note_on_c, 0, 65, 47
2, 312000, Note_on_c, 0, 61, 95
2, 312216, Note_off_c, 0, 61, 95
2, 312480, Note_off_c, 0, 65, 47
2, 312960, Note_off_c, 0, 68, 95
2, 312960, Note_on_c, 0, 70, 95
2, 312960, Note_on_c, 0, 49, 95
2, 313176, Note_off_c, 0, 49, 95
2, 313440, Note_off_c, 0, 70, 95
2, 313440, Note_on_c, 0, 68, 95
2, 313920, Note_on_c, 0, 65, 47
2, 313920, Note_on_c, 0, 61, 95
2, 314136, Note_off_c, 0, 61, 95
2, 314400, Note_off_c, 0, 68, 95
2, 314400, Note_off_c, 0, 65, 47
2, 314400, Note_on_c, 0, 70, 95
2, 314880, Note_on_c, 0, 48, 95
2, 315096, Note_off_c, 0, 48, 95
2, 315360, Note_off_c, 0, 70, 95
2, 315360, Note_on_c, 0, 68, 95
2, 315840, Note_on_c, 0, 60, 95
2, 316056, Note_off_c, 0, 60, 95
2, 316320, Note_off_c, 0, 68, 95
2, 316320, Note_on_c, 0, 70, 95
2, 316800, Note_on_c, 0, 48, 95
2, 317016, Note_off_c, 0, 48, 95
2, 317280, Note_off_c, 0, 70, 95
2, 317280, Note_on_c, 0, 68, 95
2, 317760, Note_on_c, 0, 60, 95
2, 317976, Note_off_c, 0, 60, 95
2, 318240, Note_off_c, 0, 68, 95
2, 318720, Note_on_c, 0, 65, 95
2, 318720, Note_on_c, 0, 61, 95
2, 318720, Note_on_c, 0, 49, 95
2, 318936, Note_off_c, 0, 49, 95
2, 319680, Note_on_c, 0, 53, 95
2, 319896, Note_off_c, 0, 53, 95
2, 320640, Note_on_c, 0, 44, 95
2, 320856, Note_off_c, 0, 44, 95
2, 321600, Note_off_c, 0, 65, 95
2, 321600, Note_off_c, 0, 61, 95
2, 321600, Note_on_c, 0, 53, 95
2, 321816, Note_off_c, 0, 53, 95
2, 322560, Note_on_c, 0, 49, 95
2, 323520, Note_off_c, 0, 49, 95
2, 323520, Note_on_c, 0, 47, 95
2, 324480, Note_off_c, 0, 47, 95
2, 324480, Note_on_c, 0, 46, 95
2, 325440, Note_off_c, 0, 46, 95
2, 325440, Note_on_c, 0, 44, 95
2, 326400, Note_off_c, 0, 44, 95
2, 326400, Note_on_c, 0, 42, 95
2, 326616, Note_off_c, 0, 42, 95
2, 326880, Note_on_c, 0, 65, 95
2, 327360, Note_on_c, 0, 54, 95
2, 327576, Note_off_c, 0, 54, 95
2, 327840, Note_off_c, 0, 65, 95
2, 327840, Note_on_c, 0, 63, 95
2, 328320, Note_on_c, 0, 65, 95
2, 328320, Note_on_c, 0, 42, 95
2, 328536, Note_off_c, 0, 42, 95
2, 328800, Note_off_c, 0, 63, 95
2, 329280, Note_off_c, 0, 65, 95
2, 329280, Note_on_c, 0, 63, 95
2, 329280, Note_on_c, 0, 54, 95
2, 329496, Note_off_c, 0, 54, 95
2, 329760, Note_off_c, 0, 63, 95
2, 330240, Note_on_c, 0, 65, 95
2, 330240, Note_on_c, 0, 42, 95
2, 330456, Note_off_c, 0, 42, 95
2, 330720, Note_on_c, 0, 63, 95
2, 331200, Note_off_c, 0, 65, 95
2, 331200, Note_on_c, 0, 54, 95
2, 331416, Note_off_c, 0, 54, 95
2, 331680, Note_off_c, 0, 63, 95
2, 331680, Note_on_c, 0, 63, 95
2, 332160, Note_off_c, 0, 63, 95
2, 332160, Note_on_c, 0, 61, 38
2, 332160, Note_on_c, 0, 42, 95
2, 332376, Note_off_c, 0, 42, 95
2, 332640, Note_off_c, 0, 61, 38
2, 332640, Note_on_c, 0, 63, 95
2, 333120, Note_on_c, 0, 54, 95
2, 333336, Note_off_c, 0, 54, 95
2, 333600, Note_off_c, 0, 63, 95
2, 334080, Note_on_c, 0, 65, 95
2, 334080, Note_on_c, 0, 41, 95
2, 334296, Note_off_c, 0, 41, 95
2, 335040, Note_off_c, 0, 65, 95
2, 335040, Note_on_c, 0, 57, 95
2, 335360, Note_on_c, 0, 60, 95
2, 335680, Note_on_c, 0, 65, 95
2, 336000, Note_off_c, 0, 57, 95
2, 336000, Note_on_c, 0, 53, 95
2, 336320, Note_off_c, 0, 60, 95
2, 336320, Note_on_c, 0, 57, 95
2, 336640, Note_off_c, 0, 65, 95
2, 336640, Note_on_c, 0, 60, 95
2, 336960, Note_off_c, 0, 53, 95
2, 336960, Note_on_c, 0, 48, 95
2, 337280, Note_off_c, 0, 57, 95
2, 337280, Note_on_c, 0, 53, 95
2, 337600, Note_off_c, 0, 60, 95
2, 337600, Note_on_c, 0, 57, 95
2, 337920, Note_off_c, 0, 48, 95
2, 337920, Note_on_c, 0, 41, 95
2, 339840, Note_off_c, 0, 53, 95
2, 339840, Note_off_c, 0, 57, 95
2, 339840, Note_off_c, 0, 41, 95
2, 339840, Note_on_c, 0, 51, 95
2, 340320, Note_off_c, 0, 51, 95
2, 340320, Note_on_c, 0, 53, 70
2, 341280, Note_off_c, 0, 53, 70
2, 341280, Note_on_c, 0, 53, 63
2, 341760, Note_off_c, 0, 53, 63
2, 341760, Note_on_c, 0, 46, 95
2, 342720, Note_off_c, 0, 46, 95
2, 342720, Note_on_c, 0, 53, 95
2, 343200, Note_off_c, 0, 53, 95
2, 343200, Note_on_c, 0, 53, 63
2, 343680, Note_off_c, 0, 53, 63
2, 343680, Note_on_c, 0, 61, 47
2, 343680, Note_on_c, 0, 56, 95
2, 343680, Note_on_c, 0, 53, 63
2, 344160, Note_off_c, 0, 56, 95
2, 344160, Note_on_c, 0, 58, 70
2, 344640, Note_off_c, 0, 61, 47
2, 344640, Note_off_c, 0, 53, 63
2, 344640, Note_off_c, 0, 58, 70
2, 344640, Note_on_c, 0, 53, 95
2, 345120, Note_off_c, 0, 53, 95
2, 345120, Note_on_c, 0, 53, 63
2, 345600, Note_off_c, 0, 53, 63
2, 345600, Note_on_c, 0, 61, 47
2, 345600, Note_on_c, 0, 56, 95
2, 345600, Note_on_c, 0, 53, 63
2, 346080, Note_off_c, 0, 56, 95
2, 346080, Note_on_c, 0, 58, 70
2, 346560, Note_off_c, 0, 61, 47
2, 346560, Note_off_c, 0, 53, 63
2, 346560, Note_off_c, 0, 58, 70
2, 346560, Note_on_c, 0, 53, 95
2, 347040, Note_off_c, 0, 53, 95
2, 347040, Note_on_c, 0, 53, 63
2, 347520, Note_off_c, 0, 53, 63
2, 347520, Note_on_c, 0, 61, 47
2, 347520, Note_on_c, 0, 56, 95
2, 347520, Note_on_c, 0, 53, 63
2, 348000, Note_off_c, 0, 56, 95
2, 348000, Note_on_c, 0, 58, 70
2, 348480, Note_off_c, 0, 61, 47
2, 348480, Note_off_c, 0, 53, 63
2, 348480, Note_off_c, 0, 58, 70
2, 348480, Note_on_c, 0, 53, 95
2, 348960, Note_off_c, 0, 53, 95
2, 348960, Note_on_c, 0, 53, 63
2, 349440, Note_off_c, 0, 53, 63
2, 349440, Note_on_c, 0, 61, 47
2, 349440, Note_on_c, 0, 56, 95
2, 349440, Note_on_c, 0, 53, 63
2, 349920, Note_off_c, 0, 56, 95
2, 349920, Note_on_c, 0, 58, 70
2, 350400, Note_off_c, 0, 61, 47
2, 350400, Note_off_c, 0, 53, 63
2, 350400, Note_off_c, 0, 58, 70
2, 350400, Note_on_c, 0, 53, 95
2, 350880, Note_off_c, 0, 53, 95
2, 350880, Note_on_c, 0, 53, 63
2, 351360, Note_off_c, 0, 53, 63
2, 351360, Note_on_c, 0, 61, 47
2, 351360, Note_on_c, 0, 56, 95
2, 351360, Note_on_c, 0, 53, 63
2, 351840, Note_off_c, 0, 56, 95
2, 351840, Note_on_c, 0, 58, 70
2, 352320, Note_off_c, 0, 61, 47
2, 352320, Note_off_c, 0, 53, 63
2, 352320, Note_off_c, 0, 58, 70
2, 352320, Note_on_c, 0, 53, 95
2, 352800, Note_off_c, 0, 53, 95
2, 352800, Note_on_c, 0, 53, 63
2, 353280, Note_off_c, 0, 53, 63
2, 353280, Note_on_c, 0, 61, 47
2, 353280, Note_on_c, 0, 56, 95
2, 353280, Note_on_c, 0, 53, 63
2, 353760, Note_off_c, 0, 56, 95
2, 353760, Note_on_c, 0, 58, 70
2, 354240, Note_off_c, 0, 61, 47
2, 354240, Note_off_c, 0, 53, 63
2, 354240, Note_off_c, 0, 58, 70
2, 354240, Note_on_c, 0, 53, 95
2, 354720, Note_off_c, 0, 53, 95
2, 354720, Note_on_c, 0, 53, 63
2, 355200, Note_off_c, 0, 53, 63
2, 355200, Note_on_c, 0, 61, 47
2, 355200, Note_on_c, 0, 56, 95
2, 355200, Note_on_c, 0, 53, 63
2, 355680, Note_off_c, 0, 56, 95
2, 355680, Note_on_c, 0, 58, 70
2, 356160, Note_off_c, 0, 61, 47
2, 356160, Note_off_c, 0, 53, 63
2, 356160, Note_off_c, 0, 58, 70
2, 356160, Note_on_c, 0, 51, 95
2, 356268, Note_off_c, 0, 51, 95
2, 357120, Note_on_c, 0, 51, 95
2, 357336, Note_off_c, 0, 51, 95
2, 357600, Note_on_c, 0, 70, 95
2, 358080, Note_on_c, 0, 55, 95
2, 358296, Note_off_c, 0, 55, 95
2, 358560, Note_off_c, 0, 70, 95
2, 358560, Note_on_c, 0, 65, 95
2, 359040, Note_off_c, 0, 65, 95
2, 359040, Note_on_c, 0, 70, 95
2, 359040, Note_on_c, 0, 46, 95
2, 359256, Note_off_c, 0, 46, 95
2, 360000, Note_off_c, 0, 70, 95
2, 360000, Note_on_c, 0, 65, 95
2, 360000, Note_on_c, 0, 55, 95
2, 360216, Note_off_c, 0, 55, 95
2, 360960, Note_off_c, 0, 65, 95
2, 360960, Note_on_c, 0, 70, 95
2, 360960, Note_on_c, 0, 44, 95
2, 361176, Note_off_c, 0, 44, 95
2, 361920, Note_off_c, 0, 70, 95
2, 361920, Note_on_c, 0, 68, 95
2, 361920, Note_on_c, 0, 54, 95
2, 362136, Note_off_c, 0, 54, 95
2, 362400, Note_on_c, 0, 64, 95
2, 362880, Note_off_c, 0, 68, 95
2, 362880, Note_on_c, 0, 44, 95
2, 363096, Note_off_c, 0, 44, 95
2, 363840, Note_off_c, 0, 64, 95
2, 363840, Note_on_c, 0, 65, 95
2, 363840, Note_on_c, 0, 54, 95
2, 364056, Note_off_c, 0, 54, 95
2, 364800, Note_off_c, 0, 65, 95
2, 364800, Note_on_c, 0, 51, 95
2, 365016, Note_off_c, 0, 51, 95
2, 365280, Note_on_c, 0, 70, 95
2, 365760, Note_on_c, 0, 55, 95
2, 365976, Note_off_c, 0, 55, 95
2, 366240, Note_off_c, 0, 70, 95
2, 366240, Note_on_c, 0, 65, 95
2, 366720, Note_off_c, 0, 65, 95
2, 366720, Note_on_c, 0, 70, 95
2, 366720, Note_on_c, 0, 46, 95
2, 366936, Note_off_c, 0, 46, 95
2, 367680, Note_off_c, 0, 70, 95
2, 367680, Note_on_c, 0, 65, 95
2, 367680, Note_on_c, 0, 55, 95
2, 367896, Note_off_c, 0, 55, 95
2, 368640, Note_off_c, 0, 65, 95
2, 368640, Note_on_c, 0, 70, 95
2, 368640, Note_on_c, 0, 44, 95
2, 368856, Note_off_c, 0, 44, 95
2, 369600, Note_off_c, 0, 70, 95
2, 369600, Note_on_c, 0, 68, 95
2, 369600, Note_on_c, 0, 54, 95
2, 369816, Note_off_c, 0, 54, 95
2, 370080, Note_on_c, 0, 64, 95
2, 370560, Note_off_c, 0, 68, 95
2, 370560, Note_on_c, 0, 44, 95
2, 370776, Note_off_c, 0, 44, 95
2, 371520, Note_off_c, 0, 64, 95
2, 371520, Note_on_c, 0, 65, 95
2, 371520, Note_on_c, 0, 54, 95
2, 371736, Note_off_c, 0, 54, 95
2, 372480, Note_off_c, 0, 65, 95
2, 372480, Note_on_c, 0, 51, 95
2, 372696, Note_off_c, 0, 51, 95
2, 372960, Note_on_c, 0, 70, 95
2, 373440, Note_on_c, 0, 55, 95
2, 373656, Note_off_c, 0, 55, 95
2, 373920, Note_off_c, 0, 70, 95
2, 373920, Note_on_c, 0, 65, 95
2, 374400, Note_off_c, 0, 65, 95
2, 374400, Note_on_c, 0, 70, 95
2, 374400, Note_on_c, 0, 46, 95
2, 374616, Note_off_c, 0, 46, 95
2, 375360, Note_off_c, 0, 70, 95
2, 375360, Note_on_c, 0, 65, 95
2, 375360, Note_on_c, 0, 55, 95
2, 375576, Note_off_c, 0, 55, 95
2, 376320, Note_off_c, 0, 65, 95
2, 376320, Note_on_c, 0, 70, 95
2, 376320, Note_on_c, 0, 44, 95
2, 376536, Note_off_c, 0, 44, 95
2, 377280, Note_off_c, 0, 70, 95
2, 377280, Note_on_c, 0, 68, 95
2, 377280, Note_on_c, 0, 54, 95
2, 377496, Note_off_c, 0, 54, 95
2, 377760, Note_on_c, 0, 64, 95
2, 378240, Note_off_c, 0, 68, 95
2, 378240, Note_on_c, 0, 44, 95
2, 378456, Note_off_c, 0, 44, 95
2, 379200, Note_off_c, 0, 64, 95
2, 379200, Note_on_c, 0, 65, 95
2, 379200, Note_on_c, 0, 54, 95
2, 379416, Note_off_c, 0, 54, 95
2, 380160, Note_off_c, 0, 65, 95
2, 380160, Note_on_c, 0, 49, 31
2, 380168, Note_on_c, 0, 53, 47
2, 380176, Note_on_c, 0, 56, 63
2, 380184, Note_on_c, 0, 61, 95
2, 380640, Note_off_c, 0, 61, 95
2, 380640, Note_off_c, 0, 56, 63
2, 380640, Note_off_c, 0, 53, 47
2, 380640, Note_off_c, 0, 49, 31
2, 381120, Note_on_c, 0, 58, 95
2, 381760, Note_off_c, 0, 58, 95
2, 381760, Note_on_c, 0, 56, 95
2, 382080, Note_off_c, 0, 56, 95
2, 382080, Note_on_c, 0, 59, 95
2, 382400, Note_off_c, 0, 59, 95
2, 382400, Note_on_c, 0, 58, 70
2, 382720, Note_off_c, 0, 58, 70
2, 382720, Note_on_c, 0, 56, 70
2, 383040, Note_off_c, 0, 56, 70
2, 383040, Note_on_c, 0, 52, 95
2, 383680, Note_off_c, 0, 52, 95
2, 383680, Note_on_c, 0, 53, 95
2, 384000, Note_off_c, 0, 53, 95
2, 384000, Note_on_c, 0, 49, 95
2, 384960, Note_off_c, 0, 49, 95
2, 384960, Note_on_c, 0, 44, 95
2, 384975, Note_on_c, 0, 48, 95
2, 384990, Note_on_c, 0, 54, 95
2, 385920, Note_off_c, 0, 54, 95
2, 385920, Note_off_c, 0, 48, 95
2, 385920, Note_off_c, 0, 44, 95
2, 385920, Note_on_c, 0, 44, 95
2, 385935, Note_on_c, 0, 49, 95
2, 385950, Note_on_c, 0, 53, 95
2, 385965, Note_on_c, 0, 56, 95
2, 387840, Note_off_c, 0, 56, 95
2, 387840, Note_off_c, 0, 53, 95
2, 387840, Note_off_c, 0, 49, 95
2, 387840, Note_off_c, 0, 44, 95
2, 387840, End_track
3, 0, Start_track
3, 0, Pitch_bend_c, 2, 8192
3, 0, Control_c, 2, 7, 87
3, 0, Control_c, 2, 10, 63
3, 0, Control_c, 2, 93, 0
3, 0, Control_c, 2, 91, 0
3, 0, Control_c, 2, 95, 0
3, 0, Control_c, 2, 92, 0
3, 0, Control_c, 2, 11, 127
3, 0, Program_c, 2, 24
3, 0, Control_c, 3, 7, 87
3, 0, Control_c, 3, 10, 63
3, 0, Control_c, 3, 93, 0
3, 0, Control_c, 3, 91, 0
3, 0, Control_c, 3, 95, 0
3, 0, Control_c, 3, 92, 0
3, 0, Control_c, 3, 11, 127
3, 0, Program_c, 3, 24
3, 3840, Note_on_c, 2, 34, 95
3, 5760, Note_off_c, 2, 34, 95
3, 5760, Note_on_c, 2, 41, 95
3, 7680, Note_off_c, 2, 41, 95
3, 7680, Note_on_c, 2, 34, 95
3, 9600, Note_off_c, 2, 34, 95
3, 9600, Note_on_c, 2, 41, 95
3, 11520, Note_off_c, 2, 41, 95
3, 11520, Note_on_c, 2, 34, 95
3, 13440, Note_off_c, 2, 34, 95
3, 13440, Note_on_c, 2, 41, 95
3, 15360, Note_off_c, 2, 41, 95
3, 15360, Note_on_c, 2, 34, 95
3, 17280, Note_off_c, 2, 34, 95
3, 17280, Note_on_c, 2, 41, 95
3, 19200, Note_off_c, 2, 41, 95
3, 19200, Note_on_c, 2, 39, 95
3, 21120, Note_off_c, 2, 39, 95
3, 21120, Note_on_c, 2, 39, 95
3, 23040, Note_off_c, 2, 39, 95
3, 23040, Note_on_c, 2, 44, 95
3, 24960, Note_off_c, 2, 44, 95
3, 24960, Note_on_c, 2, 44, 95
3, 26880, Note_off_c, 2, 44, 95
3, 26880, Note_on_c, 2, 37, 95
3, 30720, Note_off_c, 2, 37, 95
3, 34560, Note_on_c, 2, 37, 95
3, 36480, Note_off_c, 2, 37, 95
3, 36480, Note_on_c, 2, 37, 95
3, 38400, Note_off_c, 2, 37, 95
3, 38400, Note_on_c, 2, 44, 95
3, 40320, Note_off_c, 2, 44, 95
3, 40320, Note_on_c, 2, 44, 95
3, 42240, Note_off_c, 2, 44, 95
3, 42240, Note_on_c, 2, 37, 95
3, 44160, Note_off_c, 2, 37, 95
3, 44160, Note_on_c, 2, 44, 95
3, 46080, Note_off_c, 2, 44, 95
3, 46080, Note_on_c, 2, 37, 95
3, 48000, Note_off_c, 2, 37, 95
3, 48000, Note_on_c, 2, 44, 95
3, 49920, Note_off_c, 2, 44, 95
3, 49920, Note_on_c, 2, 39, 95
3, 51840, Note_off_c, 2, 39, 95
3, 51840, Note_on_c, 2, 34, 95
3, 53760, Note_off_c, 2, 34, 95
3, 53760, Note_on_c, 2, 39, 95
3, 55680, Note_off_c, 2, 39, 95
3, 55680, Note_on_c, 2, 34, 95
3, 57600, Note_off_c, 2, 34, 95
3, 57600, Note_on_c, 2, 39, 95
3, 59520, Note_off_c, 2, 39, 95
3, 59520, Note_on_c, 2, 34, 95
3, 61440, Note_off_c, 2, 34, 95
3, 61440, Note_on_c, 2, 39, 95
3, 63360, Note_off_c, 2, 39, 95
3, 63360, Note_on_c, 2, 34, 95
3, 65280, Note_off_c, 2, 34, 95
3, 65280, Note_on_c, 2, 31, 95
3, 67200, Note_off_c, 2, 31, 95
3, 67200, Note_on_c, 2, 39, 95
3, 69120, Note_off_c, 2, 39, 95
3, 69120, Note_on_c, 2, 31, 95
3, 71040, Note_off_c, 2, 31, 95
3, 71040, Note_on_c, 2, 39, 95
3, 72960, Note_off_c, 2, 39, 95
3, 72960, Note_on_c, 2, 37, 95
3, 74880, Note_off_c, 2, 37, 95
3, 74880, Note_on_c, 2, 44, 95
3, 76800, Note_off_c, 2, 44, 95
3, 76800, Note_on_c, 2, 37, 95
3, 78720, Note_off_c, 2, 37, 95
3, 78720, Note_on_c, 2, 44, 95
3, 80640, Note_off_c, 2, 44, 95
3, 80640, Note_on_c, 2, 39, 95
3, 82560, Note_off_c, 2, 39, 95
3, 82560, Note_on_c, 2, 34, 95
3, 84480, Note_off_c, 2, 34, 95
3, 84480, Note_on_c, 2, 39, 95
3, 86400, Note_off_c, 2, 39, 95
3, 86400, Note_on_c, 2, 34, 95
3, 88320, Note_off_c, 2, 34, 95
3, 88320, Note_on_c, 2, 32, 95
3, 90240, Note_off_c, 2, 32, 95
3, 96000, Note_on_c, 2, 37, 95
3, 97920, Note_off_c, 2, 37, 95
3, 97920, Note_on_c, 2, 37, 95
3, 99840, Note_off_c, 2, 37, 95
3, 99840, Note_on_c, 2, 44, 95
3, 101760, Note_off_c, 2, 44, 95
3, 101760, Note_on_c, 2, 44, 95
3, 103680, Note_off_c, 2, 44, 95
3, 103680, Note_on_c, 2, 37, 95
3, 105600, Note_off_c, 2, 37, 95
3, 105600, Note_on_c, 2, 44, 95
3, 107520, Note_off_c, 2, 44, 95
3, 107520, Note_on_c, 2, 37, 95
3, 109440, Note_off_c, 2, 37, 95
3, 109440, Note_on_c, 2, 44, 95
3, 111360, Note_off_c, 2, 44, 95
3, 111360, Note_on_c, 2, 42, 95
3, 113280, Note_off_c, 2, 42, 95
3, 113280, Note_on_c, 2, 46, 95
3, 115200, Note_off_c, 2, 46, 95
3, 115200, Note_on_c, 2, 42, 95
3, 117120, Note_off_c, 2, 42, 95
3, 117120, Note_on_c, 2, 46, 95
3, 119040, Note_off_c, 2, 46, 95
3, 119040, Note_on_c, 2, 41, 95
3, 120960, Note_off_c, 2, 41, 95
3, 120960, Note_on_c, 2, 39, 95
3, 122880, Note_off_c, 2, 39, 95
3, 122880, Note_on_c, 2, 37, 95
3, 124800, Note_off_c, 2, 37, 95
3, 124800, Note_on_c, 2, 36, 95
3, 126720, Note_off_c, 2, 36, 95
3, 126720, Note_on_c, 2, 34, 95
3, 128640, Note_off_c, 2, 34, 95
3, 128640, Note_on_c, 2, 41, 95
3, 130560, Note_off_c, 2, 41, 95
3, 130560, Note_on_c, 2, 34, 95
3, 132480, Note_off_c, 2, 34, 95
3, 132480, Note_on_c, 2, 41, 95
3, 134400, Note_off_c, 2, 41, 95
3, 134400, Note_on_c, 2, 34, 95
3, 136320, Note_off_c, 2, 34, 95
3, 136320, Note_on_c, 2, 41, 95
3, 138240, Note_off_c, 2, 41, 95
3, 138240, Note_on_c, 2, 34, 95
3, 140160, Note_off_c, 2, 34, 95
3, 140160, Note_on_c, 2, 41, 95
3, 142080, Note_off_c, 2, 41, 95
3, 142080, Note_on_c, 2, 39, 95
3, 144000, Note_off_c, 2, 39, 95
3, 144000, Note_on_c, 2, 39, 95
3, 145920, Note_off_c, 2, 39, 95
3, 145920, Note_on_c, 2, 44, 95
3, 147840, Note_off_c, 2, 44, 95
3, 147840, Note_on_c, 2, 44, 95
3, 149760, Note_off_c, 2, 44, 95
3, 149760, Note_on_c, 2, 37, 95
3, 151680, Note_off_c, 2, 37, 95
3, 151680, Note_on_c, 2, 44, 95
3, 153600, Note_off_c, 2, 44, 95
3, 153600, Note_on_c, 2, 41, 95
3, 155520, Note_off_c, 2, 41, 95
3, 155520, Note_on_c, 2, 29, 95
3, 157440, Note_off_c, 2, 29, 95
3, 157440, Note_on_c, 2, 46, 95
3, 159360, Note_off_c, 2, 46, 95
3, 159360, Note_on_c, 2, 46, 95
3, 161280, Note_off_c, 2, 46, 95
3, 161280, Note_on_c, 2, 42, 95
3, 163200, Note_off_c, 2, 42, 95
3, 163200, Note_on_c, 2, 41, 95
3, 165120, Note_off_c, 2, 41, 95
3, 165120, Note_on_c, 2, 46, 95
3, 167040, Note_off_c, 2, 46, 95
3, 167040, Note_on_c, 2, 46, 95
3, 168960, Note_off_c, 2, 46, 95
3, 168960, Note_on_c, 2, 42, 95
3, 170880, Note_off_c, 2, 42, 95
3, 170880, Note_on_c, 2, 41, 95
3, 172800, Note_off_c, 2, 41, 95
3, 172800, Note_on_c, 2, 46, 95
3, 174720, Note_off_c, 2, 46, 95
3, 188160, Note_on_c, 2, 46, 95
3, 190080, Note_off_c, 2, 46, 95
3, 190080, Note_on_c, 2, 46, 95
3, 192000, Note_off_c, 2, 46, 95
3, 192000, Note_on_c, 2, 42, 95
3, 193920, Note_off_c, 2, 42, 95
3, 193920, Note_on_c, 2, 41, 95
3, 195840, Note_off_c, 2, 41, 95
3, 195840, Note_on_c, 2, 46, 95
3, 197760, Note_off_c, 2, 46, 95
3, 197760, Note_on_c, 2, 46, 95
3, 199680, Note_off_c, 2, 46, 95
3, 199680, Note_on_c, 2, 42, 95
3, 201600, Note_off_c, 2, 42, 95
3, 201600, Note_on_c, 2, 41, 95
3, 203520, Note_off_c, 2, 41, 95
3, 203520, Note_on_c, 2, 46, 95
3, 205440, Note_off_c, 2, 46, 95
3, 218880, Note_on_c, 2, 32, 95
3, 220800, Note_off_c, 2, 32, 95
3, 220800, Note_on_c, 2, 39, 95
3, 222720, Note_off_c, 2, 39, 95
3, 222720, Note_on_c, 2, 37, 95
3, 224640, Note_off_c, 2, 37, 95
3, 224640, Note_on_c, 2, 41, 95
3, 226560, Note_off_c, 2, 41, 95
3, 226560, Note_on_c, 2, 32, 95
3, 228480, Note_off_c, 2, 32, 95
3, 228480, Note_on_c, 2, 39, 95
3, 230400, Note_off_c, 2, 39, 95
3, 230400, Note_on_c, 2, 37, 95
3, 232320, Note_off_c, 2, 37, 95
3, 232320, Note_on_c, 2, 41, 95
3, 234240, Note_off_c, 2, 41, 95
3, 234240, Note_on_c, 2, 41, 95
3, 236160, Note_off_c, 2, 41, 95
3, 236160, Note_on_c, 2, 41, 95
3, 238080, Note_off_c, 2, 41, 95
3, 238080, Note_on_c, 2, 46, 95
3, 240000, Note_off_c, 2, 46, 95
3, 240000, Note_on_c, 2, 46, 95
3, 241920, Note_off_c, 2, 46, 95
3, 241920, Note_on_c, 2, 39, 95
3, 243840, Note_off_c, 2, 39, 95
3, 243840, Note_on_c, 2, 39, 95
3, 245760, Note_off_c, 2, 39, 95
3, 245760, Note_on_c, 2, 44, 95
3, 247680, Note_off_c, 2, 44, 95
3, 249600, Note_on_c, 2, 37, 95
3, 251520, Note_off_c, 2, 37, 95
3, 251520, Note_on_c, 2, 37, 95
3, 253440, Note_off_c, 2, 37, 95
3, 253440, Note_on_c, 2, 44, 95
3, 255360, Note_off_c, 2, 44, 95
3, 255360, Note_on_c, 2, 44, 95
3, 257280, Note_off_c, 2, 44, 95
3, 257280, Note_on_c, 2, 37, 95
3, 259200, Note_off_c, 2, 37, 95
3, 259200, Note_on_c, 2, 44, 95
3, 261120, Note_off_c, 2, 44, 95
3, 261120, Note_on_c, 2, 37, 95
3, 263040, Note_off_c, 2, 37, 95
3, 263040, Note_on_c, 2, 44, 95
3, 264960, Note_off_c, 2, 44, 95
3, 264960, Note_on_c, 2, 39, 95
3, 266880, Note_off_c, 2, 39, 95
3, 266880, Note_on_c, 2, 34, 95
3, 268800, Note_off_c, 2, 34, 95
3, 268800, Note_on_c, 2, 39, 95
3, 270720, Note_off_c, 2, 39, 95
3, 270720, Note_on_c, 2, 34, 95
3, 272640, Note_off_c, 2, 34, 95
3, 272640, Note_on_c, 2, 39, 95
3, 274560, Note_off_c, 2, 39, 95
3, 274560, Note_on_c, 2, 34, 95
3, 276480, Note_off_c, 2, 34, 95
3, 276480, Note_on_c, 2, 39, 95
3, 278400, Note_off_c, 2, 39, 95
3, 278400, Note_on_c, 2, 34, 95
3, 280320, Note_off_c, 2, 34, 95
3, 280320, Note_on_c, 2, 31, 95
3, 282240, Note_off_c, 2, 31, 95
3, 282240, Note_on_c, 2, 39, 95
3, 284160, Note_off_c, 2, 39, 95
3, 284160, Note_on_c, 2, 31, 95
3, 286080, Note_off_c, 2, 31, 95
3, 286080, Note_on_c, 2, 39, 95
3, 288000, Note_off_c, 2, 39, 95
3, 288000, Note_on_c, 2, 37, 95
3, 289920, Note_off_c, 2, 37, 95
3, 289920, Note_on_c, 2, 44, 95
3, 291840, Note_off_c, 2, 44, 95
3, 291840, Note_on_c, 2, 37, 95
3, 293760, Note_off_c, 2, 37, 95
3, 293760, Note_on_c, 2, 44, 95
3, 295680, Note_off_c, 2, 44, 95
3, 295680, Note_on_c, 2, 39, 95
3, 297600, Note_off_c, 2, 39, 95
3, 297600, Note_on_c, 2, 34, 95
3, 299520, Note_off_c, 2, 34, 95
3, 299520, Note_on_c, 2, 39, 95
3, 301440, Note_off_c, 2, 39, 95
3, 301440, Note_on_c, 2, 34, 95
3, 303360, Note_off_c, 2, 34, 95
3, 303360, Note_on_c, 2, 32, 95
3, 305280, Note_off_c, 2, 32, 95
3, 311040, Note_on_c, 2, 37, 95
3, 312960, Note_off_c, 2, 37, 95
3, 312960, Note_on_c, 2, 37, 95
3, 314880, Note_off_c, 2, 37, 95
3, 314880, Note_on_c, 2, 44, 95
3, 316800, Note_off_c, 2, 44, 95
3, 316800, Note_on_c, 2, 44, 95
3, 318720, Note_off_c, 2, 44, 95
3, 318720, Note_on_c, 2, 37, 95
3, 320640, Note_off_c, 2, 37, 95
3, 320640, Note_on_c, 2, 44, 95
3, 322560, Note_off_c, 2, 44, 95
3, 322560, Note_on_c, 2, 37, 95
3, 324480, Note_off_c, 2, 37, 95
3, 324480, Note_on_c, 2, 44, 95
3, 326400, Note_off_c, 2, 44, 95
3, 326400, Note_on_c, 2, 42, 95
3, 328320, Note_off_c, 2, 42, 95
3, 328320, Note_on_c, 2, 46, 95
3, 330240, Note_off_c, 2, 46, 95
3, 330240, Note_on_c, 2, 42, 95
3, 332160, Note_off_c, 2, 42, 95
3, 332160, Note_on_c, 2, 46, 95
3, 334080, Note_off_c, 2, 46, 95
3, 334080, Note_on_c, 2, 41, 95
3, 336000, Note_off_c, 2, 41, 95
3, 336000, Note_on_c, 2, 39, 95
3, 337920, Note_off_c, 2, 39, 95
3, 337920, Note_on_c, 2, 37, 95
3, 339840, Note_off_c, 2, 37, 95
3, 339840, Note_on_c, 2, 36, 95
3, 341760, Note_off_c, 2, 36, 95
3, 341760, Note_on_c, 2, 34, 95
3, 343680, Note_off_c, 2, 34, 95
3, 343680, Note_on_c, 2, 41, 95
3, 345600, Note_off_c, 2, 41, 95
3, 345600, Note_on_c, 2, 34, 95
3, 347520, Note_off_c, 2, 34, 95
3, 347520, Note_on_c, 2, 41, 95
3, 349440, Note_off_c, 2, 41, 95
3, 349440, Note_on_c, 2, 34, 95
3, 351360, Note_off_c, 2, 34, 95
3, 351360, Note_on_c, 2, 41, 95
3, 353280, Note_off_c, 2, 41, 95
3, 353280, Note_on_c, 2, 34, 95
3, 355200, Note_off_c, 2, 34, 95
3, 355200, Note_on_c, 2, 41, 95
3, 357120, Note_off_c, 2, 41, 95
3, 357120, Note_on_c, 2, 39, 95
3, 359040, Note_off_c, 2, 39, 95
3, 359040, Note_on_c, 2, 39, 95
3, 360960, Note_off_c, 2, 39, 95
3, 360960, Note_on_c, 2, 44, 95
3, 362880, Note_off_c, 2, 44, 95
3, 362880, Note_on_c, 2, 44, 95
3, 364800, Note_off_c, 2, 44, 95
3, 364800, Note_on_c, 2, 39, 95
3, 366720, Note_off_c, 2, 39, 95
3, 366720, Note_on_c, 2, 39, 95
3, 368640, Note_off_c, 2, 39, 95
3, 368640, Note_on_c, 2, 44, 95
3, 370560, Note_off_c, 2, 44, 95
3, 370560, Note_on_c, 2, 44, 95
3, 372480, Note_off_c, 2, 44, 95
3, 372480, Note_on_c, 2, 39, 95
3, 374400, Note_off_c, 2, 39, 95
3, 374400, Note_on_c, 2, 39, 95
3, 376320, Note_off_c, 2, 39, 95
3, 376320, Note_on_c, 2, 44, 95
3, 378240, Note_off_c, 2, 44, 95
3, 378240, Note_on_c, 2, 44, 95
3, 380160, Note_off_c, 2, 44, 95
3, 380160, Note_on_c, 2, 37, 95
3, 381120, Note_off_c, 2, 37, 95
3, 381120, End_track
4, 0, Start_track
4, 0, Pitch_bend_c, 9, 8192
4, 0, Control_c, 9, 7, 55
4, 0, Control_c, 9, 10, 63
4, 0, Control_c, 9, 93, 0
4, 0, Control_c, 9, 91, 0
4, 0, Control_c, 9, 95, 0
4, 0, Control_c, 9, 92, 0
4, 0, Control_c, 9, 11, 127
4, 0, Program_c, 9, 0
4, 3840, Note_on_c, 9, 70, 95
4, 4320, Note_off_c, 9, 70, 95
4, 4320, Note_on_c, 9, 44, 47
4, 4800, Note_off_c, 9, 44, 47
4, 4800, Note_on_c, 9, 69, 95
4, 5280, Note_off_c, 9, 69, 95
4, 5280, Note_on_c, 9, 42, 63
4, 5760, Note_off_c, 9, 42, 63
4, 5760, Note_on_c, 9, 70, 95
4, 6240, Note_off_c, 9, 70, 95
4, 6240, Note_on_c, 9, 44, 47
4, 6720, Note_off_c, 9, 44, 47
4, 6720, Note_on_c, 9, 69, 95
4, 7200, Note_off_c, 9, 69, 95
4, 7200, Note_on_c, 9, 42, 79
4, 7680, Note_off_c, 9, 42, 79
4, 7680, Note_on_c, 9, 70, 95
4, 8160, Note_off_c, 9, 70, 95
4, 8160, Note_on_c, 9, 44, 47
4, 8640, Note_off_c, 9, 44, 47
4, 8640, Note_on_c, 9, 69, 95
4, 9120, Note_off_c, 9, 69, 95
4, 9120, Note_on_c, 9, 42, 63
4, 9600, Note_off_c, 9, 42, 63
4, 9600, Note_on_c, 9, 70, 95
4, 10080, Note_off_c, 9, 70, 95
4, 10080, Note_on_c, 9, 44, 47
4, 10560, Note_off_c, 9, 44, 47
4, 10560, Note_on_c, 9, 69, 95
4, 11040, Note_off_c, 9, 69, 95
4, 11040, Note_on_c, 9, 42, 79
4, 11520, Note_off_c, 9, 42, 79
4, 11520, Note_on_c, 9, 70, 95
4, 12000, Note_off_c, 9, 70, 95
4, 12000, Note_on_c, 9, 44, 47
4, 12480, Note_off_c, 9, 44, 47
4, 12480, Note_on_c, 9, 69, 95
4, 12960, Note_off_c, 9, 69, 95
4, 12960, Note_on_c, 9, 42, 63
4, 13440, Note_off_c, 9, 42, 63
4, 13440, Note_on_c, 9, 70, 95
4, 13920, Note_off_c, 9, 70, 95
4, 13920, Note_on_c, 9, 44, 47
4, 14400, Note_off_c, 9, 44, 47
4, 14400, Note_on_c, 9, 69, 95
4, 14880, Note_off_c, 9, 69, 95
4, 14880, Note_on_c, 9, 42, 79
4, 15360, Note_off_c, 9, 42, 79
4, 15360, Note_on_c, 9, 70, 95
4, 15840, Note_off_c, 9, 70, 95
4, 15840, Note_on_c, 9, 44, 47
4, 16320, Note_off_c, 9, 44, 47
4, 16320, Note_on_c, 9, 69, 95
4, 16800, Note_off_c, 9, 69, 95
4, 16800, Note_on_c, 9, 42, 63
4, 17280, Note_off_c, 9, 42, 63
4, 17280, Note_on_c, 9, 70, 95
4, 17760, Note_off_c, 9, 70, 95
4, 17760, Note_on_c, 9, 44, 47
4, 18240, Note_off_c, 9, 44, 47
4, 18240, Note_on_c, 9, 69, 95
4, 18720, Note_off_c, 9, 69, 95
4, 18720, Note_on_c, 9, 42, 79
4, 19200, Note_off_c, 9, 42, 79
4, 19200, Note_on_c, 9, 70, 95
4, 19680, Note_off_c, 9, 70, 95
4, 19680, Note_on_c, 9, 44, 47
4, 20160, Note_off_c, 9, 44, 47
4, 20160, Note_on_c, 9, 69, 95
4, 20640, Note_off_c, 9, 69, 95
4, 20640, Note_on_c, 9, 42, 63
4, 21120, Note_off_c, 9, 42, 63
4, 21120, Note_on_c, 9, 70, 95
4, 21600, Note_off_c, 9, 70, 95
4, 21600, Note_on_c, 9, 44, 47
4, 22080, Note_off_c, 9, 44, 47
4, 22080, Note_on_c, 9, 69, 95
4, 22560, Note_off_c, 9, 69, 95
4, 22560, Note_on_c, 9, 42, 79
4, 23040, Note_off_c, 9, 42, 79
4, 23040, Note_on_c, 9, 70, 95
4, 23520, Note_off_c, 9, 70, 95
4, 23520, Note_on_c, 9, 44, 47
4, 24000, Note_off_c, 9, 44, 47
4, 24000, Note_on_c, 9, 69, 95
4, 24480, Note_off_c, 9, 69, 95
4, 24480, Note_on_c, 9, 42, 63
4, 24960, Note_off_c, 9, 42, 63
4, 24960, Note_on_c, 9, 70, 95
4, 25440, Note_off_c, 9, 70, 95
4, 25440, Note_on_c, 9, 44, 47
4, 25920, Note_off_c, 9, 44, 47
4, 25920, Note_on_c, 9, 69, 95
4, 26400, Note_off_c, 9, 69, 95
4, 26400, Note_on_c, 9, 42, 79
4, 26880, Note_off_c, 9, 42, 79
4, 26880, Note_on_c, 9, 44, 95
4, 30720, Note_off_c, 9, 44, 95
4, 34560, Note_on_c, 9, 70, 95
4, 35040, Note_off_c, 9, 70, 95
4, 35040, Note_on_c, 9, 44, 47
4, 35520, Note_off_c, 9, 44, 47
4, 35520, Note_on_c, 9, 69, 95
4, 36000, Note_off_c, 9, 69, 95
4, 36000, Note_on_c, 9, 42, 63
4, 36480, Note_off_c, 9, 42, 63
4, 36480, Note_on_c, 9, 70, 95
4, 36960, Note_off_c, 9, 70, 95
4, 36960, Note_on_c, 9, 44, 47
4, 37440, Note_off_c, 9, 44, 47
4, 37440, Note_on_c, 9, 69, 95
4, 37920, Note_off_c, 9, 69, 95
4, 37920, Note_on_c, 9, 42, 79
4, 38400, Note_off_c, 9, 42, 79
4, 38400, Note_on_c, 9, 70, 95
4, 38880, Note_off_c, 9, 70, 95
4, 38880, Note_on_c, 9, 44, 47
4, 39360, Note_off_c, 9, 44, 47
4, 39360, Note_on_c, 9, 69, 95
4, 39840, Note_off_c, 9, 69, 95
4, 39840, Note_on_c, 9, 42, 63
4, 40320, Note_off_c, 9, 42, 63
4, 40320, Note_on_c, 9, 70, 95
4, 40800, Note_off_c, 9, 70, 95
4, 40800, Note_on_c, 9, 44, 47
4, 41280, Note_off_c, 9, 44, 47
4, 41280, Note_on_c, 9, 69, 95
4, 41760, Note_off_c, 9, 69, 95
4, 41760, Note_on_c, 9, 42, 79
4, 42240, Note_off_c, 9, 42, 79
4, 42240, Note_on_c, 9, 70, 95
4, 42720, Note_off_c, 9, 70, 95
4, 42720, Note_on_c, 9, 44, 47
4, 43200, Note_off_c, 9, 44, 47
4, 43200, Note_on_c, 9, 69, 95
4, 43680, Note_off_c, 9, 69, 95
4, 43680, Note_on_c, 9, 42, 63
4, 44160, Note_off_c, 9, 42, 63
4, 44160, Note_on_c, 9, 70, 95
4, 44640, Note_off_c, 9, 70, 95
4, 44640, Note_on_c, 9, 44, 47
4, 45120, Note_off_c, 9, 44, 47
4, 45120, Note_on_c, 9, 69, 95
4, 45600, Note_off_c, 9, 69, 95
4, 45600, Note_on_c, 9, 42, 79
4, 46080, Note_off_c, 9, 42, 79
4, 46080, Note_on_c, 9, 70, 95
4, 46560, Note_off_c, 9, 70, 95
4, 46560, Note_on_c, 9, 44, 47
4, 47040, Note_off_c, 9, 44, 47
4, 47040, Note_on_c, 9, 69, 95
4, 47520, Note_off_c, 9, 69, 95
4, 47520, Note_on_c, 9, 42, 63
4, 48000, Note_off_c, 9, 42, 63
4, 48000, Note_on_c, 9, 70, 95
4, 48480, Note_off_c, 9, 70, 95
4, 48480, Note_on_c, 9, 44, 47
4, 48960, Note_off_c, 9, 44, 47
4, 48960, Note_on_c, 9, 69, 95
4, 49440, Note_off_c, 9, 69, 95
4, 49440, Note_on_c, 9, 42, 79
4, 49920, Note_off_c, 9, 42, 79
4, 49920, Note_on_c, 9, 70, 95
4, 50400, Note_off_c, 9, 70, 95
4, 50400, Note_on_c, 9, 44, 47
4, 50880, Note_off_c, 9, 44, 47
4, 50880, Note_on_c, 9, 69, 95
4, 51360, Note_off_c, 9, 69, 95
4, 51360, Note_on_c, 9, 42, 63
4, 51840, Note_off_c, 9, 42, 63
4, 51840, Note_on_c, 9, 70, 95
4, 52320, Note_off_c, 9, 70, 95
4, 52320, Note_on_c, 9, 44, 47
4, 52800, Note_off_c, 9, 44, 47
4, 52800, Note_on_c, 9, 69, 95
4, 53280, Note_off_c, 9, 69, 95
4, 53280, Note_on_c, 9, 42, 79
4, 53760, Note_off_c, 9, 42, 79
4, 53760, Note_on_c, 9, 70, 95
4, 54240, Note_off_c, 9, 70, 95
4, 54240, Note_on_c, 9, 44, 47
4, 54720, Note_off_c, 9, 44, 47
4, 54720, Note_on_c, 9, 69, 95
4, 55200, Note_off_c, 9, 69, 95
4, 55200, Note_on_c, 9, 42, 63
4, 55680, Note_off_c, 9, 42, 63
4, 55680, Note_on_c, 9, 70, 95
4, 56160, Note_off_c, 9, 70, 95
4, 56160, Note_on_c, 9, 44, 47
4, 56640, Note_off_c, 9, 44, 47
4, 56640, Note_on_c, 9, 69, 95
4, 57120, Note_off_c, 9, 69, 95
4, 57120, Note_on_c, 9, 42, 79
4, 57600, Note_off_c, 9, 42, 79
4, 57600, Note_on_c, 9, 70, 95
4, 58080, Note_off_c, 9, 70, 95
4, 58080, Note_on_c, 9, 44, 47
4, 58560, Note_off_c, 9, 44, 47
4, 58560, Note_on_c, 9, 69, 95
4, 59040, Note_off_c, 9, 69, 95
4, 59040, Note_on_c, 9, 42, 63
4, 59520, Note_off_c, 9, 42, 63
4, 59520, Note_on_c, 9, 70, 95
4, 60000, Note_off_c, 9, 70, 95
4, 60000, Note_on_c, 9, 44, 47
4, 60480, Note_off_c, 9, 44, 47
4, 60480, Note_on_c, 9, 69, 95
4, 60960, Note_off_c, 9, 69, 95
4, 60960, Note_on_c, 9, 42, 79
4, 61440, Note_off_c, 9, 42, 79
4, 61440, Note_on_c, 9, 70, 95
4, 61920, Note_off_c, 9, 70, 95
4, 61920, Note_on_c, 9, 44, 47
4, 62400, Note_off_c, 9, 44, 47
4, 62400, Note_on_c, 9, 69, 95
4, 62880, Note_off_c, 9, 69, 95
4, 62880, Note_on_c, 9, 42, 63
4, 63360, Note_off_c, 9, 42, 63
4, 63360, Note_on_c, 9, 70, 95
4, 63840, Note_off_c, 9, 70, 95
4, 63840, Note_on_c, 9, 44, 47
4, 64320, Note_off_c, 9, 44, 47
4, 64320, Note_on_c, 9, 69, 95
4, 64800, Note_off_c, 9, 69, 95
4, 64800, Note_on_c, 9, 42, 79
4, 65280, Note_off_c, 9, 42, 79
4, 65280, Note_on_c, 9, 70, 95
4, 65760, Note_off_c, 9, 70, 95
4, 65760, Note_on_c, 9, 44, 47
4, 66240, Note_off_c, 9, 44, 47
4, 66240, Note_on_c, 9, 69, 95
4, 66720, Note_off_c, 9, 69, 95
4, 66720, Note_on_c, 9, 42, 63
4, 67200, Note_off_c, 9, 42, 63
4, 67200, Note_on_c, 9, 70, 95
4, 67680, Note_off_c, 9, 70, 95
4, 67680, Note_on_c, 9, 44, 47
4, 68160, Note_off_c, 9, 44, 47
4, 68160, Note_on_c, 9, 69, 95
4, 68640, Note_off_c, 9, 69, 95
4, 68640, Note_on_c, 9, 42, 79
4, 69120, Note_off_c, 9, 42, 79
4, 69120, Note_on_c, 9, 70, 95
4, 69600, Note_off_c, 9, 70, 95
4, 69600, Note_on_c, 9, 44, 47
4, 70080, Note_off_c, 9, 44, 47
4, 70080, Note_on_c, 9, 69, 95
4, 70560, Note_off_c, 9, 69, 95
4, 70560, Note_on_c, 9, 42, 63
4, 71040, Note_off_c, 9, 42, 63
4, 71040, Note_on_c, 9, 70, 95
4, 71520, Note_off_c, 9, 70, 95
4, 71520, Note_on_c, 9, 44, 47
4, 72000, Note_off_c, 9, 44, 47
4, 72000, Note_on_c, 9, 69, 95
4, 72480, Note_off_c, 9, 69, 95
4, 72480, Note_on_c, 9, 42, 79
4, 72960, Note_off_c, 9, 42, 79
4, 72960, Note_on_c, 9, 70, 95
4, 73440, Note_off_c, 9, 70, 95
4, 73440, Note_on_c, 9, 44, 47
4, 73920, Note_off_c, 9, 44, 47
4, 73920, Note_on_c, 9, 69, 95
4, 74400, Note_off_c, 9, 69, 95
4, 74400, Note_on_c, 9, 42, 63
4, 74880, Note_off_c, 9, 42, 63
4, 74880, Note_on_c, 9, 70, 95
4, 75360, Note_off_c, 9, 70, 95
4, 75360, Note_on_c, 9, 44, 47
4, 75840, Note_off_c, 9, 44, 47
4, 75840, Note_on_c, 9, 69, 95
4, 76320, Note_off_c, 9, 69, 95
4, 76320, Note_on_c, 9, 42, 79
4, 76800, Note_off_c, 9, 42, 79
4, 76800, Note_on_c, 9, 70, 95
4, 77280, Note_off_c, 9, 70, 95
4, 77280, Note_on_c, 9, 44, 47
4, 77760, Note_off_c, 9, 44, 47
4, 77760, Note_on_c, 9, 69, 95
4, 78240, Note_off_c, 9, 69, 95
4, 78240, Note_on_c, 9, 42, 63
4, 78720, Note_off_c, 9, 42, 63
4, 78720, Note_on_c, 9, 70, 95
4, 79200, Note_off_c, 9, 70, 95
4, 79200, Note_on_c, 9, 44, 47
4, 79680, Note_off_c, 9, 44, 47
4, 79680, Note_on_c, 9, 69, 95
4, 80160, Note_off_c, 9, 69, 95
4, 80160, Note_on_c, 9, 42, 79
4, 80640, Note_off_c, 9, 42, 79
4, 80640, Note_on_c, 9, 70, 95
4, 81120, Note_off_c, 9, 70, 95
4, 81120, Note_on_c, 9, 44, 47
4, 81600, Note_off_c, 9, 44, 47
4, 81600, Note_on_c, 9, 69, 95
4, 82080, Note_off_c, 9, 69, 95
4, 82080, Note_on_c, 9, 42, 63
4, 82560, Note_off_c, 9, 42, 63
4, 82560, Note_on_c, 9, 70, 95
4, 83040, Note_off_c, 9, 70, 95
4, 83040, Note_on_c, 9, 44, 47
4, 83520, Note_off_c, 9, 44, 47
4, 83520, Note_on_c, 9, 69, 95
4, 84000, Note_off_c, 9, 69, 95
4, 84000, Note_on_c, 9, 42, 79
4, 84480, Note_off_c, 9, 42, 79
4, 84480, Note_on_c, 9, 70, 95
4, 84960, Note_off_c, 9, 70, 95
4, 84960, Note_on_c, 9, 44, 47
4, 85440, Note_off_c, 9, 44, 47
4, 85440, Note_on_c, 9, 69, 95
4, 85920, Note_off_c, 9, 69, 95
4, 85920, Note_on_c, 9, 42, 63
4, 86400, Note_off_c, 9, 42, 63
4, 86400, Note_on_c, 9, 70, 95
4, 86880, Note_off_c, 9, 70, 95
4, 86880, Note_on_c, 9, 44, 47
4, 87360, Note_off_c, 9, 44, 47
4, 87360, Note_on_c, 9, 69, 95
4, 87840, Note_off_c, 9, 69, 95
4, 87840, Note_on_c, 9, 42, 79
4, 88320, Note_off_c, 9, 42, 79
4, 88320, Note_on_c, 9, 44, 95
4, 92160, Note_off_c, 9, 44, 95
4, 96000, Note_on_c, 9, 70, 95
4, 96480, Note_off_c, 9, 70, 95
4, 96480, Note_on_c, 9, 44, 47
4, 96960, Note_off_c, 9, 44, 47
4, 96960, Note_on_c, 9, 69, 95
4, 97440, Note_off_c, 9, 69, 95
4, 97440, Note_on_c, 9, 42, 63
4, 97920, Note_off_c, 9, 42, 63
4, 97920, Note_on_c, 9, 70, 95
4, 98400, Note_off_c, 9, 70, 95
4, 98400, Note_on_c, 9, 44, 47
4, 98880, Note_off_c, 9, 44, 47
4, 98880, Note_on_c, 9, 69, 95
4, 99360, Note_off_c, 9, 69, 95
4, 99360, Note_on_c, 9, 42, 79
4, 99840, Note_off_c, 9, 42, 79
4, 99840, Note_on_c, 9, 70, 95
4, 100320, Note_off_c, 9, 70, 95
4, 100320, Note_on_c, 9, 44, 47
4, 100800, Note_off_c, 9, 44, 47
4, 100800, Note_on_c, 9, 69, 95
4, 101280, Note_off_c, 9, 69, 95
4, 101280, Note_on_c, 9, 42, 63
4, 101760, Note_off_c, 9, 42, 63
4, 101760, Note_on_c, 9, 70, 95
4, 102240, Note_off_c, 9, 70, 95
4, 102240, Note_on_c, 9, 44, 47
4, 102720, Note_off_c, 9, 44, 47
4, 102720, Note_on_c, 9, 69, 95
4, 103200, Note_off_c, 9, 69, 95
4, 103200, Note_on_c, 9, 42, 79
4, 103680, Note_off_c, 9, 42, 79
4, 103680, Note_on_c, 9, 70, 95
4, 104160, Note_off_c, 9, 70, 95
4, 104160, Note_on_c, 9, 44, 47
4, 104640, Note_off_c, 9, 44, 47
4, 104640, Note_on_c, 9, 69, 95
4, 105120, Note_off_c, 9, 69, 95
4, 105120, Note_on_c, 9, 42, 63
4, 105600, Note_off_c, 9, 42, 63
4, 105600, Note_on_c, 9, 70, 95
4, 106080, Note_off_c, 9, 70, 95
4, 106080, Note_on_c, 9, 44, 47
4, 106560, Note_off_c, 9, 44, 47
4, 106560, Note_on_c, 9, 69, 95
4, 107040, Note_off_c, 9, 69, 95
4, 107040, Note_on_c, 9, 42, 79
4, 107520, Note_off_c, 9, 42, 79
4, 107520, Note_on_c, 9, 70, 95
4, 108000, Note_off_c, 9, 70, 95
4, 108000, Note_on_c, 9, 44, 47
4, 108480, Note_off_c, 9, 44, 47
4, 108480, Note_on_c, 9, 69, 95
4, 108960, Note_off_c, 9, 69, 95
4, 108960, Note_on_c, 9, 42, 63
4, 109440, Note_off_c, 9, 42, 63
4, 109440, Note_on_c, 9, 70, 95
4, 109920, Note_off_c, 9, 70, 95
4, 109920, Note_on_c, 9, 44, 47
4, 110400, Note_off_c, 9, 44, 47
4, 110400, Note_on_c, 9, 69, 95
4, 110880, Note_off_c, 9, 69, 95
4, 110880, Note_on_c, 9, 42, 79
4, 111360, Note_off_c, 9, 42, 79
4, 111360, Note_on_c, 9, 70, 95
4, 111840, Note_off_c, 9, 70, 95
4, 111840, Note_on_c, 9, 44, 47
4, 112320, Note_off_c, 9, 44, 47
4, 112320, Note_on_c, 9, 69, 95
4, 112800, Note_off_c, 9, 69, 95
4, 112800, Note_on_c, 9, 42, 63
4, 113280, Note_off_c, 9, 42, 63
4, 113280, Note_on_c, 9, 70, 95
4, 113760, Note_off_c, 9, 70, 95
4, 113760, Note_on_c, 9, 44, 47
4, 114240, Note_off_c, 9, 44, 47
4, 114240, Note_on_c, 9, 69, 95
4, 114720, Note_off_c, 9, 69, 95
4, 114720, Note_on_c, 9, 42, 79
4, 115200, Note_off_c, 9, 42, 79
4, 115200, Note_on_c, 9, 70, 95
4, 115680, Note_off_c, 9, 70, 95
4, 115680, Note_on_c, 9, 44, 47
4, 116160, Note_off_c, 9, 44, 47
4, 116160, Note_on_c, 9, 69, 95
4, 116640, Note_off_c, 9, 69, 95
4, 116640, Note_on_c, 9, 42, 63
4, 117120, Note_off_c, 9, 42, 63
4, 117120, Note_on_c, 9, 70, 95
4, 117600, Note_off_c, 9, 70, 95
4, 117600, Note_on_c, 9, 44, 47
4, 118080, Note_off_c, 9, 44, 47
4, 118080, Note_on_c, 9, 69, 95
4, 118560, Note_off_c, 9, 69, 95
4, 118560, Note_on_c, 9, 42, 79
4, 119040, Note_off_c, 9, 42, 79
4, 119040, Note_on_c, 9, 70, 95
4, 119520, Note_off_c, 9, 70, 95
4, 119520, Note_on_c, 9, 44, 47
4, 120000, Note_off_c, 9, 44, 47
4, 120000, Note_on_c, 9, 69, 95
4, 120480, Note_off_c, 9, 69, 95
4, 120480, Note_on_c, 9, 42, 63
4, 120960, Note_off_c, 9, 42, 63
4, 120960, Note_on_c, 9, 70, 95
4, 121440, Note_off_c, 9, 70, 95
4, 121440, Note_on_c, 9, 44, 47
4, 121920, Note_off_c, 9, 44, 47
4, 121920, Note_on_c, 9, 69, 95
4, 122400, Note_off_c, 9, 69, 95
4, 122400, Note_on_c, 9, 42, 79
4, 122880, Note_off_c, 9, 42, 79
4, 122880, Note_on_c, 9, 70, 95
4, 123360, Note_off_c, 9, 70, 95
4, 123360, Note_on_c, 9, 44, 47
4, 123840, Note_off_c, 9, 44, 47
4, 123840, Note_on_c, 9, 69, 95
4, 124320, Note_off_c, 9, 69, 95
4, 124320, Note_on_c, 9, 42, 63
4, 124800, Note_off_c, 9, 42, 63
4, 124800, Note_on_c, 9, 70, 95
4, 125280, Note_off_c, 9, 70, 95
4, 125280, Note_on_c, 9, 44, 47
4, 125760, Note_off_c, 9, 44, 47
4, 125760, Note_on_c, 9, 69, 95
4, 126240, Note_off_c, 9, 69, 95
4, 126240, Note_on_c, 9, 42, 79
4, 126720, Note_off_c, 9, 42, 79
4, 126720, Note_on_c, 9, 70, 95
4, 127200, Note_off_c, 9, 70, 95
4, 127200, Note_on_c, 9, 44, 47
4, 127680, Note_off_c, 9, 44, 47
4, 127680, Note_on_c, 9, 69, 95
4, 128160, Note_off_c, 9, 69, 95
4, 128160, Note_on_c, 9, 42, 63
4, 128640, Note_off_c, 9, 42, 63
4, 128640, Note_on_c, 9, 70, 95
4, 129120, Note_off_c, 9, 70, 95
4, 129120, Note_on_c, 9, 44, 47
4, 129600, Note_off_c, 9, 44, 47
4, 129600, Note_on_c, 9, 69, 95
4, 130080, Note_off_c, 9, 69, 95
4, 130080, Note_on_c, 9, 42, 79
4, 130560, Note_off_c, 9, 42, 79
4, 130560, Note_on_c, 9, 70, 95
4, 131040, Note_off_c, 9, 70, 95
4, 131040, Note_on_c, 9, 44, 47
4, 131520, Note_off_c, 9, 44, 47
4, 131520, Note_on_c, 9, 69, 95
4, 132000, Note_off_c, 9, 69, 95
4, 132000, Note_on_c, 9, 42, 63
4, 132480, Note_off_c, 9, 42, 63
4, 132480, Note_on_c, 9, 70, 95
4, 132960, Note_off_c, 9, 70, 95
4, 132960, Note_on_c, 9, 44, 47
4, 133440, Note_off_c, 9, 44, 47
4, 133440, Note_on_c, 9, 69, 95
4, 133920, Note_off_c, 9, 69, 95
4, 133920, Note_on_c, 9, 42, 79
4, 134400, Note_off_c, 9, 42, 79
4, 134400, Note_on_c, 9, 70, 95
4, 134880, Note_off_c, 9, 70, 95
4, 134880, Note_on_c, 9, 44, 47
4, 135360, Note_off_c, 9, 44, 47
4, 135360, Note_on_c, 9, 69, 95
4, 135840, Note_off_c, 9, 69, 95
4, 135840, Note_on_c, 9, 42, 63
4, 136320, Note_off_c, 9, 42, 63
4, 136320, Note_on_c, 9, 70, 95
4, 136800, Note_off_c, 9, 70, 95
4, 136800, Note_on_c, 9, 44, 47
4, 137280, Note_off_c, 9, 44, 47
4, 137280, Note_on_c, 9, 69, 95
4, 137760, Note_off_c, 9, 69, 95
4, 137760, Note_on_c, 9, 42, 79
4, 138240, Note_off_c, 9, 42, 79
4, 138240, Note_on_c, 9, 70, 95
4, 138720, Note_off_c, 9, 70, 95
4, 138720, Note_on_c, 9, 44, 47
4, 139200, Note_off_c, 9, 44, 47
4, 139200, Note_on_c, 9, 69, 95
4, 139680, Note_off_c, 9, 69, 95
4, 139680, Note_on_c, 9, 42, 63
4, 140160, Note_off_c, 9, 42, 63
4, 140160, Note_on_c, 9, 70, 95
4, 140640, Note_off_c, 9, 70, 95
4, 140640, Note_on_c, 9, 44, 47
4, 141120, Note_off_c, 9, 44, 47
4, 141120, Note_on_c, 9, 69, 95
4, 141600, Note_off_c, 9, 69, 95
4, 141600, Note_on_c, 9, 42, 79
4, 142080, Note_off_c, 9, 42, 79
4, 142080, Note_on_c, 9, 70, 95
4, 142560, Note_off_c, 9, 70, 95
4, 142560, Note_on_c, 9, 44, 47
4, 143040, Note_off_c, 9, 44, 47
4, 143040, Note_on_c, 9, 69, 95
4, 143520, Note_off_c, 9, 69, 95
4, 143520, Note_on_c, 9, 42, 63
4, 144000, Note_off_c, 9, 42, 63
4, 144000, Note_on_c, 9, 70, 95
4, 144480, Note_off_c, 9, 70, 95
4, 144480, Note_on_c, 9, 44, 47
4, 144960, Note_off_c, 9, 44, 47
4, 144960, Note_on_c, 9, 69, 95
4, 145440, Note_off_c, 9, 69, 95
4, 145440, Note_on_c, 9, 42, 79
4, 145920, Note_off_c, 9, 42, 79
4, 145920, Note_on_c, 9, 70, 95
4, 146400, Note_off_c, 9, 70, 95
4, 146400, Note_on_c, 9, 44, 47
4, 146880, Note_off_c, 9, 44, 47
4, 146880, Note_on_c, 9, 69, 95
4, 147360, Note_off_c, 9, 69, 95
4, 147360, Note_on_c, 9, 42, 63
4, 147840, Note_off_c, 9, 42, 63
4, 147840, Note_on_c, 9, 70, 95
4, 148320, Note_off_c, 9, 70, 95
4, 148320, Note_on_c, 9, 44, 47
4, 148800, Note_off_c, 9, 44, 47
4, 148800, Note_on_c, 9, 69, 95
4, 149280, Note_off_c, 9, 69, 95
4, 149280, Note_on_c, 9, 42, 79
4, 149760, Note_off_c, 9, 42, 79
4, 149760, Note_on_c, 9, 70, 95
4, 150240, Note_off_c, 9, 70, 95
4, 150240, Note_on_c, 9, 44, 47
4, 150720, Note_off_c, 9, 44, 47
4, 150720, Note_on_c, 9, 69, 95
4, 151200, Note_off_c, 9, 69, 95
4, 151200, Note_on_c, 9, 42, 63
4, 151680, Note_off_c, 9, 42, 63
4, 151680, Note_on_c, 9, 70, 95
4, 152160, Note_off_c, 9, 70, 95
4, 152160, Note_on_c, 9, 44, 47
4, 152640, Note_off_c, 9, 44, 47
4, 152640, Note_on_c, 9, 69, 95
4, 153120, Note_off_c, 9, 69, 95
4, 153120, Note_on_c, 9, 42, 79
4, 153600, Note_off_c, 9, 42, 79
4, 153600, Note_on_c, 9, 70, 95
4, 154080, Note_off_c, 9, 70, 95
4, 154080, Note_on_c, 9, 44, 47
4, 154560, Note_off_c, 9, 44, 47
4, 154560, Note_on_c, 9, 69, 95
4, 155040, Note_off_c, 9, 69, 95
4, 155040, Note_on_c, 9, 42, 63
4, 155520, Note_off_c, 9, 42, 63
4, 155520, Note_on_c, 9, 70, 95
4, 156000, Note_off_c, 9, 70, 95
4, 156000, Note_on_c, 9, 44, 47
4, 156480, Note_off_c, 9, 44, 47
4, 156480, Note_on_c, 9, 69, 95
4, 156960, Note_off_c, 9, 69, 95
4, 156960, Note_on_c, 9, 42, 79
4, 157440, Note_off_c, 9, 42, 79
4, 157440, Note_on_c, 9, 70, 95
4, 157920, Note_off_c, 9, 70, 95
4, 157920, Note_on_c, 9, 44, 47
4, 158400, Note_off_c, 9, 44, 47
4, 158400, Note_on_c, 9, 69, 95
4, 158880, Note_off_c, 9, 69, 95
4, 158880, Note_on_c, 9, 42, 63
4, 159360, Note_off_c, 9, 42, 63
4, 159360, Note_on_c, 9, 70, 95
4, 159840, Note_off_c, 9, 70, 95
4, 159840, Note_on_c, 9, 44, 47
4, 160320, Note_off_c, 9, 44, 47
4, 160320, Note_on_c, 9, 69, 95
4, 160800, Note_off_c, 9, 69, 95
4, 160800, Note_on_c, 9, 42, 79
4, 161280, Note_off_c, 9, 42, 79
4, 161280, Note_on_c, 9, 70, 95
4, 161760, Note_off_c, 9, 70, 95
4, 161760, Note_on_c, 9, 44, 47
4, 162240, Note_off_c, 9, 44, 47
4, 162240, Note_on_c, 9, 69, 95
4, 162720, Note_off_c, 9, 69, 95
4, 162720, Note_on_c, 9, 42, 63
4, 163200, Note_off_c, 9, 42, 63
4, 163200, Note_on_c, 9, 70, 95
4, 163680, Note_off_c, 9, 70, 95
4, 163680, Note_on_c, 9, 44, 47
4, 164160, Note_off_c, 9, 44, 47
4, 164160, Note_on_c, 9, 69, 95
4, 164640, Note_off_c, 9, 69, 95
4, 164640, Note_on_c, 9, 42, 79
4, 165120, Note_off_c, 9, 42, 79
4, 165120, Note_on_c, 9, 70, 95
4, 165600, Note_off_c, 9, 70, 95
4, 165600, Note_on_c, 9, 44, 47
4, 166080, Note_off_c, 9, 44, 47
4, 166080, Note_on_c, 9, 69, 95
4, 166560, Note_off_c, 9, 69, 95
4, 166560, Note_on_c, 9, 42, 63
4, 167040, Note_off_c, 9, 42, 63
4, 167040, Note_on_c, 9, 70, 95
4, 167520, Note_off_c, 9, 70, 95
4, 167520, Note_on_c, 9, 44, 47
4, 168000, Note_off_c, 9, 44, 47
4, 168000, Note_on_c, 9, 69, 95
4, 168480, Note_off_c, 9, 69, 95
4, 168480, Note_on_c, 9, 42, 79
4, 168960, Note_off_c, 9, 42, 79
4, 168960, Note_on_c, 9, 70, 95
4, 169440, Note_off_c, 9, 70, 95
4, 169440, Note_on_c, 9, 44, 47
4, 169920, Note_off_c, 9, 44, 47
4, 169920, Note_on_c, 9, 69, 95
4, 170400, Note_off_c, 9, 69, 95
4, 170400, Note_on_c, 9, 42, 63
4, 170880, Note_off_c, 9, 42, 63
4, 170880, Note_on_c, 9, 70, 95
4, 171360, Note_off_c, 9, 70, 95
4, 171360, Note_on_c, 9, 44, 47
4, 171840, Note_off_c, 9, 44, 47
4, 171840, Note_on_c, 9, 69, 95
4, 172320, Note_off_c, 9, 69, 95
4, 172320, Note_on_c, 9, 42, 79
4, 172800, Note_off_c, 9, 42, 79
4, 172800, Note_on_c, 9, 44, 95
4, 176640, Note_off_c, 9, 44, 95
4, 188160, Note_on_c, 9, 70, 95
4, 188640, Note_off_c, 9, 70, 95
4, 188640, Note_on_c, 9, 44, 47
4, 189120, Note_off_c, 9, 44, 47
4, 189120, Note_on_c, 9, 69, 95
4, 189600, Note_off_c, 9, 69, 95
4, 189600, Note_on_c, 9, 42, 63
4, 190080, Note_off_c, 9, 42, 63
4, 190080, Note_on_c, 9, 70, 95
4, 190560, Note_off_c, 9, 70, 95
4, 190560, Note_on_c, 9, 44, 47
4, 191040, Note_off_c, 9, 44, 47
4, 191040, Note_on_c, 9, 69, 95
4, 191520, Note_off_c, 9, 69, 95
4, 191520, Note_on_c, 9, 42, 79
4, 192000, Note_off_c, 9, 42, 79
4, 192000, Note_on_c, 9, 70, 95
4, 192480, Note_off_c, 9, 70, 95
4, 192480, Note_on_c, 9, 44, 47
4, 192960, Note_off_c, 9, 44, 47
4, 192960, Note_on_c, 9, 69, 95
4, 193440, Note_off_c, 9, 69, 95
4, 193440, Note_on_c, 9, 42, 63
4, 193920, Note_off_c, 9, 42, 63
4, 193920, Note_on_c, 9, 70, 95
4, 194400, Note_off_c, 9, 70, 95
4, 194400, Note_on_c, 9, 44, 47
4, 194880, Note_off_c, 9, 44, 47
4, 194880, Note_on_c, 9, 69, 95
4, 195360, Note_off_c, 9, 69, 95
4, 195360, Note_on_c, 9, 42, 79
4, 195840, Note_off_c, 9, 42, 79
4, 195840, Note_on_c, 9, 70, 95
4, 196320, Note_off_c, 9, 70, 95
4, 196320, Note_on_c, 9, 44, 47
4, 196800, Note_off_c, 9, 44, 47
4, 196800, Note_on_c, 9, 69, 95
4, 197280, Note_off_c, 9, 69, 95
4, 197280, Note_on_c, 9, 42, 63
4, 197760, Note_off_c, 9, 42, 63
4, 197760, Note_on_c, 9, 70, 95
4, 198240, Note_off_c, 9, 70, 95
4, 198240, Note_on_c, 9, 44, 47
4, 198720, Note_off_c, 9, 44, 47
4, 198720, Note_on_c, 9, 69, 95
4, 199200, Note_off_c, 9, 69, 95
4, 199200, Note_on_c, 9, 42, 79
4, 199680, Note_off_c, 9, 42, 79
4, 199680, Note_on_c, 9, 70, 95
4, 200160, Note_off_c, 9, 70, 95
4, 200160, Note_on_c, 9, 44, 47
4, 200640, Note_off_c, 9, 44, 47
4, 200640, Note_on_c, 9, 69, 95
4, 201120, Note_off_c, 9, 69, 95
4, 201120, Note_on_c, 9, 42, 63
4, 201600, Note_off_c, 9, 42, 63
4, 201600, Note_on_c, 9, 70, 95
4, 202080, Note_off_c, 9, 70, 95
4, 202080, Note_on_c, 9, 44, 47
4, 202560, Note_off_c, 9, 44, 47
4, 202560, Note_on_c, 9, 69, 95
4, 203040, Note_off_c, 9, 69, 95
4, 203040, Note_on_c, 9, 42, 79
4, 203520, Note_off_c, 9, 42, 79
4, 203520, Note_on_c, 9, 44, 95
4, 207360, Note_off_c, 9, 44, 95
4, 218880, Note_on_c, 9, 70, 95
4, 219360, Note_off_c, 9, 70, 95
4, 219360, Note_on_c, 9, 44, 47
4, 219840, Note_off_c, 9, 44, 47
4, 219840, Note_on_c, 9, 69, 95
4, 220320, Note_off_c, 9, 69, 95
4, 220320, Note_on_c, 9, 42, 63
4, 220800, Note_off_c, 9, 42, 63
4, 220800, Note_on_c, 9, 70, 95
4, 221280, Note_off_c, 9, 70, 95
4, 221280, Note_on_c, 9, 44, 47
4, 221760, Note_off_c, 9, 44, 47
4, 221760, Note_on_c, 9, 69, 95
4, 222240, Note_off_c, 9, 69, 95
4, 222240, Note_on_c, 9, 42, 79
4, 222720, Note_off_c, 9, 42, 79
4, 222720, Note_on_c, 9, 70, 95
4, 223200, Note_off_c, 9, 70, 95
4, 223200, Note_on_c, 9, 44, 47
4, 223680, Note_off_c, 9, 44, 47
4, 223680, Note_on_c, 9, 69, 95
4, 224160, Note_off_c, 9, 69, 95
4, 224160, Note_on_c, 9, 42, 63
4, 224640, Note_off_c, 9, 42, 63
4, 224640, Note_on_c, 9, 70, 95
4, 225120, Note_off_c, 9, 70, 95
4, 225120, Note_on_c, 9, 44, 47
4, 225600, Note_off_c, 9, 44, 47
4, 225600, Note_on_c, 9, 69, 95
4, 226080, Note_off_c, 9, 69, 95
4, 226080, Note_on_c, 9, 42, 79
4, 226560, Note_off_c, 9, 42, 79
4, 226560, Note_on_c, 9, 70, 95
4, 227040, Note_off_c, 9, 70, 95
4, 227040, Note_on_c, 9, 44, 47
4, 227520, Note_off_c, 9, 44, 47
4, 227520, Note_on_c, 9, 69, 95
4, 228000, Note_off_c, 9, 69, 95
4, 228000, Note_on_c, 9, 42, 63
4, 228480, Note_off_c, 9, 42, 63
4, 228480, Note_on_c, 9, 70, 95
4, 228960, Note_off_c, 9, 70, 95
4, 228960, Note_on_c, 9, 44, 47
4, 229440, Note_off_c, 9, 44, 47
4, 229440, Note_on_c, 9, 69, 95
4, 229920, Note_off_c, 9, 69, 95
4, 229920, Note_on_c, 9, 42, 79
4, 230400, Note_off_c, 9, 42, 79
4, 230400, Note_on_c, 9, 70, 95
4, 230880, Note_off_c, 9, 70, 95
4, 230880, Note_on_c, 9, 44, 47
4, 231360, Note_off_c, 9, 44, 47
4, 231360, Note_on_c, 9, 69, 95
4, 231840, Note_off_c, 9, 69, 95
4, 231840, Note_on_c, 9, 42, 63
4, 232320, Note_off_c, 9, 42, 63
4, 232320, Note_on_c, 9, 70, 95
4, 232800, Note_off_c, 9, 70, 95
4, 232800, Note_on_c, 9, 44, 47
4, 233280, Note_off_c, 9, 44, 47
4, 233280, Note_on_c, 9, 69, 95
4, 233760, Note_off_c, 9, 69, 95
4, 233760, Note_on_c, 9, 42, 79
4, 234240, Note_off_c, 9, 42, 79
4, 234240, Note_on_c, 9, 70, 95
4, 234720, Note_off_c, 9, 70, 95
4, 234720, Note_on_c, 9, 44, 47
4, 235200, Note_off_c, 9, 44, 47
4, 235200, Note_on_c, 9, 69, 95
4, 235680, Note_off_c, 9, 69, 95
4, 235680, Note_on_c, 9, 42, 63
4, 236160, Note_off_c, 9, 42, 63
4, 236160, Note_on_c, 9, 70, 95
4, 236640, Note_off_c, 9, 70, 95
4, 236640, Note_on_c, 9, 44, 47
4, 237120, Note_off_c, 9, 44, 47
4, 237120, Note_on_c, 9, 69, 95
4, 237600, Note_off_c, 9, 69, 95
4, 237600, Note_on_c, 9, 42, 79
4, 238080, Note_off_c, 9, 42, 79
4, 238080, Note_on_c, 9, 70, 95
4, 238560, Note_off_c, 9, 70, 95
4, 238560, Note_on_c, 9, 44, 47
4, 239040, Note_off_c, 9, 44, 47
4, 239040, Note_on_c, 9, 69, 95
4, 239520, Note_off_c, 9, 69, 95
4, 239520, Note_on_c, 9, 42, 63
4, 240000, Note_off_c, 9, 42, 63
4, 240000, Note_on_c, 9, 70, 95
4, 240480, Note_off_c, 9, 70, 95
4, 240480, Note_on_c, 9, 44, 47
4, 240960, Note_off_c, 9, 44, 47
4, 240960, Note_on_c, 9, 69, 95
4, 241440, Note_off_c, 9, 69, 95
4, 241440, Note_on_c, 9, 42, 79
4, 241920, Note_off_c, 9, 42, 79
4, 241920, Note_on_c, 9, 70, 95
4, 242400, Note_off_c, 9, 70, 95
4, 242400, Note_on_c, 9, 44, 47
4, 242880, Note_off_c, 9, 44, 47
4, 242880, Note_on_c, 9, 69, 95
4, 243360, Note_off_c, 9, 69, 95
4, 243360, Note_on_c, 9, 42, 63
4, 243840, Note_off_c, 9, 42, 63
4, 243840, Note_on_c, 9, 70, 95
4, 244320, Note_off_c, 9, 70, 95
4, 244320, Note_on_c, 9, 44, 47
4, 244800, Note_off_c, 9, 44, 47
4, 244800, Note_on_c, 9, 69, 95
4, 245280, Note_off_c, 9, 69, 95
4, 245280, Note_on_c, 9, 42, 79
4, 245760, Note_off_c, 9, 42, 79
4, 245760, Note_on_c, 9, 44, 95
4, 249600, Note_off_c, 9, 44, 95
4, 249600, Note_on_c, 9, 70, 95
4, 250080, Note_off_c, 9, 70, 95
4, 250080, Note_on_c, 9, 44, 47
4, 250560, Note_off_c, 9, 44, 47
4, 250560, Note_on_c, 9, 69, 95
4, 251040, Note_off_c, 9, 69, 95
4, 251040, Note_on_c, 9, 42, 63
4, 251520, Note_off_c, 9, 42, 63
4, 251520, Note_on_c, 9, 70, 95
4, 252000, Note_off_c, 9, 70, 95
4, 252000, Note_on_c, 9, 44, 47
4, 252480, Note_off_c, 9, 44, 47
4, 252480, Note_on_c, 9, 69, 95
4, 252960, Note_off_c, 9, 69, 95
4, 252960, Note_on_c, 9, 42, 79
4, 253440, Note_off_c, 9, 42, 79
4, 253440, Note_on_c, 9, 70, 95
4, 253920, Note_off_c, 9, 70, 95
4, 253920, Note_on_c, 9, 44, 47
4, 254400, Note_off_c, 9, 44, 47
4, 254400, Note_on_c, 9, 69, 95
4, 254880, Note_off_c, 9, 69, 95
4, 254880, Note_on_c, 9, 42, 63
4, 255360, Note_off_c, 9, 42, 63
4, 255360, Note_on_c, 9, 70, 95
4, 255840, Note_off_c, 9, 70, 95
4, 255840, Note_on_c, 9, 44, 47
4, 256320, Note_off_c, 9, 44, 47
4, 256320, Note_on_c, 9, 69, 95
4, 256800, Note_off_c, 9, 69, 95
4, 256800, Note_on_c, 9, 42, 79
4, 257280, Note_off_c, 9, 42, 79
4, 257280, Note_on_c, 9, 70, 95
4, 257760, Note_off_c, 9, 70, 95
4, 257760, Note_on_c, 9, 44, 47
4, 258240, Note_off_c, 9, 44, 47
4, 258240, Note_on_c, 9, 69, 95
4, 258720, Note_off_c, 9, 69, 95
4, 258720, Note_on_c, 9, 42, 63
4, 259200, Note_off_c, 9, 42, 63
4, 259200, Note_on_c, 9, 70, 95
4, 259680, Note_off_c, 9, 70, 95
4, 259680, Note_on_c, 9, 44, 47
4, 260160, Note_off_c, 9, 44, 47
4, 260160, Note_on_c, 9, 69, 95
4, 260640, Note_off_c, 9, 69, 95
4, 260640, Note_on_c, 9, 42, 79
4, 261120, Note_off_c, 9, 42, 79
4, 261120, Note_on_c, 9, 70, 95
4, 261600, Note_off_c, 9, 70, 95
4, 261600, Note_on_c, 9, 44, 47
4, 262080, Note_off_c, 9, 44, 47
4, 262080, Note_on_c, 9, 69, 95
4, 262560, Note_off_c, 9, 69, 95
4, 262560, Note_on_c, 9, 42, 63
4, 263040, Note_off_c, 9, 42, 63
4, 263040, Note_on_c, 9, 70, 95
4, 263520, Note_off_c, 9, 70, 95
4, 263520, Note_on_c, 9, 44, 47
4, 264000, Note_off_c, 9, 44, 47
4, 264000, Note_on_c, 9, 69, 95
4, 264480, Note_off_c, 9, 69, 95
4, 264480, Note_on_c, 9, 42, 79
4, 264960, Note_off_c, 9, 42, 79
4, 264960, Note_on_c, 9, 70, 95
4, 265440, Note_off_c, 9, 70, 95
4, 265440, Note_on_c, 9, 44, 47
4, 265920, Note_off_c, 9, 44, 47
4, 265920, Note_on_c, 9, 69, 95
4, 266400, Note_off_c, 9, 69, 95
4, 266400, Note_on_c, 9, 42, 63
4, 266880, Note_off_c, 9, 42, 63
4, 266880, Note_on_c, 9, 70, 95
4, 267360, Note_off_c, 9, 70, 95
4, 267360, Note_on_c, 9, 44, 47
4, 267840, Note_off_c, 9, 44, 47
4, 267840, Note_on_c, 9, 69, 95
4, 268320, Note_off_c, 9, 69, 95
4, 268320, Note_on_c, 9, 42, 79
4, 268800, Note_off_c, 9, 42, 79
4, 268800, Note_on_c, 9, 70, 95
4, 269280, Note_off_c, 9, 70, 95
4, 269280, Note_on_c, 9, 44, 47
4, 269760, Note_off_c, 9, 44, 47
4, 269760, Note_on_c, 9, 69, 95
4, 270240, Note_off_c, 9, 69, 95
4, 270240, Note_on_c, 9, 42, 63
4, 270720, Note_off_c, 9, 42, 63
4, 270720, Note_on_c, 9, 70, 95
4, 271200, Note_off_c, 9, 70, 95
4, 271200, Note_on_c, 9, 44, 47
4, 271680, Note_off_c, 9, 44, 47
4, 271680, Note_on_c, 9, 69, 95
4, 272160, Note_off_c, 9, 69, 95
4, 272160, Note_on_c, 9, 42, 79
4, 272640, Note_off_c, 9, 42, 79
4, 272640, Note_on_c, 9, 70, 95
4, 273120, Note_off_c, 9, 70, 95
4, 273120, Note_on_c, 9, 44, 47
4, 273600, Note_off_c, 9, 44, 47
4, 273600, Note_on_c, 9, 69, 95
4, 274080, Note_off_c, 9, 69, 95
4, 274080, Note_on_c, 9, 42, 63
4, 274560, Note_off_c, 9, 42, 63
4, 274560, Note_on_c, 9, 70, 95
4, 275040, Note_off_c, 9, 70, 95
4, 275040, Note_on_c, 9, 44, 47
4, 275520, Note_off_c, 9, 44, 47
4, 275520, Note_on_c, 9, 69, 95
4, 276000, Note_off_c, 9, 69, 95
4, 276000, Note_on_c, 9, 42, 79
4, 276480, Note_off_c, 9, 42, 79
4, 276480, Note_on_c, 9, 70, 95
4, 276960, Note_off_c, 9, 70, 95
4, 276960, Note_on_c, 9, 44, 47
4, 277440, Note_off_c, 9, 44, 47
4, 277440, Note_on_c, 9, 69, 95
4, 277920, Note_off_c, 9, 69, 95
4, 277920, Note_on_c, 9, 42, 63
4, 278400, Note_off_c, 9, 42, 63
4, 278400, Note_on_c, 9, 70, 95
4, 278880, Note_off_c, 9, 70, 95
4, 278880, Note_on_c, 9, 44, 47
4, 279360, Note_off_c, 9, 44, 47
4, 279360, Note_on_c, 9, 69, 95
4, 279840, Note_off_c, 9, 69, 95
4, 279840, Note_on_c, 9, 42, 79
4, 280320, Note_off_c, 9, 42, 79
4, 280320, Note_on_c, 9, 70, 95
4, 280800, Note_off_c, 9, 70, 95
4, 280800, Note_on_c, 9, 44, 47
4, 281280, Note_off_c, 9, 44, 47
4, 281280, Note_on_c, 9, 69, 95
4, 281760, Note_off_c, 9, 69, 95
4, 281760, Note_on_c, 9, 42, 63
4, 282240, Note_off_c, 9, 42, 63
4, 282240, Note_on_c, 9, 70, 95
4, 282720, Note_off_c, 9, 70, 95
4, 282720, Note_on_c, 9, 44, 47
4, 283200, Note_off_c, 9, 44, 47
4, 283200, Note_on_c, 9, 69, 95
4, 283680, Note_off_c, 9, 69, 95
4, 283680, Note_on_c, 9, 42, 79
4, 284160, Note_off_c, 9, 42, 79
4, 284160, Note_on_c, 9, 70, 95
4, 284640, Note_off_c, 9, 70, 95
4, 284640, Note_on_c, 9, 44, 47
4, 285120, Note_off_c, 9, 44, 47
4, 285120, Note_on_c, 9, 69, 95
4, 285600, Note_off_c, 9, 69, 95
4, 285600, Note_on_c, 9, 42, 63
4, 286080, Note_off_c, 9, 42, 63
4, 286080, Note_on_c, 9, 70, 95
4, 286560, Note_off_c, 9, 70, 95
4, 286560, Note_on_c, 9, 44, 47
4, 287040, Note_off_c, 9, 44, 47
4, 287040, Note_on_c, 9, 69, 95
4, 287520, Note_off_c, 9, 69, 95
4, 287520, Note_on_c, 9, 42, 79
4, 288000, Note_off_c, 9, 42, 79
4, 288000, Note_on_c, 9, 70, 95
4, 288480, Note_off_c, 9, 70, 95
4, 288480, Note_on_c, 9, 44, 47
4, 288960, Note_off_c, 9, 44, 47
4, 288960, Note_on_c, 9, 69, 95
4, 289440, Note_off_c, 9, 69, 95
4, 289440, Note_on_c, 9, 42, 63
4, 289920, Note_off_c, 9, 42, 63
4, 289920, Note_on_c, 9, 70, 95
4, 290400, Note_off_c, 9, 70, 95
4, 290400, Note_on_c, 9, 44, 47
4, 290880, Note_off_c, 9, 44, 47
4, 290880, Note_on_c, 9, 69, 95
4, 291360, Note_off_c, 9, 69, 95
4, 291360, Note_on_c, 9, 42, 79
4, 291840, Note_off_c, 9, 42, 79
4, 291840, Note_on_c, 9, 70, 95
4, 292320, Note_off_c, 9, 70, 95
4, 292320, Note_on_c, 9, 44, 47
4, 292800, Note_off_c, 9, 44, 47
4, 292800, Note_on_c, 9, 69, 95
4, 293280, Note_off_c, 9, 69, 95
4, 293280, Note_on_c, 9, 42, 63
4, 293760, Note_off_c, 9, 42, 63
4, 293760, Note_on_c, 9, 70, 95
4, 294240, Note_off_c, 9, 70, 95
4, 294240, Note_on_c, 9, 44, 47
4, 294720, Note_off_c, 9, 44, 47
4, 294720, Note_on_c, 9, 69, 95
4, 295200, Note_off_c, 9, 69, 95
4, 295200, Note_on_c, 9, 42, 79
4, 295680, Note_off_c, 9, 42, 79
4, 295680, Note_on_c, 9, 70, 95
4, 296160, Note_off_c, 9, 70, 95
4, 296160, Note_on_c, 9, 44, 47
4, 296640, Note_off_c, 9, 44, 47
4, 296640, Note_on_c, 9, 69, 95
4, 297120, Note_off_c, 9, 69, 95
4, 297120, Note_on_c, 9, 42, 63
4, 297600, Note_off_c, 9, 42, 63
4, 297600, Note_on_c, 9, 70, 95
4, 298080, Note_off_c, 9, 70, 95
4, 298080, Note_on_c, 9, 44, 47
4, 298560, Note_off_c, 9, 44, 47
4, 298560, Note_on_c, 9, 69, 95
4, 299040, Note_off_c, 9, 69, 95
4, 299040, Note_on_c, 9, 42, 79
4, 299520, Note_off_c, 9, 42, 79
4, 299520, Note_on_c, 9, 70, 95
4, 300000, Note_off_c, 9, 70, 95
4, 300000, Note_on_c, 9, 44, 47
4, 300480, Note_off_c, 9, 44, 47
4, 300480, Note_on_c, 9, 69, 95
4, 300960, Note_off_c, 9, 69, 95
4, 300960, Note_on_c, 9, 42, 63
4, 301440, Note_off_c, 9, 42, 63
4, 301440, Note_on_c, 9, 70, 95
4, 301920, Note_off_c, 9, 70, 95
4, 301920, Note_on_c, 9, 44, 47
4, 302400, Note_off_c, 9, 44, 47
4, 302400, Note_on_c, 9, 69, 95
4, 302880, Note_off_c, 9, 69, 95
4, 302880, Note_on_c, 9, 42, 79
4, 303360, Note_off_c, 9, 42, 79
4, 303360, Note_on_c, 9, 44, 95
4, 307200, Note_off_c, 9, 44, 95
4, 311040, Note_on_c, 9, 70, 95
4, 311520, Note_off_c, 9, 70, 95
4, 311520, Note_on_c, 9, 44, 47
4, 312000, Note_off_c, 9, 44, 47
4, 312000, Note_on_c, 9, 69, 95
4, 312480, Note_off_c, 9, 69, 95
4, 312480, Note_on_c, 9, 42, 63
4, 312960, Note_off_c, 9, 42, 63
4, 312960, Note_on_c, 9, 70, 95
4, 313440, Note_off_c, 9, 70, 95
4, 313440, Note_on_c, 9, 44, 47
4, 313920, Note_off_c, 9, 44, 47
4, 313920, Note_on_c, 9, 69, 95
4, 314400, Note_off_c, 9, 69, 95
4, 314400, Note_on_c, 9, 42, 79
4, 314880, Note_off_c, 9, 42, 79
4, 314880, Note_on_c, 9, 70, 95
4, 315360, Note_off_c, 9, 70, 95
4, 315360, Note_on_c, 9, 44, 47
4, 315840, Note_off_c, 9, 44, 47
4, 315840, Note_on_c, 9, 69, 95
4, 316320, Note_off_c, 9, 69, 95
4, 316320, Note_on_c, 9, 42, 63
4, 316800, Note_off_c, 9, 42, 63
4, 316800, Note_on_c, 9, 70, 95
4, 317280, Note_off_c, 9, 70, 95
4, 317280, Note_on_c, 9, 44, 47
4, 317760, Note_off_c, 9, 44, 47
4, 317760, Note_on_c, 9, 69, 95
4, 318240, Note_off_c, 9, 69, 95
4, 318240, Note_on_c, 9, 42, 79
4, 318720, Note_off_c, 9, 42, 79
4, 318720, Note_on_c, 9, 70, 95
4, 319200, Note_off_c, 9, 70, 95
4, 319200, Note_on_c, 9, 44, 47
4, 319680, Note_off_c, 9, 44, 47
4, 319680, Note_on_c, 9, 69, 95
4, 320160, Note_off_c, 9, 69, 95
4, 320160, Note_on_c, 9, 42, 63
4, 320640, Note_off_c, 9, 42, 63
4, 320640, Note_on_c, 9, 70, 95
4, 321120, Note_off_c, 9, 70, 95
4, 321120, Note_on_c, 9, 44, 47
4, 321600, Note_off_c, 9, 44, 47
4, 321600, Note_on_c, 9, 69, 95
4, 322080, Note_off_c, 9, 69, 95
4, 322080, Note_on_c, 9, 42, 79
4, 322560, Note_off_c, 9, 42, 79
4, 322560, Note_on_c, 9, 70, 95
4, 323040, Note_off_c, 9, 70, 95
4, 323040, Note_on_c, 9, 44, 47
4, 323520, Note_off_c, 9, 44, 47
4, 323520, Note_on_c, 9, 69, 95
4, 324000, Note_off_c, 9, 69, 95
4, 324000, Note_on_c, 9, 42, 63
4, 324480, Note_off_c, 9, 42, 63
4, 324480, Note_on_c, 9, 70, 95
4, 324960, Note_off_c, 9, 70, 95
4, 324960, Note_on_c, 9, 44, 47
4, 325440, Note_off_c, 9, 44, 47
4, 325440, Note_on_c, 9, 69, 95
4, 325920, Note_off_c, 9, 69, 95
4, 325920, Note_on_c, 9, 42, 79
4, 326400, Note_off_c, 9, 42, 79
4, 326400, Note_on_c, 9, 70, 95
4, 326880, Note_off_c, 9, 70, 95
4, 326880, Note_on_c, 9, 44, 47
4, 327360, Note_off_c, 9, 44, 47
4, 327360, Note_on_c, 9, 69, 95
4, 327840, Note_off_c, 9, 69, 95
4, 327840, Note_on_c, 9, 42, 63
4, 328320, Note_off_c, 9, 42, 63
4, 328320, Note_on_c, 9, 70, 95
4, 328800, Note_off_c, 9, 70, 95
4, 328800, Note_on_c, 9, 44, 47
4, 329280, Note_off_c, 9, 44, 47
4, 329280, Note_on_c, 9, 69, 95
4, 329760, Note_off_c, 9, 69, 95
4, 329760, Note_on_c, 9, 42, 79
4, 330240, Note_off_c, 9, 42, 79
4, 330240, Note_on_c, 9, 70, 95
4, 330720, Note_off_c, 9, 70, 95
4, 330720, Note_on_c, 9, 44, 47
4, 331200, Note_off_c, 9, 44, 47
4, 331200, Note_on_c, 9, 69, 95
4, 331680, Note_off_c, 9, 69, 95
4, 331680, Note_on_c, 9, 42, 63
4, 332160, Note_off_c, 9, 42, 63
4, 332160, Note_on_c, 9, 70, 95
4, 332640, Note_off_c, 9, 70, 95
4, 332640, Note_on_c, 9, 44, 47
4, 333120, Note_off_c, 9, 44, 47
4, 333120, Note_on_c, 9, 69, 95
4, 333600, Note_off_c, 9, 69, 95
4, 333600, Note_on_c, 9, 42, 79
4, 334080, Note_off_c, 9, 42, 79
4, 334080, Note_on_c, 9, 70, 95
4, 334560, Note_off_c, 9, 70, 95
4, 334560, Note_on_c, 9, 44, 47
4, 335040, Note_off_c, 9, 44, 47
4, 335040, Note_on_c, 9, 69, 95
4, 335520, Note_off_c, 9, 69, 95
4, 335520, Note_on_c, 9, 42, 63
4, 336000, Note_off_c, 9, 42, 63
4, 336000, Note_on_c, 9, 70, 95
4, 336480, Note_off_c, 9, 70, 95
4, 336480, Note_on_c, 9, 44, 47
4, 336960, Note_off_c, 9, 44, 47
4, 336960, Note_on_c, 9, 69, 95
4, 337440, Note_off_c, 9, 69, 95
4, 337440, Note_on_c, 9, 42, 79
4, 337920, Note_off_c, 9, 42, 79
4, 337920, Note_on_c, 9, 70, 95
4, 338400, Note_off_c, 9, 70, 95
4, 338400, Note_on_c, 9, 44, 47
4, 338880, Note_off_c, 9, 44, 47
4, 338880, Note_on_c, 9, 69, 95
4, 339360, Note_off_c, 9, 69, 95
4, 339360, Note_on_c, 9, 42, 63
4, 339840, Note_off_c, 9, 42, 63
4, 339840, Note_on_c, 9, 70, 95
4, 340320, Note_off_c, 9, 70, 95
4, 340320, Note_on_c, 9, 44, 47
4, 340800, Note_off_c, 9, 44, 47
4, 340800, Note_on_c, 9, 69, 95
4, 341280, Note_off_c, 9, 69, 95
4, 341280, Note_on_c, 9, 42, 79
4, 341760, Note_off_c, 9, 42, 79
4, 341760, Note_on_c, 9, 70, 95
4, 342240, Note_off_c, 9, 70, 95
4, 342240, Note_on_c, 9, 44, 47
4, 342720, Note_off_c, 9, 44, 47
4, 342720, Note_on_c, 9, 69, 95
4, 343200, Note_off_c, 9, 69, 95
4, 343200, Note_on_c, 9, 42, 63
4, 343680, Note_off_c, 9, 42, 63
4, 343680, Note_on_c, 9, 70, 95
4, 344160, Note_off_c, 9, 70, 95
4, 344160, Note_on_c, 9, 44, 47
4, 344640, Note_off_c, 9, 44, 47
4, 344640, Note_on_c, 9, 69, 95
4, 345120, Note_off_c, 9, 69, 95
4, 345120, Note_on_c, 9, 42, 79
4, 345600, Note_off_c, 9, 42, 79
4, 345600, Note_on_c, 9, 70, 95
4, 346080, Note_off_c, 9, 70, 95
4, 346080, Note_on_c, 9, 44, 47
4, 346560, Note_off_c, 9, 44, 47
4, 346560, Note_on_c, 9, 69, 95
4, 347040, Note_off_c, 9, 69, 95
4, 347040, Note_on_c, 9, 42, 63
4, 347520, Note_off_c, 9, 42, 63
4, 347520, Note_on_c, 9, 70, 95
4, 348000, Note_off_c, 9, 70, 95
4, 348000, Note_on_c, 9, 44, 47
4, 348480, Note_off_c, 9, 44, 47
4, 348480, Note_on_c, 9, 69, 95
4, 348960, Note_off_c, 9, 69, 95
4, 348960, Note_on_c, 9, 42, 79
4, 349440, Note_off_c, 9, 42, 79
4, 349440, Note_on_c, 9, 70, 95
4, 349920, Note_off_c, 9, 70, 95
4, 349920, Note_on_c, 9, 44, 47
4, 350400, Note_off_c, 9, 44, 47
4, 350400, Note_on_c, 9, 69, 95
4, 350880, Note_off_c, 9, 69, 95
4, 350880, Note_on_c, 9, 42, 63
4, 351360, Note_off_c, 9, 42, 63
4, 351360, Note_on_c, 9, 70, 95
4, 351840, Note_off_c, 9, 70, 95
4, 351840, Note_on_c, 9, 44, 47
4, 352320, Note_off_c, 9, 44, 47
4, 352320, Note_on_c, 9, 69, 95
4, 352800, Note_off_c, 9, 69, 95
4, 352800, Note_on_c, 9, 42, 79
4, 353280, Note_off_c, 9, 42, 79
4, 353280, Note_on_c, 9, 70, 95
4, 353760, Note_off_c, 9, 70, 95
4, 353760, Note_on_c, 9, 44, 47
4, 354240, Note_off_c, 9, 44, 47
4, 354240, Note_on_c, 9, 69, 95
4, 354720, Note_off_c, 9, 69, 95
4, 354720, Note_on_c, 9, 42, 63
4, 355200, Note_off_c, 9, 42, 63
4, 355200, Note_on_c, 9, 70, 95
4, 355680, Note_off_c, 9, 70, 95
4, 355680, Note_on_c, 9, 44, 47
4, 356160, Note_off_c, 9, 44, 47
4, 356160, Note_on_c, 9, 69, 95
4, 356640, Note_off_c, 9, 69, 95
4, 356640, Note_on_c, 9, 42, 79
4, 357120, Note_off_c, 9, 42, 79
4, 357120, Note_on_c, 9, 70, 95
4, 357600, Note_off_c, 9, 70, 95
4, 357600, Note_on_c, 9, 44, 47
4, 358080, Note_off_c, 9, 44, 47
4, 358080, Note_on_c, 9, 69, 95
4, 358560, Note_off_c, 9, 69, 95
4, 358560, Note_on_c, 9, 42, 63
4, 359040, Note_off_c, 9, 42, 63
4, 359040, Note_on_c, 9, 70, 95
4, 359520, Note_off_c, 9, 70, 95
4, 359520, Note_on_c, 9, 44, 47
4, 360000, Note_off_c, 9, 44, 47
4, 360000, Note_on_c, 9, 69, 95
4, 360480, Note_off_c, 9, 69, 95
4, 360480, Note_on_c, 9, 42, 79
4, 360960, Note_off_c, 9, 42, 79
4, 360960, Note_on_c, 9, 70, 95
4, 361440, Note_off_c, 9, 70, 95
4, 361440, Note_on_c, 9, 44, 47
4, 361920, Note_off_c, 9, 44, 47
4, 361920, Note_on_c, 9, 69, 95
4, 362400, Note_off_c, 9, 69, 95
4, 362400, Note_on_c, 9, 42, 63
4, 362880, Note_off_c, 9, 42, 63
4, 362880, Note_on_c, 9, 70, 95
4, 363360, Note_off_c, 9, 70, 95
4, 363360, Note_on_c, 9, 44, 47
4, 363840, Note_off_c, 9, 44, 47
4, 363840, Note_on_c, 9, 69, 95
4, 364320, Note_off_c, 9, 69, 95
4, 364320, Note_on_c, 9, 44, 79
4, 364800, Note_off_c, 9, 44, 79
4, 364800, Note_on_c, 9, 70, 95
4, 365280, Note_off_c, 9, 70, 95
4, 365280, Note_on_c, 9, 44, 47
4, 365760, Note_off_c, 9, 44, 47
4, 365760, Note_on_c, 9, 69, 95
4, 366240, Note_off_c, 9, 69, 95
4, 366240, Note_on_c, 9, 42, 63
4, 366720, Note_off_c, 9, 42, 63
4, 366720, Note_on_c, 9, 70, 95
4, 367200, Note_off_c, 9, 70, 95
4, 367200, Note_on_c, 9, 44, 47
4, 367680, Note_off_c, 9, 44, 47
4, 367680, Note_on_c, 9, 69, 95
4, 368160, Note_off_c, 9, 69, 95
4, 368160, Note_on_c, 9, 42, 79
4, 368640, Note_off_c, 9, 42, 79
4, 368640, Note_on_c, 9, 70, 95
4, 369120, Note_off_c, 9, 70, 95
4, 369120, Note_on_c, 9, 44, 47
4, 369600, Note_off_c, 9, 44, 47
4, 369600, Note_on_c, 9, 69, 95
4, 370080, Note_off_c, 9, 69, 95
4, 370080, Note_on_c, 9, 42, 63
4, 370560, Note_off_c, 9, 42, 63
4, 370560, Note_on_c, 9, 70, 95
4, 371040, Note_off_c, 9, 70, 95
4, 371040, Note_on_c, 9, 44, 47
4, 371520, Note_off_c, 9, 44, 47
4, 371520, Note_on_c, 9, 69, 95
4, 372000, Note_off_c, 9, 69, 95
4, 372000, Note_on_c, 9, 44, 79
4, 372480, Note_off_c, 9, 44, 79
4, 372480, Note_on_c, 9, 70, 95
4, 372960, Note_off_c, 9, 70, 95
4, 372960, Note_on_c, 9, 44, 47
4, 373440, Note_off_c, 9, 44, 47
4, 373440, Note_on_c, 9, 69, 95
4, 373920, Note_off_c, 9, 69, 95
4, 373920, Note_on_c, 9, 42, 63
4, 374400, Note_off_c, 9, 42, 63
4, 374400, Note_on_c, 9, 70, 95
4, 374880, Note_off_c, 9, 70, 95
4, 374880, Note_on_c, 9, 44, 47
4, 375360, Note_off_c, 9, 44, 47
4, 375360, Note_on_c, 9, 69, 95
4, 375840, Note_off_c, 9, 69, 95
4, 375840, Note_on_c, 9, 42, 79
4, 376320, Note_off_c, 9, 42, 79
4, 376320, Note_on_c, 9, 70, 95
4, 376800, Note_off_c, 9, 70, 95
4, 376800, Note_on_c, 9, 44, 47
4, 377280, Note_off_c, 9, 44, 47
4, 377280, Note_on_c, 9, 69, 95
4, 377760, Note_off_c, 9, 69, 95
4, 377760, Note_on_c, 9, 42, 63
4, 378240, Note_off_c, 9, 42, 63
4, 378240, Note_on_c, 9, 70, 95
4, 378720, Note_off_c, 9, 70, 95
4, 378720, Note_on_c, 9, 44, 47
4, 379200, Note_off_c, 9, 44, 47
4, 379200, Note_on_c, 9, 69, 95
4, 379680, Note_off_c, 9, 69, 95
4, 379680, Note_on_c, 9, 44, 79
4, 380160, Note_off_c, 9, 44, 79
4, 380160, Note_on_c, 9, 70, 95
4, 384000, Note_off_c, 9, 70, 95
4, 384000, End_track
0, 0, End_of_file
