0, 0, Header, 1, 7, 120
1, 0, Start_track
1, 0, Title_t, "untitled"
1, 0, MIDI_port, 0
1, 0, System_exclusive, 5, 126, 127, 9, 1, 247
1, 0, MIDI_port, 0
1, 0, Time_signature, 4, 2, 24, 8
1, 0, Key_signature, 0, "major"
1, 0, Tempo, 437956
1, 480, Marker_t, "Old Man Down The Road - John Fogerty"
1, 480, End_track
2, 0, Start_track
2, 0, MIDI_port, 0
2, 120, Control_c, 0, 0, 0
2, 121, Control_c, 0, 32, 0
2, 122, Program_c, 0, 0
2, 5282, Note_on_c, 0, 52, 35
2, 5282, Note_on_c, 0, 56, 57
2, 5296, Note_on_c, 0, 52, 0
2, 5305, Note_on_c, 0, 56, 0
2, 5340, Note_on_c, 0, 56, 45
2, 5341, Note_on_c, 0, 52, 39
2, 5386, Note_on_c, 0, 52, 0
2, 5389, Note_on_c, 0, 56, 0
2, 5400, Note_on_c, 0, 62, 70
2, 5401, Note_on_c, 0, 68, 70
2, 5401, Note_on_c, 0, 59, 70
2, 5520, Note_on_c, 0, 56, 53
2, 5521, Note_on_c, 0, 52, 48
2, 5590, Note_on_c, 0, 59, 0
2, 5597, Note_on_c, 0, 62, 0
2, 5599, Note_on_c, 0, 68, 0
2, 5640, Note_on_c, 0, 68, 70
2, 5641, Note_on_c, 0, 59, 70
2, 5641, Note_on_c, 0, 62, 70
2, 5733, Note_on_c, 0, 52, 0
2, 5736, Note_on_c, 0, 56, 0
2, 5760, Note_on_c, 0, 56, 36
2, 5760, Note_on_c, 0, 52, 38
2, 5775, Note_on_c, 0, 56, 0
2, 5780, Note_on_c, 0, 52, 0
2, 5820, Note_on_c, 0, 56, 49
2, 5820, Note_on_c, 0, 52, 43
2, 5839, Note_on_c, 0, 59, 0
2, 5845, Note_on_c, 0, 62, 0
2, 5851, Note_on_c, 0, 68, 0
2, 5880, Note_on_c, 0, 68, 70
2, 5880, Note_on_c, 0, 62, 70
2, 5880, Note_on_c, 0, 59, 70
2, 5930, Note_on_c, 0, 52, 0
2, 5946, Note_on_c, 0, 56, 0
2, 6067, Note_on_c, 0, 59, 0
2, 6072, Note_on_c, 0, 62, 0
2, 6082, Note_on_c, 0, 68, 0
2, 6120, Note_on_c, 0, 68, 70
2, 6121, Note_on_c, 0, 59, 70
2, 6121, Note_on_c, 0, 62, 70
2, 6241, Note_on_c, 0, 56, 49
2, 6263, Note_on_c, 0, 56, 0
2, 6300, Note_on_c, 0, 52, 47
2, 6301, Note_on_c, 0, 56, 54
2, 6309, Note_on_c, 0, 59, 0
2, 6315, Note_on_c, 0, 62, 0
2, 6321, Note_on_c, 0, 68, 0
2, 6360, Note_on_c, 0, 68, 70
2, 6361, Note_on_c, 0, 62, 70
2, 6361, Note_on_c, 0, 59, 70
2, 6364, Note_on_c, 0, 52, 0
2, 6371, Note_on_c, 0, 56, 0
2, 6480, Note_on_c, 0, 52, 49
2, 6481, Note_on_c, 0, 56, 59
2, 6546, Note_on_c, 0, 59, 0
2, 6551, Note_on_c, 0, 62, 0
2, 6553, Note_on_c, 0, 68, 0
2, 6600, Note_on_c, 0, 68, 70
2, 6600, Note_on_c, 0, 59, 70
2, 6600, Note_on_c, 0, 62, 70
2, 6620, Note_on_c, 0, 52, 0
2, 6624, Note_on_c, 0, 56, 0
2, 6720, Note_on_c, 0, 56, 57
2, 6721, Note_on_c, 0, 52, 42
2, 6731, Note_on_c, 0, 52, 0
2, 6736, Note_on_c, 0, 56, 0
2, 6780, Note_on_c, 0, 52, 50
2, 6781, Note_on_c, 0, 56, 59
2, 6788, Note_on_c, 0, 59, 0
2, 6789, Note_on_c, 0, 68, 0
2, 6794, Note_on_c, 0, 62, 0
2, 6840, Note_on_c, 0, 62, 70
2, 6840, Note_on_c, 0, 68, 70
2, 6841, Note_on_c, 0, 52, 0
2, 6841, Note_on_c, 0, 59, 70
2, 6849, Note_on_c, 0, 56, 0
2, 7011, Note_on_c, 0, 59, 0
2, 7012, Note_on_c, 0, 62, 0
2, 7012, Note_on_c, 0, 68, 0
2, 7020, Note_on_c, 0, 68, 80
2, 7021, Note_on_c, 0, 74, 80
2, 7049, Note_on_c, 0, 68, 0
2, 7050, Note_on_c, 0, 74, 0
2, 7080, Note_on_c, 0, 74, 80
2, 7081, Note_on_c, 0, 68, 80
2, 7110, Note_on_c, 0, 68, 0
2, 7112, Note_on_c, 0, 74, 0
2, 7140, Note_on_c, 0, 68, 80
2, 7141, Note_on_c, 0, 74, 80
2, 7170, Note_on_c, 0, 68, 0
2, 7177, Note_on_c, 0, 74, 0
2, 7201, Note_on_c, 0, 56, 64
2, 7201, Note_on_c, 0, 52, 42
2, 7209, Note_on_c, 0, 52, 0
2, 7216, Note_on_c, 0, 56, 0
2, 7260, Note_on_c, 0, 56, 51
2, 7261, Note_on_c, 0, 52, 51
2, 7293, Note_on_c, 0, 56, 0
2, 7296, Note_on_c, 0, 52, 0
2, 7320, Note_on_c, 0, 68, 70
2, 7321, Note_on_c, 0, 59, 70
2, 7321, Note_on_c, 0, 62, 70
2, 7440, Note_on_c, 0, 56, 50
2, 7441, Note_on_c, 0, 52, 49
2, 7511, Note_on_c, 0, 62, 0
2, 7512, Note_on_c, 0, 59, 0
2, 7524, Note_on_c, 0, 68, 0
2, 7560, Note_on_c, 0, 59, 70
2, 7560, Note_on_c, 0, 62, 70
2, 7560, Note_on_c, 0, 68, 70
2, 7759, Note_on_c, 0, 59, 0
2, 7764, Note_on_c, 0, 62, 0
2, 7775, Note_on_c, 0, 68, 0
2, 7800, Note_on_c, 0, 68, 70
2, 7801, Note_on_c, 0, 62, 70
2, 7801, Note_on_c, 0, 59, 70
2, 7992, Note_on_c, 0, 59, 0
2, 7996, Note_on_c, 0, 62, 0
2, 8006, Note_on_c, 0, 68, 0
2, 8040, Note_on_c, 0, 59, 70
2, 8040, Note_on_c, 0, 62, 70
2, 8040, Note_on_c, 0, 68, 70
2, 8112, Note_on_c, 0, 52, 0
2, 8120, Note_on_c, 0, 56, 0
2, 8161, Note_on_c, 0, 56, 54
2, 8161, Note_on_c, 0, 52, 50
2, 8178, Note_on_c, 0, 52, 0
2, 8184, Note_on_c, 0, 56, 0
2, 8220, Note_on_c, 0, 56, 59
2, 8221, Note_on_c, 0, 52, 53
2, 8234, Note_on_c, 0, 59, 0
2, 8240, Note_on_c, 0, 62, 0
2, 8246, Note_on_c, 0, 68, 0
2, 8249, Note_on_c, 0, 52, 0
2, 8250, Note_on_c, 0, 56, 0
2, 8280, Note_on_c, 0, 68, 70
2, 8281, Note_on_c, 0, 59, 70
2, 8281, Note_on_c, 0, 62, 70
2, 8400, Note_on_c, 0, 56, 64
2, 8401, Note_on_c, 0, 52, 55
2, 8485, Note_on_c, 0, 62, 0
2, 8489, Note_on_c, 0, 59, 0
2, 8495, Note_on_c, 0, 68, 0
2, 8520, Note_on_c, 0, 68, 70
2, 8521, Note_on_c, 0, 62, 70
2, 8521, Note_on_c, 0, 59, 70
2, 8700, Note_on_c, 0, 59, 0
2, 8703, Note_on_c, 0, 62, 0
2, 8708, Note_on_c, 0, 68, 0
2, 8760, Note_on_c, 0, 62, 70
2, 8761, Note_on_c, 0, 68, 70
2, 8761, Note_on_c, 0, 59, 70
2, 8950, Note_on_c, 0, 59, 0
2, 8955, Note_on_c, 0, 62, 0
2, 8956, Note_on_c, 0, 68, 0
2, 9000, Note_on_c, 0, 68, 70
2, 9001, Note_on_c, 0, 62, 70
2, 9001, Note_on_c, 0, 59, 70
2, 9027, Note_on_c, 0, 56, 0
2, 9085, Note_on_c, 0, 52, 0
2, 9121, Note_on_c, 0, 59, 0
2, 9121, Note_on_c, 0, 59, 55
2, 9121, Note_on_c, 0, 55, 42
2, 9133, Note_on_c, 0, 55, 0
2, 9134, Note_on_c, 0, 68, 0
2, 9155, Note_on_c, 0, 62, 0
2, 9156, Note_on_c, 0, 59, 0
2, 9180, Note_on_c, 0, 55, 48
2, 9181, Note_on_c, 0, 59, 54
2, 9199, Note_on_c, 0, 55, 0
2, 9206, Note_on_c, 0, 59, 0
2, 9240, Note_on_c, 0, 62, 70
2, 9241, Note_on_c, 0, 67, 70
2, 9241, Note_on_c, 0, 59, 70
2, 9360, Note_on_c, 0, 59, 0
2, 9361, Note_on_c, 0, 59, 53
2, 9361, Note_on_c, 0, 55, 44
2, 9435, Note_on_c, 0, 67, 0
2, 9436, Note_on_c, 0, 62, 0
2, 9480, Note_on_c, 0, 59, 0
2, 9481, Note_on_c, 0, 67, 70
2, 9481, Note_on_c, 0, 62, 70
2, 9481, Note_on_c, 0, 59, 70
2, 9575, Note_on_c, 0, 55, 0
2, 9600, Note_on_c, 0, 67, 0
2, 9601, Note_on_c, 0, 52, 46
2, 9601, Note_on_c, 0, 56, 43
2, 9606, Note_on_c, 0, 62, 0
2, 9608, Note_on_c, 0, 59, 0
2, 9618, Note_on_c, 0, 52, 0
2, 9619, Note_on_c, 0, 56, 0
2, 9660, Note_on_c, 0, 56, 54
2, 9661, Note_on_c, 0, 52, 57
2, 9693, Note_on_c, 0, 52, 0
2, 9694, Note_on_c, 0, 56, 0
2, 9720, Note_on_c, 0, 62, 70
2, 9721, Note_on_c, 0, 68, 70
2, 9721, Note_on_c, 0, 59, 70
2, 9840, Note_on_c, 0, 56, 51
2, 9841, Note_on_c, 0, 52, 54
2, 9907, Note_on_c, 0, 59, 0
2, 9910, Note_on_c, 0, 62, 0
2, 9919, Note_on_c, 0, 68, 0
2, 9960, Note_on_c, 0, 62, 70
2, 9961, Note_on_c, 0, 68, 70
2, 9961, Note_on_c, 0, 59, 70
2, 10046, Note_on_c, 0, 52, 0
2, 10048, Note_on_c, 0, 56, 0
2, 10081, Note_on_c, 0, 56, 48
2, 10081, Note_on_c, 0, 52, 38
2, 10090, Note_on_c, 0, 52, 0
2, 10098, Note_on_c, 0, 56, 0
2, 10139, Note_on_c, 0, 62, 0
2, 10140, Note_on_c, 0, 56, 62
2, 10140, Note_on_c, 0, 52, 51
2, 10143, Note_on_c, 0, 59, 0
2, 10158, Note_on_c, 0, 68, 0
2, 10175, Note_on_c, 0, 52, 0
2, 10191, Note_on_c, 0, 56, 0
2, 10200, Note_on_c, 0, 68, 70
2, 10201, Note_on_c, 0, 62, 70
2, 10201, Note_on_c, 0, 59, 70
2, 10320, Note_on_c, 0, 56, 57
2, 10321, Note_on_c, 0, 52, 64
2, 10377, Note_on_c, 0, 62, 0
2, 10382, Note_on_c, 0, 59, 0
2, 10396, Note_on_c, 0, 68, 0
2, 10440, Note_on_c, 0, 68, 70
2, 10441, Note_on_c, 0, 59, 70
2, 10441, Note_on_c, 0, 62, 70
2, 10510, Note_on_c, 0, 52, 0
2, 10516, Note_on_c, 0, 56, 0
2, 10560, Note_on_c, 0, 56, 51
2, 10560, Note_on_c, 0, 52, 49
2, 10576, Note_on_c, 0, 52, 0
2, 10578, Note_on_c, 0, 56, 0
2, 10614, Note_on_c, 0, 62, 0
2, 10615, Note_on_c, 0, 59, 0
2, 10620, Note_on_c, 0, 56, 62
2, 10620, Note_on_c, 0, 52, 52
2, 10626, Note_on_c, 0, 68, 0
2, 10677, Note_on_c, 0, 52, 0
2, 10680, Note_on_c, 0, 62, 70
2, 10680, Note_on_c, 0, 68, 70
2, 10680, Note_on_c, 0, 59, 70
2, 10697, Note_on_c, 0, 56, 0
2, 10800, Note_on_c, 0, 56, 59
2, 10801, Note_on_c, 0, 52, 59
2, 10856, Note_on_c, 0, 62, 0
2, 10856, Note_on_c, 0, 59, 0
2, 10867, Note_on_c, 0, 68, 0
2, 10920, Note_on_c, 0, 62, 70
2, 10921, Note_on_c, 0, 59, 70
2, 10921, Note_on_c, 0, 68, 70
2, 10970, Note_on_c, 0, 52, 0
2, 10972, Note_on_c, 0, 56, 0
2, 11041, Note_on_c, 0, 56, 55
2, 11041, Note_on_c, 0, 52, 49
2, 11051, Note_on_c, 0, 52, 0
2, 11058, Note_on_c, 0, 56, 0
2, 11100, Note_on_c, 0, 56, 64
2, 11101, Note_on_c, 0, 52, 54
2, 11110, Note_on_c, 0, 59, 0
2, 11111, Note_on_c, 0, 62, 0
2, 11115, Note_on_c, 0, 52, 0
2, 11118, Note_on_c, 0, 56, 0
2, 11121, Note_on_c, 0, 68, 0
2, 11160, Note_on_c, 0, 68, 70
2, 11161, Note_on_c, 0, 62, 70
2, 11161, Note_on_c, 0, 59, 70
2, 11280, Note_on_c, 0, 56, 69
2, 11281, Note_on_c, 0, 52, 54
2, 11345, Note_on_c, 0, 59, 0
2, 11346, Note_on_c, 0, 62, 0
2, 11359, Note_on_c, 0, 68, 0
2, 11400, Note_on_c, 0, 68, 70
2, 11401, Note_on_c, 0, 59, 70
2, 11401, Note_on_c, 0, 62, 70
2, 11600, Note_on_c, 0, 59, 0
2, 11601, Note_on_c, 0, 62, 0
2, 11613, Note_on_c, 0, 68, 0
2, 11640, Note_on_c, 0, 68, 70
2, 11641, Note_on_c, 0, 62, 70
2, 11641, Note_on_c, 0, 59, 70
2, 11822, Note_on_c, 0, 59, 0
2, 11831, Note_on_c, 0, 62, 0
2, 11840, Note_on_c, 0, 68, 0
2, 11880, Note_on_c, 0, 68, 70
2, 11881, Note_on_c, 0, 59, 70
2, 11881, Note_on_c, 0, 62, 70
2, 11937, Note_on_c, 0, 56, 0
2, 11949, Note_on_c, 0, 52, 0
2, 12001, Note_on_c, 0, 56, 57
2, 12001, Note_on_c, 0, 52, 49
2, 12016, Note_on_c, 0, 52, 0
2, 12018, Note_on_c, 0, 56, 0
2, 12060, Note_on_c, 0, 56, 64
2, 12061, Note_on_c, 0, 52, 54
2, 12070, Note_on_c, 0, 59, 0
2, 12073, Note_on_c, 0, 62, 0
2, 12075, Note_on_c, 0, 56, 0
2, 12080, Note_on_c, 0, 52, 0
2, 12085, Note_on_c, 0, 68, 0
2, 12120, Note_on_c, 0, 68, 70
2, 12121, Note_on_c, 0, 62, 70
2, 12121, Note_on_c, 0, 59, 70
2, 12240, Note_on_c, 0, 56, 69
2, 12241, Note_on_c, 0, 52, 64
2, 12316, Note_on_c, 0, 59, 0
2, 12317, Note_on_c, 0, 62, 0
2, 12327, Note_on_c, 0, 68, 0
2, 12360, Note_on_c, 0, 59, 70
2, 12360, Note_on_c, 0, 62, 70
2, 12360, Note_on_c, 0, 68, 70
2, 12549, Note_on_c, 0, 59, 0
2, 12558, Note_on_c, 0, 62, 0
2, 12564, Note_on_c, 0, 68, 0
2, 12600, Note_on_c, 0, 68, 70
2, 12601, Note_on_c, 0, 62, 70
2, 12601, Note_on_c, 0, 59, 70
2, 12802, Note_on_c, 0, 59, 0
2, 12807, Note_on_c, 0, 62, 0
2, 12812, Note_on_c, 0, 68, 0
2, 12840, Note_on_c, 0, 68, 70
2, 12841, Note_on_c, 0, 59, 70
2, 12841, Note_on_c, 0, 62, 70
2, 12924, Note_on_c, 0, 52, 0
2, 12925, Note_on_c, 0, 56, 0
2, 12961, Note_on_c, 0, 56, 51
2, 12961, Note_on_c, 0, 52, 48
2, 12975, Note_on_c, 0, 52, 0
2, 12980, Note_on_c, 0, 56, 0
2, 13018, Note_on_c, 0, 59, 0
2, 13020, Note_on_c, 0, 56, 53
2, 13020, Note_on_c, 0, 52, 55
2, 13026, Note_on_c, 0, 62, 0
2, 13029, Note_on_c, 0, 68, 0
2, 13044, Note_on_c, 0, 52, 0
2, 13053, Note_on_c, 0, 56, 0
2, 13080, Note_on_c, 0, 68, 70
2, 13081, Note_on_c, 0, 62, 70
2, 13081, Note_on_c, 0, 59, 70
2, 13200, Note_on_c, 0, 56, 62
2, 13201, Note_on_c, 0, 52, 55
2, 13272, Note_on_c, 0, 59, 0
2, 13280, Note_on_c, 0, 62, 0
2, 13284, Note_on_c, 0, 68, 0
2, 13320, Note_on_c, 0, 68, 70
2, 13321, Note_on_c, 0, 62, 70
2, 13321, Note_on_c, 0, 59, 70
2, 13513, Note_on_c, 0, 59, 0
2, 13515, Note_on_c, 0, 62, 0
2, 13524, Note_on_c, 0, 68, 0
2, 13560, Note_on_c, 0, 68, 70
2, 13561, Note_on_c, 0, 62, 70
2, 13561, Note_on_c, 0, 59, 70
2, 13739, Note_on_c, 0, 59, 0
2, 13741, Note_on_c, 0, 62, 0
2, 13756, Note_on_c, 0, 68, 0
2, 13800, Note_on_c, 0, 68, 70
2, 13801, Note_on_c, 0, 62, 70
2, 13801, Note_on_c, 0, 59, 70
2, 13860, Note_on_c, 0, 56, 0
2, 13863, Note_on_c, 0, 52, 0
2, 13910, Note_on_c, 0, 59, 0
2, 13921, Note_on_c, 0, 68, 0
2, 13921, Note_on_c, 0, 55, 62
2, 13921, Note_on_c, 0, 52, 52
2, 13993, Note_on_c, 0, 62, 0
2, 14040, Note_on_c, 0, 60, 70
2, 14041, Note_on_c, 0, 67, 70
2, 14041, Note_on_c, 0, 64, 70
2, 14360, Note_on_c, 0, 55, 0
2, 14379, Note_on_c, 0, 52, 0
2, 14395, Note_on_c, 0, 60, 0
2, 14400, Note_on_c, 0, 64, 0
2, 14401, Note_on_c, 0, 54, 65
2, 14401, Note_on_c, 0, 57, 65
2, 14403, Note_on_c, 0, 67, 0
2, 14520, Note_on_c, 0, 66, 70
2, 14521, Note_on_c, 0, 57, 0
2, 14521, Note_on_c, 0, 57, 70
2, 14521, Note_on_c, 0, 62, 70
2, 14828, Note_on_c, 0, 54, 0
2, 14875, Note_on_c, 0, 62, 0
2, 14879, Note_on_c, 0, 57, 0
2, 14881, Note_on_c, 0, 66, 0
2, 14881, Note_on_c, 0, 56, 74
2, 14881, Note_on_c, 0, 52, 54
2, 15001, Note_on_c, 0, 68, 70
2, 15001, Note_on_c, 0, 59, 70
2, 15001, Note_on_c, 0, 62, 70
2, 15711, Note_on_c, 0, 56, 0
2, 15712, Note_on_c, 0, 52, 0
2, 15783, Note_on_c, 0, 62, 0
2, 15788, Note_on_c, 0, 68, 0
2, 15790, Note_on_c, 0, 59, 0
2, 15841, Note_on_c, 0, 56, 64
2, 15841, Note_on_c, 0, 52, 42
2, 15849, Note_on_c, 0, 52, 0
2, 15856, Note_on_c, 0, 56, 0
2, 15900, Note_on_c, 0, 56, 51
2, 15901, Note_on_c, 0, 52, 51
2, 15933, Note_on_c, 0, 56, 0
2, 15937, Note_on_c, 0, 52, 0
2, 15961, Note_on_c, 0, 68, 70
2, 15961, Note_on_c, 0, 62, 70
2, 15961, Note_on_c, 0, 59, 70
2, 16080, Note_on_c, 0, 56, 50
2, 16081, Note_on_c, 0, 52, 49
2, 16139, Note_on_c, 0, 62, 0
2, 16141, Note_on_c, 0, 59, 0
2, 16147, Note_on_c, 0, 68, 0
2, 16200, Note_on_c, 0, 68, 70
2, 16201, Note_on_c, 0, 59, 70
2, 16201, Note_on_c, 0, 62, 70
2, 16399, Note_on_c, 0, 59, 0
2, 16404, Note_on_c, 0, 62, 0
2, 16407, Note_on_c, 0, 68, 0
2, 16440, Note_on_c, 0, 68, 70
2, 16441, Note_on_c, 0, 62, 70
2, 16441, Note_on_c, 0, 59, 70
2, 16638, Note_on_c, 0, 59, 0
2, 16640, Note_on_c, 0, 62, 0
2, 16650, Note_on_c, 0, 68, 0
2, 16680, Note_on_c, 0, 59, 70
2, 16680, Note_on_c, 0, 62, 70
2, 16680, Note_on_c, 0, 68, 70
2, 16752, Note_on_c, 0, 52, 0
2, 16760, Note_on_c, 0, 56, 0
2, 16801, Note_on_c, 0, 56, 54
2, 16801, Note_on_c, 0, 52, 50
2, 16817, Note_on_c, 0, 52, 0
2, 16823, Note_on_c, 0, 56, 0
2, 16860, Note_on_c, 0, 56, 59
2, 16861, Note_on_c, 0, 52, 53
2, 16865, Note_on_c, 0, 62, 0
2, 16865, Note_on_c, 0, 59, 0
2, 16871, Note_on_c, 0, 68, 0
2, 16889, Note_on_c, 0, 52, 0
2, 16890, Note_on_c, 0, 56, 0
2, 16920, Note_on_c, 0, 68, 70
2, 16921, Note_on_c, 0, 62, 70
2, 16921, Note_on_c, 0, 59, 70
2, 17040, Note_on_c, 0, 56, 64
2, 17041, Note_on_c, 0, 52, 55
2, 17116, Note_on_c, 0, 59, 0
2, 17120, Note_on_c, 0, 62, 0
2, 17124, Note_on_c, 0, 68, 0
2, 17160, Note_on_c, 0, 68, 70
2, 17161, Note_on_c, 0, 59, 70
2, 17161, Note_on_c, 0, 62, 70
2, 17356, Note_on_c, 0, 62, 0
2, 17356, Note_on_c, 0, 59, 0
2, 17362, Note_on_c, 0, 68, 0
2, 17400, Note_on_c, 0, 68, 70
2, 17400, Note_on_c, 0, 59, 70
2, 17400, Note_on_c, 0, 62, 70
2, 17581, Note_on_c, 0, 62, 0
2, 17583, Note_on_c, 0, 59, 0
2, 17591, Note_on_c, 0, 68, 0
2, 17640, Note_on_c, 0, 68, 70
2, 17641, Note_on_c, 0, 59, 70
2, 17641, Note_on_c, 0, 62, 70
2, 17668, Note_on_c, 0, 56, 0
2, 17725, Note_on_c, 0, 52, 0
2, 17757, Note_on_c, 0, 68, 0
2, 17761, Note_on_c, 0, 59, 0
2, 17761, Note_on_c, 0, 62, 0
2, 17761, Note_on_c, 0, 59, 55
2, 17761, Note_on_c, 0, 55, 42
2, 17772, Note_on_c, 0, 55, 0
2, 17780, Note_on_c, 0, 59, 0
2, 17820, Note_on_c, 0, 55, 48
2, 17821, Note_on_c, 0, 59, 54
2, 17839, Note_on_c, 0, 55, 0
2, 17846, Note_on_c, 0, 59, 0
2, 17880, Note_on_c, 0, 62, 70
2, 17881, Note_on_c, 0, 59, 70
2, 17881, Note_on_c, 0, 67, 70
2, 18000, Note_on_c, 0, 59, 0
2, 18001, Note_on_c, 0, 59, 53
2, 18001, Note_on_c, 0, 55, 44
2, 18070, Note_on_c, 0, 62, 0
2, 18073, Note_on_c, 0, 67, 0
2, 18120, Note_on_c, 0, 62, 70
2, 18121, Note_on_c, 0, 59, 0
2, 18121, Note_on_c, 0, 67, 70
2, 18121, Note_on_c, 0, 59, 70
2, 18215, Note_on_c, 0, 55, 0
2, 18240, Note_on_c, 0, 52, 46
2, 18240, Note_on_c, 0, 56, 43
2, 18257, Note_on_c, 0, 52, 0
2, 18258, Note_on_c, 0, 56, 0
2, 18268, Note_on_c, 0, 67, 0
2, 18272, Note_on_c, 0, 59, 0
2, 18273, Note_on_c, 0, 62, 0
2, 18300, Note_on_c, 0, 56, 54
2, 18301, Note_on_c, 0, 52, 57
2, 18332, Note_on_c, 0, 52, 0
2, 18334, Note_on_c, 0, 56, 0
2, 18361, Note_on_c, 0, 68, 70
2, 18361, Note_on_c, 0, 59, 70
2, 18361, Note_on_c, 0, 62, 70
2, 18480, Note_on_c, 0, 56, 51
2, 18481, Note_on_c, 0, 52, 54
2, 18548, Note_on_c, 0, 59, 0
2, 18549, Note_on_c, 0, 62, 0
2, 18554, Note_on_c, 0, 68, 0
2, 18600, Note_on_c, 0, 62, 70
2, 18601, Note_on_c, 0, 59, 70
2, 18601, Note_on_c, 0, 68, 70
2, 18686, Note_on_c, 0, 52, 0
2, 18687, Note_on_c, 0, 56, 0
2, 18721, Note_on_c, 0, 56, 48
2, 18721, Note_on_c, 0, 52, 38
2, 18730, Note_on_c, 0, 52, 0
2, 18737, Note_on_c, 0, 56, 0
2, 18780, Note_on_c, 0, 56, 62
2, 18780, Note_on_c, 0, 52, 51
2, 18801, Note_on_c, 0, 59, 0
2, 18802, Note_on_c, 0, 62, 0
2, 18807, Note_on_c, 0, 68, 0
2, 18815, Note_on_c, 0, 52, 0
2, 18831, Note_on_c, 0, 56, 0
2, 18840, Note_on_c, 0, 62, 70
2, 18841, Note_on_c, 0, 68, 70
2, 18841, Note_on_c, 0, 59, 70
2, 18960, Note_on_c, 0, 56, 57
2, 18961, Note_on_c, 0, 52, 64
2, 19026, Note_on_c, 0, 59, 0
2, 19027, Note_on_c, 0, 62, 0
2, 19034, Note_on_c, 0, 68, 0
2, 19080, Note_on_c, 0, 62, 70
2, 19081, Note_on_c, 0, 59, 70
2, 19081, Note_on_c, 0, 68, 70
2, 19150, Note_on_c, 0, 52, 0
2, 19156, Note_on_c, 0, 56, 0
2, 19200, Note_on_c, 0, 56, 51
2, 19200, Note_on_c, 0, 52, 49
2, 19216, Note_on_c, 0, 52, 0
2, 19217, Note_on_c, 0, 56, 0
2, 19260, Note_on_c, 0, 56, 62
2, 19261, Note_on_c, 0, 52, 52
2, 19272, Note_on_c, 0, 62, 0
2, 19274, Note_on_c, 0, 59, 0
2, 19281, Note_on_c, 0, 68, 0
2, 19316, Note_on_c, 0, 52, 0
2, 19320, Note_on_c, 0, 68, 70
2, 19320, Note_on_c, 0, 59, 70
2, 19320, Note_on_c, 0, 62, 70
2, 19336, Note_on_c, 0, 56, 0
2, 19440, Note_on_c, 0, 56, 59
2, 19441, Note_on_c, 0, 52, 59
2, 19508, Note_on_c, 0, 62, 0
2, 19511, Note_on_c, 0, 59, 0
2, 19516, Note_on_c, 0, 68, 0
2, 19560, Note_on_c, 0, 59, 70
2, 19560, Note_on_c, 0, 62, 70
2, 19560, Note_on_c, 0, 68, 70
2, 19610, Note_on_c, 0, 52, 0
2, 19612, Note_on_c, 0, 56, 0
2, 19681, Note_on_c, 0, 56, 55
2, 19681, Note_on_c, 0, 52, 49
2, 19691, Note_on_c, 0, 52, 0
2, 19697, Note_on_c, 0, 56, 0
2, 19740, Note_on_c, 0, 56, 64
2, 19741, Note_on_c, 0, 52, 54
2, 19746, Note_on_c, 0, 62, 0
2, 19747, Note_on_c, 0, 59, 0
2, 19755, Note_on_c, 0, 52, 0
2, 19755, Note_on_c, 0, 68, 0
2, 19757, Note_on_c, 0, 56, 0
2, 19800, Note_on_c, 0, 62, 70
2, 19801, Note_on_c, 0, 68, 70
2, 19801, Note_on_c, 0, 59, 70
2, 19920, Note_on_c, 0, 56, 69
2, 19921, Note_on_c, 0, 52, 54
2, 19996, Note_on_c, 0, 59, 0
2, 20000, Note_on_c, 0, 62, 0
2, 20004, Note_on_c, 0, 68, 0
2, 20040, Note_on_c, 0, 68, 70
2, 20041, Note_on_c, 0, 59, 70
2, 20041, Note_on_c, 0, 62, 70
2, 20229, Note_on_c, 0, 59, 0
2, 20230, Note_on_c, 0, 62, 0
2, 20236, Note_on_c, 0, 68, 0
2, 20280, Note_on_c, 0, 68, 70
2, 20281, Note_on_c, 0, 59, 70
2, 20281, Note_on_c, 0, 62, 70
2, 20489, Note_on_c, 0, 62, 0
2, 20492, Note_on_c, 0, 59, 0
2, 20500, Note_on_c, 0, 68, 0
2, 20520, Note_on_c, 0, 68, 70
2, 20521, Note_on_c, 0, 59, 70
2, 20521, Note_on_c, 0, 62, 70
2, 20577, Note_on_c, 0, 56, 0
2, 20588, Note_on_c, 0, 52, 0
2, 20641, Note_on_c, 0, 56, 57
2, 20641, Note_on_c, 0, 52, 49
2, 20656, Note_on_c, 0, 52, 0
2, 20657, Note_on_c, 0, 56, 0
2, 20700, Note_on_c, 0, 56, 64
2, 20701, Note_on_c, 0, 52, 54
2, 20715, Note_on_c, 0, 56, 0
2, 20720, Note_on_c, 0, 52, 0
2, 20724, Note_on_c, 0, 59, 0
2, 20725, Note_on_c, 0, 62, 0
2, 20729, Note_on_c, 0, 68, 0
2, 20760, Note_on_c, 0, 68, 70
2, 20761, Note_on_c, 0, 62, 70
2, 20761, Note_on_c, 0, 59, 70
2, 20880, Note_on_c, 0, 56, 69
2, 20881, Note_on_c, 0, 52, 64
2, 20965, Note_on_c, 0, 59, 0
2, 20968, Note_on_c, 0, 62, 0
2, 20974, Note_on_c, 0, 68, 0
2, 21000, Note_on_c, 0, 59, 70
2, 21000, Note_on_c, 0, 62, 70
2, 21000, Note_on_c, 0, 68, 70
2, 21201, Note_on_c, 0, 59, 0
2, 21202, Note_on_c, 0, 62, 0
2, 21211, Note_on_c, 0, 68, 0
2, 21240, Note_on_c, 0, 68, 70
2, 21241, Note_on_c, 0, 62, 70
2, 21241, Note_on_c, 0, 59, 70
2, 21441, Note_on_c, 0, 59, 0
2, 21448, Note_on_c, 0, 62, 0
2, 21450, Note_on_c, 0, 68, 0
2, 21480, Note_on_c, 0, 59, 70
2, 21480, Note_on_c, 0, 68, 70
2, 21480, Note_on_c, 0, 62, 70
2, 21563, Note_on_c, 0, 52, 0
2, 21565, Note_on_c, 0, 56, 0
2, 21601, Note_on_c, 0, 56, 51
2, 21601, Note_on_c, 0, 52, 48
2, 21615, Note_on_c, 0, 52, 0
2, 21620, Note_on_c, 0, 56, 0
2, 21660, Note_on_c, 0, 56, 53
2, 21660, Note_on_c, 0, 52, 55
2, 21672, Note_on_c, 0, 59, 0
2, 21677, Note_on_c, 0, 68, 0
2, 21678, Note_on_c, 0, 62, 0
2, 21683, Note_on_c, 0, 52, 0
2, 21692, Note_on_c, 0, 56, 0
2, 21720, Note_on_c, 0, 68, 70
2, 21721, Note_on_c, 0, 62, 70
2, 21721, Note_on_c, 0, 59, 70
2, 21840, Note_on_c, 0, 56, 62
2, 21841, Note_on_c, 0, 52, 55
2, 21917, Note_on_c, 0, 59, 0
2, 21918, Note_on_c, 0, 62, 0
2, 21924, Note_on_c, 0, 68, 0
2, 21960, Note_on_c, 0, 68, 70
2, 21961, Note_on_c, 0, 62, 70
2, 21961, Note_on_c, 0, 59, 70
2, 22155, Note_on_c, 0, 59, 0
2, 22160, Note_on_c, 0, 62, 0
2, 22164, Note_on_c, 0, 68, 0
2, 22200, Note_on_c, 0, 68, 70
2, 22201, Note_on_c, 0, 59, 70
2, 22201, Note_on_c, 0, 62, 70
2, 22405, Note_on_c, 0, 59, 0
2, 22407, Note_on_c, 0, 62, 0
2, 22411, Note_on_c, 0, 68, 0
2, 22440, Note_on_c, 0, 68, 70
2, 22441, Note_on_c, 0, 62, 70
2, 22441, Note_on_c, 0, 59, 70
2, 22500, Note_on_c, 0, 56, 0
2, 22502, Note_on_c, 0, 52, 0
2, 22520, Note_on_c, 0, 59, 0
2, 22524, Note_on_c, 0, 68, 0
2, 22541, Note_on_c, 0, 62, 0
2, 22561, Note_on_c, 0, 64, 70
2, 22561, Note_on_c, 0, 60, 70
2, 22561, Note_on_c, 0, 67, 70
2, 22561, Note_on_c, 0, 55, 62
2, 22561, Note_on_c, 0, 52, 52
2, 22962, Note_on_c, 0, 60, 0
2, 22980, Note_on_c, 0, 67, 0
2, 22988, Note_on_c, 0, 64, 0
2, 23000, Note_on_c, 0, 55, 0
2, 23019, Note_on_c, 0, 52, 0
2, 23040, Note_on_c, 0, 66, 70
2, 23041, Note_on_c, 0, 62, 70
2, 23041, Note_on_c, 0, 54, 65
2, 23041, Note_on_c, 0, 57, 65
2, 23467, Note_on_c, 0, 54, 0
2, 23471, Note_on_c, 0, 57, 0
2, 23486, Note_on_c, 0, 66, 0
2, 23493, Note_on_c, 0, 62, 0
2, 23521, Note_on_c, 0, 59, 70
2, 23521, Note_on_c, 0, 56, 74
2, 23521, Note_on_c, 0, 52, 54
2, 23521, Note_on_c, 0, 62, 70
2, 23521, Note_on_c, 0, 68, 70
2, 24313, Note_on_c, 0, 68, 0
2, 24314, Note_on_c, 0, 62, 0
2, 24320, Note_on_c, 0, 59, 0
2, 24351, Note_on_c, 0, 56, 0
2, 24353, Note_on_c, 0, 52, 0
2, 24481, Note_on_c, 0, 50, 49
2, 24481, Note_on_c, 0, 56, 40
2, 24600, Note_on_c, 0, 68, 70
2, 24601, Note_on_c, 0, 59, 70
2, 24601, Note_on_c, 0, 62, 70
2, 24612, Note_on_c, 0, 59, 0
2, 24612, Note_on_c, 0, 68, 0
2, 24612, Note_on_c, 0, 68, 70
2, 24612, Note_on_c, 0, 59, 70
2, 24614, Note_on_c, 0, 62, 0
2, 24614, Note_on_c, 0, 62, 70
2, 24651, Note_on_c, 0, 50, 0
2, 24652, Note_on_c, 0, 56, 0
2, 24720, Note_on_c, 0, 56, 62
2, 24721, Note_on_c, 0, 50, 48
2, 24801, Note_on_c, 0, 62, 0
2, 24804, Note_on_c, 0, 59, 0
2, 24809, Note_on_c, 0, 68, 0
2, 24841, Note_on_c, 0, 59, 70
2, 24841, Note_on_c, 0, 62, 70
2, 24841, Note_on_c, 0, 68, 70
2, 24845, Note_on_c, 0, 59, 0
2, 24845, Note_on_c, 0, 59, 70
2, 24846, Note_on_c, 0, 62, 0
2, 24846, Note_on_c, 0, 62, 70
2, 24912, Note_on_c, 0, 50, 0
2, 24919, Note_on_c, 0, 56, 0
2, 24960, Note_on_c, 0, 56, 55
2, 24960, Note_on_c, 0, 50, 47
2, 24975, Note_on_c, 0, 50, 0
2, 24986, Note_on_c, 0, 56, 0
2, 25020, Note_on_c, 0, 56, 57
2, 25020, Note_on_c, 0, 50, 46
2, 25036, Note_on_c, 0, 59, 0
2, 25045, Note_on_c, 0, 62, 0
2, 25046, Note_on_c, 0, 68, 0
2, 25080, Note_on_c, 0, 68, 70
2, 25081, Note_on_c, 0, 50, 0
2, 25081, Note_on_c, 0, 59, 70
2, 25081, Note_on_c, 0, 62, 70
2, 25082, Note_on_c, 0, 56, 0
2, 25084, Note_on_c, 0, 68, 0
2, 25084, Note_on_c, 0, 68, 70
2, 25085, Note_on_c, 0, 59, 0
2, 25085, Note_on_c, 0, 59, 70
2, 25086, Note_on_c, 0, 62, 0
2, 25086, Note_on_c, 0, 62, 70
2, 25200, Note_on_c, 0, 56, 69
2, 25201, Note_on_c, 0, 50, 45
2, 25274, Note_on_c, 0, 59, 0
2, 25281, Note_on_c, 0, 62, 0
2, 25289, Note_on_c, 0, 68, 0
2, 25320, Note_on_c, 0, 68, 70
2, 25320, Note_on_c, 0, 62, 70
2, 25320, Note_on_c, 0, 59, 70
2, 25323, Note_on_c, 0, 68, 0
2, 25323, Note_on_c, 0, 68, 70
2, 25325, Note_on_c, 0, 62, 0
2, 25325, Note_on_c, 0, 62, 70
2, 25326, Note_on_c, 0, 59, 0
2, 25326, Note_on_c, 0, 59, 70
2, 25394, Note_on_c, 0, 50, 0
2, 25400, Note_on_c, 0, 56, 0
2, 25441, Note_on_c, 0, 56, 57
2, 25441, Note_on_c, 0, 50, 51
2, 25525, Note_on_c, 0, 59, 0
2, 25527, Note_on_c, 0, 62, 0
2, 25531, Note_on_c, 0, 68, 0
2, 25561, Note_on_c, 0, 59, 70
2, 25561, Note_on_c, 0, 62, 70
2, 25563, Note_on_c, 0, 68, 70
2, 25566, Note_on_c, 0, 62, 0
2, 25566, Note_on_c, 0, 59, 0
2, 25566, Note_on_c, 0, 59, 70
2, 25566, Note_on_c, 0, 62, 70
2, 25616, Note_on_c, 0, 50, 0
2, 25639, Note_on_c, 0, 56, 0
2, 25680, Note_on_c, 0, 56, 53
2, 25680, Note_on_c, 0, 50, 49
2, 25750, Note_on_c, 0, 59, 0
2, 25759, Note_on_c, 0, 62, 0
2, 25760, Note_on_c, 0, 68, 0
2, 25800, Note_on_c, 0, 68, 70
2, 25801, Note_on_c, 0, 62, 70
2, 25801, Note_on_c, 0, 59, 70
2, 25853, Note_on_c, 0, 50, 0
2, 25864, Note_on_c, 0, 56, 0
2, 25920, Note_on_c, 0, 56, 50
2, 25921, Note_on_c, 0, 50, 45
2, 25936, Note_on_c, 0, 50, 0
2, 25947, Note_on_c, 0, 56, 0
2, 25980, Note_on_c, 0, 56, 54
2, 25980, Note_on_c, 0, 50, 49
2, 25986, Note_on_c, 0, 59, 0
2, 25988, Note_on_c, 0, 62, 0
2, 25992, Note_on_c, 0, 68, 0
2, 26040, Note_on_c, 0, 68, 70
2, 26041, Note_on_c, 0, 59, 70
2, 26041, Note_on_c, 0, 62, 70
2, 26076, Note_on_c, 0, 50, 0
2, 26099, Note_on_c, 0, 56, 0
2, 26160, Note_on_c, 0, 56, 65
2, 26161, Note_on_c, 0, 50, 53
2, 26239, Note_on_c, 0, 59, 0
2, 26248, Note_on_c, 0, 62, 0
2, 26251, Note_on_c, 0, 68, 0
2, 26280, Note_on_c, 0, 68, 70
2, 26281, Note_on_c, 0, 62, 70
2, 26281, Note_on_c, 0, 59, 70
2, 26285, Note_on_c, 0, 68, 0
2, 26285, Note_on_c, 0, 68, 70
2, 26286, Note_on_c, 0, 62, 0
2, 26286, Note_on_c, 0, 59, 0
2, 26286, Note_on_c, 0, 62, 70
2, 26287, Note_on_c, 0, 59, 70
2, 26328, Note_on_c, 0, 50, 0
2, 26350, Note_on_c, 0, 56, 0
2, 26401, Note_on_c, 0, 56, 53
2, 26401, Note_on_c, 0, 50, 48
2, 26416, Note_on_c, 0, 50, 0
2, 26423, Note_on_c, 0, 56, 0
2, 26460, Note_on_c, 0, 56, 50
2, 26460, Note_on_c, 0, 50, 49
2, 26477, Note_on_c, 0, 59, 0
2, 26488, Note_on_c, 0, 62, 0
2, 26490, Note_on_c, 0, 68, 0
2, 26520, Note_on_c, 0, 68, 70
2, 26520, Note_on_c, 0, 62, 70
2, 26520, Note_on_c, 0, 59, 70
2, 26523, Note_on_c, 0, 68, 0
2, 26524, Note_on_c, 0, 68, 70
2, 26525, Note_on_c, 0, 62, 0
2, 26525, Note_on_c, 0, 62, 70
2, 26526, Note_on_c, 0, 59, 0
2, 26526, Note_on_c, 0, 59, 70
2, 26606, Note_on_c, 0, 50, 0
2, 26609, Note_on_c, 0, 56, 0
2, 26640, Note_on_c, 0, 56, 59
2, 26641, Note_on_c, 0, 50, 49
2, 26710, Note_on_c, 0, 59, 0
2, 26721, Note_on_c, 0, 62, 0
2, 26724, Note_on_c, 0, 68, 0
2, 26756, Note_on_c, 0, 68, 70
2, 26760, Note_on_c, 0, 68, 0
2, 26760, Note_on_c, 0, 68, 70
2, 26761, Note_on_c, 0, 59, 70
2, 26761, Note_on_c, 0, 62, 70
2, 26842, Note_on_c, 0, 50, 0
2, 26847, Note_on_c, 0, 56, 0
2, 26880, Note_on_c, 0, 56, 64
2, 26880, Note_on_c, 0, 50, 50
2, 26967, Note_on_c, 0, 59, 0
2, 26975, Note_on_c, 0, 62, 0
2, 26976, Note_on_c, 0, 68, 0
2, 27000, Note_on_c, 0, 68, 70
2, 27001, Note_on_c, 0, 62, 70
2, 27001, Note_on_c, 0, 59, 70
2, 27006, Note_on_c, 0, 59, 0
2, 27006, Note_on_c, 0, 68, 0
2, 27006, Note_on_c, 0, 62, 0
2, 27006, Note_on_c, 0, 68, 70
2, 27006, Note_on_c, 0, 62, 70
2, 27006, Note_on_c, 0, 59, 70
2, 27071, Note_on_c, 0, 50, 0
2, 27079, Note_on_c, 0, 56, 0
2, 27120, Note_on_c, 0, 56, 62
2, 27120, Note_on_c, 0, 50, 49
2, 27196, Note_on_c, 0, 59, 0
2, 27204, Note_on_c, 0, 62, 0
2, 27209, Note_on_c, 0, 68, 0
2, 27240, Note_on_c, 0, 62, 70
2, 27240, Note_on_c, 0, 59, 70
2, 27243, Note_on_c, 0, 68, 70
2, 27244, Note_on_c, 0, 62, 0
2, 27244, Note_on_c, 0, 62, 70
2, 27245, Note_on_c, 0, 59, 0
2, 27245, Note_on_c, 0, 59, 70
2, 27307, Note_on_c, 0, 50, 0
2, 27319, Note_on_c, 0, 56, 0
2, 27361, Note_on_c, 0, 56, 64
2, 27361, Note_on_c, 0, 50, 52
2, 27435, Note_on_c, 0, 59, 0
2, 27440, Note_on_c, 0, 62, 0
2, 27441, Note_on_c, 0, 68, 0
2, 27481, Note_on_c, 0, 68, 70
2, 27481, Note_on_c, 0, 59, 70
2, 27481, Note_on_c, 0, 62, 70
2, 27550, Note_on_c, 0, 50, 0
2, 27557, Note_on_c, 0, 56, 0
2, 27600, Note_on_c, 0, 56, 64
2, 27601, Note_on_c, 0, 50, 55
2, 27685, Note_on_c, 0, 59, 0
2, 27686, Note_on_c, 0, 62, 0
2, 27694, Note_on_c, 0, 68, 0
2, 27720, Note_on_c, 0, 68, 70
2, 27723, Note_on_c, 0, 62, 70
2, 27723, Note_on_c, 0, 59, 70
2, 27780, Note_on_c, 0, 56, 0
2, 27787, Note_on_c, 0, 50, 0
2, 27840, Note_on_c, 0, 56, 62
2, 27840, Note_on_c, 0, 50, 49
2, 27862, Note_on_c, 0, 50, 0
2, 27866, Note_on_c, 0, 56, 0
2, 27900, Note_on_c, 0, 56, 57
2, 27900, Note_on_c, 0, 50, 54
2, 27920, Note_on_c, 0, 59, 0
2, 27928, Note_on_c, 0, 62, 0
2, 27932, Note_on_c, 0, 68, 0
2, 27960, Note_on_c, 0, 68, 70
2, 27960, Note_on_c, 0, 59, 70
2, 27962, Note_on_c, 0, 62, 70
2, 27964, Note_on_c, 0, 68, 0
2, 27964, Note_on_c, 0, 68, 70
2, 27965, Note_on_c, 0, 59, 0
2, 27965, Note_on_c, 0, 59, 70
2, 28052, Note_on_c, 0, 50, 0
2, 28060, Note_on_c, 0, 56, 0
2, 28080, Note_on_c, 0, 56, 55
2, 28081, Note_on_c, 0, 50, 51
2, 28161, Note_on_c, 0, 59, 0
2, 28165, Note_on_c, 0, 62, 0
2, 28170, Note_on_c, 0, 68, 0
2, 28200, Note_on_c, 0, 68, 70
2, 28201, Note_on_c, 0, 59, 70
2, 28201, Note_on_c, 0, 62, 70
2, 28204, Note_on_c, 0, 62, 0
2, 28204, Note_on_c, 0, 62, 70
2, 28287, Note_on_c, 0, 50, 0
2, 28288, Note_on_c, 0, 56, 0
2, 28321, Note_on_c, 0, 56, 62
2, 28321, Note_on_c, 0, 50, 51
2, 28387, Note_on_c, 0, 59, 0
2, 28400, Note_on_c, 0, 62, 0
2, 28401, Note_on_c, 0, 68, 0
2, 28441, Note_on_c, 0, 62, 70
2, 28441, Note_on_c, 0, 68, 70
2, 28441, Note_on_c, 0, 59, 70
2, 28520, Note_on_c, 0, 50, 0
2, 28530, Note_on_c, 0, 56, 0
2, 28560, Note_on_c, 0, 56, 54
2, 28560, Note_on_c, 0, 50, 52
2, 28640, Note_on_c, 0, 59, 0
2, 28647, Note_on_c, 0, 68, 0
2, 28648, Note_on_c, 0, 62, 0
2, 28676, Note_on_c, 0, 68, 70
2, 28677, Note_on_c, 0, 62, 70
2, 28680, Note_on_c, 0, 68, 0
2, 28680, Note_on_c, 0, 68, 70
2, 28681, Note_on_c, 0, 62, 0
2, 28681, Note_on_c, 0, 59, 70
2, 28681, Note_on_c, 0, 62, 70
2, 28748, Note_on_c, 0, 50, 0
2, 28754, Note_on_c, 0, 56, 0
2, 28800, Note_on_c, 0, 56, 53
2, 28801, Note_on_c, 0, 50, 51
2, 28820, Note_on_c, 0, 50, 0
2, 28826, Note_on_c, 0, 56, 0
2, 28860, Note_on_c, 0, 50, 53
2, 28861, Note_on_c, 0, 56, 59
2, 28878, Note_on_c, 0, 59, 0
2, 28893, Note_on_c, 0, 68, 0
2, 28894, Note_on_c, 0, 62, 0
2, 28920, Note_on_c, 0, 59, 70
2, 28922, Note_on_c, 0, 68, 70
2, 28922, Note_on_c, 0, 62, 70
2, 28925, Note_on_c, 0, 59, 0
2, 28925, Note_on_c, 0, 59, 70
2, 28956, Note_on_c, 0, 50, 0
2, 28986, Note_on_c, 0, 56, 0
2, 29040, Note_on_c, 0, 50, 53
2, 29041, Note_on_c, 0, 56, 65
2, 29122, Note_on_c, 0, 59, 0
2, 29131, Note_on_c, 0, 68, 0
2, 29131, Note_on_c, 0, 62, 0
2, 29161, Note_on_c, 0, 59, 70
2, 29162, Note_on_c, 0, 62, 70
2, 29163, Note_on_c, 0, 68, 70
2, 29165, Note_on_c, 0, 59, 0
2, 29165, Note_on_c, 0, 59, 70
2, 29248, Note_on_c, 0, 50, 0
2, 29249, Note_on_c, 0, 56, 0
2, 29281, Note_on_c, 0, 56, 57
2, 29281, Note_on_c, 0, 50, 50
2, 29356, Note_on_c, 0, 59, 0
2, 29365, Note_on_c, 0, 68, 0
2, 29368, Note_on_c, 0, 62, 0
2, 29400, Note_on_c, 0, 62, 70
2, 29400, Note_on_c, 0, 68, 70
2, 29400, Note_on_c, 0, 59, 70
2, 29405, Note_on_c, 0, 68, 0
2, 29405, Note_on_c, 0, 62, 0
2, 29405, Note_on_c, 0, 62, 70
2, 29405, Note_on_c, 0, 68, 70
2, 29406, Note_on_c, 0, 59, 0
2, 29406, Note_on_c, 0, 59, 70
2, 29467, Note_on_c, 0, 50, 0
2, 29476, Note_on_c, 0, 56, 0
2, 29520, Note_on_c, 0, 56, 59
2, 29521, Note_on_c, 0, 50, 52
2, 29595, Note_on_c, 0, 59, 0
2, 29596, Note_on_c, 0, 68, 0
2, 29601, Note_on_c, 0, 62, 0
2, 29640, Note_on_c, 0, 62, 70
2, 29641, Note_on_c, 0, 59, 70
2, 29641, Note_on_c, 0, 68, 70
2, 29706, Note_on_c, 0, 50, 0
2, 29717, Note_on_c, 0, 56, 0
2, 29760, Note_on_c, 0, 50, 51
2, 29761, Note_on_c, 0, 56, 57
2, 29779, Note_on_c, 0, 50, 0
2, 29783, Note_on_c, 0, 56, 0
2, 29820, Note_on_c, 0, 56, 59
2, 29821, Note_on_c, 0, 50, 54
2, 29836, Note_on_c, 0, 59, 0
2, 29846, Note_on_c, 0, 68, 0
2, 29849, Note_on_c, 0, 62, 0
2, 29881, Note_on_c, 0, 59, 70
2, 29881, Note_on_c, 0, 68, 70
2, 29883, Note_on_c, 0, 62, 70
2, 29884, Note_on_c, 0, 68, 0
2, 29884, Note_on_c, 0, 59, 0
2, 29884, Note_on_c, 0, 59, 70
2, 29884, Note_on_c, 0, 68, 70
2, 29946, Note_on_c, 0, 50, 0
2, 29965, Note_on_c, 0, 56, 0
2, 30000, Note_on_c, 0, 56, 59
2, 30000, Note_on_c, 0, 50, 53
2, 30084, Note_on_c, 0, 59, 0
2, 30089, Note_on_c, 0, 68, 0
2, 30091, Note_on_c, 0, 62, 0
2, 30120, Note_on_c, 0, 62, 70
2, 30120, Note_on_c, 0, 68, 70
2, 30120, Note_on_c, 0, 59, 70
2, 30125, Note_on_c, 0, 62, 0
2, 30125, Note_on_c, 0, 62, 70
2, 30127, Note_on_c, 0, 68, 0
2, 30128, Note_on_c, 0, 59, 0
2, 30128, Note_on_c, 0, 59, 70
2, 30128, Note_on_c, 0, 68, 70
2, 30201, Note_on_c, 0, 50, 0
2, 30209, Note_on_c, 0, 56, 0
2, 30241, Note_on_c, 0, 56, 62
2, 30241, Note_on_c, 0, 50, 57
2, 30326, Note_on_c, 0, 59, 0
2, 30330, Note_on_c, 0, 68, 0
2, 30331, Note_on_c, 0, 62, 0
2, 30361, Note_on_c, 0, 68, 70
2, 30361, Note_on_c, 0, 59, 70
2, 30363, Note_on_c, 0, 62, 70
2, 30364, Note_on_c, 0, 68, 0
2, 30364, Note_on_c, 0, 68, 70
2, 30365, Note_on_c, 0, 59, 0
2, 30365, Note_on_c, 0, 59, 70
2, 30420, Note_on_c, 0, 50, 0
2, 30437, Note_on_c, 0, 56, 0
2, 30480, Note_on_c, 0, 56, 62
2, 30481, Note_on_c, 0, 50, 54
2, 30561, Note_on_c, 0, 59, 0
2, 30569, Note_on_c, 0, 62, 0
2, 30571, Note_on_c, 0, 68, 0
2, 30601, Note_on_c, 0, 62, 70
2, 30602, Note_on_c, 0, 68, 70
2, 30603, Note_on_c, 0, 59, 70
2, 30650, Note_on_c, 0, 50, 0
2, 30673, Note_on_c, 0, 56, 0
2, 30720, Note_on_c, 0, 50, 50
2, 30720, Note_on_c, 0, 56, 59
2, 30736, Note_on_c, 0, 50, 0
2, 30740, Note_on_c, 0, 56, 0
2, 30780, Note_on_c, 0, 56, 57
2, 30780, Note_on_c, 0, 50, 52
2, 30794, Note_on_c, 0, 59, 0
2, 30800, Note_on_c, 0, 62, 0
2, 30801, Note_on_c, 0, 68, 0
2, 30840, Note_on_c, 0, 68, 70
2, 30841, Note_on_c, 0, 62, 70
2, 30841, Note_on_c, 0, 59, 70
2, 30920, Note_on_c, 0, 50, 0
2, 30925, Note_on_c, 0, 56, 0
2, 30960, Note_on_c, 0, 50, 53
2, 30961, Note_on_c, 0, 56, 65
2, 31035, Note_on_c, 0, 59, 0
2, 31042, Note_on_c, 0, 62, 0
2, 31045, Note_on_c, 0, 68, 0
2, 31080, Note_on_c, 0, 62, 70
2, 31081, Note_on_c, 0, 59, 70
2, 31081, Note_on_c, 0, 68, 70
2, 31154, Note_on_c, 0, 50, 0
2, 31159, Note_on_c, 0, 56, 0
2, 31201, Note_on_c, 0, 56, 65
2, 31201, Note_on_c, 0, 50, 57
2, 31266, Note_on_c, 0, 59, 0
2, 31273, Note_on_c, 0, 62, 0
2, 31274, Note_on_c, 0, 68, 0
2, 31320, Note_on_c, 0, 68, 70
2, 31321, Note_on_c, 0, 62, 70
2, 31321, Note_on_c, 0, 59, 70
2, 31367, Note_on_c, 0, 50, 0
2, 31383, Note_on_c, 0, 56, 0
2, 31440, Note_on_c, 0, 56, 62
2, 31440, Note_on_c, 0, 50, 54
2, 31510, Note_on_c, 0, 59, 0
2, 31519, Note_on_c, 0, 62, 0
2, 31519, Note_on_c, 0, 68, 0
2, 31560, Note_on_c, 0, 68, 70
2, 31561, Note_on_c, 0, 59, 70
2, 31561, Note_on_c, 0, 62, 70
2, 31634, Note_on_c, 0, 50, 0
2, 31643, Note_on_c, 0, 56, 0
2, 31680, Note_on_c, 0, 56, 54
2, 31681, Note_on_c, 0, 50, 50
2, 31696, Note_on_c, 0, 50, 0
2, 31701, Note_on_c, 0, 56, 0
2, 31740, Note_on_c, 0, 80, 80
2, 31741, Note_on_c, 0, 74, 80
2, 31741, Note_on_c, 0, 56, 62
2, 31741, Note_on_c, 0, 50, 50
2, 31750, Note_on_c, 0, 59, 0
2, 31754, Note_on_c, 0, 62, 0
2, 31758, Note_on_c, 0, 68, 0
2, 31770, Note_on_c, 0, 80, 0
2, 31771, Note_on_c, 0, 74, 0
2, 31800, Note_on_c, 0, 80, 80
2, 31800, Note_on_c, 0, 74, 80
2, 31831, Note_on_c, 0, 74, 0
2, 31833, Note_on_c, 0, 80, 0
2, 31853, Note_on_c, 0, 50, 0
2, 31860, Note_on_c, 0, 80, 80
2, 31860, Note_on_c, 0, 74, 80
2, 31863, Note_on_c, 0, 56, 0
2, 31887, Note_on_c, 0, 74, 0
2, 31890, Note_on_c, 0, 80, 0
2, 31920, Note_on_c, 0, 80, 80
2, 31921, Note_on_c, 0, 74, 80
2, 31921, Note_on_c, 0, 56, 64
2, 31921, Note_on_c, 0, 50, 59
2, 31959, Note_on_c, 0, 74, 0
2, 31959, Note_on_c, 0, 80, 0
2, 32065, Note_on_c, 0, 56, 0
2, 32066, Note_on_c, 0, 50, 0
2, 32161, Note_on_c, 0, 56, 64
2, 32161, Note_on_c, 0, 52, 42
2, 32169, Note_on_c, 0, 52, 0
2, 32176, Note_on_c, 0, 56, 0
2, 32220, Note_on_c, 0, 56, 51
2, 32221, Note_on_c, 0, 52, 51
2, 32253, Note_on_c, 0, 56, 0
2, 32257, Note_on_c, 0, 52, 0
2, 32280, Note_on_c, 0, 68, 70
2, 32281, Note_on_c, 0, 62, 70
2, 32281, Note_on_c, 0, 59, 70
2, 32400, Note_on_c, 0, 56, 50
2, 32401, Note_on_c, 0, 52, 49
2, 32465, Note_on_c, 0, 59, 0
2, 32472, Note_on_c, 0, 68, 0
2, 32472, Note_on_c, 0, 62, 0
2, 32520, Note_on_c, 0, 68, 70
2, 32520, Note_on_c, 0, 59, 70
2, 32520, Note_on_c, 0, 62, 70
2, 32714, Note_on_c, 0, 59, 0
2, 32720, Note_on_c, 0, 62, 0
2, 32721, Note_on_c, 0, 68, 0
2, 32761, Note_on_c, 0, 59, 70
2, 32761, Note_on_c, 0, 68, 70
2, 32761, Note_on_c, 0, 62, 70
2, 33073, Note_on_c, 0, 52, 0
2, 33080, Note_on_c, 0, 56, 0
2, 33121, Note_on_c, 0, 56, 54
2, 33121, Note_on_c, 0, 52, 50
2, 33138, Note_on_c, 0, 52, 0
2, 33144, Note_on_c, 0, 56, 0
2, 33180, Note_on_c, 0, 56, 59
2, 33181, Note_on_c, 0, 52, 53
2, 33193, Note_on_c, 0, 59, 0
2, 33200, Note_on_c, 0, 68, 0
2, 33201, Note_on_c, 0, 62, 0
2, 33209, Note_on_c, 0, 52, 0
2, 33210, Note_on_c, 0, 56, 0
2, 33241, Note_on_c, 0, 62, 70
2, 33241, Note_on_c, 0, 68, 70
2, 33241, Note_on_c, 0, 59, 70
2, 33360, Note_on_c, 0, 56, 64
2, 33361, Note_on_c, 0, 52, 55
2, 33432, Note_on_c, 0, 59, 0
2, 33446, Note_on_c, 0, 62, 0
2, 33446, Note_on_c, 0, 68, 0
2, 33480, Note_on_c, 0, 62, 70
2, 33481, Note_on_c, 0, 59, 70
2, 33481, Note_on_c, 0, 68, 70
2, 33674, Note_on_c, 0, 59, 0
2, 33684, Note_on_c, 0, 68, 0
2, 33688, Note_on_c, 0, 62, 0
2, 33721, Note_on_c, 0, 68, 70
2, 33721, Note_on_c, 0, 62, 70
2, 33721, Note_on_c, 0, 59, 70
2, 33987, Note_on_c, 0, 56, 0
2, 34045, Note_on_c, 0, 52, 0
2, 34081, Note_on_c, 0, 59, 0
2, 34081, Note_on_c, 0, 59, 55
2, 34081, Note_on_c, 0, 55, 42
2, 34093, Note_on_c, 0, 55, 0
2, 34140, Note_on_c, 0, 55, 48
2, 34141, Note_on_c, 0, 59, 0
2, 34141, Note_on_c, 0, 59, 54
2, 34148, Note_on_c, 0, 68, 0
2, 34150, Note_on_c, 0, 62, 0
2, 34159, Note_on_c, 0, 55, 0
2, 34166, Note_on_c, 0, 59, 0
2, 34201, Note_on_c, 0, 62, 70
2, 34201, Note_on_c, 0, 67, 70
2, 34201, Note_on_c, 0, 59, 70
2, 34320, Note_on_c, 0, 59, 0
2, 34321, Note_on_c, 0, 59, 53
2, 34321, Note_on_c, 0, 55, 44
2, 34412, Note_on_c, 0, 62, 0
2, 34414, Note_on_c, 0, 67, 0
2, 34440, Note_on_c, 0, 59, 0
2, 34440, Note_on_c, 0, 67, 70
2, 34440, Note_on_c, 0, 62, 70
2, 34441, Note_on_c, 0, 59, 70
2, 34535, Note_on_c, 0, 55, 0
2, 34560, Note_on_c, 0, 52, 46
2, 34561, Note_on_c, 0, 56, 43
2, 34578, Note_on_c, 0, 52, 0
2, 34579, Note_on_c, 0, 56, 0
2, 34601, Note_on_c, 0, 67, 0
2, 34606, Note_on_c, 0, 59, 0
2, 34610, Note_on_c, 0, 62, 0
2, 34620, Note_on_c, 0, 56, 54
2, 34621, Note_on_c, 0, 52, 57
2, 34653, Note_on_c, 0, 52, 0
2, 34654, Note_on_c, 0, 56, 0
2, 34680, Note_on_c, 0, 62, 70
2, 34681, Note_on_c, 0, 59, 70
2, 34681, Note_on_c, 0, 68, 70
2, 34800, Note_on_c, 0, 56, 51
2, 34800, Note_on_c, 0, 52, 54
2, 35006, Note_on_c, 0, 52, 0
2, 35008, Note_on_c, 0, 56, 0
2, 35041, Note_on_c, 0, 56, 48
2, 35041, Note_on_c, 0, 52, 38
2, 35050, Note_on_c, 0, 52, 0
2, 35058, Note_on_c, 0, 56, 0
2, 35100, Note_on_c, 0, 56, 62
2, 35101, Note_on_c, 0, 52, 51
2, 35113, Note_on_c, 0, 59, 0
2, 35115, Note_on_c, 0, 62, 0
2, 35121, Note_on_c, 0, 68, 0
2, 35135, Note_on_c, 0, 52, 0
2, 35152, Note_on_c, 0, 56, 0
2, 35160, Note_on_c, 0, 62, 70
2, 35161, Note_on_c, 0, 68, 70
2, 35161, Note_on_c, 0, 59, 70
2, 35280, Note_on_c, 0, 56, 57
2, 35281, Note_on_c, 0, 52, 64
2, 35360, Note_on_c, 0, 59, 0
2, 35366, Note_on_c, 0, 62, 0
2, 35371, Note_on_c, 0, 68, 0
2, 35400, Note_on_c, 0, 59, 70
2, 35400, Note_on_c, 0, 68, 70
2, 35400, Note_on_c, 0, 62, 70
2, 35470, Note_on_c, 0, 52, 0
2, 35476, Note_on_c, 0, 56, 0
2, 35520, Note_on_c, 0, 56, 51
2, 35521, Note_on_c, 0, 52, 49
2, 35536, Note_on_c, 0, 52, 0
2, 35538, Note_on_c, 0, 56, 0
2, 35580, Note_on_c, 0, 56, 62
2, 35581, Note_on_c, 0, 52, 52
2, 35596, Note_on_c, 0, 59, 0
2, 35603, Note_on_c, 0, 62, 0
2, 35609, Note_on_c, 0, 68, 0
2, 35637, Note_on_c, 0, 52, 0
2, 35640, Note_on_c, 0, 62, 70
2, 35640, Note_on_c, 0, 59, 70
2, 35640, Note_on_c, 0, 68, 70
2, 35660, Note_on_c, 0, 56, 0
2, 35760, Note_on_c, 0, 56, 59
2, 35761, Note_on_c, 0, 52, 59
2, 35831, Note_on_c, 0, 59, 0
2, 35840, Note_on_c, 0, 62, 0
2, 35845, Note_on_c, 0, 68, 0
2, 35880, Note_on_c, 0, 59, 70
2, 35880, Note_on_c, 0, 68, 70
2, 35880, Note_on_c, 0, 62, 70
2, 35930, Note_on_c, 0, 52, 0
2, 35933, Note_on_c, 0, 56, 0
2, 36001, Note_on_c, 0, 56, 55
2, 36001, Note_on_c, 0, 52, 49
2, 36011, Note_on_c, 0, 52, 0
2, 36018, Note_on_c, 0, 56, 0
2, 36060, Note_on_c, 0, 56, 64
2, 36061, Note_on_c, 0, 52, 54
2, 36071, Note_on_c, 0, 59, 0
2, 36075, Note_on_c, 0, 52, 0
2, 36078, Note_on_c, 0, 56, 0
2, 36080, Note_on_c, 0, 62, 0
2, 36085, Note_on_c, 0, 68, 0
2, 36120, Note_on_c, 0, 62, 70
2, 36121, Note_on_c, 0, 68, 70
2, 36121, Note_on_c, 0, 59, 70
2, 36240, Note_on_c, 0, 56, 69
2, 36241, Note_on_c, 0, 52, 54
2, 36312, Note_on_c, 0, 59, 0
2, 36324, Note_on_c, 0, 62, 0
2, 36327, Note_on_c, 0, 68, 0
2, 36360, Note_on_c, 0, 62, 70
2, 36361, Note_on_c, 0, 68, 70
2, 36361, Note_on_c, 0, 59, 70
2, 36560, Note_on_c, 0, 59, 0
2, 36572, Note_on_c, 0, 62, 0
2, 36578, Note_on_c, 0, 68, 0
2, 36601, Note_on_c, 0, 62, 70
2, 36601, Note_on_c, 0, 59, 70
2, 36601, Note_on_c, 0, 68, 70
2, 36794, Note_on_c, 0, 59, 0
2, 36804, Note_on_c, 0, 62, 0
2, 36807, Note_on_c, 0, 68, 0
2, 36840, Note_on_c, 0, 59, 70
2, 36840, Note_on_c, 0, 68, 70
2, 36840, Note_on_c, 0, 62, 70
2, 36898, Note_on_c, 0, 56, 0
2, 36909, Note_on_c, 0, 52, 0
2, 36961, Note_on_c, 0, 56, 57
2, 36961, Note_on_c, 0, 52, 49
2, 36976, Note_on_c, 0, 52, 0
2, 36978, Note_on_c, 0, 56, 0
2, 37020, Note_on_c, 0, 56, 64
2, 37021, Note_on_c, 0, 52, 54
2, 37035, Note_on_c, 0, 56, 0
2, 37035, Note_on_c, 0, 59, 0
2, 37040, Note_on_c, 0, 52, 0
2, 37046, Note_on_c, 0, 62, 0
2, 37052, Note_on_c, 0, 68, 0
2, 37080, Note_on_c, 0, 62, 70
2, 37081, Note_on_c, 0, 59, 70
2, 37081, Note_on_c, 0, 68, 70
2, 37200, Note_on_c, 0, 56, 69
2, 37201, Note_on_c, 0, 52, 64
2, 37282, Note_on_c, 0, 59, 0
2, 37295, Note_on_c, 0, 62, 0
2, 37299, Note_on_c, 0, 68, 0
2, 37320, Note_on_c, 0, 59, 70
2, 37320, Note_on_c, 0, 68, 70
2, 37320, Note_on_c, 0, 62, 70
2, 37510, Note_on_c, 0, 59, 0
2, 37529, Note_on_c, 0, 62, 0
2, 37533, Note_on_c, 0, 68, 0
2, 37560, Note_on_c, 0, 68, 70
2, 37560, Note_on_c, 0, 62, 70
2, 37560, Note_on_c, 0, 59, 70
2, 37757, Note_on_c, 0, 59, 0
2, 37774, Note_on_c, 0, 62, 0
2, 37776, Note_on_c, 0, 68, 0
2, 37800, Note_on_c, 0, 62, 70
2, 37801, Note_on_c, 0, 59, 70
2, 37801, Note_on_c, 0, 68, 70
2, 37884, Note_on_c, 0, 52, 0
2, 37885, Note_on_c, 0, 56, 0
2, 37921, Note_on_c, 0, 56, 51
2, 37921, Note_on_c, 0, 52, 48
2, 37935, Note_on_c, 0, 52, 0
2, 37940, Note_on_c, 0, 56, 0
2, 37980, Note_on_c, 0, 56, 53
2, 37980, Note_on_c, 0, 52, 55
2, 37995, Note_on_c, 0, 59, 0
2, 38004, Note_on_c, 0, 52, 0
2, 38010, Note_on_c, 0, 62, 0
2, 38013, Note_on_c, 0, 68, 0
2, 38013, Note_on_c, 0, 56, 0
2, 38040, Note_on_c, 0, 62, 70
2, 38041, Note_on_c, 0, 68, 70
2, 38041, Note_on_c, 0, 59, 70
2, 38160, Note_on_c, 0, 56, 62
2, 38161, Note_on_c, 0, 52, 55
2, 38226, Note_on_c, 0, 59, 0
2, 38247, Note_on_c, 0, 62, 0
2, 38252, Note_on_c, 0, 68, 0
2, 38280, Note_on_c, 0, 59, 70
2, 38280, Note_on_c, 0, 68, 70
2, 38280, Note_on_c, 0, 62, 70
2, 38483, Note_on_c, 0, 59, 0
2, 38495, Note_on_c, 0, 62, 0
2, 38499, Note_on_c, 0, 68, 0
2, 38520, Note_on_c, 0, 68, 70
2, 38521, Note_on_c, 0, 62, 70
2, 38521, Note_on_c, 0, 59, 70
2, 38717, Note_on_c, 0, 59, 0
2, 38732, Note_on_c, 0, 62, 0
2, 38739, Note_on_c, 0, 68, 0
2, 38760, Note_on_c, 0, 68, 70
2, 38760, Note_on_c, 0, 62, 70
2, 38760, Note_on_c, 0, 59, 70
2, 38820, Note_on_c, 0, 56, 0
2, 38823, Note_on_c, 0, 52, 0
2, 38824, Note_on_c, 0, 59, 0
2, 38835, Note_on_c, 0, 68, 0
2, 38851, Note_on_c, 0, 62, 0
2, 38881, Note_on_c, 0, 64, 70
2, 38881, Note_on_c, 0, 60, 70
2, 38881, Note_on_c, 0, 67, 70
2, 38881, Note_on_c, 0, 55, 62
2, 38881, Note_on_c, 0, 52, 52
2, 39300, Note_on_c, 0, 64, 0
2, 39305, Note_on_c, 0, 60, 0
2, 39308, Note_on_c, 0, 67, 0
2, 39320, Note_on_c, 0, 55, 0
2, 39339, Note_on_c, 0, 52, 0
2, 39360, Note_on_c, 0, 66, 70
2, 39361, Note_on_c, 0, 62, 70
2, 39361, Note_on_c, 0, 54, 65
2, 39361, Note_on_c, 0, 57, 65
2, 39787, Note_on_c, 0, 54, 0
2, 39801, Note_on_c, 0, 57, 0
2, 39816, Note_on_c, 0, 66, 0
2, 39821, Note_on_c, 0, 62, 0
2, 39841, Note_on_c, 0, 59, 70
2, 39841, Note_on_c, 0, 56, 74
2, 39841, Note_on_c, 0, 52, 54
2, 39841, Note_on_c, 0, 68, 70
2, 39841, Note_on_c, 0, 64, 70
2, 40671, Note_on_c, 0, 56, 0
2, 40673, Note_on_c, 0, 52, 0
2, 40739, Note_on_c, 0, 68, 0
2, 40760, Note_on_c, 0, 59, 0
2, 40773, Note_on_c, 0, 64, 0
2, 40801, Note_on_c, 0, 64, 70
2, 40801, Note_on_c, 0, 67, 70
2, 40801, Note_on_c, 0, 60, 70
2, 40801, Note_on_c, 0, 55, 69
2, 40801, Note_on_c, 0, 52, 53
2, 41215, Note_on_c, 0, 55, 0
2, 41225, Note_on_c, 0, 60, 0
2, 41235, Note_on_c, 0, 64, 0
2, 41245, Note_on_c, 0, 67, 0
2, 41246, Note_on_c, 0, 52, 0
2, 41280, Note_on_c, 0, 66, 70
2, 41281, Note_on_c, 0, 62, 70
2, 41282, Note_on_c, 0, 54, 59
2, 41283, Note_on_c, 0, 57, 69
2, 41715, Note_on_c, 0, 57, 0
2, 41716, Note_on_c, 0, 54, 0
2, 41716, Note_on_c, 0, 66, 0
2, 41721, Note_on_c, 0, 62, 0
2, 41761, Note_on_c, 0, 62, 70
2, 41761, Note_on_c, 0, 52, 55
2, 41761, Note_on_c, 0, 56, 74
2, 41761, Note_on_c, 0, 59, 70
2, 41761, Note_on_c, 0, 68, 70
2, 42667, Note_on_c, 0, 56, 0
2, 42671, Note_on_c, 0, 52, 0
2, 42704, Note_on_c, 0, 62, 0
2, 42705, Note_on_c, 0, 68, 0
2, 42707, Note_on_c, 0, 59, 0
2, 42721, Note_on_c, 0, 50, 49
2, 42721, Note_on_c, 0, 56, 40
2, 42840, Note_on_c, 0, 68, 70
2, 42841, Note_on_c, 0, 62, 70
2, 42841, Note_on_c, 0, 59, 70
2, 42891, Note_on_c, 0, 50, 0
2, 42893, Note_on_c, 0, 56, 0
2, 42961, Note_on_c, 0, 56, 62
2, 42961, Note_on_c, 0, 50, 48
2, 43023, Note_on_c, 0, 59, 0
2, 43027, Note_on_c, 0, 62, 0
2, 43030, Note_on_c, 0, 68, 0
2, 43080, Note_on_c, 0, 62, 70
2, 43081, Note_on_c, 0, 59, 70
2, 43081, Note_on_c, 0, 68, 70
2, 43151, Note_on_c, 0, 50, 0
2, 43159, Note_on_c, 0, 56, 0
2, 43200, Note_on_c, 0, 56, 55
2, 43201, Note_on_c, 0, 50, 47
2, 43215, Note_on_c, 0, 50, 0
2, 43226, Note_on_c, 0, 56, 0
2, 43260, Note_on_c, 0, 56, 57
2, 43261, Note_on_c, 0, 50, 46
2, 43273, Note_on_c, 0, 59, 0
2, 43276, Note_on_c, 0, 62, 0
2, 43283, Note_on_c, 0, 68, 0
2, 43320, Note_on_c, 0, 62, 70
2, 43321, Note_on_c, 0, 50, 0
2, 43321, Note_on_c, 0, 59, 70
2, 43321, Note_on_c, 0, 68, 70
2, 43323, Note_on_c, 0, 56, 0
2, 43441, Note_on_c, 0, 56, 69
2, 43441, Note_on_c, 0, 50, 45
2, 43634, Note_on_c, 0, 50, 0
2, 43640, Note_on_c, 0, 56, 0
2, 43681, Note_on_c, 0, 56, 57
2, 43681, Note_on_c, 0, 50, 51
2, 43760, Note_on_c, 0, 59, 0
2, 43764, Note_on_c, 0, 62, 0
2, 43765, Note_on_c, 0, 68, 0
2, 43800, Note_on_c, 0, 62, 70
2, 43800, Note_on_c, 0, 68, 70
2, 43800, Note_on_c, 0, 59, 70
2, 43856, Note_on_c, 0, 50, 0
2, 43879, Note_on_c, 0, 56, 0
2, 43921, Note_on_c, 0, 56, 53
2, 43921, Note_on_c, 0, 50, 49
2, 43993, Note_on_c, 0, 59, 0
2, 44002, Note_on_c, 0, 68, 0
2, 44006, Note_on_c, 0, 62, 0
2, 44040, Note_on_c, 0, 59, 70
2, 44040, Note_on_c, 0, 68, 70
2, 44040, Note_on_c, 0, 62, 70
2, 44092, Note_on_c, 0, 50, 0
2, 44104, Note_on_c, 0, 56, 0
2, 44160, Note_on_c, 0, 56, 50
2, 44161, Note_on_c, 0, 50, 45
2, 44176, Note_on_c, 0, 50, 0
2, 44187, Note_on_c, 0, 56, 0
2, 44220, Note_on_c, 0, 56, 54
2, 44220, Note_on_c, 0, 50, 49
2, 44245, Note_on_c, 0, 59, 0
2, 44249, Note_on_c, 0, 62, 0
2, 44249, Note_on_c, 0, 68, 0
2, 44280, Note_on_c, 0, 62, 70
2, 44281, Note_on_c, 0, 59, 70
2, 44281, Note_on_c, 0, 68, 70
2, 44316, Note_on_c, 0, 50, 0
2, 44339, Note_on_c, 0, 56, 0
2, 44400, Note_on_c, 0, 56, 65
2, 44400, Note_on_c, 0, 50, 53
2, 44567, Note_on_c, 0, 50, 0
2, 44590, Note_on_c, 0, 56, 0
2, 44641, Note_on_c, 0, 56, 53
2, 44641, Note_on_c, 0, 50, 48
2, 44656, Note_on_c, 0, 50, 0
2, 44663, Note_on_c, 0, 56, 0
2, 44700, Note_on_c, 0, 56, 50
2, 44700, Note_on_c, 0, 50, 49
2, 44717, Note_on_c, 0, 59, 0
2, 44722, Note_on_c, 0, 62, 0
2, 44726, Note_on_c, 0, 68, 0
2, 44760, Note_on_c, 0, 62, 70
2, 44760, Note_on_c, 0, 68, 70
2, 44760, Note_on_c, 0, 59, 70
2, 44846, Note_on_c, 0, 50, 0
2, 44849, Note_on_c, 0, 56, 0
2, 44880, Note_on_c, 0, 56, 59
2, 44880, Note_on_c, 0, 50, 49
2, 44956, Note_on_c, 0, 59, 0
2, 44964, Note_on_c, 0, 68, 0
2, 44964, Note_on_c, 0, 62, 0
2, 45000, Note_on_c, 0, 62, 70
2, 45001, Note_on_c, 0, 59, 70
2, 45001, Note_on_c, 0, 68, 70
2, 45081, Note_on_c, 0, 50, 0
2, 45086, Note_on_c, 0, 56, 0
2, 45120, Note_on_c, 0, 56, 64
2, 45120, Note_on_c, 0, 50, 50
2, 45201, Note_on_c, 0, 59, 0
2, 45206, Note_on_c, 0, 62, 0
2, 45207, Note_on_c, 0, 68, 0
2, 45240, Note_on_c, 0, 59, 70
2, 45240, Note_on_c, 0, 68, 70
2, 45240, Note_on_c, 0, 62, 70
2, 45311, Note_on_c, 0, 50, 0
2, 45319, Note_on_c, 0, 56, 0
2, 45360, Note_on_c, 0, 56, 62
2, 45361, Note_on_c, 0, 50, 49
2, 45546, Note_on_c, 0, 50, 0
2, 45559, Note_on_c, 0, 56, 0
2, 45601, Note_on_c, 0, 56, 64
2, 45601, Note_on_c, 0, 50, 52
2, 45680, Note_on_c, 0, 59, 0
2, 45686, Note_on_c, 0, 68, 0
2, 45688, Note_on_c, 0, 62, 0
2, 45720, Note_on_c, 0, 62, 70
2, 45721, Note_on_c, 0, 68, 70
2, 45721, Note_on_c, 0, 59, 70
2, 45790, Note_on_c, 0, 50, 0
2, 45797, Note_on_c, 0, 56, 0
2, 45840, Note_on_c, 0, 56, 64
2, 45841, Note_on_c, 0, 50, 55
2, 45916, Note_on_c, 0, 59, 0
2, 45923, Note_on_c, 0, 62, 0
2, 45924, Note_on_c, 0, 68, 0
2, 45960, Note_on_c, 0, 59, 70
2, 45960, Note_on_c, 0, 68, 70
2, 45960, Note_on_c, 0, 62, 70
2, 46020, Note_on_c, 0, 56, 0
2, 46026, Note_on_c, 0, 50, 0
2, 46080, Note_on_c, 0, 56, 62
2, 46081, Note_on_c, 0, 50, 49
2, 46103, Note_on_c, 0, 50, 0
2, 46107, Note_on_c, 0, 56, 0
2, 46141, Note_on_c, 0, 56, 57
2, 46141, Note_on_c, 0, 50, 54
2, 46153, Note_on_c, 0, 59, 0
2, 46158, Note_on_c, 0, 62, 0
2, 46162, Note_on_c, 0, 68, 0
2, 46200, Note_on_c, 0, 59, 70
2, 46200, Note_on_c, 0, 68, 70
2, 46200, Note_on_c, 0, 62, 70
2, 46292, Note_on_c, 0, 50, 0
2, 46300, Note_on_c, 0, 56, 0
2, 46320, Note_on_c, 0, 56, 55
2, 46320, Note_on_c, 0, 50, 51
2, 46526, Note_on_c, 0, 50, 0
2, 46528, Note_on_c, 0, 56, 0
2, 46561, Note_on_c, 0, 56, 62
2, 46561, Note_on_c, 0, 50, 51
2, 46641, Note_on_c, 0, 59, 0
2, 46647, Note_on_c, 0, 62, 0
2, 46650, Note_on_c, 0, 68, 0
2, 46680, Note_on_c, 0, 62, 70
2, 46681, Note_on_c, 0, 59, 70
2, 46681, Note_on_c, 0, 68, 70
2, 46760, Note_on_c, 0, 50, 0
2, 46770, Note_on_c, 0, 56, 0
2, 46800, Note_on_c, 0, 56, 54
2, 46801, Note_on_c, 0, 50, 52
2, 46872, Note_on_c, 0, 59, 0
2, 46882, Note_on_c, 0, 68, 0
2, 46884, Note_on_c, 0, 62, 0
2, 46920, Note_on_c, 0, 62, 70
2, 46921, Note_on_c, 0, 59, 70
2, 46921, Note_on_c, 0, 68, 70
2, 46988, Note_on_c, 0, 50, 0
2, 46994, Note_on_c, 0, 56, 0
2, 47040, Note_on_c, 0, 56, 53
2, 47040, Note_on_c, 0, 50, 51
2, 47060, Note_on_c, 0, 50, 0
2, 47066, Note_on_c, 0, 56, 0
2, 47100, Note_on_c, 0, 50, 53
2, 47100, Note_on_c, 0, 56, 59
2, 47120, Note_on_c, 0, 59, 0
2, 47127, Note_on_c, 0, 68, 0
2, 47128, Note_on_c, 0, 62, 0
2, 47160, Note_on_c, 0, 62, 70
2, 47161, Note_on_c, 0, 59, 70
2, 47161, Note_on_c, 0, 68, 70
2, 47196, Note_on_c, 0, 50, 0
2, 47226, Note_on_c, 0, 56, 0
2, 47280, Note_on_c, 0, 50, 53
2, 47280, Note_on_c, 0, 56, 65
2, 47362, Note_on_c, 0, 59, 0
2, 47369, Note_on_c, 0, 62, 0
2, 47371, Note_on_c, 0, 68, 0
2, 47400, Note_on_c, 0, 59, 70
2, 47400, Note_on_c, 0, 68, 70
2, 47400, Note_on_c, 0, 62, 70
2, 47488, Note_on_c, 0, 50, 0
2, 47489, Note_on_c, 0, 56, 0
2, 47521, Note_on_c, 0, 56, 57
2, 47521, Note_on_c, 0, 50, 50
2, 47611, Note_on_c, 0, 59, 0
2, 47613, Note_on_c, 0, 62, 0
2, 47621, Note_on_c, 0, 68, 0
2, 47640, Note_on_c, 0, 68, 70
2, 47641, Note_on_c, 0, 59, 70
2, 47641, Note_on_c, 0, 62, 70
2, 47707, Note_on_c, 0, 50, 0
2, 47716, Note_on_c, 0, 56, 0
2, 47760, Note_on_c, 0, 56, 59
2, 47760, Note_on_c, 0, 50, 52
2, 47837, Note_on_c, 0, 59, 0
2, 47840, Note_on_c, 0, 62, 0
2, 47847, Note_on_c, 0, 68, 0
2, 47880, Note_on_c, 0, 68, 70
2, 47881, Note_on_c, 0, 59, 70
2, 47881, Note_on_c, 0, 62, 70
2, 47946, Note_on_c, 0, 50, 0
2, 47958, Note_on_c, 0, 56, 0
2, 48000, Note_on_c, 0, 50, 51
2, 48001, Note_on_c, 0, 56, 57
2, 48019, Note_on_c, 0, 50, 0
2, 48023, Note_on_c, 0, 56, 0
2, 48060, Note_on_c, 0, 56, 59
2, 48060, Note_on_c, 0, 50, 54
2, 48082, Note_on_c, 0, 59, 0
2, 48085, Note_on_c, 0, 62, 0
2, 48090, Note_on_c, 0, 68, 0
2, 48120, Note_on_c, 0, 62, 70
2, 48120, Note_on_c, 0, 68, 70
2, 48120, Note_on_c, 0, 59, 70
2, 48186, Note_on_c, 0, 50, 0
2, 48205, Note_on_c, 0, 56, 0
2, 48240, Note_on_c, 0, 56, 59
2, 48241, Note_on_c, 0, 50, 53
2, 48325, Note_on_c, 0, 59, 0
2, 48330, Note_on_c, 0, 62, 0
2, 48334, Note_on_c, 0, 68, 0
2, 48360, Note_on_c, 0, 68, 70
2, 48361, Note_on_c, 0, 59, 70
2, 48361, Note_on_c, 0, 62, 70
2, 48441, Note_on_c, 0, 50, 0
2, 48449, Note_on_c, 0, 56, 0
2, 48481, Note_on_c, 0, 56, 62
2, 48481, Note_on_c, 0, 50, 57
2, 48561, Note_on_c, 0, 59, 0
2, 48570, Note_on_c, 0, 68, 0
2, 48571, Note_on_c, 0, 62, 0
2, 48600, Note_on_c, 0, 62, 70
2, 48601, Note_on_c, 0, 68, 70
2, 48601, Note_on_c, 0, 59, 70
2, 48660, Note_on_c, 0, 50, 0
2, 48677, Note_on_c, 0, 56, 0
2, 48720, Note_on_c, 0, 56, 62
2, 48721, Note_on_c, 0, 50, 54
2, 48796, Note_on_c, 0, 59, 0
2, 48801, Note_on_c, 0, 68, 0
2, 48802, Note_on_c, 0, 62, 0
2, 48840, Note_on_c, 0, 68, 70
2, 48841, Note_on_c, 0, 59, 70
2, 48841, Note_on_c, 0, 62, 70
2, 48890, Note_on_c, 0, 50, 0
2, 48913, Note_on_c, 0, 56, 0
2, 48960, Note_on_c, 0, 50, 50
2, 48961, Note_on_c, 0, 56, 59
2, 48976, Note_on_c, 0, 50, 0
2, 48980, Note_on_c, 0, 56, 0
2, 49020, Note_on_c, 0, 56, 57
2, 49021, Note_on_c, 0, 50, 52
2, 49050, Note_on_c, 0, 59, 0
2, 49051, Note_on_c, 0, 62, 0
2, 49053, Note_on_c, 0, 68, 0
2, 49080, Note_on_c, 0, 59, 70
2, 49081, Note_on_c, 0, 68, 70
2, 49081, Note_on_c, 0, 62, 70
2, 49160, Note_on_c, 0, 50, 0
2, 49165, Note_on_c, 0, 56, 0
2, 49200, Note_on_c, 0, 50, 53
2, 49200, Note_on_c, 0, 56, 65
2, 49285, Note_on_c, 0, 62, 0
2, 49287, Note_on_c, 0, 68, 0
2, 49291, Note_on_c, 0, 59, 0
2, 49320, Note_on_c, 0, 62, 70
2, 49321, Note_on_c, 0, 59, 70
2, 49321, Note_on_c, 0, 68, 70
2, 49394, Note_on_c, 0, 50, 0
2, 49399, Note_on_c, 0, 56, 0
2, 49441, Note_on_c, 0, 56, 65
2, 49441, Note_on_c, 0, 50, 57
2, 49526, Note_on_c, 0, 59, 0
2, 49526, Note_on_c, 0, 68, 0
2, 49526, Note_on_c, 0, 62, 0
2, 49560, Note_on_c, 0, 68, 70
2, 49560, Note_on_c, 0, 62, 70
2, 49560, Note_on_c, 0, 59, 70
2, 49607, Note_on_c, 0, 50, 0
2, 49623, Note_on_c, 0, 56, 0
2, 49680, Note_on_c, 0, 56, 62
2, 49681, Note_on_c, 0, 50, 54
2, 49770, Note_on_c, 0, 59, 0
2, 49771, Note_on_c, 0, 62, 0
2, 49775, Note_on_c, 0, 68, 0
2, 49800, Note_on_c, 0, 68, 70
2, 49801, Note_on_c, 0, 59, 70
2, 49801, Note_on_c, 0, 62, 70
2, 49874, Note_on_c, 0, 50, 0
2, 49883, Note_on_c, 0, 56, 0
2, 49920, Note_on_c, 0, 56, 54
2, 49920, Note_on_c, 0, 50, 50
2, 49936, Note_on_c, 0, 50, 0
2, 49941, Note_on_c, 0, 56, 0
2, 49980, Note_on_c, 0, 56, 62
2, 49981, Note_on_c, 0, 50, 50
2, 50005, Note_on_c, 0, 59, 0
2, 50006, Note_on_c, 0, 62, 0
2, 50007, Note_on_c, 0, 68, 0
2, 50040, Note_on_c, 0, 68, 70
2, 50041, Note_on_c, 0, 62, 70
2, 50041, Note_on_c, 0, 59, 70
2, 50093, Note_on_c, 0, 50, 0
2, 50103, Note_on_c, 0, 56, 0
2, 50160, Note_on_c, 0, 56, 64
2, 50161, Note_on_c, 0, 50, 59
2, 50241, Note_on_c, 0, 62, 0
2, 50242, Note_on_c, 0, 59, 0
2, 50245, Note_on_c, 0, 68, 0
2, 50280, Note_on_c, 0, 59, 70
2, 50280, Note_on_c, 0, 62, 70
2, 50280, Note_on_c, 0, 68, 70
2, 50305, Note_on_c, 0, 56, 0
2, 50306, Note_on_c, 0, 50, 0
2, 50401, Note_on_c, 0, 56, 62
2, 50401, Note_on_c, 0, 50, 51
2, 50481, Note_on_c, 0, 59, 0
2, 50485, Note_on_c, 0, 62, 0
2, 50486, Note_on_c, 0, 68, 0
2, 50520, Note_on_c, 0, 68, 70
2, 50521, Note_on_c, 0, 62, 70
2, 50521, Note_on_c, 0, 59, 70
2, 50600, Note_on_c, 0, 50, 0
2, 50610, Note_on_c, 0, 56, 0
2, 50640, Note_on_c, 0, 56, 54
2, 50640, Note_on_c, 0, 50, 52
2, 50715, Note_on_c, 0, 59, 0
2, 50716, Note_on_c, 0, 62, 0
2, 50720, Note_on_c, 0, 68, 0
2, 50760, Note_on_c, 0, 68, 70
2, 50761, Note_on_c, 0, 59, 70
2, 50761, Note_on_c, 0, 62, 70
2, 50828, Note_on_c, 0, 50, 0
2, 50834, Note_on_c, 0, 56, 0
2, 50880, Note_on_c, 0, 56, 53
2, 50881, Note_on_c, 0, 50, 51
2, 50900, Note_on_c, 0, 50, 0
2, 50906, Note_on_c, 0, 56, 0
2, 50940, Note_on_c, 0, 50, 53
2, 50940, Note_on_c, 0, 56, 59
2, 50950, Note_on_c, 0, 59, 0
2, 50961, Note_on_c, 0, 62, 0
2, 50961, Note_on_c, 0, 68, 0
2, 51000, Note_on_c, 0, 62, 70
2, 51001, Note_on_c, 0, 59, 70
2, 51001, Note_on_c, 0, 68, 70
2, 51036, Note_on_c, 0, 50, 0
2, 51066, Note_on_c, 0, 56, 0
2, 51120, Note_on_c, 0, 50, 53
2, 51121, Note_on_c, 0, 56, 65
2, 51328, Note_on_c, 0, 50, 0
2, 51329, Note_on_c, 0, 56, 0
2, 51361, Note_on_c, 0, 56, 57
2, 51361, Note_on_c, 0, 50, 50
2, 51450, Note_on_c, 0, 59, 0
2, 51455, Note_on_c, 0, 62, 0
2, 51456, Note_on_c, 0, 68, 0
2, 51480, Note_on_c, 0, 62, 70
2, 51480, Note_on_c, 0, 68, 70
2, 51480, Note_on_c, 0, 59, 70
2, 51547, Note_on_c, 0, 50, 0
2, 51556, Note_on_c, 0, 56, 0
2, 51600, Note_on_c, 0, 56, 59
2, 51601, Note_on_c, 0, 50, 52
2, 51685, Note_on_c, 0, 59, 0
2, 51686, Note_on_c, 0, 62, 0
2, 51690, Note_on_c, 0, 68, 0
2, 51720, Note_on_c, 0, 59, 70
2, 51720, Note_on_c, 0, 62, 70
2, 51720, Note_on_c, 0, 68, 70
2, 51786, Note_on_c, 0, 50, 0
2, 51798, Note_on_c, 0, 56, 0
2, 51840, Note_on_c, 0, 50, 51
2, 51841, Note_on_c, 0, 56, 57
2, 51859, Note_on_c, 0, 50, 0
2, 51863, Note_on_c, 0, 56, 0
2, 51900, Note_on_c, 0, 56, 59
2, 51901, Note_on_c, 0, 50, 54
2, 51907, Note_on_c, 0, 59, 0
2, 51913, Note_on_c, 0, 62, 0
2, 51920, Note_on_c, 0, 68, 0
2, 51960, Note_on_c, 0, 62, 70
2, 51961, Note_on_c, 0, 59, 70
2, 51961, Note_on_c, 0, 68, 70
2, 52026, Note_on_c, 0, 50, 0
2, 52045, Note_on_c, 0, 56, 0
2, 52080, Note_on_c, 0, 56, 59
2, 52080, Note_on_c, 0, 50, 53
2, 52281, Note_on_c, 0, 50, 0
2, 52289, Note_on_c, 0, 56, 0
2, 52321, Note_on_c, 0, 56, 62
2, 52321, Note_on_c, 0, 50, 57
2, 52400, Note_on_c, 0, 59, 0
2, 52406, Note_on_c, 0, 68, 0
2, 52406, Note_on_c, 0, 62, 0
2, 52440, Note_on_c, 0, 62, 70
2, 52440, Note_on_c, 0, 68, 70
2, 52440, Note_on_c, 0, 59, 70
2, 52500, Note_on_c, 0, 50, 0
2, 52517, Note_on_c, 0, 56, 0
2, 52560, Note_on_c, 0, 56, 62
2, 52561, Note_on_c, 0, 50, 54
2, 52624, Note_on_c, 0, 59, 0
2, 52634, Note_on_c, 0, 68, 0
2, 52637, Note_on_c, 0, 62, 0
2, 52680, Note_on_c, 0, 62, 70
2, 52681, Note_on_c, 0, 59, 70
2, 52681, Note_on_c, 0, 68, 70
2, 52730, Note_on_c, 0, 50, 0
2, 52753, Note_on_c, 0, 56, 0
2, 52800, Note_on_c, 0, 50, 50
2, 52800, Note_on_c, 0, 56, 59
2, 52816, Note_on_c, 0, 50, 0
2, 52820, Note_on_c, 0, 56, 0
2, 52860, Note_on_c, 0, 56, 57
2, 52861, Note_on_c, 0, 50, 52
2, 52881, Note_on_c, 0, 59, 0
2, 52895, Note_on_c, 0, 62, 0
2, 52896, Note_on_c, 0, 68, 0
2, 52920, Note_on_c, 0, 68, 70
2, 52920, Note_on_c, 0, 62, 70
2, 52920, Note_on_c, 0, 59, 70
2, 53000, Note_on_c, 0, 50, 0
2, 53005, Note_on_c, 0, 56, 0
2, 53040, Note_on_c, 0, 50, 53
2, 53041, Note_on_c, 0, 56, 65
2, 53122, Note_on_c, 0, 59, 0
2, 53127, Note_on_c, 0, 62, 0
2, 53131, Note_on_c, 0, 68, 0
2, 53160, Note_on_c, 0, 68, 70
2, 53161, Note_on_c, 0, 59, 70
2, 53161, Note_on_c, 0, 62, 70
2, 53234, Note_on_c, 0, 50, 0
2, 53239, Note_on_c, 0, 56, 0
2, 53281, Note_on_c, 0, 56, 65
2, 53281, Note_on_c, 0, 50, 57
2, 53350, Note_on_c, 0, 59, 0
2, 53367, Note_on_c, 0, 62, 0
2, 53368, Note_on_c, 0, 68, 0
2, 53400, Note_on_c, 0, 68, 70
2, 53401, Note_on_c, 0, 62, 70
2, 53401, Note_on_c, 0, 59, 70
2, 53447, Note_on_c, 0, 50, 0
2, 53463, Note_on_c, 0, 56, 0
2, 53520, Note_on_c, 0, 56, 62
2, 53521, Note_on_c, 0, 50, 54
2, 53586, Note_on_c, 0, 59, 0
2, 53587, Note_on_c, 0, 62, 0
2, 53595, Note_on_c, 0, 68, 0
2, 53640, Note_on_c, 0, 62, 70
2, 53641, Note_on_c, 0, 68, 70
2, 53641, Note_on_c, 0, 59, 70
2, 53713, Note_on_c, 0, 50, 0
2, 53722, Note_on_c, 0, 56, 0
2, 53760, Note_on_c, 0, 56, 54
2, 53761, Note_on_c, 0, 50, 50
2, 53776, Note_on_c, 0, 50, 0
2, 53781, Note_on_c, 0, 56, 0
2, 53820, Note_on_c, 0, 56, 62
2, 53820, Note_on_c, 0, 50, 50
2, 53825, Note_on_c, 0, 59, 0
2, 53839, Note_on_c, 0, 62, 0
2, 53841, Note_on_c, 0, 68, 0
2, 53880, Note_on_c, 0, 59, 70
2, 53880, Note_on_c, 0, 62, 70
2, 53880, Note_on_c, 0, 68, 70
2, 53934, Note_on_c, 0, 50, 0
2, 53944, Note_on_c, 0, 56, 0
2, 53988, Note_on_c, 0, 68, 0
2, 53990, Note_on_c, 0, 62, 0
2, 53993, Note_on_c, 0, 59, 0
2, 54000, Note_on_c, 0, 80, 80
2, 54001, Note_on_c, 0, 74, 80
2, 54001, Note_on_c, 0, 56, 64
2, 54001, Note_on_c, 0, 50, 59
2, 54029, Note_on_c, 0, 74, 0
2, 54029, Note_on_c, 0, 80, 0
2, 54060, Note_on_c, 0, 80, 80
2, 54061, Note_on_c, 0, 74, 80
2, 54086, Note_on_c, 0, 74, 0
2, 54090, Note_on_c, 0, 80, 0
2, 54120, Note_on_c, 0, 80, 80
2, 54121, Note_on_c, 0, 74, 80
2, 54146, Note_on_c, 0, 56, 0
2, 54150, Note_on_c, 0, 50, 0
2, 54150, Note_on_c, 0, 80, 0
2, 54150, Note_on_c, 0, 74, 0
2, 54180, Note_on_c, 0, 80, 80
2, 54181, Note_on_c, 0, 74, 80
2, 54208, Note_on_c, 0, 74, 0
2, 54211, Note_on_c, 0, 80, 0
2, 54241, Note_on_c, 0, 56, 64
2, 54241, Note_on_c, 0, 52, 42
2, 54248, Note_on_c, 0, 52, 0
2, 54256, Note_on_c, 0, 56, 0
2, 54300, Note_on_c, 0, 56, 51
2, 54301, Note_on_c, 0, 52, 51
2, 54332, Note_on_c, 0, 56, 0
2, 54336, Note_on_c, 0, 52, 0
2, 54360, Note_on_c, 0, 68, 70
2, 54361, Note_on_c, 0, 62, 70
2, 54361, Note_on_c, 0, 59, 70
2, 54480, Note_on_c, 0, 56, 50
2, 54481, Note_on_c, 0, 52, 49
2, 54541, Note_on_c, 0, 59, 0
2, 54545, Note_on_c, 0, 62, 0
2, 54550, Note_on_c, 0, 68, 0
2, 54600, Note_on_c, 0, 62, 70
2, 54600, Note_on_c, 0, 59, 70
2, 54600, Note_on_c, 0, 68, 70
2, 54799, Note_on_c, 0, 59, 0
2, 54809, Note_on_c, 0, 62, 0
2, 54814, Note_on_c, 0, 68, 0
2, 54840, Note_on_c, 0, 68, 70
2, 54841, Note_on_c, 0, 62, 70
2, 54841, Note_on_c, 0, 59, 70
2, 55040, Note_on_c, 0, 59, 0
2, 55048, Note_on_c, 0, 62, 0
2, 55053, Note_on_c, 0, 68, 0
2, 55080, Note_on_c, 0, 59, 70
2, 55080, Note_on_c, 0, 62, 70
2, 55080, Note_on_c, 0, 68, 70
2, 55152, Note_on_c, 0, 52, 0
2, 55160, Note_on_c, 0, 56, 0
2, 55201, Note_on_c, 0, 56, 54
2, 55201, Note_on_c, 0, 52, 50
2, 55217, Note_on_c, 0, 52, 0
2, 55223, Note_on_c, 0, 56, 0
2, 55260, Note_on_c, 0, 56, 59
2, 55260, Note_on_c, 0, 52, 53
2, 55271, Note_on_c, 0, 59, 0
2, 55289, Note_on_c, 0, 62, 0
2, 55289, Note_on_c, 0, 52, 0
2, 55290, Note_on_c, 0, 56, 0
2, 55297, Note_on_c, 0, 68, 0
2, 55320, Note_on_c, 0, 68, 70
2, 55321, Note_on_c, 0, 62, 70
2, 55321, Note_on_c, 0, 59, 70
2, 55440, Note_on_c, 0, 56, 64
2, 55441, Note_on_c, 0, 52, 55
2, 55510, Note_on_c, 0, 59, 0
2, 55521, Note_on_c, 0, 62, 0
2, 55524, Note_on_c, 0, 68, 0
2, 55560, Note_on_c, 0, 68, 70
2, 55561, Note_on_c, 0, 59, 70
2, 55561, Note_on_c, 0, 62, 70
2, 55760, Note_on_c, 0, 59, 0
2, 55767, Note_on_c, 0, 62, 0
2, 55771, Note_on_c, 0, 68, 0
2, 55800, Note_on_c, 0, 68, 70
2, 55801, Note_on_c, 0, 62, 70
2, 55801, Note_on_c, 0, 59, 70
2, 56009, Note_on_c, 0, 59, 0
2, 56009, Note_on_c, 0, 62, 0
2, 56014, Note_on_c, 0, 68, 0
2, 56040, Note_on_c, 0, 59, 70
2, 56040, Note_on_c, 0, 62, 70
2, 56040, Note_on_c, 0, 68, 70
2, 56070, Note_on_c, 0, 56, 0
2, 56125, Note_on_c, 0, 52, 0
2, 56161, Note_on_c, 0, 59, 0
2, 56161, Note_on_c, 0, 59, 55
2, 56161, Note_on_c, 0, 55, 42
2, 56168, Note_on_c, 0, 62, 0
2, 56170, Note_on_c, 0, 68, 0
2, 56172, Note_on_c, 0, 55, 0
2, 56180, Note_on_c, 0, 59, 0
2, 56220, Note_on_c, 0, 55, 48
2, 56221, Note_on_c, 0, 59, 54
2, 56239, Note_on_c, 0, 55, 0
2, 56246, Note_on_c, 0, 59, 0
2, 56280, Note_on_c, 0, 67, 70
2, 56281, Note_on_c, 0, 62, 70
2, 56281, Note_on_c, 0, 59, 70
2, 56400, Note_on_c, 0, 59, 0
2, 56401, Note_on_c, 0, 59, 53
2, 56401, Note_on_c, 0, 55, 44
2, 56491, Note_on_c, 0, 62, 0
2, 56496, Note_on_c, 0, 67, 0
2, 56520, Note_on_c, 0, 59, 0
2, 56520, Note_on_c, 0, 59, 70
2, 56520, Note_on_c, 0, 62, 70
2, 56521, Note_on_c, 0, 67, 70
2, 56615, Note_on_c, 0, 55, 0
2, 56640, Note_on_c, 0, 52, 46
2, 56641, Note_on_c, 0, 56, 43
2, 56657, Note_on_c, 0, 52, 0
2, 56658, Note_on_c, 0, 56, 0
2, 56666, Note_on_c, 0, 67, 0
2, 56676, Note_on_c, 0, 59, 0
2, 56678, Note_on_c, 0, 62, 0
2, 56700, Note_on_c, 0, 56, 54
2, 56701, Note_on_c, 0, 52, 57
2, 56732, Note_on_c, 0, 52, 0
2, 56734, Note_on_c, 0, 56, 0
2, 56760, Note_on_c, 0, 68, 70
2, 56761, Note_on_c, 0, 62, 70
2, 56761, Note_on_c, 0, 59, 70
2, 56880, Note_on_c, 0, 56, 51
2, 56881, Note_on_c, 0, 52, 54
2, 56950, Note_on_c, 0, 59, 0
2, 56953, Note_on_c, 0, 62, 0
2, 56961, Note_on_c, 0, 68, 0
2, 57000, Note_on_c, 0, 68, 70
2, 57001, Note_on_c, 0, 59, 70
2, 57001, Note_on_c, 0, 62, 70
2, 57086, Note_on_c, 0, 52, 0
2, 57087, Note_on_c, 0, 56, 0
2, 57121, Note_on_c, 0, 56, 48
2, 57121, Note_on_c, 0, 52, 38
2, 57130, Note_on_c, 0, 52, 0
2, 57137, Note_on_c, 0, 56, 0
2, 57180, Note_on_c, 0, 56, 62
2, 57181, Note_on_c, 0, 52, 51
2, 57191, Note_on_c, 0, 62, 0
2, 57194, Note_on_c, 0, 59, 0
2, 57206, Note_on_c, 0, 68, 0
2, 57215, Note_on_c, 0, 52, 0
2, 57231, Note_on_c, 0, 56, 0
2, 57240, Note_on_c, 0, 68, 70
2, 57241, Note_on_c, 0, 62, 70
2, 57241, Note_on_c, 0, 59, 70
2, 57360, Note_on_c, 0, 56, 57
2, 57361, Note_on_c, 0, 52, 64
2, 57431, Note_on_c, 0, 62, 0
2, 57433, Note_on_c, 0, 59, 0
2, 57443, Note_on_c, 0, 68, 0
2, 57480, Note_on_c, 0, 68, 70
2, 57481, Note_on_c, 0, 59, 70
2, 57481, Note_on_c, 0, 62, 70
2, 57550, Note_on_c, 0, 52, 0
2, 57556, Note_on_c, 0, 56, 0
2, 57600, Note_on_c, 0, 56, 51
2, 57601, Note_on_c, 0, 52, 49
2, 57616, Note_on_c, 0, 52, 0
2, 57617, Note_on_c, 0, 56, 0
2, 57660, Note_on_c, 0, 56, 62
2, 57661, Note_on_c, 0, 52, 52
2, 57669, Note_on_c, 0, 62, 0
2, 57672, Note_on_c, 0, 59, 0
2, 57681, Note_on_c, 0, 68, 0
2, 57716, Note_on_c, 0, 52, 0
2, 57720, Note_on_c, 0, 68, 70
2, 57720, Note_on_c, 0, 59, 70
2, 57720, Note_on_c, 0, 62, 70
2, 57736, Note_on_c, 0, 56, 0
2, 57840, Note_on_c, 0, 56, 59
2, 57841, Note_on_c, 0, 52, 59
2, 57908, Note_on_c, 0, 59, 0
2, 57909, Note_on_c, 0, 62, 0
2, 57915, Note_on_c, 0, 68, 0
2, 57960, Note_on_c, 0, 68, 70
2, 57961, Note_on_c, 0, 59, 70
2, 57961, Note_on_c, 0, 62, 70
2, 58011, Note_on_c, 0, 52, 0
2, 58012, Note_on_c, 0, 56, 0
2, 58081, Note_on_c, 0, 56, 55
2, 58081, Note_on_c, 0, 52, 49
2, 58091, Note_on_c, 0, 52, 0
2, 58097, Note_on_c, 0, 56, 0
2, 58140, Note_on_c, 0, 56, 64
2, 58140, Note_on_c, 0, 52, 54
2, 58144, Note_on_c, 0, 59, 0
2, 58146, Note_on_c, 0, 62, 0
2, 58155, Note_on_c, 0, 52, 0
2, 58157, Note_on_c, 0, 68, 0
2, 58157, Note_on_c, 0, 56, 0
2, 58200, Note_on_c, 0, 68, 70
2, 58201, Note_on_c, 0, 59, 70
2, 58201, Note_on_c, 0, 62, 70
2, 58320, Note_on_c, 0, 56, 69
2, 58321, Note_on_c, 0, 52, 54
2, 58396, Note_on_c, 0, 59, 0
2, 58403, Note_on_c, 0, 62, 0
2, 58413, Note_on_c, 0, 68, 0
2, 58440, Note_on_c, 0, 68, 70
2, 58441, Note_on_c, 0, 59, 70
2, 58441, Note_on_c, 0, 62, 70
2, 58635, Note_on_c, 0, 59, 0
2, 58640, Note_on_c, 0, 62, 0
2, 58646, Note_on_c, 0, 68, 0
2, 58680, Note_on_c, 0, 68, 70
2, 58681, Note_on_c, 0, 62, 70
2, 58681, Note_on_c, 0, 59, 70
2, 58871, Note_on_c, 0, 59, 0
2, 58880, Note_on_c, 0, 62, 0
2, 58889, Note_on_c, 0, 68, 0
2, 58920, Note_on_c, 0, 59, 70
2, 58920, Note_on_c, 0, 62, 70
2, 58920, Note_on_c, 0, 68, 70
2, 58977, Note_on_c, 0, 56, 0
2, 58988, Note_on_c, 0, 52, 0
2, 59041, Note_on_c, 0, 56, 57
2, 59041, Note_on_c, 0, 52, 49
2, 59056, Note_on_c, 0, 52, 0
2, 59057, Note_on_c, 0, 56, 0
2, 59100, Note_on_c, 0, 56, 64
2, 59101, Note_on_c, 0, 52, 54
2, 59106, Note_on_c, 0, 62, 0
2, 59107, Note_on_c, 0, 59, 0
2, 59115, Note_on_c, 0, 56, 0
2, 59120, Note_on_c, 0, 52, 0
2, 59125, Note_on_c, 0, 68, 0
2, 59160, Note_on_c, 0, 68, 70
2, 59161, Note_on_c, 0, 62, 70
2, 59161, Note_on_c, 0, 59, 70
2, 59280, Note_on_c, 0, 56, 69
2, 59281, Note_on_c, 0, 52, 64
2, 59351, Note_on_c, 0, 59, 0
2, 59355, Note_on_c, 0, 62, 0
2, 59368, Note_on_c, 0, 68, 0
2, 59400, Note_on_c, 0, 68, 70
2, 59401, Note_on_c, 0, 59, 70
2, 59401, Note_on_c, 0, 62, 70
2, 59602, Note_on_c, 0, 59, 0
2, 59609, Note_on_c, 0, 62, 0
2, 59614, Note_on_c, 0, 68, 0
2, 59640, Note_on_c, 0, 62, 70
2, 59641, Note_on_c, 0, 68, 70
2, 59641, Note_on_c, 0, 59, 70
2, 59823, Note_on_c, 0, 59, 0
2, 59836, Note_on_c, 0, 62, 0
2, 59836, Note_on_c, 0, 68, 0
2, 59880, Note_on_c, 0, 62, 70
2, 59881, Note_on_c, 0, 59, 70
2, 59881, Note_on_c, 0, 68, 70
2, 59963, Note_on_c, 0, 52, 0
2, 59965, Note_on_c, 0, 56, 0
2, 60001, Note_on_c, 0, 56, 51
2, 60001, Note_on_c, 0, 52, 48
2, 60015, Note_on_c, 0, 52, 0
2, 60020, Note_on_c, 0, 56, 0
2, 60060, Note_on_c, 0, 56, 53
2, 60060, Note_on_c, 0, 52, 55
2, 60075, Note_on_c, 0, 59, 0
2, 60084, Note_on_c, 0, 52, 0
2, 60086, Note_on_c, 0, 68, 0
2, 60089, Note_on_c, 0, 62, 0
2, 60092, Note_on_c, 0, 56, 0
2, 60120, Note_on_c, 0, 62, 70
2, 60121, Note_on_c, 0, 68, 70
2, 60121, Note_on_c, 0, 59, 70
2, 60240, Note_on_c, 0, 56, 62
2, 60241, Note_on_c, 0, 52, 55
2, 60316, Note_on_c, 0, 59, 0
2, 60328, Note_on_c, 0, 68, 0
2, 60329, Note_on_c, 0, 62, 0
2, 60360, Note_on_c, 0, 59, 70
2, 60360, Note_on_c, 0, 62, 70
2, 60360, Note_on_c, 0, 68, 70
2, 60544, Note_on_c, 0, 59, 0
2, 60555, Note_on_c, 0, 68, 0
2, 60556, Note_on_c, 0, 62, 0
2, 60600, Note_on_c, 0, 62, 70
2, 60601, Note_on_c, 0, 68, 70
2, 60601, Note_on_c, 0, 59, 70
2, 60786, Note_on_c, 0, 59, 0
2, 60800, Note_on_c, 0, 68, 0
2, 60803, Note_on_c, 0, 62, 0
2, 60840, Note_on_c, 0, 62, 70
2, 60841, Note_on_c, 0, 68, 70
2, 60841, Note_on_c, 0, 59, 70
2, 60891, Note_on_c, 0, 59, 0
2, 60900, Note_on_c, 0, 56, 0
2, 60902, Note_on_c, 0, 52, 0
2, 60908, Note_on_c, 0, 68, 0
2, 60918, Note_on_c, 0, 62, 0
2, 60961, Note_on_c, 0, 64, 70
2, 60961, Note_on_c, 0, 60, 70
2, 60961, Note_on_c, 0, 67, 70
2, 60961, Note_on_c, 0, 55, 62
2, 60961, Note_on_c, 0, 52, 52
2, 61391, Note_on_c, 0, 64, 0
2, 61398, Note_on_c, 0, 60, 0
2, 61400, Note_on_c, 0, 55, 0
2, 61407, Note_on_c, 0, 67, 0
2, 61418, Note_on_c, 0, 52, 0
2, 61440, Note_on_c, 0, 62, 70
2, 61441, Note_on_c, 0, 66, 70
2, 61441, Note_on_c, 0, 54, 65
2, 61441, Note_on_c, 0, 57, 65
2, 61848, Note_on_c, 0, 66, 0
2, 61867, Note_on_c, 0, 54, 0
2, 61868, Note_on_c, 0, 57, 0
2, 61871, Note_on_c, 0, 62, 0
2, 61921, Note_on_c, 0, 56, 74
2, 61921, Note_on_c, 0, 52, 54
2, 61921, Note_on_c, 0, 59, 70
2, 61921, Note_on_c, 0, 64, 70
2, 61921, Note_on_c, 0, 68, 70
2, 62755, Note_on_c, 0, 56, 0
2, 62756, Note_on_c, 0, 52, 0
2, 62827, Note_on_c, 0, 59, 0
2, 62828, Note_on_c, 0, 68, 0
2, 62837, Note_on_c, 0, 64, 0
2, 62881, Note_on_c, 0, 64, 70
2, 62881, Note_on_c, 0, 67, 70
2, 62881, Note_on_c, 0, 60, 70
2, 62881, Note_on_c, 0, 55, 62
2, 62881, Note_on_c, 0, 52, 52
2, 63308, Note_on_c, 0, 64, 0
2, 63315, Note_on_c, 0, 60, 0
2, 63320, Note_on_c, 0, 55, 0
2, 63326, Note_on_c, 0, 67, 0
2, 63338, Note_on_c, 0, 52, 0
2, 63360, Note_on_c, 0, 66, 70
2, 63361, Note_on_c, 0, 62, 70
2, 63361, Note_on_c, 0, 54, 65
2, 63361, Note_on_c, 0, 57, 65
2, 63787, Note_on_c, 0, 54, 0
2, 63788, Note_on_c, 0, 57, 0
2, 63791, Note_on_c, 0, 62, 0
2, 63792, Note_on_c, 0, 66, 0
2, 63841, Note_on_c, 0, 56, 74
2, 63841, Note_on_c, 0, 52, 54
2, 63841, Note_on_c, 0, 62, 70
2, 63841, Note_on_c, 0, 68, 70
2, 63841, Note_on_c, 0, 59, 70
2, 64671, Note_on_c, 0, 56, 0
2, 64672, Note_on_c, 0, 52, 0
2, 64752, Note_on_c, 0, 59, 0
2, 64766, Note_on_c, 0, 68, 0
2, 64770, Note_on_c, 0, 62, 0
2, 64801, Note_on_c, 0, 64, 70
2, 64801, Note_on_c, 0, 67, 70
2, 64801, Note_on_c, 0, 60, 70
2, 64801, Note_on_c, 0, 55, 62
2, 64801, Note_on_c, 0, 52, 52
2, 65216, Note_on_c, 0, 60, 0
2, 65222, Note_on_c, 0, 64, 0
2, 65227, Note_on_c, 0, 67, 0
2, 65240, Note_on_c, 0, 55, 0
2, 65258, Note_on_c, 0, 52, 0
2, 65280, Note_on_c, 0, 66, 70
2, 65281, Note_on_c, 0, 62, 70
2, 65281, Note_on_c, 0, 54, 65
2, 65281, Note_on_c, 0, 57, 65
2, 65690, Note_on_c, 0, 66, 0
2, 65707, Note_on_c, 0, 62, 0
2, 65707, Note_on_c, 0, 54, 0
2, 65708, Note_on_c, 0, 57, 0
2, 65761, Note_on_c, 0, 56, 74
2, 65761, Note_on_c, 0, 52, 54
2, 65761, Note_on_c, 0, 59, 70
2, 65761, Note_on_c, 0, 68, 70
2, 65761, Note_on_c, 0, 62, 70
2, 66570, Note_on_c, 0, 68, 0
2, 66575, Note_on_c, 0, 59, 0
2, 66576, Note_on_c, 0, 62, 0
2, 66591, Note_on_c, 0, 56, 0
2, 66592, Note_on_c, 0, 52, 0
2, 66721, Note_on_c, 0, 56, 69
2, 66721, Note_on_c, 0, 50, 50
2, 66840, Note_on_c, 0, 68, 70
2, 66841, Note_on_c, 0, 62, 70
2, 66841, Note_on_c, 0, 59, 70
2, 66904, Note_on_c, 0, 50, 0
2, 66910, Note_on_c, 0, 56, 0
2, 66960, Note_on_c, 0, 56, 54
2, 66961, Note_on_c, 0, 50, 49
2, 67033, Note_on_c, 0, 59, 0
2, 67036, Note_on_c, 0, 68, 0
2, 67040, Note_on_c, 0, 62, 0
2, 67080, Note_on_c, 0, 62, 70
2, 67081, Note_on_c, 0, 59, 70
2, 67081, Note_on_c, 0, 68, 70
2, 67165, Note_on_c, 0, 50, 0
2, 67170, Note_on_c, 0, 56, 0
2, 67200, Note_on_c, 0, 56, 51
2, 67200, Note_on_c, 0, 50, 48
2, 67224, Note_on_c, 0, 50, 0
2, 67226, Note_on_c, 0, 56, 0
2, 67260, Note_on_c, 0, 56, 57
2, 67261, Note_on_c, 0, 50, 48
2, 67277, Note_on_c, 0, 59, 0
2, 67289, Note_on_c, 0, 68, 0
2, 67291, Note_on_c, 0, 62, 0
2, 67320, Note_on_c, 0, 59, 70
2, 67320, Note_on_c, 0, 68, 70
2, 67320, Note_on_c, 0, 62, 70
2, 67399, Note_on_c, 0, 50, 0
2, 67405, Note_on_c, 0, 56, 0
2, 67440, Note_on_c, 0, 56, 57
2, 67441, Note_on_c, 0, 50, 49
2, 67639, Note_on_c, 0, 50, 0
2, 67644, Note_on_c, 0, 56, 0
2, 67681, Note_on_c, 0, 56, 64
2, 67681, Note_on_c, 0, 50, 49
2, 67761, Note_on_c, 0, 59, 0
2, 67767, Note_on_c, 0, 68, 0
2, 67770, Note_on_c, 0, 62, 0
2, 67800, Note_on_c, 0, 62, 70
2, 67801, Note_on_c, 0, 68, 70
2, 67801, Note_on_c, 0, 59, 70
2, 67859, Note_on_c, 0, 50, 0
2, 67874, Note_on_c, 0, 56, 0
2, 67920, Note_on_c, 0, 56, 59
2, 67920, Note_on_c, 0, 50, 48
2, 68002, Note_on_c, 0, 59, 0
2, 68011, Note_on_c, 0, 62, 0
2, 68012, Note_on_c, 0, 68, 0
2, 68040, Note_on_c, 0, 68, 70
2, 68040, Note_on_c, 0, 59, 70
2, 68040, Note_on_c, 0, 62, 70
2, 68110, Note_on_c, 0, 50, 0
2, 68119, Note_on_c, 0, 56, 0
2, 68160, Note_on_c, 0, 56, 52
2, 68161, Note_on_c, 0, 50, 48
2, 68187, Note_on_c, 0, 50, 0
2, 68189, Note_on_c, 0, 56, 0
2, 68220, Note_on_c, 0, 56, 57
2, 68221, Note_on_c, 0, 50, 49
2, 68241, Note_on_c, 0, 59, 0
2, 68251, Note_on_c, 0, 68, 0
2, 68253, Note_on_c, 0, 62, 0
2, 68280, Note_on_c, 0, 68, 70
2, 68280, Note_on_c, 0, 59, 70
2, 68280, Note_on_c, 0, 62, 70
2, 68313, Note_on_c, 0, 50, 0
2, 68339, Note_on_c, 0, 56, 0
2, 68400, Note_on_c, 0, 56, 64
2, 68401, Note_on_c, 0, 50, 50
2, 68596, Note_on_c, 0, 50, 0
2, 68605, Note_on_c, 0, 56, 0
2, 68641, Note_on_c, 0, 56, 59
2, 68641, Note_on_c, 0, 50, 49
2, 68718, Note_on_c, 0, 59, 0
2, 68722, Note_on_c, 0, 68, 0
2, 68727, Note_on_c, 0, 62, 0
2, 68760, Note_on_c, 0, 68, 70
2, 68760, Note_on_c, 0, 62, 70
2, 68760, Note_on_c, 0, 59, 70
2, 68836, Note_on_c, 0, 50, 0
2, 68842, Note_on_c, 0, 56, 0
2, 68880, Note_on_c, 0, 56, 59
2, 68881, Note_on_c, 0, 50, 49
2, 68944, Note_on_c, 0, 59, 0
2, 68949, Note_on_c, 0, 62, 0
2, 68955, Note_on_c, 0, 68, 0
2, 69000, Note_on_c, 0, 62, 70
2, 69000, Note_on_c, 0, 59, 70
2, 69000, Note_on_c, 0, 68, 70
2, 69055, Note_on_c, 0, 50, 0
2, 69065, Note_on_c, 0, 56, 0
2, 69120, Note_on_c, 0, 56, 57
2, 69121, Note_on_c, 0, 50, 48
2, 69145, Note_on_c, 0, 50, 0
2, 69148, Note_on_c, 0, 56, 0
2, 69180, Note_on_c, 0, 56, 57
2, 69181, Note_on_c, 0, 50, 50
2, 69183, Note_on_c, 0, 59, 0
2, 69190, Note_on_c, 0, 62, 0
2, 69192, Note_on_c, 0, 68, 0
2, 69240, Note_on_c, 0, 62, 70
2, 69241, Note_on_c, 0, 59, 70
2, 69241, Note_on_c, 0, 68, 70
2, 69271, Note_on_c, 0, 50, 0
2, 69277, Note_on_c, 0, 56, 0
2, 69360, Note_on_c, 0, 56, 77
2, 69361, Note_on_c, 0, 50, 49
2, 69548, Note_on_c, 0, 50, 0
2, 69553, Note_on_c, 0, 56, 0
2, 69601, Note_on_c, 0, 56, 54
2, 69601, Note_on_c, 0, 50, 47
2, 69620, Note_on_c, 0, 59, 0
2, 69620, Note_on_c, 0, 62, 0
2, 69624, Note_on_c, 0, 68, 0
2, 69635, Note_on_c, 0, 50, 0
2, 69638, Note_on_c, 0, 56, 0
2, 69660, Note_on_c, 0, 56, 59
2, 69661, Note_on_c, 0, 50, 49
2, 69720, Note_on_c, 0, 68, 70
2, 69720, Note_on_c, 0, 62, 70
2, 69720, Note_on_c, 0, 59, 70
2, 69780, Note_on_c, 0, 50, 0
2, 69793, Note_on_c, 0, 56, 0
2, 69840, Note_on_c, 0, 56, 53
2, 69841, Note_on_c, 0, 50, 48
2, 69869, Note_on_c, 0, 50, 0
2, 69871, Note_on_c, 0, 56, 0
2, 69900, Note_on_c, 0, 56, 59
2, 69901, Note_on_c, 0, 50, 49
2, 69907, Note_on_c, 0, 59, 0
2, 69911, Note_on_c, 0, 62, 0
2, 69919, Note_on_c, 0, 68, 0
2, 69960, Note_on_c, 0, 62, 70
2, 69961, Note_on_c, 0, 59, 70
2, 69961, Note_on_c, 0, 68, 70
2, 70010, Note_on_c, 0, 50, 0
2, 70019, Note_on_c, 0, 56, 0
2, 70080, Note_on_c, 0, 56, 53
2, 70080, Note_on_c, 0, 50, 48
2, 70104, Note_on_c, 0, 50, 0
2, 70106, Note_on_c, 0, 56, 0
2, 70113, Note_on_c, 0, 62, 0
2, 70114, Note_on_c, 0, 59, 0
2, 70114, Note_on_c, 0, 68, 0
2, 70140, Note_on_c, 0, 56, 57
2, 70141, Note_on_c, 0, 50, 48
2, 70185, Note_on_c, 0, 50, 0
2, 70191, Note_on_c, 0, 56, 0
2, 70320, Note_on_c, 0, 56, 64
2, 70321, Note_on_c, 0, 50, 49
2, 70359, Note_on_c, 0, 50, 0
2, 70361, Note_on_c, 0, 56, 0
2, 70361, End_track
3, 0, Start_track
3, 0, MIDI_port, 0
3, 125, Control_c, 1, 0, 0
3, 126, Control_c, 1, 32, 0
3, 127, Program_c, 1, 27
3, 1800, Note_on_c, 1, 46, 84
3, 1860, Note_on_c, 1, 45, 84
3, 1867, Note_on_c, 1, 46, 0
3, 1916, Note_on_c, 1, 45, 0
3, 1920, Note_on_c, 1, 43, 84
3, 1975, Note_on_c, 1, 43, 0
3, 1980, Note_on_c, 1, 52, 84
3, 2089, Note_on_c, 1, 52, 0
3, 2100, Note_on_c, 1, 40, 84
3, 2156, Note_on_c, 1, 40, 0
3, 2160, Note_on_c, 1, 52, 84
3, 2748, Note_on_c, 1, 52, 0
3, 2760, Note_on_c, 1, 46, 84
3, 2816, Note_on_c, 1, 46, 0
3, 2820, Note_on_c, 1, 45, 84
3, 2857, Note_on_c, 1, 45, 0
3, 2880, Note_on_c, 1, 43, 84
3, 2939, Note_on_c, 1, 43, 0
3, 2940, Note_on_c, 1, 52, 84
3, 3050, Note_on_c, 1, 52, 0
3, 3060, Note_on_c, 1, 40, 84
3, 3115, Note_on_c, 1, 40, 0
3, 3120, Note_on_c, 1, 52, 84
3, 3709, Note_on_c, 1, 52, 0
3, 3720, Note_on_c, 1, 46, 84
3, 3772, Note_on_c, 1, 46, 0
3, 3780, Note_on_c, 1, 45, 84
3, 3825, Note_on_c, 1, 45, 0
3, 3840, Note_on_c, 1, 43, 84
3, 3896, Note_on_c, 1, 43, 0
3, 3900, Note_on_c, 1, 52, 84
3, 4016, Note_on_c, 1, 52, 0
3, 4021, Note_on_c, 1, 40, 84
3, 4068, Note_on_c, 1, 40, 0
3, 4080, Note_on_c, 1, 52, 84
3, 4667, Note_on_c, 1, 52, 0
3, 4680, Note_on_c, 1, 46, 84
3, 4725, Note_on_c, 1, 46, 0
3, 4740, Note_on_c, 1, 45, 84
3, 4782, Note_on_c, 1, 45, 0
3, 4800, Note_on_c, 1, 43, 84
3, 4855, Note_on_c, 1, 43, 0
3, 4860, Note_on_c, 1, 52, 84
3, 4975, Note_on_c, 1, 52, 0
3, 4980, Note_on_c, 1, 40, 84
3, 5030, Note_on_c, 1, 40, 0
3, 5040, Note_on_c, 1, 52, 84
3, 5211, Note_on_c, 1, 52, 0
3, 5220, Note_on_c, 1, 52, 84
3, 5266, Note_on_c, 1, 52, 0
3, 5281, Note_on_c, 1, 40, 84
3, 5626, Note_on_c, 1, 40, 0
3, 5640, Note_on_c, 1, 46, 84
3, 5700, Note_on_c, 1, 45, 84
3, 5709, Note_on_c, 1, 46, 0
3, 5743, Note_on_c, 1, 45, 0
3, 5760, Note_on_c, 1, 43, 84
3, 5816, Note_on_c, 1, 43, 0
3, 5820, Note_on_c, 1, 52, 84
3, 5940, Note_on_c, 1, 52, 0
3, 5941, Note_on_c, 1, 40, 84
3, 5996, Note_on_c, 1, 40, 0
3, 6000, Note_on_c, 1, 52, 84
3, 6218, Note_on_c, 1, 52, 0
3, 6241, Note_on_c, 1, 40, 84
3, 6588, Note_on_c, 1, 40, 0
3, 6600, Note_on_c, 1, 46, 84
3, 6660, Note_on_c, 1, 45, 84
3, 6664, Note_on_c, 1, 46, 0
3, 6695, Note_on_c, 1, 45, 0
3, 6720, Note_on_c, 1, 43, 84
3, 6773, Note_on_c, 1, 43, 0
3, 6780, Note_on_c, 1, 52, 84
3, 6898, Note_on_c, 1, 52, 0
3, 6900, Note_on_c, 1, 40, 84
3, 6953, Note_on_c, 1, 40, 0
3, 6960, Note_on_c, 1, 52, 84
3, 7111, Note_on_c, 1, 52, 0
3, 7140, Note_on_c, 1, 52, 84
3, 7165, Note_on_c, 1, 52, 0
3, 7201, Note_on_c, 1, 40, 84
3, 7550, Note_on_c, 1, 40, 0
3, 7560, Note_on_c, 1, 46, 84
3, 7620, Note_on_c, 1, 46, 0
3, 7621, Note_on_c, 1, 45, 84
3, 7654, Note_on_c, 1, 45, 0
3, 7680, Note_on_c, 1, 43, 84
3, 7729, Note_on_c, 1, 43, 0
3, 7740, Note_on_c, 1, 52, 84
3, 7860, Note_on_c, 1, 40, 84
3, 7861, Note_on_c, 1, 52, 0
3, 7920, Note_on_c, 1, 40, 0
3, 7921, Note_on_c, 1, 52, 84
3, 8147, Note_on_c, 1, 52, 0
3, 8161, Note_on_c, 1, 40, 84
3, 8510, Note_on_c, 1, 40, 0
3, 8520, Note_on_c, 1, 46, 84
3, 8580, Note_on_c, 1, 46, 0
3, 8581, Note_on_c, 1, 45, 84
3, 8621, Note_on_c, 1, 45, 0
3, 8640, Note_on_c, 1, 43, 84
3, 8691, Note_on_c, 1, 43, 0
3, 8700, Note_on_c, 1, 52, 84
3, 8810, Note_on_c, 1, 52, 0
3, 8820, Note_on_c, 1, 40, 84
3, 8875, Note_on_c, 1, 40, 0
3, 8880, Note_on_c, 1, 52, 84
3, 9110, Note_on_c, 1, 52, 0
3, 9121, Note_on_c, 1, 43, 84
3, 9592, Note_on_c, 1, 43, 0
3, 9600, Note_on_c, 1, 40, 84
3, 10074, Note_on_c, 1, 40, 0
3, 10081, Note_on_c, 1, 40, 84
3, 10433, Note_on_c, 1, 40, 0
3, 10440, Note_on_c, 1, 46, 84
3, 10500, Note_on_c, 1, 45, 84
3, 10502, Note_on_c, 1, 46, 0
3, 10552, Note_on_c, 1, 45, 0
3, 10560, Note_on_c, 1, 43, 84
3, 10608, Note_on_c, 1, 43, 0
3, 10620, Note_on_c, 1, 52, 84
3, 10740, Note_on_c, 1, 40, 84
3, 10741, Note_on_c, 1, 52, 0
3, 10790, Note_on_c, 1, 40, 0
3, 10801, Note_on_c, 1, 52, 84
3, 10951, Note_on_c, 1, 52, 0
3, 10980, Note_on_c, 1, 52, 84
3, 11041, Note_on_c, 1, 52, 0
3, 11041, Note_on_c, 1, 40, 84
3, 11390, Note_on_c, 1, 40, 0
3, 11400, Note_on_c, 1, 46, 84
3, 11460, Note_on_c, 1, 45, 84
3, 11466, Note_on_c, 1, 46, 0
3, 11506, Note_on_c, 1, 45, 0
3, 11520, Note_on_c, 1, 43, 84
3, 11568, Note_on_c, 1, 43, 0
3, 11580, Note_on_c, 1, 52, 84
3, 11696, Note_on_c, 1, 52, 0
3, 11700, Note_on_c, 1, 40, 84
3, 11753, Note_on_c, 1, 40, 0
3, 11760, Note_on_c, 1, 52, 84
3, 11930, Note_on_c, 1, 52, 0
3, 11940, Note_on_c, 1, 52, 84
3, 11997, Note_on_c, 1, 52, 0
3, 12001, Note_on_c, 1, 40, 84
3, 12354, Note_on_c, 1, 40, 0
3, 12360, Note_on_c, 1, 46, 84
3, 12420, Note_on_c, 1, 45, 84
3, 12426, Note_on_c, 1, 46, 0
3, 12466, Note_on_c, 1, 45, 0
3, 12480, Note_on_c, 1, 43, 84
3, 12535, Note_on_c, 1, 43, 0
3, 12541, Note_on_c, 1, 52, 84
3, 12660, Note_on_c, 1, 40, 84
3, 12663, Note_on_c, 1, 52, 0
3, 12714, Note_on_c, 1, 40, 0
3, 12720, Note_on_c, 1, 52, 84
3, 12870, Note_on_c, 1, 52, 0
3, 12900, Note_on_c, 1, 52, 84
3, 12961, Note_on_c, 1, 40, 84
3, 12966, Note_on_c, 1, 52, 0
3, 13314, Note_on_c, 1, 40, 0
3, 13320, Note_on_c, 1, 46, 84
3, 13379, Note_on_c, 1, 46, 0
3, 13380, Note_on_c, 1, 45, 84
3, 13423, Note_on_c, 1, 45, 0
3, 13440, Note_on_c, 1, 43, 84
3, 13490, Note_on_c, 1, 43, 0
3, 13500, Note_on_c, 1, 52, 84
3, 13620, Note_on_c, 1, 52, 0
3, 13621, Note_on_c, 1, 40, 84
3, 13666, Note_on_c, 1, 40, 0
3, 13680, Note_on_c, 1, 52, 84
3, 13856, Note_on_c, 1, 52, 0
3, 13860, Note_on_c, 1, 40, 84
3, 13913, Note_on_c, 1, 40, 0
3, 13921, Note_on_c, 1, 48, 84
3, 13921, Note_on_c, 1, 36, 84
3, 14351, Note_on_c, 1, 36, 0
3, 14353, Note_on_c, 1, 48, 0
3, 14400, Note_on_c, 1, 38, 84
3, 14401, Note_on_c, 1, 50, 84
3, 14828, Note_on_c, 1, 50, 0
3, 14829, Note_on_c, 1, 38, 0
3, 14881, Note_on_c, 1, 52, 84
3, 14881, Note_on_c, 1, 40, 84
3, 15405, Note_on_c, 1, 40, 0
3, 15420, Note_on_c, 1, 50, 84
3, 15425, Note_on_c, 1, 52, 0
3, 15480, Note_on_c, 1, 47, 84
3, 15481, Note_on_c, 1, 50, 0
3, 15508, Note_on_c, 1, 47, 0
3, 15540, Note_on_c, 1, 46, 84
3, 15576, Note_on_c, 1, 46, 0
3, 15600, Note_on_c, 1, 45, 84
3, 15656, Note_on_c, 1, 45, 0
3, 15660, Note_on_c, 1, 43, 84
3, 15713, Note_on_c, 1, 43, 0
3, 15720, Note_on_c, 1, 52, 84
3, 15841, Note_on_c, 1, 52, 0
3, 15841, Note_on_c, 1, 40, 84
3, 16196, Note_on_c, 1, 40, 0
3, 16200, Note_on_c, 1, 46, 84
3, 16260, Note_on_c, 1, 45, 84
3, 16281, Note_on_c, 1, 46, 0
3, 16307, Note_on_c, 1, 45, 0
3, 16320, Note_on_c, 1, 43, 84
3, 16372, Note_on_c, 1, 43, 0
3, 16380, Note_on_c, 1, 52, 84
3, 16500, Note_on_c, 1, 52, 0
3, 16501, Note_on_c, 1, 40, 84
3, 16556, Note_on_c, 1, 40, 0
3, 16560, Note_on_c, 1, 52, 84
3, 16718, Note_on_c, 1, 52, 0
3, 16740, Note_on_c, 1, 52, 84
3, 16801, Note_on_c, 1, 52, 0
3, 16801, Note_on_c, 1, 40, 84
3, 17160, Note_on_c, 1, 46, 84
3, 17163, Note_on_c, 1, 40, 0
3, 17220, Note_on_c, 1, 45, 84
3, 17240, Note_on_c, 1, 46, 0
3, 17265, Note_on_c, 1, 45, 0
3, 17281, Note_on_c, 1, 43, 84
3, 17328, Note_on_c, 1, 43, 0
3, 17340, Note_on_c, 1, 52, 84
3, 17456, Note_on_c, 1, 52, 0
3, 17460, Note_on_c, 1, 40, 84
3, 17512, Note_on_c, 1, 40, 0
3, 17520, Note_on_c, 1, 52, 84
3, 17693, Note_on_c, 1, 52, 0
3, 17700, Note_on_c, 1, 40, 84
3, 17755, Note_on_c, 1, 40, 0
3, 17761, Note_on_c, 1, 43, 84
3, 18178, Note_on_c, 1, 43, 0
3, 18180, Note_on_c, 1, 52, 84
3, 18241, Note_on_c, 1, 40, 84
3, 18271, Note_on_c, 1, 52, 0
3, 18655, Note_on_c, 1, 40, 0
3, 18660, Note_on_c, 1, 52, 84
3, 18721, Note_on_c, 1, 40, 84
3, 18757, Note_on_c, 1, 52, 0
3, 19140, Note_on_c, 1, 52, 84
3, 19141, Note_on_c, 1, 40, 0
3, 19187, Note_on_c, 1, 52, 0
3, 19201, Note_on_c, 1, 40, 84
3, 19620, Note_on_c, 1, 52, 84
3, 19628, Note_on_c, 1, 40, 0
3, 19645, Note_on_c, 1, 52, 0
3, 19681, Note_on_c, 1, 40, 84
3, 20040, Note_on_c, 1, 46, 84
3, 20043, Note_on_c, 1, 40, 0
3, 20100, Note_on_c, 1, 45, 84
3, 20106, Note_on_c, 1, 46, 0
3, 20139, Note_on_c, 1, 45, 0
3, 20160, Note_on_c, 1, 43, 84
3, 20212, Note_on_c, 1, 43, 0
3, 20220, Note_on_c, 1, 52, 84
3, 20335, Note_on_c, 1, 52, 0
3, 20340, Note_on_c, 1, 40, 84
3, 20393, Note_on_c, 1, 40, 0
3, 20400, Note_on_c, 1, 52, 84
3, 20546, Note_on_c, 1, 52, 0
3, 20580, Note_on_c, 1, 52, 84
3, 20631, Note_on_c, 1, 52, 0
3, 20641, Note_on_c, 1, 40, 84
3, 21000, Note_on_c, 1, 46, 84
3, 21007, Note_on_c, 1, 40, 0
3, 21056, Note_on_c, 1, 46, 0
3, 21060, Note_on_c, 1, 45, 84
3, 21111, Note_on_c, 1, 45, 0
3, 21120, Note_on_c, 1, 43, 84
3, 21172, Note_on_c, 1, 43, 0
3, 21180, Note_on_c, 1, 52, 84
3, 21294, Note_on_c, 1, 52, 0
3, 21300, Note_on_c, 1, 40, 84
3, 21358, Note_on_c, 1, 40, 0
3, 21360, Note_on_c, 1, 52, 84
3, 21503, Note_on_c, 1, 52, 0
3, 21540, Note_on_c, 1, 52, 84
3, 21591, Note_on_c, 1, 52, 0
3, 21601, Note_on_c, 1, 40, 84
3, 21960, Note_on_c, 1, 46, 84
3, 21963, Note_on_c, 1, 40, 0
3, 22020, Note_on_c, 1, 45, 84
3, 22029, Note_on_c, 1, 46, 0
3, 22065, Note_on_c, 1, 45, 0
3, 22080, Note_on_c, 1, 43, 84
3, 22130, Note_on_c, 1, 43, 0
3, 22140, Note_on_c, 1, 52, 84
3, 22256, Note_on_c, 1, 52, 0
3, 22260, Note_on_c, 1, 40, 84
3, 22312, Note_on_c, 1, 40, 0
3, 22320, Note_on_c, 1, 52, 84
3, 22491, Note_on_c, 1, 52, 0
3, 22500, Note_on_c, 1, 40, 84
3, 22535, Note_on_c, 1, 40, 0
3, 22561, Note_on_c, 1, 36, 84
3, 22561, Note_on_c, 1, 48, 84
3, 22992, Note_on_c, 1, 48, 0
3, 23005, Note_on_c, 1, 36, 0
3, 23040, Note_on_c, 1, 38, 84
3, 23041, Note_on_c, 1, 50, 84
3, 23450, Note_on_c, 1, 50, 0
3, 23459, Note_on_c, 1, 38, 0
3, 23521, Note_on_c, 1, 40, 84
3, 23521, Note_on_c, 1, 52, 84
3, 24043, Note_on_c, 1, 40, 0
3, 24049, Note_on_c, 1, 52, 0
3, 24061, Note_on_c, 1, 50, 84
3, 24120, Note_on_c, 1, 47, 84
3, 24125, Note_on_c, 1, 50, 0
3, 24163, Note_on_c, 1, 47, 0
3, 24180, Note_on_c, 1, 46, 84
3, 24220, Note_on_c, 1, 46, 0
3, 24240, Note_on_c, 1, 45, 84
3, 24300, Note_on_c, 1, 43, 84
3, 24308, Note_on_c, 1, 45, 0
3, 24358, Note_on_c, 1, 43, 0
3, 24360, Note_on_c, 1, 52, 84
3, 24476, Note_on_c, 1, 52, 0
3, 24481, Note_on_c, 1, 40, 84
3, 24824, Note_on_c, 1, 40, 0
3, 24840, Note_on_c, 1, 46, 84
3, 24901, Note_on_c, 1, 45, 84
3, 24910, Note_on_c, 1, 46, 0
3, 24950, Note_on_c, 1, 45, 0
3, 24960, Note_on_c, 1, 43, 84
3, 25017, Note_on_c, 1, 43, 0
3, 25020, Note_on_c, 1, 52, 84
3, 25140, Note_on_c, 1, 40, 84
3, 25146, Note_on_c, 1, 52, 0
3, 25194, Note_on_c, 1, 40, 0
3, 25200, Note_on_c, 1, 52, 84
3, 25421, Note_on_c, 1, 52, 0
3, 25441, Note_on_c, 1, 40, 84
3, 25794, Note_on_c, 1, 40, 0
3, 25800, Note_on_c, 1, 46, 84
3, 25861, Note_on_c, 1, 45, 84
3, 25866, Note_on_c, 1, 46, 0
3, 25912, Note_on_c, 1, 45, 0
3, 25920, Note_on_c, 1, 43, 84
3, 25980, Note_on_c, 1, 52, 84
3, 25983, Note_on_c, 1, 43, 0
3, 26094, Note_on_c, 1, 52, 0
3, 26100, Note_on_c, 1, 40, 84
3, 26154, Note_on_c, 1, 40, 0
3, 26160, Note_on_c, 1, 52, 84
3, 26401, Note_on_c, 1, 52, 0
3, 26401, Note_on_c, 1, 40, 84
3, 26753, Note_on_c, 1, 40, 0
3, 26760, Note_on_c, 1, 46, 84
3, 26821, Note_on_c, 1, 45, 84
3, 26831, Note_on_c, 1, 46, 0
3, 26861, Note_on_c, 1, 45, 0
3, 26880, Note_on_c, 1, 43, 84
3, 26932, Note_on_c, 1, 43, 0
3, 26940, Note_on_c, 1, 52, 84
3, 27060, Note_on_c, 1, 40, 84
3, 27065, Note_on_c, 1, 52, 0
3, 27118, Note_on_c, 1, 40, 0
3, 27120, Note_on_c, 1, 52, 84
3, 27353, Note_on_c, 1, 52, 0
3, 27361, Note_on_c, 1, 40, 84
3, 27713, Note_on_c, 1, 40, 0
3, 27720, Note_on_c, 1, 46, 84
3, 27780, Note_on_c, 1, 45, 84
3, 27788, Note_on_c, 1, 46, 0
3, 27835, Note_on_c, 1, 45, 0
3, 27840, Note_on_c, 1, 43, 84
3, 27895, Note_on_c, 1, 43, 0
3, 27900, Note_on_c, 1, 52, 84
3, 28011, Note_on_c, 1, 52, 0
3, 28020, Note_on_c, 1, 40, 84
3, 28068, Note_on_c, 1, 40, 0
3, 28080, Note_on_c, 1, 52, 84
3, 28234, Note_on_c, 1, 52, 0
3, 28260, Note_on_c, 1, 52, 84
3, 28306, Note_on_c, 1, 52, 0
3, 28321, Note_on_c, 1, 40, 84
3, 28671, Note_on_c, 1, 40, 0
3, 28680, Note_on_c, 1, 46, 84
3, 28740, Note_on_c, 1, 45, 84
3, 28746, Note_on_c, 1, 46, 0
3, 28781, Note_on_c, 1, 45, 0
3, 28800, Note_on_c, 1, 43, 84
3, 28851, Note_on_c, 1, 43, 0
3, 28860, Note_on_c, 1, 52, 84
3, 28976, Note_on_c, 1, 52, 0
3, 28980, Note_on_c, 1, 40, 84
3, 29036, Note_on_c, 1, 40, 0
3, 29041, Note_on_c, 1, 52, 84
3, 29195, Note_on_c, 1, 52, 0
3, 29220, Note_on_c, 1, 52, 84
3, 29276, Note_on_c, 1, 52, 0
3, 29281, Note_on_c, 1, 40, 84
3, 29629, Note_on_c, 1, 40, 0
3, 29640, Note_on_c, 1, 46, 84
3, 29700, Note_on_c, 1, 45, 84
3, 29717, Note_on_c, 1, 46, 0
3, 29745, Note_on_c, 1, 45, 0
3, 29760, Note_on_c, 1, 43, 84
3, 29814, Note_on_c, 1, 43, 0
3, 29820, Note_on_c, 1, 52, 84
3, 29936, Note_on_c, 1, 52, 0
3, 29940, Note_on_c, 1, 40, 84
3, 29986, Note_on_c, 1, 40, 0
3, 30000, Note_on_c, 1, 52, 84
3, 30152, Note_on_c, 1, 52, 0
3, 30180, Note_on_c, 1, 52, 84
3, 30227, Note_on_c, 1, 52, 0
3, 30241, Note_on_c, 1, 40, 84
3, 30594, Note_on_c, 1, 40, 0
3, 30600, Note_on_c, 1, 46, 84
3, 30660, Note_on_c, 1, 45, 84
3, 30669, Note_on_c, 1, 46, 0
3, 30699, Note_on_c, 1, 45, 0
3, 30720, Note_on_c, 1, 43, 84
3, 30775, Note_on_c, 1, 43, 0
3, 30780, Note_on_c, 1, 52, 84
3, 30890, Note_on_c, 1, 52, 0
3, 30901, Note_on_c, 1, 40, 84
3, 30952, Note_on_c, 1, 40, 0
3, 30960, Note_on_c, 1, 52, 84
3, 31114, Note_on_c, 1, 52, 0
3, 31140, Note_on_c, 1, 52, 84
3, 31184, Note_on_c, 1, 52, 0
3, 31201, Note_on_c, 1, 40, 84
3, 31541, Note_on_c, 1, 40, 0
3, 31560, Note_on_c, 1, 46, 84
3, 31620, Note_on_c, 1, 45, 84
3, 31627, Note_on_c, 1, 46, 0
3, 31666, Note_on_c, 1, 45, 0
3, 31680, Note_on_c, 1, 43, 84
3, 31730, Note_on_c, 1, 43, 0
3, 31740, Note_on_c, 1, 52, 84
3, 31860, Note_on_c, 1, 40, 84
3, 31861, Note_on_c, 1, 52, 0
3, 31920, Note_on_c, 1, 40, 0
3, 31921, Note_on_c, 1, 52, 84
3, 32066, Note_on_c, 1, 52, 0
3, 32100, Note_on_c, 1, 52, 84
3, 32143, Note_on_c, 1, 52, 0
3, 32161, Note_on_c, 1, 40, 84
3, 32508, Note_on_c, 1, 40, 0
3, 32520, Note_on_c, 1, 46, 84
3, 32580, Note_on_c, 1, 45, 84
3, 32597, Note_on_c, 1, 46, 0
3, 32620, Note_on_c, 1, 45, 0
3, 32640, Note_on_c, 1, 43, 84
3, 32692, Note_on_c, 1, 43, 0
3, 32700, Note_on_c, 1, 52, 84
3, 32809, Note_on_c, 1, 52, 0
3, 32820, Note_on_c, 1, 40, 84
3, 32863, Note_on_c, 1, 40, 0
3, 32880, Note_on_c, 1, 52, 84
3, 33028, Note_on_c, 1, 52, 0
3, 33060, Note_on_c, 1, 52, 84
3, 33113, Note_on_c, 1, 52, 0
3, 33121, Note_on_c, 1, 40, 84
3, 33480, Note_on_c, 1, 40, 0
3, 33481, Note_on_c, 1, 46, 84
3, 33533, Note_on_c, 1, 46, 0
3, 33540, Note_on_c, 1, 45, 84
3, 33578, Note_on_c, 1, 45, 0
3, 33600, Note_on_c, 1, 43, 84
3, 33652, Note_on_c, 1, 43, 0
3, 33660, Note_on_c, 1, 52, 84
3, 33778, Note_on_c, 1, 52, 0
3, 33780, Note_on_c, 1, 40, 84
3, 33830, Note_on_c, 1, 40, 0
3, 33840, Note_on_c, 1, 52, 84
3, 34020, Note_on_c, 1, 40, 84
3, 34028, Note_on_c, 1, 52, 0
3, 34081, Note_on_c, 1, 40, 0
3, 34081, Note_on_c, 1, 43, 84
3, 34559, Note_on_c, 1, 43, 0
3, 34560, Note_on_c, 1, 40, 84
3, 35036, Note_on_c, 1, 40, 0
3, 35041, Note_on_c, 1, 40, 84
3, 35385, Note_on_c, 1, 40, 0
3, 35400, Note_on_c, 1, 46, 84
3, 35445, Note_on_c, 1, 46, 0
3, 35460, Note_on_c, 1, 45, 84
3, 35507, Note_on_c, 1, 45, 0
3, 35520, Note_on_c, 1, 43, 84
3, 35574, Note_on_c, 1, 43, 0
3, 35580, Note_on_c, 1, 52, 84
3, 35694, Note_on_c, 1, 52, 0
3, 35700, Note_on_c, 1, 40, 84
3, 35750, Note_on_c, 1, 40, 0
3, 35760, Note_on_c, 1, 52, 84
3, 35903, Note_on_c, 1, 52, 0
3, 35940, Note_on_c, 1, 52, 84
3, 35986, Note_on_c, 1, 52, 0
3, 36001, Note_on_c, 1, 40, 84
3, 36348, Note_on_c, 1, 40, 0
3, 36360, Note_on_c, 1, 46, 84
3, 36420, Note_on_c, 1, 45, 84
3, 36432, Note_on_c, 1, 46, 0
3, 36461, Note_on_c, 1, 45, 0
3, 36480, Note_on_c, 1, 43, 84
3, 36536, Note_on_c, 1, 43, 0
3, 36540, Note_on_c, 1, 52, 84
3, 36647, Note_on_c, 1, 52, 0
3, 36660, Note_on_c, 1, 40, 84
3, 36705, Note_on_c, 1, 40, 0
3, 36720, Note_on_c, 1, 52, 84
3, 36881, Note_on_c, 1, 52, 0
3, 36900, Note_on_c, 1, 52, 84
3, 36961, Note_on_c, 1, 52, 0
3, 36961, Note_on_c, 1, 40, 84
3, 37320, Note_on_c, 1, 46, 84
3, 37327, Note_on_c, 1, 40, 0
3, 37380, Note_on_c, 1, 45, 84
3, 37385, Note_on_c, 1, 46, 0
3, 37423, Note_on_c, 1, 45, 0
3, 37440, Note_on_c, 1, 43, 84
3, 37491, Note_on_c, 1, 43, 0
3, 37500, Note_on_c, 1, 52, 84
3, 37613, Note_on_c, 1, 52, 0
3, 37620, Note_on_c, 1, 40, 84
3, 37665, Note_on_c, 1, 40, 0
3, 37680, Note_on_c, 1, 52, 84
3, 37832, Note_on_c, 1, 52, 0
3, 37860, Note_on_c, 1, 52, 84
3, 37921, Note_on_c, 1, 52, 0
3, 37921, Note_on_c, 1, 40, 84
3, 38266, Note_on_c, 1, 40, 0
3, 38280, Note_on_c, 1, 46, 84
3, 38340, Note_on_c, 1, 45, 84
3, 38349, Note_on_c, 1, 46, 0
3, 38374, Note_on_c, 1, 45, 0
3, 38400, Note_on_c, 1, 43, 84
3, 38451, Note_on_c, 1, 43, 0
3, 38460, Note_on_c, 1, 52, 84
3, 38572, Note_on_c, 1, 52, 0
3, 38580, Note_on_c, 1, 40, 84
3, 38631, Note_on_c, 1, 40, 0
3, 38640, Note_on_c, 1, 52, 84
3, 38814, Note_on_c, 1, 52, 0
3, 38820, Note_on_c, 1, 40, 84
3, 38869, Note_on_c, 1, 40, 0
3, 38881, Note_on_c, 1, 48, 84
3, 39240, Note_on_c, 1, 36, 84
3, 39340, Note_on_c, 1, 48, 0
3, 39341, Note_on_c, 1, 36, 0
3, 39360, Note_on_c, 1, 50, 84
3, 39361, Note_on_c, 1, 38, 84
3, 39780, Note_on_c, 1, 38, 0
3, 39794, Note_on_c, 1, 50, 0
3, 39841, Note_on_c, 1, 40, 84
3, 39841, Note_on_c, 1, 52, 84
3, 40371, Note_on_c, 1, 52, 0
3, 40380, Note_on_c, 1, 50, 84
3, 40383, Note_on_c, 1, 40, 0
3, 40440, Note_on_c, 1, 47, 84
3, 40442, Note_on_c, 1, 50, 0
3, 40465, Note_on_c, 1, 47, 0
3, 40500, Note_on_c, 1, 46, 84
3, 40548, Note_on_c, 1, 46, 0
3, 40560, Note_on_c, 1, 45, 84
3, 40613, Note_on_c, 1, 45, 0
3, 40620, Note_on_c, 1, 43, 84
3, 40675, Note_on_c, 1, 43, 0
3, 40680, Note_on_c, 1, 52, 84
3, 40740, Note_on_c, 1, 52, 0
3, 40801, Note_on_c, 1, 48, 84
3, 40801, Note_on_c, 1, 36, 84
3, 41252, Note_on_c, 1, 36, 0
3, 41258, Note_on_c, 1, 48, 0
3, 41280, Note_on_c, 1, 50, 84
3, 41281, Note_on_c, 1, 38, 84
3, 41705, Note_on_c, 1, 38, 0
3, 41706, Note_on_c, 1, 50, 0
3, 41761, Note_on_c, 1, 40, 84
3, 41761, Note_on_c, 1, 52, 84
3, 42295, Note_on_c, 1, 40, 0
3, 42297, Note_on_c, 1, 52, 0
3, 42300, Note_on_c, 1, 50, 84
3, 42360, Note_on_c, 1, 47, 84
3, 42365, Note_on_c, 1, 50, 0
3, 42390, Note_on_c, 1, 47, 0
3, 42420, Note_on_c, 1, 46, 84
3, 42475, Note_on_c, 1, 46, 0
3, 42480, Note_on_c, 1, 45, 84
3, 42540, Note_on_c, 1, 45, 0
3, 42541, Note_on_c, 1, 43, 84
3, 42591, Note_on_c, 1, 43, 0
3, 42600, Note_on_c, 1, 52, 84
3, 42715, Note_on_c, 1, 52, 0
3, 42721, Note_on_c, 1, 40, 84
3, 43079, Note_on_c, 1, 40, 0
3, 43080, Note_on_c, 1, 46, 84
3, 43141, Note_on_c, 1, 45, 84
3, 43170, Note_on_c, 1, 46, 0
3, 43182, Note_on_c, 1, 45, 0
3, 43200, Note_on_c, 1, 43, 84
3, 43255, Note_on_c, 1, 43, 0
3, 43260, Note_on_c, 1, 52, 84
3, 43380, Note_on_c, 1, 40, 84
3, 43381, Note_on_c, 1, 52, 0
3, 43433, Note_on_c, 1, 40, 0
3, 43440, Note_on_c, 1, 52, 84
3, 43602, Note_on_c, 1, 52, 0
3, 43621, Note_on_c, 1, 52, 84
3, 43676, Note_on_c, 1, 52, 0
3, 43681, Note_on_c, 1, 40, 84
3, 44025, Note_on_c, 1, 40, 0
3, 44040, Note_on_c, 1, 46, 84
3, 44101, Note_on_c, 1, 45, 84
3, 44113, Note_on_c, 1, 46, 0
3, 44145, Note_on_c, 1, 45, 0
3, 44160, Note_on_c, 1, 43, 84
3, 44212, Note_on_c, 1, 43, 0
3, 44220, Note_on_c, 1, 52, 84
3, 44335, Note_on_c, 1, 52, 0
3, 44340, Note_on_c, 1, 40, 84
3, 44400, Note_on_c, 1, 40, 0
3, 44401, Note_on_c, 1, 52, 84
3, 44560, Note_on_c, 1, 52, 0
3, 44580, Note_on_c, 1, 52, 84
3, 44641, Note_on_c, 1, 40, 84
3, 44645, Note_on_c, 1, 52, 0
3, 44990, Note_on_c, 1, 40, 0
3, 45000, Note_on_c, 1, 46, 84
3, 45060, Note_on_c, 1, 45, 84
3, 45065, Note_on_c, 1, 46, 0
3, 45101, Note_on_c, 1, 45, 0
3, 45120, Note_on_c, 1, 43, 84
3, 45173, Note_on_c, 1, 43, 0
3, 45180, Note_on_c, 1, 52, 84
3, 45296, Note_on_c, 1, 52, 0
3, 45300, Note_on_c, 1, 40, 84
3, 45349, Note_on_c, 1, 40, 0
3, 45360, Note_on_c, 1, 52, 84
3, 45517, Note_on_c, 1, 52, 0
3, 45540, Note_on_c, 1, 52, 84
3, 45591, Note_on_c, 1, 52, 0
3, 45601, Note_on_c, 1, 40, 84
3, 45960, Note_on_c, 1, 46, 84
3, 45973, Note_on_c, 1, 40, 0
3, 46021, Note_on_c, 1, 45, 84
3, 46038, Note_on_c, 1, 46, 0
3, 46066, Note_on_c, 1, 45, 0
3, 46080, Note_on_c, 1, 43, 84
3, 46135, Note_on_c, 1, 43, 0
3, 46140, Note_on_c, 1, 52, 84
3, 46254, Note_on_c, 1, 52, 0
3, 46260, Note_on_c, 1, 40, 84
3, 46314, Note_on_c, 1, 40, 0
3, 46320, Note_on_c, 1, 52, 84
3, 46477, Note_on_c, 1, 52, 0
3, 46500, Note_on_c, 1, 52, 84
3, 46552, Note_on_c, 1, 52, 0
3, 46561, Note_on_c, 1, 40, 84
3, 46913, Note_on_c, 1, 40, 0
3, 46920, Note_on_c, 1, 46, 84
3, 46980, Note_on_c, 1, 45, 84
3, 46985, Note_on_c, 1, 46, 0
3, 47018, Note_on_c, 1, 45, 0
3, 47040, Note_on_c, 1, 43, 84
3, 47095, Note_on_c, 1, 43, 0
3, 47100, Note_on_c, 1, 52, 84
3, 47215, Note_on_c, 1, 52, 0
3, 47220, Note_on_c, 1, 40, 84
3, 47273, Note_on_c, 1, 40, 0
3, 47280, Note_on_c, 1, 52, 84
3, 47431, Note_on_c, 1, 52, 0
3, 47461, Note_on_c, 1, 52, 84
3, 47505, Note_on_c, 1, 52, 0
3, 47521, Note_on_c, 1, 40, 84
3, 47870, Note_on_c, 1, 40, 0
3, 47880, Note_on_c, 1, 46, 84
3, 47941, Note_on_c, 1, 45, 84
3, 47945, Note_on_c, 1, 46, 0
3, 47977, Note_on_c, 1, 45, 0
3, 48000, Note_on_c, 1, 43, 84
3, 48052, Note_on_c, 1, 43, 0
3, 48060, Note_on_c, 1, 52, 84
3, 48171, Note_on_c, 1, 52, 0
3, 48180, Note_on_c, 1, 40, 84
3, 48231, Note_on_c, 1, 40, 0
3, 48240, Note_on_c, 1, 52, 84
3, 48393, Note_on_c, 1, 52, 0
3, 48420, Note_on_c, 1, 52, 84
3, 48470, Note_on_c, 1, 52, 0
3, 48481, Note_on_c, 1, 40, 84
3, 48831, Note_on_c, 1, 40, 0
3, 48840, Note_on_c, 1, 46, 84
3, 48900, Note_on_c, 1, 45, 84
3, 48910, Note_on_c, 1, 46, 0
3, 48945, Note_on_c, 1, 45, 0
3, 48960, Note_on_c, 1, 43, 84
3, 49011, Note_on_c, 1, 43, 0
3, 49020, Note_on_c, 1, 52, 84
3, 49134, Note_on_c, 1, 52, 0
3, 49140, Note_on_c, 1, 40, 84
3, 49201, Note_on_c, 1, 40, 0
3, 49201, Note_on_c, 1, 52, 84
3, 49350, Note_on_c, 1, 52, 0
3, 49380, Note_on_c, 1, 52, 84
3, 49431, Note_on_c, 1, 52, 0
3, 49441, Note_on_c, 1, 40, 84
3, 49784, Note_on_c, 1, 40, 0
3, 49800, Note_on_c, 1, 46, 84
3, 49860, Note_on_c, 1, 45, 84
3, 49867, Note_on_c, 1, 46, 0
3, 49899, Note_on_c, 1, 45, 0
3, 49920, Note_on_c, 1, 43, 84
3, 49978, Note_on_c, 1, 43, 0
3, 49980, Note_on_c, 1, 52, 84
3, 50089, Note_on_c, 1, 52, 0
3, 50100, Note_on_c, 1, 40, 84
3, 50152, Note_on_c, 1, 40, 0
3, 50160, Note_on_c, 1, 52, 84
3, 50307, Note_on_c, 1, 52, 0
3, 50340, Note_on_c, 1, 52, 84
3, 50387, Note_on_c, 1, 52, 0
3, 50401, Note_on_c, 1, 40, 84
3, 50754, Note_on_c, 1, 40, 0
3, 50760, Note_on_c, 1, 46, 84
3, 50820, Note_on_c, 1, 45, 84
3, 50822, Note_on_c, 1, 46, 0
3, 50859, Note_on_c, 1, 45, 0
3, 50880, Note_on_c, 1, 43, 84
3, 50931, Note_on_c, 1, 43, 0
3, 50940, Note_on_c, 1, 52, 84
3, 51047, Note_on_c, 1, 52, 0
3, 51060, Note_on_c, 1, 40, 84
3, 51113, Note_on_c, 1, 40, 0
3, 51120, Note_on_c, 1, 52, 84
3, 51265, Note_on_c, 1, 52, 0
3, 51300, Note_on_c, 1, 52, 84
3, 51356, Note_on_c, 1, 52, 0
3, 51361, Note_on_c, 1, 40, 84
3, 51710, Note_on_c, 1, 40, 0
3, 51720, Note_on_c, 1, 46, 84
3, 51780, Note_on_c, 1, 45, 84
3, 51785, Note_on_c, 1, 46, 0
3, 51819, Note_on_c, 1, 45, 0
3, 51840, Note_on_c, 1, 43, 84
3, 51894, Note_on_c, 1, 43, 0
3, 51900, Note_on_c, 1, 52, 84
3, 52008, Note_on_c, 1, 52, 0
3, 52020, Note_on_c, 1, 40, 84
3, 52075, Note_on_c, 1, 40, 0
3, 52080, Note_on_c, 1, 52, 84
3, 52224, Note_on_c, 1, 52, 0
3, 52260, Note_on_c, 1, 52, 84
3, 52313, Note_on_c, 1, 52, 0
3, 52321, Note_on_c, 1, 40, 84
3, 52664, Note_on_c, 1, 40, 0
3, 52680, Note_on_c, 1, 46, 84
3, 52740, Note_on_c, 1, 45, 84
3, 52745, Note_on_c, 1, 46, 0
3, 52785, Note_on_c, 1, 45, 0
3, 52800, Note_on_c, 1, 43, 84
3, 52856, Note_on_c, 1, 43, 0
3, 52860, Note_on_c, 1, 52, 84
3, 52970, Note_on_c, 1, 52, 0
3, 52980, Note_on_c, 1, 40, 84
3, 53031, Note_on_c, 1, 40, 0
3, 53040, Note_on_c, 1, 52, 84
3, 53189, Note_on_c, 1, 52, 0
3, 53220, Note_on_c, 1, 52, 84
3, 53264, Note_on_c, 1, 52, 0
3, 53281, Note_on_c, 1, 40, 84
3, 53630, Note_on_c, 1, 40, 0
3, 53640, Note_on_c, 1, 46, 84
3, 53700, Note_on_c, 1, 45, 84
3, 53707, Note_on_c, 1, 46, 0
3, 53741, Note_on_c, 1, 45, 0
3, 53760, Note_on_c, 1, 43, 84
3, 53814, Note_on_c, 1, 43, 0
3, 53820, Note_on_c, 1, 52, 84
3, 53937, Note_on_c, 1, 52, 0
3, 53940, Note_on_c, 1, 40, 84
3, 53988, Note_on_c, 1, 40, 0
3, 54000, Note_on_c, 1, 52, 84
3, 54144, Note_on_c, 1, 52, 0
3, 54180, Note_on_c, 1, 52, 84
3, 54233, Note_on_c, 1, 52, 0
3, 54241, Note_on_c, 1, 40, 84
3, 54596, Note_on_c, 1, 40, 0
3, 54600, Note_on_c, 1, 46, 84
3, 54659, Note_on_c, 1, 46, 0
3, 54660, Note_on_c, 1, 45, 84
3, 54708, Note_on_c, 1, 45, 0
3, 54720, Note_on_c, 1, 43, 84
3, 54770, Note_on_c, 1, 43, 0
3, 54780, Note_on_c, 1, 52, 84
3, 54892, Note_on_c, 1, 52, 0
3, 54900, Note_on_c, 1, 40, 84
3, 54948, Note_on_c, 1, 40, 0
3, 54960, Note_on_c, 1, 52, 84
3, 55100, Note_on_c, 1, 52, 0
3, 55140, Note_on_c, 1, 52, 84
3, 55187, Note_on_c, 1, 52, 0
3, 55201, Note_on_c, 1, 40, 84
3, 55552, Note_on_c, 1, 40, 0
3, 55560, Note_on_c, 1, 46, 84
3, 55620, Note_on_c, 1, 45, 84
3, 55627, Note_on_c, 1, 46, 0
3, 55659, Note_on_c, 1, 45, 0
3, 55680, Note_on_c, 1, 43, 84
3, 55733, Note_on_c, 1, 43, 0
3, 55740, Note_on_c, 1, 52, 84
3, 55857, Note_on_c, 1, 52, 0
3, 55860, Note_on_c, 1, 40, 84
3, 55916, Note_on_c, 1, 40, 0
3, 55920, Note_on_c, 1, 52, 84
3, 56094, Note_on_c, 1, 52, 0
3, 56100, Note_on_c, 1, 40, 84
3, 56156, Note_on_c, 1, 40, 0
3, 56161, Note_on_c, 1, 43, 84
3, 56567, Note_on_c, 1, 43, 0
3, 56580, Note_on_c, 1, 52, 84
3, 56640, Note_on_c, 1, 40, 84
3, 56648, Note_on_c, 1, 52, 0
3, 57055, Note_on_c, 1, 40, 0
3, 57060, Note_on_c, 1, 52, 84
3, 57121, Note_on_c, 1, 52, 0
3, 57121, Note_on_c, 1, 40, 84
3, 57460, Note_on_c, 1, 40, 0
3, 57480, Note_on_c, 1, 46, 84
3, 57540, Note_on_c, 1, 45, 84
3, 57551, Note_on_c, 1, 46, 0
3, 57589, Note_on_c, 1, 45, 0
3, 57601, Note_on_c, 1, 43, 84
3, 57652, Note_on_c, 1, 43, 0
3, 57660, Note_on_c, 1, 52, 84
3, 57771, Note_on_c, 1, 52, 0
3, 57780, Note_on_c, 1, 40, 84
3, 57835, Note_on_c, 1, 40, 0
3, 57841, Note_on_c, 1, 52, 84
3, 57996, Note_on_c, 1, 52, 0
3, 58020, Note_on_c, 1, 52, 84
3, 58075, Note_on_c, 1, 52, 0
3, 58081, Note_on_c, 1, 40, 84
3, 58428, Note_on_c, 1, 40, 0
3, 58441, Note_on_c, 1, 46, 84
3, 58500, Note_on_c, 1, 45, 84
3, 58501, Note_on_c, 1, 46, 0
3, 58540, Note_on_c, 1, 45, 0
3, 58560, Note_on_c, 1, 43, 84
3, 58616, Note_on_c, 1, 43, 0
3, 58620, Note_on_c, 1, 52, 84
3, 58734, Note_on_c, 1, 52, 0
3, 58740, Note_on_c, 1, 40, 84
3, 58790, Note_on_c, 1, 40, 0
3, 58800, Note_on_c, 1, 52, 84
3, 58950, Note_on_c, 1, 52, 0
3, 58980, Note_on_c, 1, 52, 84
3, 59032, Note_on_c, 1, 52, 0
3, 59041, Note_on_c, 1, 40, 84
3, 59388, Note_on_c, 1, 40, 0
3, 59401, Note_on_c, 1, 46, 84
3, 59460, Note_on_c, 1, 45, 84
3, 59467, Note_on_c, 1, 46, 0
3, 59512, Note_on_c, 1, 45, 0
3, 59520, Note_on_c, 1, 43, 84
3, 59571, Note_on_c, 1, 43, 0
3, 59580, Note_on_c, 1, 52, 84
3, 59699, Note_on_c, 1, 52, 0
3, 59700, Note_on_c, 1, 40, 84
3, 59756, Note_on_c, 1, 40, 0
3, 59760, Note_on_c, 1, 52, 84
3, 59907, Note_on_c, 1, 52, 0
3, 59940, Note_on_c, 1, 52, 84
3, 59992, Note_on_c, 1, 52, 0
3, 60001, Note_on_c, 1, 40, 84
3, 60361, Note_on_c, 1, 46, 84
3, 60365, Note_on_c, 1, 40, 0
3, 60412, Note_on_c, 1, 46, 0
3, 60420, Note_on_c, 1, 45, 84
3, 60470, Note_on_c, 1, 45, 0
3, 60480, Note_on_c, 1, 43, 84
3, 60539, Note_on_c, 1, 43, 0
3, 60540, Note_on_c, 1, 52, 84
3, 60658, Note_on_c, 1, 52, 0
3, 60660, Note_on_c, 1, 40, 84
3, 60714, Note_on_c, 1, 40, 0
3, 60720, Note_on_c, 1, 52, 84
3, 60951, Note_on_c, 1, 52, 0
3, 60961, Note_on_c, 1, 48, 84
3, 61080, Note_on_c, 1, 36, 84
3, 61371, Note_on_c, 1, 48, 0
3, 61380, Note_on_c, 1, 48, 84
3, 61413, Note_on_c, 1, 48, 0
3, 61421, Note_on_c, 1, 36, 0
3, 61440, Note_on_c, 1, 38, 84
3, 61441, Note_on_c, 1, 50, 84
3, 61870, Note_on_c, 1, 50, 0
3, 61873, Note_on_c, 1, 38, 0
3, 61921, Note_on_c, 1, 52, 84
3, 61921, Note_on_c, 1, 40, 84
3, 62365, Note_on_c, 1, 40, 0
3, 62460, Note_on_c, 1, 50, 84
3, 62464, Note_on_c, 1, 52, 0
3, 62505, Note_on_c, 1, 50, 0
3, 62520, Note_on_c, 1, 47, 84
3, 62551, Note_on_c, 1, 47, 0
3, 62580, Note_on_c, 1, 46, 84
3, 62631, Note_on_c, 1, 46, 0
3, 62640, Note_on_c, 1, 45, 84
3, 62697, Note_on_c, 1, 45, 0
3, 62700, Note_on_c, 1, 43, 84
3, 62752, Note_on_c, 1, 43, 0
3, 62760, Note_on_c, 1, 52, 84
3, 62881, Note_on_c, 1, 36, 84
3, 62881, Note_on_c, 1, 48, 84
3, 62911, Note_on_c, 1, 52, 0
3, 63300, Note_on_c, 1, 48, 0
3, 63316, Note_on_c, 1, 36, 0
3, 63360, Note_on_c, 1, 50, 84
3, 63361, Note_on_c, 1, 38, 84
3, 63830, Note_on_c, 1, 50, 0
3, 63831, Note_on_c, 1, 38, 0
3, 63841, Note_on_c, 1, 40, 84
3, 63841, Note_on_c, 1, 52, 84
3, 64352, Note_on_c, 1, 52, 0
3, 64371, Note_on_c, 1, 40, 0
3, 64381, Note_on_c, 1, 50, 84
3, 64437, Note_on_c, 1, 50, 0
3, 64440, Note_on_c, 1, 47, 84
3, 64470, Note_on_c, 1, 47, 0
3, 64500, Note_on_c, 1, 46, 84
3, 64558, Note_on_c, 1, 46, 0
3, 64560, Note_on_c, 1, 45, 84
3, 64610, Note_on_c, 1, 45, 0
3, 64620, Note_on_c, 1, 43, 84
3, 64672, Note_on_c, 1, 43, 0
3, 64680, Note_on_c, 1, 52, 84
3, 64766, Note_on_c, 1, 52, 0
3, 64801, Note_on_c, 1, 36, 84
3, 64801, Note_on_c, 1, 48, 84
3, 65235, Note_on_c, 1, 48, 0
3, 65242, Note_on_c, 1, 36, 0
3, 65280, Note_on_c, 1, 50, 84
3, 65281, Note_on_c, 1, 38, 84
3, 65752, Note_on_c, 1, 38, 0
3, 65755, Note_on_c, 1, 50, 0
3, 65761, Note_on_c, 1, 40, 84
3, 65761, Note_on_c, 1, 52, 84
3, 66276, Note_on_c, 1, 40, 0
3, 66300, Note_on_c, 1, 50, 84
3, 66309, Note_on_c, 1, 52, 0
3, 66356, Note_on_c, 1, 50, 0
3, 66360, Note_on_c, 1, 47, 84
3, 66399, Note_on_c, 1, 47, 0
3, 66421, Note_on_c, 1, 46, 84
3, 66468, Note_on_c, 1, 46, 0
3, 66480, Note_on_c, 1, 45, 84
3, 66540, Note_on_c, 1, 43, 84
3, 66543, Note_on_c, 1, 45, 0
3, 66600, Note_on_c, 1, 52, 84
3, 66601, Note_on_c, 1, 43, 0
3, 66716, Note_on_c, 1, 52, 0
3, 66721, Note_on_c, 1, 40, 84
3, 67077, Note_on_c, 1, 40, 0
3, 67080, Note_on_c, 1, 46, 84
3, 67140, Note_on_c, 1, 45, 84
3, 67151, Note_on_c, 1, 46, 0
3, 67194, Note_on_c, 1, 45, 0
3, 67200, Note_on_c, 1, 43, 84
3, 67251, Note_on_c, 1, 43, 0
3, 67260, Note_on_c, 1, 52, 84
3, 67374, Note_on_c, 1, 52, 0
3, 67380, Note_on_c, 1, 40, 84
3, 67438, Note_on_c, 1, 40, 0
3, 67440, Note_on_c, 1, 52, 84
3, 67676, Note_on_c, 1, 52, 0
3, 67681, Note_on_c, 1, 40, 84
3, 68038, Note_on_c, 1, 40, 0
3, 68040, Note_on_c, 1, 46, 84
3, 68100, Note_on_c, 1, 45, 84
3, 68105, Note_on_c, 1, 46, 0
3, 68145, Note_on_c, 1, 45, 0
3, 68160, Note_on_c, 1, 43, 84
3, 68216, Note_on_c, 1, 43, 0
3, 68220, Note_on_c, 1, 52, 84
3, 68333, Note_on_c, 1, 52, 0
3, 68340, Note_on_c, 1, 40, 84
3, 68400, Note_on_c, 1, 52, 84
3, 68406, Note_on_c, 1, 40, 0
3, 68633, Note_on_c, 1, 52, 0
3, 68641, Note_on_c, 1, 40, 84
3, 69000, Note_on_c, 1, 46, 84
3, 69009, Note_on_c, 1, 40, 0
3, 69060, Note_on_c, 1, 45, 84
3, 69064, Note_on_c, 1, 46, 0
3, 69108, Note_on_c, 1, 45, 0
3, 69120, Note_on_c, 1, 43, 84
3, 69176, Note_on_c, 1, 43, 0
3, 69180, Note_on_c, 1, 52, 84
3, 69290, Note_on_c, 1, 52, 0
3, 69300, Note_on_c, 1, 40, 84
3, 69357, Note_on_c, 1, 40, 0
3, 69360, Note_on_c, 1, 52, 84
3, 69598, Note_on_c, 1, 52, 0
3, 69601, Note_on_c, 1, 40, 84
3, 69954, Note_on_c, 1, 40, 0
3, 69960, Note_on_c, 1, 46, 84
3, 70009, Note_on_c, 1, 46, 0
3, 70020, Note_on_c, 1, 45, 84
3, 70068, Note_on_c, 1, 45, 0
3, 70080, Note_on_c, 1, 43, 84
3, 70140, Note_on_c, 1, 52, 84
3, 70141, Note_on_c, 1, 43, 0
3, 70252, Note_on_c, 1, 52, 0
3, 70260, Note_on_c, 1, 40, 84
3, 70320, Note_on_c, 1, 52, 84
3, 70327, Note_on_c, 1, 40, 0
3, 70440, Note_on_c, 1, 52, 0
3, 70440, End_track
4, 0, Start_track
4, 0, MIDI_port, 0
4, 130, Control_c, 2, 0, 0
4, 131, Control_c, 2, 32, 0
4, 132, Program_c, 2, 32
4, 1800, Note_on_c, 2, 34, 64
4, 1853, Note_on_c, 2, 34, 0
4, 1860, Note_on_c, 2, 33, 64
4, 1897, Note_on_c, 2, 33, 0
4, 1920, Note_on_c, 2, 31, 64
4, 1976, Note_on_c, 2, 31, 0
4, 1980, Note_on_c, 2, 40, 64
4, 2086, Note_on_c, 2, 40, 0
4, 2100, Note_on_c, 2, 28, 64
4, 2145, Note_on_c, 2, 28, 0
4, 2160, Note_on_c, 2, 40, 64
4, 2760, Note_on_c, 2, 34, 64
4, 2769, Note_on_c, 2, 40, 0
4, 2804, Note_on_c, 2, 34, 0
4, 2820, Note_on_c, 2, 33, 64
4, 2855, Note_on_c, 2, 33, 0
4, 2880, Note_on_c, 2, 31, 64
4, 2937, Note_on_c, 2, 31, 0
4, 2940, Note_on_c, 2, 40, 64
4, 3051, Note_on_c, 2, 40, 0
4, 3060, Note_on_c, 2, 28, 64
4, 3111, Note_on_c, 2, 28, 0
4, 3120, Note_on_c, 2, 40, 64
4, 3347, Note_on_c, 2, 40, 0
4, 3720, Note_on_c, 2, 34, 64
4, 3765, Note_on_c, 2, 34, 0
4, 3780, Note_on_c, 2, 33, 64
4, 3816, Note_on_c, 2, 33, 0
4, 3840, Note_on_c, 2, 31, 64
4, 3896, Note_on_c, 2, 31, 0
4, 3900, Note_on_c, 2, 40, 64
4, 4012, Note_on_c, 2, 40, 0
4, 4020, Note_on_c, 2, 28, 64
4, 4079, Note_on_c, 2, 28, 0
4, 4080, Note_on_c, 2, 40, 64
4, 4663, Note_on_c, 2, 40, 0
4, 4680, Note_on_c, 2, 34, 64
4, 4721, Note_on_c, 2, 34, 0
4, 4740, Note_on_c, 2, 33, 64
4, 4780, Note_on_c, 2, 33, 0
4, 4800, Note_on_c, 2, 31, 64
4, 4853, Note_on_c, 2, 31, 0
4, 4860, Note_on_c, 2, 40, 64
4, 4974, Note_on_c, 2, 40, 0
4, 4980, Note_on_c, 2, 28, 64
4, 5025, Note_on_c, 2, 28, 0
4, 5040, Note_on_c, 2, 40, 64
4, 5195, Note_on_c, 2, 40, 0
4, 5220, Note_on_c, 2, 40, 64
4, 5245, Note_on_c, 2, 40, 0
4, 5281, Note_on_c, 2, 28, 64
4, 5405, Note_on_c, 2, 28, 0
4, 5460, Note_on_c, 2, 28, 64
4, 5491, Note_on_c, 2, 28, 0
4, 5520, Note_on_c, 2, 28, 64
4, 5626, Note_on_c, 2, 28, 0
4, 5640, Note_on_c, 2, 34, 64
4, 5692, Note_on_c, 2, 34, 0
4, 5700, Note_on_c, 2, 33, 64
4, 5737, Note_on_c, 2, 33, 0
4, 5760, Note_on_c, 2, 31, 64
4, 5811, Note_on_c, 2, 31, 0
4, 5820, Note_on_c, 2, 40, 64
4, 5934, Note_on_c, 2, 40, 0
4, 5940, Note_on_c, 2, 28, 64
4, 5986, Note_on_c, 2, 28, 0
4, 6000, Note_on_c, 2, 40, 64
4, 6226, Note_on_c, 2, 40, 0
4, 6241, Note_on_c, 2, 28, 64
4, 6369, Note_on_c, 2, 28, 0
4, 6420, Note_on_c, 2, 28, 64
4, 6451, Note_on_c, 2, 28, 0
4, 6480, Note_on_c, 2, 28, 64
4, 6596, Note_on_c, 2, 28, 0
4, 6600, Note_on_c, 2, 34, 64
4, 6648, Note_on_c, 2, 34, 0
4, 6660, Note_on_c, 2, 33, 64
4, 6702, Note_on_c, 2, 33, 0
4, 6720, Note_on_c, 2, 31, 64
4, 6772, Note_on_c, 2, 31, 0
4, 6780, Note_on_c, 2, 40, 64
4, 6897, Note_on_c, 2, 40, 0
4, 6900, Note_on_c, 2, 28, 64
4, 6942, Note_on_c, 2, 28, 0
4, 6960, Note_on_c, 2, 40, 64
4, 7121, Note_on_c, 2, 40, 0
4, 7140, Note_on_c, 2, 40, 64
4, 7147, Note_on_c, 2, 40, 0
4, 7201, Note_on_c, 2, 28, 64
4, 7335, Note_on_c, 2, 28, 0
4, 7380, Note_on_c, 2, 28, 64
4, 7408, Note_on_c, 2, 28, 0
4, 7440, Note_on_c, 2, 28, 64
4, 7542, Note_on_c, 2, 28, 0
4, 7560, Note_on_c, 2, 34, 64
4, 7610, Note_on_c, 2, 34, 0
4, 7620, Note_on_c, 2, 33, 64
4, 7659, Note_on_c, 2, 33, 0
4, 7680, Note_on_c, 2, 31, 64
4, 7729, Note_on_c, 2, 31, 0
4, 7740, Note_on_c, 2, 40, 64
4, 7859, Note_on_c, 2, 40, 0
4, 7860, Note_on_c, 2, 28, 64
4, 7913, Note_on_c, 2, 28, 0
4, 7921, Note_on_c, 2, 40, 64
4, 8072, Note_on_c, 2, 40, 0
4, 8100, Note_on_c, 2, 40, 64
4, 8117, Note_on_c, 2, 40, 0
4, 8161, Note_on_c, 2, 28, 64
4, 8296, Note_on_c, 2, 28, 0
4, 8340, Note_on_c, 2, 28, 64
4, 8365, Note_on_c, 2, 28, 0
4, 8401, Note_on_c, 2, 28, 64
4, 8513, Note_on_c, 2, 28, 0
4, 8520, Note_on_c, 2, 34, 64
4, 8567, Note_on_c, 2, 34, 0
4, 8580, Note_on_c, 2, 33, 64
4, 8622, Note_on_c, 2, 33, 0
4, 8640, Note_on_c, 2, 31, 64
4, 8691, Note_on_c, 2, 31, 0
4, 8700, Note_on_c, 2, 40, 64
4, 8813, Note_on_c, 2, 40, 0
4, 8820, Note_on_c, 2, 28, 64
4, 8863, Note_on_c, 2, 28, 0
4, 8880, Note_on_c, 2, 40, 64
4, 9038, Note_on_c, 2, 40, 0
4, 9060, Note_on_c, 2, 40, 64
4, 9085, Note_on_c, 2, 40, 0
4, 9121, Note_on_c, 2, 31, 64
4, 9263, Note_on_c, 2, 31, 0
4, 9300, Note_on_c, 2, 31, 64
4, 9323, Note_on_c, 2, 31, 0
4, 9360, Note_on_c, 2, 31, 64
4, 9515, Note_on_c, 2, 31, 0
4, 9540, Note_on_c, 2, 31, 64
4, 9577, Note_on_c, 2, 31, 0
4, 9600, Note_on_c, 2, 28, 64
4, 9746, Note_on_c, 2, 28, 0
4, 9780, Note_on_c, 2, 28, 64
4, 9806, Note_on_c, 2, 28, 0
4, 9841, Note_on_c, 2, 28, 64
4, 9982, Note_on_c, 2, 28, 0
4, 10020, Note_on_c, 2, 28, 64
4, 10045, Note_on_c, 2, 28, 0
4, 10081, Note_on_c, 2, 28, 64
4, 10209, Note_on_c, 2, 28, 0
4, 10261, Note_on_c, 2, 28, 64
4, 10285, Note_on_c, 2, 28, 0
4, 10321, Note_on_c, 2, 28, 64
4, 10422, Note_on_c, 2, 28, 0
4, 10440, Note_on_c, 2, 34, 64
4, 10492, Note_on_c, 2, 34, 0
4, 10500, Note_on_c, 2, 33, 64
4, 10540, Note_on_c, 2, 33, 0
4, 10560, Note_on_c, 2, 31, 64
4, 10611, Note_on_c, 2, 31, 0
4, 10620, Note_on_c, 2, 40, 64
4, 10730, Note_on_c, 2, 40, 0
4, 10740, Note_on_c, 2, 28, 64
4, 10785, Note_on_c, 2, 28, 0
4, 10801, Note_on_c, 2, 40, 64
4, 10946, Note_on_c, 2, 40, 0
4, 10980, Note_on_c, 2, 40, 64
4, 10996, Note_on_c, 2, 40, 0
4, 11041, Note_on_c, 2, 28, 64
4, 11180, Note_on_c, 2, 28, 0
4, 11220, Note_on_c, 2, 28, 64
4, 11244, Note_on_c, 2, 28, 0
4, 11281, Note_on_c, 2, 28, 64
4, 11388, Note_on_c, 2, 28, 0
4, 11400, Note_on_c, 2, 34, 64
4, 11455, Note_on_c, 2, 34, 0
4, 11460, Note_on_c, 2, 33, 64
4, 11501, Note_on_c, 2, 33, 0
4, 11520, Note_on_c, 2, 31, 64
4, 11569, Note_on_c, 2, 31, 0
4, 11580, Note_on_c, 2, 40, 64
4, 11700, Note_on_c, 2, 40, 0
4, 11701, Note_on_c, 2, 28, 64
4, 11750, Note_on_c, 2, 28, 0
4, 11760, Note_on_c, 2, 40, 64
4, 11897, Note_on_c, 2, 40, 0
4, 11940, Note_on_c, 2, 40, 64
4, 11943, Note_on_c, 2, 40, 0
4, 12001, Note_on_c, 2, 28, 64
4, 12138, Note_on_c, 2, 28, 0
4, 12180, Note_on_c, 2, 28, 64
4, 12204, Note_on_c, 2, 28, 0
4, 12240, Note_on_c, 2, 28, 64
4, 12341, Note_on_c, 2, 28, 0
4, 12360, Note_on_c, 2, 34, 64
4, 12405, Note_on_c, 2, 34, 0
4, 12420, Note_on_c, 2, 33, 64
4, 12463, Note_on_c, 2, 33, 0
4, 12480, Note_on_c, 2, 31, 64
4, 12529, Note_on_c, 2, 31, 0
4, 12541, Note_on_c, 2, 40, 64
4, 12656, Note_on_c, 2, 40, 0
4, 12660, Note_on_c, 2, 28, 64
4, 12706, Note_on_c, 2, 28, 0
4, 12720, Note_on_c, 2, 40, 64
4, 12865, Note_on_c, 2, 40, 0
4, 12900, Note_on_c, 2, 40, 64
4, 12913, Note_on_c, 2, 40, 0
4, 12961, Note_on_c, 2, 28, 64
4, 13107, Note_on_c, 2, 28, 0
4, 13140, Note_on_c, 2, 28, 64
4, 13167, Note_on_c, 2, 28, 0
4, 13200, Note_on_c, 2, 28, 64
4, 13310, Note_on_c, 2, 28, 0
4, 13320, Note_on_c, 2, 34, 64
4, 13376, Note_on_c, 2, 34, 0
4, 13380, Note_on_c, 2, 33, 64
4, 13428, Note_on_c, 2, 33, 0
4, 13440, Note_on_c, 2, 31, 64
4, 13490, Note_on_c, 2, 31, 0
4, 13501, Note_on_c, 2, 40, 64
4, 13617, Note_on_c, 2, 40, 0
4, 13620, Note_on_c, 2, 28, 64
4, 13676, Note_on_c, 2, 28, 0
4, 13680, Note_on_c, 2, 40, 64
4, 13828, Note_on_c, 2, 40, 0
4, 13860, Note_on_c, 2, 40, 64
4, 13891, Note_on_c, 2, 40, 0
4, 13921, Note_on_c, 2, 36, 64
4, 14075, Note_on_c, 2, 36, 0
4, 14100, Note_on_c, 2, 36, 64
4, 14121, Note_on_c, 2, 36, 0
4, 14160, Note_on_c, 2, 36, 64
4, 14296, Note_on_c, 2, 36, 0
4, 14340, Note_on_c, 2, 36, 64
4, 14378, Note_on_c, 2, 36, 0
4, 14400, Note_on_c, 2, 38, 64
4, 14535, Note_on_c, 2, 38, 0
4, 14580, Note_on_c, 2, 38, 64
4, 14596, Note_on_c, 2, 38, 0
4, 14640, Note_on_c, 2, 38, 64
4, 14778, Note_on_c, 2, 38, 0
4, 14820, Note_on_c, 2, 38, 64
4, 14846, Note_on_c, 2, 38, 0
4, 14881, Note_on_c, 2, 39, 64
4, 14940, Note_on_c, 2, 40, 64
4, 14947, Note_on_c, 2, 39, 0
4, 14961, Note_on_c, 2, 40, 0
4, 15000, Note_on_c, 2, 40, 64
4, 15007, Note_on_c, 2, 40, 0
4, 15060, Note_on_c, 2, 40, 64
4, 15114, Note_on_c, 2, 40, 0
4, 15120, Note_on_c, 2, 39, 64
4, 15179, Note_on_c, 2, 39, 0
4, 15180, Note_on_c, 2, 40, 64
4, 15194, Note_on_c, 2, 40, 0
4, 15240, Note_on_c, 2, 40, 64
4, 15247, Note_on_c, 2, 40, 0
4, 15300, Note_on_c, 2, 40, 64
4, 15315, Note_on_c, 2, 40, 0
4, 15360, Note_on_c, 2, 40, 64
4, 15412, Note_on_c, 2, 40, 0
4, 15420, Note_on_c, 2, 38, 64
4, 15472, Note_on_c, 2, 38, 0
4, 15480, Note_on_c, 2, 35, 64
4, 15510, Note_on_c, 2, 35, 0
4, 15540, Note_on_c, 2, 34, 64
4, 15568, Note_on_c, 2, 34, 0
4, 15600, Note_on_c, 2, 33, 64
4, 15658, Note_on_c, 2, 33, 0
4, 15660, Note_on_c, 2, 31, 64
4, 15712, Note_on_c, 2, 31, 0
4, 15720, Note_on_c, 2, 40, 64
4, 15820, Note_on_c, 2, 40, 0
4, 15841, Note_on_c, 2, 28, 64
4, 15959, Note_on_c, 2, 28, 0
4, 16020, Note_on_c, 2, 28, 64
4, 16056, Note_on_c, 2, 28, 0
4, 16080, Note_on_c, 2, 28, 64
4, 16181, Note_on_c, 2, 28, 0
4, 16200, Note_on_c, 2, 34, 64
4, 16260, Note_on_c, 2, 33, 64
4, 16267, Note_on_c, 2, 34, 0
4, 16312, Note_on_c, 2, 33, 0
4, 16320, Note_on_c, 2, 31, 64
4, 16377, Note_on_c, 2, 31, 0
4, 16380, Note_on_c, 2, 40, 64
4, 16486, Note_on_c, 2, 40, 0
4, 16500, Note_on_c, 2, 28, 64
4, 16551, Note_on_c, 2, 28, 0
4, 16560, Note_on_c, 2, 40, 64
4, 16737, Note_on_c, 2, 40, 0
4, 16801, Note_on_c, 2, 28, 64
4, 16935, Note_on_c, 2, 28, 0
4, 16980, Note_on_c, 2, 28, 64
4, 17004, Note_on_c, 2, 28, 0
4, 17040, Note_on_c, 2, 28, 64
4, 17142, Note_on_c, 2, 28, 0
4, 17160, Note_on_c, 2, 34, 64
4, 17216, Note_on_c, 2, 34, 0
4, 17220, Note_on_c, 2, 33, 64
4, 17266, Note_on_c, 2, 33, 0
4, 17280, Note_on_c, 2, 31, 64
4, 17336, Note_on_c, 2, 31, 0
4, 17340, Note_on_c, 2, 40, 64
4, 17458, Note_on_c, 2, 40, 0
4, 17460, Note_on_c, 2, 28, 64
4, 17504, Note_on_c, 2, 28, 0
4, 17520, Note_on_c, 2, 40, 64
4, 17693, Note_on_c, 2, 40, 0
4, 17700, Note_on_c, 2, 28, 64
4, 17741, Note_on_c, 2, 28, 0
4, 17761, Note_on_c, 2, 31, 64
4, 17904, Note_on_c, 2, 31, 0
4, 17940, Note_on_c, 2, 31, 64
4, 17958, Note_on_c, 2, 31, 0
4, 18000, Note_on_c, 2, 31, 64
4, 18130, Note_on_c, 2, 31, 0
4, 18180, Note_on_c, 2, 31, 64
4, 18214, Note_on_c, 2, 31, 0
4, 18240, Note_on_c, 2, 28, 64
4, 18388, Note_on_c, 2, 28, 0
4, 18420, Note_on_c, 2, 28, 64
4, 18445, Note_on_c, 2, 28, 0
4, 18480, Note_on_c, 2, 28, 64
4, 18637, Note_on_c, 2, 28, 0
4, 18660, Note_on_c, 2, 40, 64
4, 18681, Note_on_c, 2, 40, 0
4, 18721, Note_on_c, 2, 28, 64
4, 18863, Note_on_c, 2, 28, 0
4, 18900, Note_on_c, 2, 28, 64
4, 18925, Note_on_c, 2, 28, 0
4, 18960, Note_on_c, 2, 28, 64
4, 19062, Note_on_c, 2, 28, 0
4, 19080, Note_on_c, 2, 34, 64
4, 19138, Note_on_c, 2, 34, 0
4, 19140, Note_on_c, 2, 33, 64
4, 19176, Note_on_c, 2, 33, 0
4, 19200, Note_on_c, 2, 31, 64
4, 19251, Note_on_c, 2, 31, 0
4, 19260, Note_on_c, 2, 40, 64
4, 19368, Note_on_c, 2, 40, 0
4, 19380, Note_on_c, 2, 28, 64
4, 19423, Note_on_c, 2, 28, 0
4, 19440, Note_on_c, 2, 40, 64
4, 19575, Note_on_c, 2, 40, 0
4, 19620, Note_on_c, 2, 40, 64
4, 19666, Note_on_c, 2, 40, 0
4, 19681, Note_on_c, 2, 28, 64
4, 19820, Note_on_c, 2, 28, 0
4, 19860, Note_on_c, 2, 28, 64
4, 19886, Note_on_c, 2, 28, 0
4, 19920, Note_on_c, 2, 28, 64
4, 20019, Note_on_c, 2, 28, 0
4, 20040, Note_on_c, 2, 34, 64
4, 20100, Note_on_c, 2, 33, 64
4, 20101, Note_on_c, 2, 34, 0
4, 20138, Note_on_c, 2, 33, 0
4, 20160, Note_on_c, 2, 31, 64
4, 20210, Note_on_c, 2, 31, 0
4, 20220, Note_on_c, 2, 40, 64
4, 20332, Note_on_c, 2, 40, 0
4, 20340, Note_on_c, 2, 28, 64
4, 20385, Note_on_c, 2, 28, 0
4, 20400, Note_on_c, 2, 40, 64
4, 20531, Note_on_c, 2, 40, 0
4, 20580, Note_on_c, 2, 40, 64
4, 20603, Note_on_c, 2, 40, 0
4, 20641, Note_on_c, 2, 28, 64
4, 20776, Note_on_c, 2, 28, 0
4, 20820, Note_on_c, 2, 28, 64
4, 20848, Note_on_c, 2, 28, 0
4, 20880, Note_on_c, 2, 28, 64
4, 20993, Note_on_c, 2, 28, 0
4, 21000, Note_on_c, 2, 34, 64
4, 21054, Note_on_c, 2, 34, 0
4, 21060, Note_on_c, 2, 33, 64
4, 21105, Note_on_c, 2, 33, 0
4, 21120, Note_on_c, 2, 31, 64
4, 21170, Note_on_c, 2, 31, 0
4, 21180, Note_on_c, 2, 40, 64
4, 21297, Note_on_c, 2, 40, 0
4, 21300, Note_on_c, 2, 28, 64
4, 21338, Note_on_c, 2, 28, 0
4, 21360, Note_on_c, 2, 40, 64
4, 21493, Note_on_c, 2, 40, 0
4, 21540, Note_on_c, 2, 40, 64
4, 21575, Note_on_c, 2, 40, 0
4, 21601, Note_on_c, 2, 28, 64
4, 21732, Note_on_c, 2, 28, 0
4, 21780, Note_on_c, 2, 28, 64
4, 21806, Note_on_c, 2, 28, 0
4, 21840, Note_on_c, 2, 28, 64
4, 21957, Note_on_c, 2, 28, 0
4, 21960, Note_on_c, 2, 34, 64
4, 22016, Note_on_c, 2, 34, 0
4, 22020, Note_on_c, 2, 33, 64
4, 22063, Note_on_c, 2, 33, 0
4, 22080, Note_on_c, 2, 31, 64
4, 22128, Note_on_c, 2, 31, 0
4, 22140, Note_on_c, 2, 40, 64
4, 22252, Note_on_c, 2, 40, 0
4, 22260, Note_on_c, 2, 28, 64
4, 22309, Note_on_c, 2, 28, 0
4, 22320, Note_on_c, 2, 40, 64
4, 22495, Note_on_c, 2, 40, 0
4, 22500, Note_on_c, 2, 28, 64
4, 22545, Note_on_c, 2, 28, 0
4, 22561, Note_on_c, 2, 36, 64
4, 22702, Note_on_c, 2, 36, 0
4, 22740, Note_on_c, 2, 36, 64
4, 22760, Note_on_c, 2, 36, 0
4, 22800, Note_on_c, 2, 36, 64
4, 22939, Note_on_c, 2, 36, 0
4, 22980, Note_on_c, 2, 36, 64
4, 23019, Note_on_c, 2, 36, 0
4, 23040, Note_on_c, 2, 38, 64
4, 23182, Note_on_c, 2, 38, 0
4, 23220, Note_on_c, 2, 38, 64
4, 23236, Note_on_c, 2, 38, 0
4, 23280, Note_on_c, 2, 38, 64
4, 23493, Note_on_c, 2, 38, 0
4, 23521, Note_on_c, 2, 39, 64
4, 23577, Note_on_c, 2, 39, 0
4, 23580, Note_on_c, 2, 40, 64
4, 23618, Note_on_c, 2, 40, 0
4, 23640, Note_on_c, 2, 40, 64
4, 23650, Note_on_c, 2, 40, 0
4, 23700, Note_on_c, 2, 40, 64
4, 23752, Note_on_c, 2, 40, 0
4, 23760, Note_on_c, 2, 39, 64
4, 23817, Note_on_c, 2, 39, 0
4, 23820, Note_on_c, 2, 40, 64
4, 23835, Note_on_c, 2, 40, 0
4, 23880, Note_on_c, 2, 40, 64
4, 23891, Note_on_c, 2, 40, 0
4, 23940, Note_on_c, 2, 40, 64
4, 23958, Note_on_c, 2, 40, 0
4, 24000, Note_on_c, 2, 40, 64
4, 24060, Note_on_c, 2, 38, 64
4, 24065, Note_on_c, 2, 40, 0
4, 24108, Note_on_c, 2, 38, 0
4, 24120, Note_on_c, 2, 35, 64
4, 24150, Note_on_c, 2, 35, 0
4, 24180, Note_on_c, 2, 34, 64
4, 24227, Note_on_c, 2, 34, 0
4, 24240, Note_on_c, 2, 33, 64
4, 24295, Note_on_c, 2, 33, 0
4, 24300, Note_on_c, 2, 31, 64
4, 24355, Note_on_c, 2, 31, 0
4, 24360, Note_on_c, 2, 40, 64
4, 24465, Note_on_c, 2, 40, 0
4, 24481, Note_on_c, 2, 28, 64
4, 24608, Note_on_c, 2, 28, 0
4, 24660, Note_on_c, 2, 28, 64
4, 24685, Note_on_c, 2, 28, 0
4, 24720, Note_on_c, 2, 28, 64
4, 24825, Note_on_c, 2, 28, 0
4, 24840, Note_on_c, 2, 34, 64
4, 24900, Note_on_c, 2, 33, 64
4, 24904, Note_on_c, 2, 34, 0
4, 24946, Note_on_c, 2, 33, 0
4, 24960, Note_on_c, 2, 31, 64
4, 25005, Note_on_c, 2, 31, 0
4, 25021, Note_on_c, 2, 40, 64
4, 25072, Note_on_c, 2, 40, 0
4, 25140, Note_on_c, 2, 28, 64
4, 25185, Note_on_c, 2, 28, 0
4, 25200, Note_on_c, 2, 40, 64
4, 25339, Note_on_c, 2, 40, 0
4, 25380, Note_on_c, 2, 40, 64
4, 25399, Note_on_c, 2, 40, 0
4, 25441, Note_on_c, 2, 28, 64
4, 25553, Note_on_c, 2, 28, 0
4, 25620, Note_on_c, 2, 28, 64
4, 25659, Note_on_c, 2, 28, 0
4, 25680, Note_on_c, 2, 28, 64
4, 25774, Note_on_c, 2, 28, 0
4, 25800, Note_on_c, 2, 34, 64
4, 25858, Note_on_c, 2, 34, 0
4, 25860, Note_on_c, 2, 33, 64
4, 25903, Note_on_c, 2, 33, 0
4, 25920, Note_on_c, 2, 31, 64
4, 25973, Note_on_c, 2, 31, 0
4, 25980, Note_on_c, 2, 40, 64
4, 26097, Note_on_c, 2, 40, 0
4, 26100, Note_on_c, 2, 28, 64
4, 26150, Note_on_c, 2, 28, 0
4, 26160, Note_on_c, 2, 40, 64
4, 26368, Note_on_c, 2, 40, 0
4, 26401, Note_on_c, 2, 28, 64
4, 26531, Note_on_c, 2, 28, 0
4, 26580, Note_on_c, 2, 28, 64
4, 26610, Note_on_c, 2, 28, 0
4, 26640, Note_on_c, 2, 28, 64
4, 26754, Note_on_c, 2, 28, 0
4, 26760, Note_on_c, 2, 34, 64
4, 26820, Note_on_c, 2, 33, 64
4, 26821, Note_on_c, 2, 34, 0
4, 26869, Note_on_c, 2, 33, 0
4, 26880, Note_on_c, 2, 31, 64
4, 26929, Note_on_c, 2, 31, 0
4, 26940, Note_on_c, 2, 40, 64
4, 27053, Note_on_c, 2, 40, 0
4, 27060, Note_on_c, 2, 28, 64
4, 27101, Note_on_c, 2, 28, 0
4, 27120, Note_on_c, 2, 40, 64
4, 27253, Note_on_c, 2, 40, 0
4, 27300, Note_on_c, 2, 40, 64
4, 27311, Note_on_c, 2, 40, 0
4, 27361, Note_on_c, 2, 28, 64
4, 27492, Note_on_c, 2, 28, 0
4, 27540, Note_on_c, 2, 28, 64
4, 27566, Note_on_c, 2, 28, 0
4, 27600, Note_on_c, 2, 28, 64
4, 27706, Note_on_c, 2, 28, 0
4, 27720, Note_on_c, 2, 34, 64
4, 27776, Note_on_c, 2, 34, 0
4, 27780, Note_on_c, 2, 33, 64
4, 27818, Note_on_c, 2, 33, 0
4, 27840, Note_on_c, 2, 31, 64
4, 27894, Note_on_c, 2, 31, 0
4, 27900, Note_on_c, 2, 40, 64
4, 28020, Note_on_c, 2, 40, 0
4, 28021, Note_on_c, 2, 28, 64
4, 28065, Note_on_c, 2, 28, 0
4, 28080, Note_on_c, 2, 40, 64
4, 28209, Note_on_c, 2, 40, 0
4, 28260, Note_on_c, 2, 40, 64
4, 28283, Note_on_c, 2, 40, 0
4, 28321, Note_on_c, 2, 28, 64
4, 28457, Note_on_c, 2, 28, 0
4, 28500, Note_on_c, 2, 28, 64
4, 28521, Note_on_c, 2, 28, 0
4, 28560, Note_on_c, 2, 28, 64
4, 28680, Note_on_c, 2, 34, 64
4, 28684, Note_on_c, 2, 28, 0
4, 28735, Note_on_c, 2, 34, 0
4, 28740, Note_on_c, 2, 33, 64
4, 28793, Note_on_c, 2, 33, 0
4, 28800, Note_on_c, 2, 31, 64
4, 28857, Note_on_c, 2, 31, 0
4, 28861, Note_on_c, 2, 40, 64
4, 28971, Note_on_c, 2, 40, 0
4, 28980, Note_on_c, 2, 28, 64
4, 29031, Note_on_c, 2, 28, 0
4, 29040, Note_on_c, 2, 40, 64
4, 29160, Note_on_c, 2, 40, 0
4, 29220, Note_on_c, 2, 40, 64
4, 29266, Note_on_c, 2, 40, 0
4, 29281, Note_on_c, 2, 28, 64
4, 29406, Note_on_c, 2, 28, 0
4, 29460, Note_on_c, 2, 28, 64
4, 29486, Note_on_c, 2, 28, 0
4, 29520, Note_on_c, 2, 28, 64
4, 29626, Note_on_c, 2, 28, 0
4, 29640, Note_on_c, 2, 34, 64
4, 29700, Note_on_c, 2, 34, 0
4, 29701, Note_on_c, 2, 33, 64
4, 29738, Note_on_c, 2, 33, 0
4, 29760, Note_on_c, 2, 31, 64
4, 29811, Note_on_c, 2, 31, 0
4, 29821, Note_on_c, 2, 40, 64
4, 29933, Note_on_c, 2, 40, 0
4, 29940, Note_on_c, 2, 28, 64
4, 29985, Note_on_c, 2, 28, 0
4, 30000, Note_on_c, 2, 40, 64
4, 30131, Note_on_c, 2, 40, 0
4, 30180, Note_on_c, 2, 40, 64
4, 30195, Note_on_c, 2, 40, 0
4, 30241, Note_on_c, 2, 28, 64
4, 30369, Note_on_c, 2, 28, 0
4, 30420, Note_on_c, 2, 28, 64
4, 30446, Note_on_c, 2, 28, 0
4, 30480, Note_on_c, 2, 28, 64
4, 30589, Note_on_c, 2, 28, 0
4, 30600, Note_on_c, 2, 34, 64
4, 30654, Note_on_c, 2, 34, 0
4, 30660, Note_on_c, 2, 33, 64
4, 30705, Note_on_c, 2, 33, 0
4, 30720, Note_on_c, 2, 31, 64
4, 30774, Note_on_c, 2, 31, 0
4, 30780, Note_on_c, 2, 40, 64
4, 30895, Note_on_c, 2, 40, 0
4, 30900, Note_on_c, 2, 28, 64
4, 30953, Note_on_c, 2, 28, 0
4, 30960, Note_on_c, 2, 40, 64
4, 31082, Note_on_c, 2, 40, 0
4, 31140, Note_on_c, 2, 40, 64
4, 31155, Note_on_c, 2, 40, 0
4, 31201, Note_on_c, 2, 28, 64
4, 31326, Note_on_c, 2, 28, 0
4, 31380, Note_on_c, 2, 28, 64
4, 31402, Note_on_c, 2, 28, 0
4, 31440, Note_on_c, 2, 28, 64
4, 31549, Note_on_c, 2, 28, 0
4, 31560, Note_on_c, 2, 34, 64
4, 31615, Note_on_c, 2, 34, 0
4, 31620, Note_on_c, 2, 33, 64
4, 31656, Note_on_c, 2, 33, 0
4, 31680, Note_on_c, 2, 31, 64
4, 31735, Note_on_c, 2, 31, 0
4, 31740, Note_on_c, 2, 40, 64
4, 31850, Note_on_c, 2, 40, 0
4, 31860, Note_on_c, 2, 28, 64
4, 31902, Note_on_c, 2, 28, 0
4, 31920, Note_on_c, 2, 40, 64
4, 32086, Note_on_c, 2, 40, 0
4, 32100, Note_on_c, 2, 40, 64
4, 32149, Note_on_c, 2, 40, 0
4, 32161, Note_on_c, 2, 28, 64
4, 32296, Note_on_c, 2, 28, 0
4, 32340, Note_on_c, 2, 28, 64
4, 32370, Note_on_c, 2, 28, 0
4, 32400, Note_on_c, 2, 28, 64
4, 32501, Note_on_c, 2, 28, 0
4, 32520, Note_on_c, 2, 34, 64
4, 32578, Note_on_c, 2, 34, 0
4, 32580, Note_on_c, 2, 33, 64
4, 32621, Note_on_c, 2, 33, 0
4, 32640, Note_on_c, 2, 31, 64
4, 32691, Note_on_c, 2, 31, 0
4, 32700, Note_on_c, 2, 40, 64
4, 32813, Note_on_c, 2, 40, 0
4, 32820, Note_on_c, 2, 28, 64
4, 32868, Note_on_c, 2, 28, 0
4, 32880, Note_on_c, 2, 40, 64
4, 33021, Note_on_c, 2, 40, 0
4, 33060, Note_on_c, 2, 40, 64
4, 33106, Note_on_c, 2, 40, 0
4, 33121, Note_on_c, 2, 28, 64
4, 33251, Note_on_c, 2, 28, 0
4, 33300, Note_on_c, 2, 28, 64
4, 33323, Note_on_c, 2, 28, 0
4, 33360, Note_on_c, 2, 28, 64
4, 33465, Note_on_c, 2, 28, 0
4, 33480, Note_on_c, 2, 34, 64
4, 33530, Note_on_c, 2, 34, 0
4, 33540, Note_on_c, 2, 33, 64
4, 33578, Note_on_c, 2, 33, 0
4, 33600, Note_on_c, 2, 31, 64
4, 33654, Note_on_c, 2, 31, 0
4, 33660, Note_on_c, 2, 40, 64
4, 33776, Note_on_c, 2, 40, 0
4, 33780, Note_on_c, 2, 28, 64
4, 33823, Note_on_c, 2, 28, 0
4, 33840, Note_on_c, 2, 40, 64
4, 34001, Note_on_c, 2, 40, 0
4, 34020, Note_on_c, 2, 28, 64
4, 34069, Note_on_c, 2, 28, 0
4, 34081, Note_on_c, 2, 31, 64
4, 34222, Note_on_c, 2, 31, 0
4, 34260, Note_on_c, 2, 31, 64
4, 34280, Note_on_c, 2, 31, 0
4, 34320, Note_on_c, 2, 31, 64
4, 34456, Note_on_c, 2, 31, 0
4, 34500, Note_on_c, 2, 31, 64
4, 34535, Note_on_c, 2, 31, 0
4, 34560, Note_on_c, 2, 28, 64
4, 34695, Note_on_c, 2, 28, 0
4, 34740, Note_on_c, 2, 28, 64
4, 34773, Note_on_c, 2, 28, 0
4, 34800, Note_on_c, 2, 28, 64
4, 34965, Note_on_c, 2, 28, 0
4, 34980, Note_on_c, 2, 40, 64
4, 34995, Note_on_c, 2, 40, 0
4, 35041, Note_on_c, 2, 28, 64
4, 35178, Note_on_c, 2, 28, 0
4, 35220, Note_on_c, 2, 28, 64
4, 35250, Note_on_c, 2, 28, 0
4, 35280, Note_on_c, 2, 28, 64
4, 35375, Note_on_c, 2, 28, 0
4, 35400, Note_on_c, 2, 34, 64
4, 35446, Note_on_c, 2, 34, 0
4, 35460, Note_on_c, 2, 33, 64
4, 35506, Note_on_c, 2, 33, 0
4, 35520, Note_on_c, 2, 31, 64
4, 35568, Note_on_c, 2, 31, 0
4, 35580, Note_on_c, 2, 40, 64
4, 35697, Note_on_c, 2, 40, 0
4, 35700, Note_on_c, 2, 28, 64
4, 35748, Note_on_c, 2, 28, 0
4, 35760, Note_on_c, 2, 40, 64
4, 35899, Note_on_c, 2, 40, 0
4, 35941, Note_on_c, 2, 40, 64
4, 35965, Note_on_c, 2, 40, 0
4, 36001, Note_on_c, 2, 28, 64
4, 36141, Note_on_c, 2, 28, 0
4, 36180, Note_on_c, 2, 28, 64
4, 36206, Note_on_c, 2, 28, 0
4, 36240, Note_on_c, 2, 28, 64
4, 36350, Note_on_c, 2, 28, 0
4, 36360, Note_on_c, 2, 34, 64
4, 36421, Note_on_c, 2, 34, 0
4, 36421, Note_on_c, 2, 33, 64
4, 36466, Note_on_c, 2, 33, 0
4, 36480, Note_on_c, 2, 31, 64
4, 36531, Note_on_c, 2, 31, 0
4, 36540, Note_on_c, 2, 40, 64
4, 36652, Note_on_c, 2, 40, 0
4, 36660, Note_on_c, 2, 28, 64
4, 36709, Note_on_c, 2, 28, 0
4, 36720, Note_on_c, 2, 40, 64
4, 36849, Note_on_c, 2, 40, 0
4, 36901, Note_on_c, 2, 40, 64
4, 36916, Note_on_c, 2, 40, 0
4, 36961, Note_on_c, 2, 28, 64
4, 37094, Note_on_c, 2, 28, 0
4, 37140, Note_on_c, 2, 28, 64
4, 37162, Note_on_c, 2, 28, 0
4, 37200, Note_on_c, 2, 28, 64
4, 37311, Note_on_c, 2, 28, 0
4, 37320, Note_on_c, 2, 34, 64
4, 37381, Note_on_c, 2, 33, 64
4, 37385, Note_on_c, 2, 34, 0
4, 37418, Note_on_c, 2, 33, 0
4, 37440, Note_on_c, 2, 31, 64
4, 37487, Note_on_c, 2, 31, 0
4, 37500, Note_on_c, 2, 40, 64
4, 37611, Note_on_c, 2, 40, 0
4, 37620, Note_on_c, 2, 28, 64
4, 37665, Note_on_c, 2, 28, 0
4, 37680, Note_on_c, 2, 40, 64
4, 37814, Note_on_c, 2, 40, 0
4, 37861, Note_on_c, 2, 40, 64
4, 37897, Note_on_c, 2, 40, 0
4, 37921, Note_on_c, 2, 28, 64
4, 38045, Note_on_c, 2, 28, 0
4, 38100, Note_on_c, 2, 28, 64
4, 38130, Note_on_c, 2, 28, 0
4, 38160, Note_on_c, 2, 28, 64
4, 38258, Note_on_c, 2, 28, 0
4, 38280, Note_on_c, 2, 34, 64
4, 38336, Note_on_c, 2, 34, 0
4, 38340, Note_on_c, 2, 33, 64
4, 38387, Note_on_c, 2, 33, 0
4, 38400, Note_on_c, 2, 31, 64
4, 38445, Note_on_c, 2, 31, 0
4, 38460, Note_on_c, 2, 40, 64
4, 38574, Note_on_c, 2, 40, 0
4, 38580, Note_on_c, 2, 28, 64
4, 38635, Note_on_c, 2, 28, 0
4, 38640, Note_on_c, 2, 40, 64
4, 38816, Note_on_c, 2, 40, 0
4, 38820, Note_on_c, 2, 28, 64
4, 38863, Note_on_c, 2, 28, 0
4, 38881, Note_on_c, 2, 36, 64
4, 39019, Note_on_c, 2, 36, 0
4, 39060, Note_on_c, 2, 36, 64
4, 39086, Note_on_c, 2, 36, 0
4, 39120, Note_on_c, 2, 36, 64
4, 39254, Note_on_c, 2, 36, 0
4, 39300, Note_on_c, 2, 36, 64
4, 39326, Note_on_c, 2, 36, 0
4, 39360, Note_on_c, 2, 38, 64
4, 39494, Note_on_c, 2, 38, 0
4, 39540, Note_on_c, 2, 38, 64
4, 39574, Note_on_c, 2, 38, 0
4, 39600, Note_on_c, 2, 38, 64
4, 39760, Note_on_c, 2, 38, 0
4, 39841, Note_on_c, 2, 39, 64
4, 39900, Note_on_c, 2, 40, 64
4, 39901, Note_on_c, 2, 39, 0
4, 39921, Note_on_c, 2, 40, 0
4, 39960, Note_on_c, 2, 40, 64
4, 39972, Note_on_c, 2, 40, 0
4, 40020, Note_on_c, 2, 40, 64
4, 40069, Note_on_c, 2, 40, 0
4, 40080, Note_on_c, 2, 39, 64
4, 40130, Note_on_c, 2, 39, 0
4, 40140, Note_on_c, 2, 40, 64
4, 40155, Note_on_c, 2, 40, 0
4, 40200, Note_on_c, 2, 40, 64
4, 40204, Note_on_c, 2, 40, 0
4, 40260, Note_on_c, 2, 40, 64
4, 40267, Note_on_c, 2, 40, 0
4, 40320, Note_on_c, 2, 40, 64
4, 40376, Note_on_c, 2, 40, 0
4, 40380, Note_on_c, 2, 38, 64
4, 40429, Note_on_c, 2, 38, 0
4, 40440, Note_on_c, 2, 35, 64
4, 40465, Note_on_c, 2, 35, 0
4, 40500, Note_on_c, 2, 34, 64
4, 40531, Note_on_c, 2, 34, 0
4, 40560, Note_on_c, 2, 33, 64
4, 40605, Note_on_c, 2, 33, 0
4, 40620, Note_on_c, 2, 31, 64
4, 40673, Note_on_c, 2, 31, 0
4, 40680, Note_on_c, 2, 40, 64
4, 40786, Note_on_c, 2, 40, 0
4, 40801, Note_on_c, 2, 36, 64
4, 40932, Note_on_c, 2, 36, 0
4, 40980, Note_on_c, 2, 36, 64
4, 41000, Note_on_c, 2, 36, 0
4, 41040, Note_on_c, 2, 36, 64
4, 41172, Note_on_c, 2, 36, 0
4, 41220, Note_on_c, 2, 36, 64
4, 41243, Note_on_c, 2, 36, 0
4, 41280, Note_on_c, 2, 38, 64
4, 41401, Note_on_c, 2, 38, 0
4, 41520, Note_on_c, 2, 38, 64
4, 41643, Note_on_c, 2, 38, 0
4, 41700, Note_on_c, 2, 38, 64
4, 41736, Note_on_c, 2, 38, 0
4, 41761, Note_on_c, 2, 39, 64
4, 41820, Note_on_c, 2, 40, 64
4, 41824, Note_on_c, 2, 39, 0
4, 41846, Note_on_c, 2, 40, 0
4, 41880, Note_on_c, 2, 40, 64
4, 41892, Note_on_c, 2, 40, 0
4, 41940, Note_on_c, 2, 40, 64
4, 41995, Note_on_c, 2, 40, 0
4, 42000, Note_on_c, 2, 39, 64
4, 42060, Note_on_c, 2, 40, 64
4, 42068, Note_on_c, 2, 39, 0
4, 42078, Note_on_c, 2, 40, 0
4, 42120, Note_on_c, 2, 40, 64
4, 42136, Note_on_c, 2, 40, 0
4, 42180, Note_on_c, 2, 40, 64
4, 42198, Note_on_c, 2, 40, 0
4, 42240, Note_on_c, 2, 40, 64
4, 42289, Note_on_c, 2, 40, 0
4, 42300, Note_on_c, 2, 38, 64
4, 42341, Note_on_c, 2, 38, 0
4, 42360, Note_on_c, 2, 35, 64
4, 42386, Note_on_c, 2, 35, 0
4, 42420, Note_on_c, 2, 34, 64
4, 42455, Note_on_c, 2, 34, 0
4, 42480, Note_on_c, 2, 33, 64
4, 42526, Note_on_c, 2, 33, 0
4, 42540, Note_on_c, 2, 31, 64
4, 42594, Note_on_c, 2, 31, 0
4, 42600, Note_on_c, 2, 40, 64
4, 42713, Note_on_c, 2, 40, 0
4, 42721, Note_on_c, 2, 28, 64
4, 42864, Note_on_c, 2, 28, 0
4, 42900, Note_on_c, 2, 28, 64
4, 42930, Note_on_c, 2, 28, 0
4, 42960, Note_on_c, 2, 28, 64
4, 43054, Note_on_c, 2, 28, 0
4, 43080, Note_on_c, 2, 34, 64
4, 43140, Note_on_c, 2, 33, 64
4, 43142, Note_on_c, 2, 34, 0
4, 43188, Note_on_c, 2, 33, 0
4, 43200, Note_on_c, 2, 31, 64
4, 43246, Note_on_c, 2, 31, 0
4, 43260, Note_on_c, 2, 40, 64
4, 43373, Note_on_c, 2, 40, 0
4, 43380, Note_on_c, 2, 28, 64
4, 43429, Note_on_c, 2, 28, 0
4, 43440, Note_on_c, 2, 40, 64
4, 43605, Note_on_c, 2, 40, 0
4, 43620, Note_on_c, 2, 28, 64
4, 43643, Note_on_c, 2, 28, 0
4, 43681, Note_on_c, 2, 28, 64
4, 43811, Note_on_c, 2, 28, 0
4, 43860, Note_on_c, 2, 28, 64
4, 43896, Note_on_c, 2, 28, 0
4, 43920, Note_on_c, 2, 28, 64
4, 44036, Note_on_c, 2, 28, 0
4, 44041, Note_on_c, 2, 34, 64
4, 44100, Note_on_c, 2, 33, 64
4, 44101, Note_on_c, 2, 34, 0
4, 44136, Note_on_c, 2, 33, 0
4, 44160, Note_on_c, 2, 31, 64
4, 44209, Note_on_c, 2, 31, 0
4, 44220, Note_on_c, 2, 40, 64
4, 44333, Note_on_c, 2, 40, 0
4, 44340, Note_on_c, 2, 28, 64
4, 44390, Note_on_c, 2, 28, 0
4, 44400, Note_on_c, 2, 40, 64
4, 44535, Note_on_c, 2, 40, 0
4, 44580, Note_on_c, 2, 40, 64
4, 44628, Note_on_c, 2, 40, 0
4, 44641, Note_on_c, 2, 28, 64
4, 44781, Note_on_c, 2, 28, 0
4, 44820, Note_on_c, 2, 28, 64
4, 44846, Note_on_c, 2, 28, 0
4, 44880, Note_on_c, 2, 28, 64
4, 44996, Note_on_c, 2, 28, 0
4, 45001, Note_on_c, 2, 34, 64
4, 45056, Note_on_c, 2, 34, 0
4, 45060, Note_on_c, 2, 33, 64
4, 45087, Note_on_c, 2, 33, 0
4, 45120, Note_on_c, 2, 31, 64
4, 45176, Note_on_c, 2, 31, 0
4, 45180, Note_on_c, 2, 40, 64
4, 45290, Note_on_c, 2, 40, 0
4, 45300, Note_on_c, 2, 28, 64
4, 45341, Note_on_c, 2, 28, 0
4, 45360, Note_on_c, 2, 40, 64
4, 45493, Note_on_c, 2, 40, 0
4, 45540, Note_on_c, 2, 40, 64
4, 45562, Note_on_c, 2, 40, 0
4, 45601, Note_on_c, 2, 28, 64
4, 45721, Note_on_c, 2, 28, 0
4, 45780, Note_on_c, 2, 28, 64
4, 45810, Note_on_c, 2, 28, 0
4, 45840, Note_on_c, 2, 28, 64
4, 45945, Note_on_c, 2, 28, 0
4, 45960, Note_on_c, 2, 34, 64
4, 46016, Note_on_c, 2, 34, 0
4, 46020, Note_on_c, 2, 33, 64
4, 46063, Note_on_c, 2, 33, 0
4, 46080, Note_on_c, 2, 31, 64
4, 46134, Note_on_c, 2, 31, 0
4, 46140, Note_on_c, 2, 40, 64
4, 46250, Note_on_c, 2, 40, 0
4, 46260, Note_on_c, 2, 28, 64
4, 46304, Note_on_c, 2, 28, 0
4, 46320, Note_on_c, 2, 40, 64
4, 46451, Note_on_c, 2, 40, 0
4, 46500, Note_on_c, 2, 40, 64
4, 46527, Note_on_c, 2, 40, 0
4, 46561, Note_on_c, 2, 28, 64
4, 46684, Note_on_c, 2, 28, 0
4, 46740, Note_on_c, 2, 28, 64
4, 46766, Note_on_c, 2, 28, 0
4, 46800, Note_on_c, 2, 28, 64
4, 46920, Note_on_c, 2, 28, 0
4, 46921, Note_on_c, 2, 34, 64
4, 46973, Note_on_c, 2, 34, 0
4, 46980, Note_on_c, 2, 33, 64
4, 47016, Note_on_c, 2, 33, 0
4, 47040, Note_on_c, 2, 31, 64
4, 47094, Note_on_c, 2, 31, 0
4, 47100, Note_on_c, 2, 40, 64
4, 47216, Note_on_c, 2, 40, 0
4, 47220, Note_on_c, 2, 28, 64
4, 47274, Note_on_c, 2, 28, 0
4, 47280, Note_on_c, 2, 40, 64
4, 47410, Note_on_c, 2, 40, 0
4, 47460, Note_on_c, 2, 40, 64
4, 47480, Note_on_c, 2, 40, 0
4, 47521, Note_on_c, 2, 28, 64
4, 47662, Note_on_c, 2, 28, 0
4, 47700, Note_on_c, 2, 28, 64
4, 47717, Note_on_c, 2, 28, 0
4, 47760, Note_on_c, 2, 28, 64
4, 47874, Note_on_c, 2, 28, 0
4, 47880, Note_on_c, 2, 34, 64
4, 47940, Note_on_c, 2, 34, 0
4, 47941, Note_on_c, 2, 33, 64
4, 47981, Note_on_c, 2, 33, 0
4, 48001, Note_on_c, 2, 31, 64
4, 48055, Note_on_c, 2, 31, 0
4, 48060, Note_on_c, 2, 40, 64
4, 48170, Note_on_c, 2, 40, 0
4, 48180, Note_on_c, 2, 28, 64
4, 48223, Note_on_c, 2, 28, 0
4, 48240, Note_on_c, 2, 40, 64
4, 48367, Note_on_c, 2, 40, 0
4, 48420, Note_on_c, 2, 40, 64
4, 48438, Note_on_c, 2, 40, 0
4, 48481, Note_on_c, 2, 28, 64
4, 48609, Note_on_c, 2, 28, 0
4, 48660, Note_on_c, 2, 28, 64
4, 48686, Note_on_c, 2, 28, 0
4, 48720, Note_on_c, 2, 28, 64
4, 48833, Note_on_c, 2, 28, 0
4, 48840, Note_on_c, 2, 34, 64
4, 48896, Note_on_c, 2, 34, 0
4, 48900, Note_on_c, 2, 33, 64
4, 48936, Note_on_c, 2, 33, 0
4, 48960, Note_on_c, 2, 31, 64
4, 49014, Note_on_c, 2, 31, 0
4, 49020, Note_on_c, 2, 40, 64
4, 49133, Note_on_c, 2, 40, 0
4, 49140, Note_on_c, 2, 28, 64
4, 49183, Note_on_c, 2, 28, 0
4, 49200, Note_on_c, 2, 40, 64
4, 49327, Note_on_c, 2, 40, 0
4, 49380, Note_on_c, 2, 40, 64
4, 49429, Note_on_c, 2, 40, 0
4, 49441, Note_on_c, 2, 28, 64
4, 49568, Note_on_c, 2, 28, 0
4, 49620, Note_on_c, 2, 28, 64
4, 49655, Note_on_c, 2, 28, 0
4, 49680, Note_on_c, 2, 28, 64
4, 49782, Note_on_c, 2, 28, 0
4, 49800, Note_on_c, 2, 34, 64
4, 49857, Note_on_c, 2, 34, 0
4, 49860, Note_on_c, 2, 33, 64
4, 49908, Note_on_c, 2, 33, 0
4, 49920, Note_on_c, 2, 31, 64
4, 49972, Note_on_c, 2, 31, 0
4, 49980, Note_on_c, 2, 40, 64
4, 50090, Note_on_c, 2, 40, 0
4, 50100, Note_on_c, 2, 28, 64
4, 50147, Note_on_c, 2, 28, 0
4, 50160, Note_on_c, 2, 40, 64
4, 50297, Note_on_c, 2, 40, 0
4, 50340, Note_on_c, 2, 40, 64
4, 50364, Note_on_c, 2, 40, 0
4, 50401, Note_on_c, 2, 28, 64
4, 50530, Note_on_c, 2, 28, 0
4, 50580, Note_on_c, 2, 28, 64
4, 50603, Note_on_c, 2, 28, 0
4, 50640, Note_on_c, 2, 28, 64
4, 50752, Note_on_c, 2, 28, 0
4, 50760, Note_on_c, 2, 34, 64
4, 50820, Note_on_c, 2, 34, 0
4, 50821, Note_on_c, 2, 33, 64
4, 50860, Note_on_c, 2, 33, 0
4, 50880, Note_on_c, 2, 31, 64
4, 50932, Note_on_c, 2, 31, 0
4, 50940, Note_on_c, 2, 40, 64
4, 51059, Note_on_c, 2, 40, 0
4, 51060, Note_on_c, 2, 28, 64
4, 51102, Note_on_c, 2, 28, 0
4, 51120, Note_on_c, 2, 40, 64
4, 51275, Note_on_c, 2, 40, 0
4, 51301, Note_on_c, 2, 40, 64
4, 51326, Note_on_c, 2, 40, 0
4, 51361, Note_on_c, 2, 28, 64
4, 51486, Note_on_c, 2, 28, 0
4, 51540, Note_on_c, 2, 28, 64
4, 51560, Note_on_c, 2, 28, 0
4, 51600, Note_on_c, 2, 28, 64
4, 51705, Note_on_c, 2, 28, 0
4, 51720, Note_on_c, 2, 34, 64
4, 51775, Note_on_c, 2, 34, 0
4, 51781, Note_on_c, 2, 33, 64
4, 51821, Note_on_c, 2, 33, 0
4, 51840, Note_on_c, 2, 31, 64
4, 51896, Note_on_c, 2, 31, 0
4, 51900, Note_on_c, 2, 40, 64
4, 52011, Note_on_c, 2, 40, 0
4, 52020, Note_on_c, 2, 28, 64
4, 52069, Note_on_c, 2, 28, 0
4, 52080, Note_on_c, 2, 40, 64
4, 52215, Note_on_c, 2, 40, 0
4, 52261, Note_on_c, 2, 40, 64
4, 52278, Note_on_c, 2, 40, 0
4, 52321, Note_on_c, 2, 28, 64
4, 52437, Note_on_c, 2, 28, 0
4, 52500, Note_on_c, 2, 28, 64
4, 52534, Note_on_c, 2, 28, 0
4, 52560, Note_on_c, 2, 28, 64
4, 52665, Note_on_c, 2, 28, 0
4, 52680, Note_on_c, 2, 34, 64
4, 52735, Note_on_c, 2, 34, 0
4, 52741, Note_on_c, 2, 33, 64
4, 52781, Note_on_c, 2, 33, 0
4, 52800, Note_on_c, 2, 31, 64
4, 52852, Note_on_c, 2, 31, 0
4, 52860, Note_on_c, 2, 40, 64
4, 52972, Note_on_c, 2, 40, 0
4, 52980, Note_on_c, 2, 28, 64
4, 53021, Note_on_c, 2, 28, 0
4, 53040, Note_on_c, 2, 40, 64
4, 53176, Note_on_c, 2, 40, 0
4, 53220, Note_on_c, 2, 40, 64
4, 53246, Note_on_c, 2, 40, 0
4, 53281, Note_on_c, 2, 28, 64
4, 53405, Note_on_c, 2, 28, 0
4, 53460, Note_on_c, 2, 28, 64
4, 53484, Note_on_c, 2, 28, 0
4, 53520, Note_on_c, 2, 28, 64
4, 53634, Note_on_c, 2, 28, 0
4, 53640, Note_on_c, 2, 34, 64
4, 53690, Note_on_c, 2, 34, 0
4, 53700, Note_on_c, 2, 33, 64
4, 53737, Note_on_c, 2, 33, 0
4, 53760, Note_on_c, 2, 31, 64
4, 53811, Note_on_c, 2, 31, 0
4, 53820, Note_on_c, 2, 40, 64
4, 53937, Note_on_c, 2, 40, 0
4, 53940, Note_on_c, 2, 28, 64
4, 53993, Note_on_c, 2, 28, 0
4, 54000, Note_on_c, 2, 40, 64
4, 54134, Note_on_c, 2, 40, 0
4, 54180, Note_on_c, 2, 40, 64
4, 54191, Note_on_c, 2, 40, 0
4, 54241, Note_on_c, 2, 28, 64
4, 54371, Note_on_c, 2, 28, 0
4, 54420, Note_on_c, 2, 28, 64
4, 54450, Note_on_c, 2, 28, 0
4, 54480, Note_on_c, 2, 28, 64
4, 54579, Note_on_c, 2, 28, 0
4, 54600, Note_on_c, 2, 34, 64
4, 54644, Note_on_c, 2, 34, 0
4, 54660, Note_on_c, 2, 33, 64
4, 54705, Note_on_c, 2, 33, 0
4, 54720, Note_on_c, 2, 31, 64
4, 54775, Note_on_c, 2, 31, 0
4, 54780, Note_on_c, 2, 40, 64
4, 54893, Note_on_c, 2, 40, 0
4, 54900, Note_on_c, 2, 28, 64
4, 54943, Note_on_c, 2, 28, 0
4, 54960, Note_on_c, 2, 40, 64
4, 55099, Note_on_c, 2, 40, 0
4, 55140, Note_on_c, 2, 40, 64
4, 55162, Note_on_c, 2, 40, 0
4, 55201, Note_on_c, 2, 28, 64
4, 55328, Note_on_c, 2, 28, 0
4, 55380, Note_on_c, 2, 28, 64
4, 55404, Note_on_c, 2, 28, 0
4, 55440, Note_on_c, 2, 28, 64
4, 55548, Note_on_c, 2, 28, 0
4, 55560, Note_on_c, 2, 34, 64
4, 55620, Note_on_c, 2, 34, 0
4, 55621, Note_on_c, 2, 33, 64
4, 55662, Note_on_c, 2, 33, 0
4, 55680, Note_on_c, 2, 31, 64
4, 55731, Note_on_c, 2, 31, 0
4, 55740, Note_on_c, 2, 40, 64
4, 55855, Note_on_c, 2, 40, 0
4, 55860, Note_on_c, 2, 28, 64
4, 55911, Note_on_c, 2, 28, 0
4, 55920, Note_on_c, 2, 40, 64
4, 56072, Note_on_c, 2, 40, 0
4, 56100, Note_on_c, 2, 28, 64
4, 56152, Note_on_c, 2, 28, 0
4, 56161, Note_on_c, 2, 31, 64
4, 56299, Note_on_c, 2, 31, 0
4, 56340, Note_on_c, 2, 31, 64
4, 56360, Note_on_c, 2, 31, 0
4, 56400, Note_on_c, 2, 31, 64
4, 56569, Note_on_c, 2, 31, 0
4, 56580, Note_on_c, 2, 40, 64
4, 56630, Note_on_c, 2, 40, 0
4, 56640, Note_on_c, 2, 28, 64
4, 56770, Note_on_c, 2, 28, 0
4, 56820, Note_on_c, 2, 28, 64
4, 56840, Note_on_c, 2, 28, 0
4, 56880, Note_on_c, 2, 28, 64
4, 57046, Note_on_c, 2, 28, 0
4, 57060, Note_on_c, 2, 40, 64
4, 57079, Note_on_c, 2, 40, 0
4, 57121, Note_on_c, 2, 28, 64
4, 57260, Note_on_c, 2, 28, 0
4, 57300, Note_on_c, 2, 28, 64
4, 57325, Note_on_c, 2, 28, 0
4, 57360, Note_on_c, 2, 28, 64
4, 57475, Note_on_c, 2, 28, 0
4, 57480, Note_on_c, 2, 34, 64
4, 57531, Note_on_c, 2, 34, 0
4, 57540, Note_on_c, 2, 33, 64
4, 57589, Note_on_c, 2, 33, 0
4, 57600, Note_on_c, 2, 31, 64
4, 57646, Note_on_c, 2, 31, 0
4, 57660, Note_on_c, 2, 40, 64
4, 57776, Note_on_c, 2, 40, 0
4, 57780, Note_on_c, 2, 28, 64
4, 57836, Note_on_c, 2, 28, 0
4, 57840, Note_on_c, 2, 40, 64
4, 57972, Note_on_c, 2, 40, 0
4, 58020, Note_on_c, 2, 40, 64
4, 58069, Note_on_c, 2, 40, 0
4, 58081, Note_on_c, 2, 28, 64
4, 58210, Note_on_c, 2, 28, 0
4, 58260, Note_on_c, 2, 28, 64
4, 58290, Note_on_c, 2, 28, 0
4, 58320, Note_on_c, 2, 28, 64
4, 58429, Note_on_c, 2, 28, 0
4, 58440, Note_on_c, 2, 34, 64
4, 58496, Note_on_c, 2, 34, 0
4, 58500, Note_on_c, 2, 33, 64
4, 58542, Note_on_c, 2, 33, 0
4, 58560, Note_on_c, 2, 31, 64
4, 58609, Note_on_c, 2, 31, 0
4, 58620, Note_on_c, 2, 40, 64
4, 58740, Note_on_c, 2, 28, 64
4, 58744, Note_on_c, 2, 40, 0
4, 58797, Note_on_c, 2, 28, 0
4, 58800, Note_on_c, 2, 40, 64
4, 58935, Note_on_c, 2, 40, 0
4, 58980, Note_on_c, 2, 40, 64
4, 59015, Note_on_c, 2, 40, 0
4, 59041, Note_on_c, 2, 28, 64
4, 59173, Note_on_c, 2, 28, 0
4, 59220, Note_on_c, 2, 28, 64
4, 59246, Note_on_c, 2, 28, 0
4, 59280, Note_on_c, 2, 28, 64
4, 59391, Note_on_c, 2, 28, 0
4, 59400, Note_on_c, 2, 34, 64
4, 59459, Note_on_c, 2, 34, 0
4, 59460, Note_on_c, 2, 33, 64
4, 59501, Note_on_c, 2, 33, 0
4, 59520, Note_on_c, 2, 31, 64
4, 59571, Note_on_c, 2, 31, 0
4, 59580, Note_on_c, 2, 40, 64
4, 59698, Note_on_c, 2, 40, 0
4, 59700, Note_on_c, 2, 28, 64
4, 59748, Note_on_c, 2, 28, 0
4, 59760, Note_on_c, 2, 40, 64
4, 59899, Note_on_c, 2, 40, 0
4, 59940, Note_on_c, 2, 40, 64
4, 59955, Note_on_c, 2, 40, 0
4, 60001, Note_on_c, 2, 28, 64
4, 60132, Note_on_c, 2, 28, 0
4, 60180, Note_on_c, 2, 28, 64
4, 60205, Note_on_c, 2, 28, 0
4, 60240, Note_on_c, 2, 28, 64
4, 60350, Note_on_c, 2, 28, 0
4, 60360, Note_on_c, 2, 34, 64
4, 60416, Note_on_c, 2, 34, 0
4, 60420, Note_on_c, 2, 33, 64
4, 60460, Note_on_c, 2, 33, 0
4, 60480, Note_on_c, 2, 31, 64
4, 60532, Note_on_c, 2, 31, 0
4, 60540, Note_on_c, 2, 40, 64
4, 60652, Note_on_c, 2, 40, 0
4, 60660, Note_on_c, 2, 28, 64
4, 60704, Note_on_c, 2, 28, 0
4, 60720, Note_on_c, 2, 40, 64
4, 60896, Note_on_c, 2, 40, 0
4, 60900, Note_on_c, 2, 28, 64
4, 60944, Note_on_c, 2, 28, 0
4, 60961, Note_on_c, 2, 36, 64
4, 61111, Note_on_c, 2, 36, 0
4, 61140, Note_on_c, 2, 36, 64
4, 61166, Note_on_c, 2, 36, 0
4, 61200, Note_on_c, 2, 36, 64
4, 61349, Note_on_c, 2, 36, 0
4, 61380, Note_on_c, 2, 36, 64
4, 61422, Note_on_c, 2, 36, 0
4, 61440, Note_on_c, 2, 38, 64
4, 61580, Note_on_c, 2, 38, 0
4, 61620, Note_on_c, 2, 38, 64
4, 61641, Note_on_c, 2, 38, 0
4, 61680, Note_on_c, 2, 38, 64
4, 61815, Note_on_c, 2, 38, 0
4, 61860, Note_on_c, 2, 38, 64
4, 61879, Note_on_c, 2, 38, 0
4, 61921, Note_on_c, 2, 39, 64
4, 61980, Note_on_c, 2, 40, 64
4, 61985, Note_on_c, 2, 39, 0
4, 62007, Note_on_c, 2, 40, 0
4, 62040, Note_on_c, 2, 40, 64
4, 62061, Note_on_c, 2, 40, 0
4, 62100, Note_on_c, 2, 40, 64
4, 62158, Note_on_c, 2, 40, 0
4, 62160, Note_on_c, 2, 39, 64
4, 62220, Note_on_c, 2, 40, 64
4, 62225, Note_on_c, 2, 39, 0
4, 62238, Note_on_c, 2, 40, 0
4, 62280, Note_on_c, 2, 40, 64
4, 62293, Note_on_c, 2, 40, 0
4, 62340, Note_on_c, 2, 40, 64
4, 62360, Note_on_c, 2, 40, 0
4, 62400, Note_on_c, 2, 40, 64
4, 62460, Note_on_c, 2, 38, 64
4, 62461, Note_on_c, 2, 40, 0
4, 62509, Note_on_c, 2, 38, 0
4, 62520, Note_on_c, 2, 35, 64
4, 62548, Note_on_c, 2, 35, 0
4, 62580, Note_on_c, 2, 34, 64
4, 62603, Note_on_c, 2, 34, 0
4, 62640, Note_on_c, 2, 33, 64
4, 62675, Note_on_c, 2, 33, 0
4, 62700, Note_on_c, 2, 31, 64
4, 62752, Note_on_c, 2, 31, 0
4, 62760, Note_on_c, 2, 40, 64
4, 62869, Note_on_c, 2, 40, 0
4, 62881, Note_on_c, 2, 36, 64
4, 63001, Note_on_c, 2, 36, 0
4, 63060, Note_on_c, 2, 36, 64
4, 63075, Note_on_c, 2, 36, 0
4, 63120, Note_on_c, 2, 36, 64
4, 63237, Note_on_c, 2, 36, 0
4, 63300, Note_on_c, 2, 36, 64
4, 63349, Note_on_c, 2, 36, 0
4, 63360, Note_on_c, 2, 38, 64
4, 63481, Note_on_c, 2, 38, 0
4, 63540, Note_on_c, 2, 38, 64
4, 63556, Note_on_c, 2, 38, 0
4, 63600, Note_on_c, 2, 38, 64
4, 63718, Note_on_c, 2, 38, 0
4, 63780, Note_on_c, 2, 38, 64
4, 63802, Note_on_c, 2, 38, 0
4, 63841, Note_on_c, 2, 39, 64
4, 63900, Note_on_c, 2, 40, 64
4, 63902, Note_on_c, 2, 39, 0
4, 63928, Note_on_c, 2, 40, 0
4, 63960, Note_on_c, 2, 40, 64
4, 63979, Note_on_c, 2, 40, 0
4, 64020, Note_on_c, 2, 40, 64
4, 64071, Note_on_c, 2, 40, 0
4, 64080, Note_on_c, 2, 39, 64
4, 64134, Note_on_c, 2, 39, 0
4, 64141, Note_on_c, 2, 40, 64
4, 64156, Note_on_c, 2, 40, 0
4, 64200, Note_on_c, 2, 40, 64
4, 64213, Note_on_c, 2, 40, 0
4, 64260, Note_on_c, 2, 40, 64
4, 64271, Note_on_c, 2, 40, 0
4, 64320, Note_on_c, 2, 40, 64
4, 64372, Note_on_c, 2, 40, 0
4, 64380, Note_on_c, 2, 38, 64
4, 64419, Note_on_c, 2, 38, 0
4, 64440, Note_on_c, 2, 35, 64
4, 64460, Note_on_c, 2, 35, 0
4, 64500, Note_on_c, 2, 34, 64
4, 64555, Note_on_c, 2, 34, 0
4, 64560, Note_on_c, 2, 33, 64
4, 64603, Note_on_c, 2, 33, 0
4, 64620, Note_on_c, 2, 31, 64
4, 64680, Note_on_c, 2, 40, 64
4, 64686, Note_on_c, 2, 31, 0
4, 64776, Note_on_c, 2, 40, 0
4, 64801, Note_on_c, 2, 36, 64
4, 64936, Note_on_c, 2, 36, 0
4, 64980, Note_on_c, 2, 36, 64
4, 65001, Note_on_c, 2, 36, 0
4, 65040, Note_on_c, 2, 36, 64
4, 65168, Note_on_c, 2, 36, 0
4, 65220, Note_on_c, 2, 36, 64
4, 65260, Note_on_c, 2, 36, 0
4, 65280, Note_on_c, 2, 38, 64
4, 65402, Note_on_c, 2, 38, 0
4, 65460, Note_on_c, 2, 38, 64
4, 65481, Note_on_c, 2, 38, 0
4, 65520, Note_on_c, 2, 38, 64
4, 65645, Note_on_c, 2, 38, 0
4, 65700, Note_on_c, 2, 38, 64
4, 65725, Note_on_c, 2, 38, 0
4, 65761, Note_on_c, 2, 39, 64
4, 65820, Note_on_c, 2, 40, 64
4, 65824, Note_on_c, 2, 39, 0
4, 65836, Note_on_c, 2, 40, 0
4, 65880, Note_on_c, 2, 40, 64
4, 65891, Note_on_c, 2, 40, 0
4, 65940, Note_on_c, 2, 40, 64
4, 65996, Note_on_c, 2, 40, 0
4, 66000, Note_on_c, 2, 39, 64
4, 66060, Note_on_c, 2, 39, 0
4, 66061, Note_on_c, 2, 40, 64
4, 66068, Note_on_c, 2, 40, 0
4, 66120, Note_on_c, 2, 40, 64
4, 66133, Note_on_c, 2, 40, 0
4, 66180, Note_on_c, 2, 40, 64
4, 66196, Note_on_c, 2, 40, 0
4, 66240, Note_on_c, 2, 40, 64
4, 66292, Note_on_c, 2, 40, 0
4, 66300, Note_on_c, 2, 38, 64
4, 66346, Note_on_c, 2, 38, 0
4, 66360, Note_on_c, 2, 35, 64
4, 66386, Note_on_c, 2, 35, 0
4, 66420, Note_on_c, 2, 34, 64
4, 66448, Note_on_c, 2, 34, 0
4, 66480, Note_on_c, 2, 33, 64
4, 66531, Note_on_c, 2, 33, 0
4, 66540, Note_on_c, 2, 31, 64
4, 66597, Note_on_c, 2, 31, 0
4, 66600, Note_on_c, 2, 40, 64
4, 66702, Note_on_c, 2, 40, 0
4, 66721, Note_on_c, 2, 28, 64
4, 66856, Note_on_c, 2, 28, 0
4, 66900, Note_on_c, 2, 28, 64
4, 66923, Note_on_c, 2, 28, 0
4, 66960, Note_on_c, 2, 28, 64
4, 67063, Note_on_c, 2, 28, 0
4, 67080, Note_on_c, 2, 34, 64
4, 67136, Note_on_c, 2, 34, 0
4, 67140, Note_on_c, 2, 33, 64
4, 67187, Note_on_c, 2, 33, 0
4, 67200, Note_on_c, 2, 31, 64
4, 67251, Note_on_c, 2, 31, 0
4, 67260, Note_on_c, 2, 40, 64
4, 67374, Note_on_c, 2, 40, 0
4, 67380, Note_on_c, 2, 28, 64
4, 67434, Note_on_c, 2, 28, 0
4, 67440, Note_on_c, 2, 40, 64
4, 67575, Note_on_c, 2, 40, 0
4, 67620, Note_on_c, 2, 40, 64
4, 67635, Note_on_c, 2, 40, 0
4, 67681, Note_on_c, 2, 28, 64
4, 67796, Note_on_c, 2, 28, 0
4, 67860, Note_on_c, 2, 28, 64
4, 67880, Note_on_c, 2, 28, 0
4, 67920, Note_on_c, 2, 28, 64
4, 68023, Note_on_c, 2, 28, 0
4, 68040, Note_on_c, 2, 34, 64
4, 68082, Note_on_c, 2, 34, 0
4, 68100, Note_on_c, 2, 33, 64
4, 68141, Note_on_c, 2, 33, 0
4, 68160, Note_on_c, 2, 31, 64
4, 68212, Note_on_c, 2, 31, 0
4, 68220, Note_on_c, 2, 40, 64
4, 68338, Note_on_c, 2, 40, 0
4, 68340, Note_on_c, 2, 28, 64
4, 68384, Note_on_c, 2, 28, 0
4, 68400, Note_on_c, 2, 40, 64
4, 68528, Note_on_c, 2, 40, 0
4, 68580, Note_on_c, 2, 40, 64
4, 68617, Note_on_c, 2, 40, 0
4, 68641, Note_on_c, 2, 28, 64
4, 68756, Note_on_c, 2, 28, 0
4, 68820, Note_on_c, 2, 28, 64
4, 68850, Note_on_c, 2, 28, 0
4, 68880, Note_on_c, 2, 28, 64
4, 68982, Note_on_c, 2, 28, 0
4, 69000, Note_on_c, 2, 34, 64
4, 69050, Note_on_c, 2, 34, 0
4, 69060, Note_on_c, 2, 33, 64
4, 69102, Note_on_c, 2, 33, 0
4, 69120, Note_on_c, 2, 31, 64
4, 69176, Note_on_c, 2, 31, 0
4, 69180, Note_on_c, 2, 40, 64
4, 69295, Note_on_c, 2, 40, 0
4, 69300, Note_on_c, 2, 28, 64
4, 69351, Note_on_c, 2, 28, 0
4, 69360, Note_on_c, 2, 40, 64
4, 69488, Note_on_c, 2, 40, 0
4, 69540, Note_on_c, 2, 40, 64
4, 69565, Note_on_c, 2, 40, 0
4, 69601, Note_on_c, 2, 28, 64
4, 69724, Note_on_c, 2, 28, 0
4, 69780, Note_on_c, 2, 28, 64
4, 69810, Note_on_c, 2, 28, 0
4, 69840, Note_on_c, 2, 28, 64
4, 69933, Note_on_c, 2, 28, 0
4, 69960, Note_on_c, 2, 34, 64
4, 70020, Note_on_c, 2, 34, 0
4, 70021, Note_on_c, 2, 33, 64
4, 70065, Note_on_c, 2, 33, 0
4, 70080, Note_on_c, 2, 31, 64
4, 70139, Note_on_c, 2, 31, 0
4, 70140, Note_on_c, 2, 40, 64
4, 70191, Note_on_c, 2, 40, 0
4, 70260, Note_on_c, 2, 28, 64
4, 70311, Note_on_c, 2, 28, 0
4, 70320, Note_on_c, 2, 40, 64
4, 70382, Note_on_c, 2, 40, 0
4, 70382, End_track
5, 0, Start_track
5, 0, MIDI_port, 0
5, 135, Control_c, 3, 0, 0
5, 136, Control_c, 3, 32, 0
5, 137, Program_c, 3, 27
5, 7320, Note_on_c, 3, 59, 94
5, 7321, Note_on_c, 3, 62, 94
5, 7345, Note_on_c, 3, 62, 0
5, 7345, Note_on_c, 3, 59, 0
5, 7500, Note_on_c, 3, 59, 72
5, 7501, Note_on_c, 3, 62, 69
5, 7516, Note_on_c, 3, 62, 0
5, 7518, Note_on_c, 3, 59, 0
5, 7740, Note_on_c, 3, 62, 75
5, 7741, Note_on_c, 3, 59, 65
5, 7748, Note_on_c, 3, 59, 0
5, 7750, Note_on_c, 3, 62, 0
5, 7920, Note_on_c, 3, 62, 75
5, 7921, Note_on_c, 3, 59, 69
5, 8248, Note_on_c, 3, 59, 0
5, 8248, Note_on_c, 3, 62, 0
5, 8280, Note_on_c, 3, 59, 75
5, 8281, Note_on_c, 3, 62, 75
5, 8296, Note_on_c, 3, 62, 0
5, 8298, Note_on_c, 3, 59, 0
5, 8520, Note_on_c, 3, 62, 79
5, 8521, Note_on_c, 3, 59, 75
5, 8530, Note_on_c, 3, 59, 0
5, 8531, Note_on_c, 3, 62, 0
5, 8700, Note_on_c, 3, 62, 74
5, 8701, Note_on_c, 3, 59, 75
5, 8711, Note_on_c, 3, 59, 0
5, 8714, Note_on_c, 3, 62, 0
5, 8880, Note_on_c, 3, 62, 69
5, 8881, Note_on_c, 3, 59, 67
5, 9136, Note_on_c, 3, 59, 0
5, 9138, Note_on_c, 3, 62, 0
5, 9240, Note_on_c, 3, 62, 79
5, 9241, Note_on_c, 3, 59, 75
5, 9251, Note_on_c, 3, 59, 0
5, 9252, Note_on_c, 3, 62, 0
5, 9481, Note_on_c, 3, 62, 79
5, 9481, Note_on_c, 3, 59, 75
5, 9495, Note_on_c, 3, 59, 0
5, 9495, Note_on_c, 3, 62, 0
5, 9660, Note_on_c, 3, 59, 79
5, 9661, Note_on_c, 3, 62, 79
5, 9670, Note_on_c, 3, 62, 0
5, 9672, Note_on_c, 3, 59, 0
5, 9840, Note_on_c, 3, 59, 74
5, 9841, Note_on_c, 3, 62, 74
5, 10163, Note_on_c, 3, 59, 0
5, 10165, Note_on_c, 3, 62, 0
5, 10200, Note_on_c, 3, 59, 72
5, 10201, Note_on_c, 3, 62, 74
5, 10216, Note_on_c, 3, 62, 0
5, 10217, Note_on_c, 3, 59, 0
5, 10440, Note_on_c, 3, 59, 75
5, 10441, Note_on_c, 3, 62, 75
5, 10455, Note_on_c, 3, 62, 0
5, 10458, Note_on_c, 3, 59, 0
5, 10620, Note_on_c, 3, 59, 75
5, 10621, Note_on_c, 3, 62, 75
5, 10632, Note_on_c, 3, 62, 0
5, 10633, Note_on_c, 3, 59, 0
5, 10800, Note_on_c, 3, 59, 74
5, 10801, Note_on_c, 3, 62, 74
5, 11113, Note_on_c, 3, 62, 0
5, 11114, Note_on_c, 3, 59, 0
5, 11160, Note_on_c, 3, 59, 72
5, 11161, Note_on_c, 3, 62, 74
5, 11177, Note_on_c, 3, 62, 0
5, 11179, Note_on_c, 3, 59, 0
5, 11400, Note_on_c, 3, 62, 79
5, 11401, Note_on_c, 3, 59, 79
5, 11414, Note_on_c, 3, 59, 0
5, 11414, Note_on_c, 3, 62, 0
5, 11580, Note_on_c, 3, 59, 84
5, 11581, Note_on_c, 3, 62, 84
5, 11593, Note_on_c, 3, 62, 0
5, 11593, Note_on_c, 3, 59, 0
5, 11760, Note_on_c, 3, 59, 64
5, 11761, Note_on_c, 3, 62, 65
5, 12076, Note_on_c, 3, 62, 0
5, 12080, Note_on_c, 3, 59, 0
5, 12120, Note_on_c, 3, 59, 69
5, 12121, Note_on_c, 3, 62, 72
5, 12135, Note_on_c, 3, 62, 0
5, 12137, Note_on_c, 3, 59, 0
5, 12360, Note_on_c, 3, 62, 75
5, 12361, Note_on_c, 3, 59, 72
5, 12371, Note_on_c, 3, 62, 0
5, 12374, Note_on_c, 3, 59, 0
5, 12540, Note_on_c, 3, 62, 79
5, 12541, Note_on_c, 3, 59, 74
5, 12552, Note_on_c, 3, 59, 0
5, 12557, Note_on_c, 3, 62, 0
5, 12720, Note_on_c, 3, 59, 69
5, 12720, Note_on_c, 3, 62, 69
5, 12997, Note_on_c, 3, 62, 0
5, 13000, Note_on_c, 3, 59, 0
5, 13080, Note_on_c, 3, 59, 79
5, 13081, Note_on_c, 3, 62, 84
5, 13097, Note_on_c, 3, 62, 0
5, 13097, Note_on_c, 3, 59, 0
5, 13320, Note_on_c, 3, 62, 79
5, 13321, Note_on_c, 3, 59, 79
5, 13335, Note_on_c, 3, 62, 0
5, 13336, Note_on_c, 3, 59, 0
5, 13500, Note_on_c, 3, 59, 87
5, 13501, Note_on_c, 3, 62, 75
5, 13515, Note_on_c, 3, 59, 0
5, 13516, Note_on_c, 3, 62, 0
5, 13680, Note_on_c, 3, 62, 69
5, 13681, Note_on_c, 3, 59, 69
5, 13921, Note_on_c, 3, 64, 75
5, 13921, Note_on_c, 3, 60, 84
5, 13950, Note_on_c, 3, 59, 0
5, 13960, Note_on_c, 3, 62, 0
5, 14192, Note_on_c, 3, 60, 0
5, 14194, Note_on_c, 3, 64, 0
5, 14220, Note_on_c, 3, 60, 94
5, 14221, Note_on_c, 3, 64, 100
5, 14240, Note_on_c, 3, 60, 0
5, 14243, Note_on_c, 3, 64, 0
5, 14340, Note_on_c, 3, 62, 40
5, 14349, Note_on_c, 3, 62, 0
5, 14400, Note_on_c, 3, 57, 69
5, 14401, Note_on_c, 3, 62, 87
5, 14661, Note_on_c, 3, 57, 0
5, 14664, Note_on_c, 3, 62, 0
5, 14700, Note_on_c, 3, 62, 94
5, 14701, Note_on_c, 3, 57, 75
5, 14728, Note_on_c, 3, 57, 0
5, 14728, Note_on_c, 3, 62, 0
5, 14881, Note_on_c, 3, 62, 100
5, 14882, Note_on_c, 3, 59, 87
5, 15348, Note_on_c, 3, 62, 0
5, 15360, Note_on_c, 3, 63, 79
5, 15370, Note_on_c, 3, 59, 0
5, 15386, Note_on_c, 3, 64, 100
5, 15390, Note_on_c, 3, 63, 0
5, 15431, Note_on_c, 3, 62, 72
5, 15441, Note_on_c, 3, 64, 0
5, 15488, Note_on_c, 3, 59, 60
5, 15493, Note_on_c, 3, 62, 0
5, 15544, Note_on_c, 3, 58, 110
5, 15559, Note_on_c, 3, 59, 0
5, 15607, Note_on_c, 3, 57, 69
5, 15611, Note_on_c, 3, 58, 0
5, 15663, Note_on_c, 3, 57, 0
5, 15666, Note_on_c, 3, 55, 65
5, 15724, Note_on_c, 3, 55, 0
5, 15726, Note_on_c, 3, 64, 110
5, 15851, Note_on_c, 3, 64, 0
5, 15960, Note_on_c, 3, 59, 84
5, 15961, Note_on_c, 3, 62, 84
5, 15981, Note_on_c, 3, 59, 0
5, 15983, Note_on_c, 3, 62, 0
5, 16200, Note_on_c, 3, 59, 79
5, 16201, Note_on_c, 3, 62, 74
5, 16218, Note_on_c, 3, 59, 0
5, 16220, Note_on_c, 3, 62, 0
5, 16380, Note_on_c, 3, 62, 79
5, 16381, Note_on_c, 3, 59, 84
5, 16396, Note_on_c, 3, 59, 0
5, 16401, Note_on_c, 3, 62, 0
5, 16560, Note_on_c, 3, 62, 74
5, 16560, Note_on_c, 3, 59, 79
5, 16877, Note_on_c, 3, 59, 0
5, 16877, Note_on_c, 3, 62, 0
5, 16920, Note_on_c, 3, 59, 87
5, 16921, Note_on_c, 3, 62, 84
5, 16939, Note_on_c, 3, 62, 0
5, 16939, Note_on_c, 3, 59, 0
5, 17160, Note_on_c, 3, 59, 87
5, 17161, Note_on_c, 3, 62, 84
5, 17181, Note_on_c, 3, 59, 0
5, 17185, Note_on_c, 3, 62, 0
5, 17280, Note_on_c, 3, 61, 59
5, 17281, Note_on_c, 3, 58, 59
5, 17285, Note_on_c, 3, 58, 0
5, 17288, Note_on_c, 3, 61, 0
5, 17340, Note_on_c, 3, 59, 100
5, 17341, Note_on_c, 3, 62, 94
5, 17358, Note_on_c, 3, 62, 0
5, 17361, Note_on_c, 3, 59, 0
5, 17520, Note_on_c, 3, 62, 75
5, 17521, Note_on_c, 3, 59, 87
5, 17769, Note_on_c, 3, 59, 0
5, 17771, Note_on_c, 3, 62, 0
5, 17880, Note_on_c, 3, 62, 79
5, 17881, Note_on_c, 3, 59, 79
5, 17898, Note_on_c, 3, 62, 0
5, 17899, Note_on_c, 3, 59, 0
5, 18120, Note_on_c, 3, 59, 87
5, 18121, Note_on_c, 3, 62, 94
5, 18137, Note_on_c, 3, 59, 0
5, 18140, Note_on_c, 3, 62, 0
5, 18300, Note_on_c, 3, 59, 87
5, 18301, Note_on_c, 3, 62, 79
5, 18316, Note_on_c, 3, 59, 0
5, 18318, Note_on_c, 3, 62, 0
5, 18480, Note_on_c, 3, 59, 79
5, 18481, Note_on_c, 3, 62, 74
5, 18799, Note_on_c, 3, 62, 0
5, 18801, Note_on_c, 3, 59, 0
5, 18840, Note_on_c, 3, 59, 74
5, 18841, Note_on_c, 3, 62, 84
5, 18858, Note_on_c, 3, 62, 0
5, 18858, Note_on_c, 3, 59, 0
5, 19080, Note_on_c, 3, 62, 94
5, 19081, Note_on_c, 3, 59, 79
5, 19105, Note_on_c, 3, 62, 0
5, 19106, Note_on_c, 3, 59, 0
5, 19200, Note_on_c, 3, 58, 79
5, 19201, Note_on_c, 3, 61, 79
5, 19253, Note_on_c, 3, 58, 0
5, 19254, Note_on_c, 3, 61, 0
5, 19260, Note_on_c, 3, 59, 60
5, 19261, Note_on_c, 3, 62, 65
5, 19283, Note_on_c, 3, 59, 0
5, 19284, Note_on_c, 3, 62, 0
5, 19440, Note_on_c, 3, 59, 74
5, 19441, Note_on_c, 3, 62, 84
5, 19470, Note_on_c, 3, 62, 0
5, 19470, Note_on_c, 3, 59, 0
5, 19620, Note_on_c, 3, 59, 84
5, 19621, Note_on_c, 3, 62, 84
5, 19995, Note_on_c, 3, 62, 0
5, 19996, Note_on_c, 3, 59, 0
5, 20160, Note_on_c, 3, 58, 79
5, 20161, Note_on_c, 3, 61, 87
5, 20220, Note_on_c, 3, 59, 62
5, 20221, Note_on_c, 3, 58, 0
5, 20221, Note_on_c, 3, 62, 69
5, 20228, Note_on_c, 3, 61, 0
5, 20239, Note_on_c, 3, 62, 0
5, 20241, Note_on_c, 3, 59, 0
5, 20400, Note_on_c, 3, 62, 84
5, 20401, Note_on_c, 3, 59, 75
5, 20415, Note_on_c, 3, 59, 0
5, 20417, Note_on_c, 3, 62, 0
5, 20580, Note_on_c, 3, 62, 87
5, 20581, Note_on_c, 3, 59, 84
5, 21078, Note_on_c, 3, 59, 0
5, 21081, Note_on_c, 3, 62, 0
5, 21120, Note_on_c, 3, 58, 87
5, 21121, Note_on_c, 3, 61, 94
5, 21180, Note_on_c, 3, 58, 0
5, 21181, Note_on_c, 3, 59, 60
5, 21181, Note_on_c, 3, 62, 65
5, 21184, Note_on_c, 3, 61, 0
5, 21206, Note_on_c, 3, 62, 0
5, 21207, Note_on_c, 3, 59, 0
5, 21360, Note_on_c, 3, 62, 79
5, 21361, Note_on_c, 3, 59, 79
5, 21380, Note_on_c, 3, 59, 0
5, 21380, Note_on_c, 3, 62, 0
5, 21540, Note_on_c, 3, 59, 79
5, 21541, Note_on_c, 3, 62, 87
5, 22037, Note_on_c, 3, 62, 0
5, 22038, Note_on_c, 3, 59, 0
5, 22080, Note_on_c, 3, 58, 87
5, 22081, Note_on_c, 3, 61, 87
5, 22140, Note_on_c, 3, 59, 67
5, 22141, Note_on_c, 3, 62, 75
5, 22144, Note_on_c, 3, 58, 0
5, 22148, Note_on_c, 3, 61, 0
5, 22156, Note_on_c, 3, 62, 0
5, 22159, Note_on_c, 3, 59, 0
5, 22320, Note_on_c, 3, 62, 94
5, 22321, Note_on_c, 3, 59, 84
5, 22337, Note_on_c, 3, 59, 0
5, 22338, Note_on_c, 3, 62, 0
5, 22564, Note_on_c, 3, 60, 79
5, 22565, Note_on_c, 3, 64, 87
5, 23011, Note_on_c, 3, 60, 0
5, 23018, Note_on_c, 3, 64, 0
5, 23048, Note_on_c, 3, 62, 79
5, 23049, Note_on_c, 3, 57, 74
5, 23478, Note_on_c, 3, 62, 0
5, 23485, Note_on_c, 3, 57, 0
5, 23514, Note_on_c, 3, 62, 79
5, 23515, Note_on_c, 3, 59, 84
5, 23990, Note_on_c, 3, 62, 0
5, 23999, Note_on_c, 3, 59, 0
5, 24000, Note_on_c, 3, 63, 100
5, 24010, Note_on_c, 3, 64, 110
5, 24014, Note_on_c, 3, 63, 0
5, 24060, Note_on_c, 3, 62, 74
5, 24070, Note_on_c, 3, 64, 0
5, 24125, Note_on_c, 3, 59, 57
5, 24127, Note_on_c, 3, 62, 0
5, 24182, Note_on_c, 3, 58, 79
5, 24195, Note_on_c, 3, 59, 0
5, 24257, Note_on_c, 3, 57, 74
5, 24260, Note_on_c, 3, 58, 0
5, 24309, Note_on_c, 3, 57, 0
5, 32280, Note_on_c, 3, 59, 94
5, 32281, Note_on_c, 3, 62, 94
5, 32305, Note_on_c, 3, 62, 0
5, 32306, Note_on_c, 3, 59, 0
5, 32460, Note_on_c, 3, 59, 72
5, 32461, Note_on_c, 3, 62, 69
5, 32476, Note_on_c, 3, 62, 0
5, 32478, Note_on_c, 3, 59, 0
5, 32700, Note_on_c, 3, 62, 75
5, 32701, Note_on_c, 3, 59, 65
5, 32708, Note_on_c, 3, 59, 0
5, 32711, Note_on_c, 3, 62, 0
5, 32880, Note_on_c, 3, 62, 75
5, 32881, Note_on_c, 3, 59, 69
5, 33207, Note_on_c, 3, 59, 0
5, 33207, Note_on_c, 3, 62, 0
5, 33240, Note_on_c, 3, 59, 75
5, 33241, Note_on_c, 3, 62, 75
5, 33256, Note_on_c, 3, 62, 0
5, 33257, Note_on_c, 3, 59, 0
5, 33480, Note_on_c, 3, 62, 79
5, 33481, Note_on_c, 3, 59, 75
5, 33490, Note_on_c, 3, 59, 0
5, 33491, Note_on_c, 3, 62, 0
5, 33660, Note_on_c, 3, 62, 74
5, 33661, Note_on_c, 3, 59, 75
5, 33671, Note_on_c, 3, 59, 0
5, 33673, Note_on_c, 3, 62, 0
5, 33840, Note_on_c, 3, 62, 69
5, 33841, Note_on_c, 3, 59, 67
5, 34100, Note_on_c, 3, 59, 0
5, 34101, Note_on_c, 3, 62, 0
5, 34200, Note_on_c, 3, 62, 79
5, 34200, Note_on_c, 3, 59, 75
5, 34211, Note_on_c, 3, 59, 0
5, 34212, Note_on_c, 3, 62, 0
5, 34440, Note_on_c, 3, 62, 79
5, 34441, Note_on_c, 3, 59, 75
5, 34453, Note_on_c, 3, 62, 0
5, 34454, Note_on_c, 3, 59, 0
5, 34620, Note_on_c, 3, 59, 79
5, 34621, Note_on_c, 3, 62, 79
5, 34630, Note_on_c, 3, 62, 0
5, 34632, Note_on_c, 3, 59, 0
5, 34800, Note_on_c, 3, 59, 74
5, 34801, Note_on_c, 3, 62, 74
5, 35123, Note_on_c, 3, 59, 0
5, 35125, Note_on_c, 3, 62, 0
5, 35160, Note_on_c, 3, 59, 72
5, 35161, Note_on_c, 3, 62, 74
5, 35176, Note_on_c, 3, 62, 0
5, 35177, Note_on_c, 3, 59, 0
5, 35400, Note_on_c, 3, 59, 75
5, 35401, Note_on_c, 3, 62, 75
5, 35415, Note_on_c, 3, 62, 0
5, 35418, Note_on_c, 3, 59, 0
5, 35580, Note_on_c, 3, 59, 75
5, 35581, Note_on_c, 3, 62, 75
5, 35592, Note_on_c, 3, 62, 0
5, 35593, Note_on_c, 3, 59, 0
5, 35760, Note_on_c, 3, 59, 74
5, 35761, Note_on_c, 3, 62, 74
5, 36073, Note_on_c, 3, 62, 0
5, 36074, Note_on_c, 3, 59, 0
5, 36120, Note_on_c, 3, 59, 72
5, 36121, Note_on_c, 3, 62, 74
5, 36137, Note_on_c, 3, 62, 0
5, 36138, Note_on_c, 3, 59, 0
5, 36360, Note_on_c, 3, 62, 79
5, 36361, Note_on_c, 3, 59, 79
5, 36374, Note_on_c, 3, 59, 0
5, 36374, Note_on_c, 3, 62, 0
5, 36540, Note_on_c, 3, 59, 84
5, 36541, Note_on_c, 3, 62, 84
5, 36553, Note_on_c, 3, 62, 0
5, 36553, Note_on_c, 3, 59, 0
5, 36720, Note_on_c, 3, 59, 64
5, 36721, Note_on_c, 3, 62, 65
5, 37036, Note_on_c, 3, 62, 0
5, 37040, Note_on_c, 3, 59, 0
5, 37080, Note_on_c, 3, 59, 69
5, 37081, Note_on_c, 3, 62, 72
5, 37095, Note_on_c, 3, 62, 0
5, 37097, Note_on_c, 3, 59, 0
5, 37320, Note_on_c, 3, 62, 75
5, 37321, Note_on_c, 3, 59, 72
5, 37331, Note_on_c, 3, 62, 0
5, 37334, Note_on_c, 3, 59, 0
5, 37500, Note_on_c, 3, 62, 79
5, 37501, Note_on_c, 3, 59, 74
5, 37512, Note_on_c, 3, 59, 0
5, 37517, Note_on_c, 3, 62, 0
5, 37680, Note_on_c, 3, 62, 69
5, 37681, Note_on_c, 3, 59, 69
5, 37957, Note_on_c, 3, 62, 0
5, 37960, Note_on_c, 3, 59, 0
5, 38040, Note_on_c, 3, 59, 79
5, 38041, Note_on_c, 3, 62, 84
5, 38057, Note_on_c, 3, 62, 0
5, 38057, Note_on_c, 3, 59, 0
5, 38280, Note_on_c, 3, 62, 79
5, 38281, Note_on_c, 3, 59, 79
5, 38295, Note_on_c, 3, 62, 0
5, 38296, Note_on_c, 3, 59, 0
5, 38460, Note_on_c, 3, 59, 87
5, 38461, Note_on_c, 3, 62, 75
5, 38475, Note_on_c, 3, 59, 0
5, 38476, Note_on_c, 3, 62, 0
5, 38640, Note_on_c, 3, 62, 69
5, 38641, Note_on_c, 3, 59, 69
5, 38881, Note_on_c, 3, 64, 75
5, 38881, Note_on_c, 3, 60, 84
5, 38907, Note_on_c, 3, 59, 0
5, 38916, Note_on_c, 3, 62, 0
5, 39153, Note_on_c, 3, 60, 0
5, 39154, Note_on_c, 3, 64, 0
5, 39180, Note_on_c, 3, 60, 94
5, 39181, Note_on_c, 3, 64, 100
5, 39200, Note_on_c, 3, 60, 0
5, 39203, Note_on_c, 3, 64, 0
5, 39300, Note_on_c, 3, 62, 40
5, 39309, Note_on_c, 3, 62, 0
5, 39360, Note_on_c, 3, 57, 69
5, 39361, Note_on_c, 3, 62, 87
5, 39621, Note_on_c, 3, 57, 0
5, 39624, Note_on_c, 3, 62, 0
5, 39660, Note_on_c, 3, 62, 94
5, 39661, Note_on_c, 3, 57, 75
5, 39688, Note_on_c, 3, 57, 0
5, 39688, Note_on_c, 3, 62, 0
5, 39841, Note_on_c, 3, 62, 100
5, 39842, Note_on_c, 3, 59, 87
5, 40307, Note_on_c, 3, 62, 0
5, 40320, Note_on_c, 3, 63, 79
5, 40330, Note_on_c, 3, 59, 0
5, 40345, Note_on_c, 3, 64, 100
5, 40347, Note_on_c, 3, 63, 0
5, 40391, Note_on_c, 3, 62, 72
5, 40401, Note_on_c, 3, 64, 0
5, 40449, Note_on_c, 3, 59, 60
5, 40454, Note_on_c, 3, 62, 0
5, 40504, Note_on_c, 3, 58, 110
5, 40519, Note_on_c, 3, 59, 0
5, 40568, Note_on_c, 3, 57, 69
5, 40571, Note_on_c, 3, 58, 0
5, 40623, Note_on_c, 3, 57, 0
5, 40626, Note_on_c, 3, 55, 65
5, 40684, Note_on_c, 3, 55, 0
5, 40686, Note_on_c, 3, 64, 110
5, 40801, Note_on_c, 3, 64, 0
5, 40801, Note_on_c, 3, 64, 75
5, 40801, Note_on_c, 3, 60, 84
5, 41072, Note_on_c, 3, 60, 0
5, 41073, Note_on_c, 3, 64, 0
5, 41100, Note_on_c, 3, 60, 94
5, 41101, Note_on_c, 3, 64, 100
5, 41120, Note_on_c, 3, 60, 0
5, 41122, Note_on_c, 3, 64, 0
5, 41220, Note_on_c, 3, 62, 40
5, 41229, Note_on_c, 3, 62, 0
5, 41280, Note_on_c, 3, 57, 69
5, 41281, Note_on_c, 3, 62, 87
5, 41542, Note_on_c, 3, 57, 0
5, 41545, Note_on_c, 3, 62, 0
5, 41580, Note_on_c, 3, 62, 94
5, 41581, Note_on_c, 3, 57, 75
5, 41607, Note_on_c, 3, 57, 0
5, 41607, Note_on_c, 3, 62, 0
5, 41761, Note_on_c, 3, 62, 100
5, 41762, Note_on_c, 3, 59, 87
5, 42227, Note_on_c, 3, 62, 0
5, 42240, Note_on_c, 3, 63, 79
5, 42250, Note_on_c, 3, 59, 0
5, 42265, Note_on_c, 3, 64, 100
5, 42267, Note_on_c, 3, 63, 0
5, 42311, Note_on_c, 3, 62, 72
5, 42321, Note_on_c, 3, 64, 0
5, 42369, Note_on_c, 3, 59, 60
5, 42374, Note_on_c, 3, 62, 0
5, 42424, Note_on_c, 3, 58, 110
5, 42439, Note_on_c, 3, 59, 0
5, 42488, Note_on_c, 3, 57, 69
5, 42492, Note_on_c, 3, 58, 0
5, 42542, Note_on_c, 3, 57, 0
5, 42546, Note_on_c, 3, 55, 65
5, 42603, Note_on_c, 3, 55, 0
5, 42606, Note_on_c, 3, 64, 110
5, 42730, Note_on_c, 3, 64, 0
5, 54360, Note_on_c, 3, 59, 84
5, 54361, Note_on_c, 3, 62, 84
5, 54381, Note_on_c, 3, 59, 0
5, 54383, Note_on_c, 3, 62, 0
5, 54600, Note_on_c, 3, 59, 79
5, 54601, Note_on_c, 3, 62, 74
5, 54618, Note_on_c, 3, 59, 0
5, 54620, Note_on_c, 3, 62, 0
5, 54780, Note_on_c, 3, 62, 79
5, 54781, Note_on_c, 3, 59, 84
5, 54796, Note_on_c, 3, 59, 0
5, 54801, Note_on_c, 3, 62, 0
5, 54960, Note_on_c, 3, 59, 79
5, 54961, Note_on_c, 3, 62, 74
5, 55277, Note_on_c, 3, 62, 0
5, 55277, Note_on_c, 3, 59, 0
5, 55320, Note_on_c, 3, 59, 87
5, 55321, Note_on_c, 3, 62, 84
5, 55338, Note_on_c, 3, 62, 0
5, 55339, Note_on_c, 3, 59, 0
5, 55560, Note_on_c, 3, 59, 87
5, 55561, Note_on_c, 3, 62, 84
5, 55579, Note_on_c, 3, 59, 0
5, 55583, Note_on_c, 3, 62, 0
5, 55680, Note_on_c, 3, 61, 59
5, 55681, Note_on_c, 3, 58, 59
5, 55686, Note_on_c, 3, 58, 0
5, 55689, Note_on_c, 3, 61, 0
5, 55740, Note_on_c, 3, 59, 100
5, 55741, Note_on_c, 3, 62, 94
5, 55758, Note_on_c, 3, 62, 0
5, 55761, Note_on_c, 3, 59, 0
5, 55920, Note_on_c, 3, 62, 75
5, 55921, Note_on_c, 3, 59, 87
5, 56169, Note_on_c, 3, 59, 0
5, 56171, Note_on_c, 3, 62, 0
5, 56280, Note_on_c, 3, 62, 79
5, 56281, Note_on_c, 3, 59, 79
5, 56297, Note_on_c, 3, 62, 0
5, 56298, Note_on_c, 3, 59, 0
5, 56520, Note_on_c, 3, 59, 87
5, 56521, Note_on_c, 3, 62, 94
5, 56538, Note_on_c, 3, 59, 0
5, 56540, Note_on_c, 3, 62, 0
5, 56701, Note_on_c, 3, 59, 87
5, 56701, Note_on_c, 3, 62, 79
5, 56716, Note_on_c, 3, 59, 0
5, 56717, Note_on_c, 3, 62, 0
5, 56880, Note_on_c, 3, 59, 79
5, 56881, Note_on_c, 3, 62, 74
5, 57198, Note_on_c, 3, 62, 0
5, 57201, Note_on_c, 3, 59, 0
5, 57240, Note_on_c, 3, 59, 74
5, 57241, Note_on_c, 3, 62, 84
5, 57257, Note_on_c, 3, 62, 0
5, 57257, Note_on_c, 3, 59, 0
5, 57480, Note_on_c, 3, 62, 94
5, 57481, Note_on_c, 3, 59, 79
5, 57505, Note_on_c, 3, 62, 0
5, 57506, Note_on_c, 3, 59, 0
5, 57600, Note_on_c, 3, 58, 79
5, 57601, Note_on_c, 3, 61, 79
5, 57653, Note_on_c, 3, 58, 0
5, 57654, Note_on_c, 3, 61, 0
5, 57660, Note_on_c, 3, 59, 60
5, 57661, Note_on_c, 3, 62, 65
5, 57682, Note_on_c, 3, 59, 0
5, 57683, Note_on_c, 3, 62, 0
5, 57840, Note_on_c, 3, 59, 74
5, 57841, Note_on_c, 3, 62, 84
5, 57870, Note_on_c, 3, 62, 0
5, 57870, Note_on_c, 3, 59, 0
5, 58020, Note_on_c, 3, 59, 84
5, 58021, Note_on_c, 3, 62, 84
5, 58395, Note_on_c, 3, 62, 0
5, 58396, Note_on_c, 3, 59, 0
5, 58560, Note_on_c, 3, 58, 79
5, 58561, Note_on_c, 3, 61, 87
5, 58621, Note_on_c, 3, 59, 62
5, 58621, Note_on_c, 3, 62, 69
5, 58625, Note_on_c, 3, 58, 0
5, 58630, Note_on_c, 3, 61, 0
5, 58638, Note_on_c, 3, 62, 0
5, 58641, Note_on_c, 3, 59, 0
5, 58800, Note_on_c, 3, 62, 84
5, 58801, Note_on_c, 3, 59, 75
5, 58815, Note_on_c, 3, 59, 0
5, 58817, Note_on_c, 3, 62, 0
5, 58980, Note_on_c, 3, 62, 87
5, 58981, Note_on_c, 3, 59, 84
5, 59477, Note_on_c, 3, 59, 0
5, 59481, Note_on_c, 3, 62, 0
5, 59520, Note_on_c, 3, 58, 87
5, 59521, Note_on_c, 3, 61, 94
5, 59580, Note_on_c, 3, 58, 0
5, 59581, Note_on_c, 3, 59, 60
5, 59581, Note_on_c, 3, 62, 65
5, 59584, Note_on_c, 3, 61, 0
5, 59606, Note_on_c, 3, 62, 0
5, 59606, Note_on_c, 3, 59, 0
5, 59760, Note_on_c, 3, 62, 79
5, 59761, Note_on_c, 3, 59, 79
5, 59780, Note_on_c, 3, 59, 0
5, 59781, Note_on_c, 3, 62, 0
5, 59940, Note_on_c, 3, 59, 79
5, 59941, Note_on_c, 3, 62, 87
5, 60437, Note_on_c, 3, 62, 0
5, 60437, Note_on_c, 3, 59, 0
5, 60480, Note_on_c, 3, 58, 87
5, 60481, Note_on_c, 3, 61, 87
5, 60540, Note_on_c, 3, 59, 67
5, 60541, Note_on_c, 3, 62, 75
5, 60544, Note_on_c, 3, 58, 0
5, 60547, Note_on_c, 3, 61, 0
5, 60556, Note_on_c, 3, 62, 0
5, 60559, Note_on_c, 3, 59, 0
5, 60720, Note_on_c, 3, 62, 94
5, 60721, Note_on_c, 3, 59, 84
5, 60738, Note_on_c, 3, 59, 0
5, 60739, Note_on_c, 3, 62, 0
5, 60961, Note_on_c, 3, 60, 79
5, 60961, Note_on_c, 3, 64, 87
5, 61407, Note_on_c, 3, 60, 0
5, 61412, Note_on_c, 3, 64, 0
5, 61440, Note_on_c, 3, 62, 79
5, 61441, Note_on_c, 3, 57, 74
5, 61870, Note_on_c, 3, 62, 0
5, 61876, Note_on_c, 3, 57, 0
5, 61921, Note_on_c, 3, 59, 87
5, 61921, Note_on_c, 3, 62, 100
5, 62387, Note_on_c, 3, 62, 0
5, 62400, Note_on_c, 3, 63, 79
5, 62410, Note_on_c, 3, 59, 0
5, 62425, Note_on_c, 3, 64, 100
5, 62427, Note_on_c, 3, 63, 0
5, 62471, Note_on_c, 3, 62, 72
5, 62481, Note_on_c, 3, 64, 0
5, 62529, Note_on_c, 3, 59, 60
5, 62534, Note_on_c, 3, 62, 0
5, 62584, Note_on_c, 3, 58, 110
5, 62599, Note_on_c, 3, 59, 0
5, 62648, Note_on_c, 3, 57, 69
5, 62651, Note_on_c, 3, 58, 0
5, 62703, Note_on_c, 3, 57, 0
5, 62707, Note_on_c, 3, 55, 65
5, 62763, Note_on_c, 3, 55, 0
5, 62765, Note_on_c, 3, 64, 110
5, 62881, Note_on_c, 3, 64, 0
5, 62881, Note_on_c, 3, 60, 79
5, 62881, Note_on_c, 3, 64, 87
5, 63328, Note_on_c, 3, 60, 0
5, 63333, Note_on_c, 3, 64, 0
5, 63360, Note_on_c, 3, 62, 79
5, 63361, Note_on_c, 3, 57, 74
5, 63790, Note_on_c, 3, 62, 0
5, 63796, Note_on_c, 3, 57, 0
5, 63841, Note_on_c, 3, 62, 100
5, 63842, Note_on_c, 3, 59, 87
5, 64308, Note_on_c, 3, 62, 0
5, 64320, Note_on_c, 3, 63, 79
5, 64330, Note_on_c, 3, 59, 0
5, 64345, Note_on_c, 3, 64, 100
5, 64348, Note_on_c, 3, 63, 0
5, 64391, Note_on_c, 3, 62, 72
5, 64401, Note_on_c, 3, 64, 0
5, 64449, Note_on_c, 3, 59, 60
5, 64454, Note_on_c, 3, 62, 0
5, 64503, Note_on_c, 3, 58, 110
5, 64518, Note_on_c, 3, 59, 0
5, 64567, Note_on_c, 3, 57, 69
5, 64571, Note_on_c, 3, 58, 0
5, 64622, Note_on_c, 3, 57, 0
5, 64626, Note_on_c, 3, 55, 65
5, 64684, Note_on_c, 3, 55, 0
5, 64686, Note_on_c, 3, 64, 110
5, 64801, Note_on_c, 3, 64, 0
5, 64801, Note_on_c, 3, 60, 79
5, 64801, Note_on_c, 3, 64, 87
5, 65248, Note_on_c, 3, 60, 0
5, 65253, Note_on_c, 3, 64, 0
5, 65280, Note_on_c, 3, 62, 79
5, 65281, Note_on_c, 3, 57, 74
5, 65710, Note_on_c, 3, 62, 0
5, 65716, Note_on_c, 3, 57, 0
5, 65761, Note_on_c, 3, 62, 100
5, 65762, Note_on_c, 3, 59, 87
5, 66227, Note_on_c, 3, 62, 0
5, 66240, Note_on_c, 3, 63, 79
5, 66250, Note_on_c, 3, 59, 0
5, 66265, Note_on_c, 3, 64, 100
5, 66267, Note_on_c, 3, 63, 0
5, 66311, Note_on_c, 3, 62, 72
5, 66321, Note_on_c, 3, 64, 0
5, 66369, Note_on_c, 3, 59, 60
5, 66374, Note_on_c, 3, 62, 0
5, 66424, Note_on_c, 3, 58, 110
5, 66439, Note_on_c, 3, 59, 0
5, 66488, Note_on_c, 3, 57, 69
5, 66491, Note_on_c, 3, 58, 0
5, 66543, Note_on_c, 3, 57, 0
5, 66546, Note_on_c, 3, 55, 65
5, 66606, Note_on_c, 3, 55, 0
5, 66606, Note_on_c, 3, 64, 110
5, 66730, Note_on_c, 3, 64, 0
5, 66840, Note_on_c, 3, 59, 75
5, 66841, Note_on_c, 3, 62, 84
5, 66861, Note_on_c, 3, 62, 0
5, 66862, Note_on_c, 3, 59, 0
5, 67081, Note_on_c, 3, 62, 110
5, 67081, Note_on_c, 3, 59, 114
5, 67102, Note_on_c, 3, 59, 0
5, 67106, Note_on_c, 3, 62, 0
5, 67260, Note_on_c, 3, 62, 94
5, 67261, Note_on_c, 3, 59, 110
5, 67277, Note_on_c, 3, 59, 0
5, 67280, Note_on_c, 3, 62, 0
5, 67380, Note_on_c, 3, 61, 94
5, 67381, Note_on_c, 3, 58, 94
5, 67434, Note_on_c, 3, 58, 0
5, 67436, Note_on_c, 3, 61, 0
5, 67440, Note_on_c, 3, 62, 63
5, 67441, Note_on_c, 3, 59, 59
5, 67645, Note_on_c, 3, 59, 0
5, 67647, Note_on_c, 3, 62, 0
5, 67800, Note_on_c, 3, 62, 110
5, 67801, Note_on_c, 3, 59, 87
5, 67815, Note_on_c, 3, 59, 0
5, 67817, Note_on_c, 3, 62, 0
5, 68040, Note_on_c, 3, 59, 94
5, 68041, Note_on_c, 3, 62, 94
5, 68057, Note_on_c, 3, 62, 0
5, 68057, Note_on_c, 3, 59, 0
5, 68160, Note_on_c, 3, 61, 87
5, 68161, Note_on_c, 3, 58, 75
5, 68197, Note_on_c, 3, 58, 0
5, 68206, Note_on_c, 3, 61, 0
5, 68220, Note_on_c, 3, 59, 79
5, 68220, Note_on_c, 3, 62, 63
5, 68241, Note_on_c, 3, 62, 0
5, 68242, Note_on_c, 3, 59, 0
5, 68340, Note_on_c, 3, 58, 94
5, 68341, Note_on_c, 3, 61, 110
5, 68400, Note_on_c, 3, 59, 74
5, 68400, Note_on_c, 3, 62, 61
5, 68402, Note_on_c, 3, 61, 0
5, 68408, Note_on_c, 3, 58, 0
5, 68649, Note_on_c, 3, 59, 0
5, 68654, Note_on_c, 3, 62, 0
5, 68760, Note_on_c, 3, 62, 110
5, 68761, Note_on_c, 3, 59, 79
5, 68775, Note_on_c, 3, 59, 0
5, 68776, Note_on_c, 3, 62, 0
5, 69000, Note_on_c, 3, 62, 94
5, 69001, Note_on_c, 3, 59, 100
5, 69011, Note_on_c, 3, 59, 0
5, 69016, Note_on_c, 3, 62, 0
5, 69180, Note_on_c, 3, 62, 94
5, 69181, Note_on_c, 3, 59, 94
5, 69199, Note_on_c, 3, 59, 0
5, 69202, Note_on_c, 3, 62, 0
5, 69300, Note_on_c, 3, 61, 94
5, 69301, Note_on_c, 3, 58, 94
5, 69359, Note_on_c, 3, 61, 0
5, 69360, Note_on_c, 3, 59, 84
5, 69360, Note_on_c, 3, 62, 74
5, 69364, Note_on_c, 3, 58, 0
5, 69651, Note_on_c, 3, 59, 0
5, 69670, Note_on_c, 3, 62, 0
5, 69726, Note_on_c, 3, 62, 94
5, 69726, Note_on_c, 3, 59, 94
5, 69750, Note_on_c, 3, 59, 0
5, 69751, Note_on_c, 3, 62, 0
5, 69963, Note_on_c, 3, 59, 94
5, 69965, Note_on_c, 3, 62, 87
5, 69993, Note_on_c, 3, 59, 0
5, 69995, Note_on_c, 3, 62, 0
5, 70084, Note_on_c, 3, 58, 100
5, 70085, Note_on_c, 3, 61, 75
5, 70145, Note_on_c, 3, 61, 0
5, 70146, Note_on_c, 3, 58, 0
5, 70147, Note_on_c, 3, 59, 69
5, 70149, Note_on_c, 3, 62, 61
5, 70172, Note_on_c, 3, 59, 0
5, 70174, Note_on_c, 3, 62, 0
5, 70263, Note_on_c, 3, 58, 84
5, 70263, Note_on_c, 3, 61, 75
5, 70329, Note_on_c, 3, 61, 0
5, 70329, Note_on_c, 3, 62, 79
5, 70330, Note_on_c, 3, 59, 110
5, 70331, Note_on_c, 3, 58, 0
5, 70350, Note_on_c, 3, 59, 0
5, 70354, Note_on_c, 3, 62, 0
5, 70354, End_track
6, 0, Start_track
6, 0, MIDI_port, 0
6, 140, Control_c, 4, 0, 0
6, 141, Control_c, 4, 32, 0
6, 142, Program_c, 4, 30
6, 1265, Note_on_c, 4, 64, 79
6, 1323, Note_on_c, 4, 67, 87
6, 1331, Note_on_c, 4, 64, 0
6, 1382, Note_on_c, 4, 69, 79
6, 1392, Note_on_c, 4, 67, 0
6, 1421, Note_on_c, 4, 69, 0
6, 1443, Note_on_c, 4, 69, 100
6, 1480, Pitch_bend_c, 4, 8322
6, 1481, Pitch_bend_c, 4, 8972
6, 1482, Pitch_bend_c, 4, 9622
6, 1483, Pitch_bend_c, 4, 10402
6, 1485, Pitch_bend_c, 4, 11962
6, 1486, Pitch_bend_c, 4, 12742
6, 1487, Pitch_bend_c, 4, 13912
6, 1488, Pitch_bend_c, 4, 14562
6, 1490, Pitch_bend_c, 4, 15732
6, 1492, Pitch_bend_c, 4, 16382
6, 1505, Note_on_c, 4, 69, 0
6, 1545, Pitch_bend_c, 4, 8192
6, 1568, Note_on_c, 4, 67, 100
6, 1625, Note_on_c, 4, 67, 0
6, 1682, Note_on_c, 4, 64, 94
6, 2336, Note_on_c, 4, 64, 0
6, 2341, Note_on_c, 4, 69, 110
6, 2373, Pitch_bend_c, 4, 8192
6, 2378, Pitch_bend_c, 4, 8842
6, 2384, Pitch_bend_c, 4, 9492
6, 2391, Pitch_bend_c, 4, 10142
6, 2402, Pitch_bend_c, 4, 10792
6, 2409, Pitch_bend_c, 4, 11442
6, 2418, Pitch_bend_c, 4, 12092
6, 2424, Pitch_bend_c, 4, 12742
6, 2430, Pitch_bend_c, 4, 13392
6, 2440, Pitch_bend_c, 4, 14042
6, 2445, Pitch_bend_c, 4, 14692
6, 2455, Pitch_bend_c, 4, 15342
6, 2462, Pitch_bend_c, 4, 15992
6, 2468, Pitch_bend_c, 4, 16382
6, 2517, Pitch_bend_c, 4, 15732
6, 2520, Pitch_bend_c, 4, 14952
6, 2523, Pitch_bend_c, 4, 14172
6, 2526, Pitch_bend_c, 4, 13392
6, 2528, Pitch_bend_c, 4, 12612
6, 2531, Pitch_bend_c, 4, 11962
6, 2535, Pitch_bend_c, 4, 11312
6, 2537, Pitch_bend_c, 4, 10532
6, 2541, Pitch_bend_c, 4, 9882
6, 2546, Pitch_bend_c, 4, 9102
6, 2556, Pitch_bend_c, 4, 8452
6, 2563, Pitch_bend_c, 4, 8192
6, 2580, Note_on_c, 4, 67, 94
6, 2588, Note_on_c, 4, 69, 0
6, 2636, Note_on_c, 4, 67, 0
6, 2641, Note_on_c, 4, 64, 84
6, 3139, Note_on_c, 4, 64, 0
6, 3179, Note_on_c, 4, 64, 87
6, 3233, Note_on_c, 4, 64, 0
6, 3234, Note_on_c, 4, 67, 84
6, 3289, Note_on_c, 4, 69, 79
6, 3298, Note_on_c, 4, 67, 0
6, 3324, Note_on_c, 4, 69, 0
6, 3349, Note_on_c, 4, 69, 94
6, 3380, Pitch_bend_c, 4, 8452
6, 3382, Pitch_bend_c, 4, 9102
6, 3384, Pitch_bend_c, 4, 10012
6, 3385, Pitch_bend_c, 4, 10922
6, 3387, Pitch_bend_c, 4, 11572
6, 3388, Pitch_bend_c, 4, 12482
6, 3390, Pitch_bend_c, 4, 13522
6, 3395, Pitch_bend_c, 4, 14562
6, 3400, Pitch_bend_c, 4, 16382
6, 3428, Note_on_c, 4, 69, 0
6, 3443, Pitch_bend_c, 4, 8192
6, 3471, Note_on_c, 4, 67, 94
6, 3536, Note_on_c, 4, 67, 0
6, 3596, Note_on_c, 4, 64, 100
6, 4219, Note_on_c, 4, 64, 0
6, 4261, Note_on_c, 4, 74, 110
6, 4315, Pitch_bend_c, 4, 8192
6, 4319, Pitch_bend_c, 4, 8842
6, 4323, Pitch_bend_c, 4, 9492
6, 4328, Pitch_bend_c, 4, 10142
6, 4332, Pitch_bend_c, 4, 10792
6, 4335, Pitch_bend_c, 4, 11442
6, 4340, Pitch_bend_c, 4, 12092
6, 4348, Pitch_bend_c, 4, 12742
6, 4352, Pitch_bend_c, 4, 13392
6, 4360, Pitch_bend_c, 4, 14042
6, 4361, Pitch_bend_c, 4, 14692
6, 4366, Pitch_bend_c, 4, 15472
6, 4370, Pitch_bend_c, 4, 16382
6, 4397, Pitch_bend_c, 4, 15732
6, 4398, Pitch_bend_c, 4, 14952
6, 4400, Pitch_bend_c, 4, 14172
6, 4402, Pitch_bend_c, 4, 13392
6, 4405, Pitch_bend_c, 4, 12612
6, 4406, Pitch_bend_c, 4, 11832
6, 4407, Pitch_bend_c, 4, 10922
6, 4410, Pitch_bend_c, 4, 10272
6, 4412, Pitch_bend_c, 4, 9622
6, 4415, Pitch_bend_c, 4, 8972
6, 4417, Pitch_bend_c, 4, 8322
6, 4418, Pitch_bend_c, 4, 8192
6, 4447, Note_on_c, 4, 71, 79
6, 4455, Note_on_c, 4, 74, 0
6, 4498, Note_on_c, 4, 71, 0
6, 4502, Note_on_c, 4, 69, 64
6, 4521, Note_on_c, 4, 69, 0
6, 4565, Note_on_c, 4, 71, 110
6, 4609, Note_on_c, 4, 71, 0
6, 4681, Note_on_c, 4, 67, 84
6, 4731, Note_on_c, 4, 67, 0
6, 4743, Note_on_c, 4, 69, 100
6, 4770, Note_on_c, 4, 69, 0
6, 4807, Note_on_c, 4, 64, 59
6, 4819, Note_on_c, 4, 64, 0
6, 4865, Note_on_c, 4, 64, 114
6, 4893, Note_on_c, 4, 64, 0
6, 4985, Note_on_c, 4, 62, 94
6, 5040, Note_on_c, 4, 62, 0
6, 5047, Note_on_c, 4, 64, 100
6, 5087, Note_on_c, 4, 64, 0
6, 5160, Note_on_c, 4, 67, 110
6, 5221, Note_on_c, 4, 69, 79
6, 5225, Note_on_c, 4, 67, 0
6, 5258, Note_on_c, 4, 69, 0
6, 5285, Note_on_c, 4, 69, 100
6, 5320, Pitch_bend_c, 4, 8322
6, 5321, Pitch_bend_c, 4, 8972
6, 5325, Pitch_bend_c, 4, 9622
6, 5327, Pitch_bend_c, 4, 11962
6, 5328, Pitch_bend_c, 4, 12612
6, 5331, Pitch_bend_c, 4, 13262
6, 5332, Pitch_bend_c, 4, 13912
6, 5335, Pitch_bend_c, 4, 14822
6, 5338, Pitch_bend_c, 4, 15472
6, 5341, Pitch_bend_c, 4, 16122
6, 5342, Pitch_bend_c, 4, 16382
6, 5409, Pitch_bend_c, 4, 8192
6, 5410, Note_on_c, 4, 67, 94
6, 5413, Note_on_c, 4, 69, 0
6, 5437, Note_on_c, 4, 67, 0
6, 5529, Note_on_c, 4, 64, 100
6, 6124, Note_on_c, 4, 64, 0
6, 6183, Note_on_c, 4, 74, 114
6, 6205, Pitch_bend_c, 4, 8192
6, 6208, Pitch_bend_c, 4, 8972
6, 6210, Pitch_bend_c, 4, 9622
6, 6211, Pitch_bend_c, 4, 10272
6, 6214, Pitch_bend_c, 4, 11052
6, 6215, Pitch_bend_c, 4, 11832
6, 6218, Pitch_bend_c, 4, 12482
6, 6219, Pitch_bend_c, 4, 13132
6, 6221, Pitch_bend_c, 4, 13912
6, 6224, Pitch_bend_c, 4, 14692
6, 6228, Pitch_bend_c, 4, 15342
6, 6231, Pitch_bend_c, 4, 15992
6, 6233, Pitch_bend_c, 4, 16382
6, 6352, Pitch_bend_c, 4, 15732
6, 6360, Pitch_bend_c, 4, 15082
6, 6367, Pitch_bend_c, 4, 14432
6, 6373, Pitch_bend_c, 4, 13782
6, 6381, Pitch_bend_c, 4, 13002
6, 6386, Pitch_bend_c, 4, 12222
6, 6388, Pitch_bend_c, 4, 11572
6, 6391, Pitch_bend_c, 4, 10792
6, 6396, Pitch_bend_c, 4, 10012
6, 6400, Pitch_bend_c, 4, 9232
6, 6402, Pitch_bend_c, 4, 8582
6, 6406, Pitch_bend_c, 4, 8192
6, 6467, Note_on_c, 4, 74, 0
6, 6491, Note_on_c, 4, 71, 100
6, 6539, Note_on_c, 4, 71, 0
6, 6609, Note_on_c, 4, 69, 79
6, 6668, Note_on_c, 4, 69, 0
6, 6669, Note_on_c, 4, 71, 75
6, 6690, Note_on_c, 4, 71, 0
6, 6728, Note_on_c, 4, 67, 100
6, 6781, Note_on_c, 4, 67, 0
6, 6786, Note_on_c, 4, 64, 65
6, 6813, Note_on_c, 4, 64, 0
6, 6845, Note_on_c, 4, 62, 87
6, 6862, Note_on_c, 4, 62, 0
6, 6905, Note_on_c, 4, 64, 121
6, 7141, Note_on_c, 4, 64, 0
6, 7143, Note_on_c, 4, 62, 100
6, 7199, Note_on_c, 4, 64, 75
6, 7202, Note_on_c, 4, 62, 0
6, 7220, Note_on_c, 4, 64, 0
6, 24301, Note_on_c, 4, 64, 87
6, 24364, Note_on_c, 4, 67, 87
6, 24374, Note_on_c, 4, 64, 0
6, 24420, Note_on_c, 4, 69, 87
6, 24421, Note_on_c, 4, 67, 0
6, 24488, Pitch_bend_c, 4, 8452
6, 24489, Pitch_bend_c, 4, 9362
6, 24490, Pitch_bend_c, 4, 10272
6, 24493, Pitch_bend_c, 4, 11312
6, 24495, Pitch_bend_c, 4, 12222
6, 24496, Pitch_bend_c, 4, 13002
6, 24499, Pitch_bend_c, 4, 13652
6, 24501, Pitch_bend_c, 4, 14302
6, 24505, Pitch_bend_c, 4, 14952
6, 24509, Pitch_bend_c, 4, 15602
6, 24514, Pitch_bend_c, 4, 16382
6, 24544, Note_on_c, 4, 69, 0
6, 24555, Pitch_bend_c, 4, 8192
6, 24605, Note_on_c, 4, 67, 100
6, 24667, Note_on_c, 4, 67, 0
6, 24725, Note_on_c, 4, 64, 100
6, 25212, Note_on_c, 4, 64, 0
6, 25262, Note_on_c, 4, 69, 121
6, 25293, Pitch_bend_c, 4, 8192
6, 25298, Pitch_bend_c, 4, 8842
6, 25307, Pitch_bend_c, 4, 9622
6, 25313, Pitch_bend_c, 4, 10272
6, 25320, Pitch_bend_c, 4, 10922
6, 25325, Pitch_bend_c, 4, 11702
6, 25331, Pitch_bend_c, 4, 12352
6, 25335, Pitch_bend_c, 4, 13002
6, 25341, Pitch_bend_c, 4, 13652
6, 25346, Pitch_bend_c, 4, 14302
6, 25351, Pitch_bend_c, 4, 14952
6, 25360, Pitch_bend_c, 4, 15602
6, 25361, Note_on_c, 4, 69, 0
6, 25362, Pitch_bend_c, 4, 15732
6, 25397, Pitch_bend_c, 4, 8192
6, 25445, Note_on_c, 4, 69, 114
6, 25450, Pitch_bend_c, 4, 8322
6, 25452, Pitch_bend_c, 4, 8972
6, 25455, Pitch_bend_c, 4, 9882
6, 25458, Pitch_bend_c, 4, 10532
6, 25461, Pitch_bend_c, 4, 11442
6, 25463, Pitch_bend_c, 4, 12092
6, 25467, Pitch_bend_c, 4, 12872
6, 25471, Pitch_bend_c, 4, 13522
6, 25476, Note_on_c, 4, 69, 0
6, 25476, Pitch_bend_c, 4, 14302
6, 25486, Pitch_bend_c, 4, 14952
6, 25491, Pitch_bend_c, 4, 15602
6, 25496, Pitch_bend_c, 4, 16382
6, 25505, Note_on_c, 4, 69, 84
6, 25571, Pitch_bend_c, 4, 16252
6, 25574, Pitch_bend_c, 4, 15472
6, 25577, Pitch_bend_c, 4, 14822
6, 25580, Pitch_bend_c, 4, 14172
6, 25582, Pitch_bend_c, 4, 13522
6, 25587, Pitch_bend_c, 4, 12742
6, 25591, Pitch_bend_c, 4, 12092
6, 25596, Pitch_bend_c, 4, 11442
6, 25600, Pitch_bend_c, 4, 10662
6, 25604, Pitch_bend_c, 4, 9882
6, 25606, Pitch_bend_c, 4, 9232
6, 25609, Pitch_bend_c, 4, 8452
6, 25610, Pitch_bend_c, 4, 8192
6, 25611, Pitch_bend_c, 4, 8192
6, 25626, Note_on_c, 4, 67, 94
6, 25636, Note_on_c, 4, 69, 0
6, 25686, Note_on_c, 4, 64, 87
6, 25690, Note_on_c, 4, 67, 0
6, 25990, Note_on_c, 4, 64, 0
6, 26044, Note_on_c, 4, 74, 121
6, 26072, Pitch_bend_c, 4, 8192
6, 26074, Pitch_bend_c, 4, 8972
6, 26076, Pitch_bend_c, 4, 9622
6, 26077, Pitch_bend_c, 4, 10272
6, 26080, Pitch_bend_c, 4, 10922
6, 26082, Pitch_bend_c, 4, 11832
6, 26085, Pitch_bend_c, 4, 12742
6, 26086, Pitch_bend_c, 4, 13392
6, 26090, Pitch_bend_c, 4, 14302
6, 26091, Pitch_bend_c, 4, 14952
6, 26093, Pitch_bend_c, 4, 15602
6, 26095, Pitch_bend_c, 4, 16252
6, 26095, Pitch_bend_c, 4, 16382
6, 26114, Note_on_c, 4, 74, 0
6, 26135, Pitch_bend_c, 4, 8192
6, 26164, Note_on_c, 4, 74, 114
6, 26183, Pitch_bend_c, 4, 8322
6, 26185, Pitch_bend_c, 4, 9102
6, 26189, Pitch_bend_c, 4, 9882
6, 26191, Pitch_bend_c, 4, 10662
6, 26193, Pitch_bend_c, 4, 11312
6, 26196, Pitch_bend_c, 4, 12092
6, 26199, Pitch_bend_c, 4, 12872
6, 26201, Pitch_bend_c, 4, 13522
6, 26206, Pitch_bend_c, 4, 14172
6, 26210, Pitch_bend_c, 4, 14822
6, 26215, Pitch_bend_c, 4, 15472
6, 26220, Pitch_bend_c, 4, 16122
6, 26221, Pitch_bend_c, 4, 16382
6, 26317, Note_on_c, 4, 74, 0
6, 26331, Pitch_bend_c, 4, 8192
6, 26406, Note_on_c, 4, 69, 121
6, 26433, Pitch_bend_c, 4, 8192
6, 26437, Pitch_bend_c, 4, 8842
6, 26444, Pitch_bend_c, 4, 9622
6, 26450, Pitch_bend_c, 4, 10272
6, 26455, Pitch_bend_c, 4, 10922
6, 26460, Pitch_bend_c, 4, 11572
6, 26465, Pitch_bend_c, 4, 12222
6, 26467, Pitch_bend_c, 4, 12872
6, 26472, Pitch_bend_c, 4, 13522
6, 26475, Pitch_bend_c, 4, 14172
6, 26477, Pitch_bend_c, 4, 14822
6, 26481, Pitch_bend_c, 4, 15602
6, 26484, Pitch_bend_c, 4, 16252
6, 26485, Pitch_bend_c, 4, 16382
6, 26522, Pitch_bend_c, 4, 8192
6, 26539, Note_on_c, 4, 69, 0
6, 26651, Note_on_c, 4, 67, 110
6, 26710, Note_on_c, 4, 64, 72
6, 26712, Note_on_c, 4, 67, 0
6, 26744, Note_on_c, 4, 64, 0
6, 26827, Note_on_c, 4, 62, 114
6, 26885, Note_on_c, 4, 64, 87
6, 26891, Note_on_c, 4, 62, 0
6, 26916, Note_on_c, 4, 64, 0
6, 26947, Note_on_c, 4, 62, 110
6, 26981, Note_on_c, 4, 62, 0
6, 27069, Note_on_c, 4, 58, 110
6, 27126, Note_on_c, 4, 58, 0
6, 27129, Note_on_c, 4, 57, 63
6, 27180, Note_on_c, 4, 57, 0
6, 27185, Note_on_c, 4, 55, 64
6, 27213, Note_on_c, 4, 55, 0
6, 27245, Note_on_c, 4, 57, 121
6, 27277, Note_on_c, 4, 57, 0
6, 27361, Note_on_c, 4, 55, 72
6, 27395, Note_on_c, 4, 55, 0
6, 27421, Note_on_c, 4, 55, 64
6, 27459, Note_on_c, 4, 55, 0
6, 27481, Note_on_c, 4, 52, 100
6, 27525, Note_on_c, 4, 52, 0
6, 27603, Note_on_c, 4, 52, 94
6, 27659, Note_on_c, 4, 52, 0
6, 27730, Note_on_c, 4, 55, 110
6, 27777, Note_on_c, 4, 55, 0
6, 27846, Note_on_c, 4, 52, 110
6, 28238, Note_on_c, 4, 52, 0
6, 28321, Note_on_c, 4, 57, 100
6, 28367, Pitch_bend_c, 4, 8192
6, 28375, Pitch_bend_c, 4, 8842
6, 28380, Pitch_bend_c, 4, 9492
6, 28386, Pitch_bend_c, 4, 10142
6, 28390, Pitch_bend_c, 4, 10792
6, 28395, Pitch_bend_c, 4, 11572
6, 28399, Pitch_bend_c, 4, 12222
6, 28405, Pitch_bend_c, 4, 12872
6, 28415, Pitch_bend_c, 4, 13522
6, 28424, Pitch_bend_c, 4, 14172
6, 28426, Pitch_bend_c, 4, 14822
6, 28431, Pitch_bend_c, 4, 15472
6, 28435, Pitch_bend_c, 4, 16122
6, 28435, Pitch_bend_c, 4, 16382
6, 28514, Note_on_c, 4, 62, 110
6, 28526, Note_on_c, 4, 57, 0
6, 28556, Note_on_c, 4, 62, 0
6, 28568, Pitch_bend_c, 4, 8192
6, 28620, Note_on_c, 4, 57, 87
6, 28654, Pitch_bend_c, 4, 8192
6, 28659, Pitch_bend_c, 4, 8842
6, 28663, Pitch_bend_c, 4, 9492
6, 28670, Pitch_bend_c, 4, 10142
6, 28674, Pitch_bend_c, 4, 10792
6, 28679, Pitch_bend_c, 4, 11442
6, 28685, Pitch_bend_c, 4, 12092
6, 28691, Pitch_bend_c, 4, 12742
6, 28695, Pitch_bend_c, 4, 13392
6, 28696, Pitch_bend_c, 4, 14042
6, 28701, Pitch_bend_c, 4, 14692
6, 28702, Pitch_bend_c, 4, 15342
6, 28707, Pitch_bend_c, 4, 15992
6, 28708, Pitch_bend_c, 4, 16382
6, 28798, Note_on_c, 4, 62, 121
6, 28810, Note_on_c, 4, 57, 0
6, 28822, Pitch_bend_c, 4, 8192
6, 28841, Note_on_c, 4, 62, 0
6, 28921, Note_on_c, 4, 57, 94
6, 28971, Note_on_c, 4, 57, 0
6, 29050, Note_on_c, 4, 59, 114
6, 29089, Note_on_c, 4, 59, 0
6, 29287, Note_on_c, 4, 62, 121
6, 29341, Pitch_bend_c, 4, 8192
6, 29344, Pitch_bend_c, 4, 8972
6, 29346, Pitch_bend_c, 4, 9752
6, 29349, Pitch_bend_c, 4, 10402
6, 29350, Pitch_bend_c, 4, 11052
6, 29352, Pitch_bend_c, 4, 11962
6, 29355, Pitch_bend_c, 4, 12872
6, 29356, Pitch_bend_c, 4, 13652
6, 29357, Pitch_bend_c, 4, 14562
6, 29360, Pitch_bend_c, 4, 15472
6, 29362, Pitch_bend_c, 4, 16382
6, 29407, Pitch_bend_c, 4, 15602
6, 29409, Pitch_bend_c, 4, 13912
6, 29410, Pitch_bend_c, 4, 11312
6, 29411, Pitch_bend_c, 4, 8192
6, 29463, Note_on_c, 4, 62, 0
6, 29465, Note_on_c, 4, 59, 100
6, 29523, Note_on_c, 4, 59, 0
6, 29524, Note_on_c, 4, 57, 64
6, 29541, Note_on_c, 4, 57, 0
6, 29590, Note_on_c, 4, 59, 121
6, 29621, Note_on_c, 4, 59, 0
6, 29826, Note_on_c, 4, 55, 110
6, 30001, Note_on_c, 4, 55, 0
6, 30002, Note_on_c, 4, 52, 79
6, 30041, Note_on_c, 4, 52, 0
6, 30061, Note_on_c, 4, 50, 94
6, 30084, Note_on_c, 4, 50, 0
6, 30185, Note_on_c, 4, 52, 75
6, 30218, Note_on_c, 4, 52, 0
6, 30243, Note_on_c, 4, 55, 87
6, 30276, Note_on_c, 4, 55, 0
6, 30302, Note_on_c, 4, 52, 74
6, 30322, Note_on_c, 4, 52, 0
6, 30361, Note_on_c, 4, 55, 110
6, 30402, Note_on_c, 4, 55, 0
6, 30480, Note_on_c, 4, 55, 87
6, 30528, Note_on_c, 4, 55, 0
6, 30601, Note_on_c, 4, 55, 114
6, 30648, Note_on_c, 4, 55, 0
6, 30725, Note_on_c, 4, 55, 100
6, 30776, Note_on_c, 4, 55, 0
6, 30779, Note_on_c, 4, 57, 74
6, 30842, Note_on_c, 4, 57, 0
6, 30842, Note_on_c, 4, 55, 110
6, 30876, Note_on_c, 4, 55, 0
6, 30901, Note_on_c, 4, 52, 44
6, 30912, Note_on_c, 4, 52, 0
6, 30966, Note_on_c, 4, 52, 100
6, 30996, Note_on_c, 4, 52, 0
6, 31144, Note_on_c, 4, 59, 122
6, 31202, Pitch_bend_c, 4, 8192
6, 31210, Pitch_bend_c, 4, 8842
6, 31225, Pitch_bend_c, 4, 9492
6, 31236, Pitch_bend_c, 4, 10272
6, 31240, Pitch_bend_c, 4, 10922
6, 31242, Pitch_bend_c, 4, 11572
6, 31245, Pitch_bend_c, 4, 12222
6, 31246, Pitch_bend_c, 4, 12872
6, 31248, Pitch_bend_c, 4, 13522
6, 31252, Pitch_bend_c, 4, 14432
6, 31253, Pitch_bend_c, 4, 15082
6, 31256, Pitch_bend_c, 4, 15862
6, 31258, Pitch_bend_c, 4, 16382
6, 31284, Pitch_bend_c, 4, 15732
6, 31286, Pitch_bend_c, 4, 15082
6, 31287, Pitch_bend_c, 4, 14432
6, 31288, Pitch_bend_c, 4, 13652
6, 31291, Pitch_bend_c, 4, 12872
6, 31293, Pitch_bend_c, 4, 11962
6, 31295, Pitch_bend_c, 4, 10922
6, 31296, Pitch_bend_c, 4, 10142
6, 31299, Pitch_bend_c, 4, 9232
6, 31301, Pitch_bend_c, 4, 8452
6, 31301, Pitch_bend_c, 4, 8192
6, 31322, Note_on_c, 4, 57, 79
6, 31331, Note_on_c, 4, 59, 0
6, 31380, Note_on_c, 4, 57, 0
6, 31381, Note_on_c, 4, 55, 60
6, 31400, Note_on_c, 4, 55, 0
6, 31441, Note_on_c, 4, 57, 110
6, 31503, Note_on_c, 4, 57, 0
6, 31503, Note_on_c, 4, 55, 61
6, 31515, Note_on_c, 4, 55, 0
6, 31561, Note_on_c, 4, 57, 110
6, 31623, Note_on_c, 4, 55, 59
6, 31629, Note_on_c, 4, 57, 0
6, 31660, Note_on_c, 4, 55, 0
6, 31681, Note_on_c, 4, 52, 84
6, 31703, Note_on_c, 4, 52, 0
6, 31741, Note_on_c, 4, 52, 100
6, 31762, Note_on_c, 4, 52, 0
6, 31805, Note_on_c, 4, 62, 114
6, 31908, Pitch_bend_c, 4, 8192
6, 31913, Pitch_bend_c, 4, 8972
6, 31918, Pitch_bend_c, 4, 9622
6, 31921, Pitch_bend_c, 4, 10272
6, 31925, Pitch_bend_c, 4, 10922
6, 31928, Pitch_bend_c, 4, 11702
6, 31933, Pitch_bend_c, 4, 12482
6, 31938, Pitch_bend_c, 4, 13262
6, 31943, Pitch_bend_c, 4, 13912
6, 31949, Pitch_bend_c, 4, 14562
6, 31955, Pitch_bend_c, 4, 15212
6, 31960, Pitch_bend_c, 4, 15862
6, 31966, Pitch_bend_c, 4, 16382
6, 32049, Note_on_c, 4, 62, 0
6, 32125, Pitch_bend_c, 4, 8192
6, 42611, Note_on_c, 4, 67, 121
6, 42644, Pitch_bend_c, 4, 8322
6, 42649, Pitch_bend_c, 4, 8972
6, 42652, Pitch_bend_c, 4, 9622
6, 42655, Pitch_bend_c, 4, 10272
6, 42660, Pitch_bend_c, 4, 10922
6, 42662, Pitch_bend_c, 4, 11572
6, 42667, Pitch_bend_c, 4, 12222
6, 42670, Pitch_bend_c, 4, 12872
6, 42674, Pitch_bend_c, 4, 13522
6, 42679, Pitch_bend_c, 4, 14172
6, 42682, Pitch_bend_c, 4, 14952
6, 42687, Pitch_bend_c, 4, 15732
6, 42691, Pitch_bend_c, 4, 16382
6, 42751, Pitch_bend_c, 4, 15732
6, 42754, Pitch_bend_c, 4, 14952
6, 42756, Pitch_bend_c, 4, 14302
6, 42759, Pitch_bend_c, 4, 13652
6, 42761, Pitch_bend_c, 4, 12872
6, 42765, Pitch_bend_c, 4, 12092
6, 42766, Pitch_bend_c, 4, 11442
6, 42768, Pitch_bend_c, 4, 10662
6, 42770, Pitch_bend_c, 4, 9882
6, 42771, Pitch_bend_c, 4, 9232
6, 42774, Pitch_bend_c, 4, 8582
6, 42775, Pitch_bend_c, 4, 8192
6, 42796, Note_on_c, 4, 64, 74
6, 42815, Note_on_c, 4, 67, 0
6, 42844, Note_on_c, 4, 64, 0
6, 42850, Note_on_c, 4, 62, 62
6, 42892, Note_on_c, 4, 62, 0
6, 42967, Note_on_c, 4, 64, 121
6, 43081, Note_on_c, 4, 62, 75
6, 43085, Note_on_c, 4, 64, 0
6, 43139, Note_on_c, 4, 62, 0
6, 43145, Note_on_c, 4, 64, 110
6, 43172, Note_on_c, 4, 64, 0
6, 43259, Note_on_c, 4, 58, 114
6, 43261, Note_on_c, 4, 61, 110
6, 43326, Note_on_c, 4, 58, 0
6, 43329, Note_on_c, 4, 61, 0
6, 43329, Note_on_c, 4, 59, 60
6, 43330, Note_on_c, 4, 62, 61
6, 43369, Note_on_c, 4, 59, 0
6, 43375, Note_on_c, 4, 62, 0
6, 43432, Note_on_c, 4, 58, 100
6, 43432, Note_on_c, 4, 61, 94
6, 43505, Note_on_c, 4, 58, 0
6, 43505, Note_on_c, 4, 59, 94
6, 43506, Note_on_c, 4, 62, 110
6, 43507, Note_on_c, 4, 61, 0
6, 43532, Note_on_c, 4, 59, 0
6, 43534, Note_on_c, 4, 62, 0
6, 43745, Note_on_c, 4, 52, 100
6, 43806, Note_on_c, 4, 52, 0
6, 43808, Note_on_c, 4, 55, 100
6, 43840, Note_on_c, 4, 55, 0
6, 43922, Note_on_c, 4, 57, 110
6, 43982, Note_on_c, 4, 57, 0
6, 43994, Note_on_c, 4, 52, 37
6, 44000, Note_on_c, 4, 52, 0
6, 44042, Note_on_c, 4, 58, 121
6, 44105, Note_on_c, 4, 59, 94
6, 44106, Note_on_c, 4, 58, 0
6, 44144, Note_on_c, 4, 59, 0
6, 44223, Note_on_c, 4, 58, 94
6, 44223, Note_on_c, 4, 61, 94
6, 44284, Note_on_c, 4, 61, 0
6, 44285, Note_on_c, 4, 62, 72
6, 44286, Note_on_c, 4, 58, 0
6, 44287, Note_on_c, 4, 59, 72
6, 44310, Note_on_c, 4, 59, 0
6, 44321, Note_on_c, 4, 62, 0
6, 44402, Note_on_c, 4, 64, 121
6, 44513, Note_on_c, 4, 64, 0
6, 44522, Note_on_c, 4, 62, 110
6, 44567, Note_on_c, 4, 62, 0
6, 44583, Note_on_c, 4, 64, 100
6, 44608, Note_on_c, 4, 64, 0
6, 44642, Note_on_c, 4, 58, 100
6, 44643, Note_on_c, 4, 61, 114
6, 44700, Note_on_c, 4, 61, 0
6, 44701, Note_on_c, 4, 58, 0
6, 44702, Note_on_c, 4, 62, 74
6, 44703, Note_on_c, 4, 59, 65
6, 44728, Note_on_c, 4, 59, 0
6, 44756, Note_on_c, 4, 62, 0
6, 44763, Note_on_c, 4, 58, 94
6, 44825, Note_on_c, 4, 58, 0
6, 44826, Note_on_c, 4, 57, 79
6, 44867, Note_on_c, 4, 57, 0
6, 44885, Note_on_c, 4, 55, 64
6, 44921, Note_on_c, 4, 55, 0
6, 44945, Note_on_c, 4, 55, 72
6, 44994, Note_on_c, 4, 55, 0
6, 45000, Note_on_c, 4, 57, 79
6, 45040, Note_on_c, 4, 57, 0
6, 45120, Note_on_c, 4, 55, 61
6, 45121, Note_on_c, 4, 58, 114
6, 45156, Note_on_c, 4, 58, 0
6, 45156, Note_on_c, 4, 59, 94
6, 45208, Note_on_c, 4, 59, 0
6, 45218, Note_on_c, 4, 55, 0
6, 45238, Note_on_c, 4, 55, 59
6, 45245, Note_on_c, 4, 58, 121
6, 45261, Note_on_c, 4, 59, 87
6, 45262, Note_on_c, 4, 58, 0
6, 45316, Note_on_c, 4, 55, 0
6, 45335, Note_on_c, 4, 59, 0
6, 45360, Note_on_c, 4, 58, 110
6, 45388, Note_on_c, 4, 58, 0
6, 45388, Note_on_c, 4, 57, 79
6, 45415, Note_on_c, 4, 55, 59
6, 45420, Note_on_c, 4, 57, 0
6, 45450, Note_on_c, 4, 55, 0
6, 45478, Note_on_c, 4, 57, 110
6, 45537, Note_on_c, 4, 55, 65
6, 45540, Note_on_c, 4, 57, 0
6, 45568, Note_on_c, 4, 55, 0
6, 45669, Note_on_c, 4, 52, 94
6, 45721, Note_on_c, 4, 52, 0
6, 45726, Note_on_c, 4, 55, 94
6, 45776, Note_on_c, 4, 57, 58
6, 45777, Note_on_c, 4, 55, 0
6, 45806, Note_on_c, 4, 57, 0
6, 45844, Note_on_c, 4, 58, 121
6, 45905, Pitch_bend_c, 4, 8842
6, 45915, Pitch_bend_c, 4, 9492
6, 45923, Pitch_bend_c, 4, 10142
6, 45930, Pitch_bend_c, 4, 10792
6, 45938, Pitch_bend_c, 4, 11312
6, 45951, Pitch_bend_c, 4, 10662
6, 45955, Pitch_bend_c, 4, 9882
6, 45959, Pitch_bend_c, 4, 9232
6, 45961, Pitch_bend_c, 4, 8582
6, 45962, Pitch_bend_c, 4, 8192
6, 46025, Note_on_c, 4, 58, 0
6, 46026, Note_on_c, 4, 57, 100
6, 46081, Note_on_c, 4, 57, 0
6, 46086, Note_on_c, 4, 55, 69
6, 46123, Note_on_c, 4, 55, 0
6, 46142, Note_on_c, 4, 57, 100
6, 46176, Note_on_c, 4, 57, 0
6, 46195, Note_on_c, 4, 55, 54
6, 46237, Note_on_c, 4, 55, 0
6, 46319, Note_on_c, 4, 52, 110
6, 46365, Note_on_c, 4, 52, 0
6, 46449, Note_on_c, 4, 64, 69
6, 46453, Note_on_c, 4, 64, 0
6, 46505, Note_on_c, 4, 67, 125
6, 46612, Pitch_bend_c, 4, 8842
6, 46616, Pitch_bend_c, 4, 9492
6, 46625, Pitch_bend_c, 4, 10142
6, 46634, Pitch_bend_c, 4, 10792
6, 46640, Pitch_bend_c, 4, 11442
6, 46646, Pitch_bend_c, 4, 12092
6, 46654, Pitch_bend_c, 4, 12872
6, 46659, Pitch_bend_c, 4, 13522
6, 46666, Pitch_bend_c, 4, 14172
6, 46672, Pitch_bend_c, 4, 14822
6, 46676, Pitch_bend_c, 4, 15472
6, 46681, Pitch_bend_c, 4, 16122
6, 46683, Pitch_bend_c, 4, 16382
6, 46925, Pitch_bend_c, 4, 15602
6, 46928, Pitch_bend_c, 4, 14822
6, 46929, Pitch_bend_c, 4, 13782
6, 46930, Pitch_bend_c, 4, 12612
6, 46933, Pitch_bend_c, 4, 11442
6, 46934, Pitch_bend_c, 4, 10012
6, 46937, Pitch_bend_c, 4, 8842
6, 46938, Pitch_bend_c, 4, 8192
6, 46985, Note_on_c, 4, 67, 0
6, 47048, Note_on_c, 4, 64, 121
6, 47096, Note_on_c, 4, 64, 0
6, 47104, Note_on_c, 4, 62, 62
6, 47124, Note_on_c, 4, 62, 0
6, 47166, Note_on_c, 4, 64, 121
6, 47197, Note_on_c, 4, 64, 0
6, 47284, Note_on_c, 4, 64, 121
6, 47318, Note_on_c, 4, 64, 0
6, 47404, Note_on_c, 4, 62, 87
6, 47455, Note_on_c, 4, 62, 0
6, 47462, Note_on_c, 4, 64, 94
6, 47488, Note_on_c, 4, 64, 0
6, 47646, Note_on_c, 4, 67, 110
6, 47703, Pitch_bend_c, 4, 8842
6, 47706, Pitch_bend_c, 4, 9492
6, 47710, Pitch_bend_c, 4, 10142
6, 47715, Pitch_bend_c, 4, 10792
6, 47720, Pitch_bend_c, 4, 11442
6, 47729, Pitch_bend_c, 4, 12092
6, 47741, Pitch_bend_c, 4, 12742
6, 47748, Pitch_bend_c, 4, 13392
6, 47753, Pitch_bend_c, 4, 14172
6, 47755, Pitch_bend_c, 4, 14822
6, 47758, Pitch_bend_c, 4, 15472
6, 47761, Pitch_bend_c, 4, 16382
6, 47893, Note_on_c, 4, 67, 0
6, 47915, Pitch_bend_c, 4, 8192
6, 48069, Note_on_c, 4, 64, 121
6, 48101, Note_on_c, 4, 64, 0
6, 48185, Note_on_c, 4, 62, 87
6, 48241, Note_on_c, 4, 62, 0
6, 48242, Note_on_c, 4, 64, 94
6, 48278, Note_on_c, 4, 64, 0
6, 48362, Note_on_c, 4, 58, 110
6, 48363, Note_on_c, 4, 61, 110
6, 48420, Note_on_c, 4, 58, 0
6, 48422, Note_on_c, 4, 61, 0
6, 48422, Note_on_c, 4, 59, 62
6, 48426, Note_on_c, 4, 62, 72
6, 48450, Note_on_c, 4, 59, 0
6, 48457, Note_on_c, 4, 62, 0
6, 48481, Note_on_c, 4, 62, 59
6, 48481, Note_on_c, 4, 59, 60
6, 48507, Note_on_c, 4, 59, 0
6, 48516, Note_on_c, 4, 62, 0
6, 48541, Note_on_c, 4, 58, 114
6, 48601, Note_on_c, 4, 62, 79
6, 48616, Note_on_c, 4, 58, 0
6, 48616, Note_on_c, 4, 59, 84
6, 48634, Note_on_c, 4, 62, 0
6, 48670, Note_on_c, 4, 62, 75
6, 48681, Note_on_c, 4, 59, 0
6, 48700, Note_on_c, 4, 62, 0
6, 48723, Note_on_c, 4, 58, 87
6, 48785, Note_on_c, 4, 58, 0
6, 48786, Note_on_c, 4, 59, 100
6, 48839, Note_on_c, 4, 62, 100
6, 48853, Note_on_c, 4, 59, 0
6, 48877, Note_on_c, 4, 62, 0
6, 48897, Note_on_c, 4, 58, 94
6, 48950, Note_on_c, 4, 58, 0
6, 48953, Note_on_c, 4, 59, 65
6, 49016, Note_on_c, 4, 62, 87
6, 49036, Note_on_c, 4, 59, 0
6, 49038, Note_on_c, 4, 62, 0
6, 49072, Note_on_c, 4, 58, 100
6, 49073, Note_on_c, 4, 61, 114
6, 49136, Note_on_c, 4, 58, 0
6, 49137, Note_on_c, 4, 59, 74
6, 49138, Note_on_c, 4, 61, 0
6, 49138, Note_on_c, 4, 62, 79
6, 49301, Note_on_c, 4, 59, 0
6, 49303, Note_on_c, 4, 62, 0
6, 49324, Note_on_c, 4, 59, 63
6, 49325, Note_on_c, 4, 62, 64
6, 49340, Note_on_c, 4, 62, 0
6, 49341, Note_on_c, 4, 59, 0
6, 49504, Note_on_c, 4, 59, 121
6, 49566, Note_on_c, 4, 57, 60
6, 49568, Note_on_c, 4, 59, 0
6, 49585, Note_on_c, 4, 57, 0
6, 49624, Note_on_c, 4, 59, 100
6, 49675, Note_on_c, 4, 59, 0
6, 49683, Note_on_c, 4, 57, 65
6, 49705, Note_on_c, 4, 57, 0
6, 49745, Note_on_c, 4, 62, 121
6, 49767, Pitch_bend_c, 4, 8972
6, 49770, Pitch_bend_c, 4, 9622
6, 49772, Pitch_bend_c, 4, 10402
6, 49773, Pitch_bend_c, 4, 11052
6, 49775, Pitch_bend_c, 4, 11962
6, 49777, Pitch_bend_c, 4, 12742
6, 49780, Pitch_bend_c, 4, 13392
6, 49782, Pitch_bend_c, 4, 14042
6, 49785, Pitch_bend_c, 4, 14692
6, 49790, Pitch_bend_c, 4, 15342
6, 49795, Pitch_bend_c, 4, 15992
6, 49799, Pitch_bend_c, 4, 16382
6, 49906, Note_on_c, 4, 62, 0
6, 49931, Pitch_bend_c, 4, 11702
6, 49931, Note_on_c, 4, 62, 121
6, 49954, Pitch_bend_c, 4, 11962
6, 49955, Pitch_bend_c, 4, 12872
6, 49958, Pitch_bend_c, 4, 13782
6, 49960, Pitch_bend_c, 4, 14692
6, 49961, Pitch_bend_c, 4, 15472
6, 49963, Pitch_bend_c, 4, 16122
6, 49964, Pitch_bend_c, 4, 16382
6, 50064, Note_on_c, 4, 62, 0
6, 50066, Pitch_bend_c, 4, 8192
6, 50110, Note_on_c, 4, 62, 110
6, 50121, Pitch_bend_c, 4, 8972
6, 50122, Pitch_bend_c, 4, 11052
6, 50122, Pitch_bend_c, 4, 11702
6, 50125, Pitch_bend_c, 4, 12612
6, 50127, Pitch_bend_c, 4, 13522
6, 50128, Pitch_bend_c, 4, 14172
6, 50131, Pitch_bend_c, 4, 14952
6, 50133, Pitch_bend_c, 4, 15862
6, 50136, Pitch_bend_c, 4, 16382
6, 50289, Pitch_bend_c, 4, 8192
6, 50357, Note_on_c, 4, 62, 0
6, 50401, Note_on_c, 4, 67, 121
6, 50431, Pitch_bend_c, 4, 8842
6, 50434, Pitch_bend_c, 4, 9492
6, 50438, Pitch_bend_c, 4, 10272
6, 50441, Pitch_bend_c, 4, 10922
6, 50444, Pitch_bend_c, 4, 11702
6, 50446, Pitch_bend_c, 4, 12482
6, 50449, Pitch_bend_c, 4, 13132
6, 50451, Pitch_bend_c, 4, 13912
6, 50454, Pitch_bend_c, 4, 14562
6, 50459, Pitch_bend_c, 4, 15342
6, 50461, Pitch_bend_c, 4, 15992
6, 50464, Pitch_bend_c, 4, 16382
6, 50533, Pitch_bend_c, 4, 15472
6, 50534, Pitch_bend_c, 4, 14822
6, 50536, Pitch_bend_c, 4, 13912
6, 50539, Pitch_bend_c, 4, 13132
6, 50540, Pitch_bend_c, 4, 12222
6, 50541, Pitch_bend_c, 4, 11442
6, 50544, Pitch_bend_c, 4, 10532
6, 50546, Pitch_bend_c, 4, 9882
6, 50548, Pitch_bend_c, 4, 9232
6, 50550, Pitch_bend_c, 4, 8452
6, 50551, Pitch_bend_c, 4, 8192
6, 50585, Note_on_c, 4, 64, 74
6, 50600, Note_on_c, 4, 67, 0
6, 50640, Note_on_c, 4, 64, 0
6, 50645, Note_on_c, 4, 62, 69
6, 50696, Note_on_c, 4, 62, 0
6, 50701, Note_on_c, 4, 64, 114
6, 50735, Note_on_c, 4, 64, 0
6, 50826, Note_on_c, 4, 69, 121
6, 50841, Pitch_bend_c, 4, 8972
6, 50844, Pitch_bend_c, 4, 9752
6, 50846, Pitch_bend_c, 4, 10532
6, 50850, Pitch_bend_c, 4, 11572
6, 50852, Pitch_bend_c, 4, 12352
6, 50855, Pitch_bend_c, 4, 13002
6, 50857, Pitch_bend_c, 4, 13912
6, 50860, Pitch_bend_c, 4, 14822
6, 50864, Pitch_bend_c, 4, 15602
6, 50865, Pitch_bend_c, 4, 16252
6, 50866, Pitch_bend_c, 4, 16382
6, 50943, Pitch_bend_c, 4, 15732
6, 50946, Pitch_bend_c, 4, 14952
6, 50949, Pitch_bend_c, 4, 14302
6, 50954, Pitch_bend_c, 4, 13652
6, 50956, Pitch_bend_c, 4, 12872
6, 50960, Pitch_bend_c, 4, 12092
6, 50963, Pitch_bend_c, 4, 11312
6, 50965, Pitch_bend_c, 4, 10532
6, 50966, Pitch_bend_c, 4, 9882
6, 50968, Pitch_bend_c, 4, 9102
6, 50971, Pitch_bend_c, 4, 8452
6, 50971, Pitch_bend_c, 4, 8192
6, 51008, Note_on_c, 4, 67, 87
6, 51023, Note_on_c, 4, 69, 0
6, 51062, Note_on_c, 4, 67, 0
6, 51068, Note_on_c, 4, 64, 100
6, 51251, Note_on_c, 4, 64, 0
6, 51301, Note_on_c, 4, 67, 121
6, 51319, Pitch_bend_c, 4, 8972
6, 51321, Pitch_bend_c, 4, 9752
6, 51322, Pitch_bend_c, 4, 10402
6, 51325, Pitch_bend_c, 4, 11052
6, 51327, Pitch_bend_c, 4, 11962
6, 51329, Pitch_bend_c, 4, 12612
6, 51331, Pitch_bend_c, 4, 13392
6, 51332, Pitch_bend_c, 4, 14042
6, 51334, Pitch_bend_c, 4, 14692
6, 51337, Pitch_bend_c, 4, 15472
6, 51340, Pitch_bend_c, 4, 16122
6, 51341, Pitch_bend_c, 4, 16382
6, 51429, Pitch_bend_c, 4, 15732
6, 51433, Pitch_bend_c, 4, 14822
6, 51435, Pitch_bend_c, 4, 14172
6, 51436, Pitch_bend_c, 4, 13392
6, 51438, Pitch_bend_c, 4, 12482
6, 51440, Pitch_bend_c, 4, 11702
6, 51441, Pitch_bend_c, 4, 10662
6, 51444, Pitch_bend_c, 4, 9752
6, 51445, Pitch_bend_c, 4, 8972
6, 51448, Pitch_bend_c, 4, 8192
6, 51490, Note_on_c, 4, 64, 79
6, 51518, Note_on_c, 4, 67, 0
6, 51550, Note_on_c, 4, 64, 0
6, 51551, Note_on_c, 4, 62, 72
6, 51571, Note_on_c, 4, 62, 0
6, 51605, Note_on_c, 4, 64, 110
6, 51667, Note_on_c, 4, 62, 69
6, 51675, Note_on_c, 4, 64, 0
6, 51697, Note_on_c, 4, 62, 0
6, 51727, Note_on_c, 4, 64, 100
6, 51749, Note_on_c, 4, 64, 0
6, 51963, Note_on_c, 4, 62, 114
6, 51963, Note_on_c, 4, 64, 110
6, 51988, Note_on_c, 4, 62, 0
6, 51989, Note_on_c, 4, 64, 0
6, 52022, Note_on_c, 4, 62, 94
6, 52022, Note_on_c, 4, 64, 87
6, 52051, Note_on_c, 4, 64, 0
6, 52051, Note_on_c, 4, 62, 0
6, 52200, Note_on_c, 4, 58, 114
6, 52201, Note_on_c, 4, 61, 114
6, 52264, Note_on_c, 4, 58, 0
6, 52266, Note_on_c, 4, 61, 0
6, 52267, Note_on_c, 4, 59, 72
6, 52267, Note_on_c, 4, 62, 75
6, 52301, Note_on_c, 4, 59, 0
6, 52305, Note_on_c, 4, 62, 0
6, 52319, Note_on_c, 4, 59, 63
6, 52321, Note_on_c, 4, 62, 67
6, 52360, Note_on_c, 4, 59, 0
6, 52364, Note_on_c, 4, 62, 0
6, 52444, Note_on_c, 4, 58, 110
6, 52444, Note_on_c, 4, 61, 110
6, 52510, Note_on_c, 4, 61, 0
6, 52511, Note_on_c, 4, 58, 0
6, 52511, Note_on_c, 4, 62, 75
6, 52511, Note_on_c, 4, 59, 74
6, 52537, Note_on_c, 4, 59, 0
6, 52538, Note_on_c, 4, 62, 0
6, 52560, Note_on_c, 4, 59, 59
6, 52561, Note_on_c, 4, 62, 62
6, 52581, Note_on_c, 4, 59, 0
6, 52582, Note_on_c, 4, 62, 0
6, 52622, Note_on_c, 4, 62, 62
6, 52623, Note_on_c, 4, 59, 60
6, 52644, Note_on_c, 4, 59, 0
6, 52645, Note_on_c, 4, 62, 0
6, 52681, Note_on_c, 4, 58, 114
6, 52681, Note_on_c, 4, 61, 114
6, 52746, Note_on_c, 4, 61, 0
6, 52747, Note_on_c, 4, 58, 0
6, 52750, Note_on_c, 4, 59, 63
6, 52751, Note_on_c, 4, 62, 57
6, 52784, Note_on_c, 4, 62, 0
6, 52785, Note_on_c, 4, 59, 0
6, 52806, Note_on_c, 4, 62, 72
6, 52808, Note_on_c, 4, 59, 65
6, 52831, Note_on_c, 4, 59, 0
6, 52833, Note_on_c, 4, 62, 0
6, 52869, Note_on_c, 4, 59, 87
6, 52869, Note_on_c, 4, 62, 87
6, 52924, Note_on_c, 4, 62, 0
6, 52926, Note_on_c, 4, 57, 79
6, 52928, Note_on_c, 4, 59, 0
6, 52972, Note_on_c, 4, 57, 0
6, 52990, Note_on_c, 4, 59, 114
6, 53011, Note_on_c, 4, 59, 0
6, 53043, Note_on_c, 4, 55, 75
6, 53093, Note_on_c, 4, 55, 0
6, 53106, Note_on_c, 4, 57, 94
6, 53135, Note_on_c, 4, 57, 0
6, 53167, Note_on_c, 4, 52, 65
6, 53199, Note_on_c, 4, 52, 0
6, 53226, Note_on_c, 4, 52, 75
6, 53275, Note_on_c, 4, 52, 0
6, 53282, Note_on_c, 4, 55, 110
6, 53323, Note_on_c, 4, 55, 0
6, 53341, Note_on_c, 4, 57, 75
6, 53375, Note_on_c, 4, 57, 0
6, 53401, Note_on_c, 4, 58, 110
6, 53465, Note_on_c, 4, 58, 0
6, 53466, Note_on_c, 4, 59, 94
6, 53526, Note_on_c, 4, 59, 0
6, 53526, Note_on_c, 4, 58, 110
6, 53580, Note_on_c, 4, 58, 0
6, 53581, Note_on_c, 4, 57, 79
6, 53635, Note_on_c, 4, 57, 0
6, 53641, Note_on_c, 4, 55, 87
6, 53689, Note_on_c, 4, 55, 0
6, 53760, Note_on_c, 4, 58, 110
6, 53761, Note_on_c, 4, 61, 121
6, 53821, Note_on_c, 4, 58, 0
6, 53825, Note_on_c, 4, 61, 0
6, 53826, Note_on_c, 4, 59, 60
6, 53828, Note_on_c, 4, 62, 59
6, 53853, Note_on_c, 4, 59, 0
6, 53861, Note_on_c, 4, 62, 0
6, 53891, Note_on_c, 4, 58, 84
6, 53908, Note_on_c, 4, 58, 0
6, 53942, Note_on_c, 4, 61, 110
6, 53943, Note_on_c, 4, 58, 94
6, 53988, Note_on_c, 4, 58, 0
6, 53997, Note_on_c, 4, 59, 59
6, 54000, Note_on_c, 4, 61, 0
6, 54000, Note_on_c, 4, 62, 74
6, 54036, Note_on_c, 4, 59, 0
6, 54040, Note_on_c, 4, 62, 0
6, 54065, Note_on_c, 4, 64, 100
6, 54106, Note_on_c, 4, 64, 0
6, 54121, Note_on_c, 4, 64, 100
6, 54156, Note_on_c, 4, 64, 0
6, 54179, Note_on_c, 4, 64, 100
6, 54234, Note_on_c, 4, 64, 0
6, 66546, Note_on_c, 4, 64, 84
6, 66605, Note_on_c, 4, 67, 94
6, 66614, Note_on_c, 4, 64, 0
6, 66663, Note_on_c, 4, 69, 94
6, 66673, Note_on_c, 4, 67, 0
6, 66693, Note_on_c, 4, 69, 0
6, 66724, Note_on_c, 4, 69, 114
6, 66751, Pitch_bend_c, 4, 8192
6, 66755, Pitch_bend_c, 4, 9102
6, 66756, Pitch_bend_c, 4, 10142
6, 66760, Pitch_bend_c, 4, 11962
6, 66761, Pitch_bend_c, 4, 13782
6, 66765, Pitch_bend_c, 4, 14822
6, 66765, Pitch_bend_c, 4, 16382
6, 66786, Note_on_c, 4, 69, 0
6, 66813, Pitch_bend_c, 4, 8192
6, 66848, Note_on_c, 4, 67, 110
6, 66904, Note_on_c, 4, 67, 0
6, 66967, Note_on_c, 4, 64, 110
6, 67586, Note_on_c, 4, 64, 0
6, 67629, Note_on_c, 4, 69, 122
6, 67638, Pitch_bend_c, 4, 8972
6, 67639, Pitch_bend_c, 4, 9752
6, 67641, Pitch_bend_c, 4, 10532
6, 67644, Pitch_bend_c, 4, 11312
6, 67645, Pitch_bend_c, 4, 11962
6, 67646, Pitch_bend_c, 4, 12612
6, 67650, Pitch_bend_c, 4, 13392
6, 67653, Pitch_bend_c, 4, 14172
6, 67656, Pitch_bend_c, 4, 14952
6, 67661, Pitch_bend_c, 4, 15602
6, 67666, Pitch_bend_c, 4, 16252
6, 67666, Pitch_bend_c, 4, 16382
6, 67718, Note_on_c, 4, 69, 0
6, 67745, Note_on_c, 4, 69, 110
6, 67810, Pitch_bend_c, 4, 15602
6, 67812, Pitch_bend_c, 4, 14822
6, 67815, Pitch_bend_c, 4, 14042
6, 67817, Pitch_bend_c, 4, 13262
6, 67820, Pitch_bend_c, 4, 12612
6, 67822, Pitch_bend_c, 4, 11832
6, 67825, Pitch_bend_c, 4, 11052
6, 67826, Pitch_bend_c, 4, 10402
6, 67830, Pitch_bend_c, 4, 9622
6, 67831, Pitch_bend_c, 4, 8972
6, 67833, Pitch_bend_c, 4, 8322
6, 67835, Pitch_bend_c, 4, 8192
6, 67865, Note_on_c, 4, 67, 94
6, 67876, Note_on_c, 4, 69, 0
6, 67917, Note_on_c, 4, 67, 0
6, 67923, Note_on_c, 4, 64, 94
6, 68541, Note_on_c, 4, 64, 0
6, 68643, Note_on_c, 4, 74, 114
6, 68668, Pitch_bend_c, 4, 8972
6, 68669, Pitch_bend_c, 4, 9752
6, 68670, Pitch_bend_c, 4, 10662
6, 68673, Pitch_bend_c, 4, 11832
6, 68675, Pitch_bend_c, 4, 12872
6, 68677, Pitch_bend_c, 4, 14432
6, 68678, Pitch_bend_c, 4, 15082
6, 68680, Pitch_bend_c, 4, 16122
6, 68680, Pitch_bend_c, 4, 16382
6, 68778, Pitch_bend_c, 4, 15472
6, 68780, Pitch_bend_c, 4, 14692
6, 68783, Pitch_bend_c, 4, 13912
6, 68785, Pitch_bend_c, 4, 13132
6, 68787, Pitch_bend_c, 4, 11962
6, 68790, Pitch_bend_c, 4, 10922
6, 68792, Pitch_bend_c, 4, 10142
6, 68793, Pitch_bend_c, 4, 9362
6, 68795, Pitch_bend_c, 4, 8582
6, 68796, Pitch_bend_c, 4, 8192
6, 68871, Note_on_c, 4, 74, 0
6, 68883, Note_on_c, 4, 71, 121
6, 68940, Note_on_c, 4, 71, 0
6, 69002, Note_on_c, 4, 69, 87
6, 69062, Note_on_c, 4, 71, 100
6, 69070, Note_on_c, 4, 69, 0
6, 69090, Note_on_c, 4, 71, 0
6, 69120, Note_on_c, 4, 67, 72
6, 69179, Note_on_c, 4, 67, 0
6, 69184, Note_on_c, 4, 64, 110
6, 69236, Note_on_c, 4, 64, 0
6, 69241, Note_on_c, 4, 62, 63
6, 69276, Note_on_c, 4, 62, 0
6, 69310, Note_on_c, 4, 64, 121
6, 69343, Note_on_c, 4, 64, 0
6, 69424, Note_on_c, 4, 64, 121
6, 69480, Note_on_c, 4, 67, 94
6, 69481, Note_on_c, 4, 64, 0
6, 69513, Note_on_c, 4, 67, 0
6, 69538, Note_on_c, 4, 69, 94
6, 69570, Note_on_c, 4, 69, 0
6, 69601, Note_on_c, 4, 69, 94
6, 69614, Pitch_bend_c, 4, 8842
6, 69616, Pitch_bend_c, 4, 9752
6, 69619, Pitch_bend_c, 4, 10662
6, 69620, Pitch_bend_c, 4, 11832
6, 69622, Pitch_bend_c, 4, 12742
6, 69625, Pitch_bend_c, 4, 13782
6, 69626, Pitch_bend_c, 4, 14952
6, 69627, Pitch_bend_c, 4, 15862
6, 69629, Pitch_bend_c, 4, 16382
6, 69639, Note_on_c, 4, 69, 0
6, 69667, Note_on_c, 4, 69, 94
6, 69726, Pitch_bend_c, 4, 15212
6, 69727, Pitch_bend_c, 4, 14042
6, 69729, Pitch_bend_c, 4, 13392
6, 69730, Pitch_bend_c, 4, 12612
6, 69733, Pitch_bend_c, 4, 10922
6, 69734, Pitch_bend_c, 4, 9232
6, 69735, Pitch_bend_c, 4, 8322
6, 69735, Pitch_bend_c, 4, 8192
6, 69785, Note_on_c, 4, 67, 79
6, 69790, Note_on_c, 4, 69, 0
6, 69825, Note_on_c, 4, 67, 0
6, 69844, Note_on_c, 4, 69, 84
6, 69906, Note_on_c, 4, 67, 100
6, 69916, Note_on_c, 4, 69, 0
6, 69962, Note_on_c, 4, 64, 110
6, 69965, Note_on_c, 4, 67, 0
6, 70023, Note_on_c, 4, 64, 0
6, 70080, Note_on_c, 4, 52, 100
6, 70141, Note_on_c, 4, 52, 0
6, 70154, Note_on_c, 4, 64, 110
6, 70184, Note_on_c, 4, 64, 0
6, 70268, Note_on_c, 4, 52, 74
6, 70296, Note_on_c, 4, 52, 0
6, 70331, Note_on_c, 4, 64, 110
6, 70374, Note_on_c, 4, 64, 0
6, 70374, End_track
7, 0, Start_track
7, 0, MIDI_port, 0
7, 0, Title_t, "Roland Drums"
7, 165, Control_c, 9, 0, 0
7, 166, Control_c, 9, 32, 0
7, 167, Program_c, 9, 16
7, 482, Note_on_c, 9, 42, 47
7, 482, Note_on_c, 9, 42, 0
7, 720, Note_on_c, 9, 42, 47
7, 721, Note_on_c, 9, 42, 0
7, 960, Note_on_c, 9, 42, 47
7, 961, Note_on_c, 9, 42, 0
7, 1080, Note_on_c, 9, 42, 47
7, 1081, Note_on_c, 9, 42, 0
7, 1200, Note_on_c, 9, 42, 47
7, 1201, Note_on_c, 9, 42, 0
7, 1320, Note_on_c, 9, 42, 47
7, 1321, Note_on_c, 9, 42, 0
7, 1560, Note_on_c, 9, 42, 63
7, 1561, Note_on_c, 9, 42, 0
7, 1800, Note_on_c, 9, 42, 63
7, 1801, Note_on_c, 9, 42, 0
7, 2040, Note_on_c, 9, 42, 63
7, 2041, Note_on_c, 9, 42, 0
7, 2280, Note_on_c, 9, 42, 63
7, 2281, Note_on_c, 9, 42, 0
7, 2520, Note_on_c, 9, 42, 63
7, 2521, Note_on_c, 9, 42, 0
7, 2760, Note_on_c, 9, 42, 63
7, 2761, Note_on_c, 9, 42, 0
7, 3000, Note_on_c, 9, 42, 63
7, 3001, Note_on_c, 9, 42, 0
7, 3225, Note_on_c, 9, 38, 95
7, 3226, Note_on_c, 9, 38, 0
7, 3230, Note_on_c, 9, 38, 95
7, 3231, Note_on_c, 9, 38, 0
7, 3240, Note_on_c, 9, 38, 110
7, 3240, Note_on_c, 9, 42, 63
7, 3241, Note_on_c, 9, 42, 0
7, 3241, Note_on_c, 9, 38, 0
7, 3360, Note_on_c, 9, 36, 110
7, 3361, Note_on_c, 9, 36, 0
7, 3361, Note_on_c, 9, 42, 110
7, 3361, Note_on_c, 9, 42, 0
7, 3361, Note_on_c, 9, 49, 80
7, 3362, Note_on_c, 9, 49, 0
7, 3420, Note_on_c, 9, 42, 63
7, 3421, Note_on_c, 9, 42, 0
7, 3480, Note_on_c, 9, 38, 110
7, 3481, Note_on_c, 9, 38, 0
7, 3481, Note_on_c, 9, 42, 95
7, 3481, Note_on_c, 9, 42, 0
7, 3541, Note_on_c, 9, 42, 63
7, 3541, Note_on_c, 9, 42, 0
7, 3600, Note_on_c, 9, 36, 110
7, 3601, Note_on_c, 9, 36, 0
7, 3601, Note_on_c, 9, 42, 110
7, 3601, Note_on_c, 9, 42, 0
7, 3660, Note_on_c, 9, 42, 63
7, 3661, Note_on_c, 9, 42, 0
7, 3720, Note_on_c, 9, 38, 110
7, 3721, Note_on_c, 9, 38, 0
7, 3721, Note_on_c, 9, 42, 95
7, 3721, Note_on_c, 9, 42, 0
7, 3780, Note_on_c, 9, 42, 63
7, 3781, Note_on_c, 9, 42, 0
7, 3840, Note_on_c, 9, 36, 110
7, 3841, Note_on_c, 9, 36, 0
7, 3841, Note_on_c, 9, 42, 110
7, 3841, Note_on_c, 9, 42, 0
7, 3900, Note_on_c, 9, 42, 63
7, 3901, Note_on_c, 9, 42, 0
7, 3960, Note_on_c, 9, 38, 110
7, 3961, Note_on_c, 9, 38, 0
7, 3961, Note_on_c, 9, 42, 95
7, 3961, Note_on_c, 9, 42, 0
7, 4020, Note_on_c, 9, 42, 63
7, 4021, Note_on_c, 9, 42, 0
7, 4080, Note_on_c, 9, 36, 110
7, 4081, Note_on_c, 9, 36, 0
7, 4081, Note_on_c, 9, 42, 110
7, 4081, Note_on_c, 9, 42, 0
7, 4140, Note_on_c, 9, 42, 63
7, 4141, Note_on_c, 9, 42, 0
7, 4200, Note_on_c, 9, 38, 110
7, 4201, Note_on_c, 9, 38, 0
7, 4201, Note_on_c, 9, 42, 95
7, 4201, Note_on_c, 9, 42, 0
7, 4260, Note_on_c, 9, 42, 63
7, 4261, Note_on_c, 9, 42, 0
7, 4320, Note_on_c, 9, 36, 110
7, 4321, Note_on_c, 9, 36, 0
7, 4321, Note_on_c, 9, 42, 110
7, 4321, Note_on_c, 9, 42, 0
7, 4380, Note_on_c, 9, 42, 63
7, 4381, Note_on_c, 9, 42, 0
7, 4440, Note_on_c, 9, 38, 110
7, 4441, Note_on_c, 9, 38, 0
7, 4441, Note_on_c, 9, 42, 95
7, 4441, Note_on_c, 9, 42, 0
7, 4500, Note_on_c, 9, 42, 63
7, 4501, Note_on_c, 9, 42, 0
7, 4560, Note_on_c, 9, 36, 110
7, 4561, Note_on_c, 9, 36, 0
7, 4561, Note_on_c, 9, 42, 110
7, 4561, Note_on_c, 9, 42, 0
7, 4620, Note_on_c, 9, 42, 63
7, 4621, Note_on_c, 9, 42, 0
7, 4680, Note_on_c, 9, 38, 110
7, 4681, Note_on_c, 9, 38, 0
7, 4681, Note_on_c, 9, 42, 95
7, 4681, Note_on_c, 9, 42, 0
7, 4740, Note_on_c, 9, 42, 63
7, 4741, Note_on_c, 9, 42, 0
7, 4800, Note_on_c, 9, 36, 110
7, 4801, Note_on_c, 9, 36, 0
7, 4801, Note_on_c, 9, 42, 110
7, 4801, Note_on_c, 9, 42, 0
7, 4860, Note_on_c, 9, 42, 63
7, 4861, Note_on_c, 9, 42, 0
7, 4920, Note_on_c, 9, 38, 110
7, 4920, Note_on_c, 9, 42, 95
7, 4921, Note_on_c, 9, 42, 0
7, 4921, Note_on_c, 9, 38, 0
7, 4980, Note_on_c, 9, 42, 63
7, 4981, Note_on_c, 9, 42, 0
7, 5040, Note_on_c, 9, 36, 110
7, 5041, Note_on_c, 9, 36, 0
7, 5041, Note_on_c, 9, 42, 110
7, 5041, Note_on_c, 9, 42, 0
7, 5100, Note_on_c, 9, 42, 63
7, 5101, Note_on_c, 9, 42, 0
7, 5160, Note_on_c, 9, 38, 110
7, 5161, Note_on_c, 9, 38, 0
7, 5161, Note_on_c, 9, 42, 95
7, 5161, Note_on_c, 9, 42, 0
7, 5220, Note_on_c, 9, 42, 63
7, 5221, Note_on_c, 9, 42, 0
7, 5280, Note_on_c, 9, 36, 110
7, 5280, Note_on_c, 9, 42, 110
7, 5281, Note_on_c, 9, 42, 0
7, 5281, Note_on_c, 9, 36, 0
7, 5281, Note_on_c, 9, 49, 80
7, 5281, Note_on_c, 9, 49, 0
7, 5340, Note_on_c, 9, 42, 63
7, 5341, Note_on_c, 9, 42, 0
7, 5400, Note_on_c, 9, 38, 110
7, 5401, Note_on_c, 9, 38, 0
7, 5401, Note_on_c, 9, 42, 95
7, 5401, Note_on_c, 9, 42, 0
7, 5460, Note_on_c, 9, 42, 63
7, 5461, Note_on_c, 9, 42, 0
7, 5520, Note_on_c, 9, 36, 110
7, 5521, Note_on_c, 9, 36, 0
7, 5521, Note_on_c, 9, 42, 110
7, 5521, Note_on_c, 9, 42, 0
7, 5580, Note_on_c, 9, 42, 63
7, 5581, Note_on_c, 9, 42, 0
7, 5640, Note_on_c, 9, 38, 110
7, 5640, Note_on_c, 9, 42, 95
7, 5641, Note_on_c, 9, 42, 0
7, 5641, Note_on_c, 9, 38, 0
7, 5700, Note_on_c, 9, 42, 63
7, 5701, Note_on_c, 9, 42, 0
7, 5760, Note_on_c, 9, 36, 110
7, 5761, Note_on_c, 9, 36, 0
7, 5761, Note_on_c, 9, 42, 110
7, 5761, Note_on_c, 9, 42, 0
7, 5820, Note_on_c, 9, 42, 63
7, 5821, Note_on_c, 9, 42, 0
7, 5880, Note_on_c, 9, 38, 110
7, 5881, Note_on_c, 9, 38, 0
7, 5881, Note_on_c, 9, 42, 95
7, 5881, Note_on_c, 9, 42, 0
7, 5940, Note_on_c, 9, 42, 63
7, 5941, Note_on_c, 9, 42, 0
7, 6000, Note_on_c, 9, 36, 110
7, 6001, Note_on_c, 9, 36, 0
7, 6001, Note_on_c, 9, 42, 110
7, 6001, Note_on_c, 9, 42, 0
7, 6060, Note_on_c, 9, 42, 63
7, 6061, Note_on_c, 9, 42, 0
7, 6120, Note_on_c, 9, 38, 110
7, 6121, Note_on_c, 9, 38, 0
7, 6121, Note_on_c, 9, 42, 95
7, 6121, Note_on_c, 9, 42, 0
7, 6180, Note_on_c, 9, 36, 95
7, 6181, Note_on_c, 9, 36, 0
7, 6181, Note_on_c, 9, 42, 63
7, 6181, Note_on_c, 9, 42, 0
7, 6240, Note_on_c, 9, 36, 110
7, 6241, Note_on_c, 9, 36, 0
7, 6241, Note_on_c, 9, 42, 110
7, 6241, Note_on_c, 9, 42, 0
7, 6300, Note_on_c, 9, 42, 63
7, 6301, Note_on_c, 9, 42, 0
7, 6360, Note_on_c, 9, 38, 110
7, 6360, Note_on_c, 9, 42, 95
7, 6361, Note_on_c, 9, 42, 0
7, 6361, Note_on_c, 9, 38, 0
7, 6420, Note_on_c, 9, 42, 63
7, 6421, Note_on_c, 9, 42, 0
7, 6480, Note_on_c, 9, 36, 110
7, 6481, Note_on_c, 9, 36, 0
7, 6481, Note_on_c, 9, 42, 110
7, 6481, Note_on_c, 9, 42, 0
7, 6540, Note_on_c, 9, 42, 63
7, 6541, Note_on_c, 9, 42, 0
7, 6600, Note_on_c, 9, 38, 110
7, 6601, Note_on_c, 9, 38, 0
7, 6601, Note_on_c, 9, 42, 95
7, 6601, Note_on_c, 9, 42, 0
7, 6660, Note_on_c, 9, 42, 63
7, 6661, Note_on_c, 9, 42, 0
7, 6720, Note_on_c, 9, 36, 110
7, 6720, Note_on_c, 9, 42, 110
7, 6721, Note_on_c, 9, 42, 0
7, 6721, Note_on_c, 9, 36, 0
7, 6780, Note_on_c, 9, 42, 63
7, 6781, Note_on_c, 9, 42, 0
7, 6840, Note_on_c, 9, 38, 110
7, 6841, Note_on_c, 9, 38, 0
7, 6841, Note_on_c, 9, 42, 95
7, 6841, Note_on_c, 9, 42, 0
7, 6900, Note_on_c, 9, 42, 63
7, 6901, Note_on_c, 9, 42, 0
7, 6960, Note_on_c, 9, 36, 110
7, 6961, Note_on_c, 9, 36, 0
7, 6961, Note_on_c, 9, 42, 110
7, 6961, Note_on_c, 9, 42, 0
7, 7020, Note_on_c, 9, 38, 79
7, 7021, Note_on_c, 9, 38, 0
7, 7021, Note_on_c, 9, 42, 110
7, 7021, Note_on_c, 9, 42, 0
7, 7021, Note_on_c, 9, 47, 64
7, 7021, Note_on_c, 9, 47, 0
7, 7080, Note_on_c, 9, 38, 95
7, 7080, Note_on_c, 9, 42, 110
7, 7081, Note_on_c, 9, 42, 0
7, 7081, Note_on_c, 9, 38, 0
7, 7081, Note_on_c, 9, 47, 64
7, 7081, Note_on_c, 9, 47, 0
7, 7140, Note_on_c, 9, 38, 110
7, 7141, Note_on_c, 9, 38, 0
7, 7141, Note_on_c, 9, 42, 110
7, 7141, Note_on_c, 9, 42, 0
7, 7141, Note_on_c, 9, 47, 64
7, 7141, Note_on_c, 9, 47, 0
7, 7200, Note_on_c, 9, 36, 110
7, 7201, Note_on_c, 9, 36, 0
7, 7201, Note_on_c, 9, 42, 110
7, 7201, Note_on_c, 9, 42, 0
7, 7201, Note_on_c, 9, 49, 80
7, 7201, Note_on_c, 9, 49, 0
7, 7260, Note_on_c, 9, 42, 63
7, 7261, Note_on_c, 9, 42, 0
7, 7320, Note_on_c, 9, 38, 110
7, 7321, Note_on_c, 9, 38, 0
7, 7321, Note_on_c, 9, 42, 95
7, 7321, Note_on_c, 9, 42, 0
7, 7380, Note_on_c, 9, 42, 63
7, 7381, Note_on_c, 9, 42, 0
7, 7440, Note_on_c, 9, 36, 110
7, 7440, Note_on_c, 9, 42, 110
7, 7441, Note_on_c, 9, 42, 0
7, 7441, Note_on_c, 9, 36, 0
7, 7500, Note_on_c, 9, 42, 63
7, 7501, Note_on_c, 9, 42, 0
7, 7560, Note_on_c, 9, 38, 110
7, 7561, Note_on_c, 9, 38, 0
7, 7561, Note_on_c, 9, 42, 95
7, 7561, Note_on_c, 9, 42, 0
7, 7620, Note_on_c, 9, 42, 63
7, 7621, Note_on_c, 9, 42, 0
7, 7680, Note_on_c, 9, 36, 110
7, 7681, Note_on_c, 9, 36, 0
7, 7681, Note_on_c, 9, 42, 110
7, 7681, Note_on_c, 9, 42, 0
7, 7740, Note_on_c, 9, 42, 63
7, 7741, Note_on_c, 9, 42, 0
7, 7800, Note_on_c, 9, 38, 110
7, 7800, Note_on_c, 9, 42, 95
7, 7801, Note_on_c, 9, 42, 0
7, 7801, Note_on_c, 9, 38, 0
7, 7860, Note_on_c, 9, 42, 63
7, 7861, Note_on_c, 9, 42, 0
7, 7920, Note_on_c, 9, 36, 110
7, 7921, Note_on_c, 9, 36, 0
7, 7921, Note_on_c, 9, 42, 110
7, 7921, Note_on_c, 9, 42, 0
7, 7980, Note_on_c, 9, 42, 63
7, 7981, Note_on_c, 9, 42, 0
7, 8040, Note_on_c, 9, 38, 110
7, 8041, Note_on_c, 9, 38, 0
7, 8041, Note_on_c, 9, 42, 95
7, 8041, Note_on_c, 9, 42, 0
7, 8100, Note_on_c, 9, 36, 110
7, 8101, Note_on_c, 9, 36, 0
7, 8101, Note_on_c, 9, 42, 63
7, 8101, Note_on_c, 9, 42, 0
7, 8160, Note_on_c, 9, 36, 110
7, 8161, Note_on_c, 9, 36, 0
7, 8161, Note_on_c, 9, 42, 110
7, 8161, Note_on_c, 9, 42, 0
7, 8220, Note_on_c, 9, 42, 63
7, 8221, Note_on_c, 9, 42, 0
7, 8280, Note_on_c, 9, 38, 110
7, 8281, Note_on_c, 9, 38, 0
7, 8281, Note_on_c, 9, 42, 95
7, 8281, Note_on_c, 9, 42, 0
7, 8340, Note_on_c, 9, 42, 63
7, 8341, Note_on_c, 9, 42, 0
7, 8400, Note_on_c, 9, 36, 110
7, 8401, Note_on_c, 9, 36, 0
7, 8401, Note_on_c, 9, 42, 110
7, 8401, Note_on_c, 9, 42, 0
7, 8460, Note_on_c, 9, 42, 63
7, 8461, Note_on_c, 9, 42, 0
7, 8520, Note_on_c, 9, 38, 110
7, 8520, Note_on_c, 9, 42, 95
7, 8521, Note_on_c, 9, 42, 0
7, 8521, Note_on_c, 9, 38, 0
7, 8580, Note_on_c, 9, 42, 63
7, 8581, Note_on_c, 9, 42, 0
7, 8640, Note_on_c, 9, 36, 110
7, 8641, Note_on_c, 9, 36, 0
7, 8641, Note_on_c, 9, 42, 110
7, 8641, Note_on_c, 9, 42, 0
7, 8700, Note_on_c, 9, 42, 63
7, 8701, Note_on_c, 9, 42, 0
7, 8760, Note_on_c, 9, 38, 110
7, 8761, Note_on_c, 9, 38, 0
7, 8761, Note_on_c, 9, 42, 95
7, 8761, Note_on_c, 9, 42, 0
7, 8820, Note_on_c, 9, 42, 63
7, 8821, Note_on_c, 9, 42, 0
7, 8880, Note_on_c, 9, 36, 110
7, 8880, Note_on_c, 9, 42, 110
7, 8881, Note_on_c, 9, 42, 0
7, 8881, Note_on_c, 9, 36, 0
7, 8940, Note_on_c, 9, 42, 63
7, 8941, Note_on_c, 9, 42, 0
7, 9000, Note_on_c, 9, 38, 110
7, 9001, Note_on_c, 9, 38, 0
7, 9001, Note_on_c, 9, 42, 95
7, 9001, Note_on_c, 9, 42, 0
7, 9060, Note_on_c, 9, 42, 63
7, 9061, Note_on_c, 9, 42, 0
7, 9120, Note_on_c, 9, 36, 110
7, 9121, Note_on_c, 9, 36, 0
7, 9121, Note_on_c, 9, 42, 110
7, 9121, Note_on_c, 9, 42, 0
7, 9121, Note_on_c, 9, 49, 80
7, 9121, Note_on_c, 9, 49, 0
7, 9180, Note_on_c, 9, 42, 63
7, 9181, Note_on_c, 9, 42, 0
7, 9240, Note_on_c, 9, 38, 110
7, 9240, Note_on_c, 9, 42, 95
7, 9241, Note_on_c, 9, 42, 0
7, 9241, Note_on_c, 9, 38, 0
7, 9300, Note_on_c, 9, 42, 63
7, 9301, Note_on_c, 9, 42, 0
7, 9360, Note_on_c, 9, 36, 110
7, 9361, Note_on_c, 9, 36, 0
7, 9361, Note_on_c, 9, 42, 110
7, 9361, Note_on_c, 9, 42, 0
7, 9420, Note_on_c, 9, 42, 63
7, 9421, Note_on_c, 9, 42, 0
7, 9480, Note_on_c, 9, 38, 110
7, 9481, Note_on_c, 9, 38, 0
7, 9481, Note_on_c, 9, 42, 95
7, 9481, Note_on_c, 9, 42, 0
7, 9540, Note_on_c, 9, 42, 63
7, 9541, Note_on_c, 9, 42, 0
7, 9600, Note_on_c, 9, 36, 110
7, 9600, Note_on_c, 9, 42, 110
7, 9601, Note_on_c, 9, 42, 0
7, 9601, Note_on_c, 9, 36, 0
7, 9660, Note_on_c, 9, 42, 63
7, 9661, Note_on_c, 9, 42, 0
7, 9720, Note_on_c, 9, 38, 110
7, 9721, Note_on_c, 9, 38, 0
7, 9721, Note_on_c, 9, 42, 95
7, 9721, Note_on_c, 9, 42, 0
7, 9780, Note_on_c, 9, 42, 63
7, 9781, Note_on_c, 9, 42, 0
7, 9840, Note_on_c, 9, 36, 110
7, 9841, Note_on_c, 9, 36, 0
7, 9841, Note_on_c, 9, 42, 110
7, 9841, Note_on_c, 9, 42, 0
7, 9900, Note_on_c, 9, 42, 63
7, 9901, Note_on_c, 9, 42, 0
7, 9960, Note_on_c, 9, 38, 110
7, 9960, Note_on_c, 9, 42, 95
7, 9961, Note_on_c, 9, 42, 0
7, 9961, Note_on_c, 9, 38, 0
7, 10020, Note_on_c, 9, 36, 110
7, 10021, Note_on_c, 9, 36, 0
7, 10021, Note_on_c, 9, 42, 63
7, 10021, Note_on_c, 9, 42, 0
7, 10080, Note_on_c, 9, 36, 110
7, 10081, Note_on_c, 9, 36, 0
7, 10081, Note_on_c, 9, 42, 110
7, 10081, Note_on_c, 9, 42, 0
7, 10140, Note_on_c, 9, 42, 63
7, 10141, Note_on_c, 9, 42, 0
7, 10200, Note_on_c, 9, 38, 110
7, 10201, Note_on_c, 9, 38, 0
7, 10201, Note_on_c, 9, 42, 95
7, 10201, Note_on_c, 9, 42, 0
7, 10260, Note_on_c, 9, 42, 63
7, 10261, Note_on_c, 9, 42, 0
7, 10320, Note_on_c, 9, 36, 110
7, 10320, Note_on_c, 9, 42, 110
7, 10321, Note_on_c, 9, 42, 0
7, 10321, Note_on_c, 9, 36, 0
7, 10380, Note_on_c, 9, 42, 63
7, 10381, Note_on_c, 9, 42, 0
7, 10440, Note_on_c, 9, 38, 110
7, 10441, Note_on_c, 9, 38, 0
7, 10441, Note_on_c, 9, 42, 95
7, 10441, Note_on_c, 9, 42, 0
7, 10500, Note_on_c, 9, 42, 63
7, 10501, Note_on_c, 9, 42, 0
7, 10560, Note_on_c, 9, 36, 110
7, 10561, Note_on_c, 9, 36, 0
7, 10561, Note_on_c, 9, 42, 110
7, 10561, Note_on_c, 9, 42, 0
7, 10620, Note_on_c, 9, 38, 47
7, 10621, Note_on_c, 9, 38, 0
7, 10621, Note_on_c, 9, 42, 79
7, 10621, Note_on_c, 9, 42, 0
7, 10680, Note_on_c, 9, 36, 47
7, 10680, Note_on_c, 9, 38, 63
7, 10680, Note_on_c, 9, 42, 95
7, 10681, Note_on_c, 9, 42, 0
7, 10681, Note_on_c, 9, 38, 0
7, 10681, Note_on_c, 9, 36, 0
7, 10740, Note_on_c, 9, 36, 63
7, 10741, Note_on_c, 9, 36, 0
7, 10741, Note_on_c, 9, 38, 79
7, 10741, Note_on_c, 9, 38, 0
7, 10741, Note_on_c, 9, 42, 110
7, 10741, Note_on_c, 9, 42, 0
7, 10800, Note_on_c, 9, 36, 79
7, 10801, Note_on_c, 9, 36, 0
7, 10801, Note_on_c, 9, 38, 95
7, 10801, Note_on_c, 9, 38, 0
7, 10801, Note_on_c, 9, 42, 110
7, 10801, Note_on_c, 9, 42, 0
7, 10860, Note_on_c, 9, 36, 110
7, 10861, Note_on_c, 9, 36, 0
7, 10920, Note_on_c, 9, 38, 110
7, 10921, Note_on_c, 9, 38, 0
7, 10925, Note_on_c, 9, 38, 110
7, 10926, Note_on_c, 9, 38, 0
7, 11040, Note_on_c, 9, 36, 110
7, 11041, Note_on_c, 9, 36, 0
7, 11041, Note_on_c, 9, 42, 110
7, 11041, Note_on_c, 9, 42, 0
7, 11041, Note_on_c, 9, 49, 80
7, 11042, Note_on_c, 9, 49, 0
7, 11100, Note_on_c, 9, 42, 63
7, 11101, Note_on_c, 9, 42, 0
7, 11160, Note_on_c, 9, 38, 110
7, 11161, Note_on_c, 9, 38, 0
7, 11161, Note_on_c, 9, 42, 95
7, 11161, Note_on_c, 9, 42, 0
7, 11221, Note_on_c, 9, 42, 63
7, 11221, Note_on_c, 9, 42, 0
7, 11280, Note_on_c, 9, 36, 110
7, 11281, Note_on_c, 9, 36, 0
7, 11281, Note_on_c, 9, 42, 110
7, 11281, Note_on_c, 9, 42, 0
7, 11340, Note_on_c, 9, 42, 63
7, 11341, Note_on_c, 9, 42, 0
7, 11400, Note_on_c, 9, 38, 110
7, 11400, Note_on_c, 9, 42, 95
7, 11401, Note_on_c, 9, 42, 0
7, 11401, Note_on_c, 9, 38, 0
7, 11460, Note_on_c, 9, 42, 63
7, 11461, Note_on_c, 9, 42, 0
7, 11520, Note_on_c, 9, 36, 110
7, 11521, Note_on_c, 9, 36, 0
7, 11521, Note_on_c, 9, 42, 110
7, 11521, Note_on_c, 9, 42, 0
7, 11580, Note_on_c, 9, 42, 63
7, 11581, Note_on_c, 9, 42, 0
7, 11640, Note_on_c, 9, 38, 110
7, 11641, Note_on_c, 9, 38, 0
7, 11641, Note_on_c, 9, 42, 95
7, 11641, Note_on_c, 9, 42, 0
7, 11700, Note_on_c, 9, 42, 63
7, 11701, Note_on_c, 9, 42, 0
7, 11761, Note_on_c, 9, 36, 110
7, 11761, Note_on_c, 9, 36, 0
7, 11761, Note_on_c, 9, 42, 110
7, 11761, Note_on_c, 9, 42, 0
7, 11820, Note_on_c, 9, 42, 63
7, 11821, Note_on_c, 9, 42, 0
7, 11880, Note_on_c, 9, 38, 110
7, 11881, Note_on_c, 9, 38, 0
7, 11881, Note_on_c, 9, 42, 95
7, 11881, Note_on_c, 9, 42, 0
7, 11940, Note_on_c, 9, 42, 63
7, 11941, Note_on_c, 9, 42, 0
7, 12000, Note_on_c, 9, 36, 110
7, 12001, Note_on_c, 9, 36, 0
7, 12001, Note_on_c, 9, 42, 110
7, 12001, Note_on_c, 9, 42, 0
7, 12060, Note_on_c, 9, 42, 63
7, 12061, Note_on_c, 9, 42, 0
7, 12120, Note_on_c, 9, 38, 110
7, 12120, Note_on_c, 9, 42, 95
7, 12121, Note_on_c, 9, 42, 0
7, 12121, Note_on_c, 9, 38, 0
7, 12180, Note_on_c, 9, 42, 63
7, 12181, Note_on_c, 9, 42, 0
7, 12241, Note_on_c, 9, 36, 110
7, 12241, Note_on_c, 9, 36, 0
7, 12241, Note_on_c, 9, 42, 110
7, 12241, Note_on_c, 9, 42, 0
7, 12300, Note_on_c, 9, 42, 63
7, 12301, Note_on_c, 9, 42, 0
7, 12360, Note_on_c, 9, 38, 110
7, 12361, Note_on_c, 9, 38, 0
7, 12361, Note_on_c, 9, 42, 95
7, 12361, Note_on_c, 9, 42, 0
7, 12420, Note_on_c, 9, 42, 63
7, 12421, Note_on_c, 9, 42, 0
7, 12480, Note_on_c, 9, 36, 110
7, 12480, Note_on_c, 9, 42, 110
7, 12481, Note_on_c, 9, 42, 0
7, 12481, Note_on_c, 9, 36, 0
7, 12540, Note_on_c, 9, 42, 63
7, 12541, Note_on_c, 9, 42, 0
7, 12600, Note_on_c, 9, 38, 110
7, 12601, Note_on_c, 9, 38, 0
7, 12601, Note_on_c, 9, 42, 95
7, 12601, Note_on_c, 9, 42, 0
7, 12660, Note_on_c, 9, 42, 63
7, 12661, Note_on_c, 9, 42, 0
7, 12720, Note_on_c, 9, 36, 110
7, 12721, Note_on_c, 9, 36, 0
7, 12721, Note_on_c, 9, 42, 110
7, 12721, Note_on_c, 9, 42, 0
7, 12780, Note_on_c, 9, 42, 63
7, 12781, Note_on_c, 9, 42, 0
7, 12840, Note_on_c, 9, 38, 110
7, 12840, Note_on_c, 9, 42, 95
7, 12841, Note_on_c, 9, 42, 0
7, 12841, Note_on_c, 9, 38, 0
7, 12900, Note_on_c, 9, 36, 110
7, 12901, Note_on_c, 9, 36, 0
7, 12901, Note_on_c, 9, 42, 63
7, 12901, Note_on_c, 9, 42, 0
7, 12960, Note_on_c, 9, 36, 110
7, 12961, Note_on_c, 9, 36, 0
7, 12961, Note_on_c, 9, 42, 110
7, 12961, Note_on_c, 9, 42, 0
7, 13020, Note_on_c, 9, 42, 63
7, 13021, Note_on_c, 9, 42, 0
7, 13080, Note_on_c, 9, 38, 110
7, 13081, Note_on_c, 9, 38, 0
7, 13081, Note_on_c, 9, 42, 95
7, 13081, Note_on_c, 9, 42, 0
7, 13140, Note_on_c, 9, 42, 63
7, 13141, Note_on_c, 9, 42, 0
7, 13200, Note_on_c, 9, 36, 110
7, 13200, Note_on_c, 9, 42, 110
7, 13201, Note_on_c, 9, 42, 0
7, 13201, Note_on_c, 9, 36, 0
7, 13260, Note_on_c, 9, 42, 63
7, 13261, Note_on_c, 9, 42, 0
7, 13320, Note_on_c, 9, 38, 110
7, 13321, Note_on_c, 9, 38, 0
7, 13321, Note_on_c, 9, 42, 95
7, 13321, Note_on_c, 9, 42, 0
7, 13380, Note_on_c, 9, 42, 63
7, 13381, Note_on_c, 9, 42, 0
7, 13440, Note_on_c, 9, 36, 110
7, 13441, Note_on_c, 9, 36, 0
7, 13441, Note_on_c, 9, 42, 110
7, 13441, Note_on_c, 9, 42, 0
7, 13500, Note_on_c, 9, 42, 63
7, 13501, Note_on_c, 9, 42, 0
7, 13560, Note_on_c, 9, 38, 110
7, 13560, Note_on_c, 9, 42, 95
7, 13561, Note_on_c, 9, 42, 0
7, 13561, Note_on_c, 9, 38, 0
7, 13620, Note_on_c, 9, 42, 63
7, 13621, Note_on_c, 9, 42, 0
7, 13680, Note_on_c, 9, 36, 110
7, 13681, Note_on_c, 9, 36, 0
7, 13681, Note_on_c, 9, 42, 110
7, 13681, Note_on_c, 9, 42, 0
7, 13740, Note_on_c, 9, 42, 63
7, 13741, Note_on_c, 9, 42, 0
7, 13800, Note_on_c, 9, 38, 110
7, 13801, Note_on_c, 9, 38, 0
7, 13801, Note_on_c, 9, 42, 95
7, 13801, Note_on_c, 9, 42, 0
7, 13860, Note_on_c, 9, 42, 63
7, 13861, Note_on_c, 9, 42, 0
7, 13920, Note_on_c, 9, 36, 110
7, 13920, Note_on_c, 9, 42, 110
7, 13920, Note_on_c, 9, 49, 80
7, 13921, Note_on_c, 9, 49, 0
7, 13921, Note_on_c, 9, 42, 0
7, 13921, Note_on_c, 9, 36, 0
7, 13980, Note_on_c, 9, 42, 63
7, 13981, Note_on_c, 9, 42, 0
7, 14040, Note_on_c, 9, 38, 110
7, 14041, Note_on_c, 9, 38, 0
7, 14041, Note_on_c, 9, 42, 95
7, 14041, Note_on_c, 9, 42, 0
7, 14100, Note_on_c, 9, 36, 95
7, 14101, Note_on_c, 9, 36, 0
7, 14101, Note_on_c, 9, 42, 63
7, 14101, Note_on_c, 9, 42, 0
7, 14160, Note_on_c, 9, 36, 110
7, 14161, Note_on_c, 9, 36, 0
7, 14161, Note_on_c, 9, 42, 110
7, 14161, Note_on_c, 9, 42, 0
7, 14220, Note_on_c, 9, 42, 63
7, 14221, Note_on_c, 9, 42, 0
7, 14280, Note_on_c, 9, 38, 110
7, 14280, Note_on_c, 9, 42, 95
7, 14281, Note_on_c, 9, 42, 0
7, 14281, Note_on_c, 9, 38, 0
7, 14340, Note_on_c, 9, 42, 63
7, 14341, Note_on_c, 9, 42, 0
7, 14400, Note_on_c, 9, 36, 110
7, 14401, Note_on_c, 9, 36, 0
7, 14401, Note_on_c, 9, 42, 110
7, 14401, Note_on_c, 9, 42, 0
7, 14460, Note_on_c, 9, 42, 63
7, 14461, Note_on_c, 9, 42, 0
7, 14520, Note_on_c, 9, 38, 110
7, 14521, Note_on_c, 9, 38, 0
7, 14521, Note_on_c, 9, 42, 95
7, 14521, Note_on_c, 9, 42, 0
7, 14580, Note_on_c, 9, 36, 95
7, 14581, Note_on_c, 9, 36, 0
7, 14581, Note_on_c, 9, 42, 63
7, 14581, Note_on_c, 9, 42, 0
7, 14640, Note_on_c, 9, 36, 110
7, 14640, Note_on_c, 9, 42, 110
7, 14641, Note_on_c, 9, 42, 0
7, 14641, Note_on_c, 9, 36, 0
7, 14700, Note_on_c, 9, 42, 63
7, 14701, Note_on_c, 9, 42, 0
7, 14760, Note_on_c, 9, 38, 110
7, 14761, Note_on_c, 9, 38, 0
7, 14761, Note_on_c, 9, 42, 95
7, 14761, Note_on_c, 9, 42, 0
7, 14820, Note_on_c, 9, 42, 63
7, 14821, Note_on_c, 9, 42, 0
7, 14880, Note_on_c, 9, 36, 110
7, 14881, Note_on_c, 9, 36, 0
7, 14881, Note_on_c, 9, 42, 110
7, 14881, Note_on_c, 9, 42, 0
7, 14881, Note_on_c, 9, 49, 80
7, 14881, Note_on_c, 9, 49, 0
7, 14940, Note_on_c, 9, 42, 63
7, 14941, Note_on_c, 9, 42, 0
7, 15000, Note_on_c, 9, 38, 110
7, 15000, Note_on_c, 9, 42, 95
7, 15001, Note_on_c, 9, 42, 0
7, 15001, Note_on_c, 9, 38, 0
7, 15060, Note_on_c, 9, 42, 63
7, 15061, Note_on_c, 9, 42, 0
7, 15120, Note_on_c, 9, 36, 110
7, 15121, Note_on_c, 9, 36, 0
7, 15121, Note_on_c, 9, 42, 110
7, 15121, Note_on_c, 9, 42, 0
7, 15180, Note_on_c, 9, 42, 63
7, 15181, Note_on_c, 9, 42, 0
7, 15240, Note_on_c, 9, 38, 110
7, 15241, Note_on_c, 9, 38, 0
7, 15241, Note_on_c, 9, 42, 95
7, 15241, Note_on_c, 9, 42, 0
7, 15300, Note_on_c, 9, 42, 63
7, 15301, Note_on_c, 9, 42, 0
7, 15360, Note_on_c, 9, 36, 110
7, 15360, Note_on_c, 9, 38, 31
7, 15361, Note_on_c, 9, 38, 0
7, 15361, Note_on_c, 9, 36, 0
7, 15361, Note_on_c, 9, 42, 110
7, 15361, Note_on_c, 9, 42, 0
7, 15420, Note_on_c, 9, 38, 47
7, 15421, Note_on_c, 9, 38, 0
7, 15421, Note_on_c, 9, 42, 63
7, 15421, Note_on_c, 9, 42, 0
7, 15480, Note_on_c, 9, 38, 63
7, 15481, Note_on_c, 9, 38, 0
7, 15481, Note_on_c, 9, 42, 95
7, 15481, Note_on_c, 9, 42, 0
7, 15540, Note_on_c, 9, 38, 79
7, 15541, Note_on_c, 9, 38, 0
7, 15541, Note_on_c, 9, 42, 63
7, 15541, Note_on_c, 9, 42, 0
7, 15600, Note_on_c, 9, 38, 95
7, 15601, Note_on_c, 9, 38, 0
7, 15601, Note_on_c, 9, 42, 110
7, 15601, Note_on_c, 9, 42, 0
7, 15660, Note_on_c, 9, 36, 110
7, 15661, Note_on_c, 9, 36, 0
7, 15661, Note_on_c, 9, 42, 63
7, 15661, Note_on_c, 9, 42, 0
7, 15720, Note_on_c, 9, 38, 110
7, 15720, Note_on_c, 9, 42, 95
7, 15721, Note_on_c, 9, 42, 0
7, 15721, Note_on_c, 9, 38, 0
7, 15725, Note_on_c, 9, 38, 110
7, 15726, Note_on_c, 9, 38, 0
7, 15780, Note_on_c, 9, 38, 79
7, 15781, Note_on_c, 9, 38, 0
7, 15781, Note_on_c, 9, 42, 63
7, 15781, Note_on_c, 9, 42, 0
7, 15840, Note_on_c, 9, 36, 110
7, 15841, Note_on_c, 9, 36, 0
7, 15841, Note_on_c, 9, 42, 110
7, 15841, Note_on_c, 9, 42, 0
7, 15841, Note_on_c, 9, 49, 80
7, 15841, Note_on_c, 9, 49, 0
7, 15900, Note_on_c, 9, 42, 63
7, 15901, Note_on_c, 9, 42, 0
7, 15960, Note_on_c, 9, 38, 110
7, 15961, Note_on_c, 9, 38, 0
7, 15961, Note_on_c, 9, 42, 95
7, 15961, Note_on_c, 9, 42, 0
7, 16020, Note_on_c, 9, 42, 63
7, 16021, Note_on_c, 9, 42, 0
7, 16080, Note_on_c, 9, 36, 110
7, 16080, Note_on_c, 9, 42, 110
7, 16081, Note_on_c, 9, 42, 0
7, 16081, Note_on_c, 9, 36, 0
7, 16140, Note_on_c, 9, 42, 63
7, 16141, Note_on_c, 9, 42, 0
7, 16200, Note_on_c, 9, 38, 110
7, 16201, Note_on_c, 9, 38, 0
7, 16201, Note_on_c, 9, 42, 95
7, 16201, Note_on_c, 9, 42, 0
7, 16260, Note_on_c, 9, 42, 63
7, 16261, Note_on_c, 9, 42, 0
7, 16320, Note_on_c, 9, 36, 110
7, 16321, Note_on_c, 9, 36, 0
7, 16321, Note_on_c, 9, 42, 110
7, 16321, Note_on_c, 9, 42, 0
7, 16380, Note_on_c, 9, 42, 63
7, 16381, Note_on_c, 9, 42, 0
7, 16440, Note_on_c, 9, 38, 110
7, 16440, Note_on_c, 9, 42, 95
7, 16441, Note_on_c, 9, 42, 0
7, 16441, Note_on_c, 9, 38, 0
7, 16501, Note_on_c, 9, 42, 63
7, 16501, Note_on_c, 9, 42, 0
7, 16560, Note_on_c, 9, 36, 110
7, 16561, Note_on_c, 9, 36, 0
7, 16561, Note_on_c, 9, 42, 110
7, 16561, Note_on_c, 9, 42, 0
7, 16620, Note_on_c, 9, 42, 63
7, 16621, Note_on_c, 9, 42, 0
7, 16680, Note_on_c, 9, 38, 110
7, 16681, Note_on_c, 9, 38, 0
7, 16681, Note_on_c, 9, 42, 95
7, 16681, Note_on_c, 9, 42, 0
7, 16740, Note_on_c, 9, 42, 63
7, 16741, Note_on_c, 9, 42, 0
7, 16800, Note_on_c, 9, 36, 110
7, 16800, Note_on_c, 9, 42, 110
7, 16801, Note_on_c, 9, 42, 0
7, 16801, Note_on_c, 9, 36, 0
7, 16860, Note_on_c, 9, 42, 63
7, 16861, Note_on_c, 9, 42, 0
7, 16920, Note_on_c, 9, 38, 110
7, 16921, Note_on_c, 9, 38, 0
7, 16921, Note_on_c, 9, 42, 95
7, 16921, Note_on_c, 9, 42, 0
7, 16980, Note_on_c, 9, 42, 63
7, 16981, Note_on_c, 9, 42, 0
7, 17040, Note_on_c, 9, 36, 110
7, 17041, Note_on_c, 9, 36, 0
7, 17041, Note_on_c, 9, 42, 110
7, 17041, Note_on_c, 9, 42, 0
7, 17100, Note_on_c, 9, 42, 63
7, 17101, Note_on_c, 9, 42, 0
7, 17160, Note_on_c, 9, 38, 110
7, 17160, Note_on_c, 9, 42, 95
7, 17161, Note_on_c, 9, 42, 0
7, 17161, Note_on_c, 9, 38, 0
7, 17220, Note_on_c, 9, 42, 63
7, 17221, Note_on_c, 9, 42, 0
7, 17280, Note_on_c, 9, 36, 110
7, 17280, Note_on_c, 9, 42, 110
7, 17281, Note_on_c, 9, 42, 0
7, 17281, Note_on_c, 9, 36, 0
7, 17340, Note_on_c, 9, 42, 63
7, 17341, Note_on_c, 9, 42, 0
7, 17400, Note_on_c, 9, 38, 110
7, 17401, Note_on_c, 9, 38, 0
7, 17401, Note_on_c, 9, 42, 95
7, 17401, Note_on_c, 9, 42, 0
7, 17460, Note_on_c, 9, 42, 63
7, 17461, Note_on_c, 9, 42, 0
7, 17520, Note_on_c, 9, 36, 110
7, 17520, Note_on_c, 9, 42, 110
7, 17521, Note_on_c, 9, 42, 0
7, 17521, Note_on_c, 9, 36, 0
7, 17580, Note_on_c, 9, 42, 63
7, 17581, Note_on_c, 9, 42, 0
7, 17640, Note_on_c, 9, 38, 110
7, 17641, Note_on_c, 9, 38, 0
7, 17641, Note_on_c, 9, 42, 95
7, 17641, Note_on_c, 9, 42, 0
7, 17700, Note_on_c, 9, 42, 63
7, 17701, Note_on_c, 9, 42, 0
7, 17760, Note_on_c, 9, 36, 110
7, 17761, Note_on_c, 9, 36, 0
7, 17761, Note_on_c, 9, 42, 110
7, 17761, Note_on_c, 9, 42, 0
7, 17761, Note_on_c, 9, 49, 80
7, 17761, Note_on_c, 9, 49, 0
7, 17820, Note_on_c, 9, 42, 63
7, 17821, Note_on_c, 9, 42, 0
7, 17880, Note_on_c, 9, 38, 110
7, 17880, Note_on_c, 9, 42, 95
7, 17881, Note_on_c, 9, 42, 0
7, 17881, Note_on_c, 9, 38, 0
7, 17940, Note_on_c, 9, 42, 63
7, 17941, Note_on_c, 9, 42, 0
7, 18000, Note_on_c, 9, 36, 110
7, 18001, Note_on_c, 9, 36, 0
7, 18001, Note_on_c, 9, 42, 110
7, 18001, Note_on_c, 9, 42, 0
7, 18060, Note_on_c, 9, 42, 63
7, 18061, Note_on_c, 9, 42, 0
7, 18120, Note_on_c, 9, 38, 110
7, 18121, Note_on_c, 9, 38, 0
7, 18121, Note_on_c, 9, 42, 95
7, 18121, Note_on_c, 9, 42, 0
7, 18180, Note_on_c, 9, 42, 63
7, 18181, Note_on_c, 9, 42, 0
7, 18240, Note_on_c, 9, 36, 110
7, 18240, Note_on_c, 9, 42, 110
7, 18241, Note_on_c, 9, 42, 0
7, 18241, Note_on_c, 9, 36, 0
7, 18300, Note_on_c, 9, 42, 63
7, 18301, Note_on_c, 9, 42, 0
7, 18360, Note_on_c, 9, 38, 110
7, 18361, Note_on_c, 9, 38, 0
7, 18361, Note_on_c, 9, 42, 95
7, 18361, Note_on_c, 9, 42, 0
7, 18420, Note_on_c, 9, 36, 95
7, 18421, Note_on_c, 9, 36, 0
7, 18421, Note_on_c, 9, 42, 63
7, 18421, Note_on_c, 9, 42, 0
7, 18480, Note_on_c, 9, 36, 110
7, 18481, Note_on_c, 9, 36, 0
7, 18481, Note_on_c, 9, 42, 110
7, 18481, Note_on_c, 9, 42, 0
7, 18540, Note_on_c, 9, 42, 63
7, 18541, Note_on_c, 9, 42, 0
7, 18600, Note_on_c, 9, 38, 110
7, 18600, Note_on_c, 9, 42, 95
7, 18601, Note_on_c, 9, 42, 0
7, 18601, Note_on_c, 9, 38, 0
7, 18660, Note_on_c, 9, 42, 63
7, 18661, Note_on_c, 9, 42, 0
7, 18720, Note_on_c, 9, 36, 110
7, 18721, Note_on_c, 9, 36, 0
7, 18721, Note_on_c, 9, 42, 110
7, 18721, Note_on_c, 9, 42, 0
7, 18721, Note_on_c, 9, 49, 80
7, 18721, Note_on_c, 9, 49, 0
7, 18780, Note_on_c, 9, 42, 63
7, 18781, Note_on_c, 9, 42, 0
7, 18840, Note_on_c, 9, 38, 110
7, 18841, Note_on_c, 9, 38, 0
7, 18841, Note_on_c, 9, 42, 95
7, 18841, Note_on_c, 9, 42, 0
7, 18900, Note_on_c, 9, 42, 63
7, 18901, Note_on_c, 9, 42, 0
7, 18960, Note_on_c, 9, 36, 110
7, 18960, Note_on_c, 9, 42, 110
7, 18961, Note_on_c, 9, 42, 0
7, 18961, Note_on_c, 9, 36, 0
7, 19020, Note_on_c, 9, 42, 63
7, 19021, Note_on_c, 9, 42, 0
7, 19080, Note_on_c, 9, 38, 110
7, 19081, Note_on_c, 9, 38, 0
7, 19081, Note_on_c, 9, 42, 95
7, 19081, Note_on_c, 9, 42, 0
7, 19140, Note_on_c, 9, 42, 63
7, 19141, Note_on_c, 9, 42, 0
7, 19200, Note_on_c, 9, 36, 110
7, 19201, Note_on_c, 9, 36, 0
7, 19201, Note_on_c, 9, 42, 110
7, 19201, Note_on_c, 9, 42, 0
7, 19260, Note_on_c, 9, 42, 63
7, 19261, Note_on_c, 9, 42, 0
7, 19320, Note_on_c, 9, 38, 110
7, 19320, Note_on_c, 9, 42, 95
7, 19321, Note_on_c, 9, 42, 0
7, 19321, Note_on_c, 9, 38, 0
7, 19380, Note_on_c, 9, 42, 63
7, 19381, Note_on_c, 9, 42, 0
7, 19440, Note_on_c, 9, 36, 110
7, 19441, Note_on_c, 9, 36, 0
7, 19441, Note_on_c, 9, 42, 110
7, 19441, Note_on_c, 9, 42, 0
7, 19500, Note_on_c, 9, 42, 63
7, 19501, Note_on_c, 9, 42, 0
7, 19560, Note_on_c, 9, 38, 110
7, 19561, Note_on_c, 9, 38, 0
7, 19561, Note_on_c, 9, 42, 95
7, 19561, Note_on_c, 9, 42, 0
7, 19620, Note_on_c, 9, 42, 63
7, 19621, Note_on_c, 9, 42, 0
7, 19680, Note_on_c, 9, 36, 110
7, 19680, Note_on_c, 9, 42, 110
7, 19681, Note_on_c, 9, 42, 0
7, 19681, Note_on_c, 9, 36, 0
7, 19740, Note_on_c, 9, 42, 63
7, 19741, Note_on_c, 9, 42, 0
7, 19800, Note_on_c, 9, 38, 110
7, 19801, Note_on_c, 9, 38, 0
7, 19801, Note_on_c, 9, 42, 95
7, 19801, Note_on_c, 9, 42, 0
7, 19860, Note_on_c, 9, 42, 63
7, 19861, Note_on_c, 9, 42, 0
7, 19920, Note_on_c, 9, 36, 110
7, 19921, Note_on_c, 9, 36, 0
7, 19921, Note_on_c, 9, 42, 110
7, 19921, Note_on_c, 9, 42, 0
7, 19980, Note_on_c, 9, 42, 63
7, 19981, Note_on_c, 9, 42, 0
7, 20040, Note_on_c, 9, 38, 110
7, 20040, Note_on_c, 9, 42, 95
7, 20041, Note_on_c, 9, 42, 0
7, 20041, Note_on_c, 9, 38, 0
7, 20100, Note_on_c, 9, 42, 63
7, 20101, Note_on_c, 9, 42, 0
7, 20160, Note_on_c, 9, 36, 110
7, 20161, Note_on_c, 9, 36, 0
7, 20161, Note_on_c, 9, 42, 110
7, 20161, Note_on_c, 9, 42, 0
7, 20220, Note_on_c, 9, 42, 63
7, 20221, Note_on_c, 9, 42, 0
7, 20280, Note_on_c, 9, 38, 110
7, 20281, Note_on_c, 9, 38, 0
7, 20281, Note_on_c, 9, 42, 95
7, 20281, Note_on_c, 9, 42, 0
7, 20340, Note_on_c, 9, 42, 63
7, 20341, Note_on_c, 9, 42, 0
7, 20400, Note_on_c, 9, 36, 110
7, 20400, Note_on_c, 9, 42, 110
7, 20401, Note_on_c, 9, 42, 0
7, 20401, Note_on_c, 9, 36, 0
7, 20460, Note_on_c, 9, 42, 63
7, 20461, Note_on_c, 9, 42, 0
7, 20520, Note_on_c, 9, 38, 110
7, 20521, Note_on_c, 9, 38, 0
7, 20521, Note_on_c, 9, 42, 95
7, 20521, Note_on_c, 9, 42, 0
7, 20580, Note_on_c, 9, 42, 63
7, 20581, Note_on_c, 9, 42, 0
7, 20640, Note_on_c, 9, 36, 110
7, 20641, Note_on_c, 9, 36, 0
7, 20641, Note_on_c, 9, 42, 110
7, 20641, Note_on_c, 9, 42, 0
7, 20700, Note_on_c, 9, 42, 63
7, 20701, Note_on_c, 9, 42, 0
7, 20760, Note_on_c, 9, 38, 110
7, 20760, Note_on_c, 9, 42, 95
7, 20761, Note_on_c, 9, 42, 0
7, 20761, Note_on_c, 9, 38, 0
7, 20820, Note_on_c, 9, 42, 63
7, 20821, Note_on_c, 9, 42, 0
7, 20880, Note_on_c, 9, 36, 110
7, 20881, Note_on_c, 9, 36, 0
7, 20881, Note_on_c, 9, 42, 110
7, 20881, Note_on_c, 9, 42, 0
7, 20940, Note_on_c, 9, 42, 63
7, 20941, Note_on_c, 9, 42, 0
7, 21000, Note_on_c, 9, 38, 110
7, 21001, Note_on_c, 9, 38, 0
7, 21001, Note_on_c, 9, 42, 95
7, 21001, Note_on_c, 9, 42, 0
7, 21060, Note_on_c, 9, 36, 95
7, 21061, Note_on_c, 9, 36, 0
7, 21061, Note_on_c, 9, 42, 63
7, 21061, Note_on_c, 9, 42, 0
7, 21120, Note_on_c, 9, 36, 110
7, 21120, Note_on_c, 9, 42, 110
7, 21121, Note_on_c, 9, 42, 0
7, 21121, Note_on_c, 9, 36, 0
7, 21180, Note_on_c, 9, 42, 63
7, 21181, Note_on_c, 9, 42, 0
7, 21240, Note_on_c, 9, 38, 110
7, 21241, Note_on_c, 9, 38, 0
7, 21241, Note_on_c, 9, 42, 95
7, 21241, Note_on_c, 9, 42, 0
7, 21300, Note_on_c, 9, 42, 63
7, 21301, Note_on_c, 9, 42, 0
7, 21360, Note_on_c, 9, 36, 110
7, 21361, Note_on_c, 9, 36, 0
7, 21361, Note_on_c, 9, 42, 110
7, 21361, Note_on_c, 9, 42, 0
7, 21420, Note_on_c, 9, 42, 63
7, 21421, Note_on_c, 9, 42, 0
7, 21480, Note_on_c, 9, 38, 110
7, 21480, Note_on_c, 9, 42, 95
7, 21481, Note_on_c, 9, 42, 0
7, 21481, Note_on_c, 9, 38, 0
7, 21540, Note_on_c, 9, 42, 63
7, 21541, Note_on_c, 9, 42, 0
7, 21600, Note_on_c, 9, 36, 110
7, 21601, Note_on_c, 9, 36, 0
7, 21601, Note_on_c, 9, 42, 110
7, 21601, Note_on_c, 9, 42, 0
7, 21660, Note_on_c, 9, 42, 63
7, 21661, Note_on_c, 9, 42, 0
7, 21720, Note_on_c, 9, 38, 110
7, 21721, Note_on_c, 9, 38, 0
7, 21721, Note_on_c, 9, 42, 95
7, 21721, Note_on_c, 9, 42, 0
7, 21780, Note_on_c, 9, 42, 63
7, 21781, Note_on_c, 9, 42, 0
7, 21840, Note_on_c, 9, 36, 110
7, 21841, Note_on_c, 9, 36, 0
7, 21841, Note_on_c, 9, 42, 110
7, 21841, Note_on_c, 9, 42, 0
7, 21900, Note_on_c, 9, 42, 63
7, 21901, Note_on_c, 9, 42, 0
7, 21960, Note_on_c, 9, 38, 110
7, 21961, Note_on_c, 9, 38, 0
7, 21961, Note_on_c, 9, 42, 95
7, 21961, Note_on_c, 9, 42, 0
7, 22020, Note_on_c, 9, 42, 63
7, 22021, Note_on_c, 9, 42, 0
7, 22080, Note_on_c, 9, 36, 110
7, 22081, Note_on_c, 9, 36, 0
7, 22081, Note_on_c, 9, 42, 110
7, 22081, Note_on_c, 9, 42, 0
7, 22140, Note_on_c, 9, 42, 63
7, 22141, Note_on_c, 9, 42, 0
7, 22200, Note_on_c, 9, 38, 110
7, 22200, Note_on_c, 9, 42, 95
7, 22201, Note_on_c, 9, 42, 0
7, 22201, Note_on_c, 9, 38, 0
7, 22260, Note_on_c, 9, 42, 63
7, 22261, Note_on_c, 9, 42, 0
7, 22320, Note_on_c, 9, 36, 110
7, 22321, Note_on_c, 9, 36, 0
7, 22321, Note_on_c, 9, 42, 110
7, 22321, Note_on_c, 9, 42, 0
7, 22380, Note_on_c, 9, 42, 63
7, 22381, Note_on_c, 9, 42, 0
7, 22440, Note_on_c, 9, 38, 110
7, 22441, Note_on_c, 9, 38, 0
7, 22441, Note_on_c, 9, 42, 95
7, 22441, Note_on_c, 9, 42, 0
7, 22500, Note_on_c, 9, 42, 63
7, 22501, Note_on_c, 9, 42, 0
7, 22560, Note_on_c, 9, 36, 110
7, 22560, Note_on_c, 9, 42, 110
7, 22561, Note_on_c, 9, 42, 0
7, 22561, Note_on_c, 9, 36, 0
7, 22561, Note_on_c, 9, 49, 80
7, 22561, Note_on_c, 9, 49, 0
7, 22620, Note_on_c, 9, 42, 63
7, 22621, Note_on_c, 9, 42, 0
7, 22680, Note_on_c, 9, 38, 110
7, 22681, Note_on_c, 9, 38, 0
7, 22681, Note_on_c, 9, 42, 95
7, 22681, Note_on_c, 9, 42, 0
7, 22740, Note_on_c, 9, 36, 95
7, 22741, Note_on_c, 9, 36, 0
7, 22741, Note_on_c, 9, 42, 63
7, 22741, Note_on_c, 9, 42, 0
7, 22800, Note_on_c, 9, 36, 110
7, 22801, Note_on_c, 9, 36, 0
7, 22801, Note_on_c, 9, 42, 110
7, 22801, Note_on_c, 9, 42, 0
7, 22860, Note_on_c, 9, 42, 63
7, 22861, Note_on_c, 9, 42, 0
7, 22920, Note_on_c, 9, 38, 110
7, 22920, Note_on_c, 9, 42, 95
7, 22921, Note_on_c, 9, 42, 0
7, 22921, Note_on_c, 9, 38, 0
7, 22980, Note_on_c, 9, 42, 63
7, 22981, Note_on_c, 9, 42, 0
7, 23040, Note_on_c, 9, 36, 110
7, 23041, Note_on_c, 9, 36, 0
7, 23041, Note_on_c, 9, 42, 110
7, 23041, Note_on_c, 9, 42, 0
7, 23100, Note_on_c, 9, 42, 63
7, 23101, Note_on_c, 9, 42, 0
7, 23160, Note_on_c, 9, 38, 110
7, 23161, Note_on_c, 9, 38, 0
7, 23161, Note_on_c, 9, 42, 95
7, 23161, Note_on_c, 9, 42, 0
7, 23220, Note_on_c, 9, 36, 95
7, 23221, Note_on_c, 9, 36, 0
7, 23221, Note_on_c, 9, 42, 63
7, 23221, Note_on_c, 9, 42, 0
7, 23280, Note_on_c, 9, 36, 110
7, 23280, Note_on_c, 9, 42, 110
7, 23281, Note_on_c, 9, 42, 0
7, 23281, Note_on_c, 9, 36, 0
7, 23341, Note_on_c, 9, 42, 63
7, 23341, Note_on_c, 9, 42, 0
7, 23400, Note_on_c, 9, 38, 110
7, 23401, Note_on_c, 9, 38, 0
7, 23401, Note_on_c, 9, 42, 95
7, 23401, Note_on_c, 9, 42, 0
7, 23460, Note_on_c, 9, 42, 63
7, 23461, Note_on_c, 9, 42, 0
7, 23520, Note_on_c, 9, 36, 110
7, 23521, Note_on_c, 9, 36, 0
7, 23521, Note_on_c, 9, 42, 110
7, 23521, Note_on_c, 9, 42, 0
7, 23580, Note_on_c, 9, 42, 63
7, 23581, Note_on_c, 9, 42, 0
7, 23640, Note_on_c, 9, 38, 110
7, 23640, Note_on_c, 9, 42, 95
7, 23641, Note_on_c, 9, 42, 0
7, 23641, Note_on_c, 9, 38, 0
7, 23700, Note_on_c, 9, 42, 63
7, 23701, Note_on_c, 9, 42, 0
7, 23760, Note_on_c, 9, 36, 110
7, 23761, Note_on_c, 9, 36, 0
7, 23761, Note_on_c, 9, 42, 110
7, 23761, Note_on_c, 9, 42, 0
7, 23821, Note_on_c, 9, 42, 63
7, 23821, Note_on_c, 9, 42, 0
7, 23880, Note_on_c, 9, 38, 110
7, 23881, Note_on_c, 9, 38, 0
7, 23881, Note_on_c, 9, 42, 95
7, 23881, Note_on_c, 9, 42, 0
7, 23940, Note_on_c, 9, 42, 63
7, 23941, Note_on_c, 9, 42, 0
7, 24000, Note_on_c, 9, 36, 110
7, 24001, Note_on_c, 9, 36, 0
7, 24001, Note_on_c, 9, 42, 110
7, 24001, Note_on_c, 9, 42, 0
7, 24060, Note_on_c, 9, 38, 47
7, 24061, Note_on_c, 9, 38, 0
7, 24061, Note_on_c, 9, 42, 79
7, 24061, Note_on_c, 9, 42, 0
7, 24120, Note_on_c, 9, 36, 47
7, 24121, Note_on_c, 9, 36, 0
7, 24121, Note_on_c, 9, 38, 63
7, 24121, Note_on_c, 9, 38, 0
7, 24121, Note_on_c, 9, 42, 95
7, 24121, Note_on_c, 9, 42, 0
7, 24180, Note_on_c, 9, 36, 63
7, 24181, Note_on_c, 9, 36, 0
7, 24181, Note_on_c, 9, 38, 79
7, 24181, Note_on_c, 9, 38, 0
7, 24181, Note_on_c, 9, 42, 110
7, 24181, Note_on_c, 9, 42, 0
7, 24240, Note_on_c, 9, 36, 79
7, 24241, Note_on_c, 9, 36, 0
7, 24241, Note_on_c, 9, 38, 95
7, 24241, Note_on_c, 9, 38, 0
7, 24241, Note_on_c, 9, 42, 110
7, 24241, Note_on_c, 9, 42, 0
7, 24301, Note_on_c, 9, 36, 110
7, 24301, Note_on_c, 9, 36, 0
7, 24360, Note_on_c, 9, 38, 110
7, 24361, Note_on_c, 9, 38, 0
7, 24365, Note_on_c, 9, 38, 110
7, 24366, Note_on_c, 9, 38, 0
7, 24480, Note_on_c, 9, 36, 110
7, 24481, Note_on_c, 9, 36, 0
7, 24481, Note_on_c, 9, 42, 110
7, 24481, Note_on_c, 9, 42, 0
7, 24481, Note_on_c, 9, 49, 80
7, 24481, Note_on_c, 9, 49, 0
7, 24540, Note_on_c, 9, 42, 63
7, 24541, Note_on_c, 9, 42, 0
7, 24600, Note_on_c, 9, 38, 110
7, 24601, Note_on_c, 9, 38, 0
7, 24601, Note_on_c, 9, 42, 95
7, 24601, Note_on_c, 9, 42, 0
7, 24660, Note_on_c, 9, 42, 63
7, 24661, Note_on_c, 9, 42, 0
7, 24720, Note_on_c, 9, 36, 110
7, 24720, Note_on_c, 9, 42, 110
7, 24721, Note_on_c, 9, 42, 0
7, 24721, Note_on_c, 9, 36, 0
7, 24780, Note_on_c, 9, 42, 63
7, 24781, Note_on_c, 9, 42, 0
7, 24840, Note_on_c, 9, 38, 110
7, 24841, Note_on_c, 9, 38, 0
7, 24841, Note_on_c, 9, 42, 95
7, 24841, Note_on_c, 9, 42, 0
7, 24900, Note_on_c, 9, 42, 63
7, 24901, Note_on_c, 9, 42, 0
7, 24960, Note_on_c, 9, 36, 110
7, 24961, Note_on_c, 9, 36, 0
7, 24961, Note_on_c, 9, 42, 110
7, 24961, Note_on_c, 9, 42, 0
7, 25020, Note_on_c, 9, 42, 63
7, 25021, Note_on_c, 9, 42, 0
7, 25080, Note_on_c, 9, 38, 110
7, 25081, Note_on_c, 9, 38, 0
7, 25081, Note_on_c, 9, 42, 95
7, 25081, Note_on_c, 9, 42, 0
7, 25140, Note_on_c, 9, 42, 63
7, 25141, Note_on_c, 9, 42, 0
7, 25200, Note_on_c, 9, 36, 110
7, 25201, Note_on_c, 9, 36, 0
7, 25201, Note_on_c, 9, 42, 110
7, 25201, Note_on_c, 9, 42, 0
7, 25261, Note_on_c, 9, 42, 63
7, 25261, Note_on_c, 9, 42, 0
7, 25320, Note_on_c, 9, 38, 110
7, 25321, Note_on_c, 9, 38, 0
7, 25321, Note_on_c, 9, 42, 95
7, 25321, Note_on_c, 9, 42, 0
7, 25380, Note_on_c, 9, 42, 63
7, 25381, Note_on_c, 9, 42, 0
7, 25440, Note_on_c, 9, 36, 110
7, 25441, Note_on_c, 9, 36, 0
7, 25441, Note_on_c, 9, 42, 110
7, 25441, Note_on_c, 9, 42, 0
7, 25500, Note_on_c, 9, 42, 63
7, 25501, Note_on_c, 9, 42, 0
7, 25560, Note_on_c, 9, 38, 110
7, 25561, Note_on_c, 9, 38, 0
7, 25561, Note_on_c, 9, 42, 95
7, 25561, Note_on_c, 9, 42, 0
7, 25620, Note_on_c, 9, 42, 63
7, 25621, Note_on_c, 9, 42, 0
7, 25680, Note_on_c, 9, 36, 110
7, 25681, Note_on_c, 9, 36, 0
7, 25681, Note_on_c, 9, 42, 110
7, 25681, Note_on_c, 9, 42, 0
7, 25740, Note_on_c, 9, 42, 63
7, 25741, Note_on_c, 9, 42, 0
7, 25800, Note_on_c, 9, 38, 110
7, 25801, Note_on_c, 9, 38, 0
7, 25801, Note_on_c, 9, 42, 95
7, 25801, Note_on_c, 9, 42, 0
7, 25860, Note_on_c, 9, 42, 63
7, 25861, Note_on_c, 9, 42, 0
7, 25920, Note_on_c, 9, 36, 110
7, 25921, Note_on_c, 9, 36, 0
7, 25921, Note_on_c, 9, 42, 110
7, 25921, Note_on_c, 9, 42, 0
7, 25980, Note_on_c, 9, 42, 63
7, 25981, Note_on_c, 9, 42, 0
7, 26040, Note_on_c, 9, 38, 110
7, 26041, Note_on_c, 9, 38, 0
7, 26041, Note_on_c, 9, 42, 95
7, 26041, Note_on_c, 9, 42, 0
7, 26100, Note_on_c, 9, 42, 63
7, 26101, Note_on_c, 9, 42, 0
7, 26160, Note_on_c, 9, 36, 110
7, 26161, Note_on_c, 9, 36, 0
7, 26161, Note_on_c, 9, 42, 110
7, 26161, Note_on_c, 9, 42, 0
7, 26220, Note_on_c, 9, 42, 63
7, 26221, Note_on_c, 9, 42, 0
7, 26280, Note_on_c, 9, 38, 110
7, 26281, Note_on_c, 9, 38, 0
7, 26281, Note_on_c, 9, 42, 95
7, 26281, Note_on_c, 9, 42, 0
7, 26340, Note_on_c, 9, 36, 110
7, 26341, Note_on_c, 9, 36, 0
7, 26341, Note_on_c, 9, 42, 63
7, 26341, Note_on_c, 9, 42, 0
7, 26400, Note_on_c, 9, 36, 110
7, 26401, Note_on_c, 9, 36, 0
7, 26401, Note_on_c, 9, 42, 110
7, 26401, Note_on_c, 9, 42, 0
7, 26401, Note_on_c, 9, 49, 80
7, 26401, Note_on_c, 9, 49, 0
7, 26460, Note_on_c, 9, 42, 63
7, 26461, Note_on_c, 9, 42, 0
7, 26520, Note_on_c, 9, 38, 110
7, 26521, Note_on_c, 9, 38, 0
7, 26521, Note_on_c, 9, 42, 95
7, 26521, Note_on_c, 9, 42, 0
7, 26580, Note_on_c, 9, 42, 63
7, 26581, Note_on_c, 9, 42, 0
7, 26640, Note_on_c, 9, 36, 110
7, 26641, Note_on_c, 9, 36, 0
7, 26641, Note_on_c, 9, 42, 110
7, 26641, Note_on_c, 9, 42, 0
7, 26700, Note_on_c, 9, 42, 63
7, 26701, Note_on_c, 9, 42, 0
7, 26760, Note_on_c, 9, 38, 110
7, 26761, Note_on_c, 9, 38, 0
7, 26761, Note_on_c, 9, 42, 95
7, 26761, Note_on_c, 9, 42, 0
7, 26820, Note_on_c, 9, 42, 63
7, 26821, Note_on_c, 9, 42, 0
7, 26880, Note_on_c, 9, 36, 110
7, 26881, Note_on_c, 9, 36, 0
7, 26881, Note_on_c, 9, 42, 110
7, 26881, Note_on_c, 9, 42, 0
7, 26940, Note_on_c, 9, 42, 63
7, 26941, Note_on_c, 9, 42, 0
7, 27000, Note_on_c, 9, 38, 110
7, 27001, Note_on_c, 9, 38, 0
7, 27001, Note_on_c, 9, 42, 95
7, 27001, Note_on_c, 9, 42, 0
7, 27060, Note_on_c, 9, 42, 63
7, 27061, Note_on_c, 9, 42, 0
7, 27121, Note_on_c, 9, 36, 110
7, 27121, Note_on_c, 9, 36, 0
7, 27121, Note_on_c, 9, 42, 110
7, 27121, Note_on_c, 9, 42, 0
7, 27180, Note_on_c, 9, 42, 63
7, 27181, Note_on_c, 9, 42, 0
7, 27240, Note_on_c, 9, 38, 110
7, 27241, Note_on_c, 9, 38, 0
7, 27241, Note_on_c, 9, 42, 95
7, 27241, Note_on_c, 9, 42, 0
7, 27300, Note_on_c, 9, 36, 95
7, 27300, Note_on_c, 9, 42, 63
7, 27301, Note_on_c, 9, 42, 0
7, 27301, Note_on_c, 9, 36, 0
7, 27360, Note_on_c, 9, 36, 110
7, 27361, Note_on_c, 9, 36, 0
7, 27361, Note_on_c, 9, 42, 110
7, 27361, Note_on_c, 9, 42, 0
7, 27361, Note_on_c, 9, 49, 80
7, 27361, Note_on_c, 9, 49, 0
7, 27420, Note_on_c, 9, 42, 63
7, 27421, Note_on_c, 9, 42, 0
7, 27480, Note_on_c, 9, 38, 110
7, 27481, Note_on_c, 9, 38, 0
7, 27481, Note_on_c, 9, 42, 95
7, 27481, Note_on_c, 9, 42, 0
7, 27540, Note_on_c, 9, 36, 95
7, 27541, Note_on_c, 9, 36, 0
7, 27541, Note_on_c, 9, 42, 63
7, 27541, Note_on_c, 9, 42, 0
7, 27600, Note_on_c, 9, 36, 110
7, 27601, Note_on_c, 9, 36, 0
7, 27601, Note_on_c, 9, 42, 110
7, 27601, Note_on_c, 9, 42, 0
7, 27660, Note_on_c, 9, 42, 63
7, 27661, Note_on_c, 9, 42, 0
7, 27720, Note_on_c, 9, 38, 110
7, 27721, Note_on_c, 9, 38, 0
7, 27721, Note_on_c, 9, 42, 95
7, 27721, Note_on_c, 9, 42, 0
7, 27780, Note_on_c, 9, 36, 95
7, 27781, Note_on_c, 9, 36, 0
7, 27781, Note_on_c, 9, 42, 63
7, 27781, Note_on_c, 9, 42, 0
7, 27840, Note_on_c, 9, 36, 110
7, 27841, Note_on_c, 9, 36, 0
7, 27841, Note_on_c, 9, 42, 110
7, 27841, Note_on_c, 9, 42, 0
7, 27900, Note_on_c, 9, 42, 63
7, 27901, Note_on_c, 9, 42, 0
7, 27960, Note_on_c, 9, 38, 110
7, 27961, Note_on_c, 9, 38, 0
7, 27961, Note_on_c, 9, 42, 95
7, 27961, Note_on_c, 9, 42, 0
7, 28020, Note_on_c, 9, 36, 95
7, 28020, Note_on_c, 9, 42, 63
7, 28021, Note_on_c, 9, 42, 0
7, 28021, Note_on_c, 9, 36, 0
7, 28080, Note_on_c, 9, 36, 110
7, 28081, Note_on_c, 9, 36, 0
7, 28081, Note_on_c, 9, 38, 63
7, 28081, Note_on_c, 9, 38, 0
7, 28081, Note_on_c, 9, 42, 110
7, 28081, Note_on_c, 9, 42, 0
7, 28140, Note_on_c, 9, 38, 79
7, 28141, Note_on_c, 9, 38, 0
7, 28141, Note_on_c, 9, 42, 110
7, 28141, Note_on_c, 9, 42, 0
7, 28141, Note_on_c, 9, 47, 64
7, 28141, Note_on_c, 9, 47, 0
7, 28200, Note_on_c, 9, 38, 95
7, 28201, Note_on_c, 9, 38, 0
7, 28201, Note_on_c, 9, 42, 110
7, 28201, Note_on_c, 9, 42, 0
7, 28201, Note_on_c, 9, 47, 64
7, 28201, Note_on_c, 9, 47, 0
7, 28260, Note_on_c, 9, 38, 110
7, 28261, Note_on_c, 9, 38, 0
7, 28261, Note_on_c, 9, 42, 110
7, 28261, Note_on_c, 9, 42, 0
7, 28261, Note_on_c, 9, 47, 64
7, 28261, Note_on_c, 9, 47, 0
7, 28320, Note_on_c, 9, 36, 110
7, 28321, Note_on_c, 9, 36, 0
7, 28321, Note_on_c, 9, 42, 110
7, 28321, Note_on_c, 9, 42, 0
7, 28321, Note_on_c, 9, 49, 80
7, 28321, Note_on_c, 9, 49, 0
7, 28380, Note_on_c, 9, 42, 63
7, 28381, Note_on_c, 9, 42, 0
7, 28440, Note_on_c, 9, 38, 110
7, 28441, Note_on_c, 9, 38, 0
7, 28441, Note_on_c, 9, 42, 95
7, 28441, Note_on_c, 9, 42, 0
7, 28500, Note_on_c, 9, 42, 63
7, 28501, Note_on_c, 9, 42, 0
7, 28560, Note_on_c, 9, 36, 110
7, 28561, Note_on_c, 9, 36, 0
7, 28561, Note_on_c, 9, 42, 110
7, 28561, Note_on_c, 9, 42, 0
7, 28620, Note_on_c, 9, 42, 63
7, 28621, Note_on_c, 9, 42, 0
7, 28680, Note_on_c, 9, 38, 110
7, 28681, Note_on_c, 9, 38, 0
7, 28681, Note_on_c, 9, 42, 95
7, 28681, Note_on_c, 9, 42, 0
7, 28740, Note_on_c, 9, 42, 63
7, 28741, Note_on_c, 9, 42, 0
7, 28800, Note_on_c, 9, 36, 110
7, 28801, Note_on_c, 9, 36, 0
7, 28801, Note_on_c, 9, 42, 110
7, 28801, Note_on_c, 9, 42, 0
7, 28860, Note_on_c, 9, 42, 63
7, 28861, Note_on_c, 9, 42, 0
7, 28920, Note_on_c, 9, 38, 110
7, 28921, Note_on_c, 9, 38, 0
7, 28921, Note_on_c, 9, 42, 95
7, 28921, Note_on_c, 9, 42, 0
7, 28980, Note_on_c, 9, 42, 63
7, 28981, Note_on_c, 9, 42, 0
7, 29040, Note_on_c, 9, 36, 110
7, 29041, Note_on_c, 9, 36, 0
7, 29041, Note_on_c, 9, 42, 110
7, 29041, Note_on_c, 9, 42, 0
7, 29100, Note_on_c, 9, 42, 63
7, 29101, Note_on_c, 9, 42, 0
7, 29160, Note_on_c, 9, 38, 110
7, 29161, Note_on_c, 9, 38, 0
7, 29161, Note_on_c, 9, 42, 95
7, 29161, Note_on_c, 9, 42, 0
7, 29220, Note_on_c, 9, 36, 95
7, 29221, Note_on_c, 9, 36, 0
7, 29221, Note_on_c, 9, 42, 63
7, 29221, Note_on_c, 9, 42, 0
7, 29280, Note_on_c, 9, 36, 110
7, 29281, Note_on_c, 9, 36, 0
7, 29281, Note_on_c, 9, 42, 110
7, 29281, Note_on_c, 9, 42, 0
7, 29281, Note_on_c, 9, 49, 80
7, 29281, Note_on_c, 9, 49, 0
7, 29340, Note_on_c, 9, 42, 63
7, 29341, Note_on_c, 9, 42, 0
7, 29400, Note_on_c, 9, 38, 110
7, 29401, Note_on_c, 9, 38, 0
7, 29401, Note_on_c, 9, 42, 95
7, 29401, Note_on_c, 9, 42, 0
7, 29460, Note_on_c, 9, 42, 63
7, 29461, Note_on_c, 9, 42, 0
7, 29520, Note_on_c, 9, 36, 110
7, 29521, Note_on_c, 9, 36, 0
7, 29521, Note_on_c, 9, 42, 110
7, 29521, Note_on_c, 9, 42, 0
7, 29580, Note_on_c, 9, 42, 63
7, 29581, Note_on_c, 9, 42, 0
7, 29640, Note_on_c, 9, 38, 110
7, 29641, Note_on_c, 9, 38, 0
7, 29641, Note_on_c, 9, 42, 95
7, 29641, Note_on_c, 9, 42, 0
7, 29700, Note_on_c, 9, 42, 63
7, 29701, Note_on_c, 9, 42, 0
7, 29760, Note_on_c, 9, 36, 110
7, 29761, Note_on_c, 9, 36, 0
7, 29761, Note_on_c, 9, 42, 110
7, 29761, Note_on_c, 9, 42, 0
7, 29820, Note_on_c, 9, 42, 63
7, 29821, Note_on_c, 9, 42, 0
7, 29880, Note_on_c, 9, 38, 110
7, 29881, Note_on_c, 9, 38, 0
7, 29881, Note_on_c, 9, 42, 95
7, 29881, Note_on_c, 9, 42, 0
7, 29940, Note_on_c, 9, 42, 63
7, 29941, Note_on_c, 9, 42, 0
7, 30000, Note_on_c, 9, 36, 110
7, 30001, Note_on_c, 9, 36, 0
7, 30001, Note_on_c, 9, 42, 110
7, 30001, Note_on_c, 9, 42, 0
7, 30060, Note_on_c, 9, 42, 63
7, 30061, Note_on_c, 9, 42, 0
7, 30120, Note_on_c, 9, 38, 110
7, 30121, Note_on_c, 9, 38, 0
7, 30121, Note_on_c, 9, 42, 95
7, 30121, Note_on_c, 9, 42, 0
7, 30180, Note_on_c, 9, 42, 63
7, 30181, Note_on_c, 9, 42, 0
7, 30240, Note_on_c, 9, 36, 110
7, 30241, Note_on_c, 9, 36, 0
7, 30241, Note_on_c, 9, 42, 110
7, 30241, Note_on_c, 9, 42, 0
7, 30300, Note_on_c, 9, 42, 63
7, 30301, Note_on_c, 9, 42, 0
7, 30360, Note_on_c, 9, 38, 110
7, 30361, Note_on_c, 9, 38, 0
7, 30361, Note_on_c, 9, 42, 95
7, 30361, Note_on_c, 9, 42, 0
7, 30420, Note_on_c, 9, 42, 63
7, 30421, Note_on_c, 9, 42, 0
7, 30480, Note_on_c, 9, 36, 110
7, 30481, Note_on_c, 9, 36, 0
7, 30481, Note_on_c, 9, 42, 110
7, 30481, Note_on_c, 9, 42, 0
7, 30540, Note_on_c, 9, 42, 63
7, 30541, Note_on_c, 9, 42, 0
7, 30600, Note_on_c, 9, 38, 110
7, 30601, Note_on_c, 9, 38, 0
7, 30601, Note_on_c, 9, 42, 95
7, 30601, Note_on_c, 9, 42, 0
7, 30660, Note_on_c, 9, 42, 63
7, 30661, Note_on_c, 9, 42, 0
7, 30720, Note_on_c, 9, 36, 110
7, 30721, Note_on_c, 9, 36, 0
7, 30721, Note_on_c, 9, 42, 110
7, 30721, Note_on_c, 9, 42, 0
7, 30780, Note_on_c, 9, 42, 63
7, 30781, Note_on_c, 9, 42, 0
7, 30840, Note_on_c, 9, 38, 110
7, 30841, Note_on_c, 9, 38, 0
7, 30841, Note_on_c, 9, 42, 95
7, 30841, Note_on_c, 9, 42, 0
7, 30900, Note_on_c, 9, 42, 63
7, 30901, Note_on_c, 9, 42, 0
7, 30960, Note_on_c, 9, 36, 110
7, 30961, Note_on_c, 9, 36, 0
7, 30961, Note_on_c, 9, 42, 110
7, 30961, Note_on_c, 9, 42, 0
7, 31020, Note_on_c, 9, 42, 63
7, 31021, Note_on_c, 9, 42, 0
7, 31080, Note_on_c, 9, 38, 110
7, 31081, Note_on_c, 9, 38, 0
7, 31081, Note_on_c, 9, 42, 95
7, 31081, Note_on_c, 9, 42, 0
7, 31140, Note_on_c, 9, 36, 110
7, 31141, Note_on_c, 9, 36, 0
7, 31141, Note_on_c, 9, 42, 63
7, 31141, Note_on_c, 9, 42, 0
7, 31141, Note_on_c, 9, 49, 64
7, 31141, Note_on_c, 9, 49, 0
7, 31200, Note_on_c, 9, 36, 110
7, 31201, Note_on_c, 9, 36, 0
7, 31201, Note_on_c, 9, 42, 110
7, 31201, Note_on_c, 9, 42, 0
7, 31201, Note_on_c, 9, 49, 96
7, 31201, Note_on_c, 9, 49, 0
7, 31260, Note_on_c, 9, 42, 63
7, 31261, Note_on_c, 9, 42, 0
7, 31320, Note_on_c, 9, 38, 110
7, 31321, Note_on_c, 9, 38, 0
7, 31321, Note_on_c, 9, 42, 95
7, 31321, Note_on_c, 9, 42, 0
7, 31380, Note_on_c, 9, 42, 63
7, 31381, Note_on_c, 9, 42, 0
7, 31440, Note_on_c, 9, 36, 110
7, 31441, Note_on_c, 9, 36, 0
7, 31441, Note_on_c, 9, 42, 110
7, 31441, Note_on_c, 9, 42, 0
7, 31500, Note_on_c, 9, 42, 63
7, 31501, Note_on_c, 9, 42, 0
7, 31560, Note_on_c, 9, 38, 110
7, 31561, Note_on_c, 9, 38, 0
7, 31561, Note_on_c, 9, 42, 95
7, 31561, Note_on_c, 9, 42, 0
7, 31620, Note_on_c, 9, 42, 63
7, 31621, Note_on_c, 9, 42, 0
7, 31681, Note_on_c, 9, 36, 110
7, 31681, Note_on_c, 9, 36, 0
7, 31681, Note_on_c, 9, 42, 110
7, 31681, Note_on_c, 9, 42, 0
7, 31740, Note_on_c, 9, 38, 47
7, 31741, Note_on_c, 9, 38, 0
7, 31741, Note_on_c, 9, 42, 79
7, 31741, Note_on_c, 9, 42, 0
7, 31800, Note_on_c, 9, 36, 47
7, 31801, Note_on_c, 9, 36, 0
7, 31801, Note_on_c, 9, 38, 63
7, 31801, Note_on_c, 9, 38, 0
7, 31801, Note_on_c, 9, 42, 95
7, 31801, Note_on_c, 9, 42, 0
7, 31860, Note_on_c, 9, 36, 63
7, 31861, Note_on_c, 9, 36, 0
7, 31861, Note_on_c, 9, 38, 79
7, 31861, Note_on_c, 9, 38, 0
7, 31861, Note_on_c, 9, 42, 110
7, 31861, Note_on_c, 9, 42, 0
7, 31920, Note_on_c, 9, 36, 110
7, 31921, Note_on_c, 9, 36, 0
7, 31921, Note_on_c, 9, 38, 95
7, 31921, Note_on_c, 9, 38, 0
7, 31921, Note_on_c, 9, 42, 110
7, 31921, Note_on_c, 9, 42, 0
7, 32040, Note_on_c, 9, 36, 1
7, 32041, Note_on_c, 9, 36, 0
7, 32041, Note_on_c, 9, 38, 110
7, 32041, Note_on_c, 9, 38, 0
7, 32045, Note_on_c, 9, 38, 110
7, 32046, Note_on_c, 9, 38, 0
7, 32161, Note_on_c, 9, 36, 110
7, 32161, Note_on_c, 9, 36, 0
7, 32161, Note_on_c, 9, 42, 110
7, 32161, Note_on_c, 9, 49, 80
7, 32162, Note_on_c, 9, 49, 0
7, 32162, Note_on_c, 9, 42, 0
7, 32220, Note_on_c, 9, 42, 63
7, 32221, Note_on_c, 9, 42, 0
7, 32280, Note_on_c, 9, 38, 110
7, 32281, Note_on_c, 9, 38, 0
7, 32281, Note_on_c, 9, 42, 95
7, 32281, Note_on_c, 9, 42, 0
7, 32340, Note_on_c, 9, 42, 63
7, 32341, Note_on_c, 9, 42, 0
7, 32400, Note_on_c, 9, 36, 110
7, 32401, Note_on_c, 9, 36, 0
7, 32401, Note_on_c, 9, 42, 110
7, 32401, Note_on_c, 9, 42, 0
7, 32460, Note_on_c, 9, 42, 63
7, 32461, Note_on_c, 9, 42, 0
7, 32520, Note_on_c, 9, 38, 110
7, 32521, Note_on_c, 9, 38, 0
7, 32521, Note_on_c, 9, 42, 95
7, 32521, Note_on_c, 9, 42, 0
7, 32580, Note_on_c, 9, 42, 63
7, 32581, Note_on_c, 9, 42, 0
7, 32641, Note_on_c, 9, 36, 110
7, 32641, Note_on_c, 9, 36, 0
7, 32641, Note_on_c, 9, 42, 110
7, 32641, Note_on_c, 9, 42, 0
7, 32700, Note_on_c, 9, 42, 63
7, 32701, Note_on_c, 9, 42, 0
7, 32760, Note_on_c, 9, 38, 110
7, 32761, Note_on_c, 9, 38, 0
7, 32761, Note_on_c, 9, 42, 95
7, 32761, Note_on_c, 9, 42, 0
7, 32820, Note_on_c, 9, 42, 63
7, 32821, Note_on_c, 9, 42, 0
7, 32880, Note_on_c, 9, 36, 110
7, 32881, Note_on_c, 9, 36, 0
7, 32881, Note_on_c, 9, 42, 110
7, 32881, Note_on_c, 9, 42, 0
7, 32940, Note_on_c, 9, 42, 63
7, 32941, Note_on_c, 9, 42, 0
7, 33000, Note_on_c, 9, 38, 110
7, 33001, Note_on_c, 9, 38, 0
7, 33001, Note_on_c, 9, 42, 95
7, 33001, Note_on_c, 9, 42, 0
7, 33060, Note_on_c, 9, 42, 63
7, 33061, Note_on_c, 9, 42, 0
7, 33120, Note_on_c, 9, 36, 110
7, 33121, Note_on_c, 9, 36, 0
7, 33121, Note_on_c, 9, 42, 110
7, 33121, Note_on_c, 9, 42, 0
7, 33180, Note_on_c, 9, 42, 63
7, 33181, Note_on_c, 9, 42, 0
7, 33240, Note_on_c, 9, 38, 110
7, 33241, Note_on_c, 9, 38, 0
7, 33241, Note_on_c, 9, 42, 95
7, 33241, Note_on_c, 9, 42, 0
7, 33300, Note_on_c, 9, 42, 63
7, 33301, Note_on_c, 9, 42, 0
7, 33360, Note_on_c, 9, 36, 110
7, 33361, Note_on_c, 9, 36, 0
7, 33361, Note_on_c, 9, 42, 110
7, 33361, Note_on_c, 9, 42, 0
7, 33420, Note_on_c, 9, 42, 63
7, 33421, Note_on_c, 9, 42, 0
7, 33480, Note_on_c, 9, 38, 110
7, 33481, Note_on_c, 9, 38, 0
7, 33481, Note_on_c, 9, 42, 95
7, 33481, Note_on_c, 9, 42, 0
7, 33540, Note_on_c, 9, 42, 63
7, 33541, Note_on_c, 9, 42, 0
7, 33600, Note_on_c, 9, 36, 110
7, 33601, Note_on_c, 9, 36, 0
7, 33601, Note_on_c, 9, 42, 110
7, 33601, Note_on_c, 9, 42, 0
7, 33660, Note_on_c, 9, 42, 63
7, 33661, Note_on_c, 9, 42, 0
7, 33720, Note_on_c, 9, 38, 110
7, 33721, Note_on_c, 9, 38, 0
7, 33721, Note_on_c, 9, 42, 95
7, 33721, Note_on_c, 9, 42, 0
7, 33780, Note_on_c, 9, 42, 63
7, 33781, Note_on_c, 9, 42, 0
7, 33840, Note_on_c, 9, 36, 110
7, 33841, Note_on_c, 9, 36, 0
7, 33841, Note_on_c, 9, 42, 110
7, 33841, Note_on_c, 9, 42, 0
7, 33900, Note_on_c, 9, 42, 63
7, 33901, Note_on_c, 9, 42, 0
7, 33960, Note_on_c, 9, 38, 110
7, 33961, Note_on_c, 9, 38, 0
7, 33961, Note_on_c, 9, 42, 95
7, 33961, Note_on_c, 9, 42, 0
7, 34020, Note_on_c, 9, 42, 63
7, 34021, Note_on_c, 9, 42, 0
7, 34080, Note_on_c, 9, 36, 110
7, 34081, Note_on_c, 9, 36, 0
7, 34081, Note_on_c, 9, 42, 110
7, 34081, Note_on_c, 9, 42, 0
7, 34140, Note_on_c, 9, 42, 63
7, 34141, Note_on_c, 9, 42, 0
7, 34200, Note_on_c, 9, 38, 110
7, 34201, Note_on_c, 9, 38, 0
7, 34201, Note_on_c, 9, 42, 95
7, 34201, Note_on_c, 9, 42, 0
7, 34260, Note_on_c, 9, 42, 63
7, 34261, Note_on_c, 9, 42, 0
7, 34320, Note_on_c, 9, 36, 110
7, 34321, Note_on_c, 9, 36, 0
7, 34321, Note_on_c, 9, 42, 110
7, 34321, Note_on_c, 9, 42, 0
7, 34380, Note_on_c, 9, 42, 63
7, 34381, Note_on_c, 9, 42, 0
7, 34440, Note_on_c, 9, 38, 110
7, 34441, Note_on_c, 9, 38, 0
7, 34441, Note_on_c, 9, 42, 95
7, 34441, Note_on_c, 9, 42, 0
7, 34500, Note_on_c, 9, 42, 63
7, 34501, Note_on_c, 9, 42, 0
7, 34560, Note_on_c, 9, 36, 110
7, 34561, Note_on_c, 9, 36, 0
7, 34561, Note_on_c, 9, 42, 110
7, 34561, Note_on_c, 9, 42, 0
7, 34620, Note_on_c, 9, 42, 63
7, 34621, Note_on_c, 9, 42, 0
7, 34680, Note_on_c, 9, 38, 110
7, 34681, Note_on_c, 9, 38, 0
7, 34681, Note_on_c, 9, 42, 95
7, 34681, Note_on_c, 9, 42, 0
7, 34740, Note_on_c, 9, 42, 63
7, 34741, Note_on_c, 9, 42, 0
7, 34800, Note_on_c, 9, 36, 110
7, 34801, Note_on_c, 9, 36, 0
7, 34801, Note_on_c, 9, 42, 110
7, 34801, Note_on_c, 9, 42, 0
7, 34860, Note_on_c, 9, 42, 63
7, 34861, Note_on_c, 9, 42, 0
7, 34920, Note_on_c, 9, 38, 110
7, 34921, Note_on_c, 9, 38, 0
7, 34921, Note_on_c, 9, 42, 95
7, 34921, Note_on_c, 9, 42, 0
7, 34980, Note_on_c, 9, 36, 110
7, 34981, Note_on_c, 9, 36, 0
7, 34981, Note_on_c, 9, 42, 63
7, 34981, Note_on_c, 9, 42, 0
7, 35040, Note_on_c, 9, 36, 110
7, 35041, Note_on_c, 9, 36, 0
7, 35041, Note_on_c, 9, 42, 110
7, 35041, Note_on_c, 9, 42, 0
7, 35100, Note_on_c, 9, 42, 63
7, 35101, Note_on_c, 9, 42, 0
7, 35160, Note_on_c, 9, 38, 110
7, 35161, Note_on_c, 9, 38, 0
7, 35161, Note_on_c, 9, 42, 95
7, 35161, Note_on_c, 9, 42, 0
7, 35220, Note_on_c, 9, 42, 63
7, 35221, Note_on_c, 9, 42, 0
7, 35280, Note_on_c, 9, 36, 110
7, 35281, Note_on_c, 9, 36, 0
7, 35281, Note_on_c, 9, 42, 110
7, 35281, Note_on_c, 9, 42, 0
7, 35340, Note_on_c, 9, 42, 63
7, 35341, Note_on_c, 9, 42, 0
7, 35400, Note_on_c, 9, 38, 110
7, 35401, Note_on_c, 9, 38, 0
7, 35401, Note_on_c, 9, 42, 95
7, 35401, Note_on_c, 9, 42, 0
7, 35460, Note_on_c, 9, 42, 63
7, 35461, Note_on_c, 9, 42, 0
7, 35520, Note_on_c, 9, 36, 110
7, 35521, Note_on_c, 9, 36, 0
7, 35521, Note_on_c, 9, 42, 110
7, 35521, Note_on_c, 9, 42, 0
7, 35580, Note_on_c, 9, 42, 63
7, 35581, Note_on_c, 9, 42, 0
7, 35640, Note_on_c, 9, 38, 110
7, 35641, Note_on_c, 9, 38, 0
7, 35641, Note_on_c, 9, 42, 95
7, 35641, Note_on_c, 9, 42, 0
7, 35700, Note_on_c, 9, 42, 63
7, 35701, Note_on_c, 9, 42, 0
7, 35760, Note_on_c, 9, 36, 110
7, 35761, Note_on_c, 9, 36, 0
7, 35761, Note_on_c, 9, 42, 110
7, 35761, Note_on_c, 9, 42, 0
7, 35820, Note_on_c, 9, 38, 79
7, 35821, Note_on_c, 9, 38, 0
7, 35821, Note_on_c, 9, 42, 110
7, 35821, Note_on_c, 9, 42, 0
7, 35821, Note_on_c, 9, 47, 64
7, 35821, Note_on_c, 9, 47, 0
7, 35880, Note_on_c, 9, 38, 95
7, 35881, Note_on_c, 9, 38, 0
7, 35881, Note_on_c, 9, 42, 110
7, 35881, Note_on_c, 9, 42, 0
7, 35881, Note_on_c, 9, 47, 64
7, 35881, Note_on_c, 9, 47, 0
7, 35940, Note_on_c, 9, 38, 110
7, 35940, Note_on_c, 9, 42, 110
7, 35941, Note_on_c, 9, 42, 0
7, 35941, Note_on_c, 9, 38, 0
7, 35941, Note_on_c, 9, 47, 64
7, 35941, Note_on_c, 9, 47, 0
7, 36000, Note_on_c, 9, 36, 110
7, 36001, Note_on_c, 9, 36, 0
7, 36001, Note_on_c, 9, 42, 110
7, 36001, Note_on_c, 9, 42, 0
7, 36001, Note_on_c, 9, 49, 80
7, 36001, Note_on_c, 9, 49, 0
7, 36060, Note_on_c, 9, 42, 63
7, 36061, Note_on_c, 9, 42, 0
7, 36120, Note_on_c, 9, 38, 110
7, 36121, Note_on_c, 9, 38, 0
7, 36121, Note_on_c, 9, 42, 95
7, 36121, Note_on_c, 9, 42, 0
7, 36180, Note_on_c, 9, 42, 63
7, 36181, Note_on_c, 9, 42, 0
7, 36240, Note_on_c, 9, 36, 110
7, 36241, Note_on_c, 9, 36, 0
7, 36241, Note_on_c, 9, 42, 110
7, 36241, Note_on_c, 9, 42, 0
7, 36300, Note_on_c, 9, 42, 63
7, 36301, Note_on_c, 9, 42, 0
7, 36360, Note_on_c, 9, 38, 110
7, 36361, Note_on_c, 9, 38, 0
7, 36361, Note_on_c, 9, 42, 95
7, 36361, Note_on_c, 9, 42, 0
7, 36420, Note_on_c, 9, 42, 63
7, 36421, Note_on_c, 9, 42, 0
7, 36480, Note_on_c, 9, 36, 110
7, 36481, Note_on_c, 9, 36, 0
7, 36481, Note_on_c, 9, 42, 110
7, 36481, Note_on_c, 9, 42, 0
7, 36540, Note_on_c, 9, 42, 63
7, 36541, Note_on_c, 9, 42, 0
7, 36600, Note_on_c, 9, 38, 110
7, 36601, Note_on_c, 9, 38, 0
7, 36601, Note_on_c, 9, 42, 95
7, 36601, Note_on_c, 9, 42, 0
7, 36660, Note_on_c, 9, 42, 63
7, 36661, Note_on_c, 9, 42, 0
7, 36720, Note_on_c, 9, 36, 110
7, 36721, Note_on_c, 9, 36, 0
7, 36721, Note_on_c, 9, 42, 110
7, 36721, Note_on_c, 9, 42, 0
7, 36780, Note_on_c, 9, 42, 63
7, 36781, Note_on_c, 9, 42, 0
7, 36840, Note_on_c, 9, 38, 110
7, 36841, Note_on_c, 9, 38, 0
7, 36841, Note_on_c, 9, 42, 95
7, 36841, Note_on_c, 9, 42, 0
7, 36900, Note_on_c, 9, 42, 63
7, 36901, Note_on_c, 9, 42, 0
7, 36960, Note_on_c, 9, 36, 110
7, 36961, Note_on_c, 9, 36, 0
7, 36961, Note_on_c, 9, 42, 110
7, 36961, Note_on_c, 9, 42, 0
7, 37020, Note_on_c, 9, 42, 63
7, 37021, Note_on_c, 9, 42, 0
7, 37080, Note_on_c, 9, 38, 110
7, 37081, Note_on_c, 9, 38, 0
7, 37081, Note_on_c, 9, 42, 95
7, 37081, Note_on_c, 9, 42, 0
7, 37141, Note_on_c, 9, 42, 63
7, 37141, Note_on_c, 9, 42, 0
7, 37200, Note_on_c, 9, 36, 110
7, 37201, Note_on_c, 9, 36, 0
7, 37201, Note_on_c, 9, 42, 110
7, 37201, Note_on_c, 9, 42, 0
7, 37260, Note_on_c, 9, 42, 63
7, 37261, Note_on_c, 9, 42, 0
7, 37320, Note_on_c, 9, 38, 110
7, 37321, Note_on_c, 9, 38, 0
7, 37321, Note_on_c, 9, 42, 95
7, 37321, Note_on_c, 9, 42, 0
7, 37380, Note_on_c, 9, 42, 63
7, 37381, Note_on_c, 9, 42, 0
7, 37440, Note_on_c, 9, 36, 110
7, 37441, Note_on_c, 9, 36, 0
7, 37441, Note_on_c, 9, 42, 110
7, 37441, Note_on_c, 9, 42, 0
7, 37500, Note_on_c, 9, 42, 63
7, 37501, Note_on_c, 9, 42, 0
7, 37560, Note_on_c, 9, 38, 110
7, 37561, Note_on_c, 9, 38, 0
7, 37561, Note_on_c, 9, 42, 95
7, 37561, Note_on_c, 9, 42, 0
7, 37621, Note_on_c, 9, 42, 63
7, 37621, Note_on_c, 9, 42, 0
7, 37680, Note_on_c, 9, 36, 110
7, 37681, Note_on_c, 9, 36, 0
7, 37681, Note_on_c, 9, 42, 110
7, 37681, Note_on_c, 9, 42, 0
7, 37740, Note_on_c, 9, 42, 63
7, 37741, Note_on_c, 9, 42, 0
7, 37800, Note_on_c, 9, 38, 110
7, 37801, Note_on_c, 9, 38, 0
7, 37801, Note_on_c, 9, 42, 95
7, 37801, Note_on_c, 9, 42, 0
7, 37860, Note_on_c, 9, 42, 63
7, 37861, Note_on_c, 9, 42, 0
7, 37920, Note_on_c, 9, 36, 110
7, 37921, Note_on_c, 9, 36, 0
7, 37921, Note_on_c, 9, 42, 110
7, 37921, Note_on_c, 9, 42, 0
7, 37921, Note_on_c, 9, 49, 80
7, 37921, Note_on_c, 9, 49, 0
7, 37980, Note_on_c, 9, 42, 63
7, 37981, Note_on_c, 9, 42, 0
7, 38040, Note_on_c, 9, 38, 110
7, 38041, Note_on_c, 9, 38, 0
7, 38041, Note_on_c, 9, 42, 95
7, 38041, Note_on_c, 9, 42, 0
7, 38101, Note_on_c, 9, 42, 63
7, 38101, Note_on_c, 9, 42, 0
7, 38160, Note_on_c, 9, 36, 110
7, 38161, Note_on_c, 9, 36, 0
7, 38161, Note_on_c, 9, 42, 110
7, 38161, Note_on_c, 9, 42, 0
7, 38220, Note_on_c, 9, 42, 63
7, 38221, Note_on_c, 9, 42, 0
7, 38280, Note_on_c, 9, 38, 110
7, 38281, Note_on_c, 9, 38, 0
7, 38281, Note_on_c, 9, 42, 95
7, 38281, Note_on_c, 9, 42, 0
7, 38340, Note_on_c, 9, 42, 63
7, 38341, Note_on_c, 9, 42, 0
7, 38400, Note_on_c, 9, 36, 110
7, 38401, Note_on_c, 9, 36, 0
7, 38401, Note_on_c, 9, 42, 110
7, 38401, Note_on_c, 9, 42, 0
7, 38460, Note_on_c, 9, 42, 63
7, 38461, Note_on_c, 9, 42, 0
7, 38520, Note_on_c, 9, 38, 110
7, 38521, Note_on_c, 9, 38, 0
7, 38521, Note_on_c, 9, 42, 95
7, 38521, Note_on_c, 9, 42, 0
7, 38580, Note_on_c, 9, 42, 63
7, 38581, Note_on_c, 9, 42, 0
7, 38640, Note_on_c, 9, 36, 110
7, 38641, Note_on_c, 9, 36, 0
7, 38641, Note_on_c, 9, 42, 110
7, 38641, Note_on_c, 9, 42, 0
7, 38700, Note_on_c, 9, 42, 63
7, 38701, Note_on_c, 9, 42, 0
7, 38760, Note_on_c, 9, 38, 110
7, 38761, Note_on_c, 9, 38, 0
7, 38761, Note_on_c, 9, 42, 95
7, 38761, Note_on_c, 9, 42, 0
7, 38820, Note_on_c, 9, 36, 95
7, 38820, Note_on_c, 9, 42, 63
7, 38821, Note_on_c, 9, 42, 0
7, 38821, Note_on_c, 9, 36, 0
7, 38880, Note_on_c, 9, 36, 110
7, 38881, Note_on_c, 9, 36, 0
7, 38881, Note_on_c, 9, 42, 110
7, 38881, Note_on_c, 9, 42, 0
7, 38881, Note_on_c, 9, 49, 80
7, 38881, Note_on_c, 9, 49, 0
7, 38940, Note_on_c, 9, 42, 63
7, 38941, Note_on_c, 9, 42, 0
7, 39000, Note_on_c, 9, 38, 110
7, 39001, Note_on_c, 9, 38, 0
7, 39001, Note_on_c, 9, 42, 95
7, 39001, Note_on_c, 9, 42, 0
7, 39060, Note_on_c, 9, 36, 95
7, 39061, Note_on_c, 9, 36, 0
7, 39061, Note_on_c, 9, 42, 63
7, 39061, Note_on_c, 9, 42, 0
7, 39120, Note_on_c, 9, 36, 110
7, 39121, Note_on_c, 9, 36, 0
7, 39121, Note_on_c, 9, 42, 110
7, 39121, Note_on_c, 9, 42, 0
7, 39180, Note_on_c, 9, 42, 63
7, 39181, Note_on_c, 9, 42, 0
7, 39240, Note_on_c, 9, 38, 110
7, 39241, Note_on_c, 9, 38, 0
7, 39241, Note_on_c, 9, 42, 95
7, 39241, Note_on_c, 9, 42, 0
7, 39300, Note_on_c, 9, 42, 63
7, 39301, Note_on_c, 9, 42, 0
7, 39360, Note_on_c, 9, 36, 110
7, 39361, Note_on_c, 9, 36, 0
7, 39361, Note_on_c, 9, 42, 110
7, 39361, Note_on_c, 9, 42, 0
7, 39420, Note_on_c, 9, 42, 63
7, 39421, Note_on_c, 9, 42, 0
7, 39480, Note_on_c, 9, 38, 110
7, 39481, Note_on_c, 9, 38, 0
7, 39481, Note_on_c, 9, 42, 95
7, 39481, Note_on_c, 9, 42, 0
7, 39540, Note_on_c, 9, 36, 95
7, 39541, Note_on_c, 9, 36, 0
7, 39541, Note_on_c, 9, 42, 63
7, 39541, Note_on_c, 9, 42, 0
7, 39600, Note_on_c, 9, 36, 110
7, 39601, Note_on_c, 9, 36, 0
7, 39601, Note_on_c, 9, 42, 110
7, 39601, Note_on_c, 9, 42, 0
7, 39660, Note_on_c, 9, 42, 63
7, 39661, Note_on_c, 9, 42, 0
7, 39720, Note_on_c, 9, 38, 110
7, 39721, Note_on_c, 9, 38, 0
7, 39721, Note_on_c, 9, 42, 95
7, 39721, Note_on_c, 9, 42, 0
7, 39780, Note_on_c, 9, 42, 63
7, 39781, Note_on_c, 9, 42, 0
7, 39840, Note_on_c, 9, 36, 110
7, 39841, Note_on_c, 9, 36, 0
7, 39841, Note_on_c, 9, 42, 110
7, 39841, Note_on_c, 9, 42, 0
7, 39900, Note_on_c, 9, 42, 63
7, 39901, Note_on_c, 9, 42, 0
7, 39960, Note_on_c, 9, 38, 110
7, 39961, Note_on_c, 9, 38, 0
7, 39961, Note_on_c, 9, 42, 95
7, 39961, Note_on_c, 9, 42, 0
7, 40020, Note_on_c, 9, 42, 63
7, 40021, Note_on_c, 9, 42, 0
7, 40080, Note_on_c, 9, 36, 110
7, 40081, Note_on_c, 9, 36, 0
7, 40081, Note_on_c, 9, 42, 110
7, 40081, Note_on_c, 9, 42, 0
7, 40140, Note_on_c, 9, 42, 63
7, 40141, Note_on_c, 9, 42, 0
7, 40200, Note_on_c, 9, 38, 110
7, 40201, Note_on_c, 9, 38, 0
7, 40201, Note_on_c, 9, 42, 95
7, 40201, Note_on_c, 9, 42, 0
7, 40260, Note_on_c, 9, 42, 63
7, 40261, Note_on_c, 9, 42, 0
7, 40320, Note_on_c, 9, 36, 110
7, 40321, Note_on_c, 9, 36, 0
7, 40321, Note_on_c, 9, 42, 110
7, 40321, Note_on_c, 9, 42, 0
7, 40380, Note_on_c, 9, 38, 47
7, 40381, Note_on_c, 9, 38, 0
7, 40381, Note_on_c, 9, 42, 79
7, 40381, Note_on_c, 9, 42, 0
7, 40440, Note_on_c, 9, 36, 47
7, 40441, Note_on_c, 9, 36, 0
7, 40441, Note_on_c, 9, 38, 63
7, 40441, Note_on_c, 9, 38, 0
7, 40441, Note_on_c, 9, 42, 95
7, 40441, Note_on_c, 9, 42, 0
7, 40500, Note_on_c, 9, 36, 63
7, 40501, Note_on_c, 9, 36, 0
7, 40501, Note_on_c, 9, 38, 79
7, 40501, Note_on_c, 9, 38, 0
7, 40501, Note_on_c, 9, 42, 110
7, 40501, Note_on_c, 9, 42, 0
7, 40560, Note_on_c, 9, 36, 79
7, 40561, Note_on_c, 9, 36, 0
7, 40561, Note_on_c, 9, 38, 95
7, 40561, Note_on_c, 9, 38, 0
7, 40561, Note_on_c, 9, 42, 110
7, 40561, Note_on_c, 9, 42, 0
7, 40620, Note_on_c, 9, 36, 110
7, 40621, Note_on_c, 9, 36, 0
7, 40680, Note_on_c, 9, 38, 110
7, 40681, Note_on_c, 9, 38, 0
7, 40685, Note_on_c, 9, 38, 110
7, 40686, Note_on_c, 9, 38, 0
7, 40740, Note_on_c, 9, 38, 110
7, 40741, Note_on_c, 9, 38, 0
7, 40800, Note_on_c, 9, 36, 110
7, 40801, Note_on_c, 9, 36, 0
7, 40801, Note_on_c, 9, 42, 110
7, 40801, Note_on_c, 9, 42, 0
7, 40801, Note_on_c, 9, 49, 80
7, 40801, Note_on_c, 9, 49, 0
7, 40860, Note_on_c, 9, 42, 63
7, 40861, Note_on_c, 9, 42, 0
7, 40920, Note_on_c, 9, 38, 110
7, 40921, Note_on_c, 9, 38, 0
7, 40921, Note_on_c, 9, 42, 95
7, 40921, Note_on_c, 9, 42, 0
7, 40980, Note_on_c, 9, 36, 95
7, 40980, Note_on_c, 9, 42, 63
7, 40981, Note_on_c, 9, 42, 0
7, 40981, Note_on_c, 9, 36, 0
7, 41040, Note_on_c, 9, 36, 110
7, 41041, Note_on_c, 9, 36, 0
7, 41041, Note_on_c, 9, 42, 110
7, 41041, Note_on_c, 9, 42, 0
7, 41100, Note_on_c, 9, 42, 63
7, 41101, Note_on_c, 9, 42, 0
7, 41160, Note_on_c, 9, 38, 110
7, 41161, Note_on_c, 9, 38, 0
7, 41161, Note_on_c, 9, 42, 95
7, 41161, Note_on_c, 9, 42, 0
7, 41220, Note_on_c, 9, 42, 63
7, 41221, Note_on_c, 9, 42, 0
7, 41280, Note_on_c, 9, 36, 110
7, 41281, Note_on_c, 9, 36, 0
7, 41281, Note_on_c, 9, 42, 110
7, 41281, Note_on_c, 9, 42, 0
7, 41340, Note_on_c, 9, 42, 63
7, 41341, Note_on_c, 9, 42, 0
7, 41400, Note_on_c, 9, 38, 110
7, 41401, Note_on_c, 9, 38, 0
7, 41401, Note_on_c, 9, 42, 95
7, 41401, Note_on_c, 9, 42, 0
7, 41460, Note_on_c, 9, 36, 95
7, 41461, Note_on_c, 9, 36, 0
7, 41461, Note_on_c, 9, 42, 63
7, 41461, Note_on_c, 9, 42, 0
7, 41520, Note_on_c, 9, 36, 110
7, 41521, Note_on_c, 9, 36, 0
7, 41521, Note_on_c, 9, 42, 110
7, 41521, Note_on_c, 9, 42, 0
7, 41580, Note_on_c, 9, 42, 63
7, 41581, Note_on_c, 9, 42, 0
7, 41640, Note_on_c, 9, 38, 110
7, 41641, Note_on_c, 9, 38, 0
7, 41641, Note_on_c, 9, 42, 95
7, 41641, Note_on_c, 9, 42, 0
7, 41700, Note_on_c, 9, 42, 63
7, 41701, Note_on_c, 9, 42, 0
7, 41760, Note_on_c, 9, 36, 110
7, 41761, Note_on_c, 9, 36, 0
7, 41761, Note_on_c, 9, 42, 110
7, 41761, Note_on_c, 9, 42, 0
7, 41820, Note_on_c, 9, 42, 63
7, 41821, Note_on_c, 9, 42, 0
7, 41880, Note_on_c, 9, 38, 110
7, 41881, Note_on_c, 9, 38, 0
7, 41881, Note_on_c, 9, 42, 95
7, 41881, Note_on_c, 9, 42, 0
7, 41940, Note_on_c, 9, 42, 63
7, 41941, Note_on_c, 9, 42, 0
7, 42000, Note_on_c, 9, 36, 110
7, 42001, Note_on_c, 9, 36, 0
7, 42001, Note_on_c, 9, 42, 110
7, 42001, Note_on_c, 9, 42, 0
7, 42060, Note_on_c, 9, 42, 63
7, 42061, Note_on_c, 9, 42, 0
7, 42120, Note_on_c, 9, 38, 110
7, 42121, Note_on_c, 9, 38, 0
7, 42121, Note_on_c, 9, 42, 95
7, 42121, Note_on_c, 9, 42, 0
7, 42180, Note_on_c, 9, 42, 63
7, 42181, Note_on_c, 9, 42, 0
7, 42240, Note_on_c, 9, 36, 110
7, 42240, Note_on_c, 9, 42, 110
7, 42241, Note_on_c, 9, 42, 0
7, 42241, Note_on_c, 9, 36, 0
7, 42300, Note_on_c, 9, 38, 47
7, 42301, Note_on_c, 9, 38, 0
7, 42301, Note_on_c, 9, 42, 79
7, 42301, Note_on_c, 9, 42, 0
7, 42360, Note_on_c, 9, 36, 47
7, 42361, Note_on_c, 9, 36, 0
7, 42361, Note_on_c, 9, 38, 63
7, 42361, Note_on_c, 9, 38, 0
7, 42361, Note_on_c, 9, 42, 95
7, 42361, Note_on_c, 9, 42, 0
7, 42420, Note_on_c, 9, 36, 63
7, 42420, Note_on_c, 9, 38, 79
7, 42420, Note_on_c, 9, 42, 110
7, 42421, Note_on_c, 9, 42, 0
7, 42421, Note_on_c, 9, 38, 0
7, 42421, Note_on_c, 9, 36, 0
7, 42480, Note_on_c, 9, 36, 79
7, 42481, Note_on_c, 9, 36, 0
7, 42481, Note_on_c, 9, 38, 95
7, 42481, Note_on_c, 9, 38, 0
7, 42481, Note_on_c, 9, 42, 110
7, 42481, Note_on_c, 9, 42, 0
7, 42600, Note_on_c, 9, 38, 110
7, 42601, Note_on_c, 9, 38, 0
7, 42605, Note_on_c, 9, 38, 110
7, 42606, Note_on_c, 9, 38, 0
7, 42660, Note_on_c, 9, 36, 95
7, 42661, Note_on_c, 9, 36, 0
7, 42661, Note_on_c, 9, 38, 110
7, 42661, Note_on_c, 9, 38, 0
7, 42665, Note_on_c, 9, 38, 110
7, 42666, Note_on_c, 9, 38, 0
7, 42720, Note_on_c, 9, 36, 110
7, 42721, Note_on_c, 9, 36, 0
7, 42721, Note_on_c, 9, 42, 110
7, 42721, Note_on_c, 9, 42, 0
7, 42721, Note_on_c, 9, 49, 80
7, 42721, Note_on_c, 9, 49, 0
7, 42780, Note_on_c, 9, 42, 63
7, 42781, Note_on_c, 9, 42, 0
7, 42840, Note_on_c, 9, 38, 110
7, 42841, Note_on_c, 9, 38, 0
7, 42841, Note_on_c, 9, 42, 95
7, 42841, Note_on_c, 9, 42, 0
7, 42900, Note_on_c, 9, 42, 63
7, 42901, Note_on_c, 9, 42, 0
7, 42960, Note_on_c, 9, 36, 110
7, 42961, Note_on_c, 9, 36, 0
7, 42961, Note_on_c, 9, 42, 110
7, 42961, Note_on_c, 9, 42, 0
7, 43020, Note_on_c, 9, 42, 63
7, 43021, Note_on_c, 9, 42, 0
7, 43080, Note_on_c, 9, 38, 110
7, 43081, Note_on_c, 9, 38, 0
7, 43081, Note_on_c, 9, 42, 95
7, 43081, Note_on_c, 9, 42, 0
7, 43140, Note_on_c, 9, 42, 63
7, 43141, Note_on_c, 9, 42, 0
7, 43200, Note_on_c, 9, 36, 110
7, 43201, Note_on_c, 9, 36, 0
7, 43201, Note_on_c, 9, 42, 110
7, 43201, Note_on_c, 9, 42, 0
7, 43260, Note_on_c, 9, 42, 63
7, 43261, Note_on_c, 9, 42, 0
7, 43320, Note_on_c, 9, 38, 110
7, 43321, Note_on_c, 9, 38, 0
7, 43321, Note_on_c, 9, 42, 95
7, 43321, Note_on_c, 9, 42, 0
7, 43380, Note_on_c, 9, 42, 63
7, 43381, Note_on_c, 9, 42, 0
7, 43440, Note_on_c, 9, 36, 110
7, 43441, Note_on_c, 9, 36, 0
7, 43441, Note_on_c, 9, 42, 110
7, 43441, Note_on_c, 9, 42, 0
7, 43500, Note_on_c, 9, 42, 63
7, 43501, Note_on_c, 9, 42, 0
7, 43560, Note_on_c, 9, 38, 110
7, 43561, Note_on_c, 9, 38, 0
7, 43561, Note_on_c, 9, 42, 95
7, 43561, Note_on_c, 9, 42, 0
7, 43620, Note_on_c, 9, 36, 95
7, 43621, Note_on_c, 9, 36, 0
7, 43621, Note_on_c, 9, 42, 63
7, 43621, Note_on_c, 9, 42, 0
7, 43680, Note_on_c, 9, 36, 110
7, 43681, Note_on_c, 9, 36, 0
7, 43681, Note_on_c, 9, 42, 110
7, 43681, Note_on_c, 9, 42, 0
7, 43740, Note_on_c, 9, 42, 63
7, 43741, Note_on_c, 9, 42, 0
7, 43800, Note_on_c, 9, 38, 110
7, 43801, Note_on_c, 9, 38, 0
7, 43801, Note_on_c, 9, 42, 95
7, 43801, Note_on_c, 9, 42, 0
7, 43860, Note_on_c, 9, 42, 63
7, 43861, Note_on_c, 9, 42, 0
7, 43920, Note_on_c, 9, 36, 110
7, 43921, Note_on_c, 9, 36, 0
7, 43921, Note_on_c, 9, 42, 110
7, 43921, Note_on_c, 9, 42, 0
7, 43980, Note_on_c, 9, 42, 63
7, 43981, Note_on_c, 9, 42, 0
7, 44040, Note_on_c, 9, 38, 110
7, 44041, Note_on_c, 9, 38, 0
7, 44041, Note_on_c, 9, 42, 95
7, 44041, Note_on_c, 9, 42, 0
7, 44100, Note_on_c, 9, 42, 63
7, 44101, Note_on_c, 9, 42, 0
7, 44160, Note_on_c, 9, 36, 110
7, 44161, Note_on_c, 9, 36, 0
7, 44161, Note_on_c, 9, 42, 110
7, 44161, Note_on_c, 9, 42, 0
7, 44220, Note_on_c, 9, 42, 63
7, 44221, Note_on_c, 9, 42, 0
7, 44280, Note_on_c, 9, 38, 110
7, 44281, Note_on_c, 9, 38, 0
7, 44281, Note_on_c, 9, 42, 95
7, 44281, Note_on_c, 9, 42, 0
7, 44340, Note_on_c, 9, 42, 63
7, 44341, Note_on_c, 9, 42, 0
7, 44400, Note_on_c, 9, 36, 110
7, 44401, Note_on_c, 9, 36, 0
7, 44401, Note_on_c, 9, 42, 110
7, 44401, Note_on_c, 9, 42, 0
7, 44460, Note_on_c, 9, 42, 63
7, 44461, Note_on_c, 9, 42, 0
7, 44520, Note_on_c, 9, 38, 110
7, 44521, Note_on_c, 9, 38, 0
7, 44521, Note_on_c, 9, 42, 95
7, 44521, Note_on_c, 9, 42, 0
7, 44580, Note_on_c, 9, 36, 110
7, 44580, Note_on_c, 9, 42, 63
7, 44581, Note_on_c, 9, 42, 0
7, 44581, Note_on_c, 9, 36, 0
7, 44640, Note_on_c, 9, 36, 110
7, 44641, Note_on_c, 9, 36, 0
7, 44641, Note_on_c, 9, 42, 110
7, 44641, Note_on_c, 9, 42, 0
7, 44641, Note_on_c, 9, 49, 80
7, 44642, Note_on_c, 9, 49, 0
7, 44700, Note_on_c, 9, 42, 63
7, 44701, Note_on_c, 9, 42, 0
7, 44760, Note_on_c, 9, 38, 110
7, 44761, Note_on_c, 9, 38, 0
7, 44761, Note_on_c, 9, 42, 95
7, 44761, Note_on_c, 9, 42, 0
7, 44820, Note_on_c, 9, 42, 63
7, 44821, Note_on_c, 9, 42, 0
7, 44880, Note_on_c, 9, 36, 110
7, 44881, Note_on_c, 9, 36, 0
7, 44881, Note_on_c, 9, 42, 110
7, 44881, Note_on_c, 9, 42, 0
7, 44940, Note_on_c, 9, 42, 63
7, 44941, Note_on_c, 9, 42, 0
7, 45000, Note_on_c, 9, 38, 110
7, 45001, Note_on_c, 9, 38, 0
7, 45001, Note_on_c, 9, 42, 95
7, 45001, Note_on_c, 9, 42, 0
7, 45060, Note_on_c, 9, 42, 63
7, 45061, Note_on_c, 9, 42, 0
7, 45120, Note_on_c, 9, 36, 110
7, 45121, Note_on_c, 9, 36, 0
7, 45121, Note_on_c, 9, 42, 110
7, 45121, Note_on_c, 9, 42, 0
7, 45180, Note_on_c, 9, 42, 63
7, 45181, Note_on_c, 9, 42, 0
7, 45240, Note_on_c, 9, 38, 110
7, 45241, Note_on_c, 9, 38, 0
7, 45241, Note_on_c, 9, 42, 95
7, 45241, Note_on_c, 9, 42, 0
7, 45300, Note_on_c, 9, 42, 63
7, 45301, Note_on_c, 9, 42, 0
7, 45360, Note_on_c, 9, 36, 110
7, 45361, Note_on_c, 9, 36, 0
7, 45361, Note_on_c, 9, 42, 110
7, 45361, Note_on_c, 9, 42, 0
7, 45420, Note_on_c, 9, 42, 63
7, 45421, Note_on_c, 9, 42, 0
7, 45480, Note_on_c, 9, 38, 110
7, 45481, Note_on_c, 9, 38, 0
7, 45481, Note_on_c, 9, 42, 95
7, 45481, Note_on_c, 9, 42, 0
7, 45540, Note_on_c, 9, 36, 95
7, 45541, Note_on_c, 9, 36, 0
7, 45541, Note_on_c, 9, 42, 63
7, 45541, Note_on_c, 9, 42, 0
7, 45600, Note_on_c, 9, 36, 110
7, 45601, Note_on_c, 9, 36, 0
7, 45601, Note_on_c, 9, 42, 110
7, 45601, Note_on_c, 9, 42, 0
7, 45660, Note_on_c, 9, 42, 63
7, 45661, Note_on_c, 9, 42, 0
7, 45720, Note_on_c, 9, 38, 110
7, 45721, Note_on_c, 9, 38, 0
7, 45721, Note_on_c, 9, 42, 95
7, 45721, Note_on_c, 9, 42, 0
7, 45780, Note_on_c, 9, 42, 63
7, 45781, Note_on_c, 9, 42, 0
7, 45840, Note_on_c, 9, 36, 110
7, 45841, Note_on_c, 9, 36, 0
7, 45841, Note_on_c, 9, 42, 110
7, 45841, Note_on_c, 9, 42, 0
7, 45900, Note_on_c, 9, 42, 63
7, 45901, Note_on_c, 9, 42, 0
7, 45960, Note_on_c, 9, 38, 110
7, 45961, Note_on_c, 9, 38, 0
7, 45961, Note_on_c, 9, 42, 95
7, 45961, Note_on_c, 9, 42, 0
7, 46020, Note_on_c, 9, 42, 63
7, 46021, Note_on_c, 9, 42, 0
7, 46080, Note_on_c, 9, 36, 110
7, 46081, Note_on_c, 9, 36, 0
7, 46081, Note_on_c, 9, 42, 110
7, 46081, Note_on_c, 9, 42, 0
7, 46140, Note_on_c, 9, 42, 63
7, 46141, Note_on_c, 9, 42, 0
7, 46200, Note_on_c, 9, 38, 110
7, 46201, Note_on_c, 9, 38, 0
7, 46201, Note_on_c, 9, 42, 95
7, 46201, Note_on_c, 9, 42, 0
7, 46260, Note_on_c, 9, 42, 63
7, 46261, Note_on_c, 9, 42, 0
7, 46320, Note_on_c, 9, 36, 110
7, 46321, Note_on_c, 9, 36, 0
7, 46321, Note_on_c, 9, 42, 110
7, 46321, Note_on_c, 9, 42, 0
7, 46380, Note_on_c, 9, 38, 79
7, 46380, Note_on_c, 9, 42, 110
7, 46381, Note_on_c, 9, 42, 0
7, 46381, Note_on_c, 9, 38, 0
7, 46381, Note_on_c, 9, 47, 64
7, 46381, Note_on_c, 9, 47, 0
7, 46440, Note_on_c, 9, 38, 95
7, 46441, Note_on_c, 9, 38, 0
7, 46441, Note_on_c, 9, 42, 110
7, 46441, Note_on_c, 9, 42, 0
7, 46441, Note_on_c, 9, 47, 64
7, 46441, Note_on_c, 9, 47, 0
7, 46500, Note_on_c, 9, 38, 110
7, 46501, Note_on_c, 9, 38, 0
7, 46501, Note_on_c, 9, 42, 110
7, 46501, Note_on_c, 9, 42, 0
7, 46501, Note_on_c, 9, 47, 64
7, 46501, Note_on_c, 9, 47, 0
7, 46560, Note_on_c, 9, 36, 110
7, 46561, Note_on_c, 9, 36, 0
7, 46561, Note_on_c, 9, 42, 110
7, 46561, Note_on_c, 9, 42, 0
7, 46561, Note_on_c, 9, 49, 80
7, 46561, Note_on_c, 9, 49, 0
7, 46620, Note_on_c, 9, 42, 63
7, 46621, Note_on_c, 9, 42, 0
7, 46680, Note_on_c, 9, 38, 110
7, 46681, Note_on_c, 9, 38, 0
7, 46681, Note_on_c, 9, 42, 95
7, 46681, Note_on_c, 9, 42, 0
7, 46740, Note_on_c, 9, 42, 63
7, 46741, Note_on_c, 9, 42, 0
7, 46800, Note_on_c, 9, 36, 110
7, 46801, Note_on_c, 9, 36, 0
7, 46801, Note_on_c, 9, 42, 110
7, 46801, Note_on_c, 9, 42, 0
7, 46860, Note_on_c, 9, 42, 63
7, 46861, Note_on_c, 9, 42, 0
7, 46920, Note_on_c, 9, 38, 110
7, 46921, Note_on_c, 9, 38, 0
7, 46921, Note_on_c, 9, 42, 95
7, 46921, Note_on_c, 9, 42, 0
7, 46980, Note_on_c, 9, 42, 63
7, 46981, Note_on_c, 9, 42, 0
7, 47040, Note_on_c, 9, 36, 110
7, 47041, Note_on_c, 9, 36, 0
7, 47041, Note_on_c, 9, 42, 110
7, 47041, Note_on_c, 9, 42, 0
7, 47100, Note_on_c, 9, 42, 63
7, 47101, Note_on_c, 9, 42, 0
7, 47160, Note_on_c, 9, 38, 110
7, 47161, Note_on_c, 9, 38, 0
7, 47161, Note_on_c, 9, 42, 95
7, 47161, Note_on_c, 9, 42, 0
7, 47220, Note_on_c, 9, 42, 63
7, 47221, Note_on_c, 9, 42, 0
7, 47280, Note_on_c, 9, 36, 110
7, 47281, Note_on_c, 9, 36, 0
7, 47281, Note_on_c, 9, 42, 110
7, 47281, Note_on_c, 9, 42, 0
7, 47340, Note_on_c, 9, 42, 63
7, 47341, Note_on_c, 9, 42, 0
7, 47400, Note_on_c, 9, 38, 110
7, 47401, Note_on_c, 9, 38, 0
7, 47401, Note_on_c, 9, 42, 95
7, 47401, Note_on_c, 9, 42, 0
7, 47461, Note_on_c, 9, 36, 95
7, 47461, Note_on_c, 9, 36, 0
7, 47461, Note_on_c, 9, 42, 63
7, 47461, Note_on_c, 9, 42, 0
7, 47520, Note_on_c, 9, 36, 110
7, 47520, Note_on_c, 9, 42, 110
7, 47521, Note_on_c, 9, 42, 0
7, 47521, Note_on_c, 9, 36, 0
7, 47580, Note_on_c, 9, 42, 63
7, 47581, Note_on_c, 9, 42, 0
7, 47640, Note_on_c, 9, 38, 110
7, 47641, Note_on_c, 9, 38, 0
7, 47641, Note_on_c, 9, 42, 95
7, 47641, Note_on_c, 9, 42, 0
7, 47700, Note_on_c, 9, 42, 63
7, 47701, Note_on_c, 9, 42, 0
7, 47760, Note_on_c, 9, 36, 110
7, 47761, Note_on_c, 9, 36, 0
7, 47761, Note_on_c, 9, 42, 110
7, 47761, Note_on_c, 9, 42, 0
7, 47820, Note_on_c, 9, 42, 63
7, 47821, Note_on_c, 9, 42, 0
7, 47880, Note_on_c, 9, 38, 110
7, 47880, Note_on_c, 9, 42, 95
7, 47881, Note_on_c, 9, 42, 0
7, 47881, Note_on_c, 9, 38, 0
7, 47941, Note_on_c, 9, 42, 63
7, 47941, Note_on_c, 9, 42, 0
7, 48000, Note_on_c, 9, 36, 110
7, 48001, Note_on_c, 9, 36, 0
7, 48001, Note_on_c, 9, 42, 110
7, 48001, Note_on_c, 9, 42, 0
7, 48060, Note_on_c, 9, 42, 63
7, 48061, Note_on_c, 9, 42, 0
7, 48120, Note_on_c, 9, 38, 110
7, 48121, Note_on_c, 9, 38, 0
7, 48121, Note_on_c, 9, 42, 95
7, 48121, Note_on_c, 9, 42, 0
7, 48180, Note_on_c, 9, 42, 63
7, 48181, Note_on_c, 9, 42, 0
7, 48240, Note_on_c, 9, 36, 110
7, 48240, Note_on_c, 9, 42, 110
7, 48241, Note_on_c, 9, 42, 0
7, 48241, Note_on_c, 9, 36, 0
7, 48300, Note_on_c, 9, 42, 63
7, 48301, Note_on_c, 9, 42, 0
7, 48360, Note_on_c, 9, 38, 110
7, 48361, Note_on_c, 9, 38, 0
7, 48361, Note_on_c, 9, 42, 95
7, 48361, Note_on_c, 9, 42, 0
7, 48421, Note_on_c, 9, 36, 110
7, 48421, Note_on_c, 9, 36, 0
7, 48421, Note_on_c, 9, 42, 63
7, 48421, Note_on_c, 9, 42, 0
7, 48480, Note_on_c, 9, 36, 110
7, 48481, Note_on_c, 9, 36, 0
7, 48481, Note_on_c, 9, 42, 110
7, 48481, Note_on_c, 9, 42, 0
7, 48481, Note_on_c, 9, 49, 80
7, 48481, Note_on_c, 9, 49, 0
7, 48540, Note_on_c, 9, 42, 63
7, 48541, Note_on_c, 9, 42, 0
7, 48600, Note_on_c, 9, 38, 110
7, 48601, Note_on_c, 9, 38, 0
7, 48601, Note_on_c, 9, 42, 95
7, 48601, Note_on_c, 9, 42, 0
7, 48660, Note_on_c, 9, 42, 63
7, 48661, Note_on_c, 9, 42, 0
7, 48720, Note_on_c, 9, 36, 110
7, 48721, Note_on_c, 9, 36, 0
7, 48721, Note_on_c, 9, 42, 110
7, 48721, Note_on_c, 9, 42, 0
7, 48780, Note_on_c, 9, 42, 63
7, 48781, Note_on_c, 9, 42, 0
7, 48840, Note_on_c, 9, 38, 110
7, 48841, Note_on_c, 9, 38, 0
7, 48841, Note_on_c, 9, 42, 95
7, 48841, Note_on_c, 9, 42, 0
7, 48901, Note_on_c, 9, 42, 63
7, 48901, Note_on_c, 9, 42, 0
7, 48960, Note_on_c, 9, 36, 110
7, 48960, Note_on_c, 9, 42, 110
7, 48961, Note_on_c, 9, 42, 0
7, 48961, Note_on_c, 9, 36, 0
7, 49020, Note_on_c, 9, 42, 63
7, 49021, Note_on_c, 9, 42, 0
7, 49080, Note_on_c, 9, 38, 110
7, 49081, Note_on_c, 9, 38, 0
7, 49081, Note_on_c, 9, 42, 95
7, 49081, Note_on_c, 9, 42, 0
7, 49140, Note_on_c, 9, 42, 63
7, 49141, Note_on_c, 9, 42, 0
7, 49200, Note_on_c, 9, 36, 110
7, 49201, Note_on_c, 9, 36, 0
7, 49201, Note_on_c, 9, 42, 110
7, 49201, Note_on_c, 9, 42, 0
7, 49260, Note_on_c, 9, 42, 63
7, 49261, Note_on_c, 9, 42, 0
7, 49320, Note_on_c, 9, 38, 110
7, 49320, Note_on_c, 9, 42, 95
7, 49321, Note_on_c, 9, 42, 0
7, 49321, Note_on_c, 9, 38, 0
7, 49381, Note_on_c, 9, 36, 95
7, 49381, Note_on_c, 9, 36, 0
7, 49381, Note_on_c, 9, 42, 63
7, 49381, Note_on_c, 9, 42, 0
7, 49440, Note_on_c, 9, 36, 110
7, 49441, Note_on_c, 9, 36, 0
7, 49441, Note_on_c, 9, 42, 110
7, 49441, Note_on_c, 9, 42, 0
7, 49441, Note_on_c, 9, 49, 80
7, 49441, Note_on_c, 9, 49, 0
7, 49500, Note_on_c, 9, 42, 63
7, 49501, Note_on_c, 9, 42, 0
7, 49560, Note_on_c, 9, 38, 110
7, 49561, Note_on_c, 9, 38, 0
7, 49561, Note_on_c, 9, 42, 95
7, 49561, Note_on_c, 9, 42, 0
7, 49620, Note_on_c, 9, 42, 63
7, 49621, Note_on_c, 9, 42, 0
7, 49680, Note_on_c, 9, 36, 110
7, 49680, Note_on_c, 9, 42, 110
7, 49681, Note_on_c, 9, 42, 0
7, 49681, Note_on_c, 9, 36, 0
7, 49740, Note_on_c, 9, 42, 63
7, 49741, Note_on_c, 9, 42, 0
7, 49800, Note_on_c, 9, 38, 110
7, 49801, Note_on_c, 9, 38, 0
7, 49801, Note_on_c, 9, 42, 95
7, 49801, Note_on_c, 9, 42, 0
7, 49860, Note_on_c, 9, 42, 63
7, 49861, Note_on_c, 9, 42, 0
7, 49920, Note_on_c, 9, 36, 110
7, 49921, Note_on_c, 9, 36, 0
7, 49921, Note_on_c, 9, 42, 110
7, 49921, Note_on_c, 9, 42, 0
7, 49980, Note_on_c, 9, 42, 63
7, 49981, Note_on_c, 9, 42, 0
7, 50040, Note_on_c, 9, 38, 110
7, 50040, Note_on_c, 9, 42, 95
7, 50041, Note_on_c, 9, 42, 0
7, 50041, Note_on_c, 9, 38, 0
7, 50100, Note_on_c, 9, 42, 63
7, 50101, Note_on_c, 9, 42, 0
7, 50160, Note_on_c, 9, 36, 110
7, 50161, Note_on_c, 9, 36, 0
7, 50161, Note_on_c, 9, 38, 63
7, 50161, Note_on_c, 9, 38, 0
7, 50161, Note_on_c, 9, 43, 95
7, 50161, Note_on_c, 9, 43, 0
7, 50220, Note_on_c, 9, 38, 79
7, 50221, Note_on_c, 9, 38, 0
7, 50221, Note_on_c, 9, 43, 110
7, 50221, Note_on_c, 9, 43, 0
7, 50280, Note_on_c, 9, 38, 110
7, 50281, Note_on_c, 9, 38, 0
7, 50285, Note_on_c, 9, 38, 110
7, 50286, Note_on_c, 9, 38, 0
7, 50340, Note_on_c, 9, 36, 95
7, 50341, Note_on_c, 9, 36, 0
7, 50341, Note_on_c, 9, 49, 80
7, 50341, Note_on_c, 9, 49, 0
7, 50400, Note_on_c, 9, 36, 110
7, 50400, Note_on_c, 9, 42, 110
7, 50401, Note_on_c, 9, 42, 0
7, 50401, Note_on_c, 9, 36, 0
7, 50401, Note_on_c, 9, 49, 80
7, 50401, Note_on_c, 9, 49, 0
7, 50460, Note_on_c, 9, 42, 63
7, 50461, Note_on_c, 9, 42, 0
7, 50520, Note_on_c, 9, 38, 110
7, 50521, Note_on_c, 9, 38, 0
7, 50521, Note_on_c, 9, 42, 95
7, 50521, Note_on_c, 9, 42, 0
7, 50580, Note_on_c, 9, 42, 63
7, 50581, Note_on_c, 9, 42, 0
7, 50640, Note_on_c, 9, 36, 110
7, 50641, Note_on_c, 9, 36, 0
7, 50641, Note_on_c, 9, 42, 110
7, 50641, Note_on_c, 9, 42, 0
7, 50700, Note_on_c, 9, 42, 63
7, 50701, Note_on_c, 9, 42, 0
7, 50760, Note_on_c, 9, 38, 110
7, 50761, Note_on_c, 9, 38, 0
7, 50761, Note_on_c, 9, 42, 95
7, 50761, Note_on_c, 9, 42, 0
7, 50820, Note_on_c, 9, 42, 63
7, 50821, Note_on_c, 9, 42, 0
7, 50880, Note_on_c, 9, 36, 110
7, 50881, Note_on_c, 9, 36, 0
7, 50881, Note_on_c, 9, 42, 110
7, 50881, Note_on_c, 9, 42, 0
7, 50940, Note_on_c, 9, 42, 63
7, 50941, Note_on_c, 9, 42, 0
7, 51000, Note_on_c, 9, 38, 110
7, 51001, Note_on_c, 9, 38, 0
7, 51001, Note_on_c, 9, 42, 95
7, 51001, Note_on_c, 9, 42, 0
7, 51060, Note_on_c, 9, 42, 63
7, 51061, Note_on_c, 9, 42, 0
7, 51120, Note_on_c, 9, 36, 110
7, 51120, Note_on_c, 9, 42, 110
7, 51121, Note_on_c, 9, 42, 0
7, 51121, Note_on_c, 9, 36, 0
7, 51180, Note_on_c, 9, 42, 63
7, 51181, Note_on_c, 9, 42, 0
7, 51240, Note_on_c, 9, 38, 110
7, 51241, Note_on_c, 9, 38, 0
7, 51241, Note_on_c, 9, 42, 95
7, 51241, Note_on_c, 9, 42, 0
7, 51300, Note_on_c, 9, 36, 95
7, 51301, Note_on_c, 9, 36, 0
7, 51301, Note_on_c, 9, 42, 63
7, 51301, Note_on_c, 9, 42, 0
7, 51360, Note_on_c, 9, 36, 110
7, 51361, Note_on_c, 9, 36, 0
7, 51361, Note_on_c, 9, 42, 110
7, 51361, Note_on_c, 9, 42, 0
7, 51420, Note_on_c, 9, 42, 63
7, 51421, Note_on_c, 9, 42, 0
7, 51480, Note_on_c, 9, 38, 110
7, 51480, Note_on_c, 9, 42, 95
7, 51481, Note_on_c, 9, 42, 0
7, 51481, Note_on_c, 9, 38, 0
7, 51540, Note_on_c, 9, 42, 63
7, 51541, Note_on_c, 9, 42, 0
7, 51600, Note_on_c, 9, 36, 110
7, 51601, Note_on_c, 9, 36, 0
7, 51601, Note_on_c, 9, 42, 110
7, 51601, Note_on_c, 9, 42, 0
7, 51660, Note_on_c, 9, 42, 63
7, 51661, Note_on_c, 9, 42, 0
7, 51720, Note_on_c, 9, 38, 110
7, 51721, Note_on_c, 9, 38, 0
7, 51721, Note_on_c, 9, 42, 95
7, 51721, Note_on_c, 9, 42, 0
7, 51780, Note_on_c, 9, 42, 63
7, 51781, Note_on_c, 9, 42, 0
7, 51840, Note_on_c, 9, 36, 110
7, 51840, Note_on_c, 9, 42, 110
7, 51841, Note_on_c, 9, 42, 0
7, 51841, Note_on_c, 9, 36, 0
7, 51900, Note_on_c, 9, 42, 63
7, 51901, Note_on_c, 9, 42, 0
7, 51960, Note_on_c, 9, 38, 110
7, 51961, Note_on_c, 9, 38, 0
7, 51961, Note_on_c, 9, 42, 95
7, 51961, Note_on_c, 9, 42, 0
7, 52020, Note_on_c, 9, 42, 63
7, 52021, Note_on_c, 9, 42, 0
7, 52080, Note_on_c, 9, 36, 110
7, 52081, Note_on_c, 9, 36, 0
7, 52081, Note_on_c, 9, 42, 110
7, 52081, Note_on_c, 9, 42, 0
7, 52140, Note_on_c, 9, 42, 63
7, 52141, Note_on_c, 9, 42, 0
7, 52200, Note_on_c, 9, 38, 110
7, 52200, Note_on_c, 9, 42, 95
7, 52201, Note_on_c, 9, 42, 0
7, 52201, Note_on_c, 9, 38, 0
7, 52260, Note_on_c, 9, 36, 110
7, 52261, Note_on_c, 9, 36, 0
7, 52261, Note_on_c, 9, 42, 63
7, 52261, Note_on_c, 9, 42, 0
7, 52320, Note_on_c, 9, 36, 110
7, 52321, Note_on_c, 9, 36, 0
7, 52321, Note_on_c, 9, 42, 110
7, 52321, Note_on_c, 9, 42, 0
7, 52321, Note_on_c, 9, 49, 80
7, 52321, Note_on_c, 9, 49, 0
7, 52380, Note_on_c, 9, 42, 63
7, 52381, Note_on_c, 9, 42, 0
7, 52440, Note_on_c, 9, 38, 110
7, 52441, Note_on_c, 9, 38, 0
7, 52441, Note_on_c, 9, 42, 95
7, 52441, Note_on_c, 9, 42, 0
7, 52500, Note_on_c, 9, 42, 63
7, 52501, Note_on_c, 9, 42, 0
7, 52560, Note_on_c, 9, 36, 110
7, 52560, Note_on_c, 9, 42, 110
7, 52561, Note_on_c, 9, 42, 0
7, 52561, Note_on_c, 9, 36, 0
7, 52620, Note_on_c, 9, 42, 63
7, 52621, Note_on_c, 9, 42, 0
7, 52680, Note_on_c, 9, 38, 110
7, 52681, Note_on_c, 9, 38, 0
7, 52681, Note_on_c, 9, 42, 95
7, 52681, Note_on_c, 9, 42, 0
7, 52740, Note_on_c, 9, 42, 63
7, 52741, Note_on_c, 9, 42, 0
7, 52800, Note_on_c, 9, 36, 110
7, 52801, Note_on_c, 9, 36, 0
7, 52801, Note_on_c, 9, 42, 110
7, 52801, Note_on_c, 9, 42, 0
7, 52860, Note_on_c, 9, 42, 63
7, 52861, Note_on_c, 9, 42, 0
7, 52920, Note_on_c, 9, 38, 110
7, 52921, Note_on_c, 9, 38, 0
7, 52921, Note_on_c, 9, 42, 95
7, 52921, Note_on_c, 9, 42, 0
7, 52980, Note_on_c, 9, 42, 63
7, 52981, Note_on_c, 9, 42, 0
7, 53040, Note_on_c, 9, 36, 110
7, 53041, Note_on_c, 9, 36, 0
7, 53041, Note_on_c, 9, 42, 110
7, 53041, Note_on_c, 9, 42, 0
7, 53100, Note_on_c, 9, 42, 63
7, 53101, Note_on_c, 9, 42, 0
7, 53160, Note_on_c, 9, 38, 110
7, 53161, Note_on_c, 9, 38, 0
7, 53161, Note_on_c, 9, 42, 95
7, 53161, Note_on_c, 9, 42, 0
7, 53220, Note_on_c, 9, 36, 95
7, 53221, Note_on_c, 9, 36, 0
7, 53221, Note_on_c, 9, 42, 63
7, 53221, Note_on_c, 9, 42, 0
7, 53280, Note_on_c, 9, 36, 110
7, 53280, Note_on_c, 9, 42, 110
7, 53281, Note_on_c, 9, 42, 0
7, 53281, Note_on_c, 9, 36, 0
7, 53281, Note_on_c, 9, 49, 80
7, 53281, Note_on_c, 9, 49, 0
7, 53340, Note_on_c, 9, 42, 63
7, 53341, Note_on_c, 9, 42, 0
7, 53400, Note_on_c, 9, 38, 110
7, 53401, Note_on_c, 9, 38, 0
7, 53401, Note_on_c, 9, 42, 95
7, 53401, Note_on_c, 9, 42, 0
7, 53460, Note_on_c, 9, 42, 63
7, 53461, Note_on_c, 9, 42, 0
7, 53520, Note_on_c, 9, 36, 110
7, 53521, Note_on_c, 9, 36, 0
7, 53521, Note_on_c, 9, 42, 110
7, 53521, Note_on_c, 9, 42, 0
7, 53580, Note_on_c, 9, 42, 63
7, 53581, Note_on_c, 9, 42, 0
7, 53640, Note_on_c, 9, 38, 110
7, 53640, Note_on_c, 9, 42, 95
7, 53641, Note_on_c, 9, 42, 0
7, 53641, Note_on_c, 9, 38, 0
7, 53700, Note_on_c, 9, 42, 63
7, 53701, Note_on_c, 9, 42, 0
7, 53760, Note_on_c, 9, 36, 110
7, 53761, Note_on_c, 9, 36, 0
7, 53761, Note_on_c, 9, 42, 110
7, 53761, Note_on_c, 9, 42, 0
7, 53820, Note_on_c, 9, 42, 63
7, 53821, Note_on_c, 9, 42, 0
7, 53880, Note_on_c, 9, 38, 110
7, 53881, Note_on_c, 9, 38, 0
7, 53881, Note_on_c, 9, 42, 95
7, 53881, Note_on_c, 9, 42, 0
7, 53940, Note_on_c, 9, 42, 63
7, 53941, Note_on_c, 9, 42, 0
7, 54001, Note_on_c, 9, 36, 110
7, 54001, Note_on_c, 9, 36, 0
7, 54001, Note_on_c, 9, 38, 63
7, 54001, Note_on_c, 9, 38, 0
7, 54001, Note_on_c, 9, 43, 95
7, 54001, Note_on_c, 9, 43, 0
7, 54060, Note_on_c, 9, 38, 79
7, 54061, Note_on_c, 9, 38, 0
7, 54061, Note_on_c, 9, 43, 110
7, 54061, Note_on_c, 9, 43, 0
7, 54120, Note_on_c, 9, 38, 110
7, 54121, Note_on_c, 9, 38, 0
7, 54125, Note_on_c, 9, 38, 110
7, 54126, Note_on_c, 9, 38, 0
7, 54180, Note_on_c, 9, 36, 95
7, 54181, Note_on_c, 9, 36, 0
7, 54181, Note_on_c, 9, 49, 80
7, 54181, Note_on_c, 9, 49, 0
7, 54240, Note_on_c, 9, 36, 110
7, 54241, Note_on_c, 9, 36, 0
7, 54241, Note_on_c, 9, 42, 110
7, 54241, Note_on_c, 9, 42, 0
7, 54241, Note_on_c, 9, 49, 80
7, 54241, Note_on_c, 9, 49, 0
7, 54300, Note_on_c, 9, 42, 63
7, 54301, Note_on_c, 9, 42, 0
7, 54360, Note_on_c, 9, 38, 110
7, 54360, Note_on_c, 9, 42, 95
7, 54361, Note_on_c, 9, 42, 0
7, 54361, Note_on_c, 9, 38, 0
7, 54420, Note_on_c, 9, 42, 63
7, 54421, Note_on_c, 9, 42, 0
7, 54480, Note_on_c, 9, 36, 110
7, 54481, Note_on_c, 9, 36, 0
7, 54481, Note_on_c, 9, 42, 110
7, 54481, Note_on_c, 9, 42, 0
7, 54540, Note_on_c, 9, 42, 63
7, 54541, Note_on_c, 9, 42, 0
7, 54600, Note_on_c, 9, 38, 110
7, 54601, Note_on_c, 9, 38, 0
7, 54601, Note_on_c, 9, 42, 95
7, 54601, Note_on_c, 9, 42, 0
7, 54660, Note_on_c, 9, 42, 63
7, 54661, Note_on_c, 9, 42, 0
7, 54720, Note_on_c, 9, 36, 110
7, 54720, Note_on_c, 9, 42, 110
7, 54721, Note_on_c, 9, 42, 0
7, 54721, Note_on_c, 9, 36, 0
7, 54780, Note_on_c, 9, 42, 63
7, 54781, Note_on_c, 9, 42, 0
7, 54840, Note_on_c, 9, 38, 110
7, 54841, Note_on_c, 9, 38, 0
7, 54841, Note_on_c, 9, 42, 95
7, 54841, Note_on_c, 9, 42, 0
7, 54900, Note_on_c, 9, 42, 63
7, 54901, Note_on_c, 9, 42, 0
7, 54960, Note_on_c, 9, 36, 110
7, 54961, Note_on_c, 9, 36, 0
7, 54961, Note_on_c, 9, 42, 110
7, 54961, Note_on_c, 9, 42, 0
7, 55020, Note_on_c, 9, 42, 63
7, 55021, Note_on_c, 9, 42, 0
7, 55080, Note_on_c, 9, 38, 110
7, 55080, Note_on_c, 9, 42, 95
7, 55081, Note_on_c, 9, 42, 0
7, 55081, Note_on_c, 9, 38, 0
7, 55140, Note_on_c, 9, 42, 63
7, 55141, Note_on_c, 9, 42, 0
7, 55200, Note_on_c, 9, 36, 110
7, 55201, Note_on_c, 9, 36, 0
7, 55201, Note_on_c, 9, 42, 110
7, 55201, Note_on_c, 9, 42, 0
7, 55260, Note_on_c, 9, 42, 63
7, 55261, Note_on_c, 9, 42, 0
7, 55320, Note_on_c, 9, 38, 110
7, 55321, Note_on_c, 9, 38, 0
7, 55321, Note_on_c, 9, 42, 95
7, 55321, Note_on_c, 9, 42, 0
7, 55380, Note_on_c, 9, 42, 63
7, 55381, Note_on_c, 9, 42, 0
7, 55440, Note_on_c, 9, 36, 110
7, 55441, Note_on_c, 9, 36, 0
7, 55441, Note_on_c, 9, 42, 110
7, 55441, Note_on_c, 9, 42, 0
7, 55500, Note_on_c, 9, 42, 63
7, 55501, Note_on_c, 9, 42, 0
7, 55560, Note_on_c, 9, 38, 110
7, 55561, Note_on_c, 9, 38, 0
7, 55561, Note_on_c, 9, 42, 95
7, 55561, Note_on_c, 9, 42, 0
7, 55620, Note_on_c, 9, 42, 63
7, 55621, Note_on_c, 9, 42, 0
7, 55680, Note_on_c, 9, 36, 110
7, 55681, Note_on_c, 9, 36, 0
7, 55681, Note_on_c, 9, 42, 110
7, 55681, Note_on_c, 9, 42, 0
7, 55740, Note_on_c, 9, 42, 63
7, 55741, Note_on_c, 9, 42, 0
7, 55800, Note_on_c, 9, 38, 110
7, 55800, Note_on_c, 9, 42, 95
7, 55801, Note_on_c, 9, 42, 0
7, 55801, Note_on_c, 9, 38, 0
7, 55860, Note_on_c, 9, 42, 63
7, 55861, Note_on_c, 9, 42, 0
7, 55920, Note_on_c, 9, 36, 110
7, 55921, Note_on_c, 9, 36, 0
7, 55921, Note_on_c, 9, 42, 110
7, 55921, Note_on_c, 9, 42, 0
7, 55980, Note_on_c, 9, 42, 63
7, 55981, Note_on_c, 9, 42, 0
7, 56040, Note_on_c, 9, 38, 110
7, 56041, Note_on_c, 9, 38, 0
7, 56041, Note_on_c, 9, 42, 95
7, 56041, Note_on_c, 9, 42, 0
7, 56101, Note_on_c, 9, 42, 63
7, 56101, Note_on_c, 9, 42, 0
7, 56160, Note_on_c, 9, 36, 110
7, 56160, Note_on_c, 9, 42, 110
7, 56161, Note_on_c, 9, 42, 0
7, 56161, Note_on_c, 9, 36, 0
7, 56220, Note_on_c, 9, 42, 63
7, 56221, Note_on_c, 9, 42, 0
7, 56280, Note_on_c, 9, 38, 110
7, 56281, Note_on_c, 9, 38, 0
7, 56281, Note_on_c, 9, 42, 95
7, 56281, Note_on_c, 9, 42, 0
7, 56340, Note_on_c, 9, 42, 63
7, 56341, Note_on_c, 9, 42, 0
7, 56400, Note_on_c, 9, 36, 110
7, 56401, Note_on_c, 9, 36, 0
7, 56401, Note_on_c, 9, 42, 110
7, 56401, Note_on_c, 9, 42, 0
7, 56460, Note_on_c, 9, 42, 63
7, 56461, Note_on_c, 9, 42, 0
7, 56520, Note_on_c, 9, 38, 110
7, 56520, Note_on_c, 9, 42, 95
7, 56521, Note_on_c, 9, 42, 0
7, 56521, Note_on_c, 9, 38, 0
7, 56580, Note_on_c, 9, 42, 63
7, 56581, Note_on_c, 9, 42, 0
7, 56640, Note_on_c, 9, 36, 110
7, 56641, Note_on_c, 9, 36, 0
7, 56641, Note_on_c, 9, 42, 110
7, 56641, Note_on_c, 9, 42, 0
7, 56700, Note_on_c, 9, 42, 63
7, 56701, Note_on_c, 9, 42, 0
7, 56760, Note_on_c, 9, 38, 110
7, 56761, Note_on_c, 9, 38, 0
7, 56761, Note_on_c, 9, 42, 95
7, 56761, Note_on_c, 9, 42, 0
7, 56820, Note_on_c, 9, 42, 63
7, 56821, Note_on_c, 9, 42, 0
7, 56880, Note_on_c, 9, 36, 110
7, 56880, Note_on_c, 9, 42, 110
7, 56881, Note_on_c, 9, 42, 0
7, 56881, Note_on_c, 9, 36, 0
7, 56940, Note_on_c, 9, 42, 63
7, 56941, Note_on_c, 9, 42, 0
7, 57000, Note_on_c, 9, 38, 110
7, 57001, Note_on_c, 9, 38, 0
7, 57001, Note_on_c, 9, 42, 95
7, 57001, Note_on_c, 9, 42, 0
7, 57060, Note_on_c, 9, 36, 110
7, 57061, Note_on_c, 9, 36, 0
7, 57061, Note_on_c, 9, 42, 63
7, 57061, Note_on_c, 9, 42, 0
7, 57120, Note_on_c, 9, 36, 110
7, 57121, Note_on_c, 9, 36, 0
7, 57121, Note_on_c, 9, 42, 110
7, 57121, Note_on_c, 9, 42, 0
7, 57180, Note_on_c, 9, 42, 63
7, 57181, Note_on_c, 9, 42, 0
7, 57240, Note_on_c, 9, 38, 110
7, 57240, Note_on_c, 9, 42, 95
7, 57241, Note_on_c, 9, 42, 0
7, 57241, Note_on_c, 9, 38, 0
7, 57300, Note_on_c, 9, 42, 63
7, 57301, Note_on_c, 9, 42, 0
7, 57360, Note_on_c, 9, 36, 110
7, 57361, Note_on_c, 9, 36, 0
7, 57361, Note_on_c, 9, 42, 110
7, 57361, Note_on_c, 9, 42, 0
7, 57420, Note_on_c, 9, 42, 63
7, 57421, Note_on_c, 9, 42, 0
7, 57480, Note_on_c, 9, 38, 110
7, 57481, Note_on_c, 9, 38, 0
7, 57481, Note_on_c, 9, 42, 95
7, 57481, Note_on_c, 9, 42, 0
7, 57540, Note_on_c, 9, 42, 63
7, 57541, Note_on_c, 9, 42, 0
7, 57600, Note_on_c, 9, 36, 110
7, 57600, Note_on_c, 9, 42, 110
7, 57601, Note_on_c, 9, 42, 0
7, 57601, Note_on_c, 9, 36, 0
7, 57660, Note_on_c, 9, 42, 63
7, 57661, Note_on_c, 9, 42, 0
7, 57720, Note_on_c, 9, 38, 110
7, 57721, Note_on_c, 9, 38, 0
7, 57721, Note_on_c, 9, 42, 95
7, 57721, Note_on_c, 9, 42, 0
7, 57780, Note_on_c, 9, 42, 63
7, 57781, Note_on_c, 9, 42, 0
7, 57840, Note_on_c, 9, 36, 110
7, 57841, Note_on_c, 9, 36, 0
7, 57841, Note_on_c, 9, 42, 110
7, 57841, Note_on_c, 9, 42, 0
7, 57900, Note_on_c, 9, 38, 79
7, 57901, Note_on_c, 9, 38, 0
7, 57901, Note_on_c, 9, 42, 110
7, 57901, Note_on_c, 9, 42, 0
7, 57901, Note_on_c, 9, 47, 64
7, 57902, Note_on_c, 9, 47, 0
7, 57960, Note_on_c, 9, 38, 95
7, 57961, Note_on_c, 9, 38, 0
7, 57961, Note_on_c, 9, 42, 110
7, 57961, Note_on_c, 9, 42, 0
7, 57961, Note_on_c, 9, 47, 64
7, 57961, Note_on_c, 9, 47, 0
7, 58020, Note_on_c, 9, 38, 110
7, 58020, Note_on_c, 9, 42, 110
7, 58021, Note_on_c, 9, 42, 0
7, 58021, Note_on_c, 9, 38, 0
7, 58021, Note_on_c, 9, 47, 64
7, 58021, Note_on_c, 9, 47, 0
7, 58080, Note_on_c, 9, 36, 110
7, 58081, Note_on_c, 9, 36, 0
7, 58081, Note_on_c, 9, 42, 110
7, 58081, Note_on_c, 9, 42, 0
7, 58081, Note_on_c, 9, 49, 80
7, 58081, Note_on_c, 9, 49, 0
7, 58140, Note_on_c, 9, 42, 63
7, 58141, Note_on_c, 9, 42, 0
7, 58200, Note_on_c, 9, 38, 110
7, 58201, Note_on_c, 9, 38, 0
7, 58201, Note_on_c, 9, 42, 95
7, 58201, Note_on_c, 9, 42, 0
7, 58260, Note_on_c, 9, 42, 63
7, 58261, Note_on_c, 9, 42, 0
7, 58320, Note_on_c, 9, 36, 110
7, 58320, Note_on_c, 9, 42, 110
7, 58321, Note_on_c, 9, 42, 0
7, 58321, Note_on_c, 9, 36, 0
7, 58380, Note_on_c, 9, 42, 63
7, 58381, Note_on_c, 9, 42, 0
7, 58440, Note_on_c, 9, 38, 110
7, 58441, Note_on_c, 9, 38, 0
7, 58441, Note_on_c, 9, 42, 95
7, 58441, Note_on_c, 9, 42, 0
7, 58500, Note_on_c, 9, 42, 63
7, 58501, Note_on_c, 9, 42, 0
7, 58560, Note_on_c, 9, 36, 110
7, 58561, Note_on_c, 9, 36, 0
7, 58561, Note_on_c, 9, 42, 110
7, 58561, Note_on_c, 9, 42, 0
7, 58620, Note_on_c, 9, 42, 63
7, 58621, Note_on_c, 9, 42, 0
7, 58680, Note_on_c, 9, 38, 110
7, 58680, Note_on_c, 9, 42, 95
7, 58681, Note_on_c, 9, 42, 0
7, 58681, Note_on_c, 9, 38, 0
7, 58740, Note_on_c, 9, 42, 63
7, 58741, Note_on_c, 9, 42, 0
7, 58800, Note_on_c, 9, 36, 110
7, 58801, Note_on_c, 9, 36, 0
7, 58801, Note_on_c, 9, 42, 110
7, 58801, Note_on_c, 9, 42, 0
7, 58860, Note_on_c, 9, 42, 63
7, 58861, Note_on_c, 9, 42, 0
7, 58920, Note_on_c, 9, 38, 110
7, 58921, Note_on_c, 9, 38, 0
7, 58921, Note_on_c, 9, 42, 95
7, 58921, Note_on_c, 9, 42, 0
7, 58980, Note_on_c, 9, 42, 63
7, 58981, Note_on_c, 9, 42, 0
7, 59040, Note_on_c, 9, 36, 110
7, 59040, Note_on_c, 9, 42, 110
7, 59041, Note_on_c, 9, 42, 0
7, 59041, Note_on_c, 9, 36, 0
7, 59100, Note_on_c, 9, 42, 63
7, 59101, Note_on_c, 9, 42, 0
7, 59160, Note_on_c, 9, 38, 110
7, 59161, Note_on_c, 9, 38, 0
7, 59161, Note_on_c, 9, 42, 95
7, 59161, Note_on_c, 9, 42, 0
7, 59220, Note_on_c, 9, 42, 63
7, 59221, Note_on_c, 9, 42, 0
7, 59280, Note_on_c, 9, 36, 110
7, 59281, Note_on_c, 9, 36, 0
7, 59281, Note_on_c, 9, 42, 110
7, 59281, Note_on_c, 9, 42, 0
7, 59340, Note_on_c, 9, 42, 63
7, 59341, Note_on_c, 9, 42, 0
7, 59400, Note_on_c, 9, 38, 110
7, 59400, Note_on_c, 9, 42, 95
7, 59401, Note_on_c, 9, 42, 0
7, 59401, Note_on_c, 9, 38, 0
7, 59460, Note_on_c, 9, 42, 63
7, 59461, Note_on_c, 9, 42, 0
7, 59520, Note_on_c, 9, 36, 110
7, 59521, Note_on_c, 9, 36, 0
7, 59521, Note_on_c, 9, 42, 110
7, 59521, Note_on_c, 9, 42, 0
7, 59580, Note_on_c, 9, 42, 63
7, 59581, Note_on_c, 9, 42, 0
7, 59640, Note_on_c, 9, 38, 110
7, 59641, Note_on_c, 9, 38, 0
7, 59641, Note_on_c, 9, 42, 95
7, 59641, Note_on_c, 9, 42, 0
7, 59700, Note_on_c, 9, 42, 63
7, 59701, Note_on_c, 9, 42, 0
7, 59760, Note_on_c, 9, 36, 110
7, 59760, Note_on_c, 9, 42, 110
7, 59761, Note_on_c, 9, 42, 0
7, 59761, Note_on_c, 9, 36, 0
7, 59820, Note_on_c, 9, 42, 63
7, 59821, Note_on_c, 9, 42, 0
7, 59880, Note_on_c, 9, 38, 110
7, 59881, Note_on_c, 9, 38, 0
7, 59881, Note_on_c, 9, 42, 95
7, 59881, Note_on_c, 9, 42, 0
7, 59940, Note_on_c, 9, 42, 63
7, 59941, Note_on_c, 9, 42, 0
7, 60000, Note_on_c, 9, 36, 110
7, 60000, Note_on_c, 9, 42, 110
7, 60000, Note_on_c, 9, 49, 80
7, 60001, Note_on_c, 9, 49, 0
7, 60001, Note_on_c, 9, 42, 0
7, 60001, Note_on_c, 9, 36, 0
7, 60060, Note_on_c, 9, 42, 63
7, 60061, Note_on_c, 9, 42, 0
7, 60120, Note_on_c, 9, 38, 110
7, 60120, Note_on_c, 9, 42, 95
7, 60121, Note_on_c, 9, 42, 0
7, 60121, Note_on_c, 9, 38, 0
7, 60180, Note_on_c, 9, 42, 63
7, 60181, Note_on_c, 9, 42, 0
7, 60240, Note_on_c, 9, 36, 110
7, 60241, Note_on_c, 9, 36, 0
7, 60241, Note_on_c, 9, 42, 110
7, 60241, Note_on_c, 9, 42, 0
7, 60300, Note_on_c, 9, 42, 63
7, 60301, Note_on_c, 9, 42, 0
7, 60360, Note_on_c, 9, 38, 110
7, 60361, Note_on_c, 9, 38, 0
7, 60361, Note_on_c, 9, 42, 95
7, 60361, Note_on_c, 9, 42, 0
7, 60420, Note_on_c, 9, 42, 63
7, 60421, Note_on_c, 9, 42, 0
7, 60481, Note_on_c, 9, 36, 110
7, 60481, Note_on_c, 9, 36, 0
7, 60481, Note_on_c, 9, 42, 110
7, 60481, Note_on_c, 9, 42, 0
7, 60540, Note_on_c, 9, 42, 63
7, 60541, Note_on_c, 9, 42, 0
7, 60600, Note_on_c, 9, 38, 110
7, 60601, Note_on_c, 9, 38, 0
7, 60601, Note_on_c, 9, 42, 95
7, 60601, Note_on_c, 9, 42, 0
7, 60660, Note_on_c, 9, 42, 63
7, 60661, Note_on_c, 9, 42, 0
7, 60720, Note_on_c, 9, 36, 110
7, 60721, Note_on_c, 9, 36, 0
7, 60721, Note_on_c, 9, 42, 110
7, 60721, Note_on_c, 9, 42, 0
7, 60780, Note_on_c, 9, 42, 63
7, 60781, Note_on_c, 9, 42, 0
7, 60840, Note_on_c, 9, 38, 110
7, 60841, Note_on_c, 9, 38, 0
7, 60841, Note_on_c, 9, 42, 95
7, 60841, Note_on_c, 9, 42, 0
7, 60900, Note_on_c, 9, 36, 95
7, 60901, Note_on_c, 9, 36, 0
7, 60901, Note_on_c, 9, 42, 63
7, 60901, Note_on_c, 9, 42, 0
7, 60960, Note_on_c, 9, 36, 110
7, 60961, Note_on_c, 9, 36, 0
7, 60961, Note_on_c, 9, 42, 110
7, 60961, Note_on_c, 9, 42, 0
7, 60961, Note_on_c, 9, 49, 80
7, 60961, Note_on_c, 9, 49, 0
7, 61020, Note_on_c, 9, 42, 63
7, 61021, Note_on_c, 9, 42, 0
7, 61080, Note_on_c, 9, 38, 110
7, 61081, Note_on_c, 9, 38, 0
7, 61081, Note_on_c, 9, 42, 95
7, 61081, Note_on_c, 9, 42, 0
7, 61140, Note_on_c, 9, 36, 95
7, 61141, Note_on_c, 9, 36, 0
7, 61141, Note_on_c, 9, 42, 63
7, 61141, Note_on_c, 9, 42, 0
7, 61200, Note_on_c, 9, 36, 110
7, 61200, Note_on_c, 9, 42, 110
7, 61201, Note_on_c, 9, 42, 0
7, 61201, Note_on_c, 9, 36, 0
7, 61260, Note_on_c, 9, 42, 63
7, 61261, Note_on_c, 9, 42, 0
7, 61320, Note_on_c, 9, 38, 110
7, 61321, Note_on_c, 9, 38, 0
7, 61321, Note_on_c, 9, 42, 95
7, 61321, Note_on_c, 9, 42, 0
7, 61380, Note_on_c, 9, 42, 63
7, 61381, Note_on_c, 9, 42, 0
7, 61440, Note_on_c, 9, 36, 110
7, 61441, Note_on_c, 9, 36, 0
7, 61441, Note_on_c, 9, 42, 110
7, 61441, Note_on_c, 9, 42, 0
7, 61500, Note_on_c, 9, 42, 63
7, 61501, Note_on_c, 9, 42, 0
7, 61560, Note_on_c, 9, 38, 110
7, 61560, Note_on_c, 9, 42, 95
7, 61561, Note_on_c, 9, 42, 0
7, 61561, Note_on_c, 9, 38, 0
7, 61620, Note_on_c, 9, 36, 95
7, 61621, Note_on_c, 9, 36, 0
7, 61621, Note_on_c, 9, 42, 63
7, 61621, Note_on_c, 9, 42, 0
7, 61680, Note_on_c, 9, 36, 110
7, 61681, Note_on_c, 9, 36, 0
7, 61681, Note_on_c, 9, 42, 110
7, 61681, Note_on_c, 9, 42, 0
7, 61740, Note_on_c, 9, 42, 63
7, 61741, Note_on_c, 9, 42, 0
7, 61800, Note_on_c, 9, 38, 110
7, 61801, Note_on_c, 9, 38, 0
7, 61801, Note_on_c, 9, 42, 95
7, 61801, Note_on_c, 9, 42, 0
7, 61861, Note_on_c, 9, 42, 63
7, 61861, Note_on_c, 9, 42, 0
7, 61920, Note_on_c, 9, 36, 110
7, 61920, Note_on_c, 9, 42, 110
7, 61921, Note_on_c, 9, 42, 0
7, 61921, Note_on_c, 9, 36, 0
7, 61980, Note_on_c, 9, 42, 63
7, 61981, Note_on_c, 9, 42, 0
7, 62040, Note_on_c, 9, 38, 110
7, 62041, Note_on_c, 9, 38, 0
7, 62041, Note_on_c, 9, 42, 95
7, 62041, Note_on_c, 9, 42, 0
7, 62100, Note_on_c, 9, 42, 63
7, 62101, Note_on_c, 9, 42, 0
7, 62160, Note_on_c, 9, 36, 110
7, 62161, Note_on_c, 9, 36, 0
7, 62161, Note_on_c, 9, 42, 110
7, 62161, Note_on_c, 9, 42, 0
7, 62220, Note_on_c, 9, 42, 63
7, 62221, Note_on_c, 9, 42, 0
7, 62280, Note_on_c, 9, 38, 110
7, 62280, Note_on_c, 9, 42, 95
7, 62281, Note_on_c, 9, 42, 0
7, 62281, Note_on_c, 9, 38, 0
7, 62341, Note_on_c, 9, 42, 63
7, 62341, Note_on_c, 9, 42, 0
7, 62400, Note_on_c, 9, 36, 110
7, 62401, Note_on_c, 9, 36, 0
7, 62401, Note_on_c, 9, 42, 110
7, 62401, Note_on_c, 9, 42, 0
7, 62460, Note_on_c, 9, 38, 47
7, 62461, Note_on_c, 9, 38, 0
7, 62461, Note_on_c, 9, 42, 79
7, 62461, Note_on_c, 9, 42, 0
7, 62520, Note_on_c, 9, 36, 47
7, 62521, Note_on_c, 9, 36, 0
7, 62521, Note_on_c, 9, 38, 63
7, 62521, Note_on_c, 9, 38, 0
7, 62521, Note_on_c, 9, 42, 95
7, 62521, Note_on_c, 9, 42, 0
7, 62580, Note_on_c, 9, 36, 63
7, 62581, Note_on_c, 9, 36, 0
7, 62581, Note_on_c, 9, 38, 79
7, 62581, Note_on_c, 9, 38, 0
7, 62581, Note_on_c, 9, 42, 110
7, 62581, Note_on_c, 9, 42, 0
7, 62640, Note_on_c, 9, 36, 79
7, 62640, Note_on_c, 9, 38, 95
7, 62641, Note_on_c, 9, 38, 0
7, 62641, Note_on_c, 9, 36, 0
7, 62641, Note_on_c, 9, 42, 110
7, 62641, Note_on_c, 9, 42, 0
7, 62700, Note_on_c, 9, 36, 110
7, 62701, Note_on_c, 9, 36, 0
7, 62760, Note_on_c, 9, 38, 110
7, 62761, Note_on_c, 9, 38, 0
7, 62765, Note_on_c, 9, 38, 110
7, 62766, Note_on_c, 9, 38, 0
7, 62821, Note_on_c, 9, 38, 110
7, 62821, Note_on_c, 9, 38, 0
7, 62880, Note_on_c, 9, 36, 110
7, 62881, Note_on_c, 9, 36, 0
7, 62881, Note_on_c, 9, 42, 110
7, 62881, Note_on_c, 9, 42, 0
7, 62881, Note_on_c, 9, 49, 80
7, 62881, Note_on_c, 9, 49, 0
7, 62940, Note_on_c, 9, 42, 63
7, 62941, Note_on_c, 9, 42, 0
7, 63000, Note_on_c, 9, 38, 110
7, 63001, Note_on_c, 9, 38, 0
7, 63001, Note_on_c, 9, 42, 95
7, 63001, Note_on_c, 9, 42, 0
7, 63060, Note_on_c, 9, 36, 95
7, 63060, Note_on_c, 9, 42, 63
7, 63061, Note_on_c, 9, 42, 0
7, 63061, Note_on_c, 9, 36, 0
7, 63120, Note_on_c, 9, 36, 110
7, 63121, Note_on_c, 9, 36, 0
7, 63121, Note_on_c, 9, 42, 110
7, 63121, Note_on_c, 9, 42, 0
7, 63180, Note_on_c, 9, 42, 63
7, 63181, Note_on_c, 9, 42, 0
7, 63240, Note_on_c, 9, 38, 110
7, 63241, Note_on_c, 9, 38, 0
7, 63241, Note_on_c, 9, 42, 95
7, 63241, Note_on_c, 9, 42, 0
7, 63300, Note_on_c, 9, 42, 63
7, 63301, Note_on_c, 9, 42, 0
7, 63360, Note_on_c, 9, 36, 110
7, 63360, Note_on_c, 9, 42, 110
7, 63361, Note_on_c, 9, 42, 0
7, 63361, Note_on_c, 9, 36, 0
7, 63420, Note_on_c, 9, 42, 63
7, 63421, Note_on_c, 9, 42, 0
7, 63480, Note_on_c, 9, 38, 110
7, 63481, Note_on_c, 9, 38, 0
7, 63481, Note_on_c, 9, 42, 95
7, 63481, Note_on_c, 9, 42, 0
7, 63540, Note_on_c, 9, 36, 95
7, 63541, Note_on_c, 9, 36, 0
7, 63541, Note_on_c, 9, 42, 63
7, 63541, Note_on_c, 9, 42, 0
7, 63600, Note_on_c, 9, 36, 110
7, 63601, Note_on_c, 9, 36, 0
7, 63601, Note_on_c, 9, 42, 110
7, 63601, Note_on_c, 9, 42, 0
7, 63660, Note_on_c, 9, 42, 63
7, 63661, Note_on_c, 9, 42, 0
7, 63720, Note_on_c, 9, 38, 110
7, 63721, Note_on_c, 9, 38, 0
7, 63721, Note_on_c, 9, 42, 95
7, 63721, Note_on_c, 9, 42, 0
7, 63780, Note_on_c, 9, 42, 63
7, 63781, Note_on_c, 9, 42, 0
7, 63840, Note_on_c, 9, 36, 110
7, 63841, Note_on_c, 9, 36, 0
7, 63841, Note_on_c, 9, 42, 110
7, 63841, Note_on_c, 9, 42, 0
7, 63900, Note_on_c, 9, 42, 63
7, 63901, Note_on_c, 9, 42, 0
7, 63960, Note_on_c, 9, 38, 110
7, 63961, Note_on_c, 9, 38, 0
7, 63961, Note_on_c, 9, 42, 95
7, 63961, Note_on_c, 9, 42, 0
7, 64020, Note_on_c, 9, 42, 63
7, 64021, Note_on_c, 9, 42, 0
7, 64080, Note_on_c, 9, 36, 110
7, 64081, Note_on_c, 9, 36, 0
7, 64081, Note_on_c, 9, 42, 110
7, 64081, Note_on_c, 9, 42, 0
7, 64140, Note_on_c, 9, 42, 63
7, 64141, Note_on_c, 9, 42, 0
7, 64200, Note_on_c, 9, 38, 110
7, 64201, Note_on_c, 9, 38, 0
7, 64201, Note_on_c, 9, 42, 95
7, 64201, Note_on_c, 9, 42, 0
7, 64260, Note_on_c, 9, 42, 63
7, 64261, Note_on_c, 9, 42, 0
7, 64320, Note_on_c, 9, 36, 110
7, 64321, Note_on_c, 9, 36, 0
7, 64321, Note_on_c, 9, 42, 110
7, 64321, Note_on_c, 9, 42, 0
7, 64380, Note_on_c, 9, 38, 47
7, 64381, Note_on_c, 9, 38, 0
7, 64381, Note_on_c, 9, 42, 79
7, 64381, Note_on_c, 9, 42, 0
7, 64440, Note_on_c, 9, 36, 47
7, 64441, Note_on_c, 9, 36, 0
7, 64441, Note_on_c, 9, 38, 63
7, 64441, Note_on_c, 9, 38, 0
7, 64441, Note_on_c, 9, 42, 95
7, 64441, Note_on_c, 9, 42, 0
7, 64500, Note_on_c, 9, 36, 63
7, 64500, Note_on_c, 9, 38, 79
7, 64501, Note_on_c, 9, 38, 0
7, 64501, Note_on_c, 9, 36, 0
7, 64501, Note_on_c, 9, 42, 110
7, 64501, Note_on_c, 9, 42, 0
7, 64560, Note_on_c, 9, 36, 79
7, 64561, Note_on_c, 9, 36, 0
7, 64561, Note_on_c, 9, 38, 95
7, 64561, Note_on_c, 9, 38, 0
7, 64561, Note_on_c, 9, 42, 110
7, 64561, Note_on_c, 9, 42, 0
7, 64680, Note_on_c, 9, 38, 110
7, 64681, Note_on_c, 9, 38, 0
7, 64685, Note_on_c, 9, 38, 110
7, 64686, Note_on_c, 9, 38, 0
7, 64740, Note_on_c, 9, 36, 95
7, 64741, Note_on_c, 9, 36, 0
7, 64741, Note_on_c, 9, 38, 110
7, 64741, Note_on_c, 9, 38, 0
7, 64745, Note_on_c, 9, 38, 110
7, 64746, Note_on_c, 9, 38, 0
7, 64801, Note_on_c, 9, 36, 110
7, 64801, Note_on_c, 9, 36, 0
7, 64801, Note_on_c, 9, 42, 110
7, 64801, Note_on_c, 9, 49, 80
7, 64802, Note_on_c, 9, 49, 0
7, 64802, Note_on_c, 9, 42, 0
7, 64860, Note_on_c, 9, 42, 63
7, 64861, Note_on_c, 9, 42, 0
7, 64920, Note_on_c, 9, 38, 110
7, 64921, Note_on_c, 9, 38, 0
7, 64921, Note_on_c, 9, 42, 95
7, 64921, Note_on_c, 9, 42, 0
7, 64980, Note_on_c, 9, 42, 63
7, 64981, Note_on_c, 9, 42, 0
7, 65040, Note_on_c, 9, 36, 110
7, 65040, Note_on_c, 9, 42, 110
7, 65041, Note_on_c, 9, 42, 0
7, 65041, Note_on_c, 9, 36, 0
7, 65100, Note_on_c, 9, 42, 63
7, 65101, Note_on_c, 9, 42, 0
7, 65160, Note_on_c, 9, 38, 110
7, 65161, Note_on_c, 9, 38, 0
7, 65161, Note_on_c, 9, 42, 95
7, 65161, Note_on_c, 9, 42, 0
7, 65220, Note_on_c, 9, 42, 63
7, 65221, Note_on_c, 9, 42, 0
7, 65280, Note_on_c, 9, 36, 110
7, 65281, Note_on_c, 9, 36, 0
7, 65281, Note_on_c, 9, 42, 110
7, 65281, Note_on_c, 9, 42, 0
7, 65340, Note_on_c, 9, 42, 63
7, 65341, Note_on_c, 9, 42, 0
7, 65400, Note_on_c, 9, 38, 110
7, 65401, Note_on_c, 9, 38, 0
7, 65401, Note_on_c, 9, 42, 95
7, 65401, Note_on_c, 9, 42, 0
7, 65460, Note_on_c, 9, 42, 63
7, 65461, Note_on_c, 9, 42, 0
7, 65520, Note_on_c, 9, 36, 110
7, 65521, Note_on_c, 9, 36, 0
7, 65521, Note_on_c, 9, 42, 110
7, 65521, Note_on_c, 9, 42, 0
7, 65580, Note_on_c, 9, 42, 63
7, 65581, Note_on_c, 9, 42, 0
7, 65640, Note_on_c, 9, 38, 110
7, 65641, Note_on_c, 9, 38, 0
7, 65641, Note_on_c, 9, 42, 95
7, 65641, Note_on_c, 9, 42, 0
7, 65700, Note_on_c, 9, 36, 95
7, 65701, Note_on_c, 9, 36, 0
7, 65701, Note_on_c, 9, 42, 63
7, 65701, Note_on_c, 9, 42, 0
7, 65761, Note_on_c, 9, 36, 110
7, 65761, Note_on_c, 9, 36, 0
7, 65761, Note_on_c, 9, 42, 110
7, 65761, Note_on_c, 9, 42, 0
7, 65820, Note_on_c, 9, 42, 63
7, 65821, Note_on_c, 9, 42, 0
7, 65880, Note_on_c, 9, 38, 110
7, 65881, Note_on_c, 9, 38, 0
7, 65881, Note_on_c, 9, 42, 95
7, 65881, Note_on_c, 9, 42, 0
7, 65940, Note_on_c, 9, 42, 63
7, 65941, Note_on_c, 9, 42, 0
7, 66000, Note_on_c, 9, 36, 110
7, 66000, Note_on_c, 9, 36, 0
7, 66001, Note_on_c, 9, 42, 110
7, 66001, Note_on_c, 9, 42, 0
7, 66060, Note_on_c, 9, 42, 63
7, 66061, Note_on_c, 9, 42, 0
7, 66120, Note_on_c, 9, 38, 110
7, 66121, Note_on_c, 9, 38, 0
7, 66121, Note_on_c, 9, 42, 95
7, 66121, Note_on_c, 9, 42, 0
7, 66180, Note_on_c, 9, 42, 63
7, 66181, Note_on_c, 9, 42, 0
7, 66240, Note_on_c, 9, 36, 110
7, 66241, Note_on_c, 9, 36, 0
7, 66241, Note_on_c, 9, 42, 110
7, 66241, Note_on_c, 9, 42, 0
7, 66300, Note_on_c, 9, 38, 47
7, 66300, Note_on_c, 9, 42, 79
7, 66301, Note_on_c, 9, 42, 0
7, 66301, Note_on_c, 9, 38, 0
7, 66360, Note_on_c, 9, 36, 47
7, 66361, Note_on_c, 9, 36, 0
7, 66361, Note_on_c, 9, 38, 63
7, 66361, Note_on_c, 9, 38, 0
7, 66361, Note_on_c, 9, 42, 95
7, 66362, Note_on_c, 9, 42, 0
7, 66420, Note_on_c, 9, 36, 63
7, 66421, Note_on_c, 9, 36, 0
7, 66421, Note_on_c, 9, 38, 79
7, 66421, Note_on_c, 9, 38, 0
7, 66421, Note_on_c, 9, 42, 110
7, 66421, Note_on_c, 9, 42, 0
7, 66480, Note_on_c, 9, 36, 79
7, 66481, Note_on_c, 9, 36, 0
7, 66481, Note_on_c, 9, 38, 95
7, 66481, Note_on_c, 9, 38, 0
7, 66481, Note_on_c, 9, 42, 110
7, 66481, Note_on_c, 9, 42, 0
7, 66600, Note_on_c, 9, 38, 110
7, 66601, Note_on_c, 9, 38, 0
7, 66605, Note_on_c, 9, 38, 110
7, 66606, Note_on_c, 9, 38, 0
7, 66660, Note_on_c, 9, 36, 95
7, 66660, Note_on_c, 9, 38, 110
7, 66661, Note_on_c, 9, 38, 0
7, 66661, Note_on_c, 9, 36, 0
7, 66665, Note_on_c, 9, 38, 110
7, 66666, Note_on_c, 9, 38, 0
7, 66721, Note_on_c, 9, 36, 110
7, 66721, Note_on_c, 9, 36, 0
7, 66721, Note_on_c, 9, 42, 110
7, 66721, Note_on_c, 9, 49, 80
7, 66722, Note_on_c, 9, 49, 0
7, 66722, Note_on_c, 9, 42, 0
7, 66780, Note_on_c, 9, 42, 63
7, 66781, Note_on_c, 9, 42, 0
7, 66840, Note_on_c, 9, 38, 110
7, 66841, Note_on_c, 9, 38, 0
7, 66841, Note_on_c, 9, 42, 95
7, 66841, Note_on_c, 9, 42, 0
7, 66900, Note_on_c, 9, 42, 63
7, 66901, Note_on_c, 9, 42, 0
7, 66960, Note_on_c, 9, 36, 110
7, 66961, Note_on_c, 9, 36, 0
7, 66961, Note_on_c, 9, 42, 110
7, 66961, Note_on_c, 9, 42, 0
7, 67020, Note_on_c, 9, 42, 63
7, 67021, Note_on_c, 9, 42, 0
7, 67080, Note_on_c, 9, 38, 110
7, 67081, Note_on_c, 9, 38, 0
7, 67081, Note_on_c, 9, 42, 95
7, 67081, Note_on_c, 9, 42, 0
7, 67140, Note_on_c, 9, 42, 63
7, 67141, Note_on_c, 9, 42, 0
7, 67201, Note_on_c, 9, 36, 110
7, 67201, Note_on_c, 9, 36, 0
7, 67201, Note_on_c, 9, 42, 110
7, 67201, Note_on_c, 9, 42, 0
7, 67260, Note_on_c, 9, 42, 63
7, 67261, Note_on_c, 9, 42, 0
7, 67320, Note_on_c, 9, 38, 110
7, 67321, Note_on_c, 9, 38, 0
7, 67321, Note_on_c, 9, 42, 95
7, 67321, Note_on_c, 9, 42, 0
7, 67380, Note_on_c, 9, 42, 63
7, 67381, Note_on_c, 9, 42, 0
7, 67440, Note_on_c, 9, 36, 110
7, 67441, Note_on_c, 9, 36, 0
7, 67441, Note_on_c, 9, 42, 110
7, 67441, Note_on_c, 9, 42, 0
7, 67500, Note_on_c, 9, 42, 63
7, 67501, Note_on_c, 9, 42, 0
7, 67560, Note_on_c, 9, 38, 110
7, 67561, Note_on_c, 9, 38, 0
7, 67561, Note_on_c, 9, 42, 95
7, 67561, Note_on_c, 9, 42, 0
7, 67620, Note_on_c, 9, 36, 95
7, 67621, Note_on_c, 9, 36, 0
7, 67621, Note_on_c, 9, 42, 63
7, 67621, Note_on_c, 9, 42, 0
7, 67681, Note_on_c, 9, 36, 110
7, 67681, Note_on_c, 9, 36, 0
7, 67681, Note_on_c, 9, 42, 110
7, 67682, Note_on_c, 9, 42, 0
7, 67740, Note_on_c, 9, 42, 63
7, 67741, Note_on_c, 9, 42, 0
7, 67800, Note_on_c, 9, 38, 110
7, 67801, Note_on_c, 9, 38, 0
7, 67801, Note_on_c, 9, 42, 95
7, 67801, Note_on_c, 9, 42, 0
7, 67860, Note_on_c, 9, 42, 63
7, 67861, Note_on_c, 9, 42, 0
7, 67920, Note_on_c, 9, 36, 110
7, 67921, Note_on_c, 9, 36, 0
7, 67921, Note_on_c, 9, 42, 110
7, 67921, Note_on_c, 9, 42, 0
7, 67980, Note_on_c, 9, 42, 63
7, 67981, Note_on_c, 9, 42, 0
7, 68040, Note_on_c, 9, 38, 110
7, 68041, Note_on_c, 9, 38, 0
7, 68041, Note_on_c, 9, 42, 95
7, 68041, Note_on_c, 9, 42, 0
7, 68100, Note_on_c, 9, 42, 63
7, 68101, Note_on_c, 9, 42, 0
7, 68161, Note_on_c, 9, 36, 110
7, 68161, Note_on_c, 9, 36, 0
7, 68161, Note_on_c, 9, 42, 110
7, 68161, Note_on_c, 9, 42, 0
7, 68220, Note_on_c, 9, 42, 63
7, 68221, Note_on_c, 9, 42, 0
7, 68280, Note_on_c, 9, 38, 110
7, 68281, Note_on_c, 9, 38, 0
7, 68281, Note_on_c, 9, 42, 95
7, 68281, Note_on_c, 9, 42, 0
7, 68340, Note_on_c, 9, 42, 63
7, 68341, Note_on_c, 9, 42, 0
7, 68400, Note_on_c, 9, 36, 110
7, 68401, Note_on_c, 9, 36, 0
7, 68401, Note_on_c, 9, 42, 110
7, 68401, Note_on_c, 9, 42, 0
7, 68460, Note_on_c, 9, 42, 63
7, 68461, Note_on_c, 9, 42, 0
7, 68520, Note_on_c, 9, 38, 110
7, 68521, Note_on_c, 9, 38, 0
7, 68521, Note_on_c, 9, 42, 95
7, 68521, Note_on_c, 9, 42, 0
7, 68580, Note_on_c, 9, 36, 110
7, 68581, Note_on_c, 9, 36, 0
7, 68581, Note_on_c, 9, 42, 63
7, 68581, Note_on_c, 9, 42, 0
7, 68640, Note_on_c, 9, 36, 110
7, 68641, Note_on_c, 9, 36, 0
7, 68641, Note_on_c, 9, 42, 110
7, 68641, Note_on_c, 9, 42, 0
7, 68641, Note_on_c, 9, 49, 80
7, 68641, Note_on_c, 9, 49, 0
7, 68701, Note_on_c, 9, 42, 63
7, 68701, Note_on_c, 9, 42, 0
7, 68760, Note_on_c, 9, 38, 110
7, 68761, Note_on_c, 9, 38, 0
7, 68761, Note_on_c, 9, 42, 95
7, 68761, Note_on_c, 9, 42, 0
7, 68820, Note_on_c, 9, 42, 63
7, 68821, Note_on_c, 9, 42, 0
7, 68880, Note_on_c, 9, 36, 110
7, 68881, Note_on_c, 9, 36, 0
7, 68881, Note_on_c, 9, 42, 110
7, 68881, Note_on_c, 9, 42, 0
7, 68940, Note_on_c, 9, 42, 63
7, 68941, Note_on_c, 9, 42, 0
7, 69000, Note_on_c, 9, 38, 110
7, 69001, Note_on_c, 9, 38, 0
7, 69001, Note_on_c, 9, 42, 95
7, 69001, Note_on_c, 9, 42, 0
7, 69060, Note_on_c, 9, 42, 63
7, 69061, Note_on_c, 9, 42, 0
7, 69120, Note_on_c, 9, 36, 110
7, 69121, Note_on_c, 9, 36, 0
7, 69121, Note_on_c, 9, 42, 110
7, 69121, Note_on_c, 9, 42, 0
7, 69181, Note_on_c, 9, 42, 63
7, 69181, Note_on_c, 9, 42, 0
7, 69240, Note_on_c, 9, 38, 110
7, 69241, Note_on_c, 9, 38, 0
7, 69241, Note_on_c, 9, 42, 95
7, 69241, Note_on_c, 9, 42, 0
7, 69300, Note_on_c, 9, 42, 63
7, 69301, Note_on_c, 9, 42, 0
7, 69360, Note_on_c, 9, 36, 110
7, 69361, Note_on_c, 9, 36, 0
7, 69361, Note_on_c, 9, 42, 110
7, 69361, Note_on_c, 9, 42, 0
7, 69420, Note_on_c, 9, 42, 63
7, 69421, Note_on_c, 9, 42, 0
7, 69480, Note_on_c, 9, 38, 110
7, 69481, Note_on_c, 9, 38, 0
7, 69481, Note_on_c, 9, 42, 95
7, 69481, Note_on_c, 9, 42, 0
7, 69540, Note_on_c, 9, 36, 95
7, 69540, Note_on_c, 9, 42, 63
7, 69541, Note_on_c, 9, 42, 0
7, 69541, Note_on_c, 9, 36, 0
7, 69600, Note_on_c, 9, 36, 110
7, 69601, Note_on_c, 9, 36, 0
7, 69601, Note_on_c, 9, 42, 110
7, 69601, Note_on_c, 9, 42, 0
7, 69660, Note_on_c, 9, 42, 63
7, 69661, Note_on_c, 9, 42, 0
7, 69720, Note_on_c, 9, 38, 110
7, 69721, Note_on_c, 9, 38, 0
7, 69721, Note_on_c, 9, 42, 95
7, 69721, Note_on_c, 9, 42, 0
7, 69780, Note_on_c, 9, 36, 110
7, 69781, Note_on_c, 9, 36, 0
7, 69781, Note_on_c, 9, 42, 63
7, 69781, Note_on_c, 9, 42, 0
7, 69840, Note_on_c, 9, 36, 110
7, 69841, Note_on_c, 9, 36, 0
7, 69841, Note_on_c, 9, 42, 110
7, 69841, Note_on_c, 9, 42, 0
7, 69900, Note_on_c, 9, 42, 63
7, 69901, Note_on_c, 9, 42, 0
7, 69960, Note_on_c, 9, 38, 110
7, 69961, Note_on_c, 9, 38, 0
7, 69961, Note_on_c, 9, 42, 95
7, 69961, Note_on_c, 9, 42, 0
7, 70020, Note_on_c, 9, 36, 110
7, 70021, Note_on_c, 9, 36, 0
7, 70021, Note_on_c, 9, 42, 63
7, 70021, Note_on_c, 9, 42, 0
7, 70080, Note_on_c, 9, 36, 110
7, 70081, Note_on_c, 9, 36, 0
7, 70081, Note_on_c, 9, 42, 110
7, 70081, Note_on_c, 9, 42, 0
7, 70140, Note_on_c, 9, 38, 110
7, 70141, Note_on_c, 9, 38, 0
7, 70141, Note_on_c, 9, 49, 96
7, 70141, Note_on_c, 9, 49, 0
7, 70260, Note_on_c, 9, 36, 110
7, 70261, Note_on_c, 9, 36, 0
7, 70320, Note_on_c, 9, 38, 110
7, 70321, Note_on_c, 9, 38, 0
7, 70321, Note_on_c, 9, 42, 110
7, 70321, Note_on_c, 9, 42, 0
7, 70321, End_track
0, 0, End_of_file
