0, 0, Header, 1, 26, 120
1, 0, Start_track
1, 0, Time_signature, 4, 2, 24, 8
1, 0, Key_signature, 0, "major"
1, 0, Tempo, 500000
1, 0, End_track
2, 0, Start_track
2, 0, MIDI_port, 0
2, 0, Title_t, "One And One (radio edit)"
2, 0, End_track
3, 0, Start_track
3, 0, MIDI_port, 0
3, 0, Title_t, "by Robert Miles"
3, 0, End_track
4, 0, Start_track
4, 0, MIDI_port, 0
4, 0, Title_t, "GS/GM MIDI version by"
4, 0, End_track
5, 0, Start_track
5, 0, MIDI_port, 0
5, 0, Title_t, "Marcus Thomson"
5, 0, End_track
6, 0, Start_track
6, 0, MIDI_port, 0
6, 0, Title_t, "AKA"
6, 0, End_track
7, 0, Start_track
7, 0, MIDI_port, 0
7, 0, Title_t, "Roberto Malone 2/2/97"
7, 0, End_track
8, 0, Start_track
8, 0, MIDI_port, 0
8, 0, Title_t, "E-Mail: "
8, 0, End_track
9, 0, Start_track
9, 0, MIDI_port, 0
9, 0, Title_t, "malone@kurtyboy.demon.co.uk"
9, 0, End_track
10, 0, Start_track
10, 0, MIDI_port, 0
10, 0, End_track
11, 0, Start_track
11, 0, MIDI_port, 0
11, 0, Title_t, "piano"
11, 0, Control_c, 7, 0, 0
11, 0, Program_c, 7, 0
11, 0, Control_c, 7, 7, 105
11, 0, Control_c, 7, 10, 71
11, 0, Control_c, 7, 91, 127
11, 0, Control_c, 7, 93, 10
11, 0, Control_c, 7, 11, 127
11, 480, Note_on_c, 7, 79, 100
11, 779, Note_on_c, 7, 79, 0
11, 780, Note_on_c, 7, 69, 100
11, 839, Note_on_c, 7, 69, 0
11, 840, Note_on_c, 7, 79, 100
11, 899, Note_on_c, 7, 79, 0
11, 900, Note_on_c, 7, 77, 100
11, 1259, Note_on_c, 7, 77, 0
11, 1260, Note_on_c, 7, 69, 100
11, 1319, Note_on_c, 7, 69, 0
11, 1320, Note_on_c, 7, 77, 100
11, 1379, Note_on_c, 7, 77, 0
11, 1380, Note_on_c, 7, 76, 100
11, 1739, Note_on_c, 7, 76, 0
11, 1740, Note_on_c, 7, 69, 100
11, 1799, Note_on_c, 7, 69, 0
11, 1800, Note_on_c, 7, 76, 100
11, 1859, Note_on_c, 7, 76, 0
11, 1860, Note_on_c, 7, 74, 100
11, 2099, Note_on_c, 7, 74, 0
11, 2100, Note_on_c, 7, 69, 100
11, 2159, Note_on_c, 7, 69, 0
11, 2160, Note_on_c, 7, 74, 100
11, 2219, Note_on_c, 7, 74, 0
11, 2220, Note_on_c, 7, 76, 100
11, 2279, Note_on_c, 7, 76, 0
11, 2280, Note_on_c, 7, 77, 100
11, 2339, Note_on_c, 7, 77, 0
11, 2340, Note_on_c, 7, 74, 100
11, 2399, Note_on_c, 7, 74, 0
11, 2400, Note_on_c, 7, 79, 100
11, 2699, Note_on_c, 7, 79, 0
11, 2700, Note_on_c, 7, 69, 100
11, 2759, Note_on_c, 7, 69, 0
11, 2760, Note_on_c, 7, 79, 100
11, 2819, Note_on_c, 7, 79, 0
11, 2820, Note_on_c, 7, 77, 100
11, 3179, Note_on_c, 7, 77, 0
11, 3180, Note_on_c, 7, 69, 100
11, 3239, Note_on_c, 7, 69, 0
11, 3240, Note_on_c, 7, 77, 100
11, 3299, Note_on_c, 7, 77, 0
11, 3300, Note_on_c, 7, 76, 100
11, 3659, Note_on_c, 7, 76, 0
11, 3660, Note_on_c, 7, 69, 100
11, 3719, Note_on_c, 7, 69, 0
11, 3720, Note_on_c, 7, 76, 100
11, 3779, Note_on_c, 7, 76, 0
11, 3780, Note_on_c, 7, 74, 100
11, 4019, Note_on_c, 7, 74, 0
11, 4020, Note_on_c, 7, 69, 100
11, 4079, Note_on_c, 7, 69, 0
11, 4080, Note_on_c, 7, 74, 100
11, 4139, Note_on_c, 7, 74, 0
11, 4140, Note_on_c, 7, 76, 100
11, 4199, Note_on_c, 7, 76, 0
11, 4200, Note_on_c, 7, 77, 100
11, 4259, Note_on_c, 7, 77, 0
11, 4260, Note_on_c, 7, 74, 100
11, 4319, Note_on_c, 7, 74, 0
11, 4320, Note_on_c, 7, 79, 100
11, 4619, Note_on_c, 7, 79, 0
11, 4620, Note_on_c, 7, 69, 100
11, 4679, Note_on_c, 7, 69, 0
11, 4680, Note_on_c, 7, 79, 100
11, 4739, Note_on_c, 7, 79, 0
11, 4740, Note_on_c, 7, 77, 100
11, 5099, Note_on_c, 7, 77, 0
11, 5100, Note_on_c, 7, 69, 100
11, 5159, Note_on_c, 7, 69, 0
11, 5160, Note_on_c, 7, 77, 100
11, 5219, Note_on_c, 7, 77, 0
11, 5220, Note_on_c, 7, 76, 100
11, 5579, Note_on_c, 7, 76, 0
11, 5580, Note_on_c, 7, 69, 100
11, 5639, Note_on_c, 7, 69, 0
11, 5640, Note_on_c, 7, 76, 100
11, 5699, Note_on_c, 7, 76, 0
11, 5700, Note_on_c, 7, 74, 100
11, 5939, Note_on_c, 7, 74, 0
11, 5940, Note_on_c, 7, 69, 100
11, 5999, Note_on_c, 7, 69, 0
11, 6000, Note_on_c, 7, 74, 100
11, 6059, Note_on_c, 7, 74, 0
11, 6060, Note_on_c, 7, 76, 100
11, 6119, Note_on_c, 7, 76, 0
11, 6120, Note_on_c, 7, 77, 100
11, 6179, Note_on_c, 7, 77, 0
11, 6180, Note_on_c, 7, 74, 100
11, 6239, Note_on_c, 7, 74, 0
11, 6240, Note_on_c, 7, 79, 100
11, 6539, Note_on_c, 7, 79, 0
11, 6540, Note_on_c, 7, 69, 100
11, 6599, Note_on_c, 7, 69, 0
11, 6600, Note_on_c, 7, 79, 100
11, 6659, Note_on_c, 7, 79, 0
11, 6660, Note_on_c, 7, 77, 100
11, 7019, Note_on_c, 7, 77, 0
11, 7020, Note_on_c, 7, 69, 100
11, 7079, Note_on_c, 7, 69, 0
11, 7080, Note_on_c, 7, 77, 100
11, 7139, Note_on_c, 7, 77, 0
11, 7140, Note_on_c, 7, 76, 100
11, 7499, Note_on_c, 7, 76, 0
11, 7500, Note_on_c, 7, 69, 100
11, 7559, Note_on_c, 7, 69, 0
11, 7560, Note_on_c, 7, 76, 100
11, 7619, Note_on_c, 7, 76, 0
11, 7620, Note_on_c, 7, 74, 100
11, 7859, Note_on_c, 7, 74, 0
11, 7860, Note_on_c, 7, 74, 100
11, 7919, Note_on_c, 7, 74, 0
11, 7920, Note_on_c, 7, 76, 100
11, 7979, Note_on_c, 7, 76, 0
11, 7980, Note_on_c, 7, 77, 100
11, 8039, Note_on_c, 7, 77, 0
11, 8040, Note_on_c, 7, 79, 100
11, 8099, Note_on_c, 7, 79, 0
11, 8100, Note_on_c, 7, 81, 100
11, 8159, Note_on_c, 7, 81, 0
11, 8160, Note_on_c, 7, 86, 100
11, 8639, Note_on_c, 7, 86, 0
11, 14820, Note_on_c, 7, 60, 100
11, 14879, Note_on_c, 7, 60, 0
11, 14880, Note_on_c, 7, 58, 100
11, 14960, Note_on_c, 7, 60, 100
11, 14969, Note_on_c, 7, 58, 0
11, 15040, Note_on_c, 7, 62, 100
11, 15049, Note_on_c, 7, 60, 0
11, 15119, Note_on_c, 7, 62, 0
11, 15120, Note_on_c, 7, 65, 100
11, 15200, Note_on_c, 7, 62, 100
11, 15209, Note_on_c, 7, 65, 0
11, 15280, Note_on_c, 7, 58, 100
11, 15289, Note_on_c, 7, 62, 0
11, 15359, Note_on_c, 7, 58, 0
11, 15360, Note_on_c, 7, 60, 100
11, 15419, Note_on_c, 7, 60, 0
11, 15450, Note_on_c, 7, 62, 100
11, 15509, Note_on_c, 7, 62, 0
11, 15540, Note_on_c, 7, 64, 100
11, 15599, Note_on_c, 7, 64, 0
11, 15630, Note_on_c, 7, 67, 100
11, 15659, Note_on_c, 7, 67, 0
11, 15660, Note_on_c, 7, 64, 100
11, 15719, Note_on_c, 7, 64, 0
11, 15720, Note_on_c, 7, 60, 100
11, 15779, Note_on_c, 7, 60, 0
11, 15780, Note_on_c, 7, 67, 100
11, 15794, Note_on_c, 7, 67, 0
11, 15795, Note_on_c, 7, 65, 100
11, 15809, Note_on_c, 7, 65, 0
11, 15810, Note_on_c, 7, 64, 100
11, 15824, Note_on_c, 7, 64, 0
11, 15840, Note_on_c, 7, 65, 100
11, 16229, Note_on_c, 7, 65, 0
11, 16260, Note_on_c, 7, 62, 100
11, 16769, Note_on_c, 7, 62, 0
11, 16800, Note_on_c, 7, 67, 100
11, 17189, Note_on_c, 7, 67, 0
11, 17220, Note_on_c, 7, 64, 100
11, 17719, Note_on_c, 7, 64, 0
11, 17760, Note_on_c, 7, 72, 100
11, 18149, Note_on_c, 7, 72, 0
11, 18180, Note_on_c, 7, 72, 100
11, 18189, Note_on_c, 7, 72, 0
11, 18200, Note_on_c, 7, 70, 100
11, 18209, Note_on_c, 7, 70, 0
11, 18220, Note_on_c, 7, 69, 100
11, 18229, Note_on_c, 7, 69, 0
11, 18240, Note_on_c, 7, 70, 100
11, 18479, Note_on_c, 7, 70, 0
11, 18540, Note_on_c, 7, 69, 100
11, 18559, Note_on_c, 7, 69, 0
11, 18600, Note_on_c, 7, 70, 100
11, 18619, Note_on_c, 7, 70, 0
11, 18660, Note_on_c, 7, 72, 100
11, 18679, Note_on_c, 7, 72, 0
11, 18690, Note_on_c, 7, 67, 100
11, 19079, Note_on_c, 7, 67, 0
11, 19140, Note_on_c, 7, 72, 100
11, 19499, Note_on_c, 7, 72, 0
11, 19620, Note_on_c, 7, 65, 100
11, 19649, Note_on_c, 7, 65, 0
11, 19650, Note_on_c, 7, 64, 100
11, 19679, Note_on_c, 7, 64, 0
11, 19680, Note_on_c, 7, 62, 100
11, 19739, Note_on_c, 7, 62, 0
11, 19760, Note_on_c, 7, 64, 100
11, 19819, Note_on_c, 7, 64, 0
11, 19840, Note_on_c, 7, 65, 100
11, 19899, Note_on_c, 7, 65, 0
11, 19920, Note_on_c, 7, 67, 100
11, 19979, Note_on_c, 7, 67, 0
11, 20000, Note_on_c, 7, 65, 100
11, 20059, Note_on_c, 7, 65, 0
11, 20080, Note_on_c, 7, 67, 100
11, 20139, Note_on_c, 7, 67, 0
11, 20160, Note_on_c, 7, 69, 100
11, 20219, Note_on_c, 7, 69, 0
11, 20240, Note_on_c, 7, 67, 100
11, 20299, Note_on_c, 7, 67, 0
11, 20320, Note_on_c, 7, 69, 100
11, 20379, Note_on_c, 7, 69, 0
11, 20400, Note_on_c, 7, 72, 100
11, 20459, Note_on_c, 7, 72, 0
11, 20480, Note_on_c, 7, 69, 100
11, 20539, Note_on_c, 7, 69, 0
11, 20560, Note_on_c, 7, 72, 100
11, 20619, Note_on_c, 7, 72, 0
11, 20640, Note_on_c, 7, 74, 100
11, 20699, Note_on_c, 7, 74, 0
11, 23460, Note_on_c, 7, 60, 100
11, 23519, Note_on_c, 7, 60, 0
11, 23520, Note_on_c, 7, 58, 100
11, 23600, Note_on_c, 7, 60, 100
11, 23609, Note_on_c, 7, 58, 0
11, 23680, Note_on_c, 7, 62, 100
11, 23689, Note_on_c, 7, 60, 0
11, 23759, Note_on_c, 7, 62, 0
11, 23760, Note_on_c, 7, 65, 100
11, 23840, Note_on_c, 7, 62, 100
11, 23849, Note_on_c, 7, 65, 0
11, 23920, Note_on_c, 7, 58, 100
11, 23929, Note_on_c, 7, 62, 0
11, 23999, Note_on_c, 7, 58, 0
11, 24000, Note_on_c, 7, 60, 100
11, 24059, Note_on_c, 7, 60, 0
11, 24090, Note_on_c, 7, 62, 100
11, 24149, Note_on_c, 7, 62, 0
11, 24180, Note_on_c, 7, 64, 100
11, 24239, Note_on_c, 7, 64, 0
11, 24270, Note_on_c, 7, 67, 100
11, 24299, Note_on_c, 7, 67, 0
11, 24300, Note_on_c, 7, 64, 100
11, 24359, Note_on_c, 7, 64, 0
11, 24360, Note_on_c, 7, 60, 100
11, 24419, Note_on_c, 7, 60, 0
11, 24420, Note_on_c, 7, 67, 100
11, 24434, Note_on_c, 7, 67, 0
11, 24435, Note_on_c, 7, 65, 100
11, 24449, Note_on_c, 7, 65, 0
11, 24450, Note_on_c, 7, 64, 100
11, 24464, Note_on_c, 7, 64, 0
11, 24480, Note_on_c, 7, 65, 100
11, 24869, Note_on_c, 7, 65, 0
11, 24900, Note_on_c, 7, 62, 100
11, 25409, Note_on_c, 7, 62, 0
11, 25440, Note_on_c, 7, 67, 100
11, 25829, Note_on_c, 7, 67, 0
11, 25860, Note_on_c, 7, 64, 100
11, 26359, Note_on_c, 7, 64, 0
11, 26400, Note_on_c, 7, 72, 100
11, 26789, Note_on_c, 7, 72, 0
11, 26820, Note_on_c, 7, 72, 100
11, 26829, Note_on_c, 7, 72, 0
11, 26840, Note_on_c, 7, 70, 100
11, 26849, Note_on_c, 7, 70, 0
11, 26860, Note_on_c, 7, 69, 100
11, 26869, Note_on_c, 7, 69, 0
11, 26880, Note_on_c, 7, 70, 100
11, 27119, Note_on_c, 7, 70, 0
11, 27180, Note_on_c, 7, 69, 100
11, 27199, Note_on_c, 7, 69, 0
11, 27240, Note_on_c, 7, 70, 100
11, 27259, Note_on_c, 7, 70, 0
11, 27300, Note_on_c, 7, 72, 100
11, 27319, Note_on_c, 7, 72, 0
11, 27330, Note_on_c, 7, 67, 100
11, 27719, Note_on_c, 7, 67, 0
11, 27780, Note_on_c, 7, 72, 100
11, 28139, Note_on_c, 7, 72, 0
11, 28320, Note_on_c, 7, 65, 100
11, 28709, Note_on_c, 7, 65, 0
11, 28740, Note_on_c, 7, 58, 100
11, 29249, Note_on_c, 7, 58, 0
11, 29280, Note_on_c, 7, 67, 100
11, 29669, Note_on_c, 7, 67, 0
11, 29700, Note_on_c, 7, 64, 100
11, 30199, Note_on_c, 7, 64, 0
11, 32240, Note_on_c, 7, 70, 100
11, 32280, Note_on_c, 7, 70, 0
11, 32320, Note_on_c, 7, 69, 100
11, 32380, Note_on_c, 7, 69, 0
11, 32400, Note_on_c, 7, 70, 100
11, 32460, Note_on_c, 7, 70, 0
11, 32480, Note_on_c, 7, 69, 100
11, 32540, Note_on_c, 7, 69, 0
11, 32560, Note_on_c, 7, 70, 100
11, 32620, Note_on_c, 7, 70, 0
11, 32640, Note_on_c, 7, 72, 100
11, 32700, Note_on_c, 7, 72, 0
11, 32720, Note_on_c, 7, 70, 100
11, 32780, Note_on_c, 7, 70, 0
11, 32800, Note_on_c, 7, 69, 100
11, 32860, Note_on_c, 7, 69, 0
11, 32880, Note_on_c, 7, 70, 100
11, 32940, Note_on_c, 7, 70, 0
11, 32960, Note_on_c, 7, 69, 100
11, 33020, Note_on_c, 7, 69, 0
11, 33040, Note_on_c, 7, 67, 100
11, 33100, Note_on_c, 7, 67, 0
11, 33120, Note_on_c, 7, 65, 100
11, 33180, Note_on_c, 7, 65, 0
11, 33200, Note_on_c, 7, 64, 100
11, 33260, Note_on_c, 7, 64, 0
11, 33280, Note_on_c, 7, 65, 100
11, 33340, Note_on_c, 7, 65, 0
11, 33360, Note_on_c, 7, 67, 100
11, 33420, Note_on_c, 7, 67, 0
11, 33440, Note_on_c, 7, 65, 100
11, 33500, Note_on_c, 7, 65, 0
11, 33520, Note_on_c, 7, 62, 100
11, 33580, Note_on_c, 7, 62, 0
11, 33600, Note_on_c, 7, 60, 100
11, 33660, Note_on_c, 7, 60, 0
11, 33680, Note_on_c, 7, 55, 100
11, 33740, Note_on_c, 7, 55, 0
11, 33760, Note_on_c, 7, 60, 100
11, 33820, Note_on_c, 7, 60, 0
11, 33840, Note_on_c, 7, 64, 100
11, 33900, Note_on_c, 7, 64, 0
11, 33920, Note_on_c, 7, 60, 100
11, 33980, Note_on_c, 7, 60, 0
11, 34000, Note_on_c, 7, 64, 100
11, 34060, Note_on_c, 7, 64, 0
11, 34080, Note_on_c, 7, 67, 100
11, 34140, Note_on_c, 7, 67, 0
11, 34160, Note_on_c, 7, 64, 100
11, 34220, Note_on_c, 7, 64, 0
11, 34240, Note_on_c, 7, 72, 100
11, 34300, Note_on_c, 7, 72, 0
11, 34320, Note_on_c, 7, 76, 100
11, 34380, Note_on_c, 7, 76, 0
11, 34400, Note_on_c, 7, 77, 100
11, 34460, Note_on_c, 7, 77, 0
11, 34480, Note_on_c, 7, 79, 100
11, 34540, Note_on_c, 7, 79, 0
11, 34560, Note_on_c, 7, 65, 100
11, 34560, Note_on_c, 7, 77, 100
11, 34619, Note_on_c, 7, 65, 0
11, 35039, Note_on_c, 7, 77, 0
11, 35040, Note_on_c, 7, 70, 100
11, 35279, Note_on_c, 7, 70, 0
11, 35280, Note_on_c, 7, 69, 100
11, 35519, Note_on_c, 7, 69, 0
11, 35520, Note_on_c, 7, 67, 100
11, 35729, Note_on_c, 7, 67, 0
11, 35740, Note_on_c, 7, 62, 100
11, 35760, Note_on_c, 7, 67, 100
11, 35769, Note_on_c, 7, 62, 0
11, 35789, Note_on_c, 7, 67, 0
11, 35800, Note_on_c, 7, 69, 100
11, 35829, Note_on_c, 7, 69, 0
11, 35860, Note_on_c, 7, 70, 100
11, 35889, Note_on_c, 7, 70, 0
11, 35920, Note_on_c, 7, 67, 100
11, 35949, Note_on_c, 7, 67, 0
11, 35980, Note_on_c, 7, 72, 100
11, 36040, Note_on_c, 7, 72, 0
11, 36480, Note_on_c, 7, 76, 100
11, 36899, Note_on_c, 7, 76, 0
11, 36900, Note_on_c, 7, 74, 100
11, 36929, Note_on_c, 7, 74, 0
11, 36930, Note_on_c, 7, 76, 100
11, 36959, Note_on_c, 7, 76, 0
11, 36960, Note_on_c, 7, 77, 100
11, 37019, Note_on_c, 7, 77, 0
11, 37020, Note_on_c, 7, 76, 100
11, 37049, Note_on_c, 7, 76, 0
11, 37050, Note_on_c, 7, 74, 100
11, 37379, Note_on_c, 7, 74, 0
11, 37380, Note_on_c, 7, 74, 100
11, 37409, Note_on_c, 7, 74, 0
11, 37410, Note_on_c, 7, 72, 100
11, 37439, Note_on_c, 7, 72, 0
11, 37440, Note_on_c, 7, 74, 100
11, 37469, Note_on_c, 7, 74, 0
11, 37470, Note_on_c, 7, 72, 100
11, 37529, Note_on_c, 7, 72, 0
11, 37530, Note_on_c, 7, 70, 100
11, 37680, Note_on_c, 7, 69, 100
11, 37689, Note_on_c, 7, 70, 0
11, 37759, Note_on_c, 7, 69, 0
11, 37770, Note_on_c, 7, 70, 100
11, 37799, Note_on_c, 7, 70, 0
11, 37840, Note_on_c, 7, 70, 100
11, 37860, Note_on_c, 7, 69, 100
11, 37869, Note_on_c, 7, 70, 0
11, 37920, Note_on_c, 7, 67, 100
11, 37939, Note_on_c, 7, 69, 0
11, 38039, Note_on_c, 7, 67, 0
11, 38040, Note_on_c, 7, 79, 100
11, 38159, Note_on_c, 7, 79, 0
11, 40400, Note_on_c, 7, 70, 100
11, 40440, Note_on_c, 7, 70, 0
11, 40480, Note_on_c, 7, 69, 100
11, 40540, Note_on_c, 7, 69, 0
11, 40560, Note_on_c, 7, 70, 100
11, 40620, Note_on_c, 7, 70, 0
11, 40640, Note_on_c, 7, 69, 100
11, 40700, Note_on_c, 7, 69, 0
11, 40720, Note_on_c, 7, 70, 100
11, 40780, Note_on_c, 7, 70, 0
11, 40800, Note_on_c, 7, 72, 100
11, 40860, Note_on_c, 7, 72, 0
11, 40880, Note_on_c, 7, 70, 100
11, 40940, Note_on_c, 7, 70, 0
11, 40960, Note_on_c, 7, 69, 100
11, 41020, Note_on_c, 7, 69, 0
11, 41040, Note_on_c, 7, 70, 100
11, 41100, Note_on_c, 7, 70, 0
11, 41120, Note_on_c, 7, 69, 100
11, 41180, Note_on_c, 7, 69, 0
11, 41200, Note_on_c, 7, 67, 100
11, 41260, Note_on_c, 7, 67, 0
11, 41280, Note_on_c, 7, 65, 100
11, 41340, Note_on_c, 7, 65, 0
11, 41360, Note_on_c, 7, 64, 100
11, 41420, Note_on_c, 7, 64, 0
11, 41440, Note_on_c, 7, 65, 100
11, 41500, Note_on_c, 7, 65, 0
11, 41520, Note_on_c, 7, 67, 100
11, 41580, Note_on_c, 7, 67, 0
11, 41600, Note_on_c, 7, 65, 100
11, 41660, Note_on_c, 7, 65, 0
11, 41680, Note_on_c, 7, 62, 100
11, 41740, Note_on_c, 7, 62, 0
11, 41760, Note_on_c, 7, 60, 100
11, 41820, Note_on_c, 7, 60, 0
11, 41840, Note_on_c, 7, 55, 100
11, 41900, Note_on_c, 7, 55, 0
11, 41920, Note_on_c, 7, 60, 100
11, 41980, Note_on_c, 7, 60, 0
11, 42000, Note_on_c, 7, 64, 100
11, 42060, Note_on_c, 7, 64, 0
11, 42080, Note_on_c, 7, 60, 100
11, 42140, Note_on_c, 7, 60, 0
11, 42160, Note_on_c, 7, 64, 100
11, 42220, Note_on_c, 7, 64, 0
11, 42240, Note_on_c, 7, 67, 100
11, 42300, Note_on_c, 7, 67, 0
11, 42320, Note_on_c, 7, 64, 100
11, 42380, Note_on_c, 7, 64, 0
11, 42400, Note_on_c, 7, 72, 100
11, 42460, Note_on_c, 7, 72, 0
11, 42480, Note_on_c, 7, 76, 100
11, 42540, Note_on_c, 7, 76, 0
11, 42560, Note_on_c, 7, 77, 100
11, 42620, Note_on_c, 7, 77, 0
11, 42640, Note_on_c, 7, 79, 100
11, 42700, Note_on_c, 7, 79, 0
11, 42720, Note_on_c, 7, 79, 100
11, 43199, Note_on_c, 7, 79, 0
11, 43200, Note_on_c, 7, 72, 100
11, 43439, Note_on_c, 7, 72, 0
11, 43440, Note_on_c, 7, 71, 100
11, 43679, Note_on_c, 7, 71, 0
11, 43680, Note_on_c, 7, 69, 100
11, 43889, Note_on_c, 7, 69, 0
11, 43900, Note_on_c, 7, 64, 100
11, 43920, Note_on_c, 7, 69, 100
11, 43929, Note_on_c, 7, 64, 0
11, 43949, Note_on_c, 7, 69, 0
11, 43960, Note_on_c, 7, 71, 100
11, 43989, Note_on_c, 7, 71, 0
11, 44020, Note_on_c, 7, 72, 100
11, 44049, Note_on_c, 7, 72, 0
11, 44080, Note_on_c, 7, 69, 100
11, 44109, Note_on_c, 7, 69, 0
11, 44140, Note_on_c, 7, 74, 100
11, 44200, Note_on_c, 7, 74, 0
11, 44640, Note_on_c, 7, 78, 100
11, 45059, Note_on_c, 7, 78, 0
11, 45060, Note_on_c, 7, 76, 100
11, 45089, Note_on_c, 7, 76, 0
11, 45090, Note_on_c, 7, 78, 100
11, 45119, Note_on_c, 7, 78, 0
11, 45120, Note_on_c, 7, 79, 100
11, 45179, Note_on_c, 7, 79, 0
11, 45180, Note_on_c, 7, 78, 100
11, 45209, Note_on_c, 7, 78, 0
11, 45210, Note_on_c, 7, 76, 100
11, 45539, Note_on_c, 7, 76, 0
11, 45540, Note_on_c, 7, 76, 100
11, 45569, Note_on_c, 7, 76, 0
11, 45570, Note_on_c, 7, 74, 100
11, 45599, Note_on_c, 7, 74, 0
11, 45600, Note_on_c, 7, 76, 100
11, 45629, Note_on_c, 7, 76, 0
11, 45630, Note_on_c, 7, 74, 100
11, 45689, Note_on_c, 7, 74, 0
11, 45690, Note_on_c, 7, 72, 100
11, 45840, Note_on_c, 7, 71, 100
11, 45849, Note_on_c, 7, 72, 0
11, 45919, Note_on_c, 7, 71, 0
11, 45930, Note_on_c, 7, 72, 100
11, 45959, Note_on_c, 7, 72, 0
11, 46000, Note_on_c, 7, 72, 100
11, 46020, Note_on_c, 7, 71, 100
11, 46029, Note_on_c, 7, 72, 0
11, 46080, Note_on_c, 7, 69, 100
11, 46099, Note_on_c, 7, 71, 0
11, 46199, Note_on_c, 7, 69, 0
11, 46200, Note_on_c, 7, 81, 100
11, 46544, Note_on_c, 7, 81, 0
11, 46560, Note_on_c, 7, 79, 100
11, 47039, Note_on_c, 7, 79, 0
11, 47040, Note_on_c, 7, 72, 100
11, 47279, Note_on_c, 7, 72, 0
11, 47280, Note_on_c, 7, 71, 100
11, 47519, Note_on_c, 7, 71, 0
11, 47520, Note_on_c, 7, 69, 100
11, 47729, Note_on_c, 7, 69, 0
11, 47740, Note_on_c, 7, 64, 100
11, 47760, Note_on_c, 7, 69, 100
11, 47769, Note_on_c, 7, 64, 0
11, 47789, Note_on_c, 7, 69, 0
11, 47800, Note_on_c, 7, 71, 100
11, 47829, Note_on_c, 7, 71, 0
11, 47860, Note_on_c, 7, 72, 100
11, 47889, Note_on_c, 7, 72, 0
11, 47920, Note_on_c, 7, 69, 100
11, 47949, Note_on_c, 7, 69, 0
11, 47980, Note_on_c, 7, 74, 100
11, 48040, Note_on_c, 7, 74, 0
11, 48480, Note_on_c, 7, 78, 100
11, 48899, Note_on_c, 7, 78, 0
11, 48900, Note_on_c, 7, 76, 100
11, 48929, Note_on_c, 7, 76, 0
11, 48930, Note_on_c, 7, 78, 100
11, 48959, Note_on_c, 7, 78, 0
11, 48960, Note_on_c, 7, 79, 100
11, 49019, Note_on_c, 7, 79, 0
11, 49020, Note_on_c, 7, 78, 100
11, 49049, Note_on_c, 7, 78, 0
11, 49050, Note_on_c, 7, 76, 100
11, 49379, Note_on_c, 7, 76, 0
11, 49380, Note_on_c, 7, 76, 100
11, 49409, Note_on_c, 7, 76, 0
11, 49410, Note_on_c, 7, 74, 100
11, 49439, Note_on_c, 7, 74, 0
11, 49440, Note_on_c, 7, 76, 100
11, 49469, Note_on_c, 7, 76, 0
11, 49470, Note_on_c, 7, 74, 100
11, 49529, Note_on_c, 7, 74, 0
11, 49530, Note_on_c, 7, 72, 100
11, 49680, Note_on_c, 7, 71, 100
11, 49689, Note_on_c, 7, 72, 0
11, 49759, Note_on_c, 7, 71, 0
11, 49770, Note_on_c, 7, 72, 100
11, 49799, Note_on_c, 7, 72, 0
11, 49840, Note_on_c, 7, 72, 100
11, 49860, Note_on_c, 7, 71, 100
11, 49869, Note_on_c, 7, 72, 0
11, 49920, Note_on_c, 7, 69, 100
11, 49939, Note_on_c, 7, 71, 0
11, 50039, Note_on_c, 7, 69, 0
11, 50040, Note_on_c, 7, 81, 100
11, 50384, Note_on_c, 7, 81, 0
11, 50400, Control_c, 7, 11, 127
11, 50400, Note_on_c, 7, 79, 100
11, 50460, Control_c, 7, 11, 126
11, 50520, Control_c, 7, 11, 125
11, 50581, Control_c, 7, 11, 124
11, 50641, Control_c, 7, 11, 123
11, 50702, Control_c, 7, 11, 122
11, 50762, Control_c, 7, 11, 121
11, 50823, Control_c, 7, 11, 120
11, 50879, Note_on_c, 7, 79, 0
11, 50880, Note_on_c, 7, 72, 100
11, 50883, Control_c, 7, 11, 119
11, 50944, Control_c, 7, 11, 118
11, 51004, Control_c, 7, 11, 117
11, 51065, Control_c, 7, 11, 116
11, 51119, Note_on_c, 7, 72, 0
11, 51120, Note_on_c, 7, 71, 100
11, 51125, Control_c, 7, 11, 115
11, 51186, Control_c, 7, 11, 114
11, 51246, Control_c, 7, 11, 113
11, 51306, Control_c, 7, 11, 112
11, 51359, Note_on_c, 7, 71, 0
11, 51360, Note_on_c, 7, 69, 100
11, 51367, Control_c, 7, 11, 111
11, 51427, Control_c, 7, 11, 110
11, 51488, Control_c, 7, 11, 109
11, 51548, Control_c, 7, 11, 108
11, 51569, Note_on_c, 7, 69, 0
11, 51580, Note_on_c, 7, 64, 100
11, 51600, Note_on_c, 7, 69, 100
11, 51609, Note_on_c, 7, 64, 0
11, 51609, Control_c, 7, 11, 107
11, 51629, Note_on_c, 7, 69, 0
11, 51640, Note_on_c, 7, 71, 100
11, 51669, Note_on_c, 7, 71, 0
11, 51669, Control_c, 7, 11, 106
11, 51700, Note_on_c, 7, 72, 100
11, 51719, Note_on_c, 7, 72, 0
11, 51730, Control_c, 7, 11, 105
11, 51760, Note_on_c, 7, 69, 100
11, 51789, Note_on_c, 7, 69, 0
11, 51790, Control_c, 7, 11, 104
11, 51820, Note_on_c, 7, 74, 100
11, 51851, Control_c, 7, 11, 103
11, 51880, Note_on_c, 7, 74, 0
11, 51911, Control_c, 7, 11, 102
11, 51972, Control_c, 7, 11, 101
11, 52032, Control_c, 7, 11, 100
11, 52093, Control_c, 7, 11, 99
11, 52153, Control_c, 7, 11, 98
11, 52213, Control_c, 7, 11, 97
11, 52274, Control_c, 7, 11, 96
11, 52320, Note_on_c, 7, 78, 100
11, 52334, Control_c, 7, 11, 95
11, 52395, Control_c, 7, 11, 94
11, 52455, Control_c, 7, 11, 93
11, 52516, Control_c, 7, 11, 92
11, 52576, Control_c, 7, 11, 91
11, 52637, Control_c, 7, 11, 90
11, 52697, Control_c, 7, 11, 89
11, 52739, Note_on_c, 7, 78, 0
11, 52740, Note_on_c, 7, 76, 100
11, 52758, Control_c, 7, 11, 88
11, 52769, Note_on_c, 7, 76, 0
11, 52770, Note_on_c, 7, 78, 100
11, 52799, Note_on_c, 7, 78, 0
11, 52800, Note_on_c, 7, 79, 100
11, 52818, Control_c, 7, 11, 87
11, 52859, Note_on_c, 7, 79, 0
11, 52860, Note_on_c, 7, 78, 100
11, 52879, Control_c, 7, 11, 86
11, 52889, Note_on_c, 7, 78, 0
11, 52890, Note_on_c, 7, 76, 100
11, 52939, Control_c, 7, 11, 85
11, 52999, Control_c, 7, 11, 84
11, 53060, Control_c, 7, 11, 83
11, 53120, Control_c, 7, 11, 82
11, 53181, Control_c, 7, 11, 81
11, 53219, Note_on_c, 7, 76, 0
11, 53220, Note_on_c, 7, 76, 100
11, 53241, Control_c, 7, 11, 80
11, 53249, Note_on_c, 7, 76, 0
11, 53250, Note_on_c, 7, 74, 100
11, 53279, Note_on_c, 7, 74, 0
11, 53280, Note_on_c, 7, 76, 100
11, 53302, Control_c, 7, 11, 79
11, 53309, Note_on_c, 7, 76, 0
11, 53310, Note_on_c, 7, 74, 100
11, 53362, Control_c, 7, 11, 78
11, 53369, Note_on_c, 7, 74, 0
11, 53370, Note_on_c, 7, 72, 100
11, 53423, Control_c, 7, 11, 77
11, 53483, Control_c, 7, 11, 76
11, 53520, Note_on_c, 7, 71, 100
11, 53529, Note_on_c, 7, 72, 0
11, 53544, Control_c, 7, 11, 75
11, 53599, Note_on_c, 7, 71, 0
11, 53604, Control_c, 7, 11, 74
11, 53610, Note_on_c, 7, 72, 100
11, 53654, Note_on_c, 7, 72, 0
11, 53665, Control_c, 7, 11, 73
11, 53680, Note_on_c, 7, 72, 100
11, 53700, Note_on_c, 7, 71, 100
11, 53709, Note_on_c, 7, 72, 0
11, 53725, Control_c, 7, 11, 72
11, 53760, Note_on_c, 7, 69, 100
11, 53779, Note_on_c, 7, 71, 0
11, 53786, Control_c, 7, 11, 71
11, 53846, Control_c, 7, 11, 70
11, 53879, Note_on_c, 7, 69, 0
11, 53880, Note_on_c, 7, 81, 100
11, 53906, Control_c, 7, 11, 69
11, 53967, Control_c, 7, 11, 68
11, 53999, Note_on_c, 7, 81, 0
11, 54027, Control_c, 7, 11, 67
11, 54088, Control_c, 7, 11, 66
11, 54148, Control_c, 7, 11, 65
11, 54209, Control_c, 7, 11, 64
11, 54240, Note_on_c, 7, 79, 100
11, 54269, Control_c, 7, 11, 63
11, 54330, Control_c, 7, 11, 62
11, 54390, Control_c, 7, 11, 61
11, 54451, Control_c, 7, 11, 60
11, 54511, Control_c, 7, 11, 59
11, 54572, Control_c, 7, 11, 58
11, 54632, Control_c, 7, 11, 57
11, 54692, Control_c, 7, 11, 56
11, 54719, Note_on_c, 7, 79, 0
11, 54720, Note_on_c, 7, 72, 100
11, 54753, Control_c, 7, 11, 55
11, 54813, Control_c, 7, 11, 54
11, 54874, Control_c, 7, 11, 53
11, 54934, Control_c, 7, 11, 52
11, 54959, Note_on_c, 7, 72, 0
11, 54960, Note_on_c, 7, 71, 100
11, 54995, Control_c, 7, 11, 51
11, 55055, Control_c, 7, 11, 50
11, 55116, Control_c, 7, 11, 49
11, 55176, Control_c, 7, 11, 48
11, 55199, Note_on_c, 7, 71, 0
11, 55200, Note_on_c, 7, 69, 100
11, 55237, Control_c, 7, 11, 47
11, 55297, Control_c, 7, 11, 46
11, 55358, Control_c, 7, 11, 45
11, 55409, Note_on_c, 7, 69, 0
11, 55418, Control_c, 7, 11, 44
11, 55420, Note_on_c, 7, 64, 100
11, 55440, Note_on_c, 7, 69, 100
11, 55449, Note_on_c, 7, 64, 0
11, 55479, Note_on_c, 7, 69, 0
11, 55479, Control_c, 7, 11, 43
11, 55480, Note_on_c, 7, 71, 100
11, 55509, Note_on_c, 7, 71, 0
11, 55539, Control_c, 7, 11, 42
11, 55540, Note_on_c, 7, 72, 100
11, 55579, Note_on_c, 7, 72, 0
11, 55599, Control_c, 7, 11, 41
11, 55600, Note_on_c, 7, 69, 100
11, 55619, Note_on_c, 7, 69, 0
11, 55660, Control_c, 7, 11, 40
11, 55660, Note_on_c, 7, 74, 100
11, 55720, Note_on_c, 7, 74, 0
11, 55720, Control_c, 7, 11, 39
11, 55781, Control_c, 7, 11, 38
11, 55841, Control_c, 7, 11, 37
11, 55902, Control_c, 7, 11, 36
11, 55962, Control_c, 7, 11, 35
11, 56023, Control_c, 7, 11, 34
11, 56083, Control_c, 7, 11, 33
11, 56144, Control_c, 7, 11, 32
11, 56160, Note_on_c, 7, 78, 100
11, 56204, Control_c, 7, 11, 31
11, 56265, Control_c, 7, 11, 30
11, 56325, Control_c, 7, 11, 29
11, 56385, Control_c, 7, 11, 28
11, 56446, Control_c, 7, 11, 27
11, 56506, Control_c, 7, 11, 26
11, 56567, Control_c, 7, 11, 25
11, 56579, Note_on_c, 7, 78, 0
11, 56580, Note_on_c, 7, 76, 100
11, 56609, Note_on_c, 7, 76, 0
11, 56610, Note_on_c, 7, 78, 100
11, 56627, Control_c, 7, 11, 24
11, 56639, Note_on_c, 7, 78, 0
11, 56640, Note_on_c, 7, 79, 100
11, 56688, Control_c, 7, 11, 23
11, 56699, Note_on_c, 7, 79, 0
11, 56700, Note_on_c, 7, 78, 100
11, 56729, Note_on_c, 7, 78, 0
11, 56730, Note_on_c, 7, 76, 100
11, 56748, Control_c, 7, 11, 22
11, 56809, Control_c, 7, 11, 21
11, 56869, Control_c, 7, 11, 20
11, 56930, Control_c, 7, 11, 19
11, 56990, Control_c, 7, 11, 18
11, 57051, Control_c, 7, 11, 17
11, 57059, Note_on_c, 7, 76, 0
11, 57060, Note_on_c, 7, 76, 100
11, 57089, Note_on_c, 7, 76, 0
11, 57090, Note_on_c, 7, 74, 100
11, 57111, Control_c, 7, 11, 16
11, 57119, Note_on_c, 7, 74, 0
11, 57120, Note_on_c, 7, 76, 100
11, 57149, Note_on_c, 7, 76, 0
11, 57150, Note_on_c, 7, 74, 100
11, 57172, Control_c, 7, 11, 15
11, 57209, Note_on_c, 7, 74, 0
11, 57210, Note_on_c, 7, 72, 100
11, 57232, Control_c, 7, 11, 14
11, 57292, Control_c, 7, 11, 13
11, 57353, Control_c, 7, 11, 12
11, 57360, Note_on_c, 7, 71, 100
11, 57369, Note_on_c, 7, 72, 0
11, 57413, Control_c, 7, 11, 11
11, 57439, Note_on_c, 7, 71, 0
11, 57440, Note_on_c, 7, 72, 100
11, 57474, Control_c, 7, 11, 10
11, 57519, Note_on_c, 7, 72, 0
11, 57520, Note_on_c, 7, 71, 100
11, 57534, Control_c, 7, 11, 9
11, 57595, Control_c, 7, 11, 8
11, 57599, Note_on_c, 7, 71, 0
11, 57600, Note_on_c, 7, 69, 100
11, 57655, Control_c, 7, 11, 7
11, 57716, Control_c, 7, 11, 6
11, 57719, Note_on_c, 7, 69, 0
11, 57720, Note_on_c, 7, 81, 100
11, 57776, Control_c, 7, 11, 5
11, 57837, Control_c, 7, 11, 4
11, 57839, Note_on_c, 7, 81, 0
11, 57897, Control_c, 7, 11, 3
11, 57958, Control_c, 7, 11, 2
11, 58018, Control_c, 7, 11, 1
11, 58079, Control_c, 7, 11, 0
11, 58079, End_track
12, 0, Start_track
12, 0, MIDI_port, 0
12, 0, Title_t, "piano echo1"
12, 0, Control_c, 0, 0, 0
12, 0, Program_c, 0, 0
12, 0, Control_c, 0, 7, 100
12, 0, Control_c, 0, 10, 30
12, 60, Control_c, 0, 91, 127
12, 60, Control_c, 0, 93, 10
12, 60, Control_c, 0, 11, 127
12, 600, Note_on_c, 0, 79, 60
12, 899, Note_on_c, 0, 79, 0
12, 900, Note_on_c, 0, 69, 60
12, 959, Note_on_c, 0, 69, 0
12, 960, Note_on_c, 0, 79, 60
12, 1019, Note_on_c, 0, 79, 0
12, 1020, Note_on_c, 0, 77, 60
12, 1379, Note_on_c, 0, 77, 0
12, 1380, Note_on_c, 0, 69, 60
12, 1439, Note_on_c, 0, 69, 0
12, 1440, Note_on_c, 0, 77, 60
12, 1499, Note_on_c, 0, 77, 0
12, 1500, Note_on_c, 0, 76, 60
12, 1859, Note_on_c, 0, 76, 0
12, 1860, Note_on_c, 0, 69, 60
12, 1919, Note_on_c, 0, 69, 0
12, 1920, Note_on_c, 0, 76, 60
12, 1979, Note_on_c, 0, 76, 0
12, 1980, Note_on_c, 0, 74, 60
12, 2219, Note_on_c, 0, 74, 0
12, 2220, Note_on_c, 0, 69, 60
12, 2279, Note_on_c, 0, 69, 0
12, 2280, Note_on_c, 0, 74, 60
12, 2339, Note_on_c, 0, 74, 0
12, 2340, Note_on_c, 0, 76, 60
12, 2399, Note_on_c, 0, 76, 0
12, 2400, Note_on_c, 0, 77, 60
12, 2459, Note_on_c, 0, 77, 0
12, 2460, Note_on_c, 0, 74, 60
12, 2519, Note_on_c, 0, 74, 0
12, 2520, Note_on_c, 0, 79, 60
12, 2819, Note_on_c, 0, 79, 0
12, 2820, Note_on_c, 0, 69, 60
12, 2879, Note_on_c, 0, 69, 0
12, 2880, Note_on_c, 0, 79, 60
12, 2939, Note_on_c, 0, 79, 0
12, 2940, Note_on_c, 0, 77, 60
12, 3299, Note_on_c, 0, 77, 0
12, 3300, Note_on_c, 0, 69, 60
12, 3359, Note_on_c, 0, 69, 0
12, 3360, Note_on_c, 0, 77, 60
12, 3419, Note_on_c, 0, 77, 0
12, 3420, Note_on_c, 0, 76, 60
12, 3779, Note_on_c, 0, 76, 0
12, 3780, Note_on_c, 0, 69, 60
12, 3839, Note_on_c, 0, 69, 0
12, 3840, Note_on_c, 0, 76, 60
12, 3899, Note_on_c, 0, 76, 0
12, 3900, Note_on_c, 0, 74, 60
12, 4139, Note_on_c, 0, 74, 0
12, 4140, Note_on_c, 0, 69, 60
12, 4199, Note_on_c, 0, 69, 0
12, 4200, Note_on_c, 0, 74, 60
12, 4259, Note_on_c, 0, 74, 0
12, 4260, Note_on_c, 0, 76, 60
12, 4319, Note_on_c, 0, 76, 0
12, 4320, Note_on_c, 0, 77, 60
12, 4379, Note_on_c, 0, 77, 0
12, 4380, Note_on_c, 0, 74, 60
12, 4439, Note_on_c, 0, 74, 0
12, 4440, Note_on_c, 0, 79, 60
12, 4739, Note_on_c, 0, 79, 0
12, 4740, Note_on_c, 0, 69, 60
12, 4799, Note_on_c, 0, 69, 0
12, 4800, Note_on_c, 0, 79, 60
12, 4859, Note_on_c, 0, 79, 0
12, 4860, Note_on_c, 0, 77, 60
12, 5219, Note_on_c, 0, 77, 0
12, 5220, Note_on_c, 0, 69, 60
12, 5279, Note_on_c, 0, 69, 0
12, 5280, Note_on_c, 0, 77, 60
12, 5339, Note_on_c, 0, 77, 0
12, 5340, Note_on_c, 0, 76, 60
12, 5699, Note_on_c, 0, 76, 0
12, 5700, Note_on_c, 0, 69, 60
12, 5759, Note_on_c, 0, 69, 0
12, 5760, Note_on_c, 0, 76, 60
12, 5819, Note_on_c, 0, 76, 0
12, 5820, Note_on_c, 0, 74, 60
12, 6059, Note_on_c, 0, 74, 0
12, 6060, Note_on_c, 0, 69, 60
12, 6119, Note_on_c, 0, 69, 0
12, 6120, Note_on_c, 0, 74, 60
12, 6179, Note_on_c, 0, 74, 0
12, 6180, Note_on_c, 0, 76, 60
12, 6239, Note_on_c, 0, 76, 0
12, 6240, Note_on_c, 0, 77, 60
12, 6299, Note_on_c, 0, 77, 0
12, 6300, Note_on_c, 0, 74, 60
12, 6359, Note_on_c, 0, 74, 0
12, 6360, Note_on_c, 0, 79, 60
12, 6659, Note_on_c, 0, 79, 0
12, 6660, Note_on_c, 0, 69, 60
12, 6719, Note_on_c, 0, 69, 0
12, 6720, Note_on_c, 0, 79, 60
12, 6779, Note_on_c, 0, 79, 0
12, 6780, Note_on_c, 0, 77, 60
12, 7139, Note_on_c, 0, 77, 0
12, 7140, Note_on_c, 0, 69, 60
12, 7199, Note_on_c, 0, 69, 0
12, 7200, Note_on_c, 0, 77, 60
12, 7259, Note_on_c, 0, 77, 0
12, 7260, Note_on_c, 0, 76, 60
12, 7619, Note_on_c, 0, 76, 0
12, 7620, Note_on_c, 0, 69, 60
12, 7679, Note_on_c, 0, 69, 0
12, 7680, Note_on_c, 0, 76, 60
12, 7739, Note_on_c, 0, 76, 0
12, 7740, Note_on_c, 0, 74, 60
12, 7979, Note_on_c, 0, 74, 0
12, 7980, Note_on_c, 0, 74, 60
12, 8039, Note_on_c, 0, 74, 0
12, 8040, Note_on_c, 0, 76, 60
12, 8099, Note_on_c, 0, 76, 0
12, 8100, Note_on_c, 0, 77, 60
12, 8159, Note_on_c, 0, 77, 0
12, 8160, Note_on_c, 0, 79, 60
12, 8219, Note_on_c, 0, 79, 0
12, 8220, Note_on_c, 0, 81, 60
12, 8279, Note_on_c, 0, 81, 0
12, 8280, Note_on_c, 0, 86, 60
12, 8759, Note_on_c, 0, 86, 0
12, 14940, Note_on_c, 0, 60, 60
12, 14999, Note_on_c, 0, 60, 0
12, 15000, Note_on_c, 0, 58, 60
12, 15080, Note_on_c, 0, 60, 60
12, 15089, Note_on_c, 0, 58, 0
12, 15160, Note_on_c, 0, 62, 60
12, 15169, Note_on_c, 0, 60, 0
12, 15239, Note_on_c, 0, 62, 0
12, 15240, Note_on_c, 0, 65, 60
12, 15320, Note_on_c, 0, 62, 60
12, 15329, Note_on_c, 0, 65, 0
12, 15400, Note_on_c, 0, 58, 60
12, 15409, Note_on_c, 0, 62, 0
12, 15479, Note_on_c, 0, 58, 0
12, 15480, Note_on_c, 0, 60, 60
12, 15539, Note_on_c, 0, 60, 0
12, 15570, Note_on_c, 0, 62, 60
12, 15629, Note_on_c, 0, 62, 0
12, 15660, Note_on_c, 0, 64, 60
12, 15719, Note_on_c, 0, 64, 0
12, 15750, Note_on_c, 0, 67, 60
12, 15779, Note_on_c, 0, 67, 0
12, 15780, Note_on_c, 0, 64, 60
12, 15839, Note_on_c, 0, 64, 0
12, 15840, Note_on_c, 0, 60, 60
12, 15899, Note_on_c, 0, 60, 0
12, 15900, Note_on_c, 0, 67, 60
12, 15959, Note_on_c, 0, 67, 0
12, 15960, Note_on_c, 0, 65, 60
12, 16379, Note_on_c, 0, 65, 0
12, 16380, Note_on_c, 0, 60, 60
12, 16909, Note_on_c, 0, 60, 0
12, 16920, Note_on_c, 0, 67, 60
12, 17309, Note_on_c, 0, 67, 0
12, 17340, Note_on_c, 0, 64, 60
12, 17849, Note_on_c, 0, 64, 0
12, 17880, Note_on_c, 0, 72, 60
12, 18269, Note_on_c, 0, 72, 0
12, 18300, Note_on_c, 0, 72, 60
12, 18309, Note_on_c, 0, 72, 0
12, 18320, Note_on_c, 0, 70, 60
12, 18329, Note_on_c, 0, 70, 0
12, 18340, Note_on_c, 0, 69, 60
12, 18349, Note_on_c, 0, 69, 0
12, 18360, Note_on_c, 0, 70, 60
12, 18599, Note_on_c, 0, 70, 0
12, 18660, Note_on_c, 0, 69, 60
12, 18679, Note_on_c, 0, 69, 0
12, 18720, Note_on_c, 0, 70, 60
12, 18739, Note_on_c, 0, 70, 0
12, 18780, Note_on_c, 0, 72, 60
12, 18799, Note_on_c, 0, 72, 0
12, 18810, Note_on_c, 0, 67, 60
12, 19199, Note_on_c, 0, 67, 0
12, 19250, Note_on_c, 0, 72, 60
12, 19620, Note_on_c, 0, 65, 60
12, 19639, Note_on_c, 0, 72, 0
12, 19649, Note_on_c, 0, 65, 0
12, 19650, Note_on_c, 0, 64, 60
12, 19679, Note_on_c, 0, 64, 0
12, 19740, Note_on_c, 0, 65, 60
12, 19769, Note_on_c, 0, 65, 0
12, 19770, Note_on_c, 0, 64, 60
12, 19799, Note_on_c, 0, 64, 0
12, 19800, Note_on_c, 0, 62, 60
12, 19859, Note_on_c, 0, 62, 0
12, 19880, Note_on_c, 0, 64, 60
12, 19939, Note_on_c, 0, 64, 0
12, 19960, Note_on_c, 0, 65, 60
12, 20019, Note_on_c, 0, 65, 0
12, 20040, Note_on_c, 0, 67, 60
12, 20099, Note_on_c, 0, 67, 0
12, 20120, Note_on_c, 0, 65, 60
12, 20179, Note_on_c, 0, 65, 0
12, 20200, Note_on_c, 0, 67, 60
12, 20259, Note_on_c, 0, 67, 0
12, 20280, Note_on_c, 0, 69, 60
12, 20339, Note_on_c, 0, 69, 0
12, 20360, Note_on_c, 0, 67, 60
12, 20419, Note_on_c, 0, 67, 0
12, 20440, Note_on_c, 0, 69, 60
12, 20499, Note_on_c, 0, 69, 0
12, 20520, Note_on_c, 0, 72, 60
12, 20579, Note_on_c, 0, 72, 0
12, 20600, Note_on_c, 0, 69, 60
12, 20659, Note_on_c, 0, 69, 0
12, 20680, Note_on_c, 0, 72, 60
12, 20739, Note_on_c, 0, 72, 0
12, 20760, Note_on_c, 0, 74, 60
12, 20819, Note_on_c, 0, 74, 0
12, 23580, Note_on_c, 0, 60, 60
12, 23639, Note_on_c, 0, 60, 0
12, 23640, Note_on_c, 0, 58, 60
12, 23720, Note_on_c, 0, 60, 60
12, 23729, Note_on_c, 0, 58, 0
12, 23800, Note_on_c, 0, 62, 60
12, 23809, Note_on_c, 0, 60, 0
12, 23879, Note_on_c, 0, 62, 0
12, 23880, Note_on_c, 0, 65, 60
12, 23960, Note_on_c, 0, 62, 60
12, 23969, Note_on_c, 0, 65, 0
12, 24040, Note_on_c, 0, 58, 60
12, 24049, Note_on_c, 0, 62, 0
12, 24119, Note_on_c, 0, 58, 0
12, 24120, Note_on_c, 0, 60, 60
12, 24179, Note_on_c, 0, 60, 0
12, 24210, Note_on_c, 0, 62, 60
12, 24269, Note_on_c, 0, 62, 0
12, 24300, Note_on_c, 0, 64, 60
12, 24359, Note_on_c, 0, 64, 0
12, 24390, Note_on_c, 0, 67, 60
12, 24419, Note_on_c, 0, 67, 0
12, 24420, Note_on_c, 0, 64, 60
12, 24479, Note_on_c, 0, 64, 0
12, 24480, Note_on_c, 0, 60, 60
12, 24539, Note_on_c, 0, 60, 0
12, 24540, Note_on_c, 0, 67, 60
12, 24599, Note_on_c, 0, 67, 0
12, 24600, Note_on_c, 0, 65, 60
12, 25019, Note_on_c, 0, 65, 0
12, 25020, Note_on_c, 0, 60, 60
12, 25549, Note_on_c, 0, 60, 0
12, 25560, Note_on_c, 0, 67, 60
12, 25949, Note_on_c, 0, 67, 0
12, 25980, Note_on_c, 0, 64, 60
12, 26489, Note_on_c, 0, 64, 0
12, 26520, Note_on_c, 0, 72, 60
12, 26909, Note_on_c, 0, 72, 0
12, 26940, Note_on_c, 0, 72, 60
12, 26949, Note_on_c, 0, 72, 0
12, 26960, Note_on_c, 0, 70, 60
12, 26969, Note_on_c, 0, 70, 0
12, 26980, Note_on_c, 0, 69, 60
12, 26989, Note_on_c, 0, 69, 0
12, 27000, Note_on_c, 0, 70, 60
12, 27239, Note_on_c, 0, 70, 0
12, 27300, Note_on_c, 0, 69, 60
12, 27319, Note_on_c, 0, 69, 0
12, 27360, Note_on_c, 0, 70, 60
12, 27379, Note_on_c, 0, 70, 0
12, 27420, Note_on_c, 0, 72, 60
12, 27439, Note_on_c, 0, 72, 0
12, 27450, Note_on_c, 0, 67, 60
12, 27839, Note_on_c, 0, 67, 0
12, 27900, Note_on_c, 0, 72, 60
12, 28429, Note_on_c, 0, 72, 0
12, 28440, Note_on_c, 0, 65, 60
12, 28859, Note_on_c, 0, 65, 0
12, 28860, Note_on_c, 0, 58, 60
12, 29389, Note_on_c, 0, 58, 0
12, 29400, Note_on_c, 0, 67, 60
12, 29789, Note_on_c, 0, 67, 0
12, 29820, Note_on_c, 0, 64, 60
12, 30329, Note_on_c, 0, 64, 0
12, 32360, Note_on_c, 0, 70, 60
12, 32400, Note_on_c, 0, 70, 0
12, 32440, Note_on_c, 0, 69, 60
12, 32500, Note_on_c, 0, 69, 0
12, 32520, Note_on_c, 0, 70, 60
12, 32580, Note_on_c, 0, 70, 0
12, 32600, Note_on_c, 0, 69, 60
12, 32660, Note_on_c, 0, 69, 0
12, 32680, Note_on_c, 0, 70, 60
12, 32740, Note_on_c, 0, 70, 0
12, 32760, Note_on_c, 0, 72, 60
12, 32820, Note_on_c, 0, 72, 0
12, 32840, Note_on_c, 0, 70, 60
12, 32900, Note_on_c, 0, 70, 0
12, 32920, Note_on_c, 0, 69, 60
12, 32980, Note_on_c, 0, 69, 0
12, 33000, Note_on_c, 0, 70, 60
12, 33060, Note_on_c, 0, 70, 0
12, 33080, Note_on_c, 0, 69, 60
12, 33140, Note_on_c, 0, 69, 0
12, 33160, Note_on_c, 0, 67, 60
12, 33220, Note_on_c, 0, 67, 0
12, 33240, Note_on_c, 0, 65, 60
12, 33300, Note_on_c, 0, 65, 0
12, 33320, Note_on_c, 0, 64, 60
12, 33380, Note_on_c, 0, 64, 0
12, 33400, Note_on_c, 0, 65, 60
12, 33460, Note_on_c, 0, 65, 0
12, 33480, Note_on_c, 0, 67, 60
12, 33540, Note_on_c, 0, 67, 0
12, 33560, Note_on_c, 0, 65, 60
12, 33620, Note_on_c, 0, 65, 0
12, 33640, Note_on_c, 0, 62, 60
12, 33700, Note_on_c, 0, 62, 0
12, 33720, Note_on_c, 0, 60, 60
12, 33780, Note_on_c, 0, 60, 0
12, 33800, Note_on_c, 0, 55, 60
12, 33860, Note_on_c, 0, 55, 0
12, 33880, Note_on_c, 0, 60, 60
12, 33940, Note_on_c, 0, 60, 0
12, 33960, Note_on_c, 0, 64, 60
12, 34020, Note_on_c, 0, 64, 0
12, 34040, Note_on_c, 0, 60, 60
12, 34100, Note_on_c, 0, 60, 0
12, 34120, Note_on_c, 0, 64, 60
12, 34180, Note_on_c, 0, 64, 0
12, 34200, Note_on_c, 0, 67, 60
12, 34260, Note_on_c, 0, 67, 0
12, 34280, Note_on_c, 0, 64, 60
12, 34340, Note_on_c, 0, 64, 0
12, 34360, Note_on_c, 0, 72, 60
12, 34420, Note_on_c, 0, 72, 0
12, 34440, Note_on_c, 0, 76, 60
12, 34500, Note_on_c, 0, 76, 0
12, 34520, Note_on_c, 0, 77, 60
12, 34580, Note_on_c, 0, 77, 0
12, 34600, Note_on_c, 0, 79, 60
12, 34660, Note_on_c, 0, 79, 0
12, 34680, Note_on_c, 0, 65, 60
12, 34680, Note_on_c, 0, 77, 60
12, 34739, Note_on_c, 0, 65, 0
12, 35159, Note_on_c, 0, 77, 0
12, 35160, Note_on_c, 0, 70, 60
12, 35399, Note_on_c, 0, 70, 0
12, 35400, Note_on_c, 0, 69, 60
12, 35639, Note_on_c, 0, 69, 0
12, 35640, Note_on_c, 0, 67, 60
12, 35849, Note_on_c, 0, 67, 0
12, 35860, Note_on_c, 0, 62, 60
12, 35880, Note_on_c, 0, 67, 60
12, 35889, Note_on_c, 0, 62, 0
12, 35909, Note_on_c, 0, 67, 0
12, 35920, Note_on_c, 0, 69, 60
12, 35949, Note_on_c, 0, 69, 0
12, 35980, Note_on_c, 0, 70, 60
12, 36009, Note_on_c, 0, 70, 0
12, 36040, Note_on_c, 0, 67, 60
12, 36069, Note_on_c, 0, 67, 0
12, 36100, Note_on_c, 0, 72, 60
12, 36160, Note_on_c, 0, 72, 0
12, 36600, Note_on_c, 0, 76, 60
12, 37019, Note_on_c, 0, 76, 0
12, 37020, Note_on_c, 0, 74, 60
12, 37049, Note_on_c, 0, 74, 0
12, 37050, Note_on_c, 0, 76, 60
12, 37079, Note_on_c, 0, 76, 0
12, 37080, Note_on_c, 0, 77, 60
12, 37139, Note_on_c, 0, 77, 0
12, 37140, Note_on_c, 0, 76, 60
12, 37169, Note_on_c, 0, 76, 0
12, 37170, Note_on_c, 0, 74, 60
12, 37499, Note_on_c, 0, 74, 0
12, 37500, Note_on_c, 0, 74, 60
12, 37529, Note_on_c, 0, 74, 0
12, 37530, Note_on_c, 0, 72, 60
12, 37559, Note_on_c, 0, 72, 0
12, 37560, Note_on_c, 0, 74, 60
12, 37589, Note_on_c, 0, 74, 0
12, 37590, Note_on_c, 0, 72, 60
12, 37649, Note_on_c, 0, 72, 0
12, 37650, Note_on_c, 0, 70, 60
12, 37800, Note_on_c, 0, 69, 60
12, 37809, Note_on_c, 0, 70, 0
12, 37879, Note_on_c, 0, 69, 0
12, 37890, Note_on_c, 0, 70, 60
12, 37919, Note_on_c, 0, 70, 0
12, 37960, Note_on_c, 0, 70, 60
12, 37980, Note_on_c, 0, 69, 60
12, 37989, Note_on_c, 0, 70, 0
12, 38040, Note_on_c, 0, 67, 60
12, 38059, Note_on_c, 0, 69, 0
12, 38159, Note_on_c, 0, 67, 0
12, 38160, Note_on_c, 0, 79, 60
12, 38279, Note_on_c, 0, 79, 0
12, 40520, Note_on_c, 0, 70, 60
12, 40560, Note_on_c, 0, 70, 0
12, 40600, Note_on_c, 0, 69, 60
12, 40660, Note_on_c, 0, 69, 0
12, 40680, Note_on_c, 0, 70, 60
12, 40740, Note_on_c, 0, 70, 0
12, 40760, Note_on_c, 0, 69, 60
12, 40820, Note_on_c, 0, 69, 0
12, 40840, Note_on_c, 0, 70, 60
12, 40900, Note_on_c, 0, 70, 0
12, 40920, Note_on_c, 0, 72, 60
12, 40980, Note_on_c, 0, 72, 0
12, 41000, Note_on_c, 0, 70, 60
12, 41060, Note_on_c, 0, 70, 0
12, 41080, Note_on_c, 0, 69, 60
12, 41140, Note_on_c, 0, 69, 0
12, 41160, Note_on_c, 0, 70, 60
12, 41220, Note_on_c, 0, 70, 0
12, 41240, Note_on_c, 0, 69, 60
12, 41300, Note_on_c, 0, 69, 0
12, 41320, Note_on_c, 0, 67, 60
12, 41380, Note_on_c, 0, 67, 0
12, 41400, Note_on_c, 0, 65, 60
12, 41460, Note_on_c, 0, 65, 0
12, 41480, Note_on_c, 0, 64, 60
12, 41540, Note_on_c, 0, 64, 0
12, 41560, Note_on_c, 0, 65, 60
12, 41620, Note_on_c, 0, 65, 0
12, 41640, Note_on_c, 0, 67, 60
12, 41700, Note_on_c, 0, 67, 0
12, 41720, Note_on_c, 0, 65, 60
12, 41780, Note_on_c, 0, 65, 0
12, 41800, Note_on_c, 0, 62, 60
12, 41860, Note_on_c, 0, 62, 0
12, 41880, Note_on_c, 0, 60, 60
12, 41940, Note_on_c, 0, 60, 0
12, 41960, Note_on_c, 0, 55, 60
12, 42020, Note_on_c, 0, 55, 0
12, 42040, Note_on_c, 0, 60, 60
12, 42100, Note_on_c, 0, 60, 0
12, 42120, Note_on_c, 0, 64, 60
12, 42180, Note_on_c, 0, 64, 0
12, 42200, Note_on_c, 0, 60, 60
12, 42260, Note_on_c, 0, 60, 0
12, 42280, Note_on_c, 0, 64, 60
12, 42340, Note_on_c, 0, 64, 0
12, 42360, Note_on_c, 0, 67, 60
12, 42420, Note_on_c, 0, 67, 0
12, 42440, Note_on_c, 0, 64, 60
12, 42500, Note_on_c, 0, 64, 0
12, 42520, Note_on_c, 0, 72, 60
12, 42580, Note_on_c, 0, 72, 0
12, 42600, Note_on_c, 0, 76, 60
12, 42660, Note_on_c, 0, 76, 0
12, 42680, Note_on_c, 0, 77, 60
12, 42740, Note_on_c, 0, 77, 0
12, 42760, Note_on_c, 0, 79, 60
12, 42820, Note_on_c, 0, 79, 0
12, 42840, Note_on_c, 0, 79, 60
12, 43319, Note_on_c, 0, 79, 0
12, 43320, Note_on_c, 0, 72, 60
12, 43559, Note_on_c, 0, 72, 0
12, 43560, Note_on_c, 0, 71, 60
12, 43799, Note_on_c, 0, 71, 0
12, 43800, Note_on_c, 0, 69, 60
12, 44009, Note_on_c, 0, 69, 0
12, 44020, Note_on_c, 0, 64, 60
12, 44040, Note_on_c, 0, 69, 60
12, 44049, Note_on_c, 0, 64, 0
12, 44069, Note_on_c, 0, 69, 0
12, 44080, Note_on_c, 0, 71, 60
12, 44109, Note_on_c, 0, 71, 0
12, 44140, Note_on_c, 0, 72, 60
12, 44169, Note_on_c, 0, 72, 0
12, 44200, Note_on_c, 0, 69, 60
12, 44229, Note_on_c, 0, 69, 0
12, 44260, Note_on_c, 0, 74, 60
12, 44320, Note_on_c, 0, 74, 0
12, 44760, Note_on_c, 0, 78, 60
12, 45179, Note_on_c, 0, 78, 0
12, 45180, Note_on_c, 0, 76, 60
12, 45209, Note_on_c, 0, 76, 0
12, 45210, Note_on_c, 0, 78, 60
12, 45239, Note_on_c, 0, 78, 0
12, 45240, Note_on_c, 0, 79, 60
12, 45299, Note_on_c, 0, 79, 0
12, 45300, Note_on_c, 0, 78, 60
12, 45329, Note_on_c, 0, 78, 0
12, 45330, Note_on_c, 0, 76, 60
12, 45659, Note_on_c, 0, 76, 0
12, 45660, Note_on_c, 0, 76, 60
12, 45689, Note_on_c, 0, 76, 0
12, 45690, Note_on_c, 0, 74, 60
12, 45719, Note_on_c, 0, 74, 0
12, 45720, Note_on_c, 0, 76, 60
12, 45749, Note_on_c, 0, 76, 0
12, 45750, Note_on_c, 0, 74, 60
12, 45809, Note_on_c, 0, 74, 0
12, 45810, Note_on_c, 0, 72, 60
12, 45960, Note_on_c, 0, 71, 60
12, 45969, Note_on_c, 0, 72, 0
12, 46039, Note_on_c, 0, 71, 0
12, 46050, Note_on_c, 0, 72, 60
12, 46079, Note_on_c, 0, 72, 0
12, 46120, Note_on_c, 0, 72, 60
12, 46140, Note_on_c, 0, 71, 60
12, 46149, Note_on_c, 0, 72, 0
12, 46200, Note_on_c, 0, 69, 60
12, 46219, Note_on_c, 0, 71, 0
12, 46319, Note_on_c, 0, 69, 0
12, 46320, Note_on_c, 0, 81, 60
12, 46439, Note_on_c, 0, 81, 0
12, 46680, Note_on_c, 0, 79, 60
12, 47159, Note_on_c, 0, 79, 0
12, 47160, Note_on_c, 0, 72, 60
12, 47399, Note_on_c, 0, 72, 0
12, 47400, Note_on_c, 0, 71, 60
12, 47639, Note_on_c, 0, 71, 0
12, 47640, Note_on_c, 0, 69, 60
12, 47849, Note_on_c, 0, 69, 0
12, 47860, Note_on_c, 0, 64, 60
12, 47880, Note_on_c, 0, 69, 60
12, 47889, Note_on_c, 0, 64, 0
12, 47909, Note_on_c, 0, 69, 0
12, 47920, Note_on_c, 0, 71, 60
12, 47949, Note_on_c, 0, 71, 0
12, 47980, Note_on_c, 0, 72, 60
12, 48009, Note_on_c, 0, 72, 0
12, 48040, Note_on_c, 0, 69, 60
12, 48069, Note_on_c, 0, 69, 0
12, 48100, Note_on_c, 0, 74, 60
12, 48160, Note_on_c, 0, 74, 0
12, 48600, Note_on_c, 0, 78, 60
12, 49019, Note_on_c, 0, 78, 0
12, 49020, Note_on_c, 0, 76, 60
12, 49049, Note_on_c, 0, 76, 0
12, 49050, Note_on_c, 0, 78, 60
12, 49079, Note_on_c, 0, 78, 0
12, 49080, Note_on_c, 0, 79, 60
12, 49139, Note_on_c, 0, 79, 0
12, 49140, Note_on_c, 0, 78, 60
12, 49169, Note_on_c, 0, 78, 0
12, 49170, Note_on_c, 0, 76, 60
12, 49499, Note_on_c, 0, 76, 0
12, 49500, Note_on_c, 0, 76, 60
12, 49529, Note_on_c, 0, 76, 0
12, 49530, Note_on_c, 0, 74, 60
12, 49559, Note_on_c, 0, 74, 0
12, 49560, Note_on_c, 0, 76, 60
12, 49589, Note_on_c, 0, 76, 0
12, 49590, Note_on_c, 0, 74, 60
12, 49649, Note_on_c, 0, 74, 0
12, 49650, Note_on_c, 0, 72, 60
12, 49800, Note_on_c, 0, 71, 60
12, 49809, Note_on_c, 0, 72, 0
12, 49879, Note_on_c, 0, 71, 0
12, 49880, Note_on_c, 0, 72, 60
12, 49959, Note_on_c, 0, 72, 0
12, 49960, Note_on_c, 0, 71, 60
12, 50039, Note_on_c, 0, 71, 0
12, 50040, Note_on_c, 0, 69, 60
12, 50159, Note_on_c, 0, 69, 0
12, 50160, Note_on_c, 0, 81, 60
12, 50279, Note_on_c, 0, 81, 0
12, 50460, Control_c, 0, 11, 127
12, 50520, Control_c, 0, 11, 126
12, 50520, Note_on_c, 0, 79, 60
12, 50580, Control_c, 0, 11, 125
12, 50641, Control_c, 0, 11, 124
12, 50701, Control_c, 0, 11, 123
12, 50762, Control_c, 0, 11, 122
12, 50822, Control_c, 0, 11, 121
12, 50883, Control_c, 0, 11, 120
12, 50943, Control_c, 0, 11, 119
12, 50999, Note_on_c, 0, 79, 0
12, 51000, Note_on_c, 0, 72, 60
12, 51004, Control_c, 0, 11, 118
12, 51064, Control_c, 0, 11, 117
12, 51125, Control_c, 0, 11, 116
12, 51185, Control_c, 0, 11, 115
12, 51239, Note_on_c, 0, 72, 0
12, 51240, Note_on_c, 0, 71, 60
12, 51246, Control_c, 0, 11, 114
12, 51306, Control_c, 0, 11, 113
12, 51366, Control_c, 0, 11, 112
12, 51427, Control_c, 0, 11, 111
12, 51479, Note_on_c, 0, 71, 0
12, 51480, Note_on_c, 0, 69, 60
12, 51487, Control_c, 0, 11, 110
12, 51548, Control_c, 0, 11, 109
12, 51608, Control_c, 0, 11, 108
12, 51669, Control_c, 0, 11, 107
12, 51689, Note_on_c, 0, 69, 0
12, 51700, Note_on_c, 0, 64, 60
12, 51720, Note_on_c, 0, 69, 60
12, 51729, Note_on_c, 0, 64, 0
12, 51729, Control_c, 0, 11, 106
12, 51749, Note_on_c, 0, 69, 0
12, 51760, Note_on_c, 0, 71, 60
12, 51779, Note_on_c, 0, 71, 0
12, 51790, Control_c, 0, 11, 105
12, 51820, Note_on_c, 0, 72, 60
12, 51849, Note_on_c, 0, 72, 0
12, 51850, Control_c, 0, 11, 104
12, 51880, Note_on_c, 0, 69, 60
12, 51909, Note_on_c, 0, 69, 0
12, 51911, Control_c, 0, 11, 103
12, 51940, Note_on_c, 0, 74, 60
12, 51971, Control_c, 0, 11, 102
12, 52000, Note_on_c, 0, 74, 0
12, 52032, Control_c, 0, 11, 101
12, 52092, Control_c, 0, 11, 100
12, 52153, Control_c, 0, 11, 99
12, 52213, Control_c, 0, 11, 98
12, 52273, Control_c, 0, 11, 97
12, 52334, Control_c, 0, 11, 96
12, 52394, Control_c, 0, 11, 95
12, 52440, Note_on_c, 0, 78, 60
12, 52455, Control_c, 0, 11, 94
12, 52515, Control_c, 0, 11, 93
12, 52576, Control_c, 0, 11, 92
12, 52636, Control_c, 0, 11, 91
12, 52697, Control_c, 0, 11, 90
12, 52757, Control_c, 0, 11, 89
12, 52818, Control_c, 0, 11, 88
12, 52859, Note_on_c, 0, 78, 0
12, 52860, Note_on_c, 0, 76, 60
12, 52878, Control_c, 0, 11, 87
12, 52889, Note_on_c, 0, 76, 0
12, 52890, Note_on_c, 0, 78, 60
12, 52919, Note_on_c, 0, 78, 0
12, 52920, Note_on_c, 0, 79, 60
12, 52939, Control_c, 0, 11, 86
12, 52979, Note_on_c, 0, 79, 0
12, 52980, Note_on_c, 0, 78, 60
12, 52999, Control_c, 0, 11, 85
12, 53009, Note_on_c, 0, 78, 0
12, 53010, Note_on_c, 0, 76, 60
12, 53059, Control_c, 0, 11, 84
12, 53120, Control_c, 0, 11, 83
12, 53180, Control_c, 0, 11, 82
12, 53241, Control_c, 0, 11, 81
12, 53301, Control_c, 0, 11, 80
12, 53339, Note_on_c, 0, 76, 0
12, 53340, Note_on_c, 0, 76, 60
12, 53362, Control_c, 0, 11, 79
12, 53369, Note_on_c, 0, 76, 0
12, 53370, Note_on_c, 0, 74, 60
12, 53399, Note_on_c, 0, 74, 0
12, 53400, Note_on_c, 0, 76, 60
12, 53422, Control_c, 0, 11, 78
12, 53429, Note_on_c, 0, 76, 0
12, 53430, Note_on_c, 0, 74, 60
12, 53483, Control_c, 0, 11, 77
12, 53489, Note_on_c, 0, 74, 0
12, 53490, Note_on_c, 0, 72, 60
12, 53543, Control_c, 0, 11, 76
12, 53604, Control_c, 0, 11, 75
12, 53640, Note_on_c, 0, 71, 60
12, 53649, Note_on_c, 0, 72, 0
12, 53664, Control_c, 0, 11, 74
12, 53719, Note_on_c, 0, 71, 0
12, 53720, Note_on_c, 0, 72, 60
12, 53725, Control_c, 0, 11, 73
12, 53785, Control_c, 0, 11, 72
12, 53799, Note_on_c, 0, 72, 0
12, 53800, Note_on_c, 0, 71, 60
12, 53846, Control_c, 0, 11, 71
12, 53879, Note_on_c, 0, 71, 0
12, 53880, Note_on_c, 0, 69, 60
12, 53906, Control_c, 0, 11, 70
12, 53966, Control_c, 0, 11, 69
12, 53999, Note_on_c, 0, 69, 0
12, 54000, Note_on_c, 0, 81, 60
12, 54027, Control_c, 0, 11, 68
12, 54087, Control_c, 0, 11, 67
12, 54119, Note_on_c, 0, 81, 0
12, 54148, Control_c, 0, 11, 66
12, 54208, Control_c, 0, 11, 65
12, 54269, Control_c, 0, 11, 64
12, 54329, Control_c, 0, 11, 63
12, 54360, Note_on_c, 0, 79, 60
12, 54390, Control_c, 0, 11, 62
12, 54450, Control_c, 0, 11, 61
12, 54511, Control_c, 0, 11, 60
12, 54571, Control_c, 0, 11, 59
12, 54632, Control_c, 0, 11, 58
12, 54692, Control_c, 0, 11, 57
12, 54752, Control_c, 0, 11, 56
12, 54813, Control_c, 0, 11, 55
12, 54839, Note_on_c, 0, 79, 0
12, 54840, Note_on_c, 0, 72, 60
12, 54873, Control_c, 0, 11, 54
12, 54934, Control_c, 0, 11, 53
12, 54994, Control_c, 0, 11, 52
12, 55055, Control_c, 0, 11, 51
12, 55079, Note_on_c, 0, 72, 0
12, 55080, Note_on_c, 0, 71, 60
12, 55115, Control_c, 0, 11, 50
12, 55176, Control_c, 0, 11, 49
12, 55236, Control_c, 0, 11, 48
12, 55297, Control_c, 0, 11, 47
12, 55319, Note_on_c, 0, 71, 0
12, 55320, Note_on_c, 0, 69, 60
12, 55357, Control_c, 0, 11, 46
12, 55418, Control_c, 0, 11, 45
12, 55478, Control_c, 0, 11, 44
12, 55529, Note_on_c, 0, 69, 0
12, 55539, Control_c, 0, 11, 43
12, 55540, Note_on_c, 0, 64, 60
12, 55560, Note_on_c, 0, 69, 60
12, 55569, Note_on_c, 0, 64, 0
12, 55599, Control_c, 0, 11, 42
12, 55600, Note_on_c, 0, 71, 60
12, 55620, Note_on_c, 0, 69, 0
12, 55659, Control_c, 0, 11, 41
12, 55660, Note_on_c, 0, 71, 0
12, 55660, Note_on_c, 0, 72, 60
12, 55720, Note_on_c, 0, 72, 0
12, 55720, Control_c, 0, 11, 40
12, 55720, Note_on_c, 0, 69, 60
12, 55780, Note_on_c, 0, 69, 0
12, 55780, Control_c, 0, 11, 39
12, 55780, Note_on_c, 0, 74, 60
12, 55840, Note_on_c, 0, 74, 0
12, 55841, Control_c, 0, 11, 38
12, 55901, Control_c, 0, 11, 37
12, 55962, Control_c, 0, 11, 36
12, 56022, Control_c, 0, 11, 35
12, 56083, Control_c, 0, 11, 34
12, 56143, Control_c, 0, 11, 33
12, 56204, Control_c, 0, 11, 32
12, 56264, Control_c, 0, 11, 31
12, 56280, Note_on_c, 0, 78, 60
12, 56325, Control_c, 0, 11, 30
12, 56385, Control_c, 0, 11, 29
12, 56445, Control_c, 0, 11, 28
12, 56506, Control_c, 0, 11, 27
12, 56566, Control_c, 0, 11, 26
12, 56627, Control_c, 0, 11, 25
12, 56687, Control_c, 0, 11, 24
12, 56699, Note_on_c, 0, 78, 0
12, 56700, Note_on_c, 0, 76, 60
12, 56729, Note_on_c, 0, 76, 0
12, 56730, Note_on_c, 0, 78, 60
12, 56748, Control_c, 0, 11, 23
12, 56759, Note_on_c, 0, 78, 0
12, 56760, Note_on_c, 0, 79, 60
12, 56808, Control_c, 0, 11, 22
12, 56819, Note_on_c, 0, 79, 0
12, 56820, Note_on_c, 0, 78, 60
12, 56849, Note_on_c, 0, 78, 0
12, 56850, Note_on_c, 0, 76, 60
12, 56869, Control_c, 0, 11, 21
12, 56929, Control_c, 0, 11, 20
12, 56990, Control_c, 0, 11, 19
12, 57050, Control_c, 0, 11, 18
12, 57111, Control_c, 0, 11, 17
12, 57171, Control_c, 0, 11, 16
12, 57179, Note_on_c, 0, 76, 0
12, 57180, Note_on_c, 0, 76, 60
12, 57209, Note_on_c, 0, 76, 0
12, 57210, Note_on_c, 0, 74, 60
12, 57232, Control_c, 0, 11, 15
12, 57239, Note_on_c, 0, 74, 0
12, 57240, Note_on_c, 0, 76, 60
12, 57269, Note_on_c, 0, 76, 0
12, 57270, Note_on_c, 0, 74, 60
12, 57292, Control_c, 0, 11, 14
12, 57329, Note_on_c, 0, 74, 0
12, 57330, Note_on_c, 0, 72, 60
12, 57352, Control_c, 0, 11, 13
12, 57413, Control_c, 0, 11, 12
12, 57473, Control_c, 0, 11, 11
12, 57480, Note_on_c, 0, 71, 60
12, 57489, Note_on_c, 0, 72, 0
12, 57534, Control_c, 0, 11, 10
12, 57559, Note_on_c, 0, 71, 0
12, 57560, Note_on_c, 0, 72, 60
12, 57594, Control_c, 0, 11, 9
12, 57639, Note_on_c, 0, 72, 0
12, 57640, Note_on_c, 0, 71, 60
12, 57655, Control_c, 0, 11, 8
12, 57715, Control_c, 0, 11, 7
12, 57719, Note_on_c, 0, 71, 0
12, 57720, Note_on_c, 0, 69, 60
12, 57776, Control_c, 0, 11, 6
12, 57836, Control_c, 0, 11, 5
12, 57839, Note_on_c, 0, 69, 0
12, 57840, Note_on_c, 0, 81, 60
12, 57897, Control_c, 0, 11, 4
12, 57957, Control_c, 0, 11, 3
12, 57959, Note_on_c, 0, 81, 0
12, 58018, Control_c, 0, 11, 2
12, 58078, Control_c, 0, 11, 1
12, 58139, Control_c, 0, 11, 0
12, 58139, End_track
13, 0, Start_track
13, 0, MIDI_port, 0
13, 0, Title_t, "piano echo2"
13, 720, Note_on_c, 0, 79, 40
13, 1019, Note_on_c, 0, 79, 0
13, 1020, Note_on_c, 0, 69, 40
13, 1079, Note_on_c, 0, 69, 0
13, 1080, Note_on_c, 0, 79, 40
13, 1139, Note_on_c, 0, 79, 0
13, 1140, Note_on_c, 0, 77, 40
13, 1499, Note_on_c, 0, 77, 0
13, 1500, Note_on_c, 0, 69, 40
13, 1559, Note_on_c, 0, 69, 0
13, 1560, Note_on_c, 0, 77, 40
13, 1619, Note_on_c, 0, 77, 0
13, 1620, Note_on_c, 0, 76, 40
13, 1979, Note_on_c, 0, 76, 0
13, 1980, Note_on_c, 0, 69, 40
13, 2039, Note_on_c, 0, 69, 0
13, 2040, Note_on_c, 0, 76, 40
13, 2099, Note_on_c, 0, 76, 0
13, 2100, Note_on_c, 0, 74, 40
13, 2339, Note_on_c, 0, 74, 0
13, 2340, Note_on_c, 0, 69, 40
13, 2399, Note_on_c, 0, 69, 0
13, 2400, Note_on_c, 0, 74, 40
13, 2459, Note_on_c, 0, 74, 0
13, 2460, Note_on_c, 0, 76, 40
13, 2519, Note_on_c, 0, 76, 0
13, 2520, Note_on_c, 0, 77, 40
13, 2579, Note_on_c, 0, 77, 0
13, 2580, Note_on_c, 0, 74, 40
13, 2639, Note_on_c, 0, 74, 0
13, 2640, Note_on_c, 0, 79, 40
13, 2939, Note_on_c, 0, 79, 0
13, 2940, Note_on_c, 0, 69, 40
13, 2999, Note_on_c, 0, 69, 0
13, 3000, Note_on_c, 0, 79, 40
13, 3059, Note_on_c, 0, 79, 0
13, 3060, Note_on_c, 0, 77, 40
13, 3419, Note_on_c, 0, 77, 0
13, 3420, Note_on_c, 0, 69, 40
13, 3479, Note_on_c, 0, 69, 0
13, 3480, Note_on_c, 0, 77, 40
13, 3539, Note_on_c, 0, 77, 0
13, 3540, Note_on_c, 0, 76, 40
13, 3899, Note_on_c, 0, 76, 0
13, 3900, Note_on_c, 0, 69, 40
13, 3959, Note_on_c, 0, 69, 0
13, 3960, Note_on_c, 0, 76, 40
13, 4019, Note_on_c, 0, 76, 0
13, 4020, Note_on_c, 0, 74, 40
13, 4259, Note_on_c, 0, 74, 0
13, 4260, Note_on_c, 0, 69, 40
13, 4319, Note_on_c, 0, 69, 0
13, 4320, Note_on_c, 0, 74, 40
13, 4379, Note_on_c, 0, 74, 0
13, 4380, Note_on_c, 0, 76, 40
13, 4439, Note_on_c, 0, 76, 0
13, 4440, Note_on_c, 0, 77, 40
13, 4499, Note_on_c, 0, 77, 0
13, 4500, Note_on_c, 0, 74, 40
13, 4559, Note_on_c, 0, 74, 0
13, 4560, Note_on_c, 0, 79, 40
13, 4859, Note_on_c, 0, 79, 0
13, 4860, Note_on_c, 0, 69, 40
13, 4919, Note_on_c, 0, 69, 0
13, 4920, Note_on_c, 0, 79, 40
13, 4979, Note_on_c, 0, 79, 0
13, 4980, Note_on_c, 0, 77, 40
13, 5339, Note_on_c, 0, 77, 0
13, 5340, Note_on_c, 0, 69, 40
13, 5399, Note_on_c, 0, 69, 0
13, 5400, Note_on_c, 0, 77, 40
13, 5459, Note_on_c, 0, 77, 0
13, 5460, Note_on_c, 0, 76, 40
13, 5819, Note_on_c, 0, 76, 0
13, 5820, Note_on_c, 0, 69, 40
13, 5879, Note_on_c, 0, 69, 0
13, 5880, Note_on_c, 0, 76, 40
13, 5939, Note_on_c, 0, 76, 0
13, 5940, Note_on_c, 0, 74, 40
13, 6179, Note_on_c, 0, 74, 0
13, 6180, Note_on_c, 0, 69, 40
13, 6239, Note_on_c, 0, 69, 0
13, 6240, Note_on_c, 0, 74, 40
13, 6299, Note_on_c, 0, 74, 0
13, 6300, Note_on_c, 0, 76, 40
13, 6359, Note_on_c, 0, 76, 0
13, 6360, Note_on_c, 0, 77, 40
13, 6419, Note_on_c, 0, 77, 0
13, 6420, Note_on_c, 0, 74, 40
13, 6479, Note_on_c, 0, 74, 0
13, 6480, Note_on_c, 0, 79, 40
13, 6779, Note_on_c, 0, 79, 0
13, 6780, Note_on_c, 0, 69, 40
13, 6839, Note_on_c, 0, 69, 0
13, 6840, Note_on_c, 0, 79, 40
13, 6899, Note_on_c, 0, 79, 0
13, 6900, Note_on_c, 0, 77, 40
13, 7259, Note_on_c, 0, 77, 0
13, 7260, Note_on_c, 0, 69, 40
13, 7319, Note_on_c, 0, 69, 0
13, 7320, Note_on_c, 0, 77, 40
13, 7379, Note_on_c, 0, 77, 0
13, 7380, Note_on_c, 0, 76, 40
13, 7739, Note_on_c, 0, 76, 0
13, 7740, Note_on_c, 0, 69, 40
13, 7799, Note_on_c, 0, 69, 0
13, 7800, Note_on_c, 0, 76, 40
13, 7859, Note_on_c, 0, 76, 0
13, 7860, Note_on_c, 0, 74, 40
13, 8099, Note_on_c, 0, 74, 0
13, 8100, Note_on_c, 0, 74, 40
13, 8159, Note_on_c, 0, 74, 0
13, 8160, Note_on_c, 0, 76, 40
13, 8219, Note_on_c, 0, 76, 0
13, 8220, Note_on_c, 0, 77, 40
13, 8279, Note_on_c, 0, 77, 0
13, 8280, Note_on_c, 0, 79, 40
13, 8339, Note_on_c, 0, 79, 0
13, 8340, Note_on_c, 0, 81, 40
13, 8399, Note_on_c, 0, 81, 0
13, 8400, Note_on_c, 0, 86, 40
13, 8879, Note_on_c, 0, 86, 0
13, 15060, Note_on_c, 0, 60, 40
13, 15119, Note_on_c, 0, 60, 0
13, 15120, Note_on_c, 0, 58, 40
13, 15200, Note_on_c, 0, 60, 40
13, 15209, Note_on_c, 0, 58, 0
13, 15280, Note_on_c, 0, 62, 40
13, 15289, Note_on_c, 0, 60, 0
13, 15359, Note_on_c, 0, 62, 0
13, 15360, Note_on_c, 0, 65, 40
13, 15440, Note_on_c, 0, 62, 40
13, 15449, Note_on_c, 0, 65, 0
13, 15520, Note_on_c, 0, 58, 40
13, 15529, Note_on_c, 0, 62, 0
13, 15599, Note_on_c, 0, 58, 0
13, 15600, Note_on_c, 0, 60, 40
13, 15659, Note_on_c, 0, 60, 0
13, 15690, Note_on_c, 0, 62, 40
13, 15749, Note_on_c, 0, 62, 0
13, 15780, Note_on_c, 0, 64, 40
13, 15839, Note_on_c, 0, 64, 0
13, 15870, Note_on_c, 0, 67, 40
13, 15899, Note_on_c, 0, 67, 0
13, 15900, Note_on_c, 0, 64, 40
13, 15959, Note_on_c, 0, 64, 0
13, 15960, Note_on_c, 0, 67, 40
13, 16019, Note_on_c, 0, 67, 0
13, 16020, Note_on_c, 0, 65, 40
13, 16500, Note_on_c, 0, 58, 40
13, 16549, Note_on_c, 0, 65, 0
13, 17029, Note_on_c, 0, 58, 0
13, 17040, Note_on_c, 0, 67, 40
13, 17429, Note_on_c, 0, 67, 0
13, 17460, Note_on_c, 0, 64, 40
13, 17539, Note_on_c, 0, 64, 0
13, 17560, Note_on_c, 0, 62, 40
13, 17639, Note_on_c, 0, 62, 0
13, 17640, Note_on_c, 0, 64, 40
13, 18000, Note_on_c, 0, 72, 40
13, 18019, Note_on_c, 0, 64, 0
13, 18389, Note_on_c, 0, 72, 0
13, 18420, Note_on_c, 0, 72, 40
13, 18429, Note_on_c, 0, 72, 0
13, 18440, Note_on_c, 0, 70, 40
13, 18449, Note_on_c, 0, 70, 0
13, 18460, Note_on_c, 0, 69, 40
13, 18469, Note_on_c, 0, 69, 0
13, 18480, Note_on_c, 0, 70, 40
13, 18719, Note_on_c, 0, 70, 0
13, 18780, Note_on_c, 0, 69, 40
13, 18799, Note_on_c, 0, 69, 0
13, 18840, Note_on_c, 0, 70, 40
13, 18859, Note_on_c, 0, 70, 0
13, 18900, Note_on_c, 0, 72, 40
13, 18919, Note_on_c, 0, 72, 0
13, 18930, Note_on_c, 0, 67, 40
13, 19319, Note_on_c, 0, 67, 0
13, 19370, Note_on_c, 0, 72, 40
13, 19759, Note_on_c, 0, 72, 0
13, 19860, Note_on_c, 0, 65, 40
13, 19889, Note_on_c, 0, 65, 0
13, 19890, Note_on_c, 0, 64, 40
13, 19919, Note_on_c, 0, 64, 0
13, 19920, Note_on_c, 0, 62, 40
13, 19979, Note_on_c, 0, 62, 0
13, 20000, Note_on_c, 0, 64, 40
13, 20059, Note_on_c, 0, 64, 0
13, 20080, Note_on_c, 0, 65, 40
13, 20139, Note_on_c, 0, 65, 0
13, 20160, Note_on_c, 0, 67, 40
13, 20219, Note_on_c, 0, 67, 0
13, 20240, Note_on_c, 0, 65, 40
13, 20299, Note_on_c, 0, 65, 0
13, 20320, Note_on_c, 0, 67, 40
13, 20379, Note_on_c, 0, 67, 0
13, 20400, Note_on_c, 0, 69, 40
13, 20459, Note_on_c, 0, 69, 0
13, 20480, Note_on_c, 0, 67, 40
13, 20539, Note_on_c, 0, 67, 0
13, 20560, Note_on_c, 0, 69, 40
13, 20619, Note_on_c, 0, 69, 0
13, 20640, Note_on_c, 0, 72, 40
13, 20699, Note_on_c, 0, 72, 0
13, 20720, Note_on_c, 0, 69, 40
13, 20779, Note_on_c, 0, 69, 0
13, 20800, Note_on_c, 0, 72, 40
13, 20859, Note_on_c, 0, 72, 0
13, 20880, Note_on_c, 0, 74, 40
13, 20939, Note_on_c, 0, 74, 0
13, 23700, Note_on_c, 0, 60, 40
13, 23759, Note_on_c, 0, 60, 0
13, 23760, Note_on_c, 0, 58, 40
13, 23840, Note_on_c, 0, 60, 40
13, 23849, Note_on_c, 0, 58, 0
13, 23920, Note_on_c, 0, 62, 40
13, 23929, Note_on_c, 0, 60, 0
13, 23999, Note_on_c, 0, 62, 0
13, 24000, Note_on_c, 0, 65, 40
13, 24080, Note_on_c, 0, 62, 40
13, 24089, Note_on_c, 0, 65, 0
13, 24160, Note_on_c, 0, 58, 40
13, 24169, Note_on_c, 0, 62, 0
13, 24239, Note_on_c, 0, 58, 0
13, 24240, Note_on_c, 0, 60, 40
13, 24299, Note_on_c, 0, 60, 0
13, 24330, Note_on_c, 0, 62, 40
13, 24389, Note_on_c, 0, 62, 0
13, 24420, Note_on_c, 0, 64, 40
13, 24479, Note_on_c, 0, 64, 0
13, 24510, Note_on_c, 0, 67, 40
13, 24539, Note_on_c, 0, 67, 0
13, 24540, Note_on_c, 0, 64, 40
13, 24599, Note_on_c, 0, 64, 0
13, 24600, Note_on_c, 0, 67, 40
13, 24659, Note_on_c, 0, 67, 0
13, 24660, Note_on_c, 0, 65, 40
13, 25140, Note_on_c, 0, 58, 40
13, 25189, Note_on_c, 0, 65, 0
13, 25669, Note_on_c, 0, 58, 0
13, 25680, Note_on_c, 0, 67, 40
13, 26069, Note_on_c, 0, 67, 0
13, 26100, Note_on_c, 0, 64, 40
13, 26599, Note_on_c, 0, 64, 0
13, 26640, Note_on_c, 0, 72, 40
13, 27029, Note_on_c, 0, 72, 0
13, 27060, Note_on_c, 0, 72, 40
13, 27069, Note_on_c, 0, 72, 0
13, 27080, Note_on_c, 0, 70, 40
13, 27089, Note_on_c, 0, 70, 0
13, 27100, Note_on_c, 0, 69, 40
13, 27109, Note_on_c, 0, 69, 0
13, 27120, Note_on_c, 0, 70, 40
13, 27359, Note_on_c, 0, 70, 0
13, 27420, Note_on_c, 0, 69, 40
13, 27439, Note_on_c, 0, 69, 0
13, 27480, Note_on_c, 0, 70, 40
13, 27499, Note_on_c, 0, 70, 0
13, 27540, Note_on_c, 0, 72, 40
13, 27559, Note_on_c, 0, 72, 0
13, 27570, Note_on_c, 0, 67, 40
13, 27959, Note_on_c, 0, 67, 0
13, 28020, Note_on_c, 0, 72, 40
13, 28419, Note_on_c, 0, 72, 0
13, 28560, Note_on_c, 0, 65, 40
13, 28980, Note_on_c, 0, 58, 40
13, 29089, Note_on_c, 0, 65, 0
13, 29509, Note_on_c, 0, 58, 0
13, 29520, Note_on_c, 0, 67, 40
13, 29909, Note_on_c, 0, 67, 0
13, 29940, Note_on_c, 0, 64, 40
13, 30439, Note_on_c, 0, 64, 0
13, 32480, Note_on_c, 0, 70, 40
13, 32520, Note_on_c, 0, 70, 0
13, 32560, Note_on_c, 0, 69, 40
13, 32620, Note_on_c, 0, 69, 0
13, 32640, Note_on_c, 0, 70, 40
13, 32700, Note_on_c, 0, 70, 0
13, 32720, Note_on_c, 0, 69, 40
13, 32780, Note_on_c, 0, 69, 0
13, 32800, Note_on_c, 0, 70, 40
13, 32860, Note_on_c, 0, 70, 0
13, 32880, Note_on_c, 0, 72, 40
13, 32940, Note_on_c, 0, 72, 0
13, 32960, Note_on_c, 0, 70, 40
13, 33020, Note_on_c, 0, 70, 0
13, 33040, Note_on_c, 0, 69, 40
13, 33100, Note_on_c, 0, 69, 0
13, 33120, Note_on_c, 0, 70, 40
13, 33180, Note_on_c, 0, 70, 0
13, 33200, Note_on_c, 0, 69, 40
13, 33260, Note_on_c, 0, 69, 0
13, 33280, Note_on_c, 0, 67, 40
13, 33340, Note_on_c, 0, 67, 0
13, 33360, Note_on_c, 0, 65, 40
13, 33420, Note_on_c, 0, 65, 0
13, 33440, Note_on_c, 0, 64, 40
13, 33500, Note_on_c, 0, 64, 0
13, 33520, Note_on_c, 0, 65, 40
13, 33580, Note_on_c, 0, 65, 0
13, 33600, Note_on_c, 0, 67, 40
13, 33660, Note_on_c, 0, 67, 0
13, 33680, Note_on_c, 0, 65, 40
13, 33740, Note_on_c, 0, 65, 0
13, 33760, Note_on_c, 0, 62, 40
13, 33820, Note_on_c, 0, 62, 0
13, 33840, Note_on_c, 0, 60, 40
13, 33900, Note_on_c, 0, 60, 0
13, 33920, Note_on_c, 0, 55, 40
13, 33980, Note_on_c, 0, 55, 0
13, 34000, Note_on_c, 0, 60, 40
13, 34060, Note_on_c, 0, 60, 0
13, 34080, Note_on_c, 0, 64, 40
13, 34140, Note_on_c, 0, 64, 0
13, 34160, Note_on_c, 0, 60, 40
13, 34220, Note_on_c, 0, 60, 0
13, 34240, Note_on_c, 0, 64, 40
13, 34300, Note_on_c, 0, 64, 0
13, 34320, Note_on_c, 0, 67, 40
13, 34380, Note_on_c, 0, 67, 0
13, 34400, Note_on_c, 0, 64, 40
13, 34460, Note_on_c, 0, 64, 0
13, 34480, Note_on_c, 0, 72, 40
13, 34540, Note_on_c, 0, 72, 0
13, 34560, Note_on_c, 0, 76, 40
13, 34620, Note_on_c, 0, 76, 0
13, 34640, Note_on_c, 0, 77, 40
13, 34700, Note_on_c, 0, 77, 0
13, 34720, Note_on_c, 0, 79, 40
13, 34780, Note_on_c, 0, 79, 0
13, 34800, Note_on_c, 0, 65, 40
13, 34800, Note_on_c, 0, 77, 40
13, 34859, Note_on_c, 0, 65, 0
13, 35279, Note_on_c, 0, 77, 0
13, 35280, Note_on_c, 0, 70, 40
13, 35519, Note_on_c, 0, 70, 0
13, 35520, Note_on_c, 0, 69, 40
13, 35759, Note_on_c, 0, 69, 0
13, 35760, Note_on_c, 0, 67, 40
13, 35969, Note_on_c, 0, 67, 0
13, 35980, Note_on_c, 0, 62, 40
13, 36000, Note_on_c, 0, 67, 40
13, 36009, Note_on_c, 0, 62, 0
13, 36029, Note_on_c, 0, 67, 0
13, 36040, Note_on_c, 0, 69, 40
13, 36069, Note_on_c, 0, 69, 0
13, 36100, Note_on_c, 0, 70, 40
13, 36129, Note_on_c, 0, 70, 0
13, 36160, Note_on_c, 0, 67, 40
13, 36179, Note_on_c, 0, 67, 0
13, 36220, Note_on_c, 0, 72, 40
13, 36280, Note_on_c, 0, 72, 0
13, 36720, Note_on_c, 0, 76, 40
13, 37139, Note_on_c, 0, 76, 0
13, 37140, Note_on_c, 0, 74, 40
13, 37169, Note_on_c, 0, 74, 0
13, 37170, Note_on_c, 0, 76, 40
13, 37199, Note_on_c, 0, 76, 0
13, 37200, Note_on_c, 0, 77, 40
13, 37259, Note_on_c, 0, 77, 0
13, 37260, Note_on_c, 0, 76, 40
13, 37289, Note_on_c, 0, 76, 0
13, 37290, Note_on_c, 0, 74, 40
13, 37619, Note_on_c, 0, 74, 0
13, 37620, Note_on_c, 0, 74, 40
13, 37649, Note_on_c, 0, 74, 0
13, 37650, Note_on_c, 0, 72, 40
13, 37679, Note_on_c, 0, 72, 0
13, 37680, Note_on_c, 0, 74, 40
13, 37709, Note_on_c, 0, 74, 0
13, 37710, Note_on_c, 0, 72, 40
13, 37769, Note_on_c, 0, 72, 0
13, 37770, Note_on_c, 0, 70, 40
13, 37920, Note_on_c, 0, 69, 40
13, 37929, Note_on_c, 0, 70, 0
13, 37999, Note_on_c, 0, 69, 0
13, 38000, Note_on_c, 0, 70, 40
13, 38079, Note_on_c, 0, 70, 0
13, 38080, Note_on_c, 0, 69, 40
13, 38159, Note_on_c, 0, 69, 0
13, 38160, Note_on_c, 0, 67, 40
13, 38279, Note_on_c, 0, 67, 0
13, 38280, Note_on_c, 0, 79, 40
13, 38399, Note_on_c, 0, 79, 0
13, 40640, Note_on_c, 0, 70, 40
13, 40680, Note_on_c, 0, 70, 0
13, 40720, Note_on_c, 0, 69, 40
13, 40780, Note_on_c, 0, 69, 0
13, 40800, Note_on_c, 0, 70, 40
13, 40860, Note_on_c, 0, 70, 0
13, 40880, Note_on_c, 0, 69, 40
13, 40940, Note_on_c, 0, 69, 0
13, 40960, Note_on_c, 0, 70, 40
13, 41020, Note_on_c, 0, 70, 0
13, 41040, Note_on_c, 0, 72, 40
13, 41100, Note_on_c, 0, 72, 0
13, 41120, Note_on_c, 0, 70, 40
13, 41180, Note_on_c, 0, 70, 0
13, 41200, Note_on_c, 0, 69, 40
13, 41260, Note_on_c, 0, 69, 0
13, 41280, Note_on_c, 0, 70, 40
13, 41340, Note_on_c, 0, 70, 0
13, 41360, Note_on_c, 0, 69, 40
13, 41420, Note_on_c, 0, 69, 0
13, 41440, Note_on_c, 0, 67, 40
13, 41500, Note_on_c, 0, 67, 0
13, 41520, Note_on_c, 0, 65, 40
13, 41580, Note_on_c, 0, 65, 0
13, 41600, Note_on_c, 0, 64, 40
13, 41660, Note_on_c, 0, 64, 0
13, 41680, Note_on_c, 0, 65, 40
13, 41740, Note_on_c, 0, 65, 0
13, 41760, Note_on_c, 0, 67, 40
13, 41820, Note_on_c, 0, 67, 0
13, 41840, Note_on_c, 0, 65, 40
13, 41900, Note_on_c, 0, 65, 0
13, 41920, Note_on_c, 0, 62, 40
13, 41980, Note_on_c, 0, 62, 0
13, 42000, Note_on_c, 0, 60, 40
13, 42060, Note_on_c, 0, 60, 0
13, 42080, Note_on_c, 0, 55, 40
13, 42140, Note_on_c, 0, 55, 0
13, 42160, Note_on_c, 0, 60, 40
13, 42220, Note_on_c, 0, 60, 0
13, 42240, Note_on_c, 0, 64, 40
13, 42300, Note_on_c, 0, 64, 0
13, 42320, Note_on_c, 0, 60, 40
13, 42380, Note_on_c, 0, 60, 0
13, 42400, Note_on_c, 0, 64, 40
13, 42460, Note_on_c, 0, 64, 0
13, 42480, Note_on_c, 0, 67, 40
13, 42540, Note_on_c, 0, 67, 0
13, 42560, Note_on_c, 0, 64, 40
13, 42620, Note_on_c, 0, 64, 0
13, 42640, Note_on_c, 0, 72, 40
13, 42700, Note_on_c, 0, 72, 0
13, 42720, Note_on_c, 0, 76, 40
13, 42780, Note_on_c, 0, 76, 0
13, 42800, Note_on_c, 0, 77, 40
13, 42860, Note_on_c, 0, 77, 0
13, 42880, Note_on_c, 0, 79, 40
13, 42940, Note_on_c, 0, 79, 0
13, 42960, Note_on_c, 0, 79, 40
13, 43439, Note_on_c, 0, 79, 0
13, 43440, Note_on_c, 0, 72, 40
13, 43679, Note_on_c, 0, 72, 0
13, 43680, Note_on_c, 0, 71, 40
13, 43919, Note_on_c, 0, 71, 0
13, 43920, Note_on_c, 0, 69, 40
13, 44129, Note_on_c, 0, 69, 0
13, 44140, Note_on_c, 0, 64, 40
13, 44160, Note_on_c, 0, 69, 40
13, 44169, Note_on_c, 0, 64, 0
13, 44199, Note_on_c, 0, 69, 0
13, 44200, Note_on_c, 0, 71, 40
13, 44229, Note_on_c, 0, 71, 0
13, 44260, Note_on_c, 0, 72, 40
13, 44289, Note_on_c, 0, 72, 0
13, 44320, Note_on_c, 0, 69, 40
13, 44349, Note_on_c, 0, 69, 0
13, 44380, Note_on_c, 0, 74, 40
13, 44440, Note_on_c, 0, 74, 0
13, 44880, Note_on_c, 0, 78, 40
13, 45299, Note_on_c, 0, 78, 0
13, 45300, Note_on_c, 0, 76, 40
13, 45329, Note_on_c, 0, 76, 0
13, 45330, Note_on_c, 0, 78, 40
13, 45359, Note_on_c, 0, 78, 0
13, 45360, Note_on_c, 0, 79, 40
13, 45419, Note_on_c, 0, 79, 0
13, 45420, Note_on_c, 0, 78, 40
13, 45449, Note_on_c, 0, 78, 0
13, 45450, Note_on_c, 0, 76, 40
13, 45779, Note_on_c, 0, 76, 0
13, 45780, Note_on_c, 0, 76, 40
13, 45809, Note_on_c, 0, 76, 0
13, 45810, Note_on_c, 0, 74, 40
13, 45839, Note_on_c, 0, 74, 0
13, 45840, Note_on_c, 0, 76, 40
13, 45869, Note_on_c, 0, 76, 0
13, 45870, Note_on_c, 0, 74, 40
13, 45929, Note_on_c, 0, 74, 0
13, 45930, Note_on_c, 0, 72, 40
13, 46080, Note_on_c, 0, 71, 40
13, 46089, Note_on_c, 0, 72, 0
13, 46159, Note_on_c, 0, 71, 0
13, 46160, Note_on_c, 0, 72, 40
13, 46239, Note_on_c, 0, 72, 0
13, 46240, Note_on_c, 0, 71, 40
13, 46319, Note_on_c, 0, 71, 0
13, 46320, Note_on_c, 0, 69, 40
13, 46439, Note_on_c, 0, 69, 0
13, 46440, Note_on_c, 0, 81, 40
13, 46559, Note_on_c, 0, 81, 0
13, 46800, Note_on_c, 0, 79, 40
13, 47279, Note_on_c, 0, 79, 0
13, 47280, Note_on_c, 0, 72, 40
13, 47519, Note_on_c, 0, 72, 0
13, 47520, Note_on_c, 0, 71, 40
13, 47759, Note_on_c, 0, 71, 0
13, 47760, Note_on_c, 0, 69, 40
13, 47969, Note_on_c, 0, 69, 0
13, 47980, Note_on_c, 0, 64, 40
13, 48000, Note_on_c, 0, 69, 40
13, 48009, Note_on_c, 0, 64, 0
13, 48039, Note_on_c, 0, 69, 0
13, 48040, Note_on_c, 0, 71, 40
13, 48069, Note_on_c, 0, 71, 0
13, 48100, Note_on_c, 0, 72, 40
13, 48129, Note_on_c, 0, 72, 0
13, 48160, Note_on_c, 0, 69, 40
13, 48189, Note_on_c, 0, 69, 0
13, 48220, Note_on_c, 0, 74, 40
13, 48280, Note_on_c, 0, 74, 0
13, 48720, Note_on_c, 0, 78, 40
13, 49139, Note_on_c, 0, 78, 0
13, 49140, Note_on_c, 0, 76, 40
13, 49169, Note_on_c, 0, 76, 0
13, 49170, Note_on_c, 0, 78, 40
13, 49199, Note_on_c, 0, 78, 0
13, 49200, Note_on_c, 0, 79, 40
13, 49259, Note_on_c, 0, 79, 0
13, 49260, Note_on_c, 0, 78, 40
13, 49289, Note_on_c, 0, 78, 0
13, 49290, Note_on_c, 0, 76, 40
13, 49619, Note_on_c, 0, 76, 0
13, 49620, Note_on_c, 0, 76, 40
13, 49649, Note_on_c, 0, 76, 0
13, 49650, Note_on_c, 0, 74, 40
13, 49679, Note_on_c, 0, 74, 0
13, 49680, Note_on_c, 0, 76, 40
13, 49709, Note_on_c, 0, 76, 0
13, 49710, Note_on_c, 0, 74, 40
13, 49769, Note_on_c, 0, 74, 0
13, 49770, Note_on_c, 0, 72, 40
13, 49920, Note_on_c, 0, 71, 40
13, 49929, Note_on_c, 0, 72, 0
13, 49999, Note_on_c, 0, 71, 0
13, 50000, Note_on_c, 0, 72, 40
13, 50079, Note_on_c, 0, 72, 0
13, 50080, Note_on_c, 0, 71, 40
13, 50159, Note_on_c, 0, 71, 0
13, 50160, Note_on_c, 0, 69, 40
13, 50279, Note_on_c, 0, 69, 0
13, 50280, Note_on_c, 0, 81, 40
13, 50399, Note_on_c, 0, 81, 0
13, 50520, Control_c, 0, 11, 127
13, 50560, Note_on_c, 0, 79, 40
13, 50580, Control_c, 0, 11, 126
13, 50620, Note_on_c, 0, 79, 0
13, 50640, Control_c, 0, 11, 125
13, 50640, Note_on_c, 0, 79, 40
13, 50701, Control_c, 0, 11, 124
13, 50761, Control_c, 0, 11, 123
13, 50822, Control_c, 0, 11, 122
13, 50882, Control_c, 0, 11, 121
13, 50943, Control_c, 0, 11, 120
13, 51003, Control_c, 0, 11, 119
13, 51064, Control_c, 0, 11, 118
13, 51119, Note_on_c, 0, 79, 0
13, 51120, Note_on_c, 0, 72, 40
13, 51124, Control_c, 0, 11, 117
13, 51185, Control_c, 0, 11, 116
13, 51245, Control_c, 0, 11, 115
13, 51306, Control_c, 0, 11, 114
13, 51359, Note_on_c, 0, 72, 0
13, 51360, Note_on_c, 0, 71, 40
13, 51366, Control_c, 0, 11, 113
13, 51426, Control_c, 0, 11, 112
13, 51487, Control_c, 0, 11, 111
13, 51547, Control_c, 0, 11, 110
13, 51599, Note_on_c, 0, 71, 0
13, 51600, Note_on_c, 0, 69, 40
13, 51608, Control_c, 0, 11, 109
13, 51668, Control_c, 0, 11, 108
13, 51729, Control_c, 0, 11, 107
13, 51789, Control_c, 0, 11, 106
13, 51809, Note_on_c, 0, 69, 0
13, 51820, Note_on_c, 0, 64, 40
13, 51840, Note_on_c, 0, 69, 40
13, 51849, Note_on_c, 0, 64, 0
13, 51850, Control_c, 0, 11, 105
13, 51869, Note_on_c, 0, 69, 0
13, 51880, Note_on_c, 0, 71, 40
13, 51899, Note_on_c, 0, 71, 0
13, 51910, Control_c, 0, 11, 104
13, 51940, Note_on_c, 0, 72, 40
13, 51969, Note_on_c, 0, 72, 0
13, 51971, Control_c, 0, 11, 103
13, 52000, Note_on_c, 0, 69, 40
13, 52029, Note_on_c, 0, 69, 0
13, 52031, Control_c, 0, 11, 102
13, 52060, Note_on_c, 0, 74, 40
13, 52092, Control_c, 0, 11, 101
13, 52120, Note_on_c, 0, 74, 0
13, 52152, Control_c, 0, 11, 100
13, 52213, Control_c, 0, 11, 99
13, 52273, Control_c, 0, 11, 98
13, 52333, Control_c, 0, 11, 97
13, 52394, Control_c, 0, 11, 96
13, 52454, Control_c, 0, 11, 95
13, 52515, Control_c, 0, 11, 94
13, 52560, Note_on_c, 0, 78, 40
13, 52575, Control_c, 0, 11, 93
13, 52636, Control_c, 0, 11, 92
13, 52696, Control_c, 0, 11, 91
13, 52757, Control_c, 0, 11, 90
13, 52817, Control_c, 0, 11, 89
13, 52878, Control_c, 0, 11, 88
13, 52938, Control_c, 0, 11, 87
13, 52979, Note_on_c, 0, 78, 0
13, 52980, Note_on_c, 0, 76, 40
13, 52999, Control_c, 0, 11, 86
13, 53009, Note_on_c, 0, 76, 0
13, 53010, Note_on_c, 0, 78, 40
13, 53039, Note_on_c, 0, 78, 0
13, 53040, Note_on_c, 0, 79, 40
13, 53059, Control_c, 0, 11, 85
13, 53099, Note_on_c, 0, 79, 0
13, 53100, Note_on_c, 0, 78, 40
13, 53119, Control_c, 0, 11, 84
13, 53129, Note_on_c, 0, 78, 0
13, 53130, Note_on_c, 0, 76, 40
13, 53180, Control_c, 0, 11, 83
13, 53240, Control_c, 0, 11, 82
13, 53301, Control_c, 0, 11, 81
13, 53361, Control_c, 0, 11, 80
13, 53422, Control_c, 0, 11, 79
13, 53459, Note_on_c, 0, 76, 0
13, 53460, Note_on_c, 0, 76, 40
13, 53482, Control_c, 0, 11, 78
13, 53489, Note_on_c, 0, 76, 0
13, 53490, Note_on_c, 0, 74, 40
13, 53519, Note_on_c, 0, 74, 0
13, 53520, Note_on_c, 0, 76, 40
13, 53543, Control_c, 0, 11, 77
13, 53549, Note_on_c, 0, 76, 0
13, 53550, Note_on_c, 0, 74, 40
13, 53603, Control_c, 0, 11, 76
13, 53609, Note_on_c, 0, 74, 0
13, 53610, Note_on_c, 0, 72, 40
13, 53664, Control_c, 0, 11, 75
13, 53724, Control_c, 0, 11, 74
13, 53760, Note_on_c, 0, 71, 40
13, 53769, Note_on_c, 0, 72, 0
13, 53785, Control_c, 0, 11, 73
13, 53839, Note_on_c, 0, 71, 0
13, 53840, Note_on_c, 0, 72, 40
13, 53845, Control_c, 0, 11, 72
13, 53906, Control_c, 0, 11, 71
13, 53919, Note_on_c, 0, 72, 0
13, 53920, Note_on_c, 0, 71, 40
13, 53966, Control_c, 0, 11, 70
13, 53999, Note_on_c, 0, 71, 0
13, 54000, Note_on_c, 0, 69, 40
13, 54026, Control_c, 0, 11, 69
13, 54087, Control_c, 0, 11, 68
13, 54119, Note_on_c, 0, 69, 0
13, 54120, Note_on_c, 0, 81, 40
13, 54147, Control_c, 0, 11, 67
13, 54208, Control_c, 0, 11, 66
13, 54239, Note_on_c, 0, 81, 0
13, 54268, Control_c, 0, 11, 65
13, 54329, Control_c, 0, 11, 64
13, 54389, Control_c, 0, 11, 63
13, 54450, Control_c, 0, 11, 62
13, 54480, Note_on_c, 0, 79, 40
13, 54510, Control_c, 0, 11, 61
13, 54571, Control_c, 0, 11, 60
13, 54631, Control_c, 0, 11, 59
13, 54692, Control_c, 0, 11, 58
13, 54752, Control_c, 0, 11, 57
13, 54812, Control_c, 0, 11, 56
13, 54873, Control_c, 0, 11, 55
13, 54933, Control_c, 0, 11, 54
13, 54959, Note_on_c, 0, 79, 0
13, 54960, Note_on_c, 0, 72, 40
13, 54994, Control_c, 0, 11, 53
13, 55054, Control_c, 0, 11, 52
13, 55115, Control_c, 0, 11, 51
13, 55175, Control_c, 0, 11, 50
13, 55199, Note_on_c, 0, 72, 0
13, 55200, Note_on_c, 0, 71, 40
13, 55236, Control_c, 0, 11, 49
13, 55296, Control_c, 0, 11, 48
13, 55357, Control_c, 0, 11, 47
13, 55417, Control_c, 0, 11, 46
13, 55439, Note_on_c, 0, 71, 0
13, 55440, Note_on_c, 0, 69, 40
13, 55478, Control_c, 0, 11, 45
13, 55538, Control_c, 0, 11, 44
13, 55599, Control_c, 0, 11, 43
13, 55649, Note_on_c, 0, 69, 0
13, 55659, Control_c, 0, 11, 42
13, 55660, Note_on_c, 0, 64, 40
13, 55680, Note_on_c, 0, 69, 40
13, 55689, Note_on_c, 0, 64, 0
13, 55719, Control_c, 0, 11, 41
13, 55720, Note_on_c, 0, 71, 40
13, 55740, Note_on_c, 0, 69, 0
13, 55780, Note_on_c, 0, 71, 0
13, 55780, Control_c, 0, 11, 40
13, 55780, Note_on_c, 0, 72, 40
13, 55840, Note_on_c, 0, 72, 0
13, 55840, Control_c, 0, 11, 39
13, 55840, Note_on_c, 0, 69, 40
13, 55900, Note_on_c, 0, 69, 0
13, 55900, Note_on_c, 0, 74, 40
13, 55901, Control_c, 0, 11, 38
13, 55960, Note_on_c, 0, 74, 0
13, 55961, Control_c, 0, 11, 37
13, 56022, Control_c, 0, 11, 36
13, 56082, Control_c, 0, 11, 35
13, 56143, Control_c, 0, 11, 34
13, 56203, Control_c, 0, 11, 33
13, 56264, Control_c, 0, 11, 32
13, 56324, Control_c, 0, 11, 31
13, 56385, Control_c, 0, 11, 30
13, 56400, Note_on_c, 0, 78, 40
13, 56445, Control_c, 0, 11, 29
13, 56505, Control_c, 0, 11, 28
13, 56566, Control_c, 0, 11, 27
13, 56626, Control_c, 0, 11, 26
13, 56687, Control_c, 0, 11, 25
13, 56747, Control_c, 0, 11, 24
13, 56808, Control_c, 0, 11, 23
13, 56819, Note_on_c, 0, 78, 0
13, 56820, Note_on_c, 0, 76, 40
13, 56849, Note_on_c, 0, 76, 0
13, 56850, Note_on_c, 0, 78, 40
13, 56868, Control_c, 0, 11, 22
13, 56879, Note_on_c, 0, 78, 0
13, 56880, Note_on_c, 0, 79, 40
13, 56929, Control_c, 0, 11, 21
13, 56939, Note_on_c, 0, 79, 0
13, 56940, Note_on_c, 0, 78, 40
13, 56969, Note_on_c, 0, 78, 0
13, 56970, Note_on_c, 0, 76, 40
13, 56989, Control_c, 0, 11, 20
13, 57050, Control_c, 0, 11, 19
13, 57110, Control_c, 0, 11, 18
13, 57171, Control_c, 0, 11, 17
13, 57231, Control_c, 0, 11, 16
13, 57292, Control_c, 0, 11, 15
13, 57299, Note_on_c, 0, 76, 0
13, 57300, Note_on_c, 0, 76, 40
13, 57329, Note_on_c, 0, 76, 0
13, 57330, Note_on_c, 0, 74, 40
13, 57352, Control_c, 0, 11, 14
13, 57359, Note_on_c, 0, 74, 0
13, 57360, Note_on_c, 0, 76, 40
13, 57389, Note_on_c, 0, 76, 0
13, 57390, Note_on_c, 0, 74, 40
13, 57412, Control_c, 0, 11, 13
13, 57449, Note_on_c, 0, 74, 0
13, 57450, Note_on_c, 0, 72, 40
13, 57473, Control_c, 0, 11, 12
13, 57533, Control_c, 0, 11, 11
13, 57594, Control_c, 0, 11, 10
13, 57600, Note_on_c, 0, 71, 40
13, 57609, Note_on_c, 0, 72, 0
13, 57654, Control_c, 0, 11, 9
13, 57679, Note_on_c, 0, 71, 0
13, 57680, Note_on_c, 0, 72, 40
13, 57715, Control_c, 0, 11, 8
13, 57759, Note_on_c, 0, 72, 0
13, 57760, Note_on_c, 0, 71, 40
13, 57775, Control_c, 0, 11, 7
13, 57836, Control_c, 0, 11, 6
13, 57839, Note_on_c, 0, 71, 0
13, 57840, Note_on_c, 0, 69, 40
13, 57896, Control_c, 0, 11, 5
13, 57957, Control_c, 0, 11, 4
13, 57959, Note_on_c, 0, 69, 0
13, 57960, Note_on_c, 0, 81, 40
13, 58017, Control_c, 0, 11, 3
13, 58078, Control_c, 0, 11, 2
13, 58079, Note_on_c, 0, 81, 0
13, 58138, Control_c, 0, 11, 1
13, 58199, Control_c, 0, 11, 0
13, 58199, End_track
14, 0, Start_track
14, 0, MIDI_port, 0
14, 0, Title_t, "piano echo3"
14, 840, Note_on_c, 0, 79, 20
14, 1139, Note_on_c, 0, 79, 0
14, 1140, Note_on_c, 0, 69, 20
14, 1199, Note_on_c, 0, 69, 0
14, 1200, Note_on_c, 0, 79, 20
14, 1259, Note_on_c, 0, 79, 0
14, 1260, Note_on_c, 0, 77, 20
14, 1619, Note_on_c, 0, 77, 0
14, 1620, Note_on_c, 0, 69, 20
14, 1679, Note_on_c, 0, 69, 0
14, 1680, Note_on_c, 0, 77, 20
14, 1739, Note_on_c, 0, 77, 0
14, 1740, Note_on_c, 0, 76, 20
14, 2099, Note_on_c, 0, 76, 0
14, 2100, Note_on_c, 0, 69, 20
14, 2159, Note_on_c, 0, 69, 0
14, 2160, Note_on_c, 0, 76, 20
14, 2219, Note_on_c, 0, 76, 0
14, 2220, Note_on_c, 0, 74, 20
14, 2459, Note_on_c, 0, 74, 0
14, 2460, Note_on_c, 0, 69, 20
14, 2519, Note_on_c, 0, 69, 0
14, 2520, Note_on_c, 0, 74, 20
14, 2579, Note_on_c, 0, 74, 0
14, 2580, Note_on_c, 0, 76, 20
14, 2639, Note_on_c, 0, 76, 0
14, 2640, Note_on_c, 0, 77, 20
14, 2699, Note_on_c, 0, 77, 0
14, 2700, Note_on_c, 0, 74, 20
14, 2759, Note_on_c, 0, 74, 0
14, 2760, Note_on_c, 0, 79, 20
14, 3059, Note_on_c, 0, 79, 0
14, 3060, Note_on_c, 0, 69, 20
14, 3119, Note_on_c, 0, 69, 0
14, 3120, Note_on_c, 0, 79, 20
14, 3179, Note_on_c, 0, 79, 0
14, 3180, Note_on_c, 0, 77, 20
14, 3539, Note_on_c, 0, 77, 0
14, 3540, Note_on_c, 0, 69, 20
14, 3599, Note_on_c, 0, 69, 0
14, 3600, Note_on_c, 0, 77, 20
14, 3659, Note_on_c, 0, 77, 0
14, 3660, Note_on_c, 0, 76, 20
14, 4019, Note_on_c, 0, 76, 0
14, 4020, Note_on_c, 0, 69, 20
14, 4079, Note_on_c, 0, 69, 0
14, 4080, Note_on_c, 0, 76, 20
14, 4139, Note_on_c, 0, 76, 0
14, 4140, Note_on_c, 0, 74, 20
14, 4379, Note_on_c, 0, 74, 0
14, 4380, Note_on_c, 0, 69, 20
14, 4439, Note_on_c, 0, 69, 0
14, 4440, Note_on_c, 0, 74, 20
14, 4499, Note_on_c, 0, 74, 0
14, 4500, Note_on_c, 0, 76, 20
14, 4559, Note_on_c, 0, 76, 0
14, 4560, Note_on_c, 0, 77, 20
14, 4619, Note_on_c, 0, 77, 0
14, 4620, Note_on_c, 0, 74, 20
14, 4679, Note_on_c, 0, 74, 0
14, 4680, Note_on_c, 0, 79, 20
14, 4979, Note_on_c, 0, 79, 0
14, 4980, Note_on_c, 0, 69, 20
14, 5039, Note_on_c, 0, 69, 0
14, 5040, Note_on_c, 0, 79, 20
14, 5099, Note_on_c, 0, 79, 0
14, 5100, Note_on_c, 0, 77, 20
14, 5459, Note_on_c, 0, 77, 0
14, 5460, Note_on_c, 0, 69, 20
14, 5519, Note_on_c, 0, 69, 0
14, 5520, Note_on_c, 0, 77, 20
14, 5579, Note_on_c, 0, 77, 0
14, 5580, Note_on_c, 0, 76, 20
14, 5939, Note_on_c, 0, 76, 0
14, 5940, Note_on_c, 0, 69, 20
14, 5999, Note_on_c, 0, 69, 0
14, 6000, Note_on_c, 0, 76, 20
14, 6059, Note_on_c, 0, 76, 0
14, 6060, Note_on_c, 0, 74, 20
14, 6299, Note_on_c, 0, 74, 0
14, 6300, Note_on_c, 0, 69, 20
14, 6359, Note_on_c, 0, 69, 0
14, 6360, Note_on_c, 0, 74, 20
14, 6419, Note_on_c, 0, 74, 0
14, 6420, Note_on_c, 0, 76, 20
14, 6479, Note_on_c, 0, 76, 0
14, 6480, Note_on_c, 0, 77, 20
14, 6539, Note_on_c, 0, 77, 0
14, 6540, Note_on_c, 0, 74, 20
14, 6599, Note_on_c, 0, 74, 0
14, 6600, Note_on_c, 0, 79, 20
14, 6899, Note_on_c, 0, 79, 0
14, 6900, Note_on_c, 0, 69, 20
14, 6959, Note_on_c, 0, 69, 0
14, 6960, Note_on_c, 0, 79, 20
14, 7019, Note_on_c, 0, 79, 0
14, 7020, Note_on_c, 0, 77, 20
14, 7379, Note_on_c, 0, 77, 0
14, 7380, Note_on_c, 0, 69, 20
14, 7439, Note_on_c, 0, 69, 0
14, 7440, Note_on_c, 0, 77, 20
14, 7499, Note_on_c, 0, 77, 0
14, 7500, Note_on_c, 0, 76, 20
14, 7859, Note_on_c, 0, 76, 0
14, 7860, Note_on_c, 0, 69, 20
14, 7919, Note_on_c, 0, 69, 0
14, 7920, Note_on_c, 0, 76, 20
14, 7979, Note_on_c, 0, 76, 0
14, 7980, Note_on_c, 0, 74, 20
14, 8219, Note_on_c, 0, 74, 0
14, 8220, Note_on_c, 0, 74, 20
14, 8279, Note_on_c, 0, 74, 0
14, 8280, Note_on_c, 0, 76, 20
14, 8339, Note_on_c, 0, 76, 0
14, 8340, Note_on_c, 0, 77, 20
14, 8399, Note_on_c, 0, 77, 0
14, 8400, Note_on_c, 0, 79, 20
14, 8459, Note_on_c, 0, 79, 0
14, 8460, Note_on_c, 0, 81, 20
14, 8519, Note_on_c, 0, 81, 0
14, 8520, Note_on_c, 0, 86, 20
14, 8999, Note_on_c, 0, 86, 0
14, 15180, Note_on_c, 0, 60, 20
14, 15239, Note_on_c, 0, 60, 0
14, 15240, Note_on_c, 0, 58, 20
14, 15320, Note_on_c, 0, 60, 20
14, 15329, Note_on_c, 0, 58, 0
14, 15400, Note_on_c, 0, 62, 20
14, 15409, Note_on_c, 0, 60, 0
14, 15479, Note_on_c, 0, 62, 0
14, 15480, Note_on_c, 0, 65, 20
14, 15560, Note_on_c, 0, 62, 20
14, 15569, Note_on_c, 0, 65, 0
14, 15640, Note_on_c, 0, 58, 20
14, 15649, Note_on_c, 0, 62, 0
14, 15719, Note_on_c, 0, 58, 0
14, 15720, Note_on_c, 0, 60, 20
14, 15779, Note_on_c, 0, 60, 0
14, 15810, Note_on_c, 0, 62, 20
14, 15869, Note_on_c, 0, 62, 0
14, 15900, Note_on_c, 0, 64, 20
14, 15959, Note_on_c, 0, 64, 0
14, 15990, Note_on_c, 0, 67, 20
14, 16019, Note_on_c, 0, 67, 0
14, 16720, Note_on_c, 0, 57, 20
14, 16779, Note_on_c, 0, 57, 0
14, 16800, Note_on_c, 0, 58, 20
14, 17160, Note_on_c, 0, 67, 20
14, 17189, Note_on_c, 0, 58, 0
14, 17549, Note_on_c, 0, 67, 0
14, 17580, Note_on_c, 0, 64, 20
14, 17659, Note_on_c, 0, 64, 0
14, 17680, Note_on_c, 0, 62, 20
14, 17759, Note_on_c, 0, 62, 0
14, 17760, Note_on_c, 0, 64, 20
14, 18120, Note_on_c, 0, 72, 20
14, 18139, Note_on_c, 0, 64, 0
14, 18509, Note_on_c, 0, 72, 0
14, 18540, Note_on_c, 0, 72, 20
14, 18549, Note_on_c, 0, 72, 0
14, 18560, Note_on_c, 0, 70, 20
14, 18569, Note_on_c, 0, 70, 0
14, 18580, Note_on_c, 0, 69, 20
14, 18589, Note_on_c, 0, 69, 0
14, 18600, Note_on_c, 0, 70, 20
14, 18839, Note_on_c, 0, 70, 0
14, 18900, Note_on_c, 0, 69, 20
14, 18919, Note_on_c, 0, 69, 0
14, 18960, Note_on_c, 0, 70, 20
14, 18979, Note_on_c, 0, 70, 0
14, 19020, Note_on_c, 0, 72, 20
14, 19039, Note_on_c, 0, 72, 0
14, 19050, Note_on_c, 0, 67, 20
14, 19439, Note_on_c, 0, 67, 0
14, 19980, Note_on_c, 0, 65, 20
14, 20009, Note_on_c, 0, 65, 0
14, 20010, Note_on_c, 0, 64, 20
14, 20039, Note_on_c, 0, 64, 0
14, 20040, Note_on_c, 0, 62, 20
14, 20099, Note_on_c, 0, 62, 0
14, 20120, Note_on_c, 0, 64, 20
14, 20179, Note_on_c, 0, 64, 0
14, 20200, Note_on_c, 0, 65, 20
14, 20259, Note_on_c, 0, 65, 0
14, 20280, Note_on_c, 0, 67, 20
14, 20339, Note_on_c, 0, 67, 0
14, 20360, Note_on_c, 0, 65, 20
14, 20419, Note_on_c, 0, 65, 0
14, 20440, Note_on_c, 0, 67, 20
14, 20499, Note_on_c, 0, 67, 0
14, 20520, Note_on_c, 0, 69, 20
14, 20579, Note_on_c, 0, 69, 0
14, 20600, Note_on_c, 0, 67, 20
14, 20659, Note_on_c, 0, 67, 0
14, 20680, Note_on_c, 0, 69, 20
14, 20739, Note_on_c, 0, 69, 0
14, 20760, Note_on_c, 0, 72, 20
14, 20819, Note_on_c, 0, 72, 0
14, 20840, Note_on_c, 0, 69, 20
14, 20899, Note_on_c, 0, 69, 0
14, 20920, Note_on_c, 0, 72, 20
14, 20979, Note_on_c, 0, 72, 0
14, 21000, Note_on_c, 0, 74, 20
14, 21059, Note_on_c, 0, 74, 0
14, 23820, Note_on_c, 0, 60, 20
14, 23879, Note_on_c, 0, 60, 0
14, 23880, Note_on_c, 0, 58, 20
14, 23960, Note_on_c, 0, 60, 20
14, 23969, Note_on_c, 0, 58, 0
14, 24040, Note_on_c, 0, 62, 20
14, 24049, Note_on_c, 0, 60, 0
14, 24119, Note_on_c, 0, 62, 0
14, 24120, Note_on_c, 0, 65, 20
14, 24200, Note_on_c, 0, 62, 20
14, 24209, Note_on_c, 0, 65, 0
14, 24280, Note_on_c, 0, 58, 20
14, 24289, Note_on_c, 0, 62, 0
14, 24359, Note_on_c, 0, 58, 0
14, 24360, Note_on_c, 0, 60, 20
14, 24419, Note_on_c, 0, 60, 0
14, 24450, Note_on_c, 0, 62, 20
14, 24509, Note_on_c, 0, 62, 0
14, 24540, Note_on_c, 0, 64, 20
14, 24599, Note_on_c, 0, 64, 0
14, 24630, Note_on_c, 0, 67, 20
14, 24659, Note_on_c, 0, 67, 0
14, 24720, Note_on_c, 0, 65, 20
14, 25199, Note_on_c, 0, 65, 0
14, 25260, Note_on_c, 0, 58, 20
14, 25739, Note_on_c, 0, 58, 0
14, 25800, Note_on_c, 0, 67, 20
14, 26189, Note_on_c, 0, 67, 0
14, 26220, Note_on_c, 0, 64, 20
14, 26719, Note_on_c, 0, 64, 0
14, 26760, Note_on_c, 0, 72, 20
14, 27149, Note_on_c, 0, 72, 0
14, 27180, Note_on_c, 0, 72, 20
14, 27189, Note_on_c, 0, 72, 0
14, 27200, Note_on_c, 0, 70, 20
14, 27209, Note_on_c, 0, 70, 0
14, 27220, Note_on_c, 0, 69, 20
14, 27229, Note_on_c, 0, 69, 0
14, 27240, Note_on_c, 0, 70, 20
14, 27479, Note_on_c, 0, 70, 0
14, 27540, Note_on_c, 0, 69, 20
14, 27559, Note_on_c, 0, 69, 0
14, 27600, Note_on_c, 0, 70, 20
14, 27619, Note_on_c, 0, 70, 0
14, 27660, Note_on_c, 0, 72, 20
14, 27679, Note_on_c, 0, 72, 0
14, 27690, Note_on_c, 0, 67, 20
14, 28079, Note_on_c, 0, 67, 0
14, 28140, Note_on_c, 0, 72, 20
14, 28529, Note_on_c, 0, 72, 0
14, 28560, Note_on_c, 0, 65, 20
14, 29039, Note_on_c, 0, 65, 0
14, 29100, Note_on_c, 0, 58, 20
14, 29579, Note_on_c, 0, 58, 0
14, 29640, Note_on_c, 0, 67, 20
14, 30029, Note_on_c, 0, 67, 0
14, 30060, Note_on_c, 0, 64, 20
14, 30559, Note_on_c, 0, 64, 0
14, 32600, Note_on_c, 0, 70, 20
14, 32640, Note_on_c, 0, 70, 0
14, 32680, Note_on_c, 0, 69, 20
14, 32740, Note_on_c, 0, 69, 0
14, 32760, Note_on_c, 0, 70, 20
14, 32820, Note_on_c, 0, 70, 0
14, 32840, Note_on_c, 0, 69, 20
14, 32900, Note_on_c, 0, 69, 0
14, 32920, Note_on_c, 0, 70, 20
14, 32980, Note_on_c, 0, 70, 0
14, 33000, Note_on_c, 0, 72, 20
14, 33060, Note_on_c, 0, 72, 0
14, 33080, Note_on_c, 0, 70, 20
14, 33140, Note_on_c, 0, 70, 0
14, 33160, Note_on_c, 0, 69, 20
14, 33220, Note_on_c, 0, 69, 0
14, 33240, Note_on_c, 0, 70, 20
14, 33300, Note_on_c, 0, 70, 0
14, 33320, Note_on_c, 0, 69, 20
14, 33380, Note_on_c, 0, 69, 0
14, 33400, Note_on_c, 0, 67, 20
14, 33460, Note_on_c, 0, 67, 0
14, 33480, Note_on_c, 0, 65, 20
14, 33540, Note_on_c, 0, 65, 0
14, 33560, Note_on_c, 0, 64, 20
14, 33620, Note_on_c, 0, 64, 0
14, 33640, Note_on_c, 0, 65, 20
14, 33700, Note_on_c, 0, 65, 0
14, 33720, Note_on_c, 0, 67, 20
14, 33780, Note_on_c, 0, 67, 0
14, 33800, Note_on_c, 0, 65, 20
14, 33860, Note_on_c, 0, 65, 0
14, 33880, Note_on_c, 0, 62, 20
14, 33940, Note_on_c, 0, 62, 0
14, 33960, Note_on_c, 0, 60, 20
14, 34020, Note_on_c, 0, 60, 0
14, 34040, Note_on_c, 0, 55, 20
14, 34100, Note_on_c, 0, 55, 0
14, 34120, Note_on_c, 0, 60, 20
14, 34180, Note_on_c, 0, 60, 0
14, 34200, Note_on_c, 0, 64, 20
14, 34260, Note_on_c, 0, 64, 0
14, 34280, Note_on_c, 0, 60, 20
14, 34340, Note_on_c, 0, 60, 0
14, 34360, Note_on_c, 0, 64, 20
14, 34420, Note_on_c, 0, 64, 0
14, 34440, Note_on_c, 0, 67, 20
14, 34500, Note_on_c, 0, 67, 0
14, 34520, Note_on_c, 0, 64, 20
14, 34580, Note_on_c, 0, 64, 0
14, 34600, Note_on_c, 0, 72, 20
14, 34660, Note_on_c, 0, 72, 0
14, 34680, Note_on_c, 0, 76, 20
14, 34740, Note_on_c, 0, 76, 0
14, 34760, Note_on_c, 0, 77, 20
14, 34820, Note_on_c, 0, 77, 0
14, 34840, Note_on_c, 0, 79, 20
14, 34900, Note_on_c, 0, 79, 0
14, 34920, Note_on_c, 0, 65, 20
14, 34920, Note_on_c, 0, 77, 20
14, 34979, Note_on_c, 0, 65, 0
14, 35399, Note_on_c, 0, 77, 0
14, 35400, Note_on_c, 0, 70, 20
14, 35639, Note_on_c, 0, 70, 0
14, 35640, Note_on_c, 0, 69, 20
14, 35879, Note_on_c, 0, 69, 0
14, 35880, Note_on_c, 0, 67, 20
14, 36089, Note_on_c, 0, 67, 0
14, 36100, Note_on_c, 0, 62, 20
14, 36120, Note_on_c, 0, 67, 20
14, 36129, Note_on_c, 0, 62, 0
14, 36160, Note_on_c, 0, 69, 20
14, 36180, Note_on_c, 0, 67, 0
14, 36220, Note_on_c, 0, 69, 0
14, 36220, Note_on_c, 0, 70, 20
14, 36280, Note_on_c, 0, 70, 0
14, 36280, Note_on_c, 0, 67, 20
14, 36340, Note_on_c, 0, 67, 0
14, 36340, Note_on_c, 0, 72, 20
14, 36400, Note_on_c, 0, 72, 0
14, 36840, Note_on_c, 0, 76, 20
14, 37259, Note_on_c, 0, 76, 0
14, 37260, Note_on_c, 0, 74, 20
14, 37289, Note_on_c, 0, 74, 0
14, 37290, Note_on_c, 0, 76, 20
14, 37319, Note_on_c, 0, 76, 0
14, 37320, Note_on_c, 0, 77, 20
14, 37379, Note_on_c, 0, 77, 0
14, 37380, Note_on_c, 0, 76, 20
14, 37409, Note_on_c, 0, 76, 0
14, 37410, Note_on_c, 0, 74, 20
14, 37739, Note_on_c, 0, 74, 0
14, 37740, Note_on_c, 0, 74, 20
14, 37769, Note_on_c, 0, 74, 0
14, 37770, Note_on_c, 0, 72, 20
14, 37799, Note_on_c, 0, 72, 0
14, 37800, Note_on_c, 0, 74, 20
14, 37829, Note_on_c, 0, 74, 0
14, 37830, Note_on_c, 0, 72, 20
14, 37889, Note_on_c, 0, 72, 0
14, 37890, Note_on_c, 0, 70, 20
14, 38040, Note_on_c, 0, 69, 20
14, 38049, Note_on_c, 0, 70, 0
14, 38119, Note_on_c, 0, 69, 0
14, 38120, Note_on_c, 0, 70, 20
14, 38199, Note_on_c, 0, 70, 0
14, 38200, Note_on_c, 0, 69, 20
14, 38279, Note_on_c, 0, 69, 0
14, 38280, Note_on_c, 0, 67, 20
14, 38399, Note_on_c, 0, 67, 0
14, 38400, Note_on_c, 0, 79, 20
14, 38519, Note_on_c, 0, 79, 0
14, 40760, Note_on_c, 0, 70, 20
14, 40800, Note_on_c, 0, 70, 0
14, 40840, Note_on_c, 0, 69, 20
14, 40900, Note_on_c, 0, 69, 0
14, 40920, Note_on_c, 0, 70, 20
14, 40980, Note_on_c, 0, 70, 0
14, 41000, Note_on_c, 0, 69, 20
14, 41060, Note_on_c, 0, 69, 0
14, 41080, Note_on_c, 0, 70, 20
14, 41140, Note_on_c, 0, 70, 0
14, 41160, Note_on_c, 0, 72, 20
14, 41220, Note_on_c, 0, 72, 0
14, 41240, Note_on_c, 0, 70, 20
14, 41300, Note_on_c, 0, 70, 0
14, 41320, Note_on_c, 0, 69, 20
14, 41380, Note_on_c, 0, 69, 0
14, 41400, Note_on_c, 0, 70, 20
14, 41460, Note_on_c, 0, 70, 0
14, 41480, Note_on_c, 0, 69, 20
14, 41540, Note_on_c, 0, 69, 0
14, 41560, Note_on_c, 0, 67, 20
14, 41620, Note_on_c, 0, 67, 0
14, 41640, Note_on_c, 0, 65, 20
14, 41700, Note_on_c, 0, 65, 0
14, 41720, Note_on_c, 0, 64, 20
14, 41780, Note_on_c, 0, 64, 0
14, 41800, Note_on_c, 0, 65, 20
14, 41860, Note_on_c, 0, 65, 0
14, 41880, Note_on_c, 0, 67, 20
14, 41940, Note_on_c, 0, 67, 0
14, 41960, Note_on_c, 0, 65, 20
14, 42020, Note_on_c, 0, 65, 0
14, 42040, Note_on_c, 0, 62, 20
14, 42100, Note_on_c, 0, 62, 0
14, 42120, Note_on_c, 0, 60, 20
14, 42180, Note_on_c, 0, 60, 0
14, 42200, Note_on_c, 0, 55, 20
14, 42260, Note_on_c, 0, 55, 0
14, 42280, Note_on_c, 0, 60, 20
14, 42340, Note_on_c, 0, 60, 0
14, 42360, Note_on_c, 0, 64, 20
14, 42420, Note_on_c, 0, 64, 0
14, 42440, Note_on_c, 0, 60, 20
14, 42500, Note_on_c, 0, 60, 0
14, 42520, Note_on_c, 0, 64, 20
14, 42580, Note_on_c, 0, 64, 0
14, 42600, Note_on_c, 0, 67, 20
14, 42660, Note_on_c, 0, 67, 0
14, 42680, Note_on_c, 0, 64, 20
14, 42740, Note_on_c, 0, 64, 0
14, 42760, Note_on_c, 0, 72, 20
14, 42820, Note_on_c, 0, 72, 0
14, 42840, Note_on_c, 0, 76, 20
14, 42900, Note_on_c, 0, 76, 0
14, 42920, Note_on_c, 0, 79, 20
14, 42980, Note_on_c, 0, 79, 0
14, 43000, Note_on_c, 0, 79, 20
14, 43060, Note_on_c, 0, 79, 0
14, 43080, Note_on_c, 0, 79, 20
14, 43559, Note_on_c, 0, 79, 0
14, 43560, Note_on_c, 0, 72, 20
14, 43799, Note_on_c, 0, 72, 0
14, 43800, Note_on_c, 0, 71, 20
14, 44039, Note_on_c, 0, 71, 0
14, 44040, Note_on_c, 0, 69, 20
14, 44249, Note_on_c, 0, 69, 0
14, 44260, Note_on_c, 0, 64, 20
14, 44280, Note_on_c, 0, 69, 20
14, 44289, Note_on_c, 0, 64, 0
14, 44309, Note_on_c, 0, 69, 0
14, 44320, Note_on_c, 0, 71, 20
14, 44349, Note_on_c, 0, 71, 0
14, 44380, Note_on_c, 0, 72, 20
14, 44409, Note_on_c, 0, 72, 0
14, 44440, Note_on_c, 0, 69, 20
14, 44469, Note_on_c, 0, 69, 0
14, 44500, Note_on_c, 0, 74, 20
14, 44560, Note_on_c, 0, 74, 0
14, 45000, Note_on_c, 0, 78, 20
14, 45419, Note_on_c, 0, 78, 0
14, 45420, Note_on_c, 0, 76, 20
14, 45449, Note_on_c, 0, 76, 0
14, 45450, Note_on_c, 0, 78, 20
14, 45479, Note_on_c, 0, 78, 0
14, 45480, Note_on_c, 0, 79, 20
14, 45539, Note_on_c, 0, 79, 0
14, 45540, Note_on_c, 0, 78, 20
14, 45569, Note_on_c, 0, 78, 0
14, 45570, Note_on_c, 0, 76, 20
14, 45899, Note_on_c, 0, 76, 0
14, 45900, Note_on_c, 0, 76, 20
14, 45929, Note_on_c, 0, 76, 0
14, 45930, Note_on_c, 0, 74, 20
14, 45959, Note_on_c, 0, 74, 0
14, 45960, Note_on_c, 0, 76, 20
14, 45989, Note_on_c, 0, 76, 0
14, 45990, Note_on_c, 0, 74, 20
14, 46049, Note_on_c, 0, 74, 0
14, 46050, Note_on_c, 0, 72, 20
14, 46200, Note_on_c, 0, 71, 20
14, 46209, Note_on_c, 0, 72, 0
14, 46279, Note_on_c, 0, 71, 0
14, 46280, Note_on_c, 0, 72, 20
14, 46359, Note_on_c, 0, 72, 0
14, 46360, Note_on_c, 0, 71, 20
14, 46439, Note_on_c, 0, 71, 0
14, 46440, Note_on_c, 0, 69, 20
14, 46559, Note_on_c, 0, 69, 0
14, 46560, Note_on_c, 0, 81, 20
14, 46679, Note_on_c, 0, 81, 0
14, 46920, Note_on_c, 0, 67, 20
14, 46920, Note_on_c, 0, 79, 20
14, 46979, Note_on_c, 0, 67, 0
14, 47399, Note_on_c, 0, 79, 0
14, 47400, Note_on_c, 0, 72, 20
14, 47639, Note_on_c, 0, 72, 0
14, 47640, Note_on_c, 0, 71, 20
14, 47879, Note_on_c, 0, 71, 0
14, 47880, Note_on_c, 0, 69, 20
14, 48089, Note_on_c, 0, 69, 0
14, 48100, Note_on_c, 0, 64, 20
14, 48120, Note_on_c, 0, 69, 20
14, 48129, Note_on_c, 0, 64, 0
14, 48149, Note_on_c, 0, 69, 0
14, 48160, Note_on_c, 0, 71, 20
14, 48189, Note_on_c, 0, 71, 0
14, 48220, Note_on_c, 0, 72, 20
14, 48249, Note_on_c, 0, 72, 0
14, 48280, Note_on_c, 0, 69, 20
14, 48309, Note_on_c, 0, 69, 0
14, 48340, Note_on_c, 0, 74, 20
14, 48400, Note_on_c, 0, 74, 0
14, 48840, Note_on_c, 0, 78, 20
14, 49259, Note_on_c, 0, 78, 0
14, 49260, Note_on_c, 0, 76, 20
14, 49289, Note_on_c, 0, 76, 0
14, 49290, Note_on_c, 0, 78, 20
14, 49319, Note_on_c, 0, 78, 0
14, 49320, Note_on_c, 0, 79, 20
14, 49379, Note_on_c, 0, 79, 0
14, 49380, Note_on_c, 0, 78, 20
14, 49409, Note_on_c, 0, 78, 0
14, 49410, Note_on_c, 0, 76, 20
14, 49739, Note_on_c, 0, 76, 0
14, 49740, Note_on_c, 0, 76, 20
14, 49769, Note_on_c, 0, 76, 0
14, 49770, Note_on_c, 0, 74, 20
14, 49799, Note_on_c, 0, 74, 0
14, 49800, Note_on_c, 0, 76, 20
14, 49829, Note_on_c, 0, 76, 0
14, 49830, Note_on_c, 0, 74, 20
14, 49889, Note_on_c, 0, 74, 0
14, 49890, Note_on_c, 0, 72, 20
14, 50040, Note_on_c, 0, 71, 20
14, 50049, Note_on_c, 0, 72, 0
14, 50119, Note_on_c, 0, 71, 0
14, 50120, Note_on_c, 0, 72, 20
14, 50199, Note_on_c, 0, 72, 0
14, 50200, Note_on_c, 0, 71, 20
14, 50279, Note_on_c, 0, 71, 0
14, 50280, Note_on_c, 0, 69, 20
14, 50399, Note_on_c, 0, 69, 0
14, 50400, Note_on_c, 0, 81, 20
14, 50519, Note_on_c, 0, 81, 0
14, 50580, Control_c, 0, 11, 127
14, 50600, Note_on_c, 0, 79, 20
14, 50640, Control_c, 0, 11, 126
14, 50660, Note_on_c, 0, 79, 0
14, 50680, Note_on_c, 0, 79, 20
14, 50700, Control_c, 0, 11, 125
14, 50740, Note_on_c, 0, 79, 0
14, 50760, Note_on_c, 0, 79, 20
14, 50761, Control_c, 0, 11, 124
14, 50821, Control_c, 0, 11, 123
14, 50882, Control_c, 0, 11, 122
14, 50942, Control_c, 0, 11, 121
14, 51003, Control_c, 0, 11, 120
14, 51063, Control_c, 0, 11, 119
14, 51124, Control_c, 0, 11, 118
14, 51184, Control_c, 0, 11, 117
14, 51239, Note_on_c, 0, 79, 0
14, 51240, Note_on_c, 0, 72, 20
14, 51245, Control_c, 0, 11, 116
14, 51305, Control_c, 0, 11, 115
14, 51366, Control_c, 0, 11, 114
14, 51426, Control_c, 0, 11, 113
14, 51479, Note_on_c, 0, 72, 0
14, 51480, Note_on_c, 0, 71, 20
14, 51486, Control_c, 0, 11, 112
14, 51547, Control_c, 0, 11, 111
14, 51607, Control_c, 0, 11, 110
14, 51668, Control_c, 0, 11, 109
14, 51719, Note_on_c, 0, 71, 0
14, 51720, Note_on_c, 0, 69, 20
14, 51728, Control_c, 0, 11, 108
14, 51789, Control_c, 0, 11, 107
14, 51849, Control_c, 0, 11, 106
14, 51910, Control_c, 0, 11, 105
14, 51929, Note_on_c, 0, 69, 0
14, 51930, Note_on_c, 0, 64, 20
14, 51959, Note_on_c, 0, 64, 0
14, 51960, Note_on_c, 0, 69, 20
14, 51970, Control_c, 0, 11, 104
14, 52000, Note_on_c, 0, 71, 20
14, 52020, Note_on_c, 0, 69, 0
14, 52031, Control_c, 0, 11, 103
14, 52060, Note_on_c, 0, 71, 0
14, 52060, Note_on_c, 0, 72, 20
14, 52091, Control_c, 0, 11, 102
14, 52120, Note_on_c, 0, 72, 0
14, 52120, Note_on_c, 0, 69, 20
14, 52152, Control_c, 0, 11, 101
14, 52180, Note_on_c, 0, 69, 0
14, 52180, Note_on_c, 0, 74, 20
14, 52212, Control_c, 0, 11, 100
14, 52240, Note_on_c, 0, 74, 0
14, 52273, Control_c, 0, 11, 99
14, 52333, Control_c, 0, 11, 98
14, 52393, Control_c, 0, 11, 97
14, 52454, Control_c, 0, 11, 96
14, 52514, Control_c, 0, 11, 95
14, 52575, Control_c, 0, 11, 94
14, 52635, Control_c, 0, 11, 93
14, 52680, Note_on_c, 0, 78, 20
14, 52696, Control_c, 0, 11, 92
14, 52756, Control_c, 0, 11, 91
14, 52817, Control_c, 0, 11, 90
14, 52877, Control_c, 0, 11, 89
14, 52938, Control_c, 0, 11, 88
14, 52998, Control_c, 0, 11, 87
14, 53059, Control_c, 0, 11, 86
14, 53099, Note_on_c, 0, 78, 0
14, 53100, Note_on_c, 0, 76, 20
14, 53119, Control_c, 0, 11, 85
14, 53129, Note_on_c, 0, 76, 0
14, 53130, Note_on_c, 0, 78, 20
14, 53159, Note_on_c, 0, 78, 0
14, 53160, Note_on_c, 0, 79, 20
14, 53179, Control_c, 0, 11, 84
14, 53219, Note_on_c, 0, 79, 0
14, 53220, Note_on_c, 0, 78, 20
14, 53240, Control_c, 0, 11, 83
14, 53249, Note_on_c, 0, 78, 0
14, 53250, Note_on_c, 0, 76, 20
14, 53300, Control_c, 0, 11, 82
14, 53361, Control_c, 0, 11, 81
14, 53421, Control_c, 0, 11, 80
14, 53482, Control_c, 0, 11, 79
14, 53542, Control_c, 0, 11, 78
14, 53579, Note_on_c, 0, 76, 0
14, 53580, Note_on_c, 0, 76, 20
14, 53603, Control_c, 0, 11, 77
14, 53609, Note_on_c, 0, 76, 0
14, 53610, Note_on_c, 0, 74, 20
14, 53639, Note_on_c, 0, 74, 0
14, 53640, Note_on_c, 0, 76, 20
14, 53663, Control_c, 0, 11, 76
14, 53669, Note_on_c, 0, 76, 0
14, 53670, Note_on_c, 0, 74, 20
14, 53724, Control_c, 0, 11, 75
14, 53729, Note_on_c, 0, 74, 0
14, 53730, Note_on_c, 0, 72, 20
14, 53784, Control_c, 0, 11, 74
14, 53845, Control_c, 0, 11, 73
14, 53880, Note_on_c, 0, 71, 20
14, 53889, Note_on_c, 0, 72, 0
14, 53905, Control_c, 0, 11, 72
14, 53959, Note_on_c, 0, 71, 0
14, 53960, Note_on_c, 0, 72, 20
14, 53966, Control_c, 0, 11, 71
14, 54026, Control_c, 0, 11, 70
14, 54039, Note_on_c, 0, 72, 0
14, 54040, Note_on_c, 0, 71, 20
14, 54086, Control_c, 0, 11, 69
14, 54119, Note_on_c, 0, 71, 0
14, 54120, Note_on_c, 0, 69, 20
14, 54147, Control_c, 0, 11, 68
14, 54207, Control_c, 0, 11, 67
14, 54239, Note_on_c, 0, 69, 0
14, 54240, Note_on_c, 0, 81, 20
14, 54268, Control_c, 0, 11, 66
14, 54328, Control_c, 0, 11, 65
14, 54359, Note_on_c, 0, 81, 0
14, 54389, Control_c, 0, 11, 64
14, 54449, Control_c, 0, 11, 63
14, 54510, Control_c, 0, 11, 62
14, 54570, Control_c, 0, 11, 61
14, 54600, Note_on_c, 0, 79, 20
14, 54631, Control_c, 0, 11, 60
14, 54691, Control_c, 0, 11, 59
14, 54752, Control_c, 0, 11, 58
14, 54812, Control_c, 0, 11, 57
14, 54872, Control_c, 0, 11, 56
14, 54933, Control_c, 0, 11, 55
14, 54993, Control_c, 0, 11, 54
14, 55054, Control_c, 0, 11, 53
14, 55079, Note_on_c, 0, 79, 0
14, 55080, Note_on_c, 0, 72, 20
14, 55114, Control_c, 0, 11, 52
14, 55175, Control_c, 0, 11, 51
14, 55235, Control_c, 0, 11, 50
14, 55296, Control_c, 0, 11, 49
14, 55319, Note_on_c, 0, 72, 0
14, 55320, Note_on_c, 0, 71, 20
14, 55356, Control_c, 0, 11, 48
14, 55417, Control_c, 0, 11, 47
14, 55477, Control_c, 0, 11, 46
14, 55538, Control_c, 0, 11, 45
14, 55559, Note_on_c, 0, 71, 0
14, 55560, Note_on_c, 0, 69, 20
14, 55598, Control_c, 0, 11, 44
14, 55659, Control_c, 0, 11, 43
14, 55719, Control_c, 0, 11, 42
14, 55769, Note_on_c, 0, 69, 0
14, 55779, Control_c, 0, 11, 41
14, 55780, Note_on_c, 0, 64, 20
14, 55800, Note_on_c, 0, 69, 20
14, 55809, Note_on_c, 0, 64, 0
14, 55840, Control_c, 0, 11, 40
14, 55840, Note_on_c, 0, 71, 20
14, 55860, Note_on_c, 0, 69, 0
14, 55900, Note_on_c, 0, 71, 0
14, 55900, Control_c, 0, 11, 39
14, 55900, Note_on_c, 0, 72, 20
14, 55960, Note_on_c, 0, 72, 0
14, 55960, Note_on_c, 0, 69, 20
14, 55961, Control_c, 0, 11, 38
14, 56020, Note_on_c, 0, 69, 0
14, 56020, Note_on_c, 0, 74, 20
14, 56021, Control_c, 0, 11, 37
14, 56080, Note_on_c, 0, 74, 0
14, 56082, Control_c, 0, 11, 36
14, 56142, Control_c, 0, 11, 35
14, 56203, Control_c, 0, 11, 34
14, 56263, Control_c, 0, 11, 33
14, 56324, Control_c, 0, 11, 32
14, 56384, Control_c, 0, 11, 31
14, 56445, Control_c, 0, 11, 30
14, 56505, Control_c, 0, 11, 29
14, 56520, Note_on_c, 0, 78, 20
14, 56565, Control_c, 0, 11, 28
14, 56626, Control_c, 0, 11, 27
14, 56686, Control_c, 0, 11, 26
14, 56747, Control_c, 0, 11, 25
14, 56807, Control_c, 0, 11, 24
14, 56868, Control_c, 0, 11, 23
14, 56928, Control_c, 0, 11, 22
14, 56939, Note_on_c, 0, 78, 0
14, 56940, Note_on_c, 0, 76, 20
14, 56969, Note_on_c, 0, 76, 0
14, 56970, Note_on_c, 0, 78, 20
14, 56989, Control_c, 0, 11, 21
14, 56999, Note_on_c, 0, 78, 0
14, 57000, Note_on_c, 0, 79, 20
14, 57049, Control_c, 0, 11, 20
14, 57059, Note_on_c, 0, 79, 0
14, 57060, Note_on_c, 0, 78, 20
14, 57089, Note_on_c, 0, 78, 0
14, 57090, Note_on_c, 0, 76, 20
14, 57110, Control_c, 0, 11, 19
14, 57170, Control_c, 0, 11, 18
14, 57231, Control_c, 0, 11, 17
14, 57291, Control_c, 0, 11, 16
14, 57352, Control_c, 0, 11, 15
14, 57412, Control_c, 0, 11, 14
14, 57419, Note_on_c, 0, 76, 0
14, 57420, Note_on_c, 0, 76, 20
14, 57449, Note_on_c, 0, 76, 0
14, 57450, Note_on_c, 0, 74, 20
14, 57472, Control_c, 0, 11, 13
14, 57479, Note_on_c, 0, 74, 0
14, 57480, Note_on_c, 0, 76, 20
14, 57509, Note_on_c, 0, 76, 0
14, 57510, Note_on_c, 0, 74, 20
14, 57533, Control_c, 0, 11, 12
14, 57569, Note_on_c, 0, 74, 0
14, 57570, Note_on_c, 0, 72, 20
14, 57593, Control_c, 0, 11, 11
14, 57654, Control_c, 0, 11, 10
14, 57714, Control_c, 0, 11, 9
14, 57720, Note_on_c, 0, 71, 20
14, 57729, Note_on_c, 0, 72, 0
14, 57775, Control_c, 0, 11, 8
14, 57799, Note_on_c, 0, 71, 0
14, 57800, Note_on_c, 0, 72, 20
14, 57835, Control_c, 0, 11, 7
14, 57879, Note_on_c, 0, 72, 0
14, 57880, Note_on_c, 0, 71, 20
14, 57896, Control_c, 0, 11, 6
14, 57956, Control_c, 0, 11, 5
14, 57959, Note_on_c, 0, 71, 0
14, 57960, Note_on_c, 0, 69, 20
14, 58017, Control_c, 0, 11, 4
14, 58077, Control_c, 0, 11, 3
14, 58079, Note_on_c, 0, 69, 0
14, 58080, Note_on_c, 0, 81, 20
14, 58138, Control_c, 0, 11, 2
14, 58198, Control_c, 0, 11, 1
14, 58199, Note_on_c, 0, 81, 0
14, 58259, Control_c, 0, 11, 0
14, 58259, End_track
15, 0, Start_track
15, 0, MIDI_port, 0
15, 0, Title_t, "bd"
15, 0, Control_c, 9, 0, 0
15, 0, Control_c, 9, 32, 0
15, 0, Program_c, 9, 25
15, 0, Control_c, 9, 7, 127
15, 0, Control_c, 9, 10, 64
15, 0, Control_c, 9, 11, 127
15, 0, Control_c, 9, 91, 10
15, 0, Control_c, 9, 93, 0
15, 480, Note_on_c, 9, 35, 110
15, 599, Note_on_c, 9, 35, 0
15, 600, Note_on_c, 9, 35, 110
15, 719, Note_on_c, 9, 35, 0
15, 720, Note_on_c, 9, 35, 110
15, 839, Note_on_c, 9, 35, 0
15, 840, Note_on_c, 9, 35, 110
15, 959, Note_on_c, 9, 35, 0
15, 960, Note_on_c, 9, 35, 110
15, 1079, Note_on_c, 9, 35, 0
15, 1080, Note_on_c, 9, 35, 110
15, 1199, Note_on_c, 9, 35, 0
15, 1200, Note_on_c, 9, 35, 110
15, 1319, Note_on_c, 9, 35, 0
15, 1320, Note_on_c, 9, 35, 110
15, 1439, Note_on_c, 9, 35, 0
15, 1440, Note_on_c, 9, 35, 110
15, 1559, Note_on_c, 9, 35, 0
15, 1560, Note_on_c, 9, 35, 110
15, 1679, Note_on_c, 9, 35, 0
15, 1680, Note_on_c, 9, 35, 110
15, 1799, Note_on_c, 9, 35, 0
15, 1800, Note_on_c, 9, 35, 110
15, 1919, Note_on_c, 9, 35, 0
15, 1920, Note_on_c, 9, 35, 110
15, 2039, Note_on_c, 9, 35, 0
15, 2040, Note_on_c, 9, 35, 110
15, 2159, Note_on_c, 9, 35, 0
15, 2160, Note_on_c, 9, 35, 110
15, 2279, Note_on_c, 9, 35, 0
15, 2280, Note_on_c, 9, 35, 110
15, 2399, Note_on_c, 9, 35, 0
15, 2400, Note_on_c, 9, 35, 110
15, 2519, Note_on_c, 9, 35, 0
15, 2520, Note_on_c, 9, 35, 110
15, 2639, Note_on_c, 9, 35, 0
15, 2640, Note_on_c, 9, 35, 110
15, 2759, Note_on_c, 9, 35, 0
15, 2760, Note_on_c, 9, 35, 110
15, 2879, Note_on_c, 9, 35, 0
15, 2880, Note_on_c, 9, 35, 110
15, 2999, Note_on_c, 9, 35, 0
15, 3000, Note_on_c, 9, 35, 110
15, 3119, Note_on_c, 9, 35, 0
15, 3120, Note_on_c, 9, 35, 110
15, 3239, Note_on_c, 9, 35, 0
15, 3240, Note_on_c, 9, 35, 110
15, 3359, Note_on_c, 9, 35, 0
15, 3360, Note_on_c, 9, 35, 110
15, 3479, Note_on_c, 9, 35, 0
15, 3480, Note_on_c, 9, 35, 110
15, 3599, Note_on_c, 9, 35, 0
15, 3600, Note_on_c, 9, 35, 110
15, 3719, Note_on_c, 9, 35, 0
15, 3720, Note_on_c, 9, 35, 110
15, 3839, Note_on_c, 9, 35, 0
15, 3840, Note_on_c, 9, 35, 110
15, 3959, Note_on_c, 9, 35, 0
15, 3960, Note_on_c, 9, 35, 110
15, 4079, Note_on_c, 9, 35, 0
15, 4080, Note_on_c, 9, 35, 110
15, 4199, Note_on_c, 9, 35, 0
15, 4200, Note_on_c, 9, 35, 110
15, 4319, Note_on_c, 9, 35, 0
15, 4320, Note_on_c, 9, 35, 110
15, 4439, Note_on_c, 9, 35, 0
15, 4440, Note_on_c, 9, 35, 110
15, 4559, Note_on_c, 9, 35, 0
15, 4560, Note_on_c, 9, 35, 110
15, 4679, Note_on_c, 9, 35, 0
15, 4680, Note_on_c, 9, 35, 110
15, 4799, Note_on_c, 9, 35, 0
15, 4800, Note_on_c, 9, 35, 110
15, 4919, Note_on_c, 9, 35, 0
15, 4920, Note_on_c, 9, 35, 110
15, 5039, Note_on_c, 9, 35, 0
15, 5040, Note_on_c, 9, 35, 110
15, 5159, Note_on_c, 9, 35, 0
15, 5160, Note_on_c, 9, 35, 110
15, 5279, Note_on_c, 9, 35, 0
15, 5280, Note_on_c, 9, 35, 110
15, 5399, Note_on_c, 9, 35, 0
15, 5400, Note_on_c, 9, 35, 110
15, 5519, Note_on_c, 9, 35, 0
15, 5520, Note_on_c, 9, 35, 110
15, 5639, Note_on_c, 9, 35, 0
15, 5640, Note_on_c, 9, 35, 110
15, 5759, Note_on_c, 9, 35, 0
15, 5760, Note_on_c, 9, 35, 110
15, 5879, Note_on_c, 9, 35, 0
15, 5880, Note_on_c, 9, 35, 110
15, 5999, Note_on_c, 9, 35, 0
15, 6000, Note_on_c, 9, 35, 110
15, 6119, Note_on_c, 9, 35, 0
15, 6120, Note_on_c, 9, 35, 110
15, 6239, Note_on_c, 9, 35, 0
15, 6240, Note_on_c, 9, 35, 110
15, 6359, Note_on_c, 9, 35, 0
15, 6360, Note_on_c, 9, 35, 110
15, 6479, Note_on_c, 9, 35, 0
15, 6480, Note_on_c, 9, 35, 110
15, 6599, Note_on_c, 9, 35, 0
15, 6600, Note_on_c, 9, 35, 110
15, 6719, Note_on_c, 9, 35, 0
15, 6720, Note_on_c, 9, 35, 110
15, 6839, Note_on_c, 9, 35, 0
15, 6840, Note_on_c, 9, 35, 110
15, 6959, Note_on_c, 9, 35, 0
15, 6960, Note_on_c, 9, 35, 110
15, 7079, Note_on_c, 9, 35, 0
15, 7080, Note_on_c, 9, 35, 110
15, 7199, Note_on_c, 9, 35, 0
15, 7200, Note_on_c, 9, 35, 110
15, 7319, Note_on_c, 9, 35, 0
15, 7320, Note_on_c, 9, 35, 110
15, 7439, Note_on_c, 9, 35, 0
15, 7440, Note_on_c, 9, 35, 110
15, 7559, Note_on_c, 9, 35, 0
15, 7560, Note_on_c, 9, 35, 110
15, 7679, Note_on_c, 9, 35, 0
15, 7680, Note_on_c, 9, 35, 110
15, 7799, Note_on_c, 9, 35, 0
15, 8160, Note_on_c, 9, 35, 110
15, 8279, Note_on_c, 9, 35, 0
15, 12000, Note_on_c, 9, 35, 110
15, 12119, Note_on_c, 9, 35, 0
15, 12120, Note_on_c, 9, 35, 110
15, 12239, Note_on_c, 9, 35, 0
15, 12240, Note_on_c, 9, 35, 110
15, 12359, Note_on_c, 9, 35, 0
15, 12360, Note_on_c, 9, 35, 110
15, 12479, Note_on_c, 9, 35, 0
15, 12480, Note_on_c, 9, 35, 110
15, 12599, Note_on_c, 9, 35, 0
15, 12600, Note_on_c, 9, 35, 110
15, 12719, Note_on_c, 9, 35, 0
15, 12720, Note_on_c, 9, 35, 110
15, 12839, Note_on_c, 9, 35, 0
15, 12840, Note_on_c, 9, 35, 110
15, 12959, Note_on_c, 9, 35, 0
15, 12960, Note_on_c, 9, 35, 110
15, 13079, Note_on_c, 9, 35, 0
15, 13080, Note_on_c, 9, 35, 110
15, 13199, Note_on_c, 9, 35, 0
15, 13200, Note_on_c, 9, 35, 110
15, 13319, Note_on_c, 9, 35, 0
15, 13320, Note_on_c, 9, 35, 110
15, 13439, Note_on_c, 9, 35, 0
15, 13440, Note_on_c, 9, 35, 110
15, 13559, Note_on_c, 9, 35, 0
15, 13560, Note_on_c, 9, 35, 110
15, 13679, Note_on_c, 9, 35, 0
15, 13680, Note_on_c, 9, 35, 110
15, 13799, Note_on_c, 9, 35, 0
15, 13800, Note_on_c, 9, 35, 110
15, 13919, Note_on_c, 9, 35, 0
15, 13920, Note_on_c, 9, 35, 110
15, 14039, Note_on_c, 9, 35, 0
15, 14040, Note_on_c, 9, 35, 110
15, 14159, Note_on_c, 9, 35, 0
15, 14160, Note_on_c, 9, 35, 110
15, 14279, Note_on_c, 9, 35, 0
15, 14280, Note_on_c, 9, 35, 110
15, 14399, Note_on_c, 9, 35, 0
15, 14400, Note_on_c, 9, 35, 110
15, 14519, Note_on_c, 9, 35, 0
15, 14520, Note_on_c, 9, 35, 110
15, 14639, Note_on_c, 9, 35, 0
15, 14640, Note_on_c, 9, 35, 110
15, 14759, Note_on_c, 9, 35, 0
15, 14760, Note_on_c, 9, 35, 110
15, 14879, Note_on_c, 9, 35, 0
15, 14880, Note_on_c, 9, 35, 110
15, 14999, Note_on_c, 9, 35, 0
15, 15000, Note_on_c, 9, 35, 110
15, 15119, Note_on_c, 9, 35, 0
15, 15120, Note_on_c, 9, 35, 110
15, 15239, Note_on_c, 9, 35, 0
15, 15240, Note_on_c, 9, 35, 110
15, 15359, Note_on_c, 9, 35, 0
15, 15360, Note_on_c, 9, 35, 110
15, 15479, Note_on_c, 9, 35, 0
15, 15480, Note_on_c, 9, 35, 110
15, 15599, Note_on_c, 9, 35, 0
15, 15600, Note_on_c, 9, 35, 110
15, 15719, Note_on_c, 9, 35, 0
15, 15720, Note_on_c, 9, 35, 110
15, 15839, Note_on_c, 9, 35, 0
15, 15840, Note_on_c, 9, 35, 110
15, 15959, Note_on_c, 9, 35, 0
15, 15960, Note_on_c, 9, 35, 110
15, 16079, Note_on_c, 9, 35, 0
15, 16080, Note_on_c, 9, 35, 110
15, 16199, Note_on_c, 9, 35, 0
15, 16200, Note_on_c, 9, 35, 110
15, 16319, Note_on_c, 9, 35, 0
15, 16320, Note_on_c, 9, 35, 110
15, 16439, Note_on_c, 9, 35, 0
15, 16440, Note_on_c, 9, 35, 110
15, 16559, Note_on_c, 9, 35, 0
15, 16560, Note_on_c, 9, 35, 110
15, 16679, Note_on_c, 9, 35, 0
15, 16680, Note_on_c, 9, 35, 110
15, 16799, Note_on_c, 9, 35, 0
15, 16800, Note_on_c, 9, 35, 110
15, 16919, Note_on_c, 9, 35, 0
15, 16920, Note_on_c, 9, 35, 110
15, 17039, Note_on_c, 9, 35, 0
15, 17040, Note_on_c, 9, 35, 110
15, 17159, Note_on_c, 9, 35, 0
15, 17160, Note_on_c, 9, 35, 110
15, 17279, Note_on_c, 9, 35, 0
15, 17280, Note_on_c, 9, 35, 110
15, 17399, Note_on_c, 9, 35, 0
15, 17400, Note_on_c, 9, 35, 110
15, 17519, Note_on_c, 9, 35, 0
15, 17520, Note_on_c, 9, 35, 110
15, 17639, Note_on_c, 9, 35, 0
15, 17640, Note_on_c, 9, 35, 110
15, 17759, Note_on_c, 9, 35, 0
15, 17760, Note_on_c, 9, 35, 110
15, 17879, Note_on_c, 9, 35, 0
15, 17880, Note_on_c, 9, 35, 110
15, 17999, Note_on_c, 9, 35, 0
15, 18000, Note_on_c, 9, 35, 110
15, 18119, Note_on_c, 9, 35, 0
15, 18120, Note_on_c, 9, 35, 110
15, 18239, Note_on_c, 9, 35, 0
15, 18240, Note_on_c, 9, 35, 110
15, 18359, Note_on_c, 9, 35, 0
15, 18360, Note_on_c, 9, 35, 110
15, 18479, Note_on_c, 9, 35, 0
15, 18480, Note_on_c, 9, 35, 110
15, 18599, Note_on_c, 9, 35, 0
15, 18600, Note_on_c, 9, 35, 110
15, 18719, Note_on_c, 9, 35, 0
15, 18720, Note_on_c, 9, 35, 110
15, 18839, Note_on_c, 9, 35, 0
15, 18840, Note_on_c, 9, 35, 110
15, 18959, Note_on_c, 9, 35, 0
15, 18960, Note_on_c, 9, 35, 110
15, 19079, Note_on_c, 9, 35, 0
15, 19080, Note_on_c, 9, 35, 110
15, 19199, Note_on_c, 9, 35, 0
15, 19200, Note_on_c, 9, 35, 110
15, 19319, Note_on_c, 9, 35, 0
15, 19320, Note_on_c, 9, 35, 110
15, 19439, Note_on_c, 9, 35, 0
15, 19440, Note_on_c, 9, 35, 110
15, 19559, Note_on_c, 9, 35, 0
15, 19560, Note_on_c, 9, 35, 110
15, 19679, Note_on_c, 9, 35, 0
15, 19680, Note_on_c, 9, 35, 110
15, 19799, Note_on_c, 9, 35, 0
15, 20640, Note_on_c, 9, 35, 110
15, 20759, Note_on_c, 9, 35, 0
15, 20760, Note_on_c, 9, 35, 110
15, 20879, Note_on_c, 9, 35, 0
15, 20880, Note_on_c, 9, 35, 110
15, 20999, Note_on_c, 9, 35, 0
15, 21000, Note_on_c, 9, 35, 110
15, 21119, Note_on_c, 9, 35, 0
15, 21120, Note_on_c, 9, 35, 110
15, 21239, Note_on_c, 9, 35, 0
15, 21240, Note_on_c, 9, 35, 110
15, 21359, Note_on_c, 9, 35, 0
15, 21360, Note_on_c, 9, 35, 110
15, 21479, Note_on_c, 9, 35, 0
15, 21480, Note_on_c, 9, 35, 110
15, 21599, Note_on_c, 9, 35, 0
15, 21600, Note_on_c, 9, 35, 110
15, 21719, Note_on_c, 9, 35, 0
15, 21720, Note_on_c, 9, 35, 110
15, 21839, Note_on_c, 9, 35, 0
15, 21840, Note_on_c, 9, 35, 110
15, 21959, Note_on_c, 9, 35, 0
15, 21960, Note_on_c, 9, 35, 110
15, 22079, Note_on_c, 9, 35, 0
15, 22080, Note_on_c, 9, 35, 110
15, 22199, Note_on_c, 9, 35, 0
15, 22200, Note_on_c, 9, 35, 110
15, 22319, Note_on_c, 9, 35, 0
15, 22320, Note_on_c, 9, 35, 110
15, 22439, Note_on_c, 9, 35, 0
15, 22440, Note_on_c, 9, 35, 110
15, 22559, Note_on_c, 9, 35, 0
15, 22560, Note_on_c, 9, 35, 110
15, 22679, Note_on_c, 9, 35, 0
15, 22680, Note_on_c, 9, 35, 110
15, 22799, Note_on_c, 9, 35, 0
15, 22800, Note_on_c, 9, 35, 110
15, 22919, Note_on_c, 9, 35, 0
15, 22920, Note_on_c, 9, 35, 110
15, 23039, Note_on_c, 9, 35, 0
15, 23040, Note_on_c, 9, 35, 110
15, 23159, Note_on_c, 9, 35, 0
15, 23160, Note_on_c, 9, 35, 110
15, 23279, Note_on_c, 9, 35, 0
15, 23280, Note_on_c, 9, 35, 110
15, 23399, Note_on_c, 9, 35, 0
15, 23400, Note_on_c, 9, 35, 110
15, 23519, Note_on_c, 9, 35, 0
15, 23520, Note_on_c, 9, 35, 110
15, 23639, Note_on_c, 9, 35, 0
15, 23640, Note_on_c, 9, 35, 110
15, 23759, Note_on_c, 9, 35, 0
15, 23760, Note_on_c, 9, 35, 110
15, 23879, Note_on_c, 9, 35, 0
15, 23880, Note_on_c, 9, 35, 110
15, 23999, Note_on_c, 9, 35, 0
15, 24000, Note_on_c, 9, 35, 110
15, 24119, Note_on_c, 9, 35, 0
15, 24120, Note_on_c, 9, 35, 110
15, 24239, Note_on_c, 9, 35, 0
15, 24240, Note_on_c, 9, 35, 110
15, 24359, Note_on_c, 9, 35, 0
15, 24360, Note_on_c, 9, 35, 110
15, 24479, Note_on_c, 9, 35, 0
15, 24480, Note_on_c, 9, 35, 110
15, 24599, Note_on_c, 9, 35, 0
15, 24600, Note_on_c, 9, 35, 110
15, 24719, Note_on_c, 9, 35, 0
15, 24720, Note_on_c, 9, 35, 110
15, 24839, Note_on_c, 9, 35, 0
15, 24840, Note_on_c, 9, 35, 110
15, 24959, Note_on_c, 9, 35, 0
15, 24960, Note_on_c, 9, 35, 110
15, 25079, Note_on_c, 9, 35, 0
15, 25080, Note_on_c, 9, 35, 110
15, 25199, Note_on_c, 9, 35, 0
15, 25200, Note_on_c, 9, 35, 110
15, 25319, Note_on_c, 9, 35, 0
15, 25320, Note_on_c, 9, 35, 110
15, 25439, Note_on_c, 9, 35, 0
15, 25440, Note_on_c, 9, 35, 110
15, 25559, Note_on_c, 9, 35, 0
15, 25560, Note_on_c, 9, 35, 110
15, 25679, Note_on_c, 9, 35, 0
15, 25680, Note_on_c, 9, 35, 110
15, 25799, Note_on_c, 9, 35, 0
15, 25800, Note_on_c, 9, 35, 110
15, 25919, Note_on_c, 9, 35, 0
15, 25920, Note_on_c, 9, 35, 110
15, 26039, Note_on_c, 9, 35, 0
15, 26040, Note_on_c, 9, 35, 110
15, 26159, Note_on_c, 9, 35, 0
15, 26160, Note_on_c, 9, 35, 110
15, 26279, Note_on_c, 9, 35, 0
15, 26280, Note_on_c, 9, 35, 110
15, 26399, Note_on_c, 9, 35, 0
15, 26400, Note_on_c, 9, 35, 110
15, 26519, Note_on_c, 9, 35, 0
15, 26520, Note_on_c, 9, 35, 110
15, 26639, Note_on_c, 9, 35, 0
15, 26640, Note_on_c, 9, 35, 110
15, 26759, Note_on_c, 9, 35, 0
15, 26760, Note_on_c, 9, 35, 110
15, 26879, Note_on_c, 9, 35, 0
15, 26880, Note_on_c, 9, 35, 110
15, 26999, Note_on_c, 9, 35, 0
15, 27000, Note_on_c, 9, 35, 110
15, 27119, Note_on_c, 9, 35, 0
15, 27120, Note_on_c, 9, 35, 110
15, 27239, Note_on_c, 9, 35, 0
15, 27240, Note_on_c, 9, 35, 110
15, 27359, Note_on_c, 9, 35, 0
15, 27360, Note_on_c, 9, 35, 110
15, 27479, Note_on_c, 9, 35, 0
15, 27480, Note_on_c, 9, 35, 110
15, 27599, Note_on_c, 9, 35, 0
15, 27600, Note_on_c, 9, 35, 110
15, 27719, Note_on_c, 9, 35, 0
15, 27720, Note_on_c, 9, 35, 110
15, 27839, Note_on_c, 9, 35, 0
15, 27840, Note_on_c, 9, 35, 110
15, 27959, Note_on_c, 9, 35, 0
15, 27960, Note_on_c, 9, 35, 110
15, 28079, Note_on_c, 9, 35, 0
15, 28080, Note_on_c, 9, 35, 110
15, 28199, Note_on_c, 9, 35, 0
15, 28200, Note_on_c, 9, 35, 110
15, 28319, Note_on_c, 9, 35, 0
15, 28320, Note_on_c, 9, 35, 110
15, 28439, Note_on_c, 9, 35, 0
15, 28440, Note_on_c, 9, 35, 110
15, 28559, Note_on_c, 9, 35, 0
15, 28560, Note_on_c, 9, 35, 110
15, 28679, Note_on_c, 9, 35, 0
15, 28680, Note_on_c, 9, 35, 110
15, 28799, Note_on_c, 9, 35, 0
15, 28800, Note_on_c, 9, 35, 110
15, 28919, Note_on_c, 9, 35, 0
15, 28920, Note_on_c, 9, 35, 110
15, 29039, Note_on_c, 9, 35, 0
15, 29040, Note_on_c, 9, 35, 110
15, 29159, Note_on_c, 9, 35, 0
15, 29160, Note_on_c, 9, 35, 110
15, 29279, Note_on_c, 9, 35, 0
15, 29280, Note_on_c, 9, 35, 110
15, 29399, Note_on_c, 9, 35, 0
15, 29400, Note_on_c, 9, 35, 110
15, 29519, Note_on_c, 9, 35, 0
15, 29520, Note_on_c, 9, 35, 110
15, 29639, Note_on_c, 9, 35, 0
15, 29640, Note_on_c, 9, 35, 110
15, 29759, Note_on_c, 9, 35, 0
15, 29760, Note_on_c, 9, 35, 110
15, 29879, Note_on_c, 9, 35, 0
15, 29880, Note_on_c, 9, 35, 110
15, 29980, Note_on_c, 9, 37, 110
15, 29999, Note_on_c, 9, 37, 0
15, 29999, Note_on_c, 9, 35, 0
15, 30000, Note_on_c, 9, 35, 110
15, 30000, Note_on_c, 9, 37, 110
15, 30019, Note_on_c, 9, 37, 0
15, 30060, Note_on_c, 9, 37, 110
15, 30079, Note_on_c, 9, 37, 0
15, 30119, Note_on_c, 9, 35, 0
15, 30120, Note_on_c, 9, 35, 110
15, 30120, Note_on_c, 9, 37, 110
15, 30139, Note_on_c, 9, 37, 0
15, 30160, Note_on_c, 9, 37, 110
15, 30179, Note_on_c, 9, 37, 0
15, 30180, Note_on_c, 9, 37, 110
15, 30199, Note_on_c, 9, 37, 0
15, 30200, Note_on_c, 9, 37, 110
15, 30219, Note_on_c, 9, 37, 0
15, 30220, Note_on_c, 9, 37, 110
15, 30239, Note_on_c, 9, 37, 0
15, 30239, Note_on_c, 9, 35, 0
15, 30240, Note_on_c, 9, 35, 110
15, 30359, Note_on_c, 9, 35, 0
15, 32160, Note_on_c, 9, 35, 110
15, 32279, Note_on_c, 9, 35, 0
15, 33600, Note_on_c, 9, 35, 110
15, 33719, Note_on_c, 9, 35, 0
15, 33840, Note_on_c, 9, 35, 110
15, 33959, Note_on_c, 9, 35, 0
15, 34080, Note_on_c, 9, 35, 110
15, 34120, Note_on_c, 9, 37, 110
15, 34139, Note_on_c, 9, 37, 0
15, 34140, Note_on_c, 9, 37, 110
15, 34159, Note_on_c, 9, 37, 0
15, 34199, Note_on_c, 9, 35, 0
15, 34200, Note_on_c, 9, 35, 110
15, 34200, Note_on_c, 9, 37, 110
15, 34219, Note_on_c, 9, 37, 0
15, 34300, Note_on_c, 9, 37, 110
15, 34319, Note_on_c, 9, 37, 0
15, 34319, Note_on_c, 9, 35, 0
15, 34320, Note_on_c, 9, 35, 110
15, 34320, Note_on_c, 9, 37, 110
15, 34339, Note_on_c, 9, 37, 0
15, 34380, Note_on_c, 9, 37, 110
15, 34399, Note_on_c, 9, 37, 0
15, 34439, Note_on_c, 9, 35, 0
15, 34440, Note_on_c, 9, 35, 110
15, 34440, Note_on_c, 9, 37, 110
15, 34459, Note_on_c, 9, 37, 0
15, 34480, Note_on_c, 9, 37, 110
15, 34499, Note_on_c, 9, 37, 0
15, 34500, Note_on_c, 9, 37, 110
15, 34519, Note_on_c, 9, 37, 0
15, 34559, Note_on_c, 9, 35, 0
15, 34560, Note_on_c, 9, 35, 110
15, 34679, Note_on_c, 9, 35, 0
15, 34680, Note_on_c, 9, 35, 110
15, 34799, Note_on_c, 9, 35, 0
15, 34800, Note_on_c, 9, 35, 110
15, 34919, Note_on_c, 9, 35, 0
15, 34920, Note_on_c, 9, 35, 110
15, 35039, Note_on_c, 9, 35, 0
15, 35040, Note_on_c, 9, 35, 110
15, 35159, Note_on_c, 9, 35, 0
15, 35160, Note_on_c, 9, 35, 110
15, 35279, Note_on_c, 9, 35, 0
15, 35280, Note_on_c, 9, 35, 110
15, 35399, Note_on_c, 9, 35, 0
15, 35400, Note_on_c, 9, 35, 110
15, 35519, Note_on_c, 9, 35, 0
15, 35520, Note_on_c, 9, 35, 110
15, 35639, Note_on_c, 9, 35, 0
15, 35640, Note_on_c, 9, 35, 110
15, 35759, Note_on_c, 9, 35, 0
15, 35760, Note_on_c, 9, 35, 110
15, 35879, Note_on_c, 9, 35, 0
15, 35880, Note_on_c, 9, 35, 110
15, 35999, Note_on_c, 9, 35, 0
15, 36000, Note_on_c, 9, 35, 110
15, 36119, Note_on_c, 9, 35, 0
15, 36120, Note_on_c, 9, 35, 110
15, 36239, Note_on_c, 9, 35, 0
15, 36240, Note_on_c, 9, 35, 110
15, 36359, Note_on_c, 9, 35, 0
15, 36360, Note_on_c, 9, 35, 110
15, 36479, Note_on_c, 9, 35, 0
15, 36480, Note_on_c, 9, 35, 110
15, 36599, Note_on_c, 9, 35, 0
15, 36600, Note_on_c, 9, 35, 110
15, 36719, Note_on_c, 9, 35, 0
15, 36720, Note_on_c, 9, 35, 110
15, 36839, Note_on_c, 9, 35, 0
15, 36840, Note_on_c, 9, 35, 110
15, 36959, Note_on_c, 9, 35, 0
15, 36960, Note_on_c, 9, 35, 110
15, 37079, Note_on_c, 9, 35, 0
15, 37080, Note_on_c, 9, 35, 110
15, 37199, Note_on_c, 9, 35, 0
15, 37200, Note_on_c, 9, 35, 110
15, 37319, Note_on_c, 9, 35, 0
15, 37320, Note_on_c, 9, 35, 110
15, 37439, Note_on_c, 9, 35, 0
15, 37440, Note_on_c, 9, 35, 110
15, 37559, Note_on_c, 9, 35, 0
15, 37560, Note_on_c, 9, 35, 110
15, 37679, Note_on_c, 9, 35, 0
15, 37680, Note_on_c, 9, 35, 110
15, 37799, Note_on_c, 9, 35, 0
15, 37800, Note_on_c, 9, 35, 110
15, 37919, Note_on_c, 9, 35, 0
15, 37920, Note_on_c, 9, 35, 110
15, 38039, Note_on_c, 9, 35, 0
15, 38040, Note_on_c, 9, 35, 110
15, 38159, Note_on_c, 9, 35, 0
15, 38160, Note_on_c, 9, 35, 110
15, 38279, Note_on_c, 9, 35, 0
15, 38280, Note_on_c, 9, 35, 110
15, 38399, Note_on_c, 9, 35, 0
15, 38400, Note_on_c, 9, 35, 110
15, 38519, Note_on_c, 9, 35, 0
15, 39360, Note_on_c, 9, 35, 110
15, 39479, Note_on_c, 9, 35, 0
15, 39480, Note_on_c, 9, 35, 110
15, 39599, Note_on_c, 9, 35, 0
15, 39600, Note_on_c, 9, 35, 110
15, 39719, Note_on_c, 9, 35, 0
15, 39720, Note_on_c, 9, 35, 110
15, 39839, Note_on_c, 9, 35, 0
15, 39840, Note_on_c, 9, 35, 110
15, 39959, Note_on_c, 9, 35, 0
15, 39960, Note_on_c, 9, 35, 110
15, 40079, Note_on_c, 9, 35, 0
15, 40080, Note_on_c, 9, 35, 110
15, 40199, Note_on_c, 9, 35, 0
15, 40200, Note_on_c, 9, 35, 110
15, 40319, Note_on_c, 9, 35, 0
15, 40320, Note_on_c, 9, 35, 110
15, 40439, Note_on_c, 9, 35, 0
15, 40440, Note_on_c, 9, 35, 110
15, 40559, Note_on_c, 9, 35, 0
15, 40560, Note_on_c, 9, 35, 110
15, 40679, Note_on_c, 9, 35, 0
15, 40680, Note_on_c, 9, 35, 110
15, 40799, Note_on_c, 9, 35, 0
15, 40800, Note_on_c, 9, 35, 110
15, 40919, Note_on_c, 9, 35, 0
15, 40920, Note_on_c, 9, 35, 110
15, 41039, Note_on_c, 9, 35, 0
15, 41040, Note_on_c, 9, 35, 110
15, 41159, Note_on_c, 9, 35, 0
15, 41160, Note_on_c, 9, 35, 110
15, 41279, Note_on_c, 9, 35, 0
15, 41280, Note_on_c, 9, 35, 110
15, 41399, Note_on_c, 9, 35, 0
15, 41400, Note_on_c, 9, 35, 110
15, 41519, Note_on_c, 9, 35, 0
15, 41520, Note_on_c, 9, 35, 110
15, 41639, Note_on_c, 9, 35, 0
15, 41640, Note_on_c, 9, 35, 110
15, 41759, Note_on_c, 9, 35, 0
15, 41760, Note_on_c, 9, 35, 110
15, 41879, Note_on_c, 9, 35, 0
15, 41880, Note_on_c, 9, 35, 110
15, 41999, Note_on_c, 9, 35, 0
15, 42000, Note_on_c, 9, 35, 110
15, 42119, Note_on_c, 9, 35, 0
15, 42120, Note_on_c, 9, 35, 110
15, 42239, Note_on_c, 9, 35, 0
15, 42240, Note_on_c, 9, 35, 110
15, 42280, Note_on_c, 9, 37, 110
15, 42299, Note_on_c, 9, 37, 0
15, 42300, Note_on_c, 9, 37, 110
15, 42319, Note_on_c, 9, 37, 0
15, 42359, Note_on_c, 9, 35, 0
15, 42360, Note_on_c, 9, 37, 110
15, 42379, Note_on_c, 9, 37, 0
15, 42420, Note_on_c, 9, 35, 110
15, 42460, Note_on_c, 9, 37, 110
15, 42479, Note_on_c, 9, 37, 0
15, 42480, Note_on_c, 9, 37, 110
15, 42499, Note_on_c, 9, 37, 0
15, 42539, Note_on_c, 9, 35, 0
15, 42540, Note_on_c, 9, 37, 110
15, 42559, Note_on_c, 9, 37, 0
15, 42600, Note_on_c, 9, 35, 110
15, 42600, Note_on_c, 9, 37, 110
15, 42619, Note_on_c, 9, 37, 0
15, 42640, Note_on_c, 9, 37, 110
15, 42659, Note_on_c, 9, 37, 0
15, 42660, Note_on_c, 9, 37, 110
15, 42679, Note_on_c, 9, 37, 0
15, 42719, Note_on_c, 9, 35, 0
15, 42720, Note_on_c, 9, 35, 110
15, 42839, Note_on_c, 9, 35, 0
15, 42840, Note_on_c, 9, 35, 110
15, 42959, Note_on_c, 9, 35, 0
15, 42960, Note_on_c, 9, 35, 110
15, 43079, Note_on_c, 9, 35, 0
15, 43080, Note_on_c, 9, 35, 110
15, 43199, Note_on_c, 9, 35, 0
15, 43200, Note_on_c, 9, 35, 110
15, 43319, Note_on_c, 9, 35, 0
15, 43320, Note_on_c, 9, 35, 110
15, 43439, Note_on_c, 9, 35, 0
15, 43440, Note_on_c, 9, 35, 110
15, 43559, Note_on_c, 9, 35, 0
15, 43560, Note_on_c, 9, 35, 110
15, 43679, Note_on_c, 9, 35, 0
15, 43680, Note_on_c, 9, 35, 110
15, 43799, Note_on_c, 9, 35, 0
15, 43800, Note_on_c, 9, 35, 110
15, 43919, Note_on_c, 9, 35, 0
15, 43920, Note_on_c, 9, 35, 110
15, 44039, Note_on_c, 9, 35, 0
15, 44040, Note_on_c, 9, 35, 110
15, 44159, Note_on_c, 9, 35, 0
15, 44160, Note_on_c, 9, 35, 110
15, 44279, Note_on_c, 9, 35, 0
15, 44280, Note_on_c, 9, 35, 110
15, 44399, Note_on_c, 9, 35, 0
15, 44400, Note_on_c, 9, 35, 110
15, 44519, Note_on_c, 9, 35, 0
15, 44520, Note_on_c, 9, 35, 110
15, 44639, Note_on_c, 9, 35, 0
15, 44640, Note_on_c, 9, 35, 110
15, 44759, Note_on_c, 9, 35, 0
15, 44760, Note_on_c, 9, 35, 110
15, 44879, Note_on_c, 9, 35, 0
15, 44880, Note_on_c, 9, 35, 110
15, 44999, Note_on_c, 9, 35, 0
15, 45000, Note_on_c, 9, 35, 110
15, 45119, Note_on_c, 9, 35, 0
15, 45120, Note_on_c, 9, 35, 110
15, 45239, Note_on_c, 9, 35, 0
15, 45240, Note_on_c, 9, 35, 110
15, 45359, Note_on_c, 9, 35, 0
15, 45360, Note_on_c, 9, 35, 110
15, 45479, Note_on_c, 9, 35, 0
15, 45480, Note_on_c, 9, 35, 110
15, 45599, Note_on_c, 9, 35, 0
15, 45600, Note_on_c, 9, 35, 110
15, 45719, Note_on_c, 9, 35, 0
15, 45720, Note_on_c, 9, 35, 110
15, 45839, Note_on_c, 9, 35, 0
15, 45840, Note_on_c, 9, 35, 110
15, 45959, Note_on_c, 9, 35, 0
15, 45960, Note_on_c, 9, 35, 110
15, 46079, Note_on_c, 9, 35, 0
15, 46080, Note_on_c, 9, 35, 110
15, 46199, Note_on_c, 9, 35, 0
15, 46200, Note_on_c, 9, 35, 110
15, 46319, Note_on_c, 9, 35, 0
15, 46320, Note_on_c, 9, 35, 110
15, 46439, Note_on_c, 9, 35, 0
15, 46440, Note_on_c, 9, 35, 110
15, 46559, Note_on_c, 9, 35, 0
15, 46560, Note_on_c, 9, 35, 110
15, 46679, Note_on_c, 9, 35, 0
15, 46680, Note_on_c, 9, 35, 110
15, 46799, Note_on_c, 9, 35, 0
15, 46800, Note_on_c, 9, 35, 110
15, 46919, Note_on_c, 9, 35, 0
15, 46920, Note_on_c, 9, 35, 110
15, 47039, Note_on_c, 9, 35, 0
15, 47040, Note_on_c, 9, 35, 110
15, 47159, Note_on_c, 9, 35, 0
15, 47160, Note_on_c, 9, 35, 110
15, 47279, Note_on_c, 9, 35, 0
15, 47280, Note_on_c, 9, 35, 110
15, 47399, Note_on_c, 9, 35, 0
15, 47400, Note_on_c, 9, 35, 110
15, 47519, Note_on_c, 9, 35, 0
15, 47520, Note_on_c, 9, 35, 110
15, 47639, Note_on_c, 9, 35, 0
15, 47640, Note_on_c, 9, 35, 110
15, 47759, Note_on_c, 9, 35, 0
15, 47760, Note_on_c, 9, 35, 110
15, 47879, Note_on_c, 9, 35, 0
15, 47880, Note_on_c, 9, 35, 110
15, 47999, Note_on_c, 9, 35, 0
15, 48000, Note_on_c, 9, 35, 110
15, 48119, Note_on_c, 9, 35, 0
15, 48120, Note_on_c, 9, 35, 110
15, 48239, Note_on_c, 9, 35, 0
15, 48240, Note_on_c, 9, 35, 110
15, 48359, Note_on_c, 9, 35, 0
15, 48360, Note_on_c, 9, 35, 110
15, 48479, Note_on_c, 9, 35, 0
15, 48480, Note_on_c, 9, 35, 110
15, 48599, Note_on_c, 9, 35, 0
15, 48600, Note_on_c, 9, 35, 110
15, 48719, Note_on_c, 9, 35, 0
15, 48720, Note_on_c, 9, 35, 110
15, 48839, Note_on_c, 9, 35, 0
15, 48840, Note_on_c, 9, 35, 110
15, 48959, Note_on_c, 9, 35, 0
15, 48960, Note_on_c, 9, 35, 110
15, 49079, Note_on_c, 9, 35, 0
15, 49080, Note_on_c, 9, 35, 110
15, 49199, Note_on_c, 9, 35, 0
15, 49200, Note_on_c, 9, 35, 110
15, 49319, Note_on_c, 9, 35, 0
15, 49320, Note_on_c, 9, 35, 110
15, 49439, Note_on_c, 9, 35, 0
15, 49440, Note_on_c, 9, 35, 110
15, 49559, Note_on_c, 9, 35, 0
15, 49560, Note_on_c, 9, 35, 110
15, 49679, Note_on_c, 9, 35, 0
15, 49680, Note_on_c, 9, 35, 110
15, 49799, Note_on_c, 9, 35, 0
15, 49800, Note_on_c, 9, 35, 110
15, 49919, Note_on_c, 9, 35, 0
15, 49920, Note_on_c, 9, 35, 110
15, 50039, Note_on_c, 9, 35, 0
15, 50040, Note_on_c, 9, 35, 110
15, 50159, Note_on_c, 9, 35, 0
15, 50160, Note_on_c, 9, 35, 110
15, 50279, Note_on_c, 9, 35, 0
15, 50280, Note_on_c, 9, 35, 110
15, 50399, Note_on_c, 9, 35, 0
15, 50400, Control_c, 9, 11, 127
15, 50400, Note_on_c, 9, 35, 110
15, 50460, Control_c, 9, 11, 126
15, 50519, Note_on_c, 9, 35, 0
15, 50520, Control_c, 9, 11, 125
15, 50520, Note_on_c, 9, 35, 110
15, 50581, Control_c, 9, 11, 124
15, 50639, Note_on_c, 9, 35, 0
15, 50640, Note_on_c, 9, 35, 110
15, 50641, Control_c, 9, 11, 123
15, 50702, Control_c, 9, 11, 122
15, 50759, Note_on_c, 9, 35, 0
15, 50760, Note_on_c, 9, 35, 110
15, 50762, Control_c, 9, 11, 121
15, 50823, Control_c, 9, 11, 120
15, 50879, Note_on_c, 9, 35, 0
15, 50880, Note_on_c, 9, 35, 110
15, 50883, Control_c, 9, 11, 119
15, 50944, Control_c, 9, 11, 118
15, 50999, Note_on_c, 9, 35, 0
15, 51000, Note_on_c, 9, 35, 110
15, 51004, Control_c, 9, 11, 117
15, 51065, Control_c, 9, 11, 116
15, 51119, Note_on_c, 9, 35, 0
15, 51120, Note_on_c, 9, 35, 110
15, 51125, Control_c, 9, 11, 115
15, 51186, Control_c, 9, 11, 114
15, 51239, Note_on_c, 9, 35, 0
15, 51240, Note_on_c, 9, 35, 110
15, 51246, Control_c, 9, 11, 113
15, 51306, Control_c, 9, 11, 112
15, 51359, Note_on_c, 9, 35, 0
15, 51360, Note_on_c, 9, 35, 110
15, 51367, Control_c, 9, 11, 111
15, 51427, Control_c, 9, 11, 110
15, 51479, Note_on_c, 9, 35, 0
15, 51480, Note_on_c, 9, 35, 110
15, 51488, Control_c, 9, 11, 109
15, 51548, Control_c, 9, 11, 108
15, 51599, Note_on_c, 9, 35, 0
15, 51600, Note_on_c, 9, 35, 110
15, 51609, Control_c, 9, 11, 107
15, 51669, Control_c, 9, 11, 106
15, 51719, Note_on_c, 9, 35, 0
15, 51720, Note_on_c, 9, 35, 110
15, 51730, Control_c, 9, 11, 105
15, 51790, Control_c, 9, 11, 104
15, 51839, Note_on_c, 9, 35, 0
15, 51840, Note_on_c, 9, 35, 110
15, 51851, Control_c, 9, 11, 103
15, 51911, Control_c, 9, 11, 102
15, 51959, Note_on_c, 9, 35, 0
15, 51960, Note_on_c, 9, 35, 110
15, 51972, Control_c, 9, 11, 101
15, 52032, Control_c, 9, 11, 100
15, 52079, Note_on_c, 9, 35, 0
15, 52080, Note_on_c, 9, 35, 110
15, 52093, Control_c, 9, 11, 99
15, 52153, Control_c, 9, 11, 98
15, 52199, Note_on_c, 9, 35, 0
15, 52200, Note_on_c, 9, 35, 110
15, 52213, Control_c, 9, 11, 97
15, 52274, Control_c, 9, 11, 96
15, 52319, Note_on_c, 9, 35, 0
15, 52320, Note_on_c, 9, 35, 110
15, 52334, Control_c, 9, 11, 95
15, 52395, Control_c, 9, 11, 94
15, 52439, Note_on_c, 9, 35, 0
15, 52440, Note_on_c, 9, 35, 110
15, 52455, Control_c, 9, 11, 93
15, 52516, Control_c, 9, 11, 92
15, 52559, Note_on_c, 9, 35, 0
15, 52560, Note_on_c, 9, 35, 110
15, 52576, Control_c, 9, 11, 91
15, 52637, Control_c, 9, 11, 90
15, 52679, Note_on_c, 9, 35, 0
15, 52680, Note_on_c, 9, 35, 110
15, 52697, Control_c, 9, 11, 89
15, 52758, Control_c, 9, 11, 88
15, 52799, Note_on_c, 9, 35, 0
15, 52800, Note_on_c, 9, 35, 110
15, 52818, Control_c, 9, 11, 87
15, 52879, Control_c, 9, 11, 86
15, 52919, Note_on_c, 9, 35, 0
15, 52920, Note_on_c, 9, 35, 110
15, 52939, Control_c, 9, 11, 85
15, 52999, Control_c, 9, 11, 84
15, 53039, Note_on_c, 9, 35, 0
15, 53040, Note_on_c, 9, 35, 110
15, 53060, Control_c, 9, 11, 83
15, 53120, Control_c, 9, 11, 82
15, 53159, Note_on_c, 9, 35, 0
15, 53160, Note_on_c, 9, 35, 110
15, 53181, Control_c, 9, 11, 81
15, 53241, Control_c, 9, 11, 80
15, 53279, Note_on_c, 9, 35, 0
15, 53280, Note_on_c, 9, 35, 110
15, 53302, Control_c, 9, 11, 79
15, 53362, Control_c, 9, 11, 78
15, 53399, Note_on_c, 9, 35, 0
15, 53400, Note_on_c, 9, 35, 110
15, 53423, Control_c, 9, 11, 77
15, 53483, Control_c, 9, 11, 76
15, 53519, Note_on_c, 9, 35, 0
15, 53520, Note_on_c, 9, 35, 110
15, 53544, Control_c, 9, 11, 75
15, 53604, Control_c, 9, 11, 74
15, 53639, Note_on_c, 9, 35, 0
15, 53640, Note_on_c, 9, 35, 110
15, 53665, Control_c, 9, 11, 73
15, 53725, Control_c, 9, 11, 72
15, 53759, Note_on_c, 9, 35, 0
15, 53760, Note_on_c, 9, 35, 110
15, 53786, Control_c, 9, 11, 71
15, 53846, Control_c, 9, 11, 70
15, 53879, Note_on_c, 9, 35, 0
15, 53880, Note_on_c, 9, 35, 110
15, 53906, Control_c, 9, 11, 69
15, 53967, Control_c, 9, 11, 68
15, 53999, Note_on_c, 9, 35, 0
15, 54000, Note_on_c, 9, 35, 110
15, 54027, Control_c, 9, 11, 67
15, 54088, Control_c, 9, 11, 66
15, 54119, Note_on_c, 9, 35, 0
15, 54120, Note_on_c, 9, 35, 110
15, 54148, Control_c, 9, 11, 65
15, 54209, Control_c, 9, 11, 64
15, 54239, Note_on_c, 9, 35, 0
15, 54240, Note_on_c, 9, 35, 110
15, 54269, Control_c, 9, 11, 63
15, 54330, Control_c, 9, 11, 62
15, 54359, Note_on_c, 9, 35, 0
15, 54360, Note_on_c, 9, 35, 110
15, 54390, Control_c, 9, 11, 61
15, 54451, Control_c, 9, 11, 60
15, 54479, Note_on_c, 9, 35, 0
15, 54480, Note_on_c, 9, 35, 110
15, 54511, Control_c, 9, 11, 59
15, 54572, Control_c, 9, 11, 58
15, 54599, Note_on_c, 9, 35, 0
15, 54600, Note_on_c, 9, 35, 110
15, 54632, Control_c, 9, 11, 57
15, 54692, Control_c, 9, 11, 56
15, 54719, Note_on_c, 9, 35, 0
15, 54720, Note_on_c, 9, 35, 110
15, 54753, Control_c, 9, 11, 55
15, 54813, Control_c, 9, 11, 54
15, 54839, Note_on_c, 9, 35, 0
15, 54840, Note_on_c, 9, 35, 110
15, 54874, Control_c, 9, 11, 53
15, 54934, Control_c, 9, 11, 52
15, 54959, Note_on_c, 9, 35, 0
15, 54960, Note_on_c, 9, 35, 110
15, 54995, Control_c, 9, 11, 51
15, 55055, Control_c, 9, 11, 50
15, 55079, Note_on_c, 9, 35, 0
15, 55080, Note_on_c, 9, 35, 110
15, 55116, Control_c, 9, 11, 49
15, 55176, Control_c, 9, 11, 48
15, 55199, Note_on_c, 9, 35, 0
15, 55200, Note_on_c, 9, 35, 110
15, 55237, Control_c, 9, 11, 47
15, 55297, Control_c, 9, 11, 46
15, 55319, Note_on_c, 9, 35, 0
15, 55320, Note_on_c, 9, 35, 110
15, 55358, Control_c, 9, 11, 45
15, 55418, Control_c, 9, 11, 44
15, 55439, Note_on_c, 9, 35, 0
15, 55440, Note_on_c, 9, 35, 110
15, 55479, Control_c, 9, 11, 43
15, 55539, Control_c, 9, 11, 42
15, 55559, Note_on_c, 9, 35, 0
15, 55560, Note_on_c, 9, 35, 110
15, 55599, Control_c, 9, 11, 41
15, 55660, Control_c, 9, 11, 40
15, 55679, Note_on_c, 9, 35, 0
15, 55680, Note_on_c, 9, 35, 110
15, 55720, Control_c, 9, 11, 39
15, 55781, Control_c, 9, 11, 38
15, 55799, Note_on_c, 9, 35, 0
15, 55800, Note_on_c, 9, 35, 110
15, 55841, Control_c, 9, 11, 37
15, 55902, Control_c, 9, 11, 36
15, 55919, Note_on_c, 9, 35, 0
15, 55920, Note_on_c, 9, 35, 110
15, 55962, Control_c, 9, 11, 35
15, 56023, Control_c, 9, 11, 34
15, 56039, Note_on_c, 9, 35, 0
15, 56040, Note_on_c, 9, 35, 110
15, 56083, Control_c, 9, 11, 33
15, 56144, Control_c, 9, 11, 32
15, 56159, Note_on_c, 9, 35, 0
15, 56160, Note_on_c, 9, 35, 110
15, 56204, Control_c, 9, 11, 31
15, 56265, Control_c, 9, 11, 30
15, 56279, Note_on_c, 9, 35, 0
15, 56280, Note_on_c, 9, 35, 110
15, 56325, Control_c, 9, 11, 29
15, 56385, Control_c, 9, 11, 28
15, 56399, Note_on_c, 9, 35, 0
15, 56400, Note_on_c, 9, 35, 110
15, 56446, Control_c, 9, 11, 27
15, 56506, Control_c, 9, 11, 26
15, 56519, Note_on_c, 9, 35, 0
15, 56520, Note_on_c, 9, 35, 110
15, 56567, Control_c, 9, 11, 25
15, 56627, Control_c, 9, 11, 24
15, 56639, Note_on_c, 9, 35, 0
15, 56640, Note_on_c, 9, 35, 110
15, 56688, Control_c, 9, 11, 23
15, 56748, Control_c, 9, 11, 22
15, 56759, Note_on_c, 9, 35, 0
15, 56760, Note_on_c, 9, 35, 110
15, 56809, Control_c, 9, 11, 21
15, 56869, Control_c, 9, 11, 20
15, 56879, Note_on_c, 9, 35, 0
15, 56880, Note_on_c, 9, 35, 110
15, 56930, Control_c, 9, 11, 19
15, 56990, Control_c, 9, 11, 18
15, 56999, Note_on_c, 9, 35, 0
15, 57000, Note_on_c, 9, 35, 110
15, 57051, Control_c, 9, 11, 17
15, 57111, Control_c, 9, 11, 16
15, 57119, Note_on_c, 9, 35, 0
15, 57120, Note_on_c, 9, 35, 110
15, 57172, Control_c, 9, 11, 15
15, 57232, Control_c, 9, 11, 14
15, 57239, Note_on_c, 9, 35, 0
15, 57240, Note_on_c, 9, 35, 110
15, 57292, Control_c, 9, 11, 13
15, 57353, Control_c, 9, 11, 12
15, 57359, Note_on_c, 9, 35, 0
15, 57360, Note_on_c, 9, 35, 110
15, 57413, Control_c, 9, 11, 11
15, 57474, Control_c, 9, 11, 10
15, 57479, Note_on_c, 9, 35, 0
15, 57480, Note_on_c, 9, 35, 110
15, 57534, Control_c, 9, 11, 9
15, 57595, Control_c, 9, 11, 8
15, 57599, Note_on_c, 9, 35, 0
15, 57600, Note_on_c, 9, 35, 110
15, 57655, Control_c, 9, 11, 7
15, 57716, Control_c, 9, 11, 6
15, 57719, Note_on_c, 9, 35, 0
15, 57720, Note_on_c, 9, 35, 110
15, 57776, Control_c, 9, 11, 5
15, 57837, Control_c, 9, 11, 4
15, 57839, Note_on_c, 9, 35, 0
15, 57840, Note_on_c, 9, 35, 110
15, 57897, Control_c, 9, 11, 3
15, 57958, Control_c, 9, 11, 2
15, 57959, Note_on_c, 9, 35, 0
15, 57960, Note_on_c, 9, 35, 110
15, 58018, Control_c, 9, 11, 1
15, 58079, Note_on_c, 9, 35, 0
15, 58079, Control_c, 9, 11, 0
15, 58079, End_track
16, 0, Start_track
16, 0, MIDI_port, 0
16, 0, Title_t, "hats"
16, 480, Note_on_c, 9, 42, 70
16, 510, Note_on_c, 9, 42, 0
16, 540, Note_on_c, 9, 46, 70
16, 570, Note_on_c, 9, 46, 0
16, 600, Note_on_c, 9, 42, 70
16, 630, Note_on_c, 9, 42, 0
16, 660, Note_on_c, 9, 46, 70
16, 690, Note_on_c, 9, 46, 0
16, 720, Note_on_c, 9, 42, 70
16, 750, Note_on_c, 9, 42, 0
16, 780, Note_on_c, 9, 46, 70
16, 810, Note_on_c, 9, 46, 0
16, 840, Note_on_c, 9, 42, 70
16, 870, Note_on_c, 9, 42, 0
16, 900, Note_on_c, 9, 46, 70
16, 930, Note_on_c, 9, 46, 0
16, 960, Note_on_c, 9, 42, 70
16, 990, Note_on_c, 9, 42, 0
16, 1020, Note_on_c, 9, 46, 70
16, 1050, Note_on_c, 9, 46, 0
16, 1080, Note_on_c, 9, 42, 70
16, 1110, Note_on_c, 9, 42, 0
16, 1140, Note_on_c, 9, 46, 70
16, 1170, Note_on_c, 9, 46, 0
16, 1200, Note_on_c, 9, 42, 70
16, 1230, Note_on_c, 9, 42, 0
16, 1260, Note_on_c, 9, 46, 70
16, 1290, Note_on_c, 9, 46, 0
16, 1320, Note_on_c, 9, 42, 70
16, 1350, Note_on_c, 9, 42, 0
16, 1380, Note_on_c, 9, 46, 70
16, 1410, Note_on_c, 9, 46, 0
16, 1440, Note_on_c, 9, 42, 70
16, 1470, Note_on_c, 9, 42, 0
16, 1500, Note_on_c, 9, 46, 70
16, 1530, Note_on_c, 9, 46, 0
16, 1560, Note_on_c, 9, 42, 70
16, 1590, Note_on_c, 9, 42, 0
16, 1620, Note_on_c, 9, 46, 70
16, 1650, Note_on_c, 9, 46, 0
16, 1680, Note_on_c, 9, 42, 70
16, 1710, Note_on_c, 9, 42, 0
16, 1740, Note_on_c, 9, 46, 70
16, 1770, Note_on_c, 9, 46, 0
16, 1800, Note_on_c, 9, 42, 70
16, 1830, Note_on_c, 9, 42, 0
16, 1860, Note_on_c, 9, 46, 70
16, 1890, Note_on_c, 9, 46, 0
16, 1920, Note_on_c, 9, 42, 70
16, 1950, Note_on_c, 9, 42, 0
16, 1980, Note_on_c, 9, 46, 70
16, 2010, Note_on_c, 9, 46, 0
16, 2040, Note_on_c, 9, 42, 70
16, 2070, Note_on_c, 9, 42, 0
16, 2100, Note_on_c, 9, 46, 70
16, 2130, Note_on_c, 9, 46, 0
16, 2160, Note_on_c, 9, 42, 70
16, 2190, Note_on_c, 9, 42, 0
16, 2220, Note_on_c, 9, 46, 70
16, 2250, Note_on_c, 9, 46, 0
16, 2280, Note_on_c, 9, 42, 70
16, 2310, Note_on_c, 9, 42, 0
16, 2340, Note_on_c, 9, 46, 70
16, 2370, Note_on_c, 9, 46, 0
16, 2400, Note_on_c, 9, 42, 70
16, 2430, Note_on_c, 9, 42, 0
16, 2460, Note_on_c, 9, 46, 70
16, 2490, Note_on_c, 9, 46, 0
16, 2520, Note_on_c, 9, 42, 70
16, 2550, Note_on_c, 9, 42, 0
16, 2580, Note_on_c, 9, 46, 70
16, 2610, Note_on_c, 9, 46, 0
16, 2640, Note_on_c, 9, 42, 70
16, 2670, Note_on_c, 9, 42, 0
16, 2700, Note_on_c, 9, 46, 70
16, 2730, Note_on_c, 9, 46, 0
16, 2760, Note_on_c, 9, 42, 70
16, 2790, Note_on_c, 9, 42, 0
16, 2820, Note_on_c, 9, 46, 70
16, 2850, Note_on_c, 9, 46, 0
16, 2880, Note_on_c, 9, 42, 70
16, 2910, Note_on_c, 9, 42, 0
16, 2940, Note_on_c, 9, 46, 70
16, 2970, Note_on_c, 9, 46, 0
16, 3000, Note_on_c, 9, 42, 70
16, 3030, Note_on_c, 9, 42, 0
16, 3060, Note_on_c, 9, 46, 70
16, 3090, Note_on_c, 9, 46, 0
16, 3120, Note_on_c, 9, 42, 70
16, 3150, Note_on_c, 9, 42, 0
16, 3180, Note_on_c, 9, 46, 70
16, 3210, Note_on_c, 9, 46, 0
16, 3240, Note_on_c, 9, 42, 70
16, 3270, Note_on_c, 9, 42, 0
16, 3300, Note_on_c, 9, 46, 70
16, 3330, Note_on_c, 9, 46, 0
16, 3360, Note_on_c, 9, 42, 70
16, 3390, Note_on_c, 9, 42, 0
16, 3420, Note_on_c, 9, 46, 70
16, 3450, Note_on_c, 9, 46, 0
16, 3480, Note_on_c, 9, 42, 70
16, 3510, Note_on_c, 9, 42, 0
16, 3540, Note_on_c, 9, 46, 70
16, 3570, Note_on_c, 9, 46, 0
16, 3600, Note_on_c, 9, 42, 70
16, 3630, Note_on_c, 9, 42, 0
16, 3660, Note_on_c, 9, 46, 70
16, 3690, Note_on_c, 9, 46, 0
16, 3720, Note_on_c, 9, 42, 70
16, 3750, Note_on_c, 9, 42, 0
16, 3780, Note_on_c, 9, 46, 70
16, 3810, Note_on_c, 9, 46, 0
16, 3840, Note_on_c, 9, 42, 70
16, 3870, Note_on_c, 9, 42, 0
16, 3900, Note_on_c, 9, 46, 70
16, 3930, Note_on_c, 9, 46, 0
16, 3960, Note_on_c, 9, 42, 70
16, 3990, Note_on_c, 9, 42, 0
16, 4020, Note_on_c, 9, 46, 70
16, 4050, Note_on_c, 9, 46, 0
16, 4080, Note_on_c, 9, 42, 70
16, 4110, Note_on_c, 9, 42, 0
16, 4140, Note_on_c, 9, 46, 70
16, 4170, Note_on_c, 9, 46, 0
16, 4200, Note_on_c, 9, 42, 70
16, 4230, Note_on_c, 9, 42, 0
16, 4260, Note_on_c, 9, 46, 70
16, 4290, Note_on_c, 9, 46, 0
16, 4320, Note_on_c, 9, 42, 70
16, 4350, Note_on_c, 9, 42, 0
16, 4380, Note_on_c, 9, 46, 70
16, 4410, Note_on_c, 9, 46, 0
16, 4440, Note_on_c, 9, 42, 70
16, 4470, Note_on_c, 9, 42, 0
16, 4500, Note_on_c, 9, 46, 70
16, 4530, Note_on_c, 9, 46, 0
16, 4560, Note_on_c, 9, 42, 70
16, 4590, Note_on_c, 9, 42, 0
16, 4620, Note_on_c, 9, 46, 70
16, 4650, Note_on_c, 9, 46, 0
16, 4680, Note_on_c, 9, 42, 70
16, 4710, Note_on_c, 9, 42, 0
16, 4740, Note_on_c, 9, 46, 70
16, 4770, Note_on_c, 9, 46, 0
16, 4800, Note_on_c, 9, 42, 70
16, 4830, Note_on_c, 9, 42, 0
16, 4860, Note_on_c, 9, 46, 70
16, 4890, Note_on_c, 9, 46, 0
16, 4920, Note_on_c, 9, 42, 70
16, 4950, Note_on_c, 9, 42, 0
16, 4980, Note_on_c, 9, 46, 70
16, 5010, Note_on_c, 9, 46, 0
16, 5040, Note_on_c, 9, 42, 70
16, 5070, Note_on_c, 9, 42, 0
16, 5100, Note_on_c, 9, 46, 70
16, 5130, Note_on_c, 9, 46, 0
16, 5160, Note_on_c, 9, 42, 70
16, 5190, Note_on_c, 9, 42, 0
16, 5220, Note_on_c, 9, 46, 70
16, 5250, Note_on_c, 9, 46, 0
16, 5280, Note_on_c, 9, 42, 70
16, 5310, Note_on_c, 9, 42, 0
16, 5340, Note_on_c, 9, 46, 70
16, 5370, Note_on_c, 9, 46, 0
16, 5400, Note_on_c, 9, 42, 70
16, 5430, Note_on_c, 9, 42, 0
16, 5460, Note_on_c, 9, 46, 70
16, 5490, Note_on_c, 9, 46, 0
16, 5520, Note_on_c, 9, 42, 70
16, 5550, Note_on_c, 9, 42, 0
16, 5580, Note_on_c, 9, 46, 70
16, 5610, Note_on_c, 9, 46, 0
16, 5640, Note_on_c, 9, 42, 70
16, 5670, Note_on_c, 9, 42, 0
16, 5700, Note_on_c, 9, 46, 70
16, 5730, Note_on_c, 9, 46, 0
16, 5760, Note_on_c, 9, 42, 70
16, 5790, Note_on_c, 9, 42, 0
16, 5820, Note_on_c, 9, 46, 70
16, 5850, Note_on_c, 9, 46, 0
16, 5880, Note_on_c, 9, 42, 70
16, 5910, Note_on_c, 9, 42, 0
16, 5940, Note_on_c, 9, 46, 70
16, 5970, Note_on_c, 9, 46, 0
16, 6000, Note_on_c, 9, 42, 70
16, 6030, Note_on_c, 9, 42, 0
16, 6060, Note_on_c, 9, 46, 70
16, 6090, Note_on_c, 9, 46, 0
16, 6120, Note_on_c, 9, 42, 70
16, 6150, Note_on_c, 9, 42, 0
16, 6180, Note_on_c, 9, 46, 70
16, 6210, Note_on_c, 9, 46, 0
16, 6240, Note_on_c, 9, 42, 70
16, 6270, Note_on_c, 9, 42, 0
16, 6300, Note_on_c, 9, 46, 70
16, 6330, Note_on_c, 9, 46, 0
16, 6360, Note_on_c, 9, 42, 70
16, 6390, Note_on_c, 9, 42, 0
16, 6420, Note_on_c, 9, 46, 70
16, 6450, Note_on_c, 9, 46, 0
16, 6480, Note_on_c, 9, 42, 70
16, 6510, Note_on_c, 9, 42, 0
16, 6540, Note_on_c, 9, 46, 70
16, 6570, Note_on_c, 9, 46, 0
16, 6600, Note_on_c, 9, 42, 70
16, 6630, Note_on_c, 9, 42, 0
16, 6660, Note_on_c, 9, 46, 70
16, 6690, Note_on_c, 9, 46, 0
16, 6720, Note_on_c, 9, 42, 70
16, 6750, Note_on_c, 9, 42, 0
16, 6780, Note_on_c, 9, 46, 70
16, 6810, Note_on_c, 9, 46, 0
16, 6840, Note_on_c, 9, 42, 70
16, 6870, Note_on_c, 9, 42, 0
16, 6900, Note_on_c, 9, 46, 70
16, 6930, Note_on_c, 9, 46, 0
16, 6960, Note_on_c, 9, 42, 70
16, 6990, Note_on_c, 9, 42, 0
16, 7020, Note_on_c, 9, 46, 70
16, 7050, Note_on_c, 9, 46, 0
16, 7080, Note_on_c, 9, 42, 70
16, 7110, Note_on_c, 9, 42, 0
16, 7140, Note_on_c, 9, 46, 70
16, 7170, Note_on_c, 9, 46, 0
16, 7200, Note_on_c, 9, 42, 70
16, 7230, Note_on_c, 9, 42, 0
16, 7260, Note_on_c, 9, 46, 70
16, 7290, Note_on_c, 9, 46, 0
16, 7320, Note_on_c, 9, 42, 70
16, 7350, Note_on_c, 9, 42, 0
16, 7380, Note_on_c, 9, 46, 70
16, 7410, Note_on_c, 9, 46, 0
16, 7440, Note_on_c, 9, 42, 70
16, 7470, Note_on_c, 9, 42, 0
16, 7500, Note_on_c, 9, 46, 70
16, 7530, Note_on_c, 9, 46, 0
16, 7560, Note_on_c, 9, 42, 70
16, 7590, Note_on_c, 9, 42, 0
16, 7620, Note_on_c, 9, 46, 70
16, 7650, Note_on_c, 9, 46, 0
16, 7680, Note_on_c, 9, 42, 70
16, 7710, Note_on_c, 9, 42, 0
16, 7740, Note_on_c, 9, 46, 70
16, 7770, Note_on_c, 9, 46, 0
16, 7800, Note_on_c, 9, 42, 70
16, 7830, Note_on_c, 9, 42, 0
16, 7860, Note_on_c, 9, 46, 70
16, 7890, Note_on_c, 9, 46, 0
16, 7920, Note_on_c, 9, 42, 70
16, 7950, Note_on_c, 9, 42, 0
16, 7980, Note_on_c, 9, 46, 70
16, 8010, Note_on_c, 9, 46, 0
16, 8040, Note_on_c, 9, 42, 70
16, 8070, Note_on_c, 9, 42, 0
16, 8100, Note_on_c, 9, 46, 70
16, 8130, Note_on_c, 9, 46, 0
16, 12000, Note_on_c, 9, 42, 70
16, 12030, Note_on_c, 9, 42, 0
16, 12060, Note_on_c, 9, 46, 70
16, 12090, Note_on_c, 9, 46, 0
16, 12120, Note_on_c, 9, 42, 70
16, 12150, Note_on_c, 9, 42, 0
16, 12180, Note_on_c, 9, 46, 70
16, 12210, Note_on_c, 9, 46, 0
16, 12240, Note_on_c, 9, 42, 70
16, 12270, Note_on_c, 9, 42, 0
16, 12300, Note_on_c, 9, 46, 70
16, 12330, Note_on_c, 9, 46, 0
16, 12360, Note_on_c, 9, 42, 70
16, 12390, Note_on_c, 9, 42, 0
16, 12420, Note_on_c, 9, 46, 70
16, 12450, Note_on_c, 9, 46, 0
16, 12480, Note_on_c, 9, 42, 70
16, 12510, Note_on_c, 9, 42, 0
16, 12540, Note_on_c, 9, 46, 70
16, 12570, Note_on_c, 9, 46, 0
16, 12600, Note_on_c, 9, 42, 70
16, 12630, Note_on_c, 9, 42, 0
16, 12660, Note_on_c, 9, 46, 70
16, 12690, Note_on_c, 9, 46, 0
16, 12720, Note_on_c, 9, 42, 70
16, 12750, Note_on_c, 9, 42, 0
16, 12780, Note_on_c, 9, 46, 70
16, 12810, Note_on_c, 9, 46, 0
16, 12840, Note_on_c, 9, 42, 70
16, 12870, Note_on_c, 9, 42, 0
16, 12900, Note_on_c, 9, 46, 70
16, 12930, Note_on_c, 9, 46, 0
16, 12960, Note_on_c, 9, 42, 70
16, 12990, Note_on_c, 9, 42, 0
16, 13020, Note_on_c, 9, 46, 70
16, 13050, Note_on_c, 9, 46, 0
16, 13080, Note_on_c, 9, 42, 70
16, 13110, Note_on_c, 9, 42, 0
16, 13140, Note_on_c, 9, 46, 70
16, 13170, Note_on_c, 9, 46, 0
16, 13200, Note_on_c, 9, 42, 70
16, 13230, Note_on_c, 9, 42, 0
16, 13260, Note_on_c, 9, 46, 70
16, 13290, Note_on_c, 9, 46, 0
16, 13320, Note_on_c, 9, 42, 70
16, 13350, Note_on_c, 9, 42, 0
16, 13380, Note_on_c, 9, 46, 70
16, 13410, Note_on_c, 9, 46, 0
16, 13440, Note_on_c, 9, 42, 70
16, 13470, Note_on_c, 9, 42, 0
16, 13500, Note_on_c, 9, 46, 70
16, 13530, Note_on_c, 9, 46, 0
16, 13560, Note_on_c, 9, 42, 70
16, 13590, Note_on_c, 9, 42, 0
16, 13620, Note_on_c, 9, 46, 70
16, 13650, Note_on_c, 9, 46, 0
16, 13680, Note_on_c, 9, 42, 70
16, 13710, Note_on_c, 9, 42, 0
16, 13740, Note_on_c, 9, 46, 70
16, 13770, Note_on_c, 9, 46, 0
16, 13800, Note_on_c, 9, 42, 70
16, 13830, Note_on_c, 9, 42, 0
16, 13860, Note_on_c, 9, 46, 70
16, 13890, Note_on_c, 9, 46, 0
16, 13920, Note_on_c, 9, 42, 70
16, 13950, Note_on_c, 9, 42, 0
16, 13980, Note_on_c, 9, 46, 70
16, 14010, Note_on_c, 9, 46, 0
16, 14040, Note_on_c, 9, 42, 70
16, 14070, Note_on_c, 9, 42, 0
16, 14100, Note_on_c, 9, 46, 70
16, 14130, Note_on_c, 9, 46, 0
16, 14160, Note_on_c, 9, 42, 70
16, 14190, Note_on_c, 9, 42, 0
16, 14220, Note_on_c, 9, 46, 70
16, 14250, Note_on_c, 9, 46, 0
16, 14280, Note_on_c, 9, 42, 70
16, 14310, Note_on_c, 9, 42, 0
16, 14340, Note_on_c, 9, 46, 70
16, 14370, Note_on_c, 9, 46, 0
16, 14400, Note_on_c, 9, 42, 70
16, 14430, Note_on_c, 9, 42, 0
16, 14460, Note_on_c, 9, 46, 70
16, 14490, Note_on_c, 9, 46, 0
16, 14520, Note_on_c, 9, 42, 70
16, 14550, Note_on_c, 9, 42, 0
16, 14580, Note_on_c, 9, 46, 70
16, 14610, Note_on_c, 9, 46, 0
16, 14640, Note_on_c, 9, 42, 70
16, 14670, Note_on_c, 9, 42, 0
16, 14700, Note_on_c, 9, 46, 70
16, 14730, Note_on_c, 9, 46, 0
16, 14760, Note_on_c, 9, 42, 70
16, 14790, Note_on_c, 9, 42, 0
16, 14820, Note_on_c, 9, 46, 70
16, 14850, Note_on_c, 9, 46, 0
16, 14880, Note_on_c, 9, 42, 70
16, 14910, Note_on_c, 9, 42, 0
16, 14940, Note_on_c, 9, 46, 70
16, 14970, Note_on_c, 9, 46, 0
16, 15000, Note_on_c, 9, 42, 70
16, 15030, Note_on_c, 9, 42, 0
16, 15060, Note_on_c, 9, 46, 70
16, 15090, Note_on_c, 9, 46, 0
16, 15120, Note_on_c, 9, 42, 70
16, 15150, Note_on_c, 9, 42, 0
16, 15180, Note_on_c, 9, 46, 70
16, 15210, Note_on_c, 9, 46, 0
16, 15240, Note_on_c, 9, 42, 70
16, 15270, Note_on_c, 9, 42, 0
16, 15300, Note_on_c, 9, 46, 70
16, 15330, Note_on_c, 9, 46, 0
16, 15360, Note_on_c, 9, 42, 70
16, 15390, Note_on_c, 9, 42, 0
16, 15420, Note_on_c, 9, 46, 70
16, 15450, Note_on_c, 9, 46, 0
16, 15480, Note_on_c, 9, 42, 70
16, 15510, Note_on_c, 9, 42, 0
16, 15540, Note_on_c, 9, 46, 70
16, 15570, Note_on_c, 9, 46, 0
16, 15600, Note_on_c, 9, 42, 70
16, 15630, Note_on_c, 9, 42, 0
16, 15660, Note_on_c, 9, 46, 70
16, 15690, Note_on_c, 9, 46, 0
16, 15720, Note_on_c, 9, 42, 70
16, 15750, Note_on_c, 9, 42, 0
16, 15780, Note_on_c, 9, 46, 70
16, 15810, Note_on_c, 9, 46, 0
16, 15840, Note_on_c, 9, 42, 70
16, 15870, Note_on_c, 9, 42, 0
16, 15900, Note_on_c, 9, 46, 70
16, 15930, Note_on_c, 9, 46, 0
16, 15960, Note_on_c, 9, 42, 70
16, 15990, Note_on_c, 9, 42, 0
16, 16020, Note_on_c, 9, 46, 70
16, 16050, Note_on_c, 9, 46, 0
16, 16080, Note_on_c, 9, 42, 70
16, 16110, Note_on_c, 9, 42, 0
16, 16140, Note_on_c, 9, 46, 70
16, 16170, Note_on_c, 9, 46, 0
16, 16200, Note_on_c, 9, 42, 70
16, 16230, Note_on_c, 9, 42, 0
16, 16260, Note_on_c, 9, 46, 70
16, 16290, Note_on_c, 9, 46, 0
16, 16320, Note_on_c, 9, 42, 70
16, 16350, Note_on_c, 9, 42, 0
16, 16380, Note_on_c, 9, 46, 70
16, 16410, Note_on_c, 9, 46, 0
16, 16440, Note_on_c, 9, 42, 70
16, 16470, Note_on_c, 9, 42, 0
16, 16500, Note_on_c, 9, 46, 70
16, 16530, Note_on_c, 9, 46, 0
16, 16560, Note_on_c, 9, 42, 70
16, 16590, Note_on_c, 9, 42, 0
16, 16620, Note_on_c, 9, 46, 70
16, 16650, Note_on_c, 9, 46, 0
16, 16680, Note_on_c, 9, 42, 70
16, 16710, Note_on_c, 9, 42, 0
16, 16740, Note_on_c, 9, 46, 70
16, 16770, Note_on_c, 9, 46, 0
16, 16800, Note_on_c, 9, 42, 70
16, 16830, Note_on_c, 9, 42, 0
16, 16860, Note_on_c, 9, 46, 70
16, 16890, Note_on_c, 9, 46, 0
16, 16920, Note_on_c, 9, 42, 70
16, 16950, Note_on_c, 9, 42, 0
16, 16980, Note_on_c, 9, 46, 70
16, 17010, Note_on_c, 9, 46, 0
16, 17040, Note_on_c, 9, 42, 70
16, 17070, Note_on_c, 9, 42, 0
16, 17100, Note_on_c, 9, 46, 70
16, 17130, Note_on_c, 9, 46, 0
16, 17160, Note_on_c, 9, 42, 70
16, 17190, Note_on_c, 9, 42, 0
16, 17220, Note_on_c, 9, 46, 70
16, 17250, Note_on_c, 9, 46, 0
16, 17280, Note_on_c, 9, 42, 70
16, 17310, Note_on_c, 9, 42, 0
16, 17340, Note_on_c, 9, 46, 70
16, 17370, Note_on_c, 9, 46, 0
16, 17400, Note_on_c, 9, 42, 70
16, 17430, Note_on_c, 9, 42, 0
16, 17460, Note_on_c, 9, 46, 70
16, 17490, Note_on_c, 9, 46, 0
16, 17520, Note_on_c, 9, 42, 70
16, 17550, Note_on_c, 9, 42, 0
16, 17580, Note_on_c, 9, 46, 70
16, 17610, Note_on_c, 9, 46, 0
16, 17640, Note_on_c, 9, 42, 70
16, 17670, Note_on_c, 9, 42, 0
16, 17700, Note_on_c, 9, 46, 70
16, 17730, Note_on_c, 9, 46, 0
16, 17760, Note_on_c, 9, 42, 70
16, 17790, Note_on_c, 9, 42, 0
16, 17820, Note_on_c, 9, 46, 70
16, 17850, Note_on_c, 9, 46, 0
16, 17880, Note_on_c, 9, 42, 70
16, 17910, Note_on_c, 9, 42, 0
16, 17940, Note_on_c, 9, 46, 70
16, 17970, Note_on_c, 9, 46, 0
16, 18000, Note_on_c, 9, 42, 70
16, 18030, Note_on_c, 9, 42, 0
16, 18060, Note_on_c, 9, 46, 70
16, 18090, Note_on_c, 9, 46, 0
16, 18120, Note_on_c, 9, 42, 70
16, 18150, Note_on_c, 9, 42, 0
16, 18180, Note_on_c, 9, 46, 70
16, 18210, Note_on_c, 9, 46, 0
16, 18240, Note_on_c, 9, 42, 70
16, 18270, Note_on_c, 9, 42, 0
16, 18300, Note_on_c, 9, 46, 70
16, 18330, Note_on_c, 9, 46, 0
16, 18360, Note_on_c, 9, 42, 70
16, 18390, Note_on_c, 9, 42, 0
16, 18420, Note_on_c, 9, 46, 70
16, 18450, Note_on_c, 9, 46, 0
16, 18480, Note_on_c, 9, 42, 70
16, 18510, Note_on_c, 9, 42, 0
16, 18540, Note_on_c, 9, 46, 70
16, 18570, Note_on_c, 9, 46, 0
16, 18600, Note_on_c, 9, 42, 70
16, 18630, Note_on_c, 9, 42, 0
16, 18660, Note_on_c, 9, 46, 70
16, 18690, Note_on_c, 9, 46, 0
16, 18720, Note_on_c, 9, 42, 70
16, 18750, Note_on_c, 9, 42, 0
16, 18780, Note_on_c, 9, 46, 70
16, 18810, Note_on_c, 9, 46, 0
16, 18840, Note_on_c, 9, 42, 70
16, 18870, Note_on_c, 9, 42, 0
16, 18900, Note_on_c, 9, 46, 70
16, 18930, Note_on_c, 9, 46, 0
16, 18960, Note_on_c, 9, 42, 70
16, 18990, Note_on_c, 9, 42, 0
16, 19020, Note_on_c, 9, 46, 70
16, 19050, Note_on_c, 9, 46, 0
16, 19080, Note_on_c, 9, 42, 70
16, 19110, Note_on_c, 9, 42, 0
16, 19140, Note_on_c, 9, 46, 70
16, 19170, Note_on_c, 9, 46, 0
16, 19200, Note_on_c, 9, 42, 70
16, 19230, Note_on_c, 9, 42, 0
16, 19260, Note_on_c, 9, 46, 70
16, 19290, Note_on_c, 9, 46, 0
16, 19320, Note_on_c, 9, 42, 70
16, 19350, Note_on_c, 9, 42, 0
16, 19380, Note_on_c, 9, 46, 70
16, 19410, Note_on_c, 9, 46, 0
16, 19440, Note_on_c, 9, 42, 70
16, 19470, Note_on_c, 9, 42, 0
16, 19500, Note_on_c, 9, 46, 70
16, 19530, Note_on_c, 9, 46, 0
16, 19560, Note_on_c, 9, 42, 70
16, 19590, Note_on_c, 9, 42, 0
16, 19620, Note_on_c, 9, 46, 70
16, 19650, Note_on_c, 9, 46, 0
16, 20640, Note_on_c, 9, 42, 70
16, 20670, Note_on_c, 9, 42, 0
16, 20700, Note_on_c, 9, 46, 70
16, 20730, Note_on_c, 9, 46, 0
16, 20760, Note_on_c, 9, 42, 70
16, 20790, Note_on_c, 9, 42, 0
16, 20820, Note_on_c, 9, 46, 70
16, 20850, Note_on_c, 9, 46, 0
16, 20880, Note_on_c, 9, 42, 70
16, 20910, Note_on_c, 9, 42, 0
16, 20940, Note_on_c, 9, 46, 70
16, 20970, Note_on_c, 9, 46, 0
16, 21000, Note_on_c, 9, 42, 70
16, 21030, Note_on_c, 9, 42, 0
16, 21060, Note_on_c, 9, 46, 70
16, 21090, Note_on_c, 9, 46, 0
16, 21120, Note_on_c, 9, 42, 70
16, 21150, Note_on_c, 9, 42, 0
16, 21180, Note_on_c, 9, 46, 70
16, 21210, Note_on_c, 9, 46, 0
16, 21240, Note_on_c, 9, 42, 70
16, 21270, Note_on_c, 9, 42, 0
16, 21300, Note_on_c, 9, 46, 70
16, 21330, Note_on_c, 9, 46, 0
16, 21360, Note_on_c, 9, 42, 70
16, 21390, Note_on_c, 9, 42, 0
16, 21420, Note_on_c, 9, 46, 70
16, 21450, Note_on_c, 9, 46, 0
16, 21480, Note_on_c, 9, 42, 70
16, 21510, Note_on_c, 9, 42, 0
16, 21540, Note_on_c, 9, 46, 70
16, 21570, Note_on_c, 9, 46, 0
16, 21600, Note_on_c, 9, 42, 70
16, 21630, Note_on_c, 9, 42, 0
16, 21660, Note_on_c, 9, 46, 70
16, 21690, Note_on_c, 9, 46, 0
16, 21720, Note_on_c, 9, 42, 70
16, 21750, Note_on_c, 9, 42, 0
16, 21780, Note_on_c, 9, 46, 70
16, 21810, Note_on_c, 9, 46, 0
16, 21840, Note_on_c, 9, 42, 70
16, 21870, Note_on_c, 9, 42, 0
16, 21900, Note_on_c, 9, 46, 70
16, 21930, Note_on_c, 9, 46, 0
16, 21960, Note_on_c, 9, 42, 70
16, 21990, Note_on_c, 9, 42, 0
16, 22020, Note_on_c, 9, 46, 70
16, 22050, Note_on_c, 9, 46, 0
16, 22080, Note_on_c, 9, 42, 70
16, 22110, Note_on_c, 9, 42, 0
16, 22140, Note_on_c, 9, 46, 70
16, 22170, Note_on_c, 9, 46, 0
16, 22200, Note_on_c, 9, 42, 70
16, 22230, Note_on_c, 9, 42, 0
16, 22260, Note_on_c, 9, 46, 70
16, 22290, Note_on_c, 9, 46, 0
16, 22320, Note_on_c, 9, 42, 70
16, 22350, Note_on_c, 9, 42, 0
16, 22380, Note_on_c, 9, 46, 70
16, 22410, Note_on_c, 9, 46, 0
16, 22440, Note_on_c, 9, 42, 70
16, 22470, Note_on_c, 9, 42, 0
16, 22500, Note_on_c, 9, 46, 70
16, 22530, Note_on_c, 9, 46, 0
16, 22560, Note_on_c, 9, 42, 70
16, 22590, Note_on_c, 9, 42, 0
16, 22620, Note_on_c, 9, 46, 70
16, 22650, Note_on_c, 9, 46, 0
16, 22680, Note_on_c, 9, 42, 70
16, 22710, Note_on_c, 9, 42, 0
16, 22740, Note_on_c, 9, 46, 70
16, 22770, Note_on_c, 9, 46, 0
16, 22800, Note_on_c, 9, 42, 70
16, 22830, Note_on_c, 9, 42, 0
16, 22860, Note_on_c, 9, 46, 70
16, 22890, Note_on_c, 9, 46, 0
16, 22920, Note_on_c, 9, 42, 70
16, 22950, Note_on_c, 9, 42, 0
16, 22980, Note_on_c, 9, 46, 70
16, 23010, Note_on_c, 9, 46, 0
16, 23040, Note_on_c, 9, 42, 70
16, 23070, Note_on_c, 9, 42, 0
16, 23100, Note_on_c, 9, 46, 70
16, 23130, Note_on_c, 9, 46, 0
16, 23160, Note_on_c, 9, 42, 70
16, 23190, Note_on_c, 9, 42, 0
16, 23220, Note_on_c, 9, 46, 70
16, 23250, Note_on_c, 9, 46, 0
16, 23280, Note_on_c, 9, 42, 70
16, 23310, Note_on_c, 9, 42, 0
16, 23340, Note_on_c, 9, 46, 70
16, 23370, Note_on_c, 9, 46, 0
16, 23400, Note_on_c, 9, 42, 70
16, 23430, Note_on_c, 9, 42, 0
16, 23460, Note_on_c, 9, 46, 70
16, 23490, Note_on_c, 9, 46, 0
16, 23520, Note_on_c, 9, 42, 70
16, 23550, Note_on_c, 9, 42, 0
16, 23580, Note_on_c, 9, 46, 70
16, 23610, Note_on_c, 9, 46, 0
16, 23640, Note_on_c, 9, 42, 70
16, 23670, Note_on_c, 9, 42, 0
16, 23700, Note_on_c, 9, 46, 70
16, 23730, Note_on_c, 9, 46, 0
16, 23760, Note_on_c, 9, 42, 70
16, 23790, Note_on_c, 9, 42, 0
16, 23820, Note_on_c, 9, 46, 70
16, 23850, Note_on_c, 9, 46, 0
16, 23880, Note_on_c, 9, 42, 70
16, 23910, Note_on_c, 9, 42, 0
16, 23940, Note_on_c, 9, 46, 70
16, 23970, Note_on_c, 9, 46, 0
16, 24000, Note_on_c, 9, 42, 70
16, 24030, Note_on_c, 9, 42, 0
16, 24060, Note_on_c, 9, 46, 70
16, 24090, Note_on_c, 9, 46, 0
16, 24120, Note_on_c, 9, 42, 70
16, 24150, Note_on_c, 9, 42, 0
16, 24180, Note_on_c, 9, 46, 70
16, 24210, Note_on_c, 9, 46, 0
16, 24240, Note_on_c, 9, 42, 70
16, 24270, Note_on_c, 9, 42, 0
16, 24300, Note_on_c, 9, 46, 70
16, 24330, Note_on_c, 9, 46, 0
16, 24360, Note_on_c, 9, 42, 70
16, 24390, Note_on_c, 9, 42, 0
16, 24420, Note_on_c, 9, 46, 70
16, 24450, Note_on_c, 9, 46, 0
16, 24480, Note_on_c, 9, 42, 70
16, 24510, Note_on_c, 9, 42, 0
16, 24540, Note_on_c, 9, 46, 70
16, 24570, Note_on_c, 9, 46, 0
16, 24600, Note_on_c, 9, 42, 70
16, 24630, Note_on_c, 9, 42, 0
16, 24660, Note_on_c, 9, 46, 70
16, 24690, Note_on_c, 9, 46, 0
16, 24720, Note_on_c, 9, 42, 70
16, 24750, Note_on_c, 9, 42, 0
16, 24780, Note_on_c, 9, 46, 70
16, 24810, Note_on_c, 9, 46, 0
16, 24840, Note_on_c, 9, 42, 70
16, 24870, Note_on_c, 9, 42, 0
16, 24900, Note_on_c, 9, 46, 70
16, 24930, Note_on_c, 9, 46, 0
16, 24960, Note_on_c, 9, 42, 70
16, 24990, Note_on_c, 9, 42, 0
16, 25020, Note_on_c, 9, 46, 70
16, 25050, Note_on_c, 9, 46, 0
16, 25080, Note_on_c, 9, 42, 70
16, 25110, Note_on_c, 9, 42, 0
16, 25140, Note_on_c, 9, 46, 70
16, 25170, Note_on_c, 9, 46, 0
16, 25200, Note_on_c, 9, 42, 70
16, 25230, Note_on_c, 9, 42, 0
16, 25260, Note_on_c, 9, 46, 70
16, 25290, Note_on_c, 9, 46, 0
16, 25320, Note_on_c, 9, 42, 70
16, 25350, Note_on_c, 9, 42, 0
16, 25380, Note_on_c, 9, 46, 70
16, 25410, Note_on_c, 9, 46, 0
16, 25440, Note_on_c, 9, 42, 70
16, 25470, Note_on_c, 9, 42, 0
16, 25500, Note_on_c, 9, 46, 70
16, 25530, Note_on_c, 9, 46, 0
16, 25560, Note_on_c, 9, 42, 70
16, 25590, Note_on_c, 9, 42, 0
16, 25620, Note_on_c, 9, 46, 70
16, 25650, Note_on_c, 9, 46, 0
16, 25680, Note_on_c, 9, 42, 70
16, 25710, Note_on_c, 9, 42, 0
16, 25740, Note_on_c, 9, 46, 70
16, 25770, Note_on_c, 9, 46, 0
16, 25800, Note_on_c, 9, 42, 70
16, 25830, Note_on_c, 9, 42, 0
16, 25860, Note_on_c, 9, 46, 70
16, 25890, Note_on_c, 9, 46, 0
16, 25920, Note_on_c, 9, 42, 70
16, 25950, Note_on_c, 9, 42, 0
16, 25980, Note_on_c, 9, 46, 70
16, 26010, Note_on_c, 9, 46, 0
16, 26040, Note_on_c, 9, 42, 70
16, 26070, Note_on_c, 9, 42, 0
16, 26100, Note_on_c, 9, 46, 70
16, 26130, Note_on_c, 9, 46, 0
16, 26160, Note_on_c, 9, 42, 70
16, 26190, Note_on_c, 9, 42, 0
16, 26220, Note_on_c, 9, 46, 70
16, 26250, Note_on_c, 9, 46, 0
16, 26280, Note_on_c, 9, 42, 70
16, 26310, Note_on_c, 9, 42, 0
16, 26340, Note_on_c, 9, 46, 70
16, 26370, Note_on_c, 9, 46, 0
16, 26400, Note_on_c, 9, 42, 70
16, 26430, Note_on_c, 9, 42, 0
16, 26460, Note_on_c, 9, 46, 70
16, 26490, Note_on_c, 9, 46, 0
16, 26520, Note_on_c, 9, 42, 70
16, 26550, Note_on_c, 9, 42, 0
16, 26580, Note_on_c, 9, 46, 70
16, 26610, Note_on_c, 9, 46, 0
16, 26640, Note_on_c, 9, 42, 70
16, 26670, Note_on_c, 9, 42, 0
16, 26700, Note_on_c, 9, 46, 70
16, 26730, Note_on_c, 9, 46, 0
16, 26760, Note_on_c, 9, 42, 70
16, 26790, Note_on_c, 9, 42, 0
16, 26820, Note_on_c, 9, 46, 70
16, 26850, Note_on_c, 9, 46, 0
16, 26880, Note_on_c, 9, 42, 70
16, 26910, Note_on_c, 9, 42, 0
16, 26940, Note_on_c, 9, 46, 70
16, 26970, Note_on_c, 9, 46, 0
16, 27000, Note_on_c, 9, 42, 70
16, 27030, Note_on_c, 9, 42, 0
16, 27060, Note_on_c, 9, 46, 70
16, 27090, Note_on_c, 9, 46, 0
16, 27120, Note_on_c, 9, 42, 70
16, 27150, Note_on_c, 9, 42, 0
16, 27180, Note_on_c, 9, 46, 70
16, 27210, Note_on_c, 9, 46, 0
16, 27240, Note_on_c, 9, 42, 70
16, 27270, Note_on_c, 9, 42, 0
16, 27300, Note_on_c, 9, 46, 70
16, 27330, Note_on_c, 9, 46, 0
16, 27360, Note_on_c, 9, 42, 70
16, 27390, Note_on_c, 9, 42, 0
16, 27420, Note_on_c, 9, 46, 70
16, 27450, Note_on_c, 9, 46, 0
16, 27480, Note_on_c, 9, 42, 70
16, 27510, Note_on_c, 9, 42, 0
16, 27540, Note_on_c, 9, 46, 70
16, 27570, Note_on_c, 9, 46, 0
16, 27600, Note_on_c, 9, 42, 70
16, 27630, Note_on_c, 9, 42, 0
16, 27660, Note_on_c, 9, 46, 70
16, 27690, Note_on_c, 9, 46, 0
16, 27720, Note_on_c, 9, 42, 70
16, 27750, Note_on_c, 9, 42, 0
16, 27780, Note_on_c, 9, 46, 70
16, 27810, Note_on_c, 9, 46, 0
16, 27840, Note_on_c, 9, 42, 70
16, 27870, Note_on_c, 9, 42, 0
16, 27900, Note_on_c, 9, 46, 70
16, 27930, Note_on_c, 9, 46, 0
16, 27960, Note_on_c, 9, 42, 70
16, 27990, Note_on_c, 9, 42, 0
16, 28020, Note_on_c, 9, 46, 70
16, 28050, Note_on_c, 9, 46, 0
16, 28080, Note_on_c, 9, 42, 70
16, 28110, Note_on_c, 9, 42, 0
16, 28140, Note_on_c, 9, 46, 70
16, 28170, Note_on_c, 9, 46, 0
16, 28200, Note_on_c, 9, 42, 70
16, 28230, Note_on_c, 9, 42, 0
16, 28260, Note_on_c, 9, 46, 70
16, 28290, Note_on_c, 9, 46, 0
16, 28320, Note_on_c, 9, 42, 70
16, 28350, Note_on_c, 9, 42, 0
16, 28380, Note_on_c, 9, 46, 70
16, 28410, Note_on_c, 9, 46, 0
16, 28440, Note_on_c, 9, 42, 70
16, 28470, Note_on_c, 9, 42, 0
16, 28500, Note_on_c, 9, 46, 70
16, 28530, Note_on_c, 9, 46, 0
16, 28560, Note_on_c, 9, 42, 70
16, 28590, Note_on_c, 9, 42, 0
16, 28620, Note_on_c, 9, 46, 70
16, 28650, Note_on_c, 9, 46, 0
16, 28680, Note_on_c, 9, 42, 70
16, 28710, Note_on_c, 9, 42, 0
16, 28740, Note_on_c, 9, 46, 70
16, 28770, Note_on_c, 9, 46, 0
16, 28800, Note_on_c, 9, 42, 70
16, 28830, Note_on_c, 9, 42, 0
16, 28860, Note_on_c, 9, 46, 70
16, 28890, Note_on_c, 9, 46, 0
16, 28920, Note_on_c, 9, 42, 70
16, 28950, Note_on_c, 9, 42, 0
16, 28980, Note_on_c, 9, 46, 70
16, 29010, Note_on_c, 9, 46, 0
16, 29040, Note_on_c, 9, 42, 70
16, 29070, Note_on_c, 9, 42, 0
16, 29100, Note_on_c, 9, 46, 70
16, 29130, Note_on_c, 9, 46, 0
16, 29160, Note_on_c, 9, 42, 70
16, 29190, Note_on_c, 9, 42, 0
16, 29220, Note_on_c, 9, 46, 70
16, 29250, Note_on_c, 9, 46, 0
16, 29280, Note_on_c, 9, 42, 70
16, 29310, Note_on_c, 9, 42, 0
16, 29340, Note_on_c, 9, 46, 70
16, 29370, Note_on_c, 9, 46, 0
16, 29400, Note_on_c, 9, 42, 70
16, 29430, Note_on_c, 9, 42, 0
16, 29460, Note_on_c, 9, 46, 70
16, 29490, Note_on_c, 9, 46, 0
16, 29520, Note_on_c, 9, 42, 70
16, 29550, Note_on_c, 9, 42, 0
16, 29580, Note_on_c, 9, 46, 70
16, 29610, Note_on_c, 9, 46, 0
16, 29640, Note_on_c, 9, 42, 70
16, 29670, Note_on_c, 9, 42, 0
16, 29700, Note_on_c, 9, 46, 70
16, 29730, Note_on_c, 9, 46, 0
16, 29760, Note_on_c, 9, 42, 70
16, 29790, Note_on_c, 9, 42, 0
16, 29820, Note_on_c, 9, 46, 70
16, 29850, Note_on_c, 9, 46, 0
16, 29880, Note_on_c, 9, 42, 70
16, 29910, Note_on_c, 9, 42, 0
16, 29940, Note_on_c, 9, 46, 70
16, 29970, Note_on_c, 9, 46, 0
16, 30000, Note_on_c, 9, 42, 70
16, 30030, Note_on_c, 9, 42, 0
16, 30060, Note_on_c, 9, 46, 70
16, 30090, Note_on_c, 9, 46, 0
16, 30120, Note_on_c, 9, 42, 70
16, 30150, Note_on_c, 9, 42, 0
16, 30180, Note_on_c, 9, 46, 70
16, 30210, Note_on_c, 9, 46, 0
16, 34560, Note_on_c, 9, 44, 70
16, 34574, Note_on_c, 9, 44, 0
16, 34620, Note_on_c, 9, 46, 70
16, 34650, Note_on_c, 9, 46, 0
16, 34680, Note_on_c, 9, 44, 70
16, 34694, Note_on_c, 9, 44, 0
16, 34740, Note_on_c, 9, 46, 70
16, 34770, Note_on_c, 9, 46, 0
16, 34800, Note_on_c, 9, 44, 70
16, 34814, Note_on_c, 9, 44, 0
16, 34860, Note_on_c, 9, 46, 70
16, 34890, Note_on_c, 9, 46, 0
16, 34920, Note_on_c, 9, 44, 70
16, 34934, Note_on_c, 9, 44, 0
16, 34980, Note_on_c, 9, 46, 70
16, 35010, Note_on_c, 9, 46, 0
16, 35040, Note_on_c, 9, 44, 70
16, 35054, Note_on_c, 9, 44, 0
16, 35100, Note_on_c, 9, 46, 70
16, 35130, Note_on_c, 9, 46, 0
16, 35160, Note_on_c, 9, 44, 70
16, 35174, Note_on_c, 9, 44, 0
16, 35220, Note_on_c, 9, 46, 70
16, 35250, Note_on_c, 9, 46, 0
16, 35280, Note_on_c, 9, 44, 70
16, 35294, Note_on_c, 9, 44, 0
16, 35340, Note_on_c, 9, 46, 70
16, 35370, Note_on_c, 9, 46, 0
16, 35400, Note_on_c, 9, 44, 70
16, 35414, Note_on_c, 9, 44, 0
16, 35460, Note_on_c, 9, 46, 70
16, 35490, Note_on_c, 9, 46, 0
16, 35520, Note_on_c, 9, 44, 70
16, 35534, Note_on_c, 9, 44, 0
16, 35580, Note_on_c, 9, 46, 70
16, 35610, Note_on_c, 9, 46, 0
16, 35640, Note_on_c, 9, 44, 70
16, 35654, Note_on_c, 9, 44, 0
16, 35700, Note_on_c, 9, 46, 70
16, 35730, Note_on_c, 9, 46, 0
16, 35760, Note_on_c, 9, 44, 70
16, 35774, Note_on_c, 9, 44, 0
16, 35820, Note_on_c, 9, 46, 70
16, 35850, Note_on_c, 9, 46, 0
16, 35880, Note_on_c, 9, 44, 70
16, 35894, Note_on_c, 9, 44, 0
16, 35940, Note_on_c, 9, 46, 70
16, 35970, Note_on_c, 9, 46, 0
16, 36000, Note_on_c, 9, 44, 70
16, 36014, Note_on_c, 9, 44, 0
16, 36060, Note_on_c, 9, 46, 70
16, 36090, Note_on_c, 9, 46, 0
16, 36120, Note_on_c, 9, 44, 70
16, 36134, Note_on_c, 9, 44, 0
16, 36180, Note_on_c, 9, 46, 70
16, 36210, Note_on_c, 9, 46, 0
16, 36240, Note_on_c, 9, 44, 70
16, 36254, Note_on_c, 9, 44, 0
16, 36300, Note_on_c, 9, 46, 70
16, 36330, Note_on_c, 9, 46, 0
16, 36360, Note_on_c, 9, 44, 70
16, 36374, Note_on_c, 9, 44, 0
16, 36420, Note_on_c, 9, 46, 70
16, 36450, Note_on_c, 9, 46, 0
16, 36480, Note_on_c, 9, 44, 70
16, 36494, Note_on_c, 9, 44, 0
16, 36540, Note_on_c, 9, 46, 70
16, 36570, Note_on_c, 9, 46, 0
16, 36600, Note_on_c, 9, 44, 70
16, 36614, Note_on_c, 9, 44, 0
16, 36660, Note_on_c, 9, 46, 70
16, 36690, Note_on_c, 9, 46, 0
16, 36720, Note_on_c, 9, 44, 70
16, 36734, Note_on_c, 9, 44, 0
16, 36780, Note_on_c, 9, 46, 70
16, 36810, Note_on_c, 9, 46, 0
16, 36840, Note_on_c, 9, 44, 70
16, 36854, Note_on_c, 9, 44, 0
16, 36900, Note_on_c, 9, 46, 70
16, 36930, Note_on_c, 9, 46, 0
16, 36960, Note_on_c, 9, 44, 70
16, 36974, Note_on_c, 9, 44, 0
16, 37020, Note_on_c, 9, 46, 70
16, 37050, Note_on_c, 9, 46, 0
16, 37080, Note_on_c, 9, 44, 70
16, 37094, Note_on_c, 9, 44, 0
16, 37140, Note_on_c, 9, 46, 70
16, 37170, Note_on_c, 9, 46, 0
16, 37200, Note_on_c, 9, 44, 70
16, 37214, Note_on_c, 9, 44, 0
16, 37260, Note_on_c, 9, 46, 70
16, 37290, Note_on_c, 9, 46, 0
16, 37320, Note_on_c, 9, 44, 70
16, 37334, Note_on_c, 9, 44, 0
16, 37380, Note_on_c, 9, 46, 70
16, 37410, Note_on_c, 9, 46, 0
16, 37440, Note_on_c, 9, 44, 70
16, 37454, Note_on_c, 9, 44, 0
16, 37500, Note_on_c, 9, 46, 70
16, 37530, Note_on_c, 9, 46, 0
16, 37560, Note_on_c, 9, 44, 70
16, 37574, Note_on_c, 9, 44, 0
16, 37620, Note_on_c, 9, 46, 70
16, 37650, Note_on_c, 9, 46, 0
16, 37680, Note_on_c, 9, 44, 70
16, 37694, Note_on_c, 9, 44, 0
16, 37740, Note_on_c, 9, 46, 70
16, 37770, Note_on_c, 9, 46, 0
16, 37800, Note_on_c, 9, 44, 70
16, 37814, Note_on_c, 9, 44, 0
16, 37860, Note_on_c, 9, 46, 70
16, 37890, Note_on_c, 9, 46, 0
16, 37920, Note_on_c, 9, 44, 70
16, 37934, Note_on_c, 9, 44, 0
16, 37980, Note_on_c, 9, 46, 70
16, 38010, Note_on_c, 9, 46, 0
16, 38040, Note_on_c, 9, 44, 70
16, 38054, Note_on_c, 9, 44, 0
16, 38100, Note_on_c, 9, 46, 70
16, 38130, Note_on_c, 9, 46, 0
16, 38160, Note_on_c, 9, 44, 70
16, 38174, Note_on_c, 9, 44, 0
16, 38220, Note_on_c, 9, 46, 70
16, 38250, Note_on_c, 9, 46, 0
16, 38280, Note_on_c, 9, 44, 70
16, 38294, Note_on_c, 9, 44, 0
16, 38340, Note_on_c, 9, 46, 70
16, 38370, Note_on_c, 9, 46, 0
16, 40380, Note_on_c, 9, 46, 70
16, 40410, Note_on_c, 9, 46, 0
16, 40500, Note_on_c, 9, 46, 70
16, 40530, Note_on_c, 9, 46, 0
16, 40620, Note_on_c, 9, 46, 70
16, 40650, Note_on_c, 9, 46, 0
16, 40740, Note_on_c, 9, 46, 70
16, 40770, Note_on_c, 9, 46, 0
16, 40860, Note_on_c, 9, 46, 70
16, 40890, Note_on_c, 9, 46, 0
16, 40980, Note_on_c, 9, 46, 70
16, 41010, Note_on_c, 9, 46, 0
16, 41100, Note_on_c, 9, 46, 70
16, 41130, Note_on_c, 9, 46, 0
16, 41220, Note_on_c, 9, 46, 70
16, 41250, Note_on_c, 9, 46, 0
16, 41340, Note_on_c, 9, 46, 70
16, 41370, Note_on_c, 9, 46, 0
16, 41460, Note_on_c, 9, 46, 70
16, 41490, Note_on_c, 9, 46, 0
16, 41580, Note_on_c, 9, 46, 70
16, 41610, Note_on_c, 9, 46, 0
16, 41700, Note_on_c, 9, 46, 70
16, 41730, Note_on_c, 9, 46, 0
16, 41820, Note_on_c, 9, 46, 70
16, 41850, Note_on_c, 9, 46, 0
16, 41940, Note_on_c, 9, 46, 70
16, 41970, Note_on_c, 9, 46, 0
16, 42060, Note_on_c, 9, 46, 70
16, 42090, Note_on_c, 9, 46, 0
16, 42180, Note_on_c, 9, 46, 70
16, 42210, Note_on_c, 9, 46, 0
16, 42720, Note_on_c, 9, 44, 70
16, 42734, Note_on_c, 9, 44, 0
16, 42780, Note_on_c, 9, 46, 70
16, 42810, Note_on_c, 9, 46, 0
16, 42840, Note_on_c, 9, 44, 70
16, 42854, Note_on_c, 9, 44, 0
16, 42900, Note_on_c, 9, 46, 70
16, 42930, Note_on_c, 9, 46, 0
16, 42960, Note_on_c, 9, 44, 70
16, 42974, Note_on_c, 9, 44, 0
16, 43020, Note_on_c, 9, 46, 70
16, 43050, Note_on_c, 9, 46, 0
16, 43080, Note_on_c, 9, 44, 70
16, 43094, Note_on_c, 9, 44, 0
16, 43140, Note_on_c, 9, 46, 70
16, 43170, Note_on_c, 9, 46, 0
16, 43200, Note_on_c, 9, 44, 70
16, 43214, Note_on_c, 9, 44, 0
16, 43260, Note_on_c, 9, 46, 70
16, 43290, Note_on_c, 9, 46, 0
16, 43320, Note_on_c, 9, 44, 70
16, 43334, Note_on_c, 9, 44, 0
16, 43380, Note_on_c, 9, 46, 70
16, 43410, Note_on_c, 9, 46, 0
16, 43440, Note_on_c, 9, 44, 70
16, 43454, Note_on_c, 9, 44, 0
16, 43500, Note_on_c, 9, 46, 70
16, 43530, Note_on_c, 9, 46, 0
16, 43560, Note_on_c, 9, 44, 70
16, 43574, Note_on_c, 9, 44, 0
16, 43620, Note_on_c, 9, 46, 70
16, 43650, Note_on_c, 9, 46, 0
16, 43680, Note_on_c, 9, 44, 70
16, 43694, Note_on_c, 9, 44, 0
16, 43740, Note_on_c, 9, 46, 70
16, 43770, Note_on_c, 9, 46, 0
16, 43800, Note_on_c, 9, 44, 70
16, 43814, Note_on_c, 9, 44, 0
16, 43860, Note_on_c, 9, 46, 70
16, 43890, Note_on_c, 9, 46, 0
16, 43920, Note_on_c, 9, 44, 70
16, 43934, Note_on_c, 9, 44, 0
16, 43980, Note_on_c, 9, 46, 70
16, 44010, Note_on_c, 9, 46, 0
16, 44040, Note_on_c, 9, 44, 70
16, 44054, Note_on_c, 9, 44, 0
16, 44100, Note_on_c, 9, 46, 70
16, 44130, Note_on_c, 9, 46, 0
16, 44160, Note_on_c, 9, 44, 70
16, 44174, Note_on_c, 9, 44, 0
16, 44220, Note_on_c, 9, 46, 70
16, 44250, Note_on_c, 9, 46, 0
16, 44280, Note_on_c, 9, 44, 70
16, 44294, Note_on_c, 9, 44, 0
16, 44340, Note_on_c, 9, 46, 70
16, 44370, Note_on_c, 9, 46, 0
16, 44400, Note_on_c, 9, 44, 70
16, 44414, Note_on_c, 9, 44, 0
16, 44460, Note_on_c, 9, 46, 70
16, 44490, Note_on_c, 9, 46, 0
16, 44520, Note_on_c, 9, 44, 70
16, 44534, Note_on_c, 9, 44, 0
16, 44580, Note_on_c, 9, 46, 70
16, 44610, Note_on_c, 9, 46, 0
16, 44640, Note_on_c, 9, 44, 70
16, 44654, Note_on_c, 9, 44, 0
16, 44700, Note_on_c, 9, 46, 70
16, 44730, Note_on_c, 9, 46, 0
16, 44760, Note_on_c, 9, 44, 70
16, 44774, Note_on_c, 9, 44, 0
16, 44820, Note_on_c, 9, 46, 70
16, 44850, Note_on_c, 9, 46, 0
16, 44880, Note_on_c, 9, 44, 70
16, 44894, Note_on_c, 9, 44, 0
16, 44940, Note_on_c, 9, 46, 70
16, 44970, Note_on_c, 9, 46, 0
16, 45000, Note_on_c, 9, 44, 70
16, 45014, Note_on_c, 9, 44, 0
16, 45060, Note_on_c, 9, 46, 70
16, 45090, Note_on_c, 9, 46, 0
16, 45120, Note_on_c, 9, 44, 70
16, 45134, Note_on_c, 9, 44, 0
16, 45180, Note_on_c, 9, 46, 70
16, 45210, Note_on_c, 9, 46, 0
16, 45240, Note_on_c, 9, 44, 70
16, 45254, Note_on_c, 9, 44, 0
16, 45300, Note_on_c, 9, 46, 70
16, 45330, Note_on_c, 9, 46, 0
16, 45360, Note_on_c, 9, 44, 70
16, 45374, Note_on_c, 9, 44, 0
16, 45420, Note_on_c, 9, 46, 70
16, 45450, Note_on_c, 9, 46, 0
16, 45480, Note_on_c, 9, 44, 70
16, 45494, Note_on_c, 9, 44, 0
16, 45540, Note_on_c, 9, 46, 70
16, 45570, Note_on_c, 9, 46, 0
16, 45600, Note_on_c, 9, 44, 70
16, 45614, Note_on_c, 9, 44, 0
16, 45660, Note_on_c, 9, 46, 70
16, 45690, Note_on_c, 9, 46, 0
16, 45720, Note_on_c, 9, 44, 70
16, 45734, Note_on_c, 9, 44, 0
16, 45780, Note_on_c, 9, 46, 70
16, 45810, Note_on_c, 9, 46, 0
16, 45840, Note_on_c, 9, 44, 70
16, 45854, Note_on_c, 9, 44, 0
16, 45900, Note_on_c, 9, 46, 70
16, 45930, Note_on_c, 9, 46, 0
16, 45960, Note_on_c, 9, 44, 70
16, 45974, Note_on_c, 9, 44, 0
16, 46020, Note_on_c, 9, 46, 70
16, 46050, Note_on_c, 9, 46, 0
16, 46080, Note_on_c, 9, 44, 70
16, 46094, Note_on_c, 9, 44, 0
16, 46140, Note_on_c, 9, 46, 70
16, 46170, Note_on_c, 9, 46, 0
16, 46200, Note_on_c, 9, 44, 70
16, 46214, Note_on_c, 9, 44, 0
16, 46260, Note_on_c, 9, 46, 70
16, 46290, Note_on_c, 9, 46, 0
16, 46320, Note_on_c, 9, 44, 70
16, 46334, Note_on_c, 9, 44, 0
16, 46380, Note_on_c, 9, 46, 70
16, 46410, Note_on_c, 9, 46, 0
16, 46440, Note_on_c, 9, 44, 70
16, 46454, Note_on_c, 9, 44, 0
16, 46500, Note_on_c, 9, 46, 70
16, 46530, Note_on_c, 9, 46, 0
16, 46560, Note_on_c, 9, 44, 70
16, 46574, Note_on_c, 9, 44, 0
16, 46620, Note_on_c, 9, 46, 70
16, 46650, Note_on_c, 9, 46, 0
16, 46680, Note_on_c, 9, 44, 70
16, 46694, Note_on_c, 9, 44, 0
16, 46740, Note_on_c, 9, 46, 70
16, 46770, Note_on_c, 9, 46, 0
16, 46800, Note_on_c, 9, 44, 70
16, 46814, Note_on_c, 9, 44, 0
16, 46860, Note_on_c, 9, 46, 70
16, 46890, Note_on_c, 9, 46, 0
16, 46920, Note_on_c, 9, 44, 70
16, 46934, Note_on_c, 9, 44, 0
16, 46980, Note_on_c, 9, 46, 70
16, 47010, Note_on_c, 9, 46, 0
16, 47040, Note_on_c, 9, 44, 70
16, 47054, Note_on_c, 9, 44, 0
16, 47100, Note_on_c, 9, 46, 70
16, 47130, Note_on_c, 9, 46, 0
16, 47160, Note_on_c, 9, 44, 70
16, 47174, Note_on_c, 9, 44, 0
16, 47220, Note_on_c, 9, 46, 70
16, 47250, Note_on_c, 9, 46, 0
16, 47280, Note_on_c, 9, 44, 70
16, 47294, Note_on_c, 9, 44, 0
16, 47340, Note_on_c, 9, 46, 70
16, 47370, Note_on_c, 9, 46, 0
16, 47400, Note_on_c, 9, 44, 70
16, 47414, Note_on_c, 9, 44, 0
16, 47460, Note_on_c, 9, 46, 70
16, 47490, Note_on_c, 9, 46, 0
16, 47520, Note_on_c, 9, 44, 70
16, 47534, Note_on_c, 9, 44, 0
16, 47580, Note_on_c, 9, 46, 70
16, 47610, Note_on_c, 9, 46, 0
16, 47640, Note_on_c, 9, 44, 70
16, 47654, Note_on_c, 9, 44, 0
16, 47700, Note_on_c, 9, 46, 70
16, 47730, Note_on_c, 9, 46, 0
16, 47760, Note_on_c, 9, 44, 70
16, 47774, Note_on_c, 9, 44, 0
16, 47820, Note_on_c, 9, 46, 70
16, 47850, Note_on_c, 9, 46, 0
16, 47880, Note_on_c, 9, 44, 70
16, 47894, Note_on_c, 9, 44, 0
16, 47940, Note_on_c, 9, 46, 70
16, 47970, Note_on_c, 9, 46, 0
16, 48000, Note_on_c, 9, 44, 70
16, 48014, Note_on_c, 9, 44, 0
16, 48060, Note_on_c, 9, 46, 70
16, 48090, Note_on_c, 9, 46, 0
16, 48120, Note_on_c, 9, 44, 70
16, 48134, Note_on_c, 9, 44, 0
16, 48180, Note_on_c, 9, 46, 70
16, 48210, Note_on_c, 9, 46, 0
16, 48240, Note_on_c, 9, 44, 70
16, 48254, Note_on_c, 9, 44, 0
16, 48300, Note_on_c, 9, 46, 70
16, 48330, Note_on_c, 9, 46, 0
16, 48360, Note_on_c, 9, 44, 70
16, 48374, Note_on_c, 9, 44, 0
16, 48420, Note_on_c, 9, 46, 70
16, 48450, Note_on_c, 9, 46, 0
16, 48480, Note_on_c, 9, 44, 70
16, 48494, Note_on_c, 9, 44, 0
16, 48540, Note_on_c, 9, 46, 70
16, 48570, Note_on_c, 9, 46, 0
16, 48600, Note_on_c, 9, 44, 70
16, 48614, Note_on_c, 9, 44, 0
16, 48660, Note_on_c, 9, 46, 70
16, 48690, Note_on_c, 9, 46, 0
16, 48720, Note_on_c, 9, 44, 70
16, 48734, Note_on_c, 9, 44, 0
16, 48780, Note_on_c, 9, 46, 70
16, 48810, Note_on_c, 9, 46, 0
16, 48840, Note_on_c, 9, 44, 70
16, 48854, Note_on_c, 9, 44, 0
16, 48900, Note_on_c, 9, 46, 70
16, 48930, Note_on_c, 9, 46, 0
16, 48960, Note_on_c, 9, 44, 70
16, 48974, Note_on_c, 9, 44, 0
16, 49020, Note_on_c, 9, 46, 70
16, 49050, Note_on_c, 9, 46, 0
16, 49080, Note_on_c, 9, 44, 70
16, 49094, Note_on_c, 9, 44, 0
16, 49140, Note_on_c, 9, 46, 70
16, 49170, Note_on_c, 9, 46, 0
16, 49200, Note_on_c, 9, 44, 70
16, 49214, Note_on_c, 9, 44, 0
16, 49260, Note_on_c, 9, 46, 70
16, 49290, Note_on_c, 9, 46, 0
16, 49320, Note_on_c, 9, 44, 70
16, 49334, Note_on_c, 9, 44, 0
16, 49380, Note_on_c, 9, 46, 70
16, 49410, Note_on_c, 9, 46, 0
16, 49440, Note_on_c, 9, 44, 70
16, 49454, Note_on_c, 9, 44, 0
16, 49500, Note_on_c, 9, 46, 70
16, 49530, Note_on_c, 9, 46, 0
16, 49560, Note_on_c, 9, 44, 70
16, 49574, Note_on_c, 9, 44, 0
16, 49620, Note_on_c, 9, 46, 70
16, 49650, Note_on_c, 9, 46, 0
16, 49680, Note_on_c, 9, 44, 70
16, 49694, Note_on_c, 9, 44, 0
16, 49740, Note_on_c, 9, 46, 70
16, 49770, Note_on_c, 9, 46, 0
16, 49800, Note_on_c, 9, 44, 70
16, 49814, Note_on_c, 9, 44, 0
16, 49860, Note_on_c, 9, 46, 70
16, 49890, Note_on_c, 9, 46, 0
16, 49920, Note_on_c, 9, 44, 70
16, 49934, Note_on_c, 9, 44, 0
16, 49980, Note_on_c, 9, 46, 70
16, 50010, Note_on_c, 9, 46, 0
16, 50040, Note_on_c, 9, 44, 70
16, 50054, Note_on_c, 9, 44, 0
16, 50100, Note_on_c, 9, 46, 70
16, 50130, Note_on_c, 9, 46, 0
16, 50160, Note_on_c, 9, 44, 70
16, 50174, Note_on_c, 9, 44, 0
16, 50220, Note_on_c, 9, 46, 70
16, 50250, Note_on_c, 9, 46, 0
16, 50280, Note_on_c, 9, 44, 70
16, 50294, Note_on_c, 9, 44, 0
16, 50340, Note_on_c, 9, 46, 70
16, 50370, Note_on_c, 9, 46, 0
16, 50400, Note_on_c, 9, 44, 70
16, 50400, Control_c, 9, 11, 127
16, 50414, Note_on_c, 9, 44, 0
16, 50460, Control_c, 9, 11, 126
16, 50460, Note_on_c, 9, 46, 70
16, 50490, Note_on_c, 9, 46, 0
16, 50520, Note_on_c, 9, 44, 70
16, 50520, Control_c, 9, 11, 125
16, 50534, Note_on_c, 9, 44, 0
16, 50580, Note_on_c, 9, 46, 70
16, 50581, Control_c, 9, 11, 124
16, 50610, Note_on_c, 9, 46, 0
16, 50640, Note_on_c, 9, 44, 70
16, 50641, Control_c, 9, 11, 123
16, 50654, Note_on_c, 9, 44, 0
16, 50700, Note_on_c, 9, 46, 70
16, 50702, Control_c, 9, 11, 122
16, 50730, Note_on_c, 9, 46, 0
16, 50760, Note_on_c, 9, 44, 70
16, 50762, Control_c, 9, 11, 121
16, 50774, Note_on_c, 9, 44, 0
16, 50820, Note_on_c, 9, 46, 70
16, 50823, Control_c, 9, 11, 120
16, 50850, Note_on_c, 9, 46, 0
16, 50880, Note_on_c, 9, 44, 70
16, 50883, Control_c, 9, 11, 119
16, 50894, Note_on_c, 9, 44, 0
16, 50940, Note_on_c, 9, 46, 70
16, 50944, Control_c, 9, 11, 118
16, 50970, Note_on_c, 9, 46, 0
16, 51000, Note_on_c, 9, 44, 70
16, 51004, Control_c, 9, 11, 117
16, 51014, Note_on_c, 9, 44, 0
16, 51060, Note_on_c, 9, 46, 70
16, 51065, Control_c, 9, 11, 116
16, 51090, Note_on_c, 9, 46, 0
16, 51120, Note_on_c, 9, 44, 70
16, 51125, Control_c, 9, 11, 115
16, 51134, Note_on_c, 9, 44, 0
16, 51180, Note_on_c, 9, 46, 70
16, 51186, Control_c, 9, 11, 114
16, 51210, Note_on_c, 9, 46, 0
16, 51240, Note_on_c, 9, 44, 70
16, 51246, Control_c, 9, 11, 113
16, 51254, Note_on_c, 9, 44, 0
16, 51300, Note_on_c, 9, 46, 70
16, 51306, Control_c, 9, 11, 112
16, 51330, Note_on_c, 9, 46, 0
16, 51360, Note_on_c, 9, 44, 70
16, 51367, Control_c, 9, 11, 111
16, 51374, Note_on_c, 9, 44, 0
16, 51420, Note_on_c, 9, 46, 70
16, 51427, Control_c, 9, 11, 110
16, 51450, Note_on_c, 9, 46, 0
16, 51480, Note_on_c, 9, 44, 70
16, 51488, Control_c, 9, 11, 109
16, 51494, Note_on_c, 9, 44, 0
16, 51540, Note_on_c, 9, 46, 70
16, 51548, Control_c, 9, 11, 108
16, 51570, Note_on_c, 9, 46, 0
16, 51600, Note_on_c, 9, 44, 70
16, 51609, Control_c, 9, 11, 107
16, 51614, Note_on_c, 9, 44, 0
16, 51660, Note_on_c, 9, 46, 70
16, 51669, Control_c, 9, 11, 106
16, 51690, Note_on_c, 9, 46, 0
16, 51720, Note_on_c, 9, 44, 70
16, 51730, Control_c, 9, 11, 105
16, 51734, Note_on_c, 9, 44, 0
16, 51780, Note_on_c, 9, 46, 70
16, 51790, Control_c, 9, 11, 104
16, 51810, Note_on_c, 9, 46, 0
16, 51840, Note_on_c, 9, 44, 70
16, 51851, Control_c, 9, 11, 103
16, 51854, Note_on_c, 9, 44, 0
16, 51900, Note_on_c, 9, 46, 70
16, 51911, Control_c, 9, 11, 102
16, 51930, Note_on_c, 9, 46, 0
16, 51960, Note_on_c, 9, 44, 70
16, 51972, Control_c, 9, 11, 101
16, 51974, Note_on_c, 9, 44, 0
16, 52020, Note_on_c, 9, 46, 70
16, 52032, Control_c, 9, 11, 100
16, 52050, Note_on_c, 9, 46, 0
16, 52080, Note_on_c, 9, 44, 70
16, 52093, Control_c, 9, 11, 99
16, 52094, Note_on_c, 9, 44, 0
16, 52140, Note_on_c, 9, 46, 70
16, 52153, Control_c, 9, 11, 98
16, 52170, Note_on_c, 9, 46, 0
16, 52200, Note_on_c, 9, 44, 70
16, 52213, Control_c, 9, 11, 97
16, 52214, Note_on_c, 9, 44, 0
16, 52260, Note_on_c, 9, 46, 70
16, 52274, Control_c, 9, 11, 96
16, 52290, Note_on_c, 9, 46, 0
16, 52320, Note_on_c, 9, 44, 70
16, 52334, Note_on_c, 9, 44, 0
16, 52334, Control_c, 9, 11, 95
16, 52380, Note_on_c, 9, 46, 70
16, 52395, Control_c, 9, 11, 94
16, 52410, Note_on_c, 9, 46, 0
16, 52440, Note_on_c, 9, 44, 70
16, 52454, Note_on_c, 9, 44, 0
16, 52455, Control_c, 9, 11, 93
16, 52500, Note_on_c, 9, 46, 70
16, 52516, Control_c, 9, 11, 92
16, 52530, Note_on_c, 9, 46, 0
16, 52560, Note_on_c, 9, 44, 70
16, 52574, Note_on_c, 9, 44, 0
16, 52576, Control_c, 9, 11, 91
16, 52620, Note_on_c, 9, 46, 70
16, 52637, Control_c, 9, 11, 90
16, 52650, Note_on_c, 9, 46, 0
16, 52680, Note_on_c, 9, 44, 70
16, 52694, Note_on_c, 9, 44, 0
16, 52697, Control_c, 9, 11, 89
16, 52740, Note_on_c, 9, 46, 70
16, 52758, Control_c, 9, 11, 88
16, 52770, Note_on_c, 9, 46, 0
16, 52800, Note_on_c, 9, 44, 70
16, 52814, Note_on_c, 9, 44, 0
16, 52818, Control_c, 9, 11, 87
16, 52860, Note_on_c, 9, 46, 70
16, 52879, Control_c, 9, 11, 86
16, 52890, Note_on_c, 9, 46, 0
16, 52920, Note_on_c, 9, 44, 70
16, 52934, Note_on_c, 9, 44, 0
16, 52939, Control_c, 9, 11, 85
16, 52980, Note_on_c, 9, 46, 70
16, 52999, Control_c, 9, 11, 84
16, 53010, Note_on_c, 9, 46, 0
16, 53040, Note_on_c, 9, 44, 70
16, 53054, Note_on_c, 9, 44, 0
16, 53060, Control_c, 9, 11, 83
16, 53100, Note_on_c, 9, 46, 70
16, 53120, Control_c, 9, 11, 82
16, 53130, Note_on_c, 9, 46, 0
16, 53160, Note_on_c, 9, 44, 70
16, 53174, Note_on_c, 9, 44, 0
16, 53181, Control_c, 9, 11, 81
16, 53220, Note_on_c, 9, 46, 70
16, 53241, Control_c, 9, 11, 80
16, 53250, Note_on_c, 9, 46, 0
16, 53280, Note_on_c, 9, 44, 70
16, 53294, Note_on_c, 9, 44, 0
16, 53302, Control_c, 9, 11, 79
16, 53340, Note_on_c, 9, 46, 70
16, 53362, Control_c, 9, 11, 78
16, 53370, Note_on_c, 9, 46, 0
16, 53400, Note_on_c, 9, 44, 70
16, 53414, Note_on_c, 9, 44, 0
16, 53423, Control_c, 9, 11, 77
16, 53460, Note_on_c, 9, 46, 70
16, 53483, Control_c, 9, 11, 76
16, 53490, Note_on_c, 9, 46, 0
16, 53520, Note_on_c, 9, 44, 70
16, 53534, Note_on_c, 9, 44, 0
16, 53544, Control_c, 9, 11, 75
16, 53580, Note_on_c, 9, 46, 70
16, 53604, Control_c, 9, 11, 74
16, 53610, Note_on_c, 9, 46, 0
16, 53640, Note_on_c, 9, 44, 70
16, 53654, Note_on_c, 9, 44, 0
16, 53665, Control_c, 9, 11, 73
16, 53700, Note_on_c, 9, 46, 70
16, 53725, Control_c, 9, 11, 72
16, 53730, Note_on_c, 9, 46, 0
16, 53760, Note_on_c, 9, 44, 70
16, 53774, Note_on_c, 9, 44, 0
16, 53786, Control_c, 9, 11, 71
16, 53820, Note_on_c, 9, 46, 70
16, 53846, Control_c, 9, 11, 70
16, 53850, Note_on_c, 9, 46, 0
16, 53880, Note_on_c, 9, 44, 70
16, 53894, Note_on_c, 9, 44, 0
16, 53906, Control_c, 9, 11, 69
16, 53940, Note_on_c, 9, 46, 70
16, 53967, Control_c, 9, 11, 68
16, 53970, Note_on_c, 9, 46, 0
16, 54000, Note_on_c, 9, 44, 70
16, 54014, Note_on_c, 9, 44, 0
16, 54027, Control_c, 9, 11, 67
16, 54060, Note_on_c, 9, 46, 70
16, 54088, Control_c, 9, 11, 66
16, 54090, Note_on_c, 9, 46, 0
16, 54120, Note_on_c, 9, 44, 70
16, 54134, Note_on_c, 9, 44, 0
16, 54148, Control_c, 9, 11, 65
16, 54180, Note_on_c, 9, 46, 70
16, 54209, Control_c, 9, 11, 64
16, 54210, Note_on_c, 9, 46, 0
16, 54240, Note_on_c, 9, 44, 70
16, 54254, Note_on_c, 9, 44, 0
16, 54269, Control_c, 9, 11, 63
16, 54300, Note_on_c, 9, 46, 70
16, 54330, Note_on_c, 9, 46, 0
16, 54330, Control_c, 9, 11, 62
16, 54360, Note_on_c, 9, 44, 70
16, 54374, Note_on_c, 9, 44, 0
16, 54390, Control_c, 9, 11, 61
16, 54420, Note_on_c, 9, 46, 70
16, 54450, Note_on_c, 9, 46, 0
16, 54451, Control_c, 9, 11, 60
16, 54480, Note_on_c, 9, 44, 70
16, 54494, Note_on_c, 9, 44, 0
16, 54511, Control_c, 9, 11, 59
16, 54540, Note_on_c, 9, 46, 70
16, 54570, Note_on_c, 9, 46, 0
16, 54572, Control_c, 9, 11, 58
16, 54600, Note_on_c, 9, 44, 70
16, 54614, Note_on_c, 9, 44, 0
16, 54632, Control_c, 9, 11, 57
16, 54660, Note_on_c, 9, 46, 70
16, 54690, Note_on_c, 9, 46, 0
16, 54692, Control_c, 9, 11, 56
16, 54720, Note_on_c, 9, 44, 70
16, 54734, Note_on_c, 9, 44, 0
16, 54753, Control_c, 9, 11, 55
16, 54780, Note_on_c, 9, 46, 70
16, 54810, Note_on_c, 9, 46, 0
16, 54813, Control_c, 9, 11, 54
16, 54840, Note_on_c, 9, 44, 70
16, 54854, Note_on_c, 9, 44, 0
16, 54874, Control_c, 9, 11, 53
16, 54900, Note_on_c, 9, 46, 70
16, 54930, Note_on_c, 9, 46, 0
16, 54934, Control_c, 9, 11, 52
16, 54960, Note_on_c, 9, 44, 70
16, 54974, Note_on_c, 9, 44, 0
16, 54995, Control_c, 9, 11, 51
16, 55020, Note_on_c, 9, 46, 70
16, 55050, Note_on_c, 9, 46, 0
16, 55055, Control_c, 9, 11, 50
16, 55080, Note_on_c, 9, 44, 70
16, 55094, Note_on_c, 9, 44, 0
16, 55116, Control_c, 9, 11, 49
16, 55140, Note_on_c, 9, 46, 70
16, 55170, Note_on_c, 9, 46, 0
16, 55176, Control_c, 9, 11, 48
16, 55200, Note_on_c, 9, 44, 70
16, 55214, Note_on_c, 9, 44, 0
16, 55237, Control_c, 9, 11, 47
16, 55260, Note_on_c, 9, 46, 70
16, 55290, Note_on_c, 9, 46, 0
16, 55297, Control_c, 9, 11, 46
16, 55320, Note_on_c, 9, 44, 70
16, 55334, Note_on_c, 9, 44, 0
16, 55358, Control_c, 9, 11, 45
16, 55380, Note_on_c, 9, 46, 70
16, 55410, Note_on_c, 9, 46, 0
16, 55418, Control_c, 9, 11, 44
16, 55440, Note_on_c, 9, 44, 70
16, 55454, Note_on_c, 9, 44, 0
16, 55479, Control_c, 9, 11, 43
16, 55500, Note_on_c, 9, 46, 70
16, 55530, Note_on_c, 9, 46, 0
16, 55539, Control_c, 9, 11, 42
16, 55560, Note_on_c, 9, 44, 70
16, 55574, Note_on_c, 9, 44, 0
16, 55599, Control_c, 9, 11, 41
16, 55620, Note_on_c, 9, 46, 70
16, 55650, Note_on_c, 9, 46, 0
16, 55660, Control_c, 9, 11, 40
16, 55680, Note_on_c, 9, 44, 70
16, 55694, Note_on_c, 9, 44, 0
16, 55720, Control_c, 9, 11, 39
16, 55740, Note_on_c, 9, 46, 70
16, 55770, Note_on_c, 9, 46, 0
16, 55781, Control_c, 9, 11, 38
16, 55800, Note_on_c, 9, 44, 70
16, 55814, Note_on_c, 9, 44, 0
16, 55841, Control_c, 9, 11, 37
16, 55860, Note_on_c, 9, 46, 70
16, 55890, Note_on_c, 9, 46, 0
16, 55902, Control_c, 9, 11, 36
16, 55920, Note_on_c, 9, 44, 70
16, 55934, Note_on_c, 9, 44, 0
16, 55962, Control_c, 9, 11, 35
16, 55980, Note_on_c, 9, 46, 70
16, 56010, Note_on_c, 9, 46, 0
16, 56023, Control_c, 9, 11, 34
16, 56040, Note_on_c, 9, 44, 70
16, 56054, Note_on_c, 9, 44, 0
16, 56083, Control_c, 9, 11, 33
16, 56100, Note_on_c, 9, 46, 70
16, 56130, Note_on_c, 9, 46, 0
16, 56144, Control_c, 9, 11, 32
16, 56160, Note_on_c, 9, 44, 70
16, 56174, Note_on_c, 9, 44, 0
16, 56204, Control_c, 9, 11, 31
16, 56220, Note_on_c, 9, 46, 70
16, 56250, Note_on_c, 9, 46, 0
16, 56265, Control_c, 9, 11, 30
16, 56280, Note_on_c, 9, 44, 70
16, 56294, Note_on_c, 9, 44, 0
16, 56325, Control_c, 9, 11, 29
16, 56340, Note_on_c, 9, 46, 70
16, 56370, Note_on_c, 9, 46, 0
16, 56385, Control_c, 9, 11, 28
16, 56400, Note_on_c, 9, 44, 70
16, 56414, Note_on_c, 9, 44, 0
16, 56446, Control_c, 9, 11, 27
16, 56460, Note_on_c, 9, 46, 70
16, 56490, Note_on_c, 9, 46, 0
16, 56506, Control_c, 9, 11, 26
16, 56520, Note_on_c, 9, 44, 70
16, 56534, Note_on_c, 9, 44, 0
16, 56567, Control_c, 9, 11, 25
16, 56580, Note_on_c, 9, 46, 70
16, 56610, Note_on_c, 9, 46, 0
16, 56627, Control_c, 9, 11, 24
16, 56640, Note_on_c, 9, 44, 70
16, 56654, Note_on_c, 9, 44, 0
16, 56688, Control_c, 9, 11, 23
16, 56700, Note_on_c, 9, 46, 70
16, 56730, Note_on_c, 9, 46, 0
16, 56748, Control_c, 9, 11, 22
16, 56760, Note_on_c, 9, 44, 70
16, 56774, Note_on_c, 9, 44, 0
16, 56809, Control_c, 9, 11, 21
16, 56820, Note_on_c, 9, 46, 70
16, 56850, Note_on_c, 9, 46, 0
16, 56869, Control_c, 9, 11, 20
16, 56880, Note_on_c, 9, 44, 70
16, 56894, Note_on_c, 9, 44, 0
16, 56930, Control_c, 9, 11, 19
16, 56940, Note_on_c, 9, 46, 70
16, 56970, Note_on_c, 9, 46, 0
16, 56990, Control_c, 9, 11, 18
16, 57000, Note_on_c, 9, 44, 70
16, 57014, Note_on_c, 9, 44, 0
16, 57051, Control_c, 9, 11, 17
16, 57060, Note_on_c, 9, 46, 70
16, 57090, Note_on_c, 9, 46, 0
16, 57111, Control_c, 9, 11, 16
16, 57120, Note_on_c, 9, 44, 70
16, 57134, Note_on_c, 9, 44, 0
16, 57172, Control_c, 9, 11, 15
16, 57180, Note_on_c, 9, 46, 70
16, 57210, Note_on_c, 9, 46, 0
16, 57232, Control_c, 9, 11, 14
16, 57240, Note_on_c, 9, 44, 70
16, 57254, Note_on_c, 9, 44, 0
16, 57292, Control_c, 9, 11, 13
16, 57300, Note_on_c, 9, 46, 70
16, 57330, Note_on_c, 9, 46, 0
16, 57353, Control_c, 9, 11, 12
16, 57360, Note_on_c, 9, 44, 70
16, 57374, Note_on_c, 9, 44, 0
16, 57413, Control_c, 9, 11, 11
16, 57420, Note_on_c, 9, 46, 70
16, 57450, Note_on_c, 9, 46, 0
16, 57474, Control_c, 9, 11, 10
16, 57480, Note_on_c, 9, 44, 70
16, 57494, Note_on_c, 9, 44, 0
16, 57534, Control_c, 9, 11, 9
16, 57540, Note_on_c, 9, 46, 70
16, 57570, Note_on_c, 9, 46, 0
16, 57595, Control_c, 9, 11, 8
16, 57600, Note_on_c, 9, 44, 70
16, 57614, Note_on_c, 9, 44, 0
16, 57655, Control_c, 9, 11, 7
16, 57660, Note_on_c, 9, 46, 70
16, 57690, Note_on_c, 9, 46, 0
16, 57716, Control_c, 9, 11, 6
16, 57720, Note_on_c, 9, 44, 70
16, 57734, Note_on_c, 9, 44, 0
16, 57776, Control_c, 9, 11, 5
16, 57780, Note_on_c, 9, 46, 70
16, 57810, Note_on_c, 9, 46, 0
16, 57837, Control_c, 9, 11, 4
16, 57840, Note_on_c, 9, 44, 70
16, 57854, Note_on_c, 9, 44, 0
16, 57897, Control_c, 9, 11, 3
16, 57900, Note_on_c, 9, 46, 70
16, 57930, Note_on_c, 9, 46, 0
16, 57958, Control_c, 9, 11, 2
16, 57960, Note_on_c, 9, 44, 70
16, 57974, Note_on_c, 9, 44, 0
16, 58018, Control_c, 9, 11, 1
16, 58020, Note_on_c, 9, 46, 70
16, 58050, Note_on_c, 9, 46, 0
16, 58079, Control_c, 9, 11, 0
16, 58079, End_track
17, 0, Start_track
17, 0, MIDI_port, 0
17, 0, Title_t, "crash"
17, 0, Control_c, 9, 7, 110
17, 0, Control_c, 9, 0, 1
17, 480, Note_on_c, 9, 57, 80
17, 959, Note_on_c, 9, 57, 0
17, 4320, Note_on_c, 9, 57, 80
17, 4799, Note_on_c, 9, 57, 0
17, 7680, Note_on_c, 9, 57, 80
17, 8159, Note_on_c, 9, 57, 0
17, 8160, Note_on_c, 9, 57, 80
17, 8639, Note_on_c, 9, 57, 0
17, 12000, Note_on_c, 9, 57, 80
17, 12479, Note_on_c, 9, 57, 0
17, 15840, Note_on_c, 9, 57, 80
17, 16319, Note_on_c, 9, 57, 0
17, 19680, Note_on_c, 9, 57, 80
17, 20159, Note_on_c, 9, 57, 0
17, 20640, Note_on_c, 9, 57, 80
17, 21119, Note_on_c, 9, 57, 0
17, 24480, Note_on_c, 9, 57, 80
17, 24959, Note_on_c, 9, 57, 0
17, 28320, Note_on_c, 9, 57, 80
17, 28799, Note_on_c, 9, 57, 0
17, 30240, Note_on_c, 9, 57, 80
17, 30719, Note_on_c, 9, 57, 0
17, 32160, Note_on_c, 9, 57, 80
17, 32639, Note_on_c, 9, 57, 0
17, 33600, Note_on_c, 9, 57, 80
17, 33839, Note_on_c, 9, 57, 0
17, 33840, Note_on_c, 9, 57, 80
17, 34079, Note_on_c, 9, 57, 0
17, 34080, Note_on_c, 9, 57, 80
17, 34199, Note_on_c, 9, 57, 0
17, 34200, Note_on_c, 9, 57, 80
17, 34319, Note_on_c, 9, 57, 0
17, 34320, Note_on_c, 9, 57, 80
17, 34439, Note_on_c, 9, 57, 0
17, 34440, Note_on_c, 9, 57, 80
17, 34559, Note_on_c, 9, 57, 0
17, 34560, Note_on_c, 9, 57, 80
17, 35039, Note_on_c, 9, 57, 0
17, 38400, Note_on_c, 9, 57, 80
17, 38879, Note_on_c, 9, 57, 0
17, 40320, Note_on_c, 9, 57, 80
17, 40799, Note_on_c, 9, 57, 0
17, 42240, Note_on_c, 9, 57, 80
17, 42359, Note_on_c, 9, 57, 0
17, 42420, Note_on_c, 9, 57, 80
17, 42539, Note_on_c, 9, 57, 0
17, 42600, Note_on_c, 9, 57, 80
17, 42719, Note_on_c, 9, 57, 0
17, 42720, Note_on_c, 9, 57, 80
17, 43199, Note_on_c, 9, 57, 0
17, 46560, Note_on_c, 9, 57, 80
17, 47039, Note_on_c, 9, 57, 0
17, 50400, Control_c, 9, 11, 127
17, 50400, Note_on_c, 9, 57, 80
17, 50460, Control_c, 9, 11, 126
17, 50520, Control_c, 9, 11, 125
17, 50581, Control_c, 9, 11, 124
17, 50641, Control_c, 9, 11, 123
17, 50702, Control_c, 9, 11, 122
17, 50762, Control_c, 9, 11, 121
17, 50823, Control_c, 9, 11, 120
17, 50879, Note_on_c, 9, 57, 0
17, 50883, Control_c, 9, 11, 119
17, 50944, Control_c, 9, 11, 118
17, 51004, Control_c, 9, 11, 117
17, 51065, Control_c, 9, 11, 116
17, 51125, Control_c, 9, 11, 115
17, 51186, Control_c, 9, 11, 114
17, 51246, Control_c, 9, 11, 113
17, 51306, Control_c, 9, 11, 112
17, 51367, Control_c, 9, 11, 111
17, 51427, Control_c, 9, 11, 110
17, 51488, Control_c, 9, 11, 109
17, 51548, Control_c, 9, 11, 108
17, 51609, Control_c, 9, 11, 107
17, 51669, Control_c, 9, 11, 106
17, 51730, Control_c, 9, 11, 105
17, 51790, Control_c, 9, 11, 104
17, 51851, Control_c, 9, 11, 103
17, 51911, Control_c, 9, 11, 102
17, 51972, Control_c, 9, 11, 101
17, 52032, Control_c, 9, 11, 100
17, 52093, Control_c, 9, 11, 99
17, 52153, Control_c, 9, 11, 98
17, 52213, Control_c, 9, 11, 97
17, 52274, Control_c, 9, 11, 96
17, 52334, Control_c, 9, 11, 95
17, 52395, Control_c, 9, 11, 94
17, 52455, Control_c, 9, 11, 93
17, 52516, Control_c, 9, 11, 92
17, 52576, Control_c, 9, 11, 91
17, 52637, Control_c, 9, 11, 90
17, 52697, Control_c, 9, 11, 89
17, 52758, Control_c, 9, 11, 88
17, 52818, Control_c, 9, 11, 87
17, 52879, Control_c, 9, 11, 86
17, 52939, Control_c, 9, 11, 85
17, 52999, Control_c, 9, 11, 84
17, 53060, Control_c, 9, 11, 83
17, 53120, Control_c, 9, 11, 82
17, 53181, Control_c, 9, 11, 81
17, 53241, Control_c, 9, 11, 80
17, 53302, Control_c, 9, 11, 79
17, 53362, Control_c, 9, 11, 78
17, 53423, Control_c, 9, 11, 77
17, 53483, Control_c, 9, 11, 76
17, 53544, Control_c, 9, 11, 75
17, 53604, Control_c, 9, 11, 74
17, 53665, Control_c, 9, 11, 73
17, 53725, Control_c, 9, 11, 72
17, 53786, Control_c, 9, 11, 71
17, 53846, Control_c, 9, 11, 70
17, 53906, Control_c, 9, 11, 69
17, 53967, Control_c, 9, 11, 68
17, 54027, Control_c, 9, 11, 67
17, 54088, Control_c, 9, 11, 66
17, 54148, Control_c, 9, 11, 65
17, 54209, Control_c, 9, 11, 64
17, 54240, Note_on_c, 9, 57, 80
17, 54269, Control_c, 9, 11, 63
17, 54330, Control_c, 9, 11, 62
17, 54390, Control_c, 9, 11, 61
17, 54451, Control_c, 9, 11, 60
17, 54511, Control_c, 9, 11, 59
17, 54572, Control_c, 9, 11, 58
17, 54632, Control_c, 9, 11, 57
17, 54692, Control_c, 9, 11, 56
17, 54753, Control_c, 9, 11, 55
17, 54813, Control_c, 9, 11, 54
17, 54874, Control_c, 9, 11, 53
17, 54899, Note_on_c, 9, 57, 0
17, 54934, Control_c, 9, 11, 52
17, 54995, Control_c, 9, 11, 51
17, 55055, Control_c, 9, 11, 50
17, 55116, Control_c, 9, 11, 49
17, 55176, Control_c, 9, 11, 48
17, 55237, Control_c, 9, 11, 47
17, 55297, Control_c, 9, 11, 46
17, 55358, Control_c, 9, 11, 45
17, 55418, Control_c, 9, 11, 44
17, 55479, Control_c, 9, 11, 43
17, 55539, Control_c, 9, 11, 42
17, 55599, Control_c, 9, 11, 41
17, 55660, Control_c, 9, 11, 40
17, 55720, Control_c, 9, 11, 39
17, 55781, Control_c, 9, 11, 38
17, 55841, Control_c, 9, 11, 37
17, 55902, Control_c, 9, 11, 36
17, 55962, Control_c, 9, 11, 35
17, 56023, Control_c, 9, 11, 34
17, 56083, Control_c, 9, 11, 33
17, 56144, Control_c, 9, 11, 32
17, 56204, Control_c, 9, 11, 31
17, 56265, Control_c, 9, 11, 30
17, 56325, Control_c, 9, 11, 29
17, 56385, Control_c, 9, 11, 28
17, 56446, Control_c, 9, 11, 27
17, 56506, Control_c, 9, 11, 26
17, 56567, Control_c, 9, 11, 25
17, 56627, Control_c, 9, 11, 24
17, 56688, Control_c, 9, 11, 23
17, 56748, Control_c, 9, 11, 22
17, 56809, Control_c, 9, 11, 21
17, 56869, Control_c, 9, 11, 20
17, 56930, Control_c, 9, 11, 19
17, 56990, Control_c, 9, 11, 18
17, 57051, Control_c, 9, 11, 17
17, 57111, Control_c, 9, 11, 16
17, 57172, Control_c, 9, 11, 15
17, 57232, Control_c, 9, 11, 14
17, 57292, Control_c, 9, 11, 13
17, 57353, Control_c, 9, 11, 12
17, 57413, Control_c, 9, 11, 11
17, 57474, Control_c, 9, 11, 10
17, 57534, Control_c, 9, 11, 9
17, 57595, Control_c, 9, 11, 8
17, 57655, Control_c, 9, 11, 7
17, 57716, Control_c, 9, 11, 6
17, 57776, Control_c, 9, 11, 5
17, 57837, Control_c, 9, 11, 4
17, 57897, Control_c, 9, 11, 3
17, 57958, Control_c, 9, 11, 2
17, 58018, Control_c, 9, 11, 1
17, 58079, Control_c, 9, 11, 0
17, 58079, End_track
18, 0, Start_track
18, 0, MIDI_port, 0
18, 0, Title_t, "rev"
18, 0, Control_c, 8, 0, 0
18, 0, Program_c, 8, 119
18, 0, Control_c, 8, 7, 90
18, 0, Control_c, 8, 10, 64
18, 30, Control_c, 8, 91, 127
18, 30, Control_c, 8, 93, 0
18, 30, Control_c, 8, 11, 127
18, 11650, Note_on_c, 8, 60, 100
18, 12129, Note_on_c, 8, 60, 0
18, 20290, Note_on_c, 8, 60, 100
18, 20769, Note_on_c, 8, 60, 0
18, 29890, Note_on_c, 8, 60, 100
18, 30369, Note_on_c, 8, 60, 0
18, 34210, Note_on_c, 8, 60, 100
18, 34689, Note_on_c, 8, 60, 0
18, 42370, Note_on_c, 8, 60, 100
18, 42849, Note_on_c, 8, 60, 0
18, 42849, End_track
19, 0, Start_track
19, 0, MIDI_port, 0
19, 0, Title_t, "splash"
19, 0, Control_c, 9, 7, 100
19, 0, Control_c, 9, 91, 32
19, 0, Control_c, 9, 93, 10
19, 0, Control_c, 9, 11, 127
19, 480, Note_on_c, 9, 55, 70
19, 494, Note_on_c, 9, 55, 0
19, 1440, Note_on_c, 9, 55, 70
19, 1454, Note_on_c, 9, 55, 0
19, 2400, Note_on_c, 9, 55, 70
19, 2414, Note_on_c, 9, 55, 0
19, 3360, Note_on_c, 9, 55, 70
19, 3374, Note_on_c, 9, 55, 0
19, 4320, Note_on_c, 9, 55, 70
19, 4334, Note_on_c, 9, 55, 0
19, 5280, Note_on_c, 9, 55, 70
19, 5294, Note_on_c, 9, 55, 0
19, 6240, Note_on_c, 9, 55, 70
19, 6254, Note_on_c, 9, 55, 0
19, 7200, Note_on_c, 9, 55, 70
19, 7214, Note_on_c, 9, 55, 0
19, 8160, Note_on_c, 9, 55, 70
19, 8174, Note_on_c, 9, 55, 0
19, 11760, Note_on_c, 9, 55, 40
19, 11819, Note_on_c, 9, 55, 0
19, 11820, Note_on_c, 9, 55, 47
19, 11879, Note_on_c, 9, 55, 0
19, 11880, Note_on_c, 9, 55, 55
19, 11939, Note_on_c, 9, 55, 0
19, 11940, Note_on_c, 9, 55, 62
19, 11999, Note_on_c, 9, 55, 0
19, 12000, Note_on_c, 9, 55, 70
19, 12014, Note_on_c, 9, 55, 0
19, 15840, Note_on_c, 9, 55, 70
19, 15854, Note_on_c, 9, 55, 0
19, 16800, Note_on_c, 9, 55, 70
19, 16814, Note_on_c, 9, 55, 0
19, 17760, Note_on_c, 9, 55, 70
19, 17774, Note_on_c, 9, 55, 0
19, 18720, Note_on_c, 9, 55, 70
19, 18734, Note_on_c, 9, 55, 0
19, 19680, Note_on_c, 9, 55, 70
19, 19694, Note_on_c, 9, 55, 0
19, 20640, Note_on_c, 9, 55, 70
19, 20654, Note_on_c, 9, 55, 0
19, 24480, Note_on_c, 9, 55, 70
19, 24494, Note_on_c, 9, 55, 0
19, 25440, Note_on_c, 9, 55, 70
19, 25454, Note_on_c, 9, 55, 0
19, 26400, Note_on_c, 9, 55, 70
19, 26414, Note_on_c, 9, 55, 0
19, 27360, Note_on_c, 9, 55, 70
19, 27374, Note_on_c, 9, 55, 0
19, 28320, Note_on_c, 9, 55, 70
19, 28334, Note_on_c, 9, 55, 0
19, 29280, Note_on_c, 9, 55, 70
19, 29294, Note_on_c, 9, 55, 0
19, 30240, Note_on_c, 9, 55, 70
19, 30254, Note_on_c, 9, 55, 0
19, 32160, Note_on_c, 9, 55, 70
19, 32174, Note_on_c, 9, 55, 0
19, 34560, Note_on_c, 9, 55, 70
19, 34574, Note_on_c, 9, 55, 0
19, 35520, Note_on_c, 9, 55, 70
19, 35534, Note_on_c, 9, 55, 0
19, 36480, Note_on_c, 9, 55, 70
19, 36494, Note_on_c, 9, 55, 0
19, 37440, Note_on_c, 9, 55, 70
19, 37454, Note_on_c, 9, 55, 0
19, 38400, Note_on_c, 9, 55, 70
19, 38414, Note_on_c, 9, 55, 0
19, 42720, Note_on_c, 9, 55, 70
19, 42734, Note_on_c, 9, 55, 0
19, 43680, Note_on_c, 9, 55, 70
19, 43694, Note_on_c, 9, 55, 0
19, 44640, Note_on_c, 9, 55, 70
19, 44654, Note_on_c, 9, 55, 0
19, 45600, Note_on_c, 9, 55, 70
19, 45614, Note_on_c, 9, 55, 0
19, 46560, Note_on_c, 9, 55, 70
19, 46574, Note_on_c, 9, 55, 0
19, 47520, Note_on_c, 9, 55, 70
19, 47534, Note_on_c, 9, 55, 0
19, 48480, Note_on_c, 9, 55, 70
19, 48494, Note_on_c, 9, 55, 0
19, 49440, Note_on_c, 9, 55, 70
19, 49454, Note_on_c, 9, 55, 0
19, 50400, Control_c, 9, 11, 127
19, 50400, Note_on_c, 9, 55, 70
19, 50414, Note_on_c, 9, 55, 0
19, 50460, Control_c, 9, 11, 126
19, 50520, Control_c, 9, 11, 125
19, 50581, Control_c, 9, 11, 124
19, 50641, Control_c, 9, 11, 123
19, 50702, Control_c, 9, 11, 122
19, 50762, Control_c, 9, 11, 121
19, 50823, Control_c, 9, 11, 120
19, 50883, Control_c, 9, 11, 119
19, 50944, Control_c, 9, 11, 118
19, 51004, Control_c, 9, 11, 117
19, 51065, Control_c, 9, 11, 116
19, 51125, Control_c, 9, 11, 115
19, 51186, Control_c, 9, 11, 114
19, 51246, Control_c, 9, 11, 113
19, 51306, Control_c, 9, 11, 112
19, 51360, Note_on_c, 9, 55, 70
19, 51367, Control_c, 9, 11, 111
19, 51374, Note_on_c, 9, 55, 0
19, 51427, Control_c, 9, 11, 110
19, 51488, Control_c, 9, 11, 109
19, 51548, Control_c, 9, 11, 108
19, 51609, Control_c, 9, 11, 107
19, 51669, Control_c, 9, 11, 106
19, 51730, Control_c, 9, 11, 105
19, 51790, Control_c, 9, 11, 104
19, 51851, Control_c, 9, 11, 103
19, 51911, Control_c, 9, 11, 102
19, 51972, Control_c, 9, 11, 101
19, 52032, Control_c, 9, 11, 100
19, 52093, Control_c, 9, 11, 99
19, 52153, Control_c, 9, 11, 98
19, 52213, Control_c, 9, 11, 97
19, 52274, Control_c, 9, 11, 96
19, 52320, Note_on_c, 9, 55, 70
19, 52334, Note_on_c, 9, 55, 0
19, 52334, Control_c, 9, 11, 95
19, 52395, Control_c, 9, 11, 94
19, 52455, Control_c, 9, 11, 93
19, 52516, Control_c, 9, 11, 92
19, 52576, Control_c, 9, 11, 91
19, 52637, Control_c, 9, 11, 90
19, 52697, Control_c, 9, 11, 89
19, 52758, Control_c, 9, 11, 88
19, 52818, Control_c, 9, 11, 87
19, 52879, Control_c, 9, 11, 86
19, 52939, Control_c, 9, 11, 85
19, 52999, Control_c, 9, 11, 84
19, 53060, Control_c, 9, 11, 83
19, 53120, Control_c, 9, 11, 82
19, 53181, Control_c, 9, 11, 81
19, 53241, Control_c, 9, 11, 80
19, 53280, Note_on_c, 9, 55, 70
19, 53294, Note_on_c, 9, 55, 0
19, 53302, Control_c, 9, 11, 79
19, 53362, Control_c, 9, 11, 78
19, 53423, Control_c, 9, 11, 77
19, 53483, Control_c, 9, 11, 76
19, 53544, Control_c, 9, 11, 75
19, 53604, Control_c, 9, 11, 74
19, 53665, Control_c, 9, 11, 73
19, 53725, Control_c, 9, 11, 72
19, 53786, Control_c, 9, 11, 71
19, 53846, Control_c, 9, 11, 70
19, 53906, Control_c, 9, 11, 69
19, 53967, Control_c, 9, 11, 68
19, 54027, Control_c, 9, 11, 67
19, 54088, Control_c, 9, 11, 66
19, 54148, Control_c, 9, 11, 65
19, 54209, Control_c, 9, 11, 64
19, 54240, Note_on_c, 9, 55, 70
19, 54254, Note_on_c, 9, 55, 0
19, 54269, Control_c, 9, 11, 63
19, 54330, Control_c, 9, 11, 62
19, 54390, Control_c, 9, 11, 61
19, 54451, Control_c, 9, 11, 60
19, 54511, Control_c, 9, 11, 59
19, 54572, Control_c, 9, 11, 58
19, 54632, Control_c, 9, 11, 57
19, 54692, Control_c, 9, 11, 56
19, 54753, Control_c, 9, 11, 55
19, 54813, Control_c, 9, 11, 54
19, 54874, Control_c, 9, 11, 53
19, 54934, Control_c, 9, 11, 52
19, 54995, Control_c, 9, 11, 51
19, 55055, Control_c, 9, 11, 50
19, 55116, Control_c, 9, 11, 49
19, 55176, Control_c, 9, 11, 48
19, 55200, Note_on_c, 9, 55, 70
19, 55214, Note_on_c, 9, 55, 0
19, 55237, Control_c, 9, 11, 47
19, 55297, Control_c, 9, 11, 46
19, 55358, Control_c, 9, 11, 45
19, 55418, Control_c, 9, 11, 44
19, 55479, Control_c, 9, 11, 43
19, 55539, Control_c, 9, 11, 42
19, 55599, Control_c, 9, 11, 41
19, 55660, Control_c, 9, 11, 40
19, 55720, Control_c, 9, 11, 39
19, 55781, Control_c, 9, 11, 38
19, 55841, Control_c, 9, 11, 37
19, 55902, Control_c, 9, 11, 36
19, 55962, Control_c, 9, 11, 35
19, 56023, Control_c, 9, 11, 34
19, 56083, Control_c, 9, 11, 33
19, 56144, Control_c, 9, 11, 32
19, 56160, Note_on_c, 9, 55, 70
19, 56174, Note_on_c, 9, 55, 0
19, 56204, Control_c, 9, 11, 31
19, 56265, Control_c, 9, 11, 30
19, 56325, Control_c, 9, 11, 29
19, 56385, Control_c, 9, 11, 28
19, 56446, Control_c, 9, 11, 27
19, 56506, Control_c, 9, 11, 26
19, 56567, Control_c, 9, 11, 25
19, 56627, Control_c, 9, 11, 24
19, 56688, Control_c, 9, 11, 23
19, 56748, Control_c, 9, 11, 22
19, 56809, Control_c, 9, 11, 21
19, 56869, Control_c, 9, 11, 20
19, 56930, Control_c, 9, 11, 19
19, 56990, Control_c, 9, 11, 18
19, 57051, Control_c, 9, 11, 17
19, 57111, Control_c, 9, 11, 16
19, 57120, Note_on_c, 9, 55, 70
19, 57134, Note_on_c, 9, 55, 0
19, 57172, Control_c, 9, 11, 15
19, 57232, Control_c, 9, 11, 14
19, 57292, Control_c, 9, 11, 13
19, 57353, Control_c, 9, 11, 12
19, 57413, Control_c, 9, 11, 11
19, 57474, Control_c, 9, 11, 10
19, 57534, Control_c, 9, 11, 9
19, 57595, Control_c, 9, 11, 8
19, 57655, Control_c, 9, 11, 7
19, 57716, Control_c, 9, 11, 6
19, 57776, Control_c, 9, 11, 5
19, 57837, Control_c, 9, 11, 4
19, 57897, Control_c, 9, 11, 3
19, 57958, Control_c, 9, 11, 2
19, 58018, Control_c, 9, 11, 1
19, 58079, Control_c, 9, 11, 0
19, 58079, End_track
20, 0, Start_track
20, 0, MIDI_port, 0
20, 0, Title_t, "bass"
20, 0, Control_c, 2, 0, 0
20, 0, Program_c, 2, 39
20, 0, Control_c, 2, 7, 105
20, 0, Control_c, 2, 10, 64
20, 0, Control_c, 2, 91, 12
20, 0, Control_c, 2, 93, 18
20, 0, Control_c, 2, 11, 127
20, 480, Note_on_c, 2, 38, 100
20, 539, Note_on_c, 2, 38, 0
20, 600, Note_on_c, 2, 38, 100
20, 659, Note_on_c, 2, 38, 0
20, 690, Note_on_c, 2, 38, 100
20, 749, Note_on_c, 2, 38, 0
20, 780, Note_on_c, 2, 38, 100
20, 839, Note_on_c, 2, 38, 0
20, 900, Note_on_c, 2, 36, 100
20, 959, Note_on_c, 2, 36, 0
20, 960, Note_on_c, 2, 38, 100
20, 1019, Note_on_c, 2, 38, 0
20, 1080, Note_on_c, 2, 38, 100
20, 1139, Note_on_c, 2, 38, 0
20, 1170, Note_on_c, 2, 38, 100
20, 1229, Note_on_c, 2, 38, 0
20, 1260, Note_on_c, 2, 38, 100
20, 1319, Note_on_c, 2, 38, 0
20, 1380, Note_on_c, 2, 36, 100
20, 1439, Note_on_c, 2, 36, 0
20, 1440, Note_on_c, 2, 31, 100
20, 1499, Note_on_c, 2, 31, 0
20, 1560, Note_on_c, 2, 31, 100
20, 1619, Note_on_c, 2, 31, 0
20, 1650, Note_on_c, 2, 31, 100
20, 1709, Note_on_c, 2, 31, 0
20, 1740, Note_on_c, 2, 31, 100
20, 1799, Note_on_c, 2, 31, 0
20, 1860, Note_on_c, 2, 29, 100
20, 1919, Note_on_c, 2, 29, 0
20, 1920, Note_on_c, 2, 31, 100
20, 1979, Note_on_c, 2, 31, 0
20, 2040, Note_on_c, 2, 31, 100
20, 2099, Note_on_c, 2, 31, 0
20, 2130, Note_on_c, 2, 31, 100
20, 2189, Note_on_c, 2, 31, 0
20, 2220, Note_on_c, 2, 31, 100
20, 2279, Note_on_c, 2, 31, 0
20, 2340, Note_on_c, 2, 29, 100
20, 2399, Note_on_c, 2, 29, 0
20, 2400, Note_on_c, 2, 33, 100
20, 2459, Note_on_c, 2, 33, 0
20, 2520, Note_on_c, 2, 33, 100
20, 2579, Note_on_c, 2, 33, 0
20, 2610, Note_on_c, 2, 33, 100
20, 2669, Note_on_c, 2, 33, 0
20, 2700, Note_on_c, 2, 33, 100
20, 2759, Note_on_c, 2, 33, 0
20, 2820, Note_on_c, 2, 33, 100
20, 2879, Note_on_c, 2, 33, 0
20, 2880, Note_on_c, 2, 33, 100
20, 2939, Note_on_c, 2, 33, 0
20, 3000, Note_on_c, 2, 33, 100
20, 3059, Note_on_c, 2, 33, 0
20, 3090, Note_on_c, 2, 33, 100
20, 3149, Note_on_c, 2, 33, 0
20, 3180, Note_on_c, 2, 33, 100
20, 3239, Note_on_c, 2, 33, 0
20, 3300, Note_on_c, 2, 33, 100
20, 3359, Note_on_c, 2, 33, 0
20, 3360, Note_on_c, 2, 38, 100
20, 3419, Note_on_c, 2, 38, 0
20, 3480, Note_on_c, 2, 38, 100
20, 3539, Note_on_c, 2, 38, 0
20, 3570, Note_on_c, 2, 38, 100
20, 3629, Note_on_c, 2, 38, 0
20, 3660, Note_on_c, 2, 38, 100
20, 3719, Note_on_c, 2, 38, 0
20, 3780, Note_on_c, 2, 36, 100
20, 3839, Note_on_c, 2, 36, 0
20, 3840, Note_on_c, 2, 38, 100
20, 3899, Note_on_c, 2, 38, 0
20, 3960, Note_on_c, 2, 38, 100
20, 4019, Note_on_c, 2, 38, 0
20, 4050, Note_on_c, 2, 38, 100
20, 4109, Note_on_c, 2, 38, 0
20, 4140, Note_on_c, 2, 38, 100
20, 4199, Note_on_c, 2, 38, 0
20, 4200, Note_on_c, 2, 36, 100
20, 4259, Note_on_c, 2, 36, 0
20, 4260, Note_on_c, 2, 33, 100
20, 4319, Note_on_c, 2, 33, 0
20, 4320, Note_on_c, 2, 38, 100
20, 4379, Note_on_c, 2, 38, 0
20, 4440, Note_on_c, 2, 38, 100
20, 4499, Note_on_c, 2, 38, 0
20, 4530, Note_on_c, 2, 38, 100
20, 4589, Note_on_c, 2, 38, 0
20, 4620, Note_on_c, 2, 38, 100
20, 4679, Note_on_c, 2, 38, 0
20, 4740, Note_on_c, 2, 36, 100
20, 4799, Note_on_c, 2, 36, 0
20, 4800, Note_on_c, 2, 38, 100
20, 4859, Note_on_c, 2, 38, 0
20, 4920, Note_on_c, 2, 38, 100
20, 4979, Note_on_c, 2, 38, 0
20, 5010, Note_on_c, 2, 38, 100
20, 5069, Note_on_c, 2, 38, 0
20, 5100, Note_on_c, 2, 38, 100
20, 5159, Note_on_c, 2, 38, 0
20, 5220, Note_on_c, 2, 36, 100
20, 5279, Note_on_c, 2, 36, 0
20, 5280, Note_on_c, 2, 31, 100
20, 5339, Note_on_c, 2, 31, 0
20, 5400, Note_on_c, 2, 31, 100
20, 5459, Note_on_c, 2, 31, 0
20, 5490, Note_on_c, 2, 31, 100
20, 5549, Note_on_c, 2, 31, 0
20, 5580, Note_on_c, 2, 31, 100
20, 5639, Note_on_c, 2, 31, 0
20, 5700, Note_on_c, 2, 29, 100
20, 5759, Note_on_c, 2, 29, 0
20, 5760, Note_on_c, 2, 31, 100
20, 5819, Note_on_c, 2, 31, 0
20, 5880, Note_on_c, 2, 31, 100
20, 5939, Note_on_c, 2, 31, 0
20, 5970, Note_on_c, 2, 31, 100
20, 6029, Note_on_c, 2, 31, 0
20, 6060, Note_on_c, 2, 31, 100
20, 6119, Note_on_c, 2, 31, 0
20, 6180, Note_on_c, 2, 29, 100
20, 6239, Note_on_c, 2, 29, 0
20, 6240, Note_on_c, 2, 33, 100
20, 6299, Note_on_c, 2, 33, 0
20, 6360, Note_on_c, 2, 33, 100
20, 6419, Note_on_c, 2, 33, 0
20, 6450, Note_on_c, 2, 33, 100
20, 6509, Note_on_c, 2, 33, 0
20, 6540, Note_on_c, 2, 33, 100
20, 6599, Note_on_c, 2, 33, 0
20, 6660, Note_on_c, 2, 33, 100
20, 6719, Note_on_c, 2, 33, 0
20, 6720, Note_on_c, 2, 33, 100
20, 6779, Note_on_c, 2, 33, 0
20, 6840, Note_on_c, 2, 33, 100
20, 6899, Note_on_c, 2, 33, 0
20, 6930, Note_on_c, 2, 33, 100
20, 6989, Note_on_c, 2, 33, 0
20, 7020, Note_on_c, 2, 33, 100
20, 7079, Note_on_c, 2, 33, 0
20, 7140, Note_on_c, 2, 33, 100
20, 7199, Note_on_c, 2, 33, 0
20, 7200, Note_on_c, 2, 38, 100
20, 7259, Note_on_c, 2, 38, 0
20, 7320, Note_on_c, 2, 38, 100
20, 7379, Note_on_c, 2, 38, 0
20, 7410, Note_on_c, 2, 38, 100
20, 7469, Note_on_c, 2, 38, 0
20, 7500, Note_on_c, 2, 38, 100
20, 7559, Note_on_c, 2, 38, 0
20, 7620, Note_on_c, 2, 36, 100
20, 7679, Note_on_c, 2, 36, 0
20, 7680, Note_on_c, 2, 38, 100
20, 7739, Note_on_c, 2, 38, 0
20, 7800, Note_on_c, 2, 38, 100
20, 7859, Note_on_c, 2, 38, 0
20, 7890, Note_on_c, 2, 38, 100
20, 7949, Note_on_c, 2, 38, 0
20, 7980, Note_on_c, 2, 38, 100
20, 8039, Note_on_c, 2, 38, 0
20, 8040, Note_on_c, 2, 36, 100
20, 8099, Note_on_c, 2, 36, 0
20, 8100, Note_on_c, 2, 33, 100
20, 8159, Note_on_c, 2, 33, 0
20, 8160, Note_on_c, 2, 38, 100
20, 8219, Note_on_c, 2, 38, 0
20, 8280, Note_on_c, 2, 38, 100
20, 8339, Note_on_c, 2, 38, 0
20, 8370, Note_on_c, 2, 38, 100
20, 8429, Note_on_c, 2, 38, 0
20, 8460, Note_on_c, 2, 38, 100
20, 8519, Note_on_c, 2, 38, 0
20, 8580, Note_on_c, 2, 36, 100
20, 8639, Note_on_c, 2, 36, 0
20, 8640, Note_on_c, 2, 38, 100
20, 8699, Note_on_c, 2, 38, 0
20, 8760, Note_on_c, 2, 38, 100
20, 8819, Note_on_c, 2, 38, 0
20, 8850, Note_on_c, 2, 38, 100
20, 8909, Note_on_c, 2, 38, 0
20, 8940, Note_on_c, 2, 38, 100
20, 8999, Note_on_c, 2, 38, 0
20, 9060, Note_on_c, 2, 36, 100
20, 9119, Note_on_c, 2, 36, 0
20, 9120, Note_on_c, 2, 31, 100
20, 9179, Note_on_c, 2, 31, 0
20, 9240, Note_on_c, 2, 31, 100
20, 9299, Note_on_c, 2, 31, 0
20, 9330, Note_on_c, 2, 31, 100
20, 9389, Note_on_c, 2, 31, 0
20, 9420, Note_on_c, 2, 31, 100
20, 9479, Note_on_c, 2, 31, 0
20, 9540, Note_on_c, 2, 29, 100
20, 9599, Note_on_c, 2, 29, 0
20, 9600, Note_on_c, 2, 31, 100
20, 9659, Note_on_c, 2, 31, 0
20, 9720, Note_on_c, 2, 31, 100
20, 9779, Note_on_c, 2, 31, 0
20, 9810, Note_on_c, 2, 31, 100
20, 9869, Note_on_c, 2, 31, 0
20, 9900, Note_on_c, 2, 31, 100
20, 9959, Note_on_c, 2, 31, 0
20, 10020, Note_on_c, 2, 29, 100
20, 10079, Note_on_c, 2, 29, 0
20, 10080, Note_on_c, 2, 33, 100
20, 10139, Note_on_c, 2, 33, 0
20, 10200, Note_on_c, 2, 33, 100
20, 10259, Note_on_c, 2, 33, 0
20, 10290, Note_on_c, 2, 33, 100
20, 10349, Note_on_c, 2, 33, 0
20, 10380, Note_on_c, 2, 33, 100
20, 10439, Note_on_c, 2, 33, 0
20, 10500, Note_on_c, 2, 33, 100
20, 10559, Note_on_c, 2, 33, 0
20, 10560, Note_on_c, 2, 33, 100
20, 10619, Note_on_c, 2, 33, 0
20, 10680, Note_on_c, 2, 33, 100
20, 10739, Note_on_c, 2, 33, 0
20, 10770, Note_on_c, 2, 33, 100
20, 10829, Note_on_c, 2, 33, 0
20, 10860, Note_on_c, 2, 33, 100
20, 10919, Note_on_c, 2, 33, 0
20, 10980, Note_on_c, 2, 33, 100
20, 11039, Note_on_c, 2, 33, 0
20, 11040, Note_on_c, 2, 38, 100
20, 11099, Note_on_c, 2, 38, 0
20, 11160, Note_on_c, 2, 38, 100
20, 11219, Note_on_c, 2, 38, 0
20, 11250, Note_on_c, 2, 38, 100
20, 11309, Note_on_c, 2, 38, 0
20, 11340, Note_on_c, 2, 38, 100
20, 11399, Note_on_c, 2, 38, 0
20, 11460, Note_on_c, 2, 36, 100
20, 11519, Note_on_c, 2, 36, 0
20, 11520, Note_on_c, 2, 38, 100
20, 11579, Note_on_c, 2, 38, 0
20, 11640, Note_on_c, 2, 38, 100
20, 11699, Note_on_c, 2, 38, 0
20, 11730, Note_on_c, 2, 38, 100
20, 11789, Note_on_c, 2, 38, 0
20, 11820, Note_on_c, 2, 38, 100
20, 11879, Note_on_c, 2, 38, 0
20, 11880, Note_on_c, 2, 36, 100
20, 11939, Note_on_c, 2, 36, 0
20, 11940, Note_on_c, 2, 33, 100
20, 11999, Note_on_c, 2, 33, 0
20, 12000, Note_on_c, 2, 38, 100
20, 12059, Note_on_c, 2, 38, 0
20, 12120, Note_on_c, 2, 38, 100
20, 12179, Note_on_c, 2, 38, 0
20, 12210, Note_on_c, 2, 38, 100
20, 12269, Note_on_c, 2, 38, 0
20, 12300, Note_on_c, 2, 38, 100
20, 12359, Note_on_c, 2, 38, 0
20, 12420, Note_on_c, 2, 36, 100
20, 12479, Note_on_c, 2, 36, 0
20, 12480, Note_on_c, 2, 38, 100
20, 12539, Note_on_c, 2, 38, 0
20, 12600, Note_on_c, 2, 38, 100
20, 12659, Note_on_c, 2, 38, 0
20, 12690, Note_on_c, 2, 38, 100
20, 12749, Note_on_c, 2, 38, 0
20, 12780, Note_on_c, 2, 38, 100
20, 12839, Note_on_c, 2, 38, 0
20, 12900, Note_on_c, 2, 36, 100
20, 12959, Note_on_c, 2, 36, 0
20, 12960, Note_on_c, 2, 31, 100
20, 13019, Note_on_c, 2, 31, 0
20, 13080, Note_on_c, 2, 31, 100
20, 13139, Note_on_c, 2, 31, 0
20, 13170, Note_on_c, 2, 31, 100
20, 13229, Note_on_c, 2, 31, 0
20, 13260, Note_on_c, 2, 31, 100
20, 13319, Note_on_c, 2, 31, 0
20, 13380, Note_on_c, 2, 29, 100
20, 13439, Note_on_c, 2, 29, 0
20, 13440, Note_on_c, 2, 31, 100
20, 13499, Note_on_c, 2, 31, 0
20, 13560, Note_on_c, 2, 31, 100
20, 13619, Note_on_c, 2, 31, 0
20, 13650, Note_on_c, 2, 31, 100
20, 13709, Note_on_c, 2, 31, 0
20, 13740, Note_on_c, 2, 31, 100
20, 13799, Note_on_c, 2, 31, 0
20, 13860, Note_on_c, 2, 29, 100
20, 13919, Note_on_c, 2, 29, 0
20, 13920, Note_on_c, 2, 33, 100
20, 13979, Note_on_c, 2, 33, 0
20, 14040, Note_on_c, 2, 33, 100
20, 14099, Note_on_c, 2, 33, 0
20, 14130, Note_on_c, 2, 33, 100
20, 14189, Note_on_c, 2, 33, 0
20, 14220, Note_on_c, 2, 33, 100
20, 14279, Note_on_c, 2, 33, 0
20, 14340, Note_on_c, 2, 33, 100
20, 14399, Note_on_c, 2, 33, 0
20, 14400, Note_on_c, 2, 33, 100
20, 14459, Note_on_c, 2, 33, 0
20, 14520, Note_on_c, 2, 33, 100
20, 14579, Note_on_c, 2, 33, 0
20, 14610, Note_on_c, 2, 33, 100
20, 14669, Note_on_c, 2, 33, 0
20, 14700, Note_on_c, 2, 33, 100
20, 14759, Note_on_c, 2, 33, 0
20, 14820, Note_on_c, 2, 33, 100
20, 14879, Note_on_c, 2, 33, 0
20, 14880, Note_on_c, 2, 34, 100
20, 14939, Note_on_c, 2, 34, 0
20, 15000, Note_on_c, 2, 34, 100
20, 15059, Note_on_c, 2, 34, 0
20, 15090, Note_on_c, 2, 34, 100
20, 15149, Note_on_c, 2, 34, 0
20, 15180, Note_on_c, 2, 34, 100
20, 15239, Note_on_c, 2, 34, 0
20, 15300, Note_on_c, 2, 34, 100
20, 15359, Note_on_c, 2, 34, 0
20, 15360, Note_on_c, 2, 36, 100
20, 15419, Note_on_c, 2, 36, 0
20, 15480, Note_on_c, 2, 36, 100
20, 15539, Note_on_c, 2, 36, 0
20, 15570, Note_on_c, 2, 36, 100
20, 15629, Note_on_c, 2, 36, 0
20, 15660, Note_on_c, 2, 36, 100
20, 15719, Note_on_c, 2, 36, 0
20, 15780, Note_on_c, 2, 36, 100
20, 15839, Note_on_c, 2, 36, 0
20, 15840, Note_on_c, 2, 41, 100
20, 15899, Note_on_c, 2, 41, 0
20, 15960, Note_on_c, 2, 41, 100
20, 16019, Note_on_c, 2, 41, 0
20, 16050, Note_on_c, 2, 41, 100
20, 16109, Note_on_c, 2, 41, 0
20, 16140, Note_on_c, 2, 41, 100
20, 16199, Note_on_c, 2, 41, 0
20, 16260, Note_on_c, 2, 41, 100
20, 16319, Note_on_c, 2, 41, 0
20, 16320, Note_on_c, 2, 34, 100
20, 16379, Note_on_c, 2, 34, 0
20, 16440, Note_on_c, 2, 34, 100
20, 16499, Note_on_c, 2, 34, 0
20, 16530, Note_on_c, 2, 34, 100
20, 16589, Note_on_c, 2, 34, 0
20, 16620, Note_on_c, 2, 34, 100
20, 16679, Note_on_c, 2, 34, 0
20, 16740, Note_on_c, 2, 34, 100
20, 16799, Note_on_c, 2, 34, 0
20, 16800, Note_on_c, 2, 31, 100
20, 16859, Note_on_c, 2, 31, 0
20, 16920, Note_on_c, 2, 31, 100
20, 16979, Note_on_c, 2, 31, 0
20, 17010, Note_on_c, 2, 31, 100
20, 17069, Note_on_c, 2, 31, 0
20, 17100, Note_on_c, 2, 31, 100
20, 17159, Note_on_c, 2, 31, 0
20, 17220, Note_on_c, 2, 31, 100
20, 17279, Note_on_c, 2, 31, 0
20, 17280, Note_on_c, 2, 36, 100
20, 17339, Note_on_c, 2, 36, 0
20, 17400, Note_on_c, 2, 36, 100
20, 17459, Note_on_c, 2, 36, 0
20, 17490, Note_on_c, 2, 36, 100
20, 17549, Note_on_c, 2, 36, 0
20, 17580, Note_on_c, 2, 36, 100
20, 17639, Note_on_c, 2, 36, 0
20, 17700, Note_on_c, 2, 36, 100
20, 17759, Note_on_c, 2, 36, 0
20, 17760, Note_on_c, 2, 36, 100
20, 17819, Note_on_c, 2, 36, 0
20, 17880, Note_on_c, 2, 36, 100
20, 17939, Note_on_c, 2, 36, 0
20, 17970, Note_on_c, 2, 36, 100
20, 18029, Note_on_c, 2, 36, 0
20, 18060, Note_on_c, 2, 36, 100
20, 18119, Note_on_c, 2, 36, 0
20, 18180, Note_on_c, 2, 36, 100
20, 18239, Note_on_c, 2, 36, 0
20, 18240, Note_on_c, 2, 34, 100
20, 18299, Note_on_c, 2, 34, 0
20, 18360, Note_on_c, 2, 34, 100
20, 18419, Note_on_c, 2, 34, 0
20, 18450, Note_on_c, 2, 34, 100
20, 18509, Note_on_c, 2, 34, 0
20, 18540, Note_on_c, 2, 34, 100
20, 18599, Note_on_c, 2, 34, 0
20, 18660, Note_on_c, 2, 34, 100
20, 18719, Note_on_c, 2, 34, 0
20, 18720, Note_on_c, 2, 31, 100
20, 18779, Note_on_c, 2, 31, 0
20, 18840, Note_on_c, 2, 31, 100
20, 18899, Note_on_c, 2, 31, 0
20, 18930, Note_on_c, 2, 31, 100
20, 18989, Note_on_c, 2, 31, 0
20, 19020, Note_on_c, 2, 31, 100
20, 19079, Note_on_c, 2, 31, 0
20, 19140, Note_on_c, 2, 31, 100
20, 19199, Note_on_c, 2, 31, 0
20, 19200, Note_on_c, 2, 36, 100
20, 19259, Note_on_c, 2, 36, 0
20, 19320, Note_on_c, 2, 36, 100
20, 19379, Note_on_c, 2, 36, 0
20, 19410, Note_on_c, 2, 36, 100
20, 19469, Note_on_c, 2, 36, 0
20, 19500, Note_on_c, 2, 36, 100
20, 19559, Note_on_c, 2, 36, 0
20, 19620, Note_on_c, 2, 36, 100
20, 19679, Note_on_c, 2, 36, 0
20, 19680, Note_on_c, 2, 38, 100
20, 19739, Note_on_c, 2, 38, 0
20, 19800, Note_on_c, 2, 38, 100
20, 19859, Note_on_c, 2, 38, 0
20, 19890, Note_on_c, 2, 38, 100
20, 19949, Note_on_c, 2, 38, 0
20, 19980, Note_on_c, 2, 38, 100
20, 20039, Note_on_c, 2, 38, 0
20, 20100, Note_on_c, 2, 36, 100
20, 20159, Note_on_c, 2, 36, 0
20, 20160, Note_on_c, 2, 38, 100
20, 20219, Note_on_c, 2, 38, 0
20, 20280, Note_on_c, 2, 38, 100
20, 20339, Note_on_c, 2, 38, 0
20, 20370, Note_on_c, 2, 38, 100
20, 20429, Note_on_c, 2, 38, 0
20, 20460, Note_on_c, 2, 38, 100
20, 20519, Note_on_c, 2, 38, 0
20, 20520, Note_on_c, 2, 36, 100
20, 20579, Note_on_c, 2, 36, 0
20, 20580, Note_on_c, 2, 33, 100
20, 20639, Note_on_c, 2, 33, 0
20, 20640, Note_on_c, 2, 38, 100
20, 20699, Note_on_c, 2, 38, 0
20, 20760, Note_on_c, 2, 38, 100
20, 20819, Note_on_c, 2, 38, 0
20, 20850, Note_on_c, 2, 38, 100
20, 20909, Note_on_c, 2, 38, 0
20, 20940, Note_on_c, 2, 38, 100
20, 20999, Note_on_c, 2, 38, 0
20, 21060, Note_on_c, 2, 36, 100
20, 21119, Note_on_c, 2, 36, 0
20, 21120, Note_on_c, 2, 38, 100
20, 21179, Note_on_c, 2, 38, 0
20, 21240, Note_on_c, 2, 38, 100
20, 21299, Note_on_c, 2, 38, 0
20, 21330, Note_on_c, 2, 38, 100
20, 21389, Note_on_c, 2, 38, 0
20, 21420, Note_on_c, 2, 38, 100
20, 21479, Note_on_c, 2, 38, 0
20, 21540, Note_on_c, 2, 36, 100
20, 21599, Note_on_c, 2, 36, 0
20, 21600, Note_on_c, 2, 31, 100
20, 21659, Note_on_c, 2, 31, 0
20, 21720, Note_on_c, 2, 31, 100
20, 21779, Note_on_c, 2, 31, 0
20, 21810, Note_on_c, 2, 31, 100
20, 21869, Note_on_c, 2, 31, 0
20, 21900, Note_on_c, 2, 31, 100
20, 21959, Note_on_c, 2, 31, 0
20, 22020, Note_on_c, 2, 29, 100
20, 22079, Note_on_c, 2, 29, 0
20, 22080, Note_on_c, 2, 31, 100
20, 22139, Note_on_c, 2, 31, 0
20, 22200, Note_on_c, 2, 31, 100
20, 22259, Note_on_c, 2, 31, 0
20, 22290, Note_on_c, 2, 31, 100
20, 22349, Note_on_c, 2, 31, 0
20, 22380, Note_on_c, 2, 31, 100
20, 22439, Note_on_c, 2, 31, 0
20, 22500, Note_on_c, 2, 29, 100
20, 22559, Note_on_c, 2, 29, 0
20, 22560, Note_on_c, 2, 33, 100
20, 22619, Note_on_c, 2, 33, 0
20, 22680, Note_on_c, 2, 33, 100
20, 22739, Note_on_c, 2, 33, 0
20, 22770, Note_on_c, 2, 33, 100
20, 22829, Note_on_c, 2, 33, 0
20, 22860, Note_on_c, 2, 33, 100
20, 22919, Note_on_c, 2, 33, 0
20, 22980, Note_on_c, 2, 33, 100
20, 23039, Note_on_c, 2, 33, 0
20, 23040, Note_on_c, 2, 33, 100
20, 23099, Note_on_c, 2, 33, 0
20, 23160, Note_on_c, 2, 33, 100
20, 23219, Note_on_c, 2, 33, 0
20, 23250, Note_on_c, 2, 33, 100
20, 23309, Note_on_c, 2, 33, 0
20, 23340, Note_on_c, 2, 33, 100
20, 23399, Note_on_c, 2, 33, 0
20, 23460, Note_on_c, 2, 33, 100
20, 23519, Note_on_c, 2, 33, 0
20, 23520, Note_on_c, 2, 34, 100
20, 23579, Note_on_c, 2, 34, 0
20, 23640, Note_on_c, 2, 34, 100
20, 23699, Note_on_c, 2, 34, 0
20, 23730, Note_on_c, 2, 34, 100
20, 23789, Note_on_c, 2, 34, 0
20, 23820, Note_on_c, 2, 34, 100
20, 23879, Note_on_c, 2, 34, 0
20, 23940, Note_on_c, 2, 34, 100
20, 23999, Note_on_c, 2, 34, 0
20, 24000, Note_on_c, 2, 36, 100
20, 24059, Note_on_c, 2, 36, 0
20, 24120, Note_on_c, 2, 36, 100
20, 24179, Note_on_c, 2, 36, 0
20, 24210, Note_on_c, 2, 36, 100
20, 24269, Note_on_c, 2, 36, 0
20, 24300, Note_on_c, 2, 36, 100
20, 24359, Note_on_c, 2, 36, 0
20, 24420, Note_on_c, 2, 36, 100
20, 24479, Note_on_c, 2, 36, 0
20, 24480, Note_on_c, 2, 41, 100
20, 24539, Note_on_c, 2, 41, 0
20, 24600, Note_on_c, 2, 41, 100
20, 24659, Note_on_c, 2, 41, 0
20, 24690, Note_on_c, 2, 41, 100
20, 24749, Note_on_c, 2, 41, 0
20, 24780, Note_on_c, 2, 41, 100
20, 24839, Note_on_c, 2, 41, 0
20, 24900, Note_on_c, 2, 41, 100
20, 24959, Note_on_c, 2, 41, 0
20, 24960, Note_on_c, 2, 34, 100
20, 25019, Note_on_c, 2, 34, 0
20, 25080, Note_on_c, 2, 34, 100
20, 25139, Note_on_c, 2, 34, 0
20, 25170, Note_on_c, 2, 34, 100
20, 25229, Note_on_c, 2, 34, 0
20, 25260, Note_on_c, 2, 34, 100
20, 25319, Note_on_c, 2, 34, 0
20, 25380, Note_on_c, 2, 34, 100
20, 25439, Note_on_c, 2, 34, 0
20, 25440, Note_on_c, 2, 31, 100
20, 25499, Note_on_c, 2, 31, 0
20, 25560, Note_on_c, 2, 31, 100
20, 25619, Note_on_c, 2, 31, 0
20, 25650, Note_on_c, 2, 31, 100
20, 25709, Note_on_c, 2, 31, 0
20, 25740, Note_on_c, 2, 31, 100
20, 25799, Note_on_c, 2, 31, 0
20, 25860, Note_on_c, 2, 31, 100
20, 25919, Note_on_c, 2, 31, 0
20, 25920, Note_on_c, 2, 36, 100
20, 25979, Note_on_c, 2, 36, 0
20, 26040, Note_on_c, 2, 36, 100
20, 26099, Note_on_c, 2, 36, 0
20, 26130, Note_on_c, 2, 36, 100
20, 26189, Note_on_c, 2, 36, 0
20, 26220, Note_on_c, 2, 36, 100
20, 26279, Note_on_c, 2, 36, 0
20, 26340, Note_on_c, 2, 36, 100
20, 26399, Note_on_c, 2, 36, 0
20, 26400, Note_on_c, 2, 36, 100
20, 26459, Note_on_c, 2, 36, 0
20, 26520, Note_on_c, 2, 36, 100
20, 26579, Note_on_c, 2, 36, 0
20, 26610, Note_on_c, 2, 36, 100
20, 26669, Note_on_c, 2, 36, 0
20, 26700, Note_on_c, 2, 36, 100
20, 26759, Note_on_c, 2, 36, 0
20, 26820, Note_on_c, 2, 36, 100
20, 26879, Note_on_c, 2, 36, 0
20, 26880, Note_on_c, 2, 34, 100
20, 26939, Note_on_c, 2, 34, 0
20, 27000, Note_on_c, 2, 34, 100
20, 27059, Note_on_c, 2, 34, 0
20, 27090, Note_on_c, 2, 34, 100
20, 27149, Note_on_c, 2, 34, 0
20, 27180, Note_on_c, 2, 34, 100
20, 27239, Note_on_c, 2, 34, 0
20, 27300, Note_on_c, 2, 34, 100
20, 27359, Note_on_c, 2, 34, 0
20, 27360, Note_on_c, 2, 31, 100
20, 27419, Note_on_c, 2, 31, 0
20, 27480, Note_on_c, 2, 31, 100
20, 27539, Note_on_c, 2, 31, 0
20, 27570, Note_on_c, 2, 31, 100
20, 27629, Note_on_c, 2, 31, 0
20, 27660, Note_on_c, 2, 31, 100
20, 27719, Note_on_c, 2, 31, 0
20, 27780, Note_on_c, 2, 31, 100
20, 27839, Note_on_c, 2, 31, 0
20, 27840, Note_on_c, 2, 36, 100
20, 27899, Note_on_c, 2, 36, 0
20, 27960, Note_on_c, 2, 36, 100
20, 28019, Note_on_c, 2, 36, 0
20, 28050, Note_on_c, 2, 36, 100
20, 28109, Note_on_c, 2, 36, 0
20, 28140, Note_on_c, 2, 36, 100
20, 28199, Note_on_c, 2, 36, 0
20, 28260, Note_on_c, 2, 36, 100
20, 28319, Note_on_c, 2, 36, 0
20, 28320, Note_on_c, 2, 41, 100
20, 28379, Note_on_c, 2, 41, 0
20, 28440, Note_on_c, 2, 41, 100
20, 28499, Note_on_c, 2, 41, 0
20, 28530, Note_on_c, 2, 41, 100
20, 28589, Note_on_c, 2, 41, 0
20, 28620, Note_on_c, 2, 41, 100
20, 28679, Note_on_c, 2, 41, 0
20, 28740, Note_on_c, 2, 41, 100
20, 28799, Note_on_c, 2, 41, 0
20, 28800, Note_on_c, 2, 34, 100
20, 28859, Note_on_c, 2, 34, 0
20, 28920, Note_on_c, 2, 34, 100
20, 28979, Note_on_c, 2, 34, 0
20, 29010, Note_on_c, 2, 34, 100
20, 29069, Note_on_c, 2, 34, 0
20, 29100, Note_on_c, 2, 34, 100
20, 29159, Note_on_c, 2, 34, 0
20, 29220, Note_on_c, 2, 34, 100
20, 29279, Note_on_c, 2, 34, 0
20, 29280, Note_on_c, 2, 31, 100
20, 29339, Note_on_c, 2, 31, 0
20, 29400, Note_on_c, 2, 31, 100
20, 29459, Note_on_c, 2, 31, 0
20, 29490, Note_on_c, 2, 31, 100
20, 29549, Note_on_c, 2, 31, 0
20, 29580, Note_on_c, 2, 31, 100
20, 29639, Note_on_c, 2, 31, 0
20, 29700, Note_on_c, 2, 31, 100
20, 29759, Note_on_c, 2, 31, 0
20, 29760, Note_on_c, 2, 36, 100
20, 29819, Note_on_c, 2, 36, 0
20, 29880, Note_on_c, 2, 36, 100
20, 29939, Note_on_c, 2, 36, 0
20, 29970, Note_on_c, 2, 36, 100
20, 30029, Note_on_c, 2, 36, 0
20, 30060, Note_on_c, 2, 36, 100
20, 30119, Note_on_c, 2, 36, 0
20, 30180, Note_on_c, 2, 36, 100
20, 30239, Note_on_c, 2, 36, 0
20, 34560, Note_on_c, 2, 41, 100
20, 34619, Note_on_c, 2, 41, 0
20, 34680, Note_on_c, 2, 41, 100
20, 34739, Note_on_c, 2, 41, 0
20, 34770, Note_on_c, 2, 41, 100
20, 34829, Note_on_c, 2, 41, 0
20, 34860, Note_on_c, 2, 41, 100
20, 34919, Note_on_c, 2, 41, 0
20, 34980, Note_on_c, 2, 41, 100
20, 35039, Note_on_c, 2, 41, 0
20, 35040, Note_on_c, 2, 34, 100
20, 35099, Note_on_c, 2, 34, 0
20, 35160, Note_on_c, 2, 34, 100
20, 35219, Note_on_c, 2, 34, 0
20, 35250, Note_on_c, 2, 34, 100
20, 35309, Note_on_c, 2, 34, 0
20, 35340, Note_on_c, 2, 34, 100
20, 35399, Note_on_c, 2, 34, 0
20, 35460, Note_on_c, 2, 34, 100
20, 35519, Note_on_c, 2, 34, 0
20, 35520, Note_on_c, 2, 31, 100
20, 35579, Note_on_c, 2, 31, 0
20, 35640, Note_on_c, 2, 31, 100
20, 35699, Note_on_c, 2, 31, 0
20, 35730, Note_on_c, 2, 31, 100
20, 35789, Note_on_c, 2, 31, 0
20, 35820, Note_on_c, 2, 31, 100
20, 35879, Note_on_c, 2, 31, 0
20, 35940, Note_on_c, 2, 31, 100
20, 35999, Note_on_c, 2, 31, 0
20, 36000, Note_on_c, 2, 36, 100
20, 36059, Note_on_c, 2, 36, 0
20, 36120, Note_on_c, 2, 36, 100
20, 36179, Note_on_c, 2, 36, 0
20, 36210, Note_on_c, 2, 36, 100
20, 36269, Note_on_c, 2, 36, 0
20, 36300, Note_on_c, 2, 36, 100
20, 36359, Note_on_c, 2, 36, 0
20, 36420, Note_on_c, 2, 36, 100
20, 36479, Note_on_c, 2, 36, 0
20, 36480, Note_on_c, 2, 36, 100
20, 36539, Note_on_c, 2, 36, 0
20, 36600, Note_on_c, 2, 36, 100
20, 36659, Note_on_c, 2, 36, 0
20, 36690, Note_on_c, 2, 36, 100
20, 36749, Note_on_c, 2, 36, 0
20, 36780, Note_on_c, 2, 36, 100
20, 36839, Note_on_c, 2, 36, 0
20, 36900, Note_on_c, 2, 36, 100
20, 36959, Note_on_c, 2, 36, 0
20, 36960, Note_on_c, 2, 34, 100
20, 37019, Note_on_c, 2, 34, 0
20, 37080, Note_on_c, 2, 34, 100
20, 37139, Note_on_c, 2, 34, 0
20, 37170, Note_on_c, 2, 34, 100
20, 37229, Note_on_c, 2, 34, 0
20, 37260, Note_on_c, 2, 34, 100
20, 37319, Note_on_c, 2, 34, 0
20, 37380, Note_on_c, 2, 34, 100
20, 37439, Note_on_c, 2, 34, 0
20, 37440, Note_on_c, 2, 31, 100
20, 37499, Note_on_c, 2, 31, 0
20, 37560, Note_on_c, 2, 31, 100
20, 37619, Note_on_c, 2, 31, 0
20, 37650, Note_on_c, 2, 31, 100
20, 37709, Note_on_c, 2, 31, 0
20, 37740, Note_on_c, 2, 31, 100
20, 37799, Note_on_c, 2, 31, 0
20, 37860, Note_on_c, 2, 31, 100
20, 37919, Note_on_c, 2, 31, 0
20, 37920, Note_on_c, 2, 36, 100
20, 37979, Note_on_c, 2, 36, 0
20, 38040, Note_on_c, 2, 36, 100
20, 38099, Note_on_c, 2, 36, 0
20, 38130, Note_on_c, 2, 36, 100
20, 38189, Note_on_c, 2, 36, 0
20, 38220, Note_on_c, 2, 36, 100
20, 38279, Note_on_c, 2, 36, 0
20, 38340, Note_on_c, 2, 36, 100
20, 38399, Note_on_c, 2, 36, 0
20, 42720, Note_on_c, 2, 43, 100
20, 42779, Note_on_c, 2, 43, 0
20, 42840, Note_on_c, 2, 43, 100
20, 42899, Note_on_c, 2, 43, 0
20, 42930, Note_on_c, 2, 43, 100
20, 42989, Note_on_c, 2, 43, 0
20, 43020, Note_on_c, 2, 43, 100
20, 43079, Note_on_c, 2, 43, 0
20, 43140, Note_on_c, 2, 43, 100
20, 43199, Note_on_c, 2, 43, 0
20, 43200, Note_on_c, 2, 36, 100
20, 43259, Note_on_c, 2, 36, 0
20, 43320, Note_on_c, 2, 36, 100
20, 43379, Note_on_c, 2, 36, 0
20, 43410, Note_on_c, 2, 36, 100
20, 43469, Note_on_c, 2, 36, 0
20, 43500, Note_on_c, 2, 36, 100
20, 43559, Note_on_c, 2, 36, 0
20, 43620, Note_on_c, 2, 36, 100
20, 43679, Note_on_c, 2, 36, 0
20, 43680, Note_on_c, 2, 33, 100
20, 43739, Note_on_c, 2, 33, 0
20, 43800, Note_on_c, 2, 33, 100
20, 43859, Note_on_c, 2, 33, 0
20, 43890, Note_on_c, 2, 33, 100
20, 43949, Note_on_c, 2, 33, 0
20, 43980, Note_on_c, 2, 33, 100
20, 44039, Note_on_c, 2, 33, 0
20, 44100, Note_on_c, 2, 33, 100
20, 44159, Note_on_c, 2, 33, 0
20, 44160, Note_on_c, 2, 38, 100
20, 44219, Note_on_c, 2, 38, 0
20, 44280, Note_on_c, 2, 38, 100
20, 44339, Note_on_c, 2, 38, 0
20, 44370, Note_on_c, 2, 38, 100
20, 44429, Note_on_c, 2, 38, 0
20, 44460, Note_on_c, 2, 38, 100
20, 44519, Note_on_c, 2, 38, 0
20, 44580, Note_on_c, 2, 38, 100
20, 44639, Note_on_c, 2, 38, 0
20, 44640, Note_on_c, 2, 38, 100
20, 44699, Note_on_c, 2, 38, 0
20, 44760, Note_on_c, 2, 38, 100
20, 44819, Note_on_c, 2, 38, 0
20, 44850, Note_on_c, 2, 38, 100
20, 44909, Note_on_c, 2, 38, 0
20, 44940, Note_on_c, 2, 38, 100
20, 44999, Note_on_c, 2, 38, 0
20, 45060, Note_on_c, 2, 38, 100
20, 45119, Note_on_c, 2, 38, 0
20, 45120, Note_on_c, 2, 36, 100
20, 45179, Note_on_c, 2, 36, 0
20, 45240, Note_on_c, 2, 36, 100
20, 45299, Note_on_c, 2, 36, 0
20, 45330, Note_on_c, 2, 36, 100
20, 45389, Note_on_c, 2, 36, 0
20, 45420, Note_on_c, 2, 36, 100
20, 45479, Note_on_c, 2, 36, 0
20, 45540, Note_on_c, 2, 36, 100
20, 45599, Note_on_c, 2, 36, 0
20, 45600, Note_on_c, 2, 33, 100
20, 45659, Note_on_c, 2, 33, 0
20, 45720, Note_on_c, 2, 33, 100
20, 45779, Note_on_c, 2, 33, 0
20, 45810, Note_on_c, 2, 33, 100
20, 45869, Note_on_c, 2, 33, 0
20, 45900, Note_on_c, 2, 33, 100
20, 45959, Note_on_c, 2, 33, 0
20, 46020, Note_on_c, 2, 33, 100
20, 46079, Note_on_c, 2, 33, 0
20, 46080, Note_on_c, 2, 38, 100
20, 46139, Note_on_c, 2, 38, 0
20, 46200, Note_on_c, 2, 38, 100
20, 46259, Note_on_c, 2, 38, 0
20, 46290, Note_on_c, 2, 38, 100
20, 46349, Note_on_c, 2, 38, 0
20, 46380, Note_on_c, 2, 38, 100
20, 46439, Note_on_c, 2, 38, 0
20, 46500, Note_on_c, 2, 38, 100
20, 46559, Note_on_c, 2, 38, 0
20, 46560, Note_on_c, 2, 43, 100
20, 46619, Note_on_c, 2, 43, 0
20, 46680, Note_on_c, 2, 43, 100
20, 46739, Note_on_c, 2, 43, 0
20, 46770, Note_on_c, 2, 43, 100
20, 46829, Note_on_c, 2, 43, 0
20, 46860, Note_on_c, 2, 43, 100
20, 46919, Note_on_c, 2, 43, 0
20, 46980, Note_on_c, 2, 43, 100
20, 47039, Note_on_c, 2, 43, 0
20, 47040, Note_on_c, 2, 36, 100
20, 47099, Note_on_c, 2, 36, 0
20, 47160, Note_on_c, 2, 36, 100
20, 47219, Note_on_c, 2, 36, 0
20, 47250, Note_on_c, 2, 36, 100
20, 47309, Note_on_c, 2, 36, 0
20, 47340, Note_on_c, 2, 36, 100
20, 47399, Note_on_c, 2, 36, 0
20, 47460, Note_on_c, 2, 36, 100
20, 47519, Note_on_c, 2, 36, 0
20, 47520, Note_on_c, 2, 33, 100
20, 47579, Note_on_c, 2, 33, 0
20, 47640, Note_on_c, 2, 33, 100
20, 47699, Note_on_c, 2, 33, 0
20, 47730, Note_on_c, 2, 33, 100
20, 47789, Note_on_c, 2, 33, 0
20, 47820, Note_on_c, 2, 33, 100
20, 47879, Note_on_c, 2, 33, 0
20, 47940, Note_on_c, 2, 33, 100
20, 47999, Note_on_c, 2, 33, 0
20, 48000, Note_on_c, 2, 38, 100
20, 48059, Note_on_c, 2, 38, 0
20, 48120, Note_on_c, 2, 38, 100
20, 48179, Note_on_c, 2, 38, 0
20, 48210, Note_on_c, 2, 38, 100
20, 48269, Note_on_c, 2, 38, 0
20, 48300, Note_on_c, 2, 38, 100
20, 48359, Note_on_c, 2, 38, 0
20, 48420, Note_on_c, 2, 38, 100
20, 48479, Note_on_c, 2, 38, 0
20, 48480, Note_on_c, 2, 38, 100
20, 48539, Note_on_c, 2, 38, 0
20, 48600, Note_on_c, 2, 38, 100
20, 48659, Note_on_c, 2, 38, 0
20, 48690, Note_on_c, 2, 38, 100
20, 48749, Note_on_c, 2, 38, 0
20, 48780, Note_on_c, 2, 38, 100
20, 48839, Note_on_c, 2, 38, 0
20, 48900, Note_on_c, 2, 38, 100
20, 48959, Note_on_c, 2, 38, 0
20, 48960, Note_on_c, 2, 36, 100
20, 49019, Note_on_c, 2, 36, 0
20, 49080, Note_on_c, 2, 36, 100
20, 49139, Note_on_c, 2, 36, 0
20, 49170, Note_on_c, 2, 36, 100
20, 49229, Note_on_c, 2, 36, 0
20, 49260, Note_on_c, 2, 36, 100
20, 49319, Note_on_c, 2, 36, 0
20, 49380, Note_on_c, 2, 36, 100
20, 49439, Note_on_c, 2, 36, 0
20, 49440, Note_on_c, 2, 33, 100
20, 49499, Note_on_c, 2, 33, 0
20, 49560, Note_on_c, 2, 33, 100
20, 49619, Note_on_c, 2, 33, 0
20, 49650, Note_on_c, 2, 33, 100
20, 49709, Note_on_c, 2, 33, 0
20, 49740, Note_on_c, 2, 33, 100
20, 49799, Note_on_c, 2, 33, 0
20, 49860, Note_on_c, 2, 33, 100
20, 49919, Note_on_c, 2, 33, 0
20, 49920, Note_on_c, 2, 38, 100
20, 49979, Note_on_c, 2, 38, 0
20, 50040, Note_on_c, 2, 38, 100
20, 50099, Note_on_c, 2, 38, 0
20, 50130, Note_on_c, 2, 38, 100
20, 50189, Note_on_c, 2, 38, 0
20, 50220, Note_on_c, 2, 38, 100
20, 50279, Note_on_c, 2, 38, 0
20, 50340, Note_on_c, 2, 38, 100
20, 50399, Note_on_c, 2, 38, 0
20, 50400, Control_c, 2, 11, 127
20, 50400, Note_on_c, 2, 43, 100
20, 50459, Note_on_c, 2, 43, 0
20, 50460, Control_c, 2, 11, 126
20, 50520, Control_c, 2, 11, 125
20, 50520, Note_on_c, 2, 43, 100
20, 50579, Note_on_c, 2, 43, 0
20, 50581, Control_c, 2, 11, 124
20, 50610, Note_on_c, 2, 43, 100
20, 50641, Control_c, 2, 11, 123
20, 50669, Note_on_c, 2, 43, 0
20, 50700, Note_on_c, 2, 43, 100
20, 50702, Control_c, 2, 11, 122
20, 50759, Note_on_c, 2, 43, 0
20, 50762, Control_c, 2, 11, 121
20, 50820, Note_on_c, 2, 43, 100
20, 50823, Control_c, 2, 11, 120
20, 50879, Note_on_c, 2, 43, 0
20, 50880, Note_on_c, 2, 36, 100
20, 50883, Control_c, 2, 11, 119
20, 50939, Note_on_c, 2, 36, 0
20, 50944, Control_c, 2, 11, 118
20, 51000, Note_on_c, 2, 36, 100
20, 51004, Control_c, 2, 11, 117
20, 51059, Note_on_c, 2, 36, 0
20, 51065, Control_c, 2, 11, 116
20, 51090, Note_on_c, 2, 36, 100
20, 51125, Control_c, 2, 11, 115
20, 51149, Note_on_c, 2, 36, 0
20, 51180, Note_on_c, 2, 36, 100
20, 51186, Control_c, 2, 11, 114
20, 51239, Note_on_c, 2, 36, 0
20, 51246, Control_c, 2, 11, 113
20, 51300, Note_on_c, 2, 36, 100
20, 51306, Control_c, 2, 11, 112
20, 51359, Note_on_c, 2, 36, 0
20, 51360, Note_on_c, 2, 33, 100
20, 51367, Control_c, 2, 11, 111
20, 51419, Note_on_c, 2, 33, 0
20, 51427, Control_c, 2, 11, 110
20, 51480, Note_on_c, 2, 33, 100
20, 51488, Control_c, 2, 11, 109
20, 51539, Note_on_c, 2, 33, 0
20, 51548, Control_c, 2, 11, 108
20, 51570, Note_on_c, 2, 33, 100
20, 51609, Control_c, 2, 11, 107
20, 51629, Note_on_c, 2, 33, 0
20, 51660, Note_on_c, 2, 33, 100
20, 51669, Control_c, 2, 11, 106
20, 51719, Note_on_c, 2, 33, 0
20, 51730, Control_c, 2, 11, 105
20, 51780, Note_on_c, 2, 33, 100
20, 51790, Control_c, 2, 11, 104
20, 51839, Note_on_c, 2, 33, 0
20, 51840, Note_on_c, 2, 38, 100
20, 51851, Control_c, 2, 11, 103
20, 51899, Note_on_c, 2, 38, 0
20, 51911, Control_c, 2, 11, 102
20, 51960, Note_on_c, 2, 38, 100
20, 51972, Control_c, 2, 11, 101
20, 52019, Note_on_c, 2, 38, 0
20, 52032, Control_c, 2, 11, 100
20, 52050, Note_on_c, 2, 38, 100
20, 52093, Control_c, 2, 11, 99
20, 52109, Note_on_c, 2, 38, 0
20, 52140, Note_on_c, 2, 38, 100
20, 52153, Control_c, 2, 11, 98
20, 52199, Note_on_c, 2, 38, 0
20, 52213, Control_c, 2, 11, 97
20, 52260, Note_on_c, 2, 38, 100
20, 52274, Control_c, 2, 11, 96
20, 52319, Note_on_c, 2, 38, 0
20, 52320, Note_on_c, 2, 38, 100
20, 52334, Control_c, 2, 11, 95
20, 52379, Note_on_c, 2, 38, 0
20, 52395, Control_c, 2, 11, 94
20, 52440, Note_on_c, 2, 38, 100
20, 52455, Control_c, 2, 11, 93
20, 52499, Note_on_c, 2, 38, 0
20, 52516, Control_c, 2, 11, 92
20, 52530, Note_on_c, 2, 38, 100
20, 52576, Control_c, 2, 11, 91
20, 52589, Note_on_c, 2, 38, 0
20, 52620, Note_on_c, 2, 38, 100
20, 52637, Control_c, 2, 11, 90
20, 52679, Note_on_c, 2, 38, 0
20, 52697, Control_c, 2, 11, 89
20, 52740, Note_on_c, 2, 38, 100
20, 52758, Control_c, 2, 11, 88
20, 52799, Note_on_c, 2, 38, 0
20, 52800, Note_on_c, 2, 36, 100
20, 52818, Control_c, 2, 11, 87
20, 52859, Note_on_c, 2, 36, 0
20, 52879, Control_c, 2, 11, 86
20, 52920, Note_on_c, 2, 36, 100
20, 52939, Control_c, 2, 11, 85
20, 52979, Note_on_c, 2, 36, 0
20, 52999, Control_c, 2, 11, 84
20, 53010, Note_on_c, 2, 36, 100
20, 53060, Control_c, 2, 11, 83
20, 53069, Note_on_c, 2, 36, 0
20, 53100, Note_on_c, 2, 36, 100
20, 53120, Control_c, 2, 11, 82
20, 53159, Note_on_c, 2, 36, 0
20, 53181, Control_c, 2, 11, 81
20, 53220, Note_on_c, 2, 36, 100
20, 53241, Control_c, 2, 11, 80
20, 53279, Note_on_c, 2, 36, 0
20, 53280, Note_on_c, 2, 33, 100
20, 53302, Control_c, 2, 11, 79
20, 53339, Note_on_c, 2, 33, 0
20, 53362, Control_c, 2, 11, 78
20, 53400, Note_on_c, 2, 33, 100
20, 53423, Control_c, 2, 11, 77
20, 53459, Note_on_c, 2, 33, 0
20, 53483, Control_c, 2, 11, 76
20, 53490, Note_on_c, 2, 33, 100
20, 53544, Control_c, 2, 11, 75
20, 53549, Note_on_c, 2, 33, 0
20, 53580, Note_on_c, 2, 33, 100
20, 53604, Control_c, 2, 11, 74
20, 53639, Note_on_c, 2, 33, 0
20, 53665, Control_c, 2, 11, 73
20, 53700, Note_on_c, 2, 33, 100
20, 53725, Control_c, 2, 11, 72
20, 53759, Note_on_c, 2, 33, 0
20, 53760, Note_on_c, 2, 38, 100
20, 53786, Control_c, 2, 11, 71
20, 53819, Note_on_c, 2, 38, 0
20, 53846, Control_c, 2, 11, 70
20, 53880, Note_on_c, 2, 38, 100
20, 53906, Control_c, 2, 11, 69
20, 53939, Note_on_c, 2, 38, 0
20, 53967, Control_c, 2, 11, 68
20, 53970, Note_on_c, 2, 38, 100
20, 54027, Control_c, 2, 11, 67
20, 54029, Note_on_c, 2, 38, 0
20, 54060, Note_on_c, 2, 38, 100
20, 54088, Control_c, 2, 11, 66
20, 54119, Note_on_c, 2, 38, 0
20, 54148, Control_c, 2, 11, 65
20, 54180, Note_on_c, 2, 38, 100
20, 54209, Control_c, 2, 11, 64
20, 54239, Note_on_c, 2, 38, 0
20, 54240, Note_on_c, 2, 43, 100
20, 54269, Control_c, 2, 11, 63
20, 54299, Note_on_c, 2, 43, 0
20, 54330, Control_c, 2, 11, 62
20, 54360, Note_on_c, 2, 43, 100
20, 54390, Control_c, 2, 11, 61
20, 54419, Note_on_c, 2, 43, 0
20, 54450, Note_on_c, 2, 43, 100
20, 54451, Control_c, 2, 11, 60
20, 54509, Note_on_c, 2, 43, 0
20, 54511, Control_c, 2, 11, 59
20, 54540, Note_on_c, 2, 43, 100
20, 54572, Control_c, 2, 11, 58
20, 54599, Note_on_c, 2, 43, 0
20, 54632, Control_c, 2, 11, 57
20, 54660, Note_on_c, 2, 43, 100
20, 54692, Control_c, 2, 11, 56
20, 54719, Note_on_c, 2, 43, 0
20, 54720, Note_on_c, 2, 36, 100
20, 54753, Control_c, 2, 11, 55
20, 54779, Note_on_c, 2, 36, 0
20, 54813, Control_c, 2, 11, 54
20, 54840, Note_on_c, 2, 36, 100
20, 54874, Control_c, 2, 11, 53
20, 54899, Note_on_c, 2, 36, 0
20, 54930, Note_on_c, 2, 36, 100
20, 54934, Control_c, 2, 11, 52
20, 54989, Note_on_c, 2, 36, 0
20, 54995, Control_c, 2, 11, 51
20, 55020, Note_on_c, 2, 36, 100
20, 55055, Control_c, 2, 11, 50
20, 55079, Note_on_c, 2, 36, 0
20, 55116, Control_c, 2, 11, 49
20, 55140, Note_on_c, 2, 36, 100
20, 55176, Control_c, 2, 11, 48
20, 55199, Note_on_c, 2, 36, 0
20, 55200, Note_on_c, 2, 33, 100
20, 55237, Control_c, 2, 11, 47
20, 55259, Note_on_c, 2, 33, 0
20, 55297, Control_c, 2, 11, 46
20, 55320, Note_on_c, 2, 33, 100
20, 55358, Control_c, 2, 11, 45
20, 55379, Note_on_c, 2, 33, 0
20, 55410, Note_on_c, 2, 33, 100
20, 55418, Control_c, 2, 11, 44
20, 55469, Note_on_c, 2, 33, 0
20, 55479, Control_c, 2, 11, 43
20, 55500, Note_on_c, 2, 33, 100
20, 55539, Control_c, 2, 11, 42
20, 55559, Note_on_c, 2, 33, 0
20, 55599, Control_c, 2, 11, 41
20, 55620, Note_on_c, 2, 33, 100
20, 55660, Control_c, 2, 11, 40
20, 55679, Note_on_c, 2, 33, 0
20, 55680, Note_on_c, 2, 38, 100
20, 55720, Control_c, 2, 11, 39
20, 55739, Note_on_c, 2, 38, 0
20, 55781, Control_c, 2, 11, 38
20, 55800, Note_on_c, 2, 38, 100
20, 55841, Control_c, 2, 11, 37
20, 55859, Note_on_c, 2, 38, 0
20, 55890, Note_on_c, 2, 38, 100
20, 55902, Control_c, 2, 11, 36
20, 55949, Note_on_c, 2, 38, 0
20, 55962, Control_c, 2, 11, 35
20, 55980, Note_on_c, 2, 38, 100
20, 56023, Control_c, 2, 11, 34
20, 56039, Note_on_c, 2, 38, 0
20, 56083, Control_c, 2, 11, 33
20, 56100, Note_on_c, 2, 38, 100
20, 56144, Control_c, 2, 11, 32
20, 56159, Note_on_c, 2, 38, 0
20, 56160, Note_on_c, 2, 38, 100
20, 56204, Control_c, 2, 11, 31
20, 56219, Note_on_c, 2, 38, 0
20, 56265, Control_c, 2, 11, 30
20, 56280, Note_on_c, 2, 38, 100
20, 56325, Control_c, 2, 11, 29
20, 56339, Note_on_c, 2, 38, 0
20, 56370, Note_on_c, 2, 38, 100
20, 56385, Control_c, 2, 11, 28
20, 56429, Note_on_c, 2, 38, 0
20, 56446, Control_c, 2, 11, 27
20, 56460, Note_on_c, 2, 38, 100
20, 56506, Control_c, 2, 11, 26
20, 56519, Note_on_c, 2, 38, 0
20, 56567, Control_c, 2, 11, 25
20, 56580, Note_on_c, 2, 38, 100
20, 56627, Control_c, 2, 11, 24
20, 56639, Note_on_c, 2, 38, 0
20, 56640, Note_on_c, 2, 36, 100
20, 56688, Control_c, 2, 11, 23
20, 56699, Note_on_c, 2, 36, 0
20, 56748, Control_c, 2, 11, 22
20, 56760, Note_on_c, 2, 36, 100
20, 56809, Control_c, 2, 11, 21
20, 56819, Note_on_c, 2, 36, 0
20, 56850, Note_on_c, 2, 36, 100
20, 56869, Control_c, 2, 11, 20
20, 56909, Note_on_c, 2, 36, 0
20, 56930, Control_c, 2, 11, 19
20, 56940, Note_on_c, 2, 36, 100
20, 56990, Control_c, 2, 11, 18
20, 56999, Note_on_c, 2, 36, 0
20, 57051, Control_c, 2, 11, 17
20, 57060, Note_on_c, 2, 36, 100
20, 57111, Control_c, 2, 11, 16
20, 57119, Note_on_c, 2, 36, 0
20, 57120, Note_on_c, 2, 33, 100
20, 57172, Control_c, 2, 11, 15
20, 57179, Note_on_c, 2, 33, 0
20, 57232, Control_c, 2, 11, 14
20, 57240, Note_on_c, 2, 33, 100
20, 57292, Control_c, 2, 11, 13
20, 57299, Note_on_c, 2, 33, 0
20, 57330, Note_on_c, 2, 33, 100
20, 57353, Control_c, 2, 11, 12
20, 57389, Note_on_c, 2, 33, 0
20, 57413, Control_c, 2, 11, 11
20, 57420, Note_on_c, 2, 33, 100
20, 57474, Control_c, 2, 11, 10
20, 57479, Note_on_c, 2, 33, 0
20, 57534, Control_c, 2, 11, 9
20, 57540, Note_on_c, 2, 33, 100
20, 57595, Control_c, 2, 11, 8
20, 57599, Note_on_c, 2, 33, 0
20, 57600, Note_on_c, 2, 38, 100
20, 57655, Control_c, 2, 11, 7
20, 57659, Note_on_c, 2, 38, 0
20, 57716, Control_c, 2, 11, 6
20, 57720, Note_on_c, 2, 38, 100
20, 57776, Control_c, 2, 11, 5
20, 57779, Note_on_c, 2, 38, 0
20, 57810, Note_on_c, 2, 38, 100
20, 57837, Control_c, 2, 11, 4
20, 57869, Note_on_c, 2, 38, 0
20, 57897, Control_c, 2, 11, 3
20, 57900, Note_on_c, 2, 38, 100
20, 57958, Control_c, 2, 11, 2
20, 57959, Note_on_c, 2, 38, 0
20, 58018, Control_c, 2, 11, 1
20, 58020, Note_on_c, 2, 38, 100
20, 58079, Note_on_c, 2, 38, 0
20, 58079, Control_c, 2, 11, 0
20, 58079, End_track
21, 0, Start_track
21, 0, MIDI_port, 0
21, 0, Title_t, "chords"
21, 0, Control_c, 3, 0, 0
21, 0, Program_c, 3, 50
21, 0, Control_c, 3, 7, 80
21, 4, Control_c, 3, 91, 90
21, 4, Control_c, 3, 93, 10
21, 4, Control_c, 3, 11, 127
21, 8160, Note_on_c, 3, 50, 100
21, 8160, Note_on_c, 3, 53, 100
21, 8160, Note_on_c, 3, 57, 100
21, 9119, Note_on_c, 3, 57, 0
21, 9119, Note_on_c, 3, 53, 0
21, 9119, Note_on_c, 3, 50, 0
21, 9120, Note_on_c, 3, 50, 100
21, 9120, Note_on_c, 3, 53, 100
21, 9120, Note_on_c, 3, 58, 100
21, 10079, Note_on_c, 3, 58, 0
21, 10079, Note_on_c, 3, 53, 0
21, 10079, Note_on_c, 3, 50, 0
21, 10080, Note_on_c, 3, 55, 100
21, 10080, Note_on_c, 3, 48, 100
21, 10080, Note_on_c, 3, 52, 100
21, 11039, Note_on_c, 3, 52, 0
21, 11039, Note_on_c, 3, 48, 0
21, 11039, Note_on_c, 3, 55, 0
21, 11040, Note_on_c, 3, 50, 100
21, 11040, Note_on_c, 3, 53, 100
21, 11040, Note_on_c, 3, 57, 100
21, 11999, Note_on_c, 3, 57, 0
21, 11999, Note_on_c, 3, 53, 0
21, 11999, Note_on_c, 3, 50, 0
21, 12000, Note_on_c, 3, 50, 100
21, 12000, Note_on_c, 3, 53, 100
21, 12000, Note_on_c, 3, 57, 100
21, 12959, Note_on_c, 3, 57, 0
21, 12959, Note_on_c, 3, 53, 0
21, 12959, Note_on_c, 3, 50, 0
21, 12960, Note_on_c, 3, 50, 100
21, 12960, Note_on_c, 3, 53, 100
21, 12960, Note_on_c, 3, 58, 100
21, 13919, Note_on_c, 3, 58, 0
21, 13919, Note_on_c, 3, 53, 0
21, 13919, Note_on_c, 3, 50, 0
21, 13920, Note_on_c, 3, 55, 100
21, 13920, Note_on_c, 3, 52, 100
21, 13920, Note_on_c, 3, 48, 100
21, 14879, Note_on_c, 3, 48, 0
21, 14879, Note_on_c, 3, 52, 0
21, 14879, Note_on_c, 3, 55, 0
21, 14880, Note_on_c, 3, 58, 100
21, 14880, Note_on_c, 3, 53, 100
21, 14880, Note_on_c, 3, 50, 100
21, 15359, Note_on_c, 3, 50, 0
21, 15359, Note_on_c, 3, 53, 0
21, 15359, Note_on_c, 3, 58, 0
21, 15360, Note_on_c, 3, 60, 100
21, 15360, Note_on_c, 3, 55, 100
21, 15360, Note_on_c, 3, 52, 100
21, 15839, Note_on_c, 3, 52, 0
21, 15839, Note_on_c, 3, 55, 0
21, 15839, Note_on_c, 3, 60, 0
21, 15840, Note_on_c, 3, 65, 100
21, 15840, Note_on_c, 3, 57, 100
21, 15840, Note_on_c, 3, 60, 100
21, 16319, Note_on_c, 3, 60, 0
21, 16319, Note_on_c, 3, 57, 0
21, 16319, Note_on_c, 3, 65, 0
21, 16320, Note_on_c, 3, 53, 100
21, 16320, Note_on_c, 3, 58, 100
21, 16320, Note_on_c, 3, 62, 100
21, 16799, Note_on_c, 3, 62, 0
21, 16799, Note_on_c, 3, 58, 0
21, 16799, Note_on_c, 3, 53, 0
21, 16800, Note_on_c, 3, 62, 100
21, 16800, Note_on_c, 3, 58, 100
21, 16800, Note_on_c, 3, 55, 100
21, 17279, Note_on_c, 3, 55, 0
21, 17279, Note_on_c, 3, 58, 0
21, 17279, Note_on_c, 3, 62, 0
21, 17280, Note_on_c, 3, 64, 100
21, 17280, Note_on_c, 3, 60, 100
21, 17280, Note_on_c, 3, 55, 100
21, 17759, Note_on_c, 3, 55, 0
21, 17759, Note_on_c, 3, 60, 0
21, 17759, Note_on_c, 3, 64, 0
21, 17760, Note_on_c, 3, 55, 100
21, 17760, Note_on_c, 3, 60, 100
21, 17760, Note_on_c, 3, 64, 100
21, 18239, Note_on_c, 3, 64, 0
21, 18239, Note_on_c, 3, 60, 0
21, 18239, Note_on_c, 3, 55, 0
21, 18240, Note_on_c, 3, 58, 100
21, 18240, Note_on_c, 3, 62, 100
21, 18240, Note_on_c, 3, 53, 100
21, 18719, Note_on_c, 3, 53, 0
21, 18719, Note_on_c, 3, 62, 0
21, 18719, Note_on_c, 3, 58, 0
21, 18720, Note_on_c, 3, 62, 100
21, 18720, Note_on_c, 3, 58, 100
21, 18720, Note_on_c, 3, 55, 100
21, 19199, Note_on_c, 3, 55, 0
21, 19199, Note_on_c, 3, 58, 0
21, 19199, Note_on_c, 3, 62, 0
21, 19200, Note_on_c, 3, 64, 100
21, 19200, Note_on_c, 3, 60, 100
21, 19200, Note_on_c, 3, 55, 100
21, 19679, Note_on_c, 3, 55, 0
21, 19679, Note_on_c, 3, 60, 0
21, 19679, Note_on_c, 3, 64, 0
21, 19680, Note_on_c, 3, 53, 100
21, 19680, Note_on_c, 3, 62, 100
21, 19680, Note_on_c, 3, 57, 100
21, 20639, Note_on_c, 3, 57, 0
21, 20639, Note_on_c, 3, 62, 0
21, 20639, Note_on_c, 3, 53, 0
21, 20640, Note_on_c, 3, 50, 100
21, 21599, Note_on_c, 3, 50, 0
21, 21600, Note_on_c, 3, 55, 60
21, 22559, Note_on_c, 3, 55, 0
21, 22560, Note_on_c, 3, 57, 60
21, 23519, Note_on_c, 3, 57, 0
21, 23520, Note_on_c, 3, 58, 100
21, 23520, Note_on_c, 3, 53, 100
21, 23520, Note_on_c, 3, 50, 100
21, 23999, Note_on_c, 3, 50, 0
21, 23999, Note_on_c, 3, 53, 0
21, 23999, Note_on_c, 3, 58, 0
21, 24000, Note_on_c, 3, 60, 100
21, 24000, Note_on_c, 3, 55, 100
21, 24000, Note_on_c, 3, 52, 100
21, 24479, Note_on_c, 3, 52, 0
21, 24479, Note_on_c, 3, 55, 0
21, 24479, Note_on_c, 3, 60, 0
21, 24480, Note_on_c, 3, 65, 100
21, 24480, Note_on_c, 3, 57, 100
21, 24480, Note_on_c, 3, 60, 100
21, 24959, Note_on_c, 3, 60, 0
21, 24959, Note_on_c, 3, 57, 0
21, 24959, Note_on_c, 3, 65, 0
21, 24960, Note_on_c, 3, 53, 100
21, 24960, Note_on_c, 3, 58, 100
21, 24960, Note_on_c, 3, 62, 100
21, 25439, Note_on_c, 3, 62, 0
21, 25439, Note_on_c, 3, 58, 0
21, 25439, Note_on_c, 3, 53, 0
21, 25440, Note_on_c, 3, 62, 100
21, 25440, Note_on_c, 3, 58, 100
21, 25440, Note_on_c, 3, 55, 100
21, 25919, Note_on_c, 3, 55, 0
21, 25919, Note_on_c, 3, 58, 0
21, 25919, Note_on_c, 3, 62, 0
21, 25920, Note_on_c, 3, 64, 100
21, 25920, Note_on_c, 3, 60, 100
21, 25920, Note_on_c, 3, 55, 100
21, 26399, Note_on_c, 3, 55, 0
21, 26399, Note_on_c, 3, 60, 0
21, 26399, Note_on_c, 3, 64, 0
21, 26400, Note_on_c, 3, 55, 100
21, 26400, Note_on_c, 3, 60, 100
21, 26400, Note_on_c, 3, 64, 100
21, 26879, Note_on_c, 3, 64, 0
21, 26879, Note_on_c, 3, 60, 0
21, 26879, Note_on_c, 3, 55, 0
21, 26880, Note_on_c, 3, 58, 100
21, 26880, Note_on_c, 3, 62, 100
21, 26880, Note_on_c, 3, 53, 100
21, 27359, Note_on_c, 3, 53, 0
21, 27359, Note_on_c, 3, 62, 0
21, 27359, Note_on_c, 3, 58, 0
21, 27360, Note_on_c, 3, 62, 100
21, 27360, Note_on_c, 3, 58, 100
21, 27360, Note_on_c, 3, 55, 100
21, 27839, Note_on_c, 3, 55, 0
21, 27839, Note_on_c, 3, 58, 0
21, 27839, Note_on_c, 3, 62, 0
21, 27840, Note_on_c, 3, 64, 100
21, 27840, Note_on_c, 3, 60, 100
21, 27840, Note_on_c, 3, 55, 100
21, 28319, Note_on_c, 3, 55, 0
21, 28319, Note_on_c, 3, 60, 0
21, 28319, Note_on_c, 3, 64, 0
21, 28320, Note_on_c, 3, 65, 100
21, 28320, Note_on_c, 3, 57, 100
21, 28320, Note_on_c, 3, 60, 100
21, 28799, Note_on_c, 3, 60, 0
21, 28799, Note_on_c, 3, 57, 0
21, 28799, Note_on_c, 3, 65, 0
21, 28800, Note_on_c, 3, 53, 100
21, 28800, Note_on_c, 3, 58, 100
21, 28800, Note_on_c, 3, 62, 100
21, 29279, Note_on_c, 3, 62, 0
21, 29279, Note_on_c, 3, 58, 0
21, 29279, Note_on_c, 3, 53, 0
21, 29280, Note_on_c, 3, 62, 100
21, 29280, Note_on_c, 3, 58, 100
21, 29280, Note_on_c, 3, 55, 100
21, 29759, Note_on_c, 3, 55, 0
21, 29759, Note_on_c, 3, 58, 0
21, 29759, Note_on_c, 3, 62, 0
21, 29760, Note_on_c, 3, 64, 100
21, 29760, Note_on_c, 3, 60, 100
21, 29760, Note_on_c, 3, 55, 100
21, 30239, Note_on_c, 3, 55, 0
21, 30239, Note_on_c, 3, 60, 0
21, 30239, Note_on_c, 3, 64, 0
21, 30240, Note_on_c, 3, 48, 100
21, 30240, Note_on_c, 3, 55, 100
21, 30240, Note_on_c, 3, 60, 100
21, 30240, Note_on_c, 3, 64, 100
21, 30719, Note_on_c, 3, 64, 0
21, 30719, Note_on_c, 3, 48, 0
21, 30719, Note_on_c, 3, 55, 0
21, 30719, Note_on_c, 3, 60, 0
21, 30720, Note_on_c, 3, 53, 100
21, 30720, Note_on_c, 3, 57, 100
21, 30720, Note_on_c, 3, 60, 100
21, 30720, Note_on_c, 3, 65, 100
21, 31199, Note_on_c, 3, 65, 0
21, 31199, Note_on_c, 3, 53, 0
21, 31199, Note_on_c, 3, 57, 0
21, 31199, Note_on_c, 3, 60, 0
21, 31200, Note_on_c, 3, 53, 100
21, 31200, Note_on_c, 3, 57, 100
21, 31200, Note_on_c, 3, 62, 100
21, 31200, Note_on_c, 3, 65, 100
21, 31679, Note_on_c, 3, 65, 0
21, 31679, Note_on_c, 3, 53, 0
21, 31679, Note_on_c, 3, 57, 0
21, 31679, Note_on_c, 3, 62, 0
21, 31680, Note_on_c, 3, 52, 100
21, 31680, Note_on_c, 3, 57, 100
21, 31680, Note_on_c, 3, 60, 100
21, 31680, Note_on_c, 3, 64, 100
21, 32159, Note_on_c, 3, 64, 0
21, 32159, Note_on_c, 3, 52, 0
21, 32159, Note_on_c, 3, 57, 0
21, 32159, Note_on_c, 3, 60, 0
21, 32160, Note_on_c, 3, 51, 100
21, 32160, Note_on_c, 3, 63, 100
21, 32160, Note_on_c, 3, 67, 100
21, 32160, Note_on_c, 3, 70, 100
21, 32639, Note_on_c, 3, 70, 0
21, 32639, Note_on_c, 3, 51, 0
21, 32639, Note_on_c, 3, 63, 0
21, 32639, Note_on_c, 3, 67, 0
21, 32640, Note_on_c, 3, 55, 100
21, 32640, Note_on_c, 3, 62, 100
21, 32640, Note_on_c, 3, 67, 100
21, 32640, Note_on_c, 3, 70, 100
21, 33119, Note_on_c, 3, 70, 0
21, 33119, Note_on_c, 3, 55, 0
21, 33119, Note_on_c, 3, 62, 0
21, 33119, Note_on_c, 3, 67, 0
21, 33120, Note_on_c, 3, 53, 100
21, 33120, Note_on_c, 3, 58, 100
21, 33120, Note_on_c, 3, 62, 100
21, 33120, Note_on_c, 3, 65, 100
21, 33599, Note_on_c, 3, 65, 0
21, 33599, Note_on_c, 3, 53, 0
21, 33599, Note_on_c, 3, 58, 0
21, 33599, Note_on_c, 3, 62, 0
21, 33600, Note_on_c, 3, 48, 100
21, 33600, Note_on_c, 3, 60, 100
21, 33600, Note_on_c, 3, 67, 100
21, 33600, Note_on_c, 3, 64, 100
21, 34559, Note_on_c, 3, 64, 0
21, 34559, Note_on_c, 3, 48, 0
21, 34559, Note_on_c, 3, 60, 0
21, 34559, Note_on_c, 3, 67, 0
21, 34560, Note_on_c, 3, 65, 100
21, 34560, Note_on_c, 3, 57, 100
21, 34560, Note_on_c, 3, 60, 100
21, 35039, Note_on_c, 3, 60, 0
21, 35039, Note_on_c, 3, 57, 0
21, 35039, Note_on_c, 3, 65, 0
21, 35040, Note_on_c, 3, 53, 100
21, 35040, Note_on_c, 3, 58, 100
21, 35040, Note_on_c, 3, 62, 100
21, 35519, Note_on_c, 3, 62, 0
21, 35519, Note_on_c, 3, 58, 0
21, 35519, Note_on_c, 3, 53, 0
21, 35520, Note_on_c, 3, 62, 100
21, 35520, Note_on_c, 3, 58, 100
21, 35520, Note_on_c, 3, 55, 100
21, 35999, Note_on_c, 3, 55, 0
21, 35999, Note_on_c, 3, 58, 0
21, 35999, Note_on_c, 3, 62, 0
21, 36000, Note_on_c, 3, 64, 100
21, 36000, Note_on_c, 3, 60, 100
21, 36000, Note_on_c, 3, 55, 100
21, 36479, Note_on_c, 3, 55, 0
21, 36479, Note_on_c, 3, 60, 0
21, 36479, Note_on_c, 3, 64, 0
21, 36480, Note_on_c, 3, 55, 100
21, 36480, Note_on_c, 3, 60, 100
21, 36480, Note_on_c, 3, 64, 100
21, 36959, Note_on_c, 3, 64, 0
21, 36959, Note_on_c, 3, 60, 0
21, 36959, Note_on_c, 3, 55, 0
21, 36960, Note_on_c, 3, 58, 100
21, 36960, Note_on_c, 3, 62, 100
21, 36960, Note_on_c, 3, 53, 100
21, 37439, Note_on_c, 3, 53, 0
21, 37439, Note_on_c, 3, 62, 0
21, 37439, Note_on_c, 3, 58, 0
21, 37440, Note_on_c, 3, 62, 100
21, 37440, Note_on_c, 3, 58, 100
21, 37440, Note_on_c, 3, 55, 100
21, 37919, Note_on_c, 3, 55, 0
21, 37919, Note_on_c, 3, 58, 0
21, 37919, Note_on_c, 3, 62, 0
21, 37920, Note_on_c, 3, 64, 100
21, 37920, Note_on_c, 3, 60, 100
21, 37920, Note_on_c, 3, 55, 100
21, 38399, Note_on_c, 3, 55, 0
21, 38399, Note_on_c, 3, 60, 0
21, 38399, Note_on_c, 3, 64, 0
21, 38400, Note_on_c, 3, 48, 100
21, 38400, Note_on_c, 3, 55, 100
21, 38400, Note_on_c, 3, 60, 100
21, 38400, Note_on_c, 3, 64, 100
21, 38879, Note_on_c, 3, 64, 0
21, 38879, Note_on_c, 3, 48, 0
21, 38879, Note_on_c, 3, 55, 0
21, 38879, Note_on_c, 3, 60, 0
21, 38880, Note_on_c, 3, 53, 100
21, 38880, Note_on_c, 3, 57, 100
21, 38880, Note_on_c, 3, 60, 100
21, 38880, Note_on_c, 3, 65, 100
21, 39359, Note_on_c, 3, 65, 0
21, 39359, Note_on_c, 3, 53, 0
21, 39359, Note_on_c, 3, 57, 0
21, 39359, Note_on_c, 3, 60, 0
21, 39360, Note_on_c, 3, 53, 100
21, 39360, Note_on_c, 3, 57, 100
21, 39360, Note_on_c, 3, 62, 100
21, 39360, Note_on_c, 3, 65, 100
21, 39839, Note_on_c, 3, 65, 0
21, 39839, Note_on_c, 3, 53, 0
21, 39839, Note_on_c, 3, 57, 0
21, 39839, Note_on_c, 3, 62, 0
21, 39840, Note_on_c, 3, 52, 100
21, 39840, Note_on_c, 3, 57, 100
21, 39840, Note_on_c, 3, 60, 100
21, 39840, Note_on_c, 3, 64, 100
21, 40319, Note_on_c, 3, 64, 0
21, 40319, Note_on_c, 3, 52, 0
21, 40319, Note_on_c, 3, 57, 0
21, 40319, Note_on_c, 3, 60, 0
21, 40320, Note_on_c, 3, 63, 100
21, 40320, Note_on_c, 3, 67, 100
21, 40320, Note_on_c, 3, 70, 100
21, 40799, Note_on_c, 3, 70, 0
21, 40799, Note_on_c, 3, 67, 0
21, 40799, Note_on_c, 3, 63, 0
21, 40800, Note_on_c, 3, 62, 100
21, 40800, Note_on_c, 3, 67, 100
21, 40800, Note_on_c, 3, 70, 100
21, 41279, Note_on_c, 3, 70, 0
21, 41279, Note_on_c, 3, 67, 0
21, 41279, Note_on_c, 3, 62, 0
21, 41280, Note_on_c, 3, 58, 100
21, 41280, Note_on_c, 3, 62, 100
21, 41280, Note_on_c, 3, 65, 100
21, 41759, Note_on_c, 3, 65, 0
21, 41759, Note_on_c, 3, 62, 0
21, 41759, Note_on_c, 3, 58, 0
21, 41760, Note_on_c, 3, 67, 100
21, 41760, Note_on_c, 3, 64, 100
21, 41760, Note_on_c, 3, 60, 100
21, 42719, Note_on_c, 3, 60, 0
21, 42719, Note_on_c, 3, 64, 0
21, 42719, Note_on_c, 3, 67, 0
21, 42720, Note_on_c, 3, 67, 100
21, 42720, Note_on_c, 3, 59, 100
21, 42720, Note_on_c, 3, 62, 100
21, 43199, Note_on_c, 3, 62, 0
21, 43199, Note_on_c, 3, 59, 0
21, 43199, Note_on_c, 3, 67, 0
21, 43200, Note_on_c, 3, 55, 100
21, 43200, Note_on_c, 3, 60, 100
21, 43200, Note_on_c, 3, 64, 100
21, 43679, Note_on_c, 3, 64, 0
21, 43679, Note_on_c, 3, 60, 0
21, 43679, Note_on_c, 3, 55, 0
21, 43680, Note_on_c, 3, 64, 100
21, 43680, Note_on_c, 3, 60, 100
21, 43680, Note_on_c, 3, 57, 100
21, 44159, Note_on_c, 3, 57, 0
21, 44159, Note_on_c, 3, 60, 0
21, 44159, Note_on_c, 3, 64, 0
21, 44160, Note_on_c, 3, 66, 100
21, 44160, Note_on_c, 3, 62, 100
21, 44160, Note_on_c, 3, 57, 100
21, 44639, Note_on_c, 3, 57, 0
21, 44639, Note_on_c, 3, 62, 0
21, 44639, Note_on_c, 3, 66, 0
21, 44640, Note_on_c, 3, 57, 100
21, 44640, Note_on_c, 3, 62, 100
21, 44640, Note_on_c, 3, 66, 100
21, 45119, Note_on_c, 3, 66, 0
21, 45119, Note_on_c, 3, 62, 0
21, 45119, Note_on_c, 3, 57, 0
21, 45120, Note_on_c, 3, 60, 100
21, 45120, Note_on_c, 3, 64, 100
21, 45120, Note_on_c, 3, 55, 100
21, 45599, Note_on_c, 3, 55, 0
21, 45599, Note_on_c, 3, 64, 0
21, 45599, Note_on_c, 3, 60, 0
21, 45600, Note_on_c, 3, 64, 100
21, 45600, Note_on_c, 3, 60, 100
21, 45600, Note_on_c, 3, 57, 100
21, 46079, Note_on_c, 3, 57, 0
21, 46079, Note_on_c, 3, 60, 0
21, 46079, Note_on_c, 3, 64, 0
21, 46080, Note_on_c, 3, 66, 100
21, 46080, Note_on_c, 3, 62, 100
21, 46080, Note_on_c, 3, 57, 100
21, 46559, Note_on_c, 3, 57, 0
21, 46559, Note_on_c, 3, 62, 0
21, 46559, Note_on_c, 3, 66, 0
21, 46560, Note_on_c, 3, 67, 100
21, 46560, Note_on_c, 3, 59, 100
21, 46560, Note_on_c, 3, 62, 100
21, 47039, Note_on_c, 3, 62, 0
21, 47039, Note_on_c, 3, 59, 0
21, 47039, Note_on_c, 3, 67, 0
21, 47040, Note_on_c, 3, 55, 100
21, 47040, Note_on_c, 3, 60, 100
21, 47040, Note_on_c, 3, 64, 100
21, 47519, Note_on_c, 3, 64, 0
21, 47519, Note_on_c, 3, 60, 0
21, 47519, Note_on_c, 3, 55, 0
21, 47520, Note_on_c, 3, 64, 100
21, 47520, Note_on_c, 3, 60, 100
21, 47520, Note_on_c, 3, 57, 100
21, 47999, Note_on_c, 3, 57, 0
21, 47999, Note_on_c, 3, 60, 0
21, 47999, Note_on_c, 3, 64, 0
21, 48000, Note_on_c, 3, 66, 100
21, 48000, Note_on_c, 3, 62, 100
21, 48000, Note_on_c, 3, 57, 100
21, 48479, Note_on_c, 3, 57, 0
21, 48479, Note_on_c, 3, 62, 0
21, 48479, Note_on_c, 3, 66, 0
21, 48480, Note_on_c, 3, 57, 100
21, 48480, Note_on_c, 3, 62, 100
21, 48480, Note_on_c, 3, 66, 100
21, 48959, Note_on_c, 3, 66, 0
21, 48959, Note_on_c, 3, 62, 0
21, 48959, Note_on_c, 3, 57, 0
21, 48960, Note_on_c, 3, 60, 100
21, 48960, Note_on_c, 3, 64, 100
21, 48960, Note_on_c, 3, 55, 100
21, 49439, Note_on_c, 3, 55, 0
21, 49439, Note_on_c, 3, 64, 0
21, 49439, Note_on_c, 3, 60, 0
21, 49440, Note_on_c, 3, 64, 100
21, 49440, Note_on_c, 3, 60, 100
21, 49440, Note_on_c, 3, 57, 100
21, 49919, Note_on_c, 3, 57, 0
21, 49919, Note_on_c, 3, 60, 0
21, 49919, Note_on_c, 3, 64, 0
21, 49920, Note_on_c, 3, 66, 100
21, 49920, Note_on_c, 3, 62, 100
21, 49920, Note_on_c, 3, 57, 100
21, 50399, Note_on_c, 3, 57, 0
21, 50399, Note_on_c, 3, 62, 0
21, 50399, Note_on_c, 3, 66, 0
21, 50400, Control_c, 3, 11, 127
21, 50400, Note_on_c, 3, 67, 100
21, 50400, Note_on_c, 3, 59, 100
21, 50400, Note_on_c, 3, 62, 100
21, 50460, Control_c, 3, 11, 126
21, 50520, Control_c, 3, 11, 125
21, 50581, Control_c, 3, 11, 124
21, 50641, Control_c, 3, 11, 123
21, 50702, Control_c, 3, 11, 122
21, 50762, Control_c, 3, 11, 121
21, 50823, Control_c, 3, 11, 120
21, 50879, Note_on_c, 3, 62, 0
21, 50879, Note_on_c, 3, 59, 0
21, 50879, Note_on_c, 3, 67, 0
21, 50880, Note_on_c, 3, 55, 100
21, 50880, Note_on_c, 3, 60, 100
21, 50880, Note_on_c, 3, 64, 100
21, 50883, Control_c, 3, 11, 119
21, 50944, Control_c, 3, 11, 118
21, 51004, Control_c, 3, 11, 117
21, 51065, Control_c, 3, 11, 116
21, 51125, Control_c, 3, 11, 115
21, 51186, Control_c, 3, 11, 114
21, 51246, Control_c, 3, 11, 113
21, 51306, Control_c, 3, 11, 112
21, 51359, Note_on_c, 3, 64, 0
21, 51359, Note_on_c, 3, 60, 0
21, 51359, Note_on_c, 3, 55, 0
21, 51360, Note_on_c, 3, 64, 100
21, 51360, Note_on_c, 3, 60, 100
21, 51360, Note_on_c, 3, 57, 100
21, 51367, Control_c, 3, 11, 111
21, 51427, Control_c, 3, 11, 110
21, 51488, Control_c, 3, 11, 109
21, 51548, Control_c, 3, 11, 108
21, 51609, Control_c, 3, 11, 107
21, 51669, Control_c, 3, 11, 106
21, 51730, Control_c, 3, 11, 105
21, 51790, Control_c, 3, 11, 104
21, 51839, Note_on_c, 3, 57, 0
21, 51839, Note_on_c, 3, 60, 0
21, 51839, Note_on_c, 3, 64, 0
21, 51840, Note_on_c, 3, 66, 100
21, 51840, Note_on_c, 3, 62, 100
21, 51840, Note_on_c, 3, 57, 100
21, 51851, Control_c, 3, 11, 103
21, 51911, Control_c, 3, 11, 102
21, 51972, Control_c, 3, 11, 101
21, 52032, Control_c, 3, 11, 100
21, 52093, Control_c, 3, 11, 99
21, 52153, Control_c, 3, 11, 98
21, 52213, Control_c, 3, 11, 97
21, 52274, Control_c, 3, 11, 96
21, 52319, Note_on_c, 3, 57, 0
21, 52319, Note_on_c, 3, 62, 0
21, 52319, Note_on_c, 3, 66, 0
21, 52320, Note_on_c, 3, 57, 100
21, 52320, Note_on_c, 3, 62, 100
21, 52320, Note_on_c, 3, 66, 100
21, 52334, Control_c, 3, 11, 95
21, 52395, Control_c, 3, 11, 94
21, 52455, Control_c, 3, 11, 93
21, 52516, Control_c, 3, 11, 92
21, 52576, Control_c, 3, 11, 91
21, 52637, Control_c, 3, 11, 90
21, 52697, Control_c, 3, 11, 89
21, 52758, Control_c, 3, 11, 88
21, 52799, Note_on_c, 3, 66, 0
21, 52799, Note_on_c, 3, 62, 0
21, 52799, Note_on_c, 3, 57, 0
21, 52800, Note_on_c, 3, 60, 100
21, 52800, Note_on_c, 3, 64, 100
21, 52800, Note_on_c, 3, 55, 100
21, 52818, Control_c, 3, 11, 87
21, 52879, Control_c, 3, 11, 86
21, 52939, Control_c, 3, 11, 85
21, 52999, Control_c, 3, 11, 84
21, 53060, Control_c, 3, 11, 83
21, 53120, Control_c, 3, 11, 82
21, 53181, Control_c, 3, 11, 81
21, 53241, Control_c, 3, 11, 80
21, 53279, Note_on_c, 3, 55, 0
21, 53279, Note_on_c, 3, 64, 0
21, 53279, Note_on_c, 3, 60, 0
21, 53280, Note_on_c, 3, 64, 100
21, 53280, Note_on_c, 3, 60, 100
21, 53280, Note_on_c, 3, 57, 100
21, 53302, Control_c, 3, 11, 79
21, 53362, Control_c, 3, 11, 78
21, 53423, Control_c, 3, 11, 77
21, 53483, Control_c, 3, 11, 76
21, 53544, Control_c, 3, 11, 75
21, 53604, Control_c, 3, 11, 74
21, 53665, Control_c, 3, 11, 73
21, 53725, Control_c, 3, 11, 72
21, 53759, Note_on_c, 3, 57, 0
21, 53759, Note_on_c, 3, 60, 0
21, 53759, Note_on_c, 3, 64, 0
21, 53760, Note_on_c, 3, 66, 100
21, 53760, Note_on_c, 3, 62, 100
21, 53760, Note_on_c, 3, 57, 100
21, 53786, Control_c, 3, 11, 71
21, 53846, Control_c, 3, 11, 70
21, 53906, Control_c, 3, 11, 69
21, 53967, Control_c, 3, 11, 68
21, 54027, Control_c, 3, 11, 67
21, 54088, Control_c, 3, 11, 66
21, 54148, Control_c, 3, 11, 65
21, 54209, Control_c, 3, 11, 64
21, 54239, Note_on_c, 3, 57, 0
21, 54239, Note_on_c, 3, 62, 0
21, 54239, Note_on_c, 3, 66, 0
21, 54240, Note_on_c, 3, 67, 100
21, 54240, Note_on_c, 3, 59, 100
21, 54240, Note_on_c, 3, 62, 100
21, 54269, Control_c, 3, 11, 63
21, 54330, Control_c, 3, 11, 62
21, 54390, Control_c, 3, 11, 61
21, 54451, Control_c, 3, 11, 60
21, 54511, Control_c, 3, 11, 59
21, 54572, Control_c, 3, 11, 58
21, 54632, Control_c, 3, 11, 57
21, 54692, Control_c, 3, 11, 56
21, 54719, Note_on_c, 3, 62, 0
21, 54719, Note_on_c, 3, 59, 0
21, 54719, Note_on_c, 3, 67, 0
21, 54720, Note_on_c, 3, 55, 100
21, 54720, Note_on_c, 3, 60, 100
21, 54720, Note_on_c, 3, 64, 100
21, 54753, Control_c, 3, 11, 55
21, 54813, Control_c, 3, 11, 54
21, 54874, Control_c, 3, 11, 53
21, 54934, Control_c, 3, 11, 52
21, 54995, Control_c, 3, 11, 51
21, 55055, Control_c, 3, 11, 50
21, 55116, Control_c, 3, 11, 49
21, 55176, Control_c, 3, 11, 48
21, 55199, Note_on_c, 3, 64, 0
21, 55199, Note_on_c, 3, 60, 0
21, 55199, Note_on_c, 3, 55, 0
21, 55200, Note_on_c, 3, 64, 100
21, 55200, Note_on_c, 3, 60, 100
21, 55200, Note_on_c, 3, 57, 100
21, 55237, Control_c, 3, 11, 47
21, 55297, Control_c, 3, 11, 46
21, 55358, Control_c, 3, 11, 45
21, 55418, Control_c, 3, 11, 44
21, 55479, Control_c, 3, 11, 43
21, 55539, Control_c, 3, 11, 42
21, 55599, Control_c, 3, 11, 41
21, 55660, Control_c, 3, 11, 40
21, 55679, Note_on_c, 3, 57, 0
21, 55679, Note_on_c, 3, 60, 0
21, 55679, Note_on_c, 3, 64, 0
21, 55680, Note_on_c, 3, 66, 100
21, 55680, Note_on_c, 3, 62, 100
21, 55680, Note_on_c, 3, 57, 100
21, 55720, Control_c, 3, 11, 39
21, 55781, Control_c, 3, 11, 38
21, 55841, Control_c, 3, 11, 37
21, 55902, Control_c, 3, 11, 36
21, 55962, Control_c, 3, 11, 35
21, 56023, Control_c, 3, 11, 34
21, 56083, Control_c, 3, 11, 33
21, 56144, Control_c, 3, 11, 32
21, 56159, Note_on_c, 3, 57, 0
21, 56159, Note_on_c, 3, 62, 0
21, 56159, Note_on_c, 3, 66, 0
21, 56160, Note_on_c, 3, 57, 100
21, 56160, Note_on_c, 3, 62, 100
21, 56160, Note_on_c, 3, 66, 100
21, 56204, Control_c, 3, 11, 31
21, 56265, Control_c, 3, 11, 30
21, 56325, Control_c, 3, 11, 29
21, 56385, Control_c, 3, 11, 28
21, 56446, Control_c, 3, 11, 27
21, 56506, Control_c, 3, 11, 26
21, 56567, Control_c, 3, 11, 25
21, 56627, Control_c, 3, 11, 24
21, 56639, Note_on_c, 3, 66, 0
21, 56639, Note_on_c, 3, 62, 0
21, 56639, Note_on_c, 3, 57, 0
21, 56640, Note_on_c, 3, 60, 100
21, 56640, Note_on_c, 3, 64, 100
21, 56640, Note_on_c, 3, 55, 100
21, 56688, Control_c, 3, 11, 23
21, 56748, Control_c, 3, 11, 22
21, 56809, Control_c, 3, 11, 21
21, 56869, Control_c, 3, 11, 20
21, 56930, Control_c, 3, 11, 19
21, 56990, Control_c, 3, 11, 18
21, 57051, Control_c, 3, 11, 17
21, 57111, Control_c, 3, 11, 16
21, 57119, Note_on_c, 3, 55, 0
21, 57119, Note_on_c, 3, 64, 0
21, 57119, Note_on_c, 3, 60, 0
21, 57120, Note_on_c, 3, 64, 100
21, 57120, Note_on_c, 3, 60, 100
21, 57120, Note_on_c, 3, 57, 100
21, 57172, Control_c, 3, 11, 15
21, 57232, Control_c, 3, 11, 14
21, 57292, Control_c, 3, 11, 13
21, 57353, Control_c, 3, 11, 12
21, 57413, Control_c, 3, 11, 11
21, 57474, Control_c, 3, 11, 10
21, 57534, Control_c, 3, 11, 9
21, 57595, Control_c, 3, 11, 8
21, 57599, Note_on_c, 3, 57, 0
21, 57599, Note_on_c, 3, 60, 0
21, 57599, Note_on_c, 3, 64, 0
21, 57600, Note_on_c, 3, 66, 100
21, 57600, Note_on_c, 3, 62, 100
21, 57600, Note_on_c, 3, 57, 100
21, 57655, Control_c, 3, 11, 7
21, 57716, Control_c, 3, 11, 6
21, 57776, Control_c, 3, 11, 5
21, 57837, Control_c, 3, 11, 4
21, 57897, Control_c, 3, 11, 3
21, 57958, Control_c, 3, 11, 2
21, 58018, Control_c, 3, 11, 1
21, 58079, Note_on_c, 3, 57, 0
21, 58079, Note_on_c, 3, 62, 0
21, 58079, Note_on_c, 3, 66, 0
21, 58079, Control_c, 3, 11, 0
21, 58079, End_track
22, 0, Start_track
22, 0, MIDI_port, 0
22, 0, Title_t, "string2"
22, 0, Control_c, 4, 0, 0
22, 0, Program_c, 4, 49
22, 0, Control_c, 4, 7, 80
22, 0, Control_c, 4, 10, 80
22, 4, Control_c, 4, 91, 100
22, 4, Control_c, 4, 93, 0
22, 4, Control_c, 4, 11, 127
22, 8130, Note_on_c, 4, 74, 100
22, 9089, Note_on_c, 4, 74, 0
22, 9090, Note_on_c, 4, 70, 100
22, 10049, Note_on_c, 4, 70, 0
22, 10050, Note_on_c, 4, 67, 100
22, 11009, Note_on_c, 4, 67, 0
22, 11010, Note_on_c, 4, 62, 100
22, 11969, Note_on_c, 4, 62, 0
22, 11970, Note_on_c, 4, 74, 100
22, 12929, Note_on_c, 4, 74, 0
22, 12930, Note_on_c, 4, 70, 100
22, 13889, Note_on_c, 4, 70, 0
22, 13890, Note_on_c, 4, 72, 100
22, 14849, Note_on_c, 4, 72, 0
22, 14850, Note_on_c, 4, 65, 100
22, 14850, Note_on_c, 4, 70, 100
22, 14850, Note_on_c, 4, 74, 100
22, 15329, Note_on_c, 4, 74, 0
22, 15329, Note_on_c, 4, 70, 0
22, 15329, Note_on_c, 4, 65, 0
22, 15330, Note_on_c, 4, 67, 100
22, 15330, Note_on_c, 4, 72, 100
22, 15330, Note_on_c, 4, 76, 100
22, 15809, Note_on_c, 4, 76, 0
22, 15809, Note_on_c, 4, 72, 0
22, 15809, Note_on_c, 4, 67, 0
22, 15810, Note_on_c, 4, 77, 100
22, 16289, Note_on_c, 4, 77, 0
22, 16290, Note_on_c, 4, 70, 100
22, 16769, Note_on_c, 4, 70, 0
22, 16770, Note_on_c, 4, 67, 100
22, 17249, Note_on_c, 4, 67, 0
22, 17250, Note_on_c, 4, 72, 100
22, 17729, Note_on_c, 4, 72, 0
22, 17730, Note_on_c, 4, 76, 100
22, 18209, Note_on_c, 4, 76, 0
22, 18210, Note_on_c, 4, 74, 100
22, 18689, Note_on_c, 4, 74, 0
22, 18690, Note_on_c, 4, 70, 100
22, 19169, Note_on_c, 4, 70, 0
22, 19170, Note_on_c, 4, 72, 100
22, 19649, Note_on_c, 4, 72, 0
22, 20610, Note_on_c, 4, 50, 100
22, 21569, Note_on_c, 4, 50, 0
22, 21570, Note_on_c, 4, 55, 100
22, 22529, Note_on_c, 4, 55, 0
22, 22530, Note_on_c, 4, 57, 100
22, 23489, Note_on_c, 4, 57, 0
22, 23490, Note_on_c, 4, 65, 100
22, 23490, Note_on_c, 4, 70, 100
22, 23490, Note_on_c, 4, 74, 100
22, 23969, Note_on_c, 4, 74, 0
22, 23969, Note_on_c, 4, 70, 0
22, 23969, Note_on_c, 4, 65, 0
22, 23970, Note_on_c, 4, 67, 100
22, 23970, Note_on_c, 4, 72, 100
22, 23970, Note_on_c, 4, 76, 100
22, 24449, Note_on_c, 4, 76, 0
22, 24449, Note_on_c, 4, 72, 0
22, 24449, Note_on_c, 4, 67, 0
22, 24450, Note_on_c, 4, 77, 100
22, 24929, Note_on_c, 4, 77, 0
22, 24930, Note_on_c, 4, 70, 100
22, 25409, Note_on_c, 4, 70, 0
22, 25410, Note_on_c, 4, 67, 100
22, 25889, Note_on_c, 4, 67, 0
22, 25890, Note_on_c, 4, 72, 100
22, 26369, Note_on_c, 4, 72, 0
22, 26370, Note_on_c, 4, 76, 100
22, 26849, Note_on_c, 4, 76, 0
22, 26850, Note_on_c, 4, 74, 100
22, 27329, Note_on_c, 4, 74, 0
22, 27330, Note_on_c, 4, 70, 100
22, 27809, Note_on_c, 4, 70, 0
22, 27810, Note_on_c, 4, 72, 100
22, 28289, Note_on_c, 4, 72, 0
22, 28300, Note_on_c, 4, 77, 100
22, 28770, Note_on_c, 4, 70, 100
22, 28779, Note_on_c, 4, 77, 0
22, 29249, Note_on_c, 4, 70, 0
22, 29250, Note_on_c, 4, 67, 100
22, 29729, Note_on_c, 4, 67, 0
22, 29730, Note_on_c, 4, 72, 100
22, 30209, Note_on_c, 4, 72, 0
22, 30210, Note_on_c, 4, 76, 100
22, 30240, Note_on_c, 4, 48, 100
22, 30240, Note_on_c, 4, 55, 100
22, 30240, Note_on_c, 4, 60, 100
22, 30240, Note_on_c, 4, 64, 100
22, 30689, Note_on_c, 4, 76, 0
22, 30719, Note_on_c, 4, 60, 0
22, 30719, Note_on_c, 4, 48, 0
22, 30719, Note_on_c, 4, 55, 0
22, 30719, Note_on_c, 4, 64, 0
22, 30720, Note_on_c, 4, 53, 100
22, 30720, Note_on_c, 4, 57, 100
22, 30720, Note_on_c, 4, 60, 100
22, 30720, Note_on_c, 4, 65, 100
22, 31199, Note_on_c, 4, 65, 0
22, 31199, Note_on_c, 4, 53, 0
22, 31199, Note_on_c, 4, 57, 0
22, 31199, Note_on_c, 4, 60, 0
22, 31200, Note_on_c, 4, 53, 100
22, 31200, Note_on_c, 4, 57, 100
22, 31200, Note_on_c, 4, 62, 100
22, 31200, Note_on_c, 4, 65, 100
22, 31679, Note_on_c, 4, 65, 0
22, 31679, Note_on_c, 4, 53, 0
22, 31679, Note_on_c, 4, 57, 0
22, 31679, Note_on_c, 4, 62, 0
22, 31680, Note_on_c, 4, 52, 100
22, 31680, Note_on_c, 4, 57, 100
22, 31680, Note_on_c, 4, 60, 100
22, 31680, Note_on_c, 4, 64, 100
22, 32130, Note_on_c, 4, 75, 90
22, 32130, Note_on_c, 4, 79, 90
22, 32130, Note_on_c, 4, 82, 90
22, 32159, Note_on_c, 4, 64, 0
22, 32159, Note_on_c, 4, 60, 0
22, 32159, Note_on_c, 4, 52, 0
22, 32159, Note_on_c, 4, 57, 0
22, 32609, Note_on_c, 4, 82, 0
22, 32609, Note_on_c, 4, 75, 0
22, 32609, Note_on_c, 4, 79, 0
22, 32610, Note_on_c, 4, 74, 90
22, 32610, Note_on_c, 4, 79, 90
22, 32610, Note_on_c, 4, 82, 90
22, 33089, Note_on_c, 4, 82, 0
22, 33089, Note_on_c, 4, 79, 0
22, 33089, Note_on_c, 4, 74, 0
22, 33090, Note_on_c, 4, 74, 90
22, 33090, Note_on_c, 4, 77, 90
22, 33090, Note_on_c, 4, 82, 90
22, 33569, Note_on_c, 4, 82, 0
22, 33569, Note_on_c, 4, 77, 0
22, 33569, Note_on_c, 4, 74, 0
22, 33570, Note_on_c, 4, 76, 90
22, 33570, Note_on_c, 4, 79, 90
22, 33570, Note_on_c, 4, 84, 90
22, 34529, Note_on_c, 4, 84, 0
22, 34529, Note_on_c, 4, 79, 0
22, 34529, Note_on_c, 4, 76, 0
22, 38380, Note_on_c, 4, 76, 100
22, 38850, Note_on_c, 4, 77, 100
22, 38859, Note_on_c, 4, 76, 0
22, 39329, Note_on_c, 4, 77, 0
22, 39330, Note_on_c, 4, 77, 100
22, 39809, Note_on_c, 4, 77, 0
22, 39810, Note_on_c, 4, 76, 100
22, 40289, Note_on_c, 4, 76, 0
22, 40290, Note_on_c, 4, 75, 90
22, 40290, Note_on_c, 4, 79, 90
22, 40290, Note_on_c, 4, 82, 90
22, 40769, Note_on_c, 4, 82, 0
22, 40769, Note_on_c, 4, 79, 0
22, 40769, Note_on_c, 4, 75, 0
22, 40770, Note_on_c, 4, 74, 90
22, 40770, Note_on_c, 4, 79, 90
22, 40770, Note_on_c, 4, 82, 90
22, 41249, Note_on_c, 4, 82, 0
22, 41249, Note_on_c, 4, 79, 0
22, 41249, Note_on_c, 4, 74, 0
22, 41250, Note_on_c, 4, 74, 90
22, 41250, Note_on_c, 4, 77, 90
22, 41250, Note_on_c, 4, 82, 90
22, 41729, Note_on_c, 4, 82, 0
22, 41729, Note_on_c, 4, 77, 0
22, 41729, Note_on_c, 4, 74, 0
22, 41730, Note_on_c, 4, 76, 90
22, 41730, Note_on_c, 4, 79, 90
22, 41730, Note_on_c, 4, 84, 90
22, 42689, Note_on_c, 4, 84, 0
22, 42689, Note_on_c, 4, 79, 0
22, 42689, Note_on_c, 4, 76, 0
22, 50370, Control_c, 4, 11, 127
22, 50430, Control_c, 4, 11, 126
22, 50490, Control_c, 4, 11, 125
22, 50551, Control_c, 4, 11, 124
22, 50611, Control_c, 4, 11, 123
22, 50672, Control_c, 4, 11, 122
22, 50732, Control_c, 4, 11, 121
22, 50793, Control_c, 4, 11, 120
22, 50853, Control_c, 4, 11, 119
22, 50914, Control_c, 4, 11, 118
22, 50974, Control_c, 4, 11, 117
22, 51035, Control_c, 4, 11, 116
22, 51095, Control_c, 4, 11, 115
22, 51156, Control_c, 4, 11, 114
22, 51216, Control_c, 4, 11, 113
22, 51276, Control_c, 4, 11, 112
22, 51337, Control_c, 4, 11, 111
22, 51397, Control_c, 4, 11, 110
22, 51458, Control_c, 4, 11, 109
22, 51518, Control_c, 4, 11, 108
22, 51579, Control_c, 4, 11, 107
22, 51639, Control_c, 4, 11, 106
22, 51700, Control_c, 4, 11, 105
22, 51760, Control_c, 4, 11, 104
22, 51821, Control_c, 4, 11, 103
22, 51881, Control_c, 4, 11, 102
22, 51942, Control_c, 4, 11, 101
22, 52002, Control_c, 4, 11, 100
22, 52063, Control_c, 4, 11, 99
22, 52123, Control_c, 4, 11, 98
22, 52183, Control_c, 4, 11, 97
22, 52244, Control_c, 4, 11, 96
22, 52304, Control_c, 4, 11, 95
22, 52365, Control_c, 4, 11, 94
22, 52425, Control_c, 4, 11, 93
22, 52486, Control_c, 4, 11, 92
22, 52546, Control_c, 4, 11, 91
22, 52607, Control_c, 4, 11, 90
22, 52667, Control_c, 4, 11, 89
22, 52728, Control_c, 4, 11, 88
22, 52788, Control_c, 4, 11, 87
22, 52849, Control_c, 4, 11, 86
22, 52909, Control_c, 4, 11, 85
22, 52969, Control_c, 4, 11, 84
22, 53030, Control_c, 4, 11, 83
22, 53090, Control_c, 4, 11, 82
22, 53151, Control_c, 4, 11, 81
22, 53211, Control_c, 4, 11, 80
22, 53272, Control_c, 4, 11, 79
22, 53332, Control_c, 4, 11, 78
22, 53393, Control_c, 4, 11, 77
22, 53453, Control_c, 4, 11, 76
22, 53514, Control_c, 4, 11, 75
22, 53574, Control_c, 4, 11, 74
22, 53635, Control_c, 4, 11, 73
22, 53695, Control_c, 4, 11, 72
22, 53756, Control_c, 4, 11, 71
22, 53816, Control_c, 4, 11, 70
22, 53876, Control_c, 4, 11, 69
22, 53937, Control_c, 4, 11, 68
22, 53997, Control_c, 4, 11, 67
22, 54058, Control_c, 4, 11, 66
22, 54118, Control_c, 4, 11, 65
22, 54179, Control_c, 4, 11, 64
22, 54239, Control_c, 4, 11, 63
22, 54300, Control_c, 4, 11, 62
22, 54360, Control_c, 4, 11, 61
22, 54421, Control_c, 4, 11, 60
22, 54481, Control_c, 4, 11, 59
22, 54542, Control_c, 4, 11, 58
22, 54602, Control_c, 4, 11, 57
22, 54662, Control_c, 4, 11, 56
22, 54723, Control_c, 4, 11, 55
22, 54783, Control_c, 4, 11, 54
22, 54844, Control_c, 4, 11, 53
22, 54904, Control_c, 4, 11, 52
22, 54965, Control_c, 4, 11, 51
22, 55025, Control_c, 4, 11, 50
22, 55086, Control_c, 4, 11, 49
22, 55146, Control_c, 4, 11, 48
22, 55207, Control_c, 4, 11, 47
22, 55267, Control_c, 4, 11, 46
22, 55328, Control_c, 4, 11, 45
22, 55388, Control_c, 4, 11, 44
22, 55449, Control_c, 4, 11, 43
22, 55509, Control_c, 4, 11, 42
22, 55569, Control_c, 4, 11, 41
22, 55630, Control_c, 4, 11, 40
22, 55690, Control_c, 4, 11, 39
22, 55751, Control_c, 4, 11, 38
22, 55811, Control_c, 4, 11, 37
22, 55872, Control_c, 4, 11, 36
22, 55932, Control_c, 4, 11, 35
22, 55993, Control_c, 4, 11, 34
22, 56053, Control_c, 4, 11, 33
22, 56114, Control_c, 4, 11, 32
22, 56174, Control_c, 4, 11, 31
22, 56235, Control_c, 4, 11, 30
22, 56295, Control_c, 4, 11, 29
22, 56355, Control_c, 4, 11, 28
22, 56416, Control_c, 4, 11, 27
22, 56476, Control_c, 4, 11, 26
22, 56537, Control_c, 4, 11, 25
22, 56597, Control_c, 4, 11, 24
22, 56658, Control_c, 4, 11, 23
22, 56718, Control_c, 4, 11, 22
22, 56779, Control_c, 4, 11, 21
22, 56839, Control_c, 4, 11, 20
22, 56900, Control_c, 4, 11, 19
22, 56960, Control_c, 4, 11, 18
22, 57021, Control_c, 4, 11, 17
22, 57081, Control_c, 4, 11, 16
22, 57142, Control_c, 4, 11, 15
22, 57202, Control_c, 4, 11, 14
22, 57262, Control_c, 4, 11, 13
22, 57323, Control_c, 4, 11, 12
22, 57383, Control_c, 4, 11, 11
22, 57444, Control_c, 4, 11, 10
22, 57504, Control_c, 4, 11, 9
22, 57565, Control_c, 4, 11, 8
22, 57625, Control_c, 4, 11, 7
22, 57686, Control_c, 4, 11, 6
22, 57746, Control_c, 4, 11, 5
22, 57807, Control_c, 4, 11, 4
22, 57867, Control_c, 4, 11, 3
22, 57928, Control_c, 4, 11, 2
22, 57988, Control_c, 4, 11, 1
22, 58049, Control_c, 4, 11, 0
22, 58049, End_track
23, 0, Start_track
23, 0, MIDI_port, 0
23, 0, Title_t, "string melody"
23, 0, Control_c, 6, 0, 0
23, 0, Program_c, 6, 48
23, 0, Control_c, 6, 7, 70
23, 0, Control_c, 6, 10, 50
23, 0, Control_c, 6, 91, 100
23, 0, Control_c, 6, 93, 40
23, 0, Control_c, 6, 11, 127
23, 34560, Note_on_c, 6, 65, 100
23, 34560, Note_on_c, 6, 77, 100
23, 34619, Note_on_c, 6, 65, 0
23, 35039, Note_on_c, 6, 77, 0
23, 35040, Note_on_c, 6, 70, 100
23, 35279, Note_on_c, 6, 70, 0
23, 35280, Note_on_c, 6, 69, 100
23, 35519, Note_on_c, 6, 69, 0
23, 35520, Note_on_c, 6, 67, 100
23, 35729, Note_on_c, 6, 67, 0
23, 35730, Note_on_c, 6, 62, 100
23, 35759, Note_on_c, 6, 62, 0
23, 35760, Note_on_c, 6, 67, 100
23, 35800, Note_on_c, 6, 69, 100
23, 35820, Note_on_c, 6, 67, 0
23, 35860, Note_on_c, 6, 69, 0
23, 35860, Note_on_c, 6, 70, 100
23, 35920, Note_on_c, 6, 70, 0
23, 35920, Note_on_c, 6, 67, 100
23, 35980, Note_on_c, 6, 67, 0
23, 35980, Note_on_c, 6, 72, 100
23, 36479, Note_on_c, 6, 72, 0
23, 36480, Note_on_c, 6, 76, 100
23, 36899, Note_on_c, 6, 76, 0
23, 36900, Note_on_c, 6, 74, 100
23, 36929, Note_on_c, 6, 74, 0
23, 36930, Note_on_c, 6, 76, 100
23, 36959, Note_on_c, 6, 76, 0
23, 36960, Note_on_c, 6, 77, 100
23, 37019, Note_on_c, 6, 77, 0
23, 37020, Note_on_c, 6, 76, 100
23, 37049, Note_on_c, 6, 76, 0
23, 37050, Note_on_c, 6, 74, 100
23, 37379, Note_on_c, 6, 74, 0
23, 37380, Note_on_c, 6, 74, 100
23, 37409, Note_on_c, 6, 74, 0
23, 37410, Note_on_c, 6, 72, 100
23, 37439, Note_on_c, 6, 72, 0
23, 37440, Note_on_c, 6, 74, 100
23, 37469, Note_on_c, 6, 74, 0
23, 37470, Note_on_c, 6, 72, 100
23, 37529, Note_on_c, 6, 72, 0
23, 37530, Note_on_c, 6, 70, 100
23, 37680, Note_on_c, 6, 69, 100
23, 37689, Note_on_c, 6, 70, 0
23, 37759, Note_on_c, 6, 69, 0
23, 37760, Note_on_c, 6, 70, 100
23, 37839, Note_on_c, 6, 70, 0
23, 37840, Note_on_c, 6, 69, 100
23, 37919, Note_on_c, 6, 69, 0
23, 37920, Note_on_c, 6, 67, 100
23, 38039, Note_on_c, 6, 67, 0
23, 38040, Note_on_c, 6, 79, 100
23, 38399, Note_on_c, 6, 79, 0
23, 42720, Note_on_c, 6, 79, 100
23, 43199, Note_on_c, 6, 79, 0
23, 43200, Note_on_c, 6, 72, 100
23, 43439, Note_on_c, 6, 72, 0
23, 43440, Note_on_c, 6, 71, 100
23, 43679, Note_on_c, 6, 71, 0
23, 43680, Note_on_c, 6, 69, 100
23, 43889, Note_on_c, 6, 69, 0
23, 43900, Note_on_c, 6, 64, 100
23, 43920, Note_on_c, 6, 69, 100
23, 43929, Note_on_c, 6, 64, 0
23, 43959, Note_on_c, 6, 69, 0
23, 43960, Note_on_c, 6, 71, 100
23, 44020, Note_on_c, 6, 72, 100
23, 44029, Note_on_c, 6, 71, 0
23, 44079, Note_on_c, 6, 72, 0
23, 44080, Note_on_c, 6, 69, 100
23, 44139, Note_on_c, 6, 69, 0
23, 44140, Note_on_c, 6, 74, 100
23, 44640, Note_on_c, 6, 78, 100
23, 44649, Note_on_c, 6, 74, 0
23, 45059, Note_on_c, 6, 78, 0
23, 45060, Note_on_c, 6, 76, 100
23, 45089, Note_on_c, 6, 76, 0
23, 45090, Note_on_c, 6, 78, 100
23, 45119, Note_on_c, 6, 78, 0
23, 45120, Note_on_c, 6, 79, 100
23, 45179, Note_on_c, 6, 79, 0
23, 45180, Note_on_c, 6, 78, 100
23, 45209, Note_on_c, 6, 78, 0
23, 45210, Note_on_c, 6, 76, 100
23, 45539, Note_on_c, 6, 76, 0
23, 45540, Note_on_c, 6, 76, 100
23, 45569, Note_on_c, 6, 76, 0
23, 45570, Note_on_c, 6, 74, 100
23, 45599, Note_on_c, 6, 74, 0
23, 45600, Note_on_c, 6, 76, 100
23, 45629, Note_on_c, 6, 76, 0
23, 45630, Note_on_c, 6, 74, 100
23, 45689, Note_on_c, 6, 74, 0
23, 45690, Note_on_c, 6, 72, 100
23, 45840, Note_on_c, 6, 71, 100
23, 45849, Note_on_c, 6, 72, 0
23, 45919, Note_on_c, 6, 71, 0
23, 45930, Note_on_c, 6, 72, 100
23, 45959, Note_on_c, 6, 72, 0
23, 46000, Note_on_c, 6, 72, 100
23, 46020, Note_on_c, 6, 71, 100
23, 46029, Note_on_c, 6, 72, 0
23, 46080, Note_on_c, 6, 69, 100
23, 46099, Note_on_c, 6, 71, 0
23, 46199, Note_on_c, 6, 69, 0
23, 46200, Note_on_c, 6, 81, 100
23, 46544, Note_on_c, 6, 81, 0
23, 46560, Note_on_c, 6, 79, 100
23, 47039, Note_on_c, 6, 79, 0
23, 47040, Note_on_c, 6, 72, 100
23, 47279, Note_on_c, 6, 72, 0
23, 47280, Note_on_c, 6, 71, 100
23, 47519, Note_on_c, 6, 71, 0
23, 47520, Note_on_c, 6, 69, 100
23, 47729, Note_on_c, 6, 69, 0
23, 47740, Note_on_c, 6, 64, 100
23, 47760, Note_on_c, 6, 69, 100
23, 47769, Note_on_c, 6, 64, 0
23, 47799, Note_on_c, 6, 69, 0
23, 47800, Note_on_c, 6, 71, 100
23, 47860, Note_on_c, 6, 72, 100
23, 47869, Note_on_c, 6, 71, 0
23, 47919, Note_on_c, 6, 72, 0
23, 47920, Note_on_c, 6, 69, 100
23, 47979, Note_on_c, 6, 69, 0
23, 47980, Note_on_c, 6, 74, 100
23, 48480, Note_on_c, 6, 78, 100
23, 48489, Note_on_c, 6, 74, 0
23, 48899, Note_on_c, 6, 78, 0
23, 48900, Note_on_c, 6, 76, 100
23, 48929, Note_on_c, 6, 76, 0
23, 48930, Note_on_c, 6, 78, 100
23, 48959, Note_on_c, 6, 78, 0
23, 48960, Note_on_c, 6, 79, 100
23, 49019, Note_on_c, 6, 79, 0
23, 49020, Note_on_c, 6, 78, 100
23, 49049, Note_on_c, 6, 78, 0
23, 49050, Note_on_c, 6, 76, 100
23, 49379, Note_on_c, 6, 76, 0
23, 49380, Note_on_c, 6, 76, 100
23, 49409, Note_on_c, 6, 76, 0
23, 49410, Note_on_c, 6, 74, 100
23, 49439, Note_on_c, 6, 74, 0
23, 49440, Note_on_c, 6, 76, 100
23, 49469, Note_on_c, 6, 76, 0
23, 49470, Note_on_c, 6, 74, 100
23, 49529, Note_on_c, 6, 74, 0
23, 49530, Note_on_c, 6, 72, 100
23, 49680, Note_on_c, 6, 71, 100
23, 49689, Note_on_c, 6, 72, 0
23, 49759, Note_on_c, 6, 71, 0
23, 49770, Note_on_c, 6, 72, 100
23, 49799, Note_on_c, 6, 72, 0
23, 49840, Note_on_c, 6, 72, 100
23, 49860, Note_on_c, 6, 71, 100
23, 49869, Note_on_c, 6, 72, 0
23, 49920, Note_on_c, 6, 69, 100
23, 49939, Note_on_c, 6, 71, 0
23, 50039, Note_on_c, 6, 69, 0
23, 50040, Note_on_c, 6, 81, 100
23, 50384, Note_on_c, 6, 81, 0
23, 50400, Control_c, 6, 11, 127
23, 50400, Note_on_c, 6, 67, 100
23, 50400, Note_on_c, 6, 79, 100
23, 50459, Note_on_c, 6, 67, 0
23, 50460, Control_c, 6, 11, 126
23, 50520, Control_c, 6, 11, 125
23, 50581, Control_c, 6, 11, 124
23, 50641, Control_c, 6, 11, 123
23, 50702, Control_c, 6, 11, 122
23, 50762, Control_c, 6, 11, 121
23, 50823, Control_c, 6, 11, 120
23, 50879, Note_on_c, 6, 79, 0
23, 50880, Note_on_c, 6, 72, 100
23, 50883, Control_c, 6, 11, 119
23, 50944, Control_c, 6, 11, 118
23, 51004, Control_c, 6, 11, 117
23, 51065, Control_c, 6, 11, 116
23, 51119, Note_on_c, 6, 72, 0
23, 51120, Note_on_c, 6, 71, 100
23, 51125, Control_c, 6, 11, 115
23, 51186, Control_c, 6, 11, 114
23, 51246, Control_c, 6, 11, 113
23, 51306, Control_c, 6, 11, 112
23, 51359, Note_on_c, 6, 71, 0
23, 51360, Note_on_c, 6, 69, 100
23, 51367, Control_c, 6, 11, 111
23, 51427, Control_c, 6, 11, 110
23, 51488, Control_c, 6, 11, 109
23, 51548, Control_c, 6, 11, 108
23, 51569, Note_on_c, 6, 69, 0
23, 51570, Note_on_c, 6, 64, 100
23, 51599, Note_on_c, 6, 64, 0
23, 51600, Note_on_c, 6, 69, 100
23, 51609, Control_c, 6, 11, 107
23, 51640, Note_on_c, 6, 71, 100
23, 51660, Note_on_c, 6, 69, 0
23, 51669, Control_c, 6, 11, 106
23, 51700, Note_on_c, 6, 71, 0
23, 51700, Note_on_c, 6, 72, 100
23, 51730, Control_c, 6, 11, 105
23, 51760, Note_on_c, 6, 72, 0
23, 51760, Note_on_c, 6, 69, 100
23, 51790, Control_c, 6, 11, 104
23, 51820, Note_on_c, 6, 69, 0
23, 51820, Note_on_c, 6, 74, 100
23, 51851, Control_c, 6, 11, 103
23, 51911, Control_c, 6, 11, 102
23, 51972, Control_c, 6, 11, 101
23, 52032, Control_c, 6, 11, 100
23, 52093, Control_c, 6, 11, 99
23, 52153, Control_c, 6, 11, 98
23, 52213, Control_c, 6, 11, 97
23, 52274, Control_c, 6, 11, 96
23, 52319, Note_on_c, 6, 74, 0
23, 52320, Note_on_c, 6, 78, 100
23, 52334, Control_c, 6, 11, 95
23, 52395, Control_c, 6, 11, 94
23, 52455, Control_c, 6, 11, 93
23, 52516, Control_c, 6, 11, 92
23, 52576, Control_c, 6, 11, 91
23, 52637, Control_c, 6, 11, 90
23, 52697, Control_c, 6, 11, 89
23, 52739, Note_on_c, 6, 78, 0
23, 52740, Note_on_c, 6, 76, 100
23, 52758, Control_c, 6, 11, 88
23, 52769, Note_on_c, 6, 76, 0
23, 52770, Note_on_c, 6, 78, 100
23, 52799, Note_on_c, 6, 78, 0
23, 52800, Note_on_c, 6, 79, 100
23, 52818, Control_c, 6, 11, 87
23, 52859, Note_on_c, 6, 79, 0
23, 52860, Note_on_c, 6, 78, 100
23, 52879, Control_c, 6, 11, 86
23, 52889, Note_on_c, 6, 78, 0
23, 52890, Note_on_c, 6, 76, 100
23, 52939, Control_c, 6, 11, 85
23, 52999, Control_c, 6, 11, 84
23, 53060, Control_c, 6, 11, 83
23, 53120, Control_c, 6, 11, 82
23, 53181, Control_c, 6, 11, 81
23, 53219, Note_on_c, 6, 76, 0
23, 53220, Note_on_c, 6, 76, 100
23, 53241, Control_c, 6, 11, 80
23, 53249, Note_on_c, 6, 76, 0
23, 53250, Note_on_c, 6, 74, 100
23, 53279, Note_on_c, 6, 74, 0
23, 53280, Note_on_c, 6, 76, 100
23, 53302, Control_c, 6, 11, 79
23, 53309, Note_on_c, 6, 76, 0
23, 53310, Note_on_c, 6, 74, 100
23, 53362, Control_c, 6, 11, 78
23, 53369, Note_on_c, 6, 74, 0
23, 53370, Note_on_c, 6, 72, 100
23, 53423, Control_c, 6, 11, 77
23, 53483, Control_c, 6, 11, 76
23, 53520, Note_on_c, 6, 71, 100
23, 53529, Note_on_c, 6, 72, 0
23, 53544, Control_c, 6, 11, 75
23, 53599, Note_on_c, 6, 71, 0
23, 53600, Note_on_c, 6, 72, 100
23, 53604, Control_c, 6, 11, 74
23, 53665, Control_c, 6, 11, 73
23, 53679, Note_on_c, 6, 72, 0
23, 53680, Note_on_c, 6, 71, 100
23, 53725, Control_c, 6, 11, 72
23, 53759, Note_on_c, 6, 71, 0
23, 53760, Note_on_c, 6, 69, 100
23, 53786, Control_c, 6, 11, 71
23, 53846, Control_c, 6, 11, 70
23, 53879, Note_on_c, 6, 69, 0
23, 53880, Note_on_c, 6, 81, 100
23, 53906, Control_c, 6, 11, 69
23, 53967, Control_c, 6, 11, 68
23, 54027, Control_c, 6, 11, 67
23, 54088, Control_c, 6, 11, 66
23, 54148, Control_c, 6, 11, 65
23, 54209, Control_c, 6, 11, 64
23, 54239, Note_on_c, 6, 81, 0
23, 54240, Note_on_c, 6, 67, 100
23, 54240, Note_on_c, 6, 79, 100
23, 54269, Control_c, 6, 11, 63
23, 54299, Note_on_c, 6, 67, 0
23, 54330, Control_c, 6, 11, 62
23, 54390, Control_c, 6, 11, 61
23, 54451, Control_c, 6, 11, 60
23, 54511, Control_c, 6, 11, 59
23, 54572, Control_c, 6, 11, 58
23, 54632, Control_c, 6, 11, 57
23, 54692, Control_c, 6, 11, 56
23, 54719, Note_on_c, 6, 79, 0
23, 54720, Note_on_c, 6, 72, 100
23, 54753, Control_c, 6, 11, 55
23, 54813, Control_c, 6, 11, 54
23, 54874, Control_c, 6, 11, 53
23, 54934, Control_c, 6, 11, 52
23, 54959, Note_on_c, 6, 72, 0
23, 54960, Note_on_c, 6, 71, 100
23, 54995, Control_c, 6, 11, 51
23, 55055, Control_c, 6, 11, 50
23, 55116, Control_c, 6, 11, 49
23, 55176, Control_c, 6, 11, 48
23, 55199, Note_on_c, 6, 71, 0
23, 55200, Note_on_c, 6, 69, 100
23, 55237, Control_c, 6, 11, 47
23, 55297, Control_c, 6, 11, 46
23, 55358, Control_c, 6, 11, 45
23, 55409, Note_on_c, 6, 69, 0
23, 55410, Note_on_c, 6, 64, 100
23, 55418, Control_c, 6, 11, 44
23, 55439, Note_on_c, 6, 64, 0
23, 55440, Note_on_c, 6, 69, 100
23, 55479, Control_c, 6, 11, 43
23, 55480, Note_on_c, 6, 71, 100
23, 55500, Note_on_c, 6, 69, 0
23, 55539, Control_c, 6, 11, 42
23, 55540, Note_on_c, 6, 71, 0
23, 55540, Note_on_c, 6, 72, 100
23, 55599, Control_c, 6, 11, 41
23, 55600, Note_on_c, 6, 72, 0
23, 55600, Note_on_c, 6, 69, 100
23, 55660, Note_on_c, 6, 69, 0
23, 55660, Control_c, 6, 11, 40
23, 55660, Note_on_c, 6, 74, 100
23, 55720, Control_c, 6, 11, 39
23, 55781, Control_c, 6, 11, 38
23, 55841, Control_c, 6, 11, 37
23, 55902, Control_c, 6, 11, 36
23, 55962, Control_c, 6, 11, 35
23, 56023, Control_c, 6, 11, 34
23, 56083, Control_c, 6, 11, 33
23, 56144, Control_c, 6, 11, 32
23, 56159, Note_on_c, 6, 74, 0
23, 56160, Note_on_c, 6, 78, 100
23, 56204, Control_c, 6, 11, 31
23, 56265, Control_c, 6, 11, 30
23, 56325, Control_c, 6, 11, 29
23, 56385, Control_c, 6, 11, 28
23, 56446, Control_c, 6, 11, 27
23, 56506, Control_c, 6, 11, 26
23, 56567, Control_c, 6, 11, 25
23, 56579, Note_on_c, 6, 78, 0
23, 56580, Note_on_c, 6, 76, 100
23, 56609, Note_on_c, 6, 76, 0
23, 56610, Note_on_c, 6, 78, 100
23, 56627, Control_c, 6, 11, 24
23, 56639, Note_on_c, 6, 78, 0
23, 56640, Note_on_c, 6, 79, 100
23, 56688, Control_c, 6, 11, 23
23, 56699, Note_on_c, 6, 79, 0
23, 56700, Note_on_c, 6, 78, 100
23, 56729, Note_on_c, 6, 78, 0
23, 56730, Note_on_c, 6, 76, 100
23, 56748, Control_c, 6, 11, 22
23, 56809, Control_c, 6, 11, 21
23, 56869, Control_c, 6, 11, 20
23, 56930, Control_c, 6, 11, 19
23, 56990, Control_c, 6, 11, 18
23, 57051, Control_c, 6, 11, 17
23, 57059, Note_on_c, 6, 76, 0
23, 57060, Note_on_c, 6, 76, 100
23, 57089, Note_on_c, 6, 76, 0
23, 57090, Note_on_c, 6, 74, 100
23, 57111, Control_c, 6, 11, 16
23, 57119, Note_on_c, 6, 74, 0
23, 57120, Note_on_c, 6, 76, 100
23, 57149, Note_on_c, 6, 76, 0
23, 57150, Note_on_c, 6, 74, 100
23, 57172, Control_c, 6, 11, 15
23, 57209, Note_on_c, 6, 74, 0
23, 57210, Note_on_c, 6, 72, 100
23, 57232, Control_c, 6, 11, 14
23, 57292, Control_c, 6, 11, 13
23, 57353, Control_c, 6, 11, 12
23, 57360, Note_on_c, 6, 71, 100
23, 57369, Note_on_c, 6, 72, 0
23, 57413, Control_c, 6, 11, 11
23, 57439, Note_on_c, 6, 71, 0
23, 57440, Note_on_c, 6, 72, 100
23, 57474, Control_c, 6, 11, 10
23, 57519, Note_on_c, 6, 72, 0
23, 57520, Note_on_c, 6, 71, 100
23, 57534, Control_c, 6, 11, 9
23, 57595, Control_c, 6, 11, 8
23, 57599, Note_on_c, 6, 71, 0
23, 57600, Note_on_c, 6, 69, 100
23, 57655, Control_c, 6, 11, 7
23, 57716, Control_c, 6, 11, 6
23, 57719, Note_on_c, 6, 69, 0
23, 57720, Note_on_c, 6, 81, 100
23, 57776, Control_c, 6, 11, 5
23, 57837, Control_c, 6, 11, 4
23, 57897, Control_c, 6, 11, 3
23, 57958, Control_c, 6, 11, 2
23, 58018, Control_c, 6, 11, 1
23, 58079, Note_on_c, 6, 81, 0
23, 58079, Control_c, 6, 11, 0
23, 58079, End_track
24, 0, Start_track
24, 0, MIDI_port, 0
24, 0, Title_t, "bass string"
24, 0, Control_c, 10, 0, 0
24, 0, Program_c, 10, 50
24, 0, Control_c, 10, 7, 70
24, 0, Control_c, 10, 10, 64
24, 4, Control_c, 10, 91, 63
24, 4, Control_c, 10, 93, 11
24, 4, Control_c, 10, 11, 127
24, 30240, Note_on_c, 10, 48, 120
24, 30719, Note_on_c, 10, 48, 0
24, 30720, Note_on_c, 10, 53, 120
24, 31199, Note_on_c, 10, 53, 0
24, 31200, Note_on_c, 10, 45, 120
24, 31679, Note_on_c, 10, 45, 0
24, 31680, Note_on_c, 10, 45, 120
24, 32159, Note_on_c, 10, 45, 0
24, 32160, Note_on_c, 10, 51, 120
24, 32639, Note_on_c, 10, 51, 0
24, 32640, Note_on_c, 10, 43, 120
24, 33119, Note_on_c, 10, 43, 0
24, 33120, Note_on_c, 10, 46, 120
24, 33599, Note_on_c, 10, 46, 0
24, 33600, Note_on_c, 10, 48, 120
24, 34559, Note_on_c, 10, 48, 0
24, 38400, Note_on_c, 10, 48, 120
24, 38879, Note_on_c, 10, 48, 0
24, 38880, Note_on_c, 10, 53, 120
24, 39359, Note_on_c, 10, 53, 0
24, 39360, Note_on_c, 10, 45, 120
24, 39839, Note_on_c, 10, 45, 0
24, 39840, Note_on_c, 10, 45, 120
24, 40319, Note_on_c, 10, 45, 0
24, 40320, Note_on_c, 10, 51, 120
24, 40799, Note_on_c, 10, 51, 0
24, 40800, Note_on_c, 10, 43, 120
24, 41279, Note_on_c, 10, 43, 0
24, 41280, Note_on_c, 10, 46, 120
24, 41759, Note_on_c, 10, 46, 0
24, 41760, Note_on_c, 10, 48, 120
24, 42719, Note_on_c, 10, 48, 0
24, 42719, End_track
25, 0, Start_track
25, 0, MIDI_port, 0
25, 0, Title_t, "bass string"
25, 30240, Note_on_c, 10, 36, 120
25, 30719, Note_on_c, 10, 36, 0
25, 30720, Note_on_c, 10, 41, 120
25, 31199, Note_on_c, 10, 41, 0
25, 31200, Note_on_c, 10, 33, 120
25, 31679, Note_on_c, 10, 33, 0
25, 31680, Note_on_c, 10, 33, 120
25, 32159, Note_on_c, 10, 33, 0
25, 32160, Note_on_c, 10, 39, 120
25, 32639, Note_on_c, 10, 39, 0
25, 32640, Note_on_c, 10, 31, 120
25, 33119, Note_on_c, 10, 31, 0
25, 33120, Note_on_c, 10, 34, 120
25, 33599, Note_on_c, 10, 34, 0
25, 33600, Note_on_c, 10, 36, 120
25, 34559, Note_on_c, 10, 36, 0
25, 38400, Note_on_c, 10, 36, 120
25, 38879, Note_on_c, 10, 36, 0
25, 38880, Note_on_c, 10, 41, 120
25, 39359, Note_on_c, 10, 41, 0
25, 39360, Note_on_c, 10, 33, 120
25, 39839, Note_on_c, 10, 33, 0
25, 39840, Note_on_c, 10, 33, 120
25, 40319, Note_on_c, 10, 33, 0
25, 40320, Note_on_c, 10, 39, 120
25, 40799, Note_on_c, 10, 39, 0
25, 40800, Note_on_c, 10, 31, 120
25, 41279, Note_on_c, 10, 31, 0
25, 41280, Note_on_c, 10, 34, 120
25, 41759, Note_on_c, 10, 34, 0
25, 41760, Note_on_c, 10, 36, 120
25, 42719, Note_on_c, 10, 36, 0
25, 42719, End_track
26, 0, Start_track
26, 0, MIDI_port, 0
26, 0, Title_t, "voice guide"
26, 0, Control_c, 11, 0, 0
26, 0, Program_c, 11, 54
26, 0, Control_c, 11, 7, 100
26, 0, Control_c, 11, 10, 64
26, 0, Control_c, 11, 91, 127
26, 0, Control_c, 11, 93, 10
26, 0, Control_c, 11, 11, 127
26, 8340, Note_on_c, 11, 69, 100
26, 8400, Note_on_c, 11, 69, 0
26, 8400, Note_on_c, 11, 77, 100
26, 8460, Note_on_c, 11, 77, 0
26, 8460, Note_on_c, 11, 76, 100
26, 8520, Note_on_c, 11, 76, 0
26, 8520, Note_on_c, 11, 77, 100
26, 8580, Note_on_c, 11, 77, 0
26, 8580, Note_on_c, 11, 76, 100
26, 8670, Note_on_c, 11, 76, 0
26, 8700, Note_on_c, 11, 74, 100
26, 8820, Note_on_c, 11, 74, 0
26, 8820, Note_on_c, 11, 76, 100
26, 8940, Note_on_c, 11, 76, 0
26, 8940, Note_on_c, 11, 77, 100
26, 9270, Note_on_c, 11, 77, 0
26, 9300, Note_on_c, 11, 69, 100
26, 9360, Note_on_c, 11, 69, 0
26, 9360, Note_on_c, 11, 77, 100
26, 9420, Note_on_c, 11, 77, 0
26, 9420, Note_on_c, 11, 76, 100
26, 9480, Note_on_c, 11, 76, 0
26, 9480, Note_on_c, 11, 77, 100
26, 9540, Note_on_c, 11, 77, 0
26, 9540, Note_on_c, 11, 76, 100
26, 9660, Note_on_c, 11, 76, 0
26, 9660, Note_on_c, 11, 74, 100
26, 9780, Note_on_c, 11, 74, 0
26, 9780, Note_on_c, 11, 77, 100
26, 10170, Note_on_c, 11, 77, 0
26, 10260, Note_on_c, 11, 69, 100
26, 10320, Note_on_c, 11, 69, 0
26, 10320, Note_on_c, 11, 76, 100
26, 10380, Note_on_c, 11, 76, 0
26, 10380, Note_on_c, 11, 74, 100
26, 10440, Note_on_c, 11, 74, 0
26, 10440, Note_on_c, 11, 76, 100
26, 10500, Note_on_c, 11, 76, 0
26, 10500, Note_on_c, 11, 74, 100
26, 10590, Note_on_c, 11, 74, 0
26, 10620, Note_on_c, 11, 72, 100
26, 10740, Note_on_c, 11, 72, 0
26, 10740, Note_on_c, 11, 77, 100
26, 11070, Note_on_c, 11, 77, 0
26, 11100, Note_on_c, 11, 76, 100
26, 11220, Note_on_c, 11, 76, 0
26, 11220, Note_on_c, 11, 74, 100
26, 11520, Note_on_c, 11, 81, 70
26, 11579, Note_on_c, 11, 81, 0
26, 11580, Note_on_c, 11, 79, 70
26, 11639, Note_on_c, 11, 79, 0
26, 11640, Note_on_c, 11, 77, 70
26, 11699, Note_on_c, 11, 77, 0
26, 11700, Note_on_c, 11, 79, 70
26, 11879, Note_on_c, 11, 79, 0
26, 11880, Note_on_c, 11, 81, 70
26, 11999, Note_on_c, 11, 81, 0
26, 11999, Note_on_c, 11, 74, 0
26, 12180, Note_on_c, 11, 69, 100
26, 12210, Note_on_c, 11, 69, 0
26, 12240, Note_on_c, 11, 77, 100
26, 12240, Note_on_c, 11, 81, 100
26, 12299, Note_on_c, 11, 77, 0
26, 12300, Note_on_c, 11, 81, 0
26, 12300, Note_on_c, 11, 79, 100
26, 12300, Note_on_c, 11, 76, 100
26, 12359, Note_on_c, 11, 76, 0
26, 12360, Note_on_c, 11, 79, 0
26, 12360, Note_on_c, 11, 77, 100
26, 12360, Note_on_c, 11, 81, 100
26, 12419, Note_on_c, 11, 81, 0
26, 12419, Note_on_c, 11, 77, 0
26, 12420, Note_on_c, 11, 76, 100
26, 12420, Note_on_c, 11, 79, 100
26, 12539, Note_on_c, 11, 79, 0
26, 12539, Note_on_c, 11, 76, 0
26, 12540, Note_on_c, 11, 74, 100
26, 12540, Note_on_c, 11, 77, 100
26, 12630, Note_on_c, 11, 77, 0
26, 12630, Note_on_c, 11, 74, 0
26, 12660, Note_on_c, 11, 76, 100
26, 12660, Note_on_c, 11, 79, 100
26, 12750, Note_on_c, 11, 79, 0
26, 12750, Note_on_c, 11, 76, 0
26, 12780, Note_on_c, 11, 77, 100
26, 12780, Note_on_c, 11, 81, 100
26, 12959, Note_on_c, 11, 81, 0
26, 12959, Note_on_c, 11, 77, 0
26, 13140, Note_on_c, 11, 69, 100
26, 13200, Note_on_c, 11, 69, 0
26, 13200, Note_on_c, 11, 77, 100
26, 13259, Note_on_c, 11, 77, 0
26, 13260, Note_on_c, 11, 76, 100
26, 13319, Note_on_c, 11, 76, 0
26, 13320, Note_on_c, 11, 77, 100
26, 13380, Note_on_c, 11, 77, 0
26, 13380, Note_on_c, 11, 76, 100
26, 13500, Note_on_c, 11, 76, 0
26, 13500, Note_on_c, 11, 74, 100
26, 13590, Note_on_c, 11, 74, 0
26, 13620, Note_on_c, 11, 77, 100
26, 13919, Note_on_c, 11, 77, 0
26, 14100, Note_on_c, 11, 69, 100
26, 14160, Note_on_c, 11, 69, 0
26, 14160, Note_on_c, 11, 76, 100
26, 14220, Note_on_c, 11, 76, 0
26, 14220, Note_on_c, 11, 74, 100
26, 14250, Note_on_c, 11, 74, 0
26, 14280, Note_on_c, 11, 76, 100
26, 14340, Note_on_c, 11, 76, 0
26, 14340, Note_on_c, 11, 74, 100
26, 14430, Note_on_c, 11, 74, 0
26, 14460, Note_on_c, 11, 72, 100
26, 14580, Note_on_c, 11, 72, 0
26, 14580, Note_on_c, 11, 77, 100
26, 14759, Note_on_c, 11, 77, 0
26, 14820, Note_on_c, 11, 77, 100
26, 14910, Note_on_c, 11, 77, 0
26, 14940, Note_on_c, 11, 79, 100
26, 15360, Control_c, 11, 11, 127
26, 15363, Control_c, 11, 11, 126
26, 15367, Control_c, 11, 11, 125
26, 15371, Control_c, 11, 11, 124
26, 15375, Control_c, 11, 11, 123
26, 15378, Control_c, 11, 11, 122
26, 15382, Control_c, 11, 11, 121
26, 15386, Control_c, 11, 11, 120
26, 15390, Control_c, 11, 11, 119
26, 15393, Control_c, 11, 11, 118
26, 15397, Control_c, 11, 11, 117
26, 15401, Control_c, 11, 11, 116
26, 15405, Control_c, 11, 11, 115
26, 15409, Control_c, 11, 11, 114
26, 15412, Control_c, 11, 11, 113
26, 15416, Control_c, 11, 11, 112
26, 15420, Control_c, 11, 11, 111
26, 15424, Control_c, 11, 11, 110
26, 15427, Control_c, 11, 11, 109
26, 15431, Control_c, 11, 11, 108
26, 15435, Control_c, 11, 11, 107
26, 15439, Control_c, 11, 11, 106
26, 15442, Control_c, 11, 11, 105
26, 15446, Control_c, 11, 11, 104
26, 15450, Control_c, 11, 11, 103
26, 15454, Control_c, 11, 11, 102
26, 15458, Control_c, 11, 11, 101
26, 15461, Control_c, 11, 11, 100
26, 15465, Control_c, 11, 11, 99
26, 15469, Control_c, 11, 11, 98
26, 15473, Control_c, 11, 11, 97
26, 15476, Control_c, 11, 11, 96
26, 15480, Control_c, 11, 11, 95
26, 15484, Control_c, 11, 11, 94
26, 15488, Control_c, 11, 11, 93
26, 15492, Control_c, 11, 11, 92
26, 15495, Control_c, 11, 11, 91
26, 15499, Control_c, 11, 11, 90
26, 15503, Control_c, 11, 11, 89
26, 15507, Control_c, 11, 11, 88
26, 15510, Control_c, 11, 11, 87
26, 15514, Control_c, 11, 11, 86
26, 15518, Control_c, 11, 11, 85
26, 15522, Control_c, 11, 11, 84
26, 15525, Control_c, 11, 11, 83
26, 15529, Control_c, 11, 11, 82
26, 15533, Control_c, 11, 11, 81
26, 15537, Control_c, 11, 11, 80
26, 15541, Control_c, 11, 11, 79
26, 15544, Control_c, 11, 11, 78
26, 15548, Control_c, 11, 11, 77
26, 15552, Control_c, 11, 11, 76
26, 15556, Control_c, 11, 11, 75
26, 15559, Control_c, 11, 11, 74
26, 15563, Control_c, 11, 11, 73
26, 15567, Control_c, 11, 11, 72
26, 15571, Control_c, 11, 11, 71
26, 15574, Control_c, 11, 11, 70
26, 15578, Control_c, 11, 11, 69
26, 15582, Control_c, 11, 11, 68
26, 15586, Control_c, 11, 11, 67
26, 15590, Control_c, 11, 11, 66
26, 15593, Control_c, 11, 11, 65
26, 15597, Control_c, 11, 11, 64
26, 15601, Control_c, 11, 11, 63
26, 15605, Control_c, 11, 11, 62
26, 15608, Control_c, 11, 11, 61
26, 15612, Control_c, 11, 11, 60
26, 15616, Control_c, 11, 11, 59
26, 15620, Control_c, 11, 11, 58
26, 15624, Control_c, 11, 11, 57
26, 15627, Control_c, 11, 11, 56
26, 15631, Control_c, 11, 11, 55
26, 15635, Control_c, 11, 11, 54
26, 15639, Control_c, 11, 11, 53
26, 15642, Control_c, 11, 11, 52
26, 15646, Control_c, 11, 11, 51
26, 15650, Control_c, 11, 11, 50
26, 15654, Control_c, 11, 11, 49
26, 15657, Control_c, 11, 11, 48
26, 15661, Control_c, 11, 11, 47
26, 15665, Control_c, 11, 11, 46
26, 15669, Control_c, 11, 11, 45
26, 15673, Control_c, 11, 11, 44
26, 15676, Control_c, 11, 11, 43
26, 15680, Control_c, 11, 11, 42
26, 15684, Control_c, 11, 11, 41
26, 15688, Control_c, 11, 11, 40
26, 15691, Control_c, 11, 11, 39
26, 15695, Control_c, 11, 11, 38
26, 15699, Control_c, 11, 11, 37
26, 15703, Control_c, 11, 11, 36
26, 15706, Control_c, 11, 11, 35
26, 15710, Control_c, 11, 11, 34
26, 15714, Control_c, 11, 11, 33
26, 15718, Control_c, 11, 11, 32
26, 15722, Control_c, 11, 11, 31
26, 15725, Control_c, 11, 11, 30
26, 15729, Control_c, 11, 11, 29
26, 15733, Control_c, 11, 11, 28
26, 15737, Control_c, 11, 11, 27
26, 15740, Control_c, 11, 11, 26
26, 15744, Control_c, 11, 11, 25
26, 15748, Control_c, 11, 11, 24
26, 15752, Control_c, 11, 11, 23
26, 15756, Control_c, 11, 11, 22
26, 15759, Control_c, 11, 11, 21
26, 15763, Control_c, 11, 11, 20
26, 15767, Control_c, 11, 11, 19
26, 15771, Control_c, 11, 11, 18
26, 15774, Control_c, 11, 11, 17
26, 15778, Control_c, 11, 11, 16
26, 15782, Control_c, 11, 11, 15
26, 15786, Control_c, 11, 11, 14
26, 15789, Control_c, 11, 11, 13
26, 15793, Control_c, 11, 11, 12
26, 15797, Control_c, 11, 11, 11
26, 15801, Control_c, 11, 11, 10
26, 15805, Control_c, 11, 11, 9
26, 15808, Control_c, 11, 11, 8
26, 15812, Control_c, 11, 11, 7
26, 15816, Control_c, 11, 11, 6
26, 15820, Control_c, 11, 11, 5
26, 15823, Control_c, 11, 11, 4
26, 15827, Control_c, 11, 11, 3
26, 15831, Control_c, 11, 11, 2
26, 15835, Control_c, 11, 11, 1
26, 15839, Note_on_c, 11, 79, 0
26, 15839, Control_c, 11, 11, 0
26, 15860, Control_c, 11, 11, 127
26, 15900, Note_on_c, 11, 77, 100
26, 15989, Note_on_c, 11, 77, 0
26, 15990, Note_on_c, 11, 79, 100
26, 16079, Note_on_c, 11, 79, 0
26, 16080, Note_on_c, 11, 81, 100
26, 16260, Note_on_c, 11, 81, 0
26, 16260, Note_on_c, 11, 74, 100
26, 16350, Note_on_c, 11, 74, 0
26, 16350, Note_on_c, 11, 72, 100
26, 16410, Note_on_c, 11, 72, 0
26, 16440, Note_on_c, 11, 74, 100
26, 16799, Note_on_c, 11, 74, 0
26, 16860, Note_on_c, 11, 79, 100
26, 16950, Note_on_c, 11, 81, 100
26, 16980, Note_on_c, 11, 79, 0
26, 17040, Note_on_c, 11, 82, 100
26, 17070, Note_on_c, 11, 81, 0
26, 17220, Note_on_c, 11, 76, 100
26, 17250, Note_on_c, 11, 82, 0
26, 17310, Note_on_c, 11, 76, 0
26, 17310, Note_on_c, 11, 74, 100
26, 17400, Note_on_c, 11, 74, 0
26, 17400, Note_on_c, 11, 76, 100
26, 17760, Note_on_c, 11, 76, 0
26, 17820, Note_on_c, 11, 76, 100
26, 17910, Note_on_c, 11, 76, 0
26, 17910, Note_on_c, 11, 77, 100
26, 17970, Note_on_c, 11, 77, 0
26, 18000, Note_on_c, 11, 79, 100
26, 18180, Note_on_c, 11, 77, 100
26, 18210, Note_on_c, 11, 79, 0
26, 18270, Note_on_c, 11, 77, 0
26, 18270, Note_on_c, 11, 76, 100
26, 18360, Note_on_c, 11, 76, 0
26, 18360, Note_on_c, 11, 74, 100
26, 18780, Note_on_c, 11, 74, 0
26, 18780, Note_on_c, 11, 79, 100
26, 18870, Note_on_c, 11, 79, 0
26, 18870, Note_on_c, 11, 81, 100
26, 18960, Note_on_c, 11, 81, 0
26, 18960, Note_on_c, 11, 82, 100
26, 19140, Note_on_c, 11, 76, 100
26, 19170, Note_on_c, 11, 82, 0
26, 19259, Note_on_c, 11, 76, 0
26, 19260, Note_on_c, 11, 74, 100
26, 19379, Note_on_c, 11, 74, 0
26, 19380, Note_on_c, 11, 76, 100
26, 19680, Control_c, 11, 11, 127
26, 19683, Control_c, 11, 11, 126
26, 19687, Control_c, 11, 11, 125
26, 19691, Control_c, 11, 11, 124
26, 19695, Control_c, 11, 11, 123
26, 19698, Control_c, 11, 11, 122
26, 19702, Control_c, 11, 11, 121
26, 19706, Control_c, 11, 11, 120
26, 19710, Control_c, 11, 11, 119
26, 19713, Control_c, 11, 11, 118
26, 19717, Control_c, 11, 11, 117
26, 19721, Control_c, 11, 11, 116
26, 19725, Control_c, 11, 11, 115
26, 19729, Control_c, 11, 11, 114
26, 19732, Control_c, 11, 11, 113
26, 19736, Control_c, 11, 11, 112
26, 19740, Control_c, 11, 11, 111
26, 19744, Control_c, 11, 11, 110
26, 19747, Control_c, 11, 11, 109
26, 19751, Control_c, 11, 11, 108
26, 19755, Control_c, 11, 11, 107
26, 19759, Control_c, 11, 11, 106
26, 19762, Control_c, 11, 11, 105
26, 19766, Control_c, 11, 11, 104
26, 19770, Control_c, 11, 11, 103
26, 19774, Control_c, 11, 11, 102
26, 19778, Control_c, 11, 11, 101
26, 19781, Control_c, 11, 11, 100
26, 19785, Control_c, 11, 11, 99
26, 19789, Control_c, 11, 11, 98
26, 19793, Control_c, 11, 11, 97
26, 19796, Control_c, 11, 11, 96
26, 19800, Control_c, 11, 11, 95
26, 19804, Control_c, 11, 11, 94
26, 19808, Control_c, 11, 11, 93
26, 19812, Control_c, 11, 11, 92
26, 19815, Control_c, 11, 11, 91
26, 19819, Control_c, 11, 11, 90
26, 19823, Control_c, 11, 11, 89
26, 19827, Control_c, 11, 11, 88
26, 19830, Control_c, 11, 11, 87
26, 19834, Control_c, 11, 11, 86
26, 19838, Control_c, 11, 11, 85
26, 19842, Control_c, 11, 11, 84
26, 19845, Control_c, 11, 11, 83
26, 19849, Control_c, 11, 11, 82
26, 19853, Control_c, 11, 11, 81
26, 19857, Control_c, 11, 11, 80
26, 19861, Control_c, 11, 11, 79
26, 19864, Control_c, 11, 11, 78
26, 19868, Control_c, 11, 11, 77
26, 19872, Control_c, 11, 11, 76
26, 19876, Control_c, 11, 11, 75
26, 19879, Control_c, 11, 11, 74
26, 19883, Control_c, 11, 11, 73
26, 19887, Control_c, 11, 11, 72
26, 19891, Control_c, 11, 11, 71
26, 19894, Control_c, 11, 11, 70
26, 19898, Control_c, 11, 11, 69
26, 19902, Control_c, 11, 11, 68
26, 19906, Control_c, 11, 11, 67
26, 19910, Control_c, 11, 11, 66
26, 19913, Control_c, 11, 11, 65
26, 19917, Control_c, 11, 11, 64
26, 19921, Control_c, 11, 11, 63
26, 19925, Control_c, 11, 11, 62
26, 19928, Control_c, 11, 11, 61
26, 19932, Control_c, 11, 11, 60
26, 19936, Control_c, 11, 11, 59
26, 19940, Control_c, 11, 11, 58
26, 19944, Control_c, 11, 11, 57
26, 19947, Control_c, 11, 11, 56
26, 19951, Control_c, 11, 11, 55
26, 19955, Control_c, 11, 11, 54
26, 19959, Control_c, 11, 11, 53
26, 19962, Control_c, 11, 11, 52
26, 19966, Control_c, 11, 11, 51
26, 19970, Control_c, 11, 11, 50
26, 19974, Control_c, 11, 11, 49
26, 19977, Control_c, 11, 11, 48
26, 19981, Control_c, 11, 11, 47
26, 19985, Control_c, 11, 11, 46
26, 19989, Control_c, 11, 11, 45
26, 19993, Control_c, 11, 11, 44
26, 19996, Control_c, 11, 11, 43
26, 20000, Control_c, 11, 11, 42
26, 20004, Control_c, 11, 11, 41
26, 20008, Control_c, 11, 11, 40
26, 20011, Control_c, 11, 11, 39
26, 20015, Control_c, 11, 11, 38
26, 20019, Control_c, 11, 11, 37
26, 20023, Control_c, 11, 11, 36
26, 20026, Control_c, 11, 11, 35
26, 20030, Control_c, 11, 11, 34
26, 20034, Control_c, 11, 11, 33
26, 20038, Control_c, 11, 11, 32
26, 20042, Control_c, 11, 11, 31
26, 20045, Control_c, 11, 11, 30
26, 20049, Control_c, 11, 11, 29
26, 20053, Control_c, 11, 11, 28
26, 20057, Control_c, 11, 11, 27
26, 20060, Control_c, 11, 11, 26
26, 20064, Control_c, 11, 11, 25
26, 20068, Control_c, 11, 11, 24
26, 20072, Control_c, 11, 11, 23
26, 20076, Control_c, 11, 11, 22
26, 20079, Control_c, 11, 11, 21
26, 20083, Control_c, 11, 11, 20
26, 20087, Control_c, 11, 11, 19
26, 20091, Control_c, 11, 11, 18
26, 20094, Control_c, 11, 11, 17
26, 20098, Control_c, 11, 11, 16
26, 20102, Control_c, 11, 11, 15
26, 20106, Control_c, 11, 11, 14
26, 20109, Control_c, 11, 11, 13
26, 20113, Control_c, 11, 11, 12
26, 20117, Control_c, 11, 11, 11
26, 20121, Control_c, 11, 11, 10
26, 20125, Control_c, 11, 11, 9
26, 20128, Control_c, 11, 11, 8
26, 20132, Control_c, 11, 11, 7
26, 20136, Control_c, 11, 11, 6
26, 20140, Control_c, 11, 11, 5
26, 20143, Control_c, 11, 11, 4
26, 20147, Control_c, 11, 11, 3
26, 20151, Control_c, 11, 11, 2
26, 20155, Control_c, 11, 11, 1
26, 20159, Note_on_c, 11, 76, 0
26, 20159, Control_c, 11, 11, 0
26, 20280, Control_c, 11, 11, 127
26, 20820, Note_on_c, 11, 69, 100
26, 20879, Note_on_c, 11, 69, 0
26, 20880, Note_on_c, 11, 77, 100
26, 20939, Note_on_c, 11, 77, 0
26, 20940, Note_on_c, 11, 76, 100
26, 20999, Note_on_c, 11, 76, 0
26, 21000, Note_on_c, 11, 77, 100
26, 21059, Note_on_c, 11, 77, 0
26, 21060, Note_on_c, 11, 76, 100
26, 21179, Note_on_c, 11, 76, 0
26, 21180, Note_on_c, 11, 74, 100
26, 21270, Note_on_c, 11, 74, 0
26, 21300, Note_on_c, 11, 76, 100
26, 21390, Note_on_c, 11, 76, 0
26, 21420, Note_on_c, 11, 77, 100
26, 21599, Note_on_c, 11, 77, 0
26, 21780, Note_on_c, 11, 69, 100
26, 21840, Note_on_c, 11, 69, 0
26, 21840, Note_on_c, 11, 81, 100
26, 21840, Note_on_c, 11, 77, 100
26, 21899, Note_on_c, 11, 77, 0
26, 21899, Note_on_c, 11, 81, 0
26, 21900, Note_on_c, 11, 79, 100
26, 21900, Note_on_c, 11, 76, 100
26, 21959, Note_on_c, 11, 76, 0
26, 21959, Note_on_c, 11, 79, 0
26, 21960, Note_on_c, 11, 81, 100
26, 21960, Note_on_c, 11, 77, 100
26, 22019, Note_on_c, 11, 81, 0
26, 22020, Note_on_c, 11, 77, 0
26, 22020, Note_on_c, 11, 79, 100
26, 22020, Note_on_c, 11, 76, 100
26, 22139, Note_on_c, 11, 79, 0
26, 22140, Note_on_c, 11, 76, 0
26, 22140, Note_on_c, 11, 77, 100
26, 22140, Note_on_c, 11, 74, 100
26, 22230, Note_on_c, 11, 74, 0
26, 22259, Note_on_c, 11, 77, 0
26, 22260, Note_on_c, 11, 81, 100
26, 22260, Note_on_c, 11, 77, 100
26, 22529, Note_on_c, 11, 77, 0
26, 22529, Note_on_c, 11, 81, 0
26, 22740, Note_on_c, 11, 69, 100
26, 22800, Note_on_c, 11, 69, 0
26, 22800, Note_on_c, 11, 76, 100
26, 22860, Note_on_c, 11, 76, 0
26, 22860, Note_on_c, 11, 74, 100
26, 22890, Note_on_c, 11, 74, 0
26, 22920, Note_on_c, 11, 76, 100
26, 22980, Note_on_c, 11, 76, 0
26, 22980, Note_on_c, 11, 74, 100
26, 23070, Note_on_c, 11, 74, 0
26, 23100, Note_on_c, 11, 72, 100
26, 23220, Note_on_c, 11, 72, 0
26, 23220, Note_on_c, 11, 77, 100
26, 23459, Note_on_c, 11, 77, 0
26, 23580, Note_on_c, 11, 77, 100
26, 23670, Note_on_c, 11, 77, 0
26, 23700, Note_on_c, 11, 79, 100
26, 24359, Note_on_c, 11, 79, 0
26, 24540, Note_on_c, 11, 77, 100
26, 24629, Note_on_c, 11, 77, 0
26, 24630, Note_on_c, 11, 79, 100
26, 24719, Note_on_c, 11, 79, 0
26, 24720, Note_on_c, 11, 81, 100
26, 24900, Note_on_c, 11, 81, 0
26, 24900, Note_on_c, 11, 74, 100
26, 24990, Note_on_c, 11, 74, 0
26, 24990, Note_on_c, 11, 72, 100
26, 25050, Note_on_c, 11, 72, 0
26, 25080, Note_on_c, 11, 74, 100
26, 25439, Note_on_c, 11, 74, 0
26, 25500, Note_on_c, 11, 79, 100
26, 25590, Note_on_c, 11, 81, 100
26, 25620, Note_on_c, 11, 79, 0
26, 25680, Note_on_c, 11, 82, 100
26, 25710, Note_on_c, 11, 81, 0
26, 25860, Note_on_c, 11, 76, 100
26, 25890, Note_on_c, 11, 82, 0
26, 25950, Note_on_c, 11, 76, 0
26, 25950, Note_on_c, 11, 74, 100
26, 26040, Note_on_c, 11, 74, 0
26, 26040, Note_on_c, 11, 76, 100
26, 26400, Note_on_c, 11, 76, 0
26, 26460, Note_on_c, 11, 76, 100
26, 26550, Note_on_c, 11, 76, 0
26, 26550, Note_on_c, 11, 77, 100
26, 26610, Note_on_c, 11, 77, 0
26, 26640, Note_on_c, 11, 79, 100
26, 26820, Note_on_c, 11, 77, 100
26, 26850, Note_on_c, 11, 79, 0
26, 26910, Note_on_c, 11, 77, 0
26, 26910, Note_on_c, 11, 76, 100
26, 27000, Note_on_c, 11, 76, 0
26, 27000, Note_on_c, 11, 74, 100
26, 27420, Note_on_c, 11, 74, 0
26, 27420, Note_on_c, 11, 79, 100
26, 27510, Note_on_c, 11, 79, 0
26, 27510, Note_on_c, 11, 81, 100
26, 27600, Note_on_c, 11, 81, 0
26, 27600, Note_on_c, 11, 82, 100
26, 27780, Note_on_c, 11, 76, 100
26, 27810, Note_on_c, 11, 82, 0
26, 27869, Note_on_c, 11, 76, 0
26, 27900, Note_on_c, 11, 74, 100
26, 27990, Note_on_c, 11, 74, 0
26, 28020, Note_on_c, 11, 76, 100
26, 28319, Note_on_c, 11, 76, 0
26, 28380, Note_on_c, 11, 77, 100
26, 28469, Note_on_c, 11, 77, 0
26, 28470, Note_on_c, 11, 79, 100
26, 28559, Note_on_c, 11, 79, 0
26, 28560, Note_on_c, 11, 81, 100
26, 28740, Note_on_c, 11, 81, 0
26, 28740, Note_on_c, 11, 74, 100
26, 28830, Note_on_c, 11, 74, 0
26, 28830, Note_on_c, 11, 72, 100
26, 28890, Note_on_c, 11, 72, 0
26, 28920, Note_on_c, 11, 74, 100
26, 29279, Note_on_c, 11, 74, 0
26, 29340, Note_on_c, 11, 79, 100
26, 29430, Note_on_c, 11, 81, 100
26, 29460, Note_on_c, 11, 79, 0
26, 29520, Note_on_c, 11, 82, 100
26, 29550, Note_on_c, 11, 81, 0
26, 29700, Note_on_c, 11, 76, 100
26, 29730, Note_on_c, 11, 82, 0
26, 29790, Note_on_c, 11, 76, 0
26, 29790, Note_on_c, 11, 74, 100
26, 29880, Note_on_c, 11, 74, 0
26, 29880, Note_on_c, 11, 76, 100
26, 30240, Note_on_c, 11, 76, 0
26, 30360, Note_on_c, 11, 79, 100
26, 30450, Note_on_c, 11, 79, 0
26, 30480, Note_on_c, 11, 79, 100
26, 30810, Note_on_c, 11, 79, 0
26, 30840, Note_on_c, 11, 81, 100
26, 30960, Note_on_c, 11, 81, 0
26, 30960, Note_on_c, 11, 81, 100
26, 31290, Note_on_c, 11, 81, 0
26, 31320, Note_on_c, 11, 81, 100
26, 31410, Note_on_c, 11, 81, 0
26, 31440, Note_on_c, 11, 81, 100
26, 31590, Note_on_c, 11, 81, 0
26, 31620, Note_on_c, 11, 81, 100
26, 31740, Note_on_c, 11, 81, 0
26, 31740, Note_on_c, 11, 84, 100
26, 31860, Note_on_c, 11, 84, 0
26, 31860, Note_on_c, 11, 84, 100
26, 32190, Note_on_c, 11, 84, 0
26, 32280, Note_on_c, 11, 79, 100
26, 32430, Note_on_c, 11, 79, 0
26, 32430, Note_on_c, 11, 79, 100
26, 32730, Note_on_c, 11, 79, 0
26, 32760, Note_on_c, 11, 82, 100
26, 32880, Note_on_c, 11, 82, 0
26, 32880, Note_on_c, 11, 82, 100
26, 33089, Note_on_c, 11, 82, 0
26, 33210, Note_on_c, 11, 77, 100
26, 33330, Note_on_c, 11, 77, 0
26, 33360, Note_on_c, 11, 77, 100
26, 33510, Note_on_c, 11, 77, 0
26, 33540, Note_on_c, 11, 77, 100
26, 33660, Note_on_c, 11, 77, 0
26, 33660, Note_on_c, 11, 79, 100
26, 33750, Note_on_c, 11, 79, 0
26, 33780, Note_on_c, 11, 79, 100
26, 34560, Note_on_c, 11, 79, 0
26, 38520, Note_on_c, 11, 79, 100
26, 38610, Note_on_c, 11, 79, 0
26, 38640, Note_on_c, 11, 79, 100
26, 38970, Note_on_c, 11, 79, 0
26, 39000, Note_on_c, 11, 81, 100
26, 39120, Note_on_c, 11, 81, 0
26, 39120, Note_on_c, 11, 81, 100
26, 39450, Note_on_c, 11, 81, 0
26, 39480, Note_on_c, 11, 81, 100
26, 39570, Note_on_c, 11, 81, 0
26, 39600, Note_on_c, 11, 81, 100
26, 39750, Note_on_c, 11, 81, 0
26, 39780, Note_on_c, 11, 81, 100
26, 39900, Note_on_c, 11, 81, 0
26, 39900, Note_on_c, 11, 84, 100
26, 40020, Note_on_c, 11, 84, 0
26, 40020, Note_on_c, 11, 84, 100
26, 40350, Note_on_c, 11, 84, 0
26, 40440, Note_on_c, 11, 79, 100
26, 40590, Note_on_c, 11, 79, 0
26, 40590, Note_on_c, 11, 79, 100
26, 40890, Note_on_c, 11, 79, 0
26, 40920, Note_on_c, 11, 82, 100
26, 41040, Note_on_c, 11, 82, 0
26, 41040, Note_on_c, 11, 82, 100
26, 41249, Note_on_c, 11, 82, 0
26, 41370, Note_on_c, 11, 77, 100
26, 41490, Note_on_c, 11, 77, 0
26, 41520, Note_on_c, 11, 77, 100
26, 41670, Note_on_c, 11, 77, 0
26, 41700, Note_on_c, 11, 77, 100
26, 41820, Note_on_c, 11, 77, 0
26, 41820, Note_on_c, 11, 79, 100
26, 41910, Note_on_c, 11, 79, 0
26, 41940, Note_on_c, 11, 79, 100
26, 42720, Note_on_c, 11, 79, 0
26, 42780, Note_on_c, 11, 79, 100
26, 42869, Note_on_c, 11, 79, 0
26, 42870, Note_on_c, 11, 81, 100
26, 42959, Note_on_c, 11, 81, 0
26, 42960, Note_on_c, 11, 83, 100
26, 43140, Note_on_c, 11, 83, 0
26, 43140, Note_on_c, 11, 76, 100
26, 43230, Note_on_c, 11, 76, 0
26, 43260, Note_on_c, 11, 74, 100
26, 43320, Note_on_c, 11, 74, 0
26, 43320, Note_on_c, 11, 76, 100
26, 43679, Note_on_c, 11, 76, 0
26, 43740, Note_on_c, 11, 81, 100
26, 43830, Note_on_c, 11, 83, 100
26, 43860, Note_on_c, 11, 81, 0
26, 43920, Note_on_c, 11, 84, 100
26, 43950, Note_on_c, 11, 83, 0
26, 44100, Note_on_c, 11, 78, 100
26, 44130, Note_on_c, 11, 84, 0
26, 44190, Note_on_c, 11, 78, 0
26, 44220, Note_on_c, 11, 76, 100
26, 44310, Note_on_c, 11, 76, 0
26, 44310, Note_on_c, 11, 78, 100
26, 44670, Note_on_c, 11, 78, 0
26, 44700, Note_on_c, 11, 78, 100
26, 44790, Note_on_c, 11, 78, 0
26, 44790, Note_on_c, 11, 79, 100
26, 44850, Note_on_c, 11, 79, 0
26, 44880, Note_on_c, 11, 81, 100
26, 45060, Note_on_c, 11, 79, 100
26, 45090, Note_on_c, 11, 81, 0
26, 45150, Note_on_c, 11, 79, 0
26, 45150, Note_on_c, 11, 78, 100
26, 45240, Note_on_c, 11, 78, 0
26, 45240, Note_on_c, 11, 76, 100
26, 45660, Note_on_c, 11, 76, 0
26, 45660, Note_on_c, 11, 81, 100
26, 45750, Note_on_c, 11, 81, 0
26, 45750, Note_on_c, 11, 83, 100
26, 45840, Note_on_c, 11, 83, 0
26, 45840, Note_on_c, 11, 84, 100
26, 46020, Note_on_c, 11, 78, 100
26, 46050, Note_on_c, 11, 84, 0
26, 46109, Note_on_c, 11, 78, 0
26, 46140, Note_on_c, 11, 76, 100
26, 46230, Note_on_c, 11, 76, 0
26, 46260, Note_on_c, 11, 78, 100
26, 46559, Note_on_c, 11, 78, 0
26, 46620, Note_on_c, 11, 79, 100
26, 46709, Note_on_c, 11, 79, 0
26, 46710, Note_on_c, 11, 81, 100
26, 46799, Note_on_c, 11, 81, 0
26, 46800, Note_on_c, 11, 83, 100
26, 46980, Note_on_c, 11, 83, 0
26, 46980, Note_on_c, 11, 76, 100
26, 47070, Note_on_c, 11, 76, 0
26, 47100, Note_on_c, 11, 74, 100
26, 47160, Note_on_c, 11, 74, 0
26, 47160, Note_on_c, 11, 76, 100
26, 47519, Note_on_c, 11, 76, 0
26, 47580, Note_on_c, 11, 81, 100
26, 47670, Note_on_c, 11, 83, 100
26, 47700, Note_on_c, 11, 81, 0
26, 47760, Note_on_c, 11, 84, 100
26, 47790, Note_on_c, 11, 83, 0
26, 47940, Note_on_c, 11, 78, 100
26, 47970, Note_on_c, 11, 84, 0
26, 48030, Note_on_c, 11, 78, 0
26, 48060, Note_on_c, 11, 76, 100
26, 48150, Note_on_c, 11, 76, 0
26, 48150, Note_on_c, 11, 78, 100
26, 48510, Note_on_c, 11, 78, 0
26, 48600, Note_on_c, 11, 81, 100
26, 48959, Note_on_c, 11, 81, 0
26, 48960, Note_on_c, 11, 79, 100
26, 49200, Control_c, 11, 11, 127
26, 49203, Control_c, 11, 11, 126
26, 49207, Control_c, 11, 11, 125
26, 49211, Control_c, 11, 11, 124
26, 49215, Control_c, 11, 11, 123
26, 49218, Control_c, 11, 11, 122
26, 49222, Control_c, 11, 11, 121
26, 49226, Control_c, 11, 11, 120
26, 49230, Control_c, 11, 11, 119
26, 49233, Control_c, 11, 11, 118
26, 49237, Control_c, 11, 11, 117
26, 49241, Control_c, 11, 11, 116
26, 49245, Control_c, 11, 11, 115
26, 49249, Control_c, 11, 11, 114
26, 49252, Control_c, 11, 11, 113
26, 49256, Control_c, 11, 11, 112
26, 49260, Control_c, 11, 11, 111
26, 49264, Control_c, 11, 11, 110
26, 49267, Control_c, 11, 11, 109
26, 49271, Control_c, 11, 11, 108
26, 49275, Control_c, 11, 11, 107
26, 49279, Control_c, 11, 11, 106
26, 49282, Control_c, 11, 11, 105
26, 49286, Control_c, 11, 11, 104
26, 49290, Control_c, 11, 11, 103
26, 49294, Control_c, 11, 11, 102
26, 49298, Control_c, 11, 11, 101
26, 49301, Control_c, 11, 11, 100
26, 49305, Control_c, 11, 11, 99
26, 49309, Control_c, 11, 11, 98
26, 49313, Control_c, 11, 11, 97
26, 49316, Control_c, 11, 11, 96
26, 49320, Control_c, 11, 11, 95
26, 49324, Control_c, 11, 11, 94
26, 49328, Control_c, 11, 11, 93
26, 49332, Control_c, 11, 11, 92
26, 49335, Control_c, 11, 11, 91
26, 49339, Control_c, 11, 11, 90
26, 49343, Control_c, 11, 11, 89
26, 49347, Control_c, 11, 11, 88
26, 49350, Control_c, 11, 11, 87
26, 49354, Control_c, 11, 11, 86
26, 49358, Control_c, 11, 11, 85
26, 49362, Control_c, 11, 11, 84
26, 49365, Control_c, 11, 11, 83
26, 49369, Control_c, 11, 11, 82
26, 49373, Control_c, 11, 11, 81
26, 49377, Control_c, 11, 11, 80
26, 49381, Control_c, 11, 11, 79
26, 49384, Control_c, 11, 11, 78
26, 49388, Control_c, 11, 11, 77
26, 49392, Control_c, 11, 11, 76
26, 49396, Control_c, 11, 11, 75
26, 49399, Control_c, 11, 11, 74
26, 49403, Control_c, 11, 11, 73
26, 49407, Control_c, 11, 11, 72
26, 49411, Control_c, 11, 11, 71
26, 49414, Control_c, 11, 11, 70
26, 49418, Control_c, 11, 11, 69
26, 49422, Control_c, 11, 11, 68
26, 49426, Control_c, 11, 11, 67
26, 49430, Control_c, 11, 11, 66
26, 49433, Control_c, 11, 11, 65
26, 49437, Control_c, 11, 11, 64
26, 49441, Control_c, 11, 11, 63
26, 49445, Control_c, 11, 11, 62
26, 49448, Control_c, 11, 11, 61
26, 49452, Control_c, 11, 11, 60
26, 49456, Control_c, 11, 11, 59
26, 49460, Control_c, 11, 11, 58
26, 49464, Control_c, 11, 11, 57
26, 49467, Control_c, 11, 11, 56
26, 49471, Control_c, 11, 11, 55
26, 49475, Control_c, 11, 11, 54
26, 49479, Control_c, 11, 11, 53
26, 49482, Control_c, 11, 11, 52
26, 49486, Control_c, 11, 11, 51
26, 49490, Control_c, 11, 11, 50
26, 49494, Control_c, 11, 11, 49
26, 49497, Control_c, 11, 11, 48
26, 49501, Control_c, 11, 11, 47
26, 49505, Control_c, 11, 11, 46
26, 49509, Control_c, 11, 11, 45
26, 49513, Control_c, 11, 11, 44
26, 49516, Control_c, 11, 11, 43
26, 49520, Control_c, 11, 11, 42
26, 49524, Control_c, 11, 11, 41
26, 49528, Control_c, 11, 11, 40
26, 49531, Control_c, 11, 11, 39
26, 49535, Control_c, 11, 11, 38
26, 49539, Control_c, 11, 11, 37
26, 49543, Control_c, 11, 11, 36
26, 49546, Control_c, 11, 11, 35
26, 49550, Control_c, 11, 11, 34
26, 49554, Control_c, 11, 11, 33
26, 49558, Control_c, 11, 11, 32
26, 49562, Control_c, 11, 11, 31
26, 49565, Control_c, 11, 11, 30
26, 49569, Control_c, 11, 11, 29
26, 49573, Control_c, 11, 11, 28
26, 49577, Control_c, 11, 11, 27
26, 49580, Control_c, 11, 11, 26
26, 49584, Control_c, 11, 11, 25
26, 49588, Control_c, 11, 11, 24
26, 49592, Control_c, 11, 11, 23
26, 49596, Control_c, 11, 11, 22
26, 49599, Control_c, 11, 11, 21
26, 49603, Control_c, 11, 11, 20
26, 49607, Control_c, 11, 11, 19
26, 49611, Control_c, 11, 11, 18
26, 49614, Control_c, 11, 11, 17
26, 49618, Control_c, 11, 11, 16
26, 49622, Control_c, 11, 11, 15
26, 49626, Control_c, 11, 11, 14
26, 49629, Control_c, 11, 11, 13
26, 49633, Control_c, 11, 11, 12
26, 49637, Control_c, 11, 11, 11
26, 49641, Control_c, 11, 11, 10
26, 49645, Control_c, 11, 11, 9
26, 49648, Control_c, 11, 11, 8
26, 49652, Control_c, 11, 11, 7
26, 49656, Control_c, 11, 11, 6
26, 49660, Control_c, 11, 11, 5
26, 49663, Control_c, 11, 11, 4
26, 49667, Control_c, 11, 11, 3
26, 49671, Control_c, 11, 11, 2
26, 49675, Control_c, 11, 11, 1
26, 49679, Control_c, 11, 11, 0
26, 49919, Note_on_c, 11, 79, 0
26, 49980, Control_c, 11, 11, 127
26, 50460, Note_on_c, 11, 79, 100
26, 50549, Note_on_c, 11, 79, 0
26, 50550, Note_on_c, 11, 81, 100
26, 50639, Note_on_c, 11, 81, 0
26, 50640, Note_on_c, 11, 83, 100
26, 50759, Note_on_c, 11, 83, 0
26, 50760, Note_on_c, 11, 78, 100
26, 50970, Note_on_c, 11, 76, 100
26, 50999, Note_on_c, 11, 78, 0
26, 51120, Control_c, 11, 11, 127
26, 51124, Control_c, 11, 11, 126
26, 51128, Control_c, 11, 11, 125
26, 51132, Control_c, 11, 11, 124
26, 51136, Control_c, 11, 11, 123
26, 51141, Control_c, 11, 11, 122
26, 51145, Control_c, 11, 11, 121
26, 51149, Control_c, 11, 11, 120
26, 51153, Control_c, 11, 11, 119
26, 51158, Control_c, 11, 11, 118
26, 51162, Control_c, 11, 11, 117
26, 51166, Control_c, 11, 11, 116
26, 51170, Control_c, 11, 11, 115
26, 51175, Control_c, 11, 11, 114
26, 51179, Control_c, 11, 11, 113
26, 51183, Control_c, 11, 11, 112
26, 51187, Control_c, 11, 11, 111
26, 51192, Control_c, 11, 11, 110
26, 51196, Control_c, 11, 11, 109
26, 51200, Control_c, 11, 11, 108
26, 51204, Control_c, 11, 11, 107
26, 51209, Control_c, 11, 11, 106
26, 51213, Control_c, 11, 11, 105
26, 51217, Control_c, 11, 11, 104
26, 51221, Control_c, 11, 11, 103
26, 51226, Control_c, 11, 11, 102
26, 51230, Control_c, 11, 11, 101
26, 51234, Control_c, 11, 11, 100
26, 51238, Control_c, 11, 11, 99
26, 51243, Control_c, 11, 11, 98
26, 51247, Control_c, 11, 11, 97
26, 51251, Control_c, 11, 11, 96
26, 51255, Control_c, 11, 11, 95
26, 51260, Control_c, 11, 11, 94
26, 51264, Control_c, 11, 11, 93
26, 51268, Control_c, 11, 11, 92
26, 51272, Control_c, 11, 11, 91
26, 51277, Control_c, 11, 11, 90
26, 51281, Control_c, 11, 11, 89
26, 51285, Control_c, 11, 11, 88
26, 51289, Control_c, 11, 11, 87
26, 51294, Control_c, 11, 11, 86
26, 51298, Control_c, 11, 11, 85
26, 51302, Control_c, 11, 11, 84
26, 51306, Control_c, 11, 11, 83
26, 51310, Control_c, 11, 11, 82
26, 51315, Control_c, 11, 11, 81
26, 51319, Control_c, 11, 11, 80
26, 51323, Control_c, 11, 11, 79
26, 51327, Control_c, 11, 11, 78
26, 51332, Control_c, 11, 11, 77
26, 51336, Control_c, 11, 11, 76
26, 51340, Control_c, 11, 11, 75
26, 51344, Control_c, 11, 11, 74
26, 51349, Control_c, 11, 11, 73
26, 51353, Control_c, 11, 11, 72
26, 51357, Control_c, 11, 11, 71
26, 51361, Control_c, 11, 11, 70
26, 51366, Control_c, 11, 11, 69
26, 51370, Control_c, 11, 11, 68
26, 51374, Control_c, 11, 11, 67
26, 51378, Control_c, 11, 11, 66
26, 51383, Control_c, 11, 11, 65
26, 51387, Control_c, 11, 11, 64
26, 51391, Control_c, 11, 11, 63
26, 51395, Control_c, 11, 11, 62
26, 51400, Control_c, 11, 11, 61
26, 51404, Control_c, 11, 11, 60
26, 51408, Control_c, 11, 11, 59
26, 51412, Control_c, 11, 11, 58
26, 51417, Control_c, 11, 11, 57
26, 51421, Control_c, 11, 11, 56
26, 51425, Control_c, 11, 11, 55
26, 51429, Control_c, 11, 11, 54
26, 51434, Control_c, 11, 11, 53
26, 51438, Control_c, 11, 11, 52
26, 51442, Control_c, 11, 11, 51
26, 51446, Control_c, 11, 11, 50
26, 51451, Control_c, 11, 11, 49
26, 51455, Control_c, 11, 11, 48
26, 51459, Control_c, 11, 11, 47
26, 51463, Control_c, 11, 11, 46
26, 51468, Control_c, 11, 11, 45
26, 51472, Control_c, 11, 11, 44
26, 51476, Control_c, 11, 11, 43
26, 51480, Control_c, 11, 11, 42
26, 51484, Control_c, 11, 11, 41
26, 51489, Control_c, 11, 11, 40
26, 51493, Control_c, 11, 11, 39
26, 51497, Control_c, 11, 11, 38
26, 51501, Control_c, 11, 11, 37
26, 51506, Control_c, 11, 11, 36
26, 51510, Control_c, 11, 11, 35
26, 51514, Control_c, 11, 11, 34
26, 51518, Control_c, 11, 11, 33
26, 51523, Control_c, 11, 11, 32
26, 51527, Control_c, 11, 11, 31
26, 51531, Control_c, 11, 11, 30
26, 51535, Control_c, 11, 11, 29
26, 51540, Control_c, 11, 11, 28
26, 51544, Control_c, 11, 11, 27
26, 51548, Control_c, 11, 11, 26
26, 51552, Control_c, 11, 11, 25
26, 51557, Control_c, 11, 11, 24
26, 51561, Control_c, 11, 11, 23
26, 51565, Control_c, 11, 11, 22
26, 51569, Control_c, 11, 11, 21
26, 51574, Control_c, 11, 11, 20
26, 51578, Control_c, 11, 11, 19
26, 51582, Control_c, 11, 11, 18
26, 51586, Control_c, 11, 11, 17
26, 51591, Control_c, 11, 11, 16
26, 51595, Control_c, 11, 11, 15
26, 51599, Control_c, 11, 11, 14
26, 51603, Control_c, 11, 11, 13
26, 51608, Control_c, 11, 11, 12
26, 51612, Control_c, 11, 11, 11
26, 51616, Control_c, 11, 11, 10
26, 51620, Control_c, 11, 11, 9
26, 51625, Control_c, 11, 11, 8
26, 51629, Control_c, 11, 11, 7
26, 51633, Control_c, 11, 11, 6
26, 51637, Control_c, 11, 11, 5
26, 51642, Control_c, 11, 11, 4
26, 51646, Control_c, 11, 11, 3
26, 51650, Control_c, 11, 11, 2
26, 51654, Control_c, 11, 11, 1
26, 51659, Note_on_c, 11, 76, 0
26, 51659, Control_c, 11, 11, 0
26, 51659, End_track
0, 0, End_of_file
