0, 0, Header, 1, 12, 120
1, 0, Start_track
1, 0, Sequencer_specific, 13, 5, 15, 28, 50, 48, 48, 57, 46, 49, 49, 46, 48, 51
1, 0, Sequencer_specific, 5, 5, 15, 9, 0, 72
1, 0, Sequencer_specific, 15, 5, 15, 6, 71, 101, 110, 101, 114, 97, 108, 32, 77, 73, 68, 73
1, 0, Sequencer_specific, 10, 5, 15, 18, 0, 0, 64, 127, 0, 64, 1
1, 0, Title_t, ""
1, 0, Time_signature, 4, 2, 24, 8
1, 0, Key_signature, 0, "major"
1, 0, Tempo, 722892
1, 239, Lyric_t, ""
1, 284, Lyric_t, ""
1, 299, Lyric_t, ""
1, 359, Lyric_t, ""
1, 419, Lyric_t, ""
1, 479, Lyric_t, ""
1, 719, Lyric_t, ""
1, 719, Lyric_t, ""
1, 799, Lyric_t, ""
1, 879, Lyric_t, ""
1, 959, Lyric_t, ""
1, 1139, Lyric_t, ""
1, 1199, Lyric_t, ""
1, 1319, Lyric_t, ""
1, 1439, Lyric_t, ""
1, 1679, Lyric_t, ""
1, 1679, Lyric_t, ""
1, 1689, Lyric_t, ""
1, 1759, Lyric_t, ""
1, 1839, Lyric_t, ""
1, 1919, Lyric_t, ""
1, 2039, Lyric_t, ""
1, 2039, Lyric_t, ""
1, 2159, Lyric_t, ""
1, 2279, Lyric_t, ""
1, 2639, Lyric_t, " "
1, 2639, Lyric_t, ""
1, 4499, Lyric_t, "I've "
1, 4559, Lyric_t, "seen "
1, 4619, Lyric_t, "that "
1, 4679, Lyric_t, "look "
1, 4679, Lyric_t, "\015"
1, 4739, Lyric_t, "some"
1, 4859, Lyric_t, "where "
1, 4979, Lyric_t, "be"
1, 5009, Lyric_t, "fore "
1, 5009, Lyric_t, "\015"
1, 5459, Lyric_t, "your "
1, 5519, Lyric_t, "sorrow "
1, 5579, Lyric_t, "is "
1, 5609, Lyric_t, "like "
1, 5609, Lyric_t, "\015"
1, 5699, Lyric_t, "an "
1, 5759, Lyric_t, "op"
1, 5939, Lyric_t, "en "
1, 5999, Lyric_t, "door "
1, 5999, Lyric_t, "\015"
1, 6419, Lyric_t, "you've "
1, 6479, Lyric_t, "been "
1, 6539, Lyric_t, "this "
1, 6569, Lyric_t, "way "
1, 6569, Lyric_t, "\015"
1, 6659, Lyric_t, "for "
1, 6719, Lyric_t, "mu"
1, 6779, Lyric_t, "ch "
1, 6899, Lyric_t, "too "
1, 6959, Lyric_t, "long "
1, 6959, Lyric_t, "\015"
1, 7379, Lyric_t, "some"
1, 7439, Lyric_t, "bo"
1, 7469, Lyric_t, "dy "
1, 7599, Lyric_t, "must "
1, 7639, Lyric_t, "have "
1, 7639, Lyric_t, "\015"
1, 7679, Lyric_t, "done "
1, 7859, Lyric_t, "yo"
1, 7889, Lyric_t, "u "
1, 7919, Lyric_t, "wro"
1, 7979, Lyric_t, "ng "
1, 7979, Lyric_t, "\015"
1, 8160, Marker_t, "page"
1, 8339, Lyric_t, "But "
1, 8399, Lyric_t, "one "
1, 8459, Lyric_t, "day "
1, 8519, Lyric_t, "the "
1, 8579, Lyric_t, "sun "
1, 8579, Lyric_t, "\015"
1, 8699, Lyric_t, "w"
1, 8759, Lyric_t, "ill "
1, 8819, Lyric_t, "shine "
1, 8999, Lyric_t, "on "
1, 9059, Lyric_t, "you "
1, 9059, Lyric_t, "\015"
1, 9359, Lyric_t, "turn "
1, 9419, Lyric_t, "all "
1, 9479, Lyric_t, "your "
1, 9539, Lyric_t, "tears "
1, 9539, Lyric_t, "\015"
1, 9659, Lyric_t, "t"
1, 9719, Lyric_t, "o "
1, 9779, Lyric_t, "laug"
1, 9899, Lyric_t, "hter "
1, 9899, Lyric_t, "\015"
1, 10319, Lyric_t, "one "
1, 10409, Lyric_t, "day "
1, 10499, Lyric_t, "your "
1, 10559, Lyric_t, "dreams "
1, 10559, Lyric_t, "\015"
1, 10679, Lyric_t, "ma"
1, 10739, Lyric_t, "y "
1, 10799, Lyric_t, "all "
1, 10919, Lyric_t, "come "
1, 11039, Lyric_t, "true "
1, 11039, Lyric_t, "\015"
1, 11279, Lyric_t, "one "
1, 11369, Lyric_t, "day "
1, 11459, Lyric_t, "the "
1, 11519, Lyric_t, "sun "
1, 11519, Lyric_t, "\015"
1, 11579, Lyric_t, "wi"
1, 11639, Lyric_t, "ll "
1, 11759, Lyric_t, "shine "
1, 11819, Lyric_t, "o"
1, 11879, Lyric_t, "n "
1, 11939, Lyric_t, "yo"
1, 11999, Lyric_t, "u "
1, 11999, Lyric_t, "\015"
1, 14099, Lyric_t, "I've "
1, 14159, Lyric_t, "seen "
1, 14219, Lyric_t, "that "
1, 14279, Lyric_t, "look "
1, 14279, Lyric_t, "\015"
1, 14339, Lyric_t, "so "
1, 14459, Lyric_t, "man"
1, 14579, Lyric_t, "y "
1, 14609, Lyric_t, "times "
1, 14609, Lyric_t, "\015"
1, 15059, Lyric_t, "i "
1, 15119, Lyric_t, "know "
1, 15179, Lyric_t, "the "
1, 15209, Lyric_t, "sad"
1, 15299, Lyric_t, "ness "
1, 15299, Lyric_t, "\015"
1, 15359, Lyric_t, "in "
1, 15539, Lyric_t, "your "
1, 15599, Lyric_t, "eyes "
1, 15599, Lyric_t, "\015"
1, 16019, Lyric_t, "your "
1, 16079, Lyric_t, "life "
1, 16139, Lyric_t, "is "
1, 16169, Lyric_t, "like "
1, 16259, Lyric_t, "a "
1, 16319, Lyric_t, "wis"
1, 16379, Lyric_t, "hin"
1, 16499, Lyric_t, "g "
1, 16559, Lyric_t, "well "
1, 16559, Lyric_t, "\015"
1, 16979, Lyric_t, "where "
1, 17039, Lyric_t, "it "
1, 17069, Lyric_t, "goes, "
1, 17069, Lyric_t, "\015"
1, 17199, Lyric_t, "on"
1, 17239, Lyric_t, "ly "
1, 17279, Lyric_t, "time "
1, 17459, Lyric_t, "wi"
1, 17489, Lyric_t, "ll "
1, 17519, Lyric_t, "te"
1, 17579, Lyric_t, "ll "
1, 17579, Lyric_t, "\015"
1, 17999, Lyric_t, "One "
1, 18059, Lyric_t, "day "
1, 18119, Lyric_t, "the "
1, 18179, Lyric_t, "sun "
1, 18179, Lyric_t, "\015"
1, 18299, Lyric_t, "w"
1, 18359, Lyric_t, "ill "
1, 18419, Lyric_t, "shine "
1, 18599, Lyric_t, "on "
1, 18659, Lyric_t, "you "
1, 18659, Lyric_t, "\015"
1, 18959, Lyric_t, "turn "
1, 19019, Lyric_t, "all "
1, 19079, Lyric_t, "your "
1, 19139, Lyric_t, "tears "
1, 19259, Lyric_t, "t"
1, 19319, Lyric_t, "o "
1, 19379, Lyric_t, "laug"
1, 19499, Lyric_t, "hter "
1, 19499, Lyric_t, "\015"
1, 19919, Lyric_t, "one "
1, 20009, Lyric_t, "day "
1, 20099, Lyric_t, "your "
1, 20159, Lyric_t, "dreams "
1, 20159, Lyric_t, "\015"
1, 20279, Lyric_t, "ma"
1, 20339, Lyric_t, "y "
1, 20399, Lyric_t, "all "
1, 20519, Lyric_t, "come "
1, 20639, Lyric_t, "true "
1, 20639, Lyric_t, "\015"
1, 20879, Lyric_t, "one "
1, 20969, Lyric_t, "day "
1, 21059, Lyric_t, "the "
1, 21119, Lyric_t, "sun "
1, 21119, Lyric_t, "\015"
1, 21179, Lyric_t, "wi"
1, 21239, Lyric_t, "ll "
1, 21359, Lyric_t, "shine "
1, 21419, Lyric_t, "o"
1, 21479, Lyric_t, "n "
1, 21539, Lyric_t, "you "
1, 21539, Lyric_t, "\015"
1, 21759, Lyric_t, "Say "
1, 21799, Lyric_t, "goo"
1, 21839, Lyric_t, "dbye "
1, 21839, Lyric_t, "\015"
1, 21959, Lyric_t, "t"
1, 21999, Lyric_t, "o "
1, 22039, Lyric_t, "the "
1, 22079, Lyric_t, "lo"
1, 22259, Lyric_t, "nely "
1, 22319, Lyric_t, "nights "
1, 22319, Lyric_t, "\015"
1, 22719, Lyric_t, "say "
1, 22759, Lyric_t, "goo"
1, 22799, Lyric_t, "dbye "
1, 22799, Lyric_t, "\015"
1, 22919, Lyric_t, "t"
1, 22959, Lyric_t, "o "
1, 22999, Lyric_t, "the "
1, 23039, Lyric_t, "north"
1, 23159, Lyric_t, "ern "
1, 23219, Lyric_t, "lig"
1, 23279, Lyric_t, "hts "
1, 23279, Lyric_t, "\015"
1, 23520, Marker_t, "page2"
1, 23679, Lyric_t, "say "
1, 23719, Lyric_t, "goo"
1, 23759, Lyric_t, "dbye "
1, 23759, Lyric_t, "\015"
1, 23879, Lyric_t, "t"
1, 23919, Lyric_t, "o "
1, 23959, Lyric_t, "cold "
1, 23999, Lyric_t, "nor"
1, 24149, Lyric_t, "th "
1, 24239, Lyric_t, "winds "
1, 24239, Lyric_t, "\015"
1, 24559, Lyric_t, "say "
1, 24639, Lyric_t, "goo"
1, 24719, Lyric_t, "dbye "
1, 24719, Lyric_t, "\015"
1, 24839, Lyric_t, "t"
1, 24879, Lyric_t, "o "
1, 24919, Lyric_t, "the "
1, 24959, Lyric_t, "autu"
1, 25139, Lyric_t, "mn "
1, 25199, Lyric_t, "leaves "
1, 25199, Lyric_t, "\015"
1, 29519, Lyric_t, "One "
1, 29579, Lyric_t, "day "
1, 29639, Lyric_t, "the "
1, 29699, Lyric_t, "sun "
1, 29699, Lyric_t, "\015"
1, 29819, Lyric_t, "w"
1, 29879, Lyric_t, "ill "
1, 29939, Lyric_t, "shine "
1, 30119, Lyric_t, "on "
1, 30179, Lyric_t, "you "
1, 30179, Lyric_t, "\015"
1, 30479, Lyric_t, "turn "
1, 30539, Lyric_t, "all "
1, 30599, Lyric_t, "your "
1, 30659, Lyric_t, "tears "
1, 30779, Lyric_t, "t"
1, 30839, Lyric_t, "o "
1, 30899, Lyric_t, "laug"
1, 31019, Lyric_t, "hter "
1, 31019, Lyric_t, "\015"
1, 31439, Lyric_t, "one "
1, 31529, Lyric_t, "day "
1, 31619, Lyric_t, "your "
1, 31679, Lyric_t, "dreams "
1, 31679, Lyric_t, "\015"
1, 31859, Lyric_t, "may "
1, 31919, Lyric_t, "all "
1, 32039, Lyric_t, "come "
1, 32159, Lyric_t, "true "
1, 32159, Lyric_t, "\015"
1, 32399, Lyric_t, "one "
1, 32489, Lyric_t, "day "
1, 32579, Lyric_t, "the "
1, 32639, Lyric_t, "sun "
1, 32639, Lyric_t, "\015"
1, 32699, Lyric_t, "wi"
1, 32759, Lyric_t, "ll "
1, 32879, Lyric_t, "shine "
1, 32939, Lyric_t, "o"
1, 32999, Lyric_t, "n "
1, 33059, Lyric_t, "y"
1, 33119, Lyric_t, "ou "
1, 33119, Lyric_t, "\015"
1, 33120, Marker_t, "Coda"
1, 34319, Lyric_t, "turn "
1, 34399, Lyric_t, "all "
1, 34479, Lyric_t, "your "
1, 34559, Lyric_t, "tears "
1, 34560, Marker_t, "page3"
1, 34679, Lyric_t, "t"
1, 34739, Lyric_t, "o "
1, 34799, Lyric_t, "la"
1, 34859, Lyric_t, "u"
1, 34919, Lyric_t, "g"
1, 34979, Lyric_t, "hte"
1, 35039, Lyric_t, "r "
1, 35039, Lyric_t, "\015"
1, 36239, Lyric_t, "one "
1, 36329, Lyric_t, "day "
1, 36419, Lyric_t, "the "
1, 36479, Lyric_t, "sun "
1, 36479, Lyric_t, "\015"
1, 36539, Lyric_t, "wi"
1, 36599, Lyric_t, "ll "
1, 36719, Lyric_t, "shine "
1, 36779, Lyric_t, "o"
1, 36839, Lyric_t, "n "
1, 36899, Lyric_t, "y"
1, 36959, Lyric_t, "ou"
1, 36959, End_track
2, 0, Start_track
2, 0, Sequencer_specific, 5, 5, 15, 9, 0, 64
2, 0, Sequencer_specific, 15, 5, 15, 6, 71, 101, 110, 101, 114, 97, 108, 32, 77, 73, 68, 73
2, 0, Title_t, "Gary Moore - One Day The Sun Will Shine On You"
2, 0, Channel_prefix, 3
2, 0, Control_c, 3, 7, 118
2, 0, Time_signature, 4, 2, 24, 8
2, 0, Key_signature, 0, "major"
2, 26, Control_c, 3, 101, 0
2, 26, Control_c, 3, 100, 0
2, 26, Control_c, 3, 6, 12
2, 26, Control_c, 3, 38, 0
2, 27, Pitch_bend_c, 3, 8192
2, 29, Control_c, 3, 101, 0
2, 29, Control_c, 3, 100, 1
2, 29, Control_c, 3, 6, 64
2, 29, Control_c, 3, 38, 0
2, 92, Control_c, 3, 101, 0
2, 92, Control_c, 3, 100, 2
2, 92, Control_c, 3, 6, 64
2, 92, Control_c, 3, 38, 0
2, 96, Control_c, 3, 0, 0
2, 96, Control_c, 3, 92, 0
2, 96, Control_c, 3, 95, 0
2, 96, End_track
3, 0, Start_track
3, 0, Sequencer_specific, 5, 5, 15, 9, 0, 64
3, 0, Sequencer_specific, 15, 5, 15, 6, 71, 101, 110, 101, 114, 97, 108, 32, 77, 73, 68, 73
3, 0, Title_t, "From the Album ""The Best of Gary Moore"" 2002"
3, 0, Channel_prefix, 8
3, 0, Program_c, 8, 65
3, 0, Control_c, 8, 7, 127
3, 0, Time_signature, 4, 2, 24, 8
3, 0, Key_signature, 0, "major"
3, 35, Control_c, 8, 101, 0
3, 35, Control_c, 8, 100, 0
3, 35, Control_c, 8, 6, 12
3, 35, Control_c, 8, 38, 0
3, 36, Pitch_bend_c, 8, 8192
3, 53, Control_c, 8, 101, 0
3, 53, Control_c, 8, 100, 1
3, 53, Control_c, 8, 6, 64
3, 53, Control_c, 8, 38, 0
3, 71, Control_c, 8, 101, 0
3, 71, Control_c, 8, 100, 2
3, 71, Control_c, 8, 6, 64
3, 71, Control_c, 8, 38, 0
3, 96, Program_c, 8, 94
3, 96, Control_c, 8, 0, 0
3, 96, Control_c, 8, 93, 0
3, 96, Control_c, 8, 91, 48
3, 96, Control_c, 8, 92, 0
3, 96, Control_c, 8, 95, 0
3, 4499, Note_on_c, 8, 60, 95
3, 4559, Note_off_c, 8, 60, 0
3, 4559, Note_on_c, 8, 60, 95
3, 4619, Note_off_c, 8, 60, 0
3, 4619, Note_on_c, 8, 60, 95
3, 4679, Note_off_c, 8, 60, 0
3, 4679, Note_on_c, 8, 59, 95
3, 4739, Note_off_c, 8, 59, 0
3, 4739, Note_on_c, 8, 57, 95
3, 4799, Note_off_c, 8, 57, 0
3, 4859, Note_on_c, 8, 59, 95
3, 4979, Note_off_c, 8, 59, 0
3, 4979, Note_on_c, 8, 60, 95
3, 5009, Note_off_c, 8, 60, 0
3, 5009, Note_on_c, 8, 62, 95
3, 5279, Note_off_c, 8, 62, 0
3, 5459, Note_on_c, 8, 60, 95
3, 5519, Note_off_c, 8, 60, 0
3, 5519, Note_on_c, 8, 60, 95
3, 5579, Note_off_c, 8, 60, 0
3, 5579, Note_on_c, 8, 60, 95
3, 5609, Note_off_c, 8, 60, 0
3, 5609, Note_on_c, 8, 62, 95
3, 5699, Note_off_c, 8, 62, 0
3, 5699, Note_on_c, 8, 64, 95
3, 5759, Note_off_c, 8, 64, 0
3, 5759, Note_on_c, 8, 62, 95
3, 5939, Note_off_c, 8, 62, 0
3, 5939, Note_on_c, 8, 57, 95
3, 5999, Note_off_c, 8, 57, 0
3, 5999, Note_on_c, 8, 57, 95
3, 6239, Note_off_c, 8, 57, 0
3, 6419, Note_on_c, 8, 62, 95
3, 6479, Note_off_c, 8, 62, 0
3, 6479, Note_on_c, 8, 62, 95
3, 6539, Note_off_c, 8, 62, 0
3, 6539, Note_on_c, 8, 62, 95
3, 6569, Note_off_c, 8, 62, 0
3, 6569, Note_on_c, 8, 60, 95
3, 6659, Note_off_c, 8, 60, 0
3, 6659, Note_on_c, 8, 59, 95
3, 6719, Note_off_c, 8, 59, 0
3, 6719, Note_on_c, 8, 60, 95
3, 6779, Note_off_c, 8, 60, 0
3, 6779, Note_on_c, 8, 59, 76
3, 6899, Note_off_c, 8, 59, 0
3, 6899, Note_on_c, 8, 57, 95
3, 6959, Note_off_c, 8, 57, 0
3, 6959, Note_on_c, 8, 60, 95
3, 7199, Note_off_c, 8, 60, 0
3, 7379, Note_on_c, 8, 59, 95
3, 7439, Note_off_c, 8, 59, 0
3, 7439, Note_on_c, 8, 59, 95
3, 7469, Note_off_c, 8, 59, 0
3, 7469, Note_on_c, 8, 57, 95
3, 7499, Note_off_c, 8, 57, 0
3, 7599, Note_on_c, 8, 59, 95
3, 7639, Note_off_c, 8, 59, 0
3, 7639, Note_on_c, 8, 60, 95
3, 7679, Note_off_c, 8, 60, 0
3, 7679, Note_on_c, 8, 62, 95
3, 7859, Note_off_c, 8, 62, 0
3, 7859, Note_on_c, 8, 60, 95
3, 7889, Note_off_c, 8, 60, 0
3, 7889, Note_on_c, 8, 59, 76
3, 7919, Note_off_c, 8, 59, 0
3, 7919, Note_on_c, 8, 60, 95
3, 7979, Note_off_c, 8, 60, 0
3, 7979, Note_on_c, 8, 59, 76
3, 8159, Note_off_c, 8, 59, 0
3, 8339, Note_on_c, 8, 57, 95
3, 8399, Note_off_c, 8, 57, 0
3, 8399, Note_on_c, 8, 60, 95
3, 8459, Note_off_c, 8, 60, 0
3, 8459, Note_on_c, 8, 62, 95
3, 8519, Note_off_c, 8, 62, 0
3, 8519, Note_on_c, 8, 64, 95
3, 8579, Note_off_c, 8, 64, 0
3, 8579, Note_on_c, 8, 65, 95
3, 8699, Note_off_c, 8, 65, 0
3, 8699, Note_on_c, 8, 60, 95
3, 8759, Note_off_c, 8, 60, 0
3, 8759, Note_on_c, 8, 60, 95
3, 8819, Note_off_c, 8, 60, 0
3, 8819, Note_on_c, 8, 59, 95
3, 8999, Note_off_c, 8, 59, 0
3, 8999, Note_on_c, 8, 65, 95
3, 9059, Note_off_c, 8, 65, 0
3, 9059, Note_on_c, 8, 64, 95
3, 9239, Note_off_c, 8, 64, 0
3, 9359, Note_on_c, 8, 57, 95
3, 9419, Note_off_c, 8, 57, 0
3, 9419, Note_on_c, 8, 59, 95
3, 9479, Note_off_c, 8, 59, 0
3, 9479, Note_on_c, 8, 60, 95
3, 9539, Note_off_c, 8, 60, 0
3, 9539, Note_on_c, 8, 62, 95
3, 9659, Note_off_c, 8, 62, 0
3, 9659, Note_on_c, 8, 57, 95
3, 9719, Note_off_c, 8, 57, 0
3, 9719, Note_on_c, 8, 57, 95
3, 9779, Note_off_c, 8, 57, 0
3, 9779, Note_on_c, 8, 56, 95
3, 9899, Note_off_c, 8, 56, 0
3, 9899, Note_on_c, 8, 62, 95
3, 10079, Note_off_c, 8, 62, 0
3, 10319, Note_on_c, 8, 60, 95
3, 10409, Note_off_c, 8, 60, 0
3, 10409, Note_on_c, 8, 62, 95
3, 10499, Note_off_c, 8, 62, 0
3, 10499, Note_on_c, 8, 64, 95
3, 10559, Note_off_c, 8, 64, 0
3, 10559, Note_on_c, 8, 65, 95
3, 10679, Note_off_c, 8, 65, 0
3, 10679, Note_on_c, 8, 60, 76
3, 10739, Note_off_c, 8, 60, 0
3, 10739, Note_on_c, 8, 60, 95
3, 10799, Note_off_c, 8, 60, 0
3, 10799, Note_on_c, 8, 59, 95
3, 10919, Note_off_c, 8, 59, 0
3, 10919, Note_on_c, 8, 65, 95
3, 11039, Note_off_c, 8, 65, 0
3, 11039, Note_on_c, 8, 64, 95
3, 11159, Note_off_c, 8, 64, 0
3, 11279, Note_on_c, 8, 57, 95
3, 11369, Note_off_c, 8, 57, 0
3, 11369, Note_on_c, 8, 59, 95
3, 11459, Note_off_c, 8, 59, 0
3, 11459, Note_on_c, 8, 60, 95
3, 11519, Note_off_c, 8, 60, 0
3, 11519, Note_on_c, 8, 64, 95
3, 11579, Note_off_c, 8, 64, 0
3, 11579, Note_on_c, 8, 62, 76
3, 11639, Note_off_c, 8, 62, 0
3, 11639, Note_on_c, 8, 62, 95
3, 11759, Note_off_c, 8, 62, 0
3, 11759, Note_on_c, 8, 60, 95
3, 11819, Note_off_c, 8, 60, 0
3, 11819, Note_on_c, 8, 59, 76
3, 11879, Note_off_c, 8, 59, 0
3, 11879, Note_on_c, 8, 59, 95
3, 11939, Note_off_c, 8, 59, 0
3, 11939, Note_on_c, 8, 57, 76
3, 11999, Note_off_c, 8, 57, 0
3, 11999, Note_on_c, 8, 57, 95
3, 12119, Note_off_c, 8, 57, 0
3, 14099, Note_on_c, 8, 60, 95
3, 14159, Note_off_c, 8, 60, 0
3, 14159, Note_on_c, 8, 60, 95
3, 14219, Note_off_c, 8, 60, 0
3, 14219, Note_on_c, 8, 60, 95
3, 14279, Note_off_c, 8, 60, 0
3, 14279, Note_on_c, 8, 59, 95
3, 14339, Note_off_c, 8, 59, 0
3, 14339, Note_on_c, 8, 57, 95
3, 14399, Note_off_c, 8, 57, 0
3, 14459, Note_on_c, 8, 59, 95
3, 14579, Note_off_c, 8, 59, 0
3, 14579, Note_on_c, 8, 60, 95
3, 14609, Note_off_c, 8, 60, 0
3, 14609, Note_on_c, 8, 62, 95
3, 14879, Note_off_c, 8, 62, 0
3, 15059, Note_on_c, 8, 60, 95
3, 15119, Note_off_c, 8, 60, 0
3, 15119, Note_on_c, 8, 60, 95
3, 15179, Note_off_c, 8, 60, 0
3, 15179, Note_on_c, 8, 60, 95
3, 15209, Note_off_c, 8, 60, 0
3, 15209, Note_on_c, 8, 62, 95
3, 15299, Note_off_c, 8, 62, 0
3, 15299, Note_on_c, 8, 64, 95
3, 15359, Note_off_c, 8, 64, 0
3, 15359, Note_on_c, 8, 62, 95
3, 15539, Note_off_c, 8, 62, 0
3, 15539, Note_on_c, 8, 57, 95
3, 15599, Note_off_c, 8, 57, 0
3, 15599, Note_on_c, 8, 57, 95
3, 15839, Note_off_c, 8, 57, 0
3, 16019, Note_on_c, 8, 62, 95
3, 16079, Note_off_c, 8, 62, 0
3, 16079, Note_on_c, 8, 62, 95
3, 16139, Note_off_c, 8, 62, 0
3, 16139, Note_on_c, 8, 62, 95
3, 16169, Note_off_c, 8, 62, 0
3, 16169, Note_on_c, 8, 60, 95
3, 16259, Note_off_c, 8, 60, 0
3, 16259, Note_on_c, 8, 59, 95
3, 16319, Note_off_c, 8, 59, 0
3, 16319, Note_on_c, 8, 60, 95
3, 16379, Note_off_c, 8, 60, 0
3, 16379, Note_on_c, 8, 59, 76
3, 16499, Note_off_c, 8, 59, 0
3, 16499, Note_on_c, 8, 57, 95
3, 16559, Note_off_c, 8, 57, 0
3, 16559, Note_on_c, 8, 60, 95
3, 16799, Note_off_c, 8, 60, 0
3, 16979, Note_on_c, 8, 59, 95
3, 17039, Note_off_c, 8, 59, 0
3, 17039, Note_on_c, 8, 59, 95
3, 17069, Note_off_c, 8, 59, 0
3, 17069, Note_on_c, 8, 57, 95
3, 17099, Note_off_c, 8, 57, 0
3, 17199, Note_on_c, 8, 59, 95
3, 17239, Note_off_c, 8, 59, 0
3, 17239, Note_on_c, 8, 60, 95
3, 17279, Note_off_c, 8, 60, 0
3, 17279, Note_on_c, 8, 62, 95
3, 17459, Note_off_c, 8, 62, 0
3, 17459, Note_on_c, 8, 60, 95
3, 17489, Note_off_c, 8, 60, 0
3, 17489, Note_on_c, 8, 59, 76
3, 17519, Note_off_c, 8, 59, 0
3, 17519, Note_on_c, 8, 60, 95
3, 17579, Note_off_c, 8, 60, 0
3, 17579, Note_on_c, 8, 59, 76
3, 17759, Note_off_c, 8, 59, 0
3, 17999, Note_on_c, 8, 60, 95
3, 18059, Note_off_c, 8, 60, 0
3, 18059, Note_on_c, 8, 62, 95
3, 18119, Note_off_c, 8, 62, 0
3, 18119, Note_on_c, 8, 64, 95
3, 18179, Note_off_c, 8, 64, 0
3, 18179, Note_on_c, 8, 65, 95
3, 18299, Note_off_c, 8, 65, 0
3, 18299, Note_on_c, 8, 60, 95
3, 18359, Note_off_c, 8, 60, 0
3, 18359, Note_on_c, 8, 60, 95
3, 18419, Note_off_c, 8, 60, 0
3, 18419, Note_on_c, 8, 59, 95
3, 18599, Note_off_c, 8, 59, 0
3, 18599, Note_on_c, 8, 65, 95
3, 18659, Note_off_c, 8, 65, 0
3, 18659, Note_on_c, 8, 64, 95
3, 18839, Note_off_c, 8, 64, 0
3, 18959, Note_on_c, 8, 57, 95
3, 19019, Note_off_c, 8, 57, 0
3, 19019, Note_on_c, 8, 59, 95
3, 19079, Note_off_c, 8, 59, 0
3, 19079, Note_on_c, 8, 60, 95
3, 19139, Note_off_c, 8, 60, 0
3, 19139, Note_on_c, 8, 62, 95
3, 19259, Note_off_c, 8, 62, 0
3, 19259, Note_on_c, 8, 57, 95
3, 19319, Note_off_c, 8, 57, 0
3, 19319, Note_on_c, 8, 57, 95
3, 19379, Note_off_c, 8, 57, 0
3, 19379, Note_on_c, 8, 56, 95
3, 19499, Note_off_c, 8, 56, 0
3, 19499, Note_on_c, 8, 62, 95
3, 19679, Note_off_c, 8, 62, 0
3, 19919, Note_on_c, 8, 60, 95
3, 20009, Note_off_c, 8, 60, 0
3, 20009, Note_on_c, 8, 62, 95
3, 20099, Note_off_c, 8, 62, 0
3, 20099, Note_on_c, 8, 64, 95
3, 20159, Note_off_c, 8, 64, 0
3, 20159, Note_on_c, 8, 65, 95
3, 20279, Note_off_c, 8, 65, 0
3, 20279, Note_on_c, 8, 60, 76
3, 20339, Note_off_c, 8, 60, 0
3, 20339, Note_on_c, 8, 60, 95
3, 20399, Note_off_c, 8, 60, 0
3, 20399, Note_on_c, 8, 59, 95
3, 20519, Note_off_c, 8, 59, 0
3, 20519, Note_on_c, 8, 65, 95
3, 20639, Note_off_c, 8, 65, 0
3, 20639, Note_on_c, 8, 64, 95
3, 20759, Note_off_c, 8, 64, 0
3, 20879, Note_on_c, 8, 57, 95
3, 20969, Note_off_c, 8, 57, 0
3, 20969, Note_on_c, 8, 59, 95
3, 21059, Note_off_c, 8, 59, 0
3, 21059, Note_on_c, 8, 60, 95
3, 21119, Note_off_c, 8, 60, 0
3, 21119, Note_on_c, 8, 64, 95
3, 21179, Note_off_c, 8, 64, 0
3, 21179, Note_on_c, 8, 62, 76
3, 21239, Note_off_c, 8, 62, 0
3, 21239, Note_on_c, 8, 62, 95
3, 21359, Note_off_c, 8, 62, 0
3, 21359, Note_on_c, 8, 60, 95
3, 21419, Note_off_c, 8, 60, 0
3, 21419, Note_on_c, 8, 59, 76
3, 21479, Note_off_c, 8, 59, 0
3, 21479, Note_on_c, 8, 59, 95
3, 21539, Note_off_c, 8, 59, 0
3, 21539, Note_on_c, 8, 57, 76
3, 21599, Note_off_c, 8, 57, 0
3, 21759, Note_on_c, 8, 65, 95
3, 21799, Note_off_c, 8, 65, 0
3, 21799, Note_on_c, 8, 65, 95
3, 21839, Note_off_c, 8, 65, 0
3, 21839, Note_on_c, 8, 65, 95
3, 21959, Note_off_c, 8, 65, 0
3, 21959, Note_on_c, 8, 64, 76
3, 21999, Note_off_c, 8, 64, 0
3, 21999, Note_on_c, 8, 64, 95
3, 22039, Note_off_c, 8, 64, 0
3, 22039, Note_on_c, 8, 62, 95
3, 22079, Note_off_c, 8, 62, 0
3, 22079, Note_on_c, 8, 64, 95
3, 22259, Note_off_c, 8, 64, 0
3, 22259, Note_on_c, 8, 65, 95
3, 22319, Note_off_c, 8, 65, 0
3, 22319, Note_on_c, 8, 65, 95
3, 22559, Note_off_c, 8, 65, 0
3, 22719, Note_on_c, 8, 65, 95
3, 22759, Note_off_c, 8, 65, 0
3, 22759, Note_on_c, 8, 65, 95
3, 22799, Note_off_c, 8, 65, 0
3, 22799, Note_on_c, 8, 65, 95
3, 22919, Note_off_c, 8, 65, 0
3, 22919, Note_on_c, 8, 64, 76
3, 22959, Note_off_c, 8, 64, 0
3, 22959, Note_on_c, 8, 64, 95
3, 22999, Note_off_c, 8, 64, 0
3, 22999, Note_on_c, 8, 62, 95
3, 23039, Note_off_c, 8, 62, 0
3, 23039, Note_on_c, 8, 62, 95
3, 23159, Note_off_c, 8, 62, 0
3, 23159, Note_on_c, 8, 60, 76
3, 23219, Note_off_c, 8, 60, 0
3, 23219, Note_on_c, 8, 60, 95
3, 23279, Note_off_c, 8, 60, 0
3, 23279, Note_on_c, 8, 60, 95
3, 23519, Note_off_c, 8, 60, 0
3, 23679, Note_on_c, 8, 62, 95
3, 23719, Note_off_c, 8, 62, 0
3, 23719, Note_on_c, 8, 62, 95
3, 23759, Note_off_c, 8, 62, 0
3, 23759, Note_on_c, 8, 62, 95
3, 23879, Note_off_c, 8, 62, 0
3, 23879, Note_on_c, 8, 60, 76
3, 23919, Note_off_c, 8, 60, 0
3, 23919, Note_on_c, 8, 60, 95
3, 23959, Note_off_c, 8, 60, 0
3, 23959, Note_on_c, 8, 59, 95
3, 23999, Note_off_c, 8, 59, 0
3, 23999, Note_on_c, 8, 60, 95
3, 24149, Note_off_c, 8, 60, 0
3, 24149, Note_on_c, 8, 62, 95
3, 24239, Note_off_c, 8, 62, 0
3, 24239, Note_on_c, 8, 62, 95
3, 24479, Note_off_c, 8, 62, 0
3, 24559, Note_on_c, 8, 62, 95
3, 24639, Note_off_c, 8, 62, 0
3, 24639, Note_on_c, 8, 64, 95
3, 24719, Note_off_c, 8, 64, 0
3, 24719, Note_on_c, 8, 65, 95
3, 24839, Note_off_c, 8, 65, 0
3, 24839, Note_on_c, 8, 64, 76
3, 24879, Note_off_c, 8, 64, 0
3, 24879, Note_on_c, 8, 64, 95
3, 24919, Note_off_c, 8, 64, 0
3, 24919, Note_on_c, 8, 62, 95
3, 24959, Note_off_c, 8, 62, 0
3, 24959, Note_on_c, 8, 65, 95
3, 25139, Note_off_c, 8, 65, 0
3, 25139, Note_on_c, 8, 67, 95
3, 25199, Note_off_c, 8, 67, 0
3, 25199, Note_on_c, 8, 64, 95
3, 25439, Note_off_c, 8, 64, 0
3, 29519, Note_on_c, 8, 60, 95
3, 29579, Note_off_c, 8, 60, 0
3, 29579, Note_on_c, 8, 62, 95
3, 29639, Note_off_c, 8, 62, 0
3, 29639, Note_on_c, 8, 64, 95
3, 29699, Note_off_c, 8, 64, 0
3, 29699, Note_on_c, 8, 65, 95
3, 29819, Note_off_c, 8, 65, 0
3, 29819, Note_on_c, 8, 60, 95
3, 29879, Note_off_c, 8, 60, 0
3, 29879, Note_on_c, 8, 60, 95
3, 29939, Note_off_c, 8, 60, 0
3, 29939, Note_on_c, 8, 59, 95
3, 30119, Note_off_c, 8, 59, 0
3, 30119, Note_on_c, 8, 65, 95
3, 30179, Note_off_c, 8, 65, 0
3, 30179, Note_on_c, 8, 64, 95
3, 30359, Note_off_c, 8, 64, 0
3, 30479, Note_on_c, 8, 57, 95
3, 30539, Note_off_c, 8, 57, 0
3, 30539, Note_on_c, 8, 59, 95
3, 30599, Note_off_c, 8, 59, 0
3, 30599, Note_on_c, 8, 60, 95
3, 30659, Note_off_c, 8, 60, 0
3, 30659, Note_on_c, 8, 62, 95
3, 30779, Note_off_c, 8, 62, 0
3, 30779, Note_on_c, 8, 57, 95
3, 30839, Note_off_c, 8, 57, 0
3, 30839, Note_on_c, 8, 57, 95
3, 30899, Note_off_c, 8, 57, 0
3, 30899, Note_on_c, 8, 56, 95
3, 31019, Note_off_c, 8, 56, 0
3, 31019, Note_on_c, 8, 62, 95
3, 31199, Note_off_c, 8, 62, 0
3, 31439, Note_on_c, 8, 60, 95
3, 31529, Note_off_c, 8, 60, 0
3, 31529, Note_on_c, 8, 62, 95
3, 31619, Note_off_c, 8, 62, 0
3, 31619, Note_on_c, 8, 64, 95
3, 31679, Note_off_c, 8, 64, 0
3, 31679, Note_on_c, 8, 65, 95
3, 31859, Note_off_c, 8, 65, 0
3, 31859, Note_on_c, 8, 60, 95
3, 31919, Note_off_c, 8, 60, 0
3, 31919, Note_on_c, 8, 59, 95
3, 32039, Note_off_c, 8, 59, 0
3, 32039, Note_on_c, 8, 62, 95
3, 32159, Note_off_c, 8, 62, 0
3, 32159, Note_on_c, 8, 64, 95
3, 32279, Note_off_c, 8, 64, 0
3, 32399, Note_on_c, 8, 67, 95
3, 32489, Note_off_c, 8, 67, 0
3, 32489, Note_on_c, 8, 65, 95
3, 32579, Note_off_c, 8, 65, 0
3, 32579, Note_on_c, 8, 64, 95
3, 32639, Note_off_c, 8, 64, 0
3, 32639, Note_on_c, 8, 64, 95
3, 32699, Note_off_c, 8, 64, 0
3, 32699, Note_on_c, 8, 62, 76
3, 32759, Note_off_c, 8, 62, 0
3, 32759, Note_on_c, 8, 62, 95
3, 32879, Note_off_c, 8, 62, 0
3, 32879, Note_on_c, 8, 60, 95
3, 32939, Note_off_c, 8, 60, 0
3, 32939, Note_on_c, 8, 59, 76
3, 32999, Note_off_c, 8, 59, 0
3, 32999, Note_on_c, 8, 59, 95
3, 33059, Note_off_c, 8, 59, 0
3, 33059, Note_on_c, 8, 57, 76
3, 33119, Note_off_c, 8, 57, 0
3, 33119, Note_on_c, 8, 57, 95
3, 33479, Note_off_c, 8, 57, 0
3, 34319, Note_on_c, 8, 57, 95
3, 34399, Note_off_c, 8, 57, 0
3, 34399, Note_on_c, 8, 59, 95
3, 34479, Note_off_c, 8, 59, 0
3, 34479, Note_on_c, 8, 60, 95
3, 34559, Note_off_c, 8, 60, 0
3, 34559, Note_on_c, 8, 64, 95
3, 34679, Note_off_c, 8, 64, 0
3, 34679, Note_on_c, 8, 62, 76
3, 34739, Note_off_c, 8, 62, 0
3, 34739, Note_on_c, 8, 62, 95
3, 34799, Note_off_c, 8, 62, 0
3, 34799, Note_on_c, 8, 60, 95
3, 34859, Note_off_c, 8, 60, 0
3, 34859, Note_on_c, 8, 59, 76
3, 34919, Note_off_c, 8, 59, 0
3, 34919, Note_on_c, 8, 59, 95
3, 34979, Note_off_c, 8, 59, 0
3, 34979, Note_on_c, 8, 57, 76
3, 35039, Note_off_c, 8, 57, 0
3, 35039, Note_on_c, 8, 57, 95
3, 35279, Note_off_c, 8, 57, 0
3, 36239, Note_on_c, 8, 67, 95
3, 36329, Note_off_c, 8, 67, 0
3, 36329, Note_on_c, 8, 65, 95
3, 36419, Note_off_c, 8, 65, 0
3, 36419, Note_on_c, 8, 64, 95
3, 36479, Note_off_c, 8, 64, 0
3, 36479, Note_on_c, 8, 64, 95
3, 36539, Note_off_c, 8, 64, 0
3, 36539, Note_on_c, 8, 62, 76
3, 36599, Note_off_c, 8, 62, 0
3, 36599, Note_on_c, 8, 62, 95
3, 36719, Note_off_c, 8, 62, 0
3, 36719, Note_on_c, 8, 60, 95
3, 36779, Note_off_c, 8, 60, 0
3, 36779, Note_on_c, 8, 59, 76
3, 36839, Note_off_c, 8, 59, 0
3, 36839, Note_on_c, 8, 59, 95
3, 36899, Note_off_c, 8, 59, 0
3, 36899, Note_on_c, 8, 57, 76
3, 36959, Note_off_c, 8, 57, 0
3, 36959, Note_on_c, 8, 57, 95
3, 37199, Note_off_c, 8, 57, 0
3, 37199, End_track
4, 0, Start_track
4, 0, Sequencer_specific, 5, 5, 15, 9, 0, 64
4, 0, Sequencer_specific, 15, 5, 15, 6, 71, 101, 110, 101, 114, 97, 108, 32, 77, 73, 68, 73
4, 0, Title_t, "An Estrada Presentation in Memory of Gary Moore"
4, 0, Channel_prefix, 9
4, 0, Program_c, 9, 0
4, 0, Control_c, 9, 7, 127
4, 0, Control_c, 9, 10, 64
4, 0, Time_signature, 4, 2, 24, 8
4, 0, Key_signature, 0, "major"
4, 30, Control_c, 9, 91, 40
4, 30, Control_c, 9, 93, 0
4, 32, Control_c, 9, 101, 0
4, 32, Control_c, 9, 100, 0
4, 32, Control_c, 9, 6, 12
4, 32, Control_c, 9, 38, 0
4, 33, Pitch_bend_c, 9, 8192
4, 50, Control_c, 9, 101, 0
4, 50, Control_c, 9, 100, 1
4, 50, Control_c, 9, 6, 64
4, 50, Control_c, 9, 38, 0
4, 51, Control_c, 9, 0, 0
4, 51, Control_c, 9, 92, 0
4, 51, Control_c, 9, 95, 0
4, 51, Note_on_c, 9, 31, 127
4, 120, Note_off_c, 9, 31, 0
4, 120, Note_on_c, 9, 31, 127
4, 240, Note_off_c, 9, 31, 0
4, 240, Note_on_c, 9, 31, 127
4, 360, Note_off_c, 9, 31, 0
4, 360, Note_on_c, 9, 31, 127
4, 480, Note_off_c, 9, 31, 0
4, 480, Note_on_c, 9, 42, 127
4, 480, Note_on_c, 9, 35, 127
4, 540, Note_off_c, 9, 42, 0
4, 540, Note_off_c, 9, 35, 0
4, 540, Note_on_c, 9, 42, 127
4, 600, Note_off_c, 9, 42, 0
4, 600, Note_on_c, 9, 42, 127
4, 600, Note_on_c, 9, 38, 127
4, 660, Note_off_c, 9, 42, 0
4, 660, Note_off_c, 9, 38, 0
4, 660, Note_on_c, 9, 42, 127
4, 720, Note_off_c, 9, 42, 0
4, 720, Note_on_c, 9, 42, 127
4, 720, Note_on_c, 9, 35, 127
4, 780, Note_off_c, 9, 42, 0
4, 780, Note_off_c, 9, 35, 0
4, 780, Note_on_c, 9, 42, 127
4, 840, Note_off_c, 9, 42, 0
4, 840, Note_on_c, 9, 42, 127
4, 840, Note_on_c, 9, 38, 127
4, 900, Note_off_c, 9, 38, 0
4, 900, Note_off_c, 9, 42, 0
4, 900, Note_on_c, 9, 42, 127
4, 960, Note_off_c, 9, 42, 0
4, 960, Note_on_c, 9, 42, 127
4, 960, Note_on_c, 9, 35, 127
4, 1020, Note_off_c, 9, 42, 0
4, 1020, Note_off_c, 9, 35, 0
4, 1020, Note_on_c, 9, 42, 127
4, 1080, Note_off_c, 9, 42, 0
4, 1080, Note_on_c, 9, 42, 127
4, 1080, Note_on_c, 9, 38, 127
4, 1140, Note_off_c, 9, 42, 0
4, 1140, Note_off_c, 9, 38, 0
4, 1140, Note_on_c, 9, 42, 127
4, 1200, Note_off_c, 9, 42, 0
4, 1200, Note_on_c, 9, 42, 127
4, 1200, Note_on_c, 9, 35, 127
4, 1260, Note_off_c, 9, 35, 0
4, 1260, Note_off_c, 9, 42, 0
4, 1260, Note_on_c, 9, 42, 127
4, 1320, Note_off_c, 9, 42, 0
4, 1320, Note_on_c, 9, 42, 127
4, 1320, Note_on_c, 9, 38, 127
4, 1380, Note_off_c, 9, 42, 0
4, 1380, Note_off_c, 9, 38, 0
4, 1380, Note_on_c, 9, 42, 127
4, 1440, Note_off_c, 9, 42, 0
4, 1440, Note_on_c, 9, 42, 127
4, 1440, Note_on_c, 9, 35, 127
4, 1500, Note_off_c, 9, 42, 0
4, 1500, Note_off_c, 9, 35, 0
4, 1500, Note_on_c, 9, 42, 127
4, 1560, Note_off_c, 9, 42, 0
4, 1560, Note_on_c, 9, 42, 127
4, 1560, Note_on_c, 9, 38, 127
4, 1620, Note_off_c, 9, 42, 0
4, 1620, Note_off_c, 9, 38, 0
4, 1620, Note_on_c, 9, 42, 127
4, 1680, Note_off_c, 9, 42, 0
4, 1680, Note_on_c, 9, 42, 127
4, 1680, Note_on_c, 9, 35, 127
4, 1740, Note_off_c, 9, 35, 0
4, 1740, Note_off_c, 9, 42, 0
4, 1740, Note_on_c, 9, 42, 127
4, 1800, Note_off_c, 9, 42, 0
4, 1800, Note_on_c, 9, 42, 127
4, 1800, Note_on_c, 9, 38, 127
4, 1860, Note_off_c, 9, 42, 0
4, 1860, Note_off_c, 9, 38, 0
4, 1860, Note_on_c, 9, 42, 127
4, 1920, Note_off_c, 9, 42, 0
4, 1920, Note_on_c, 9, 42, 127
4, 1920, Note_on_c, 9, 35, 127
4, 1980, Note_off_c, 9, 42, 0
4, 1980, Note_off_c, 9, 35, 0
4, 1980, Note_on_c, 9, 42, 127
4, 2040, Note_off_c, 9, 42, 0
4, 2040, Note_on_c, 9, 42, 127
4, 2040, Note_on_c, 9, 38, 127
4, 2100, Note_off_c, 9, 42, 0
4, 2100, Note_off_c, 9, 38, 0
4, 2100, Note_on_c, 9, 42, 127
4, 2160, Note_off_c, 9, 42, 0
4, 2160, Note_on_c, 9, 42, 127
4, 2160, Note_on_c, 9, 35, 127
4, 2220, Note_off_c, 9, 42, 0
4, 2220, Note_off_c, 9, 35, 0
4, 2220, Note_on_c, 9, 42, 127
4, 2280, Note_off_c, 9, 42, 0
4, 2280, Note_on_c, 9, 42, 127
4, 2280, Note_on_c, 9, 38, 127
4, 2340, Note_off_c, 9, 38, 0
4, 2340, Note_off_c, 9, 42, 0
4, 2340, Note_on_c, 9, 42, 127
4, 2400, Note_off_c, 9, 42, 0
4, 2400, Note_on_c, 9, 42, 127
4, 2400, Note_on_c, 9, 35, 127
4, 2460, Note_off_c, 9, 42, 0
4, 2460, Note_off_c, 9, 35, 0
4, 2460, Note_on_c, 9, 42, 127
4, 2520, Note_off_c, 9, 42, 0
4, 2520, Note_on_c, 9, 42, 127
4, 2520, Note_on_c, 9, 38, 127
4, 2580, Note_off_c, 9, 42, 0
4, 2580, Note_off_c, 9, 38, 0
4, 2580, Note_on_c, 9, 42, 127
4, 2640, Note_off_c, 9, 42, 0
4, 2640, Note_on_c, 9, 42, 127
4, 2640, Note_on_c, 9, 35, 127
4, 2700, Note_off_c, 9, 42, 0
4, 2700, Note_off_c, 9, 35, 0
4, 2700, Note_on_c, 9, 42, 127
4, 2760, Note_off_c, 9, 42, 0
4, 2760, Note_on_c, 9, 42, 127
4, 2760, Note_on_c, 9, 38, 127
4, 2820, Note_off_c, 9, 38, 0
4, 2820, Note_off_c, 9, 42, 0
4, 2820, Note_on_c, 9, 42, 127
4, 2880, Note_off_c, 9, 42, 0
4, 2880, Note_on_c, 9, 42, 127
4, 2880, Note_on_c, 9, 35, 127
4, 2940, Note_off_c, 9, 42, 0
4, 2940, Note_off_c, 9, 35, 0
4, 2940, Note_on_c, 9, 42, 127
4, 3000, Note_off_c, 9, 42, 0
4, 3000, Note_on_c, 9, 42, 127
4, 3000, Note_on_c, 9, 38, 127
4, 3060, Note_off_c, 9, 38, 0
4, 3060, Note_off_c, 9, 42, 0
4, 3060, Note_on_c, 9, 42, 127
4, 3120, Note_off_c, 9, 42, 0
4, 3120, Note_on_c, 9, 42, 127
4, 3120, Note_on_c, 9, 35, 127
4, 3180, Note_off_c, 9, 35, 0
4, 3180, Note_off_c, 9, 42, 0
4, 3180, Note_on_c, 9, 42, 127
4, 3240, Note_off_c, 9, 42, 0
4, 3240, Note_on_c, 9, 42, 127
4, 3240, Note_on_c, 9, 38, 127
4, 3300, Note_off_c, 9, 38, 0
4, 3300, Note_off_c, 9, 42, 0
4, 3300, Note_on_c, 9, 42, 127
4, 3360, Note_off_c, 9, 42, 0
4, 3360, Note_on_c, 9, 42, 127
4, 3360, Note_on_c, 9, 35, 127
4, 3420, Note_off_c, 9, 42, 0
4, 3420, Note_off_c, 9, 35, 0
4, 3420, Note_on_c, 9, 42, 127
4, 3480, Note_off_c, 9, 42, 0
4, 3480, Note_on_c, 9, 42, 127
4, 3480, Note_on_c, 9, 38, 127
4, 3540, Note_off_c, 9, 42, 0
4, 3540, Note_off_c, 9, 38, 0
4, 3540, Note_on_c, 9, 42, 127
4, 3600, Note_off_c, 9, 42, 0
4, 3600, Note_on_c, 9, 42, 127
4, 3600, Note_on_c, 9, 35, 127
4, 3660, Note_off_c, 9, 35, 0
4, 3660, Note_off_c, 9, 42, 0
4, 3660, Note_on_c, 9, 42, 127
4, 3720, Note_off_c, 9, 42, 0
4, 3720, Note_on_c, 9, 42, 127
4, 3720, Note_on_c, 9, 38, 127
4, 3780, Note_off_c, 9, 38, 0
4, 3780, Note_off_c, 9, 42, 0
4, 3780, Note_on_c, 9, 42, 127
4, 3840, Note_off_c, 9, 42, 0
4, 3840, Note_on_c, 9, 42, 127
4, 3840, Note_on_c, 9, 35, 127
4, 3900, Note_off_c, 9, 42, 0
4, 3900, Note_off_c, 9, 35, 0
4, 3900, Note_on_c, 9, 42, 127
4, 3960, Note_off_c, 9, 42, 0
4, 3960, Note_on_c, 9, 42, 127
4, 3960, Note_on_c, 9, 38, 127
4, 4020, Note_off_c, 9, 42, 0
4, 4020, Note_off_c, 9, 38, 0
4, 4020, Note_on_c, 9, 42, 127
4, 4080, Note_off_c, 9, 42, 0
4, 4080, Note_on_c, 9, 42, 127
4, 4080, Note_on_c, 9, 35, 127
4, 4140, Note_off_c, 9, 42, 0
4, 4140, Note_off_c, 9, 35, 0
4, 4140, Note_on_c, 9, 42, 127
4, 4200, Note_off_c, 9, 42, 0
4, 4200, Note_on_c, 9, 42, 127
4, 4200, Note_on_c, 9, 38, 127
4, 4260, Note_off_c, 9, 42, 0
4, 4260, Note_off_c, 9, 38, 0
4, 4260, Note_on_c, 9, 42, 127
4, 4260, Note_on_c, 9, 38, 127
4, 4320, Note_off_c, 9, 38, 0
4, 4320, Note_off_c, 9, 42, 0
4, 4320, Note_on_c, 9, 42, 127
4, 4320, Note_on_c, 9, 35, 127
4, 4380, Note_off_c, 9, 42, 0
4, 4380, Note_off_c, 9, 35, 0
4, 4380, Note_on_c, 9, 42, 127
4, 4440, Note_off_c, 9, 42, 0
4, 4440, Note_on_c, 9, 42, 127
4, 4440, Note_on_c, 9, 38, 127
4, 4500, Note_off_c, 9, 42, 0
4, 4500, Note_off_c, 9, 38, 0
4, 4500, Note_on_c, 9, 42, 127
4, 4560, Note_off_c, 9, 42, 0
4, 4560, Note_on_c, 9, 42, 127
4, 4560, Note_on_c, 9, 35, 127
4, 4620, Note_off_c, 9, 42, 0
4, 4620, Note_off_c, 9, 35, 0
4, 4620, Note_on_c, 9, 42, 127
4, 4680, Note_off_c, 9, 42, 0
4, 4680, Note_on_c, 9, 42, 127
4, 4680, Note_on_c, 9, 38, 127
4, 4740, Note_off_c, 9, 42, 0
4, 4740, Note_off_c, 9, 38, 0
4, 4740, Note_on_c, 9, 42, 127
4, 4800, Note_off_c, 9, 42, 0
4, 4800, Note_on_c, 9, 42, 127
4, 4800, Note_on_c, 9, 35, 127
4, 4860, Note_off_c, 9, 42, 0
4, 4860, Note_off_c, 9, 35, 0
4, 4860, Note_on_c, 9, 42, 127
4, 4920, Note_off_c, 9, 42, 0
4, 4920, Note_on_c, 9, 42, 127
4, 4920, Note_on_c, 9, 38, 127
4, 4980, Note_off_c, 9, 38, 0
4, 4980, Note_off_c, 9, 42, 0
4, 4980, Note_on_c, 9, 42, 127
4, 5040, Note_off_c, 9, 42, 0
4, 5040, Note_on_c, 9, 42, 127
4, 5040, Note_on_c, 9, 35, 127
4, 5100, Note_off_c, 9, 42, 0
4, 5100, Note_off_c, 9, 35, 0
4, 5100, Note_on_c, 9, 42, 127
4, 5160, Note_off_c, 9, 42, 0
4, 5160, Note_on_c, 9, 42, 127
4, 5160, Note_on_c, 9, 38, 127
4, 5220, Note_off_c, 9, 42, 0
4, 5220, Note_off_c, 9, 38, 0
4, 5220, Note_on_c, 9, 42, 127
4, 5280, Note_off_c, 9, 42, 0
4, 5280, Note_on_c, 9, 42, 127
4, 5280, Note_on_c, 9, 35, 127
4, 5340, Note_off_c, 9, 42, 0
4, 5340, Note_off_c, 9, 35, 0
4, 5340, Note_on_c, 9, 42, 127
4, 5400, Note_off_c, 9, 42, 0
4, 5400, Note_on_c, 9, 42, 127
4, 5400, Note_on_c, 9, 38, 127
4, 5460, Note_off_c, 9, 42, 0
4, 5460, Note_off_c, 9, 38, 0
4, 5460, Note_on_c, 9, 42, 127
4, 5520, Note_off_c, 9, 42, 0
4, 5520, Note_on_c, 9, 42, 127
4, 5520, Note_on_c, 9, 35, 127
4, 5580, Note_off_c, 9, 42, 0
4, 5580, Note_off_c, 9, 35, 0
4, 5580, Note_on_c, 9, 42, 127
4, 5640, Note_off_c, 9, 42, 0
4, 5640, Note_on_c, 9, 42, 127
4, 5640, Note_on_c, 9, 38, 127
4, 5700, Note_off_c, 9, 38, 0
4, 5700, Note_off_c, 9, 42, 0
4, 5700, Note_on_c, 9, 42, 127
4, 5760, Note_off_c, 9, 42, 0
4, 5760, Note_on_c, 9, 42, 127
4, 5760, Note_on_c, 9, 35, 127
4, 5820, Note_off_c, 9, 42, 0
4, 5820, Note_off_c, 9, 35, 0
4, 5820, Note_on_c, 9, 42, 127
4, 5880, Note_off_c, 9, 42, 0
4, 5880, Note_on_c, 9, 42, 127
4, 5880, Note_on_c, 9, 38, 127
4, 5940, Note_off_c, 9, 38, 0
4, 5940, Note_off_c, 9, 42, 0
4, 5940, Note_on_c, 9, 42, 127
4, 6000, Note_off_c, 9, 42, 0
4, 6000, Note_on_c, 9, 42, 127
4, 6000, Note_on_c, 9, 35, 127
4, 6060, Note_off_c, 9, 42, 0
4, 6060, Note_off_c, 9, 35, 0
4, 6060, Note_on_c, 9, 42, 127
4, 6120, Note_off_c, 9, 42, 0
4, 6120, Note_on_c, 9, 42, 127
4, 6120, Note_on_c, 9, 38, 127
4, 6180, Note_off_c, 9, 42, 0
4, 6180, Note_off_c, 9, 38, 0
4, 6180, Note_on_c, 9, 42, 127
4, 6240, Note_off_c, 9, 42, 0
4, 6240, Note_on_c, 9, 42, 127
4, 6240, Note_on_c, 9, 35, 127
4, 6300, Note_off_c, 9, 42, 0
4, 6300, Note_off_c, 9, 35, 0
4, 6300, Note_on_c, 9, 42, 127
4, 6360, Note_off_c, 9, 42, 0
4, 6360, Note_on_c, 9, 42, 127
4, 6360, Note_on_c, 9, 38, 127
4, 6420, Note_off_c, 9, 42, 0
4, 6420, Note_off_c, 9, 38, 0
4, 6420, Note_on_c, 9, 42, 127
4, 6480, Note_off_c, 9, 42, 0
4, 6480, Note_on_c, 9, 42, 127
4, 6480, Note_on_c, 9, 35, 127
4, 6540, Note_off_c, 9, 42, 0
4, 6540, Note_off_c, 9, 35, 0
4, 6540, Note_on_c, 9, 42, 127
4, 6600, Note_off_c, 9, 42, 0
4, 6600, Note_on_c, 9, 42, 127
4, 6600, Note_on_c, 9, 38, 127
4, 6660, Note_off_c, 9, 38, 0
4, 6660, Note_off_c, 9, 42, 0
4, 6660, Note_on_c, 9, 42, 127
4, 6720, Note_off_c, 9, 42, 0
4, 6720, Note_on_c, 9, 42, 127
4, 6720, Note_on_c, 9, 35, 127
4, 6780, Note_off_c, 9, 42, 0
4, 6780, Note_off_c, 9, 35, 0
4, 6780, Note_on_c, 9, 42, 127
4, 6840, Note_off_c, 9, 42, 0
4, 6840, Note_on_c, 9, 42, 127
4, 6840, Note_on_c, 9, 38, 127
4, 6900, Note_off_c, 9, 42, 0
4, 6900, Note_off_c, 9, 38, 0
4, 6900, Note_on_c, 9, 42, 127
4, 6960, Note_off_c, 9, 42, 0
4, 6960, Note_on_c, 9, 42, 127
4, 6960, Note_on_c, 9, 35, 127
4, 7020, Note_off_c, 9, 42, 0
4, 7020, Note_off_c, 9, 35, 0
4, 7020, Note_on_c, 9, 42, 127
4, 7080, Note_off_c, 9, 42, 0
4, 7080, Note_on_c, 9, 42, 127
4, 7080, Note_on_c, 9, 38, 127
4, 7140, Note_off_c, 9, 42, 0
4, 7140, Note_off_c, 9, 38, 0
4, 7140, Note_on_c, 9, 42, 127
4, 7200, Note_off_c, 9, 42, 0
4, 7200, Note_on_c, 9, 42, 127
4, 7200, Note_on_c, 9, 35, 127
4, 7260, Note_off_c, 9, 42, 0
4, 7260, Note_off_c, 9, 35, 0
4, 7260, Note_on_c, 9, 42, 127
4, 7320, Note_off_c, 9, 42, 0
4, 7320, Note_on_c, 9, 42, 127
4, 7320, Note_on_c, 9, 38, 127
4, 7380, Note_off_c, 9, 42, 0
4, 7380, Note_off_c, 9, 38, 0
4, 7380, Note_on_c, 9, 42, 127
4, 7440, Note_off_c, 9, 42, 0
4, 7440, Note_on_c, 9, 42, 127
4, 7440, Note_on_c, 9, 35, 127
4, 7500, Note_off_c, 9, 35, 0
4, 7500, Note_off_c, 9, 42, 0
4, 7500, Note_on_c, 9, 42, 127
4, 7560, Note_off_c, 9, 42, 0
4, 7560, Note_on_c, 9, 42, 127
4, 7560, Note_on_c, 9, 38, 127
4, 7620, Note_off_c, 9, 42, 0
4, 7620, Note_off_c, 9, 38, 0
4, 7620, Note_on_c, 9, 42, 127
4, 7680, Note_off_c, 9, 42, 0
4, 7680, Note_on_c, 9, 42, 127
4, 7680, Note_on_c, 9, 35, 127
4, 7740, Note_off_c, 9, 42, 0
4, 7740, Note_off_c, 9, 35, 0
4, 7740, Note_on_c, 9, 42, 127
4, 7800, Note_off_c, 9, 42, 0
4, 7800, Note_on_c, 9, 42, 127
4, 7800, Note_on_c, 9, 38, 127
4, 7860, Note_off_c, 9, 42, 0
4, 7860, Note_off_c, 9, 38, 0
4, 7860, Note_on_c, 9, 42, 127
4, 7920, Note_off_c, 9, 42, 0
4, 7920, Note_on_c, 9, 42, 127
4, 7920, Note_on_c, 9, 35, 127
4, 7980, Note_off_c, 9, 42, 0
4, 7980, Note_off_c, 9, 35, 0
4, 7980, Note_on_c, 9, 42, 127
4, 7980, Note_on_c, 9, 38, 95
4, 7980, Note_on_c, 9, 43, 95
4, 8040, Note_off_c, 9, 38, 0
4, 8040, Note_off_c, 9, 42, 0
4, 8040, Note_off_c, 9, 43, 0
4, 8040, Note_on_c, 9, 42, 127
4, 8040, Note_on_c, 9, 38, 111
4, 8040, Note_on_c, 9, 43, 111
4, 8100, Note_off_c, 9, 38, 0
4, 8100, Note_off_c, 9, 42, 0
4, 8100, Note_off_c, 9, 43, 0
4, 8100, Note_on_c, 9, 42, 127
4, 8100, Note_on_c, 9, 38, 127
4, 8100, Note_on_c, 9, 43, 127
4, 8160, Note_off_c, 9, 43, 0
4, 8160, Note_off_c, 9, 42, 0
4, 8160, Note_off_c, 9, 38, 0
4, 8160, Note_on_c, 9, 42, 127
4, 8160, Note_on_c, 9, 35, 127
4, 8160, Note_on_c, 9, 49, 95
4, 8220, Note_off_c, 9, 49, 0
4, 8220, Note_off_c, 9, 42, 0
4, 8220, Note_off_c, 9, 35, 0
4, 8220, Note_on_c, 9, 42, 127
4, 8280, Note_off_c, 9, 42, 0
4, 8280, Note_on_c, 9, 42, 127
4, 8280, Note_on_c, 9, 38, 127
4, 8340, Note_off_c, 9, 38, 0
4, 8340, Note_off_c, 9, 42, 0
4, 8340, Note_on_c, 9, 42, 127
4, 8400, Note_off_c, 9, 42, 0
4, 8400, Note_on_c, 9, 42, 127
4, 8400, Note_on_c, 9, 35, 127
4, 8460, Note_off_c, 9, 42, 0
4, 8460, Note_off_c, 9, 35, 0
4, 8460, Note_on_c, 9, 42, 127
4, 8520, Note_off_c, 9, 42, 0
4, 8520, Note_on_c, 9, 42, 127
4, 8520, Note_on_c, 9, 38, 127
4, 8580, Note_off_c, 9, 42, 0
4, 8580, Note_off_c, 9, 38, 0
4, 8580, Note_on_c, 9, 42, 127
4, 8640, Note_off_c, 9, 42, 0
4, 8640, Note_on_c, 9, 42, 127
4, 8640, Note_on_c, 9, 35, 127
4, 8700, Note_off_c, 9, 35, 0
4, 8700, Note_off_c, 9, 42, 0
4, 8700, Note_on_c, 9, 42, 127
4, 8760, Note_off_c, 9, 42, 0
4, 8760, Note_on_c, 9, 42, 127
4, 8760, Note_on_c, 9, 38, 127
4, 8820, Note_off_c, 9, 38, 0
4, 8820, Note_off_c, 9, 42, 0
4, 8820, Note_on_c, 9, 42, 127
4, 8880, Note_off_c, 9, 42, 0
4, 8880, Note_on_c, 9, 42, 127
4, 8880, Note_on_c, 9, 35, 127
4, 8940, Note_off_c, 9, 42, 0
4, 8940, Note_off_c, 9, 35, 0
4, 8940, Note_on_c, 9, 42, 127
4, 9000, Note_off_c, 9, 42, 0
4, 9000, Note_on_c, 9, 42, 127
4, 9000, Note_on_c, 9, 38, 127
4, 9060, Note_off_c, 9, 38, 0
4, 9060, Note_off_c, 9, 42, 0
4, 9060, Note_on_c, 9, 42, 127
4, 9120, Note_off_c, 9, 42, 0
4, 9120, Note_on_c, 9, 42, 127
4, 9120, Note_on_c, 9, 35, 127
4, 9180, Note_off_c, 9, 42, 0
4, 9180, Note_off_c, 9, 35, 0
4, 9180, Note_on_c, 9, 42, 127
4, 9240, Note_off_c, 9, 42, 0
4, 9240, Note_on_c, 9, 42, 127
4, 9240, Note_on_c, 9, 38, 127
4, 9300, Note_off_c, 9, 38, 0
4, 9300, Note_off_c, 9, 42, 0
4, 9300, Note_on_c, 9, 42, 127
4, 9360, Note_off_c, 9, 42, 0
4, 9360, Note_on_c, 9, 42, 127
4, 9360, Note_on_c, 9, 35, 127
4, 9420, Note_off_c, 9, 42, 0
4, 9420, Note_off_c, 9, 35, 0
4, 9420, Note_on_c, 9, 42, 127
4, 9480, Note_off_c, 9, 42, 0
4, 9480, Note_on_c, 9, 42, 127
4, 9480, Note_on_c, 9, 38, 127
4, 9540, Note_off_c, 9, 38, 0
4, 9540, Note_off_c, 9, 42, 0
4, 9540, Note_on_c, 9, 42, 127
4, 9600, Note_off_c, 9, 42, 0
4, 9600, Note_on_c, 9, 42, 127
4, 9600, Note_on_c, 9, 35, 127
4, 9660, Note_off_c, 9, 35, 0
4, 9660, Note_off_c, 9, 42, 0
4, 9660, Note_on_c, 9, 42, 127
4, 9720, Note_off_c, 9, 42, 0
4, 9720, Note_on_c, 9, 42, 127
4, 9720, Note_on_c, 9, 38, 127
4, 9780, Note_off_c, 9, 38, 0
4, 9780, Note_off_c, 9, 42, 0
4, 9780, Note_on_c, 9, 42, 127
4, 9840, Note_off_c, 9, 42, 0
4, 9840, Note_on_c, 9, 42, 127
4, 9840, Note_on_c, 9, 35, 127
4, 9900, Note_off_c, 9, 42, 0
4, 9900, Note_off_c, 9, 35, 0
4, 9900, Note_on_c, 9, 42, 127
4, 9960, Note_off_c, 9, 42, 0
4, 9960, Note_on_c, 9, 42, 127
4, 9960, Note_on_c, 9, 38, 127
4, 10020, Note_off_c, 9, 42, 0
4, 10020, Note_off_c, 9, 38, 0
4, 10020, Note_on_c, 9, 42, 127
4, 10080, Note_off_c, 9, 42, 0
4, 10080, Note_on_c, 9, 42, 127
4, 10080, Note_on_c, 9, 35, 127
4, 10140, Note_off_c, 9, 42, 0
4, 10140, Note_off_c, 9, 35, 0
4, 10140, Note_on_c, 9, 42, 127
4, 10200, Note_off_c, 9, 42, 0
4, 10200, Note_on_c, 9, 42, 127
4, 10200, Note_on_c, 9, 38, 127
4, 10260, Note_off_c, 9, 38, 0
4, 10260, Note_off_c, 9, 42, 0
4, 10260, Note_on_c, 9, 42, 127
4, 10320, Note_off_c, 9, 42, 0
4, 10320, Note_on_c, 9, 42, 127
4, 10320, Note_on_c, 9, 35, 127
4, 10380, Note_off_c, 9, 42, 0
4, 10380, Note_off_c, 9, 35, 0
4, 10380, Note_on_c, 9, 42, 127
4, 10440, Note_off_c, 9, 42, 0
4, 10440, Note_on_c, 9, 42, 127
4, 10440, Note_on_c, 9, 38, 127
4, 10500, Note_off_c, 9, 38, 0
4, 10500, Note_off_c, 9, 42, 0
4, 10500, Note_on_c, 9, 42, 127
4, 10560, Note_off_c, 9, 42, 0
4, 10560, Note_on_c, 9, 42, 127
4, 10560, Note_on_c, 9, 35, 127
4, 10620, Note_off_c, 9, 42, 0
4, 10620, Note_off_c, 9, 35, 0
4, 10620, Note_on_c, 9, 42, 127
4, 10680, Note_off_c, 9, 42, 0
4, 10680, Note_on_c, 9, 42, 127
4, 10680, Note_on_c, 9, 38, 127
4, 10740, Note_off_c, 9, 38, 0
4, 10740, Note_off_c, 9, 42, 0
4, 10740, Note_on_c, 9, 42, 127
4, 10800, Note_off_c, 9, 42, 0
4, 10800, Note_on_c, 9, 42, 127
4, 10800, Note_on_c, 9, 35, 127
4, 10860, Note_off_c, 9, 35, 0
4, 10860, Note_off_c, 9, 42, 0
4, 10860, Note_on_c, 9, 42, 127
4, 10920, Note_off_c, 9, 42, 0
4, 10920, Note_on_c, 9, 42, 127
4, 10920, Note_on_c, 9, 38, 127
4, 10980, Note_off_c, 9, 38, 0
4, 10980, Note_off_c, 9, 42, 0
4, 10980, Note_on_c, 9, 42, 127
4, 11040, Note_off_c, 9, 42, 0
4, 11040, Note_on_c, 9, 42, 127
4, 11040, Note_on_c, 9, 35, 127
4, 11100, Note_off_c, 9, 42, 0
4, 11100, Note_off_c, 9, 35, 0
4, 11100, Note_on_c, 9, 42, 127
4, 11160, Note_off_c, 9, 42, 0
4, 11160, Note_on_c, 9, 42, 127
4, 11160, Note_on_c, 9, 38, 127
4, 11220, Note_off_c, 9, 38, 0
4, 11220, Note_off_c, 9, 42, 0
4, 11220, Note_on_c, 9, 42, 127
4, 11280, Note_off_c, 9, 42, 0
4, 11280, Note_on_c, 9, 42, 127
4, 11280, Note_on_c, 9, 35, 127
4, 11340, Note_off_c, 9, 42, 0
4, 11340, Note_off_c, 9, 35, 0
4, 11340, Note_on_c, 9, 42, 127
4, 11400, Note_off_c, 9, 42, 0
4, 11400, Note_on_c, 9, 42, 127
4, 11400, Note_on_c, 9, 38, 127
4, 11460, Note_off_c, 9, 38, 0
4, 11460, Note_off_c, 9, 42, 0
4, 11460, Note_on_c, 9, 42, 127
4, 11520, Note_off_c, 9, 42, 0
4, 11520, Note_on_c, 9, 42, 127
4, 11520, Note_on_c, 9, 35, 127
4, 11580, Note_off_c, 9, 35, 0
4, 11580, Note_off_c, 9, 42, 0
4, 11580, Note_on_c, 9, 42, 127
4, 11640, Note_off_c, 9, 42, 0
4, 11640, Note_on_c, 9, 42, 127
4, 11640, Note_on_c, 9, 38, 127
4, 11700, Note_off_c, 9, 42, 0
4, 11700, Note_off_c, 9, 38, 0
4, 11700, Note_on_c, 9, 42, 127
4, 11760, Note_off_c, 9, 42, 0
4, 11760, Note_on_c, 9, 42, 127
4, 11760, Note_on_c, 9, 35, 127
4, 11820, Note_off_c, 9, 35, 0
4, 11820, Note_off_c, 9, 42, 0
4, 11820, Note_on_c, 9, 42, 127
4, 11880, Note_off_c, 9, 42, 0
4, 11880, Note_on_c, 9, 42, 127
4, 11880, Note_on_c, 9, 38, 127
4, 11880, Note_on_c, 9, 43, 95
4, 11940, Note_off_c, 9, 42, 0
4, 11940, Note_off_c, 9, 38, 0
4, 11940, Note_off_c, 9, 43, 0
4, 11940, Note_on_c, 9, 42, 127
4, 12000, Note_off_c, 9, 42, 0
4, 12000, Note_on_c, 9, 42, 127
4, 12000, Note_on_c, 9, 35, 127
4, 12000, Note_on_c, 9, 49, 95
4, 12060, Note_off_c, 9, 42, 0
4, 12060, Note_off_c, 9, 35, 0
4, 12060, Note_off_c, 9, 49, 0
4, 12060, Note_on_c, 9, 42, 127
4, 12120, Note_off_c, 9, 42, 0
4, 12120, Note_on_c, 9, 42, 127
4, 12120, Note_on_c, 9, 38, 127
4, 12180, Note_off_c, 9, 42, 0
4, 12180, Note_off_c, 9, 38, 0
4, 12180, Note_on_c, 9, 42, 127
4, 12240, Note_off_c, 9, 42, 0
4, 12240, Note_on_c, 9, 42, 127
4, 12240, Note_on_c, 9, 35, 127
4, 12300, Note_off_c, 9, 42, 0
4, 12300, Note_off_c, 9, 35, 0
4, 12300, Note_on_c, 9, 42, 127
4, 12360, Note_off_c, 9, 42, 0
4, 12360, Note_on_c, 9, 42, 127
4, 12360, Note_on_c, 9, 38, 127
4, 12420, Note_off_c, 9, 42, 0
4, 12420, Note_off_c, 9, 38, 0
4, 12420, Note_on_c, 9, 42, 127
4, 12480, Note_off_c, 9, 42, 0
4, 12480, Note_on_c, 9, 42, 127
4, 12480, Note_on_c, 9, 35, 127
4, 12540, Note_off_c, 9, 42, 0
4, 12540, Note_off_c, 9, 35, 0
4, 12540, Note_on_c, 9, 42, 127
4, 12600, Note_off_c, 9, 42, 0
4, 12600, Note_on_c, 9, 42, 127
4, 12600, Note_on_c, 9, 38, 127
4, 12660, Note_off_c, 9, 42, 0
4, 12660, Note_off_c, 9, 38, 0
4, 12660, Note_on_c, 9, 42, 127
4, 12720, Note_off_c, 9, 42, 0
4, 12720, Note_on_c, 9, 42, 127
4, 12720, Note_on_c, 9, 35, 127
4, 12780, Note_off_c, 9, 35, 0
4, 12780, Note_off_c, 9, 42, 0
4, 12780, Note_on_c, 9, 42, 127
4, 12840, Note_off_c, 9, 42, 0
4, 12840, Note_on_c, 9, 42, 127
4, 12840, Note_on_c, 9, 38, 127
4, 12900, Note_off_c, 9, 42, 0
4, 12900, Note_off_c, 9, 38, 0
4, 12900, Note_on_c, 9, 42, 127
4, 12960, Note_off_c, 9, 42, 0
4, 12960, Note_on_c, 9, 42, 127
4, 12960, Note_on_c, 9, 35, 127
4, 13020, Note_off_c, 9, 42, 0
4, 13020, Note_off_c, 9, 35, 0
4, 13020, Note_on_c, 9, 42, 127
4, 13080, Note_off_c, 9, 42, 0
4, 13080, Note_on_c, 9, 42, 127
4, 13080, Note_on_c, 9, 38, 127
4, 13140, Note_off_c, 9, 42, 0
4, 13140, Note_off_c, 9, 38, 0
4, 13140, Note_on_c, 9, 42, 127
4, 13200, Note_off_c, 9, 42, 0
4, 13200, Note_on_c, 9, 42, 127
4, 13200, Note_on_c, 9, 35, 127
4, 13260, Note_off_c, 9, 35, 0
4, 13260, Note_off_c, 9, 42, 0
4, 13260, Note_on_c, 9, 42, 127
4, 13320, Note_off_c, 9, 42, 0
4, 13320, Note_on_c, 9, 42, 127
4, 13320, Note_on_c, 9, 38, 127
4, 13380, Note_off_c, 9, 42, 0
4, 13380, Note_off_c, 9, 38, 0
4, 13380, Note_on_c, 9, 42, 127
4, 13440, Note_off_c, 9, 42, 0
4, 13440, Note_on_c, 9, 42, 127
4, 13440, Note_on_c, 9, 35, 127
4, 13500, Note_off_c, 9, 42, 0
4, 13500, Note_off_c, 9, 35, 0
4, 13500, Note_on_c, 9, 42, 127
4, 13560, Note_off_c, 9, 42, 0
4, 13560, Note_on_c, 9, 42, 127
4, 13560, Note_on_c, 9, 38, 127
4, 13620, Note_off_c, 9, 42, 0
4, 13620, Note_off_c, 9, 38, 0
4, 13620, Note_on_c, 9, 42, 127
4, 13680, Note_off_c, 9, 42, 0
4, 13680, Note_on_c, 9, 42, 127
4, 13680, Note_on_c, 9, 35, 127
4, 13740, Note_off_c, 9, 42, 0
4, 13740, Note_off_c, 9, 35, 0
4, 13740, Note_on_c, 9, 42, 127
4, 13800, Note_off_c, 9, 42, 0
4, 13800, Note_on_c, 9, 42, 127
4, 13800, Note_on_c, 9, 38, 127
4, 13800, Note_on_c, 9, 43, 95
4, 13860, Note_off_c, 9, 42, 0
4, 13860, Note_off_c, 9, 38, 0
4, 13860, Note_off_c, 9, 43, 0
4, 13860, Note_on_c, 9, 42, 127
4, 13920, Note_off_c, 9, 42, 0
4, 13920, Note_on_c, 9, 42, 127
4, 13920, Note_on_c, 9, 35, 127
4, 13920, Note_on_c, 9, 49, 95
4, 13980, Note_off_c, 9, 35, 0
4, 13980, Note_off_c, 9, 42, 0
4, 13980, Note_off_c, 9, 49, 0
4, 13980, Note_on_c, 9, 42, 127
4, 14040, Note_off_c, 9, 42, 0
4, 14040, Note_on_c, 9, 42, 127
4, 14040, Note_on_c, 9, 38, 127
4, 14100, Note_off_c, 9, 42, 0
4, 14100, Note_off_c, 9, 38, 0
4, 14100, Note_on_c, 9, 42, 127
4, 14160, Note_off_c, 9, 42, 0
4, 14160, Note_on_c, 9, 42, 127
4, 14160, Note_on_c, 9, 35, 127
4, 14220, Note_off_c, 9, 42, 0
4, 14220, Note_off_c, 9, 35, 0
4, 14220, Note_on_c, 9, 42, 127
4, 14280, Note_off_c, 9, 42, 0
4, 14280, Note_on_c, 9, 42, 127
4, 14280, Note_on_c, 9, 38, 127
4, 14340, Note_off_c, 9, 42, 0
4, 14340, Note_off_c, 9, 38, 0
4, 14340, Note_on_c, 9, 42, 127
4, 14400, Note_off_c, 9, 42, 0
4, 14400, Note_on_c, 9, 42, 127
4, 14400, Note_on_c, 9, 35, 127
4, 14460, Note_off_c, 9, 42, 0
4, 14460, Note_off_c, 9, 35, 0
4, 14460, Note_on_c, 9, 42, 127
4, 14520, Note_off_c, 9, 42, 0
4, 14520, Note_on_c, 9, 42, 127
4, 14520, Note_on_c, 9, 38, 127
4, 14580, Note_off_c, 9, 38, 0
4, 14580, Note_off_c, 9, 42, 0
4, 14580, Note_on_c, 9, 42, 127
4, 14640, Note_off_c, 9, 42, 0
4, 14640, Note_on_c, 9, 42, 127
4, 14640, Note_on_c, 9, 35, 127
4, 14700, Note_off_c, 9, 42, 0
4, 14700, Note_off_c, 9, 35, 0
4, 14700, Note_on_c, 9, 42, 127
4, 14760, Note_off_c, 9, 42, 0
4, 14760, Note_on_c, 9, 42, 127
4, 14760, Note_on_c, 9, 38, 127
4, 14820, Note_off_c, 9, 42, 0
4, 14820, Note_off_c, 9, 38, 0
4, 14820, Note_on_c, 9, 42, 127
4, 14880, Note_off_c, 9, 42, 0
4, 14880, Note_on_c, 9, 42, 127
4, 14880, Note_on_c, 9, 35, 127
4, 14940, Note_off_c, 9, 42, 0
4, 14940, Note_off_c, 9, 35, 0
4, 14940, Note_on_c, 9, 42, 127
4, 15000, Note_off_c, 9, 42, 0
4, 15000, Note_on_c, 9, 42, 127
4, 15000, Note_on_c, 9, 38, 127
4, 15060, Note_off_c, 9, 42, 0
4, 15060, Note_off_c, 9, 38, 0
4, 15060, Note_on_c, 9, 42, 127
4, 15120, Note_off_c, 9, 42, 0
4, 15120, Note_on_c, 9, 42, 127
4, 15120, Note_on_c, 9, 35, 127
4, 15180, Note_off_c, 9, 42, 0
4, 15180, Note_off_c, 9, 35, 0
4, 15180, Note_on_c, 9, 42, 127
4, 15240, Note_off_c, 9, 42, 0
4, 15240, Note_on_c, 9, 42, 127
4, 15240, Note_on_c, 9, 38, 127
4, 15300, Note_off_c, 9, 38, 0
4, 15300, Note_off_c, 9, 42, 0
4, 15300, Note_on_c, 9, 42, 127
4, 15360, Note_off_c, 9, 42, 0
4, 15360, Note_on_c, 9, 42, 127
4, 15360, Note_on_c, 9, 35, 127
4, 15420, Note_off_c, 9, 42, 0
4, 15420, Note_off_c, 9, 35, 0
4, 15420, Note_on_c, 9, 42, 127
4, 15480, Note_off_c, 9, 42, 0
4, 15480, Note_on_c, 9, 42, 127
4, 15480, Note_on_c, 9, 38, 127
4, 15540, Note_off_c, 9, 38, 0
4, 15540, Note_off_c, 9, 42, 0
4, 15540, Note_on_c, 9, 42, 127
4, 15600, Note_off_c, 9, 42, 0
4, 15600, Note_on_c, 9, 42, 127
4, 15600, Note_on_c, 9, 35, 127
4, 15660, Note_off_c, 9, 42, 0
4, 15660, Note_off_c, 9, 35, 0
4, 15660, Note_on_c, 9, 42, 127
4, 15720, Note_off_c, 9, 42, 0
4, 15720, Note_on_c, 9, 42, 127
4, 15720, Note_on_c, 9, 38, 127
4, 15780, Note_off_c, 9, 42, 0
4, 15780, Note_off_c, 9, 38, 0
4, 15780, Note_on_c, 9, 42, 127
4, 15840, Note_off_c, 9, 42, 0
4, 15840, Note_on_c, 9, 42, 127
4, 15840, Note_on_c, 9, 35, 127
4, 15900, Note_off_c, 9, 42, 0
4, 15900, Note_off_c, 9, 35, 0
4, 15900, Note_on_c, 9, 42, 127
4, 15960, Note_off_c, 9, 42, 0
4, 15960, Note_on_c, 9, 42, 127
4, 15960, Note_on_c, 9, 38, 127
4, 16020, Note_off_c, 9, 42, 0
4, 16020, Note_off_c, 9, 38, 0
4, 16020, Note_on_c, 9, 42, 127
4, 16080, Note_off_c, 9, 42, 0
4, 16080, Note_on_c, 9, 42, 127
4, 16080, Note_on_c, 9, 35, 127
4, 16140, Note_off_c, 9, 42, 0
4, 16140, Note_off_c, 9, 35, 0
4, 16140, Note_on_c, 9, 42, 127
4, 16200, Note_off_c, 9, 42, 0
4, 16200, Note_on_c, 9, 42, 127
4, 16200, Note_on_c, 9, 38, 127
4, 16260, Note_off_c, 9, 38, 0
4, 16260, Note_off_c, 9, 42, 0
4, 16260, Note_on_c, 9, 42, 127
4, 16320, Note_off_c, 9, 42, 0
4, 16320, Note_on_c, 9, 42, 127
4, 16320, Note_on_c, 9, 35, 127
4, 16380, Note_off_c, 9, 42, 0
4, 16380, Note_off_c, 9, 35, 0
4, 16380, Note_on_c, 9, 42, 127
4, 16440, Note_off_c, 9, 42, 0
4, 16440, Note_on_c, 9, 42, 127
4, 16440, Note_on_c, 9, 38, 127
4, 16500, Note_off_c, 9, 42, 0
4, 16500, Note_off_c, 9, 38, 0
4, 16500, Note_on_c, 9, 42, 127
4, 16560, Note_off_c, 9, 42, 0
4, 16560, Note_on_c, 9, 42, 127
4, 16560, Note_on_c, 9, 35, 127
4, 16620, Note_off_c, 9, 42, 0
4, 16620, Note_off_c, 9, 35, 0
4, 16620, Note_on_c, 9, 42, 127
4, 16680, Note_off_c, 9, 42, 0
4, 16680, Note_on_c, 9, 42, 127
4, 16680, Note_on_c, 9, 38, 127
4, 16740, Note_off_c, 9, 42, 0
4, 16740, Note_off_c, 9, 38, 0
4, 16740, Note_on_c, 9, 42, 127
4, 16800, Note_off_c, 9, 42, 0
4, 16800, Note_on_c, 9, 42, 127
4, 16800, Note_on_c, 9, 35, 127
4, 16860, Note_off_c, 9, 42, 0
4, 16860, Note_off_c, 9, 35, 0
4, 16860, Note_on_c, 9, 42, 127
4, 16920, Note_off_c, 9, 42, 0
4, 16920, Note_on_c, 9, 42, 127
4, 16920, Note_on_c, 9, 38, 127
4, 16980, Note_off_c, 9, 42, 0
4, 16980, Note_off_c, 9, 38, 0
4, 16980, Note_on_c, 9, 42, 127
4, 17040, Note_off_c, 9, 42, 0
4, 17040, Note_on_c, 9, 42, 127
4, 17040, Note_on_c, 9, 35, 127
4, 17100, Note_off_c, 9, 35, 0
4, 17100, Note_off_c, 9, 42, 0
4, 17100, Note_on_c, 9, 42, 127
4, 17160, Note_off_c, 9, 42, 0
4, 17160, Note_on_c, 9, 42, 127
4, 17160, Note_on_c, 9, 38, 127
4, 17220, Note_off_c, 9, 42, 0
4, 17220, Note_off_c, 9, 38, 0
4, 17220, Note_on_c, 9, 42, 127
4, 17280, Note_off_c, 9, 42, 0
4, 17280, Note_on_c, 9, 42, 127
4, 17280, Note_on_c, 9, 35, 127
4, 17280, Note_on_c, 9, 43, 95
4, 17340, Note_off_c, 9, 42, 0
4, 17340, Note_off_c, 9, 35, 0
4, 17340, Note_off_c, 9, 43, 0
4, 17340, Note_on_c, 9, 42, 127
4, 17400, Note_off_c, 9, 42, 0
4, 17400, Note_on_c, 9, 42, 127
4, 17400, Note_on_c, 9, 38, 127
4, 17460, Note_off_c, 9, 42, 0
4, 17460, Note_off_c, 9, 38, 0
4, 17460, Note_on_c, 9, 42, 127
4, 17460, Note_on_c, 9, 43, 127
4, 17520, Note_off_c, 9, 42, 0
4, 17520, Note_off_c, 9, 43, 0
4, 17520, Note_on_c, 9, 42, 127
4, 17520, Note_on_c, 9, 35, 127
4, 17520, Note_on_c, 9, 43, 79
4, 17580, Note_off_c, 9, 42, 0
4, 17580, Note_off_c, 9, 43, 0
4, 17580, Note_off_c, 9, 35, 0
4, 17580, Note_on_c, 9, 42, 127
4, 17580, Note_on_c, 9, 35, 95
4, 17580, Note_on_c, 9, 43, 95
4, 17640, Note_off_c, 9, 35, 0
4, 17640, Note_off_c, 9, 42, 0
4, 17640, Note_off_c, 9, 43, 0
4, 17640, Note_on_c, 9, 42, 127
4, 17640, Note_on_c, 9, 38, 127
4, 17640, Note_on_c, 9, 43, 111
4, 17700, Note_off_c, 9, 38, 0
4, 17700, Note_off_c, 9, 42, 0
4, 17700, Note_off_c, 9, 43, 0
4, 17700, Note_on_c, 9, 42, 127
4, 17700, Note_on_c, 9, 35, 95
4, 17700, Note_on_c, 9, 43, 127
4, 17760, Note_off_c, 9, 43, 0
4, 17760, Note_off_c, 9, 42, 0
4, 17760, Note_off_c, 9, 35, 0
4, 17760, Note_on_c, 9, 42, 127
4, 17760, Note_on_c, 9, 35, 127
4, 17760, Note_on_c, 9, 49, 95
4, 17820, Note_off_c, 9, 49, 0
4, 17820, Note_off_c, 9, 42, 0
4, 17820, Note_off_c, 9, 35, 0
4, 17820, Note_on_c, 9, 42, 127
4, 17880, Note_off_c, 9, 42, 0
4, 17880, Note_on_c, 9, 42, 127
4, 17880, Note_on_c, 9, 38, 127
4, 17940, Note_off_c, 9, 38, 0
4, 17940, Note_off_c, 9, 42, 0
4, 17940, Note_on_c, 9, 42, 127
4, 18000, Note_off_c, 9, 42, 0
4, 18000, Note_on_c, 9, 42, 127
4, 18000, Note_on_c, 9, 35, 127
4, 18060, Note_off_c, 9, 42, 0
4, 18060, Note_off_c, 9, 35, 0
4, 18060, Note_on_c, 9, 42, 127
4, 18120, Note_off_c, 9, 42, 0
4, 18120, Note_on_c, 9, 42, 127
4, 18120, Note_on_c, 9, 38, 127
4, 18180, Note_off_c, 9, 42, 0
4, 18180, Note_off_c, 9, 38, 0
4, 18180, Note_on_c, 9, 42, 127
4, 18240, Note_off_c, 9, 42, 0
4, 18240, Note_on_c, 9, 42, 127
4, 18240, Note_on_c, 9, 35, 127
4, 18300, Note_off_c, 9, 35, 0
4, 18300, Note_off_c, 9, 42, 0
4, 18300, Note_on_c, 9, 42, 127
4, 18360, Note_off_c, 9, 42, 0
4, 18360, Note_on_c, 9, 42, 127
4, 18360, Note_on_c, 9, 38, 127
4, 18420, Note_off_c, 9, 38, 0
4, 18420, Note_off_c, 9, 42, 0
4, 18420, Note_on_c, 9, 42, 127
4, 18480, Note_off_c, 9, 42, 0
4, 18480, Note_on_c, 9, 42, 127
4, 18480, Note_on_c, 9, 35, 127
4, 18540, Note_off_c, 9, 42, 0
4, 18540, Note_off_c, 9, 35, 0
4, 18540, Note_on_c, 9, 42, 127
4, 18600, Note_off_c, 9, 42, 0
4, 18600, Note_on_c, 9, 42, 127
4, 18600, Note_on_c, 9, 38, 127
4, 18660, Note_off_c, 9, 38, 0
4, 18660, Note_off_c, 9, 42, 0
4, 18660, Note_on_c, 9, 42, 127
4, 18720, Note_off_c, 9, 42, 0
4, 18720, Note_on_c, 9, 42, 127
4, 18720, Note_on_c, 9, 35, 127
4, 18780, Note_off_c, 9, 42, 0
4, 18780, Note_off_c, 9, 35, 0
4, 18780, Note_on_c, 9, 42, 127
4, 18840, Note_off_c, 9, 42, 0
4, 18840, Note_on_c, 9, 42, 127
4, 18840, Note_on_c, 9, 38, 127
4, 18900, Note_off_c, 9, 38, 0
4, 18900, Note_off_c, 9, 42, 0
4, 18900, Note_on_c, 9, 42, 127
4, 18960, Note_off_c, 9, 42, 0
4, 18960, Note_on_c, 9, 42, 127
4, 18960, Note_on_c, 9, 35, 127
4, 19020, Note_off_c, 9, 42, 0
4, 19020, Note_off_c, 9, 35, 0
4, 19020, Note_on_c, 9, 42, 127
4, 19080, Note_off_c, 9, 42, 0
4, 19080, Note_on_c, 9, 42, 127
4, 19080, Note_on_c, 9, 38, 127
4, 19140, Note_off_c, 9, 38, 0
4, 19140, Note_off_c, 9, 42, 0
4, 19140, Note_on_c, 9, 42, 127
4, 19200, Note_off_c, 9, 42, 0
4, 19200, Note_on_c, 9, 42, 127
4, 19200, Note_on_c, 9, 35, 127
4, 19260, Note_off_c, 9, 35, 0
4, 19260, Note_off_c, 9, 42, 0
4, 19260, Note_on_c, 9, 42, 127
4, 19320, Note_off_c, 9, 42, 0
4, 19320, Note_on_c, 9, 42, 127
4, 19320, Note_on_c, 9, 38, 127
4, 19380, Note_off_c, 9, 38, 0
4, 19380, Note_off_c, 9, 42, 0
4, 19380, Note_on_c, 9, 42, 127
4, 19440, Note_off_c, 9, 42, 0
4, 19440, Note_on_c, 9, 42, 127
4, 19440, Note_on_c, 9, 35, 127
4, 19500, Note_off_c, 9, 42, 0
4, 19500, Note_off_c, 9, 35, 0
4, 19500, Note_on_c, 9, 42, 127
4, 19560, Note_off_c, 9, 42, 0
4, 19560, Note_on_c, 9, 42, 127
4, 19560, Note_on_c, 9, 38, 127
4, 19620, Note_off_c, 9, 42, 0
4, 19620, Note_off_c, 9, 38, 0
4, 19620, Note_on_c, 9, 42, 127
4, 19680, Note_off_c, 9, 42, 0
4, 19680, Note_on_c, 9, 42, 127
4, 19680, Note_on_c, 9, 35, 127
4, 19740, Note_off_c, 9, 42, 0
4, 19740, Note_off_c, 9, 35, 0
4, 19740, Note_on_c, 9, 42, 127
4, 19800, Note_off_c, 9, 42, 0
4, 19800, Note_on_c, 9, 42, 127
4, 19800, Note_on_c, 9, 38, 127
4, 19860, Note_off_c, 9, 38, 0
4, 19860, Note_off_c, 9, 42, 0
4, 19860, Note_on_c, 9, 42, 127
4, 19920, Note_off_c, 9, 42, 0
4, 19920, Note_on_c, 9, 42, 127
4, 19920, Note_on_c, 9, 35, 127
4, 19980, Note_off_c, 9, 42, 0
4, 19980, Note_off_c, 9, 35, 0
4, 19980, Note_on_c, 9, 42, 127
4, 20040, Note_off_c, 9, 42, 0
4, 20040, Note_on_c, 9, 42, 127
4, 20040, Note_on_c, 9, 38, 127
4, 20100, Note_off_c, 9, 38, 0
4, 20100, Note_off_c, 9, 42, 0
4, 20100, Note_on_c, 9, 42, 127
4, 20160, Note_off_c, 9, 42, 0
4, 20160, Note_on_c, 9, 42, 127
4, 20160, Note_on_c, 9, 35, 127
4, 20220, Note_off_c, 9, 42, 0
4, 20220, Note_off_c, 9, 35, 0
4, 20220, Note_on_c, 9, 42, 127
4, 20280, Note_off_c, 9, 42, 0
4, 20280, Note_on_c, 9, 42, 127
4, 20280, Note_on_c, 9, 38, 127
4, 20340, Note_off_c, 9, 38, 0
4, 20340, Note_off_c, 9, 42, 0
4, 20340, Note_on_c, 9, 42, 127
4, 20400, Note_off_c, 9, 42, 0
4, 20400, Note_on_c, 9, 42, 127
4, 20400, Note_on_c, 9, 35, 127
4, 20460, Note_off_c, 9, 35, 0
4, 20460, Note_off_c, 9, 42, 0
4, 20460, Note_on_c, 9, 42, 127
4, 20520, Note_off_c, 9, 42, 0
4, 20520, Note_on_c, 9, 42, 127
4, 20520, Note_on_c, 9, 38, 127
4, 20580, Note_off_c, 9, 38, 0
4, 20580, Note_off_c, 9, 42, 0
4, 20580, Note_on_c, 9, 42, 127
4, 20640, Note_off_c, 9, 42, 0
4, 20640, Note_on_c, 9, 42, 127
4, 20640, Note_on_c, 9, 35, 127
4, 20700, Note_off_c, 9, 42, 0
4, 20700, Note_off_c, 9, 35, 0
4, 20700, Note_on_c, 9, 42, 127
4, 20760, Note_off_c, 9, 42, 0
4, 20760, Note_on_c, 9, 42, 127
4, 20760, Note_on_c, 9, 38, 127
4, 20820, Note_off_c, 9, 38, 0
4, 20820, Note_off_c, 9, 42, 0
4, 20820, Note_on_c, 9, 42, 127
4, 20880, Note_off_c, 9, 42, 0
4, 20880, Note_on_c, 9, 42, 127
4, 20880, Note_on_c, 9, 35, 127
4, 20940, Note_off_c, 9, 42, 0
4, 20940, Note_off_c, 9, 35, 0
4, 20940, Note_on_c, 9, 42, 127
4, 21000, Note_off_c, 9, 42, 0
4, 21000, Note_on_c, 9, 42, 127
4, 21000, Note_on_c, 9, 38, 127
4, 21060, Note_off_c, 9, 38, 0
4, 21060, Note_off_c, 9, 42, 0
4, 21060, Note_on_c, 9, 42, 127
4, 21120, Note_off_c, 9, 42, 0
4, 21120, Note_on_c, 9, 42, 127
4, 21120, Note_on_c, 9, 35, 127
4, 21180, Note_off_c, 9, 35, 0
4, 21180, Note_off_c, 9, 42, 0
4, 21180, Note_on_c, 9, 42, 127
4, 21240, Note_off_c, 9, 42, 0
4, 21240, Note_on_c, 9, 42, 127
4, 21240, Note_on_c, 9, 38, 127
4, 21300, Note_off_c, 9, 42, 0
4, 21300, Note_off_c, 9, 38, 0
4, 21300, Note_on_c, 9, 42, 127
4, 21360, Note_off_c, 9, 42, 0
4, 21360, Note_on_c, 9, 42, 127
4, 21360, Note_on_c, 9, 35, 127
4, 21420, Note_off_c, 9, 42, 0
4, 21420, Note_off_c, 9, 35, 0
4, 21420, Note_on_c, 9, 42, 127
4, 21480, Note_off_c, 9, 42, 0
4, 21480, Note_on_c, 9, 42, 127
4, 21480, Note_on_c, 9, 38, 127
4, 21540, Note_off_c, 9, 42, 0
4, 21540, Note_off_c, 9, 38, 0
4, 21540, Note_on_c, 9, 42, 127
4, 21600, Note_off_c, 9, 42, 0
4, 21600, Note_on_c, 9, 42, 127
4, 21600, Note_on_c, 9, 35, 127
4, 21600, Note_on_c, 9, 49, 95
4, 21660, Note_off_c, 9, 35, 0
4, 21660, Note_off_c, 9, 42, 0
4, 21660, Note_off_c, 9, 49, 0
4, 21660, Note_on_c, 9, 42, 127
4, 21720, Note_off_c, 9, 42, 0
4, 21720, Note_on_c, 9, 42, 127
4, 21720, Note_on_c, 9, 38, 127
4, 21780, Note_off_c, 9, 42, 0
4, 21780, Note_off_c, 9, 38, 0
4, 21780, Note_on_c, 9, 42, 127
4, 21840, Note_off_c, 9, 42, 0
4, 21840, Note_on_c, 9, 42, 127
4, 21840, Note_on_c, 9, 35, 127
4, 21900, Note_off_c, 9, 42, 0
4, 21900, Note_off_c, 9, 35, 0
4, 21900, Note_on_c, 9, 42, 127
4, 21960, Note_off_c, 9, 42, 0
4, 21960, Note_on_c, 9, 42, 127
4, 21960, Note_on_c, 9, 38, 127
4, 22020, Note_off_c, 9, 38, 0
4, 22020, Note_off_c, 9, 42, 0
4, 22020, Note_on_c, 9, 42, 127
4, 22080, Note_off_c, 9, 42, 0
4, 22080, Note_on_c, 9, 42, 127
4, 22080, Note_on_c, 9, 35, 127
4, 22140, Note_off_c, 9, 42, 0
4, 22140, Note_off_c, 9, 35, 0
4, 22140, Note_on_c, 9, 42, 127
4, 22200, Note_off_c, 9, 42, 0
4, 22200, Note_on_c, 9, 42, 127
4, 22200, Note_on_c, 9, 38, 127
4, 22260, Note_off_c, 9, 38, 0
4, 22260, Note_off_c, 9, 42, 0
4, 22260, Note_on_c, 9, 42, 127
4, 22320, Note_off_c, 9, 42, 0
4, 22320, Note_on_c, 9, 42, 127
4, 22320, Note_on_c, 9, 35, 127
4, 22380, Note_off_c, 9, 42, 0
4, 22380, Note_off_c, 9, 35, 0
4, 22380, Note_on_c, 9, 42, 127
4, 22440, Note_off_c, 9, 42, 0
4, 22440, Note_on_c, 9, 42, 127
4, 22440, Note_on_c, 9, 38, 127
4, 22500, Note_off_c, 9, 42, 0
4, 22500, Note_off_c, 9, 38, 0
4, 22500, Note_on_c, 9, 42, 127
4, 22560, Note_off_c, 9, 42, 0
4, 22560, Note_on_c, 9, 42, 127
4, 22560, Note_on_c, 9, 35, 127
4, 22620, Note_off_c, 9, 42, 0
4, 22620, Note_off_c, 9, 35, 0
4, 22620, Note_on_c, 9, 42, 127
4, 22680, Note_off_c, 9, 42, 0
4, 22680, Note_on_c, 9, 42, 127
4, 22680, Note_on_c, 9, 38, 127
4, 22740, Note_off_c, 9, 42, 0
4, 22740, Note_off_c, 9, 38, 0
4, 22740, Note_on_c, 9, 42, 127
4, 22800, Note_off_c, 9, 42, 0
4, 22800, Note_on_c, 9, 42, 127
4, 22800, Note_on_c, 9, 35, 127
4, 22860, Note_off_c, 9, 35, 0
4, 22860, Note_off_c, 9, 42, 0
4, 22860, Note_on_c, 9, 42, 127
4, 22920, Note_off_c, 9, 42, 0
4, 22920, Note_on_c, 9, 42, 127
4, 22920, Note_on_c, 9, 38, 127
4, 22980, Note_off_c, 9, 38, 0
4, 22980, Note_off_c, 9, 42, 0
4, 22980, Note_on_c, 9, 42, 127
4, 23040, Note_off_c, 9, 42, 0
4, 23040, Note_on_c, 9, 42, 127
4, 23040, Note_on_c, 9, 35, 127
4, 23100, Note_off_c, 9, 42, 0
4, 23100, Note_off_c, 9, 35, 0
4, 23100, Note_on_c, 9, 42, 127
4, 23160, Note_off_c, 9, 42, 0
4, 23160, Note_on_c, 9, 42, 127
4, 23160, Note_on_c, 9, 38, 127
4, 23220, Note_off_c, 9, 38, 0
4, 23220, Note_off_c, 9, 42, 0
4, 23220, Note_on_c, 9, 42, 127
4, 23280, Note_off_c, 9, 42, 0
4, 23280, Note_on_c, 9, 42, 127
4, 23280, Note_on_c, 9, 35, 127
4, 23340, Note_off_c, 9, 42, 0
4, 23340, Note_off_c, 9, 35, 0
4, 23340, Note_on_c, 9, 42, 127
4, 23400, Note_off_c, 9, 42, 0
4, 23400, Note_on_c, 9, 42, 127
4, 23400, Note_on_c, 9, 38, 127
4, 23460, Note_off_c, 9, 38, 0
4, 23460, Note_off_c, 9, 42, 0
4, 23460, Note_on_c, 9, 42, 127
4, 23520, Note_off_c, 9, 42, 0
4, 23520, Note_on_c, 9, 42, 127
4, 23520, Note_on_c, 9, 35, 127
4, 23580, Note_off_c, 9, 42, 0
4, 23580, Note_off_c, 9, 35, 0
4, 23580, Note_on_c, 9, 42, 127
4, 23640, Note_off_c, 9, 42, 0
4, 23640, Note_on_c, 9, 42, 127
4, 23640, Note_on_c, 9, 38, 127
4, 23700, Note_off_c, 9, 42, 0
4, 23700, Note_off_c, 9, 38, 0
4, 23700, Note_on_c, 9, 42, 127
4, 23760, Note_off_c, 9, 42, 0
4, 23760, Note_on_c, 9, 42, 127
4, 23760, Note_on_c, 9, 35, 127
4, 23820, Note_off_c, 9, 42, 0
4, 23820, Note_off_c, 9, 35, 0
4, 23820, Note_on_c, 9, 42, 127
4, 23880, Note_off_c, 9, 42, 0
4, 23880, Note_on_c, 9, 42, 127
4, 23880, Note_on_c, 9, 38, 127
4, 23940, Note_off_c, 9, 38, 0
4, 23940, Note_off_c, 9, 42, 0
4, 23940, Note_on_c, 9, 42, 127
4, 24000, Note_off_c, 9, 42, 0
4, 24000, Note_on_c, 9, 42, 127
4, 24000, Note_on_c, 9, 35, 127
4, 24060, Note_off_c, 9, 42, 0
4, 24060, Note_off_c, 9, 35, 0
4, 24060, Note_on_c, 9, 42, 127
4, 24120, Note_off_c, 9, 42, 0
4, 24120, Note_on_c, 9, 42, 127
4, 24120, Note_on_c, 9, 38, 127
4, 24180, Note_off_c, 9, 38, 0
4, 24180, Note_off_c, 9, 42, 0
4, 24180, Note_on_c, 9, 42, 127
4, 24240, Note_off_c, 9, 42, 0
4, 24240, Note_on_c, 9, 42, 127
4, 24240, Note_on_c, 9, 35, 127
4, 24300, Note_off_c, 9, 42, 0
4, 24300, Note_off_c, 9, 35, 0
4, 24300, Note_on_c, 9, 42, 127
4, 24360, Note_off_c, 9, 42, 0
4, 24360, Note_on_c, 9, 42, 127
4, 24360, Note_on_c, 9, 38, 127
4, 24420, Note_off_c, 9, 42, 0
4, 24420, Note_off_c, 9, 38, 0
4, 24420, Note_on_c, 9, 42, 127
4, 24480, Note_off_c, 9, 42, 0
4, 24480, Note_on_c, 9, 42, 127
4, 24480, Note_on_c, 9, 35, 127
4, 24540, Note_off_c, 9, 42, 0
4, 24540, Note_off_c, 9, 35, 0
4, 24540, Note_on_c, 9, 42, 127
4, 24600, Note_off_c, 9, 42, 0
4, 24600, Note_on_c, 9, 42, 127
4, 24600, Note_on_c, 9, 38, 127
4, 24660, Note_off_c, 9, 38, 0
4, 24660, Note_off_c, 9, 42, 0
4, 24660, Note_on_c, 9, 42, 127
4, 24720, Note_off_c, 9, 42, 0
4, 24720, Note_on_c, 9, 42, 127
4, 24720, Note_on_c, 9, 35, 127
4, 24780, Note_off_c, 9, 42, 0
4, 24780, Note_off_c, 9, 35, 0
4, 24780, Note_on_c, 9, 42, 127
4, 24840, Note_off_c, 9, 42, 0
4, 24840, Note_on_c, 9, 42, 127
4, 24840, Note_on_c, 9, 38, 127
4, 24900, Note_off_c, 9, 42, 0
4, 24900, Note_off_c, 9, 38, 0
4, 24900, Note_on_c, 9, 42, 127
4, 24960, Note_off_c, 9, 42, 0
4, 24960, Note_on_c, 9, 42, 127
4, 24960, Note_on_c, 9, 35, 127
4, 24960, Note_on_c, 9, 43, 127
4, 25020, Note_off_c, 9, 43, 0
4, 25020, Note_off_c, 9, 42, 0
4, 25020, Note_off_c, 9, 35, 0
4, 25020, Note_on_c, 9, 42, 127
4, 25020, Note_on_c, 9, 43, 79
4, 25080, Note_off_c, 9, 43, 0
4, 25080, Note_off_c, 9, 42, 0
4, 25080, Note_on_c, 9, 42, 127
4, 25080, Note_on_c, 9, 38, 127
4, 25080, Note_on_c, 9, 43, 95
4, 25140, Note_off_c, 9, 42, 0
4, 25140, Note_off_c, 9, 43, 0
4, 25140, Note_off_c, 9, 38, 0
4, 25140, Note_on_c, 9, 42, 127
4, 25140, Note_on_c, 9, 35, 95
4, 25140, Note_on_c, 9, 43, 95
4, 25200, Note_off_c, 9, 42, 0
4, 25200, Note_off_c, 9, 43, 0
4, 25200, Note_off_c, 9, 35, 0
4, 25200, Note_on_c, 9, 42, 127
4, 25200, Note_on_c, 9, 35, 127
4, 25200, Note_on_c, 9, 43, 111
4, 25260, Note_off_c, 9, 42, 0
4, 25260, Note_off_c, 9, 35, 0
4, 25260, Note_off_c, 9, 43, 0
4, 25260, Note_on_c, 9, 42, 127
4, 25260, Note_on_c, 9, 35, 95
4, 25260, Note_on_c, 9, 43, 111
4, 25320, Note_off_c, 9, 43, 0
4, 25320, Note_off_c, 9, 42, 0
4, 25320, Note_off_c, 9, 35, 0
4, 25320, Note_on_c, 9, 42, 127
4, 25320, Note_on_c, 9, 35, 127
4, 25320, Note_on_c, 9, 43, 127
4, 25380, Note_off_c, 9, 35, 0
4, 25380, Note_off_c, 9, 42, 0
4, 25380, Note_off_c, 9, 43, 0
4, 25380, Note_on_c, 9, 42, 127
4, 25380, Note_on_c, 9, 35, 95
4, 25380, Note_on_c, 9, 43, 127
4, 25440, Note_off_c, 9, 35, 0
4, 25440, Note_off_c, 9, 43, 0
4, 25440, Note_off_c, 9, 42, 0
4, 25440, Note_on_c, 9, 42, 127
4, 25440, Note_on_c, 9, 35, 127
4, 25440, Note_on_c, 9, 49, 95
4, 25500, Note_off_c, 9, 42, 0
4, 25500, Note_off_c, 9, 35, 0
4, 25500, Note_off_c, 9, 49, 0
4, 25500, Note_on_c, 9, 42, 127
4, 25560, Note_off_c, 9, 42, 0
4, 25560, Note_on_c, 9, 42, 127
4, 25560, Note_on_c, 9, 38, 127
4, 25620, Note_off_c, 9, 42, 0
4, 25620, Note_off_c, 9, 38, 0
4, 25620, Note_on_c, 9, 42, 127
4, 25680, Note_off_c, 9, 42, 0
4, 25680, Note_on_c, 9, 42, 127
4, 25680, Note_on_c, 9, 35, 127
4, 25740, Note_off_c, 9, 42, 0
4, 25740, Note_off_c, 9, 35, 0
4, 25740, Note_on_c, 9, 42, 127
4, 25800, Note_off_c, 9, 42, 0
4, 25800, Note_on_c, 9, 42, 127
4, 25800, Note_on_c, 9, 38, 127
4, 25860, Note_off_c, 9, 38, 0
4, 25860, Note_off_c, 9, 42, 0
4, 25860, Note_on_c, 9, 42, 127
4, 25920, Note_off_c, 9, 42, 0
4, 25920, Note_on_c, 9, 42, 127
4, 25920, Note_on_c, 9, 35, 127
4, 25980, Note_off_c, 9, 42, 0
4, 25980, Note_off_c, 9, 35, 0
4, 25980, Note_on_c, 9, 42, 127
4, 26040, Note_off_c, 9, 42, 0
4, 26040, Note_on_c, 9, 42, 127
4, 26040, Note_on_c, 9, 38, 127
4, 26100, Note_off_c, 9, 38, 0
4, 26100, Note_off_c, 9, 42, 0
4, 26100, Note_on_c, 9, 42, 127
4, 26160, Note_off_c, 9, 42, 0
4, 26160, Note_on_c, 9, 42, 127
4, 26160, Note_on_c, 9, 35, 127
4, 26220, Note_off_c, 9, 42, 0
4, 26220, Note_off_c, 9, 35, 0
4, 26220, Note_on_c, 9, 42, 127
4, 26280, Note_off_c, 9, 42, 0
4, 26280, Note_on_c, 9, 42, 127
4, 26280, Note_on_c, 9, 38, 127
4, 26340, Note_off_c, 9, 42, 0
4, 26340, Note_off_c, 9, 38, 0
4, 26340, Note_on_c, 9, 42, 127
4, 26400, Note_off_c, 9, 42, 0
4, 26400, Note_on_c, 9, 42, 127
4, 26400, Note_on_c, 9, 35, 127
4, 26460, Note_off_c, 9, 42, 0
4, 26460, Note_off_c, 9, 35, 0
4, 26460, Note_on_c, 9, 42, 127
4, 26520, Note_off_c, 9, 42, 0
4, 26520, Note_on_c, 9, 42, 127
4, 26520, Note_on_c, 9, 38, 127
4, 26580, Note_off_c, 9, 38, 0
4, 26580, Note_off_c, 9, 42, 0
4, 26580, Note_on_c, 9, 42, 127
4, 26640, Note_off_c, 9, 42, 0
4, 26640, Note_on_c, 9, 42, 127
4, 26640, Note_on_c, 9, 35, 127
4, 26700, Note_off_c, 9, 42, 0
4, 26700, Note_off_c, 9, 35, 0
4, 26700, Note_on_c, 9, 42, 127
4, 26760, Note_off_c, 9, 42, 0
4, 26760, Note_on_c, 9, 42, 127
4, 26760, Note_on_c, 9, 38, 127
4, 26820, Note_off_c, 9, 42, 0
4, 26820, Note_off_c, 9, 38, 0
4, 26820, Note_on_c, 9, 42, 127
4, 26880, Note_off_c, 9, 42, 0
4, 26880, Note_on_c, 9, 42, 127
4, 26880, Note_on_c, 9, 35, 127
4, 26940, Note_off_c, 9, 42, 0
4, 26940, Note_off_c, 9, 35, 0
4, 26940, Note_on_c, 9, 42, 127
4, 27000, Note_off_c, 9, 42, 0
4, 27000, Note_on_c, 9, 42, 127
4, 27000, Note_on_c, 9, 38, 127
4, 27060, Note_off_c, 9, 38, 0
4, 27060, Note_off_c, 9, 42, 0
4, 27060, Note_on_c, 9, 42, 127
4, 27120, Note_off_c, 9, 42, 0
4, 27120, Note_on_c, 9, 42, 127
4, 27120, Note_on_c, 9, 35, 127
4, 27180, Note_off_c, 9, 35, 0
4, 27180, Note_off_c, 9, 42, 0
4, 27180, Note_on_c, 9, 42, 127
4, 27240, Note_off_c, 9, 42, 0
4, 27240, Note_on_c, 9, 42, 127
4, 27240, Note_on_c, 9, 38, 127
4, 27300, Note_off_c, 9, 42, 0
4, 27300, Note_off_c, 9, 38, 0
4, 27300, Note_on_c, 9, 42, 127
4, 27360, Note_off_c, 9, 42, 0
4, 27360, Note_on_c, 9, 42, 127
4, 27360, Note_on_c, 9, 35, 127
4, 27420, Note_off_c, 9, 42, 0
4, 27420, Note_off_c, 9, 35, 0
4, 27420, Note_on_c, 9, 42, 127
4, 27480, Note_off_c, 9, 42, 0
4, 27480, Note_on_c, 9, 42, 127
4, 27480, Note_on_c, 9, 38, 127
4, 27540, Note_off_c, 9, 42, 0
4, 27540, Note_off_c, 9, 38, 0
4, 27540, Note_on_c, 9, 42, 127
4, 27600, Note_off_c, 9, 42, 0
4, 27600, Note_on_c, 9, 42, 127
4, 27600, Note_on_c, 9, 35, 127
4, 27660, Note_off_c, 9, 35, 0
4, 27660, Note_off_c, 9, 42, 0
4, 27660, Note_on_c, 9, 42, 127
4, 27720, Note_off_c, 9, 42, 0
4, 27720, Note_on_c, 9, 42, 127
4, 27720, Note_on_c, 9, 38, 127
4, 27780, Note_off_c, 9, 38, 0
4, 27780, Note_off_c, 9, 42, 0
4, 27780, Note_on_c, 9, 42, 127
4, 27840, Note_off_c, 9, 42, 0
4, 27840, Note_on_c, 9, 42, 127
4, 27840, Note_on_c, 9, 35, 127
4, 27900, Note_off_c, 9, 42, 0
4, 27900, Note_off_c, 9, 35, 0
4, 27900, Note_on_c, 9, 42, 127
4, 27960, Note_off_c, 9, 42, 0
4, 27960, Note_on_c, 9, 42, 127
4, 27960, Note_on_c, 9, 38, 127
4, 28020, Note_off_c, 9, 42, 0
4, 28020, Note_off_c, 9, 38, 0
4, 28020, Note_on_c, 9, 42, 127
4, 28080, Note_off_c, 9, 42, 0
4, 28080, Note_on_c, 9, 42, 127
4, 28080, Note_on_c, 9, 35, 127
4, 28140, Note_off_c, 9, 42, 0
4, 28140, Note_off_c, 9, 35, 0
4, 28140, Note_on_c, 9, 42, 127
4, 28200, Note_off_c, 9, 42, 0
4, 28200, Note_on_c, 9, 42, 127
4, 28200, Note_on_c, 9, 38, 127
4, 28260, Note_off_c, 9, 42, 0
4, 28260, Note_off_c, 9, 38, 0
4, 28260, Note_on_c, 9, 42, 127
4, 28320, Note_off_c, 9, 42, 0
4, 28320, Note_on_c, 9, 42, 127
4, 28320, Note_on_c, 9, 35, 127
4, 28380, Note_off_c, 9, 42, 0
4, 28380, Note_off_c, 9, 35, 0
4, 28380, Note_on_c, 9, 42, 127
4, 28440, Note_off_c, 9, 42, 0
4, 28440, Note_on_c, 9, 42, 127
4, 28440, Note_on_c, 9, 38, 127
4, 28500, Note_off_c, 9, 42, 0
4, 28500, Note_off_c, 9, 38, 0
4, 28500, Note_on_c, 9, 42, 127
4, 28560, Note_off_c, 9, 42, 0
4, 28560, Note_on_c, 9, 42, 127
4, 28560, Note_on_c, 9, 35, 127
4, 28620, Note_off_c, 9, 42, 0
4, 28620, Note_off_c, 9, 35, 0
4, 28620, Note_on_c, 9, 42, 127
4, 28680, Note_off_c, 9, 42, 0
4, 28680, Note_on_c, 9, 42, 127
4, 28680, Note_on_c, 9, 38, 127
4, 28740, Note_off_c, 9, 42, 0
4, 28740, Note_off_c, 9, 38, 0
4, 28740, Note_on_c, 9, 42, 127
4, 28800, Note_off_c, 9, 42, 0
4, 28800, Note_on_c, 9, 42, 127
4, 28800, Note_on_c, 9, 35, 127
4, 28860, Note_off_c, 9, 35, 0
4, 28860, Note_off_c, 9, 42, 0
4, 28860, Note_on_c, 9, 42, 127
4, 28920, Note_off_c, 9, 42, 0
4, 28920, Note_on_c, 9, 42, 127
4, 28920, Note_on_c, 9, 38, 127
4, 28980, Note_off_c, 9, 38, 0
4, 28980, Note_off_c, 9, 42, 0
4, 28980, Note_on_c, 9, 42, 127
4, 29040, Note_off_c, 9, 42, 0
4, 29040, Note_on_c, 9, 42, 127
4, 29040, Note_on_c, 9, 35, 127
4, 29100, Note_off_c, 9, 42, 0
4, 29100, Note_off_c, 9, 35, 0
4, 29100, Note_on_c, 9, 42, 127
4, 29160, Note_off_c, 9, 42, 0
4, 29160, Note_on_c, 9, 42, 127
4, 29160, Note_on_c, 9, 38, 127
4, 29220, Note_off_c, 9, 42, 0
4, 29220, Note_off_c, 9, 38, 0
4, 29220, Note_on_c, 9, 42, 127
4, 29280, Note_off_c, 9, 42, 0
4, 29280, Note_on_c, 9, 42, 127
4, 29280, Note_on_c, 9, 35, 127
4, 29340, Note_off_c, 9, 42, 0
4, 29340, Note_off_c, 9, 35, 0
4, 29340, Note_on_c, 9, 42, 127
4, 29400, Note_off_c, 9, 42, 0
4, 29400, Note_on_c, 9, 42, 127
4, 29400, Note_on_c, 9, 38, 127
4, 29460, Note_off_c, 9, 42, 0
4, 29460, Note_off_c, 9, 38, 0
4, 29460, Note_on_c, 9, 42, 127
4, 29520, Note_off_c, 9, 42, 0
4, 29520, Note_on_c, 9, 42, 127
4, 29520, Note_on_c, 9, 35, 127
4, 29580, Note_off_c, 9, 42, 0
4, 29580, Note_off_c, 9, 35, 0
4, 29580, Note_on_c, 9, 42, 127
4, 29640, Note_off_c, 9, 42, 0
4, 29640, Note_on_c, 9, 42, 127
4, 29640, Note_on_c, 9, 38, 127
4, 29700, Note_off_c, 9, 42, 0
4, 29700, Note_off_c, 9, 38, 0
4, 29700, Note_on_c, 9, 42, 127
4, 29760, Note_off_c, 9, 42, 0
4, 29760, Note_on_c, 9, 42, 127
4, 29760, Note_on_c, 9, 35, 127
4, 29820, Note_off_c, 9, 35, 0
4, 29820, Note_off_c, 9, 42, 0
4, 29820, Note_on_c, 9, 42, 127
4, 29880, Note_off_c, 9, 42, 0
4, 29880, Note_on_c, 9, 42, 127
4, 29880, Note_on_c, 9, 38, 127
4, 29940, Note_off_c, 9, 38, 0
4, 29940, Note_off_c, 9, 42, 0
4, 29940, Note_on_c, 9, 42, 127
4, 30000, Note_off_c, 9, 42, 0
4, 30000, Note_on_c, 9, 42, 127
4, 30000, Note_on_c, 9, 35, 127
4, 30060, Note_off_c, 9, 42, 0
4, 30060, Note_off_c, 9, 35, 0
4, 30060, Note_on_c, 9, 42, 127
4, 30120, Note_off_c, 9, 42, 0
4, 30120, Note_on_c, 9, 42, 127
4, 30120, Note_on_c, 9, 38, 127
4, 30180, Note_off_c, 9, 38, 0
4, 30180, Note_off_c, 9, 42, 0
4, 30180, Note_on_c, 9, 42, 127
4, 30240, Note_off_c, 9, 42, 0
4, 30240, Note_on_c, 9, 42, 127
4, 30240, Note_on_c, 9, 35, 127
4, 30300, Note_off_c, 9, 42, 0
4, 30300, Note_off_c, 9, 35, 0
4, 30300, Note_on_c, 9, 42, 127
4, 30360, Note_off_c, 9, 42, 0
4, 30360, Note_on_c, 9, 42, 127
4, 30360, Note_on_c, 9, 38, 127
4, 30420, Note_off_c, 9, 38, 0
4, 30420, Note_off_c, 9, 42, 0
4, 30420, Note_on_c, 9, 42, 127
4, 30480, Note_off_c, 9, 42, 0
4, 30480, Note_on_c, 9, 42, 127
4, 30480, Note_on_c, 9, 35, 127
4, 30540, Note_off_c, 9, 42, 0
4, 30540, Note_off_c, 9, 35, 0
4, 30540, Note_on_c, 9, 42, 127
4, 30600, Note_off_c, 9, 42, 0
4, 30600, Note_on_c, 9, 42, 127
4, 30600, Note_on_c, 9, 38, 127
4, 30660, Note_off_c, 9, 38, 0
4, 30660, Note_off_c, 9, 42, 0
4, 30660, Note_on_c, 9, 42, 127
4, 30720, Note_off_c, 9, 42, 0
4, 30720, Note_on_c, 9, 42, 127
4, 30720, Note_on_c, 9, 35, 127
4, 30780, Note_off_c, 9, 35, 0
4, 30780, Note_off_c, 9, 42, 0
4, 30780, Note_on_c, 9, 42, 127
4, 30840, Note_off_c, 9, 42, 0
4, 30840, Note_on_c, 9, 42, 127
4, 30840, Note_on_c, 9, 38, 127
4, 30900, Note_off_c, 9, 38, 0
4, 30900, Note_off_c, 9, 42, 0
4, 30900, Note_on_c, 9, 42, 127
4, 30960, Note_off_c, 9, 42, 0
4, 30960, Note_on_c, 9, 42, 127
4, 30960, Note_on_c, 9, 35, 127
4, 31020, Note_off_c, 9, 42, 0
4, 31020, Note_off_c, 9, 35, 0
4, 31020, Note_on_c, 9, 42, 127
4, 31080, Note_off_c, 9, 42, 0
4, 31080, Note_on_c, 9, 42, 127
4, 31080, Note_on_c, 9, 38, 127
4, 31140, Note_off_c, 9, 42, 0
4, 31140, Note_off_c, 9, 38, 0
4, 31140, Note_on_c, 9, 42, 127
4, 31200, Note_off_c, 9, 42, 0
4, 31200, Note_on_c, 9, 42, 127
4, 31200, Note_on_c, 9, 35, 127
4, 31260, Note_off_c, 9, 42, 0
4, 31260, Note_off_c, 9, 35, 0
4, 31260, Note_on_c, 9, 42, 127
4, 31320, Note_off_c, 9, 42, 0
4, 31320, Note_on_c, 9, 42, 127
4, 31320, Note_on_c, 9, 38, 127
4, 31380, Note_off_c, 9, 38, 0
4, 31380, Note_off_c, 9, 42, 0
4, 31380, Note_on_c, 9, 42, 127
4, 31440, Note_off_c, 9, 42, 0
4, 31440, Note_on_c, 9, 42, 127
4, 31440, Note_on_c, 9, 35, 127
4, 31500, Note_off_c, 9, 42, 0
4, 31500, Note_off_c, 9, 35, 0
4, 31500, Note_on_c, 9, 42, 127
4, 31560, Note_off_c, 9, 42, 0
4, 31560, Note_on_c, 9, 42, 127
4, 31560, Note_on_c, 9, 38, 127
4, 31620, Note_off_c, 9, 38, 0
4, 31620, Note_off_c, 9, 42, 0
4, 31620, Note_on_c, 9, 42, 127
4, 31680, Note_off_c, 9, 42, 0
4, 31680, Note_on_c, 9, 42, 127
4, 31680, Note_on_c, 9, 35, 127
4, 31740, Note_off_c, 9, 42, 0
4, 31740, Note_off_c, 9, 35, 0
4, 31740, Note_on_c, 9, 42, 127
4, 31800, Note_off_c, 9, 42, 0
4, 31800, Note_on_c, 9, 42, 127
4, 31800, Note_on_c, 9, 38, 127
4, 31860, Note_off_c, 9, 38, 0
4, 31860, Note_off_c, 9, 42, 0
4, 31860, Note_on_c, 9, 42, 127
4, 31920, Note_off_c, 9, 42, 0
4, 31920, Note_on_c, 9, 42, 127
4, 31920, Note_on_c, 9, 35, 127
4, 31980, Note_off_c, 9, 35, 0
4, 31980, Note_off_c, 9, 42, 0
4, 31980, Note_on_c, 9, 42, 127
4, 32040, Note_off_c, 9, 42, 0
4, 32040, Note_on_c, 9, 42, 127
4, 32040, Note_on_c, 9, 38, 127
4, 32100, Note_off_c, 9, 38, 0
4, 32100, Note_off_c, 9, 42, 0
4, 32100, Note_on_c, 9, 42, 127
4, 32160, Note_off_c, 9, 42, 0
4, 32160, Note_on_c, 9, 42, 127
4, 32160, Note_on_c, 9, 35, 127
4, 32220, Note_off_c, 9, 42, 0
4, 32220, Note_off_c, 9, 35, 0
4, 32220, Note_on_c, 9, 42, 127
4, 32280, Note_off_c, 9, 42, 0
4, 32280, Note_on_c, 9, 42, 127
4, 32280, Note_on_c, 9, 38, 127
4, 32340, Note_off_c, 9, 38, 0
4, 32340, Note_off_c, 9, 42, 0
4, 32340, Note_on_c, 9, 42, 127
4, 32400, Note_off_c, 9, 42, 0
4, 32400, Note_on_c, 9, 42, 127
4, 32400, Note_on_c, 9, 35, 127
4, 32460, Note_off_c, 9, 42, 0
4, 32460, Note_off_c, 9, 35, 0
4, 32460, Note_on_c, 9, 42, 127
4, 32520, Note_off_c, 9, 42, 0
4, 32520, Note_on_c, 9, 42, 127
4, 32520, Note_on_c, 9, 38, 127
4, 32580, Note_off_c, 9, 38, 0
4, 32580, Note_off_c, 9, 42, 0
4, 32580, Note_on_c, 9, 42, 127
4, 32640, Note_off_c, 9, 42, 0
4, 32640, Note_on_c, 9, 42, 127
4, 32640, Note_on_c, 9, 35, 127
4, 32700, Note_off_c, 9, 35, 0
4, 32700, Note_off_c, 9, 42, 0
4, 32700, Note_on_c, 9, 42, 127
4, 32760, Note_off_c, 9, 42, 0
4, 32760, Note_on_c, 9, 42, 127
4, 32760, Note_on_c, 9, 38, 127
4, 32820, Note_off_c, 9, 42, 0
4, 32820, Note_off_c, 9, 38, 0
4, 32820, Note_on_c, 9, 42, 127
4, 32880, Note_off_c, 9, 42, 0
4, 32880, Note_on_c, 9, 42, 127
4, 32880, Note_on_c, 9, 35, 127
4, 32940, Note_off_c, 9, 42, 0
4, 32940, Note_off_c, 9, 35, 0
4, 32940, Note_on_c, 9, 42, 127
4, 33000, Note_off_c, 9, 42, 0
4, 33000, Note_on_c, 9, 42, 127
4, 33000, Note_on_c, 9, 38, 127
4, 33060, Note_off_c, 9, 42, 0
4, 33060, Note_off_c, 9, 38, 0
4, 33060, Note_on_c, 9, 42, 127
4, 33120, Note_off_c, 9, 42, 0
4, 33120, Note_on_c, 9, 42, 127
4, 33120, Note_on_c, 9, 35, 127
4, 33180, Note_off_c, 9, 42, 0
4, 33180, Note_off_c, 9, 35, 0
4, 33180, Note_on_c, 9, 42, 127
4, 33240, Note_off_c, 9, 42, 0
4, 33240, Note_on_c, 9, 42, 127
4, 33240, Note_on_c, 9, 38, 127
4, 33300, Note_off_c, 9, 42, 0
4, 33300, Note_off_c, 9, 38, 0
4, 33300, Note_on_c, 9, 42, 127
4, 33360, Note_off_c, 9, 42, 0
4, 33360, Note_on_c, 9, 42, 127
4, 33360, Note_on_c, 9, 35, 127
4, 33420, Note_off_c, 9, 42, 0
4, 33420, Note_off_c, 9, 35, 0
4, 33420, Note_on_c, 9, 42, 127
4, 33480, Note_off_c, 9, 42, 0
4, 33480, Note_on_c, 9, 42, 127
4, 33480, Note_on_c, 9, 38, 127
4, 33540, Note_off_c, 9, 42, 0
4, 33540, Note_off_c, 9, 38, 0
4, 33540, Note_on_c, 9, 42, 127
4, 33600, Note_off_c, 9, 42, 0
4, 33600, Note_on_c, 9, 42, 127
4, 33600, Note_on_c, 9, 35, 127
4, 33660, Note_off_c, 9, 42, 0
4, 33660, Note_off_c, 9, 35, 0
4, 33660, Note_on_c, 9, 42, 127
4, 33720, Note_off_c, 9, 42, 0
4, 33720, Note_on_c, 9, 42, 127
4, 33720, Note_on_c, 9, 38, 127
4, 33780, Note_off_c, 9, 38, 0
4, 33780, Note_off_c, 9, 42, 0
4, 33780, Note_on_c, 9, 42, 127
4, 33840, Note_off_c, 9, 42, 0
4, 33840, Note_on_c, 9, 42, 127
4, 33840, Note_on_c, 9, 35, 127
4, 33900, Note_off_c, 9, 35, 0
4, 33900, Note_off_c, 9, 42, 0
4, 33900, Note_on_c, 9, 42, 127
4, 33960, Note_off_c, 9, 42, 0
4, 33960, Note_on_c, 9, 42, 127
4, 33960, Note_on_c, 9, 38, 127
4, 34020, Note_off_c, 9, 42, 0
4, 34020, Note_off_c, 9, 38, 0
4, 34020, Note_on_c, 9, 42, 127
4, 34080, Note_off_c, 9, 42, 0
4, 34080, Note_on_c, 9, 42, 127
4, 34080, Note_on_c, 9, 35, 127
4, 34140, Note_off_c, 9, 35, 0
4, 34140, Note_off_c, 9, 42, 0
4, 34140, Note_on_c, 9, 42, 127
4, 34200, Note_off_c, 9, 42, 0
4, 34200, Note_on_c, 9, 42, 127
4, 34200, Note_on_c, 9, 38, 127
4, 34260, Note_off_c, 9, 42, 0
4, 34260, Note_off_c, 9, 38, 0
4, 34260, Note_on_c, 9, 42, 127
4, 34320, Note_off_c, 9, 42, 0
4, 34320, Note_on_c, 9, 42, 127
4, 34320, Note_on_c, 9, 35, 127
4, 34380, Note_off_c, 9, 42, 0
4, 34380, Note_off_c, 9, 35, 0
4, 34380, Note_on_c, 9, 42, 127
4, 34440, Note_off_c, 9, 42, 0
4, 34440, Note_on_c, 9, 42, 127
4, 34440, Note_on_c, 9, 38, 127
4, 34500, Note_off_c, 9, 42, 0
4, 34500, Note_off_c, 9, 38, 0
4, 34500, Note_on_c, 9, 42, 127
4, 34560, Note_off_c, 9, 42, 0
4, 34560, Note_on_c, 9, 42, 127
4, 34560, Note_on_c, 9, 35, 127
4, 34620, Note_off_c, 9, 42, 0
4, 34620, Note_off_c, 9, 35, 0
4, 34620, Note_on_c, 9, 42, 127
4, 34680, Note_off_c, 9, 42, 0
4, 34680, Note_on_c, 9, 42, 127
4, 34680, Note_on_c, 9, 38, 127
4, 34740, Note_off_c, 9, 38, 0
4, 34740, Note_off_c, 9, 42, 0
4, 34740, Note_on_c, 9, 42, 127
4, 34800, Note_off_c, 9, 42, 0
4, 34800, Note_on_c, 9, 42, 127
4, 34800, Note_on_c, 9, 35, 127
4, 34860, Note_off_c, 9, 42, 0
4, 34860, Note_off_c, 9, 35, 0
4, 34860, Note_on_c, 9, 42, 127
4, 34920, Note_off_c, 9, 42, 0
4, 34920, Note_on_c, 9, 42, 127
4, 34920, Note_on_c, 9, 38, 127
4, 34980, Note_off_c, 9, 42, 0
4, 34980, Note_off_c, 9, 38, 0
4, 34980, Note_on_c, 9, 42, 127
4, 35040, Note_off_c, 9, 42, 0
4, 35040, Note_on_c, 9, 42, 127
4, 35040, Note_on_c, 9, 35, 127
4, 35100, Note_off_c, 9, 42, 0
4, 35100, Note_off_c, 9, 35, 0
4, 35100, Note_on_c, 9, 42, 127
4, 35160, Note_off_c, 9, 42, 0
4, 35160, Note_on_c, 9, 42, 127
4, 35160, Note_on_c, 9, 38, 127
4, 35220, Note_off_c, 9, 42, 0
4, 35220, Note_off_c, 9, 38, 0
4, 35220, Note_on_c, 9, 42, 127
4, 35280, Note_off_c, 9, 42, 0
4, 35280, Note_on_c, 9, 42, 127
4, 35280, Note_on_c, 9, 35, 127
4, 35340, Note_off_c, 9, 35, 0
4, 35340, Note_off_c, 9, 42, 0
4, 35340, Note_on_c, 9, 42, 127
4, 35400, Note_off_c, 9, 42, 0
4, 35400, Note_on_c, 9, 42, 127
4, 35400, Note_on_c, 9, 38, 127
4, 35460, Note_off_c, 9, 42, 0
4, 35460, Note_off_c, 9, 38, 0
4, 35460, Note_on_c, 9, 42, 127
4, 35520, Note_off_c, 9, 42, 0
4, 35520, Note_on_c, 9, 42, 127
4, 35520, Note_on_c, 9, 35, 127
4, 35580, Note_off_c, 9, 42, 0
4, 35580, Note_off_c, 9, 35, 0
4, 35580, Note_on_c, 9, 42, 127
4, 35640, Note_off_c, 9, 42, 0
4, 35640, Note_on_c, 9, 42, 127
4, 35640, Note_on_c, 9, 38, 127
4, 35700, Note_off_c, 9, 38, 0
4, 35700, Note_off_c, 9, 42, 0
4, 35700, Note_on_c, 9, 42, 127
4, 35760, Note_off_c, 9, 42, 0
4, 35760, Note_on_c, 9, 42, 127
4, 35760, Note_on_c, 9, 35, 127
4, 35820, Note_off_c, 9, 42, 0
4, 35820, Note_off_c, 9, 35, 0
4, 35820, Note_on_c, 9, 42, 127
4, 35880, Note_off_c, 9, 42, 0
4, 35880, Note_on_c, 9, 42, 127
4, 35880, Note_on_c, 9, 38, 127
4, 35940, Note_off_c, 9, 42, 0
4, 35940, Note_off_c, 9, 38, 0
4, 35940, Note_on_c, 9, 42, 127
4, 36000, Note_off_c, 9, 42, 0
4, 36000, Note_on_c, 9, 42, 127
4, 36000, Note_on_c, 9, 35, 127
4, 36060, Note_off_c, 9, 42, 0
4, 36060, Note_off_c, 9, 35, 0
4, 36060, Note_on_c, 9, 42, 127
4, 36120, Note_off_c, 9, 42, 0
4, 36120, Note_on_c, 9, 42, 127
4, 36120, Note_on_c, 9, 38, 127
4, 36180, Note_off_c, 9, 38, 0
4, 36180, Note_off_c, 9, 42, 0
4, 36180, Note_on_c, 9, 42, 127
4, 36240, Note_off_c, 9, 42, 0
4, 36240, Note_on_c, 9, 42, 127
4, 36240, Note_on_c, 9, 35, 127
4, 36300, Note_off_c, 9, 42, 0
4, 36300, Note_off_c, 9, 35, 0
4, 36300, Note_on_c, 9, 42, 127
4, 36360, Note_off_c, 9, 42, 0
4, 36360, Note_on_c, 9, 42, 127
4, 36360, Note_on_c, 9, 38, 127
4, 36420, Note_off_c, 9, 38, 0
4, 36420, Note_off_c, 9, 42, 0
4, 36420, Note_on_c, 9, 42, 127
4, 36480, Note_off_c, 9, 42, 0
4, 36480, Note_on_c, 9, 42, 127
4, 36480, Note_on_c, 9, 35, 127
4, 36540, Note_off_c, 9, 35, 0
4, 36540, Note_off_c, 9, 42, 0
4, 36540, Note_on_c, 9, 42, 127
4, 36600, Note_off_c, 9, 42, 0
4, 36600, Note_on_c, 9, 42, 127
4, 36600, Note_on_c, 9, 38, 127
4, 36660, Note_off_c, 9, 42, 0
4, 36660, Note_off_c, 9, 38, 0
4, 36660, Note_on_c, 9, 42, 127
4, 36720, Note_off_c, 9, 42, 0
4, 36720, Note_on_c, 9, 42, 127
4, 36720, Note_on_c, 9, 35, 127
4, 36780, Note_off_c, 9, 35, 0
4, 36780, Note_off_c, 9, 42, 0
4, 36780, Note_on_c, 9, 42, 127
4, 36840, Note_off_c, 9, 42, 0
4, 36840, Note_on_c, 9, 42, 127
4, 36840, Note_on_c, 9, 38, 127
4, 36900, Note_off_c, 9, 42, 0
4, 36900, Note_off_c, 9, 38, 0
4, 36900, Note_on_c, 9, 42, 127
4, 36960, Note_off_c, 9, 42, 0
4, 36960, Note_on_c, 9, 42, 127
4, 36960, Note_on_c, 9, 35, 127
4, 37020, Note_off_c, 9, 42, 0
4, 37020, Note_off_c, 9, 35, 0
4, 37020, Note_on_c, 9, 42, 127
4, 37080, Note_off_c, 9, 42, 0
4, 37080, Note_on_c, 9, 42, 127
4, 37080, Note_on_c, 9, 38, 127
4, 37140, Note_off_c, 9, 38, 0
4, 37140, Note_off_c, 9, 42, 0
4, 37140, Note_on_c, 9, 42, 127
4, 37200, Note_off_c, 9, 42, 0
4, 37200, Note_on_c, 9, 42, 127
4, 37200, Note_on_c, 9, 35, 127
4, 37260, Note_off_c, 9, 35, 0
4, 37260, Note_off_c, 9, 42, 0
4, 37260, Note_on_c, 9, 42, 127
4, 37320, Note_off_c, 9, 42, 0
4, 37320, Note_on_c, 9, 42, 127
4, 37320, Note_on_c, 9, 38, 127
4, 37380, Note_off_c, 9, 42, 0
4, 37380, Note_off_c, 9, 38, 0
4, 37380, Note_on_c, 9, 42, 127
4, 37440, Note_off_c, 9, 42, 0
4, 37440, Note_on_c, 9, 42, 127
4, 37440, Note_on_c, 9, 35, 127
4, 37500, Note_off_c, 9, 35, 0
4, 37500, Note_off_c, 9, 42, 0
4, 37500, Note_on_c, 9, 42, 127
4, 37560, Note_off_c, 9, 42, 0
4, 37560, Note_on_c, 9, 42, 127
4, 37560, Note_on_c, 9, 38, 127
4, 37620, Note_off_c, 9, 42, 0
4, 37620, Note_off_c, 9, 38, 0
4, 37620, Note_on_c, 9, 42, 127
4, 37680, Note_off_c, 9, 42, 0
4, 37680, Note_on_c, 9, 42, 127
4, 37680, Note_on_c, 9, 35, 127
4, 37740, Note_off_c, 9, 42, 0
4, 37740, Note_off_c, 9, 35, 0
4, 37740, Note_on_c, 9, 42, 127
4, 37800, Note_off_c, 9, 42, 0
4, 37800, Note_on_c, 9, 42, 127
4, 37800, Note_on_c, 9, 38, 127
4, 37860, Note_off_c, 9, 38, 0
4, 37860, Note_off_c, 9, 42, 0
4, 37860, Note_on_c, 9, 42, 127
4, 37920, Note_off_c, 9, 42, 0
4, 37920, Note_on_c, 9, 42, 127
4, 37920, Note_on_c, 9, 35, 127
4, 37980, Note_off_c, 9, 42, 0
4, 37980, Note_off_c, 9, 35, 0
4, 37980, Note_on_c, 9, 42, 127
4, 38040, Note_off_c, 9, 42, 0
4, 38040, Note_on_c, 9, 42, 127
4, 38040, Note_on_c, 9, 38, 127
4, 38100, Note_off_c, 9, 42, 0
4, 38100, Note_off_c, 9, 38, 0
4, 38100, Note_on_c, 9, 42, 127
4, 38160, Note_off_c, 9, 42, 0
4, 38160, Note_on_c, 9, 42, 127
4, 38160, Note_on_c, 9, 35, 127
4, 38220, Note_off_c, 9, 42, 0
4, 38220, Note_off_c, 9, 35, 0
4, 38220, Note_on_c, 9, 42, 127
4, 38280, Note_off_c, 9, 42, 0
4, 38280, Note_on_c, 9, 42, 127
4, 38280, Note_on_c, 9, 38, 127
4, 38340, Note_off_c, 9, 42, 0
4, 38340, Note_off_c, 9, 38, 0
4, 38340, Note_on_c, 9, 42, 127
4, 38400, Note_off_c, 9, 42, 0
4, 38400, Note_on_c, 9, 42, 127
4, 38400, Note_on_c, 9, 35, 127
4, 38460, Note_off_c, 9, 42, 0
4, 38460, Note_off_c, 9, 35, 0
4, 38460, Note_on_c, 9, 42, 127
4, 38520, Note_off_c, 9, 42, 0
4, 38520, Note_on_c, 9, 42, 127
4, 38520, Note_on_c, 9, 38, 127
4, 38580, Note_off_c, 9, 42, 0
4, 38580, Note_off_c, 9, 38, 0
4, 38580, Note_on_c, 9, 42, 127
4, 38640, Note_off_c, 9, 42, 0
4, 38640, Note_on_c, 9, 42, 127
4, 38640, Note_on_c, 9, 35, 127
4, 38700, Note_off_c, 9, 42, 0
4, 38700, Note_off_c, 9, 35, 0
4, 38700, Note_on_c, 9, 42, 127
4, 38760, Note_off_c, 9, 42, 0
4, 38760, Note_on_c, 9, 42, 127
4, 38760, Note_on_c, 9, 38, 127
4, 38820, Note_off_c, 9, 38, 0
4, 38820, Note_off_c, 9, 42, 0
4, 38820, Note_on_c, 9, 42, 127
4, 38880, Note_off_c, 9, 42, 0
4, 38880, Note_on_c, 9, 42, 127
4, 38880, Note_on_c, 9, 35, 127
4, 38940, Note_off_c, 9, 42, 0
4, 38940, Note_off_c, 9, 35, 0
4, 38940, Note_on_c, 9, 42, 127
4, 39000, Note_off_c, 9, 42, 0
4, 39000, Note_on_c, 9, 42, 127
4, 39000, Note_on_c, 9, 38, 127
4, 39060, Note_off_c, 9, 42, 0
4, 39060, Note_off_c, 9, 38, 0
4, 39060, Note_on_c, 9, 42, 127
4, 39120, Note_off_c, 9, 42, 0
4, 39120, Note_on_c, 9, 42, 127
4, 39120, Note_on_c, 9, 35, 127
4, 39180, Note_off_c, 9, 35, 0
4, 39180, Note_off_c, 9, 42, 0
4, 39180, Note_on_c, 9, 42, 127
4, 39240, Note_off_c, 9, 42, 0
4, 39240, Note_on_c, 9, 42, 127
4, 39240, Note_on_c, 9, 38, 127
4, 39300, Note_off_c, 9, 42, 0
4, 39300, Note_off_c, 9, 38, 0
4, 39300, Note_on_c, 9, 42, 127
4, 39360, Note_off_c, 9, 42, 0
4, 39360, Note_on_c, 9, 42, 127
4, 39360, Note_on_c, 9, 35, 127
4, 39420, Note_off_c, 9, 42, 0
4, 39420, Note_off_c, 9, 35, 0
4, 39420, Note_on_c, 9, 42, 127
4, 39480, Note_off_c, 9, 42, 0
4, 39480, Note_on_c, 9, 42, 127
4, 39480, Note_on_c, 9, 38, 127
4, 39540, Note_off_c, 9, 38, 0
4, 39540, Note_off_c, 9, 42, 0
4, 39540, Note_on_c, 9, 42, 127
4, 39600, Note_off_c, 9, 42, 0
4, 39600, Note_on_c, 9, 42, 127
4, 39600, Note_on_c, 9, 35, 127
4, 39660, Note_off_c, 9, 42, 0
4, 39660, Note_off_c, 9, 35, 0
4, 39660, Note_on_c, 9, 42, 127
4, 39720, Note_off_c, 9, 42, 0
4, 39720, Note_on_c, 9, 42, 127
4, 39720, Note_on_c, 9, 38, 127
4, 39780, Note_off_c, 9, 42, 0
4, 39780, Note_off_c, 9, 38, 0
4, 39780, Note_on_c, 9, 42, 127
4, 39840, Note_off_c, 9, 42, 0
4, 39840, Note_on_c, 9, 42, 127
4, 39840, Note_on_c, 9, 35, 127
4, 39900, Note_off_c, 9, 35, 0
4, 39900, Note_off_c, 9, 42, 0
4, 39900, Note_on_c, 9, 42, 127
4, 39960, Note_off_c, 9, 42, 0
4, 39960, Note_on_c, 9, 42, 127
4, 39960, Note_on_c, 9, 38, 127
4, 40020, Note_off_c, 9, 38, 0
4, 40020, Note_off_c, 9, 42, 0
4, 40020, Note_on_c, 9, 42, 127
4, 40080, Note_off_c, 9, 42, 0
4, 40080, Note_on_c, 9, 42, 127
4, 40080, Note_on_c, 9, 35, 127
4, 40140, Note_off_c, 9, 42, 0
4, 40140, Note_off_c, 9, 35, 0
4, 40140, Note_on_c, 9, 42, 127
4, 40200, Note_off_c, 9, 42, 0
4, 40200, Note_on_c, 9, 42, 127
4, 40200, Note_on_c, 9, 38, 127
4, 40260, Note_off_c, 9, 38, 0
4, 40260, Note_off_c, 9, 42, 0
4, 40260, Note_on_c, 9, 42, 127
4, 40320, Note_off_c, 9, 42, 0
4, 40320, Note_on_c, 9, 42, 127
4, 40320, Note_on_c, 9, 35, 127
4, 40380, Note_off_c, 9, 35, 0
4, 40380, Note_off_c, 9, 42, 0
4, 40380, Note_on_c, 9, 42, 127
4, 40440, Note_off_c, 9, 42, 0
4, 40440, Note_on_c, 9, 42, 127
4, 40440, Note_on_c, 9, 38, 127
4, 40500, Note_off_c, 9, 38, 0
4, 40500, Note_off_c, 9, 42, 0
4, 40500, Note_on_c, 9, 42, 127
4, 40560, Note_off_c, 9, 42, 0
4, 40560, Note_on_c, 9, 42, 127
4, 40560, Note_on_c, 9, 35, 127
4, 40620, Note_off_c, 9, 42, 0
4, 40620, Note_off_c, 9, 35, 0
4, 40620, Note_on_c, 9, 42, 127
4, 40680, Note_off_c, 9, 42, 0
4, 40680, Note_on_c, 9, 42, 127
4, 40680, Note_on_c, 9, 38, 127
4, 40740, Note_off_c, 9, 42, 0
4, 40740, Note_off_c, 9, 38, 0
4, 40740, Note_on_c, 9, 42, 127
4, 40800, Note_off_c, 9, 42, 0
4, 40800, Note_on_c, 9, 42, 127
4, 40800, Note_on_c, 9, 38, 127
4, 41040, Note_off_c, 9, 42, 0
4, 41040, Note_off_c, 9, 38, 0
4, 41040, End_track
5, 0, Start_track
5, 0, Sequencer_specific, 5, 5, 15, 9, 0, 64
5, 0, Sequencer_specific, 15, 5, 15, 6, 71, 101, 110, 101, 114, 97, 108, 32, 77, 73, 68, 73
5, 0, Title_t, "Who Died February 6th 2011"
5, 0, Channel_prefix, 10
5, 0, Time_signature, 4, 2, 24, 8
5, 0, Key_signature, 0, "major"
5, 2, Control_c, 10, 101, 0
5, 2, Control_c, 10, 100, 0
5, 2, Control_c, 10, 6, 12
5, 2, Control_c, 10, 38, 0
5, 3, Pitch_bend_c, 10, 8192
5, 5, Control_c, 10, 101, 0
5, 5, Control_c, 10, 100, 1
5, 5, Control_c, 10, 6, 64
5, 5, Control_c, 10, 38, 0
5, 68, Control_c, 10, 101, 0
5, 68, Control_c, 10, 100, 2
5, 68, Control_c, 10, 6, 64
5, 68, Control_c, 10, 38, 0
5, 96, Control_c, 10, 0, 0
5, 96, Control_c, 10, 92, 0
5, 96, Control_c, 10, 95, 0
5, 96, End_track
6, 0, Start_track
6, 0, Sequencer_specific, 5, 5, 15, 9, 64, 72
6, 0, Sequencer_specific, 15, 5, 15, 6, 71, 101, 110, 101, 114, 97, 108, 32, 77, 73, 68, 73
6, 0, Title_t, "Track 6"
6, 0, Channel_prefix, 5
6, 0, Time_signature, 4, 2, 24, 8
6, 0, Key_signature, 0, "major"
6, 8, Control_c, 5, 101, 0
6, 8, Control_c, 5, 100, 0
6, 8, Control_c, 5, 6, 12
6, 8, Control_c, 5, 38, 0
6, 9, Pitch_bend_c, 5, 8192
6, 11, Control_c, 5, 101, 0
6, 11, Control_c, 5, 100, 1
6, 11, Control_c, 5, 6, 64
6, 11, Control_c, 5, 38, 0
6, 74, Control_c, 5, 101, 0
6, 74, Control_c, 5, 100, 2
6, 74, Control_c, 5, 6, 64
6, 74, Control_c, 5, 38, 0
6, 96, Control_c, 5, 0, 0
6, 96, Control_c, 5, 92, 0
6, 96, Control_c, 5, 95, 0
6, 479, Note_on_c, 5, 71, 95
6, 479, Pitch_bend_c, 5, 8192
6, 495, Pitch_bend_c, 5, 8320
6, 511, Pitch_bend_c, 5, 8448
6, 515, Pitch_bend_c, 5, 8576
6, 523, Pitch_bend_c, 5, 8704
6, 531, Pitch_bend_c, 5, 8832
6, 719, Note_off_c, 5, 71, 0
6, 719, Pitch_bend_c, 5, 8192
6, 719, Note_on_c, 5, 71, 95
6, 719, Pitch_bend_c, 5, 8192
6, 727, Pitch_bend_c, 5, 8320
6, 731, Pitch_bend_c, 5, 8576
6, 735, Pitch_bend_c, 5, 8704
6, 739, Pitch_bend_c, 5, 8832
6, 799, Note_off_c, 5, 71, 0
6, 799, Pitch_bend_c, 5, 8192
6, 959, Note_on_c, 5, 76, 95
6, 959, Pitch_bend_c, 5, 8192
6, 971, Pitch_bend_c, 5, 8320
6, 983, Pitch_bend_c, 5, 8448
6, 987, Pitch_bend_c, 5, 8576
6, 991, Pitch_bend_c, 5, 8704
6, 999, Pitch_bend_c, 5, 8832
6, 1139, Note_off_c, 5, 76, 0
6, 1139, Pitch_bend_c, 5, 8192
6, 1439, Note_on_c, 5, 74, 95
6, 1439, Pitch_bend_c, 5, 8192
6, 1451, Pitch_bend_c, 5, 8320
6, 1463, Pitch_bend_c, 5, 8448
6, 1467, Pitch_bend_c, 5, 8576
6, 1471, Pitch_bend_c, 5, 8704
6, 1475, Pitch_bend_c, 5, 8832
6, 1479, Pitch_bend_c, 5, 8960
6, 1483, Pitch_bend_c, 5, 9088
6, 1487, Pitch_bend_c, 5, 9344
6, 1495, Pitch_bend_c, 5, 9472
6, 1499, Pitch_bend_c, 5, 9600
6, 1500, Pitch_bend_c, 5, 9600
6, 1501, Pitch_bend_c, 5, 9600
6, 1502, Pitch_bend_c, 5, 9600
6, 1503, Pitch_bend_c, 5, 9600
6, 1504, Pitch_bend_c, 5, 9728
6, 1505, Pitch_bend_c, 5, 9728
6, 1506, Pitch_bend_c, 5, 9728
6, 1507, Pitch_bend_c, 5, 9728
6, 1508, Pitch_bend_c, 5, 9728
6, 1509, Pitch_bend_c, 5, 9728
6, 1510, Pitch_bend_c, 5, 9728
6, 1511, Pitch_bend_c, 5, 9600
6, 1512, Pitch_bend_c, 5, 9600
6, 1513, Pitch_bend_c, 5, 9600
6, 1514, Pitch_bend_c, 5, 9600
6, 1515, Pitch_bend_c, 5, 9472
6, 1516, Pitch_bend_c, 5, 9472
6, 1517, Pitch_bend_c, 5, 9472
6, 1518, Pitch_bend_c, 5, 9472
6, 1519, Pitch_bend_c, 5, 9472
6, 1520, Pitch_bend_c, 5, 9472
6, 1521, Pitch_bend_c, 5, 9472
6, 1522, Pitch_bend_c, 5, 9472
6, 1523, Pitch_bend_c, 5, 9472
6, 1524, Pitch_bend_c, 5, 9472
6, 1525, Pitch_bend_c, 5, 9472
6, 1526, Pitch_bend_c, 5, 9472
6, 1527, Pitch_bend_c, 5, 9472
6, 1528, Pitch_bend_c, 5, 9600
6, 1529, Pitch_bend_c, 5, 9600
6, 1530, Pitch_bend_c, 5, 9600
6, 1531, Pitch_bend_c, 5, 9600
6, 1532, Pitch_bend_c, 5, 9600
6, 1533, Pitch_bend_c, 5, 9728
6, 1534, Pitch_bend_c, 5, 9728
6, 1535, Pitch_bend_c, 5, 9728
6, 1536, Pitch_bend_c, 5, 9728
6, 1537, Pitch_bend_c, 5, 9728
6, 1538, Pitch_bend_c, 5, 9728
6, 1539, Pitch_bend_c, 5, 9728
6, 1540, Pitch_bend_c, 5, 9728
6, 1541, Pitch_bend_c, 5, 9600
6, 1542, Pitch_bend_c, 5, 9600
6, 1543, Pitch_bend_c, 5, 9600
6, 1544, Pitch_bend_c, 5, 9600
6, 1545, Pitch_bend_c, 5, 9472
6, 1546, Pitch_bend_c, 5, 9472
6, 1547, Pitch_bend_c, 5, 9472
6, 1548, Pitch_bend_c, 5, 9472
6, 1549, Pitch_bend_c, 5, 9472
6, 1550, Pitch_bend_c, 5, 9472
6, 1551, Pitch_bend_c, 5, 9472
6, 1552, Pitch_bend_c, 5, 9472
6, 1553, Pitch_bend_c, 5, 9472
6, 1554, Pitch_bend_c, 5, 9472
6, 1555, Pitch_bend_c, 5, 9472
6, 1556, Pitch_bend_c, 5, 9472
6, 1557, Pitch_bend_c, 5, 9472
6, 1558, Pitch_bend_c, 5, 9600
6, 1559, Pitch_bend_c, 5, 9600
6, 1560, Pitch_bend_c, 5, 9600
6, 1561, Pitch_bend_c, 5, 9600
6, 1562, Pitch_bend_c, 5, 9600
6, 1563, Pitch_bend_c, 5, 9600
6, 1564, Pitch_bend_c, 5, 9600
6, 1565, Pitch_bend_c, 5, 9728
6, 1566, Pitch_bend_c, 5, 9728
6, 1567, Pitch_bend_c, 5, 9728
6, 1568, Pitch_bend_c, 5, 9728
6, 1569, Pitch_bend_c, 5, 9600
6, 1570, Pitch_bend_c, 5, 9600
6, 1571, Pitch_bend_c, 5, 9600
6, 1572, Pitch_bend_c, 5, 9600
6, 1573, Pitch_bend_c, 5, 9600
6, 1574, Pitch_bend_c, 5, 9600
6, 1575, Pitch_bend_c, 5, 9472
6, 1576, Pitch_bend_c, 5, 9472
6, 1577, Pitch_bend_c, 5, 9472
6, 1578, Pitch_bend_c, 5, 9472
6, 1579, Pitch_bend_c, 5, 9344
6, 1580, Pitch_bend_c, 5, 9344
6, 1581, Pitch_bend_c, 5, 9344
6, 1582, Pitch_bend_c, 5, 9344
6, 1583, Pitch_bend_c, 5, 9344
6, 1584, Pitch_bend_c, 5, 9472
6, 1585, Pitch_bend_c, 5, 9472
6, 1586, Pitch_bend_c, 5, 9472
6, 1587, Pitch_bend_c, 5, 9472
6, 1588, Pitch_bend_c, 5, 9600
6, 1589, Pitch_bend_c, 5, 9600
6, 1590, Pitch_bend_c, 5, 9600
6, 1591, Pitch_bend_c, 5, 9600
6, 1592, Pitch_bend_c, 5, 9600
6, 1593, Pitch_bend_c, 5, 9728
6, 1594, Pitch_bend_c, 5, 9728
6, 1595, Pitch_bend_c, 5, 9728
6, 1596, Pitch_bend_c, 5, 9728
6, 1597, Pitch_bend_c, 5, 9728
6, 1598, Pitch_bend_c, 5, 9728
6, 1599, Pitch_bend_c, 5, 9600
6, 1600, Pitch_bend_c, 5, 9600
6, 1601, Pitch_bend_c, 5, 9600
6, 1602, Pitch_bend_c, 5, 9600
6, 1603, Pitch_bend_c, 5, 9600
6, 1604, Pitch_bend_c, 5, 9600
6, 1605, Pitch_bend_c, 5, 9472
6, 1606, Pitch_bend_c, 5, 9472
6, 1607, Pitch_bend_c, 5, 9472
6, 1608, Pitch_bend_c, 5, 9472
6, 1609, Pitch_bend_c, 5, 9472
6, 1610, Pitch_bend_c, 5, 9472
6, 1611, Pitch_bend_c, 5, 9344
6, 1612, Pitch_bend_c, 5, 9344
6, 1613, Pitch_bend_c, 5, 9344
6, 1614, Pitch_bend_c, 5, 9344
6, 1615, Pitch_bend_c, 5, 9472
6, 1616, Pitch_bend_c, 5, 9472
6, 1617, Pitch_bend_c, 5, 9472
6, 1618, Pitch_bend_c, 5, 9472
6, 1619, Pitch_bend_c, 5, 9600
6, 1620, Pitch_bend_c, 5, 9600
6, 1621, Pitch_bend_c, 5, 9600
6, 1622, Pitch_bend_c, 5, 9728
6, 1623, Pitch_bend_c, 5, 9728
6, 1624, Pitch_bend_c, 5, 9728
6, 1625, Pitch_bend_c, 5, 9728
6, 1626, Pitch_bend_c, 5, 9728
6, 1627, Pitch_bend_c, 5, 9728
6, 1628, Pitch_bend_c, 5, 9728
6, 1629, Pitch_bend_c, 5, 9728
6, 1630, Pitch_bend_c, 5, 9728
6, 1631, Pitch_bend_c, 5, 9600
6, 1632, Pitch_bend_c, 5, 9600
6, 1633, Pitch_bend_c, 5, 9600
6, 1634, Pitch_bend_c, 5, 9600
6, 1635, Pitch_bend_c, 5, 9472
6, 1636, Pitch_bend_c, 5, 9472
6, 1637, Pitch_bend_c, 5, 9472
6, 1638, Pitch_bend_c, 5, 9472
6, 1639, Pitch_bend_c, 5, 9472
6, 1640, Pitch_bend_c, 5, 9472
6, 1641, Pitch_bend_c, 5, 9472
6, 1642, Pitch_bend_c, 5, 9472
6, 1643, Pitch_bend_c, 5, 9344
6, 1644, Pitch_bend_c, 5, 9344
6, 1645, Pitch_bend_c, 5, 9472
6, 1646, Pitch_bend_c, 5, 9472
6, 1647, Pitch_bend_c, 5, 9472
6, 1648, Pitch_bend_c, 5, 9600
6, 1649, Pitch_bend_c, 5, 9600
6, 1650, Pitch_bend_c, 5, 9600
6, 1651, Pitch_bend_c, 5, 9600
6, 1652, Pitch_bend_c, 5, 9728
6, 1653, Pitch_bend_c, 5, 9728
6, 1654, Pitch_bend_c, 5, 9728
6, 1655, Pitch_bend_c, 5, 9728
6, 1656, Pitch_bend_c, 5, 9728
6, 1657, Pitch_bend_c, 5, 9728
6, 1658, Pitch_bend_c, 5, 9728
6, 1659, Pitch_bend_c, 5, 9728
6, 1660, Pitch_bend_c, 5, 9728
6, 1661, Pitch_bend_c, 5, 9600
6, 1662, Pitch_bend_c, 5, 9600
6, 1663, Pitch_bend_c, 5, 9600
6, 1664, Pitch_bend_c, 5, 9600
6, 1665, Pitch_bend_c, 5, 9600
6, 1666, Pitch_bend_c, 5, 9472
6, 1667, Pitch_bend_c, 5, 9472
6, 1668, Pitch_bend_c, 5, 9344
6, 1669, Pitch_bend_c, 5, 9344
6, 1670, Pitch_bend_c, 5, 9344
6, 1671, Pitch_bend_c, 5, 9344
6, 1672, Pitch_bend_c, 5, 9344
6, 1673, Pitch_bend_c, 5, 9344
6, 1674, Pitch_bend_c, 5, 9344
6, 1675, Pitch_bend_c, 5, 9472
6, 1676, Pitch_bend_c, 5, 9472
6, 1677, Pitch_bend_c, 5, 9472
6, 1678, Pitch_bend_c, 5, 9600
6, 1679, Note_off_c, 5, 74, 0
6, 1679, Pitch_bend_c, 5, 9600
6, 1679, Pitch_bend_c, 5, 8192
6, 1919, Note_on_c, 5, 72, 95
6, 1919, Pitch_bend_c, 5, 8192
6, 1927, Pitch_bend_c, 5, 8320
6, 1931, Pitch_bend_c, 5, 8448
6, 1935, Pitch_bend_c, 5, 8704
6, 1939, Pitch_bend_c, 5, 8960
6, 1943, Pitch_bend_c, 5, 9344
6, 1947, Pitch_bend_c, 5, 9472
6, 1951, Pitch_bend_c, 5, 9600
6, 2003, Pitch_bend_c, 5, 9344
6, 2007, Pitch_bend_c, 5, 9088
6, 2011, Pitch_bend_c, 5, 8832
6, 2015, Pitch_bend_c, 5, 8576
6, 2019, Pitch_bend_c, 5, 8320
6, 2027, Pitch_bend_c, 5, 8192
6, 2039, Note_off_c, 5, 72, 0
6, 2039, Pitch_bend_c, 5, 8192
6, 2279, Note_on_c, 5, 72, 95
6, 2279, Pitch_bend_c, 5, 8192
6, 2287, Pitch_bend_c, 5, 8320
6, 2291, Pitch_bend_c, 5, 8448
6, 2295, Pitch_bend_c, 5, 8704
6, 2299, Pitch_bend_c, 5, 8960
6, 2303, Pitch_bend_c, 5, 9344
6, 2307, Pitch_bend_c, 5, 9472
6, 2311, Pitch_bend_c, 5, 9600
6, 2371, Pitch_bend_c, 5, 9472
6, 2375, Pitch_bend_c, 5, 9344
6, 2379, Pitch_bend_c, 5, 8960
6, 2383, Pitch_bend_c, 5, 8704
6, 2387, Pitch_bend_c, 5, 8448
6, 2391, Pitch_bend_c, 5, 8320
6, 2395, Pitch_bend_c, 5, 8192
6, 2399, Pitch_bend_c, 5, 8192
6, 2400, Pitch_bend_c, 5, 8192
6, 2401, Pitch_bend_c, 5, 8320
6, 2402, Pitch_bend_c, 5, 8320
6, 2403, Pitch_bend_c, 5, 8320
6, 2404, Pitch_bend_c, 5, 8320
6, 2405, Pitch_bend_c, 5, 8320
6, 2406, Pitch_bend_c, 5, 8320
6, 2407, Pitch_bend_c, 5, 8320
6, 2408, Pitch_bend_c, 5, 8320
6, 2409, Pitch_bend_c, 5, 8320
6, 2410, Pitch_bend_c, 5, 8320
6, 2411, Pitch_bend_c, 5, 8320
6, 2412, Pitch_bend_c, 5, 8192
6, 2413, Pitch_bend_c, 5, 8192
6, 2414, Pitch_bend_c, 5, 8192
6, 2415, Pitch_bend_c, 5, 8192
6, 2416, Pitch_bend_c, 5, 8064
6, 2417, Pitch_bend_c, 5, 8064
6, 2418, Pitch_bend_c, 5, 8064
6, 2419, Pitch_bend_c, 5, 8064
6, 2420, Pitch_bend_c, 5, 8064
6, 2421, Pitch_bend_c, 5, 8064
6, 2422, Pitch_bend_c, 5, 8064
6, 2423, Pitch_bend_c, 5, 8064
6, 2424, Pitch_bend_c, 5, 8064
6, 2425, Pitch_bend_c, 5, 8064
6, 2426, Pitch_bend_c, 5, 8064
6, 2427, Pitch_bend_c, 5, 8192
6, 2428, Pitch_bend_c, 5, 8192
6, 2429, Pitch_bend_c, 5, 8192
6, 2430, Pitch_bend_c, 5, 8192
6, 2431, Pitch_bend_c, 5, 8320
6, 2432, Pitch_bend_c, 5, 8320
6, 2433, Pitch_bend_c, 5, 8320
6, 2434, Pitch_bend_c, 5, 8320
6, 2435, Pitch_bend_c, 5, 8320
6, 2436, Pitch_bend_c, 5, 8320
6, 2437, Pitch_bend_c, 5, 8320
6, 2438, Pitch_bend_c, 5, 8320
6, 2439, Pitch_bend_c, 5, 8320
6, 2440, Pitch_bend_c, 5, 8320
6, 2441, Pitch_bend_c, 5, 8320
6, 2442, Pitch_bend_c, 5, 8320
6, 2443, Pitch_bend_c, 5, 8192
6, 2444, Pitch_bend_c, 5, 8192
6, 2445, Pitch_bend_c, 5, 8192
6, 2446, Pitch_bend_c, 5, 8064
6, 2447, Pitch_bend_c, 5, 8064
6, 2448, Pitch_bend_c, 5, 8064
6, 2449, Pitch_bend_c, 5, 8064
6, 2450, Pitch_bend_c, 5, 8064
6, 2451, Pitch_bend_c, 5, 8064
6, 2452, Pitch_bend_c, 5, 8064
6, 2453, Pitch_bend_c, 5, 8064
6, 2454, Pitch_bend_c, 5, 8064
6, 2455, Pitch_bend_c, 5, 8064
6, 2456, Pitch_bend_c, 5, 8192
6, 2457, Pitch_bend_c, 5, 8192
6, 2458, Pitch_bend_c, 5, 8192
6, 2459, Pitch_bend_c, 5, 8192
6, 2460, Pitch_bend_c, 5, 8192
6, 2461, Pitch_bend_c, 5, 8320
6, 2462, Pitch_bend_c, 5, 8320
6, 2463, Pitch_bend_c, 5, 8320
6, 2464, Pitch_bend_c, 5, 8320
6, 2465, Pitch_bend_c, 5, 8320
6, 2466, Pitch_bend_c, 5, 8320
6, 2467, Pitch_bend_c, 5, 8320
6, 2468, Pitch_bend_c, 5, 8320
6, 2469, Pitch_bend_c, 5, 8320
6, 2470, Pitch_bend_c, 5, 8320
6, 2471, Pitch_bend_c, 5, 8320
6, 2472, Pitch_bend_c, 5, 8192
6, 2473, Pitch_bend_c, 5, 8192
6, 2474, Pitch_bend_c, 5, 8192
6, 2475, Pitch_bend_c, 5, 8192
6, 2476, Pitch_bend_c, 5, 8064
6, 2477, Pitch_bend_c, 5, 8064
6, 2478, Pitch_bend_c, 5, 8064
6, 2479, Pitch_bend_c, 5, 8064
6, 2480, Pitch_bend_c, 5, 7936
6, 2481, Pitch_bend_c, 5, 7936
6, 2482, Pitch_bend_c, 5, 7936
6, 2483, Pitch_bend_c, 5, 8064
6, 2484, Pitch_bend_c, 5, 8064
6, 2485, Pitch_bend_c, 5, 8064
6, 2486, Pitch_bend_c, 5, 8064
6, 2487, Pitch_bend_c, 5, 8192
6, 2488, Pitch_bend_c, 5, 8192
6, 2489, Pitch_bend_c, 5, 8192
6, 2490, Pitch_bend_c, 5, 8192
6, 2491, Pitch_bend_c, 5, 8320
6, 2492, Pitch_bend_c, 5, 8320
6, 2493, Pitch_bend_c, 5, 8320
6, 2494, Pitch_bend_c, 5, 8320
6, 2495, Pitch_bend_c, 5, 8320
6, 2496, Pitch_bend_c, 5, 8320
6, 2497, Pitch_bend_c, 5, 8320
6, 2498, Pitch_bend_c, 5, 8320
6, 2499, Pitch_bend_c, 5, 8320
6, 2500, Pitch_bend_c, 5, 8320
6, 2501, Pitch_bend_c, 5, 8320
6, 2502, Pitch_bend_c, 5, 8192
6, 2503, Pitch_bend_c, 5, 8192
6, 2504, Pitch_bend_c, 5, 8192
6, 2505, Pitch_bend_c, 5, 8192
6, 2506, Pitch_bend_c, 5, 8064
6, 2507, Pitch_bend_c, 5, 8064
6, 2508, Pitch_bend_c, 5, 8064
6, 2509, Pitch_bend_c, 5, 8064
6, 2510, Pitch_bend_c, 5, 8064
6, 2511, Pitch_bend_c, 5, 8064
6, 2512, Pitch_bend_c, 5, 8064
6, 2513, Pitch_bend_c, 5, 8064
6, 2514, Pitch_bend_c, 5, 8064
6, 2515, Pitch_bend_c, 5, 8064
6, 2516, Pitch_bend_c, 5, 8192
6, 2517, Pitch_bend_c, 5, 8192
6, 2518, Pitch_bend_c, 5, 8192
6, 2519, Pitch_bend_c, 5, 8192
6, 2520, Pitch_bend_c, 5, 8192
6, 2521, Pitch_bend_c, 5, 8320
6, 2522, Pitch_bend_c, 5, 8320
6, 2523, Pitch_bend_c, 5, 8320
6, 2524, Pitch_bend_c, 5, 8320
6, 2525, Pitch_bend_c, 5, 8320
6, 2526, Pitch_bend_c, 5, 8320
6, 2527, Pitch_bend_c, 5, 8320
6, 2528, Pitch_bend_c, 5, 8320
6, 2529, Pitch_bend_c, 5, 8320
6, 2530, Pitch_bend_c, 5, 8320
6, 2531, Pitch_bend_c, 5, 8320
6, 2532, Pitch_bend_c, 5, 8320
6, 2533, Pitch_bend_c, 5, 8192
6, 2534, Pitch_bend_c, 5, 8192
6, 2535, Pitch_bend_c, 5, 8192
6, 2536, Pitch_bend_c, 5, 8064
6, 2537, Pitch_bend_c, 5, 8064
6, 2538, Pitch_bend_c, 5, 8064
6, 2539, Pitch_bend_c, 5, 8064
6, 2540, Pitch_bend_c, 5, 8064
6, 2541, Pitch_bend_c, 5, 8064
6, 2542, Pitch_bend_c, 5, 8064
6, 2543, Pitch_bend_c, 5, 8064
6, 2544, Pitch_bend_c, 5, 8064
6, 2545, Pitch_bend_c, 5, 8064
6, 2546, Pitch_bend_c, 5, 8064
6, 2547, Pitch_bend_c, 5, 8064
6, 2548, Pitch_bend_c, 5, 8192
6, 2549, Pitch_bend_c, 5, 8192
6, 2550, Pitch_bend_c, 5, 8192
6, 2551, Pitch_bend_c, 5, 8320
6, 2552, Pitch_bend_c, 5, 8320
6, 2553, Pitch_bend_c, 5, 8320
6, 2554, Pitch_bend_c, 5, 8320
6, 2555, Pitch_bend_c, 5, 8320
6, 2556, Pitch_bend_c, 5, 8320
6, 2557, Pitch_bend_c, 5, 8320
6, 2558, Pitch_bend_c, 5, 8320
6, 2559, Pitch_bend_c, 5, 8320
6, 2560, Pitch_bend_c, 5, 8320
6, 2561, Pitch_bend_c, 5, 8320
6, 2562, Pitch_bend_c, 5, 8320
6, 2563, Pitch_bend_c, 5, 8192
6, 2564, Pitch_bend_c, 5, 8192
6, 2565, Pitch_bend_c, 5, 8192
6, 2566, Pitch_bend_c, 5, 8192
6, 2567, Pitch_bend_c, 5, 8064
6, 2568, Pitch_bend_c, 5, 8064
6, 2569, Pitch_bend_c, 5, 8064
6, 2570, Pitch_bend_c, 5, 8064
6, 2571, Pitch_bend_c, 5, 8064
6, 2572, Pitch_bend_c, 5, 8064
6, 2573, Pitch_bend_c, 5, 8064
6, 2574, Pitch_bend_c, 5, 8064
6, 2575, Pitch_bend_c, 5, 8064
6, 2576, Pitch_bend_c, 5, 8064
6, 2577, Pitch_bend_c, 5, 8192
6, 2578, Pitch_bend_c, 5, 8192
6, 2579, Pitch_bend_c, 5, 8192
6, 2580, Pitch_bend_c, 5, 8192
6, 2581, Pitch_bend_c, 5, 8320
6, 2582, Pitch_bend_c, 5, 8320
6, 2583, Pitch_bend_c, 5, 8320
6, 2584, Pitch_bend_c, 5, 8320
6, 2585, Pitch_bend_c, 5, 8320
6, 2586, Pitch_bend_c, 5, 8320
6, 2587, Pitch_bend_c, 5, 8320
6, 2588, Pitch_bend_c, 5, 8320
6, 2589, Pitch_bend_c, 5, 8320
6, 2590, Pitch_bend_c, 5, 8320
6, 2591, Pitch_bend_c, 5, 8320
6, 2592, Pitch_bend_c, 5, 8320
6, 2593, Pitch_bend_c, 5, 8192
6, 2594, Pitch_bend_c, 5, 8192
6, 2595, Pitch_bend_c, 5, 8192
6, 2596, Pitch_bend_c, 5, 8064
6, 2597, Pitch_bend_c, 5, 8064
6, 2598, Pitch_bend_c, 5, 8064
6, 2599, Pitch_bend_c, 5, 8064
6, 2600, Pitch_bend_c, 5, 8064
6, 2601, Pitch_bend_c, 5, 8064
6, 2602, Pitch_bend_c, 5, 8064
6, 2603, Pitch_bend_c, 5, 8064
6, 2604, Pitch_bend_c, 5, 8064
6, 2605, Pitch_bend_c, 5, 8064
6, 2606, Pitch_bend_c, 5, 8064
6, 2607, Pitch_bend_c, 5, 8192
6, 2608, Pitch_bend_c, 5, 8192
6, 2609, Pitch_bend_c, 5, 8192
6, 2610, Pitch_bend_c, 5, 8192
6, 2611, Pitch_bend_c, 5, 8320
6, 2612, Pitch_bend_c, 5, 8320
6, 2613, Pitch_bend_c, 5, 8320
6, 2614, Pitch_bend_c, 5, 8320
6, 2615, Pitch_bend_c, 5, 8448
6, 2616, Pitch_bend_c, 5, 8448
6, 2617, Pitch_bend_c, 5, 8320
6, 2618, Pitch_bend_c, 5, 8320
6, 2619, Pitch_bend_c, 5, 8320
6, 2620, Pitch_bend_c, 5, 8320
6, 2621, Pitch_bend_c, 5, 8320
6, 2622, Pitch_bend_c, 5, 8320
6, 2623, Pitch_bend_c, 5, 8192
6, 2624, Pitch_bend_c, 5, 8192
6, 2625, Pitch_bend_c, 5, 8192
6, 2626, Pitch_bend_c, 5, 8064
6, 2627, Pitch_bend_c, 5, 8064
6, 2628, Pitch_bend_c, 5, 8064
6, 2629, Pitch_bend_c, 5, 8064
6, 2630, Pitch_bend_c, 5, 8064
6, 2631, Pitch_bend_c, 5, 7936
6, 2632, Pitch_bend_c, 5, 7936
6, 2633, Pitch_bend_c, 5, 8064
6, 2634, Pitch_bend_c, 5, 8064
6, 2635, Pitch_bend_c, 5, 8064
6, 2636, Pitch_bend_c, 5, 8064
6, 2637, Pitch_bend_c, 5, 8064
6, 2638, Pitch_bend_c, 5, 8192
6, 2639, Note_off_c, 5, 72, 0
6, 2639, Pitch_bend_c, 5, 8192
6, 2639, Pitch_bend_c, 5, 8192
6, 2879, Note_on_c, 5, 76, 95
6, 2879, Pitch_bend_c, 5, 8192
6, 2891, Pitch_bend_c, 5, 8320
6, 2903, Pitch_bend_c, 5, 8448
6, 2907, Pitch_bend_c, 5, 8576
6, 2911, Pitch_bend_c, 5, 8704
6, 2919, Pitch_bend_c, 5, 8832
6, 3059, Note_off_c, 5, 76, 0
6, 3059, Pitch_bend_c, 5, 8192
6, 3359, Note_on_c, 5, 74, 95
6, 3359, Pitch_bend_c, 5, 8192
6, 3371, Pitch_bend_c, 5, 8320
6, 3383, Pitch_bend_c, 5, 8448
6, 3387, Pitch_bend_c, 5, 8576
6, 3391, Pitch_bend_c, 5, 8704
6, 3395, Pitch_bend_c, 5, 8832
6, 3399, Pitch_bend_c, 5, 8960
6, 3403, Pitch_bend_c, 5, 9088
6, 3407, Pitch_bend_c, 5, 9344
6, 3415, Pitch_bend_c, 5, 9472
6, 3419, Pitch_bend_c, 5, 9600
6, 3420, Pitch_bend_c, 5, 9600
6, 3421, Pitch_bend_c, 5, 9600
6, 3422, Pitch_bend_c, 5, 9600
6, 3423, Pitch_bend_c, 5, 9600
6, 3424, Pitch_bend_c, 5, 9600
6, 3425, Pitch_bend_c, 5, 9600
6, 3426, Pitch_bend_c, 5, 9728
6, 3427, Pitch_bend_c, 5, 9728
6, 3428, Pitch_bend_c, 5, 9728
6, 3429, Pitch_bend_c, 5, 9728
6, 3430, Pitch_bend_c, 5, 9728
6, 3431, Pitch_bend_c, 5, 9728
6, 3432, Pitch_bend_c, 5, 9600
6, 3433, Pitch_bend_c, 5, 9600
6, 3434, Pitch_bend_c, 5, 9600
6, 3435, Pitch_bend_c, 5, 9472
6, 3436, Pitch_bend_c, 5, 9472
6, 3437, Pitch_bend_c, 5, 9472
6, 3438, Pitch_bend_c, 5, 9472
6, 3439, Pitch_bend_c, 5, 9344
6, 3440, Pitch_bend_c, 5, 9344
6, 3441, Pitch_bend_c, 5, 9344
6, 3442, Pitch_bend_c, 5, 9344
6, 3443, Pitch_bend_c, 5, 9344
6, 3444, Pitch_bend_c, 5, 9472
6, 3445, Pitch_bend_c, 5, 9472
6, 3446, Pitch_bend_c, 5, 9472
6, 3447, Pitch_bend_c, 5, 9472
6, 3448, Pitch_bend_c, 5, 9600
6, 3449, Pitch_bend_c, 5, 9600
6, 3450, Pitch_bend_c, 5, 9600
6, 3451, Pitch_bend_c, 5, 9600
6, 3452, Pitch_bend_c, 5, 9600
6, 3453, Pitch_bend_c, 5, 9600
6, 3454, Pitch_bend_c, 5, 9600
6, 3455, Pitch_bend_c, 5, 9600
6, 3456, Pitch_bend_c, 5, 9728
6, 3457, Pitch_bend_c, 5, 9728
6, 3458, Pitch_bend_c, 5, 9728
6, 3459, Pitch_bend_c, 5, 9728
6, 3460, Pitch_bend_c, 5, 9728
6, 3461, Pitch_bend_c, 5, 9600
6, 3462, Pitch_bend_c, 5, 9600
6, 3463, Pitch_bend_c, 5, 9600
6, 3464, Pitch_bend_c, 5, 9600
6, 3465, Pitch_bend_c, 5, 9472
6, 3466, Pitch_bend_c, 5, 9472
6, 3467, Pitch_bend_c, 5, 9472
6, 3468, Pitch_bend_c, 5, 9472
6, 3469, Pitch_bend_c, 5, 9344
6, 3470, Pitch_bend_c, 5, 9344
6, 3471, Pitch_bend_c, 5, 9344
6, 3472, Pitch_bend_c, 5, 9344
6, 3473, Pitch_bend_c, 5, 9344
6, 3474, Pitch_bend_c, 5, 9472
6, 3475, Pitch_bend_c, 5, 9472
6, 3476, Pitch_bend_c, 5, 9472
6, 3477, Pitch_bend_c, 5, 9472
6, 3478, Pitch_bend_c, 5, 9600
6, 3479, Pitch_bend_c, 5, 9600
6, 3480, Pitch_bend_c, 5, 9600
6, 3481, Pitch_bend_c, 5, 9600
6, 3482, Pitch_bend_c, 5, 9728
6, 3483, Pitch_bend_c, 5, 9728
6, 3484, Pitch_bend_c, 5, 9728
6, 3485, Pitch_bend_c, 5, 9728
6, 3486, Pitch_bend_c, 5, 9728
6, 3487, Pitch_bend_c, 5, 9728
6, 3488, Pitch_bend_c, 5, 9728
6, 3489, Pitch_bend_c, 5, 9728
6, 3490, Pitch_bend_c, 5, 9728
6, 3491, Pitch_bend_c, 5, 9600
6, 3492, Pitch_bend_c, 5, 9600
6, 3493, Pitch_bend_c, 5, 9600
6, 3494, Pitch_bend_c, 5, 9600
6, 3495, Pitch_bend_c, 5, 9472
6, 3496, Pitch_bend_c, 5, 9472
6, 3497, Pitch_bend_c, 5, 9472
6, 3498, Pitch_bend_c, 5, 9472
6, 3499, Pitch_bend_c, 5, 9344
6, 3500, Pitch_bend_c, 5, 9344
6, 3501, Pitch_bend_c, 5, 9344
6, 3502, Pitch_bend_c, 5, 9344
6, 3503, Pitch_bend_c, 5, 9344
6, 3504, Pitch_bend_c, 5, 9344
6, 3505, Pitch_bend_c, 5, 9472
6, 3506, Pitch_bend_c, 5, 9472
6, 3507, Pitch_bend_c, 5, 9472
6, 3508, Pitch_bend_c, 5, 9600
6, 3509, Pitch_bend_c, 5, 9600
6, 3510, Pitch_bend_c, 5, 9600
6, 3511, Pitch_bend_c, 5, 9600
6, 3512, Pitch_bend_c, 5, 9600
6, 3513, Pitch_bend_c, 5, 9728
6, 3514, Pitch_bend_c, 5, 9728
6, 3515, Pitch_bend_c, 5, 9728
6, 3516, Pitch_bend_c, 5, 9728
6, 3517, Pitch_bend_c, 5, 9728
6, 3518, Pitch_bend_c, 5, 9728
6, 3519, Pitch_bend_c, 5, 9728
6, 3520, Pitch_bend_c, 5, 9728
6, 3521, Pitch_bend_c, 5, 9728
6, 3522, Pitch_bend_c, 5, 9600
6, 3523, Pitch_bend_c, 5, 9600
6, 3524, Pitch_bend_c, 5, 9600
6, 3525, Pitch_bend_c, 5, 9472
6, 3526, Pitch_bend_c, 5, 9472
6, 3527, Pitch_bend_c, 5, 9472
6, 3528, Pitch_bend_c, 5, 9472
6, 3529, Pitch_bend_c, 5, 9472
6, 3530, Pitch_bend_c, 5, 9472
6, 3531, Pitch_bend_c, 5, 9344
6, 3532, Pitch_bend_c, 5, 9344
6, 3533, Pitch_bend_c, 5, 9344
6, 3534, Pitch_bend_c, 5, 9344
6, 3535, Pitch_bend_c, 5, 9472
6, 3536, Pitch_bend_c, 5, 9472
6, 3537, Pitch_bend_c, 5, 9472
6, 3538, Pitch_bend_c, 5, 9472
6, 3539, Pitch_bend_c, 5, 9600
6, 3540, Pitch_bend_c, 5, 9600
6, 3541, Pitch_bend_c, 5, 9728
6, 3542, Pitch_bend_c, 5, 9728
6, 3543, Pitch_bend_c, 5, 9728
6, 3544, Pitch_bend_c, 5, 9728
6, 3545, Pitch_bend_c, 5, 9728
6, 3546, Pitch_bend_c, 5, 9728
6, 3547, Pitch_bend_c, 5, 9728
6, 3548, Pitch_bend_c, 5, 9728
6, 3549, Pitch_bend_c, 5, 9728
6, 3550, Pitch_bend_c, 5, 9728
6, 3551, Pitch_bend_c, 5, 9728
6, 3552, Pitch_bend_c, 5, 9600
6, 3553, Pitch_bend_c, 5, 9600
6, 3554, Pitch_bend_c, 5, 9600
6, 3555, Pitch_bend_c, 5, 9472
6, 3556, Pitch_bend_c, 5, 9472
6, 3557, Pitch_bend_c, 5, 9472
6, 3558, Pitch_bend_c, 5, 9472
6, 3559, Pitch_bend_c, 5, 9472
6, 3560, Pitch_bend_c, 5, 9472
6, 3561, Pitch_bend_c, 5, 9472
6, 3562, Pitch_bend_c, 5, 9472
6, 3563, Pitch_bend_c, 5, 9344
6, 3564, Pitch_bend_c, 5, 9344
6, 3565, Pitch_bend_c, 5, 9472
6, 3566, Pitch_bend_c, 5, 9472
6, 3567, Pitch_bend_c, 5, 9472
6, 3568, Pitch_bend_c, 5, 9600
6, 3569, Pitch_bend_c, 5, 9600
6, 3570, Pitch_bend_c, 5, 9600
6, 3571, Pitch_bend_c, 5, 9728
6, 3572, Pitch_bend_c, 5, 9728
6, 3573, Pitch_bend_c, 5, 9728
6, 3574, Pitch_bend_c, 5, 9728
6, 3575, Pitch_bend_c, 5, 9728
6, 3576, Pitch_bend_c, 5, 9728
6, 3577, Pitch_bend_c, 5, 9728
6, 3578, Pitch_bend_c, 5, 9728
6, 3579, Pitch_bend_c, 5, 9728
6, 3580, Pitch_bend_c, 5, 9600
6, 3581, Pitch_bend_c, 5, 9600
6, 3582, Pitch_bend_c, 5, 9600
6, 3583, Pitch_bend_c, 5, 9600
6, 3584, Pitch_bend_c, 5, 9600
6, 3585, Pitch_bend_c, 5, 9600
6, 3586, Pitch_bend_c, 5, 9472
6, 3587, Pitch_bend_c, 5, 9472
6, 3588, Pitch_bend_c, 5, 9472
6, 3589, Pitch_bend_c, 5, 9472
6, 3590, Pitch_bend_c, 5, 9344
6, 3591, Pitch_bend_c, 5, 9344
6, 3592, Pitch_bend_c, 5, 9344
6, 3593, Pitch_bend_c, 5, 9344
6, 3594, Pitch_bend_c, 5, 9472
6, 3595, Pitch_bend_c, 5, 9472
6, 3596, Pitch_bend_c, 5, 9472
6, 3597, Pitch_bend_c, 5, 9472
6, 3598, Pitch_bend_c, 5, 9600
6, 3599, Note_off_c, 5, 74, 0
6, 3599, Pitch_bend_c, 5, 9600
6, 3599, Pitch_bend_c, 5, 8192
6, 3839, Note_on_c, 5, 74, 95
6, 3839, Pitch_bend_c, 5, 8192
6, 3847, Pitch_bend_c, 5, 8320
6, 3855, Pitch_bend_c, 5, 8448
6, 3859, Pitch_bend_c, 5, 8576
6, 3863, Pitch_bend_c, 5, 8832
6, 3867, Pitch_bend_c, 5, 9088
6, 3871, Pitch_bend_c, 5, 9344
6, 3875, Pitch_bend_c, 5, 9472
6, 3879, Pitch_bend_c, 5, 9600
6, 3943, Pitch_bend_c, 5, 9472
6, 3947, Pitch_bend_c, 5, 9344
6, 3951, Pitch_bend_c, 5, 9088
6, 3955, Pitch_bend_c, 5, 8832
6, 3959, Pitch_bend_c, 5, 8576
6, 3963, Pitch_bend_c, 5, 8448
6, 3967, Pitch_bend_c, 5, 8320
6, 3975, Pitch_bend_c, 5, 8192
6, 4079, Note_off_c, 5, 74, 0
6, 4079, Pitch_bend_c, 5, 8192
6, 4319, Control_c, 5, 7, 98
6, 4349, Control_c, 5, 7, 92
6, 4379, Control_c, 5, 7, 86
6, 4409, Control_c, 5, 7, 80
6, 4439, Control_c, 5, 7, 73
6, 4469, Control_c, 5, 7, 67
6, 4499, Control_c, 5, 7, 61
6, 4529, Control_c, 5, 7, 55
6, 4559, Control_c, 5, 7, 49
6, 4589, Control_c, 5, 7, 43
6, 4619, Control_c, 5, 7, 37
6, 4649, Control_c, 5, 7, 31
6, 4679, Control_c, 5, 7, 24
6, 4709, Control_c, 5, 7, 18
6, 4739, Control_c, 5, 7, 12
6, 4769, Control_c, 5, 7, 6
6, 4799, Control_c, 5, 7, 0
6, 4799, Control_c, 5, 7, 80
6, 6179, Note_on_c, 5, 62, 95
6, 6179, Pitch_bend_c, 5, 8192
6, 6183, Pitch_bend_c, 5, 8448
6, 6187, Pitch_bend_c, 5, 9344
6, 6191, Pitch_bend_c, 5, 9600
6, 6203, Pitch_bend_c, 5, 8832
6, 6207, Pitch_bend_c, 5, 8320
6, 6211, Pitch_bend_c, 5, 8192
6, 6219, Note_off_c, 5, 62, 0
6, 6219, Pitch_bend_c, 5, 8192
6, 6239, Control_c, 5, 7, 75
6, 6269, Control_c, 5, 7, 71
6, 6299, Control_c, 5, 7, 66
6, 6329, Control_c, 5, 7, 61
6, 6359, Control_c, 5, 7, 56
6, 6389, Control_c, 5, 7, 52
6, 6419, Control_c, 5, 7, 47
6, 6449, Control_c, 5, 7, 42
6, 6479, Control_c, 5, 7, 38
6, 6509, Control_c, 5, 7, 33
6, 6539, Control_c, 5, 7, 28
6, 6569, Control_c, 5, 7, 24
6, 6599, Control_c, 5, 7, 19
6, 6629, Control_c, 5, 7, 14
6, 6659, Control_c, 5, 7, 9
6, 6689, Control_c, 5, 7, 5
6, 6719, Control_c, 5, 7, 0
6, 6719, Control_c, 5, 7, 80
6, 7184, Note_on_c, 5, 63, 95
6, 7184, Pitch_bend_c, 5, 6784
6, 7184, Note_on_c, 5, 54, 95
6, 7184, Pitch_bend_c, 5, 6784
6, 7192, Pitch_bend_c, 5, 7552
6, 7192, Pitch_bend_c, 5, 7552
6, 7199, Control_c, 5, 7, 75
6, 7199, Pitch_bend_c, 5, 8192
6, 7199, Pitch_bend_c, 5, 8192
6, 7229, Control_c, 5, 7, 71
6, 7259, Control_c, 5, 7, 66
6, 7289, Control_c, 5, 7, 61
6, 7319, Control_c, 5, 7, 56
6, 7349, Control_c, 5, 7, 52
6, 7379, Control_c, 5, 7, 47
6, 7409, Control_c, 5, 7, 42
6, 7439, Control_c, 5, 7, 38
6, 7469, Control_c, 5, 7, 33
6, 7499, Control_c, 5, 7, 28
6, 7529, Control_c, 5, 7, 24
6, 7559, Control_c, 5, 7, 19
6, 7589, Control_c, 5, 7, 14
6, 7619, Control_c, 5, 7, 9
6, 7649, Control_c, 5, 7, 5
6, 7679, Note_off_c, 5, 54, 0
6, 7679, Note_off_c, 5, 63, 0
6, 7679, Control_c, 5, 7, 0
6, 7679, Control_c, 5, 7, 80
6, 7979, Control_c, 5, 7, 88
6, 11819, Control_c, 5, 7, 104
6, 11999, Note_on_c, 5, 71, 95
6, 11999, Pitch_bend_c, 5, 8192
6, 12015, Pitch_bend_c, 5, 8320
6, 12031, Pitch_bend_c, 5, 8448
6, 12035, Pitch_bend_c, 5, 8576
6, 12043, Pitch_bend_c, 5, 8704
6, 12051, Pitch_bend_c, 5, 8832
6, 12059, Pitch_bend_c, 5, 8832
6, 12060, Pitch_bend_c, 5, 8960
6, 12061, Pitch_bend_c, 5, 8960
6, 12062, Pitch_bend_c, 5, 8960
6, 12063, Pitch_bend_c, 5, 8960
6, 12064, Pitch_bend_c, 5, 9088
6, 12065, Pitch_bend_c, 5, 9088
6, 12066, Pitch_bend_c, 5, 9088
6, 12067, Pitch_bend_c, 5, 8960
6, 12068, Pitch_bend_c, 5, 8960
6, 12069, Pitch_bend_c, 5, 8960
6, 12070, Pitch_bend_c, 5, 8960
6, 12071, Pitch_bend_c, 5, 8960
6, 12072, Pitch_bend_c, 5, 8960
6, 12073, Pitch_bend_c, 5, 8960
6, 12074, Pitch_bend_c, 5, 8832
6, 12075, Pitch_bend_c, 5, 8832
6, 12076, Pitch_bend_c, 5, 8832
6, 12077, Pitch_bend_c, 5, 8832
6, 12078, Pitch_bend_c, 5, 8832
6, 12079, Pitch_bend_c, 5, 8704
6, 12080, Pitch_bend_c, 5, 8704
6, 12081, Pitch_bend_c, 5, 8704
6, 12082, Pitch_bend_c, 5, 8704
6, 12083, Pitch_bend_c, 5, 8704
6, 12084, Pitch_bend_c, 5, 8832
6, 12085, Pitch_bend_c, 5, 8832
6, 12086, Pitch_bend_c, 5, 8832
6, 12087, Pitch_bend_c, 5, 8832
6, 12088, Pitch_bend_c, 5, 8832
6, 12089, Pitch_bend_c, 5, 8832
6, 12090, Pitch_bend_c, 5, 8960
6, 12091, Pitch_bend_c, 5, 8960
6, 12092, Pitch_bend_c, 5, 8960
6, 12093, Pitch_bend_c, 5, 8960
6, 12094, Pitch_bend_c, 5, 8960
6, 12095, Pitch_bend_c, 5, 9088
6, 12096, Pitch_bend_c, 5, 9088
6, 12097, Pitch_bend_c, 5, 9088
6, 12098, Pitch_bend_c, 5, 9088
6, 12099, Pitch_bend_c, 5, 8960
6, 12100, Pitch_bend_c, 5, 8960
6, 12101, Pitch_bend_c, 5, 8960
6, 12102, Pitch_bend_c, 5, 8960
6, 12103, Pitch_bend_c, 5, 8960
6, 12104, Pitch_bend_c, 5, 8832
6, 12105, Pitch_bend_c, 5, 8832
6, 12106, Pitch_bend_c, 5, 8832
6, 12107, Pitch_bend_c, 5, 8704
6, 12108, Pitch_bend_c, 5, 8704
6, 12109, Pitch_bend_c, 5, 8704
6, 12110, Pitch_bend_c, 5, 8704
6, 12111, Pitch_bend_c, 5, 8704
6, 12112, Pitch_bend_c, 5, 8704
6, 12113, Pitch_bend_c, 5, 8704
6, 12114, Pitch_bend_c, 5, 8704
6, 12115, Pitch_bend_c, 5, 8832
6, 12116, Pitch_bend_c, 5, 8832
6, 12117, Pitch_bend_c, 5, 8832
6, 12118, Pitch_bend_c, 5, 8832
6, 12119, Pitch_bend_c, 5, 8832
6, 12120, Pitch_bend_c, 5, 8960
6, 12121, Pitch_bend_c, 5, 8960
6, 12122, Pitch_bend_c, 5, 8960
6, 12123, Pitch_bend_c, 5, 8960
6, 12124, Pitch_bend_c, 5, 9088
6, 12125, Pitch_bend_c, 5, 9088
6, 12126, Pitch_bend_c, 5, 9088
6, 12127, Pitch_bend_c, 5, 9088
6, 12128, Pitch_bend_c, 5, 9088
6, 12129, Pitch_bend_c, 5, 9088
6, 12130, Pitch_bend_c, 5, 9088
6, 12131, Pitch_bend_c, 5, 8960
6, 12132, Pitch_bend_c, 5, 8960
6, 12133, Pitch_bend_c, 5, 8960
6, 12134, Pitch_bend_c, 5, 8832
6, 12135, Pitch_bend_c, 5, 8832
6, 12136, Pitch_bend_c, 5, 8832
6, 12137, Pitch_bend_c, 5, 8832
6, 12138, Pitch_bend_c, 5, 8704
6, 12139, Pitch_bend_c, 5, 8704
6, 12140, Pitch_bend_c, 5, 8704
6, 12141, Pitch_bend_c, 5, 8704
6, 12142, Pitch_bend_c, 5, 8704
6, 12143, Pitch_bend_c, 5, 8704
6, 12144, Pitch_bend_c, 5, 8832
6, 12145, Pitch_bend_c, 5, 8832
6, 12146, Pitch_bend_c, 5, 8832
6, 12147, Pitch_bend_c, 5, 8832
6, 12148, Pitch_bend_c, 5, 8832
6, 12149, Pitch_bend_c, 5, 8960
6, 12150, Pitch_bend_c, 5, 8960
6, 12151, Pitch_bend_c, 5, 8960
6, 12152, Pitch_bend_c, 5, 8960
6, 12153, Pitch_bend_c, 5, 8960
6, 12154, Pitch_bend_c, 5, 9088
6, 12155, Pitch_bend_c, 5, 8960
6, 12156, Pitch_bend_c, 5, 8960
6, 12157, Pitch_bend_c, 5, 8960
6, 12158, Pitch_bend_c, 5, 8960
6, 12159, Pitch_bend_c, 5, 8960
6, 12160, Pitch_bend_c, 5, 8960
6, 12161, Pitch_bend_c, 5, 8960
6, 12162, Pitch_bend_c, 5, 8960
6, 12163, Pitch_bend_c, 5, 8832
6, 12164, Pitch_bend_c, 5, 8832
6, 12165, Pitch_bend_c, 5, 8832
6, 12166, Pitch_bend_c, 5, 8832
6, 12167, Pitch_bend_c, 5, 8832
6, 12168, Pitch_bend_c, 5, 8704
6, 12169, Pitch_bend_c, 5, 8704
6, 12170, Pitch_bend_c, 5, 8704
6, 12171, Pitch_bend_c, 5, 8704
6, 12172, Pitch_bend_c, 5, 8704
6, 12173, Pitch_bend_c, 5, 8704
6, 12174, Pitch_bend_c, 5, 8704
6, 12175, Pitch_bend_c, 5, 8832
6, 12176, Pitch_bend_c, 5, 8832
6, 12177, Pitch_bend_c, 5, 8832
6, 12178, Pitch_bend_c, 5, 8832
6, 12179, Pitch_bend_c, 5, 8960
6, 12180, Pitch_bend_c, 5, 8960
6, 12181, Pitch_bend_c, 5, 8960
6, 12182, Pitch_bend_c, 5, 8960
6, 12183, Pitch_bend_c, 5, 9088
6, 12184, Pitch_bend_c, 5, 9088
6, 12185, Pitch_bend_c, 5, 9088
6, 12186, Pitch_bend_c, 5, 9088
6, 12187, Pitch_bend_c, 5, 9088
6, 12188, Pitch_bend_c, 5, 9088
6, 12189, Pitch_bend_c, 5, 9088
6, 12190, Pitch_bend_c, 5, 9088
6, 12191, Pitch_bend_c, 5, 8960
6, 12192, Pitch_bend_c, 5, 8960
6, 12193, Pitch_bend_c, 5, 8960
6, 12194, Pitch_bend_c, 5, 8960
6, 12195, Pitch_bend_c, 5, 8832
6, 12196, Pitch_bend_c, 5, 8832
6, 12197, Pitch_bend_c, 5, 8704
6, 12198, Pitch_bend_c, 5, 8704
6, 12199, Pitch_bend_c, 5, 8704
6, 12200, Pitch_bend_c, 5, 8704
6, 12201, Pitch_bend_c, 5, 8704
6, 12202, Pitch_bend_c, 5, 8704
6, 12203, Pitch_bend_c, 5, 8832
6, 12204, Pitch_bend_c, 5, 8832
6, 12205, Pitch_bend_c, 5, 8832
6, 12206, Pitch_bend_c, 5, 8832
6, 12207, Pitch_bend_c, 5, 8832
6, 12208, Pitch_bend_c, 5, 8832
6, 12209, Pitch_bend_c, 5, 8832
6, 12210, Pitch_bend_c, 5, 8960
6, 12211, Pitch_bend_c, 5, 8960
6, 12212, Pitch_bend_c, 5, 8960
6, 12213, Pitch_bend_c, 5, 9088
6, 12214, Pitch_bend_c, 5, 9088
6, 12215, Pitch_bend_c, 5, 9088
6, 12216, Pitch_bend_c, 5, 9088
6, 12217, Pitch_bend_c, 5, 9088
6, 12218, Pitch_bend_c, 5, 9088
6, 12219, Pitch_bend_c, 5, 9088
6, 12220, Pitch_bend_c, 5, 8960
6, 12221, Pitch_bend_c, 5, 8960
6, 12222, Pitch_bend_c, 5, 8960
6, 12223, Pitch_bend_c, 5, 8960
6, 12224, Pitch_bend_c, 5, 8832
6, 12225, Pitch_bend_c, 5, 8832
6, 12226, Pitch_bend_c, 5, 8832
6, 12227, Pitch_bend_c, 5, 8704
6, 12228, Pitch_bend_c, 5, 8704
6, 12229, Pitch_bend_c, 5, 8704
6, 12230, Pitch_bend_c, 5, 8704
6, 12231, Pitch_bend_c, 5, 8704
6, 12232, Pitch_bend_c, 5, 8704
6, 12233, Pitch_bend_c, 5, 8704
6, 12234, Pitch_bend_c, 5, 8704
6, 12235, Pitch_bend_c, 5, 8832
6, 12236, Pitch_bend_c, 5, 8832
6, 12237, Pitch_bend_c, 5, 8832
6, 12238, Pitch_bend_c, 5, 8832
6, 12239, Note_off_c, 5, 71, 0
6, 12239, Pitch_bend_c, 5, 8832
6, 12239, Pitch_bend_c, 5, 8192
6, 12239, Note_on_c, 5, 71, 95
6, 12239, Pitch_bend_c, 5, 8192
6, 12247, Pitch_bend_c, 5, 8320
6, 12251, Pitch_bend_c, 5, 8576
6, 12255, Pitch_bend_c, 5, 8704
6, 12259, Pitch_bend_c, 5, 8832
6, 12319, Note_off_c, 5, 71, 0
6, 12319, Pitch_bend_c, 5, 8192
6, 12479, Note_on_c, 5, 76, 95
6, 12479, Pitch_bend_c, 5, 8192
6, 12491, Pitch_bend_c, 5, 8320
6, 12503, Pitch_bend_c, 5, 8448
6, 12507, Pitch_bend_c, 5, 8576
6, 12511, Pitch_bend_c, 5, 8704
6, 12519, Pitch_bend_c, 5, 8832
6, 12527, Pitch_bend_c, 5, 8832
6, 12528, Pitch_bend_c, 5, 8832
6, 12529, Pitch_bend_c, 5, 8704
6, 12530, Pitch_bend_c, 5, 8704
6, 12531, Pitch_bend_c, 5, 8704
6, 12532, Pitch_bend_c, 5, 8704
6, 12533, Pitch_bend_c, 5, 8704
6, 12534, Pitch_bend_c, 5, 8704
6, 12535, Pitch_bend_c, 5, 8704
6, 12536, Pitch_bend_c, 5, 8704
6, 12537, Pitch_bend_c, 5, 8832
6, 12538, Pitch_bend_c, 5, 8832
6, 12539, Pitch_bend_c, 5, 8832
6, 12540, Pitch_bend_c, 5, 8960
6, 12541, Pitch_bend_c, 5, 8960
6, 12542, Pitch_bend_c, 5, 8960
6, 12543, Pitch_bend_c, 5, 8960
6, 12544, Pitch_bend_c, 5, 9088
6, 12545, Pitch_bend_c, 5, 9088
6, 12546, Pitch_bend_c, 5, 9088
6, 12547, Pitch_bend_c, 5, 9088
6, 12548, Pitch_bend_c, 5, 9088
6, 12549, Pitch_bend_c, 5, 8960
6, 12550, Pitch_bend_c, 5, 8960
6, 12551, Pitch_bend_c, 5, 8960
6, 12552, Pitch_bend_c, 5, 8960
6, 12553, Pitch_bend_c, 5, 8832
6, 12554, Pitch_bend_c, 5, 8832
6, 12555, Pitch_bend_c, 5, 8832
6, 12556, Pitch_bend_c, 5, 8832
6, 12557, Pitch_bend_c, 5, 8704
6, 12558, Pitch_bend_c, 5, 8704
6, 12559, Pitch_bend_c, 5, 8704
6, 12560, Pitch_bend_c, 5, 8704
6, 12561, Pitch_bend_c, 5, 8704
6, 12562, Pitch_bend_c, 5, 8704
6, 12563, Pitch_bend_c, 5, 8704
6, 12564, Pitch_bend_c, 5, 8704
6, 12565, Pitch_bend_c, 5, 8704
6, 12566, Pitch_bend_c, 5, 8832
6, 12567, Pitch_bend_c, 5, 8832
6, 12568, Pitch_bend_c, 5, 8832
6, 12569, Pitch_bend_c, 5, 8832
6, 12570, Pitch_bend_c, 5, 8960
6, 12571, Pitch_bend_c, 5, 8960
6, 12572, Pitch_bend_c, 5, 8960
6, 12573, Pitch_bend_c, 5, 8960
6, 12574, Pitch_bend_c, 5, 8960
6, 12575, Pitch_bend_c, 5, 8960
6, 12576, Pitch_bend_c, 5, 8960
6, 12577, Pitch_bend_c, 5, 8960
6, 12578, Pitch_bend_c, 5, 8960
6, 12579, Pitch_bend_c, 5, 8960
6, 12580, Pitch_bend_c, 5, 8960
6, 12581, Pitch_bend_c, 5, 8960
6, 12582, Pitch_bend_c, 5, 8960
6, 12583, Pitch_bend_c, 5, 8832
6, 12584, Pitch_bend_c, 5, 8832
6, 12585, Pitch_bend_c, 5, 8832
6, 12586, Pitch_bend_c, 5, 8832
6, 12587, Pitch_bend_c, 5, 8832
6, 12588, Pitch_bend_c, 5, 8832
6, 12589, Pitch_bend_c, 5, 8704
6, 12590, Pitch_bend_c, 5, 8704
6, 12591, Pitch_bend_c, 5, 8704
6, 12592, Pitch_bend_c, 5, 8704
6, 12593, Pitch_bend_c, 5, 8704
6, 12594, Pitch_bend_c, 5, 8704
6, 12595, Pitch_bend_c, 5, 8704
6, 12596, Pitch_bend_c, 5, 8704
6, 12597, Pitch_bend_c, 5, 8832
6, 12598, Pitch_bend_c, 5, 8832
6, 12599, Pitch_bend_c, 5, 8832
6, 12600, Pitch_bend_c, 5, 8960
6, 12601, Pitch_bend_c, 5, 8960
6, 12602, Pitch_bend_c, 5, 8960
6, 12603, Pitch_bend_c, 5, 8960
6, 12604, Pitch_bend_c, 5, 9088
6, 12605, Pitch_bend_c, 5, 9088
6, 12606, Pitch_bend_c, 5, 9088
6, 12607, Pitch_bend_c, 5, 8960
6, 12608, Pitch_bend_c, 5, 8960
6, 12609, Pitch_bend_c, 5, 8960
6, 12610, Pitch_bend_c, 5, 8960
6, 12611, Pitch_bend_c, 5, 8960
6, 12612, Pitch_bend_c, 5, 8960
6, 12613, Pitch_bend_c, 5, 8832
6, 12614, Pitch_bend_c, 5, 8832
6, 12615, Pitch_bend_c, 5, 8832
6, 12616, Pitch_bend_c, 5, 8832
6, 12617, Pitch_bend_c, 5, 8704
6, 12618, Pitch_bend_c, 5, 8704
6, 12619, Pitch_bend_c, 5, 8704
6, 12620, Pitch_bend_c, 5, 8704
6, 12621, Pitch_bend_c, 5, 8704
6, 12622, Pitch_bend_c, 5, 8704
6, 12623, Pitch_bend_c, 5, 8704
6, 12624, Pitch_bend_c, 5, 8832
6, 12625, Pitch_bend_c, 5, 8832
6, 12626, Pitch_bend_c, 5, 8832
6, 12627, Pitch_bend_c, 5, 8832
6, 12628, Pitch_bend_c, 5, 8832
6, 12629, Pitch_bend_c, 5, 8832
6, 12630, Pitch_bend_c, 5, 8832
6, 12631, Pitch_bend_c, 5, 8960
6, 12632, Pitch_bend_c, 5, 8960
6, 12633, Pitch_bend_c, 5, 8960
6, 12634, Pitch_bend_c, 5, 8960
6, 12635, Pitch_bend_c, 5, 8960
6, 12636, Pitch_bend_c, 5, 8960
6, 12637, Pitch_bend_c, 5, 8960
6, 12638, Pitch_bend_c, 5, 8960
6, 12639, Pitch_bend_c, 5, 8960
6, 12640, Pitch_bend_c, 5, 8960
6, 12641, Pitch_bend_c, 5, 8960
6, 12642, Pitch_bend_c, 5, 8960
6, 12643, Pitch_bend_c, 5, 8832
6, 12644, Pitch_bend_c, 5, 8832
6, 12645, Pitch_bend_c, 5, 8832
6, 12646, Pitch_bend_c, 5, 8832
6, 12647, Pitch_bend_c, 5, 8832
6, 12648, Pitch_bend_c, 5, 8704
6, 12649, Pitch_bend_c, 5, 8704
6, 12650, Pitch_bend_c, 5, 8704
6, 12651, Pitch_bend_c, 5, 8704
6, 12652, Pitch_bend_c, 5, 8704
6, 12653, Pitch_bend_c, 5, 8704
6, 12654, Pitch_bend_c, 5, 8704
6, 12655, Pitch_bend_c, 5, 8704
6, 12656, Pitch_bend_c, 5, 8832
6, 12657, Pitch_bend_c, 5, 8832
6, 12658, Pitch_bend_c, 5, 8832
6, 12659, Note_off_c, 5, 76, 0
6, 12659, Pitch_bend_c, 5, 8832
6, 12659, Pitch_bend_c, 5, 8192
6, 12959, Note_on_c, 5, 74, 95
6, 12959, Pitch_bend_c, 5, 8192
6, 12971, Pitch_bend_c, 5, 8320
6, 12983, Pitch_bend_c, 5, 8448
6, 12987, Pitch_bend_c, 5, 8576
6, 12991, Pitch_bend_c, 5, 8704
6, 12995, Pitch_bend_c, 5, 8832
6, 12999, Pitch_bend_c, 5, 8960
6, 13003, Pitch_bend_c, 5, 9088
6, 13007, Pitch_bend_c, 5, 9344
6, 13015, Pitch_bend_c, 5, 9472
6, 13019, Pitch_bend_c, 5, 9600
6, 13020, Pitch_bend_c, 5, 9600
6, 13021, Pitch_bend_c, 5, 9600
6, 13022, Pitch_bend_c, 5, 9600
6, 13023, Pitch_bend_c, 5, 9600
6, 13024, Pitch_bend_c, 5, 9600
6, 13025, Pitch_bend_c, 5, 9600
6, 13026, Pitch_bend_c, 5, 9728
6, 13027, Pitch_bend_c, 5, 9728
6, 13028, Pitch_bend_c, 5, 9728
6, 13029, Pitch_bend_c, 5, 9728
6, 13030, Pitch_bend_c, 5, 9728
6, 13031, Pitch_bend_c, 5, 9728
6, 13032, Pitch_bend_c, 5, 9600
6, 13033, Pitch_bend_c, 5, 9600
6, 13034, Pitch_bend_c, 5, 9600
6, 13035, Pitch_bend_c, 5, 9472
6, 13036, Pitch_bend_c, 5, 9472
6, 13037, Pitch_bend_c, 5, 9344
6, 13038, Pitch_bend_c, 5, 9344
6, 13039, Pitch_bend_c, 5, 9344
6, 13040, Pitch_bend_c, 5, 9344
6, 13041, Pitch_bend_c, 5, 9344
6, 13042, Pitch_bend_c, 5, 9344
6, 13043, Pitch_bend_c, 5, 9344
6, 13044, Pitch_bend_c, 5, 9472
6, 13045, Pitch_bend_c, 5, 9472
6, 13046, Pitch_bend_c, 5, 9472
6, 13047, Pitch_bend_c, 5, 9472
6, 13048, Pitch_bend_c, 5, 9600
6, 13049, Pitch_bend_c, 5, 9600
6, 13050, Pitch_bend_c, 5, 9600
6, 13051, Pitch_bend_c, 5, 9600
6, 13052, Pitch_bend_c, 5, 9728
6, 13053, Pitch_bend_c, 5, 9728
6, 13054, Pitch_bend_c, 5, 9728
6, 13055, Pitch_bend_c, 5, 9728
6, 13056, Pitch_bend_c, 5, 9728
6, 13057, Pitch_bend_c, 5, 9728
6, 13058, Pitch_bend_c, 5, 9728
6, 13059, Pitch_bend_c, 5, 9728
6, 13060, Pitch_bend_c, 5, 9728
6, 13061, Pitch_bend_c, 5, 9600
6, 13062, Pitch_bend_c, 5, 9600
6, 13063, Pitch_bend_c, 5, 9600
6, 13064, Pitch_bend_c, 5, 9600
6, 13065, Pitch_bend_c, 5, 9472
6, 13066, Pitch_bend_c, 5, 9472
6, 13067, Pitch_bend_c, 5, 9472
6, 13068, Pitch_bend_c, 5, 9472
6, 13069, Pitch_bend_c, 5, 9472
6, 13070, Pitch_bend_c, 5, 9472
6, 13071, Pitch_bend_c, 5, 9472
6, 13072, Pitch_bend_c, 5, 9472
6, 13073, Pitch_bend_c, 5, 9472
6, 13074, Pitch_bend_c, 5, 9472
6, 13075, Pitch_bend_c, 5, 9472
6, 13076, Pitch_bend_c, 5, 9472
6, 13077, Pitch_bend_c, 5, 9472
6, 13078, Pitch_bend_c, 5, 9600
6, 13079, Pitch_bend_c, 5, 9600
6, 13080, Pitch_bend_c, 5, 9600
6, 13081, Pitch_bend_c, 5, 9600
6, 13082, Pitch_bend_c, 5, 9600
6, 13083, Pitch_bend_c, 5, 9728
6, 13084, Pitch_bend_c, 5, 9728
6, 13085, Pitch_bend_c, 5, 9728
6, 13086, Pitch_bend_c, 5, 9728
6, 13087, Pitch_bend_c, 5, 9728
6, 13088, Pitch_bend_c, 5, 9728
6, 13089, Pitch_bend_c, 5, 9728
6, 13090, Pitch_bend_c, 5, 9728
6, 13091, Pitch_bend_c, 5, 9728
6, 13092, Pitch_bend_c, 5, 9600
6, 13093, Pitch_bend_c, 5, 9600
6, 13094, Pitch_bend_c, 5, 9600
6, 13095, Pitch_bend_c, 5, 9472
6, 13096, Pitch_bend_c, 5, 9472
6, 13097, Pitch_bend_c, 5, 9472
6, 13098, Pitch_bend_c, 5, 9344
6, 13099, Pitch_bend_c, 5, 9472
6, 13100, Pitch_bend_c, 5, 9472
6, 13101, Pitch_bend_c, 5, 9472
6, 13102, Pitch_bend_c, 5, 9472
6, 13103, Pitch_bend_c, 5, 9472
6, 13104, Pitch_bend_c, 5, 9472
6, 13105, Pitch_bend_c, 5, 9472
6, 13106, Pitch_bend_c, 5, 9472
6, 13107, Pitch_bend_c, 5, 9472
6, 13108, Pitch_bend_c, 5, 9600
6, 13109, Pitch_bend_c, 5, 9600
6, 13110, Pitch_bend_c, 5, 9600
6, 13111, Pitch_bend_c, 5, 9600
6, 13112, Pitch_bend_c, 5, 9728
6, 13113, Pitch_bend_c, 5, 9728
6, 13114, Pitch_bend_c, 5, 9728
6, 13115, Pitch_bend_c, 5, 9728
6, 13116, Pitch_bend_c, 5, 9728
6, 13117, Pitch_bend_c, 5, 9728
6, 13118, Pitch_bend_c, 5, 9728
6, 13119, Pitch_bend_c, 5, 9728
6, 13120, Pitch_bend_c, 5, 9728
6, 13121, Pitch_bend_c, 5, 9728
6, 13122, Pitch_bend_c, 5, 9600
6, 13123, Pitch_bend_c, 5, 9600
6, 13124, Pitch_bend_c, 5, 9600
6, 13125, Pitch_bend_c, 5, 9472
6, 13126, Pitch_bend_c, 5, 9472
6, 13127, Pitch_bend_c, 5, 9472
6, 13128, Pitch_bend_c, 5, 9472
6, 13129, Pitch_bend_c, 5, 9472
6, 13130, Pitch_bend_c, 5, 9472
6, 13131, Pitch_bend_c, 5, 9472
6, 13132, Pitch_bend_c, 5, 9472
6, 13133, Pitch_bend_c, 5, 9472
6, 13134, Pitch_bend_c, 5, 9472
6, 13135, Pitch_bend_c, 5, 9472
6, 13136, Pitch_bend_c, 5, 9472
6, 13137, Pitch_bend_c, 5, 9472
6, 13138, Pitch_bend_c, 5, 9600
6, 13139, Pitch_bend_c, 5, 9600
6, 13140, Pitch_bend_c, 5, 9600
6, 13141, Pitch_bend_c, 5, 9600
6, 13142, Pitch_bend_c, 5, 9728
6, 13143, Pitch_bend_c, 5, 9728
6, 13144, Pitch_bend_c, 5, 9728
6, 13145, Pitch_bend_c, 5, 9728
6, 13146, Pitch_bend_c, 5, 9728
6, 13147, Pitch_bend_c, 5, 9728
6, 13148, Pitch_bend_c, 5, 9728
6, 13149, Pitch_bend_c, 5, 9728
6, 13150, Pitch_bend_c, 5, 9600
6, 13151, Pitch_bend_c, 5, 9600
6, 13152, Pitch_bend_c, 5, 9600
6, 13153, Pitch_bend_c, 5, 9600
6, 13154, Pitch_bend_c, 5, 9600
6, 13155, Pitch_bend_c, 5, 9472
6, 13156, Pitch_bend_c, 5, 9472
6, 13157, Pitch_bend_c, 5, 9472
6, 13158, Pitch_bend_c, 5, 9472
6, 13159, Pitch_bend_c, 5, 9344
6, 13160, Pitch_bend_c, 5, 9344
6, 13161, Pitch_bend_c, 5, 9344
6, 13162, Pitch_bend_c, 5, 9344
6, 13163, Pitch_bend_c, 5, 9472
6, 13164, Pitch_bend_c, 5, 9472
6, 13165, Pitch_bend_c, 5, 9472
6, 13166, Pitch_bend_c, 5, 9472
6, 13167, Pitch_bend_c, 5, 9472
6, 13168, Pitch_bend_c, 5, 9600
6, 13169, Pitch_bend_c, 5, 9600
6, 13170, Pitch_bend_c, 5, 9600
6, 13171, Pitch_bend_c, 5, 9600
6, 13172, Pitch_bend_c, 5, 9600
6, 13173, Pitch_bend_c, 5, 9600
6, 13174, Pitch_bend_c, 5, 9600
6, 13175, Pitch_bend_c, 5, 9728
6, 13176, Pitch_bend_c, 5, 9728
6, 13177, Pitch_bend_c, 5, 9728
6, 13178, Pitch_bend_c, 5, 9600
6, 13179, Pitch_bend_c, 5, 9728
6, 13180, Pitch_bend_c, 5, 9600
6, 13181, Pitch_bend_c, 5, 9600
6, 13182, Pitch_bend_c, 5, 9600
6, 13183, Pitch_bend_c, 5, 9600
6, 13184, Pitch_bend_c, 5, 9600
6, 13185, Pitch_bend_c, 5, 9600
6, 13186, Pitch_bend_c, 5, 9472
6, 13187, Pitch_bend_c, 5, 9472
6, 13188, Pitch_bend_c, 5, 9344
6, 13189, Pitch_bend_c, 5, 9344
6, 13190, Pitch_bend_c, 5, 9344
6, 13191, Pitch_bend_c, 5, 9344
6, 13192, Pitch_bend_c, 5, 9344
6, 13193, Pitch_bend_c, 5, 9344
6, 13194, Pitch_bend_c, 5, 9344
6, 13195, Pitch_bend_c, 5, 9472
6, 13196, Pitch_bend_c, 5, 9472
6, 13197, Pitch_bend_c, 5, 9472
6, 13198, Pitch_bend_c, 5, 9600
6, 13199, Note_off_c, 5, 74, 0
6, 13199, Pitch_bend_c, 5, 9600
6, 13199, Pitch_bend_c, 5, 8192
6, 13439, Note_on_c, 5, 74, 95
6, 13439, Pitch_bend_c, 5, 8192
6, 13451, Pitch_bend_c, 5, 8320
6, 13463, Pitch_bend_c, 5, 8448
6, 13467, Pitch_bend_c, 5, 8576
6, 13471, Pitch_bend_c, 5, 8704
6, 13475, Pitch_bend_c, 5, 8832
6, 13479, Pitch_bend_c, 5, 8960
6, 13483, Pitch_bend_c, 5, 9088
6, 13487, Pitch_bend_c, 5, 9344
6, 13495, Pitch_bend_c, 5, 9472
6, 13499, Pitch_bend_c, 5, 9600
6, 13559, Note_off_c, 5, 74, 0
6, 13559, Pitch_bend_c, 5, 8192
6, 13559, Note_on_c, 5, 74, 95
6, 13559, Pitch_bend_c, 5, 9600
6, 13583, Pitch_bend_c, 5, 9344
6, 13587, Pitch_bend_c, 5, 8832
6, 13591, Pitch_bend_c, 5, 8448
6, 13595, Pitch_bend_c, 5, 8320
6, 13599, Pitch_bend_c, 5, 8192
6, 13679, Note_off_c, 5, 74, 0
6, 13679, Pitch_bend_c, 5, 8192
6, 13919, Control_c, 5, 7, 98
6, 13949, Control_c, 5, 7, 92
6, 13979, Control_c, 5, 7, 86
6, 14009, Control_c, 5, 7, 80
6, 14039, Control_c, 5, 7, 73
6, 14069, Control_c, 5, 7, 67
6, 14099, Control_c, 5, 7, 61
6, 14129, Control_c, 5, 7, 55
6, 14159, Control_c, 5, 7, 49
6, 14189, Control_c, 5, 7, 43
6, 14219, Control_c, 5, 7, 37
6, 14249, Control_c, 5, 7, 31
6, 14279, Control_c, 5, 7, 24
6, 14309, Control_c, 5, 7, 18
6, 14339, Control_c, 5, 7, 12
6, 14369, Control_c, 5, 7, 6
6, 14399, Control_c, 5, 7, 0
6, 14399, Control_c, 5, 7, 80
6, 14819, Note_on_c, 5, 62, 95
6, 14819, Pitch_bend_c, 5, 8192
6, 14823, Pitch_bend_c, 5, 8448
6, 14827, Pitch_bend_c, 5, 9344
6, 14831, Pitch_bend_c, 5, 9600
6, 14843, Pitch_bend_c, 5, 8832
6, 14847, Pitch_bend_c, 5, 8320
6, 14851, Pitch_bend_c, 5, 8192
6, 14859, Note_off_c, 5, 62, 0
6, 14859, Pitch_bend_c, 5, 8192
6, 14879, Control_c, 5, 7, 75
6, 14879, Note_on_c, 5, 62, 95
6, 14879, Pitch_bend_c, 5, 8192
6, 14883, Pitch_bend_c, 5, 8320
6, 14887, Pitch_bend_c, 5, 8576
6, 14891, Pitch_bend_c, 5, 9088
6, 14895, Pitch_bend_c, 5, 9600
6, 14909, Control_c, 5, 7, 71
6, 14923, Pitch_bend_c, 5, 9344
6, 14927, Pitch_bend_c, 5, 9088
6, 14931, Pitch_bend_c, 5, 8960
6, 14935, Pitch_bend_c, 5, 8832
6, 14939, Control_c, 5, 7, 66
6, 14939, Pitch_bend_c, 5, 8960
6, 14947, Pitch_bend_c, 5, 9088
6, 14951, Pitch_bend_c, 5, 9216
6, 14955, Pitch_bend_c, 5, 9472
6, 14959, Pitch_bend_c, 5, 9344
6, 14960, Pitch_bend_c, 5, 9344
6, 14961, Pitch_bend_c, 5, 9344
6, 14962, Pitch_bend_c, 5, 9344
6, 14963, Pitch_bend_c, 5, 9344
6, 14964, Pitch_bend_c, 5, 9344
6, 14965, Pitch_bend_c, 5, 9344
6, 14966, Pitch_bend_c, 5, 9472
6, 14967, Pitch_bend_c, 5, 9472
6, 14968, Pitch_bend_c, 5, 9472
6, 14969, Control_c, 5, 7, 61
6, 14969, Pitch_bend_c, 5, 9600
6, 14970, Pitch_bend_c, 5, 9600
6, 14971, Pitch_bend_c, 5, 9600
6, 14972, Pitch_bend_c, 5, 9600
6, 14973, Pitch_bend_c, 5, 9728
6, 14974, Pitch_bend_c, 5, 9728
6, 14975, Pitch_bend_c, 5, 9728
6, 14976, Pitch_bend_c, 5, 9728
6, 14977, Pitch_bend_c, 5, 9728
6, 14978, Pitch_bend_c, 5, 9728
6, 14979, Pitch_bend_c, 5, 9728
6, 14980, Pitch_bend_c, 5, 9600
6, 14981, Pitch_bend_c, 5, 9600
6, 14982, Pitch_bend_c, 5, 9600
6, 14983, Pitch_bend_c, 5, 9600
6, 14984, Pitch_bend_c, 5, 9472
6, 14985, Pitch_bend_c, 5, 9472
6, 14986, Pitch_bend_c, 5, 9472
6, 14987, Pitch_bend_c, 5, 9472
6, 14988, Pitch_bend_c, 5, 9472
6, 14989, Pitch_bend_c, 5, 9472
6, 14990, Pitch_bend_c, 5, 9472
6, 14991, Pitch_bend_c, 5, 9344
6, 14992, Pitch_bend_c, 5, 9344
6, 14993, Pitch_bend_c, 5, 9344
6, 14994, Pitch_bend_c, 5, 9344
6, 14995, Pitch_bend_c, 5, 9472
6, 14996, Pitch_bend_c, 5, 9472
6, 14997, Pitch_bend_c, 5, 9472
6, 14998, Pitch_bend_c, 5, 9472
6, 14999, Control_c, 5, 7, 56
6, 14999, Pitch_bend_c, 5, 9600
6, 15000, Pitch_bend_c, 5, 9600
6, 15001, Pitch_bend_c, 5, 9600
6, 15002, Pitch_bend_c, 5, 9728
6, 15003, Pitch_bend_c, 5, 9728
6, 15004, Pitch_bend_c, 5, 9728
6, 15005, Pitch_bend_c, 5, 9728
6, 15006, Pitch_bend_c, 5, 9728
6, 15007, Pitch_bend_c, 5, 9728
6, 15008, Pitch_bend_c, 5, 9728
6, 15009, Pitch_bend_c, 5, 9728
6, 15010, Pitch_bend_c, 5, 9728
6, 15011, Pitch_bend_c, 5, 9600
6, 15012, Pitch_bend_c, 5, 9600
6, 15013, Pitch_bend_c, 5, 9600
6, 15014, Pitch_bend_c, 5, 9600
6, 15015, Pitch_bend_c, 5, 9472
6, 15016, Pitch_bend_c, 5, 9472
6, 15017, Pitch_bend_c, 5, 9472
6, 15018, Pitch_bend_c, 5, 9472
6, 15019, Pitch_bend_c, 5, 9472
6, 15020, Pitch_bend_c, 5, 9472
6, 15021, Pitch_bend_c, 5, 9472
6, 15022, Pitch_bend_c, 5, 9472
6, 15023, Pitch_bend_c, 5, 9344
6, 15024, Pitch_bend_c, 5, 9472
6, 15025, Pitch_bend_c, 5, 9472
6, 15026, Pitch_bend_c, 5, 9472
6, 15027, Pitch_bend_c, 5, 9472
6, 15028, Pitch_bend_c, 5, 9472
6, 15029, Pitch_bend_c, 5, 9600
6, 15029, Control_c, 5, 7, 52
6, 15030, Pitch_bend_c, 5, 9600
6, 15031, Pitch_bend_c, 5, 9600
6, 15032, Pitch_bend_c, 5, 9728
6, 15033, Pitch_bend_c, 5, 9728
6, 15034, Pitch_bend_c, 5, 9728
6, 15035, Pitch_bend_c, 5, 9728
6, 15036, Pitch_bend_c, 5, 9728
6, 15037, Pitch_bend_c, 5, 9728
6, 15038, Pitch_bend_c, 5, 9728
6, 15039, Pitch_bend_c, 5, 9600
6, 15040, Pitch_bend_c, 5, 9600
6, 15041, Pitch_bend_c, 5, 9600
6, 15042, Pitch_bend_c, 5, 9600
6, 15043, Pitch_bend_c, 5, 9600
6, 15044, Pitch_bend_c, 5, 9600
6, 15045, Pitch_bend_c, 5, 9472
6, 15046, Pitch_bend_c, 5, 9472
6, 15047, Pitch_bend_c, 5, 9472
6, 15048, Pitch_bend_c, 5, 9344
6, 15049, Pitch_bend_c, 5, 9344
6, 15050, Pitch_bend_c, 5, 9344
6, 15051, Pitch_bend_c, 5, 9344
6, 15052, Pitch_bend_c, 5, 9344
6, 15053, Pitch_bend_c, 5, 9344
6, 15054, Pitch_bend_c, 5, 9344
6, 15055, Pitch_bend_c, 5, 9472
6, 15056, Pitch_bend_c, 5, 9472
6, 15057, Pitch_bend_c, 5, 9472
6, 15058, Pitch_bend_c, 5, 9472
6, 15059, Pitch_bend_c, 5, 9600
6, 15059, Control_c, 5, 7, 47
6, 15060, Pitch_bend_c, 5, 9600
6, 15061, Pitch_bend_c, 5, 9600
6, 15062, Pitch_bend_c, 5, 9600
6, 15063, Pitch_bend_c, 5, 9728
6, 15064, Pitch_bend_c, 5, 9728
6, 15065, Pitch_bend_c, 5, 9728
6, 15066, Pitch_bend_c, 5, 9728
6, 15067, Pitch_bend_c, 5, 9728
6, 15068, Pitch_bend_c, 5, 9728
6, 15069, Pitch_bend_c, 5, 9728
6, 15070, Pitch_bend_c, 5, 9728
6, 15071, Pitch_bend_c, 5, 9600
6, 15072, Pitch_bend_c, 5, 9600
6, 15073, Pitch_bend_c, 5, 9600
6, 15074, Pitch_bend_c, 5, 9472
6, 15075, Pitch_bend_c, 5, 9472
6, 15076, Pitch_bend_c, 5, 9472
6, 15077, Pitch_bend_c, 5, 9472
6, 15078, Pitch_bend_c, 5, 9344
6, 15079, Pitch_bend_c, 5, 9344
6, 15080, Pitch_bend_c, 5, 9344
6, 15081, Pitch_bend_c, 5, 9344
6, 15082, Pitch_bend_c, 5, 9344
6, 15083, Pitch_bend_c, 5, 9344
6, 15084, Pitch_bend_c, 5, 9472
6, 15085, Pitch_bend_c, 5, 9472
6, 15086, Pitch_bend_c, 5, 9472
6, 15087, Pitch_bend_c, 5, 9472
6, 15088, Pitch_bend_c, 5, 9472
6, 15089, Control_c, 5, 7, 42
6, 15089, Pitch_bend_c, 5, 9600
6, 15090, Pitch_bend_c, 5, 9600
6, 15091, Pitch_bend_c, 5, 9600
6, 15092, Pitch_bend_c, 5, 9728
6, 15093, Pitch_bend_c, 5, 9728
6, 15094, Pitch_bend_c, 5, 9728
6, 15095, Pitch_bend_c, 5, 9728
6, 15096, Pitch_bend_c, 5, 9728
6, 15097, Pitch_bend_c, 5, 9728
6, 15098, Pitch_bend_c, 5, 9728
6, 15099, Pitch_bend_c, 5, 9728
6, 15100, Pitch_bend_c, 5, 9728
6, 15101, Pitch_bend_c, 5, 9728
6, 15102, Pitch_bend_c, 5, 9600
6, 15103, Pitch_bend_c, 5, 9600
6, 15104, Pitch_bend_c, 5, 9472
6, 15105, Pitch_bend_c, 5, 9472
6, 15106, Pitch_bend_c, 5, 9472
6, 15107, Pitch_bend_c, 5, 9472
6, 15108, Pitch_bend_c, 5, 9472
6, 15109, Pitch_bend_c, 5, 9344
6, 15110, Pitch_bend_c, 5, 9344
6, 15111, Pitch_bend_c, 5, 9344
6, 15112, Pitch_bend_c, 5, 9344
6, 15113, Pitch_bend_c, 5, 9344
6, 15114, Pitch_bend_c, 5, 9472
6, 15115, Pitch_bend_c, 5, 9472
6, 15116, Pitch_bend_c, 5, 9472
6, 15117, Pitch_bend_c, 5, 9472
6, 15118, Pitch_bend_c, 5, 9472
6, 15119, Control_c, 5, 7, 38
6, 15119, Pitch_bend_c, 5, 9600
6, 15120, Pitch_bend_c, 5, 9600
6, 15121, Pitch_bend_c, 5, 9600
6, 15122, Pitch_bend_c, 5, 9600
6, 15123, Pitch_bend_c, 5, 9728
6, 15124, Pitch_bend_c, 5, 9728
6, 15125, Pitch_bend_c, 5, 9728
6, 15126, Pitch_bend_c, 5, 9728
6, 15127, Pitch_bend_c, 5, 9728
6, 15128, Pitch_bend_c, 5, 9728
6, 15129, Pitch_bend_c, 5, 9728
6, 15130, Pitch_bend_c, 5, 9728
6, 15131, Pitch_bend_c, 5, 9728
6, 15132, Pitch_bend_c, 5, 9600
6, 15133, Pitch_bend_c, 5, 9600
6, 15134, Pitch_bend_c, 5, 9600
6, 15135, Pitch_bend_c, 5, 9472
6, 15136, Pitch_bend_c, 5, 9472
6, 15137, Pitch_bend_c, 5, 9472
6, 15138, Pitch_bend_c, 5, 9472
6, 15139, Pitch_bend_c, 5, 9472
6, 15140, Pitch_bend_c, 5, 9344
6, 15141, Pitch_bend_c, 5, 9344
6, 15142, Pitch_bend_c, 5, 9344
6, 15143, Pitch_bend_c, 5, 9472
6, 15144, Pitch_bend_c, 5, 9472
6, 15145, Pitch_bend_c, 5, 9472
6, 15146, Pitch_bend_c, 5, 9472
6, 15147, Pitch_bend_c, 5, 9472
6, 15148, Pitch_bend_c, 5, 9600
6, 15149, Pitch_bend_c, 5, 9600
6, 15149, Control_c, 5, 7, 33
6, 15150, Pitch_bend_c, 5, 9600
6, 15151, Pitch_bend_c, 5, 9600
6, 15152, Pitch_bend_c, 5, 9728
6, 15153, Pitch_bend_c, 5, 9728
6, 15154, Pitch_bend_c, 5, 9728
6, 15155, Pitch_bend_c, 5, 9728
6, 15156, Pitch_bend_c, 5, 9728
6, 15157, Pitch_bend_c, 5, 9728
6, 15158, Pitch_bend_c, 5, 9728
6, 15159, Pitch_bend_c, 5, 9600
6, 15160, Pitch_bend_c, 5, 9600
6, 15161, Pitch_bend_c, 5, 9600
6, 15162, Pitch_bend_c, 5, 9600
6, 15163, Pitch_bend_c, 5, 9600
6, 15164, Pitch_bend_c, 5, 9600
6, 15165, Pitch_bend_c, 5, 9600
6, 15166, Pitch_bend_c, 5, 9472
6, 15167, Pitch_bend_c, 5, 9472
6, 15168, Pitch_bend_c, 5, 9472
6, 15169, Pitch_bend_c, 5, 9472
6, 15170, Pitch_bend_c, 5, 9344
6, 15171, Pitch_bend_c, 5, 9344
6, 15172, Pitch_bend_c, 5, 9344
6, 15173, Pitch_bend_c, 5, 9472
6, 15174, Pitch_bend_c, 5, 9472
6, 15175, Pitch_bend_c, 5, 9472
6, 15176, Pitch_bend_c, 5, 9472
6, 15177, Pitch_bend_c, 5, 9472
6, 15178, Pitch_bend_c, 5, 9600
6, 15179, Pitch_bend_c, 5, 9600
6, 15179, Control_c, 5, 7, 28
6, 15180, Pitch_bend_c, 5, 9600
6, 15181, Pitch_bend_c, 5, 9600
6, 15182, Pitch_bend_c, 5, 9600
6, 15183, Pitch_bend_c, 5, 9728
6, 15184, Pitch_bend_c, 5, 9728
6, 15185, Pitch_bend_c, 5, 9728
6, 15186, Pitch_bend_c, 5, 9728
6, 15187, Pitch_bend_c, 5, 9728
6, 15188, Pitch_bend_c, 5, 9728
6, 15189, Pitch_bend_c, 5, 9728
6, 15190, Pitch_bend_c, 5, 9728
6, 15191, Pitch_bend_c, 5, 9600
6, 15192, Pitch_bend_c, 5, 9600
6, 15193, Pitch_bend_c, 5, 9600
6, 15194, Pitch_bend_c, 5, 9600
6, 15195, Pitch_bend_c, 5, 9472
6, 15196, Pitch_bend_c, 5, 9472
6, 15197, Pitch_bend_c, 5, 9472
6, 15198, Pitch_bend_c, 5, 9472
6, 15199, Pitch_bend_c, 5, 9344
6, 15200, Pitch_bend_c, 5, 9344
6, 15201, Pitch_bend_c, 5, 9344
6, 15202, Pitch_bend_c, 5, 9344
6, 15203, Pitch_bend_c, 5, 9344
6, 15204, Pitch_bend_c, 5, 9472
6, 15205, Pitch_bend_c, 5, 9472
6, 15206, Pitch_bend_c, 5, 9472
6, 15207, Pitch_bend_c, 5, 9472
6, 15208, Pitch_bend_c, 5, 9600
6, 15209, Control_c, 5, 7, 24
6, 15209, Pitch_bend_c, 5, 9600
6, 15210, Pitch_bend_c, 5, 9600
6, 15211, Pitch_bend_c, 5, 9600
6, 15212, Pitch_bend_c, 5, 9600
6, 15213, Pitch_bend_c, 5, 9728
6, 15214, Pitch_bend_c, 5, 9728
6, 15215, Pitch_bend_c, 5, 9728
6, 15216, Pitch_bend_c, 5, 9728
6, 15217, Pitch_bend_c, 5, 9728
6, 15218, Pitch_bend_c, 5, 9728
6, 15219, Pitch_bend_c, 5, 9728
6, 15220, Pitch_bend_c, 5, 9728
6, 15221, Pitch_bend_c, 5, 9728
6, 15222, Pitch_bend_c, 5, 9600
6, 15223, Pitch_bend_c, 5, 9600
6, 15224, Pitch_bend_c, 5, 9600
6, 15225, Pitch_bend_c, 5, 9472
6, 15226, Pitch_bend_c, 5, 9472
6, 15227, Pitch_bend_c, 5, 9472
6, 15228, Pitch_bend_c, 5, 9472
6, 15229, Pitch_bend_c, 5, 9472
6, 15230, Pitch_bend_c, 5, 9472
6, 15231, Pitch_bend_c, 5, 9344
6, 15232, Pitch_bend_c, 5, 9344
6, 15233, Pitch_bend_c, 5, 9344
6, 15234, Pitch_bend_c, 5, 9472
6, 15235, Pitch_bend_c, 5, 9472
6, 15236, Pitch_bend_c, 5, 9472
6, 15237, Pitch_bend_c, 5, 9472
6, 15238, Pitch_bend_c, 5, 9472
6, 15239, Control_c, 5, 7, 19
6, 15239, Pitch_bend_c, 5, 9600
6, 15240, Pitch_bend_c, 5, 9600
6, 15241, Pitch_bend_c, 5, 9728
6, 15242, Pitch_bend_c, 5, 9728
6, 15243, Pitch_bend_c, 5, 9728
6, 15244, Pitch_bend_c, 5, 9728
6, 15245, Pitch_bend_c, 5, 9728
6, 15246, Pitch_bend_c, 5, 9728
6, 15247, Pitch_bend_c, 5, 9728
6, 15248, Pitch_bend_c, 5, 9728
6, 15249, Pitch_bend_c, 5, 9728
6, 15250, Pitch_bend_c, 5, 9728
6, 15251, Pitch_bend_c, 5, 9600
6, 15252, Pitch_bend_c, 5, 9600
6, 15253, Pitch_bend_c, 5, 9600
6, 15254, Pitch_bend_c, 5, 9600
6, 15255, Pitch_bend_c, 5, 9472
6, 15256, Pitch_bend_c, 5, 9472
6, 15257, Pitch_bend_c, 5, 9472
6, 15258, Pitch_bend_c, 5, 9472
6, 15259, Pitch_bend_c, 5, 9472
6, 15260, Pitch_bend_c, 5, 9472
6, 15261, Pitch_bend_c, 5, 9472
6, 15262, Pitch_bend_c, 5, 9472
6, 15263, Pitch_bend_c, 5, 9344
6, 15264, Pitch_bend_c, 5, 9472
6, 15265, Pitch_bend_c, 5, 9472
6, 15266, Pitch_bend_c, 5, 9472
6, 15267, Pitch_bend_c, 5, 9472
6, 15268, Pitch_bend_c, 5, 9600
6, 15269, Pitch_bend_c, 5, 9600
6, 15269, Control_c, 5, 7, 14
6, 15270, Pitch_bend_c, 5, 9600
6, 15271, Pitch_bend_c, 5, 9728
6, 15272, Pitch_bend_c, 5, 9728
6, 15273, Pitch_bend_c, 5, 9728
6, 15274, Pitch_bend_c, 5, 9728
6, 15275, Pitch_bend_c, 5, 9728
6, 15276, Pitch_bend_c, 5, 9728
6, 15277, Pitch_bend_c, 5, 9728
6, 15278, Pitch_bend_c, 5, 9728
6, 15279, Pitch_bend_c, 5, 9728
6, 15280, Pitch_bend_c, 5, 9600
6, 15281, Pitch_bend_c, 5, 9600
6, 15282, Pitch_bend_c, 5, 9600
6, 15283, Pitch_bend_c, 5, 9600
6, 15284, Pitch_bend_c, 5, 9600
6, 15285, Pitch_bend_c, 5, 9600
6, 15286, Pitch_bend_c, 5, 9472
6, 15287, Pitch_bend_c, 5, 9472
6, 15288, Pitch_bend_c, 5, 9472
6, 15289, Pitch_bend_c, 5, 9344
6, 15290, Pitch_bend_c, 5, 9344
6, 15291, Pitch_bend_c, 5, 9344
6, 15292, Pitch_bend_c, 5, 9344
6, 15293, Pitch_bend_c, 5, 9344
6, 15294, Pitch_bend_c, 5, 9344
6, 15295, Pitch_bend_c, 5, 9472
6, 15296, Pitch_bend_c, 5, 9472
6, 15297, Pitch_bend_c, 5, 9472
6, 15298, Pitch_bend_c, 5, 9600
6, 15299, Pitch_bend_c, 5, 9600
6, 15299, Control_c, 5, 7, 9
6, 15300, Pitch_bend_c, 5, 9600
6, 15301, Pitch_bend_c, 5, 9600
6, 15302, Pitch_bend_c, 5, 9728
6, 15303, Pitch_bend_c, 5, 9728
6, 15304, Pitch_bend_c, 5, 9728
6, 15305, Pitch_bend_c, 5, 9728
6, 15306, Pitch_bend_c, 5, 9728
6, 15307, Pitch_bend_c, 5, 9728
6, 15308, Pitch_bend_c, 5, 9728
6, 15309, Pitch_bend_c, 5, 9728
6, 15310, Pitch_bend_c, 5, 9728
6, 15311, Pitch_bend_c, 5, 9600
6, 15312, Pitch_bend_c, 5, 9600
6, 15313, Pitch_bend_c, 5, 9600
6, 15314, Pitch_bend_c, 5, 9600
6, 15315, Pitch_bend_c, 5, 9600
6, 15316, Pitch_bend_c, 5, 9472
6, 15317, Pitch_bend_c, 5, 9472
6, 15318, Pitch_bend_c, 5, 9472
6, 15319, Pitch_bend_c, 5, 9472
6, 15320, Pitch_bend_c, 5, 9472
6, 15321, Pitch_bend_c, 5, 9472
6, 15322, Pitch_bend_c, 5, 9472
6, 15323, Pitch_bend_c, 5, 9472
6, 15324, Pitch_bend_c, 5, 9472
6, 15325, Pitch_bend_c, 5, 9472
6, 15326, Pitch_bend_c, 5, 9472
6, 15327, Pitch_bend_c, 5, 9472
6, 15328, Pitch_bend_c, 5, 9600
6, 15329, Control_c, 5, 7, 5
6, 15329, Pitch_bend_c, 5, 9600
6, 15330, Pitch_bend_c, 5, 9600
6, 15331, Pitch_bend_c, 5, 9600
6, 15332, Pitch_bend_c, 5, 9600
6, 15333, Pitch_bend_c, 5, 9600
6, 15334, Pitch_bend_c, 5, 9600
6, 15335, Pitch_bend_c, 5, 9728
6, 15336, Pitch_bend_c, 5, 9728
6, 15337, Pitch_bend_c, 5, 9728
6, 15338, Pitch_bend_c, 5, 9728
6, 15339, Pitch_bend_c, 5, 9728
6, 15340, Pitch_bend_c, 5, 9728
6, 15341, Pitch_bend_c, 5, 9600
6, 15342, Pitch_bend_c, 5, 9600
6, 15343, Pitch_bend_c, 5, 9600
6, 15344, Pitch_bend_c, 5, 9600
6, 15345, Pitch_bend_c, 5, 9472
6, 15346, Pitch_bend_c, 5, 9472
6, 15347, Pitch_bend_c, 5, 9472
6, 15348, Pitch_bend_c, 5, 9472
6, 15349, Pitch_bend_c, 5, 9344
6, 15350, Pitch_bend_c, 5, 9344
6, 15351, Pitch_bend_c, 5, 9344
6, 15352, Pitch_bend_c, 5, 9344
6, 15353, Pitch_bend_c, 5, 9472
6, 15354, Pitch_bend_c, 5, 9472
6, 15355, Pitch_bend_c, 5, 9472
6, 15356, Pitch_bend_c, 5, 9472
6, 15357, Pitch_bend_c, 5, 9472
6, 15358, Pitch_bend_c, 5, 9472
6, 15359, Note_off_c, 5, 62, 0
6, 15359, Control_c, 5, 7, 0
6, 15359, Pitch_bend_c, 5, 9600
6, 15359, Pitch_bend_c, 5, 8192
6, 15359, Control_c, 5, 7, 80
6, 15779, Note_on_c, 5, 62, 95
6, 15779, Pitch_bend_c, 5, 8192
6, 15783, Pitch_bend_c, 5, 8448
6, 15787, Pitch_bend_c, 5, 9344
6, 15791, Pitch_bend_c, 5, 9600
6, 15803, Pitch_bend_c, 5, 8832
6, 15807, Pitch_bend_c, 5, 8320
6, 15811, Pitch_bend_c, 5, 8192
6, 15819, Note_off_c, 5, 62, 0
6, 15819, Pitch_bend_c, 5, 8192
6, 15839, Control_c, 5, 7, 75
6, 15869, Control_c, 5, 7, 71
6, 15899, Control_c, 5, 7, 66
6, 15929, Control_c, 5, 7, 61
6, 15959, Control_c, 5, 7, 56
6, 15989, Control_c, 5, 7, 52
6, 16019, Control_c, 5, 7, 47
6, 16049, Control_c, 5, 7, 42
6, 16079, Control_c, 5, 7, 38
6, 16109, Control_c, 5, 7, 33
6, 16139, Control_c, 5, 7, 28
6, 16169, Control_c, 5, 7, 24
6, 16199, Control_c, 5, 7, 19
6, 16229, Control_c, 5, 7, 14
6, 16259, Control_c, 5, 7, 9
6, 16289, Control_c, 5, 7, 5
6, 16319, Control_c, 5, 7, 0
6, 16319, Control_c, 5, 7, 80
6, 16784, Note_on_c, 5, 63, 95
6, 16784, Pitch_bend_c, 5, 6784
6, 16784, Note_on_c, 5, 54, 95
6, 16784, Pitch_bend_c, 5, 6784
6, 16792, Pitch_bend_c, 5, 7552
6, 16792, Pitch_bend_c, 5, 7552
6, 16799, Control_c, 5, 7, 75
6, 16799, Pitch_bend_c, 5, 8192
6, 16799, Pitch_bend_c, 5, 8192
6, 16829, Control_c, 5, 7, 71
6, 16859, Control_c, 5, 7, 66
6, 16889, Control_c, 5, 7, 61
6, 16919, Control_c, 5, 7, 56
6, 16949, Control_c, 5, 7, 52
6, 16979, Control_c, 5, 7, 47
6, 17009, Control_c, 5, 7, 42
6, 17039, Control_c, 5, 7, 38
6, 17069, Control_c, 5, 7, 33
6, 17099, Control_c, 5, 7, 28
6, 17129, Control_c, 5, 7, 24
6, 17159, Control_c, 5, 7, 19
6, 17189, Control_c, 5, 7, 14
6, 17219, Control_c, 5, 7, 9
6, 17249, Control_c, 5, 7, 5
6, 17279, Note_off_c, 5, 63, 0
6, 17279, Note_off_c, 5, 54, 0
6, 17279, Control_c, 5, 7, 0
6, 17279, Control_c, 5, 7, 80
6, 17579, Control_c, 5, 7, 88
6, 21584, Note_on_c, 5, 50, 95
6, 21584, Pitch_bend_c, 5, 6784
6, 21592, Pitch_bend_c, 5, 7552
6, 21599, Control_c, 5, 7, 104
6, 21599, Pitch_bend_c, 5, 8192
6, 21599, Pitch_bend_c, 5, 8192
6, 21600, Pitch_bend_c, 5, 8192
6, 21601, Pitch_bend_c, 5, 8192
6, 21602, Pitch_bend_c, 5, 8192
6, 21603, Pitch_bend_c, 5, 8192
6, 21604, Pitch_bend_c, 5, 8192
6, 21605, Pitch_bend_c, 5, 8192
6, 21606, Pitch_bend_c, 5, 8192
6, 21607, Pitch_bend_c, 5, 8192
6, 21608, Pitch_bend_c, 5, 8192
6, 21609, Pitch_bend_c, 5, 8192
6, 21609, Pitch_bend_c, 5, 8192
6, 21610, Pitch_bend_c, 5, 8192
6, 21611, Pitch_bend_c, 5, 8192
6, 21612, Pitch_bend_c, 5, 8192
6, 21613, Pitch_bend_c, 5, 8192
6, 21614, Pitch_bend_c, 5, 8192
6, 21615, Pitch_bend_c, 5, 8192
6, 21616, Pitch_bend_c, 5, 8192
6, 21617, Pitch_bend_c, 5, 8192
6, 21618, Pitch_bend_c, 5, 8192
6, 21619, Pitch_bend_c, 5, 8192
6, 21620, Pitch_bend_c, 5, 8192
6, 21621, Pitch_bend_c, 5, 8192
6, 21622, Pitch_bend_c, 5, 8192
6, 21623, Pitch_bend_c, 5, 8192
6, 21624, Pitch_bend_c, 5, 8192
6, 21624, Pitch_bend_c, 5, 8192
6, 21625, Pitch_bend_c, 5, 8192
6, 21626, Pitch_bend_c, 5, 8192
6, 21627, Pitch_bend_c, 5, 8192
6, 21628, Pitch_bend_c, 5, 8192
6, 21629, Pitch_bend_c, 5, 8192
6, 21630, Pitch_bend_c, 5, 8192
6, 21631, Pitch_bend_c, 5, 8192
6, 21632, Pitch_bend_c, 5, 8192
6, 21633, Pitch_bend_c, 5, 8192
6, 21634, Pitch_bend_c, 5, 8192
6, 21635, Pitch_bend_c, 5, 8192
6, 21636, Pitch_bend_c, 5, 8192
6, 21637, Pitch_bend_c, 5, 8192
6, 21638, Pitch_bend_c, 5, 8192
6, 21639, Pitch_bend_c, 5, 8192
6, 21639, Pitch_bend_c, 5, 8192
6, 21640, Pitch_bend_c, 5, 8192
6, 21641, Pitch_bend_c, 5, 8192
6, 21642, Pitch_bend_c, 5, 8192
6, 21643, Pitch_bend_c, 5, 8192
6, 21644, Pitch_bend_c, 5, 8192
6, 21645, Pitch_bend_c, 5, 8192
6, 21646, Pitch_bend_c, 5, 8192
6, 21647, Pitch_bend_c, 5, 8192
6, 21648, Pitch_bend_c, 5, 8192
6, 21649, Pitch_bend_c, 5, 8192
6, 21650, Pitch_bend_c, 5, 8192
6, 21651, Pitch_bend_c, 5, 8192
6, 21652, Pitch_bend_c, 5, 8192
6, 21653, Pitch_bend_c, 5, 8192
6, 21654, Pitch_bend_c, 5, 8192
6, 21654, Pitch_bend_c, 5, 8192
6, 21655, Pitch_bend_c, 5, 8192
6, 21656, Pitch_bend_c, 5, 8192
6, 21657, Pitch_bend_c, 5, 8192
6, 21658, Pitch_bend_c, 5, 8192
6, 21659, Pitch_bend_c, 5, 8192
6, 21660, Pitch_bend_c, 5, 8192
6, 21661, Pitch_bend_c, 5, 8320
6, 21662, Pitch_bend_c, 5, 8320
6, 21663, Pitch_bend_c, 5, 8320
6, 21664, Pitch_bend_c, 5, 8320
6, 21665, Pitch_bend_c, 5, 8320
6, 21666, Pitch_bend_c, 5, 8320
6, 21667, Pitch_bend_c, 5, 8320
6, 21668, Pitch_bend_c, 5, 8320
6, 21669, Pitch_bend_c, 5, 8320
6, 21669, Pitch_bend_c, 5, 8320
6, 21670, Pitch_bend_c, 5, 8320
6, 21671, Pitch_bend_c, 5, 8320
6, 21672, Pitch_bend_c, 5, 8320
6, 21673, Pitch_bend_c, 5, 8192
6, 21674, Pitch_bend_c, 5, 8192
6, 21675, Pitch_bend_c, 5, 8192
6, 21676, Pitch_bend_c, 5, 8064
6, 21677, Pitch_bend_c, 5, 8064
6, 21678, Pitch_bend_c, 5, 8064
6, 21679, Pitch_bend_c, 5, 8064
6, 21680, Pitch_bend_c, 5, 8064
6, 21681, Pitch_bend_c, 5, 8064
6, 21682, Pitch_bend_c, 5, 8064
6, 21683, Pitch_bend_c, 5, 8064
6, 21684, Pitch_bend_c, 5, 8064
6, 21684, Pitch_bend_c, 5, 8064
6, 21685, Pitch_bend_c, 5, 8064
6, 21686, Pitch_bend_c, 5, 8064
6, 21687, Pitch_bend_c, 5, 8064
6, 21688, Pitch_bend_c, 5, 8192
6, 21689, Pitch_bend_c, 5, 8192
6, 21690, Pitch_bend_c, 5, 8192
6, 21691, Pitch_bend_c, 5, 8320
6, 21692, Pitch_bend_c, 5, 8320
6, 21693, Pitch_bend_c, 5, 8448
6, 21694, Pitch_bend_c, 5, 8448
6, 21695, Pitch_bend_c, 5, 8448
6, 21696, Pitch_bend_c, 5, 8448
6, 21697, Pitch_bend_c, 5, 8448
6, 21698, Pitch_bend_c, 5, 8448
6, 21699, Pitch_bend_c, 5, 8448
6, 21699, Pitch_bend_c, 5, 8448
6, 21700, Pitch_bend_c, 5, 8448
6, 21701, Pitch_bend_c, 5, 8320
6, 21702, Pitch_bend_c, 5, 8320
6, 21703, Pitch_bend_c, 5, 8192
6, 21704, Pitch_bend_c, 5, 8192
6, 21705, Pitch_bend_c, 5, 8192
6, 21706, Pitch_bend_c, 5, 8064
6, 21707, Pitch_bend_c, 5, 8064
6, 21708, Pitch_bend_c, 5, 7936
6, 21709, Pitch_bend_c, 5, 7936
6, 21710, Pitch_bend_c, 5, 7936
6, 21711, Pitch_bend_c, 5, 7936
6, 21712, Pitch_bend_c, 5, 7936
6, 21713, Pitch_bend_c, 5, 7936
6, 21714, Pitch_bend_c, 5, 7936
6, 21714, Pitch_bend_c, 5, 7936
6, 21715, Pitch_bend_c, 5, 7936
6, 21716, Pitch_bend_c, 5, 8064
6, 21717, Pitch_bend_c, 5, 8064
6, 21718, Pitch_bend_c, 5, 8192
6, 21719, Pitch_bend_c, 5, 8192
6, 21720, Pitch_bend_c, 5, 8192
6, 21721, Pitch_bend_c, 5, 8320
6, 21722, Pitch_bend_c, 5, 8320
6, 21723, Pitch_bend_c, 5, 8320
6, 21724, Pitch_bend_c, 5, 8320
6, 21725, Pitch_bend_c, 5, 8320
6, 21726, Pitch_bend_c, 5, 8448
6, 21727, Pitch_bend_c, 5, 8448
6, 21728, Pitch_bend_c, 5, 8448
6, 21729, Pitch_bend_c, 5, 8320
6, 21729, Pitch_bend_c, 5, 8320
6, 21730, Pitch_bend_c, 5, 8320
6, 21731, Pitch_bend_c, 5, 8320
6, 21732, Pitch_bend_c, 5, 8320
6, 21733, Pitch_bend_c, 5, 8192
6, 21734, Pitch_bend_c, 5, 8192
6, 21735, Pitch_bend_c, 5, 8192
6, 21736, Pitch_bend_c, 5, 8064
6, 21737, Pitch_bend_c, 5, 8064
6, 21738, Pitch_bend_c, 5, 8064
6, 21739, Pitch_bend_c, 5, 8064
6, 21740, Pitch_bend_c, 5, 8064
6, 21741, Pitch_bend_c, 5, 7936
6, 21742, Pitch_bend_c, 5, 7936
6, 21743, Pitch_bend_c, 5, 7936
6, 21744, Pitch_bend_c, 5, 8064
6, 21744, Pitch_bend_c, 5, 8064
6, 21745, Pitch_bend_c, 5, 8064
6, 21746, Pitch_bend_c, 5, 8064
6, 21747, Pitch_bend_c, 5, 8064
6, 21748, Pitch_bend_c, 5, 8192
6, 21749, Pitch_bend_c, 5, 8192
6, 21750, Pitch_bend_c, 5, 8192
6, 21751, Pitch_bend_c, 5, 8320
6, 21752, Pitch_bend_c, 5, 8320
6, 21753, Pitch_bend_c, 5, 8320
6, 21754, Pitch_bend_c, 5, 8320
6, 21755, Pitch_bend_c, 5, 8448
6, 21756, Pitch_bend_c, 5, 8448
6, 21757, Pitch_bend_c, 5, 8448
6, 21758, Pitch_bend_c, 5, 8448
6, 21759, Pitch_bend_c, 5, 8448
6, 21759, Pitch_bend_c, 5, 8320
6, 21760, Pitch_bend_c, 5, 8320
6, 21761, Pitch_bend_c, 5, 8320
6, 21762, Pitch_bend_c, 5, 8320
6, 21763, Pitch_bend_c, 5, 8192
6, 21764, Pitch_bend_c, 5, 8192
6, 21765, Pitch_bend_c, 5, 8192
6, 21766, Pitch_bend_c, 5, 8064
6, 21767, Pitch_bend_c, 5, 8064
6, 21768, Pitch_bend_c, 5, 8064
6, 21769, Pitch_bend_c, 5, 8064
6, 21770, Pitch_bend_c, 5, 7936
6, 21771, Pitch_bend_c, 5, 7936
6, 21772, Pitch_bend_c, 5, 7936
6, 21773, Pitch_bend_c, 5, 7936
6, 21774, Pitch_bend_c, 5, 7936
6, 21774, Pitch_bend_c, 5, 8064
6, 21775, Pitch_bend_c, 5, 8064
6, 21776, Pitch_bend_c, 5, 8064
6, 21777, Pitch_bend_c, 5, 8064
6, 21778, Pitch_bend_c, 5, 8192
6, 21779, Pitch_bend_c, 5, 8192
6, 21780, Pitch_bend_c, 5, 8192
6, 21781, Pitch_bend_c, 5, 8320
6, 21782, Pitch_bend_c, 5, 8320
6, 21783, Pitch_bend_c, 5, 8320
6, 21784, Pitch_bend_c, 5, 8448
6, 21785, Pitch_bend_c, 5, 8448
6, 21786, Pitch_bend_c, 5, 8448
6, 21787, Pitch_bend_c, 5, 8448
6, 21788, Pitch_bend_c, 5, 8448
6, 21789, Pitch_bend_c, 5, 8448
6, 21789, Pitch_bend_c, 5, 8448
6, 21790, Pitch_bend_c, 5, 8320
6, 21791, Pitch_bend_c, 5, 8320
6, 21792, Pitch_bend_c, 5, 8320
6, 21793, Pitch_bend_c, 5, 8192
6, 21794, Pitch_bend_c, 5, 8192
6, 21795, Pitch_bend_c, 5, 8192
6, 21796, Pitch_bend_c, 5, 8064
6, 21797, Pitch_bend_c, 5, 8064
6, 21798, Pitch_bend_c, 5, 8064
6, 21799, Pitch_bend_c, 5, 7936
6, 21800, Pitch_bend_c, 5, 7936
6, 21801, Pitch_bend_c, 5, 7936
6, 21802, Pitch_bend_c, 5, 7936
6, 21803, Pitch_bend_c, 5, 7936
6, 21804, Pitch_bend_c, 5, 7936
6, 21804, Pitch_bend_c, 5, 7936
6, 21805, Pitch_bend_c, 5, 8064
6, 21806, Pitch_bend_c, 5, 8064
6, 21807, Pitch_bend_c, 5, 8064
6, 21808, Pitch_bend_c, 5, 8192
6, 21809, Pitch_bend_c, 5, 8192
6, 21810, Pitch_bend_c, 5, 8192
6, 21811, Pitch_bend_c, 5, 8320
6, 21812, Pitch_bend_c, 5, 8320
6, 21813, Pitch_bend_c, 5, 8320
6, 21814, Pitch_bend_c, 5, 8320
6, 21815, Pitch_bend_c, 5, 8448
6, 21816, Pitch_bend_c, 5, 8448
6, 21817, Pitch_bend_c, 5, 8448
6, 21818, Pitch_bend_c, 5, 8448
6, 21819, Pitch_bend_c, 5, 8448
6, 21819, Pitch_bend_c, 5, 8320
6, 21820, Pitch_bend_c, 5, 8320
6, 21821, Pitch_bend_c, 5, 8320
6, 21822, Pitch_bend_c, 5, 8320
6, 21823, Pitch_bend_c, 5, 8192
6, 21824, Pitch_bend_c, 5, 8192
6, 21825, Pitch_bend_c, 5, 8192
6, 21826, Pitch_bend_c, 5, 8064
6, 21827, Pitch_bend_c, 5, 8064
6, 21828, Pitch_bend_c, 5, 8064
6, 21829, Pitch_bend_c, 5, 8064
6, 21830, Pitch_bend_c, 5, 7936
6, 21831, Pitch_bend_c, 5, 7936
6, 21832, Pitch_bend_c, 5, 7936
6, 21833, Pitch_bend_c, 5, 7936
6, 21834, Pitch_bend_c, 5, 7936
6, 21834, Pitch_bend_c, 5, 8064
6, 21835, Pitch_bend_c, 5, 8064
6, 21836, Pitch_bend_c, 5, 8064
6, 21837, Pitch_bend_c, 5, 8064
6, 21838, Pitch_bend_c, 5, 8192
6, 21839, Pitch_bend_c, 5, 8192
6, 21840, Pitch_bend_c, 5, 8192
6, 21841, Pitch_bend_c, 5, 8320
6, 21842, Pitch_bend_c, 5, 8320
6, 21843, Pitch_bend_c, 5, 8320
6, 21844, Pitch_bend_c, 5, 8320
6, 21845, Pitch_bend_c, 5, 8448
6, 21846, Pitch_bend_c, 5, 8448
6, 21847, Pitch_bend_c, 5, 8448
6, 21848, Pitch_bend_c, 5, 8448
6, 21849, Pitch_bend_c, 5, 8448
6, 21849, Pitch_bend_c, 5, 8320
6, 21850, Pitch_bend_c, 5, 8320
6, 21851, Pitch_bend_c, 5, 8320
6, 21852, Pitch_bend_c, 5, 8320
6, 21853, Pitch_bend_c, 5, 8192
6, 21854, Pitch_bend_c, 5, 8192
6, 21855, Pitch_bend_c, 5, 8192
6, 21856, Pitch_bend_c, 5, 8064
6, 21857, Pitch_bend_c, 5, 8064
6, 21858, Pitch_bend_c, 5, 8064
6, 21859, Pitch_bend_c, 5, 8064
6, 21860, Pitch_bend_c, 5, 7936
6, 21861, Pitch_bend_c, 5, 7936
6, 21862, Pitch_bend_c, 5, 7936
6, 21863, Pitch_bend_c, 5, 7936
6, 21864, Pitch_bend_c, 5, 7936
6, 21864, Pitch_bend_c, 5, 8064
6, 21865, Pitch_bend_c, 5, 8064
6, 21866, Pitch_bend_c, 5, 8064
6, 21867, Pitch_bend_c, 5, 8064
6, 21868, Pitch_bend_c, 5, 8192
6, 21869, Pitch_bend_c, 5, 8192
6, 21870, Pitch_bend_c, 5, 8192
6, 21871, Pitch_bend_c, 5, 8320
6, 21872, Pitch_bend_c, 5, 8320
6, 21873, Pitch_bend_c, 5, 8320
6, 21874, Pitch_bend_c, 5, 8320
6, 21875, Pitch_bend_c, 5, 8320
6, 21876, Pitch_bend_c, 5, 8320
6, 21877, Pitch_bend_c, 5, 8320
6, 21878, Pitch_bend_c, 5, 8320
6, 21879, Pitch_bend_c, 5, 8320
6, 21879, Pitch_bend_c, 5, 8320
6, 21880, Pitch_bend_c, 5, 8320
6, 21881, Pitch_bend_c, 5, 8320
6, 21882, Pitch_bend_c, 5, 8320
6, 21883, Pitch_bend_c, 5, 8192
6, 21884, Pitch_bend_c, 5, 8192
6, 21885, Pitch_bend_c, 5, 8192
6, 21886, Pitch_bend_c, 5, 8064
6, 21887, Pitch_bend_c, 5, 8064
6, 21888, Pitch_bend_c, 5, 8064
6, 21889, Pitch_bend_c, 5, 8064
6, 21890, Pitch_bend_c, 5, 8064
6, 21891, Pitch_bend_c, 5, 8064
6, 21892, Pitch_bend_c, 5, 8064
6, 21893, Pitch_bend_c, 5, 8064
6, 21894, Pitch_bend_c, 5, 8064
6, 21894, Pitch_bend_c, 5, 8064
6, 21895, Pitch_bend_c, 5, 8064
6, 21896, Pitch_bend_c, 5, 8064
6, 21897, Pitch_bend_c, 5, 8064
6, 21898, Pitch_bend_c, 5, 8192
6, 21899, Pitch_bend_c, 5, 8192
6, 21900, Pitch_bend_c, 5, 8192
6, 21901, Pitch_bend_c, 5, 8320
6, 21902, Pitch_bend_c, 5, 8320
6, 21903, Pitch_bend_c, 5, 8320
6, 21904, Pitch_bend_c, 5, 8448
6, 21905, Pitch_bend_c, 5, 8448
6, 21906, Pitch_bend_c, 5, 8448
6, 21907, Pitch_bend_c, 5, 8448
6, 21908, Pitch_bend_c, 5, 8448
6, 21909, Pitch_bend_c, 5, 8448
6, 21909, Pitch_bend_c, 5, 8448
6, 21910, Pitch_bend_c, 5, 8320
6, 21911, Pitch_bend_c, 5, 8320
6, 21912, Pitch_bend_c, 5, 8320
6, 21913, Pitch_bend_c, 5, 8192
6, 21914, Pitch_bend_c, 5, 8192
6, 21915, Pitch_bend_c, 5, 8192
6, 21916, Pitch_bend_c, 5, 8064
6, 21917, Pitch_bend_c, 5, 8064
6, 21918, Pitch_bend_c, 5, 8064
6, 21919, Pitch_bend_c, 5, 7936
6, 21920, Pitch_bend_c, 5, 7936
6, 21921, Pitch_bend_c, 5, 7936
6, 21922, Pitch_bend_c, 5, 7936
6, 21923, Pitch_bend_c, 5, 7936
6, 21924, Pitch_bend_c, 5, 7936
6, 21924, Pitch_bend_c, 5, 7936
6, 21925, Pitch_bend_c, 5, 8064
6, 21926, Pitch_bend_c, 5, 8064
6, 21927, Pitch_bend_c, 5, 8064
6, 21928, Pitch_bend_c, 5, 8192
6, 21929, Pitch_bend_c, 5, 8192
6, 21930, Pitch_bend_c, 5, 8192
6, 21931, Pitch_bend_c, 5, 8320
6, 21932, Pitch_bend_c, 5, 8320
6, 21933, Pitch_bend_c, 5, 8448
6, 21934, Pitch_bend_c, 5, 8448
6, 21935, Pitch_bend_c, 5, 8448
6, 21936, Pitch_bend_c, 5, 8448
6, 21937, Pitch_bend_c, 5, 8448
6, 21938, Pitch_bend_c, 5, 8448
6, 21939, Pitch_bend_c, 5, 8448
6, 21939, Pitch_bend_c, 5, 8448
6, 21940, Pitch_bend_c, 5, 8448
6, 21941, Pitch_bend_c, 5, 8320
6, 21942, Pitch_bend_c, 5, 8320
6, 21943, Pitch_bend_c, 5, 8192
6, 21944, Pitch_bend_c, 5, 8192
6, 21945, Pitch_bend_c, 5, 8192
6, 21946, Pitch_bend_c, 5, 8064
6, 21947, Pitch_bend_c, 5, 8064
6, 21948, Pitch_bend_c, 5, 7936
6, 21949, Pitch_bend_c, 5, 7936
6, 21950, Pitch_bend_c, 5, 7936
6, 21951, Pitch_bend_c, 5, 7936
6, 21952, Pitch_bend_c, 5, 7936
6, 21953, Pitch_bend_c, 5, 7936
6, 21954, Pitch_bend_c, 5, 7936
6, 21954, Pitch_bend_c, 5, 7936
6, 21955, Pitch_bend_c, 5, 7936
6, 21956, Pitch_bend_c, 5, 8064
6, 21957, Pitch_bend_c, 5, 8064
6, 21958, Pitch_bend_c, 5, 8192
6, 21959, Pitch_bend_c, 5, 8192
6, 21960, Pitch_bend_c, 5, 8192
6, 21961, Pitch_bend_c, 5, 8320
6, 21962, Pitch_bend_c, 5, 8320
6, 21963, Pitch_bend_c, 5, 8320
6, 21964, Pitch_bend_c, 5, 8320
6, 21965, Pitch_bend_c, 5, 8320
6, 21966, Pitch_bend_c, 5, 8448
6, 21967, Pitch_bend_c, 5, 8448
6, 21968, Pitch_bend_c, 5, 8448
6, 21969, Pitch_bend_c, 5, 8320
6, 21969, Pitch_bend_c, 5, 8320
6, 21970, Pitch_bend_c, 5, 8320
6, 21971, Pitch_bend_c, 5, 8320
6, 21972, Pitch_bend_c, 5, 8320
6, 21973, Pitch_bend_c, 5, 8192
6, 21974, Pitch_bend_c, 5, 8192
6, 21975, Pitch_bend_c, 5, 8192
6, 21976, Pitch_bend_c, 5, 8064
6, 21977, Pitch_bend_c, 5, 8064
6, 21978, Pitch_bend_c, 5, 8064
6, 21979, Pitch_bend_c, 5, 8064
6, 21980, Pitch_bend_c, 5, 8064
6, 21981, Pitch_bend_c, 5, 7936
6, 21982, Pitch_bend_c, 5, 7936
6, 21983, Pitch_bend_c, 5, 7936
6, 21984, Pitch_bend_c, 5, 8064
6, 21984, Pitch_bend_c, 5, 8064
6, 21985, Pitch_bend_c, 5, 8064
6, 21986, Pitch_bend_c, 5, 8064
6, 21987, Pitch_bend_c, 5, 8064
6, 21988, Pitch_bend_c, 5, 8192
6, 21989, Pitch_bend_c, 5, 8192
6, 21990, Pitch_bend_c, 5, 8192
6, 21991, Pitch_bend_c, 5, 8320
6, 21992, Pitch_bend_c, 5, 8320
6, 21993, Pitch_bend_c, 5, 8320
6, 21994, Pitch_bend_c, 5, 8448
6, 21995, Pitch_bend_c, 5, 8448
6, 21996, Pitch_bend_c, 5, 8448
6, 21997, Pitch_bend_c, 5, 8448
6, 21998, Pitch_bend_c, 5, 8448
6, 21999, Pitch_bend_c, 5, 8448
6, 21999, Pitch_bend_c, 5, 8448
6, 22000, Pitch_bend_c, 5, 8320
6, 22001, Pitch_bend_c, 5, 8320
6, 22002, Pitch_bend_c, 5, 8320
6, 22003, Pitch_bend_c, 5, 8192
6, 22004, Pitch_bend_c, 5, 8192
6, 22005, Pitch_bend_c, 5, 8192
6, 22006, Pitch_bend_c, 5, 8064
6, 22007, Pitch_bend_c, 5, 8064
6, 22008, Pitch_bend_c, 5, 8064
6, 22009, Pitch_bend_c, 5, 7936
6, 22010, Pitch_bend_c, 5, 7936
6, 22011, Pitch_bend_c, 5, 7936
6, 22012, Pitch_bend_c, 5, 7936
6, 22013, Pitch_bend_c, 5, 7936
6, 22014, Pitch_bend_c, 5, 7936
6, 22014, Pitch_bend_c, 5, 7936
6, 22015, Pitch_bend_c, 5, 8064
6, 22016, Pitch_bend_c, 5, 8064
6, 22017, Pitch_bend_c, 5, 8064
6, 22018, Pitch_bend_c, 5, 8192
6, 22019, Pitch_bend_c, 5, 8192
6, 22020, Pitch_bend_c, 5, 8192
6, 22021, Pitch_bend_c, 5, 8192
6, 22022, Pitch_bend_c, 5, 8320
6, 22023, Pitch_bend_c, 5, 8320
6, 22024, Pitch_bend_c, 5, 8320
6, 22025, Pitch_bend_c, 5, 8320
6, 22026, Pitch_bend_c, 5, 8320
6, 22027, Pitch_bend_c, 5, 8320
6, 22028, Pitch_bend_c, 5, 8320
6, 22029, Pitch_bend_c, 5, 8320
6, 22029, Pitch_bend_c, 5, 8320
6, 22030, Pitch_bend_c, 5, 8320
6, 22031, Pitch_bend_c, 5, 8320
6, 22032, Pitch_bend_c, 5, 8192
6, 22033, Pitch_bend_c, 5, 8192
6, 22034, Pitch_bend_c, 5, 8192
6, 22035, Pitch_bend_c, 5, 8192
6, 22036, Pitch_bend_c, 5, 8192
6, 22037, Pitch_bend_c, 5, 8064
6, 22038, Pitch_bend_c, 5, 8064
6, 22039, Pitch_bend_c, 5, 8064
6, 22040, Pitch_bend_c, 5, 8064
6, 22041, Pitch_bend_c, 5, 8064
6, 22042, Pitch_bend_c, 5, 8064
6, 22043, Pitch_bend_c, 5, 8064
6, 22044, Pitch_bend_c, 5, 8064
6, 22044, Pitch_bend_c, 5, 8064
6, 22045, Pitch_bend_c, 5, 8064
6, 22046, Pitch_bend_c, 5, 8064
6, 22047, Pitch_bend_c, 5, 8192
6, 22048, Pitch_bend_c, 5, 8192
6, 22049, Pitch_bend_c, 5, 8192
6, 22050, Pitch_bend_c, 5, 8192
6, 22051, Pitch_bend_c, 5, 8192
6, 22052, Pitch_bend_c, 5, 8192
6, 22053, Pitch_bend_c, 5, 8320
6, 22054, Pitch_bend_c, 5, 8320
6, 22055, Pitch_bend_c, 5, 8320
6, 22056, Pitch_bend_c, 5, 8320
6, 22057, Pitch_bend_c, 5, 8320
6, 22058, Pitch_bend_c, 5, 8320
6, 22059, Pitch_bend_c, 5, 8320
6, 22059, Pitch_bend_c, 5, 8320
6, 22060, Pitch_bend_c, 5, 8320
6, 22061, Pitch_bend_c, 5, 8192
6, 22062, Pitch_bend_c, 5, 8192
6, 22063, Pitch_bend_c, 5, 8192
6, 22064, Pitch_bend_c, 5, 8192
6, 22065, Pitch_bend_c, 5, 8192
6, 22066, Pitch_bend_c, 5, 8192
6, 22067, Pitch_bend_c, 5, 8192
6, 22068, Pitch_bend_c, 5, 8064
6, 22069, Pitch_bend_c, 5, 8064
6, 22070, Pitch_bend_c, 5, 8064
6, 22071, Pitch_bend_c, 5, 8064
6, 22072, Pitch_bend_c, 5, 8064
6, 22073, Pitch_bend_c, 5, 8064
6, 22074, Pitch_bend_c, 5, 8064
6, 22074, Pitch_bend_c, 5, 8064
6, 22075, Pitch_bend_c, 5, 8064
6, 22076, Pitch_bend_c, 5, 8192
6, 22077, Pitch_bend_c, 5, 8192
6, 22078, Pitch_bend_c, 5, 8192
6, 22079, Note_off_c, 5, 50, 0
6, 22079, Pitch_bend_c, 5, 8192
6, 22079, Note_on_c, 5, 48, 95
6, 22079, Pitch_bend_c, 5, 8192
6, 22080, Pitch_bend_c, 5, 8192
6, 22081, Pitch_bend_c, 5, 8192
6, 22082, Pitch_bend_c, 5, 8192
6, 22083, Pitch_bend_c, 5, 8192
6, 22084, Pitch_bend_c, 5, 8192
6, 22085, Pitch_bend_c, 5, 8192
6, 22086, Pitch_bend_c, 5, 8192
6, 22087, Pitch_bend_c, 5, 8192
6, 22088, Pitch_bend_c, 5, 8192
6, 22089, Pitch_bend_c, 5, 8192
6, 22089, Pitch_bend_c, 5, 8192
6, 22090, Pitch_bend_c, 5, 8192
6, 22091, Pitch_bend_c, 5, 8192
6, 22092, Pitch_bend_c, 5, 8192
6, 22093, Pitch_bend_c, 5, 8192
6, 22094, Pitch_bend_c, 5, 8192
6, 22095, Pitch_bend_c, 5, 8192
6, 22096, Pitch_bend_c, 5, 8192
6, 22097, Pitch_bend_c, 5, 8192
6, 22098, Pitch_bend_c, 5, 8192
6, 22099, Pitch_bend_c, 5, 8192
6, 22100, Pitch_bend_c, 5, 8192
6, 22101, Pitch_bend_c, 5, 8192
6, 22102, Pitch_bend_c, 5, 8192
6, 22103, Pitch_bend_c, 5, 8192
6, 22104, Pitch_bend_c, 5, 8192
6, 22104, Pitch_bend_c, 5, 8192
6, 22105, Pitch_bend_c, 5, 8192
6, 22106, Pitch_bend_c, 5, 8192
6, 22107, Pitch_bend_c, 5, 8192
6, 22108, Pitch_bend_c, 5, 8192
6, 22109, Pitch_bend_c, 5, 8192
6, 22110, Pitch_bend_c, 5, 8192
6, 22111, Pitch_bend_c, 5, 8192
6, 22112, Pitch_bend_c, 5, 8192
6, 22113, Pitch_bend_c, 5, 8192
6, 22114, Pitch_bend_c, 5, 8192
6, 22115, Pitch_bend_c, 5, 8192
6, 22116, Pitch_bend_c, 5, 8192
6, 22117, Pitch_bend_c, 5, 8192
6, 22118, Pitch_bend_c, 5, 8192
6, 22119, Pitch_bend_c, 5, 8192
6, 22119, Pitch_bend_c, 5, 8192
6, 22120, Pitch_bend_c, 5, 8192
6, 22121, Pitch_bend_c, 5, 8192
6, 22122, Pitch_bend_c, 5, 8192
6, 22123, Pitch_bend_c, 5, 8192
6, 22124, Pitch_bend_c, 5, 8192
6, 22125, Pitch_bend_c, 5, 8192
6, 22126, Pitch_bend_c, 5, 8192
6, 22127, Pitch_bend_c, 5, 8192
6, 22128, Pitch_bend_c, 5, 8192
6, 22129, Pitch_bend_c, 5, 8192
6, 22130, Pitch_bend_c, 5, 8192
6, 22131, Pitch_bend_c, 5, 8192
6, 22132, Pitch_bend_c, 5, 8192
6, 22133, Pitch_bend_c, 5, 8192
6, 22134, Pitch_bend_c, 5, 8192
6, 22134, Pitch_bend_c, 5, 8192
6, 22135, Pitch_bend_c, 5, 8192
6, 22136, Pitch_bend_c, 5, 8192
6, 22137, Pitch_bend_c, 5, 8192
6, 22138, Pitch_bend_c, 5, 8192
6, 22139, Pitch_bend_c, 5, 8192
6, 22140, Pitch_bend_c, 5, 8192
6, 22141, Pitch_bend_c, 5, 8192
6, 22142, Pitch_bend_c, 5, 8320
6, 22143, Pitch_bend_c, 5, 8320
6, 22144, Pitch_bend_c, 5, 8320
6, 22145, Pitch_bend_c, 5, 8320
6, 22146, Pitch_bend_c, 5, 8320
6, 22147, Pitch_bend_c, 5, 8320
6, 22148, Pitch_bend_c, 5, 8320
6, 22149, Pitch_bend_c, 5, 8320
6, 22149, Pitch_bend_c, 5, 8320
6, 22150, Pitch_bend_c, 5, 8320
6, 22151, Pitch_bend_c, 5, 8320
6, 22152, Pitch_bend_c, 5, 8192
6, 22153, Pitch_bend_c, 5, 8192
6, 22154, Pitch_bend_c, 5, 8192
6, 22155, Pitch_bend_c, 5, 8192
6, 22156, Pitch_bend_c, 5, 8192
6, 22157, Pitch_bend_c, 5, 8064
6, 22158, Pitch_bend_c, 5, 8064
6, 22159, Pitch_bend_c, 5, 8064
6, 22160, Pitch_bend_c, 5, 8064
6, 22161, Pitch_bend_c, 5, 8064
6, 22162, Pitch_bend_c, 5, 8064
6, 22163, Pitch_bend_c, 5, 8064
6, 22164, Pitch_bend_c, 5, 8064
6, 22164, Pitch_bend_c, 5, 8064
6, 22165, Pitch_bend_c, 5, 8064
6, 22166, Pitch_bend_c, 5, 8064
6, 22167, Pitch_bend_c, 5, 8192
6, 22168, Pitch_bend_c, 5, 8192
6, 22169, Pitch_bend_c, 5, 8192
6, 22170, Pitch_bend_c, 5, 8192
6, 22171, Pitch_bend_c, 5, 8320
6, 22172, Pitch_bend_c, 5, 8320
6, 22173, Pitch_bend_c, 5, 8320
6, 22174, Pitch_bend_c, 5, 8320
6, 22175, Pitch_bend_c, 5, 8320
6, 22176, Pitch_bend_c, 5, 8448
6, 22177, Pitch_bend_c, 5, 8448
6, 22178, Pitch_bend_c, 5, 8448
6, 22179, Pitch_bend_c, 5, 8320
6, 22179, Pitch_bend_c, 5, 8320
6, 22180, Pitch_bend_c, 5, 8320
6, 22181, Pitch_bend_c, 5, 8320
6, 22182, Pitch_bend_c, 5, 8320
6, 22183, Pitch_bend_c, 5, 8192
6, 22184, Pitch_bend_c, 5, 8192
6, 22185, Pitch_bend_c, 5, 8192
6, 22186, Pitch_bend_c, 5, 8064
6, 22187, Pitch_bend_c, 5, 8064
6, 22188, Pitch_bend_c, 5, 8064
6, 22189, Pitch_bend_c, 5, 8064
6, 22190, Pitch_bend_c, 5, 8064
6, 22191, Pitch_bend_c, 5, 7936
6, 22192, Pitch_bend_c, 5, 7936
6, 22193, Pitch_bend_c, 5, 7936
6, 22194, Pitch_bend_c, 5, 8064
6, 22194, Pitch_bend_c, 5, 8064
6, 22195, Pitch_bend_c, 5, 8064
6, 22196, Pitch_bend_c, 5, 8064
6, 22197, Pitch_bend_c, 5, 8064
6, 22198, Pitch_bend_c, 5, 8192
6, 22199, Pitch_bend_c, 5, 8192
6, 22200, Pitch_bend_c, 5, 8192
6, 22201, Pitch_bend_c, 5, 8320
6, 22202, Pitch_bend_c, 5, 8320
6, 22203, Pitch_bend_c, 5, 8448
6, 22204, Pitch_bend_c, 5, 8448
6, 22205, Pitch_bend_c, 5, 8448
6, 22206, Pitch_bend_c, 5, 8448
6, 22207, Pitch_bend_c, 5, 8448
6, 22208, Pitch_bend_c, 5, 8448
6, 22209, Pitch_bend_c, 5, 8448
6, 22209, Pitch_bend_c, 5, 8448
6, 22210, Pitch_bend_c, 5, 8448
6, 22211, Pitch_bend_c, 5, 8320
6, 22212, Pitch_bend_c, 5, 8320
6, 22213, Pitch_bend_c, 5, 8192
6, 22214, Pitch_bend_c, 5, 8192
6, 22215, Pitch_bend_c, 5, 8192
6, 22216, Pitch_bend_c, 5, 8064
6, 22217, Pitch_bend_c, 5, 8064
6, 22218, Pitch_bend_c, 5, 7936
6, 22219, Pitch_bend_c, 5, 7936
6, 22220, Pitch_bend_c, 5, 7936
6, 22221, Pitch_bend_c, 5, 7936
6, 22222, Pitch_bend_c, 5, 7936
6, 22223, Pitch_bend_c, 5, 7936
6, 22224, Pitch_bend_c, 5, 7936
6, 22224, Pitch_bend_c, 5, 7936
6, 22225, Pitch_bend_c, 5, 7936
6, 22226, Pitch_bend_c, 5, 8064
6, 22227, Pitch_bend_c, 5, 8064
6, 22228, Pitch_bend_c, 5, 8192
6, 22229, Pitch_bend_c, 5, 8192
6, 22230, Pitch_bend_c, 5, 8192
6, 22231, Pitch_bend_c, 5, 8320
6, 22232, Pitch_bend_c, 5, 8320
6, 22233, Pitch_bend_c, 5, 8320
6, 22234, Pitch_bend_c, 5, 8320
6, 22235, Pitch_bend_c, 5, 8320
6, 22236, Pitch_bend_c, 5, 8448
6, 22237, Pitch_bend_c, 5, 8448
6, 22238, Pitch_bend_c, 5, 8448
6, 22239, Pitch_bend_c, 5, 8320
6, 22239, Pitch_bend_c, 5, 8320
6, 22240, Pitch_bend_c, 5, 8320
6, 22241, Pitch_bend_c, 5, 8320
6, 22242, Pitch_bend_c, 5, 8320
6, 22243, Pitch_bend_c, 5, 8192
6, 22244, Pitch_bend_c, 5, 8192
6, 22245, Pitch_bend_c, 5, 8192
6, 22246, Pitch_bend_c, 5, 8064
6, 22247, Pitch_bend_c, 5, 8064
6, 22248, Pitch_bend_c, 5, 8064
6, 22249, Pitch_bend_c, 5, 8064
6, 22250, Pitch_bend_c, 5, 8064
6, 22251, Pitch_bend_c, 5, 7936
6, 22252, Pitch_bend_c, 5, 7936
6, 22253, Pitch_bend_c, 5, 7936
6, 22254, Pitch_bend_c, 5, 8064
6, 22254, Pitch_bend_c, 5, 8064
6, 22255, Pitch_bend_c, 5, 8064
6, 22256, Pitch_bend_c, 5, 8064
6, 22257, Pitch_bend_c, 5, 8064
6, 22258, Pitch_bend_c, 5, 8192
6, 22259, Pitch_bend_c, 5, 8192
6, 22260, Pitch_bend_c, 5, 8192
6, 22261, Pitch_bend_c, 5, 8320
6, 22262, Pitch_bend_c, 5, 8320
6, 22263, Pitch_bend_c, 5, 8320
6, 22264, Pitch_bend_c, 5, 8320
6, 22265, Pitch_bend_c, 5, 8448
6, 22266, Pitch_bend_c, 5, 8448
6, 22267, Pitch_bend_c, 5, 8448
6, 22268, Pitch_bend_c, 5, 8448
6, 22269, Pitch_bend_c, 5, 8448
6, 22269, Pitch_bend_c, 5, 8320
6, 22270, Pitch_bend_c, 5, 8320
6, 22271, Pitch_bend_c, 5, 8320
6, 22272, Pitch_bend_c, 5, 8320
6, 22273, Pitch_bend_c, 5, 8192
6, 22274, Pitch_bend_c, 5, 8192
6, 22275, Pitch_bend_c, 5, 8192
6, 22276, Pitch_bend_c, 5, 8064
6, 22277, Pitch_bend_c, 5, 8064
6, 22278, Pitch_bend_c, 5, 8064
6, 22279, Pitch_bend_c, 5, 8064
6, 22280, Pitch_bend_c, 5, 7936
6, 22281, Pitch_bend_c, 5, 7936
6, 22282, Pitch_bend_c, 5, 7936
6, 22283, Pitch_bend_c, 5, 7936
6, 22284, Pitch_bend_c, 5, 7936
6, 22284, Pitch_bend_c, 5, 8064
6, 22285, Pitch_bend_c, 5, 8064
6, 22286, Pitch_bend_c, 5, 8064
6, 22287, Pitch_bend_c, 5, 8064
6, 22288, Pitch_bend_c, 5, 8192
6, 22289, Pitch_bend_c, 5, 8192
6, 22290, Pitch_bend_c, 5, 8192
6, 22291, Pitch_bend_c, 5, 8320
6, 22292, Pitch_bend_c, 5, 8320
6, 22293, Pitch_bend_c, 5, 8320
6, 22294, Pitch_bend_c, 5, 8320
6, 22295, Pitch_bend_c, 5, 8320
6, 22296, Pitch_bend_c, 5, 8320
6, 22297, Pitch_bend_c, 5, 8320
6, 22298, Pitch_bend_c, 5, 8320
6, 22299, Pitch_bend_c, 5, 8320
6, 22299, Pitch_bend_c, 5, 8320
6, 22300, Pitch_bend_c, 5, 8320
6, 22301, Pitch_bend_c, 5, 8320
6, 22302, Pitch_bend_c, 5, 8320
6, 22303, Pitch_bend_c, 5, 8192
6, 22304, Pitch_bend_c, 5, 8192
6, 22305, Pitch_bend_c, 5, 8192
6, 22306, Pitch_bend_c, 5, 8064
6, 22307, Pitch_bend_c, 5, 8064
6, 22308, Pitch_bend_c, 5, 8064
6, 22309, Pitch_bend_c, 5, 8064
6, 22310, Pitch_bend_c, 5, 8064
6, 22311, Pitch_bend_c, 5, 8064
6, 22312, Pitch_bend_c, 5, 8064
6, 22313, Pitch_bend_c, 5, 8064
6, 22314, Pitch_bend_c, 5, 8064
6, 22314, Pitch_bend_c, 5, 8064
6, 22315, Pitch_bend_c, 5, 8064
6, 22316, Pitch_bend_c, 5, 8064
6, 22317, Pitch_bend_c, 5, 8064
6, 22318, Pitch_bend_c, 5, 8192
6, 22319, Pitch_bend_c, 5, 8192
6, 22320, Pitch_bend_c, 5, 8192
6, 22321, Pitch_bend_c, 5, 8320
6, 22322, Pitch_bend_c, 5, 8320
6, 22323, Pitch_bend_c, 5, 8320
6, 22324, Pitch_bend_c, 5, 8320
6, 22325, Pitch_bend_c, 5, 8448
6, 22326, Pitch_bend_c, 5, 8448
6, 22327, Pitch_bend_c, 5, 8448
6, 22328, Pitch_bend_c, 5, 8448
6, 22329, Pitch_bend_c, 5, 8448
6, 22329, Pitch_bend_c, 5, 8320
6, 22330, Pitch_bend_c, 5, 8320
6, 22331, Pitch_bend_c, 5, 8320
6, 22332, Pitch_bend_c, 5, 8320
6, 22333, Pitch_bend_c, 5, 8192
6, 22334, Pitch_bend_c, 5, 8192
6, 22335, Pitch_bend_c, 5, 8192
6, 22336, Pitch_bend_c, 5, 8064
6, 22337, Pitch_bend_c, 5, 8064
6, 22338, Pitch_bend_c, 5, 8064
6, 22339, Pitch_bend_c, 5, 8064
6, 22340, Pitch_bend_c, 5, 7936
6, 22341, Pitch_bend_c, 5, 7936
6, 22342, Pitch_bend_c, 5, 7936
6, 22343, Pitch_bend_c, 5, 7936
6, 22344, Pitch_bend_c, 5, 7936
6, 22344, Pitch_bend_c, 5, 8064
6, 22345, Pitch_bend_c, 5, 8064
6, 22346, Pitch_bend_c, 5, 8064
6, 22347, Pitch_bend_c, 5, 8064
6, 22348, Pitch_bend_c, 5, 8192
6, 22349, Pitch_bend_c, 5, 8192
6, 22350, Pitch_bend_c, 5, 8192
6, 22351, Pitch_bend_c, 5, 8320
6, 22352, Pitch_bend_c, 5, 8320
6, 22353, Pitch_bend_c, 5, 8320
6, 22354, Pitch_bend_c, 5, 8320
6, 22355, Pitch_bend_c, 5, 8448
6, 22356, Pitch_bend_c, 5, 8448
6, 22357, Pitch_bend_c, 5, 8448
6, 22358, Pitch_bend_c, 5, 8448
6, 22359, Pitch_bend_c, 5, 8448
6, 22359, Pitch_bend_c, 5, 8320
6, 22360, Pitch_bend_c, 5, 8320
6, 22361, Pitch_bend_c, 5, 8320
6, 22362, Pitch_bend_c, 5, 8320
6, 22363, Pitch_bend_c, 5, 8192
6, 22364, Pitch_bend_c, 5, 8192
6, 22365, Pitch_bend_c, 5, 8192
6, 22366, Pitch_bend_c, 5, 8064
6, 22367, Pitch_bend_c, 5, 8064
6, 22368, Pitch_bend_c, 5, 8064
6, 22369, Pitch_bend_c, 5, 8064
6, 22370, Pitch_bend_c, 5, 7936
6, 22371, Pitch_bend_c, 5, 7936
6, 22372, Pitch_bend_c, 5, 7936
6, 22373, Pitch_bend_c, 5, 7936
6, 22374, Pitch_bend_c, 5, 7936
6, 22374, Pitch_bend_c, 5, 8064
6, 22375, Pitch_bend_c, 5, 8064
6, 22376, Pitch_bend_c, 5, 8064
6, 22377, Pitch_bend_c, 5, 8064
6, 22378, Pitch_bend_c, 5, 8192
6, 22379, Pitch_bend_c, 5, 8192
6, 22380, Pitch_bend_c, 5, 8192
6, 22381, Pitch_bend_c, 5, 8320
6, 22382, Pitch_bend_c, 5, 8320
6, 22383, Pitch_bend_c, 5, 8320
6, 22384, Pitch_bend_c, 5, 8448
6, 22385, Pitch_bend_c, 5, 8448
6, 22386, Pitch_bend_c, 5, 8448
6, 22387, Pitch_bend_c, 5, 8448
6, 22388, Pitch_bend_c, 5, 8448
6, 22389, Pitch_bend_c, 5, 8448
6, 22389, Pitch_bend_c, 5, 8448
6, 22390, Pitch_bend_c, 5, 8320
6, 22391, Pitch_bend_c, 5, 8320
6, 22392, Pitch_bend_c, 5, 8320
6, 22393, Pitch_bend_c, 5, 8192
6, 22394, Pitch_bend_c, 5, 8192
6, 22395, Pitch_bend_c, 5, 8192
6, 22396, Pitch_bend_c, 5, 8064
6, 22397, Pitch_bend_c, 5, 8064
6, 22398, Pitch_bend_c, 5, 8064
6, 22399, Pitch_bend_c, 5, 7936
6, 22400, Pitch_bend_c, 5, 7936
6, 22401, Pitch_bend_c, 5, 7936
6, 22402, Pitch_bend_c, 5, 7936
6, 22403, Pitch_bend_c, 5, 7936
6, 22404, Pitch_bend_c, 5, 7936
6, 22404, Pitch_bend_c, 5, 7936
6, 22405, Pitch_bend_c, 5, 8064
6, 22406, Pitch_bend_c, 5, 8064
6, 22407, Pitch_bend_c, 5, 8064
6, 22408, Pitch_bend_c, 5, 8192
6, 22409, Pitch_bend_c, 5, 8192
6, 22410, Pitch_bend_c, 5, 8192
6, 22411, Pitch_bend_c, 5, 8320
6, 22412, Pitch_bend_c, 5, 8320
6, 22413, Pitch_bend_c, 5, 8320
6, 22414, Pitch_bend_c, 5, 8320
6, 22415, Pitch_bend_c, 5, 8448
6, 22416, Pitch_bend_c, 5, 8448
6, 22417, Pitch_bend_c, 5, 8448
6, 22418, Pitch_bend_c, 5, 8448
6, 22419, Pitch_bend_c, 5, 8448
6, 22419, Pitch_bend_c, 5, 8320
6, 22420, Pitch_bend_c, 5, 8320
6, 22421, Pitch_bend_c, 5, 8320
6, 22422, Pitch_bend_c, 5, 8320
6, 22423, Pitch_bend_c, 5, 8192
6, 22424, Pitch_bend_c, 5, 8192
6, 22425, Pitch_bend_c, 5, 8192
6, 22426, Pitch_bend_c, 5, 8064
6, 22427, Pitch_bend_c, 5, 8064
6, 22428, Pitch_bend_c, 5, 8064
6, 22429, Pitch_bend_c, 5, 8064
6, 22430, Pitch_bend_c, 5, 7936
6, 22431, Pitch_bend_c, 5, 7936
6, 22432, Pitch_bend_c, 5, 7936
6, 22433, Pitch_bend_c, 5, 7936
6, 22434, Pitch_bend_c, 5, 7936
6, 22434, Pitch_bend_c, 5, 8064
6, 22435, Pitch_bend_c, 5, 8064
6, 22436, Pitch_bend_c, 5, 8064
6, 22437, Pitch_bend_c, 5, 8064
6, 22438, Pitch_bend_c, 5, 8192
6, 22439, Pitch_bend_c, 5, 8192
6, 22440, Pitch_bend_c, 5, 8192
6, 22441, Pitch_bend_c, 5, 8320
6, 22442, Pitch_bend_c, 5, 8320
6, 22443, Pitch_bend_c, 5, 8320
6, 22444, Pitch_bend_c, 5, 8448
6, 22445, Pitch_bend_c, 5, 8448
6, 22446, Pitch_bend_c, 5, 8448
6, 22447, Pitch_bend_c, 5, 8448
6, 22448, Pitch_bend_c, 5, 8448
6, 22449, Pitch_bend_c, 5, 8448
6, 22449, Pitch_bend_c, 5, 8448
6, 22450, Pitch_bend_c, 5, 8320
6, 22451, Pitch_bend_c, 5, 8320
6, 22452, Pitch_bend_c, 5, 8320
6, 22453, Pitch_bend_c, 5, 8192
6, 22454, Pitch_bend_c, 5, 8192
6, 22455, Pitch_bend_c, 5, 8192
6, 22456, Pitch_bend_c, 5, 8064
6, 22457, Pitch_bend_c, 5, 8064
6, 22458, Pitch_bend_c, 5, 8064
6, 22459, Pitch_bend_c, 5, 7936
6, 22460, Pitch_bend_c, 5, 7936
6, 22461, Pitch_bend_c, 5, 7936
6, 22462, Pitch_bend_c, 5, 7936
6, 22463, Pitch_bend_c, 5, 7936
6, 22464, Pitch_bend_c, 5, 7936
6, 22464, Pitch_bend_c, 5, 7936
6, 22465, Pitch_bend_c, 5, 8064
6, 22466, Pitch_bend_c, 5, 8064
6, 22467, Pitch_bend_c, 5, 8064
6, 22468, Pitch_bend_c, 5, 8192
6, 22469, Pitch_bend_c, 5, 8192
6, 22470, Pitch_bend_c, 5, 8192
6, 22471, Pitch_bend_c, 5, 8320
6, 22472, Pitch_bend_c, 5, 8320
6, 22473, Pitch_bend_c, 5, 8320
6, 22474, Pitch_bend_c, 5, 8320
6, 22475, Pitch_bend_c, 5, 8320
6, 22476, Pitch_bend_c, 5, 8320
6, 22477, Pitch_bend_c, 5, 8320
6, 22478, Pitch_bend_c, 5, 8320
6, 22479, Pitch_bend_c, 5, 8320
6, 22479, Pitch_bend_c, 5, 8320
6, 22480, Pitch_bend_c, 5, 8320
6, 22481, Pitch_bend_c, 5, 8320
6, 22482, Pitch_bend_c, 5, 8320
6, 22483, Pitch_bend_c, 5, 8192
6, 22484, Pitch_bend_c, 5, 8192
6, 22485, Pitch_bend_c, 5, 8192
6, 22486, Pitch_bend_c, 5, 8064
6, 22487, Pitch_bend_c, 5, 8064
6, 22488, Pitch_bend_c, 5, 8064
6, 22489, Pitch_bend_c, 5, 8064
6, 22490, Pitch_bend_c, 5, 8064
6, 22491, Pitch_bend_c, 5, 8064
6, 22492, Pitch_bend_c, 5, 8064
6, 22493, Pitch_bend_c, 5, 8064
6, 22494, Pitch_bend_c, 5, 8064
6, 22494, Pitch_bend_c, 5, 8064
6, 22495, Pitch_bend_c, 5, 8064
6, 22496, Pitch_bend_c, 5, 8064
6, 22497, Pitch_bend_c, 5, 8064
6, 22498, Pitch_bend_c, 5, 8192
6, 22499, Pitch_bend_c, 5, 8192
6, 22500, Pitch_bend_c, 5, 8192
6, 22501, Pitch_bend_c, 5, 8320
6, 22502, Pitch_bend_c, 5, 8320
6, 22503, Pitch_bend_c, 5, 8320
6, 22504, Pitch_bend_c, 5, 8448
6, 22505, Pitch_bend_c, 5, 8448
6, 22506, Pitch_bend_c, 5, 8448
6, 22507, Pitch_bend_c, 5, 8448
6, 22508, Pitch_bend_c, 5, 8448
6, 22509, Pitch_bend_c, 5, 8448
6, 22509, Pitch_bend_c, 5, 8448
6, 22510, Pitch_bend_c, 5, 8320
6, 22511, Pitch_bend_c, 5, 8320
6, 22512, Pitch_bend_c, 5, 8320
6, 22513, Pitch_bend_c, 5, 8192
6, 22514, Pitch_bend_c, 5, 8192
6, 22515, Pitch_bend_c, 5, 8192
6, 22516, Pitch_bend_c, 5, 8064
6, 22517, Pitch_bend_c, 5, 8064
6, 22518, Pitch_bend_c, 5, 8064
6, 22519, Pitch_bend_c, 5, 7936
6, 22520, Pitch_bend_c, 5, 7936
6, 22521, Pitch_bend_c, 5, 7936
6, 22522, Pitch_bend_c, 5, 7936
6, 22523, Pitch_bend_c, 5, 7936
6, 22524, Pitch_bend_c, 5, 7936
6, 22524, Pitch_bend_c, 5, 7936
6, 22525, Pitch_bend_c, 5, 8064
6, 22526, Pitch_bend_c, 5, 8064
6, 22527, Pitch_bend_c, 5, 8064
6, 22528, Pitch_bend_c, 5, 8192
6, 22529, Pitch_bend_c, 5, 8192
6, 22530, Pitch_bend_c, 5, 8192
6, 22531, Pitch_bend_c, 5, 8192
6, 22532, Pitch_bend_c, 5, 8320
6, 22533, Pitch_bend_c, 5, 8320
6, 22534, Pitch_bend_c, 5, 8320
6, 22535, Pitch_bend_c, 5, 8320
6, 22536, Pitch_bend_c, 5, 8320
6, 22537, Pitch_bend_c, 5, 8320
6, 22538, Pitch_bend_c, 5, 8320
6, 22539, Pitch_bend_c, 5, 8320
6, 22539, Pitch_bend_c, 5, 8320
6, 22540, Pitch_bend_c, 5, 8320
6, 22541, Pitch_bend_c, 5, 8320
6, 22542, Pitch_bend_c, 5, 8192
6, 22543, Pitch_bend_c, 5, 8192
6, 22544, Pitch_bend_c, 5, 8192
6, 22545, Pitch_bend_c, 5, 8192
6, 22546, Pitch_bend_c, 5, 8192
6, 22547, Pitch_bend_c, 5, 8064
6, 22548, Pitch_bend_c, 5, 8064
6, 22549, Pitch_bend_c, 5, 8064
6, 22550, Pitch_bend_c, 5, 8064
6, 22551, Pitch_bend_c, 5, 8064
6, 22552, Pitch_bend_c, 5, 8064
6, 22553, Pitch_bend_c, 5, 8064
6, 22554, Pitch_bend_c, 5, 8064
6, 22554, Pitch_bend_c, 5, 8064
6, 22555, Pitch_bend_c, 5, 8064
6, 22556, Pitch_bend_c, 5, 8064
6, 22557, Pitch_bend_c, 5, 8192
6, 22558, Pitch_bend_c, 5, 8192
6, 22559, Note_off_c, 5, 48, 0
6, 22559, Pitch_bend_c, 5, 8192
6, 22559, Note_on_c, 5, 47, 95
6, 22559, Pitch_bend_c, 5, 8192
6, 22560, Pitch_bend_c, 5, 8192
6, 22561, Pitch_bend_c, 5, 8192
6, 22562, Pitch_bend_c, 5, 8192
6, 22563, Pitch_bend_c, 5, 8192
6, 22564, Pitch_bend_c, 5, 8192
6, 22565, Pitch_bend_c, 5, 8192
6, 22566, Pitch_bend_c, 5, 8192
6, 22567, Pitch_bend_c, 5, 8192
6, 22568, Pitch_bend_c, 5, 8192
6, 22569, Pitch_bend_c, 5, 8192
6, 22569, Pitch_bend_c, 5, 8192
6, 22570, Pitch_bend_c, 5, 8192
6, 22571, Pitch_bend_c, 5, 8192
6, 22572, Pitch_bend_c, 5, 8192
6, 22573, Pitch_bend_c, 5, 8192
6, 22574, Pitch_bend_c, 5, 8192
6, 22575, Pitch_bend_c, 5, 8192
6, 22576, Pitch_bend_c, 5, 8192
6, 22577, Pitch_bend_c, 5, 8192
6, 22578, Pitch_bend_c, 5, 8192
6, 22579, Pitch_bend_c, 5, 8192
6, 22580, Pitch_bend_c, 5, 8192
6, 22581, Pitch_bend_c, 5, 8192
6, 22582, Pitch_bend_c, 5, 8192
6, 22583, Pitch_bend_c, 5, 8192
6, 22584, Pitch_bend_c, 5, 8192
6, 22584, Pitch_bend_c, 5, 8192
6, 22585, Pitch_bend_c, 5, 8192
6, 22586, Pitch_bend_c, 5, 8192
6, 22587, Pitch_bend_c, 5, 8192
6, 22588, Pitch_bend_c, 5, 8192
6, 22589, Pitch_bend_c, 5, 8192
6, 22590, Pitch_bend_c, 5, 8192
6, 22591, Pitch_bend_c, 5, 8320
6, 22592, Pitch_bend_c, 5, 8320
6, 22593, Pitch_bend_c, 5, 8320
6, 22594, Pitch_bend_c, 5, 8320
6, 22595, Pitch_bend_c, 5, 8320
6, 22596, Pitch_bend_c, 5, 8320
6, 22597, Pitch_bend_c, 5, 8320
6, 22598, Pitch_bend_c, 5, 8320
6, 22599, Pitch_bend_c, 5, 8320
6, 22599, Pitch_bend_c, 5, 8320
6, 22600, Pitch_bend_c, 5, 8320
6, 22601, Pitch_bend_c, 5, 8320
6, 22602, Pitch_bend_c, 5, 8320
6, 22603, Pitch_bend_c, 5, 8192
6, 22604, Pitch_bend_c, 5, 8192
6, 22605, Pitch_bend_c, 5, 8192
6, 22606, Pitch_bend_c, 5, 8064
6, 22607, Pitch_bend_c, 5, 8064
6, 22608, Pitch_bend_c, 5, 8064
6, 22609, Pitch_bend_c, 5, 8064
6, 22610, Pitch_bend_c, 5, 8064
6, 22611, Pitch_bend_c, 5, 8064
6, 22612, Pitch_bend_c, 5, 8064
6, 22613, Pitch_bend_c, 5, 8064
6, 22614, Pitch_bend_c, 5, 8064
6, 22614, Pitch_bend_c, 5, 8064
6, 22615, Pitch_bend_c, 5, 8064
6, 22616, Pitch_bend_c, 5, 8064
6, 22617, Pitch_bend_c, 5, 8064
6, 22618, Pitch_bend_c, 5, 8192
6, 22619, Pitch_bend_c, 5, 8192
6, 22620, Pitch_bend_c, 5, 8192
6, 22621, Pitch_bend_c, 5, 8320
6, 22622, Pitch_bend_c, 5, 8320
6, 22623, Pitch_bend_c, 5, 8320
6, 22624, Pitch_bend_c, 5, 8320
6, 22625, Pitch_bend_c, 5, 8448
6, 22626, Pitch_bend_c, 5, 8448
6, 22627, Pitch_bend_c, 5, 8448
6, 22628, Pitch_bend_c, 5, 8448
6, 22629, Pitch_bend_c, 5, 8448
6, 22629, Pitch_bend_c, 5, 8320
6, 22630, Pitch_bend_c, 5, 8320
6, 22631, Pitch_bend_c, 5, 8320
6, 22632, Pitch_bend_c, 5, 8320
6, 22633, Pitch_bend_c, 5, 8192
6, 22634, Pitch_bend_c, 5, 8192
6, 22635, Pitch_bend_c, 5, 8192
6, 22636, Pitch_bend_c, 5, 8064
6, 22637, Pitch_bend_c, 5, 8064
6, 22638, Pitch_bend_c, 5, 8064
6, 22639, Pitch_bend_c, 5, 8064
6, 22640, Pitch_bend_c, 5, 7936
6, 22641, Pitch_bend_c, 5, 7936
6, 22642, Pitch_bend_c, 5, 7936
6, 22643, Pitch_bend_c, 5, 7936
6, 22644, Pitch_bend_c, 5, 7936
6, 22644, Pitch_bend_c, 5, 8064
6, 22645, Pitch_bend_c, 5, 8064
6, 22646, Pitch_bend_c, 5, 8064
6, 22647, Pitch_bend_c, 5, 8064
6, 22648, Pitch_bend_c, 5, 8192
6, 22649, Pitch_bend_c, 5, 8192
6, 22650, Pitch_bend_c, 5, 8192
6, 22651, Pitch_bend_c, 5, 8320
6, 22652, Pitch_bend_c, 5, 8320
6, 22653, Pitch_bend_c, 5, 8320
6, 22654, Pitch_bend_c, 5, 8448
6, 22655, Pitch_bend_c, 5, 8448
6, 22656, Pitch_bend_c, 5, 8448
6, 22657, Pitch_bend_c, 5, 8448
6, 22658, Pitch_bend_c, 5, 8448
6, 22659, Pitch_bend_c, 5, 8448
6, 22659, Pitch_bend_c, 5, 8448
6, 22660, Pitch_bend_c, 5, 8320
6, 22661, Pitch_bend_c, 5, 8320
6, 22662, Pitch_bend_c, 5, 8320
6, 22663, Pitch_bend_c, 5, 8192
6, 22664, Pitch_bend_c, 5, 8192
6, 22665, Pitch_bend_c, 5, 8192
6, 22666, Pitch_bend_c, 5, 8064
6, 22667, Pitch_bend_c, 5, 8064
6, 22668, Pitch_bend_c, 5, 8064
6, 22669, Pitch_bend_c, 5, 7936
6, 22670, Pitch_bend_c, 5, 7936
6, 22671, Pitch_bend_c, 5, 7936
6, 22672, Pitch_bend_c, 5, 7936
6, 22673, Pitch_bend_c, 5, 7936
6, 22674, Pitch_bend_c, 5, 7936
6, 22674, Pitch_bend_c, 5, 7936
6, 22675, Pitch_bend_c, 5, 8064
6, 22676, Pitch_bend_c, 5, 8064
6, 22677, Pitch_bend_c, 5, 8064
6, 22678, Pitch_bend_c, 5, 8192
6, 22679, Pitch_bend_c, 5, 8192
6, 22680, Pitch_bend_c, 5, 8192
6, 22681, Pitch_bend_c, 5, 8320
6, 22682, Pitch_bend_c, 5, 8320
6, 22683, Pitch_bend_c, 5, 8448
6, 22684, Pitch_bend_c, 5, 8448
6, 22685, Pitch_bend_c, 5, 8448
6, 22686, Pitch_bend_c, 5, 8448
6, 22687, Pitch_bend_c, 5, 8448
6, 22688, Pitch_bend_c, 5, 8448
6, 22689, Pitch_bend_c, 5, 8448
6, 22689, Pitch_bend_c, 5, 8448
6, 22690, Pitch_bend_c, 5, 8448
6, 22691, Pitch_bend_c, 5, 8320
6, 22692, Pitch_bend_c, 5, 8320
6, 22693, Pitch_bend_c, 5, 8192
6, 22694, Pitch_bend_c, 5, 8192
6, 22695, Pitch_bend_c, 5, 8192
6, 22696, Pitch_bend_c, 5, 8064
6, 22697, Pitch_bend_c, 5, 8064
6, 22698, Pitch_bend_c, 5, 7936
6, 22699, Pitch_bend_c, 5, 7936
6, 22700, Pitch_bend_c, 5, 7936
6, 22701, Pitch_bend_c, 5, 7936
6, 22702, Pitch_bend_c, 5, 7936
6, 22703, Pitch_bend_c, 5, 7936
6, 22704, Pitch_bend_c, 5, 7936
6, 22704, Pitch_bend_c, 5, 7936
6, 22705, Pitch_bend_c, 5, 7936
6, 22706, Pitch_bend_c, 5, 8064
6, 22707, Pitch_bend_c, 5, 8064
6, 22708, Pitch_bend_c, 5, 8192
6, 22709, Pitch_bend_c, 5, 8192
6, 22710, Pitch_bend_c, 5, 8192
6, 22711, Pitch_bend_c, 5, 8320
6, 22712, Pitch_bend_c, 5, 8320
6, 22713, Pitch_bend_c, 5, 8320
6, 22714, Pitch_bend_c, 5, 8448
6, 22715, Pitch_bend_c, 5, 8448
6, 22716, Pitch_bend_c, 5, 8448
6, 22717, Pitch_bend_c, 5, 8448
6, 22718, Pitch_bend_c, 5, 8448
6, 22719, Pitch_bend_c, 5, 8448
6, 22719, Pitch_bend_c, 5, 8448
6, 22720, Pitch_bend_c, 5, 8320
6, 22721, Pitch_bend_c, 5, 8320
6, 22722, Pitch_bend_c, 5, 8320
6, 22723, Pitch_bend_c, 5, 8192
6, 22724, Pitch_bend_c, 5, 8192
6, 22725, Pitch_bend_c, 5, 8192
6, 22726, Pitch_bend_c, 5, 8064
6, 22727, Pitch_bend_c, 5, 8064
6, 22728, Pitch_bend_c, 5, 8064
6, 22729, Pitch_bend_c, 5, 7936
6, 22730, Pitch_bend_c, 5, 7936
6, 22731, Pitch_bend_c, 5, 7936
6, 22732, Pitch_bend_c, 5, 7936
6, 22733, Pitch_bend_c, 5, 7936
6, 22734, Pitch_bend_c, 5, 7936
6, 22734, Pitch_bend_c, 5, 7936
6, 22735, Pitch_bend_c, 5, 8064
6, 22736, Pitch_bend_c, 5, 8064
6, 22737, Pitch_bend_c, 5, 8064
6, 22738, Pitch_bend_c, 5, 8192
6, 22739, Pitch_bend_c, 5, 8192
6, 22740, Pitch_bend_c, 5, 8192
6, 22741, Pitch_bend_c, 5, 8320
6, 22742, Pitch_bend_c, 5, 8320
6, 22743, Pitch_bend_c, 5, 8320
6, 22744, Pitch_bend_c, 5, 8320
6, 22745, Pitch_bend_c, 5, 8448
6, 22746, Pitch_bend_c, 5, 8448
6, 22747, Pitch_bend_c, 5, 8448
6, 22748, Pitch_bend_c, 5, 8448
6, 22749, Pitch_bend_c, 5, 8448
6, 22749, Pitch_bend_c, 5, 8320
6, 22750, Pitch_bend_c, 5, 8320
6, 22751, Pitch_bend_c, 5, 8320
6, 22752, Pitch_bend_c, 5, 8320
6, 22753, Pitch_bend_c, 5, 8192
6, 22754, Pitch_bend_c, 5, 8192
6, 22755, Pitch_bend_c, 5, 8192
6, 22756, Pitch_bend_c, 5, 8064
6, 22757, Pitch_bend_c, 5, 8064
6, 22758, Pitch_bend_c, 5, 8064
6, 22759, Pitch_bend_c, 5, 8064
6, 22760, Pitch_bend_c, 5, 7936
6, 22761, Pitch_bend_c, 5, 7936
6, 22762, Pitch_bend_c, 5, 7936
6, 22763, Pitch_bend_c, 5, 7936
6, 22764, Pitch_bend_c, 5, 7936
6, 22764, Pitch_bend_c, 5, 8064
6, 22765, Pitch_bend_c, 5, 8064
6, 22766, Pitch_bend_c, 5, 8064
6, 22767, Pitch_bend_c, 5, 8064
6, 22768, Pitch_bend_c, 5, 8192
6, 22769, Pitch_bend_c, 5, 8192
6, 22770, Pitch_bend_c, 5, 8192
6, 22771, Pitch_bend_c, 5, 8320
6, 22772, Pitch_bend_c, 5, 8320
6, 22773, Pitch_bend_c, 5, 8320
6, 22774, Pitch_bend_c, 5, 8320
6, 22775, Pitch_bend_c, 5, 8320
6, 22776, Pitch_bend_c, 5, 8320
6, 22777, Pitch_bend_c, 5, 8320
6, 22778, Pitch_bend_c, 5, 8320
6, 22779, Pitch_bend_c, 5, 8320
6, 22779, Pitch_bend_c, 5, 8320
6, 22780, Pitch_bend_c, 5, 8320
6, 22781, Pitch_bend_c, 5, 8320
6, 22782, Pitch_bend_c, 5, 8320
6, 22783, Pitch_bend_c, 5, 8192
6, 22784, Note_off_c, 5, 47, 0
6, 22784, Pitch_bend_c, 5, 8192
6, 23234, Note_on_c, 5, 52, 95
6, 23234, Pitch_bend_c, 5, 6784
6, 23242, Pitch_bend_c, 5, 7552
6, 23249, Pitch_bend_c, 5, 8192
6, 23279, Note_off_c, 5, 52, 0
6, 23399, Note_on_c, 5, 62, 95
6, 23399, Pitch_bend_c, 5, 8192
6, 23403, Pitch_bend_c, 5, 8448
6, 23407, Pitch_bend_c, 5, 9344
6, 23411, Pitch_bend_c, 5, 9600
6, 23423, Pitch_bend_c, 5, 8832
6, 23427, Pitch_bend_c, 5, 8320
6, 23431, Pitch_bend_c, 5, 8192
6, 23439, Note_off_c, 5, 62, 0
6, 23439, Pitch_bend_c, 5, 8192
6, 23504, Note_on_c, 5, 62, 95
6, 23504, Pitch_bend_c, 5, 6784
6, 23512, Pitch_bend_c, 5, 7552
6, 23519, Pitch_bend_c, 5, 8192
6, 23519, Pitch_bend_c, 5, 8192
6, 23520, Pitch_bend_c, 5, 8192
6, 23521, Pitch_bend_c, 5, 8192
6, 23522, Pitch_bend_c, 5, 8192
6, 23523, Pitch_bend_c, 5, 8192
6, 23524, Pitch_bend_c, 5, 8192
6, 23525, Pitch_bend_c, 5, 8064
6, 23526, Pitch_bend_c, 5, 8064
6, 23527, Pitch_bend_c, 5, 8064
6, 23528, Pitch_bend_c, 5, 8064
6, 23529, Pitch_bend_c, 5, 8064
6, 23529, Pitch_bend_c, 5, 8192
6, 23530, Pitch_bend_c, 5, 8192
6, 23531, Pitch_bend_c, 5, 8192
6, 23532, Pitch_bend_c, 5, 8192
6, 23533, Pitch_bend_c, 5, 8192
6, 23534, Pitch_bend_c, 5, 8192
6, 23535, Pitch_bend_c, 5, 8192
6, 23536, Pitch_bend_c, 5, 8192
6, 23537, Pitch_bend_c, 5, 8192
6, 23538, Pitch_bend_c, 5, 8192
6, 23539, Pitch_bend_c, 5, 8192
6, 23540, Pitch_bend_c, 5, 8320
6, 23541, Pitch_bend_c, 5, 8320
6, 23542, Pitch_bend_c, 5, 8320
6, 23543, Pitch_bend_c, 5, 8320
6, 23544, Pitch_bend_c, 5, 8320
6, 23544, Pitch_bend_c, 5, 8192
6, 23545, Pitch_bend_c, 5, 8192
6, 23546, Pitch_bend_c, 5, 8192
6, 23547, Pitch_bend_c, 5, 8192
6, 23548, Pitch_bend_c, 5, 8192
6, 23549, Pitch_bend_c, 5, 8192
6, 23550, Pitch_bend_c, 5, 8192
6, 23551, Pitch_bend_c, 5, 8192
6, 23552, Pitch_bend_c, 5, 8320
6, 23553, Pitch_bend_c, 5, 8320
6, 23554, Pitch_bend_c, 5, 8320
6, 23555, Pitch_bend_c, 5, 8320
6, 23556, Pitch_bend_c, 5, 8320
6, 23557, Pitch_bend_c, 5, 8320
6, 23558, Pitch_bend_c, 5, 8320
6, 23559, Pitch_bend_c, 5, 8320
6, 23559, Pitch_bend_c, 5, 8320
6, 23560, Pitch_bend_c, 5, 8320
6, 23561, Pitch_bend_c, 5, 8320
6, 23562, Pitch_bend_c, 5, 8192
6, 23563, Pitch_bend_c, 5, 8192
6, 23564, Pitch_bend_c, 5, 8192
6, 23565, Pitch_bend_c, 5, 8192
6, 23566, Pitch_bend_c, 5, 8192
6, 23567, Pitch_bend_c, 5, 8064
6, 23568, Pitch_bend_c, 5, 8064
6, 23569, Pitch_bend_c, 5, 8064
6, 23570, Pitch_bend_c, 5, 8064
6, 23571, Pitch_bend_c, 5, 8064
6, 23572, Pitch_bend_c, 5, 8064
6, 23573, Pitch_bend_c, 5, 8064
6, 23574, Pitch_bend_c, 5, 8064
6, 23574, Pitch_bend_c, 5, 8064
6, 23575, Pitch_bend_c, 5, 8064
6, 23576, Pitch_bend_c, 5, 8064
6, 23577, Pitch_bend_c, 5, 8192
6, 23578, Pitch_bend_c, 5, 8192
6, 23579, Pitch_bend_c, 5, 8192
6, 23580, Pitch_bend_c, 5, 8192
6, 23581, Pitch_bend_c, 5, 8192
6, 23582, Pitch_bend_c, 5, 8320
6, 23583, Pitch_bend_c, 5, 8320
6, 23584, Pitch_bend_c, 5, 8320
6, 23585, Pitch_bend_c, 5, 8320
6, 23586, Pitch_bend_c, 5, 8320
6, 23587, Pitch_bend_c, 5, 8320
6, 23588, Pitch_bend_c, 5, 8320
6, 23589, Pitch_bend_c, 5, 8320
6, 23589, Pitch_bend_c, 5, 8320
6, 23590, Pitch_bend_c, 5, 8320
6, 23591, Pitch_bend_c, 5, 8320
6, 23592, Pitch_bend_c, 5, 8192
6, 23593, Pitch_bend_c, 5, 8192
6, 23594, Pitch_bend_c, 5, 8192
6, 23595, Pitch_bend_c, 5, 8192
6, 23596, Pitch_bend_c, 5, 8192
6, 23597, Pitch_bend_c, 5, 8064
6, 23598, Pitch_bend_c, 5, 8064
6, 23599, Pitch_bend_c, 5, 8064
6, 23600, Pitch_bend_c, 5, 8064
6, 23601, Pitch_bend_c, 5, 8064
6, 23602, Pitch_bend_c, 5, 8064
6, 23603, Pitch_bend_c, 5, 8064
6, 23604, Pitch_bend_c, 5, 8064
6, 23604, Pitch_bend_c, 5, 8064
6, 23605, Pitch_bend_c, 5, 8064
6, 23606, Pitch_bend_c, 5, 8064
6, 23607, Pitch_bend_c, 5, 8192
6, 23608, Pitch_bend_c, 5, 8192
6, 23609, Pitch_bend_c, 5, 8192
6, 23610, Pitch_bend_c, 5, 8192
6, 23611, Pitch_bend_c, 5, 8320
6, 23612, Pitch_bend_c, 5, 8320
6, 23613, Pitch_bend_c, 5, 8320
6, 23614, Pitch_bend_c, 5, 8320
6, 23615, Pitch_bend_c, 5, 8320
6, 23616, Pitch_bend_c, 5, 8320
6, 23617, Pitch_bend_c, 5, 8320
6, 23618, Pitch_bend_c, 5, 8320
6, 23619, Pitch_bend_c, 5, 8320
6, 23619, Pitch_bend_c, 5, 8320
6, 23620, Pitch_bend_c, 5, 8320
6, 23621, Pitch_bend_c, 5, 8320
6, 23622, Pitch_bend_c, 5, 8320
6, 23623, Pitch_bend_c, 5, 8192
6, 23624, Pitch_bend_c, 5, 8192
6, 23625, Pitch_bend_c, 5, 8192
6, 23626, Pitch_bend_c, 5, 8064
6, 23627, Pitch_bend_c, 5, 8064
6, 23628, Pitch_bend_c, 5, 8064
6, 23629, Pitch_bend_c, 5, 8064
6, 23630, Pitch_bend_c, 5, 8064
6, 23631, Pitch_bend_c, 5, 8064
6, 23632, Pitch_bend_c, 5, 8064
6, 23633, Pitch_bend_c, 5, 8064
6, 23634, Pitch_bend_c, 5, 8064
6, 23634, Pitch_bend_c, 5, 8064
6, 23635, Pitch_bend_c, 5, 8064
6, 23636, Pitch_bend_c, 5, 8064
6, 23637, Pitch_bend_c, 5, 8064
6, 23638, Pitch_bend_c, 5, 8192
6, 23639, Pitch_bend_c, 5, 8192
6, 23640, Pitch_bend_c, 5, 8192
6, 23641, Pitch_bend_c, 5, 8320
6, 23642, Pitch_bend_c, 5, 8320
6, 23643, Pitch_bend_c, 5, 8320
6, 23644, Pitch_bend_c, 5, 8320
6, 23645, Pitch_bend_c, 5, 8448
6, 23646, Pitch_bend_c, 5, 8448
6, 23647, Pitch_bend_c, 5, 8448
6, 23648, Pitch_bend_c, 5, 8448
6, 23649, Pitch_bend_c, 5, 8448
6, 23649, Pitch_bend_c, 5, 8320
6, 23650, Pitch_bend_c, 5, 8320
6, 23651, Pitch_bend_c, 5, 8320
6, 23652, Pitch_bend_c, 5, 8320
6, 23653, Pitch_bend_c, 5, 8192
6, 23654, Pitch_bend_c, 5, 8192
6, 23655, Pitch_bend_c, 5, 8192
6, 23656, Pitch_bend_c, 5, 8064
6, 23657, Pitch_bend_c, 5, 8064
6, 23658, Pitch_bend_c, 5, 8064
6, 23659, Pitch_bend_c, 5, 8064
6, 23660, Pitch_bend_c, 5, 7936
6, 23661, Pitch_bend_c, 5, 7936
6, 23662, Pitch_bend_c, 5, 7936
6, 23663, Pitch_bend_c, 5, 7936
6, 23664, Pitch_bend_c, 5, 7936
6, 23664, Pitch_bend_c, 5, 8064
6, 23665, Pitch_bend_c, 5, 8064
6, 23666, Pitch_bend_c, 5, 8064
6, 23667, Pitch_bend_c, 5, 8064
6, 23668, Pitch_bend_c, 5, 8192
6, 23669, Pitch_bend_c, 5, 8192
6, 23670, Pitch_bend_c, 5, 8192
6, 23671, Pitch_bend_c, 5, 8320
6, 23672, Pitch_bend_c, 5, 8320
6, 23673, Pitch_bend_c, 5, 8320
6, 23674, Pitch_bend_c, 5, 8448
6, 23675, Pitch_bend_c, 5, 8448
6, 23676, Pitch_bend_c, 5, 8448
6, 23677, Pitch_bend_c, 5, 8448
6, 23678, Pitch_bend_c, 5, 8448
6, 23679, Pitch_bend_c, 5, 8448
6, 23679, Pitch_bend_c, 5, 8448
6, 23680, Pitch_bend_c, 5, 8320
6, 23681, Pitch_bend_c, 5, 8320
6, 23682, Pitch_bend_c, 5, 8320
6, 23683, Pitch_bend_c, 5, 8192
6, 23684, Pitch_bend_c, 5, 8192
6, 23685, Pitch_bend_c, 5, 8192
6, 23686, Pitch_bend_c, 5, 8064
6, 23687, Pitch_bend_c, 5, 8064
6, 23688, Pitch_bend_c, 5, 8064
6, 23689, Pitch_bend_c, 5, 7936
6, 23690, Pitch_bend_c, 5, 7936
6, 23691, Pitch_bend_c, 5, 7936
6, 23692, Pitch_bend_c, 5, 7936
6, 23693, Pitch_bend_c, 5, 7936
6, 23694, Pitch_bend_c, 5, 7936
6, 23694, Pitch_bend_c, 5, 7936
6, 23695, Pitch_bend_c, 5, 8064
6, 23696, Pitch_bend_c, 5, 8064
6, 23697, Pitch_bend_c, 5, 8064
6, 23698, Pitch_bend_c, 5, 8192
6, 23699, Pitch_bend_c, 5, 8192
6, 23700, Pitch_bend_c, 5, 8192
6, 23701, Pitch_bend_c, 5, 8320
6, 23702, Pitch_bend_c, 5, 8320
6, 23703, Pitch_bend_c, 5, 8320
6, 23704, Pitch_bend_c, 5, 8320
6, 23705, Pitch_bend_c, 5, 8448
6, 23706, Pitch_bend_c, 5, 8448
6, 23707, Pitch_bend_c, 5, 8448
6, 23708, Pitch_bend_c, 5, 8448
6, 23709, Pitch_bend_c, 5, 8448
6, 23709, Pitch_bend_c, 5, 8320
6, 23710, Pitch_bend_c, 5, 8320
6, 23711, Pitch_bend_c, 5, 8320
6, 23712, Pitch_bend_c, 5, 8320
6, 23713, Pitch_bend_c, 5, 8192
6, 23714, Pitch_bend_c, 5, 8192
6, 23715, Pitch_bend_c, 5, 8192
6, 23716, Pitch_bend_c, 5, 8064
6, 23717, Pitch_bend_c, 5, 8064
6, 23718, Pitch_bend_c, 5, 8064
6, 23719, Pitch_bend_c, 5, 8064
6, 23720, Pitch_bend_c, 5, 7936
6, 23721, Pitch_bend_c, 5, 7936
6, 23722, Pitch_bend_c, 5, 7936
6, 23723, Pitch_bend_c, 5, 7936
6, 23724, Pitch_bend_c, 5, 7936
6, 23724, Pitch_bend_c, 5, 8064
6, 23725, Pitch_bend_c, 5, 8064
6, 23726, Pitch_bend_c, 5, 8064
6, 23727, Pitch_bend_c, 5, 8064
6, 23728, Pitch_bend_c, 5, 8192
6, 23729, Pitch_bend_c, 5, 8192
6, 23730, Pitch_bend_c, 5, 8192
6, 23731, Pitch_bend_c, 5, 8320
6, 23732, Pitch_bend_c, 5, 8320
6, 23733, Pitch_bend_c, 5, 8320
6, 23734, Pitch_bend_c, 5, 8320
6, 23735, Pitch_bend_c, 5, 8448
6, 23736, Pitch_bend_c, 5, 8448
6, 23737, Pitch_bend_c, 5, 8448
6, 23738, Pitch_bend_c, 5, 8448
6, 23739, Pitch_bend_c, 5, 8448
6, 23739, Pitch_bend_c, 5, 8320
6, 23740, Pitch_bend_c, 5, 8320
6, 23741, Pitch_bend_c, 5, 8320
6, 23742, Pitch_bend_c, 5, 8320
6, 23743, Pitch_bend_c, 5, 8192
6, 23744, Pitch_bend_c, 5, 8192
6, 23745, Pitch_bend_c, 5, 8192
6, 23746, Pitch_bend_c, 5, 8064
6, 23747, Pitch_bend_c, 5, 8064
6, 23748, Pitch_bend_c, 5, 8064
6, 23749, Pitch_bend_c, 5, 8064
6, 23750, Pitch_bend_c, 5, 7936
6, 23751, Pitch_bend_c, 5, 7936
6, 23752, Pitch_bend_c, 5, 7936
6, 23753, Pitch_bend_c, 5, 7936
6, 23754, Pitch_bend_c, 5, 7936
6, 23754, Pitch_bend_c, 5, 8064
6, 23755, Pitch_bend_c, 5, 8064
6, 23756, Pitch_bend_c, 5, 8064
6, 23757, Pitch_bend_c, 5, 8064
6, 23758, Pitch_bend_c, 5, 8192
6, 23759, Pitch_bend_c, 5, 8192
6, 23760, Pitch_bend_c, 5, 8192
6, 23761, Pitch_bend_c, 5, 8320
6, 23762, Pitch_bend_c, 5, 8320
6, 23763, Pitch_bend_c, 5, 8448
6, 23764, Pitch_bend_c, 5, 8448
6, 23765, Pitch_bend_c, 5, 8448
6, 23766, Pitch_bend_c, 5, 8448
6, 23767, Pitch_bend_c, 5, 8448
6, 23768, Pitch_bend_c, 5, 8448
6, 23769, Pitch_bend_c, 5, 8448
6, 23769, Pitch_bend_c, 5, 8448
6, 23770, Pitch_bend_c, 5, 8448
6, 23771, Pitch_bend_c, 5, 8320
6, 23772, Pitch_bend_c, 5, 8320
6, 23773, Pitch_bend_c, 5, 8192
6, 23774, Pitch_bend_c, 5, 8192
6, 23775, Pitch_bend_c, 5, 8192
6, 23776, Pitch_bend_c, 5, 8064
6, 23777, Pitch_bend_c, 5, 8064
6, 23778, Pitch_bend_c, 5, 7936
6, 23779, Pitch_bend_c, 5, 7936
6, 23780, Pitch_bend_c, 5, 7936
6, 23781, Pitch_bend_c, 5, 7936
6, 23782, Pitch_bend_c, 5, 7936
6, 23783, Pitch_bend_c, 5, 7936
6, 23784, Pitch_bend_c, 5, 7936
6, 23784, Pitch_bend_c, 5, 7936
6, 23785, Pitch_bend_c, 5, 7936
6, 23786, Pitch_bend_c, 5, 8064
6, 23787, Pitch_bend_c, 5, 8064
6, 23788, Pitch_bend_c, 5, 8192
6, 23789, Pitch_bend_c, 5, 8192
6, 23790, Pitch_bend_c, 5, 8192
6, 23791, Pitch_bend_c, 5, 8320
6, 23792, Pitch_bend_c, 5, 8320
6, 23793, Pitch_bend_c, 5, 8320
6, 23794, Pitch_bend_c, 5, 8320
6, 23795, Pitch_bend_c, 5, 8320
6, 23796, Pitch_bend_c, 5, 8448
6, 23797, Pitch_bend_c, 5, 8448
6, 23798, Pitch_bend_c, 5, 8448
6, 23799, Pitch_bend_c, 5, 8320
6, 23799, Pitch_bend_c, 5, 8320
6, 23800, Pitch_bend_c, 5, 8320
6, 23801, Pitch_bend_c, 5, 8320
6, 23802, Pitch_bend_c, 5, 8320
6, 23803, Pitch_bend_c, 5, 8192
6, 23804, Pitch_bend_c, 5, 8192
6, 23805, Pitch_bend_c, 5, 8192
6, 23806, Pitch_bend_c, 5, 8064
6, 23807, Pitch_bend_c, 5, 8064
6, 23808, Pitch_bend_c, 5, 8064
6, 23809, Pitch_bend_c, 5, 8064
6, 23810, Pitch_bend_c, 5, 8064
6, 23811, Pitch_bend_c, 5, 7936
6, 23812, Pitch_bend_c, 5, 7936
6, 23813, Pitch_bend_c, 5, 7936
6, 23814, Pitch_bend_c, 5, 8064
6, 23814, Pitch_bend_c, 5, 8064
6, 23815, Pitch_bend_c, 5, 8064
6, 23816, Pitch_bend_c, 5, 8064
6, 23817, Pitch_bend_c, 5, 8064
6, 23818, Pitch_bend_c, 5, 8192
6, 23819, Pitch_bend_c, 5, 8192
6, 23820, Pitch_bend_c, 5, 8320
6, 23821, Pitch_bend_c, 5, 8320
6, 23822, Pitch_bend_c, 5, 8320
6, 23823, Pitch_bend_c, 5, 8448
6, 23824, Pitch_bend_c, 5, 8448
6, 23825, Pitch_bend_c, 5, 8448
6, 23826, Pitch_bend_c, 5, 8448
6, 23827, Pitch_bend_c, 5, 8448
6, 23828, Pitch_bend_c, 5, 8448
6, 23829, Pitch_bend_c, 5, 8448
6, 23829, Pitch_bend_c, 5, 8448
6, 23830, Pitch_bend_c, 5, 8448
6, 23831, Pitch_bend_c, 5, 8320
6, 23832, Pitch_bend_c, 5, 8320
6, 23833, Pitch_bend_c, 5, 8320
6, 23834, Pitch_bend_c, 5, 8192
6, 23835, Pitch_bend_c, 5, 8064
6, 23836, Pitch_bend_c, 5, 8064
6, 23837, Pitch_bend_c, 5, 8064
6, 23838, Pitch_bend_c, 5, 7936
6, 23839, Pitch_bend_c, 5, 7936
6, 23840, Pitch_bend_c, 5, 7936
6, 23841, Pitch_bend_c, 5, 7936
6, 23842, Pitch_bend_c, 5, 7936
6, 23843, Pitch_bend_c, 5, 7936
6, 23844, Pitch_bend_c, 5, 7936
6, 23844, Pitch_bend_c, 5, 7936
6, 23845, Pitch_bend_c, 5, 7936
6, 23846, Pitch_bend_c, 5, 8064
6, 23847, Pitch_bend_c, 5, 8064
6, 23848, Pitch_bend_c, 5, 8064
6, 23849, Pitch_bend_c, 5, 8192
6, 23850, Pitch_bend_c, 5, 8192
6, 23851, Pitch_bend_c, 5, 8320
6, 23852, Pitch_bend_c, 5, 8320
6, 23853, Pitch_bend_c, 5, 8320
6, 23854, Pitch_bend_c, 5, 8320
6, 23855, Pitch_bend_c, 5, 8320
6, 23856, Pitch_bend_c, 5, 8320
6, 23857, Pitch_bend_c, 5, 8320
6, 23858, Pitch_bend_c, 5, 8320
6, 23859, Pitch_bend_c, 5, 8320
6, 23859, Pitch_bend_c, 5, 8320
6, 23860, Pitch_bend_c, 5, 8320
6, 23861, Pitch_bend_c, 5, 8320
6, 23862, Pitch_bend_c, 5, 8320
6, 23863, Pitch_bend_c, 5, 8192
6, 23864, Pitch_bend_c, 5, 8192
6, 23865, Pitch_bend_c, 5, 8192
6, 23866, Pitch_bend_c, 5, 8064
6, 23867, Pitch_bend_c, 5, 8064
6, 23868, Pitch_bend_c, 5, 8064
6, 23869, Pitch_bend_c, 5, 8064
6, 23870, Pitch_bend_c, 5, 8064
6, 23871, Pitch_bend_c, 5, 8064
6, 23872, Pitch_bend_c, 5, 8064
6, 23873, Pitch_bend_c, 5, 8064
6, 23874, Pitch_bend_c, 5, 8064
6, 23874, Pitch_bend_c, 5, 8064
6, 23875, Pitch_bend_c, 5, 8064
6, 23876, Pitch_bend_c, 5, 8064
6, 23877, Pitch_bend_c, 5, 8064
6, 23878, Pitch_bend_c, 5, 8192
6, 23879, Pitch_bend_c, 5, 8192
6, 23880, Pitch_bend_c, 5, 8192
6, 23881, Pitch_bend_c, 5, 8320
6, 23882, Pitch_bend_c, 5, 8320
6, 23883, Pitch_bend_c, 5, 8320
6, 23884, Pitch_bend_c, 5, 8320
6, 23885, Pitch_bend_c, 5, 8448
6, 23886, Pitch_bend_c, 5, 8448
6, 23887, Pitch_bend_c, 5, 8448
6, 23888, Pitch_bend_c, 5, 8448
6, 23889, Pitch_bend_c, 5, 8448
6, 23889, Pitch_bend_c, 5, 8320
6, 23890, Pitch_bend_c, 5, 8320
6, 23891, Pitch_bend_c, 5, 8320
6, 23892, Pitch_bend_c, 5, 8320
6, 23893, Pitch_bend_c, 5, 8192
6, 23894, Pitch_bend_c, 5, 8192
6, 23895, Pitch_bend_c, 5, 8192
6, 23896, Pitch_bend_c, 5, 8064
6, 23897, Pitch_bend_c, 5, 8064
6, 23898, Pitch_bend_c, 5, 8064
6, 23899, Pitch_bend_c, 5, 8064
6, 23900, Pitch_bend_c, 5, 7936
6, 23901, Pitch_bend_c, 5, 7936
6, 23902, Pitch_bend_c, 5, 7936
6, 23903, Pitch_bend_c, 5, 7936
6, 23904, Pitch_bend_c, 5, 7936
6, 23904, Pitch_bend_c, 5, 8064
6, 23905, Pitch_bend_c, 5, 8064
6, 23906, Pitch_bend_c, 5, 8064
6, 23907, Pitch_bend_c, 5, 8064
6, 23908, Pitch_bend_c, 5, 8192
6, 23909, Pitch_bend_c, 5, 8192
6, 23910, Pitch_bend_c, 5, 8192
6, 23911, Pitch_bend_c, 5, 8320
6, 23912, Pitch_bend_c, 5, 8320
6, 23913, Pitch_bend_c, 5, 8320
6, 23914, Pitch_bend_c, 5, 8320
6, 23915, Pitch_bend_c, 5, 8320
6, 23916, Pitch_bend_c, 5, 8448
6, 23917, Pitch_bend_c, 5, 8448
6, 23918, Pitch_bend_c, 5, 8448
6, 23919, Pitch_bend_c, 5, 8320
6, 23919, Pitch_bend_c, 5, 8320
6, 23920, Pitch_bend_c, 5, 8320
6, 23921, Pitch_bend_c, 5, 8320
6, 23922, Pitch_bend_c, 5, 8320
6, 23923, Pitch_bend_c, 5, 8192
6, 23924, Pitch_bend_c, 5, 8192
6, 23925, Pitch_bend_c, 5, 8192
6, 23926, Pitch_bend_c, 5, 8064
6, 23927, Pitch_bend_c, 5, 8064
6, 23928, Pitch_bend_c, 5, 8064
6, 23929, Pitch_bend_c, 5, 8064
6, 23930, Pitch_bend_c, 5, 8064
6, 23931, Pitch_bend_c, 5, 7936
6, 23932, Pitch_bend_c, 5, 7936
6, 23933, Pitch_bend_c, 5, 7936
6, 23934, Pitch_bend_c, 5, 8064
6, 23934, Pitch_bend_c, 5, 8064
6, 23935, Pitch_bend_c, 5, 8064
6, 23936, Pitch_bend_c, 5, 8064
6, 23937, Pitch_bend_c, 5, 8064
6, 23938, Pitch_bend_c, 5, 8192
6, 23939, Pitch_bend_c, 5, 8192
6, 23940, Pitch_bend_c, 5, 8192
6, 23941, Pitch_bend_c, 5, 8320
6, 23942, Pitch_bend_c, 5, 8320
6, 23943, Pitch_bend_c, 5, 8320
6, 23944, Pitch_bend_c, 5, 8320
6, 23945, Pitch_bend_c, 5, 8320
6, 23946, Pitch_bend_c, 5, 8448
6, 23947, Pitch_bend_c, 5, 8448
6, 23948, Pitch_bend_c, 5, 8448
6, 23949, Pitch_bend_c, 5, 8320
6, 23949, Pitch_bend_c, 5, 8320
6, 23950, Pitch_bend_c, 5, 8320
6, 23951, Pitch_bend_c, 5, 8320
6, 23952, Pitch_bend_c, 5, 8320
6, 23953, Pitch_bend_c, 5, 8192
6, 23954, Pitch_bend_c, 5, 8192
6, 23955, Pitch_bend_c, 5, 8192
6, 23956, Pitch_bend_c, 5, 8064
6, 23957, Pitch_bend_c, 5, 8064
6, 23958, Pitch_bend_c, 5, 8064
6, 23959, Pitch_bend_c, 5, 8064
6, 23960, Pitch_bend_c, 5, 8064
6, 23961, Pitch_bend_c, 5, 7936
6, 23962, Pitch_bend_c, 5, 7936
6, 23963, Pitch_bend_c, 5, 7936
6, 23964, Pitch_bend_c, 5, 8064
6, 23964, Pitch_bend_c, 5, 8064
6, 23965, Pitch_bend_c, 5, 8064
6, 23966, Pitch_bend_c, 5, 8064
6, 23967, Pitch_bend_c, 5, 8064
6, 23968, Pitch_bend_c, 5, 8192
6, 23969, Pitch_bend_c, 5, 8192
6, 23970, Pitch_bend_c, 5, 8192
6, 23971, Pitch_bend_c, 5, 8192
6, 23972, Pitch_bend_c, 5, 8320
6, 23973, Pitch_bend_c, 5, 8320
6, 23974, Pitch_bend_c, 5, 8320
6, 23975, Pitch_bend_c, 5, 8320
6, 23976, Pitch_bend_c, 5, 8320
6, 23977, Pitch_bend_c, 5, 8320
6, 23978, Pitch_bend_c, 5, 8320
6, 23979, Pitch_bend_c, 5, 8320
6, 23979, Pitch_bend_c, 5, 8320
6, 23980, Pitch_bend_c, 5, 8320
6, 23981, Pitch_bend_c, 5, 8320
6, 23982, Pitch_bend_c, 5, 8192
6, 23983, Pitch_bend_c, 5, 8192
6, 23984, Pitch_bend_c, 5, 8192
6, 23985, Pitch_bend_c, 5, 8192
6, 23986, Pitch_bend_c, 5, 8192
6, 23987, Pitch_bend_c, 5, 8064
6, 23988, Pitch_bend_c, 5, 8064
6, 23989, Pitch_bend_c, 5, 8064
6, 23990, Pitch_bend_c, 5, 8064
6, 23991, Pitch_bend_c, 5, 8064
6, 23992, Pitch_bend_c, 5, 8064
6, 23993, Pitch_bend_c, 5, 8064
6, 23994, Pitch_bend_c, 5, 8064
6, 23994, Pitch_bend_c, 5, 8064
6, 23995, Pitch_bend_c, 5, 8064
6, 23996, Pitch_bend_c, 5, 8064
6, 23997, Pitch_bend_c, 5, 8192
6, 23998, Pitch_bend_c, 5, 8192
6, 23999, Note_off_c, 5, 62, 0
6, 23999, Pitch_bend_c, 5, 8192
6, 23999, Note_on_c, 5, 60, 95
6, 23999, Pitch_bend_c, 5, 8192
6, 24000, Pitch_bend_c, 5, 8192
6, 24001, Pitch_bend_c, 5, 8192
6, 24002, Pitch_bend_c, 5, 8192
6, 24003, Pitch_bend_c, 5, 8192
6, 24004, Pitch_bend_c, 5, 8192
6, 24005, Pitch_bend_c, 5, 8064
6, 24006, Pitch_bend_c, 5, 8064
6, 24007, Pitch_bend_c, 5, 8064
6, 24008, Pitch_bend_c, 5, 8064
6, 24009, Pitch_bend_c, 5, 8064
6, 24009, Pitch_bend_c, 5, 8192
6, 24010, Pitch_bend_c, 5, 8192
6, 24011, Pitch_bend_c, 5, 8192
6, 24012, Pitch_bend_c, 5, 8192
6, 24013, Pitch_bend_c, 5, 8192
6, 24014, Pitch_bend_c, 5, 8192
6, 24015, Pitch_bend_c, 5, 8192
6, 24016, Pitch_bend_c, 5, 8192
6, 24017, Pitch_bend_c, 5, 8192
6, 24018, Pitch_bend_c, 5, 8192
6, 24019, Pitch_bend_c, 5, 8192
6, 24020, Pitch_bend_c, 5, 8320
6, 24021, Pitch_bend_c, 5, 8320
6, 24022, Pitch_bend_c, 5, 8320
6, 24023, Pitch_bend_c, 5, 8320
6, 24024, Pitch_bend_c, 5, 8320
6, 24024, Pitch_bend_c, 5, 8192
6, 24025, Pitch_bend_c, 5, 8192
6, 24026, Pitch_bend_c, 5, 8192
6, 24027, Pitch_bend_c, 5, 8192
6, 24028, Pitch_bend_c, 5, 8192
6, 24029, Pitch_bend_c, 5, 8192
6, 24030, Pitch_bend_c, 5, 8192
6, 24031, Pitch_bend_c, 5, 8192
6, 24032, Pitch_bend_c, 5, 8192
6, 24033, Pitch_bend_c, 5, 8192
6, 24034, Pitch_bend_c, 5, 8320
6, 24035, Pitch_bend_c, 5, 8320
6, 24036, Pitch_bend_c, 5, 8320
6, 24037, Pitch_bend_c, 5, 8320
6, 24038, Pitch_bend_c, 5, 8320
6, 24039, Pitch_bend_c, 5, 8320
6, 24039, Pitch_bend_c, 5, 8320
6, 24040, Pitch_bend_c, 5, 8192
6, 24041, Pitch_bend_c, 5, 8192
6, 24042, Pitch_bend_c, 5, 8192
6, 24043, Pitch_bend_c, 5, 8192
6, 24044, Pitch_bend_c, 5, 8192
6, 24045, Pitch_bend_c, 5, 8192
6, 24046, Pitch_bend_c, 5, 8192
6, 24047, Pitch_bend_c, 5, 8192
6, 24048, Pitch_bend_c, 5, 8192
6, 24049, Pitch_bend_c, 5, 8064
6, 24050, Pitch_bend_c, 5, 8064
6, 24051, Pitch_bend_c, 5, 8064
6, 24052, Pitch_bend_c, 5, 8064
6, 24053, Pitch_bend_c, 5, 8064
6, 24054, Pitch_bend_c, 5, 8064
6, 24054, Pitch_bend_c, 5, 8064
6, 24055, Pitch_bend_c, 5, 8192
6, 24056, Pitch_bend_c, 5, 8192
6, 24057, Pitch_bend_c, 5, 8192
6, 24058, Pitch_bend_c, 5, 8192
6, 24059, Pitch_bend_c, 5, 8192
6, 24060, Pitch_bend_c, 5, 8192
6, 24061, Pitch_bend_c, 5, 8320
6, 24062, Pitch_bend_c, 5, 8320
6, 24063, Pitch_bend_c, 5, 8320
6, 24064, Pitch_bend_c, 5, 8320
6, 24065, Pitch_bend_c, 5, 8448
6, 24066, Pitch_bend_c, 5, 8448
6, 24067, Pitch_bend_c, 5, 8448
6, 24068, Pitch_bend_c, 5, 8448
6, 24069, Pitch_bend_c, 5, 8448
6, 24069, Pitch_bend_c, 5, 8320
6, 24070, Pitch_bend_c, 5, 8320
6, 24071, Pitch_bend_c, 5, 8320
6, 24072, Pitch_bend_c, 5, 8320
6, 24073, Pitch_bend_c, 5, 8192
6, 24074, Pitch_bend_c, 5, 8192
6, 24075, Pitch_bend_c, 5, 8192
6, 24076, Pitch_bend_c, 5, 8064
6, 24077, Pitch_bend_c, 5, 8064
6, 24078, Pitch_bend_c, 5, 8064
6, 24079, Pitch_bend_c, 5, 8064
6, 24080, Pitch_bend_c, 5, 7936
6, 24081, Pitch_bend_c, 5, 7936
6, 24082, Pitch_bend_c, 5, 7936
6, 24083, Pitch_bend_c, 5, 7936
6, 24084, Pitch_bend_c, 5, 7936
6, 24084, Pitch_bend_c, 5, 8064
6, 24085, Pitch_bend_c, 5, 8064
6, 24086, Pitch_bend_c, 5, 8064
6, 24087, Pitch_bend_c, 5, 8064
6, 24088, Pitch_bend_c, 5, 8192
6, 24089, Pitch_bend_c, 5, 8192
6, 24090, Pitch_bend_c, 5, 8320
6, 24091, Pitch_bend_c, 5, 8320
6, 24092, Pitch_bend_c, 5, 8320
6, 24093, Pitch_bend_c, 5, 8448
6, 24094, Pitch_bend_c, 5, 8448
6, 24095, Pitch_bend_c, 5, 8448
6, 24096, Pitch_bend_c, 5, 8448
6, 24097, Pitch_bend_c, 5, 8448
6, 24098, Pitch_bend_c, 5, 8448
6, 24099, Pitch_bend_c, 5, 8448
6, 24099, Pitch_bend_c, 5, 8448
6, 24100, Pitch_bend_c, 5, 8448
6, 24101, Pitch_bend_c, 5, 8320
6, 24102, Pitch_bend_c, 5, 8320
6, 24103, Pitch_bend_c, 5, 8320
6, 24104, Pitch_bend_c, 5, 8192
6, 24105, Pitch_bend_c, 5, 8064
6, 24106, Pitch_bend_c, 5, 8064
6, 24107, Pitch_bend_c, 5, 8064
6, 24108, Pitch_bend_c, 5, 7936
6, 24109, Pitch_bend_c, 5, 7936
6, 24110, Pitch_bend_c, 5, 7936
6, 24111, Pitch_bend_c, 5, 7936
6, 24112, Pitch_bend_c, 5, 7936
6, 24113, Pitch_bend_c, 5, 7936
6, 24114, Pitch_bend_c, 5, 7936
6, 24114, Pitch_bend_c, 5, 7936
6, 24115, Pitch_bend_c, 5, 7936
6, 24116, Pitch_bend_c, 5, 8064
6, 24117, Pitch_bend_c, 5, 8064
6, 24118, Pitch_bend_c, 5, 8064
6, 24119, Pitch_bend_c, 5, 8192
6, 24120, Pitch_bend_c, 5, 8192
6, 24121, Pitch_bend_c, 5, 8320
6, 24122, Pitch_bend_c, 5, 8320
6, 24123, Pitch_bend_c, 5, 8320
6, 24124, Pitch_bend_c, 5, 8448
6, 24125, Pitch_bend_c, 5, 8448
6, 24126, Pitch_bend_c, 5, 8448
6, 24127, Pitch_bend_c, 5, 8448
6, 24128, Pitch_bend_c, 5, 8448
6, 24129, Pitch_bend_c, 5, 8448
6, 24129, Pitch_bend_c, 5, 8448
6, 24130, Pitch_bend_c, 5, 8320
6, 24131, Pitch_bend_c, 5, 8320
6, 24132, Pitch_bend_c, 5, 8320
6, 24133, Pitch_bend_c, 5, 8192
6, 24134, Pitch_bend_c, 5, 8192
6, 24135, Pitch_bend_c, 5, 8192
6, 24136, Pitch_bend_c, 5, 8064
6, 24137, Pitch_bend_c, 5, 8064
6, 24138, Pitch_bend_c, 5, 8064
6, 24139, Pitch_bend_c, 5, 7936
6, 24140, Pitch_bend_c, 5, 7936
6, 24141, Pitch_bend_c, 5, 7936
6, 24142, Pitch_bend_c, 5, 7936
6, 24143, Pitch_bend_c, 5, 7936
6, 24144, Pitch_bend_c, 5, 7936
6, 24144, Pitch_bend_c, 5, 7936
6, 24145, Pitch_bend_c, 5, 8064
6, 24146, Pitch_bend_c, 5, 8064
6, 24147, Pitch_bend_c, 5, 8064
6, 24148, Pitch_bend_c, 5, 8192
6, 24149, Pitch_bend_c, 5, 8192
6, 24150, Pitch_bend_c, 5, 8192
6, 24151, Pitch_bend_c, 5, 8320
6, 24152, Pitch_bend_c, 5, 8320
6, 24153, Pitch_bend_c, 5, 8320
6, 24154, Pitch_bend_c, 5, 8320
6, 24155, Pitch_bend_c, 5, 8320
6, 24156, Pitch_bend_c, 5, 8320
6, 24157, Pitch_bend_c, 5, 8320
6, 24158, Pitch_bend_c, 5, 8320
6, 24159, Pitch_bend_c, 5, 8320
6, 24159, Pitch_bend_c, 5, 8320
6, 24160, Pitch_bend_c, 5, 8320
6, 24161, Pitch_bend_c, 5, 8320
6, 24162, Pitch_bend_c, 5, 8320
6, 24163, Pitch_bend_c, 5, 8192
6, 24164, Pitch_bend_c, 5, 8192
6, 24165, Pitch_bend_c, 5, 8192
6, 24166, Pitch_bend_c, 5, 8064
6, 24167, Pitch_bend_c, 5, 8064
6, 24168, Pitch_bend_c, 5, 8064
6, 24169, Pitch_bend_c, 5, 8064
6, 24170, Pitch_bend_c, 5, 8064
6, 24171, Pitch_bend_c, 5, 8064
6, 24172, Pitch_bend_c, 5, 8064
6, 24173, Pitch_bend_c, 5, 8064
6, 24174, Pitch_bend_c, 5, 8064
6, 24174, Pitch_bend_c, 5, 8064
6, 24175, Pitch_bend_c, 5, 8064
6, 24176, Pitch_bend_c, 5, 8064
6, 24177, Pitch_bend_c, 5, 8064
6, 24178, Pitch_bend_c, 5, 8192
6, 24179, Pitch_bend_c, 5, 8192
6, 24180, Pitch_bend_c, 5, 8192
6, 24181, Pitch_bend_c, 5, 8320
6, 24182, Pitch_bend_c, 5, 8320
6, 24183, Pitch_bend_c, 5, 8320
6, 24184, Pitch_bend_c, 5, 8320
6, 24185, Pitch_bend_c, 5, 8448
6, 24186, Pitch_bend_c, 5, 8448
6, 24187, Pitch_bend_c, 5, 8448
6, 24188, Pitch_bend_c, 5, 8448
6, 24189, Pitch_bend_c, 5, 8448
6, 24189, Pitch_bend_c, 5, 8320
6, 24190, Pitch_bend_c, 5, 8320
6, 24191, Pitch_bend_c, 5, 8320
6, 24192, Pitch_bend_c, 5, 8320
6, 24193, Pitch_bend_c, 5, 8192
6, 24194, Pitch_bend_c, 5, 8192
6, 24195, Pitch_bend_c, 5, 8192
6, 24196, Pitch_bend_c, 5, 8064
6, 24197, Pitch_bend_c, 5, 8064
6, 24198, Pitch_bend_c, 5, 8064
6, 24199, Pitch_bend_c, 5, 8064
6, 24200, Pitch_bend_c, 5, 7936
6, 24201, Pitch_bend_c, 5, 7936
6, 24202, Pitch_bend_c, 5, 7936
6, 24203, Pitch_bend_c, 5, 7936
6, 24204, Pitch_bend_c, 5, 7936
6, 24204, Pitch_bend_c, 5, 8064
6, 24205, Pitch_bend_c, 5, 8064
6, 24206, Pitch_bend_c, 5, 8064
6, 24207, Pitch_bend_c, 5, 8064
6, 24208, Pitch_bend_c, 5, 8192
6, 24209, Pitch_bend_c, 5, 8192
6, 24210, Pitch_bend_c, 5, 8192
6, 24211, Pitch_bend_c, 5, 8320
6, 24212, Pitch_bend_c, 5, 8320
6, 24213, Pitch_bend_c, 5, 8320
6, 24214, Pitch_bend_c, 5, 8448
6, 24215, Pitch_bend_c, 5, 8448
6, 24216, Pitch_bend_c, 5, 8448
6, 24217, Pitch_bend_c, 5, 8448
6, 24218, Pitch_bend_c, 5, 8448
6, 24219, Pitch_bend_c, 5, 8448
6, 24219, Pitch_bend_c, 5, 8448
6, 24220, Pitch_bend_c, 5, 8320
6, 24221, Pitch_bend_c, 5, 8320
6, 24222, Pitch_bend_c, 5, 8320
6, 24223, Pitch_bend_c, 5, 8192
6, 24224, Pitch_bend_c, 5, 8192
6, 24225, Pitch_bend_c, 5, 8192
6, 24226, Pitch_bend_c, 5, 8064
6, 24227, Pitch_bend_c, 5, 8064
6, 24228, Pitch_bend_c, 5, 8064
6, 24229, Pitch_bend_c, 5, 7936
6, 24230, Pitch_bend_c, 5, 7936
6, 24231, Pitch_bend_c, 5, 7936
6, 24232, Pitch_bend_c, 5, 7936
6, 24233, Pitch_bend_c, 5, 7936
6, 24234, Pitch_bend_c, 5, 7936
6, 24234, Pitch_bend_c, 5, 7936
6, 24235, Pitch_bend_c, 5, 8064
6, 24236, Pitch_bend_c, 5, 8064
6, 24237, Pitch_bend_c, 5, 8064
6, 24238, Pitch_bend_c, 5, 8192
6, 24239, Pitch_bend_c, 5, 8192
6, 24240, Pitch_bend_c, 5, 8192
6, 24241, Pitch_bend_c, 5, 8320
6, 24242, Pitch_bend_c, 5, 8320
6, 24243, Pitch_bend_c, 5, 8320
6, 24244, Pitch_bend_c, 5, 8448
6, 24245, Pitch_bend_c, 5, 8448
6, 24246, Pitch_bend_c, 5, 8448
6, 24247, Pitch_bend_c, 5, 8448
6, 24248, Pitch_bend_c, 5, 8448
6, 24249, Pitch_bend_c, 5, 8448
6, 24249, Pitch_bend_c, 5, 8448
6, 24250, Pitch_bend_c, 5, 8320
6, 24251, Pitch_bend_c, 5, 8320
6, 24252, Pitch_bend_c, 5, 8320
6, 24253, Pitch_bend_c, 5, 8192
6, 24254, Pitch_bend_c, 5, 8192
6, 24255, Pitch_bend_c, 5, 8192
6, 24256, Pitch_bend_c, 5, 8064
6, 24257, Pitch_bend_c, 5, 8064
6, 24258, Pitch_bend_c, 5, 8064
6, 24259, Pitch_bend_c, 5, 7936
6, 24260, Pitch_bend_c, 5, 7936
6, 24261, Pitch_bend_c, 5, 7936
6, 24262, Pitch_bend_c, 5, 7936
6, 24263, Pitch_bend_c, 5, 7936
6, 24264, Pitch_bend_c, 5, 7936
6, 24264, Pitch_bend_c, 5, 7936
6, 24265, Pitch_bend_c, 5, 8064
6, 24266, Pitch_bend_c, 5, 8064
6, 24267, Pitch_bend_c, 5, 8064
6, 24268, Pitch_bend_c, 5, 8192
6, 24269, Pitch_bend_c, 5, 8192
6, 24270, Pitch_bend_c, 5, 8192
6, 24271, Pitch_bend_c, 5, 8320
6, 24272, Pitch_bend_c, 5, 8320
6, 24273, Pitch_bend_c, 5, 8320
6, 24274, Pitch_bend_c, 5, 8320
6, 24275, Pitch_bend_c, 5, 8448
6, 24276, Pitch_bend_c, 5, 8448
6, 24277, Pitch_bend_c, 5, 8448
6, 24278, Pitch_bend_c, 5, 8448
6, 24279, Pitch_bend_c, 5, 8448
6, 24279, Pitch_bend_c, 5, 8320
6, 24280, Pitch_bend_c, 5, 8320
6, 24281, Pitch_bend_c, 5, 8320
6, 24282, Pitch_bend_c, 5, 8320
6, 24283, Pitch_bend_c, 5, 8192
6, 24284, Pitch_bend_c, 5, 8192
6, 24285, Pitch_bend_c, 5, 8192
6, 24286, Pitch_bend_c, 5, 8064
6, 24287, Pitch_bend_c, 5, 8064
6, 24288, Pitch_bend_c, 5, 8064
6, 24289, Pitch_bend_c, 5, 8064
6, 24290, Pitch_bend_c, 5, 7936
6, 24291, Pitch_bend_c, 5, 7936
6, 24292, Pitch_bend_c, 5, 7936
6, 24293, Pitch_bend_c, 5, 7936
6, 24294, Pitch_bend_c, 5, 7936
6, 24294, Pitch_bend_c, 5, 8064
6, 24295, Pitch_bend_c, 5, 8064
6, 24296, Pitch_bend_c, 5, 8064
6, 24297, Pitch_bend_c, 5, 8064
6, 24298, Pitch_bend_c, 5, 8192
6, 24299, Pitch_bend_c, 5, 8192
6, 24300, Pitch_bend_c, 5, 8192
6, 24301, Pitch_bend_c, 5, 8320
6, 24302, Pitch_bend_c, 5, 8320
6, 24303, Pitch_bend_c, 5, 8320
6, 24304, Pitch_bend_c, 5, 8448
6, 24305, Pitch_bend_c, 5, 8448
6, 24306, Pitch_bend_c, 5, 8448
6, 24307, Pitch_bend_c, 5, 8448
6, 24308, Pitch_bend_c, 5, 8448
6, 24309, Pitch_bend_c, 5, 8448
6, 24309, Pitch_bend_c, 5, 8448
6, 24310, Pitch_bend_c, 5, 8320
6, 24311, Pitch_bend_c, 5, 8320
6, 24312, Pitch_bend_c, 5, 8320
6, 24313, Pitch_bend_c, 5, 8192
6, 24314, Pitch_bend_c, 5, 8192
6, 24315, Pitch_bend_c, 5, 8192
6, 24316, Pitch_bend_c, 5, 8064
6, 24317, Pitch_bend_c, 5, 8064
6, 24318, Pitch_bend_c, 5, 8064
6, 24319, Pitch_bend_c, 5, 7936
6, 24320, Pitch_bend_c, 5, 7936
6, 24321, Pitch_bend_c, 5, 7936
6, 24322, Pitch_bend_c, 5, 7936
6, 24323, Pitch_bend_c, 5, 7936
6, 24324, Pitch_bend_c, 5, 7936
6, 24324, Pitch_bend_c, 5, 7936
6, 24325, Pitch_bend_c, 5, 8064
6, 24326, Pitch_bend_c, 5, 8064
6, 24327, Pitch_bend_c, 5, 8064
6, 24328, Pitch_bend_c, 5, 8192
6, 24329, Pitch_bend_c, 5, 8192
6, 24330, Pitch_bend_c, 5, 8192
6, 24331, Pitch_bend_c, 5, 8320
6, 24332, Pitch_bend_c, 5, 8320
6, 24333, Pitch_bend_c, 5, 8320
6, 24334, Pitch_bend_c, 5, 8320
6, 24335, Pitch_bend_c, 5, 8320
6, 24336, Pitch_bend_c, 5, 8448
6, 24337, Pitch_bend_c, 5, 8448
6, 24338, Pitch_bend_c, 5, 8448
6, 24339, Pitch_bend_c, 5, 8320
6, 24339, Pitch_bend_c, 5, 8320
6, 24340, Pitch_bend_c, 5, 8320
6, 24341, Pitch_bend_c, 5, 8320
6, 24342, Pitch_bend_c, 5, 8320
6, 24343, Pitch_bend_c, 5, 8192
6, 24344, Pitch_bend_c, 5, 8192
6, 24345, Pitch_bend_c, 5, 8192
6, 24346, Pitch_bend_c, 5, 8064
6, 24347, Pitch_bend_c, 5, 8064
6, 24348, Pitch_bend_c, 5, 8064
6, 24349, Pitch_bend_c, 5, 8064
6, 24350, Pitch_bend_c, 5, 8064
6, 24351, Pitch_bend_c, 5, 7936
6, 24352, Pitch_bend_c, 5, 7936
6, 24353, Pitch_bend_c, 5, 7936
6, 24354, Pitch_bend_c, 5, 8064
6, 24354, Pitch_bend_c, 5, 8064
6, 24355, Pitch_bend_c, 5, 8064
6, 24356, Pitch_bend_c, 5, 8064
6, 24357, Pitch_bend_c, 5, 8064
6, 24358, Pitch_bend_c, 5, 8192
6, 24359, Pitch_bend_c, 5, 8192
6, 24360, Pitch_bend_c, 5, 8320
6, 24361, Pitch_bend_c, 5, 8320
6, 24362, Pitch_bend_c, 5, 8320
6, 24363, Pitch_bend_c, 5, 8448
6, 24364, Pitch_bend_c, 5, 8448
6, 24365, Pitch_bend_c, 5, 8448
6, 24366, Pitch_bend_c, 5, 8448
6, 24367, Pitch_bend_c, 5, 8448
6, 24368, Pitch_bend_c, 5, 8448
6, 24369, Pitch_bend_c, 5, 8448
6, 24369, Pitch_bend_c, 5, 8448
6, 24370, Pitch_bend_c, 5, 8448
6, 24371, Pitch_bend_c, 5, 8320
6, 24372, Pitch_bend_c, 5, 8320
6, 24373, Pitch_bend_c, 5, 8320
6, 24374, Pitch_bend_c, 5, 8192
6, 24375, Pitch_bend_c, 5, 8064
6, 24376, Pitch_bend_c, 5, 8064
6, 24377, Pitch_bend_c, 5, 8064
6, 24378, Pitch_bend_c, 5, 7936
6, 24379, Pitch_bend_c, 5, 7936
6, 24380, Pitch_bend_c, 5, 7936
6, 24381, Pitch_bend_c, 5, 7936
6, 24382, Pitch_bend_c, 5, 7936
6, 24383, Pitch_bend_c, 5, 7936
6, 24384, Pitch_bend_c, 5, 7936
6, 24384, Pitch_bend_c, 5, 7936
6, 24385, Pitch_bend_c, 5, 7936
6, 24386, Pitch_bend_c, 5, 8064
6, 24387, Pitch_bend_c, 5, 8064
6, 24388, Pitch_bend_c, 5, 8064
6, 24389, Pitch_bend_c, 5, 8192
6, 24390, Pitch_bend_c, 5, 8192
6, 24391, Pitch_bend_c, 5, 8320
6, 24392, Pitch_bend_c, 5, 8320
6, 24393, Pitch_bend_c, 5, 8320
6, 24394, Pitch_bend_c, 5, 8320
6, 24395, Pitch_bend_c, 5, 8448
6, 24396, Pitch_bend_c, 5, 8448
6, 24397, Pitch_bend_c, 5, 8448
6, 24398, Pitch_bend_c, 5, 8448
6, 24399, Pitch_bend_c, 5, 8448
6, 24399, Pitch_bend_c, 5, 8320
6, 24400, Pitch_bend_c, 5, 8320
6, 24401, Pitch_bend_c, 5, 8320
6, 24402, Pitch_bend_c, 5, 8320
6, 24403, Pitch_bend_c, 5, 8192
6, 24404, Pitch_bend_c, 5, 8192
6, 24405, Pitch_bend_c, 5, 8192
6, 24406, Pitch_bend_c, 5, 8064
6, 24407, Pitch_bend_c, 5, 8064
6, 24408, Pitch_bend_c, 5, 8064
6, 24409, Pitch_bend_c, 5, 8064
6, 24410, Pitch_bend_c, 5, 7936
6, 24411, Pitch_bend_c, 5, 7936
6, 24412, Pitch_bend_c, 5, 7936
6, 24413, Pitch_bend_c, 5, 7936
6, 24414, Pitch_bend_c, 5, 7936
6, 24414, Pitch_bend_c, 5, 8064
6, 24415, Pitch_bend_c, 5, 8064
6, 24416, Pitch_bend_c, 5, 8064
6, 24417, Pitch_bend_c, 5, 8064
6, 24418, Pitch_bend_c, 5, 8192
6, 24419, Pitch_bend_c, 5, 8192
6, 24420, Pitch_bend_c, 5, 8192
6, 24421, Pitch_bend_c, 5, 8192
6, 24422, Pitch_bend_c, 5, 8192
6, 24423, Pitch_bend_c, 5, 8320
6, 24424, Pitch_bend_c, 5, 8320
6, 24425, Pitch_bend_c, 5, 8320
6, 24426, Pitch_bend_c, 5, 8320
6, 24427, Pitch_bend_c, 5, 8320
6, 24428, Pitch_bend_c, 5, 8320
6, 24429, Pitch_bend_c, 5, 8320
6, 24429, Pitch_bend_c, 5, 8320
6, 24430, Pitch_bend_c, 5, 8320
6, 24431, Pitch_bend_c, 5, 8192
6, 24432, Pitch_bend_c, 5, 8192
6, 24433, Pitch_bend_c, 5, 8192
6, 24434, Pitch_bend_c, 5, 8192
6, 24435, Pitch_bend_c, 5, 8192
6, 24436, Pitch_bend_c, 5, 8192
6, 24437, Pitch_bend_c, 5, 8192
6, 24438, Pitch_bend_c, 5, 8064
6, 24439, Pitch_bend_c, 5, 8064
6, 24440, Pitch_bend_c, 5, 8064
6, 24441, Pitch_bend_c, 5, 8064
6, 24442, Pitch_bend_c, 5, 8064
6, 24443, Pitch_bend_c, 5, 8064
6, 24444, Pitch_bend_c, 5, 8064
6, 24444, Pitch_bend_c, 5, 8064
6, 24445, Pitch_bend_c, 5, 8064
6, 24446, Pitch_bend_c, 5, 8192
6, 24447, Pitch_bend_c, 5, 8192
6, 24448, Pitch_bend_c, 5, 8192
6, 24449, Pitch_bend_c, 5, 8192
6, 24450, Pitch_bend_c, 5, 8192
6, 24451, Pitch_bend_c, 5, 8192
6, 24452, Pitch_bend_c, 5, 8192
6, 24453, Pitch_bend_c, 5, 8192
6, 24454, Pitch_bend_c, 5, 8192
6, 24455, Pitch_bend_c, 5, 8320
6, 24456, Pitch_bend_c, 5, 8320
6, 24457, Pitch_bend_c, 5, 8320
6, 24458, Pitch_bend_c, 5, 8320
6, 24459, Pitch_bend_c, 5, 8320
6, 24459, Pitch_bend_c, 5, 8192
6, 24460, Pitch_bend_c, 5, 8192
6, 24461, Pitch_bend_c, 5, 8192
6, 24462, Pitch_bend_c, 5, 8192
6, 24463, Pitch_bend_c, 5, 8192
6, 24464, Note_off_c, 5, 60, 0
6, 24464, Pitch_bend_c, 5, 8192
6, 24464, Note_on_c, 5, 59, 95
6, 24464, Pitch_bend_c, 5, 6784
6, 24472, Pitch_bend_c, 5, 7552
6, 24479, Pitch_bend_c, 5, 8192
6, 24479, Pitch_bend_c, 5, 8192
6, 24480, Pitch_bend_c, 5, 8192
6, 24481, Pitch_bend_c, 5, 8192
6, 24482, Pitch_bend_c, 5, 8192
6, 24483, Pitch_bend_c, 5, 8192
6, 24484, Pitch_bend_c, 5, 8192
6, 24485, Pitch_bend_c, 5, 8192
6, 24486, Pitch_bend_c, 5, 8192
6, 24487, Pitch_bend_c, 5, 8192
6, 24488, Pitch_bend_c, 5, 8192
6, 24489, Pitch_bend_c, 5, 8192
6, 24489, Pitch_bend_c, 5, 8192
6, 24490, Pitch_bend_c, 5, 8192
6, 24491, Pitch_bend_c, 5, 8192
6, 24492, Pitch_bend_c, 5, 8192
6, 24493, Pitch_bend_c, 5, 8192
6, 24494, Pitch_bend_c, 5, 8192
6, 24495, Pitch_bend_c, 5, 8192
6, 24496, Pitch_bend_c, 5, 8192
6, 24497, Pitch_bend_c, 5, 8192
6, 24498, Pitch_bend_c, 5, 8192
6, 24499, Pitch_bend_c, 5, 8192
6, 24500, Pitch_bend_c, 5, 8192
6, 24501, Pitch_bend_c, 5, 8192
6, 24502, Pitch_bend_c, 5, 8192
6, 24503, Pitch_bend_c, 5, 8192
6, 24504, Pitch_bend_c, 5, 8192
6, 24504, Pitch_bend_c, 5, 8192
6, 24505, Pitch_bend_c, 5, 8192
6, 24506, Pitch_bend_c, 5, 8192
6, 24507, Pitch_bend_c, 5, 8192
6, 24508, Pitch_bend_c, 5, 8192
6, 24509, Pitch_bend_c, 5, 8192
6, 24510, Pitch_bend_c, 5, 8192
6, 24511, Pitch_bend_c, 5, 8192
6, 24512, Pitch_bend_c, 5, 8192
6, 24513, Pitch_bend_c, 5, 8192
6, 24514, Pitch_bend_c, 5, 8320
6, 24515, Pitch_bend_c, 5, 8320
6, 24516, Pitch_bend_c, 5, 8320
6, 24517, Pitch_bend_c, 5, 8320
6, 24518, Pitch_bend_c, 5, 8320
6, 24519, Pitch_bend_c, 5, 8320
6, 24519, Pitch_bend_c, 5, 8320
6, 24520, Pitch_bend_c, 5, 8192
6, 24521, Pitch_bend_c, 5, 8192
6, 24522, Pitch_bend_c, 5, 8192
6, 24523, Pitch_bend_c, 5, 8192
6, 24524, Pitch_bend_c, 5, 8192
6, 24525, Pitch_bend_c, 5, 8192
6, 24526, Pitch_bend_c, 5, 8192
6, 24527, Pitch_bend_c, 5, 8192
6, 24528, Pitch_bend_c, 5, 8192
6, 24529, Pitch_bend_c, 5, 8064
6, 24530, Pitch_bend_c, 5, 8064
6, 24531, Pitch_bend_c, 5, 8064
6, 24532, Pitch_bend_c, 5, 8064
6, 24533, Pitch_bend_c, 5, 8064
6, 24534, Pitch_bend_c, 5, 8064
6, 24534, Pitch_bend_c, 5, 8064
6, 24535, Pitch_bend_c, 5, 8192
6, 24536, Pitch_bend_c, 5, 8192
6, 24537, Pitch_bend_c, 5, 8192
6, 24538, Pitch_bend_c, 5, 8192
6, 24539, Pitch_bend_c, 5, 8192
6, 24540, Pitch_bend_c, 5, 8192
6, 24541, Pitch_bend_c, 5, 8320
6, 24542, Pitch_bend_c, 5, 8320
6, 24543, Pitch_bend_c, 5, 8320
6, 24544, Pitch_bend_c, 5, 8448
6, 24545, Pitch_bend_c, 5, 8448
6, 24546, Pitch_bend_c, 5, 8448
6, 24547, Pitch_bend_c, 5, 8448
6, 24548, Pitch_bend_c, 5, 8448
6, 24549, Pitch_bend_c, 5, 8448
6, 24549, Pitch_bend_c, 5, 8448
6, 24550, Pitch_bend_c, 5, 8320
6, 24551, Pitch_bend_c, 5, 8320
6, 24552, Pitch_bend_c, 5, 8320
6, 24553, Pitch_bend_c, 5, 8192
6, 24554, Pitch_bend_c, 5, 8192
6, 24555, Pitch_bend_c, 5, 8192
6, 24556, Pitch_bend_c, 5, 8064
6, 24557, Pitch_bend_c, 5, 8064
6, 24558, Pitch_bend_c, 5, 8064
6, 24559, Pitch_bend_c, 5, 7936
6, 24560, Pitch_bend_c, 5, 7936
6, 24561, Pitch_bend_c, 5, 7936
6, 24562, Pitch_bend_c, 5, 7936
6, 24563, Pitch_bend_c, 5, 7936
6, 24564, Pitch_bend_c, 5, 7936
6, 24564, Pitch_bend_c, 5, 7936
6, 24565, Pitch_bend_c, 5, 8064
6, 24566, Pitch_bend_c, 5, 8064
6, 24567, Pitch_bend_c, 5, 8064
6, 24568, Pitch_bend_c, 5, 8192
6, 24569, Pitch_bend_c, 5, 8192
6, 24570, Pitch_bend_c, 5, 8192
6, 24571, Pitch_bend_c, 5, 8320
6, 24572, Pitch_bend_c, 5, 8320
6, 24573, Pitch_bend_c, 5, 8320
6, 24574, Pitch_bend_c, 5, 8320
6, 24575, Pitch_bend_c, 5, 8320
6, 24576, Pitch_bend_c, 5, 8320
6, 24577, Pitch_bend_c, 5, 8320
6, 24578, Pitch_bend_c, 5, 8320
6, 24579, Pitch_bend_c, 5, 8320
6, 24579, Pitch_bend_c, 5, 8320
6, 24580, Pitch_bend_c, 5, 8320
6, 24581, Pitch_bend_c, 5, 8320
6, 24582, Pitch_bend_c, 5, 8320
6, 24583, Pitch_bend_c, 5, 8192
6, 24584, Pitch_bend_c, 5, 8192
6, 24585, Pitch_bend_c, 5, 8192
6, 24586, Pitch_bend_c, 5, 8064
6, 24587, Pitch_bend_c, 5, 8064
6, 24588, Pitch_bend_c, 5, 8064
6, 24589, Pitch_bend_c, 5, 8064
6, 24590, Pitch_bend_c, 5, 8064
6, 24591, Pitch_bend_c, 5, 8064
6, 24592, Pitch_bend_c, 5, 8064
6, 24593, Pitch_bend_c, 5, 8064
6, 24594, Pitch_bend_c, 5, 8064
6, 24594, Pitch_bend_c, 5, 8064
6, 24595, Pitch_bend_c, 5, 8064
6, 24596, Pitch_bend_c, 5, 8064
6, 24597, Pitch_bend_c, 5, 8064
6, 24598, Pitch_bend_c, 5, 8192
6, 24599, Pitch_bend_c, 5, 8192
6, 24600, Pitch_bend_c, 5, 8192
6, 24601, Pitch_bend_c, 5, 8320
6, 24602, Pitch_bend_c, 5, 8320
6, 24603, Pitch_bend_c, 5, 8320
6, 24604, Pitch_bend_c, 5, 8448
6, 24605, Pitch_bend_c, 5, 8448
6, 24606, Pitch_bend_c, 5, 8448
6, 24607, Pitch_bend_c, 5, 8448
6, 24608, Pitch_bend_c, 5, 8448
6, 24609, Pitch_bend_c, 5, 8448
6, 24609, Pitch_bend_c, 5, 8448
6, 24610, Pitch_bend_c, 5, 8320
6, 24611, Pitch_bend_c, 5, 8320
6, 24612, Pitch_bend_c, 5, 8320
6, 24613, Pitch_bend_c, 5, 8192
6, 24614, Pitch_bend_c, 5, 8192
6, 24615, Pitch_bend_c, 5, 8192
6, 24616, Pitch_bend_c, 5, 8064
6, 24617, Pitch_bend_c, 5, 8064
6, 24618, Pitch_bend_c, 5, 8064
6, 24619, Pitch_bend_c, 5, 7936
6, 24620, Pitch_bend_c, 5, 7936
6, 24621, Pitch_bend_c, 5, 7936
6, 24622, Pitch_bend_c, 5, 7936
6, 24623, Pitch_bend_c, 5, 7936
6, 24624, Pitch_bend_c, 5, 7936
6, 24624, Pitch_bend_c, 5, 7936
6, 24625, Pitch_bend_c, 5, 8064
6, 24626, Pitch_bend_c, 5, 8064
6, 24627, Pitch_bend_c, 5, 8064
6, 24628, Pitch_bend_c, 5, 8192
6, 24629, Pitch_bend_c, 5, 8192
6, 24630, Pitch_bend_c, 5, 8192
6, 24631, Pitch_bend_c, 5, 8320
6, 24632, Pitch_bend_c, 5, 8320
6, 24633, Pitch_bend_c, 5, 8320
6, 24634, Pitch_bend_c, 5, 8448
6, 24635, Pitch_bend_c, 5, 8448
6, 24636, Pitch_bend_c, 5, 8448
6, 24637, Pitch_bend_c, 5, 8448
6, 24638, Pitch_bend_c, 5, 8448
6, 24639, Pitch_bend_c, 5, 8448
6, 24639, Pitch_bend_c, 5, 8448
6, 24640, Pitch_bend_c, 5, 8320
6, 24641, Pitch_bend_c, 5, 8320
6, 24642, Pitch_bend_c, 5, 8320
6, 24643, Pitch_bend_c, 5, 8192
6, 24644, Pitch_bend_c, 5, 8192
6, 24645, Pitch_bend_c, 5, 8192
6, 24646, Pitch_bend_c, 5, 8064
6, 24647, Pitch_bend_c, 5, 8064
6, 24648, Pitch_bend_c, 5, 8064
6, 24649, Pitch_bend_c, 5, 7936
6, 24650, Pitch_bend_c, 5, 7936
6, 24651, Pitch_bend_c, 5, 7936
6, 24652, Pitch_bend_c, 5, 7936
6, 24653, Pitch_bend_c, 5, 7936
6, 24654, Pitch_bend_c, 5, 7936
6, 24654, Pitch_bend_c, 5, 7936
6, 24655, Pitch_bend_c, 5, 8064
6, 24656, Pitch_bend_c, 5, 8064
6, 24657, Pitch_bend_c, 5, 8064
6, 24658, Pitch_bend_c, 5, 8192
6, 24659, Pitch_bend_c, 5, 8192
6, 24660, Pitch_bend_c, 5, 8192
6, 24661, Pitch_bend_c, 5, 8320
6, 24662, Pitch_bend_c, 5, 8320
6, 24663, Pitch_bend_c, 5, 8320
6, 24664, Pitch_bend_c, 5, 8320
6, 24665, Pitch_bend_c, 5, 8320
6, 24666, Pitch_bend_c, 5, 8320
6, 24667, Pitch_bend_c, 5, 8320
6, 24668, Pitch_bend_c, 5, 8320
6, 24669, Pitch_bend_c, 5, 8320
6, 24669, Pitch_bend_c, 5, 8320
6, 24670, Pitch_bend_c, 5, 8320
6, 24671, Pitch_bend_c, 5, 8320
6, 24672, Pitch_bend_c, 5, 8320
6, 24673, Pitch_bend_c, 5, 8192
6, 24674, Pitch_bend_c, 5, 8192
6, 24675, Pitch_bend_c, 5, 8192
6, 24676, Pitch_bend_c, 5, 8064
6, 24677, Pitch_bend_c, 5, 8064
6, 24678, Pitch_bend_c, 5, 8064
6, 24679, Pitch_bend_c, 5, 8064
6, 24680, Pitch_bend_c, 5, 8064
6, 24681, Pitch_bend_c, 5, 8064
6, 24682, Pitch_bend_c, 5, 8064
6, 24683, Pitch_bend_c, 5, 8064
6, 24684, Pitch_bend_c, 5, 8064
6, 24684, Pitch_bend_c, 5, 8064
6, 24685, Pitch_bend_c, 5, 8064
6, 24686, Pitch_bend_c, 5, 8064
6, 24687, Pitch_bend_c, 5, 8064
6, 24688, Pitch_bend_c, 5, 8192
6, 24689, Pitch_bend_c, 5, 8192
6, 24690, Pitch_bend_c, 5, 8192
6, 24691, Pitch_bend_c, 5, 8320
6, 24692, Pitch_bend_c, 5, 8320
6, 24693, Pitch_bend_c, 5, 8320
6, 24694, Pitch_bend_c, 5, 8320
6, 24695, Pitch_bend_c, 5, 8448
6, 24696, Pitch_bend_c, 5, 8448
6, 24697, Pitch_bend_c, 5, 8448
6, 24698, Pitch_bend_c, 5, 8448
6, 24699, Pitch_bend_c, 5, 8448
6, 24699, Pitch_bend_c, 5, 8320
6, 24700, Pitch_bend_c, 5, 8320
6, 24701, Pitch_bend_c, 5, 8320
6, 24702, Pitch_bend_c, 5, 8320
6, 24703, Pitch_bend_c, 5, 8192
6, 24704, Pitch_bend_c, 5, 8192
6, 24705, Pitch_bend_c, 5, 8192
6, 24706, Pitch_bend_c, 5, 8064
6, 24707, Pitch_bend_c, 5, 8064
6, 24708, Pitch_bend_c, 5, 8064
6, 24709, Pitch_bend_c, 5, 8064
6, 24710, Pitch_bend_c, 5, 7936
6, 24711, Pitch_bend_c, 5, 7936
6, 24712, Pitch_bend_c, 5, 7936
6, 24713, Pitch_bend_c, 5, 7936
6, 24714, Pitch_bend_c, 5, 7936
6, 24714, Pitch_bend_c, 5, 8064
6, 24715, Pitch_bend_c, 5, 8064
6, 24716, Pitch_bend_c, 5, 8064
6, 24717, Pitch_bend_c, 5, 8064
6, 24718, Pitch_bend_c, 5, 8192
6, 24719, Pitch_bend_c, 5, 8192
6, 24720, Pitch_bend_c, 5, 8320
6, 24721, Pitch_bend_c, 5, 8320
6, 24722, Pitch_bend_c, 5, 8320
6, 24723, Pitch_bend_c, 5, 8448
6, 24724, Pitch_bend_c, 5, 8448
6, 24725, Pitch_bend_c, 5, 8448
6, 24726, Pitch_bend_c, 5, 8448
6, 24727, Pitch_bend_c, 5, 8448
6, 24728, Pitch_bend_c, 5, 8448
6, 24729, Pitch_bend_c, 5, 8448
6, 24729, Pitch_bend_c, 5, 8448
6, 24730, Pitch_bend_c, 5, 8448
6, 24731, Pitch_bend_c, 5, 8320
6, 24732, Pitch_bend_c, 5, 8320
6, 24733, Pitch_bend_c, 5, 8320
6, 24734, Pitch_bend_c, 5, 8192
6, 24735, Pitch_bend_c, 5, 8064
6, 24736, Pitch_bend_c, 5, 8064
6, 24737, Pitch_bend_c, 5, 8064
6, 24738, Pitch_bend_c, 5, 7936
6, 24739, Pitch_bend_c, 5, 7936
6, 24740, Pitch_bend_c, 5, 7936
6, 24741, Pitch_bend_c, 5, 7936
6, 24742, Pitch_bend_c, 5, 7936
6, 24743, Pitch_bend_c, 5, 7936
6, 24744, Pitch_bend_c, 5, 7936
6, 24744, Pitch_bend_c, 5, 7936
6, 24745, Pitch_bend_c, 5, 7936
6, 24746, Pitch_bend_c, 5, 8064
6, 24747, Pitch_bend_c, 5, 8064
6, 24748, Pitch_bend_c, 5, 8064
6, 24749, Pitch_bend_c, 5, 8192
6, 24750, Pitch_bend_c, 5, 8192
6, 24751, Pitch_bend_c, 5, 8320
6, 24752, Pitch_bend_c, 5, 8320
6, 24753, Pitch_bend_c, 5, 8320
6, 24754, Pitch_bend_c, 5, 8448
6, 24755, Pitch_bend_c, 5, 8448
6, 24756, Pitch_bend_c, 5, 8448
6, 24757, Pitch_bend_c, 5, 8448
6, 24758, Pitch_bend_c, 5, 8448
6, 24759, Pitch_bend_c, 5, 8448
6, 24759, Pitch_bend_c, 5, 8448
6, 24760, Pitch_bend_c, 5, 8320
6, 24761, Pitch_bend_c, 5, 8320
6, 24762, Pitch_bend_c, 5, 8320
6, 24763, Pitch_bend_c, 5, 8192
6, 24764, Pitch_bend_c, 5, 8192
6, 24765, Pitch_bend_c, 5, 8192
6, 24766, Pitch_bend_c, 5, 8064
6, 24767, Pitch_bend_c, 5, 8064
6, 24768, Pitch_bend_c, 5, 8064
6, 24769, Pitch_bend_c, 5, 7936
6, 24770, Pitch_bend_c, 5, 7936
6, 24771, Pitch_bend_c, 5, 7936
6, 24772, Pitch_bend_c, 5, 7936
6, 24773, Pitch_bend_c, 5, 7936
6, 24774, Pitch_bend_c, 5, 7936
6, 24774, Pitch_bend_c, 5, 7936
6, 24775, Pitch_bend_c, 5, 8064
6, 24776, Pitch_bend_c, 5, 8064
6, 24777, Pitch_bend_c, 5, 8064
6, 24778, Pitch_bend_c, 5, 8192
6, 24779, Pitch_bend_c, 5, 8192
6, 24780, Pitch_bend_c, 5, 8192
6, 24781, Pitch_bend_c, 5, 8320
6, 24782, Pitch_bend_c, 5, 8320
6, 24783, Pitch_bend_c, 5, 8320
6, 24784, Pitch_bend_c, 5, 8320
6, 24785, Pitch_bend_c, 5, 8320
6, 24786, Pitch_bend_c, 5, 8320
6, 24787, Pitch_bend_c, 5, 8320
6, 24788, Pitch_bend_c, 5, 8320
6, 24789, Pitch_bend_c, 5, 8320
6, 24789, Pitch_bend_c, 5, 8320
6, 24790, Pitch_bend_c, 5, 8320
6, 24791, Pitch_bend_c, 5, 8320
6, 24792, Pitch_bend_c, 5, 8320
6, 24793, Pitch_bend_c, 5, 8192
6, 24794, Pitch_bend_c, 5, 8192
6, 24795, Pitch_bend_c, 5, 8192
6, 24796, Pitch_bend_c, 5, 8064
6, 24797, Pitch_bend_c, 5, 8064
6, 24798, Pitch_bend_c, 5, 8064
6, 24799, Pitch_bend_c, 5, 8064
6, 24800, Pitch_bend_c, 5, 8064
6, 24801, Pitch_bend_c, 5, 8064
6, 24802, Pitch_bend_c, 5, 8064
6, 24803, Pitch_bend_c, 5, 8064
6, 24804, Pitch_bend_c, 5, 8064
6, 24804, Pitch_bend_c, 5, 8064
6, 24805, Pitch_bend_c, 5, 8064
6, 24806, Pitch_bend_c, 5, 8064
6, 24807, Pitch_bend_c, 5, 8064
6, 24808, Pitch_bend_c, 5, 8192
6, 24809, Pitch_bend_c, 5, 8192
6, 24810, Pitch_bend_c, 5, 8320
6, 24811, Pitch_bend_c, 5, 8320
6, 24812, Pitch_bend_c, 5, 8320
6, 24813, Pitch_bend_c, 5, 8448
6, 24814, Pitch_bend_c, 5, 8448
6, 24815, Pitch_bend_c, 5, 8448
6, 24816, Pitch_bend_c, 5, 8448
6, 24817, Pitch_bend_c, 5, 8448
6, 24818, Pitch_bend_c, 5, 8448
6, 24819, Pitch_bend_c, 5, 8448
6, 24819, Pitch_bend_c, 5, 8448
6, 24820, Pitch_bend_c, 5, 8448
6, 24821, Pitch_bend_c, 5, 8320
6, 24822, Pitch_bend_c, 5, 8320
6, 24823, Pitch_bend_c, 5, 8320
6, 24824, Pitch_bend_c, 5, 8192
6, 24825, Pitch_bend_c, 5, 8064
6, 24826, Pitch_bend_c, 5, 8064
6, 24827, Pitch_bend_c, 5, 8064
6, 24828, Pitch_bend_c, 5, 7936
6, 24829, Pitch_bend_c, 5, 7936
6, 24830, Pitch_bend_c, 5, 7936
6, 24831, Pitch_bend_c, 5, 7936
6, 24832, Pitch_bend_c, 5, 7936
6, 24833, Pitch_bend_c, 5, 7936
6, 24834, Pitch_bend_c, 5, 7936
6, 24834, Pitch_bend_c, 5, 7936
6, 24835, Pitch_bend_c, 5, 7936
6, 24836, Pitch_bend_c, 5, 8064
6, 24837, Pitch_bend_c, 5, 8064
6, 24838, Pitch_bend_c, 5, 8064
6, 24839, Pitch_bend_c, 5, 8192
6, 24840, Pitch_bend_c, 5, 8192
6, 24841, Pitch_bend_c, 5, 8320
6, 24842, Pitch_bend_c, 5, 8320
6, 24843, Pitch_bend_c, 5, 8320
6, 24844, Pitch_bend_c, 5, 8448
6, 24845, Pitch_bend_c, 5, 8448
6, 24846, Pitch_bend_c, 5, 8448
6, 24847, Pitch_bend_c, 5, 8448
6, 24848, Pitch_bend_c, 5, 8448
6, 24849, Pitch_bend_c, 5, 8448
6, 24849, Pitch_bend_c, 5, 8448
6, 24850, Pitch_bend_c, 5, 8320
6, 24851, Pitch_bend_c, 5, 8320
6, 24852, Pitch_bend_c, 5, 8320
6, 24853, Pitch_bend_c, 5, 8192
6, 24854, Pitch_bend_c, 5, 8192
6, 24855, Pitch_bend_c, 5, 8192
6, 24856, Pitch_bend_c, 5, 8064
6, 24857, Pitch_bend_c, 5, 8064
6, 24858, Pitch_bend_c, 5, 8064
6, 24859, Pitch_bend_c, 5, 7936
6, 24860, Pitch_bend_c, 5, 7936
6, 24861, Pitch_bend_c, 5, 7936
6, 24862, Pitch_bend_c, 5, 7936
6, 24863, Pitch_bend_c, 5, 7936
6, 24864, Pitch_bend_c, 5, 7936
6, 24864, Pitch_bend_c, 5, 7936
6, 24865, Pitch_bend_c, 5, 8064
6, 24866, Pitch_bend_c, 5, 8064
6, 24867, Pitch_bend_c, 5, 8064
6, 24868, Pitch_bend_c, 5, 8192
6, 24869, Pitch_bend_c, 5, 8192
6, 24870, Pitch_bend_c, 5, 8320
6, 24871, Pitch_bend_c, 5, 8320
6, 24872, Pitch_bend_c, 5, 8320
6, 24873, Pitch_bend_c, 5, 8448
6, 24874, Pitch_bend_c, 5, 8448
6, 24875, Pitch_bend_c, 5, 8448
6, 24876, Pitch_bend_c, 5, 8448
6, 24877, Pitch_bend_c, 5, 8448
6, 24878, Pitch_bend_c, 5, 8448
6, 24879, Pitch_bend_c, 5, 8448
6, 24879, Pitch_bend_c, 5, 8448
6, 24880, Pitch_bend_c, 5, 8448
6, 24881, Pitch_bend_c, 5, 8320
6, 24882, Pitch_bend_c, 5, 8320
6, 24883, Pitch_bend_c, 5, 8320
6, 24884, Pitch_bend_c, 5, 8192
6, 24885, Pitch_bend_c, 5, 8064
6, 24886, Pitch_bend_c, 5, 8064
6, 24887, Pitch_bend_c, 5, 8064
6, 24888, Pitch_bend_c, 5, 7936
6, 24889, Pitch_bend_c, 5, 7936
6, 24890, Pitch_bend_c, 5, 7936
6, 24891, Pitch_bend_c, 5, 7936
6, 24892, Pitch_bend_c, 5, 7936
6, 24893, Pitch_bend_c, 5, 7936
6, 24894, Pitch_bend_c, 5, 7936
6, 24894, Pitch_bend_c, 5, 7936
6, 24895, Pitch_bend_c, 5, 7936
6, 24896, Pitch_bend_c, 5, 8064
6, 24897, Pitch_bend_c, 5, 8064
6, 24898, Pitch_bend_c, 5, 8064
6, 24899, Pitch_bend_c, 5, 8192
6, 24900, Pitch_bend_c, 5, 8192
6, 24901, Pitch_bend_c, 5, 8192
6, 24902, Pitch_bend_c, 5, 8320
6, 24903, Pitch_bend_c, 5, 8320
6, 24904, Pitch_bend_c, 5, 8320
6, 24905, Pitch_bend_c, 5, 8320
6, 24906, Pitch_bend_c, 5, 8320
6, 24907, Pitch_bend_c, 5, 8320
6, 24908, Pitch_bend_c, 5, 8320
6, 24909, Pitch_bend_c, 5, 8320
6, 24909, Pitch_bend_c, 5, 8320
6, 24910, Pitch_bend_c, 5, 8320
6, 24911, Pitch_bend_c, 5, 8320
6, 24912, Pitch_bend_c, 5, 8192
6, 24913, Pitch_bend_c, 5, 8192
6, 24914, Pitch_bend_c, 5, 8192
6, 24915, Pitch_bend_c, 5, 8192
6, 24916, Pitch_bend_c, 5, 8192
6, 24917, Pitch_bend_c, 5, 8064
6, 24918, Pitch_bend_c, 5, 8064
6, 24919, Pitch_bend_c, 5, 8064
6, 24920, Pitch_bend_c, 5, 8064
6, 24921, Pitch_bend_c, 5, 8064
6, 24922, Pitch_bend_c, 5, 8064
6, 24923, Pitch_bend_c, 5, 8064
6, 24924, Pitch_bend_c, 5, 8064
6, 24924, Pitch_bend_c, 5, 8064
6, 24925, Pitch_bend_c, 5, 8064
6, 24926, Pitch_bend_c, 5, 8064
6, 24927, Pitch_bend_c, 5, 8192
6, 24928, Pitch_bend_c, 5, 8192
6, 24929, Pitch_bend_c, 5, 8192
6, 24930, Pitch_bend_c, 5, 8192
6, 24931, Pitch_bend_c, 5, 8192
6, 24932, Pitch_bend_c, 5, 8192
6, 24933, Pitch_bend_c, 5, 8192
6, 24934, Pitch_bend_c, 5, 8192
6, 24935, Pitch_bend_c, 5, 8192
6, 24936, Pitch_bend_c, 5, 8192
6, 24937, Pitch_bend_c, 5, 8192
6, 24938, Pitch_bend_c, 5, 8192
6, 24939, Pitch_bend_c, 5, 8192
6, 24939, Pitch_bend_c, 5, 8192
6, 24940, Pitch_bend_c, 5, 8192
6, 24941, Pitch_bend_c, 5, 8192
6, 24942, Pitch_bend_c, 5, 8192
6, 24943, Pitch_bend_c, 5, 8192
6, 24944, Note_off_c, 5, 59, 0
6, 24944, Pitch_bend_c, 5, 8192
6, 25244, Note_on_c, 5, 69, 95
6, 25244, Pitch_bend_c, 5, 0
6, 25245, Pitch_bend_c, 5, 0
6, 25246, Pitch_bend_c, 5, 0
6, 25247, Pitch_bend_c, 5, 640
6, 25248, Pitch_bend_c, 5, 1408
6, 25249, Pitch_bend_c, 5, 2048
6, 25251, Pitch_bend_c, 5, 2688
6, 25252, Pitch_bend_c, 5, 3456
6, 25253, Pitch_bend_c, 5, 4096
6, 25254, Pitch_bend_c, 5, 4736
6, 25255, Pitch_bend_c, 5, 5504
6, 25256, Pitch_bend_c, 5, 6144
6, 25257, Pitch_bend_c, 5, 6784
6, 25258, Pitch_bend_c, 5, 7552
6, 25259, Pitch_bend_c, 5, 8192
6, 25319, Note_off_c, 5, 69, 0
6, 25439, Note_on_c, 5, 74, 95
6, 25439, Pitch_bend_c, 5, 8192
6, 25443, Pitch_bend_c, 5, 8320
6, 25447, Pitch_bend_c, 5, 8448
6, 25451, Pitch_bend_c, 5, 8832
6, 25455, Pitch_bend_c, 5, 9344
6, 25459, Pitch_bend_c, 5, 9472
6, 25460, Pitch_bend_c, 5, 9472
6, 25461, Pitch_bend_c, 5, 9472
6, 25462, Pitch_bend_c, 5, 9472
6, 25463, Pitch_bend_c, 5, 9472
6, 25464, Pitch_bend_c, 5, 9472
6, 25465, Pitch_bend_c, 5, 9472
6, 25466, Pitch_bend_c, 5, 9472
6, 25467, Pitch_bend_c, 5, 9472
6, 25468, Pitch_bend_c, 5, 9600
6, 25469, Pitch_bend_c, 5, 9600
6, 25470, Pitch_bend_c, 5, 9600
6, 25471, Pitch_bend_c, 5, 9600
6, 25472, Pitch_bend_c, 5, 9600
6, 25473, Pitch_bend_c, 5, 9600
6, 25474, Pitch_bend_c, 5, 9600
6, 25475, Pitch_bend_c, 5, 9728
6, 25476, Pitch_bend_c, 5, 9728
6, 25477, Pitch_bend_c, 5, 9728
6, 25478, Pitch_bend_c, 5, 9728
6, 25479, Pitch_bend_c, 5, 9728
6, 25480, Pitch_bend_c, 5, 9728
6, 25481, Pitch_bend_c, 5, 9600
6, 25482, Pitch_bend_c, 5, 9600
6, 25483, Pitch_bend_c, 5, 9600
6, 25484, Pitch_bend_c, 5, 9600
6, 25485, Pitch_bend_c, 5, 9472
6, 25486, Pitch_bend_c, 5, 9472
6, 25487, Pitch_bend_c, 5, 9472
6, 25488, Pitch_bend_c, 5, 9472
6, 25489, Pitch_bend_c, 5, 9472
6, 25490, Pitch_bend_c, 5, 9472
6, 25491, Pitch_bend_c, 5, 9472
6, 25492, Pitch_bend_c, 5, 9472
6, 25493, Pitch_bend_c, 5, 9472
6, 25494, Pitch_bend_c, 5, 9472
6, 25495, Pitch_bend_c, 5, 9472
6, 25496, Pitch_bend_c, 5, 9472
6, 25497, Pitch_bend_c, 5, 9472
6, 25498, Pitch_bend_c, 5, 9472
6, 25499, Pitch_bend_c, 5, 9600
6, 25500, Pitch_bend_c, 5, 9600
6, 25501, Pitch_bend_c, 5, 9600
6, 25502, Pitch_bend_c, 5, 9600
6, 25503, Pitch_bend_c, 5, 9600
6, 25504, Pitch_bend_c, 5, 9728
6, 25505, Pitch_bend_c, 5, 9728
6, 25506, Pitch_bend_c, 5, 9728
6, 25507, Pitch_bend_c, 5, 9728
6, 25508, Pitch_bend_c, 5, 9728
6, 25509, Pitch_bend_c, 5, 9728
6, 25510, Pitch_bend_c, 5, 9728
6, 25511, Pitch_bend_c, 5, 9600
6, 25512, Pitch_bend_c, 5, 9600
6, 25513, Pitch_bend_c, 5, 9600
6, 25514, Pitch_bend_c, 5, 9600
6, 25515, Pitch_bend_c, 5, 9472
6, 25516, Pitch_bend_c, 5, 9472
6, 25517, Pitch_bend_c, 5, 9472
6, 25518, Pitch_bend_c, 5, 9472
6, 25519, Pitch_bend_c, 5, 9472
6, 25520, Pitch_bend_c, 5, 9344
6, 25521, Pitch_bend_c, 5, 9344
6, 25522, Pitch_bend_c, 5, 9344
6, 25523, Pitch_bend_c, 5, 9344
6, 25524, Pitch_bend_c, 5, 9344
6, 25525, Pitch_bend_c, 5, 9344
6, 25526, Pitch_bend_c, 5, 9472
6, 25527, Pitch_bend_c, 5, 9472
6, 25528, Pitch_bend_c, 5, 9472
6, 25529, Pitch_bend_c, 5, 9472
6, 25530, Pitch_bend_c, 5, 9600
6, 25531, Pitch_bend_c, 5, 9600
6, 25532, Pitch_bend_c, 5, 9728
6, 25533, Pitch_bend_c, 5, 9728
6, 25534, Pitch_bend_c, 5, 9728
6, 25535, Pitch_bend_c, 5, 9728
6, 25536, Pitch_bend_c, 5, 9728
6, 25537, Pitch_bend_c, 5, 9728
6, 25538, Pitch_bend_c, 5, 9728
6, 25539, Pitch_bend_c, 5, 9728
6, 25540, Pitch_bend_c, 5, 9600
6, 25541, Pitch_bend_c, 5, 9600
6, 25542, Pitch_bend_c, 5, 9600
6, 25543, Pitch_bend_c, 5, 9600
6, 25544, Pitch_bend_c, 5, 9600
6, 25545, Pitch_bend_c, 5, 9472
6, 25546, Pitch_bend_c, 5, 9472
6, 25547, Pitch_bend_c, 5, 9472
6, 25548, Pitch_bend_c, 5, 9472
6, 25549, Pitch_bend_c, 5, 9472
6, 25550, Pitch_bend_c, 5, 9472
6, 25551, Pitch_bend_c, 5, 9472
6, 25552, Pitch_bend_c, 5, 9472
6, 25553, Pitch_bend_c, 5, 9472
6, 25554, Pitch_bend_c, 5, 9472
6, 25555, Pitch_bend_c, 5, 9344
6, 25556, Pitch_bend_c, 5, 9472
6, 25557, Pitch_bend_c, 5, 9472
6, 25558, Pitch_bend_c, 5, 9472
6, 25559, Pitch_bend_c, 5, 9600
6, 25560, Pitch_bend_c, 5, 9600
6, 25561, Pitch_bend_c, 5, 9600
6, 25562, Pitch_bend_c, 5, 9728
6, 25563, Pitch_bend_c, 5, 9728
6, 25564, Pitch_bend_c, 5, 9728
6, 25565, Pitch_bend_c, 5, 9728
6, 25566, Pitch_bend_c, 5, 9728
6, 25567, Pitch_bend_c, 5, 9728
6, 25568, Pitch_bend_c, 5, 9728
6, 25569, Pitch_bend_c, 5, 9728
6, 25570, Pitch_bend_c, 5, 9728
6, 25571, Pitch_bend_c, 5, 9600
6, 25572, Pitch_bend_c, 5, 9600
6, 25573, Pitch_bend_c, 5, 9600
6, 25574, Pitch_bend_c, 5, 9472
6, 25575, Pitch_bend_c, 5, 9472
6, 25576, Pitch_bend_c, 5, 9472
6, 25577, Pitch_bend_c, 5, 9472
6, 25578, Pitch_bend_c, 5, 9344
6, 25579, Pitch_bend_c, 5, 9472
6, 25580, Pitch_bend_c, 5, 9472
6, 25581, Pitch_bend_c, 5, 9472
6, 25582, Pitch_bend_c, 5, 9472
6, 25583, Pitch_bend_c, 5, 9472
6, 25584, Pitch_bend_c, 5, 9472
6, 25585, Pitch_bend_c, 5, 9472
6, 25586, Pitch_bend_c, 5, 9472
6, 25587, Pitch_bend_c, 5, 9472
6, 25588, Pitch_bend_c, 5, 9472
6, 25589, Pitch_bend_c, 5, 9600
6, 25590, Pitch_bend_c, 5, 9600
6, 25591, Pitch_bend_c, 5, 9600
6, 25592, Pitch_bend_c, 5, 9600
6, 25593, Pitch_bend_c, 5, 9600
6, 25594, Pitch_bend_c, 5, 9600
6, 25595, Pitch_bend_c, 5, 9728
6, 25596, Pitch_bend_c, 5, 9728
6, 25597, Pitch_bend_c, 5, 9728
6, 25598, Pitch_bend_c, 5, 9728
6, 25599, Pitch_bend_c, 5, 9728
6, 25600, Pitch_bend_c, 5, 9728
6, 25601, Pitch_bend_c, 5, 9600
6, 25602, Pitch_bend_c, 5, 9600
6, 25603, Pitch_bend_c, 5, 9600
6, 25604, Pitch_bend_c, 5, 9472
6, 25605, Pitch_bend_c, 5, 9472
6, 25606, Pitch_bend_c, 5, 9472
6, 25607, Pitch_bend_c, 5, 9472
6, 25608, Pitch_bend_c, 5, 9472
6, 25609, Pitch_bend_c, 5, 9472
6, 25610, Pitch_bend_c, 5, 9344
6, 25611, Pitch_bend_c, 5, 9344
6, 25612, Pitch_bend_c, 5, 9344
6, 25613, Pitch_bend_c, 5, 9344
6, 25614, Pitch_bend_c, 5, 9472
6, 25615, Pitch_bend_c, 5, 9472
6, 25616, Pitch_bend_c, 5, 9472
6, 25617, Pitch_bend_c, 5, 9472
6, 25618, Pitch_bend_c, 5, 9472
6, 25619, Pitch_bend_c, 5, 9600
6, 25620, Pitch_bend_c, 5, 9600
6, 25621, Pitch_bend_c, 5, 9600
6, 25622, Pitch_bend_c, 5, 9600
6, 25623, Pitch_bend_c, 5, 9600
6, 25624, Pitch_bend_c, 5, 9728
6, 25625, Pitch_bend_c, 5, 9728
6, 25626, Pitch_bend_c, 5, 9728
6, 25627, Pitch_bend_c, 5, 9728
6, 25628, Pitch_bend_c, 5, 9728
6, 25629, Pitch_bend_c, 5, 9600
6, 25630, Pitch_bend_c, 5, 9600
6, 25631, Pitch_bend_c, 5, 9600
6, 25632, Pitch_bend_c, 5, 9600
6, 25633, Pitch_bend_c, 5, 9600
6, 25634, Pitch_bend_c, 5, 9600
6, 25635, Pitch_bend_c, 5, 9472
6, 25636, Pitch_bend_c, 5, 9472
6, 25637, Pitch_bend_c, 5, 9344
6, 25638, Pitch_bend_c, 5, 9344
6, 25639, Pitch_bend_c, 5, 9344
6, 25640, Pitch_bend_c, 5, 9344
6, 25641, Pitch_bend_c, 5, 9344
6, 25642, Pitch_bend_c, 5, 9344
6, 25643, Pitch_bend_c, 5, 9344
6, 25647, Pitch_bend_c, 5, 8832
6, 25651, Pitch_bend_c, 5, 8448
6, 25655, Pitch_bend_c, 5, 8320
6, 25659, Pitch_bend_c, 5, 8192
6, 25679, Note_off_c, 5, 74, 0
6, 25679, Pitch_bend_c, 5, 8192
6, 25919, Note_on_c, 5, 72, 95
6, 25919, Pitch_bend_c, 5, 8192
6, 25927, Pitch_bend_c, 5, 8320
6, 25931, Pitch_bend_c, 5, 8576
6, 25935, Pitch_bend_c, 5, 8832
6, 25939, Pitch_bend_c, 5, 9088
6, 25943, Pitch_bend_c, 5, 9472
6, 25947, Pitch_bend_c, 5, 9472
6, 25948, Pitch_bend_c, 5, 9472
6, 25949, Pitch_bend_c, 5, 9600
6, 25950, Pitch_bend_c, 5, 9600
6, 25951, Pitch_bend_c, 5, 9600
6, 25952, Pitch_bend_c, 5, 9600
6, 25953, Pitch_bend_c, 5, 9600
6, 25954, Pitch_bend_c, 5, 9728
6, 25955, Pitch_bend_c, 5, 9728
6, 25956, Pitch_bend_c, 5, 9728
6, 25957, Pitch_bend_c, 5, 9728
6, 25958, Pitch_bend_c, 5, 9728
6, 25959, Pitch_bend_c, 5, 9728
6, 25960, Pitch_bend_c, 5, 9600
6, 25961, Pitch_bend_c, 5, 9600
6, 25962, Pitch_bend_c, 5, 9600
6, 25963, Pitch_bend_c, 5, 9600
6, 25964, Pitch_bend_c, 5, 9472
6, 25965, Pitch_bend_c, 5, 9472
6, 25966, Pitch_bend_c, 5, 9472
6, 25967, Pitch_bend_c, 5, 9472
6, 25968, Pitch_bend_c, 5, 9344
6, 25969, Pitch_bend_c, 5, 9344
6, 25970, Pitch_bend_c, 5, 9344
6, 25971, Pitch_bend_c, 5, 9344
6, 25972, Pitch_bend_c, 5, 9344
6, 25973, Pitch_bend_c, 5, 9344
6, 25974, Pitch_bend_c, 5, 9472
6, 25975, Pitch_bend_c, 5, 9472
6, 25976, Pitch_bend_c, 5, 9472
6, 25977, Pitch_bend_c, 5, 9472
6, 25978, Pitch_bend_c, 5, 9472
6, 25979, Pitch_bend_c, 5, 9600
6, 25980, Pitch_bend_c, 5, 9600
6, 25981, Pitch_bend_c, 5, 9600
6, 25982, Pitch_bend_c, 5, 9600
6, 25983, Pitch_bend_c, 5, 9728
6, 25984, Pitch_bend_c, 5, 9728
6, 25985, Pitch_bend_c, 5, 9728
6, 25986, Pitch_bend_c, 5, 9728
6, 25987, Pitch_bend_c, 5, 9728
6, 25988, Pitch_bend_c, 5, 9600
6, 25989, Pitch_bend_c, 5, 9600
6, 25990, Pitch_bend_c, 5, 9600
6, 25991, Pitch_bend_c, 5, 9600
6, 25992, Pitch_bend_c, 5, 9600
6, 25993, Pitch_bend_c, 5, 9600
6, 25994, Pitch_bend_c, 5, 9600
6, 25995, Pitch_bend_c, 5, 9472
6, 25996, Pitch_bend_c, 5, 9472
6, 25997, Pitch_bend_c, 5, 9472
6, 25998, Pitch_bend_c, 5, 9344
6, 25999, Pitch_bend_c, 5, 9344
6, 26000, Pitch_bend_c, 5, 9344
6, 26001, Pitch_bend_c, 5, 9344
6, 26002, Pitch_bend_c, 5, 9344
6, 26003, Pitch_bend_c, 5, 9344
6, 26004, Pitch_bend_c, 5, 9472
6, 26005, Pitch_bend_c, 5, 9472
6, 26006, Pitch_bend_c, 5, 9472
6, 26007, Pitch_bend_c, 5, 9472
6, 26008, Pitch_bend_c, 5, 9600
6, 26009, Pitch_bend_c, 5, 9600
6, 26010, Pitch_bend_c, 5, 9600
6, 26011, Pitch_bend_c, 5, 9600
6, 26012, Pitch_bend_c, 5, 9728
6, 26013, Pitch_bend_c, 5, 9728
6, 26014, Pitch_bend_c, 5, 9728
6, 26015, Pitch_bend_c, 5, 9728
6, 26016, Pitch_bend_c, 5, 9728
6, 26017, Pitch_bend_c, 5, 9728
6, 26018, Pitch_bend_c, 5, 9728
6, 26019, Pitch_bend_c, 5, 9600
6, 26020, Pitch_bend_c, 5, 9600
6, 26021, Pitch_bend_c, 5, 9600
6, 26022, Pitch_bend_c, 5, 9600
6, 26023, Pitch_bend_c, 5, 9600
6, 26024, Pitch_bend_c, 5, 9600
6, 26025, Pitch_bend_c, 5, 9600
6, 26026, Pitch_bend_c, 5, 9472
6, 26027, Pitch_bend_c, 5, 9472
6, 26028, Pitch_bend_c, 5, 9472
6, 26029, Pitch_bend_c, 5, 9472
6, 26030, Pitch_bend_c, 5, 9472
6, 26031, Pitch_bend_c, 5, 9472
6, 26032, Pitch_bend_c, 5, 9472
6, 26033, Pitch_bend_c, 5, 9472
6, 26034, Pitch_bend_c, 5, 9472
6, 26035, Pitch_bend_c, 5, 9472
6, 26036, Pitch_bend_c, 5, 9472
6, 26037, Pitch_bend_c, 5, 9472
6, 26038, Pitch_bend_c, 5, 9600
6, 26039, Pitch_bend_c, 5, 9600
6, 26040, Pitch_bend_c, 5, 9600
6, 26041, Pitch_bend_c, 5, 9600
6, 26042, Pitch_bend_c, 5, 9728
6, 26043, Pitch_bend_c, 5, 9600
6, 26044, Pitch_bend_c, 5, 9728
6, 26045, Pitch_bend_c, 5, 9728
6, 26046, Pitch_bend_c, 5, 9728
6, 26047, Pitch_bend_c, 5, 9728
6, 26048, Pitch_bend_c, 5, 9728
6, 26049, Pitch_bend_c, 5, 9728
6, 26050, Pitch_bend_c, 5, 9728
6, 26051, Pitch_bend_c, 5, 9600
6, 26052, Pitch_bend_c, 5, 9600
6, 26053, Pitch_bend_c, 5, 9600
6, 26054, Pitch_bend_c, 5, 9600
6, 26055, Pitch_bend_c, 5, 9472
6, 26056, Pitch_bend_c, 5, 9472
6, 26057, Pitch_bend_c, 5, 9472
6, 26058, Pitch_bend_c, 5, 9472
6, 26059, Pitch_bend_c, 5, 9344
6, 26060, Pitch_bend_c, 5, 9344
6, 26061, Pitch_bend_c, 5, 9344
6, 26062, Pitch_bend_c, 5, 9344
6, 26063, Pitch_bend_c, 5, 9344
6, 26064, Pitch_bend_c, 5, 9472
6, 26065, Pitch_bend_c, 5, 9472
6, 26066, Pitch_bend_c, 5, 9472
6, 26067, Pitch_bend_c, 5, 9472
6, 26068, Pitch_bend_c, 5, 9600
6, 26069, Pitch_bend_c, 5, 9600
6, 26070, Pitch_bend_c, 5, 9600
6, 26071, Pitch_bend_c, 5, 9600
6, 26072, Pitch_bend_c, 5, 9600
6, 26073, Pitch_bend_c, 5, 9600
6, 26074, Pitch_bend_c, 5, 9600
6, 26075, Pitch_bend_c, 5, 9728
6, 26076, Pitch_bend_c, 5, 9728
6, 26077, Pitch_bend_c, 5, 9728
6, 26078, Pitch_bend_c, 5, 9728
6, 26079, Note_off_c, 5, 72, 0
6, 26079, Pitch_bend_c, 5, 9728
6, 26079, Pitch_bend_c, 5, 8192
6, 26079, Note_on_c, 5, 72, 95
6, 26079, Pitch_bend_c, 5, 8192
6, 26083, Pitch_bend_c, 5, 8320
6, 26087, Pitch_bend_c, 5, 8448
6, 26091, Pitch_bend_c, 5, 8832
6, 26095, Pitch_bend_c, 5, 9344
6, 26099, Pitch_bend_c, 5, 9600
6, 26119, Note_off_c, 5, 72, 0
6, 26119, Pitch_bend_c, 5, 8192
6, 26159, Note_on_c, 5, 71, 95
6, 26159, Pitch_bend_c, 5, 8192
6, 26160, Pitch_bend_c, 5, 8192
6, 26161, Pitch_bend_c, 5, 8192
6, 26162, Pitch_bend_c, 5, 8192
6, 26163, Pitch_bend_c, 5, 8192
6, 26164, Pitch_bend_c, 5, 8192
6, 26165, Pitch_bend_c, 5, 8192
6, 26166, Pitch_bend_c, 5, 8192
6, 26167, Pitch_bend_c, 5, 8192
6, 26168, Pitch_bend_c, 5, 8192
6, 26169, Pitch_bend_c, 5, 8192
6, 26169, Pitch_bend_c, 5, 8192
6, 26170, Pitch_bend_c, 5, 8192
6, 26171, Pitch_bend_c, 5, 8192
6, 26172, Pitch_bend_c, 5, 8192
6, 26173, Pitch_bend_c, 5, 8192
6, 26174, Pitch_bend_c, 5, 8192
6, 26175, Pitch_bend_c, 5, 8192
6, 26176, Pitch_bend_c, 5, 8192
6, 26177, Pitch_bend_c, 5, 8192
6, 26178, Pitch_bend_c, 5, 8192
6, 26179, Pitch_bend_c, 5, 8192
6, 26180, Pitch_bend_c, 5, 8192
6, 26181, Pitch_bend_c, 5, 8192
6, 26182, Pitch_bend_c, 5, 8192
6, 26183, Pitch_bend_c, 5, 8192
6, 26184, Pitch_bend_c, 5, 8192
6, 26184, Pitch_bend_c, 5, 8192
6, 26185, Pitch_bend_c, 5, 8192
6, 26186, Pitch_bend_c, 5, 8192
6, 26187, Pitch_bend_c, 5, 8192
6, 26188, Pitch_bend_c, 5, 8192
6, 26189, Pitch_bend_c, 5, 8192
6, 26190, Pitch_bend_c, 5, 8192
6, 26191, Pitch_bend_c, 5, 8320
6, 26192, Pitch_bend_c, 5, 8320
6, 26193, Pitch_bend_c, 5, 8320
6, 26194, Pitch_bend_c, 5, 8320
6, 26195, Pitch_bend_c, 5, 8320
6, 26196, Pitch_bend_c, 5, 8320
6, 26197, Pitch_bend_c, 5, 8320
6, 26198, Pitch_bend_c, 5, 8320
6, 26199, Pitch_bend_c, 5, 8320
6, 26199, Pitch_bend_c, 5, 8320
6, 26200, Pitch_bend_c, 5, 8320
6, 26201, Pitch_bend_c, 5, 8320
6, 26202, Pitch_bend_c, 5, 8320
6, 26203, Pitch_bend_c, 5, 8192
6, 26204, Pitch_bend_c, 5, 8192
6, 26205, Pitch_bend_c, 5, 8192
6, 26206, Pitch_bend_c, 5, 8064
6, 26207, Pitch_bend_c, 5, 8064
6, 26208, Pitch_bend_c, 5, 8064
6, 26209, Pitch_bend_c, 5, 8064
6, 26210, Pitch_bend_c, 5, 8064
6, 26211, Pitch_bend_c, 5, 8064
6, 26212, Pitch_bend_c, 5, 8064
6, 26213, Pitch_bend_c, 5, 8064
6, 26214, Pitch_bend_c, 5, 8064
6, 26214, Pitch_bend_c, 5, 8064
6, 26215, Pitch_bend_c, 5, 8064
6, 26216, Pitch_bend_c, 5, 8064
6, 26217, Pitch_bend_c, 5, 8064
6, 26218, Pitch_bend_c, 5, 8192
6, 26219, Pitch_bend_c, 5, 8192
6, 26220, Pitch_bend_c, 5, 8192
6, 26221, Pitch_bend_c, 5, 8320
6, 26222, Pitch_bend_c, 5, 8320
6, 26223, Pitch_bend_c, 5, 8320
6, 26224, Pitch_bend_c, 5, 8320
6, 26225, Pitch_bend_c, 5, 8320
6, 26226, Pitch_bend_c, 5, 8320
6, 26227, Pitch_bend_c, 5, 8320
6, 26228, Pitch_bend_c, 5, 8320
6, 26229, Pitch_bend_c, 5, 8320
6, 26229, Pitch_bend_c, 5, 8320
6, 26230, Pitch_bend_c, 5, 8320
6, 26231, Pitch_bend_c, 5, 8320
6, 26232, Pitch_bend_c, 5, 8320
6, 26233, Pitch_bend_c, 5, 8192
6, 26234, Pitch_bend_c, 5, 8192
6, 26235, Pitch_bend_c, 5, 8192
6, 26236, Pitch_bend_c, 5, 8064
6, 26237, Pitch_bend_c, 5, 8064
6, 26238, Pitch_bend_c, 5, 8064
6, 26239, Pitch_bend_c, 5, 8064
6, 26240, Pitch_bend_c, 5, 8064
6, 26241, Pitch_bend_c, 5, 8064
6, 26242, Pitch_bend_c, 5, 8064
6, 26243, Pitch_bend_c, 5, 8064
6, 26244, Pitch_bend_c, 5, 8064
6, 26244, Pitch_bend_c, 5, 8064
6, 26245, Pitch_bend_c, 5, 8064
6, 26246, Pitch_bend_c, 5, 8064
6, 26247, Pitch_bend_c, 5, 8064
6, 26248, Pitch_bend_c, 5, 8192
6, 26249, Pitch_bend_c, 5, 8192
6, 26250, Pitch_bend_c, 5, 8192
6, 26251, Pitch_bend_c, 5, 8320
6, 26252, Pitch_bend_c, 5, 8320
6, 26253, Pitch_bend_c, 5, 8320
6, 26254, Pitch_bend_c, 5, 8448
6, 26255, Pitch_bend_c, 5, 8448
6, 26256, Pitch_bend_c, 5, 8448
6, 26257, Pitch_bend_c, 5, 8448
6, 26258, Pitch_bend_c, 5, 8448
6, 26259, Pitch_bend_c, 5, 8448
6, 26259, Pitch_bend_c, 5, 8448
6, 26260, Pitch_bend_c, 5, 8320
6, 26261, Pitch_bend_c, 5, 8320
6, 26262, Pitch_bend_c, 5, 8320
6, 26263, Pitch_bend_c, 5, 8192
6, 26264, Pitch_bend_c, 5, 8192
6, 26265, Pitch_bend_c, 5, 8192
6, 26266, Pitch_bend_c, 5, 8064
6, 26267, Pitch_bend_c, 5, 8064
6, 26268, Pitch_bend_c, 5, 8064
6, 26269, Pitch_bend_c, 5, 7936
6, 26270, Pitch_bend_c, 5, 7936
6, 26271, Pitch_bend_c, 5, 7936
6, 26272, Pitch_bend_c, 5, 7936
6, 26273, Pitch_bend_c, 5, 7936
6, 26274, Pitch_bend_c, 5, 7936
6, 26274, Pitch_bend_c, 5, 7936
6, 26275, Pitch_bend_c, 5, 8064
6, 26276, Pitch_bend_c, 5, 8064
6, 26277, Pitch_bend_c, 5, 8064
6, 26278, Pitch_bend_c, 5, 8192
6, 26279, Pitch_bend_c, 5, 8192
6, 26280, Pitch_bend_c, 5, 8192
6, 26281, Pitch_bend_c, 5, 8320
6, 26282, Pitch_bend_c, 5, 8320
6, 26283, Pitch_bend_c, 5, 8320
6, 26284, Pitch_bend_c, 5, 8448
6, 26285, Pitch_bend_c, 5, 8448
6, 26286, Pitch_bend_c, 5, 8448
6, 26287, Pitch_bend_c, 5, 8448
6, 26288, Pitch_bend_c, 5, 8448
6, 26289, Pitch_bend_c, 5, 8448
6, 26289, Pitch_bend_c, 5, 8448
6, 26290, Pitch_bend_c, 5, 8320
6, 26291, Pitch_bend_c, 5, 8320
6, 26292, Pitch_bend_c, 5, 8320
6, 26293, Pitch_bend_c, 5, 8192
6, 26294, Pitch_bend_c, 5, 8192
6, 26295, Pitch_bend_c, 5, 8192
6, 26296, Pitch_bend_c, 5, 8064
6, 26297, Pitch_bend_c, 5, 8064
6, 26298, Pitch_bend_c, 5, 8064
6, 26299, Pitch_bend_c, 5, 7936
6, 26300, Pitch_bend_c, 5, 7936
6, 26301, Pitch_bend_c, 5, 7936
6, 26302, Pitch_bend_c, 5, 7936
6, 26303, Pitch_bend_c, 5, 7936
6, 26304, Pitch_bend_c, 5, 7936
6, 26304, Pitch_bend_c, 5, 7936
6, 26305, Pitch_bend_c, 5, 8064
6, 26306, Pitch_bend_c, 5, 8064
6, 26307, Pitch_bend_c, 5, 8064
6, 26308, Pitch_bend_c, 5, 8192
6, 26309, Pitch_bend_c, 5, 8192
6, 26310, Pitch_bend_c, 5, 8320
6, 26311, Pitch_bend_c, 5, 8320
6, 26312, Pitch_bend_c, 5, 8320
6, 26313, Pitch_bend_c, 5, 8448
6, 26314, Pitch_bend_c, 5, 8448
6, 26315, Pitch_bend_c, 5, 8448
6, 26316, Pitch_bend_c, 5, 8448
6, 26317, Pitch_bend_c, 5, 8448
6, 26318, Pitch_bend_c, 5, 8448
6, 26319, Pitch_bend_c, 5, 8448
6, 26319, Pitch_bend_c, 5, 8448
6, 26320, Pitch_bend_c, 5, 8448
6, 26321, Pitch_bend_c, 5, 8320
6, 26322, Pitch_bend_c, 5, 8320
6, 26323, Pitch_bend_c, 5, 8320
6, 26324, Pitch_bend_c, 5, 8192
6, 26325, Pitch_bend_c, 5, 8064
6, 26326, Pitch_bend_c, 5, 8064
6, 26327, Pitch_bend_c, 5, 8064
6, 26328, Pitch_bend_c, 5, 7936
6, 26329, Pitch_bend_c, 5, 7936
6, 26330, Pitch_bend_c, 5, 7936
6, 26331, Pitch_bend_c, 5, 7936
6, 26332, Pitch_bend_c, 5, 7936
6, 26333, Pitch_bend_c, 5, 7936
6, 26334, Pitch_bend_c, 5, 7936
6, 26334, Pitch_bend_c, 5, 7936
6, 26335, Pitch_bend_c, 5, 7936
6, 26336, Pitch_bend_c, 5, 8064
6, 26337, Pitch_bend_c, 5, 8064
6, 26338, Pitch_bend_c, 5, 8064
6, 26339, Pitch_bend_c, 5, 8192
6, 26340, Pitch_bend_c, 5, 8192
6, 26341, Pitch_bend_c, 5, 8320
6, 26342, Pitch_bend_c, 5, 8320
6, 26343, Pitch_bend_c, 5, 8448
6, 26344, Pitch_bend_c, 5, 8448
6, 26345, Pitch_bend_c, 5, 8448
6, 26346, Pitch_bend_c, 5, 8448
6, 26347, Pitch_bend_c, 5, 8448
6, 26348, Pitch_bend_c, 5, 8448
6, 26349, Pitch_bend_c, 5, 8448
6, 26349, Pitch_bend_c, 5, 8448
6, 26350, Pitch_bend_c, 5, 8448
6, 26351, Pitch_bend_c, 5, 8320
6, 26352, Pitch_bend_c, 5, 8320
6, 26353, Pitch_bend_c, 5, 8192
6, 26354, Pitch_bend_c, 5, 8192
6, 26355, Pitch_bend_c, 5, 8192
6, 26356, Pitch_bend_c, 5, 8064
6, 26357, Pitch_bend_c, 5, 8064
6, 26358, Pitch_bend_c, 5, 7936
6, 26359, Pitch_bend_c, 5, 7936
6, 26360, Pitch_bend_c, 5, 7936
6, 26361, Pitch_bend_c, 5, 7936
6, 26362, Pitch_bend_c, 5, 7936
6, 26363, Pitch_bend_c, 5, 7936
6, 26364, Pitch_bend_c, 5, 7936
6, 26364, Pitch_bend_c, 5, 7936
6, 26365, Pitch_bend_c, 5, 7936
6, 26366, Pitch_bend_c, 5, 8064
6, 26367, Pitch_bend_c, 5, 8064
6, 26368, Pitch_bend_c, 5, 8192
6, 26369, Pitch_bend_c, 5, 8192
6, 26370, Pitch_bend_c, 5, 8192
6, 26371, Pitch_bend_c, 5, 8320
6, 26372, Pitch_bend_c, 5, 8320
6, 26373, Pitch_bend_c, 5, 8320
6, 26374, Pitch_bend_c, 5, 8320
6, 26375, Pitch_bend_c, 5, 8320
6, 26376, Pitch_bend_c, 5, 8320
6, 26377, Pitch_bend_c, 5, 8320
6, 26378, Pitch_bend_c, 5, 8320
6, 26379, Pitch_bend_c, 5, 8320
6, 26379, Pitch_bend_c, 5, 8320
6, 26380, Pitch_bend_c, 5, 8320
6, 26381, Pitch_bend_c, 5, 8320
6, 26382, Pitch_bend_c, 5, 8320
6, 26383, Pitch_bend_c, 5, 8192
6, 26384, Pitch_bend_c, 5, 8192
6, 26385, Pitch_bend_c, 5, 8192
6, 26386, Pitch_bend_c, 5, 8064
6, 26387, Pitch_bend_c, 5, 8064
6, 26388, Pitch_bend_c, 5, 8064
6, 26389, Pitch_bend_c, 5, 8064
6, 26390, Pitch_bend_c, 5, 8064
6, 26391, Pitch_bend_c, 5, 8064
6, 26392, Pitch_bend_c, 5, 8064
6, 26393, Pitch_bend_c, 5, 8064
6, 26394, Pitch_bend_c, 5, 8064
6, 26394, Pitch_bend_c, 5, 8064
6, 26395, Pitch_bend_c, 5, 8064
6, 26396, Pitch_bend_c, 5, 8064
6, 26397, Pitch_bend_c, 5, 8064
6, 26398, Pitch_bend_c, 5, 8192
6, 26399, Note_off_c, 5, 71, 0
6, 26399, Pitch_bend_c, 5, 8192
6, 26444, Note_on_c, 5, 55, 95
6, 26444, Pitch_bend_c, 5, 6144
6, 26449, Pitch_bend_c, 5, 6784
6, 26454, Pitch_bend_c, 5, 7552
6, 26459, Pitch_bend_c, 5, 8192
6, 26519, Note_off_c, 5, 55, 0
6, 27059, Note_on_c, 5, 67, 95
6, 27059, Pitch_bend_c, 5, 8192
6, 27071, Pitch_bend_c, 5, 8320
6, 27083, Pitch_bend_c, 5, 8448
6, 27087, Pitch_bend_c, 5, 8576
6, 27091, Pitch_bend_c, 5, 8704
6, 27095, Pitch_bend_c, 5, 8832
6, 27099, Pitch_bend_c, 5, 8960
6, 27103, Pitch_bend_c, 5, 9088
6, 27107, Pitch_bend_c, 5, 9344
6, 27115, Pitch_bend_c, 5, 9472
6, 27119, Pitch_bend_c, 5, 9600
6, 27179, Note_off_c, 5, 67, 0
6, 27179, Pitch_bend_c, 5, 8192
6, 27419, Note_on_c, 5, 72, 95
6, 27419, Pitch_bend_c, 5, 8192
6, 27427, Pitch_bend_c, 5, 8320
6, 27439, Pitch_bend_c, 5, 8448
6, 27443, Pitch_bend_c, 5, 8576
6, 27447, Pitch_bend_c, 5, 8704
6, 27451, Pitch_bend_c, 5, 8960
6, 27455, Pitch_bend_c, 5, 9088
6, 27459, Pitch_bend_c, 5, 9344
6, 27467, Pitch_bend_c, 5, 9472
6, 27471, Pitch_bend_c, 5, 9600
6, 27519, Note_off_c, 5, 72, 0
6, 27519, Pitch_bend_c, 5, 8192
6, 27559, Note_on_c, 5, 72, 95
6, 27559, Pitch_bend_c, 5, 8192
6, 27563, Pitch_bend_c, 5, 8320
6, 27567, Pitch_bend_c, 5, 8448
6, 27571, Pitch_bend_c, 5, 8832
6, 27575, Pitch_bend_c, 5, 9344
6, 27579, Pitch_bend_c, 5, 9600
6, 27599, Note_off_c, 5, 72, 0
6, 27599, Pitch_bend_c, 5, 8192
6, 27599, Note_on_c, 5, 72, 95
6, 27599, Pitch_bend_c, 5, 8192
6, 27603, Pitch_bend_c, 5, 8320
6, 27607, Pitch_bend_c, 5, 8448
6, 27611, Pitch_bend_c, 5, 8704
6, 27615, Pitch_bend_c, 5, 8832
6, 27629, Note_off_c, 5, 72, 0
6, 27629, Pitch_bend_c, 5, 8192
6, 27659, Note_on_c, 5, 67, 95
6, 27659, Pitch_bend_c, 5, 8192
6, 27663, Pitch_bend_c, 5, 8448
6, 27667, Pitch_bend_c, 5, 8832
6, 27674, Note_off_c, 5, 67, 0
6, 27674, Pitch_bend_c, 5, 8192
6, 27719, Note_on_c, 5, 62, 95
6, 27719, Pitch_bend_c, 5, 8192
6, 27723, Pitch_bend_c, 5, 8704
6, 27727, Pitch_bend_c, 5, 9600
6, 27734, Note_off_c, 5, 62, 0
6, 27734, Pitch_bend_c, 5, 8192
6, 27989, Note_on_c, 5, 62, 95
6, 27989, Pitch_bend_c, 5, 8192
6, 27993, Pitch_bend_c, 5, 8320
6, 27997, Pitch_bend_c, 5, 8960
6, 28001, Pitch_bend_c, 5, 9472
6, 28005, Pitch_bend_c, 5, 9600
6, 28017, Pitch_bend_c, 5, 9216
6, 28021, Pitch_bend_c, 5, 8576
6, 28025, Pitch_bend_c, 5, 8192
6, 28039, Note_off_c, 5, 62, 0
6, 28039, Pitch_bend_c, 5, 8192
6, 28304, Note_on_c, 5, 63, 95
6, 28304, Pitch_bend_c, 5, 6144
6, 28309, Pitch_bend_c, 5, 6784
6, 28314, Pitch_bend_c, 5, 7552
6, 28319, Pitch_bend_c, 5, 8192
6, 28484, Note_off_c, 5, 63, 0
6, 28919, Note_on_c, 5, 69, 95
6, 28919, Pitch_bend_c, 5, 8192
6, 28927, Pitch_bend_c, 5, 8320
6, 28931, Pitch_bend_c, 5, 8448
6, 28935, Pitch_bend_c, 5, 8704
6, 28939, Pitch_bend_c, 5, 8960
6, 28943, Pitch_bend_c, 5, 9344
6, 28947, Pitch_bend_c, 5, 9472
6, 28951, Pitch_bend_c, 5, 9600
6, 29039, Note_off_c, 5, 69, 0
6, 29039, Pitch_bend_c, 5, 8192
6, 29264, Note_on_c, 5, 69, 95
6, 29264, Pitch_bend_c, 5, 7552
6, 29279, Control_c, 5, 7, 102
6, 29279, Pitch_bend_c, 5, 8192
6, 29309, Control_c, 5, 7, 100
6, 29339, Control_c, 5, 7, 99
6, 29369, Control_c, 5, 7, 97
6, 29399, Control_c, 5, 7, 95
6, 29429, Control_c, 5, 7, 93
6, 29459, Control_c, 5, 7, 92
6, 29489, Control_c, 5, 7, 90
6, 29519, Note_off_c, 5, 69, 0
6, 29519, Control_c, 5, 7, 88
6, 32939, Control_c, 5, 7, 104
6, 33119, Note_on_c, 5, 71, 95
6, 33119, Pitch_bend_c, 5, 8192
6, 33135, Pitch_bend_c, 5, 8320
6, 33151, Pitch_bend_c, 5, 8448
6, 33155, Pitch_bend_c, 5, 8576
6, 33163, Pitch_bend_c, 5, 8704
6, 33171, Pitch_bend_c, 5, 8832
6, 33179, Pitch_bend_c, 5, 8832
6, 33180, Pitch_bend_c, 5, 8960
6, 33181, Pitch_bend_c, 5, 8960
6, 33182, Pitch_bend_c, 5, 8960
6, 33183, Pitch_bend_c, 5, 8960
6, 33184, Pitch_bend_c, 5, 8960
6, 33185, Pitch_bend_c, 5, 8960
6, 33186, Pitch_bend_c, 5, 9088
6, 33187, Pitch_bend_c, 5, 9088
6, 33188, Pitch_bend_c, 5, 9088
6, 33189, Pitch_bend_c, 5, 9088
6, 33190, Pitch_bend_c, 5, 8960
6, 33191, Pitch_bend_c, 5, 8960
6, 33192, Pitch_bend_c, 5, 8960
6, 33193, Pitch_bend_c, 5, 8960
6, 33194, Pitch_bend_c, 5, 8832
6, 33195, Pitch_bend_c, 5, 8832
6, 33196, Pitch_bend_c, 5, 8832
6, 33197, Pitch_bend_c, 5, 8704
6, 33198, Pitch_bend_c, 5, 8704
6, 33199, Pitch_bend_c, 5, 8704
6, 33200, Pitch_bend_c, 5, 8704
6, 33201, Pitch_bend_c, 5, 8704
6, 33202, Pitch_bend_c, 5, 8704
6, 33203, Pitch_bend_c, 5, 8704
6, 33204, Pitch_bend_c, 5, 8704
6, 33205, Pitch_bend_c, 5, 8704
6, 33206, Pitch_bend_c, 5, 8832
6, 33207, Pitch_bend_c, 5, 8832
6, 33208, Pitch_bend_c, 5, 8832
6, 33209, Pitch_bend_c, 5, 8832
6, 33210, Pitch_bend_c, 5, 8960
6, 33211, Pitch_bend_c, 5, 8960
6, 33212, Pitch_bend_c, 5, 8960
6, 33213, Pitch_bend_c, 5, 8960
6, 33214, Pitch_bend_c, 5, 8960
6, 33215, Pitch_bend_c, 5, 8960
6, 33216, Pitch_bend_c, 5, 9088
6, 33217, Pitch_bend_c, 5, 9088
6, 33218, Pitch_bend_c, 5, 9088
6, 33219, Pitch_bend_c, 5, 9088
6, 33220, Pitch_bend_c, 5, 8960
6, 33221, Pitch_bend_c, 5, 8960
6, 33222, Pitch_bend_c, 5, 8960
6, 33223, Pitch_bend_c, 5, 8960
6, 33224, Pitch_bend_c, 5, 8832
6, 33225, Pitch_bend_c, 5, 8832
6, 33226, Pitch_bend_c, 5, 8832
6, 33227, Pitch_bend_c, 5, 8832
6, 33228, Pitch_bend_c, 5, 8704
6, 33229, Pitch_bend_c, 5, 8704
6, 33230, Pitch_bend_c, 5, 8704
6, 33231, Pitch_bend_c, 5, 8704
6, 33232, Pitch_bend_c, 5, 8704
6, 33233, Pitch_bend_c, 5, 8704
6, 33234, Pitch_bend_c, 5, 8704
6, 33235, Pitch_bend_c, 5, 8832
6, 33236, Pitch_bend_c, 5, 8832
6, 33237, Pitch_bend_c, 5, 8832
6, 33238, Pitch_bend_c, 5, 8832
6, 33239, Pitch_bend_c, 5, 8832
6, 33240, Pitch_bend_c, 5, 8960
6, 33241, Pitch_bend_c, 5, 8960
6, 33242, Pitch_bend_c, 5, 8960
6, 33243, Pitch_bend_c, 5, 8960
6, 33244, Pitch_bend_c, 5, 9088
6, 33245, Pitch_bend_c, 5, 9088
6, 33246, Pitch_bend_c, 5, 9088
6, 33247, Pitch_bend_c, 5, 9088
6, 33248, Pitch_bend_c, 5, 9088
6, 33249, Pitch_bend_c, 5, 9088
6, 33250, Pitch_bend_c, 5, 9088
6, 33251, Pitch_bend_c, 5, 8960
6, 33252, Pitch_bend_c, 5, 8960
6, 33253, Pitch_bend_c, 5, 8960
6, 33254, Pitch_bend_c, 5, 8832
6, 33255, Pitch_bend_c, 5, 8832
6, 33256, Pitch_bend_c, 5, 8832
6, 33257, Pitch_bend_c, 5, 8832
6, 33258, Pitch_bend_c, 5, 8704
6, 33259, Pitch_bend_c, 5, 8704
6, 33260, Pitch_bend_c, 5, 8704
6, 33261, Pitch_bend_c, 5, 8704
6, 33262, Pitch_bend_c, 5, 8704
6, 33263, Pitch_bend_c, 5, 8704
6, 33264, Pitch_bend_c, 5, 8704
6, 33265, Pitch_bend_c, 5, 8704
6, 33266, Pitch_bend_c, 5, 8832
6, 33267, Pitch_bend_c, 5, 8832
6, 33268, Pitch_bend_c, 5, 8832
6, 33269, Pitch_bend_c, 5, 8832
6, 33270, Pitch_bend_c, 5, 8960
6, 33271, Pitch_bend_c, 5, 8960
6, 33272, Pitch_bend_c, 5, 8960
6, 33273, Pitch_bend_c, 5, 8960
6, 33274, Pitch_bend_c, 5, 8960
6, 33275, Pitch_bend_c, 5, 9088
6, 33276, Pitch_bend_c, 5, 9088
6, 33277, Pitch_bend_c, 5, 9088
6, 33278, Pitch_bend_c, 5, 9088
6, 33279, Pitch_bend_c, 5, 9088
6, 33280, Pitch_bend_c, 5, 9088
6, 33281, Pitch_bend_c, 5, 8960
6, 33282, Pitch_bend_c, 5, 8960
6, 33283, Pitch_bend_c, 5, 8960
6, 33284, Pitch_bend_c, 5, 8832
6, 33285, Pitch_bend_c, 5, 8832
6, 33286, Pitch_bend_c, 5, 8832
6, 33287, Pitch_bend_c, 5, 8704
6, 33288, Pitch_bend_c, 5, 8704
6, 33289, Pitch_bend_c, 5, 8704
6, 33290, Pitch_bend_c, 5, 8704
6, 33291, Pitch_bend_c, 5, 8704
6, 33292, Pitch_bend_c, 5, 8704
6, 33293, Pitch_bend_c, 5, 8704
6, 33294, Pitch_bend_c, 5, 8704
6, 33295, Pitch_bend_c, 5, 8704
6, 33296, Pitch_bend_c, 5, 8832
6, 33297, Pitch_bend_c, 5, 8832
6, 33298, Pitch_bend_c, 5, 8832
6, 33299, Pitch_bend_c, 5, 8960
6, 33300, Pitch_bend_c, 5, 8960
6, 33301, Pitch_bend_c, 5, 8960
6, 33302, Pitch_bend_c, 5, 8960
6, 33303, Pitch_bend_c, 5, 8960
6, 33304, Pitch_bend_c, 5, 8960
6, 33305, Pitch_bend_c, 5, 9088
6, 33306, Pitch_bend_c, 5, 9088
6, 33307, Pitch_bend_c, 5, 8960
6, 33308, Pitch_bend_c, 5, 8960
6, 33309, Pitch_bend_c, 5, 8960
6, 33310, Pitch_bend_c, 5, 8960
6, 33311, Pitch_bend_c, 5, 8960
6, 33312, Pitch_bend_c, 5, 8960
6, 33313, Pitch_bend_c, 5, 8960
6, 33314, Pitch_bend_c, 5, 8832
6, 33315, Pitch_bend_c, 5, 8832
6, 33316, Pitch_bend_c, 5, 8832
6, 33317, Pitch_bend_c, 5, 8704
6, 33318, Pitch_bend_c, 5, 8704
6, 33319, Pitch_bend_c, 5, 8704
6, 33320, Pitch_bend_c, 5, 8704
6, 33321, Pitch_bend_c, 5, 8704
6, 33322, Pitch_bend_c, 5, 8704
6, 33323, Pitch_bend_c, 5, 8704
6, 33324, Pitch_bend_c, 5, 8704
6, 33325, Pitch_bend_c, 5, 8832
6, 33326, Pitch_bend_c, 5, 8832
6, 33327, Pitch_bend_c, 5, 8832
6, 33328, Pitch_bend_c, 5, 8832
6, 33329, Pitch_bend_c, 5, 8832
6, 33330, Pitch_bend_c, 5, 8960
6, 33331, Pitch_bend_c, 5, 8960
6, 33332, Pitch_bend_c, 5, 8960
6, 33333, Pitch_bend_c, 5, 9088
6, 33334, Pitch_bend_c, 5, 9088
6, 33335, Pitch_bend_c, 5, 9088
6, 33336, Pitch_bend_c, 5, 9088
6, 33337, Pitch_bend_c, 5, 9088
6, 33338, Pitch_bend_c, 5, 9088
6, 33339, Pitch_bend_c, 5, 9088
6, 33340, Pitch_bend_c, 5, 9088
6, 33341, Pitch_bend_c, 5, 8960
6, 33342, Pitch_bend_c, 5, 8960
6, 33343, Pitch_bend_c, 5, 8960
6, 33344, Pitch_bend_c, 5, 8832
6, 33345, Pitch_bend_c, 5, 8832
6, 33346, Pitch_bend_c, 5, 8832
6, 33347, Pitch_bend_c, 5, 8832
6, 33348, Pitch_bend_c, 5, 8704
6, 33349, Pitch_bend_c, 5, 8704
6, 33350, Pitch_bend_c, 5, 8704
6, 33351, Pitch_bend_c, 5, 8704
6, 33352, Pitch_bend_c, 5, 8704
6, 33353, Pitch_bend_c, 5, 8704
6, 33354, Pitch_bend_c, 5, 8704
6, 33355, Pitch_bend_c, 5, 8832
6, 33356, Pitch_bend_c, 5, 8832
6, 33357, Pitch_bend_c, 5, 8832
6, 33358, Pitch_bend_c, 5, 8832
6, 33359, Note_off_c, 5, 71, 0
6, 33359, Pitch_bend_c, 5, 8832
6, 33359, Pitch_bend_c, 5, 8192
6, 33359, Note_on_c, 5, 71, 95
6, 33359, Pitch_bend_c, 5, 8192
6, 33367, Pitch_bend_c, 5, 8320
6, 33371, Pitch_bend_c, 5, 8576
6, 33375, Pitch_bend_c, 5, 8704
6, 33379, Pitch_bend_c, 5, 8832
6, 33439, Note_off_c, 5, 71, 0
6, 33439, Pitch_bend_c, 5, 8192
6, 34079, Note_on_c, 5, 74, 95
6, 34079, Pitch_bend_c, 5, 8192
6, 34087, Pitch_bend_c, 5, 8320
6, 34095, Pitch_bend_c, 5, 8448
6, 34099, Pitch_bend_c, 5, 8576
6, 34103, Pitch_bend_c, 5, 8704
6, 34107, Pitch_bend_c, 5, 8960
6, 34111, Pitch_bend_c, 5, 9088
6, 34115, Pitch_bend_c, 5, 9344
6, 34119, Pitch_bend_c, 5, 9472
6, 34127, Pitch_bend_c, 5, 9600
6, 34169, Note_off_c, 5, 74, 0
6, 34169, Pitch_bend_c, 5, 8192
6, 34169, Note_on_c, 5, 74, 95
6, 34169, Pitch_bend_c, 5, 8192
6, 34181, Pitch_bend_c, 5, 8320
6, 34189, Pitch_bend_c, 5, 8448
6, 34193, Pitch_bend_c, 5, 8576
6, 34197, Pitch_bend_c, 5, 8704
6, 34201, Pitch_bend_c, 5, 8832
6, 34205, Pitch_bend_c, 5, 9088
6, 34213, Pitch_bend_c, 5, 9344
6, 34217, Pitch_bend_c, 5, 9472
6, 34221, Pitch_bend_c, 5, 9472
6, 34222, Pitch_bend_c, 5, 9472
6, 34223, Pitch_bend_c, 5, 9472
6, 34224, Pitch_bend_c, 5, 9472
6, 34225, Pitch_bend_c, 5, 9472
6, 34226, Pitch_bend_c, 5, 9472
6, 34227, Pitch_bend_c, 5, 9472
6, 34228, Pitch_bend_c, 5, 9472
6, 34229, Pitch_bend_c, 5, 9600
6, 34230, Pitch_bend_c, 5, 9600
6, 34231, Pitch_bend_c, 5, 9600
6, 34232, Pitch_bend_c, 5, 9728
6, 34233, Pitch_bend_c, 5, 9728
6, 34234, Pitch_bend_c, 5, 9728
6, 34235, Pitch_bend_c, 5, 9728
6, 34236, Pitch_bend_c, 5, 9728
6, 34237, Pitch_bend_c, 5, 9728
6, 34238, Pitch_bend_c, 5, 9728
6, 34239, Pitch_bend_c, 5, 9728
6, 34240, Pitch_bend_c, 5, 9728
6, 34241, Pitch_bend_c, 5, 9600
6, 34242, Pitch_bend_c, 5, 9600
6, 34243, Pitch_bend_c, 5, 9600
6, 34244, Pitch_bend_c, 5, 9600
6, 34245, Pitch_bend_c, 5, 9472
6, 34246, Pitch_bend_c, 5, 9472
6, 34247, Pitch_bend_c, 5, 9472
6, 34248, Pitch_bend_c, 5, 9472
6, 34249, Pitch_bend_c, 5, 9472
6, 34250, Pitch_bend_c, 5, 9472
6, 34251, Pitch_bend_c, 5, 9472
6, 34252, Pitch_bend_c, 5, 9472
6, 34253, Pitch_bend_c, 5, 9344
6, 34254, Pitch_bend_c, 5, 9344
6, 34255, Pitch_bend_c, 5, 9344
6, 34256, Pitch_bend_c, 5, 9472
6, 34257, Pitch_bend_c, 5, 9472
6, 34258, Pitch_bend_c, 5, 9472
6, 34259, Pitch_bend_c, 5, 9472
6, 34260, Pitch_bend_c, 5, 9600
6, 34261, Pitch_bend_c, 5, 9600
6, 34262, Pitch_bend_c, 5, 9600
6, 34263, Pitch_bend_c, 5, 9728
6, 34264, Pitch_bend_c, 5, 9728
6, 34265, Pitch_bend_c, 5, 9728
6, 34266, Pitch_bend_c, 5, 9728
6, 34267, Pitch_bend_c, 5, 9728
6, 34268, Pitch_bend_c, 5, 9728
6, 34269, Pitch_bend_c, 5, 9728
6, 34270, Pitch_bend_c, 5, 9600
6, 34271, Pitch_bend_c, 5, 9600
6, 34272, Pitch_bend_c, 5, 9600
6, 34273, Pitch_bend_c, 5, 9600
6, 34274, Pitch_bend_c, 5, 9600
6, 34275, Pitch_bend_c, 5, 9472
6, 34276, Pitch_bend_c, 5, 9472
6, 34277, Pitch_bend_c, 5, 9472
6, 34278, Pitch_bend_c, 5, 9472
6, 34279, Pitch_bend_c, 5, 9472
6, 34280, Pitch_bend_c, 5, 9344
6, 34281, Pitch_bend_c, 5, 9344
6, 34282, Pitch_bend_c, 5, 9344
6, 34283, Pitch_bend_c, 5, 9472
6, 34284, Pitch_bend_c, 5, 9472
6, 34285, Pitch_bend_c, 5, 9344
6, 34286, Pitch_bend_c, 5, 9472
6, 34287, Pitch_bend_c, 5, 9472
6, 34288, Pitch_bend_c, 5, 9472
6, 34289, Pitch_bend_c, 5, 9600
6, 34290, Pitch_bend_c, 5, 9600
6, 34291, Pitch_bend_c, 5, 9600
6, 34292, Pitch_bend_c, 5, 9728
6, 34293, Pitch_bend_c, 5, 9600
6, 34294, Pitch_bend_c, 5, 9600
6, 34295, Pitch_bend_c, 5, 9728
6, 34296, Pitch_bend_c, 5, 9728
6, 34297, Pitch_bend_c, 5, 9728
6, 34298, Pitch_bend_c, 5, 9728
6, 34299, Pitch_bend_c, 5, 9600
6, 34300, Pitch_bend_c, 5, 9600
6, 34301, Pitch_bend_c, 5, 9600
6, 34302, Pitch_bend_c, 5, 9600
6, 34303, Pitch_bend_c, 5, 9600
6, 34304, Pitch_bend_c, 5, 9600
6, 34305, Pitch_bend_c, 5, 9472
6, 34306, Pitch_bend_c, 5, 9472
6, 34307, Pitch_bend_c, 5, 9472
6, 34308, Pitch_bend_c, 5, 9472
6, 34309, Pitch_bend_c, 5, 9344
6, 34310, Pitch_bend_c, 5, 9344
6, 34311, Pitch_bend_c, 5, 9344
6, 34312, Pitch_bend_c, 5, 9344
6, 34313, Pitch_bend_c, 5, 9344
6, 34314, Pitch_bend_c, 5, 9344
6, 34315, Pitch_bend_c, 5, 9344
6, 34316, Pitch_bend_c, 5, 9472
6, 34317, Pitch_bend_c, 5, 9472
6, 34318, Pitch_bend_c, 5, 9472
6, 34319, Pitch_bend_c, 5, 9600
6, 34320, Pitch_bend_c, 5, 9600
6, 34321, Pitch_bend_c, 5, 9600
6, 34322, Pitch_bend_c, 5, 9728
6, 34323, Pitch_bend_c, 5, 9728
6, 34324, Pitch_bend_c, 5, 9728
6, 34325, Pitch_bend_c, 5, 9728
6, 34326, Pitch_bend_c, 5, 9728
6, 34327, Pitch_bend_c, 5, 9728
6, 34328, Pitch_bend_c, 5, 9728
6, 34329, Pitch_bend_c, 5, 9728
6, 34330, Pitch_bend_c, 5, 9600
6, 34331, Pitch_bend_c, 5, 9600
6, 34332, Pitch_bend_c, 5, 9600
6, 34333, Pitch_bend_c, 5, 9600
6, 34334, Pitch_bend_c, 5, 9600
6, 34335, Pitch_bend_c, 5, 9472
6, 34336, Pitch_bend_c, 5, 9472
6, 34337, Pitch_bend_c, 5, 9472
6, 34338, Pitch_bend_c, 5, 9472
6, 34339, Pitch_bend_c, 5, 9472
6, 34340, Pitch_bend_c, 5, 9472
6, 34341, Pitch_bend_c, 5, 9472
6, 34342, Pitch_bend_c, 5, 9472
6, 34343, Pitch_bend_c, 5, 9472
6, 34344, Pitch_bend_c, 5, 9472
6, 34345, Pitch_bend_c, 5, 9472
6, 34346, Pitch_bend_c, 5, 9472
6, 34347, Pitch_bend_c, 5, 9472
6, 34348, Pitch_bend_c, 5, 9600
6, 34349, Pitch_bend_c, 5, 9600
6, 34350, Pitch_bend_c, 5, 9600
6, 34351, Pitch_bend_c, 5, 9600
6, 34352, Pitch_bend_c, 5, 9600
6, 34353, Pitch_bend_c, 5, 9600
6, 34354, Pitch_bend_c, 5, 9600
6, 34355, Pitch_bend_c, 5, 9600
6, 34356, Pitch_bend_c, 5, 9728
6, 34357, Pitch_bend_c, 5, 9728
6, 34358, Pitch_bend_c, 5, 9728
6, 34359, Pitch_bend_c, 5, 9728
6, 34360, Pitch_bend_c, 5, 9600
6, 34361, Pitch_bend_c, 5, 9600
6, 34362, Pitch_bend_c, 5, 9600
6, 34363, Pitch_bend_c, 5, 9600
6, 34364, Pitch_bend_c, 5, 9600
6, 34365, Pitch_bend_c, 5, 9472
6, 34366, Pitch_bend_c, 5, 9472
6, 34367, Pitch_bend_c, 5, 9472
6, 34368, Pitch_bend_c, 5, 9344
6, 34369, Pitch_bend_c, 5, 9344
6, 34370, Pitch_bend_c, 5, 9344
6, 34371, Pitch_bend_c, 5, 9344
6, 34372, Pitch_bend_c, 5, 9344
6, 34373, Pitch_bend_c, 5, 9472
6, 34374, Pitch_bend_c, 5, 9472
6, 34375, Pitch_bend_c, 5, 9472
6, 34376, Pitch_bend_c, 5, 9472
6, 34377, Pitch_bend_c, 5, 9472
6, 34378, Pitch_bend_c, 5, 9600
6, 34379, Pitch_bend_c, 5, 9600
6, 34380, Pitch_bend_c, 5, 9600
6, 34381, Pitch_bend_c, 5, 9600
6, 34382, Pitch_bend_c, 5, 9728
6, 34383, Pitch_bend_c, 5, 9728
6, 34384, Pitch_bend_c, 5, 9728
6, 34385, Pitch_bend_c, 5, 9728
6, 34386, Pitch_bend_c, 5, 9728
6, 34387, Pitch_bend_c, 5, 9728
6, 34388, Pitch_bend_c, 5, 9728
6, 34389, Pitch_bend_c, 5, 9728
6, 34390, Pitch_bend_c, 5, 9728
6, 34391, Pitch_bend_c, 5, 9600
6, 34392, Pitch_bend_c, 5, 9600
6, 34393, Pitch_bend_c, 5, 9600
6, 34394, Pitch_bend_c, 5, 9600
6, 34395, Pitch_bend_c, 5, 9472
6, 34396, Pitch_bend_c, 5, 9472
6, 34397, Pitch_bend_c, 5, 9472
6, 34398, Pitch_bend_c, 5, 9472
6, 34399, Pitch_bend_c, 5, 9472
6, 34400, Pitch_bend_c, 5, 9472
6, 34401, Pitch_bend_c, 5, 9472
6, 34402, Pitch_bend_c, 5, 9472
6, 34403, Pitch_bend_c, 5, 9472
6, 34404, Pitch_bend_c, 5, 9472
6, 34405, Pitch_bend_c, 5, 9472
6, 34406, Pitch_bend_c, 5, 9472
6, 34407, Pitch_bend_c, 5, 9472
6, 34408, Pitch_bend_c, 5, 9600
6, 34409, Pitch_bend_c, 5, 9600
6, 34410, Pitch_bend_c, 5, 9600
6, 34411, Pitch_bend_c, 5, 9600
6, 34412, Pitch_bend_c, 5, 9728
6, 34413, Pitch_bend_c, 5, 9728
6, 34414, Pitch_bend_c, 5, 9728
6, 34415, Pitch_bend_c, 5, 9728
6, 34416, Pitch_bend_c, 5, 9728
6, 34417, Pitch_bend_c, 5, 9728
6, 34418, Pitch_bend_c, 5, 9728
6, 34419, Pitch_bend_c, 5, 9728
6, 34420, Pitch_bend_c, 5, 9728
6, 34421, Pitch_bend_c, 5, 9600
6, 34422, Pitch_bend_c, 5, 9600
6, 34423, Pitch_bend_c, 5, 9600
6, 34424, Pitch_bend_c, 5, 9600
6, 34425, Pitch_bend_c, 5, 9472
6, 34426, Pitch_bend_c, 5, 9472
6, 34427, Pitch_bend_c, 5, 9472
6, 34428, Pitch_bend_c, 5, 9472
6, 34429, Pitch_bend_c, 5, 9472
6, 34430, Pitch_bend_c, 5, 9344
6, 34431, Pitch_bend_c, 5, 9344
6, 34432, Pitch_bend_c, 5, 9344
6, 34433, Pitch_bend_c, 5, 9472
6, 34434, Pitch_bend_c, 5, 9472
6, 34435, Pitch_bend_c, 5, 9472
6, 34436, Pitch_bend_c, 5, 9472
6, 34437, Pitch_bend_c, 5, 9472
6, 34438, Pitch_bend_c, 5, 9600
6, 34439, Pitch_bend_c, 5, 9600
6, 34440, Pitch_bend_c, 5, 9600
6, 34441, Pitch_bend_c, 5, 9600
6, 34442, Pitch_bend_c, 5, 9728
6, 34443, Pitch_bend_c, 5, 9728
6, 34444, Pitch_bend_c, 5, 9728
6, 34445, Pitch_bend_c, 5, 9728
6, 34446, Pitch_bend_c, 5, 9728
6, 34447, Pitch_bend_c, 5, 9728
6, 34448, Pitch_bend_c, 5, 9728
6, 34449, Pitch_bend_c, 5, 9728
6, 34450, Pitch_bend_c, 5, 9728
6, 34451, Pitch_bend_c, 5, 9728
6, 34452, Pitch_bend_c, 5, 9600
6, 34453, Pitch_bend_c, 5, 9600
6, 34454, Pitch_bend_c, 5, 9600
6, 34455, Pitch_bend_c, 5, 9472
6, 34456, Pitch_bend_c, 5, 9472
6, 34457, Pitch_bend_c, 5, 9472
6, 34458, Pitch_bend_c, 5, 9472
6, 34459, Pitch_bend_c, 5, 9472
6, 34460, Pitch_bend_c, 5, 9344
6, 34461, Pitch_bend_c, 5, 9472
6, 34462, Pitch_bend_c, 5, 9472
6, 34463, Pitch_bend_c, 5, 9472
6, 34464, Pitch_bend_c, 5, 9472
6, 34465, Pitch_bend_c, 5, 9472
6, 34466, Pitch_bend_c, 5, 9472
6, 34467, Pitch_bend_c, 5, 9472
6, 34468, Pitch_bend_c, 5, 9600
6, 34469, Pitch_bend_c, 5, 9600
6, 34470, Pitch_bend_c, 5, 9600
6, 34471, Pitch_bend_c, 5, 9728
6, 34472, Pitch_bend_c, 5, 9728
6, 34473, Pitch_bend_c, 5, 9728
6, 34474, Pitch_bend_c, 5, 9728
6, 34475, Pitch_bend_c, 5, 9728
6, 34476, Pitch_bend_c, 5, 9728
6, 34477, Pitch_bend_c, 5, 9728
6, 34478, Pitch_bend_c, 5, 9728
6, 34479, Pitch_bend_c, 5, 9600
6, 34480, Pitch_bend_c, 5, 9600
6, 34481, Pitch_bend_c, 5, 9600
6, 34482, Pitch_bend_c, 5, 9600
6, 34483, Pitch_bend_c, 5, 9600
6, 34484, Pitch_bend_c, 5, 9600
6, 34485, Pitch_bend_c, 5, 9472
6, 34486, Pitch_bend_c, 5, 9472
6, 34487, Pitch_bend_c, 5, 9472
6, 34488, Pitch_bend_c, 5, 9472
6, 34489, Pitch_bend_c, 5, 9344
6, 34490, Pitch_bend_c, 5, 9344
6, 34491, Pitch_bend_c, 5, 9344
6, 34492, Pitch_bend_c, 5, 9344
6, 34493, Pitch_bend_c, 5, 9472
6, 34494, Pitch_bend_c, 5, 9472
6, 34495, Pitch_bend_c, 5, 9472
6, 34496, Pitch_bend_c, 5, 9472
6, 34497, Pitch_bend_c, 5, 9472
6, 34498, Pitch_bend_c, 5, 9600
6, 34499, Pitch_bend_c, 5, 9600
6, 34500, Pitch_bend_c, 5, 9600
6, 34501, Pitch_bend_c, 5, 9600
6, 34502, Pitch_bend_c, 5, 9728
6, 34503, Pitch_bend_c, 5, 9728
6, 34504, Pitch_bend_c, 5, 9728
6, 34505, Pitch_bend_c, 5, 9728
6, 34506, Pitch_bend_c, 5, 9728
6, 34507, Pitch_bend_c, 5, 9728
6, 34508, Pitch_bend_c, 5, 9728
6, 34509, Pitch_bend_c, 5, 9728
6, 34510, Pitch_bend_c, 5, 9728
6, 34511, Pitch_bend_c, 5, 9600
6, 34512, Pitch_bend_c, 5, 9600
6, 34513, Pitch_bend_c, 5, 9600
6, 34514, Pitch_bend_c, 5, 9600
6, 34515, Pitch_bend_c, 5, 9600
6, 34516, Pitch_bend_c, 5, 9472
6, 34517, Pitch_bend_c, 5, 9472
6, 34518, Pitch_bend_c, 5, 9472
6, 34519, Pitch_bend_c, 5, 9472
6, 34520, Pitch_bend_c, 5, 9344
6, 34521, Pitch_bend_c, 5, 9344
6, 34522, Pitch_bend_c, 5, 9344
6, 34523, Pitch_bend_c, 5, 9344
6, 34524, Pitch_bend_c, 5, 9472
6, 34525, Pitch_bend_c, 5, 9472
6, 34526, Pitch_bend_c, 5, 9472
6, 34527, Pitch_bend_c, 5, 9472
6, 34528, Pitch_bend_c, 5, 9600
6, 34529, Pitch_bend_c, 5, 9600
6, 34530, Pitch_bend_c, 5, 9600
6, 34531, Pitch_bend_c, 5, 9600
6, 34532, Pitch_bend_c, 5, 9728
6, 34533, Pitch_bend_c, 5, 9728
6, 34534, Pitch_bend_c, 5, 9728
6, 34535, Pitch_bend_c, 5, 9728
6, 34536, Pitch_bend_c, 5, 9728
6, 34537, Pitch_bend_c, 5, 9728
6, 34538, Pitch_bend_c, 5, 9728
6, 34539, Pitch_bend_c, 5, 9728
6, 34540, Pitch_bend_c, 5, 9728
6, 34541, Pitch_bend_c, 5, 9600
6, 34542, Pitch_bend_c, 5, 9600
6, 34543, Pitch_bend_c, 5, 9600
6, 34544, Pitch_bend_c, 5, 9600
6, 34545, Pitch_bend_c, 5, 9600
6, 34546, Pitch_bend_c, 5, 9472
6, 34547, Pitch_bend_c, 5, 9472
6, 34548, Pitch_bend_c, 5, 9472
6, 34549, Pitch_bend_c, 5, 9472
6, 34550, Pitch_bend_c, 5, 9472
6, 34551, Pitch_bend_c, 5, 9472
6, 34552, Pitch_bend_c, 5, 9472
6, 34553, Pitch_bend_c, 5, 9472
6, 34554, Pitch_bend_c, 5, 9472
6, 34555, Pitch_bend_c, 5, 9472
6, 34556, Pitch_bend_c, 5, 9472
6, 34557, Pitch_bend_c, 5, 9472
6, 34558, Pitch_bend_c, 5, 9600
6, 34559, Pitch_bend_c, 5, 9600
6, 34560, Pitch_bend_c, 5, 9600
6, 34561, Pitch_bend_c, 5, 9600
6, 34562, Pitch_bend_c, 5, 9600
6, 34563, Pitch_bend_c, 5, 9728
6, 34564, Pitch_bend_c, 5, 9728
6, 34565, Pitch_bend_c, 5, 9728
6, 34566, Pitch_bend_c, 5, 9728
6, 34567, Pitch_bend_c, 5, 9728
6, 34568, Pitch_bend_c, 5, 9728
6, 34569, Pitch_bend_c, 5, 9600
6, 34570, Pitch_bend_c, 5, 9600
6, 34571, Pitch_bend_c, 5, 9600
6, 34572, Pitch_bend_c, 5, 9600
6, 34573, Pitch_bend_c, 5, 9600
6, 34574, Pitch_bend_c, 5, 9600
6, 34575, Pitch_bend_c, 5, 9472
6, 34576, Pitch_bend_c, 5, 9472
6, 34577, Pitch_bend_c, 5, 9472
6, 34578, Pitch_bend_c, 5, 9472
6, 34579, Pitch_bend_c, 5, 9472
6, 34580, Pitch_bend_c, 5, 9344
6, 34581, Pitch_bend_c, 5, 9344
6, 34582, Pitch_bend_c, 5, 9344
6, 34583, Pitch_bend_c, 5, 9344
6, 34584, Pitch_bend_c, 5, 9344
6, 34585, Pitch_bend_c, 5, 9344
6, 34586, Pitch_bend_c, 5, 9472
6, 34587, Pitch_bend_c, 5, 9472
6, 34588, Pitch_bend_c, 5, 9472
6, 34589, Pitch_bend_c, 5, 9600
6, 34590, Pitch_bend_c, 5, 9600
6, 34591, Pitch_bend_c, 5, 9728
6, 34592, Pitch_bend_c, 5, 9728
6, 34593, Pitch_bend_c, 5, 9728
6, 34594, Pitch_bend_c, 5, 9728
6, 34595, Pitch_bend_c, 5, 9728
6, 34596, Pitch_bend_c, 5, 9728
6, 34597, Pitch_bend_c, 5, 9728
6, 34598, Pitch_bend_c, 5, 9728
6, 34599, Pitch_bend_c, 5, 9728
6, 34600, Pitch_bend_c, 5, 9728
6, 34601, Pitch_bend_c, 5, 9600
6, 34602, Pitch_bend_c, 5, 9600
6, 34603, Pitch_bend_c, 5, 9600
6, 34604, Pitch_bend_c, 5, 9600
6, 34605, Pitch_bend_c, 5, 9472
6, 34606, Pitch_bend_c, 5, 9472
6, 34607, Pitch_bend_c, 5, 9472
6, 34608, Pitch_bend_c, 5, 9472
6, 34609, Pitch_bend_c, 5, 9472
6, 34610, Pitch_bend_c, 5, 9472
6, 34611, Pitch_bend_c, 5, 9344
6, 34612, Pitch_bend_c, 5, 9344
6, 34613, Pitch_bend_c, 5, 9472
6, 34614, Pitch_bend_c, 5, 9472
6, 34615, Pitch_bend_c, 5, 9472
6, 34616, Pitch_bend_c, 5, 9472
6, 34617, Pitch_bend_c, 5, 9472
6, 34618, Pitch_bend_c, 5, 9472
6, 34619, Pitch_bend_c, 5, 9600
6, 34620, Pitch_bend_c, 5, 9600
6, 34621, Pitch_bend_c, 5, 9600
6, 34622, Pitch_bend_c, 5, 9728
6, 34623, Pitch_bend_c, 5, 9728
6, 34624, Pitch_bend_c, 5, 9728
6, 34625, Pitch_bend_c, 5, 9728
6, 34626, Pitch_bend_c, 5, 9728
6, 34627, Pitch_bend_c, 5, 9728
6, 34628, Pitch_bend_c, 5, 9728
6, 34629, Pitch_bend_c, 5, 9728
6, 34630, Pitch_bend_c, 5, 9728
6, 34631, Pitch_bend_c, 5, 9600
6, 34632, Pitch_bend_c, 5, 9600
6, 34633, Pitch_bend_c, 5, 9600
6, 34634, Pitch_bend_c, 5, 9472
6, 34635, Pitch_bend_c, 5, 9472
6, 34636, Pitch_bend_c, 5, 9472
6, 34637, Pitch_bend_c, 5, 9472
6, 34638, Pitch_bend_c, 5, 9472
6, 34639, Pitch_bend_c, 5, 9472
6, 34640, Pitch_bend_c, 5, 9472
6, 34641, Pitch_bend_c, 5, 9472
6, 34642, Pitch_bend_c, 5, 9472
6, 34643, Pitch_bend_c, 5, 9472
6, 34644, Pitch_bend_c, 5, 9472
6, 34645, Pitch_bend_c, 5, 9472
6, 34646, Pitch_bend_c, 5, 9472
6, 34647, Pitch_bend_c, 5, 9472
6, 34648, Pitch_bend_c, 5, 9472
6, 34649, Pitch_bend_c, 5, 9600
6, 34650, Pitch_bend_c, 5, 9600
6, 34651, Pitch_bend_c, 5, 9600
6, 34652, Pitch_bend_c, 5, 9728
6, 34653, Pitch_bend_c, 5, 9728
6, 34654, Pitch_bend_c, 5, 9728
6, 34655, Pitch_bend_c, 5, 9728
6, 34656, Pitch_bend_c, 5, 9728
6, 34657, Pitch_bend_c, 5, 9728
6, 34658, Pitch_bend_c, 5, 9728
6, 34659, Pitch_bend_c, 5, 9728
6, 34660, Pitch_bend_c, 5, 9728
6, 34661, Pitch_bend_c, 5, 9600
6, 34662, Pitch_bend_c, 5, 9600
6, 34663, Pitch_bend_c, 5, 9600
6, 34664, Pitch_bend_c, 5, 9600
6, 34665, Pitch_bend_c, 5, 9472
6, 34666, Pitch_bend_c, 5, 9472
6, 34667, Pitch_bend_c, 5, 9472
6, 34668, Pitch_bend_c, 5, 9472
6, 34669, Pitch_bend_c, 5, 9344
6, 34670, Pitch_bend_c, 5, 9344
6, 34671, Pitch_bend_c, 5, 9344
6, 34672, Pitch_bend_c, 5, 9344
6, 34673, Pitch_bend_c, 5, 9344
6, 34674, Pitch_bend_c, 5, 9344
6, 34675, Pitch_bend_c, 5, 9344
6, 34676, Pitch_bend_c, 5, 9472
6, 34677, Pitch_bend_c, 5, 9472
6, 34678, Pitch_bend_c, 5, 9472
6, 34679, Pitch_bend_c, 5, 9600
6, 34680, Pitch_bend_c, 5, 9600
6, 34681, Pitch_bend_c, 5, 9600
6, 34682, Pitch_bend_c, 5, 9600
6, 34683, Pitch_bend_c, 5, 9728
6, 34684, Pitch_bend_c, 5, 9728
6, 34685, Pitch_bend_c, 5, 9728
6, 34686, Pitch_bend_c, 5, 9728
6, 34687, Pitch_bend_c, 5, 9728
6, 34688, Pitch_bend_c, 5, 9728
6, 34689, Pitch_bend_c, 5, 9728
6, 34690, Pitch_bend_c, 5, 9728
6, 34691, Pitch_bend_c, 5, 9728
6, 34692, Pitch_bend_c, 5, 9600
6, 34693, Pitch_bend_c, 5, 9600
6, 34694, Pitch_bend_c, 5, 9472
6, 34695, Pitch_bend_c, 5, 9472
6, 34696, Pitch_bend_c, 5, 9472
6, 34697, Pitch_bend_c, 5, 9472
6, 34698, Pitch_bend_c, 5, 9472
6, 34699, Pitch_bend_c, 5, 9472
6, 34700, Pitch_bend_c, 5, 9472
6, 34701, Pitch_bend_c, 5, 9344
6, 34702, Pitch_bend_c, 5, 9344
6, 34703, Pitch_bend_c, 5, 9344
6, 34704, Pitch_bend_c, 5, 9344
6, 34705, Pitch_bend_c, 5, 9472
6, 34706, Pitch_bend_c, 5, 9472
6, 34707, Pitch_bend_c, 5, 9472
6, 34708, Pitch_bend_c, 5, 9472
6, 34709, Pitch_bend_c, 5, 9600
6, 34710, Pitch_bend_c, 5, 9600
6, 34711, Pitch_bend_c, 5, 9600
6, 34712, Pitch_bend_c, 5, 9600
6, 34713, Pitch_bend_c, 5, 9728
6, 34714, Pitch_bend_c, 5, 9728
6, 34715, Pitch_bend_c, 5, 9728
6, 34716, Pitch_bend_c, 5, 9728
6, 34717, Pitch_bend_c, 5, 9728
6, 34718, Pitch_bend_c, 5, 9728
6, 34719, Pitch_bend_c, 5, 9600
6, 34720, Pitch_bend_c, 5, 9600
6, 34721, Pitch_bend_c, 5, 9600
6, 34722, Pitch_bend_c, 5, 9600
6, 34723, Pitch_bend_c, 5, 9600
6, 34724, Pitch_bend_c, 5, 9600
6, 34725, Pitch_bend_c, 5, 9472
6, 34726, Pitch_bend_c, 5, 9472
6, 34727, Pitch_bend_c, 5, 9472
6, 34728, Pitch_bend_c, 5, 9472
6, 34729, Pitch_bend_c, 5, 9344
6, 34730, Pitch_bend_c, 5, 9344
6, 34731, Pitch_bend_c, 5, 9344
6, 34732, Pitch_bend_c, 5, 9344
6, 34733, Pitch_bend_c, 5, 9344
6, 34734, Pitch_bend_c, 5, 9344
6, 34735, Pitch_bend_c, 5, 9472
6, 34736, Pitch_bend_c, 5, 9472
6, 34737, Pitch_bend_c, 5, 9472
6, 34738, Pitch_bend_c, 5, 9472
6, 34739, Pitch_bend_c, 5, 9600
6, 34740, Pitch_bend_c, 5, 9600
6, 34741, Pitch_bend_c, 5, 9600
6, 34742, Pitch_bend_c, 5, 9728
6, 34743, Pitch_bend_c, 5, 9728
6, 34744, Pitch_bend_c, 5, 9728
6, 34745, Pitch_bend_c, 5, 9728
6, 34746, Pitch_bend_c, 5, 9728
6, 34747, Pitch_bend_c, 5, 9728
6, 34748, Pitch_bend_c, 5, 9728
6, 34749, Pitch_bend_c, 5, 9600
6, 34750, Pitch_bend_c, 5, 9600
6, 34751, Pitch_bend_c, 5, 9600
6, 34752, Pitch_bend_c, 5, 9600
6, 34753, Pitch_bend_c, 5, 9600
6, 34754, Pitch_bend_c, 5, 9600
6, 34755, Pitch_bend_c, 5, 9472
6, 34756, Pitch_bend_c, 5, 9472
6, 34757, Pitch_bend_c, 5, 9472
6, 34758, Pitch_bend_c, 5, 9344
6, 34759, Pitch_bend_c, 5, 9344
6, 34760, Pitch_bend_c, 5, 9344
6, 34761, Pitch_bend_c, 5, 9344
6, 34762, Pitch_bend_c, 5, 9344
6, 34763, Pitch_bend_c, 5, 9344
6, 34764, Pitch_bend_c, 5, 9344
6, 34765, Pitch_bend_c, 5, 9472
6, 34766, Pitch_bend_c, 5, 9472
6, 34767, Pitch_bend_c, 5, 9472
6, 34768, Pitch_bend_c, 5, 9472
6, 34769, Pitch_bend_c, 5, 9600
6, 34770, Pitch_bend_c, 5, 9600
6, 34771, Pitch_bend_c, 5, 9600
6, 34772, Pitch_bend_c, 5, 9600
6, 34773, Pitch_bend_c, 5, 9600
6, 34774, Pitch_bend_c, 5, 9728
6, 34775, Pitch_bend_c, 5, 9728
6, 34776, Pitch_bend_c, 5, 9728
6, 34777, Pitch_bend_c, 5, 9728
6, 34778, Pitch_bend_c, 5, 9728
6, 34779, Pitch_bend_c, 5, 9728
6, 34780, Pitch_bend_c, 5, 9600
6, 34781, Pitch_bend_c, 5, 9600
6, 34782, Pitch_bend_c, 5, 9600
6, 34783, Pitch_bend_c, 5, 9600
6, 34784, Pitch_bend_c, 5, 9600
6, 34785, Pitch_bend_c, 5, 9472
6, 34786, Pitch_bend_c, 5, 9472
6, 34787, Pitch_bend_c, 5, 9472
6, 34788, Pitch_bend_c, 5, 9472
6, 34789, Pitch_bend_c, 5, 9344
6, 34790, Pitch_bend_c, 5, 9344
6, 34791, Pitch_bend_c, 5, 9344
6, 34792, Pitch_bend_c, 5, 9344
6, 34793, Pitch_bend_c, 5, 9344
6, 34794, Pitch_bend_c, 5, 9472
6, 34795, Pitch_bend_c, 5, 9472
6, 34796, Pitch_bend_c, 5, 9472
6, 34797, Pitch_bend_c, 5, 9472
6, 34798, Pitch_bend_c, 5, 9472
6, 34799, Note_off_c, 5, 74, 0
6, 34799, Pitch_bend_c, 5, 9600
6, 34799, Pitch_bend_c, 5, 8192
6, 35039, Note_on_c, 5, 71, 95
6, 35039, Pitch_bend_c, 5, 8192
6, 35055, Pitch_bend_c, 5, 8320
6, 35071, Pitch_bend_c, 5, 8448
6, 35075, Pitch_bend_c, 5, 8576
6, 35083, Pitch_bend_c, 5, 8704
6, 35091, Pitch_bend_c, 5, 8832
6, 35099, Pitch_bend_c, 5, 8832
6, 35100, Pitch_bend_c, 5, 8960
6, 35101, Pitch_bend_c, 5, 8960
6, 35102, Pitch_bend_c, 5, 8960
6, 35103, Pitch_bend_c, 5, 8960
6, 35104, Pitch_bend_c, 5, 8960
6, 35105, Pitch_bend_c, 5, 8960
6, 35106, Pitch_bend_c, 5, 8960
6, 35107, Pitch_bend_c, 5, 8960
6, 35108, Pitch_bend_c, 5, 8960
6, 35109, Pitch_bend_c, 5, 8960
6, 35110, Pitch_bend_c, 5, 8960
6, 35111, Pitch_bend_c, 5, 8960
6, 35112, Pitch_bend_c, 5, 8960
6, 35113, Pitch_bend_c, 5, 8960
6, 35114, Pitch_bend_c, 5, 8832
6, 35115, Pitch_bend_c, 5, 8832
6, 35116, Pitch_bend_c, 5, 8704
6, 35117, Pitch_bend_c, 5, 8704
6, 35118, Pitch_bend_c, 5, 8704
6, 35119, Pitch_bend_c, 5, 8704
6, 35120, Pitch_bend_c, 5, 8704
6, 35121, Pitch_bend_c, 5, 8704
6, 35122, Pitch_bend_c, 5, 8704
6, 35123, Pitch_bend_c, 5, 8704
6, 35124, Pitch_bend_c, 5, 8704
6, 35125, Pitch_bend_c, 5, 8704
6, 35126, Pitch_bend_c, 5, 8832
6, 35127, Pitch_bend_c, 5, 8832
6, 35128, Pitch_bend_c, 5, 8832
6, 35129, Pitch_bend_c, 5, 8832
6, 35130, Pitch_bend_c, 5, 8960
6, 35131, Pitch_bend_c, 5, 8960
6, 35132, Pitch_bend_c, 5, 8960
6, 35133, Pitch_bend_c, 5, 8960
6, 35134, Pitch_bend_c, 5, 8960
6, 35135, Pitch_bend_c, 5, 8960
6, 35136, Pitch_bend_c, 5, 8960
6, 35137, Pitch_bend_c, 5, 8960
6, 35138, Pitch_bend_c, 5, 8960
6, 35139, Pitch_bend_c, 5, 8960
6, 35140, Pitch_bend_c, 5, 8960
6, 35141, Pitch_bend_c, 5, 8960
6, 35142, Pitch_bend_c, 5, 8960
6, 35143, Pitch_bend_c, 5, 8832
6, 35144, Pitch_bend_c, 5, 8832
6, 35145, Pitch_bend_c, 5, 8832
6, 35146, Pitch_bend_c, 5, 8832
6, 35147, Pitch_bend_c, 5, 8704
6, 35148, Pitch_bend_c, 5, 8704
6, 35149, Pitch_bend_c, 5, 8704
6, 35150, Pitch_bend_c, 5, 8704
6, 35151, Pitch_bend_c, 5, 8704
6, 35152, Pitch_bend_c, 5, 8704
6, 35153, Pitch_bend_c, 5, 8704
6, 35154, Pitch_bend_c, 5, 8704
6, 35155, Pitch_bend_c, 5, 8832
6, 35156, Pitch_bend_c, 5, 8832
6, 35157, Pitch_bend_c, 5, 8832
6, 35158, Pitch_bend_c, 5, 8832
6, 35159, Pitch_bend_c, 5, 8832
6, 35160, Pitch_bend_c, 5, 8960
6, 35161, Pitch_bend_c, 5, 8960
6, 35162, Pitch_bend_c, 5, 8960
6, 35163, Pitch_bend_c, 5, 8960
6, 35164, Pitch_bend_c, 5, 8960
6, 35165, Pitch_bend_c, 5, 8960
6, 35166, Pitch_bend_c, 5, 8960
6, 35167, Pitch_bend_c, 5, 8960
6, 35168, Pitch_bend_c, 5, 8960
6, 35169, Pitch_bend_c, 5, 8960
6, 35170, Pitch_bend_c, 5, 8960
6, 35171, Pitch_bend_c, 5, 8960
6, 35172, Pitch_bend_c, 5, 8960
6, 35173, Pitch_bend_c, 5, 8960
6, 35174, Pitch_bend_c, 5, 8832
6, 35175, Pitch_bend_c, 5, 8832
6, 35176, Pitch_bend_c, 5, 8832
6, 35177, Pitch_bend_c, 5, 8704
6, 35178, Pitch_bend_c, 5, 8704
6, 35179, Pitch_bend_c, 5, 8704
6, 35180, Pitch_bend_c, 5, 8704
6, 35181, Pitch_bend_c, 5, 8704
6, 35182, Pitch_bend_c, 5, 8704
6, 35183, Pitch_bend_c, 5, 8704
6, 35184, Pitch_bend_c, 5, 8704
6, 35185, Pitch_bend_c, 5, 8704
6, 35186, Pitch_bend_c, 5, 8832
6, 35187, Pitch_bend_c, 5, 8832
6, 35188, Pitch_bend_c, 5, 8832
6, 35189, Pitch_bend_c, 5, 8832
6, 35190, Pitch_bend_c, 5, 8960
6, 35191, Pitch_bend_c, 5, 8960
6, 35192, Pitch_bend_c, 5, 8960
6, 35193, Pitch_bend_c, 5, 8960
6, 35194, Pitch_bend_c, 5, 8960
6, 35195, Pitch_bend_c, 5, 9088
6, 35196, Pitch_bend_c, 5, 9088
6, 35197, Pitch_bend_c, 5, 9088
6, 35198, Pitch_bend_c, 5, 9088
6, 35199, Pitch_bend_c, 5, 9088
6, 35200, Pitch_bend_c, 5, 8960
6, 35201, Pitch_bend_c, 5, 8960
6, 35202, Pitch_bend_c, 5, 8960
6, 35203, Pitch_bend_c, 5, 8832
6, 35204, Pitch_bend_c, 5, 8832
6, 35205, Pitch_bend_c, 5, 8832
6, 35206, Pitch_bend_c, 5, 8832
6, 35207, Pitch_bend_c, 5, 8832
6, 35208, Pitch_bend_c, 5, 8704
6, 35209, Pitch_bend_c, 5, 8704
6, 35210, Pitch_bend_c, 5, 8704
6, 35211, Pitch_bend_c, 5, 8704
6, 35212, Pitch_bend_c, 5, 8704
6, 35213, Pitch_bend_c, 5, 8704
6, 35214, Pitch_bend_c, 5, 8704
6, 35215, Pitch_bend_c, 5, 8704
6, 35216, Pitch_bend_c, 5, 8832
6, 35217, Pitch_bend_c, 5, 8832
6, 35218, Pitch_bend_c, 5, 8832
6, 35219, Pitch_bend_c, 5, 8960
6, 35220, Pitch_bend_c, 5, 8960
6, 35221, Pitch_bend_c, 5, 8960
6, 35222, Pitch_bend_c, 5, 8960
6, 35223, Pitch_bend_c, 5, 9088
6, 35224, Pitch_bend_c, 5, 9088
6, 35225, Pitch_bend_c, 5, 9088
6, 35226, Pitch_bend_c, 5, 9088
6, 35227, Pitch_bend_c, 5, 9088
6, 35228, Pitch_bend_c, 5, 9088
6, 35229, Pitch_bend_c, 5, 8960
6, 35230, Pitch_bend_c, 5, 8960
6, 35231, Pitch_bend_c, 5, 8960
6, 35232, Pitch_bend_c, 5, 8960
6, 35233, Pitch_bend_c, 5, 8960
6, 35234, Pitch_bend_c, 5, 8832
6, 35235, Pitch_bend_c, 5, 8832
6, 35236, Pitch_bend_c, 5, 8832
6, 35237, Pitch_bend_c, 5, 8832
6, 35238, Pitch_bend_c, 5, 8704
6, 35239, Pitch_bend_c, 5, 8704
6, 35240, Pitch_bend_c, 5, 8704
6, 35241, Pitch_bend_c, 5, 8704
6, 35242, Pitch_bend_c, 5, 8704
6, 35243, Pitch_bend_c, 5, 8704
6, 35244, Pitch_bend_c, 5, 8704
6, 35245, Pitch_bend_c, 5, 8832
6, 35246, Pitch_bend_c, 5, 8832
6, 35247, Pitch_bend_c, 5, 8832
6, 35248, Pitch_bend_c, 5, 8832
6, 35249, Pitch_bend_c, 5, 8832
6, 35250, Pitch_bend_c, 5, 8960
6, 35251, Pitch_bend_c, 5, 8960
6, 35252, Pitch_bend_c, 5, 8960
6, 35253, Pitch_bend_c, 5, 9088
6, 35254, Pitch_bend_c, 5, 9088
6, 35255, Pitch_bend_c, 5, 9088
6, 35256, Pitch_bend_c, 5, 9088
6, 35257, Pitch_bend_c, 5, 9088
6, 35258, Pitch_bend_c, 5, 9088
6, 35259, Pitch_bend_c, 5, 8960
6, 35260, Pitch_bend_c, 5, 8960
6, 35261, Pitch_bend_c, 5, 8960
6, 35262, Pitch_bend_c, 5, 8960
6, 35263, Pitch_bend_c, 5, 8960
6, 35264, Pitch_bend_c, 5, 8832
6, 35265, Pitch_bend_c, 5, 8832
6, 35266, Pitch_bend_c, 5, 8832
6, 35267, Pitch_bend_c, 5, 8704
6, 35268, Pitch_bend_c, 5, 8704
6, 35269, Pitch_bend_c, 5, 8704
6, 35270, Pitch_bend_c, 5, 8704
6, 35271, Pitch_bend_c, 5, 8704
6, 35272, Pitch_bend_c, 5, 8704
6, 35273, Pitch_bend_c, 5, 8704
6, 35274, Pitch_bend_c, 5, 8704
6, 35275, Pitch_bend_c, 5, 8832
6, 35276, Pitch_bend_c, 5, 8832
6, 35277, Pitch_bend_c, 5, 8832
6, 35278, Pitch_bend_c, 5, 8832
6, 35279, Note_off_c, 5, 71, 0
6, 35279, Pitch_bend_c, 5, 8832
6, 35279, Pitch_bend_c, 5, 8192
6, 35279, Note_on_c, 5, 71, 95
6, 35279, Pitch_bend_c, 5, 8192
6, 35291, Pitch_bend_c, 5, 8320
6, 35303, Pitch_bend_c, 5, 8448
6, 35307, Pitch_bend_c, 5, 8576
6, 35315, Pitch_bend_c, 5, 8704
6, 35319, Pitch_bend_c, 5, 8832
6, 35327, Pitch_bend_c, 5, 8704
6, 35328, Pitch_bend_c, 5, 8704
6, 35329, Pitch_bend_c, 5, 8704
6, 35330, Pitch_bend_c, 5, 8704
6, 35331, Pitch_bend_c, 5, 8704
6, 35332, Pitch_bend_c, 5, 8704
6, 35333, Pitch_bend_c, 5, 8704
6, 35334, Pitch_bend_c, 5, 8704
6, 35335, Pitch_bend_c, 5, 8704
6, 35336, Pitch_bend_c, 5, 8832
6, 35337, Pitch_bend_c, 5, 8832
6, 35338, Pitch_bend_c, 5, 8832
6, 35339, Pitch_bend_c, 5, 8832
6, 35340, Pitch_bend_c, 5, 8960
6, 35341, Pitch_bend_c, 5, 8960
6, 35342, Pitch_bend_c, 5, 8960
6, 35343, Pitch_bend_c, 5, 8960
6, 35344, Pitch_bend_c, 5, 8960
6, 35345, Pitch_bend_c, 5, 8960
6, 35346, Pitch_bend_c, 5, 8960
6, 35347, Pitch_bend_c, 5, 8960
6, 35348, Pitch_bend_c, 5, 8960
6, 35349, Pitch_bend_c, 5, 8960
6, 35350, Pitch_bend_c, 5, 8960
6, 35351, Pitch_bend_c, 5, 8960
6, 35352, Pitch_bend_c, 5, 8960
6, 35353, Pitch_bend_c, 5, 8832
6, 35354, Pitch_bend_c, 5, 8832
6, 35355, Pitch_bend_c, 5, 8832
6, 35356, Pitch_bend_c, 5, 8832
6, 35357, Pitch_bend_c, 5, 8832
6, 35358, Pitch_bend_c, 5, 8704
6, 35359, Pitch_bend_c, 5, 8704
6, 35360, Pitch_bend_c, 5, 8704
6, 35361, Pitch_bend_c, 5, 8704
6, 35362, Pitch_bend_c, 5, 8704
6, 35363, Pitch_bend_c, 5, 8704
6, 35364, Pitch_bend_c, 5, 8704
6, 35365, Pitch_bend_c, 5, 8704
6, 35366, Pitch_bend_c, 5, 8704
6, 35367, Pitch_bend_c, 5, 8832
6, 35368, Pitch_bend_c, 5, 8832
6, 35369, Note_off_c, 5, 71, 0
6, 35369, Pitch_bend_c, 5, 8832
6, 35369, Pitch_bend_c, 5, 8192
6, 35999, Note_on_c, 5, 74, 95
6, 35999, Pitch_bend_c, 5, 8192
6, 36003, Pitch_bend_c, 5, 8320
6, 36011, Pitch_bend_c, 5, 8704
6, 36015, Pitch_bend_c, 5, 9088
6, 36019, Pitch_bend_c, 5, 9344
6, 36023, Pitch_bend_c, 5, 9600
6, 36089, Note_off_c, 5, 74, 0
6, 36089, Pitch_bend_c, 5, 8192
6, 36089, Note_on_c, 5, 74, 95
6, 36089, Pitch_bend_c, 5, 8192
6, 36109, Pitch_bend_c, 5, 8320
6, 36129, Pitch_bend_c, 5, 8448
6, 36133, Pitch_bend_c, 5, 8576
6, 36145, Pitch_bend_c, 5, 8704
6, 36153, Pitch_bend_c, 5, 8960
6, 36161, Pitch_bend_c, 5, 9088
6, 36169, Pitch_bend_c, 5, 9216
6, 36173, Pitch_bend_c, 5, 9344
6, 36181, Pitch_bend_c, 5, 9472
6, 36193, Pitch_bend_c, 5, 9600
6, 36194, Pitch_bend_c, 5, 9600
6, 36195, Pitch_bend_c, 5, 9472
6, 36196, Pitch_bend_c, 5, 9472
6, 36197, Pitch_bend_c, 5, 9472
6, 36198, Pitch_bend_c, 5, 9344
6, 36199, Pitch_bend_c, 5, 9344
6, 36200, Pitch_bend_c, 5, 9344
6, 36201, Pitch_bend_c, 5, 9472
6, 36202, Pitch_bend_c, 5, 9472
6, 36203, Pitch_bend_c, 5, 9472
6, 36204, Pitch_bend_c, 5, 9472
6, 36205, Pitch_bend_c, 5, 9472
6, 36206, Pitch_bend_c, 5, 9472
6, 36207, Pitch_bend_c, 5, 9472
6, 36208, Pitch_bend_c, 5, 9472
6, 36209, Pitch_bend_c, 5, 9600
6, 36210, Pitch_bend_c, 5, 9600
6, 36211, Pitch_bend_c, 5, 9600
6, 36212, Pitch_bend_c, 5, 9728
6, 36213, Pitch_bend_c, 5, 9728
6, 36214, Pitch_bend_c, 5, 9728
6, 36215, Pitch_bend_c, 5, 9728
6, 36216, Pitch_bend_c, 5, 9728
6, 36217, Pitch_bend_c, 5, 9728
6, 36218, Pitch_bend_c, 5, 9600
6, 36219, Pitch_bend_c, 5, 9600
6, 36220, Pitch_bend_c, 5, 9600
6, 36221, Pitch_bend_c, 5, 9600
6, 36222, Pitch_bend_c, 5, 9600
6, 36223, Pitch_bend_c, 5, 9600
6, 36224, Pitch_bend_c, 5, 9600
6, 36225, Pitch_bend_c, 5, 9472
6, 36226, Pitch_bend_c, 5, 9472
6, 36227, Pitch_bend_c, 5, 9472
6, 36228, Pitch_bend_c, 5, 9472
6, 36229, Pitch_bend_c, 5, 9344
6, 36230, Pitch_bend_c, 5, 9344
6, 36231, Pitch_bend_c, 5, 9344
6, 36232, Pitch_bend_c, 5, 9344
6, 36233, Pitch_bend_c, 5, 9472
6, 36234, Pitch_bend_c, 5, 9472
6, 36235, Pitch_bend_c, 5, 9472
6, 36236, Pitch_bend_c, 5, 9472
6, 36237, Pitch_bend_c, 5, 9472
6, 36238, Pitch_bend_c, 5, 9472
6, 36239, Pitch_bend_c, 5, 9600
6, 36240, Pitch_bend_c, 5, 9600
6, 36241, Pitch_bend_c, 5, 9600
6, 36242, Pitch_bend_c, 5, 9600
6, 36243, Pitch_bend_c, 5, 9728
6, 36244, Pitch_bend_c, 5, 9728
6, 36245, Pitch_bend_c, 5, 9728
6, 36246, Pitch_bend_c, 5, 9728
6, 36247, Pitch_bend_c, 5, 9728
6, 36248, Pitch_bend_c, 5, 9728
6, 36249, Pitch_bend_c, 5, 9728
6, 36250, Pitch_bend_c, 5, 9600
6, 36251, Pitch_bend_c, 5, 9600
6, 36252, Pitch_bend_c, 5, 9600
6, 36253, Pitch_bend_c, 5, 9600
6, 36254, Pitch_bend_c, 5, 9600
6, 36255, Pitch_bend_c, 5, 9472
6, 36256, Pitch_bend_c, 5, 9472
6, 36257, Pitch_bend_c, 5, 9472
6, 36258, Pitch_bend_c, 5, 9472
6, 36259, Pitch_bend_c, 5, 9344
6, 36260, Pitch_bend_c, 5, 9344
6, 36261, Pitch_bend_c, 5, 9344
6, 36262, Pitch_bend_c, 5, 9344
6, 36263, Pitch_bend_c, 5, 9344
6, 36264, Pitch_bend_c, 5, 9344
6, 36265, Pitch_bend_c, 5, 9472
6, 36266, Pitch_bend_c, 5, 9472
6, 36267, Pitch_bend_c, 5, 9472
6, 36268, Pitch_bend_c, 5, 9472
6, 36269, Pitch_bend_c, 5, 9600
6, 36270, Pitch_bend_c, 5, 9600
6, 36271, Pitch_bend_c, 5, 9600
6, 36272, Pitch_bend_c, 5, 9600
6, 36273, Pitch_bend_c, 5, 9728
6, 36274, Pitch_bend_c, 5, 9728
6, 36275, Pitch_bend_c, 5, 9728
6, 36276, Pitch_bend_c, 5, 9728
6, 36277, Pitch_bend_c, 5, 9728
6, 36278, Pitch_bend_c, 5, 9728
6, 36279, Pitch_bend_c, 5, 9728
6, 36280, Pitch_bend_c, 5, 9600
6, 36281, Pitch_bend_c, 5, 9600
6, 36282, Pitch_bend_c, 5, 9600
6, 36283, Pitch_bend_c, 5, 9600
6, 36284, Pitch_bend_c, 5, 9600
6, 36285, Pitch_bend_c, 5, 9472
6, 36286, Pitch_bend_c, 5, 9472
6, 36287, Pitch_bend_c, 5, 9472
6, 36288, Pitch_bend_c, 5, 9472
6, 36289, Pitch_bend_c, 5, 9344
6, 36290, Pitch_bend_c, 5, 9344
6, 36291, Pitch_bend_c, 5, 9344
6, 36292, Pitch_bend_c, 5, 9344
6, 36293, Pitch_bend_c, 5, 9344
6, 36294, Pitch_bend_c, 5, 9344
6, 36295, Pitch_bend_c, 5, 9344
6, 36296, Pitch_bend_c, 5, 9472
6, 36297, Pitch_bend_c, 5, 9472
6, 36298, Pitch_bend_c, 5, 9472
6, 36299, Pitch_bend_c, 5, 9600
6, 36300, Pitch_bend_c, 5, 9600
6, 36301, Pitch_bend_c, 5, 9600
6, 36302, Pitch_bend_c, 5, 9728
6, 36303, Pitch_bend_c, 5, 9728
6, 36304, Pitch_bend_c, 5, 9728
6, 36305, Pitch_bend_c, 5, 9728
6, 36306, Pitch_bend_c, 5, 9728
6, 36307, Pitch_bend_c, 5, 9728
6, 36308, Pitch_bend_c, 5, 9728
6, 36309, Pitch_bend_c, 5, 9728
6, 36310, Pitch_bend_c, 5, 9728
6, 36311, Pitch_bend_c, 5, 9728
6, 36312, Pitch_bend_c, 5, 9600
6, 36313, Pitch_bend_c, 5, 9600
6, 36314, Pitch_bend_c, 5, 9472
6, 36315, Pitch_bend_c, 5, 9472
6, 36316, Pitch_bend_c, 5, 9472
6, 36317, Pitch_bend_c, 5, 9472
6, 36318, Pitch_bend_c, 5, 9344
6, 36319, Pitch_bend_c, 5, 9344
6, 36320, Pitch_bend_c, 5, 9344
6, 36321, Pitch_bend_c, 5, 9344
6, 36322, Pitch_bend_c, 5, 9344
6, 36323, Pitch_bend_c, 5, 9344
6, 36324, Pitch_bend_c, 5, 9344
6, 36325, Pitch_bend_c, 5, 9472
6, 36326, Pitch_bend_c, 5, 9472
6, 36327, Pitch_bend_c, 5, 9472
6, 36328, Pitch_bend_c, 5, 9472
6, 36329, Pitch_bend_c, 5, 9600
6, 36330, Pitch_bend_c, 5, 9600
6, 36331, Pitch_bend_c, 5, 9600
6, 36332, Pitch_bend_c, 5, 9600
6, 36333, Pitch_bend_c, 5, 9600
6, 36334, Pitch_bend_c, 5, 9728
6, 36335, Pitch_bend_c, 5, 9728
6, 36336, Pitch_bend_c, 5, 9728
6, 36337, Pitch_bend_c, 5, 9728
6, 36338, Pitch_bend_c, 5, 9728
6, 36339, Pitch_bend_c, 5, 9728
6, 36340, Pitch_bend_c, 5, 9728
6, 36341, Pitch_bend_c, 5, 9600
6, 36342, Pitch_bend_c, 5, 9600
6, 36343, Pitch_bend_c, 5, 9600
6, 36344, Pitch_bend_c, 5, 9600
6, 36345, Pitch_bend_c, 5, 9472
6, 36346, Pitch_bend_c, 5, 9472
6, 36347, Pitch_bend_c, 5, 9472
6, 36348, Pitch_bend_c, 5, 9472
6, 36349, Pitch_bend_c, 5, 9472
6, 36350, Pitch_bend_c, 5, 9472
6, 36351, Pitch_bend_c, 5, 9472
6, 36352, Pitch_bend_c, 5, 9472
6, 36353, Pitch_bend_c, 5, 9344
6, 36354, Pitch_bend_c, 5, 9344
6, 36355, Pitch_bend_c, 5, 9344
6, 36356, Pitch_bend_c, 5, 9472
6, 36357, Pitch_bend_c, 5, 9472
6, 36358, Pitch_bend_c, 5, 9472
6, 36359, Pitch_bend_c, 5, 9472
6, 36360, Pitch_bend_c, 5, 9600
6, 36361, Pitch_bend_c, 5, 9600
6, 36362, Pitch_bend_c, 5, 9600
6, 36363, Pitch_bend_c, 5, 9600
6, 36364, Pitch_bend_c, 5, 9728
6, 36365, Pitch_bend_c, 5, 9728
6, 36366, Pitch_bend_c, 5, 9728
6, 36367, Pitch_bend_c, 5, 9728
6, 36368, Pitch_bend_c, 5, 9728
6, 36369, Pitch_bend_c, 5, 9728
6, 36370, Pitch_bend_c, 5, 9728
6, 36371, Pitch_bend_c, 5, 9600
6, 36372, Pitch_bend_c, 5, 9600
6, 36373, Pitch_bend_c, 5, 9600
6, 36374, Pitch_bend_c, 5, 9600
6, 36375, Pitch_bend_c, 5, 9472
6, 36376, Pitch_bend_c, 5, 9472
6, 36377, Pitch_bend_c, 5, 9472
6, 36378, Pitch_bend_c, 5, 9472
6, 36379, Pitch_bend_c, 5, 9472
6, 36380, Pitch_bend_c, 5, 9472
6, 36381, Pitch_bend_c, 5, 9472
6, 36382, Pitch_bend_c, 5, 9472
6, 36383, Pitch_bend_c, 5, 9472
6, 36384, Pitch_bend_c, 5, 9472
6, 36385, Pitch_bend_c, 5, 9472
6, 36386, Pitch_bend_c, 5, 9472
6, 36387, Pitch_bend_c, 5, 9472
6, 36388, Pitch_bend_c, 5, 9472
6, 36389, Pitch_bend_c, 5, 9600
6, 36390, Pitch_bend_c, 5, 9600
6, 36391, Pitch_bend_c, 5, 9600
6, 36392, Pitch_bend_c, 5, 9600
6, 36393, Pitch_bend_c, 5, 9728
6, 36394, Pitch_bend_c, 5, 9728
6, 36395, Pitch_bend_c, 5, 9728
6, 36396, Pitch_bend_c, 5, 9728
6, 36397, Pitch_bend_c, 5, 9728
6, 36398, Pitch_bend_c, 5, 9728
6, 36399, Pitch_bend_c, 5, 9728
6, 36400, Pitch_bend_c, 5, 9728
6, 36401, Pitch_bend_c, 5, 9600
6, 36402, Pitch_bend_c, 5, 9600
6, 36403, Pitch_bend_c, 5, 9600
6, 36404, Pitch_bend_c, 5, 9600
6, 36405, Pitch_bend_c, 5, 9472
6, 36406, Pitch_bend_c, 5, 9472
6, 36407, Pitch_bend_c, 5, 9472
6, 36408, Pitch_bend_c, 5, 9472
6, 36409, Pitch_bend_c, 5, 9344
6, 36410, Pitch_bend_c, 5, 9344
6, 36411, Pitch_bend_c, 5, 9344
6, 36412, Pitch_bend_c, 5, 9344
6, 36413, Pitch_bend_c, 5, 9344
6, 36414, Pitch_bend_c, 5, 9472
6, 36415, Pitch_bend_c, 5, 9472
6, 36416, Pitch_bend_c, 5, 9472
6, 36417, Pitch_bend_c, 5, 9472
6, 36418, Pitch_bend_c, 5, 9472
6, 36419, Pitch_bend_c, 5, 9600
6, 36420, Pitch_bend_c, 5, 9600
6, 36421, Pitch_bend_c, 5, 9600
6, 36422, Pitch_bend_c, 5, 9728
6, 36423, Pitch_bend_c, 5, 9728
6, 36424, Pitch_bend_c, 5, 9728
6, 36425, Pitch_bend_c, 5, 9728
6, 36426, Pitch_bend_c, 5, 9728
6, 36427, Pitch_bend_c, 5, 9728
6, 36428, Pitch_bend_c, 5, 9728
6, 36429, Pitch_bend_c, 5, 9728
6, 36430, Pitch_bend_c, 5, 9728
6, 36431, Pitch_bend_c, 5, 9728
6, 36432, Pitch_bend_c, 5, 9600
6, 36433, Pitch_bend_c, 5, 9600
6, 36434, Pitch_bend_c, 5, 9472
6, 36435, Pitch_bend_c, 5, 9472
6, 36436, Pitch_bend_c, 5, 9472
6, 36437, Pitch_bend_c, 5, 9472
6, 36438, Pitch_bend_c, 5, 9344
6, 36439, Pitch_bend_c, 5, 9344
6, 36440, Pitch_bend_c, 5, 9344
6, 36441, Pitch_bend_c, 5, 9472
6, 36442, Pitch_bend_c, 5, 9472
6, 36443, Pitch_bend_c, 5, 9472
6, 36444, Pitch_bend_c, 5, 9472
6, 36445, Pitch_bend_c, 5, 9472
6, 36446, Pitch_bend_c, 5, 9472
6, 36447, Pitch_bend_c, 5, 9472
6, 36448, Pitch_bend_c, 5, 9600
6, 36449, Pitch_bend_c, 5, 9600
6, 36450, Pitch_bend_c, 5, 9600
6, 36451, Pitch_bend_c, 5, 9600
6, 36452, Pitch_bend_c, 5, 9600
6, 36453, Pitch_bend_c, 5, 9728
6, 36454, Pitch_bend_c, 5, 9728
6, 36455, Pitch_bend_c, 5, 9728
6, 36456, Pitch_bend_c, 5, 9728
6, 36457, Pitch_bend_c, 5, 9728
6, 36458, Pitch_bend_c, 5, 9728
6, 36459, Pitch_bend_c, 5, 9728
6, 36460, Pitch_bend_c, 5, 9600
6, 36461, Pitch_bend_c, 5, 9600
6, 36462, Pitch_bend_c, 5, 9600
6, 36463, Pitch_bend_c, 5, 9600
6, 36464, Pitch_bend_c, 5, 9600
6, 36465, Pitch_bend_c, 5, 9472
6, 36466, Pitch_bend_c, 5, 9472
6, 36467, Pitch_bend_c, 5, 9472
6, 36468, Pitch_bend_c, 5, 9472
6, 36469, Pitch_bend_c, 5, 9472
6, 36470, Pitch_bend_c, 5, 9472
6, 36471, Pitch_bend_c, 5, 9472
6, 36472, Pitch_bend_c, 5, 9472
6, 36473, Pitch_bend_c, 5, 9472
6, 36474, Pitch_bend_c, 5, 9472
6, 36475, Pitch_bend_c, 5, 9472
6, 36476, Pitch_bend_c, 5, 9472
6, 36477, Pitch_bend_c, 5, 9472
6, 36478, Pitch_bend_c, 5, 9600
6, 36479, Pitch_bend_c, 5, 9600
6, 36480, Pitch_bend_c, 5, 9600
6, 36481, Pitch_bend_c, 5, 9600
6, 36482, Pitch_bend_c, 5, 9728
6, 36483, Pitch_bend_c, 5, 9728
6, 36484, Pitch_bend_c, 5, 9728
6, 36485, Pitch_bend_c, 5, 9728
6, 36486, Pitch_bend_c, 5, 9728
6, 36487, Pitch_bend_c, 5, 9728
6, 36488, Pitch_bend_c, 5, 9728
6, 36489, Pitch_bend_c, 5, 9728
6, 36490, Pitch_bend_c, 5, 9728
6, 36491, Pitch_bend_c, 5, 9600
6, 36492, Pitch_bend_c, 5, 9600
6, 36493, Pitch_bend_c, 5, 9600
6, 36494, Pitch_bend_c, 5, 9600
6, 36495, Pitch_bend_c, 5, 9472
6, 36496, Pitch_bend_c, 5, 9472
6, 36497, Pitch_bend_c, 5, 9472
6, 36498, Pitch_bend_c, 5, 9344
6, 36499, Pitch_bend_c, 5, 9344
6, 36500, Pitch_bend_c, 5, 9344
6, 36501, Pitch_bend_c, 5, 9344
6, 36502, Pitch_bend_c, 5, 9344
6, 36503, Pitch_bend_c, 5, 9344
6, 36504, Pitch_bend_c, 5, 9344
6, 36505, Pitch_bend_c, 5, 9472
6, 36506, Pitch_bend_c, 5, 9472
6, 36507, Pitch_bend_c, 5, 9472
6, 36508, Pitch_bend_c, 5, 9600
6, 36509, Pitch_bend_c, 5, 9600
6, 36510, Pitch_bend_c, 5, 9600
6, 36511, Pitch_bend_c, 5, 9600
6, 36512, Pitch_bend_c, 5, 9600
6, 36513, Pitch_bend_c, 5, 9728
6, 36514, Pitch_bend_c, 5, 9728
6, 36515, Pitch_bend_c, 5, 9728
6, 36516, Pitch_bend_c, 5, 9728
6, 36517, Pitch_bend_c, 5, 9728
6, 36518, Pitch_bend_c, 5, 9728
6, 36519, Pitch_bend_c, 5, 9728
6, 36520, Pitch_bend_c, 5, 9728
6, 36521, Pitch_bend_c, 5, 9600
6, 36522, Pitch_bend_c, 5, 9600
6, 36523, Pitch_bend_c, 5, 9600
6, 36524, Pitch_bend_c, 5, 9600
6, 36525, Pitch_bend_c, 5, 9472
6, 36526, Pitch_bend_c, 5, 9472
6, 36527, Pitch_bend_c, 5, 9472
6, 36528, Pitch_bend_c, 5, 9472
6, 36529, Pitch_bend_c, 5, 9472
6, 36530, Pitch_bend_c, 5, 9472
6, 36531, Pitch_bend_c, 5, 9472
6, 36532, Pitch_bend_c, 5, 9472
6, 36533, Pitch_bend_c, 5, 9472
6, 36534, Pitch_bend_c, 5, 9472
6, 36535, Pitch_bend_c, 5, 9472
6, 36536, Pitch_bend_c, 5, 9472
6, 36537, Pitch_bend_c, 5, 9472
6, 36538, Pitch_bend_c, 5, 9600
6, 36539, Pitch_bend_c, 5, 9600
6, 36540, Pitch_bend_c, 5, 9600
6, 36541, Pitch_bend_c, 5, 9728
6, 36542, Pitch_bend_c, 5, 9728
6, 36543, Pitch_bend_c, 5, 9728
6, 36544, Pitch_bend_c, 5, 9728
6, 36545, Pitch_bend_c, 5, 9728
6, 36546, Pitch_bend_c, 5, 9728
6, 36547, Pitch_bend_c, 5, 9728
6, 36548, Pitch_bend_c, 5, 9728
6, 36549, Pitch_bend_c, 5, 9728
6, 36550, Pitch_bend_c, 5, 9728
6, 36551, Pitch_bend_c, 5, 9728
6, 36552, Pitch_bend_c, 5, 9600
6, 36553, Pitch_bend_c, 5, 9600
6, 36554, Pitch_bend_c, 5, 9600
6, 36555, Pitch_bend_c, 5, 9472
6, 36556, Pitch_bend_c, 5, 9472
6, 36557, Pitch_bend_c, 5, 9472
6, 36558, Pitch_bend_c, 5, 9344
6, 36559, Pitch_bend_c, 5, 9344
6, 36560, Pitch_bend_c, 5, 9344
6, 36561, Pitch_bend_c, 5, 9344
6, 36562, Pitch_bend_c, 5, 9344
6, 36563, Pitch_bend_c, 5, 9344
6, 36564, Pitch_bend_c, 5, 9472
6, 36565, Pitch_bend_c, 5, 9472
6, 36566, Pitch_bend_c, 5, 9472
6, 36567, Pitch_bend_c, 5, 9472
6, 36568, Pitch_bend_c, 5, 9472
6, 36569, Pitch_bend_c, 5, 9600
6, 36570, Pitch_bend_c, 5, 9600
6, 36571, Pitch_bend_c, 5, 9600
6, 36572, Pitch_bend_c, 5, 9600
6, 36573, Pitch_bend_c, 5, 9728
6, 36574, Pitch_bend_c, 5, 9728
6, 36575, Pitch_bend_c, 5, 9728
6, 36576, Pitch_bend_c, 5, 9728
6, 36577, Pitch_bend_c, 5, 9728
6, 36578, Pitch_bend_c, 5, 9728
6, 36579, Pitch_bend_c, 5, 9728
6, 36580, Pitch_bend_c, 5, 9728
6, 36581, Pitch_bend_c, 5, 9728
6, 36582, Pitch_bend_c, 5, 9600
6, 36583, Pitch_bend_c, 5, 9600
6, 36584, Pitch_bend_c, 5, 9600
6, 36585, Pitch_bend_c, 5, 9472
6, 36586, Pitch_bend_c, 5, 9472
6, 36587, Pitch_bend_c, 5, 9472
6, 36588, Pitch_bend_c, 5, 9472
6, 36589, Pitch_bend_c, 5, 9472
6, 36590, Pitch_bend_c, 5, 9344
6, 36591, Pitch_bend_c, 5, 9344
6, 36592, Pitch_bend_c, 5, 9344
6, 36593, Pitch_bend_c, 5, 9344
6, 36594, Pitch_bend_c, 5, 9472
6, 36595, Pitch_bend_c, 5, 9472
6, 36596, Pitch_bend_c, 5, 9472
6, 36597, Pitch_bend_c, 5, 9472
6, 36598, Pitch_bend_c, 5, 9600
6, 36599, Pitch_bend_c, 5, 9600
6, 36600, Pitch_bend_c, 5, 9600
6, 36601, Pitch_bend_c, 5, 9728
6, 36602, Pitch_bend_c, 5, 9728
6, 36603, Pitch_bend_c, 5, 9728
6, 36604, Pitch_bend_c, 5, 9728
6, 36605, Pitch_bend_c, 5, 9728
6, 36606, Pitch_bend_c, 5, 9728
6, 36607, Pitch_bend_c, 5, 9728
6, 36608, Pitch_bend_c, 5, 9728
6, 36609, Pitch_bend_c, 5, 9728
6, 36610, Pitch_bend_c, 5, 9728
6, 36611, Pitch_bend_c, 5, 9728
6, 36612, Pitch_bend_c, 5, 9600
6, 36613, Pitch_bend_c, 5, 9600
6, 36614, Pitch_bend_c, 5, 9600
6, 36615, Pitch_bend_c, 5, 9600
6, 36616, Pitch_bend_c, 5, 9472
6, 36617, Pitch_bend_c, 5, 9472
6, 36618, Pitch_bend_c, 5, 9344
6, 36619, Pitch_bend_c, 5, 9344
6, 36620, Pitch_bend_c, 5, 9344
6, 36621, Pitch_bend_c, 5, 9344
6, 36622, Pitch_bend_c, 5, 9344
6, 36623, Pitch_bend_c, 5, 9344
6, 36624, Pitch_bend_c, 5, 9344
6, 36625, Pitch_bend_c, 5, 9472
6, 36626, Pitch_bend_c, 5, 9472
6, 36627, Pitch_bend_c, 5, 9472
6, 36628, Pitch_bend_c, 5, 9600
6, 36629, Pitch_bend_c, 5, 9600
6, 36630, Pitch_bend_c, 5, 9600
6, 36631, Pitch_bend_c, 5, 9600
6, 36632, Pitch_bend_c, 5, 9600
6, 36633, Pitch_bend_c, 5, 9728
6, 36634, Pitch_bend_c, 5, 9728
6, 36635, Pitch_bend_c, 5, 9728
6, 36636, Pitch_bend_c, 5, 9728
6, 36637, Pitch_bend_c, 5, 9728
6, 36638, Pitch_bend_c, 5, 9728
6, 36639, Pitch_bend_c, 5, 9728
6, 36640, Pitch_bend_c, 5, 9728
6, 36641, Pitch_bend_c, 5, 9600
6, 36642, Pitch_bend_c, 5, 9600
6, 36643, Pitch_bend_c, 5, 9600
6, 36644, Pitch_bend_c, 5, 9600
6, 36645, Pitch_bend_c, 5, 9472
6, 36646, Pitch_bend_c, 5, 9472
6, 36647, Pitch_bend_c, 5, 9472
6, 36648, Pitch_bend_c, 5, 9472
6, 36649, Pitch_bend_c, 5, 9344
6, 36650, Pitch_bend_c, 5, 9344
6, 36651, Pitch_bend_c, 5, 9344
6, 36652, Pitch_bend_c, 5, 9344
6, 36653, Pitch_bend_c, 5, 9344
6, 36654, Pitch_bend_c, 5, 9344
6, 36655, Pitch_bend_c, 5, 9472
6, 36656, Pitch_bend_c, 5, 9472
6, 36657, Pitch_bend_c, 5, 9472
6, 36658, Pitch_bend_c, 5, 9600
6, 36659, Pitch_bend_c, 5, 9600
6, 36660, Pitch_bend_c, 5, 9600
6, 36661, Pitch_bend_c, 5, 9600
6, 36662, Pitch_bend_c, 5, 9600
6, 36663, Pitch_bend_c, 5, 9600
6, 36664, Pitch_bend_c, 5, 9600
6, 36665, Pitch_bend_c, 5, 9728
6, 36666, Pitch_bend_c, 5, 9728
6, 36667, Pitch_bend_c, 5, 9728
6, 36668, Pitch_bend_c, 5, 9728
6, 36669, Pitch_bend_c, 5, 9728
6, 36670, Pitch_bend_c, 5, 9600
6, 36671, Pitch_bend_c, 5, 9600
6, 36672, Pitch_bend_c, 5, 9600
6, 36673, Pitch_bend_c, 5, 9600
6, 36674, Pitch_bend_c, 5, 9600
6, 36675, Pitch_bend_c, 5, 9472
6, 36676, Pitch_bend_c, 5, 9472
6, 36677, Pitch_bend_c, 5, 9472
6, 36678, Pitch_bend_c, 5, 9472
6, 36679, Pitch_bend_c, 5, 9344
6, 36680, Pitch_bend_c, 5, 9344
6, 36681, Pitch_bend_c, 5, 9472
6, 36682, Pitch_bend_c, 5, 9472
6, 36683, Pitch_bend_c, 5, 9472
6, 36684, Pitch_bend_c, 5, 9472
6, 36685, Pitch_bend_c, 5, 9472
6, 36686, Pitch_bend_c, 5, 9472
6, 36687, Pitch_bend_c, 5, 9472
6, 36688, Pitch_bend_c, 5, 9472
6, 36689, Pitch_bend_c, 5, 9600
6, 36690, Pitch_bend_c, 5, 9600
6, 36691, Pitch_bend_c, 5, 9728
6, 36692, Pitch_bend_c, 5, 9728
6, 36693, Pitch_bend_c, 5, 9728
6, 36694, Pitch_bend_c, 5, 9728
6, 36695, Pitch_bend_c, 5, 9728
6, 36696, Pitch_bend_c, 5, 9728
6, 36697, Pitch_bend_c, 5, 9728
6, 36698, Pitch_bend_c, 5, 9600
6, 36699, Pitch_bend_c, 5, 9600
6, 36700, Pitch_bend_c, 5, 9600
6, 36701, Pitch_bend_c, 5, 9600
6, 36702, Pitch_bend_c, 5, 9600
6, 36703, Pitch_bend_c, 5, 9600
6, 36704, Note_off_c, 5, 74, 0
6, 36704, Pitch_bend_c, 5, 9600
6, 36704, Pitch_bend_c, 5, 8192
6, 36764, Note_on_c, 5, 64, 95
6, 36764, Pitch_bend_c, 5, 6784
6, 36772, Pitch_bend_c, 5, 7552
6, 36779, Pitch_bend_c, 5, 8192
6, 36839, Note_off_c, 5, 64, 0
6, 36964, Note_on_c, 5, 71, 95
6, 36964, Pitch_bend_c, 5, 8192
6, 36980, Pitch_bend_c, 5, 8320
6, 36996, Pitch_bend_c, 5, 8448
6, 37000, Pitch_bend_c, 5, 8576
6, 37008, Pitch_bend_c, 5, 8704
6, 37016, Pitch_bend_c, 5, 8832
6, 37199, Note_off_c, 5, 71, 0
6, 37204, Pitch_bend_c, 5, 8192
6, 37204, Note_on_c, 5, 71, 95
6, 37204, Pitch_bend_c, 5, 8192
6, 37220, Pitch_bend_c, 5, 8320
6, 37236, Pitch_bend_c, 5, 8448
6, 37240, Pitch_bend_c, 5, 8576
6, 37248, Pitch_bend_c, 5, 8704
6, 37256, Pitch_bend_c, 5, 8832
6, 37439, Note_off_c, 5, 71, 0
6, 37444, Pitch_bend_c, 5, 8192
6, 37444, Note_on_c, 5, 71, 95
6, 37444, Pitch_bend_c, 5, 8192
6, 37460, Pitch_bend_c, 5, 8320
6, 37476, Pitch_bend_c, 5, 8448
6, 37480, Pitch_bend_c, 5, 8576
6, 37488, Pitch_bend_c, 5, 8704
6, 37496, Pitch_bend_c, 5, 8832
6, 37679, Note_off_c, 5, 71, 0
6, 37684, Pitch_bend_c, 5, 8192
6, 37684, Note_on_c, 5, 71, 95
6, 37684, Pitch_bend_c, 5, 8192
6, 37692, Pitch_bend_c, 5, 8320
6, 37700, Pitch_bend_c, 5, 8448
6, 37704, Pitch_bend_c, 5, 8576
6, 37708, Pitch_bend_c, 5, 8704
6, 37712, Pitch_bend_c, 5, 8832
6, 37739, Note_off_c, 5, 71, 0
6, 37744, Pitch_bend_c, 5, 8192
6, 37919, Note_on_c, 5, 62, 95
6, 37919, Pitch_bend_c, 5, 8192
6, 37931, Pitch_bend_c, 5, 8320
6, 37943, Pitch_bend_c, 5, 8448
6, 37947, Pitch_bend_c, 5, 8576
6, 37951, Pitch_bend_c, 5, 8704
6, 37955, Pitch_bend_c, 5, 8832
6, 37959, Pitch_bend_c, 5, 8960
6, 37963, Pitch_bend_c, 5, 9088
6, 37967, Pitch_bend_c, 5, 9344
6, 37975, Pitch_bend_c, 5, 9472
6, 37979, Pitch_bend_c, 5, 9600
6, 38039, Note_off_c, 5, 62, 0
6, 38039, Pitch_bend_c, 5, 8192
6, 38039, Note_on_c, 5, 62, 95
6, 38039, Pitch_bend_c, 5, 8192
6, 38051, Pitch_bend_c, 5, 8320
6, 38063, Pitch_bend_c, 5, 8448
6, 38067, Pitch_bend_c, 5, 8576
6, 38071, Pitch_bend_c, 5, 8704
6, 38075, Pitch_bend_c, 5, 8832
6, 38079, Pitch_bend_c, 5, 8960
6, 38083, Pitch_bend_c, 5, 9088
6, 38087, Pitch_bend_c, 5, 9344
6, 38095, Pitch_bend_c, 5, 9472
6, 38099, Pitch_bend_c, 5, 9600
6, 38159, Note_off_c, 5, 62, 0
6, 38159, Pitch_bend_c, 5, 8192
6, 38159, Note_on_c, 5, 62, 95
6, 38159, Pitch_bend_c, 5, 8192
6, 38179, Pitch_bend_c, 5, 8320
6, 38203, Pitch_bend_c, 5, 8448
6, 38211, Pitch_bend_c, 5, 8576
6, 38223, Pitch_bend_c, 5, 8704
6, 38231, Pitch_bend_c, 5, 8832
6, 38235, Pitch_bend_c, 5, 8960
6, 38243, Pitch_bend_c, 5, 9088
6, 38251, Pitch_bend_c, 5, 9216
6, 38255, Pitch_bend_c, 5, 9344
6, 38267, Pitch_bend_c, 5, 9472
6, 38279, Pitch_bend_c, 5, 9600
6, 38399, Note_off_c, 5, 62, 0
6, 38399, Pitch_bend_c, 5, 8192
6, 38879, Note_on_c, 5, 71, 95
6, 38879, Pitch_bend_c, 5, 8192
6, 38911, Pitch_bend_c, 5, 8320
6, 38939, Pitch_bend_c, 5, 8448
6, 38951, Pitch_bend_c, 5, 8576
6, 38967, Pitch_bend_c, 5, 8704
6, 38979, Pitch_bend_c, 5, 8832
6, 38999, Pitch_bend_c, 5, 8832
6, 39000, Pitch_bend_c, 5, 8960
6, 39001, Pitch_bend_c, 5, 8960
6, 39002, Pitch_bend_c, 5, 8960
6, 39003, Pitch_bend_c, 5, 9088
6, 39004, Pitch_bend_c, 5, 9088
6, 39005, Pitch_bend_c, 5, 9088
6, 39006, Pitch_bend_c, 5, 9088
6, 39007, Pitch_bend_c, 5, 9088
6, 39008, Pitch_bend_c, 5, 9088
6, 39009, Pitch_bend_c, 5, 9088
6, 39010, Pitch_bend_c, 5, 8960
6, 39011, Pitch_bend_c, 5, 8960
6, 39012, Pitch_bend_c, 5, 8960
6, 39013, Pitch_bend_c, 5, 8960
6, 39014, Pitch_bend_c, 5, 8832
6, 39015, Pitch_bend_c, 5, 8832
6, 39016, Pitch_bend_c, 5, 8832
6, 39017, Pitch_bend_c, 5, 8704
6, 39018, Pitch_bend_c, 5, 8704
6, 39019, Pitch_bend_c, 5, 8704
6, 39020, Pitch_bend_c, 5, 8704
6, 39021, Pitch_bend_c, 5, 8704
6, 39022, Pitch_bend_c, 5, 8704
6, 39023, Pitch_bend_c, 5, 8832
6, 39024, Pitch_bend_c, 5, 8832
6, 39025, Pitch_bend_c, 5, 8832
6, 39026, Pitch_bend_c, 5, 8832
6, 39027, Pitch_bend_c, 5, 8832
6, 39028, Pitch_bend_c, 5, 8832
6, 39029, Pitch_bend_c, 5, 8832
6, 39030, Pitch_bend_c, 5, 8960
6, 39031, Pitch_bend_c, 5, 8960
6, 39032, Pitch_bend_c, 5, 8960
6, 39033, Pitch_bend_c, 5, 8960
6, 39034, Pitch_bend_c, 5, 8960
6, 39035, Pitch_bend_c, 5, 9088
6, 39036, Pitch_bend_c, 5, 9088
6, 39037, Pitch_bend_c, 5, 9088
6, 39038, Pitch_bend_c, 5, 9088
6, 39039, Pitch_bend_c, 5, 8960
6, 39040, Pitch_bend_c, 5, 8960
6, 39041, Pitch_bend_c, 5, 8960
6, 39042, Pitch_bend_c, 5, 8960
6, 39043, Pitch_bend_c, 5, 8832
6, 39044, Pitch_bend_c, 5, 8832
6, 39045, Pitch_bend_c, 5, 8832
6, 39046, Pitch_bend_c, 5, 8832
6, 39047, Pitch_bend_c, 5, 8704
6, 39048, Pitch_bend_c, 5, 8704
6, 39049, Pitch_bend_c, 5, 8704
6, 39050, Pitch_bend_c, 5, 8704
6, 39051, Pitch_bend_c, 5, 8704
6, 39052, Pitch_bend_c, 5, 8704
6, 39053, Pitch_bend_c, 5, 8704
6, 39054, Pitch_bend_c, 5, 8704
6, 39055, Pitch_bend_c, 5, 8832
6, 39056, Pitch_bend_c, 5, 8832
6, 39057, Pitch_bend_c, 5, 8832
6, 39058, Pitch_bend_c, 5, 8832
6, 39059, Pitch_bend_c, 5, 8832
6, 39060, Pitch_bend_c, 5, 8960
6, 39061, Pitch_bend_c, 5, 8960
6, 39062, Pitch_bend_c, 5, 8960
6, 39063, Pitch_bend_c, 5, 9088
6, 39064, Pitch_bend_c, 5, 9088
6, 39065, Pitch_bend_c, 5, 9088
6, 39066, Pitch_bend_c, 5, 9088
6, 39067, Pitch_bend_c, 5, 9088
6, 39068, Pitch_bend_c, 5, 9088
6, 39069, Pitch_bend_c, 5, 9088
6, 39070, Pitch_bend_c, 5, 9088
6, 39071, Pitch_bend_c, 5, 8960
6, 39072, Pitch_bend_c, 5, 8960
6, 39073, Pitch_bend_c, 5, 8960
6, 39074, Pitch_bend_c, 5, 8832
6, 39075, Pitch_bend_c, 5, 8832
6, 39076, Pitch_bend_c, 5, 8832
6, 39077, Pitch_bend_c, 5, 8832
6, 39078, Pitch_bend_c, 5, 8704
6, 39079, Pitch_bend_c, 5, 8704
6, 39080, Pitch_bend_c, 5, 8704
6, 39081, Pitch_bend_c, 5, 8704
6, 39082, Pitch_bend_c, 5, 8704
6, 39083, Pitch_bend_c, 5, 8704
6, 39084, Pitch_bend_c, 5, 8704
6, 39085, Pitch_bend_c, 5, 8704
6, 39086, Pitch_bend_c, 5, 8832
6, 39087, Pitch_bend_c, 5, 8832
6, 39088, Pitch_bend_c, 5, 8832
6, 39089, Pitch_bend_c, 5, 8960
6, 39090, Pitch_bend_c, 5, 8960
6, 39091, Pitch_bend_c, 5, 8960
6, 39092, Pitch_bend_c, 5, 8960
6, 39093, Pitch_bend_c, 5, 8960
6, 39094, Pitch_bend_c, 5, 8960
6, 39095, Pitch_bend_c, 5, 9088
6, 39096, Pitch_bend_c, 5, 9088
6, 39097, Pitch_bend_c, 5, 9088
6, 39098, Pitch_bend_c, 5, 9088
6, 39099, Pitch_bend_c, 5, 9088
6, 39100, Pitch_bend_c, 5, 9088
6, 39101, Pitch_bend_c, 5, 8960
6, 39102, Pitch_bend_c, 5, 8960
6, 39103, Pitch_bend_c, 5, 8960
6, 39104, Pitch_bend_c, 5, 8832
6, 39105, Pitch_bend_c, 5, 8832
6, 39106, Pitch_bend_c, 5, 8832
6, 39107, Pitch_bend_c, 5, 8704
6, 39108, Pitch_bend_c, 5, 8704
6, 39109, Pitch_bend_c, 5, 8704
6, 39110, Pitch_bend_c, 5, 8704
6, 39111, Pitch_bend_c, 5, 8704
6, 39112, Pitch_bend_c, 5, 8704
6, 39113, Pitch_bend_c, 5, 8704
6, 39114, Pitch_bend_c, 5, 8704
6, 39115, Pitch_bend_c, 5, 8704
6, 39116, Pitch_bend_c, 5, 8832
6, 39117, Pitch_bend_c, 5, 8832
6, 39118, Pitch_bend_c, 5, 8832
6, 39119, Note_off_c, 5, 71, 0
6, 39119, Pitch_bend_c, 5, 8832
6, 39119, Pitch_bend_c, 5, 8192
6, 39359, Note_on_c, 5, 69, 95
6, 39359, Pitch_bend_c, 5, 8192
6, 39371, Pitch_bend_c, 5, 8320
6, 39383, Pitch_bend_c, 5, 8448
6, 39387, Pitch_bend_c, 5, 8576
6, 39391, Pitch_bend_c, 5, 8704
6, 39395, Pitch_bend_c, 5, 8832
6, 39399, Pitch_bend_c, 5, 8960
6, 39403, Pitch_bend_c, 5, 9088
6, 39407, Pitch_bend_c, 5, 9344
6, 39415, Pitch_bend_c, 5, 9472
6, 39419, Pitch_bend_c, 5, 9600
6, 39483, Pitch_bend_c, 5, 9472
6, 39487, Pitch_bend_c, 5, 9344
6, 39495, Pitch_bend_c, 5, 9088
6, 39499, Pitch_bend_c, 5, 8960
6, 39503, Pitch_bend_c, 5, 8832
6, 39507, Pitch_bend_c, 5, 8704
6, 39511, Pitch_bend_c, 5, 8576
6, 39515, Pitch_bend_c, 5, 8448
6, 39519, Pitch_bend_c, 5, 8320
6, 39531, Pitch_bend_c, 5, 8192
6, 39599, Note_off_c, 5, 69, 0
6, 39599, Pitch_bend_c, 5, 8192
6, 39599, Note_on_c, 5, 67, 95
6, 39599, Pitch_bend_c, 5, 8192
6, 39600, Pitch_bend_c, 5, 8192
6, 39601, Pitch_bend_c, 5, 8192
6, 39602, Pitch_bend_c, 5, 8192
6, 39603, Pitch_bend_c, 5, 8192
6, 39604, Pitch_bend_c, 5, 8192
6, 39605, Pitch_bend_c, 5, 8192
6, 39606, Pitch_bend_c, 5, 8192
6, 39607, Pitch_bend_c, 5, 8192
6, 39608, Pitch_bend_c, 5, 8192
6, 39609, Pitch_bend_c, 5, 8192
6, 39609, Pitch_bend_c, 5, 8192
6, 39610, Pitch_bend_c, 5, 8192
6, 39611, Pitch_bend_c, 5, 8192
6, 39612, Pitch_bend_c, 5, 8192
6, 39613, Pitch_bend_c, 5, 8192
6, 39614, Pitch_bend_c, 5, 8192
6, 39615, Pitch_bend_c, 5, 8192
6, 39616, Pitch_bend_c, 5, 8192
6, 39617, Pitch_bend_c, 5, 8192
6, 39618, Pitch_bend_c, 5, 8192
6, 39619, Pitch_bend_c, 5, 8192
6, 39620, Pitch_bend_c, 5, 8192
6, 39621, Pitch_bend_c, 5, 8192
6, 39622, Pitch_bend_c, 5, 8192
6, 39623, Pitch_bend_c, 5, 8192
6, 39624, Pitch_bend_c, 5, 8192
6, 39624, Pitch_bend_c, 5, 8192
6, 39625, Pitch_bend_c, 5, 8192
6, 39626, Pitch_bend_c, 5, 8192
6, 39627, Pitch_bend_c, 5, 8192
6, 39628, Pitch_bend_c, 5, 8192
6, 39629, Pitch_bend_c, 5, 8192
6, 39630, Pitch_bend_c, 5, 8320
6, 39631, Pitch_bend_c, 5, 8320
6, 39632, Pitch_bend_c, 5, 8320
6, 39633, Pitch_bend_c, 5, 8448
6, 39634, Pitch_bend_c, 5, 8448
6, 39635, Pitch_bend_c, 5, 8448
6, 39636, Pitch_bend_c, 5, 8448
6, 39637, Pitch_bend_c, 5, 8448
6, 39638, Pitch_bend_c, 5, 8448
6, 39639, Pitch_bend_c, 5, 8448
6, 39639, Pitch_bend_c, 5, 8448
6, 39640, Pitch_bend_c, 5, 8448
6, 39641, Pitch_bend_c, 5, 8320
6, 39642, Pitch_bend_c, 5, 8320
6, 39643, Pitch_bend_c, 5, 8320
6, 39644, Pitch_bend_c, 5, 8192
6, 39645, Pitch_bend_c, 5, 8064
6, 39646, Pitch_bend_c, 5, 8064
6, 39647, Pitch_bend_c, 5, 8064
6, 39648, Pitch_bend_c, 5, 7936
6, 39649, Pitch_bend_c, 5, 7936
6, 39650, Pitch_bend_c, 5, 7936
6, 39651, Pitch_bend_c, 5, 7936
6, 39652, Pitch_bend_c, 5, 7936
6, 39653, Pitch_bend_c, 5, 7936
6, 39654, Pitch_bend_c, 5, 7936
6, 39654, Pitch_bend_c, 5, 7936
6, 39655, Pitch_bend_c, 5, 7936
6, 39656, Pitch_bend_c, 5, 8064
6, 39657, Pitch_bend_c, 5, 8064
6, 39658, Pitch_bend_c, 5, 8064
6, 39659, Pitch_bend_c, 5, 8192
6, 39660, Pitch_bend_c, 5, 8192
6, 39661, Pitch_bend_c, 5, 8320
6, 39662, Pitch_bend_c, 5, 8320
6, 39663, Pitch_bend_c, 5, 8320
6, 39664, Pitch_bend_c, 5, 8448
6, 39665, Pitch_bend_c, 5, 8448
6, 39666, Pitch_bend_c, 5, 8448
6, 39667, Pitch_bend_c, 5, 8448
6, 39668, Pitch_bend_c, 5, 8448
6, 39669, Pitch_bend_c, 5, 8448
6, 39669, Pitch_bend_c, 5, 8448
6, 39670, Pitch_bend_c, 5, 8320
6, 39671, Pitch_bend_c, 5, 8320
6, 39672, Pitch_bend_c, 5, 8320
6, 39673, Pitch_bend_c, 5, 8192
6, 39674, Pitch_bend_c, 5, 8192
6, 39675, Pitch_bend_c, 5, 8192
6, 39676, Pitch_bend_c, 5, 8064
6, 39677, Pitch_bend_c, 5, 8064
6, 39678, Pitch_bend_c, 5, 8064
6, 39679, Pitch_bend_c, 5, 7936
6, 39680, Pitch_bend_c, 5, 7936
6, 39681, Pitch_bend_c, 5, 7936
6, 39682, Pitch_bend_c, 5, 7936
6, 39683, Pitch_bend_c, 5, 7936
6, 39684, Pitch_bend_c, 5, 7936
6, 39684, Pitch_bend_c, 5, 7936
6, 39685, Pitch_bend_c, 5, 8064
6, 39686, Pitch_bend_c, 5, 8064
6, 39687, Pitch_bend_c, 5, 8064
6, 39688, Pitch_bend_c, 5, 8192
6, 39689, Pitch_bend_c, 5, 8192
6, 39690, Pitch_bend_c, 5, 8192
6, 39691, Pitch_bend_c, 5, 8320
6, 39692, Pitch_bend_c, 5, 8320
6, 39693, Pitch_bend_c, 5, 8448
6, 39694, Pitch_bend_c, 5, 8448
6, 39695, Pitch_bend_c, 5, 8448
6, 39696, Pitch_bend_c, 5, 8448
6, 39697, Pitch_bend_c, 5, 8448
6, 39698, Pitch_bend_c, 5, 8448
6, 39699, Pitch_bend_c, 5, 8448
6, 39699, Pitch_bend_c, 5, 8448
6, 39700, Pitch_bend_c, 5, 8448
6, 39701, Pitch_bend_c, 5, 8320
6, 39702, Pitch_bend_c, 5, 8320
6, 39703, Pitch_bend_c, 5, 8192
6, 39704, Pitch_bend_c, 5, 8192
6, 39705, Pitch_bend_c, 5, 8192
6, 39706, Pitch_bend_c, 5, 8064
6, 39707, Pitch_bend_c, 5, 8064
6, 39708, Pitch_bend_c, 5, 7936
6, 39709, Pitch_bend_c, 5, 7936
6, 39710, Pitch_bend_c, 5, 7936
6, 39711, Pitch_bend_c, 5, 7936
6, 39712, Pitch_bend_c, 5, 7936
6, 39713, Pitch_bend_c, 5, 7936
6, 39714, Pitch_bend_c, 5, 7936
6, 39714, Pitch_bend_c, 5, 7936
6, 39715, Pitch_bend_c, 5, 7936
6, 39716, Pitch_bend_c, 5, 8064
6, 39717, Pitch_bend_c, 5, 8064
6, 39718, Pitch_bend_c, 5, 8192
6, 39719, Note_off_c, 5, 67, 0
6, 39719, Pitch_bend_c, 5, 8192
6, 39839, Note_on_c, 5, 74, 95
6, 39839, Pitch_bend_c, 5, 8192
6, 39847, Pitch_bend_c, 5, 8320
6, 39859, Pitch_bend_c, 5, 8576
6, 39863, Pitch_bend_c, 5, 8704
6, 39867, Pitch_bend_c, 5, 8832
6, 39871, Pitch_bend_c, 5, 9088
6, 39875, Pitch_bend_c, 5, 9344
6, 39883, Pitch_bend_c, 5, 9600
6, 39931, Pitch_bend_c, 5, 9472
6, 39935, Pitch_bend_c, 5, 9344
6, 39943, Pitch_bend_c, 5, 8960
6, 39947, Pitch_bend_c, 5, 8832
6, 39951, Pitch_bend_c, 5, 8704
6, 39955, Pitch_bend_c, 5, 8448
6, 39959, Pitch_bend_c, 5, 8320
6, 39967, Pitch_bend_c, 5, 8192
6, 40019, Note_off_c, 5, 74, 0
6, 40019, Pitch_bend_c, 5, 8192
6, 40319, Note_on_c, 5, 71, 95
6, 40319, Pitch_bend_c, 5, 8192
6, 40335, Pitch_bend_c, 5, 8320
6, 40347, Pitch_bend_c, 5, 8448
6, 40351, Pitch_bend_c, 5, 8576
6, 40359, Pitch_bend_c, 5, 8704
6, 40363, Pitch_bend_c, 5, 8832
6, 40424, Note_off_c, 5, 71, 0
6, 40424, Pitch_bend_c, 5, 8192
6, 40604, Note_on_c, 5, 52, 95
6, 40604, Pitch_bend_c, 5, 6784
6, 40612, Pitch_bend_c, 5, 7552
6, 40619, Pitch_bend_c, 5, 8192
6, 40679, Note_off_c, 5, 52, 0
6, 40799, Note_on_c, 5, 57, 95
6, 40799, Pitch_bend_c, 5, 8192
6, 40800, Pitch_bend_c, 5, 8192
6, 40801, Pitch_bend_c, 5, 8192
6, 40802, Pitch_bend_c, 5, 8192
6, 40803, Pitch_bend_c, 5, 8192
6, 40804, Pitch_bend_c, 5, 8192
6, 40805, Pitch_bend_c, 5, 8192
6, 40806, Pitch_bend_c, 5, 8192
6, 40807, Pitch_bend_c, 5, 8192
6, 40808, Pitch_bend_c, 5, 8192
6, 40809, Pitch_bend_c, 5, 8192
6, 40809, Pitch_bend_c, 5, 8192
6, 40810, Pitch_bend_c, 5, 8192
6, 40811, Pitch_bend_c, 5, 8192
6, 40812, Pitch_bend_c, 5, 8192
6, 40813, Pitch_bend_c, 5, 8192
6, 40814, Pitch_bend_c, 5, 8192
6, 40815, Pitch_bend_c, 5, 8192
6, 40816, Pitch_bend_c, 5, 8192
6, 40817, Pitch_bend_c, 5, 8192
6, 40818, Pitch_bend_c, 5, 8192
6, 40819, Pitch_bend_c, 5, 8192
6, 40820, Pitch_bend_c, 5, 8192
6, 40821, Pitch_bend_c, 5, 8192
6, 40822, Pitch_bend_c, 5, 8192
6, 40823, Pitch_bend_c, 5, 8192
6, 40824, Pitch_bend_c, 5, 8192
6, 40824, Pitch_bend_c, 5, 8192
6, 40825, Pitch_bend_c, 5, 8192
6, 40826, Pitch_bend_c, 5, 8192
6, 40827, Pitch_bend_c, 5, 8192
6, 40828, Pitch_bend_c, 5, 8192
6, 40829, Pitch_bend_c, 5, 8192
6, 40830, Pitch_bend_c, 5, 8192
6, 40831, Pitch_bend_c, 5, 8192
6, 40832, Pitch_bend_c, 5, 8192
6, 40833, Pitch_bend_c, 5, 8192
6, 40834, Pitch_bend_c, 5, 8192
6, 40835, Pitch_bend_c, 5, 8320
6, 40836, Pitch_bend_c, 5, 8320
6, 40837, Pitch_bend_c, 5, 8320
6, 40838, Pitch_bend_c, 5, 8320
6, 40839, Pitch_bend_c, 5, 8320
6, 40839, Pitch_bend_c, 5, 8192
6, 40840, Pitch_bend_c, 5, 8192
6, 40841, Pitch_bend_c, 5, 8192
6, 40842, Pitch_bend_c, 5, 8192
6, 40843, Pitch_bend_c, 5, 8192
6, 40844, Pitch_bend_c, 5, 8192
6, 40845, Pitch_bend_c, 5, 8192
6, 40846, Pitch_bend_c, 5, 8192
6, 40847, Pitch_bend_c, 5, 8192
6, 40848, Pitch_bend_c, 5, 8192
6, 40849, Pitch_bend_c, 5, 8192
6, 40850, Pitch_bend_c, 5, 8064
6, 40851, Pitch_bend_c, 5, 8064
6, 40852, Pitch_bend_c, 5, 8064
6, 40853, Pitch_bend_c, 5, 8064
6, 40854, Pitch_bend_c, 5, 8064
6, 40854, Pitch_bend_c, 5, 8192
6, 40855, Pitch_bend_c, 5, 8192
6, 40856, Pitch_bend_c, 5, 8192
6, 40857, Pitch_bend_c, 5, 8192
6, 40858, Pitch_bend_c, 5, 8192
6, 40859, Pitch_bend_c, 5, 8192
6, 40860, Pitch_bend_c, 5, 8192
6, 40861, Pitch_bend_c, 5, 8320
6, 40862, Pitch_bend_c, 5, 8320
6, 40863, Pitch_bend_c, 5, 8320
6, 40864, Pitch_bend_c, 5, 8320
6, 40865, Pitch_bend_c, 5, 8320
6, 40866, Pitch_bend_c, 5, 8320
6, 40867, Pitch_bend_c, 5, 8320
6, 40868, Pitch_bend_c, 5, 8320
6, 40869, Pitch_bend_c, 5, 8320
6, 40869, Pitch_bend_c, 5, 8320
6, 40870, Pitch_bend_c, 5, 8320
6, 40871, Pitch_bend_c, 5, 8320
6, 40872, Pitch_bend_c, 5, 8320
6, 40873, Pitch_bend_c, 5, 8192
6, 40874, Pitch_bend_c, 5, 8192
6, 40875, Pitch_bend_c, 5, 8192
6, 40876, Pitch_bend_c, 5, 8064
6, 40877, Pitch_bend_c, 5, 8064
6, 40878, Pitch_bend_c, 5, 8064
6, 40879, Pitch_bend_c, 5, 8064
6, 40880, Pitch_bend_c, 5, 8064
6, 40881, Pitch_bend_c, 5, 8064
6, 40882, Pitch_bend_c, 5, 8064
6, 40883, Pitch_bend_c, 5, 8064
6, 40884, Pitch_bend_c, 5, 8064
6, 40884, Pitch_bend_c, 5, 8064
6, 40885, Pitch_bend_c, 5, 8064
6, 40886, Pitch_bend_c, 5, 8064
6, 40887, Pitch_bend_c, 5, 8064
6, 40888, Pitch_bend_c, 5, 8192
6, 40889, Pitch_bend_c, 5, 8192
6, 40890, Pitch_bend_c, 5, 8192
6, 40891, Pitch_bend_c, 5, 8320
6, 40892, Pitch_bend_c, 5, 8320
6, 40893, Pitch_bend_c, 5, 8320
6, 40894, Pitch_bend_c, 5, 8448
6, 40895, Pitch_bend_c, 5, 8448
6, 40896, Pitch_bend_c, 5, 8448
6, 40897, Pitch_bend_c, 5, 8448
6, 40898, Pitch_bend_c, 5, 8448
6, 40899, Pitch_bend_c, 5, 8448
6, 40899, Pitch_bend_c, 5, 8448
6, 40900, Pitch_bend_c, 5, 8320
6, 40901, Pitch_bend_c, 5, 8320
6, 40902, Pitch_bend_c, 5, 8320
6, 40903, Pitch_bend_c, 5, 8192
6, 40904, Pitch_bend_c, 5, 8192
6, 40905, Pitch_bend_c, 5, 8192
6, 40906, Pitch_bend_c, 5, 8064
6, 40907, Pitch_bend_c, 5, 8064
6, 40908, Pitch_bend_c, 5, 8064
6, 40909, Pitch_bend_c, 5, 7936
6, 40910, Pitch_bend_c, 5, 7936
6, 40911, Pitch_bend_c, 5, 7936
6, 40912, Pitch_bend_c, 5, 7936
6, 40913, Pitch_bend_c, 5, 7936
6, 40914, Pitch_bend_c, 5, 7936
6, 40914, Pitch_bend_c, 5, 7936
6, 40915, Pitch_bend_c, 5, 8064
6, 40916, Pitch_bend_c, 5, 8064
6, 40917, Pitch_bend_c, 5, 8064
6, 40918, Pitch_bend_c, 5, 8192
6, 40919, Pitch_bend_c, 5, 8192
6, 40920, Pitch_bend_c, 5, 8320
6, 40921, Pitch_bend_c, 5, 8320
6, 40922, Pitch_bend_c, 5, 8320
6, 40923, Pitch_bend_c, 5, 8448
6, 40924, Pitch_bend_c, 5, 8448
6, 40925, Pitch_bend_c, 5, 8448
6, 40926, Pitch_bend_c, 5, 8448
6, 40927, Pitch_bend_c, 5, 8448
6, 40928, Pitch_bend_c, 5, 8448
6, 40929, Pitch_bend_c, 5, 8448
6, 40929, Pitch_bend_c, 5, 8448
6, 40930, Pitch_bend_c, 5, 8448
6, 40931, Pitch_bend_c, 5, 8320
6, 40932, Pitch_bend_c, 5, 8320
6, 40933, Pitch_bend_c, 5, 8320
6, 40934, Pitch_bend_c, 5, 8192
6, 40935, Pitch_bend_c, 5, 8064
6, 40936, Pitch_bend_c, 5, 8064
6, 40937, Pitch_bend_c, 5, 8064
6, 40938, Pitch_bend_c, 5, 7936
6, 40939, Pitch_bend_c, 5, 7936
6, 40940, Pitch_bend_c, 5, 7936
6, 40941, Pitch_bend_c, 5, 7936
6, 40942, Pitch_bend_c, 5, 7936
6, 40943, Pitch_bend_c, 5, 7936
6, 40944, Pitch_bend_c, 5, 7936
6, 40944, Pitch_bend_c, 5, 7936
6, 40945, Pitch_bend_c, 5, 7936
6, 40946, Pitch_bend_c, 5, 8064
6, 40947, Pitch_bend_c, 5, 8064
6, 40948, Pitch_bend_c, 5, 8064
6, 40949, Pitch_bend_c, 5, 8192
6, 40950, Pitch_bend_c, 5, 8192
6, 40951, Pitch_bend_c, 5, 8320
6, 40952, Pitch_bend_c, 5, 8320
6, 40953, Pitch_bend_c, 5, 8320
6, 40954, Pitch_bend_c, 5, 8320
6, 40955, Pitch_bend_c, 5, 8320
6, 40956, Pitch_bend_c, 5, 8448
6, 40957, Pitch_bend_c, 5, 8448
6, 40958, Pitch_bend_c, 5, 8448
6, 40959, Pitch_bend_c, 5, 8320
6, 40959, Pitch_bend_c, 5, 8320
6, 40960, Pitch_bend_c, 5, 8320
6, 40961, Pitch_bend_c, 5, 8320
6, 40962, Pitch_bend_c, 5, 8320
6, 40963, Pitch_bend_c, 5, 8192
6, 40964, Pitch_bend_c, 5, 8192
6, 40965, Pitch_bend_c, 5, 8192
6, 40966, Pitch_bend_c, 5, 8064
6, 40967, Pitch_bend_c, 5, 8064
6, 40968, Pitch_bend_c, 5, 8064
6, 40969, Pitch_bend_c, 5, 8064
6, 40970, Pitch_bend_c, 5, 8064
6, 40971, Pitch_bend_c, 5, 7936
6, 40972, Pitch_bend_c, 5, 7936
6, 40973, Pitch_bend_c, 5, 7936
6, 40974, Pitch_bend_c, 5, 8064
6, 40974, Pitch_bend_c, 5, 8064
6, 40975, Pitch_bend_c, 5, 8064
6, 40976, Pitch_bend_c, 5, 8064
6, 40977, Pitch_bend_c, 5, 8064
6, 40978, Pitch_bend_c, 5, 8192
6, 40979, Pitch_bend_c, 5, 8192
6, 40980, Pitch_bend_c, 5, 8192
6, 40981, Pitch_bend_c, 5, 8320
6, 40982, Pitch_bend_c, 5, 8320
6, 40983, Pitch_bend_c, 5, 8320
6, 40984, Pitch_bend_c, 5, 8448
6, 40985, Pitch_bend_c, 5, 8448
6, 40986, Pitch_bend_c, 5, 8448
6, 40987, Pitch_bend_c, 5, 8448
6, 40988, Pitch_bend_c, 5, 8448
6, 40989, Pitch_bend_c, 5, 8448
6, 40989, Pitch_bend_c, 5, 8448
6, 40990, Pitch_bend_c, 5, 8320
6, 40991, Pitch_bend_c, 5, 8320
6, 40992, Pitch_bend_c, 5, 8320
6, 40993, Pitch_bend_c, 5, 8192
6, 40994, Pitch_bend_c, 5, 8192
6, 40995, Pitch_bend_c, 5, 8192
6, 40996, Pitch_bend_c, 5, 8064
6, 40997, Pitch_bend_c, 5, 8064
6, 40998, Pitch_bend_c, 5, 8064
6, 40999, Pitch_bend_c, 5, 7936
6, 41000, Pitch_bend_c, 5, 7936
6, 41001, Pitch_bend_c, 5, 7936
6, 41002, Pitch_bend_c, 5, 7936
6, 41003, Pitch_bend_c, 5, 7936
6, 41004, Pitch_bend_c, 5, 7936
6, 41004, Pitch_bend_c, 5, 7936
6, 41005, Pitch_bend_c, 5, 8064
6, 41006, Pitch_bend_c, 5, 8064
6, 41007, Pitch_bend_c, 5, 8064
6, 41008, Pitch_bend_c, 5, 8192
6, 41009, Pitch_bend_c, 5, 8192
6, 41010, Pitch_bend_c, 5, 8192
6, 41011, Pitch_bend_c, 5, 8320
6, 41012, Pitch_bend_c, 5, 8320
6, 41013, Pitch_bend_c, 5, 8320
6, 41014, Pitch_bend_c, 5, 8448
6, 41015, Pitch_bend_c, 5, 8448
6, 41016, Pitch_bend_c, 5, 8448
6, 41017, Pitch_bend_c, 5, 8448
6, 41018, Pitch_bend_c, 5, 8448
6, 41019, Pitch_bend_c, 5, 8448
6, 41019, Pitch_bend_c, 5, 8448
6, 41020, Pitch_bend_c, 5, 8320
6, 41021, Pitch_bend_c, 5, 8320
6, 41022, Pitch_bend_c, 5, 8320
6, 41023, Pitch_bend_c, 5, 8192
6, 41024, Pitch_bend_c, 5, 8192
6, 41025, Pitch_bend_c, 5, 8192
6, 41026, Pitch_bend_c, 5, 8064
6, 41027, Pitch_bend_c, 5, 8064
6, 41028, Pitch_bend_c, 5, 8064
6, 41029, Pitch_bend_c, 5, 7936
6, 41030, Pitch_bend_c, 5, 7936
6, 41031, Pitch_bend_c, 5, 7936
6, 41032, Pitch_bend_c, 5, 7936
6, 41033, Pitch_bend_c, 5, 7936
6, 41034, Pitch_bend_c, 5, 7936
6, 41034, Pitch_bend_c, 5, 7936
6, 41035, Pitch_bend_c, 5, 8064
6, 41036, Pitch_bend_c, 5, 8064
6, 41037, Pitch_bend_c, 5, 8064
6, 41038, Pitch_bend_c, 5, 8192
6, 41039, Pitch_bend_c, 5, 8192
6, 41039, Control_c, 5, 7, 96
6, 41040, Pitch_bend_c, 5, 8192
6, 41041, Pitch_bend_c, 5, 8320
6, 41042, Pitch_bend_c, 5, 8320
6, 41043, Pitch_bend_c, 5, 8448
6, 41044, Pitch_bend_c, 5, 8448
6, 41045, Pitch_bend_c, 5, 8448
6, 41046, Pitch_bend_c, 5, 8448
6, 41047, Pitch_bend_c, 5, 8448
6, 41048, Pitch_bend_c, 5, 8448
6, 41049, Pitch_bend_c, 5, 8448
6, 41049, Pitch_bend_c, 5, 8448
6, 41050, Pitch_bend_c, 5, 8448
6, 41051, Pitch_bend_c, 5, 8320
6, 41052, Pitch_bend_c, 5, 8320
6, 41053, Pitch_bend_c, 5, 8192
6, 41054, Pitch_bend_c, 5, 8192
6, 41055, Pitch_bend_c, 5, 8192
6, 41056, Pitch_bend_c, 5, 8064
6, 41057, Pitch_bend_c, 5, 8064
6, 41058, Pitch_bend_c, 5, 7936
6, 41059, Pitch_bend_c, 5, 7936
6, 41060, Pitch_bend_c, 5, 7936
6, 41061, Pitch_bend_c, 5, 7936
6, 41062, Pitch_bend_c, 5, 7936
6, 41063, Pitch_bend_c, 5, 7936
6, 41064, Pitch_bend_c, 5, 7936
6, 41064, Pitch_bend_c, 5, 7936
6, 41065, Pitch_bend_c, 5, 7936
6, 41066, Pitch_bend_c, 5, 8064
6, 41067, Pitch_bend_c, 5, 8064
6, 41068, Pitch_bend_c, 5, 8192
6, 41069, Pitch_bend_c, 5, 8192
6, 41069, Control_c, 5, 7, 88
6, 41070, Pitch_bend_c, 5, 8192
6, 41071, Pitch_bend_c, 5, 8320
6, 41072, Pitch_bend_c, 5, 8320
6, 41073, Pitch_bend_c, 5, 8448
6, 41074, Pitch_bend_c, 5, 8448
6, 41075, Pitch_bend_c, 5, 8448
6, 41076, Pitch_bend_c, 5, 8448
6, 41077, Pitch_bend_c, 5, 8448
6, 41078, Pitch_bend_c, 5, 8448
6, 41079, Pitch_bend_c, 5, 8448
6, 41079, Pitch_bend_c, 5, 8448
6, 41080, Pitch_bend_c, 5, 8448
6, 41081, Pitch_bend_c, 5, 8320
6, 41082, Pitch_bend_c, 5, 8320
6, 41083, Pitch_bend_c, 5, 8192
6, 41084, Pitch_bend_c, 5, 8192
6, 41085, Pitch_bend_c, 5, 8192
6, 41086, Pitch_bend_c, 5, 8064
6, 41087, Pitch_bend_c, 5, 8064
6, 41088, Pitch_bend_c, 5, 7936
6, 41089, Pitch_bend_c, 5, 7936
6, 41090, Pitch_bend_c, 5, 7936
6, 41091, Pitch_bend_c, 5, 7936
6, 41092, Pitch_bend_c, 5, 7936
6, 41093, Pitch_bend_c, 5, 7936
6, 41094, Pitch_bend_c, 5, 7936
6, 41094, Pitch_bend_c, 5, 7936
6, 41095, Pitch_bend_c, 5, 7936
6, 41096, Pitch_bend_c, 5, 8064
6, 41097, Pitch_bend_c, 5, 8064
6, 41098, Pitch_bend_c, 5, 8192
6, 41099, Pitch_bend_c, 5, 8192
6, 41099, Control_c, 5, 7, 80
6, 41100, Pitch_bend_c, 5, 8192
6, 41101, Pitch_bend_c, 5, 8320
6, 41102, Pitch_bend_c, 5, 8320
6, 41103, Pitch_bend_c, 5, 8320
6, 41104, Pitch_bend_c, 5, 8448
6, 41105, Pitch_bend_c, 5, 8448
6, 41106, Pitch_bend_c, 5, 8448
6, 41107, Pitch_bend_c, 5, 8448
6, 41108, Pitch_bend_c, 5, 8448
6, 41109, Pitch_bend_c, 5, 8448
6, 41109, Pitch_bend_c, 5, 8448
6, 41110, Pitch_bend_c, 5, 8320
6, 41111, Pitch_bend_c, 5, 8320
6, 41112, Pitch_bend_c, 5, 8320
6, 41113, Pitch_bend_c, 5, 8192
6, 41114, Pitch_bend_c, 5, 8192
6, 41115, Pitch_bend_c, 5, 8192
6, 41116, Pitch_bend_c, 5, 8064
6, 41117, Pitch_bend_c, 5, 8064
6, 41118, Pitch_bend_c, 5, 8064
6, 41119, Pitch_bend_c, 5, 7936
6, 41120, Pitch_bend_c, 5, 7936
6, 41121, Pitch_bend_c, 5, 7936
6, 41122, Pitch_bend_c, 5, 7936
6, 41123, Pitch_bend_c, 5, 7936
6, 41124, Pitch_bend_c, 5, 7936
6, 41124, Pitch_bend_c, 5, 7936
6, 41125, Pitch_bend_c, 5, 8064
6, 41126, Pitch_bend_c, 5, 8064
6, 41127, Pitch_bend_c, 5, 8064
6, 41128, Pitch_bend_c, 5, 8192
6, 41129, Pitch_bend_c, 5, 8192
6, 41129, Control_c, 5, 7, 72
6, 41130, Pitch_bend_c, 5, 8192
6, 41131, Pitch_bend_c, 5, 8320
6, 41132, Pitch_bend_c, 5, 8320
6, 41133, Pitch_bend_c, 5, 8320
6, 41134, Pitch_bend_c, 5, 8448
6, 41135, Pitch_bend_c, 5, 8448
6, 41136, Pitch_bend_c, 5, 8448
6, 41137, Pitch_bend_c, 5, 8448
6, 41138, Pitch_bend_c, 5, 8448
6, 41139, Pitch_bend_c, 5, 8448
6, 41139, Pitch_bend_c, 5, 8448
6, 41140, Pitch_bend_c, 5, 8320
6, 41141, Pitch_bend_c, 5, 8320
6, 41142, Pitch_bend_c, 5, 8320
6, 41143, Pitch_bend_c, 5, 8192
6, 41144, Pitch_bend_c, 5, 8192
6, 41145, Pitch_bend_c, 5, 8192
6, 41146, Pitch_bend_c, 5, 8064
6, 41147, Pitch_bend_c, 5, 8064
6, 41148, Pitch_bend_c, 5, 8064
6, 41149, Pitch_bend_c, 5, 7936
6, 41150, Pitch_bend_c, 5, 7936
6, 41151, Pitch_bend_c, 5, 7936
6, 41152, Pitch_bend_c, 5, 7936
6, 41153, Pitch_bend_c, 5, 7936
6, 41154, Pitch_bend_c, 5, 7936
6, 41154, Pitch_bend_c, 5, 7936
6, 41155, Pitch_bend_c, 5, 8064
6, 41156, Pitch_bend_c, 5, 8064
6, 41157, Pitch_bend_c, 5, 8064
6, 41158, Pitch_bend_c, 5, 8192
6, 41159, Pitch_bend_c, 5, 8192
6, 41159, Control_c, 5, 7, 64
6, 41160, Pitch_bend_c, 5, 8192
6, 41161, Pitch_bend_c, 5, 8320
6, 41162, Pitch_bend_c, 5, 8320
6, 41163, Pitch_bend_c, 5, 8320
6, 41164, Pitch_bend_c, 5, 8320
6, 41165, Pitch_bend_c, 5, 8448
6, 41166, Pitch_bend_c, 5, 8448
6, 41167, Pitch_bend_c, 5, 8448
6, 41168, Pitch_bend_c, 5, 8448
6, 41169, Pitch_bend_c, 5, 8448
6, 41169, Pitch_bend_c, 5, 8320
6, 41170, Pitch_bend_c, 5, 8320
6, 41171, Pitch_bend_c, 5, 8320
6, 41172, Pitch_bend_c, 5, 8320
6, 41173, Pitch_bend_c, 5, 8192
6, 41174, Pitch_bend_c, 5, 8192
6, 41175, Pitch_bend_c, 5, 8192
6, 41176, Pitch_bend_c, 5, 8064
6, 41177, Pitch_bend_c, 5, 8064
6, 41178, Pitch_bend_c, 5, 8064
6, 41179, Pitch_bend_c, 5, 8064
6, 41180, Pitch_bend_c, 5, 7936
6, 41181, Pitch_bend_c, 5, 7936
6, 41182, Pitch_bend_c, 5, 7936
6, 41183, Pitch_bend_c, 5, 7936
6, 41184, Pitch_bend_c, 5, 7936
6, 41184, Pitch_bend_c, 5, 8064
6, 41185, Pitch_bend_c, 5, 8064
6, 41186, Pitch_bend_c, 5, 8064
6, 41187, Pitch_bend_c, 5, 8064
6, 41188, Pitch_bend_c, 5, 8192
6, 41189, Pitch_bend_c, 5, 8192
6, 41189, Control_c, 5, 7, 56
6, 41190, Pitch_bend_c, 5, 8192
6, 41191, Pitch_bend_c, 5, 8320
6, 41192, Pitch_bend_c, 5, 8320
6, 41193, Pitch_bend_c, 5, 8448
6, 41194, Pitch_bend_c, 5, 8448
6, 41195, Pitch_bend_c, 5, 8448
6, 41196, Pitch_bend_c, 5, 8448
6, 41197, Pitch_bend_c, 5, 8448
6, 41198, Pitch_bend_c, 5, 8448
6, 41199, Pitch_bend_c, 5, 8448
6, 41199, Pitch_bend_c, 5, 8448
6, 41200, Pitch_bend_c, 5, 8448
6, 41201, Pitch_bend_c, 5, 8320
6, 41202, Pitch_bend_c, 5, 8320
6, 41203, Pitch_bend_c, 5, 8192
6, 41204, Pitch_bend_c, 5, 8192
6, 41205, Pitch_bend_c, 5, 8192
6, 41206, Pitch_bend_c, 5, 8064
6, 41207, Pitch_bend_c, 5, 8064
6, 41208, Pitch_bend_c, 5, 7936
6, 41209, Pitch_bend_c, 5, 7936
6, 41210, Pitch_bend_c, 5, 7936
6, 41211, Pitch_bend_c, 5, 7936
6, 41212, Pitch_bend_c, 5, 7936
6, 41213, Pitch_bend_c, 5, 7936
6, 41214, Pitch_bend_c, 5, 7936
6, 41214, Pitch_bend_c, 5, 7936
6, 41215, Pitch_bend_c, 5, 7936
6, 41216, Pitch_bend_c, 5, 8064
6, 41217, Pitch_bend_c, 5, 8064
6, 41218, Pitch_bend_c, 5, 8192
6, 41219, Pitch_bend_c, 5, 8192
6, 41219, Control_c, 5, 7, 48
6, 41220, Pitch_bend_c, 5, 8192
6, 41221, Pitch_bend_c, 5, 8320
6, 41222, Pitch_bend_c, 5, 8320
6, 41223, Pitch_bend_c, 5, 8320
6, 41224, Pitch_bend_c, 5, 8320
6, 41225, Pitch_bend_c, 5, 8320
6, 41226, Pitch_bend_c, 5, 8320
6, 41227, Pitch_bend_c, 5, 8320
6, 41228, Pitch_bend_c, 5, 8320
6, 41229, Pitch_bend_c, 5, 8320
6, 41229, Pitch_bend_c, 5, 8320
6, 41230, Pitch_bend_c, 5, 8320
6, 41231, Pitch_bend_c, 5, 8320
6, 41232, Pitch_bend_c, 5, 8320
6, 41233, Pitch_bend_c, 5, 8192
6, 41234, Pitch_bend_c, 5, 8192
6, 41235, Pitch_bend_c, 5, 8192
6, 41236, Pitch_bend_c, 5, 8064
6, 41237, Pitch_bend_c, 5, 8064
6, 41238, Pitch_bend_c, 5, 8064
6, 41239, Pitch_bend_c, 5, 8064
6, 41240, Pitch_bend_c, 5, 8064
6, 41241, Pitch_bend_c, 5, 8064
6, 41242, Pitch_bend_c, 5, 8064
6, 41243, Pitch_bend_c, 5, 8064
6, 41244, Pitch_bend_c, 5, 8064
6, 41244, Pitch_bend_c, 5, 8064
6, 41245, Pitch_bend_c, 5, 8064
6, 41246, Pitch_bend_c, 5, 8064
6, 41247, Pitch_bend_c, 5, 8064
6, 41248, Pitch_bend_c, 5, 8192
6, 41249, Pitch_bend_c, 5, 8192
6, 41249, Control_c, 5, 7, 40
6, 41250, Pitch_bend_c, 5, 8192
6, 41251, Pitch_bend_c, 5, 8192
6, 41252, Pitch_bend_c, 5, 8320
6, 41253, Pitch_bend_c, 5, 8320
6, 41254, Pitch_bend_c, 5, 8320
6, 41255, Pitch_bend_c, 5, 8320
6, 41256, Pitch_bend_c, 5, 8320
6, 41257, Pitch_bend_c, 5, 8320
6, 41258, Pitch_bend_c, 5, 8320
6, 41259, Pitch_bend_c, 5, 8320
6, 41259, Pitch_bend_c, 5, 8320
6, 41260, Pitch_bend_c, 5, 8320
6, 41261, Pitch_bend_c, 5, 8320
6, 41262, Pitch_bend_c, 5, 8192
6, 41263, Pitch_bend_c, 5, 8192
6, 41264, Pitch_bend_c, 5, 8192
6, 41265, Pitch_bend_c, 5, 8192
6, 41266, Pitch_bend_c, 5, 8192
6, 41267, Pitch_bend_c, 5, 8064
6, 41268, Pitch_bend_c, 5, 8064
6, 41269, Pitch_bend_c, 5, 8064
6, 41270, Pitch_bend_c, 5, 8064
6, 41271, Pitch_bend_c, 5, 8064
6, 41272, Pitch_bend_c, 5, 8064
6, 41273, Pitch_bend_c, 5, 8064
6, 41274, Pitch_bend_c, 5, 8064
6, 41274, Pitch_bend_c, 5, 8064
6, 41275, Pitch_bend_c, 5, 8064
6, 41276, Pitch_bend_c, 5, 8064
6, 41277, Pitch_bend_c, 5, 8192
6, 41278, Pitch_bend_c, 5, 8192
6, 41279, Note_off_c, 5, 57, 0
6, 41279, Pitch_bend_c, 5, 8192
6, 41279, Control_c, 5, 7, 32
6, 41309, Control_c, 5, 7, 24
6, 41339, Control_c, 5, 7, 16
6, 41369, Control_c, 5, 7, 8
6, 41399, Control_c, 5, 7, 0
6, 41399, End_track
7, 0, Start_track
7, 0, Sequencer_specific, 5, 5, 15, 9, 0, 64
7, 0, Sequencer_specific, 15, 5, 15, 6, 71, 101, 110, 101, 114, 97, 108, 32, 77, 73, 68, 73
7, 0, Title_t, "Track 7"
7, 0, Channel_prefix, 1
7, 0, Time_signature, 4, 2, 24, 8
7, 0, Key_signature, 0, "major"
7, 14, Control_c, 1, 101, 0
7, 14, Control_c, 1, 100, 0
7, 14, Control_c, 1, 6, 12
7, 14, Control_c, 1, 38, 0
7, 15, Pitch_bend_c, 1, 8192
7, 17, Control_c, 1, 101, 0
7, 17, Control_c, 1, 100, 1
7, 17, Control_c, 1, 6, 64
7, 17, Control_c, 1, 38, 0
7, 80, Control_c, 1, 101, 0
7, 80, Control_c, 1, 100, 2
7, 80, Control_c, 1, 6, 64
7, 80, Control_c, 1, 38, 0
7, 96, Control_c, 1, 0, 0
7, 96, Control_c, 1, 92, 0
7, 96, Control_c, 1, 95, 0
7, 96, End_track
8, 0, Start_track
8, 0, Sequencer_specific, 5, 5, 15, 9, 0, 64
8, 0, Sequencer_specific, 15, 5, 15, 6, 71, 101, 110, 101, 114, 97, 108, 32, 77, 73, 68, 73
8, 0, Title_t, "Track 8"
8, 0, Channel_prefix, 7
8, 0, Time_signature, 4, 2, 24, 8
8, 0, Key_signature, 0, "major"
8, 20, Control_c, 7, 101, 0
8, 20, Control_c, 7, 100, 0
8, 20, Control_c, 7, 6, 12
8, 20, Control_c, 7, 38, 0
8, 21, Pitch_bend_c, 7, 8192
8, 23, Control_c, 7, 101, 0
8, 23, Control_c, 7, 100, 1
8, 23, Control_c, 7, 6, 64
8, 23, Control_c, 7, 38, 0
8, 86, Control_c, 7, 101, 0
8, 86, Control_c, 7, 100, 2
8, 86, Control_c, 7, 6, 64
8, 86, Control_c, 7, 38, 0
8, 96, Control_c, 7, 0, 0
8, 96, Control_c, 7, 92, 0
8, 96, Control_c, 7, 95, 0
8, 96, End_track
9, 0, Start_track
9, 0, Sequencer_specific, 5, 5, 15, 9, 0, 64
9, 0, Sequencer_specific, 15, 5, 15, 6, 71, 101, 110, 101, 114, 97, 108, 32, 77, 73, 68, 73
9, 0, Title_t, "Track 9"
9, 0, Channel_prefix, 4
9, 0, Time_signature, 4, 2, 24, 8
9, 0, Key_signature, 0, "major"
9, 38, Control_c, 4, 101, 0
9, 38, Control_c, 4, 100, 0
9, 38, Control_c, 4, 6, 12
9, 38, Control_c, 4, 38, 0
9, 39, Pitch_bend_c, 4, 8192
9, 56, Control_c, 4, 101, 0
9, 56, Control_c, 4, 100, 1
9, 56, Control_c, 4, 6, 64
9, 56, Control_c, 4, 38, 0
9, 77, Control_c, 4, 101, 0
9, 77, Control_c, 4, 100, 2
9, 77, Control_c, 4, 6, 64
9, 77, Control_c, 4, 38, 0
9, 96, Program_c, 4, 29
9, 96, Control_c, 4, 0, 0
9, 96, Control_c, 4, 93, 16
9, 96, Control_c, 4, 91, 88
9, 96, Control_c, 4, 92, 0
9, 96, Control_c, 4, 95, 0
9, 239, Note_on_c, 4, 67, 95
9, 239, Note_on_c, 4, 57, 95
9, 239, Note_on_c, 4, 52, 95
9, 244, Note_off_c, 4, 67, 0
9, 284, Note_off_c, 4, 57, 0
9, 284, Note_off_c, 4, 52, 0
9, 284, Note_on_c, 4, 50, 95
9, 284, Note_on_c, 4, 45, 95
9, 284, Note_on_c, 4, 40, 95
9, 289, Note_off_c, 4, 50, 0
9, 289, Note_off_c, 4, 45, 0
9, 289, Note_off_c, 4, 40, 0
9, 299, Note_on_c, 4, 64, 95
9, 359, Note_off_c, 4, 64, 0
9, 359, Note_on_c, 4, 69, 95
9, 389, Note_off_c, 4, 69, 0
9, 419, Note_on_c, 4, 71, 95
9, 449, Note_off_c, 4, 71, 0
9, 799, Note_on_c, 4, 74, 95
9, 879, Note_off_c, 4, 74, 0
9, 879, Note_on_c, 4, 76, 95
9, 959, Note_off_c, 4, 76, 0
9, 1139, Note_on_c, 4, 72, 95
9, 1199, Note_off_c, 4, 72, 0
9, 1199, Note_on_c, 4, 71, 95
9, 1319, Note_off_c, 4, 71, 0
9, 1319, Note_on_c, 4, 77, 95
9, 1439, Note_off_c, 4, 77, 0
9, 1679, Note_on_c, 4, 50, 95
9, 1684, Note_off_c, 4, 50, 0
9, 1684, Note_on_c, 4, 55, 95
9, 1689, Note_off_c, 4, 55, 0
9, 1689, Note_on_c, 4, 69, 95
9, 1759, Note_off_c, 4, 69, 0
9, 1759, Note_on_c, 4, 71, 95
9, 1839, Note_off_c, 4, 71, 0
9, 1839, Note_on_c, 4, 72, 95
9, 1919, Note_off_c, 4, 72, 0
9, 2039, Note_on_c, 4, 69, 95
9, 2159, Note_off_c, 4, 69, 0
9, 2159, Note_on_c, 4, 68, 95
9, 2279, Note_off_c, 4, 68, 0
9, 2639, Note_on_c, 4, 72, 95
9, 2719, Note_off_c, 4, 72, 0
9, 2719, Note_on_c, 4, 74, 95
9, 2799, Note_off_c, 4, 74, 0
9, 2799, Note_on_c, 4, 76, 95
9, 2879, Note_off_c, 4, 76, 0
9, 3059, Note_on_c, 4, 72, 95
9, 3119, Note_off_c, 4, 72, 0
9, 3119, Note_on_c, 4, 71, 95
9, 3239, Note_off_c, 4, 71, 0
9, 3239, Note_on_c, 4, 77, 95
9, 3359, Note_off_c, 4, 77, 0
9, 3599, Note_on_c, 4, 50, 95
9, 3604, Note_off_c, 4, 50, 0
9, 3604, Note_on_c, 4, 55, 95
9, 3609, Note_off_c, 4, 55, 0
9, 3609, Note_on_c, 4, 69, 95
9, 3679, Note_off_c, 4, 69, 0
9, 3679, Note_on_c, 4, 71, 95
9, 3759, Note_off_c, 4, 71, 0
9, 3759, Note_on_c, 4, 72, 95
9, 3839, Note_off_c, 4, 72, 0
9, 4079, Note_on_c, 4, 72, 95
9, 4199, Note_off_c, 4, 72, 0
9, 4199, Note_on_c, 4, 71, 76
9, 4319, Note_off_c, 4, 71, 0
9, 4319, Control_c, 4, 7, 98
9, 4319, Note_on_c, 4, 69, 76
9, 4349, Control_c, 4, 7, 92
9, 4379, Control_c, 4, 7, 86
9, 4409, Control_c, 4, 7, 80
9, 4439, Control_c, 4, 7, 73
9, 4469, Control_c, 4, 7, 67
9, 4499, Control_c, 4, 7, 61
9, 4529, Control_c, 4, 7, 55
9, 4559, Control_c, 4, 7, 49
9, 4589, Control_c, 4, 7, 43
9, 4619, Control_c, 4, 7, 37
9, 4649, Control_c, 4, 7, 31
9, 4679, Control_c, 4, 7, 24
9, 4709, Control_c, 4, 7, 18
9, 4739, Control_c, 4, 7, 12
9, 4769, Control_c, 4, 7, 6
9, 4799, Note_off_c, 4, 69, 0
9, 4799, Control_c, 4, 7, 0
9, 4799, Control_c, 4, 7, 80
9, 4799, Note_on_c, 4, 44, 50
9, 4804, Note_on_c, 4, 45, 50
9, 4809, Note_off_c, 4, 45, 0
9, 4809, Note_on_c, 4, 50, 50
9, 4814, Note_on_c, 4, 59, 50
9, 4819, Note_on_c, 4, 59, 50
9, 4824, Note_on_c, 4, 64, 50
9, 5279, Note_off_c, 4, 59, 0
9, 5279, Note_off_c, 4, 64, 0
9, 5279, Note_off_c, 4, 59, 0
9, 5279, Note_off_c, 4, 50, 0
9, 5279, Note_off_c, 4, 44, 0
9, 5279, Note_on_c, 4, 43, 50
9, 5284, Note_on_c, 4, 45, 50
9, 5289, Note_off_c, 4, 45, 0
9, 5289, Note_on_c, 4, 50, 50
9, 5294, Note_on_c, 4, 58, 50
9, 5299, Note_on_c, 4, 62, 50
9, 5304, Note_on_c, 4, 64, 50
9, 5759, Note_off_c, 4, 62, 0
9, 5759, Note_off_c, 4, 58, 0
9, 5759, Note_off_c, 4, 64, 0
9, 5759, Note_off_c, 4, 50, 0
9, 5759, Note_off_c, 4, 43, 0
9, 5759, Note_on_c, 4, 42, 50
9, 5764, Note_on_c, 4, 45, 50
9, 5769, Note_off_c, 4, 45, 0
9, 5769, Note_on_c, 4, 50, 50
9, 5774, Note_on_c, 4, 57, 50
9, 5779, Note_on_c, 4, 62, 50
9, 5784, Note_on_c, 4, 66, 50
9, 6119, Note_off_c, 4, 57, 0
9, 6119, Note_off_c, 4, 62, 0
9, 6119, Note_off_c, 4, 66, 0
9, 6119, Note_off_c, 4, 50, 0
9, 6119, Note_off_c, 4, 42, 0
9, 6219, Note_on_c, 4, 60, 95
9, 6239, Note_off_c, 4, 60, 0
9, 6239, Control_c, 4, 7, 75
9, 6239, Note_on_c, 4, 57, 95
9, 6269, Control_c, 4, 7, 71
9, 6299, Control_c, 4, 7, 66
9, 6329, Control_c, 4, 7, 61
9, 6359, Control_c, 4, 7, 56
9, 6389, Control_c, 4, 7, 52
9, 6419, Control_c, 4, 7, 47
9, 6449, Control_c, 4, 7, 42
9, 6479, Control_c, 4, 7, 38
9, 6509, Control_c, 4, 7, 33
9, 6539, Control_c, 4, 7, 28
9, 6569, Control_c, 4, 7, 24
9, 6599, Control_c, 4, 7, 19
9, 6629, Control_c, 4, 7, 14
9, 6659, Control_c, 4, 7, 9
9, 6689, Control_c, 4, 7, 5
9, 6719, Note_off_c, 4, 57, 0
9, 6719, Control_c, 4, 7, 0
9, 6719, Control_c, 4, 7, 80
9, 6719, Note_on_c, 4, 45, 50
9, 6724, Note_on_c, 4, 52, 50
9, 6729, Note_on_c, 4, 57, 50
9, 6734, Note_on_c, 4, 60, 50
9, 6739, Note_on_c, 4, 64, 50
9, 7184, Note_off_c, 4, 60, 0
9, 7184, Note_off_c, 4, 52, 0
9, 7199, Note_off_c, 4, 45, 0
9, 7199, Note_off_c, 4, 57, 0
9, 7199, Note_off_c, 4, 64, 0
9, 7199, Control_c, 4, 7, 75
9, 7229, Control_c, 4, 7, 71
9, 7259, Control_c, 4, 7, 66
9, 7289, Control_c, 4, 7, 61
9, 7319, Control_c, 4, 7, 56
9, 7349, Control_c, 4, 7, 52
9, 7379, Control_c, 4, 7, 47
9, 7409, Control_c, 4, 7, 42
9, 7439, Control_c, 4, 7, 38
9, 7469, Control_c, 4, 7, 33
9, 7499, Control_c, 4, 7, 28
9, 7529, Control_c, 4, 7, 24
9, 7559, Control_c, 4, 7, 19
9, 7589, Control_c, 4, 7, 14
9, 7619, Control_c, 4, 7, 9
9, 7649, Control_c, 4, 7, 5
9, 7679, Control_c, 4, 7, 0
9, 7679, Control_c, 4, 7, 80
9, 7679, Note_on_c, 4, 62, 95
9, 7679, Note_on_c, 4, 53, 95
9, 7919, Note_off_c, 4, 53, 0
9, 7919, Note_off_c, 4, 62, 0
9, 7979, Control_c, 4, 7, 88
9, 7979, Note_on_c, 4, 40, 95
9, 8039, Note_on_c, 4, 47, 95
9, 8099, Note_on_c, 4, 52, 95
9, 8159, Note_off_c, 4, 47, 0
9, 8159, Note_on_c, 4, 45, 95
9, 8219, Note_off_c, 4, 52, 0
9, 8219, Note_off_c, 4, 45, 0
9, 8219, Note_on_c, 4, 52, 95
9, 8279, Note_off_c, 4, 52, 0
9, 8279, Note_on_c, 4, 64, 95
9, 8339, Note_off_c, 4, 64, 0
9, 8339, Note_on_c, 4, 60, 95
9, 8399, Note_off_c, 4, 60, 0
9, 8399, Note_off_c, 4, 40, 0
9, 8399, Note_on_c, 4, 43, 95
9, 8459, Note_off_c, 4, 43, 0
9, 8459, Note_on_c, 4, 52, 95
9, 8519, Note_off_c, 4, 52, 0
9, 8519, Note_on_c, 4, 64, 95
9, 8579, Note_off_c, 4, 64, 0
9, 8579, Note_on_c, 4, 60, 95
9, 8639, Note_off_c, 4, 60, 0
9, 8639, Note_on_c, 4, 50, 95
9, 8699, Note_off_c, 4, 50, 0
9, 8699, Note_on_c, 4, 57, 95
9, 8759, Note_off_c, 4, 57, 0
9, 8759, Note_on_c, 4, 65, 95
9, 8819, Note_off_c, 4, 65, 0
9, 8819, Note_on_c, 4, 60, 95
9, 8879, Note_off_c, 4, 60, 0
9, 8879, Note_on_c, 4, 43, 95
9, 8939, Note_off_c, 4, 43, 0
9, 8939, Note_on_c, 4, 53, 95
9, 8999, Note_off_c, 4, 53, 0
9, 8999, Note_on_c, 4, 62, 95
9, 9059, Note_off_c, 4, 62, 0
9, 9059, Note_on_c, 4, 59, 95
9, 9119, Note_off_c, 4, 59, 0
9, 9119, Note_on_c, 4, 48, 95
9, 9179, Note_off_c, 4, 48, 0
9, 9179, Note_on_c, 4, 52, 95
9, 9239, Note_off_c, 4, 52, 0
9, 9239, Note_on_c, 4, 64, 95
9, 9299, Note_off_c, 4, 64, 0
9, 9299, Note_on_c, 4, 59, 95
9, 9359, Note_off_c, 4, 59, 0
9, 9359, Note_on_c, 4, 41, 95
9, 9419, Note_off_c, 4, 41, 0
9, 9419, Note_on_c, 4, 52, 95
9, 9479, Note_off_c, 4, 52, 0
9, 9479, Note_on_c, 4, 64, 95
9, 9539, Note_off_c, 4, 64, 0
9, 9539, Note_on_c, 4, 60, 95
9, 9599, Note_off_c, 4, 60, 0
9, 9599, Note_on_c, 4, 47, 95
9, 9659, Note_off_c, 4, 47, 0
9, 9659, Note_on_c, 4, 50, 95
9, 9719, Note_off_c, 4, 50, 0
9, 9719, Note_on_c, 4, 62, 95
9, 9779, Note_off_c, 4, 62, 0
9, 9779, Note_on_c, 4, 57, 95
9, 9839, Note_off_c, 4, 57, 0
9, 9839, Note_on_c, 4, 40, 95
9, 9899, Note_off_c, 4, 40, 0
9, 9899, Note_on_c, 4, 47, 95
9, 9959, Note_off_c, 4, 47, 0
9, 9959, Note_on_c, 4, 50, 95
9, 10019, Note_off_c, 4, 50, 0
9, 10019, Note_on_c, 4, 56, 95
9, 10079, Note_off_c, 4, 56, 0
9, 10079, Note_on_c, 4, 45, 95
9, 10139, Note_off_c, 4, 45, 0
9, 10139, Note_on_c, 4, 52, 95
9, 10199, Note_off_c, 4, 52, 0
9, 10199, Note_on_c, 4, 64, 95
9, 10259, Note_off_c, 4, 64, 0
9, 10259, Note_on_c, 4, 60, 95
9, 10319, Note_off_c, 4, 60, 0
9, 10319, Note_on_c, 4, 43, 95
9, 10379, Note_off_c, 4, 43, 0
9, 10379, Note_on_c, 4, 52, 95
9, 10439, Note_off_c, 4, 52, 0
9, 10439, Note_on_c, 4, 64, 95
9, 10499, Note_off_c, 4, 64, 0
9, 10499, Note_on_c, 4, 60, 95
9, 10559, Note_off_c, 4, 60, 0
9, 10559, Note_on_c, 4, 50, 95
9, 10619, Note_off_c, 4, 50, 0
9, 10619, Note_on_c, 4, 57, 95
9, 10679, Note_off_c, 4, 57, 0
9, 10679, Note_on_c, 4, 65, 95
9, 10739, Note_off_c, 4, 65, 0
9, 10739, Note_on_c, 4, 60, 95
9, 10799, Note_off_c, 4, 60, 0
9, 10799, Note_on_c, 4, 43, 95
9, 10859, Note_off_c, 4, 43, 0
9, 10859, Note_on_c, 4, 53, 95
9, 10919, Note_off_c, 4, 53, 0
9, 10919, Note_on_c, 4, 62, 95
9, 10979, Note_off_c, 4, 62, 0
9, 10979, Note_on_c, 4, 59, 95
9, 11039, Note_off_c, 4, 59, 0
9, 11039, Note_on_c, 4, 48, 95
9, 11099, Note_off_c, 4, 48, 0
9, 11099, Note_on_c, 4, 52, 95
9, 11159, Note_off_c, 4, 52, 0
9, 11159, Note_on_c, 4, 64, 95
9, 11219, Note_off_c, 4, 64, 0
9, 11219, Note_on_c, 4, 59, 95
9, 11279, Note_off_c, 4, 59, 0
9, 11279, Note_on_c, 4, 41, 95
9, 11339, Note_off_c, 4, 41, 0
9, 11339, Note_on_c, 4, 52, 95
9, 11399, Note_off_c, 4, 52, 0
9, 11399, Note_on_c, 4, 64, 95
9, 11459, Note_off_c, 4, 64, 0
9, 11459, Note_on_c, 4, 60, 95
9, 11519, Note_off_c, 4, 60, 0
9, 11519, Note_on_c, 4, 47, 95
9, 11579, Note_off_c, 4, 47, 0
9, 11579, Note_on_c, 4, 50, 95
9, 11639, Note_off_c, 4, 50, 0
9, 11639, Note_on_c, 4, 62, 95
9, 11699, Note_off_c, 4, 62, 0
9, 11699, Note_on_c, 4, 57, 95
9, 11759, Note_off_c, 4, 57, 0
9, 11759, Note_on_c, 4, 40, 95
9, 11819, Note_off_c, 4, 40, 0
9, 11819, Control_c, 4, 7, 104
9, 11819, Note_on_c, 4, 64, 95
9, 11879, Note_off_c, 4, 64, 0
9, 11879, Note_on_c, 4, 69, 95
9, 11939, Note_off_c, 4, 69, 0
9, 11939, Note_on_c, 4, 71, 95
9, 11999, Note_off_c, 4, 71, 0
9, 12319, Note_on_c, 4, 74, 95
9, 12399, Note_off_c, 4, 74, 0
9, 12399, Note_on_c, 4, 76, 95
9, 12479, Note_off_c, 4, 76, 0
9, 12659, Note_on_c, 4, 72, 95
9, 12719, Note_off_c, 4, 72, 0
9, 12719, Note_on_c, 4, 71, 95
9, 12839, Note_off_c, 4, 71, 0
9, 12839, Note_on_c, 4, 77, 95
9, 12959, Note_off_c, 4, 77, 0
9, 13199, Note_on_c, 4, 50, 95
9, 13204, Note_off_c, 4, 50, 0
9, 13204, Note_on_c, 4, 55, 95
9, 13209, Note_off_c, 4, 55, 0
9, 13209, Note_on_c, 4, 69, 95
9, 13279, Note_off_c, 4, 69, 0
9, 13279, Note_on_c, 4, 71, 95
9, 13359, Note_off_c, 4, 71, 0
9, 13359, Note_on_c, 4, 72, 95
9, 13439, Note_off_c, 4, 72, 0
9, 13679, Note_on_c, 4, 72, 95
9, 13799, Note_off_c, 4, 72, 0
9, 13799, Note_on_c, 4, 71, 76
9, 13919, Note_off_c, 4, 71, 0
9, 13919, Control_c, 4, 7, 98
9, 13919, Note_on_c, 4, 69, 76
9, 13949, Control_c, 4, 7, 92
9, 13979, Control_c, 4, 7, 86
9, 14009, Control_c, 4, 7, 80
9, 14039, Control_c, 4, 7, 73
9, 14069, Control_c, 4, 7, 67
9, 14099, Control_c, 4, 7, 61
9, 14129, Control_c, 4, 7, 55
9, 14159, Control_c, 4, 7, 49
9, 14189, Control_c, 4, 7, 43
9, 14219, Control_c, 4, 7, 37
9, 14249, Control_c, 4, 7, 31
9, 14279, Control_c, 4, 7, 24
9, 14309, Control_c, 4, 7, 18
9, 14339, Control_c, 4, 7, 12
9, 14369, Control_c, 4, 7, 6
9, 14399, Note_off_c, 4, 69, 0
9, 14399, Control_c, 4, 7, 0
9, 14399, Control_c, 4, 7, 80
9, 14399, Note_on_c, 4, 44, 50
9, 14404, Note_on_c, 4, 45, 50
9, 14409, Note_off_c, 4, 45, 0
9, 14409, Note_on_c, 4, 50, 50
9, 14414, Note_on_c, 4, 59, 50
9, 14419, Note_on_c, 4, 59, 50
9, 14424, Note_on_c, 4, 64, 50
9, 14639, Note_off_c, 4, 59, 0
9, 14639, Note_off_c, 4, 64, 0
9, 14639, Note_off_c, 4, 50, 0
9, 14639, Note_off_c, 4, 59, 0
9, 14639, Note_off_c, 4, 44, 0
9, 14859, Note_on_c, 4, 60, 95
9, 14879, Note_off_c, 4, 60, 0
9, 14879, Control_c, 4, 7, 75
9, 14909, Control_c, 4, 7, 71
9, 14939, Control_c, 4, 7, 66
9, 14969, Control_c, 4, 7, 61
9, 14999, Control_c, 4, 7, 56
9, 15029, Control_c, 4, 7, 52
9, 15059, Control_c, 4, 7, 47
9, 15089, Control_c, 4, 7, 42
9, 15119, Control_c, 4, 7, 38
9, 15149, Control_c, 4, 7, 33
9, 15179, Control_c, 4, 7, 28
9, 15209, Control_c, 4, 7, 24
9, 15239, Control_c, 4, 7, 19
9, 15269, Control_c, 4, 7, 14
9, 15299, Control_c, 4, 7, 9
9, 15329, Control_c, 4, 7, 5
9, 15359, Control_c, 4, 7, 0
9, 15359, Control_c, 4, 7, 80
9, 15819, Note_on_c, 4, 60, 95
9, 15839, Note_off_c, 4, 60, 0
9, 15839, Control_c, 4, 7, 75
9, 15839, Note_on_c, 4, 57, 95
9, 15869, Control_c, 4, 7, 71
9, 15899, Control_c, 4, 7, 66
9, 15929, Control_c, 4, 7, 61
9, 15959, Control_c, 4, 7, 56
9, 15989, Control_c, 4, 7, 52
9, 16019, Control_c, 4, 7, 47
9, 16049, Control_c, 4, 7, 42
9, 16079, Control_c, 4, 7, 38
9, 16109, Control_c, 4, 7, 33
9, 16139, Control_c, 4, 7, 28
9, 16169, Control_c, 4, 7, 24
9, 16199, Control_c, 4, 7, 19
9, 16229, Control_c, 4, 7, 14
9, 16259, Control_c, 4, 7, 9
9, 16289, Control_c, 4, 7, 5
9, 16304, Note_off_c, 4, 57, 0
9, 16319, Control_c, 4, 7, 0
9, 16319, Control_c, 4, 7, 80
9, 16799, Control_c, 4, 7, 75
9, 16829, Control_c, 4, 7, 71
9, 16859, Control_c, 4, 7, 66
9, 16889, Control_c, 4, 7, 61
9, 16919, Control_c, 4, 7, 56
9, 16949, Control_c, 4, 7, 52
9, 16979, Control_c, 4, 7, 47
9, 17009, Control_c, 4, 7, 42
9, 17039, Control_c, 4, 7, 38
9, 17069, Control_c, 4, 7, 33
9, 17099, Control_c, 4, 7, 28
9, 17129, Control_c, 4, 7, 24
9, 17159, Control_c, 4, 7, 19
9, 17189, Control_c, 4, 7, 14
9, 17219, Control_c, 4, 7, 9
9, 17249, Control_c, 4, 7, 5
9, 17279, Control_c, 4, 7, 0
9, 17279, Control_c, 4, 7, 80
9, 17279, Note_on_c, 4, 62, 95
9, 17279, Note_on_c, 4, 53, 95
9, 17519, Note_off_c, 4, 53, 0
9, 17519, Note_off_c, 4, 62, 0
9, 17579, Control_c, 4, 7, 88
9, 17579, Note_on_c, 4, 40, 95
9, 17639, Note_on_c, 4, 47, 95
9, 17699, Note_on_c, 4, 52, 95
9, 17759, Note_off_c, 4, 47, 0
9, 17759, Note_on_c, 4, 45, 95
9, 17819, Note_off_c, 4, 52, 0
9, 17819, Note_off_c, 4, 45, 0
9, 17819, Note_on_c, 4, 52, 95
9, 17879, Note_off_c, 4, 52, 0
9, 17879, Note_on_c, 4, 64, 95
9, 17939, Note_off_c, 4, 64, 0
9, 17939, Note_on_c, 4, 60, 95
9, 17999, Note_off_c, 4, 60, 0
9, 17999, Note_off_c, 4, 40, 0
9, 17999, Note_on_c, 4, 43, 95
9, 18059, Note_off_c, 4, 43, 0
9, 18059, Note_on_c, 4, 52, 95
9, 18119, Note_off_c, 4, 52, 0
9, 18119, Note_on_c, 4, 64, 95
9, 18179, Note_off_c, 4, 64, 0
9, 18179, Note_on_c, 4, 60, 95
9, 18239, Note_off_c, 4, 60, 0
9, 18239, Note_on_c, 4, 50, 95
9, 18299, Note_off_c, 4, 50, 0
9, 18299, Note_on_c, 4, 57, 95
9, 18359, Note_off_c, 4, 57, 0
9, 18359, Note_on_c, 4, 65, 95
9, 18419, Note_off_c, 4, 65, 0
9, 18419, Note_on_c, 4, 60, 95
9, 18479, Note_off_c, 4, 60, 0
9, 18479, Note_on_c, 4, 43, 95
9, 18539, Note_off_c, 4, 43, 0
9, 18539, Note_on_c, 4, 53, 95
9, 18599, Note_off_c, 4, 53, 0
9, 18599, Note_on_c, 4, 62, 95
9, 18659, Note_off_c, 4, 62, 0
9, 18659, Note_on_c, 4, 59, 95
9, 18719, Note_off_c, 4, 59, 0
9, 18719, Note_on_c, 4, 48, 95
9, 18779, Note_off_c, 4, 48, 0
9, 18779, Note_on_c, 4, 52, 95
9, 18839, Note_off_c, 4, 52, 0
9, 18839, Note_on_c, 4, 64, 95
9, 18899, Note_off_c, 4, 64, 0
9, 18899, Note_on_c, 4, 59, 95
9, 18959, Note_off_c, 4, 59, 0
9, 18959, Note_on_c, 4, 41, 95
9, 19019, Note_off_c, 4, 41, 0
9, 19019, Note_on_c, 4, 52, 95
9, 19079, Note_off_c, 4, 52, 0
9, 19079, Note_on_c, 4, 64, 95
9, 19139, Note_off_c, 4, 64, 0
9, 19139, Note_on_c, 4, 60, 95
9, 19199, Note_off_c, 4, 60, 0
9, 19199, Note_on_c, 4, 47, 95
9, 19259, Note_off_c, 4, 47, 0
9, 19259, Note_on_c, 4, 50, 95
9, 19319, Note_off_c, 4, 50, 0
9, 19319, Note_on_c, 4, 62, 95
9, 19379, Note_off_c, 4, 62, 0
9, 19379, Note_on_c, 4, 57, 95
9, 19439, Note_off_c, 4, 57, 0
9, 19439, Note_on_c, 4, 40, 95
9, 19499, Note_off_c, 4, 40, 0
9, 19499, Note_on_c, 4, 47, 95
9, 19559, Note_off_c, 4, 47, 0
9, 19559, Note_on_c, 4, 50, 95
9, 19619, Note_off_c, 4, 50, 0
9, 19619, Note_on_c, 4, 56, 95
9, 19679, Note_off_c, 4, 56, 0
9, 19679, Note_on_c, 4, 45, 95
9, 19739, Note_off_c, 4, 45, 0
9, 19739, Note_on_c, 4, 52, 95
9, 19799, Note_off_c, 4, 52, 0
9, 19799, Note_on_c, 4, 64, 95
9, 19859, Note_off_c, 4, 64, 0
9, 19859, Note_on_c, 4, 60, 95
9, 19919, Note_off_c, 4, 60, 0
9, 19919, Note_on_c, 4, 43, 95
9, 19979, Note_off_c, 4, 43, 0
9, 19979, Note_on_c, 4, 52, 95
9, 20039, Note_off_c, 4, 52, 0
9, 20039, Note_on_c, 4, 64, 95
9, 20099, Note_off_c, 4, 64, 0
9, 20099, Note_on_c, 4, 60, 95
9, 20159, Note_off_c, 4, 60, 0
9, 20159, Note_on_c, 4, 50, 95
9, 20219, Note_off_c, 4, 50, 0
9, 20219, Note_on_c, 4, 57, 95
9, 20279, Note_off_c, 4, 57, 0
9, 20279, Note_on_c, 4, 65, 95
9, 20339, Note_off_c, 4, 65, 0
9, 20339, Note_on_c, 4, 60, 95
9, 20399, Note_off_c, 4, 60, 0
9, 20399, Note_on_c, 4, 43, 95
9, 20459, Note_off_c, 4, 43, 0
9, 20459, Note_on_c, 4, 53, 95
9, 20519, Note_off_c, 4, 53, 0
9, 20519, Note_on_c, 4, 62, 95
9, 20579, Note_off_c, 4, 62, 0
9, 20579, Note_on_c, 4, 59, 95
9, 20639, Note_off_c, 4, 59, 0
9, 20639, Note_on_c, 4, 48, 95
9, 20699, Note_off_c, 4, 48, 0
9, 20699, Note_on_c, 4, 52, 95
9, 20759, Note_off_c, 4, 52, 0
9, 20759, Note_on_c, 4, 64, 95
9, 20819, Note_off_c, 4, 64, 0
9, 20819, Note_on_c, 4, 59, 95
9, 20879, Note_off_c, 4, 59, 0
9, 20879, Note_on_c, 4, 41, 95
9, 20939, Note_off_c, 4, 41, 0
9, 20939, Note_on_c, 4, 52, 95
9, 20999, Note_off_c, 4, 52, 0
9, 20999, Note_on_c, 4, 64, 95
9, 21059, Note_off_c, 4, 64, 0
9, 21059, Note_on_c, 4, 60, 95
9, 21119, Note_off_c, 4, 60, 0
9, 21119, Note_on_c, 4, 47, 95
9, 21179, Note_off_c, 4, 47, 0
9, 21179, Note_on_c, 4, 50, 95
9, 21239, Note_off_c, 4, 50, 0
9, 21239, Note_on_c, 4, 62, 95
9, 21299, Note_off_c, 4, 62, 0
9, 21299, Note_on_c, 4, 57, 95
9, 21359, Note_off_c, 4, 57, 0
9, 21359, Note_on_c, 4, 40, 95
9, 21419, Note_off_c, 4, 40, 0
9, 21419, Note_on_c, 4, 47, 95
9, 21464, Note_off_c, 4, 47, 0
9, 21479, Note_on_c, 4, 50, 95
9, 21539, Note_off_c, 4, 50, 0
9, 21539, Note_on_c, 4, 56, 95
9, 21599, Note_off_c, 4, 56, 0
9, 21599, Control_c, 4, 7, 104
9, 22799, Note_on_c, 4, 40, 95
9, 23039, Note_off_c, 4, 40, 0
9, 23039, Note_on_c, 4, 45, 95
9, 23249, Note_off_c, 4, 45, 0
9, 23279, Note_on_c, 4, 55, 95
9, 23309, Note_off_c, 4, 55, 0
9, 23309, Note_on_c, 4, 57, 95
9, 23339, Note_off_c, 4, 57, 0
9, 23339, Note_on_c, 4, 60, 95
9, 23369, Note_off_c, 4, 60, 0
9, 23369, Note_on_c, 4, 62, 95
9, 23399, Note_off_c, 4, 62, 0
9, 23439, Note_on_c, 4, 60, 95
9, 23444, Note_off_c, 4, 60, 0
9, 23459, Note_on_c, 4, 57, 95
9, 23519, Note_off_c, 4, 57, 0
9, 24959, Note_on_c, 4, 40, 95
9, 25019, Note_off_c, 4, 40, 0
9, 25019, Note_on_c, 4, 45, 95
9, 25019, Note_on_c, 4, 40, 95
9, 25024, Note_off_c, 4, 45, 0
9, 25079, Note_off_c, 4, 40, 0
9, 25079, Note_on_c, 4, 47, 95
9, 25079, Note_on_c, 4, 40, 95
9, 25139, Note_off_c, 4, 40, 0
9, 25139, Note_off_c, 4, 47, 0
9, 25139, Note_on_c, 4, 47, 95
9, 25139, Note_on_c, 4, 40, 95
9, 25199, Note_off_c, 4, 47, 0
9, 25199, Note_off_c, 4, 40, 0
9, 25199, Note_on_c, 4, 50, 95
9, 25199, Note_on_c, 4, 47, 95
9, 25199, Note_on_c, 4, 40, 95
9, 25204, Note_off_c, 4, 50, 0
9, 25259, Note_off_c, 4, 40, 0
9, 25259, Note_off_c, 4, 47, 0
9, 25319, Note_on_c, 4, 72, 95
9, 25379, Note_off_c, 4, 72, 0
9, 25379, Note_on_c, 4, 74, 95
9, 25439, Note_off_c, 4, 74, 0
9, 25679, Note_on_c, 4, 69, 95
9, 25859, Note_off_c, 4, 69, 0
9, 25859, Note_on_c, 4, 72, 95
9, 25919, Note_off_c, 4, 72, 0
9, 25919, Note_on_c, 4, 55, 95
9, 25919, Note_on_c, 4, 50, 95
9, 25924, Note_off_c, 4, 55, 0
9, 25924, Note_off_c, 4, 50, 0
9, 26119, Note_on_c, 4, 72, 95
9, 26159, Note_off_c, 4, 72, 0
9, 26399, Note_on_c, 4, 71, 50
9, 26444, Note_off_c, 4, 71, 0
9, 26444, Note_on_c, 4, 62, 95
9, 26459, Note_off_c, 4, 62, 0
9, 26519, Note_on_c, 4, 60, 95
9, 26579, Note_off_c, 4, 60, 0
9, 26579, Note_on_c, 4, 62, 95
9, 26639, Note_off_c, 4, 62, 0
9, 26639, Note_on_c, 4, 64, 95
9, 26729, Note_off_c, 4, 64, 0
9, 26729, Note_on_c, 4, 65, 76
9, 26744, Note_off_c, 4, 65, 0
9, 26744, Note_on_c, 4, 64, 76
9, 26759, Note_off_c, 4, 64, 0
9, 26759, Note_on_c, 4, 62, 95
9, 26819, Note_off_c, 4, 62, 0
9, 26819, Note_on_c, 4, 60, 76
9, 26879, Note_off_c, 4, 60, 0
9, 26879, Note_on_c, 4, 62, 95
9, 26984, Note_off_c, 4, 62, 0
9, 26999, Note_on_c, 4, 69, 95
9, 27059, Note_off_c, 4, 69, 0
9, 27059, Note_on_c, 4, 69, 95
9, 27179, Note_off_c, 4, 69, 0
9, 27179, Note_on_c, 4, 69, 95
9, 27179, Note_on_c, 4, 64, 95
9, 27209, Note_off_c, 4, 64, 0
9, 27209, Note_off_c, 4, 69, 0
9, 27209, Note_on_c, 4, 67, 95
9, 27239, Note_off_c, 4, 67, 0
9, 27239, Note_on_c, 4, 64, 95
9, 27254, Note_on_c, 4, 63, 95
9, 27269, Note_off_c, 4, 64, 0
9, 27269, Note_off_c, 4, 63, 0
9, 27269, Note_on_c, 4, 62, 76
9, 27299, Note_off_c, 4, 62, 0
9, 27299, Note_on_c, 4, 60, 95
9, 27329, Note_off_c, 4, 60, 0
9, 27329, Note_on_c, 4, 57, 95
9, 27359, Note_off_c, 4, 57, 0
9, 27419, Note_on_c, 4, 59, 95
9, 27419, Note_on_c, 4, 55, 95
9, 27424, Note_off_c, 4, 55, 0
9, 27424, Note_off_c, 4, 59, 0
9, 27519, Note_on_c, 4, 72, 95
9, 27559, Note_off_c, 4, 72, 0
9, 27629, Note_on_c, 4, 69, 95
9, 27659, Note_off_c, 4, 69, 0
9, 27674, Note_on_c, 4, 69, 95
9, 27689, Note_off_c, 4, 69, 0
9, 27689, Note_on_c, 4, 67, 95
9, 27704, Note_off_c, 4, 67, 0
9, 27704, Note_on_c, 4, 64, 76
9, 27719, Note_off_c, 4, 64, 0
9, 27734, Note_on_c, 4, 64, 95
9, 27749, Note_off_c, 4, 64, 0
9, 27749, Note_on_c, 4, 69, 95
9, 27764, Note_off_c, 4, 69, 0
9, 27764, Note_on_c, 4, 64, 95
9, 27779, Note_off_c, 4, 64, 0
9, 27779, Note_on_c, 4, 67, 76
9, 27794, Note_off_c, 4, 67, 0
9, 27794, Note_on_c, 4, 64, 76
9, 27809, Note_off_c, 4, 64, 0
9, 27809, Note_on_c, 4, 62, 95
9, 27824, Note_off_c, 4, 62, 0
9, 27824, Note_on_c, 4, 64, 95
9, 27839, Note_off_c, 4, 64, 0
9, 27839, Note_on_c, 4, 62, 95
9, 27844, Note_off_c, 4, 62, 0
9, 27844, Note_on_c, 4, 60, 76
9, 27849, Note_off_c, 4, 60, 0
9, 27849, Note_on_c, 4, 57, 95
9, 27854, Note_off_c, 4, 57, 0
9, 27854, Note_on_c, 4, 62, 95
9, 27869, Note_off_c, 4, 62, 0
9, 27869, Note_on_c, 4, 57, 95
9, 27884, Note_off_c, 4, 57, 0
9, 27884, Note_on_c, 4, 60, 95
9, 27892, Note_off_c, 4, 60, 0
9, 27892, Note_on_c, 4, 62, 95
9, 27900, Note_off_c, 4, 62, 0
9, 28039, Note_on_c, 4, 60, 95
9, 28059, Note_off_c, 4, 60, 0
9, 28059, Note_on_c, 4, 57, 95
9, 28079, Note_off_c, 4, 57, 0
9, 28079, Note_on_c, 4, 57, 95
9, 28199, Note_off_c, 4, 57, 0
9, 28199, Note_on_c, 4, 60, 95
9, 28259, Note_off_c, 4, 60, 0
9, 28259, Note_on_c, 4, 59, 95
9, 28259, Note_on_c, 4, 55, 95
9, 28304, Note_off_c, 4, 55, 0
9, 28319, Note_off_c, 4, 59, 0
9, 28499, Note_on_c, 4, 72, 95
9, 28544, Note_off_c, 4, 72, 0
9, 28544, Note_on_c, 4, 72, 95
9, 28559, Note_off_c, 4, 72, 0
9, 28559, Note_on_c, 4, 71, 76
9, 28679, Note_off_c, 4, 71, 0
9, 28679, Note_on_c, 4, 69, 95
9, 28769, Note_off_c, 4, 69, 0
9, 28769, Note_on_c, 4, 64, 95
9, 28774, Note_off_c, 4, 64, 0
9, 28784, Note_on_c, 4, 60, 95
9, 28799, Note_off_c, 4, 60, 0
9, 28799, Note_on_c, 4, 62, 76
9, 28799, Note_on_c, 4, 50, 95
9, 28799, Note_on_c, 4, 45, 95
9, 28804, Note_off_c, 4, 50, 0
9, 28804, Note_off_c, 4, 45, 0
9, 28919, Note_off_c, 4, 62, 0
9, 28919, Note_on_c, 4, 55, 95
9, 28919, Note_on_c, 4, 50, 95
9, 28924, Note_off_c, 4, 55, 0
9, 28924, Note_off_c, 4, 50, 0
9, 29039, Note_on_c, 4, 69, 95
9, 29159, Note_off_c, 4, 69, 0
9, 29159, Note_on_c, 4, 68, 95
9, 29264, Note_off_c, 4, 68, 0
9, 29279, Control_c, 4, 7, 102
9, 29309, Control_c, 4, 7, 100
9, 29339, Control_c, 4, 7, 99
9, 29369, Control_c, 4, 7, 97
9, 29399, Control_c, 4, 7, 95
9, 29429, Control_c, 4, 7, 93
9, 29459, Control_c, 4, 7, 92
9, 29489, Control_c, 4, 7, 90
9, 29519, Control_c, 4, 7, 88
9, 29519, Note_on_c, 4, 43, 95
9, 29579, Note_off_c, 4, 43, 0
9, 29579, Note_on_c, 4, 52, 95
9, 29639, Note_off_c, 4, 52, 0
9, 29639, Note_on_c, 4, 64, 95
9, 29699, Note_off_c, 4, 64, 0
9, 29699, Note_on_c, 4, 60, 95
9, 29759, Note_off_c, 4, 60, 0
9, 29759, Note_on_c, 4, 50, 95
9, 29819, Note_off_c, 4, 50, 0
9, 29819, Note_on_c, 4, 57, 95
9, 29879, Note_off_c, 4, 57, 0
9, 29879, Note_on_c, 4, 65, 95
9, 29939, Note_off_c, 4, 65, 0
9, 29939, Note_on_c, 4, 60, 95
9, 29999, Note_off_c, 4, 60, 0
9, 29999, Note_on_c, 4, 43, 95
9, 30059, Note_off_c, 4, 43, 0
9, 30059, Note_on_c, 4, 53, 95
9, 30119, Note_off_c, 4, 53, 0
9, 30119, Note_on_c, 4, 62, 95
9, 30179, Note_off_c, 4, 62, 0
9, 30179, Note_on_c, 4, 59, 95
9, 30239, Note_off_c, 4, 59, 0
9, 30239, Note_on_c, 4, 48, 95
9, 30299, Note_off_c, 4, 48, 0
9, 30299, Note_on_c, 4, 52, 95
9, 30359, Note_off_c, 4, 52, 0
9, 30359, Note_on_c, 4, 64, 95
9, 30419, Note_off_c, 4, 64, 0
9, 30419, Note_on_c, 4, 59, 95
9, 30479, Note_off_c, 4, 59, 0
9, 30479, Note_on_c, 4, 41, 95
9, 30539, Note_off_c, 4, 41, 0
9, 30539, Note_on_c, 4, 52, 95
9, 30599, Note_off_c, 4, 52, 0
9, 30599, Note_on_c, 4, 64, 95
9, 30659, Note_off_c, 4, 64, 0
9, 30659, Note_on_c, 4, 60, 95
9, 30719, Note_off_c, 4, 60, 0
9, 30719, Note_on_c, 4, 47, 95
9, 30779, Note_off_c, 4, 47, 0
9, 30779, Note_on_c, 4, 50, 95
9, 30839, Note_off_c, 4, 50, 0
9, 30839, Note_on_c, 4, 62, 95
9, 30899, Note_off_c, 4, 62, 0
9, 30899, Note_on_c, 4, 57, 95
9, 30959, Note_off_c, 4, 57, 0
9, 30959, Note_on_c, 4, 40, 95
9, 31019, Note_off_c, 4, 40, 0
9, 31019, Note_on_c, 4, 47, 95
9, 31079, Note_off_c, 4, 47, 0
9, 31079, Note_on_c, 4, 50, 95
9, 31139, Note_off_c, 4, 50, 0
9, 31139, Note_on_c, 4, 56, 95
9, 31199, Note_off_c, 4, 56, 0
9, 31199, Note_on_c, 4, 45, 95
9, 31259, Note_off_c, 4, 45, 0
9, 31259, Note_on_c, 4, 52, 95
9, 31319, Note_off_c, 4, 52, 0
9, 31319, Note_on_c, 4, 64, 95
9, 31379, Note_off_c, 4, 64, 0
9, 31379, Note_on_c, 4, 60, 95
9, 31439, Note_off_c, 4, 60, 0
9, 31439, Note_on_c, 4, 43, 95
9, 31499, Note_off_c, 4, 43, 0
9, 31499, Note_on_c, 4, 52, 95
9, 31559, Note_off_c, 4, 52, 0
9, 31559, Note_on_c, 4, 64, 95
9, 31619, Note_off_c, 4, 64, 0
9, 31619, Note_on_c, 4, 60, 95
9, 31679, Note_off_c, 4, 60, 0
9, 31679, Note_on_c, 4, 50, 95
9, 31739, Note_off_c, 4, 50, 0
9, 31739, Note_on_c, 4, 57, 95
9, 31799, Note_off_c, 4, 57, 0
9, 31799, Note_on_c, 4, 65, 95
9, 31859, Note_off_c, 4, 65, 0
9, 31859, Note_on_c, 4, 60, 95
9, 31919, Note_off_c, 4, 60, 0
9, 31919, Note_on_c, 4, 43, 95
9, 31979, Note_off_c, 4, 43, 0
9, 31979, Note_on_c, 4, 53, 95
9, 32039, Note_off_c, 4, 53, 0
9, 32039, Note_on_c, 4, 62, 95
9, 32099, Note_off_c, 4, 62, 0
9, 32099, Note_on_c, 4, 59, 95
9, 32159, Note_off_c, 4, 59, 0
9, 32159, Note_on_c, 4, 48, 95
9, 32219, Note_off_c, 4, 48, 0
9, 32219, Note_on_c, 4, 52, 95
9, 32279, Note_off_c, 4, 52, 0
9, 32279, Note_on_c, 4, 64, 95
9, 32339, Note_off_c, 4, 64, 0
9, 32339, Note_on_c, 4, 59, 95
9, 32399, Note_off_c, 4, 59, 0
9, 32399, Note_on_c, 4, 41, 95
9, 32459, Note_off_c, 4, 41, 0
9, 32459, Note_on_c, 4, 52, 95
9, 32519, Note_off_c, 4, 52, 0
9, 32519, Note_on_c, 4, 64, 95
9, 32579, Note_off_c, 4, 64, 0
9, 32579, Note_on_c, 4, 60, 95
9, 32639, Note_off_c, 4, 60, 0
9, 32639, Note_on_c, 4, 47, 95
9, 32699, Note_off_c, 4, 47, 0
9, 32699, Note_on_c, 4, 50, 95
9, 32759, Note_off_c, 4, 50, 0
9, 32759, Note_on_c, 4, 62, 95
9, 32819, Note_off_c, 4, 62, 0
9, 32819, Note_on_c, 4, 57, 95
9, 32879, Note_off_c, 4, 57, 0
9, 32879, Note_on_c, 4, 40, 95
9, 32939, Note_off_c, 4, 40, 0
9, 32939, Control_c, 4, 7, 104
9, 32939, Note_on_c, 4, 64, 95
9, 32999, Note_off_c, 4, 64, 0
9, 32999, Note_on_c, 4, 69, 95
9, 33059, Note_off_c, 4, 69, 0
9, 33059, Note_on_c, 4, 71, 95
9, 33119, Note_off_c, 4, 71, 0
9, 33439, Note_on_c, 4, 74, 95
9, 33519, Note_off_c, 4, 74, 0
9, 33519, Note_on_c, 4, 76, 95
9, 33599, Note_off_c, 4, 76, 0
9, 33599, Note_on_c, 4, 77, 95
9, 33839, Note_off_c, 4, 77, 0
9, 33839, Note_on_c, 4, 71, 95
9, 33929, Note_off_c, 4, 71, 0
9, 33929, Note_on_c, 4, 72, 95
9, 34019, Note_off_c, 4, 72, 0
9, 34019, Note_on_c, 4, 74, 95
9, 34079, Note_off_c, 4, 74, 0
9, 34079, Note_on_c, 4, 55, 95
9, 34079, Note_on_c, 4, 50, 95
9, 34084, Note_off_c, 4, 55, 0
9, 34084, Note_off_c, 4, 50, 0
9, 34799, Note_on_c, 4, 76, 50
9, 34844, Note_off_c, 4, 76, 0
9, 34844, Note_on_c, 4, 64, 95
9, 34859, Note_off_c, 4, 64, 0
9, 34859, Note_on_c, 4, 64, 95
9, 34919, Note_off_c, 4, 64, 0
9, 34919, Note_on_c, 4, 69, 95
9, 34979, Note_off_c, 4, 69, 0
9, 34979, Note_on_c, 4, 71, 95
9, 35039, Note_off_c, 4, 71, 0
9, 35369, Note_on_c, 4, 74, 95
9, 35459, Note_off_c, 4, 74, 0
9, 35459, Note_on_c, 4, 76, 95
9, 35519, Note_off_c, 4, 76, 0
9, 35519, Note_on_c, 4, 77, 95
9, 35759, Note_off_c, 4, 77, 0
9, 35759, Note_on_c, 4, 71, 95
9, 35849, Note_off_c, 4, 71, 0
9, 35849, Note_on_c, 4, 79, 95
9, 35939, Note_off_c, 4, 79, 0
9, 35939, Note_on_c, 4, 77, 95
9, 35999, Note_off_c, 4, 77, 0
9, 36719, Note_on_c, 4, 57, 95
9, 36719, Note_on_c, 4, 52, 95
9, 36764, Note_off_c, 4, 57, 0
9, 36764, Note_off_c, 4, 52, 0
9, 36764, Note_on_c, 4, 50, 95
9, 36764, Note_on_c, 4, 45, 95
9, 36779, Note_off_c, 4, 50, 0
9, 36779, Note_off_c, 4, 45, 0
9, 36839, Note_on_c, 4, 69, 95
9, 36899, Note_off_c, 4, 69, 0
9, 36899, Note_on_c, 4, 71, 95
9, 36959, Note_off_c, 4, 71, 0
9, 36959, Note_on_c, 4, 55, 95
9, 36962, Note_on_c, 4, 59, 95
9, 36964, Note_off_c, 4, 55, 0
9, 36967, Note_off_c, 4, 59, 0
9, 37199, Note_on_c, 4, 55, 95
9, 37202, Note_on_c, 4, 59, 95
9, 37204, Note_off_c, 4, 55, 0
9, 37207, Note_off_c, 4, 59, 0
9, 37439, Note_on_c, 4, 55, 95
9, 37442, Note_on_c, 4, 59, 95
9, 37444, Note_off_c, 4, 55, 0
9, 37447, Note_off_c, 4, 59, 0
9, 37679, Note_on_c, 4, 55, 95
9, 37682, Note_on_c, 4, 59, 95
9, 37684, Note_off_c, 4, 55, 0
9, 37687, Note_off_c, 4, 59, 0
9, 37739, Note_on_c, 4, 69, 95
9, 37747, Note_off_c, 4, 69, 0
9, 37747, Note_on_c, 4, 71, 76
9, 37754, Note_on_c, 4, 69, 76
9, 37755, Note_off_c, 4, 71, 0
9, 37799, Note_off_c, 4, 69, 0
9, 37799, Note_on_c, 4, 67, 95
9, 37859, Note_off_c, 4, 67, 0
9, 37859, Note_on_c, 4, 65, 95
9, 37919, Note_off_c, 4, 65, 0
9, 38039, Note_on_c, 4, 64, 95
9, 38159, Note_off_c, 4, 64, 0
9, 38159, Note_on_c, 4, 64, 95
9, 38399, Note_off_c, 4, 64, 0
9, 38399, Note_on_c, 4, 71, 95
9, 38419, Note_off_c, 4, 71, 0
9, 38419, Note_on_c, 4, 59, 76
9, 38439, Note_off_c, 4, 59, 0
9, 38439, Note_on_c, 4, 59, 95
9, 38459, Note_off_c, 4, 59, 0
9, 38459, Note_on_c, 4, 69, 95
9, 38479, Note_off_c, 4, 69, 0
9, 38479, Note_on_c, 4, 59, 76
9, 38499, Note_off_c, 4, 59, 0
9, 38499, Note_on_c, 4, 59, 95
9, 38519, Note_off_c, 4, 59, 0
9, 38519, Note_on_c, 4, 68, 95
9, 38539, Note_off_c, 4, 68, 0
9, 38539, Note_on_c, 4, 59, 76
9, 38559, Note_off_c, 4, 59, 0
9, 38559, Note_on_c, 4, 59, 95
9, 38579, Note_off_c, 4, 59, 0
9, 38579, Note_on_c, 4, 69, 95
9, 38599, Note_off_c, 4, 69, 0
9, 38599, Note_on_c, 4, 59, 76
9, 38619, Note_off_c, 4, 59, 0
9, 38619, Note_on_c, 4, 59, 95
9, 38639, Note_off_c, 4, 59, 0
9, 38639, Note_on_c, 4, 68, 95
9, 38659, Note_off_c, 4, 68, 0
9, 38659, Note_on_c, 4, 59, 76
9, 38679, Note_off_c, 4, 59, 0
9, 38679, Note_on_c, 4, 59, 95
9, 38699, Note_off_c, 4, 59, 0
9, 38699, Note_on_c, 4, 64, 95
9, 38719, Note_off_c, 4, 64, 0
9, 38719, Note_on_c, 4, 59, 76
9, 38739, Note_off_c, 4, 59, 0
9, 38739, Note_on_c, 4, 59, 95
9, 38759, Note_off_c, 4, 59, 0
9, 38759, Note_on_c, 4, 69, 95
9, 38779, Note_off_c, 4, 69, 0
9, 38779, Note_on_c, 4, 59, 76
9, 38799, Note_off_c, 4, 59, 0
9, 38799, Note_on_c, 4, 59, 95
9, 38819, Note_off_c, 4, 59, 0
9, 38819, Note_on_c, 4, 71, 95
9, 38839, Note_off_c, 4, 71, 0
9, 38839, Note_on_c, 4, 59, 76
9, 38859, Note_off_c, 4, 59, 0
9, 38859, Note_on_c, 4, 59, 95
9, 38879, Note_off_c, 4, 59, 0
9, 39119, Note_on_c, 4, 79, 95
9, 39139, Note_off_c, 4, 79, 0
9, 39139, Note_on_c, 4, 76, 76
9, 39159, Note_off_c, 4, 76, 0
9, 39159, Note_on_c, 4, 74, 95
9, 39179, Note_off_c, 4, 74, 0
9, 39179, Note_on_c, 4, 76, 95
9, 39199, Note_off_c, 4, 76, 0
9, 39199, Note_on_c, 4, 74, 95
9, 39219, Note_off_c, 4, 74, 0
9, 39219, Note_on_c, 4, 72, 76
9, 39239, Note_off_c, 4, 72, 0
9, 39239, Note_on_c, 4, 74, 95
9, 39259, Note_off_c, 4, 74, 0
9, 39259, Note_on_c, 4, 72, 76
9, 39279, Note_off_c, 4, 72, 0
9, 39279, Note_on_c, 4, 69, 95
9, 39299, Note_off_c, 4, 69, 0
9, 39299, Note_on_c, 4, 72, 95
9, 39319, Note_off_c, 4, 72, 0
9, 39319, Note_on_c, 4, 69, 95
9, 39339, Note_off_c, 4, 69, 0
9, 39339, Note_on_c, 4, 67, 76
9, 39359, Note_off_c, 4, 67, 0
9, 39419, Note_on_c, 4, 74, 95
9, 39599, Note_off_c, 4, 74, 0
9, 39719, Note_on_c, 4, 69, 95
9, 39759, Note_off_c, 4, 69, 0
9, 39759, Note_on_c, 4, 72, 95
9, 39799, Note_off_c, 4, 72, 0
9, 39799, Note_on_c, 4, 74, 95
9, 39839, Note_off_c, 4, 74, 0
9, 40019, Note_on_c, 4, 72, 95
9, 40079, Note_off_c, 4, 72, 0
9, 40079, Note_on_c, 4, 71, 95
9, 40139, Note_off_c, 4, 71, 0
9, 40139, Note_on_c, 4, 72, 95
9, 40259, Note_off_c, 4, 72, 0
9, 40259, Note_on_c, 4, 69, 95
9, 40319, Note_off_c, 4, 69, 0
9, 40424, Note_on_c, 4, 59, 95
9, 40429, Note_off_c, 4, 59, 0
9, 40439, Note_on_c, 4, 71, 95
9, 40499, Note_off_c, 4, 71, 0
9, 40499, Note_on_c, 4, 69, 95
9, 40559, Note_off_c, 4, 69, 0
9, 40559, Note_on_c, 4, 68, 95
9, 40604, Note_off_c, 4, 68, 0
9, 40604, Note_on_c, 4, 59, 95
9, 40609, Note_off_c, 4, 59, 0
9, 40679, Note_on_c, 4, 57, 95
9, 40739, Note_off_c, 4, 57, 0
9, 40739, Note_on_c, 4, 59, 95
9, 40799, Note_off_c, 4, 59, 0
9, 41039, Control_c, 4, 7, 96
9, 41069, Control_c, 4, 7, 88
9, 41099, Control_c, 4, 7, 80
9, 41129, Control_c, 4, 7, 72
9, 41159, Control_c, 4, 7, 64
9, 41189, Control_c, 4, 7, 56
9, 41219, Control_c, 4, 7, 48
9, 41249, Control_c, 4, 7, 40
9, 41279, Control_c, 4, 7, 32
9, 41309, Control_c, 4, 7, 24
9, 41339, Control_c, 4, 7, 16
9, 41369, Control_c, 4, 7, 8
9, 41399, Control_c, 4, 7, 0
9, 41399, End_track
10, 0, Start_track
10, 0, Sequencer_specific, 5, 5, 15, 9, 0, 64
10, 0, Sequencer_specific, 15, 5, 15, 6, 71, 101, 110, 101, 114, 97, 108, 32, 77, 73, 68, 73
10, 0, Title_t, "Track 10"
10, 0, Channel_prefix, 0
10, 0, Time_signature, 4, 2, 24, 8
10, 0, Key_signature, 0, "major"
10, 41, Control_c, 0, 101, 0
10, 41, Control_c, 0, 100, 0
10, 41, Control_c, 0, 6, 12
10, 41, Control_c, 0, 38, 0
10, 42, Pitch_bend_c, 0, 8192
10, 59, Control_c, 0, 101, 0
10, 59, Control_c, 0, 100, 1
10, 59, Control_c, 0, 6, 64
10, 59, Control_c, 0, 38, 0
10, 83, Control_c, 0, 101, 0
10, 83, Control_c, 0, 100, 2
10, 83, Control_c, 0, 6, 64
10, 83, Control_c, 0, 38, 0
10, 96, Program_c, 0, 25
10, 96, Control_c, 0, 0, 0
10, 96, Control_c, 0, 93, 0
10, 96, Control_c, 0, 91, 80
10, 96, Control_c, 0, 92, 0
10, 96, Control_c, 0, 95, 0
10, 479, Note_on_c, 0, 45, 95
10, 539, Note_on_c, 0, 52, 95
10, 599, Note_on_c, 0, 64, 95
10, 659, Note_on_c, 0, 60, 95
10, 719, Note_on_c, 0, 43, 95
10, 779, Note_off_c, 0, 52, 0
10, 779, Note_on_c, 0, 52, 95
10, 839, Note_off_c, 0, 64, 0
10, 839, Note_on_c, 0, 64, 95
10, 899, Note_off_c, 0, 60, 0
10, 899, Note_on_c, 0, 60, 95
10, 959, Note_off_c, 0, 52, 0
10, 959, Note_off_c, 0, 45, 0
10, 959, Note_on_c, 0, 50, 95
10, 1019, Note_on_c, 0, 57, 95
10, 1079, Note_off_c, 0, 64, 0
10, 1079, Note_on_c, 0, 65, 95
10, 1139, Note_off_c, 0, 60, 0
10, 1139, Note_on_c, 0, 60, 95
10, 1199, Note_off_c, 0, 43, 0
10, 1199, Note_on_c, 0, 43, 95
10, 1259, Note_off_c, 0, 50, 0
10, 1259, Note_on_c, 0, 53, 95
10, 1319, Note_off_c, 0, 60, 0
10, 1319, Note_on_c, 0, 62, 95
10, 1379, Note_off_c, 0, 57, 0
10, 1379, Note_on_c, 0, 59, 95
10, 1439, Note_on_c, 0, 48, 95
10, 1499, Note_off_c, 0, 53, 0
10, 1499, Note_on_c, 0, 52, 95
10, 1559, Note_off_c, 0, 65, 0
10, 1559, Note_on_c, 0, 64, 95
10, 1619, Note_off_c, 0, 62, 0
10, 1619, Note_on_c, 0, 59, 95
10, 1679, Note_off_c, 0, 43, 0
10, 1679, Note_on_c, 0, 41, 95
10, 1739, Note_off_c, 0, 52, 0
10, 1739, Note_on_c, 0, 52, 95
10, 1799, Note_off_c, 0, 64, 0
10, 1799, Note_on_c, 0, 64, 95
10, 1859, Note_off_c, 0, 59, 0
10, 1859, Note_off_c, 0, 59, 0
10, 1859, Note_on_c, 0, 60, 95
10, 1919, Note_off_c, 0, 48, 0
10, 1919, Note_on_c, 0, 47, 95
10, 1979, Note_off_c, 0, 52, 0
10, 1979, Note_on_c, 0, 50, 95
10, 2039, Note_off_c, 0, 60, 0
10, 2039, Note_on_c, 0, 62, 95
10, 2099, Note_on_c, 0, 57, 95
10, 2159, Note_off_c, 0, 41, 0
10, 2159, Note_on_c, 0, 40, 95
10, 2219, Note_off_c, 0, 47, 0
10, 2219, Note_on_c, 0, 47, 95
10, 2279, Note_off_c, 0, 50, 0
10, 2279, Note_off_c, 0, 64, 0
10, 2279, Note_on_c, 0, 50, 95
10, 2339, Note_off_c, 0, 57, 0
10, 2339, Note_on_c, 0, 56, 95
10, 2399, Note_off_c, 0, 47, 0
10, 2399, Note_on_c, 0, 45, 95
10, 2459, Note_off_c, 0, 50, 0
10, 2459, Note_on_c, 0, 52, 95
10, 2519, Note_off_c, 0, 62, 0
10, 2519, Note_on_c, 0, 64, 95
10, 2579, Note_on_c, 0, 60, 95
10, 2639, Note_off_c, 0, 40, 0
10, 2639, Note_on_c, 0, 43, 95
10, 2699, Note_off_c, 0, 52, 0
10, 2699, Note_on_c, 0, 52, 95
10, 2759, Note_off_c, 0, 64, 0
10, 2759, Note_on_c, 0, 64, 95
10, 2819, Note_off_c, 0, 56, 0
10, 2819, Note_off_c, 0, 60, 0
10, 2819, Note_on_c, 0, 60, 95
10, 2879, Note_off_c, 0, 52, 0
10, 2879, Note_off_c, 0, 45, 0
10, 2879, Note_on_c, 0, 50, 95
10, 2939, Note_on_c, 0, 57, 95
10, 2999, Note_off_c, 0, 64, 0
10, 2999, Note_on_c, 0, 65, 95
10, 3059, Note_off_c, 0, 60, 0
10, 3059, Note_on_c, 0, 60, 95
10, 3119, Note_off_c, 0, 43, 0
10, 3119, Note_on_c, 0, 43, 95
10, 3179, Note_off_c, 0, 50, 0
10, 3179, Note_on_c, 0, 53, 95
10, 3239, Note_off_c, 0, 60, 0
10, 3239, Note_on_c, 0, 62, 95
10, 3299, Note_off_c, 0, 57, 0
10, 3299, Note_on_c, 0, 59, 95
10, 3359, Note_on_c, 0, 48, 95
10, 3419, Note_off_c, 0, 53, 0
10, 3419, Note_on_c, 0, 52, 95
10, 3479, Note_off_c, 0, 65, 0
10, 3479, Note_on_c, 0, 64, 95
10, 3539, Note_off_c, 0, 62, 0
10, 3539, Note_on_c, 0, 59, 95
10, 3599, Note_off_c, 0, 43, 0
10, 3599, Note_on_c, 0, 41, 95
10, 3659, Note_off_c, 0, 52, 0
10, 3659, Note_on_c, 0, 52, 95
10, 3719, Note_off_c, 0, 64, 0
10, 3719, Note_on_c, 0, 64, 95
10, 3779, Note_off_c, 0, 59, 0
10, 3779, Note_off_c, 0, 59, 0
10, 3779, Note_on_c, 0, 60, 95
10, 3839, Note_off_c, 0, 48, 0
10, 3839, Note_on_c, 0, 47, 95
10, 3899, Note_off_c, 0, 52, 0
10, 3899, Note_on_c, 0, 50, 95
10, 3959, Note_off_c, 0, 60, 0
10, 3959, Note_on_c, 0, 62, 95
10, 4019, Note_on_c, 0, 57, 95
10, 4079, Note_off_c, 0, 41, 0
10, 4079, Note_on_c, 0, 40, 95
10, 4139, Note_off_c, 0, 47, 0
10, 4139, Note_on_c, 0, 47, 95
10, 4199, Note_off_c, 0, 50, 0
10, 4199, Note_off_c, 0, 64, 0
10, 4199, Note_on_c, 0, 50, 95
10, 4259, Note_off_c, 0, 57, 0
10, 4259, Note_on_c, 0, 56, 95
10, 4319, Note_off_c, 0, 56, 0
10, 4319, Note_off_c, 0, 62, 0
10, 4319, Note_off_c, 0, 50, 0
10, 4319, Note_off_c, 0, 47, 0
10, 4319, Note_on_c, 0, 45, 95
10, 4329, Note_on_c, 0, 52, 95
10, 4339, Note_on_c, 0, 57, 95
10, 4349, Note_on_c, 0, 60, 95
10, 4359, Note_on_c, 0, 64, 95
10, 4799, Note_off_c, 0, 60, 0
10, 4799, Note_off_c, 0, 64, 0
10, 4799, Note_off_c, 0, 57, 0
10, 4799, Note_off_c, 0, 52, 0
10, 4799, Note_off_c, 0, 45, 0
10, 4799, Note_off_c, 0, 40, 0
10, 7184, Note_on_c, 0, 61, 95
10, 7184, Note_on_c, 0, 52, 95
10, 7199, Note_off_c, 0, 61, 0
10, 7199, Note_off_c, 0, 52, 0
10, 7199, Note_on_c, 0, 63, 95
10, 7199, Note_on_c, 0, 54, 95
10, 7679, Note_off_c, 0, 63, 0
10, 7679, Note_off_c, 0, 54, 0
10, 7679, Note_on_c, 0, 62, 95
10, 7679, Note_on_c, 0, 53, 95
10, 7799, Note_off_c, 0, 53, 0
10, 7799, Note_off_c, 0, 62, 0
10, 7859, Note_on_c, 0, 40, 95
10, 8039, Note_on_c, 0, 47, 95
10, 8099, Note_on_c, 0, 52, 95
10, 8159, Note_off_c, 0, 47, 0
10, 8159, Note_on_c, 0, 45, 95
10, 8219, Note_off_c, 0, 52, 0
10, 8219, Note_on_c, 0, 52, 95
10, 8279, Note_on_c, 0, 64, 95
10, 8339, Note_off_c, 0, 40, 0
10, 8339, Note_on_c, 0, 60, 95
10, 8399, Note_on_c, 0, 43, 95
10, 8459, Note_off_c, 0, 52, 0
10, 8459, Note_on_c, 0, 52, 95
10, 8519, Note_off_c, 0, 64, 0
10, 8519, Note_on_c, 0, 64, 95
10, 8579, Note_off_c, 0, 60, 0
10, 8579, Note_on_c, 0, 60, 95
10, 8639, Note_off_c, 0, 52, 0
10, 8639, Note_off_c, 0, 45, 0
10, 8639, Note_on_c, 0, 50, 95
10, 8699, Note_on_c, 0, 57, 95
10, 8759, Note_off_c, 0, 64, 0
10, 8759, Note_on_c, 0, 65, 95
10, 8819, Note_off_c, 0, 60, 0
10, 8819, Note_on_c, 0, 60, 95
10, 8879, Note_off_c, 0, 43, 0
10, 8879, Note_on_c, 0, 43, 95
10, 8939, Note_off_c, 0, 50, 0
10, 8939, Note_on_c, 0, 53, 95
10, 8999, Note_off_c, 0, 60, 0
10, 8999, Note_on_c, 0, 62, 95
10, 9059, Note_off_c, 0, 57, 0
10, 9059, Note_on_c, 0, 59, 95
10, 9119, Note_on_c, 0, 48, 95
10, 9179, Note_off_c, 0, 53, 0
10, 9179, Note_on_c, 0, 52, 95
10, 9239, Note_off_c, 0, 65, 0
10, 9239, Note_on_c, 0, 64, 95
10, 9299, Note_off_c, 0, 62, 0
10, 9299, Note_on_c, 0, 59, 95
10, 9359, Note_off_c, 0, 43, 0
10, 9359, Note_on_c, 0, 41, 95
10, 9419, Note_off_c, 0, 52, 0
10, 9419, Note_on_c, 0, 52, 95
10, 9479, Note_off_c, 0, 64, 0
10, 9479, Note_on_c, 0, 64, 95
10, 9539, Note_off_c, 0, 59, 0
10, 9539, Note_off_c, 0, 59, 0
10, 9539, Note_on_c, 0, 60, 95
10, 9599, Note_off_c, 0, 48, 0
10, 9599, Note_on_c, 0, 47, 95
10, 9659, Note_off_c, 0, 52, 0
10, 9659, Note_on_c, 0, 50, 95
10, 9719, Note_off_c, 0, 60, 0
10, 9719, Note_on_c, 0, 62, 95
10, 9779, Note_on_c, 0, 57, 95
10, 9839, Note_off_c, 0, 41, 0
10, 9839, Note_on_c, 0, 40, 95
10, 9899, Note_off_c, 0, 47, 0
10, 9899, Note_on_c, 0, 47, 95
10, 9959, Note_off_c, 0, 50, 0
10, 9959, Note_off_c, 0, 64, 0
10, 9959, Note_on_c, 0, 50, 95
10, 10019, Note_off_c, 0, 57, 0
10, 10019, Note_on_c, 0, 56, 95
10, 10079, Note_off_c, 0, 47, 0
10, 10079, Note_on_c, 0, 45, 95
10, 10139, Note_off_c, 0, 50, 0
10, 10139, Note_on_c, 0, 52, 95
10, 10199, Note_off_c, 0, 62, 0
10, 10199, Note_on_c, 0, 64, 95
10, 10259, Note_on_c, 0, 60, 95
10, 10319, Note_off_c, 0, 40, 0
10, 10319, Note_on_c, 0, 43, 95
10, 10379, Note_off_c, 0, 52, 0
10, 10379, Note_on_c, 0, 52, 95
10, 10439, Note_off_c, 0, 64, 0
10, 10439, Note_on_c, 0, 64, 95
10, 10499, Note_off_c, 0, 60, 0
10, 10499, Note_off_c, 0, 56, 0
10, 10499, Note_on_c, 0, 60, 95
10, 10559, Note_off_c, 0, 52, 0
10, 10559, Note_off_c, 0, 45, 0
10, 10559, Note_on_c, 0, 50, 95
10, 10619, Note_on_c, 0, 57, 95
10, 10679, Note_off_c, 0, 64, 0
10, 10679, Note_on_c, 0, 65, 95
10, 10739, Note_off_c, 0, 60, 0
10, 10739, Note_on_c, 0, 60, 95
10, 10799, Note_off_c, 0, 43, 0
10, 10799, Note_on_c, 0, 43, 95
10, 10859, Note_off_c, 0, 50, 0
10, 10859, Note_on_c, 0, 53, 95
10, 10919, Note_off_c, 0, 60, 0
10, 10919, Note_on_c, 0, 62, 95
10, 10979, Note_off_c, 0, 57, 0
10, 10979, Note_on_c, 0, 59, 95
10, 11039, Note_on_c, 0, 48, 95
10, 11099, Note_off_c, 0, 53, 0
10, 11099, Note_on_c, 0, 52, 95
10, 11159, Note_off_c, 0, 65, 0
10, 11159, Note_on_c, 0, 64, 95
10, 11219, Note_off_c, 0, 62, 0
10, 11219, Note_on_c, 0, 59, 95
10, 11279, Note_off_c, 0, 43, 0
10, 11279, Note_on_c, 0, 41, 95
10, 11339, Note_off_c, 0, 52, 0
10, 11339, Note_on_c, 0, 52, 95
10, 11399, Note_off_c, 0, 64, 0
10, 11399, Note_on_c, 0, 64, 95
10, 11459, Note_off_c, 0, 59, 0
10, 11459, Note_off_c, 0, 59, 0
10, 11459, Note_on_c, 0, 60, 95
10, 11519, Note_off_c, 0, 48, 0
10, 11519, Note_on_c, 0, 47, 95
10, 11579, Note_off_c, 0, 52, 0
10, 11579, Note_on_c, 0, 50, 95
10, 11639, Note_off_c, 0, 60, 0
10, 11639, Note_on_c, 0, 62, 95
10, 11699, Note_on_c, 0, 57, 95
10, 11759, Note_off_c, 0, 41, 0
10, 11759, Note_on_c, 0, 40, 95
10, 11819, Note_off_c, 0, 47, 0
10, 11819, Note_on_c, 0, 47, 95
10, 11879, Note_off_c, 0, 64, 0
10, 11879, Note_off_c, 0, 50, 0
10, 11879, Note_on_c, 0, 50, 95
10, 11939, Note_off_c, 0, 57, 0
10, 11939, Note_on_c, 0, 56, 95
10, 11999, Note_off_c, 0, 47, 0
10, 11999, Note_on_c, 0, 45, 95
10, 12059, Note_off_c, 0, 50, 0
10, 12059, Note_on_c, 0, 52, 95
10, 12119, Note_off_c, 0, 62, 0
10, 12119, Note_on_c, 0, 64, 95
10, 12179, Note_on_c, 0, 60, 95
10, 12239, Note_off_c, 0, 40, 0
10, 12239, Note_on_c, 0, 43, 95
10, 12299, Note_off_c, 0, 52, 0
10, 12299, Note_on_c, 0, 52, 95
10, 12359, Note_off_c, 0, 64, 0
10, 12359, Note_on_c, 0, 64, 95
10, 12419, Note_off_c, 0, 56, 0
10, 12419, Note_off_c, 0, 60, 0
10, 12419, Note_on_c, 0, 60, 95
10, 12479, Note_off_c, 0, 45, 0
10, 12479, Note_off_c, 0, 52, 0
10, 12479, Note_on_c, 0, 50, 95
10, 12539, Note_on_c, 0, 57, 95
10, 12599, Note_off_c, 0, 64, 0
10, 12599, Note_on_c, 0, 65, 95
10, 12659, Note_off_c, 0, 60, 0
10, 12659, Note_on_c, 0, 60, 95
10, 12719, Note_off_c, 0, 43, 0
10, 12719, Note_on_c, 0, 43, 95
10, 12779, Note_off_c, 0, 50, 0
10, 12779, Note_on_c, 0, 53, 95
10, 12839, Note_off_c, 0, 60, 0
10, 12839, Note_on_c, 0, 62, 95
10, 12899, Note_off_c, 0, 57, 0
10, 12899, Note_on_c, 0, 59, 95
10, 12959, Note_on_c, 0, 48, 95
10, 13019, Note_off_c, 0, 53, 0
10, 13019, Note_on_c, 0, 52, 95
10, 13079, Note_off_c, 0, 65, 0
10, 13079, Note_on_c, 0, 64, 95
10, 13139, Note_off_c, 0, 62, 0
10, 13139, Note_on_c, 0, 59, 95
10, 13199, Note_off_c, 0, 43, 0
10, 13199, Note_on_c, 0, 41, 95
10, 13259, Note_off_c, 0, 52, 0
10, 13259, Note_on_c, 0, 52, 95
10, 13319, Note_off_c, 0, 64, 0
10, 13319, Note_on_c, 0, 64, 95
10, 13379, Note_off_c, 0, 59, 0
10, 13379, Note_off_c, 0, 59, 0
10, 13379, Note_on_c, 0, 60, 95
10, 13439, Note_off_c, 0, 48, 0
10, 13439, Note_on_c, 0, 47, 95
10, 13499, Note_off_c, 0, 52, 0
10, 13499, Note_on_c, 0, 50, 95
10, 13559, Note_off_c, 0, 60, 0
10, 13559, Note_on_c, 0, 62, 95
10, 13619, Note_on_c, 0, 57, 95
10, 13679, Note_off_c, 0, 41, 0
10, 13679, Note_on_c, 0, 40, 95
10, 13739, Note_off_c, 0, 47, 0
10, 13739, Note_on_c, 0, 47, 95
10, 13799, Note_off_c, 0, 50, 0
10, 13799, Note_off_c, 0, 64, 0
10, 13799, Note_on_c, 0, 50, 95
10, 13859, Note_off_c, 0, 57, 0
10, 13859, Note_on_c, 0, 56, 95
10, 13919, Note_off_c, 0, 62, 0
10, 13919, Note_off_c, 0, 47, 0
10, 13919, Note_off_c, 0, 50, 0
10, 13919, Note_off_c, 0, 56, 0
10, 13919, Note_on_c, 0, 45, 95
10, 13929, Note_on_c, 0, 52, 95
10, 13939, Note_on_c, 0, 57, 95
10, 13949, Note_on_c, 0, 60, 95
10, 13959, Note_on_c, 0, 64, 95
10, 14399, Note_off_c, 0, 60, 0
10, 14399, Note_off_c, 0, 57, 0
10, 14399, Note_off_c, 0, 40, 0
10, 14399, Note_off_c, 0, 52, 0
10, 14399, Note_off_c, 0, 64, 0
10, 14399, Note_off_c, 0, 45, 0
10, 16784, Note_on_c, 0, 61, 95
10, 16784, Note_on_c, 0, 52, 95
10, 16799, Note_off_c, 0, 61, 0
10, 16799, Note_off_c, 0, 52, 0
10, 16799, Note_on_c, 0, 63, 95
10, 16799, Note_on_c, 0, 54, 95
10, 17279, Note_off_c, 0, 63, 0
10, 17279, Note_off_c, 0, 54, 0
10, 17279, Note_on_c, 0, 62, 95
10, 17279, Note_on_c, 0, 53, 95
10, 17399, Note_off_c, 0, 53, 0
10, 17399, Note_off_c, 0, 62, 0
10, 17459, Note_on_c, 0, 40, 95
10, 17639, Note_on_c, 0, 47, 95
10, 17699, Note_on_c, 0, 52, 95
10, 17759, Note_off_c, 0, 47, 0
10, 17759, Note_on_c, 0, 45, 95
10, 17819, Note_off_c, 0, 52, 0
10, 17819, Note_on_c, 0, 52, 95
10, 17879, Note_on_c, 0, 64, 95
10, 17939, Note_off_c, 0, 40, 0
10, 17939, Note_on_c, 0, 60, 95
10, 17999, Note_on_c, 0, 43, 95
10, 18059, Note_off_c, 0, 52, 0
10, 18059, Note_on_c, 0, 52, 95
10, 18119, Note_off_c, 0, 64, 0
10, 18119, Note_on_c, 0, 64, 95
10, 18179, Note_off_c, 0, 60, 0
10, 18179, Note_on_c, 0, 60, 95
10, 18239, Note_off_c, 0, 52, 0
10, 18239, Note_off_c, 0, 45, 0
10, 18239, Note_on_c, 0, 50, 95
10, 18299, Note_on_c, 0, 57, 95
10, 18359, Note_off_c, 0, 64, 0
10, 18359, Note_on_c, 0, 65, 95
10, 18419, Note_off_c, 0, 60, 0
10, 18419, Note_on_c, 0, 60, 95
10, 18479, Note_off_c, 0, 43, 0
10, 18479, Note_on_c, 0, 43, 95
10, 18539, Note_off_c, 0, 50, 0
10, 18539, Note_on_c, 0, 53, 95
10, 18599, Note_off_c, 0, 60, 0
10, 18599, Note_on_c, 0, 62, 95
10, 18659, Note_off_c, 0, 57, 0
10, 18659, Note_on_c, 0, 59, 95
10, 18719, Note_on_c, 0, 48, 95
10, 18779, Note_off_c, 0, 53, 0
10, 18779, Note_on_c, 0, 52, 95
10, 18839, Note_off_c, 0, 65, 0
10, 18839, Note_on_c, 0, 64, 95
10, 18899, Note_off_c, 0, 62, 0
10, 18899, Note_on_c, 0, 59, 95
10, 18959, Note_off_c, 0, 43, 0
10, 18959, Note_on_c, 0, 41, 95
10, 19019, Note_off_c, 0, 52, 0
10, 19019, Note_on_c, 0, 52, 95
10, 19079, Note_off_c, 0, 64, 0
10, 19079, Note_on_c, 0, 64, 95
10, 19139, Note_off_c, 0, 59, 0
10, 19139, Note_off_c, 0, 59, 0
10, 19139, Note_on_c, 0, 60, 95
10, 19199, Note_off_c, 0, 48, 0
10, 19199, Note_on_c, 0, 47, 95
10, 19259, Note_off_c, 0, 52, 0
10, 19259, Note_on_c, 0, 50, 95
10, 19319, Note_off_c, 0, 60, 0
10, 19319, Note_on_c, 0, 62, 95
10, 19379, Note_on_c, 0, 57, 95
10, 19439, Note_off_c, 0, 41, 0
10, 19439, Note_on_c, 0, 40, 95
10, 19499, Note_off_c, 0, 47, 0
10, 19499, Note_on_c, 0, 47, 95
10, 19559, Note_off_c, 0, 50, 0
10, 19559, Note_off_c, 0, 64, 0
10, 19559, Note_on_c, 0, 50, 95
10, 19619, Note_off_c, 0, 57, 0
10, 19619, Note_on_c, 0, 56, 95
10, 19679, Note_off_c, 0, 47, 0
10, 19679, Note_on_c, 0, 45, 95
10, 19739, Note_off_c, 0, 50, 0
10, 19739, Note_on_c, 0, 52, 95
10, 19799, Note_off_c, 0, 62, 0
10, 19799, Note_on_c, 0, 64, 95
10, 19859, Note_on_c, 0, 60, 95
10, 19919, Note_off_c, 0, 40, 0
10, 19919, Note_on_c, 0, 43, 95
10, 19979, Note_off_c, 0, 52, 0
10, 19979, Note_on_c, 0, 52, 95
10, 20039, Note_off_c, 0, 64, 0
10, 20039, Note_on_c, 0, 64, 95
10, 20099, Note_off_c, 0, 60, 0
10, 20099, Note_off_c, 0, 56, 0
10, 20099, Note_on_c, 0, 60, 95
10, 20159, Note_off_c, 0, 52, 0
10, 20159, Note_off_c, 0, 45, 0
10, 20159, Note_on_c, 0, 50, 95
10, 20219, Note_on_c, 0, 57, 95
10, 20279, Note_off_c, 0, 64, 0
10, 20279, Note_on_c, 0, 65, 95
10, 20339, Note_off_c, 0, 60, 0
10, 20339, Note_on_c, 0, 60, 95
10, 20399, Note_off_c, 0, 43, 0
10, 20399, Note_on_c, 0, 43, 95
10, 20459, Note_off_c, 0, 50, 0
10, 20459, Note_on_c, 0, 53, 95
10, 20519, Note_off_c, 0, 60, 0
10, 20519, Note_on_c, 0, 62, 95
10, 20579, Note_off_c, 0, 57, 0
10, 20579, Note_on_c, 0, 59, 95
10, 20639, Note_on_c, 0, 48, 95
10, 20699, Note_off_c, 0, 53, 0
10, 20699, Note_on_c, 0, 52, 95
10, 20759, Note_off_c, 0, 65, 0
10, 20759, Note_on_c, 0, 64, 95
10, 20819, Note_off_c, 0, 62, 0
10, 20819, Note_on_c, 0, 59, 95
10, 20879, Note_off_c, 0, 43, 0
10, 20879, Note_on_c, 0, 41, 95
10, 20939, Note_off_c, 0, 52, 0
10, 20939, Note_on_c, 0, 52, 95
10, 20999, Note_off_c, 0, 64, 0
10, 20999, Note_on_c, 0, 64, 95
10, 21059, Note_off_c, 0, 59, 0
10, 21059, Note_off_c, 0, 59, 0
10, 21059, Note_on_c, 0, 60, 95
10, 21119, Note_off_c, 0, 48, 0
10, 21119, Note_on_c, 0, 47, 95
10, 21179, Note_off_c, 0, 52, 0
10, 21179, Note_on_c, 0, 50, 95
10, 21239, Note_off_c, 0, 60, 0
10, 21239, Note_on_c, 0, 62, 95
10, 21299, Note_on_c, 0, 57, 95
10, 21359, Note_off_c, 0, 41, 0
10, 21359, Note_on_c, 0, 40, 95
10, 21584, Note_off_c, 0, 47, 0
10, 21584, Note_on_c, 0, 48, 95
10, 21599, Note_off_c, 0, 64, 0
10, 21599, Note_off_c, 0, 48, 0
10, 21599, Note_on_c, 0, 50, 95
10, 22079, Note_off_c, 0, 50, 0
10, 22079, Note_off_c, 0, 40, 0
10, 22079, Note_off_c, 0, 62, 0
10, 22079, Note_off_c, 0, 50, 0
10, 22079, Note_off_c, 0, 57, 0
10, 22079, Note_on_c, 0, 48, 95
10, 22559, Note_off_c, 0, 48, 0
10, 22559, Note_on_c, 0, 47, 95
10, 22799, Note_off_c, 0, 47, 0
10, 22799, Note_on_c, 0, 40, 95
10, 23039, Note_off_c, 0, 40, 0
10, 23039, Note_on_c, 0, 45, 95
10, 23504, Note_on_c, 0, 60, 95
10, 23519, Note_off_c, 0, 45, 0
10, 23519, Note_off_c, 0, 60, 0
10, 23519, Note_on_c, 0, 62, 95
10, 23999, Note_off_c, 0, 62, 0
10, 23999, Note_on_c, 0, 60, 95
10, 24464, Note_off_c, 0, 60, 0
10, 24464, Note_on_c, 0, 57, 95
10, 24479, Note_off_c, 0, 57, 0
10, 24479, Note_on_c, 0, 59, 95
10, 24959, Note_off_c, 0, 59, 0
10, 24959, Note_on_c, 0, 40, 95
10, 25019, Note_off_c, 0, 40, 0
10, 25019, Note_on_c, 0, 47, 95
10, 25019, Note_on_c, 0, 40, 95
10, 25079, Note_off_c, 0, 40, 0
10, 25079, Note_off_c, 0, 47, 0
10, 25079, Note_on_c, 0, 47, 95
10, 25079, Note_on_c, 0, 40, 95
10, 25139, Note_off_c, 0, 47, 0
10, 25139, Note_off_c, 0, 40, 0
10, 25139, Note_on_c, 0, 47, 95
10, 25139, Note_on_c, 0, 40, 95
10, 25199, Note_off_c, 0, 47, 0
10, 25199, Note_off_c, 0, 40, 0
10, 25199, Note_on_c, 0, 47, 95
10, 25199, Note_on_c, 0, 40, 95
10, 25439, Note_off_c, 0, 40, 0
10, 25439, Note_off_c, 0, 47, 0
10, 29279, Note_on_c, 0, 45, 95
10, 29339, Note_on_c, 0, 52, 95
10, 29399, Note_on_c, 0, 64, 95
10, 29459, Note_on_c, 0, 60, 95
10, 29519, Note_on_c, 0, 43, 95
10, 29579, Note_off_c, 0, 52, 0
10, 29579, Note_on_c, 0, 52, 95
10, 29639, Note_off_c, 0, 64, 0
10, 29639, Note_on_c, 0, 64, 95
10, 29699, Note_off_c, 0, 60, 0
10, 29699, Note_on_c, 0, 60, 95
10, 29759, Note_off_c, 0, 52, 0
10, 29759, Note_off_c, 0, 45, 0
10, 29759, Note_on_c, 0, 50, 95
10, 29819, Note_on_c, 0, 57, 95
10, 29879, Note_off_c, 0, 64, 0
10, 29879, Note_on_c, 0, 65, 95
10, 29939, Note_off_c, 0, 60, 0
10, 29939, Note_on_c, 0, 60, 95
10, 29999, Note_off_c, 0, 43, 0
10, 29999, Note_on_c, 0, 43, 95
10, 30059, Note_off_c, 0, 50, 0
10, 30059, Note_on_c, 0, 53, 95
10, 30119, Note_off_c, 0, 60, 0
10, 30119, Note_on_c, 0, 62, 95
10, 30179, Note_off_c, 0, 57, 0
10, 30179, Note_on_c, 0, 59, 95
10, 30239, Note_on_c, 0, 48, 95
10, 30299, Note_off_c, 0, 53, 0
10, 30299, Note_on_c, 0, 52, 95
10, 30359, Note_off_c, 0, 65, 0
10, 30359, Note_on_c, 0, 64, 95
10, 30419, Note_off_c, 0, 62, 0
10, 30419, Note_on_c, 0, 59, 95
10, 30479, Note_off_c, 0, 43, 0
10, 30479, Note_on_c, 0, 41, 95
10, 30539, Note_off_c, 0, 52, 0
10, 30539, Note_on_c, 0, 52, 95
10, 30599, Note_off_c, 0, 64, 0
10, 30599, Note_on_c, 0, 64, 95
10, 30659, Note_off_c, 0, 59, 0
10, 30659, Note_off_c, 0, 59, 0
10, 30659, Note_on_c, 0, 60, 95
10, 30719, Note_off_c, 0, 48, 0
10, 30719, Note_on_c, 0, 47, 95
10, 30779, Note_off_c, 0, 52, 0
10, 30779, Note_on_c, 0, 50, 95
10, 30839, Note_off_c, 0, 60, 0
10, 30839, Note_on_c, 0, 62, 95
10, 30899, Note_on_c, 0, 57, 95
10, 30959, Note_off_c, 0, 41, 0
10, 30959, Note_on_c, 0, 40, 95
10, 31019, Note_off_c, 0, 47, 0
10, 31019, Note_on_c, 0, 47, 95
10, 31079, Note_off_c, 0, 50, 0
10, 31079, Note_off_c, 0, 64, 0
10, 31079, Note_on_c, 0, 50, 95
10, 31139, Note_off_c, 0, 57, 0
10, 31139, Note_on_c, 0, 56, 95
10, 31199, Note_off_c, 0, 47, 0
10, 31199, Note_on_c, 0, 45, 95
10, 31259, Note_off_c, 0, 50, 0
10, 31259, Note_on_c, 0, 52, 95
10, 31319, Note_off_c, 0, 62, 0
10, 31319, Note_on_c, 0, 64, 95
10, 31379, Note_on_c, 0, 60, 95
10, 31439, Note_off_c, 0, 40, 0
10, 31439, Note_on_c, 0, 43, 95
10, 31499, Note_off_c, 0, 52, 0
10, 31499, Note_on_c, 0, 52, 95
10, 31559, Note_off_c, 0, 64, 0
10, 31559, Note_on_c, 0, 64, 95
10, 31619, Note_off_c, 0, 60, 0
10, 31619, Note_off_c, 0, 56, 0
10, 31619, Note_on_c, 0, 60, 95
10, 31679, Note_off_c, 0, 52, 0
10, 31679, Note_off_c, 0, 45, 0
10, 31679, Note_on_c, 0, 50, 95
10, 31739, Note_on_c, 0, 57, 95
10, 31799, Note_off_c, 0, 64, 0
10, 31799, Note_on_c, 0, 65, 95
10, 31859, Note_off_c, 0, 60, 0
10, 31859, Note_on_c, 0, 60, 95
10, 31919, Note_off_c, 0, 43, 0
10, 31919, Note_on_c, 0, 43, 95
10, 31979, Note_off_c, 0, 50, 0
10, 31979, Note_on_c, 0, 53, 95
10, 32039, Note_off_c, 0, 60, 0
10, 32039, Note_on_c, 0, 62, 95
10, 32099, Note_off_c, 0, 57, 0
10, 32099, Note_on_c, 0, 59, 95
10, 32159, Note_on_c, 0, 48, 95
10, 32219, Note_off_c, 0, 53, 0
10, 32219, Note_on_c, 0, 52, 95
10, 32279, Note_off_c, 0, 65, 0
10, 32279, Note_on_c, 0, 64, 95
10, 32339, Note_off_c, 0, 62, 0
10, 32339, Note_on_c, 0, 59, 95
10, 32399, Note_off_c, 0, 43, 0
10, 32399, Note_on_c, 0, 41, 95
10, 32459, Note_off_c, 0, 52, 0
10, 32459, Note_on_c, 0, 52, 95
10, 32519, Note_off_c, 0, 64, 0
10, 32519, Note_on_c, 0, 64, 95
10, 32579, Note_off_c, 0, 59, 0
10, 32579, Note_off_c, 0, 59, 0
10, 32579, Note_on_c, 0, 60, 95
10, 32639, Note_off_c, 0, 48, 0
10, 32639, Note_on_c, 0, 47, 95
10, 32699, Note_off_c, 0, 52, 0
10, 32699, Note_on_c, 0, 50, 95
10, 32759, Note_off_c, 0, 60, 0
10, 32759, Note_on_c, 0, 62, 95
10, 32819, Note_on_c, 0, 57, 95
10, 32879, Note_off_c, 0, 41, 0
10, 32879, Note_on_c, 0, 40, 95
10, 33119, Note_off_c, 0, 47, 0
10, 33119, Note_off_c, 0, 64, 0
10, 33119, Note_on_c, 0, 45, 95
10, 33179, Note_off_c, 0, 50, 0
10, 33179, Note_on_c, 0, 52, 95
10, 33239, Note_off_c, 0, 62, 0
10, 33239, Note_on_c, 0, 64, 95
10, 33299, Note_off_c, 0, 57, 0
10, 33299, Note_on_c, 0, 60, 95
10, 33359, Note_off_c, 0, 40, 0
10, 33359, Note_on_c, 0, 43, 95
10, 33419, Note_off_c, 0, 52, 0
10, 33419, Note_on_c, 0, 52, 95
10, 33479, Note_off_c, 0, 64, 0
10, 33479, Note_on_c, 0, 64, 95
10, 33539, Note_off_c, 0, 60, 0
10, 33539, Note_on_c, 0, 60, 95
10, 33599, Note_off_c, 0, 52, 0
10, 33599, Note_off_c, 0, 45, 0
10, 33599, Note_on_c, 0, 50, 95
10, 33659, Note_on_c, 0, 57, 95
10, 33719, Note_off_c, 0, 64, 0
10, 33719, Note_on_c, 0, 65, 95
10, 33779, Note_off_c, 0, 60, 0
10, 33779, Note_on_c, 0, 60, 95
10, 33839, Note_off_c, 0, 43, 0
10, 33839, Note_on_c, 0, 43, 95
10, 33899, Note_off_c, 0, 50, 0
10, 33899, Note_on_c, 0, 53, 95
10, 33959, Note_off_c, 0, 60, 0
10, 33959, Note_on_c, 0, 62, 95
10, 34019, Note_off_c, 0, 57, 0
10, 34019, Note_on_c, 0, 59, 95
10, 34079, Note_on_c, 0, 48, 95
10, 34139, Note_off_c, 0, 53, 0
10, 34139, Note_on_c, 0, 52, 95
10, 34199, Note_off_c, 0, 65, 0
10, 34199, Note_on_c, 0, 64, 95
10, 34259, Note_off_c, 0, 62, 0
10, 34259, Note_on_c, 0, 59, 95
10, 34319, Note_off_c, 0, 43, 0
10, 34319, Note_on_c, 0, 41, 95
10, 34379, Note_off_c, 0, 52, 0
10, 34379, Note_on_c, 0, 52, 95
10, 34439, Note_off_c, 0, 64, 0
10, 34439, Note_on_c, 0, 64, 95
10, 34499, Note_off_c, 0, 59, 0
10, 34499, Note_off_c, 0, 59, 0
10, 34499, Note_on_c, 0, 60, 95
10, 34559, Note_off_c, 0, 48, 0
10, 34559, Note_on_c, 0, 47, 95
10, 34619, Note_off_c, 0, 52, 0
10, 34619, Note_on_c, 0, 50, 95
10, 34679, Note_off_c, 0, 60, 0
10, 34679, Note_on_c, 0, 62, 95
10, 34739, Note_on_c, 0, 57, 95
10, 34799, Note_off_c, 0, 41, 0
10, 34799, Note_on_c, 0, 40, 95
10, 34859, Note_off_c, 0, 47, 0
10, 34859, Note_on_c, 0, 47, 95
10, 34919, Note_off_c, 0, 50, 0
10, 34919, Note_off_c, 0, 64, 0
10, 34919, Note_on_c, 0, 50, 95
10, 34979, Note_off_c, 0, 57, 0
10, 34979, Note_on_c, 0, 56, 95
10, 35039, Note_off_c, 0, 47, 0
10, 35039, Note_on_c, 0, 45, 95
10, 35099, Note_off_c, 0, 50, 0
10, 35099, Note_on_c, 0, 52, 95
10, 35159, Note_off_c, 0, 62, 0
10, 35159, Note_on_c, 0, 64, 95
10, 35219, Note_on_c, 0, 60, 95
10, 35279, Note_off_c, 0, 40, 0
10, 35279, Note_on_c, 0, 43, 95
10, 35339, Note_off_c, 0, 52, 0
10, 35339, Note_on_c, 0, 52, 95
10, 35399, Note_off_c, 0, 64, 0
10, 35399, Note_on_c, 0, 64, 95
10, 35459, Note_off_c, 0, 60, 0
10, 35459, Note_off_c, 0, 56, 0
10, 35459, Note_on_c, 0, 60, 95
10, 35519, Note_off_c, 0, 52, 0
10, 35519, Note_off_c, 0, 45, 0
10, 35519, Note_on_c, 0, 50, 95
10, 35579, Note_on_c, 0, 57, 95
10, 35639, Note_off_c, 0, 64, 0
10, 35639, Note_on_c, 0, 65, 95
10, 35699, Note_off_c, 0, 60, 0
10, 35699, Note_on_c, 0, 60, 95
10, 35759, Note_off_c, 0, 43, 0
10, 35759, Note_on_c, 0, 43, 95
10, 35819, Note_off_c, 0, 50, 0
10, 35819, Note_on_c, 0, 53, 95
10, 35879, Note_off_c, 0, 60, 0
10, 35879, Note_on_c, 0, 62, 95
10, 35939, Note_off_c, 0, 57, 0
10, 35939, Note_on_c, 0, 59, 95
10, 35999, Note_on_c, 0, 48, 95
10, 36059, Note_off_c, 0, 53, 0
10, 36059, Note_on_c, 0, 52, 95
10, 36119, Note_off_c, 0, 65, 0
10, 36119, Note_on_c, 0, 64, 95
10, 36179, Note_off_c, 0, 62, 0
10, 36179, Note_on_c, 0, 59, 95
10, 36239, Note_off_c, 0, 43, 0
10, 36239, Note_on_c, 0, 41, 95
10, 36299, Note_off_c, 0, 52, 0
10, 36299, Note_on_c, 0, 52, 95
10, 36359, Note_off_c, 0, 64, 0
10, 36359, Note_on_c, 0, 64, 95
10, 36419, Note_off_c, 0, 59, 0
10, 36419, Note_off_c, 0, 59, 0
10, 36419, Note_on_c, 0, 60, 95
10, 36479, Note_off_c, 0, 48, 0
10, 36479, Note_on_c, 0, 47, 95
10, 36539, Note_off_c, 0, 52, 0
10, 36539, Note_on_c, 0, 50, 95
10, 36599, Note_off_c, 0, 60, 0
10, 36599, Note_on_c, 0, 62, 95
10, 36659, Note_on_c, 0, 57, 95
10, 36719, Note_off_c, 0, 41, 0
10, 36719, Note_on_c, 0, 40, 95
10, 36959, Note_off_c, 0, 64, 0
10, 36959, Note_off_c, 0, 47, 0
10, 36959, Note_on_c, 0, 45, 95
10, 37019, Note_off_c, 0, 50, 0
10, 37019, Note_on_c, 0, 52, 95
10, 37079, Note_off_c, 0, 62, 0
10, 37079, Note_on_c, 0, 64, 95
10, 37139, Note_off_c, 0, 57, 0
10, 37139, Note_on_c, 0, 60, 95
10, 37199, Note_off_c, 0, 40, 0
10, 37199, Note_on_c, 0, 43, 95
10, 37259, Note_off_c, 0, 52, 0
10, 37259, Note_on_c, 0, 52, 95
10, 37319, Note_off_c, 0, 64, 0
10, 37319, Note_on_c, 0, 64, 95
10, 37379, Note_off_c, 0, 60, 0
10, 37379, Note_on_c, 0, 60, 95
10, 37439, Note_off_c, 0, 52, 0
10, 37439, Note_off_c, 0, 45, 0
10, 37439, Note_on_c, 0, 50, 95
10, 37499, Note_on_c, 0, 57, 95
10, 37559, Note_off_c, 0, 64, 0
10, 37559, Note_on_c, 0, 65, 95
10, 37619, Note_off_c, 0, 60, 0
10, 37619, Note_on_c, 0, 60, 95
10, 37679, Note_off_c, 0, 43, 0
10, 37679, Note_on_c, 0, 43, 95
10, 37739, Note_off_c, 0, 50, 0
10, 37739, Note_on_c, 0, 53, 95
10, 37799, Note_off_c, 0, 60, 0
10, 37799, Note_on_c, 0, 62, 95
10, 37859, Note_off_c, 0, 57, 0
10, 37859, Note_on_c, 0, 59, 95
10, 37919, Note_on_c, 0, 48, 95
10, 37979, Note_off_c, 0, 53, 0
10, 37979, Note_on_c, 0, 52, 95
10, 38039, Note_off_c, 0, 65, 0
10, 38039, Note_on_c, 0, 64, 95
10, 38099, Note_off_c, 0, 62, 0
10, 38099, Note_on_c, 0, 59, 95
10, 38159, Note_off_c, 0, 43, 0
10, 38159, Note_on_c, 0, 41, 95
10, 38219, Note_off_c, 0, 52, 0
10, 38219, Note_on_c, 0, 52, 95
10, 38279, Note_off_c, 0, 64, 0
10, 38279, Note_on_c, 0, 64, 95
10, 38339, Note_off_c, 0, 59, 0
10, 38339, Note_off_c, 0, 59, 0
10, 38339, Note_on_c, 0, 60, 95
10, 38399, Note_off_c, 0, 48, 0
10, 38399, Note_on_c, 0, 47, 95
10, 38459, Note_off_c, 0, 52, 0
10, 38459, Note_on_c, 0, 50, 95
10, 38519, Note_off_c, 0, 60, 0
10, 38519, Note_on_c, 0, 62, 95
10, 38579, Note_on_c, 0, 57, 95
10, 38639, Note_off_c, 0, 41, 0
10, 38639, Note_on_c, 0, 40, 95
10, 38699, Note_off_c, 0, 47, 0
10, 38699, Note_on_c, 0, 47, 95
10, 38759, Note_off_c, 0, 64, 0
10, 38759, Note_off_c, 0, 50, 0
10, 38759, Note_on_c, 0, 50, 95
10, 38819, Note_off_c, 0, 57, 0
10, 38819, Note_on_c, 0, 56, 95
10, 38879, Note_off_c, 0, 47, 0
10, 38879, Note_on_c, 0, 45, 95
10, 38939, Note_off_c, 0, 50, 0
10, 38939, Note_on_c, 0, 52, 95
10, 38999, Note_off_c, 0, 62, 0
10, 38999, Note_on_c, 0, 64, 95
10, 39059, Note_on_c, 0, 60, 95
10, 39119, Note_off_c, 0, 40, 0
10, 39119, Note_on_c, 0, 43, 95
10, 39179, Note_off_c, 0, 52, 0
10, 39179, Note_on_c, 0, 52, 95
10, 39239, Note_off_c, 0, 64, 0
10, 39239, Note_on_c, 0, 64, 95
10, 39299, Note_off_c, 0, 56, 0
10, 39299, Note_off_c, 0, 60, 0
10, 39299, Note_on_c, 0, 60, 95
10, 39359, Note_off_c, 0, 45, 0
10, 39359, Note_off_c, 0, 52, 0
10, 39359, Note_on_c, 0, 50, 95
10, 39419, Note_on_c, 0, 57, 95
10, 39479, Note_off_c, 0, 64, 0
10, 39479, Note_on_c, 0, 65, 95
10, 39539, Note_off_c, 0, 60, 0
10, 39539, Note_on_c, 0, 60, 95
10, 39599, Note_off_c, 0, 43, 0
10, 39599, Note_on_c, 0, 43, 95
10, 39659, Note_off_c, 0, 50, 0
10, 39659, Note_on_c, 0, 53, 95
10, 39719, Note_off_c, 0, 60, 0
10, 39719, Note_on_c, 0, 62, 95
10, 39779, Note_off_c, 0, 57, 0
10, 39779, Note_on_c, 0, 59, 95
10, 39839, Note_on_c, 0, 48, 95
10, 39899, Note_off_c, 0, 53, 0
10, 39899, Note_on_c, 0, 52, 95
10, 39959, Note_off_c, 0, 65, 0
10, 39959, Note_on_c, 0, 64, 95
10, 40019, Note_off_c, 0, 62, 0
10, 40019, Note_on_c, 0, 59, 95
10, 40079, Note_off_c, 0, 43, 0
10, 40079, Note_on_c, 0, 41, 95
10, 40139, Note_off_c, 0, 52, 0
10, 40139, Note_on_c, 0, 52, 95
10, 40199, Note_off_c, 0, 64, 0
10, 40199, Note_on_c, 0, 64, 95
10, 40259, Note_off_c, 0, 59, 0
10, 40259, Note_off_c, 0, 59, 0
10, 40259, Note_on_c, 0, 60, 95
10, 40319, Note_off_c, 0, 48, 0
10, 40319, Note_on_c, 0, 47, 95
10, 40379, Note_off_c, 0, 52, 0
10, 40379, Note_on_c, 0, 50, 95
10, 40439, Note_off_c, 0, 60, 0
10, 40439, Note_on_c, 0, 62, 95
10, 40499, Note_on_c, 0, 57, 95
10, 40559, Note_off_c, 0, 41, 0
10, 40559, Note_on_c, 0, 40, 95
10, 40799, Note_off_c, 0, 50, 0
10, 40799, Note_off_c, 0, 47, 0
10, 40799, Note_off_c, 0, 57, 0
10, 40799, Note_off_c, 0, 64, 0
10, 40799, Note_off_c, 0, 62, 0
10, 40799, Note_on_c, 0, 45, 95
10, 40809, Note_on_c, 0, 52, 95
10, 40819, Note_on_c, 0, 57, 95
10, 40829, Note_on_c, 0, 60, 95
10, 40839, Note_on_c, 0, 64, 95
10, 41039, Note_off_c, 0, 57, 0
10, 41039, Note_off_c, 0, 60, 0
10, 41039, Note_off_c, 0, 45, 0
10, 41039, Note_off_c, 0, 40, 0
10, 41039, Note_off_c, 0, 52, 0
10, 41039, Note_off_c, 0, 64, 0
10, 41039, End_track
11, 0, Start_track
11, 0, Sequencer_specific, 5, 5, 15, 9, 0, 64
11, 0, Sequencer_specific, 15, 5, 15, 6, 71, 101, 110, 101, 114, 97, 108, 32, 77, 73, 68, 73
11, 0, Title_t, "Track 11"
11, 0, Channel_prefix, 6
11, 0, Time_signature, 4, 2, 24, 8
11, 0, Key_signature, 0, "major"
11, 44, Control_c, 6, 101, 0
11, 44, Control_c, 6, 100, 0
11, 44, Control_c, 6, 6, 12
11, 44, Control_c, 6, 38, 0
11, 45, Pitch_bend_c, 6, 8192
11, 62, Control_c, 6, 101, 0
11, 62, Control_c, 6, 100, 1
11, 62, Control_c, 6, 6, 64
11, 62, Control_c, 6, 38, 0
11, 89, Control_c, 6, 101, 0
11, 89, Control_c, 6, 100, 2
11, 89, Control_c, 6, 6, 64
11, 89, Control_c, 6, 38, 0
11, 96, Program_c, 6, 52
11, 96, Control_c, 6, 0, 0
11, 96, Control_c, 6, 93, 0
11, 96, Control_c, 6, 91, 40
11, 96, Control_c, 6, 92, 0
11, 96, Control_c, 6, 95, 0
11, 479, Note_on_c, 6, 64, 95
11, 479, Note_on_c, 6, 60, 95
11, 479, Note_on_c, 6, 57, 95
11, 479, Note_on_c, 6, 52, 95
11, 479, Note_on_c, 6, 45, 95
11, 719, Note_off_c, 6, 60, 0
11, 719, Note_off_c, 6, 57, 0
11, 719, Note_off_c, 6, 45, 0
11, 719, Note_off_c, 6, 64, 0
11, 719, Note_off_c, 6, 52, 0
11, 719, Note_on_c, 6, 64, 95
11, 719, Note_on_c, 6, 60, 95
11, 719, Note_on_c, 6, 55, 95
11, 719, Note_on_c, 6, 52, 95
11, 719, Note_on_c, 6, 43, 95
11, 959, Note_off_c, 6, 52, 0
11, 959, Note_off_c, 6, 60, 0
11, 959, Note_off_c, 6, 43, 0
11, 959, Note_off_c, 6, 55, 0
11, 959, Note_off_c, 6, 64, 0
11, 959, Note_on_c, 6, 65, 95
11, 959, Note_on_c, 6, 60, 95
11, 959, Note_on_c, 6, 57, 95
11, 959, Note_on_c, 6, 50, 95
11, 1199, Note_off_c, 6, 50, 0
11, 1199, Note_off_c, 6, 57, 0
11, 1199, Note_off_c, 6, 65, 0
11, 1199, Note_off_c, 6, 60, 0
11, 1199, Note_on_c, 6, 62, 95
11, 1199, Note_on_c, 6, 59, 95
11, 1199, Note_on_c, 6, 53, 95
11, 1199, Note_on_c, 6, 43, 95
11, 1439, Note_off_c, 6, 59, 0
11, 1439, Note_off_c, 6, 62, 0
11, 1439, Note_off_c, 6, 53, 0
11, 1439, Note_off_c, 6, 43, 0
11, 1439, Note_on_c, 6, 64, 95
11, 1439, Note_on_c, 6, 59, 95
11, 1439, Note_on_c, 6, 55, 95
11, 1439, Note_on_c, 6, 52, 95
11, 1439, Note_on_c, 6, 48, 95
11, 1679, Note_off_c, 6, 55, 0
11, 1679, Note_off_c, 6, 52, 0
11, 1679, Note_off_c, 6, 59, 0
11, 1679, Note_off_c, 6, 64, 0
11, 1679, Note_off_c, 6, 48, 0
11, 1679, Note_on_c, 6, 64, 95
11, 1679, Note_on_c, 6, 60, 95
11, 1679, Note_on_c, 6, 57, 95
11, 1679, Note_on_c, 6, 52, 95
11, 1679, Note_on_c, 6, 41, 95
11, 1919, Note_off_c, 6, 52, 0
11, 1919, Note_off_c, 6, 57, 0
11, 1919, Note_off_c, 6, 64, 0
11, 1919, Note_off_c, 6, 60, 0
11, 1919, Note_off_c, 6, 41, 0
11, 1919, Note_on_c, 6, 62, 95
11, 1919, Note_on_c, 6, 57, 95
11, 1919, Note_on_c, 6, 50, 95
11, 1919, Note_on_c, 6, 47, 95
11, 2159, Note_off_c, 6, 50, 0
11, 2159, Note_off_c, 6, 47, 0
11, 2159, Note_off_c, 6, 57, 0
11, 2159, Note_off_c, 6, 62, 0
11, 2159, Note_on_c, 6, 64, 95
11, 2159, Note_on_c, 6, 59, 95
11, 2159, Note_on_c, 6, 56, 95
11, 2159, Note_on_c, 6, 50, 95
11, 2159, Note_on_c, 6, 47, 95
11, 2159, Note_on_c, 6, 40, 95
11, 2399, Note_off_c, 6, 56, 0
11, 2399, Note_off_c, 6, 59, 0
11, 2399, Note_off_c, 6, 64, 0
11, 2399, Note_off_c, 6, 47, 0
11, 2399, Note_off_c, 6, 40, 0
11, 2399, Note_off_c, 6, 50, 0
11, 2399, Note_on_c, 6, 64, 95
11, 2399, Note_on_c, 6, 60, 95
11, 2399, Note_on_c, 6, 57, 95
11, 2399, Note_on_c, 6, 52, 95
11, 2399, Note_on_c, 6, 45, 95
11, 2639, Note_off_c, 6, 45, 0
11, 2639, Note_off_c, 6, 52, 0
11, 2639, Note_off_c, 6, 60, 0
11, 2639, Note_off_c, 6, 57, 0
11, 2639, Note_off_c, 6, 64, 0
11, 2639, Note_on_c, 6, 64, 95
11, 2639, Note_on_c, 6, 60, 95
11, 2639, Note_on_c, 6, 55, 95
11, 2639, Note_on_c, 6, 52, 95
11, 2639, Note_on_c, 6, 43, 95
11, 2879, Note_off_c, 6, 55, 0
11, 2879, Note_off_c, 6, 64, 0
11, 2879, Note_off_c, 6, 60, 0
11, 2879, Note_off_c, 6, 43, 0
11, 2879, Note_off_c, 6, 52, 0
11, 2879, Note_on_c, 6, 65, 95
11, 2879, Note_on_c, 6, 60, 95
11, 2879, Note_on_c, 6, 57, 95
11, 2879, Note_on_c, 6, 50, 95
11, 3119, Note_off_c, 6, 57, 0
11, 3119, Note_off_c, 6, 50, 0
11, 3119, Note_off_c, 6, 60, 0
11, 3119, Note_off_c, 6, 65, 0
11, 3119, Note_on_c, 6, 62, 95
11, 3119, Note_on_c, 6, 59, 95
11, 3119, Note_on_c, 6, 53, 95
11, 3119, Note_on_c, 6, 43, 95
11, 3359, Note_off_c, 6, 59, 0
11, 3359, Note_off_c, 6, 62, 0
11, 3359, Note_off_c, 6, 43, 0
11, 3359, Note_off_c, 6, 53, 0
11, 3359, Note_on_c, 6, 64, 95
11, 3359, Note_on_c, 6, 59, 95
11, 3359, Note_on_c, 6, 55, 95
11, 3359, Note_on_c, 6, 52, 95
11, 3359, Note_on_c, 6, 48, 95
11, 3599, Note_off_c, 6, 55, 0
11, 3599, Note_off_c, 6, 59, 0
11, 3599, Note_off_c, 6, 64, 0
11, 3599, Note_off_c, 6, 48, 0
11, 3599, Note_off_c, 6, 52, 0
11, 3599, Note_on_c, 6, 64, 95
11, 3599, Note_on_c, 6, 60, 95
11, 3599, Note_on_c, 6, 57, 95
11, 3599, Note_on_c, 6, 52, 95
11, 3599, Note_on_c, 6, 41, 95
11, 3839, Note_off_c, 6, 57, 0
11, 3839, Note_off_c, 6, 60, 0
11, 3839, Note_off_c, 6, 64, 0
11, 3839, Note_off_c, 6, 41, 0
11, 3839, Note_off_c, 6, 52, 0
11, 3839, Note_on_c, 6, 62, 95
11, 3839, Note_on_c, 6, 57, 95
11, 3839, Note_on_c, 6, 50, 95
11, 3839, Note_on_c, 6, 47, 95
11, 4079, Note_off_c, 6, 47, 0
11, 4079, Note_off_c, 6, 57, 0
11, 4079, Note_off_c, 6, 50, 0
11, 4079, Note_off_c, 6, 62, 0
11, 4079, Note_on_c, 6, 64, 95
11, 4079, Note_on_c, 6, 59, 95
11, 4079, Note_on_c, 6, 56, 95
11, 4079, Note_on_c, 6, 50, 95
11, 4079, Note_on_c, 6, 47, 95
11, 4079, Note_on_c, 6, 40, 95
11, 4319, Note_off_c, 6, 50, 0
11, 4319, Note_off_c, 6, 47, 0
11, 4319, Note_off_c, 6, 64, 0
11, 4319, Note_off_c, 6, 59, 0
11, 4319, Note_off_c, 6, 56, 0
11, 4319, Note_off_c, 6, 40, 0
11, 4319, Note_on_c, 6, 64, 95
11, 4319, Note_on_c, 6, 60, 95
11, 4319, Note_on_c, 6, 57, 95
11, 4319, Note_on_c, 6, 52, 95
11, 4319, Note_on_c, 6, 45, 95
11, 4799, Note_off_c, 6, 57, 0
11, 4799, Note_off_c, 6, 60, 0
11, 4799, Note_off_c, 6, 45, 0
11, 4799, Note_off_c, 6, 52, 0
11, 4799, Note_off_c, 6, 64, 0
11, 4799, Note_on_c, 6, 64, 95
11, 4799, Note_on_c, 6, 59, 95
11, 4799, Note_on_c, 6, 59, 95
11, 4799, Note_on_c, 6, 50, 95
11, 4799, Note_on_c, 6, 44, 95
11, 5279, Note_off_c, 6, 50, 0
11, 5279, Note_off_c, 6, 44, 0
11, 5279, Note_off_c, 6, 59, 0
11, 5279, Note_off_c, 6, 64, 0
11, 5279, Note_off_c, 6, 59, 0
11, 5279, Note_on_c, 6, 64, 95
11, 5279, Note_on_c, 6, 62, 95
11, 5279, Note_on_c, 6, 58, 95
11, 5279, Note_on_c, 6, 50, 95
11, 5279, Note_on_c, 6, 43, 95
11, 5759, Note_off_c, 6, 43, 0
11, 5759, Note_off_c, 6, 50, 0
11, 5759, Note_off_c, 6, 64, 0
11, 5759, Note_off_c, 6, 62, 0
11, 5759, Note_off_c, 6, 58, 0
11, 5759, Note_on_c, 6, 66, 95
11, 5759, Note_on_c, 6, 62, 95
11, 5759, Note_on_c, 6, 57, 95
11, 5759, Note_on_c, 6, 50, 95
11, 5759, Note_on_c, 6, 42, 95
11, 6239, Note_off_c, 6, 62, 0
11, 6239, Note_off_c, 6, 66, 0
11, 6239, Note_off_c, 6, 42, 0
11, 6239, Note_off_c, 6, 57, 0
11, 6239, Note_off_c, 6, 50, 0
11, 6239, Note_on_c, 6, 64, 95
11, 6239, Note_on_c, 6, 62, 95
11, 6239, Note_on_c, 6, 57, 95
11, 6239, Note_on_c, 6, 53, 95
11, 6239, Note_on_c, 6, 41, 95
11, 6719, Note_off_c, 6, 53, 0
11, 6719, Note_off_c, 6, 62, 0
11, 6719, Note_off_c, 6, 57, 0
11, 6719, Note_off_c, 6, 41, 0
11, 6719, Note_off_c, 6, 64, 0
11, 6719, Note_on_c, 6, 64, 95
11, 6719, Note_on_c, 6, 60, 95
11, 6719, Note_on_c, 6, 57, 95
11, 6719, Note_on_c, 6, 52, 95
11, 6719, Note_on_c, 6, 45, 95
11, 7199, Note_off_c, 6, 52, 0
11, 7199, Note_off_c, 6, 45, 0
11, 7199, Note_off_c, 6, 60, 0
11, 7199, Note_off_c, 6, 64, 0
11, 7199, Note_off_c, 6, 57, 0
11, 7199, Note_on_c, 6, 63, 95
11, 7199, Note_on_c, 6, 57, 95
11, 7199, Note_on_c, 6, 54, 95
11, 7199, Note_on_c, 6, 47, 95
11, 7679, Note_off_c, 6, 47, 0
11, 7679, Note_off_c, 6, 57, 0
11, 7679, Note_off_c, 6, 63, 0
11, 7679, Note_off_c, 6, 54, 0
11, 7679, Note_on_c, 6, 65, 95
11, 7679, Note_on_c, 6, 62, 95
11, 7679, Note_on_c, 6, 57, 95
11, 7679, Note_on_c, 6, 50, 95
11, 7919, Note_off_c, 6, 50, 0
11, 7919, Note_off_c, 6, 57, 0
11, 7919, Note_off_c, 6, 65, 0
11, 7919, Note_off_c, 6, 62, 0
11, 7919, Note_on_c, 6, 52, 95
11, 7919, Note_on_c, 6, 47, 95
11, 7919, Note_on_c, 6, 40, 95
11, 8159, Note_off_c, 6, 40, 0
11, 8159, Note_off_c, 6, 52, 0
11, 8159, Note_off_c, 6, 47, 0
11, 8159, Note_on_c, 6, 64, 95
11, 8159, Note_on_c, 6, 60, 95
11, 8159, Note_on_c, 6, 57, 95
11, 8159, Note_on_c, 6, 52, 95
11, 8159, Note_on_c, 6, 45, 95
11, 8399, Note_off_c, 6, 60, 0
11, 8399, Note_off_c, 6, 64, 0
11, 8399, Note_off_c, 6, 57, 0
11, 8399, Note_off_c, 6, 45, 0
11, 8399, Note_off_c, 6, 52, 0
11, 8399, Note_on_c, 6, 64, 95
11, 8399, Note_on_c, 6, 60, 95
11, 8399, Note_on_c, 6, 55, 95
11, 8399, Note_on_c, 6, 52, 95
11, 8399, Note_on_c, 6, 43, 95
11, 8639, Note_off_c, 6, 43, 0
11, 8639, Note_off_c, 6, 60, 0
11, 8639, Note_off_c, 6, 64, 0
11, 8639, Note_off_c, 6, 55, 0
11, 8639, Note_off_c, 6, 52, 0
11, 8639, Note_on_c, 6, 65, 95
11, 8639, Note_on_c, 6, 60, 95
11, 8639, Note_on_c, 6, 57, 95
11, 8639, Note_on_c, 6, 50, 95
11, 8879, Note_off_c, 6, 57, 0
11, 8879, Note_off_c, 6, 65, 0
11, 8879, Note_off_c, 6, 50, 0
11, 8879, Note_off_c, 6, 60, 0
11, 8879, Note_on_c, 6, 62, 95
11, 8879, Note_on_c, 6, 59, 95
11, 8879, Note_on_c, 6, 53, 95
11, 8879, Note_on_c, 6, 43, 95
11, 9119, Note_off_c, 6, 62, 0
11, 9119, Note_off_c, 6, 53, 0
11, 9119, Note_off_c, 6, 43, 0
11, 9119, Note_off_c, 6, 59, 0
11, 9119, Note_on_c, 6, 64, 95
11, 9119, Note_on_c, 6, 59, 95
11, 9119, Note_on_c, 6, 55, 95
11, 9119, Note_on_c, 6, 52, 95
11, 9119, Note_on_c, 6, 48, 95
11, 9359, Note_off_c, 6, 55, 0
11, 9359, Note_off_c, 6, 64, 0
11, 9359, Note_off_c, 6, 52, 0
11, 9359, Note_off_c, 6, 48, 0
11, 9359, Note_off_c, 6, 59, 0
11, 9359, Note_on_c, 6, 64, 95
11, 9359, Note_on_c, 6, 60, 95
11, 9359, Note_on_c, 6, 57, 95
11, 9359, Note_on_c, 6, 52, 95
11, 9359, Note_on_c, 6, 41, 95
11, 9599, Note_off_c, 6, 52, 0
11, 9599, Note_off_c, 6, 57, 0
11, 9599, Note_off_c, 6, 60, 0
11, 9599, Note_off_c, 6, 64, 0
11, 9599, Note_off_c, 6, 41, 0
11, 9599, Note_on_c, 6, 62, 95
11, 9599, Note_on_c, 6, 57, 95
11, 9599, Note_on_c, 6, 50, 95
11, 9599, Note_on_c, 6, 47, 95
11, 9839, Note_off_c, 6, 62, 0
11, 9839, Note_off_c, 6, 50, 0
11, 9839, Note_off_c, 6, 47, 0
11, 9839, Note_off_c, 6, 57, 0
11, 9839, Note_on_c, 6, 64, 95
11, 9839, Note_on_c, 6, 59, 95
11, 9839, Note_on_c, 6, 56, 95
11, 9839, Note_on_c, 6, 50, 95
11, 9839, Note_on_c, 6, 47, 95
11, 9839, Note_on_c, 6, 40, 95
11, 10079, Note_off_c, 6, 50, 0
11, 10079, Note_off_c, 6, 40, 0
11, 10079, Note_off_c, 6, 64, 0
11, 10079, Note_off_c, 6, 47, 0
11, 10079, Note_off_c, 6, 59, 0
11, 10079, Note_off_c, 6, 56, 0
11, 10079, Note_on_c, 6, 64, 95
11, 10079, Note_on_c, 6, 60, 95
11, 10079, Note_on_c, 6, 57, 95
11, 10079, Note_on_c, 6, 52, 95
11, 10079, Note_on_c, 6, 45, 95
11, 10319, Note_off_c, 6, 45, 0
11, 10319, Note_off_c, 6, 57, 0
11, 10319, Note_off_c, 6, 60, 0
11, 10319, Note_off_c, 6, 64, 0
11, 10319, Note_off_c, 6, 52, 0
11, 10319, Note_on_c, 6, 64, 95
11, 10319, Note_on_c, 6, 60, 95
11, 10319, Note_on_c, 6, 55, 95
11, 10319, Note_on_c, 6, 52, 95
11, 10319, Note_on_c, 6, 43, 95
11, 10559, Note_off_c, 6, 55, 0
11, 10559, Note_off_c, 6, 52, 0
11, 10559, Note_off_c, 6, 64, 0
11, 10559, Note_off_c, 6, 43, 0
11, 10559, Note_off_c, 6, 60, 0
11, 10559, Note_on_c, 6, 65, 95
11, 10559, Note_on_c, 6, 60, 95
11, 10559, Note_on_c, 6, 57, 95
11, 10559, Note_on_c, 6, 50, 95
11, 10799, Note_off_c, 6, 57, 0
11, 10799, Note_off_c, 6, 50, 0
11, 10799, Note_off_c, 6, 60, 0
11, 10799, Note_off_c, 6, 65, 0
11, 10799, Note_on_c, 6, 62, 95
11, 10799, Note_on_c, 6, 59, 95
11, 10799, Note_on_c, 6, 53, 95
11, 10799, Note_on_c, 6, 43, 95
11, 11039, Note_off_c, 6, 53, 0
11, 11039, Note_off_c, 6, 59, 0
11, 11039, Note_off_c, 6, 62, 0
11, 11039, Note_off_c, 6, 43, 0
11, 11039, Note_on_c, 6, 64, 95
11, 11039, Note_on_c, 6, 59, 95
11, 11039, Note_on_c, 6, 55, 95
11, 11039, Note_on_c, 6, 52, 95
11, 11039, Note_on_c, 6, 48, 95
11, 11279, Note_off_c, 6, 52, 0
11, 11279, Note_off_c, 6, 55, 0
11, 11279, Note_off_c, 6, 59, 0
11, 11279, Note_off_c, 6, 64, 0
11, 11279, Note_off_c, 6, 48, 0
11, 11279, Note_on_c, 6, 64, 95
11, 11279, Note_on_c, 6, 60, 95
11, 11279, Note_on_c, 6, 57, 95
11, 11279, Note_on_c, 6, 52, 95
11, 11279, Note_on_c, 6, 41, 95
11, 11519, Note_off_c, 6, 57, 0
11, 11519, Note_off_c, 6, 64, 0
11, 11519, Note_off_c, 6, 52, 0
11, 11519, Note_off_c, 6, 41, 0
11, 11519, Note_off_c, 6, 60, 0
11, 11519, Note_on_c, 6, 62, 95
11, 11519, Note_on_c, 6, 57, 95
11, 11519, Note_on_c, 6, 50, 95
11, 11519, Note_on_c, 6, 47, 95
11, 11759, Note_off_c, 6, 57, 0
11, 11759, Note_off_c, 6, 47, 0
11, 11759, Note_off_c, 6, 50, 0
11, 11759, Note_off_c, 6, 62, 0
11, 11759, Note_on_c, 6, 64, 95
11, 11759, Note_on_c, 6, 59, 95
11, 11759, Note_on_c, 6, 56, 95
11, 11759, Note_on_c, 6, 50, 95
11, 11759, Note_on_c, 6, 47, 95
11, 11759, Note_on_c, 6, 40, 95
11, 11999, Note_off_c, 6, 56, 0
11, 11999, Note_off_c, 6, 59, 0
11, 11999, Note_off_c, 6, 64, 0
11, 11999, Note_off_c, 6, 40, 0
11, 11999, Note_off_c, 6, 50, 0
11, 11999, Note_off_c, 6, 47, 0
11, 11999, Note_on_c, 6, 64, 95
11, 11999, Note_on_c, 6, 60, 95
11, 11999, Note_on_c, 6, 57, 95
11, 11999, Note_on_c, 6, 52, 95
11, 11999, Note_on_c, 6, 45, 95
11, 12239, Note_off_c, 6, 52, 0
11, 12239, Note_off_c, 6, 45, 0
11, 12239, Note_off_c, 6, 60, 0
11, 12239, Note_off_c, 6, 57, 0
11, 12239, Note_off_c, 6, 64, 0
11, 12239, Note_on_c, 6, 64, 95
11, 12239, Note_on_c, 6, 60, 95
11, 12239, Note_on_c, 6, 55, 95
11, 12239, Note_on_c, 6, 52, 95
11, 12239, Note_on_c, 6, 43, 95
11, 12479, Note_off_c, 6, 52, 0
11, 12479, Note_off_c, 6, 64, 0
11, 12479, Note_off_c, 6, 55, 0
11, 12479, Note_off_c, 6, 60, 0
11, 12479, Note_off_c, 6, 43, 0
11, 12479, Note_on_c, 6, 65, 95
11, 12479, Note_on_c, 6, 60, 95
11, 12479, Note_on_c, 6, 57, 95
11, 12479, Note_on_c, 6, 50, 95
11, 12719, Note_off_c, 6, 50, 0
11, 12719, Note_off_c, 6, 60, 0
11, 12719, Note_off_c, 6, 65, 0
11, 12719, Note_off_c, 6, 57, 0
11, 12719, Note_on_c, 6, 62, 95
11, 12719, Note_on_c, 6, 59, 95
11, 12719, Note_on_c, 6, 53, 95
11, 12719, Note_on_c, 6, 43, 95
11, 12959, Note_off_c, 6, 59, 0
11, 12959, Note_off_c, 6, 43, 0
11, 12959, Note_off_c, 6, 53, 0
11, 12959, Note_off_c, 6, 62, 0
11, 12959, Note_on_c, 6, 64, 95
11, 12959, Note_on_c, 6, 59, 95
11, 12959, Note_on_c, 6, 55, 95
11, 12959, Note_on_c, 6, 52, 95
11, 12959, Note_on_c, 6, 48, 95
11, 13199, Note_off_c, 6, 55, 0
11, 13199, Note_off_c, 6, 48, 0
11, 13199, Note_off_c, 6, 64, 0
11, 13199, Note_off_c, 6, 52, 0
11, 13199, Note_off_c, 6, 59, 0
11, 13199, Note_on_c, 6, 64, 95
11, 13199, Note_on_c, 6, 60, 95
11, 13199, Note_on_c, 6, 57, 95
11, 13199, Note_on_c, 6, 52, 95
11, 13199, Note_on_c, 6, 41, 95
11, 13439, Note_off_c, 6, 57, 0
11, 13439, Note_off_c, 6, 64, 0
11, 13439, Note_off_c, 6, 60, 0
11, 13439, Note_off_c, 6, 41, 0
11, 13439, Note_off_c, 6, 52, 0
11, 13439, Note_on_c, 6, 62, 95
11, 13439, Note_on_c, 6, 57, 95
11, 13439, Note_on_c, 6, 50, 95
11, 13439, Note_on_c, 6, 47, 95
11, 13679, Note_off_c, 6, 57, 0
11, 13679, Note_off_c, 6, 47, 0
11, 13679, Note_off_c, 6, 50, 0
11, 13679, Note_off_c, 6, 62, 0
11, 13679, Note_on_c, 6, 64, 95
11, 13679, Note_on_c, 6, 59, 95
11, 13679, Note_on_c, 6, 56, 95
11, 13679, Note_on_c, 6, 50, 95
11, 13679, Note_on_c, 6, 47, 95
11, 13679, Note_on_c, 6, 40, 95
11, 13919, Note_off_c, 6, 50, 0
11, 13919, Note_off_c, 6, 56, 0
11, 13919, Note_off_c, 6, 47, 0
11, 13919, Note_off_c, 6, 64, 0
11, 13919, Note_off_c, 6, 59, 0
11, 13919, Note_off_c, 6, 40, 0
11, 13919, Note_on_c, 6, 64, 95
11, 13919, Note_on_c, 6, 60, 95
11, 13919, Note_on_c, 6, 57, 95
11, 13919, Note_on_c, 6, 52, 95
11, 13919, Note_on_c, 6, 45, 95
11, 14399, Note_off_c, 6, 57, 0
11, 14399, Note_off_c, 6, 45, 0
11, 14399, Note_off_c, 6, 60, 0
11, 14399, Note_off_c, 6, 52, 0
11, 14399, Note_off_c, 6, 64, 0
11, 14399, Note_on_c, 6, 64, 95
11, 14399, Note_on_c, 6, 59, 95
11, 14399, Note_on_c, 6, 59, 95
11, 14399, Note_on_c, 6, 50, 95
11, 14399, Note_on_c, 6, 44, 95
11, 14879, Note_off_c, 6, 64, 0
11, 14879, Note_off_c, 6, 50, 0
11, 14879, Note_off_c, 6, 59, 0
11, 14879, Note_off_c, 6, 44, 0
11, 14879, Note_off_c, 6, 59, 0
11, 14879, Note_on_c, 6, 64, 95
11, 14879, Note_on_c, 6, 62, 95
11, 14879, Note_on_c, 6, 58, 95
11, 14879, Note_on_c, 6, 50, 95
11, 14879, Note_on_c, 6, 43, 95
11, 15359, Note_off_c, 6, 50, 0
11, 15359, Note_off_c, 6, 43, 0
11, 15359, Note_off_c, 6, 58, 0
11, 15359, Note_off_c, 6, 64, 0
11, 15359, Note_off_c, 6, 62, 0
11, 15359, Note_on_c, 6, 66, 95
11, 15359, Note_on_c, 6, 62, 95
11, 15359, Note_on_c, 6, 57, 95
11, 15359, Note_on_c, 6, 50, 95
11, 15359, Note_on_c, 6, 42, 95
11, 15839, Note_off_c, 6, 42, 0
11, 15839, Note_off_c, 6, 62, 0
11, 15839, Note_off_c, 6, 57, 0
11, 15839, Note_off_c, 6, 66, 0
11, 15839, Note_off_c, 6, 50, 0
11, 15839, Note_on_c, 6, 64, 95
11, 15839, Note_on_c, 6, 62, 95
11, 15839, Note_on_c, 6, 57, 95
11, 15839, Note_on_c, 6, 53, 95
11, 15839, Note_on_c, 6, 41, 95
11, 16319, Note_off_c, 6, 64, 0
11, 16319, Note_off_c, 6, 62, 0
11, 16319, Note_off_c, 6, 57, 0
11, 16319, Note_off_c, 6, 53, 0
11, 16319, Note_off_c, 6, 41, 0
11, 16319, Note_on_c, 6, 64, 95
11, 16319, Note_on_c, 6, 60, 95
11, 16319, Note_on_c, 6, 57, 95
11, 16319, Note_on_c, 6, 52, 95
11, 16319, Note_on_c, 6, 45, 95
11, 16799, Note_off_c, 6, 60, 0
11, 16799, Note_off_c, 6, 64, 0
11, 16799, Note_off_c, 6, 57, 0
11, 16799, Note_off_c, 6, 52, 0
11, 16799, Note_off_c, 6, 45, 0
11, 16799, Note_on_c, 6, 63, 95
11, 16799, Note_on_c, 6, 57, 95
11, 16799, Note_on_c, 6, 54, 95
11, 16799, Note_on_c, 6, 47, 95
11, 17279, Note_off_c, 6, 47, 0
11, 17279, Note_off_c, 6, 57, 0
11, 17279, Note_off_c, 6, 63, 0
11, 17279, Note_off_c, 6, 54, 0
11, 17279, Note_on_c, 6, 65, 95
11, 17279, Note_on_c, 6, 62, 95
11, 17279, Note_on_c, 6, 57, 95
11, 17279, Note_on_c, 6, 50, 95
11, 17519, Note_off_c, 6, 50, 0
11, 17519, Note_off_c, 6, 65, 0
11, 17519, Note_off_c, 6, 57, 0
11, 17519, Note_off_c, 6, 62, 0
11, 17519, Note_on_c, 6, 52, 95
11, 17519, Note_on_c, 6, 47, 95
11, 17519, Note_on_c, 6, 40, 95
11, 17759, Note_off_c, 6, 40, 0
11, 17759, Note_off_c, 6, 47, 0
11, 17759, Note_off_c, 6, 52, 0
11, 17759, Note_on_c, 6, 64, 95
11, 17759, Note_on_c, 6, 60, 95
11, 17759, Note_on_c, 6, 57, 95
11, 17759, Note_on_c, 6, 52, 95
11, 17759, Note_on_c, 6, 45, 95
11, 17999, Note_off_c, 6, 45, 0
11, 17999, Note_off_c, 6, 57, 0
11, 17999, Note_off_c, 6, 64, 0
11, 17999, Note_off_c, 6, 52, 0
11, 17999, Note_off_c, 6, 60, 0
11, 17999, Note_on_c, 6, 64, 95
11, 17999, Note_on_c, 6, 60, 95
11, 17999, Note_on_c, 6, 55, 95
11, 17999, Note_on_c, 6, 52, 95
11, 17999, Note_on_c, 6, 43, 95
11, 18239, Note_off_c, 6, 43, 0
11, 18239, Note_off_c, 6, 60, 0
11, 18239, Note_off_c, 6, 64, 0
11, 18239, Note_off_c, 6, 55, 0
11, 18239, Note_off_c, 6, 52, 0
11, 18239, Note_on_c, 6, 65, 95
11, 18239, Note_on_c, 6, 60, 95
11, 18239, Note_on_c, 6, 57, 95
11, 18239, Note_on_c, 6, 50, 95
11, 18479, Note_off_c, 6, 57, 0
11, 18479, Note_off_c, 6, 65, 0
11, 18479, Note_off_c, 6, 50, 0
11, 18479, Note_off_c, 6, 60, 0
11, 18479, Note_on_c, 6, 62, 95
11, 18479, Note_on_c, 6, 59, 95
11, 18479, Note_on_c, 6, 53, 95
11, 18479, Note_on_c, 6, 43, 95
11, 18719, Note_off_c, 6, 62, 0
11, 18719, Note_off_c, 6, 53, 0
11, 18719, Note_off_c, 6, 43, 0
11, 18719, Note_off_c, 6, 59, 0
11, 18719, Note_on_c, 6, 64, 95
11, 18719, Note_on_c, 6, 59, 95
11, 18719, Note_on_c, 6, 55, 95
11, 18719, Note_on_c, 6, 52, 95
11, 18719, Note_on_c, 6, 48, 95
11, 18959, Note_off_c, 6, 55, 0
11, 18959, Note_off_c, 6, 64, 0
11, 18959, Note_off_c, 6, 52, 0
11, 18959, Note_off_c, 6, 48, 0
11, 18959, Note_off_c, 6, 59, 0
11, 18959, Note_on_c, 6, 64, 95
11, 18959, Note_on_c, 6, 60, 95
11, 18959, Note_on_c, 6, 57, 95
11, 18959, Note_on_c, 6, 52, 95
11, 18959, Note_on_c, 6, 41, 95
11, 19199, Note_off_c, 6, 52, 0
11, 19199, Note_off_c, 6, 57, 0
11, 19199, Note_off_c, 6, 60, 0
11, 19199, Note_off_c, 6, 64, 0
11, 19199, Note_off_c, 6, 41, 0
11, 19199, Note_on_c, 6, 62, 95
11, 19199, Note_on_c, 6, 57, 95
11, 19199, Note_on_c, 6, 50, 95
11, 19199, Note_on_c, 6, 47, 95
11, 19439, Note_off_c, 6, 62, 0
11, 19439, Note_off_c, 6, 50, 0
11, 19439, Note_off_c, 6, 47, 0
11, 19439, Note_off_c, 6, 57, 0
11, 19439, Note_on_c, 6, 64, 95
11, 19439, Note_on_c, 6, 59, 95
11, 19439, Note_on_c, 6, 56, 95
11, 19439, Note_on_c, 6, 50, 95
11, 19439, Note_on_c, 6, 47, 95
11, 19439, Note_on_c, 6, 40, 95
11, 19679, Note_off_c, 6, 50, 0
11, 19679, Note_off_c, 6, 40, 0
11, 19679, Note_off_c, 6, 64, 0
11, 19679, Note_off_c, 6, 47, 0
11, 19679, Note_off_c, 6, 59, 0
11, 19679, Note_off_c, 6, 56, 0
11, 19679, Note_on_c, 6, 64, 95
11, 19679, Note_on_c, 6, 60, 95
11, 19679, Note_on_c, 6, 57, 95
11, 19679, Note_on_c, 6, 52, 95
11, 19679, Note_on_c, 6, 45, 95
11, 19919, Note_off_c, 6, 45, 0
11, 19919, Note_off_c, 6, 57, 0
11, 19919, Note_off_c, 6, 60, 0
11, 19919, Note_off_c, 6, 64, 0
11, 19919, Note_off_c, 6, 52, 0
11, 19919, Note_on_c, 6, 64, 95
11, 19919, Note_on_c, 6, 60, 95
11, 19919, Note_on_c, 6, 55, 95
11, 19919, Note_on_c, 6, 52, 95
11, 19919, Note_on_c, 6, 43, 95
11, 20159, Note_off_c, 6, 55, 0
11, 20159, Note_off_c, 6, 52, 0
11, 20159, Note_off_c, 6, 64, 0
11, 20159, Note_off_c, 6, 43, 0
11, 20159, Note_off_c, 6, 60, 0
11, 20159, Note_on_c, 6, 65, 95
11, 20159, Note_on_c, 6, 60, 95
11, 20159, Note_on_c, 6, 57, 95
11, 20159, Note_on_c, 6, 50, 95
11, 20399, Note_off_c, 6, 57, 0
11, 20399, Note_off_c, 6, 50, 0
11, 20399, Note_off_c, 6, 60, 0
11, 20399, Note_off_c, 6, 65, 0
11, 20399, Note_on_c, 6, 62, 95
11, 20399, Note_on_c, 6, 59, 95
11, 20399, Note_on_c, 6, 53, 95
11, 20399, Note_on_c, 6, 43, 95
11, 20639, Note_off_c, 6, 53, 0
11, 20639, Note_off_c, 6, 59, 0
11, 20639, Note_off_c, 6, 62, 0
11, 20639, Note_off_c, 6, 43, 0
11, 20639, Note_on_c, 6, 64, 95
11, 20639, Note_on_c, 6, 59, 95
11, 20639, Note_on_c, 6, 55, 95
11, 20639, Note_on_c, 6, 52, 95
11, 20639, Note_on_c, 6, 48, 95
11, 20879, Note_off_c, 6, 52, 0
11, 20879, Note_off_c, 6, 55, 0
11, 20879, Note_off_c, 6, 59, 0
11, 20879, Note_off_c, 6, 64, 0
11, 20879, Note_off_c, 6, 48, 0
11, 20879, Note_on_c, 6, 64, 95
11, 20879, Note_on_c, 6, 60, 95
11, 20879, Note_on_c, 6, 57, 95
11, 20879, Note_on_c, 6, 52, 95
11, 20879, Note_on_c, 6, 41, 95
11, 21119, Note_off_c, 6, 57, 0
11, 21119, Note_off_c, 6, 64, 0
11, 21119, Note_off_c, 6, 52, 0
11, 21119, Note_off_c, 6, 41, 0
11, 21119, Note_off_c, 6, 60, 0
11, 21119, Note_on_c, 6, 62, 95
11, 21119, Note_on_c, 6, 57, 95
11, 21119, Note_on_c, 6, 50, 95
11, 21119, Note_on_c, 6, 47, 95
11, 21359, Note_off_c, 6, 57, 0
11, 21359, Note_off_c, 6, 47, 0
11, 21359, Note_off_c, 6, 50, 0
11, 21359, Note_off_c, 6, 62, 0
11, 21359, Note_on_c, 6, 64, 95
11, 21359, Note_on_c, 6, 59, 95
11, 21359, Note_on_c, 6, 56, 95
11, 21359, Note_on_c, 6, 50, 95
11, 21359, Note_on_c, 6, 47, 95
11, 21359, Note_on_c, 6, 40, 95
11, 21599, Note_off_c, 6, 56, 0
11, 21599, Note_off_c, 6, 50, 0
11, 21599, Note_off_c, 6, 64, 0
11, 21599, Note_off_c, 6, 59, 0
11, 21599, Note_off_c, 6, 47, 0
11, 21599, Note_off_c, 6, 40, 0
11, 21599, Note_on_c, 6, 65, 95
11, 21599, Note_on_c, 6, 62, 95
11, 21599, Note_on_c, 6, 57, 95
11, 21599, Note_on_c, 6, 50, 95
11, 22079, Note_off_c, 6, 57, 0
11, 22079, Note_off_c, 6, 50, 0
11, 22079, Note_off_c, 6, 65, 0
11, 22079, Note_off_c, 6, 62, 0
11, 22079, Note_on_c, 6, 65, 95
11, 22079, Note_on_c, 6, 62, 95
11, 22079, Note_on_c, 6, 57, 95
11, 22079, Note_on_c, 6, 48, 95
11, 22559, Note_off_c, 6, 65, 0
11, 22559, Note_off_c, 6, 48, 0
11, 22559, Note_off_c, 6, 62, 0
11, 22559, Note_off_c, 6, 57, 0
11, 22559, Note_on_c, 6, 62, 95
11, 22559, Note_on_c, 6, 57, 95
11, 22559, Note_on_c, 6, 50, 95
11, 22559, Note_on_c, 6, 47, 95
11, 22799, Note_off_c, 6, 62, 0
11, 22799, Note_off_c, 6, 57, 0
11, 22799, Note_off_c, 6, 50, 0
11, 22799, Note_off_c, 6, 47, 0
11, 22799, Note_on_c, 6, 64, 95
11, 22799, Note_on_c, 6, 59, 95
11, 22799, Note_on_c, 6, 56, 95
11, 22799, Note_on_c, 6, 50, 95
11, 22799, Note_on_c, 6, 47, 95
11, 22799, Note_on_c, 6, 40, 95
11, 23039, Note_off_c, 6, 50, 0
11, 23039, Note_off_c, 6, 59, 0
11, 23039, Note_off_c, 6, 56, 0
11, 23039, Note_off_c, 6, 47, 0
11, 23039, Note_off_c, 6, 64, 0
11, 23039, Note_off_c, 6, 40, 0
11, 23039, Note_on_c, 6, 64, 95
11, 23039, Note_on_c, 6, 60, 95
11, 23039, Note_on_c, 6, 57, 95
11, 23039, Note_on_c, 6, 52, 95
11, 23039, Note_on_c, 6, 45, 95
11, 23519, Note_off_c, 6, 64, 0
11, 23519, Note_off_c, 6, 60, 0
11, 23519, Note_off_c, 6, 57, 0
11, 23519, Note_off_c, 6, 45, 0
11, 23519, Note_off_c, 6, 52, 0
11, 23519, Note_on_c, 6, 65, 95
11, 23519, Note_on_c, 6, 62, 95
11, 23519, Note_on_c, 6, 57, 95
11, 23519, Note_on_c, 6, 50, 95
11, 23999, Note_off_c, 6, 57, 0
11, 23999, Note_off_c, 6, 65, 0
11, 23999, Note_off_c, 6, 62, 0
11, 23999, Note_off_c, 6, 50, 0
11, 23999, Note_on_c, 6, 65, 95
11, 23999, Note_on_c, 6, 62, 95
11, 23999, Note_on_c, 6, 57, 95
11, 23999, Note_on_c, 6, 48, 95
11, 24479, Note_off_c, 6, 62, 0
11, 24479, Note_off_c, 6, 65, 0
11, 24479, Note_off_c, 6, 57, 0
11, 24479, Note_off_c, 6, 48, 0
11, 24479, Note_on_c, 6, 62, 95
11, 24479, Note_on_c, 6, 57, 95
11, 24479, Note_on_c, 6, 50, 95
11, 24479, Note_on_c, 6, 47, 95
11, 24959, Note_off_c, 6, 50, 0
11, 24959, Note_off_c, 6, 62, 0
11, 24959, Note_off_c, 6, 57, 0
11, 24959, Note_off_c, 6, 47, 0
11, 24959, Note_on_c, 6, 64, 95
11, 24959, Note_on_c, 6, 59, 95
11, 24959, Note_on_c, 6, 56, 95
11, 24959, Note_on_c, 6, 50, 95
11, 24959, Note_on_c, 6, 47, 95
11, 24959, Note_on_c, 6, 40, 95
11, 25439, Note_off_c, 6, 59, 0
11, 25439, Note_off_c, 6, 40, 0
11, 25439, Note_off_c, 6, 56, 0
11, 25439, Note_off_c, 6, 47, 0
11, 25439, Note_off_c, 6, 64, 0
11, 25439, Note_off_c, 6, 50, 0
11, 25439, Note_on_c, 6, 64, 95
11, 25439, Note_on_c, 6, 60, 95
11, 25439, Note_on_c, 6, 57, 95
11, 25439, Note_on_c, 6, 52, 95
11, 25439, Note_on_c, 6, 45, 95
11, 25919, Note_off_c, 6, 45, 0
11, 25919, Note_off_c, 6, 57, 0
11, 25919, Note_off_c, 6, 64, 0
11, 25919, Note_off_c, 6, 52, 0
11, 25919, Note_off_c, 6, 60, 0
11, 25919, Note_on_c, 6, 64, 95
11, 25919, Note_on_c, 6, 59, 95
11, 25919, Note_on_c, 6, 59, 95
11, 25919, Note_on_c, 6, 50, 95
11, 25919, Note_on_c, 6, 44, 95
11, 26399, Note_off_c, 6, 50, 0
11, 26399, Note_off_c, 6, 59, 0
11, 26399, Note_off_c, 6, 44, 0
11, 26399, Note_off_c, 6, 64, 0
11, 26399, Note_off_c, 6, 59, 0
11, 26399, Note_on_c, 6, 64, 95
11, 26399, Note_on_c, 6, 62, 95
11, 26399, Note_on_c, 6, 58, 95
11, 26399, Note_on_c, 6, 50, 95
11, 26399, Note_on_c, 6, 43, 95
11, 26879, Note_off_c, 6, 64, 0
11, 26879, Note_off_c, 6, 62, 0
11, 26879, Note_off_c, 6, 58, 0
11, 26879, Note_off_c, 6, 43, 0
11, 26879, Note_off_c, 6, 50, 0
11, 26879, Note_on_c, 6, 66, 95
11, 26879, Note_on_c, 6, 62, 95
11, 26879, Note_on_c, 6, 57, 95
11, 26879, Note_on_c, 6, 50, 95
11, 26879, Note_on_c, 6, 42, 95
11, 27359, Note_off_c, 6, 66, 0
11, 27359, Note_off_c, 6, 62, 0
11, 27359, Note_off_c, 6, 42, 0
11, 27359, Note_off_c, 6, 57, 0
11, 27359, Note_off_c, 6, 50, 0
11, 27359, Note_on_c, 6, 64, 95
11, 27359, Note_on_c, 6, 62, 95
11, 27359, Note_on_c, 6, 57, 95
11, 27359, Note_on_c, 6, 53, 95
11, 27359, Note_on_c, 6, 41, 95
11, 27839, Note_off_c, 6, 62, 0
11, 27839, Note_off_c, 6, 57, 0
11, 27839, Note_off_c, 6, 64, 0
11, 27839, Note_off_c, 6, 53, 0
11, 27839, Note_off_c, 6, 41, 0
11, 27839, Note_on_c, 6, 64, 95
11, 27839, Note_on_c, 6, 60, 95
11, 27839, Note_on_c, 6, 57, 95
11, 27839, Note_on_c, 6, 52, 95
11, 27839, Note_on_c, 6, 45, 95
11, 28319, Note_off_c, 6, 64, 0
11, 28319, Note_off_c, 6, 60, 0
11, 28319, Note_off_c, 6, 57, 0
11, 28319, Note_off_c, 6, 45, 0
11, 28319, Note_off_c, 6, 52, 0
11, 28319, Note_on_c, 6, 66, 95
11, 28319, Note_on_c, 6, 63, 95
11, 28319, Note_on_c, 6, 57, 95
11, 28319, Note_on_c, 6, 54, 95
11, 28319, Note_on_c, 6, 47, 95
11, 28799, Note_off_c, 6, 47, 0
11, 28799, Note_off_c, 6, 63, 0
11, 28799, Note_off_c, 6, 57, 0
11, 28799, Note_off_c, 6, 66, 0
11, 28799, Note_off_c, 6, 54, 0
11, 28799, Note_on_c, 6, 65, 95
11, 28799, Note_on_c, 6, 62, 95
11, 28799, Note_on_c, 6, 57, 95
11, 28799, Note_on_c, 6, 50, 95
11, 29039, Note_off_c, 6, 62, 0
11, 29039, Note_off_c, 6, 57, 0
11, 29039, Note_off_c, 6, 65, 0
11, 29039, Note_off_c, 6, 50, 0
11, 29039, Note_on_c, 6, 68, 95
11, 29039, Note_on_c, 6, 64, 95
11, 29039, Note_on_c, 6, 59, 95
11, 29039, Note_on_c, 6, 52, 95
11, 29039, Note_on_c, 6, 40, 95
11, 29279, Note_off_c, 6, 40, 0
11, 29279, Note_off_c, 6, 64, 0
11, 29279, Note_off_c, 6, 59, 0
11, 29279, Note_off_c, 6, 68, 0
11, 29279, Note_off_c, 6, 52, 0
11, 29279, Note_on_c, 6, 64, 95
11, 29279, Note_on_c, 6, 60, 95
11, 29279, Note_on_c, 6, 57, 95
11, 29279, Note_on_c, 6, 52, 95
11, 29279, Note_on_c, 6, 45, 95
11, 29519, Note_off_c, 6, 60, 0
11, 29519, Note_off_c, 6, 57, 0
11, 29519, Note_off_c, 6, 64, 0
11, 29519, Note_off_c, 6, 45, 0
11, 29519, Note_off_c, 6, 52, 0
11, 29519, Note_on_c, 6, 64, 95
11, 29519, Note_on_c, 6, 60, 95
11, 29519, Note_on_c, 6, 55, 95
11, 29519, Note_on_c, 6, 52, 95
11, 29519, Note_on_c, 6, 43, 95
11, 29759, Note_off_c, 6, 43, 0
11, 29759, Note_off_c, 6, 60, 0
11, 29759, Note_off_c, 6, 52, 0
11, 29759, Note_off_c, 6, 55, 0
11, 29759, Note_off_c, 6, 64, 0
11, 29759, Note_on_c, 6, 65, 95
11, 29759, Note_on_c, 6, 60, 95
11, 29759, Note_on_c, 6, 57, 95
11, 29759, Note_on_c, 6, 50, 95
11, 29999, Note_off_c, 6, 60, 0
11, 29999, Note_off_c, 6, 50, 0
11, 29999, Note_off_c, 6, 65, 0
11, 29999, Note_off_c, 6, 57, 0
11, 29999, Note_on_c, 6, 62, 95
11, 29999, Note_on_c, 6, 59, 95
11, 29999, Note_on_c, 6, 53, 95
11, 29999, Note_on_c, 6, 43, 95
11, 30239, Note_off_c, 6, 62, 0
11, 30239, Note_off_c, 6, 53, 0
11, 30239, Note_off_c, 6, 43, 0
11, 30239, Note_off_c, 6, 59, 0
11, 30239, Note_on_c, 6, 64, 95
11, 30239, Note_on_c, 6, 59, 95
11, 30239, Note_on_c, 6, 55, 95
11, 30239, Note_on_c, 6, 52, 95
11, 30239, Note_on_c, 6, 48, 95
11, 30479, Note_off_c, 6, 55, 0
11, 30479, Note_off_c, 6, 64, 0
11, 30479, Note_off_c, 6, 52, 0
11, 30479, Note_off_c, 6, 48, 0
11, 30479, Note_off_c, 6, 59, 0
11, 30479, Note_on_c, 6, 64, 95
11, 30479, Note_on_c, 6, 60, 95
11, 30479, Note_on_c, 6, 57, 95
11, 30479, Note_on_c, 6, 52, 95
11, 30479, Note_on_c, 6, 41, 95
11, 30719, Note_off_c, 6, 52, 0
11, 30719, Note_off_c, 6, 57, 0
11, 30719, Note_off_c, 6, 60, 0
11, 30719, Note_off_c, 6, 64, 0
11, 30719, Note_off_c, 6, 41, 0
11, 30719, Note_on_c, 6, 62, 95
11, 30719, Note_on_c, 6, 57, 95
11, 30719, Note_on_c, 6, 50, 95
11, 30719, Note_on_c, 6, 47, 95
11, 30959, Note_off_c, 6, 62, 0
11, 30959, Note_off_c, 6, 50, 0
11, 30959, Note_off_c, 6, 47, 0
11, 30959, Note_off_c, 6, 57, 0
11, 30959, Note_on_c, 6, 64, 95
11, 30959, Note_on_c, 6, 59, 95
11, 30959, Note_on_c, 6, 56, 95
11, 30959, Note_on_c, 6, 50, 95
11, 30959, Note_on_c, 6, 47, 95
11, 30959, Note_on_c, 6, 40, 95
11, 31199, Note_off_c, 6, 50, 0
11, 31199, Note_off_c, 6, 40, 0
11, 31199, Note_off_c, 6, 64, 0
11, 31199, Note_off_c, 6, 47, 0
11, 31199, Note_off_c, 6, 59, 0
11, 31199, Note_off_c, 6, 56, 0
11, 31199, Note_on_c, 6, 64, 95
11, 31199, Note_on_c, 6, 60, 95
11, 31199, Note_on_c, 6, 57, 95
11, 31199, Note_on_c, 6, 52, 95
11, 31199, Note_on_c, 6, 45, 95
11, 31439, Note_off_c, 6, 45, 0
11, 31439, Note_off_c, 6, 57, 0
11, 31439, Note_off_c, 6, 60, 0
11, 31439, Note_off_c, 6, 64, 0
11, 31439, Note_off_c, 6, 52, 0
11, 31439, Note_on_c, 6, 64, 95
11, 31439, Note_on_c, 6, 60, 95
11, 31439, Note_on_c, 6, 55, 95
11, 31439, Note_on_c, 6, 52, 95
11, 31439, Note_on_c, 6, 43, 95
11, 31679, Note_off_c, 6, 55, 0
11, 31679, Note_off_c, 6, 52, 0
11, 31679, Note_off_c, 6, 64, 0
11, 31679, Note_off_c, 6, 43, 0
11, 31679, Note_off_c, 6, 60, 0
11, 31679, Note_on_c, 6, 65, 95
11, 31679, Note_on_c, 6, 60, 95
11, 31679, Note_on_c, 6, 57, 95
11, 31679, Note_on_c, 6, 50, 95
11, 31919, Note_off_c, 6, 57, 0
11, 31919, Note_off_c, 6, 50, 0
11, 31919, Note_off_c, 6, 60, 0
11, 31919, Note_off_c, 6, 65, 0
11, 31919, Note_on_c, 6, 62, 95
11, 31919, Note_on_c, 6, 59, 95
11, 31919, Note_on_c, 6, 53, 95
11, 31919, Note_on_c, 6, 43, 95
11, 32159, Note_off_c, 6, 53, 0
11, 32159, Note_off_c, 6, 59, 0
11, 32159, Note_off_c, 6, 62, 0
11, 32159, Note_off_c, 6, 43, 0
11, 32159, Note_on_c, 6, 64, 95
11, 32159, Note_on_c, 6, 59, 95
11, 32159, Note_on_c, 6, 55, 95
11, 32159, Note_on_c, 6, 52, 95
11, 32159, Note_on_c, 6, 48, 95
11, 32399, Note_off_c, 6, 52, 0
11, 32399, Note_off_c, 6, 55, 0
11, 32399, Note_off_c, 6, 59, 0
11, 32399, Note_off_c, 6, 64, 0
11, 32399, Note_off_c, 6, 48, 0
11, 32399, Note_on_c, 6, 64, 95
11, 32399, Note_on_c, 6, 60, 95
11, 32399, Note_on_c, 6, 57, 95
11, 32399, Note_on_c, 6, 52, 95
11, 32399, Note_on_c, 6, 41, 95
11, 32639, Note_off_c, 6, 57, 0
11, 32639, Note_off_c, 6, 64, 0
11, 32639, Note_off_c, 6, 52, 0
11, 32639, Note_off_c, 6, 41, 0
11, 32639, Note_off_c, 6, 60, 0
11, 32639, Note_on_c, 6, 62, 95
11, 32639, Note_on_c, 6, 57, 95
11, 32639, Note_on_c, 6, 50, 95
11, 32639, Note_on_c, 6, 47, 95
11, 32879, Note_off_c, 6, 57, 0
11, 32879, Note_off_c, 6, 47, 0
11, 32879, Note_off_c, 6, 50, 0
11, 32879, Note_off_c, 6, 62, 0
11, 32879, Note_on_c, 6, 64, 95
11, 32879, Note_on_c, 6, 59, 95
11, 32879, Note_on_c, 6, 56, 95
11, 32879, Note_on_c, 6, 50, 95
11, 32879, Note_on_c, 6, 47, 95
11, 32879, Note_on_c, 6, 40, 95
11, 33119, Note_off_c, 6, 56, 0
11, 33119, Note_off_c, 6, 64, 0
11, 33119, Note_off_c, 6, 59, 0
11, 33119, Note_off_c, 6, 47, 0
11, 33119, Note_off_c, 6, 40, 0
11, 33119, Note_off_c, 6, 50, 0
11, 33119, Note_on_c, 6, 64, 95
11, 33119, Note_on_c, 6, 60, 95
11, 33119, Note_on_c, 6, 57, 95
11, 33119, Note_on_c, 6, 52, 95
11, 33119, Note_on_c, 6, 45, 95
11, 33359, Note_off_c, 6, 45, 0
11, 33359, Note_off_c, 6, 52, 0
11, 33359, Note_off_c, 6, 60, 0
11, 33359, Note_off_c, 6, 57, 0
11, 33359, Note_off_c, 6, 64, 0
11, 33359, Note_on_c, 6, 64, 95
11, 33359, Note_on_c, 6, 60, 95
11, 33359, Note_on_c, 6, 55, 95
11, 33359, Note_on_c, 6, 52, 95
11, 33359, Note_on_c, 6, 43, 95
11, 33599, Note_off_c, 6, 55, 0
11, 33599, Note_off_c, 6, 64, 0
11, 33599, Note_off_c, 6, 52, 0
11, 33599, Note_off_c, 6, 60, 0
11, 33599, Note_off_c, 6, 43, 0
11, 33599, Note_on_c, 6, 65, 95
11, 33599, Note_on_c, 6, 60, 95
11, 33599, Note_on_c, 6, 57, 95
11, 33599, Note_on_c, 6, 50, 95
11, 33839, Note_off_c, 6, 57, 0
11, 33839, Note_off_c, 6, 50, 0
11, 33839, Note_off_c, 6, 60, 0
11, 33839, Note_off_c, 6, 65, 0
11, 33839, Note_on_c, 6, 62, 95
11, 33839, Note_on_c, 6, 59, 95
11, 33839, Note_on_c, 6, 53, 95
11, 33839, Note_on_c, 6, 43, 95
11, 34079, Note_off_c, 6, 53, 0
11, 34079, Note_off_c, 6, 62, 0
11, 34079, Note_off_c, 6, 43, 0
11, 34079, Note_off_c, 6, 59, 0
11, 34079, Note_on_c, 6, 64, 95
11, 34079, Note_on_c, 6, 59, 95
11, 34079, Note_on_c, 6, 55, 95
11, 34079, Note_on_c, 6, 52, 95
11, 34079, Note_on_c, 6, 48, 95
11, 34319, Note_off_c, 6, 64, 0
11, 34319, Note_off_c, 6, 52, 0
11, 34319, Note_off_c, 6, 55, 0
11, 34319, Note_off_c, 6, 48, 0
11, 34319, Note_off_c, 6, 59, 0
11, 34319, Note_on_c, 6, 64, 95
11, 34319, Note_on_c, 6, 60, 95
11, 34319, Note_on_c, 6, 57, 95
11, 34319, Note_on_c, 6, 52, 95
11, 34319, Note_on_c, 6, 41, 95
11, 34559, Note_off_c, 6, 60, 0
11, 34559, Note_off_c, 6, 64, 0
11, 34559, Note_off_c, 6, 52, 0
11, 34559, Note_off_c, 6, 41, 0
11, 34559, Note_off_c, 6, 57, 0
11, 34559, Note_on_c, 6, 62, 95
11, 34559, Note_on_c, 6, 57, 95
11, 34559, Note_on_c, 6, 50, 95
11, 34559, Note_on_c, 6, 47, 95
11, 34799, Note_off_c, 6, 47, 0
11, 34799, Note_off_c, 6, 57, 0
11, 34799, Note_off_c, 6, 50, 0
11, 34799, Note_off_c, 6, 62, 0
11, 34799, Note_on_c, 6, 64, 95
11, 34799, Note_on_c, 6, 59, 95
11, 34799, Note_on_c, 6, 56, 95
11, 34799, Note_on_c, 6, 50, 95
11, 34799, Note_on_c, 6, 47, 95
11, 34799, Note_on_c, 6, 40, 95
11, 35039, Note_off_c, 6, 56, 0
11, 35039, Note_off_c, 6, 64, 0
11, 35039, Note_off_c, 6, 47, 0
11, 35039, Note_off_c, 6, 59, 0
11, 35039, Note_off_c, 6, 50, 0
11, 35039, Note_off_c, 6, 40, 0
11, 35039, Note_on_c, 6, 64, 95
11, 35039, Note_on_c, 6, 60, 95
11, 35039, Note_on_c, 6, 57, 95
11, 35039, Note_on_c, 6, 52, 95
11, 35039, Note_on_c, 6, 45, 95
11, 35279, Note_off_c, 6, 45, 0
11, 35279, Note_off_c, 6, 52, 0
11, 35279, Note_off_c, 6, 60, 0
11, 35279, Note_off_c, 6, 57, 0
11, 35279, Note_off_c, 6, 64, 0
11, 35279, Note_on_c, 6, 64, 95
11, 35279, Note_on_c, 6, 60, 95
11, 35279, Note_on_c, 6, 55, 95
11, 35279, Note_on_c, 6, 52, 95
11, 35279, Note_on_c, 6, 43, 95
11, 35519, Note_off_c, 6, 55, 0
11, 35519, Note_off_c, 6, 64, 0
11, 35519, Note_off_c, 6, 60, 0
11, 35519, Note_off_c, 6, 43, 0
11, 35519, Note_off_c, 6, 52, 0
11, 35519, Note_on_c, 6, 65, 95
11, 35519, Note_on_c, 6, 60, 95
11, 35519, Note_on_c, 6, 57, 95
11, 35519, Note_on_c, 6, 50, 95
11, 35759, Note_off_c, 6, 57, 0
11, 35759, Note_off_c, 6, 50, 0
11, 35759, Note_off_c, 6, 60, 0
11, 35759, Note_off_c, 6, 65, 0
11, 35759, Note_on_c, 6, 67, 95
11, 35759, Note_on_c, 6, 59, 95
11, 35759, Note_on_c, 6, 53, 95
11, 35759, Note_on_c, 6, 43, 95
11, 35999, Note_off_c, 6, 53, 0
11, 35999, Note_off_c, 6, 67, 0
11, 35999, Note_off_c, 6, 43, 0
11, 35999, Note_off_c, 6, 59, 0
11, 35999, Note_on_c, 6, 64, 95
11, 35999, Note_on_c, 6, 59, 95
11, 35999, Note_on_c, 6, 55, 95
11, 35999, Note_on_c, 6, 52, 95
11, 35999, Note_on_c, 6, 48, 95
11, 36239, Note_off_c, 6, 55, 0
11, 36239, Note_off_c, 6, 52, 0
11, 36239, Note_off_c, 6, 59, 0
11, 36239, Note_off_c, 6, 64, 0
11, 36239, Note_off_c, 6, 48, 0
11, 36239, Note_on_c, 6, 64, 95
11, 36239, Note_on_c, 6, 60, 95
11, 36239, Note_on_c, 6, 57, 95
11, 36239, Note_on_c, 6, 52, 95
11, 36239, Note_on_c, 6, 41, 95
11, 36479, Note_off_c, 6, 64, 0
11, 36479, Note_off_c, 6, 60, 0
11, 36479, Note_off_c, 6, 52, 0
11, 36479, Note_off_c, 6, 41, 0
11, 36479, Note_off_c, 6, 57, 0
11, 36479, Note_on_c, 6, 62, 95
11, 36479, Note_on_c, 6, 57, 95
11, 36479, Note_on_c, 6, 50, 95
11, 36479, Note_on_c, 6, 47, 95
11, 36719, Note_off_c, 6, 57, 0
11, 36719, Note_off_c, 6, 50, 0
11, 36719, Note_off_c, 6, 62, 0
11, 36719, Note_off_c, 6, 47, 0
11, 36719, Note_on_c, 6, 64, 95
11, 36719, Note_on_c, 6, 59, 95
11, 36719, Note_on_c, 6, 56, 95
11, 36719, Note_on_c, 6, 50, 95
11, 36719, Note_on_c, 6, 47, 95
11, 36719, Note_on_c, 6, 40, 95
11, 36959, Note_off_c, 6, 59, 0
11, 36959, Note_off_c, 6, 64, 0
11, 36959, Note_off_c, 6, 40, 0
11, 36959, Note_off_c, 6, 50, 0
11, 36959, Note_off_c, 6, 47, 0
11, 36959, Note_off_c, 6, 56, 0
11, 36959, Note_on_c, 6, 64, 95
11, 36959, Note_on_c, 6, 60, 95
11, 36959, Note_on_c, 6, 57, 95
11, 36959, Note_on_c, 6, 52, 95
11, 36959, Note_on_c, 6, 45, 95
11, 37199, Note_off_c, 6, 52, 0
11, 37199, Note_off_c, 6, 45, 0
11, 37199, Note_off_c, 6, 60, 0
11, 37199, Note_off_c, 6, 57, 0
11, 37199, Note_off_c, 6, 64, 0
11, 37199, Note_on_c, 6, 64, 95
11, 37199, Note_on_c, 6, 60, 95
11, 37199, Note_on_c, 6, 55, 95
11, 37199, Note_on_c, 6, 52, 95
11, 37199, Note_on_c, 6, 43, 95
11, 37439, Note_off_c, 6, 64, 0
11, 37439, Note_off_c, 6, 60, 0
11, 37439, Note_off_c, 6, 55, 0
11, 37439, Note_off_c, 6, 52, 0
11, 37439, Note_off_c, 6, 43, 0
11, 37439, Note_on_c, 6, 65, 95
11, 37439, Note_on_c, 6, 60, 95
11, 37439, Note_on_c, 6, 57, 95
11, 37439, Note_on_c, 6, 50, 95
11, 37679, Note_off_c, 6, 50, 0
11, 37679, Note_off_c, 6, 57, 0
11, 37679, Note_off_c, 6, 60, 0
11, 37679, Note_off_c, 6, 65, 0
11, 37679, Note_on_c, 6, 67, 95
11, 37679, Note_on_c, 6, 59, 95
11, 37679, Note_on_c, 6, 53, 95
11, 37679, Note_on_c, 6, 43, 95
11, 37919, Note_off_c, 6, 59, 0
11, 37919, Note_off_c, 6, 43, 0
11, 37919, Note_off_c, 6, 53, 0
11, 37919, Note_off_c, 6, 67, 0
11, 37919, Note_on_c, 6, 64, 95
11, 37919, Note_on_c, 6, 59, 95
11, 37919, Note_on_c, 6, 55, 95
11, 37919, Note_on_c, 6, 52, 95
11, 37919, Note_on_c, 6, 48, 95
11, 38159, Note_off_c, 6, 52, 0
11, 38159, Note_off_c, 6, 59, 0
11, 38159, Note_off_c, 6, 64, 0
11, 38159, Note_off_c, 6, 48, 0
11, 38159, Note_off_c, 6, 55, 0
11, 38159, Note_on_c, 6, 64, 95
11, 38159, Note_on_c, 6, 60, 95
11, 38159, Note_on_c, 6, 57, 95
11, 38159, Note_on_c, 6, 52, 95
11, 38159, Note_on_c, 6, 41, 95
11, 38399, Note_off_c, 6, 52, 0
11, 38399, Note_off_c, 6, 57, 0
11, 38399, Note_off_c, 6, 60, 0
11, 38399, Note_off_c, 6, 64, 0
11, 38399, Note_off_c, 6, 41, 0
11, 38399, Note_on_c, 6, 62, 95
11, 38399, Note_on_c, 6, 57, 95
11, 38399, Note_on_c, 6, 50, 95
11, 38399, Note_on_c, 6, 47, 95
11, 38639, Note_off_c, 6, 47, 0
11, 38639, Note_off_c, 6, 57, 0
11, 38639, Note_off_c, 6, 50, 0
11, 38639, Note_off_c, 6, 62, 0
11, 38639, Note_on_c, 6, 64, 95
11, 38639, Note_on_c, 6, 59, 95
11, 38639, Note_on_c, 6, 56, 95
11, 38639, Note_on_c, 6, 50, 95
11, 38639, Note_on_c, 6, 47, 95
11, 38639, Note_on_c, 6, 40, 95
11, 38879, Note_off_c, 6, 56, 0
11, 38879, Note_off_c, 6, 50, 0
11, 38879, Note_off_c, 6, 40, 0
11, 38879, Note_off_c, 6, 59, 0
11, 38879, Note_off_c, 6, 64, 0
11, 38879, Note_off_c, 6, 47, 0
11, 38879, Note_on_c, 6, 64, 95
11, 38879, Note_on_c, 6, 60, 95
11, 38879, Note_on_c, 6, 57, 95
11, 38879, Note_on_c, 6, 52, 95
11, 38879, Note_on_c, 6, 45, 95
11, 39119, Note_off_c, 6, 45, 0
11, 39119, Note_off_c, 6, 60, 0
11, 39119, Note_off_c, 6, 57, 0
11, 39119, Note_off_c, 6, 64, 0
11, 39119, Note_off_c, 6, 52, 0
11, 39119, Note_on_c, 6, 64, 95
11, 39119, Note_on_c, 6, 60, 95
11, 39119, Note_on_c, 6, 55, 95
11, 39119, Note_on_c, 6, 52, 95
11, 39119, Note_on_c, 6, 43, 95
11, 39359, Note_off_c, 6, 52, 0
11, 39359, Note_off_c, 6, 64, 0
11, 39359, Note_off_c, 6, 55, 0
11, 39359, Note_off_c, 6, 60, 0
11, 39359, Note_off_c, 6, 43, 0
11, 39359, Note_on_c, 6, 65, 95
11, 39359, Note_on_c, 6, 60, 95
11, 39359, Note_on_c, 6, 57, 95
11, 39359, Note_on_c, 6, 50, 95
11, 39599, Note_off_c, 6, 50, 0
11, 39599, Note_off_c, 6, 60, 0
11, 39599, Note_off_c, 6, 65, 0
11, 39599, Note_off_c, 6, 57, 0
11, 39599, Note_on_c, 6, 67, 95
11, 39599, Note_on_c, 6, 59, 95
11, 39599, Note_on_c, 6, 53, 95
11, 39599, Note_on_c, 6, 43, 95
11, 39839, Note_off_c, 6, 43, 0
11, 39839, Note_off_c, 6, 53, 0
11, 39839, Note_off_c, 6, 59, 0
11, 39839, Note_off_c, 6, 67, 0
11, 39839, Note_on_c, 6, 64, 95
11, 39839, Note_on_c, 6, 59, 95
11, 39839, Note_on_c, 6, 55, 95
11, 39839, Note_on_c, 6, 52, 95
11, 39839, Note_on_c, 6, 48, 95
11, 40079, Note_off_c, 6, 52, 0
11, 40079, Note_off_c, 6, 59, 0
11, 40079, Note_off_c, 6, 64, 0
11, 40079, Note_off_c, 6, 55, 0
11, 40079, Note_off_c, 6, 48, 0
11, 40079, Note_on_c, 6, 64, 95
11, 40079, Note_on_c, 6, 60, 95
11, 40079, Note_on_c, 6, 57, 95
11, 40079, Note_on_c, 6, 52, 95
11, 40079, Note_on_c, 6, 41, 95
11, 40319, Note_off_c, 6, 57, 0
11, 40319, Note_off_c, 6, 60, 0
11, 40319, Note_off_c, 6, 64, 0
11, 40319, Note_off_c, 6, 41, 0
11, 40319, Note_off_c, 6, 52, 0
11, 40319, Note_on_c, 6, 62, 95
11, 40319, Note_on_c, 6, 57, 95
11, 40319, Note_on_c, 6, 50, 95
11, 40319, Note_on_c, 6, 47, 95
11, 40559, Note_off_c, 6, 57, 0
11, 40559, Note_off_c, 6, 62, 0
11, 40559, Note_off_c, 6, 47, 0
11, 40559, Note_off_c, 6, 50, 0
11, 40559, Note_on_c, 6, 64, 95
11, 40559, Note_on_c, 6, 59, 95
11, 40559, Note_on_c, 6, 56, 95
11, 40559, Note_on_c, 6, 50, 95
11, 40559, Note_on_c, 6, 47, 95
11, 40559, Note_on_c, 6, 40, 95
11, 40799, Note_off_c, 6, 47, 0
11, 40799, Note_off_c, 6, 59, 0
11, 40799, Note_off_c, 6, 40, 0
11, 40799, Note_off_c, 6, 64, 0
11, 40799, Note_off_c, 6, 56, 0
11, 40799, Note_off_c, 6, 50, 0
11, 40799, Note_on_c, 6, 64, 95
11, 40799, Note_on_c, 6, 60, 95
11, 40799, Note_on_c, 6, 57, 95
11, 40799, Note_on_c, 6, 52, 95
11, 40799, Note_on_c, 6, 45, 95
11, 41279, Note_off_c, 6, 45, 0
11, 41279, Note_off_c, 6, 52, 0
11, 41279, Note_off_c, 6, 64, 0
11, 41279, Note_off_c, 6, 60, 0
11, 41279, Note_off_c, 6, 57, 0
11, 41279, End_track
12, 0, Start_track
12, 0, Sequencer_specific, 5, 5, 15, 9, 0, 64
12, 0, Sequencer_specific, 15, 5, 15, 6, 71, 101, 110, 101, 114, 97, 108, 32, 77, 73, 68, 73
12, 0, Title_t, "Track 12"
12, 0, Channel_prefix, 2
12, 0, Time_signature, 4, 2, 24, 8
12, 0, Key_signature, 0, "major"
12, 47, Control_c, 2, 101, 0
12, 47, Control_c, 2, 100, 0
12, 47, Control_c, 2, 6, 12
12, 47, Control_c, 2, 38, 0
12, 48, Pitch_bend_c, 2, 8192
12, 65, Control_c, 2, 101, 0
12, 65, Control_c, 2, 100, 1
12, 65, Control_c, 2, 6, 64
12, 65, Control_c, 2, 38, 0
12, 95, Control_c, 2, 101, 0
12, 95, Control_c, 2, 100, 2
12, 95, Control_c, 2, 6, 64
12, 95, Control_c, 2, 38, 0
12, 96, Program_c, 2, 33
12, 96, Control_c, 2, 0, 0
12, 96, Control_c, 2, 93, 0
12, 96, Control_c, 2, 91, 40
12, 96, Control_c, 2, 92, 0
12, 96, Control_c, 2, 95, 0
12, 479, Note_on_c, 2, 33, 95
12, 719, Note_off_c, 2, 33, 0
12, 719, Note_on_c, 2, 31, 95
12, 899, Note_off_c, 2, 31, 0
12, 899, Note_on_c, 2, 36, 95
12, 929, Note_off_c, 2, 36, 0
12, 929, Note_on_c, 2, 37, 95
12, 959, Note_off_c, 2, 37, 0
12, 959, Note_on_c, 2, 38, 95
12, 1139, Note_off_c, 2, 38, 0
12, 1199, Note_on_c, 2, 31, 95
12, 1259, Note_off_c, 2, 31, 0
12, 1259, Note_on_c, 2, 28, 95
12, 1319, Note_off_c, 2, 28, 0
12, 1319, Note_on_c, 2, 31, 95
12, 1409, Note_off_c, 2, 31, 0
12, 1409, Note_on_c, 2, 35, 95
12, 1439, Note_off_c, 2, 35, 0
12, 1439, Note_on_c, 2, 36, 95
12, 1649, Note_off_c, 2, 36, 0
12, 1649, Note_on_c, 2, 28, 95
12, 1679, Note_off_c, 2, 28, 0
12, 1679, Note_on_c, 2, 29, 95
12, 1739, Note_off_c, 2, 29, 0
12, 1739, Note_on_c, 2, 29, 95
12, 1919, Note_off_c, 2, 29, 0
12, 1919, Note_on_c, 2, 35, 95
12, 2159, Note_off_c, 2, 35, 0
12, 2159, Note_on_c, 2, 28, 95
12, 2219, Note_off_c, 2, 28, 0
12, 2219, Note_on_c, 2, 28, 95
12, 2279, Note_off_c, 2, 28, 0
12, 2279, Note_on_c, 2, 28, 95
12, 2309, Note_off_c, 2, 28, 0
12, 2309, Note_on_c, 2, 28, 95
12, 2399, Note_off_c, 2, 28, 0
12, 2399, Note_on_c, 2, 33, 95
12, 2609, Note_off_c, 2, 33, 0
12, 2609, Note_on_c, 2, 28, 95
12, 2639, Note_off_c, 2, 28, 0
12, 2639, Note_on_c, 2, 31, 95
12, 2819, Note_off_c, 2, 31, 0
12, 2819, Note_on_c, 2, 36, 95
12, 2879, Note_off_c, 2, 36, 0
12, 2879, Note_on_c, 2, 38, 95
12, 3089, Note_off_c, 2, 38, 0
12, 3089, Note_on_c, 2, 28, 95
12, 3119, Note_off_c, 2, 28, 0
12, 3119, Note_on_c, 2, 31, 95
12, 3179, Note_off_c, 2, 31, 0
12, 3239, Note_on_c, 2, 43, 95
12, 3299, Note_off_c, 2, 43, 0
12, 3359, Note_on_c, 2, 36, 95
12, 3539, Note_off_c, 2, 36, 0
12, 3539, Note_on_c, 2, 28, 95
12, 3599, Note_off_c, 2, 28, 0
12, 3599, Note_on_c, 2, 29, 95
12, 3659, Note_off_c, 2, 29, 0
12, 3659, Note_on_c, 2, 29, 95
12, 3779, Note_off_c, 2, 29, 0
12, 3779, Note_on_c, 2, 29, 95
12, 3839, Note_off_c, 2, 29, 0
12, 3839, Note_on_c, 2, 35, 95
12, 4079, Note_off_c, 2, 35, 0
12, 4079, Note_on_c, 2, 28, 95
12, 4199, Note_off_c, 2, 28, 0
12, 4199, Note_on_c, 2, 28, 95
12, 4319, Note_off_c, 2, 28, 0
12, 4319, Note_on_c, 2, 33, 95
12, 4559, Note_off_c, 2, 33, 0
12, 4559, Note_on_c, 2, 33, 95
12, 4619, Note_off_c, 2, 33, 0
12, 4619, Note_on_c, 2, 33, 95
12, 4679, Note_off_c, 2, 33, 0
12, 4739, Note_on_c, 2, 33, 95
12, 4799, Note_off_c, 2, 33, 0
12, 4799, Note_on_c, 2, 32, 95
12, 4979, Note_off_c, 2, 32, 0
12, 4979, Note_on_c, 2, 32, 95
12, 5039, Note_off_c, 2, 32, 0
12, 5039, Note_on_c, 2, 32, 95
12, 5249, Note_off_c, 2, 32, 0
12, 5249, Note_on_c, 2, 28, 95
12, 5279, Note_off_c, 2, 28, 0
12, 5279, Note_on_c, 2, 31, 95
12, 5459, Note_off_c, 2, 31, 0
12, 5459, Note_on_c, 2, 31, 95
12, 5519, Note_off_c, 2, 31, 0
12, 5519, Note_on_c, 2, 31, 95
12, 5699, Note_off_c, 2, 31, 0
12, 5759, Note_on_c, 2, 30, 95
12, 5939, Note_off_c, 2, 30, 0
12, 5939, Note_on_c, 2, 30, 95
12, 6179, Note_off_c, 2, 30, 0
12, 6239, Note_on_c, 2, 29, 95
12, 6419, Note_off_c, 2, 29, 0
12, 6419, Note_on_c, 2, 29, 95
12, 6479, Note_off_c, 2, 29, 0
12, 6479, Note_on_c, 2, 29, 95
12, 6659, Note_off_c, 2, 29, 0
12, 6659, Note_on_c, 2, 29, 95
12, 6719, Note_off_c, 2, 29, 0
12, 6719, Note_on_c, 2, 33, 95
12, 6959, Note_off_c, 2, 33, 0
12, 6959, Note_on_c, 2, 33, 95
12, 7019, Note_off_c, 2, 33, 0
12, 7019, Note_on_c, 2, 28, 95
12, 7079, Note_off_c, 2, 28, 0
12, 7079, Note_on_c, 2, 33, 95
12, 7139, Note_off_c, 2, 33, 0
12, 7199, Note_on_c, 2, 35, 95
12, 7439, Note_off_c, 2, 35, 0
12, 7439, Note_on_c, 2, 35, 95
12, 7499, Note_off_c, 2, 35, 0
12, 7499, Note_on_c, 2, 30, 95
12, 7559, Note_off_c, 2, 30, 0
12, 7559, Note_on_c, 2, 35, 95
12, 7619, Note_off_c, 2, 35, 0
12, 7619, Note_on_c, 2, 35, 95
12, 7679, Note_off_c, 2, 35, 0
12, 7679, Note_on_c, 2, 38, 95
12, 7889, Note_off_c, 2, 38, 0
12, 7889, Note_on_c, 2, 38, 95
12, 7919, Note_off_c, 2, 38, 0
12, 7919, Note_on_c, 2, 40, 95
12, 7979, Note_off_c, 2, 40, 0
12, 7979, Note_on_c, 2, 40, 95
12, 8039, Note_off_c, 2, 40, 0
12, 8039, Note_on_c, 2, 28, 95
12, 8159, Note_off_c, 2, 28, 0
12, 8159, Note_on_c, 2, 33, 95
12, 8399, Note_off_c, 2, 33, 0
12, 8399, Note_on_c, 2, 31, 95
12, 8459, Note_off_c, 2, 31, 0
12, 8459, Note_on_c, 2, 31, 95
12, 8579, Note_off_c, 2, 31, 0
12, 8579, Note_on_c, 2, 36, 95
12, 8609, Note_off_c, 2, 36, 0
12, 8609, Note_on_c, 2, 37, 95
12, 8639, Note_off_c, 2, 37, 0
12, 8639, Note_on_c, 2, 38, 95
12, 8819, Note_off_c, 2, 38, 0
12, 8819, Note_on_c, 2, 38, 95
12, 8879, Note_off_c, 2, 38, 0
12, 8879, Note_on_c, 2, 31, 95
12, 8999, Note_off_c, 2, 31, 0
12, 8999, Note_on_c, 2, 43, 95
12, 9119, Note_off_c, 2, 43, 0
12, 9119, Note_on_c, 2, 36, 95
12, 9299, Note_off_c, 2, 36, 0
12, 9299, Note_on_c, 2, 28, 95
12, 9359, Note_off_c, 2, 28, 0
12, 9359, Note_on_c, 2, 29, 95
12, 9479, Note_off_c, 2, 29, 0
12, 9479, Note_on_c, 2, 29, 95
12, 9539, Note_off_c, 2, 29, 0
12, 9569, Note_on_c, 2, 33, 95
12, 9599, Note_off_c, 2, 33, 0
12, 9599, Note_on_c, 2, 35, 95
12, 9839, Note_off_c, 2, 35, 0
12, 9839, Note_on_c, 2, 40, 95
12, 9959, Note_off_c, 2, 40, 0
12, 9959, Note_on_c, 2, 28, 95
12, 10079, Note_off_c, 2, 28, 0
12, 10079, Note_on_c, 2, 33, 95
12, 10259, Note_off_c, 2, 33, 0
12, 10259, Note_on_c, 2, 33, 95
12, 10319, Note_off_c, 2, 33, 0
12, 10319, Note_on_c, 2, 31, 95
12, 10379, Note_off_c, 2, 31, 0
12, 10379, Note_on_c, 2, 31, 95
12, 10499, Note_off_c, 2, 31, 0
12, 10529, Note_on_c, 2, 36, 95
12, 10559, Note_off_c, 2, 36, 0
12, 10559, Note_on_c, 2, 38, 95
12, 10769, Note_off_c, 2, 38, 0
12, 10769, Note_on_c, 2, 28, 95
12, 10799, Note_off_c, 2, 28, 0
12, 10799, Note_on_c, 2, 31, 95
12, 10859, Note_off_c, 2, 31, 0
12, 10919, Note_on_c, 2, 35, 95
12, 10979, Note_off_c, 2, 35, 0
12, 11039, Note_on_c, 2, 36, 95
12, 11219, Note_off_c, 2, 36, 0
12, 11219, Note_on_c, 2, 28, 95
12, 11279, Note_on_c, 2, 29, 95
12, 11309, Note_off_c, 2, 28, 0
12, 11459, Note_off_c, 2, 29, 0
12, 11519, Note_on_c, 2, 35, 95
12, 11759, Note_off_c, 2, 35, 0
12, 11759, Note_on_c, 2, 28, 95
12, 11879, Note_off_c, 2, 28, 0
12, 11879, Note_on_c, 2, 28, 95
12, 11999, Note_off_c, 2, 28, 0
12, 11999, Note_on_c, 2, 33, 95
12, 12179, Note_off_c, 2, 33, 0
12, 12239, Note_on_c, 2, 31, 95
12, 12359, Note_off_c, 2, 31, 0
12, 12419, Note_on_c, 2, 36, 95
12, 12449, Note_off_c, 2, 36, 0
12, 12449, Note_on_c, 2, 37, 95
12, 12479, Note_off_c, 2, 37, 0
12, 12479, Note_on_c, 2, 38, 95
12, 12659, Note_off_c, 2, 38, 0
12, 12659, Note_on_c, 2, 38, 95
12, 12719, Note_off_c, 2, 38, 0
12, 12719, Note_on_c, 2, 31, 95
12, 12779, Note_off_c, 2, 31, 0
12, 12779, Note_on_c, 2, 31, 95
12, 12839, Note_off_c, 2, 31, 0
12, 12839, Note_on_c, 2, 43, 95
12, 12929, Note_on_c, 2, 31, 95
12, 12959, Note_off_c, 2, 31, 0
12, 12959, Note_on_c, 2, 36, 95
12, 13019, Note_off_c, 2, 43, 0
12, 13169, Note_off_c, 2, 36, 0
12, 13169, Note_on_c, 2, 28, 95
12, 13199, Note_off_c, 2, 28, 0
12, 13199, Note_on_c, 2, 29, 95
12, 13379, Note_off_c, 2, 29, 0
12, 13379, Note_on_c, 2, 29, 95
12, 13439, Note_off_c, 2, 29, 0
12, 13439, Note_on_c, 2, 35, 95
12, 13679, Note_off_c, 2, 35, 0
12, 13679, Note_on_c, 2, 28, 95
12, 13739, Note_off_c, 2, 28, 0
12, 13739, Note_on_c, 2, 28, 95
12, 13799, Note_off_c, 2, 28, 0
12, 13799, Note_on_c, 2, 28, 95
12, 13829, Note_off_c, 2, 28, 0
12, 13829, Note_on_c, 2, 28, 95
12, 13919, Note_off_c, 2, 28, 0
12, 13919, Note_on_c, 2, 33, 95
12, 14159, Note_off_c, 2, 33, 0
12, 14159, Note_on_c, 2, 33, 95
12, 14219, Note_off_c, 2, 33, 0
12, 14219, Note_on_c, 2, 33, 95
12, 14279, Note_off_c, 2, 33, 0
12, 14339, Note_on_c, 2, 33, 95
12, 14399, Note_off_c, 2, 33, 0
12, 14399, Note_on_c, 2, 32, 95
12, 14579, Note_off_c, 2, 32, 0
12, 14579, Note_on_c, 2, 32, 95
12, 14639, Note_off_c, 2, 32, 0
12, 14639, Note_on_c, 2, 32, 95
12, 14849, Note_off_c, 2, 32, 0
12, 14849, Note_on_c, 2, 28, 95
12, 14879, Note_off_c, 2, 28, 0
12, 14879, Note_on_c, 2, 31, 95
12, 15059, Note_off_c, 2, 31, 0
12, 15059, Note_on_c, 2, 31, 95
12, 15119, Note_off_c, 2, 31, 0
12, 15119, Note_on_c, 2, 31, 95
12, 15299, Note_off_c, 2, 31, 0
12, 15359, Note_on_c, 2, 30, 95
12, 15539, Note_off_c, 2, 30, 0
12, 15539, Note_on_c, 2, 30, 95
12, 15779, Note_off_c, 2, 30, 0
12, 15839, Note_on_c, 2, 29, 95
12, 16019, Note_off_c, 2, 29, 0
12, 16019, Note_on_c, 2, 29, 95
12, 16079, Note_off_c, 2, 29, 0
12, 16079, Note_on_c, 2, 29, 95
12, 16259, Note_off_c, 2, 29, 0
12, 16259, Note_on_c, 2, 29, 95
12, 16319, Note_off_c, 2, 29, 0
12, 16319, Note_on_c, 2, 33, 95
12, 16559, Note_off_c, 2, 33, 0
12, 16559, Note_on_c, 2, 33, 95
12, 16619, Note_off_c, 2, 33, 0
12, 16619, Note_on_c, 2, 28, 95
12, 16679, Note_off_c, 2, 28, 0
12, 16679, Note_on_c, 2, 33, 95
12, 16739, Note_off_c, 2, 33, 0
12, 16799, Note_on_c, 2, 35, 95
12, 17039, Note_off_c, 2, 35, 0
12, 17039, Note_on_c, 2, 35, 95
12, 17099, Note_off_c, 2, 35, 0
12, 17099, Note_on_c, 2, 30, 95
12, 17159, Note_off_c, 2, 30, 0
12, 17159, Note_on_c, 2, 35, 95
12, 17219, Note_off_c, 2, 35, 0
12, 17219, Note_on_c, 2, 35, 95
12, 17279, Note_off_c, 2, 35, 0
12, 17279, Note_on_c, 2, 38, 95
12, 17489, Note_off_c, 2, 38, 0
12, 17489, Note_on_c, 2, 38, 95
12, 17519, Note_off_c, 2, 38, 0
12, 17519, Note_on_c, 2, 40, 95
12, 17579, Note_off_c, 2, 40, 0
12, 17579, Note_on_c, 2, 40, 95
12, 17639, Note_off_c, 2, 40, 0
12, 17639, Note_on_c, 2, 28, 95
12, 17759, Note_off_c, 2, 28, 0
12, 17759, Note_on_c, 2, 33, 95
12, 17999, Note_off_c, 2, 33, 0
12, 17999, Note_on_c, 2, 31, 95
12, 18059, Note_off_c, 2, 31, 0
12, 18059, Note_on_c, 2, 31, 95
12, 18179, Note_off_c, 2, 31, 0
12, 18179, Note_on_c, 2, 36, 95
12, 18209, Note_off_c, 2, 36, 0
12, 18209, Note_on_c, 2, 37, 95
12, 18239, Note_off_c, 2, 37, 0
12, 18239, Note_on_c, 2, 38, 95
12, 18419, Note_off_c, 2, 38, 0
12, 18419, Note_on_c, 2, 38, 95
12, 18479, Note_off_c, 2, 38, 0
12, 18479, Note_on_c, 2, 31, 95
12, 18599, Note_off_c, 2, 31, 0
12, 18599, Note_on_c, 2, 43, 95
12, 18719, Note_off_c, 2, 43, 0
12, 18719, Note_on_c, 2, 36, 95
12, 18899, Note_off_c, 2, 36, 0
12, 18899, Note_on_c, 2, 28, 95
12, 18959, Note_off_c, 2, 28, 0
12, 18959, Note_on_c, 2, 29, 95
12, 19079, Note_off_c, 2, 29, 0
12, 19079, Note_on_c, 2, 29, 95
12, 19139, Note_off_c, 2, 29, 0
12, 19169, Note_on_c, 2, 33, 95
12, 19199, Note_off_c, 2, 33, 0
12, 19199, Note_on_c, 2, 35, 95
12, 19439, Note_off_c, 2, 35, 0
12, 19439, Note_on_c, 2, 40, 95
12, 19559, Note_off_c, 2, 40, 0
12, 19559, Note_on_c, 2, 28, 95
12, 19679, Note_off_c, 2, 28, 0
12, 19679, Note_on_c, 2, 33, 95
12, 19859, Note_off_c, 2, 33, 0
12, 19859, Note_on_c, 2, 33, 95
12, 19919, Note_off_c, 2, 33, 0
12, 19919, Note_on_c, 2, 31, 95
12, 19979, Note_off_c, 2, 31, 0
12, 19979, Note_on_c, 2, 31, 95
12, 20099, Note_off_c, 2, 31, 0
12, 20129, Note_on_c, 2, 36, 95
12, 20159, Note_off_c, 2, 36, 0
12, 20159, Note_on_c, 2, 38, 95
12, 20369, Note_off_c, 2, 38, 0
12, 20369, Note_on_c, 2, 28, 95
12, 20399, Note_off_c, 2, 28, 0
12, 20399, Note_on_c, 2, 31, 95
12, 20459, Note_off_c, 2, 31, 0
12, 20519, Note_on_c, 2, 35, 95
12, 20579, Note_off_c, 2, 35, 0
12, 20639, Note_on_c, 2, 36, 95
12, 20819, Note_off_c, 2, 36, 0
12, 20819, Note_on_c, 2, 28, 95
12, 20879, Note_on_c, 2, 29, 95
12, 20909, Note_off_c, 2, 28, 0
12, 21059, Note_off_c, 2, 29, 0
12, 21119, Note_on_c, 2, 35, 95
12, 21359, Note_off_c, 2, 35, 0
12, 21359, Note_on_c, 2, 28, 95
12, 21479, Note_off_c, 2, 28, 0
12, 21479, Note_on_c, 2, 28, 95
12, 21599, Note_off_c, 2, 28, 0
12, 21599, Note_on_c, 2, 38, 95
12, 21659, Note_off_c, 2, 38, 0
12, 21659, Note_on_c, 2, 38, 95
12, 21719, Note_off_c, 2, 38, 0
12, 21719, Note_on_c, 2, 38, 95
12, 21779, Note_off_c, 2, 38, 0
12, 21779, Note_on_c, 2, 38, 95
12, 21839, Note_off_c, 2, 38, 0
12, 21839, Note_on_c, 2, 38, 95
12, 21899, Note_off_c, 2, 38, 0
12, 21899, Note_on_c, 2, 38, 95
12, 21959, Note_off_c, 2, 38, 0
12, 21959, Note_on_c, 2, 38, 95
12, 22019, Note_off_c, 2, 38, 0
12, 22019, Note_on_c, 2, 38, 95
12, 22049, Note_off_c, 2, 38, 0
12, 22049, Note_on_c, 2, 33, 95
12, 22079, Note_off_c, 2, 33, 0
12, 22079, Note_on_c, 2, 36, 95
12, 22139, Note_off_c, 2, 36, 0
12, 22139, Note_on_c, 2, 36, 95
12, 22199, Note_off_c, 2, 36, 0
12, 22199, Note_on_c, 2, 36, 95
12, 22259, Note_off_c, 2, 36, 0
12, 22259, Note_on_c, 2, 36, 95
12, 22319, Note_off_c, 2, 36, 0
12, 22319, Note_on_c, 2, 36, 95
12, 22379, Note_off_c, 2, 36, 0
12, 22379, Note_on_c, 2, 36, 95
12, 22439, Note_off_c, 2, 36, 0
12, 22439, Note_on_c, 2, 36, 95
12, 22499, Note_off_c, 2, 36, 0
12, 22499, Note_on_c, 2, 36, 95
12, 22559, Note_off_c, 2, 36, 0
12, 22559, Note_on_c, 2, 35, 95
12, 22619, Note_off_c, 2, 35, 0
12, 22619, Note_on_c, 2, 35, 95
12, 22679, Note_off_c, 2, 35, 0
12, 22679, Note_on_c, 2, 35, 95
12, 22719, Note_off_c, 2, 35, 0
12, 22719, Note_on_c, 2, 33, 95
12, 22759, Note_off_c, 2, 33, 0
12, 22759, Note_on_c, 2, 35, 95
12, 22799, Note_off_c, 2, 35, 0
12, 22799, Note_on_c, 2, 28, 95
12, 22859, Note_off_c, 2, 28, 0
12, 22859, Note_on_c, 2, 28, 95
12, 22919, Note_off_c, 2, 28, 0
12, 22919, Note_on_c, 2, 40, 95
12, 23039, Note_off_c, 2, 40, 0
12, 23039, Note_on_c, 2, 33, 95
12, 23159, Note_off_c, 2, 33, 0
12, 23159, Note_on_c, 2, 45, 95
12, 23219, Note_off_c, 2, 45, 0
12, 23219, Note_on_c, 2, 40, 95
12, 23279, Note_off_c, 2, 40, 0
12, 23279, Note_on_c, 2, 45, 95
12, 23339, Note_off_c, 2, 45, 0
12, 23339, Note_on_c, 2, 40, 95
12, 23399, Note_off_c, 2, 40, 0
12, 23399, Note_on_c, 2, 45, 95
12, 23429, Note_off_c, 2, 45, 0
12, 23429, Note_on_c, 2, 40, 95
12, 23459, Note_off_c, 2, 40, 0
12, 23459, Note_on_c, 2, 33, 95
12, 23519, Note_off_c, 2, 33, 0
12, 23519, Note_on_c, 2, 38, 95
12, 23579, Note_off_c, 2, 38, 0
12, 23579, Note_on_c, 2, 38, 95
12, 23639, Note_off_c, 2, 38, 0
12, 23639, Note_on_c, 2, 38, 95
12, 23699, Note_off_c, 2, 38, 0
12, 23699, Note_on_c, 2, 38, 95
12, 23759, Note_off_c, 2, 38, 0
12, 23759, Note_on_c, 2, 38, 95
12, 23819, Note_off_c, 2, 38, 0
12, 23819, Note_on_c, 2, 38, 95
12, 23879, Note_off_c, 2, 38, 0
12, 23879, Note_on_c, 2, 38, 95
12, 23939, Note_off_c, 2, 38, 0
12, 23939, Note_on_c, 2, 38, 95
12, 23969, Note_off_c, 2, 38, 0
12, 23969, Note_on_c, 2, 33, 95
12, 23999, Note_off_c, 2, 33, 0
12, 23999, Note_on_c, 2, 36, 95
12, 24059, Note_off_c, 2, 36, 0
12, 24059, Note_on_c, 2, 36, 95
12, 24119, Note_off_c, 2, 36, 0
12, 24119, Note_on_c, 2, 36, 95
12, 24179, Note_off_c, 2, 36, 0
12, 24179, Note_on_c, 2, 36, 95
12, 24239, Note_off_c, 2, 36, 0
12, 24239, Note_on_c, 2, 36, 95
12, 24299, Note_off_c, 2, 36, 0
12, 24299, Note_on_c, 2, 36, 95
12, 24359, Note_off_c, 2, 36, 0
12, 24359, Note_on_c, 2, 36, 95
12, 24419, Note_off_c, 2, 36, 0
12, 24419, Note_on_c, 2, 36, 95
12, 24479, Note_off_c, 2, 36, 0
12, 24479, Note_on_c, 2, 35, 95
12, 24539, Note_off_c, 2, 35, 0
12, 24539, Note_on_c, 2, 35, 95
12, 24599, Note_off_c, 2, 35, 0
12, 24599, Note_on_c, 2, 35, 95
12, 24659, Note_off_c, 2, 35, 0
12, 24659, Note_on_c, 2, 35, 95
12, 24719, Note_off_c, 2, 35, 0
12, 24719, Note_on_c, 2, 35, 95
12, 24779, Note_off_c, 2, 35, 0
12, 24779, Note_on_c, 2, 35, 95
12, 24839, Note_off_c, 2, 35, 0
12, 24839, Note_on_c, 2, 35, 95
12, 24869, Note_off_c, 2, 35, 0
12, 24869, Note_on_c, 2, 35, 95
12, 24899, Note_off_c, 2, 35, 0
12, 24899, Note_on_c, 2, 35, 95
12, 24959, Note_off_c, 2, 35, 0
12, 24959, Note_on_c, 2, 40, 95
12, 25019, Note_off_c, 2, 40, 0
12, 25019, Note_on_c, 2, 40, 95
12, 25079, Note_off_c, 2, 40, 0
12, 25079, Note_on_c, 2, 40, 95
12, 25139, Note_off_c, 2, 40, 0
12, 25139, Note_on_c, 2, 40, 95
12, 25199, Note_off_c, 2, 40, 0
12, 25199, Note_on_c, 2, 40, 95
12, 25259, Note_off_c, 2, 40, 0
12, 25259, Note_on_c, 2, 40, 95
12, 25319, Note_off_c, 2, 40, 0
12, 25319, Note_on_c, 2, 40, 95
12, 25349, Note_off_c, 2, 40, 0
12, 25349, Note_on_c, 2, 38, 95
12, 25379, Note_off_c, 2, 38, 0
12, 25379, Note_on_c, 2, 36, 95
12, 25409, Note_off_c, 2, 36, 0
12, 25409, Note_on_c, 2, 35, 95
12, 25439, Note_off_c, 2, 35, 0
12, 25439, Note_on_c, 2, 33, 95
12, 25679, Note_off_c, 2, 33, 0
12, 25679, Note_on_c, 2, 45, 95
12, 25739, Note_off_c, 2, 45, 0
12, 25739, Note_on_c, 2, 33, 95
12, 25859, Note_off_c, 2, 33, 0
12, 25859, Note_on_c, 2, 33, 95
12, 25919, Note_off_c, 2, 33, 0
12, 25919, Note_on_c, 2, 32, 95
12, 26099, Note_off_c, 2, 32, 0
12, 26099, Note_on_c, 2, 32, 95
12, 26159, Note_off_c, 2, 32, 0
12, 26159, Note_on_c, 2, 32, 95
12, 26219, Note_off_c, 2, 32, 0
12, 26219, Note_on_c, 2, 32, 95
12, 26279, Note_off_c, 2, 32, 0
12, 26279, Note_on_c, 2, 32, 95
12, 26369, Note_off_c, 2, 32, 0
12, 26369, Note_on_c, 2, 32, 95
12, 26399, Note_off_c, 2, 32, 0
12, 26399, Note_on_c, 2, 31, 95
12, 26579, Note_off_c, 2, 31, 0
12, 26579, Note_on_c, 2, 31, 95
12, 26639, Note_off_c, 2, 31, 0
12, 26639, Note_on_c, 2, 31, 95
12, 26699, Note_off_c, 2, 31, 0
12, 26699, Note_on_c, 2, 31, 95
12, 26759, Note_off_c, 2, 31, 0
12, 26759, Note_on_c, 2, 31, 95
12, 26849, Note_off_c, 2, 31, 0
12, 26849, Note_on_c, 2, 31, 95
12, 26879, Note_off_c, 2, 31, 0
12, 26879, Note_on_c, 2, 30, 95
12, 27059, Note_off_c, 2, 30, 0
12, 27059, Note_on_c, 2, 30, 95
12, 27119, Note_off_c, 2, 30, 0
12, 27119, Note_on_c, 2, 30, 95
12, 27179, Note_off_c, 2, 30, 0
12, 27179, Note_on_c, 2, 30, 95
12, 27239, Note_off_c, 2, 30, 0
12, 27299, Note_on_c, 2, 30, 95
12, 27329, Note_off_c, 2, 30, 0
12, 27329, Note_on_c, 2, 30, 95
12, 27359, Note_off_c, 2, 30, 0
12, 27359, Note_on_c, 2, 29, 95
12, 27479, Note_off_c, 2, 29, 0
12, 27569, Note_on_c, 2, 29, 95
12, 27599, Note_off_c, 2, 29, 0
12, 27599, Note_on_c, 2, 29, 95
12, 27659, Note_off_c, 2, 29, 0
12, 27659, Note_on_c, 2, 29, 95
12, 27689, Note_off_c, 2, 29, 0
12, 27689, Note_on_c, 2, 29, 95
12, 27719, Note_off_c, 2, 29, 0
12, 27719, Note_on_c, 2, 29, 95
12, 27779, Note_off_c, 2, 29, 0
12, 27779, Note_on_c, 2, 29, 95
12, 27839, Note_off_c, 2, 29, 0
12, 27839, Note_on_c, 2, 33, 95
12, 28019, Note_off_c, 2, 33, 0
12, 28019, Note_on_c, 2, 28, 95
12, 28079, Note_off_c, 2, 28, 0
12, 28079, Note_on_c, 2, 33, 95
12, 28139, Note_off_c, 2, 33, 0
12, 28139, Note_on_c, 2, 28, 95
12, 28199, Note_off_c, 2, 28, 0
12, 28199, Note_on_c, 2, 33, 95
12, 28289, Note_off_c, 2, 33, 0
12, 28289, Note_on_c, 2, 28, 95
12, 28319, Note_off_c, 2, 28, 0
12, 28319, Note_on_c, 2, 35, 95
12, 28499, Note_off_c, 2, 35, 0
12, 28499, Note_on_c, 2, 42, 95
12, 28559, Note_off_c, 2, 42, 0
12, 28559, Note_on_c, 2, 35, 95
12, 28619, Note_off_c, 2, 35, 0
12, 28619, Note_on_c, 2, 35, 95
12, 28739, Note_off_c, 2, 35, 0
12, 28739, Note_on_c, 2, 35, 95
12, 28799, Note_off_c, 2, 35, 0
12, 28799, Note_on_c, 2, 38, 95
12, 28979, Note_off_c, 2, 38, 0
12, 28979, Note_on_c, 2, 38, 95
12, 29009, Note_off_c, 2, 38, 0
12, 29009, Note_on_c, 2, 39, 95
12, 29039, Note_off_c, 2, 39, 0
12, 29039, Note_on_c, 2, 40, 95
12, 29099, Note_off_c, 2, 40, 0
12, 29099, Note_on_c, 2, 40, 95
12, 29129, Note_off_c, 2, 40, 0
12, 29129, Note_on_c, 2, 38, 95
12, 29159, Note_off_c, 2, 38, 0
12, 29159, Note_on_c, 2, 40, 95
12, 29189, Note_off_c, 2, 40, 0
12, 29189, Note_on_c, 2, 38, 95
12, 29219, Note_off_c, 2, 38, 0
12, 29219, Note_on_c, 2, 40, 95
12, 29249, Note_off_c, 2, 40, 0
12, 29249, Note_on_c, 2, 36, 95
12, 29279, Note_off_c, 2, 36, 0
12, 29279, Note_on_c, 2, 33, 95
12, 29519, Note_off_c, 2, 33, 0
12, 29519, Note_on_c, 2, 31, 95
12, 29579, Note_off_c, 2, 31, 0
12, 29579, Note_on_c, 2, 31, 95
12, 29699, Note_off_c, 2, 31, 0
12, 29699, Note_on_c, 2, 36, 95
12, 29729, Note_off_c, 2, 36, 0
12, 29729, Note_on_c, 2, 37, 95
12, 29759, Note_off_c, 2, 37, 0
12, 29759, Note_on_c, 2, 38, 95
12, 29939, Note_off_c, 2, 38, 0
12, 29939, Note_on_c, 2, 38, 95
12, 29999, Note_off_c, 2, 38, 0
12, 29999, Note_on_c, 2, 31, 95
12, 30119, Note_off_c, 2, 31, 0
12, 30119, Note_on_c, 2, 43, 95
12, 30239, Note_off_c, 2, 43, 0
12, 30239, Note_on_c, 2, 36, 95
12, 30419, Note_off_c, 2, 36, 0
12, 30419, Note_on_c, 2, 28, 95
12, 30479, Note_off_c, 2, 28, 0
12, 30479, Note_on_c, 2, 29, 95
12, 30599, Note_off_c, 2, 29, 0
12, 30599, Note_on_c, 2, 29, 95
12, 30659, Note_off_c, 2, 29, 0
12, 30689, Note_on_c, 2, 33, 95
12, 30719, Note_off_c, 2, 33, 0
12, 30719, Note_on_c, 2, 35, 95
12, 30959, Note_off_c, 2, 35, 0
12, 30959, Note_on_c, 2, 40, 95
12, 31079, Note_off_c, 2, 40, 0
12, 31079, Note_on_c, 2, 28, 95
12, 31199, Note_off_c, 2, 28, 0
12, 31199, Note_on_c, 2, 33, 95
12, 31379, Note_off_c, 2, 33, 0
12, 31379, Note_on_c, 2, 33, 95
12, 31439, Note_off_c, 2, 33, 0
12, 31439, Note_on_c, 2, 31, 95
12, 31499, Note_off_c, 2, 31, 0
12, 31499, Note_on_c, 2, 31, 95
12, 31619, Note_off_c, 2, 31, 0
12, 31649, Note_on_c, 2, 36, 95
12, 31679, Note_off_c, 2, 36, 0
12, 31679, Note_on_c, 2, 38, 95
12, 31889, Note_off_c, 2, 38, 0
12, 31889, Note_on_c, 2, 28, 95
12, 31919, Note_off_c, 2, 28, 0
12, 31919, Note_on_c, 2, 31, 95
12, 31979, Note_off_c, 2, 31, 0
12, 32039, Note_on_c, 2, 35, 95
12, 32099, Note_off_c, 2, 35, 0
12, 32159, Note_on_c, 2, 36, 95
12, 32339, Note_off_c, 2, 36, 0
12, 32339, Note_on_c, 2, 28, 95
12, 32399, Note_on_c, 2, 29, 95
12, 32429, Note_off_c, 2, 28, 0
12, 32579, Note_off_c, 2, 29, 0
12, 32639, Note_on_c, 2, 35, 95
12, 32879, Note_off_c, 2, 35, 0
12, 32879, Note_on_c, 2, 28, 95
12, 32999, Note_off_c, 2, 28, 0
12, 32999, Note_on_c, 2, 28, 95
12, 33119, Note_off_c, 2, 28, 0
12, 33119, Note_on_c, 2, 33, 95
12, 33359, Note_off_c, 2, 33, 0
12, 33359, Note_on_c, 2, 31, 95
12, 33539, Note_off_c, 2, 31, 0
12, 33539, Note_on_c, 2, 36, 95
12, 33599, Note_off_c, 2, 36, 0
12, 33599, Note_on_c, 2, 38, 95
12, 33779, Note_off_c, 2, 38, 0
12, 33779, Note_on_c, 2, 38, 95
12, 33809, Note_off_c, 2, 38, 0
12, 33809, Note_on_c, 2, 38, 95
12, 33839, Note_off_c, 2, 38, 0
12, 33839, Note_on_c, 2, 31, 95
12, 33899, Note_off_c, 2, 31, 0
12, 33899, Note_on_c, 2, 31, 95
12, 33959, Note_off_c, 2, 31, 0
12, 33959, Note_on_c, 2, 43, 95
12, 34019, Note_off_c, 2, 43, 0
12, 34019, Note_on_c, 2, 31, 95
12, 34079, Note_off_c, 2, 31, 0
12, 34079, Note_on_c, 2, 36, 95
12, 34289, Note_off_c, 2, 36, 0
12, 34289, Note_on_c, 2, 28, 95
12, 34319, Note_off_c, 2, 28, 0
12, 34319, Note_on_c, 2, 29, 95
12, 34379, Note_off_c, 2, 29, 0
12, 34379, Note_on_c, 2, 29, 95
12, 34439, Note_off_c, 2, 29, 0
12, 34499, Note_on_c, 2, 33, 95
12, 34529, Note_off_c, 2, 33, 0
12, 34529, Note_on_c, 2, 34, 95
12, 34559, Note_off_c, 2, 34, 0
12, 34559, Note_on_c, 2, 35, 95
12, 34739, Note_off_c, 2, 35, 0
12, 34739, Note_on_c, 2, 35, 95
12, 34799, Note_off_c, 2, 35, 0
12, 34799, Note_on_c, 2, 28, 95
12, 34859, Note_off_c, 2, 28, 0
12, 34859, Note_on_c, 2, 28, 95
12, 34919, Note_off_c, 2, 28, 0
12, 34919, Note_on_c, 2, 28, 95
12, 34949, Note_off_c, 2, 28, 0
12, 34949, Note_on_c, 2, 28, 95
12, 34979, Note_off_c, 2, 28, 0
12, 34979, Note_on_c, 2, 28, 95
12, 35039, Note_off_c, 2, 28, 0
12, 35039, Note_on_c, 2, 33, 95
12, 35219, Note_off_c, 2, 33, 0
12, 35219, Note_on_c, 2, 33, 95
12, 35279, Note_off_c, 2, 33, 0
12, 35279, Note_on_c, 2, 31, 95
12, 35339, Note_off_c, 2, 31, 0
12, 35339, Note_on_c, 2, 31, 95
12, 35459, Note_off_c, 2, 31, 0
12, 35459, Note_on_c, 2, 33, 95
12, 35489, Note_off_c, 2, 33, 0
12, 35489, Note_on_c, 2, 36, 95
12, 35519, Note_off_c, 2, 36, 0
12, 35519, Note_on_c, 2, 38, 95
12, 35639, Note_off_c, 2, 38, 0
12, 35639, Note_on_c, 2, 38, 95
12, 35699, Note_off_c, 2, 38, 0
12, 35699, Note_on_c, 2, 38, 95
12, 35729, Note_off_c, 2, 38, 0
12, 35729, Note_on_c, 2, 33, 95
12, 35759, Note_off_c, 2, 33, 0
12, 35759, Note_on_c, 2, 43, 95
12, 35819, Note_on_c, 2, 38, 95
12, 35849, Note_off_c, 2, 43, 0
12, 35879, Note_off_c, 2, 38, 0
12, 35879, Note_on_c, 2, 43, 95
12, 35939, Note_off_c, 2, 43, 0
12, 35939, Note_on_c, 2, 31, 95
12, 35999, Note_off_c, 2, 31, 0
12, 35999, Note_on_c, 2, 36, 95
12, 36059, Note_off_c, 2, 36, 0
12, 36059, Note_on_c, 2, 36, 95
12, 36179, Note_off_c, 2, 36, 0
12, 36179, Note_on_c, 2, 28, 95
12, 36239, Note_off_c, 2, 28, 0
12, 36239, Note_on_c, 2, 29, 95
12, 36299, Note_off_c, 2, 29, 0
12, 36299, Note_on_c, 2, 29, 95
12, 36359, Note_off_c, 2, 29, 0
12, 36419, Note_on_c, 2, 29, 95
12, 36479, Note_off_c, 2, 29, 0
12, 36479, Note_on_c, 2, 35, 95
12, 36539, Note_off_c, 2, 35, 0
12, 36539, Note_on_c, 2, 35, 95
12, 36659, Note_off_c, 2, 35, 0
12, 36659, Note_on_c, 2, 35, 95
12, 36719, Note_off_c, 2, 35, 0
12, 36719, Note_on_c, 2, 40, 95
12, 36779, Note_off_c, 2, 40, 0
12, 36779, Note_on_c, 2, 40, 95
12, 36839, Note_off_c, 2, 40, 0
12, 36839, Note_on_c, 2, 28, 95
12, 36899, Note_off_c, 2, 28, 0
12, 36899, Note_on_c, 2, 28, 95
12, 36959, Note_off_c, 2, 28, 0
12, 36959, Note_on_c, 2, 33, 95
12, 37139, Note_off_c, 2, 33, 0
12, 37139, Note_on_c, 2, 33, 95
12, 37199, Note_off_c, 2, 33, 0
12, 37199, Note_on_c, 2, 31, 95
12, 37439, Note_off_c, 2, 31, 0
12, 37439, Note_on_c, 2, 38, 95
12, 37679, Note_off_c, 2, 38, 0
12, 37679, Note_on_c, 2, 31, 95
12, 37739, Note_off_c, 2, 31, 0
12, 37739, Note_on_c, 2, 31, 95
12, 37799, Note_off_c, 2, 31, 0
12, 37889, Note_on_c, 2, 38, 95
12, 37919, Note_off_c, 2, 38, 0
12, 37919, Note_on_c, 2, 36, 95
12, 38159, Note_off_c, 2, 36, 0
12, 38159, Note_on_c, 2, 29, 95
12, 38219, Note_off_c, 2, 29, 0
12, 38219, Note_on_c, 2, 29, 95
12, 38399, Note_off_c, 2, 29, 0
12, 38399, Note_on_c, 2, 35, 95
12, 38639, Note_off_c, 2, 35, 0
12, 38639, Note_on_c, 2, 28, 95
12, 38759, Note_off_c, 2, 28, 0
12, 38759, Note_on_c, 2, 28, 95
12, 38879, Note_off_c, 2, 28, 0
12, 38879, Note_on_c, 2, 33, 95
12, 39059, Note_off_c, 2, 33, 0
12, 39059, Note_on_c, 2, 33, 95
12, 39119, Note_off_c, 2, 33, 0
12, 39119, Note_on_c, 2, 31, 95
12, 39179, Note_off_c, 2, 31, 0
12, 39179, Note_on_c, 2, 31, 95
12, 39299, Note_off_c, 2, 31, 0
12, 39299, Note_on_c, 2, 33, 95
12, 39329, Note_off_c, 2, 33, 0
12, 39329, Note_on_c, 2, 36, 95
12, 39359, Note_off_c, 2, 36, 0
12, 39359, Note_on_c, 2, 38, 95
12, 39479, Note_off_c, 2, 38, 0
12, 39479, Note_on_c, 2, 38, 95
12, 39539, Note_off_c, 2, 38, 0
12, 39539, Note_on_c, 2, 38, 95
12, 39569, Note_off_c, 2, 38, 0
12, 39569, Note_on_c, 2, 33, 95
12, 39599, Note_off_c, 2, 33, 0
12, 39599, Note_on_c, 2, 43, 95
12, 39659, Note_on_c, 2, 38, 95
12, 39689, Note_off_c, 2, 43, 0
12, 39719, Note_off_c, 2, 38, 0
12, 39719, Note_on_c, 2, 43, 95
12, 39779, Note_off_c, 2, 43, 0
12, 39779, Note_on_c, 2, 31, 95
12, 39839, Note_off_c, 2, 31, 0
12, 39839, Note_on_c, 2, 36, 95
12, 39899, Note_off_c, 2, 36, 0
12, 39899, Note_on_c, 2, 36, 95
12, 40019, Note_off_c, 2, 36, 0
12, 40019, Note_on_c, 2, 28, 95
12, 40079, Note_off_c, 2, 28, 0
12, 40079, Note_on_c, 2, 29, 95
12, 40139, Note_off_c, 2, 29, 0
12, 40139, Note_on_c, 2, 29, 95
12, 40199, Note_off_c, 2, 29, 0
12, 40259, Note_on_c, 2, 29, 95
12, 40319, Note_off_c, 2, 29, 0
12, 40319, Note_on_c, 2, 35, 95
12, 40379, Note_off_c, 2, 35, 0
12, 40379, Note_on_c, 2, 35, 95
12, 40499, Note_off_c, 2, 35, 0
12, 40499, Note_on_c, 2, 35, 95
12, 40559, Note_off_c, 2, 35, 0
12, 40559, Note_on_c, 2, 40, 95
12, 40619, Note_off_c, 2, 40, 0
12, 40619, Note_on_c, 2, 40, 95
12, 40679, Note_off_c, 2, 40, 0
12, 40679, Note_on_c, 2, 28, 95
12, 40739, Note_off_c, 2, 28, 0
12, 40739, Note_on_c, 2, 28, 95
12, 40799, Note_off_c, 2, 28, 0
12, 40799, Note_on_c, 2, 33, 95
12, 41039, Note_off_c, 2, 33, 0
12, 41039, Note_on_c, 2, 33, 95
12, 41279, Note_off_c, 2, 33, 0
12, 41279, End_track
0, 0, End_of_file
