0, 0, Header, 1, 13, 120
1, 0, Start_track
1, 0, Title_t, "One Less Bell To Answer, Lyrics by Hal David, Music by Burt Bacharach"
1, 0, Title_t, "Recorded by The 5th Dimension"
1, 0, Text_t, "Sequenced by Deb Ackley, 08/18/98\012"
1, 0, Text_t, "deb@who.net\012"
1, 0, Text_t, "MIDI Haven, http://midihaven.com/midi.html\012"
1, 0, MIDI_port, 0
1, 0, System_exclusive, 5, 126, 127, 9, 1, 247
1, 0, MIDI_port, 0
1, 0, Time_signature, 4, 2, 24, 8
1, 0, Key_signature, -1, "major"
1, 0, Tempo, 714286
1, 5280, Time_signature, 2, 2, 24, 8
1, 5520, Time_signature, 4, 2, 24, 8
1, 5520, End_track
2, 0, Start_track
2, 0, MIDI_port, 0
2, 0, Title_t, "Bass"
2, 0, Control_c, 1, 121, 0
2, 0, Control_c, 1, 123, 0
2, 0, Control_c, 1, 91, 40
2, 0, Control_c, 1, 93, 0
2, 0, Control_c, 1, 64, 0
2, 127, Program_c, 1, 35
2, 128, Control_c, 1, 7, 95
2, 128, Control_c, 1, 10, 64
2, 961, Note_on_c, 1, 41, 60
2, 1127, Note_on_c, 1, 41, 0
2, 1139, Note_on_c, 1, 41, 68
2, 1197, Note_on_c, 1, 41, 0
2, 1202, Note_on_c, 1, 36, 68
2, 1371, Note_on_c, 1, 36, 0
2, 1379, Note_on_c, 1, 36, 55
2, 1442, Note_on_c, 1, 36, 0
2, 1442, Note_on_c, 1, 41, 78
2, 1677, Note_on_c, 1, 41, 0
2, 1680, Note_on_c, 1, 36, 69
2, 1917, Note_on_c, 1, 36, 0
2, 1921, Note_on_c, 1, 41, 60
2, 2087, Note_on_c, 1, 41, 0
2, 2099, Note_on_c, 1, 41, 68
2, 2157, Note_on_c, 1, 41, 0
2, 2162, Note_on_c, 1, 36, 68
2, 2331, Note_on_c, 1, 36, 0
2, 2339, Note_on_c, 1, 36, 55
2, 2400, Note_on_c, 1, 36, 0
2, 2401, Note_on_c, 1, 41, 60
2, 2567, Note_on_c, 1, 41, 0
2, 2579, Note_on_c, 1, 41, 68
2, 2637, Note_on_c, 1, 41, 0
2, 2641, Note_on_c, 1, 41, 60
2, 2807, Note_on_c, 1, 41, 0
2, 2819, Note_on_c, 1, 41, 68
2, 2877, Note_on_c, 1, 41, 0
2, 2881, Note_on_c, 1, 40, 60
2, 3047, Note_on_c, 1, 40, 0
2, 3059, Note_on_c, 1, 40, 68
2, 3117, Note_on_c, 1, 40, 0
2, 3122, Note_on_c, 1, 33, 68
2, 3291, Note_on_c, 1, 33, 0
2, 3299, Note_on_c, 1, 33, 55
2, 3360, Note_on_c, 1, 33, 0
2, 3361, Note_on_c, 1, 38, 60
2, 3527, Note_on_c, 1, 38, 0
2, 3539, Note_on_c, 1, 38, 68
2, 3597, Note_on_c, 1, 38, 0
2, 3602, Note_on_c, 1, 33, 68
2, 3771, Note_on_c, 1, 33, 0
2, 3779, Note_on_c, 1, 33, 55
2, 3840, Note_on_c, 1, 33, 0
2, 3841, Note_on_c, 1, 34, 60
2, 4007, Note_on_c, 1, 34, 0
2, 4019, Note_on_c, 1, 34, 68
2, 4077, Note_on_c, 1, 34, 0
2, 4082, Note_on_c, 1, 29, 68
2, 4251, Note_on_c, 1, 29, 0
2, 4259, Note_on_c, 1, 29, 55
2, 4320, Note_on_c, 1, 29, 0
2, 4321, Note_on_c, 1, 33, 60
2, 4487, Note_on_c, 1, 33, 0
2, 4499, Note_on_c, 1, 33, 68
2, 4557, Note_on_c, 1, 33, 0
2, 4561, Note_on_c, 1, 33, 60
2, 4727, Note_on_c, 1, 33, 0
2, 4739, Note_on_c, 1, 33, 68
2, 4797, Note_on_c, 1, 33, 0
2, 4801, Note_on_c, 1, 38, 60
2, 4967, Note_on_c, 1, 38, 0
2, 4979, Note_on_c, 1, 38, 68
2, 5037, Note_on_c, 1, 38, 0
2, 5041, Note_on_c, 1, 43, 60
2, 5207, Note_on_c, 1, 43, 0
2, 5219, Note_on_c, 1, 43, 68
2, 5277, Note_on_c, 1, 43, 0
2, 5281, Note_on_c, 1, 43, 60
2, 5447, Note_on_c, 1, 43, 0
2, 5459, Note_on_c, 1, 43, 68
2, 5517, Note_on_c, 1, 43, 0
2, 5521, Note_on_c, 1, 43, 60
2, 5640, Note_on_c, 1, 43, 0
2, 5641, Note_on_c, 1, 33, 60
2, 5760, Note_on_c, 1, 33, 0
2, 5761, Note_on_c, 1, 34, 60
2, 5880, Note_on_c, 1, 34, 0
2, 5881, Note_on_c, 1, 36, 60
2, 6000, Note_on_c, 1, 36, 0
2, 6001, Note_on_c, 1, 41, 60
2, 6167, Note_on_c, 1, 41, 0
2, 6179, Note_on_c, 1, 41, 68
2, 6237, Note_on_c, 1, 41, 0
2, 6242, Note_on_c, 1, 36, 68
2, 6411, Note_on_c, 1, 36, 0
2, 6419, Note_on_c, 1, 36, 55
2, 6480, Note_on_c, 1, 36, 0
2, 6481, Note_on_c, 1, 41, 60
2, 6647, Note_on_c, 1, 41, 0
2, 6659, Note_on_c, 1, 41, 68
2, 6717, Note_on_c, 1, 41, 0
2, 6721, Note_on_c, 1, 41, 60
2, 6887, Note_on_c, 1, 41, 0
2, 6899, Note_on_c, 1, 41, 68
2, 6957, Note_on_c, 1, 41, 0
2, 6961, Note_on_c, 1, 40, 60
2, 7127, Note_on_c, 1, 40, 0
2, 7139, Note_on_c, 1, 40, 68
2, 7197, Note_on_c, 1, 40, 0
2, 7202, Note_on_c, 1, 33, 68
2, 7371, Note_on_c, 1, 33, 0
2, 7379, Note_on_c, 1, 33, 55
2, 7440, Note_on_c, 1, 33, 0
2, 7441, Note_on_c, 1, 38, 60
2, 7607, Note_on_c, 1, 38, 0
2, 7619, Note_on_c, 1, 38, 68
2, 7677, Note_on_c, 1, 38, 0
2, 7682, Note_on_c, 1, 33, 68
2, 7851, Note_on_c, 1, 33, 0
2, 7859, Note_on_c, 1, 33, 55
2, 7920, Note_on_c, 1, 33, 0
2, 7921, Note_on_c, 1, 34, 60
2, 8087, Note_on_c, 1, 34, 0
2, 8099, Note_on_c, 1, 34, 68
2, 8157, Note_on_c, 1, 34, 0
2, 8162, Note_on_c, 1, 29, 68
2, 8331, Note_on_c, 1, 29, 0
2, 8339, Note_on_c, 1, 29, 55
2, 8400, Note_on_c, 1, 29, 0
2, 8401, Note_on_c, 1, 33, 60
2, 8567, Note_on_c, 1, 33, 0
2, 8579, Note_on_c, 1, 33, 68
2, 8637, Note_on_c, 1, 33, 0
2, 8641, Note_on_c, 1, 33, 60
2, 8807, Note_on_c, 1, 33, 0
2, 8819, Note_on_c, 1, 33, 68
2, 8877, Note_on_c, 1, 33, 0
2, 8881, Note_on_c, 1, 42, 60
2, 9047, Note_on_c, 1, 42, 0
2, 9059, Note_on_c, 1, 42, 68
2, 9117, Note_on_c, 1, 42, 0
2, 9122, Note_on_c, 1, 37, 68
2, 9291, Note_on_c, 1, 37, 0
2, 9299, Note_on_c, 1, 37, 55
2, 9360, Note_on_c, 1, 37, 0
2, 9361, Note_on_c, 1, 34, 60
2, 9527, Note_on_c, 1, 34, 0
2, 9539, Note_on_c, 1, 34, 68
2, 9597, Note_on_c, 1, 34, 0
2, 9602, Note_on_c, 1, 29, 68
2, 9771, Note_on_c, 1, 29, 0
2, 9779, Note_on_c, 1, 29, 55
2, 9840, Note_on_c, 1, 29, 0
2, 9841, Note_on_c, 1, 35, 60
2, 10007, Note_on_c, 1, 35, 0
2, 10019, Note_on_c, 1, 35, 68
2, 10077, Note_on_c, 1, 35, 0
2, 10082, Note_on_c, 1, 30, 68
2, 10251, Note_on_c, 1, 30, 0
2, 10259, Note_on_c, 1, 30, 55
2, 10320, Note_on_c, 1, 30, 0
2, 10321, Note_on_c, 1, 34, 60
2, 10487, Note_on_c, 1, 34, 0
2, 10499, Note_on_c, 1, 34, 68
2, 10557, Note_on_c, 1, 34, 0
2, 10561, Note_on_c, 1, 34, 60
2, 10680, Note_on_c, 1, 34, 0
2, 10681, Note_on_c, 1, 34, 60
2, 10800, Note_on_c, 1, 34, 0
2, 10801, Note_on_c, 1, 39, 60
2, 10967, Note_on_c, 1, 39, 0
2, 10979, Note_on_c, 1, 39, 68
2, 11037, Note_on_c, 1, 39, 0
2, 11041, Note_on_c, 1, 43, 60
2, 11207, Note_on_c, 1, 43, 0
2, 11219, Note_on_c, 1, 43, 68
2, 11277, Note_on_c, 1, 43, 0
2, 11281, Note_on_c, 1, 44, 60
2, 11447, Note_on_c, 1, 44, 0
2, 11459, Note_on_c, 1, 44, 68
2, 11517, Note_on_c, 1, 44, 0
2, 11521, Note_on_c, 1, 43, 60
2, 11640, Note_on_c, 1, 43, 0
2, 11641, Note_on_c, 1, 43, 60
2, 11760, Note_on_c, 1, 43, 0
2, 11761, Note_on_c, 1, 44, 60
2, 11927, Note_on_c, 1, 44, 0
2, 11939, Note_on_c, 1, 44, 68
2, 11997, Note_on_c, 1, 44, 0
2, 12001, Note_on_c, 1, 43, 60
2, 12120, Note_on_c, 1, 43, 0
2, 12121, Note_on_c, 1, 43, 60
2, 12240, Note_on_c, 1, 43, 0
2, 12241, Note_on_c, 1, 43, 60
2, 12407, Note_on_c, 1, 43, 0
2, 12419, Note_on_c, 1, 43, 68
2, 12477, Note_on_c, 1, 43, 0
2, 12481, Note_on_c, 1, 43, 60
2, 12647, Note_on_c, 1, 43, 0
2, 12659, Note_on_c, 1, 43, 68
2, 12717, Note_on_c, 1, 43, 0
2, 12721, Note_on_c, 1, 43, 60
2, 12887, Note_on_c, 1, 43, 0
2, 12899, Note_on_c, 1, 43, 68
2, 12957, Note_on_c, 1, 43, 0
2, 12961, Note_on_c, 1, 36, 60
2, 13127, Note_on_c, 1, 36, 0
2, 13139, Note_on_c, 1, 36, 68
2, 13197, Note_on_c, 1, 36, 0
2, 13201, Note_on_c, 1, 43, 60
2, 13367, Note_on_c, 1, 43, 0
2, 13379, Note_on_c, 1, 43, 68
2, 13437, Note_on_c, 1, 43, 0
2, 13441, Note_on_c, 1, 36, 60
2, 13560, Note_on_c, 1, 36, 0
2, 13561, Note_on_c, 1, 38, 60
2, 13680, Note_on_c, 1, 38, 0
2, 13681, Note_on_c, 1, 41, 60
2, 13847, Note_on_c, 1, 41, 0
2, 13859, Note_on_c, 1, 41, 68
2, 13917, Note_on_c, 1, 41, 0
2, 13922, Note_on_c, 1, 36, 68
2, 14091, Note_on_c, 1, 36, 0
2, 14099, Note_on_c, 1, 36, 55
2, 14160, Note_on_c, 1, 36, 0
2, 14161, Note_on_c, 1, 41, 60
2, 14327, Note_on_c, 1, 41, 0
2, 14339, Note_on_c, 1, 41, 68
2, 14397, Note_on_c, 1, 41, 0
2, 14401, Note_on_c, 1, 41, 60
2, 14567, Note_on_c, 1, 41, 0
2, 14579, Note_on_c, 1, 41, 68
2, 14637, Note_on_c, 1, 41, 0
2, 14641, Note_on_c, 1, 40, 60
2, 14807, Note_on_c, 1, 40, 0
2, 14819, Note_on_c, 1, 40, 68
2, 14877, Note_on_c, 1, 40, 0
2, 14882, Note_on_c, 1, 33, 68
2, 15051, Note_on_c, 1, 33, 0
2, 15059, Note_on_c, 1, 33, 55
2, 15120, Note_on_c, 1, 33, 0
2, 15121, Note_on_c, 1, 38, 60
2, 15287, Note_on_c, 1, 38, 0
2, 15299, Note_on_c, 1, 38, 68
2, 15357, Note_on_c, 1, 38, 0
2, 15362, Note_on_c, 1, 33, 68
2, 15531, Note_on_c, 1, 33, 0
2, 15539, Note_on_c, 1, 33, 55
2, 15600, Note_on_c, 1, 33, 0
2, 15601, Note_on_c, 1, 34, 60
2, 15767, Note_on_c, 1, 34, 0
2, 15779, Note_on_c, 1, 34, 68
2, 15837, Note_on_c, 1, 34, 0
2, 15842, Note_on_c, 1, 29, 68
2, 16011, Note_on_c, 1, 29, 0
2, 16019, Note_on_c, 1, 29, 55
2, 16080, Note_on_c, 1, 29, 0
2, 16081, Note_on_c, 1, 33, 60
2, 16247, Note_on_c, 1, 33, 0
2, 16259, Note_on_c, 1, 33, 68
2, 16317, Note_on_c, 1, 33, 0
2, 16321, Note_on_c, 1, 38, 60
2, 16487, Note_on_c, 1, 38, 0
2, 16499, Note_on_c, 1, 38, 68
2, 16557, Note_on_c, 1, 38, 0
2, 16561, Note_on_c, 1, 43, 60
2, 16727, Note_on_c, 1, 43, 0
2, 16739, Note_on_c, 1, 43, 68
2, 16797, Note_on_c, 1, 43, 0
2, 16801, Note_on_c, 1, 36, 60
2, 16967, Note_on_c, 1, 36, 0
2, 16979, Note_on_c, 1, 36, 68
2, 17037, Note_on_c, 1, 36, 0
2, 17041, Note_on_c, 1, 33, 60
2, 17207, Note_on_c, 1, 33, 0
2, 17219, Note_on_c, 1, 33, 68
2, 17277, Note_on_c, 1, 33, 0
2, 17281, Note_on_c, 1, 38, 60
2, 17447, Note_on_c, 1, 38, 0
2, 17459, Note_on_c, 1, 38, 68
2, 17517, Note_on_c, 1, 38, 0
2, 17521, Note_on_c, 1, 38, 60
2, 17687, Note_on_c, 1, 38, 0
2, 17699, Note_on_c, 1, 38, 68
2, 17757, Note_on_c, 1, 38, 0
2, 17762, Note_on_c, 1, 33, 68
2, 17931, Note_on_c, 1, 33, 0
2, 17939, Note_on_c, 1, 33, 55
2, 18000, Note_on_c, 1, 33, 0
2, 18001, Note_on_c, 1, 43, 60
2, 18167, Note_on_c, 1, 43, 0
2, 18179, Note_on_c, 1, 43, 68
2, 18237, Note_on_c, 1, 43, 0
2, 18241, Note_on_c, 1, 33, 60
2, 18407, Note_on_c, 1, 33, 0
2, 18419, Note_on_c, 1, 33, 68
2, 18477, Note_on_c, 1, 33, 0
2, 18481, Note_on_c, 1, 34, 60
2, 18647, Note_on_c, 1, 34, 0
2, 18659, Note_on_c, 1, 34, 68
2, 18717, Note_on_c, 1, 34, 0
2, 18721, Note_on_c, 1, 36, 60
2, 18887, Note_on_c, 1, 36, 0
2, 18899, Note_on_c, 1, 36, 68
2, 18957, Note_on_c, 1, 36, 0
2, 18961, Note_on_c, 1, 36, 60
2, 19127, Note_on_c, 1, 36, 0
2, 19139, Note_on_c, 1, 36, 68
2, 19197, Note_on_c, 1, 36, 0
2, 19202, Note_on_c, 1, 31, 68
2, 19371, Note_on_c, 1, 31, 0
2, 19379, Note_on_c, 1, 31, 55
2, 19440, Note_on_c, 1, 31, 0
2, 19441, Note_on_c, 1, 41, 60
2, 19607, Note_on_c, 1, 41, 0
2, 19619, Note_on_c, 1, 41, 68
2, 19677, Note_on_c, 1, 41, 0
2, 19682, Note_on_c, 1, 36, 68
2, 19851, Note_on_c, 1, 36, 0
2, 19859, Note_on_c, 1, 36, 55
2, 19920, Note_on_c, 1, 36, 0
2, 19921, Note_on_c, 1, 41, 60
2, 20087, Note_on_c, 1, 41, 0
2, 20099, Note_on_c, 1, 41, 68
2, 20157, Note_on_c, 1, 41, 0
2, 20161, Note_on_c, 1, 41, 60
2, 20327, Note_on_c, 1, 41, 0
2, 20339, Note_on_c, 1, 41, 68
2, 20397, Note_on_c, 1, 41, 0
2, 20401, Note_on_c, 1, 40, 60
2, 20567, Note_on_c, 1, 40, 0
2, 20579, Note_on_c, 1, 40, 68
2, 20637, Note_on_c, 1, 40, 0
2, 20642, Note_on_c, 1, 33, 68
2, 20811, Note_on_c, 1, 33, 0
2, 20819, Note_on_c, 1, 33, 55
2, 20880, Note_on_c, 1, 33, 0
2, 20881, Note_on_c, 1, 38, 60
2, 21047, Note_on_c, 1, 38, 0
2, 21059, Note_on_c, 1, 38, 68
2, 21117, Note_on_c, 1, 38, 0
2, 21122, Note_on_c, 1, 33, 68
2, 21291, Note_on_c, 1, 33, 0
2, 21299, Note_on_c, 1, 33, 55
2, 21360, Note_on_c, 1, 33, 0
2, 21361, Note_on_c, 1, 34, 60
2, 21527, Note_on_c, 1, 34, 0
2, 21539, Note_on_c, 1, 34, 68
2, 21597, Note_on_c, 1, 34, 0
2, 21602, Note_on_c, 1, 29, 68
2, 21771, Note_on_c, 1, 29, 0
2, 21779, Note_on_c, 1, 29, 55
2, 21840, Note_on_c, 1, 29, 0
2, 21841, Note_on_c, 1, 33, 60
2, 22007, Note_on_c, 1, 33, 0
2, 22019, Note_on_c, 1, 33, 68
2, 22077, Note_on_c, 1, 33, 0
2, 22081, Note_on_c, 1, 38, 60
2, 22247, Note_on_c, 1, 38, 0
2, 22259, Note_on_c, 1, 38, 68
2, 22317, Note_on_c, 1, 38, 0
2, 22321, Note_on_c, 1, 43, 60
2, 22487, Note_on_c, 1, 43, 0
2, 22499, Note_on_c, 1, 43, 68
2, 22557, Note_on_c, 1, 43, 0
2, 22561, Note_on_c, 1, 36, 60
2, 22727, Note_on_c, 1, 36, 0
2, 22739, Note_on_c, 1, 36, 68
2, 22797, Note_on_c, 1, 36, 0
2, 22801, Note_on_c, 1, 33, 60
2, 22967, Note_on_c, 1, 33, 0
2, 22979, Note_on_c, 1, 33, 68
2, 23037, Note_on_c, 1, 33, 0
2, 23041, Note_on_c, 1, 38, 60
2, 23207, Note_on_c, 1, 38, 0
2, 23219, Note_on_c, 1, 38, 68
2, 23277, Note_on_c, 1, 38, 0
2, 23281, Note_on_c, 1, 38, 60
2, 23447, Note_on_c, 1, 38, 0
2, 23459, Note_on_c, 1, 38, 68
2, 23517, Note_on_c, 1, 38, 0
2, 23522, Note_on_c, 1, 33, 68
2, 23691, Note_on_c, 1, 33, 0
2, 23699, Note_on_c, 1, 33, 55
2, 23760, Note_on_c, 1, 33, 0
2, 23761, Note_on_c, 1, 43, 60
2, 23927, Note_on_c, 1, 43, 0
2, 23939, Note_on_c, 1, 43, 68
2, 23997, Note_on_c, 1, 43, 0
2, 24001, Note_on_c, 1, 33, 60
2, 24167, Note_on_c, 1, 33, 0
2, 24179, Note_on_c, 1, 33, 68
2, 24237, Note_on_c, 1, 33, 0
2, 24241, Note_on_c, 1, 34, 60
2, 24407, Note_on_c, 1, 34, 0
2, 24419, Note_on_c, 1, 34, 68
2, 24477, Note_on_c, 1, 34, 0
2, 24481, Note_on_c, 1, 36, 60
2, 24647, Note_on_c, 1, 36, 0
2, 24659, Note_on_c, 1, 36, 68
2, 24717, Note_on_c, 1, 36, 0
2, 24721, Note_on_c, 1, 36, 60
2, 24887, Note_on_c, 1, 36, 0
2, 24899, Note_on_c, 1, 36, 68
2, 24957, Note_on_c, 1, 36, 0
2, 24962, Note_on_c, 1, 31, 68
2, 25131, Note_on_c, 1, 31, 0
2, 25139, Note_on_c, 1, 31, 55
2, 25200, Note_on_c, 1, 31, 0
2, 25201, Note_on_c, 1, 41, 60
2, 25367, Note_on_c, 1, 41, 0
2, 25379, Note_on_c, 1, 41, 68
2, 25437, Note_on_c, 1, 41, 0
2, 25442, Note_on_c, 1, 36, 68
2, 25611, Note_on_c, 1, 36, 0
2, 25619, Note_on_c, 1, 36, 55
2, 25680, Note_on_c, 1, 36, 0
2, 25681, Note_on_c, 1, 41, 60
2, 25847, Note_on_c, 1, 41, 0
2, 25859, Note_on_c, 1, 41, 68
2, 25917, Note_on_c, 1, 41, 0
2, 25921, Note_on_c, 1, 41, 60
2, 26087, Note_on_c, 1, 41, 0
2, 26099, Note_on_c, 1, 41, 68
2, 26157, Note_on_c, 1, 41, 0
2, 26161, Note_on_c, 1, 40, 60
2, 26327, Note_on_c, 1, 40, 0
2, 26339, Note_on_c, 1, 40, 68
2, 26397, Note_on_c, 1, 40, 0
2, 26402, Note_on_c, 1, 33, 68
2, 26571, Note_on_c, 1, 33, 0
2, 26579, Note_on_c, 1, 33, 55
2, 26640, Note_on_c, 1, 33, 0
2, 26641, Note_on_c, 1, 38, 60
2, 26807, Note_on_c, 1, 38, 0
2, 26819, Note_on_c, 1, 38, 68
2, 26877, Note_on_c, 1, 38, 0
2, 26882, Note_on_c, 1, 33, 68
2, 27051, Note_on_c, 1, 33, 0
2, 27059, Note_on_c, 1, 33, 55
2, 27120, Note_on_c, 1, 33, 0
2, 27121, Note_on_c, 1, 34, 60
2, 27287, Note_on_c, 1, 34, 0
2, 27299, Note_on_c, 1, 34, 68
2, 27357, Note_on_c, 1, 34, 0
2, 27362, Note_on_c, 1, 29, 68
2, 27531, Note_on_c, 1, 29, 0
2, 27539, Note_on_c, 1, 29, 55
2, 27600, Note_on_c, 1, 29, 0
2, 27601, Note_on_c, 1, 33, 60
2, 27767, Note_on_c, 1, 33, 0
2, 27779, Note_on_c, 1, 33, 68
2, 27837, Note_on_c, 1, 33, 0
2, 27841, Note_on_c, 1, 38, 60
2, 28007, Note_on_c, 1, 38, 0
2, 28019, Note_on_c, 1, 38, 68
2, 28077, Note_on_c, 1, 38, 0
2, 28081, Note_on_c, 1, 43, 60
2, 28247, Note_on_c, 1, 43, 0
2, 28259, Note_on_c, 1, 43, 68
2, 28317, Note_on_c, 1, 43, 0
2, 28321, Note_on_c, 1, 36, 60
2, 28487, Note_on_c, 1, 36, 0
2, 28499, Note_on_c, 1, 36, 68
2, 28557, Note_on_c, 1, 36, 0
2, 28561, Note_on_c, 1, 33, 60
2, 28727, Note_on_c, 1, 33, 0
2, 28739, Note_on_c, 1, 33, 68
2, 28797, Note_on_c, 1, 33, 0
2, 28801, Note_on_c, 1, 38, 60
2, 28967, Note_on_c, 1, 38, 0
2, 28979, Note_on_c, 1, 38, 68
2, 29037, Note_on_c, 1, 38, 0
2, 29041, Note_on_c, 1, 38, 60
2, 29207, Note_on_c, 1, 38, 0
2, 29219, Note_on_c, 1, 38, 68
2, 29277, Note_on_c, 1, 38, 0
2, 29282, Note_on_c, 1, 33, 68
2, 29451, Note_on_c, 1, 33, 0
2, 29459, Note_on_c, 1, 33, 55
2, 29520, Note_on_c, 1, 33, 0
2, 29521, Note_on_c, 1, 43, 60
2, 29687, Note_on_c, 1, 43, 0
2, 29699, Note_on_c, 1, 43, 68
2, 29757, Note_on_c, 1, 43, 0
2, 29761, Note_on_c, 1, 33, 60
2, 29927, Note_on_c, 1, 33, 0
2, 29939, Note_on_c, 1, 33, 68
2, 29997, Note_on_c, 1, 33, 0
2, 30001, Note_on_c, 1, 34, 60
2, 30167, Note_on_c, 1, 34, 0
2, 30179, Note_on_c, 1, 34, 68
2, 30237, Note_on_c, 1, 34, 0
2, 30241, Note_on_c, 1, 36, 60
2, 30407, Note_on_c, 1, 36, 0
2, 30419, Note_on_c, 1, 36, 68
2, 30477, Note_on_c, 1, 36, 0
2, 30481, Note_on_c, 1, 36, 60
2, 30647, Note_on_c, 1, 36, 0
2, 30659, Note_on_c, 1, 36, 68
2, 30717, Note_on_c, 1, 36, 0
2, 30722, Note_on_c, 1, 31, 68
2, 30891, Note_on_c, 1, 31, 0
2, 30899, Note_on_c, 1, 31, 55
2, 30960, Note_on_c, 1, 31, 0
2, 30961, Note_on_c, 1, 41, 60
2, 31127, Note_on_c, 1, 41, 0
2, 31139, Note_on_c, 1, 41, 68
2, 31197, Note_on_c, 1, 41, 0
2, 31202, Note_on_c, 1, 36, 68
2, 31371, Note_on_c, 1, 36, 0
2, 31379, Note_on_c, 1, 36, 55
2, 31440, Note_on_c, 1, 36, 0
2, 31441, Note_on_c, 1, 41, 60
2, 31607, Note_on_c, 1, 41, 0
2, 31619, Note_on_c, 1, 41, 68
2, 31677, Note_on_c, 1, 41, 0
2, 31681, Note_on_c, 1, 41, 60
2, 31847, Note_on_c, 1, 41, 0
2, 31859, Note_on_c, 1, 41, 68
2, 31917, Note_on_c, 1, 41, 0
2, 31921, Note_on_c, 1, 40, 60
2, 32087, Note_on_c, 1, 40, 0
2, 32099, Note_on_c, 1, 40, 68
2, 32157, Note_on_c, 1, 40, 0
2, 32162, Note_on_c, 1, 33, 68
2, 32331, Note_on_c, 1, 33, 0
2, 32339, Note_on_c, 1, 33, 55
2, 32400, Note_on_c, 1, 33, 0
2, 32401, Note_on_c, 1, 40, 60
2, 32567, Note_on_c, 1, 40, 0
2, 32579, Note_on_c, 1, 40, 68
2, 32637, Note_on_c, 1, 40, 0
2, 32641, Note_on_c, 1, 43, 60
2, 32807, Note_on_c, 1, 43, 0
2, 32819, Note_on_c, 1, 43, 68
2, 32877, Note_on_c, 1, 43, 0
2, 32881, Note_on_c, 1, 41, 60
2, 33047, Note_on_c, 1, 41, 0
2, 33059, Note_on_c, 1, 41, 68
2, 33117, Note_on_c, 1, 41, 0
2, 33122, Note_on_c, 1, 36, 68
2, 33291, Note_on_c, 1, 36, 0
2, 33299, Note_on_c, 1, 36, 55
2, 33360, Note_on_c, 1, 36, 0
2, 33360, Control_c, 1, 7, 96
2, 33361, Note_on_c, 1, 41, 60
2, 33400, Control_c, 1, 7, 95
2, 33440, Control_c, 1, 7, 94
2, 33470, Control_c, 1, 7, 93
2, 33510, Control_c, 1, 7, 92
2, 33527, Note_on_c, 1, 41, 0
2, 33539, Note_on_c, 1, 41, 68
2, 33550, Control_c, 1, 7, 91
2, 33580, Control_c, 1, 7, 90
2, 33597, Note_on_c, 1, 41, 0
2, 33601, Note_on_c, 1, 41, 60
2, 33620, Control_c, 1, 7, 89
2, 33650, Control_c, 1, 7, 88
2, 33690, Control_c, 1, 7, 87
2, 33730, Control_c, 1, 7, 86
2, 33760, Control_c, 1, 7, 85
2, 33767, Note_on_c, 1, 41, 0
2, 33779, Note_on_c, 1, 41, 68
2, 33800, Control_c, 1, 7, 84
2, 33830, Control_c, 1, 7, 83
2, 33837, Note_on_c, 1, 41, 0
2, 33841, Note_on_c, 1, 40, 60
2, 33870, Control_c, 1, 7, 82
2, 33910, Control_c, 1, 7, 81
2, 33940, Control_c, 1, 7, 80
2, 33980, Control_c, 1, 7, 79
2, 34007, Note_on_c, 1, 40, 0
2, 34010, Control_c, 1, 7, 78
2, 34019, Note_on_c, 1, 40, 68
2, 34050, Control_c, 1, 7, 77
2, 34077, Note_on_c, 1, 40, 0
2, 34082, Note_on_c, 1, 33, 68
2, 34090, Control_c, 1, 7, 76
2, 34120, Control_c, 1, 7, 75
2, 34160, Control_c, 1, 7, 74
2, 34200, Control_c, 1, 7, 73
2, 34230, Control_c, 1, 7, 72
2, 34251, Note_on_c, 1, 33, 0
2, 34259, Note_on_c, 1, 33, 55
2, 34270, Control_c, 1, 7, 71
2, 34300, Control_c, 1, 7, 70
2, 34320, Note_on_c, 1, 33, 0
2, 34321, Note_on_c, 1, 40, 60
2, 34340, Control_c, 1, 7, 69
2, 34380, Control_c, 1, 7, 68
2, 34410, Control_c, 1, 7, 67
2, 34450, Control_c, 1, 7, 66
2, 34480, Control_c, 1, 7, 65
2, 34487, Note_on_c, 1, 40, 0
2, 34499, Note_on_c, 1, 40, 68
2, 34520, Control_c, 1, 7, 64
2, 34557, Note_on_c, 1, 40, 0
2, 34560, Control_c, 1, 7, 63
2, 34561, Note_on_c, 1, 43, 60
2, 34590, Control_c, 1, 7, 62
2, 34630, Control_c, 1, 7, 61
2, 34660, Control_c, 1, 7, 60
2, 34700, Control_c, 1, 7, 59
2, 34727, Note_on_c, 1, 43, 0
2, 34739, Note_on_c, 1, 43, 68
2, 34740, Control_c, 1, 7, 58
2, 34770, Control_c, 1, 7, 57
2, 34797, Note_on_c, 1, 43, 0
2, 34801, Note_on_c, 1, 41, 60
2, 34810, Control_c, 1, 7, 56
2, 34850, Control_c, 1, 7, 55
2, 34880, Control_c, 1, 7, 54
2, 34920, Control_c, 1, 7, 53
2, 34950, Control_c, 1, 7, 52
2, 34967, Note_on_c, 1, 41, 0
2, 34979, Note_on_c, 1, 41, 68
2, 34990, Control_c, 1, 7, 51
2, 35030, Control_c, 1, 7, 50
2, 35037, Note_on_c, 1, 41, 0
2, 35042, Note_on_c, 1, 36, 68
2, 35060, Control_c, 1, 7, 49
2, 35100, Control_c, 1, 7, 48
2, 35130, Control_c, 1, 7, 47
2, 35170, Control_c, 1, 7, 46
2, 35210, Control_c, 1, 7, 45
2, 35211, Note_on_c, 1, 36, 0
2, 35219, Note_on_c, 1, 36, 55
2, 35240, Control_c, 1, 7, 44
2, 35280, Note_on_c, 1, 36, 0
2, 35280, Control_c, 1, 7, 43
2, 35281, Note_on_c, 1, 41, 60
2, 35310, Control_c, 1, 7, 42
2, 35350, Control_c, 1, 7, 41
2, 35390, Control_c, 1, 7, 40
2, 35420, Control_c, 1, 7, 39
2, 35447, Note_on_c, 1, 41, 0
2, 35459, Note_on_c, 1, 41, 68
2, 35460, Control_c, 1, 7, 38
2, 35500, Control_c, 1, 7, 37
2, 35517, Note_on_c, 1, 41, 0
2, 35521, Note_on_c, 1, 41, 60
2, 35530, Control_c, 1, 7, 36
2, 35570, Control_c, 1, 7, 35
2, 35600, Control_c, 1, 7, 34
2, 35640, Control_c, 1, 7, 33
2, 35680, Control_c, 1, 7, 32
2, 35687, Note_on_c, 1, 41, 0
2, 35699, Note_on_c, 1, 41, 68
2, 35710, Control_c, 1, 7, 31
2, 35750, Control_c, 1, 7, 30
2, 35757, Note_on_c, 1, 41, 0
2, 35761, Note_on_c, 1, 40, 60
2, 35780, Control_c, 1, 7, 29
2, 35820, Control_c, 1, 7, 28
2, 35860, Control_c, 1, 7, 27
2, 35890, Control_c, 1, 7, 26
2, 35927, Note_on_c, 1, 40, 0
2, 35930, Control_c, 1, 7, 25
2, 35939, Note_on_c, 1, 40, 68
2, 35960, Control_c, 1, 7, 24
2, 35997, Note_on_c, 1, 40, 0
2, 36000, Control_c, 1, 7, 23
2, 36002, Note_on_c, 1, 33, 68
2, 36040, Control_c, 1, 7, 22
2, 36070, Control_c, 1, 7, 21
2, 36110, Control_c, 1, 7, 20
2, 36150, Control_c, 1, 7, 19
2, 36171, Note_on_c, 1, 33, 0
2, 36179, Note_on_c, 1, 33, 55
2, 36180, Control_c, 1, 7, 18
2, 36220, Control_c, 1, 7, 17
2, 36240, Note_on_c, 1, 33, 0
2, 36241, Note_on_c, 1, 40, 60
2, 36250, Control_c, 1, 7, 16
2, 36290, Control_c, 1, 7, 15
2, 36330, Control_c, 1, 7, 14
2, 36360, Control_c, 1, 7, 13
2, 36400, Control_c, 1, 7, 12
2, 36407, Note_on_c, 1, 40, 0
2, 36419, Note_on_c, 1, 40, 68
2, 36430, Control_c, 1, 7, 11
2, 36470, Control_c, 1, 7, 10
2, 36477, Note_on_c, 1, 40, 0
2, 36481, Note_on_c, 1, 43, 60
2, 36510, Control_c, 1, 7, 9
2, 36540, Control_c, 1, 7, 8
2, 36580, Control_c, 1, 7, 7
2, 36610, Control_c, 1, 7, 6
2, 36647, Note_on_c, 1, 43, 0
2, 36650, Control_c, 1, 7, 5
2, 36659, Note_on_c, 1, 43, 68
2, 36690, Control_c, 1, 7, 4
2, 36717, Note_on_c, 1, 43, 0
2, 36720, Control_c, 1, 7, 3
2, 36760, Control_c, 1, 7, 2
2, 36790, Control_c, 1, 7, 1
2, 36790, End_track
3, 0, Start_track
3, 0, MIDI_port, 0
3, 0, Title_t, "Piano"
3, 0, Control_c, 2, 121, 0
3, 0, Control_c, 2, 123, 0
3, 0, Control_c, 2, 91, 40
3, 0, Control_c, 2, 93, 0
3, 0, Control_c, 2, 64, 0
3, 132, Program_c, 2, 0
3, 133, Control_c, 2, 7, 86
3, 133, Control_c, 2, 10, 44
3, 960, Note_on_c, 2, 53, 66
3, 1082, Note_on_c, 2, 69, 55
3, 1142, Note_on_c, 2, 60, 36
3, 1205, Note_on_c, 2, 48, 53
3, 1210, Note_on_c, 2, 53, 0
3, 1240, Note_on_c, 2, 60, 0
3, 1268, Note_on_c, 2, 60, 53
3, 1327, Note_on_c, 2, 65, 66
3, 1444, Note_on_c, 2, 48, 0
3, 1446, Note_on_c, 2, 53, 65
3, 1455, Note_on_c, 2, 60, 0
3, 1486, Note_on_c, 2, 65, 0
3, 1495, Note_on_c, 2, 69, 0
3, 1569, Note_on_c, 2, 69, 68
3, 1636, Note_on_c, 2, 60, 26
3, 1651, Note_on_c, 2, 60, 0
3, 1684, Note_on_c, 2, 48, 44
3, 1691, Note_on_c, 2, 53, 0
3, 1755, Note_on_c, 2, 60, 55
3, 1815, Note_on_c, 2, 65, 70
3, 1817, Note_on_c, 2, 69, 0
3, 1859, Note_on_c, 2, 60, 0
3, 1874, Note_on_c, 2, 60, 50
3, 1920, Note_on_c, 2, 60, 0
3, 1920, Note_on_c, 2, 48, 0
3, 1920, Note_on_c, 2, 65, 0
3, 1920, Note_on_c, 2, 53, 66
3, 2042, Note_on_c, 2, 69, 55
3, 2102, Note_on_c, 2, 60, 36
3, 2165, Note_on_c, 2, 48, 53
3, 2170, Note_on_c, 2, 53, 0
3, 2200, Note_on_c, 2, 60, 0
3, 2228, Note_on_c, 2, 60, 53
3, 2287, Note_on_c, 2, 65, 66
3, 2400, Note_on_c, 2, 65, 0
3, 2400, Note_on_c, 2, 48, 0
3, 2400, Note_on_c, 2, 69, 0
3, 2400, Note_on_c, 2, 60, 0
3, 2400, Note_on_c, 2, 53, 66
3, 2522, Note_on_c, 2, 69, 55
3, 2582, Note_on_c, 2, 60, 36
3, 2640, Note_on_c, 2, 60, 0
3, 2640, Note_on_c, 2, 69, 0
3, 2640, Note_on_c, 2, 53, 0
3, 2640, Note_on_c, 2, 53, 66
3, 2762, Note_on_c, 2, 69, 55
3, 2822, Note_on_c, 2, 60, 36
3, 2880, Note_on_c, 2, 60, 0
3, 2880, Note_on_c, 2, 69, 0
3, 2880, Note_on_c, 2, 53, 0
3, 2880, Note_on_c, 2, 52, 66
3, 3002, Note_on_c, 2, 65, 55
3, 3062, Note_on_c, 2, 57, 36
3, 3125, Note_on_c, 2, 45, 53
3, 3130, Note_on_c, 2, 52, 0
3, 3160, Note_on_c, 2, 57, 0
3, 3188, Note_on_c, 2, 57, 53
3, 3247, Note_on_c, 2, 62, 66
3, 3360, Note_on_c, 2, 62, 0
3, 3360, Note_on_c, 2, 45, 0
3, 3360, Note_on_c, 2, 65, 0
3, 3360, Note_on_c, 2, 57, 0
3, 3360, Note_on_c, 2, 50, 66
3, 3482, Note_on_c, 2, 65, 55
3, 3542, Note_on_c, 2, 57, 36
3, 3605, Note_on_c, 2, 45, 53
3, 3610, Note_on_c, 2, 50, 0
3, 3640, Note_on_c, 2, 57, 0
3, 3668, Note_on_c, 2, 57, 53
3, 3727, Note_on_c, 2, 62, 66
3, 3840, Note_on_c, 2, 62, 0
3, 3840, Note_on_c, 2, 45, 0
3, 3840, Note_on_c, 2, 65, 0
3, 3840, Note_on_c, 2, 57, 0
3, 3840, Note_on_c, 2, 46, 66
3, 3962, Note_on_c, 2, 62, 55
3, 4022, Note_on_c, 2, 53, 36
3, 4085, Note_on_c, 2, 41, 53
3, 4090, Note_on_c, 2, 46, 0
3, 4120, Note_on_c, 2, 53, 0
3, 4148, Note_on_c, 2, 53, 53
3, 4207, Note_on_c, 2, 58, 66
3, 4320, Note_on_c, 2, 58, 0
3, 4320, Note_on_c, 2, 41, 0
3, 4320, Note_on_c, 2, 62, 0
3, 4320, Note_on_c, 2, 53, 0
3, 4320, Note_on_c, 2, 45, 66
3, 4442, Note_on_c, 2, 62, 55
3, 4502, Note_on_c, 2, 52, 36
3, 4560, Note_on_c, 2, 52, 0
3, 4560, Note_on_c, 2, 62, 0
3, 4560, Note_on_c, 2, 45, 0
3, 4560, Note_on_c, 2, 45, 66
3, 4682, Note_on_c, 2, 61, 55
3, 4742, Note_on_c, 2, 52, 36
3, 4800, Note_on_c, 2, 52, 0
3, 4800, Note_on_c, 2, 61, 0
3, 4800, Note_on_c, 2, 45, 0
3, 4800, Note_on_c, 2, 50, 66
3, 4922, Note_on_c, 2, 65, 55
3, 4982, Note_on_c, 2, 57, 36
3, 5040, Note_on_c, 2, 57, 0
3, 5040, Note_on_c, 2, 65, 0
3, 5040, Note_on_c, 2, 50, 0
3, 5040, Note_on_c, 2, 43, 66
3, 5162, Note_on_c, 2, 59, 55
3, 5222, Note_on_c, 2, 50, 36
3, 5280, Note_on_c, 2, 50, 0
3, 5280, Note_on_c, 2, 59, 0
3, 5280, Note_on_c, 2, 43, 0
3, 5280, Note_on_c, 2, 43, 66
3, 5402, Note_on_c, 2, 59, 55
3, 5462, Note_on_c, 2, 50, 36
3, 5520, Note_on_c, 2, 50, 0
3, 5520, Note_on_c, 2, 59, 0
3, 5520, Note_on_c, 2, 43, 0
3, 5520, Note_on_c, 2, 43, 66
3, 5640, Note_on_c, 2, 43, 0
3, 5640, Note_on_c, 2, 45, 66
3, 5760, Note_on_c, 2, 45, 0
3, 5760, Note_on_c, 2, 46, 66
3, 5880, Note_on_c, 2, 46, 0
3, 5880, Note_on_c, 2, 48, 66
3, 6000, Note_on_c, 2, 48, 0
3, 6000, Note_on_c, 2, 53, 66
3, 6122, Note_on_c, 2, 69, 55
3, 6182, Note_on_c, 2, 60, 36
3, 6245, Note_on_c, 2, 48, 53
3, 6250, Note_on_c, 2, 53, 0
3, 6280, Note_on_c, 2, 60, 0
3, 6308, Note_on_c, 2, 60, 53
3, 6367, Note_on_c, 2, 65, 66
3, 6480, Note_on_c, 2, 65, 0
3, 6480, Note_on_c, 2, 48, 0
3, 6480, Note_on_c, 2, 69, 0
3, 6480, Note_on_c, 2, 60, 0
3, 6480, Note_on_c, 2, 53, 66
3, 6602, Note_on_c, 2, 69, 55
3, 6662, Note_on_c, 2, 60, 36
3, 6720, Note_on_c, 2, 60, 0
3, 6720, Note_on_c, 2, 69, 0
3, 6720, Note_on_c, 2, 53, 0
3, 6720, Note_on_c, 2, 53, 66
3, 6842, Note_on_c, 2, 69, 55
3, 6902, Note_on_c, 2, 60, 36
3, 6960, Note_on_c, 2, 60, 0
3, 6960, Note_on_c, 2, 69, 0
3, 6960, Note_on_c, 2, 53, 0
3, 6960, Note_on_c, 2, 52, 66
3, 7082, Note_on_c, 2, 65, 55
3, 7142, Note_on_c, 2, 57, 36
3, 7205, Note_on_c, 2, 45, 53
3, 7210, Note_on_c, 2, 52, 0
3, 7240, Note_on_c, 2, 57, 0
3, 7268, Note_on_c, 2, 57, 53
3, 7327, Note_on_c, 2, 62, 66
3, 7440, Note_on_c, 2, 62, 0
3, 7440, Note_on_c, 2, 45, 0
3, 7440, Note_on_c, 2, 65, 0
3, 7440, Note_on_c, 2, 57, 0
3, 7440, Note_on_c, 2, 50, 66
3, 7562, Note_on_c, 2, 65, 55
3, 7622, Note_on_c, 2, 57, 36
3, 7685, Note_on_c, 2, 45, 53
3, 7690, Note_on_c, 2, 50, 0
3, 7720, Note_on_c, 2, 57, 0
3, 7748, Note_on_c, 2, 57, 53
3, 7807, Note_on_c, 2, 62, 66
3, 7920, Note_on_c, 2, 62, 0
3, 7920, Note_on_c, 2, 45, 0
3, 7920, Note_on_c, 2, 65, 0
3, 7920, Note_on_c, 2, 57, 0
3, 7920, Note_on_c, 2, 46, 66
3, 8042, Note_on_c, 2, 62, 55
3, 8102, Note_on_c, 2, 53, 36
3, 8165, Note_on_c, 2, 41, 53
3, 8170, Note_on_c, 2, 46, 0
3, 8200, Note_on_c, 2, 53, 0
3, 8228, Note_on_c, 2, 53, 53
3, 8287, Note_on_c, 2, 58, 66
3, 8400, Note_on_c, 2, 58, 0
3, 8400, Note_on_c, 2, 41, 0
3, 8400, Note_on_c, 2, 62, 0
3, 8400, Note_on_c, 2, 53, 0
3, 8400, Note_on_c, 2, 45, 66
3, 8522, Note_on_c, 2, 62, 55
3, 8582, Note_on_c, 2, 52, 36
3, 8640, Note_on_c, 2, 52, 0
3, 8640, Note_on_c, 2, 62, 0
3, 8640, Note_on_c, 2, 45, 0
3, 8640, Note_on_c, 2, 45, 66
3, 8762, Note_on_c, 2, 61, 55
3, 8822, Note_on_c, 2, 52, 36
3, 8880, Note_on_c, 2, 52, 0
3, 8880, Note_on_c, 2, 61, 0
3, 8880, Note_on_c, 2, 45, 0
3, 8880, Note_on_c, 2, 42, 66
3, 9002, Note_on_c, 2, 58, 55
3, 9062, Note_on_c, 2, 49, 36
3, 9125, Note_on_c, 2, 37, 53
3, 9130, Note_on_c, 2, 42, 0
3, 9160, Note_on_c, 2, 49, 0
3, 9188, Note_on_c, 2, 49, 53
3, 9247, Note_on_c, 2, 54, 66
3, 9360, Note_on_c, 2, 54, 0
3, 9360, Note_on_c, 2, 37, 0
3, 9360, Note_on_c, 2, 58, 0
3, 9360, Note_on_c, 2, 49, 0
3, 9360, Note_on_c, 2, 46, 66
3, 9482, Note_on_c, 2, 61, 55
3, 9542, Note_on_c, 2, 53, 36
3, 9605, Note_on_c, 2, 41, 53
3, 9610, Note_on_c, 2, 46, 0
3, 9640, Note_on_c, 2, 53, 0
3, 9668, Note_on_c, 2, 53, 53
3, 9727, Note_on_c, 2, 58, 66
3, 9840, Note_on_c, 2, 58, 0
3, 9840, Note_on_c, 2, 41, 0
3, 9840, Note_on_c, 2, 61, 0
3, 9840, Note_on_c, 2, 53, 0
3, 9840, Note_on_c, 2, 47, 66
3, 9962, Note_on_c, 2, 63, 55
3, 10022, Note_on_c, 2, 54, 36
3, 10085, Note_on_c, 2, 42, 53
3, 10090, Note_on_c, 2, 47, 0
3, 10120, Note_on_c, 2, 54, 0
3, 10148, Note_on_c, 2, 54, 53
3, 10207, Note_on_c, 2, 59, 66
3, 10320, Note_on_c, 2, 59, 0
3, 10320, Note_on_c, 2, 42, 0
3, 10320, Note_on_c, 2, 63, 0
3, 10320, Note_on_c, 2, 54, 0
3, 10320, Note_on_c, 2, 46, 66
3, 10442, Note_on_c, 2, 63, 55
3, 10502, Note_on_c, 2, 53, 36
3, 10560, Note_on_c, 2, 53, 0
3, 10560, Note_on_c, 2, 63, 0
3, 10560, Note_on_c, 2, 46, 0
3, 10560, Note_on_c, 2, 46, 66
3, 10680, Note_on_c, 2, 46, 0
3, 10680, Note_on_c, 2, 46, 66
3, 10800, Note_on_c, 2, 46, 0
3, 10800, Note_on_c, 2, 51, 66
3, 10922, Note_on_c, 2, 67, 55
3, 10982, Note_on_c, 2, 58, 36
3, 11040, Note_on_c, 2, 58, 0
3, 11040, Note_on_c, 2, 67, 0
3, 11040, Note_on_c, 2, 51, 0
3, 11040, Note_on_c, 2, 43, 66
3, 11162, Note_on_c, 2, 58, 55
3, 11222, Note_on_c, 2, 50, 36
3, 11280, Note_on_c, 2, 50, 0
3, 11280, Note_on_c, 2, 58, 0
3, 11280, Note_on_c, 2, 43, 0
3, 11280, Note_on_c, 2, 44, 66
3, 11402, Note_on_c, 2, 60, 55
3, 11462, Note_on_c, 2, 51, 36
3, 11520, Note_on_c, 2, 51, 0
3, 11520, Note_on_c, 2, 60, 0
3, 11520, Note_on_c, 2, 44, 0
3, 11520, Note_on_c, 2, 43, 66
3, 11640, Note_on_c, 2, 43, 0
3, 11640, Note_on_c, 2, 43, 66
3, 11760, Note_on_c, 2, 43, 0
3, 11760, Note_on_c, 2, 44, 66
3, 11882, Note_on_c, 2, 60, 55
3, 11942, Note_on_c, 2, 51, 36
3, 12000, Note_on_c, 2, 51, 0
3, 12000, Note_on_c, 2, 60, 0
3, 12000, Note_on_c, 2, 44, 0
3, 12000, Note_on_c, 2, 43, 66
3, 12120, Note_on_c, 2, 43, 0
3, 12120, Note_on_c, 2, 43, 66
3, 12240, Note_on_c, 2, 43, 0
3, 12240, Note_on_c, 2, 43, 66
3, 12362, Note_on_c, 2, 60, 55
3, 12422, Note_on_c, 2, 50, 36
3, 12480, Note_on_c, 2, 50, 0
3, 12480, Note_on_c, 2, 60, 0
3, 12480, Note_on_c, 2, 43, 0
3, 12480, Note_on_c, 2, 43, 66
3, 12602, Note_on_c, 2, 59, 55
3, 12662, Note_on_c, 2, 50, 36
3, 12720, Note_on_c, 2, 50, 0
3, 12720, Note_on_c, 2, 59, 0
3, 12720, Note_on_c, 2, 43, 0
3, 12720, Note_on_c, 2, 43, 66
3, 12842, Note_on_c, 2, 58, 55
3, 12902, Note_on_c, 2, 50, 36
3, 12960, Note_on_c, 2, 50, 0
3, 12960, Note_on_c, 2, 58, 0
3, 12960, Note_on_c, 2, 43, 0
3, 12960, Note_on_c, 2, 48, 66
3, 13082, Note_on_c, 2, 64, 55
3, 13142, Note_on_c, 2, 55, 36
3, 13200, Note_on_c, 2, 55, 0
3, 13200, Note_on_c, 2, 64, 0
3, 13200, Note_on_c, 2, 48, 0
3, 13200, Note_on_c, 2, 43, 66
3, 13322, Note_on_c, 2, 58, 55
3, 13382, Note_on_c, 2, 50, 36
3, 13440, Note_on_c, 2, 50, 0
3, 13440, Note_on_c, 2, 58, 0
3, 13440, Note_on_c, 2, 43, 0
3, 13440, Note_on_c, 2, 48, 66
3, 13560, Note_on_c, 2, 48, 0
3, 13560, Note_on_c, 2, 50, 66
3, 13680, Note_on_c, 2, 50, 0
3, 13680, Note_on_c, 2, 53, 66
3, 13802, Note_on_c, 2, 69, 55
3, 13862, Note_on_c, 2, 60, 36
3, 13925, Note_on_c, 2, 48, 53
3, 13930, Note_on_c, 2, 53, 0
3, 13960, Note_on_c, 2, 60, 0
3, 13988, Note_on_c, 2, 60, 53
3, 14047, Note_on_c, 2, 65, 66
3, 14160, Note_on_c, 2, 65, 0
3, 14160, Note_on_c, 2, 48, 0
3, 14160, Note_on_c, 2, 69, 0
3, 14160, Note_on_c, 2, 60, 0
3, 14160, Note_on_c, 2, 53, 66
3, 14282, Note_on_c, 2, 69, 55
3, 14342, Note_on_c, 2, 60, 36
3, 14400, Note_on_c, 2, 60, 0
3, 14400, Note_on_c, 2, 69, 0
3, 14400, Note_on_c, 2, 53, 0
3, 14400, Note_on_c, 2, 53, 66
3, 14522, Note_on_c, 2, 69, 55
3, 14582, Note_on_c, 2, 60, 36
3, 14640, Note_on_c, 2, 60, 0
3, 14640, Note_on_c, 2, 69, 0
3, 14640, Note_on_c, 2, 53, 0
3, 14640, Note_on_c, 2, 52, 66
3, 14762, Note_on_c, 2, 65, 55
3, 14822, Note_on_c, 2, 57, 36
3, 14885, Note_on_c, 2, 45, 53
3, 14890, Note_on_c, 2, 52, 0
3, 14920, Note_on_c, 2, 57, 0
3, 14948, Note_on_c, 2, 57, 53
3, 15007, Note_on_c, 2, 62, 66
3, 15120, Note_on_c, 2, 62, 0
3, 15120, Note_on_c, 2, 45, 0
3, 15120, Note_on_c, 2, 65, 0
3, 15120, Note_on_c, 2, 57, 0
3, 15120, Note_on_c, 2, 50, 66
3, 15242, Note_on_c, 2, 65, 55
3, 15302, Note_on_c, 2, 57, 36
3, 15365, Note_on_c, 2, 45, 53
3, 15370, Note_on_c, 2, 50, 0
3, 15400, Note_on_c, 2, 57, 0
3, 15428, Note_on_c, 2, 57, 53
3, 15487, Note_on_c, 2, 62, 66
3, 15600, Note_on_c, 2, 62, 0
3, 15600, Note_on_c, 2, 45, 0
3, 15600, Note_on_c, 2, 65, 0
3, 15600, Note_on_c, 2, 57, 0
3, 15600, Note_on_c, 2, 46, 66
3, 15722, Note_on_c, 2, 62, 55
3, 15782, Note_on_c, 2, 53, 36
3, 15845, Note_on_c, 2, 41, 53
3, 15850, Note_on_c, 2, 46, 0
3, 15880, Note_on_c, 2, 53, 0
3, 15908, Note_on_c, 2, 53, 53
3, 15967, Note_on_c, 2, 58, 66
3, 16080, Note_on_c, 2, 58, 0
3, 16080, Note_on_c, 2, 41, 0
3, 16080, Note_on_c, 2, 62, 0
3, 16080, Note_on_c, 2, 53, 0
3, 16080, Note_on_c, 2, 45, 66
3, 16202, Note_on_c, 2, 60, 55
3, 16262, Note_on_c, 2, 52, 36
3, 16320, Note_on_c, 2, 52, 0
3, 16320, Note_on_c, 2, 60, 0
3, 16320, Note_on_c, 2, 45, 0
3, 16320, Note_on_c, 2, 50, 66
3, 16442, Note_on_c, 2, 65, 55
3, 16502, Note_on_c, 2, 57, 36
3, 16560, Note_on_c, 2, 57, 0
3, 16560, Note_on_c, 2, 65, 0
3, 16560, Note_on_c, 2, 50, 0
3, 16560, Note_on_c, 2, 43, 66
3, 16682, Note_on_c, 2, 58, 55
3, 16742, Note_on_c, 2, 50, 36
3, 16800, Note_on_c, 2, 50, 0
3, 16800, Note_on_c, 2, 58, 0
3, 16800, Note_on_c, 2, 43, 0
3, 16800, Note_on_c, 2, 48, 66
3, 16922, Note_on_c, 2, 65, 55
3, 16982, Note_on_c, 2, 55, 36
3, 17040, Note_on_c, 2, 55, 0
3, 17040, Note_on_c, 2, 65, 0
3, 17040, Note_on_c, 2, 48, 0
3, 17040, Note_on_c, 2, 45, 66
3, 17162, Note_on_c, 2, 60, 55
3, 17222, Note_on_c, 2, 51, 36
3, 17280, Note_on_c, 2, 51, 0
3, 17280, Note_on_c, 2, 60, 0
3, 17280, Note_on_c, 2, 45, 0
3, 17280, Note_on_c, 2, 50, 66
3, 17402, Note_on_c, 2, 66, 55
3, 17462, Note_on_c, 2, 57, 36
3, 17520, Note_on_c, 2, 57, 0
3, 17520, Note_on_c, 2, 66, 0
3, 17520, Note_on_c, 2, 50, 0
3, 17520, Note_on_c, 2, 50, 66
3, 17642, Note_on_c, 2, 66, 55
3, 17702, Note_on_c, 2, 57, 36
3, 17765, Note_on_c, 2, 45, 53
3, 17770, Note_on_c, 2, 50, 0
3, 17800, Note_on_c, 2, 57, 0
3, 17828, Note_on_c, 2, 57, 53
3, 17887, Note_on_c, 2, 63, 66
3, 18000, Note_on_c, 2, 63, 0
3, 18000, Note_on_c, 2, 45, 0
3, 18000, Note_on_c, 2, 66, 0
3, 18000, Note_on_c, 2, 57, 0
3, 18000, Note_on_c, 2, 43, 66
3, 18122, Note_on_c, 2, 58, 55
3, 18182, Note_on_c, 2, 50, 36
3, 18240, Note_on_c, 2, 50, 0
3, 18240, Note_on_c, 2, 58, 0
3, 18240, Note_on_c, 2, 43, 0
3, 18240, Note_on_c, 2, 45, 66
3, 18362, Note_on_c, 2, 60, 55
3, 18422, Note_on_c, 2, 52, 36
3, 18480, Note_on_c, 2, 52, 0
3, 18480, Note_on_c, 2, 60, 0
3, 18480, Note_on_c, 2, 45, 0
3, 18480, Note_on_c, 2, 46, 66
3, 18602, Note_on_c, 2, 62, 55
3, 18662, Note_on_c, 2, 53, 36
3, 18720, Note_on_c, 2, 53, 0
3, 18720, Note_on_c, 2, 62, 0
3, 18720, Note_on_c, 2, 46, 0
3, 18720, Note_on_c, 2, 48, 66
3, 18842, Note_on_c, 2, 65, 55
3, 18902, Note_on_c, 2, 55, 36
3, 18960, Note_on_c, 2, 55, 0
3, 18960, Note_on_c, 2, 65, 0
3, 18960, Note_on_c, 2, 48, 0
3, 18960, Note_on_c, 2, 48, 66
3, 19082, Note_on_c, 2, 65, 55
3, 19142, Note_on_c, 2, 55, 36
3, 19205, Note_on_c, 2, 43, 53
3, 19210, Note_on_c, 2, 48, 0
3, 19240, Note_on_c, 2, 55, 0
3, 19268, Note_on_c, 2, 55, 53
3, 19327, Note_on_c, 2, 62, 66
3, 19440, Note_on_c, 2, 62, 0
3, 19440, Note_on_c, 2, 43, 0
3, 19440, Note_on_c, 2, 65, 0
3, 19440, Note_on_c, 2, 55, 0
3, 19440, Note_on_c, 2, 53, 66
3, 19562, Note_on_c, 2, 69, 55
3, 19622, Note_on_c, 2, 60, 36
3, 19685, Note_on_c, 2, 48, 53
3, 19690, Note_on_c, 2, 53, 0
3, 19720, Note_on_c, 2, 60, 0
3, 19748, Note_on_c, 2, 60, 53
3, 19807, Note_on_c, 2, 65, 66
3, 19920, Note_on_c, 2, 65, 0
3, 19920, Note_on_c, 2, 48, 0
3, 19920, Note_on_c, 2, 69, 0
3, 19920, Note_on_c, 2, 60, 0
3, 19920, Note_on_c, 2, 53, 66
3, 20042, Note_on_c, 2, 69, 55
3, 20102, Note_on_c, 2, 60, 36
3, 20160, Note_on_c, 2, 60, 0
3, 20160, Note_on_c, 2, 69, 0
3, 20160, Note_on_c, 2, 53, 0
3, 20160, Note_on_c, 2, 53, 66
3, 20282, Note_on_c, 2, 69, 55
3, 20342, Note_on_c, 2, 60, 36
3, 20400, Note_on_c, 2, 60, 0
3, 20400, Note_on_c, 2, 69, 0
3, 20400, Note_on_c, 2, 53, 0
3, 20400, Note_on_c, 2, 52, 66
3, 20522, Note_on_c, 2, 65, 55
3, 20582, Note_on_c, 2, 57, 36
3, 20645, Note_on_c, 2, 45, 53
3, 20650, Note_on_c, 2, 52, 0
3, 20680, Note_on_c, 2, 57, 0
3, 20708, Note_on_c, 2, 57, 53
3, 20767, Note_on_c, 2, 62, 66
3, 20880, Note_on_c, 2, 62, 0
3, 20880, Note_on_c, 2, 45, 0
3, 20880, Note_on_c, 2, 65, 0
3, 20880, Note_on_c, 2, 57, 0
3, 20880, Note_on_c, 2, 50, 66
3, 21002, Note_on_c, 2, 65, 55
3, 21062, Note_on_c, 2, 57, 36
3, 21125, Note_on_c, 2, 45, 53
3, 21130, Note_on_c, 2, 50, 0
3, 21160, Note_on_c, 2, 57, 0
3, 21188, Note_on_c, 2, 57, 53
3, 21247, Note_on_c, 2, 62, 66
3, 21360, Note_on_c, 2, 62, 0
3, 21360, Note_on_c, 2, 45, 0
3, 21360, Note_on_c, 2, 65, 0
3, 21360, Note_on_c, 2, 57, 0
3, 21360, Note_on_c, 2, 46, 66
3, 21482, Note_on_c, 2, 62, 55
3, 21542, Note_on_c, 2, 53, 36
3, 21605, Note_on_c, 2, 41, 53
3, 21610, Note_on_c, 2, 46, 0
3, 21640, Note_on_c, 2, 53, 0
3, 21668, Note_on_c, 2, 53, 53
3, 21727, Note_on_c, 2, 58, 66
3, 21840, Note_on_c, 2, 58, 0
3, 21840, Note_on_c, 2, 41, 0
3, 21840, Note_on_c, 2, 62, 0
3, 21840, Note_on_c, 2, 53, 0
3, 21840, Note_on_c, 2, 45, 66
3, 21962, Note_on_c, 2, 60, 55
3, 22022, Note_on_c, 2, 52, 36
3, 22080, Note_on_c, 2, 52, 0
3, 22080, Note_on_c, 2, 60, 0
3, 22080, Note_on_c, 2, 45, 0
3, 22080, Note_on_c, 2, 50, 66
3, 22202, Note_on_c, 2, 65, 55
3, 22262, Note_on_c, 2, 57, 36
3, 22320, Note_on_c, 2, 57, 0
3, 22320, Note_on_c, 2, 65, 0
3, 22320, Note_on_c, 2, 50, 0
3, 22320, Note_on_c, 2, 43, 66
3, 22442, Note_on_c, 2, 58, 55
3, 22502, Note_on_c, 2, 50, 36
3, 22560, Note_on_c, 2, 50, 0
3, 22560, Note_on_c, 2, 58, 0
3, 22560, Note_on_c, 2, 43, 0
3, 22560, Note_on_c, 2, 48, 66
3, 22682, Note_on_c, 2, 65, 55
3, 22742, Note_on_c, 2, 55, 36
3, 22800, Note_on_c, 2, 55, 0
3, 22800, Note_on_c, 2, 65, 0
3, 22800, Note_on_c, 2, 48, 0
3, 22800, Note_on_c, 2, 45, 66
3, 22922, Note_on_c, 2, 60, 55
3, 22982, Note_on_c, 2, 51, 36
3, 23040, Note_on_c, 2, 51, 0
3, 23040, Note_on_c, 2, 60, 0
3, 23040, Note_on_c, 2, 45, 0
3, 23040, Note_on_c, 2, 50, 66
3, 23162, Note_on_c, 2, 66, 55
3, 23222, Note_on_c, 2, 57, 36
3, 23280, Note_on_c, 2, 57, 0
3, 23280, Note_on_c, 2, 66, 0
3, 23280, Note_on_c, 2, 50, 0
3, 23280, Note_on_c, 2, 50, 66
3, 23402, Note_on_c, 2, 66, 55
3, 23462, Note_on_c, 2, 57, 36
3, 23525, Note_on_c, 2, 45, 53
3, 23530, Note_on_c, 2, 50, 0
3, 23560, Note_on_c, 2, 57, 0
3, 23588, Note_on_c, 2, 57, 53
3, 23647, Note_on_c, 2, 63, 66
3, 23760, Note_on_c, 2, 63, 0
3, 23760, Note_on_c, 2, 45, 0
3, 23760, Note_on_c, 2, 66, 0
3, 23760, Note_on_c, 2, 57, 0
3, 23760, Note_on_c, 2, 43, 66
3, 23882, Note_on_c, 2, 58, 55
3, 23942, Note_on_c, 2, 50, 36
3, 24000, Note_on_c, 2, 50, 0
3, 24000, Note_on_c, 2, 58, 0
3, 24000, Note_on_c, 2, 43, 0
3, 24000, Note_on_c, 2, 45, 66
3, 24122, Note_on_c, 2, 60, 55
3, 24182, Note_on_c, 2, 52, 36
3, 24240, Note_on_c, 2, 52, 0
3, 24240, Note_on_c, 2, 60, 0
3, 24240, Note_on_c, 2, 45, 0
3, 24240, Note_on_c, 2, 46, 66
3, 24362, Note_on_c, 2, 62, 55
3, 24422, Note_on_c, 2, 53, 36
3, 24480, Note_on_c, 2, 53, 0
3, 24480, Note_on_c, 2, 62, 0
3, 24480, Note_on_c, 2, 46, 0
3, 24480, Note_on_c, 2, 48, 66
3, 24602, Note_on_c, 2, 65, 55
3, 24662, Note_on_c, 2, 55, 36
3, 24720, Note_on_c, 2, 55, 0
3, 24720, Note_on_c, 2, 65, 0
3, 24720, Note_on_c, 2, 48, 0
3, 24720, Note_on_c, 2, 48, 66
3, 24842, Note_on_c, 2, 65, 55
3, 24902, Note_on_c, 2, 55, 36
3, 24965, Note_on_c, 2, 43, 53
3, 24970, Note_on_c, 2, 48, 0
3, 25000, Note_on_c, 2, 55, 0
3, 25028, Note_on_c, 2, 55, 53
3, 25087, Note_on_c, 2, 62, 66
3, 25200, Note_on_c, 2, 62, 0
3, 25200, Note_on_c, 2, 43, 0
3, 25200, Note_on_c, 2, 65, 0
3, 25200, Note_on_c, 2, 55, 0
3, 25200, Note_on_c, 2, 53, 66
3, 25322, Note_on_c, 2, 69, 55
3, 25382, Note_on_c, 2, 60, 36
3, 25445, Note_on_c, 2, 48, 53
3, 25450, Note_on_c, 2, 53, 0
3, 25480, Note_on_c, 2, 60, 0
3, 25508, Note_on_c, 2, 60, 53
3, 25567, Note_on_c, 2, 65, 66
3, 25680, Note_on_c, 2, 65, 0
3, 25680, Note_on_c, 2, 48, 0
3, 25680, Note_on_c, 2, 69, 0
3, 25680, Note_on_c, 2, 60, 0
3, 25680, Note_on_c, 2, 53, 66
3, 25802, Note_on_c, 2, 69, 55
3, 25862, Note_on_c, 2, 60, 36
3, 25920, Note_on_c, 2, 60, 0
3, 25920, Note_on_c, 2, 69, 0
3, 25920, Note_on_c, 2, 53, 0
3, 25920, Note_on_c, 2, 53, 66
3, 26042, Note_on_c, 2, 69, 55
3, 26102, Note_on_c, 2, 60, 36
3, 26160, Note_on_c, 2, 60, 0
3, 26160, Note_on_c, 2, 69, 0
3, 26160, Note_on_c, 2, 53, 0
3, 26160, Note_on_c, 2, 52, 66
3, 26282, Note_on_c, 2, 65, 55
3, 26342, Note_on_c, 2, 57, 36
3, 26405, Note_on_c, 2, 45, 53
3, 26410, Note_on_c, 2, 52, 0
3, 26440, Note_on_c, 2, 57, 0
3, 26468, Note_on_c, 2, 57, 53
3, 26527, Note_on_c, 2, 62, 66
3, 26640, Note_on_c, 2, 62, 0
3, 26640, Note_on_c, 2, 45, 0
3, 26640, Note_on_c, 2, 65, 0
3, 26640, Note_on_c, 2, 57, 0
3, 26640, Note_on_c, 2, 50, 66
3, 26762, Note_on_c, 2, 65, 55
3, 26822, Note_on_c, 2, 57, 36
3, 26885, Note_on_c, 2, 45, 53
3, 26890, Note_on_c, 2, 50, 0
3, 26920, Note_on_c, 2, 57, 0
3, 26948, Note_on_c, 2, 57, 53
3, 27007, Note_on_c, 2, 62, 66
3, 27120, Note_on_c, 2, 62, 0
3, 27120, Note_on_c, 2, 45, 0
3, 27120, Note_on_c, 2, 65, 0
3, 27120, Note_on_c, 2, 57, 0
3, 27120, Note_on_c, 2, 46, 66
3, 27242, Note_on_c, 2, 62, 55
3, 27302, Note_on_c, 2, 53, 36
3, 27365, Note_on_c, 2, 41, 53
3, 27370, Note_on_c, 2, 46, 0
3, 27400, Note_on_c, 2, 53, 0
3, 27428, Note_on_c, 2, 53, 53
3, 27487, Note_on_c, 2, 58, 66
3, 27600, Note_on_c, 2, 58, 0
3, 27600, Note_on_c, 2, 41, 0
3, 27600, Note_on_c, 2, 62, 0
3, 27600, Note_on_c, 2, 53, 0
3, 27600, Note_on_c, 2, 45, 66
3, 27722, Note_on_c, 2, 60, 55
3, 27782, Note_on_c, 2, 52, 36
3, 27840, Note_on_c, 2, 52, 0
3, 27840, Note_on_c, 2, 60, 0
3, 27840, Note_on_c, 2, 45, 0
3, 27840, Note_on_c, 2, 50, 66
3, 27962, Note_on_c, 2, 65, 55
3, 28022, Note_on_c, 2, 57, 36
3, 28080, Note_on_c, 2, 57, 0
3, 28080, Note_on_c, 2, 65, 0
3, 28080, Note_on_c, 2, 50, 0
3, 28080, Note_on_c, 2, 43, 66
3, 28202, Note_on_c, 2, 58, 55
3, 28262, Note_on_c, 2, 50, 36
3, 28320, Note_on_c, 2, 50, 0
3, 28320, Note_on_c, 2, 58, 0
3, 28320, Note_on_c, 2, 43, 0
3, 28320, Note_on_c, 2, 48, 66
3, 28442, Note_on_c, 2, 65, 55
3, 28502, Note_on_c, 2, 55, 36
3, 28560, Note_on_c, 2, 55, 0
3, 28560, Note_on_c, 2, 65, 0
3, 28560, Note_on_c, 2, 48, 0
3, 28560, Note_on_c, 2, 45, 66
3, 28682, Note_on_c, 2, 60, 55
3, 28742, Note_on_c, 2, 51, 36
3, 28800, Note_on_c, 2, 51, 0
3, 28800, Note_on_c, 2, 60, 0
3, 28800, Note_on_c, 2, 45, 0
3, 28800, Note_on_c, 2, 50, 66
3, 28922, Note_on_c, 2, 66, 55
3, 28982, Note_on_c, 2, 57, 36
3, 29040, Note_on_c, 2, 57, 0
3, 29040, Note_on_c, 2, 66, 0
3, 29040, Note_on_c, 2, 50, 0
3, 29040, Note_on_c, 2, 50, 66
3, 29162, Note_on_c, 2, 66, 55
3, 29222, Note_on_c, 2, 57, 36
3, 29285, Note_on_c, 2, 45, 53
3, 29290, Note_on_c, 2, 50, 0
3, 29320, Note_on_c, 2, 57, 0
3, 29348, Note_on_c, 2, 57, 53
3, 29407, Note_on_c, 2, 63, 66
3, 29520, Note_on_c, 2, 63, 0
3, 29520, Note_on_c, 2, 45, 0
3, 29520, Note_on_c, 2, 66, 0
3, 29520, Note_on_c, 2, 57, 0
3, 29520, Note_on_c, 2, 43, 66
3, 29642, Note_on_c, 2, 58, 55
3, 29702, Note_on_c, 2, 50, 36
3, 29760, Note_on_c, 2, 50, 0
3, 29760, Note_on_c, 2, 58, 0
3, 29760, Note_on_c, 2, 43, 0
3, 29760, Note_on_c, 2, 45, 66
3, 29882, Note_on_c, 2, 60, 55
3, 29942, Note_on_c, 2, 52, 36
3, 30000, Note_on_c, 2, 52, 0
3, 30000, Note_on_c, 2, 60, 0
3, 30000, Note_on_c, 2, 45, 0
3, 30000, Note_on_c, 2, 46, 66
3, 30122, Note_on_c, 2, 62, 55
3, 30182, Note_on_c, 2, 53, 36
3, 30240, Note_on_c, 2, 53, 0
3, 30240, Note_on_c, 2, 62, 0
3, 30240, Note_on_c, 2, 46, 0
3, 30240, Note_on_c, 2, 48, 66
3, 30362, Note_on_c, 2, 65, 55
3, 30422, Note_on_c, 2, 55, 36
3, 30480, Note_on_c, 2, 55, 0
3, 30480, Note_on_c, 2, 65, 0
3, 30480, Note_on_c, 2, 48, 0
3, 30480, Note_on_c, 2, 48, 66
3, 30602, Note_on_c, 2, 65, 55
3, 30662, Note_on_c, 2, 55, 36
3, 30725, Note_on_c, 2, 43, 53
3, 30730, Note_on_c, 2, 48, 0
3, 30760, Note_on_c, 2, 55, 0
3, 30788, Note_on_c, 2, 55, 53
3, 30847, Note_on_c, 2, 62, 66
3, 30960, Note_on_c, 2, 62, 0
3, 30960, Note_on_c, 2, 43, 0
3, 30960, Note_on_c, 2, 65, 0
3, 30960, Note_on_c, 2, 55, 0
3, 30960, Note_on_c, 2, 53, 66
3, 31082, Note_on_c, 2, 69, 55
3, 31142, Note_on_c, 2, 60, 36
3, 31205, Note_on_c, 2, 48, 53
3, 31210, Note_on_c, 2, 53, 0
3, 31240, Note_on_c, 2, 60, 0
3, 31268, Note_on_c, 2, 60, 53
3, 31327, Note_on_c, 2, 65, 66
3, 31440, Note_on_c, 2, 65, 0
3, 31440, Note_on_c, 2, 48, 0
3, 31440, Note_on_c, 2, 69, 0
3, 31440, Note_on_c, 2, 60, 0
3, 31440, Note_on_c, 2, 53, 66
3, 31562, Note_on_c, 2, 69, 55
3, 31622, Note_on_c, 2, 60, 36
3, 31680, Note_on_c, 2, 60, 0
3, 31680, Note_on_c, 2, 69, 0
3, 31680, Note_on_c, 2, 53, 0
3, 31680, Note_on_c, 2, 53, 66
3, 31802, Note_on_c, 2, 69, 55
3, 31862, Note_on_c, 2, 60, 36
3, 31920, Note_on_c, 2, 60, 0
3, 31920, Note_on_c, 2, 69, 0
3, 31920, Note_on_c, 2, 53, 0
3, 31920, Note_on_c, 2, 52, 66
3, 32042, Note_on_c, 2, 65, 55
3, 32102, Note_on_c, 2, 57, 36
3, 32165, Note_on_c, 2, 45, 53
3, 32170, Note_on_c, 2, 52, 0
3, 32200, Note_on_c, 2, 57, 0
3, 32228, Note_on_c, 2, 57, 53
3, 32287, Note_on_c, 2, 62, 66
3, 32400, Note_on_c, 2, 62, 0
3, 32400, Note_on_c, 2, 45, 0
3, 32400, Note_on_c, 2, 65, 0
3, 32400, Note_on_c, 2, 57, 0
3, 32400, Note_on_c, 2, 52, 66
3, 32522, Note_on_c, 2, 65, 55
3, 32582, Note_on_c, 2, 57, 36
3, 32640, Note_on_c, 2, 57, 0
3, 32640, Note_on_c, 2, 65, 0
3, 32640, Note_on_c, 2, 52, 0
3, 32640, Note_on_c, 2, 43, 66
3, 32762, Note_on_c, 2, 58, 55
3, 32822, Note_on_c, 2, 50, 36
3, 32880, Note_on_c, 2, 50, 0
3, 32880, Note_on_c, 2, 58, 0
3, 32880, Note_on_c, 2, 43, 0
3, 32880, Note_on_c, 2, 53, 66
3, 33002, Note_on_c, 2, 69, 55
3, 33062, Note_on_c, 2, 60, 36
3, 33125, Note_on_c, 2, 48, 53
3, 33130, Note_on_c, 2, 53, 0
3, 33160, Note_on_c, 2, 60, 0
3, 33188, Note_on_c, 2, 60, 53
3, 33247, Note_on_c, 2, 65, 66
3, 33342, Control_c, 2, 7, 87
3, 33360, Note_on_c, 2, 65, 0
3, 33360, Note_on_c, 2, 48, 0
3, 33360, Note_on_c, 2, 69, 0
3, 33360, Note_on_c, 2, 60, 0
3, 33360, Note_on_c, 2, 53, 66
3, 33392, Control_c, 2, 7, 86
3, 33432, Control_c, 2, 7, 85
3, 33472, Control_c, 2, 7, 84
3, 33482, Note_on_c, 2, 69, 55
3, 33512, Control_c, 2, 7, 83
3, 33542, Note_on_c, 2, 60, 36
3, 33552, Control_c, 2, 7, 82
3, 33592, Control_c, 2, 7, 81
3, 33600, Note_on_c, 2, 60, 0
3, 33600, Note_on_c, 2, 69, 0
3, 33600, Note_on_c, 2, 53, 0
3, 33600, Note_on_c, 2, 53, 66
3, 33632, Control_c, 2, 7, 80
3, 33682, Control_c, 2, 7, 79
3, 33722, Control_c, 2, 7, 78
3, 33722, Note_on_c, 2, 69, 55
3, 33762, Control_c, 2, 7, 77
3, 33782, Note_on_c, 2, 60, 36
3, 33802, Control_c, 2, 7, 76
3, 33840, Note_on_c, 2, 60, 0
3, 33840, Note_on_c, 2, 69, 0
3, 33840, Note_on_c, 2, 53, 0
3, 33840, Note_on_c, 2, 52, 66
3, 33842, Control_c, 2, 7, 75
3, 33882, Control_c, 2, 7, 74
3, 33922, Control_c, 2, 7, 73
3, 33962, Note_on_c, 2, 65, 55
3, 33972, Control_c, 2, 7, 72
3, 34012, Control_c, 2, 7, 71
3, 34022, Note_on_c, 2, 57, 36
3, 34052, Control_c, 2, 7, 70
3, 34085, Note_on_c, 2, 45, 53
3, 34090, Note_on_c, 2, 52, 0
3, 34092, Control_c, 2, 7, 69
3, 34120, Note_on_c, 2, 57, 0
3, 34132, Control_c, 2, 7, 68
3, 34148, Note_on_c, 2, 57, 53
3, 34172, Control_c, 2, 7, 67
3, 34207, Note_on_c, 2, 62, 66
3, 34212, Control_c, 2, 7, 66
3, 34262, Control_c, 2, 7, 65
3, 34302, Control_c, 2, 7, 64
3, 34320, Note_on_c, 2, 62, 0
3, 34320, Note_on_c, 2, 45, 0
3, 34320, Note_on_c, 2, 65, 0
3, 34320, Note_on_c, 2, 57, 0
3, 34320, Note_on_c, 2, 52, 66
3, 34342, Control_c, 2, 7, 63
3, 34382, Control_c, 2, 7, 62
3, 34422, Control_c, 2, 7, 61
3, 34442, Note_on_c, 2, 65, 55
3, 34462, Control_c, 2, 7, 60
3, 34502, Control_c, 2, 7, 59
3, 34502, Note_on_c, 2, 57, 36
3, 34552, Control_c, 2, 7, 58
3, 34560, Note_on_c, 2, 57, 0
3, 34560, Note_on_c, 2, 65, 0
3, 34560, Note_on_c, 2, 52, 0
3, 34560, Note_on_c, 2, 43, 66
3, 34592, Control_c, 2, 7, 57
3, 34632, Control_c, 2, 7, 56
3, 34672, Control_c, 2, 7, 55
3, 34682, Note_on_c, 2, 58, 55
3, 34712, Control_c, 2, 7, 54
3, 34742, Note_on_c, 2, 50, 36
3, 34752, Control_c, 2, 7, 53
3, 34792, Control_c, 2, 7, 52
3, 34800, Note_on_c, 2, 50, 0
3, 34800, Note_on_c, 2, 58, 0
3, 34800, Note_on_c, 2, 43, 0
3, 34800, Note_on_c, 2, 53, 66
3, 34842, Control_c, 2, 7, 51
3, 34882, Control_c, 2, 7, 50
3, 34922, Control_c, 2, 7, 49
3, 34922, Note_on_c, 2, 69, 55
3, 34962, Control_c, 2, 7, 48
3, 34982, Note_on_c, 2, 60, 36
3, 35002, Control_c, 2, 7, 47
3, 35042, Control_c, 2, 7, 46
3, 35045, Note_on_c, 2, 48, 53
3, 35050, Note_on_c, 2, 53, 0
3, 35080, Note_on_c, 2, 60, 0
3, 35082, Control_c, 2, 7, 45
3, 35108, Note_on_c, 2, 60, 53
3, 35122, Control_c, 2, 7, 44
3, 35167, Note_on_c, 2, 65, 66
3, 35172, Control_c, 2, 7, 43
3, 35212, Control_c, 2, 7, 42
3, 35252, Control_c, 2, 7, 41
3, 35280, Note_on_c, 2, 65, 0
3, 35280, Note_on_c, 2, 48, 0
3, 35280, Note_on_c, 2, 69, 0
3, 35280, Note_on_c, 2, 60, 0
3, 35280, Note_on_c, 2, 53, 66
3, 35292, Control_c, 2, 7, 40
3, 35332, Control_c, 2, 7, 39
3, 35372, Control_c, 2, 7, 38
3, 35402, Note_on_c, 2, 69, 55
3, 35412, Control_c, 2, 7, 37
3, 35462, Control_c, 2, 7, 36
3, 35462, Note_on_c, 2, 60, 36
3, 35502, Control_c, 2, 7, 35
3, 35520, Note_on_c, 2, 60, 0
3, 35520, Note_on_c, 2, 69, 0
3, 35520, Note_on_c, 2, 53, 0
3, 35520, Note_on_c, 2, 53, 66
3, 35542, Control_c, 2, 7, 34
3, 35582, Control_c, 2, 7, 33
3, 35622, Control_c, 2, 7, 32
3, 35642, Note_on_c, 2, 69, 55
3, 35662, Control_c, 2, 7, 31
3, 35702, Control_c, 2, 7, 30
3, 35702, Note_on_c, 2, 60, 36
3, 35752, Control_c, 2, 7, 29
3, 35760, Note_on_c, 2, 60, 0
3, 35760, Note_on_c, 2, 69, 0
3, 35760, Note_on_c, 2, 53, 0
3, 35760, Note_on_c, 2, 52, 66
3, 35792, Control_c, 2, 7, 28
3, 35832, Control_c, 2, 7, 27
3, 35872, Control_c, 2, 7, 26
3, 35882, Note_on_c, 2, 65, 55
3, 35912, Control_c, 2, 7, 25
3, 35942, Note_on_c, 2, 57, 36
3, 35952, Control_c, 2, 7, 24
3, 35992, Control_c, 2, 7, 23
3, 36005, Note_on_c, 2, 45, 53
3, 36010, Note_on_c, 2, 52, 0
3, 36040, Note_on_c, 2, 57, 0
3, 36042, Control_c, 2, 7, 22
3, 36068, Note_on_c, 2, 57, 53
3, 36082, Control_c, 2, 7, 21
3, 36122, Control_c, 2, 7, 20
3, 36127, Note_on_c, 2, 62, 66
3, 36162, Control_c, 2, 7, 19
3, 36202, Control_c, 2, 7, 18
3, 36240, Note_on_c, 2, 62, 0
3, 36240, Note_on_c, 2, 45, 0
3, 36240, Note_on_c, 2, 65, 0
3, 36240, Note_on_c, 2, 57, 0
3, 36240, Note_on_c, 2, 52, 66
3, 36242, Control_c, 2, 7, 17
3, 36282, Control_c, 2, 7, 16
3, 36332, Control_c, 2, 7, 15
3, 36362, Note_on_c, 2, 65, 55
3, 36372, Control_c, 2, 7, 14
3, 36412, Control_c, 2, 7, 10
3, 38773, Control_c, 2, 36, 30
3, 45180, Control_c, 2, 12, 28
3, 47541, Control_c, 2, 0, 0
3, 47606, Control_c, 2, 0, 0
3, 47658, Control_c, 2, 0, 0
3, 47701, Control_c, 2, 66, 12
3, 54108, Control_c, 2, 11, 40
3, 54115, Control_c, 2, 10, 40
3, 54122, Control_c, 2, 9, 30
3, 56484, Control_c, 2, 55, 20
3, 62891, Control_c, 2, 8, 40
3, 62898, Control_c, 2, 7, 0
3, 65252, Control_c, 2, 36, 40
3, 71659, Control_c, 2, 6, 18
3, 74013, Control_c, 2, 0, 0
3, 74071, Control_c, 2, 0, 0
3, 74114, Control_c, 2, 0, 0
3, 80578, Control_c, 2, 0, 22
3, 80585, Control_c, 2, 5, 40
3, 80592, Control_c, 2, 4, 40
3, 80599, Control_c, 2, 3, 40
3, 80606, Control_c, 2, 2, 40
3, 80613, Control_c, 2, 1, 0
3, 96916, Control_c, 2, 0, 77
3, 96916, Control_c, 2, 0, 0
3, 96916, Control_c, 2, 0, 0
3, 96916, Control_c, 2, 0, 0
3, 96916, Control_c, 2, 0, 0
3, 125461, Control_c, 2, 0, 0
3, 125461, Control_c, 2, 0, 0
3, 125461, Control_c, 2, 0, 0
3, 125461, Control_c, 2, 0, 0
3, 125461, Control_c, 2, 0, 0
3, 125461, Control_c, 2, 0, 0
3, 125461, Control_c, 2, 0, 0
3, 125461, Control_c, 2, 0, 0
3, 125461, Control_c, 2, 0, 0
3, 125461, Control_c, 2, 0, 0
3, 125461, Control_c, 2, 0, 0
3, 125461, Control_c, 2, 0, 0
3, 125461, Control_c, 2, 0, 0
3, 125461, Control_c, 2, 0, 0
3, 125461, Control_c, 2, 0, 0
3, 125461, Control_c, 2, 0, 0
3, 125461, Control_c, 2, 0, 0
3, 125461, Control_c, 2, 0, 0
3, 125461, Control_c, 2, 0, 0
3, 125461, Control_c, 2, 0, 0
3, 125461, Control_c, 2, 0, 0
3, 125461, Control_c, 2, 0, 0
3, 125461, Control_c, 2, 0, 0
3, 125461, Control_c, 2, 0, 0
3, 125461, Control_c, 2, 0, 0
3, 125461, Control_c, 2, 0, 0
3, 125461, Control_c, 2, 0, 0
3, 125461, Control_c, 2, 0, 0
3, 125461, Control_c, 2, 0, 0
3, 125461, Control_c, 2, 0, 0
3, 125461, Control_c, 2, 0, 0
3, 125461, Control_c, 2, 0, 0
3, 125461, Control_c, 2, 0, 0
3, 125461, Control_c, 2, 0, 0
3, 125461, Control_c, 2, 0, 0
3, 125461, Control_c, 2, 0, 0
3, 125461, Control_c, 2, 0, 0
3, 125461, Control_c, 2, 0, 0
3, 125461, Control_c, 2, 0, 0
3, 125461, Control_c, 2, 0, 0
3, 125461, Control_c, 2, 0, 0
3, 125461, Control_c, 2, 0, 0
3, 125461, Control_c, 2, 0, 0
3, 125461, Control_c, 2, 0, 0
3, 125461, Control_c, 2, 0, 0
3, 125461, Control_c, 2, 0, 0
3, 125461, Control_c, 2, 0, 0
3, 125461, Control_c, 2, 0, 0
3, 125461, Control_c, 2, 0, 0
3, 125461, Control_c, 2, 0, 0
3, 125461, Control_c, 2, 0, 0
3, 125461, Control_c, 2, 0, 0
3, 125461, Control_c, 2, 0, 0
3, 125461, Control_c, 2, 0, 0
3, 125461, Control_c, 2, 0, 0
3, 125461, Control_c, 2, 0, 0
3, 125461, Control_c, 2, 0, 0
3, 125461, Control_c, 2, 0, 0
3, 125461, Control_c, 2, 0, 0
3, 125461, Control_c, 2, 0, 0
3, 125461, Control_c, 2, 0, 0
3, 125461, Control_c, 2, 0, 0
3, 125461, Control_c, 2, 0, 0
3, 125461, Control_c, 2, 0, 0
3, 125461, Control_c, 2, 0, 0
3, 125461, Control_c, 2, 0, 0
3, 125461, Control_c, 2, 0, 0
3, 125461, Control_c, 2, 0, 0
3, 125461, Control_c, 2, 0, 0
3, 125461, Control_c, 2, 0, 0
3, 125461, Control_c, 2, 0, 0
3, 125461, Control_c, 2, 0, 0
3, 125461, Control_c, 2, 0, 0
3, 125461, Control_c, 2, 0, 0
3, 125461, Control_c, 2, 0, 0
3, 125461, Control_c, 2, 0, 0
3, 125461, Control_c, 2, 0, 0
3, 125461, Control_c, 2, 0, 0
3, 125461, Control_c, 2, 0, 0
3, 125461, Control_c, 2, 0, 0
3, 125461, Control_c, 2, 0, 0
3, 125461, Control_c, 2, 0, 0
3, 125461, Control_c, 2, 0, 0
3, 125461, Control_c, 2, 0, 0
3, 125461, Control_c, 2, 0, 0
3, 125461, Control_c, 2, 0, 0
3, 125461, Control_c, 2, 0, 0
3, 125461, Control_c, 2, 0, 0
3, 125461, Control_c, 2, 0, 0
3, 125461, Control_c, 2, 0, 0
3, 125461, Control_c, 2, 0, 0
3, 125461, Control_c, 2, 0, 0
3, 125461, Control_c, 2, 0, 0
3, 125461, Control_c, 2, 0, 0
3, 125461, Control_c, 2, 0, 0
3, 125461, Control_c, 2, 0, 0
3, 125461, Control_c, 2, 0, 0
3, 125461, Control_c, 2, 0, 0
3, 125461, Control_c, 2, 0, 0
3, 125461, Control_c, 2, 0, 0
3, 125461, Control_c, 2, 0, 0
3, 125461, Control_c, 2, 0, 0
3, 125461, Control_c, 2, 0, 0
3, 125461, Control_c, 2, 0, 0
3, 125461, Control_c, 2, 0, 0
3, 125461, Control_c, 2, 0, 0
3, 125461, Control_c, 2, 0, 0
3, 125461, Control_c, 2, 0, 0
3, 125461, Control_c, 2, 0, 0
3, 125461, Control_c, 2, 0, 0
3, 125461, Control_c, 2, 0, 0
3, 125461, Control_c, 2, 0, 0
3, 125461, Control_c, 2, 0, 0
3, 125461, Control_c, 2, 0, 0
3, 125461, Control_c, 2, 0, 0
3, 125461, Control_c, 2, 0, 0
3, 125461, Control_c, 2, 0, 0
3, 125461, Control_c, 2, 0, 0
3, 125461, Control_c, 2, 0, 0
3, 125461, Control_c, 2, 0, 0
3, 125461, Control_c, 2, 0, 0
3, 125461, Control_c, 2, 0, 0
3, 125461, Control_c, 2, 0, 0
3, 125461, Control_c, 2, 0, 0
3, 125461, Control_c, 2, 0, 0
3, 125461, Control_c, 2, 0, 0
3, 125461, Control_c, 2, 0, 0
3, 125461, Control_c, 2, 0, 0
3, 125461, Control_c, 2, 0, 0
3, 125461, Control_c, 2, 0, 0
3, 125461, Control_c, 2, 0, 0
3, 125461, Control_c, 2, 0, 0
3, 125461, Control_c, 2, 0, 0
3, 125461, Control_c, 2, 0, 0
3, 125461, Control_c, 2, 0, 0
3, 125461, Control_c, 2, 0, 0
3, 125461, Control_c, 2, 0, 0
3, 125461, Control_c, 2, 0, 0
3, 125461, Control_c, 2, 0, 0
3, 125461, Control_c, 2, 0, 0
3, 125461, Control_c, 2, 0, 0
3, 125461, Control_c, 2, 0, 0
3, 125461, Control_c, 2, 0, 0
3, 125461, Control_c, 2, 0, 0
3, 125461, Control_c, 2, 0, 0
3, 125461, Control_c, 2, 0, 0
3, 125461, Control_c, 2, 0, 0
3, 125461, Control_c, 2, 0, 0
3, 125461, Control_c, 2, 0, 0
3, 125461, Control_c, 2, 0, 0
3, 125461, Control_c, 2, 0, 0
3, 125461, Control_c, 2, 0, 0
3, 125461, Control_c, 2, 0, 0
3, 125461, Control_c, 2, 0, 0
3, 125461, Control_c, 2, 0, 0
3, 125461, Control_c, 2, 0, 0
3, 125461, Control_c, 2, 0, 0
3, 125461, Control_c, 2, 0, 0
3, 125461, Control_c, 2, 0, 0
3, 125461, Control_c, 2, 0, 0
3, 125461, Control_c, 2, 0, 0
3, 125461, Control_c, 2, 0, 0
3, 125461, Control_c, 2, 0, 0
3, 125461, Control_c, 2, 0, 0
3, 125461, Control_c, 2, 0, 0
3, 125461, Control_c, 2, 0, 0
3, 125461, Control_c, 2, 0, 0
3, 125461, Control_c, 2, 0, 0
3, 125461, Control_c, 2, 0, 0
3, 125461, Control_c, 2, 0, 0
3, 125461, Control_c, 2, 0, 0
3, 125461, Control_c, 2, 0, 0
3, 125461, Control_c, 2, 0, 0
3, 125461, Control_c, 2, 0, 0
3, 125461, Control_c, 2, 0, 0
3, 125461, Control_c, 2, 0, 0
3, 125461, Control_c, 2, 0, 0
3, 125461, Control_c, 2, 0, 0
3, 125461, Control_c, 2, 0, 0
3, 125461, Control_c, 2, 0, 0
3, 125461, Control_c, 2, 0, 0
3, 125461, Control_c, 2, 0, 0
3, 125461, Control_c, 2, 0, 0
3, 125461, Control_c, 2, 0, 0
3, 125461, Control_c, 2, 0, 0
3, 125461, Control_c, 2, 0, 0
3, 125461, Control_c, 2, 0, 0
3, 125461, Control_c, 2, 0, 0
3, 125461, Control_c, 2, 0, 0
3, 125461, Control_c, 2, 0, 0
3, 125461, Control_c, 2, 0, 0
3, 125461, Control_c, 2, 0, 0
3, 125461, Control_c, 2, 0, 0
3, 125461, Control_c, 2, 0, 0
3, 125461, Control_c, 2, 0, 0
3, 125461, Control_c, 2, 0, 0
3, 125461, Control_c, 2, 0, 0
3, 125461, Control_c, 2, 0, 0
3, 125461, Control_c, 2, 0, 0
3, 125461, Control_c, 2, 0, 0
3, 125461, Control_c, 2, 0, 0
3, 125461, Control_c, 2, 0, 0
3, 125461, Control_c, 2, 0, 0
3, 125461, Control_c, 2, 0, 0
3, 125461, Control_c, 2, 0, 0
3, 125461, Control_c, 2, 0, 0
3, 125461, Control_c, 2, 0, 0
3, 125461, Control_c, 2, 0, 0
3, 125461, Control_c, 2, 0, 0
3, 125461, Control_c, 2, 0, 0
3, 125461, Control_c, 2, 0, 0
3, 125461, Control_c, 2, 0, 0
3, 125461, Control_c, 2, 0, 0
3, 125461, Control_c, 2, 0, 0
3, 125461, Control_c, 2, 0, 0
3, 125461, Control_c, 2, 0, 0
3, 125461, Control_c, 2, 0, 0
3, 125461, Control_c, 2, 0, 0
3, 125461, Control_c, 2, 0, 0
3, 125461, Control_c, 2, 0, 0
3, 125461, Control_c, 2, 0, 0
3, 125461, Control_c, 2, 0, 0
3, 125461, Control_c, 2, 0, 0
3, 125461, Control_c, 2, 0, 0
3, 125461, Control_c, 2, 0, 0
3, 125461, Control_c, 2, 0, 0
3, 125461, Control_c, 2, 0, 0
3, 125461, Control_c, 2, 0, 0
3, 125461, Control_c, 2, 0, 0
3, 125461, Control_c, 2, 0, 0
3, 125461, Control_c, 2, 0, 0
3, 125461, Control_c, 2, 0, 0
3, 125461, Control_c, 2, 0, 0
3, 125461, Control_c, 2, 0, 0
3, 125461, Control_c, 2, 0, 0
3, 125461, Control_c, 2, 0, 0
3, 125461, Control_c, 2, 0, 0
3, 125461, Control_c, 2, 0, 0
3, 125461, Control_c, 2, 0, 0
3, 125461, Control_c, 2, 0, 0
3, 125461, Control_c, 2, 0, 0
3, 125461, Control_c, 2, 0, 0
3, 125461, Control_c, 2, 0, 0
3, 125461, Control_c, 2, 0, 0
3, 125461, Control_c, 2, 0, 0
3, 125461, Control_c, 2, 0, 0
3, 125461, Control_c, 2, 0, 0
3, 125461, Control_c, 2, 0, 0
3, 125461, Control_c, 2, 0, 0
3, 125461, Control_c, 2, 0, 0
3, 125461, Control_c, 2, 0, 0
3, 125461, Control_c, 2, 0, 0
3, 125461, Control_c, 2, 0, 0
3, 125461, Control_c, 2, 0, 0
3, 125461, Control_c, 2, 0, 0
3, 125461, Control_c, 2, 0, 0
3, 125461, Control_c, 2, 0, 0
3, 125461, Control_c, 2, 0, 0
3, 125461, Control_c, 2, 0, 0
3, 125461, Control_c, 2, 0, 0
3, 125461, Control_c, 2, 0, 0
3, 125461, Control_c, 2, 0, 0
3, 125461, Control_c, 2, 0, 0
3, 125461, Control_c, 2, 0, 0
3, 125461, Control_c, 2, 0, 0
3, 125461, Control_c, 2, 0, 0
3, 125461, Control_c, 2, 0, 0
3, 125461, Control_c, 2, 0, 0
3, 125461, Control_c, 2, 0, 0
3, 125461, Control_c, 2, 0, 0
3, 125461, Control_c, 2, 0, 0
3, 125461, Control_c, 2, 0, 0
3, 125461, Control_c, 2, 0, 0
3, 125461, Control_c, 2, 0, 0
3, 125461, Control_c, 2, 0, 0
3, 125461, Control_c, 2, 0, 0
3, 125461, Control_c, 2, 0, 0
3, 125461, Control_c, 2, 0, 0
3, 125461, Control_c, 2, 0, 0
3, 125461, Control_c, 2, 0, 0
3, 125461, Control_c, 2, 0, 0
3, 125461, Control_c, 2, 0, 0
3, 125461, Control_c, 2, 0, 0
3, 125461, Control_c, 2, 0, 0
3, 125461, Control_c, 2, 0, 0
3, 125461, Control_c, 2, 0, 0
3, 125461, Control_c, 2, 0, 0
3, 125461, Control_c, 2, 0, 0
3, 125461, Control_c, 2, 0, 0
3, 125461, Control_c, 2, 0, 0
3, 125461, Control_c, 2, 0, 0
3, 125461, Control_c, 2, 0, 0
3, 125461, Control_c, 2, 0, 0
3, 125461, Control_c, 2, 0, 0
3, 125461, Control_c, 2, 0, 0
3, 125461, Control_c, 2, 0, 0
3, 125461, Control_c, 2, 0, 0
3, 125461, Control_c, 2, 0, 0
3, 125461, Control_c, 2, 0, 0
3, 125461, Control_c, 2, 0, 0
3, 125461, Control_c, 2, 0, 0
3, 125461, Control_c, 2, 0, 0
3, 125461, Control_c, 2, 0, 0
3, 125461, Control_c, 2, 0, 0
3, 125461, Control_c, 2, 0, 0
3, 125461, Control_c, 2, 0, 0
3, 125461, Control_c, 2, 0, 0
3, 125461, Control_c, 2, 0, 0
3, 125461, Control_c, 2, 0, 0
3, 125461, Control_c, 2, 0, 0
3, 125461, Control_c, 2, 0, 0
3, 125461, Control_c, 2, 0, 0
3, 125461, Control_c, 2, 0, 0
3, 125461, Control_c, 2, 0, 0
3, 125461, Control_c, 2, 0, 0
3, 125461, Control_c, 2, 0, 0
3, 125461, Control_c, 2, 0, 0
3, 125461, Control_c, 2, 0, 0
3, 125461, Control_c, 2, 0, 0
3, 125461, Control_c, 2, 0, 0
3, 125461, Control_c, 2, 0, 0
3, 125461, Control_c, 2, 0, 0
3, 125461, Control_c, 2, 0, 0
3, 125461, Control_c, 2, 0, 0
3, 125461, Control_c, 2, 0, 0
3, 125461, Control_c, 2, 0, 0
3, 125461, Control_c, 2, 0, 0
3, 125461, Control_c, 2, 0, 0
3, 125461, Control_c, 2, 0, 0
3, 125461, Control_c, 2, 0, 0
3, 125461, Control_c, 2, 0, 0
3, 125461, Control_c, 2, 0, 0
3, 125461, Control_c, 2, 0, 0
3, 125461, Control_c, 2, 0, 0
3, 125461, Control_c, 2, 0, 0
3, 125461, Control_c, 2, 0, 0
3, 125461, Control_c, 2, 0, 0
3, 125461, Control_c, 2, 0, 0
3, 125461, Control_c, 2, 0, 0
3, 125461, Control_c, 2, 0, 0
3, 125461, Control_c, 2, 0, 0
3, 125461, Control_c, 2, 0, 0
3, 125461, Control_c, 2, 0, 0
3, 125461, Control_c, 2, 0, 0
3, 125461, Control_c, 2, 0, 0
3, 125461, Control_c, 2, 0, 0
3, 125461, Control_c, 2, 0, 0
3, 125461, Control_c, 2, 0, 0
3, 125461, Control_c, 2, 0, 0
3, 125461, Control_c, 2, 0, 0
3, 125461, Control_c, 2, 0, 0
3, 125461, Control_c, 2, 0, 0
3, 125461, Control_c, 2, 0, 0
3, 125461, Control_c, 2, 0, 0
3, 125461, Control_c, 2, 0, 0
3, 125461, Control_c, 2, 0, 0
3, 125461, Control_c, 2, 0, 0
3, 125461, Control_c, 2, 0, 0
3, 125461, Control_c, 2, 0, 0
3, 125461, Control_c, 2, 0, 0
3, 125461, Control_c, 2, 0, 0
3, 125461, Control_c, 2, 0, 0
3, 125461, Control_c, 2, 0, 0
3, 125461, Control_c, 2, 0, 0
3, 125461, Control_c, 2, 0, 0
3, 125461, Control_c, 2, 0, 0
3, 125461, Control_c, 2, 0, 0
3, 125461, Control_c, 2, 0, 0
3, 125461, Control_c, 2, 0, 0
3, 125461, Control_c, 2, 0, 0
3, 125461, Control_c, 2, 0, 0
3, 125461, Control_c, 2, 0, 0
3, 125461, Control_c, 2, 0, 0
3, 125461, Control_c, 2, 0, 0
3, 125461, Control_c, 2, 0, 0
3, 125461, Control_c, 2, 0, 0
3, 125461, Control_c, 2, 0, 0
3, 125461, Control_c, 2, 0, 0
3, 125461, Control_c, 2, 0, 0
3, 125461, Control_c, 2, 0, 0
3, 125461, Control_c, 2, 0, 0
3, 125461, Control_c, 2, 0, 0
3, 125461, Control_c, 2, 0, 0
3, 125461, Control_c, 2, 0, 0
3, 125461, Control_c, 2, 0, 0
3, 125461, Control_c, 2, 0, 0
3, 125461, Control_c, 2, 0, 0
3, 125461, Control_c, 2, 0, 0
3, 125461, Control_c, 2, 0, 0
3, 125461, Control_c, 2, 0, 0
3, 125461, Control_c, 2, 0, 0
3, 125461, Control_c, 2, 0, 0
3, 125461, Control_c, 2, 0, 0
3, 125461, Control_c, 2, 0, 0
3, 125461, Control_c, 2, 0, 0
3, 125461, Control_c, 2, 0, 0
3, 125461, Control_c, 2, 0, 0
3, 125461, Control_c, 2, 0, 0
3, 125461, Control_c, 2, 0, 0
3, 125461, Control_c, 2, 0, 0
3, 125461, Control_c, 2, 0, 0
3, 125461, Control_c, 2, 0, 0
3, 125461, Control_c, 2, 0, 0
3, 125461, Control_c, 2, 0, 0
3, 125461, Control_c, 2, 0, 0
3, 125461, Control_c, 2, 0, 0
3, 125461, Control_c, 2, 0, 0
3, 125461, Control_c, 2, 0, 0
3, 125461, Control_c, 2, 0, 0
3, 125461, Control_c, 2, 0, 0
3, 125461, Control_c, 2, 0, 0
3, 125461, Control_c, 2, 0, 0
3, 125461, Control_c, 2, 0, 0
3, 125461, Control_c, 2, 0, 0
3, 125461, Control_c, 2, 0, 0
3, 125461, Control_c, 2, 0, 0
3, 125461, Control_c, 2, 0, 0
3, 125461, Control_c, 2, 0, 0
3, 125461, Control_c, 2, 0, 0
3, 125461, Control_c, 2, 0, 0
3, 125461, Control_c, 2, 0, 0
3, 125461, Control_c, 2, 0, 0
3, 125461, Control_c, 2, 0, 0
3, 125461, Control_c, 2, 0, 0
3, 125461, Control_c, 2, 0, 0
3, 125461, Control_c, 2, 0, 0
3, 125461, Control_c, 2, 0, 0
3, 125461, Control_c, 2, 0, 0
3, 125461, Control_c, 2, 0, 0
3, 125461, Control_c, 2, 0, 0
3, 125461, Control_c, 2, 0, 0
3, 125461, Control_c, 2, 0, 0
3, 125461, Control_c, 2, 0, 0
3, 125461, Control_c, 2, 0, 0
3, 125461, Control_c, 2, 0, 0
3, 125461, Control_c, 2, 0, 0
3, 125461, Control_c, 2, 0, 0
3, 125461, Control_c, 2, 0, 0
3, 125461, Control_c, 2, 0, 0
3, 125461, Control_c, 2, 0, 0
3, 125461, Control_c, 2, 0, 0
3, 125461, Control_c, 2, 0, 0
3, 125461, Control_c, 2, 0, 0
3, 125461, Control_c, 2, 0, 0
3, 125461, Control_c, 2, 0, 0
3, 125461, Control_c, 2, 0, 0
3, 125461, Control_c, 2, 0, 0
3, 125461, Control_c, 2, 0, 0
3, 125461, Control_c, 2, 0, 0
3, 125461, Control_c, 2, 0, 0
3, 125461, Control_c, 2, 0, 0
3, 125461, Control_c, 2, 0, 0
3, 125461, Control_c, 2, 0, 0
3, 125461, Control_c, 2, 0, 0
3, 125461, Control_c, 2, 0, 0
3, 125461, Control_c, 2, 0, 0
3, 125461, Control_c, 2, 0, 0
3, 125461, Control_c, 2, 0, 0
3, 125461, Control_c, 2, 0, 0
3, 125461, Control_c, 2, 0, 0
3, 125461, Control_c, 2, 0, 0
3, 125461, Control_c, 2, 0, 0
3, 125461, Control_c, 2, 0, 0
3, 125461, Control_c, 2, 0, 0
3, 125461, Control_c, 2, 0, 0
3, 125461, Control_c, 2, 0, 0
3, 125461, Control_c, 2, 0, 0
3, 125461, Control_c, 2, 0, 0
3, 125461, Control_c, 2, 0, 0
3, 125461, Control_c, 2, 0, 0
3, 125461, Control_c, 2, 0, 0
3, 125461, Control_c, 2, 0, 0
3, 125461, Control_c, 2, 0, 0
3, 125461, Control_c, 2, 0, 0
3, 125461, Control_c, 2, 0, 0
3, 125461, Control_c, 2, 0, 0
3, 125461, Control_c, 2, 0, 0
3, 125461, Control_c, 2, 0, 0
3, 125461, Control_c, 2, 0, 0
3, 125461, Control_c, 2, 0, 0
3, 125461, Control_c, 2, 0, 0
3, 125461, Control_c, 2, 0, 0
3, 125461, Control_c, 2, 0, 0
3, 125461, Control_c, 2, 0, 0
3, 125461, Control_c, 2, 0, 0
3, 125461, Control_c, 2, 0, 0
3, 125461, Control_c, 2, 0, 0
3, 125461, Control_c, 2, 0, 0
3, 125461, Control_c, 2, 0, 0
3, 125461, Control_c, 2, 0, 0
3, 125461, Control_c, 2, 0, 0
3, 125461, Control_c, 2, 0, 0
3, 125461, Control_c, 2, 0, 0
3, 125461, Control_c, 2, 0, 0
