0, 0, Header, 1, 10, 240
1, 0, Start_track
1, 0, Time_signature, 4, 2, 24, 8
1, 0, Key_signature, 0, "major"
1, 0, Tempo, 909091
1, 0, End_track
2, 0, Start_track
2, 0, MIDI_port, 0
2, 0, Program_c, 0, 60
2, 0, Control_c, 0, 7, 127
2, 5760, Note_on_c, 0, 67, 127
2, 5880, Note_on_c, 0, 67, 0
2, 5880, Note_on_c, 0, 68, 127
2, 6240, Note_on_c, 0, 68, 0
2, 6240, Note_on_c, 0, 67, 127
2, 6360, Note_on_c, 0, 67, 0
2, 6360, Note_on_c, 0, 68, 127
2, 6480, Note_on_c, 0, 68, 0
2, 6480, Note_on_c, 0, 70, 127
2, 6600, Note_on_c, 0, 70, 0
2, 6600, Note_on_c, 0, 67, 127
2, 6840, Note_on_c, 0, 67, 0
2, 6840, Note_on_c, 0, 68, 127
2, 7680, Note_on_c, 0, 68, 0
2, 7680, Note_on_c, 0, 67, 127
2, 7800, Note_on_c, 0, 67, 0
2, 7800, Note_on_c, 0, 68, 127
2, 8160, Note_on_c, 0, 68, 0
2, 8160, Note_on_c, 0, 67, 127
2, 8280, Note_on_c, 0, 67, 0
2, 8280, Note_on_c, 0, 68, 127
2, 8400, Note_on_c, 0, 68, 0
2, 8400, Note_on_c, 0, 70, 127
2, 8520, Note_on_c, 0, 70, 0
2, 8520, Note_on_c, 0, 65, 127
2, 9360, Note_on_c, 0, 65, 0
2, 9540, Note_on_c, 0, 70, 127
2, 9600, Note_on_c, 0, 70, 0
2, 9600, Note_on_c, 0, 67, 127
2, 9720, Note_on_c, 0, 67, 0
2, 9720, Note_on_c, 0, 68, 127
2, 10080, Note_on_c, 0, 68, 0
2, 10080, Note_on_c, 0, 67, 127
2, 10200, Note_on_c, 0, 67, 0
2, 10200, Note_on_c, 0, 68, 127
2, 10320, Note_on_c, 0, 68, 0
2, 10320, Note_on_c, 0, 70, 127
2, 10440, Note_on_c, 0, 70, 0
2, 10440, Note_on_c, 0, 67, 127
2, 10680, Note_on_c, 0, 67, 0
2, 10680, Note_on_c, 0, 68, 127
2, 11400, Note_on_c, 0, 68, 0
2, 11400, Note_on_c, 0, 63, 127
2, 11520, Note_on_c, 0, 63, 0
2, 11520, Note_on_c, 0, 70, 127
2, 11700, Note_on_c, 0, 70, 0
2, 11700, Note_on_c, 0, 70, 127
2, 11820, Note_on_c, 0, 70, 0
2, 11820, Note_on_c, 0, 68, 127
2, 11880, Note_on_c, 0, 68, 0
2, 11880, Note_on_c, 0, 70, 127
2, 12360, Note_on_c, 0, 70, 0
2, 12360, Note_on_c, 0, 72, 127
2, 12540, Note_on_c, 0, 72, 0
2, 12540, Note_on_c, 0, 72, 127
2, 12600, Note_on_c, 0, 72, 0
2, 12600, Note_on_c, 0, 73, 127
2, 12660, Note_on_c, 0, 73, 0
2, 12660, Note_on_c, 0, 70, 127
2, 12780, Note_on_c, 0, 70, 0
2, 12780, Note_on_c, 0, 68, 127
2, 13440, Note_on_c, 0, 68, 0
2, 20640, Note_on_c, 0, 68, 127
2, 20880, Note_on_c, 0, 68, 0
2, 20880, Note_on_c, 0, 68, 127
2, 21120, Note_on_c, 0, 68, 0
2, 21120, Note_on_c, 0, 58, 127
2, 21240, Note_on_c, 0, 58, 0
2, 21240, Note_on_c, 0, 56, 127
2, 21360, Note_on_c, 0, 56, 0
2, 21360, Note_on_c, 0, 56, 127
2, 21480, Note_on_c, 0, 56, 0
2, 21480, Note_on_c, 0, 55, 127
2, 21600, Note_on_c, 0, 55, 0
2, 21600, Note_on_c, 0, 56, 127
2, 21720, Note_on_c, 0, 56, 0
2, 21720, Note_on_c, 0, 55, 127
2, 21840, Note_on_c, 0, 55, 0
2, 21840, Note_on_c, 0, 56, 127
2, 21960, Note_on_c, 0, 56, 0
2, 21960, Note_on_c, 0, 58, 127
2, 22080, Note_on_c, 0, 58, 0
2, 22080, Note_on_c, 0, 60, 127
2, 22200, Note_on_c, 0, 60, 0
2, 22200, Note_on_c, 0, 58, 127
2, 22260, Note_on_c, 0, 58, 0
2, 22260, Note_on_c, 0, 56, 127
2, 22560, Note_on_c, 0, 56, 0
2, 22560, Note_on_c, 0, 68, 127
2, 22800, Note_on_c, 0, 68, 0
2, 22800, Note_on_c, 0, 68, 127
2, 23040, Note_on_c, 0, 68, 0
2, 23040, Note_on_c, 0, 58, 127
2, 23160, Note_on_c, 0, 58, 0
2, 23160, Note_on_c, 0, 56, 127
2, 23280, Note_on_c, 0, 56, 0
2, 23280, Note_on_c, 0, 56, 127
2, 23400, Note_on_c, 0, 56, 0
2, 23400, Note_on_c, 0, 55, 127
2, 23520, Note_on_c, 0, 55, 0
2, 23520, Note_on_c, 0, 56, 127
2, 23640, Note_on_c, 0, 56, 0
2, 23640, Note_on_c, 0, 55, 127
2, 23760, Note_on_c, 0, 55, 0
2, 23760, Note_on_c, 0, 56, 127
2, 23880, Note_on_c, 0, 56, 0
2, 23880, Note_on_c, 0, 58, 127
2, 24000, Note_on_c, 0, 58, 0
2, 24000, Note_on_c, 0, 53, 127
2, 24120, Note_on_c, 0, 53, 0
2, 24120, Note_on_c, 0, 56, 127
2, 24480, Note_on_c, 0, 56, 0
2, 24480, Note_on_c, 0, 68, 127
2, 24720, Note_on_c, 0, 68, 0
2, 24720, Note_on_c, 0, 68, 127
2, 24960, Note_on_c, 0, 68, 0
2, 24960, Note_on_c, 0, 58, 127
2, 25080, Note_on_c, 0, 58, 0
2, 25080, Note_on_c, 0, 56, 127
2, 25200, Note_on_c, 0, 56, 0
2, 25200, Note_on_c, 0, 56, 127
2, 25320, Note_on_c, 0, 56, 0
2, 25320, Note_on_c, 0, 55, 127
2, 25380, Note_on_c, 0, 55, 0
2, 25380, Note_on_c, 0, 56, 127
2, 25440, Note_on_c, 0, 56, 0
2, 25440, Note_on_c, 0, 56, 127
2, 25560, Note_on_c, 0, 56, 0
2, 25560, Note_on_c, 0, 55, 127
2, 25680, Note_on_c, 0, 55, 0
2, 25680, Note_on_c, 0, 56, 127
2, 25800, Note_on_c, 0, 56, 0
2, 25800, Note_on_c, 0, 58, 127
2, 25920, Note_on_c, 0, 58, 0
2, 25920, Note_on_c, 0, 60, 127
2, 26040, Note_on_c, 0, 60, 0
2, 26040, Note_on_c, 0, 58, 127
2, 26100, Note_on_c, 0, 58, 0
2, 26100, Note_on_c, 0, 56, 127
2, 26400, Note_on_c, 0, 56, 0
2, 26718, Note_on_c, 0, 56, 127
2, 26800, Note_on_c, 0, 56, 0
2, 26800, Note_on_c, 0, 58, 127
2, 26880, Note_on_c, 0, 58, 0
2, 26880, Note_on_c, 0, 58, 127
2, 27660, Note_on_c, 0, 58, 0
2, 27660, Note_on_c, 0, 56, 127
2, 27720, Note_on_c, 0, 56, 0
2, 27720, Note_on_c, 0, 60, 127
2, 27840, Note_on_c, 0, 60, 0
2, 27840, Note_on_c, 0, 58, 127
2, 28800, Note_on_c, 0, 58, 0
2, 28800, Note_on_c, 0, 67, 127
2, 28920, Note_on_c, 0, 67, 0
2, 28920, Note_on_c, 0, 68, 127
2, 29280, Note_on_c, 0, 68, 0
2, 29280, Note_on_c, 0, 67, 127
2, 29400, Note_on_c, 0, 67, 0
2, 29400, Note_on_c, 0, 68, 127
2, 29520, Note_on_c, 0, 68, 0
2, 29520, Note_on_c, 0, 70, 127
2, 29640, Note_on_c, 0, 70, 0
2, 29640, Note_on_c, 0, 67, 127
2, 30120, Note_on_c, 0, 67, 0
2, 30120, Note_on_c, 0, 68, 127
2, 30480, Note_on_c, 0, 68, 0
2, 30660, Note_on_c, 0, 63, 127
2, 30720, Note_on_c, 0, 63, 0
2, 30720, Note_on_c, 0, 67, 127
2, 30840, Note_on_c, 0, 67, 0
2, 30840, Note_on_c, 0, 68, 127
2, 31200, Note_on_c, 0, 68, 0
2, 31200, Note_on_c, 0, 67, 127
2, 31320, Note_on_c, 0, 67, 0
2, 31320, Note_on_c, 0, 68, 127
2, 31440, Note_on_c, 0, 68, 0
2, 31440, Note_on_c, 0, 70, 127
2, 31560, Note_on_c, 0, 70, 0
2, 31560, Note_on_c, 0, 65, 127
2, 32640, Note_on_c, 0, 65, 0
2, 32640, Note_on_c, 0, 67, 127
2, 32760, Note_on_c, 0, 67, 0
2, 32760, Note_on_c, 0, 68, 127
2, 33060, Note_on_c, 0, 68, 0
2, 33060, Note_on_c, 0, 67, 127
2, 33120, Note_on_c, 0, 67, 0
2, 33120, Note_on_c, 0, 67, 127
2, 33240, Note_on_c, 0, 67, 0
2, 33240, Note_on_c, 0, 68, 127
2, 33360, Note_on_c, 0, 68, 0
2, 33360, Note_on_c, 0, 70, 127
2, 33480, Note_on_c, 0, 70, 0
2, 33480, Note_on_c, 0, 67, 127
2, 33960, Note_on_c, 0, 67, 0
2, 33960, Note_on_c, 0, 70, 127
2, 34080, Note_on_c, 0, 70, 0
2, 34080, Note_on_c, 0, 68, 127
2, 34380, Note_on_c, 0, 68, 0
2, 34380, Note_on_c, 0, 68, 127
2, 34440, Note_on_c, 0, 68, 0
2, 34440, Note_on_c, 0, 70, 127
2, 34560, Note_on_c, 0, 70, 0
2, 34560, Note_on_c, 0, 70, 127
2, 34620, Note_on_c, 0, 70, 0
2, 34620, Note_on_c, 0, 70, 127
2, 34680, Note_on_c, 0, 70, 0
2, 34680, Note_on_c, 0, 70, 127
2, 35340, Note_on_c, 0, 70, 0
2, 35340, Note_on_c, 0, 68, 127
2, 35400, Note_on_c, 0, 68, 0
2, 35400, Note_on_c, 0, 72, 127
2, 35640, Note_on_c, 0, 72, 0
2, 35640, Note_on_c, 0, 70, 127
2, 35700, Note_on_c, 0, 70, 0
2, 35700, Note_on_c, 0, 68, 127
2, 35760, Note_on_c, 0, 68, 0
2, 35760, Note_on_c, 0, 70, 127
2, 35880, Note_on_c, 0, 70, 0
2, 35880, Note_on_c, 0, 70, 127
2, 36000, Note_on_c, 0, 70, 0
2, 36000, Note_on_c, 0, 68, 127
2, 36240, Note_on_c, 0, 68, 0
2, 36240, Note_on_c, 0, 68, 127
2, 36480, Note_on_c, 0, 68, 0
2, 36480, Note_on_c, 0, 58, 127
2, 36600, Note_on_c, 0, 58, 0
2, 36600, Note_on_c, 0, 56, 127
2, 36720, Note_on_c, 0, 56, 0
2, 36720, Note_on_c, 0, 56, 127
2, 36840, Note_on_c, 0, 56, 0
2, 36840, Note_on_c, 0, 55, 127
2, 36960, Note_on_c, 0, 55, 0
2, 36960, Note_on_c, 0, 56, 127
2, 37080, Note_on_c, 0, 56, 0
2, 37080, Note_on_c, 0, 55, 127
2, 37200, Note_on_c, 0, 55, 0
2, 37200, Note_on_c, 0, 56, 127
2, 37320, Note_on_c, 0, 56, 0
2, 37320, Note_on_c, 0, 58, 127
2, 37440, Note_on_c, 0, 58, 0
2, 37440, Note_on_c, 0, 60, 127
2, 37560, Note_on_c, 0, 60, 0
2, 37560, Note_on_c, 0, 58, 127
2, 37620, Note_on_c, 0, 58, 0
2, 37620, Note_on_c, 0, 56, 127
2, 37920, Note_on_c, 0, 56, 0
2, 37920, Note_on_c, 0, 68, 127
2, 38160, Note_on_c, 0, 68, 0
2, 38160, Note_on_c, 0, 68, 127
2, 38400, Note_on_c, 0, 68, 0
2, 38400, Note_on_c, 0, 58, 127
2, 38520, Note_on_c, 0, 58, 0
2, 38520, Note_on_c, 0, 56, 127
2, 38640, Note_on_c, 0, 56, 0
2, 38640, Note_on_c, 0, 56, 127
2, 38760, Note_on_c, 0, 56, 0
2, 38760, Note_on_c, 0, 55, 127
2, 38880, Note_on_c, 0, 55, 0
2, 38880, Note_on_c, 0, 56, 127
2, 39000, Note_on_c, 0, 56, 0
2, 39000, Note_on_c, 0, 55, 127
2, 39120, Note_on_c, 0, 55, 0
2, 39120, Note_on_c, 0, 56, 127
2, 39240, Note_on_c, 0, 56, 0
2, 39240, Note_on_c, 0, 58, 127
2, 39360, Note_on_c, 0, 58, 0
2, 39360, Note_on_c, 0, 53, 127
2, 39480, Note_on_c, 0, 53, 0
2, 39480, Note_on_c, 0, 56, 127
2, 39840, Note_on_c, 0, 56, 0
2, 39840, Note_on_c, 0, 68, 127
2, 40080, Note_on_c, 0, 68, 0
2, 40080, Note_on_c, 0, 68, 127
2, 40320, Note_on_c, 0, 68, 0
2, 40320, Note_on_c, 0, 58, 127
2, 40440, Note_on_c, 0, 58, 0
2, 40440, Note_on_c, 0, 56, 127
2, 40560, Note_on_c, 0, 56, 0
2, 40560, Note_on_c, 0, 56, 127
2, 40680, Note_on_c, 0, 56, 0
2, 40680, Note_on_c, 0, 55, 127
2, 40740, Note_on_c, 0, 55, 0
2, 40740, Note_on_c, 0, 56, 127
2, 40800, Note_on_c, 0, 56, 0
2, 40800, Note_on_c, 0, 56, 127
2, 40920, Note_on_c, 0, 56, 0
2, 40920, Note_on_c, 0, 55, 127
2, 41040, Note_on_c, 0, 55, 0
2, 41040, Note_on_c, 0, 56, 127
2, 41160, Note_on_c, 0, 56, 0
2, 41160, Note_on_c, 0, 58, 127
2, 41280, Note_on_c, 0, 58, 0
2, 41280, Note_on_c, 0, 60, 127
2, 41400, Note_on_c, 0, 60, 0
2, 41400, Note_on_c, 0, 58, 127
2, 41460, Note_on_c, 0, 58, 0
2, 41460, Note_on_c, 0, 56, 127
2, 41760, Note_on_c, 0, 56, 0
2, 42078, Note_on_c, 0, 56, 127
2, 42160, Note_on_c, 0, 56, 0
2, 42160, Note_on_c, 0, 58, 127
2, 42240, Note_on_c, 0, 58, 0
2, 42240, Note_on_c, 0, 58, 127
2, 43020, Note_on_c, 0, 58, 0
2, 43020, Note_on_c, 0, 56, 127
2, 43080, Note_on_c, 0, 56, 0
2, 43080, Note_on_c, 0, 60, 127
2, 43200, Note_on_c, 0, 60, 0
2, 43200, Note_on_c, 0, 58, 127
2, 44160, Note_on_c, 0, 58, 0
2, 44400, Note_on_c, 0, 77, 127
2, 44640, Note_on_c, 0, 77, 0
2, 44640, Note_on_c, 0, 76, 127
2, 44880, Note_on_c, 0, 76, 0
2, 45060, Note_on_c, 0, 76, 127
2, 45120, Note_on_c, 0, 76, 0
2, 45120, Note_on_c, 0, 79, 127
2, 45240, Note_on_c, 0, 79, 0
2, 45240, Note_on_c, 0, 80, 127
2, 45300, Note_on_c, 0, 80, 0
2, 45300, Note_on_c, 0, 77, 127
2, 45480, Note_on_c, 0, 77, 0
2, 45480, Note_on_c, 0, 75, 127
2, 45540, Note_on_c, 0, 75, 0
2, 45540, Note_on_c, 0, 72, 127
2, 45720, Note_on_c, 0, 72, 0
2, 45720, Note_on_c, 0, 70, 127
2, 45840, Note_on_c, 0, 70, 0
2, 45840, Note_on_c, 0, 68, 127
2, 45960, Note_on_c, 0, 68, 0
2, 45960, Note_on_c, 0, 72, 127
2, 46080, Note_on_c, 0, 72, 0
2, 46260, Note_on_c, 0, 68, 127
2, 46320, Note_on_c, 0, 68, 0
2, 46320, Note_on_c, 0, 77, 127
2, 46440, Note_on_c, 0, 77, 0
2, 46440, Note_on_c, 0, 77, 127
2, 46560, Note_on_c, 0, 77, 0
2, 46560, Note_on_c, 0, 75, 127
2, 46680, Note_on_c, 0, 75, 0
2, 46680, Note_on_c, 0, 75, 127
2, 46740, Note_on_c, 0, 75, 0
2, 46740, Note_on_c, 0, 72, 127
2, 46800, Note_on_c, 0, 72, 0
2, 46800, Note_on_c, 0, 75, 127
2, 46920, Note_on_c, 0, 75, 0
2, 46920, Note_on_c, 0, 77, 127
2, 47040, Note_on_c, 0, 77, 0
2, 47040, Note_on_c, 0, 77, 127
2, 47100, Note_on_c, 0, 77, 0
2, 47100, Note_on_c, 0, 75, 127
2, 47160, Note_on_c, 0, 75, 0
2, 47160, Note_on_c, 0, 68, 127
2, 47280, Note_on_c, 0, 68, 0
2, 47280, Note_on_c, 0, 72, 127
2, 48000, Note_on_c, 0, 72, 0
2, 50718, Note_on_c, 0, 56, 127
2, 50800, Note_on_c, 0, 56, 0
2, 50800, Note_on_c, 0, 60, 127
2, 50880, Note_on_c, 0, 60, 0
2, 50880, Note_on_c, 0, 60, 127
2, 51000, Note_on_c, 0, 60, 0
2, 51000, Note_on_c, 0, 58, 127
2, 51360, Note_on_c, 0, 58, 0
2, 51360, Note_on_c, 0, 68, 127
2, 51600, Note_on_c, 0, 68, 0
2, 51600, Note_on_c, 0, 68, 127
2, 51840, Note_on_c, 0, 68, 0
2, 51840, Note_on_c, 0, 61, 127
2, 51960, Note_on_c, 0, 61, 0
2, 51960, Note_on_c, 0, 59, 127
2, 52080, Note_on_c, 0, 59, 0
2, 52080, Note_on_c, 0, 59, 127
2, 52200, Note_on_c, 0, 59, 0
2, 52200, Note_on_c, 0, 58, 127
2, 52320, Note_on_c, 0, 58, 0
2, 52320, Note_on_c, 0, 59, 127
2, 52440, Note_on_c, 0, 59, 0
2, 52440, Note_on_c, 0, 58, 127
2, 52560, Note_on_c, 0, 58, 0
2, 52560, Note_on_c, 0, 59, 127
2, 52680, Note_on_c, 0, 59, 0
2, 52680, Note_on_c, 0, 61, 127
2, 52800, Note_on_c, 0, 61, 0
2, 52800, Note_on_c, 0, 63, 127
2, 52920, Note_on_c, 0, 63, 0
2, 52920, Note_on_c, 0, 61, 127
2, 52980, Note_on_c, 0, 61, 0
2, 52980, Note_on_c, 0, 59, 127
2, 53280, Note_on_c, 0, 59, 0
2, 53280, Note_on_c, 0, 68, 127
2, 53520, Note_on_c, 0, 68, 0
2, 53520, Note_on_c, 0, 68, 127
2, 53760, Note_on_c, 0, 68, 0
2, 53760, Note_on_c, 0, 61, 127
2, 53880, Note_on_c, 0, 61, 0
2, 53880, Note_on_c, 0, 59, 127
2, 54000, Note_on_c, 0, 59, 0
2, 54000, Note_on_c, 0, 59, 127
2, 54120, Note_on_c, 0, 59, 0
2, 54120, Note_on_c, 0, 58, 127
2, 54240, Note_on_c, 0, 58, 0
2, 54240, Note_on_c, 0, 59, 127
2, 54360, Note_on_c, 0, 59, 0
2, 54360, Note_on_c, 0, 58, 127
2, 54480, Note_on_c, 0, 58, 0
2, 54480, Note_on_c, 0, 59, 127
2, 54600, Note_on_c, 0, 59, 0
2, 54600, Note_on_c, 0, 61, 127
2, 54720, Note_on_c, 0, 61, 0
2, 54720, Note_on_c, 0, 56, 127
2, 54840, Note_on_c, 0, 56, 0
2, 54840, Note_on_c, 0, 59, 127
2, 55200, Note_on_c, 0, 59, 0
2, 55200, Note_on_c, 0, 71, 127
2, 55440, Note_on_c, 0, 71, 0
2, 55440, Note_on_c, 0, 71, 127
2, 55680, Note_on_c, 0, 71, 0
2, 55680, Note_on_c, 0, 61, 127
2, 55800, Note_on_c, 0, 61, 0
2, 55800, Note_on_c, 0, 59, 127
2, 55920, Note_on_c, 0, 59, 0
2, 55920, Note_on_c, 0, 59, 127
2, 56040, Note_on_c, 0, 59, 0
2, 56040, Note_on_c, 0, 58, 127
2, 56100, Note_on_c, 0, 58, 0
2, 56100, Note_on_c, 0, 59, 127
2, 56160, Note_on_c, 0, 59, 0
2, 56160, Note_on_c, 0, 59, 127
2, 56280, Note_on_c, 0, 59, 0
2, 56280, Note_on_c, 0, 58, 127
2, 56400, Note_on_c, 0, 58, 0
2, 56400, Note_on_c, 0, 59, 127
2, 56520, Note_on_c, 0, 59, 0
2, 56520, Note_on_c, 0, 61, 127
2, 56640, Note_on_c, 0, 61, 0
2, 56640, Note_on_c, 0, 63, 127
2, 56760, Note_on_c, 0, 63, 0
2, 56760, Note_on_c, 0, 61, 127
2, 56820, Note_on_c, 0, 61, 0
2, 56820, Note_on_c, 0, 59, 127
2, 57120, Note_on_c, 0, 59, 0
2, 57438, Note_on_c, 0, 59, 127
2, 57520, Note_on_c, 0, 59, 0
2, 57520, Note_on_c, 0, 61, 127
2, 57600, Note_on_c, 0, 61, 0
2, 57600, Note_on_c, 0, 61, 127
2, 58380, Note_on_c, 0, 61, 0
2, 58380, Note_on_c, 0, 59, 127
2, 58440, Note_on_c, 0, 59, 0
2, 58440, Note_on_c, 0, 63, 127
2, 58560, Note_on_c, 0, 63, 0
2, 58560, Note_on_c, 0, 61, 127
2, 59040, Note_on_c, 0, 61, 0
2, 59040, Note_on_c, 0, 71, 127
2, 59280, Note_on_c, 0, 71, 0
2, 59280, Note_on_c, 0, 71, 127
2, 59520, Note_on_c, 0, 71, 0
2, 59520, Note_on_c, 0, 61, 127
2, 59640, Note_on_c, 0, 61, 0
2, 59640, Note_on_c, 0, 59, 127
2, 59760, Note_on_c, 0, 59, 0
2, 59760, Note_on_c, 0, 59, 127
2, 59880, Note_on_c, 0, 59, 0
2, 59880, Note_on_c, 0, 58, 127
2, 60000, Note_on_c, 0, 58, 0
2, 60000, Note_on_c, 0, 59, 127
2, 60120, Note_on_c, 0, 59, 0
2, 60120, Note_on_c, 0, 58, 127
2, 60240, Note_on_c, 0, 58, 0
2, 60240, Note_on_c, 0, 59, 127
2, 60360, Note_on_c, 0, 59, 0
2, 60360, Note_on_c, 0, 61, 127
2, 60480, Note_on_c, 0, 61, 0
2, 60480, Note_on_c, 0, 63, 127
2, 60600, Note_on_c, 0, 63, 0
2, 60600, Note_on_c, 0, 61, 127
2, 60660, Note_on_c, 0, 61, 0
2, 60660, Note_on_c, 0, 59, 127
2, 60960, Note_on_c, 0, 59, 0
2, 60960, Note_on_c, 0, 68, 127
2, 61200, Note_on_c, 0, 68, 0
2, 61200, Note_on_c, 0, 68, 127
2, 61440, Note_on_c, 0, 68, 0
2, 61440, Note_on_c, 0, 61, 127
2, 61560, Note_on_c, 0, 61, 0
2, 61560, Note_on_c, 0, 59, 127
2, 61680, Note_on_c, 0, 59, 0
2, 61680, Note_on_c, 0, 59, 127
2, 61800, Note_on_c, 0, 59, 0
2, 61800, Note_on_c, 0, 58, 127
2, 61920, Note_on_c, 0, 58, 0
2, 61920, Note_on_c, 0, 59, 127
2, 62040, Note_on_c, 0, 59, 0
2, 62040, Note_on_c, 0, 58, 127
2, 62160, Note_on_c, 0, 58, 0
2, 62160, Note_on_c, 0, 59, 127
2, 62280, Note_on_c, 0, 59, 0
2, 62280, Note_on_c, 0, 61, 127
2, 62400, Note_on_c, 0, 61, 0
2, 62400, Note_on_c, 0, 56, 127
2, 62520, Note_on_c, 0, 56, 0
2, 62520, Note_on_c, 0, 59, 127
2, 62880, Note_on_c, 0, 59, 0
2, 62880, Note_on_c, 0, 68, 127
2, 63120, Note_on_c, 0, 68, 0
2, 63120, Note_on_c, 0, 68, 127
2, 63360, Note_on_c, 0, 68, 0
2, 63360, Note_on_c, 0, 61, 127
2, 63480, Note_on_c, 0, 61, 0
2, 63480, Note_on_c, 0, 59, 127
2, 63600, Note_on_c, 0, 59, 0
2, 63600, Note_on_c, 0, 59, 127
2, 63720, Note_on_c, 0, 59, 0
2, 63720, Note_on_c, 0, 58, 127
2, 63780, Note_on_c, 0, 58, 0
2, 63780, Note_on_c, 0, 59, 127
2, 63840, Note_on_c, 0, 59, 0
2, 63840, Note_on_c, 0, 59, 127
2, 63960, Note_on_c, 0, 59, 0
2, 63960, Note_on_c, 0, 58, 127
2, 64080, Note_on_c, 0, 58, 0
2, 64080, Note_on_c, 0, 59, 127
2, 64200, Note_on_c, 0, 59, 0
2, 64200, Note_on_c, 0, 61, 127
2, 64320, Note_on_c, 0, 61, 0
2, 64320, Note_on_c, 0, 63, 127
2, 64440, Note_on_c, 0, 63, 0
2, 64440, Note_on_c, 0, 61, 127
2, 64500, Note_on_c, 0, 61, 0
2, 64500, Note_on_c, 0, 59, 127
2, 64800, Note_on_c, 0, 59, 0
2, 65118, Note_on_c, 0, 59, 127
2, 65200, Note_on_c, 0, 59, 0
2, 65200, Note_on_c, 0, 61, 127
2, 65280, Note_on_c, 0, 61, 0
2, 65280, Note_on_c, 0, 61, 127
2, 66060, Note_on_c, 0, 61, 0
2, 66060, Note_on_c, 0, 59, 127
2, 66120, Note_on_c, 0, 59, 0
2, 66120, Note_on_c, 0, 63, 127
2, 66240, Note_on_c, 0, 63, 0
2, 66240, Note_on_c, 0, 61, 127
2, 67200, Note_on_c, 0, 61, 0
2, 69120, Note_on_c, 0, 58, 127
2, 69240, Note_on_c, 0, 58, 0
2, 69240, Note_on_c, 0, 59, 127
2, 69600, Note_on_c, 0, 59, 0
2, 69600, Note_on_c, 0, 58, 127
2, 69720, Note_on_c, 0, 58, 0
2, 69720, Note_on_c, 0, 59, 127
2, 69840, Note_on_c, 0, 59, 0
2, 69840, Note_on_c, 0, 61, 127
2, 69960, Note_on_c, 0, 61, 0
2, 69960, Note_on_c, 0, 56, 127
2, 71040, Note_on_c, 0, 56, 0
2, 71040, End_track
3, 0, Start_track
3, 0, MIDI_port, 0
3, 0, Program_c, 5, 24
3, 0, Control_c, 5, 7, 127
3, 1920, Note_on_c, 5, 70, 127
3, 2160, Note_on_c, 5, 70, 0
3, 2160, Note_on_c, 5, 68, 127
3, 2400, Note_on_c, 5, 68, 0
3, 2400, Note_on_c, 5, 67, 127
3, 2520, Note_on_c, 5, 67, 0
3, 2520, Note_on_c, 5, 68, 127
3, 2640, Note_on_c, 5, 68, 0
3, 2640, Note_on_c, 5, 70, 127
3, 2880, Note_on_c, 5, 70, 0
3, 4320, Note_on_c, 5, 70, 127
3, 4800, Note_on_c, 5, 70, 0
3, 4800, Note_on_c, 5, 70, 127
3, 5760, Note_on_c, 5, 70, 0
3, 21120, Note_on_c, 5, 70, 127
3, 21360, Note_on_c, 5, 70, 0
3, 21360, Note_on_c, 5, 68, 127
3, 21600, Note_on_c, 5, 68, 0
3, 21600, Note_on_c, 5, 68, 127
3, 21840, Note_on_c, 5, 68, 0
3, 21840, Note_on_c, 5, 68, 127
3, 21960, Note_on_c, 5, 68, 0
3, 21960, Note_on_c, 5, 70, 127
3, 22080, Note_on_c, 5, 70, 0
3, 23040, Note_on_c, 5, 70, 127
3, 23280, Note_on_c, 5, 70, 0
3, 23280, Note_on_c, 5, 68, 127
3, 23520, Note_on_c, 5, 68, 0
3, 23520, Note_on_c, 5, 68, 127
3, 23760, Note_on_c, 5, 68, 0
3, 23760, Note_on_c, 5, 68, 127
3, 23880, Note_on_c, 5, 68, 0
3, 23880, Note_on_c, 5, 70, 127
3, 24000, Note_on_c, 5, 70, 0
3, 24960, Note_on_c, 5, 70, 127
3, 25200, Note_on_c, 5, 70, 0
3, 25200, Note_on_c, 5, 68, 127
3, 25440, Note_on_c, 5, 68, 0
3, 25440, Note_on_c, 5, 68, 127
3, 25680, Note_on_c, 5, 68, 0
3, 25680, Note_on_c, 5, 68, 127
3, 25800, Note_on_c, 5, 68, 0
3, 25800, Note_on_c, 5, 70, 127
3, 25920, Note_on_c, 5, 70, 0
3, 26400, Note_on_c, 5, 56, 127
3, 26520, Note_on_c, 5, 56, 0
3, 26520, Note_on_c, 5, 60, 127
3, 26640, Note_on_c, 5, 60, 0
3, 26640, Note_on_c, 5, 61, 127
3, 26880, Note_on_c, 5, 61, 0
3, 36480, Note_on_c, 5, 70, 127
3, 36720, Note_on_c, 5, 70, 0
3, 36720, Note_on_c, 5, 68, 127
3, 36960, Note_on_c, 5, 68, 0
3, 36960, Note_on_c, 5, 68, 127
3, 37200, Note_on_c, 5, 68, 0
3, 37200, Note_on_c, 5, 68, 127
3, 37320, Note_on_c, 5, 68, 0
3, 37320, Note_on_c, 5, 70, 127
3, 37440, Note_on_c, 5, 70, 0
3, 38400, Note_on_c, 5, 70, 127
3, 38640, Note_on_c, 5, 70, 0
3, 38640, Note_on_c, 5, 68, 127
3, 38880, Note_on_c, 5, 68, 0
3, 38880, Note_on_c, 5, 68, 127
3, 39120, Note_on_c, 5, 68, 0
3, 39120, Note_on_c, 5, 68, 127
3, 39240, Note_on_c, 5, 68, 0
3, 39240, Note_on_c, 5, 70, 127
3, 39360, Note_on_c, 5, 70, 0
3, 40320, Note_on_c, 5, 70, 127
3, 40560, Note_on_c, 5, 70, 0
3, 40560, Note_on_c, 5, 68, 127
3, 40800, Note_on_c, 5, 68, 0
3, 40800, Note_on_c, 5, 68, 127
3, 41040, Note_on_c, 5, 68, 0
3, 41040, Note_on_c, 5, 68, 127
3, 41160, Note_on_c, 5, 68, 0
3, 41160, Note_on_c, 5, 70, 127
3, 41280, Note_on_c, 5, 70, 0
3, 41760, Note_on_c, 5, 56, 127
3, 41880, Note_on_c, 5, 56, 0
3, 41880, Note_on_c, 5, 60, 127
3, 42000, Note_on_c, 5, 60, 0
3, 42000, Note_on_c, 5, 61, 127
3, 42240, Note_on_c, 5, 61, 0
3, 57120, Note_on_c, 5, 59, 127
3, 57240, Note_on_c, 5, 59, 0
3, 57240, Note_on_c, 5, 63, 127
3, 57360, Note_on_c, 5, 63, 0
3, 57360, Note_on_c, 5, 64, 127
3, 57600, Note_on_c, 5, 64, 0
3, 64800, Note_on_c, 5, 59, 127
3, 64920, Note_on_c, 5, 59, 0
3, 64920, Note_on_c, 5, 63, 127
3, 65040, Note_on_c, 5, 63, 0
3, 65040, Note_on_c, 5, 64, 127
3, 65280, Note_on_c, 5, 64, 0
3, 65280, End_track
4, 0, Start_track
4, 0, MIDI_port, 0
4, 0, Program_c, 4, 5
4, 0, Control_c, 4, 7, 127
4, 13440, Note_on_c, 4, 67, 127
4, 13560, Note_on_c, 4, 67, 0
4, 13560, Note_on_c, 4, 68, 127
4, 13920, Note_on_c, 4, 68, 0
4, 13920, Note_on_c, 4, 67, 127
4, 14040, Note_on_c, 4, 67, 0
4, 14040, Note_on_c, 4, 68, 127
4, 14160, Note_on_c, 4, 68, 0
4, 14160, Note_on_c, 4, 70, 127
4, 14280, Note_on_c, 4, 70, 0
4, 14280, Note_on_c, 4, 67, 127
4, 14760, Note_on_c, 4, 67, 0
4, 14760, Note_on_c, 4, 68, 127
4, 15360, Note_on_c, 4, 68, 0
4, 15360, Note_on_c, 4, 72, 127
4, 15480, Note_on_c, 4, 72, 0
4, 15480, Note_on_c, 4, 70, 127
4, 15540, Note_on_c, 4, 70, 0
4, 15540, Note_on_c, 4, 68, 127
4, 15600, Note_on_c, 4, 68, 0
4, 15600, Note_on_c, 4, 63, 127
4, 15840, Note_on_c, 4, 63, 0
4, 15840, Note_on_c, 4, 67, 127
4, 15960, Note_on_c, 4, 67, 0
4, 15960, Note_on_c, 4, 68, 127
4, 16080, Note_on_c, 4, 68, 0
4, 16080, Note_on_c, 4, 70, 127
4, 16200, Note_on_c, 4, 70, 0
4, 16200, Note_on_c, 4, 65, 127
4, 17280, Note_on_c, 4, 65, 0
4, 17280, Note_on_c, 4, 67, 127
4, 17400, Note_on_c, 4, 67, 0
4, 17400, Note_on_c, 4, 68, 127
4, 17700, Note_on_c, 4, 68, 0
4, 17700, Note_on_c, 4, 67, 127
4, 17760, Note_on_c, 4, 67, 0
4, 17760, Note_on_c, 4, 67, 127
4, 17880, Note_on_c, 4, 67, 0
4, 17880, Note_on_c, 4, 68, 127
4, 18000, Note_on_c, 4, 68, 0
4, 18000, Note_on_c, 4, 70, 127
4, 18120, Note_on_c, 4, 70, 0
4, 18120, Note_on_c, 4, 67, 127
4, 18600, Note_on_c, 4, 67, 0
4, 18600, Note_on_c, 4, 70, 127
4, 18720, Note_on_c, 4, 70, 0
4, 18720, Note_on_c, 4, 68, 127
4, 19020, Note_on_c, 4, 68, 0
4, 19020, Note_on_c, 4, 68, 127
4, 19080, Note_on_c, 4, 68, 0
4, 19080, Note_on_c, 4, 70, 127
4, 19200, Note_on_c, 4, 70, 0
4, 19200, Note_on_c, 4, 70, 127
4, 19260, Note_on_c, 4, 70, 0
4, 19260, Note_on_c, 4, 70, 127
4, 19320, Note_on_c, 4, 70, 0
4, 19320, Note_on_c, 4, 70, 127
4, 19980, Note_on_c, 4, 70, 0
4, 19980, Note_on_c, 4, 68, 127
4, 20040, Note_on_c, 4, 68, 0
4, 20040, Note_on_c, 4, 72, 127
4, 20280, Note_on_c, 4, 72, 0
4, 20280, Note_on_c, 4, 70, 127
4, 20340, Note_on_c, 4, 70, 0
4, 20340, Note_on_c, 4, 68, 127
4, 20400, Note_on_c, 4, 68, 0
4, 20400, Note_on_c, 4, 70, 127
4, 20640, Note_on_c, 4, 70, 0
4, 20640, Note_on_c, 4, 72, 127
4, 20880, Note_on_c, 4, 72, 0
4, 20880, Note_on_c, 4, 72, 127
4, 21120, Note_on_c, 4, 72, 0
4, 21120, Note_on_c, 4, 70, 127
4, 21240, Note_on_c, 4, 70, 0
4, 21240, Note_on_c, 4, 68, 127
4, 21360, Note_on_c, 4, 68, 0
4, 21360, Note_on_c, 4, 68, 127
4, 21480, Note_on_c, 4, 68, 0
4, 21480, Note_on_c, 4, 67, 127
4, 21600, Note_on_c, 4, 67, 0
4, 21600, Note_on_c, 4, 68, 127
4, 21720, Note_on_c, 4, 68, 0
4, 21720, Note_on_c, 4, 67, 127
4, 21840, Note_on_c, 4, 67, 0
4, 21840, Note_on_c, 4, 68, 127
4, 21960, Note_on_c, 4, 68, 0
4, 21960, Note_on_c, 4, 70, 127
4, 22080, Note_on_c, 4, 70, 0
4, 22080, Note_on_c, 4, 72, 127
4, 22200, Note_on_c, 4, 72, 0
4, 22200, Note_on_c, 4, 70, 127
4, 22260, Note_on_c, 4, 70, 0
4, 22260, Note_on_c, 4, 68, 127
4, 22560, Note_on_c, 4, 68, 0
4, 22560, Note_on_c, 4, 72, 127
4, 22800, Note_on_c, 4, 72, 0
4, 22800, Note_on_c, 4, 72, 127
4, 23040, Note_on_c, 4, 72, 0
4, 23040, Note_on_c, 4, 70, 127
4, 23160, Note_on_c, 4, 70, 0
4, 23160, Note_on_c, 4, 68, 127
4, 23280, Note_on_c, 4, 68, 0
4, 23280, Note_on_c, 4, 68, 127
4, 23400, Note_on_c, 4, 68, 0
4, 23400, Note_on_c, 4, 67, 127
4, 23520, Note_on_c, 4, 67, 0
4, 23520, Note_on_c, 4, 68, 127
4, 23640, Note_on_c, 4, 68, 0
4, 23640, Note_on_c, 4, 67, 127
4, 23760, Note_on_c, 4, 67, 0
4, 23760, Note_on_c, 4, 68, 127
4, 23880, Note_on_c, 4, 68, 0
4, 23880, Note_on_c, 4, 70, 127
4, 24000, Note_on_c, 4, 70, 0
4, 24000, Note_on_c, 4, 65, 127
4, 24120, Note_on_c, 4, 65, 0
4, 24120, Note_on_c, 4, 68, 127
4, 24480, Note_on_c, 4, 68, 0
4, 24480, Note_on_c, 4, 72, 127
4, 24720, Note_on_c, 4, 72, 0
4, 24720, Note_on_c, 4, 72, 127
4, 24960, Note_on_c, 4, 72, 0
4, 24960, Note_on_c, 4, 70, 127
4, 25080, Note_on_c, 4, 70, 0
4, 25080, Note_on_c, 4, 68, 127
4, 25200, Note_on_c, 4, 68, 0
4, 25200, Note_on_c, 4, 68, 127
4, 25320, Note_on_c, 4, 68, 0
4, 25320, Note_on_c, 4, 67, 127
4, 25380, Note_on_c, 4, 67, 0
4, 25380, Note_on_c, 4, 68, 127
4, 25440, Note_on_c, 4, 68, 0
4, 25440, Note_on_c, 4, 68, 127
4, 25560, Note_on_c, 4, 68, 0
4, 25560, Note_on_c, 4, 67, 127
4, 25680, Note_on_c, 4, 67, 0
4, 25680, Note_on_c, 4, 68, 127
4, 25800, Note_on_c, 4, 68, 0
4, 25800, Note_on_c, 4, 70, 127
4, 25920, Note_on_c, 4, 70, 0
4, 25920, Note_on_c, 4, 72, 127
4, 26040, Note_on_c, 4, 72, 0
4, 26040, Note_on_c, 4, 70, 127
4, 26100, Note_on_c, 4, 70, 0
4, 26100, Note_on_c, 4, 68, 127
4, 26340, Note_on_c, 4, 68, 0
4, 26340, Note_on_c, 4, 65, 127
4, 26400, Note_on_c, 4, 65, 0
4, 26400, Note_on_c, 4, 72, 127
4, 26460, Note_on_c, 4, 72, 0
4, 26460, Note_on_c, 4, 70, 127
4, 26718, Note_on_c, 4, 70, 0
4, 26718, Note_on_c, 4, 68, 127
4, 26800, Note_on_c, 4, 68, 0
4, 26800, Note_on_c, 4, 70, 127
4, 26880, Note_on_c, 4, 70, 0
4, 26880, Note_on_c, 4, 70, 127
4, 27660, Note_on_c, 4, 70, 0
4, 27660, Note_on_c, 4, 68, 127
4, 27720, Note_on_c, 4, 68, 0
4, 27720, Note_on_c, 4, 72, 127
4, 27840, Note_on_c, 4, 72, 0
4, 27840, Note_on_c, 4, 70, 127
4, 28320, Note_on_c, 4, 70, 0
4, 28320, Note_on_c, 4, 73, 127
4, 28380, Note_on_c, 4, 73, 0
4, 28380, Note_on_c, 4, 73, 127
4, 28440, Note_on_c, 4, 73, 0
4, 28440, Note_on_c, 4, 72, 127
4, 28500, Note_on_c, 4, 72, 0
4, 28500, Note_on_c, 4, 72, 127
4, 28560, Note_on_c, 4, 72, 0
4, 28560, Note_on_c, 4, 68, 127
4, 28620, Note_on_c, 4, 68, 0
4, 28620, Note_on_c, 4, 68, 127
4, 28680, Note_on_c, 4, 68, 0
4, 28680, Note_on_c, 4, 65, 127
4, 28740, Note_on_c, 4, 65, 0
4, 28740, Note_on_c, 4, 70, 127
4, 28860, Note_on_c, 4, 70, 0
4, 28860, Note_on_c, 4, 68, 127
4, 29040, Note_on_c, 4, 68, 0
4, 36000, Note_on_c, 4, 72, 127
4, 36240, Note_on_c, 4, 72, 0
4, 36240, Note_on_c, 4, 72, 127
4, 36480, Note_on_c, 4, 72, 0
4, 36480, Note_on_c, 4, 70, 127
4, 36600, Note_on_c, 4, 70, 0
4, 36600, Note_on_c, 4, 68, 127
4, 36720, Note_on_c, 4, 68, 0
4, 36720, Note_on_c, 4, 68, 127
4, 36840, Note_on_c, 4, 68, 0
4, 36840, Note_on_c, 4, 67, 127
4, 36960, Note_on_c, 4, 67, 0
4, 36960, Note_on_c, 4, 68, 127
4, 37080, Note_on_c, 4, 68, 0
4, 37080, Note_on_c, 4, 67, 127
4, 37200, Note_on_c, 4, 67, 0
4, 37200, Note_on_c, 4, 68, 127
4, 37320, Note_on_c, 4, 68, 0
4, 37320, Note_on_c, 4, 70, 127
4, 37440, Note_on_c, 4, 70, 0
4, 37440, Note_on_c, 4, 72, 127
4, 37560, Note_on_c, 4, 72, 0
4, 37560, Note_on_c, 4, 70, 127
4, 37620, Note_on_c, 4, 70, 0
4, 37620, Note_on_c, 4, 68, 127
4, 37920, Note_on_c, 4, 68, 0
4, 37920, Note_on_c, 4, 72, 127
4, 38160, Note_on_c, 4, 72, 0
4, 38160, Note_on_c, 4, 72, 127
4, 38400, Note_on_c, 4, 72, 0
4, 38400, Note_on_c, 4, 70, 127
4, 38520, Note_on_c, 4, 70, 0
4, 38520, Note_on_c, 4, 68, 127
4, 38640, Note_on_c, 4, 68, 0
4, 38640, Note_on_c, 4, 68, 127
4, 38760, Note_on_c, 4, 68, 0
4, 38760, Note_on_c, 4, 67, 127
4, 38880, Note_on_c, 4, 67, 0
4, 38880, Note_on_c, 4, 68, 127
4, 39000, Note_on_c, 4, 68, 0
4, 39000, Note_on_c, 4, 67, 127
4, 39120, Note_on_c, 4, 67, 0
4, 39120, Note_on_c, 4, 68, 127
4, 39240, Note_on_c, 4, 68, 0
4, 39240, Note_on_c, 4, 70, 127
4, 39360, Note_on_c, 4, 70, 0
4, 39360, Note_on_c, 4, 65, 127
4, 39480, Note_on_c, 4, 65, 0
4, 39480, Note_on_c, 4, 68, 127
4, 39840, Note_on_c, 4, 68, 0
4, 39840, Note_on_c, 4, 72, 127
4, 40080, Note_on_c, 4, 72, 0
4, 40080, Note_on_c, 4, 72, 127
4, 40320, Note_on_c, 4, 72, 0
4, 40320, Note_on_c, 4, 70, 127
4, 40440, Note_on_c, 4, 70, 0
4, 40440, Note_on_c, 4, 68, 127
4, 40560, Note_on_c, 4, 68, 0
4, 40560, Note_on_c, 4, 68, 127
4, 40680, Note_on_c, 4, 68, 0
4, 40680, Note_on_c, 4, 67, 127
4, 40740, Note_on_c, 4, 67, 0
4, 40740, Note_on_c, 4, 68, 127
4, 40800, Note_on_c, 4, 68, 0
4, 40800, Note_on_c, 4, 68, 127
4, 40920, Note_on_c, 4, 68, 0
4, 40920, Note_on_c, 4, 67, 127
4, 41040, Note_on_c, 4, 67, 0
4, 41040, Note_on_c, 4, 68, 127
4, 41160, Note_on_c, 4, 68, 0
4, 41160, Note_on_c, 4, 70, 127
4, 41280, Note_on_c, 4, 70, 0
4, 41280, Note_on_c, 4, 72, 127
4, 41400, Note_on_c, 4, 72, 0
4, 41400, Note_on_c, 4, 70, 127
4, 41460, Note_on_c, 4, 70, 0
4, 41460, Note_on_c, 4, 68, 127
4, 41700, Note_on_c, 4, 68, 0
4, 41700, Note_on_c, 4, 65, 127
4, 41760, Note_on_c, 4, 65, 0
4, 41760, Note_on_c, 4, 72, 127
4, 41820, Note_on_c, 4, 72, 0
4, 41820, Note_on_c, 4, 70, 127
4, 42078, Note_on_c, 4, 70, 0
4, 42078, Note_on_c, 4, 68, 127
4, 42160, Note_on_c, 4, 68, 0
4, 42160, Note_on_c, 4, 70, 127
4, 42240, Note_on_c, 4, 70, 0
4, 42240, Note_on_c, 4, 70, 127
4, 43020, Note_on_c, 4, 70, 0
4, 43020, Note_on_c, 4, 68, 127
4, 43080, Note_on_c, 4, 68, 0
4, 43080, Note_on_c, 4, 72, 127
4, 43200, Note_on_c, 4, 72, 0
4, 43200, Note_on_c, 4, 70, 127
4, 43680, Note_on_c, 4, 70, 0
4, 43680, Note_on_c, 4, 73, 127
4, 43740, Note_on_c, 4, 73, 0
4, 43740, Note_on_c, 4, 73, 127
4, 43800, Note_on_c, 4, 73, 0
4, 43800, Note_on_c, 4, 72, 127
4, 43860, Note_on_c, 4, 72, 0
4, 43860, Note_on_c, 4, 72, 127
4, 43920, Note_on_c, 4, 72, 0
4, 43920, Note_on_c, 4, 68, 127
4, 43980, Note_on_c, 4, 68, 0
4, 43980, Note_on_c, 4, 68, 127
4, 44040, Note_on_c, 4, 68, 0
4, 44040, Note_on_c, 4, 65, 127
4, 44100, Note_on_c, 4, 65, 0
4, 44100, Note_on_c, 4, 70, 127
4, 44220, Note_on_c, 4, 70, 0
4, 44220, Note_on_c, 4, 70, 127
4, 44400, Note_on_c, 4, 70, 0
4, 48120, Note_on_c, 4, 72, 127
4, 48360, Note_on_c, 4, 72, 0
4, 48360, Note_on_c, 4, 68, 127
4, 48480, Note_on_c, 4, 68, 0
4, 48480, Note_on_c, 4, 72, 127
4, 48600, Note_on_c, 4, 72, 0
4, 48600, Note_on_c, 4, 70, 127
4, 48720, Note_on_c, 4, 70, 0
4, 48720, Note_on_c, 4, 72, 127
4, 48840, Note_on_c, 4, 72, 0
4, 48840, Note_on_c, 4, 67, 127
4, 48900, Note_on_c, 4, 67, 0
4, 48900, Note_on_c, 4, 68, 127
4, 48960, Note_on_c, 4, 68, 0
4, 48960, Note_on_c, 4, 70, 127
4, 49080, Note_on_c, 4, 70, 0
4, 49080, Note_on_c, 4, 70, 127
4, 49140, Note_on_c, 4, 70, 0
4, 49140, Note_on_c, 4, 68, 127
4, 49320, Note_on_c, 4, 68, 0
4, 49320, Note_on_c, 4, 67, 127
4, 49380, Note_on_c, 4, 67, 0
4, 49380, Note_on_c, 4, 70, 127
4, 49560, Note_on_c, 4, 70, 0
4, 49560, Note_on_c, 4, 68, 127
4, 49920, Note_on_c, 4, 68, 0
4, 49920, Note_on_c, 4, 65, 127
4, 50040, Note_on_c, 4, 65, 0
4, 50040, Note_on_c, 4, 68, 127
4, 50100, Note_on_c, 4, 68, 0
4, 50100, Note_on_c, 4, 68, 127
4, 50280, Note_on_c, 4, 68, 0
4, 50280, Note_on_c, 4, 72, 127
4, 50400, Note_on_c, 4, 72, 0
4, 50400, Note_on_c, 4, 72, 127
4, 50520, Note_on_c, 4, 72, 0
4, 50520, Note_on_c, 4, 70, 127
4, 50580, Note_on_c, 4, 70, 0
4, 50580, Note_on_c, 4, 68, 127
4, 50718, Note_on_c, 4, 68, 0
4, 50718, Note_on_c, 4, 68, 127
4, 50800, Note_on_c, 4, 68, 0
4, 50800, Note_on_c, 4, 72, 127
4, 50880, Note_on_c, 4, 72, 0
4, 50880, Note_on_c, 4, 72, 127
4, 51000, Note_on_c, 4, 72, 0
4, 51000, Note_on_c, 4, 70, 127
4, 51360, Note_on_c, 4, 70, 0
4, 51360, Note_on_c, 4, 75, 127
4, 51600, Note_on_c, 4, 75, 0
4, 51600, Note_on_c, 4, 75, 127
4, 51840, Note_on_c, 4, 75, 0
4, 51840, Note_on_c, 4, 73, 127
4, 51960, Note_on_c, 4, 73, 0
4, 51960, Note_on_c, 4, 71, 127
4, 52080, Note_on_c, 4, 71, 0
4, 52080, Note_on_c, 4, 71, 127
4, 52200, Note_on_c, 4, 71, 0
4, 52200, Note_on_c, 4, 70, 127
4, 52320, Note_on_c, 4, 70, 0
4, 52320, Note_on_c, 4, 71, 127
4, 52440, Note_on_c, 4, 71, 0
4, 52440, Note_on_c, 4, 70, 127
4, 52560, Note_on_c, 4, 70, 0
4, 52560, Note_on_c, 4, 71, 127
4, 52680, Note_on_c, 4, 71, 0
4, 52680, Note_on_c, 4, 73, 127
4, 52800, Note_on_c, 4, 73, 0
4, 52800, Note_on_c, 4, 75, 127
4, 52920, Note_on_c, 4, 75, 0
4, 52920, Note_on_c, 4, 73, 127
4, 52980, Note_on_c, 4, 73, 0
4, 52980, Note_on_c, 4, 71, 127
4, 53280, Note_on_c, 4, 71, 0
4, 53280, Note_on_c, 4, 75, 127
4, 53520, Note_on_c, 4, 75, 0
4, 53520, Note_on_c, 4, 75, 127
4, 53760, Note_on_c, 4, 75, 0
4, 53760, Note_on_c, 4, 73, 127
4, 53880, Note_on_c, 4, 73, 0
4, 53880, Note_on_c, 4, 71, 127
4, 54000, Note_on_c, 4, 71, 0
4, 54000, Note_on_c, 4, 71, 127
4, 54120, Note_on_c, 4, 71, 0
4, 54120, Note_on_c, 4, 70, 127
4, 54240, Note_on_c, 4, 70, 0
4, 54240, Note_on_c, 4, 71, 127
4, 54360, Note_on_c, 4, 71, 0
4, 54360, Note_on_c, 4, 70, 127
4, 54480, Note_on_c, 4, 70, 0
4, 54480, Note_on_c, 4, 71, 127
4, 54600, Note_on_c, 4, 71, 0
4, 54600, Note_on_c, 4, 73, 127
4, 54720, Note_on_c, 4, 73, 0
4, 54720, Note_on_c, 4, 68, 127
4, 54840, Note_on_c, 4, 68, 0
4, 54840, Note_on_c, 4, 71, 127
4, 55200, Note_on_c, 4, 71, 0
4, 55200, Note_on_c, 4, 75, 127
4, 55440, Note_on_c, 4, 75, 0
4, 55440, Note_on_c, 4, 75, 127
4, 55680, Note_on_c, 4, 75, 0
4, 55680, Note_on_c, 4, 73, 127
4, 55800, Note_on_c, 4, 73, 0
4, 55800, Note_on_c, 4, 71, 127
4, 55920, Note_on_c, 4, 71, 0
4, 55920, Note_on_c, 4, 71, 127
4, 56040, Note_on_c, 4, 71, 0
4, 56040, Note_on_c, 4, 70, 127
4, 56100, Note_on_c, 4, 70, 0
4, 56100, Note_on_c, 4, 71, 127
4, 56160, Note_on_c, 4, 71, 0
4, 56160, Note_on_c, 4, 71, 127
4, 56280, Note_on_c, 4, 71, 0
4, 56280, Note_on_c, 4, 70, 127
4, 56400, Note_on_c, 4, 70, 0
4, 56400, Note_on_c, 4, 71, 127
4, 56520, Note_on_c, 4, 71, 0
4, 56520, Note_on_c, 4, 73, 127
4, 56640, Note_on_c, 4, 73, 0
4, 56640, Note_on_c, 4, 75, 127
4, 56760, Note_on_c, 4, 75, 0
4, 56760, Note_on_c, 4, 73, 127
4, 56820, Note_on_c, 4, 73, 0
4, 56820, Note_on_c, 4, 71, 127
4, 57120, Note_on_c, 4, 71, 0
4, 57438, Note_on_c, 4, 71, 127
4, 57520, Note_on_c, 4, 71, 0
4, 57520, Note_on_c, 4, 73, 127
4, 57600, Note_on_c, 4, 73, 0
4, 57600, Note_on_c, 4, 73, 127
4, 58380, Note_on_c, 4, 73, 0
4, 58380, Note_on_c, 4, 71, 127
4, 58440, Note_on_c, 4, 71, 0
4, 58440, Note_on_c, 4, 75, 127
4, 58560, Note_on_c, 4, 75, 0
4, 58560, Note_on_c, 4, 73, 127
4, 59040, Note_on_c, 4, 73, 0
4, 59040, Note_on_c, 4, 75, 127
4, 59280, Note_on_c, 4, 75, 0
4, 59280, Note_on_c, 4, 75, 127
4, 59520, Note_on_c, 4, 75, 0
4, 59520, Note_on_c, 4, 73, 127
4, 59640, Note_on_c, 4, 73, 0
4, 59640, Note_on_c, 4, 71, 127
4, 59760, Note_on_c, 4, 71, 0
4, 59760, Note_on_c, 4, 71, 127
4, 59880, Note_on_c, 4, 71, 0
4, 59880, Note_on_c, 4, 70, 127
4, 60000, Note_on_c, 4, 70, 0
4, 60000, Note_on_c, 4, 71, 127
4, 60120, Note_on_c, 4, 71, 0
4, 60120, Note_on_c, 4, 70, 127
4, 60240, Note_on_c, 4, 70, 0
4, 60240, Note_on_c, 4, 71, 127
4, 60360, Note_on_c, 4, 71, 0
4, 60360, Note_on_c, 4, 73, 127
4, 60480, Note_on_c, 4, 73, 0
4, 60480, Note_on_c, 4, 75, 127
4, 60600, Note_on_c, 4, 75, 0
4, 60600, Note_on_c, 4, 73, 127
4, 60660, Note_on_c, 4, 73, 0
4, 60660, Note_on_c, 4, 71, 127
4, 60960, Note_on_c, 4, 71, 0
4, 60960, Note_on_c, 4, 75, 127
4, 61200, Note_on_c, 4, 75, 0
4, 61200, Note_on_c, 4, 75, 127
4, 61440, Note_on_c, 4, 75, 0
4, 61440, Note_on_c, 4, 73, 127
4, 61560, Note_on_c, 4, 73, 0
4, 61560, Note_on_c, 4, 71, 127
4, 61680, Note_on_c, 4, 71, 0
4, 61680, Note_on_c, 4, 71, 127
4, 61800, Note_on_c, 4, 71, 0
4, 61800, Note_on_c, 4, 70, 127
4, 61920, Note_on_c, 4, 70, 0
4, 61920, Note_on_c, 4, 71, 127
4, 62040, Note_on_c, 4, 71, 0
4, 62040, Note_on_c, 4, 70, 127
4, 62160, Note_on_c, 4, 70, 0
4, 62160, Note_on_c, 4, 71, 127
4, 62280, Note_on_c, 4, 71, 0
4, 62280, Note_on_c, 4, 73, 127
4, 62400, Note_on_c, 4, 73, 0
4, 62400, Note_on_c, 4, 68, 127
4, 62520, Note_on_c, 4, 68, 0
4, 62520, Note_on_c, 4, 71, 127
4, 62880, Note_on_c, 4, 71, 0
4, 62880, Note_on_c, 4, 75, 127
4, 63120, Note_on_c, 4, 75, 0
4, 63120, Note_on_c, 4, 75, 127
4, 63360, Note_on_c, 4, 75, 0
4, 63360, Note_on_c, 4, 73, 127
4, 63480, Note_on_c, 4, 73, 0
4, 63480, Note_on_c, 4, 71, 127
4, 63600, Note_on_c, 4, 71, 0
4, 63600, Note_on_c, 4, 71, 127
4, 63720, Note_on_c, 4, 71, 0
4, 63720, Note_on_c, 4, 70, 127
4, 63780, Note_on_c, 4, 70, 0
4, 63780, Note_on_c, 4, 71, 127
4, 63840, Note_on_c, 4, 71, 0
4, 63840, Note_on_c, 4, 71, 127
4, 63960, Note_on_c, 4, 71, 0
4, 63960, Note_on_c, 4, 70, 127
4, 64080, Note_on_c, 4, 70, 0
4, 64080, Note_on_c, 4, 71, 127
4, 64200, Note_on_c, 4, 71, 0
4, 64200, Note_on_c, 4, 73, 127
4, 64320, Note_on_c, 4, 73, 0
4, 64320, Note_on_c, 4, 75, 127
4, 64440, Note_on_c, 4, 75, 0
4, 64440, Note_on_c, 4, 73, 127
4, 64500, Note_on_c, 4, 73, 0
4, 64500, Note_on_c, 4, 71, 127
4, 64680, Note_on_c, 4, 71, 0
4, 64680, Note_on_c, 4, 73, 127
4, 64800, Note_on_c, 4, 73, 0
4, 64800, Note_on_c, 4, 71, 127
4, 64860, Note_on_c, 4, 71, 0
4, 64860, Note_on_c, 4, 71, 127
4, 65040, Note_on_c, 4, 71, 0
4, 65118, Note_on_c, 4, 71, 127
4, 65200, Note_on_c, 4, 71, 0
4, 65200, Note_on_c, 4, 73, 127
4, 65280, Note_on_c, 4, 73, 0
4, 65280, Note_on_c, 4, 73, 127
4, 66060, Note_on_c, 4, 73, 0
4, 66060, Note_on_c, 4, 71, 127
4, 66120, Note_on_c, 4, 71, 0
4, 66120, Note_on_c, 4, 75, 127
4, 66240, Note_on_c, 4, 75, 0
4, 66240, Note_on_c, 4, 73, 127
4, 66720, Note_on_c, 4, 73, 0
4, 66720, Note_on_c, 4, 76, 127
4, 66780, Note_on_c, 4, 76, 0
4, 66780, Note_on_c, 4, 76, 127
4, 66840, Note_on_c, 4, 76, 0
4, 66840, Note_on_c, 4, 75, 127
4, 66900, Note_on_c, 4, 75, 0
4, 66900, Note_on_c, 4, 75, 127
4, 66960, Note_on_c, 4, 75, 0
4, 66960, Note_on_c, 4, 71, 127
4, 67020, Note_on_c, 4, 71, 0
4, 67020, Note_on_c, 4, 71, 127
4, 67080, Note_on_c, 4, 71, 0
4, 67080, Note_on_c, 4, 68, 127
4, 67140, Note_on_c, 4, 68, 0
4, 67140, Note_on_c, 4, 73, 127
4, 67200, Note_on_c, 4, 73, 0
4, 67200, Note_on_c, 4, 70, 127
4, 67320, Note_on_c, 4, 70, 0
4, 67320, Note_on_c, 4, 71, 127
4, 67680, Note_on_c, 4, 71, 0
4, 67680, Note_on_c, 4, 70, 127
4, 67800, Note_on_c, 4, 70, 0
4, 67800, Note_on_c, 4, 71, 127
4, 67920, Note_on_c, 4, 71, 0
4, 67920, Note_on_c, 4, 73, 127
4, 68040, Note_on_c, 4, 73, 0
4, 68040, Note_on_c, 4, 70, 127
4, 68400, Note_on_c, 4, 70, 0
4, 68400, Note_on_c, 4, 71, 127
4, 68520, Note_on_c, 4, 71, 0
4, 68520, Note_on_c, 4, 68, 127
4, 69120, Note_on_c, 4, 68, 0
4, 69120, Note_on_c, 4, 70, 127
4, 69240, Note_on_c, 4, 70, 0
4, 69240, Note_on_c, 4, 71, 127
4, 69600, Note_on_c, 4, 71, 0
4, 69600, Note_on_c, 4, 70, 127
4, 69720, Note_on_c, 4, 70, 0
4, 69720, Note_on_c, 4, 71, 127
4, 69840, Note_on_c, 4, 71, 0
4, 69840, Note_on_c, 4, 73, 127
4, 69960, Note_on_c, 4, 73, 0
4, 69960, Note_on_c, 4, 68, 127
4, 71040, Note_on_c, 4, 68, 0
4, 71040, End_track
5, 0, Start_track
5, 0, MIDI_port, 0
5, 0, Program_c, 7, 32
5, 0, Control_c, 7, 7, 127
5, 1620, Note_on_c, 7, 24, 127
5, 1680, Note_on_c, 7, 24, 0
5, 1680, Note_on_c, 7, 27, 127
5, 1920, Note_on_c, 7, 27, 0
5, 1920, Note_on_c, 7, 44, 127
5, 2280, Note_on_c, 7, 44, 0
5, 2280, Note_on_c, 7, 44, 127
5, 2400, Note_on_c, 7, 44, 0
5, 2400, Note_on_c, 7, 44, 127
5, 2760, Note_on_c, 7, 44, 0
5, 2760, Note_on_c, 7, 44, 127
5, 2880, Note_on_c, 7, 44, 0
5, 2880, Note_on_c, 7, 37, 127
5, 3240, Note_on_c, 7, 37, 0
5, 3240, Note_on_c, 7, 37, 127
5, 3360, Note_on_c, 7, 37, 0
5, 3360, Note_on_c, 7, 37, 127
5, 3600, Note_on_c, 7, 37, 0
5, 3600, Note_on_c, 7, 41, 127
5, 3720, Note_on_c, 7, 41, 0
5, 3720, Note_on_c, 7, 44, 127
5, 3840, Note_on_c, 7, 44, 0
5, 3840, Note_on_c, 7, 42, 127
5, 4200, Note_on_c, 7, 42, 0
5, 4200, Note_on_c, 7, 42, 127
5, 4320, Note_on_c, 7, 42, 0
5, 4320, Note_on_c, 7, 42, 127
5, 4680, Note_on_c, 7, 42, 0
5, 4680, Note_on_c, 7, 42, 127
5, 4740, Note_on_c, 7, 42, 0
5, 4740, Note_on_c, 7, 41, 127
5, 4800, Note_on_c, 7, 41, 0
5, 4800, Note_on_c, 7, 39, 127
5, 5160, Note_on_c, 7, 39, 0
5, 5160, Note_on_c, 7, 39, 127
5, 5280, Note_on_c, 7, 39, 0
5, 5280, Note_on_c, 7, 39, 127
5, 5520, Note_on_c, 7, 39, 0
5, 5520, Note_on_c, 7, 39, 127
5, 5760, Note_on_c, 7, 39, 0
5, 5760, Note_on_c, 7, 44, 127
5, 6120, Note_on_c, 7, 44, 0
5, 6120, Note_on_c, 7, 44, 127
5, 6240, Note_on_c, 7, 44, 0
5, 6240, Note_on_c, 7, 44, 127
5, 6720, Note_on_c, 7, 44, 0
5, 6720, Note_on_c, 7, 37, 127
5, 7080, Note_on_c, 7, 37, 0
5, 7080, Note_on_c, 7, 37, 127
5, 7200, Note_on_c, 7, 37, 0
5, 7200, Note_on_c, 7, 37, 127
5, 7680, Note_on_c, 7, 37, 0
5, 7680, Note_on_c, 7, 44, 127
5, 8040, Note_on_c, 7, 44, 0
5, 8040, Note_on_c, 7, 44, 127
5, 8160, Note_on_c, 7, 44, 0
5, 8160, Note_on_c, 7, 44, 127
5, 8640, Note_on_c, 7, 44, 0
5, 8640, Note_on_c, 7, 37, 127
5, 9000, Note_on_c, 7, 37, 0
5, 9000, Note_on_c, 7, 37, 127
5, 9120, Note_on_c, 7, 37, 0
5, 9120, Note_on_c, 7, 37, 127
5, 9600, Note_on_c, 7, 37, 0
5, 9600, Note_on_c, 7, 44, 127
5, 9960, Note_on_c, 7, 44, 0
5, 9960, Note_on_c, 7, 44, 127
5, 10080, Note_on_c, 7, 44, 0
5, 10080, Note_on_c, 7, 44, 127
5, 10560, Note_on_c, 7, 44, 0
5, 10560, Note_on_c, 7, 37, 127
5, 10920, Note_on_c, 7, 37, 0
5, 10920, Note_on_c, 7, 37, 127
5, 11040, Note_on_c, 7, 37, 0
5, 11040, Note_on_c, 7, 37, 127
5, 11520, Note_on_c, 7, 37, 0
5, 11520, Note_on_c, 7, 42, 127
5, 11880, Note_on_c, 7, 42, 0
5, 11880, Note_on_c, 7, 42, 127
5, 12000, Note_on_c, 7, 42, 0
5, 12000, Note_on_c, 7, 42, 127
5, 12360, Note_on_c, 7, 42, 0
5, 12360, Note_on_c, 7, 42, 127
5, 12420, Note_on_c, 7, 42, 0
5, 12420, Note_on_c, 7, 41, 127
5, 12480, Note_on_c, 7, 41, 0
5, 12480, Note_on_c, 7, 39, 127
5, 12840, Note_on_c, 7, 39, 0
5, 12840, Note_on_c, 7, 39, 127
5, 12960, Note_on_c, 7, 39, 0
5, 12960, Note_on_c, 7, 39, 127
5, 13200, Note_on_c, 7, 39, 0
5, 13200, Note_on_c, 7, 39, 127
5, 13440, Note_on_c, 7, 39, 0
5, 13440, Note_on_c, 7, 44, 127
5, 13800, Note_on_c, 7, 44, 0
5, 13800, Note_on_c, 7, 44, 127
5, 13920, Note_on_c, 7, 44, 0
5, 13920, Note_on_c, 7, 44, 127
5, 14400, Note_on_c, 7, 44, 0
5, 14400, Note_on_c, 7, 37, 127
5, 14760, Note_on_c, 7, 37, 0
5, 14760, Note_on_c, 7, 37, 127
5, 14880, Note_on_c, 7, 37, 0
5, 14880, Note_on_c, 7, 37, 127
5, 15360, Note_on_c, 7, 37, 0
5, 15360, Note_on_c, 7, 44, 127
5, 15720, Note_on_c, 7, 44, 0
5, 15720, Note_on_c, 7, 44, 127
5, 15840, Note_on_c, 7, 44, 0
5, 15840, Note_on_c, 7, 44, 127
5, 16320, Note_on_c, 7, 44, 0
5, 16320, Note_on_c, 7, 37, 127
5, 16680, Note_on_c, 7, 37, 0
5, 16680, Note_on_c, 7, 37, 127
5, 16800, Note_on_c, 7, 37, 0
5, 16800, Note_on_c, 7, 37, 127
5, 17280, Note_on_c, 7, 37, 0
5, 17280, Note_on_c, 7, 44, 127
5, 17640, Note_on_c, 7, 44, 0
5, 17640, Note_on_c, 7, 44, 127
5, 17760, Note_on_c, 7, 44, 0
5, 17760, Note_on_c, 7, 44, 127
5, 18240, Note_on_c, 7, 44, 0
5, 18240, Note_on_c, 7, 37, 127
5, 18600, Note_on_c, 7, 37, 0
5, 18600, Note_on_c, 7, 37, 127
5, 18720, Note_on_c, 7, 37, 0
5, 18720, Note_on_c, 7, 37, 127
5, 19200, Note_on_c, 7, 37, 0
5, 19200, Note_on_c, 7, 42, 127
5, 19560, Note_on_c, 7, 42, 0
5, 19560, Note_on_c, 7, 42, 127
5, 19680, Note_on_c, 7, 42, 0
5, 19680, Note_on_c, 7, 42, 127
5, 20160, Note_on_c, 7, 42, 0
5, 20160, Note_on_c, 7, 39, 127
5, 20520, Note_on_c, 7, 39, 0
5, 20520, Note_on_c, 7, 39, 127
5, 20640, Note_on_c, 7, 39, 0
5, 20640, Note_on_c, 7, 39, 127
5, 20880, Note_on_c, 7, 39, 0
5, 20880, Note_on_c, 7, 39, 127
5, 21120, Note_on_c, 7, 39, 0
5, 21120, Note_on_c, 7, 44, 127
5, 21480, Note_on_c, 7, 44, 0
5, 21480, Note_on_c, 7, 44, 127
5, 21600, Note_on_c, 7, 44, 0
5, 21600, Note_on_c, 7, 44, 127
5, 22080, Note_on_c, 7, 44, 0
5, 22080, Note_on_c, 7, 37, 127
5, 22440, Note_on_c, 7, 37, 0
5, 22440, Note_on_c, 7, 37, 127
5, 22560, Note_on_c, 7, 37, 0
5, 22560, Note_on_c, 7, 37, 127
5, 22800, Note_on_c, 7, 37, 0
5, 22800, Note_on_c, 7, 37, 127
5, 23040, Note_on_c, 7, 37, 0
5, 23040, Note_on_c, 7, 44, 127
5, 23400, Note_on_c, 7, 44, 0
5, 23400, Note_on_c, 7, 44, 127
5, 23520, Note_on_c, 7, 44, 0
5, 23520, Note_on_c, 7, 44, 127
5, 24000, Note_on_c, 7, 44, 0
5, 24000, Note_on_c, 7, 37, 127
5, 24360, Note_on_c, 7, 37, 0
5, 24360, Note_on_c, 7, 37, 127
5, 24480, Note_on_c, 7, 37, 0
5, 24480, Note_on_c, 7, 37, 127
5, 24720, Note_on_c, 7, 37, 0
5, 24720, Note_on_c, 7, 37, 127
5, 24960, Note_on_c, 7, 37, 0
5, 24960, Note_on_c, 7, 44, 127
5, 25320, Note_on_c, 7, 44, 0
5, 25320, Note_on_c, 7, 44, 127
5, 25440, Note_on_c, 7, 44, 0
5, 25440, Note_on_c, 7, 44, 127
5, 25920, Note_on_c, 7, 44, 0
5, 25920, Note_on_c, 7, 37, 127
5, 26280, Note_on_c, 7, 37, 0
5, 26280, Note_on_c, 7, 37, 127
5, 26400, Note_on_c, 7, 37, 0
5, 26400, Note_on_c, 7, 37, 127
5, 26640, Note_on_c, 7, 37, 0
5, 26640, Note_on_c, 7, 37, 127
5, 26880, Note_on_c, 7, 37, 0
5, 26880, Note_on_c, 7, 42, 127
5, 27240, Note_on_c, 7, 42, 0
5, 27240, Note_on_c, 7, 42, 127
5, 27360, Note_on_c, 7, 42, 0
5, 27360, Note_on_c, 7, 42, 127
5, 27840, Note_on_c, 7, 42, 0
5, 27840, Note_on_c, 7, 39, 127
5, 28200, Note_on_c, 7, 39, 0
5, 28200, Note_on_c, 7, 39, 127
5, 28320, Note_on_c, 7, 39, 0
5, 28320, Note_on_c, 7, 39, 127
5, 28800, Note_on_c, 7, 39, 0
5, 28800, Note_on_c, 7, 44, 127
5, 29160, Note_on_c, 7, 44, 0
5, 29160, Note_on_c, 7, 44, 127
5, 29280, Note_on_c, 7, 44, 0
5, 29280, Note_on_c, 7, 44, 127
5, 29760, Note_on_c, 7, 44, 0
5, 29760, Note_on_c, 7, 37, 127
5, 30120, Note_on_c, 7, 37, 0
5, 30120, Note_on_c, 7, 37, 127
5, 30240, Note_on_c, 7, 37, 0
5, 30240, Note_on_c, 7, 37, 127
5, 30720, Note_on_c, 7, 37, 0
5, 30720, Note_on_c, 7, 44, 127
5, 31080, Note_on_c, 7, 44, 0
5, 31080, Note_on_c, 7, 44, 127
5, 31200, Note_on_c, 7, 44, 0
5, 31200, Note_on_c, 7, 44, 127
5, 31680, Note_on_c, 7, 44, 0
5, 31680, Note_on_c, 7, 37, 127
5, 32040, Note_on_c, 7, 37, 0
5, 32040, Note_on_c, 7, 37, 127
5, 32160, Note_on_c, 7, 37, 0
5, 32160, Note_on_c, 7, 37, 127
5, 32640, Note_on_c, 7, 37, 0
5, 32640, Note_on_c, 7, 44, 127
5, 33000, Note_on_c, 7, 44, 0
5, 33000, Note_on_c, 7, 44, 127
5, 33120, Note_on_c, 7, 44, 0
5, 33120, Note_on_c, 7, 44, 127
5, 33600, Note_on_c, 7, 44, 0
5, 33600, Note_on_c, 7, 37, 127
5, 33960, Note_on_c, 7, 37, 0
5, 33960, Note_on_c, 7, 37, 127
5, 34080, Note_on_c, 7, 37, 0
5, 34080, Note_on_c, 7, 37, 127
5, 34560, Note_on_c, 7, 37, 0
5, 34560, Note_on_c, 7, 42, 127
5, 34920, Note_on_c, 7, 42, 0
5, 34920, Note_on_c, 7, 42, 127
5, 35040, Note_on_c, 7, 42, 0
5, 35040, Note_on_c, 7, 42, 127
5, 35520, Note_on_c, 7, 42, 0
5, 35520, Note_on_c, 7, 39, 127
5, 35880, Note_on_c, 7, 39, 0
5, 35880, Note_on_c, 7, 39, 127
5, 36000, Note_on_c, 7, 39, 0
5, 36000, Note_on_c, 7, 39, 127
5, 36240, Note_on_c, 7, 39, 0
5, 36240, Note_on_c, 7, 39, 127
5, 36480, Note_on_c, 7, 39, 0
5, 36480, Note_on_c, 7, 44, 127
5, 36840, Note_on_c, 7, 44, 0
5, 36840, Note_on_c, 7, 44, 127
5, 36960, Note_on_c, 7, 44, 0
5, 36960, Note_on_c, 7, 44, 127
5, 37440, Note_on_c, 7, 44, 0
5, 37440, Note_on_c, 7, 37, 127
5, 37800, Note_on_c, 7, 37, 0
5, 37800, Note_on_c, 7, 37, 127
5, 37920, Note_on_c, 7, 37, 0
5, 37920, Note_on_c, 7, 37, 127
5, 38160, Note_on_c, 7, 37, 0
5, 38160, Note_on_c, 7, 37, 127
5, 38400, Note_on_c, 7, 37, 0
5, 38400, Note_on_c, 7, 44, 127
5, 38760, Note_on_c, 7, 44, 0
5, 38760, Note_on_c, 7, 44, 127
5, 38880, Note_on_c, 7, 44, 0
5, 38880, Note_on_c, 7, 44, 127
5, 39360, Note_on_c, 7, 44, 0
5, 39360, Note_on_c, 7, 37, 127
5, 39720, Note_on_c, 7, 37, 0
5, 39720, Note_on_c, 7, 37, 127
5, 39840, Note_on_c, 7, 37, 0
5, 39840, Note_on_c, 7, 37, 127
5, 40080, Note_on_c, 7, 37, 0
5, 40080, Note_on_c, 7, 37, 127
5, 40320, Note_on_c, 7, 37, 0
5, 40320, Note_on_c, 7, 44, 127
5, 40680, Note_on_c, 7, 44, 0
5, 40680, Note_on_c, 7, 44, 127
5, 40800, Note_on_c, 7, 44, 0
5, 40800, Note_on_c, 7, 44, 127
5, 41280, Note_on_c, 7, 44, 0
5, 41280, Note_on_c, 7, 37, 127
5, 41640, Note_on_c, 7, 37, 0
5, 41640, Note_on_c, 7, 37, 127
5, 41760, Note_on_c, 7, 37, 0
5, 41760, Note_on_c, 7, 37, 127
5, 42000, Note_on_c, 7, 37, 0
5, 42000, Note_on_c, 7, 37, 127
5, 42240, Note_on_c, 7, 37, 0
5, 42240, Note_on_c, 7, 42, 127
5, 42600, Note_on_c, 7, 42, 0
5, 42600, Note_on_c, 7, 42, 127
5, 42720, Note_on_c, 7, 42, 0
5, 42720, Note_on_c, 7, 42, 127
5, 43200, Note_on_c, 7, 42, 0
5, 43200, Note_on_c, 7, 39, 127
5, 43560, Note_on_c, 7, 39, 0
5, 43560, Note_on_c, 7, 39, 127
5, 43680, Note_on_c, 7, 39, 0
5, 43680, Note_on_c, 7, 39, 127
5, 43920, Note_on_c, 7, 39, 0
5, 43920, Note_on_c, 7, 39, 127
5, 44160, Note_on_c, 7, 39, 0
5, 44160, Note_on_c, 7, 48, 127
5, 44520, Note_on_c, 7, 48, 0
5, 44520, Note_on_c, 7, 48, 127
5, 44640, Note_on_c, 7, 48, 0
5, 44640, Note_on_c, 7, 48, 127
5, 45120, Note_on_c, 7, 48, 0
5, 45120, Note_on_c, 7, 41, 127
5, 45480, Note_on_c, 7, 41, 0
5, 45480, Note_on_c, 7, 41, 127
5, 45600, Note_on_c, 7, 41, 0
5, 45600, Note_on_c, 7, 41, 127
5, 46080, Note_on_c, 7, 41, 0
5, 46080, Note_on_c, 7, 37, 127
5, 46440, Note_on_c, 7, 37, 0
5, 46440, Note_on_c, 7, 37, 127
5, 46560, Note_on_c, 7, 37, 0
5, 46560, Note_on_c, 7, 39, 127
5, 47040, Note_on_c, 7, 39, 0
5, 47040, Note_on_c, 7, 44, 127
5, 47400, Note_on_c, 7, 44, 0
5, 47400, Note_on_c, 7, 44, 127
5, 47520, Note_on_c, 7, 44, 0
5, 47520, Note_on_c, 7, 44, 127
5, 47760, Note_on_c, 7, 44, 0
5, 47760, Note_on_c, 7, 44, 127
5, 48000, Note_on_c, 7, 44, 0
5, 48000, Note_on_c, 7, 43, 127
5, 48360, Note_on_c, 7, 43, 0
5, 48360, Note_on_c, 7, 43, 127
5, 48480, Note_on_c, 7, 43, 0
5, 48480, Note_on_c, 7, 48, 127
5, 48960, Note_on_c, 7, 48, 0
5, 48960, Note_on_c, 7, 41, 127
5, 49200, Note_on_c, 7, 41, 0
5, 49200, Note_on_c, 7, 39, 127
5, 49440, Note_on_c, 7, 39, 0
5, 49440, Note_on_c, 7, 37, 127
5, 49800, Note_on_c, 7, 37, 0
5, 49800, Note_on_c, 7, 37, 127
5, 49920, Note_on_c, 7, 37, 0
5, 49920, Note_on_c, 7, 46, 127
5, 50280, Note_on_c, 7, 46, 0
5, 50280, Note_on_c, 7, 46, 127
5, 50400, Note_on_c, 7, 46, 0
5, 50400, Note_on_c, 7, 46, 127
5, 50880, Note_on_c, 7, 46, 0
5, 50880, Note_on_c, 7, 39, 127
5, 51240, Note_on_c, 7, 39, 0
5, 51240, Note_on_c, 7, 39, 127
5, 51360, Note_on_c, 7, 39, 0
5, 51360, Note_on_c, 7, 39, 127
5, 51600, Note_on_c, 7, 39, 0
5, 51600, Note_on_c, 7, 39, 127
5, 51840, Note_on_c, 7, 39, 0
5, 51840, Note_on_c, 7, 47, 127
5, 52200, Note_on_c, 7, 47, 0
5, 52200, Note_on_c, 7, 47, 127
5, 52320, Note_on_c, 7, 47, 0
5, 52320, Note_on_c, 7, 47, 127
5, 52800, Note_on_c, 7, 47, 0
5, 52800, Note_on_c, 7, 40, 127
5, 53160, Note_on_c, 7, 40, 0
5, 53160, Note_on_c, 7, 40, 127
5, 53280, Note_on_c, 7, 40, 0
5, 53280, Note_on_c, 7, 40, 127
5, 53520, Note_on_c, 7, 40, 0
5, 53520, Note_on_c, 7, 40, 127
5, 53760, Note_on_c, 7, 40, 0
5, 53760, Note_on_c, 7, 47, 127
5, 54120, Note_on_c, 7, 47, 0
5, 54120, Note_on_c, 7, 47, 127
5, 54240, Note_on_c, 7, 47, 0
5, 54240, Note_on_c, 7, 47, 127
5, 54720, Note_on_c, 7, 47, 0
5, 54720, Note_on_c, 7, 40, 127
5, 55080, Note_on_c, 7, 40, 0
5, 55080, Note_on_c, 7, 40, 127
5, 55200, Note_on_c, 7, 40, 0
5, 55200, Note_on_c, 7, 40, 127
5, 55440, Note_on_c, 7, 40, 0
5, 55440, Note_on_c, 7, 40, 127
5, 55680, Note_on_c, 7, 40, 0
5, 55680, Note_on_c, 7, 47, 127
5, 56040, Note_on_c, 7, 47, 0
5, 56040, Note_on_c, 7, 47, 127
5, 56160, Note_on_c, 7, 47, 0
5, 56160, Note_on_c, 7, 47, 127
5, 56640, Note_on_c, 7, 47, 0
5, 56640, Note_on_c, 7, 40, 127
5, 57000, Note_on_c, 7, 40, 0
5, 57000, Note_on_c, 7, 40, 127
5, 57120, Note_on_c, 7, 40, 0
5, 57120, Note_on_c, 7, 40, 127
5, 57600, Note_on_c, 7, 40, 0
5, 57600, Note_on_c, 7, 45, 127
5, 57960, Note_on_c, 7, 45, 0
5, 57960, Note_on_c, 7, 45, 127
5, 58080, Note_on_c, 7, 45, 0
5, 58080, Note_on_c, 7, 45, 127
5, 58320, Note_on_c, 7, 45, 0
5, 58320, Note_on_c, 7, 45, 127
5, 58560, Note_on_c, 7, 45, 0
5, 58560, Note_on_c, 7, 42, 127
5, 58920, Note_on_c, 7, 42, 0
5, 58920, Note_on_c, 7, 42, 127
5, 59040, Note_on_c, 7, 42, 0
5, 59040, Note_on_c, 7, 42, 127
5, 59280, Note_on_c, 7, 42, 0
5, 59280, Note_on_c, 7, 42, 127
5, 59520, Note_on_c, 7, 42, 0
5, 59520, Note_on_c, 7, 47, 127
5, 59880, Note_on_c, 7, 47, 0
5, 59880, Note_on_c, 7, 47, 127
5, 60000, Note_on_c, 7, 47, 0
5, 60000, Note_on_c, 7, 47, 127
5, 60480, Note_on_c, 7, 47, 0
5, 60480, Note_on_c, 7, 40, 127
5, 60840, Note_on_c, 7, 40, 0
5, 60840, Note_on_c, 7, 40, 127
5, 60960, Note_on_c, 7, 40, 0
5, 60960, Note_on_c, 7, 40, 127
5, 61200, Note_on_c, 7, 40, 0
5, 61200, Note_on_c, 7, 40, 127
5, 61440, Note_on_c, 7, 40, 0
5, 61440, Note_on_c, 7, 47, 127
5, 61800, Note_on_c, 7, 47, 0
5, 61800, Note_on_c, 7, 47, 127
5, 61920, Note_on_c, 7, 47, 0
5, 61920, Note_on_c, 7, 47, 127
5, 62400, Note_on_c, 7, 47, 0
5, 62400, Note_on_c, 7, 40, 127
5, 62760, Note_on_c, 7, 40, 0
5, 62760, Note_on_c, 7, 40, 127
5, 62880, Note_on_c, 7, 40, 0
5, 62880, Note_on_c, 7, 40, 127
5, 63120, Note_on_c, 7, 40, 0
5, 63120, Note_on_c, 7, 40, 127
5, 63360, Note_on_c, 7, 40, 0
5, 63360, Note_on_c, 7, 47, 127
5, 63720, Note_on_c, 7, 47, 0
5, 63720, Note_on_c, 7, 47, 127
5, 63840, Note_on_c, 7, 47, 0
5, 63840, Note_on_c, 7, 47, 127
5, 64320, Note_on_c, 7, 47, 0
5, 64320, Note_on_c, 7, 40, 127
5, 64680, Note_on_c, 7, 40, 0
5, 64680, Note_on_c, 7, 40, 127
5, 64800, Note_on_c, 7, 40, 0
5, 64800, Note_on_c, 7, 40, 127
5, 65280, Note_on_c, 7, 40, 0
5, 65280, Note_on_c, 7, 45, 127
5, 65640, Note_on_c, 7, 45, 0
5, 65640, Note_on_c, 7, 45, 127
5, 65760, Note_on_c, 7, 45, 0
5, 65760, Note_on_c, 7, 45, 127
5, 66000, Note_on_c, 7, 45, 0
5, 66000, Note_on_c, 7, 45, 127
5, 66240, Note_on_c, 7, 45, 0
5, 66240, Note_on_c, 7, 42, 127
5, 66600, Note_on_c, 7, 42, 0
5, 66600, Note_on_c, 7, 42, 127
5, 66720, Note_on_c, 7, 42, 0
5, 66720, Note_on_c, 7, 42, 127
5, 67200, Note_on_c, 7, 42, 0
5, 67200, Note_on_c, 7, 47, 127
5, 68160, Note_on_c, 7, 47, 0
5, 68160, Note_on_c, 7, 40, 127
5, 69120, Note_on_c, 7, 40, 0
5, 69120, Note_on_c, 7, 47, 127
5, 70080, Note_on_c, 7, 47, 0
5, 70080, Note_on_c, 7, 40, 127
5, 71040, Note_on_c, 7, 40, 0
5, 71040, End_track
6, 0, Start_track
6, 0, MIDI_port, 0
6, 0, Program_c, 10, 49
6, 0, Control_c, 10, 7, 100
6, 960, Note_on_c, 10, 68, 127
6, 1920, Note_on_c, 10, 68, 0
6, 1920, Note_on_c, 10, 60, 127
6, 1920, Note_on_c, 10, 63, 127
6, 2400, Note_on_c, 10, 63, 0
6, 2400, Note_on_c, 10, 60, 0
6, 2400, Note_on_c, 10, 60, 127
6, 2400, Note_on_c, 10, 63, 127
6, 2880, Note_on_c, 10, 63, 0
6, 2880, Note_on_c, 10, 60, 0
6, 2880, Note_on_c, 10, 68, 127
6, 2880, Note_on_c, 10, 72, 127
6, 3840, Note_on_c, 10, 72, 0
6, 3840, Note_on_c, 10, 68, 0
6, 3840, Note_on_c, 10, 68, 127
6, 3840, Note_on_c, 10, 70, 127
6, 4320, Note_on_c, 10, 70, 0
6, 4320, Note_on_c, 10, 68, 0
6, 4320, Note_on_c, 10, 61, 127
6, 4320, Note_on_c, 10, 68, 127
6, 4800, Note_on_c, 10, 68, 0
6, 4800, Note_on_c, 10, 61, 0
6, 4800, Note_on_c, 10, 56, 127
6, 4800, Note_on_c, 10, 61, 127
6, 4800, Note_on_c, 10, 65, 127
6, 5760, Note_on_c, 10, 65, 0
6, 5760, Note_on_c, 10, 61, 0
6, 5760, Note_on_c, 10, 56, 0
6, 5760, Note_on_c, 10, 60, 127
6, 5760, Note_on_c, 10, 63, 127
6, 6720, Note_on_c, 10, 63, 0
6, 6720, Note_on_c, 10, 60, 0
6, 6720, Note_on_c, 10, 63, 127
6, 6720, Note_on_c, 10, 65, 127
6, 7680, Note_on_c, 10, 65, 0
6, 7680, Note_on_c, 10, 63, 0
6, 7680, Note_on_c, 10, 60, 127
6, 7680, Note_on_c, 10, 63, 127
6, 8640, Note_on_c, 10, 63, 0
6, 8640, Note_on_c, 10, 60, 0
6, 8640, Note_on_c, 10, 63, 127
6, 8640, Note_on_c, 10, 65, 127
6, 9600, Note_on_c, 10, 65, 0
6, 9600, Note_on_c, 10, 63, 0
6, 9600, Note_on_c, 10, 60, 127
6, 9600, Note_on_c, 10, 63, 127
6, 10560, Note_on_c, 10, 63, 0
6, 10560, Note_on_c, 10, 60, 0
6, 10560, Note_on_c, 10, 63, 127
6, 10560, Note_on_c, 10, 65, 127
6, 11520, Note_on_c, 10, 65, 0
6, 11520, Note_on_c, 10, 63, 0
6, 11520, Note_on_c, 10, 61, 127
6, 11520, Note_on_c, 10, 68, 127
6, 12480, Note_on_c, 10, 68, 0
6, 12480, Note_on_c, 10, 61, 0
6, 12480, Note_on_c, 10, 61, 127
6, 12480, Note_on_c, 10, 65, 127
6, 13440, Note_on_c, 10, 65, 0
6, 13440, Note_on_c, 10, 61, 0
6, 13440, Note_on_c, 10, 60, 127
6, 13440, Note_on_c, 10, 63, 127
6, 14400, Note_on_c, 10, 63, 0
6, 14400, Note_on_c, 10, 60, 0
6, 14400, Note_on_c, 10, 63, 127
6, 14400, Note_on_c, 10, 65, 127
6, 15360, Note_on_c, 10, 65, 0
6, 15360, Note_on_c, 10, 63, 0
6, 15360, Note_on_c, 10, 60, 127
6, 15360, Note_on_c, 10, 63, 127
6, 16320, Note_on_c, 10, 63, 0
6, 16320, Note_on_c, 10, 60, 0
6, 16320, Note_on_c, 10, 63, 127
6, 16320, Note_on_c, 10, 65, 127
6, 17280, Note_on_c, 10, 65, 0
6, 17280, Note_on_c, 10, 63, 0
6, 17280, Note_on_c, 10, 60, 127
6, 17280, Note_on_c, 10, 63, 127
6, 18240, Note_on_c, 10, 63, 0
6, 18240, Note_on_c, 10, 60, 0
6, 18240, Note_on_c, 10, 63, 127
6, 18240, Note_on_c, 10, 65, 127
6, 19200, Note_on_c, 10, 65, 0
6, 19200, Note_on_c, 10, 63, 0
6, 19200, Note_on_c, 10, 61, 127
6, 19200, Note_on_c, 10, 68, 127
6, 20160, Note_on_c, 10, 68, 0
6, 20160, Note_on_c, 10, 61, 0
6, 20160, Note_on_c, 10, 61, 127
6, 20160, Note_on_c, 10, 65, 127
6, 21120, Note_on_c, 10, 65, 0
6, 21120, Note_on_c, 10, 61, 0
6, 21120, Note_on_c, 10, 60, 127
6, 21120, Note_on_c, 10, 63, 127
6, 22080, Note_on_c, 10, 63, 0
6, 22080, Note_on_c, 10, 60, 0
6, 22080, Note_on_c, 10, 63, 127
6, 22080, Note_on_c, 10, 65, 127
6, 23040, Note_on_c, 10, 65, 0
6, 23040, Note_on_c, 10, 63, 0
6, 23040, Note_on_c, 10, 60, 127
6, 23040, Note_on_c, 10, 63, 127
6, 24000, Note_on_c, 10, 63, 0
6, 24000, Note_on_c, 10, 60, 0
6, 24000, Note_on_c, 10, 63, 127
6, 24000, Note_on_c, 10, 65, 127
6, 24960, Note_on_c, 10, 65, 0
6, 24960, Note_on_c, 10, 63, 0
6, 24960, Note_on_c, 10, 60, 127
6, 24960, Note_on_c, 10, 63, 127
6, 25920, Note_on_c, 10, 63, 0
6, 25920, Note_on_c, 10, 60, 0
6, 25920, Note_on_c, 10, 63, 127
6, 25920, Note_on_c, 10, 65, 127
6, 26880, Note_on_c, 10, 65, 0
6, 26880, Note_on_c, 10, 63, 0
6, 26880, Note_on_c, 10, 61, 127
6, 26880, Note_on_c, 10, 68, 127
6, 27840, Note_on_c, 10, 68, 0
6, 27840, Note_on_c, 10, 61, 0
6, 27840, Note_on_c, 10, 68, 127
6, 28800, Note_on_c, 10, 68, 0
6, 28800, Note_on_c, 10, 60, 127
6, 28800, Note_on_c, 10, 63, 127
6, 29760, Note_on_c, 10, 63, 0
6, 29760, Note_on_c, 10, 60, 0
6, 29760, Note_on_c, 10, 63, 127
6, 29760, Note_on_c, 10, 65, 127
6, 30720, Note_on_c, 10, 65, 0
6, 30720, Note_on_c, 10, 63, 0
6, 30720, Note_on_c, 10, 60, 127
6, 30720, Note_on_c, 10, 63, 127
6, 31680, Note_on_c, 10, 63, 0
6, 31680, Note_on_c, 10, 60, 0
6, 31680, Note_on_c, 10, 63, 127
6, 31680, Note_on_c, 10, 65, 127
6, 32640, Note_on_c, 10, 65, 0
6, 32640, Note_on_c, 10, 63, 0
6, 32640, Note_on_c, 10, 60, 127
6, 32640, Note_on_c, 10, 63, 127
6, 33600, Note_on_c, 10, 63, 0
6, 33600, Note_on_c, 10, 60, 0
6, 33600, Note_on_c, 10, 63, 127
6, 33600, Note_on_c, 10, 65, 127
6, 34560, Note_on_c, 10, 65, 0
6, 34560, Note_on_c, 10, 63, 0
6, 34560, Note_on_c, 10, 61, 127
6, 34560, Note_on_c, 10, 68, 127
6, 35520, Note_on_c, 10, 68, 0
6, 35520, Note_on_c, 10, 61, 0
6, 35520, Note_on_c, 10, 61, 127
6, 35520, Note_on_c, 10, 65, 127
6, 36480, Note_on_c, 10, 65, 0
6, 36480, Note_on_c, 10, 61, 0
6, 36480, Note_on_c, 10, 60, 127
6, 36480, Note_on_c, 10, 63, 127
6, 37440, Note_on_c, 10, 63, 0
6, 37440, Note_on_c, 10, 60, 0
6, 37440, Note_on_c, 10, 63, 127
6, 37440, Note_on_c, 10, 65, 127
6, 37920, Note_on_c, 10, 65, 0
6, 37920, Note_on_c, 10, 63, 0
6, 38400, Note_on_c, 10, 60, 127
6, 38400, Note_on_c, 10, 63, 127
6, 39360, Note_on_c, 10, 63, 0
6, 39360, Note_on_c, 10, 60, 0
6, 39360, Note_on_c, 10, 63, 127
6, 39360, Note_on_c, 10, 65, 127
6, 39840, Note_on_c, 10, 65, 0
6, 39840, Note_on_c, 10, 63, 0
6, 40320, Note_on_c, 10, 60, 127
6, 40320, Note_on_c, 10, 63, 127
6, 41280, Note_on_c, 10, 63, 0
6, 41280, Note_on_c, 10, 60, 0
6, 41280, Note_on_c, 10, 63, 127
6, 41280, Note_on_c, 10, 65, 127
6, 42240, Note_on_c, 10, 65, 0
6, 42240, Note_on_c, 10, 63, 0
6, 42240, Note_on_c, 10, 61, 127
6, 42240, Note_on_c, 10, 68, 127
6, 43200, Note_on_c, 10, 68, 0
6, 43200, Note_on_c, 10, 61, 0
6, 44160, Note_on_c, 10, 60, 127
6, 44160, Note_on_c, 10, 65, 127
6, 44640, Note_on_c, 10, 65, 0
6, 44640, Note_on_c, 10, 60, 0
6, 44640, Note_on_c, 10, 60, 127
6, 44640, Note_on_c, 10, 70, 127
6, 45120, Note_on_c, 10, 70, 0
6, 45120, Note_on_c, 10, 60, 0
6, 45120, Note_on_c, 10, 68, 127
6, 45120, Note_on_c, 10, 72, 127
6, 45600, Note_on_c, 10, 72, 0
6, 45600, Note_on_c, 10, 68, 0
6, 45600, Note_on_c, 10, 65, 127
6, 45600, Note_on_c, 10, 68, 127
6, 46080, Note_on_c, 10, 68, 0
6, 46080, Note_on_c, 10, 65, 0
6, 46080, Note_on_c, 10, 60, 127
6, 46080, Note_on_c, 10, 65, 127
6, 46560, Note_on_c, 10, 65, 0
6, 46560, Note_on_c, 10, 60, 0
6, 46560, Note_on_c, 10, 68, 127
6, 46560, Note_on_c, 10, 70, 127
6, 47040, Note_on_c, 10, 70, 0
6, 47040, Note_on_c, 10, 68, 0
6, 47040, Note_on_c, 10, 60, 127
6, 47040, Note_on_c, 10, 63, 127
6, 48000, Note_on_c, 10, 63, 0
6, 48000, Note_on_c, 10, 60, 0
6, 48000, Note_on_c, 10, 65, 127
6, 48000, Note_on_c, 10, 70, 127
6, 48480, Note_on_c, 10, 70, 0
6, 48480, Note_on_c, 10, 65, 0
6, 48480, Note_on_c, 10, 64, 127
6, 48960, Note_on_c, 10, 64, 0
6, 48960, Note_on_c, 10, 60, 127
6, 48960, Note_on_c, 10, 65, 127
6, 49200, Note_on_c, 10, 65, 0
6, 49200, Note_on_c, 10, 60, 0
6, 49200, Note_on_c, 10, 60, 127
6, 49200, Note_on_c, 10, 63, 127
6, 49440, Note_on_c, 10, 63, 0
6, 49440, Note_on_c, 10, 60, 0
6, 49440, Note_on_c, 10, 60, 127
6, 49440, Note_on_c, 10, 65, 127
6, 49920, Note_on_c, 10, 65, 0
6, 49920, Note_on_c, 10, 60, 0
6, 49920, Note_on_c, 10, 58, 127
6, 49920, Note_on_c, 10, 61, 127
6, 50400, Note_on_c, 10, 61, 0
6, 50400, Note_on_c, 10, 58, 0
6, 50400, Note_on_c, 10, 61, 127
6, 50400, Note_on_c, 10, 65, 127
6, 50880, Note_on_c, 10, 65, 0
6, 50880, Note_on_c, 10, 61, 0
6, 50880, Note_on_c, 10, 61, 127
6, 50880, Note_on_c, 10, 65, 127
6, 51840, Note_on_c, 10, 65, 0
6, 51840, Note_on_c, 10, 61, 0
6, 51840, Note_on_c, 10, 63, 127
6, 51840, Note_on_c, 10, 66, 127
6, 52800, Note_on_c, 10, 66, 0
6, 52800, Note_on_c, 10, 63, 0
6, 52800, Note_on_c, 10, 66, 127
6, 52800, Note_on_c, 10, 68, 127
6, 53040, Note_on_c, 10, 68, 0
6, 53040, Note_on_c, 10, 66, 0
6, 53280, Note_on_c, 10, 66, 127
6, 53280, Note_on_c, 10, 68, 127
6, 53760, Note_on_c, 10, 68, 0
6, 53760, Note_on_c, 10, 66, 0
6, 53760, Note_on_c, 10, 63, 127
6, 53760, Note_on_c, 10, 66, 127
6, 54720, Note_on_c, 10, 66, 0
6, 54720, Note_on_c, 10, 63, 0
6, 54720, Note_on_c, 10, 66, 127
6, 54720, Note_on_c, 10, 68, 127
6, 55200, Note_on_c, 10, 68, 0
6, 55200, Note_on_c, 10, 66, 0
6, 55680, Note_on_c, 10, 63, 127
6, 55680, Note_on_c, 10, 66, 127
6, 56640, Note_on_c, 10, 66, 0
6, 56640, Note_on_c, 10, 63, 0
6, 56640, Note_on_c, 10, 66, 127
6, 56640, Note_on_c, 10, 68, 127
6, 57600, Note_on_c, 10, 68, 0
6, 57600, Note_on_c, 10, 66, 0
6, 57600, Note_on_c, 10, 64, 127
6, 57600, Note_on_c, 10, 71, 127
6, 58560, Note_on_c, 10, 71, 0
6, 58560, Note_on_c, 10, 64, 0
6, 58560, Note_on_c, 10, 64, 127
6, 58560, Note_on_c, 10, 68, 127
6, 59520, Note_on_c, 10, 68, 0
6, 59520, Note_on_c, 10, 64, 0
6, 59520, Note_on_c, 10, 63, 127
6, 59520, Note_on_c, 10, 66, 127
6, 60480, Note_on_c, 10, 66, 0
6, 60480, Note_on_c, 10, 63, 0
6, 60480, Note_on_c, 10, 66, 127
6, 60480, Note_on_c, 10, 68, 127
6, 60720, Note_on_c, 10, 68, 0
6, 60720, Note_on_c, 10, 66, 0
6, 61440, Note_on_c, 10, 63, 127
6, 61440, Note_on_c, 10, 66, 127
6, 62400, Note_on_c, 10, 66, 0
6, 62400, Note_on_c, 10, 63, 0
6, 62400, Note_on_c, 10, 66, 127
6, 62400, Note_on_c, 10, 68, 127
6, 63360, Note_on_c, 10, 68, 0
6, 63360, Note_on_c, 10, 66, 0
6, 63360, Note_on_c, 10, 63, 127
6, 63360, Note_on_c, 10, 66, 127
6, 64320, Note_on_c, 10, 66, 0
6, 64320, Note_on_c, 10, 63, 0
6, 64320, Note_on_c, 10, 66, 127
6, 64320, Note_on_c, 10, 68, 127
6, 65280, Note_on_c, 10, 68, 0
6, 65280, Note_on_c, 10, 66, 0
6, 65280, Note_on_c, 10, 64, 127
6, 65280, Note_on_c, 10, 71, 127
6, 66240, Note_on_c, 10, 71, 0
6, 66240, Note_on_c, 10, 64, 0
6, 66240, Note_on_c, 10, 71, 127
6, 67200, Note_on_c, 10, 71, 0
6, 67200, Note_on_c, 10, 63, 127
6, 67200, Note_on_c, 10, 66, 127
6, 68160, Note_on_c, 10, 66, 0
6, 68160, Note_on_c, 10, 63, 0
6, 68160, Note_on_c, 10, 59, 127
6, 68160, Note_on_c, 10, 63, 127
6, 68160, Note_on_c, 10, 66, 127
6, 69120, Note_on_c, 10, 66, 0
6, 69120, Note_on_c, 10, 63, 0
6, 69120, Note_on_c, 10, 59, 0
6, 69120, Note_on_c, 10, 63, 127
6, 69120, Note_on_c, 10, 66, 127
6, 70080, Note_on_c, 10, 66, 0
6, 70080, Note_on_c, 10, 63, 0
6, 70080, Note_on_c, 10, 66, 127
6, 71040, Note_on_c, 10, 66, 0
6, 71040, End_track
7, 0, Start_track
7, 0, MIDI_port, 0
7, 0, Program_c, 9, 0
7, 0, Control_c, 9, 7, 127
7, 0, Note_on_c, 9, 37, 127
7, 240, Note_on_c, 9, 37, 0
7, 240, Note_on_c, 9, 37, 127
7, 480, Note_on_c, 9, 37, 0
7, 480, Note_on_c, 9, 37, 127
7, 720, Note_on_c, 9, 37, 0
7, 720, Note_on_c, 9, 37, 127
7, 960, Note_on_c, 9, 37, 0
7, 1620, Note_on_c, 9, 36, 127
7, 1680, Note_on_c, 9, 36, 0
7, 1680, Note_on_c, 9, 40, 127
7, 1920, Note_on_c, 9, 40, 0
7, 1920, Note_on_c, 9, 49, 127
7, 2040, Note_on_c, 9, 49, 0
7, 2040, Note_on_c, 9, 70, 127
7, 2100, Note_on_c, 9, 70, 0
7, 2100, Note_on_c, 9, 70, 127
7, 2160, Note_on_c, 9, 70, 0
7, 2160, Note_on_c, 9, 40, 127
7, 2160, Note_on_c, 9, 70, 127
7, 2280, Note_on_c, 9, 70, 0
7, 2280, Note_on_c, 9, 40, 0
7, 2340, Note_on_c, 9, 36, 127
7, 2400, Note_on_c, 9, 36, 0
7, 2400, Note_on_c, 9, 36, 127
7, 2580, Note_on_c, 9, 36, 0
7, 2580, Note_on_c, 9, 80, 127
7, 2640, Note_on_c, 9, 80, 0
7, 2640, Note_on_c, 9, 40, 127
7, 2760, Note_on_c, 9, 40, 0
7, 2760, Note_on_c, 9, 46, 127
7, 2880, Note_on_c, 9, 46, 0
7, 2880, Note_on_c, 9, 36, 127
7, 3000, Note_on_c, 9, 36, 0
7, 3000, Note_on_c, 9, 70, 127
7, 3060, Note_on_c, 9, 70, 0
7, 3060, Note_on_c, 9, 70, 127
7, 3120, Note_on_c, 9, 70, 0
7, 3120, Note_on_c, 9, 40, 127
7, 3120, Note_on_c, 9, 70, 127
7, 3240, Note_on_c, 9, 70, 0
7, 3240, Note_on_c, 9, 40, 0
7, 3300, Note_on_c, 9, 36, 127
7, 3360, Note_on_c, 9, 36, 0
7, 3360, Note_on_c, 9, 36, 127
7, 3540, Note_on_c, 9, 36, 0
7, 3540, Note_on_c, 9, 80, 127
7, 3600, Note_on_c, 9, 80, 0
7, 3600, Note_on_c, 9, 40, 127
7, 3720, Note_on_c, 9, 40, 0
7, 3720, Note_on_c, 9, 46, 127
7, 3840, Note_on_c, 9, 46, 0
7, 3840, Note_on_c, 9, 36, 127
7, 3960, Note_on_c, 9, 36, 0
7, 3960, Note_on_c, 9, 70, 127
7, 4020, Note_on_c, 9, 70, 0
7, 4020, Note_on_c, 9, 70, 127
7, 4080, Note_on_c, 9, 70, 0
7, 4080, Note_on_c, 9, 40, 127
7, 4080, Note_on_c, 9, 70, 127
7, 4200, Note_on_c, 9, 70, 0
7, 4200, Note_on_c, 9, 40, 0
7, 4260, Note_on_c, 9, 36, 127
7, 4320, Note_on_c, 9, 36, 0
7, 4320, Note_on_c, 9, 36, 127
7, 4500, Note_on_c, 9, 36, 0
7, 4500, Note_on_c, 9, 80, 127
7, 4560, Note_on_c, 9, 80, 0
7, 4560, Note_on_c, 9, 40, 127
7, 4680, Note_on_c, 9, 40, 0
7, 4680, Note_on_c, 9, 46, 127
7, 4800, Note_on_c, 9, 46, 0
7, 4800, Note_on_c, 9, 36, 127
7, 4920, Note_on_c, 9, 36, 0
7, 4920, Note_on_c, 9, 70, 127
7, 4980, Note_on_c, 9, 70, 0
7, 4980, Note_on_c, 9, 70, 127
7, 5040, Note_on_c, 9, 70, 0
7, 5040, Note_on_c, 9, 40, 127
7, 5040, Note_on_c, 9, 70, 127
7, 5160, Note_on_c, 9, 70, 0
7, 5160, Note_on_c, 9, 40, 0
7, 5220, Note_on_c, 9, 36, 127
7, 5280, Note_on_c, 9, 36, 0
7, 5280, Note_on_c, 9, 36, 127
7, 5280, Note_on_c, 9, 46, 127
7, 5460, Note_on_c, 9, 46, 0
7, 5460, Note_on_c, 9, 36, 0
7, 5460, Note_on_c, 9, 47, 127
7, 5520, Note_on_c, 9, 47, 0
7, 5520, Note_on_c, 9, 45, 127
7, 5640, Note_on_c, 9, 45, 0
7, 5640, Note_on_c, 9, 43, 127
7, 5760, Note_on_c, 9, 43, 0
7, 5760, Note_on_c, 9, 36, 127
7, 5880, Note_on_c, 9, 36, 0
7, 5880, Note_on_c, 9, 70, 127
7, 5940, Note_on_c, 9, 70, 0
7, 5940, Note_on_c, 9, 70, 127
7, 6000, Note_on_c, 9, 70, 0
7, 6000, Note_on_c, 9, 62, 127
7, 6000, Note_on_c, 9, 70, 127
7, 6120, Note_on_c, 9, 70, 0
7, 6120, Note_on_c, 9, 62, 0
7, 6120, Note_on_c, 9, 36, 127
7, 6240, Note_on_c, 9, 36, 0
7, 6240, Note_on_c, 9, 36, 127
7, 6420, Note_on_c, 9, 36, 0
7, 6420, Note_on_c, 9, 80, 127
7, 6480, Note_on_c, 9, 80, 0
7, 6480, Note_on_c, 9, 31, 127
7, 6600, Note_on_c, 9, 31, 0
7, 6600, Note_on_c, 9, 44, 127
7, 6720, Note_on_c, 9, 44, 0
7, 6720, Note_on_c, 9, 36, 127
7, 6840, Note_on_c, 9, 36, 0
7, 6840, Note_on_c, 9, 70, 127
7, 6900, Note_on_c, 9, 70, 0
7, 6900, Note_on_c, 9, 70, 127
7, 6960, Note_on_c, 9, 70, 0
7, 6960, Note_on_c, 9, 62, 127
7, 6960, Note_on_c, 9, 70, 127
7, 7080, Note_on_c, 9, 70, 0
7, 7080, Note_on_c, 9, 62, 0
7, 7080, Note_on_c, 9, 36, 127
7, 7200, Note_on_c, 9, 36, 0
7, 7200, Note_on_c, 9, 36, 127
7, 7380, Note_on_c, 9, 36, 0
7, 7380, Note_on_c, 9, 80, 127
7, 7440, Note_on_c, 9, 80, 0
7, 7440, Note_on_c, 9, 31, 127
7, 7560, Note_on_c, 9, 31, 0
7, 7560, Note_on_c, 9, 44, 127
7, 7680, Note_on_c, 9, 44, 0
7, 7680, Note_on_c, 9, 36, 127
7, 7800, Note_on_c, 9, 36, 0
7, 7800, Note_on_c, 9, 70, 127
7, 7860, Note_on_c, 9, 70, 0
7, 7860, Note_on_c, 9, 70, 127
7, 7920, Note_on_c, 9, 70, 0
7, 7920, Note_on_c, 9, 62, 127
7, 7920, Note_on_c, 9, 70, 127
7, 8040, Note_on_c, 9, 70, 0
7, 8040, Note_on_c, 9, 62, 0
7, 8040, Note_on_c, 9, 36, 127
7, 8160, Note_on_c, 9, 36, 0
7, 8160, Note_on_c, 9, 36, 127
7, 8340, Note_on_c, 9, 36, 0
7, 8340, Note_on_c, 9, 80, 127
7, 8400, Note_on_c, 9, 80, 0
7, 8400, Note_on_c, 9, 31, 127
7, 8520, Note_on_c, 9, 31, 0
7, 8520, Note_on_c, 9, 44, 127
7, 8640, Note_on_c, 9, 44, 0
7, 8640, Note_on_c, 9, 36, 127
7, 8760, Note_on_c, 9, 36, 0
7, 8760, Note_on_c, 9, 70, 127
7, 8820, Note_on_c, 9, 70, 0
7, 8820, Note_on_c, 9, 70, 127
7, 8880, Note_on_c, 9, 70, 0
7, 8880, Note_on_c, 9, 62, 127
7, 8880, Note_on_c, 9, 70, 127
7, 9000, Note_on_c, 9, 70, 0
7, 9000, Note_on_c, 9, 62, 0
7, 9000, Note_on_c, 9, 36, 127
7, 9120, Note_on_c, 9, 36, 0
7, 9120, Note_on_c, 9, 36, 127
7, 9300, Note_on_c, 9, 36, 0
7, 9300, Note_on_c, 9, 80, 127
7, 9360, Note_on_c, 9, 80, 0
7, 9360, Note_on_c, 9, 31, 127
7, 9480, Note_on_c, 9, 31, 0
7, 9480, Note_on_c, 9, 44, 127
7, 9600, Note_on_c, 9, 44, 0
7, 9600, Note_on_c, 9, 36, 127
7, 9720, Note_on_c, 9, 36, 0
7, 9720, Note_on_c, 9, 70, 127
7, 9780, Note_on_c, 9, 70, 0
7, 9780, Note_on_c, 9, 70, 127
7, 9840, Note_on_c, 9, 70, 0
7, 9840, Note_on_c, 9, 62, 127
7, 9840, Note_on_c, 9, 70, 127
7, 9960, Note_on_c, 9, 70, 0
7, 9960, Note_on_c, 9, 62, 0
7, 9960, Note_on_c, 9, 36, 127
7, 10080, Note_on_c, 9, 36, 0
7, 10080, Note_on_c, 9, 36, 127
7, 10260, Note_on_c, 9, 36, 0
7, 10260, Note_on_c, 9, 80, 127
7, 10320, Note_on_c, 9, 80, 0
7, 10320, Note_on_c, 9, 31, 127
7, 10440, Note_on_c, 9, 31, 0
7, 10440, Note_on_c, 9, 44, 127
7, 10560, Note_on_c, 9, 44, 0
7, 10560, Note_on_c, 9, 36, 127
7, 10680, Note_on_c, 9, 36, 0
7, 10680, Note_on_c, 9, 70, 127
7, 10740, Note_on_c, 9, 70, 0
7, 10740, Note_on_c, 9, 70, 127
7, 10800, Note_on_c, 9, 70, 0
7, 10800, Note_on_c, 9, 62, 127
7, 10800, Note_on_c, 9, 70, 127
7, 10920, Note_on_c, 9, 70, 0
7, 10920, Note_on_c, 9, 62, 0
7, 10920, Note_on_c, 9, 36, 127
7, 11040, Note_on_c, 9, 36, 0
7, 11040, Note_on_c, 9, 36, 127
7, 11220, Note_on_c, 9, 36, 0
7, 11220, Note_on_c, 9, 80, 127
7, 11280, Note_on_c, 9, 80, 0
7, 11280, Note_on_c, 9, 31, 127
7, 11400, Note_on_c, 9, 31, 0
7, 11400, Note_on_c, 9, 44, 127
7, 11520, Note_on_c, 9, 44, 0
7, 11520, Note_on_c, 9, 36, 127
7, 11640, Note_on_c, 9, 36, 0
7, 11640, Note_on_c, 9, 70, 127
7, 11700, Note_on_c, 9, 70, 0
7, 11700, Note_on_c, 9, 70, 127
7, 11760, Note_on_c, 9, 70, 0
7, 11760, Note_on_c, 9, 62, 127
7, 11760, Note_on_c, 9, 70, 127
7, 11880, Note_on_c, 9, 70, 0
7, 11880, Note_on_c, 9, 62, 0
7, 11880, Note_on_c, 9, 36, 127
7, 12000, Note_on_c, 9, 36, 0
7, 12000, Note_on_c, 9, 36, 127
7, 12180, Note_on_c, 9, 36, 0
7, 12180, Note_on_c, 9, 80, 127
7, 12240, Note_on_c, 9, 80, 0
7, 12240, Note_on_c, 9, 31, 127
7, 12360, Note_on_c, 9, 31, 0
7, 12360, Note_on_c, 9, 44, 127
7, 12480, Note_on_c, 9, 44, 0
7, 12480, Note_on_c, 9, 36, 127
7, 12600, Note_on_c, 9, 36, 0
7, 12600, Note_on_c, 9, 70, 127
7, 12660, Note_on_c, 9, 70, 0
7, 12660, Note_on_c, 9, 70, 127
7, 12720, Note_on_c, 9, 70, 0
7, 12720, Note_on_c, 9, 62, 127
7, 12720, Note_on_c, 9, 70, 127
7, 12840, Note_on_c, 9, 70, 0
7, 12840, Note_on_c, 9, 62, 0
7, 12900, Note_on_c, 9, 36, 127
7, 12960, Note_on_c, 9, 36, 0
7, 12960, Note_on_c, 9, 31, 127
7, 12960, Note_on_c, 9, 46, 127
7, 13140, Note_on_c, 9, 46, 0
7, 13140, Note_on_c, 9, 31, 0
7, 13140, Note_on_c, 9, 47, 127
7, 13200, Note_on_c, 9, 47, 0
7, 13200, Note_on_c, 9, 45, 127
7, 13440, Note_on_c, 9, 45, 0
7, 13440, Note_on_c, 9, 36, 127
7, 13560, Note_on_c, 9, 36, 0
7, 13560, Note_on_c, 9, 70, 127
7, 13620, Note_on_c, 9, 70, 0
7, 13620, Note_on_c, 9, 70, 127
7, 13680, Note_on_c, 9, 70, 0
7, 13680, Note_on_c, 9, 62, 127
7, 13680, Note_on_c, 9, 70, 127
7, 13800, Note_on_c, 9, 70, 0
7, 13800, Note_on_c, 9, 62, 0
7, 13800, Note_on_c, 9, 36, 127
7, 13920, Note_on_c, 9, 36, 0
7, 13920, Note_on_c, 9, 36, 127
7, 14100, Note_on_c, 9, 36, 0
7, 14100, Note_on_c, 9, 80, 127
7, 14160, Note_on_c, 9, 80, 0
7, 14160, Note_on_c, 9, 31, 127
7, 14280, Note_on_c, 9, 31, 0
7, 14280, Note_on_c, 9, 44, 127
7, 14400, Note_on_c, 9, 44, 0
7, 14400, Note_on_c, 9, 36, 127
7, 14520, Note_on_c, 9, 36, 0
7, 14520, Note_on_c, 9, 70, 127
7, 14580, Note_on_c, 9, 70, 0
7, 14580, Note_on_c, 9, 70, 127
7, 14640, Note_on_c, 9, 70, 0
7, 14640, Note_on_c, 9, 62, 127
7, 14640, Note_on_c, 9, 70, 127
7, 14760, Note_on_c, 9, 70, 0
7, 14760, Note_on_c, 9, 62, 0
7, 14760, Note_on_c, 9, 36, 127
7, 14880, Note_on_c, 9, 36, 0
7, 14880, Note_on_c, 9, 36, 127
7, 15060, Note_on_c, 9, 36, 0
7, 15060, Note_on_c, 9, 80, 127
7, 15120, Note_on_c, 9, 80, 0
7, 15120, Note_on_c, 9, 31, 127
7, 15240, Note_on_c, 9, 31, 0
7, 15240, Note_on_c, 9, 44, 127
7, 15360, Note_on_c, 9, 44, 0
7, 15360, Note_on_c, 9, 36, 127
7, 15480, Note_on_c, 9, 36, 0
7, 15480, Note_on_c, 9, 70, 127
7, 15540, Note_on_c, 9, 70, 0
7, 15540, Note_on_c, 9, 70, 127
7, 15600, Note_on_c, 9, 70, 0
7, 15600, Note_on_c, 9, 62, 127
7, 15600, Note_on_c, 9, 70, 127
7, 15720, Note_on_c, 9, 70, 0
7, 15720, Note_on_c, 9, 62, 0
7, 15720, Note_on_c, 9, 36, 127
7, 15840, Note_on_c, 9, 36, 0
7, 15840, Note_on_c, 9, 36, 127
7, 16020, Note_on_c, 9, 36, 0
7, 16020, Note_on_c, 9, 80, 127
7, 16080, Note_on_c, 9, 80, 0
7, 16080, Note_on_c, 9, 31, 127
7, 16200, Note_on_c, 9, 31, 0
7, 16200, Note_on_c, 9, 44, 127
7, 16320, Note_on_c, 9, 44, 0
7, 16320, Note_on_c, 9, 36, 127
7, 16440, Note_on_c, 9, 36, 0
7, 16440, Note_on_c, 9, 70, 127
7, 16500, Note_on_c, 9, 70, 0
7, 16500, Note_on_c, 9, 70, 127
7, 16560, Note_on_c, 9, 70, 0
7, 16560, Note_on_c, 9, 62, 127
7, 16560, Note_on_c, 9, 70, 127
7, 16680, Note_on_c, 9, 70, 0
7, 16680, Note_on_c, 9, 62, 0
7, 16680, Note_on_c, 9, 36, 127
7, 16800, Note_on_c, 9, 36, 0
7, 16800, Note_on_c, 9, 36, 127
7, 16980, Note_on_c, 9, 36, 0
7, 16980, Note_on_c, 9, 80, 127
7, 17040, Note_on_c, 9, 80, 0
7, 17040, Note_on_c, 9, 31, 127
7, 17160, Note_on_c, 9, 31, 0
7, 17160, Note_on_c, 9, 44, 127
7, 17280, Note_on_c, 9, 44, 0
7, 17280, Note_on_c, 9, 36, 127
7, 17400, Note_on_c, 9, 36, 0
7, 17400, Note_on_c, 9, 70, 127
7, 17460, Note_on_c, 9, 70, 0
7, 17460, Note_on_c, 9, 70, 127
7, 17520, Note_on_c, 9, 70, 0
7, 17520, Note_on_c, 9, 62, 127
7, 17520, Note_on_c, 9, 70, 127
7, 17640, Note_on_c, 9, 70, 0
7, 17640, Note_on_c, 9, 62, 0
7, 17640, Note_on_c, 9, 36, 127
7, 17760, Note_on_c, 9, 36, 0
7, 17760, Note_on_c, 9, 36, 127
7, 17940, Note_on_c, 9, 36, 0
7, 17940, Note_on_c, 9, 80, 127
7, 18000, Note_on_c, 9, 80, 0
7, 18000, Note_on_c, 9, 31, 127
7, 18120, Note_on_c, 9, 31, 0
7, 18120, Note_on_c, 9, 44, 127
7, 18240, Note_on_c, 9, 44, 0
7, 18240, Note_on_c, 9, 36, 127
7, 18360, Note_on_c, 9, 36, 0
7, 18360, Note_on_c, 9, 70, 127
7, 18420, Note_on_c, 9, 70, 0
7, 18420, Note_on_c, 9, 70, 127
7, 18480, Note_on_c, 9, 70, 0
7, 18480, Note_on_c, 9, 62, 127
7, 18480, Note_on_c, 9, 70, 127
7, 18600, Note_on_c, 9, 70, 0
7, 18600, Note_on_c, 9, 62, 0
7, 18600, Note_on_c, 9, 36, 127
7, 18720, Note_on_c, 9, 36, 0
7, 18720, Note_on_c, 9, 36, 127
7, 18900, Note_on_c, 9, 36, 0
7, 18900, Note_on_c, 9, 80, 127
7, 18960, Note_on_c, 9, 80, 0
7, 18960, Note_on_c, 9, 31, 127
7, 19080, Note_on_c, 9, 31, 0
7, 19080, Note_on_c, 9, 44, 127
7, 19200, Note_on_c, 9, 44, 0
7, 19200, Note_on_c, 9, 36, 127
7, 19320, Note_on_c, 9, 36, 0
7, 19320, Note_on_c, 9, 70, 127
7, 19380, Note_on_c, 9, 70, 0
7, 19380, Note_on_c, 9, 70, 127
7, 19440, Note_on_c, 9, 70, 0
7, 19440, Note_on_c, 9, 62, 127
7, 19440, Note_on_c, 9, 70, 127
7, 19560, Note_on_c, 9, 70, 0
7, 19560, Note_on_c, 9, 62, 0
7, 19560, Note_on_c, 9, 36, 127
7, 19680, Note_on_c, 9, 36, 0
7, 19680, Note_on_c, 9, 36, 127
7, 19860, Note_on_c, 9, 36, 0
7, 19860, Note_on_c, 9, 80, 127
7, 19920, Note_on_c, 9, 80, 0
7, 19920, Note_on_c, 9, 31, 127
7, 20040, Note_on_c, 9, 31, 0
7, 20040, Note_on_c, 9, 44, 127
7, 20160, Note_on_c, 9, 44, 0
7, 20160, Note_on_c, 9, 36, 127
7, 20280, Note_on_c, 9, 36, 0
7, 20280, Note_on_c, 9, 70, 127
7, 20340, Note_on_c, 9, 70, 0
7, 20340, Note_on_c, 9, 70, 127
7, 20400, Note_on_c, 9, 70, 0
7, 20400, Note_on_c, 9, 62, 127
7, 20400, Note_on_c, 9, 70, 127
7, 20520, Note_on_c, 9, 70, 0
7, 20520, Note_on_c, 9, 62, 0
7, 20520, Note_on_c, 9, 36, 127
7, 20640, Note_on_c, 9, 36, 0
7, 20640, Note_on_c, 9, 36, 127
7, 20880, Note_on_c, 9, 36, 0
7, 20880, Note_on_c, 9, 40, 127
7, 21120, Note_on_c, 9, 40, 0
7, 21120, Note_on_c, 9, 36, 127
7, 21120, Note_on_c, 9, 49, 127
7, 21360, Note_on_c, 9, 49, 0
7, 21360, Note_on_c, 9, 36, 0
7, 21360, Note_on_c, 9, 38, 127
7, 21480, Note_on_c, 9, 38, 0
7, 21480, Note_on_c, 9, 70, 127
7, 21540, Note_on_c, 9, 70, 0
7, 21540, Note_on_c, 9, 36, 127
7, 21540, Note_on_c, 9, 70, 127
7, 21600, Note_on_c, 9, 70, 0
7, 21600, Note_on_c, 9, 36, 0
7, 21600, Note_on_c, 9, 36, 127
7, 21600, Note_on_c, 9, 70, 127
7, 21780, Note_on_c, 9, 70, 0
7, 21780, Note_on_c, 9, 36, 0
7, 21780, Note_on_c, 9, 80, 127
7, 21840, Note_on_c, 9, 80, 0
7, 21840, Note_on_c, 9, 40, 127
7, 21960, Note_on_c, 9, 40, 0
7, 21960, Note_on_c, 9, 46, 127
7, 22080, Note_on_c, 9, 46, 0
7, 22080, Note_on_c, 9, 36, 127
7, 22320, Note_on_c, 9, 36, 0
7, 22320, Note_on_c, 9, 38, 127
7, 22440, Note_on_c, 9, 38, 0
7, 22440, Note_on_c, 9, 70, 127
7, 22500, Note_on_c, 9, 70, 0
7, 22500, Note_on_c, 9, 36, 127
7, 22500, Note_on_c, 9, 70, 127
7, 22560, Note_on_c, 9, 70, 0
7, 22560, Note_on_c, 9, 36, 0
7, 22560, Note_on_c, 9, 36, 127
7, 22560, Note_on_c, 9, 70, 127
7, 22740, Note_on_c, 9, 70, 0
7, 22740, Note_on_c, 9, 36, 0
7, 22740, Note_on_c, 9, 80, 127
7, 22800, Note_on_c, 9, 80, 0
7, 22800, Note_on_c, 9, 40, 127
7, 22920, Note_on_c, 9, 40, 0
7, 22920, Note_on_c, 9, 46, 127
7, 23040, Note_on_c, 9, 46, 0
7, 23040, Note_on_c, 9, 36, 127
7, 23280, Note_on_c, 9, 36, 0
7, 23280, Note_on_c, 9, 38, 127
7, 23400, Note_on_c, 9, 38, 0
7, 23400, Note_on_c, 9, 70, 127
7, 23460, Note_on_c, 9, 70, 0
7, 23460, Note_on_c, 9, 36, 127
7, 23460, Note_on_c, 9, 70, 127
7, 23520, Note_on_c, 9, 70, 0
7, 23520, Note_on_c, 9, 36, 0
7, 23520, Note_on_c, 9, 36, 127
7, 23520, Note_on_c, 9, 70, 127
7, 23700, Note_on_c, 9, 70, 0
7, 23700, Note_on_c, 9, 36, 0
7, 23700, Note_on_c, 9, 80, 127
7, 23760, Note_on_c, 9, 80, 0
7, 23760, Note_on_c, 9, 40, 127
7, 23880, Note_on_c, 9, 40, 0
7, 23880, Note_on_c, 9, 46, 127
7, 24000, Note_on_c, 9, 46, 0
7, 24000, Note_on_c, 9, 36, 127
7, 24240, Note_on_c, 9, 36, 0
7, 24240, Note_on_c, 9, 38, 127
7, 24360, Note_on_c, 9, 38, 0
7, 24360, Note_on_c, 9, 70, 127
7, 24420, Note_on_c, 9, 70, 0
7, 24420, Note_on_c, 9, 36, 127
7, 24420, Note_on_c, 9, 70, 127
7, 24480, Note_on_c, 9, 70, 0
7, 24480, Note_on_c, 9, 36, 0
7, 24480, Note_on_c, 9, 36, 127
7, 24480, Note_on_c, 9, 70, 127
7, 24660, Note_on_c, 9, 70, 0
7, 24660, Note_on_c, 9, 36, 0
7, 24660, Note_on_c, 9, 36, 127
7, 24660, Note_on_c, 9, 80, 127
7, 24720, Note_on_c, 9, 80, 0
7, 24720, Note_on_c, 9, 36, 0
7, 24720, Note_on_c, 9, 40, 127
7, 24780, Note_on_c, 9, 40, 0
7, 24780, Note_on_c, 9, 36, 127
7, 24840, Note_on_c, 9, 36, 0
7, 24840, Note_on_c, 9, 36, 127
7, 24960, Note_on_c, 9, 36, 0
7, 24960, Note_on_c, 9, 36, 127
7, 24960, Note_on_c, 9, 49, 127
7, 25200, Note_on_c, 9, 49, 0
7, 25200, Note_on_c, 9, 36, 0
7, 25200, Note_on_c, 9, 38, 127
7, 25320, Note_on_c, 9, 38, 0
7, 25320, Note_on_c, 9, 70, 127
7, 25380, Note_on_c, 9, 70, 0
7, 25380, Note_on_c, 9, 36, 127
7, 25380, Note_on_c, 9, 70, 127
7, 25440, Note_on_c, 9, 70, 0
7, 25440, Note_on_c, 9, 36, 0
7, 25440, Note_on_c, 9, 36, 127
7, 25440, Note_on_c, 9, 70, 127
7, 25620, Note_on_c, 9, 70, 0
7, 25620, Note_on_c, 9, 36, 0
7, 25620, Note_on_c, 9, 80, 127
7, 25680, Note_on_c, 9, 80, 0
7, 25680, Note_on_c, 9, 40, 127
7, 25800, Note_on_c, 9, 40, 0
7, 25800, Note_on_c, 9, 46, 127
7, 25920, Note_on_c, 9, 46, 0
7, 25920, Note_on_c, 9, 36, 127
7, 26160, Note_on_c, 9, 36, 0
7, 26160, Note_on_c, 9, 38, 127
7, 26280, Note_on_c, 9, 38, 0
7, 26280, Note_on_c, 9, 70, 127
7, 26340, Note_on_c, 9, 70, 0
7, 26340, Note_on_c, 9, 36, 127
7, 26340, Note_on_c, 9, 70, 127
7, 26400, Note_on_c, 9, 70, 0
7, 26400, Note_on_c, 9, 36, 0
7, 26400, Note_on_c, 9, 36, 127
7, 26400, Note_on_c, 9, 70, 127
7, 26580, Note_on_c, 9, 70, 0
7, 26580, Note_on_c, 9, 36, 0
7, 26580, Note_on_c, 9, 80, 127
7, 26640, Note_on_c, 9, 80, 0
7, 26640, Note_on_c, 9, 40, 127
7, 26760, Note_on_c, 9, 40, 0
7, 26760, Note_on_c, 9, 46, 127
7, 26880, Note_on_c, 9, 46, 0
7, 26880, Note_on_c, 9, 36, 127
7, 27120, Note_on_c, 9, 36, 0
7, 27120, Note_on_c, 9, 38, 127
7, 27240, Note_on_c, 9, 38, 0
7, 27240, Note_on_c, 9, 70, 127
7, 27300, Note_on_c, 9, 70, 0
7, 27300, Note_on_c, 9, 36, 127
7, 27300, Note_on_c, 9, 70, 127
7, 27360, Note_on_c, 9, 70, 0
7, 27360, Note_on_c, 9, 36, 0
7, 27360, Note_on_c, 9, 36, 127
7, 27360, Note_on_c, 9, 70, 127
7, 27540, Note_on_c, 9, 70, 0
7, 27540, Note_on_c, 9, 36, 0
7, 27540, Note_on_c, 9, 80, 127
7, 27600, Note_on_c, 9, 80, 0
7, 27600, Note_on_c, 9, 40, 127
7, 27720, Note_on_c, 9, 40, 0
7, 27720, Note_on_c, 9, 46, 127
7, 27840, Note_on_c, 9, 46, 0
7, 27840, Note_on_c, 9, 36, 127
7, 28080, Note_on_c, 9, 36, 0
7, 28080, Note_on_c, 9, 38, 127
7, 28200, Note_on_c, 9, 38, 0
7, 28200, Note_on_c, 9, 70, 127
7, 28260, Note_on_c, 9, 70, 0
7, 28260, Note_on_c, 9, 36, 127
7, 28260, Note_on_c, 9, 70, 127
7, 28320, Note_on_c, 9, 70, 0
7, 28320, Note_on_c, 9, 36, 0
7, 28320, Note_on_c, 9, 36, 127
7, 28320, Note_on_c, 9, 70, 127
7, 28500, Note_on_c, 9, 70, 0
7, 28500, Note_on_c, 9, 36, 0
7, 28500, Note_on_c, 9, 47, 127
7, 28560, Note_on_c, 9, 47, 0
7, 28560, Note_on_c, 9, 45, 127
7, 28800, Note_on_c, 9, 45, 0
7, 28800, Note_on_c, 9, 36, 127
7, 28920, Note_on_c, 9, 36, 0
7, 28920, Note_on_c, 9, 70, 127
7, 28980, Note_on_c, 9, 70, 0
7, 28980, Note_on_c, 9, 70, 127
7, 29040, Note_on_c, 9, 70, 0
7, 29040, Note_on_c, 9, 62, 127
7, 29040, Note_on_c, 9, 70, 127
7, 29160, Note_on_c, 9, 70, 0
7, 29160, Note_on_c, 9, 62, 0
7, 29160, Note_on_c, 9, 36, 127
7, 29280, Note_on_c, 9, 36, 0
7, 29280, Note_on_c, 9, 36, 127
7, 29460, Note_on_c, 9, 36, 0
7, 29460, Note_on_c, 9, 80, 127
7, 29520, Note_on_c, 9, 80, 0
7, 29520, Note_on_c, 9, 40, 127
7, 29640, Note_on_c, 9, 40, 0
7, 29640, Note_on_c, 9, 46, 127
7, 29760, Note_on_c, 9, 46, 0
7, 29760, Note_on_c, 9, 36, 127
7, 29880, Note_on_c, 9, 36, 0
7, 29880, Note_on_c, 9, 70, 127
7, 29940, Note_on_c, 9, 70, 0
7, 29940, Note_on_c, 9, 70, 127
7, 30000, Note_on_c, 9, 70, 0
7, 30000, Note_on_c, 9, 62, 127
7, 30000, Note_on_c, 9, 70, 127
7, 30120, Note_on_c, 9, 70, 0
7, 30120, Note_on_c, 9, 62, 0
7, 30120, Note_on_c, 9, 36, 127
7, 30240, Note_on_c, 9, 36, 0
7, 30240, Note_on_c, 9, 36, 127
7, 30420, Note_on_c, 9, 36, 0
7, 30420, Note_on_c, 9, 80, 127
7, 30480, Note_on_c, 9, 80, 0
7, 30480, Note_on_c, 9, 40, 127
7, 30600, Note_on_c, 9, 40, 0
7, 30600, Note_on_c, 9, 46, 127
7, 30720, Note_on_c, 9, 46, 0
7, 30720, Note_on_c, 9, 36, 127
7, 30840, Note_on_c, 9, 36, 0
7, 30840, Note_on_c, 9, 70, 127
7, 30900, Note_on_c, 9, 70, 0
7, 30900, Note_on_c, 9, 70, 127
7, 30960, Note_on_c, 9, 70, 0
7, 30960, Note_on_c, 9, 62, 127
7, 30960, Note_on_c, 9, 70, 127
7, 31080, Note_on_c, 9, 70, 0
7, 31080, Note_on_c, 9, 62, 0
7, 31080, Note_on_c, 9, 36, 127
7, 31200, Note_on_c, 9, 36, 0
7, 31200, Note_on_c, 9, 36, 127
7, 31380, Note_on_c, 9, 36, 0
7, 31380, Note_on_c, 9, 80, 127
7, 31440, Note_on_c, 9, 80, 0
7, 31440, Note_on_c, 9, 40, 127
7, 31560, Note_on_c, 9, 40, 0
7, 31560, Note_on_c, 9, 46, 127
7, 31680, Note_on_c, 9, 46, 0
7, 31680, Note_on_c, 9, 36, 127
7, 31800, Note_on_c, 9, 36, 0
7, 31800, Note_on_c, 9, 70, 127
7, 31860, Note_on_c, 9, 70, 0
7, 31860, Note_on_c, 9, 70, 127
7, 31920, Note_on_c, 9, 70, 0
7, 31920, Note_on_c, 9, 62, 127
7, 31920, Note_on_c, 9, 70, 127
7, 32040, Note_on_c, 9, 70, 0
7, 32040, Note_on_c, 9, 62, 0
7, 32040, Note_on_c, 9, 36, 127
7, 32160, Note_on_c, 9, 36, 0
7, 32160, Note_on_c, 9, 36, 127
7, 32340, Note_on_c, 9, 36, 0
7, 32340, Note_on_c, 9, 80, 127
7, 32400, Note_on_c, 9, 80, 0
7, 32400, Note_on_c, 9, 40, 127
7, 32520, Note_on_c, 9, 40, 0
7, 32520, Note_on_c, 9, 46, 127
7, 32640, Note_on_c, 9, 46, 0
7, 32640, Note_on_c, 9, 36, 127
7, 32760, Note_on_c, 9, 36, 0
7, 32760, Note_on_c, 9, 70, 127
7, 32820, Note_on_c, 9, 70, 0
7, 32820, Note_on_c, 9, 70, 127
7, 32880, Note_on_c, 9, 70, 0
7, 32880, Note_on_c, 9, 62, 127
7, 32880, Note_on_c, 9, 70, 127
7, 33000, Note_on_c, 9, 70, 0
7, 33000, Note_on_c, 9, 62, 0
7, 33000, Note_on_c, 9, 36, 127
7, 33120, Note_on_c, 9, 36, 0
7, 33120, Note_on_c, 9, 36, 127
7, 33300, Note_on_c, 9, 36, 0
7, 33300, Note_on_c, 9, 80, 127
7, 33360, Note_on_c, 9, 80, 0
7, 33360, Note_on_c, 9, 40, 127
7, 33480, Note_on_c, 9, 40, 0
7, 33480, Note_on_c, 9, 46, 127
7, 33600, Note_on_c, 9, 46, 0
7, 33600, Note_on_c, 9, 36, 127
7, 33720, Note_on_c, 9, 36, 0
7, 33720, Note_on_c, 9, 70, 127
7, 33780, Note_on_c, 9, 70, 0
7, 33780, Note_on_c, 9, 70, 127
7, 33840, Note_on_c, 9, 70, 0
7, 33840, Note_on_c, 9, 62, 127
7, 33840, Note_on_c, 9, 70, 127
7, 33960, Note_on_c, 9, 70, 0
7, 33960, Note_on_c, 9, 62, 0
7, 33960, Note_on_c, 9, 36, 127
7, 34080, Note_on_c, 9, 36, 0
7, 34080, Note_on_c, 9, 36, 127
7, 34260, Note_on_c, 9, 36, 0
7, 34260, Note_on_c, 9, 80, 127
7, 34320, Note_on_c, 9, 80, 0
7, 34320, Note_on_c, 9, 40, 127
7, 34440, Note_on_c, 9, 40, 0
7, 34440, Note_on_c, 9, 46, 127
7, 34560, Note_on_c, 9, 46, 0
7, 34560, Note_on_c, 9, 36, 127
7, 34680, Note_on_c, 9, 36, 0
7, 34680, Note_on_c, 9, 70, 127
7, 34740, Note_on_c, 9, 70, 0
7, 34740, Note_on_c, 9, 70, 127
7, 34800, Note_on_c, 9, 70, 0
7, 34800, Note_on_c, 9, 62, 127
7, 34800, Note_on_c, 9, 70, 127
7, 34920, Note_on_c, 9, 70, 0
7, 34920, Note_on_c, 9, 62, 0
7, 34920, Note_on_c, 9, 36, 127
7, 35040, Note_on_c, 9, 36, 0
7, 35040, Note_on_c, 9, 36, 127
7, 35220, Note_on_c, 9, 36, 0
7, 35220, Note_on_c, 9, 80, 127
7, 35280, Note_on_c, 9, 80, 0
7, 35280, Note_on_c, 9, 40, 127
7, 35400, Note_on_c, 9, 40, 0
7, 35400, Note_on_c, 9, 46, 127
7, 35520, Note_on_c, 9, 46, 0
7, 35520, Note_on_c, 9, 36, 127
7, 35640, Note_on_c, 9, 36, 0
7, 35640, Note_on_c, 9, 70, 127
7, 35700, Note_on_c, 9, 70, 0
7, 35700, Note_on_c, 9, 70, 127
7, 35760, Note_on_c, 9, 70, 0
7, 35760, Note_on_c, 9, 62, 127
7, 35760, Note_on_c, 9, 70, 127
7, 36000, Note_on_c, 9, 70, 0
7, 36000, Note_on_c, 9, 62, 0
7, 36000, Note_on_c, 9, 40, 127
7, 36180, Note_on_c, 9, 40, 0
7, 36180, Note_on_c, 9, 36, 127
7, 36240, Note_on_c, 9, 36, 0
7, 36240, Note_on_c, 9, 36, 127
7, 36480, Note_on_c, 9, 36, 0
7, 36480, Note_on_c, 9, 36, 127
7, 36480, Note_on_c, 9, 49, 127
7, 36720, Note_on_c, 9, 49, 0
7, 36720, Note_on_c, 9, 36, 0
7, 36720, Note_on_c, 9, 38, 127
7, 36840, Note_on_c, 9, 38, 0
7, 36840, Note_on_c, 9, 70, 127
7, 36900, Note_on_c, 9, 70, 0
7, 36900, Note_on_c, 9, 36, 127
7, 36900, Note_on_c, 9, 70, 127
7, 36960, Note_on_c, 9, 70, 0
7, 36960, Note_on_c, 9, 36, 0
7, 36960, Note_on_c, 9, 36, 127
7, 36960, Note_on_c, 9, 70, 127
7, 37140, Note_on_c, 9, 70, 0
7, 37140, Note_on_c, 9, 36, 0
7, 37140, Note_on_c, 9, 80, 127
7, 37200, Note_on_c, 9, 80, 0
7, 37200, Note_on_c, 9, 40, 127
7, 37320, Note_on_c, 9, 40, 0
7, 37320, Note_on_c, 9, 46, 127
7, 37440, Note_on_c, 9, 46, 0
7, 37440, Note_on_c, 9, 36, 127
7, 37680, Note_on_c, 9, 36, 0
7, 37680, Note_on_c, 9, 38, 127
7, 37800, Note_on_c, 9, 38, 0
7, 37800, Note_on_c, 9, 70, 127
7, 37860, Note_on_c, 9, 70, 0
7, 37860, Note_on_c, 9, 36, 127
7, 37860, Note_on_c, 9, 70, 127
7, 37920, Note_on_c, 9, 70, 0
7, 37920, Note_on_c, 9, 36, 0
7, 37920, Note_on_c, 9, 36, 127
7, 37920, Note_on_c, 9, 49, 127
7, 37920, Note_on_c, 9, 70, 127
7, 38100, Note_on_c, 9, 70, 0
7, 38100, Note_on_c, 9, 49, 0
7, 38100, Note_on_c, 9, 36, 0
7, 38100, Note_on_c, 9, 36, 127
7, 38100, Note_on_c, 9, 80, 127
7, 38160, Note_on_c, 9, 80, 0
7, 38160, Note_on_c, 9, 36, 0
7, 38160, Note_on_c, 9, 40, 127
7, 38220, Note_on_c, 9, 40, 0
7, 38220, Note_on_c, 9, 36, 127
7, 38280, Note_on_c, 9, 36, 0
7, 38280, Note_on_c, 9, 36, 127
7, 38400, Note_on_c, 9, 36, 0
7, 38400, Note_on_c, 9, 36, 127
7, 38400, Note_on_c, 9, 49, 127
7, 38640, Note_on_c, 9, 49, 0
7, 38640, Note_on_c, 9, 36, 0
7, 38640, Note_on_c, 9, 38, 127
7, 38760, Note_on_c, 9, 38, 0
7, 38760, Note_on_c, 9, 70, 127
7, 38820, Note_on_c, 9, 70, 0
7, 38820, Note_on_c, 9, 36, 127
7, 38820, Note_on_c, 9, 70, 127
7, 38880, Note_on_c, 9, 70, 0
7, 38880, Note_on_c, 9, 36, 0
7, 38880, Note_on_c, 9, 36, 127
7, 38880, Note_on_c, 9, 70, 127
7, 39060, Note_on_c, 9, 70, 0
7, 39060, Note_on_c, 9, 36, 0
7, 39060, Note_on_c, 9, 80, 127
7, 39120, Note_on_c, 9, 80, 0
7, 39120, Note_on_c, 9, 40, 127
7, 39240, Note_on_c, 9, 40, 0
7, 39240, Note_on_c, 9, 46, 127
7, 39360, Note_on_c, 9, 46, 0
7, 39360, Note_on_c, 9, 36, 127
7, 39600, Note_on_c, 9, 36, 0
7, 39600, Note_on_c, 9, 38, 127
7, 39720, Note_on_c, 9, 38, 0
7, 39720, Note_on_c, 9, 70, 127
7, 39780, Note_on_c, 9, 70, 0
7, 39780, Note_on_c, 9, 36, 127
7, 39780, Note_on_c, 9, 70, 127
7, 39840, Note_on_c, 9, 70, 0
7, 39840, Note_on_c, 9, 36, 0
7, 39840, Note_on_c, 9, 40, 127
7, 39840, Note_on_c, 9, 70, 127
7, 40080, Note_on_c, 9, 70, 0
7, 40080, Note_on_c, 9, 40, 0
7, 40080, Note_on_c, 9, 40, 127
7, 40140, Note_on_c, 9, 40, 0
7, 40140, Note_on_c, 9, 36, 127
7, 40200, Note_on_c, 9, 36, 0
7, 40200, Note_on_c, 9, 36, 127
7, 40320, Note_on_c, 9, 36, 0
7, 40320, Note_on_c, 9, 36, 127
7, 40320, Note_on_c, 9, 49, 127
7, 40560, Note_on_c, 9, 49, 0
7, 40560, Note_on_c, 9, 36, 0
7, 40560, Note_on_c, 9, 38, 127
7, 40680, Note_on_c, 9, 38, 0
7, 40680, Note_on_c, 9, 70, 127
7, 40740, Note_on_c, 9, 70, 0
7, 40740, Note_on_c, 9, 36, 127
7, 40740, Note_on_c, 9, 70, 127
7, 40800, Note_on_c, 9, 70, 0
7, 40800, Note_on_c, 9, 36, 0
7, 40800, Note_on_c, 9, 36, 127
7, 40800, Note_on_c, 9, 70, 127
7, 40980, Note_on_c, 9, 70, 0
7, 40980, Note_on_c, 9, 36, 0
7, 40980, Note_on_c, 9, 80, 127
7, 41040, Note_on_c, 9, 80, 0
7, 41040, Note_on_c, 9, 40, 127
7, 41160, Note_on_c, 9, 40, 0
7, 41160, Note_on_c, 9, 46, 127
7, 41280, Note_on_c, 9, 46, 0
7, 41280, Note_on_c, 9, 36, 127
7, 41520, Note_on_c, 9, 36, 0
7, 41520, Note_on_c, 9, 38, 127
7, 41640, Note_on_c, 9, 38, 0
7, 41640, Note_on_c, 9, 70, 127
7, 41700, Note_on_c, 9, 70, 0
7, 41700, Note_on_c, 9, 36, 127
7, 41700, Note_on_c, 9, 70, 127
7, 41760, Note_on_c, 9, 70, 0
7, 41760, Note_on_c, 9, 36, 0
7, 41760, Note_on_c, 9, 36, 127
7, 41760, Note_on_c, 9, 70, 127
7, 41940, Note_on_c, 9, 70, 0
7, 41940, Note_on_c, 9, 36, 0
7, 41940, Note_on_c, 9, 80, 127
7, 42000, Note_on_c, 9, 80, 0
7, 42000, Note_on_c, 9, 40, 127
7, 42120, Note_on_c, 9, 40, 0
7, 42120, Note_on_c, 9, 46, 127
7, 42240, Note_on_c, 9, 46, 0
7, 42240, Note_on_c, 9, 36, 127
7, 42480, Note_on_c, 9, 36, 0
7, 42480, Note_on_c, 9, 38, 127
7, 42600, Note_on_c, 9, 38, 0
7, 42600, Note_on_c, 9, 70, 127
7, 42660, Note_on_c, 9, 70, 0
7, 42660, Note_on_c, 9, 36, 127
7, 42660, Note_on_c, 9, 70, 127
7, 42720, Note_on_c, 9, 70, 0
7, 42720, Note_on_c, 9, 36, 0
7, 42720, Note_on_c, 9, 36, 127
7, 42720, Note_on_c, 9, 70, 127
7, 42900, Note_on_c, 9, 70, 0
7, 42900, Note_on_c, 9, 36, 0
7, 42900, Note_on_c, 9, 80, 127
7, 42960, Note_on_c, 9, 80, 0
7, 42960, Note_on_c, 9, 40, 127
7, 43080, Note_on_c, 9, 40, 0
7, 43080, Note_on_c, 9, 46, 127
7, 43200, Note_on_c, 9, 46, 0
7, 43200, Note_on_c, 9, 36, 127
7, 43440, Note_on_c, 9, 36, 0
7, 43440, Note_on_c, 9, 40, 127
7, 43680, Note_on_c, 9, 40, 0
7, 43680, Note_on_c, 9, 36, 127
7, 43800, Note_on_c, 9, 36, 0
7, 43800, Note_on_c, 9, 40, 127
7, 43920, Note_on_c, 9, 40, 0
7, 43920, Note_on_c, 9, 40, 127
7, 44040, Note_on_c, 9, 40, 0
7, 44040, Note_on_c, 9, 36, 127
7, 44160, Note_on_c, 9, 36, 0
7, 44160, Note_on_c, 9, 36, 127
7, 44160, Note_on_c, 9, 49, 127
7, 44400, Note_on_c, 9, 49, 0
7, 44400, Note_on_c, 9, 36, 0
7, 44400, Note_on_c, 9, 38, 127
7, 44520, Note_on_c, 9, 38, 0
7, 44520, Note_on_c, 9, 70, 127
7, 44580, Note_on_c, 9, 70, 0
7, 44580, Note_on_c, 9, 36, 127
7, 44580, Note_on_c, 9, 70, 127
7, 44640, Note_on_c, 9, 70, 0
7, 44640, Note_on_c, 9, 36, 0
7, 44640, Note_on_c, 9, 36, 127
7, 44640, Note_on_c, 9, 70, 127
7, 44820, Note_on_c, 9, 70, 0
7, 44820, Note_on_c, 9, 36, 0
7, 44820, Note_on_c, 9, 80, 127
7, 44880, Note_on_c, 9, 80, 0
7, 44880, Note_on_c, 9, 40, 127
7, 45000, Note_on_c, 9, 40, 0
7, 45000, Note_on_c, 9, 46, 127
7, 45120, Note_on_c, 9, 46, 0
7, 45120, Note_on_c, 9, 36, 127
7, 45360, Note_on_c, 9, 36, 0
7, 45360, Note_on_c, 9, 38, 127
7, 45480, Note_on_c, 9, 38, 0
7, 45480, Note_on_c, 9, 70, 127
7, 45540, Note_on_c, 9, 70, 0
7, 45540, Note_on_c, 9, 36, 127
7, 45540, Note_on_c, 9, 70, 127
7, 45600, Note_on_c, 9, 70, 0
7, 45600, Note_on_c, 9, 36, 0
7, 45600, Note_on_c, 9, 36, 127
7, 45600, Note_on_c, 9, 70, 127
7, 45780, Note_on_c, 9, 70, 0
7, 45780, Note_on_c, 9, 36, 0
7, 45780, Note_on_c, 9, 80, 127
7, 45840, Note_on_c, 9, 80, 0
7, 45840, Note_on_c, 9, 40, 127
7, 45960, Note_on_c, 9, 40, 0
7, 45960, Note_on_c, 9, 46, 127
7, 46080, Note_on_c, 9, 46, 0
7, 46080, Note_on_c, 9, 36, 127
7, 46320, Note_on_c, 9, 36, 0
7, 46320, Note_on_c, 9, 38, 127
7, 46440, Note_on_c, 9, 38, 0
7, 46440, Note_on_c, 9, 70, 127
7, 46500, Note_on_c, 9, 70, 0
7, 46500, Note_on_c, 9, 36, 127
7, 46500, Note_on_c, 9, 70, 127
7, 46560, Note_on_c, 9, 70, 0
7, 46560, Note_on_c, 9, 36, 0
7, 46560, Note_on_c, 9, 36, 127
7, 46560, Note_on_c, 9, 70, 127
7, 46740, Note_on_c, 9, 70, 0
7, 46740, Note_on_c, 9, 36, 0
7, 46740, Note_on_c, 9, 80, 127
7, 46800, Note_on_c, 9, 80, 0
7, 46800, Note_on_c, 9, 40, 127
7, 46920, Note_on_c, 9, 40, 0
7, 46920, Note_on_c, 9, 46, 127
7, 47040, Note_on_c, 9, 46, 0
7, 47040, Note_on_c, 9, 36, 127
7, 47280, Note_on_c, 9, 36, 0
7, 47280, Note_on_c, 9, 38, 127
7, 47400, Note_on_c, 9, 38, 0
7, 47400, Note_on_c, 9, 70, 127
7, 47460, Note_on_c, 9, 70, 0
7, 47460, Note_on_c, 9, 36, 127
7, 47460, Note_on_c, 9, 70, 127
7, 47520, Note_on_c, 9, 70, 0
7, 47520, Note_on_c, 9, 36, 0
7, 47520, Note_on_c, 9, 36, 127
7, 47520, Note_on_c, 9, 70, 127
7, 47700, Note_on_c, 9, 70, 0
7, 47700, Note_on_c, 9, 36, 0
7, 47700, Note_on_c, 9, 80, 127
7, 47760, Note_on_c, 9, 80, 0
7, 47760, Note_on_c, 9, 40, 127
7, 47760, Note_on_c, 9, 48, 127
7, 47820, Note_on_c, 9, 48, 0
7, 47820, Note_on_c, 9, 40, 0
7, 47820, Note_on_c, 9, 36, 127
7, 47820, Note_on_c, 9, 47, 127
7, 47880, Note_on_c, 9, 47, 0
7, 47880, Note_on_c, 9, 36, 0
7, 47880, Note_on_c, 9, 36, 127
7, 47880, Note_on_c, 9, 45, 127
7, 47940, Note_on_c, 9, 45, 0
7, 47940, Note_on_c, 9, 36, 0
7, 47940, Note_on_c, 9, 43, 127
7, 48000, Note_on_c, 9, 43, 0
7, 48000, Note_on_c, 9, 36, 127
7, 48000, Note_on_c, 9, 49, 127
7, 48240, Note_on_c, 9, 49, 0
7, 48240, Note_on_c, 9, 36, 0
7, 48240, Note_on_c, 9, 38, 127
7, 48360, Note_on_c, 9, 38, 0
7, 48360, Note_on_c, 9, 70, 127
7, 48420, Note_on_c, 9, 70, 0
7, 48420, Note_on_c, 9, 36, 127
7, 48420, Note_on_c, 9, 70, 127
7, 48480, Note_on_c, 9, 70, 0
7, 48480, Note_on_c, 9, 36, 0
7, 48480, Note_on_c, 9, 36, 127
7, 48480, Note_on_c, 9, 70, 127
7, 48660, Note_on_c, 9, 70, 0
7, 48660, Note_on_c, 9, 36, 0
7, 48660, Note_on_c, 9, 80, 127
7, 48720, Note_on_c, 9, 80, 0
7, 48720, Note_on_c, 9, 40, 127
7, 48840, Note_on_c, 9, 40, 0
7, 48840, Note_on_c, 9, 46, 127
7, 48960, Note_on_c, 9, 46, 0
7, 48960, Note_on_c, 9, 36, 127
7, 49200, Note_on_c, 9, 36, 0
7, 49200, Note_on_c, 9, 38, 127
7, 49320, Note_on_c, 9, 38, 0
7, 49320, Note_on_c, 9, 70, 127
7, 49380, Note_on_c, 9, 70, 0
7, 49380, Note_on_c, 9, 36, 127
7, 49380, Note_on_c, 9, 70, 127
7, 49440, Note_on_c, 9, 70, 0
7, 49440, Note_on_c, 9, 36, 0
7, 49440, Note_on_c, 9, 36, 127
7, 49440, Note_on_c, 9, 70, 127
7, 49620, Note_on_c, 9, 70, 0
7, 49620, Note_on_c, 9, 36, 0
7, 49620, Note_on_c, 9, 80, 127
7, 49680, Note_on_c, 9, 80, 0
7, 49680, Note_on_c, 9, 40, 127
7, 49800, Note_on_c, 9, 40, 0
7, 49800, Note_on_c, 9, 46, 127
7, 49920, Note_on_c, 9, 46, 0
7, 49920, Note_on_c, 9, 36, 127
7, 50160, Note_on_c, 9, 36, 0
7, 50160, Note_on_c, 9, 38, 127
7, 50280, Note_on_c, 9, 38, 0
7, 50280, Note_on_c, 9, 70, 127
7, 50340, Note_on_c, 9, 70, 0
7, 50340, Note_on_c, 9, 36, 127
7, 50340, Note_on_c, 9, 70, 127
7, 50400, Note_on_c, 9, 70, 0
7, 50400, Note_on_c, 9, 36, 0
7, 50400, Note_on_c, 9, 36, 127
7, 50400, Note_on_c, 9, 70, 127
7, 50580, Note_on_c, 9, 70, 0
7, 50580, Note_on_c, 9, 36, 0
7, 50580, Note_on_c, 9, 80, 127
7, 50640, Note_on_c, 9, 80, 0
7, 50640, Note_on_c, 9, 40, 127
7, 50760, Note_on_c, 9, 40, 0
7, 50760, Note_on_c, 9, 46, 127
7, 50880, Note_on_c, 9, 46, 0
7, 50880, Note_on_c, 9, 36, 127
7, 51120, Note_on_c, 9, 36, 0
7, 51120, Note_on_c, 9, 38, 127
7, 51240, Note_on_c, 9, 38, 0
7, 51240, Note_on_c, 9, 70, 127
7, 51300, Note_on_c, 9, 70, 0
7, 51300, Note_on_c, 9, 36, 127
7, 51300, Note_on_c, 9, 70, 127
7, 51360, Note_on_c, 9, 70, 0
7, 51360, Note_on_c, 9, 36, 0
7, 51360, Note_on_c, 9, 36, 127
7, 51360, Note_on_c, 9, 70, 127
7, 51540, Note_on_c, 9, 70, 0
7, 51540, Note_on_c, 9, 36, 0
7, 51540, Note_on_c, 9, 80, 127
7, 51600, Note_on_c, 9, 80, 0
7, 51600, Note_on_c, 9, 40, 127
7, 51840, Note_on_c, 9, 40, 0
7, 51840, Note_on_c, 9, 36, 127
7, 51840, Note_on_c, 9, 49, 127
7, 52080, Note_on_c, 9, 49, 0
7, 52080, Note_on_c, 9, 36, 0
7, 52080, Note_on_c, 9, 40, 127
7, 52200, Note_on_c, 9, 40, 0
7, 52200, Note_on_c, 9, 70, 127
7, 52260, Note_on_c, 9, 70, 0
7, 52260, Note_on_c, 9, 36, 127
7, 52260, Note_on_c, 9, 70, 127
7, 52320, Note_on_c, 9, 70, 0
7, 52320, Note_on_c, 9, 36, 0
7, 52320, Note_on_c, 9, 36, 127
7, 52320, Note_on_c, 9, 70, 127
7, 52500, Note_on_c, 9, 70, 0
7, 52500, Note_on_c, 9, 36, 0
7, 52500, Note_on_c, 9, 81, 127
7, 52560, Note_on_c, 9, 81, 0
7, 52560, Note_on_c, 9, 40, 127
7, 52680, Note_on_c, 9, 40, 0
7, 52680, Note_on_c, 9, 46, 127
7, 52800, Note_on_c, 9, 46, 0
7, 52800, Note_on_c, 9, 36, 127
7, 53040, Note_on_c, 9, 36, 0
7, 53040, Note_on_c, 9, 40, 127
7, 53100, Note_on_c, 9, 40, 0
7, 53280, Note_on_c, 9, 36, 127
7, 53280, Note_on_c, 9, 46, 127
7, 53460, Note_on_c, 9, 46, 0
7, 53460, Note_on_c, 9, 36, 0
7, 53460, Note_on_c, 9, 81, 127
7, 53520, Note_on_c, 9, 81, 0
7, 53520, Note_on_c, 9, 40, 127
7, 53580, Note_on_c, 9, 40, 0
7, 53580, Note_on_c, 9, 36, 127
7, 53640, Note_on_c, 9, 36, 0
7, 53640, Note_on_c, 9, 36, 127
7, 53760, Note_on_c, 9, 36, 0
7, 53760, Note_on_c, 9, 36, 127
7, 53760, Note_on_c, 9, 49, 127
7, 54000, Note_on_c, 9, 49, 0
7, 54000, Note_on_c, 9, 36, 0
7, 54000, Note_on_c, 9, 40, 127
7, 54120, Note_on_c, 9, 40, 0
7, 54120, Note_on_c, 9, 70, 127
7, 54180, Note_on_c, 9, 70, 0
7, 54180, Note_on_c, 9, 36, 127
7, 54180, Note_on_c, 9, 70, 127
7, 54240, Note_on_c, 9, 70, 0
7, 54240, Note_on_c, 9, 36, 0
7, 54240, Note_on_c, 9, 36, 127
7, 54240, Note_on_c, 9, 70, 127
7, 54420, Note_on_c, 9, 70, 0
7, 54420, Note_on_c, 9, 36, 0
7, 54420, Note_on_c, 9, 81, 127
7, 54480, Note_on_c, 9, 81, 0
7, 54480, Note_on_c, 9, 40, 127
7, 54600, Note_on_c, 9, 40, 0
7, 54600, Note_on_c, 9, 46, 127
7, 54720, Note_on_c, 9, 46, 0
7, 54720, Note_on_c, 9, 36, 127
7, 54960, Note_on_c, 9, 36, 0
7, 54960, Note_on_c, 9, 40, 127
7, 55080, Note_on_c, 9, 40, 0
7, 55080, Note_on_c, 9, 70, 127
7, 55140, Note_on_c, 9, 70, 0
7, 55140, Note_on_c, 9, 36, 127
7, 55140, Note_on_c, 9, 70, 127
7, 55200, Note_on_c, 9, 70, 0
7, 55200, Note_on_c, 9, 36, 0
7, 55200, Note_on_c, 9, 36, 127
7, 55200, Note_on_c, 9, 70, 127
7, 55380, Note_on_c, 9, 70, 0
7, 55380, Note_on_c, 9, 36, 0
7, 55380, Note_on_c, 9, 81, 127
7, 55440, Note_on_c, 9, 81, 0
7, 55440, Note_on_c, 9, 40, 127
7, 55500, Note_on_c, 9, 40, 0
7, 55500, Note_on_c, 9, 36, 127
7, 55560, Note_on_c, 9, 36, 0
7, 55560, Note_on_c, 9, 36, 127
7, 55680, Note_on_c, 9, 36, 0
7, 55680, Note_on_c, 9, 36, 127
7, 55680, Note_on_c, 9, 49, 127
7, 55920, Note_on_c, 9, 49, 0
7, 55920, Note_on_c, 9, 36, 0
7, 55920, Note_on_c, 9, 40, 127
7, 56040, Note_on_c, 9, 40, 0
7, 56040, Note_on_c, 9, 70, 127
7, 56100, Note_on_c, 9, 70, 0
7, 56100, Note_on_c, 9, 36, 127
7, 56100, Note_on_c, 9, 70, 127
7, 56160, Note_on_c, 9, 70, 0
7, 56160, Note_on_c, 9, 36, 0
7, 56160, Note_on_c, 9, 36, 127
7, 56160, Note_on_c, 9, 70, 127
7, 56340, Note_on_c, 9, 70, 0
7, 56340, Note_on_c, 9, 36, 0
7, 56340, Note_on_c, 9, 81, 127
7, 56400, Note_on_c, 9, 81, 0
7, 56400, Note_on_c, 9, 40, 127
7, 56520, Note_on_c, 9, 40, 0
7, 56520, Note_on_c, 9, 46, 127
7, 56640, Note_on_c, 9, 46, 0
7, 56640, Note_on_c, 9, 36, 127
7, 56880, Note_on_c, 9, 36, 0
7, 56880, Note_on_c, 9, 40, 127
7, 57000, Note_on_c, 9, 40, 0
7, 57000, Note_on_c, 9, 70, 127
7, 57060, Note_on_c, 9, 70, 0
7, 57060, Note_on_c, 9, 36, 127
7, 57060, Note_on_c, 9, 70, 127
7, 57120, Note_on_c, 9, 70, 0
7, 57120, Note_on_c, 9, 36, 0
7, 57120, Note_on_c, 9, 36, 127
7, 57120, Note_on_c, 9, 70, 127
7, 57300, Note_on_c, 9, 70, 0
7, 57300, Note_on_c, 9, 36, 0
7, 57300, Note_on_c, 9, 81, 127
7, 57360, Note_on_c, 9, 81, 0
7, 57360, Note_on_c, 9, 40, 127
7, 57360, Note_on_c, 9, 48, 127
7, 57420, Note_on_c, 9, 48, 0
7, 57420, Note_on_c, 9, 40, 0
7, 57420, Note_on_c, 9, 36, 127
7, 57420, Note_on_c, 9, 47, 127
7, 57480, Note_on_c, 9, 47, 0
7, 57480, Note_on_c, 9, 36, 0
7, 57480, Note_on_c, 9, 36, 127
7, 57480, Note_on_c, 9, 45, 127
7, 57540, Note_on_c, 9, 45, 0
7, 57540, Note_on_c, 9, 36, 0
7, 57540, Note_on_c, 9, 43, 127
7, 57600, Note_on_c, 9, 43, 0
7, 57600, Note_on_c, 9, 36, 127
7, 57600, Note_on_c, 9, 49, 127
7, 57840, Note_on_c, 9, 49, 0
7, 57840, Note_on_c, 9, 36, 0
7, 57840, Note_on_c, 9, 40, 127
7, 57960, Note_on_c, 9, 40, 0
7, 57960, Note_on_c, 9, 70, 127
7, 58020, Note_on_c, 9, 70, 0
7, 58020, Note_on_c, 9, 36, 127
7, 58020, Note_on_c, 9, 70, 127
7, 58080, Note_on_c, 9, 70, 0
7, 58080, Note_on_c, 9, 36, 0
7, 58080, Note_on_c, 9, 36, 127
7, 58080, Note_on_c, 9, 70, 127
7, 58260, Note_on_c, 9, 70, 0
7, 58260, Note_on_c, 9, 36, 0
7, 58260, Note_on_c, 9, 81, 127
7, 58320, Note_on_c, 9, 81, 0
7, 58320, Note_on_c, 9, 40, 127
7, 58440, Note_on_c, 9, 40, 0
7, 58440, Note_on_c, 9, 46, 127
7, 58560, Note_on_c, 9, 46, 0
7, 58560, Note_on_c, 9, 36, 127
7, 58800, Note_on_c, 9, 36, 0
7, 58800, Note_on_c, 9, 40, 127
7, 58980, Note_on_c, 9, 40, 0
7, 58980, Note_on_c, 9, 36, 127
7, 59040, Note_on_c, 9, 36, 0
7, 59040, Note_on_c, 9, 36, 127
7, 59160, Note_on_c, 9, 36, 0
7, 59160, Note_on_c, 9, 40, 127
7, 59220, Note_on_c, 9, 40, 0
7, 59220, Note_on_c, 9, 36, 127
7, 59280, Note_on_c, 9, 36, 0
7, 59280, Note_on_c, 9, 40, 127
7, 59280, Note_on_c, 9, 48, 127
7, 59340, Note_on_c, 9, 48, 0
7, 59340, Note_on_c, 9, 40, 0
7, 59340, Note_on_c, 9, 36, 127
7, 59340, Note_on_c, 9, 47, 127
7, 59400, Note_on_c, 9, 47, 0
7, 59400, Note_on_c, 9, 36, 0
7, 59400, Note_on_c, 9, 36, 127
7, 59400, Note_on_c, 9, 45, 127
7, 59460, Note_on_c, 9, 45, 0
7, 59460, Note_on_c, 9, 36, 0
7, 59460, Note_on_c, 9, 43, 127
7, 59520, Note_on_c, 9, 43, 0
7, 59520, Note_on_c, 9, 36, 127
7, 59520, Note_on_c, 9, 49, 127
7, 59760, Note_on_c, 9, 49, 0
7, 59760, Note_on_c, 9, 36, 0
7, 59760, Note_on_c, 9, 40, 127
7, 59880, Note_on_c, 9, 40, 0
7, 59880, Note_on_c, 9, 70, 127
7, 59940, Note_on_c, 9, 70, 0
7, 59940, Note_on_c, 9, 36, 127
7, 59940, Note_on_c, 9, 70, 127
7, 60000, Note_on_c, 9, 70, 0
7, 60000, Note_on_c, 9, 36, 0
7, 60000, Note_on_c, 9, 36, 127
7, 60000, Note_on_c, 9, 70, 127
7, 60180, Note_on_c, 9, 70, 0
7, 60180, Note_on_c, 9, 36, 0
7, 60180, Note_on_c, 9, 81, 127
7, 60240, Note_on_c, 9, 81, 0
7, 60240, Note_on_c, 9, 40, 127
7, 60360, Note_on_c, 9, 40, 0
7, 60360, Note_on_c, 9, 46, 127
7, 60480, Note_on_c, 9, 46, 0
7, 60480, Note_on_c, 9, 36, 127
7, 60720, Note_on_c, 9, 36, 0
7, 60720, Note_on_c, 9, 40, 127
7, 60780, Note_on_c, 9, 40, 0
7, 60960, Note_on_c, 9, 36, 127
7, 60960, Note_on_c, 9, 46, 127
7, 61140, Note_on_c, 9, 46, 0
7, 61140, Note_on_c, 9, 36, 0
7, 61140, Note_on_c, 9, 81, 127
7, 61200, Note_on_c, 9, 81, 0
7, 61200, Note_on_c, 9, 40, 127
7, 61278, Note_on_c, 9, 40, 0
7, 61278, Note_on_c, 9, 36, 127
7, 61360, Note_on_c, 9, 36, 0
7, 61360, Note_on_c, 9, 36, 127
7, 61440, Note_on_c, 9, 36, 0
7, 61440, Note_on_c, 9, 36, 127
7, 61440, Note_on_c, 9, 49, 127
7, 61680, Note_on_c, 9, 49, 0
7, 61680, Note_on_c, 9, 36, 0
7, 61680, Note_on_c, 9, 40, 127
7, 61800, Note_on_c, 9, 40, 0
7, 61800, Note_on_c, 9, 70, 127
7, 61860, Note_on_c, 9, 70, 0
7, 61860, Note_on_c, 9, 36, 127
7, 61860, Note_on_c, 9, 70, 127
7, 61920, Note_on_c, 9, 70, 0
7, 61920, Note_on_c, 9, 36, 0
7, 61920, Note_on_c, 9, 36, 127
7, 61920, Note_on_c, 9, 70, 127
7, 62100, Note_on_c, 9, 70, 0
7, 62100, Note_on_c, 9, 36, 0
7, 62100, Note_on_c, 9, 81, 127
7, 62160, Note_on_c, 9, 81, 0
7, 62160, Note_on_c, 9, 40, 127
7, 62280, Note_on_c, 9, 40, 0
7, 62280, Note_on_c, 9, 46, 127
7, 62400, Note_on_c, 9, 46, 0
7, 62400, Note_on_c, 9, 36, 127
7, 62640, Note_on_c, 9, 36, 0
7, 62640, Note_on_c, 9, 40, 127
7, 62700, Note_on_c, 9, 40, 0
7, 62700, Note_on_c, 9, 36, 127
7, 62760, Note_on_c, 9, 36, 0
7, 62760, Note_on_c, 9, 36, 127
7, 62880, Note_on_c, 9, 36, 0
7, 62880, Note_on_c, 9, 36, 127
7, 62940, Note_on_c, 9, 36, 0
7, 62940, Note_on_c, 9, 40, 127
7, 63000, Note_on_c, 9, 40, 0
7, 63000, Note_on_c, 9, 40, 127
7, 63120, Note_on_c, 9, 40, 0
7, 63120, Note_on_c, 9, 40, 127
7, 63180, Note_on_c, 9, 40, 0
7, 63180, Note_on_c, 9, 36, 127
7, 63240, Note_on_c, 9, 36, 0
7, 63240, Note_on_c, 9, 36, 127
7, 63360, Note_on_c, 9, 36, 0
7, 63360, Note_on_c, 9, 36, 127
7, 63360, Note_on_c, 9, 49, 127
7, 63600, Note_on_c, 9, 49, 0
7, 63600, Note_on_c, 9, 36, 0
7, 63600, Note_on_c, 9, 40, 127
7, 63720, Note_on_c, 9, 40, 0
7, 63720, Note_on_c, 9, 70, 127
7, 63780, Note_on_c, 9, 70, 0
7, 63780, Note_on_c, 9, 36, 127
7, 63780, Note_on_c, 9, 70, 127
7, 63840, Note_on_c, 9, 70, 0
7, 63840, Note_on_c, 9, 36, 0
7, 63840, Note_on_c, 9, 36, 127
7, 63840, Note_on_c, 9, 70, 127
7, 64020, Note_on_c, 9, 70, 0
7, 64020, Note_on_c, 9, 36, 0
7, 64020, Note_on_c, 9, 81, 127
7, 64080, Note_on_c, 9, 81, 0
7, 64080, Note_on_c, 9, 40, 127
7, 64200, Note_on_c, 9, 40, 0
7, 64200, Note_on_c, 9, 46, 127
7, 64320, Note_on_c, 9, 46, 0
7, 64320, Note_on_c, 9, 36, 127
7, 64560, Note_on_c, 9, 36, 0
7, 64560, Note_on_c, 9, 40, 127
7, 64680, Note_on_c, 9, 40, 0
7, 64680, Note_on_c, 9, 70, 127
7, 64740, Note_on_c, 9, 70, 0
7, 64740, Note_on_c, 9, 36, 127
7, 64740, Note_on_c, 9, 70, 127
7, 64800, Note_on_c, 9, 70, 0
7, 64800, Note_on_c, 9, 36, 0
7, 64800, Note_on_c, 9, 36, 127
7, 64800, Note_on_c, 9, 70, 127
7, 64980, Note_on_c, 9, 70, 0
7, 64980, Note_on_c, 9, 36, 0
7, 64980, Note_on_c, 9, 81, 127
7, 65040, Note_on_c, 9, 81, 0
7, 65040, Note_on_c, 9, 40, 127
7, 65040, Note_on_c, 9, 48, 127
7, 65100, Note_on_c, 9, 48, 0
7, 65100, Note_on_c, 9, 40, 0
7, 65100, Note_on_c, 9, 36, 127
7, 65100, Note_on_c, 9, 47, 127
7, 65160, Note_on_c, 9, 47, 0
7, 65160, Note_on_c, 9, 36, 0
7, 65160, Note_on_c, 9, 36, 127
7, 65160, Note_on_c, 9, 45, 127
7, 65220, Note_on_c, 9, 45, 0
7, 65220, Note_on_c, 9, 36, 0
7, 65220, Note_on_c, 9, 43, 127
7, 65280, Note_on_c, 9, 43, 0
7, 65280, Note_on_c, 9, 36, 127
7, 65280, Note_on_c, 9, 49, 127
7, 65520, Note_on_c, 9, 49, 0
7, 65520, Note_on_c, 9, 36, 0
7, 65520, Note_on_c, 9, 40, 127
7, 65640, Note_on_c, 9, 40, 0
7, 65640, Note_on_c, 9, 70, 127
7, 65700, Note_on_c, 9, 70, 0
7, 65700, Note_on_c, 9, 36, 127
7, 65700, Note_on_c, 9, 70, 127
7, 65760, Note_on_c, 9, 70, 0
7, 65760, Note_on_c, 9, 36, 0
7, 65760, Note_on_c, 9, 36, 127
7, 65760, Note_on_c, 9, 70, 127
7, 65940, Note_on_c, 9, 70, 0
7, 65940, Note_on_c, 9, 36, 0
7, 65940, Note_on_c, 9, 81, 127
7, 66000, Note_on_c, 9, 81, 0
7, 66000, Note_on_c, 9, 40, 127
7, 66120, Note_on_c, 9, 40, 0
7, 66120, Note_on_c, 9, 46, 127
7, 66240, Note_on_c, 9, 46, 0
7, 66240, Note_on_c, 9, 36, 127
7, 66480, Note_on_c, 9, 36, 0
7, 66480, Note_on_c, 9, 40, 127
7, 66660, Note_on_c, 9, 40, 0
7, 66660, Note_on_c, 9, 36, 127
7, 66720, Note_on_c, 9, 36, 0
7, 66720, Note_on_c, 9, 36, 127
7, 67200, Note_on_c, 9, 36, 0
7, 67440, Note_on_c, 9, 44, 127
7, 67680, Note_on_c, 9, 44, 0
7, 67920, Note_on_c, 9, 44, 127
7, 68160, Note_on_c, 9, 44, 0
7, 68400, Note_on_c, 9, 44, 127
7, 68640, Note_on_c, 9, 44, 0
7, 68880, Note_on_c, 9, 44, 127
7, 69120, Note_on_c, 9, 44, 0
7, 69360, Note_on_c, 9, 44, 127
7, 69600, Note_on_c, 9, 44, 0
7, 69840, Note_on_c, 9, 44, 127
7, 70080, Note_on_c, 9, 44, 0
7, 70080, End_track
8, 0, Start_track
8, 0, MIDI_port, 0
8, 0, Program_c, 12, 8
8, 0, Control_c, 12, 7, 127
8, 3120, Note_on_c, 12, 75, 127
8, 3360, Note_on_c, 12, 75, 0
8, 3360, Note_on_c, 12, 68, 127
8, 3600, Note_on_c, 12, 68, 0
8, 3600, Note_on_c, 12, 72, 127
8, 3840, Note_on_c, 12, 72, 0
8, 3840, Note_on_c, 12, 73, 127
8, 4800, Note_on_c, 12, 73, 0
8, 18480, Note_on_c, 12, 75, 127
8, 18720, Note_on_c, 12, 75, 0
8, 18720, Note_on_c, 12, 68, 127
8, 18960, Note_on_c, 12, 68, 0
8, 18960, Note_on_c, 12, 72, 127
8, 19200, Note_on_c, 12, 72, 0
8, 19200, Note_on_c, 12, 73, 127
8, 20160, Note_on_c, 12, 73, 0
8, 33840, Note_on_c, 12, 75, 127
8, 34080, Note_on_c, 12, 75, 0
8, 34080, Note_on_c, 12, 68, 127
8, 34320, Note_on_c, 12, 68, 0
8, 34320, Note_on_c, 12, 72, 127
8, 34560, Note_on_c, 12, 72, 0
8, 34560, Note_on_c, 12, 73, 127
8, 35520, Note_on_c, 12, 73, 0
8, 35520, End_track
9, 0, Start_track
9, 0, MIDI_port, 0
9, 0, Program_c, 8, 97
9, 0, Control_c, 8, 7, 127
9, 13440, Note_on_c, 8, 67, 127
9, 13560, Note_on_c, 8, 67, 0
9, 13560, Note_on_c, 8, 68, 127
9, 13920, Note_on_c, 8, 68, 0
9, 13920, Note_on_c, 8, 67, 127
9, 14040, Note_on_c, 8, 67, 0
9, 14040, Note_on_c, 8, 68, 127
9, 14160, Note_on_c, 8, 68, 0
9, 14160, Note_on_c, 8, 70, 127
9, 14280, Note_on_c, 8, 70, 0
9, 14280, Note_on_c, 8, 67, 127
9, 14760, Note_on_c, 8, 67, 0
9, 14760, Note_on_c, 8, 68, 127
9, 15360, Note_on_c, 8, 68, 0
9, 15360, Note_on_c, 8, 72, 127
9, 15480, Note_on_c, 8, 72, 0
9, 15480, Note_on_c, 8, 70, 127
9, 15540, Note_on_c, 8, 70, 0
9, 15540, Note_on_c, 8, 68, 127
9, 15600, Note_on_c, 8, 68, 0
9, 15600, Note_on_c, 8, 63, 127
9, 15840, Note_on_c, 8, 63, 0
9, 15840, Note_on_c, 8, 67, 127
9, 15960, Note_on_c, 8, 67, 0
9, 15960, Note_on_c, 8, 68, 127
9, 16080, Note_on_c, 8, 68, 0
9, 16080, Note_on_c, 8, 70, 127
9, 16200, Note_on_c, 8, 70, 0
9, 16200, Note_on_c, 8, 65, 127
9, 17280, Note_on_c, 8, 65, 0
9, 17280, Note_on_c, 8, 67, 127
9, 17400, Note_on_c, 8, 67, 0
9, 17400, Note_on_c, 8, 68, 127
9, 17700, Note_on_c, 8, 68, 0
9, 17700, Note_on_c, 8, 67, 127
9, 17760, Note_on_c, 8, 67, 0
9, 17760, Note_on_c, 8, 67, 127
9, 17880, Note_on_c, 8, 67, 0
9, 17880, Note_on_c, 8, 68, 127
9, 18000, Note_on_c, 8, 68, 0
9, 18000, Note_on_c, 8, 70, 127
9, 18120, Note_on_c, 8, 70, 0
9, 18120, Note_on_c, 8, 67, 127
9, 18600, Note_on_c, 8, 67, 0
9, 18600, Note_on_c, 8, 70, 127
9, 18720, Note_on_c, 8, 70, 0
9, 18720, Note_on_c, 8, 68, 127
9, 19020, Note_on_c, 8, 68, 0
9, 19020, Note_on_c, 8, 68, 127
9, 19080, Note_on_c, 8, 68, 0
9, 19080, Note_on_c, 8, 70, 127
9, 19200, Note_on_c, 8, 70, 0
9, 19200, Note_on_c, 8, 70, 127
9, 19260, Note_on_c, 8, 70, 0
9, 19260, Note_on_c, 8, 70, 127
9, 19320, Note_on_c, 8, 70, 0
9, 19320, Note_on_c, 8, 70, 127
9, 19980, Note_on_c, 8, 70, 0
9, 19980, Note_on_c, 8, 68, 127
9, 20040, Note_on_c, 8, 68, 0
9, 20040, Note_on_c, 8, 72, 127
9, 20280, Note_on_c, 8, 72, 0
9, 20280, Note_on_c, 8, 70, 127
9, 20340, Note_on_c, 8, 70, 0
9, 20340, Note_on_c, 8, 68, 127
9, 20400, Note_on_c, 8, 68, 0
9, 20400, Note_on_c, 8, 70, 127
9, 20640, Note_on_c, 8, 70, 0
9, 20640, Note_on_c, 8, 72, 127
9, 20880, Note_on_c, 8, 72, 0
9, 20880, Note_on_c, 8, 72, 127
9, 21120, Note_on_c, 8, 72, 0
9, 21120, Note_on_c, 8, 70, 127
9, 21240, Note_on_c, 8, 70, 0
9, 21240, Note_on_c, 8, 68, 127
9, 21360, Note_on_c, 8, 68, 0
9, 21360, Note_on_c, 8, 68, 127
9, 21480, Note_on_c, 8, 68, 0
9, 21480, Note_on_c, 8, 67, 127
9, 21600, Note_on_c, 8, 67, 0
9, 21600, Note_on_c, 8, 68, 127
9, 21720, Note_on_c, 8, 68, 0
9, 21720, Note_on_c, 8, 67, 127
9, 21840, Note_on_c, 8, 67, 0
9, 21840, Note_on_c, 8, 68, 127
9, 21960, Note_on_c, 8, 68, 0
9, 21960, Note_on_c, 8, 70, 127
9, 22080, Note_on_c, 8, 70, 0
9, 22080, Note_on_c, 8, 72, 127
9, 22200, Note_on_c, 8, 72, 0
9, 22200, Note_on_c, 8, 70, 127
9, 22260, Note_on_c, 8, 70, 0
9, 22260, Note_on_c, 8, 68, 127
9, 22560, Note_on_c, 8, 68, 0
9, 22560, Note_on_c, 8, 72, 127
9, 22800, Note_on_c, 8, 72, 0
9, 22800, Note_on_c, 8, 72, 127
9, 23040, Note_on_c, 8, 72, 0
9, 23040, Note_on_c, 8, 70, 127
9, 23160, Note_on_c, 8, 70, 0
9, 23160, Note_on_c, 8, 68, 127
9, 23280, Note_on_c, 8, 68, 0
9, 23280, Note_on_c, 8, 68, 127
9, 23400, Note_on_c, 8, 68, 0
9, 23400, Note_on_c, 8, 67, 127
9, 23520, Note_on_c, 8, 67, 0
9, 23520, Note_on_c, 8, 68, 127
9, 23640, Note_on_c, 8, 68, 0
9, 23640, Note_on_c, 8, 67, 127
9, 23760, Note_on_c, 8, 67, 0
9, 23760, Note_on_c, 8, 68, 127
9, 23880, Note_on_c, 8, 68, 0
9, 23880, Note_on_c, 8, 70, 127
9, 24000, Note_on_c, 8, 70, 0
9, 24000, Note_on_c, 8, 65, 127
9, 24120, Note_on_c, 8, 65, 0
9, 24120, Note_on_c, 8, 68, 127
9, 24480, Note_on_c, 8, 68, 0
9, 24480, Note_on_c, 8, 72, 127
9, 24720, Note_on_c, 8, 72, 0
9, 24720, Note_on_c, 8, 72, 127
9, 24960, Note_on_c, 8, 72, 0
9, 24960, Note_on_c, 8, 70, 127
9, 25080, Note_on_c, 8, 70, 0
9, 25080, Note_on_c, 8, 68, 127
9, 25200, Note_on_c, 8, 68, 0
9, 25200, Note_on_c, 8, 68, 127
9, 25320, Note_on_c, 8, 68, 0
9, 25320, Note_on_c, 8, 67, 127
9, 25380, Note_on_c, 8, 67, 0
9, 25380, Note_on_c, 8, 68, 127
9, 25440, Note_on_c, 8, 68, 0
9, 25440, Note_on_c, 8, 68, 127
9, 25560, Note_on_c, 8, 68, 0
9, 25560, Note_on_c, 8, 67, 127
9, 25680, Note_on_c, 8, 67, 0
9, 25680, Note_on_c, 8, 68, 127
9, 25800, Note_on_c, 8, 68, 0
9, 25800, Note_on_c, 8, 70, 127
9, 25920, Note_on_c, 8, 70, 0
9, 25920, Note_on_c, 8, 72, 127
9, 26040, Note_on_c, 8, 72, 0
9, 26040, Note_on_c, 8, 70, 127
9, 26100, Note_on_c, 8, 70, 0
9, 26100, Note_on_c, 8, 68, 127
9, 26340, Note_on_c, 8, 68, 0
9, 26340, Note_on_c, 8, 65, 127
9, 26400, Note_on_c, 8, 65, 0
9, 26400, Note_on_c, 8, 72, 127
9, 26460, Note_on_c, 8, 72, 0
9, 26460, Note_on_c, 8, 70, 127
9, 26718, Note_on_c, 8, 70, 0
9, 26718, Note_on_c, 8, 68, 127
9, 26800, Note_on_c, 8, 68, 0
9, 26800, Note_on_c, 8, 70, 127
9, 26880, Note_on_c, 8, 70, 0
9, 26880, Note_on_c, 8, 70, 127
9, 27660, Note_on_c, 8, 70, 0
9, 27660, Note_on_c, 8, 68, 127
9, 27720, Note_on_c, 8, 68, 0
9, 27720, Note_on_c, 8, 72, 127
9, 27840, Note_on_c, 8, 72, 0
9, 27840, Note_on_c, 8, 70, 127
9, 28320, Note_on_c, 8, 70, 0
9, 28320, Note_on_c, 8, 73, 127
9, 28380, Note_on_c, 8, 73, 0
9, 28380, Note_on_c, 8, 73, 127
9, 28440, Note_on_c, 8, 73, 0
9, 28440, Note_on_c, 8, 72, 127
9, 28500, Note_on_c, 8, 72, 0
9, 28500, Note_on_c, 8, 72, 127
9, 28560, Note_on_c, 8, 72, 0
9, 28560, Note_on_c, 8, 68, 127
9, 28620, Note_on_c, 8, 68, 0
9, 28620, Note_on_c, 8, 68, 127
9, 28680, Note_on_c, 8, 68, 0
9, 28680, Note_on_c, 8, 65, 127
9, 28740, Note_on_c, 8, 65, 0
9, 28740, Note_on_c, 8, 70, 127
9, 28860, Note_on_c, 8, 70, 0
9, 28860, Note_on_c, 8, 68, 127
9, 29040, Note_on_c, 8, 68, 0
9, 36000, Note_on_c, 8, 72, 127
9, 36240, Note_on_c, 8, 72, 0
9, 36240, Note_on_c, 8, 72, 127
9, 36480, Note_on_c, 8, 72, 0
9, 36480, Note_on_c, 8, 70, 127
9, 36600, Note_on_c, 8, 70, 0
9, 36600, Note_on_c, 8, 68, 127
9, 36720, Note_on_c, 8, 68, 0
9, 36720, Note_on_c, 8, 68, 127
9, 36840, Note_on_c, 8, 68, 0
9, 36840, Note_on_c, 8, 67, 127
9, 36960, Note_on_c, 8, 67, 0
9, 36960, Note_on_c, 8, 68, 127
9, 37080, Note_on_c, 8, 68, 0
9, 37080, Note_on_c, 8, 67, 127
9, 37200, Note_on_c, 8, 67, 0
9, 37200, Note_on_c, 8, 68, 127
9, 37320, Note_on_c, 8, 68, 0
9, 37320, Note_on_c, 8, 70, 127
9, 37440, Note_on_c, 8, 70, 0
9, 37440, Note_on_c, 8, 72, 127
9, 37560, Note_on_c, 8, 72, 0
9, 37560, Note_on_c, 8, 70, 127
9, 37620, Note_on_c, 8, 70, 0
9, 37620, Note_on_c, 8, 68, 127
9, 37920, Note_on_c, 8, 68, 0
9, 37920, Note_on_c, 8, 72, 127
9, 38160, Note_on_c, 8, 72, 0
9, 38160, Note_on_c, 8, 72, 127
9, 38400, Note_on_c, 8, 72, 0
9, 38400, Note_on_c, 8, 70, 127
9, 38520, Note_on_c, 8, 70, 0
9, 38520, Note_on_c, 8, 68, 127
9, 38640, Note_on_c, 8, 68, 0
9, 38640, Note_on_c, 8, 68, 127
9, 38760, Note_on_c, 8, 68, 0
9, 38760, Note_on_c, 8, 67, 127
9, 38880, Note_on_c, 8, 67, 0
9, 38880, Note_on_c, 8, 68, 127
9, 39000, Note_on_c, 8, 68, 0
9, 39000, Note_on_c, 8, 67, 127
9, 39120, Note_on_c, 8, 67, 0
9, 39120, Note_on_c, 8, 68, 127
9, 39240, Note_on_c, 8, 68, 0
9, 39240, Note_on_c, 8, 70, 127
9, 39360, Note_on_c, 8, 70, 0
9, 39360, Note_on_c, 8, 65, 127
9, 39480, Note_on_c, 8, 65, 0
9, 39480, Note_on_c, 8, 68, 127
9, 39840, Note_on_c, 8, 68, 0
9, 39840, Note_on_c, 8, 72, 127
9, 40080, Note_on_c, 8, 72, 0
9, 40080, Note_on_c, 8, 72, 127
9, 40320, Note_on_c, 8, 72, 0
9, 40320, Note_on_c, 8, 70, 127
9, 40440, Note_on_c, 8, 70, 0
9, 40440, Note_on_c, 8, 68, 127
9, 40560, Note_on_c, 8, 68, 0
9, 40560, Note_on_c, 8, 68, 127
9, 40680, Note_on_c, 8, 68, 0
9, 40680, Note_on_c, 8, 67, 127
9, 40740, Note_on_c, 8, 67, 0
9, 40740, Note_on_c, 8, 68, 127
9, 40800, Note_on_c, 8, 68, 0
9, 40800, Note_on_c, 8, 68, 127
9, 40920, Note_on_c, 8, 68, 0
9, 40920, Note_on_c, 8, 67, 127
9, 41040, Note_on_c, 8, 67, 0
9, 41040, Note_on_c, 8, 68, 127
9, 41160, Note_on_c, 8, 68, 0
9, 41160, Note_on_c, 8, 70, 127
9, 41280, Note_on_c, 8, 70, 0
9, 41280, Note_on_c, 8, 72, 127
9, 41400, Note_on_c, 8, 72, 0
9, 41400, Note_on_c, 8, 70, 127
9, 41460, Note_on_c, 8, 70, 0
9, 41460, Note_on_c, 8, 68, 127
9, 41700, Note_on_c, 8, 68, 0
9, 41700, Note_on_c, 8, 65, 127
9, 41760, Note_on_c, 8, 65, 0
9, 41760, Note_on_c, 8, 72, 127
9, 41820, Note_on_c, 8, 72, 0
9, 41820, Note_on_c, 8, 70, 127
9, 42078, Note_on_c, 8, 70, 0
9, 42078, Note_on_c, 8, 68, 127
9, 42160, Note_on_c, 8, 68, 0
9, 42160, Note_on_c, 8, 70, 127
9, 42240, Note_on_c, 8, 70, 0
9, 42240, Note_on_c, 8, 70, 127
9, 43020, Note_on_c, 8, 70, 0
9, 43020, Note_on_c, 8, 68, 127
9, 43080, Note_on_c, 8, 68, 0
9, 43080, Note_on_c, 8, 72, 127
9, 43200, Note_on_c, 8, 72, 0
9, 43200, Note_on_c, 8, 70, 127
9, 43680, Note_on_c, 8, 70, 0
9, 43680, Note_on_c, 8, 73, 127
9, 43740, Note_on_c, 8, 73, 0
9, 43740, Note_on_c, 8, 73, 127
9, 43800, Note_on_c, 8, 73, 0
9, 43800, Note_on_c, 8, 72, 127
9, 43860, Note_on_c, 8, 72, 0
9, 43860, Note_on_c, 8, 72, 127
9, 43920, Note_on_c, 8, 72, 0
9, 43920, Note_on_c, 8, 68, 127
9, 43980, Note_on_c, 8, 68, 0
9, 43980, Note_on_c, 8, 68, 127
9, 44040, Note_on_c, 8, 68, 0
9, 44040, Note_on_c, 8, 65, 127
9, 44100, Note_on_c, 8, 65, 0
9, 44100, Note_on_c, 8, 70, 127
9, 44220, Note_on_c, 8, 70, 0
9, 44220, Note_on_c, 8, 70, 127
9, 44400, Note_on_c, 8, 70, 0
9, 48120, Note_on_c, 8, 72, 127
9, 48360, Note_on_c, 8, 72, 0
9, 48360, Note_on_c, 8, 68, 127
9, 48480, Note_on_c, 8, 68, 0
9, 48480, Note_on_c, 8, 72, 127
9, 48600, Note_on_c, 8, 72, 0
9, 48600, Note_on_c, 8, 70, 127
9, 48720, Note_on_c, 8, 70, 0
9, 48720, Note_on_c, 8, 72, 127
9, 48840, Note_on_c, 8, 72, 0
9, 48840, Note_on_c, 8, 67, 127
9, 48900, Note_on_c, 8, 67, 0
9, 48900, Note_on_c, 8, 68, 127
9, 48960, Note_on_c, 8, 68, 0
9, 48960, Note_on_c, 8, 70, 127
9, 49080, Note_on_c, 8, 70, 0
9, 49080, Note_on_c, 8, 70, 127
9, 49140, Note_on_c, 8, 70, 0
9, 49140, Note_on_c, 8, 68, 127
9, 49320, Note_on_c, 8, 68, 0
9, 49320, Note_on_c, 8, 67, 127
9, 49380, Note_on_c, 8, 67, 0
9, 49380, Note_on_c, 8, 70, 127
9, 49560, Note_on_c, 8, 70, 0
9, 49560, Note_on_c, 8, 68, 127
9, 49920, Note_on_c, 8, 68, 0
9, 49920, Note_on_c, 8, 65, 127
9, 50040, Note_on_c, 8, 65, 0
9, 50040, Note_on_c, 8, 68, 127
9, 50100, Note_on_c, 8, 68, 0
9, 50100, Note_on_c, 8, 68, 127
9, 50280, Note_on_c, 8, 68, 0
9, 50280, Note_on_c, 8, 72, 127
9, 50400, Note_on_c, 8, 72, 0
9, 50400, Note_on_c, 8, 72, 127
9, 50520, Note_on_c, 8, 72, 0
9, 50520, Note_on_c, 8, 70, 127
9, 50580, Note_on_c, 8, 70, 0
9, 50580, Note_on_c, 8, 68, 127
9, 50718, Note_on_c, 8, 68, 0
9, 50718, Note_on_c, 8, 68, 127
9, 50800, Note_on_c, 8, 68, 0
9, 50800, Note_on_c, 8, 72, 127
9, 50880, Note_on_c, 8, 72, 0
9, 50880, Note_on_c, 8, 72, 127
9, 51000, Note_on_c, 8, 72, 0
9, 51000, Note_on_c, 8, 70, 127
9, 51360, Note_on_c, 8, 70, 0
9, 51360, Note_on_c, 8, 75, 127
9, 51600, Note_on_c, 8, 75, 0
9, 51600, Note_on_c, 8, 75, 127
9, 51840, Note_on_c, 8, 75, 0
9, 51840, Note_on_c, 8, 73, 127
9, 51960, Note_on_c, 8, 73, 0
9, 51960, Note_on_c, 8, 71, 127
9, 52080, Note_on_c, 8, 71, 0
9, 52080, Note_on_c, 8, 71, 127
9, 52200, Note_on_c, 8, 71, 0
9, 52200, Note_on_c, 8, 70, 127
9, 52320, Note_on_c, 8, 70, 0
9, 52320, Note_on_c, 8, 71, 127
9, 52440, Note_on_c, 8, 71, 0
9, 52440, Note_on_c, 8, 70, 127
9, 52560, Note_on_c, 8, 70, 0
9, 52560, Note_on_c, 8, 71, 127
9, 52680, Note_on_c, 8, 71, 0
9, 52680, Note_on_c, 8, 73, 127
9, 52800, Note_on_c, 8, 73, 0
9, 52800, Note_on_c, 8, 75, 127
9, 52920, Note_on_c, 8, 75, 0
9, 52920, Note_on_c, 8, 73, 127
9, 52980, Note_on_c, 8, 73, 0
9, 52980, Note_on_c, 8, 71, 127
9, 53280, Note_on_c, 8, 71, 0
9, 53280, Note_on_c, 8, 75, 127
9, 53520, Note_on_c, 8, 75, 0
9, 53520, Note_on_c, 8, 75, 127
9, 53760, Note_on_c, 8, 75, 0
9, 53760, Note_on_c, 8, 73, 127
9, 53880, Note_on_c, 8, 73, 0
9, 53880, Note_on_c, 8, 71, 127
9, 54000, Note_on_c, 8, 71, 0
9, 54000, Note_on_c, 8, 71, 127
9, 54120, Note_on_c, 8, 71, 0
9, 54120, Note_on_c, 8, 70, 127
9, 54240, Note_on_c, 8, 70, 0
9, 54240, Note_on_c, 8, 71, 127
9, 54360, Note_on_c, 8, 71, 0
9, 54360, Note_on_c, 8, 70, 127
9, 54480, Note_on_c, 8, 70, 0
9, 54480, Note_on_c, 8, 71, 127
9, 54600, Note_on_c, 8, 71, 0
9, 54600, Note_on_c, 8, 73, 127
9, 54720, Note_on_c, 8, 73, 0
9, 54720, Note_on_c, 8, 68, 127
9, 54840, Note_on_c, 8, 68, 0
9, 54840, Note_on_c, 8, 71, 127
9, 55200, Note_on_c, 8, 71, 0
9, 55200, Note_on_c, 8, 75, 127
9, 55440, Note_on_c, 8, 75, 0
9, 55440, Note_on_c, 8, 75, 127
9, 55680, Note_on_c, 8, 75, 0
9, 55680, Note_on_c, 8, 73, 127
9, 55800, Note_on_c, 8, 73, 0
9, 55800, Note_on_c, 8, 71, 127
9, 55920, Note_on_c, 8, 71, 0
9, 55920, Note_on_c, 8, 71, 127
9, 56040, Note_on_c, 8, 71, 0
9, 56040, Note_on_c, 8, 70, 127
9, 56100, Note_on_c, 8, 70, 0
9, 56100, Note_on_c, 8, 71, 127
9, 56160, Note_on_c, 8, 71, 0
9, 56160, Note_on_c, 8, 71, 127
9, 56280, Note_on_c, 8, 71, 0
9, 56280, Note_on_c, 8, 70, 127
9, 56400, Note_on_c, 8, 70, 0
9, 56400, Note_on_c, 8, 71, 127
9, 56520, Note_on_c, 8, 71, 0
9, 56520, Note_on_c, 8, 73, 127
9, 56640, Note_on_c, 8, 73, 0
9, 56640, Note_on_c, 8, 75, 127
9, 56760, Note_on_c, 8, 75, 0
9, 56760, Note_on_c, 8, 73, 127
9, 56820, Note_on_c, 8, 73, 0
9, 56820, Note_on_c, 8, 71, 127
9, 57120, Note_on_c, 8, 71, 0
9, 57438, Note_on_c, 8, 71, 127
9, 57520, Note_on_c, 8, 71, 0
9, 57520, Note_on_c, 8, 73, 127
9, 57600, Note_on_c, 8, 73, 0
9, 57600, Note_on_c, 8, 73, 127
9, 58380, Note_on_c, 8, 73, 0
9, 58380, Note_on_c, 8, 71, 127
9, 58440, Note_on_c, 8, 71, 0
9, 58440, Note_on_c, 8, 75, 127
9, 58560, Note_on_c, 8, 75, 0
9, 58560, Note_on_c, 8, 73, 127
9, 59040, Note_on_c, 8, 73, 0
9, 59040, Note_on_c, 8, 75, 127
9, 59280, Note_on_c, 8, 75, 0
9, 59280, Note_on_c, 8, 75, 127
9, 59520, Note_on_c, 8, 75, 0
9, 59520, Note_on_c, 8, 73, 127
9, 59640, Note_on_c, 8, 73, 0
9, 59640, Note_on_c, 8, 71, 127
9, 59760, Note_on_c, 8, 71, 0
9, 59760, Note_on_c, 8, 71, 127
9, 59880, Note_on_c, 8, 71, 0
9, 59880, Note_on_c, 8, 70, 127
9, 60000, Note_on_c, 8, 70, 0
9, 60000, Note_on_c, 8, 71, 127
9, 60120, Note_on_c, 8, 71, 0
9, 60120, Note_on_c, 8, 70, 127
9, 60240, Note_on_c, 8, 70, 0
9, 60240, Note_on_c, 8, 71, 127
9, 60360, Note_on_c, 8, 71, 0
9, 60360, Note_on_c, 8, 73, 127
9, 60480, Note_on_c, 8, 73, 0
9, 60480, Note_on_c, 8, 75, 127
9, 60600, Note_on_c, 8, 75, 0
9, 60600, Note_on_c, 8, 73, 127
9, 60660, Note_on_c, 8, 73, 0
9, 60660, Note_on_c, 8, 71, 127
9, 60960, Note_on_c, 8, 71, 0
9, 60960, Note_on_c, 8, 75, 127
9, 61200, Note_on_c, 8, 75, 0
9, 61200, Note_on_c, 8, 75, 127
9, 61440, Note_on_c, 8, 75, 0
9, 61440, Note_on_c, 8, 73, 127
9, 61560, Note_on_c, 8, 73, 0
9, 61560, Note_on_c, 8, 71, 127
9, 61680, Note_on_c, 8, 71, 0
9, 61680, Note_on_c, 8, 71, 127
9, 61800, Note_on_c, 8, 71, 0
9, 61800, Note_on_c, 8, 70, 127
9, 61920, Note_on_c, 8, 70, 0
9, 61920, Note_on_c, 8, 71, 127
9, 62040, Note_on_c, 8, 71, 0
9, 62040, Note_on_c, 8, 70, 127
9, 62160, Note_on_c, 8, 70, 0
9, 62160, Note_on_c, 8, 71, 127
9, 62280, Note_on_c, 8, 71, 0
9, 62280, Note_on_c, 8, 73, 127
9, 62400, Note_on_c, 8, 73, 0
9, 62400, Note_on_c, 8, 68, 127
9, 62520, Note_on_c, 8, 68, 0
9, 62520, Note_on_c, 8, 71, 127
9, 62880, Note_on_c, 8, 71, 0
9, 62880, Note_on_c, 8, 75, 127
9, 63120, Note_on_c, 8, 75, 0
9, 63120, Note_on_c, 8, 75, 127
9, 63360, Note_on_c, 8, 75, 0
9, 63360, Note_on_c, 8, 73, 127
9, 63480, Note_on_c, 8, 73, 0
9, 63480, Note_on_c, 8, 71, 127
9, 63600, Note_on_c, 8, 71, 0
9, 63600, Note_on_c, 8, 71, 127
9, 63720, Note_on_c, 8, 71, 0
9, 63720, Note_on_c, 8, 70, 127
9, 63780, Note_on_c, 8, 70, 0
9, 63780, Note_on_c, 8, 71, 127
9, 63840, Note_on_c, 8, 71, 0
9, 63840, Note_on_c, 8, 71, 127
9, 63960, Note_on_c, 8, 71, 0
9, 63960, Note_on_c, 8, 70, 127
9, 64080, Note_on_c, 8, 70, 0
9, 64080, Note_on_c, 8, 71, 127
9, 64200, Note_on_c, 8, 71, 0
9, 64200, Note_on_c, 8, 73, 127
9, 64320, Note_on_c, 8, 73, 0
9, 64320, Note_on_c, 8, 75, 127
9, 64440, Note_on_c, 8, 75, 0
9, 64440, Note_on_c, 8, 73, 127
9, 64500, Note_on_c, 8, 73, 0
9, 64500, Note_on_c, 8, 71, 127
9, 64680, Note_on_c, 8, 71, 0
9, 64680, Note_on_c, 8, 73, 127
9, 64800, Note_on_c, 8, 73, 0
9, 64800, Note_on_c, 8, 71, 127
9, 64860, Note_on_c, 8, 71, 0
9, 64860, Note_on_c, 8, 71, 127
9, 65040, Note_on_c, 8, 71, 0
9, 65118, Note_on_c, 8, 71, 127
9, 65200, Note_on_c, 8, 71, 0
9, 65200, Note_on_c, 8, 73, 127
9, 65280, Note_on_c, 8, 73, 0
9, 65280, Note_on_c, 8, 73, 127
9, 66060, Note_on_c, 8, 73, 0
9, 66060, Note_on_c, 8, 71, 127
9, 66120, Note_on_c, 8, 71, 0
9, 66120, Note_on_c, 8, 75, 127
9, 66240, Note_on_c, 8, 75, 0
9, 66240, Note_on_c, 8, 73, 127
9, 66720, Note_on_c, 8, 73, 0
9, 66720, Note_on_c, 8, 76, 127
9, 66780, Note_on_c, 8, 76, 0
9, 66780, Note_on_c, 8, 76, 127
9, 66840, Note_on_c, 8, 76, 0
9, 66840, Note_on_c, 8, 75, 127
9, 66900, Note_on_c, 8, 75, 0
9, 66900, Note_on_c, 8, 75, 127
9, 66960, Note_on_c, 8, 75, 0
9, 66960, Note_on_c, 8, 71, 127
9, 67020, Note_on_c, 8, 71, 0
9, 67020, Note_on_c, 8, 71, 127
9, 67080, Note_on_c, 8, 71, 0
9, 67080, Note_on_c, 8, 68, 127
9, 67140, Note_on_c, 8, 68, 0
9, 67140, Note_on_c, 8, 73, 127
9, 67200, Note_on_c, 8, 73, 0
9, 67200, Note_on_c, 8, 70, 127
9, 67320, Note_on_c, 8, 70, 0
9, 67320, Note_on_c, 8, 71, 127
9, 67680, Note_on_c, 8, 71, 0
9, 67680, Note_on_c, 8, 70, 127
9, 67800, Note_on_c, 8, 70, 0
9, 67800, Note_on_c, 8, 71, 127
9, 67920, Note_on_c, 8, 71, 0
9, 67920, Note_on_c, 8, 73, 127
9, 68040, Note_on_c, 8, 73, 0
9, 68040, Note_on_c, 8, 70, 127
9, 68400, Note_on_c, 8, 70, 0
9, 68400, Note_on_c, 8, 71, 127
9, 68520, Note_on_c, 8, 71, 0
9, 68520, Note_on_c, 8, 68, 127
9, 69120, Note_on_c, 8, 68, 0
9, 69120, Note_on_c, 8, 70, 127
9, 69240, Note_on_c, 8, 70, 0
9, 69240, Note_on_c, 8, 71, 127
9, 69600, Note_on_c, 8, 71, 0
9, 69600, Note_on_c, 8, 70, 127
9, 69720, Note_on_c, 8, 70, 0
9, 69720, Note_on_c, 8, 71, 127
9, 69840, Note_on_c, 8, 71, 0
9, 69840, Note_on_c, 8, 73, 127
9, 69960, Note_on_c, 8, 73, 0
9, 69960, Note_on_c, 8, 68, 127
9, 71040, Note_on_c, 8, 68, 0
9, 71040, End_track
10, 0, Start_track
10, 0, MIDI_port, 0
10, 0, Program_c, 13, 95
10, 0, Control_c, 13, 7, 127
10, 5760, Note_on_c, 13, 67, 127
10, 5880, Note_on_c, 13, 67, 0
10, 5880, Note_on_c, 13, 68, 127
10, 6240, Note_on_c, 13, 68, 0
10, 6240, Note_on_c, 13, 67, 127
10, 6360, Note_on_c, 13, 67, 0
10, 6360, Note_on_c, 13, 68, 127
10, 6480, Note_on_c, 13, 68, 0
10, 6480, Note_on_c, 13, 70, 127
10, 6600, Note_on_c, 13, 70, 0
10, 6600, Note_on_c, 13, 67, 127
10, 6840, Note_on_c, 13, 67, 0
10, 6840, Note_on_c, 13, 68, 127
10, 7680, Note_on_c, 13, 68, 0
10, 7680, Note_on_c, 13, 67, 127
10, 7800, Note_on_c, 13, 67, 0
10, 7800, Note_on_c, 13, 68, 127
10, 8160, Note_on_c, 13, 68, 0
10, 8160, Note_on_c, 13, 67, 127
10, 8280, Note_on_c, 13, 67, 0
10, 8280, Note_on_c, 13, 68, 127
10, 8400, Note_on_c, 13, 68, 0
10, 8400, Note_on_c, 13, 70, 127
10, 8520, Note_on_c, 13, 70, 0
10, 8520, Note_on_c, 13, 65, 127
10, 9360, Note_on_c, 13, 65, 0
10, 9540, Note_on_c, 13, 70, 127
10, 9600, Note_on_c, 13, 70, 0
10, 9600, Note_on_c, 13, 67, 127
10, 9720, Note_on_c, 13, 67, 0
10, 9720, Note_on_c, 13, 68, 127
10, 10080, Note_on_c, 13, 68, 0
10, 10080, Note_on_c, 13, 67, 127
10, 10200, Note_on_c, 13, 67, 0
10, 10200, Note_on_c, 13, 68, 127
10, 10320, Note_on_c, 13, 68, 0
10, 10320, Note_on_c, 13, 70, 127
10, 10440, Note_on_c, 13, 70, 0
10, 10440, Note_on_c, 13, 67, 127
10, 10680, Note_on_c, 13, 67, 0
10, 10680, Note_on_c, 13, 68, 127
10, 11400, Note_on_c, 13, 68, 0
10, 11400, Note_on_c, 13, 63, 127
10, 11520, Note_on_c, 13, 63, 0
10, 11520, Note_on_c, 13, 70, 127
10, 11700, Note_on_c, 13, 70, 0
10, 11700, Note_on_c, 13, 70, 127
10, 11820, Note_on_c, 13, 70, 0
10, 11820, Note_on_c, 13, 68, 127
10, 11880, Note_on_c, 13, 68, 0
10, 11880, Note_on_c, 13, 70, 127
10, 12360, Note_on_c, 13, 70, 0
10, 12360, Note_on_c, 13, 72, 127
10, 12540, Note_on_c, 13, 72, 0
10, 12540, Note_on_c, 13, 72, 127
10, 12600, Note_on_c, 13, 72, 0
10, 12600, Note_on_c, 13, 73, 127
10, 12660, Note_on_c, 13, 73, 0
10, 12660, Note_on_c, 13, 70, 127
10, 12780, Note_on_c, 13, 70, 0
10, 12780, Note_on_c, 13, 68, 127
10, 13440, Note_on_c, 13, 68, 0
10, 20640, Note_on_c, 13, 68, 127
10, 20880, Note_on_c, 13, 68, 0
10, 20880, Note_on_c, 13, 68, 127
10, 21120, Note_on_c, 13, 68, 0
10, 21120, Note_on_c, 13, 58, 127
10, 21240, Note_on_c, 13, 58, 0
10, 21240, Note_on_c, 13, 56, 127
10, 21360, Note_on_c, 13, 56, 0
10, 21360, Note_on_c, 13, 56, 127
10, 21480, Note_on_c, 13, 56, 0
10, 21480, Note_on_c, 13, 55, 127
10, 21600, Note_on_c, 13, 55, 0
10, 21600, Note_on_c, 13, 56, 127
10, 21720, Note_on_c, 13, 56, 0
10, 21720, Note_on_c, 13, 55, 127
10, 21840, Note_on_c, 13, 55, 0
10, 21840, Note_on_c, 13, 56, 127
10, 21960, Note_on_c, 13, 56, 0
10, 21960, Note_on_c, 13, 58, 127
10, 22080, Note_on_c, 13, 58, 0
10, 22080, Note_on_c, 13, 60, 127
10, 22200, Note_on_c, 13, 60, 0
10, 22200, Note_on_c, 13, 58, 127
10, 22260, Note_on_c, 13, 58, 0
10, 22260, Note_on_c, 13, 56, 127
10, 22560, Note_on_c, 13, 56, 0
10, 22560, Note_on_c, 13, 68, 127
10, 22800, Note_on_c, 13, 68, 0
10, 22800, Note_on_c, 13, 68, 127
10, 23040, Note_on_c, 13, 68, 0
10, 23040, Note_on_c, 13, 58, 127
10, 23160, Note_on_c, 13, 58, 0
10, 23160, Note_on_c, 13, 56, 127
10, 23280, Note_on_c, 13, 56, 0
10, 23280, Note_on_c, 13, 56, 127
10, 23400, Note_on_c, 13, 56, 0
10, 23400, Note_on_c, 13, 55, 127
10, 23520, Note_on_c, 13, 55, 0
10, 23520, Note_on_c, 13, 56, 127
10, 23640, Note_on_c, 13, 56, 0
10, 23640, Note_on_c, 13, 55, 127
10, 23760, Note_on_c, 13, 55, 0
10, 23760, Note_on_c, 13, 56, 127
10, 23880, Note_on_c, 13, 56, 0
10, 23880, Note_on_c, 13, 58, 127
10, 24000, Note_on_c, 13, 58, 0
10, 24000, Note_on_c, 13, 53, 127
10, 24120, Note_on_c, 13, 53, 0
10, 24120, Note_on_c, 13, 56, 127
10, 24480, Note_on_c, 13, 56, 0
10, 24480, Note_on_c, 13, 68, 127
10, 24720, Note_on_c, 13, 68, 0
10, 24720, Note_on_c, 13, 68, 127
10, 24960, Note_on_c, 13, 68, 0
10, 24960, Note_on_c, 13, 58, 127
10, 25080, Note_on_c, 13, 58, 0
10, 25080, Note_on_c, 13, 56, 127
10, 25200, Note_on_c, 13, 56, 0
10, 25200, Note_on_c, 13, 56, 127
10, 25320, Note_on_c, 13, 56, 0
10, 25320, Note_on_c, 13, 55, 127
10, 25380, Note_on_c, 13, 55, 0
10, 25380, Note_on_c, 13, 56, 127
10, 25440, Note_on_c, 13, 56, 0
10, 25440, Note_on_c, 13, 56, 127
10, 25560, Note_on_c, 13, 56, 0
10, 25560, Note_on_c, 13, 55, 127
10, 25680, Note_on_c, 13, 55, 0
10, 25680, Note_on_c, 13, 56, 127
10, 25800, Note_on_c, 13, 56, 0
10, 25800, Note_on_c, 13, 58, 127
10, 25920, Note_on_c, 13, 58, 0
10, 25920, Note_on_c, 13, 60, 127
10, 26040, Note_on_c, 13, 60, 0
10, 26040, Note_on_c, 13, 58, 127
10, 26100, Note_on_c, 13, 58, 0
10, 26100, Note_on_c, 13, 56, 127
10, 26400, Note_on_c, 13, 56, 0
10, 26718, Note_on_c, 13, 56, 127
10, 26800, Note_on_c, 13, 56, 0
10, 26800, Note_on_c, 13, 58, 127
10, 26880, Note_on_c, 13, 58, 0
10, 26880, Note_on_c, 13, 58, 127
10, 27660, Note_on_c, 13, 58, 0
10, 27660, Note_on_c, 13, 56, 127
10, 27720, Note_on_c, 13, 56, 0
10, 27720, Note_on_c, 13, 60, 127
10, 27840, Note_on_c, 13, 60, 0
10, 27840, Note_on_c, 13, 58, 127
10, 28800, Note_on_c, 13, 58, 0
10, 28800, Note_on_c, 13, 67, 127
10, 28920, Note_on_c, 13, 67, 0
10, 28920, Note_on_c, 13, 68, 127
10, 29280, Note_on_c, 13, 68, 0
10, 29280, Note_on_c, 13, 67, 127
10, 29400, Note_on_c, 13, 67, 0
10, 29400, Note_on_c, 13, 68, 127
10, 29520, Note_on_c, 13, 68, 0
10, 29520, Note_on_c, 13, 70, 127
10, 29640, Note_on_c, 13, 70, 0
10, 29640, Note_on_c, 13, 67, 127
10, 30120, Note_on_c, 13, 67, 0
10, 30120, Note_on_c, 13, 68, 127
10, 30480, Note_on_c, 13, 68, 0
10, 30660, Note_on_c, 13, 63, 127
10, 30720, Note_on_c, 13, 63, 0
10, 30720, Note_on_c, 13, 67, 127
10, 30840, Note_on_c, 13, 67, 0
10, 30840, Note_on_c, 13, 68, 127
10, 31200, Note_on_c, 13, 68, 0
10, 31200, Note_on_c, 13, 67, 127
10, 31320, Note_on_c, 13, 67, 0
10, 31320, Note_on_c, 13, 68, 127
10, 31440, Note_on_c, 13, 68, 0
10, 31440, Note_on_c, 13, 70, 127
10, 31560, Note_on_c, 13, 70, 0
10, 31560, Note_on_c, 13, 65, 127
10, 32640, Note_on_c, 13, 65, 0
10, 32640, Note_on_c, 13, 67, 127
10, 32760, Note_on_c, 13, 67, 0
10, 32760, Note_on_c, 13, 68, 127
10, 33060, Note_on_c, 13, 68, 0
10, 33060, Note_on_c, 13, 67, 127
10, 33120, Note_on_c, 13, 67, 0
10, 33120, Note_on_c, 13, 67, 127
10, 33240, Note_on_c, 13, 67, 0
10, 33240, Note_on_c, 13, 68, 127
10, 33360, Note_on_c, 13, 68, 0
10, 33360, Note_on_c, 13, 70, 127
10, 33480, Note_on_c, 13, 70, 0
10, 33480, Note_on_c, 13, 67, 127
10, 33960, Note_on_c, 13, 67, 0
10, 33960, Note_on_c, 13, 70, 127
10, 34080, Note_on_c, 13, 70, 0
10, 34080, Note_on_c, 13, 68, 127
10, 34380, Note_on_c, 13, 68, 0
10, 34380, Note_on_c, 13, 68, 127
10, 34440, Note_on_c, 13, 68, 0
10, 34440, Note_on_c, 13, 70, 127
10, 34560, Note_on_c, 13, 70, 0
10, 34560, Note_on_c, 13, 70, 127
10, 34620, Note_on_c, 13, 70, 0
10, 34620, Note_on_c, 13, 70, 127
10, 34680, Note_on_c, 13, 70, 0
10, 34680, Note_on_c, 13, 70, 127
10, 35340, Note_on_c, 13, 70, 0
10, 35340, Note_on_c, 13, 68, 127
10, 35400, Note_on_c, 13, 68, 0
10, 35400, Note_on_c, 13, 72, 127
10, 35640, Note_on_c, 13, 72, 0
10, 35640, Note_on_c, 13, 70, 127
10, 35700, Note_on_c, 13, 70, 0
10, 35700, Note_on_c, 13, 68, 127
10, 35760, Note_on_c, 13, 68, 0
10, 35760, Note_on_c, 13, 70, 127
10, 35880, Note_on_c, 13, 70, 0
10, 35880, Note_on_c, 13, 70, 127
10, 36000, Note_on_c, 13, 70, 0
10, 36000, Note_on_c, 13, 68, 127
10, 36240, Note_on_c, 13, 68, 0
10, 36240, Note_on_c, 13, 68, 127
10, 36480, Note_on_c, 13, 68, 0
10, 36480, Note_on_c, 13, 58, 127
10, 36600, Note_on_c, 13, 58, 0
10, 36600, Note_on_c, 13, 56, 127
10, 36720, Note_on_c, 13, 56, 0
10, 36720, Note_on_c, 13, 56, 127
10, 36840, Note_on_c, 13, 56, 0
10, 36840, Note_on_c, 13, 55, 127
10, 36960, Note_on_c, 13, 55, 0
10, 36960, Note_on_c, 13, 56, 127
10, 37080, Note_on_c, 13, 56, 0
10, 37080, Note_on_c, 13, 55, 127
10, 37200, Note_on_c, 13, 55, 0
10, 37200, Note_on_c, 13, 56, 127
10, 37320, Note_on_c, 13, 56, 0
10, 37320, Note_on_c, 13, 58, 127
10, 37440, Note_on_c, 13, 58, 0
10, 37440, Note_on_c, 13, 60, 127
10, 37560, Note_on_c, 13, 60, 0
10, 37560, Note_on_c, 13, 58, 127
10, 37620, Note_on_c, 13, 58, 0
10, 37620, Note_on_c, 13, 56, 127
10, 37920, Note_on_c, 13, 56, 0
10, 37920, Note_on_c, 13, 68, 127
10, 38160, Note_on_c, 13, 68, 0
10, 38160, Note_on_c, 13, 68, 127
10, 38400, Note_on_c, 13, 68, 0
10, 38400, Note_on_c, 13, 58, 127
10, 38520, Note_on_c, 13, 58, 0
10, 38520, Note_on_c, 13, 56, 127
10, 38640, Note_on_c, 13, 56, 0
10, 38640, Note_on_c, 13, 56, 127
10, 38760, Note_on_c, 13, 56, 0
10, 38760, Note_on_c, 13, 55, 127
10, 38880, Note_on_c, 13, 55, 0
10, 38880, Note_on_c, 13, 56, 127
10, 39000, Note_on_c, 13, 56, 0
10, 39000, Note_on_c, 13, 55, 127
10, 39120, Note_on_c, 13, 55, 0
10, 39120, Note_on_c, 13, 56, 127
10, 39240, Note_on_c, 13, 56, 0
10, 39240, Note_on_c, 13, 58, 127
10, 39360, Note_on_c, 13, 58, 0
10, 39360, Note_on_c, 13, 53, 127
10, 39480, Note_on_c, 13, 53, 0
10, 39480, Note_on_c, 13, 56, 127
10, 39840, Note_on_c, 13, 56, 0
10, 39840, Note_on_c, 13, 68, 127
10, 40080, Note_on_c, 13, 68, 0
10, 40080, Note_on_c, 13, 68, 127
10, 40320, Note_on_c, 13, 68, 0
10, 40320, Note_on_c, 13, 58, 127
10, 40440, Note_on_c, 13, 58, 0
10, 40440, Note_on_c, 13, 56, 127
10, 40560, Note_on_c, 13, 56, 0
10, 40560, Note_on_c, 13, 56, 127
10, 40680, Note_on_c, 13, 56, 0
10, 40680, Note_on_c, 13, 55, 127
10, 40740, Note_on_c, 13, 55, 0
10, 40740, Note_on_c, 13, 56, 127
10, 40800, Note_on_c, 13, 56, 0
10, 40800, Note_on_c, 13, 56, 127
10, 40920, Note_on_c, 13, 56, 0
10, 40920, Note_on_c, 13, 55, 127
10, 41040, Note_on_c, 13, 55, 0
10, 41040, Note_on_c, 13, 56, 127
10, 41160, Note_on_c, 13, 56, 0
10, 41160, Note_on_c, 13, 58, 127
10, 41280, Note_on_c, 13, 58, 0
10, 41280, Note_on_c, 13, 60, 127
10, 41400, Note_on_c, 13, 60, 0
10, 41400, Note_on_c, 13, 58, 127
10, 41460, Note_on_c, 13, 58, 0
10, 41460, Note_on_c, 13, 56, 127
10, 41760, Note_on_c, 13, 56, 0
10, 42078, Note_on_c, 13, 56, 127
10, 42160, Note_on_c, 13, 56, 0
10, 42160, Note_on_c, 13, 58, 127
10, 42240, Note_on_c, 13, 58, 0
10, 42240, Note_on_c, 13, 58, 127
10, 43020, Note_on_c, 13, 58, 0
10, 43020, Note_on_c, 13, 56, 127
10, 43080, Note_on_c, 13, 56, 0
10, 43080, Note_on_c, 13, 60, 127
10, 43200, Note_on_c, 13, 60, 0
10, 43200, Note_on_c, 13, 58, 127
10, 44160, Note_on_c, 13, 58, 0
10, 44400, Note_on_c, 13, 77, 127
10, 44640, Note_on_c, 13, 77, 0
10, 44640, Note_on_c, 13, 76, 127
10, 44880, Note_on_c, 13, 76, 0
10, 45060, Note_on_c, 13, 76, 127
10, 45120, Note_on_c, 13, 76, 0
10, 45120, Note_on_c, 13, 79, 127
10, 45240, Note_on_c, 13, 79, 0
10, 45240, Note_on_c, 13, 80, 127
10, 45300, Note_on_c, 13, 80, 0
10, 45300, Note_on_c, 13, 77, 127
10, 45480, Note_on_c, 13, 77, 0
10, 45480, Note_on_c, 13, 75, 127
10, 45540, Note_on_c, 13, 75, 0
10, 45540, Note_on_c, 13, 72, 127
10, 45720, Note_on_c, 13, 72, 0
10, 45720, Note_on_c, 13, 70, 127
10, 45840, Note_on_c, 13, 70, 0
10, 45840, Note_on_c, 13, 68, 127
10, 45960, Note_on_c, 13, 68, 0
10, 45960, Note_on_c, 13, 72, 127
10, 46080, Note_on_c, 13, 72, 0
10, 46260, Note_on_c, 13, 68, 127
10, 46320, Note_on_c, 13, 68, 0
10, 46320, Note_on_c, 13, 77, 127
10, 46440, Note_on_c, 13, 77, 0
10, 46440, Note_on_c, 13, 77, 127
10, 46560, Note_on_c, 13, 77, 0
10, 46560, Note_on_c, 13, 75, 127
10, 46680, Note_on_c, 13, 75, 0
10, 46680, Note_on_c, 13, 75, 127
10, 46740, Note_on_c, 13, 75, 0
10, 46740, Note_on_c, 13, 72, 127
10, 46800, Note_on_c, 13, 72, 0
10, 46800, Note_on_c, 13, 75, 127
10, 46920, Note_on_c, 13, 75, 0
10, 46920, Note_on_c, 13, 77, 127
10, 47040, Note_on_c, 13, 77, 0
10, 47040, Note_on_c, 13, 77, 127
10, 47100, Note_on_c, 13, 77, 0
10, 47100, Note_on_c, 13, 75, 127
10, 47160, Note_on_c, 13, 75, 0
10, 47160, Note_on_c, 13, 68, 127
10, 47280, Note_on_c, 13, 68, 0
10, 47280, Note_on_c, 13, 72, 127
10, 48000, Note_on_c, 13, 72, 0
10, 50718, Note_on_c, 13, 56, 127
10, 50800, Note_on_c, 13, 56, 0
10, 50800, Note_on_c, 13, 60, 127
10, 50880, Note_on_c, 13, 60, 0
10, 50880, Note_on_c, 13, 60, 127
10, 51000, Note_on_c, 13, 60, 0
10, 51000, Note_on_c, 13, 58, 127
10, 51360, Note_on_c, 13, 58, 0
10, 51360, Note_on_c, 13, 68, 127
10, 51600, Note_on_c, 13, 68, 0
10, 51600, Note_on_c, 13, 68, 127
10, 51840, Note_on_c, 13, 68, 0
10, 51840, Note_on_c, 13, 61, 127
10, 51960, Note_on_c, 13, 61, 0
10, 51960, Note_on_c, 13, 59, 127
10, 52080, Note_on_c, 13, 59, 0
10, 52080, Note_on_c, 13, 59, 127
10, 52200, Note_on_c, 13, 59, 0
10, 52200, Note_on_c, 13, 58, 127
10, 52320, Note_on_c, 13, 58, 0
10, 52320, Note_on_c, 13, 59, 127
10, 52440, Note_on_c, 13, 59, 0
10, 52440, Note_on_c, 13, 58, 127
10, 52560, Note_on_c, 13, 58, 0
10, 52560, Note_on_c, 13, 59, 127
10, 52680, Note_on_c, 13, 59, 0
10, 52680, Note_on_c, 13, 61, 127
10, 52800, Note_on_c, 13, 61, 0
10, 52800, Note_on_c, 13, 63, 127
10, 52920, Note_on_c, 13, 63, 0
10, 52920, Note_on_c, 13, 61, 127
10, 52980, Note_on_c, 13, 61, 0
10, 52980, Note_on_c, 13, 59, 127
10, 53280, Note_on_c, 13, 59, 0
10, 53280, Note_on_c, 13, 68, 127
10, 53520, Note_on_c, 13, 68, 0
10, 53520, Note_on_c, 13, 68, 127
10, 53760, Note_on_c, 13, 68, 0
10, 53760, Note_on_c, 13, 61, 127
10, 53880, Note_on_c, 13, 61, 0
10, 53880, Note_on_c, 13, 59, 127
10, 54000, Note_on_c, 13, 59, 0
10, 54000, Note_on_c, 13, 59, 127
10, 54120, Note_on_c, 13, 59, 0
10, 54120, Note_on_c, 13, 58, 127
10, 54240, Note_on_c, 13, 58, 0
10, 54240, Note_on_c, 13, 59, 127
10, 54360, Note_on_c, 13, 59, 0
10, 54360, Note_on_c, 13, 58, 127
10, 54480, Note_on_c, 13, 58, 0
10, 54480, Note_on_c, 13, 59, 127
10, 54600, Note_on_c, 13, 59, 0
10, 54600, Note_on_c, 13, 61, 127
10, 54720, Note_on_c, 13, 61, 0
10, 54720, Note_on_c, 13, 56, 127
10, 54840, Note_on_c, 13, 56, 0
10, 54840, Note_on_c, 13, 59, 127
10, 55200, Note_on_c, 13, 59, 0
10, 55200, Note_on_c, 13, 71, 127
10, 55440, Note_on_c, 13, 71, 0
10, 55440, Note_on_c, 13, 71, 127
10, 55680, Note_on_c, 13, 71, 0
10, 55680, Note_on_c, 13, 61, 127
10, 55800, Note_on_c, 13, 61, 0
10, 55800, Note_on_c, 13, 59, 127
10, 55920, Note_on_c, 13, 59, 0
10, 55920, Note_on_c, 13, 59, 127
10, 56040, Note_on_c, 13, 59, 0
10, 56040, Note_on_c, 13, 58, 127
10, 56100, Note_on_c, 13, 58, 0
10, 56100, Note_on_c, 13, 59, 127
10, 56160, Note_on_c, 13, 59, 0
10, 56160, Note_on_c, 13, 59, 127
10, 56280, Note_on_c, 13, 59, 0
10, 56280, Note_on_c, 13, 58, 127
10, 56400, Note_on_c, 13, 58, 0
10, 56400, Note_on_c, 13, 59, 127
10, 56520, Note_on_c, 13, 59, 0
10, 56520, Note_on_c, 13, 61, 127
10, 56640, Note_on_c, 13, 61, 0
10, 56640, Note_on_c, 13, 63, 127
10, 56760, Note_on_c, 13, 63, 0
10, 56760, Note_on_c, 13, 61, 127
10, 56820, Note_on_c, 13, 61, 0
10, 56820, Note_on_c, 13, 59, 127
10, 57120, Note_on_c, 13, 59, 0
10, 57438, Note_on_c, 13, 59, 127
10, 57520, Note_on_c, 13, 59, 0
10, 57520, Note_on_c, 13, 61, 127
10, 57600, Note_on_c, 13, 61, 0
10, 57600, Note_on_c, 13, 61, 127
10, 58380, Note_on_c, 13, 61, 0
10, 58380, Note_on_c, 13, 59, 127
10, 58440, Note_on_c, 13, 59, 0
10, 58440, Note_on_c, 13, 63, 127
10, 58560, Note_on_c, 13, 63, 0
10, 58560, Note_on_c, 13, 61, 127
10, 59040, Note_on_c, 13, 61, 0
10, 59040, Note_on_c, 13, 71, 127
10, 59280, Note_on_c, 13, 71, 0
10, 59280, Note_on_c, 13, 71, 127
10, 59520, Note_on_c, 13, 71, 0
10, 59520, Note_on_c, 13, 61, 127
10, 59640, Note_on_c, 13, 61, 0
10, 59640, Note_on_c, 13, 59, 127
10, 59760, Note_on_c, 13, 59, 0
10, 59760, Note_on_c, 13, 59, 127
10, 59880, Note_on_c, 13, 59, 0
10, 59880, Note_on_c, 13, 58, 127
10, 60000, Note_on_c, 13, 58, 0
10, 60000, Note_on_c, 13, 59, 127
10, 60120, Note_on_c, 13, 59, 0
10, 60120, Note_on_c, 13, 58, 127
10, 60240, Note_on_c, 13, 58, 0
10, 60240, Note_on_c, 13, 59, 127
10, 60360, Note_on_c, 13, 59, 0
10, 60360, Note_on_c, 13, 61, 127
10, 60480, Note_on_c, 13, 61, 0
10, 60480, Note_on_c, 13, 63, 127
10, 60600, Note_on_c, 13, 63, 0
10, 60600, Note_on_c, 13, 61, 127
10, 60660, Note_on_c, 13, 61, 0
10, 60660, Note_on_c, 13, 59, 127
10, 60960, Note_on_c, 13, 59, 0
10, 60960, Note_on_c, 13, 68, 127
10, 61200, Note_on_c, 13, 68, 0
10, 61200, Note_on_c, 13, 68, 127
10, 61440, Note_on_c, 13, 68, 0
10, 61440, Note_on_c, 13, 61, 127
10, 61560, Note_on_c, 13, 61, 0
10, 61560, Note_on_c, 13, 59, 127
10, 61680, Note_on_c, 13, 59, 0
10, 61680, Note_on_c, 13, 59, 127
10, 61800, Note_on_c, 13, 59, 0
10, 61800, Note_on_c, 13, 58, 127
10, 61920, Note_on_c, 13, 58, 0
10, 61920, Note_on_c, 13, 59, 127
10, 62040, Note_on_c, 13, 59, 0
10, 62040, Note_on_c, 13, 58, 127
10, 62160, Note_on_c, 13, 58, 0
10, 62160, Note_on_c, 13, 59, 127
10, 62280, Note_on_c, 13, 59, 0
10, 62280, Note_on_c, 13, 61, 127
10, 62400, Note_on_c, 13, 61, 0
10, 62400, Note_on_c, 13, 56, 127
10, 62520, Note_on_c, 13, 56, 0
10, 62520, Note_on_c, 13, 59, 127
10, 62880, Note_on_c, 13, 59, 0
10, 62880, Note_on_c, 13, 68, 127
10, 63120, Note_on_c, 13, 68, 0
10, 63120, Note_on_c, 13, 68, 127
10, 63360, Note_on_c, 13, 68, 0
10, 63360, Note_on_c, 13, 61, 127
10, 63480, Note_on_c, 13, 61, 0
10, 63480, Note_on_c, 13, 59, 127
10, 63600, Note_on_c, 13, 59, 0
10, 63600, Note_on_c, 13, 59, 127
10, 63720, Note_on_c, 13, 59, 0
10, 63720, Note_on_c, 13, 58, 127
10, 63780, Note_on_c, 13, 58, 0
10, 63780, Note_on_c, 13, 59, 127
10, 63840, Note_on_c, 13, 59, 0
10, 63840, Note_on_c, 13, 59, 127
10, 63960, Note_on_c, 13, 59, 0
10, 63960, Note_on_c, 13, 58, 127
10, 64080, Note_on_c, 13, 58, 0
10, 64080, Note_on_c, 13, 59, 127
10, 64200, Note_on_c, 13, 59, 0
10, 64200, Note_on_c, 13, 61, 127
10, 64320, Note_on_c, 13, 61, 0
10, 64320, Note_on_c, 13, 63, 127
10, 64440, Note_on_c, 13, 63, 0
10, 64440, Note_on_c, 13, 61, 127
10, 64500, Note_on_c, 13, 61, 0
10, 64500, Note_on_c, 13, 59, 127
10, 64800, Note_on_c, 13, 59, 0
10, 65118, Note_on_c, 13, 59, 127
10, 65200, Note_on_c, 13, 59, 0
10, 65200, Note_on_c, 13, 61, 127
10, 65280, Note_on_c, 13, 61, 0
10, 65280, Note_on_c, 13, 61, 127
10, 66060, Note_on_c, 13, 61, 0
10, 66060, Note_on_c, 13, 59, 127
10, 66120, Note_on_c, 13, 59, 0
10, 66120, Note_on_c, 13, 63, 127
10, 66240, Note_on_c, 13, 63, 0
10, 66240, Note_on_c, 13, 61, 127
10, 67200, Note_on_c, 13, 61, 0
10, 69120, Note_on_c, 13, 58, 127
10, 69240, Note_on_c, 13, 58, 0
10, 69240, Note_on_c, 13, 59, 127
10, 69600, Note_on_c, 13, 59, 0
10, 69600, Note_on_c, 13, 58, 127
10, 69720, Note_on_c, 13, 58, 0
10, 69720, Note_on_c, 13, 59, 127
10, 69840, Note_on_c, 13, 59, 0
10, 69840, Note_on_c, 13, 61, 127
10, 69960, Note_on_c, 13, 61, 0
10, 69960, Note_on_c, 13, 56, 127
10, 71040, Note_on_c, 13, 56, 0
10, 71040, End_track
0, 0, End_of_file
