0, 0, Header, 1, 6, 480
1, 0, Start_track
1, 0, Text_t, "add duplet feel in bar 10 and 19 and 32"
1, 0, Title_t, "Ooh Baby Baby"
1, 0, SMPTE_offset, 0, 0, 0, 0, 0
1, 0, Tempo, 1111111
1, 0, Time_signature, 4, 2, 24, 8
1, 0, Key_signature, 1, "major"
1, 119040, Tempo, 1111111
1, 119520, Tempo, 1143074
1, 120000, Tempo, 1176701
1, 120480, Tempo, 1212366
1, 120959, Tempo, 1250000
1, 120960, Tempo, 1111111
1, 120960, End_track
2, 0, Start_track
2, 0, Title_t, "Bass    (BB)"
2, 0, MIDI_port, 0
2, 0, Channel_prefix, 0
2, 0, Control_c, 0, 7, 99
2, 0, Control_c, 0, 10, 89
2, 0, Control_c, 0, 91, 49
2, 0, Control_c, 0, 93, 89
2, 0, Program_c, 0, 35
2, 0, Control_c, 0, 121, 0
2, 1920, Note_on_c, 0, 35, 110
2, 2603, Note_off_c, 0, 35, 64
2, 2720, Note_on_c, 0, 35, 94
2, 2755, Note_off_c, 0, 35, 64
2, 2880, Note_on_c, 0, 35, 99
2, 3249, Note_off_c, 0, 35, 64
2, 3360, Note_on_c, 0, 35, 104
2, 3520, Note_on_c, 0, 36, 99
2, 3544, Note_off_c, 0, 35, 64
2, 3602, Note_off_c, 0, 36, 64
2, 3680, Note_on_c, 0, 37, 109
2, 3733, Note_off_c, 0, 37, 64
2, 3840, Note_on_c, 0, 38, 110
2, 4560, Note_off_c, 0, 38, 64
2, 4640, Note_on_c, 0, 38, 110
2, 4720, Note_off_c, 0, 38, 64
2, 4800, Note_on_c, 0, 38, 104
2, 5152, Note_off_c, 0, 38, 64
2, 5280, Note_on_c, 0, 38, 97
2, 5440, Note_off_c, 0, 38, 64
2, 5440, Note_on_c, 0, 37, 100
2, 5520, Note_off_c, 0, 37, 64
2, 5600, Note_on_c, 0, 36, 107
2, 5600, Note_on_c, 0, 34, 49
2, 5680, Note_off_c, 0, 34, 64
2, 5680, Note_off_c, 0, 36, 64
2, 5779, Note_on_c, 0, 35, 99
2, 6470, Note_off_c, 0, 35, 64
2, 6589, Note_on_c, 0, 35, 90
2, 6618, Note_off_c, 0, 35, 64
2, 6727, Note_on_c, 0, 35, 97
2, 7366, Note_off_c, 0, 35, 64
2, 7373, Note_on_c, 0, 36, 83
2, 7427, Note_off_c, 0, 36, 64
2, 7519, Note_on_c, 0, 37, 109
2, 7568, Note_off_c, 0, 37, 64
2, 7683, Note_on_c, 0, 38, 101
2, 8463, Note_off_c, 0, 38, 64
2, 8496, Note_on_c, 0, 38, 78
2, 8537, Note_off_c, 0, 38, 64
2, 8650, Note_on_c, 0, 38, 94
2, 9024, Note_off_c, 0, 38, 64
2, 9138, Note_on_c, 0, 38, 101
2, 9269, Note_off_c, 0, 38, 64
2, 9289, Note_on_c, 0, 37, 100
2, 9345, Note_off_c, 0, 37, 64
2, 9447, Note_on_c, 0, 36, 113
2, 9506, Note_off_c, 0, 36, 64
2, 9621, Note_on_c, 0, 35, 101
2, 10270, Note_off_c, 0, 35, 64
2, 10395, Note_on_c, 0, 35, 101
2, 10433, Note_off_c, 0, 35, 64
2, 10571, Note_on_c, 0, 35, 94
2, 11199, Note_off_c, 0, 35, 64
2, 11207, Note_on_c, 0, 36, 90
2, 11256, Note_off_c, 0, 36, 64
2, 11358, Note_on_c, 0, 37, 109
2, 11408, Note_off_c, 0, 37, 64
2, 11532, Note_on_c, 0, 38, 107
2, 12471, Note_off_c, 0, 38, 64
2, 12489, Note_on_c, 0, 50, 85
2, 12638, Note_off_c, 0, 50, 64
2, 12646, Note_on_c, 0, 38, 86
2, 12726, Note_off_c, 0, 38, 64
2, 13112, Note_on_c, 0, 40, 107
2, 13246, Note_off_c, 0, 40, 64
2, 13275, Note_on_c, 0, 38, 97
2, 13438, Note_off_c, 0, 38, 64
2, 13459, Note_on_c, 0, 31, 92
2, 14117, Note_off_c, 0, 31, 64
2, 14263, Note_on_c, 0, 31, 101
2, 14313, Note_off_c, 0, 31, 64
2, 14416, Note_on_c, 0, 31, 94
2, 15151, Note_off_c, 0, 31, 64
2, 15220, Note_on_c, 0, 31, 101
2, 15353, Note_off_c, 0, 31, 64
2, 15393, Note_on_c, 0, 33, 107
2, 16063, Note_off_c, 0, 33, 64
2, 16185, Note_on_c, 0, 33, 104
2, 16231, Note_off_c, 0, 33, 64
2, 16344, Note_on_c, 0, 33, 92
2, 17164, Note_off_c, 0, 33, 64
2, 17295, Note_on_c, 0, 35, 95
2, 18074, Note_off_c, 0, 35, 64
2, 18240, Note_on_c, 0, 35, 107
2, 18248, Note_on_c, 0, 35, 94
2, 18321, Note_off_c, 0, 35, 64
2, 18337, Note_off_c, 0, 35, 64
2, 18480, Note_on_c, 0, 35, 94
2, 18568, Note_off_c, 0, 35, 64
2, 18720, Note_on_c, 0, 35, 99
2, 18730, Note_on_c, 0, 35, 110
2, 18820, Note_off_c, 0, 35, 64
2, 18821, Note_off_c, 0, 35, 64
2, 18960, Note_on_c, 0, 35, 101
2, 19057, Note_off_c, 0, 35, 64
2, 19204, Note_on_c, 0, 33, 92
2, 19823, Note_off_c, 0, 33, 64
2, 19847, Note_on_c, 0, 43, 80
2, 19899, Note_off_c, 0, 43, 64
2, 20006, Note_on_c, 0, 44, 71
2, 20064, Note_off_c, 0, 44, 64
2, 20169, Note_on_c, 0, 45, 75
2, 20799, Note_on_c, 0, 33, 74
2, 20802, Note_off_c, 0, 45, 64
2, 20956, Note_off_c, 0, 33, 64
2, 20959, Note_on_c, 0, 40, 92
2, 21133, Note_off_c, 0, 40, 64
2, 21139, Note_on_c, 0, 38, 94
2, 21215, Note_off_c, 0, 38, 64
2, 21469, Note_on_c, 0, 38, 97
2, 21621, Note_off_c, 0, 38, 64
2, 21631, Note_on_c, 0, 36, 94
2, 21719, Note_off_c, 0, 36, 64
2, 21936, Note_on_c, 0, 36, 101
2, 22101, Note_off_c, 0, 36, 64
2, 22111, Note_on_c, 0, 35, 97
2, 22200, Note_off_c, 0, 35, 64
2, 22419, Note_on_c, 0, 35, 110
2, 22580, Note_off_c, 0, 35, 64
2, 22591, Note_on_c, 0, 33, 99
2, 22678, Note_off_c, 0, 33, 64
2, 22894, Note_on_c, 0, 33, 99
2, 22973, Note_off_c, 0, 33, 64
2, 23065, Note_on_c, 0, 31, 107
2, 23737, Note_off_c, 0, 31, 64
2, 23844, Note_on_c, 0, 38, 113
2, 23872, Note_off_c, 0, 38, 64
2, 24012, Note_on_c, 0, 43, 82
2, 24775, Note_off_c, 0, 43, 64
2, 24791, Note_on_c, 0, 31, 92
2, 24903, Note_off_c, 0, 31, 64
2, 24970, Note_on_c, 0, 33, 107
2, 25668, Note_off_c, 0, 33, 64
2, 25778, Note_on_c, 0, 40, 83
2, 25825, Note_off_c, 0, 40, 64
2, 25933, Note_on_c, 0, 45, 82
2, 26713, Note_on_c, 0, 33, 73
2, 26717, Note_off_c, 0, 45, 64
2, 26768, Note_off_c, 0, 33, 64
2, 26892, Note_on_c, 0, 31, 88
2, 27601, Note_off_c, 0, 31, 64
2, 27677, Note_on_c, 0, 38, 94
2, 27719, Note_off_c, 0, 38, 64
2, 27852, Note_on_c, 0, 43, 92
2, 28489, Note_on_c, 0, 31, 75
2, 28502, Note_off_c, 0, 43, 64
2, 28560, Note_off_c, 0, 31, 64
2, 28649, Note_on_c, 0, 32, 84
2, 28719, Note_off_c, 0, 32, 64
2, 28802, Note_on_c, 0, 33, 85
2, 29772, Note_off_c, 0, 33, 64
2, 30255, Note_on_c, 0, 38, 97
2, 30740, Note_on_c, 0, 31, 82
2, 30743, Note_off_c, 0, 38, 64
2, 31414, Note_off_c, 0, 31, 64
2, 31541, Note_on_c, 0, 31, 82
2, 31585, Note_off_c, 0, 31, 64
2, 31692, Note_on_c, 0, 31, 79
2, 32511, Note_off_c, 0, 31, 64
2, 32654, Note_on_c, 0, 33, 92
2, 33341, Note_off_c, 0, 33, 64
2, 33458, Note_on_c, 0, 33, 85
2, 33504, Note_off_c, 0, 33, 64
2, 33619, Note_on_c, 0, 33, 86
2, 34383, Note_off_c, 0, 33, 64
2, 34578, Note_on_c, 0, 35, 104
2, 35270, Note_off_c, 0, 35, 64
2, 35385, Note_on_c, 0, 35, 97
2, 35470, Note_off_c, 0, 35, 64
2, 35529, Note_on_c, 0, 47, 96
2, 35613, Note_off_c, 0, 47, 64
2, 35762, Note_on_c, 0, 42, 100
2, 35852, Note_off_c, 0, 42, 64
2, 36003, Note_on_c, 0, 38, 97
2, 36114, Note_off_c, 0, 38, 64
2, 36241, Note_on_c, 0, 35, 103
2, 36343, Note_off_c, 0, 35, 64
2, 36506, Note_on_c, 0, 33, 90
2, 37124, Note_off_c, 0, 33, 64
2, 37126, Note_on_c, 0, 43, 73
2, 37168, Note_off_c, 0, 43, 64
2, 37280, Note_on_c, 0, 44, 71
2, 37328, Note_off_c, 0, 44, 64
2, 37446, Note_on_c, 0, 45, 62
2, 38101, Note_on_c, 0, 40, 80
2, 38111, Note_off_c, 0, 45, 64
2, 38254, Note_on_c, 0, 35, 76
2, 38257, Note_off_c, 0, 40, 64
2, 38419, Note_off_c, 0, 35, 64
2, 38420, Note_on_c, 0, 38, 92
2, 38504, Note_off_c, 0, 38, 64
2, 38727, Note_on_c, 0, 38, 92
2, 38902, Note_off_c, 0, 38, 64
2, 38905, Note_on_c, 0, 36, 99
2, 38999, Note_off_c, 0, 36, 64
2, 39210, Note_on_c, 0, 36, 88
2, 39390, Note_on_c, 0, 35, 85
2, 39393, Note_off_c, 0, 36, 64
2, 39484, Note_off_c, 0, 35, 64
2, 39675, Note_on_c, 0, 35, 99
2, 39850, Note_off_c, 0, 35, 64
2, 39860, Note_on_c, 0, 33, 97
2, 39970, Note_off_c, 0, 33, 64
2, 40170, Note_on_c, 0, 33, 104
2, 40344, Note_off_c, 0, 33, 64
2, 40350, Note_on_c, 0, 31, 92
2, 41011, Note_off_c, 0, 31, 64
2, 41129, Note_on_c, 0, 31, 83
2, 41176, Note_off_c, 0, 31, 64
2, 41294, Note_on_c, 0, 31, 88
2, 41890, Note_off_c, 0, 31, 64
2, 41921, Note_on_c, 0, 31, 79
2, 42040, Note_off_c, 0, 31, 64
2, 42083, Note_on_c, 0, 32, 89
2, 42179, Note_off_c, 0, 32, 64
2, 42252, Note_on_c, 0, 33, 99
2, 42891, Note_off_c, 0, 33, 64
2, 42893, Note_on_c, 0, 47, 64
2, 42938, Note_off_c, 0, 47, 64
2, 43043, Note_on_c, 0, 46, 60
2, 43092, Note_off_c, 0, 46, 64
2, 43204, Note_on_c, 0, 45, 62
2, 43848, Note_on_c, 0, 33, 85
2, 43856, Note_off_c, 0, 45, 64
2, 44000, Note_on_c, 0, 42, 81
2, 44004, Note_off_c, 0, 33, 64
2, 44165, Note_off_c, 0, 42, 64
2, 44177, Note_on_c, 0, 43, 75
2, 44804, Note_on_c, 0, 38, 75
2, 44816, Note_off_c, 0, 43, 64
2, 44967, Note_off_c, 0, 38, 64
2, 44970, Note_on_c, 0, 40, 63
2, 45131, Note_on_c, 0, 31, 76
2, 45134, Note_off_c, 0, 40, 64
2, 45769, Note_off_c, 0, 31, 64
2, 45782, Note_on_c, 0, 35, 80
2, 45844, Note_off_c, 0, 35, 64
2, 45922, Note_on_c, 0, 34, 73
2, 45985, Note_off_c, 0, 34, 64
2, 46086, Note_on_c, 0, 33, 79
2, 46837, Note_off_c, 0, 33, 64
2, 46891, Note_on_c, 0, 33, 85
2, 47045, Note_off_c, 0, 33, 64
2, 47065, Note_on_c, 0, 45, 79
2, 47219, Note_on_c, 0, 33, 88
2, 47222, Note_off_c, 0, 45, 64
2, 47329, Note_off_c, 0, 33, 64
2, 47685, Note_on_c, 0, 33, 92
2, 47816, Note_off_c, 0, 33, 64
2, 47848, Note_on_c, 0, 34, 89
2, 47920, Note_off_c, 0, 34, 64
2, 48021, Note_on_c, 0, 35, 110
2, 48701, Note_off_c, 0, 35, 64
2, 48806, Note_on_c, 0, 30, 100
2, 48953, Note_off_c, 0, 30, 64
2, 48958, Note_on_c, 0, 35, 74
2, 49374, Note_off_c, 0, 35, 64
2, 49457, Note_on_c, 0, 35, 101
2, 49611, Note_off_c, 0, 35, 64
2, 49615, Note_on_c, 0, 36, 58
2, 49735, Note_off_c, 0, 36, 64
2, 49764, Note_on_c, 0, 37, 89
2, 49810, Note_off_c, 0, 37, 64
2, 49939, Note_on_c, 0, 38, 97
2, 50646, Note_off_c, 0, 38, 64
2, 50722, Note_on_c, 0, 33, 88
2, 50890, Note_off_c, 0, 33, 64
2, 50901, Note_on_c, 0, 38, 90
2, 51394, Note_off_c, 0, 38, 64
2, 51518, Note_on_c, 0, 33, 80
2, 51658, Note_off_c, 0, 33, 64
2, 51687, Note_on_c, 0, 34, 86
2, 51795, Note_off_c, 0, 34, 64
2, 51860, Note_on_c, 0, 35, 94
2, 52555, Note_off_c, 0, 35, 64
2, 52660, Note_on_c, 0, 30, 100
2, 52805, Note_off_c, 0, 30, 64
2, 52818, Note_on_c, 0, 35, 82
2, 53332, Note_off_c, 0, 35, 64
2, 53440, Note_on_c, 0, 36, 94
2, 53561, Note_off_c, 0, 36, 64
2, 53607, Note_on_c, 0, 37, 100
2, 53732, Note_off_c, 0, 37, 64
2, 53765, Note_on_c, 0, 38, 92
2, 54578, Note_off_c, 0, 38, 64
2, 54583, Note_on_c, 0, 26, 104
2, 55553, Note_off_c, 0, 26, 64
2, 55703, Note_on_c, 0, 31, 113
2, 56385, Note_off_c, 0, 31, 64
2, 56508, Note_on_c, 0, 31, 88
2, 56551, Note_off_c, 0, 31, 64
2, 56658, Note_on_c, 0, 31, 83
2, 57375, Note_off_c, 0, 31, 64
2, 57602, Note_on_c, 0, 33, 107
2, 58364, Note_off_c, 0, 33, 64
2, 58435, Note_on_c, 0, 33, 75
2, 58477, Note_off_c, 0, 33, 64
2, 58578, Note_on_c, 0, 33, 88
2, 59408, Note_off_c, 0, 33, 64
2, 59527, Note_on_c, 0, 35, 88
2, 60221, Note_off_c, 0, 35, 64
2, 60320, Note_on_c, 0, 35, 86
2, 60381, Note_off_c, 0, 35, 64
2, 60488, Note_on_c, 0, 35, 101
2, 60586, Note_off_c, 0, 35, 64
2, 60721, Note_on_c, 0, 38, 107
2, 60811, Note_off_c, 0, 38, 64
2, 60964, Note_on_c, 0, 42, 106
2, 61060, Note_off_c, 0, 42, 64
2, 61205, Note_on_c, 0, 38, 113
2, 61286, Note_off_c, 0, 38, 64
2, 61448, Note_on_c, 0, 33, 104
2, 62246, Note_on_c, 0, 28, 68
2, 62249, Note_off_c, 0, 33, 64
2, 62411, Note_on_c, 0, 33, 90
2, 62414, Note_off_c, 0, 28, 64
2, 62723, Note_on_c, 0, 35, 94
2, 62728, Note_off_c, 0, 33, 64
2, 63053, Note_on_c, 0, 36, 80
2, 63057, Note_off_c, 0, 35, 64
2, 63192, Note_on_c, 0, 37, 92
2, 63205, Note_off_c, 0, 36, 64
2, 63359, Note_off_c, 0, 37, 64
2, 63368, Note_on_c, 0, 38, 88
2, 63458, Note_off_c, 0, 38, 64
2, 63691, Note_on_c, 0, 38, 99
2, 63852, Note_off_c, 0, 38, 64
2, 63857, Note_on_c, 0, 36, 97
2, 63947, Note_off_c, 0, 36, 64
2, 64188, Note_on_c, 0, 36, 104
2, 64334, Note_off_c, 0, 36, 64
2, 64344, Note_on_c, 0, 35, 83
2, 64441, Note_off_c, 0, 35, 64
2, 64663, Note_on_c, 0, 35, 94
2, 64813, Note_off_c, 0, 35, 64
2, 64828, Note_on_c, 0, 33, 99
2, 64923, Note_off_c, 0, 33, 64
2, 65128, Note_on_c, 0, 33, 94
2, 65241, Note_off_c, 0, 33, 64
2, 65296, Note_on_c, 0, 31, 83
2, 66142, Note_off_c, 0, 31, 64
2, 66251, Note_on_c, 0, 31, 94
2, 66935, Note_off_c, 0, 31, 64
2, 67034, Note_on_c, 0, 31, 86
2, 67158, Note_off_c, 0, 31, 64
2, 67211, Note_on_c, 0, 33, 113
2, 67860, Note_on_c, 0, 43, 82
2, 67865, Note_off_c, 0, 33, 64
2, 67914, Note_off_c, 0, 43, 64
2, 68012, Note_on_c, 0, 44, 89
2, 68156, Note_off_c, 0, 44, 64
2, 68164, Note_on_c, 0, 45, 69
2, 68324, Note_off_c, 0, 45, 64
2, 68326, Note_on_c, 0, 38, 76
2, 68465, Note_off_c, 0, 38, 64
2, 68478, Note_on_c, 0, 39, 86
2, 68637, Note_off_c, 0, 39, 64
2, 68642, Note_on_c, 0, 40, 70
2, 68785, Note_off_c, 0, 40, 64
2, 68794, Note_on_c, 0, 33, 80
2, 68900, Note_off_c, 0, 33, 64
2, 68952, Note_on_c, 0, 32, 89
2, 69069, Note_off_c, 0, 32, 64
2, 69115, Note_on_c, 0, 31, 99
2, 69865, Note_off_c, 0, 31, 64
2, 69922, Note_on_c, 0, 38, 88
2, 69975, Note_off_c, 0, 38, 64
2, 70096, Note_on_c, 0, 43, 76
2, 70681, Note_off_c, 0, 43, 64
2, 70742, Note_on_c, 0, 31, 86
2, 70832, Note_off_c, 0, 31, 64
2, 70896, Note_on_c, 0, 32, 100
2, 70985, Note_off_c, 0, 32, 64
2, 71052, Note_on_c, 0, 33, 107
2, 72180, Note_off_c, 0, 33, 64
2, 72319, Note_on_c, 0, 38, 65
2, 72384, Note_off_c, 0, 38, 64
2, 72490, Note_on_c, 0, 38, 92
2, 72551, Note_off_c, 0, 38, 64
2, 72647, Note_on_c, 0, 38, 97
2, 72712, Note_off_c, 0, 38, 64
2, 72796, Note_on_c, 0, 38, 97
2, 72944, Note_off_c, 0, 38, 64
2, 72980, Note_on_c, 0, 31, 82
2, 73654, Note_off_c, 0, 31, 64
2, 73781, Note_on_c, 0, 31, 82
2, 73825, Note_off_c, 0, 31, 64
2, 73932, Note_on_c, 0, 31, 79
2, 74751, Note_off_c, 0, 31, 64
2, 74894, Note_on_c, 0, 33, 92
2, 75581, Note_off_c, 0, 33, 64
2, 75698, Note_on_c, 0, 33, 85
2, 75744, Note_off_c, 0, 33, 64
2, 75859, Note_on_c, 0, 33, 86
2, 76623, Note_off_c, 0, 33, 64
2, 76818, Note_on_c, 0, 35, 104
2, 77510, Note_off_c, 0, 35, 64
2, 77625, Note_on_c, 0, 35, 97
2, 77710, Note_off_c, 0, 35, 64
2, 77769, Note_on_c, 0, 47, 96
2, 77853, Note_off_c, 0, 47, 64
2, 78002, Note_on_c, 0, 42, 100
2, 78092, Note_off_c, 0, 42, 64
2, 78243, Note_on_c, 0, 38, 97
2, 78354, Note_off_c, 0, 38, 64
2, 78481, Note_on_c, 0, 35, 103
2, 78583, Note_off_c, 0, 35, 64
2, 78746, Note_on_c, 0, 33, 90
2, 79364, Note_off_c, 0, 33, 64
2, 79366, Note_on_c, 0, 43, 73
2, 79408, Note_off_c, 0, 43, 64
2, 79520, Note_on_c, 0, 44, 71
2, 79568, Note_off_c, 0, 44, 64
2, 79686, Note_on_c, 0, 45, 62
2, 80341, Note_on_c, 0, 40, 80
2, 80351, Note_off_c, 0, 45, 64
2, 80494, Note_on_c, 0, 35, 76
2, 80497, Note_off_c, 0, 40, 64
2, 80659, Note_off_c, 0, 35, 64
2, 80660, Note_on_c, 0, 38, 92
2, 80744, Note_off_c, 0, 38, 64
2, 80967, Note_on_c, 0, 38, 92
2, 81142, Note_off_c, 0, 38, 64
2, 81145, Note_on_c, 0, 36, 99
2, 81239, Note_off_c, 0, 36, 64
2, 81450, Note_on_c, 0, 36, 88
2, 81630, Note_on_c, 0, 35, 85
2, 81633, Note_off_c, 0, 36, 64
2, 81724, Note_off_c, 0, 35, 64
2, 81915, Note_on_c, 0, 35, 99
2, 82090, Note_off_c, 0, 35, 64
2, 82100, Note_on_c, 0, 33, 97
2, 82210, Note_off_c, 0, 33, 64
2, 82410, Note_on_c, 0, 33, 104
2, 82584, Note_off_c, 0, 33, 64
2, 82590, Note_on_c, 0, 31, 92
2, 83251, Note_off_c, 0, 31, 64
2, 83369, Note_on_c, 0, 31, 83
2, 83416, Note_off_c, 0, 31, 64
2, 83534, Note_on_c, 0, 31, 88
2, 84130, Note_off_c, 0, 31, 64
2, 84161, Note_on_c, 0, 31, 79
2, 84280, Note_off_c, 0, 31, 64
2, 84323, Note_on_c, 0, 32, 89
2, 84419, Note_off_c, 0, 32, 64
2, 84492, Note_on_c, 0, 33, 99
2, 85131, Note_off_c, 0, 33, 64
2, 85133, Note_on_c, 0, 47, 64
2, 85178, Note_off_c, 0, 47, 64
2, 85283, Note_on_c, 0, 46, 60
2, 85332, Note_off_c, 0, 46, 64
2, 85444, Note_on_c, 0, 45, 62
2, 86088, Note_on_c, 0, 33, 85
2, 86096, Note_off_c, 0, 45, 64
2, 86240, Note_on_c, 0, 42, 81
2, 86244, Note_off_c, 0, 33, 64
2, 86405, Note_off_c, 0, 42, 64
2, 86417, Note_on_c, 0, 43, 75
2, 87044, Note_on_c, 0, 38, 75
2, 87056, Note_off_c, 0, 43, 64
2, 87207, Note_off_c, 0, 38, 64
2, 87210, Note_on_c, 0, 40, 63
2, 87371, Note_on_c, 0, 31, 76
2, 87374, Note_off_c, 0, 40, 64
2, 88009, Note_off_c, 0, 31, 64
2, 88022, Note_on_c, 0, 35, 80
2, 88084, Note_off_c, 0, 35, 64
2, 88162, Note_on_c, 0, 34, 73
2, 88225, Note_off_c, 0, 34, 64
2, 88326, Note_on_c, 0, 33, 79
2, 89077, Note_off_c, 0, 33, 64
2, 89131, Note_on_c, 0, 33, 85
2, 89285, Note_off_c, 0, 33, 64
2, 89305, Note_on_c, 0, 45, 79
2, 89459, Note_on_c, 0, 33, 88
2, 89462, Note_off_c, 0, 45, 64
2, 89569, Note_off_c, 0, 33, 64
2, 89925, Note_on_c, 0, 33, 92
2, 90056, Note_off_c, 0, 33, 64
2, 90088, Note_on_c, 0, 34, 89
2, 90160, Note_off_c, 0, 34, 64
2, 90261, Note_on_c, 0, 35, 110
2, 90941, Note_off_c, 0, 35, 64
2, 91046, Note_on_c, 0, 30, 100
2, 91193, Note_off_c, 0, 30, 64
2, 91198, Note_on_c, 0, 35, 74
2, 91614, Note_off_c, 0, 35, 64
2, 91697, Note_on_c, 0, 35, 101
2, 91851, Note_off_c, 0, 35, 64
2, 91855, Note_on_c, 0, 36, 58
2, 91975, Note_off_c, 0, 36, 64
2, 92004, Note_on_c, 0, 37, 89
2, 92050, Note_off_c, 0, 37, 64
2, 92179, Note_on_c, 0, 38, 97
2, 92886, Note_off_c, 0, 38, 64
2, 92962, Note_on_c, 0, 33, 88
2, 93130, Note_off_c, 0, 33, 64
2, 93141, Note_on_c, 0, 38, 90
2, 93634, Note_off_c, 0, 38, 64
2, 93758, Note_on_c, 0, 33, 80
2, 93898, Note_off_c, 0, 33, 64
2, 93927, Note_on_c, 0, 34, 86
2, 94035, Note_off_c, 0, 34, 64
2, 94100, Note_on_c, 0, 35, 94
2, 94795, Note_off_c, 0, 35, 64
2, 94900, Note_on_c, 0, 30, 100
2, 95045, Note_off_c, 0, 30, 64
2, 95058, Note_on_c, 0, 35, 82
2, 95572, Note_off_c, 0, 35, 64
2, 95680, Note_on_c, 0, 36, 94
2, 95801, Note_off_c, 0, 36, 64
2, 95847, Note_on_c, 0, 37, 100
2, 95972, Note_off_c, 0, 37, 64
2, 96005, Note_on_c, 0, 38, 92
2, 96818, Note_off_c, 0, 38, 64
2, 96823, Note_on_c, 0, 26, 104
2, 97793, Note_off_c, 0, 26, 64
2, 97943, Note_on_c, 0, 31, 113
2, 98625, Note_off_c, 0, 31, 64
2, 98748, Note_on_c, 0, 31, 88
2, 98791, Note_off_c, 0, 31, 64
2, 98898, Note_on_c, 0, 31, 83
2, 99615, Note_off_c, 0, 31, 64
2, 99842, Note_on_c, 0, 33, 107
2, 100604, Note_off_c, 0, 33, 64
2, 100675, Note_on_c, 0, 33, 75
2, 100717, Note_off_c, 0, 33, 64
2, 100818, Note_on_c, 0, 33, 88
2, 101648, Note_off_c, 0, 33, 64
2, 101767, Note_on_c, 0, 35, 88
2, 102461, Note_off_c, 0, 35, 64
2, 102560, Note_on_c, 0, 35, 86
2, 102621, Note_off_c, 0, 35, 64
2, 102728, Note_on_c, 0, 35, 101
2, 102826, Note_off_c, 0, 35, 64
2, 102961, Note_on_c, 0, 38, 107
2, 103051, Note_off_c, 0, 38, 64
2, 103204, Note_on_c, 0, 42, 106
2, 103300, Note_off_c, 0, 42, 64
2, 103445, Note_on_c, 0, 38, 113
2, 103526, Note_off_c, 0, 38, 64
2, 103688, Note_on_c, 0, 33, 104
2, 104486, Note_on_c, 0, 28, 68
2, 104489, Note_off_c, 0, 33, 64
2, 104651, Note_on_c, 0, 33, 90
2, 104654, Note_off_c, 0, 28, 64
2, 104963, Note_on_c, 0, 35, 94
2, 104968, Note_off_c, 0, 33, 64
2, 105293, Note_on_c, 0, 36, 80
2, 105297, Note_off_c, 0, 35, 64
2, 105432, Note_on_c, 0, 37, 92
2, 105445, Note_off_c, 0, 36, 64
2, 105599, Note_off_c, 0, 37, 64
2, 105608, Note_on_c, 0, 38, 88
2, 105698, Note_off_c, 0, 38, 64
2, 105931, Note_on_c, 0, 38, 99
2, 106092, Note_off_c, 0, 38, 64
2, 106097, Note_on_c, 0, 36, 97
2, 106187, Note_off_c, 0, 36, 64
2, 106428, Note_on_c, 0, 36, 104
2, 106574, Note_off_c, 0, 36, 64
2, 106584, Note_on_c, 0, 35, 83
2, 106681, Note_off_c, 0, 35, 64
2, 106903, Note_on_c, 0, 35, 94
2, 107053, Note_off_c, 0, 35, 64
2, 107068, Note_on_c, 0, 33, 99
2, 107163, Note_off_c, 0, 33, 64
2, 107368, Note_on_c, 0, 33, 94
2, 107481, Note_off_c, 0, 33, 64
2, 107520, Note_on_c, 0, 31, 94
2, 108200, Note_off_c, 0, 31, 64
2, 108320, Note_on_c, 0, 31, 97
2, 108398, Note_off_c, 0, 31, 64
2, 108480, Note_on_c, 0, 31, 107
2, 109067, Note_off_c, 0, 31, 64
2, 109120, Note_on_c, 0, 31, 92
2, 109249, Note_off_c, 0, 31, 64
2, 109280, Note_on_c, 0, 35, 97
2, 109435, Note_off_c, 0, 35, 64
2, 109440, Note_on_c, 0, 33, 101
2, 110104, Note_off_c, 0, 33, 64
2, 110240, Note_on_c, 0, 33, 120
2, 110284, Note_off_c, 0, 33, 64
2, 110400, Note_on_c, 0, 33, 92
2, 110560, Note_on_c, 0, 43, 75
2, 110569, Note_off_c, 0, 33, 64
2, 110720, Note_on_c, 0, 44, 92
2, 110722, Note_off_c, 0, 43, 64
2, 110880, Note_on_c, 0, 45, 82
2, 110885, Note_off_c, 0, 44, 64
2, 111040, Note_on_c, 0, 38, 92
2, 111041, Note_off_c, 0, 45, 64
2, 111180, Note_off_c, 0, 38, 64
2, 111200, Note_on_c, 0, 45, 104
2, 111360, Note_on_c, 0, 43, 79
2, 111364, Note_off_c, 0, 45, 64
2, 112090, Note_off_c, 0, 43, 64
2, 112160, Note_on_c, 0, 38, 104
2, 112258, Note_off_c, 0, 38, 64
2, 112320, Note_on_c, 0, 31, 85
2, 113013, Note_off_c, 0, 31, 64
2, 113120, Note_on_c, 0, 31, 97
2, 113237, Note_off_c, 0, 31, 64
2, 113280, Note_on_c, 0, 33, 107
2, 114010, Note_off_c, 0, 33, 64
2, 114080, Note_on_c, 0, 33, 99
2, 114124, Note_off_c, 0, 33, 64
2, 114240, Note_on_c, 0, 33, 97
2, 114383, Note_off_c, 0, 33, 64
2, 114400, Note_on_c, 0, 35, 90
2, 114521, Note_off_c, 0, 35, 64
2, 114560, Note_on_c, 0, 36, 107
2, 114680, Note_off_c, 0, 36, 64
2, 114880, Note_on_c, 0, 38, 113
2, 114989, Note_off_c, 0, 38, 64
2, 115040, Note_on_c, 0, 40, 70
2, 115200, Note_on_c, 0, 31, 99
2, 115212, Note_off_c, 0, 40, 64
2, 115902, Note_off_c, 0, 31, 64
2, 116000, Note_on_c, 0, 38, 97
2, 116125, Note_off_c, 0, 38, 64
2, 116160, Note_on_c, 0, 43, 97
2, 116800, Note_on_c, 0, 47, 85
2, 116802, Note_off_c, 0, 43, 64
2, 116918, Note_off_c, 0, 47, 64
2, 116960, Note_on_c, 0, 46, 92
2, 117093, Note_off_c, 0, 46, 64
2, 117120, Note_on_c, 0, 45, 90
2, 117989, Note_off_c, 0, 45, 64
2, 118080, Note_on_c, 0, 43, 76
2, 118080, Note_on_c, 0, 45, 99
2, 118129, Note_off_c, 0, 43, 64
2, 118196, Note_off_c, 0, 45, 64
2, 118240, Note_on_c, 0, 43, 85
2, 118320, Note_off_c, 0, 43, 64
2, 118400, Note_on_c, 0, 40, 92
2, 118526, Note_off_c, 0, 40, 64
2, 118560, Note_on_c, 0, 38, 101
2, 118692, Note_off_c, 0, 38, 64
2, 118720, Note_on_c, 0, 35, 94
2, 118845, Note_off_c, 0, 35, 64
2, 118880, Note_on_c, 0, 33, 99
2, 119012, Note_off_c, 0, 33, 64
2, 119040, Note_on_c, 0, 31, 88
2, 119703, Note_off_c, 0, 31, 64
2, 119840, Note_on_c, 0, 26, 86
2, 119989, Note_off_c, 0, 26, 64
2, 120000, Note_on_c, 0, 31, 99
2, 120120, Note_off_c, 0, 31, 64
2, 120480, Note_on_c, 0, 31, 120
2, 120607, Note_off_c, 0, 31, 64
2, 120960, Note_on_c, 0, 33, 104
2, 123360, Note_off_c, 0, 33, 64
2, 123360, End_track
3, 0, Start_track
3, 0, Title_t, "Guitar  (BB) (none)"
3, 0, MIDI_port, 0
3, 0, Channel_prefix, 1
3, 0, Control_c, 1, 7, 84
3, 0, Control_c, 1, 10, 24
3, 0, Control_c, 1, 91, 59
3, 0, Control_c, 1, 93, 29
3, 0, Program_c, 1, 24
3, 0, Control_c, 1, 121, 0
3, 2400, Note_on_c, 1, 47, 67
3, 2404, Note_on_c, 1, 57, 66
3, 2407, Note_on_c, 1, 54, 58
3, 2410, Note_on_c, 1, 62, 70
3, 2412, Note_on_c, 1, 66, 77
3, 2494, Note_off_c, 1, 62, 64
3, 2508, Note_off_c, 1, 47, 64
3, 2509, Note_off_c, 1, 57, 64
3, 2509, Note_off_c, 1, 54, 64
3, 2514, Note_off_c, 1, 66, 64
3, 3360, Note_on_c, 1, 57, 62
3, 3363, Note_on_c, 1, 47, 70
3, 3367, Note_on_c, 1, 54, 54
3, 3372, Note_on_c, 1, 62, 66
3, 3381, Note_on_c, 1, 66, 77
3, 3459, Note_off_c, 1, 47, 64
3, 3474, Note_off_c, 1, 62, 64
3, 3476, Note_off_c, 1, 57, 64
3, 3484, Note_off_c, 1, 54, 64
3, 3486, Note_off_c, 1, 66, 64
3, 4320, Note_on_c, 1, 50, 66
3, 4326, Note_on_c, 1, 55, 70
3, 4326, Note_on_c, 1, 60, 60
3, 4334, Note_on_c, 1, 64, 62
3, 4334, Note_on_c, 1, 67, 82
3, 4423, Note_off_c, 1, 50, 64
3, 4426, Note_off_c, 1, 67, 64
3, 4431, Note_off_c, 1, 64, 64
3, 4435, Note_off_c, 1, 55, 64
3, 4437, Note_off_c, 1, 60, 64
3, 5286, Note_on_c, 1, 60, 66
3, 5290, Note_on_c, 1, 55, 73
3, 5292, Note_on_c, 1, 64, 86
3, 5298, Note_on_c, 1, 50, 64
3, 5300, Note_on_c, 1, 67, 97
3, 5388, Note_off_c, 1, 60, 64
3, 5389, Note_off_c, 1, 64, 64
3, 5390, Note_off_c, 1, 67, 64
3, 5397, Note_off_c, 1, 55, 64
3, 5402, Note_off_c, 1, 50, 64
3, 6262, Note_on_c, 1, 54, 68
3, 6265, Note_on_c, 1, 47, 68
3, 6269, Note_on_c, 1, 62, 88
3, 6270, Note_on_c, 1, 66, 81
3, 6270, Note_on_c, 1, 57, 75
3, 6345, Note_off_c, 1, 47, 64
3, 6350, Note_off_c, 1, 62, 64
3, 6357, Note_off_c, 1, 54, 64
3, 6361, Note_off_c, 1, 57, 64
3, 6365, Note_off_c, 1, 66, 64
3, 7217, Note_on_c, 1, 66, 84
3, 7220, Note_on_c, 1, 62, 90
3, 7221, Note_on_c, 1, 54, 75
3, 7221, Note_on_c, 1, 57, 70
3, 7222, Note_on_c, 1, 47, 65
3, 7302, Note_off_c, 1, 47, 64
3, 7305, Note_off_c, 1, 62, 64
3, 7313, Note_off_c, 1, 66, 64
3, 7314, Note_off_c, 1, 54, 64
3, 7315, Note_off_c, 1, 57, 64
3, 8175, Note_on_c, 1, 67, 92
3, 8176, Note_on_c, 1, 64, 92
3, 8182, Note_on_c, 1, 60, 71
3, 8182, Note_on_c, 1, 57, 76
3, 8183, Note_on_c, 1, 50, 60
3, 8255, Note_off_c, 1, 67, 64
3, 8261, Note_off_c, 1, 64, 64
3, 8263, Note_off_c, 1, 50, 64
3, 8275, Note_off_c, 1, 57, 64
3, 8276, Note_off_c, 1, 60, 64
3, 9140, Note_on_c, 1, 57, 68
3, 9142, Note_on_c, 1, 50, 57
3, 9146, Note_on_c, 1, 60, 67
3, 9146, Note_on_c, 1, 64, 88
3, 9147, Note_on_c, 1, 67, 92
3, 9218, Note_off_c, 1, 67, 64
3, 9223, Note_off_c, 1, 64, 64
3, 9237, Note_off_c, 1, 57, 64
3, 9241, Note_off_c, 1, 50, 64
3, 9244, Note_off_c, 1, 60, 64
3, 10078, Note_on_c, 1, 47, 64
3, 10084, Note_on_c, 1, 57, 58
3, 10092, Note_on_c, 1, 62, 65
3, 10096, Note_on_c, 1, 54, 55
3, 10107, Note_on_c, 1, 66, 77
3, 10177, Note_off_c, 1, 62, 64
3, 10186, Note_off_c, 1, 57, 64
3, 10196, Note_off_c, 1, 47, 64
3, 10200, Note_off_c, 1, 54, 64
3, 10208, Note_off_c, 1, 66, 64
3, 11058, Note_on_c, 1, 47, 63
3, 11061, Note_on_c, 1, 54, 73
3, 11065, Note_on_c, 1, 66, 77
3, 11070, Note_on_c, 1, 57, 76
3, 11070, Note_on_c, 1, 62, 86
3, 11159, Note_off_c, 1, 47, 64
3, 11164, Note_off_c, 1, 54, 64
3, 11169, Note_off_c, 1, 57, 64
3, 11176, Note_off_c, 1, 62, 64
3, 11198, Note_off_c, 1, 66, 64
3, 11996, Note_on_c, 1, 50, 55
3, 12005, Note_on_c, 1, 64, 58
3, 12010, Note_on_c, 1, 57, 67
3, 12013, Note_on_c, 1, 67, 74
3, 12018, Note_on_c, 1, 72, 92
3, 12100, Note_off_c, 1, 67, 64
3, 12101, Note_off_c, 1, 50, 64
3, 12103, Note_off_c, 1, 57, 64
3, 12106, Note_off_c, 1, 72, 64
3, 12107, Note_off_c, 1, 64, 64
3, 12461, Note_on_c, 1, 50, 46
3, 12467, Note_on_c, 1, 57, 45
3, 12471, Note_on_c, 1, 64, 39
3, 12492, Note_on_c, 1, 67, 57
3, 12496, Note_on_c, 1, 74, 66
3, 13193, Note_off_c, 1, 57, 64
3, 13204, Note_off_c, 1, 50, 64
3, 13253, Note_off_c, 1, 74, 64
3, 13255, Note_off_c, 1, 67, 64
3, 13271, Note_off_c, 1, 64, 64
3, 13914, Note_on_c, 1, 47, 42
3, 13922, Note_on_c, 1, 54, 37
3, 13935, Note_on_c, 1, 57, 44
3, 13938, Note_on_c, 1, 59, 41
3, 13942, Note_on_c, 1, 62, 56
3, 13949, Note_on_c, 1, 66, 43
3, 13986, Note_off_c, 1, 47, 64
3, 14000, Note_off_c, 1, 62, 64
3, 14008, Note_off_c, 1, 59, 64
3, 14009, Note_off_c, 1, 54, 64
3, 14011, Note_off_c, 1, 57, 64
3, 14013, Note_off_c, 1, 66, 64
3, 14873, Note_on_c, 1, 47, 55
3, 14893, Note_on_c, 1, 54, 40
3, 14897, Note_on_c, 1, 59, 52
3, 14900, Note_on_c, 1, 62, 62
3, 14908, Note_on_c, 1, 66, 46
3, 14982, Note_off_c, 1, 47, 64
3, 14985, Note_off_c, 1, 62, 64
3, 14992, Note_off_c, 1, 59, 64
3, 15004, Note_off_c, 1, 66, 64
3, 15013, Note_off_c, 1, 54, 64
3, 15852, Note_on_c, 1, 48, 44
3, 15855, Note_on_c, 1, 45, 54
3, 15860, Note_on_c, 1, 67, 66
3, 15860, Note_on_c, 1, 64, 60
3, 15860, Note_on_c, 1, 60, 57
3, 15873, Note_on_c, 1, 55, 54
3, 15948, Note_off_c, 1, 67, 64
3, 15952, Note_off_c, 1, 64, 64
3, 15954, Note_off_c, 1, 48, 64
3, 15956, Note_off_c, 1, 45, 64
3, 15958, Note_off_c, 1, 60, 64
3, 15971, Note_off_c, 1, 55, 64
3, 16824, Note_on_c, 1, 64, 75
3, 16828, Note_on_c, 1, 60, 65
3, 16829, Note_on_c, 1, 67, 68
3, 16829, Note_on_c, 1, 45, 60
3, 16839, Note_on_c, 1, 55, 62
3, 16899, Note_off_c, 1, 64, 64
3, 16900, Note_off_c, 1, 67, 64
3, 16911, Note_off_c, 1, 60, 64
3, 16924, Note_off_c, 1, 45, 64
3, 16937, Note_off_c, 1, 55, 64
3, 17778, Note_on_c, 1, 47, 54
3, 17781, Note_on_c, 1, 54, 42
3, 17785, Note_on_c, 1, 66, 79
3, 17785, Note_on_c, 1, 62, 63
3, 17794, Note_on_c, 1, 71, 50
3, 17794, Note_on_c, 1, 57, 45
3, 17864, Note_off_c, 1, 66, 64
3, 17864, Note_off_c, 1, 47, 64
3, 17871, Note_off_c, 1, 54, 64
3, 17871, Note_off_c, 1, 71, 64
3, 17876, Note_off_c, 1, 57, 64
3, 17880, Note_off_c, 1, 62, 64
3, 18734, Note_on_c, 1, 47, 60
3, 18737, Note_on_c, 1, 66, 79
3, 18738, Note_on_c, 1, 71, 58
3, 18740, Note_on_c, 1, 54, 42
3, 18740, Note_on_c, 1, 62, 64
3, 18755, Note_on_c, 1, 57, 60
3, 18811, Note_off_c, 1, 47, 64
3, 18826, Note_off_c, 1, 66, 64
3, 18832, Note_off_c, 1, 57, 64
3, 18833, Note_off_c, 1, 71, 64
3, 18835, Note_off_c, 1, 54, 64
3, 18841, Note_off_c, 1, 62, 64
3, 19691, Note_on_c, 1, 64, 63
3, 19695, Note_on_c, 1, 45, 62
3, 19696, Note_on_c, 1, 69, 58
3, 19696, Note_on_c, 1, 55, 58
3, 19697, Note_on_c, 1, 60, 56
3, 19778, Note_off_c, 1, 64, 64
3, 19779, Note_off_c, 1, 69, 64
3, 19783, Note_off_c, 1, 45, 64
3, 19789, Note_off_c, 1, 60, 64
3, 19801, Note_off_c, 1, 55, 64
3, 20653, Note_on_c, 1, 69, 57
3, 20656, Note_on_c, 1, 64, 72
3, 20657, Note_on_c, 1, 60, 62
3, 20665, Note_on_c, 1, 45, 58
3, 20665, Note_on_c, 1, 55, 62
3, 20729, Note_off_c, 1, 45, 64
3, 20737, Note_off_c, 1, 60, 64
3, 20745, Note_off_c, 1, 64, 64
3, 20756, Note_off_c, 1, 69, 64
3, 20757, Note_off_c, 1, 55, 64
3, 21141, Note_on_c, 1, 62, 60
3, 21144, Note_on_c, 1, 50, 66
3, 21188, Note_off_c, 1, 50, 64
3, 21644, Note_off_c, 1, 62, 64
3, 23067, Note_on_c, 1, 43, 57
3, 23214, Note_on_c, 1, 59, 66
3, 23375, Note_on_c, 1, 62, 58
3, 23533, Note_on_c, 1, 66, 49
3, 23541, Note_off_c, 1, 62, 64
3, 23698, Note_off_c, 1, 59, 64
3, 23699, Note_on_c, 1, 62, 54
3, 23840, Note_on_c, 1, 59, 43
3, 23850, Note_off_c, 1, 43, 64
3, 24014, Note_on_c, 1, 43, 61
3, 24031, Note_off_c, 1, 62, 64
3, 24033, Note_off_c, 1, 59, 64
3, 24058, Note_off_c, 1, 66, 64
3, 24185, Note_on_c, 1, 59, 68
3, 24331, Note_on_c, 1, 62, 69
3, 24483, Note_on_c, 1, 66, 60
3, 24492, Note_off_c, 1, 62, 64
3, 24646, Note_off_c, 1, 59, 64
3, 24647, Note_on_c, 1, 62, 59
3, 24747, Note_off_c, 1, 43, 64
3, 24790, Note_on_c, 1, 59, 55
3, 24956, Note_on_c, 1, 45, 62
3, 24965, Note_off_c, 1, 62, 64
3, 24980, Note_off_c, 1, 66, 64
3, 24983, Note_off_c, 1, 59, 64
3, 25129, Note_on_c, 1, 57, 71
3, 25291, Note_on_c, 1, 60, 62
3, 25447, Note_on_c, 1, 64, 67
3, 25457, Note_off_c, 1, 60, 64
3, 25604, Note_off_c, 1, 57, 64
3, 25606, Note_on_c, 1, 60, 50
3, 25761, Note_off_c, 1, 45, 64
3, 25764, Note_on_c, 1, 57, 54
3, 25923, Note_off_c, 1, 64, 64
3, 25926, Note_off_c, 1, 60, 64
3, 25929, Note_off_c, 1, 57, 64
3, 25934, Note_on_c, 1, 45, 62
3, 26105, Note_on_c, 1, 57, 62
3, 26263, Note_on_c, 1, 60, 58
3, 26420, Note_off_c, 1, 60, 64
3, 26426, Note_on_c, 1, 64, 69
3, 26458, Note_off_c, 1, 57, 64
3, 26580, Note_on_c, 1, 60, 57
3, 26704, Note_off_c, 1, 45, 64
3, 26730, Note_on_c, 1, 57, 58
3, 26890, Note_off_c, 1, 64, 64
3, 26896, Note_off_c, 1, 60, 64
3, 26899, Note_off_c, 1, 57, 64
3, 26904, Note_on_c, 1, 43, 67
3, 27065, Note_on_c, 1, 59, 79
3, 27207, Note_on_c, 1, 62, 66
3, 27359, Note_on_c, 1, 66, 66
3, 27368, Note_off_c, 1, 62, 64
3, 27521, Note_on_c, 1, 62, 60
3, 27524, Note_off_c, 1, 59, 64
3, 27680, Note_on_c, 1, 59, 57
3, 27684, Note_off_c, 1, 43, 64
3, 27849, Note_on_c, 1, 43, 69
3, 27858, Note_off_c, 1, 59, 64
3, 27859, Note_off_c, 1, 62, 64
3, 27878, Note_off_c, 1, 66, 64
3, 28024, Note_on_c, 1, 59, 61
3, 28173, Note_on_c, 1, 62, 63
3, 28327, Note_on_c, 1, 66, 53
3, 28334, Note_off_c, 1, 62, 64
3, 28481, Note_on_c, 1, 62, 51
3, 28501, Note_off_c, 1, 59, 64
3, 28617, Note_off_c, 1, 43, 64
3, 28636, Note_on_c, 1, 59, 55
3, 28796, Note_off_c, 1, 62, 64
3, 28803, Note_off_c, 1, 66, 64
3, 28804, Note_on_c, 1, 45, 66
3, 28813, Note_off_c, 1, 59, 64
3, 28971, Note_on_c, 1, 55, 70
3, 29131, Note_on_c, 1, 60, 67
3, 29295, Note_on_c, 1, 64, 64
3, 29299, Note_off_c, 1, 60, 64
3, 29339, Note_off_c, 1, 55, 64
3, 29455, Note_on_c, 1, 60, 61
3, 29579, Note_off_c, 1, 64, 64
3, 29592, Note_off_c, 1, 60, 64
3, 29598, Note_on_c, 1, 55, 48
3, 29768, Note_on_c, 1, 64, 62
3, 29907, Note_off_c, 1, 64, 64
3, 29934, Note_on_c, 1, 60, 36
3, 30082, Note_on_c, 1, 62, 70
3, 30087, Note_off_c, 1, 60, 64
3, 30304, Note_off_c, 1, 45, 64
3, 30649, Note_off_c, 1, 55, 64
3, 30690, Note_off_c, 1, 62, 64
3, 31231, Note_on_c, 1, 59, 60
3, 31235, Note_on_c, 1, 62, 62
3, 31239, Note_on_c, 1, 43, 55
3, 31240, Note_on_c, 1, 66, 71
3, 31240, Note_on_c, 1, 50, 57
3, 31314, Note_off_c, 1, 59, 64
3, 31316, Note_off_c, 1, 62, 64
3, 31321, Note_off_c, 1, 43, 64
3, 31323, Note_off_c, 1, 50, 64
3, 31327, Note_off_c, 1, 66, 64
3, 32190, Note_on_c, 1, 66, 64
3, 32193, Note_on_c, 1, 59, 58
3, 32194, Note_on_c, 1, 43, 61
3, 32194, Note_on_c, 1, 62, 70
3, 32197, Note_on_c, 1, 50, 60
3, 32274, Note_off_c, 1, 62, 64
3, 32285, Note_off_c, 1, 43, 64
3, 32286, Note_off_c, 1, 59, 64
3, 32286, Note_off_c, 1, 50, 64
3, 32290, Note_off_c, 1, 66, 64
3, 33149, Note_on_c, 1, 45, 55
3, 33152, Note_on_c, 1, 64, 63
3, 33153, Note_on_c, 1, 60, 62
3, 33153, Note_on_c, 1, 52, 58
3, 33154, Note_on_c, 1, 67, 64
3, 33243, Note_off_c, 1, 45, 64
3, 33245, Note_off_c, 1, 64, 64
3, 33246, Note_off_c, 1, 67, 64
3, 33249, Note_off_c, 1, 52, 64
3, 33250, Note_off_c, 1, 60, 64
3, 34095, Note_on_c, 1, 60, 58
3, 34100, Note_on_c, 1, 45, 49
3, 34102, Note_on_c, 1, 64, 61
3, 34108, Note_on_c, 1, 52, 66
3, 34113, Note_on_c, 1, 67, 72
3, 34195, Note_off_c, 1, 67, 64
3, 34197, Note_off_c, 1, 60, 64
3, 34198, Note_off_c, 1, 64, 64
3, 34210, Note_off_c, 1, 45, 64
3, 34212, Note_off_c, 1, 52, 64
3, 35052, Note_on_c, 1, 62, 57
3, 35055, Note_on_c, 1, 54, 58
3, 35056, Note_on_c, 1, 66, 81
3, 35057, Note_on_c, 1, 47, 57
3, 35067, Note_on_c, 1, 69, 72
3, 35152, Note_off_c, 1, 69, 64
3, 35155, Note_off_c, 1, 66, 64
3, 35160, Note_off_c, 1, 47, 64
3, 35163, Note_off_c, 1, 54, 64
3, 35168, Note_off_c, 1, 62, 64
3, 36021, Note_on_c, 1, 62, 62
3, 36024, Note_on_c, 1, 54, 69
3, 36024, Note_on_c, 1, 66, 86
3, 36032, Note_on_c, 1, 69, 73
3, 36033, Note_on_c, 1, 47, 60
3, 36120, Note_off_c, 1, 47, 64
3, 36126, Note_off_c, 1, 66, 64
3, 36129, Note_off_c, 1, 69, 64
3, 36133, Note_off_c, 1, 62, 64
3, 36138, Note_off_c, 1, 54, 64
3, 36978, Note_on_c, 1, 60, 59
3, 36982, Note_on_c, 1, 64, 74
3, 36983, Note_on_c, 1, 45, 67
3, 36990, Note_on_c, 1, 52, 67
3, 36990, Note_on_c, 1, 67, 73
3, 37064, Note_off_c, 1, 45, 64
3, 37065, Note_off_c, 1, 60, 64
3, 37067, Note_off_c, 1, 67, 64
3, 37068, Note_off_c, 1, 64, 64
3, 37073, Note_off_c, 1, 52, 64
3, 37931, Note_on_c, 1, 45, 60
3, 37935, Note_on_c, 1, 52, 60
3, 37939, Note_on_c, 1, 60, 66
3, 37939, Note_on_c, 1, 64, 78
3, 37948, Note_on_c, 1, 67, 71
3, 38022, Note_off_c, 1, 67, 64
3, 38025, Note_off_c, 1, 64, 64
3, 38032, Note_off_c, 1, 60, 64
3, 38032, Note_off_c, 1, 45, 64
3, 38046, Note_off_c, 1, 52, 64
3, 38429, Note_on_c, 1, 62, 60
3, 38937, Note_off_c, 1, 62, 64
3, 40329, Note_on_c, 1, 43, 66
3, 40478, Note_on_c, 1, 50, 68
3, 40633, Note_on_c, 1, 59, 75
3, 40804, Note_on_c, 1, 66, 57
3, 40950, Note_off_c, 1, 59, 64
3, 40982, Note_on_c, 1, 62, 58
3, 41130, Note_on_c, 1, 59, 54
3, 41138, Note_off_c, 1, 43, 64
3, 41148, Note_off_c, 1, 50, 64
3, 41296, Note_on_c, 1, 43, 63
3, 41316, Note_off_c, 1, 62, 64
3, 41326, Note_off_c, 1, 59, 64
3, 41350, Note_off_c, 1, 66, 64
3, 41449, Note_on_c, 1, 59, 57
3, 41602, Note_on_c, 1, 62, 63
3, 41760, Note_on_c, 1, 66, 59
3, 41770, Note_off_c, 1, 62, 64
3, 41931, Note_on_c, 1, 62, 56
3, 41934, Note_off_c, 1, 59, 64
3, 42061, Note_off_c, 1, 43, 64
3, 42078, Note_on_c, 1, 59, 52
3, 42250, Note_on_c, 1, 45, 73
3, 42256, Note_off_c, 1, 62, 64
3, 42263, Note_off_c, 1, 66, 64
3, 42266, Note_off_c, 1, 59, 64
3, 42410, Note_on_c, 1, 57, 67
3, 42575, Note_on_c, 1, 60, 55
3, 42723, Note_on_c, 1, 64, 80
3, 42736, Note_off_c, 1, 60, 64
3, 42898, Note_on_c, 1, 60, 57
3, 42918, Note_off_c, 1, 57, 64
3, 43048, Note_on_c, 1, 57, 53
3, 43054, Note_off_c, 1, 45, 64
3, 43147, Note_off_c, 1, 64, 64
3, 43207, Note_off_c, 1, 60, 64
3, 43212, Note_on_c, 1, 45, 58
3, 43212, Note_on_c, 1, 67, 63
3, 43228, Note_off_c, 1, 57, 64
3, 43360, Note_on_c, 1, 57, 50
3, 43404, Note_off_c, 1, 67, 64
3, 43523, Note_on_c, 1, 64, 71
3, 43546, Note_off_c, 1, 57, 64
3, 43701, Note_on_c, 1, 57, 41
3, 43831, Note_off_c, 1, 64, 64
3, 43846, Note_on_c, 1, 60, 62
3, 43974, Note_off_c, 1, 45, 64
3, 44007, Note_on_c, 1, 62, 60
3, 44017, Note_off_c, 1, 60, 64
3, 44140, Note_off_c, 1, 57, 64
3, 44163, Note_on_c, 1, 43, 60
3, 44166, Note_off_c, 1, 62, 64
3, 44329, Note_on_c, 1, 55, 58
3, 44393, Note_on_c, 1, 59, 54
3, 44466, Note_on_c, 1, 62, 72
3, 44470, Note_off_c, 1, 59, 64
3, 44625, Note_off_c, 1, 62, 64
3, 44626, Note_on_c, 1, 66, 75
3, 44807, Note_on_c, 1, 62, 66
3, 44812, Note_off_c, 1, 66, 64
3, 44963, Note_on_c, 1, 59, 57
3, 44983, Note_off_c, 1, 43, 64
3, 45017, Note_off_c, 1, 62, 64
3, 45121, Note_off_c, 1, 55, 64
3, 45125, Note_on_c, 1, 43, 60
3, 45191, Note_off_c, 1, 59, 64
3, 45285, Note_on_c, 1, 59, 55
3, 45446, Note_on_c, 1, 62, 63
3, 45602, Note_off_c, 1, 62, 64
3, 45605, Note_on_c, 1, 66, 77
3, 45760, Note_off_c, 1, 59, 64
3, 45778, Note_on_c, 1, 62, 57
3, 45923, Note_off_c, 1, 43, 64
3, 45927, Note_on_c, 1, 59, 52
3, 46087, Note_off_c, 1, 62, 64
3, 46089, Note_off_c, 1, 66, 64
3, 46098, Note_on_c, 1, 45, 66
3, 46114, Note_off_c, 1, 59, 64
3, 46257, Note_on_c, 1, 57, 62
3, 46328, Note_on_c, 1, 59, 53
3, 46370, Note_off_c, 1, 57, 64
3, 46393, Note_off_c, 1, 59, 64
3, 46394, Note_on_c, 1, 60, 72
3, 46575, Note_off_c, 1, 60, 64
3, 46575, Note_on_c, 1, 57, 59
3, 46720, Note_on_c, 1, 64, 76
3, 46724, Note_off_c, 1, 57, 64
3, 46875, Note_on_c, 1, 57, 51
3, 46882, Note_off_c, 1, 64, 64
3, 47036, Note_off_c, 1, 57, 64
3, 47044, Note_on_c, 1, 50, 60
3, 47053, Note_off_c, 1, 45, 64
3, 47868, Note_off_c, 1, 50, 64
3, 48025, Note_on_c, 1, 47, 65
3, 48501, Note_on_c, 1, 57, 54
3, 48506, Note_on_c, 1, 54, 55
3, 48510, Note_on_c, 1, 62, 76
3, 48515, Note_on_c, 1, 66, 89
3, 48554, Note_off_c, 1, 47, 64
3, 48582, Note_off_c, 1, 62, 64
3, 48595, Note_off_c, 1, 54, 64
3, 48599, Note_off_c, 1, 57, 64
3, 48612, Note_off_c, 1, 66, 64
3, 49445, Note_on_c, 1, 57, 54
3, 49459, Note_on_c, 1, 62, 66
3, 49463, Note_on_c, 1, 47, 59
3, 49463, Note_on_c, 1, 54, 59
3, 49475, Note_on_c, 1, 66, 79
3, 49572, Note_off_c, 1, 62, 64
3, 49585, Note_off_c, 1, 57, 64
3, 49587, Note_off_c, 1, 47, 64
3, 49591, Note_off_c, 1, 54, 64
3, 49599, Note_off_c, 1, 66, 64
3, 50406, Note_on_c, 1, 50, 52
3, 50413, Note_on_c, 1, 55, 57
3, 50413, Note_on_c, 1, 60, 57
3, 50421, Note_on_c, 1, 64, 70
3, 50421, Note_on_c, 1, 67, 82
3, 50508, Note_off_c, 1, 67, 64
3, 50512, Note_off_c, 1, 64, 64
3, 50518, Note_off_c, 1, 50, 64
3, 50523, Note_off_c, 1, 60, 64
3, 50524, Note_off_c, 1, 55, 64
3, 51360, Note_on_c, 1, 60, 54
3, 51367, Note_on_c, 1, 50, 61
3, 51371, Note_on_c, 1, 55, 72
3, 51372, Note_on_c, 1, 64, 78
3, 51380, Note_on_c, 1, 67, 88
3, 51465, Note_off_c, 1, 64, 64
3, 51468, Note_off_c, 1, 67, 64
3, 51477, Note_off_c, 1, 60, 64
3, 51483, Note_off_c, 1, 55, 64
3, 51487, Note_off_c, 1, 50, 64
3, 52321, Note_on_c, 1, 57, 57
3, 52332, Note_on_c, 1, 54, 53
3, 52332, Note_on_c, 1, 47, 55
3, 52338, Note_on_c, 1, 62, 64
3, 52346, Note_on_c, 1, 66, 79
3, 52415, Note_off_c, 1, 47, 64
3, 52425, Note_off_c, 1, 62, 64
3, 52448, Note_off_c, 1, 66, 64
3, 52449, Note_off_c, 1, 57, 64
3, 52455, Note_off_c, 1, 54, 64
3, 53283, Note_on_c, 1, 57, 53
3, 53287, Note_on_c, 1, 54, 58
3, 53291, Note_on_c, 1, 47, 58
3, 53291, Note_on_c, 1, 62, 73
3, 53301, Note_on_c, 1, 66, 86
3, 53389, Note_off_c, 1, 47, 64
3, 53402, Note_off_c, 1, 57, 64
3, 53406, Note_off_c, 1, 62, 64
3, 53419, Note_off_c, 1, 66, 64
3, 53420, Note_off_c, 1, 54, 64
3, 54251, Note_on_c, 1, 64, 57
3, 54256, Note_on_c, 1, 50, 60
3, 54259, Note_on_c, 1, 57, 57
3, 54260, Note_on_c, 1, 67, 79
3, 54268, Note_on_c, 1, 74, 88
3, 54341, Note_off_c, 1, 67, 64
3, 54343, Note_off_c, 1, 50, 64
3, 54346, Note_off_c, 1, 64, 64
3, 54353, Note_off_c, 1, 74, 64
3, 54359, Note_off_c, 1, 57, 64
3, 54730, Note_on_c, 1, 50, 53
3, 54734, Note_on_c, 1, 64, 45
3, 54734, Note_on_c, 1, 57, 49
3, 54744, Note_on_c, 1, 67, 58
3, 54752, Note_on_c, 1, 74, 71
3, 55644, Note_off_c, 1, 57, 64
3, 55646, Note_off_c, 1, 74, 64
3, 55658, Note_off_c, 1, 67, 64
3, 55659, Note_off_c, 1, 50, 64
3, 55661, Note_off_c, 1, 64, 64
3, 56170, Note_on_c, 1, 59, 58
3, 56173, Note_on_c, 1, 62, 66
3, 56178, Note_on_c, 1, 50, 55
3, 56179, Note_on_c, 1, 66, 68
3, 56179, Note_on_c, 1, 43, 57
3, 56260, Note_off_c, 1, 59, 64
3, 56263, Note_off_c, 1, 62, 64
3, 56274, Note_off_c, 1, 43, 64
3, 56276, Note_off_c, 1, 66, 64
3, 56278, Note_off_c, 1, 50, 64
3, 57146, Note_on_c, 1, 59, 59
3, 57149, Note_on_c, 1, 62, 72
3, 57154, Note_on_c, 1, 43, 60
3, 57154, Note_on_c, 1, 50, 60
3, 57162, Note_on_c, 1, 66, 77
3, 57246, Note_off_c, 1, 62, 64
3, 57250, Note_off_c, 1, 59, 64
3, 57251, Note_off_c, 1, 50, 64
3, 57262, Note_off_c, 1, 43, 64
3, 57269, Note_off_c, 1, 66, 64
3, 58099, Note_on_c, 1, 60, 45
3, 58101, Note_on_c, 1, 64, 60
3, 58102, Note_on_c, 1, 52, 66
3, 58102, Note_on_c, 1, 45, 60
3, 58113, Note_on_c, 1, 67, 80
3, 58198, Note_off_c, 1, 45, 64
3, 58200, Note_off_c, 1, 52, 64
3, 58201, Note_off_c, 1, 67, 64
3, 58203, Note_off_c, 1, 64, 64
3, 58210, Note_off_c, 1, 60, 64
3, 59063, Note_on_c, 1, 60, 60
3, 59067, Note_on_c, 1, 64, 74
3, 59071, Note_on_c, 1, 67, 83
3, 59076, Note_on_c, 1, 52, 70
3, 59076, Note_on_c, 1, 45, 57
3, 59158, Note_off_c, 1, 67, 64
3, 59160, Note_off_c, 1, 64, 64
3, 59163, Note_off_c, 1, 52, 64
3, 59164, Note_off_c, 1, 60, 64
3, 59182, Note_off_c, 1, 45, 64
3, 60013, Note_on_c, 1, 62, 76
3, 60017, Note_on_c, 1, 66, 77
3, 60018, Note_on_c, 1, 69, 61
3, 60025, Note_on_c, 1, 54, 77
3, 60025, Note_on_c, 1, 47, 55
3, 60100, Note_off_c, 1, 47, 64
3, 60115, Note_off_c, 1, 69, 64
3, 60118, Note_off_c, 1, 62, 64
3, 60119, Note_off_c, 1, 66, 64
3, 60123, Note_off_c, 1, 54, 64
3, 60975, Note_on_c, 1, 66, 81
3, 60978, Note_on_c, 1, 69, 62
3, 60980, Note_on_c, 1, 54, 81
3, 60981, Note_on_c, 1, 62, 79
3, 60991, Note_on_c, 1, 47, 61
3, 61077, Note_off_c, 1, 54, 64
3, 61079, Note_off_c, 1, 66, 64
3, 61082, Note_off_c, 1, 62, 64
3, 61088, Note_off_c, 1, 47, 64
3, 61095, Note_off_c, 1, 69, 64
3, 61938, Note_on_c, 1, 64, 72
3, 61942, Note_on_c, 1, 67, 78
3, 61943, Note_on_c, 1, 60, 64
3, 61950, Note_on_c, 1, 45, 66
3, 61951, Note_on_c, 1, 52, 65
3, 62036, Note_off_c, 1, 67, 64
3, 62044, Note_off_c, 1, 45, 64
3, 62045, Note_off_c, 1, 52, 64
3, 62047, Note_off_c, 1, 64, 64
3, 62052, Note_off_c, 1, 60, 64
3, 62903, Note_on_c, 1, 45, 60
3, 62906, Note_on_c, 1, 52, 66
3, 62910, Note_on_c, 1, 64, 74
3, 62910, Note_on_c, 1, 60, 61
3, 62911, Note_on_c, 1, 67, 71
3, 62979, Note_off_c, 1, 67, 64
3, 62992, Note_off_c, 1, 64, 64
3, 62996, Note_off_c, 1, 52, 64
3, 62998, Note_off_c, 1, 45, 64
3, 63003, Note_off_c, 1, 60, 64
3, 63402, Note_on_c, 1, 62, 66
3, 64389, Note_off_c, 1, 62, 64
3, 65304, Note_on_c, 1, 43, 70
3, 65464, Note_on_c, 1, 59, 78
3, 65630, Note_on_c, 1, 62, 57
3, 65783, Note_on_c, 1, 66, 68
3, 65787, Note_off_c, 1, 62, 64
3, 65809, Note_off_c, 1, 59, 64
3, 65936, Note_on_c, 1, 62, 57
3, 66054, Note_off_c, 1, 43, 64
3, 66084, Note_on_c, 1, 59, 60
3, 66102, Note_off_c, 1, 66, 64
3, 66102, Note_off_c, 1, 62, 64
3, 66249, Note_on_c, 1, 43, 61
3, 66273, Note_off_c, 1, 59, 64
3, 66410, Note_on_c, 1, 54, 75
3, 66563, Note_on_c, 1, 59, 60
3, 66720, Note_off_c, 1, 59, 64
3, 66721, Note_on_c, 1, 62, 69
3, 66881, Note_off_c, 1, 54, 64
3, 66889, Note_on_c, 1, 59, 55
3, 67022, Note_off_c, 1, 43, 64
3, 67042, Note_on_c, 1, 54, 41
3, 67151, Note_off_c, 1, 62, 64
3, 67175, Note_off_c, 1, 54, 64
3, 67183, Note_off_c, 1, 59, 64
3, 67213, Note_on_c, 1, 45, 66
3, 67383, Note_on_c, 1, 55, 67
3, 67532, Note_on_c, 1, 60, 63
3, 67682, Note_off_c, 1, 60, 64
3, 67687, Note_on_c, 1, 64, 76
3, 67817, Note_off_c, 1, 55, 64
3, 67843, Note_on_c, 1, 60, 60
3, 67870, Note_off_c, 1, 64, 64
3, 68000, Note_on_c, 1, 55, 53
3, 68015, Note_off_c, 1, 60, 64
3, 68036, Note_off_c, 1, 45, 64
3, 68132, Note_on_c, 1, 60, 10
3, 68176, Note_on_c, 1, 45, 60
3, 68179, Note_off_c, 1, 60, 64
3, 68183, Note_on_c, 1, 67, 66
3, 68189, Note_off_c, 1, 55, 64
3, 68286, Note_on_c, 1, 55, 43
3, 68369, Note_off_c, 1, 67, 64
3, 68494, Note_on_c, 1, 64, 65
3, 68569, Note_off_c, 1, 55, 64
3, 68649, Note_on_c, 1, 55, 57
3, 68738, Note_off_c, 1, 64, 64
3, 68813, Note_on_c, 1, 60, 66
3, 68817, Note_off_c, 1, 55, 64
3, 68964, Note_on_c, 1, 55, 62
3, 68967, Note_off_c, 1, 45, 64
3, 68968, Note_off_c, 1, 60, 64
3, 69124, Note_on_c, 1, 43, 60
3, 69128, Note_on_c, 1, 59, 66
3, 69133, Note_off_c, 1, 55, 64
3, 69290, Note_off_c, 1, 59, 64
3, 69292, Note_on_c, 1, 54, 49
3, 69441, Note_on_c, 1, 59, 63
3, 69611, Note_off_c, 1, 59, 64
3, 69615, Note_on_c, 1, 62, 70
3, 69654, Note_off_c, 1, 54, 64
3, 69764, Note_on_c, 1, 59, 44
3, 69769, Note_off_c, 1, 62, 64
3, 69904, Note_off_c, 1, 59, 64
3, 69921, Note_on_c, 1, 62, 50
3, 70015, Note_off_c, 1, 62, 64
3, 70046, Note_off_c, 1, 43, 64
3, 70087, Note_on_c, 1, 43, 60
3, 70251, Note_on_c, 1, 54, 51
3, 70407, Note_on_c, 1, 59, 66
3, 70568, Note_off_c, 1, 59, 64
3, 70570, Note_on_c, 1, 62, 71
3, 70709, Note_off_c, 1, 62, 64
3, 70715, Note_on_c, 1, 59, 57
3, 70769, Note_off_c, 1, 54, 64
3, 70876, Note_off_c, 1, 43, 64
3, 70884, Note_on_c, 1, 62, 72
3, 70888, Note_off_c, 1, 59, 64
3, 71040, Note_on_c, 1, 45, 65
3, 71053, Note_off_c, 1, 62, 64
3, 71143, Note_on_c, 1, 55, 53
3, 71208, Note_on_c, 1, 60, 55
3, 71245, Note_off_c, 1, 55, 64
3, 71299, Note_on_c, 1, 55, 48
3, 71381, Note_off_c, 1, 60, 64
3, 71387, Note_on_c, 1, 64, 64
3, 71394, Note_off_c, 1, 55, 64
3, 71534, Note_on_c, 1, 55, 60
3, 71543, Note_off_c, 1, 64, 64
3, 71683, Note_on_c, 1, 67, 66
3, 71848, Note_off_c, 1, 67, 64
3, 71856, Note_on_c, 1, 60, 48
3, 71918, Note_off_c, 1, 55, 64
3, 72000, Note_off_c, 1, 60, 64
3, 72011, Note_on_c, 1, 64, 57
3, 72159, Note_off_c, 1, 64, 64
3, 72167, Note_on_c, 1, 60, 47
3, 72312, Note_off_c, 1, 60, 64
3, 72322, Note_on_c, 1, 62, 66
3, 72348, Note_off_c, 1, 45, 64
3, 72929, Note_off_c, 1, 62, 64
3, 73471, Note_on_c, 1, 59, 60
3, 73475, Note_on_c, 1, 62, 62
3, 73479, Note_on_c, 1, 43, 55
3, 73480, Note_on_c, 1, 66, 71
3, 73480, Note_on_c, 1, 50, 57
3, 73554, Note_off_c, 1, 59, 64
3, 73556, Note_off_c, 1, 62, 64
3, 73561, Note_off_c, 1, 43, 64
3, 73563, Note_off_c, 1, 50, 64
3, 73567, Note_off_c, 1, 66, 64
3, 74430, Note_on_c, 1, 66, 64
3, 74433, Note_on_c, 1, 59, 58
3, 74434, Note_on_c, 1, 43, 61
3, 74434, Note_on_c, 1, 62, 70
3, 74437, Note_on_c, 1, 50, 60
3, 74514, Note_off_c, 1, 62, 64
3, 74525, Note_off_c, 1, 43, 64
3, 74526, Note_off_c, 1, 59, 64
3, 74526, Note_off_c, 1, 50, 64
3, 74530, Note_off_c, 1, 66, 64
3, 75389, Note_on_c, 1, 45, 55
3, 75392, Note_on_c, 1, 64, 63
3, 75393, Note_on_c, 1, 60, 62
3, 75393, Note_on_c, 1, 52, 58
3, 75394, Note_on_c, 1, 67, 64
3, 75483, Note_off_c, 1, 45, 64
3, 75485, Note_off_c, 1, 64, 64
3, 75486, Note_off_c, 1, 67, 64
3, 75489, Note_off_c, 1, 52, 64
3, 75490, Note_off_c, 1, 60, 64
3, 76335, Note_on_c, 1, 60, 58
3, 76340, Note_on_c, 1, 45, 49
3, 76342, Note_on_c, 1, 64, 61
3, 76348, Note_on_c, 1, 52, 66
3, 76353, Note_on_c, 1, 67, 72
3, 76435, Note_off_c, 1, 67, 64
3, 76437, Note_off_c, 1, 60, 64
3, 76438, Note_off_c, 1, 64, 64
3, 76450, Note_off_c, 1, 45, 64
3, 76452, Note_off_c, 1, 52, 64
3, 77292, Note_on_c, 1, 62, 57
3, 77295, Note_on_c, 1, 54, 58
3, 77296, Note_on_c, 1, 66, 81
3, 77297, Note_on_c, 1, 47, 57
3, 77307, Note_on_c, 1, 69, 72
3, 77392, Note_off_c, 1, 69, 64
3, 77395, Note_off_c, 1, 66, 64
3, 77400, Note_off_c, 1, 47, 64
3, 77403, Note_off_c, 1, 54, 64
3, 77408, Note_off_c, 1, 62, 64
3, 78261, Note_on_c, 1, 62, 62
3, 78264, Note_on_c, 1, 54, 69
3, 78264, Note_on_c, 1, 66, 86
3, 78272, Note_on_c, 1, 69, 73
3, 78273, Note_on_c, 1, 47, 60
3, 78360, Note_off_c, 1, 47, 64
3, 78366, Note_off_c, 1, 66, 64
3, 78369, Note_off_c, 1, 69, 64
3, 78373, Note_off_c, 1, 62, 64
3, 78378, Note_off_c, 1, 54, 64
3, 79218, Note_on_c, 1, 60, 59
3, 79222, Note_on_c, 1, 64, 74
3, 79223, Note_on_c, 1, 45, 67
3, 79230, Note_on_c, 1, 52, 67
3, 79230, Note_on_c, 1, 67, 73
3, 79304, Note_off_c, 1, 45, 64
3, 79305, Note_off_c, 1, 60, 64
3, 79307, Note_off_c, 1, 67, 64
3, 79308, Note_off_c, 1, 64, 64
3, 79313, Note_off_c, 1, 52, 64
3, 80171, Note_on_c, 1, 45, 60
3, 80175, Note_on_c, 1, 52, 60
3, 80179, Note_on_c, 1, 60, 66
3, 80179, Note_on_c, 1, 64, 78
3, 80188, Note_on_c, 1, 67, 71
3, 80262, Note_off_c, 1, 67, 64
3, 80265, Note_off_c, 1, 64, 64
3, 80272, Note_off_c, 1, 60, 64
3, 80272, Note_off_c, 1, 45, 64
3, 80286, Note_off_c, 1, 52, 64
3, 80669, Note_on_c, 1, 62, 60
3, 81177, Note_off_c, 1, 62, 64
3, 82569, Note_on_c, 1, 43, 66
3, 82718, Note_on_c, 1, 50, 68
3, 82873, Note_on_c, 1, 59, 75
3, 83044, Note_on_c, 1, 66, 57
3, 83190, Note_off_c, 1, 59, 64
3, 83222, Note_on_c, 1, 62, 58
3, 83370, Note_on_c, 1, 59, 54
3, 83378, Note_off_c, 1, 43, 64
3, 83388, Note_off_c, 1, 50, 64
3, 83536, Note_on_c, 1, 43, 63
3, 83556, Note_off_c, 1, 62, 64
3, 83566, Note_off_c, 1, 59, 64
3, 83590, Note_off_c, 1, 66, 64
3, 83689, Note_on_c, 1, 59, 57
3, 83842, Note_on_c, 1, 62, 63
3, 84000, Note_on_c, 1, 66, 59
3, 84010, Note_off_c, 1, 62, 64
3, 84171, Note_on_c, 1, 62, 56
3, 84174, Note_off_c, 1, 59, 64
3, 84301, Note_off_c, 1, 43, 64
3, 84318, Note_on_c, 1, 59, 52
3, 84490, Note_on_c, 1, 45, 73
3, 84496, Note_off_c, 1, 62, 64
3, 84503, Note_off_c, 1, 66, 64
3, 84506, Note_off_c, 1, 59, 64
3, 84650, Note_on_c, 1, 57, 67
3, 84815, Note_on_c, 1, 60, 55
3, 84963, Note_on_c, 1, 64, 80
3, 84976, Note_off_c, 1, 60, 64
3, 85138, Note_on_c, 1, 60, 57
3, 85158, Note_off_c, 1, 57, 64
3, 85288, Note_on_c, 1, 57, 53
3, 85294, Note_off_c, 1, 45, 64
3, 85387, Note_off_c, 1, 64, 64
3, 85447, Note_off_c, 1, 60, 64
3, 85452, Note_on_c, 1, 45, 58
3, 85452, Note_on_c, 1, 67, 63
3, 85468, Note_off_c, 1, 57, 64
3, 85600, Note_on_c, 1, 57, 50
3, 85644, Note_off_c, 1, 67, 64
3, 85763, Note_on_c, 1, 64, 71
3, 85786, Note_off_c, 1, 57, 64
3, 85941, Note_on_c, 1, 57, 41
3, 86071, Note_off_c, 1, 64, 64
3, 86086, Note_on_c, 1, 60, 62
3, 86214, Note_off_c, 1, 45, 64
3, 86247, Note_on_c, 1, 62, 60
3, 86257, Note_off_c, 1, 60, 64
3, 86380, Note_off_c, 1, 57, 64
3, 86403, Note_on_c, 1, 43, 60
3, 86406, Note_off_c, 1, 62, 64
3, 86569, Note_on_c, 1, 55, 58
3, 86633, Note_on_c, 1, 59, 54
3, 86706, Note_on_c, 1, 62, 72
3, 86710, Note_off_c, 1, 59, 64
3, 86865, Note_off_c, 1, 62, 64
3, 86866, Note_on_c, 1, 66, 75
3, 87047, Note_on_c, 1, 62, 66
3, 87052, Note_off_c, 1, 66, 64
3, 87203, Note_on_c, 1, 59, 57
3, 87223, Note_off_c, 1, 43, 64
3, 87257, Note_off_c, 1, 62, 64
3, 87361, Note_off_c, 1, 55, 64
3, 87365, Note_on_c, 1, 43, 60
3, 87431, Note_off_c, 1, 59, 64
3, 87525, Note_on_c, 1, 59, 55
3, 87686, Note_on_c, 1, 62, 63
3, 87842, Note_off_c, 1, 62, 64
3, 87845, Note_on_c, 1, 66, 77
3, 88000, Note_off_c, 1, 59, 64
3, 88018, Note_on_c, 1, 62, 57
3, 88163, Note_off_c, 1, 43, 64
3, 88167, Note_on_c, 1, 59, 52
3, 88327, Note_off_c, 1, 62, 64
3, 88329, Note_off_c, 1, 66, 64
3, 88338, Note_on_c, 1, 45, 66
3, 88354, Note_off_c, 1, 59, 64
3, 88497, Note_on_c, 1, 57, 62
3, 88568, Note_on_c, 1, 59, 53
3, 88610, Note_off_c, 1, 57, 64
3, 88633, Note_off_c, 1, 59, 64
3, 88634, Note_on_c, 1, 60, 72
3, 88815, Note_off_c, 1, 60, 64
3, 88815, Note_on_c, 1, 57, 59
3, 88960, Note_on_c, 1, 64, 76
3, 88964, Note_off_c, 1, 57, 64
3, 89115, Note_on_c, 1, 57, 51
3, 89122, Note_off_c, 1, 64, 64
3, 89276, Note_off_c, 1, 57, 64
3, 89284, Note_on_c, 1, 50, 60
3, 89293, Note_off_c, 1, 45, 64
3, 90108, Note_off_c, 1, 50, 64
3, 90265, Note_on_c, 1, 47, 65
3, 90741, Note_on_c, 1, 57, 54
3, 90746, Note_on_c, 1, 54, 55
3, 90750, Note_on_c, 1, 62, 76
3, 90755, Note_on_c, 1, 66, 89
3, 90794, Note_off_c, 1, 47, 64
3, 90822, Note_off_c, 1, 62, 64
3, 90835, Note_off_c, 1, 54, 64
3, 90839, Note_off_c, 1, 57, 64
3, 90852, Note_off_c, 1, 66, 64
3, 91685, Note_on_c, 1, 57, 54
3, 91699, Note_on_c, 1, 62, 66
3, 91703, Note_on_c, 1, 47, 59
3, 91703, Note_on_c, 1, 54, 59
3, 91715, Note_on_c, 1, 66, 79
3, 91812, Note_off_c, 1, 62, 64
3, 91825, Note_off_c, 1, 57, 64
3, 91827, Note_off_c, 1, 47, 64
3, 91831, Note_off_c, 1, 54, 64
3, 91839, Note_off_c, 1, 66, 64
3, 92646, Note_on_c, 1, 50, 52
3, 92653, Note_on_c, 1, 55, 57
3, 92653, Note_on_c, 1, 60, 57
3, 92661, Note_on_c, 1, 64, 70
3, 92661, Note_on_c, 1, 67, 82
3, 92748, Note_off_c, 1, 67, 64
3, 92752, Note_off_c, 1, 64, 64
3, 92758, Note_off_c, 1, 50, 64
3, 92763, Note_off_c, 1, 60, 64
3, 92764, Note_off_c, 1, 55, 64
3, 93600, Note_on_c, 1, 60, 54
3, 93607, Note_on_c, 1, 50, 61
3, 93611, Note_on_c, 1, 55, 72
3, 93612, Note_on_c, 1, 64, 78
3, 93620, Note_on_c, 1, 67, 88
3, 93705, Note_off_c, 1, 64, 64
3, 93708, Note_off_c, 1, 67, 64
3, 93717, Note_off_c, 1, 60, 64
3, 93723, Note_off_c, 1, 55, 64
3, 93727, Note_off_c, 1, 50, 64
3, 94561, Note_on_c, 1, 57, 57
3, 94572, Note_on_c, 1, 54, 53
3, 94572, Note_on_c, 1, 47, 55
3, 94578, Note_on_c, 1, 62, 64
3, 94586, Note_on_c, 1, 66, 79
3, 94655, Note_off_c, 1, 47, 64
3, 94665, Note_off_c, 1, 62, 64
3, 94688, Note_off_c, 1, 66, 64
3, 94689, Note_off_c, 1, 57, 64
3, 94695, Note_off_c, 1, 54, 64
3, 95523, Note_on_c, 1, 57, 53
3, 95527, Note_on_c, 1, 54, 58
3, 95531, Note_on_c, 1, 47, 58
3, 95531, Note_on_c, 1, 62, 73
3, 95541, Note_on_c, 1, 66, 86
3, 95629, Note_off_c, 1, 47, 64
3, 95642, Note_off_c, 1, 57, 64
3, 95646, Note_off_c, 1, 62, 64
3, 95659, Note_off_c, 1, 66, 64
3, 95660, Note_off_c, 1, 54, 64
3, 96491, Note_on_c, 1, 64, 57
3, 96496, Note_on_c, 1, 50, 60
3, 96499, Note_on_c, 1, 57, 57
3, 96500, Note_on_c, 1, 67, 79
3, 96508, Note_on_c, 1, 74, 88
3, 96581, Note_off_c, 1, 67, 64
3, 96583, Note_off_c, 1, 50, 64
3, 96586, Note_off_c, 1, 64, 64
3, 96593, Note_off_c, 1, 74, 64
3, 96599, Note_off_c, 1, 57, 64
3, 96970, Note_on_c, 1, 50, 53
3, 96974, Note_on_c, 1, 64, 45
3, 96974, Note_on_c, 1, 57, 49
3, 96984, Note_on_c, 1, 67, 58
3, 96992, Note_on_c, 1, 74, 71
3, 97884, Note_off_c, 1, 57, 64
3, 97886, Note_off_c, 1, 74, 64
3, 97898, Note_off_c, 1, 67, 64
3, 97899, Note_off_c, 1, 50, 64
3, 97901, Note_off_c, 1, 64, 64
3, 98410, Note_on_c, 1, 59, 58
3, 98413, Note_on_c, 1, 62, 66
3, 98418, Note_on_c, 1, 50, 55
3, 98419, Note_on_c, 1, 66, 68
3, 98419, Note_on_c, 1, 43, 57
3, 98500, Note_off_c, 1, 59, 64
3, 98503, Note_off_c, 1, 62, 64
3, 98514, Note_off_c, 1, 43, 64
3, 98516, Note_off_c, 1, 66, 64
3, 98518, Note_off_c, 1, 50, 64
3, 99386, Note_on_c, 1, 59, 59
3, 99389, Note_on_c, 1, 62, 72
3, 99394, Note_on_c, 1, 43, 60
3, 99394, Note_on_c, 1, 50, 60
3, 99402, Note_on_c, 1, 66, 77
3, 99486, Note_off_c, 1, 62, 64
3, 99490, Note_off_c, 1, 59, 64
3, 99491, Note_off_c, 1, 50, 64
3, 99502, Note_off_c, 1, 43, 64
3, 99509, Note_off_c, 1, 66, 64
3, 100339, Note_on_c, 1, 60, 45
3, 100341, Note_on_c, 1, 64, 60
3, 100342, Note_on_c, 1, 52, 66
3, 100342, Note_on_c, 1, 45, 60
3, 100353, Note_on_c, 1, 67, 80
3, 100438, Note_off_c, 1, 45, 64
3, 100440, Note_off_c, 1, 52, 64
3, 100441, Note_off_c, 1, 67, 64
3, 100443, Note_off_c, 1, 64, 64
3, 100450, Note_off_c, 1, 60, 64
3, 101303, Note_on_c, 1, 60, 60
3, 101307, Note_on_c, 1, 64, 74
3, 101311, Note_on_c, 1, 67, 83
3, 101316, Note_on_c, 1, 52, 70
3, 101316, Note_on_c, 1, 45, 57
3, 101398, Note_off_c, 1, 67, 64
3, 101400, Note_off_c, 1, 64, 64
3, 101403, Note_off_c, 1, 52, 64
3, 101404, Note_off_c, 1, 60, 64
3, 101422, Note_off_c, 1, 45, 64
3, 102253, Note_on_c, 1, 62, 76
3, 102257, Note_on_c, 1, 66, 77
3, 102258, Note_on_c, 1, 69, 61
3, 102265, Note_on_c, 1, 54, 77
3, 102265, Note_on_c, 1, 47, 55
3, 102340, Note_off_c, 1, 47, 64
3, 102355, Note_off_c, 1, 69, 64
3, 102358, Note_off_c, 1, 62, 64
3, 102359, Note_off_c, 1, 66, 64
3, 102363, Note_off_c, 1, 54, 64
3, 103215, Note_on_c, 1, 66, 81
3, 103218, Note_on_c, 1, 69, 62
3, 103220, Note_on_c, 1, 54, 81
3, 103221, Note_on_c, 1, 62, 79
3, 103231, Note_on_c, 1, 47, 61
3, 103317, Note_off_c, 1, 54, 64
3, 103319, Note_off_c, 1, 66, 64
3, 103322, Note_off_c, 1, 62, 64
3, 103328, Note_off_c, 1, 47, 64
3, 103335, Note_off_c, 1, 69, 64
3, 104178, Note_on_c, 1, 64, 72
3, 104182, Note_on_c, 1, 67, 78
3, 104183, Note_on_c, 1, 60, 64
3, 104190, Note_on_c, 1, 45, 66
3, 104191, Note_on_c, 1, 52, 65
3, 104276, Note_off_c, 1, 67, 64
3, 104284, Note_off_c, 1, 45, 64
3, 104285, Note_off_c, 1, 52, 64
3, 104287, Note_off_c, 1, 64, 64
3, 104292, Note_off_c, 1, 60, 64
3, 105143, Note_on_c, 1, 45, 60
3, 105146, Note_on_c, 1, 52, 66
3, 105150, Note_on_c, 1, 64, 74
3, 105150, Note_on_c, 1, 60, 61
3, 105151, Note_on_c, 1, 67, 71
3, 105219, Note_off_c, 1, 67, 64
3, 105232, Note_off_c, 1, 64, 64
3, 105236, Note_off_c, 1, 52, 64
3, 105238, Note_off_c, 1, 45, 64
3, 105243, Note_off_c, 1, 60, 64
3, 105642, Note_on_c, 1, 62, 66
3, 106629, Note_off_c, 1, 62, 64
3, 107520, Note_on_c, 1, 43, 100
3, 107693, Note_on_c, 1, 50, 64
3, 107863, Note_on_c, 1, 59, 74
3, 108024, Note_on_c, 1, 66, 77
3, 108061, Note_off_c, 1, 59, 64
3, 108176, Note_on_c, 1, 59, 54
3, 108330, Note_on_c, 1, 62, 69
3, 108356, Note_off_c, 1, 50, 64
3, 108357, Note_off_c, 1, 43, 0
3, 108486, Note_on_c, 1, 43, 73
3, 108631, Note_on_c, 1, 50, 62
3, 108639, Note_off_c, 1, 62, 64
3, 108641, Note_off_c, 1, 59, 64
3, 108656, Note_off_c, 1, 66, 64
3, 108804, Note_on_c, 1, 59, 66
3, 108967, Note_on_c, 1, 66, 86
3, 108990, Note_off_c, 1, 59, 64
3, 109117, Note_on_c, 1, 59, 51
3, 109275, Note_on_c, 1, 62, 63
3, 109285, Note_off_c, 1, 43, 64
3, 109296, Note_off_c, 1, 50, 64
3, 109425, Note_on_c, 1, 45, 71
3, 109598, Note_on_c, 1, 52, 60
3, 109604, Note_off_c, 1, 59, 64
3, 109759, Note_on_c, 1, 57, 61
3, 109762, Note_off_c, 1, 66, 64
3, 109764, Note_off_c, 1, 62, 64
3, 109925, Note_on_c, 1, 67, 64
3, 110084, Note_on_c, 1, 60, 63
3, 110245, Note_on_c, 1, 64, 62
3, 110252, Note_off_c, 1, 45, 64
3, 110260, Note_off_c, 1, 52, 64
3, 110405, Note_on_c, 1, 45, 68
3, 110564, Note_on_c, 1, 52, 58
3, 110594, Note_off_c, 1, 57, 64
3, 110666, Note_off_c, 1, 64, 64
3, 110718, Note_off_c, 1, 67, 64
3, 110728, Note_on_c, 1, 57, 59
3, 110731, Note_off_c, 1, 60, 64
3, 110887, Note_on_c, 1, 67, 66
3, 111049, Note_on_c, 1, 60, 65
3, 111078, Note_off_c, 1, 57, 64
3, 111199, Note_on_c, 1, 59, 60
3, 111211, Note_off_c, 1, 52, 64
3, 111224, Note_off_c, 1, 60, 64
3, 111225, Note_off_c, 1, 45, 64
3, 111363, Note_on_c, 1, 43, 60
3, 111524, Note_on_c, 1, 50, 69
3, 111577, Note_off_c, 1, 59, 64
3, 111669, Note_off_c, 1, 67, 64
3, 111686, Note_on_c, 1, 59, 58
3, 111854, Note_on_c, 1, 66, 77
3, 111879, Note_off_c, 1, 59, 64
3, 112010, Note_on_c, 1, 59, 57
3, 112164, Note_on_c, 1, 62, 62
3, 112175, Note_off_c, 1, 43, 64
3, 112182, Note_off_c, 1, 50, 64
3, 112318, Note_on_c, 1, 43, 79
3, 112483, Note_on_c, 1, 50, 66
3, 112526, Note_off_c, 1, 59, 64
3, 112547, Note_off_c, 1, 66, 64
3, 112553, Note_off_c, 1, 62, 64
3, 112657, Note_on_c, 1, 59, 58
3, 112815, Note_on_c, 1, 66, 71
3, 112839, Note_off_c, 1, 59, 64
3, 112977, Note_on_c, 1, 59, 50
3, 113125, Note_on_c, 1, 62, 63
3, 113139, Note_off_c, 1, 43, 64
3, 113154, Note_off_c, 1, 50, 64
3, 113282, Note_on_c, 1, 45, 73
3, 113310, Note_off_c, 1, 59, 64
3, 113439, Note_on_c, 1, 52, 62
3, 113463, Note_off_c, 1, 62, 64
3, 113603, Note_on_c, 1, 57, 62
3, 113606, Note_off_c, 1, 66, 64
3, 113765, Note_on_c, 1, 67, 66
3, 113935, Note_on_c, 1, 60, 41
3, 114085, Note_on_c, 1, 64, 61
3, 114097, Note_off_c, 1, 52, 64
3, 114105, Note_off_c, 1, 45, 64
3, 114241, Note_on_c, 1, 45, 69
3, 114410, Note_on_c, 1, 52, 60
3, 114425, Note_off_c, 1, 57, 64
3, 114542, Note_off_c, 1, 60, 64
3, 114546, Note_off_c, 1, 64, 64
3, 114570, Note_off_c, 1, 67, 64
3, 114576, Note_on_c, 1, 57, 60
3, 114734, Note_on_c, 1, 64, 66
3, 114757, Note_off_c, 1, 57, 64
3, 114895, Note_on_c, 1, 59, 66
3, 115040, Note_off_c, 1, 52, 64
3, 115041, Note_on_c, 1, 62, 66
3, 115046, Note_off_c, 1, 64, 64
3, 115051, Note_off_c, 1, 45, 64
3, 115198, Note_on_c, 1, 43, 58
3, 115356, Note_on_c, 1, 50, 70
3, 115395, Note_off_c, 1, 59, 64
3, 115513, Note_off_c, 1, 62, 64
3, 115516, Note_on_c, 1, 59, 60
3, 115678, Note_on_c, 1, 66, 66
3, 115693, Note_off_c, 1, 59, 64
3, 115839, Note_on_c, 1, 59, 53
3, 115998, Note_off_c, 1, 43, 64
3, 116003, Note_on_c, 1, 62, 70
3, 116014, Note_off_c, 1, 50, 64
3, 116159, Note_on_c, 1, 43, 69
3, 116324, Note_on_c, 1, 50, 62
3, 116353, Note_off_c, 1, 59, 64
3, 116485, Note_off_c, 1, 62, 64
3, 116490, Note_on_c, 1, 59, 60
3, 116564, Note_off_c, 1, 66, 64
3, 116582, Note_on_c, 1, 62, 50
3, 116645, Note_off_c, 1, 62, 64
3, 116656, Note_on_c, 1, 69, 67
3, 116680, Note_off_c, 1, 59, 64
3, 116759, Note_on_c, 1, 59, 37
3, 116832, Note_on_c, 1, 66, 50
3, 116859, Note_off_c, 1, 59, 64
3, 116969, Note_off_c, 1, 43, 64
3, 116978, Note_on_c, 1, 62, 64
3, 116982, Note_off_c, 1, 50, 64
3, 117114, Note_on_c, 1, 45, 69
3, 117271, Note_on_c, 1, 52, 66
3, 117276, Note_off_c, 1, 69, 64
3, 117421, Note_off_c, 1, 62, 64
3, 117422, Note_off_c, 1, 66, 64
3, 117444, Note_on_c, 1, 57, 60
3, 117599, Note_on_c, 1, 64, 62
3, 117616, Note_off_c, 1, 57, 64
3, 117756, Note_on_c, 1, 57, 47
3, 117909, Note_on_c, 1, 60, 63
3, 117919, Note_off_c, 1, 45, 64
3, 117922, Note_off_c, 1, 52, 64
3, 118075, Note_on_c, 1, 45, 73
3, 118238, Note_off_c, 1, 57, 64
3, 118245, Note_on_c, 1, 52, 60
3, 118275, Note_off_c, 1, 60, 64
3, 118288, Note_off_c, 1, 64, 64
3, 118411, Note_on_c, 1, 60, 54
3, 118577, Note_on_c, 1, 67, 70
3, 118613, Note_off_c, 1, 60, 64
3, 118740, Note_on_c, 1, 60, 55
3, 118879, Note_off_c, 1, 52, 64
3, 118888, Note_on_c, 1, 64, 54
3, 118898, Note_off_c, 1, 45, 64
3, 119052, Note_on_c, 1, 43, 72
3, 119095, Note_off_c, 1, 60, 64
3, 119162, Note_off_c, 1, 67, 64
3, 119167, Note_off_c, 1, 64, 64
3, 119206, Note_on_c, 1, 50, 63
3, 119371, Note_on_c, 1, 59, 55
3, 119527, Note_on_c, 1, 66, 73
3, 119552, Note_off_c, 1, 59, 64
3, 119691, Note_on_c, 1, 59, 51
3, 119817, Note_off_c, 1, 43, 64
3, 119841, Note_off_c, 1, 50, 64
3, 119847, Note_on_c, 1, 62, 59
3, 120003, Note_on_c, 1, 43, 80
3, 120053, Note_off_c, 1, 59, 64
3, 120170, Note_on_c, 1, 59, 46
3, 120173, Note_off_c, 1, 62, 64
3, 120260, Note_off_c, 1, 66, 64
3, 120328, Note_on_c, 1, 62, 55
3, 120332, Note_off_c, 1, 43, 64
3, 120377, Note_off_c, 1, 59, 64
3, 120491, Note_off_c, 1, 62, 64
3, 120492, Note_on_c, 1, 66, 56
3, 120495, Note_on_c, 1, 43, 79
3, 120603, Note_off_c, 1, 43, 64
3, 120605, Note_off_c, 1, 66, 64
3, 120653, Note_on_c, 1, 59, 55
3, 120804, Note_on_c, 1, 62, 69
3, 121054, Note_off_c, 1, 59, 64
3, 121103, Note_off_c, 1, 62, 64
3, 121103, End_track
4, 0, Start_track
4, 0, Title_t, "Strings (BB)"
4, 0, MIDI_port, 0
4, 0, Channel_prefix, 2
4, 0, Control_c, 2, 7, 99
4, 0, Control_c, 2, 10, 84
4, 0, Control_c, 2, 91, 40
4, 0, Control_c, 2, 93, 1
4, 0, Program_c, 2, 48
4, 0, Control_c, 2, 121, 0
4, 1920, Note_on_c, 2, 83, 52
4, 1920, Note_on_c, 2, 74, 48
4, 1920, Note_on_c, 2, 59, 51
4, 1920, Note_on_c, 2, 66, 50
4, 3500, Note_on_c, 2, 84, 61
4, 3512, Note_off_c, 2, 83, 0
4, 3662, Note_on_c, 2, 86, 54
4, 3671, Note_off_c, 2, 84, 64
4, 3679, Note_off_c, 2, 74, 0
4, 3825, Note_off_c, 2, 59, 0
4, 3827, Note_on_c, 2, 84, 58
4, 3832, Note_on_c, 2, 69, 53
4, 3835, Note_on_c, 2, 76, 46
4, 3835, Note_on_c, 2, 62, 62
4, 3843, Note_off_c, 2, 86, 64
4, 3856, Note_off_c, 2, 66, 0
4, 5411, Note_on_c, 2, 83, 64
4, 5417, Note_off_c, 2, 84, 64
4, 5436, Note_off_c, 2, 76, 64
4, 5579, Note_off_c, 2, 83, 64
4, 5580, Note_on_c, 2, 81, 60
4, 5605, Note_off_c, 2, 62, 64
4, 5642, Note_off_c, 2, 69, 64
4, 5754, Note_on_c, 2, 66, 40
4, 5760, Note_on_c, 2, 59, 51
4, 5763, Note_on_c, 2, 74, 49
4, 5764, Note_on_c, 2, 83, 60
4, 5772, Note_off_c, 2, 81, 64
4, 7339, Note_on_c, 2, 84, 53
4, 7358, Note_off_c, 2, 83, 64
4, 7380, Note_off_c, 2, 74, 64
4, 7495, Note_on_c, 2, 86, 51
4, 7506, Note_off_c, 2, 84, 64
4, 7659, Note_off_c, 2, 59, 64
4, 7666, Note_on_c, 2, 69, 44
4, 7669, Note_on_c, 2, 62, 49
4, 7670, Note_on_c, 2, 84, 51
4, 7678, Note_off_c, 2, 86, 64
4, 7678, Note_on_c, 2, 76, 38
4, 7696, Note_off_c, 2, 66, 64
4, 9271, Note_on_c, 2, 83, 60
4, 9289, Note_off_c, 2, 84, 64
4, 9306, Note_off_c, 2, 76, 64
4, 9433, Note_on_c, 2, 81, 51
4, 9448, Note_off_c, 2, 83, 64
4, 9454, Note_off_c, 2, 62, 64
4, 9462, Note_off_c, 2, 69, 64
4, 9590, Note_on_c, 2, 66, 41
4, 9594, Note_on_c, 2, 59, 55
4, 9597, Note_on_c, 2, 83, 55
4, 9602, Note_on_c, 2, 74, 46
4, 9610, Note_off_c, 2, 81, 64
4, 11188, Note_on_c, 2, 84, 55
4, 11205, Note_off_c, 2, 83, 64
4, 11234, Note_off_c, 2, 74, 64
4, 11337, Note_on_c, 2, 86, 54
4, 11350, Note_off_c, 2, 84, 64
4, 11497, Note_on_c, 2, 76, 43
4, 11500, Note_off_c, 2, 86, 64
4, 11501, Note_on_c, 2, 62, 57
4, 11501, Note_on_c, 2, 84, 54
4, 11509, Note_off_c, 2, 59, 64
4, 11523, Note_off_c, 2, 66, 64
4, 12468, Note_on_c, 2, 86, 57
4, 12474, Note_off_c, 2, 76, 64
4, 12484, Note_off_c, 2, 84, 64
4, 12507, Note_off_c, 2, 62, 64
4, 12960, Control_c, 2, 7, 85
4, 13200, Control_c, 2, 7, 78
4, 13440, Control_c, 2, 7, 71
4, 13680, Control_c, 2, 7, 63
4, 13920, Control_c, 2, 7, 57
4, 14400, Control_c, 2, 7, 50
4, 14640, Control_c, 2, 7, 45
4, 14880, Control_c, 2, 7, 37
4, 15120, Control_c, 2, 7, 30
4, 15308, Note_off_c, 2, 86, 64
4, 15360, Control_c, 2, 7, 90
4, 20767, Note_on_c, 2, 74, 52
4, 20947, Note_on_c, 2, 76, 49
4, 20950, Note_off_c, 2, 74, 64
4, 21119, Note_on_c, 2, 74, 60
4, 21121, Note_off_c, 2, 76, 64
4, 21125, Note_on_c, 2, 62, 52
4, 21191, Note_off_c, 2, 62, 64
4, 21198, Note_off_c, 2, 74, 64
4, 21433, Note_on_c, 2, 62, 51
4, 21436, Note_on_c, 2, 74, 57
4, 21610, Note_on_c, 2, 72, 58
4, 21614, Note_on_c, 2, 60, 60
4, 21618, Note_off_c, 2, 74, 64
4, 21619, Note_off_c, 2, 62, 64
4, 21690, Note_off_c, 2, 60, 64
4, 21695, Note_off_c, 2, 72, 64
4, 21909, Note_on_c, 2, 60, 51
4, 21914, Note_on_c, 2, 72, 60
4, 22075, Note_on_c, 2, 59, 57
4, 22081, Note_off_c, 2, 60, 64
4, 22081, Note_on_c, 2, 71, 57
4, 22085, Note_off_c, 2, 72, 64
4, 22156, Note_off_c, 2, 71, 64
4, 22160, Note_off_c, 2, 59, 64
4, 22387, Note_on_c, 2, 59, 55
4, 22390, Note_on_c, 2, 71, 60
4, 22549, Note_off_c, 2, 59, 64
4, 22558, Note_on_c, 2, 69, 60
4, 22562, Note_on_c, 2, 57, 54
4, 22563, Note_off_c, 2, 71, 64
4, 22618, Note_off_c, 2, 57, 64
4, 22629, Note_off_c, 2, 69, 64
4, 22861, Note_on_c, 2, 57, 57
4, 22865, Note_on_c, 2, 69, 60
4, 22955, Note_off_c, 2, 57, 64
4, 22964, Note_off_c, 2, 69, 64
4, 23034, Note_on_c, 2, 83, 43
4, 23037, Note_on_c, 2, 55, 57
4, 23042, Note_on_c, 2, 78, 31
4, 23042, Note_on_c, 2, 74, 42
4, 24769, Note_off_c, 2, 74, 64
4, 24895, Note_off_c, 2, 83, 64
4, 24937, Note_on_c, 2, 81, 35
4, 24942, Note_on_c, 2, 72, 36
4, 24942, Note_on_c, 2, 57, 39
4, 24949, Note_on_c, 2, 76, 43
4, 24960, Note_off_c, 2, 78, 64
4, 24964, Note_off_c, 2, 55, 64
4, 25257, Note_on_c, 2, 79, 41
4, 25264, Note_off_c, 2, 81, 64
4, 26741, Note_off_c, 2, 79, 64
4, 26749, Note_off_c, 2, 72, 64
4, 26835, Note_off_c, 2, 76, 64
4, 26860, Note_on_c, 2, 78, 31
4, 26868, Note_on_c, 2, 83, 40
4, 26872, Note_on_c, 2, 74, 46
4, 26876, Note_on_c, 2, 55, 48
4, 26883, Note_off_c, 2, 57, 64
4, 28671, Note_off_c, 2, 74, 64
4, 28681, Note_off_c, 2, 78, 64
4, 28739, Note_off_c, 2, 83, 64
4, 28791, Note_on_c, 2, 81, 45
4, 28795, Note_on_c, 2, 72, 42
4, 28796, Note_on_c, 2, 57, 46
4, 28802, Note_on_c, 2, 76, 36
4, 28818, Note_off_c, 2, 55, 64
4, 29082, Note_off_c, 2, 81, 64
4, 29088, Note_on_c, 2, 79, 52
4, 29615, Note_off_c, 2, 72, 64
4, 29735, Note_on_c, 2, 74, 44
4, 29742, Note_off_c, 2, 76, 64
4, 29750, Note_off_c, 2, 57, 64
4, 29779, Note_off_c, 2, 79, 64
4, 30708, Note_off_c, 2, 74, 64
4, 30720, Note_on_c, 2, 71, 47
4, 30721, Note_on_c, 2, 55, 36
4, 32617, Note_on_c, 2, 72, 50
4, 32626, Note_on_c, 2, 57, 47
4, 32682, Note_off_c, 2, 55, 64
4, 32687, Note_off_c, 2, 71, 64
4, 34540, Note_on_c, 2, 74, 50
4, 34544, Note_on_c, 2, 59, 44
4, 34560, Note_off_c, 2, 72, 64
4, 34564, Note_off_c, 2, 57, 64
4, 35453, Note_off_c, 2, 59, 64
4, 35474, Note_off_c, 2, 74, 64
4, 35520, Note_on_c, 2, 74, 57
4, 35523, Note_on_c, 2, 59, 58
4, 35582, Note_off_c, 2, 59, 64
4, 35590, Note_off_c, 2, 74, 64
4, 35995, Note_on_c, 2, 74, 60
4, 35999, Note_on_c, 2, 59, 61
4, 36073, Note_off_c, 2, 59, 64
4, 36073, Note_off_c, 2, 74, 64
4, 36474, Note_on_c, 2, 57, 49
4, 36478, Note_on_c, 2, 72, 48
4, 38047, Note_on_c, 2, 74, 47
4, 38071, Note_off_c, 2, 72, 64
4, 38213, Note_on_c, 2, 76, 51
4, 38227, Note_off_c, 2, 74, 64
4, 38384, Note_on_c, 2, 74, 54
4, 38389, Note_off_c, 2, 57, 64
4, 38390, Note_on_c, 2, 62, 55
4, 38393, Note_off_c, 2, 76, 64
4, 38459, Note_off_c, 2, 74, 64
4, 38465, Note_off_c, 2, 62, 64
4, 38707, Note_on_c, 2, 74, 60
4, 38711, Note_on_c, 2, 62, 52
4, 38881, Note_on_c, 2, 60, 56
4, 38883, Note_on_c, 2, 72, 58
4, 38887, Note_off_c, 2, 74, 64
4, 38888, Note_off_c, 2, 62, 64
4, 38963, Note_off_c, 2, 72, 64
4, 38964, Note_off_c, 2, 60, 64
4, 39181, Note_on_c, 2, 60, 55
4, 39186, Note_on_c, 2, 72, 58
4, 39350, Note_on_c, 2, 71, 56
4, 39353, Note_on_c, 2, 59, 55
4, 39357, Note_off_c, 2, 72, 64
4, 39373, Note_off_c, 2, 60, 64
4, 39426, Note_off_c, 2, 59, 64
4, 39427, Note_off_c, 2, 71, 64
4, 39665, Note_on_c, 2, 71, 68
4, 39840, Note_on_c, 2, 57, 52
4, 39845, Note_on_c, 2, 69, 61
4, 39846, Note_off_c, 2, 71, 64
4, 39907, Note_off_c, 2, 69, 64
4, 39920, Note_off_c, 2, 57, 64
4, 40141, Note_on_c, 2, 57, 53
4, 40144, Note_on_c, 2, 69, 54
4, 40238, Note_off_c, 2, 57, 64
4, 40257, Note_off_c, 2, 69, 64
4, 40311, Note_on_c, 2, 55, 55
4, 40314, Note_on_c, 2, 83, 39
4, 40321, Note_on_c, 2, 78, 28
4, 40323, Note_on_c, 2, 74, 40
4, 42060, Note_off_c, 2, 78, 64
4, 42126, Note_off_c, 2, 74, 64
4, 42208, Note_off_c, 2, 83, 64
4, 42209, Note_on_c, 2, 81, 37
4, 42215, Note_on_c, 2, 76, 43
4, 42220, Note_on_c, 2, 72, 33
4, 42224, Note_on_c, 2, 57, 42
4, 42229, Note_off_c, 2, 55, 64
4, 42530, Note_off_c, 2, 81, 64
4, 42531, Note_on_c, 2, 79, 44
4, 44009, Note_off_c, 2, 79, 64
4, 44018, Note_off_c, 2, 72, 64
4, 44150, Note_on_c, 2, 78, 32
4, 44155, Note_on_c, 2, 83, 40
4, 44159, Note_on_c, 2, 74, 48
4, 44160, Note_on_c, 2, 55, 45
4, 44167, Note_off_c, 2, 57, 64
4, 44170, Note_off_c, 2, 76, 64
4, 45920, Note_off_c, 2, 74, 64
4, 46050, Note_off_c, 2, 83, 64
4, 46066, Note_on_c, 2, 57, 46
4, 46070, Note_on_c, 2, 72, 45
4, 46070, Note_on_c, 2, 81, 37
4, 46078, Note_on_c, 2, 76, 42
4, 46084, Note_off_c, 2, 78, 64
4, 46094, Note_off_c, 2, 55, 64
4, 46363, Note_off_c, 2, 81, 64
4, 46371, Note_on_c, 2, 79, 39
4, 47777, Note_off_c, 2, 72, 64
4, 47785, Note_off_c, 2, 79, 64
4, 47791, Note_off_c, 2, 76, 64
4, 47797, Note_off_c, 2, 57, 64
4, 47990, Note_on_c, 2, 78, 37
4, 47994, Note_on_c, 2, 59, 52
4, 47995, Note_on_c, 2, 74, 48
4, 48002, Note_on_c, 2, 83, 42
4, 48518, Note_off_c, 2, 74, 64
4, 48523, Note_off_c, 2, 59, 64
4, 48525, Note_off_c, 2, 78, 64
4, 48633, Note_on_c, 2, 74, 61
4, 48636, Note_on_c, 2, 59, 60
4, 48690, Note_off_c, 2, 59, 64
4, 48691, Note_off_c, 2, 74, 64
4, 48790, Note_on_c, 2, 76, 58
4, 48794, Note_on_c, 2, 60, 66
4, 48835, Note_off_c, 2, 76, 64
4, 48840, Note_off_c, 2, 60, 64
4, 48946, Note_on_c, 2, 78, 49
4, 48951, Note_on_c, 2, 62, 55
4, 49747, Note_off_c, 2, 62, 64
4, 49814, Note_off_c, 2, 83, 64
4, 49877, Note_off_c, 2, 78, 64
4, 49890, Note_on_c, 2, 79, 47
4, 49897, Note_on_c, 2, 84, 44
4, 49901, Note_on_c, 2, 62, 45
4, 49901, Note_on_c, 2, 76, 32
4, 50449, Note_off_c, 2, 62, 64
4, 50469, Note_off_c, 2, 76, 64
4, 50470, Note_off_c, 2, 79, 64
4, 50559, Note_on_c, 2, 60, 57
4, 50564, Note_on_c, 2, 76, 58
4, 50611, Note_off_c, 2, 60, 64
4, 50616, Note_off_c, 2, 76, 64
4, 50704, Note_on_c, 2, 78, 42
4, 50708, Note_on_c, 2, 62, 58
4, 50759, Note_off_c, 2, 78, 64
4, 50769, Note_off_c, 2, 62, 64
4, 50866, Note_on_c, 2, 79, 58
4, 50870, Note_on_c, 2, 64, 54
4, 51723, Note_off_c, 2, 84, 64
4, 51818, Note_on_c, 2, 74, 40
4, 51822, Note_on_c, 2, 59, 43
4, 51825, Note_on_c, 2, 83, 39
4, 51825, Note_on_c, 2, 78, 44
4, 51834, Note_off_c, 2, 79, 64
4, 51840, Note_off_c, 2, 64, 64
4, 52387, Note_off_c, 2, 59, 64
4, 52389, Note_off_c, 2, 74, 64
4, 52461, Note_off_c, 2, 78, 64
4, 52468, Note_on_c, 2, 74, 63
4, 52473, Note_on_c, 2, 59, 60
4, 52516, Note_off_c, 2, 74, 64
4, 52522, Note_off_c, 2, 59, 64
4, 52625, Note_on_c, 2, 60, 59
4, 52628, Note_on_c, 2, 76, 53
4, 52672, Note_off_c, 2, 76, 64
4, 52684, Note_off_c, 2, 60, 64
4, 52779, Note_on_c, 2, 78, 43
4, 52783, Note_on_c, 2, 74, 49
4, 52794, Note_on_c, 2, 62, 49
4, 53375, Note_off_c, 2, 83, 64
4, 53418, Note_on_c, 2, 84, 48
4, 53573, Note_off_c, 2, 84, 64
4, 53586, Note_on_c, 2, 86, 28
4, 53590, Note_off_c, 2, 62, 64
4, 53603, Note_off_c, 2, 74, 64
4, 53715, Note_off_c, 2, 78, 64
4, 53728, Note_on_c, 2, 76, 35
4, 53728, Note_on_c, 2, 84, 57
4, 53736, Note_on_c, 2, 62, 51
4, 53744, Note_off_c, 2, 86, 64
4, 54699, Note_on_c, 2, 86, 51
4, 54704, Note_off_c, 2, 84, 64
4, 54719, Note_off_c, 2, 76, 64
4, 55459, Note_off_c, 2, 62, 64
4, 55671, Note_off_c, 2, 86, 64
4, 55683, Note_on_c, 2, 71, 39
4, 55684, Note_on_c, 2, 55, 45
4, 57587, Note_on_c, 2, 72, 49
4, 57592, Note_on_c, 2, 57, 42
4, 57622, Note_off_c, 2, 71, 64
4, 57630, Note_off_c, 2, 55, 64
4, 59499, Note_on_c, 2, 74, 46
4, 59505, Note_on_c, 2, 59, 38
4, 59526, Note_off_c, 2, 72, 64
4, 59548, Note_off_c, 2, 57, 64
4, 60443, Note_off_c, 2, 59, 64
4, 60456, Note_off_c, 2, 74, 64
4, 60480, Note_on_c, 2, 74, 55
4, 60486, Note_on_c, 2, 59, 53
4, 60547, Note_off_c, 2, 59, 64
4, 60547, Note_off_c, 2, 74, 64
4, 60952, Note_on_c, 2, 59, 58
4, 60952, Note_on_c, 2, 74, 65
4, 61013, Note_off_c, 2, 59, 64
4, 61015, Note_off_c, 2, 74, 64
4, 61436, Note_on_c, 2, 57, 43
4, 61439, Note_on_c, 2, 72, 47
4, 63026, Note_on_c, 2, 74, 52
4, 63031, Note_off_c, 2, 72, 64
4, 63032, Note_on_c, 2, 62, 51
4, 63047, Note_off_c, 2, 57, 64
4, 63194, Note_off_c, 2, 62, 64
4, 63194, Note_on_c, 2, 76, 54
4, 63194, Note_on_c, 2, 64, 48
4, 63200, Note_off_c, 2, 74, 64
4, 63350, Note_on_c, 2, 62, 62
4, 63353, Note_on_c, 2, 74, 61
4, 63367, Note_off_c, 2, 76, 64
4, 63370, Note_off_c, 2, 64, 64
4, 63407, Note_off_c, 2, 62, 64
4, 63411, Note_off_c, 2, 74, 64
4, 63647, Note_on_c, 2, 62, 47
4, 63655, Note_on_c, 2, 74, 58
4, 63831, Note_on_c, 2, 60, 55
4, 63834, Note_on_c, 2, 72, 57
4, 63846, Note_off_c, 2, 62, 64
4, 63857, Note_off_c, 2, 74, 64
4, 63914, Note_off_c, 2, 72, 64
4, 63915, Note_off_c, 2, 60, 64
4, 64148, Note_on_c, 2, 72, 55
4, 64152, Note_on_c, 2, 60, 55
4, 64317, Note_off_c, 2, 60, 64
4, 64318, Note_on_c, 2, 59, 50
4, 64328, Note_off_c, 2, 72, 64
4, 64328, Note_on_c, 2, 71, 55
4, 64392, Note_off_c, 2, 71, 64
4, 64394, Note_off_c, 2, 59, 64
4, 64628, Note_on_c, 2, 71, 53
4, 64633, Note_on_c, 2, 59, 52
4, 64794, Note_on_c, 2, 69, 59
4, 64797, Note_off_c, 2, 59, 64
4, 64798, Note_on_c, 2, 57, 54
4, 64805, Note_off_c, 2, 71, 64
4, 64865, Note_off_c, 2, 69, 64
4, 64869, Note_off_c, 2, 57, 64
4, 65119, Note_on_c, 2, 57, 62
4, 65119, Note_on_c, 2, 69, 58
4, 65200, Note_off_c, 2, 57, 64
4, 65209, Note_off_c, 2, 69, 64
4, 65276, Note_on_c, 2, 67, 55
4, 65281, Note_on_c, 2, 78, 31
4, 65285, Note_on_c, 2, 55, 48
4, 65286, Note_on_c, 2, 74, 40
4, 65294, Note_on_c, 2, 83, 38
4, 67063, Note_off_c, 2, 55, 64
4, 67139, Note_off_c, 2, 78, 64
4, 67152, Note_off_c, 2, 74, 64
4, 67202, Note_on_c, 2, 81, 38
4, 67210, Note_on_c, 2, 57, 39
4, 67214, Note_off_c, 2, 67, 64
4, 67214, Note_on_c, 2, 64, 48
4, 67218, Note_on_c, 2, 76, 26
4, 67218, Note_on_c, 2, 72, 38
4, 67229, Note_off_c, 2, 83, 64
4, 67486, Note_off_c, 2, 81, 64
4, 67494, Note_on_c, 2, 79, 46
4, 68978, Note_off_c, 2, 72, 64
4, 68986, Note_off_c, 2, 79, 64
4, 68988, Note_off_c, 2, 64, 64
4, 68997, Note_off_c, 2, 57, 64
4, 69000, Note_off_c, 2, 76, 64
4, 69099, Note_on_c, 2, 78, 37
4, 69104, Note_on_c, 2, 55, 43
4, 69107, Note_on_c, 2, 74, 41
4, 69112, Note_on_c, 2, 83, 34
4, 69113, Note_on_c, 2, 62, 50
4, 70912, Note_off_c, 2, 74, 64
4, 71008, Note_off_c, 2, 83, 64
4, 71015, Note_on_c, 2, 81, 37
4, 71019, Note_on_c, 2, 57, 54
4, 71023, Note_on_c, 2, 72, 38
4, 71029, Note_on_c, 2, 76, 34
4, 71034, Note_off_c, 2, 78, 64
4, 71042, Note_off_c, 2, 55, 64
4, 71045, Note_off_c, 2, 62, 64
4, 71339, Note_on_c, 2, 79, 42
4, 71342, Note_off_c, 2, 81, 64
4, 71972, Note_on_c, 2, 86, 58
4, 71990, Note_off_c, 2, 79, 64
4, 72000, Note_off_c, 2, 76, 64
4, 72007, Note_off_c, 2, 57, 64
4, 72960, Note_on_c, 2, 71, 47
4, 72961, Note_on_c, 2, 55, 36
4, 72966, Note_off_c, 2, 72, 64
4, 72971, Note_off_c, 2, 86, 64
4, 74857, Note_on_c, 2, 72, 50
4, 74866, Note_on_c, 2, 57, 47
4, 74922, Note_off_c, 2, 55, 64
4, 74927, Note_off_c, 2, 71, 64
4, 76780, Note_on_c, 2, 74, 50
4, 76784, Note_on_c, 2, 59, 44
4, 76800, Note_off_c, 2, 72, 64
4, 76804, Note_off_c, 2, 57, 64
4, 77693, Note_off_c, 2, 59, 64
4, 77714, Note_off_c, 2, 74, 64
4, 77760, Note_on_c, 2, 74, 57
4, 77763, Note_on_c, 2, 59, 58
4, 77822, Note_off_c, 2, 59, 64
4, 77830, Note_off_c, 2, 74, 64
4, 78235, Note_on_c, 2, 74, 60
4, 78239, Note_on_c, 2, 59, 61
4, 78313, Note_off_c, 2, 59, 64
4, 78313, Note_off_c, 2, 74, 64
4, 78714, Note_on_c, 2, 57, 49
4, 78718, Note_on_c, 2, 72, 48
4, 80287, Note_on_c, 2, 74, 47
4, 80311, Note_off_c, 2, 72, 64
4, 80453, Note_on_c, 2, 76, 51
4, 80467, Note_off_c, 2, 74, 64
4, 80624, Note_on_c, 2, 74, 54
4, 80629, Note_off_c, 2, 57, 64
4, 80630, Note_on_c, 2, 62, 55
4, 80633, Note_off_c, 2, 76, 64
4, 80699, Note_off_c, 2, 74, 64
4, 80705, Note_off_c, 2, 62, 64
4, 80947, Note_on_c, 2, 74, 60
4, 80951, Note_on_c, 2, 62, 52
4, 81121, Note_on_c, 2, 60, 56
4, 81123, Note_on_c, 2, 72, 58
4, 81127, Note_off_c, 2, 74, 64
4, 81128, Note_off_c, 2, 62, 64
4, 81203, Note_off_c, 2, 72, 64
4, 81204, Note_off_c, 2, 60, 64
4, 81421, Note_on_c, 2, 60, 55
4, 81426, Note_on_c, 2, 72, 58
4, 81590, Note_on_c, 2, 71, 56
4, 81593, Note_on_c, 2, 59, 55
4, 81597, Note_off_c, 2, 72, 64
4, 81613, Note_off_c, 2, 60, 64
4, 81666, Note_off_c, 2, 59, 64
4, 81667, Note_off_c, 2, 71, 64
4, 81905, Note_on_c, 2, 71, 68
4, 82080, Note_on_c, 2, 57, 52
4, 82085, Note_on_c, 2, 69, 61
4, 82086, Note_off_c, 2, 71, 64
4, 82147, Note_off_c, 2, 69, 64
4, 82160, Note_off_c, 2, 57, 64
4, 82381, Note_on_c, 2, 57, 53
4, 82384, Note_on_c, 2, 69, 54
4, 82478, Note_off_c, 2, 57, 64
4, 82497, Note_off_c, 2, 69, 64
4, 82551, Note_on_c, 2, 55, 55
4, 82554, Note_on_c, 2, 83, 39
4, 82561, Note_on_c, 2, 78, 28
4, 82563, Note_on_c, 2, 74, 40
4, 84300, Note_off_c, 2, 78, 64
4, 84366, Note_off_c, 2, 74, 64
4, 84448, Note_off_c, 2, 83, 64
4, 84449, Note_on_c, 2, 81, 37
4, 84455, Note_on_c, 2, 76, 43
4, 84460, Note_on_c, 2, 72, 33
4, 84464, Note_on_c, 2, 57, 42
4, 84469, Note_off_c, 2, 55, 64
4, 84770, Note_off_c, 2, 81, 64
4, 84771, Note_on_c, 2, 79, 44
4, 86249, Note_off_c, 2, 79, 64
4, 86258, Note_off_c, 2, 72, 64
4, 86390, Note_on_c, 2, 78, 32
4, 86395, Note_on_c, 2, 83, 40
4, 86399, Note_on_c, 2, 74, 48
4, 86400, Note_on_c, 2, 55, 45
4, 86407, Note_off_c, 2, 57, 64
4, 86410, Note_off_c, 2, 76, 64
4, 88160, Note_off_c, 2, 74, 64
4, 88290, Note_off_c, 2, 83, 64
4, 88306, Note_on_c, 2, 57, 46
4, 88310, Note_on_c, 2, 72, 45
4, 88310, Note_on_c, 2, 81, 37
4, 88318, Note_on_c, 2, 76, 42
4, 88324, Note_off_c, 2, 78, 64
4, 88334, Note_off_c, 2, 55, 64
4, 88603, Note_off_c, 2, 81, 64
4, 88611, Note_on_c, 2, 79, 39
4, 90017, Note_off_c, 2, 72, 64
4, 90025, Note_off_c, 2, 79, 64
4, 90031, Note_off_c, 2, 76, 64
4, 90037, Note_off_c, 2, 57, 64
4, 90230, Note_on_c, 2, 78, 37
4, 90234, Note_on_c, 2, 59, 52
4, 90235, Note_on_c, 2, 74, 48
4, 90242, Note_on_c, 2, 83, 42
4, 90758, Note_off_c, 2, 74, 64
4, 90763, Note_off_c, 2, 59, 64
4, 90765, Note_off_c, 2, 78, 64
4, 90873, Note_on_c, 2, 74, 61
4, 90876, Note_on_c, 2, 59, 60
4, 90930, Note_off_c, 2, 59, 64
4, 90931, Note_off_c, 2, 74, 64
4, 91030, Note_on_c, 2, 76, 58
4, 91034, Note_on_c, 2, 60, 66
4, 91075, Note_off_c, 2, 76, 64
4, 91080, Note_off_c, 2, 60, 64
4, 91186, Note_on_c, 2, 78, 49
4, 91191, Note_on_c, 2, 62, 55
4, 91987, Note_off_c, 2, 62, 64
4, 92054, Note_off_c, 2, 83, 64
4, 92117, Note_off_c, 2, 78, 64
4, 92130, Note_on_c, 2, 79, 47
4, 92137, Note_on_c, 2, 84, 44
4, 92141, Note_on_c, 2, 62, 45
4, 92141, Note_on_c, 2, 76, 32
4, 92689, Note_off_c, 2, 62, 64
4, 92709, Note_off_c, 2, 76, 64
4, 92710, Note_off_c, 2, 79, 64
4, 92799, Note_on_c, 2, 60, 57
4, 92804, Note_on_c, 2, 76, 58
4, 92851, Note_off_c, 2, 60, 64
4, 92856, Note_off_c, 2, 76, 64
4, 92944, Note_on_c, 2, 78, 42
4, 92948, Note_on_c, 2, 62, 58
4, 92999, Note_off_c, 2, 78, 64
4, 93009, Note_off_c, 2, 62, 64
4, 93106, Note_on_c, 2, 79, 58
4, 93110, Note_on_c, 2, 64, 54
4, 93963, Note_off_c, 2, 84, 64
4, 94058, Note_on_c, 2, 74, 40
4, 94062, Note_on_c, 2, 59, 43
4, 94065, Note_on_c, 2, 83, 39
4, 94065, Note_on_c, 2, 78, 44
4, 94074, Note_off_c, 2, 79, 64
4, 94080, Note_off_c, 2, 64, 64
4, 94627, Note_off_c, 2, 59, 64
4, 94629, Note_off_c, 2, 74, 64
4, 94701, Note_off_c, 2, 78, 64
4, 94708, Note_on_c, 2, 74, 63
4, 94713, Note_on_c, 2, 59, 60
4, 94756, Note_off_c, 2, 74, 64
4, 94762, Note_off_c, 2, 59, 64
4, 94865, Note_on_c, 2, 60, 59
4, 94868, Note_on_c, 2, 76, 53
4, 94912, Note_off_c, 2, 76, 64
4, 94924, Note_off_c, 2, 60, 64
4, 95019, Note_on_c, 2, 78, 43
4, 95023, Note_on_c, 2, 74, 49
4, 95034, Note_on_c, 2, 62, 49
4, 95615, Note_off_c, 2, 83, 64
4, 95658, Note_on_c, 2, 84, 48
4, 95813, Note_off_c, 2, 84, 64
4, 95826, Note_on_c, 2, 86, 28
4, 95830, Note_off_c, 2, 62, 64
4, 95843, Note_off_c, 2, 74, 64
4, 95955, Note_off_c, 2, 78, 64
4, 95968, Note_on_c, 2, 76, 35
4, 95968, Note_on_c, 2, 84, 57
4, 95976, Note_on_c, 2, 62, 51
4, 95984, Note_off_c, 2, 86, 64
4, 96939, Note_on_c, 2, 86, 51
4, 96944, Note_off_c, 2, 84, 64
4, 96959, Note_off_c, 2, 76, 64
4, 97699, Note_off_c, 2, 62, 64
4, 97911, Note_off_c, 2, 86, 64
4, 97923, Note_on_c, 2, 71, 33
4, 97924, Note_on_c, 2, 55, 38
4, 99827, Note_on_c, 2, 72, 41
4, 99832, Note_on_c, 2, 57, 35
4, 99862, Note_off_c, 2, 71, 64
4, 99870, Note_off_c, 2, 55, 64
4, 101739, Note_on_c, 2, 74, 39
4, 101745, Note_on_c, 2, 59, 47
4, 101766, Note_off_c, 2, 72, 64
4, 101788, Note_off_c, 2, 57, 64
4, 102683, Note_off_c, 2, 59, 64
4, 102696, Note_off_c, 2, 74, 64
4, 102720, Note_on_c, 2, 74, 59
4, 102726, Note_on_c, 2, 59, 59
4, 102787, Note_off_c, 2, 59, 64
4, 102787, Note_off_c, 2, 74, 64
4, 103192, Note_on_c, 2, 59, 59
4, 103192, Note_on_c, 2, 74, 55
4, 103253, Note_off_c, 2, 59, 64
4, 103255, Note_off_c, 2, 74, 64
4, 103676, Note_on_c, 2, 57, 36
4, 103679, Note_on_c, 2, 72, 47
4, 105266, Note_on_c, 2, 74, 52
4, 105271, Note_off_c, 2, 72, 64
4, 105272, Note_on_c, 2, 62, 51
4, 105287, Note_off_c, 2, 57, 64
4, 105434, Note_off_c, 2, 62, 64
4, 105434, Note_on_c, 2, 76, 54
4, 105434, Note_on_c, 2, 64, 48
4, 105440, Note_off_c, 2, 74, 64
4, 105590, Note_on_c, 2, 62, 62
4, 105593, Note_on_c, 2, 74, 61
4, 105607, Note_off_c, 2, 76, 64
4, 105610, Note_off_c, 2, 64, 64
4, 105647, Note_off_c, 2, 62, 64
4, 105651, Note_off_c, 2, 74, 64
4, 105887, Note_on_c, 2, 62, 47
4, 105895, Note_on_c, 2, 74, 58
4, 106071, Note_on_c, 2, 60, 55
4, 106074, Note_on_c, 2, 72, 57
4, 106086, Note_off_c, 2, 62, 64
4, 106097, Note_off_c, 2, 74, 64
4, 106154, Note_off_c, 2, 72, 64
4, 106155, Note_off_c, 2, 60, 64
4, 106388, Note_on_c, 2, 72, 55
4, 106392, Note_on_c, 2, 60, 55
4, 106557, Note_off_c, 2, 60, 64
4, 106558, Note_on_c, 2, 59, 50
4, 106568, Note_off_c, 2, 72, 64
4, 106568, Note_on_c, 2, 71, 55
4, 106632, Note_off_c, 2, 71, 64
4, 106634, Note_off_c, 2, 59, 64
4, 106868, Note_on_c, 2, 71, 53
4, 106873, Note_on_c, 2, 59, 52
4, 107034, Note_on_c, 2, 69, 59
4, 107037, Note_off_c, 2, 59, 64
4, 107038, Note_on_c, 2, 57, 54
4, 107045, Note_off_c, 2, 71, 64
4, 107105, Note_off_c, 2, 69, 64
4, 107109, Note_off_c, 2, 57, 64
4, 107359, Note_on_c, 2, 57, 62
4, 107359, Note_on_c, 2, 69, 58
4, 107440, Note_off_c, 2, 57, 64
4, 107449, Note_off_c, 2, 69, 64
4, 107541, Note_on_c, 2, 43, 48
4, 107544, Note_on_c, 2, 66, 46
4, 107549, Note_on_c, 2, 71, 52
4, 107550, Note_on_c, 2, 62, 49
4, 109369, Note_off_c, 2, 66, 64
4, 109383, Note_off_c, 2, 62, 64
4, 109437, Note_on_c, 2, 69, 50
4, 109443, Note_on_c, 2, 45, 52
4, 109447, Note_on_c, 2, 60, 40
4, 109448, Note_off_c, 2, 71, 64
4, 109448, Note_on_c, 2, 64, 45
4, 109463, Note_off_c, 2, 43, 64
4, 109752, Note_on_c, 2, 67, 49
4, 109758, Note_off_c, 2, 69, 64
4, 111237, Note_off_c, 2, 64, 64
4, 111272, Note_off_c, 2, 60, 64
4, 111366, Note_on_c, 2, 66, 48
4, 111367, Note_on_c, 2, 62, 47
4, 111374, Note_off_c, 2, 67, 64
4, 111374, Note_on_c, 2, 71, 41
4, 111374, Note_on_c, 2, 43, 43
4, 111400, Note_off_c, 2, 45, 64
4, 112324, Note_on_c, 2, 74, 48
4, 113191, Note_off_c, 2, 74, 64
4, 113229, Note_off_c, 2, 62, 64
4, 113284, Note_on_c, 2, 45, 48
4, 113288, Note_on_c, 2, 69, 47
4, 113292, Note_on_c, 2, 64, 39
4, 113293, Note_on_c, 2, 72, 39
4, 113301, Note_off_c, 2, 66, 64
4, 113308, Note_off_c, 2, 43, 64
4, 113312, Note_off_c, 2, 71, 64
4, 113581, Note_on_c, 2, 67, 49
4, 113582, Note_off_c, 2, 69, 64
4, 114408, Note_off_c, 2, 67, 64
4, 114419, Note_on_c, 2, 76, 48
4, 114430, Note_off_c, 2, 72, 64
4, 115203, Note_on_c, 2, 74, 42
4, 115207, Note_off_c, 2, 76, 64
4, 115208, Note_on_c, 2, 71, 41
4, 115208, Note_on_c, 2, 78, 45
4, 115216, Note_on_c, 2, 43, 47
4, 115220, Note_off_c, 2, 64, 64
4, 115221, Note_off_c, 2, 45, 64
4, 117022, Note_off_c, 2, 78, 64
4, 117120, Note_on_c, 2, 45, 46
4, 117123, Note_off_c, 2, 74, 64
4, 117126, Note_on_c, 2, 72, 37
4, 117126, Note_on_c, 2, 79, 33
4, 117134, Note_on_c, 2, 76, 34
4, 117135, Note_off_c, 2, 71, 64
4, 117149, Note_off_c, 2, 43, 64
4, 118975, Note_off_c, 2, 72, 64
4, 119064, Note_on_c, 2, 74, 43
4, 119068, Note_on_c, 2, 43, 50
4, 119068, Note_on_c, 2, 83, 45
4, 119069, Note_on_c, 2, 78, 46
4, 119085, Note_off_c, 2, 76, 64
4, 119086, Note_off_c, 2, 79, 64
4, 119091, Note_off_c, 2, 45, 64
4, 119756, Note_off_c, 2, 43, 64
4, 119873, Note_off_c, 2, 83, 64
4, 119874, Note_off_c, 2, 78, 64
4, 119882, Note_off_c, 2, 74, 64
4, 120000, Note_on_c, 2, 78, 70
4, 120000, Note_on_c, 2, 74, 70
4, 120000, Note_on_c, 2, 43, 70
4, 120000, Note_on_c, 2, 83, 70
4, 120120, Note_off_c, 2, 83, 80
4, 120120, Note_off_c, 2, 43, 80
4, 120120, Note_off_c, 2, 74, 80
4, 120120, Note_off_c, 2, 78, 80
4, 120486, Note_on_c, 2, 78, 70
4, 120487, Note_on_c, 2, 43, 70
4, 120488, Note_on_c, 2, 83, 70
4, 120488, Note_on_c, 2, 74, 70
4, 120571, Note_off_c, 2, 83, 64
4, 120606, Note_off_c, 2, 78, 64
4, 120607, Note_off_c, 2, 43, 64
4, 120608, Note_off_c, 2, 74, 64
4, 120960, Note_on_c, 2, 45, 42
4, 120960, Control_c, 2, 7, 85
4, 120962, Note_on_c, 2, 79, 48
4, 120962, Note_on_c, 2, 72, 42
4, 120963, Note_on_c, 2, 76, 48
4, 121080, Control_c, 2, 7, 83
4, 121200, Control_c, 2, 7, 80
4, 121320, Control_c, 2, 7, 77
4, 121440, Control_c, 2, 7, 75
4, 121560, Control_c, 2, 7, 72
4, 121680, Control_c, 2, 7, 69
4, 121800, Control_c, 2, 7, 66
4, 121920, Control_c, 2, 7, 63
4, 122040, Control_c, 2, 7, 60
4, 122160, Control_c, 2, 7, 57
4, 122280, Control_c, 2, 7, 54
4, 122400, Control_c, 2, 7, 50
4, 122520, Control_c, 2, 7, 47
4, 122640, Control_c, 2, 7, 44
4, 122760, Control_c, 2, 7, 41
4, 122880, Control_c, 2, 7, 38
4, 123000, Control_c, 2, 7, 34
4, 123360, Note_off_c, 2, 45, 64
4, 123362, Note_off_c, 2, 79, 64
4, 123362, Note_off_c, 2, 72, 64
4, 123363, Note_off_c, 2, 76, 64
4, 123363, End_track
5, 0, Start_track
5, 0, Title_t, "bass"
5, 0, MIDI_port, 0
5, 0, Channel_prefix, 3
5, 0, Control_c, 3, 7, 69
5, 0, Control_c, 3, 10, 39
5, 0, Control_c, 3, 91, 40
5, 0, Control_c, 3, 93, 49
5, 0, Program_c, 3, 33
5, 0, Control_c, 3, 121, 0
5, 1920, Note_on_c, 3, 35, 110
5, 2603, Note_off_c, 3, 35, 64
5, 2720, Note_on_c, 3, 35, 94
5, 2755, Note_off_c, 3, 35, 64
5, 2880, Note_on_c, 3, 35, 99
5, 3249, Note_off_c, 3, 35, 64
5, 3360, Note_on_c, 3, 35, 104
5, 3520, Note_on_c, 3, 36, 99
5, 3544, Note_off_c, 3, 35, 64
5, 3602, Note_off_c, 3, 36, 64
5, 3680, Note_on_c, 3, 37, 109
5, 3733, Note_off_c, 3, 37, 64
5, 3840, Note_on_c, 3, 38, 110
5, 4560, Note_off_c, 3, 38, 64
5, 4640, Note_on_c, 3, 38, 110
5, 4720, Note_off_c, 3, 38, 64
5, 4800, Note_on_c, 3, 38, 104
5, 5152, Note_off_c, 3, 38, 64
5, 5280, Note_on_c, 3, 38, 97
5, 5440, Note_off_c, 3, 38, 64
5, 5440, Note_on_c, 3, 37, 100
5, 5520, Note_off_c, 3, 37, 64
5, 5600, Note_on_c, 3, 36, 107
5, 5600, Note_on_c, 3, 34, 49
5, 5680, Note_off_c, 3, 34, 64
5, 5680, Note_off_c, 3, 36, 64
5, 5779, Note_on_c, 3, 35, 99
5, 6470, Note_off_c, 3, 35, 64
5, 6589, Note_on_c, 3, 35, 90
5, 6618, Note_off_c, 3, 35, 64
5, 6727, Note_on_c, 3, 35, 97
5, 7366, Note_off_c, 3, 35, 64
5, 7373, Note_on_c, 3, 36, 83
5, 7427, Note_off_c, 3, 36, 64
5, 7519, Note_on_c, 3, 37, 109
5, 7568, Note_off_c, 3, 37, 64
5, 7683, Note_on_c, 3, 38, 101
5, 8463, Note_off_c, 3, 38, 64
5, 8496, Note_on_c, 3, 38, 78
5, 8537, Note_off_c, 3, 38, 64
5, 8650, Note_on_c, 3, 38, 94
5, 9024, Note_off_c, 3, 38, 64
5, 9138, Note_on_c, 3, 38, 101
5, 9269, Note_off_c, 3, 38, 64
5, 9289, Note_on_c, 3, 37, 100
5, 9345, Note_off_c, 3, 37, 64
5, 9447, Note_on_c, 3, 36, 113
5, 9506, Note_off_c, 3, 36, 64
5, 9621, Note_on_c, 3, 35, 101
5, 10270, Note_off_c, 3, 35, 64
5, 10395, Note_on_c, 3, 35, 101
5, 10433, Note_off_c, 3, 35, 64
5, 10571, Note_on_c, 3, 35, 94
5, 11199, Note_off_c, 3, 35, 64
5, 11207, Note_on_c, 3, 36, 90
5, 11256, Note_off_c, 3, 36, 64
5, 11358, Note_on_c, 3, 37, 109
5, 11408, Note_off_c, 3, 37, 64
5, 11532, Note_on_c, 3, 38, 107
5, 12471, Note_off_c, 3, 38, 64
5, 12489, Note_on_c, 3, 50, 85
5, 12638, Note_off_c, 3, 50, 64
5, 12646, Note_on_c, 3, 38, 86
5, 12726, Note_off_c, 3, 38, 64
5, 13112, Note_on_c, 3, 40, 107
5, 13246, Note_off_c, 3, 40, 64
5, 13275, Note_on_c, 3, 38, 97
5, 13438, Note_off_c, 3, 38, 64
5, 13459, Note_on_c, 3, 31, 92
5, 14117, Note_off_c, 3, 31, 64
5, 14263, Note_on_c, 3, 31, 101
5, 14313, Note_off_c, 3, 31, 64
5, 14416, Note_on_c, 3, 31, 94
5, 15151, Note_off_c, 3, 31, 64
5, 15220, Note_on_c, 3, 31, 101
5, 15353, Note_off_c, 3, 31, 64
5, 15393, Note_on_c, 3, 33, 107
5, 16063, Note_off_c, 3, 33, 64
5, 16185, Note_on_c, 3, 33, 104
5, 16231, Note_off_c, 3, 33, 64
5, 16344, Note_on_c, 3, 33, 92
5, 17164, Note_off_c, 3, 33, 64
5, 17295, Note_on_c, 3, 35, 95
5, 18074, Note_off_c, 3, 35, 64
5, 18240, Note_on_c, 3, 35, 107
5, 18248, Note_on_c, 3, 35, 94
5, 18321, Note_off_c, 3, 35, 64
5, 18337, Note_off_c, 3, 35, 64
5, 18480, Note_on_c, 3, 35, 94
5, 18568, Note_off_c, 3, 35, 64
5, 18720, Note_on_c, 3, 35, 99
5, 18730, Note_on_c, 3, 35, 110
5, 18820, Note_off_c, 3, 35, 64
5, 18821, Note_off_c, 3, 35, 64
5, 18960, Note_on_c, 3, 35, 101
5, 19057, Note_off_c, 3, 35, 64
5, 19204, Note_on_c, 3, 33, 92
5, 19823, Note_off_c, 3, 33, 64
5, 19847, Note_on_c, 3, 43, 80
5, 19899, Note_off_c, 3, 43, 64
5, 20006, Note_on_c, 3, 44, 71
5, 20064, Note_off_c, 3, 44, 64
5, 20169, Note_on_c, 3, 45, 75
5, 20799, Note_on_c, 3, 33, 74
5, 20802, Note_off_c, 3, 45, 64
5, 20956, Note_off_c, 3, 33, 64
5, 20959, Note_on_c, 3, 40, 92
5, 21133, Note_off_c, 3, 40, 64
5, 21139, Note_on_c, 3, 38, 94
5, 21215, Note_off_c, 3, 38, 64
5, 21469, Note_on_c, 3, 38, 97
5, 21621, Note_off_c, 3, 38, 64
5, 21631, Note_on_c, 3, 36, 94
5, 21719, Note_off_c, 3, 36, 64
5, 21936, Note_on_c, 3, 36, 101
5, 22101, Note_off_c, 3, 36, 64
5, 22111, Note_on_c, 3, 35, 97
5, 22200, Note_off_c, 3, 35, 64
5, 22419, Note_on_c, 3, 35, 110
5, 22580, Note_off_c, 3, 35, 64
5, 22591, Note_on_c, 3, 33, 99
5, 22678, Note_off_c, 3, 33, 64
5, 22894, Note_on_c, 3, 33, 99
5, 22973, Note_off_c, 3, 33, 64
5, 23065, Note_on_c, 3, 31, 107
5, 23737, Note_off_c, 3, 31, 64
5, 23844, Note_on_c, 3, 38, 113
5, 23872, Note_off_c, 3, 38, 64
5, 24012, Note_on_c, 3, 43, 82
5, 24775, Note_off_c, 3, 43, 64
5, 24791, Note_on_c, 3, 31, 92
5, 24903, Note_off_c, 3, 31, 64
5, 24970, Note_on_c, 3, 33, 107
5, 25668, Note_off_c, 3, 33, 64
5, 25778, Note_on_c, 3, 40, 83
5, 25825, Note_off_c, 3, 40, 64
5, 25933, Note_on_c, 3, 45, 82
5, 26713, Note_on_c, 3, 33, 73
5, 26717, Note_off_c, 3, 45, 64
5, 26768, Note_off_c, 3, 33, 64
5, 26892, Note_on_c, 3, 31, 88
5, 27601, Note_off_c, 3, 31, 64
5, 27677, Note_on_c, 3, 38, 94
5, 27719, Note_off_c, 3, 38, 64
5, 27852, Note_on_c, 3, 43, 92
5, 28489, Note_on_c, 3, 31, 75
5, 28502, Note_off_c, 3, 43, 64
5, 28560, Note_off_c, 3, 31, 64
5, 28649, Note_on_c, 3, 32, 84
5, 28719, Note_off_c, 3, 32, 64
5, 28802, Note_on_c, 3, 33, 85
5, 29772, Note_off_c, 3, 33, 64
5, 30255, Note_on_c, 3, 38, 97
5, 30740, Note_on_c, 3, 31, 82
5, 30743, Note_off_c, 3, 38, 64
5, 31414, Note_off_c, 3, 31, 64
5, 31541, Note_on_c, 3, 31, 82
5, 31585, Note_off_c, 3, 31, 64
5, 31692, Note_on_c, 3, 31, 79
5, 32511, Note_off_c, 3, 31, 64
5, 32654, Note_on_c, 3, 33, 92
5, 33341, Note_off_c, 3, 33, 64
5, 33458, Note_on_c, 3, 33, 85
5, 33504, Note_off_c, 3, 33, 64
5, 33619, Note_on_c, 3, 33, 86
5, 34383, Note_off_c, 3, 33, 64
5, 34578, Note_on_c, 3, 35, 104
5, 35270, Note_off_c, 3, 35, 64
5, 35385, Note_on_c, 3, 35, 97
5, 35470, Note_off_c, 3, 35, 64
5, 35529, Note_on_c, 3, 47, 96
5, 35613, Note_off_c, 3, 47, 64
5, 35762, Note_on_c, 3, 42, 100
5, 35852, Note_off_c, 3, 42, 64
5, 36003, Note_on_c, 3, 38, 97
5, 36114, Note_off_c, 3, 38, 64
5, 36241, Note_on_c, 3, 35, 103
5, 36343, Note_off_c, 3, 35, 64
5, 36506, Note_on_c, 3, 33, 90
5, 37124, Note_off_c, 3, 33, 64
5, 37126, Note_on_c, 3, 43, 73
5, 37168, Note_off_c, 3, 43, 64
5, 37280, Note_on_c, 3, 44, 71
5, 37328, Note_off_c, 3, 44, 64
5, 37446, Note_on_c, 3, 45, 62
5, 38101, Note_on_c, 3, 40, 80
5, 38111, Note_off_c, 3, 45, 64
5, 38254, Note_on_c, 3, 35, 76
5, 38257, Note_off_c, 3, 40, 64
5, 38419, Note_off_c, 3, 35, 64
5, 38420, Note_on_c, 3, 38, 92
5, 38504, Note_off_c, 3, 38, 64
5, 38727, Note_on_c, 3, 38, 92
5, 38902, Note_off_c, 3, 38, 64
5, 38905, Note_on_c, 3, 36, 99
5, 38999, Note_off_c, 3, 36, 64
5, 39210, Note_on_c, 3, 36, 88
5, 39390, Note_on_c, 3, 35, 85
5, 39393, Note_off_c, 3, 36, 64
5, 39484, Note_off_c, 3, 35, 64
5, 39675, Note_on_c, 3, 35, 99
5, 39850, Note_off_c, 3, 35, 64
5, 39860, Note_on_c, 3, 33, 97
5, 39970, Note_off_c, 3, 33, 64
5, 40170, Note_on_c, 3, 33, 104
5, 40344, Note_off_c, 3, 33, 64
5, 40350, Note_on_c, 3, 31, 92
5, 41011, Note_off_c, 3, 31, 64
5, 41129, Note_on_c, 3, 31, 83
5, 41176, Note_off_c, 3, 31, 64
5, 41294, Note_on_c, 3, 31, 88
5, 41890, Note_off_c, 3, 31, 64
5, 41921, Note_on_c, 3, 31, 79
5, 42040, Note_off_c, 3, 31, 64
5, 42083, Note_on_c, 3, 32, 89
5, 42179, Note_off_c, 3, 32, 64
5, 42252, Note_on_c, 3, 33, 99
5, 42891, Note_off_c, 3, 33, 64
5, 42893, Note_on_c, 3, 47, 64
5, 42938, Note_off_c, 3, 47, 64
5, 43043, Note_on_c, 3, 46, 60
5, 43092, Note_off_c, 3, 46, 64
5, 43204, Note_on_c, 3, 45, 62
5, 43848, Note_on_c, 3, 33, 85
5, 43856, Note_off_c, 3, 45, 64
5, 44000, Note_on_c, 3, 42, 81
5, 44004, Note_off_c, 3, 33, 64
5, 44165, Note_off_c, 3, 42, 64
5, 44177, Note_on_c, 3, 43, 75
5, 44804, Note_on_c, 3, 38, 75
5, 44816, Note_off_c, 3, 43, 64
5, 44967, Note_off_c, 3, 38, 64
5, 44970, Note_on_c, 3, 40, 63
5, 45131, Note_on_c, 3, 31, 76
5, 45134, Note_off_c, 3, 40, 64
5, 45769, Note_off_c, 3, 31, 64
5, 45782, Note_on_c, 3, 35, 80
5, 45844, Note_off_c, 3, 35, 64
5, 45922, Note_on_c, 3, 34, 73
5, 45985, Note_off_c, 3, 34, 64
5, 46086, Note_on_c, 3, 33, 79
5, 46837, Note_off_c, 3, 33, 64
5, 46891, Note_on_c, 3, 33, 85
5, 47045, Note_off_c, 3, 33, 64
5, 47065, Note_on_c, 3, 45, 79
5, 47219, Note_on_c, 3, 33, 88
5, 47222, Note_off_c, 3, 45, 64
5, 47329, Note_off_c, 3, 33, 64
5, 47685, Note_on_c, 3, 33, 92
5, 47816, Note_off_c, 3, 33, 64
5, 47848, Note_on_c, 3, 34, 89
5, 47920, Note_off_c, 3, 34, 64
5, 48021, Note_on_c, 3, 35, 110
5, 48701, Note_off_c, 3, 35, 64
5, 48806, Note_on_c, 3, 30, 100
5, 48953, Note_off_c, 3, 30, 64
5, 48958, Note_on_c, 3, 35, 74
5, 49374, Note_off_c, 3, 35, 64
5, 49457, Note_on_c, 3, 35, 101
5, 49611, Note_off_c, 3, 35, 64
5, 49615, Note_on_c, 3, 36, 58
5, 49735, Note_off_c, 3, 36, 64
5, 49764, Note_on_c, 3, 37, 89
5, 49810, Note_off_c, 3, 37, 64
5, 49939, Note_on_c, 3, 38, 97
5, 50646, Note_off_c, 3, 38, 64
5, 50722, Note_on_c, 3, 33, 88
5, 50890, Note_off_c, 3, 33, 64
5, 50901, Note_on_c, 3, 38, 90
5, 51394, Note_off_c, 3, 38, 64
5, 51518, Note_on_c, 3, 33, 80
5, 51658, Note_off_c, 3, 33, 64
5, 51687, Note_on_c, 3, 34, 86
5, 51795, Note_off_c, 3, 34, 64
5, 51860, Note_on_c, 3, 35, 94
5, 52555, Note_off_c, 3, 35, 64
5, 52660, Note_on_c, 3, 30, 100
5, 52805, Note_off_c, 3, 30, 64
5, 52818, Note_on_c, 3, 35, 82
5, 53332, Note_off_c, 3, 35, 64
5, 53440, Note_on_c, 3, 36, 94
5, 53561, Note_off_c, 3, 36, 64
5, 53607, Note_on_c, 3, 37, 100
5, 53732, Note_off_c, 3, 37, 64
5, 53765, Note_on_c, 3, 38, 92
5, 54578, Note_off_c, 3, 38, 64
5, 54583, Note_on_c, 3, 26, 104
5, 55553, Note_off_c, 3, 26, 64
5, 55703, Note_on_c, 3, 31, 113
5, 56385, Note_off_c, 3, 31, 64
5, 56508, Note_on_c, 3, 31, 88
5, 56551, Note_off_c, 3, 31, 64
5, 56658, Note_on_c, 3, 31, 83
5, 57375, Note_off_c, 3, 31, 64
5, 57602, Note_on_c, 3, 33, 107
5, 58364, Note_off_c, 3, 33, 64
5, 58435, Note_on_c, 3, 33, 75
5, 58477, Note_off_c, 3, 33, 64
5, 58578, Note_on_c, 3, 33, 88
5, 59408, Note_off_c, 3, 33, 64
5, 59527, Note_on_c, 3, 35, 88
5, 60221, Note_off_c, 3, 35, 64
5, 60320, Note_on_c, 3, 35, 86
5, 60381, Note_off_c, 3, 35, 64
5, 60488, Note_on_c, 3, 35, 101
5, 60586, Note_off_c, 3, 35, 64
5, 60721, Note_on_c, 3, 38, 107
5, 60811, Note_off_c, 3, 38, 64
5, 60964, Note_on_c, 3, 42, 106
5, 61060, Note_off_c, 3, 42, 64
5, 61205, Note_on_c, 3, 38, 113
5, 61286, Note_off_c, 3, 38, 64
5, 61448, Note_on_c, 3, 33, 104
5, 62246, Note_on_c, 3, 28, 68
5, 62249, Note_off_c, 3, 33, 64
5, 62411, Note_on_c, 3, 33, 90
5, 62414, Note_off_c, 3, 28, 64
5, 62723, Note_on_c, 3, 35, 94
5, 62728, Note_off_c, 3, 33, 64
5, 63053, Note_on_c, 3, 36, 80
5, 63057, Note_off_c, 3, 35, 64
5, 63192, Note_on_c, 3, 37, 92
5, 63205, Note_off_c, 3, 36, 64
5, 63359, Note_off_c, 3, 37, 64
5, 63368, Note_on_c, 3, 38, 88
5, 63458, Note_off_c, 3, 38, 64
5, 63691, Note_on_c, 3, 38, 99
5, 63852, Note_off_c, 3, 38, 64
5, 63857, Note_on_c, 3, 36, 97
5, 63947, Note_off_c, 3, 36, 64
5, 64188, Note_on_c, 3, 36, 104
5, 64334, Note_off_c, 3, 36, 64
5, 64344, Note_on_c, 3, 35, 83
5, 64441, Note_off_c, 3, 35, 64
5, 64663, Note_on_c, 3, 35, 94
5, 64813, Note_off_c, 3, 35, 64
5, 64828, Note_on_c, 3, 33, 99
5, 64923, Note_off_c, 3, 33, 64
5, 65128, Note_on_c, 3, 33, 94
5, 65241, Note_off_c, 3, 33, 64
5, 65296, Note_on_c, 3, 31, 83
5, 66142, Note_off_c, 3, 31, 64
5, 66251, Note_on_c, 3, 31, 94
5, 66935, Note_off_c, 3, 31, 64
5, 67034, Note_on_c, 3, 31, 86
5, 67158, Note_off_c, 3, 31, 64
5, 67211, Note_on_c, 3, 33, 113
5, 67860, Note_on_c, 3, 43, 82
5, 67865, Note_off_c, 3, 33, 64
5, 67914, Note_off_c, 3, 43, 64
5, 68012, Note_on_c, 3, 44, 89
5, 68156, Note_off_c, 3, 44, 64
5, 68164, Note_on_c, 3, 45, 69
5, 68324, Note_off_c, 3, 45, 64
5, 68326, Note_on_c, 3, 38, 76
5, 68465, Note_off_c, 3, 38, 64
5, 68478, Note_on_c, 3, 39, 86
5, 68637, Note_off_c, 3, 39, 64
5, 68642, Note_on_c, 3, 40, 70
5, 68785, Note_off_c, 3, 40, 64
5, 68794, Note_on_c, 3, 33, 80
5, 68900, Note_off_c, 3, 33, 64
5, 68952, Note_on_c, 3, 32, 89
5, 69069, Note_off_c, 3, 32, 64
5, 69115, Note_on_c, 3, 31, 99
5, 69865, Note_off_c, 3, 31, 64
5, 69922, Note_on_c, 3, 38, 88
5, 69975, Note_off_c, 3, 38, 64
5, 70096, Note_on_c, 3, 43, 76
5, 70681, Note_off_c, 3, 43, 64
5, 70742, Note_on_c, 3, 31, 86
5, 70832, Note_off_c, 3, 31, 64
5, 70896, Note_on_c, 3, 32, 100
5, 70985, Note_off_c, 3, 32, 64
5, 71052, Note_on_c, 3, 33, 107
5, 72180, Note_off_c, 3, 33, 64
5, 72319, Note_on_c, 3, 38, 65
5, 72384, Note_off_c, 3, 38, 64
5, 72490, Note_on_c, 3, 38, 92
5, 72551, Note_off_c, 3, 38, 64
5, 72647, Note_on_c, 3, 38, 97
5, 72712, Note_off_c, 3, 38, 64
5, 72796, Note_on_c, 3, 38, 97
5, 72944, Note_off_c, 3, 38, 64
5, 72980, Note_on_c, 3, 31, 82
5, 73654, Note_off_c, 3, 31, 64
5, 73781, Note_on_c, 3, 31, 82
5, 73825, Note_off_c, 3, 31, 64
5, 73932, Note_on_c, 3, 31, 79
5, 74751, Note_off_c, 3, 31, 64
5, 74894, Note_on_c, 3, 33, 92
5, 75581, Note_off_c, 3, 33, 64
5, 75698, Note_on_c, 3, 33, 85
5, 75744, Note_off_c, 3, 33, 64
5, 75859, Note_on_c, 3, 33, 86
5, 76623, Note_off_c, 3, 33, 64
5, 76818, Note_on_c, 3, 35, 104
5, 77510, Note_off_c, 3, 35, 64
5, 77625, Note_on_c, 3, 35, 97
5, 77710, Note_off_c, 3, 35, 64
5, 77769, Note_on_c, 3, 47, 96
5, 77853, Note_off_c, 3, 47, 64
5, 78002, Note_on_c, 3, 42, 100
5, 78092, Note_off_c, 3, 42, 64
5, 78243, Note_on_c, 3, 38, 97
5, 78354, Note_off_c, 3, 38, 64
5, 78481, Note_on_c, 3, 35, 103
5, 78583, Note_off_c, 3, 35, 64
5, 78746, Note_on_c, 3, 33, 90
5, 79364, Note_off_c, 3, 33, 64
5, 79366, Note_on_c, 3, 43, 73
5, 79408, Note_off_c, 3, 43, 64
5, 79520, Note_on_c, 3, 44, 71
5, 79568, Note_off_c, 3, 44, 64
5, 79686, Note_on_c, 3, 45, 62
5, 80341, Note_on_c, 3, 40, 80
5, 80351, Note_off_c, 3, 45, 64
5, 80494, Note_on_c, 3, 35, 76
5, 80497, Note_off_c, 3, 40, 64
5, 80659, Note_off_c, 3, 35, 64
5, 80660, Note_on_c, 3, 38, 92
5, 80744, Note_off_c, 3, 38, 64
5, 80967, Note_on_c, 3, 38, 92
5, 81142, Note_off_c, 3, 38, 64
5, 81145, Note_on_c, 3, 36, 99
5, 81239, Note_off_c, 3, 36, 64
5, 81450, Note_on_c, 3, 36, 88
5, 81630, Note_on_c, 3, 35, 85
5, 81633, Note_off_c, 3, 36, 64
5, 81724, Note_off_c, 3, 35, 64
5, 81915, Note_on_c, 3, 35, 99
5, 82090, Note_off_c, 3, 35, 64
5, 82100, Note_on_c, 3, 33, 97
5, 82210, Note_off_c, 3, 33, 64
5, 82410, Note_on_c, 3, 33, 104
5, 82584, Note_off_c, 3, 33, 64
5, 82590, Note_on_c, 3, 31, 92
5, 83251, Note_off_c, 3, 31, 64
5, 83369, Note_on_c, 3, 31, 83
5, 83416, Note_off_c, 3, 31, 64
5, 83534, Note_on_c, 3, 31, 88
5, 84130, Note_off_c, 3, 31, 64
5, 84161, Note_on_c, 3, 31, 79
5, 84280, Note_off_c, 3, 31, 64
5, 84323, Note_on_c, 3, 32, 89
5, 84419, Note_off_c, 3, 32, 64
5, 84492, Note_on_c, 3, 33, 99
5, 85131, Note_off_c, 3, 33, 64
5, 85133, Note_on_c, 3, 47, 64
5, 85178, Note_off_c, 3, 47, 64
5, 85283, Note_on_c, 3, 46, 60
5, 85332, Note_off_c, 3, 46, 64
5, 85444, Note_on_c, 3, 45, 62
5, 86088, Note_on_c, 3, 33, 85
5, 86096, Note_off_c, 3, 45, 64
5, 86240, Note_on_c, 3, 42, 81
5, 86244, Note_off_c, 3, 33, 64
5, 86405, Note_off_c, 3, 42, 64
5, 86417, Note_on_c, 3, 43, 75
5, 87044, Note_on_c, 3, 38, 75
5, 87056, Note_off_c, 3, 43, 64
5, 87207, Note_off_c, 3, 38, 64
5, 87210, Note_on_c, 3, 40, 63
5, 87371, Note_on_c, 3, 31, 76
5, 87374, Note_off_c, 3, 40, 64
5, 88009, Note_off_c, 3, 31, 64
5, 88022, Note_on_c, 3, 35, 80
5, 88084, Note_off_c, 3, 35, 64
5, 88162, Note_on_c, 3, 34, 73
5, 88225, Note_off_c, 3, 34, 64
5, 88326, Note_on_c, 3, 33, 79
5, 89077, Note_off_c, 3, 33, 64
5, 89131, Note_on_c, 3, 33, 85
5, 89285, Note_off_c, 3, 33, 64
5, 89305, Note_on_c, 3, 45, 79
5, 89459, Note_on_c, 3, 33, 88
5, 89462, Note_off_c, 3, 45, 64
5, 89569, Note_off_c, 3, 33, 64
5, 89925, Note_on_c, 3, 33, 92
5, 90056, Note_off_c, 3, 33, 64
5, 90088, Note_on_c, 3, 34, 89
5, 90160, Note_off_c, 3, 34, 64
5, 90261, Note_on_c, 3, 35, 110
5, 90941, Note_off_c, 3, 35, 64
5, 91046, Note_on_c, 3, 30, 100
5, 91193, Note_off_c, 3, 30, 64
5, 91198, Note_on_c, 3, 35, 74
5, 91614, Note_off_c, 3, 35, 64
5, 91697, Note_on_c, 3, 35, 101
5, 91851, Note_off_c, 3, 35, 64
5, 91855, Note_on_c, 3, 36, 58
5, 91975, Note_off_c, 3, 36, 64
5, 92004, Note_on_c, 3, 37, 89
5, 92050, Note_off_c, 3, 37, 64
5, 92179, Note_on_c, 3, 38, 97
5, 92886, Note_off_c, 3, 38, 64
5, 92962, Note_on_c, 3, 33, 88
5, 93130, Note_off_c, 3, 33, 64
5, 93141, Note_on_c, 3, 38, 90
5, 93634, Note_off_c, 3, 38, 64
5, 93758, Note_on_c, 3, 33, 80
5, 93898, Note_off_c, 3, 33, 64
5, 93927, Note_on_c, 3, 34, 86
5, 94035, Note_off_c, 3, 34, 64
5, 94100, Note_on_c, 3, 35, 94
5, 94795, Note_off_c, 3, 35, 64
5, 94900, Note_on_c, 3, 30, 100
5, 95045, Note_off_c, 3, 30, 64
5, 95058, Note_on_c, 3, 35, 82
5, 95572, Note_off_c, 3, 35, 64
5, 95680, Note_on_c, 3, 36, 94
5, 95801, Note_off_c, 3, 36, 64
5, 95847, Note_on_c, 3, 37, 100
5, 95972, Note_off_c, 3, 37, 64
5, 96005, Note_on_c, 3, 38, 92
5, 96818, Note_off_c, 3, 38, 64
5, 96823, Note_on_c, 3, 26, 104
5, 97793, Note_off_c, 3, 26, 64
5, 97943, Note_on_c, 3, 31, 113
5, 98625, Note_off_c, 3, 31, 64
5, 98748, Note_on_c, 3, 31, 88
5, 98791, Note_off_c, 3, 31, 64
5, 98898, Note_on_c, 3, 31, 83
5, 99615, Note_off_c, 3, 31, 64
5, 99842, Note_on_c, 3, 33, 107
5, 100604, Note_off_c, 3, 33, 64
5, 100675, Note_on_c, 3, 33, 75
5, 100717, Note_off_c, 3, 33, 64
5, 100818, Note_on_c, 3, 33, 88
5, 101648, Note_off_c, 3, 33, 64
5, 101767, Note_on_c, 3, 35, 88
5, 102461, Note_off_c, 3, 35, 64
5, 102560, Note_on_c, 3, 35, 86
5, 102621, Note_off_c, 3, 35, 64
5, 102728, Note_on_c, 3, 35, 101
5, 102826, Note_off_c, 3, 35, 64
5, 102961, Note_on_c, 3, 38, 107
5, 103051, Note_off_c, 3, 38, 64
5, 103204, Note_on_c, 3, 42, 106
5, 103300, Note_off_c, 3, 42, 64
5, 103445, Note_on_c, 3, 38, 113
5, 103526, Note_off_c, 3, 38, 64
5, 103688, Note_on_c, 3, 33, 104
5, 104486, Note_on_c, 3, 28, 68
5, 104489, Note_off_c, 3, 33, 64
5, 104651, Note_on_c, 3, 33, 90
5, 104654, Note_off_c, 3, 28, 64
5, 104963, Note_on_c, 3, 35, 94
5, 104968, Note_off_c, 3, 33, 64
5, 105293, Note_on_c, 3, 36, 80
5, 105297, Note_off_c, 3, 35, 64
5, 105432, Note_on_c, 3, 37, 92
5, 105445, Note_off_c, 3, 36, 64
5, 105599, Note_off_c, 3, 37, 64
5, 105608, Note_on_c, 3, 38, 88
5, 105698, Note_off_c, 3, 38, 64
5, 105931, Note_on_c, 3, 38, 99
5, 106092, Note_off_c, 3, 38, 64
5, 106097, Note_on_c, 3, 36, 97
5, 106187, Note_off_c, 3, 36, 64
5, 106428, Note_on_c, 3, 36, 104
5, 106574, Note_off_c, 3, 36, 64
5, 106584, Note_on_c, 3, 35, 83
5, 106681, Note_off_c, 3, 35, 64
5, 106903, Note_on_c, 3, 35, 94
5, 107053, Note_off_c, 3, 35, 64
5, 107068, Note_on_c, 3, 33, 99
5, 107163, Note_off_c, 3, 33, 64
5, 107368, Note_on_c, 3, 33, 94
5, 107481, Note_off_c, 3, 33, 64
5, 107520, Note_on_c, 3, 31, 94
5, 108200, Note_off_c, 3, 31, 64
5, 108320, Note_on_c, 3, 31, 97
5, 108398, Note_off_c, 3, 31, 64
5, 108480, Note_on_c, 3, 31, 107
5, 109067, Note_off_c, 3, 31, 64
5, 109120, Note_on_c, 3, 31, 92
5, 109249, Note_off_c, 3, 31, 64
5, 109280, Note_on_c, 3, 35, 97
5, 109435, Note_off_c, 3, 35, 64
5, 109440, Note_on_c, 3, 33, 101
5, 110104, Note_off_c, 3, 33, 64
5, 110240, Note_on_c, 3, 33, 120
5, 110284, Note_off_c, 3, 33, 64
5, 110400, Note_on_c, 3, 33, 92
5, 110560, Note_on_c, 3, 43, 75
5, 110569, Note_off_c, 3, 33, 64
5, 110720, Note_on_c, 3, 44, 92
5, 110722, Note_off_c, 3, 43, 64
5, 110880, Note_on_c, 3, 45, 82
5, 110885, Note_off_c, 3, 44, 64
5, 111040, Note_on_c, 3, 38, 92
5, 111041, Note_off_c, 3, 45, 64
5, 111180, Note_off_c, 3, 38, 64
5, 111200, Note_on_c, 3, 45, 104
5, 111360, Note_on_c, 3, 43, 79
5, 111364, Note_off_c, 3, 45, 64
5, 112090, Note_off_c, 3, 43, 64
5, 112160, Note_on_c, 3, 38, 104
5, 112258, Note_off_c, 3, 38, 64
5, 112320, Note_on_c, 3, 31, 85
5, 113013, Note_off_c, 3, 31, 64
5, 113120, Note_on_c, 3, 31, 97
5, 113237, Note_off_c, 3, 31, 64
5, 113280, Note_on_c, 3, 33, 107
5, 114010, Note_off_c, 3, 33, 64
5, 114080, Note_on_c, 3, 33, 99
5, 114124, Note_off_c, 3, 33, 64
5, 114240, Note_on_c, 3, 33, 97
5, 114383, Note_off_c, 3, 33, 64
5, 114400, Note_on_c, 3, 35, 90
5, 114521, Note_off_c, 3, 35, 64
5, 114560, Note_on_c, 3, 36, 107
5, 114680, Note_off_c, 3, 36, 64
5, 114880, Note_on_c, 3, 38, 113
5, 114989, Note_off_c, 3, 38, 64
5, 115040, Note_on_c, 3, 40, 70
5, 115200, Note_on_c, 3, 31, 99
5, 115212, Note_off_c, 3, 40, 64
5, 115902, Note_off_c, 3, 31, 64
5, 116000, Note_on_c, 3, 38, 97
5, 116125, Note_off_c, 3, 38, 64
5, 116160, Note_on_c, 3, 43, 97
5, 116800, Note_on_c, 3, 47, 85
5, 116802, Note_off_c, 3, 43, 64
5, 116918, Note_off_c, 3, 47, 64
5, 116960, Note_on_c, 3, 46, 92
5, 117093, Note_off_c, 3, 46, 64
5, 117120, Note_on_c, 3, 45, 90
5, 117989, Note_off_c, 3, 45, 64
5, 118080, Note_on_c, 3, 43, 76
5, 118080, Note_on_c, 3, 45, 99
5, 118129, Note_off_c, 3, 43, 64
5, 118196, Note_off_c, 3, 45, 64
5, 118240, Note_on_c, 3, 43, 85
5, 118320, Note_off_c, 3, 43, 64
5, 118400, Note_on_c, 3, 40, 92
5, 118526, Note_off_c, 3, 40, 64
5, 118560, Note_on_c, 3, 38, 101
5, 118692, Note_off_c, 3, 38, 64
5, 118720, Note_on_c, 3, 35, 94
5, 118845, Note_off_c, 3, 35, 64
5, 118880, Note_on_c, 3, 33, 99
5, 119012, Note_off_c, 3, 33, 64
5, 119040, Note_on_c, 3, 31, 88
5, 119703, Note_off_c, 3, 31, 64
5, 119840, Note_on_c, 3, 26, 86
5, 119989, Note_off_c, 3, 26, 64
5, 120000, Note_on_c, 3, 31, 99
5, 120120, Note_off_c, 3, 31, 64
5, 120480, Note_on_c, 3, 31, 120
5, 120607, Note_off_c, 3, 31, 64
5, 120960, Note_on_c, 3, 33, 104
5, 123360, Note_off_c, 3, 33, 64
5, 123360, End_track
6, 0, Start_track
6, 0, Title_t, "Drums   (BB)"
6, 0, MIDI_port, 0
6, 0, Channel_prefix, 9
6, 0, Control_c, 9, 7, 99
6, 0, Control_c, 9, 10, 64
6, 0, Control_c, 9, 91, 99
6, 0, Control_c, 9, 93, 1
6, 0, Program_c, 9, 0
6, 0, Note_on_c, 9, 37, 64
6, 0, Control_c, 9, 121, 0
6, 480, Note_off_c, 9, 37, 64
6, 480, Note_on_c, 9, 37, 84
6, 960, Note_off_c, 9, 37, 64
6, 960, Note_on_c, 9, 37, 64
6, 1440, Note_off_c, 9, 37, 64
6, 1451, Note_on_c, 9, 50, 94
6, 1460, Note_on_c, 9, 48, 90
6, 1508, Note_off_c, 9, 50, 64
6, 1514, Note_off_c, 9, 48, 64
6, 1605, Note_on_c, 9, 47, 86
6, 1606, Note_on_c, 9, 45, 104
6, 1644, Note_off_c, 9, 47, 64
6, 1652, Note_off_c, 9, 45, 64
6, 1760, Note_on_c, 9, 43, 101
6, 1763, Note_on_c, 9, 41, 104
6, 1832, Note_off_c, 9, 41, 64
6, 1835, Note_off_c, 9, 43, 64
6, 1920, Note_on_c, 9, 35, 100
6, 1920, Note_on_c, 9, 42, 90
6, 1920, Note_on_c, 9, 49, 90
6, 2020, Note_off_c, 9, 49, 64
6, 2020, Note_off_c, 9, 42, 64
6, 2020, Note_off_c, 9, 35, 64
6, 2240, Note_on_c, 9, 42, 70
6, 2340, Note_off_c, 9, 42, 64
6, 2400, Note_on_c, 9, 38, 100
6, 2400, Note_on_c, 9, 42, 80
6, 2500, Note_off_c, 9, 42, 64
6, 2500, Note_off_c, 9, 38, 64
6, 2560, Note_on_c, 9, 42, 50
6, 2660, Note_off_c, 9, 42, 64
6, 2720, Note_on_c, 9, 35, 80
6, 2720, Note_on_c, 9, 42, 70
6, 2820, Note_off_c, 9, 42, 64
6, 2820, Note_off_c, 9, 35, 64
6, 2880, Note_on_c, 9, 35, 100
6, 2880, Note_on_c, 9, 42, 90
6, 2980, Note_off_c, 9, 42, 64
6, 2980, Note_off_c, 9, 35, 64
6, 3200, Note_on_c, 9, 42, 70
6, 3300, Note_off_c, 9, 42, 64
6, 3360, Note_on_c, 9, 38, 100
6, 3360, Note_on_c, 9, 42, 80
6, 3460, Note_off_c, 9, 42, 64
6, 3460, Note_off_c, 9, 38, 64
6, 3520, Note_on_c, 9, 42, 60
6, 3620, Note_off_c, 9, 42, 64
6, 3680, Note_on_c, 9, 35, 80
6, 3680, Note_on_c, 9, 42, 70
6, 3780, Note_off_c, 9, 42, 64
6, 3780, Note_off_c, 9, 35, 64
6, 3840, Note_on_c, 9, 35, 100
6, 3840, Note_on_c, 9, 42, 90
6, 3940, Note_off_c, 9, 42, 64
6, 3940, Note_off_c, 9, 35, 64
6, 4160, Note_on_c, 9, 42, 70
6, 4260, Note_off_c, 9, 42, 64
6, 4320, Note_on_c, 9, 38, 100
6, 4320, Note_on_c, 9, 42, 80
6, 4420, Note_off_c, 9, 42, 64
6, 4420, Note_off_c, 9, 38, 64
6, 4480, Note_on_c, 9, 42, 50
6, 4580, Note_off_c, 9, 42, 64
6, 4640, Note_on_c, 9, 35, 80
6, 4640, Note_on_c, 9, 42, 70
6, 4740, Note_off_c, 9, 42, 64
6, 4740, Note_off_c, 9, 35, 64
6, 4800, Note_on_c, 9, 35, 100
6, 4800, Note_on_c, 9, 42, 90
6, 4900, Note_off_c, 9, 42, 64
6, 4900, Note_off_c, 9, 35, 64
6, 5120, Note_on_c, 9, 35, 80
6, 5120, Note_on_c, 9, 42, 70
6, 5220, Note_off_c, 9, 42, 64
6, 5220, Note_off_c, 9, 35, 64
6, 5280, Note_on_c, 9, 38, 100
6, 5280, Note_on_c, 9, 42, 80
6, 5380, Note_off_c, 9, 42, 64
6, 5380, Note_off_c, 9, 38, 64
6, 5440, Note_on_c, 9, 42, 50
6, 5446, Note_on_c, 9, 38, 68
6, 5481, Note_off_c, 9, 38, 64
6, 5540, Note_off_c, 9, 42, 64
6, 5600, Note_on_c, 9, 35, 80
6, 5600, Note_on_c, 9, 46, 80
6, 5614, Note_on_c, 9, 38, 107
6, 5641, Note_off_c, 9, 38, 64
6, 5700, Note_off_c, 9, 46, 64
6, 5700, Note_off_c, 9, 35, 64
6, 5760, Note_on_c, 9, 35, 100
6, 5760, Note_on_c, 9, 42, 90
6, 5776, Note_on_c, 9, 49, 84
6, 5806, Note_off_c, 9, 49, 64
6, 5860, Note_off_c, 9, 42, 64
6, 5860, Note_off_c, 9, 35, 64
6, 6080, Note_on_c, 9, 42, 70
6, 6180, Note_off_c, 9, 42, 64
6, 6240, Note_on_c, 9, 38, 100
6, 6240, Note_on_c, 9, 42, 80
6, 6340, Note_off_c, 9, 42, 64
6, 6340, Note_off_c, 9, 38, 64
6, 6400, Note_on_c, 9, 42, 40
6, 6500, Note_off_c, 9, 42, 64
6, 6560, Note_on_c, 9, 35, 80
6, 6560, Note_on_c, 9, 42, 70
6, 6660, Note_off_c, 9, 42, 64
6, 6660, Note_off_c, 9, 35, 64
6, 6720, Note_on_c, 9, 35, 100
6, 6720, Note_on_c, 9, 42, 90
6, 6820, Note_off_c, 9, 42, 64
6, 6820, Note_off_c, 9, 35, 64
6, 6880, Note_on_c, 9, 42, 50
6, 6980, Note_off_c, 9, 42, 64
6, 7040, Note_on_c, 9, 46, 80
6, 7140, Note_off_c, 9, 46, 64
6, 7200, Note_on_c, 9, 38, 100
6, 7200, Note_on_c, 9, 42, 80
6, 7300, Note_off_c, 9, 42, 64
6, 7300, Note_off_c, 9, 38, 64
6, 7360, Note_on_c, 9, 42, 60
6, 7460, Note_off_c, 9, 42, 64
6, 7520, Note_on_c, 9, 35, 80
6, 7520, Note_on_c, 9, 42, 70
6, 7620, Note_off_c, 9, 42, 64
6, 7620, Note_off_c, 9, 35, 64
6, 7680, Note_on_c, 9, 35, 100
6, 7680, Note_on_c, 9, 42, 90
6, 7780, Note_off_c, 9, 42, 64
6, 7780, Note_off_c, 9, 35, 64
6, 7840, Note_on_c, 9, 42, 50
6, 7940, Note_off_c, 9, 42, 64
6, 8000, Note_on_c, 9, 42, 70
6, 8100, Note_off_c, 9, 42, 64
6, 8160, Note_on_c, 9, 38, 100
6, 8160, Note_on_c, 9, 42, 80
6, 8260, Note_off_c, 9, 42, 64
6, 8260, Note_off_c, 9, 38, 64
6, 8320, Note_on_c, 9, 42, 50
6, 8420, Note_off_c, 9, 42, 64
6, 8480, Note_on_c, 9, 35, 80
6, 8480, Note_on_c, 9, 42, 70
6, 8580, Note_off_c, 9, 42, 64
6, 8580, Note_off_c, 9, 35, 64
6, 8640, Note_on_c, 9, 35, 100
6, 8640, Note_on_c, 9, 42, 90
6, 8740, Note_off_c, 9, 42, 64
6, 8740, Note_off_c, 9, 35, 64
6, 8800, Note_on_c, 9, 42, 50
6, 8900, Note_off_c, 9, 42, 64
6, 8960, Note_on_c, 9, 35, 80
6, 8960, Note_on_c, 9, 42, 70
6, 9060, Note_off_c, 9, 42, 64
6, 9060, Note_off_c, 9, 35, 64
6, 9120, Note_on_c, 9, 38, 100
6, 9120, Note_on_c, 9, 42, 80
6, 9220, Note_off_c, 9, 42, 64
6, 9220, Note_off_c, 9, 38, 64
6, 9280, Note_on_c, 9, 42, 50
6, 9380, Note_off_c, 9, 42, 64
6, 9440, Note_on_c, 9, 35, 80
6, 9440, Note_on_c, 9, 46, 80
6, 9540, Note_off_c, 9, 46, 64
6, 9540, Note_off_c, 9, 35, 64
6, 9600, Note_on_c, 9, 35, 100
6, 9600, Note_on_c, 9, 42, 90
6, 9700, Note_off_c, 9, 42, 64
6, 9700, Note_off_c, 9, 35, 64
6, 9920, Note_on_c, 9, 42, 70
6, 10020, Note_off_c, 9, 42, 64
6, 10080, Note_on_c, 9, 38, 100
6, 10080, Note_on_c, 9, 42, 80
6, 10180, Note_off_c, 9, 42, 64
6, 10180, Note_off_c, 9, 38, 64
6, 10240, Note_on_c, 9, 42, 40
6, 10340, Note_off_c, 9, 42, 64
6, 10400, Note_on_c, 9, 35, 80
6, 10400, Note_on_c, 9, 42, 70
6, 10500, Note_off_c, 9, 42, 64
6, 10500, Note_off_c, 9, 35, 64
6, 10560, Note_on_c, 9, 35, 100
6, 10560, Note_on_c, 9, 42, 90
6, 10660, Note_off_c, 9, 42, 64
6, 10660, Note_off_c, 9, 35, 64
6, 10720, Note_on_c, 9, 42, 50
6, 10820, Note_off_c, 9, 42, 64
6, 10880, Note_on_c, 9, 46, 80
6, 10980, Note_off_c, 9, 46, 64
6, 11040, Note_on_c, 9, 38, 100
6, 11040, Note_on_c, 9, 42, 80
6, 11140, Note_off_c, 9, 42, 64
6, 11140, Note_off_c, 9, 38, 64
6, 11200, Note_on_c, 9, 42, 60
6, 11300, Note_off_c, 9, 42, 64
6, 11360, Note_on_c, 9, 35, 80
6, 11360, Note_on_c, 9, 42, 70
6, 11460, Note_off_c, 9, 42, 64
6, 11460, Note_off_c, 9, 35, 64
6, 11520, Note_on_c, 9, 35, 90
6, 11520, Note_on_c, 9, 42, 80
6, 11620, Note_off_c, 9, 42, 64
6, 11620, Note_off_c, 9, 35, 64
6, 11680, Note_on_c, 9, 42, 50
6, 11780, Note_off_c, 9, 42, 64
6, 11840, Note_on_c, 9, 42, 100
6, 11940, Note_off_c, 9, 42, 64
6, 12000, Note_on_c, 9, 38, 100
6, 12000, Note_on_c, 9, 46, 100
6, 12100, Note_off_c, 9, 46, 64
6, 12100, Note_off_c, 9, 38, 64
6, 12320, Note_on_c, 9, 35, 90
6, 12420, Note_off_c, 9, 35, 64
6, 12480, Note_on_c, 9, 38, 100
6, 12580, Note_off_c, 9, 38, 64
6, 12640, Note_on_c, 9, 38, 60
6, 12740, Note_off_c, 9, 38, 64
6, 12800, Note_on_c, 9, 35, 90
6, 12900, Note_off_c, 9, 35, 64
6, 12960, Note_on_c, 9, 38, 100
6, 13060, Note_off_c, 9, 38, 64
6, 13120, Note_on_c, 9, 38, 60
6, 13220, Note_off_c, 9, 38, 64
6, 13280, Note_on_c, 9, 41, 115
6, 13380, Note_off_c, 9, 41, 64
6, 13440, Note_on_c, 9, 35, 100
6, 13440, Note_on_c, 9, 42, 90
6, 13440, Note_on_c, 9, 49, 90
6, 13540, Note_off_c, 9, 49, 64
6, 13540, Note_off_c, 9, 42, 64
6, 13540, Note_off_c, 9, 35, 64
6, 13760, Note_on_c, 9, 42, 70
6, 13860, Note_off_c, 9, 42, 64
6, 13920, Note_on_c, 9, 42, 80
6, 13920, Note_on_c, 9, 37, 100
6, 14020, Note_off_c, 9, 37, 64
6, 14020, Note_off_c, 9, 42, 64
6, 14240, Note_on_c, 9, 35, 80
6, 14240, Note_on_c, 9, 42, 70
6, 14340, Note_off_c, 9, 42, 64
6, 14340, Note_off_c, 9, 35, 64
6, 14400, Note_on_c, 9, 35, 100
6, 14400, Note_on_c, 9, 42, 90
6, 14500, Note_off_c, 9, 42, 64
6, 14500, Note_off_c, 9, 35, 64
6, 14720, Note_on_c, 9, 42, 70
6, 14820, Note_off_c, 9, 42, 64
6, 14880, Note_on_c, 9, 42, 80
6, 14880, Note_on_c, 9, 37, 100
6, 14980, Note_off_c, 9, 37, 64
6, 14980, Note_off_c, 9, 42, 64
6, 15200, Note_on_c, 9, 35, 80
6, 15200, Note_on_c, 9, 42, 70
6, 15300, Note_off_c, 9, 42, 64
6, 15300, Note_off_c, 9, 35, 64
6, 15360, Note_on_c, 9, 35, 100
6, 15360, Note_on_c, 9, 42, 90
6, 15460, Note_off_c, 9, 42, 64
6, 15460, Note_off_c, 9, 35, 64
6, 15680, Note_on_c, 9, 42, 70
6, 15780, Note_off_c, 9, 42, 64
6, 15840, Note_on_c, 9, 42, 80
6, 15840, Note_on_c, 9, 37, 100
6, 15940, Note_off_c, 9, 37, 64
6, 15940, Note_off_c, 9, 42, 64
6, 16160, Note_on_c, 9, 35, 80
6, 16160, Note_on_c, 9, 42, 70
6, 16260, Note_off_c, 9, 42, 64
6, 16260, Note_off_c, 9, 35, 64
6, 16320, Note_on_c, 9, 35, 100
6, 16320, Note_on_c, 9, 42, 90
6, 16420, Note_off_c, 9, 42, 64
6, 16420, Note_off_c, 9, 35, 64
6, 16640, Note_on_c, 9, 35, 80
6, 16640, Note_on_c, 9, 42, 70
6, 16740, Note_off_c, 9, 42, 64
6, 16740, Note_off_c, 9, 35, 64
6, 16800, Note_on_c, 9, 42, 80
6, 16800, Note_on_c, 9, 37, 100
6, 16900, Note_off_c, 9, 37, 64
6, 16900, Note_off_c, 9, 42, 64
6, 16960, Note_on_c, 9, 42, 60
6, 17060, Note_off_c, 9, 42, 64
6, 17120, Note_on_c, 9, 35, 80
6, 17120, Note_on_c, 9, 42, 70
6, 17220, Note_off_c, 9, 42, 64
6, 17220, Note_off_c, 9, 35, 64
6, 17280, Note_on_c, 9, 35, 100
6, 17280, Note_on_c, 9, 42, 90
6, 17380, Note_off_c, 9, 42, 64
6, 17380, Note_off_c, 9, 35, 64
6, 17600, Note_on_c, 9, 42, 70
6, 17700, Note_off_c, 9, 42, 64
6, 17760, Note_on_c, 9, 42, 80
6, 17760, Note_on_c, 9, 37, 100
6, 17860, Note_off_c, 9, 37, 64
6, 17860, Note_off_c, 9, 42, 64
6, 18080, Note_on_c, 9, 35, 80
6, 18080, Note_on_c, 9, 42, 70
6, 18180, Note_off_c, 9, 42, 64
6, 18180, Note_off_c, 9, 35, 64
6, 18240, Note_on_c, 9, 35, 100
6, 18240, Note_on_c, 9, 42, 89
6, 18242, Note_on_c, 9, 38, 80
6, 18284, Note_off_c, 9, 38, 64
6, 18340, Note_off_c, 9, 35, 64
6, 18480, Note_off_c, 9, 42, 64
6, 18481, Note_on_c, 9, 42, 96
6, 18494, Note_on_c, 9, 38, 80
6, 18531, Note_off_c, 9, 38, 64
6, 18721, Note_off_c, 9, 42, 64
6, 18722, Note_on_c, 9, 42, 114
6, 18725, Note_on_c, 9, 38, 90
6, 18763, Note_off_c, 9, 38, 64
6, 18962, Note_off_c, 9, 42, 64
6, 18962, Note_on_c, 9, 46, 114
6, 18972, Note_on_c, 9, 38, 80
6, 19006, Note_off_c, 9, 38, 64
6, 19200, Note_on_c, 9, 35, 100
6, 19200, Note_on_c, 9, 42, 90
6, 19202, Note_off_c, 9, 46, 64
6, 19300, Note_off_c, 9, 35, 64
6, 19300, Note_off_c, 9, 42, 64
6, 19360, Note_on_c, 9, 42, 60
6, 19460, Note_off_c, 9, 42, 64
6, 19520, Note_on_c, 9, 42, 70
6, 19620, Note_off_c, 9, 42, 64
6, 19680, Note_on_c, 9, 42, 80
6, 19680, Note_on_c, 9, 37, 100
6, 19780, Note_off_c, 9, 37, 64
6, 19780, Note_off_c, 9, 42, 64
6, 20000, Note_on_c, 9, 35, 80
6, 20000, Note_on_c, 9, 46, 54
6, 20100, Note_off_c, 9, 46, 64
6, 20100, Note_off_c, 9, 35, 64
6, 20160, Note_on_c, 9, 35, 100
6, 20160, Note_on_c, 9, 42, 90
6, 20260, Note_off_c, 9, 42, 64
6, 20260, Note_off_c, 9, 35, 64
6, 20480, Note_on_c, 9, 42, 70
6, 20580, Note_off_c, 9, 42, 64
6, 20640, Note_on_c, 9, 42, 80
6, 20640, Note_on_c, 9, 37, 100
6, 20740, Note_off_c, 9, 37, 64
6, 20740, Note_off_c, 9, 42, 64
6, 20960, Note_on_c, 9, 35, 80
6, 20960, Note_on_c, 9, 42, 70
6, 21060, Note_off_c, 9, 42, 64
6, 21060, Note_off_c, 9, 35, 64
6, 21120, Note_on_c, 9, 35, 115
6, 21120, Note_on_c, 9, 49, 90
6, 21220, Note_off_c, 9, 49, 64
6, 21220, Note_off_c, 9, 35, 64
6, 21440, Note_on_c, 9, 38, 70
6, 21540, Note_off_c, 9, 38, 64
6, 21600, Note_on_c, 9, 38, 115
6, 21700, Note_off_c, 9, 38, 64
6, 21760, Note_on_c, 9, 35, 90
6, 21860, Note_off_c, 9, 35, 64
6, 21920, Note_on_c, 9, 48, 100
6, 22020, Note_off_c, 9, 48, 64
6, 22240, Note_on_c, 9, 45, 115
6, 22340, Note_off_c, 9, 45, 64
6, 22560, Note_on_c, 9, 41, 127
6, 22660, Note_off_c, 9, 41, 64
6, 22880, Note_on_c, 9, 35, 80
6, 22980, Note_off_c, 9, 35, 64
6, 23040, Note_on_c, 9, 35, 100
6, 23040, Note_on_c, 9, 42, 90
6, 23040, Note_on_c, 9, 49, 90
6, 23140, Note_off_c, 9, 49, 64
6, 23140, Note_off_c, 9, 42, 64
6, 23140, Note_off_c, 9, 35, 64
6, 23360, Note_on_c, 9, 42, 70
6, 23460, Note_off_c, 9, 42, 64
6, 23520, Note_on_c, 9, 38, 100
6, 23520, Note_on_c, 9, 42, 80
6, 23620, Note_off_c, 9, 42, 64
6, 23620, Note_off_c, 9, 38, 64
6, 23680, Note_on_c, 9, 42, 50
6, 23780, Note_off_c, 9, 42, 64
6, 23840, Note_on_c, 9, 35, 80
6, 23840, Note_on_c, 9, 42, 70
6, 23940, Note_off_c, 9, 42, 64
6, 23940, Note_off_c, 9, 35, 64
6, 24000, Note_on_c, 9, 35, 100
6, 24000, Note_on_c, 9, 42, 90
6, 24100, Note_off_c, 9, 42, 64
6, 24100, Note_off_c, 9, 35, 64
6, 24320, Note_on_c, 9, 42, 70
6, 24420, Note_off_c, 9, 42, 64
6, 24480, Note_on_c, 9, 38, 100
6, 24480, Note_on_c, 9, 42, 80
6, 24580, Note_off_c, 9, 42, 64
6, 24580, Note_off_c, 9, 38, 64
6, 24640, Note_on_c, 9, 42, 60
6, 24740, Note_off_c, 9, 42, 64
6, 24800, Note_on_c, 9, 35, 80
6, 24800, Note_on_c, 9, 42, 70
6, 24900, Note_off_c, 9, 42, 64
6, 24900, Note_off_c, 9, 35, 64
6, 24960, Note_on_c, 9, 35, 100
6, 24960, Note_on_c, 9, 42, 90
6, 25060, Note_off_c, 9, 42, 64
6, 25060, Note_off_c, 9, 35, 64
6, 25280, Note_on_c, 9, 42, 70
6, 25380, Note_off_c, 9, 42, 64
6, 25440, Note_on_c, 9, 38, 100
6, 25440, Note_on_c, 9, 42, 80
6, 25540, Note_off_c, 9, 42, 64
6, 25540, Note_off_c, 9, 38, 64
6, 25600, Note_on_c, 9, 42, 50
6, 25700, Note_off_c, 9, 42, 64
6, 25760, Note_on_c, 9, 35, 80
6, 25760, Note_on_c, 9, 42, 70
6, 25860, Note_off_c, 9, 42, 64
6, 25860, Note_off_c, 9, 35, 64
6, 25920, Note_on_c, 9, 35, 100
6, 25920, Note_on_c, 9, 42, 90
6, 26020, Note_off_c, 9, 42, 64
6, 26020, Note_off_c, 9, 35, 64
6, 26240, Note_on_c, 9, 35, 80
6, 26240, Note_on_c, 9, 42, 70
6, 26340, Note_off_c, 9, 42, 64
6, 26340, Note_off_c, 9, 35, 64
6, 26400, Note_on_c, 9, 38, 100
6, 26400, Note_on_c, 9, 42, 80
6, 26500, Note_off_c, 9, 42, 64
6, 26500, Note_off_c, 9, 38, 64
6, 26560, Note_on_c, 9, 42, 50
6, 26660, Note_off_c, 9, 42, 64
6, 26720, Note_on_c, 9, 35, 80
6, 26720, Note_on_c, 9, 46, 80
6, 26820, Note_off_c, 9, 46, 64
6, 26820, Note_off_c, 9, 35, 64
6, 26880, Note_on_c, 9, 35, 100
6, 26880, Note_on_c, 9, 42, 90
6, 26980, Note_off_c, 9, 42, 64
6, 26980, Note_off_c, 9, 35, 64
6, 27040, Note_on_c, 9, 42, 100
6, 27140, Note_off_c, 9, 42, 64
6, 27200, Note_on_c, 9, 42, 60
6, 27300, Note_off_c, 9, 42, 64
6, 27360, Note_on_c, 9, 38, 100
6, 27360, Note_on_c, 9, 42, 80
6, 27460, Note_off_c, 9, 42, 64
6, 27460, Note_off_c, 9, 38, 64
6, 27520, Note_on_c, 9, 42, 70
6, 27620, Note_off_c, 9, 42, 64
6, 27680, Note_on_c, 9, 35, 80
6, 27680, Note_on_c, 9, 42, 60
6, 27780, Note_off_c, 9, 42, 64
6, 27780, Note_off_c, 9, 35, 64
6, 27840, Note_on_c, 9, 35, 100
6, 27840, Note_on_c, 9, 42, 90
6, 27940, Note_off_c, 9, 42, 64
6, 27940, Note_off_c, 9, 35, 64
6, 28000, Note_on_c, 9, 42, 100
6, 28100, Note_off_c, 9, 42, 64
6, 28160, Note_on_c, 9, 42, 60
6, 28260, Note_off_c, 9, 42, 64
6, 28320, Note_on_c, 9, 38, 100
6, 28320, Note_on_c, 9, 42, 100
6, 28420, Note_off_c, 9, 42, 64
6, 28420, Note_off_c, 9, 38, 64
6, 28480, Note_on_c, 9, 42, 60
6, 28580, Note_off_c, 9, 42, 64
6, 28640, Note_on_c, 9, 35, 80
6, 28640, Note_on_c, 9, 42, 70
6, 28740, Note_off_c, 9, 42, 64
6, 28740, Note_off_c, 9, 35, 64
6, 28800, Note_on_c, 9, 35, 100
6, 28900, Note_off_c, 9, 35, 64
6, 29120, Note_on_c, 9, 38, 50
6, 29220, Note_off_c, 9, 38, 64
6, 29280, Note_on_c, 9, 38, 115
6, 29380, Note_off_c, 9, 38, 64
6, 29440, Note_on_c, 9, 38, 90
6, 29540, Note_off_c, 9, 38, 64
6, 29600, Note_on_c, 9, 35, 90
6, 29700, Note_off_c, 9, 35, 64
6, 29760, Note_on_c, 9, 38, 100
6, 29860, Note_off_c, 9, 38, 64
6, 29920, Note_on_c, 9, 45, 90
6, 30020, Note_off_c, 9, 45, 64
6, 30080, Note_on_c, 9, 38, 50
6, 30180, Note_off_c, 9, 38, 64
6, 30240, Note_on_c, 9, 38, 100
6, 30340, Note_off_c, 9, 38, 64
6, 30400, Note_on_c, 9, 38, 60
6, 30500, Note_off_c, 9, 38, 64
6, 30560, Note_on_c, 9, 41, 100
6, 30660, Note_off_c, 9, 41, 64
6, 30720, Note_on_c, 9, 35, 100
6, 30720, Note_on_c, 9, 42, 90
6, 30720, Note_on_c, 9, 49, 90
6, 30820, Note_off_c, 9, 49, 64
6, 30820, Note_off_c, 9, 42, 64
6, 30820, Note_off_c, 9, 35, 64
6, 31040, Note_on_c, 9, 42, 70
6, 31140, Note_off_c, 9, 42, 64
6, 31200, Note_on_c, 9, 42, 80
6, 31200, Note_on_c, 9, 37, 100
6, 31300, Note_off_c, 9, 37, 64
6, 31300, Note_off_c, 9, 42, 64
6, 31520, Note_on_c, 9, 35, 80
6, 31520, Note_on_c, 9, 42, 70
6, 31620, Note_off_c, 9, 42, 64
6, 31620, Note_off_c, 9, 35, 64
6, 31680, Note_on_c, 9, 35, 100
6, 31680, Note_on_c, 9, 42, 90
6, 31780, Note_off_c, 9, 42, 64
6, 31780, Note_off_c, 9, 35, 64
6, 32000, Note_on_c, 9, 42, 70
6, 32100, Note_off_c, 9, 42, 64
6, 32160, Note_on_c, 9, 42, 80
6, 32160, Note_on_c, 9, 37, 100
6, 32260, Note_off_c, 9, 37, 64
6, 32260, Note_off_c, 9, 42, 64
6, 32480, Note_on_c, 9, 35, 80
6, 32480, Note_on_c, 9, 42, 70
6, 32580, Note_off_c, 9, 42, 64
6, 32580, Note_off_c, 9, 35, 64
6, 32640, Note_on_c, 9, 35, 100
6, 32640, Note_on_c, 9, 42, 90
6, 32740, Note_off_c, 9, 42, 64
6, 32740, Note_off_c, 9, 35, 64
6, 32960, Note_on_c, 9, 42, 70
6, 33060, Note_off_c, 9, 42, 64
6, 33120, Note_on_c, 9, 42, 80
6, 33120, Note_on_c, 9, 37, 100
6, 33220, Note_off_c, 9, 37, 64
6, 33220, Note_off_c, 9, 42, 64
6, 33440, Note_on_c, 9, 35, 80
6, 33440, Note_on_c, 9, 42, 70
6, 33540, Note_off_c, 9, 42, 64
6, 33540, Note_off_c, 9, 35, 64
6, 33600, Note_on_c, 9, 35, 100
6, 33600, Note_on_c, 9, 42, 90
6, 33700, Note_off_c, 9, 42, 64
6, 33700, Note_off_c, 9, 35, 64
6, 33920, Note_on_c, 9, 42, 70
6, 34020, Note_off_c, 9, 42, 64
6, 34080, Note_on_c, 9, 42, 80
6, 34080, Note_on_c, 9, 37, 100
6, 34180, Note_off_c, 9, 37, 64
6, 34180, Note_off_c, 9, 42, 64
6, 34400, Note_on_c, 9, 35, 80
6, 34400, Note_on_c, 9, 42, 70
6, 34500, Note_off_c, 9, 42, 64
6, 34500, Note_off_c, 9, 35, 64
6, 34560, Note_on_c, 9, 35, 100
6, 34560, Note_on_c, 9, 42, 90
6, 34660, Note_off_c, 9, 42, 64
6, 34660, Note_off_c, 9, 35, 64
6, 34880, Note_on_c, 9, 42, 70
6, 34980, Note_off_c, 9, 42, 64
6, 35040, Note_on_c, 9, 42, 80
6, 35040, Note_on_c, 9, 37, 100
6, 35140, Note_off_c, 9, 37, 64
6, 35140, Note_off_c, 9, 42, 64
6, 35360, Note_on_c, 9, 35, 80
6, 35360, Note_on_c, 9, 42, 70
6, 35460, Note_off_c, 9, 42, 64
6, 35460, Note_off_c, 9, 35, 64
6, 35520, Note_on_c, 9, 35, 100
6, 35526, Note_on_c, 9, 38, 66
6, 35528, Note_on_c, 9, 42, 73
6, 35573, Note_off_c, 9, 38, 64
6, 35583, Note_off_c, 9, 42, 64
6, 35620, Note_off_c, 9, 35, 64
6, 35778, Note_on_c, 9, 42, 84
6, 35781, Note_on_c, 9, 38, 79
6, 35821, Note_off_c, 9, 42, 64
6, 35822, Note_off_c, 9, 38, 64
6, 36012, Note_on_c, 9, 42, 79
6, 36016, Note_on_c, 9, 38, 75
6, 36058, Note_off_c, 9, 42, 64
6, 36059, Note_off_c, 9, 38, 64
6, 36247, Note_on_c, 9, 38, 75
6, 36248, Note_on_c, 9, 46, 73
6, 36293, Note_off_c, 9, 46, 64
6, 36293, Note_off_c, 9, 38, 64
6, 36480, Note_on_c, 9, 35, 100
6, 36480, Note_on_c, 9, 42, 90
6, 36580, Note_off_c, 9, 42, 64
6, 36580, Note_off_c, 9, 35, 64
6, 36800, Note_on_c, 9, 42, 70
6, 36900, Note_off_c, 9, 42, 64
6, 36960, Note_on_c, 9, 42, 80
6, 36960, Note_on_c, 9, 37, 100
6, 37060, Note_off_c, 9, 37, 64
6, 37060, Note_off_c, 9, 42, 64
6, 37280, Note_on_c, 9, 35, 80
6, 37280, Note_on_c, 9, 42, 70
6, 37380, Note_off_c, 9, 42, 64
6, 37380, Note_off_c, 9, 35, 64
6, 37440, Note_on_c, 9, 35, 100
6, 37440, Note_on_c, 9, 42, 90
6, 37540, Note_off_c, 9, 42, 64
6, 37540, Note_off_c, 9, 35, 64
6, 37760, Note_on_c, 9, 42, 70
6, 37860, Note_off_c, 9, 42, 64
6, 37920, Note_on_c, 9, 42, 80
6, 37920, Note_on_c, 9, 37, 100
6, 38020, Note_off_c, 9, 37, 64
6, 38020, Note_off_c, 9, 42, 64
6, 38240, Note_on_c, 9, 35, 80
6, 38240, Note_on_c, 9, 42, 70
6, 38340, Note_off_c, 9, 42, 64
6, 38340, Note_off_c, 9, 35, 64
6, 38400, Note_on_c, 9, 35, 100
6, 38400, Note_on_c, 9, 42, 90
6, 38500, Note_off_c, 9, 42, 64
6, 38500, Note_off_c, 9, 35, 64
6, 38720, Note_on_c, 9, 42, 70
6, 38820, Note_off_c, 9, 42, 64
6, 38880, Note_on_c, 9, 42, 80
6, 38880, Note_on_c, 9, 37, 100
6, 38980, Note_off_c, 9, 37, 64
6, 38980, Note_off_c, 9, 42, 64
6, 39200, Note_on_c, 9, 35, 80
6, 39200, Note_on_c, 9, 42, 70
6, 39300, Note_off_c, 9, 42, 64
6, 39300, Note_off_c, 9, 35, 64
6, 39360, Note_on_c, 9, 35, 100
6, 39360, Note_on_c, 9, 42, 90
6, 39460, Note_off_c, 9, 42, 64
6, 39460, Note_off_c, 9, 35, 64
6, 39680, Note_on_c, 9, 38, 100
6, 39680, Note_on_c, 9, 42, 70
6, 39780, Note_off_c, 9, 42, 64
6, 39780, Note_off_c, 9, 38, 64
6, 39840, Note_on_c, 9, 38, 80
6, 39840, Note_on_c, 9, 42, 80
6, 39940, Note_off_c, 9, 42, 64
6, 39940, Note_off_c, 9, 38, 64
6, 40000, Note_on_c, 9, 38, 115
6, 40100, Note_off_c, 9, 38, 64
6, 40160, Note_on_c, 9, 35, 80
6, 40160, Note_on_c, 9, 46, 90
6, 40260, Note_off_c, 9, 46, 64
6, 40260, Note_off_c, 9, 35, 64
6, 40320, Note_on_c, 9, 35, 100
6, 40320, Note_on_c, 9, 42, 90
6, 40320, Note_on_c, 9, 49, 90
6, 40420, Note_off_c, 9, 49, 64
6, 40420, Note_off_c, 9, 42, 64
6, 40420, Note_off_c, 9, 35, 64
6, 40640, Note_on_c, 9, 42, 70
6, 40740, Note_off_c, 9, 42, 64
6, 40800, Note_on_c, 9, 38, 100
6, 40800, Note_on_c, 9, 42, 80
6, 40900, Note_off_c, 9, 42, 64
6, 40900, Note_off_c, 9, 38, 64
6, 40960, Note_on_c, 9, 42, 50
6, 41060, Note_off_c, 9, 42, 64
6, 41120, Note_on_c, 9, 35, 80
6, 41120, Note_on_c, 9, 42, 70
6, 41220, Note_off_c, 9, 42, 64
6, 41220, Note_off_c, 9, 35, 64
6, 41280, Note_on_c, 9, 35, 100
6, 41280, Note_on_c, 9, 42, 90
6, 41380, Note_off_c, 9, 42, 64
6, 41380, Note_off_c, 9, 35, 64
6, 41600, Note_on_c, 9, 42, 70
6, 41700, Note_off_c, 9, 42, 64
6, 41760, Note_on_c, 9, 38, 100
6, 41760, Note_on_c, 9, 42, 80
6, 41860, Note_off_c, 9, 42, 64
6, 41860, Note_off_c, 9, 38, 64
6, 41920, Note_on_c, 9, 42, 60
6, 42020, Note_off_c, 9, 42, 64
6, 42080, Note_on_c, 9, 35, 80
6, 42080, Note_on_c, 9, 42, 70
6, 42180, Note_off_c, 9, 42, 64
6, 42180, Note_off_c, 9, 35, 64
6, 42240, Note_on_c, 9, 35, 100
6, 42240, Note_on_c, 9, 42, 90
6, 42340, Note_off_c, 9, 42, 64
6, 42340, Note_off_c, 9, 35, 64
6, 42560, Note_on_c, 9, 42, 70
6, 42660, Note_off_c, 9, 42, 64
6, 42720, Note_on_c, 9, 38, 100
6, 42720, Note_on_c, 9, 42, 80
6, 42820, Note_off_c, 9, 42, 64
6, 42820, Note_off_c, 9, 38, 64
6, 42880, Note_on_c, 9, 42, 50
6, 42980, Note_off_c, 9, 42, 64
6, 43040, Note_on_c, 9, 35, 80
6, 43040, Note_on_c, 9, 42, 70
6, 43140, Note_off_c, 9, 42, 64
6, 43140, Note_off_c, 9, 35, 64
6, 43200, Note_on_c, 9, 35, 100
6, 43200, Note_on_c, 9, 42, 90
6, 43300, Note_off_c, 9, 42, 64
6, 43300, Note_off_c, 9, 35, 64
6, 43520, Note_on_c, 9, 35, 80
6, 43520, Note_on_c, 9, 42, 70
6, 43620, Note_off_c, 9, 42, 64
6, 43620, Note_off_c, 9, 35, 64
6, 43680, Note_on_c, 9, 38, 100
6, 43680, Note_on_c, 9, 42, 80
6, 43780, Note_off_c, 9, 42, 64
6, 43780, Note_off_c, 9, 38, 64
6, 43840, Note_on_c, 9, 42, 50
6, 43940, Note_off_c, 9, 42, 64
6, 44000, Note_on_c, 9, 35, 80
6, 44000, Note_on_c, 9, 46, 80
6, 44100, Note_off_c, 9, 46, 64
6, 44100, Note_off_c, 9, 35, 64
6, 44160, Note_on_c, 9, 35, 100
6, 44160, Note_on_c, 9, 42, 90
6, 44260, Note_off_c, 9, 42, 64
6, 44260, Note_off_c, 9, 35, 64
6, 44480, Note_on_c, 9, 42, 70
6, 44580, Note_off_c, 9, 42, 64
6, 44640, Note_on_c, 9, 38, 100
6, 44640, Note_on_c, 9, 42, 80
6, 44740, Note_off_c, 9, 42, 64
6, 44740, Note_off_c, 9, 38, 64
6, 44800, Note_on_c, 9, 42, 50
6, 44900, Note_off_c, 9, 42, 64
6, 44960, Note_on_c, 9, 35, 80
6, 44960, Note_on_c, 9, 42, 70
6, 45060, Note_off_c, 9, 42, 64
6, 45060, Note_off_c, 9, 35, 64
6, 45120, Note_on_c, 9, 35, 100
6, 45120, Note_on_c, 9, 42, 90
6, 45220, Note_off_c, 9, 42, 64
6, 45220, Note_off_c, 9, 35, 64
6, 45440, Note_on_c, 9, 42, 70
6, 45540, Note_off_c, 9, 42, 64
6, 45600, Note_on_c, 9, 38, 100
6, 45600, Note_on_c, 9, 42, 80
6, 45700, Note_off_c, 9, 42, 64
6, 45700, Note_off_c, 9, 38, 64
6, 45760, Note_on_c, 9, 42, 60
6, 45860, Note_off_c, 9, 42, 64
6, 45920, Note_on_c, 9, 35, 80
6, 45920, Note_on_c, 9, 42, 70
6, 46020, Note_off_c, 9, 42, 64
6, 46020, Note_off_c, 9, 35, 64
6, 46080, Note_on_c, 9, 35, 100
6, 46180, Note_off_c, 9, 35, 64
6, 46400, Note_on_c, 9, 38, 50
6, 46500, Note_off_c, 9, 38, 64
6, 46560, Note_on_c, 9, 38, 90
6, 46660, Note_off_c, 9, 38, 64
6, 46720, Note_on_c, 9, 35, 90
6, 46820, Note_off_c, 9, 35, 64
6, 46880, Note_on_c, 9, 48, 100
6, 46980, Note_off_c, 9, 48, 64
6, 47200, Note_on_c, 9, 38, 100
6, 47300, Note_off_c, 9, 38, 64
6, 47360, Note_on_c, 9, 45, 100
6, 47460, Note_off_c, 9, 45, 64
6, 47520, Note_on_c, 9, 41, 100
6, 47620, Note_off_c, 9, 41, 64
6, 47840, Note_on_c, 9, 41, 115
6, 47940, Note_off_c, 9, 41, 64
6, 48000, Note_on_c, 9, 35, 100
6, 48000, Note_on_c, 9, 42, 90
6, 48000, Note_on_c, 9, 49, 90
6, 48100, Note_off_c, 9, 49, 64
6, 48100, Note_off_c, 9, 42, 64
6, 48100, Note_off_c, 9, 35, 64
6, 48320, Note_on_c, 9, 42, 70
6, 48420, Note_off_c, 9, 42, 64
6, 48480, Note_on_c, 9, 38, 100
6, 48480, Note_on_c, 9, 42, 80
6, 48580, Note_off_c, 9, 42, 64
6, 48580, Note_off_c, 9, 38, 64
6, 48640, Note_on_c, 9, 42, 50
6, 48740, Note_off_c, 9, 42, 64
6, 48800, Note_on_c, 9, 35, 80
6, 48800, Note_on_c, 9, 42, 70
6, 48900, Note_off_c, 9, 42, 64
6, 48900, Note_off_c, 9, 35, 64
6, 48960, Note_on_c, 9, 35, 100
6, 48960, Note_on_c, 9, 42, 90
6, 49060, Note_off_c, 9, 42, 64
6, 49060, Note_off_c, 9, 35, 64
6, 49280, Note_on_c, 9, 42, 70
6, 49380, Note_off_c, 9, 42, 64
6, 49440, Note_on_c, 9, 38, 100
6, 49440, Note_on_c, 9, 42, 80
6, 49540, Note_off_c, 9, 42, 64
6, 49540, Note_off_c, 9, 38, 64
6, 49600, Note_on_c, 9, 42, 60
6, 49700, Note_off_c, 9, 42, 64
6, 49760, Note_on_c, 9, 35, 80
6, 49760, Note_on_c, 9, 42, 70
6, 49860, Note_off_c, 9, 42, 64
6, 49860, Note_off_c, 9, 35, 64
6, 49920, Note_on_c, 9, 35, 100
6, 49920, Note_on_c, 9, 42, 90
6, 50020, Note_off_c, 9, 42, 64
6, 50020, Note_off_c, 9, 35, 64
6, 50240, Note_on_c, 9, 42, 70
6, 50340, Note_off_c, 9, 42, 64
6, 50400, Note_on_c, 9, 38, 100
6, 50400, Note_on_c, 9, 42, 80
6, 50500, Note_off_c, 9, 42, 64
6, 50500, Note_off_c, 9, 38, 64
6, 50560, Note_on_c, 9, 46, 54
6, 50660, Note_off_c, 9, 46, 64
6, 50720, Note_on_c, 9, 35, 80
6, 50720, Note_on_c, 9, 38, 36
6, 50820, Note_off_c, 9, 38, 64
6, 50820, Note_off_c, 9, 35, 64
6, 50880, Note_on_c, 9, 35, 100
6, 50880, Note_on_c, 9, 42, 90
6, 50980, Note_off_c, 9, 42, 64
6, 50980, Note_off_c, 9, 35, 64
6, 51040, Note_on_c, 9, 42, 50
6, 51140, Note_off_c, 9, 42, 64
6, 51200, Note_on_c, 9, 35, 80
6, 51200, Note_on_c, 9, 42, 70
6, 51300, Note_off_c, 9, 42, 64
6, 51300, Note_off_c, 9, 35, 64
6, 51360, Note_on_c, 9, 38, 100
6, 51360, Note_on_c, 9, 42, 80
6, 51460, Note_off_c, 9, 42, 64
6, 51460, Note_off_c, 9, 38, 64
6, 51520, Note_on_c, 9, 42, 60
6, 51620, Note_off_c, 9, 42, 64
6, 51680, Note_on_c, 9, 35, 80
6, 51680, Note_on_c, 9, 42, 70
6, 51780, Note_off_c, 9, 42, 64
6, 51780, Note_off_c, 9, 35, 64
6, 51840, Note_on_c, 9, 35, 100
6, 51840, Note_on_c, 9, 42, 90
6, 51940, Note_off_c, 9, 42, 64
6, 51940, Note_off_c, 9, 35, 64
6, 52160, Note_on_c, 9, 42, 70
6, 52260, Note_off_c, 9, 42, 64
6, 52320, Note_on_c, 9, 38, 100
6, 52320, Note_on_c, 9, 42, 80
6, 52420, Note_off_c, 9, 42, 64
6, 52420, Note_off_c, 9, 38, 64
6, 52480, Note_on_c, 9, 42, 40
6, 52580, Note_off_c, 9, 42, 64
6, 52640, Note_on_c, 9, 35, 80
6, 52640, Note_on_c, 9, 42, 70
6, 52740, Note_off_c, 9, 42, 64
6, 52740, Note_off_c, 9, 35, 64
6, 52800, Note_on_c, 9, 35, 100
6, 52800, Note_on_c, 9, 42, 90
6, 52900, Note_off_c, 9, 42, 64
6, 52900, Note_off_c, 9, 35, 64
6, 52960, Note_on_c, 9, 42, 50
6, 53060, Note_off_c, 9, 42, 64
6, 53120, Note_on_c, 9, 46, 80
6, 53220, Note_off_c, 9, 46, 64
6, 53280, Note_on_c, 9, 38, 100
6, 53280, Note_on_c, 9, 42, 80
6, 53380, Note_off_c, 9, 42, 64
6, 53380, Note_off_c, 9, 38, 64
6, 53440, Note_on_c, 9, 42, 60
6, 53540, Note_off_c, 9, 42, 64
6, 53600, Note_on_c, 9, 35, 80
6, 53600, Note_on_c, 9, 42, 70
6, 53700, Note_off_c, 9, 42, 64
6, 53700, Note_off_c, 9, 35, 64
6, 53760, Note_on_c, 9, 35, 90
6, 53760, Note_on_c, 9, 38, 90
6, 53760, Note_on_c, 9, 41, 90
6, 53860, Note_off_c, 9, 41, 64
6, 53860, Note_off_c, 9, 38, 64
6, 53860, Note_off_c, 9, 35, 64
6, 54080, Note_on_c, 9, 38, 40
6, 54080, Note_on_c, 9, 41, 40
6, 54180, Note_off_c, 9, 41, 64
6, 54180, Note_off_c, 9, 38, 64
6, 54240, Note_on_c, 9, 35, 90
6, 54240, Note_on_c, 9, 38, 60
6, 54240, Note_on_c, 9, 41, 60
6, 54340, Note_off_c, 9, 41, 64
6, 54340, Note_off_c, 9, 38, 64
6, 54340, Note_off_c, 9, 35, 64
6, 54560, Note_on_c, 9, 38, 100
6, 54560, Note_on_c, 9, 41, 100
6, 54660, Note_off_c, 9, 41, 64
6, 54660, Note_off_c, 9, 38, 64
6, 54720, Note_on_c, 9, 35, 90
6, 54720, Note_on_c, 9, 38, 80
6, 54820, Note_off_c, 9, 38, 64
6, 54820, Note_off_c, 9, 35, 64
6, 54880, Note_on_c, 9, 38, 40
6, 54980, Note_off_c, 9, 38, 64
6, 55040, Note_on_c, 9, 38, 100
6, 55140, Note_off_c, 9, 38, 64
6, 55200, Note_on_c, 9, 35, 90
6, 55200, Note_on_c, 9, 38, 115
6, 55300, Note_off_c, 9, 38, 64
6, 55300, Note_off_c, 9, 35, 64
6, 55360, Note_on_c, 9, 38, 80
6, 55460, Note_off_c, 9, 38, 64
6, 55520, Note_on_c, 9, 38, 127
6, 55620, Note_off_c, 9, 38, 64
6, 55680, Note_on_c, 9, 35, 100
6, 55680, Note_on_c, 9, 42, 90
6, 55680, Note_on_c, 9, 49, 90
6, 55780, Note_off_c, 9, 49, 64
6, 55780, Note_off_c, 9, 42, 64
6, 55780, Note_off_c, 9, 35, 64
6, 56000, Note_on_c, 9, 42, 70
6, 56100, Note_off_c, 9, 42, 64
6, 56160, Note_on_c, 9, 42, 80
6, 56160, Note_on_c, 9, 37, 100
6, 56260, Note_off_c, 9, 37, 64
6, 56260, Note_off_c, 9, 42, 64
6, 56480, Note_on_c, 9, 35, 80
6, 56480, Note_on_c, 9, 42, 70
6, 56580, Note_off_c, 9, 42, 64
6, 56580, Note_off_c, 9, 35, 64
6, 56640, Note_on_c, 9, 35, 100
6, 56640, Note_on_c, 9, 42, 90
6, 56740, Note_off_c, 9, 42, 64
6, 56740, Note_off_c, 9, 35, 64
6, 56960, Note_on_c, 9, 42, 70
6, 57060, Note_off_c, 9, 42, 64
6, 57120, Note_on_c, 9, 42, 80
6, 57120, Note_on_c, 9, 37, 100
6, 57220, Note_off_c, 9, 37, 64
6, 57220, Note_off_c, 9, 42, 64
6, 57440, Note_on_c, 9, 35, 80
6, 57440, Note_on_c, 9, 42, 70
6, 57540, Note_off_c, 9, 42, 64
6, 57540, Note_off_c, 9, 35, 64
6, 57600, Note_on_c, 9, 35, 100
6, 57600, Note_on_c, 9, 42, 90
6, 57700, Note_off_c, 9, 42, 64
6, 57700, Note_off_c, 9, 35, 64
6, 57920, Note_on_c, 9, 42, 70
6, 58020, Note_off_c, 9, 42, 64
6, 58080, Note_on_c, 9, 42, 80
6, 58080, Note_on_c, 9, 37, 100
6, 58180, Note_off_c, 9, 37, 64
6, 58180, Note_off_c, 9, 42, 64
6, 58400, Note_on_c, 9, 35, 80
6, 58400, Note_on_c, 9, 42, 70
6, 58500, Note_off_c, 9, 42, 64
6, 58500, Note_off_c, 9, 35, 64
6, 58560, Note_on_c, 9, 35, 100
6, 58560, Note_on_c, 9, 42, 90
6, 58660, Note_off_c, 9, 42, 64
6, 58660, Note_off_c, 9, 35, 64
6, 58880, Note_on_c, 9, 35, 80
6, 58880, Note_on_c, 9, 42, 70
6, 58980, Note_off_c, 9, 42, 64
6, 58980, Note_off_c, 9, 35, 64
6, 59040, Note_on_c, 9, 42, 80
6, 59040, Note_on_c, 9, 37, 100
6, 59140, Note_off_c, 9, 37, 64
6, 59140, Note_off_c, 9, 42, 64
6, 59200, Note_on_c, 9, 42, 60
6, 59300, Note_off_c, 9, 42, 64
6, 59360, Note_on_c, 9, 35, 80
6, 59360, Note_on_c, 9, 42, 70
6, 59460, Note_off_c, 9, 42, 64
6, 59460, Note_off_c, 9, 35, 64
6, 59520, Note_on_c, 9, 35, 100
6, 59520, Note_on_c, 9, 42, 90
6, 59620, Note_off_c, 9, 42, 64
6, 59620, Note_off_c, 9, 35, 64
6, 59840, Note_on_c, 9, 42, 70
6, 59940, Note_off_c, 9, 42, 64
6, 60000, Note_on_c, 9, 42, 80
6, 60000, Note_on_c, 9, 37, 100
6, 60100, Note_off_c, 9, 37, 64
6, 60100, Note_off_c, 9, 42, 64
6, 60320, Note_on_c, 9, 35, 80
6, 60320, Note_on_c, 9, 42, 70
6, 60420, Note_off_c, 9, 42, 64
6, 60420, Note_off_c, 9, 35, 64
6, 60480, Note_on_c, 9, 35, 100
6, 60480, Note_on_c, 9, 48, 107
6, 60485, Note_on_c, 9, 50, 107
6, 60518, Note_off_c, 9, 48, 64
6, 60522, Note_off_c, 9, 50, 64
6, 60580, Note_off_c, 9, 35, 64
6, 60716, Note_on_c, 9, 47, 101
6, 60723, Note_on_c, 9, 48, 110
6, 60754, Note_off_c, 9, 47, 64
6, 60761, Note_off_c, 9, 48, 64
6, 60958, Note_on_c, 9, 43, 107
6, 60966, Note_on_c, 9, 45, 113
6, 60995, Note_off_c, 9, 43, 64
6, 61014, Note_off_c, 9, 45, 64
6, 61197, Note_on_c, 9, 41, 85
6, 61205, Note_on_c, 9, 43, 117
6, 61240, Note_off_c, 9, 41, 64
6, 61244, Note_off_c, 9, 43, 64
6, 61440, Note_on_c, 9, 35, 90
6, 61440, Note_on_c, 9, 42, 80
6, 61440, Note_on_c, 9, 49, 90
6, 61479, Note_off_c, 9, 49, 64
6, 61540, Note_off_c, 9, 42, 64
6, 61540, Note_off_c, 9, 35, 64
6, 61600, Note_on_c, 9, 42, 50
6, 61700, Note_off_c, 9, 42, 64
6, 61760, Note_on_c, 9, 42, 100
6, 61860, Note_off_c, 9, 42, 64
6, 61920, Note_on_c, 9, 38, 100
6, 61920, Note_on_c, 9, 46, 100
6, 62020, Note_off_c, 9, 46, 64
6, 62020, Note_off_c, 9, 38, 64
6, 62240, Note_on_c, 9, 35, 90
6, 62340, Note_off_c, 9, 35, 64
6, 62400, Note_on_c, 9, 38, 100
6, 62500, Note_off_c, 9, 38, 64
6, 62560, Note_on_c, 9, 38, 60
6, 62660, Note_off_c, 9, 38, 64
6, 62720, Note_on_c, 9, 35, 90
6, 62820, Note_off_c, 9, 35, 64
6, 62880, Note_on_c, 9, 38, 100
6, 62980, Note_off_c, 9, 38, 64
6, 63040, Note_on_c, 9, 38, 60
6, 63140, Note_off_c, 9, 38, 64
6, 63200, Note_on_c, 9, 41, 115
6, 63300, Note_off_c, 9, 41, 64
6, 63360, Note_on_c, 9, 35, 90
6, 63360, Note_on_c, 9, 42, 80
6, 63460, Note_off_c, 9, 42, 64
6, 63460, Note_off_c, 9, 35, 64
6, 63520, Note_on_c, 9, 42, 50
6, 63620, Note_off_c, 9, 42, 64
6, 63680, Note_on_c, 9, 42, 100
6, 63780, Note_off_c, 9, 42, 64
6, 63840, Note_on_c, 9, 38, 100
6, 63840, Note_on_c, 9, 46, 100
6, 63940, Note_off_c, 9, 46, 64
6, 63940, Note_off_c, 9, 38, 64
6, 64160, Note_on_c, 9, 35, 90
6, 64260, Note_off_c, 9, 35, 64
6, 64320, Note_on_c, 9, 38, 100
6, 64420, Note_off_c, 9, 38, 64
6, 64480, Note_on_c, 9, 38, 60
6, 64580, Note_off_c, 9, 38, 64
6, 64640, Note_on_c, 9, 35, 90
6, 64740, Note_off_c, 9, 35, 64
6, 64800, Note_on_c, 9, 38, 100
6, 64900, Note_off_c, 9, 38, 64
6, 64960, Note_on_c, 9, 38, 60
6, 65060, Note_off_c, 9, 38, 64
6, 65120, Note_on_c, 9, 41, 115
6, 65220, Note_off_c, 9, 41, 64
6, 65280, Note_on_c, 9, 35, 100
6, 65280, Note_on_c, 9, 42, 90
6, 65280, Note_on_c, 9, 49, 90
6, 65380, Note_off_c, 9, 49, 64
6, 65380, Note_off_c, 9, 42, 64
6, 65380, Note_off_c, 9, 35, 64
6, 65600, Note_on_c, 9, 42, 70
6, 65700, Note_off_c, 9, 42, 64
6, 65760, Note_on_c, 9, 38, 100
6, 65760, Note_on_c, 9, 42, 80
6, 65860, Note_off_c, 9, 42, 64
6, 65860, Note_off_c, 9, 38, 64
6, 65920, Note_on_c, 9, 42, 50
6, 66020, Note_off_c, 9, 42, 64
6, 66080, Note_on_c, 9, 35, 80
6, 66080, Note_on_c, 9, 42, 70
6, 66180, Note_off_c, 9, 42, 64
6, 66180, Note_off_c, 9, 35, 64
6, 66240, Note_on_c, 9, 35, 100
6, 66240, Note_on_c, 9, 42, 90
6, 66340, Note_off_c, 9, 42, 64
6, 66340, Note_off_c, 9, 35, 64
6, 66560, Note_on_c, 9, 42, 70
6, 66660, Note_off_c, 9, 42, 64
6, 66720, Note_on_c, 9, 38, 100
6, 66720, Note_on_c, 9, 42, 80
6, 66820, Note_off_c, 9, 42, 64
6, 66820, Note_off_c, 9, 38, 64
6, 66880, Note_on_c, 9, 42, 60
6, 66980, Note_off_c, 9, 42, 64
6, 67040, Note_on_c, 9, 35, 80
6, 67040, Note_on_c, 9, 42, 70
6, 67140, Note_off_c, 9, 42, 64
6, 67140, Note_off_c, 9, 35, 64
6, 67200, Note_on_c, 9, 35, 100
6, 67200, Note_on_c, 9, 42, 90
6, 67300, Note_off_c, 9, 42, 64
6, 67300, Note_off_c, 9, 35, 64
6, 67520, Note_on_c, 9, 42, 70
6, 67620, Note_off_c, 9, 42, 64
6, 67680, Note_on_c, 9, 38, 100
6, 67680, Note_on_c, 9, 42, 80
6, 67780, Note_off_c, 9, 42, 64
6, 67780, Note_off_c, 9, 38, 64
6, 67840, Note_on_c, 9, 42, 50
6, 67940, Note_off_c, 9, 42, 64
6, 68000, Note_on_c, 9, 35, 80
6, 68000, Note_on_c, 9, 38, 36
6, 68100, Note_off_c, 9, 38, 64
6, 68100, Note_off_c, 9, 35, 64
6, 68160, Note_on_c, 9, 35, 100
6, 68160, Note_on_c, 9, 42, 90
6, 68260, Note_off_c, 9, 42, 64
6, 68260, Note_off_c, 9, 35, 64
6, 68320, Note_on_c, 9, 42, 50
6, 68420, Note_off_c, 9, 42, 64
6, 68480, Note_on_c, 9, 35, 80
6, 68480, Note_on_c, 9, 42, 70
6, 68580, Note_off_c, 9, 42, 64
6, 68580, Note_off_c, 9, 35, 64
6, 68640, Note_on_c, 9, 38, 100
6, 68640, Note_on_c, 9, 42, 80
6, 68740, Note_off_c, 9, 42, 64
6, 68740, Note_off_c, 9, 38, 64
6, 68800, Note_on_c, 9, 42, 60
6, 68900, Note_off_c, 9, 42, 64
6, 68960, Note_on_c, 9, 35, 80
6, 68960, Note_on_c, 9, 42, 70
6, 69060, Note_off_c, 9, 42, 64
6, 69060, Note_off_c, 9, 35, 64
6, 69120, Note_on_c, 9, 35, 100
6, 69120, Note_on_c, 9, 42, 90
6, 69220, Note_off_c, 9, 42, 64
6, 69220, Note_off_c, 9, 35, 64
6, 69440, Note_on_c, 9, 42, 70
6, 69540, Note_off_c, 9, 42, 64
6, 69600, Note_on_c, 9, 38, 100
6, 69600, Note_on_c, 9, 42, 80
6, 69700, Note_off_c, 9, 42, 64
6, 69700, Note_off_c, 9, 38, 64
6, 69760, Note_on_c, 9, 42, 40
6, 69860, Note_off_c, 9, 42, 64
6, 69920, Note_on_c, 9, 35, 80
6, 69920, Note_on_c, 9, 42, 70
6, 70020, Note_off_c, 9, 42, 64
6, 70020, Note_off_c, 9, 35, 64
6, 70080, Note_on_c, 9, 35, 100
6, 70080, Note_on_c, 9, 42, 90
6, 70180, Note_off_c, 9, 42, 64
6, 70180, Note_off_c, 9, 35, 64
6, 70240, Note_on_c, 9, 42, 50
6, 70340, Note_off_c, 9, 42, 64
6, 70400, Note_on_c, 9, 46, 80
6, 70500, Note_off_c, 9, 46, 64
6, 70560, Note_on_c, 9, 38, 100
6, 70560, Note_on_c, 9, 42, 80
6, 70660, Note_off_c, 9, 42, 64
6, 70660, Note_off_c, 9, 38, 64
6, 70720, Note_on_c, 9, 42, 60
6, 70820, Note_off_c, 9, 42, 64
6, 70880, Note_on_c, 9, 35, 80
6, 70880, Note_on_c, 9, 42, 70
6, 70980, Note_off_c, 9, 42, 64
6, 70980, Note_off_c, 9, 35, 64
6, 71040, Note_on_c, 9, 35, 115
6, 71040, Note_on_c, 9, 49, 90
6, 71140, Note_off_c, 9, 49, 64
6, 71140, Note_off_c, 9, 35, 64
6, 71360, Note_on_c, 9, 38, 70
6, 71460, Note_off_c, 9, 38, 64
6, 71520, Note_on_c, 9, 38, 115
6, 71620, Note_off_c, 9, 38, 64
6, 71680, Note_on_c, 9, 35, 90
6, 71780, Note_off_c, 9, 35, 64
6, 71840, Note_on_c, 9, 48, 100
6, 71940, Note_off_c, 9, 48, 64
6, 72160, Note_on_c, 9, 45, 115
6, 72260, Note_off_c, 9, 45, 64
6, 72480, Note_on_c, 9, 41, 127
6, 72580, Note_off_c, 9, 41, 64
6, 72800, Note_on_c, 9, 35, 80
6, 72900, Note_off_c, 9, 35, 64
6, 72960, Note_on_c, 9, 35, 100
6, 72960, Note_on_c, 9, 49, 90
6, 73060, Note_off_c, 9, 49, 64
6, 73060, Note_off_c, 9, 35, 64
6, 73120, Note_on_c, 9, 59, 79
6, 73162, Note_off_c, 9, 59, 64
6, 73280, Note_on_c, 9, 59, 56
6, 73308, Note_off_c, 9, 59, 64
6, 73440, Note_on_c, 9, 37, 100
6, 73440, Note_on_c, 9, 59, 125
6, 73485, Note_off_c, 9, 59, 64
6, 73540, Note_off_c, 9, 37, 64
6, 73600, Note_on_c, 9, 59, 44
6, 73637, Note_off_c, 9, 59, 64
6, 73760, Note_on_c, 9, 35, 80
6, 73760, Note_on_c, 9, 59, 50
6, 73799, Note_off_c, 9, 59, 64
6, 73860, Note_off_c, 9, 35, 64
6, 73920, Note_on_c, 9, 35, 100
6, 73920, Note_on_c, 9, 59, 86
6, 73963, Note_off_c, 9, 59, 64
6, 74020, Note_off_c, 9, 35, 64
6, 74080, Note_on_c, 9, 59, 47
6, 74119, Note_off_c, 9, 59, 64
6, 74240, Note_on_c, 9, 59, 54
6, 74275, Note_off_c, 9, 59, 64
6, 74400, Note_on_c, 9, 37, 100
6, 74400, Note_on_c, 9, 59, 119
6, 74443, Note_off_c, 9, 59, 64
6, 74500, Note_off_c, 9, 37, 64
6, 74560, Note_on_c, 9, 59, 41
6, 74597, Note_off_c, 9, 59, 64
6, 74720, Note_on_c, 9, 35, 80
6, 74720, Note_on_c, 9, 59, 50
6, 74755, Note_off_c, 9, 59, 64
6, 74820, Note_off_c, 9, 35, 64
6, 74880, Note_on_c, 9, 35, 100
6, 74880, Note_on_c, 9, 59, 88
6, 74930, Note_off_c, 9, 59, 64
6, 74980, Note_off_c, 9, 35, 64
6, 75040, Note_on_c, 9, 59, 39
6, 75077, Note_off_c, 9, 59, 64
6, 75200, Note_on_c, 9, 59, 46
6, 75241, Note_off_c, 9, 59, 64
6, 75360, Note_on_c, 9, 37, 100
6, 75360, Note_on_c, 9, 59, 115
6, 75399, Note_off_c, 9, 59, 64
6, 75460, Note_off_c, 9, 37, 64
6, 75626, Note_on_c, 9, 59, 37
6, 75656, Note_off_c, 9, 59, 64
6, 75680, Note_on_c, 9, 35, 80
6, 75680, Note_on_c, 9, 59, 48
6, 75711, Note_off_c, 9, 59, 64
6, 75780, Note_off_c, 9, 35, 64
6, 75840, Note_on_c, 9, 35, 100
6, 75840, Note_on_c, 9, 59, 62
6, 75885, Note_off_c, 9, 59, 64
6, 75940, Note_off_c, 9, 35, 64
6, 76000, Note_on_c, 9, 59, 43
6, 76036, Note_off_c, 9, 59, 64
6, 76160, Note_on_c, 9, 59, 59
6, 76191, Note_off_c, 9, 59, 64
6, 76320, Note_on_c, 9, 37, 100
6, 76320, Note_on_c, 9, 59, 125
6, 76364, Note_off_c, 9, 59, 64
6, 76420, Note_off_c, 9, 37, 64
6, 76480, Note_on_c, 9, 59, 44
6, 76509, Note_off_c, 9, 59, 64
6, 76640, Note_on_c, 9, 35, 80
6, 76640, Note_on_c, 9, 59, 51
6, 76674, Note_off_c, 9, 59, 64
6, 76740, Note_off_c, 9, 35, 64
6, 76800, Note_on_c, 9, 35, 100
6, 76800, Note_on_c, 9, 59, 110
6, 76845, Note_off_c, 9, 59, 64
6, 76900, Note_off_c, 9, 35, 64
6, 76960, Note_on_c, 9, 59, 33
6, 76992, Note_off_c, 9, 59, 64
6, 77120, Note_on_c, 9, 59, 44
6, 77150, Note_off_c, 9, 59, 64
6, 77280, Note_on_c, 9, 37, 100
6, 77280, Note_on_c, 9, 59, 105
6, 77333, Note_off_c, 9, 59, 64
6, 77380, Note_off_c, 9, 37, 64
6, 77440, Note_on_c, 9, 59, 41
6, 77473, Note_off_c, 9, 59, 64
6, 77600, Note_on_c, 9, 35, 80
6, 77600, Note_on_c, 9, 59, 49
6, 77635, Note_off_c, 9, 59, 64
6, 77700, Note_off_c, 9, 35, 64
6, 77760, Note_on_c, 9, 35, 100
6, 77760, Note_on_c, 9, 57, 59
6, 77766, Note_on_c, 9, 38, 66
6, 77786, Note_off_c, 9, 57, 64
6, 77813, Note_off_c, 9, 38, 64
6, 77860, Note_off_c, 9, 35, 64
6, 78021, Note_on_c, 9, 38, 79
6, 78062, Note_off_c, 9, 38, 64
6, 78256, Note_on_c, 9, 38, 75
6, 78299, Note_off_c, 9, 38, 64
6, 78487, Note_on_c, 9, 38, 75
6, 78533, Note_off_c, 9, 38, 64
6, 78720, Note_on_c, 9, 35, 100
6, 78720, Note_on_c, 9, 57, 88
6, 78748, Note_off_c, 9, 57, 64
6, 78820, Note_off_c, 9, 35, 64
6, 78880, Note_on_c, 9, 59, 58
6, 78913, Note_off_c, 9, 59, 64
6, 79040, Note_on_c, 9, 59, 48
6, 79067, Note_off_c, 9, 59, 64
6, 79200, Note_on_c, 9, 37, 100
6, 79200, Note_on_c, 9, 59, 98
6, 79242, Note_off_c, 9, 59, 64
6, 79300, Note_off_c, 9, 37, 64
6, 79360, Note_on_c, 9, 59, 44
6, 79395, Note_off_c, 9, 59, 64
6, 79520, Note_on_c, 9, 35, 80
6, 79520, Note_on_c, 9, 59, 46
6, 79549, Note_off_c, 9, 59, 64
6, 79620, Note_off_c, 9, 35, 64
6, 79680, Note_on_c, 9, 35, 100
6, 79680, Note_on_c, 9, 59, 65
6, 79726, Note_off_c, 9, 59, 64
6, 79780, Note_off_c, 9, 35, 64
6, 79840, Note_on_c, 9, 59, 41
6, 79875, Note_off_c, 9, 59, 64
6, 80000, Note_on_c, 9, 59, 50
6, 80036, Note_off_c, 9, 59, 64
6, 80160, Note_on_c, 9, 37, 100
6, 80160, Note_on_c, 9, 59, 83
6, 80199, Note_off_c, 9, 59, 64
6, 80260, Note_off_c, 9, 37, 64
6, 80320, Note_on_c, 9, 59, 40
6, 80350, Note_off_c, 9, 59, 64
6, 80480, Note_on_c, 9, 35, 80
6, 80480, Note_on_c, 9, 59, 56
6, 80512, Note_off_c, 9, 59, 64
6, 80580, Note_off_c, 9, 35, 64
6, 80640, Note_on_c, 9, 35, 100
6, 80640, Note_on_c, 9, 57, 75
6, 80675, Note_off_c, 9, 57, 64
6, 80740, Note_off_c, 9, 35, 64
6, 81120, Note_on_c, 9, 37, 100
6, 81220, Note_off_c, 9, 37, 64
6, 81440, Note_on_c, 9, 35, 80
6, 81540, Note_off_c, 9, 35, 64
6, 81600, Note_on_c, 9, 35, 100
6, 81700, Note_off_c, 9, 35, 64
6, 81920, Note_on_c, 9, 38, 100
6, 82020, Note_off_c, 9, 38, 64
6, 82080, Note_on_c, 9, 38, 80
6, 82180, Note_off_c, 9, 38, 64
6, 82240, Note_on_c, 9, 38, 115
6, 82340, Note_off_c, 9, 38, 64
6, 82400, Note_on_c, 9, 35, 80
6, 82400, Note_on_c, 9, 46, 90
6, 82500, Note_off_c, 9, 46, 64
6, 82500, Note_off_c, 9, 35, 64
6, 82560, Note_on_c, 9, 35, 100
6, 82560, Note_on_c, 9, 49, 90
6, 82660, Note_off_c, 9, 49, 64
6, 82660, Note_off_c, 9, 35, 64
6, 82720, Note_on_c, 9, 59, 44
6, 82754, Note_off_c, 9, 59, 64
6, 82880, Note_on_c, 9, 59, 58
6, 82916, Note_off_c, 9, 59, 64
6, 83040, Note_on_c, 9, 38, 100
6, 83040, Note_on_c, 9, 59, 96
6, 83084, Note_off_c, 9, 59, 64
6, 83140, Note_off_c, 9, 38, 64
6, 83200, Note_on_c, 9, 59, 48
6, 83232, Note_off_c, 9, 59, 64
6, 83360, Note_on_c, 9, 35, 80
6, 83360, Note_on_c, 9, 59, 50
6, 83394, Note_off_c, 9, 59, 64
6, 83460, Note_off_c, 9, 35, 64
6, 83520, Note_on_c, 9, 35, 100
6, 83520, Note_on_c, 9, 59, 86
6, 83563, Note_off_c, 9, 59, 64
6, 83620, Note_off_c, 9, 35, 64
6, 83680, Note_on_c, 9, 59, 50
6, 83716, Note_off_c, 9, 59, 64
6, 83840, Note_on_c, 9, 59, 62
6, 83869, Note_off_c, 9, 59, 64
6, 84000, Note_on_c, 9, 38, 100
6, 84000, Note_on_c, 9, 59, 115
6, 84039, Note_off_c, 9, 59, 64
6, 84100, Note_off_c, 9, 38, 64
6, 84160, Note_on_c, 9, 59, 48
6, 84199, Note_off_c, 9, 59, 64
6, 84320, Note_on_c, 9, 35, 80
6, 84320, Note_on_c, 9, 59, 75
6, 84353, Note_off_c, 9, 59, 64
6, 84420, Note_off_c, 9, 35, 64
6, 84480, Note_on_c, 9, 35, 100
6, 84480, Note_on_c, 9, 59, 115
6, 84521, Note_off_c, 9, 59, 64
6, 84580, Note_off_c, 9, 35, 64
6, 84640, Note_on_c, 9, 59, 50
6, 84676, Note_off_c, 9, 59, 64
6, 84800, Note_on_c, 9, 59, 57
6, 84832, Note_off_c, 9, 59, 64
6, 84960, Note_on_c, 9, 38, 100
6, 84960, Note_on_c, 9, 59, 119
6, 85000, Note_off_c, 9, 59, 64
6, 85060, Note_off_c, 9, 38, 64
6, 85120, Note_on_c, 9, 59, 46
6, 85159, Note_off_c, 9, 59, 64
6, 85280, Note_on_c, 9, 35, 80
6, 85280, Note_on_c, 9, 59, 83
6, 85320, Note_off_c, 9, 59, 64
6, 85380, Note_off_c, 9, 35, 64
6, 85440, Note_on_c, 9, 35, 100
6, 85440, Note_on_c, 9, 59, 98
6, 85479, Note_off_c, 9, 59, 64
6, 85540, Note_off_c, 9, 35, 64
6, 85600, Note_on_c, 9, 59, 48
6, 85638, Note_off_c, 9, 59, 64
6, 85760, Note_on_c, 9, 35, 80
6, 85760, Note_on_c, 9, 59, 62
6, 85789, Note_off_c, 9, 59, 64
6, 85860, Note_off_c, 9, 35, 64
6, 85920, Note_on_c, 9, 38, 100
6, 85920, Note_on_c, 9, 59, 125
6, 85953, Note_off_c, 9, 59, 64
6, 86020, Note_off_c, 9, 38, 64
6, 86080, Note_on_c, 9, 59, 56
6, 86113, Note_off_c, 9, 59, 64
6, 86240, Note_on_c, 9, 35, 80
6, 86240, Note_on_c, 9, 59, 58
6, 86274, Note_off_c, 9, 59, 64
6, 86340, Note_off_c, 9, 35, 64
6, 86400, Note_on_c, 9, 35, 100
6, 86400, Note_on_c, 9, 59, 105
6, 86437, Note_off_c, 9, 59, 64
6, 86500, Note_off_c, 9, 35, 64
6, 86560, Note_on_c, 9, 59, 47
6, 86590, Note_off_c, 9, 59, 64
6, 86720, Note_on_c, 9, 59, 66
6, 86746, Note_off_c, 9, 59, 64
6, 86880, Note_on_c, 9, 38, 100
6, 86880, Note_on_c, 9, 59, 119
6, 86918, Note_off_c, 9, 59, 64
6, 86980, Note_off_c, 9, 38, 64
6, 87040, Note_on_c, 9, 59, 48
6, 87079, Note_off_c, 9, 59, 64
6, 87200, Note_on_c, 9, 35, 80
6, 87200, Note_on_c, 9, 59, 56
6, 87239, Note_off_c, 9, 59, 64
6, 87300, Note_off_c, 9, 35, 64
6, 87360, Note_on_c, 9, 35, 100
6, 87360, Note_on_c, 9, 59, 90
6, 87399, Note_off_c, 9, 59, 64
6, 87460, Note_off_c, 9, 35, 64
6, 87520, Note_on_c, 9, 59, 56
6, 87556, Note_off_c, 9, 59, 64
6, 87680, Note_on_c, 9, 59, 67
6, 87713, Note_off_c, 9, 59, 64
6, 87840, Note_on_c, 9, 38, 100
6, 87840, Note_on_c, 9, 59, 119
6, 87875, Note_off_c, 9, 59, 64
6, 87940, Note_off_c, 9, 38, 64
6, 88000, Note_on_c, 9, 59, 48
6, 88031, Note_off_c, 9, 59, 64
6, 88160, Note_on_c, 9, 35, 80
6, 88160, Note_on_c, 9, 59, 69
6, 88187, Note_off_c, 9, 59, 64
6, 88260, Note_off_c, 9, 35, 64
6, 88320, Note_on_c, 9, 35, 100
6, 88320, Note_on_c, 9, 59, 115
6, 88360, Note_off_c, 9, 59, 64
6, 88420, Note_off_c, 9, 35, 64
6, 88480, Note_on_c, 9, 59, 39
6, 88512, Note_off_c, 9, 59, 64
6, 88640, Note_on_c, 9, 38, 50
6, 88640, Note_on_c, 9, 59, 79
6, 88672, Note_off_c, 9, 59, 64
6, 88740, Note_off_c, 9, 38, 64
6, 88800, Note_on_c, 9, 38, 90
6, 88800, Note_on_c, 9, 59, 115
6, 88841, Note_off_c, 9, 59, 64
6, 88900, Note_off_c, 9, 38, 64
6, 88960, Note_on_c, 9, 35, 90
6, 88960, Note_on_c, 9, 59, 36
6, 88994, Note_off_c, 9, 59, 64
6, 89060, Note_off_c, 9, 35, 64
6, 89120, Note_on_c, 9, 48, 100
6, 89120, Note_on_c, 9, 59, 115
6, 89155, Note_off_c, 9, 59, 64
6, 89220, Note_off_c, 9, 48, 64
6, 89440, Note_on_c, 9, 38, 100
6, 89540, Note_off_c, 9, 38, 64
6, 89600, Note_on_c, 9, 45, 100
6, 89700, Note_off_c, 9, 45, 64
6, 89760, Note_on_c, 9, 41, 100
6, 89860, Note_off_c, 9, 41, 64
6, 90080, Note_on_c, 9, 41, 115
6, 90180, Note_off_c, 9, 41, 64
6, 90240, Note_on_c, 9, 35, 100
6, 90240, Note_on_c, 9, 42, 90
6, 90240, Note_on_c, 9, 49, 90
6, 90340, Note_off_c, 9, 49, 64
6, 90340, Note_off_c, 9, 42, 64
6, 90340, Note_off_c, 9, 35, 64
6, 90560, Note_on_c, 9, 42, 70
6, 90660, Note_off_c, 9, 42, 64
6, 90720, Note_on_c, 9, 38, 100
6, 90720, Note_on_c, 9, 42, 80
6, 90820, Note_off_c, 9, 42, 64
6, 90820, Note_off_c, 9, 38, 64
6, 90880, Note_on_c, 9, 42, 50
6, 90980, Note_off_c, 9, 42, 64
6, 91040, Note_on_c, 9, 35, 80
6, 91040, Note_on_c, 9, 42, 70
6, 91140, Note_off_c, 9, 42, 64
6, 91140, Note_off_c, 9, 35, 64
6, 91200, Note_on_c, 9, 35, 100
6, 91200, Note_on_c, 9, 42, 90
6, 91300, Note_off_c, 9, 42, 64
6, 91300, Note_off_c, 9, 35, 64
6, 91520, Note_on_c, 9, 42, 70
6, 91620, Note_off_c, 9, 42, 64
6, 91680, Note_on_c, 9, 38, 100
6, 91680, Note_on_c, 9, 42, 80
6, 91780, Note_off_c, 9, 42, 64
6, 91780, Note_off_c, 9, 38, 64
6, 91840, Note_on_c, 9, 42, 60
6, 91940, Note_off_c, 9, 42, 64
6, 92000, Note_on_c, 9, 35, 80
6, 92000, Note_on_c, 9, 42, 70
6, 92100, Note_off_c, 9, 42, 64
6, 92100, Note_off_c, 9, 35, 64
6, 92160, Note_on_c, 9, 35, 100
6, 92160, Note_on_c, 9, 42, 90
6, 92260, Note_off_c, 9, 42, 64
6, 92260, Note_off_c, 9, 35, 64
6, 92480, Note_on_c, 9, 42, 70
6, 92580, Note_off_c, 9, 42, 64
6, 92640, Note_on_c, 9, 38, 100
6, 92640, Note_on_c, 9, 42, 80
6, 92740, Note_off_c, 9, 42, 64
6, 92740, Note_off_c, 9, 38, 64
6, 92800, Note_on_c, 9, 46, 54
6, 92900, Note_off_c, 9, 46, 64
6, 92960, Note_on_c, 9, 35, 80
6, 92960, Note_on_c, 9, 38, 36
6, 93060, Note_off_c, 9, 38, 64
6, 93060, Note_off_c, 9, 35, 64
6, 93120, Note_on_c, 9, 35, 100
6, 93120, Note_on_c, 9, 42, 90
6, 93220, Note_off_c, 9, 42, 64
6, 93220, Note_off_c, 9, 35, 64
6, 93280, Note_on_c, 9, 42, 50
6, 93380, Note_off_c, 9, 42, 64
6, 93440, Note_on_c, 9, 35, 80
6, 93440, Note_on_c, 9, 42, 70
6, 93540, Note_off_c, 9, 42, 64
6, 93540, Note_off_c, 9, 35, 64
6, 93600, Note_on_c, 9, 38, 100
6, 93600, Note_on_c, 9, 42, 80
6, 93700, Note_off_c, 9, 42, 64
6, 93700, Note_off_c, 9, 38, 64
6, 93760, Note_on_c, 9, 42, 60
6, 93860, Note_off_c, 9, 42, 64
6, 93920, Note_on_c, 9, 35, 80
6, 93920, Note_on_c, 9, 42, 70
6, 94020, Note_off_c, 9, 42, 64
6, 94020, Note_off_c, 9, 35, 64
6, 94080, Note_on_c, 9, 35, 100
6, 94080, Note_on_c, 9, 42, 90
6, 94180, Note_off_c, 9, 42, 64
6, 94180, Note_off_c, 9, 35, 64
6, 94400, Note_on_c, 9, 42, 70
6, 94500, Note_off_c, 9, 42, 64
6, 94560, Note_on_c, 9, 38, 100
6, 94560, Note_on_c, 9, 42, 80
6, 94660, Note_off_c, 9, 42, 64
6, 94660, Note_off_c, 9, 38, 64
6, 94720, Note_on_c, 9, 42, 40
6, 94820, Note_off_c, 9, 42, 64
6, 94880, Note_on_c, 9, 35, 80
6, 94880, Note_on_c, 9, 42, 70
6, 94980, Note_off_c, 9, 42, 64
6, 94980, Note_off_c, 9, 35, 64
6, 95040, Note_on_c, 9, 35, 100
6, 95040, Note_on_c, 9, 42, 90
6, 95140, Note_off_c, 9, 42, 64
6, 95140, Note_off_c, 9, 35, 64
6, 95200, Note_on_c, 9, 42, 50
6, 95300, Note_off_c, 9, 42, 64
6, 95360, Note_on_c, 9, 46, 80
6, 95460, Note_off_c, 9, 46, 64
6, 95520, Note_on_c, 9, 38, 100
6, 95520, Note_on_c, 9, 42, 80
6, 95620, Note_off_c, 9, 42, 64
6, 95620, Note_off_c, 9, 38, 64
6, 95680, Note_on_c, 9, 42, 60
6, 95780, Note_off_c, 9, 42, 64
6, 95840, Note_on_c, 9, 35, 80
6, 95840, Note_on_c, 9, 42, 70
6, 95940, Note_off_c, 9, 42, 64
6, 95940, Note_off_c, 9, 35, 64
6, 96000, Note_on_c, 9, 35, 90
6, 96000, Note_on_c, 9, 38, 90
6, 96000, Note_on_c, 9, 41, 90
6, 96100, Note_off_c, 9, 41, 64
6, 96100, Note_off_c, 9, 38, 64
6, 96100, Note_off_c, 9, 35, 64
6, 96320, Note_on_c, 9, 38, 40
6, 96320, Note_on_c, 9, 41, 40
6, 96420, Note_off_c, 9, 41, 64
6, 96420, Note_off_c, 9, 38, 64
6, 96480, Note_on_c, 9, 35, 90
6, 96480, Note_on_c, 9, 38, 60
6, 96480, Note_on_c, 9, 41, 60
6, 96580, Note_off_c, 9, 41, 64
6, 96580, Note_off_c, 9, 38, 64
6, 96580, Note_off_c, 9, 35, 64
6, 96800, Note_on_c, 9, 38, 100
6, 96800, Note_on_c, 9, 41, 100
6, 96900, Note_off_c, 9, 41, 64
6, 96900, Note_off_c, 9, 38, 64
6, 96960, Note_on_c, 9, 35, 90
6, 96960, Note_on_c, 9, 38, 80
6, 97060, Note_off_c, 9, 38, 64
6, 97060, Note_off_c, 9, 35, 64
6, 97120, Note_on_c, 9, 38, 40
6, 97220, Note_off_c, 9, 38, 64
6, 97280, Note_on_c, 9, 38, 100
6, 97380, Note_off_c, 9, 38, 64
6, 97440, Note_on_c, 9, 35, 90
6, 97440, Note_on_c, 9, 38, 115
6, 97540, Note_off_c, 9, 38, 64
6, 97540, Note_off_c, 9, 35, 64
6, 97600, Note_on_c, 9, 38, 80
6, 97700, Note_off_c, 9, 38, 64
6, 97760, Note_on_c, 9, 38, 127
6, 97860, Note_off_c, 9, 38, 64
6, 97920, Note_on_c, 9, 35, 100
6, 97920, Note_on_c, 9, 42, 90
6, 97920, Note_on_c, 9, 49, 90
6, 98020, Note_off_c, 9, 49, 64
6, 98020, Note_off_c, 9, 42, 64
6, 98020, Note_off_c, 9, 35, 64
6, 98240, Note_on_c, 9, 42, 70
6, 98340, Note_off_c, 9, 42, 64
6, 98400, Note_on_c, 9, 42, 80
6, 98400, Note_on_c, 9, 37, 100
6, 98500, Note_off_c, 9, 37, 64
6, 98500, Note_off_c, 9, 42, 64
6, 98720, Note_on_c, 9, 35, 80
6, 98720, Note_on_c, 9, 42, 70
6, 98820, Note_off_c, 9, 42, 64
6, 98820, Note_off_c, 9, 35, 64
6, 98880, Note_on_c, 9, 35, 100
6, 98880, Note_on_c, 9, 42, 90
6, 98980, Note_off_c, 9, 42, 64
6, 98980, Note_off_c, 9, 35, 64
6, 99200, Note_on_c, 9, 42, 70
6, 99300, Note_off_c, 9, 42, 64
6, 99360, Note_on_c, 9, 42, 80
6, 99360, Note_on_c, 9, 37, 100
6, 99460, Note_off_c, 9, 37, 64
6, 99460, Note_off_c, 9, 42, 64
6, 99680, Note_on_c, 9, 35, 80
6, 99680, Note_on_c, 9, 42, 70
6, 99780, Note_off_c, 9, 42, 64
6, 99780, Note_off_c, 9, 35, 64
6, 99840, Note_on_c, 9, 35, 100
6, 99840, Note_on_c, 9, 42, 90
6, 99940, Note_off_c, 9, 42, 64
6, 99940, Note_off_c, 9, 35, 64
6, 100160, Note_on_c, 9, 42, 70
6, 100260, Note_off_c, 9, 42, 64
6, 100320, Note_on_c, 9, 42, 80
6, 100320, Note_on_c, 9, 37, 100
6, 100420, Note_off_c, 9, 37, 64
6, 100420, Note_off_c, 9, 42, 64
6, 100640, Note_on_c, 9, 35, 80
6, 100640, Note_on_c, 9, 42, 70
6, 100740, Note_off_c, 9, 42, 64
6, 100740, Note_off_c, 9, 35, 64
6, 100800, Note_on_c, 9, 35, 100
6, 100800, Note_on_c, 9, 42, 90
6, 100900, Note_off_c, 9, 42, 64
6, 100900, Note_off_c, 9, 35, 64
6, 101120, Note_on_c, 9, 35, 80
6, 101120, Note_on_c, 9, 42, 70
6, 101220, Note_off_c, 9, 42, 64
6, 101220, Note_off_c, 9, 35, 64
6, 101280, Note_on_c, 9, 42, 80
6, 101280, Note_on_c, 9, 37, 100
6, 101380, Note_off_c, 9, 37, 64
6, 101380, Note_off_c, 9, 42, 64
6, 101440, Note_on_c, 9, 42, 60
6, 101540, Note_off_c, 9, 42, 64
6, 101600, Note_on_c, 9, 35, 80
6, 101600, Note_on_c, 9, 42, 70
6, 101700, Note_off_c, 9, 42, 64
6, 101700, Note_off_c, 9, 35, 64
6, 101760, Note_on_c, 9, 35, 100
6, 101760, Note_on_c, 9, 42, 90
6, 101860, Note_off_c, 9, 42, 64
6, 101860, Note_off_c, 9, 35, 64
6, 102080, Note_on_c, 9, 42, 70
6, 102180, Note_off_c, 9, 42, 64
6, 102240, Note_on_c, 9, 42, 80
6, 102240, Note_on_c, 9, 37, 100
6, 102340, Note_off_c, 9, 37, 64
6, 102340, Note_off_c, 9, 42, 64
6, 102560, Note_on_c, 9, 35, 80
6, 102560, Note_on_c, 9, 42, 70
6, 102660, Note_off_c, 9, 42, 64
6, 102660, Note_off_c, 9, 35, 64
6, 102720, Note_on_c, 9, 35, 100
6, 102720, Note_on_c, 9, 48, 107
6, 102725, Note_on_c, 9, 50, 107
6, 102758, Note_off_c, 9, 48, 64
6, 102762, Note_off_c, 9, 50, 64
6, 102820, Note_off_c, 9, 35, 64
6, 102956, Note_on_c, 9, 47, 101
6, 102963, Note_on_c, 9, 48, 110
6, 102994, Note_off_c, 9, 47, 64
6, 103001, Note_off_c, 9, 48, 64
6, 103198, Note_on_c, 9, 43, 107
6, 103206, Note_on_c, 9, 45, 113
6, 103235, Note_off_c, 9, 43, 64
6, 103254, Note_off_c, 9, 45, 64
6, 103437, Note_on_c, 9, 41, 85
6, 103445, Note_on_c, 9, 43, 117
6, 103480, Note_off_c, 9, 41, 64
6, 103484, Note_off_c, 9, 43, 64
6, 103680, Note_on_c, 9, 35, 90
6, 103680, Note_on_c, 9, 42, 80
6, 103680, Note_on_c, 9, 49, 90
6, 103719, Note_off_c, 9, 49, 64
6, 103780, Note_off_c, 9, 42, 64
6, 103780, Note_off_c, 9, 35, 64
6, 103840, Note_on_c, 9, 42, 50
6, 103940, Note_off_c, 9, 42, 64
6, 104000, Note_on_c, 9, 42, 100
6, 104100, Note_off_c, 9, 42, 64
6, 104160, Note_on_c, 9, 38, 100
6, 104160, Note_on_c, 9, 46, 100
6, 104260, Note_off_c, 9, 46, 64
6, 104260, Note_off_c, 9, 38, 64
6, 104480, Note_on_c, 9, 35, 90
6, 104580, Note_off_c, 9, 35, 64
6, 104640, Note_on_c, 9, 38, 100
6, 104740, Note_off_c, 9, 38, 64
6, 104800, Note_on_c, 9, 38, 60
6, 104900, Note_off_c, 9, 38, 64
6, 104960, Note_on_c, 9, 35, 90
6, 105060, Note_off_c, 9, 35, 64
6, 105120, Note_on_c, 9, 38, 100
6, 105220, Note_off_c, 9, 38, 64
6, 105280, Note_on_c, 9, 38, 60
6, 105380, Note_off_c, 9, 38, 64
6, 105440, Note_on_c, 9, 41, 115
6, 105540, Note_off_c, 9, 41, 64
6, 105600, Note_on_c, 9, 35, 90
6, 105600, Note_on_c, 9, 42, 80
6, 105700, Note_off_c, 9, 42, 64
6, 105700, Note_off_c, 9, 35, 64
6, 105760, Note_on_c, 9, 42, 50
6, 105860, Note_off_c, 9, 42, 64
6, 105920, Note_on_c, 9, 42, 100
6, 106020, Note_off_c, 9, 42, 64
6, 106080, Note_on_c, 9, 38, 100
6, 106080, Note_on_c, 9, 46, 100
6, 106180, Note_off_c, 9, 46, 64
6, 106180, Note_off_c, 9, 38, 64
6, 106400, Note_on_c, 9, 35, 90
6, 106500, Note_off_c, 9, 35, 64
6, 106560, Note_on_c, 9, 38, 100
6, 106660, Note_off_c, 9, 38, 64
6, 106720, Note_on_c, 9, 38, 60
6, 106820, Note_off_c, 9, 38, 64
6, 106880, Note_on_c, 9, 35, 90
6, 106980, Note_off_c, 9, 35, 64
6, 107040, Note_on_c, 9, 38, 100
6, 107140, Note_off_c, 9, 38, 64
6, 107200, Note_on_c, 9, 38, 60
6, 107300, Note_off_c, 9, 38, 64
6, 107360, Note_on_c, 9, 41, 115
6, 107460, Note_off_c, 9, 41, 64
6, 107520, Note_on_c, 9, 49, 100
6, 107520, Note_on_c, 9, 36, 110
6, 107542, Note_off_c, 9, 49, 64
6, 107604, Note_off_c, 9, 36, 64
6, 107680, Note_on_c, 9, 59, 62
6, 107713, Note_off_c, 9, 59, 64
6, 107840, Note_on_c, 9, 59, 63
6, 107875, Note_off_c, 9, 59, 64
6, 108000, Note_on_c, 9, 38, 113
6, 108000, Note_on_c, 9, 59, 86
6, 108046, Note_off_c, 9, 59, 64
6, 108053, Note_off_c, 9, 38, 64
6, 108160, Note_on_c, 9, 59, 54
6, 108193, Note_off_c, 9, 59, 64
6, 108320, Note_on_c, 9, 36, 83
6, 108320, Note_on_c, 9, 59, 55
6, 108356, Note_off_c, 9, 59, 64
6, 108358, Note_off_c, 9, 36, 64
6, 108480, Note_on_c, 9, 36, 90
6, 108480, Note_on_c, 9, 59, 80
6, 108528, Note_off_c, 9, 36, 64
6, 108530, Note_off_c, 9, 59, 64
6, 108640, Note_on_c, 9, 59, 57
6, 108675, Note_off_c, 9, 59, 64
6, 108800, Note_on_c, 9, 59, 55
6, 108840, Note_off_c, 9, 59, 64
6, 108960, Note_on_c, 9, 38, 107
6, 108960, Note_on_c, 9, 59, 90
6, 109017, Note_off_c, 9, 59, 64
6, 109022, Note_off_c, 9, 38, 64
6, 109120, Note_on_c, 9, 59, 53
6, 109156, Note_off_c, 9, 59, 64
6, 109280, Note_on_c, 9, 59, 56
6, 109322, Note_off_c, 9, 59, 64
6, 109440, Note_on_c, 9, 36, 94
6, 109440, Note_on_c, 9, 59, 88
6, 109494, Note_off_c, 9, 59, 64
6, 109502, Note_off_c, 9, 36, 64
6, 109600, Note_on_c, 9, 59, 50
6, 109638, Note_off_c, 9, 59, 64
6, 109760, Note_on_c, 9, 59, 51
6, 109798, Note_off_c, 9, 59, 64
6, 109920, Note_on_c, 9, 38, 110
6, 109920, Note_on_c, 9, 59, 94
6, 109978, Note_off_c, 9, 59, 64
6, 110000, Note_off_c, 9, 38, 64
6, 110080, Note_on_c, 9, 59, 47
6, 110110, Note_off_c, 9, 59, 64
6, 110240, Note_on_c, 9, 36, 73
6, 110240, Note_on_c, 9, 59, 54
6, 110278, Note_off_c, 9, 59, 64
6, 110280, Note_off_c, 9, 36, 64
6, 110400, Note_on_c, 9, 36, 90
6, 110400, Note_on_c, 9, 59, 88
6, 110454, Note_off_c, 9, 36, 64
6, 110458, Note_off_c, 9, 59, 64
6, 110560, Note_on_c, 9, 59, 47
6, 110590, Note_off_c, 9, 59, 64
6, 110720, Note_on_c, 9, 59, 62
6, 110763, Note_off_c, 9, 59, 64
6, 110880, Note_on_c, 9, 38, 113
6, 110880, Note_on_c, 9, 59, 88
6, 110928, Note_off_c, 9, 59, 64
6, 110952, Note_off_c, 9, 38, 64
6, 111040, Note_on_c, 9, 59, 52
6, 111075, Note_off_c, 9, 59, 64
6, 111200, Note_on_c, 9, 38, 110
6, 111200, Note_on_c, 9, 59, 65
6, 111238, Note_off_c, 9, 38, 64
6, 111239, Note_off_c, 9, 59, 64
6, 111360, Note_on_c, 9, 36, 101
6, 111360, Note_on_c, 9, 49, 86
6, 111395, Note_off_c, 9, 49, 64
6, 111417, Note_off_c, 9, 36, 64
6, 111520, Note_on_c, 9, 59, 58
6, 111559, Note_off_c, 9, 59, 64
6, 111680, Note_on_c, 9, 59, 55
6, 111717, Note_off_c, 9, 59, 64
6, 111840, Note_on_c, 9, 38, 107
6, 111840, Note_on_c, 9, 59, 78
6, 111888, Note_off_c, 9, 59, 64
6, 111896, Note_off_c, 9, 38, 64
6, 112000, Note_on_c, 9, 59, 50
6, 112034, Note_off_c, 9, 59, 64
6, 112160, Note_on_c, 9, 36, 83
6, 112160, Note_on_c, 9, 59, 52
6, 112195, Note_off_c, 9, 36, 64
6, 112213, Note_off_c, 9, 59, 64
6, 112320, Note_on_c, 9, 36, 90
6, 112320, Note_on_c, 9, 59, 85
6, 112368, Note_off_c, 9, 36, 64
6, 112369, Note_off_c, 9, 59, 64
6, 112480, Note_on_c, 9, 59, 52
6, 112520, Note_off_c, 9, 59, 64
6, 112640, Note_on_c, 9, 59, 53
6, 112680, Note_off_c, 9, 59, 64
6, 112800, Note_on_c, 9, 38, 110
6, 112800, Note_on_c, 9, 59, 82
6, 112851, Note_off_c, 9, 59, 64
6, 112855, Note_off_c, 9, 38, 64
6, 112960, Note_on_c, 9, 59, 34
6, 112995, Note_off_c, 9, 59, 64
6, 113120, Note_on_c, 9, 36, 86
6, 113120, Note_on_c, 9, 59, 55
6, 113157, Note_off_c, 9, 59, 64
6, 113161, Note_off_c, 9, 36, 64
6, 113280, Note_on_c, 9, 36, 92
6, 113280, Note_on_c, 9, 59, 82
6, 113326, Note_off_c, 9, 36, 64
6, 113330, Note_off_c, 9, 59, 64
6, 113440, Note_on_c, 9, 59, 39
6, 113471, Note_off_c, 9, 59, 64
6, 113600, Note_on_c, 9, 59, 51
6, 113637, Note_off_c, 9, 59, 64
6, 113760, Note_on_c, 9, 38, 117
6, 113760, Note_on_c, 9, 59, 99
6, 113808, Note_off_c, 9, 38, 64
6, 113818, Note_off_c, 9, 59, 64
6, 113920, Note_on_c, 9, 59, 41
6, 113954, Note_off_c, 9, 59, 64
6, 114080, Note_on_c, 9, 36, 83
6, 114080, Note_on_c, 9, 59, 52
6, 114119, Note_off_c, 9, 36, 64
6, 114123, Note_off_c, 9, 59, 64
6, 114240, Note_on_c, 9, 36, 92
6, 114240, Note_on_c, 9, 59, 80
6, 114284, Note_off_c, 9, 59, 64
6, 114286, Note_off_c, 9, 36, 64
6, 114400, Note_on_c, 9, 38, 113
6, 114400, Note_on_c, 9, 59, 90
6, 114443, Note_off_c, 9, 59, 64
6, 114448, Note_off_c, 9, 38, 64
6, 114720, Note_on_c, 9, 38, 97
6, 114759, Note_off_c, 9, 38, 64
6, 114880, Note_on_c, 9, 38, 110
6, 114929, Note_off_c, 9, 38, 64
6, 115200, Note_on_c, 9, 36, 94
6, 115200, Note_on_c, 9, 49, 77
6, 115235, Note_off_c, 9, 49, 64
6, 115273, Note_off_c, 9, 36, 64
6, 115360, Note_on_c, 9, 59, 58
6, 115404, Note_off_c, 9, 59, 64
6, 115520, Note_on_c, 9, 59, 58
6, 115562, Note_off_c, 9, 59, 64
6, 115680, Note_on_c, 9, 38, 107
6, 115680, Note_on_c, 9, 59, 86
6, 115728, Note_off_c, 9, 59, 64
6, 115736, Note_off_c, 9, 38, 64
6, 115840, Note_on_c, 9, 59, 53
6, 115880, Note_off_c, 9, 59, 64
6, 116000, Note_on_c, 9, 36, 85
6, 116000, Note_on_c, 9, 59, 54
6, 116037, Note_off_c, 9, 36, 64
6, 116048, Note_off_c, 9, 59, 64
6, 116160, Note_on_c, 9, 36, 90
6, 116160, Note_on_c, 9, 59, 71
6, 116208, Note_off_c, 9, 59, 64
6, 116208, Note_off_c, 9, 36, 64
6, 116320, Note_on_c, 9, 59, 51
6, 116359, Note_off_c, 9, 59, 64
6, 116480, Note_on_c, 9, 59, 55
6, 116520, Note_off_c, 9, 59, 64
6, 116640, Note_on_c, 9, 38, 117
6, 116640, Note_on_c, 9, 59, 83
6, 116691, Note_off_c, 9, 59, 64
6, 116695, Note_off_c, 9, 38, 64
6, 116800, Note_on_c, 9, 59, 50
6, 116840, Note_off_c, 9, 59, 64
6, 116960, Note_on_c, 9, 36, 86
6, 116960, Note_on_c, 9, 59, 60
6, 117001, Note_off_c, 9, 36, 64
6, 117003, Note_off_c, 9, 59, 64
6, 117120, Note_on_c, 9, 36, 94
6, 117120, Note_on_c, 9, 59, 86
6, 117167, Note_off_c, 9, 36, 64
6, 117170, Note_off_c, 9, 59, 64
6, 117280, Note_on_c, 9, 59, 51
6, 117321, Note_off_c, 9, 59, 64
6, 117440, Note_on_c, 9, 59, 51
6, 117486, Note_off_c, 9, 59, 64
6, 117600, Note_on_c, 9, 38, 110
6, 117600, Note_on_c, 9, 59, 97
6, 117656, Note_off_c, 9, 59, 64
6, 117666, Note_off_c, 9, 38, 64
6, 117760, Note_on_c, 9, 59, 45
6, 117802, Note_off_c, 9, 59, 64
6, 117920, Note_on_c, 9, 36, 80
6, 117920, Note_on_c, 9, 59, 54
6, 117954, Note_off_c, 9, 36, 64
6, 117961, Note_off_c, 9, 59, 64
6, 118080, Note_on_c, 9, 36, 99
6, 118080, Note_on_c, 9, 59, 80
6, 118123, Note_off_c, 9, 36, 64
6, 118132, Note_off_c, 9, 59, 64
6, 118240, Note_on_c, 9, 38, 117
6, 118240, Note_on_c, 9, 59, 53
6, 118275, Note_off_c, 9, 59, 64
6, 118288, Note_off_c, 9, 38, 64
6, 118400, Note_on_c, 9, 59, 66
6, 118442, Note_off_c, 9, 59, 64
6, 118720, Note_on_c, 9, 38, 120
6, 118772, Note_off_c, 9, 38, 64
6, 119040, Note_on_c, 9, 36, 97
6, 119040, Note_on_c, 9, 49, 84
6, 119072, Note_off_c, 9, 49, 64
6, 119095, Note_off_c, 9, 36, 64
6, 119200, Note_on_c, 9, 59, 41
6, 119242, Note_off_c, 9, 59, 64
6, 119360, Note_on_c, 9, 59, 58
6, 119409, Note_off_c, 9, 59, 64
6, 119520, Note_on_c, 9, 38, 113
6, 119520, Note_on_c, 9, 59, 90
6, 119566, Note_off_c, 9, 59, 64
6, 119575, Note_off_c, 9, 38, 64
6, 119680, Note_on_c, 9, 59, 52
6, 119721, Note_off_c, 9, 59, 64
6, 119840, Note_on_c, 9, 36, 90
6, 119840, Note_on_c, 9, 59, 61
6, 119876, Note_off_c, 9, 36, 64
6, 119881, Note_off_c, 9, 59, 64
6, 120000, Note_on_c, 9, 36, 104
6, 120000, Note_on_c, 9, 38, 86
6, 120032, Note_off_c, 9, 38, 64
6, 120045, Note_off_c, 9, 36, 64
6, 120160, Note_on_c, 9, 48, 101
6, 120207, Note_off_c, 9, 48, 64
6, 120320, Note_on_c, 9, 45, 101
6, 120360, Note_off_c, 9, 45, 64
6, 120480, Note_on_c, 9, 38, 97
6, 120480, Note_on_c, 9, 36, 86
6, 120522, Note_off_c, 9, 38, 64
6, 120525, Note_off_c, 9, 36, 64
6, 120640, Note_on_c, 9, 43, 107
6, 120677, Note_off_c, 9, 43, 64
6, 120800, Note_on_c, 9, 41, 92
6, 120848, Note_off_c, 9, 41, 64
6, 120963, Note_on_c, 9, 49, 100
6, 120967, Note_on_c, 9, 38, 86
6, 120970, Note_on_c, 9, 36, 88
6, 120980, Note_off_c, 9, 49, 64
6, 121049, Note_off_c, 9, 38, 64
6, 121058, Note_off_c, 9, 36, 64
6, 121058, End_track
0, 0, End_of_file
