0, 0, Header, 1, 10, 120
1, 0, Start_track
1, 0, Title_t, "Gabrielle - Out of reach"
1, 0, Time_signature, 4, 2, 24, 8
1, 0, Key_signature, 0, "major"
1, 0, Tempo, 659341
1, 0, End_track
2, 0, Start_track
2, 0, MIDI_port, 0
2, 0, Title_t, "Track 1"
2, 0, Program_c, 0, 4
2, 0, Control_c, 0, 7, 117
2, 480, Note_on_c, 0, 48, 120
2, 480, Note_on_c, 0, 52, 120
2, 480, Note_on_c, 0, 55, 120
2, 480, Note_on_c, 0, 60, 120
2, 877, Note_on_c, 0, 60, 0
2, 877, Note_on_c, 0, 55, 0
2, 889, Note_on_c, 0, 52, 0
2, 897, Note_on_c, 0, 48, 0
2, 960, Note_on_c, 0, 45, 120
2, 960, Note_on_c, 0, 48, 120
2, 960, Note_on_c, 0, 52, 120
2, 960, Note_on_c, 0, 57, 120
2, 1357, Note_on_c, 0, 57, 0
2, 1362, Note_on_c, 0, 52, 0
2, 1370, Note_on_c, 0, 48, 0
2, 1377, Note_on_c, 0, 45, 0
2, 1440, Note_on_c, 0, 47, 120
2, 1440, Note_on_c, 0, 50, 120
2, 1440, Note_on_c, 0, 55, 120
2, 1445, Note_on_c, 0, 59, 120
2, 1842, Note_on_c, 0, 59, 0
2, 1843, Note_on_c, 0, 55, 0
2, 1851, Note_on_c, 0, 50, 0
2, 1857, Note_on_c, 0, 47, 0
2, 1920, Note_on_c, 0, 48, 120
2, 1920, Note_on_c, 0, 53, 120
2, 1920, Note_on_c, 0, 57, 120
2, 1920, Note_on_c, 0, 60, 120
2, 2307, Note_on_c, 0, 57, 0
2, 2317, Note_on_c, 0, 60, 0
2, 2322, Note_on_c, 0, 53, 0
2, 2337, Note_on_c, 0, 48, 0
2, 2400, Note_on_c, 0, 48, 120
2, 2400, Note_on_c, 0, 52, 120
2, 2400, Note_on_c, 0, 55, 120
2, 2400, Note_on_c, 0, 60, 120
2, 2797, Note_on_c, 0, 60, 0
2, 2797, Note_on_c, 0, 55, 0
2, 2809, Note_on_c, 0, 52, 0
2, 2817, Note_on_c, 0, 48, 0
2, 2880, Note_on_c, 0, 45, 120
2, 2880, Note_on_c, 0, 48, 120
2, 2880, Note_on_c, 0, 52, 120
2, 2880, Note_on_c, 0, 57, 120
2, 3277, Note_on_c, 0, 57, 0
2, 3282, Note_on_c, 0, 52, 0
2, 3290, Note_on_c, 0, 48, 0
2, 3297, Note_on_c, 0, 45, 0
2, 3360, Note_on_c, 0, 47, 120
2, 3360, Note_on_c, 0, 50, 120
2, 3360, Note_on_c, 0, 55, 120
2, 3360, Note_on_c, 0, 59, 120
2, 3757, Note_on_c, 0, 59, 0
2, 3763, Note_on_c, 0, 55, 0
2, 3771, Note_on_c, 0, 50, 0
2, 3777, Note_on_c, 0, 47, 0
2, 3840, Note_on_c, 0, 48, 120
2, 3840, Note_on_c, 0, 53, 120
2, 3840, Note_on_c, 0, 57, 120
2, 3840, Note_on_c, 0, 60, 120
2, 4227, Note_on_c, 0, 57, 0
2, 4237, Note_on_c, 0, 60, 0
2, 4242, Note_on_c, 0, 53, 0
2, 4257, Note_on_c, 0, 48, 0
2, 4320, Note_on_c, 0, 48, 120
2, 4320, Note_on_c, 0, 52, 120
2, 4320, Note_on_c, 0, 55, 120
2, 4320, Note_on_c, 0, 60, 120
2, 4717, Note_on_c, 0, 60, 0
2, 4717, Note_on_c, 0, 55, 0
2, 4729, Note_on_c, 0, 52, 0
2, 4737, Note_on_c, 0, 48, 0
2, 4800, Note_on_c, 0, 45, 120
2, 4800, Note_on_c, 0, 48, 120
2, 4800, Note_on_c, 0, 52, 120
2, 4800, Note_on_c, 0, 57, 120
2, 5197, Note_on_c, 0, 57, 0
2, 5202, Note_on_c, 0, 52, 0
2, 5210, Note_on_c, 0, 48, 0
2, 5217, Note_on_c, 0, 45, 0
2, 5280, Note_on_c, 0, 47, 120
2, 5280, Note_on_c, 0, 50, 120
2, 5280, Note_on_c, 0, 55, 120
2, 5280, Note_on_c, 0, 59, 120
2, 5677, Note_on_c, 0, 59, 0
2, 5683, Note_on_c, 0, 55, 0
2, 5691, Note_on_c, 0, 50, 0
2, 5697, Note_on_c, 0, 47, 0
2, 5760, Note_on_c, 0, 48, 120
2, 5760, Note_on_c, 0, 53, 120
2, 5760, Note_on_c, 0, 57, 120
2, 5760, Note_on_c, 0, 60, 120
2, 6147, Note_on_c, 0, 57, 0
2, 6157, Note_on_c, 0, 60, 0
2, 6162, Note_on_c, 0, 53, 0
2, 6177, Note_on_c, 0, 48, 0
2, 6240, Note_on_c, 0, 48, 120
2, 6240, Note_on_c, 0, 52, 120
2, 6240, Note_on_c, 0, 57, 120
2, 6240, Note_on_c, 0, 64, 120
2, 6657, Note_on_c, 0, 64, 0
2, 6657, Note_on_c, 0, 48, 0
2, 6657, Note_on_c, 0, 52, 0
2, 6657, Note_on_c, 0, 57, 0
2, 6720, Note_on_c, 0, 50, 120
2, 6720, Note_on_c, 0, 54, 120
2, 6720, Note_on_c, 0, 57, 120
2, 6720, Note_on_c, 0, 62, 120
2, 7137, Note_on_c, 0, 62, 0
2, 7137, Note_on_c, 0, 50, 0
2, 7137, Note_on_c, 0, 54, 0
2, 7137, Note_on_c, 0, 57, 0
2, 7200, Note_on_c, 0, 53, 120
2, 7200, Note_on_c, 0, 57, 120
2, 7200, Note_on_c, 0, 60, 120
2, 7200, Note_on_c, 0, 65, 120
2, 7617, Note_on_c, 0, 65, 0
2, 7617, Note_on_c, 0, 53, 0
2, 7617, Note_on_c, 0, 57, 0
2, 7617, Note_on_c, 0, 60, 0
2, 7680, Note_on_c, 0, 50, 120
2, 7680, Note_on_c, 0, 55, 120
2, 7680, Note_on_c, 0, 59, 120
2, 7680, Note_on_c, 0, 62, 120
2, 8097, Note_on_c, 0, 62, 0
2, 8097, Note_on_c, 0, 50, 0
2, 8097, Note_on_c, 0, 55, 0
2, 8097, Note_on_c, 0, 59, 0
2, 8160, Note_on_c, 0, 48, 120
2, 8160, Note_on_c, 0, 52, 120
2, 8160, Note_on_c, 0, 55, 120
2, 8160, Note_on_c, 0, 60, 120
2, 8557, Note_on_c, 0, 60, 0
2, 8557, Note_on_c, 0, 55, 0
2, 8569, Note_on_c, 0, 52, 0
2, 8577, Note_on_c, 0, 48, 0
2, 8640, Note_on_c, 0, 45, 120
2, 8640, Note_on_c, 0, 48, 120
2, 8640, Note_on_c, 0, 52, 120
2, 8640, Note_on_c, 0, 57, 120
2, 9037, Note_on_c, 0, 57, 0
2, 9042, Note_on_c, 0, 52, 0
2, 9050, Note_on_c, 0, 48, 0
2, 9057, Note_on_c, 0, 45, 0
2, 9120, Note_on_c, 0, 47, 120
2, 9120, Note_on_c, 0, 50, 120
2, 9120, Note_on_c, 0, 55, 120
2, 9120, Note_on_c, 0, 59, 120
2, 9517, Note_on_c, 0, 59, 0
2, 9523, Note_on_c, 0, 55, 0
2, 9531, Note_on_c, 0, 50, 0
2, 9537, Note_on_c, 0, 47, 0
2, 9600, Note_on_c, 0, 48, 120
2, 9600, Note_on_c, 0, 53, 120
2, 9600, Note_on_c, 0, 57, 120
2, 9600, Note_on_c, 0, 60, 120
2, 9987, Note_on_c, 0, 57, 0
2, 9997, Note_on_c, 0, 60, 0
2, 10002, Note_on_c, 0, 53, 0
2, 10017, Note_on_c, 0, 48, 0
2, 10080, Note_on_c, 0, 48, 120
2, 10080, Note_on_c, 0, 52, 120
2, 10080, Note_on_c, 0, 55, 120
2, 10080, Note_on_c, 0, 60, 120
2, 10477, Note_on_c, 0, 60, 0
2, 10477, Note_on_c, 0, 55, 0
2, 10489, Note_on_c, 0, 52, 0
2, 10497, Note_on_c, 0, 48, 0
2, 10560, Note_on_c, 0, 45, 120
2, 10560, Note_on_c, 0, 48, 120
2, 10560, Note_on_c, 0, 52, 120
2, 10560, Note_on_c, 0, 57, 120
2, 10957, Note_on_c, 0, 57, 0
2, 10962, Note_on_c, 0, 52, 0
2, 10970, Note_on_c, 0, 48, 0
2, 10977, Note_on_c, 0, 45, 0
2, 11040, Note_on_c, 0, 47, 120
2, 11040, Note_on_c, 0, 50, 120
2, 11040, Note_on_c, 0, 55, 120
2, 11040, Note_on_c, 0, 59, 120
2, 11437, Note_on_c, 0, 59, 0
2, 11443, Note_on_c, 0, 55, 0
2, 11451, Note_on_c, 0, 50, 0
2, 11457, Note_on_c, 0, 47, 0
2, 11520, Note_on_c, 0, 48, 120
2, 11520, Note_on_c, 0, 53, 120
2, 11520, Note_on_c, 0, 57, 120
2, 11520, Note_on_c, 0, 60, 120
2, 11907, Note_on_c, 0, 57, 0
2, 11917, Note_on_c, 0, 60, 0
2, 11922, Note_on_c, 0, 53, 0
2, 11937, Note_on_c, 0, 48, 0
2, 12000, Note_on_c, 0, 48, 120
2, 12000, Note_on_c, 0, 52, 120
2, 12000, Note_on_c, 0, 55, 120
2, 12000, Note_on_c, 0, 60, 120
2, 12397, Note_on_c, 0, 60, 0
2, 12397, Note_on_c, 0, 55, 0
2, 12409, Note_on_c, 0, 52, 0
2, 12417, Note_on_c, 0, 48, 0
2, 12480, Note_on_c, 0, 45, 120
2, 12480, Note_on_c, 0, 48, 120
2, 12480, Note_on_c, 0, 52, 120
2, 12480, Note_on_c, 0, 57, 120
2, 12877, Note_on_c, 0, 57, 0
2, 12882, Note_on_c, 0, 52, 0
2, 12890, Note_on_c, 0, 48, 0
2, 12897, Note_on_c, 0, 45, 0
2, 12960, Note_on_c, 0, 47, 120
2, 12960, Note_on_c, 0, 50, 120
2, 12960, Note_on_c, 0, 55, 120
2, 12960, Note_on_c, 0, 59, 120
2, 13357, Note_on_c, 0, 59, 0
2, 13363, Note_on_c, 0, 55, 0
2, 13371, Note_on_c, 0, 50, 0
2, 13377, Note_on_c, 0, 47, 0
2, 13440, Note_on_c, 0, 48, 120
2, 13440, Note_on_c, 0, 53, 120
2, 13440, Note_on_c, 0, 57, 120
2, 13440, Note_on_c, 0, 60, 120
2, 13827, Note_on_c, 0, 57, 0
2, 13837, Note_on_c, 0, 60, 0
2, 13842, Note_on_c, 0, 53, 0
2, 13857, Note_on_c, 0, 48, 0
2, 13920, Note_on_c, 0, 48, 120
2, 13920, Note_on_c, 0, 52, 120
2, 13920, Note_on_c, 0, 55, 120
2, 13920, Note_on_c, 0, 60, 120
2, 14317, Note_on_c, 0, 60, 0
2, 14317, Note_on_c, 0, 55, 0
2, 14329, Note_on_c, 0, 52, 0
2, 14337, Note_on_c, 0, 48, 0
2, 14400, Note_on_c, 0, 45, 120
2, 14400, Note_on_c, 0, 48, 120
2, 14400, Note_on_c, 0, 52, 120
2, 14400, Note_on_c, 0, 57, 120
2, 14797, Note_on_c, 0, 57, 0
2, 14802, Note_on_c, 0, 52, 0
2, 14810, Note_on_c, 0, 48, 0
2, 14817, Note_on_c, 0, 45, 0
2, 14880, Note_on_c, 0, 47, 120
2, 14880, Note_on_c, 0, 50, 120
2, 14880, Note_on_c, 0, 55, 120
2, 14880, Note_on_c, 0, 59, 120
2, 15277, Note_on_c, 0, 59, 0
2, 15283, Note_on_c, 0, 55, 0
2, 15291, Note_on_c, 0, 50, 0
2, 15297, Note_on_c, 0, 47, 0
2, 15360, Note_on_c, 0, 48, 120
2, 15360, Note_on_c, 0, 53, 120
2, 15360, Note_on_c, 0, 57, 120
2, 15360, Note_on_c, 0, 60, 120
2, 15747, Note_on_c, 0, 57, 0
2, 15757, Note_on_c, 0, 60, 0
2, 15762, Note_on_c, 0, 53, 0
2, 15777, Note_on_c, 0, 48, 0
2, 15840, Note_on_c, 0, 48, 120
2, 15840, Note_on_c, 0, 52, 120
2, 15840, Note_on_c, 0, 57, 120
2, 15840, Note_on_c, 0, 64, 120
2, 16257, Note_on_c, 0, 64, 0
2, 16257, Note_on_c, 0, 48, 0
2, 16257, Note_on_c, 0, 52, 0
2, 16257, Note_on_c, 0, 57, 0
2, 16320, Note_on_c, 0, 50, 120
2, 16320, Note_on_c, 0, 54, 120
2, 16320, Note_on_c, 0, 57, 120
2, 16320, Note_on_c, 0, 62, 120
2, 16737, Note_on_c, 0, 62, 0
2, 16737, Note_on_c, 0, 50, 0
2, 16737, Note_on_c, 0, 54, 0
2, 16737, Note_on_c, 0, 57, 0
2, 16800, Note_on_c, 0, 53, 120
2, 16800, Note_on_c, 0, 57, 120
2, 16800, Note_on_c, 0, 60, 120
2, 16800, Note_on_c, 0, 65, 120
2, 17217, Note_on_c, 0, 65, 0
2, 17217, Note_on_c, 0, 53, 0
2, 17217, Note_on_c, 0, 57, 0
2, 17217, Note_on_c, 0, 60, 0
2, 17280, Note_on_c, 0, 50, 120
2, 17280, Note_on_c, 0, 55, 120
2, 17280, Note_on_c, 0, 59, 120
2, 17280, Note_on_c, 0, 62, 120
2, 17697, Note_on_c, 0, 62, 0
2, 17697, Note_on_c, 0, 50, 0
2, 17697, Note_on_c, 0, 55, 0
2, 17697, Note_on_c, 0, 59, 0
2, 17760, Note_on_c, 0, 48, 120
2, 17760, Note_on_c, 0, 52, 120
2, 17760, Note_on_c, 0, 55, 120
2, 17760, Note_on_c, 0, 60, 120
2, 18157, Note_on_c, 0, 60, 0
2, 18157, Note_on_c, 0, 55, 0
2, 18169, Note_on_c, 0, 52, 0
2, 18177, Note_on_c, 0, 48, 0
2, 18240, Note_on_c, 0, 45, 120
2, 18240, Note_on_c, 0, 48, 120
2, 18240, Note_on_c, 0, 52, 120
2, 18240, Note_on_c, 0, 57, 120
2, 18637, Note_on_c, 0, 57, 0
2, 18642, Note_on_c, 0, 52, 0
2, 18650, Note_on_c, 0, 48, 0
2, 18657, Note_on_c, 0, 45, 0
2, 18720, Note_on_c, 0, 47, 120
2, 18720, Note_on_c, 0, 50, 120
2, 18720, Note_on_c, 0, 55, 120
2, 18720, Note_on_c, 0, 59, 120
2, 19117, Note_on_c, 0, 59, 0
2, 19123, Note_on_c, 0, 55, 0
2, 19131, Note_on_c, 0, 50, 0
2, 19137, Note_on_c, 0, 47, 0
2, 19200, Note_on_c, 0, 48, 120
2, 19200, Note_on_c, 0, 53, 120
2, 19200, Note_on_c, 0, 57, 120
2, 19200, Note_on_c, 0, 60, 120
2, 19587, Note_on_c, 0, 57, 0
2, 19597, Note_on_c, 0, 60, 0
2, 19602, Note_on_c, 0, 53, 0
2, 19617, Note_on_c, 0, 48, 0
2, 19680, Note_on_c, 0, 48, 120
2, 19680, Note_on_c, 0, 52, 120
2, 19680, Note_on_c, 0, 55, 120
2, 19680, Note_on_c, 0, 60, 120
2, 20077, Note_on_c, 0, 60, 0
2, 20077, Note_on_c, 0, 55, 0
2, 20089, Note_on_c, 0, 52, 0
2, 20097, Note_on_c, 0, 48, 0
2, 20160, Note_on_c, 0, 45, 120
2, 20160, Note_on_c, 0, 48, 120
2, 20160, Note_on_c, 0, 52, 120
2, 20160, Note_on_c, 0, 57, 120
2, 20557, Note_on_c, 0, 57, 0
2, 20562, Note_on_c, 0, 52, 0
2, 20570, Note_on_c, 0, 48, 0
2, 20577, Note_on_c, 0, 45, 0
2, 20640, Note_on_c, 0, 47, 120
2, 20640, Note_on_c, 0, 50, 120
2, 20640, Note_on_c, 0, 55, 120
2, 20645, Note_on_c, 0, 59, 120
2, 21042, Note_on_c, 0, 59, 0
2, 21043, Note_on_c, 0, 55, 0
2, 21051, Note_on_c, 0, 50, 0
2, 21057, Note_on_c, 0, 47, 0
2, 21120, Note_on_c, 0, 48, 120
2, 21120, Note_on_c, 0, 53, 120
2, 21120, Note_on_c, 0, 57, 120
2, 21120, Note_on_c, 0, 60, 120
2, 21537, Note_on_c, 0, 60, 0
2, 21537, Note_on_c, 0, 48, 0
2, 21537, Note_on_c, 0, 53, 0
2, 21537, Note_on_c, 0, 57, 0
2, 21600, Note_on_c, 0, 48, 120
2, 21600, Note_on_c, 0, 52, 120
2, 21600, Note_on_c, 0, 55, 120
2, 21600, Note_on_c, 0, 60, 120
2, 21997, Note_on_c, 0, 60, 0
2, 21997, Note_on_c, 0, 55, 0
2, 22009, Note_on_c, 0, 52, 0
2, 22017, Note_on_c, 0, 48, 0
2, 22080, Note_on_c, 0, 45, 120
2, 22080, Note_on_c, 0, 48, 120
2, 22080, Note_on_c, 0, 52, 120
2, 22080, Note_on_c, 0, 57, 120
2, 22477, Note_on_c, 0, 57, 0
2, 22482, Note_on_c, 0, 52, 0
2, 22490, Note_on_c, 0, 48, 0
2, 22497, Note_on_c, 0, 45, 0
2, 22560, Note_on_c, 0, 47, 120
2, 22560, Note_on_c, 0, 50, 120
2, 22560, Note_on_c, 0, 55, 120
2, 22560, Note_on_c, 0, 59, 120
2, 22957, Note_on_c, 0, 59, 0
2, 22963, Note_on_c, 0, 55, 0
2, 22971, Note_on_c, 0, 50, 0
2, 22977, Note_on_c, 0, 47, 0
2, 23040, Note_on_c, 0, 48, 120
2, 23040, Note_on_c, 0, 53, 120
2, 23040, Note_on_c, 0, 57, 120
2, 23040, Note_on_c, 0, 60, 120
2, 23457, Note_on_c, 0, 60, 0
2, 23457, Note_on_c, 0, 48, 0
2, 23457, Note_on_c, 0, 53, 0
2, 23457, Note_on_c, 0, 57, 0
2, 23520, Note_on_c, 0, 48, 120
2, 23520, Note_on_c, 0, 52, 120
2, 23520, Note_on_c, 0, 55, 120
2, 23520, Note_on_c, 0, 60, 120
2, 23917, Note_on_c, 0, 60, 0
2, 23917, Note_on_c, 0, 55, 0
2, 23929, Note_on_c, 0, 52, 0
2, 23937, Note_on_c, 0, 48, 0
2, 24000, Note_on_c, 0, 45, 120
2, 24000, Note_on_c, 0, 48, 120
2, 24000, Note_on_c, 0, 52, 120
2, 24000, Note_on_c, 0, 57, 120
2, 24397, Note_on_c, 0, 57, 0
2, 24402, Note_on_c, 0, 52, 0
2, 24410, Note_on_c, 0, 48, 0
2, 24417, Note_on_c, 0, 45, 0
2, 24480, Note_on_c, 0, 47, 120
2, 24480, Note_on_c, 0, 50, 120
2, 24480, Note_on_c, 0, 55, 120
2, 24480, Note_on_c, 0, 59, 120
2, 24877, Note_on_c, 0, 59, 0
2, 24883, Note_on_c, 0, 55, 0
2, 24891, Note_on_c, 0, 50, 0
2, 24897, Note_on_c, 0, 47, 0
2, 24960, Note_on_c, 0, 48, 120
2, 24960, Note_on_c, 0, 53, 120
2, 24960, Note_on_c, 0, 57, 120
2, 24960, Note_on_c, 0, 60, 120
2, 25377, Note_on_c, 0, 60, 0
2, 25377, Note_on_c, 0, 48, 0
2, 25377, Note_on_c, 0, 53, 0
2, 25377, Note_on_c, 0, 57, 0
2, 25440, Note_on_c, 0, 48, 120
2, 25440, Note_on_c, 0, 52, 120
2, 25440, Note_on_c, 0, 57, 120
2, 25440, Note_on_c, 0, 64, 120
2, 25857, Note_on_c, 0, 64, 0
2, 25857, Note_on_c, 0, 48, 0
2, 25857, Note_on_c, 0, 52, 0
2, 25857, Note_on_c, 0, 57, 0
2, 25920, Note_on_c, 0, 50, 120
2, 25920, Note_on_c, 0, 54, 120
2, 25920, Note_on_c, 0, 57, 120
2, 25920, Note_on_c, 0, 62, 120
2, 26337, Note_on_c, 0, 62, 0
2, 26337, Note_on_c, 0, 50, 0
2, 26337, Note_on_c, 0, 54, 0
2, 26337, Note_on_c, 0, 57, 0
2, 26400, Note_on_c, 0, 53, 120
2, 26400, Note_on_c, 0, 57, 120
2, 26400, Note_on_c, 0, 60, 120
2, 26400, Note_on_c, 0, 65, 120
2, 26817, Note_on_c, 0, 65, 0
2, 26817, Note_on_c, 0, 53, 0
2, 26817, Note_on_c, 0, 57, 0
2, 26817, Note_on_c, 0, 60, 0
2, 26880, Note_on_c, 0, 50, 120
2, 26880, Note_on_c, 0, 55, 120
2, 26880, Note_on_c, 0, 59, 120
2, 26880, Note_on_c, 0, 62, 120
2, 27297, Note_on_c, 0, 62, 0
2, 27297, Note_on_c, 0, 50, 0
2, 27297, Note_on_c, 0, 55, 0
2, 27297, Note_on_c, 0, 59, 0
2, 27360, Note_on_c, 0, 48, 120
2, 27360, Note_on_c, 0, 52, 120
2, 27360, Note_on_c, 0, 55, 120
2, 27360, Note_on_c, 0, 60, 120
2, 27757, Note_on_c, 0, 60, 0
2, 27757, Note_on_c, 0, 55, 0
2, 27769, Note_on_c, 0, 52, 0
2, 27777, Note_on_c, 0, 48, 0
2, 27840, Note_on_c, 0, 45, 120
2, 27840, Note_on_c, 0, 48, 120
2, 27840, Note_on_c, 0, 52, 120
2, 27840, Note_on_c, 0, 57, 120
2, 28237, Note_on_c, 0, 57, 0
2, 28242, Note_on_c, 0, 52, 0
2, 28250, Note_on_c, 0, 48, 0
2, 28257, Note_on_c, 0, 45, 0
2, 28320, Note_on_c, 0, 47, 120
2, 28320, Note_on_c, 0, 50, 120
2, 28320, Note_on_c, 0, 55, 120
2, 28320, Note_on_c, 0, 59, 120
2, 28717, Note_on_c, 0, 59, 0
2, 28723, Note_on_c, 0, 55, 0
2, 28731, Note_on_c, 0, 50, 0
2, 28737, Note_on_c, 0, 47, 0
2, 28800, Note_on_c, 0, 48, 120
2, 28800, Note_on_c, 0, 53, 120
2, 28800, Note_on_c, 0, 57, 120
2, 28800, Note_on_c, 0, 60, 120
2, 29217, Note_on_c, 0, 60, 0
2, 29217, Note_on_c, 0, 48, 0
2, 29217, Note_on_c, 0, 53, 0
2, 29217, Note_on_c, 0, 57, 0
2, 29280, Note_on_c, 0, 48, 120
2, 29280, Note_on_c, 0, 52, 120
2, 29280, Note_on_c, 0, 55, 120
2, 29280, Note_on_c, 0, 60, 120
2, 29677, Note_on_c, 0, 60, 0
2, 29677, Note_on_c, 0, 55, 0
2, 29689, Note_on_c, 0, 52, 0
2, 29697, Note_on_c, 0, 48, 0
2, 29760, Note_on_c, 0, 45, 120
2, 29760, Note_on_c, 0, 48, 120
2, 29760, Note_on_c, 0, 52, 120
2, 29760, Note_on_c, 0, 57, 120
2, 30157, Note_on_c, 0, 57, 0
2, 30162, Note_on_c, 0, 52, 0
2, 30170, Note_on_c, 0, 48, 0
2, 30177, Note_on_c, 0, 45, 0
2, 30240, Note_on_c, 0, 47, 120
2, 30240, Note_on_c, 0, 50, 120
2, 30240, Note_on_c, 0, 55, 120
2, 30240, Note_on_c, 0, 59, 120
2, 30637, Note_on_c, 0, 59, 0
2, 30643, Note_on_c, 0, 55, 0
2, 30651, Note_on_c, 0, 50, 0
2, 30657, Note_on_c, 0, 47, 0
2, 30720, Note_on_c, 0, 48, 120
2, 30720, Note_on_c, 0, 53, 120
2, 30720, Note_on_c, 0, 57, 120
2, 30720, Note_on_c, 0, 60, 120
2, 31137, Note_on_c, 0, 60, 0
2, 31137, Note_on_c, 0, 48, 0
2, 31137, Note_on_c, 0, 53, 0
2, 31137, Note_on_c, 0, 57, 0
2, 31200, Note_on_c, 0, 48, 120
2, 31200, Note_on_c, 0, 52, 120
2, 31200, Note_on_c, 0, 55, 120
2, 31200, Note_on_c, 0, 60, 120
2, 31597, Note_on_c, 0, 60, 0
2, 31597, Note_on_c, 0, 55, 0
2, 31609, Note_on_c, 0, 52, 0
2, 31617, Note_on_c, 0, 48, 0
2, 31680, Note_on_c, 0, 45, 120
2, 31680, Note_on_c, 0, 48, 120
2, 31680, Note_on_c, 0, 52, 120
2, 31680, Note_on_c, 0, 57, 120
2, 32077, Note_on_c, 0, 57, 0
2, 32082, Note_on_c, 0, 52, 0
2, 32090, Note_on_c, 0, 48, 0
2, 32097, Note_on_c, 0, 45, 0
2, 32160, Note_on_c, 0, 47, 120
2, 32160, Note_on_c, 0, 50, 120
2, 32160, Note_on_c, 0, 55, 120
2, 32160, Note_on_c, 0, 59, 120
2, 32557, Note_on_c, 0, 59, 0
2, 32563, Note_on_c, 0, 55, 0
2, 32571, Note_on_c, 0, 50, 0
2, 32577, Note_on_c, 0, 47, 0
2, 32640, Note_on_c, 0, 48, 120
2, 32640, Note_on_c, 0, 53, 120
2, 32640, Note_on_c, 0, 57, 120
2, 32640, Note_on_c, 0, 60, 120
2, 33057, Note_on_c, 0, 60, 0
2, 33057, Note_on_c, 0, 48, 0
2, 33057, Note_on_c, 0, 53, 0
2, 33057, Note_on_c, 0, 57, 0
2, 33120, Note_on_c, 0, 48, 120
2, 33120, Note_on_c, 0, 52, 120
2, 33120, Note_on_c, 0, 55, 120
2, 33120, Note_on_c, 0, 60, 120
2, 33517, Note_on_c, 0, 60, 0
2, 33517, Note_on_c, 0, 55, 0
2, 33529, Note_on_c, 0, 52, 0
2, 33537, Note_on_c, 0, 48, 0
2, 33600, Note_on_c, 0, 45, 120
2, 33600, Note_on_c, 0, 48, 120
2, 33600, Note_on_c, 0, 52, 120
2, 33600, Note_on_c, 0, 57, 120
2, 33997, Note_on_c, 0, 57, 0
2, 34002, Note_on_c, 0, 52, 0
2, 34010, Note_on_c, 0, 48, 0
2, 34017, Note_on_c, 0, 45, 0
2, 34080, Note_on_c, 0, 47, 120
2, 34080, Note_on_c, 0, 50, 120
2, 34080, Note_on_c, 0, 55, 120
2, 34080, Note_on_c, 0, 59, 120
2, 34477, Note_on_c, 0, 59, 0
2, 34483, Note_on_c, 0, 55, 0
2, 34491, Note_on_c, 0, 50, 0
2, 34497, Note_on_c, 0, 47, 0
2, 34560, Note_on_c, 0, 48, 120
2, 34560, Note_on_c, 0, 53, 120
2, 34560, Note_on_c, 0, 53, 120
2, 34560, Note_on_c, 0, 57, 120
2, 34560, Note_on_c, 0, 57, 120
2, 34560, Note_on_c, 0, 60, 120
2, 34560, Note_on_c, 0, 60, 120
2, 34977, Note_on_c, 0, 60, 0
2, 34977, Note_on_c, 0, 57, 0
2, 34977, Note_on_c, 0, 53, 0
2, 34977, Note_on_c, 0, 53, 0
2, 34977, Note_on_c, 0, 48, 0
2, 34977, Note_on_c, 0, 60, 0
2, 34977, Note_on_c, 0, 57, 0
2, 34977, End_track
3, 0, Start_track
3, 0, MIDI_port, 0
3, 0, Title_t, "Track 2"
3, 0, Program_c, 1, 35
3, 0, Control_c, 1, 7, 109
3, 480, Note_on_c, 1, 36, 110
3, 599, Note_on_c, 1, 36, 0
3, 660, Note_on_c, 1, 31, 110
3, 690, Note_on_c, 1, 33, 110
3, 691, Note_on_c, 1, 31, 0
3, 720, Note_on_c, 1, 33, 0
3, 720, Note_on_c, 1, 36, 110
3, 753, Note_on_c, 1, 36, 0
3, 780, Note_on_c, 1, 36, 110
3, 900, Note_on_c, 1, 31, 110
3, 901, Note_on_c, 1, 36, 0
3, 933, Note_on_c, 1, 31, 0
3, 960, Note_on_c, 1, 33, 110
3, 1083, Note_on_c, 1, 33, 0
3, 1140, Note_on_c, 1, 28, 110
3, 1170, Note_on_c, 1, 30, 110
3, 1171, Note_on_c, 1, 28, 0
3, 1200, Note_on_c, 1, 33, 110
3, 1203, Note_on_c, 1, 30, 0
3, 1233, Note_on_c, 1, 33, 0
3, 1260, Note_on_c, 1, 33, 110
3, 1380, Note_on_c, 1, 29, 110
3, 1387, Note_on_c, 1, 33, 0
3, 1413, Note_on_c, 1, 29, 0
3, 1440, Note_on_c, 1, 31, 110
3, 1560, Note_on_c, 1, 31, 0
3, 1620, Note_on_c, 1, 26, 110
3, 1650, Note_on_c, 1, 28, 110
3, 1651, Note_on_c, 1, 26, 0
3, 1680, Note_on_c, 1, 31, 110
3, 1685, Note_on_c, 1, 28, 0
3, 1713, Note_on_c, 1, 31, 0
3, 1740, Note_on_c, 1, 31, 110
3, 1852, Note_on_c, 1, 31, 0
3, 1860, Note_on_c, 1, 31, 110
3, 1893, Note_on_c, 1, 31, 0
3, 1920, Note_on_c, 1, 29, 110
3, 2279, Note_on_c, 1, 29, 0
3, 2400, Note_on_c, 1, 36, 110
3, 2519, Note_on_c, 1, 36, 0
3, 2580, Note_on_c, 1, 31, 110
3, 2610, Note_on_c, 1, 33, 110
3, 2611, Note_on_c, 1, 31, 0
3, 2640, Note_on_c, 1, 33, 0
3, 2640, Note_on_c, 1, 36, 110
3, 2673, Note_on_c, 1, 36, 0
3, 2700, Note_on_c, 1, 36, 110
3, 2820, Note_on_c, 1, 31, 110
3, 2821, Note_on_c, 1, 36, 0
3, 2853, Note_on_c, 1, 31, 0
3, 2880, Note_on_c, 1, 33, 110
3, 3003, Note_on_c, 1, 33, 0
3, 3060, Note_on_c, 1, 28, 110
3, 3090, Note_on_c, 1, 30, 110
3, 3091, Note_on_c, 1, 28, 0
3, 3120, Note_on_c, 1, 33, 110
3, 3123, Note_on_c, 1, 30, 0
3, 3153, Note_on_c, 1, 33, 0
3, 3180, Note_on_c, 1, 33, 110
3, 3300, Note_on_c, 1, 29, 110
3, 3307, Note_on_c, 1, 33, 0
3, 3333, Note_on_c, 1, 29, 0
3, 3360, Note_on_c, 1, 31, 110
3, 3480, Note_on_c, 1, 31, 0
3, 3540, Note_on_c, 1, 26, 110
3, 3570, Note_on_c, 1, 28, 110
3, 3571, Note_on_c, 1, 26, 0
3, 3600, Note_on_c, 1, 31, 110
3, 3605, Note_on_c, 1, 28, 0
3, 3633, Note_on_c, 1, 31, 0
3, 3660, Note_on_c, 1, 31, 110
3, 3772, Note_on_c, 1, 31, 0
3, 3780, Note_on_c, 1, 31, 110
3, 3813, Note_on_c, 1, 31, 0
3, 3840, Note_on_c, 1, 29, 110
3, 3960, Note_on_c, 1, 29, 0
3, 4020, Note_on_c, 1, 24, 110
3, 4050, Note_on_c, 1, 26, 110
3, 4051, Note_on_c, 1, 24, 0
3, 4080, Note_on_c, 1, 29, 110
3, 4085, Note_on_c, 1, 26, 0
3, 4113, Note_on_c, 1, 29, 0
3, 4140, Note_on_c, 1, 29, 110
3, 4260, Note_on_c, 1, 31, 110
3, 4264, Note_on_c, 1, 29, 0
3, 4291, Note_on_c, 1, 31, 0
3, 4320, Note_on_c, 1, 36, 110
3, 4439, Note_on_c, 1, 36, 0
3, 4500, Note_on_c, 1, 31, 110
3, 4530, Note_on_c, 1, 33, 110
3, 4531, Note_on_c, 1, 31, 0
3, 4560, Note_on_c, 1, 33, 0
3, 4560, Note_on_c, 1, 36, 110
3, 4593, Note_on_c, 1, 36, 0
3, 4620, Note_on_c, 1, 36, 110
3, 4740, Note_on_c, 1, 31, 110
3, 4741, Note_on_c, 1, 36, 0
3, 4773, Note_on_c, 1, 31, 0
3, 4800, Note_on_c, 1, 33, 110
3, 4923, Note_on_c, 1, 33, 0
3, 4980, Note_on_c, 1, 28, 110
3, 5010, Note_on_c, 1, 30, 110
3, 5011, Note_on_c, 1, 28, 0
3, 5040, Note_on_c, 1, 33, 110
3, 5043, Note_on_c, 1, 30, 0
3, 5073, Note_on_c, 1, 33, 0
3, 5100, Note_on_c, 1, 33, 110
3, 5220, Note_on_c, 1, 29, 110
3, 5227, Note_on_c, 1, 33, 0
3, 5253, Note_on_c, 1, 29, 0
3, 5280, Note_on_c, 1, 31, 110
3, 5400, Note_on_c, 1, 31, 0
3, 5460, Note_on_c, 1, 26, 110
3, 5490, Note_on_c, 1, 28, 110
3, 5491, Note_on_c, 1, 26, 0
3, 5520, Note_on_c, 1, 31, 110
3, 5525, Note_on_c, 1, 28, 0
3, 5553, Note_on_c, 1, 31, 0
3, 5580, Note_on_c, 1, 31, 110
3, 5692, Note_on_c, 1, 31, 0
3, 5700, Note_on_c, 1, 31, 110
3, 5733, Note_on_c, 1, 31, 0
3, 5760, Note_on_c, 1, 29, 110
3, 5880, Note_on_c, 1, 29, 0
3, 5940, Note_on_c, 1, 24, 110
3, 5970, Note_on_c, 1, 26, 110
3, 5971, Note_on_c, 1, 24, 0
3, 6000, Note_on_c, 1, 29, 110
3, 6005, Note_on_c, 1, 26, 0
3, 6033, Note_on_c, 1, 29, 0
3, 6060, Note_on_c, 1, 29, 110
3, 6180, Note_on_c, 1, 31, 110
3, 6184, Note_on_c, 1, 29, 0
3, 6211, Note_on_c, 1, 31, 0
3, 6240, Note_on_c, 1, 33, 110
3, 6598, Note_on_c, 1, 33, 0
3, 6720, Note_on_c, 1, 38, 110
3, 7078, Note_on_c, 1, 38, 0
3, 7200, Note_on_c, 1, 41, 110
3, 7558, Note_on_c, 1, 41, 0
3, 7680, Note_on_c, 1, 43, 110
3, 8038, Note_on_c, 1, 43, 0
3, 8160, Note_on_c, 1, 36, 110
3, 8279, Note_on_c, 1, 36, 0
3, 8340, Note_on_c, 1, 31, 110
3, 8370, Note_on_c, 1, 33, 110
3, 8371, Note_on_c, 1, 31, 0
3, 8400, Note_on_c, 1, 33, 0
3, 8400, Note_on_c, 1, 36, 110
3, 8433, Note_on_c, 1, 36, 0
3, 8460, Note_on_c, 1, 36, 110
3, 8580, Note_on_c, 1, 31, 110
3, 8581, Note_on_c, 1, 36, 0
3, 8613, Note_on_c, 1, 31, 0
3, 8640, Note_on_c, 1, 33, 110
3, 8763, Note_on_c, 1, 33, 0
3, 8820, Note_on_c, 1, 28, 110
3, 8850, Note_on_c, 1, 30, 110
3, 8851, Note_on_c, 1, 28, 0
3, 8880, Note_on_c, 1, 33, 110
3, 8883, Note_on_c, 1, 30, 0
3, 8913, Note_on_c, 1, 33, 0
3, 8940, Note_on_c, 1, 33, 110
3, 9060, Note_on_c, 1, 29, 110
3, 9067, Note_on_c, 1, 33, 0
3, 9093, Note_on_c, 1, 29, 0
3, 9120, Note_on_c, 1, 31, 110
3, 9240, Note_on_c, 1, 31, 0
3, 9300, Note_on_c, 1, 26, 110
3, 9330, Note_on_c, 1, 28, 110
3, 9331, Note_on_c, 1, 26, 0
3, 9360, Note_on_c, 1, 31, 110
3, 9365, Note_on_c, 1, 28, 0
3, 9393, Note_on_c, 1, 31, 0
3, 9420, Note_on_c, 1, 31, 110
3, 9532, Note_on_c, 1, 31, 0
3, 9540, Note_on_c, 1, 31, 110
3, 9573, Note_on_c, 1, 31, 0
3, 9600, Note_on_c, 1, 29, 110
3, 9720, Note_on_c, 1, 29, 0
3, 9780, Note_on_c, 1, 24, 110
3, 9810, Note_on_c, 1, 26, 110
3, 9811, Note_on_c, 1, 24, 0
3, 9840, Note_on_c, 1, 29, 110
3, 9845, Note_on_c, 1, 26, 0
3, 9873, Note_on_c, 1, 29, 0
3, 9900, Note_on_c, 1, 29, 110
3, 10020, Note_on_c, 1, 31, 110
3, 10024, Note_on_c, 1, 29, 0
3, 10051, Note_on_c, 1, 31, 0
3, 10080, Note_on_c, 1, 36, 110
3, 10199, Note_on_c, 1, 36, 0
3, 10260, Note_on_c, 1, 31, 110
3, 10290, Note_on_c, 1, 33, 110
3, 10291, Note_on_c, 1, 31, 0
3, 10320, Note_on_c, 1, 33, 0
3, 10320, Note_on_c, 1, 36, 110
3, 10353, Note_on_c, 1, 36, 0
3, 10380, Note_on_c, 1, 36, 110
3, 10500, Note_on_c, 1, 31, 110
3, 10501, Note_on_c, 1, 36, 0
3, 10533, Note_on_c, 1, 31, 0
3, 10560, Note_on_c, 1, 33, 110
3, 10683, Note_on_c, 1, 33, 0
3, 10740, Note_on_c, 1, 28, 110
3, 10770, Note_on_c, 1, 30, 110
3, 10771, Note_on_c, 1, 28, 0
3, 10800, Note_on_c, 1, 33, 110
3, 10803, Note_on_c, 1, 30, 0
3, 10833, Note_on_c, 1, 33, 0
3, 10860, Note_on_c, 1, 33, 110
3, 10980, Note_on_c, 1, 29, 110
3, 10987, Note_on_c, 1, 33, 0
3, 11013, Note_on_c, 1, 29, 0
3, 11040, Note_on_c, 1, 31, 110
3, 11160, Note_on_c, 1, 31, 0
3, 11220, Note_on_c, 1, 26, 110
3, 11250, Note_on_c, 1, 28, 110
3, 11251, Note_on_c, 1, 26, 0
3, 11280, Note_on_c, 1, 31, 110
3, 11285, Note_on_c, 1, 28, 0
3, 11313, Note_on_c, 1, 31, 0
3, 11340, Note_on_c, 1, 31, 110
3, 11452, Note_on_c, 1, 31, 0
3, 11460, Note_on_c, 1, 31, 110
3, 11493, Note_on_c, 1, 31, 0
3, 11520, Note_on_c, 1, 29, 110
3, 11640, Note_on_c, 1, 29, 0
3, 11700, Note_on_c, 1, 24, 110
3, 11730, Note_on_c, 1, 26, 110
3, 11731, Note_on_c, 1, 24, 0
3, 11760, Note_on_c, 1, 29, 110
3, 11765, Note_on_c, 1, 26, 0
3, 11793, Note_on_c, 1, 29, 0
3, 11820, Note_on_c, 1, 29, 110
3, 11940, Note_on_c, 1, 31, 110
3, 11944, Note_on_c, 1, 29, 0
3, 11971, Note_on_c, 1, 31, 0
3, 12000, Note_on_c, 1, 36, 110
3, 12119, Note_on_c, 1, 36, 0
3, 12180, Note_on_c, 1, 31, 110
3, 12210, Note_on_c, 1, 33, 110
3, 12211, Note_on_c, 1, 31, 0
3, 12240, Note_on_c, 1, 33, 0
3, 12240, Note_on_c, 1, 36, 110
3, 12273, Note_on_c, 1, 36, 0
3, 12300, Note_on_c, 1, 36, 110
3, 12420, Note_on_c, 1, 31, 110
3, 12421, Note_on_c, 1, 36, 0
3, 12453, Note_on_c, 1, 31, 0
3, 12480, Note_on_c, 1, 33, 110
3, 12603, Note_on_c, 1, 33, 0
3, 12660, Note_on_c, 1, 28, 110
3, 12690, Note_on_c, 1, 30, 110
3, 12691, Note_on_c, 1, 28, 0
3, 12720, Note_on_c, 1, 33, 110
3, 12723, Note_on_c, 1, 30, 0
3, 12753, Note_on_c, 1, 33, 0
3, 12780, Note_on_c, 1, 33, 110
3, 12900, Note_on_c, 1, 29, 110
3, 12907, Note_on_c, 1, 33, 0
3, 12933, Note_on_c, 1, 29, 0
3, 12960, Note_on_c, 1, 31, 110
3, 13080, Note_on_c, 1, 31, 0
3, 13140, Note_on_c, 1, 26, 110
3, 13170, Note_on_c, 1, 28, 110
3, 13171, Note_on_c, 1, 26, 0
3, 13200, Note_on_c, 1, 31, 110
3, 13205, Note_on_c, 1, 28, 0
3, 13233, Note_on_c, 1, 31, 0
3, 13260, Note_on_c, 1, 31, 110
3, 13372, Note_on_c, 1, 31, 0
3, 13380, Note_on_c, 1, 31, 110
3, 13413, Note_on_c, 1, 31, 0
3, 13440, Note_on_c, 1, 29, 110
3, 13560, Note_on_c, 1, 29, 0
3, 13620, Note_on_c, 1, 24, 110
3, 13650, Note_on_c, 1, 26, 110
3, 13651, Note_on_c, 1, 24, 0
3, 13680, Note_on_c, 1, 29, 110
3, 13685, Note_on_c, 1, 26, 0
3, 13713, Note_on_c, 1, 29, 0
3, 13740, Note_on_c, 1, 29, 110
3, 13860, Note_on_c, 1, 31, 110
3, 13864, Note_on_c, 1, 29, 0
3, 13891, Note_on_c, 1, 31, 0
3, 13920, Note_on_c, 1, 36, 110
3, 14039, Note_on_c, 1, 36, 0
3, 14100, Note_on_c, 1, 31, 110
3, 14130, Note_on_c, 1, 33, 110
3, 14131, Note_on_c, 1, 31, 0
3, 14160, Note_on_c, 1, 33, 0
3, 14160, Note_on_c, 1, 36, 110
3, 14193, Note_on_c, 1, 36, 0
3, 14220, Note_on_c, 1, 36, 110
3, 14340, Note_on_c, 1, 31, 110
3, 14341, Note_on_c, 1, 36, 0
3, 14373, Note_on_c, 1, 31, 0
3, 14400, Note_on_c, 1, 33, 110
3, 14523, Note_on_c, 1, 33, 0
3, 14580, Note_on_c, 1, 28, 110
3, 14610, Note_on_c, 1, 30, 110
3, 14611, Note_on_c, 1, 28, 0
3, 14640, Note_on_c, 1, 33, 110
3, 14643, Note_on_c, 1, 30, 0
3, 14673, Note_on_c, 1, 33, 0
3, 14700, Note_on_c, 1, 33, 110
3, 14820, Note_on_c, 1, 29, 110
3, 14827, Note_on_c, 1, 33, 0
3, 14853, Note_on_c, 1, 29, 0
3, 14880, Note_on_c, 1, 31, 110
3, 15000, Note_on_c, 1, 31, 0
3, 15060, Note_on_c, 1, 26, 110
3, 15090, Note_on_c, 1, 28, 110
3, 15091, Note_on_c, 1, 26, 0
3, 15120, Note_on_c, 1, 31, 110
3, 15125, Note_on_c, 1, 28, 0
3, 15153, Note_on_c, 1, 31, 0
3, 15180, Note_on_c, 1, 31, 110
3, 15292, Note_on_c, 1, 31, 0
3, 15300, Note_on_c, 1, 31, 110
3, 15333, Note_on_c, 1, 31, 0
3, 15360, Note_on_c, 1, 29, 110
3, 15480, Note_on_c, 1, 29, 0
3, 15540, Note_on_c, 1, 24, 110
3, 15570, Note_on_c, 1, 26, 110
3, 15571, Note_on_c, 1, 24, 0
3, 15600, Note_on_c, 1, 29, 110
3, 15605, Note_on_c, 1, 26, 0
3, 15633, Note_on_c, 1, 29, 0
3, 15660, Note_on_c, 1, 29, 110
3, 15780, Note_on_c, 1, 31, 110
3, 15784, Note_on_c, 1, 29, 0
3, 15811, Note_on_c, 1, 31, 0
3, 15840, Note_on_c, 1, 33, 110
3, 15959, Note_on_c, 1, 33, 0
3, 16020, Note_on_c, 1, 28, 110
3, 16050, Note_on_c, 1, 30, 110
3, 16051, Note_on_c, 1, 28, 0
3, 16080, Note_on_c, 1, 30, 0
3, 16080, Note_on_c, 1, 33, 110
3, 16113, Note_on_c, 1, 33, 0
3, 16140, Note_on_c, 1, 33, 110
3, 16260, Note_on_c, 1, 29, 110
3, 16261, Note_on_c, 1, 33, 0
3, 16293, Note_on_c, 1, 29, 0
3, 16320, Note_on_c, 1, 38, 110
3, 16443, Note_on_c, 1, 38, 0
3, 16500, Note_on_c, 1, 33, 110
3, 16530, Note_on_c, 1, 35, 110
3, 16531, Note_on_c, 1, 33, 0
3, 16560, Note_on_c, 1, 38, 110
3, 16563, Note_on_c, 1, 35, 0
3, 16593, Note_on_c, 1, 38, 0
3, 16620, Note_on_c, 1, 38, 110
3, 16740, Note_on_c, 1, 35, 110
3, 16747, Note_on_c, 1, 38, 0
3, 16773, Note_on_c, 1, 35, 0
3, 16800, Note_on_c, 1, 29, 110
3, 17075, Note_on_c, 1, 29, 0
3, 17100, Note_on_c, 1, 28, 110
3, 17156, Note_on_c, 1, 28, 0
3, 17160, Note_on_c, 1, 29, 110
3, 17217, Note_on_c, 1, 29, 0
3, 17220, Note_on_c, 1, 30, 110
3, 17276, Note_on_c, 1, 30, 0
3, 17280, Note_on_c, 1, 31, 110
3, 17637, Note_on_c, 1, 31, 0
3, 17700, Note_on_c, 1, 31, 110
3, 17733, Note_on_c, 1, 31, 0
3, 17760, Note_on_c, 1, 36, 110
3, 17879, Note_on_c, 1, 36, 0
3, 17940, Note_on_c, 1, 31, 110
3, 17970, Note_on_c, 1, 33, 110
3, 17971, Note_on_c, 1, 31, 0
3, 18000, Note_on_c, 1, 33, 0
3, 18000, Note_on_c, 1, 36, 110
3, 18033, Note_on_c, 1, 36, 0
3, 18060, Note_on_c, 1, 36, 110
3, 18180, Note_on_c, 1, 31, 110
3, 18181, Note_on_c, 1, 36, 0
3, 18213, Note_on_c, 1, 31, 0
3, 18240, Note_on_c, 1, 33, 110
3, 18363, Note_on_c, 1, 33, 0
3, 18420, Note_on_c, 1, 28, 110
3, 18450, Note_on_c, 1, 30, 110
3, 18451, Note_on_c, 1, 28, 0
3, 18480, Note_on_c, 1, 33, 110
3, 18483, Note_on_c, 1, 30, 0
3, 18513, Note_on_c, 1, 33, 0
3, 18540, Note_on_c, 1, 33, 110
3, 18660, Note_on_c, 1, 29, 110
3, 18667, Note_on_c, 1, 33, 0
3, 18693, Note_on_c, 1, 29, 0
3, 18720, Note_on_c, 1, 31, 110
3, 18840, Note_on_c, 1, 31, 0
3, 18900, Note_on_c, 1, 26, 110
3, 18930, Note_on_c, 1, 28, 110
3, 18931, Note_on_c, 1, 26, 0
3, 18960, Note_on_c, 1, 31, 110
3, 18965, Note_on_c, 1, 28, 0
3, 18993, Note_on_c, 1, 31, 0
3, 19020, Note_on_c, 1, 31, 110
3, 19132, Note_on_c, 1, 31, 0
3, 19140, Note_on_c, 1, 31, 110
3, 19173, Note_on_c, 1, 31, 0
3, 19200, Note_on_c, 1, 29, 110
3, 19320, Note_on_c, 1, 29, 0
3, 19380, Note_on_c, 1, 24, 110
3, 19410, Note_on_c, 1, 26, 110
3, 19411, Note_on_c, 1, 24, 0
3, 19440, Note_on_c, 1, 29, 110
3, 19445, Note_on_c, 1, 26, 0
3, 19473, Note_on_c, 1, 29, 0
3, 19500, Note_on_c, 1, 29, 110
3, 19620, Note_on_c, 1, 31, 110
3, 19624, Note_on_c, 1, 29, 0
3, 19651, Note_on_c, 1, 31, 0
3, 19680, Note_on_c, 1, 36, 110
3, 19799, Note_on_c, 1, 36, 0
3, 19860, Note_on_c, 1, 31, 110
3, 19890, Note_on_c, 1, 33, 110
3, 19891, Note_on_c, 1, 31, 0
3, 19920, Note_on_c, 1, 33, 0
3, 19920, Note_on_c, 1, 36, 110
3, 19953, Note_on_c, 1, 36, 0
3, 19980, Note_on_c, 1, 36, 110
3, 20100, Note_on_c, 1, 31, 110
3, 20101, Note_on_c, 1, 36, 0
3, 20133, Note_on_c, 1, 31, 0
3, 20160, Note_on_c, 1, 33, 110
3, 20283, Note_on_c, 1, 33, 0
3, 20340, Note_on_c, 1, 28, 110
3, 20370, Note_on_c, 1, 30, 110
3, 20371, Note_on_c, 1, 28, 0
3, 20400, Note_on_c, 1, 33, 110
3, 20403, Note_on_c, 1, 30, 0
3, 20433, Note_on_c, 1, 33, 0
3, 20460, Note_on_c, 1, 33, 110
3, 20580, Note_on_c, 1, 29, 110
3, 20587, Note_on_c, 1, 33, 0
3, 20613, Note_on_c, 1, 29, 0
3, 20640, Note_on_c, 1, 31, 110
3, 20760, Note_on_c, 1, 31, 0
3, 20820, Note_on_c, 1, 26, 110
3, 20850, Note_on_c, 1, 28, 110
3, 20851, Note_on_c, 1, 26, 0
3, 20880, Note_on_c, 1, 31, 110
3, 20885, Note_on_c, 1, 28, 0
3, 20913, Note_on_c, 1, 31, 0
3, 20940, Note_on_c, 1, 31, 110
3, 21052, Note_on_c, 1, 31, 0
3, 21060, Note_on_c, 1, 31, 110
3, 21093, Note_on_c, 1, 31, 0
3, 21120, Note_on_c, 1, 29, 110
3, 21240, Note_on_c, 1, 29, 0
3, 21300, Note_on_c, 1, 24, 110
3, 21330, Note_on_c, 1, 26, 110
3, 21331, Note_on_c, 1, 24, 0
3, 21360, Note_on_c, 1, 29, 110
3, 21365, Note_on_c, 1, 26, 0
3, 21393, Note_on_c, 1, 29, 0
3, 21420, Note_on_c, 1, 29, 110
3, 21540, Note_on_c, 1, 31, 110
3, 21544, Note_on_c, 1, 29, 0
3, 21571, Note_on_c, 1, 31, 0
3, 21600, Note_on_c, 1, 36, 110
3, 21719, Note_on_c, 1, 36, 0
3, 21780, Note_on_c, 1, 31, 110
3, 21810, Note_on_c, 1, 33, 110
3, 21811, Note_on_c, 1, 31, 0
3, 21840, Note_on_c, 1, 33, 0
3, 21840, Note_on_c, 1, 36, 110
3, 21873, Note_on_c, 1, 36, 0
3, 21900, Note_on_c, 1, 36, 110
3, 22020, Note_on_c, 1, 31, 110
3, 22021, Note_on_c, 1, 36, 0
3, 22053, Note_on_c, 1, 31, 0
3, 22080, Note_on_c, 1, 33, 110
3, 22203, Note_on_c, 1, 33, 0
3, 22260, Note_on_c, 1, 28, 110
3, 22290, Note_on_c, 1, 30, 110
3, 22291, Note_on_c, 1, 28, 0
3, 22320, Note_on_c, 1, 33, 110
3, 22323, Note_on_c, 1, 30, 0
3, 22353, Note_on_c, 1, 33, 0
3, 22380, Note_on_c, 1, 33, 110
3, 22500, Note_on_c, 1, 29, 110
3, 22507, Note_on_c, 1, 33, 0
3, 22533, Note_on_c, 1, 29, 0
3, 22560, Note_on_c, 1, 31, 110
3, 22680, Note_on_c, 1, 31, 0
3, 22740, Note_on_c, 1, 26, 110
3, 22770, Note_on_c, 1, 28, 110
3, 22771, Note_on_c, 1, 26, 0
3, 22800, Note_on_c, 1, 31, 110
3, 22805, Note_on_c, 1, 28, 0
3, 22833, Note_on_c, 1, 31, 0
3, 22860, Note_on_c, 1, 31, 110
3, 22972, Note_on_c, 1, 31, 0
3, 22980, Note_on_c, 1, 31, 110
3, 23013, Note_on_c, 1, 31, 0
3, 23040, Note_on_c, 1, 29, 110
3, 23160, Note_on_c, 1, 29, 0
3, 23220, Note_on_c, 1, 24, 110
3, 23250, Note_on_c, 1, 26, 110
3, 23251, Note_on_c, 1, 24, 0
3, 23280, Note_on_c, 1, 29, 110
3, 23285, Note_on_c, 1, 26, 0
3, 23313, Note_on_c, 1, 29, 0
3, 23340, Note_on_c, 1, 29, 110
3, 23460, Note_on_c, 1, 31, 110
3, 23464, Note_on_c, 1, 29, 0
3, 23491, Note_on_c, 1, 31, 0
3, 23520, Note_on_c, 1, 36, 110
3, 23639, Note_on_c, 1, 36, 0
3, 23700, Note_on_c, 1, 31, 110
3, 23730, Note_on_c, 1, 33, 110
3, 23731, Note_on_c, 1, 31, 0
3, 23760, Note_on_c, 1, 33, 0
3, 23760, Note_on_c, 1, 36, 110
3, 23793, Note_on_c, 1, 36, 0
3, 23820, Note_on_c, 1, 36, 110
3, 23940, Note_on_c, 1, 31, 110
3, 23941, Note_on_c, 1, 36, 0
3, 23973, Note_on_c, 1, 31, 0
3, 24000, Note_on_c, 1, 33, 110
3, 24123, Note_on_c, 1, 33, 0
3, 24180, Note_on_c, 1, 28, 110
3, 24210, Note_on_c, 1, 30, 110
3, 24211, Note_on_c, 1, 28, 0
3, 24240, Note_on_c, 1, 33, 110
3, 24243, Note_on_c, 1, 30, 0
3, 24273, Note_on_c, 1, 33, 0
3, 24300, Note_on_c, 1, 33, 110
3, 24420, Note_on_c, 1, 29, 110
3, 24427, Note_on_c, 1, 33, 0
3, 24453, Note_on_c, 1, 29, 0
3, 24480, Note_on_c, 1, 31, 110
3, 24600, Note_on_c, 1, 31, 0
3, 24660, Note_on_c, 1, 26, 110
3, 24690, Note_on_c, 1, 28, 110
3, 24691, Note_on_c, 1, 26, 0
3, 24720, Note_on_c, 1, 31, 110
3, 24725, Note_on_c, 1, 28, 0
3, 24753, Note_on_c, 1, 31, 0
3, 24780, Note_on_c, 1, 31, 110
3, 24892, Note_on_c, 1, 31, 0
3, 24900, Note_on_c, 1, 31, 110
3, 24933, Note_on_c, 1, 31, 0
3, 24960, Note_on_c, 1, 29, 110
3, 25080, Note_on_c, 1, 29, 0
3, 25140, Note_on_c, 1, 24, 110
3, 25170, Note_on_c, 1, 26, 110
3, 25171, Note_on_c, 1, 24, 0
3, 25200, Note_on_c, 1, 29, 110
3, 25205, Note_on_c, 1, 26, 0
3, 25233, Note_on_c, 1, 29, 0
3, 25260, Note_on_c, 1, 29, 110
3, 25380, Note_on_c, 1, 31, 110
3, 25384, Note_on_c, 1, 29, 0
3, 25411, Note_on_c, 1, 31, 0
3, 25440, Note_on_c, 1, 33, 110
3, 25798, Note_on_c, 1, 33, 0
3, 25860, Note_on_c, 1, 36, 110
3, 25891, Note_on_c, 1, 36, 0
3, 25920, Note_on_c, 1, 38, 110
3, 26278, Note_on_c, 1, 38, 0
3, 26340, Note_on_c, 1, 40, 110
3, 26371, Note_on_c, 1, 40, 0
3, 26400, Note_on_c, 1, 41, 110
3, 26758, Note_on_c, 1, 41, 0
3, 26820, Note_on_c, 1, 41, 110
3, 26851, Note_on_c, 1, 41, 0
3, 26880, Note_on_c, 1, 43, 110
3, 27238, Note_on_c, 1, 43, 0
3, 27360, Note_on_c, 1, 36, 110
3, 27479, Note_on_c, 1, 36, 0
3, 27540, Note_on_c, 1, 31, 110
3, 27570, Note_on_c, 1, 33, 110
3, 27571, Note_on_c, 1, 31, 0
3, 27600, Note_on_c, 1, 33, 0
3, 27600, Note_on_c, 1, 36, 110
3, 27633, Note_on_c, 1, 36, 0
3, 27660, Note_on_c, 1, 36, 110
3, 27780, Note_on_c, 1, 31, 110
3, 27781, Note_on_c, 1, 36, 0
3, 27813, Note_on_c, 1, 31, 0
3, 27840, Note_on_c, 1, 33, 110
3, 27963, Note_on_c, 1, 33, 0
3, 28020, Note_on_c, 1, 28, 110
3, 28050, Note_on_c, 1, 30, 110
3, 28051, Note_on_c, 1, 28, 0
3, 28080, Note_on_c, 1, 33, 110
3, 28083, Note_on_c, 1, 30, 0
3, 28113, Note_on_c, 1, 33, 0
3, 28140, Note_on_c, 1, 33, 110
3, 28260, Note_on_c, 1, 29, 110
3, 28267, Note_on_c, 1, 33, 0
3, 28293, Note_on_c, 1, 29, 0
3, 28320, Note_on_c, 1, 31, 110
3, 28440, Note_on_c, 1, 31, 0
3, 28500, Note_on_c, 1, 26, 110
3, 28530, Note_on_c, 1, 28, 110
3, 28531, Note_on_c, 1, 26, 0
3, 28560, Note_on_c, 1, 31, 110
3, 28565, Note_on_c, 1, 28, 0
3, 28593, Note_on_c, 1, 31, 0
3, 28620, Note_on_c, 1, 31, 110
3, 28732, Note_on_c, 1, 31, 0
3, 28740, Note_on_c, 1, 31, 110
3, 28773, Note_on_c, 1, 31, 0
3, 28800, Note_on_c, 1, 29, 110
3, 28920, Note_on_c, 1, 29, 0
3, 28980, Note_on_c, 1, 24, 110
3, 29010, Note_on_c, 1, 26, 110
3, 29011, Note_on_c, 1, 24, 0
3, 29040, Note_on_c, 1, 29, 110
3, 29045, Note_on_c, 1, 26, 0
3, 29073, Note_on_c, 1, 29, 0
3, 29100, Note_on_c, 1, 29, 110
3, 29220, Note_on_c, 1, 31, 110
3, 29224, Note_on_c, 1, 29, 0
3, 29251, Note_on_c, 1, 31, 0
3, 29280, Note_on_c, 1, 36, 110
3, 29399, Note_on_c, 1, 36, 0
3, 29460, Note_on_c, 1, 31, 110
3, 29490, Note_on_c, 1, 33, 110
3, 29491, Note_on_c, 1, 31, 0
3, 29520, Note_on_c, 1, 33, 0
3, 29520, Note_on_c, 1, 36, 110
3, 29553, Note_on_c, 1, 36, 0
3, 29580, Note_on_c, 1, 36, 110
3, 29700, Note_on_c, 1, 31, 110
3, 29701, Note_on_c, 1, 36, 0
3, 29733, Note_on_c, 1, 31, 0
3, 29760, Note_on_c, 1, 33, 110
3, 29883, Note_on_c, 1, 33, 0
3, 29940, Note_on_c, 1, 28, 110
3, 29970, Note_on_c, 1, 30, 110
3, 29971, Note_on_c, 1, 28, 0
3, 30000, Note_on_c, 1, 33, 110
3, 30003, Note_on_c, 1, 30, 0
3, 30033, Note_on_c, 1, 33, 0
3, 30060, Note_on_c, 1, 33, 110
3, 30180, Note_on_c, 1, 29, 110
3, 30187, Note_on_c, 1, 33, 0
3, 30213, Note_on_c, 1, 29, 0
3, 30240, Note_on_c, 1, 31, 110
3, 30360, Note_on_c, 1, 31, 0
3, 30420, Note_on_c, 1, 26, 110
3, 30450, Note_on_c, 1, 28, 110
3, 30451, Note_on_c, 1, 26, 0
3, 30480, Note_on_c, 1, 31, 110
3, 30485, Note_on_c, 1, 28, 0
3, 30513, Note_on_c, 1, 31, 0
3, 30540, Note_on_c, 1, 31, 110
3, 30652, Note_on_c, 1, 31, 0
3, 30660, Note_on_c, 1, 31, 110
3, 30693, Note_on_c, 1, 31, 0
3, 30720, Note_on_c, 1, 29, 110
3, 30840, Note_on_c, 1, 29, 0
3, 30900, Note_on_c, 1, 24, 110
3, 30930, Note_on_c, 1, 26, 110
3, 30931, Note_on_c, 1, 24, 0
3, 30960, Note_on_c, 1, 29, 110
3, 30965, Note_on_c, 1, 26, 0
3, 30993, Note_on_c, 1, 29, 0
3, 31020, Note_on_c, 1, 29, 110
3, 31140, Note_on_c, 1, 31, 110
3, 31144, Note_on_c, 1, 29, 0
3, 31171, Note_on_c, 1, 31, 0
3, 31200, Note_on_c, 1, 36, 110
3, 31319, Note_on_c, 1, 36, 0
3, 31380, Note_on_c, 1, 31, 110
3, 31410, Note_on_c, 1, 33, 110
3, 31411, Note_on_c, 1, 31, 0
3, 31440, Note_on_c, 1, 33, 0
3, 31440, Note_on_c, 1, 36, 110
3, 31473, Note_on_c, 1, 36, 0
3, 31500, Note_on_c, 1, 36, 110
3, 31620, Note_on_c, 1, 31, 110
3, 31621, Note_on_c, 1, 36, 0
3, 31653, Note_on_c, 1, 31, 0
3, 31680, Note_on_c, 1, 33, 110
3, 31803, Note_on_c, 1, 33, 0
3, 31860, Note_on_c, 1, 28, 110
3, 31890, Note_on_c, 1, 30, 110
3, 31891, Note_on_c, 1, 28, 0
3, 31920, Note_on_c, 1, 33, 110
3, 31923, Note_on_c, 1, 30, 0
3, 31953, Note_on_c, 1, 33, 0
3, 31980, Note_on_c, 1, 33, 110
3, 32100, Note_on_c, 1, 29, 110
3, 32107, Note_on_c, 1, 33, 0
3, 32133, Note_on_c, 1, 29, 0
3, 32160, Note_on_c, 1, 31, 110
3, 32280, Note_on_c, 1, 31, 0
3, 32340, Note_on_c, 1, 26, 110
3, 32370, Note_on_c, 1, 28, 110
3, 32371, Note_on_c, 1, 26, 0
3, 32400, Note_on_c, 1, 31, 110
3, 32405, Note_on_c, 1, 28, 0
3, 32433, Note_on_c, 1, 31, 0
3, 32460, Note_on_c, 1, 31, 110
3, 32572, Note_on_c, 1, 31, 0
3, 32580, Note_on_c, 1, 31, 110
3, 32613, Note_on_c, 1, 31, 0
3, 32640, Note_on_c, 1, 29, 110
3, 32760, Note_on_c, 1, 29, 0
3, 32820, Note_on_c, 1, 24, 110
3, 32850, Note_on_c, 1, 26, 110
3, 32851, Note_on_c, 1, 24, 0
3, 32880, Note_on_c, 1, 29, 110
3, 32885, Note_on_c, 1, 26, 0
3, 32913, Note_on_c, 1, 29, 0
3, 32940, Note_on_c, 1, 29, 110
3, 33060, Note_on_c, 1, 31, 110
3, 33064, Note_on_c, 1, 29, 0
3, 33091, Note_on_c, 1, 31, 0
3, 33120, Note_on_c, 1, 36, 110
3, 33239, Note_on_c, 1, 36, 0
3, 33300, Note_on_c, 1, 31, 110
3, 33330, Note_on_c, 1, 33, 110
3, 33331, Note_on_c, 1, 31, 0
3, 33360, Note_on_c, 1, 33, 0
3, 33360, Note_on_c, 1, 36, 110
3, 33393, Note_on_c, 1, 36, 0
3, 33420, Note_on_c, 1, 36, 110
3, 33540, Note_on_c, 1, 31, 110
3, 33541, Note_on_c, 1, 36, 0
3, 33573, Note_on_c, 1, 31, 0
3, 33600, Note_on_c, 1, 33, 110
3, 33723, Note_on_c, 1, 33, 0
3, 33780, Note_on_c, 1, 28, 110
3, 33810, Note_on_c, 1, 30, 110
3, 33811, Note_on_c, 1, 28, 0
3, 33840, Note_on_c, 1, 33, 110
3, 33843, Note_on_c, 1, 30, 0
3, 33873, Note_on_c, 1, 33, 0
3, 33900, Note_on_c, 1, 33, 110
3, 34020, Note_on_c, 1, 29, 110
3, 34027, Note_on_c, 1, 33, 0
3, 34053, Note_on_c, 1, 29, 0
3, 34080, Note_on_c, 1, 31, 110
3, 34513, Note_on_c, 1, 31, 0
3, 34560, Note_on_c, 1, 29, 110
3, 34981, Note_on_c, 1, 29, 0
3, 35040, Note_on_c, 1, 36, 110
3, 35487, Note_on_c, 1, 36, 0
3, 35487, End_track
4, 0, Start_track
4, 0, MIDI_port, 0
4, 0, Title_t, "Track 10"
4, 0, Program_c, 9, 0
4, 0, Control_c, 9, 7, 127
4, 0, Note_on_c, 9, 42, 127
4, 39, Note_on_c, 9, 42, 0
4, 120, Note_on_c, 9, 42, 127
4, 159, Note_on_c, 9, 42, 0
4, 240, Note_on_c, 9, 42, 127
4, 279, Note_on_c, 9, 42, 0
4, 360, Note_on_c, 9, 42, 127
4, 399, Note_on_c, 9, 42, 0
4, 600, Note_on_c, 9, 42, 110
4, 619, Note_on_c, 9, 42, 0
4, 840, Note_on_c, 9, 42, 110
4, 860, Note_on_c, 9, 42, 0
4, 1080, Note_on_c, 9, 42, 110
4, 1099, Note_on_c, 9, 42, 0
4, 1320, Note_on_c, 9, 42, 110
4, 1340, Note_on_c, 9, 42, 0
4, 1560, Note_on_c, 9, 42, 110
4, 1579, Note_on_c, 9, 42, 0
4, 1800, Note_on_c, 9, 42, 110
4, 1835, Note_on_c, 9, 42, 0
4, 2040, Note_on_c, 9, 42, 110
4, 2059, Note_on_c, 9, 42, 0
4, 2280, Note_on_c, 9, 42, 110
4, 2300, Note_on_c, 9, 42, 0
4, 2520, Note_on_c, 9, 42, 110
4, 2560, Note_on_c, 9, 42, 0
4, 2760, Note_on_c, 9, 42, 110
4, 2787, Note_on_c, 9, 42, 0
4, 3000, Note_on_c, 9, 42, 110
4, 3019, Note_on_c, 9, 42, 0
4, 3240, Note_on_c, 9, 42, 110
4, 3260, Note_on_c, 9, 42, 0
4, 3480, Note_on_c, 9, 42, 110
4, 3499, Note_on_c, 9, 42, 0
4, 3720, Note_on_c, 9, 42, 110
4, 3740, Note_on_c, 9, 42, 0
4, 3960, Note_on_c, 9, 42, 110
4, 3979, Note_on_c, 9, 42, 0
4, 4200, Note_on_c, 9, 42, 110
4, 4235, Note_on_c, 9, 42, 0
4, 4440, Note_on_c, 9, 42, 110
4, 4459, Note_on_c, 9, 42, 0
4, 4680, Note_on_c, 9, 42, 110
4, 4700, Note_on_c, 9, 42, 0
4, 4920, Note_on_c, 9, 42, 110
4, 4960, Note_on_c, 9, 42, 0
4, 5160, Note_on_c, 9, 42, 110
4, 5187, Note_on_c, 9, 42, 0
4, 5400, Note_on_c, 9, 42, 110
4, 5419, Note_on_c, 9, 42, 0
4, 5640, Note_on_c, 9, 42, 110
4, 5660, Note_on_c, 9, 42, 0
4, 5880, Note_on_c, 9, 42, 110
4, 5899, Note_on_c, 9, 42, 0
4, 6120, Note_on_c, 9, 42, 110
4, 6140, Note_on_c, 9, 42, 0
4, 6240, Note_on_c, 9, 42, 110
4, 6240, Note_on_c, 9, 46, 110
4, 6267, Note_on_c, 9, 46, 0
4, 6268, Note_on_c, 9, 42, 0
4, 6360, Note_on_c, 9, 42, 110
4, 6379, Note_on_c, 9, 42, 0
4, 6600, Note_on_c, 9, 42, 110
4, 6635, Note_on_c, 9, 42, 0
4, 6720, Note_on_c, 9, 42, 110
4, 6720, Note_on_c, 9, 46, 110
4, 6744, Note_on_c, 9, 42, 0
4, 6747, Note_on_c, 9, 46, 0
4, 6840, Note_on_c, 9, 42, 110
4, 6859, Note_on_c, 9, 42, 0
4, 7080, Note_on_c, 9, 42, 110
4, 7100, Note_on_c, 9, 42, 0
4, 7200, Note_on_c, 9, 42, 110
4, 7200, Note_on_c, 9, 46, 110
4, 7216, Note_on_c, 9, 46, 0
4, 7231, Note_on_c, 9, 42, 0
4, 7320, Note_on_c, 9, 42, 110
4, 7360, Note_on_c, 9, 42, 0
4, 7560, Note_on_c, 9, 42, 110
4, 7587, Note_on_c, 9, 42, 0
4, 7680, Note_on_c, 9, 42, 110
4, 7680, Note_on_c, 9, 46, 110
4, 7700, Note_on_c, 9, 46, 0
4, 7704, Note_on_c, 9, 42, 0
4, 7800, Note_on_c, 9, 42, 110
4, 7819, Note_on_c, 9, 42, 0
4, 8040, Note_on_c, 9, 42, 110
4, 8060, Note_on_c, 9, 42, 0
4, 8160, Note_on_c, 9, 36, 110
4, 8160, Note_on_c, 9, 42, 110
4, 8184, Note_on_c, 9, 42, 0
4, 8196, Note_on_c, 9, 36, 0
4, 8280, Note_on_c, 9, 40, 110
4, 8280, Note_on_c, 9, 42, 110
4, 8299, Note_on_c, 9, 42, 0
4, 8316, Note_on_c, 9, 40, 0
4, 8400, Note_on_c, 9, 36, 110
4, 8400, Note_on_c, 9, 42, 110
4, 8427, Note_on_c, 9, 42, 0
4, 8439, Note_on_c, 9, 36, 0
4, 8460, Note_on_c, 9, 36, 110
4, 8460, Note_on_c, 9, 42, 110
4, 8491, Note_on_c, 9, 42, 0
4, 8499, Note_on_c, 9, 36, 0
4, 8520, Note_on_c, 9, 40, 110
4, 8520, Note_on_c, 9, 42, 110
4, 8540, Note_on_c, 9, 42, 0
4, 8559, Note_on_c, 9, 40, 0
4, 8580, Note_on_c, 9, 42, 110
4, 8599, Note_on_c, 9, 42, 0
4, 8640, Note_on_c, 9, 36, 110
4, 8640, Note_on_c, 9, 42, 110
4, 8664, Note_on_c, 9, 42, 0
4, 8676, Note_on_c, 9, 36, 0
4, 8760, Note_on_c, 9, 40, 110
4, 8760, Note_on_c, 9, 42, 110
4, 8779, Note_on_c, 9, 42, 0
4, 8796, Note_on_c, 9, 40, 0
4, 8820, Note_on_c, 9, 42, 110
4, 8839, Note_on_c, 9, 42, 0
4, 8880, Note_on_c, 9, 36, 110
4, 8880, Note_on_c, 9, 42, 110
4, 8907, Note_on_c, 9, 42, 0
4, 8919, Note_on_c, 9, 36, 0
4, 8940, Note_on_c, 9, 36, 110
4, 8940, Note_on_c, 9, 42, 110
4, 8971, Note_on_c, 9, 42, 0
4, 8979, Note_on_c, 9, 36, 0
4, 9000, Note_on_c, 9, 40, 110
4, 9000, Note_on_c, 9, 42, 110
4, 9020, Note_on_c, 9, 42, 0
4, 9039, Note_on_c, 9, 40, 0
4, 9060, Note_on_c, 9, 42, 110
4, 9079, Note_on_c, 9, 42, 0
4, 9120, Note_on_c, 9, 36, 110
4, 9120, Note_on_c, 9, 42, 110
4, 9144, Note_on_c, 9, 42, 0
4, 9156, Note_on_c, 9, 36, 0
4, 9180, Note_on_c, 9, 42, 110
4, 9199, Note_on_c, 9, 42, 0
4, 9240, Note_on_c, 9, 40, 110
4, 9240, Note_on_c, 9, 42, 110
4, 9259, Note_on_c, 9, 42, 0
4, 9276, Note_on_c, 9, 40, 0
4, 9300, Note_on_c, 9, 42, 110
4, 9319, Note_on_c, 9, 42, 0
4, 9360, Note_on_c, 9, 36, 110
4, 9360, Note_on_c, 9, 42, 110
4, 9387, Note_on_c, 9, 42, 0
4, 9399, Note_on_c, 9, 36, 0
4, 9420, Note_on_c, 9, 36, 110
4, 9420, Note_on_c, 9, 42, 110
4, 9451, Note_on_c, 9, 42, 0
4, 9459, Note_on_c, 9, 36, 0
4, 9480, Note_on_c, 9, 40, 110
4, 9480, Note_on_c, 9, 42, 110
4, 9500, Note_on_c, 9, 42, 0
4, 9519, Note_on_c, 9, 40, 0
4, 9540, Note_on_c, 9, 42, 110
4, 9559, Note_on_c, 9, 42, 0
4, 9600, Note_on_c, 9, 36, 110
4, 9600, Note_on_c, 9, 42, 110
4, 9624, Note_on_c, 9, 42, 0
4, 9636, Note_on_c, 9, 36, 0
4, 9660, Note_on_c, 9, 42, 110
4, 9679, Note_on_c, 9, 42, 0
4, 9720, Note_on_c, 9, 40, 110
4, 9720, Note_on_c, 9, 42, 110
4, 9739, Note_on_c, 9, 42, 0
4, 9756, Note_on_c, 9, 40, 0
4, 9780, Note_on_c, 9, 42, 110
4, 9799, Note_on_c, 9, 42, 0
4, 9840, Note_on_c, 9, 36, 110
4, 9840, Note_on_c, 9, 42, 110
4, 9867, Note_on_c, 9, 42, 0
4, 9879, Note_on_c, 9, 36, 0
4, 9900, Note_on_c, 9, 36, 110
4, 9900, Note_on_c, 9, 42, 110
4, 9931, Note_on_c, 9, 42, 0
4, 9939, Note_on_c, 9, 36, 0
4, 9960, Note_on_c, 9, 40, 110
4, 9960, Note_on_c, 9, 42, 110
4, 9980, Note_on_c, 9, 42, 0
4, 9999, Note_on_c, 9, 40, 0
4, 10020, Note_on_c, 9, 42, 110
4, 10039, Note_on_c, 9, 42, 0
4, 10080, Note_on_c, 9, 36, 110
4, 10080, Note_on_c, 9, 42, 110
4, 10104, Note_on_c, 9, 42, 0
4, 10116, Note_on_c, 9, 36, 0
4, 10140, Note_on_c, 9, 42, 110
4, 10159, Note_on_c, 9, 42, 0
4, 10200, Note_on_c, 9, 40, 110
4, 10200, Note_on_c, 9, 42, 110
4, 10219, Note_on_c, 9, 42, 0
4, 10236, Note_on_c, 9, 40, 0
4, 10260, Note_on_c, 9, 42, 110
4, 10279, Note_on_c, 9, 42, 0
4, 10320, Note_on_c, 9, 36, 110
4, 10320, Note_on_c, 9, 42, 110
4, 10347, Note_on_c, 9, 42, 0
4, 10359, Note_on_c, 9, 36, 0
4, 10380, Note_on_c, 9, 36, 110
4, 10380, Note_on_c, 9, 42, 110
4, 10411, Note_on_c, 9, 42, 0
4, 10419, Note_on_c, 9, 36, 0
4, 10440, Note_on_c, 9, 40, 110
4, 10440, Note_on_c, 9, 42, 110
4, 10460, Note_on_c, 9, 42, 0
4, 10479, Note_on_c, 9, 40, 0
4, 10500, Note_on_c, 9, 42, 110
4, 10519, Note_on_c, 9, 42, 0
4, 10560, Note_on_c, 9, 36, 110
4, 10560, Note_on_c, 9, 42, 110
4, 10584, Note_on_c, 9, 42, 0
4, 10596, Note_on_c, 9, 36, 0
4, 10620, Note_on_c, 9, 42, 110
4, 10639, Note_on_c, 9, 42, 0
4, 10680, Note_on_c, 9, 40, 110
4, 10680, Note_on_c, 9, 42, 110
4, 10699, Note_on_c, 9, 42, 0
4, 10716, Note_on_c, 9, 40, 0
4, 10740, Note_on_c, 9, 42, 110
4, 10759, Note_on_c, 9, 42, 0
4, 10800, Note_on_c, 9, 36, 110
4, 10800, Note_on_c, 9, 42, 110
4, 10827, Note_on_c, 9, 42, 0
4, 10839, Note_on_c, 9, 36, 0
4, 10860, Note_on_c, 9, 36, 110
4, 10860, Note_on_c, 9, 42, 110
4, 10891, Note_on_c, 9, 42, 0
4, 10899, Note_on_c, 9, 36, 0
4, 10920, Note_on_c, 9, 40, 110
4, 10920, Note_on_c, 9, 42, 110
4, 10940, Note_on_c, 9, 42, 0
4, 10959, Note_on_c, 9, 40, 0
4, 10980, Note_on_c, 9, 42, 110
4, 10999, Note_on_c, 9, 42, 0
4, 11040, Note_on_c, 9, 36, 110
4, 11040, Note_on_c, 9, 42, 110
4, 11064, Note_on_c, 9, 42, 0
4, 11076, Note_on_c, 9, 36, 0
4, 11100, Note_on_c, 9, 42, 110
4, 11119, Note_on_c, 9, 42, 0
4, 11160, Note_on_c, 9, 40, 110
4, 11160, Note_on_c, 9, 42, 110
4, 11179, Note_on_c, 9, 42, 0
4, 11196, Note_on_c, 9, 40, 0
4, 11220, Note_on_c, 9, 42, 110
4, 11239, Note_on_c, 9, 42, 0
4, 11280, Note_on_c, 9, 36, 110
4, 11280, Note_on_c, 9, 42, 110
4, 11307, Note_on_c, 9, 42, 0
4, 11319, Note_on_c, 9, 36, 0
4, 11340, Note_on_c, 9, 36, 110
4, 11340, Note_on_c, 9, 42, 110
4, 11371, Note_on_c, 9, 42, 0
4, 11379, Note_on_c, 9, 36, 0
4, 11400, Note_on_c, 9, 40, 110
4, 11400, Note_on_c, 9, 42, 110
4, 11420, Note_on_c, 9, 42, 0
4, 11439, Note_on_c, 9, 40, 0
4, 11460, Note_on_c, 9, 42, 110
4, 11479, Note_on_c, 9, 42, 0
4, 11520, Note_on_c, 9, 36, 110
4, 11520, Note_on_c, 9, 42, 110
4, 11544, Note_on_c, 9, 42, 0
4, 11556, Note_on_c, 9, 36, 0
4, 11580, Note_on_c, 9, 42, 110
4, 11599, Note_on_c, 9, 42, 0
4, 11640, Note_on_c, 9, 40, 110
4, 11640, Note_on_c, 9, 42, 110
4, 11659, Note_on_c, 9, 42, 0
4, 11676, Note_on_c, 9, 40, 0
4, 11730, Note_on_c, 9, 45, 110
4, 11749, Note_on_c, 9, 45, 0
4, 11760, Note_on_c, 9, 36, 110
4, 11760, Note_on_c, 9, 42, 110
4, 11787, Note_on_c, 9, 42, 0
4, 11799, Note_on_c, 9, 36, 0
4, 11820, Note_on_c, 9, 36, 110
4, 11820, Note_on_c, 9, 42, 110
4, 11820, Note_on_c, 9, 45, 110
4, 11839, Note_on_c, 9, 45, 0
4, 11850, Note_on_c, 9, 47, 110
4, 11851, Note_on_c, 9, 42, 0
4, 11859, Note_on_c, 9, 36, 0
4, 11869, Note_on_c, 9, 47, 0
4, 11880, Note_on_c, 9, 40, 110
4, 11880, Note_on_c, 9, 42, 110
4, 11880, Note_on_c, 9, 47, 110
4, 11899, Note_on_c, 9, 47, 0
4, 11900, Note_on_c, 9, 42, 0
4, 11919, Note_on_c, 9, 40, 0
4, 11940, Note_on_c, 9, 42, 110
4, 11940, Note_on_c, 9, 47, 110
4, 11959, Note_on_c, 9, 47, 0
4, 11959, Note_on_c, 9, 42, 0
4, 12000, Note_on_c, 9, 36, 110
4, 12000, Note_on_c, 9, 42, 110
4, 12031, Note_on_c, 9, 42, 0
4, 12036, Note_on_c, 9, 36, 0
4, 12060, Note_on_c, 9, 42, 110
4, 12083, Note_on_c, 9, 42, 0
4, 12120, Note_on_c, 9, 40, 110
4, 12120, Note_on_c, 9, 42, 110
4, 12156, Note_on_c, 9, 40, 0
4, 12160, Note_on_c, 9, 42, 0
4, 12180, Note_on_c, 9, 42, 110
4, 12207, Note_on_c, 9, 42, 0
4, 12240, Note_on_c, 9, 36, 110
4, 12240, Note_on_c, 9, 42, 110
4, 12272, Note_on_c, 9, 42, 0
4, 12279, Note_on_c, 9, 36, 0
4, 12300, Note_on_c, 9, 36, 110
4, 12339, Note_on_c, 9, 36, 0
4, 12360, Note_on_c, 9, 40, 110
4, 12360, Note_on_c, 9, 42, 110
4, 12387, Note_on_c, 9, 42, 0
4, 12399, Note_on_c, 9, 40, 0
4, 12420, Note_on_c, 9, 42, 110
4, 12440, Note_on_c, 9, 42, 0
4, 12480, Note_on_c, 9, 36, 110
4, 12480, Note_on_c, 9, 42, 110
4, 12504, Note_on_c, 9, 42, 0
4, 12511, Note_on_c, 9, 36, 0
4, 12540, Note_on_c, 9, 42, 110
4, 12556, Note_on_c, 9, 42, 0
4, 12600, Note_on_c, 9, 40, 110
4, 12600, Note_on_c, 9, 42, 110
4, 12619, Note_on_c, 9, 42, 0
4, 12631, Note_on_c, 9, 40, 0
4, 12660, Note_on_c, 9, 42, 110
4, 12691, Note_on_c, 9, 42, 0
4, 12720, Note_on_c, 9, 36, 110
4, 12720, Note_on_c, 9, 42, 110
4, 12747, Note_on_c, 9, 42, 0
4, 12747, Note_on_c, 9, 36, 0
4, 12780, Note_on_c, 9, 36, 110
4, 12819, Note_on_c, 9, 36, 0
4, 12840, Note_on_c, 9, 40, 110
4, 12840, Note_on_c, 9, 42, 110
4, 12860, Note_on_c, 9, 42, 0
4, 12867, Note_on_c, 9, 40, 0
4, 12900, Note_on_c, 9, 42, 110
4, 12919, Note_on_c, 9, 42, 0
4, 12960, Note_on_c, 9, 36, 110
4, 12960, Note_on_c, 9, 42, 110
4, 12984, Note_on_c, 9, 42, 0
4, 12996, Note_on_c, 9, 36, 0
4, 13020, Note_on_c, 9, 42, 110
4, 13036, Note_on_c, 9, 42, 0
4, 13080, Note_on_c, 9, 40, 110
4, 13080, Note_on_c, 9, 42, 110
4, 13099, Note_on_c, 9, 42, 0
4, 13116, Note_on_c, 9, 40, 0
4, 13140, Note_on_c, 9, 42, 110
4, 13171, Note_on_c, 9, 42, 0
4, 13200, Note_on_c, 9, 36, 110
4, 13200, Note_on_c, 9, 42, 110
4, 13227, Note_on_c, 9, 42, 0
4, 13239, Note_on_c, 9, 36, 0
4, 13260, Note_on_c, 9, 36, 110
4, 13299, Note_on_c, 9, 36, 0
4, 13320, Note_on_c, 9, 40, 110
4, 13320, Note_on_c, 9, 42, 110
4, 13340, Note_on_c, 9, 42, 0
4, 13359, Note_on_c, 9, 40, 0
4, 13380, Note_on_c, 9, 42, 110
4, 13399, Note_on_c, 9, 42, 0
4, 13440, Note_on_c, 9, 36, 110
4, 13440, Note_on_c, 9, 42, 110
4, 13468, Note_on_c, 9, 42, 0
4, 13471, Note_on_c, 9, 36, 0
4, 13500, Note_on_c, 9, 42, 110
4, 13527, Note_on_c, 9, 42, 0
4, 13560, Note_on_c, 9, 40, 110
4, 13560, Note_on_c, 9, 42, 110
4, 13579, Note_on_c, 9, 42, 0
4, 13591, Note_on_c, 9, 40, 0
4, 13620, Note_on_c, 9, 42, 110
4, 13647, Note_on_c, 9, 42, 0
4, 13680, Note_on_c, 9, 36, 110
4, 13680, Note_on_c, 9, 42, 110
4, 13707, Note_on_c, 9, 36, 0
4, 13708, Note_on_c, 9, 42, 0
4, 13740, Note_on_c, 9, 36, 110
4, 13779, Note_on_c, 9, 36, 0
4, 13800, Note_on_c, 9, 40, 110
4, 13800, Note_on_c, 9, 42, 110
4, 13827, Note_on_c, 9, 40, 0
4, 13835, Note_on_c, 9, 42, 0
4, 13860, Note_on_c, 9, 42, 110
4, 13887, Note_on_c, 9, 42, 0
4, 13920, Note_on_c, 9, 36, 110
4, 13920, Note_on_c, 9, 42, 110
4, 13944, Note_on_c, 9, 42, 0
4, 13956, Note_on_c, 9, 36, 0
4, 13980, Note_on_c, 9, 42, 110
4, 13996, Note_on_c, 9, 42, 0
4, 14040, Note_on_c, 9, 40, 110
4, 14040, Note_on_c, 9, 42, 110
4, 14059, Note_on_c, 9, 42, 0
4, 14076, Note_on_c, 9, 40, 0
4, 14100, Note_on_c, 9, 42, 110
4, 14131, Note_on_c, 9, 42, 0
4, 14160, Note_on_c, 9, 36, 110
4, 14160, Note_on_c, 9, 42, 110
4, 14187, Note_on_c, 9, 42, 0
4, 14199, Note_on_c, 9, 36, 0
4, 14220, Note_on_c, 9, 36, 110
4, 14259, Note_on_c, 9, 36, 0
4, 14280, Note_on_c, 9, 40, 110
4, 14280, Note_on_c, 9, 42, 110
4, 14300, Note_on_c, 9, 42, 0
4, 14319, Note_on_c, 9, 40, 0
4, 14340, Note_on_c, 9, 42, 110
4, 14359, Note_on_c, 9, 42, 0
4, 14400, Note_on_c, 9, 36, 110
4, 14400, Note_on_c, 9, 42, 110
4, 14431, Note_on_c, 9, 42, 0
4, 14431, Note_on_c, 9, 36, 0
4, 14460, Note_on_c, 9, 42, 110
4, 14483, Note_on_c, 9, 42, 0
4, 14520, Note_on_c, 9, 40, 110
4, 14520, Note_on_c, 9, 42, 110
4, 14551, Note_on_c, 9, 40, 0
4, 14560, Note_on_c, 9, 42, 0
4, 14580, Note_on_c, 9, 42, 110
4, 14607, Note_on_c, 9, 42, 0
4, 14640, Note_on_c, 9, 36, 110
4, 14640, Note_on_c, 9, 42, 110
4, 14667, Note_on_c, 9, 36, 0
4, 14672, Note_on_c, 9, 42, 0
4, 14700, Note_on_c, 9, 36, 110
4, 14739, Note_on_c, 9, 36, 0
4, 14760, Note_on_c, 9, 40, 110
4, 14760, Note_on_c, 9, 42, 110
4, 14787, Note_on_c, 9, 42, 0
4, 14787, Note_on_c, 9, 40, 0
4, 14820, Note_on_c, 9, 42, 110
4, 14840, Note_on_c, 9, 42, 0
4, 14880, Note_on_c, 9, 36, 110
4, 14880, Note_on_c, 9, 42, 110
4, 14904, Note_on_c, 9, 42, 0
4, 14916, Note_on_c, 9, 36, 0
4, 14940, Note_on_c, 9, 42, 110
4, 14956, Note_on_c, 9, 42, 0
4, 15000, Note_on_c, 9, 40, 110
4, 15000, Note_on_c, 9, 42, 110
4, 15019, Note_on_c, 9, 42, 0
4, 15036, Note_on_c, 9, 40, 0
4, 15060, Note_on_c, 9, 42, 110
4, 15091, Note_on_c, 9, 42, 0
4, 15120, Note_on_c, 9, 36, 110
4, 15120, Note_on_c, 9, 42, 110
4, 15147, Note_on_c, 9, 42, 0
4, 15159, Note_on_c, 9, 36, 0
4, 15180, Note_on_c, 9, 36, 110
4, 15219, Note_on_c, 9, 36, 0
4, 15240, Note_on_c, 9, 40, 110
4, 15240, Note_on_c, 9, 42, 110
4, 15260, Note_on_c, 9, 42, 0
4, 15279, Note_on_c, 9, 40, 0
4, 15300, Note_on_c, 9, 42, 110
4, 15319, Note_on_c, 9, 42, 0
4, 15360, Note_on_c, 9, 36, 110
4, 15360, Note_on_c, 9, 42, 110
4, 15384, Note_on_c, 9, 42, 0
4, 15391, Note_on_c, 9, 36, 0
4, 15420, Note_on_c, 9, 42, 110
4, 15436, Note_on_c, 9, 42, 0
4, 15480, Note_on_c, 9, 40, 110
4, 15480, Note_on_c, 9, 42, 110
4, 15499, Note_on_c, 9, 42, 0
4, 15511, Note_on_c, 9, 40, 0
4, 15540, Note_on_c, 9, 42, 110
4, 15571, Note_on_c, 9, 42, 0
4, 15600, Note_on_c, 9, 36, 110
4, 15600, Note_on_c, 9, 42, 110
4, 15627, Note_on_c, 9, 42, 0
4, 15627, Note_on_c, 9, 36, 0
4, 15660, Note_on_c, 9, 36, 110
4, 15699, Note_on_c, 9, 36, 0
4, 15720, Note_on_c, 9, 40, 110
4, 15720, Note_on_c, 9, 42, 110
4, 15740, Note_on_c, 9, 42, 0
4, 15747, Note_on_c, 9, 40, 0
4, 15750, Note_on_c, 9, 40, 110
4, 15777, Note_on_c, 9, 40, 0
4, 15780, Note_on_c, 9, 42, 110
4, 15799, Note_on_c, 9, 42, 0
4, 15840, Note_on_c, 9, 36, 110
4, 15840, Note_on_c, 9, 42, 110
4, 15868, Note_on_c, 9, 42, 0
4, 15876, Note_on_c, 9, 36, 0
4, 15900, Note_on_c, 9, 42, 110
4, 15927, Note_on_c, 9, 42, 0
4, 15960, Note_on_c, 9, 40, 110
4, 15960, Note_on_c, 9, 42, 110
4, 15979, Note_on_c, 9, 42, 0
4, 15996, Note_on_c, 9, 40, 0
4, 16020, Note_on_c, 9, 42, 110
4, 16047, Note_on_c, 9, 42, 0
4, 16080, Note_on_c, 9, 36, 110
4, 16080, Note_on_c, 9, 42, 110
4, 16108, Note_on_c, 9, 42, 0
4, 16119, Note_on_c, 9, 36, 0
4, 16140, Note_on_c, 9, 36, 110
4, 16179, Note_on_c, 9, 36, 0
4, 16200, Note_on_c, 9, 40, 110
4, 16200, Note_on_c, 9, 42, 110
4, 16235, Note_on_c, 9, 42, 0
4, 16239, Note_on_c, 9, 40, 0
4, 16260, Note_on_c, 9, 42, 110
4, 16287, Note_on_c, 9, 42, 0
4, 16320, Note_on_c, 9, 36, 110
4, 16320, Note_on_c, 9, 42, 110
4, 16344, Note_on_c, 9, 42, 0
4, 16351, Note_on_c, 9, 36, 0
4, 16380, Note_on_c, 9, 42, 110
4, 16396, Note_on_c, 9, 42, 0
4, 16440, Note_on_c, 9, 40, 110
4, 16440, Note_on_c, 9, 42, 110
4, 16459, Note_on_c, 9, 42, 0
4, 16471, Note_on_c, 9, 40, 0
4, 16500, Note_on_c, 9, 42, 110
4, 16531, Note_on_c, 9, 42, 0
4, 16560, Note_on_c, 9, 36, 110
4, 16560, Note_on_c, 9, 42, 110
4, 16587, Note_on_c, 9, 42, 0
4, 16587, Note_on_c, 9, 36, 0
4, 16620, Note_on_c, 9, 36, 110
4, 16659, Note_on_c, 9, 36, 0
4, 16680, Note_on_c, 9, 40, 110
4, 16680, Note_on_c, 9, 42, 110
4, 16700, Note_on_c, 9, 42, 0
4, 16707, Note_on_c, 9, 40, 0
4, 16740, Note_on_c, 9, 42, 110
4, 16759, Note_on_c, 9, 42, 0
4, 16800, Note_on_c, 9, 36, 110
4, 16800, Note_on_c, 9, 42, 110
4, 16831, Note_on_c, 9, 42, 0
4, 16836, Note_on_c, 9, 36, 0
4, 16860, Note_on_c, 9, 42, 110
4, 16883, Note_on_c, 9, 42, 0
4, 16920, Note_on_c, 9, 40, 110
4, 16920, Note_on_c, 9, 42, 110
4, 16956, Note_on_c, 9, 40, 0
4, 16960, Note_on_c, 9, 42, 0
4, 16980, Note_on_c, 9, 42, 110
4, 17007, Note_on_c, 9, 42, 0
4, 17040, Note_on_c, 9, 36, 110
4, 17040, Note_on_c, 9, 42, 110
4, 17072, Note_on_c, 9, 42, 0
4, 17079, Note_on_c, 9, 36, 0
4, 17100, Note_on_c, 9, 36, 110
4, 17139, Note_on_c, 9, 36, 0
4, 17160, Note_on_c, 9, 40, 110
4, 17160, Note_on_c, 9, 42, 110
4, 17187, Note_on_c, 9, 42, 0
4, 17199, Note_on_c, 9, 40, 0
4, 17220, Note_on_c, 9, 42, 110
4, 17240, Note_on_c, 9, 42, 0
4, 17280, Note_on_c, 9, 36, 110
4, 17280, Note_on_c, 9, 42, 110
4, 17304, Note_on_c, 9, 42, 0
4, 17311, Note_on_c, 9, 36, 0
4, 17340, Note_on_c, 9, 42, 110
4, 17356, Note_on_c, 9, 42, 0
4, 17400, Note_on_c, 9, 40, 110
4, 17400, Note_on_c, 9, 42, 110
4, 17419, Note_on_c, 9, 42, 0
4, 17431, Note_on_c, 9, 40, 0
4, 17460, Note_on_c, 9, 42, 110
4, 17490, Note_on_c, 9, 36, 110
4, 17490, Note_on_c, 9, 45, 110
4, 17491, Note_on_c, 9, 42, 0
4, 17509, Note_on_c, 9, 45, 0
4, 17509, Note_on_c, 9, 36, 0
4, 17520, Note_on_c, 9, 36, 110
4, 17520, Note_on_c, 9, 42, 110
4, 17547, Note_on_c, 9, 42, 0
4, 17547, Note_on_c, 9, 36, 0
4, 17580, Note_on_c, 9, 36, 110
4, 17580, Note_on_c, 9, 45, 110
4, 17599, Note_on_c, 9, 45, 0
4, 17610, Note_on_c, 9, 47, 110
4, 17619, Note_on_c, 9, 36, 0
4, 17629, Note_on_c, 9, 47, 0
4, 17640, Note_on_c, 9, 40, 110
4, 17640, Note_on_c, 9, 42, 110
4, 17640, Note_on_c, 9, 47, 110
4, 17659, Note_on_c, 9, 47, 0
4, 17660, Note_on_c, 9, 42, 0
4, 17667, Note_on_c, 9, 40, 0
4, 17700, Note_on_c, 9, 40, 110
4, 17700, Note_on_c, 9, 42, 110
4, 17700, Note_on_c, 9, 47, 110
4, 17701, Note_on_c, 9, 40, 0
4, 17719, Note_on_c, 9, 47, 0
4, 17719, Note_on_c, 9, 42, 0
4, 17760, Note_on_c, 9, 36, 110
4, 17760, Note_on_c, 9, 42, 110
4, 17784, Note_on_c, 9, 42, 0
4, 17796, Note_on_c, 9, 36, 0
4, 17820, Note_on_c, 9, 42, 110
4, 17836, Note_on_c, 9, 42, 0
4, 17880, Note_on_c, 9, 40, 110
4, 17880, Note_on_c, 9, 42, 110
4, 17899, Note_on_c, 9, 42, 0
4, 17916, Note_on_c, 9, 40, 0
4, 17940, Note_on_c, 9, 42, 110
4, 17971, Note_on_c, 9, 42, 0
4, 18000, Note_on_c, 9, 36, 110
4, 18000, Note_on_c, 9, 42, 110
4, 18027, Note_on_c, 9, 42, 0
4, 18039, Note_on_c, 9, 36, 0
4, 18060, Note_on_c, 9, 36, 110
4, 18099, Note_on_c, 9, 36, 0
4, 18120, Note_on_c, 9, 40, 110
4, 18120, Note_on_c, 9, 42, 110
4, 18140, Note_on_c, 9, 42, 0
4, 18159, Note_on_c, 9, 40, 0
4, 18180, Note_on_c, 9, 42, 110
4, 18199, Note_on_c, 9, 42, 0
4, 18240, Note_on_c, 9, 36, 110
4, 18240, Note_on_c, 9, 42, 110
4, 18268, Note_on_c, 9, 42, 0
4, 18271, Note_on_c, 9, 36, 0
4, 18300, Note_on_c, 9, 42, 110
4, 18327, Note_on_c, 9, 42, 0
4, 18360, Note_on_c, 9, 40, 110
4, 18360, Note_on_c, 9, 42, 110
4, 18379, Note_on_c, 9, 42, 0
4, 18391, Note_on_c, 9, 40, 0
4, 18420, Note_on_c, 9, 42, 110
4, 18447, Note_on_c, 9, 42, 0
4, 18480, Note_on_c, 9, 36, 110
4, 18480, Note_on_c, 9, 42, 110
4, 18507, Note_on_c, 9, 36, 0
4, 18508, Note_on_c, 9, 42, 0
4, 18540, Note_on_c, 9, 36, 110
4, 18579, Note_on_c, 9, 36, 0
4, 18600, Note_on_c, 9, 40, 110
4, 18600, Note_on_c, 9, 42, 110
4, 18627, Note_on_c, 9, 40, 0
4, 18635, Note_on_c, 9, 42, 0
4, 18660, Note_on_c, 9, 42, 110
4, 18687, Note_on_c, 9, 42, 0
4, 18720, Note_on_c, 9, 36, 110
4, 18720, Note_on_c, 9, 42, 110
4, 18744, Note_on_c, 9, 42, 0
4, 18756, Note_on_c, 9, 36, 0
4, 18780, Note_on_c, 9, 42, 110
4, 18796, Note_on_c, 9, 42, 0
4, 18840, Note_on_c, 9, 40, 110
4, 18840, Note_on_c, 9, 42, 110
4, 18859, Note_on_c, 9, 42, 0
4, 18876, Note_on_c, 9, 40, 0
4, 18900, Note_on_c, 9, 42, 110
4, 18931, Note_on_c, 9, 42, 0
4, 18960, Note_on_c, 9, 36, 110
4, 18960, Note_on_c, 9, 42, 110
4, 18987, Note_on_c, 9, 42, 0
4, 18999, Note_on_c, 9, 36, 0
4, 19020, Note_on_c, 9, 36, 110
4, 19059, Note_on_c, 9, 36, 0
4, 19080, Note_on_c, 9, 40, 110
4, 19080, Note_on_c, 9, 42, 110
4, 19100, Note_on_c, 9, 42, 0
4, 19119, Note_on_c, 9, 40, 0
4, 19140, Note_on_c, 9, 42, 110
4, 19159, Note_on_c, 9, 42, 0
4, 19200, Note_on_c, 9, 36, 110
4, 19200, Note_on_c, 9, 42, 110
4, 19231, Note_on_c, 9, 42, 0
4, 19231, Note_on_c, 9, 36, 0
4, 19260, Note_on_c, 9, 42, 110
4, 19283, Note_on_c, 9, 42, 0
4, 19320, Note_on_c, 9, 40, 110
4, 19320, Note_on_c, 9, 42, 110
4, 19351, Note_on_c, 9, 40, 0
4, 19360, Note_on_c, 9, 42, 0
4, 19380, Note_on_c, 9, 42, 110
4, 19407, Note_on_c, 9, 42, 0
4, 19440, Note_on_c, 9, 36, 110
4, 19440, Note_on_c, 9, 42, 110
4, 19467, Note_on_c, 9, 36, 0
4, 19472, Note_on_c, 9, 42, 0
4, 19500, Note_on_c, 9, 36, 110
4, 19539, Note_on_c, 9, 36, 0
4, 19560, Note_on_c, 9, 40, 110
4, 19560, Note_on_c, 9, 42, 110
4, 19587, Note_on_c, 9, 42, 0
4, 19587, Note_on_c, 9, 40, 0
4, 19620, Note_on_c, 9, 42, 110
4, 19640, Note_on_c, 9, 42, 0
4, 19680, Note_on_c, 9, 36, 110
4, 19680, Note_on_c, 9, 42, 110
4, 19704, Note_on_c, 9, 42, 0
4, 19716, Note_on_c, 9, 36, 0
4, 19740, Note_on_c, 9, 42, 110
4, 19756, Note_on_c, 9, 42, 0
4, 19800, Note_on_c, 9, 40, 110
4, 19800, Note_on_c, 9, 42, 110
4, 19819, Note_on_c, 9, 42, 0
4, 19836, Note_on_c, 9, 40, 0
4, 19860, Note_on_c, 9, 42, 110
4, 19891, Note_on_c, 9, 42, 0
4, 19920, Note_on_c, 9, 36, 110
4, 19920, Note_on_c, 9, 42, 110
4, 19947, Note_on_c, 9, 42, 0
4, 19959, Note_on_c, 9, 36, 0
4, 19980, Note_on_c, 9, 36, 110
4, 20019, Note_on_c, 9, 36, 0
4, 20040, Note_on_c, 9, 40, 110
4, 20040, Note_on_c, 9, 42, 110
4, 20060, Note_on_c, 9, 42, 0
4, 20079, Note_on_c, 9, 40, 0
4, 20100, Note_on_c, 9, 42, 110
4, 20119, Note_on_c, 9, 42, 0
4, 20160, Note_on_c, 9, 36, 110
4, 20160, Note_on_c, 9, 42, 110
4, 20184, Note_on_c, 9, 42, 0
4, 20191, Note_on_c, 9, 36, 0
4, 20220, Note_on_c, 9, 42, 110
4, 20236, Note_on_c, 9, 42, 0
4, 20280, Note_on_c, 9, 40, 110
4, 20280, Note_on_c, 9, 42, 110
4, 20299, Note_on_c, 9, 42, 0
4, 20311, Note_on_c, 9, 40, 0
4, 20340, Note_on_c, 9, 42, 110
4, 20371, Note_on_c, 9, 42, 0
4, 20400, Note_on_c, 9, 36, 110
4, 20400, Note_on_c, 9, 42, 110
4, 20427, Note_on_c, 9, 42, 0
4, 20427, Note_on_c, 9, 36, 0
4, 20460, Note_on_c, 9, 36, 110
4, 20499, Note_on_c, 9, 36, 0
4, 20520, Note_on_c, 9, 40, 110
4, 20520, Note_on_c, 9, 42, 110
4, 20540, Note_on_c, 9, 42, 0
4, 20547, Note_on_c, 9, 40, 0
4, 20580, Note_on_c, 9, 42, 110
4, 20599, Note_on_c, 9, 42, 0
4, 20640, Note_on_c, 9, 36, 110
4, 20640, Note_on_c, 9, 42, 110
4, 20668, Note_on_c, 9, 42, 0
4, 20676, Note_on_c, 9, 36, 0
4, 20700, Note_on_c, 9, 42, 110
4, 20727, Note_on_c, 9, 42, 0
4, 20760, Note_on_c, 9, 40, 110
4, 20760, Note_on_c, 9, 42, 110
4, 20779, Note_on_c, 9, 42, 0
4, 20796, Note_on_c, 9, 40, 0
4, 20820, Note_on_c, 9, 42, 110
4, 20847, Note_on_c, 9, 42, 0
4, 20880, Note_on_c, 9, 36, 110
4, 20880, Note_on_c, 9, 42, 110
4, 20908, Note_on_c, 9, 42, 0
4, 20919, Note_on_c, 9, 36, 0
4, 20940, Note_on_c, 9, 36, 110
4, 20979, Note_on_c, 9, 36, 0
4, 21000, Note_on_c, 9, 40, 110
4, 21000, Note_on_c, 9, 42, 110
4, 21035, Note_on_c, 9, 42, 0
4, 21039, Note_on_c, 9, 40, 0
4, 21060, Note_on_c, 9, 42, 110
4, 21087, Note_on_c, 9, 42, 0
4, 21120, Note_on_c, 9, 36, 110
4, 21120, Note_on_c, 9, 42, 110
4, 21144, Note_on_c, 9, 42, 0
4, 21151, Note_on_c, 9, 36, 0
4, 21180, Note_on_c, 9, 42, 110
4, 21196, Note_on_c, 9, 42, 0
4, 21240, Note_on_c, 9, 40, 110
4, 21240, Note_on_c, 9, 42, 110
4, 21259, Note_on_c, 9, 42, 0
4, 21271, Note_on_c, 9, 40, 0
4, 21300, Note_on_c, 9, 42, 110
4, 21331, Note_on_c, 9, 42, 0
4, 21360, Note_on_c, 9, 36, 110
4, 21360, Note_on_c, 9, 42, 110
4, 21387, Note_on_c, 9, 42, 0
4, 21387, Note_on_c, 9, 36, 0
4, 21420, Note_on_c, 9, 36, 110
4, 21459, Note_on_c, 9, 36, 0
4, 21480, Note_on_c, 9, 40, 110
4, 21480, Note_on_c, 9, 42, 110
4, 21500, Note_on_c, 9, 42, 0
4, 21507, Note_on_c, 9, 40, 0
4, 21540, Note_on_c, 9, 42, 110
4, 21559, Note_on_c, 9, 42, 0
4, 21600, Note_on_c, 9, 36, 110
4, 21600, Note_on_c, 9, 42, 110
4, 21631, Note_on_c, 9, 42, 0
4, 21636, Note_on_c, 9, 36, 0
4, 21660, Note_on_c, 9, 42, 110
4, 21683, Note_on_c, 9, 42, 0
4, 21720, Note_on_c, 9, 40, 110
4, 21720, Note_on_c, 9, 42, 110
4, 21756, Note_on_c, 9, 40, 0
4, 21760, Note_on_c, 9, 42, 0
4, 21780, Note_on_c, 9, 42, 110
4, 21807, Note_on_c, 9, 42, 0
4, 21840, Note_on_c, 9, 36, 110
4, 21840, Note_on_c, 9, 42, 110
4, 21872, Note_on_c, 9, 42, 0
4, 21879, Note_on_c, 9, 36, 0
4, 21900, Note_on_c, 9, 36, 110
4, 21939, Note_on_c, 9, 36, 0
4, 21960, Note_on_c, 9, 40, 110
4, 21960, Note_on_c, 9, 42, 110
4, 21987, Note_on_c, 9, 42, 0
4, 21999, Note_on_c, 9, 40, 0
4, 22020, Note_on_c, 9, 42, 110
4, 22040, Note_on_c, 9, 42, 0
4, 22080, Note_on_c, 9, 36, 110
4, 22080, Note_on_c, 9, 42, 110
4, 22104, Note_on_c, 9, 42, 0
4, 22111, Note_on_c, 9, 36, 0
4, 22140, Note_on_c, 9, 42, 110
4, 22156, Note_on_c, 9, 42, 0
4, 22200, Note_on_c, 9, 40, 110
4, 22200, Note_on_c, 9, 42, 110
4, 22219, Note_on_c, 9, 42, 0
4, 22231, Note_on_c, 9, 40, 0
4, 22260, Note_on_c, 9, 42, 110
4, 22291, Note_on_c, 9, 42, 0
4, 22320, Note_on_c, 9, 36, 110
4, 22320, Note_on_c, 9, 42, 110
4, 22347, Note_on_c, 9, 42, 0
4, 22347, Note_on_c, 9, 36, 0
4, 22380, Note_on_c, 9, 36, 110
4, 22419, Note_on_c, 9, 36, 0
4, 22440, Note_on_c, 9, 40, 110
4, 22440, Note_on_c, 9, 42, 110
4, 22460, Note_on_c, 9, 42, 0
4, 22467, Note_on_c, 9, 40, 0
4, 22500, Note_on_c, 9, 42, 110
4, 22519, Note_on_c, 9, 42, 0
4, 22560, Note_on_c, 9, 36, 110
4, 22560, Note_on_c, 9, 42, 110
4, 22584, Note_on_c, 9, 42, 0
4, 22596, Note_on_c, 9, 36, 0
4, 22620, Note_on_c, 9, 42, 110
4, 22636, Note_on_c, 9, 42, 0
4, 22680, Note_on_c, 9, 40, 110
4, 22680, Note_on_c, 9, 42, 110
4, 22699, Note_on_c, 9, 42, 0
4, 22716, Note_on_c, 9, 40, 0
4, 22740, Note_on_c, 9, 42, 110
4, 22771, Note_on_c, 9, 42, 0
4, 22800, Note_on_c, 9, 36, 110
4, 22800, Note_on_c, 9, 42, 110
4, 22827, Note_on_c, 9, 42, 0
4, 22839, Note_on_c, 9, 36, 0
4, 22860, Note_on_c, 9, 36, 110
4, 22899, Note_on_c, 9, 36, 0
4, 22920, Note_on_c, 9, 40, 110
4, 22920, Note_on_c, 9, 42, 110
4, 22940, Note_on_c, 9, 42, 0
4, 22959, Note_on_c, 9, 40, 0
4, 22980, Note_on_c, 9, 42, 110
4, 22999, Note_on_c, 9, 42, 0
4, 23040, Note_on_c, 9, 36, 110
4, 23040, Note_on_c, 9, 42, 110
4, 23068, Note_on_c, 9, 42, 0
4, 23071, Note_on_c, 9, 36, 0
4, 23100, Note_on_c, 9, 42, 110
4, 23127, Note_on_c, 9, 42, 0
4, 23160, Note_on_c, 9, 40, 110
4, 23160, Note_on_c, 9, 42, 110
4, 23179, Note_on_c, 9, 42, 0
4, 23191, Note_on_c, 9, 40, 0
4, 23220, Note_on_c, 9, 42, 110
4, 23247, Note_on_c, 9, 42, 0
4, 23280, Note_on_c, 9, 36, 110
4, 23280, Note_on_c, 9, 42, 110
4, 23307, Note_on_c, 9, 36, 0
4, 23308, Note_on_c, 9, 42, 0
4, 23340, Note_on_c, 9, 36, 110
4, 23379, Note_on_c, 9, 36, 0
4, 23400, Note_on_c, 9, 40, 110
4, 23400, Note_on_c, 9, 42, 110
4, 23427, Note_on_c, 9, 40, 0
4, 23435, Note_on_c, 9, 42, 0
4, 23460, Note_on_c, 9, 42, 110
4, 23487, Note_on_c, 9, 42, 0
4, 23520, Note_on_c, 9, 36, 110
4, 23520, Note_on_c, 9, 42, 110
4, 23544, Note_on_c, 9, 42, 0
4, 23556, Note_on_c, 9, 36, 0
4, 23580, Note_on_c, 9, 42, 110
4, 23596, Note_on_c, 9, 42, 0
4, 23640, Note_on_c, 9, 40, 110
4, 23640, Note_on_c, 9, 42, 110
4, 23659, Note_on_c, 9, 42, 0
4, 23676, Note_on_c, 9, 40, 0
4, 23700, Note_on_c, 9, 42, 110
4, 23731, Note_on_c, 9, 42, 0
4, 23760, Note_on_c, 9, 36, 110
4, 23760, Note_on_c, 9, 42, 110
4, 23787, Note_on_c, 9, 42, 0
4, 23799, Note_on_c, 9, 36, 0
4, 23820, Note_on_c, 9, 36, 110
4, 23859, Note_on_c, 9, 36, 0
4, 23880, Note_on_c, 9, 40, 110
4, 23880, Note_on_c, 9, 42, 110
4, 23900, Note_on_c, 9, 42, 0
4, 23919, Note_on_c, 9, 40, 0
4, 23940, Note_on_c, 9, 42, 110
4, 23959, Note_on_c, 9, 42, 0
4, 24000, Note_on_c, 9, 36, 110
4, 24000, Note_on_c, 9, 42, 110
4, 24031, Note_on_c, 9, 42, 0
4, 24031, Note_on_c, 9, 36, 0
4, 24060, Note_on_c, 9, 42, 110
4, 24083, Note_on_c, 9, 42, 0
4, 24120, Note_on_c, 9, 40, 110
4, 24120, Note_on_c, 9, 42, 110
4, 24151, Note_on_c, 9, 40, 0
4, 24160, Note_on_c, 9, 42, 0
4, 24180, Note_on_c, 9, 42, 110
4, 24207, Note_on_c, 9, 42, 0
4, 24240, Note_on_c, 9, 36, 110
4, 24240, Note_on_c, 9, 42, 110
4, 24267, Note_on_c, 9, 36, 0
4, 24272, Note_on_c, 9, 42, 0
4, 24300, Note_on_c, 9, 36, 110
4, 24339, Note_on_c, 9, 36, 0
4, 24360, Note_on_c, 9, 40, 110
4, 24360, Note_on_c, 9, 42, 110
4, 24387, Note_on_c, 9, 42, 0
4, 24387, Note_on_c, 9, 40, 0
4, 24420, Note_on_c, 9, 42, 110
4, 24440, Note_on_c, 9, 42, 0
4, 24480, Note_on_c, 9, 36, 110
4, 24480, Note_on_c, 9, 42, 110
4, 24504, Note_on_c, 9, 42, 0
4, 24516, Note_on_c, 9, 36, 0
4, 24540, Note_on_c, 9, 42, 110
4, 24556, Note_on_c, 9, 42, 0
4, 24600, Note_on_c, 9, 40, 110
4, 24600, Note_on_c, 9, 42, 110
4, 24619, Note_on_c, 9, 42, 0
4, 24636, Note_on_c, 9, 40, 0
4, 24660, Note_on_c, 9, 42, 110
4, 24691, Note_on_c, 9, 42, 0
4, 24720, Note_on_c, 9, 36, 110
4, 24720, Note_on_c, 9, 42, 110
4, 24747, Note_on_c, 9, 42, 0
4, 24759, Note_on_c, 9, 36, 0
4, 24780, Note_on_c, 9, 36, 110
4, 24819, Note_on_c, 9, 36, 0
4, 24840, Note_on_c, 9, 40, 110
4, 24840, Note_on_c, 9, 42, 110
4, 24860, Note_on_c, 9, 42, 0
4, 24879, Note_on_c, 9, 40, 0
4, 24900, Note_on_c, 9, 42, 110
4, 24919, Note_on_c, 9, 42, 0
4, 24960, Note_on_c, 9, 36, 110
4, 24960, Note_on_c, 9, 42, 110
4, 24984, Note_on_c, 9, 42, 0
4, 24991, Note_on_c, 9, 36, 0
4, 25020, Note_on_c, 9, 42, 110
4, 25036, Note_on_c, 9, 42, 0
4, 25080, Note_on_c, 9, 40, 110
4, 25080, Note_on_c, 9, 42, 110
4, 25099, Note_on_c, 9, 42, 0
4, 25111, Note_on_c, 9, 40, 0
4, 25140, Note_on_c, 9, 42, 110
4, 25171, Note_on_c, 9, 42, 0
4, 25200, Note_on_c, 9, 36, 110
4, 25200, Note_on_c, 9, 42, 110
4, 25227, Note_on_c, 9, 42, 0
4, 25227, Note_on_c, 9, 36, 0
4, 25260, Note_on_c, 9, 36, 110
4, 25299, Note_on_c, 9, 36, 0
4, 25320, Note_on_c, 9, 40, 110
4, 25320, Note_on_c, 9, 42, 110
4, 25340, Note_on_c, 9, 42, 0
4, 25347, Note_on_c, 9, 40, 0
4, 25380, Note_on_c, 9, 42, 110
4, 25399, Note_on_c, 9, 42, 0
4, 25440, Note_on_c, 9, 42, 110
4, 25440, Note_on_c, 9, 46, 110
4, 25467, Note_on_c, 9, 46, 0
4, 25468, Note_on_c, 9, 42, 0
4, 25560, Note_on_c, 9, 42, 110
4, 25579, Note_on_c, 9, 42, 0
4, 25800, Note_on_c, 9, 42, 110
4, 25835, Note_on_c, 9, 42, 0
4, 25920, Note_on_c, 9, 42, 110
4, 25920, Note_on_c, 9, 46, 110
4, 25944, Note_on_c, 9, 42, 0
4, 25947, Note_on_c, 9, 46, 0
4, 26040, Note_on_c, 9, 42, 110
4, 26059, Note_on_c, 9, 42, 0
4, 26280, Note_on_c, 9, 42, 110
4, 26300, Note_on_c, 9, 42, 0
4, 26400, Note_on_c, 9, 42, 110
4, 26400, Note_on_c, 9, 46, 110
4, 26419, Note_on_c, 9, 46, 0
4, 26431, Note_on_c, 9, 42, 0
4, 26520, Note_on_c, 9, 42, 110
4, 26560, Note_on_c, 9, 42, 0
4, 26760, Note_on_c, 9, 42, 110
4, 26787, Note_on_c, 9, 42, 0
4, 26880, Note_on_c, 9, 42, 110
4, 26880, Note_on_c, 9, 46, 110
4, 26900, Note_on_c, 9, 46, 0
4, 26904, Note_on_c, 9, 42, 0
4, 27000, Note_on_c, 9, 42, 110
4, 27027, Note_on_c, 9, 42, 0
4, 27180, Note_on_c, 9, 36, 110
4, 27180, Note_on_c, 9, 45, 110
4, 27199, Note_on_c, 9, 45, 0
4, 27210, Note_on_c, 9, 47, 110
4, 27219, Note_on_c, 9, 36, 0
4, 27229, Note_on_c, 9, 47, 0
4, 27240, Note_on_c, 9, 40, 110
4, 27240, Note_on_c, 9, 42, 110
4, 27240, Note_on_c, 9, 47, 110
4, 27259, Note_on_c, 9, 47, 0
4, 27260, Note_on_c, 9, 42, 0
4, 27267, Note_on_c, 9, 40, 0
4, 27300, Note_on_c, 9, 40, 110
4, 27300, Note_on_c, 9, 42, 110
4, 27300, Note_on_c, 9, 47, 110
4, 27301, Note_on_c, 9, 40, 0
4, 27319, Note_on_c, 9, 47, 0
4, 27319, Note_on_c, 9, 42, 0
4, 27330, Note_on_c, 9, 40, 110
4, 27331, Note_on_c, 9, 40, 0
4, 27360, Note_on_c, 9, 36, 110
4, 27360, Note_on_c, 9, 42, 110
4, 27384, Note_on_c, 9, 42, 0
4, 27396, Note_on_c, 9, 36, 0
4, 27420, Note_on_c, 9, 42, 110
4, 27436, Note_on_c, 9, 42, 0
4, 27480, Note_on_c, 9, 40, 110
4, 27480, Note_on_c, 9, 42, 110
4, 27499, Note_on_c, 9, 42, 0
4, 27516, Note_on_c, 9, 40, 0
4, 27540, Note_on_c, 9, 42, 110
4, 27571, Note_on_c, 9, 42, 0
4, 27600, Note_on_c, 9, 36, 110
4, 27600, Note_on_c, 9, 42, 110
4, 27627, Note_on_c, 9, 42, 0
4, 27639, Note_on_c, 9, 36, 0
4, 27660, Note_on_c, 9, 36, 110
4, 27699, Note_on_c, 9, 36, 0
4, 27720, Note_on_c, 9, 40, 110
4, 27720, Note_on_c, 9, 42, 110
4, 27740, Note_on_c, 9, 42, 0
4, 27759, Note_on_c, 9, 40, 0
4, 27780, Note_on_c, 9, 42, 110
4, 27799, Note_on_c, 9, 42, 0
4, 27840, Note_on_c, 9, 36, 110
4, 27840, Note_on_c, 9, 42, 110
4, 27868, Note_on_c, 9, 42, 0
4, 27871, Note_on_c, 9, 36, 0
4, 27900, Note_on_c, 9, 42, 110
4, 27927, Note_on_c, 9, 42, 0
4, 27960, Note_on_c, 9, 40, 110
4, 27960, Note_on_c, 9, 42, 110
4, 27979, Note_on_c, 9, 42, 0
4, 27991, Note_on_c, 9, 40, 0
4, 28020, Note_on_c, 9, 42, 110
4, 28047, Note_on_c, 9, 42, 0
4, 28080, Note_on_c, 9, 36, 110
4, 28080, Note_on_c, 9, 42, 110
4, 28107, Note_on_c, 9, 36, 0
4, 28108, Note_on_c, 9, 42, 0
4, 28140, Note_on_c, 9, 36, 110
4, 28179, Note_on_c, 9, 36, 0
4, 28200, Note_on_c, 9, 40, 110
4, 28200, Note_on_c, 9, 42, 110
4, 28227, Note_on_c, 9, 40, 0
4, 28235, Note_on_c, 9, 42, 0
4, 28260, Note_on_c, 9, 42, 110
4, 28287, Note_on_c, 9, 42, 0
4, 28320, Note_on_c, 9, 36, 110
4, 28320, Note_on_c, 9, 42, 110
4, 28344, Note_on_c, 9, 42, 0
4, 28356, Note_on_c, 9, 36, 0
4, 28380, Note_on_c, 9, 42, 110
4, 28396, Note_on_c, 9, 42, 0
4, 28440, Note_on_c, 9, 40, 110
4, 28440, Note_on_c, 9, 42, 110
4, 28459, Note_on_c, 9, 42, 0
4, 28476, Note_on_c, 9, 40, 0
4, 28500, Note_on_c, 9, 42, 110
4, 28531, Note_on_c, 9, 42, 0
4, 28560, Note_on_c, 9, 36, 110
4, 28560, Note_on_c, 9, 42, 110
4, 28587, Note_on_c, 9, 42, 0
4, 28599, Note_on_c, 9, 36, 0
4, 28620, Note_on_c, 9, 36, 110
4, 28659, Note_on_c, 9, 36, 0
4, 28680, Note_on_c, 9, 40, 110
4, 28680, Note_on_c, 9, 42, 110
4, 28700, Note_on_c, 9, 42, 0
4, 28719, Note_on_c, 9, 40, 0
4, 28740, Note_on_c, 9, 42, 110
4, 28759, Note_on_c, 9, 42, 0
4, 28800, Note_on_c, 9, 36, 110
4, 28800, Note_on_c, 9, 42, 110
4, 28831, Note_on_c, 9, 42, 0
4, 28831, Note_on_c, 9, 36, 0
4, 28860, Note_on_c, 9, 42, 110
4, 28883, Note_on_c, 9, 42, 0
4, 28920, Note_on_c, 9, 40, 110
4, 28920, Note_on_c, 9, 42, 110
4, 28951, Note_on_c, 9, 40, 0
4, 28960, Note_on_c, 9, 42, 0
4, 28980, Note_on_c, 9, 42, 110
4, 29007, Note_on_c, 9, 42, 0
4, 29010, Note_on_c, 9, 36, 110
4, 29010, Note_on_c, 9, 45, 110
4, 29029, Note_on_c, 9, 45, 0
4, 29040, Note_on_c, 9, 36, 110
4, 29040, Note_on_c, 9, 42, 110
4, 29049, Note_on_c, 9, 36, 0
4, 29067, Note_on_c, 9, 36, 0
4, 29072, Note_on_c, 9, 42, 0
4, 29100, Note_on_c, 9, 40, 110
4, 29100, Note_on_c, 9, 45, 110
4, 29101, Note_on_c, 9, 40, 0
4, 29119, Note_on_c, 9, 45, 0
4, 29130, Note_on_c, 9, 47, 110
4, 29149, Note_on_c, 9, 47, 0
4, 29160, Note_on_c, 9, 40, 110
4, 29160, Note_on_c, 9, 42, 110
4, 29160, Note_on_c, 9, 47, 110
4, 29179, Note_on_c, 9, 47, 0
4, 29187, Note_on_c, 9, 42, 0
4, 29187, Note_on_c, 9, 40, 0
4, 29220, Note_on_c, 9, 42, 110
4, 29220, Note_on_c, 9, 47, 110
4, 29239, Note_on_c, 9, 47, 0
4, 29240, Note_on_c, 9, 42, 0
4, 29280, Note_on_c, 9, 36, 110
4, 29280, Note_on_c, 9, 42, 110
4, 29304, Note_on_c, 9, 42, 0
4, 29316, Note_on_c, 9, 36, 0
4, 29340, Note_on_c, 9, 42, 110
4, 29356, Note_on_c, 9, 42, 0
4, 29400, Note_on_c, 9, 40, 110
4, 29400, Note_on_c, 9, 42, 110
4, 29419, Note_on_c, 9, 42, 0
4, 29436, Note_on_c, 9, 40, 0
4, 29460, Note_on_c, 9, 42, 110
4, 29491, Note_on_c, 9, 42, 0
4, 29520, Note_on_c, 9, 36, 110
4, 29520, Note_on_c, 9, 42, 110
4, 29547, Note_on_c, 9, 42, 0
4, 29559, Note_on_c, 9, 36, 0
4, 29580, Note_on_c, 9, 36, 110
4, 29619, Note_on_c, 9, 36, 0
4, 29640, Note_on_c, 9, 40, 110
4, 29640, Note_on_c, 9, 42, 110
4, 29660, Note_on_c, 9, 42, 0
4, 29679, Note_on_c, 9, 40, 0
4, 29700, Note_on_c, 9, 42, 110
4, 29719, Note_on_c, 9, 42, 0
4, 29760, Note_on_c, 9, 36, 110
4, 29760, Note_on_c, 9, 42, 110
4, 29784, Note_on_c, 9, 42, 0
4, 29791, Note_on_c, 9, 36, 0
4, 29820, Note_on_c, 9, 42, 110
4, 29836, Note_on_c, 9, 42, 0
4, 29880, Note_on_c, 9, 40, 110
4, 29880, Note_on_c, 9, 42, 110
4, 29899, Note_on_c, 9, 42, 0
4, 29911, Note_on_c, 9, 40, 0
4, 29940, Note_on_c, 9, 42, 110
4, 29971, Note_on_c, 9, 42, 0
4, 30000, Note_on_c, 9, 36, 110
4, 30000, Note_on_c, 9, 42, 110
4, 30027, Note_on_c, 9, 42, 0
4, 30027, Note_on_c, 9, 36, 0
4, 30060, Note_on_c, 9, 36, 110
4, 30099, Note_on_c, 9, 36, 0
4, 30120, Note_on_c, 9, 40, 110
4, 30120, Note_on_c, 9, 42, 110
4, 30140, Note_on_c, 9, 42, 0
4, 30147, Note_on_c, 9, 40, 0
4, 30180, Note_on_c, 9, 42, 110
4, 30199, Note_on_c, 9, 42, 0
4, 30240, Note_on_c, 9, 36, 110
4, 30240, Note_on_c, 9, 42, 110
4, 30268, Note_on_c, 9, 42, 0
4, 30276, Note_on_c, 9, 36, 0
4, 30300, Note_on_c, 9, 42, 110
4, 30327, Note_on_c, 9, 42, 0
4, 30360, Note_on_c, 9, 40, 110
4, 30360, Note_on_c, 9, 42, 110
4, 30379, Note_on_c, 9, 42, 0
4, 30396, Note_on_c, 9, 40, 0
4, 30420, Note_on_c, 9, 42, 110
4, 30447, Note_on_c, 9, 42, 0
4, 30480, Note_on_c, 9, 36, 110
4, 30480, Note_on_c, 9, 42, 110
4, 30508, Note_on_c, 9, 42, 0
4, 30519, Note_on_c, 9, 36, 0
4, 30540, Note_on_c, 9, 36, 110
4, 30579, Note_on_c, 9, 36, 0
4, 30600, Note_on_c, 9, 40, 110
4, 30600, Note_on_c, 9, 42, 110
4, 30635, Note_on_c, 9, 42, 0
4, 30639, Note_on_c, 9, 40, 0
4, 30660, Note_on_c, 9, 42, 110
4, 30687, Note_on_c, 9, 42, 0
4, 30720, Note_on_c, 9, 36, 110
4, 30720, Note_on_c, 9, 42, 110
4, 30744, Note_on_c, 9, 42, 0
4, 30751, Note_on_c, 9, 36, 0
4, 30780, Note_on_c, 9, 42, 110
4, 30796, Note_on_c, 9, 42, 0
4, 30840, Note_on_c, 9, 40, 110
4, 30840, Note_on_c, 9, 42, 110
4, 30859, Note_on_c, 9, 42, 0
4, 30871, Note_on_c, 9, 40, 0
4, 30900, Note_on_c, 9, 42, 110
4, 30930, Note_on_c, 9, 36, 110
4, 30930, Note_on_c, 9, 45, 110
4, 30931, Note_on_c, 9, 36, 0
4, 30931, Note_on_c, 9, 42, 0
4, 30949, Note_on_c, 9, 45, 0
4, 30960, Note_on_c, 9, 36, 110
4, 30960, Note_on_c, 9, 42, 110
4, 30987, Note_on_c, 9, 42, 0
4, 30987, Note_on_c, 9, 36, 0
4, 31020, Note_on_c, 9, 36, 110
4, 31020, Note_on_c, 9, 45, 110
4, 31039, Note_on_c, 9, 45, 0
4, 31050, Note_on_c, 9, 47, 110
4, 31059, Note_on_c, 9, 36, 0
4, 31069, Note_on_c, 9, 47, 0
4, 31080, Note_on_c, 9, 40, 110
4, 31080, Note_on_c, 9, 42, 110
4, 31080, Note_on_c, 9, 47, 110
4, 31099, Note_on_c, 9, 47, 0
4, 31100, Note_on_c, 9, 42, 0
4, 31107, Note_on_c, 9, 40, 0
4, 31140, Note_on_c, 9, 42, 110
4, 31140, Note_on_c, 9, 47, 110
4, 31159, Note_on_c, 9, 47, 0
4, 31159, Note_on_c, 9, 42, 0
4, 31200, Note_on_c, 9, 36, 110
4, 31200, Note_on_c, 9, 42, 110
4, 31231, Note_on_c, 9, 42, 0
4, 31236, Note_on_c, 9, 36, 0
4, 31260, Note_on_c, 9, 42, 110
4, 31283, Note_on_c, 9, 42, 0
4, 31320, Note_on_c, 9, 40, 110
4, 31320, Note_on_c, 9, 42, 110
4, 31356, Note_on_c, 9, 40, 0
4, 31360, Note_on_c, 9, 42, 0
4, 31380, Note_on_c, 9, 42, 110
4, 31407, Note_on_c, 9, 42, 0
4, 31440, Note_on_c, 9, 36, 110
4, 31440, Note_on_c, 9, 42, 110
4, 31472, Note_on_c, 9, 42, 0
4, 31479, Note_on_c, 9, 36, 0
4, 31500, Note_on_c, 9, 36, 110
4, 31539, Note_on_c, 9, 36, 0
4, 31560, Note_on_c, 9, 40, 110
4, 31560, Note_on_c, 9, 42, 110
4, 31587, Note_on_c, 9, 42, 0
4, 31599, Note_on_c, 9, 40, 0
4, 31620, Note_on_c, 9, 42, 110
4, 31640, Note_on_c, 9, 42, 0
4, 31680, Note_on_c, 9, 36, 110
4, 31680, Note_on_c, 9, 42, 110
4, 31704, Note_on_c, 9, 42, 0
4, 31711, Note_on_c, 9, 36, 0
4, 31740, Note_on_c, 9, 42, 110
4, 31756, Note_on_c, 9, 42, 0
4, 31800, Note_on_c, 9, 40, 110
4, 31800, Note_on_c, 9, 42, 110
4, 31819, Note_on_c, 9, 42, 0
4, 31831, Note_on_c, 9, 40, 0
4, 31860, Note_on_c, 9, 42, 110
4, 31891, Note_on_c, 9, 42, 0
4, 31920, Note_on_c, 9, 36, 110
4, 31920, Note_on_c, 9, 42, 110
4, 31947, Note_on_c, 9, 42, 0
4, 31947, Note_on_c, 9, 36, 0
4, 31980, Note_on_c, 9, 36, 110
4, 32019, Note_on_c, 9, 36, 0
4, 32040, Note_on_c, 9, 40, 110
4, 32040, Note_on_c, 9, 42, 110
4, 32060, Note_on_c, 9, 42, 0
4, 32067, Note_on_c, 9, 40, 0
4, 32100, Note_on_c, 9, 42, 110
4, 32119, Note_on_c, 9, 42, 0
4, 32160, Note_on_c, 9, 36, 110
4, 32160, Note_on_c, 9, 42, 110
4, 32184, Note_on_c, 9, 42, 0
4, 32196, Note_on_c, 9, 36, 0
4, 32220, Note_on_c, 9, 42, 110
4, 32236, Note_on_c, 9, 42, 0
4, 32280, Note_on_c, 9, 40, 110
4, 32280, Note_on_c, 9, 42, 110
4, 32299, Note_on_c, 9, 42, 0
4, 32316, Note_on_c, 9, 40, 0
4, 32340, Note_on_c, 9, 42, 110
4, 32370, Note_on_c, 9, 36, 110
4, 32371, Note_on_c, 9, 36, 0
4, 32371, Note_on_c, 9, 42, 0
4, 32400, Note_on_c, 9, 36, 110
4, 32400, Note_on_c, 9, 42, 110
4, 32427, Note_on_c, 9, 42, 0
4, 32439, Note_on_c, 9, 36, 0
4, 32460, Note_on_c, 9, 36, 110
4, 32499, Note_on_c, 9, 36, 0
4, 32520, Note_on_c, 9, 40, 110
4, 32520, Note_on_c, 9, 42, 110
4, 32540, Note_on_c, 9, 42, 0
4, 32559, Note_on_c, 9, 40, 0
4, 32580, Note_on_c, 9, 42, 110
4, 32599, Note_on_c, 9, 42, 0
4, 32640, Note_on_c, 9, 36, 110
4, 32640, Note_on_c, 9, 42, 110
4, 32668, Note_on_c, 9, 42, 0
4, 32671, Note_on_c, 9, 36, 0
4, 32700, Note_on_c, 9, 42, 110
4, 32727, Note_on_c, 9, 42, 0
4, 32760, Note_on_c, 9, 40, 110
4, 32760, Note_on_c, 9, 42, 110
4, 32779, Note_on_c, 9, 42, 0
4, 32791, Note_on_c, 9, 40, 0
4, 32820, Note_on_c, 9, 42, 110
4, 32847, Note_on_c, 9, 42, 0
4, 32850, Note_on_c, 9, 45, 110
4, 32869, Note_on_c, 9, 45, 0
4, 32880, Note_on_c, 9, 36, 110
4, 32880, Note_on_c, 9, 42, 110
4, 32907, Note_on_c, 9, 36, 0
4, 32908, Note_on_c, 9, 42, 0
4, 32940, Note_on_c, 9, 36, 110
4, 32940, Note_on_c, 9, 45, 110
4, 32959, Note_on_c, 9, 45, 0
4, 32970, Note_on_c, 9, 47, 110
4, 32979, Note_on_c, 9, 36, 0
4, 32989, Note_on_c, 9, 47, 0
4, 33000, Note_on_c, 9, 40, 110
4, 33000, Note_on_c, 9, 42, 110
4, 33000, Note_on_c, 9, 47, 110
4, 33019, Note_on_c, 9, 47, 0
4, 33027, Note_on_c, 9, 40, 0
4, 33035, Note_on_c, 9, 42, 0
4, 33060, Note_on_c, 9, 42, 110
4, 33060, Note_on_c, 9, 47, 110
4, 33079, Note_on_c, 9, 47, 0
4, 33087, Note_on_c, 9, 42, 0
4, 33120, Note_on_c, 9, 36, 110
4, 33120, Note_on_c, 9, 42, 110
4, 33144, Note_on_c, 9, 42, 0
4, 33156, Note_on_c, 9, 36, 0
4, 33180, Note_on_c, 9, 42, 110
4, 33196, Note_on_c, 9, 42, 0
4, 33240, Note_on_c, 9, 40, 110
4, 33240, Note_on_c, 9, 42, 110
4, 33259, Note_on_c, 9, 42, 0
4, 33276, Note_on_c, 9, 40, 0
4, 33300, Note_on_c, 9, 42, 110
4, 33331, Note_on_c, 9, 42, 0
4, 33360, Note_on_c, 9, 36, 110
4, 33360, Note_on_c, 9, 42, 110
4, 33387, Note_on_c, 9, 42, 0
4, 33399, Note_on_c, 9, 36, 0
4, 33420, Note_on_c, 9, 36, 110
4, 33459, Note_on_c, 9, 36, 0
4, 33480, Note_on_c, 9, 40, 110
4, 33480, Note_on_c, 9, 42, 110
4, 33500, Note_on_c, 9, 42, 0
4, 33519, Note_on_c, 9, 40, 0
4, 33540, Note_on_c, 9, 42, 110
4, 33559, Note_on_c, 9, 42, 0
4, 33600, Note_on_c, 9, 36, 110
4, 33600, Note_on_c, 9, 42, 110
4, 33631, Note_on_c, 9, 42, 0
4, 33631, Note_on_c, 9, 36, 0
4, 33660, Note_on_c, 9, 42, 110
4, 33683, Note_on_c, 9, 42, 0
4, 33720, Note_on_c, 9, 40, 110
4, 33720, Note_on_c, 9, 42, 110
4, 33751, Note_on_c, 9, 40, 0
4, 33760, Note_on_c, 9, 42, 0
4, 33780, Note_on_c, 9, 42, 110
4, 33807, Note_on_c, 9, 42, 0
4, 33840, Note_on_c, 9, 36, 110
4, 33840, Note_on_c, 9, 42, 110
4, 33867, Note_on_c, 9, 36, 0
4, 33872, Note_on_c, 9, 42, 0
4, 33900, Note_on_c, 9, 36, 110
4, 33939, Note_on_c, 9, 36, 0
4, 33960, Note_on_c, 9, 40, 110
4, 33960, Note_on_c, 9, 42, 110
4, 33987, Note_on_c, 9, 42, 0
4, 33987, Note_on_c, 9, 40, 0
4, 34020, Note_on_c, 9, 42, 110
4, 34040, Note_on_c, 9, 42, 0
4, 34080, Note_on_c, 9, 36, 110
4, 34080, Note_on_c, 9, 42, 110
4, 34080, Note_on_c, 9, 49, 100
4, 34096, Note_on_c, 9, 49, 0
4, 34104, Note_on_c, 9, 42, 0
4, 34116, Note_on_c, 9, 36, 0
4, 34560, Note_on_c, 9, 36, 110
4, 34560, Note_on_c, 9, 42, 110
4, 34560, Note_on_c, 9, 49, 100
4, 34579, Note_on_c, 9, 49, 0
4, 34584, Note_on_c, 9, 42, 0
4, 34591, Note_on_c, 9, 36, 0
4, 35040, Note_on_c, 9, 36, 110
4, 35040, Note_on_c, 9, 42, 110
4, 35040, Note_on_c, 9, 49, 100
4, 35067, Note_on_c, 9, 49, 0
4, 35068, Note_on_c, 9, 42, 0
4, 35076, Note_on_c, 9, 36, 0
4, 35076, End_track
5, 0, Start_track
5, 0, MIDI_port, 0
5, 0, Title_t, "Track 1"
5, 0, Program_c, 2, 27
5, 0, Control_c, 2, 7, 115
5, 6215, Note_on_c, 2, 48, 70
5, 6225, Note_on_c, 2, 52, 70
5, 6230, Note_on_c, 2, 57, 70
5, 6240, Note_on_c, 2, 64, 70
5, 6632, Note_on_c, 2, 48, 0
5, 6642, Note_on_c, 2, 52, 0
5, 6647, Note_on_c, 2, 57, 0
5, 6657, Note_on_c, 2, 64, 0
5, 6695, Note_on_c, 2, 50, 70
5, 6705, Note_on_c, 2, 54, 70
5, 6710, Note_on_c, 2, 57, 70
5, 6720, Note_on_c, 2, 66, 70
5, 7112, Note_on_c, 2, 50, 0
5, 7122, Note_on_c, 2, 54, 0
5, 7127, Note_on_c, 2, 57, 0
5, 7137, Note_on_c, 2, 66, 0
5, 7175, Note_on_c, 2, 53, 70
5, 7185, Note_on_c, 2, 57, 70
5, 7190, Note_on_c, 2, 60, 70
5, 7205, Note_on_c, 2, 65, 70
5, 7592, Note_on_c, 2, 53, 0
5, 7602, Note_on_c, 2, 57, 0
5, 7607, Note_on_c, 2, 60, 0
5, 7622, Note_on_c, 2, 65, 0
5, 7650, Note_on_c, 2, 55, 70
5, 7665, Note_on_c, 2, 59, 70
5, 7670, Note_on_c, 2, 62, 70
5, 7680, Note_on_c, 2, 67, 70
5, 8067, Note_on_c, 2, 55, 0
5, 8082, Note_on_c, 2, 59, 0
5, 8087, Note_on_c, 2, 62, 0
5, 8097, Note_on_c, 2, 67, 0
5, 8282, Note_on_c, 2, 60, 105
5, 8282, Note_on_c, 2, 64, 105
5, 8297, Note_on_c, 2, 64, 0
5, 8297, Note_on_c, 2, 60, 0
5, 8462, Note_on_c, 2, 60, 105
5, 8462, Note_on_c, 2, 64, 105
5, 8477, Note_on_c, 2, 64, 0
5, 8477, Note_on_c, 2, 60, 0
5, 8760, Note_on_c, 2, 60, 105
5, 8760, Note_on_c, 2, 64, 105
5, 8775, Note_on_c, 2, 64, 0
5, 8775, Note_on_c, 2, 60, 0
5, 8940, Note_on_c, 2, 60, 105
5, 8940, Note_on_c, 2, 64, 105
5, 8955, Note_on_c, 2, 64, 0
5, 8955, Note_on_c, 2, 60, 0
5, 9240, Note_on_c, 2, 59, 105
5, 9240, Note_on_c, 2, 62, 105
5, 9240, Note_on_c, 2, 67, 105
5, 9255, Note_on_c, 2, 67, 0
5, 9255, Note_on_c, 2, 62, 0
5, 9255, Note_on_c, 2, 59, 0
5, 9420, Note_on_c, 2, 59, 105
5, 9420, Note_on_c, 2, 67, 105
5, 9425, Note_on_c, 2, 62, 105
5, 9435, Note_on_c, 2, 67, 0
5, 9435, Note_on_c, 2, 59, 0
5, 9440, Note_on_c, 2, 62, 0
5, 9720, Note_on_c, 2, 65, 105
5, 9720, Note_on_c, 2, 69, 105
5, 9720, Note_on_c, 2, 72, 105
5, 9735, Note_on_c, 2, 72, 0
5, 9735, Note_on_c, 2, 69, 0
5, 9735, Note_on_c, 2, 65, 0
5, 9900, Note_on_c, 2, 65, 105
5, 9900, Note_on_c, 2, 69, 105
5, 9900, Note_on_c, 2, 72, 105
5, 9915, Note_on_c, 2, 72, 0
5, 9915, Note_on_c, 2, 69, 0
5, 9915, Note_on_c, 2, 65, 0
5, 10201, Note_on_c, 2, 60, 105
5, 10201, Note_on_c, 2, 64, 105
5, 10216, Note_on_c, 2, 64, 0
5, 10216, Note_on_c, 2, 60, 0
5, 10381, Note_on_c, 2, 60, 105
5, 10381, Note_on_c, 2, 64, 105
5, 10396, Note_on_c, 2, 64, 0
5, 10396, Note_on_c, 2, 60, 0
5, 10679, Note_on_c, 2, 60, 105
5, 10679, Note_on_c, 2, 64, 105
5, 10694, Note_on_c, 2, 64, 0
5, 10694, Note_on_c, 2, 60, 0
5, 10859, Note_on_c, 2, 60, 105
5, 10859, Note_on_c, 2, 64, 105
5, 10874, Note_on_c, 2, 64, 0
5, 10874, Note_on_c, 2, 60, 0
5, 11160, Note_on_c, 2, 59, 105
5, 11160, Note_on_c, 2, 62, 105
5, 11160, Note_on_c, 2, 67, 105
5, 11175, Note_on_c, 2, 67, 0
5, 11175, Note_on_c, 2, 62, 0
5, 11175, Note_on_c, 2, 59, 0
5, 11340, Note_on_c, 2, 59, 105
5, 11340, Note_on_c, 2, 62, 105
5, 11340, Note_on_c, 2, 67, 105
5, 11355, Note_on_c, 2, 67, 0
5, 11355, Note_on_c, 2, 62, 0
5, 11355, Note_on_c, 2, 59, 0
5, 11640, Note_on_c, 2, 72, 95
5, 11760, Note_on_c, 2, 72, 0
5, 11760, Note_on_c, 2, 67, 95
5, 11944, Note_on_c, 2, 67, 0
5, 12660, Note_on_c, 2, 55, 100
5, 12690, Note_on_c, 2, 57, 100
5, 12691, Note_on_c, 2, 55, 0
5, 12720, Note_on_c, 2, 57, 0
5, 12720, Note_on_c, 2, 60, 100
5, 12750, Note_on_c, 2, 57, 100
5, 12751, Note_on_c, 2, 60, 0
5, 12780, Note_on_c, 2, 64, 100
5, 12781, Note_on_c, 2, 57, 0
5, 12839, Note_on_c, 2, 64, 0
5, 12840, Note_on_c, 2, 62, 100
5, 12899, Note_on_c, 2, 62, 0
5, 12900, Note_on_c, 2, 57, 100
5, 12930, Note_on_c, 2, 60, 100
5, 12931, Note_on_c, 2, 57, 0
5, 12996, Note_on_c, 2, 60, 0
5, 14581, Note_on_c, 2, 55, 100
5, 14611, Note_on_c, 2, 57, 100
5, 14612, Note_on_c, 2, 55, 0
5, 14641, Note_on_c, 2, 57, 0
5, 14641, Note_on_c, 2, 60, 100
5, 14670, Note_on_c, 2, 57, 100
5, 14671, Note_on_c, 2, 60, 0
5, 14700, Note_on_c, 2, 57, 0
5, 14700, Note_on_c, 2, 62, 100
5, 14760, Note_on_c, 2, 57, 100
5, 14766, Note_on_c, 2, 62, 0
5, 14820, Note_on_c, 2, 60, 100
5, 14825, Note_on_c, 2, 57, 0
5, 14887, Note_on_c, 2, 60, 0
5, 15815, Note_on_c, 2, 48, 70
5, 15825, Note_on_c, 2, 52, 70
5, 15830, Note_on_c, 2, 57, 70
5, 15840, Note_on_c, 2, 64, 70
5, 16232, Note_on_c, 2, 48, 0
5, 16242, Note_on_c, 2, 52, 0
5, 16247, Note_on_c, 2, 57, 0
5, 16257, Note_on_c, 2, 64, 0
5, 16295, Note_on_c, 2, 50, 70
5, 16305, Note_on_c, 2, 54, 70
5, 16310, Note_on_c, 2, 57, 70
5, 16320, Note_on_c, 2, 66, 70
5, 16712, Note_on_c, 2, 50, 0
5, 16722, Note_on_c, 2, 54, 0
5, 16727, Note_on_c, 2, 57, 0
5, 16737, Note_on_c, 2, 66, 0
5, 16775, Note_on_c, 2, 53, 70
5, 16785, Note_on_c, 2, 57, 70
5, 16790, Note_on_c, 2, 60, 70
5, 16805, Note_on_c, 2, 65, 70
5, 17192, Note_on_c, 2, 53, 0
5, 17202, Note_on_c, 2, 57, 0
5, 17207, Note_on_c, 2, 60, 0
5, 17222, Note_on_c, 2, 65, 0
5, 17250, Note_on_c, 2, 55, 70
5, 17265, Note_on_c, 2, 59, 70
5, 17270, Note_on_c, 2, 62, 70
5, 17280, Note_on_c, 2, 67, 70
5, 17667, Note_on_c, 2, 55, 0
5, 17682, Note_on_c, 2, 59, 0
5, 17687, Note_on_c, 2, 62, 0
5, 17697, Note_on_c, 2, 67, 0
5, 17883, Note_on_c, 2, 60, 105
5, 17883, Note_on_c, 2, 64, 105
5, 17898, Note_on_c, 2, 64, 0
5, 17898, Note_on_c, 2, 60, 0
5, 18063, Note_on_c, 2, 60, 105
5, 18063, Note_on_c, 2, 64, 105
5, 18078, Note_on_c, 2, 64, 0
5, 18078, Note_on_c, 2, 60, 0
5, 18361, Note_on_c, 2, 60, 105
5, 18361, Note_on_c, 2, 64, 105
5, 18376, Note_on_c, 2, 64, 0
5, 18376, Note_on_c, 2, 60, 0
5, 18541, Note_on_c, 2, 60, 105
5, 18541, Note_on_c, 2, 64, 105
5, 18556, Note_on_c, 2, 64, 0
5, 18556, Note_on_c, 2, 60, 0
5, 18841, Note_on_c, 2, 59, 105
5, 18841, Note_on_c, 2, 62, 105
5, 18841, Note_on_c, 2, 67, 105
5, 18856, Note_on_c, 2, 67, 0
5, 18856, Note_on_c, 2, 62, 0
5, 18856, Note_on_c, 2, 59, 0
5, 19021, Note_on_c, 2, 59, 105
5, 19021, Note_on_c, 2, 67, 105
5, 19026, Note_on_c, 2, 62, 105
5, 19036, Note_on_c, 2, 67, 0
5, 19036, Note_on_c, 2, 59, 0
5, 19041, Note_on_c, 2, 62, 0
5, 19321, Note_on_c, 2, 65, 105
5, 19321, Note_on_c, 2, 69, 105
5, 19321, Note_on_c, 2, 72, 105
5, 19336, Note_on_c, 2, 72, 0
5, 19336, Note_on_c, 2, 69, 0
5, 19336, Note_on_c, 2, 65, 0
5, 19501, Note_on_c, 2, 65, 105
5, 19501, Note_on_c, 2, 69, 105
5, 19501, Note_on_c, 2, 72, 105
5, 19516, Note_on_c, 2, 72, 0
5, 19516, Note_on_c, 2, 69, 0
5, 19516, Note_on_c, 2, 65, 0
5, 19800, Note_on_c, 2, 60, 105
5, 19800, Note_on_c, 2, 64, 105
5, 19815, Note_on_c, 2, 64, 0
5, 19815, Note_on_c, 2, 60, 0
5, 19980, Note_on_c, 2, 60, 105
5, 19980, Note_on_c, 2, 64, 105
5, 19995, Note_on_c, 2, 64, 0
5, 19995, Note_on_c, 2, 60, 0
5, 20280, Note_on_c, 2, 60, 105
5, 20280, Note_on_c, 2, 64, 105
5, 20295, Note_on_c, 2, 64, 0
5, 20295, Note_on_c, 2, 60, 0
5, 20460, Note_on_c, 2, 60, 105
5, 20460, Note_on_c, 2, 64, 105
5, 20475, Note_on_c, 2, 64, 0
5, 20475, Note_on_c, 2, 60, 0
5, 20760, Note_on_c, 2, 59, 105
5, 20760, Note_on_c, 2, 62, 105
5, 20760, Note_on_c, 2, 67, 105
5, 20775, Note_on_c, 2, 67, 0
5, 20775, Note_on_c, 2, 62, 0
5, 20775, Note_on_c, 2, 59, 0
5, 20940, Note_on_c, 2, 59, 105
5, 20940, Note_on_c, 2, 62, 105
5, 20940, Note_on_c, 2, 67, 105
5, 20955, Note_on_c, 2, 67, 0
5, 20955, Note_on_c, 2, 62, 0
5, 20955, Note_on_c, 2, 59, 0
5, 25415, Note_on_c, 2, 48, 70
5, 25425, Note_on_c, 2, 52, 70
5, 25430, Note_on_c, 2, 57, 70
5, 25440, Note_on_c, 2, 64, 70
5, 25832, Note_on_c, 2, 48, 0
5, 25842, Note_on_c, 2, 52, 0
5, 25847, Note_on_c, 2, 57, 0
5, 25857, Note_on_c, 2, 64, 0
5, 25895, Note_on_c, 2, 50, 70
5, 25905, Note_on_c, 2, 54, 70
5, 25910, Note_on_c, 2, 57, 70
5, 25920, Note_on_c, 2, 66, 70
5, 26312, Note_on_c, 2, 50, 0
5, 26322, Note_on_c, 2, 54, 0
5, 26327, Note_on_c, 2, 57, 0
5, 26337, Note_on_c, 2, 66, 0
5, 26375, Note_on_c, 2, 53, 70
5, 26385, Note_on_c, 2, 57, 70
5, 26390, Note_on_c, 2, 60, 70
5, 26405, Note_on_c, 2, 65, 70
5, 26792, Note_on_c, 2, 53, 0
5, 26802, Note_on_c, 2, 57, 0
5, 26807, Note_on_c, 2, 60, 0
5, 26822, Note_on_c, 2, 65, 0
5, 26850, Note_on_c, 2, 55, 70
5, 26865, Note_on_c, 2, 59, 70
5, 26870, Note_on_c, 2, 62, 70
5, 26880, Note_on_c, 2, 67, 70
5, 27267, Note_on_c, 2, 55, 0
5, 27282, Note_on_c, 2, 59, 0
5, 27287, Note_on_c, 2, 62, 0
5, 27297, Note_on_c, 2, 67, 0
5, 27480, Note_on_c, 2, 60, 105
5, 27480, Note_on_c, 2, 64, 105
5, 27495, Note_on_c, 2, 64, 0
5, 27495, Note_on_c, 2, 60, 0
5, 27660, Note_on_c, 2, 60, 105
5, 27660, Note_on_c, 2, 64, 105
5, 27675, Note_on_c, 2, 64, 0
5, 27675, Note_on_c, 2, 60, 0
5, 27960, Note_on_c, 2, 60, 105
5, 27960, Note_on_c, 2, 64, 105
5, 27975, Note_on_c, 2, 64, 0
5, 27975, Note_on_c, 2, 60, 0
5, 28140, Note_on_c, 2, 60, 105
5, 28140, Note_on_c, 2, 64, 105
5, 28155, Note_on_c, 2, 64, 0
5, 28155, Note_on_c, 2, 60, 0
5, 28440, Note_on_c, 2, 59, 105
5, 28440, Note_on_c, 2, 62, 105
5, 28440, Note_on_c, 2, 67, 105
5, 28455, Note_on_c, 2, 67, 0
5, 28455, Note_on_c, 2, 62, 0
5, 28455, Note_on_c, 2, 59, 0
5, 28620, Note_on_c, 2, 59, 105
5, 28620, Note_on_c, 2, 62, 105
5, 28620, Note_on_c, 2, 67, 105
5, 28635, Note_on_c, 2, 67, 0
5, 28635, Note_on_c, 2, 62, 0
5, 28635, Note_on_c, 2, 59, 0
5, 28920, Note_on_c, 2, 65, 105
5, 28920, Note_on_c, 2, 69, 105
5, 28920, Note_on_c, 2, 72, 105
5, 28935, Note_on_c, 2, 72, 0
5, 28935, Note_on_c, 2, 69, 0
5, 28935, Note_on_c, 2, 65, 0
5, 29100, Note_on_c, 2, 65, 105
5, 29100, Note_on_c, 2, 69, 105
5, 29100, Note_on_c, 2, 72, 105
5, 29115, Note_on_c, 2, 72, 0
5, 29115, Note_on_c, 2, 69, 0
5, 29115, Note_on_c, 2, 65, 0
5, 29400, Note_on_c, 2, 60, 105
5, 29400, Note_on_c, 2, 64, 105
5, 29415, Note_on_c, 2, 64, 0
5, 29415, Note_on_c, 2, 60, 0
5, 29580, Note_on_c, 2, 60, 105
5, 29580, Note_on_c, 2, 64, 105
5, 29595, Note_on_c, 2, 64, 0
5, 29595, Note_on_c, 2, 60, 0
5, 29880, Note_on_c, 2, 60, 105
5, 29880, Note_on_c, 2, 64, 105
5, 29895, Note_on_c, 2, 64, 0
5, 29895, Note_on_c, 2, 60, 0
5, 30060, Note_on_c, 2, 60, 105
5, 30060, Note_on_c, 2, 64, 105
5, 30075, Note_on_c, 2, 64, 0
5, 30075, Note_on_c, 2, 60, 0
5, 30360, Note_on_c, 2, 59, 105
5, 30360, Note_on_c, 2, 62, 105
5, 30360, Note_on_c, 2, 67, 105
5, 30375, Note_on_c, 2, 67, 0
5, 30375, Note_on_c, 2, 62, 0
5, 30375, Note_on_c, 2, 59, 0
5, 30540, Note_on_c, 2, 59, 105
5, 30540, Note_on_c, 2, 62, 105
5, 30540, Note_on_c, 2, 67, 105
5, 30555, Note_on_c, 2, 67, 0
5, 30555, Note_on_c, 2, 62, 0
5, 30555, Note_on_c, 2, 59, 0
5, 30840, Note_on_c, 2, 65, 105
5, 30840, Note_on_c, 2, 69, 105
5, 30840, Note_on_c, 2, 72, 105
5, 30855, Note_on_c, 2, 72, 0
5, 30855, Note_on_c, 2, 69, 0
5, 30855, Note_on_c, 2, 65, 0
5, 31020, Note_on_c, 2, 65, 105
5, 31020, Note_on_c, 2, 69, 105
5, 31020, Note_on_c, 2, 72, 105
5, 31035, Note_on_c, 2, 72, 0
5, 31035, Note_on_c, 2, 69, 0
5, 31035, Note_on_c, 2, 65, 0
5, 31320, Note_on_c, 2, 60, 105
5, 31320, Note_on_c, 2, 64, 105
5, 31335, Note_on_c, 2, 64, 0
5, 31335, Note_on_c, 2, 60, 0
5, 31500, Note_on_c, 2, 60, 105
5, 31500, Note_on_c, 2, 64, 105
5, 31515, Note_on_c, 2, 64, 0
5, 31515, Note_on_c, 2, 60, 0
5, 31800, Note_on_c, 2, 60, 105
5, 31800, Note_on_c, 2, 64, 105
5, 31815, Note_on_c, 2, 64, 0
5, 31815, Note_on_c, 2, 60, 0
5, 31980, Note_on_c, 2, 60, 105
5, 31980, Note_on_c, 2, 64, 105
5, 31995, Note_on_c, 2, 64, 0
5, 31995, Note_on_c, 2, 60, 0
5, 32280, Note_on_c, 2, 59, 105
5, 32280, Note_on_c, 2, 62, 105
5, 32280, Note_on_c, 2, 67, 105
5, 32295, Note_on_c, 2, 67, 0
5, 32295, Note_on_c, 2, 62, 0
5, 32295, Note_on_c, 2, 59, 0
5, 32460, Note_on_c, 2, 59, 105
5, 32460, Note_on_c, 2, 62, 105
5, 32460, Note_on_c, 2, 67, 105
5, 32475, Note_on_c, 2, 67, 0
5, 32475, Note_on_c, 2, 62, 0
5, 32475, Note_on_c, 2, 59, 0
5, 32760, Note_on_c, 2, 65, 105
5, 32760, Note_on_c, 2, 69, 105
5, 32760, Note_on_c, 2, 72, 105
5, 32775, Note_on_c, 2, 72, 0
5, 32775, Note_on_c, 2, 69, 0
5, 32775, Note_on_c, 2, 65, 0
5, 32940, Note_on_c, 2, 65, 105
5, 32940, Note_on_c, 2, 69, 105
5, 32940, Note_on_c, 2, 72, 105
5, 32955, Note_on_c, 2, 72, 0
5, 32955, Note_on_c, 2, 69, 0
5, 32955, Note_on_c, 2, 65, 0
5, 33240, Note_on_c, 2, 60, 105
5, 33240, Note_on_c, 2, 64, 105
5, 33255, Note_on_c, 2, 64, 0
5, 33255, Note_on_c, 2, 60, 0
5, 33420, Note_on_c, 2, 60, 105
5, 33420, Note_on_c, 2, 64, 105
5, 33435, Note_on_c, 2, 64, 0
5, 33435, Note_on_c, 2, 60, 0
5, 33720, Note_on_c, 2, 60, 105
5, 33720, Note_on_c, 2, 64, 105
5, 33735, Note_on_c, 2, 64, 0
5, 33735, Note_on_c, 2, 60, 0
5, 33900, Note_on_c, 2, 60, 105
5, 33900, Note_on_c, 2, 64, 105
5, 33915, Note_on_c, 2, 64, 0
5, 33915, Note_on_c, 2, 60, 0
5, 34050, Note_on_c, 2, 59, 95
5, 34065, Note_on_c, 2, 62, 95
5, 34080, Note_on_c, 2, 67, 95
5, 34465, Note_on_c, 2, 59, 0
5, 34480, Note_on_c, 2, 62, 0
5, 34495, Note_on_c, 2, 67, 0
5, 34530, Note_on_c, 2, 65, 95
5, 34545, Note_on_c, 2, 69, 95
5, 34560, Note_on_c, 2, 72, 95
5, 34945, Note_on_c, 2, 65, 0
5, 34960, Note_on_c, 2, 69, 0
5, 34975, Note_on_c, 2, 72, 0
5, 35010, Note_on_c, 2, 60, 95
5, 35025, Note_on_c, 2, 64, 95
5, 35040, Note_on_c, 2, 67, 95
5, 35425, Note_on_c, 2, 60, 0
5, 35440, Note_on_c, 2, 64, 0
5, 35455, Note_on_c, 2, 67, 0
5, 35455, End_track
6, 0, Start_track
6, 0, MIDI_port, 0
6, 0, Title_t, "Track 2"
6, 0, Program_c, 4, 48
6, 0, Control_c, 4, 7, 104
6, 5760, Note_on_c, 4, 65, 40
6, 5879, Note_on_c, 4, 65, 0
6, 5880, Note_on_c, 4, 67, 40
6, 6000, Note_on_c, 4, 69, 40
6, 6001, Note_on_c, 4, 67, 0
6, 6120, Note_on_c, 4, 72, 40
6, 6123, Note_on_c, 4, 69, 0
6, 6240, Note_on_c, 4, 79, 40
6, 6243, Note_on_c, 4, 72, 0
6, 6698, Note_on_c, 4, 79, 0
6, 6720, Note_on_c, 4, 74, 40
6, 7178, Note_on_c, 4, 74, 0
6, 7200, Note_on_c, 4, 77, 40
6, 7658, Note_on_c, 4, 77, 0
6, 8165, Note_on_c, 4, 72, 40
6, 8623, Note_on_c, 4, 72, 0
6, 8640, Note_on_c, 4, 69, 40
6, 9098, Note_on_c, 4, 69, 0
6, 9125, Note_on_c, 4, 67, 40
6, 9583, Note_on_c, 4, 67, 0
6, 9600, Note_on_c, 4, 65, 40
6, 10058, Note_on_c, 4, 65, 0
6, 10080, Note_on_c, 4, 72, 40
6, 10538, Note_on_c, 4, 72, 0
6, 10560, Note_on_c, 4, 69, 40
6, 11018, Note_on_c, 4, 69, 0
6, 11040, Note_on_c, 4, 67, 40
6, 11498, Note_on_c, 4, 67, 0
6, 11520, Note_on_c, 4, 65, 40
6, 11978, Note_on_c, 4, 65, 0
6, 13440, Note_on_c, 4, 71, 50
6, 13559, Note_on_c, 4, 71, 0
6, 13565, Note_on_c, 4, 72, 50
6, 13680, Note_on_c, 4, 69, 50
6, 13686, Note_on_c, 4, 72, 0
6, 13800, Note_on_c, 4, 71, 50
6, 13803, Note_on_c, 4, 69, 0
6, 13920, Note_on_c, 4, 67, 50
6, 13923, Note_on_c, 4, 71, 0
6, 14369, Note_on_c, 4, 67, 0
6, 14400, Note_on_c, 4, 69, 50
6, 14849, Note_on_c, 4, 69, 0
6, 14880, Note_on_c, 4, 71, 50
6, 15329, Note_on_c, 4, 71, 0
6, 15360, Note_on_c, 4, 72, 50
6, 15809, Note_on_c, 4, 72, 0
6, 15840, Note_on_c, 4, 79, 50
6, 16298, Note_on_c, 4, 79, 0
6, 16320, Note_on_c, 4, 74, 50
6, 16778, Note_on_c, 4, 74, 0
6, 16800, Note_on_c, 4, 77, 50
6, 17258, Note_on_c, 4, 77, 0
6, 17280, Note_on_c, 4, 79, 50
6, 17738, Note_on_c, 4, 79, 0
6, 17760, Note_on_c, 4, 72, 50
6, 18218, Note_on_c, 4, 72, 0
6, 18240, Note_on_c, 4, 69, 50
6, 18698, Note_on_c, 4, 69, 0
6, 18720, Note_on_c, 4, 67, 50
6, 19178, Note_on_c, 4, 67, 0
6, 19200, Note_on_c, 4, 65, 50
6, 19200, Note_on_c, 4, 71, 50
6, 19319, Note_on_c, 4, 71, 0
6, 19320, Note_on_c, 4, 72, 50
6, 19440, Note_on_c, 4, 69, 50
6, 19441, Note_on_c, 4, 72, 0
6, 19560, Note_on_c, 4, 71, 50
6, 19563, Note_on_c, 4, 69, 0
6, 19658, Note_on_c, 4, 65, 0
6, 19680, Note_on_c, 4, 72, 50
6, 19683, Note_on_c, 4, 71, 0
6, 19740, Note_on_c, 4, 84, 50
6, 19796, Note_on_c, 4, 84, 0
6, 19800, Note_on_c, 4, 83, 50
6, 19856, Note_on_c, 4, 83, 0
6, 19860, Note_on_c, 4, 84, 50
6, 20044, Note_on_c, 4, 84, 0
6, 20138, Note_on_c, 4, 72, 0
6, 20160, Note_on_c, 4, 69, 50
6, 20220, Note_on_c, 4, 96, 50
6, 20276, Note_on_c, 4, 96, 0
6, 20280, Note_on_c, 4, 95, 50
6, 20336, Note_on_c, 4, 95, 0
6, 20340, Note_on_c, 4, 96, 50
6, 20524, Note_on_c, 4, 96, 0
6, 20618, Note_on_c, 4, 69, 0
6, 20640, Note_on_c, 4, 67, 50
6, 21098, Note_on_c, 4, 67, 0
6, 21120, Note_on_c, 4, 65, 50
6, 21578, Note_on_c, 4, 65, 0
6, 21600, Note_on_c, 4, 83, 50
6, 21719, Note_on_c, 4, 83, 0
6, 21720, Note_on_c, 4, 84, 50
6, 21840, Note_on_c, 4, 79, 50
6, 21843, Note_on_c, 4, 84, 0
6, 22078, Note_on_c, 4, 79, 0
6, 22080, Note_on_c, 4, 83, 50
6, 22199, Note_on_c, 4, 83, 0
6, 22200, Note_on_c, 4, 84, 50
6, 22320, Note_on_c, 4, 79, 50
6, 22323, Note_on_c, 4, 84, 0
6, 22558, Note_on_c, 4, 79, 0
6, 22560, Note_on_c, 4, 84, 50
6, 22679, Note_on_c, 4, 84, 0
6, 22680, Note_on_c, 4, 83, 50
6, 22800, Note_on_c, 4, 86, 50
6, 22803, Note_on_c, 4, 83, 0
6, 23040, Note_on_c, 4, 88, 50
6, 23044, Note_on_c, 4, 86, 0
6, 23280, Note_on_c, 4, 81, 50
6, 23283, Note_on_c, 4, 88, 0
6, 23519, Note_on_c, 4, 81, 0
6, 23522, Note_on_c, 4, 83, 50
6, 23641, Note_on_c, 4, 83, 0
6, 23642, Note_on_c, 4, 84, 50
6, 23762, Note_on_c, 4, 79, 50
6, 23765, Note_on_c, 4, 84, 0
6, 24000, Note_on_c, 4, 79, 0
6, 24000, Note_on_c, 4, 69, 50
6, 24002, Note_on_c, 4, 83, 50
6, 24121, Note_on_c, 4, 83, 0
6, 24122, Note_on_c, 4, 84, 50
6, 24242, Note_on_c, 4, 79, 50
6, 24245, Note_on_c, 4, 84, 0
6, 24458, Note_on_c, 4, 69, 0
6, 24480, Note_on_c, 4, 79, 0
6, 24480, Note_on_c, 4, 67, 50
6, 24482, Note_on_c, 4, 84, 50
6, 24601, Note_on_c, 4, 84, 0
6, 24602, Note_on_c, 4, 83, 50
6, 24722, Note_on_c, 4, 86, 50
6, 24725, Note_on_c, 4, 83, 0
6, 24938, Note_on_c, 4, 67, 0
6, 24960, Note_on_c, 4, 65, 50
6, 24962, Note_on_c, 4, 88, 50
6, 24963, Note_on_c, 4, 65, 50
6, 24966, Note_on_c, 4, 86, 0
6, 25082, Note_on_c, 4, 65, 0
6, 25083, Note_on_c, 4, 67, 50
6, 25202, Note_on_c, 4, 81, 50
6, 25203, Note_on_c, 4, 69, 50
6, 25204, Note_on_c, 4, 67, 0
6, 25205, Note_on_c, 4, 88, 0
6, 25323, Note_on_c, 4, 72, 50
6, 25326, Note_on_c, 4, 69, 0
6, 25418, Note_on_c, 4, 65, 0
6, 25440, Note_on_c, 4, 91, 45
6, 25441, Note_on_c, 4, 81, 0
6, 25443, Note_on_c, 4, 79, 55
6, 25446, Note_on_c, 4, 72, 0
6, 25898, Note_on_c, 4, 91, 0
6, 25901, Note_on_c, 4, 79, 0
6, 25920, Note_on_c, 4, 86, 45
6, 25923, Note_on_c, 4, 74, 55
6, 26378, Note_on_c, 4, 86, 0
6, 26381, Note_on_c, 4, 74, 0
6, 26400, Note_on_c, 4, 89, 45
6, 26403, Note_on_c, 4, 77, 55
6, 26858, Note_on_c, 4, 89, 0
6, 26861, Note_on_c, 4, 77, 0
6, 26880, Note_on_c, 4, 91, 45
6, 26883, Note_on_c, 4, 79, 55
6, 27338, Note_on_c, 4, 91, 0
6, 27341, Note_on_c, 4, 79, 0
6, 27360, Note_on_c, 4, 84, 30
6, 27363, Note_on_c, 4, 72, 50
6, 27818, Note_on_c, 4, 84, 0
6, 27821, Note_on_c, 4, 72, 0
6, 27840, Note_on_c, 4, 81, 35
6, 27843, Note_on_c, 4, 69, 50
6, 28298, Note_on_c, 4, 81, 0
6, 28301, Note_on_c, 4, 69, 0
6, 28320, Note_on_c, 4, 79, 35
6, 28323, Note_on_c, 4, 67, 50
6, 28778, Note_on_c, 4, 79, 0
6, 28781, Note_on_c, 4, 67, 0
6, 28800, Note_on_c, 4, 83, 55
6, 28802, Note_on_c, 4, 71, 50
6, 28803, Note_on_c, 4, 65, 50
6, 28920, Note_on_c, 4, 84, 50
6, 28921, Note_on_c, 4, 71, 0
6, 28921, Note_on_c, 4, 83, 0
6, 28922, Note_on_c, 4, 72, 50
6, 29042, Note_on_c, 4, 69, 50
6, 29043, Note_on_c, 4, 72, 0
6, 29043, Note_on_c, 4, 84, 0
6, 29045, Note_on_c, 4, 81, 55
6, 29160, Note_on_c, 4, 83, 55
6, 29162, Note_on_c, 4, 71, 50
6, 29165, Note_on_c, 4, 69, 0
6, 29168, Note_on_c, 4, 81, 0
6, 29261, Note_on_c, 4, 65, 0
6, 29279, Note_on_c, 4, 83, 0
6, 29285, Note_on_c, 4, 71, 0
6, 29285, Note_on_c, 4, 72, 50
6, 29340, Note_on_c, 4, 84, 50
6, 29396, Note_on_c, 4, 84, 0
6, 29400, Note_on_c, 4, 83, 55
6, 29456, Note_on_c, 4, 83, 0
6, 29460, Note_on_c, 4, 84, 50
6, 29644, Note_on_c, 4, 84, 0
6, 29743, Note_on_c, 4, 72, 0
6, 29760, Note_on_c, 4, 81, 55
6, 29763, Note_on_c, 4, 69, 50
6, 29820, Note_on_c, 4, 96, 65
6, 29876, Note_on_c, 4, 96, 0
6, 29880, Note_on_c, 4, 95, 65
6, 29936, Note_on_c, 4, 95, 0
6, 29940, Note_on_c, 4, 96, 65
6, 30124, Note_on_c, 4, 96, 0
6, 30218, Note_on_c, 4, 81, 0
6, 30221, Note_on_c, 4, 69, 0
6, 30240, Note_on_c, 4, 79, 65
6, 30243, Note_on_c, 4, 67, 50
6, 30698, Note_on_c, 4, 79, 0
6, 30701, Note_on_c, 4, 67, 0
6, 30720, Note_on_c, 4, 77, 65
6, 30723, Note_on_c, 4, 65, 50
6, 31178, Note_on_c, 4, 77, 0
6, 31181, Note_on_c, 4, 65, 0
6, 31200, Note_on_c, 4, 72, 50
6, 31658, Note_on_c, 4, 72, 0
6, 31680, Note_on_c, 4, 69, 50
6, 32138, Note_on_c, 4, 69, 0
6, 32160, Note_on_c, 4, 67, 50
6, 32160, Note_on_c, 4, 79, 35
6, 32160, Note_on_c, 4, 91, 25
6, 32618, Note_on_c, 4, 91, 0
6, 32618, Note_on_c, 4, 79, 0
6, 32618, Note_on_c, 4, 67, 0
6, 32640, Note_on_c, 4, 65, 50
6, 32640, Note_on_c, 4, 77, 35
6, 32640, Note_on_c, 4, 89, 25
6, 33098, Note_on_c, 4, 89, 0
6, 33098, Note_on_c, 4, 77, 0
6, 33098, Note_on_c, 4, 65, 0
6, 33120, Note_on_c, 4, 72, 50
6, 33120, Note_on_c, 4, 84, 30
6, 33120, Note_on_c, 4, 96, 25
6, 33578, Note_on_c, 4, 96, 0
6, 33578, Note_on_c, 4, 84, 0
6, 33578, Note_on_c, 4, 72, 0
6, 33600, Note_on_c, 4, 69, 50
6, 33600, Note_on_c, 4, 81, 35
6, 33600, Note_on_c, 4, 93, 25
6, 34058, Note_on_c, 4, 93, 0
6, 34058, Note_on_c, 4, 81, 0
6, 34058, Note_on_c, 4, 69, 0
6, 34080, Note_on_c, 4, 67, 50
6, 34080, Note_on_c, 4, 79, 35
6, 34080, Note_on_c, 4, 91, 25
6, 34538, Note_on_c, 4, 91, 0
6, 34538, Note_on_c, 4, 79, 0
6, 34538, Note_on_c, 4, 67, 0
6, 34560, Note_on_c, 4, 65, 50
6, 34560, Note_on_c, 4, 77, 35
6, 34560, Note_on_c, 4, 89, 25
6, 35018, Note_on_c, 4, 89, 0
6, 35018, Note_on_c, 4, 77, 0
6, 35018, Note_on_c, 4, 65, 0
6, 35040, Note_on_c, 4, 72, 50
6, 35040, Note_on_c, 4, 84, 30
6, 35040, Note_on_c, 4, 96, 25
6, 35487, Note_on_c, 4, 96, 0
6, 35487, Note_on_c, 4, 84, 0
6, 35487, Note_on_c, 4, 72, 0
6, 35487, End_track
7, 0, Start_track
7, 0, MIDI_port, 0
7, 0, Title_t, "Track 2"
7, 0, Program_c, 5, 40
7, 0, Control_c, 5, 7, 104
7, 5760, Note_on_c, 5, 53, 40
7, 5880, Note_on_c, 5, 53, 0
7, 5880, Note_on_c, 5, 55, 40
7, 6000, Note_on_c, 5, 57, 40
7, 6001, Note_on_c, 5, 55, 0
7, 6120, Note_on_c, 5, 60, 40
7, 6123, Note_on_c, 5, 57, 0
7, 6240, Note_on_c, 5, 67, 50
7, 6243, Note_on_c, 5, 60, 0
7, 6698, Note_on_c, 5, 67, 0
7, 6720, Note_on_c, 5, 62, 50
7, 7178, Note_on_c, 5, 62, 0
7, 7200, Note_on_c, 5, 65, 50
7, 7658, Note_on_c, 5, 65, 0
7, 8165, Note_on_c, 5, 60, 50
7, 8623, Note_on_c, 5, 60, 0
7, 8640, Note_on_c, 5, 57, 50
7, 9098, Note_on_c, 5, 57, 0
7, 9125, Note_on_c, 5, 55, 50
7, 9583, Note_on_c, 5, 55, 0
7, 9600, Note_on_c, 5, 53, 50
7, 10058, Note_on_c, 5, 53, 0
7, 10080, Note_on_c, 5, 60, 50
7, 10538, Note_on_c, 5, 60, 0
7, 10560, Note_on_c, 5, 57, 50
7, 11018, Note_on_c, 5, 57, 0
7, 11040, Note_on_c, 5, 55, 50
7, 11498, Note_on_c, 5, 55, 0
7, 11520, Note_on_c, 5, 53, 50
7, 11978, Note_on_c, 5, 53, 0
7, 13440, Note_on_c, 5, 59, 50
7, 13559, Note_on_c, 5, 59, 0
7, 13565, Note_on_c, 5, 60, 50
7, 13680, Note_on_c, 5, 57, 50
7, 13686, Note_on_c, 5, 60, 0
7, 13800, Note_on_c, 5, 59, 50
7, 13803, Note_on_c, 5, 57, 0
7, 13920, Note_on_c, 5, 55, 50
7, 13923, Note_on_c, 5, 59, 0
7, 14369, Note_on_c, 5, 55, 0
7, 14400, Note_on_c, 5, 57, 50
7, 14849, Note_on_c, 5, 57, 0
7, 14880, Note_on_c, 5, 59, 50
7, 15329, Note_on_c, 5, 59, 0
7, 15360, Note_on_c, 5, 60, 50
7, 15809, Note_on_c, 5, 60, 0
7, 15840, Note_on_c, 5, 67, 50
7, 16298, Note_on_c, 5, 67, 0
7, 16320, Note_on_c, 5, 62, 50
7, 16778, Note_on_c, 5, 62, 0
7, 16800, Note_on_c, 5, 65, 50
7, 17258, Note_on_c, 5, 65, 0
7, 17280, Note_on_c, 5, 67, 50
7, 17738, Note_on_c, 5, 67, 0
7, 17760, Note_on_c, 5, 60, 50
7, 18218, Note_on_c, 5, 60, 0
7, 18240, Note_on_c, 5, 57, 50
7, 18698, Note_on_c, 5, 57, 0
7, 18720, Note_on_c, 5, 55, 50
7, 19178, Note_on_c, 5, 55, 0
7, 19200, Note_on_c, 5, 53, 50
7, 19200, Note_on_c, 5, 59, 50
7, 19319, Note_on_c, 5, 59, 0
7, 19320, Note_on_c, 5, 60, 50
7, 19440, Note_on_c, 5, 57, 50
7, 19441, Note_on_c, 5, 60, 0
7, 19560, Note_on_c, 5, 59, 50
7, 19563, Note_on_c, 5, 57, 0
7, 19658, Note_on_c, 5, 53, 0
7, 19680, Note_on_c, 5, 60, 50
7, 19683, Note_on_c, 5, 59, 0
7, 19740, Note_on_c, 5, 72, 50
7, 19796, Note_on_c, 5, 72, 0
7, 19800, Note_on_c, 5, 71, 50
7, 19856, Note_on_c, 5, 71, 0
7, 19860, Note_on_c, 5, 72, 50
7, 20044, Note_on_c, 5, 72, 0
7, 20138, Note_on_c, 5, 60, 0
7, 20160, Note_on_c, 5, 57, 50
7, 20220, Note_on_c, 5, 84, 50
7, 20276, Note_on_c, 5, 84, 0
7, 20280, Note_on_c, 5, 83, 50
7, 20336, Note_on_c, 5, 83, 0
7, 20340, Note_on_c, 5, 84, 50
7, 20524, Note_on_c, 5, 84, 0
7, 20618, Note_on_c, 5, 57, 0
7, 20640, Note_on_c, 5, 55, 50
7, 21098, Note_on_c, 5, 55, 0
7, 21120, Note_on_c, 5, 53, 50
7, 21578, Note_on_c, 5, 53, 0
7, 21600, Note_on_c, 5, 59, 50
7, 21721, Note_on_c, 5, 59, 0
7, 21725, Note_on_c, 5, 60, 50
7, 21840, Note_on_c, 5, 55, 50
7, 21846, Note_on_c, 5, 60, 0
7, 22078, Note_on_c, 5, 55, 0
7, 22080, Note_on_c, 5, 59, 50
7, 22200, Note_on_c, 5, 60, 50
7, 22201, Note_on_c, 5, 59, 0
7, 22320, Note_on_c, 5, 55, 50
7, 22321, Note_on_c, 5, 60, 0
7, 22559, Note_on_c, 5, 55, 0
7, 22560, Note_on_c, 5, 64, 50
7, 23018, Note_on_c, 5, 64, 0
7, 23043, Note_on_c, 5, 53, 50
7, 23501, Note_on_c, 5, 53, 0
7, 23520, Note_on_c, 5, 60, 50
7, 23978, Note_on_c, 5, 60, 0
7, 24000, Note_on_c, 5, 57, 50
7, 24458, Note_on_c, 5, 57, 0
7, 24480, Note_on_c, 5, 55, 50
7, 24938, Note_on_c, 5, 55, 0
7, 24960, Note_on_c, 5, 53, 50
7, 24963, Note_on_c, 5, 53, 50
7, 25082, Note_on_c, 5, 53, 0
7, 25083, Note_on_c, 5, 55, 50
7, 25203, Note_on_c, 5, 57, 50
7, 25204, Note_on_c, 5, 55, 0
7, 25323, Note_on_c, 5, 60, 50
7, 25326, Note_on_c, 5, 57, 0
7, 25418, Note_on_c, 5, 53, 0
7, 25440, Note_on_c, 5, 79, 45
7, 25443, Note_on_c, 5, 67, 55
7, 25446, Note_on_c, 5, 60, 0
7, 25898, Note_on_c, 5, 79, 0
7, 25901, Note_on_c, 5, 67, 0
7, 25920, Note_on_c, 5, 74, 45
7, 25923, Note_on_c, 5, 62, 55
7, 26378, Note_on_c, 5, 74, 0
7, 26381, Note_on_c, 5, 62, 0
7, 26400, Note_on_c, 5, 77, 45
7, 26403, Note_on_c, 5, 65, 55
7, 26858, Note_on_c, 5, 77, 0
7, 26861, Note_on_c, 5, 65, 0
7, 26880, Note_on_c, 5, 79, 45
7, 26883, Note_on_c, 5, 67, 55
7, 27338, Note_on_c, 5, 79, 0
7, 27341, Note_on_c, 5, 67, 0
7, 27360, Note_on_c, 5, 72, 30
7, 27363, Note_on_c, 5, 60, 50
7, 27818, Note_on_c, 5, 72, 0
7, 27821, Note_on_c, 5, 60, 0
7, 27840, Note_on_c, 5, 69, 35
7, 27843, Note_on_c, 5, 57, 50
7, 28298, Note_on_c, 5, 69, 0
7, 28301, Note_on_c, 5, 57, 0
7, 28320, Note_on_c, 5, 67, 35
7, 28323, Note_on_c, 5, 55, 50
7, 28778, Note_on_c, 5, 67, 0
7, 28781, Note_on_c, 5, 55, 0
7, 28800, Note_on_c, 5, 71, 55
7, 28802, Note_on_c, 5, 59, 50
7, 28803, Note_on_c, 5, 53, 50
7, 28920, Note_on_c, 5, 72, 50
7, 28921, Note_on_c, 5, 59, 0
7, 28921, Note_on_c, 5, 71, 0
7, 28922, Note_on_c, 5, 60, 50
7, 29042, Note_on_c, 5, 57, 50
7, 29043, Note_on_c, 5, 60, 0
7, 29043, Note_on_c, 5, 72, 0
7, 29045, Note_on_c, 5, 69, 55
7, 29160, Note_on_c, 5, 71, 55
7, 29162, Note_on_c, 5, 59, 50
7, 29165, Note_on_c, 5, 57, 0
7, 29168, Note_on_c, 5, 69, 0
7, 29261, Note_on_c, 5, 53, 0
7, 29279, Note_on_c, 5, 71, 0
7, 29280, Note_on_c, 5, 72, 30
7, 29285, Note_on_c, 5, 59, 0
7, 29285, Note_on_c, 5, 60, 50
7, 29738, Note_on_c, 5, 72, 0
7, 29743, Note_on_c, 5, 60, 0
7, 29760, Note_on_c, 5, 69, 55
7, 29763, Note_on_c, 5, 57, 50
7, 30218, Note_on_c, 5, 69, 0
7, 30221, Note_on_c, 5, 57, 0
7, 30240, Note_on_c, 5, 67, 65
7, 30243, Note_on_c, 5, 55, 50
7, 30698, Note_on_c, 5, 67, 0
7, 30701, Note_on_c, 5, 55, 0
7, 30720, Note_on_c, 5, 65, 65
7, 30723, Note_on_c, 5, 53, 50
7, 31178, Note_on_c, 5, 65, 0
7, 31181, Note_on_c, 5, 53, 0
7, 31200, Note_on_c, 5, 60, 50
7, 31205, Note_on_c, 5, 72, 50
7, 31658, Note_on_c, 5, 60, 0
7, 31663, Note_on_c, 5, 72, 0
7, 31680, Note_on_c, 5, 57, 50
7, 31680, Note_on_c, 5, 69, 50
7, 32138, Note_on_c, 5, 69, 0
7, 32138, Note_on_c, 5, 57, 0
7, 32160, Note_on_c, 5, 55, 50
7, 32160, Note_on_c, 5, 67, 35
7, 32160, Note_on_c, 5, 79, 25
7, 32618, Note_on_c, 5, 79, 0
7, 32618, Note_on_c, 5, 67, 0
7, 32618, Note_on_c, 5, 55, 0
7, 32640, Note_on_c, 5, 53, 50
7, 32640, Note_on_c, 5, 65, 35
7, 32640, Note_on_c, 5, 77, 25
7, 33098, Note_on_c, 5, 77, 0
7, 33098, Note_on_c, 5, 65, 0
7, 33098, Note_on_c, 5, 53, 0
7, 33120, Note_on_c, 5, 60, 50
7, 33120, Note_on_c, 5, 72, 30
7, 33120, Note_on_c, 5, 84, 25
7, 33578, Note_on_c, 5, 84, 0
7, 33578, Note_on_c, 5, 72, 0
7, 33578, Note_on_c, 5, 60, 0
7, 33600, Note_on_c, 5, 57, 50
7, 33600, Note_on_c, 5, 69, 35
7, 33600, Note_on_c, 5, 81, 25
7, 34058, Note_on_c, 5, 81, 0
7, 34058, Note_on_c, 5, 69, 0
7, 34058, Note_on_c, 5, 57, 0
7, 34080, Note_on_c, 5, 55, 50
7, 34080, Note_on_c, 5, 67, 35
7, 34080, Note_on_c, 5, 79, 25
7, 34538, Note_on_c, 5, 79, 0
7, 34538, Note_on_c, 5, 67, 0
7, 34538, Note_on_c, 5, 55, 0
7, 34560, Note_on_c, 5, 53, 50
7, 34560, Note_on_c, 5, 65, 35
7, 34560, Note_on_c, 5, 77, 25
7, 35018, Note_on_c, 5, 77, 0
7, 35018, Note_on_c, 5, 65, 0
7, 35018, Note_on_c, 5, 53, 0
7, 35040, Note_on_c, 5, 60, 50
7, 35040, Note_on_c, 5, 72, 30
7, 35040, Note_on_c, 5, 84, 25
7, 35487, Note_on_c, 5, 84, 0
7, 35487, Note_on_c, 5, 72, 0
7, 35487, Note_on_c, 5, 60, 0
7, 35487, End_track
8, 0, Start_track
8, 0, MIDI_port, 0
8, 0, Title_t, "Track 2"
8, 0, Program_c, 7, 42
8, 0, Control_c, 7, 7, 104
8, 5760, Note_on_c, 7, 41, 30
8, 5880, Note_on_c, 7, 41, 0
8, 5880, Note_on_c, 7, 43, 30
8, 6000, Note_on_c, 7, 45, 30
8, 6001, Note_on_c, 7, 43, 0
8, 6120, Note_on_c, 7, 48, 30
8, 6123, Note_on_c, 7, 45, 0
8, 6240, Note_on_c, 7, 55, 30
8, 6243, Note_on_c, 7, 48, 0
8, 6698, Note_on_c, 7, 55, 0
8, 6720, Note_on_c, 7, 50, 30
8, 7178, Note_on_c, 7, 50, 0
8, 7200, Note_on_c, 7, 53, 30
8, 7658, Note_on_c, 7, 53, 0
8, 8165, Note_on_c, 7, 48, 30
8, 8623, Note_on_c, 7, 48, 0
8, 8640, Note_on_c, 7, 45, 30
8, 9098, Note_on_c, 7, 45, 0
8, 9125, Note_on_c, 7, 43, 30
8, 9583, Note_on_c, 7, 43, 0
8, 9600, Note_on_c, 7, 41, 30
8, 10058, Note_on_c, 7, 41, 0
8, 10080, Note_on_c, 7, 48, 30
8, 10538, Note_on_c, 7, 48, 0
8, 10560, Note_on_c, 7, 45, 30
8, 11018, Note_on_c, 7, 45, 0
8, 11040, Note_on_c, 7, 43, 30
8, 11498, Note_on_c, 7, 43, 0
8, 11520, Note_on_c, 7, 41, 30
8, 11977, Note_on_c, 7, 41, 0
8, 13440, Note_on_c, 7, 47, 30
8, 13559, Note_on_c, 7, 47, 0
8, 13565, Note_on_c, 7, 48, 30
8, 13680, Note_on_c, 7, 45, 30
8, 13686, Note_on_c, 7, 48, 0
8, 13800, Note_on_c, 7, 47, 30
8, 13803, Note_on_c, 7, 45, 0
8, 13920, Note_on_c, 7, 43, 30
8, 13923, Note_on_c, 7, 47, 0
8, 14369, Note_on_c, 7, 43, 0
8, 14400, Note_on_c, 7, 45, 30
8, 14849, Note_on_c, 7, 45, 0
8, 14880, Note_on_c, 7, 47, 30
8, 15329, Note_on_c, 7, 47, 0
8, 15360, Note_on_c, 7, 48, 30
8, 15809, Note_on_c, 7, 48, 0
8, 15840, Note_on_c, 7, 55, 30
8, 16298, Note_on_c, 7, 55, 0
8, 16320, Note_on_c, 7, 50, 30
8, 16778, Note_on_c, 7, 50, 0
8, 16800, Note_on_c, 7, 53, 30
8, 17258, Note_on_c, 7, 53, 0
8, 17280, Note_on_c, 7, 55, 30
8, 17738, Note_on_c, 7, 55, 0
8, 17760, Note_on_c, 7, 48, 30
8, 18218, Note_on_c, 7, 48, 0
8, 18240, Note_on_c, 7, 45, 30
8, 18698, Note_on_c, 7, 45, 0
8, 18720, Note_on_c, 7, 43, 30
8, 19178, Note_on_c, 7, 43, 0
8, 19200, Note_on_c, 7, 41, 30
8, 19200, Note_on_c, 7, 47, 30
8, 19319, Note_on_c, 7, 47, 0
8, 19320, Note_on_c, 7, 48, 30
8, 19440, Note_on_c, 7, 45, 30
8, 19441, Note_on_c, 7, 48, 0
8, 19560, Note_on_c, 7, 47, 30
8, 19563, Note_on_c, 7, 45, 0
8, 19658, Note_on_c, 7, 41, 0
8, 19680, Note_on_c, 7, 48, 30
8, 19683, Note_on_c, 7, 47, 0
8, 19740, Note_on_c, 7, 60, 30
8, 19796, Note_on_c, 7, 60, 0
8, 19800, Note_on_c, 7, 59, 30
8, 19856, Note_on_c, 7, 59, 0
8, 19860, Note_on_c, 7, 60, 30
8, 20044, Note_on_c, 7, 60, 0
8, 20138, Note_on_c, 7, 48, 0
8, 20160, Note_on_c, 7, 45, 30
8, 20220, Note_on_c, 7, 60, 30
8, 20220, Note_on_c, 7, 72, 30
8, 20276, Note_on_c, 7, 72, 0
8, 20276, Note_on_c, 7, 60, 0
8, 20280, Note_on_c, 7, 59, 30
8, 20280, Note_on_c, 7, 71, 30
8, 20336, Note_on_c, 7, 71, 0
8, 20336, Note_on_c, 7, 59, 0
8, 20340, Note_on_c, 7, 60, 30
8, 20340, Note_on_c, 7, 72, 30
8, 20524, Note_on_c, 7, 72, 0
8, 20524, Note_on_c, 7, 60, 0
8, 20618, Note_on_c, 7, 45, 0
8, 20640, Note_on_c, 7, 43, 30
8, 21098, Note_on_c, 7, 43, 0
8, 21120, Note_on_c, 7, 41, 30
8, 21578, Note_on_c, 7, 41, 0
8, 21600, Note_on_c, 7, 47, 50
8, 21720, Note_on_c, 7, 48, 30
8, 21721, Note_on_c, 7, 47, 0
8, 21840, Note_on_c, 7, 43, 30
8, 21841, Note_on_c, 7, 48, 0
8, 22080, Note_on_c, 7, 47, 50
8, 22083, Note_on_c, 7, 43, 0
8, 22200, Note_on_c, 7, 48, 30
8, 22201, Note_on_c, 7, 47, 0
8, 22320, Note_on_c, 7, 48, 0
8, 22325, Note_on_c, 7, 43, 30
8, 22556, Note_on_c, 7, 43, 0
8, 22560, Note_on_c, 7, 50, 30
8, 23018, Note_on_c, 7, 50, 0
8, 23043, Note_on_c, 7, 41, 30
8, 23501, Note_on_c, 7, 41, 0
8, 23520, Note_on_c, 7, 48, 30
8, 23978, Note_on_c, 7, 48, 0
8, 24000, Note_on_c, 7, 45, 30
8, 24458, Note_on_c, 7, 45, 0
8, 24480, Note_on_c, 7, 43, 30
8, 24938, Note_on_c, 7, 43, 0
8, 24960, Note_on_c, 7, 41, 30
8, 24963, Note_on_c, 7, 41, 30
8, 25082, Note_on_c, 7, 41, 0
8, 25083, Note_on_c, 7, 43, 30
8, 25203, Note_on_c, 7, 45, 30
8, 25204, Note_on_c, 7, 43, 0
8, 25323, Note_on_c, 7, 48, 30
8, 25326, Note_on_c, 7, 45, 0
8, 25418, Note_on_c, 7, 41, 0
8, 25440, Note_on_c, 7, 67, 25
8, 25443, Note_on_c, 7, 55, 35
8, 25446, Note_on_c, 7, 48, 0
8, 25898, Note_on_c, 7, 67, 0
8, 25901, Note_on_c, 7, 55, 0
8, 25920, Note_on_c, 7, 62, 25
8, 25923, Note_on_c, 7, 50, 35
8, 26378, Note_on_c, 7, 62, 0
8, 26381, Note_on_c, 7, 50, 0
8, 26400, Note_on_c, 7, 65, 25
8, 26403, Note_on_c, 7, 53, 35
8, 26858, Note_on_c, 7, 65, 0
8, 26861, Note_on_c, 7, 53, 0
8, 26880, Note_on_c, 7, 67, 25
8, 26883, Note_on_c, 7, 55, 35
8, 27338, Note_on_c, 7, 67, 0
8, 27341, Note_on_c, 7, 55, 0
8, 27360, Note_on_c, 7, 60, 10
8, 27363, Note_on_c, 7, 48, 30
8, 27818, Note_on_c, 7, 60, 0
8, 27821, Note_on_c, 7, 48, 0
8, 27840, Note_on_c, 7, 57, 15
8, 27843, Note_on_c, 7, 45, 30
8, 28298, Note_on_c, 7, 57, 0
8, 28301, Note_on_c, 7, 45, 0
8, 28320, Note_on_c, 7, 55, 15
8, 28323, Note_on_c, 7, 43, 30
8, 28778, Note_on_c, 7, 55, 0
8, 28781, Note_on_c, 7, 43, 0
8, 28800, Note_on_c, 7, 59, 35
8, 28802, Note_on_c, 7, 47, 30
8, 28803, Note_on_c, 7, 41, 30
8, 28920, Note_on_c, 7, 60, 30
8, 28921, Note_on_c, 7, 47, 0
8, 28921, Note_on_c, 7, 59, 0
8, 28922, Note_on_c, 7, 48, 30
8, 29042, Note_on_c, 7, 45, 30
8, 29043, Note_on_c, 7, 48, 0
8, 29043, Note_on_c, 7, 60, 0
8, 29045, Note_on_c, 7, 57, 35
8, 29160, Note_on_c, 7, 59, 35
8, 29162, Note_on_c, 7, 47, 30
8, 29165, Note_on_c, 7, 45, 0
8, 29168, Note_on_c, 7, 57, 0
8, 29261, Note_on_c, 7, 41, 0
8, 29279, Note_on_c, 7, 59, 0
8, 29280, Note_on_c, 7, 60, 10
8, 29285, Note_on_c, 7, 47, 0
8, 29285, Note_on_c, 7, 48, 30
8, 29738, Note_on_c, 7, 60, 0
8, 29743, Note_on_c, 7, 48, 0
8, 29760, Note_on_c, 7, 57, 35
8, 29763, Note_on_c, 7, 45, 30
8, 30218, Note_on_c, 7, 57, 0
8, 30221, Note_on_c, 7, 45, 0
8, 30240, Note_on_c, 7, 55, 45
8, 30243, Note_on_c, 7, 43, 30
8, 30698, Note_on_c, 7, 55, 0
8, 30701, Note_on_c, 7, 43, 0
8, 30720, Note_on_c, 7, 53, 45
8, 30723, Note_on_c, 7, 41, 30
8, 31178, Note_on_c, 7, 53, 0
8, 31181, Note_on_c, 7, 41, 0
8, 31200, Note_on_c, 7, 48, 30
8, 31200, Note_on_c, 7, 60, 50
8, 31658, Note_on_c, 7, 60, 0
8, 31658, Note_on_c, 7, 48, 0
8, 31680, Note_on_c, 7, 45, 30
8, 31680, Note_on_c, 7, 72, 50
8, 32138, Note_on_c, 7, 72, 0
8, 32138, Note_on_c, 7, 45, 0
8, 32160, Note_on_c, 7, 43, 30
8, 32160, Note_on_c, 7, 55, 15
8, 32160, Note_on_c, 7, 67, 5
8, 32618, Note_on_c, 7, 67, 0
8, 32618, Note_on_c, 7, 55, 0
8, 32618, Note_on_c, 7, 43, 0
8, 32640, Note_on_c, 7, 41, 30
8, 32640, Note_on_c, 7, 53, 15
8, 32640, Note_on_c, 7, 65, 5
8, 33098, Note_on_c, 7, 65, 0
8, 33098, Note_on_c, 7, 53, 0
8, 33098, Note_on_c, 7, 41, 0
8, 33120, Note_on_c, 7, 48, 30
8, 33120, Note_on_c, 7, 60, 10
8, 33120, Note_on_c, 7, 72, 5
8, 33578, Note_on_c, 7, 72, 0
8, 33578, Note_on_c, 7, 60, 0
8, 33578, Note_on_c, 7, 48, 0
8, 33600, Note_on_c, 7, 45, 30
8, 33600, Note_on_c, 7, 57, 15
8, 33600, Note_on_c, 7, 69, 5
8, 34058, Note_on_c, 7, 69, 0
8, 34058, Note_on_c, 7, 57, 0
8, 34058, Note_on_c, 7, 45, 0
8, 34080, Note_on_c, 7, 43, 30
8, 34080, Note_on_c, 7, 55, 15
8, 34080, Note_on_c, 7, 67, 5
8, 34538, Note_on_c, 7, 67, 0
8, 34538, Note_on_c, 7, 55, 0
8, 34538, Note_on_c, 7, 43, 0
8, 34560, Note_on_c, 7, 41, 30
8, 34560, Note_on_c, 7, 53, 15
8, 34560, Note_on_c, 7, 65, 5
8, 35018, Note_on_c, 7, 65, 0
8, 35018, Note_on_c, 7, 53, 0
8, 35018, Note_on_c, 7, 41, 0
8, 35040, Note_on_c, 7, 48, 30
8, 35040, Note_on_c, 7, 60, 10
8, 35040, Note_on_c, 7, 72, 5
8, 35487, Note_on_c, 7, 72, 0
8, 35487, Note_on_c, 7, 60, 0
8, 35487, Note_on_c, 7, 48, 0
8, 35487, End_track
9, 0, Start_track
9, 0, MIDI_port, 0
9, 0, Title_t, "Track 2"
9, 0, Program_c, 8, 48
9, 0, Control_c, 8, 7, 104
9, 5760, Note_on_c, 8, 65, 50
9, 5879, Note_on_c, 8, 65, 0
9, 5880, Note_on_c, 8, 67, 50
9, 6000, Note_on_c, 8, 69, 50
9, 6001, Note_on_c, 8, 67, 0
9, 6120, Note_on_c, 8, 72, 50
9, 6123, Note_on_c, 8, 69, 0
9, 6240, Note_on_c, 8, 79, 50
9, 6243, Note_on_c, 8, 72, 0
9, 6698, Note_on_c, 8, 79, 0
9, 6720, Note_on_c, 8, 74, 50
9, 7178, Note_on_c, 8, 74, 0
9, 7200, Note_on_c, 8, 77, 50
9, 7658, Note_on_c, 8, 77, 0
9, 8165, Note_on_c, 8, 72, 50
9, 8623, Note_on_c, 8, 72, 0
9, 8640, Note_on_c, 8, 69, 50
9, 9098, Note_on_c, 8, 69, 0
9, 9125, Note_on_c, 8, 67, 50
9, 9583, Note_on_c, 8, 67, 0
9, 9600, Note_on_c, 8, 65, 50
9, 10058, Note_on_c, 8, 65, 0
9, 10080, Note_on_c, 8, 72, 50
9, 10538, Note_on_c, 8, 72, 0
9, 10560, Note_on_c, 8, 69, 50
9, 11018, Note_on_c, 8, 69, 0
9, 11040, Note_on_c, 8, 67, 50
9, 11498, Note_on_c, 8, 67, 0
9, 11520, Note_on_c, 8, 65, 50
9, 11978, Note_on_c, 8, 65, 0
9, 13440, Note_on_c, 8, 71, 50
9, 13559, Note_on_c, 8, 71, 0
9, 13565, Note_on_c, 8, 72, 50
9, 13680, Note_on_c, 8, 69, 50
9, 13686, Note_on_c, 8, 72, 0
9, 13800, Note_on_c, 8, 71, 50
9, 13803, Note_on_c, 8, 69, 0
9, 13920, Note_on_c, 8, 67, 50
9, 13923, Note_on_c, 8, 71, 0
9, 14369, Note_on_c, 8, 67, 0
9, 14400, Note_on_c, 8, 69, 50
9, 14849, Note_on_c, 8, 69, 0
9, 14880, Note_on_c, 8, 71, 50
9, 15329, Note_on_c, 8, 71, 0
9, 15360, Note_on_c, 8, 72, 50
9, 15809, Note_on_c, 8, 72, 0
9, 15840, Note_on_c, 8, 79, 50
9, 16298, Note_on_c, 8, 79, 0
9, 16320, Note_on_c, 8, 74, 50
9, 16778, Note_on_c, 8, 74, 0
9, 16800, Note_on_c, 8, 77, 50
9, 17258, Note_on_c, 8, 77, 0
9, 17280, Note_on_c, 8, 79, 50
9, 17738, Note_on_c, 8, 79, 0
9, 17760, Note_on_c, 8, 72, 50
9, 18218, Note_on_c, 8, 72, 0
9, 18240, Note_on_c, 8, 69, 50
9, 18698, Note_on_c, 8, 69, 0
9, 18720, Note_on_c, 8, 67, 50
9, 19178, Note_on_c, 8, 67, 0
9, 19200, Note_on_c, 8, 65, 50
9, 19200, Note_on_c, 8, 71, 50
9, 19319, Note_on_c, 8, 71, 0
9, 19320, Note_on_c, 8, 72, 50
9, 19440, Note_on_c, 8, 69, 50
9, 19441, Note_on_c, 8, 72, 0
9, 19560, Note_on_c, 8, 71, 50
9, 19563, Note_on_c, 8, 69, 0
9, 19658, Note_on_c, 8, 65, 0
9, 19680, Note_on_c, 8, 72, 50
9, 19683, Note_on_c, 8, 71, 0
9, 19740, Note_on_c, 8, 84, 50
9, 19796, Note_on_c, 8, 84, 0
9, 19800, Note_on_c, 8, 83, 50
9, 19856, Note_on_c, 8, 83, 0
9, 19860, Note_on_c, 8, 84, 50
9, 20044, Note_on_c, 8, 84, 0
9, 20138, Note_on_c, 8, 72, 0
9, 20160, Note_on_c, 8, 69, 50
9, 20220, Note_on_c, 8, 96, 50
9, 20276, Note_on_c, 8, 96, 0
9, 20280, Note_on_c, 8, 95, 50
9, 20336, Note_on_c, 8, 95, 0
9, 20340, Note_on_c, 8, 96, 50
9, 20524, Note_on_c, 8, 96, 0
9, 20618, Note_on_c, 8, 69, 0
9, 20640, Note_on_c, 8, 67, 50
9, 21098, Note_on_c, 8, 67, 0
9, 21120, Note_on_c, 8, 65, 50
9, 21578, Note_on_c, 8, 65, 0
9, 21600, Note_on_c, 8, 71, 50
9, 21721, Note_on_c, 8, 71, 0
9, 21725, Note_on_c, 8, 72, 50
9, 21840, Note_on_c, 8, 67, 50
9, 21846, Note_on_c, 8, 72, 0
9, 22073, Note_on_c, 8, 67, 0
9, 22080, Note_on_c, 8, 71, 50
9, 22201, Note_on_c, 8, 71, 0
9, 22205, Note_on_c, 8, 72, 50
9, 22320, Note_on_c, 8, 67, 50
9, 22326, Note_on_c, 8, 72, 0
9, 22554, Note_on_c, 8, 67, 0
9, 22560, Note_on_c, 8, 74, 50
9, 23018, Note_on_c, 8, 74, 0
9, 23043, Note_on_c, 8, 65, 50
9, 23501, Note_on_c, 8, 65, 0
9, 23520, Note_on_c, 8, 72, 50
9, 23978, Note_on_c, 8, 72, 0
9, 24000, Note_on_c, 8, 69, 50
9, 24458, Note_on_c, 8, 69, 0
9, 24480, Note_on_c, 8, 67, 50
9, 24938, Note_on_c, 8, 67, 0
9, 24960, Note_on_c, 8, 65, 50
9, 24963, Note_on_c, 8, 65, 50
9, 25082, Note_on_c, 8, 65, 0
9, 25083, Note_on_c, 8, 67, 50
9, 25203, Note_on_c, 8, 69, 50
9, 25204, Note_on_c, 8, 67, 0
9, 25323, Note_on_c, 8, 72, 50
9, 25326, Note_on_c, 8, 69, 0
9, 25418, Note_on_c, 8, 65, 0
9, 25440, Note_on_c, 8, 91, 45
9, 25443, Note_on_c, 8, 79, 55
9, 25446, Note_on_c, 8, 72, 0
9, 25898, Note_on_c, 8, 91, 0
9, 25901, Note_on_c, 8, 79, 0
9, 25920, Note_on_c, 8, 86, 45
9, 25923, Note_on_c, 8, 74, 55
9, 26378, Note_on_c, 8, 86, 0
9, 26381, Note_on_c, 8, 74, 0
9, 26400, Note_on_c, 8, 89, 45
9, 26403, Note_on_c, 8, 77, 55
9, 26858, Note_on_c, 8, 89, 0
9, 26861, Note_on_c, 8, 77, 0
9, 26880, Note_on_c, 8, 91, 45
9, 26883, Note_on_c, 8, 79, 55
9, 27338, Note_on_c, 8, 91, 0
9, 27341, Note_on_c, 8, 79, 0
9, 27360, Note_on_c, 8, 84, 30
9, 27363, Note_on_c, 8, 72, 50
9, 27818, Note_on_c, 8, 84, 0
9, 27821, Note_on_c, 8, 72, 0
9, 27840, Note_on_c, 8, 81, 35
9, 27843, Note_on_c, 8, 69, 50
9, 28297, Note_on_c, 8, 81, 0
9, 28301, Note_on_c, 8, 69, 0
9, 28320, Note_on_c, 8, 79, 35
9, 28323, Note_on_c, 8, 67, 50
9, 28778, Note_on_c, 8, 79, 0
9, 28781, Note_on_c, 8, 67, 0
9, 28800, Note_on_c, 8, 83, 55
9, 28802, Note_on_c, 8, 71, 50
9, 28803, Note_on_c, 8, 65, 50
9, 28920, Note_on_c, 8, 84, 50
9, 28921, Note_on_c, 8, 71, 0
9, 28921, Note_on_c, 8, 83, 0
9, 28922, Note_on_c, 8, 72, 50
9, 29042, Note_on_c, 8, 69, 50
9, 29043, Note_on_c, 8, 72, 0
9, 29043, Note_on_c, 8, 84, 0
9, 29045, Note_on_c, 8, 81, 55
9, 29160, Note_on_c, 8, 83, 55
9, 29162, Note_on_c, 8, 71, 50
9, 29165, Note_on_c, 8, 69, 0
9, 29168, Note_on_c, 8, 81, 0
9, 29261, Note_on_c, 8, 65, 0
9, 29279, Note_on_c, 8, 83, 0
9, 29280, Note_on_c, 8, 84, 30
9, 29285, Note_on_c, 8, 71, 0
9, 29285, Note_on_c, 8, 72, 50
9, 29738, Note_on_c, 8, 84, 0
9, 29743, Note_on_c, 8, 72, 0
9, 29760, Note_on_c, 8, 81, 55
9, 29763, Note_on_c, 8, 69, 50
9, 30218, Note_on_c, 8, 81, 0
9, 30221, Note_on_c, 8, 69, 0
9, 30243, Note_on_c, 8, 67, 50
9, 30245, Note_on_c, 8, 91, 65
9, 30701, Note_on_c, 8, 67, 0
9, 30703, Note_on_c, 8, 91, 0
9, 30720, Note_on_c, 8, 89, 65
9, 30723, Note_on_c, 8, 65, 50
9, 31178, Note_on_c, 8, 89, 0
9, 31181, Note_on_c, 8, 65, 0
9, 31200, Note_on_c, 8, 60, 50
9, 31200, Note_on_c, 8, 72, 50
9, 31658, Note_on_c, 8, 72, 0
9, 31658, Note_on_c, 8, 60, 0
9, 31680, Note_on_c, 8, 69, 50
9, 31680, Note_on_c, 8, 72, 50
9, 32138, Note_on_c, 8, 72, 0
9, 32138, Note_on_c, 8, 69, 0
9, 32160, Note_on_c, 8, 67, 50
9, 32160, Note_on_c, 8, 79, 35
9, 32160, Note_on_c, 8, 91, 25
9, 32618, Note_on_c, 8, 91, 0
9, 32618, Note_on_c, 8, 79, 0
9, 32618, Note_on_c, 8, 67, 0
9, 32640, Note_on_c, 8, 65, 50
9, 32640, Note_on_c, 8, 77, 35
9, 32640, Note_on_c, 8, 89, 25
9, 33098, Note_on_c, 8, 89, 0
9, 33098, Note_on_c, 8, 77, 0
9, 33098, Note_on_c, 8, 65, 0
9, 33120, Note_on_c, 8, 72, 50
9, 33120, Note_on_c, 8, 84, 30
9, 33120, Note_on_c, 8, 96, 25
9, 33578, Note_on_c, 8, 96, 0
9, 33578, Note_on_c, 8, 84, 0
9, 33578, Note_on_c, 8, 72, 0
9, 33600, Note_on_c, 8, 69, 50
9, 33600, Note_on_c, 8, 81, 35
9, 33600, Note_on_c, 8, 93, 25
9, 34058, Note_on_c, 8, 93, 0
9, 34058, Note_on_c, 8, 81, 0
9, 34058, Note_on_c, 8, 69, 0
9, 34080, Note_on_c, 8, 67, 50
9, 34080, Note_on_c, 8, 79, 35
9, 34080, Note_on_c, 8, 91, 25
9, 34538, Note_on_c, 8, 91, 0
9, 34538, Note_on_c, 8, 79, 0
9, 34538, Note_on_c, 8, 67, 0
9, 34560, Note_on_c, 8, 65, 50
9, 34560, Note_on_c, 8, 77, 35
9, 34560, Note_on_c, 8, 89, 25
9, 35018, Note_on_c, 8, 89, 0
9, 35018, Note_on_c, 8, 77, 0
9, 35018, Note_on_c, 8, 65, 0
9, 35040, Note_on_c, 8, 72, 50
9, 35040, Note_on_c, 8, 84, 30
9, 35040, Note_on_c, 8, 96, 25
9, 35487, Note_on_c, 8, 96, 0
9, 35487, Note_on_c, 8, 84, 0
9, 35487, Note_on_c, 8, 72, 0
9, 35487, End_track
10, 0, Start_track
10, 0, MIDI_port, 0
10, 0, Title_t, "Track 1"
10, 0, Program_c, 10, 48
10, 0, Control_c, 10, 7, 104
10, 8160, Note_on_c, 10, 72, 40
10, 8160, Note_on_c, 10, 76, 40
10, 8160, Note_on_c, 10, 79, 40
10, 8587, Note_on_c, 10, 79, 0
10, 8640, Note_on_c, 10, 81, 40
10, 9067, Note_on_c, 10, 81, 0
10, 9107, Note_on_c, 10, 76, 0
10, 9107, Note_on_c, 10, 72, 0
10, 9120, Note_on_c, 10, 71, 40
10, 9120, Note_on_c, 10, 74, 40
10, 9120, Note_on_c, 10, 79, 40
10, 9547, Note_on_c, 10, 79, 0
10, 9547, Note_on_c, 10, 74, 0
10, 9547, Note_on_c, 10, 71, 0
10, 9600, Note_on_c, 10, 72, 40
10, 9600, Note_on_c, 10, 77, 40
10, 9600, Note_on_c, 10, 81, 40
10, 10027, Note_on_c, 10, 81, 0
10, 10027, Note_on_c, 10, 77, 0
10, 10027, Note_on_c, 10, 72, 0
10, 10080, Note_on_c, 10, 72, 40
10, 10080, Note_on_c, 10, 76, 40
10, 10080, Note_on_c, 10, 79, 40
10, 10507, Note_on_c, 10, 79, 0
10, 10560, Note_on_c, 10, 81, 40
10, 10987, Note_on_c, 10, 81, 0
10, 11027, Note_on_c, 10, 76, 0
10, 11027, Note_on_c, 10, 72, 0
10, 11040, Note_on_c, 10, 71, 40
10, 11040, Note_on_c, 10, 74, 40
10, 11040, Note_on_c, 10, 79, 40
10, 11467, Note_on_c, 10, 79, 0
10, 11467, Note_on_c, 10, 74, 0
10, 11467, Note_on_c, 10, 71, 0
10, 11520, Note_on_c, 10, 72, 40
10, 11520, Note_on_c, 10, 77, 40
10, 11520, Note_on_c, 10, 81, 40
10, 11947, Note_on_c, 10, 81, 0
10, 11947, Note_on_c, 10, 77, 0
10, 11947, Note_on_c, 10, 72, 0
10, 13920, Note_on_c, 10, 72, 40
10, 13920, Note_on_c, 10, 76, 40
10, 13920, Note_on_c, 10, 79, 40
10, 14347, Note_on_c, 10, 79, 0
10, 14400, Note_on_c, 10, 81, 40
10, 14827, Note_on_c, 10, 81, 0
10, 14867, Note_on_c, 10, 76, 0
10, 14867, Note_on_c, 10, 72, 0
10, 14880, Note_on_c, 10, 71, 40
10, 14880, Note_on_c, 10, 74, 40
10, 14880, Note_on_c, 10, 79, 40
10, 15307, Note_on_c, 10, 79, 0
10, 15307, Note_on_c, 10, 74, 0
10, 15307, Note_on_c, 10, 71, 0
10, 15360, Note_on_c, 10, 72, 40
10, 15360, Note_on_c, 10, 77, 40
10, 15360, Note_on_c, 10, 81, 40
10, 15787, Note_on_c, 10, 77, 0
10, 15787, Note_on_c, 10, 72, 0
10, 15840, Note_on_c, 10, 72, 40
10, 15840, Note_on_c, 10, 76, 40
10, 16267, Note_on_c, 10, 76, 0
10, 16267, Note_on_c, 10, 72, 0
10, 16320, Note_on_c, 10, 74, 40
10, 16320, Note_on_c, 10, 78, 40
10, 16747, Note_on_c, 10, 78, 0
10, 16747, Note_on_c, 10, 74, 0
10, 16800, Note_on_c, 10, 77, 40
10, 16800, Note_on_c, 10, 84, 40
10, 16827, Note_on_c, 10, 81, 0
10, 17227, Note_on_c, 10, 84, 0
10, 17227, Note_on_c, 10, 77, 0
10, 17280, Note_on_c, 10, 79, 40
10, 17280, Note_on_c, 10, 83, 40
10, 17280, Note_on_c, 10, 86, 40
10, 17707, Note_on_c, 10, 86, 0
10, 17707, Note_on_c, 10, 83, 0
10, 17707, Note_on_c, 10, 79, 0
10, 17760, Note_on_c, 10, 72, 40
10, 17760, Note_on_c, 10, 76, 40
10, 17760, Note_on_c, 10, 79, 40
10, 18187, Note_on_c, 10, 79, 0
10, 18240, Note_on_c, 10, 81, 40
10, 18667, Note_on_c, 10, 81, 0
10, 18707, Note_on_c, 10, 76, 0
10, 18707, Note_on_c, 10, 72, 0
10, 18720, Note_on_c, 10, 71, 40
10, 18720, Note_on_c, 10, 74, 40
10, 18720, Note_on_c, 10, 79, 40
10, 19147, Note_on_c, 10, 79, 0
10, 19147, Note_on_c, 10, 74, 0
10, 19147, Note_on_c, 10, 71, 0
10, 19200, Note_on_c, 10, 72, 40
10, 19200, Note_on_c, 10, 77, 40
10, 19200, Note_on_c, 10, 81, 40
10, 19627, Note_on_c, 10, 81, 0
10, 19627, Note_on_c, 10, 77, 0
10, 19627, Note_on_c, 10, 72, 0
10, 19680, Note_on_c, 10, 72, 40
10, 19680, Note_on_c, 10, 76, 40
10, 19680, Note_on_c, 10, 79, 40
10, 20107, Note_on_c, 10, 79, 0
10, 20160, Note_on_c, 10, 81, 40
10, 20587, Note_on_c, 10, 81, 0
10, 20627, Note_on_c, 10, 76, 0
10, 20627, Note_on_c, 10, 72, 0
10, 20640, Note_on_c, 10, 71, 40
10, 20640, Note_on_c, 10, 74, 40
10, 20640, Note_on_c, 10, 79, 40
10, 21067, Note_on_c, 10, 79, 0
10, 21067, Note_on_c, 10, 74, 0
10, 21067, Note_on_c, 10, 71, 0
10, 21120, Note_on_c, 10, 72, 40
10, 21120, Note_on_c, 10, 77, 40
10, 21120, Note_on_c, 10, 81, 40
10, 21547, Note_on_c, 10, 81, 0
10, 21547, Note_on_c, 10, 77, 0
10, 21547, Note_on_c, 10, 72, 0
10, 21600, Note_on_c, 10, 72, 40
10, 21600, Note_on_c, 10, 76, 40
10, 21600, Note_on_c, 10, 79, 40
10, 22027, Note_on_c, 10, 79, 0
10, 22080, Note_on_c, 10, 81, 40
10, 22507, Note_on_c, 10, 81, 0
10, 22547, Note_on_c, 10, 76, 0
10, 22547, Note_on_c, 10, 72, 0
10, 22560, Note_on_c, 10, 71, 40
10, 22560, Note_on_c, 10, 74, 40
10, 22560, Note_on_c, 10, 79, 40
10, 22987, Note_on_c, 10, 79, 0
10, 22987, Note_on_c, 10, 74, 0
10, 22987, Note_on_c, 10, 71, 0
10, 23040, Note_on_c, 10, 72, 40
10, 23040, Note_on_c, 10, 77, 40
10, 23040, Note_on_c, 10, 81, 40
10, 23467, Note_on_c, 10, 81, 0
10, 23467, Note_on_c, 10, 77, 0
10, 23467, Note_on_c, 10, 72, 0
10, 23520, Note_on_c, 10, 72, 40
10, 23520, Note_on_c, 10, 76, 40
10, 23520, Note_on_c, 10, 79, 40
10, 23947, Note_on_c, 10, 79, 0
10, 24000, Note_on_c, 10, 81, 40
10, 24427, Note_on_c, 10, 81, 0
10, 24467, Note_on_c, 10, 76, 0
10, 24467, Note_on_c, 10, 72, 0
10, 24480, Note_on_c, 10, 71, 40
10, 24480, Note_on_c, 10, 74, 40
10, 24480, Note_on_c, 10, 79, 40
10, 24907, Note_on_c, 10, 79, 0
10, 24907, Note_on_c, 10, 74, 0
10, 24907, Note_on_c, 10, 71, 0
10, 24960, Note_on_c, 10, 72, 40
10, 24960, Note_on_c, 10, 77, 40
10, 24960, Note_on_c, 10, 81, 40
10, 25387, Note_on_c, 10, 77, 0
10, 25387, Note_on_c, 10, 72, 0
10, 25440, Note_on_c, 10, 72, 40
10, 25440, Note_on_c, 10, 76, 40
10, 25867, Note_on_c, 10, 76, 0
10, 25867, Note_on_c, 10, 72, 0
10, 25920, Note_on_c, 10, 74, 40
10, 25920, Note_on_c, 10, 78, 40
10, 26347, Note_on_c, 10, 78, 0
10, 26347, Note_on_c, 10, 74, 0
10, 26400, Note_on_c, 10, 77, 40
10, 26400, Note_on_c, 10, 81, 40
10, 26400, Note_on_c, 10, 84, 40
10, 26427, Note_on_c, 10, 81, 0
10, 26827, Note_on_c, 10, 77, 0
10, 26827, Note_on_c, 10, 81, 0
10, 26827, Note_on_c, 10, 84, 0
10, 26880, Note_on_c, 10, 79, 40
10, 26880, Note_on_c, 10, 83, 40
10, 26880, Note_on_c, 10, 86, 40
10, 27307, Note_on_c, 10, 86, 0
10, 27307, Note_on_c, 10, 83, 0
10, 27307, Note_on_c, 10, 79, 0
10, 27360, Note_on_c, 10, 72, 40
10, 27360, Note_on_c, 10, 76, 40
10, 27360, Note_on_c, 10, 79, 40
10, 27787, Note_on_c, 10, 79, 0
10, 27840, Note_on_c, 10, 81, 40
10, 28266, Note_on_c, 10, 81, 0
10, 28307, Note_on_c, 10, 76, 0
10, 28307, Note_on_c, 10, 72, 0
10, 28320, Note_on_c, 10, 71, 40
10, 28320, Note_on_c, 10, 74, 40
10, 28320, Note_on_c, 10, 79, 40
10, 28747, Note_on_c, 10, 79, 0
10, 28747, Note_on_c, 10, 74, 0
10, 28747, Note_on_c, 10, 71, 0
10, 28800, Note_on_c, 10, 72, 40
10, 28800, Note_on_c, 10, 77, 40
10, 28800, Note_on_c, 10, 81, 40
10, 29227, Note_on_c, 10, 81, 0
10, 29227, Note_on_c, 10, 77, 0
10, 29280, Note_on_c, 10, 76, 40
10, 29280, Note_on_c, 10, 79, 40
10, 29707, Note_on_c, 10, 79, 0
10, 29707, Note_on_c, 10, 76, 0
10, 29760, Note_on_c, 10, 76, 40
10, 29760, Note_on_c, 10, 81, 40
10, 30187, Note_on_c, 10, 81, 0
10, 30187, Note_on_c, 10, 76, 0
10, 30240, Note_on_c, 10, 71, 40
10, 30240, Note_on_c, 10, 74, 40
10, 30240, Note_on_c, 10, 79, 40
10, 30267, Note_on_c, 10, 72, 0
10, 30667, Note_on_c, 10, 71, 0
10, 30667, Note_on_c, 10, 74, 0
10, 30667, Note_on_c, 10, 79, 0
10, 30720, Note_on_c, 10, 72, 40
10, 30720, Note_on_c, 10, 77, 40
10, 30720, Note_on_c, 10, 81, 40
10, 31147, Note_on_c, 10, 81, 0
10, 31147, Note_on_c, 10, 77, 0
10, 31200, Note_on_c, 10, 76, 40
10, 31200, Note_on_c, 10, 79, 40
10, 31627, Note_on_c, 10, 79, 0
10, 31627, Note_on_c, 10, 76, 0
10, 31680, Note_on_c, 10, 76, 40
10, 31680, Note_on_c, 10, 81, 40
10, 32107, Note_on_c, 10, 81, 0
10, 32107, Note_on_c, 10, 76, 0
10, 32160, Note_on_c, 10, 71, 40
10, 32160, Note_on_c, 10, 74, 40
10, 32160, Note_on_c, 10, 79, 40
10, 32187, Note_on_c, 10, 72, 0
10, 32587, Note_on_c, 10, 71, 0
10, 32587, Note_on_c, 10, 74, 0
10, 32587, Note_on_c, 10, 79, 0
10, 32640, Note_on_c, 10, 72, 40
10, 32640, Note_on_c, 10, 77, 40
10, 32640, Note_on_c, 10, 81, 40
10, 33067, Note_on_c, 10, 81, 0
10, 33067, Note_on_c, 10, 77, 0
10, 33120, Note_on_c, 10, 76, 40
10, 33120, Note_on_c, 10, 79, 40
10, 33547, Note_on_c, 10, 79, 0
10, 33600, Note_on_c, 10, 81, 40
10, 34027, Note_on_c, 10, 81, 0
10, 34067, Note_on_c, 10, 76, 0
10, 34080, Note_on_c, 10, 71, 40
10, 34080, Note_on_c, 10, 74, 40
10, 34080, Note_on_c, 10, 79, 40
10, 34107, Note_on_c, 10, 72, 0
10, 34507, Note_on_c, 10, 71, 0
10, 34507, Note_on_c, 10, 74, 0
10, 34507, Note_on_c, 10, 79, 0
10, 34560, Note_on_c, 10, 77, 40
10, 34560, Note_on_c, 10, 81, 40
10, 34560, Note_on_c, 10, 84, 40
10, 34987, Note_on_c, 10, 84, 0
10, 34987, Note_on_c, 10, 81, 0
10, 34987, Note_on_c, 10, 77, 0
10, 34987, End_track
0, 0, End_of_file
