0, 0, Header, 0, 1, 96
1, 0, Start_track
1, 0, Title_t, "Prince - Papa"
1, 0, Text_t, "Sequenced by Raul Alonso Lopez - raul@las.es"
1, 0, SMPTE_offset, 96, 0, 3, 0, 0
1, 0, Time_signature, 4, 2, 24, 8
1, 0, Key_signature, 0, "major"
1, 0, Tempo, 769231
1, 0, Control_c, 9, 7, 90
1, 0, Control_c, 9, 7, 90
1, 0, Program_c, 1, 35
1, 0, Control_c, 1, 7, 125
1, 0, Program_c, 2, 27
1, 0, Control_c, 2, 7, 40
1, 0, Control_c, 2, 10, 50
1, 0, Program_c, 3, 25
1, 0, Control_c, 3, 7, 90
1, 0, Program_c, 4, 20
1, 0, Control_c, 4, 7, 70
1, 0, Control_c, 4, 10, 85
1, 0, Program_c, 5, 31
1, 0, Control_c, 5, 7, 60
1, 0, Program_c, 6, 122
1, 0, Control_c, 6, 7, 80
1, 0, Control_c, 9, 7, 90
1, 385, Control_c, 3, 64, 127
1, 386, Note_on_c, 3, 46, 100
1, 411, Note_on_c, 3, 46, 0
1, 429, Note_on_c, 3, 46, 68
1, 467, Note_on_c, 3, 46, 0
1, 476, Note_on_c, 3, 56, 100
1, 515, Note_on_c, 3, 56, 0
1, 523, Note_on_c, 3, 46, 77
1, 549, Note_on_c, 3, 56, 88
1, 550, Note_on_c, 3, 46, 0
1, 605, Note_on_c, 3, 56, 0
1, 617, Note_on_c, 3, 46, 100
1, 645, Note_on_c, 3, 46, 0
1, 661, Note_on_c, 3, 56, 77
1, 692, Note_on_c, 3, 56, 0
1, 713, Note_on_c, 3, 58, 51
1, 735, Note_on_c, 3, 58, 0
1, 762, Note_on_c, 3, 62, 100
1, 780, Control_c, 3, 64, 0
1, 799, Note_on_c, 3, 62, 0
1, 805, Note_on_c, 3, 46, 88
1, 812, Control_c, 3, 64, 127
1, 856, Note_on_c, 3, 56, 88
1, 857, Note_on_c, 3, 46, 0
1, 899, Note_on_c, 3, 56, 0
1, 905, Note_on_c, 3, 46, 77
1, 933, Note_on_c, 3, 56, 88
1, 935, Note_on_c, 3, 46, 0
1, 1003, Note_on_c, 3, 46, 88
1, 1005, Note_on_c, 3, 56, 0
1, 1056, Note_on_c, 3, 46, 0
1, 1059, Note_on_c, 3, 56, 100
1, 1102, Note_on_c, 3, 58, 36
1, 1103, Note_on_c, 3, 56, 0
1, 1105, Control_c, 3, 64, 0
1, 1134, Note_on_c, 3, 61, 68
1, 1138, Note_on_c, 3, 58, 0
1, 1151, Note_on_c, 3, 46, 88
1, 1154, Note_on_c, 3, 61, 0
1, 1161, Control_c, 3, 64, 127
1, 1178, Note_on_c, 3, 46, 0
1, 1196, Note_on_c, 3, 46, 68
1, 1238, Note_on_c, 3, 46, 0
1, 1242, Note_on_c, 3, 56, 100
1, 1285, Note_on_c, 3, 56, 0
1, 1289, Note_on_c, 3, 46, 60
1, 1318, Note_on_c, 3, 56, 100
1, 1321, Note_on_c, 3, 46, 0
1, 1377, Note_on_c, 3, 56, 0
1, 1385, Note_on_c, 3, 46, 77
1, 1425, Note_on_c, 3, 46, 0
1, 1432, Note_on_c, 3, 56, 77
1, 1480, Note_on_c, 3, 58, 60
1, 1484, Note_on_c, 3, 56, 0
1, 1500, Control_c, 3, 64, 0
1, 1527, Note_on_c, 3, 62, 88
1, 1531, Note_on_c, 3, 58, 0
1, 1572, Note_on_c, 3, 46, 51
1, 1574, Note_on_c, 3, 62, 0
1, 1577, Control_c, 3, 64, 127
1, 1619, Note_on_c, 3, 46, 0
1, 1620, Note_on_c, 3, 56, 100
1, 1665, Note_on_c, 3, 56, 0
1, 1668, Note_on_c, 3, 46, 77
1, 1695, Note_on_c, 3, 56, 88
1, 1700, Note_on_c, 3, 46, 0
1, 1767, Note_on_c, 3, 56, 0
1, 1767, Note_on_c, 3, 46, 77
1, 1815, Note_on_c, 3, 46, 0
1, 1817, Note_on_c, 3, 56, 88
1, 1830, Control_c, 3, 64, 0
1, 1848, Note_on_c, 3, 56, 0
1, 1864, Note_on_c, 3, 56, 88
1, 1895, Note_on_c, 3, 58, 60
1, 1898, Note_on_c, 3, 56, 0
1, 1901, Note_on_c, 1, 32, 100
1, 1912, Note_on_c, 3, 58, 0
1, 1915, Note_on_c, 1, 34, 100
1, 1920, Note_on_c, 9, 35, 96
1, 1920, Note_on_c, 9, 49, 56
1, 1920, Note_on_c, 9, 42, 50
1, 1920, Note_on_c, 3, 46, 112
1, 1922, Note_on_c, 1, 32, 0
1, 1922, Note_on_c, 4, 34, 112
1, 1924, Note_on_c, 9, 42, 0
1, 1943, Note_on_c, 1, 32, 100
1, 1944, Note_on_c, 9, 49, 0
1, 1944, Note_on_c, 9, 35, 0
1, 1949, Note_on_c, 1, 34, 0
1, 1950, Note_on_c, 3, 46, 0
1, 1956, Note_on_c, 9, 42, 32
1, 1960, Note_on_c, 9, 42, 0
1, 1963, Note_on_c, 1, 34, 112
1, 1964, Note_on_c, 4, 34, 0
1, 1966, Note_on_c, 1, 32, 0
1, 1968, Note_on_c, 9, 42, 50
1, 1968, Note_on_c, 3, 46, 77
1, 1972, Note_on_c, 9, 42, 0
1, 2003, Note_on_c, 1, 34, 0
1, 2004, Note_on_c, 9, 42, 40
1, 2008, Note_on_c, 9, 42, 0
1, 2011, Note_on_c, 2, 56, 125
1, 2016, Note_on_c, 9, 39, 75
1, 2016, Note_on_c, 9, 42, 50
1, 2016, Note_on_c, 9, 37, 56
1, 2016, Note_on_c, 3, 56, 112
1, 2016, Note_on_c, 6, 72, 100
1, 2017, Note_on_c, 4, 41, 112
1, 2019, Note_on_c, 3, 46, 0
1, 2020, Note_on_c, 9, 37, 0
1, 2020, Note_on_c, 9, 42, 0
1, 2040, Note_on_c, 9, 39, 0
1, 2041, Note_on_c, 2, 58, 77
1, 2046, Note_on_c, 2, 56, 0
1, 2051, Note_on_c, 4, 41, 0
1, 2052, Note_on_c, 9, 42, 40
1, 2056, Note_on_c, 9, 42, 0
1, 2057, Note_on_c, 2, 62, 88
1, 2062, Note_on_c, 2, 58, 0
1, 2063, Note_on_c, 3, 56, 0
1, 2063, Note_on_c, 3, 46, 77
1, 2064, Note_on_c, 9, 42, 51
1, 2068, Note_on_c, 9, 42, 0
1, 2088, Note_on_c, 2, 58, 100
1, 2090, Note_on_c, 2, 62, 0
1, 2092, Note_on_c, 3, 56, 88
1, 2100, Note_on_c, 9, 42, 32
1, 2102, Note_on_c, 3, 46, 0
1, 2104, Note_on_c, 9, 42, 0
1, 2107, Note_on_c, 4, 49, 100
1, 2110, Note_on_c, 4, 50, 100
1, 2112, Note_on_c, 9, 42, 50
1, 2112, Note_on_c, 9, 35, 96
1, 2116, Note_on_c, 9, 42, 0
1, 2120, Note_on_c, 4, 49, 0
1, 2136, Note_on_c, 9, 35, 0
1, 2148, Note_on_c, 9, 42, 40
1, 2152, Note_on_c, 9, 42, 0
1, 2160, Note_on_c, 9, 42, 50
1, 2164, Note_on_c, 9, 42, 0
1, 2166, Note_on_c, 3, 46, 100
1, 2172, Note_on_c, 3, 56, 0
1, 2196, Note_on_c, 9, 42, 40
1, 2200, Note_on_c, 9, 42, 0
1, 2208, Note_on_c, 9, 42, 50
1, 2208, Note_on_c, 9, 37, 64
1, 2208, Note_on_c, 9, 39, 65
1, 2212, Note_on_c, 9, 37, 0
1, 2212, Note_on_c, 3, 46, 0
1, 2212, Note_on_c, 9, 42, 0
1, 2212, Note_on_c, 3, 56, 88
1, 2232, Note_on_c, 9, 39, 0
1, 2244, Note_on_c, 9, 42, 40
1, 2246, Note_on_c, 2, 58, 0
1, 2248, Note_on_c, 9, 42, 0
1, 2256, Note_on_c, 9, 42, 50
1, 2257, Note_on_c, 3, 58, 68
1, 2260, Note_on_c, 9, 42, 0
1, 2262, Note_on_c, 3, 56, 0
1, 2268, Note_on_c, 4, 50, 0
1, 2292, Note_on_c, 9, 42, 40
1, 2296, Note_on_c, 9, 42, 0
1, 2299, Note_on_c, 1, 39, 112
1, 2304, Note_on_c, 9, 42, 50
1, 2304, Note_on_c, 9, 35, 96
1, 2305, Note_on_c, 4, 39, 112
1, 2306, Note_on_c, 3, 62, 100
1, 2308, Note_on_c, 9, 42, 0
1, 2309, Note_on_c, 3, 58, 0
1, 2328, Note_on_c, 9, 35, 0
1, 2340, Note_on_c, 9, 42, 32
1, 2344, Note_on_c, 9, 42, 0
1, 2352, Note_on_c, 9, 42, 50
1, 2353, Note_on_c, 3, 46, 88
1, 2356, Note_on_c, 9, 42, 0
1, 2360, Note_on_c, 3, 62, 0
1, 2362, Note_on_c, 4, 39, 0
1, 2388, Note_on_c, 9, 42, 40
1, 2392, Note_on_c, 9, 42, 0
1, 2398, Note_on_c, 2, 55, 125
1, 2400, Note_on_c, 9, 42, 50
1, 2400, Note_on_c, 9, 39, 75
1, 2400, Note_on_c, 9, 37, 56
1, 2401, Note_on_c, 4, 37, 112
1, 2402, Note_on_c, 1, 37, 100
1, 2404, Note_on_c, 9, 37, 0
1, 2404, Note_on_c, 9, 42, 0
1, 2404, Note_on_c, 3, 56, 100
1, 2405, Note_on_c, 1, 39, 0
1, 2408, Note_on_c, 3, 46, 0
1, 2424, Note_on_c, 9, 39, 0
1, 2430, Note_on_c, 2, 56, 100
1, 2433, Note_on_c, 2, 55, 0
1, 2436, Note_on_c, 9, 42, 40
1, 2440, Note_on_c, 9, 42, 0
1, 2444, Note_on_c, 2, 63, 77
1, 2448, Note_on_c, 9, 42, 51
1, 2451, Note_on_c, 3, 56, 0
1, 2451, Note_on_c, 3, 46, 77
1, 2452, Note_on_c, 9, 42, 0
1, 2454, Note_on_c, 2, 56, 0
1, 2456, Note_on_c, 4, 37, 0
1, 2471, Note_on_c, 1, 37, 0
1, 2474, Note_on_c, 2, 63, 0
1, 2474, Note_on_c, 1, 34, 100
1, 2475, Note_on_c, 4, 34, 100
1, 2476, Note_on_c, 2, 56, 88
1, 2476, Note_on_c, 3, 56, 88
1, 2482, Note_on_c, 3, 46, 0
1, 2484, Note_on_c, 9, 42, 32
1, 2488, Note_on_c, 9, 42, 0
1, 2496, Note_on_c, 1, 34, 0
1, 2496, Note_on_c, 9, 35, 96
1, 2496, Note_on_c, 9, 42, 50
1, 2500, Note_on_c, 9, 42, 0
1, 2512, Note_on_c, 4, 34, 0
1, 2520, Note_on_c, 9, 35, 0
1, 2532, Note_on_c, 9, 42, 40
1, 2536, Note_on_c, 9, 42, 0
1, 2544, Note_on_c, 9, 42, 50
1, 2547, Note_on_c, 2, 56, 0
1, 2547, Note_on_c, 3, 46, 88
1, 2548, Note_on_c, 9, 42, 0
1, 2550, Note_on_c, 3, 56, 0
1, 2550, Note_on_c, 2, 55, 112
1, 2579, Note_on_c, 2, 56, 100
1, 2580, Note_on_c, 9, 42, 40
1, 2582, Note_on_c, 2, 55, 0
1, 2584, Note_on_c, 9, 42, 0
1, 2591, Note_on_c, 3, 56, 100
1, 2592, Note_on_c, 9, 37, 64
1, 2592, Note_on_c, 9, 42, 50
1, 2592, Note_on_c, 9, 39, 65
1, 2593, Note_on_c, 3, 46, 0
1, 2594, Note_on_c, 2, 53, 112
1, 2596, Note_on_c, 9, 37, 0
1, 2596, Note_on_c, 2, 56, 0
1, 2596, Note_on_c, 9, 42, 0
1, 2616, Note_on_c, 9, 39, 0
1, 2627, Note_on_c, 3, 56, 0
1, 2628, Note_on_c, 9, 42, 40
1, 2632, Note_on_c, 9, 42, 0
1, 2640, Note_on_c, 9, 42, 50
1, 2641, Note_on_c, 2, 56, 88
1, 2644, Note_on_c, 9, 42, 0
1, 2644, Note_on_c, 3, 56, 100
1, 2646, Note_on_c, 2, 53, 0
1, 2669, Note_on_c, 1, 32, 100
1, 2674, Note_on_c, 2, 58, 77
1, 2675, Note_on_c, 3, 58, 88
1, 2676, Note_on_c, 9, 42, 40
1, 2678, Note_on_c, 3, 56, 0
1, 2679, Note_on_c, 2, 56, 0
1, 2680, Note_on_c, 9, 42, 0
1, 2683, Note_on_c, 1, 34, 100
1, 2688, Note_on_c, 2, 58, 0
1, 2688, Note_on_c, 3, 58, 0
1, 2688, Note_on_c, 9, 35, 96
1, 2688, Note_on_c, 9, 42, 50
1, 2688, Note_on_c, 3, 46, 112
1, 2690, Note_on_c, 1, 32, 0
1, 2690, Note_on_c, 4, 34, 112
1, 2692, Note_on_c, 9, 42, 0
1, 2711, Note_on_c, 1, 32, 100
1, 2712, Note_on_c, 9, 35, 0
1, 2717, Note_on_c, 1, 34, 0
1, 2718, Note_on_c, 3, 46, 0
1, 2724, Note_on_c, 9, 42, 32
1, 2728, Note_on_c, 9, 42, 0
1, 2731, Note_on_c, 1, 34, 112
1, 2732, Note_on_c, 4, 34, 0
1, 2734, Note_on_c, 1, 32, 0
1, 2736, Note_on_c, 9, 42, 50
1, 2736, Note_on_c, 3, 46, 77
1, 2740, Note_on_c, 9, 42, 0
1, 2771, Note_on_c, 1, 34, 0
1, 2772, Note_on_c, 9, 42, 40
1, 2776, Note_on_c, 9, 42, 0
1, 2779, Note_on_c, 2, 56, 125
1, 2784, Note_on_c, 9, 37, 56
1, 2784, Note_on_c, 9, 39, 75
1, 2784, Note_on_c, 9, 42, 50
1, 2784, Note_on_c, 3, 56, 112
1, 2785, Note_on_c, 4, 41, 112
1, 2787, Note_on_c, 3, 46, 0
1, 2788, Note_on_c, 9, 37, 0
1, 2788, Note_on_c, 9, 42, 0
1, 2808, Note_on_c, 9, 39, 0
1, 2809, Note_on_c, 2, 58, 77
1, 2814, Note_on_c, 2, 56, 0
1, 2819, Note_on_c, 4, 41, 0
1, 2820, Note_on_c, 9, 42, 40
1, 2824, Note_on_c, 9, 42, 0
1, 2825, Note_on_c, 2, 62, 88
1, 2830, Note_on_c, 2, 58, 0
1, 2831, Note_on_c, 3, 56, 0
1, 2831, Note_on_c, 3, 46, 77
1, 2832, Note_on_c, 9, 42, 51
1, 2836, Note_on_c, 9, 42, 0
1, 2856, Note_on_c, 2, 58, 100
1, 2858, Note_on_c, 2, 62, 0
1, 2860, Note_on_c, 3, 56, 88
1, 2868, Note_on_c, 9, 42, 32
1, 2870, Note_on_c, 3, 46, 0
1, 2872, Note_on_c, 9, 42, 0
1, 2875, Note_on_c, 4, 49, 100
1, 2878, Note_on_c, 4, 50, 100
1, 2880, Note_on_c, 9, 42, 50
1, 2880, Note_on_c, 9, 35, 96
1, 2884, Note_on_c, 9, 42, 0
1, 2888, Note_on_c, 4, 49, 0
1, 2904, Note_on_c, 9, 35, 0
1, 2916, Note_on_c, 9, 42, 40
1, 2920, Note_on_c, 9, 42, 0
1, 2928, Note_on_c, 9, 42, 50
1, 2932, Note_on_c, 9, 42, 0
1, 2934, Note_on_c, 3, 46, 100
1, 2940, Note_on_c, 3, 56, 0
1, 2964, Note_on_c, 9, 42, 40
1, 2968, Note_on_c, 9, 42, 0
1, 2976, Note_on_c, 9, 39, 65
1, 2976, Note_on_c, 9, 42, 50
1, 2976, Note_on_c, 9, 37, 64
1, 2980, Note_on_c, 9, 37, 0
1, 2980, Note_on_c, 3, 46, 0
1, 2980, Note_on_c, 9, 42, 0
1, 2980, Note_on_c, 3, 56, 88
1, 3000, Note_on_c, 9, 39, 0
1, 3012, Note_on_c, 9, 42, 40
1, 3014, Note_on_c, 2, 58, 0
1, 3016, Note_on_c, 9, 42, 0
1, 3024, Note_on_c, 9, 42, 50
1, 3025, Note_on_c, 3, 58, 68
1, 3028, Note_on_c, 9, 42, 0
1, 3030, Note_on_c, 3, 56, 0
1, 3036, Note_on_c, 4, 50, 0
1, 3060, Note_on_c, 9, 42, 40
1, 3064, Note_on_c, 9, 42, 0
1, 3067, Note_on_c, 1, 39, 112
1, 3072, Note_on_c, 9, 42, 50
1, 3072, Note_on_c, 9, 35, 96
1, 3073, Note_on_c, 4, 39, 112
1, 3074, Note_on_c, 3, 62, 100
1, 3076, Note_on_c, 9, 42, 0
1, 3077, Note_on_c, 3, 58, 0
1, 3096, Note_on_c, 9, 35, 0
1, 3108, Note_on_c, 9, 42, 32
1, 3112, Note_on_c, 9, 42, 0
1, 3120, Note_on_c, 9, 42, 50
1, 3121, Note_on_c, 3, 46, 88
1, 3124, Note_on_c, 9, 42, 0
1, 3128, Note_on_c, 3, 62, 0
1, 3130, Note_on_c, 4, 39, 0
1, 3156, Note_on_c, 9, 42, 40
1, 3160, Note_on_c, 9, 42, 0
1, 3166, Note_on_c, 2, 55, 125
1, 3168, Note_on_c, 9, 39, 75
1, 3168, Note_on_c, 9, 42, 50
1, 3168, Note_on_c, 9, 37, 56
1, 3169, Note_on_c, 4, 37, 112
1, 3170, Note_on_c, 1, 37, 100
1, 3172, Note_on_c, 9, 37, 0
1, 3172, Note_on_c, 9, 42, 0
1, 3172, Note_on_c, 3, 56, 100
1, 3173, Note_on_c, 1, 39, 0
1, 3176, Note_on_c, 3, 46, 0
1, 3192, Note_on_c, 9, 39, 0
1, 3198, Note_on_c, 2, 56, 100
1, 3201, Note_on_c, 2, 55, 0
1, 3204, Note_on_c, 9, 42, 40
1, 3208, Note_on_c, 9, 42, 0
1, 3212, Note_on_c, 2, 63, 77
1, 3216, Note_on_c, 9, 42, 51
1, 3219, Note_on_c, 3, 56, 0
1, 3219, Note_on_c, 3, 46, 77
1, 3220, Note_on_c, 9, 42, 0
1, 3222, Note_on_c, 2, 56, 0
1, 3224, Note_on_c, 4, 37, 0
1, 3239, Note_on_c, 1, 37, 0
1, 3242, Note_on_c, 2, 63, 0
1, 3242, Note_on_c, 1, 34, 100
1, 3243, Note_on_c, 4, 34, 100
1, 3244, Note_on_c, 2, 56, 88
1, 3244, Note_on_c, 3, 56, 88
1, 3250, Note_on_c, 3, 46, 0
1, 3252, Note_on_c, 9, 42, 32
1, 3256, Note_on_c, 9, 42, 0
1, 3264, Note_on_c, 1, 34, 0
1, 3264, Note_on_c, 6, 72, 0
1, 3264, Note_on_c, 9, 35, 96
1, 3264, Note_on_c, 9, 42, 50
1, 3268, Note_on_c, 9, 42, 0
1, 3280, Note_on_c, 4, 34, 0
1, 3288, Note_on_c, 9, 35, 0
1, 3300, Note_on_c, 9, 42, 40
1, 3304, Note_on_c, 9, 42, 0
1, 3312, Note_on_c, 9, 42, 50
1, 3315, Note_on_c, 2, 56, 0
1, 3315, Note_on_c, 3, 46, 88
1, 3316, Note_on_c, 9, 42, 0
1, 3318, Note_on_c, 3, 56, 0
1, 3318, Note_on_c, 2, 55, 112
1, 3347, Note_on_c, 2, 56, 100
1, 3348, Note_on_c, 9, 42, 40
1, 3350, Note_on_c, 2, 55, 0
1, 3352, Note_on_c, 9, 42, 0
1, 3359, Note_on_c, 3, 56, 100
1, 3360, Note_on_c, 9, 42, 50
1, 3360, Note_on_c, 9, 37, 64
1, 3360, Note_on_c, 9, 39, 65
1, 3361, Note_on_c, 3, 46, 0
1, 3362, Note_on_c, 2, 53, 112
1, 3364, Note_on_c, 9, 37, 0
1, 3364, Note_on_c, 2, 56, 0
1, 3364, Note_on_c, 9, 42, 0
1, 3384, Note_on_c, 9, 39, 0
1, 3395, Note_on_c, 3, 56, 0
1, 3396, Note_on_c, 9, 42, 40
1, 3400, Note_on_c, 9, 42, 0
1, 3408, Note_on_c, 9, 42, 50
1, 3409, Note_on_c, 2, 56, 88
1, 3412, Note_on_c, 9, 42, 0
1, 3412, Note_on_c, 3, 56, 100
1, 3414, Note_on_c, 2, 53, 0
1, 3437, Note_on_c, 1, 32, 100
1, 3442, Note_on_c, 2, 58, 77
1, 3443, Note_on_c, 3, 58, 88
1, 3444, Note_on_c, 9, 42, 40
1, 3446, Note_on_c, 3, 56, 0
1, 3447, Note_on_c, 2, 56, 0
1, 3448, Note_on_c, 9, 42, 0
1, 3451, Note_on_c, 1, 34, 100
1, 3456, Note_on_c, 2, 58, 0
1, 3456, Note_on_c, 3, 58, 0
1, 3456, Note_on_c, 9, 42, 50
1, 3456, Note_on_c, 9, 35, 96
1, 3456, Note_on_c, 3, 46, 112
1, 3458, Note_on_c, 1, 32, 0
1, 3458, Note_on_c, 4, 34, 112
1, 3460, Note_on_c, 9, 42, 0
1, 3479, Note_on_c, 1, 32, 100
1, 3480, Note_on_c, 9, 35, 0
1, 3485, Note_on_c, 1, 34, 0
1, 3486, Note_on_c, 3, 46, 0
1, 3492, Note_on_c, 9, 42, 32
1, 3496, Note_on_c, 9, 42, 0
1, 3499, Note_on_c, 1, 34, 112
1, 3500, Note_on_c, 4, 34, 0
1, 3502, Note_on_c, 1, 32, 0
1, 3504, Note_on_c, 9, 42, 50
1, 3504, Note_on_c, 3, 46, 77
1, 3508, Note_on_c, 9, 42, 0
1, 3539, Note_on_c, 1, 34, 0
1, 3540, Note_on_c, 9, 42, 40
1, 3544, Note_on_c, 9, 42, 0
1, 3547, Note_on_c, 2, 56, 125
1, 3552, Note_on_c, 9, 39, 75
1, 3552, Note_on_c, 9, 37, 56
1, 3552, Note_on_c, 9, 42, 50
1, 3552, Note_on_c, 3, 56, 112
1, 3553, Note_on_c, 4, 41, 112
1, 3555, Note_on_c, 3, 46, 0
1, 3556, Note_on_c, 9, 42, 0
1, 3556, Note_on_c, 9, 37, 0
1, 3576, Note_on_c, 9, 39, 0
1, 3577, Note_on_c, 2, 58, 77
1, 3582, Note_on_c, 2, 56, 0
1, 3587, Note_on_c, 4, 41, 0
1, 3588, Note_on_c, 9, 42, 40
1, 3592, Note_on_c, 9, 42, 0
1, 3593, Note_on_c, 2, 62, 88
1, 3598, Note_on_c, 2, 58, 0
1, 3599, Note_on_c, 3, 56, 0
1, 3599, Note_on_c, 3, 46, 77
1, 3600, Note_on_c, 9, 42, 51
1, 3604, Note_on_c, 9, 42, 0
1, 3624, Note_on_c, 2, 58, 100
1, 3626, Note_on_c, 2, 62, 0
1, 3628, Note_on_c, 3, 56, 88
1, 3636, Note_on_c, 9, 42, 32
1, 3638, Note_on_c, 3, 46, 0
1, 3640, Note_on_c, 9, 42, 0
1, 3643, Note_on_c, 4, 49, 100
1, 3646, Note_on_c, 4, 50, 100
1, 3648, Note_on_c, 9, 42, 50
1, 3648, Note_on_c, 9, 35, 96
1, 3652, Note_on_c, 9, 42, 0
1, 3656, Note_on_c, 4, 49, 0
1, 3672, Note_on_c, 9, 35, 0
1, 3684, Note_on_c, 9, 42, 40
1, 3688, Note_on_c, 9, 42, 0
1, 3696, Note_on_c, 9, 42, 50
1, 3700, Note_on_c, 9, 42, 0
1, 3702, Note_on_c, 3, 46, 100
1, 3708, Note_on_c, 3, 56, 0
1, 3732, Note_on_c, 9, 42, 40
1, 3736, Note_on_c, 9, 42, 0
1, 3744, Note_on_c, 9, 37, 64
1, 3744, Note_on_c, 9, 42, 50
1, 3744, Note_on_c, 9, 39, 65
1, 3748, Note_on_c, 9, 42, 0
1, 3748, Note_on_c, 9, 37, 0
1, 3748, Note_on_c, 3, 46, 0
1, 3748, Note_on_c, 3, 56, 88
1, 3768, Note_on_c, 9, 39, 0
1, 3780, Note_on_c, 9, 42, 40
1, 3782, Note_on_c, 2, 58, 0
1, 3784, Note_on_c, 9, 42, 0
1, 3792, Note_on_c, 9, 42, 50
1, 3793, Note_on_c, 3, 58, 68
1, 3796, Note_on_c, 9, 42, 0
1, 3798, Note_on_c, 3, 56, 0
1, 3804, Note_on_c, 4, 50, 0
1, 3828, Note_on_c, 9, 42, 40
1, 3832, Note_on_c, 9, 42, 0
1, 3835, Note_on_c, 1, 39, 112
1, 3840, Note_on_c, 9, 35, 96
1, 3840, Note_on_c, 9, 42, 50
1, 3841, Note_on_c, 4, 39, 112
1, 3842, Note_on_c, 3, 62, 100
1, 3844, Note_on_c, 9, 42, 0
1, 3845, Note_on_c, 3, 58, 0
1, 3864, Note_on_c, 9, 35, 0
1, 3876, Note_on_c, 9, 42, 32
1, 3880, Note_on_c, 9, 42, 0
1, 3888, Note_on_c, 9, 42, 50
1, 3889, Note_on_c, 3, 46, 88
1, 3892, Note_on_c, 9, 42, 0
1, 3896, Note_on_c, 3, 62, 0
1, 3898, Note_on_c, 4, 39, 0
1, 3924, Note_on_c, 9, 42, 40
1, 3928, Note_on_c, 9, 42, 0
1, 3934, Note_on_c, 2, 55, 125
1, 3936, Note_on_c, 9, 37, 56
1, 3936, Note_on_c, 9, 39, 75
1, 3936, Note_on_c, 9, 42, 50
1, 3937, Note_on_c, 4, 37, 112
1, 3938, Note_on_c, 1, 37, 100
1, 3940, Note_on_c, 9, 42, 0
1, 3940, Note_on_c, 9, 37, 0
1, 3940, Note_on_c, 3, 56, 100
1, 3941, Note_on_c, 1, 39, 0
1, 3944, Note_on_c, 3, 46, 0
1, 3960, Note_on_c, 9, 39, 0
1, 3966, Note_on_c, 2, 56, 100
1, 3969, Note_on_c, 2, 55, 0
1, 3972, Note_on_c, 9, 42, 40
1, 3976, Note_on_c, 9, 42, 0
1, 3980, Note_on_c, 2, 63, 77
1, 3984, Note_on_c, 9, 42, 51
1, 3987, Note_on_c, 3, 56, 0
1, 3987, Note_on_c, 3, 46, 77
1, 3988, Note_on_c, 9, 42, 0
1, 3990, Note_on_c, 2, 56, 0
1, 3992, Note_on_c, 4, 37, 0
1, 4007, Note_on_c, 1, 37, 0
1, 4010, Note_on_c, 2, 63, 0
1, 4010, Note_on_c, 1, 34, 100
1, 4011, Note_on_c, 4, 34, 100
1, 4012, Note_on_c, 2, 56, 88
1, 4012, Note_on_c, 3, 56, 88
1, 4018, Note_on_c, 3, 46, 0
1, 4020, Note_on_c, 9, 42, 32
1, 4024, Note_on_c, 9, 42, 0
1, 4032, Note_on_c, 1, 34, 0
1, 4032, Note_on_c, 9, 42, 50
1, 4032, Note_on_c, 9, 35, 96
1, 4036, Note_on_c, 9, 42, 0
1, 4048, Note_on_c, 4, 34, 0
1, 4056, Note_on_c, 9, 35, 0
1, 4068, Note_on_c, 9, 42, 40
1, 4072, Note_on_c, 9, 42, 0
1, 4080, Note_on_c, 9, 42, 50
1, 4083, Note_on_c, 2, 56, 0
1, 4083, Note_on_c, 3, 46, 88
1, 4084, Note_on_c, 9, 42, 0
1, 4086, Note_on_c, 3, 56, 0
1, 4086, Note_on_c, 2, 55, 112
1, 4115, Note_on_c, 2, 56, 100
1, 4116, Note_on_c, 9, 42, 40
1, 4118, Note_on_c, 2, 55, 0
1, 4120, Note_on_c, 9, 42, 0
1, 4127, Note_on_c, 3, 56, 100
1, 4128, Note_on_c, 9, 42, 50
1, 4128, Note_on_c, 9, 39, 65
1, 4128, Note_on_c, 9, 37, 64
1, 4129, Note_on_c, 3, 46, 0
1, 4130, Note_on_c, 2, 53, 112
1, 4132, Note_on_c, 9, 42, 0
1, 4132, Note_on_c, 2, 56, 0
1, 4132, Note_on_c, 9, 37, 0
1, 4152, Note_on_c, 9, 39, 0
1, 4163, Note_on_c, 3, 56, 0
1, 4164, Note_on_c, 9, 42, 40
1, 4168, Note_on_c, 9, 42, 0
1, 4176, Note_on_c, 9, 42, 50
1, 4177, Note_on_c, 2, 56, 88
1, 4180, Note_on_c, 9, 42, 0
1, 4180, Note_on_c, 3, 56, 100
1, 4182, Note_on_c, 2, 53, 0
1, 4205, Note_on_c, 1, 32, 100
1, 4210, Note_on_c, 2, 58, 77
1, 4211, Note_on_c, 3, 58, 88
1, 4212, Note_on_c, 9, 42, 40
1, 4214, Note_on_c, 3, 56, 0
1, 4215, Note_on_c, 2, 56, 0
1, 4216, Note_on_c, 9, 42, 0
1, 4219, Note_on_c, 1, 34, 100
1, 4224, Note_on_c, 2, 58, 0
1, 4224, Note_on_c, 3, 58, 0
1, 4224, Note_on_c, 9, 35, 96
1, 4224, Note_on_c, 9, 42, 50
1, 4224, Note_on_c, 3, 46, 112
1, 4226, Note_on_c, 1, 32, 0
1, 4226, Note_on_c, 4, 34, 112
1, 4228, Note_on_c, 9, 42, 0
1, 4247, Note_on_c, 1, 32, 100
1, 4248, Note_on_c, 9, 35, 0
1, 4253, Note_on_c, 1, 34, 0
1, 4254, Note_on_c, 3, 46, 0
1, 4260, Note_on_c, 9, 42, 32
1, 4264, Note_on_c, 9, 42, 0
1, 4267, Note_on_c, 1, 34, 112
1, 4268, Note_on_c, 4, 34, 0
1, 4270, Note_on_c, 1, 32, 0
1, 4272, Note_on_c, 9, 42, 50
1, 4272, Note_on_c, 3, 46, 77
1, 4276, Note_on_c, 9, 42, 0
1, 4307, Note_on_c, 1, 34, 0
1, 4308, Note_on_c, 9, 42, 40
1, 4312, Note_on_c, 9, 42, 0
1, 4315, Note_on_c, 2, 56, 125
1, 4320, Note_on_c, 9, 42, 50
1, 4320, Note_on_c, 9, 39, 75
1, 4320, Note_on_c, 9, 37, 56
1, 4320, Note_on_c, 3, 56, 112
1, 4321, Note_on_c, 4, 41, 112
1, 4323, Note_on_c, 3, 46, 0
1, 4324, Note_on_c, 9, 37, 0
1, 4324, Note_on_c, 9, 42, 0
1, 4344, Note_on_c, 9, 39, 0
1, 4345, Note_on_c, 2, 58, 77
1, 4350, Note_on_c, 2, 56, 0
1, 4355, Note_on_c, 4, 41, 0
1, 4356, Note_on_c, 9, 42, 40
1, 4360, Note_on_c, 9, 42, 0
1, 4361, Note_on_c, 2, 62, 88
1, 4366, Note_on_c, 2, 58, 0
1, 4367, Note_on_c, 3, 56, 0
1, 4367, Note_on_c, 3, 46, 77
1, 4368, Note_on_c, 9, 42, 51
1, 4372, Note_on_c, 9, 42, 0
1, 4392, Note_on_c, 2, 58, 100
1, 4394, Note_on_c, 2, 62, 0
1, 4396, Note_on_c, 3, 56, 88
1, 4404, Note_on_c, 9, 42, 32
1, 4406, Note_on_c, 3, 46, 0
1, 4408, Note_on_c, 9, 42, 0
1, 4411, Note_on_c, 4, 49, 100
1, 4414, Note_on_c, 4, 50, 100
1, 4416, Note_on_c, 9, 42, 50
1, 4416, Note_on_c, 9, 35, 96
1, 4420, Note_on_c, 9, 42, 0
1, 4424, Note_on_c, 4, 49, 0
1, 4440, Note_on_c, 9, 35, 0
1, 4452, Note_on_c, 9, 42, 40
1, 4456, Note_on_c, 9, 42, 0
1, 4464, Note_on_c, 9, 42, 50
1, 4468, Note_on_c, 9, 42, 0
1, 4470, Note_on_c, 3, 46, 100
1, 4476, Note_on_c, 3, 56, 0
1, 4500, Note_on_c, 9, 42, 40
1, 4504, Note_on_c, 9, 42, 0
1, 4512, Note_on_c, 9, 42, 50
1, 4512, Note_on_c, 9, 39, 65
1, 4512, Note_on_c, 9, 37, 64
1, 4516, Note_on_c, 9, 37, 0
1, 4516, Note_on_c, 3, 46, 0
1, 4516, Note_on_c, 9, 42, 0
1, 4516, Note_on_c, 3, 56, 88
1, 4536, Note_on_c, 9, 39, 0
1, 4548, Note_on_c, 9, 42, 40
1, 4550, Note_on_c, 2, 58, 0
1, 4552, Note_on_c, 9, 42, 0
1, 4560, Note_on_c, 9, 42, 50
1, 4561, Note_on_c, 3, 58, 68
1, 4564, Note_on_c, 9, 42, 0
1, 4566, Note_on_c, 3, 56, 0
1, 4572, Note_on_c, 4, 50, 0
1, 4596, Note_on_c, 9, 42, 40
1, 4600, Note_on_c, 9, 42, 0
1, 4603, Note_on_c, 1, 39, 112
1, 4608, Note_on_c, 9, 35, 96
1, 4608, Note_on_c, 9, 42, 50
1, 4609, Note_on_c, 4, 39, 112
1, 4610, Note_on_c, 3, 62, 100
1, 4612, Note_on_c, 9, 42, 0
1, 4613, Note_on_c, 3, 58, 0
1, 4632, Note_on_c, 9, 35, 0
1, 4644, Note_on_c, 9, 42, 32
1, 4648, Note_on_c, 9, 42, 0
1, 4656, Note_on_c, 9, 42, 50
1, 4657, Note_on_c, 3, 46, 88
1, 4660, Note_on_c, 9, 42, 0
1, 4664, Note_on_c, 3, 62, 0
1, 4666, Note_on_c, 4, 39, 0
1, 4692, Note_on_c, 9, 42, 40
1, 4696, Note_on_c, 9, 42, 0
1, 4702, Note_on_c, 2, 55, 125
1, 4704, Note_on_c, 9, 37, 56
1, 4704, Note_on_c, 9, 42, 50
1, 4704, Note_on_c, 9, 39, 75
1, 4705, Note_on_c, 4, 37, 112
1, 4706, Note_on_c, 1, 37, 100
1, 4708, Note_on_c, 9, 42, 0
1, 4708, Note_on_c, 9, 37, 0
1, 4708, Note_on_c, 3, 56, 100
1, 4709, Note_on_c, 1, 39, 0
1, 4712, Note_on_c, 3, 46, 0
1, 4728, Note_on_c, 9, 39, 0
1, 4734, Note_on_c, 2, 56, 100
1, 4737, Note_on_c, 2, 55, 0
1, 4740, Note_on_c, 9, 42, 40
1, 4744, Note_on_c, 9, 42, 0
1, 4748, Note_on_c, 2, 63, 77
1, 4752, Note_on_c, 9, 42, 51
1, 4755, Note_on_c, 3, 56, 0
1, 4755, Note_on_c, 3, 46, 77
1, 4756, Note_on_c, 9, 42, 0
1, 4758, Note_on_c, 2, 56, 0
1, 4760, Note_on_c, 4, 37, 0
1, 4775, Note_on_c, 1, 37, 0
1, 4778, Note_on_c, 2, 63, 0
1, 4778, Note_on_c, 1, 34, 100
1, 4779, Note_on_c, 4, 34, 100
1, 4780, Note_on_c, 2, 56, 88
1, 4780, Note_on_c, 3, 56, 88
1, 4786, Note_on_c, 3, 46, 0
1, 4788, Note_on_c, 9, 42, 32
1, 4792, Note_on_c, 9, 42, 0
1, 4800, Note_on_c, 1, 34, 0
1, 4800, Note_on_c, 9, 42, 50
1, 4800, Note_on_c, 9, 35, 96
1, 4804, Note_on_c, 9, 42, 0
1, 4816, Note_on_c, 4, 34, 0
1, 4824, Note_on_c, 9, 35, 0
1, 4836, Note_on_c, 9, 42, 40
1, 4840, Note_on_c, 9, 42, 0
1, 4848, Note_on_c, 9, 42, 50
1, 4851, Note_on_c, 2, 56, 0
1, 4851, Note_on_c, 3, 46, 88
1, 4852, Note_on_c, 9, 42, 0
1, 4854, Note_on_c, 3, 56, 0
1, 4854, Note_on_c, 2, 55, 112
1, 4883, Note_on_c, 2, 56, 100
1, 4884, Note_on_c, 9, 42, 40
1, 4886, Note_on_c, 2, 55, 0
1, 4888, Note_on_c, 9, 42, 0
1, 4895, Note_on_c, 3, 56, 100
1, 4896, Note_on_c, 9, 39, 65
1, 4896, Note_on_c, 9, 37, 64
1, 4896, Note_on_c, 9, 42, 50
1, 4897, Note_on_c, 3, 46, 0
1, 4898, Note_on_c, 2, 53, 112
1, 4900, Note_on_c, 9, 37, 0
1, 4900, Note_on_c, 2, 56, 0
1, 4900, Note_on_c, 9, 42, 0
1, 4920, Note_on_c, 9, 39, 0
1, 4931, Note_on_c, 3, 56, 0
1, 4932, Note_on_c, 9, 42, 40
1, 4936, Note_on_c, 9, 42, 0
1, 4944, Note_on_c, 9, 42, 50
1, 4945, Note_on_c, 2, 56, 88
1, 4948, Note_on_c, 9, 42, 0
1, 4948, Note_on_c, 3, 56, 100
1, 4950, Note_on_c, 2, 53, 0
1, 4973, Note_on_c, 1, 32, 100
1, 4978, Note_on_c, 2, 58, 77
1, 4979, Note_on_c, 3, 58, 88
1, 4980, Note_on_c, 9, 42, 40
1, 4982, Note_on_c, 3, 56, 0
1, 4983, Note_on_c, 2, 56, 0
1, 4984, Note_on_c, 9, 42, 0
1, 4987, Note_on_c, 1, 34, 100
1, 4992, Note_on_c, 2, 58, 0
1, 4992, Note_on_c, 3, 58, 0
1, 4992, Note_on_c, 9, 35, 96
1, 4992, Note_on_c, 9, 42, 50
1, 4992, Note_on_c, 3, 46, 112
1, 4994, Note_on_c, 1, 32, 0
1, 4994, Note_on_c, 4, 34, 112
1, 4996, Note_on_c, 9, 42, 0
1, 5015, Note_on_c, 1, 32, 100
1, 5016, Note_on_c, 9, 35, 0
1, 5021, Note_on_c, 1, 34, 0
1, 5022, Note_on_c, 3, 46, 0
1, 5028, Note_on_c, 9, 42, 32
1, 5032, Note_on_c, 9, 42, 0
1, 5035, Note_on_c, 1, 34, 112
1, 5036, Note_on_c, 4, 34, 0
1, 5038, Note_on_c, 1, 32, 0
1, 5040, Note_on_c, 9, 42, 50
1, 5040, Note_on_c, 3, 46, 77
1, 5044, Note_on_c, 9, 42, 0
1, 5075, Note_on_c, 1, 34, 0
1, 5076, Note_on_c, 9, 42, 40
1, 5080, Note_on_c, 9, 42, 0
1, 5083, Note_on_c, 2, 56, 125
1, 5088, Note_on_c, 9, 42, 50
1, 5088, Note_on_c, 9, 37, 56
1, 5088, Note_on_c, 9, 39, 75
1, 5088, Note_on_c, 3, 56, 112
1, 5089, Note_on_c, 4, 41, 112
1, 5091, Note_on_c, 3, 46, 0
1, 5092, Note_on_c, 9, 37, 0
1, 5092, Note_on_c, 9, 42, 0
1, 5112, Note_on_c, 9, 39, 0
1, 5113, Note_on_c, 2, 58, 77
1, 5118, Note_on_c, 2, 56, 0
1, 5123, Note_on_c, 4, 41, 0
1, 5124, Note_on_c, 9, 42, 40
1, 5128, Note_on_c, 9, 42, 0
1, 5129, Note_on_c, 2, 62, 88
1, 5134, Note_on_c, 2, 58, 0
1, 5135, Note_on_c, 3, 56, 0
1, 5135, Note_on_c, 3, 46, 77
1, 5136, Note_on_c, 9, 42, 51
1, 5140, Note_on_c, 9, 42, 0
1, 5160, Note_on_c, 2, 58, 100
1, 5162, Note_on_c, 2, 62, 0
1, 5164, Note_on_c, 3, 56, 88
1, 5172, Note_on_c, 9, 42, 32
1, 5174, Note_on_c, 3, 46, 0
1, 5176, Note_on_c, 9, 42, 0
1, 5179, Note_on_c, 4, 49, 100
1, 5182, Note_on_c, 4, 50, 100
1, 5184, Note_on_c, 9, 35, 96
1, 5184, Note_on_c, 9, 42, 50
1, 5188, Note_on_c, 9, 42, 0
1, 5192, Note_on_c, 4, 49, 0
1, 5208, Note_on_c, 9, 35, 0
1, 5220, Note_on_c, 9, 42, 40
1, 5224, Note_on_c, 9, 42, 0
1, 5232, Note_on_c, 9, 42, 50
1, 5236, Note_on_c, 9, 42, 0
1, 5238, Note_on_c, 3, 46, 100
1, 5244, Note_on_c, 3, 56, 0
1, 5268, Note_on_c, 9, 42, 40
1, 5272, Note_on_c, 9, 42, 0
1, 5280, Note_on_c, 9, 39, 65
1, 5280, Note_on_c, 9, 42, 50
1, 5280, Note_on_c, 9, 37, 64
1, 5284, Note_on_c, 9, 37, 0
1, 5284, Note_on_c, 3, 46, 0
1, 5284, Note_on_c, 9, 42, 0
1, 5284, Note_on_c, 3, 56, 88
1, 5304, Note_on_c, 9, 39, 0
1, 5316, Note_on_c, 9, 42, 40
1, 5318, Note_on_c, 2, 58, 0
1, 5320, Note_on_c, 9, 42, 0
1, 5328, Note_on_c, 9, 42, 50
1, 5329, Note_on_c, 3, 58, 68
1, 5332, Note_on_c, 9, 42, 0
1, 5334, Note_on_c, 3, 56, 0
1, 5340, Note_on_c, 4, 50, 0
1, 5364, Note_on_c, 9, 42, 40
1, 5368, Note_on_c, 9, 42, 0
1, 5371, Note_on_c, 1, 39, 112
1, 5376, Note_on_c, 9, 35, 96
1, 5376, Note_on_c, 9, 42, 50
1, 5377, Note_on_c, 4, 39, 112
1, 5378, Note_on_c, 3, 62, 100
1, 5380, Note_on_c, 9, 42, 0
1, 5381, Note_on_c, 3, 58, 0
1, 5400, Note_on_c, 9, 35, 0
1, 5412, Note_on_c, 9, 42, 32
1, 5416, Note_on_c, 9, 42, 0
1, 5424, Note_on_c, 9, 42, 50
1, 5425, Note_on_c, 3, 46, 88
1, 5428, Note_on_c, 9, 42, 0
1, 5432, Note_on_c, 3, 62, 0
1, 5434, Note_on_c, 4, 39, 0
1, 5460, Note_on_c, 9, 42, 40
1, 5464, Note_on_c, 9, 42, 0
1, 5470, Note_on_c, 2, 55, 125
1, 5472, Note_on_c, 9, 37, 56
1, 5472, Note_on_c, 9, 39, 75
1, 5472, Note_on_c, 9, 42, 50
1, 5473, Note_on_c, 4, 37, 112
1, 5474, Note_on_c, 1, 37, 100
1, 5476, Note_on_c, 9, 42, 0
1, 5476, Note_on_c, 9, 37, 0
1, 5476, Note_on_c, 3, 56, 100
1, 5477, Note_on_c, 1, 39, 0
1, 5480, Note_on_c, 3, 46, 0
1, 5496, Note_on_c, 9, 39, 0
1, 5502, Note_on_c, 2, 56, 100
1, 5505, Note_on_c, 2, 55, 0
1, 5508, Note_on_c, 9, 42, 40
1, 5512, Note_on_c, 9, 42, 0
1, 5516, Note_on_c, 2, 63, 77
1, 5520, Note_on_c, 9, 42, 51
1, 5523, Note_on_c, 3, 56, 0
1, 5523, Note_on_c, 3, 46, 77
1, 5524, Note_on_c, 9, 42, 0
1, 5526, Note_on_c, 2, 56, 0
1, 5528, Note_on_c, 4, 37, 0
1, 5543, Note_on_c, 1, 37, 0
1, 5546, Note_on_c, 2, 63, 0
1, 5546, Note_on_c, 1, 34, 100
1, 5547, Note_on_c, 4, 34, 100
1, 5548, Note_on_c, 2, 56, 88
1, 5548, Note_on_c, 3, 56, 88
1, 5554, Note_on_c, 3, 46, 0
1, 5556, Note_on_c, 9, 42, 32
1, 5560, Note_on_c, 9, 42, 0
1, 5568, Note_on_c, 1, 34, 0
1, 5568, Note_on_c, 9, 35, 96
1, 5568, Note_on_c, 9, 42, 50
1, 5572, Note_on_c, 9, 42, 0
1, 5584, Note_on_c, 4, 34, 0
1, 5592, Note_on_c, 9, 35, 0
1, 5604, Note_on_c, 9, 42, 40
1, 5608, Note_on_c, 9, 42, 0
1, 5616, Note_on_c, 9, 42, 50
1, 5619, Note_on_c, 2, 56, 0
1, 5619, Note_on_c, 3, 46, 88
1, 5620, Note_on_c, 9, 42, 0
1, 5622, Note_on_c, 3, 56, 0
1, 5622, Note_on_c, 2, 55, 112
1, 5651, Note_on_c, 2, 56, 100
1, 5652, Note_on_c, 9, 42, 40
1, 5654, Note_on_c, 2, 55, 0
1, 5656, Note_on_c, 9, 42, 0
1, 5663, Note_on_c, 3, 56, 100
1, 5664, Note_on_c, 9, 37, 64
1, 5664, Note_on_c, 9, 39, 65
1, 5664, Note_on_c, 9, 42, 50
1, 5665, Note_on_c, 3, 46, 0
1, 5666, Note_on_c, 2, 53, 112
1, 5668, Note_on_c, 9, 37, 0
1, 5668, Note_on_c, 2, 56, 0
1, 5668, Note_on_c, 9, 42, 0
1, 5688, Note_on_c, 9, 39, 0
1, 5699, Note_on_c, 3, 56, 0
1, 5700, Note_on_c, 9, 42, 40
1, 5704, Note_on_c, 9, 42, 0
1, 5712, Note_on_c, 9, 42, 50
1, 5713, Note_on_c, 2, 56, 88
1, 5716, Note_on_c, 9, 42, 0
1, 5716, Note_on_c, 3, 56, 100
1, 5718, Note_on_c, 2, 53, 0
1, 5741, Note_on_c, 1, 32, 100
1, 5746, Note_on_c, 2, 58, 77
1, 5747, Note_on_c, 3, 58, 88
1, 5748, Note_on_c, 9, 42, 40
1, 5750, Note_on_c, 3, 56, 0
1, 5751, Note_on_c, 2, 56, 0
1, 5752, Note_on_c, 9, 42, 0
1, 5755, Note_on_c, 1, 34, 100
1, 5760, Note_on_c, 2, 58, 0
1, 5760, Note_on_c, 3, 58, 0
1, 5760, Note_on_c, 9, 42, 50
1, 5760, Note_on_c, 9, 35, 96
1, 5760, Note_on_c, 3, 46, 112
1, 5762, Note_on_c, 1, 32, 0
1, 5762, Note_on_c, 4, 34, 112
1, 5764, Note_on_c, 9, 42, 0
1, 5783, Note_on_c, 1, 32, 100
1, 5784, Note_on_c, 9, 35, 0
1, 5789, Note_on_c, 1, 34, 0
1, 5790, Note_on_c, 3, 46, 0
1, 5796, Note_on_c, 9, 42, 32
1, 5800, Note_on_c, 9, 42, 0
1, 5803, Note_on_c, 1, 34, 112
1, 5804, Note_on_c, 4, 34, 0
1, 5806, Note_on_c, 1, 32, 0
1, 5808, Note_on_c, 9, 42, 50
1, 5808, Note_on_c, 3, 46, 77
1, 5812, Note_on_c, 9, 42, 0
1, 5843, Note_on_c, 1, 34, 0
1, 5844, Note_on_c, 9, 42, 40
1, 5848, Note_on_c, 9, 42, 0
1, 5851, Note_on_c, 2, 56, 125
1, 5856, Note_on_c, 9, 42, 50
1, 5856, Note_on_c, 9, 39, 75
1, 5856, Note_on_c, 9, 37, 56
1, 5856, Note_on_c, 3, 56, 112
1, 5857, Note_on_c, 4, 41, 112
1, 5859, Note_on_c, 3, 46, 0
1, 5860, Note_on_c, 9, 37, 0
1, 5860, Note_on_c, 9, 42, 0
1, 5880, Note_on_c, 9, 39, 0
1, 5881, Note_on_c, 2, 58, 77
1, 5886, Note_on_c, 2, 56, 0
1, 5891, Note_on_c, 4, 41, 0
1, 5892, Note_on_c, 9, 42, 40
1, 5896, Note_on_c, 9, 42, 0
1, 5897, Note_on_c, 2, 62, 88
1, 5902, Note_on_c, 2, 58, 0
1, 5903, Note_on_c, 3, 56, 0
1, 5903, Note_on_c, 3, 46, 77
1, 5904, Note_on_c, 9, 42, 51
1, 5908, Note_on_c, 9, 42, 0
1, 5928, Note_on_c, 2, 58, 100
1, 5930, Note_on_c, 2, 62, 0
1, 5932, Note_on_c, 3, 56, 88
1, 5940, Note_on_c, 9, 42, 32
1, 5942, Note_on_c, 3, 46, 0
1, 5944, Note_on_c, 9, 42, 0
1, 5947, Note_on_c, 4, 49, 100
1, 5950, Note_on_c, 4, 50, 100
1, 5952, Note_on_c, 9, 42, 50
1, 5952, Note_on_c, 9, 35, 96
1, 5956, Note_on_c, 9, 42, 0
1, 5960, Note_on_c, 4, 49, 0
1, 5976, Note_on_c, 9, 35, 0
1, 5988, Note_on_c, 9, 42, 40
1, 5992, Note_on_c, 9, 42, 0
1, 6000, Note_on_c, 9, 42, 50
1, 6004, Note_on_c, 9, 42, 0
1, 6006, Note_on_c, 3, 46, 100
1, 6012, Note_on_c, 3, 56, 0
1, 6036, Note_on_c, 9, 42, 40
1, 6040, Note_on_c, 9, 42, 0
1, 6048, Note_on_c, 9, 37, 64
1, 6048, Note_on_c, 9, 39, 65
1, 6048, Note_on_c, 9, 42, 50
1, 6052, Note_on_c, 9, 42, 0
1, 6052, Note_on_c, 3, 46, 0
1, 6052, Note_on_c, 9, 37, 0
1, 6052, Note_on_c, 3, 56, 88
1, 6072, Note_on_c, 9, 39, 0
1, 6084, Note_on_c, 9, 42, 40
1, 6086, Note_on_c, 2, 58, 0
1, 6088, Note_on_c, 9, 42, 0
1, 6096, Note_on_c, 9, 42, 50
1, 6097, Note_on_c, 3, 58, 68
1, 6100, Note_on_c, 9, 42, 0
1, 6102, Note_on_c, 3, 56, 0
1, 6108, Note_on_c, 4, 50, 0
1, 6132, Note_on_c, 9, 42, 40
1, 6136, Note_on_c, 9, 42, 0
1, 6139, Note_on_c, 1, 39, 112
1, 6144, Note_on_c, 9, 42, 50
1, 6144, Note_on_c, 9, 35, 96
1, 6145, Note_on_c, 4, 39, 112
1, 6146, Note_on_c, 3, 62, 100
1, 6148, Note_on_c, 9, 42, 0
1, 6149, Note_on_c, 3, 58, 0
1, 6168, Note_on_c, 9, 35, 0
1, 6180, Note_on_c, 9, 42, 32
1, 6184, Note_on_c, 9, 42, 0
1, 6192, Note_on_c, 9, 42, 50
1, 6193, Note_on_c, 3, 46, 88
1, 6196, Note_on_c, 9, 42, 0
1, 6200, Note_on_c, 3, 62, 0
1, 6202, Note_on_c, 4, 39, 0
1, 6228, Note_on_c, 9, 42, 40
1, 6232, Note_on_c, 9, 42, 0
1, 6238, Note_on_c, 2, 55, 125
1, 6240, Note_on_c, 9, 37, 56
1, 6240, Note_on_c, 9, 42, 50
1, 6240, Note_on_c, 9, 39, 75
1, 6241, Note_on_c, 4, 37, 112
1, 6242, Note_on_c, 1, 37, 100
1, 6244, Note_on_c, 9, 42, 0
1, 6244, Note_on_c, 9, 37, 0
1, 6244, Note_on_c, 3, 56, 100
1, 6245, Note_on_c, 1, 39, 0
1, 6248, Note_on_c, 3, 46, 0
1, 6264, Note_on_c, 9, 39, 0
1, 6270, Note_on_c, 2, 56, 100
1, 6273, Note_on_c, 2, 55, 0
1, 6276, Note_on_c, 9, 42, 40
1, 6280, Note_on_c, 9, 42, 0
1, 6284, Note_on_c, 2, 63, 77
1, 6288, Note_on_c, 9, 42, 51
1, 6291, Note_on_c, 3, 56, 0
1, 6291, Note_on_c, 3, 46, 77
1, 6292, Note_on_c, 9, 42, 0
1, 6294, Note_on_c, 2, 56, 0
1, 6296, Note_on_c, 4, 37, 0
1, 6311, Note_on_c, 1, 37, 0
1, 6314, Note_on_c, 2, 63, 0
1, 6314, Note_on_c, 1, 34, 100
1, 6315, Note_on_c, 4, 34, 100
1, 6316, Note_on_c, 2, 56, 88
1, 6316, Note_on_c, 3, 56, 88
1, 6322, Note_on_c, 3, 46, 0
1, 6324, Note_on_c, 9, 42, 32
1, 6328, Note_on_c, 9, 42, 0
1, 6336, Note_on_c, 1, 34, 0
1, 6336, Note_on_c, 9, 42, 50
1, 6336, Note_on_c, 9, 35, 96
1, 6340, Note_on_c, 9, 42, 0
1, 6352, Note_on_c, 4, 34, 0
1, 6360, Note_on_c, 9, 35, 0
1, 6372, Note_on_c, 9, 42, 40
1, 6376, Note_on_c, 9, 42, 0
1, 6384, Note_on_c, 9, 42, 50
1, 6387, Note_on_c, 2, 56, 0
1, 6387, Note_on_c, 3, 46, 88
1, 6388, Note_on_c, 9, 42, 0
1, 6390, Note_on_c, 3, 56, 0
1, 6390, Note_on_c, 2, 55, 112
1, 6419, Note_on_c, 2, 56, 100
1, 6420, Note_on_c, 9, 42, 40
1, 6422, Note_on_c, 2, 55, 0
1, 6424, Note_on_c, 9, 42, 0
1, 6431, Note_on_c, 3, 56, 100
1, 6432, Note_on_c, 9, 42, 50
1, 6432, Note_on_c, 9, 37, 64
1, 6432, Note_on_c, 9, 39, 65
1, 6433, Note_on_c, 3, 46, 0
1, 6434, Note_on_c, 2, 53, 112
1, 6436, Note_on_c, 9, 37, 0
1, 6436, Note_on_c, 2, 56, 0
1, 6436, Note_on_c, 9, 42, 0
1, 6456, Note_on_c, 9, 39, 0
1, 6467, Note_on_c, 3, 56, 0
1, 6468, Note_on_c, 9, 42, 40
1, 6472, Note_on_c, 9, 42, 0
1, 6480, Note_on_c, 9, 42, 50
1, 6481, Note_on_c, 2, 56, 88
1, 6484, Note_on_c, 9, 42, 0
1, 6484, Note_on_c, 3, 56, 100
1, 6486, Note_on_c, 2, 53, 0
1, 6509, Note_on_c, 1, 32, 100
1, 6514, Note_on_c, 2, 58, 77
1, 6515, Note_on_c, 3, 58, 88
1, 6516, Note_on_c, 9, 42, 40
1, 6518, Note_on_c, 3, 56, 0
1, 6519, Note_on_c, 2, 56, 0
1, 6520, Note_on_c, 9, 42, 0
1, 6523, Note_on_c, 1, 34, 100
1, 6528, Note_on_c, 2, 58, 0
1, 6528, Note_on_c, 3, 58, 0
1, 6528, Note_on_c, 9, 42, 50
1, 6528, Note_on_c, 9, 35, 96
1, 6528, Note_on_c, 3, 46, 112
1, 6530, Note_on_c, 1, 32, 0
1, 6530, Note_on_c, 4, 34, 112
1, 6530, Note_on_c, 5, 46, 100
1, 6532, Note_on_c, 9, 42, 0
1, 6551, Note_on_c, 1, 32, 100
1, 6552, Note_on_c, 9, 35, 0
1, 6557, Note_on_c, 1, 34, 0
1, 6558, Note_on_c, 3, 46, 0
1, 6564, Note_on_c, 9, 42, 32
1, 6568, Note_on_c, 9, 42, 0
1, 6571, Note_on_c, 1, 34, 112
1, 6572, Note_on_c, 4, 34, 0
1, 6574, Note_on_c, 1, 32, 0
1, 6575, Note_on_c, 5, 46, 0
1, 6576, Note_on_c, 9, 42, 50
1, 6576, Note_on_c, 3, 46, 77
1, 6580, Note_on_c, 9, 42, 0
1, 6611, Note_on_c, 1, 34, 0
1, 6612, Note_on_c, 9, 42, 40
1, 6616, Note_on_c, 9, 42, 0
1, 6619, Note_on_c, 2, 56, 125
1, 6621, Note_on_c, 5, 53, 112
1, 6624, Note_on_c, 9, 40, 127
1, 6624, Note_on_c, 9, 37, 56
1, 6624, Note_on_c, 9, 42, 50
1, 6624, Note_on_c, 9, 39, 75
1, 6624, Note_on_c, 3, 56, 112
1, 6625, Note_on_c, 4, 41, 112
1, 6627, Note_on_c, 3, 46, 0
1, 6628, Note_on_c, 9, 37, 0
1, 6628, Note_on_c, 9, 42, 0
1, 6648, Note_on_c, 9, 40, 0
1, 6648, Note_on_c, 9, 39, 0
1, 6649, Note_on_c, 2, 58, 77
1, 6654, Note_on_c, 2, 56, 0
1, 6659, Note_on_c, 4, 41, 0
1, 6660, Note_on_c, 9, 42, 40
1, 6664, Note_on_c, 9, 42, 0
1, 6665, Note_on_c, 2, 62, 88
1, 6666, Note_on_c, 5, 53, 0
1, 6670, Note_on_c, 2, 58, 0
1, 6671, Note_on_c, 3, 56, 0
1, 6671, Note_on_c, 3, 46, 77
1, 6672, Note_on_c, 9, 42, 51
1, 6676, Note_on_c, 9, 42, 0
1, 6696, Note_on_c, 2, 58, 100
1, 6698, Note_on_c, 2, 62, 0
1, 6700, Note_on_c, 3, 56, 88
1, 6708, Note_on_c, 9, 42, 32
1, 6710, Note_on_c, 3, 46, 0
1, 6712, Note_on_c, 9, 42, 0
1, 6715, Note_on_c, 4, 49, 100
1, 6716, Note_on_c, 5, 62, 125
1, 6718, Note_on_c, 4, 50, 100
1, 6720, Note_on_c, 9, 35, 96
1, 6720, Note_on_c, 9, 42, 50
1, 6724, Note_on_c, 9, 42, 0
1, 6728, Note_on_c, 4, 49, 0
1, 6744, Note_on_c, 9, 35, 0
1, 6756, Note_on_c, 9, 42, 40
1, 6760, Note_on_c, 9, 42, 0
1, 6768, Note_on_c, 9, 42, 50
1, 6772, Note_on_c, 9, 42, 0
1, 6774, Note_on_c, 3, 46, 100
1, 6780, Note_on_c, 3, 56, 0
1, 6804, Note_on_c, 9, 42, 40
1, 6808, Note_on_c, 9, 42, 0
1, 6816, Note_on_c, 9, 39, 65
1, 6816, Note_on_c, 9, 37, 64
1, 6816, Note_on_c, 9, 40, 127
1, 6816, Note_on_c, 9, 42, 50
1, 6820, Note_on_c, 9, 42, 0
1, 6820, Note_on_c, 9, 37, 0
1, 6820, Note_on_c, 3, 46, 0
1, 6820, Note_on_c, 3, 56, 88
1, 6840, Note_on_c, 9, 39, 0
1, 6840, Note_on_c, 9, 40, 0
1, 6852, Note_on_c, 9, 42, 40
1, 6854, Note_on_c, 2, 58, 0
1, 6856, Note_on_c, 9, 42, 0
1, 6864, Note_on_c, 9, 42, 50
1, 6865, Note_on_c, 3, 58, 68
1, 6868, Note_on_c, 9, 42, 0
1, 6870, Note_on_c, 5, 62, 0
1, 6870, Note_on_c, 3, 56, 0
1, 6876, Note_on_c, 4, 50, 0
1, 6900, Note_on_c, 9, 42, 40
1, 6904, Note_on_c, 9, 42, 0
1, 6907, Note_on_c, 1, 39, 112
1, 6912, Note_on_c, 9, 42, 50
1, 6912, Note_on_c, 9, 35, 96
1, 6913, Note_on_c, 4, 39, 112
1, 6914, Note_on_c, 3, 62, 100
1, 6916, Note_on_c, 9, 42, 0
1, 6917, Note_on_c, 3, 58, 0
1, 6936, Note_on_c, 9, 35, 0
1, 6948, Note_on_c, 9, 42, 32
1, 6952, Note_on_c, 9, 42, 0
1, 6960, Note_on_c, 9, 42, 50
1, 6961, Note_on_c, 3, 46, 88
1, 6964, Note_on_c, 9, 42, 0
1, 6968, Note_on_c, 3, 62, 0
1, 6970, Note_on_c, 4, 39, 0
1, 6996, Note_on_c, 9, 42, 40
1, 7000, Note_on_c, 9, 42, 0
1, 7006, Note_on_c, 2, 55, 125
1, 7008, Note_on_c, 9, 40, 127
1, 7008, Note_on_c, 9, 39, 75
1, 7008, Note_on_c, 9, 42, 50
1, 7008, Note_on_c, 9, 37, 56
1, 7009, Note_on_c, 4, 37, 112
1, 7010, Note_on_c, 1, 37, 100
1, 7012, Note_on_c, 9, 37, 0
1, 7012, Note_on_c, 9, 42, 0
1, 7012, Note_on_c, 3, 56, 100
1, 7013, Note_on_c, 1, 39, 0
1, 7016, Note_on_c, 3, 46, 0
1, 7032, Note_on_c, 9, 40, 0
1, 7032, Note_on_c, 9, 39, 0
1, 7038, Note_on_c, 2, 56, 100
1, 7041, Note_on_c, 2, 55, 0
1, 7044, Note_on_c, 9, 42, 40
1, 7048, Note_on_c, 9, 42, 0
1, 7052, Note_on_c, 2, 63, 77
1, 7056, Note_on_c, 9, 42, 51
1, 7059, Note_on_c, 3, 56, 0
1, 7059, Note_on_c, 3, 46, 77
1, 7060, Note_on_c, 9, 42, 0
1, 7062, Note_on_c, 2, 56, 0
1, 7064, Note_on_c, 4, 37, 0
1, 7079, Note_on_c, 1, 37, 0
1, 7082, Note_on_c, 2, 63, 0
1, 7082, Note_on_c, 1, 34, 100
1, 7083, Note_on_c, 4, 34, 100
1, 7084, Note_on_c, 2, 56, 88
1, 7084, Note_on_c, 3, 56, 88
1, 7090, Note_on_c, 3, 46, 0
1, 7092, Note_on_c, 9, 42, 32
1, 7096, Note_on_c, 9, 42, 0
1, 7104, Note_on_c, 1, 34, 0
1, 7104, Note_on_c, 9, 42, 50
1, 7104, Note_on_c, 9, 35, 96
1, 7108, Note_on_c, 9, 42, 0
1, 7120, Note_on_c, 4, 34, 0
1, 7128, Note_on_c, 9, 35, 0
1, 7140, Note_on_c, 9, 42, 40
1, 7144, Note_on_c, 9, 42, 0
1, 7152, Note_on_c, 9, 42, 50
1, 7155, Note_on_c, 2, 56, 0
1, 7155, Note_on_c, 3, 46, 88
1, 7156, Note_on_c, 9, 42, 0
1, 7158, Note_on_c, 3, 56, 0
1, 7158, Note_on_c, 2, 55, 112
1, 7187, Note_on_c, 2, 56, 100
1, 7188, Note_on_c, 9, 42, 40
1, 7190, Note_on_c, 2, 55, 0
1, 7192, Note_on_c, 9, 42, 0
1, 7199, Note_on_c, 3, 56, 100
1, 7200, Note_on_c, 9, 40, 127
1, 7200, Note_on_c, 9, 42, 50
1, 7200, Note_on_c, 9, 39, 65
1, 7200, Note_on_c, 9, 37, 64
1, 7201, Note_on_c, 3, 46, 0
1, 7202, Note_on_c, 2, 53, 112
1, 7204, Note_on_c, 9, 42, 0
1, 7204, Note_on_c, 2, 56, 0
1, 7204, Note_on_c, 9, 37, 0
1, 7224, Note_on_c, 9, 39, 0
1, 7224, Note_on_c, 9, 40, 0
1, 7235, Note_on_c, 3, 56, 0
1, 7236, Note_on_c, 9, 42, 40
1, 7240, Note_on_c, 9, 42, 0
1, 7248, Note_on_c, 9, 42, 50
1, 7249, Note_on_c, 2, 56, 88
1, 7252, Note_on_c, 9, 42, 0
1, 7252, Note_on_c, 3, 56, 100
1, 7254, Note_on_c, 2, 53, 0
1, 7277, Note_on_c, 1, 32, 100
1, 7282, Note_on_c, 2, 58, 77
1, 7283, Note_on_c, 3, 58, 88
1, 7284, Note_on_c, 9, 42, 40
1, 7286, Note_on_c, 3, 56, 0
1, 7287, Note_on_c, 2, 56, 0
1, 7288, Note_on_c, 9, 42, 0
1, 7291, Note_on_c, 1, 34, 100
1, 7296, Note_on_c, 2, 58, 0
1, 7296, Note_on_c, 3, 58, 0
1, 7296, Note_on_c, 9, 42, 50
1, 7296, Note_on_c, 9, 35, 96
1, 7296, Note_on_c, 3, 46, 112
1, 7298, Note_on_c, 1, 32, 0
1, 7298, Note_on_c, 4, 34, 112
1, 7298, Note_on_c, 5, 46, 100
1, 7300, Note_on_c, 9, 42, 0
1, 7319, Note_on_c, 1, 32, 100
1, 7320, Note_on_c, 9, 35, 0
1, 7325, Note_on_c, 1, 34, 0
1, 7326, Note_on_c, 3, 46, 0
1, 7332, Note_on_c, 9, 42, 32
1, 7336, Note_on_c, 9, 42, 0
1, 7339, Note_on_c, 1, 34, 112
1, 7340, Note_on_c, 4, 34, 0
1, 7342, Note_on_c, 1, 32, 0
1, 7343, Note_on_c, 5, 46, 0
1, 7344, Note_on_c, 9, 42, 50
1, 7344, Note_on_c, 3, 46, 77
1, 7348, Note_on_c, 9, 42, 0
1, 7379, Note_on_c, 1, 34, 0
1, 7380, Note_on_c, 9, 42, 40
1, 7384, Note_on_c, 9, 42, 0
1, 7387, Note_on_c, 2, 56, 125
1, 7389, Note_on_c, 5, 53, 112
1, 7392, Note_on_c, 9, 42, 50
1, 7392, Note_on_c, 9, 37, 56
1, 7392, Note_on_c, 9, 39, 75
1, 7392, Note_on_c, 9, 40, 127
1, 7392, Note_on_c, 3, 56, 112
1, 7393, Note_on_c, 4, 41, 112
1, 7395, Note_on_c, 3, 46, 0
1, 7396, Note_on_c, 9, 37, 0
1, 7396, Note_on_c, 9, 42, 0
1, 7416, Note_on_c, 9, 39, 0
1, 7416, Note_on_c, 9, 40, 0
1, 7417, Note_on_c, 2, 58, 77
1, 7422, Note_on_c, 2, 56, 0
1, 7427, Note_on_c, 4, 41, 0
1, 7428, Note_on_c, 9, 42, 40
1, 7432, Note_on_c, 9, 42, 0
1, 7433, Note_on_c, 2, 62, 88
1, 7434, Note_on_c, 5, 53, 0
1, 7438, Note_on_c, 2, 58, 0
1, 7439, Note_on_c, 3, 56, 0
1, 7439, Note_on_c, 3, 46, 77
1, 7440, Note_on_c, 9, 42, 51
1, 7444, Note_on_c, 9, 42, 0
1, 7464, Note_on_c, 2, 58, 100
1, 7466, Note_on_c, 2, 62, 0
1, 7468, Note_on_c, 3, 56, 88
1, 7476, Note_on_c, 9, 42, 32
1, 7478, Note_on_c, 3, 46, 0
1, 7480, Note_on_c, 9, 42, 0
1, 7483, Note_on_c, 4, 49, 100
1, 7484, Note_on_c, 5, 62, 125
1, 7486, Note_on_c, 4, 50, 100
1, 7488, Note_on_c, 9, 35, 96
1, 7488, Note_on_c, 9, 42, 50
1, 7492, Note_on_c, 9, 42, 0
1, 7496, Note_on_c, 4, 49, 0
1, 7512, Note_on_c, 9, 35, 0
1, 7524, Note_on_c, 9, 42, 40
1, 7528, Note_on_c, 9, 42, 0
1, 7536, Note_on_c, 9, 42, 50
1, 7540, Note_on_c, 9, 42, 0
1, 7542, Note_on_c, 3, 46, 100
1, 7548, Note_on_c, 3, 56, 0
1, 7572, Note_on_c, 9, 42, 40
1, 7576, Note_on_c, 9, 42, 0
1, 7584, Note_on_c, 9, 37, 64
1, 7584, Note_on_c, 9, 40, 127
1, 7584, Note_on_c, 9, 42, 50
1, 7584, Note_on_c, 9, 39, 65
1, 7588, Note_on_c, 9, 42, 0
1, 7588, Note_on_c, 3, 46, 0
1, 7588, Note_on_c, 9, 37, 0
1, 7588, Note_on_c, 3, 56, 88
1, 7608, Note_on_c, 9, 39, 0
1, 7608, Note_on_c, 9, 40, 0
1, 7620, Note_on_c, 9, 42, 40
1, 7622, Note_on_c, 2, 58, 0
1, 7624, Note_on_c, 9, 42, 0
1, 7632, Note_on_c, 9, 42, 50
1, 7633, Note_on_c, 3, 58, 68
1, 7636, Note_on_c, 9, 42, 0
1, 7638, Note_on_c, 5, 62, 0
1, 7638, Note_on_c, 3, 56, 0
1, 7644, Note_on_c, 4, 50, 0
1, 7668, Note_on_c, 9, 42, 40
1, 7672, Note_on_c, 9, 42, 0
1, 7675, Note_on_c, 1, 39, 112
1, 7680, Note_on_c, 9, 35, 96
1, 7680, Note_on_c, 9, 42, 50
1, 7681, Note_on_c, 4, 39, 112
1, 7682, Note_on_c, 3, 62, 100
1, 7684, Note_on_c, 9, 42, 0
1, 7685, Note_on_c, 3, 58, 0
1, 7704, Note_on_c, 9, 35, 0
1, 7716, Note_on_c, 9, 42, 32
1, 7720, Note_on_c, 9, 42, 0
1, 7728, Note_on_c, 9, 42, 50
1, 7729, Note_on_c, 3, 46, 88
1, 7732, Note_on_c, 9, 42, 0
1, 7736, Note_on_c, 3, 62, 0
1, 7738, Note_on_c, 4, 39, 0
1, 7764, Note_on_c, 9, 42, 40
1, 7768, Note_on_c, 9, 42, 0
1, 7774, Note_on_c, 2, 55, 125
1, 7776, Note_on_c, 9, 42, 50
1, 7776, Note_on_c, 9, 39, 75
1, 7776, Note_on_c, 9, 40, 127
1, 7776, Note_on_c, 9, 37, 56
1, 7777, Note_on_c, 4, 37, 112
1, 7778, Note_on_c, 1, 37, 100
1, 7780, Note_on_c, 9, 37, 0
1, 7780, Note_on_c, 9, 42, 0
1, 7780, Note_on_c, 3, 56, 100
1, 7781, Note_on_c, 1, 39, 0
1, 7784, Note_on_c, 3, 46, 0
1, 7800, Note_on_c, 9, 39, 0
1, 7800, Note_on_c, 9, 40, 0
1, 7806, Note_on_c, 2, 56, 100
1, 7809, Note_on_c, 2, 55, 0
1, 7812, Note_on_c, 9, 42, 40
1, 7816, Note_on_c, 9, 42, 0
1, 7820, Note_on_c, 2, 63, 77
1, 7824, Note_on_c, 9, 42, 51
1, 7827, Note_on_c, 3, 56, 0
1, 7827, Note_on_c, 3, 46, 77
1, 7828, Note_on_c, 9, 42, 0
1, 7830, Note_on_c, 2, 56, 0
1, 7832, Note_on_c, 4, 37, 0
1, 7847, Note_on_c, 1, 37, 0
1, 7850, Note_on_c, 2, 63, 0
1, 7850, Note_on_c, 1, 34, 100
1, 7851, Note_on_c, 4, 34, 100
1, 7852, Note_on_c, 2, 56, 88
1, 7852, Note_on_c, 3, 56, 88
1, 7858, Note_on_c, 3, 46, 0
1, 7860, Note_on_c, 9, 42, 32
1, 7864, Note_on_c, 9, 42, 0
1, 7872, Note_on_c, 1, 34, 0
1, 7872, Note_on_c, 9, 42, 50
1, 7872, Note_on_c, 9, 35, 96
1, 7876, Note_on_c, 9, 42, 0
1, 7888, Note_on_c, 4, 34, 0
1, 7896, Note_on_c, 9, 35, 0
1, 7908, Note_on_c, 9, 42, 40
1, 7912, Note_on_c, 9, 42, 0
1, 7920, Note_on_c, 9, 42, 50
1, 7923, Note_on_c, 2, 56, 0
1, 7923, Note_on_c, 3, 46, 88
1, 7924, Note_on_c, 9, 42, 0
1, 7926, Note_on_c, 3, 56, 0
1, 7926, Note_on_c, 2, 55, 112
1, 7955, Note_on_c, 2, 56, 100
1, 7956, Note_on_c, 9, 42, 40
1, 7958, Note_on_c, 2, 55, 0
1, 7960, Note_on_c, 9, 42, 0
1, 7967, Note_on_c, 3, 56, 100
1, 7968, Note_on_c, 9, 37, 64
1, 7968, Note_on_c, 9, 39, 65
1, 7968, Note_on_c, 9, 42, 50
1, 7968, Note_on_c, 9, 40, 127
1, 7969, Note_on_c, 3, 46, 0
1, 7970, Note_on_c, 2, 53, 112
1, 7972, Note_on_c, 9, 37, 0
1, 7972, Note_on_c, 2, 56, 0
1, 7972, Note_on_c, 9, 42, 0
1, 7992, Note_on_c, 9, 39, 0
1, 7992, Note_on_c, 9, 40, 0
1, 8003, Note_on_c, 3, 56, 0
1, 8004, Note_on_c, 9, 42, 40
1, 8008, Note_on_c, 9, 42, 0
1, 8016, Note_on_c, 9, 42, 50
1, 8017, Note_on_c, 2, 56, 88
1, 8020, Note_on_c, 9, 42, 0
1, 8020, Note_on_c, 3, 56, 100
1, 8022, Note_on_c, 2, 53, 0
1, 8045, Note_on_c, 1, 32, 100
1, 8050, Note_on_c, 2, 58, 77
1, 8051, Note_on_c, 3, 58, 88
1, 8052, Note_on_c, 9, 42, 40
1, 8054, Note_on_c, 3, 56, 0
1, 8055, Note_on_c, 2, 56, 0
1, 8056, Note_on_c, 9, 42, 0
1, 8059, Note_on_c, 1, 34, 100
1, 8064, Note_on_c, 2, 58, 0
1, 8064, Note_on_c, 3, 58, 0
1, 8064, Note_on_c, 9, 35, 96
1, 8064, Note_on_c, 9, 42, 50
1, 8064, Note_on_c, 3, 46, 112
1, 8066, Note_on_c, 1, 32, 0
1, 8066, Note_on_c, 4, 34, 112
1, 8066, Note_on_c, 5, 46, 100
1, 8068, Note_on_c, 9, 42, 0
1, 8087, Note_on_c, 1, 32, 100
1, 8088, Note_on_c, 9, 35, 0
1, 8093, Note_on_c, 1, 34, 0
1, 8094, Note_on_c, 3, 46, 0
1, 8100, Note_on_c, 9, 42, 32
1, 8104, Note_on_c, 9, 42, 0
1, 8107, Note_on_c, 1, 34, 112
1, 8108, Note_on_c, 4, 34, 0
1, 8110, Note_on_c, 1, 32, 0
1, 8111, Note_on_c, 5, 46, 0
1, 8112, Note_on_c, 9, 42, 50
1, 8112, Note_on_c, 3, 46, 77
1, 8116, Note_on_c, 9, 42, 0
1, 8147, Note_on_c, 1, 34, 0
1, 8148, Note_on_c, 9, 42, 40
1, 8152, Note_on_c, 9, 42, 0
1, 8155, Note_on_c, 2, 56, 125
1, 8157, Note_on_c, 5, 53, 112
1, 8160, Note_on_c, 9, 39, 75
1, 8160, Note_on_c, 9, 40, 127
1, 8160, Note_on_c, 9, 42, 50
1, 8160, Note_on_c, 9, 37, 56
1, 8160, Note_on_c, 3, 56, 112
1, 8161, Note_on_c, 4, 41, 112
1, 8163, Note_on_c, 3, 46, 0
1, 8164, Note_on_c, 9, 37, 0
1, 8164, Note_on_c, 9, 42, 0
1, 8184, Note_on_c, 9, 40, 0
1, 8184, Note_on_c, 9, 39, 0
1, 8185, Note_on_c, 2, 58, 77
1, 8190, Note_on_c, 2, 56, 0
1, 8195, Note_on_c, 4, 41, 0
1, 8196, Note_on_c, 9, 42, 40
1, 8200, Note_on_c, 9, 42, 0
1, 8201, Note_on_c, 2, 62, 88
1, 8202, Note_on_c, 5, 53, 0
1, 8206, Note_on_c, 2, 58, 0
1, 8207, Note_on_c, 3, 56, 0
1, 8207, Note_on_c, 3, 46, 77
1, 8208, Note_on_c, 9, 42, 51
1, 8212, Note_on_c, 9, 42, 0
1, 8232, Note_on_c, 2, 58, 100
1, 8234, Note_on_c, 2, 62, 0
1, 8236, Note_on_c, 3, 56, 88
1, 8244, Note_on_c, 9, 42, 32
1, 8246, Note_on_c, 3, 46, 0
1, 8248, Note_on_c, 9, 42, 0
1, 8251, Note_on_c, 4, 49, 100
1, 8252, Note_on_c, 5, 62, 125
1, 8254, Note_on_c, 4, 50, 100
1, 8256, Note_on_c, 9, 35, 96
1, 8256, Note_on_c, 9, 42, 50
1, 8260, Note_on_c, 9, 42, 0
1, 8264, Note_on_c, 4, 49, 0
1, 8280, Note_on_c, 9, 35, 0
1, 8292, Note_on_c, 9, 42, 40
1, 8296, Note_on_c, 9, 42, 0
1, 8304, Note_on_c, 9, 42, 50
1, 8308, Note_on_c, 9, 42, 0
1, 8310, Note_on_c, 3, 46, 100
1, 8316, Note_on_c, 3, 56, 0
1, 8340, Note_on_c, 9, 42, 40
1, 8344, Note_on_c, 9, 42, 0
1, 8352, Note_on_c, 9, 40, 127
1, 8352, Note_on_c, 9, 42, 50
1, 8352, Note_on_c, 9, 39, 65
1, 8352, Note_on_c, 9, 37, 64
1, 8356, Note_on_c, 9, 37, 0
1, 8356, Note_on_c, 9, 42, 0
1, 8356, Note_on_c, 3, 46, 0
1, 8356, Note_on_c, 3, 56, 88
1, 8376, Note_on_c, 9, 40, 0
1, 8376, Note_on_c, 9, 39, 0
1, 8388, Note_on_c, 9, 42, 40
1, 8390, Note_on_c, 2, 58, 0
1, 8392, Note_on_c, 9, 42, 0
1, 8400, Note_on_c, 9, 42, 50
1, 8401, Note_on_c, 3, 58, 68
1, 8404, Note_on_c, 9, 42, 0
1, 8406, Note_on_c, 5, 62, 0
1, 8406, Note_on_c, 3, 56, 0
1, 8412, Note_on_c, 4, 50, 0
1, 8436, Note_on_c, 9, 42, 40
1, 8440, Note_on_c, 9, 42, 0
1, 8443, Note_on_c, 1, 39, 112
1, 8448, Note_on_c, 9, 35, 96
1, 8448, Note_on_c, 9, 42, 50
1, 8449, Note_on_c, 4, 39, 112
1, 8450, Note_on_c, 3, 62, 100
1, 8452, Note_on_c, 9, 42, 0
1, 8453, Note_on_c, 3, 58, 0
1, 8472, Note_on_c, 9, 35, 0
1, 8484, Note_on_c, 9, 42, 32
1, 8488, Note_on_c, 9, 42, 0
1, 8496, Note_on_c, 9, 42, 50
1, 8497, Note_on_c, 3, 46, 88
1, 8500, Note_on_c, 9, 42, 0
1, 8504, Note_on_c, 3, 62, 0
1, 8506, Note_on_c, 4, 39, 0
1, 8532, Note_on_c, 9, 42, 40
1, 8536, Note_on_c, 9, 42, 0
1, 8542, Note_on_c, 2, 55, 125
1, 8544, Note_on_c, 9, 42, 50
1, 8544, Note_on_c, 9, 40, 127
1, 8544, Note_on_c, 9, 37, 56
1, 8544, Note_on_c, 9, 39, 75
1, 8545, Note_on_c, 4, 37, 112
1, 8546, Note_on_c, 1, 37, 100
1, 8548, Note_on_c, 9, 37, 0
1, 8548, Note_on_c, 9, 42, 0
1, 8548, Note_on_c, 3, 56, 100
1, 8549, Note_on_c, 1, 39, 0
1, 8552, Note_on_c, 3, 46, 0
1, 8568, Note_on_c, 9, 40, 0
1, 8568, Note_on_c, 9, 39, 0
1, 8574, Note_on_c, 2, 56, 100
1, 8577, Note_on_c, 2, 55, 0
1, 8580, Note_on_c, 9, 42, 40
1, 8584, Note_on_c, 9, 42, 0
1, 8588, Note_on_c, 2, 63, 77
1, 8592, Note_on_c, 9, 42, 51
1, 8595, Note_on_c, 3, 56, 0
1, 8595, Note_on_c, 3, 46, 77
1, 8596, Note_on_c, 9, 42, 0
1, 8598, Note_on_c, 2, 56, 0
1, 8600, Note_on_c, 4, 37, 0
1, 8615, Note_on_c, 1, 37, 0
1, 8618, Note_on_c, 2, 63, 0
1, 8618, Note_on_c, 1, 34, 100
1, 8619, Note_on_c, 4, 34, 100
1, 8620, Note_on_c, 2, 56, 88
1, 8620, Note_on_c, 3, 56, 88
1, 8626, Note_on_c, 3, 46, 0
1, 8628, Note_on_c, 9, 42, 32
1, 8632, Note_on_c, 9, 42, 0
1, 8640, Note_on_c, 1, 34, 0
1, 8640, Note_on_c, 9, 35, 96
1, 8640, Note_on_c, 9, 42, 50
1, 8644, Note_on_c, 9, 42, 0
1, 8656, Note_on_c, 4, 34, 0
1, 8664, Note_on_c, 9, 35, 0
1, 8676, Note_on_c, 9, 42, 40
1, 8680, Note_on_c, 9, 42, 0
1, 8688, Note_on_c, 9, 42, 50
1, 8691, Note_on_c, 2, 56, 0
1, 8691, Note_on_c, 3, 46, 88
1, 8692, Note_on_c, 9, 42, 0
1, 8694, Note_on_c, 3, 56, 0
1, 8694, Note_on_c, 2, 55, 112
1, 8723, Note_on_c, 2, 56, 100
1, 8724, Note_on_c, 9, 42, 40
1, 8726, Note_on_c, 2, 55, 0
1, 8728, Note_on_c, 9, 42, 0
1, 8735, Note_on_c, 3, 56, 100
1, 8736, Note_on_c, 9, 39, 65
1, 8736, Note_on_c, 9, 40, 127
1, 8736, Note_on_c, 9, 37, 64
1, 8736, Note_on_c, 9, 42, 50
1, 8737, Note_on_c, 3, 46, 0
1, 8738, Note_on_c, 2, 53, 112
1, 8740, Note_on_c, 9, 37, 0
1, 8740, Note_on_c, 2, 56, 0
1, 8740, Note_on_c, 9, 42, 0
1, 8760, Note_on_c, 9, 40, 0
1, 8760, Note_on_c, 9, 39, 0
1, 8771, Note_on_c, 3, 56, 0
1, 8772, Note_on_c, 9, 42, 40
1, 8776, Note_on_c, 9, 42, 0
1, 8784, Note_on_c, 9, 42, 50
1, 8785, Note_on_c, 2, 56, 88
1, 8788, Note_on_c, 9, 42, 0
1, 8788, Note_on_c, 3, 56, 100
1, 8790, Note_on_c, 2, 53, 0
1, 8813, Note_on_c, 1, 32, 100
1, 8818, Note_on_c, 2, 58, 77
1, 8819, Note_on_c, 3, 58, 88
1, 8820, Note_on_c, 9, 42, 40
1, 8822, Note_on_c, 3, 56, 0
1, 8823, Note_on_c, 2, 56, 0
1, 8824, Note_on_c, 9, 42, 0
1, 8827, Note_on_c, 1, 34, 100
1, 8832, Note_on_c, 2, 58, 0
1, 8832, Note_on_c, 3, 58, 0
1, 8832, Note_on_c, 9, 42, 50
1, 8832, Note_on_c, 9, 35, 96
1, 8832, Note_on_c, 3, 46, 112
1, 8834, Note_on_c, 1, 32, 0
1, 8834, Note_on_c, 4, 34, 112
1, 8834, Note_on_c, 5, 46, 100
1, 8836, Note_on_c, 9, 42, 0
1, 8855, Note_on_c, 1, 32, 100
1, 8856, Note_on_c, 9, 35, 0
1, 8861, Note_on_c, 1, 34, 0
1, 8862, Note_on_c, 3, 46, 0
1, 8868, Note_on_c, 9, 42, 32
1, 8872, Note_on_c, 9, 42, 0
1, 8875, Note_on_c, 1, 34, 112
1, 8876, Note_on_c, 4, 34, 0
1, 8878, Note_on_c, 1, 32, 0
1, 8879, Note_on_c, 5, 46, 0
1, 8880, Note_on_c, 9, 42, 50
1, 8880, Note_on_c, 3, 46, 77
1, 8884, Note_on_c, 9, 42, 0
1, 8915, Note_on_c, 1, 34, 0
1, 8916, Note_on_c, 9, 42, 40
1, 8920, Note_on_c, 9, 42, 0
1, 8923, Note_on_c, 2, 56, 125
1, 8925, Note_on_c, 5, 53, 112
1, 8928, Note_on_c, 9, 39, 75
1, 8928, Note_on_c, 9, 42, 50
1, 8928, Note_on_c, 9, 37, 56
1, 8928, Note_on_c, 9, 40, 127
1, 8928, Note_on_c, 3, 56, 112
1, 8929, Note_on_c, 4, 41, 112
1, 8931, Note_on_c, 3, 46, 0
1, 8932, Note_on_c, 9, 42, 0
1, 8932, Note_on_c, 9, 37, 0
1, 8952, Note_on_c, 9, 39, 0
1, 8952, Note_on_c, 9, 40, 0
1, 8953, Note_on_c, 2, 58, 77
1, 8958, Note_on_c, 2, 56, 0
1, 8963, Note_on_c, 4, 41, 0
1, 8964, Note_on_c, 9, 42, 40
1, 8968, Note_on_c, 9, 42, 0
1, 8969, Note_on_c, 2, 62, 88
1, 8970, Note_on_c, 5, 53, 0
1, 8974, Note_on_c, 2, 58, 0
1, 8975, Note_on_c, 3, 56, 0
1, 8975, Note_on_c, 3, 46, 77
1, 8976, Note_on_c, 9, 42, 51
1, 8980, Note_on_c, 9, 42, 0
1, 9000, Note_on_c, 2, 58, 100
1, 9002, Note_on_c, 2, 62, 0
1, 9004, Note_on_c, 3, 56, 88
1, 9012, Note_on_c, 9, 42, 32
1, 9014, Note_on_c, 3, 46, 0
1, 9016, Note_on_c, 9, 42, 0
1, 9019, Note_on_c, 4, 49, 100
1, 9020, Note_on_c, 5, 62, 125
1, 9022, Note_on_c, 4, 50, 100
1, 9024, Note_on_c, 9, 42, 50
1, 9024, Note_on_c, 9, 35, 96
1, 9028, Note_on_c, 9, 42, 0
1, 9032, Note_on_c, 4, 49, 0
1, 9048, Note_on_c, 9, 35, 0
1, 9060, Note_on_c, 9, 42, 40
1, 9064, Note_on_c, 9, 42, 0
1, 9072, Note_on_c, 9, 42, 50
1, 9076, Note_on_c, 9, 42, 0
1, 9078, Note_on_c, 3, 46, 100
1, 9084, Note_on_c, 3, 56, 0
1, 9108, Note_on_c, 9, 42, 40
1, 9112, Note_on_c, 9, 42, 0
1, 9120, Note_on_c, 9, 39, 65
1, 9120, Note_on_c, 9, 37, 64
1, 9120, Note_on_c, 9, 42, 50
1, 9120, Note_on_c, 9, 40, 127
1, 9124, Note_on_c, 9, 42, 0
1, 9124, Note_on_c, 9, 37, 0
1, 9124, Note_on_c, 3, 46, 0
1, 9124, Note_on_c, 3, 56, 88
1, 9144, Note_on_c, 9, 40, 0
1, 9144, Note_on_c, 9, 39, 0
1, 9156, Note_on_c, 9, 42, 40
1, 9158, Note_on_c, 2, 58, 0
1, 9160, Note_on_c, 9, 42, 0
1, 9168, Note_on_c, 9, 42, 50
1, 9169, Note_on_c, 3, 58, 68
1, 9172, Note_on_c, 9, 42, 0
1, 9174, Note_on_c, 5, 62, 0
1, 9174, Note_on_c, 3, 56, 0
1, 9180, Note_on_c, 4, 50, 0
1, 9204, Note_on_c, 9, 42, 40
1, 9208, Note_on_c, 9, 42, 0
1, 9211, Note_on_c, 1, 39, 112
1, 9216, Note_on_c, 9, 35, 96
1, 9216, Note_on_c, 9, 42, 50
1, 9217, Note_on_c, 4, 39, 112
1, 9218, Note_on_c, 3, 62, 100
1, 9220, Note_on_c, 9, 42, 0
1, 9221, Note_on_c, 3, 58, 0
1, 9240, Note_on_c, 9, 35, 0
1, 9252, Note_on_c, 9, 42, 32
1, 9256, Note_on_c, 9, 42, 0
1, 9264, Note_on_c, 9, 42, 50
1, 9265, Note_on_c, 3, 46, 88
1, 9268, Note_on_c, 9, 42, 0
1, 9272, Note_on_c, 3, 62, 0
1, 9274, Note_on_c, 4, 39, 0
1, 9300, Note_on_c, 9, 42, 40
1, 9304, Note_on_c, 9, 42, 0
1, 9310, Note_on_c, 2, 55, 125
1, 9312, Note_on_c, 9, 42, 50
1, 9312, Note_on_c, 9, 37, 56
1, 9312, Note_on_c, 9, 40, 127
1, 9312, Note_on_c, 9, 39, 75
1, 9313, Note_on_c, 4, 37, 112
1, 9314, Note_on_c, 1, 37, 100
1, 9316, Note_on_c, 9, 37, 0
1, 9316, Note_on_c, 9, 42, 0
1, 9316, Note_on_c, 3, 56, 100
1, 9317, Note_on_c, 1, 39, 0
1, 9320, Note_on_c, 3, 46, 0
1, 9336, Note_on_c, 9, 40, 0
1, 9336, Note_on_c, 9, 39, 0
1, 9342, Note_on_c, 2, 56, 100
1, 9345, Note_on_c, 2, 55, 0
1, 9348, Note_on_c, 9, 42, 40
1, 9352, Note_on_c, 9, 42, 0
1, 9356, Note_on_c, 2, 63, 77
1, 9360, Note_on_c, 9, 42, 51
1, 9363, Note_on_c, 3, 56, 0
1, 9363, Note_on_c, 3, 46, 77
1, 9364, Note_on_c, 9, 42, 0
1, 9366, Note_on_c, 2, 56, 0
1, 9368, Note_on_c, 4, 37, 0
1, 9383, Note_on_c, 1, 37, 0
1, 9386, Note_on_c, 2, 63, 0
1, 9386, Note_on_c, 1, 34, 100
1, 9387, Note_on_c, 4, 34, 100
1, 9388, Note_on_c, 2, 56, 88
1, 9388, Note_on_c, 3, 56, 88
1, 9394, Note_on_c, 3, 46, 0
1, 9396, Note_on_c, 9, 42, 32
1, 9400, Note_on_c, 9, 42, 0
1, 9408, Note_on_c, 1, 34, 0
1, 9408, Note_on_c, 9, 35, 96
1, 9408, Note_on_c, 9, 42, 50
1, 9412, Note_on_c, 9, 42, 0
1, 9424, Note_on_c, 4, 34, 0
1, 9432, Note_on_c, 9, 35, 0
1, 9444, Note_on_c, 9, 42, 40
1, 9448, Note_on_c, 9, 42, 0
1, 9456, Note_on_c, 9, 42, 50
1, 9459, Note_on_c, 2, 56, 0
1, 9459, Note_on_c, 3, 46, 88
1, 9460, Note_on_c, 9, 42, 0
1, 9462, Note_on_c, 3, 56, 0
1, 9462, Note_on_c, 2, 55, 112
1, 9491, Note_on_c, 2, 56, 100
1, 9492, Note_on_c, 9, 42, 40
1, 9494, Note_on_c, 2, 55, 0
1, 9496, Note_on_c, 9, 42, 0
1, 9503, Note_on_c, 3, 56, 100
1, 9504, Note_on_c, 9, 42, 50
1, 9504, Note_on_c, 9, 40, 127
1, 9504, Note_on_c, 9, 39, 65
1, 9504, Note_on_c, 9, 37, 64
1, 9505, Note_on_c, 3, 46, 0
1, 9506, Note_on_c, 2, 53, 112
1, 9508, Note_on_c, 9, 42, 0
1, 9508, Note_on_c, 2, 56, 0
1, 9508, Note_on_c, 9, 37, 0
1, 9528, Note_on_c, 9, 40, 0
1, 9528, Note_on_c, 9, 39, 0
1, 9539, Note_on_c, 3, 56, 0
1, 9540, Note_on_c, 9, 42, 40
1, 9544, Note_on_c, 9, 42, 0
1, 9552, Note_on_c, 9, 42, 50
1, 9553, Note_on_c, 2, 56, 88
1, 9556, Note_on_c, 9, 42, 0
1, 9556, Note_on_c, 3, 56, 100
1, 9558, Note_on_c, 2, 53, 0
1, 9581, Note_on_c, 1, 32, 100
1, 9586, Note_on_c, 2, 58, 77
1, 9587, Note_on_c, 3, 58, 88
1, 9588, Note_on_c, 9, 42, 40
1, 9588, Note_on_c, 9, 40, 56
1, 9590, Note_on_c, 3, 56, 0
1, 9591, Note_on_c, 2, 56, 0
1, 9592, Note_on_c, 9, 42, 0
1, 9594, Note_on_c, 9, 40, 104
1, 9595, Note_on_c, 1, 34, 100
1, 9600, Note_on_c, 3, 58, 0
1, 9600, Note_on_c, 2, 58, 0
1, 9600, Note_on_c, 9, 42, 50
1, 9600, Note_on_c, 9, 40, 127
1, 9600, Note_on_c, 9, 35, 96
1, 9600, Note_on_c, 3, 46, 112
1, 9602, Note_on_c, 1, 32, 0
1, 9602, Note_on_c, 4, 34, 112
1, 9602, Note_on_c, 5, 46, 100
1, 9604, Note_on_c, 9, 42, 0
1, 9612, Note_on_c, 9, 40, 0
1, 9618, Note_on_c, 9, 40, 0
1, 9623, Note_on_c, 1, 32, 100
1, 9624, Note_on_c, 9, 35, 0
1, 9624, Note_on_c, 9, 40, 0
1, 9629, Note_on_c, 1, 34, 0
1, 9630, Note_on_c, 3, 46, 0
1, 9636, Note_on_c, 9, 42, 32
1, 9640, Note_on_c, 9, 42, 0
1, 9643, Note_on_c, 1, 34, 112
1, 9644, Note_on_c, 4, 34, 0
1, 9646, Note_on_c, 1, 32, 0
1, 9647, Note_on_c, 5, 46, 0
1, 9648, Note_on_c, 9, 42, 50
1, 9648, Note_on_c, 3, 46, 77
1, 9652, Note_on_c, 9, 42, 0
1, 9683, Note_on_c, 1, 34, 0
1, 9684, Note_on_c, 9, 42, 40
1, 9688, Note_on_c, 9, 42, 0
1, 9691, Note_on_c, 2, 56, 125
1, 9693, Note_on_c, 5, 53, 112
1, 9696, Note_on_c, 9, 39, 75
1, 9696, Note_on_c, 9, 42, 50
1, 9696, Note_on_c, 9, 37, 56
1, 9696, Note_on_c, 9, 40, 127
1, 9696, Note_on_c, 3, 56, 112
1, 9697, Note_on_c, 4, 41, 112
1, 9699, Note_on_c, 3, 46, 0
1, 9700, Note_on_c, 9, 42, 0
1, 9700, Note_on_c, 9, 37, 0
1, 9720, Note_on_c, 9, 39, 0
1, 9720, Note_on_c, 9, 40, 0
1, 9721, Note_on_c, 2, 58, 77
1, 9726, Note_on_c, 2, 56, 0
1, 9731, Note_on_c, 4, 41, 0
1, 9732, Note_on_c, 9, 42, 40
1, 9736, Note_on_c, 9, 42, 0
1, 9737, Note_on_c, 2, 62, 88
1, 9738, Note_on_c, 5, 53, 0
1, 9742, Note_on_c, 2, 58, 0
1, 9743, Note_on_c, 3, 56, 0
1, 9743, Note_on_c, 3, 46, 77
1, 9744, Note_on_c, 9, 42, 51
1, 9748, Note_on_c, 9, 42, 0
1, 9768, Note_on_c, 2, 58, 100
1, 9770, Note_on_c, 2, 62, 0
1, 9772, Note_on_c, 3, 56, 88
1, 9780, Note_on_c, 9, 42, 32
1, 9782, Note_on_c, 3, 46, 0
1, 9784, Note_on_c, 9, 42, 0
1, 9787, Note_on_c, 4, 49, 100
1, 9788, Note_on_c, 5, 62, 125
1, 9790, Note_on_c, 4, 50, 100
1, 9792, Note_on_c, 9, 35, 96
1, 9792, Note_on_c, 9, 42, 50
1, 9796, Note_on_c, 9, 42, 0
1, 9800, Note_on_c, 4, 49, 0
1, 9816, Note_on_c, 9, 35, 0
1, 9828, Note_on_c, 9, 42, 40
1, 9832, Note_on_c, 9, 42, 0
1, 9840, Note_on_c, 9, 42, 50
1, 9844, Note_on_c, 9, 42, 0
1, 9846, Note_on_c, 3, 46, 100
1, 9852, Note_on_c, 3, 56, 0
1, 9876, Note_on_c, 9, 42, 40
1, 9880, Note_on_c, 9, 42, 0
1, 9888, Note_on_c, 9, 42, 50
1, 9888, Note_on_c, 9, 39, 65
1, 9888, Note_on_c, 9, 40, 127
1, 9888, Note_on_c, 9, 37, 64
1, 9892, Note_on_c, 9, 37, 0
1, 9892, Note_on_c, 9, 42, 0
1, 9892, Note_on_c, 3, 46, 0
1, 9892, Note_on_c, 3, 56, 88
1, 9912, Note_on_c, 9, 39, 0
1, 9912, Note_on_c, 9, 40, 0
1, 9924, Note_on_c, 9, 40, 48
1, 9924, Note_on_c, 9, 42, 40
1, 9926, Note_on_c, 2, 58, 0
1, 9928, Note_on_c, 9, 42, 0
1, 9930, Note_on_c, 9, 40, 96
1, 9936, Note_on_c, 9, 40, 127
1, 9936, Note_on_c, 9, 42, 50
1, 9937, Note_on_c, 3, 58, 68
1, 9940, Note_on_c, 9, 42, 0
1, 9942, Note_on_c, 5, 62, 0
1, 9942, Note_on_c, 3, 56, 0
1, 9948, Note_on_c, 9, 40, 0
1, 9948, Note_on_c, 4, 50, 0
1, 9954, Note_on_c, 9, 40, 0
1, 9960, Note_on_c, 9, 40, 0
1, 9972, Note_on_c, 9, 42, 40
1, 9976, Note_on_c, 9, 42, 0
1, 9979, Note_on_c, 1, 39, 112
1, 9984, Note_on_c, 9, 42, 50
1, 9984, Note_on_c, 9, 40, 127
1, 9984, Note_on_c, 9, 35, 96
1, 9985, Note_on_c, 4, 39, 112
1, 9986, Note_on_c, 3, 62, 100
1, 9988, Note_on_c, 9, 42, 0
1, 9989, Note_on_c, 3, 58, 0
1, 10008, Note_on_c, 9, 35, 0
1, 10008, Note_on_c, 9, 40, 0
1, 10020, Note_on_c, 9, 42, 32
1, 10024, Note_on_c, 9, 42, 0
1, 10032, Note_on_c, 9, 42, 50
1, 10033, Note_on_c, 3, 46, 88
1, 10036, Note_on_c, 9, 42, 0
1, 10040, Note_on_c, 3, 62, 0
1, 10042, Note_on_c, 4, 39, 0
1, 10068, Note_on_c, 9, 42, 40
1, 10072, Note_on_c, 9, 42, 0
1, 10078, Note_on_c, 2, 55, 125
1, 10080, Note_on_c, 9, 42, 50
1, 10080, Note_on_c, 9, 40, 127
1, 10080, Note_on_c, 9, 37, 56
1, 10080, Note_on_c, 9, 39, 75
1, 10081, Note_on_c, 4, 37, 112
1, 10082, Note_on_c, 1, 37, 100
1, 10084, Note_on_c, 9, 37, 0
1, 10084, Note_on_c, 9, 42, 0
1, 10084, Note_on_c, 3, 56, 100
1, 10085, Note_on_c, 1, 39, 0
1, 10088, Note_on_c, 3, 46, 0
1, 10104, Note_on_c, 9, 40, 0
1, 10104, Note_on_c, 9, 39, 0
1, 10110, Note_on_c, 2, 56, 100
1, 10113, Note_on_c, 2, 55, 0
1, 10116, Note_on_c, 9, 42, 40
1, 10120, Note_on_c, 9, 42, 0
1, 10124, Note_on_c, 2, 63, 77
1, 10128, Note_on_c, 9, 42, 51
1, 10131, Note_on_c, 3, 56, 0
1, 10131, Note_on_c, 3, 46, 77
1, 10132, Note_on_c, 9, 42, 0
1, 10134, Note_on_c, 2, 56, 0
1, 10136, Note_on_c, 4, 37, 0
1, 10151, Note_on_c, 1, 37, 0
1, 10154, Note_on_c, 2, 63, 0
1, 10154, Note_on_c, 1, 34, 100
1, 10155, Note_on_c, 4, 34, 100
1, 10156, Note_on_c, 2, 56, 88
1, 10156, Note_on_c, 3, 56, 88
1, 10162, Note_on_c, 3, 46, 0
1, 10164, Note_on_c, 9, 42, 32
1, 10168, Note_on_c, 9, 42, 0
1, 10176, Note_on_c, 1, 34, 0
1, 10176, Note_on_c, 9, 42, 50
1, 10176, Note_on_c, 9, 35, 96
1, 10180, Note_on_c, 9, 42, 0
1, 10192, Note_on_c, 4, 34, 0
1, 10200, Note_on_c, 9, 35, 0
1, 10212, Note_on_c, 9, 42, 40
1, 10216, Note_on_c, 9, 42, 0
1, 10224, Note_on_c, 9, 42, 50
1, 10227, Note_on_c, 2, 56, 0
1, 10227, Note_on_c, 3, 46, 88
1, 10228, Note_on_c, 9, 42, 0
1, 10230, Note_on_c, 3, 56, 0
1, 10230, Note_on_c, 2, 55, 112
1, 10259, Note_on_c, 2, 56, 100
1, 10260, Note_on_c, 9, 42, 40
1, 10262, Note_on_c, 2, 55, 0
1, 10264, Note_on_c, 9, 42, 0
1, 10271, Note_on_c, 3, 56, 100
1, 10272, Note_on_c, 9, 37, 64
1, 10272, Note_on_c, 9, 39, 65
1, 10272, Note_on_c, 9, 40, 127
1, 10272, Note_on_c, 9, 42, 50
1, 10273, Note_on_c, 3, 46, 0
1, 10274, Note_on_c, 2, 53, 112
1, 10276, Note_on_c, 9, 37, 0
1, 10276, Note_on_c, 2, 56, 0
1, 10276, Note_on_c, 9, 42, 0
1, 10296, Note_on_c, 9, 39, 0
1, 10296, Note_on_c, 9, 40, 0
1, 10307, Note_on_c, 3, 56, 0
1, 10308, Note_on_c, 9, 42, 40
1, 10312, Note_on_c, 9, 42, 0
1, 10320, Note_on_c, 9, 42, 50
1, 10321, Note_on_c, 2, 56, 88
1, 10324, Note_on_c, 9, 42, 0
1, 10324, Note_on_c, 3, 56, 100
1, 10326, Note_on_c, 2, 53, 0
1, 10349, Note_on_c, 1, 32, 100
1, 10354, Note_on_c, 2, 58, 77
1, 10355, Note_on_c, 3, 58, 88
1, 10356, Note_on_c, 9, 42, 40
1, 10356, Note_on_c, 9, 40, 56
1, 10358, Note_on_c, 3, 56, 0
1, 10359, Note_on_c, 2, 56, 0
1, 10360, Note_on_c, 9, 42, 0
1, 10362, Note_on_c, 9, 40, 104
1, 10363, Note_on_c, 1, 34, 100
1, 10368, Note_on_c, 3, 58, 0
1, 10368, Note_on_c, 2, 58, 0
1, 10368, Note_on_c, 9, 35, 96
1, 10368, Note_on_c, 9, 40, 127
1, 10368, Note_on_c, 9, 42, 50
1, 10368, Note_on_c, 3, 46, 112
1, 10370, Note_on_c, 1, 32, 0
1, 10370, Note_on_c, 4, 34, 112
1, 10370, Note_on_c, 5, 46, 100
1, 10372, Note_on_c, 9, 42, 0
1, 10380, Note_on_c, 9, 40, 0
1, 10386, Note_on_c, 9, 40, 0
1, 10391, Note_on_c, 1, 32, 100
1, 10392, Note_on_c, 9, 35, 0
1, 10392, Note_on_c, 9, 40, 0
1, 10397, Note_on_c, 1, 34, 0
1, 10398, Note_on_c, 3, 46, 0
1, 10404, Note_on_c, 9, 42, 32
1, 10408, Note_on_c, 9, 42, 0
1, 10411, Note_on_c, 1, 34, 112
1, 10412, Note_on_c, 4, 34, 0
1, 10414, Note_on_c, 1, 32, 0
1, 10415, Note_on_c, 5, 46, 0
1, 10416, Note_on_c, 9, 42, 50
1, 10416, Note_on_c, 3, 46, 77
1, 10420, Note_on_c, 9, 42, 0
1, 10451, Note_on_c, 1, 34, 0
1, 10452, Note_on_c, 9, 42, 40
1, 10456, Note_on_c, 9, 42, 0
1, 10459, Note_on_c, 2, 56, 125
1, 10461, Note_on_c, 5, 53, 112
1, 10464, Note_on_c, 9, 39, 75
1, 10464, Note_on_c, 9, 40, 127
1, 10464, Note_on_c, 9, 42, 50
1, 10464, Note_on_c, 9, 37, 56
1, 10464, Note_on_c, 3, 56, 112
1, 10465, Note_on_c, 4, 41, 112
1, 10467, Note_on_c, 3, 46, 0
1, 10468, Note_on_c, 9, 37, 0
1, 10468, Note_on_c, 9, 42, 0
1, 10488, Note_on_c, 9, 40, 0
1, 10488, Note_on_c, 9, 39, 0
1, 10489, Note_on_c, 2, 58, 77
1, 10494, Note_on_c, 2, 56, 0
1, 10499, Note_on_c, 4, 41, 0
1, 10500, Note_on_c, 9, 42, 40
1, 10504, Note_on_c, 9, 42, 0
1, 10505, Note_on_c, 2, 62, 88
1, 10506, Note_on_c, 5, 53, 0
1, 10510, Note_on_c, 2, 58, 0
1, 10511, Note_on_c, 3, 56, 0
1, 10511, Note_on_c, 3, 46, 77
1, 10512, Note_on_c, 9, 42, 51
1, 10516, Note_on_c, 9, 42, 0
1, 10536, Note_on_c, 2, 58, 100
1, 10538, Note_on_c, 2, 62, 0
1, 10540, Note_on_c, 3, 56, 88
1, 10548, Note_on_c, 9, 42, 32
1, 10550, Note_on_c, 3, 46, 0
1, 10552, Note_on_c, 9, 42, 0
1, 10555, Note_on_c, 4, 49, 100
1, 10556, Note_on_c, 5, 62, 125
1, 10558, Note_on_c, 4, 50, 100
1, 10560, Note_on_c, 9, 35, 96
1, 10560, Note_on_c, 9, 42, 50
1, 10564, Note_on_c, 9, 42, 0
1, 10568, Note_on_c, 4, 49, 0
1, 10584, Note_on_c, 9, 35, 0
1, 10596, Note_on_c, 9, 42, 40
1, 10600, Note_on_c, 9, 42, 0
1, 10608, Note_on_c, 9, 42, 50
1, 10612, Note_on_c, 9, 42, 0
1, 10614, Note_on_c, 3, 46, 100
1, 10620, Note_on_c, 3, 56, 0
1, 10644, Note_on_c, 9, 42, 40
1, 10648, Note_on_c, 9, 42, 0
1, 10656, Note_on_c, 9, 40, 127
1, 10656, Note_on_c, 9, 37, 64
1, 10656, Note_on_c, 9, 42, 50
1, 10656, Note_on_c, 9, 39, 65
1, 10660, Note_on_c, 9, 42, 0
1, 10660, Note_on_c, 9, 37, 0
1, 10660, Note_on_c, 3, 46, 0
1, 10660, Note_on_c, 3, 56, 88
1, 10680, Note_on_c, 9, 39, 0
1, 10680, Note_on_c, 9, 40, 0
1, 10692, Note_on_c, 9, 42, 40
1, 10692, Note_on_c, 9, 40, 48
1, 10694, Note_on_c, 2, 58, 0
1, 10696, Note_on_c, 9, 42, 0
1, 10698, Note_on_c, 9, 40, 96
1, 10704, Note_on_c, 9, 40, 127
1, 10704, Note_on_c, 9, 42, 50
1, 10705, Note_on_c, 3, 58, 68
1, 10708, Note_on_c, 9, 42, 0
1, 10710, Note_on_c, 5, 62, 0
1, 10710, Note_on_c, 3, 56, 0
1, 10716, Note_on_c, 9, 40, 0
1, 10716, Note_on_c, 4, 50, 0
1, 10722, Note_on_c, 9, 40, 0
1, 10728, Note_on_c, 9, 40, 0
1, 10740, Note_on_c, 9, 42, 40
1, 10744, Note_on_c, 9, 42, 0
1, 10747, Note_on_c, 1, 39, 112
1, 10752, Note_on_c, 9, 40, 127
1, 10752, Note_on_c, 9, 42, 50
1, 10752, Note_on_c, 9, 35, 96
1, 10753, Note_on_c, 4, 39, 112
1, 10754, Note_on_c, 3, 62, 100
1, 10756, Note_on_c, 9, 42, 0
1, 10757, Note_on_c, 3, 58, 0
1, 10776, Note_on_c, 9, 35, 0
1, 10776, Note_on_c, 9, 40, 0
1, 10788, Note_on_c, 9, 42, 32
1, 10792, Note_on_c, 9, 42, 0
1, 10800, Note_on_c, 9, 42, 50
1, 10801, Note_on_c, 3, 46, 88
1, 10804, Note_on_c, 9, 42, 0
1, 10808, Note_on_c, 3, 62, 0
1, 10810, Note_on_c, 4, 39, 0
1, 10836, Note_on_c, 9, 42, 40
1, 10840, Note_on_c, 9, 42, 0
1, 10846, Note_on_c, 2, 55, 125
1, 10848, Note_on_c, 9, 37, 56
1, 10848, Note_on_c, 9, 40, 127
1, 10848, Note_on_c, 9, 42, 50
1, 10848, Note_on_c, 9, 39, 75
1, 10849, Note_on_c, 4, 37, 112
1, 10850, Note_on_c, 1, 37, 100
1, 10852, Note_on_c, 9, 42, 0
1, 10852, Note_on_c, 9, 37, 0
1, 10852, Note_on_c, 3, 56, 100
1, 10853, Note_on_c, 1, 39, 0
1, 10856, Note_on_c, 3, 46, 0
1, 10872, Note_on_c, 9, 40, 0
1, 10872, Note_on_c, 9, 39, 0
1, 10878, Note_on_c, 2, 56, 100
1, 10881, Note_on_c, 2, 55, 0
1, 10884, Note_on_c, 9, 42, 40
1, 10888, Note_on_c, 9, 42, 0
1, 10892, Note_on_c, 2, 63, 77
1, 10896, Note_on_c, 9, 42, 51
1, 10899, Note_on_c, 3, 56, 0
1, 10899, Note_on_c, 3, 46, 77
1, 10900, Note_on_c, 9, 42, 0
1, 10902, Note_on_c, 2, 56, 0
1, 10904, Note_on_c, 4, 37, 0
1, 10919, Note_on_c, 1, 37, 0
1, 10922, Note_on_c, 2, 63, 0
1, 10922, Note_on_c, 1, 34, 100
1, 10923, Note_on_c, 4, 34, 100
1, 10924, Note_on_c, 2, 56, 88
1, 10924, Note_on_c, 3, 56, 88
1, 10930, Note_on_c, 3, 46, 0
1, 10932, Note_on_c, 9, 42, 32
1, 10936, Note_on_c, 9, 42, 0
1, 10944, Note_on_c, 1, 34, 0
1, 10944, Note_on_c, 9, 42, 50
1, 10944, Note_on_c, 9, 35, 96
1, 10948, Note_on_c, 9, 42, 0
1, 10960, Note_on_c, 4, 34, 0
1, 10968, Note_on_c, 9, 35, 0
1, 10980, Note_on_c, 9, 42, 40
1, 10984, Note_on_c, 9, 42, 0
1, 10992, Note_on_c, 9, 42, 50
1, 10995, Note_on_c, 2, 56, 0
1, 10995, Note_on_c, 3, 46, 88
1, 10996, Note_on_c, 9, 42, 0
1, 10998, Note_on_c, 3, 56, 0
1, 10998, Note_on_c, 2, 55, 112
1, 11027, Note_on_c, 2, 56, 100
1, 11028, Note_on_c, 9, 42, 40
1, 11030, Note_on_c, 2, 55, 0
1, 11032, Note_on_c, 9, 42, 0
1, 11039, Note_on_c, 3, 56, 100
1, 11040, Note_on_c, 9, 37, 64
1, 11040, Note_on_c, 9, 39, 65
1, 11040, Note_on_c, 9, 40, 127
1, 11040, Note_on_c, 9, 42, 50
1, 11041, Note_on_c, 3, 46, 0
1, 11042, Note_on_c, 2, 53, 112
1, 11044, Note_on_c, 9, 37, 0
1, 11044, Note_on_c, 2, 56, 0
1, 11044, Note_on_c, 9, 42, 0
1, 11064, Note_on_c, 9, 39, 0
1, 11064, Note_on_c, 9, 40, 0
1, 11075, Note_on_c, 3, 56, 0
1, 11076, Note_on_c, 9, 42, 40
1, 11080, Note_on_c, 9, 42, 0
1, 11088, Note_on_c, 9, 42, 50
1, 11089, Note_on_c, 2, 56, 88
1, 11092, Note_on_c, 9, 42, 0
1, 11092, Note_on_c, 3, 56, 100
1, 11094, Note_on_c, 2, 53, 0
1, 11117, Note_on_c, 1, 32, 100
1, 11122, Note_on_c, 2, 58, 77
1, 11123, Note_on_c, 3, 58, 88
1, 11124, Note_on_c, 9, 42, 40
1, 11126, Note_on_c, 3, 56, 0
1, 11127, Note_on_c, 2, 56, 0
1, 11128, Note_on_c, 9, 42, 0
1, 11131, Note_on_c, 1, 34, 100
1, 11136, Note_on_c, 2, 58, 0
1, 11136, Note_on_c, 3, 58, 0
1, 11136, Note_on_c, 9, 35, 96
1, 11136, Note_on_c, 9, 42, 50
1, 11136, Note_on_c, 9, 49, 56
1, 11136, Note_on_c, 3, 46, 112
1, 11138, Note_on_c, 1, 32, 0
1, 11138, Note_on_c, 4, 34, 112
1, 11138, Note_on_c, 5, 46, 100
1, 11140, Note_on_c, 9, 42, 0
1, 11159, Note_on_c, 1, 32, 100
1, 11160, Note_on_c, 9, 49, 0
1, 11160, Note_on_c, 9, 35, 0
1, 11165, Note_on_c, 1, 34, 0
1, 11166, Note_on_c, 3, 46, 0
1, 11172, Note_on_c, 9, 42, 32
1, 11176, Note_on_c, 9, 42, 0
1, 11179, Note_on_c, 1, 34, 112
1, 11180, Note_on_c, 4, 34, 0
1, 11182, Note_on_c, 1, 32, 0
1, 11183, Note_on_c, 5, 46, 0
1, 11184, Note_on_c, 9, 42, 50
1, 11184, Note_on_c, 3, 46, 77
1, 11188, Note_on_c, 9, 42, 0
1, 11219, Note_on_c, 1, 34, 0
1, 11220, Note_on_c, 9, 42, 40
1, 11224, Note_on_c, 9, 42, 0
1, 11227, Note_on_c, 2, 56, 125
1, 11229, Note_on_c, 5, 53, 112
1, 11232, Note_on_c, 9, 39, 75
1, 11232, Note_on_c, 9, 37, 56
1, 11232, Note_on_c, 9, 42, 50
1, 11232, Note_on_c, 3, 56, 112
1, 11232, Note_on_c, 6, 60, 100
1, 11233, Note_on_c, 4, 41, 112
1, 11235, Note_on_c, 3, 46, 0
1, 11236, Note_on_c, 9, 37, 0
1, 11236, Note_on_c, 9, 42, 0
1, 11256, Note_on_c, 9, 39, 0
1, 11257, Note_on_c, 2, 58, 77
1, 11262, Note_on_c, 2, 56, 0
1, 11267, Note_on_c, 4, 41, 0
1, 11268, Note_on_c, 9, 42, 40
1, 11272, Note_on_c, 9, 42, 0
1, 11273, Note_on_c, 2, 62, 88
1, 11274, Note_on_c, 5, 53, 0
1, 11278, Note_on_c, 2, 58, 0
1, 11279, Note_on_c, 3, 56, 0
1, 11279, Note_on_c, 3, 46, 77
1, 11280, Note_on_c, 9, 42, 51
1, 11284, Note_on_c, 9, 42, 0
1, 11304, Note_on_c, 2, 58, 100
1, 11306, Note_on_c, 2, 62, 0
1, 11308, Note_on_c, 3, 56, 88
1, 11316, Note_on_c, 9, 42, 32
1, 11318, Note_on_c, 3, 46, 0
1, 11320, Note_on_c, 9, 42, 0
1, 11323, Note_on_c, 4, 49, 100
1, 11324, Note_on_c, 5, 62, 125
1, 11326, Note_on_c, 4, 50, 100
1, 11328, Note_on_c, 9, 35, 96
1, 11328, Note_on_c, 9, 42, 50
1, 11332, Note_on_c, 9, 42, 0
1, 11336, Note_on_c, 4, 49, 0
1, 11352, Note_on_c, 9, 35, 0
1, 11364, Note_on_c, 9, 42, 40
1, 11368, Note_on_c, 9, 42, 0
1, 11376, Note_on_c, 9, 42, 50
1, 11380, Note_on_c, 9, 42, 0
1, 11382, Note_on_c, 3, 46, 100
1, 11388, Note_on_c, 3, 56, 0
1, 11412, Note_on_c, 9, 42, 40
1, 11416, Note_on_c, 9, 42, 0
1, 11424, Note_on_c, 9, 39, 65
1, 11424, Note_on_c, 9, 37, 64
1, 11424, Note_on_c, 9, 42, 50
1, 11428, Note_on_c, 9, 42, 0
1, 11428, Note_on_c, 9, 37, 0
1, 11428, Note_on_c, 3, 46, 0
1, 11428, Note_on_c, 3, 56, 88
1, 11448, Note_on_c, 9, 39, 0
1, 11460, Note_on_c, 9, 42, 40
1, 11462, Note_on_c, 2, 58, 0
1, 11464, Note_on_c, 9, 42, 0
1, 11472, Note_on_c, 9, 42, 50
1, 11473, Note_on_c, 3, 58, 68
1, 11476, Note_on_c, 9, 42, 0
1, 11478, Note_on_c, 5, 62, 0
1, 11478, Note_on_c, 3, 56, 0
1, 11484, Note_on_c, 4, 50, 0
1, 11508, Note_on_c, 9, 42, 40
1, 11512, Note_on_c, 9, 42, 0
1, 11515, Note_on_c, 1, 39, 112
1, 11520, Note_on_c, 9, 35, 96
1, 11520, Note_on_c, 9, 42, 50
1, 11521, Note_on_c, 4, 39, 112
1, 11522, Note_on_c, 3, 62, 100
1, 11524, Note_on_c, 9, 42, 0
1, 11525, Note_on_c, 3, 58, 0
1, 11544, Note_on_c, 9, 35, 0
1, 11556, Note_on_c, 9, 42, 32
1, 11560, Note_on_c, 9, 42, 0
1, 11568, Note_on_c, 9, 42, 50
1, 11569, Note_on_c, 3, 46, 88
1, 11572, Note_on_c, 9, 42, 0
1, 11576, Note_on_c, 3, 62, 0
1, 11578, Note_on_c, 4, 39, 0
1, 11604, Note_on_c, 9, 42, 40
1, 11608, Note_on_c, 9, 42, 0
1, 11614, Note_on_c, 2, 55, 125
1, 11616, Note_on_c, 9, 37, 56
1, 11616, Note_on_c, 9, 42, 50
1, 11616, Note_on_c, 9, 39, 75
1, 11617, Note_on_c, 4, 37, 112
1, 11618, Note_on_c, 1, 37, 100
1, 11620, Note_on_c, 9, 42, 0
1, 11620, Note_on_c, 9, 37, 0
1, 11620, Note_on_c, 3, 56, 100
1, 11621, Note_on_c, 1, 39, 0
1, 11624, Note_on_c, 3, 46, 0
1, 11640, Note_on_c, 9, 39, 0
1, 11646, Note_on_c, 2, 56, 100
1, 11649, Note_on_c, 2, 55, 0
1, 11652, Note_on_c, 9, 42, 40
1, 11656, Note_on_c, 9, 42, 0
1, 11660, Note_on_c, 2, 63, 77
1, 11664, Note_on_c, 9, 42, 51
1, 11667, Note_on_c, 3, 56, 0
1, 11667, Note_on_c, 3, 46, 77
1, 11668, Note_on_c, 9, 42, 0
1, 11670, Note_on_c, 2, 56, 0
1, 11672, Note_on_c, 4, 37, 0
1, 11687, Note_on_c, 1, 37, 0
1, 11690, Note_on_c, 2, 63, 0
1, 11690, Note_on_c, 1, 34, 100
1, 11691, Note_on_c, 4, 34, 100
1, 11692, Note_on_c, 2, 56, 88
1, 11692, Note_on_c, 3, 56, 88
1, 11698, Note_on_c, 3, 46, 0
1, 11700, Note_on_c, 9, 42, 32
1, 11704, Note_on_c, 9, 42, 0
1, 11712, Note_on_c, 1, 34, 0
1, 11712, Note_on_c, 9, 42, 50
1, 11712, Note_on_c, 9, 35, 96
1, 11716, Note_on_c, 9, 42, 0
1, 11728, Note_on_c, 4, 34, 0
1, 11736, Note_on_c, 9, 35, 0
1, 11748, Note_on_c, 9, 42, 40
1, 11752, Note_on_c, 9, 42, 0
1, 11760, Note_on_c, 9, 42, 50
1, 11763, Note_on_c, 2, 56, 0
1, 11763, Note_on_c, 3, 46, 88
1, 11764, Note_on_c, 9, 42, 0
1, 11766, Note_on_c, 3, 56, 0
1, 11766, Note_on_c, 2, 55, 112
1, 11795, Note_on_c, 2, 56, 100
1, 11796, Note_on_c, 9, 42, 40
1, 11798, Note_on_c, 2, 55, 0
1, 11800, Note_on_c, 9, 42, 0
1, 11807, Note_on_c, 3, 56, 100
1, 11808, Note_on_c, 9, 42, 50
1, 11808, Note_on_c, 9, 39, 65
1, 11808, Note_on_c, 9, 37, 64
1, 11809, Note_on_c, 3, 46, 0
1, 11810, Note_on_c, 2, 53, 112
1, 11812, Note_on_c, 9, 42, 0
1, 11812, Note_on_c, 2, 56, 0
1, 11812, Note_on_c, 9, 37, 0
1, 11832, Note_on_c, 9, 39, 0
1, 11843, Note_on_c, 3, 56, 0
1, 11844, Note_on_c, 9, 42, 40
1, 11848, Note_on_c, 9, 42, 0
1, 11856, Note_on_c, 9, 42, 50
1, 11857, Note_on_c, 2, 56, 88
1, 11860, Note_on_c, 9, 42, 0
1, 11860, Note_on_c, 3, 56, 100
1, 11862, Note_on_c, 2, 53, 0
1, 11885, Note_on_c, 1, 32, 100
1, 11890, Note_on_c, 2, 58, 77
1, 11891, Note_on_c, 3, 58, 88
1, 11892, Note_on_c, 9, 42, 40
1, 11894, Note_on_c, 3, 56, 0
1, 11895, Note_on_c, 2, 56, 0
1, 11896, Note_on_c, 9, 42, 0
1, 11899, Note_on_c, 1, 34, 100
1, 11904, Note_on_c, 2, 58, 0
1, 11904, Note_on_c, 3, 58, 0
1, 11904, Note_on_c, 9, 35, 96
1, 11904, Note_on_c, 9, 42, 50
1, 11904, Note_on_c, 3, 46, 112
1, 11906, Note_on_c, 1, 32, 0
1, 11906, Note_on_c, 4, 34, 112
1, 11906, Note_on_c, 5, 46, 100
1, 11908, Note_on_c, 9, 42, 0
1, 11927, Note_on_c, 1, 32, 100
1, 11928, Note_on_c, 9, 35, 0
1, 11933, Note_on_c, 1, 34, 0
1, 11934, Note_on_c, 3, 46, 0
1, 11940, Note_on_c, 9, 42, 32
1, 11944, Note_on_c, 9, 42, 0
1, 11947, Note_on_c, 1, 34, 112
1, 11948, Note_on_c, 4, 34, 0
1, 11950, Note_on_c, 1, 32, 0
1, 11951, Note_on_c, 5, 46, 0
1, 11952, Note_on_c, 9, 42, 50
1, 11952, Note_on_c, 3, 46, 77
1, 11956, Note_on_c, 9, 42, 0
1, 11987, Note_on_c, 1, 34, 0
1, 11988, Note_on_c, 9, 42, 40
1, 11992, Note_on_c, 9, 42, 0
1, 11995, Note_on_c, 2, 56, 125
1, 11997, Note_on_c, 5, 53, 112
1, 12000, Note_on_c, 9, 39, 75
1, 12000, Note_on_c, 9, 42, 50
1, 12000, Note_on_c, 9, 37, 56
1, 12000, Note_on_c, 3, 56, 112
1, 12001, Note_on_c, 4, 41, 112
1, 12003, Note_on_c, 3, 46, 0
1, 12004, Note_on_c, 9, 37, 0
1, 12004, Note_on_c, 9, 42, 0
1, 12024, Note_on_c, 9, 39, 0
1, 12025, Note_on_c, 2, 58, 77
1, 12030, Note_on_c, 2, 56, 0
1, 12035, Note_on_c, 4, 41, 0
1, 12036, Note_on_c, 9, 42, 40
1, 12040, Note_on_c, 9, 42, 0
1, 12041, Note_on_c, 2, 62, 88
1, 12042, Note_on_c, 5, 53, 0
1, 12046, Note_on_c, 2, 58, 0
1, 12047, Note_on_c, 3, 56, 0
1, 12047, Note_on_c, 3, 46, 77
1, 12048, Note_on_c, 9, 42, 51
1, 12052, Note_on_c, 9, 42, 0
1, 12072, Note_on_c, 2, 58, 100
1, 12074, Note_on_c, 2, 62, 0
1, 12076, Note_on_c, 3, 56, 88
1, 12084, Note_on_c, 9, 42, 32
1, 12086, Note_on_c, 3, 46, 0
1, 12088, Note_on_c, 9, 42, 0
1, 12091, Note_on_c, 4, 49, 100
1, 12092, Note_on_c, 5, 62, 125
1, 12094, Note_on_c, 4, 50, 100
1, 12096, Note_on_c, 9, 35, 96
1, 12096, Note_on_c, 9, 42, 50
1, 12100, Note_on_c, 9, 42, 0
1, 12104, Note_on_c, 4, 49, 0
1, 12120, Note_on_c, 9, 35, 0
1, 12132, Note_on_c, 9, 42, 40
1, 12136, Note_on_c, 9, 42, 0
1, 12144, Note_on_c, 9, 42, 50
1, 12148, Note_on_c, 9, 42, 0
1, 12150, Note_on_c, 3, 46, 100
1, 12156, Note_on_c, 3, 56, 0
1, 12180, Note_on_c, 9, 42, 40
1, 12184, Note_on_c, 9, 42, 0
1, 12192, Note_on_c, 9, 39, 65
1, 12192, Note_on_c, 9, 37, 64
1, 12192, Note_on_c, 9, 42, 50
1, 12196, Note_on_c, 9, 42, 0
1, 12196, Note_on_c, 9, 37, 0
1, 12196, Note_on_c, 3, 46, 0
1, 12196, Note_on_c, 3, 56, 88
1, 12216, Note_on_c, 9, 39, 0
1, 12228, Note_on_c, 9, 42, 40
1, 12230, Note_on_c, 2, 58, 0
1, 12232, Note_on_c, 9, 42, 0
1, 12240, Note_on_c, 9, 42, 50
1, 12241, Note_on_c, 3, 58, 68
1, 12244, Note_on_c, 9, 42, 0
1, 12246, Note_on_c, 5, 62, 0
1, 12246, Note_on_c, 3, 56, 0
1, 12252, Note_on_c, 4, 50, 0
1, 12276, Note_on_c, 9, 42, 40
1, 12280, Note_on_c, 9, 42, 0
1, 12283, Note_on_c, 1, 39, 112
1, 12288, Note_on_c, 9, 35, 96
1, 12288, Note_on_c, 9, 42, 50
1, 12289, Note_on_c, 4, 39, 112
1, 12290, Note_on_c, 3, 62, 100
1, 12292, Note_on_c, 9, 42, 0
1, 12293, Note_on_c, 3, 58, 0
1, 12312, Note_on_c, 9, 35, 0
1, 12324, Note_on_c, 9, 42, 32
1, 12328, Note_on_c, 9, 42, 0
1, 12336, Note_on_c, 9, 42, 50
1, 12337, Note_on_c, 3, 46, 88
1, 12340, Note_on_c, 9, 42, 0
1, 12344, Note_on_c, 3, 62, 0
1, 12346, Note_on_c, 4, 39, 0
1, 12372, Note_on_c, 9, 42, 40
1, 12376, Note_on_c, 9, 42, 0
1, 12382, Note_on_c, 2, 55, 125
1, 12384, Note_on_c, 9, 39, 75
1, 12384, Note_on_c, 9, 37, 56
1, 12384, Note_on_c, 9, 42, 50
1, 12385, Note_on_c, 4, 37, 112
1, 12386, Note_on_c, 1, 37, 100
1, 12388, Note_on_c, 9, 42, 0
1, 12388, Note_on_c, 9, 37, 0
1, 12388, Note_on_c, 3, 56, 100
1, 12389, Note_on_c, 1, 39, 0
1, 12392, Note_on_c, 3, 46, 0
1, 12408, Note_on_c, 9, 39, 0
1, 12414, Note_on_c, 2, 56, 100
1, 12417, Note_on_c, 2, 55, 0
1, 12420, Note_on_c, 9, 42, 40
1, 12424, Note_on_c, 9, 42, 0
1, 12428, Note_on_c, 2, 63, 77
1, 12432, Note_on_c, 9, 42, 51
1, 12435, Note_on_c, 3, 56, 0
1, 12435, Note_on_c, 3, 46, 77
1, 12436, Note_on_c, 9, 42, 0
1, 12438, Note_on_c, 2, 56, 0
1, 12440, Note_on_c, 4, 37, 0
1, 12455, Note_on_c, 1, 37, 0
1, 12458, Note_on_c, 2, 63, 0
1, 12458, Note_on_c, 1, 34, 100
1, 12459, Note_on_c, 4, 34, 100
1, 12460, Note_on_c, 2, 56, 88
1, 12460, Note_on_c, 3, 56, 88
1, 12466, Note_on_c, 3, 46, 0
1, 12468, Note_on_c, 9, 42, 32
1, 12472, Note_on_c, 9, 42, 0
1, 12480, Note_on_c, 1, 34, 0
1, 12480, Note_on_c, 6, 60, 0
1, 12480, Note_on_c, 9, 42, 50
1, 12480, Note_on_c, 9, 35, 96
1, 12484, Note_on_c, 9, 42, 0
1, 12496, Note_on_c, 4, 34, 0
1, 12504, Note_on_c, 9, 35, 0
1, 12516, Note_on_c, 9, 42, 40
1, 12520, Note_on_c, 9, 42, 0
1, 12528, Note_on_c, 9, 42, 50
1, 12531, Note_on_c, 2, 56, 0
1, 12531, Note_on_c, 3, 46, 88
1, 12532, Note_on_c, 9, 42, 0
1, 12534, Note_on_c, 3, 56, 0
1, 12534, Note_on_c, 2, 55, 112
1, 12563, Note_on_c, 2, 56, 100
1, 12564, Note_on_c, 9, 42, 40
1, 12566, Note_on_c, 2, 55, 0
1, 12568, Note_on_c, 9, 42, 0
1, 12575, Note_on_c, 3, 56, 100
1, 12576, Note_on_c, 9, 42, 50
1, 12576, Note_on_c, 9, 39, 65
1, 12576, Note_on_c, 9, 37, 64
1, 12577, Note_on_c, 3, 46, 0
1, 12578, Note_on_c, 2, 53, 112
1, 12580, Note_on_c, 9, 42, 0
1, 12580, Note_on_c, 2, 56, 0
1, 12580, Note_on_c, 9, 37, 0
1, 12600, Note_on_c, 9, 39, 0
1, 12611, Note_on_c, 3, 56, 0
1, 12612, Note_on_c, 9, 42, 40
1, 12616, Note_on_c, 9, 42, 0
1, 12624, Note_on_c, 9, 42, 50
1, 12625, Note_on_c, 2, 56, 88
1, 12628, Note_on_c, 9, 42, 0
1, 12628, Note_on_c, 3, 56, 100
1, 12630, Note_on_c, 2, 53, 0
1, 12653, Note_on_c, 1, 32, 100
1, 12658, Note_on_c, 2, 58, 77
1, 12659, Note_on_c, 3, 58, 88
1, 12660, Note_on_c, 9, 42, 40
1, 12662, Note_on_c, 3, 56, 0
1, 12663, Note_on_c, 2, 56, 0
1, 12664, Note_on_c, 9, 42, 0
1, 12667, Note_on_c, 1, 34, 100
1, 12672, Note_on_c, 2, 58, 0
1, 12672, Note_on_c, 3, 58, 0
1, 12672, Note_on_c, 9, 35, 96
1, 12672, Note_on_c, 9, 42, 50
1, 12672, Note_on_c, 3, 46, 112
1, 12674, Note_on_c, 1, 32, 0
1, 12674, Note_on_c, 4, 34, 112
1, 12674, Note_on_c, 5, 46, 100
1, 12676, Note_on_c, 9, 42, 0
1, 12695, Note_on_c, 1, 32, 100
1, 12696, Note_on_c, 9, 35, 0
1, 12701, Note_on_c, 1, 34, 0
1, 12702, Note_on_c, 3, 46, 0
1, 12708, Note_on_c, 9, 42, 32
1, 12712, Note_on_c, 9, 42, 0
1, 12715, Note_on_c, 1, 34, 112
1, 12716, Note_on_c, 4, 34, 0
1, 12718, Note_on_c, 1, 32, 0
1, 12719, Note_on_c, 5, 46, 0
1, 12720, Note_on_c, 9, 42, 50
1, 12720, Note_on_c, 3, 46, 77
1, 12724, Note_on_c, 9, 42, 0
1, 12755, Note_on_c, 1, 34, 0
1, 12756, Note_on_c, 9, 42, 40
1, 12760, Note_on_c, 9, 42, 0
1, 12763, Note_on_c, 2, 56, 125
1, 12765, Note_on_c, 5, 53, 112
1, 12768, Note_on_c, 9, 39, 75
1, 12768, Note_on_c, 9, 37, 56
1, 12768, Note_on_c, 9, 42, 50
1, 12768, Note_on_c, 3, 56, 112
1, 12769, Note_on_c, 4, 41, 112
1, 12771, Note_on_c, 3, 46, 0
1, 12772, Note_on_c, 9, 37, 0
1, 12772, Note_on_c, 9, 42, 0
1, 12792, Note_on_c, 9, 39, 0
1, 12793, Note_on_c, 2, 58, 77
1, 12798, Note_on_c, 2, 56, 0
1, 12803, Note_on_c, 4, 41, 0
1, 12804, Note_on_c, 9, 42, 40
1, 12808, Note_on_c, 9, 42, 0
1, 12809, Note_on_c, 2, 62, 88
1, 12810, Note_on_c, 5, 53, 0
1, 12814, Note_on_c, 2, 58, 0
1, 12815, Note_on_c, 3, 56, 0
1, 12815, Note_on_c, 3, 46, 77
1, 12816, Note_on_c, 9, 42, 51
1, 12820, Note_on_c, 9, 42, 0
1, 12840, Note_on_c, 2, 58, 100
1, 12842, Note_on_c, 2, 62, 0
1, 12844, Note_on_c, 3, 56, 88
1, 12852, Note_on_c, 9, 42, 32
1, 12854, Note_on_c, 3, 46, 0
1, 12856, Note_on_c, 9, 42, 0
1, 12859, Note_on_c, 4, 49, 100
1, 12860, Note_on_c, 5, 62, 125
1, 12862, Note_on_c, 4, 50, 100
1, 12864, Note_on_c, 9, 35, 96
1, 12864, Note_on_c, 9, 42, 50
1, 12868, Note_on_c, 9, 42, 0
1, 12872, Note_on_c, 4, 49, 0
1, 12888, Note_on_c, 9, 35, 0
1, 12900, Note_on_c, 9, 42, 40
1, 12904, Note_on_c, 9, 42, 0
1, 12912, Note_on_c, 9, 42, 50
1, 12916, Note_on_c, 9, 42, 0
1, 12918, Note_on_c, 3, 46, 100
1, 12924, Note_on_c, 3, 56, 0
1, 12948, Note_on_c, 9, 42, 40
1, 12952, Note_on_c, 9, 42, 0
1, 12960, Note_on_c, 9, 42, 50
1, 12960, Note_on_c, 9, 39, 65
1, 12960, Note_on_c, 9, 37, 64
1, 12964, Note_on_c, 9, 37, 0
1, 12964, Note_on_c, 3, 46, 0
1, 12964, Note_on_c, 9, 42, 0
1, 12964, Note_on_c, 3, 56, 88
1, 12984, Note_on_c, 9, 39, 0
1, 12996, Note_on_c, 9, 42, 40
1, 12998, Note_on_c, 2, 58, 0
1, 13000, Note_on_c, 9, 42, 0
1, 13008, Note_on_c, 9, 42, 50
1, 13009, Note_on_c, 3, 58, 68
1, 13012, Note_on_c, 9, 42, 0
1, 13014, Note_on_c, 5, 62, 0
1, 13014, Note_on_c, 3, 56, 0
1, 13020, Note_on_c, 4, 50, 0
1, 13044, Note_on_c, 9, 42, 40
1, 13048, Note_on_c, 9, 42, 0
1, 13051, Note_on_c, 1, 39, 112
1, 13056, Note_on_c, 9, 35, 96
1, 13056, Note_on_c, 9, 42, 50
1, 13057, Note_on_c, 4, 39, 112
1, 13058, Note_on_c, 3, 62, 100
1, 13060, Note_on_c, 9, 42, 0
1, 13061, Note_on_c, 3, 58, 0
1, 13080, Note_on_c, 9, 35, 0
1, 13092, Note_on_c, 9, 42, 32
1, 13096, Note_on_c, 9, 42, 0
1, 13104, Note_on_c, 9, 42, 50
1, 13105, Note_on_c, 3, 46, 88
1, 13108, Note_on_c, 9, 42, 0
1, 13112, Note_on_c, 3, 62, 0
1, 13114, Note_on_c, 4, 39, 0
1, 13140, Note_on_c, 9, 42, 40
1, 13144, Note_on_c, 9, 42, 0
1, 13150, Note_on_c, 2, 55, 125
1, 13152, Note_on_c, 9, 37, 56
1, 13152, Note_on_c, 9, 42, 50
1, 13152, Note_on_c, 9, 39, 75
1, 13153, Note_on_c, 4, 37, 112
1, 13154, Note_on_c, 1, 37, 100
1, 13156, Note_on_c, 9, 42, 0
1, 13156, Note_on_c, 9, 37, 0
1, 13156, Note_on_c, 3, 56, 100
1, 13157, Note_on_c, 1, 39, 0
1, 13160, Note_on_c, 3, 46, 0
1, 13176, Note_on_c, 9, 39, 0
1, 13182, Note_on_c, 2, 56, 100
1, 13185, Note_on_c, 2, 55, 0
1, 13188, Note_on_c, 9, 42, 40
1, 13192, Note_on_c, 9, 42, 0
1, 13196, Note_on_c, 2, 63, 77
1, 13200, Note_on_c, 9, 42, 51
1, 13203, Note_on_c, 3, 56, 0
1, 13203, Note_on_c, 3, 46, 77
1, 13204, Note_on_c, 9, 42, 0
1, 13206, Note_on_c, 2, 56, 0
1, 13208, Note_on_c, 4, 37, 0
1, 13223, Note_on_c, 1, 37, 0
1, 13226, Note_on_c, 2, 63, 0
1, 13226, Note_on_c, 1, 34, 100
1, 13227, Note_on_c, 4, 34, 100
1, 13228, Note_on_c, 2, 56, 88
1, 13228, Note_on_c, 3, 56, 88
1, 13234, Note_on_c, 3, 46, 0
1, 13236, Note_on_c, 9, 42, 32
1, 13240, Note_on_c, 9, 42, 0
1, 13248, Note_on_c, 1, 34, 0
1, 13248, Note_on_c, 9, 35, 96
1, 13248, Note_on_c, 9, 42, 50
1, 13252, Note_on_c, 9, 42, 0
1, 13264, Note_on_c, 4, 34, 0
1, 13272, Note_on_c, 9, 35, 0
1, 13284, Note_on_c, 9, 42, 40
1, 13288, Note_on_c, 9, 42, 0
1, 13296, Note_on_c, 9, 42, 50
1, 13299, Note_on_c, 2, 56, 0
1, 13299, Note_on_c, 3, 46, 88
1, 13300, Note_on_c, 9, 42, 0
1, 13302, Note_on_c, 3, 56, 0
1, 13302, Note_on_c, 2, 55, 112
1, 13331, Note_on_c, 2, 56, 100
1, 13332, Note_on_c, 9, 42, 40
1, 13334, Note_on_c, 2, 55, 0
1, 13336, Note_on_c, 9, 42, 0
1, 13343, Note_on_c, 3, 56, 100
1, 13344, Note_on_c, 9, 37, 64
1, 13344, Note_on_c, 9, 39, 65
1, 13344, Note_on_c, 9, 42, 50
1, 13345, Note_on_c, 3, 46, 0
1, 13346, Note_on_c, 2, 53, 112
1, 13348, Note_on_c, 9, 37, 0
1, 13348, Note_on_c, 2, 56, 0
1, 13348, Note_on_c, 9, 42, 0
1, 13368, Note_on_c, 9, 39, 0
1, 13379, Note_on_c, 3, 56, 0
1, 13380, Note_on_c, 9, 42, 40
1, 13384, Note_on_c, 9, 42, 0
1, 13392, Note_on_c, 9, 42, 50
1, 13393, Note_on_c, 2, 56, 88
1, 13396, Note_on_c, 9, 42, 0
1, 13396, Note_on_c, 3, 56, 100
1, 13398, Note_on_c, 2, 53, 0
1, 13421, Note_on_c, 1, 32, 100
1, 13426, Note_on_c, 2, 58, 77
1, 13427, Note_on_c, 3, 58, 88
1, 13428, Note_on_c, 9, 42, 40
1, 13430, Note_on_c, 3, 56, 0
1, 13431, Note_on_c, 2, 56, 0
1, 13432, Note_on_c, 9, 42, 0
1, 13435, Note_on_c, 1, 34, 100
1, 13440, Note_on_c, 2, 58, 0
1, 13440, Note_on_c, 3, 58, 0
1, 13440, Note_on_c, 9, 35, 96
1, 13440, Note_on_c, 9, 42, 50
1, 13440, Note_on_c, 3, 46, 112
1, 13442, Note_on_c, 1, 32, 0
1, 13442, Note_on_c, 4, 34, 112
1, 13442, Note_on_c, 5, 46, 100
1, 13444, Note_on_c, 9, 42, 0
1, 13463, Note_on_c, 1, 32, 100
1, 13464, Note_on_c, 9, 35, 0
1, 13469, Note_on_c, 1, 34, 0
1, 13470, Note_on_c, 3, 46, 0
1, 13476, Note_on_c, 9, 42, 32
1, 13480, Note_on_c, 9, 42, 0
1, 13483, Note_on_c, 1, 34, 112
1, 13484, Note_on_c, 4, 34, 0
1, 13486, Note_on_c, 1, 32, 0
1, 13487, Note_on_c, 5, 46, 0
1, 13488, Note_on_c, 9, 42, 50
1, 13488, Note_on_c, 3, 46, 77
1, 13492, Note_on_c, 9, 42, 0
1, 13523, Note_on_c, 1, 34, 0
1, 13524, Note_on_c, 9, 42, 40
1, 13528, Note_on_c, 9, 42, 0
1, 13531, Note_on_c, 2, 56, 125
1, 13533, Note_on_c, 5, 53, 112
1, 13536, Note_on_c, 9, 42, 50
1, 13536, Note_on_c, 9, 39, 75
1, 13536, Note_on_c, 9, 37, 56
1, 13536, Note_on_c, 3, 56, 112
1, 13537, Note_on_c, 4, 41, 112
1, 13539, Note_on_c, 3, 46, 0
1, 13540, Note_on_c, 9, 42, 0
1, 13540, Note_on_c, 9, 37, 0
1, 13560, Note_on_c, 9, 39, 0
1, 13561, Note_on_c, 2, 58, 77
1, 13566, Note_on_c, 2, 56, 0
1, 13571, Note_on_c, 4, 41, 0
1, 13572, Note_on_c, 9, 42, 40
1, 13576, Note_on_c, 9, 42, 0
1, 13577, Note_on_c, 2, 62, 88
1, 13578, Note_on_c, 5, 53, 0
1, 13582, Note_on_c, 2, 58, 0
1, 13583, Note_on_c, 3, 56, 0
1, 13583, Note_on_c, 3, 46, 77
1, 13584, Note_on_c, 9, 42, 51
1, 13588, Note_on_c, 9, 42, 0
1, 13608, Note_on_c, 2, 58, 100
1, 13610, Note_on_c, 2, 62, 0
1, 13612, Note_on_c, 3, 56, 88
1, 13620, Note_on_c, 9, 42, 32
1, 13622, Note_on_c, 3, 46, 0
1, 13624, Note_on_c, 9, 42, 0
1, 13627, Note_on_c, 4, 49, 100
1, 13628, Note_on_c, 5, 62, 125
1, 13630, Note_on_c, 4, 50, 100
1, 13632, Note_on_c, 9, 42, 50
1, 13632, Note_on_c, 9, 35, 96
1, 13636, Note_on_c, 9, 42, 0
1, 13640, Note_on_c, 4, 49, 0
1, 13656, Note_on_c, 9, 35, 0
1, 13668, Note_on_c, 9, 42, 40
1, 13672, Note_on_c, 9, 42, 0
1, 13680, Note_on_c, 9, 42, 50
1, 13684, Note_on_c, 9, 42, 0
1, 13686, Note_on_c, 3, 46, 100
1, 13692, Note_on_c, 3, 56, 0
1, 13716, Note_on_c, 9, 42, 40
1, 13720, Note_on_c, 9, 42, 0
1, 13728, Note_on_c, 9, 37, 64
1, 13728, Note_on_c, 9, 42, 50
1, 13728, Note_on_c, 9, 39, 65
1, 13732, Note_on_c, 9, 42, 0
1, 13732, Note_on_c, 3, 46, 0
1, 13732, Note_on_c, 9, 37, 0
1, 13732, Note_on_c, 3, 56, 88
1, 13752, Note_on_c, 9, 39, 0
1, 13764, Note_on_c, 9, 42, 40
1, 13766, Note_on_c, 2, 58, 0
1, 13768, Note_on_c, 9, 42, 0
1, 13776, Note_on_c, 9, 42, 50
1, 13777, Note_on_c, 3, 58, 68
1, 13780, Note_on_c, 9, 42, 0
1, 13782, Note_on_c, 5, 62, 0
1, 13782, Note_on_c, 3, 56, 0
1, 13788, Note_on_c, 4, 50, 0
1, 13812, Note_on_c, 9, 42, 40
1, 13816, Note_on_c, 9, 42, 0
1, 13819, Note_on_c, 1, 39, 112
1, 13824, Note_on_c, 9, 42, 50
1, 13824, Note_on_c, 9, 35, 96
1, 13825, Note_on_c, 4, 39, 112
1, 13826, Note_on_c, 3, 62, 100
1, 13828, Note_on_c, 9, 42, 0
1, 13829, Note_on_c, 3, 58, 0
1, 13848, Note_on_c, 9, 35, 0
1, 13860, Note_on_c, 9, 42, 32
1, 13864, Note_on_c, 9, 42, 0
1, 13872, Note_on_c, 9, 42, 50
1, 13873, Note_on_c, 3, 46, 88
1, 13876, Note_on_c, 9, 42, 0
1, 13880, Note_on_c, 3, 62, 0
1, 13882, Note_on_c, 4, 39, 0
1, 13908, Note_on_c, 9, 42, 40
1, 13912, Note_on_c, 9, 42, 0
1, 13918, Note_on_c, 2, 55, 125
1, 13920, Note_on_c, 9, 37, 56
1, 13920, Note_on_c, 9, 42, 50
1, 13920, Note_on_c, 9, 39, 75
1, 13921, Note_on_c, 4, 37, 112
1, 13922, Note_on_c, 1, 37, 100
1, 13924, Note_on_c, 9, 42, 0
1, 13924, Note_on_c, 9, 37, 0
1, 13924, Note_on_c, 3, 56, 100
1, 13925, Note_on_c, 1, 39, 0
1, 13928, Note_on_c, 3, 46, 0
1, 13944, Note_on_c, 9, 39, 0
1, 13950, Note_on_c, 2, 56, 100
1, 13953, Note_on_c, 2, 55, 0
1, 13956, Note_on_c, 9, 42, 40
1, 13960, Note_on_c, 9, 42, 0
1, 13964, Note_on_c, 2, 63, 77
1, 13968, Note_on_c, 9, 42, 51
1, 13971, Note_on_c, 3, 56, 0
1, 13971, Note_on_c, 3, 46, 77
1, 13972, Note_on_c, 9, 42, 0
1, 13974, Note_on_c, 2, 56, 0
1, 13976, Note_on_c, 4, 37, 0
1, 13991, Note_on_c, 1, 37, 0
1, 13994, Note_on_c, 2, 63, 0
1, 13994, Note_on_c, 1, 34, 100
1, 13995, Note_on_c, 4, 34, 100
1, 13996, Note_on_c, 2, 56, 88
1, 13996, Note_on_c, 3, 56, 88
1, 14002, Note_on_c, 3, 46, 0
1, 14004, Note_on_c, 9, 42, 32
1, 14008, Note_on_c, 9, 42, 0
1, 14016, Note_on_c, 1, 34, 0
1, 14016, Note_on_c, 9, 35, 96
1, 14016, Note_on_c, 9, 42, 50
1, 14020, Note_on_c, 9, 42, 0
1, 14032, Note_on_c, 4, 34, 0
1, 14040, Note_on_c, 9, 35, 0
1, 14052, Note_on_c, 9, 42, 40
1, 14056, Note_on_c, 9, 42, 0
1, 14064, Note_on_c, 9, 42, 50
1, 14067, Note_on_c, 2, 56, 0
1, 14067, Note_on_c, 3, 46, 88
1, 14068, Note_on_c, 9, 42, 0
1, 14070, Note_on_c, 3, 56, 0
1, 14070, Note_on_c, 2, 55, 112
1, 14099, Note_on_c, 2, 56, 100
1, 14100, Note_on_c, 9, 42, 40
1, 14102, Note_on_c, 2, 55, 0
1, 14104, Note_on_c, 9, 42, 0
1, 14111, Note_on_c, 3, 56, 100
1, 14112, Note_on_c, 9, 42, 50
1, 14112, Note_on_c, 9, 37, 64
1, 14112, Note_on_c, 9, 39, 65
1, 14113, Note_on_c, 3, 46, 0
1, 14114, Note_on_c, 2, 53, 112
1, 14116, Note_on_c, 9, 37, 0
1, 14116, Note_on_c, 2, 56, 0
1, 14116, Note_on_c, 9, 42, 0
1, 14136, Note_on_c, 9, 39, 0
1, 14147, Note_on_c, 3, 56, 0
1, 14148, Note_on_c, 9, 42, 40
1, 14152, Note_on_c, 9, 42, 0
1, 14160, Note_on_c, 9, 42, 50
1, 14161, Note_on_c, 2, 56, 88
1, 14164, Note_on_c, 9, 42, 0
1, 14164, Note_on_c, 3, 56, 100
1, 14166, Note_on_c, 2, 53, 0
1, 14189, Note_on_c, 1, 32, 100
1, 14194, Note_on_c, 2, 58, 77
1, 14195, Note_on_c, 3, 58, 88
1, 14196, Note_on_c, 9, 42, 40
1, 14198, Note_on_c, 3, 56, 0
1, 14199, Note_on_c, 2, 56, 0
1, 14200, Note_on_c, 9, 42, 0
1, 14203, Note_on_c, 1, 34, 100
1, 14208, Note_on_c, 2, 58, 0
1, 14208, Note_on_c, 3, 58, 0
1, 14208, Note_on_c, 9, 35, 96
1, 14208, Note_on_c, 9, 42, 50
1, 14208, Note_on_c, 3, 46, 112
1, 14210, Note_on_c, 1, 32, 0
1, 14210, Note_on_c, 4, 34, 112
1, 14210, Note_on_c, 5, 46, 100
1, 14212, Note_on_c, 9, 42, 0
1, 14231, Note_on_c, 1, 32, 100
1, 14232, Note_on_c, 9, 35, 0
1, 14237, Note_on_c, 1, 34, 0
1, 14238, Note_on_c, 3, 46, 0
1, 14244, Note_on_c, 9, 42, 32
1, 14248, Note_on_c, 9, 42, 0
1, 14251, Note_on_c, 1, 34, 112
1, 14252, Note_on_c, 4, 34, 0
1, 14254, Note_on_c, 1, 32, 0
1, 14255, Note_on_c, 5, 46, 0
1, 14256, Note_on_c, 9, 42, 50
1, 14256, Note_on_c, 3, 46, 77
1, 14260, Note_on_c, 9, 42, 0
1, 14291, Note_on_c, 1, 34, 0
1, 14292, Note_on_c, 9, 42, 40
1, 14296, Note_on_c, 9, 42, 0
1, 14299, Note_on_c, 2, 56, 125
1, 14301, Note_on_c, 5, 53, 112
1, 14304, Note_on_c, 9, 37, 56
1, 14304, Note_on_c, 9, 42, 50
1, 14304, Note_on_c, 9, 39, 75
1, 14304, Note_on_c, 3, 56, 112
1, 14305, Note_on_c, 4, 41, 112
1, 14307, Note_on_c, 3, 46, 0
1, 14308, Note_on_c, 9, 42, 0
1, 14308, Note_on_c, 9, 37, 0
1, 14328, Note_on_c, 9, 39, 0
1, 14329, Note_on_c, 2, 58, 77
1, 14334, Note_on_c, 2, 56, 0
1, 14339, Note_on_c, 4, 41, 0
1, 14340, Note_on_c, 9, 42, 40
1, 14344, Note_on_c, 9, 42, 0
1, 14345, Note_on_c, 2, 62, 88
1, 14346, Note_on_c, 5, 53, 0
1, 14350, Note_on_c, 2, 58, 0
1, 14351, Note_on_c, 3, 56, 0
1, 14351, Note_on_c, 3, 46, 77
1, 14352, Note_on_c, 9, 42, 51
1, 14356, Note_on_c, 9, 42, 0
1, 14376, Note_on_c, 2, 58, 100
1, 14378, Note_on_c, 2, 62, 0
1, 14380, Note_on_c, 3, 56, 88
1, 14388, Note_on_c, 9, 42, 32
1, 14390, Note_on_c, 3, 46, 0
1, 14392, Note_on_c, 9, 42, 0
1, 14395, Note_on_c, 4, 49, 100
1, 14396, Note_on_c, 5, 62, 125
1, 14398, Note_on_c, 4, 50, 100
1, 14400, Note_on_c, 9, 35, 96
1, 14400, Note_on_c, 9, 42, 50
1, 14404, Note_on_c, 9, 42, 0
1, 14408, Note_on_c, 4, 49, 0
1, 14424, Note_on_c, 9, 35, 0
1, 14436, Note_on_c, 9, 42, 40
1, 14440, Note_on_c, 9, 42, 0
1, 14448, Note_on_c, 9, 42, 50
1, 14452, Note_on_c, 9, 42, 0
1, 14454, Note_on_c, 3, 46, 100
1, 14460, Note_on_c, 3, 56, 0
1, 14484, Note_on_c, 9, 42, 40
1, 14488, Note_on_c, 9, 42, 0
1, 14496, Note_on_c, 9, 37, 64
1, 14496, Note_on_c, 9, 39, 65
1, 14496, Note_on_c, 9, 42, 50
1, 14500, Note_on_c, 9, 42, 0
1, 14500, Note_on_c, 3, 46, 0
1, 14500, Note_on_c, 9, 37, 0
1, 14500, Note_on_c, 3, 56, 88
1, 14520, Note_on_c, 9, 39, 0
1, 14532, Note_on_c, 9, 42, 40
1, 14534, Note_on_c, 2, 58, 0
1, 14536, Note_on_c, 9, 42, 0
1, 14544, Note_on_c, 9, 42, 50
1, 14545, Note_on_c, 3, 58, 68
1, 14548, Note_on_c, 9, 42, 0
1, 14550, Note_on_c, 5, 62, 0
1, 14550, Note_on_c, 3, 56, 0
1, 14556, Note_on_c, 4, 50, 0
1, 14580, Note_on_c, 9, 42, 40
1, 14584, Note_on_c, 9, 42, 0
1, 14587, Note_on_c, 1, 39, 112
1, 14592, Note_on_c, 9, 42, 50
1, 14592, Note_on_c, 9, 35, 96
1, 14593, Note_on_c, 4, 39, 112
1, 14594, Note_on_c, 3, 62, 100
1, 14596, Note_on_c, 9, 42, 0
1, 14597, Note_on_c, 3, 58, 0
1, 14616, Note_on_c, 9, 35, 0
1, 14628, Note_on_c, 9, 42, 32
1, 14632, Note_on_c, 9, 42, 0
1, 14640, Note_on_c, 9, 42, 50
1, 14641, Note_on_c, 3, 46, 88
1, 14644, Note_on_c, 9, 42, 0
1, 14648, Note_on_c, 3, 62, 0
1, 14650, Note_on_c, 4, 39, 0
1, 14676, Note_on_c, 9, 42, 40
1, 14680, Note_on_c, 9, 42, 0
1, 14686, Note_on_c, 2, 55, 125
1, 14688, Note_on_c, 9, 39, 75
1, 14688, Note_on_c, 9, 42, 50
1, 14688, Note_on_c, 9, 37, 56
1, 14689, Note_on_c, 4, 37, 112
1, 14690, Note_on_c, 1, 37, 100
1, 14692, Note_on_c, 9, 37, 0
1, 14692, Note_on_c, 9, 42, 0
1, 14692, Note_on_c, 3, 56, 100
1, 14693, Note_on_c, 1, 39, 0
1, 14696, Note_on_c, 3, 46, 0
1, 14712, Note_on_c, 9, 39, 0
1, 14718, Note_on_c, 2, 56, 100
1, 14721, Note_on_c, 2, 55, 0
1, 14724, Note_on_c, 9, 42, 40
1, 14728, Note_on_c, 9, 42, 0
1, 14732, Note_on_c, 2, 63, 77
1, 14736, Note_on_c, 9, 42, 51
1, 14739, Note_on_c, 3, 56, 0
1, 14739, Note_on_c, 3, 46, 77
1, 14740, Note_on_c, 9, 42, 0
1, 14742, Note_on_c, 2, 56, 0
1, 14744, Note_on_c, 4, 37, 0
1, 14759, Note_on_c, 1, 37, 0
1, 14762, Note_on_c, 2, 63, 0
1, 14762, Note_on_c, 1, 34, 100
1, 14763, Note_on_c, 4, 34, 100
1, 14764, Note_on_c, 2, 56, 88
1, 14764, Note_on_c, 3, 56, 88
1, 14770, Note_on_c, 3, 46, 0
1, 14772, Note_on_c, 9, 42, 32
1, 14776, Note_on_c, 9, 42, 0
1, 14784, Note_on_c, 1, 34, 0
1, 14784, Note_on_c, 9, 42, 50
1, 14784, Note_on_c, 9, 35, 96
1, 14788, Note_on_c, 9, 42, 0
1, 14800, Note_on_c, 4, 34, 0
1, 14808, Note_on_c, 9, 35, 0
1, 14820, Note_on_c, 9, 42, 40
1, 14824, Note_on_c, 9, 42, 0
1, 14832, Note_on_c, 9, 42, 50
1, 14835, Note_on_c, 2, 56, 0
1, 14835, Note_on_c, 3, 46, 88
1, 14836, Note_on_c, 9, 42, 0
1, 14838, Note_on_c, 3, 56, 0
1, 14838, Note_on_c, 2, 55, 112
1, 14867, Note_on_c, 2, 56, 100
1, 14868, Note_on_c, 9, 42, 40
1, 14870, Note_on_c, 2, 55, 0
1, 14872, Note_on_c, 9, 42, 0
1, 14879, Note_on_c, 3, 56, 100
1, 14880, Note_on_c, 9, 42, 50
1, 14880, Note_on_c, 9, 39, 65
1, 14880, Note_on_c, 9, 37, 64
1, 14881, Note_on_c, 3, 46, 0
1, 14882, Note_on_c, 2, 53, 112
1, 14884, Note_on_c, 9, 42, 0
1, 14884, Note_on_c, 2, 56, 0
1, 14884, Note_on_c, 9, 37, 0
1, 14904, Note_on_c, 9, 39, 0
1, 14915, Note_on_c, 3, 56, 0
1, 14916, Note_on_c, 9, 42, 40
1, 14920, Note_on_c, 9, 42, 0
1, 14928, Note_on_c, 9, 42, 50
1, 14929, Note_on_c, 2, 56, 88
1, 14932, Note_on_c, 9, 42, 0
1, 14932, Note_on_c, 3, 56, 100
1, 14934, Note_on_c, 2, 53, 0
1, 14957, Note_on_c, 1, 32, 100
1, 14962, Note_on_c, 2, 58, 77
1, 14963, Note_on_c, 3, 58, 88
1, 14964, Note_on_c, 9, 42, 40
1, 14966, Note_on_c, 3, 56, 0
1, 14967, Note_on_c, 2, 56, 0
1, 14968, Note_on_c, 9, 42, 0
1, 14971, Note_on_c, 1, 34, 100
1, 14976, Note_on_c, 2, 58, 0
1, 14976, Note_on_c, 3, 58, 0
1, 14976, Note_on_c, 9, 42, 50
1, 14976, Note_on_c, 9, 35, 96
1, 14976, Note_on_c, 3, 46, 112
1, 14978, Note_on_c, 1, 32, 0
1, 14978, Note_on_c, 4, 34, 112
1, 14978, Note_on_c, 5, 46, 100
1, 14980, Note_on_c, 9, 42, 0
1, 14999, Note_on_c, 1, 32, 100
1, 15000, Note_on_c, 9, 35, 0
1, 15005, Note_on_c, 1, 34, 0
1, 15006, Note_on_c, 3, 46, 0
1, 15012, Note_on_c, 9, 42, 32
1, 15016, Note_on_c, 9, 42, 0
1, 15019, Note_on_c, 1, 34, 112
1, 15020, Note_on_c, 4, 34, 0
1, 15022, Note_on_c, 1, 32, 0
1, 15023, Note_on_c, 5, 46, 0
1, 15024, Note_on_c, 9, 42, 50
1, 15024, Note_on_c, 3, 46, 77
1, 15028, Note_on_c, 9, 42, 0
1, 15059, Note_on_c, 1, 34, 0
1, 15060, Note_on_c, 9, 42, 40
1, 15064, Note_on_c, 9, 42, 0
1, 15067, Note_on_c, 2, 56, 125
1, 15069, Note_on_c, 5, 53, 112
1, 15072, Note_on_c, 9, 39, 75
1, 15072, Note_on_c, 9, 42, 50
1, 15072, Note_on_c, 9, 37, 56
1, 15072, Note_on_c, 3, 56, 112
1, 15073, Note_on_c, 4, 41, 112
1, 15075, Note_on_c, 3, 46, 0
1, 15076, Note_on_c, 9, 42, 0
1, 15076, Note_on_c, 9, 37, 0
1, 15096, Note_on_c, 9, 39, 0
1, 15097, Note_on_c, 2, 58, 77
1, 15102, Note_on_c, 2, 56, 0
1, 15107, Note_on_c, 4, 41, 0
1, 15108, Note_on_c, 9, 42, 40
1, 15112, Note_on_c, 9, 42, 0
1, 15113, Note_on_c, 2, 62, 88
1, 15114, Note_on_c, 5, 53, 0
1, 15118, Note_on_c, 2, 58, 0
1, 15119, Note_on_c, 3, 56, 0
1, 15119, Note_on_c, 3, 46, 77
1, 15120, Note_on_c, 9, 42, 51
1, 15124, Note_on_c, 9, 42, 0
1, 15144, Note_on_c, 2, 58, 100
1, 15146, Note_on_c, 2, 62, 0
1, 15148, Note_on_c, 3, 56, 88
1, 15156, Note_on_c, 9, 42, 32
1, 15158, Note_on_c, 3, 46, 0
1, 15160, Note_on_c, 9, 42, 0
1, 15163, Note_on_c, 4, 49, 100
1, 15164, Note_on_c, 5, 62, 125
1, 15166, Note_on_c, 4, 50, 100
1, 15168, Note_on_c, 9, 42, 50
1, 15168, Note_on_c, 9, 35, 96
1, 15172, Note_on_c, 9, 42, 0
1, 15176, Note_on_c, 4, 49, 0
1, 15192, Note_on_c, 9, 35, 0
1, 15204, Note_on_c, 9, 42, 40
1, 15208, Note_on_c, 9, 42, 0
1, 15216, Note_on_c, 9, 42, 50
1, 15220, Note_on_c, 9, 42, 0
1, 15222, Note_on_c, 3, 46, 100
1, 15228, Note_on_c, 3, 56, 0
1, 15252, Note_on_c, 9, 42, 40
1, 15256, Note_on_c, 9, 42, 0
1, 15264, Note_on_c, 9, 37, 64
1, 15264, Note_on_c, 9, 39, 65
1, 15264, Note_on_c, 9, 42, 50
1, 15268, Note_on_c, 9, 42, 0
1, 15268, Note_on_c, 3, 46, 0
1, 15268, Note_on_c, 9, 37, 0
1, 15268, Note_on_c, 3, 56, 88
1, 15288, Note_on_c, 9, 39, 0
1, 15300, Note_on_c, 9, 42, 40
1, 15302, Note_on_c, 2, 58, 0
1, 15304, Note_on_c, 9, 42, 0
1, 15312, Note_on_c, 9, 42, 50
1, 15313, Note_on_c, 3, 58, 68
1, 15316, Note_on_c, 9, 42, 0
1, 15318, Note_on_c, 5, 62, 0
1, 15318, Note_on_c, 3, 56, 0
1, 15324, Note_on_c, 4, 50, 0
1, 15348, Note_on_c, 9, 42, 40
1, 15352, Note_on_c, 9, 42, 0
1, 15355, Note_on_c, 1, 39, 112
1, 15360, Note_on_c, 9, 42, 50
1, 15360, Note_on_c, 9, 35, 96
1, 15361, Note_on_c, 4, 39, 112
1, 15362, Note_on_c, 3, 62, 100
1, 15364, Note_on_c, 9, 42, 0
1, 15365, Note_on_c, 3, 58, 0
1, 15384, Note_on_c, 9, 35, 0
1, 15396, Note_on_c, 9, 42, 32
1, 15400, Note_on_c, 9, 42, 0
1, 15408, Note_on_c, 9, 42, 50
1, 15409, Note_on_c, 3, 46, 88
1, 15412, Note_on_c, 9, 42, 0
1, 15416, Note_on_c, 3, 62, 0
1, 15418, Note_on_c, 4, 39, 0
1, 15444, Note_on_c, 9, 42, 40
1, 15448, Note_on_c, 9, 42, 0
1, 15454, Note_on_c, 2, 55, 125
1, 15456, Note_on_c, 9, 37, 56
1, 15456, Note_on_c, 9, 39, 75
1, 15456, Note_on_c, 9, 42, 50
1, 15457, Note_on_c, 4, 37, 112
1, 15458, Note_on_c, 1, 37, 100
1, 15460, Note_on_c, 9, 42, 0
1, 15460, Note_on_c, 9, 37, 0
1, 15460, Note_on_c, 3, 56, 100
1, 15461, Note_on_c, 1, 39, 0
1, 15464, Note_on_c, 3, 46, 0
1, 15480, Note_on_c, 9, 39, 0
1, 15486, Note_on_c, 2, 56, 100
1, 15489, Note_on_c, 2, 55, 0
1, 15492, Note_on_c, 9, 42, 40
1, 15496, Note_on_c, 9, 42, 0
1, 15500, Note_on_c, 2, 63, 77
1, 15504, Note_on_c, 9, 42, 51
1, 15507, Note_on_c, 3, 56, 0
1, 15507, Note_on_c, 3, 46, 77
1, 15508, Note_on_c, 9, 42, 0
1, 15510, Note_on_c, 2, 56, 0
1, 15512, Note_on_c, 4, 37, 0
1, 15527, Note_on_c, 1, 37, 0
1, 15530, Note_on_c, 2, 63, 0
1, 15530, Note_on_c, 1, 34, 100
1, 15531, Note_on_c, 4, 34, 100
1, 15532, Note_on_c, 2, 56, 88
1, 15532, Note_on_c, 3, 56, 88
1, 15538, Note_on_c, 3, 46, 0
1, 15540, Note_on_c, 9, 42, 32
1, 15544, Note_on_c, 9, 42, 0
1, 15552, Note_on_c, 1, 34, 0
1, 15552, Note_on_c, 9, 35, 96
1, 15552, Note_on_c, 9, 42, 50
1, 15556, Note_on_c, 9, 42, 0
1, 15568, Note_on_c, 4, 34, 0
1, 15576, Note_on_c, 9, 35, 0
1, 15588, Note_on_c, 9, 42, 40
1, 15592, Note_on_c, 9, 42, 0
1, 15600, Note_on_c, 9, 42, 50
1, 15603, Note_on_c, 2, 56, 0
1, 15603, Note_on_c, 3, 46, 88
1, 15604, Note_on_c, 9, 42, 0
1, 15606, Note_on_c, 3, 56, 0
1, 15606, Note_on_c, 2, 55, 112
1, 15635, Note_on_c, 2, 56, 100
1, 15636, Note_on_c, 9, 42, 40
1, 15638, Note_on_c, 2, 55, 0
1, 15640, Note_on_c, 9, 42, 0
1, 15647, Note_on_c, 3, 56, 100
1, 15648, Note_on_c, 9, 42, 50
1, 15648, Note_on_c, 9, 39, 65
1, 15648, Note_on_c, 9, 37, 64
1, 15649, Note_on_c, 3, 46, 0
1, 15650, Note_on_c, 2, 53, 112
1, 15652, Note_on_c, 9, 42, 0
1, 15652, Note_on_c, 2, 56, 0
1, 15652, Note_on_c, 9, 37, 0
1, 15672, Note_on_c, 9, 39, 0
1, 15683, Note_on_c, 3, 56, 0
1, 15684, Note_on_c, 9, 42, 40
1, 15688, Note_on_c, 9, 42, 0
1, 15696, Note_on_c, 9, 42, 50
1, 15697, Note_on_c, 2, 56, 88
1, 15700, Note_on_c, 9, 42, 0
1, 15700, Note_on_c, 3, 56, 100
1, 15702, Note_on_c, 2, 53, 0
1, 15725, Note_on_c, 1, 32, 100
1, 15730, Note_on_c, 2, 58, 77
1, 15731, Note_on_c, 3, 58, 88
1, 15732, Note_on_c, 9, 40, 56
1, 15732, Note_on_c, 9, 42, 40
1, 15734, Note_on_c, 3, 56, 0
1, 15735, Note_on_c, 2, 56, 0
1, 15736, Note_on_c, 9, 42, 0
1, 15738, Note_on_c, 9, 40, 104
1, 15739, Note_on_c, 1, 34, 100
1, 15744, Note_on_c, 3, 58, 0
1, 15744, Note_on_c, 2, 58, 0
1, 15744, Note_on_c, 9, 35, 96
1, 15744, Note_on_c, 9, 42, 50
1, 15744, Note_on_c, 9, 40, 127
1, 15744, Note_on_c, 3, 46, 112
1, 15746, Note_on_c, 1, 32, 0
1, 15746, Note_on_c, 4, 34, 112
1, 15746, Note_on_c, 5, 46, 100
1, 15748, Note_on_c, 9, 42, 0
1, 15756, Note_on_c, 9, 40, 0
1, 15762, Note_on_c, 9, 40, 0
1, 15767, Note_on_c, 1, 32, 100
1, 15768, Note_on_c, 9, 35, 0
1, 15768, Note_on_c, 9, 40, 0
1, 15773, Note_on_c, 1, 34, 0
1, 15774, Note_on_c, 3, 46, 0
1, 15780, Note_on_c, 9, 42, 32
1, 15784, Note_on_c, 9, 42, 0
1, 15787, Note_on_c, 1, 34, 112
1, 15788, Note_on_c, 4, 34, 0
1, 15790, Note_on_c, 1, 32, 0
1, 15791, Note_on_c, 5, 46, 0
1, 15792, Note_on_c, 9, 42, 50
1, 15792, Note_on_c, 3, 46, 77
1, 15796, Note_on_c, 9, 42, 0
1, 15827, Note_on_c, 1, 34, 0
1, 15828, Note_on_c, 9, 42, 40
1, 15832, Note_on_c, 9, 42, 0
1, 15835, Note_on_c, 2, 56, 125
1, 15837, Note_on_c, 5, 53, 112
1, 15840, Note_on_c, 9, 42, 50
1, 15840, Note_on_c, 9, 40, 127
1, 15840, Note_on_c, 9, 37, 56
1, 15840, Note_on_c, 9, 39, 75
1, 15840, Note_on_c, 3, 56, 112
1, 15841, Note_on_c, 4, 41, 112
1, 15843, Note_on_c, 3, 46, 0
1, 15844, Note_on_c, 9, 42, 0
1, 15844, Note_on_c, 9, 37, 0
1, 15864, Note_on_c, 9, 40, 0
1, 15864, Note_on_c, 9, 39, 0
1, 15865, Note_on_c, 2, 58, 77
1, 15870, Note_on_c, 2, 56, 0
1, 15875, Note_on_c, 4, 41, 0
1, 15876, Note_on_c, 9, 42, 40
1, 15880, Note_on_c, 9, 42, 0
1, 15881, Note_on_c, 2, 62, 88
1, 15882, Note_on_c, 5, 53, 0
1, 15886, Note_on_c, 2, 58, 0
1, 15887, Note_on_c, 3, 56, 0
1, 15887, Note_on_c, 3, 46, 77
1, 15888, Note_on_c, 9, 42, 51
1, 15892, Note_on_c, 9, 42, 0
1, 15912, Note_on_c, 2, 58, 100
1, 15914, Note_on_c, 2, 62, 0
1, 15916, Note_on_c, 3, 56, 88
1, 15924, Note_on_c, 9, 42, 32
1, 15926, Note_on_c, 3, 46, 0
1, 15928, Note_on_c, 9, 42, 0
1, 15931, Note_on_c, 4, 49, 100
1, 15932, Note_on_c, 5, 62, 125
1, 15934, Note_on_c, 4, 50, 100
1, 15936, Note_on_c, 9, 35, 96
1, 15936, Note_on_c, 9, 42, 50
1, 15940, Note_on_c, 9, 42, 0
1, 15944, Note_on_c, 4, 49, 0
1, 15960, Note_on_c, 9, 35, 0
1, 15972, Note_on_c, 9, 42, 40
1, 15976, Note_on_c, 9, 42, 0
1, 15984, Note_on_c, 9, 42, 50
1, 15988, Note_on_c, 9, 42, 0
1, 15990, Note_on_c, 3, 46, 100
1, 15996, Note_on_c, 3, 56, 0
1, 16020, Note_on_c, 9, 42, 40
1, 16024, Note_on_c, 9, 42, 0
1, 16032, Note_on_c, 9, 39, 65
1, 16032, Note_on_c, 9, 42, 50
1, 16032, Note_on_c, 9, 40, 127
1, 16032, Note_on_c, 9, 37, 64
1, 16036, Note_on_c, 9, 37, 0
1, 16036, Note_on_c, 9, 42, 0
1, 16036, Note_on_c, 3, 46, 0
1, 16036, Note_on_c, 3, 56, 88
1, 16056, Note_on_c, 9, 39, 0
1, 16056, Note_on_c, 9, 40, 0
1, 16068, Note_on_c, 9, 42, 40
1, 16068, Note_on_c, 9, 40, 48
1, 16070, Note_on_c, 2, 58, 0
1, 16072, Note_on_c, 9, 42, 0
1, 16074, Note_on_c, 9, 40, 96
1, 16080, Note_on_c, 9, 42, 50
1, 16080, Note_on_c, 9, 40, 127
1, 16081, Note_on_c, 3, 58, 68
1, 16084, Note_on_c, 9, 42, 0
1, 16086, Note_on_c, 5, 62, 0
1, 16086, Note_on_c, 3, 56, 0
1, 16092, Note_on_c, 9, 40, 0
1, 16092, Note_on_c, 4, 50, 0
1, 16098, Note_on_c, 9, 40, 0
1, 16104, Note_on_c, 9, 40, 0
1, 16116, Note_on_c, 9, 42, 40
1, 16120, Note_on_c, 9, 42, 0
1, 16123, Note_on_c, 1, 39, 112
1, 16128, Note_on_c, 9, 40, 127
1, 16128, Note_on_c, 9, 35, 96
1, 16128, Note_on_c, 9, 42, 50
1, 16129, Note_on_c, 4, 39, 112
1, 16130, Note_on_c, 3, 62, 100
1, 16132, Note_on_c, 9, 42, 0
1, 16133, Note_on_c, 3, 58, 0
1, 16152, Note_on_c, 9, 35, 0
1, 16152, Note_on_c, 9, 40, 0
1, 16164, Note_on_c, 9, 42, 32
1, 16168, Note_on_c, 9, 42, 0
1, 16176, Note_on_c, 9, 42, 50
1, 16177, Note_on_c, 3, 46, 88
1, 16180, Note_on_c, 9, 42, 0
1, 16184, Note_on_c, 3, 62, 0
1, 16186, Note_on_c, 4, 39, 0
1, 16212, Note_on_c, 9, 42, 40
1, 16216, Note_on_c, 9, 42, 0
1, 16222, Note_on_c, 2, 55, 125
1, 16224, Note_on_c, 9, 37, 56
1, 16224, Note_on_c, 9, 42, 50
1, 16224, Note_on_c, 9, 39, 75
1, 16224, Note_on_c, 9, 40, 127
1, 16225, Note_on_c, 4, 37, 112
1, 16226, Note_on_c, 1, 37, 100
1, 16228, Note_on_c, 9, 42, 0
1, 16228, Note_on_c, 9, 37, 0
1, 16228, Note_on_c, 3, 56, 100
1, 16229, Note_on_c, 1, 39, 0
1, 16232, Note_on_c, 3, 46, 0
1, 16248, Note_on_c, 9, 39, 0
1, 16248, Note_on_c, 9, 40, 0
1, 16254, Note_on_c, 2, 56, 100
1, 16257, Note_on_c, 2, 55, 0
1, 16260, Note_on_c, 9, 42, 40
1, 16264, Note_on_c, 9, 42, 0
1, 16268, Note_on_c, 2, 63, 77
1, 16272, Note_on_c, 9, 42, 51
1, 16275, Note_on_c, 3, 56, 0
1, 16275, Note_on_c, 3, 46, 77
1, 16276, Note_on_c, 9, 42, 0
1, 16278, Note_on_c, 2, 56, 0
1, 16280, Note_on_c, 4, 37, 0
1, 16295, Note_on_c, 1, 37, 0
1, 16298, Note_on_c, 2, 63, 0
1, 16298, Note_on_c, 1, 34, 100
1, 16299, Note_on_c, 4, 34, 100
1, 16300, Note_on_c, 2, 56, 88
1, 16300, Note_on_c, 3, 56, 88
1, 16306, Note_on_c, 3, 46, 0
1, 16308, Note_on_c, 9, 42, 32
1, 16312, Note_on_c, 9, 42, 0
1, 16320, Note_on_c, 1, 34, 0
1, 16320, Note_on_c, 9, 35, 96
1, 16320, Note_on_c, 9, 42, 50
1, 16324, Note_on_c, 9, 42, 0
1, 16336, Note_on_c, 4, 34, 0
1, 16344, Note_on_c, 9, 35, 0
1, 16356, Note_on_c, 9, 42, 40
1, 16360, Note_on_c, 9, 42, 0
1, 16368, Note_on_c, 9, 42, 50
1, 16371, Note_on_c, 2, 56, 0
1, 16371, Note_on_c, 3, 46, 88
1, 16372, Note_on_c, 9, 42, 0
1, 16374, Note_on_c, 3, 56, 0
1, 16374, Note_on_c, 2, 55, 112
1, 16403, Note_on_c, 2, 56, 100
1, 16404, Note_on_c, 9, 42, 40
1, 16406, Note_on_c, 2, 55, 0
1, 16408, Note_on_c, 9, 42, 0
1, 16415, Note_on_c, 3, 56, 100
1, 16416, Note_on_c, 9, 37, 64
1, 16416, Note_on_c, 9, 40, 127
1, 16416, Note_on_c, 9, 39, 65
1, 16416, Note_on_c, 9, 42, 50
1, 16417, Note_on_c, 3, 46, 0
1, 16418, Note_on_c, 2, 53, 112
1, 16420, Note_on_c, 9, 37, 0
1, 16420, Note_on_c, 2, 56, 0
1, 16420, Note_on_c, 9, 42, 0
1, 16440, Note_on_c, 9, 40, 0
1, 16440, Note_on_c, 9, 39, 0
1, 16451, Note_on_c, 3, 56, 0
1, 16452, Note_on_c, 9, 42, 40
1, 16456, Note_on_c, 9, 42, 0
1, 16464, Note_on_c, 9, 42, 50
1, 16465, Note_on_c, 2, 56, 88
1, 16468, Note_on_c, 9, 42, 0
1, 16468, Note_on_c, 3, 56, 100
1, 16470, Note_on_c, 2, 53, 0
1, 16493, Note_on_c, 1, 32, 100
1, 16498, Note_on_c, 2, 58, 77
1, 16499, Note_on_c, 3, 58, 88
1, 16500, Note_on_c, 9, 40, 56
1, 16500, Note_on_c, 9, 42, 40
1, 16502, Note_on_c, 3, 56, 0
1, 16503, Note_on_c, 2, 56, 0
1, 16504, Note_on_c, 9, 42, 0
1, 16506, Note_on_c, 9, 40, 104
1, 16507, Note_on_c, 1, 34, 100
1, 16512, Note_on_c, 3, 58, 0
1, 16512, Note_on_c, 2, 58, 0
1, 16512, Note_on_c, 9, 40, 127
1, 16512, Note_on_c, 9, 35, 96
1, 16512, Note_on_c, 9, 42, 50
1, 16512, Note_on_c, 3, 46, 112
1, 16514, Note_on_c, 1, 32, 0
1, 16514, Note_on_c, 4, 34, 112
1, 16514, Note_on_c, 5, 46, 100
1, 16516, Note_on_c, 9, 42, 0
1, 16524, Note_on_c, 9, 40, 0
1, 16530, Note_on_c, 9, 40, 0
1, 16535, Note_on_c, 1, 32, 100
1, 16536, Note_on_c, 9, 40, 0
1, 16536, Note_on_c, 9, 35, 0
1, 16541, Note_on_c, 1, 34, 0
1, 16542, Note_on_c, 3, 46, 0
1, 16548, Note_on_c, 9, 42, 32
1, 16552, Note_on_c, 9, 42, 0
1, 16555, Note_on_c, 1, 34, 112
1, 16556, Note_on_c, 4, 34, 0
1, 16558, Note_on_c, 1, 32, 0
1, 16559, Note_on_c, 5, 46, 0
1, 16560, Note_on_c, 9, 42, 50
1, 16560, Note_on_c, 3, 46, 77
1, 16564, Note_on_c, 9, 42, 0
1, 16595, Note_on_c, 1, 34, 0
1, 16596, Note_on_c, 9, 42, 40
1, 16600, Note_on_c, 9, 42, 0
1, 16603, Note_on_c, 2, 56, 125
1, 16605, Note_on_c, 5, 53, 112
1, 16608, Note_on_c, 9, 40, 127
1, 16608, Note_on_c, 9, 42, 50
1, 16608, Note_on_c, 9, 39, 75
1, 16608, Note_on_c, 9, 37, 56
1, 16608, Note_on_c, 3, 56, 112
1, 16609, Note_on_c, 4, 41, 112
1, 16611, Note_on_c, 3, 46, 0
1, 16612, Note_on_c, 9, 42, 0
1, 16612, Note_on_c, 9, 37, 0
1, 16632, Note_on_c, 9, 40, 0
1, 16632, Note_on_c, 9, 39, 0
1, 16633, Note_on_c, 2, 58, 77
1, 16638, Note_on_c, 2, 56, 0
1, 16643, Note_on_c, 4, 41, 0
1, 16644, Note_on_c, 9, 42, 40
1, 16648, Note_on_c, 9, 42, 0
1, 16649, Note_on_c, 2, 62, 88
1, 16650, Note_on_c, 5, 53, 0
1, 16654, Note_on_c, 2, 58, 0
1, 16655, Note_on_c, 3, 56, 0
1, 16655, Note_on_c, 3, 46, 77
1, 16656, Note_on_c, 9, 42, 51
1, 16660, Note_on_c, 9, 42, 0
1, 16680, Note_on_c, 2, 58, 100
1, 16682, Note_on_c, 2, 62, 0
1, 16684, Note_on_c, 3, 56, 88
1, 16692, Note_on_c, 9, 42, 32
1, 16694, Note_on_c, 3, 46, 0
1, 16696, Note_on_c, 9, 42, 0
1, 16699, Note_on_c, 4, 49, 100
1, 16700, Note_on_c, 5, 62, 125
1, 16702, Note_on_c, 4, 50, 100
1, 16704, Note_on_c, 9, 42, 50
1, 16704, Note_on_c, 9, 35, 96
1, 16708, Note_on_c, 9, 42, 0
1, 16712, Note_on_c, 4, 49, 0
1, 16728, Note_on_c, 9, 35, 0
1, 16740, Note_on_c, 9, 42, 40
1, 16744, Note_on_c, 9, 42, 0
1, 16752, Note_on_c, 9, 42, 50
1, 16756, Note_on_c, 9, 42, 0
1, 16758, Note_on_c, 3, 46, 100
1, 16764, Note_on_c, 3, 56, 0
1, 16788, Note_on_c, 9, 42, 40
1, 16792, Note_on_c, 9, 42, 0
1, 16800, Note_on_c, 9, 37, 64
1, 16800, Note_on_c, 9, 39, 65
1, 16800, Note_on_c, 9, 40, 127
1, 16800, Note_on_c, 9, 42, 50
1, 16804, Note_on_c, 9, 42, 0
1, 16804, Note_on_c, 9, 37, 0
1, 16804, Note_on_c, 3, 46, 0
1, 16804, Note_on_c, 3, 56, 88
1, 16824, Note_on_c, 9, 39, 0
1, 16824, Note_on_c, 9, 40, 0
1, 16836, Note_on_c, 9, 42, 40
1, 16836, Note_on_c, 9, 40, 48
1, 16838, Note_on_c, 2, 58, 0
1, 16840, Note_on_c, 9, 42, 0
1, 16842, Note_on_c, 9, 40, 96
1, 16848, Note_on_c, 9, 42, 50
1, 16848, Note_on_c, 9, 40, 127
1, 16849, Note_on_c, 3, 58, 68
1, 16852, Note_on_c, 9, 42, 0
1, 16854, Note_on_c, 5, 62, 0
1, 16854, Note_on_c, 3, 56, 0
1, 16860, Note_on_c, 9, 40, 0
1, 16860, Note_on_c, 4, 50, 0
1, 16866, Note_on_c, 9, 40, 0
1, 16872, Note_on_c, 9, 40, 0
1, 16884, Note_on_c, 9, 42, 40
1, 16888, Note_on_c, 9, 42, 0
1, 16891, Note_on_c, 1, 39, 112
1, 16896, Note_on_c, 9, 42, 50
1, 16896, Note_on_c, 9, 40, 127
1, 16896, Note_on_c, 9, 35, 96
1, 16897, Note_on_c, 4, 39, 112
1, 16898, Note_on_c, 3, 62, 100
1, 16900, Note_on_c, 9, 42, 0
1, 16901, Note_on_c, 3, 58, 0
1, 16920, Note_on_c, 9, 35, 0
1, 16920, Note_on_c, 9, 40, 0
1, 16932, Note_on_c, 9, 42, 32
1, 16936, Note_on_c, 9, 42, 0
1, 16944, Note_on_c, 9, 42, 50
1, 16945, Note_on_c, 3, 46, 88
1, 16948, Note_on_c, 9, 42, 0
1, 16952, Note_on_c, 3, 62, 0
1, 16954, Note_on_c, 4, 39, 0
1, 16980, Note_on_c, 9, 42, 40
1, 16984, Note_on_c, 9, 42, 0
1, 16990, Note_on_c, 2, 55, 125
1, 16992, Note_on_c, 9, 42, 50
1, 16992, Note_on_c, 9, 37, 56
1, 16992, Note_on_c, 9, 39, 75
1, 16992, Note_on_c, 9, 40, 127
1, 16993, Note_on_c, 4, 37, 112
1, 16994, Note_on_c, 1, 37, 100
1, 16996, Note_on_c, 9, 37, 0
1, 16996, Note_on_c, 9, 42, 0
1, 16996, Note_on_c, 3, 56, 100
1, 16997, Note_on_c, 1, 39, 0
1, 17000, Note_on_c, 3, 46, 0
1, 17016, Note_on_c, 9, 39, 0
1, 17016, Note_on_c, 9, 40, 0
1, 17022, Note_on_c, 2, 56, 100
1, 17025, Note_on_c, 2, 55, 0
1, 17028, Note_on_c, 9, 42, 40
1, 17032, Note_on_c, 9, 42, 0
1, 17036, Note_on_c, 2, 63, 77
1, 17040, Note_on_c, 9, 42, 51
1, 17043, Note_on_c, 3, 56, 0
1, 17043, Note_on_c, 3, 46, 77
1, 17044, Note_on_c, 9, 42, 0
1, 17046, Note_on_c, 2, 56, 0
1, 17048, Note_on_c, 4, 37, 0
1, 17063, Note_on_c, 1, 37, 0
1, 17066, Note_on_c, 2, 63, 0
1, 17066, Note_on_c, 1, 34, 100
1, 17067, Note_on_c, 4, 34, 100
1, 17068, Note_on_c, 2, 56, 88
1, 17068, Note_on_c, 3, 56, 88
1, 17074, Note_on_c, 3, 46, 0
1, 17076, Note_on_c, 9, 42, 32
1, 17080, Note_on_c, 9, 42, 0
1, 17088, Note_on_c, 1, 34, 0
1, 17088, Note_on_c, 9, 35, 96
1, 17088, Note_on_c, 9, 42, 50
1, 17092, Note_on_c, 9, 42, 0
1, 17104, Note_on_c, 4, 34, 0
1, 17112, Note_on_c, 9, 35, 0
1, 17124, Note_on_c, 9, 42, 40
1, 17128, Note_on_c, 9, 42, 0
1, 17136, Note_on_c, 9, 42, 50
1, 17139, Note_on_c, 2, 56, 0
1, 17139, Note_on_c, 3, 46, 88
1, 17140, Note_on_c, 9, 42, 0
1, 17142, Note_on_c, 3, 56, 0
1, 17142, Note_on_c, 2, 55, 112
1, 17171, Note_on_c, 2, 56, 100
1, 17172, Note_on_c, 9, 42, 40
1, 17174, Note_on_c, 2, 55, 0
1, 17176, Note_on_c, 9, 42, 0
1, 17183, Note_on_c, 3, 56, 100
1, 17184, Note_on_c, 9, 37, 64
1, 17184, Note_on_c, 9, 42, 50
1, 17184, Note_on_c, 9, 40, 127
1, 17184, Note_on_c, 9, 39, 65
1, 17185, Note_on_c, 3, 46, 0
1, 17186, Note_on_c, 2, 53, 112
1, 17188, Note_on_c, 9, 42, 0
1, 17188, Note_on_c, 2, 56, 0
1, 17188, Note_on_c, 9, 37, 0
1, 17208, Note_on_c, 9, 40, 0
1, 17208, Note_on_c, 9, 39, 0
1, 17219, Note_on_c, 3, 56, 0
1, 17220, Note_on_c, 9, 42, 40
1, 17224, Note_on_c, 9, 42, 0
1, 17232, Note_on_c, 9, 42, 50
1, 17233, Note_on_c, 2, 56, 88
1, 17236, Note_on_c, 9, 42, 0
1, 17236, Note_on_c, 3, 56, 100
1, 17238, Note_on_c, 2, 53, 0
1, 17266, Note_on_c, 1, 32, 100
1, 17266, Note_on_c, 2, 58, 77
1, 17267, Note_on_c, 3, 58, 88
1, 17268, Note_on_c, 9, 42, 40
1, 17270, Note_on_c, 3, 56, 0
1, 17271, Note_on_c, 2, 56, 0
1, 17272, Note_on_c, 9, 42, 0
1, 17280, Note_on_c, 2, 58, 0
1, 17280, Note_on_c, 3, 58, 0
1, 17280, Note_on_c, 9, 49, 64
1, 17280, Note_on_c, 9, 37, 64
1, 17280, Note_on_c, 9, 39, 65
1, 17280, Note_on_c, 9, 35, 127
1, 17280, Note_on_c, 9, 40, 127
1, 17280, Note_on_c, 1, 34, 100
1, 17280, Note_on_c, 2, 58, 88
1, 17280, Note_on_c, 2, 46, 88
1, 17280, Note_on_c, 3, 58, 88
1, 17280, Note_on_c, 3, 46, 88
1, 17280, Note_on_c, 4, 34, 112
1, 17280, Note_on_c, 5, 46, 100
1, 17280, Note_on_c, 5, 58, 75
1, 17284, Note_on_c, 9, 37, 0
1, 17286, Note_on_c, 1, 32, 0
1, 17304, Note_on_c, 9, 35, 0
1, 17304, Note_on_c, 9, 49, 0
1, 17304, Note_on_c, 9, 39, 0
1, 17304, Note_on_c, 9, 40, 0
1, 17310, Note_on_c, 2, 46, 0
1, 17310, Note_on_c, 3, 46, 0
1, 17313, Note_on_c, 2, 58, 0
1, 17313, Note_on_c, 3, 58, 0
1, 17317, Note_on_c, 1, 34, 0
1, 17317, Note_on_c, 4, 34, 0
1, 17325, Note_on_c, 5, 46, 0
1, 17328, Note_on_c, 5, 58, 0
1, 17328, End_track
0, 0, End_of_file
