0, 0, Header, 1, 6, 960
1, 0, Start_track
1, 0, Control_c, 0, 101, 0
1, 0, Control_c, 0, 100, 0
1, 0, Control_c, 0, 6, 12
1, 0, Control_c, 0, 38, 0
1, 0, Control_c, 1, 101, 0
1, 0, Control_c, 1, 100, 0
1, 0, Control_c, 1, 6, 12
1, 0, Control_c, 1, 38, 0
1, 0, Control_c, 2, 101, 0
1, 0, Control_c, 2, 100, 0
1, 0, Control_c, 2, 6, 12
1, 0, Control_c, 2, 38, 0
1, 0, Control_c, 3, 101, 0
1, 0, Control_c, 3, 100, 0
1, 0, Control_c, 3, 6, 12
1, 0, Control_c, 3, 38, 0
1, 0, Control_c, 4, 101, 0
1, 0, Control_c, 4, 100, 0
1, 0, Control_c, 4, 6, 12
1, 0, Control_c, 4, 38, 0
1, 0, Control_c, 5, 101, 0
1, 0, Control_c, 5, 100, 0
1, 0, Control_c, 5, 6, 12
1, 0, Control_c, 5, 38, 0
1, 0, Control_c, 6, 101, 0
1, 0, Control_c, 6, 100, 0
1, 0, Control_c, 6, 6, 12
1, 0, Control_c, 6, 38, 0
1, 0, Control_c, 7, 101, 0
1, 0, Control_c, 7, 100, 0
1, 0, Control_c, 7, 6, 12
1, 0, Control_c, 7, 38, 0
1, 0, Control_c, 8, 101, 0
1, 0, Control_c, 8, 100, 0
1, 0, Control_c, 8, 6, 12
1, 0, Control_c, 8, 38, 0
1, 0, Control_c, 9, 101, 0
1, 0, Control_c, 9, 100, 0
1, 0, Control_c, 9, 6, 12
1, 0, Control_c, 9, 38, 0
1, 0, Control_c, 10, 101, 0
1, 0, Control_c, 10, 100, 0
1, 0, Control_c, 10, 6, 12
1, 0, Control_c, 10, 38, 0
1, 0, Control_c, 11, 101, 0
1, 0, Control_c, 11, 100, 0
1, 0, Control_c, 11, 6, 12
1, 0, Control_c, 11, 38, 0
1, 0, Control_c, 12, 101, 0
1, 0, Control_c, 12, 100, 0
1, 0, Control_c, 12, 6, 12
1, 0, Control_c, 12, 38, 0
1, 0, Control_c, 13, 101, 0
1, 0, Control_c, 13, 100, 0
1, 0, Control_c, 13, 6, 12
1, 0, Control_c, 13, 38, 0
1, 0, Control_c, 14, 101, 0
1, 0, Control_c, 14, 100, 0
1, 0, Control_c, 14, 6, 12
1, 0, Control_c, 14, 38, 0
1, 0, Control_c, 15, 101, 0
1, 0, Control_c, 15, 100, 0
1, 0, Control_c, 15, 6, 12
1, 0, Control_c, 15, 38, 0
1, 0, Time_signature, 4, 2, 24, 8
1, 0, Tempo, 652173
1, 0, End_track
2, 0, Start_track
2, 0, Pitch_bend_c, 0, 8192
2, 0, Control_c, 0, 7, 71
2, 0, Control_c, 0, 10, 23
2, 0, Control_c, 0, 93, 0
2, 0, Control_c, 0, 91, 0
2, 0, Control_c, 0, 95, 0
2, 0, Control_c, 0, 92, 0
2, 0, Control_c, 0, 11, 127
2, 0, Program_c, 0, 24
2, 0, Control_c, 1, 7, 71
2, 0, Control_c, 1, 10, 23
2, 0, Control_c, 1, 93, 0
2, 0, Control_c, 1, 91, 0
2, 0, Control_c, 1, 95, 0
2, 0, Control_c, 1, 92, 0
2, 0, Control_c, 1, 11, 127
2, 0, Program_c, 1, 24
2, 0, Note_on_c, 0, 40, 95
2, 480, Note_off_c, 0, 40, 95
2, 480, Note_on_c, 0, 64, 95
2, 480, Note_on_c, 0, 59, 95
2, 480, Note_on_c, 0, 56, 95
2, 960, Note_off_c, 0, 64, 95
2, 960, Note_off_c, 0, 59, 95
2, 960, Note_off_c, 0, 56, 95
2, 1440, Note_on_c, 0, 59, 95
2, 1440, Note_on_c, 0, 57, 95
2, 1440, Note_on_c, 0, 49, 95
2, 1920, Note_off_c, 0, 59, 95
2, 1920, Note_off_c, 0, 57, 95
2, 1920, Note_off_c, 0, 49, 95
2, 1920, Note_on_c, 0, 54, 95
2, 2400, Note_off_c, 0, 54, 95
2, 2400, Note_on_c, 0, 57, 95
2, 2880, Note_off_c, 0, 57, 95
2, 2880, Note_on_c, 0, 64, 95
2, 2880, Note_on_c, 0, 59, 95
2, 3360, Note_off_c, 0, 64, 95
2, 3360, Note_off_c, 0, 59, 95
2, 3360, Note_on_c, 0, 57, 95
2, 3840, Note_off_c, 0, 57, 95
2, 3840, Note_on_c, 0, 45, 95
2, 4320, Note_off_c, 0, 45, 95
2, 4320, Note_on_c, 0, 64, 95
2, 4320, Note_on_c, 0, 59, 95
2, 4320, Note_on_c, 0, 57, 95
2, 4800, Note_off_c, 0, 64, 95
2, 4800, Note_off_c, 0, 59, 95
2, 4800, Note_off_c, 0, 57, 95
2, 5280, Note_on_c, 0, 59, 95
2, 5280, Note_on_c, 0, 56, 95
2, 5280, Note_on_c, 0, 40, 95
2, 5760, Note_off_c, 0, 59, 95
2, 5760, Note_off_c, 0, 56, 95
2, 5760, Note_off_c, 0, 40, 95
2, 5760, Note_on_c, 0, 52, 95
2, 6240, Note_off_c, 0, 52, 95
2, 6240, Note_on_c, 0, 56, 95
2, 6720, Note_off_c, 0, 56, 95
2, 6720, Note_on_c, 0, 64, 95
2, 6720, Note_on_c, 0, 59, 95
2, 7200, Note_off_c, 0, 64, 95
2, 7200, Note_off_c, 0, 59, 95
2, 7200, Note_on_c, 0, 56, 95
2, 7680, Note_off_c, 0, 56, 95
2, 7680, Note_on_c, 0, 40, 95
2, 8160, Note_off_c, 0, 40, 95
2, 8160, Note_on_c, 0, 64, 95
2, 8160, Note_on_c, 0, 59, 95
2, 8160, Note_on_c, 0, 56, 95
2, 8640, Note_off_c, 0, 64, 95
2, 8640, Note_off_c, 0, 59, 95
2, 8640, Note_off_c, 0, 56, 95
2, 9120, Note_on_c, 0, 59, 95
2, 9120, Note_on_c, 0, 57, 95
2, 9120, Note_on_c, 0, 49, 95
2, 9600, Note_off_c, 0, 59, 95
2, 9600, Note_off_c, 0, 57, 95
2, 9600, Note_off_c, 0, 49, 95
2, 9600, Note_on_c, 0, 54, 95
2, 10080, Note_off_c, 0, 54, 95
2, 10080, Note_on_c, 0, 57, 95
2, 10560, Note_off_c, 0, 57, 95
2, 10560, Note_on_c, 0, 64, 95
2, 10560, Note_on_c, 0, 59, 95
2, 11040, Note_off_c, 0, 64, 95
2, 11040, Note_off_c, 0, 59, 95
2, 11040, Note_on_c, 0, 57, 95
2, 11520, Note_off_c, 0, 57, 95
2, 11520, Note_on_c, 0, 45, 95
2, 12000, Note_off_c, 0, 45, 95
2, 12000, Note_on_c, 0, 64, 95
2, 12000, Note_on_c, 0, 59, 95
2, 12000, Note_on_c, 0, 57, 95
2, 12480, Note_off_c, 0, 64, 95
2, 12480, Note_off_c, 0, 59, 95
2, 12480, Note_off_c, 0, 57, 95
2, 12960, Note_on_c, 0, 59, 95
2, 12960, Note_on_c, 0, 56, 95
2, 12960, Note_on_c, 0, 40, 95
2, 13440, Note_off_c, 0, 59, 95
2, 13440, Note_off_c, 0, 56, 95
2, 13440, Note_off_c, 0, 40, 95
2, 13440, Note_on_c, 0, 52, 95
2, 13920, Note_off_c, 0, 52, 95
2, 13920, Note_on_c, 0, 56, 95
2, 14400, Note_off_c, 0, 56, 95
2, 14400, Note_on_c, 0, 64, 95
2, 14400, Note_on_c, 0, 59, 95
2, 14880, Note_off_c, 0, 64, 95
2, 14880, Note_off_c, 0, 59, 95
2, 14880, Note_on_c, 0, 56, 95
2, 15360, Note_off_c, 0, 56, 95
2, 15360, Note_on_c, 0, 40, 95
2, 15840, Note_off_c, 0, 40, 95
2, 15840, Note_on_c, 0, 64, 95
2, 15840, Note_on_c, 0, 59, 95
2, 15840, Note_on_c, 0, 56, 95
2, 16320, Note_off_c, 0, 64, 95
2, 16320, Note_off_c, 0, 59, 95
2, 16320, Note_off_c, 0, 56, 95
2, 16800, Note_on_c, 0, 59, 95
2, 16800, Note_on_c, 0, 57, 95
2, 16800, Note_on_c, 0, 49, 95
2, 17280, Note_off_c, 0, 59, 95
2, 17280, Note_off_c, 0, 57, 95
2, 17280, Note_off_c, 0, 49, 95
2, 17280, Note_on_c, 0, 54, 95
2, 17760, Note_off_c, 0, 54, 95
2, 17760, Note_on_c, 0, 57, 95
2, 18240, Note_off_c, 0, 57, 95
2, 18240, Note_on_c, 0, 64, 95
2, 18240, Note_on_c, 0, 59, 95
2, 18720, Note_off_c, 0, 64, 95
2, 18720, Note_off_c, 0, 59, 95
2, 18720, Note_on_c, 0, 57, 95
2, 19200, Note_off_c, 0, 57, 95
2, 19200, Note_on_c, 0, 45, 95
2, 19680, Note_off_c, 0, 45, 95
2, 19680, Note_on_c, 0, 64, 95
2, 19680, Note_on_c, 0, 59, 95
2, 19680, Note_on_c, 0, 57, 95
2, 20160, Note_off_c, 0, 64, 95
2, 20160, Note_off_c, 0, 59, 95
2, 20160, Note_off_c, 0, 57, 95
2, 20640, Note_on_c, 0, 59, 95
2, 20640, Note_on_c, 0, 56, 95
2, 20640, Note_on_c, 0, 40, 95
2, 21120, Note_off_c, 0, 59, 95
2, 21120, Note_off_c, 0, 56, 95
2, 21120, Note_off_c, 0, 40, 95
2, 21120, Note_on_c, 0, 52, 95
2, 21600, Note_off_c, 0, 52, 95
2, 21600, Note_on_c, 0, 56, 95
2, 22080, Note_off_c, 0, 56, 95
2, 22080, Note_on_c, 0, 64, 95
2, 22080, Note_on_c, 0, 59, 95
2, 22560, Note_off_c, 0, 64, 95
2, 22560, Note_off_c, 0, 59, 95
2, 22560, Note_on_c, 0, 56, 95
2, 23040, Note_off_c, 0, 56, 95
2, 23040, Note_on_c, 0, 40, 95
2, 23520, Note_off_c, 0, 40, 95
2, 23520, Note_on_c, 0, 64, 95
2, 23520, Note_on_c, 0, 59, 95
2, 23520, Note_on_c, 0, 56, 95
2, 24000, Note_off_c, 0, 64, 95
2, 24000, Note_off_c, 0, 59, 95
2, 24000, Note_off_c, 0, 56, 95
2, 24480, Note_on_c, 0, 59, 95
2, 24480, Note_on_c, 0, 57, 95
2, 24480, Note_on_c, 0, 49, 95
2, 24960, Note_off_c, 0, 59, 95
2, 24960, Note_off_c, 0, 57, 95
2, 24960, Note_off_c, 0, 49, 95
2, 24960, Note_on_c, 0, 54, 95
2, 25440, Note_off_c, 0, 54, 95
2, 25440, Note_on_c, 0, 57, 95
2, 25920, Note_off_c, 0, 57, 95
2, 25920, Note_on_c, 0, 64, 95
2, 25920, Note_on_c, 0, 59, 95
2, 26400, Note_off_c, 0, 64, 95
2, 26400, Note_off_c, 0, 59, 95
2, 26400, Note_on_c, 0, 57, 95
2, 26880, Note_off_c, 0, 57, 95
2, 26880, Note_on_c, 0, 45, 95
2, 27360, Note_off_c, 0, 45, 95
2, 27360, Note_on_c, 0, 64, 95
2, 27360, Note_on_c, 0, 59, 95
2, 27360, Note_on_c, 0, 57, 95
2, 27840, Note_off_c, 0, 64, 95
2, 27840, Note_off_c, 0, 59, 95
2, 27840, Note_off_c, 0, 57, 95
2, 28320, Note_on_c, 0, 59, 95
2, 28320, Note_on_c, 0, 56, 95
2, 28320, Note_on_c, 0, 40, 95
2, 28800, Note_off_c, 0, 59, 95
2, 28800, Note_off_c, 0, 56, 95
2, 28800, Note_off_c, 0, 40, 95
2, 28800, Note_on_c, 0, 52, 95
2, 29280, Note_off_c, 0, 52, 95
2, 29280, Note_on_c, 0, 56, 95
2, 29760, Note_off_c, 0, 56, 95
2, 29760, Note_on_c, 0, 64, 95
2, 29760, Note_on_c, 0, 59, 95
2, 30240, Note_off_c, 0, 64, 95
2, 30240, Note_off_c, 0, 59, 95
2, 30240, Note_on_c, 0, 56, 95
2, 30720, Note_off_c, 0, 56, 95
2, 30720, Note_on_c, 0, 40, 95
2, 31200, Note_off_c, 0, 40, 95
2, 31200, Note_on_c, 0, 64, 95
2, 31200, Note_on_c, 0, 59, 95
2, 31200, Note_on_c, 0, 56, 95
2, 31680, Note_off_c, 0, 64, 95
2, 31680, Note_off_c, 0, 59, 95
2, 31680, Note_off_c, 0, 56, 95
2, 32160, Note_on_c, 0, 59, 95
2, 32160, Note_on_c, 0, 57, 95
2, 32160, Note_on_c, 0, 49, 95
2, 32640, Note_off_c, 0, 59, 95
2, 32640, Note_off_c, 0, 57, 95
2, 32640, Note_off_c, 0, 49, 95
2, 32640, Note_on_c, 0, 54, 95
2, 33120, Note_off_c, 0, 54, 95
2, 33120, Note_on_c, 0, 57, 95
2, 33600, Note_off_c, 0, 57, 95
2, 33600, Note_on_c, 0, 64, 95
2, 33600, Note_on_c, 0, 59, 95
2, 34080, Note_off_c, 0, 64, 95
2, 34080, Note_off_c, 0, 59, 95
2, 34080, Note_on_c, 0, 57, 95
2, 34560, Note_off_c, 0, 57, 95
2, 34560, Note_on_c, 0, 45, 95
2, 35040, Note_off_c, 0, 45, 95
2, 35040, Note_on_c, 0, 64, 95
2, 35040, Note_on_c, 0, 59, 95
2, 35040, Note_on_c, 0, 57, 95
2, 35520, Note_off_c, 0, 64, 95
2, 35520, Note_off_c, 0, 59, 95
2, 35520, Note_off_c, 0, 57, 95
2, 36000, Note_on_c, 0, 59, 95
2, 36000, Note_on_c, 0, 56, 95
2, 36000, Note_on_c, 0, 40, 95
2, 36480, Note_off_c, 0, 59, 95
2, 36480, Note_off_c, 0, 56, 95
2, 36480, Note_off_c, 0, 40, 95
2, 36480, Note_on_c, 0, 52, 95
2, 36960, Note_off_c, 0, 52, 95
2, 36960, Note_on_c, 0, 56, 95
2, 37440, Note_off_c, 0, 56, 95
2, 37440, Note_on_c, 0, 64, 95
2, 37440, Note_on_c, 0, 59, 95
2, 37920, Note_off_c, 0, 64, 95
2, 37920, Note_off_c, 0, 59, 95
2, 37920, Note_on_c, 0, 56, 95
2, 38400, Note_off_c, 0, 56, 95
2, 38400, Note_on_c, 0, 40, 95
2, 38880, Note_off_c, 0, 40, 95
2, 38880, Note_on_c, 0, 64, 95
2, 38880, Note_on_c, 0, 59, 95
2, 38880, Note_on_c, 0, 56, 95
2, 39360, Note_off_c, 0, 64, 95
2, 39360, Note_off_c, 0, 59, 95
2, 39360, Note_off_c, 0, 56, 95
2, 39840, Note_on_c, 0, 59, 95
2, 39840, Note_on_c, 0, 57, 95
2, 39840, Note_on_c, 0, 49, 95
2, 40320, Note_off_c, 0, 59, 95
2, 40320, Note_off_c, 0, 57, 95
2, 40320, Note_off_c, 0, 49, 95
2, 40320, Note_on_c, 0, 54, 95
2, 40800, Note_off_c, 0, 54, 95
2, 40800, Note_on_c, 0, 57, 95
2, 41280, Note_off_c, 0, 57, 95
2, 41280, Note_on_c, 0, 64, 95
2, 41280, Note_on_c, 0, 59, 95
2, 41760, Note_off_c, 0, 64, 95
2, 41760, Note_off_c, 0, 59, 95
2, 41760, Note_on_c, 0, 57, 95
2, 42240, Note_off_c, 0, 57, 95
2, 42240, Note_on_c, 0, 45, 95
2, 42720, Note_off_c, 0, 45, 95
2, 42720, Note_on_c, 0, 64, 95
2, 42720, Note_on_c, 0, 59, 95
2, 42720, Note_on_c, 0, 57, 95
2, 43200, Note_off_c, 0, 64, 95
2, 43200, Note_off_c, 0, 59, 95
2, 43200, Note_off_c, 0, 57, 95
2, 43680, Note_on_c, 0, 59, 95
2, 43680, Note_on_c, 0, 56, 95
2, 43680, Note_on_c, 0, 40, 95
2, 44160, Note_off_c, 0, 59, 95
2, 44160, Note_off_c, 0, 56, 95
2, 44160, Note_off_c, 0, 40, 95
2, 44160, Note_on_c, 0, 52, 95
2, 44640, Note_off_c, 0, 52, 95
2, 44640, Note_on_c, 0, 56, 95
2, 45120, Note_off_c, 0, 56, 95
2, 45120, Note_on_c, 0, 64, 95
2, 45120, Note_on_c, 0, 59, 95
2, 45600, Note_off_c, 0, 64, 95
2, 45600, Note_off_c, 0, 59, 95
2, 45600, Note_on_c, 0, 56, 95
2, 46080, Note_off_c, 0, 56, 95
2, 46080, Note_on_c, 0, 40, 95
2, 46560, Note_off_c, 0, 40, 95
2, 46560, Note_on_c, 0, 64, 95
2, 46560, Note_on_c, 0, 59, 95
2, 46560, Note_on_c, 0, 56, 95
2, 47040, Note_off_c, 0, 64, 95
2, 47040, Note_off_c, 0, 59, 95
2, 47040, Note_off_c, 0, 56, 95
2, 47520, Note_on_c, 0, 59, 95
2, 47520, Note_on_c, 0, 57, 95
2, 47520, Note_on_c, 0, 49, 95
2, 48000, Note_off_c, 0, 59, 95
2, 48000, Note_off_c, 0, 57, 95
2, 48000, Note_off_c, 0, 49, 95
2, 48000, Note_on_c, 0, 54, 95
2, 48480, Note_off_c, 0, 54, 95
2, 48480, Note_on_c, 0, 57, 95
2, 48960, Note_off_c, 0, 57, 95
2, 48960, Note_on_c, 0, 64, 95
2, 48960, Note_on_c, 0, 59, 95
2, 49440, Note_off_c, 0, 64, 95
2, 49440, Note_off_c, 0, 59, 95
2, 49440, Note_on_c, 0, 57, 95
2, 49920, Note_off_c, 0, 57, 95
2, 49920, Note_on_c, 0, 45, 95
2, 50400, Note_off_c, 0, 45, 95
2, 50400, Note_on_c, 0, 64, 95
2, 50400, Note_on_c, 0, 59, 95
2, 50400, Note_on_c, 0, 57, 95
2, 50880, Note_off_c, 0, 64, 95
2, 50880, Note_off_c, 0, 59, 95
2, 50880, Note_off_c, 0, 57, 95
2, 51360, Note_on_c, 0, 59, 95
2, 51360, Note_on_c, 0, 56, 95
2, 51360, Note_on_c, 0, 40, 95
2, 51840, Note_off_c, 0, 59, 95
2, 51840, Note_off_c, 0, 56, 95
2, 51840, Note_off_c, 0, 40, 95
2, 51840, Note_on_c, 0, 52, 95
2, 52320, Note_off_c, 0, 52, 95
2, 52320, Note_on_c, 0, 56, 95
2, 52800, Note_off_c, 0, 56, 95
2, 52800, Note_on_c, 0, 64, 95
2, 52800, Note_on_c, 0, 59, 95
2, 53280, Note_off_c, 0, 64, 95
2, 53280, Note_off_c, 0, 59, 95
2, 53280, Note_on_c, 0, 56, 95
2, 53760, Note_off_c, 0, 56, 95
2, 53760, Note_on_c, 0, 40, 95
2, 54240, Note_off_c, 0, 40, 95
2, 54240, Note_on_c, 0, 64, 95
2, 54240, Note_on_c, 0, 59, 95
2, 54240, Note_on_c, 0, 56, 95
2, 54720, Note_off_c, 0, 64, 95
2, 54720, Note_off_c, 0, 59, 95
2, 54720, Note_off_c, 0, 56, 95
2, 55200, Note_on_c, 0, 59, 95
2, 55200, Note_on_c, 0, 57, 95
2, 55200, Note_on_c, 0, 49, 95
2, 55680, Note_off_c, 0, 59, 95
2, 55680, Note_off_c, 0, 57, 95
2, 55680, Note_off_c, 0, 49, 95
2, 55680, Note_on_c, 0, 54, 95
2, 56160, Note_off_c, 0, 54, 95
2, 56160, Note_on_c, 0, 57, 95
2, 56640, Note_off_c, 0, 57, 95
2, 56640, Note_on_c, 0, 64, 95
2, 56640, Note_on_c, 0, 59, 95
2, 57120, Note_off_c, 0, 64, 95
2, 57120, Note_off_c, 0, 59, 95
2, 57120, Note_on_c, 0, 57, 95
2, 57600, Note_off_c, 0, 57, 95
2, 57600, Note_on_c, 0, 45, 95
2, 58080, Note_off_c, 0, 45, 95
2, 58080, Note_on_c, 0, 64, 95
2, 58080, Note_on_c, 0, 59, 95
2, 58080, Note_on_c, 0, 57, 95
2, 58560, Note_off_c, 0, 64, 95
2, 58560, Note_off_c, 0, 59, 95
2, 58560, Note_off_c, 0, 57, 95
2, 59040, Note_on_c, 0, 59, 95
2, 59040, Note_on_c, 0, 56, 95
2, 59040, Note_on_c, 0, 40, 95
2, 59520, Note_off_c, 0, 59, 95
2, 59520, Note_off_c, 0, 56, 95
2, 59520, Note_off_c, 0, 40, 95
2, 59520, Note_on_c, 0, 52, 95
2, 60000, Note_off_c, 0, 52, 95
2, 60000, Note_on_c, 0, 56, 95
2, 60480, Note_off_c, 0, 56, 95
2, 60480, Note_on_c, 0, 64, 95
2, 60480, Note_on_c, 0, 59, 95
2, 60960, Note_off_c, 0, 64, 95
2, 60960, Note_off_c, 0, 59, 95
2, 60960, Note_on_c, 0, 56, 95
2, 61440, Note_off_c, 0, 56, 95
2, 61440, Note_on_c, 0, 40, 95
2, 61920, Note_off_c, 0, 40, 95
2, 61920, Note_on_c, 0, 64, 95
2, 61920, Note_on_c, 0, 59, 95
2, 61920, Note_on_c, 0, 56, 95
2, 62400, Note_off_c, 0, 64, 95
2, 62400, Note_off_c, 0, 59, 95
2, 62400, Note_off_c, 0, 56, 95
2, 62880, Note_on_c, 0, 59, 95
2, 62880, Note_on_c, 0, 57, 95
2, 62880, Note_on_c, 0, 49, 95
2, 63360, Note_off_c, 0, 59, 95
2, 63360, Note_off_c, 0, 57, 95
2, 63360, Note_off_c, 0, 49, 95
2, 63360, Note_on_c, 0, 54, 95
2, 63840, Note_off_c, 0, 54, 95
2, 63840, Note_on_c, 0, 57, 95
2, 64320, Note_off_c, 0, 57, 95
2, 64320, Note_on_c, 0, 64, 95
2, 64320, Note_on_c, 0, 59, 95
2, 64800, Note_off_c, 0, 64, 95
2, 64800, Note_off_c, 0, 59, 95
2, 64800, Note_on_c, 0, 57, 95
2, 65280, Note_off_c, 0, 57, 95
2, 65280, Note_on_c, 0, 45, 95
2, 65760, Note_off_c, 0, 45, 95
2, 65760, Note_on_c, 0, 64, 95
2, 65760, Note_on_c, 0, 59, 95
2, 65760, Note_on_c, 0, 57, 95
2, 66240, Note_off_c, 0, 64, 95
2, 66240, Note_off_c, 0, 59, 95
2, 66240, Note_off_c, 0, 57, 95
2, 66720, Note_on_c, 0, 59, 95
2, 66720, Note_on_c, 0, 56, 95
2, 66720, Note_on_c, 0, 40, 95
2, 67200, Note_off_c, 0, 59, 95
2, 67200, Note_off_c, 0, 56, 95
2, 67200, Note_off_c, 0, 40, 95
2, 67200, Note_on_c, 0, 52, 95
2, 67680, Note_off_c, 0, 52, 95
2, 67680, Note_on_c, 0, 56, 95
2, 68160, Note_off_c, 0, 56, 95
2, 68160, Note_on_c, 0, 64, 95
2, 68160, Note_on_c, 0, 59, 95
2, 68640, Note_off_c, 0, 64, 95
2, 68640, Note_off_c, 0, 59, 95
2, 68640, Note_on_c, 0, 56, 95
2, 69120, Note_off_c, 0, 56, 95
2, 69120, Note_on_c, 0, 40, 95
2, 69600, Note_off_c, 0, 40, 95
2, 69600, Note_on_c, 0, 64, 95
2, 69600, Note_on_c, 0, 59, 95
2, 69600, Note_on_c, 0, 56, 95
2, 70080, Note_off_c, 0, 64, 95
2, 70080, Note_off_c, 0, 59, 95
2, 70080, Note_off_c, 0, 56, 95
2, 70560, Note_on_c, 0, 59, 95
2, 70560, Note_on_c, 0, 57, 95
2, 70560, Note_on_c, 0, 49, 95
2, 71040, Note_off_c, 0, 59, 95
2, 71040, Note_off_c, 0, 57, 95
2, 71040, Note_off_c, 0, 49, 95
2, 71040, Note_on_c, 0, 54, 95
2, 71520, Note_off_c, 0, 54, 95
2, 71520, Note_on_c, 0, 57, 95
2, 72000, Note_off_c, 0, 57, 95
2, 72000, Note_on_c, 0, 64, 95
2, 72000, Note_on_c, 0, 59, 95
2, 72480, Note_off_c, 0, 64, 95
2, 72480, Note_off_c, 0, 59, 95
2, 72480, Note_on_c, 0, 57, 95
2, 72960, Note_off_c, 0, 57, 95
2, 72960, Note_on_c, 0, 59, 95
2, 72960, Note_on_c, 0, 61, 95
2, 72960, Note_on_c, 0, 45, 95
2, 73920, Note_off_c, 0, 59, 95
2, 73920, Note_off_c, 0, 61, 95
2, 73920, Note_off_c, 0, 45, 95
2, 73920, Note_on_c, 0, 64, 95
2, 73920, Note_on_c, 0, 59, 95
2, 74400, Note_off_c, 0, 64, 95
2, 74400, Note_off_c, 0, 59, 95
2, 74400, Note_on_c, 0, 64, 95
2, 74400, Note_on_c, 0, 59, 95
2, 74400, Note_on_c, 0, 63, 95
2, 74400, Note_on_c, 0, 47, 95
2, 75360, Note_off_c, 0, 64, 95
2, 75360, Note_off_c, 0, 59, 95
2, 75360, Note_off_c, 0, 63, 95
2, 75360, Note_off_c, 0, 47, 95
2, 75360, Note_on_c, 0, 59, 95
2, 75840, Note_off_c, 0, 59, 95
2, 75840, Note_on_c, 0, 64, 95
2, 76320, Note_off_c, 0, 64, 95
2, 76320, Note_on_c, 0, 59, 95
2, 76800, Note_off_c, 0, 59, 95
2, 76800, Note_on_c, 0, 40, 95
2, 77520, Note_off_c, 0, 40, 95
2, 77520, Note_on_c, 0, 64, 95
2, 77520, Note_on_c, 0, 59, 95
2, 77520, Note_on_c, 0, 56, 95
2, 77760, Note_off_c, 0, 64, 95
2, 77760, Note_off_c, 0, 59, 95
2, 77760, Note_off_c, 0, 56, 95
2, 78240, Note_on_c, 0, 64, 95
2, 78240, Note_on_c, 0, 59, 95
2, 78240, Note_on_c, 0, 56, 95
2, 79200, Note_off_c, 0, 64, 95
2, 79200, Note_off_c, 0, 59, 95
2, 79200, Note_off_c, 0, 56, 95
2, 79200, Note_on_c, 0, 56, 95
2, 79680, Note_off_c, 0, 56, 95
2, 79680, Note_on_c, 0, 64, 95
2, 79680, Note_on_c, 0, 59, 95
2, 80160, Note_off_c, 0, 64, 95
2, 80160, Note_off_c, 0, 59, 95
2, 80160, Note_on_c, 0, 56, 95
2, 80640, Note_off_c, 0, 56, 95
2, 80640, Note_on_c, 0, 49, 95
2, 80651, Note_on_c, 0, 56, 95
2, 80662, Note_on_c, 0, 61, 95
2, 80673, Note_on_c, 0, 64, 95
2, 80684, Note_on_c, 0, 64, 95
2, 81360, Note_off_c, 0, 64, 95
2, 81360, Note_off_c, 0, 64, 95
2, 81360, Note_off_c, 0, 61, 95
2, 81360, Note_off_c, 0, 56, 95
2, 81360, Note_off_c, 0, 49, 95
2, 81360, Note_on_c, 0, 64, 95
2, 81364, Note_on_c, 0, 64, 95
2, 81368, Note_on_c, 0, 61, 95
2, 81600, Note_off_c, 0, 64, 95
2, 81600, Note_off_c, 0, 64, 95
2, 81600, Note_off_c, 0, 61, 95
2, 82080, Note_on_c, 0, 49, 95
2, 82088, Note_on_c, 0, 56, 95
2, 82096, Note_on_c, 0, 61, 95
2, 82104, Note_on_c, 0, 64, 95
2, 82112, Note_on_c, 0, 64, 95
2, 82560, Note_off_c, 0, 64, 95
2, 82560, Note_off_c, 0, 64, 95
2, 82560, Note_off_c, 0, 61, 95
2, 82560, Note_off_c, 0, 56, 95
2, 82560, Note_off_c, 0, 49, 95
2, 82560, Note_on_c, 0, 49, 95
2, 82564, Note_on_c, 0, 56, 95
2, 82568, Note_on_c, 0, 61, 95
2, 82800, Note_off_c, 0, 61, 95
2, 82800, Note_off_c, 0, 56, 95
2, 82800, Note_off_c, 0, 49, 95
2, 82800, Note_on_c, 0, 64, 95
2, 82804, Note_on_c, 0, 64, 95
2, 82808, Note_on_c, 0, 61, 95
2, 83040, Note_off_c, 0, 64, 95
2, 83040, Note_off_c, 0, 64, 95
2, 83040, Note_off_c, 0, 61, 95
2, 83520, Note_on_c, 0, 49, 95
2, 83524, Note_on_c, 0, 56, 95
2, 83528, Note_on_c, 0, 61, 95
2, 83760, Note_off_c, 0, 61, 95
2, 83760, Note_off_c, 0, 56, 95
2, 83760, Note_off_c, 0, 49, 95
2, 83760, Note_on_c, 0, 64, 95
2, 83764, Note_on_c, 0, 64, 95
2, 83768, Note_on_c, 0, 61, 95
2, 84000, Note_off_c, 0, 64, 95
2, 84000, Note_off_c, 0, 64, 95
2, 84000, Note_off_c, 0, 61, 95
2, 84480, Note_on_c, 0, 47, 95
2, 84491, Note_on_c, 0, 59, 95
2, 84502, Note_on_c, 0, 59, 95
2, 84513, Note_on_c, 0, 64, 95
2, 85200, Note_off_c, 0, 64, 95
2, 85200, Note_off_c, 0, 59, 95
2, 85200, Note_off_c, 0, 59, 95
2, 85200, Note_off_c, 0, 47, 95
2, 85200, Note_on_c, 0, 64, 95
2, 85204, Note_on_c, 0, 59, 95
2, 85208, Note_on_c, 0, 59, 95
2, 85440, Note_off_c, 0, 64, 95
2, 85440, Note_off_c, 0, 59, 95
2, 85440, Note_off_c, 0, 59, 95
2, 85920, Note_on_c, 0, 47, 95
2, 85928, Note_on_c, 0, 54, 95
2, 85936, Note_on_c, 0, 59, 95
2, 85944, Note_on_c, 0, 59, 95
2, 85952, Note_on_c, 0, 64, 95
2, 86400, Note_off_c, 0, 64, 95
2, 86400, Note_off_c, 0, 59, 95
2, 86400, Note_off_c, 0, 59, 95
2, 86400, Note_off_c, 0, 54, 95
2, 86400, Note_off_c, 0, 47, 95
2, 86400, Note_on_c, 0, 47, 95
2, 86404, Note_on_c, 0, 54, 95
2, 86408, Note_on_c, 0, 59, 95
2, 86640, Note_off_c, 0, 59, 95
2, 86640, Note_off_c, 0, 54, 95
2, 86640, Note_off_c, 0, 47, 95
2, 86640, Note_on_c, 0, 64, 95
2, 86644, Note_on_c, 0, 59, 95
2, 86648, Note_on_c, 0, 59, 95
2, 86652, Note_on_c, 0, 54, 95
2, 86656, Note_on_c, 0, 47, 95
2, 86880, Note_off_c, 0, 64, 95
2, 86880, Note_off_c, 0, 59, 95
2, 86880, Note_off_c, 0, 59, 95
2, 86880, Note_off_c, 0, 54, 95
2, 86880, Note_off_c, 0, 47, 95
2, 87360, Note_on_c, 0, 47, 95
2, 87364, Note_on_c, 0, 54, 95
2, 87368, Note_on_c, 0, 59, 95
2, 87600, Note_off_c, 0, 59, 95
2, 87600, Note_off_c, 0, 54, 95
2, 87600, Note_off_c, 0, 47, 95
2, 87600, Note_on_c, 0, 64, 95
2, 87604, Note_on_c, 0, 59, 95
2, 87608, Note_on_c, 0, 59, 95
2, 87612, Note_on_c, 0, 54, 95
2, 87616, Note_on_c, 0, 47, 95
2, 87840, Note_off_c, 0, 64, 95
2, 87840, Note_off_c, 0, 59, 95
2, 87840, Note_off_c, 0, 59, 95
2, 87840, Note_off_c, 0, 54, 95
2, 87840, Note_off_c, 0, 47, 95
2, 88320, Note_on_c, 0, 49, 95
2, 88331, Note_on_c, 0, 56, 95
2, 88342, Note_on_c, 0, 61, 95
2, 88353, Note_on_c, 0, 64, 95
2, 88364, Note_on_c, 0, 64, 95
2, 89040, Note_off_c, 0, 64, 95
2, 89040, Note_off_c, 0, 64, 95
2, 89040, Note_off_c, 0, 61, 95
2, 89040, Note_off_c, 0, 56, 95
2, 89040, Note_off_c, 0, 49, 95
2, 89040, Note_on_c, 0, 64, 95
2, 89044, Note_on_c, 0, 64, 95
2, 89048, Note_on_c, 0, 61, 95
2, 89280, Note_off_c, 0, 64, 95
2, 89280, Note_off_c, 0, 64, 95
2, 89280, Note_off_c, 0, 61, 95
2, 89760, Note_on_c, 0, 49, 95
2, 89768, Note_on_c, 0, 56, 95
2, 89776, Note_on_c, 0, 61, 95
2, 89784, Note_on_c, 0, 64, 95
2, 89792, Note_on_c, 0, 64, 95
2, 90240, Note_off_c, 0, 64, 95
2, 90240, Note_off_c, 0, 64, 95
2, 90240, Note_off_c, 0, 61, 95
2, 90240, Note_off_c, 0, 56, 95
2, 90240, Note_off_c, 0, 49, 95
2, 90240, Note_on_c, 0, 49, 95
2, 90244, Note_on_c, 0, 56, 95
2, 90248, Note_on_c, 0, 61, 95
2, 90480, Note_off_c, 0, 61, 95
2, 90480, Note_off_c, 0, 56, 95
2, 90480, Note_off_c, 0, 49, 95
2, 90480, Note_on_c, 0, 64, 95
2, 90484, Note_on_c, 0, 64, 95
2, 90488, Note_on_c, 0, 61, 95
2, 90720, Note_off_c, 0, 64, 95
2, 90720, Note_off_c, 0, 64, 95
2, 90720, Note_off_c, 0, 61, 95
2, 91200, Note_on_c, 0, 49, 95
2, 91204, Note_on_c, 0, 56, 95
2, 91208, Note_on_c, 0, 61, 95
2, 91440, Note_off_c, 0, 61, 95
2, 91440, Note_off_c, 0, 56, 95
2, 91440, Note_off_c, 0, 49, 95
2, 91440, Note_on_c, 0, 64, 95
2, 91444, Note_on_c, 0, 64, 95
2, 91448, Note_on_c, 0, 61, 95
2, 91680, Note_off_c, 0, 64, 95
2, 91680, Note_off_c, 0, 64, 95
2, 91680, Note_off_c, 0, 61, 95
2, 92160, Note_on_c, 0, 47, 95
2, 92171, Note_on_c, 0, 59, 95
2, 92182, Note_on_c, 0, 59, 95
2, 92193, Note_on_c, 0, 64, 95
2, 92880, Note_off_c, 0, 64, 95
2, 92880, Note_off_c, 0, 59, 95
2, 92880, Note_off_c, 0, 59, 95
2, 92880, Note_off_c, 0, 47, 95
2, 92880, Note_on_c, 0, 64, 95
2, 92884, Note_on_c, 0, 59, 95
2, 92888, Note_on_c, 0, 59, 95
2, 93120, Note_off_c, 0, 64, 95
2, 93120, Note_off_c, 0, 59, 95
2, 93120, Note_off_c, 0, 59, 95
2, 93600, Note_on_c, 0, 47, 95
2, 93608, Note_on_c, 0, 54, 95
2, 93616, Note_on_c, 0, 59, 95
2, 93624, Note_on_c, 0, 59, 95
2, 93632, Note_on_c, 0, 64, 95
2, 94080, Note_off_c, 0, 64, 95
2, 94080, Note_off_c, 0, 59, 95
2, 94080, Note_off_c, 0, 59, 95
2, 94080, Note_off_c, 0, 54, 95
2, 94080, Note_off_c, 0, 47, 95
2, 94080, Note_on_c, 0, 47, 95
2, 94084, Note_on_c, 0, 54, 95
2, 94088, Note_on_c, 0, 59, 95
2, 94320, Note_off_c, 0, 59, 95
2, 94320, Note_off_c, 0, 54, 95
2, 94320, Note_off_c, 0, 47, 95
2, 94320, Note_on_c, 0, 64, 95
2, 94324, Note_on_c, 0, 59, 95
2, 94328, Note_on_c, 0, 59, 95
2, 94332, Note_on_c, 0, 54, 95
2, 94336, Note_on_c, 0, 47, 95
2, 94560, Note_off_c, 0, 64, 95
2, 94560, Note_off_c, 0, 59, 95
2, 94560, Note_off_c, 0, 59, 95
2, 94560, Note_off_c, 0, 54, 95
2, 94560, Note_off_c, 0, 47, 95
2, 95040, Note_on_c, 0, 47, 95
2, 95044, Note_on_c, 0, 54, 95
2, 95048, Note_on_c, 0, 59, 95
2, 95280, Note_off_c, 0, 59, 95
2, 95280, Note_off_c, 0, 54, 95
2, 95280, Note_off_c, 0, 47, 95
2, 95280, Note_on_c, 0, 64, 95
2, 95284, Note_on_c, 0, 59, 95
2, 95288, Note_on_c, 0, 59, 95
2, 95292, Note_on_c, 0, 54, 95
2, 95296, Note_on_c, 0, 47, 95
2, 95520, Note_off_c, 0, 64, 95
2, 95520, Note_off_c, 0, 59, 95
2, 95520, Note_off_c, 0, 59, 95
2, 95520, Note_off_c, 0, 54, 95
2, 95520, Note_off_c, 0, 47, 95
2, 96000, Note_on_c, 0, 49, 95
2, 96011, Note_on_c, 0, 56, 95
2, 96022, Note_on_c, 0, 61, 95
2, 96033, Note_on_c, 0, 64, 95
2, 96044, Note_on_c, 0, 64, 95
2, 96720, Note_off_c, 0, 64, 95
2, 96720, Note_off_c, 0, 64, 95
2, 96720, Note_off_c, 0, 61, 95
2, 96720, Note_off_c, 0, 56, 95
2, 96720, Note_off_c, 0, 49, 95
2, 96720, Note_on_c, 0, 64, 95
2, 96724, Note_on_c, 0, 64, 95
2, 96728, Note_on_c, 0, 61, 95
2, 96960, Note_off_c, 0, 64, 95
2, 96960, Note_off_c, 0, 64, 95
2, 96960, Note_off_c, 0, 61, 95
2, 97440, Note_on_c, 0, 49, 95
2, 97448, Note_on_c, 0, 56, 95
2, 97456, Note_on_c, 0, 61, 95
2, 97464, Note_on_c, 0, 64, 95
2, 97472, Note_on_c, 0, 64, 95
2, 97920, Note_off_c, 0, 64, 95
2, 97920, Note_off_c, 0, 64, 95
2, 97920, Note_off_c, 0, 61, 95
2, 97920, Note_off_c, 0, 56, 95
2, 97920, Note_off_c, 0, 49, 95
2, 97920, Note_on_c, 0, 49, 95
2, 97924, Note_on_c, 0, 56, 95
2, 97928, Note_on_c, 0, 61, 95
2, 98160, Note_off_c, 0, 61, 95
2, 98160, Note_off_c, 0, 56, 95
2, 98160, Note_off_c, 0, 49, 95
2, 98160, Note_on_c, 0, 64, 95
2, 98164, Note_on_c, 0, 64, 95
2, 98168, Note_on_c, 0, 61, 95
2, 98400, Note_off_c, 0, 64, 95
2, 98400, Note_off_c, 0, 64, 95
2, 98400, Note_off_c, 0, 61, 95
2, 98880, Note_on_c, 0, 49, 95
2, 98884, Note_on_c, 0, 56, 95
2, 98888, Note_on_c, 0, 61, 95
2, 99120, Note_off_c, 0, 61, 95
2, 99120, Note_off_c, 0, 56, 95
2, 99120, Note_off_c, 0, 49, 95
2, 99120, Note_on_c, 0, 64, 95
2, 99124, Note_on_c, 0, 64, 95
2, 99128, Note_on_c, 0, 61, 95
2, 99360, Note_off_c, 0, 64, 95
2, 99360, Note_off_c, 0, 64, 95
2, 99360, Note_off_c, 0, 61, 95
2, 99840, Note_on_c, 0, 47, 95
2, 99851, Note_on_c, 0, 59, 95
2, 99862, Note_on_c, 0, 59, 95
2, 99873, Note_on_c, 0, 64, 95
2, 100560, Note_off_c, 0, 64, 95
2, 100560, Note_off_c, 0, 59, 95
2, 100560, Note_off_c, 0, 59, 95
2, 100560, Note_off_c, 0, 47, 95
2, 100560, Note_on_c, 0, 64, 95
2, 100564, Note_on_c, 0, 59, 95
2, 100568, Note_on_c, 0, 59, 95
2, 100800, Note_off_c, 0, 64, 95
2, 100800, Note_off_c, 0, 59, 95
2, 100800, Note_off_c, 0, 59, 95
2, 101280, Note_on_c, 0, 47, 95
2, 101288, Note_on_c, 0, 54, 95
2, 101296, Note_on_c, 0, 59, 95
2, 101304, Note_on_c, 0, 59, 95
2, 101312, Note_on_c, 0, 64, 95
2, 101760, Note_off_c, 0, 64, 95
2, 101760, Note_off_c, 0, 59, 95
2, 101760, Note_off_c, 0, 59, 95
2, 101760, Note_off_c, 0, 54, 95
2, 101760, Note_off_c, 0, 47, 95
2, 101760, Note_on_c, 0, 47, 95
2, 101764, Note_on_c, 0, 54, 95
2, 101768, Note_on_c, 0, 59, 95
2, 102000, Note_off_c, 0, 59, 95
2, 102000, Note_off_c, 0, 54, 95
2, 102000, Note_off_c, 0, 47, 95
2, 102000, Note_on_c, 0, 64, 95
2, 102004, Note_on_c, 0, 59, 95
2, 102008, Note_on_c, 0, 59, 95
2, 102012, Note_on_c, 0, 54, 95
2, 102016, Note_on_c, 0, 47, 95
2, 102240, Note_off_c, 0, 64, 95
2, 102240, Note_off_c, 0, 59, 95
2, 102240, Note_off_c, 0, 59, 95
2, 102240, Note_off_c, 0, 54, 95
2, 102240, Note_off_c, 0, 47, 95
2, 102720, Note_on_c, 0, 47, 95
2, 102724, Note_on_c, 0, 54, 95
2, 102728, Note_on_c, 0, 59, 95
2, 102960, Note_off_c, 0, 59, 95
2, 102960, Note_off_c, 0, 54, 95
2, 102960, Note_off_c, 0, 47, 95
2, 102960, Note_on_c, 0, 64, 95
2, 102964, Note_on_c, 0, 59, 95
2, 102968, Note_on_c, 0, 59, 95
2, 102972, Note_on_c, 0, 54, 95
2, 102976, Note_on_c, 0, 47, 95
2, 103200, Note_off_c, 0, 64, 95
2, 103200, Note_off_c, 0, 59, 95
2, 103200, Note_off_c, 0, 59, 95
2, 103200, Note_off_c, 0, 54, 95
2, 103200, Note_off_c, 0, 47, 95
2, 103680, Note_on_c, 0, 66, 95
2, 103680, Note_on_c, 0, 61, 95
2, 103680, Note_on_c, 0, 57, 95
2, 103680, Note_on_c, 0, 54, 95
2, 103680, Note_on_c, 0, 49, 95
2, 105600, Note_off_c, 0, 66, 95
2, 105600, Note_off_c, 0, 61, 95
2, 105600, Note_off_c, 0, 57, 95
2, 105600, Note_off_c, 0, 54, 95
2, 105600, Note_off_c, 0, 49, 95
2, 105600, Note_on_c, 0, 64, 95
2, 105600, Note_on_c, 0, 61, 95
2, 105600, Note_on_c, 0, 57, 95
2, 105600, Note_on_c, 0, 52, 95
2, 105600, Note_on_c, 0, 45, 95
2, 107520, Note_off_c, 0, 64, 95
2, 107520, Note_off_c, 0, 61, 95
2, 107520, Note_off_c, 0, 57, 95
2, 107520, Note_off_c, 0, 52, 95
2, 107520, Note_off_c, 0, 45, 95
2, 107520, Note_on_c, 0, 71, 95
2, 107520, Note_on_c, 0, 66, 95
2, 107520, Note_on_c, 0, 63, 95
2, 107520, Note_on_c, 0, 59, 95
2, 107520, Note_on_c, 0, 54, 95
2, 107520, Note_on_c, 0, 47, 95
2, 109440, Note_off_c, 0, 71, 95
2, 109440, Note_off_c, 0, 66, 95
2, 109440, Note_off_c, 0, 63, 95
2, 109440, Note_off_c, 0, 59, 95
2, 109440, Note_off_c, 0, 54, 95
2, 109440, Note_off_c, 0, 47, 95
2, 109920, Note_on_c, 0, 64, 95
2, 110400, Note_off_c, 0, 64, 95
2, 110400, Note_on_c, 0, 59, 95
2, 110880, Note_off_c, 0, 59, 95
2, 110880, Note_on_c, 0, 63, 95
2, 111360, Note_off_c, 0, 63, 95
2, 111360, Note_on_c, 0, 40, 95
2, 111840, Note_off_c, 0, 40, 95
2, 111840, Note_on_c, 0, 64, 95
2, 111840, Note_on_c, 0, 59, 95
2, 111840, Note_on_c, 0, 56, 95
2, 112320, Note_off_c, 0, 64, 95
2, 112320, Note_off_c, 0, 59, 95
2, 112320, Note_off_c, 0, 56, 95
2, 112800, Note_on_c, 0, 59, 95
2, 112800, Note_on_c, 0, 57, 95
2, 112800, Note_on_c, 0, 49, 95
2, 113280, Note_off_c, 0, 59, 95
2, 113280, Note_off_c, 0, 57, 95
2, 113280, Note_off_c, 0, 49, 95
2, 113280, Note_on_c, 0, 54, 95
2, 113760, Note_off_c, 0, 54, 95
2, 113760, Note_on_c, 0, 57, 95
2, 114240, Note_off_c, 0, 57, 95
2, 114240, Note_on_c, 0, 64, 95
2, 114240, Note_on_c, 0, 59, 95
2, 114720, Note_off_c, 0, 64, 95
2, 114720, Note_off_c, 0, 59, 95
2, 114720, Note_on_c, 0, 57, 95
2, 115200, Note_off_c, 0, 57, 95
2, 115200, Note_on_c, 0, 45, 95
2, 115680, Note_off_c, 0, 45, 95
2, 115680, Note_on_c, 0, 64, 95
2, 115680, Note_on_c, 0, 59, 95
2, 115680, Note_on_c, 0, 57, 95
2, 116160, Note_off_c, 0, 64, 95
2, 116160, Note_off_c, 0, 59, 95
2, 116160, Note_off_c, 0, 57, 95
2, 116640, Note_on_c, 0, 59, 95
2, 116640, Note_on_c, 0, 56, 95
2, 116640, Note_on_c, 0, 40, 95
2, 117120, Note_off_c, 0, 59, 95
2, 117120, Note_off_c, 0, 56, 95
2, 117120, Note_off_c, 0, 40, 95
2, 117120, Note_on_c, 0, 52, 95
2, 117600, Note_off_c, 0, 52, 95
2, 117600, Note_on_c, 0, 56, 95
2, 118080, Note_off_c, 0, 56, 95
2, 118080, Note_on_c, 0, 64, 95
2, 118080, Note_on_c, 0, 59, 95
2, 118560, Note_off_c, 0, 64, 95
2, 118560, Note_off_c, 0, 59, 95
2, 118560, Note_on_c, 0, 56, 95
2, 119040, Note_off_c, 0, 56, 95
2, 119040, Note_on_c, 0, 40, 95
2, 119520, Note_off_c, 0, 40, 95
2, 119520, Note_on_c, 0, 64, 95
2, 119520, Note_on_c, 0, 59, 95
2, 119520, Note_on_c, 0, 56, 95
2, 120000, Note_off_c, 0, 64, 95
2, 120000, Note_off_c, 0, 59, 95
2, 120000, Note_off_c, 0, 56, 95
2, 120480, Note_on_c, 0, 59, 95
2, 120480, Note_on_c, 0, 57, 95
2, 120480, Note_on_c, 0, 49, 95
2, 120960, Note_off_c, 0, 59, 95
2, 120960, Note_off_c, 0, 57, 95
2, 120960, Note_off_c, 0, 49, 95
2, 120960, Note_on_c, 0, 54, 95
2, 121440, Note_off_c, 0, 54, 95
2, 121440, Note_on_c, 0, 57, 95
2, 121920, Note_off_c, 0, 57, 95
2, 121920, Note_on_c, 0, 64, 95
2, 121920, Note_on_c, 0, 59, 95
2, 122400, Note_off_c, 0, 64, 95
2, 122400, Note_off_c, 0, 59, 95
2, 122400, Note_on_c, 0, 57, 95
2, 122880, Note_off_c, 0, 57, 95
2, 122880, Note_on_c, 0, 45, 95
2, 123360, Note_off_c, 0, 45, 95
2, 123360, Note_on_c, 0, 64, 95
2, 123360, Note_on_c, 0, 59, 95
2, 123360, Note_on_c, 0, 57, 95
2, 123840, Note_off_c, 0, 64, 95
2, 123840, Note_off_c, 0, 59, 95
2, 123840, Note_off_c, 0, 57, 95
2, 124320, Note_on_c, 0, 59, 95
2, 124320, Note_on_c, 0, 56, 95
2, 124320, Note_on_c, 0, 40, 95
2, 124800, Note_off_c, 0, 59, 95
2, 124800, Note_off_c, 0, 56, 95
2, 124800, Note_off_c, 0, 40, 95
2, 124800, Note_on_c, 0, 52, 95
2, 125280, Note_off_c, 0, 52, 95
2, 125280, Note_on_c, 0, 56, 95
2, 125760, Note_off_c, 0, 56, 95
2, 125760, Note_on_c, 0, 64, 95
2, 125760, Note_on_c, 0, 59, 95
2, 126240, Note_off_c, 0, 64, 95
2, 126240, Note_off_c, 0, 59, 95
2, 126240, Note_on_c, 0, 56, 95
2, 126720, Note_off_c, 0, 56, 95
2, 126720, Note_on_c, 0, 40, 95
2, 127200, Note_off_c, 0, 40, 95
2, 127200, Note_on_c, 0, 64, 95
2, 127200, Note_on_c, 0, 59, 95
2, 127200, Note_on_c, 0, 56, 95
2, 127680, Note_off_c, 0, 64, 95
2, 127680, Note_off_c, 0, 59, 95
2, 127680, Note_off_c, 0, 56, 95
2, 128160, Note_on_c, 0, 59, 95
2, 128160, Note_on_c, 0, 57, 95
2, 128160, Note_on_c, 0, 49, 95
2, 128640, Note_off_c, 0, 59, 95
2, 128640, Note_off_c, 0, 57, 95
2, 128640, Note_off_c, 0, 49, 95
2, 128640, Note_on_c, 0, 54, 95
2, 129120, Note_off_c, 0, 54, 95
2, 129120, Note_on_c, 0, 57, 95
2, 129600, Note_off_c, 0, 57, 95
2, 129600, Note_on_c, 0, 64, 95
2, 129600, Note_on_c, 0, 59, 95
2, 130080, Note_off_c, 0, 64, 95
2, 130080, Note_off_c, 0, 59, 95
2, 130080, Note_on_c, 0, 57, 95
2, 130560, Note_off_c, 0, 57, 95
2, 130560, Note_on_c, 0, 45, 95
2, 131040, Note_off_c, 0, 45, 95
2, 131040, Note_on_c, 0, 64, 95
2, 131040, Note_on_c, 0, 59, 95
2, 131040, Note_on_c, 0, 57, 95
2, 131520, Note_off_c, 0, 64, 95
2, 131520, Note_off_c, 0, 59, 95
2, 131520, Note_off_c, 0, 57, 95
2, 132000, Note_on_c, 0, 59, 95
2, 132000, Note_on_c, 0, 56, 95
2, 132000, Note_on_c, 0, 40, 95
2, 132480, Note_off_c, 0, 59, 95
2, 132480, Note_off_c, 0, 56, 95
2, 132480, Note_off_c, 0, 40, 95
2, 132480, Note_on_c, 0, 52, 95
2, 132960, Note_off_c, 0, 52, 95
2, 132960, Note_on_c, 0, 56, 95
2, 133440, Note_off_c, 0, 56, 95
2, 133440, Note_on_c, 0, 64, 95
2, 133440, Note_on_c, 0, 59, 95
2, 133920, Note_off_c, 0, 64, 95
2, 133920, Note_off_c, 0, 59, 95
2, 133920, Note_on_c, 0, 56, 95
2, 134400, Note_off_c, 0, 56, 95
2, 134400, Note_on_c, 0, 40, 95
2, 134880, Note_off_c, 0, 40, 95
2, 134880, Note_on_c, 0, 64, 95
2, 134880, Note_on_c, 0, 59, 95
2, 134880, Note_on_c, 0, 56, 95
2, 135360, Note_off_c, 0, 64, 95
2, 135360, Note_off_c, 0, 59, 95
2, 135360, Note_off_c, 0, 56, 95
2, 135840, Note_on_c, 0, 59, 95
2, 135840, Note_on_c, 0, 57, 95
2, 135840, Note_on_c, 0, 49, 95
2, 136320, Note_off_c, 0, 59, 95
2, 136320, Note_off_c, 0, 57, 95
2, 136320, Note_off_c, 0, 49, 95
2, 136320, Note_on_c, 0, 54, 95
2, 136800, Note_off_c, 0, 54, 95
2, 136800, Note_on_c, 0, 57, 95
2, 137280, Note_off_c, 0, 57, 95
2, 137280, Note_on_c, 0, 64, 95
2, 137280, Note_on_c, 0, 59, 95
2, 137760, Note_off_c, 0, 64, 95
2, 137760, Note_off_c, 0, 59, 95
2, 137760, Note_on_c, 0, 57, 95
2, 138240, Note_off_c, 0, 57, 95
2, 138240, Note_on_c, 0, 45, 95
2, 138720, Note_off_c, 0, 45, 95
2, 138720, Note_on_c, 0, 64, 95
2, 138720, Note_on_c, 0, 59, 95
2, 138720, Note_on_c, 0, 57, 95
2, 139200, Note_off_c, 0, 64, 95
2, 139200, Note_off_c, 0, 59, 95
2, 139200, Note_off_c, 0, 57, 95
2, 139680, Note_on_c, 0, 59, 95
2, 139680, Note_on_c, 0, 56, 95
2, 139680, Note_on_c, 0, 40, 95
2, 140160, Note_off_c, 0, 59, 95
2, 140160, Note_off_c, 0, 56, 95
2, 140160, Note_off_c, 0, 40, 95
2, 140160, Note_on_c, 0, 52, 95
2, 140640, Note_off_c, 0, 52, 95
2, 140640, Note_on_c, 0, 56, 95
2, 141120, Note_off_c, 0, 56, 95
2, 141120, Note_on_c, 0, 64, 95
2, 141120, Note_on_c, 0, 59, 95
2, 141600, Note_off_c, 0, 64, 95
2, 141600, Note_off_c, 0, 59, 95
2, 141600, Note_on_c, 0, 56, 95
2, 142080, Note_off_c, 0, 56, 95
2, 142080, Note_on_c, 0, 40, 95
2, 142560, Note_off_c, 0, 40, 95
2, 142560, Note_on_c, 0, 64, 95
2, 142560, Note_on_c, 0, 59, 95
2, 142560, Note_on_c, 0, 56, 95
2, 143040, Note_off_c, 0, 64, 95
2, 143040, Note_off_c, 0, 59, 95
2, 143040, Note_off_c, 0, 56, 95
2, 143520, Note_on_c, 0, 59, 95
2, 143520, Note_on_c, 0, 57, 95
2, 143520, Note_on_c, 0, 49, 95
2, 144000, Note_off_c, 0, 59, 95
2, 144000, Note_off_c, 0, 57, 95
2, 144000, Note_off_c, 0, 49, 95
2, 144000, Note_on_c, 0, 54, 95
2, 144480, Note_off_c, 0, 54, 95
2, 144480, Note_on_c, 0, 57, 95
2, 144960, Note_off_c, 0, 57, 95
2, 144960, Note_on_c, 0, 64, 95
2, 144960, Note_on_c, 0, 59, 95
2, 145440, Note_off_c, 0, 64, 95
2, 145440, Note_off_c, 0, 59, 95
2, 145440, Note_on_c, 0, 57, 95
2, 145920, Note_off_c, 0, 57, 95
2, 145920, Note_on_c, 0, 45, 95
2, 146400, Note_off_c, 0, 45, 95
2, 146400, Note_on_c, 0, 64, 95
2, 146400, Note_on_c, 0, 59, 95
2, 146400, Note_on_c, 0, 57, 95
2, 146880, Note_off_c, 0, 64, 95
2, 146880, Note_off_c, 0, 59, 95
2, 146880, Note_off_c, 0, 57, 95
2, 147360, Note_on_c, 0, 59, 95
2, 147360, Note_on_c, 0, 56, 95
2, 147360, Note_on_c, 0, 40, 95
2, 147840, Note_off_c, 0, 59, 95
2, 147840, Note_off_c, 0, 56, 95
2, 147840, Note_off_c, 0, 40, 95
2, 147840, Note_on_c, 0, 52, 95
2, 148320, Note_off_c, 0, 52, 95
2, 148320, Note_on_c, 0, 56, 95
2, 148800, Note_off_c, 0, 56, 95
2, 148800, Note_on_c, 0, 64, 95
2, 148800, Note_on_c, 0, 59, 95
2, 149280, Note_off_c, 0, 64, 95
2, 149280, Note_off_c, 0, 59, 95
2, 149280, Note_on_c, 0, 56, 95
2, 149760, Note_off_c, 0, 56, 95
2, 149760, Note_on_c, 0, 40, 95
2, 150240, Note_off_c, 0, 40, 95
2, 150240, Note_on_c, 0, 64, 95
2, 150240, Note_on_c, 0, 59, 95
2, 150240, Note_on_c, 0, 56, 95
2, 150720, Note_off_c, 0, 64, 95
2, 150720, Note_off_c, 0, 59, 95
2, 150720, Note_off_c, 0, 56, 95
2, 151200, Note_on_c, 0, 59, 95
2, 151200, Note_on_c, 0, 57, 95
2, 151200, Note_on_c, 0, 49, 95
2, 151680, Note_off_c, 0, 59, 95
2, 151680, Note_off_c, 0, 57, 95
2, 151680, Note_off_c, 0, 49, 95
2, 151680, Note_on_c, 0, 54, 95
2, 152160, Note_off_c, 0, 54, 95
2, 152160, Note_on_c, 0, 57, 95
2, 152640, Note_off_c, 0, 57, 95
2, 152640, Note_on_c, 0, 64, 95
2, 152640, Note_on_c, 0, 59, 95
2, 153120, Note_off_c, 0, 64, 95
2, 153120, Note_off_c, 0, 59, 95
2, 153120, Note_on_c, 0, 57, 95
2, 153600, Note_off_c, 0, 57, 95
2, 153600, Note_on_c, 0, 59, 95
2, 153600, Note_on_c, 0, 61, 95
2, 153600, Note_on_c, 0, 45, 95
2, 154560, Note_off_c, 0, 59, 95
2, 154560, Note_off_c, 0, 61, 95
2, 154560, Note_off_c, 0, 45, 95
2, 154560, Note_on_c, 0, 64, 95
2, 154560, Note_on_c, 0, 59, 95
2, 155040, Note_off_c, 0, 64, 95
2, 155040, Note_off_c, 0, 59, 95
2, 155040, Note_on_c, 0, 64, 95
2, 155040, Note_on_c, 0, 59, 95
2, 155040, Note_on_c, 0, 63, 95
2, 155040, Note_on_c, 0, 47, 95
2, 156000, Note_off_c, 0, 64, 95
2, 156000, Note_off_c, 0, 59, 95
2, 156000, Note_off_c, 0, 63, 95
2, 156000, Note_off_c, 0, 47, 95
2, 156000, Note_on_c, 0, 59, 95
2, 156480, Note_off_c, 0, 59, 95
2, 156480, Note_on_c, 0, 64, 95
2, 156960, Note_off_c, 0, 64, 95
2, 156960, Note_on_c, 0, 59, 95
2, 157440, Note_off_c, 0, 59, 95
2, 157440, Note_on_c, 0, 40, 95
2, 158160, Note_off_c, 0, 40, 95
2, 158160, Note_on_c, 0, 64, 95
2, 158160, Note_on_c, 0, 59, 95
2, 158160, Note_on_c, 0, 56, 95
2, 158400, Note_off_c, 0, 64, 95
2, 158400, Note_off_c, 0, 59, 95
2, 158400, Note_off_c, 0, 56, 95
2, 158880, Note_on_c, 0, 64, 95
2, 158880, Note_on_c, 0, 59, 95
2, 158880, Note_on_c, 0, 56, 95
2, 159840, Note_off_c, 0, 64, 95
2, 159840, Note_off_c, 0, 59, 95
2, 159840, Note_off_c, 0, 56, 95
2, 159840, Note_on_c, 0, 56, 95
2, 160320, Note_off_c, 0, 56, 95
2, 160320, Note_on_c, 0, 64, 95
2, 160320, Note_on_c, 0, 59, 95
2, 160800, Note_off_c, 0, 64, 95
2, 160800, Note_off_c, 0, 59, 95
2, 160800, Note_on_c, 0, 56, 95
2, 161280, Note_off_c, 0, 56, 95
2, 161280, Note_on_c, 0, 49, 95
2, 161291, Note_on_c, 0, 56, 95
2, 161302, Note_on_c, 0, 61, 95
2, 161313, Note_on_c, 0, 64, 95
2, 161324, Note_on_c, 0, 64, 95
2, 162000, Note_off_c, 0, 64, 95
2, 162000, Note_off_c, 0, 64, 95
2, 162000, Note_off_c, 0, 61, 95
2, 162000, Note_off_c, 0, 56, 95
2, 162000, Note_off_c, 0, 49, 95
2, 162000, Note_on_c, 0, 64, 95
2, 162004, Note_on_c, 0, 64, 95
2, 162008, Note_on_c, 0, 61, 95
2, 162240, Note_off_c, 0, 64, 95
2, 162240, Note_off_c, 0, 64, 95
2, 162240, Note_off_c, 0, 61, 95
2, 162720, Note_on_c, 0, 49, 95
2, 162728, Note_on_c, 0, 56, 95
2, 162736, Note_on_c, 0, 61, 95
2, 162744, Note_on_c, 0, 64, 95
2, 162752, Note_on_c, 0, 64, 95
2, 163200, Note_off_c, 0, 64, 95
2, 163200, Note_off_c, 0, 64, 95
2, 163200, Note_off_c, 0, 61, 95
2, 163200, Note_off_c, 0, 56, 95
2, 163200, Note_off_c, 0, 49, 95
2, 163200, Note_on_c, 0, 49, 95
2, 163204, Note_on_c, 0, 56, 95
2, 163208, Note_on_c, 0, 61, 95
2, 163440, Note_off_c, 0, 61, 95
2, 163440, Note_off_c, 0, 56, 95
2, 163440, Note_off_c, 0, 49, 95
2, 163440, Note_on_c, 0, 64, 95
2, 163444, Note_on_c, 0, 64, 95
2, 163448, Note_on_c, 0, 61, 95
2, 163680, Note_off_c, 0, 64, 95
2, 163680, Note_off_c, 0, 64, 95
2, 163680, Note_off_c, 0, 61, 95
2, 164160, Note_on_c, 0, 49, 95
2, 164164, Note_on_c, 0, 56, 95
2, 164168, Note_on_c, 0, 61, 95
2, 164400, Note_off_c, 0, 61, 95
2, 164400, Note_off_c, 0, 56, 95
2, 164400, Note_off_c, 0, 49, 95
2, 164400, Note_on_c, 0, 64, 95
2, 164404, Note_on_c, 0, 64, 95
2, 164408, Note_on_c, 0, 61, 95
2, 164640, Note_off_c, 0, 64, 95
2, 164640, Note_off_c, 0, 64, 95
2, 164640, Note_off_c, 0, 61, 95
2, 165120, Note_on_c, 0, 47, 95
2, 165131, Note_on_c, 0, 59, 95
2, 165142, Note_on_c, 0, 59, 95
2, 165153, Note_on_c, 0, 64, 95
2, 165840, Note_off_c, 0, 64, 95
2, 165840, Note_off_c, 0, 59, 95
2, 165840, Note_off_c, 0, 59, 95
2, 165840, Note_off_c, 0, 47, 95
2, 165840, Note_on_c, 0, 64, 95
2, 165844, Note_on_c, 0, 59, 95
2, 165848, Note_on_c, 0, 59, 95
2, 166080, Note_off_c, 0, 64, 95
2, 166080, Note_off_c, 0, 59, 95
2, 166080, Note_off_c, 0, 59, 95
2, 166560, Note_on_c, 0, 47, 95
2, 166568, Note_on_c, 0, 54, 95
2, 166576, Note_on_c, 0, 59, 95
2, 166584, Note_on_c, 0, 59, 95
2, 166592, Note_on_c, 0, 64, 95
2, 167040, Note_off_c, 0, 64, 95
2, 167040, Note_off_c, 0, 59, 95
2, 167040, Note_off_c, 0, 59, 95
2, 167040, Note_off_c, 0, 54, 95
2, 167040, Note_off_c, 0, 47, 95
2, 167040, Note_on_c, 0, 47, 95
2, 167044, Note_on_c, 0, 54, 95
2, 167048, Note_on_c, 0, 59, 95
2, 167280, Note_off_c, 0, 59, 95
2, 167280, Note_off_c, 0, 54, 95
2, 167280, Note_off_c, 0, 47, 95
2, 167280, Note_on_c, 0, 64, 95
2, 167284, Note_on_c, 0, 59, 95
2, 167288, Note_on_c, 0, 59, 95
2, 167292, Note_on_c, 0, 54, 95
2, 167296, Note_on_c, 0, 47, 95
2, 167520, Note_off_c, 0, 64, 95
2, 167520, Note_off_c, 0, 59, 95
2, 167520, Note_off_c, 0, 59, 95
2, 167520, Note_off_c, 0, 54, 95
2, 167520, Note_off_c, 0, 47, 95
2, 168000, Note_on_c, 0, 47, 95
2, 168004, Note_on_c, 0, 54, 95
2, 168008, Note_on_c, 0, 59, 95
2, 168240, Note_off_c, 0, 59, 95
2, 168240, Note_off_c, 0, 54, 95
2, 168240, Note_off_c, 0, 47, 95
2, 168240, Note_on_c, 0, 64, 95
2, 168244, Note_on_c, 0, 59, 95
2, 168248, Note_on_c, 0, 59, 95
2, 168252, Note_on_c, 0, 54, 95
2, 168256, Note_on_c, 0, 47, 95
2, 168480, Note_off_c, 0, 64, 95
2, 168480, Note_off_c, 0, 59, 95
2, 168480, Note_off_c, 0, 59, 95
2, 168480, Note_off_c, 0, 54, 95
2, 168480, Note_off_c, 0, 47, 95
2, 168960, Note_on_c, 0, 49, 95
2, 168971, Note_on_c, 0, 56, 95
2, 168982, Note_on_c, 0, 61, 95
2, 168993, Note_on_c, 0, 64, 95
2, 169004, Note_on_c, 0, 64, 95
2, 169680, Note_off_c, 0, 64, 95
2, 169680, Note_off_c, 0, 64, 95
2, 169680, Note_off_c, 0, 61, 95
2, 169680, Note_off_c, 0, 56, 95
2, 169680, Note_off_c, 0, 49, 95
2, 169680, Note_on_c, 0, 64, 95
2, 169684, Note_on_c, 0, 64, 95
2, 169688, Note_on_c, 0, 61, 95
2, 169920, Note_off_c, 0, 64, 95
2, 169920, Note_off_c, 0, 64, 95
2, 169920, Note_off_c, 0, 61, 95
2, 170400, Note_on_c, 0, 49, 95
2, 170408, Note_on_c, 0, 56, 95
2, 170416, Note_on_c, 0, 61, 95
2, 170424, Note_on_c, 0, 64, 95
2, 170432, Note_on_c, 0, 64, 95
2, 170880, Note_off_c, 0, 64, 95
2, 170880, Note_off_c, 0, 64, 95
2, 170880, Note_off_c, 0, 61, 95
2, 170880, Note_off_c, 0, 56, 95
2, 170880, Note_off_c, 0, 49, 95
2, 170880, Note_on_c, 0, 49, 95
2, 170884, Note_on_c, 0, 56, 95
2, 170888, Note_on_c, 0, 61, 95
2, 171120, Note_off_c, 0, 61, 95
2, 171120, Note_off_c, 0, 56, 95
2, 171120, Note_off_c, 0, 49, 95
2, 171120, Note_on_c, 0, 64, 95
2, 171124, Note_on_c, 0, 64, 95
2, 171128, Note_on_c, 0, 61, 95
2, 171360, Note_off_c, 0, 64, 95
2, 171360, Note_off_c, 0, 64, 95
2, 171360, Note_off_c, 0, 61, 95
2, 171840, Note_on_c, 0, 49, 95
2, 171844, Note_on_c, 0, 56, 95
2, 171848, Note_on_c, 0, 61, 95
2, 172080, Note_off_c, 0, 61, 95
2, 172080, Note_off_c, 0, 56, 95
2, 172080, Note_off_c, 0, 49, 95
2, 172080, Note_on_c, 0, 64, 95
2, 172084, Note_on_c, 0, 64, 95
2, 172088, Note_on_c, 0, 61, 95
2, 172320, Note_off_c, 0, 64, 95
2, 172320, Note_off_c, 0, 64, 95
2, 172320, Note_off_c, 0, 61, 95
2, 172800, Note_on_c, 0, 47, 95
2, 172811, Note_on_c, 0, 59, 95
2, 172822, Note_on_c, 0, 59, 95
2, 172833, Note_on_c, 0, 64, 95
2, 173520, Note_off_c, 0, 64, 95
2, 173520, Note_off_c, 0, 59, 95
2, 173520, Note_off_c, 0, 59, 95
2, 173520, Note_off_c, 0, 47, 95
2, 173520, Note_on_c, 0, 64, 95
2, 173524, Note_on_c, 0, 59, 95
2, 173528, Note_on_c, 0, 59, 95
2, 173760, Note_off_c, 0, 64, 95
2, 173760, Note_off_c, 0, 59, 95
2, 173760, Note_off_c, 0, 59, 95
2, 174240, Note_on_c, 0, 47, 95
2, 174248, Note_on_c, 0, 54, 95
2, 174256, Note_on_c, 0, 59, 95
2, 174264, Note_on_c, 0, 59, 95
2, 174272, Note_on_c, 0, 64, 95
2, 174720, Note_off_c, 0, 64, 95
2, 174720, Note_off_c, 0, 59, 95
2, 174720, Note_off_c, 0, 59, 95
2, 174720, Note_off_c, 0, 54, 95
2, 174720, Note_off_c, 0, 47, 95
2, 174720, Note_on_c, 0, 47, 95
2, 174724, Note_on_c, 0, 54, 95
2, 174728, Note_on_c, 0, 59, 95
2, 174960, Note_off_c, 0, 59, 95
2, 174960, Note_off_c, 0, 54, 95
2, 174960, Note_off_c, 0, 47, 95
2, 174960, Note_on_c, 0, 64, 95
2, 174964, Note_on_c, 0, 59, 95
2, 174968, Note_on_c, 0, 59, 95
2, 174972, Note_on_c, 0, 54, 95
2, 174976, Note_on_c, 0, 47, 95
2, 175200, Note_off_c, 0, 64, 95
2, 175200, Note_off_c, 0, 59, 95
2, 175200, Note_off_c, 0, 59, 95
2, 175200, Note_off_c, 0, 54, 95
2, 175200, Note_off_c, 0, 47, 95
2, 175680, Note_on_c, 0, 47, 95
2, 175684, Note_on_c, 0, 54, 95
2, 175688, Note_on_c, 0, 59, 95
2, 175920, Note_off_c, 0, 59, 95
2, 175920, Note_off_c, 0, 54, 95
2, 175920, Note_off_c, 0, 47, 95
2, 175920, Note_on_c, 0, 64, 95
2, 175924, Note_on_c, 0, 59, 95
2, 175928, Note_on_c, 0, 59, 95
2, 175932, Note_on_c, 0, 54, 95
2, 175936, Note_on_c, 0, 47, 95
2, 176160, Note_off_c, 0, 64, 95
2, 176160, Note_off_c, 0, 59, 95
2, 176160, Note_off_c, 0, 59, 95
2, 176160, Note_off_c, 0, 54, 95
2, 176160, Note_off_c, 0, 47, 95
2, 176640, Note_on_c, 0, 49, 95
2, 176651, Note_on_c, 0, 56, 95
2, 176662, Note_on_c, 0, 61, 95
2, 176673, Note_on_c, 0, 64, 95
2, 176684, Note_on_c, 0, 64, 95
2, 177360, Note_off_c, 0, 64, 95
2, 177360, Note_off_c, 0, 64, 95
2, 177360, Note_off_c, 0, 61, 95
2, 177360, Note_off_c, 0, 56, 95
2, 177360, Note_off_c, 0, 49, 95
2, 177360, Note_on_c, 0, 64, 95
2, 177364, Note_on_c, 0, 64, 95
2, 177368, Note_on_c, 0, 61, 95
2, 177600, Note_off_c, 0, 64, 95
2, 177600, Note_off_c, 0, 64, 95
2, 177600, Note_off_c, 0, 61, 95
2, 178080, Note_on_c, 0, 49, 95
2, 178088, Note_on_c, 0, 56, 95
2, 178096, Note_on_c, 0, 61, 95
2, 178104, Note_on_c, 0, 64, 95
2, 178112, Note_on_c, 0, 64, 95
2, 178560, Note_off_c, 0, 64, 95
2, 178560, Note_off_c, 0, 64, 95
2, 178560, Note_off_c, 0, 61, 95
2, 178560, Note_off_c, 0, 56, 95
2, 178560, Note_off_c, 0, 49, 95
2, 178560, Note_on_c, 0, 49, 95
2, 178564, Note_on_c, 0, 56, 95
2, 178568, Note_on_c, 0, 61, 95
2, 178800, Note_off_c, 0, 61, 95
2, 178800, Note_off_c, 0, 56, 95
2, 178800, Note_off_c, 0, 49, 95
2, 178800, Note_on_c, 0, 64, 95
2, 178804, Note_on_c, 0, 64, 95
2, 178808, Note_on_c, 0, 61, 95
2, 179040, Note_off_c, 0, 64, 95
2, 179040, Note_off_c, 0, 64, 95
2, 179040, Note_off_c, 0, 61, 95
2, 179520, Note_on_c, 0, 49, 95
2, 179524, Note_on_c, 0, 56, 95
2, 179528, Note_on_c, 0, 61, 95
2, 179760, Note_off_c, 0, 61, 95
2, 179760, Note_off_c, 0, 56, 95
2, 179760, Note_off_c, 0, 49, 95
2, 179760, Note_on_c, 0, 64, 95
2, 179764, Note_on_c, 0, 64, 95
2, 179768, Note_on_c, 0, 61, 95
2, 180000, Note_off_c, 0, 64, 95
2, 180000, Note_off_c, 0, 64, 95
2, 180000, Note_off_c, 0, 61, 95
2, 180480, Note_on_c, 0, 47, 95
2, 180491, Note_on_c, 0, 59, 95
2, 180502, Note_on_c, 0, 59, 95
2, 180513, Note_on_c, 0, 64, 95
2, 181200, Note_off_c, 0, 64, 95
2, 181200, Note_off_c, 0, 59, 95
2, 181200, Note_off_c, 0, 59, 95
2, 181200, Note_off_c, 0, 47, 95
2, 181200, Note_on_c, 0, 64, 95
2, 181204, Note_on_c, 0, 59, 95
2, 181208, Note_on_c, 0, 59, 95
2, 181440, Note_off_c, 0, 64, 95
2, 181440, Note_off_c, 0, 59, 95
2, 181440, Note_off_c, 0, 59, 95
2, 181920, Note_on_c, 0, 47, 95
2, 181928, Note_on_c, 0, 54, 95
2, 181936, Note_on_c, 0, 59, 95
2, 181944, Note_on_c, 0, 59, 95
2, 181952, Note_on_c, 0, 64, 95
2, 182400, Note_off_c, 0, 64, 95
2, 182400, Note_off_c, 0, 59, 95
2, 182400, Note_off_c, 0, 59, 95
2, 182400, Note_off_c, 0, 54, 95
2, 182400, Note_off_c, 0, 47, 95
2, 182400, Note_on_c, 0, 47, 95
2, 182404, Note_on_c, 0, 54, 95
2, 182408, Note_on_c, 0, 59, 95
2, 182640, Note_off_c, 0, 59, 95
2, 182640, Note_off_c, 0, 54, 95
2, 182640, Note_off_c, 0, 47, 95
2, 182640, Note_on_c, 0, 64, 95
2, 182644, Note_on_c, 0, 59, 95
2, 182648, Note_on_c, 0, 59, 95
2, 182652, Note_on_c, 0, 54, 95
2, 182656, Note_on_c, 0, 47, 95
2, 182880, Note_off_c, 0, 64, 95
2, 182880, Note_off_c, 0, 59, 95
2, 182880, Note_off_c, 0, 59, 95
2, 182880, Note_off_c, 0, 54, 95
2, 182880, Note_off_c, 0, 47, 95
2, 183360, Note_on_c, 0, 47, 95
2, 183364, Note_on_c, 0, 54, 95
2, 183368, Note_on_c, 0, 59, 95
2, 183600, Note_off_c, 0, 59, 95
2, 183600, Note_off_c, 0, 54, 95
2, 183600, Note_off_c, 0, 47, 95
2, 183600, Note_on_c, 0, 64, 95
2, 183604, Note_on_c, 0, 59, 95
2, 183608, Note_on_c, 0, 59, 95
2, 183612, Note_on_c, 0, 54, 95
2, 183616, Note_on_c, 0, 47, 95
2, 183840, Note_off_c, 0, 64, 95
2, 183840, Note_off_c, 0, 59, 95
2, 183840, Note_off_c, 0, 59, 95
2, 183840, Note_off_c, 0, 54, 95
2, 183840, Note_off_c, 0, 47, 95
2, 184320, Note_on_c, 0, 66, 95
2, 184320, Note_on_c, 0, 61, 95
2, 184320, Note_on_c, 0, 57, 95
2, 184320, Note_on_c, 0, 54, 95
2, 184320, Note_on_c, 0, 49, 95
2, 186240, Note_off_c, 0, 66, 95
2, 186240, Note_off_c, 0, 61, 95
2, 186240, Note_off_c, 0, 57, 95
2, 186240, Note_off_c, 0, 54, 95
2, 186240, Note_off_c, 0, 49, 95
2, 186240, Note_on_c, 0, 64, 95
2, 186240, Note_on_c, 0, 61, 95
2, 186240, Note_on_c, 0, 57, 95
2, 186240, Note_on_c, 0, 52, 95
2, 186240, Note_on_c, 0, 45, 95
2, 188160, Note_off_c, 0, 64, 95
2, 188160, Note_off_c, 0, 61, 95
2, 188160, Note_off_c, 0, 57, 95
2, 188160, Note_off_c, 0, 52, 95
2, 188160, Note_off_c, 0, 45, 95
2, 188160, Note_on_c, 0, 71, 95
2, 188160, Note_on_c, 0, 66, 95
2, 188160, Note_on_c, 0, 63, 95
2, 188160, Note_on_c, 0, 59, 95
2, 188160, Note_on_c, 0, 54, 95
2, 188160, Note_on_c, 0, 47, 95
2, 190080, Note_off_c, 0, 71, 95
2, 190080, Note_off_c, 0, 66, 95
2, 190080, Note_off_c, 0, 63, 95
2, 190080, Note_off_c, 0, 59, 95
2, 190080, Note_off_c, 0, 54, 95
2, 190080, Note_off_c, 0, 47, 95
2, 190560, Note_on_c, 0, 64, 95
2, 191040, Note_off_c, 0, 64, 95
2, 191040, Note_on_c, 0, 59, 95
2, 191520, Note_off_c, 0, 59, 95
2, 191520, Note_on_c, 0, 63, 95
2, 192000, Note_off_c, 0, 63, 95
2, 192000, Note_on_c, 0, 40, 95
2, 192480, Note_off_c, 0, 40, 95
2, 192480, Note_on_c, 0, 64, 95
2, 192480, Note_on_c, 0, 59, 95
2, 192480, Note_on_c, 0, 56, 95
2, 192960, Note_off_c, 0, 64, 95
2, 192960, Note_off_c, 0, 59, 95
2, 192960, Note_off_c, 0, 56, 95
2, 193440, Note_on_c, 0, 59, 95
2, 193440, Note_on_c, 0, 57, 95
2, 193440, Note_on_c, 0, 49, 95
2, 193920, Note_off_c, 0, 59, 95
2, 193920, Note_off_c, 0, 57, 95
2, 193920, Note_off_c, 0, 49, 95
2, 193920, Note_on_c, 0, 54, 95
2, 194400, Note_off_c, 0, 54, 95
2, 194400, Note_on_c, 0, 57, 95
2, 194880, Note_off_c, 0, 57, 95
2, 194880, Note_on_c, 0, 64, 95
2, 194880, Note_on_c, 0, 59, 95
2, 195360, Note_off_c, 0, 64, 95
2, 195360, Note_off_c, 0, 59, 95
2, 195360, Note_on_c, 0, 57, 95
2, 195840, Note_off_c, 0, 57, 95
2, 195840, Note_on_c, 0, 45, 95
2, 196320, Note_off_c, 0, 45, 95
2, 196320, Note_on_c, 0, 64, 95
2, 196320, Note_on_c, 0, 59, 95
2, 196320, Note_on_c, 0, 57, 95
2, 196800, Note_off_c, 0, 64, 95
2, 196800, Note_off_c, 0, 59, 95
2, 196800, Note_off_c, 0, 57, 95
2, 197280, Note_on_c, 0, 59, 95
2, 197280, Note_on_c, 0, 56, 95
2, 197280, Note_on_c, 0, 40, 95
2, 197760, Note_off_c, 0, 59, 95
2, 197760, Note_off_c, 0, 56, 95
2, 197760, Note_off_c, 0, 40, 95
2, 197760, Note_on_c, 0, 52, 95
2, 198240, Note_off_c, 0, 52, 95
2, 198240, Note_on_c, 0, 56, 95
2, 198720, Note_off_c, 0, 56, 95
2, 198720, Note_on_c, 0, 64, 95
2, 198720, Note_on_c, 0, 59, 95
2, 199200, Note_off_c, 0, 64, 95
2, 199200, Note_off_c, 0, 59, 95
2, 199200, Note_on_c, 0, 56, 95
2, 199680, Note_off_c, 0, 56, 95
2, 199680, Note_on_c, 0, 40, 95
2, 200160, Note_off_c, 0, 40, 95
2, 200160, Note_on_c, 0, 64, 95
2, 200160, Note_on_c, 0, 59, 95
2, 200160, Note_on_c, 0, 56, 95
2, 200640, Note_off_c, 0, 64, 95
2, 200640, Note_off_c, 0, 59, 95
2, 200640, Note_off_c, 0, 56, 95
2, 201120, Note_on_c, 0, 59, 95
2, 201120, Note_on_c, 0, 57, 95
2, 201120, Note_on_c, 0, 49, 95
2, 201600, Note_off_c, 0, 59, 95
2, 201600, Note_off_c, 0, 57, 95
2, 201600, Note_off_c, 0, 49, 95
2, 201600, Note_on_c, 0, 54, 95
2, 202080, Note_off_c, 0, 54, 95
2, 202080, Note_on_c, 0, 57, 95
2, 202560, Note_off_c, 0, 57, 95
2, 202560, Note_on_c, 0, 64, 95
2, 202560, Note_on_c, 0, 59, 95
2, 203040, Note_off_c, 0, 64, 95
2, 203040, Note_off_c, 0, 59, 95
2, 203040, Note_on_c, 0, 57, 95
2, 203520, Note_off_c, 0, 57, 95
2, 203520, Note_on_c, 0, 45, 95
2, 204000, Note_off_c, 0, 45, 95
2, 204000, Note_on_c, 0, 64, 95
2, 204000, Note_on_c, 0, 59, 95
2, 204000, Note_on_c, 0, 57, 95
2, 204480, Note_off_c, 0, 64, 95
2, 204480, Note_off_c, 0, 59, 95
2, 204480, Note_off_c, 0, 57, 95
2, 204960, Note_on_c, 0, 59, 95
2, 204960, Note_on_c, 0, 56, 95
2, 204960, Note_on_c, 0, 40, 95
2, 205440, Note_off_c, 0, 59, 95
2, 205440, Note_off_c, 0, 56, 95
2, 205440, Note_off_c, 0, 40, 95
2, 205440, Note_on_c, 0, 52, 95
2, 205920, Note_off_c, 0, 52, 95
2, 205920, Note_on_c, 0, 56, 95
2, 206400, Note_off_c, 0, 56, 95
2, 206400, Note_on_c, 0, 64, 95
2, 206400, Note_on_c, 0, 59, 95
2, 206880, Note_off_c, 0, 64, 95
2, 206880, Note_off_c, 0, 59, 95
2, 206880, Note_on_c, 0, 56, 95
2, 207360, Note_off_c, 0, 56, 95
2, 207360, Note_on_c, 0, 40, 95
2, 207840, Note_off_c, 0, 40, 95
2, 207840, Note_on_c, 0, 64, 95
2, 207840, Note_on_c, 0, 59, 95
2, 207840, Note_on_c, 0, 56, 95
2, 208320, Note_off_c, 0, 64, 95
2, 208320, Note_off_c, 0, 59, 95
2, 208320, Note_off_c, 0, 56, 95
2, 208800, Note_on_c, 0, 59, 95
2, 208800, Note_on_c, 0, 57, 95
2, 208800, Note_on_c, 0, 49, 95
2, 209280, Note_off_c, 0, 59, 95
2, 209280, Note_off_c, 0, 57, 95
2, 209280, Note_off_c, 0, 49, 95
2, 209280, Note_on_c, 0, 54, 95
2, 209760, Note_off_c, 0, 54, 95
2, 209760, Note_on_c, 0, 57, 95
2, 210240, Note_off_c, 0, 57, 95
2, 210240, Note_on_c, 0, 64, 95
2, 210240, Note_on_c, 0, 59, 95
2, 210720, Note_off_c, 0, 64, 95
2, 210720, Note_off_c, 0, 59, 95
2, 210720, Note_on_c, 0, 57, 95
2, 211200, Note_off_c, 0, 57, 95
2, 211200, Note_on_c, 0, 45, 95
2, 211680, Note_off_c, 0, 45, 95
2, 211680, Note_on_c, 0, 64, 95
2, 211680, Note_on_c, 0, 59, 95
2, 211680, Note_on_c, 0, 57, 95
2, 212160, Note_off_c, 0, 64, 95
2, 212160, Note_off_c, 0, 59, 95
2, 212160, Note_off_c, 0, 57, 95
2, 212640, Note_on_c, 0, 59, 95
2, 212640, Note_on_c, 0, 56, 95
2, 212640, Note_on_c, 0, 40, 95
2, 213120, Note_off_c, 0, 59, 95
2, 213120, Note_off_c, 0, 56, 95
2, 213120, Note_off_c, 0, 40, 95
2, 213120, Note_on_c, 0, 52, 95
2, 213600, Note_off_c, 0, 52, 95
2, 213600, Note_on_c, 0, 56, 95
2, 214080, Note_off_c, 0, 56, 95
2, 214080, Note_on_c, 0, 64, 95
2, 214080, Note_on_c, 0, 59, 95
2, 214560, Note_off_c, 0, 64, 95
2, 214560, Note_off_c, 0, 59, 95
2, 214560, Note_on_c, 0, 56, 95
2, 215040, Note_off_c, 0, 56, 95
2, 215040, Note_on_c, 0, 40, 95
2, 215520, Note_off_c, 0, 40, 95
2, 215520, Note_on_c, 0, 64, 95
2, 215520, Note_on_c, 0, 59, 95
2, 215520, Note_on_c, 0, 56, 95
2, 216000, Note_off_c, 0, 64, 95
2, 216000, Note_off_c, 0, 59, 95
2, 216000, Note_off_c, 0, 56, 95
2, 216480, Note_on_c, 0, 59, 95
2, 216480, Note_on_c, 0, 57, 95
2, 216480, Note_on_c, 0, 49, 95
2, 216960, Note_off_c, 0, 59, 95
2, 216960, Note_off_c, 0, 57, 95
2, 216960, Note_off_c, 0, 49, 95
2, 216960, Note_on_c, 0, 54, 95
2, 217440, Note_off_c, 0, 54, 95
2, 217440, Note_on_c, 0, 57, 95
2, 217920, Note_off_c, 0, 57, 95
2, 217920, Note_on_c, 0, 64, 95
2, 217920, Note_on_c, 0, 59, 95
2, 218400, Note_off_c, 0, 64, 95
2, 218400, Note_off_c, 0, 59, 95
2, 218400, Note_on_c, 0, 57, 95
2, 218880, Note_off_c, 0, 57, 95
2, 218880, Note_on_c, 0, 59, 95
2, 218880, Note_on_c, 0, 61, 95
2, 218880, Note_on_c, 0, 45, 95
2, 219840, Note_off_c, 0, 59, 95
2, 219840, Note_off_c, 0, 61, 95
2, 219840, Note_off_c, 0, 45, 95
2, 219840, Note_on_c, 0, 64, 95
2, 219840, Note_on_c, 0, 59, 95
2, 220320, Note_off_c, 0, 64, 95
2, 220320, Note_off_c, 0, 59, 95
2, 220320, Note_on_c, 0, 64, 95
2, 220320, Note_on_c, 0, 59, 95
2, 220320, Note_on_c, 0, 63, 95
2, 220320, Note_on_c, 0, 47, 95
2, 221280, Note_off_c, 0, 64, 95
2, 221280, Note_off_c, 0, 59, 95
2, 221280, Note_off_c, 0, 63, 95
2, 221280, Note_off_c, 0, 47, 95
2, 221280, Note_on_c, 0, 59, 95
2, 221760, Note_off_c, 0, 59, 95
2, 221760, Note_on_c, 0, 64, 95
2, 222240, Note_off_c, 0, 64, 95
2, 222240, Note_on_c, 0, 59, 95
2, 222720, Note_off_c, 0, 59, 95
2, 222720, Note_on_c, 0, 49, 95
2, 222731, Note_on_c, 0, 56, 95
2, 222742, Note_on_c, 0, 61, 95
2, 222753, Note_on_c, 0, 64, 95
2, 222764, Note_on_c, 0, 64, 95
2, 223440, Note_off_c, 0, 64, 95
2, 223440, Note_off_c, 0, 64, 95
2, 223440, Note_off_c, 0, 61, 95
2, 223440, Note_off_c, 0, 56, 95
2, 223440, Note_off_c, 0, 49, 95
2, 223440, Note_on_c, 0, 64, 95
2, 223444, Note_on_c, 0, 64, 95
2, 223448, Note_on_c, 0, 61, 95
2, 223680, Note_off_c, 0, 64, 95
2, 223680, Note_off_c, 0, 64, 95
2, 223680, Note_off_c, 0, 61, 95
2, 224160, Note_on_c, 0, 49, 95
2, 224168, Note_on_c, 0, 56, 95
2, 224176, Note_on_c, 0, 61, 95
2, 224184, Note_on_c, 0, 64, 95
2, 224192, Note_on_c, 0, 64, 95
2, 224640, Note_off_c, 0, 64, 95
2, 224640, Note_off_c, 0, 64, 95
2, 224640, Note_off_c, 0, 61, 95
2, 224640, Note_off_c, 0, 56, 95
2, 224640, Note_off_c, 0, 49, 95
2, 224640, Note_on_c, 0, 49, 95
2, 224644, Note_on_c, 0, 56, 95
2, 224648, Note_on_c, 0, 61, 95
2, 224880, Note_off_c, 0, 61, 95
2, 224880, Note_off_c, 0, 56, 95
2, 224880, Note_off_c, 0, 49, 95
2, 224880, Note_on_c, 0, 64, 95
2, 224884, Note_on_c, 0, 64, 95
2, 224888, Note_on_c, 0, 61, 95
2, 225120, Note_off_c, 0, 64, 95
2, 225120, Note_off_c, 0, 64, 95
2, 225120, Note_off_c, 0, 61, 95
2, 225600, Note_on_c, 0, 49, 95
2, 225604, Note_on_c, 0, 56, 95
2, 225608, Note_on_c, 0, 61, 95
2, 225840, Note_off_c, 0, 61, 95
2, 225840, Note_off_c, 0, 56, 95
2, 225840, Note_off_c, 0, 49, 95
2, 225840, Note_on_c, 0, 64, 95
2, 225844, Note_on_c, 0, 64, 95
2, 225848, Note_on_c, 0, 61, 95
2, 226080, Note_off_c, 0, 64, 95
2, 226080, Note_off_c, 0, 64, 95
2, 226080, Note_off_c, 0, 61, 95
2, 226560, Note_on_c, 0, 47, 95
2, 226571, Note_on_c, 0, 59, 95
2, 226582, Note_on_c, 0, 59, 95
2, 226593, Note_on_c, 0, 64, 95
2, 227280, Note_off_c, 0, 64, 95
2, 227280, Note_off_c, 0, 59, 95
2, 227280, Note_off_c, 0, 59, 95
2, 227280, Note_off_c, 0, 47, 95
2, 227280, Note_on_c, 0, 64, 95
2, 227284, Note_on_c, 0, 59, 95
2, 227288, Note_on_c, 0, 59, 95
2, 227520, Note_off_c, 0, 64, 95
2, 227520, Note_off_c, 0, 59, 95
2, 227520, Note_off_c, 0, 59, 95
2, 228000, Note_on_c, 0, 47, 95
2, 228008, Note_on_c, 0, 54, 95
2, 228016, Note_on_c, 0, 59, 95
2, 228024, Note_on_c, 0, 59, 95
2, 228032, Note_on_c, 0, 64, 95
2, 228480, Note_off_c, 0, 64, 95
2, 228480, Note_off_c, 0, 59, 95
2, 228480, Note_off_c, 0, 59, 95
2, 228480, Note_off_c, 0, 54, 95
2, 228480, Note_off_c, 0, 47, 95
2, 228480, Note_on_c, 0, 47, 95
2, 228484, Note_on_c, 0, 54, 95
2, 228488, Note_on_c, 0, 59, 95
2, 228720, Note_off_c, 0, 59, 95
2, 228720, Note_off_c, 0, 54, 95
2, 228720, Note_off_c, 0, 47, 95
2, 228720, Note_on_c, 0, 64, 95
2, 228724, Note_on_c, 0, 59, 95
2, 228728, Note_on_c, 0, 59, 95
2, 228732, Note_on_c, 0, 54, 95
2, 228736, Note_on_c, 0, 47, 95
2, 228960, Note_off_c, 0, 64, 95
2, 228960, Note_off_c, 0, 59, 95
2, 228960, Note_off_c, 0, 59, 95
2, 228960, Note_off_c, 0, 54, 95
2, 228960, Note_off_c, 0, 47, 95
2, 229440, Note_on_c, 0, 47, 95
2, 229444, Note_on_c, 0, 54, 95
2, 229448, Note_on_c, 0, 59, 95
2, 229680, Note_off_c, 0, 59, 95
2, 229680, Note_off_c, 0, 54, 95
2, 229680, Note_off_c, 0, 47, 95
2, 229680, Note_on_c, 0, 64, 95
2, 229684, Note_on_c, 0, 59, 95
2, 229688, Note_on_c, 0, 59, 95
2, 229692, Note_on_c, 0, 54, 95
2, 229696, Note_on_c, 0, 47, 95
2, 229920, Note_off_c, 0, 64, 95
2, 229920, Note_off_c, 0, 59, 95
2, 229920, Note_off_c, 0, 59, 95
2, 229920, Note_off_c, 0, 54, 95
2, 229920, Note_off_c, 0, 47, 95
2, 230400, Note_on_c, 0, 49, 95
2, 230411, Note_on_c, 0, 56, 95
2, 230422, Note_on_c, 0, 61, 95
2, 230433, Note_on_c, 0, 64, 95
2, 230444, Note_on_c, 0, 64, 95
2, 231120, Note_off_c, 0, 64, 95
2, 231120, Note_off_c, 0, 64, 95
2, 231120, Note_off_c, 0, 61, 95
2, 231120, Note_off_c, 0, 56, 95
2, 231120, Note_off_c, 0, 49, 95
2, 231120, Note_on_c, 0, 64, 95
2, 231124, Note_on_c, 0, 64, 95
2, 231128, Note_on_c, 0, 61, 95
2, 231360, Note_off_c, 0, 64, 95
2, 231360, Note_off_c, 0, 64, 95
2, 231360, Note_off_c, 0, 61, 95
2, 231840, Note_on_c, 0, 49, 95
2, 231848, Note_on_c, 0, 56, 95
2, 231856, Note_on_c, 0, 61, 95
2, 231864, Note_on_c, 0, 64, 95
2, 231872, Note_on_c, 0, 64, 95
2, 232320, Note_off_c, 0, 64, 95
2, 232320, Note_off_c, 0, 64, 95
2, 232320, Note_off_c, 0, 61, 95
2, 232320, Note_off_c, 0, 56, 95
2, 232320, Note_off_c, 0, 49, 95
2, 232320, Note_on_c, 0, 49, 95
2, 232324, Note_on_c, 0, 56, 95
2, 232328, Note_on_c, 0, 61, 95
2, 232560, Note_off_c, 0, 61, 95
2, 232560, Note_off_c, 0, 56, 95
2, 232560, Note_off_c, 0, 49, 95
2, 232560, Note_on_c, 0, 64, 95
2, 232564, Note_on_c, 0, 64, 95
2, 232568, Note_on_c, 0, 61, 95
2, 232800, Note_off_c, 0, 64, 95
2, 232800, Note_off_c, 0, 64, 95
2, 232800, Note_off_c, 0, 61, 95
2, 233280, Note_on_c, 0, 49, 95
2, 233284, Note_on_c, 0, 56, 95
2, 233288, Note_on_c, 0, 61, 95
2, 233520, Note_off_c, 0, 61, 95
2, 233520, Note_off_c, 0, 56, 95
2, 233520, Note_off_c, 0, 49, 95
2, 233520, Note_on_c, 0, 64, 95
2, 233524, Note_on_c, 0, 64, 95
2, 233528, Note_on_c, 0, 61, 95
2, 233760, Note_off_c, 0, 64, 95
2, 233760, Note_off_c, 0, 64, 95
2, 233760, Note_off_c, 0, 61, 95
2, 234240, Note_on_c, 0, 47, 95
2, 234251, Note_on_c, 0, 59, 95
2, 234262, Note_on_c, 0, 59, 95
2, 234273, Note_on_c, 0, 64, 95
2, 234960, Note_off_c, 0, 64, 95
2, 234960, Note_off_c, 0, 59, 95
2, 234960, Note_off_c, 0, 59, 95
2, 234960, Note_off_c, 0, 47, 95
2, 234960, Note_on_c, 0, 64, 95
2, 234964, Note_on_c, 0, 59, 95
2, 234968, Note_on_c, 0, 59, 95
2, 235200, Note_off_c, 0, 64, 95
2, 235200, Note_off_c, 0, 59, 95
2, 235200, Note_off_c, 0, 59, 95
2, 235680, Note_on_c, 0, 47, 95
2, 235688, Note_on_c, 0, 54, 95
2, 235696, Note_on_c, 0, 59, 95
2, 235704, Note_on_c, 0, 59, 95
2, 235712, Note_on_c, 0, 64, 95
2, 236160, Note_off_c, 0, 64, 95
2, 236160, Note_off_c, 0, 59, 95
2, 236160, Note_off_c, 0, 59, 95
2, 236160, Note_off_c, 0, 54, 95
2, 236160, Note_off_c, 0, 47, 95
2, 236160, Note_on_c, 0, 47, 95
2, 236164, Note_on_c, 0, 54, 95
2, 236168, Note_on_c, 0, 59, 95
2, 236400, Note_off_c, 0, 59, 95
2, 236400, Note_off_c, 0, 54, 95
2, 236400, Note_off_c, 0, 47, 95
2, 236400, Note_on_c, 0, 64, 95
2, 236404, Note_on_c, 0, 59, 95
2, 236408, Note_on_c, 0, 59, 95
2, 236412, Note_on_c, 0, 54, 95
2, 236416, Note_on_c, 0, 47, 95
2, 236640, Note_off_c, 0, 64, 95
2, 236640, Note_off_c, 0, 59, 95
2, 236640, Note_off_c, 0, 59, 95
2, 236640, Note_off_c, 0, 54, 95
2, 236640, Note_off_c, 0, 47, 95
2, 237120, Note_on_c, 0, 47, 95
2, 237124, Note_on_c, 0, 54, 95
2, 237128, Note_on_c, 0, 59, 95
2, 237360, Note_off_c, 0, 59, 95
2, 237360, Note_off_c, 0, 54, 95
2, 237360, Note_off_c, 0, 47, 95
2, 237360, Note_on_c, 0, 64, 95
2, 237364, Note_on_c, 0, 59, 95
2, 237368, Note_on_c, 0, 59, 95
2, 237372, Note_on_c, 0, 54, 95
2, 237376, Note_on_c, 0, 47, 95
2, 237600, Note_off_c, 0, 64, 95
2, 237600, Note_off_c, 0, 59, 95
2, 237600, Note_off_c, 0, 59, 95
2, 237600, Note_off_c, 0, 54, 95
2, 237600, Note_off_c, 0, 47, 95
2, 238080, Note_on_c, 0, 49, 95
2, 238091, Note_on_c, 0, 56, 95
2, 238102, Note_on_c, 0, 61, 95
2, 238113, Note_on_c, 0, 64, 95
2, 238124, Note_on_c, 0, 64, 95
2, 238800, Note_off_c, 0, 64, 95
2, 238800, Note_off_c, 0, 64, 95
2, 238800, Note_off_c, 0, 61, 95
2, 238800, Note_off_c, 0, 56, 95
2, 238800, Note_off_c, 0, 49, 95
2, 238800, Note_on_c, 0, 64, 95
2, 238804, Note_on_c, 0, 64, 95
2, 238808, Note_on_c, 0, 61, 95
2, 239040, Note_off_c, 0, 64, 95
2, 239040, Note_off_c, 0, 64, 95
2, 239040, Note_off_c, 0, 61, 95
2, 239520, Note_on_c, 0, 49, 95
2, 239528, Note_on_c, 0, 56, 95
2, 239536, Note_on_c, 0, 61, 95
2, 239544, Note_on_c, 0, 64, 95
2, 239552, Note_on_c, 0, 64, 95
2, 240000, Note_off_c, 0, 64, 95
2, 240000, Note_off_c, 0, 64, 95
2, 240000, Note_off_c, 0, 61, 95
2, 240000, Note_off_c, 0, 56, 95
2, 240000, Note_off_c, 0, 49, 95
2, 240000, Note_on_c, 0, 49, 95
2, 240004, Note_on_c, 0, 56, 95
2, 240008, Note_on_c, 0, 61, 95
2, 240240, Note_off_c, 0, 61, 95
2, 240240, Note_off_c, 0, 56, 95
2, 240240, Note_off_c, 0, 49, 95
2, 240240, Note_on_c, 0, 64, 95
2, 240244, Note_on_c, 0, 64, 95
2, 240248, Note_on_c, 0, 61, 95
2, 240480, Note_off_c, 0, 64, 95
2, 240480, Note_off_c, 0, 64, 95
2, 240480, Note_off_c, 0, 61, 95
2, 240960, Note_on_c, 0, 49, 95
2, 240964, Note_on_c, 0, 56, 95
2, 240968, Note_on_c, 0, 61, 95
2, 241200, Note_off_c, 0, 61, 95
2, 241200, Note_off_c, 0, 56, 95
2, 241200, Note_off_c, 0, 49, 95
2, 241200, Note_on_c, 0, 64, 95
2, 241204, Note_on_c, 0, 64, 95
2, 241208, Note_on_c, 0, 61, 95
2, 241440, Note_off_c, 0, 64, 95
2, 241440, Note_off_c, 0, 64, 95
2, 241440, Note_off_c, 0, 61, 95
2, 241920, Note_on_c, 0, 47, 95
2, 241931, Note_on_c, 0, 59, 95
2, 241942, Note_on_c, 0, 59, 95
2, 241953, Note_on_c, 0, 64, 95
2, 242640, Note_off_c, 0, 64, 95
2, 242640, Note_off_c, 0, 59, 95
2, 242640, Note_off_c, 0, 59, 95
2, 242640, Note_off_c, 0, 47, 95
2, 242640, Note_on_c, 0, 64, 95
2, 242644, Note_on_c, 0, 59, 95
2, 242648, Note_on_c, 0, 59, 95
2, 242880, Note_off_c, 0, 64, 95
2, 242880, Note_off_c, 0, 59, 95
2, 242880, Note_off_c, 0, 59, 95
2, 243360, Note_on_c, 0, 47, 95
2, 243368, Note_on_c, 0, 54, 95
2, 243376, Note_on_c, 0, 59, 95
2, 243384, Note_on_c, 0, 59, 95
2, 243392, Note_on_c, 0, 64, 95
2, 243840, Note_off_c, 0, 64, 95
2, 243840, Note_off_c, 0, 59, 95
2, 243840, Note_off_c, 0, 59, 95
2, 243840, Note_off_c, 0, 54, 95
2, 243840, Note_off_c, 0, 47, 95
2, 243840, Note_on_c, 0, 47, 95
2, 243844, Note_on_c, 0, 54, 95
2, 243848, Note_on_c, 0, 59, 95
2, 244080, Note_off_c, 0, 59, 95
2, 244080, Note_off_c, 0, 54, 95
2, 244080, Note_off_c, 0, 47, 95
2, 244080, Note_on_c, 0, 64, 95
2, 244084, Note_on_c, 0, 59, 95
2, 244088, Note_on_c, 0, 59, 95
2, 244092, Note_on_c, 0, 54, 95
2, 244096, Note_on_c, 0, 47, 95
2, 244320, Note_off_c, 0, 64, 95
2, 244320, Note_off_c, 0, 59, 95
2, 244320, Note_off_c, 0, 59, 95
2, 244320, Note_off_c, 0, 54, 95
2, 244320, Note_off_c, 0, 47, 95
2, 244800, Note_on_c, 0, 47, 95
2, 244804, Note_on_c, 0, 54, 95
2, 244808, Note_on_c, 0, 59, 95
2, 245040, Note_off_c, 0, 59, 95
2, 245040, Note_off_c, 0, 54, 95
2, 245040, Note_off_c, 0, 47, 95
2, 245040, Note_on_c, 0, 64, 95
2, 245044, Note_on_c, 0, 59, 95
2, 245048, Note_on_c, 0, 59, 95
2, 245052, Note_on_c, 0, 54, 95
2, 245056, Note_on_c, 0, 47, 95
2, 245280, Note_off_c, 0, 64, 95
2, 245280, Note_off_c, 0, 59, 95
2, 245280, Note_off_c, 0, 59, 95
2, 245280, Note_off_c, 0, 54, 95
2, 245280, Note_off_c, 0, 47, 95
2, 245760, Note_on_c, 0, 66, 95
2, 245760, Note_on_c, 0, 61, 95
2, 245760, Note_on_c, 0, 57, 95
2, 245760, Note_on_c, 0, 54, 95
2, 245760, Note_on_c, 0, 49, 95
2, 247680, Note_off_c, 0, 66, 95
2, 247680, Note_off_c, 0, 61, 95
2, 247680, Note_off_c, 0, 57, 95
2, 247680, Note_off_c, 0, 54, 95
2, 247680, Note_off_c, 0, 49, 95
2, 247680, Note_on_c, 0, 64, 95
2, 247680, Note_on_c, 0, 61, 95
2, 247680, Note_on_c, 0, 57, 95
2, 247680, Note_on_c, 0, 52, 95
2, 247680, Note_on_c, 0, 45, 95
2, 249600, Note_off_c, 0, 64, 95
2, 249600, Note_off_c, 0, 61, 95
2, 249600, Note_off_c, 0, 57, 95
2, 249600, Note_off_c, 0, 52, 95
2, 249600, Note_off_c, 0, 45, 95
2, 249600, Note_on_c, 0, 71, 95
2, 249600, Note_on_c, 0, 66, 95
2, 249600, Note_on_c, 0, 63, 95
2, 249600, Note_on_c, 0, 59, 95
2, 249600, Note_on_c, 0, 54, 95
2, 249600, Note_on_c, 0, 47, 95
2, 251520, Note_off_c, 0, 71, 95
2, 251520, Note_off_c, 0, 66, 95
2, 251520, Note_off_c, 0, 63, 95
2, 251520, Note_off_c, 0, 59, 95
2, 251520, Note_off_c, 0, 54, 95
2, 251520, Note_off_c, 0, 47, 95
2, 252000, Note_on_c, 0, 64, 95
2, 252480, Note_off_c, 0, 64, 95
2, 252480, Note_on_c, 0, 59, 95
2, 252960, Note_off_c, 0, 59, 95
2, 252960, Note_on_c, 0, 63, 95
2, 253440, Note_off_c, 0, 63, 95
2, 253440, Note_on_c, 0, 40, 95
2, 253920, Note_off_c, 0, 40, 95
2, 253920, Note_on_c, 0, 64, 95
2, 253920, Note_on_c, 0, 59, 95
2, 253920, Note_on_c, 0, 56, 95
2, 254400, Note_off_c, 0, 64, 95
2, 254400, Note_off_c, 0, 59, 95
2, 254400, Note_off_c, 0, 56, 95
2, 254880, Note_on_c, 0, 59, 95
2, 254880, Note_on_c, 0, 57, 95
2, 254880, Note_on_c, 0, 49, 95
2, 255360, Note_off_c, 0, 59, 95
2, 255360, Note_off_c, 0, 57, 95
2, 255360, Note_off_c, 0, 49, 95
2, 255360, Note_on_c, 0, 54, 95
2, 255840, Note_off_c, 0, 54, 95
2, 255840, Note_on_c, 0, 57, 95
2, 256320, Note_off_c, 0, 57, 95
2, 256320, Note_on_c, 0, 64, 95
2, 256320, Note_on_c, 0, 59, 95
2, 256800, Note_off_c, 0, 64, 95
2, 256800, Note_off_c, 0, 59, 95
2, 256800, Note_on_c, 0, 57, 95
2, 257280, Note_off_c, 0, 57, 95
2, 257280, Note_on_c, 0, 45, 95
2, 257760, Note_off_c, 0, 45, 95
2, 257760, Note_on_c, 0, 64, 95
2, 257760, Note_on_c, 0, 59, 95
2, 257760, Note_on_c, 0, 57, 95
2, 258240, Note_off_c, 0, 64, 95
2, 258240, Note_off_c, 0, 59, 95
2, 258240, Note_off_c, 0, 57, 95
2, 258720, Note_on_c, 0, 59, 95
2, 258720, Note_on_c, 0, 56, 95
2, 258720, Note_on_c, 0, 40, 95
2, 259200, Note_off_c, 0, 59, 95
2, 259200, Note_off_c, 0, 56, 95
2, 259200, Note_off_c, 0, 40, 95
2, 259200, Note_on_c, 0, 52, 95
2, 259680, Note_off_c, 0, 52, 95
2, 259680, Note_on_c, 0, 56, 95
2, 260160, Note_off_c, 0, 56, 95
2, 260160, Note_on_c, 0, 64, 95
2, 260160, Note_on_c, 0, 59, 95
2, 260640, Note_off_c, 0, 64, 95
2, 260640, Note_off_c, 0, 59, 95
2, 260640, Note_on_c, 0, 56, 95
2, 261120, Note_off_c, 0, 56, 95
2, 261120, Note_on_c, 0, 40, 95
2, 261600, Note_off_c, 0, 40, 95
2, 261600, Note_on_c, 0, 64, 95
2, 261600, Note_on_c, 0, 59, 95
2, 261600, Note_on_c, 0, 56, 95
2, 262080, Note_off_c, 0, 64, 95
2, 262080, Note_off_c, 0, 59, 95
2, 262080, Note_off_c, 0, 56, 95
2, 262560, Note_on_c, 0, 59, 95
2, 262560, Note_on_c, 0, 57, 95
2, 262560, Note_on_c, 0, 49, 95
2, 263040, Note_off_c, 0, 59, 95
2, 263040, Note_off_c, 0, 57, 95
2, 263040, Note_off_c, 0, 49, 95
2, 263040, Note_on_c, 0, 54, 95
2, 263520, Note_off_c, 0, 54, 95
2, 263520, Note_on_c, 0, 57, 95
2, 264000, Note_off_c, 0, 57, 95
2, 264000, Note_on_c, 0, 64, 95
2, 264000, Note_on_c, 0, 59, 95
2, 264480, Note_off_c, 0, 64, 95
2, 264480, Note_off_c, 0, 59, 95
2, 264480, Note_on_c, 0, 57, 95
2, 264960, Note_off_c, 0, 57, 95
2, 264960, Note_on_c, 0, 45, 95
2, 265440, Note_off_c, 0, 45, 95
2, 265440, Note_on_c, 0, 64, 95
2, 265440, Note_on_c, 0, 59, 95
2, 265440, Note_on_c, 0, 57, 95
2, 265920, Note_off_c, 0, 64, 95
2, 265920, Note_off_c, 0, 59, 95
2, 265920, Note_off_c, 0, 57, 95
2, 266400, Note_on_c, 0, 59, 95
2, 266400, Note_on_c, 0, 56, 95
2, 266400, Note_on_c, 0, 40, 95
2, 266880, Note_off_c, 0, 59, 95
2, 266880, Note_off_c, 0, 56, 95
2, 266880, Note_off_c, 0, 40, 95
2, 266880, Note_on_c, 0, 52, 95
2, 267360, Note_off_c, 0, 52, 95
2, 267360, Note_on_c, 0, 56, 95
2, 267840, Note_off_c, 0, 56, 95
2, 267840, Note_on_c, 0, 64, 95
2, 267840, Note_on_c, 0, 59, 95
2, 268320, Note_off_c, 0, 64, 95
2, 268320, Note_off_c, 0, 59, 95
2, 268320, Note_on_c, 0, 56, 95
2, 268800, Note_off_c, 0, 56, 95
2, 268800, Note_on_c, 0, 40, 95
2, 269280, Note_off_c, 0, 40, 95
2, 269280, Note_on_c, 0, 64, 95
2, 269280, Note_on_c, 0, 59, 95
2, 269280, Note_on_c, 0, 56, 95
2, 269760, Note_off_c, 0, 64, 95
2, 269760, Note_off_c, 0, 59, 95
2, 269760, Note_off_c, 0, 56, 95
2, 270240, Note_on_c, 0, 59, 95
2, 270240, Note_on_c, 0, 57, 95
2, 270240, Note_on_c, 0, 49, 95
2, 270720, Note_off_c, 0, 59, 95
2, 270720, Note_off_c, 0, 57, 95
2, 270720, Note_off_c, 0, 49, 95
2, 270720, Note_on_c, 0, 54, 95
2, 271200, Note_off_c, 0, 54, 95
2, 271200, Note_on_c, 0, 57, 95
2, 271680, Note_off_c, 0, 57, 95
2, 271680, Note_on_c, 0, 64, 95
2, 271680, Note_on_c, 0, 59, 95
2, 272160, Note_off_c, 0, 64, 95
2, 272160, Note_off_c, 0, 59, 95
2, 272160, Note_on_c, 0, 57, 95
2, 272640, Note_off_c, 0, 57, 95
2, 272640, Note_on_c, 0, 45, 95
2, 273120, Note_off_c, 0, 45, 95
2, 273120, Note_on_c, 0, 64, 95
2, 273120, Note_on_c, 0, 59, 95
2, 273120, Note_on_c, 0, 57, 95
2, 273600, Note_off_c, 0, 64, 95
2, 273600, Note_off_c, 0, 59, 95
2, 273600, Note_off_c, 0, 57, 95
2, 274080, Note_on_c, 0, 59, 95
2, 274080, Note_on_c, 0, 56, 95
2, 274080, Note_on_c, 0, 40, 95
2, 274560, Note_off_c, 0, 59, 95
2, 274560, Note_off_c, 0, 56, 95
2, 274560, Note_off_c, 0, 40, 95
2, 274560, Note_on_c, 0, 52, 95
2, 275040, Note_off_c, 0, 52, 95
2, 275040, Note_on_c, 0, 56, 95
2, 275520, Note_off_c, 0, 56, 95
2, 275520, Note_on_c, 0, 64, 95
2, 275520, Note_on_c, 0, 59, 95
2, 276000, Note_off_c, 0, 64, 95
2, 276000, Note_off_c, 0, 59, 95
2, 276000, Note_on_c, 0, 56, 95
2, 276480, Note_off_c, 0, 56, 95
2, 276480, Note_on_c, 0, 40, 95
2, 276960, Note_off_c, 0, 40, 95
2, 276960, Note_on_c, 0, 64, 95
2, 276960, Note_on_c, 0, 59, 95
2, 276960, Note_on_c, 0, 56, 95
2, 277440, Note_off_c, 0, 64, 95
2, 277440, Note_off_c, 0, 59, 95
2, 277440, Note_off_c, 0, 56, 95
2, 277920, Note_on_c, 0, 59, 95
2, 277920, Note_on_c, 0, 57, 95
2, 277920, Note_on_c, 0, 49, 95
2, 278400, Note_off_c, 0, 59, 95
2, 278400, Note_off_c, 0, 57, 95
2, 278400, Note_off_c, 0, 49, 95
2, 278400, Note_on_c, 0, 54, 95
2, 278880, Note_off_c, 0, 54, 95
2, 278880, Note_on_c, 0, 57, 95
2, 279360, Note_off_c, 0, 57, 95
2, 279360, Note_on_c, 0, 64, 95
2, 279360, Note_on_c, 0, 59, 95
2, 279840, Note_off_c, 0, 64, 95
2, 279840, Note_off_c, 0, 59, 95
2, 279840, Note_on_c, 0, 57, 95
2, 280320, Note_off_c, 0, 57, 95
2, 280320, Note_on_c, 0, 45, 95
2, 280800, Note_off_c, 0, 45, 95
2, 280800, Note_on_c, 0, 64, 95
2, 280800, Note_on_c, 0, 59, 95
2, 280800, Note_on_c, 0, 57, 95
2, 281280, Note_off_c, 0, 64, 95
2, 281280, Note_off_c, 0, 59, 95
2, 281280, Note_off_c, 0, 57, 95
2, 281760, Note_on_c, 0, 59, 95
2, 281760, Note_on_c, 0, 56, 95
2, 281760, Note_on_c, 0, 40, 95
2, 282240, Note_off_c, 0, 59, 95
2, 282240, Note_off_c, 0, 56, 95
2, 282240, Note_off_c, 0, 40, 95
2, 282240, Note_on_c, 0, 52, 95
2, 282720, Note_off_c, 0, 52, 95
2, 282720, Note_on_c, 0, 56, 95
2, 283200, Note_off_c, 0, 56, 95
2, 283200, Note_on_c, 0, 64, 95
2, 283200, Note_on_c, 0, 59, 95
2, 283680, Note_off_c, 0, 64, 95
2, 283680, Note_off_c, 0, 59, 95
2, 283680, Note_on_c, 0, 56, 95
2, 284160, Note_off_c, 0, 56, 95
2, 284160, Note_on_c, 0, 40, 95
2, 284640, Note_off_c, 0, 40, 95
2, 284640, Note_on_c, 0, 64, 95
2, 284640, Note_on_c, 0, 59, 95
2, 284640, Note_on_c, 0, 56, 95
2, 285120, Note_off_c, 0, 64, 95
2, 285120, Note_off_c, 0, 59, 95
2, 285120, Note_off_c, 0, 56, 95
2, 285600, Note_on_c, 0, 59, 95
2, 285600, Note_on_c, 0, 57, 95
2, 285600, Note_on_c, 0, 49, 95
2, 286080, Note_off_c, 0, 59, 95
2, 286080, Note_off_c, 0, 57, 95
2, 286080, Note_off_c, 0, 49, 95
2, 286080, Note_on_c, 0, 54, 95
2, 286560, Note_off_c, 0, 54, 95
2, 286560, Note_on_c, 0, 57, 95
2, 287040, Note_off_c, 0, 57, 95
2, 287040, Note_on_c, 0, 64, 95
2, 287040, Note_on_c, 0, 59, 95
2, 287520, Note_off_c, 0, 64, 95
2, 287520, Note_off_c, 0, 59, 95
2, 287520, Note_on_c, 0, 57, 95
2, 288000, Note_off_c, 0, 57, 95
2, 288000, Note_on_c, 0, 45, 95
2, 288480, Note_off_c, 0, 45, 95
2, 288480, Note_on_c, 0, 64, 95
2, 288480, Note_on_c, 0, 59, 95
2, 288480, Note_on_c, 0, 57, 95
2, 288960, Note_off_c, 0, 64, 95
2, 288960, Note_off_c, 0, 59, 95
2, 288960, Note_off_c, 0, 57, 95
2, 289440, Note_on_c, 0, 59, 95
2, 289440, Note_on_c, 0, 56, 95
2, 289440, Note_on_c, 0, 40, 95
2, 289920, Note_off_c, 0, 59, 95
2, 289920, Note_off_c, 0, 56, 95
2, 289920, Note_off_c, 0, 40, 95
2, 289920, Note_on_c, 0, 52, 95
2, 290400, Note_off_c, 0, 52, 95
2, 290400, Note_on_c, 0, 56, 95
2, 290880, Note_off_c, 0, 56, 95
2, 290880, Note_on_c, 0, 64, 95
2, 290880, Note_on_c, 0, 59, 95
2, 291360, Note_off_c, 0, 64, 95
2, 291360, Note_off_c, 0, 59, 95
2, 291360, Note_on_c, 0, 56, 95
2, 291840, Note_off_c, 0, 56, 95
2, 291840, Note_on_c, 0, 40, 95
2, 292320, Note_off_c, 0, 40, 95
2, 292320, Note_on_c, 0, 64, 95
2, 292320, Note_on_c, 0, 59, 95
2, 292320, Note_on_c, 0, 56, 95
2, 292800, Note_off_c, 0, 64, 95
2, 292800, Note_off_c, 0, 59, 95
2, 292800, Note_off_c, 0, 56, 95
2, 293280, Note_on_c, 0, 59, 95
2, 293280, Note_on_c, 0, 57, 95
2, 293280, Note_on_c, 0, 49, 95
2, 293760, Note_off_c, 0, 59, 95
2, 293760, Note_off_c, 0, 57, 95
2, 293760, Note_off_c, 0, 49, 95
2, 293760, Note_on_c, 0, 54, 95
2, 294240, Note_off_c, 0, 54, 95
2, 294240, Note_on_c, 0, 57, 95
2, 294720, Note_off_c, 0, 57, 95
2, 294720, Note_on_c, 0, 64, 95
2, 294720, Note_on_c, 0, 59, 95
2, 295200, Note_off_c, 0, 64, 95
2, 295200, Note_off_c, 0, 59, 95
2, 295200, Note_on_c, 0, 57, 95
2, 295680, Note_off_c, 0, 57, 95
2, 295680, Note_on_c, 0, 45, 95
2, 296160, Note_off_c, 0, 45, 95
2, 296160, Note_on_c, 0, 64, 95
2, 296160, Note_on_c, 0, 59, 95
2, 296160, Note_on_c, 0, 57, 95
2, 296640, Note_off_c, 0, 64, 95
2, 296640, Note_off_c, 0, 59, 95
2, 296640, Note_off_c, 0, 57, 95
2, 297120, Note_on_c, 0, 59, 95
2, 297120, Note_on_c, 0, 56, 95
2, 297120, Note_on_c, 0, 40, 95
2, 297600, Note_off_c, 0, 59, 95
2, 297600, Note_off_c, 0, 56, 95
2, 297600, Note_off_c, 0, 40, 95
2, 297600, Note_on_c, 0, 52, 95
2, 298080, Note_off_c, 0, 52, 95
2, 298080, Note_on_c, 0, 56, 95
2, 298560, Note_off_c, 0, 56, 95
2, 298560, Note_on_c, 0, 64, 95
2, 298560, Note_on_c, 0, 59, 95
2, 299040, Note_off_c, 0, 64, 95
2, 299040, Note_off_c, 0, 59, 95
2, 299040, Note_on_c, 0, 56, 95
2, 299520, Note_off_c, 0, 56, 95
2, 299520, Note_on_c, 0, 40, 95
2, 300000, Note_off_c, 0, 40, 95
2, 300000, Note_on_c, 0, 64, 95
2, 300000, Note_on_c, 0, 59, 95
2, 300000, Note_on_c, 0, 56, 95
2, 300480, Note_off_c, 0, 64, 95
2, 300480, Note_off_c, 0, 59, 95
2, 300480, Note_off_c, 0, 56, 95
2, 300960, Note_on_c, 0, 59, 95
2, 300960, Note_on_c, 0, 57, 95
2, 300960, Note_on_c, 0, 49, 95
2, 301440, Note_off_c, 0, 59, 95
2, 301440, Note_off_c, 0, 57, 95
2, 301440, Note_off_c, 0, 49, 95
2, 301440, Note_on_c, 0, 54, 95
2, 301920, Note_off_c, 0, 54, 95
2, 301920, Note_on_c, 0, 57, 95
2, 302400, Note_off_c, 0, 57, 95
2, 302400, Note_on_c, 0, 64, 95
2, 302400, Note_on_c, 0, 59, 95
2, 302880, Note_off_c, 0, 64, 95
2, 302880, Note_off_c, 0, 59, 95
2, 302880, Note_on_c, 0, 57, 95
2, 303360, Note_off_c, 0, 57, 95
2, 303360, Note_on_c, 0, 45, 95
2, 303840, Note_off_c, 0, 45, 95
2, 303840, Note_on_c, 0, 64, 95
2, 303840, Note_on_c, 0, 59, 95
2, 303840, Note_on_c, 0, 57, 95
2, 304320, Note_off_c, 0, 64, 95
2, 304320, Note_off_c, 0, 59, 95
2, 304320, Note_off_c, 0, 57, 95
2, 304800, Note_on_c, 0, 59, 95
2, 304800, Note_on_c, 0, 56, 95
2, 304800, Note_on_c, 0, 40, 95
2, 305280, Note_off_c, 0, 59, 95
2, 305280, Note_off_c, 0, 56, 95
2, 305280, Note_off_c, 0, 40, 95
2, 305280, Note_on_c, 0, 52, 95
2, 305760, Note_off_c, 0, 52, 95
2, 305760, Note_on_c, 0, 56, 95
2, 306240, Note_off_c, 0, 56, 95
2, 306240, Note_on_c, 0, 64, 95
2, 306240, Note_on_c, 0, 59, 95
2, 306720, Note_off_c, 0, 64, 95
2, 306720, Note_off_c, 0, 59, 95
2, 306720, Note_on_c, 0, 56, 95
2, 307200, Note_off_c, 0, 56, 95
2, 307200, Note_on_c, 0, 40, 95
2, 307680, Note_off_c, 0, 40, 95
2, 307680, Note_on_c, 0, 64, 95
2, 307680, Note_on_c, 0, 59, 95
2, 307680, Note_on_c, 0, 56, 95
2, 308160, Note_off_c, 0, 64, 95
2, 308160, Note_off_c, 0, 59, 95
2, 308160, Note_off_c, 0, 56, 95
2, 308640, Note_on_c, 0, 59, 95
2, 308640, Note_on_c, 0, 57, 95
2, 308640, Note_on_c, 0, 49, 95
2, 309120, Note_off_c, 0, 59, 95
2, 309120, Note_off_c, 0, 57, 95
2, 309120, Note_off_c, 0, 49, 95
2, 309120, Note_on_c, 0, 54, 95
2, 309600, Note_off_c, 0, 54, 95
2, 309600, Note_on_c, 0, 57, 95
2, 310080, Note_off_c, 0, 57, 95
2, 310080, Note_on_c, 0, 64, 95
2, 310080, Note_on_c, 0, 59, 95
2, 310560, Note_off_c, 0, 64, 95
2, 310560, Note_off_c, 0, 59, 95
2, 310560, Note_on_c, 0, 57, 95
2, 311040, Note_off_c, 0, 57, 95
2, 311040, Note_on_c, 0, 45, 95
2, 311520, Note_off_c, 0, 45, 95
2, 311520, Note_on_c, 0, 64, 95
2, 311520, Note_on_c, 0, 59, 95
2, 311520, Note_on_c, 0, 57, 95
2, 312000, Note_off_c, 0, 64, 95
2, 312000, Note_off_c, 0, 59, 95
2, 312000, Note_off_c, 0, 57, 95
2, 312480, Note_on_c, 0, 59, 95
2, 312480, Note_on_c, 0, 56, 95
2, 312480, Note_on_c, 0, 40, 95
2, 312960, Note_off_c, 0, 59, 95
2, 312960, Note_off_c, 0, 56, 95
2, 312960, Note_off_c, 0, 40, 95
2, 312960, Note_on_c, 0, 52, 95
2, 313440, Note_off_c, 0, 52, 95
2, 313440, Note_on_c, 0, 56, 95
2, 313920, Note_off_c, 0, 56, 95
2, 313920, Note_on_c, 0, 64, 95
2, 313920, Note_on_c, 0, 59, 95
2, 314400, Note_off_c, 0, 64, 95
2, 314400, Note_off_c, 0, 59, 95
2, 314400, Note_on_c, 0, 56, 95
2, 314880, Note_off_c, 0, 56, 95
2, 315240, Note_on_c, 1, 51, 127
2, 315360, Note_off_c, 1, 51, 127
2, 315360, Note_on_c, 1, 52, 95
2, 315840, Note_off_c, 1, 52, 95
2, 315840, Note_on_c, 0, 49, 95
2, 316320, Note_off_c, 0, 49, 95
2, 316320, Note_on_c, 0, 56, 95
2, 316560, Note_off_c, 0, 56, 95
2, 316800, Note_on_c, 0, 54, 95
2, 318720, Note_off_c, 0, 54, 95
2, 319080, Note_on_c, 1, 52, 127
2, 319200, Note_off_c, 1, 52, 127
2, 319200, Note_on_c, 1, 54, 95
2, 319680, Note_off_c, 1, 54, 95
2, 319680, Note_on_c, 0, 54, 95
2, 320160, Note_off_c, 0, 54, 95
2, 320160, Note_on_c, 0, 56, 95
2, 320580, Note_on_c, 1, 54, 95
2, 320640, Note_off_c, 0, 56, 95
2, 320640, Note_off_c, 1, 54, 95
2, 320640, Note_on_c, 1, 56, 95
2, 321600, Note_off_c, 1, 56, 95
2, 321600, Note_on_c, 0, 54, 95
2, 321840, Note_off_c, 0, 54, 95
2, 321840, Note_on_c, 0, 52, 70
2, 322080, Note_off_c, 0, 52, 70
2, 322080, Note_on_c, 0, 47, 95
2, 322560, Note_off_c, 0, 47, 95
2, 322920, Note_on_c, 1, 51, 127
2, 323040, Note_off_c, 1, 51, 127
2, 323040, Note_on_c, 1, 52, 95
2, 323520, Note_off_c, 1, 52, 95
2, 323520, Note_on_c, 0, 49, 95
2, 324000, Note_off_c, 0, 49, 95
2, 324000, Note_on_c, 0, 56, 95
2, 324240, Note_off_c, 0, 56, 95
2, 324480, Note_on_c, 0, 54, 95
2, 326400, Note_off_c, 0, 54, 95
2, 326760, Note_on_c, 1, 52, 127
2, 326880, Note_off_c, 1, 52, 127
2, 326880, Note_on_c, 1, 54, 95
2, 327360, Note_off_c, 1, 54, 95
2, 327360, Note_on_c, 0, 54, 95
2, 327840, Note_off_c, 0, 54, 95
2, 327840, Note_on_c, 0, 56, 95
2, 328260, Note_on_c, 1, 54, 95
2, 328320, Note_off_c, 0, 56, 95
2, 328320, Note_off_c, 1, 54, 95
2, 328320, Note_on_c, 1, 56, 95
2, 330240, Note_off_c, 1, 56, 95
2, 330600, Note_on_c, 1, 63, 95
2, 330720, Note_off_c, 1, 63, 95
2, 330720, Note_on_c, 1, 64, 95
2, 331200, Note_off_c, 1, 64, 95
2, 331200, Note_on_c, 0, 59, 95
2, 331680, Note_off_c, 0, 59, 95
2, 331680, Note_on_c, 0, 68, 95
2, 331920, Note_off_c, 0, 68, 95
2, 332160, Note_on_c, 0, 66, 95
2, 334080, Note_off_c, 0, 66, 95
2, 334440, Note_on_c, 1, 63, 95
2, 334560, Note_off_c, 1, 63, 95
2, 334560, Note_on_c, 1, 64, 95
2, 335040, Note_off_c, 1, 64, 95
2, 335040, Note_on_c, 0, 64, 95
2, 335520, Note_off_c, 0, 64, 95
2, 335520, Note_on_c, 0, 68, 95
2, 335880, Note_on_c, 1, 66, 95
2, 336000, Note_off_c, 0, 68, 95
2, 336000, Note_off_c, 1, 66, 95
2, 336000, Note_on_c, 1, 68, 95
2, 336960, Note_off_c, 1, 68, 95
2, 336960, Note_on_c, 0, 64, 95
2, 337200, Note_off_c, 0, 64, 95
2, 337200, Note_on_c, 0, 63, 70
2, 337440, Note_off_c, 0, 63, 70
2, 337440, Note_on_c, 0, 59, 95
2, 337920, Note_off_c, 0, 59, 95
2, 338280, Note_on_c, 1, 63, 95
2, 338400, Note_off_c, 1, 63, 95
2, 338400, Note_on_c, 1, 64, 95
2, 338880, Note_off_c, 1, 64, 95
2, 338880, Note_on_c, 0, 59, 95
2, 339360, Note_off_c, 0, 59, 95
2, 339360, Note_on_c, 0, 68, 95
2, 339600, Note_off_c, 0, 68, 95
2, 339840, Note_on_c, 0, 66, 95
2, 341760, Note_off_c, 0, 66, 95
2, 342120, Note_on_c, 1, 63, 95
2, 342240, Note_off_c, 1, 63, 95
2, 342240, Note_on_c, 1, 64, 95
2, 342720, Note_off_c, 1, 64, 95
2, 342720, Note_on_c, 0, 64, 95
2, 343200, Note_off_c, 0, 64, 95
2, 343200, Note_on_c, 0, 68, 95
2, 343560, Note_on_c, 1, 66, 95
2, 343680, Note_off_c, 0, 68, 95
2, 343680, Note_off_c, 1, 66, 95
2, 343680, Note_on_c, 1, 68, 95
2, 345600, Note_off_c, 1, 68, 95
2, 345600, Note_on_c, 0, 64, 95
2, 345600, Note_on_c, 0, 59, 95
2, 345600, Note_on_c, 0, 56, 95
2, 345600, Note_on_c, 0, 52, 95
2, 345600, Note_on_c, 0, 47, 95
2, 345600, Note_on_c, 0, 40, 95
2, 349440, Note_off_c, 0, 64, 95
2, 349440, Note_off_c, 0, 59, 95
2, 349440, Note_off_c, 0, 56, 95
2, 349440, Note_off_c, 0, 52, 95
2, 349440, Note_off_c, 0, 47, 95
2, 349440, Note_off_c, 0, 40, 95
2, 349440, End_track
3, 0, Start_track
3, 0, Pitch_bend_c, 2, 8192
3, 0, Control_c, 2, 7, 63
3, 0, Control_c, 2, 10, 79
3, 0, Control_c, 2, 93, 0
3, 0, Control_c, 2, 91, 0
3, 0, Control_c, 2, 95, 0
3, 0, Control_c, 2, 92, 0
3, 0, Control_c, 2, 11, 127
3, 0, Program_c, 2, 25
3, 0, Control_c, 3, 7, 63
3, 0, Control_c, 3, 10, 79
3, 0, Control_c, 3, 93, 0
3, 0, Control_c, 3, 91, 0
3, 0, Control_c, 3, 95, 0
3, 0, Control_c, 3, 92, 0
3, 0, Control_c, 3, 11, 127
3, 0, Program_c, 3, 25
3, 15360, Note_on_c, 2, 56, 95
3, 15360, Note_on_c, 2, 52, 95
3, 15840, Note_off_c, 2, 56, 95
3, 15840, Note_off_c, 2, 52, 95
3, 15840, Note_on_c, 2, 59, 95
3, 16320, Note_off_c, 2, 59, 95
3, 16320, Note_on_c, 2, 64, 95
3, 16800, Note_off_c, 2, 64, 95
3, 16800, Note_on_c, 2, 57, 95
3, 16800, Note_on_c, 2, 54, 95
3, 17760, Note_off_c, 2, 57, 95
3, 17760, Note_off_c, 2, 54, 95
3, 17760, Note_on_c, 2, 64, 95
3, 18240, Note_off_c, 2, 64, 95
3, 18240, Note_on_c, 2, 59, 95
3, 18720, Note_off_c, 2, 59, 95
3, 18720, Note_on_c, 2, 57, 95
3, 19200, Note_off_c, 2, 57, 95
3, 19200, Note_on_c, 2, 57, 95
3, 19200, Note_on_c, 2, 52, 95
3, 19680, Note_off_c, 2, 57, 95
3, 19680, Note_off_c, 2, 52, 95
3, 19680, Note_on_c, 2, 59, 95
3, 20160, Note_off_c, 2, 59, 95
3, 20160, Note_on_c, 2, 64, 95
3, 20640, Note_off_c, 2, 64, 95
3, 20640, Note_on_c, 2, 56, 95
3, 20640, Note_on_c, 2, 52, 95
3, 21600, Note_off_c, 2, 56, 95
3, 21600, Note_off_c, 2, 52, 95
3, 21600, Note_on_c, 2, 64, 95
3, 22080, Note_off_c, 2, 64, 95
3, 22080, Note_on_c, 2, 59, 95
3, 22560, Note_off_c, 2, 59, 95
3, 22560, Note_on_c, 2, 56, 95
3, 23040, Note_off_c, 2, 56, 95
3, 23040, Note_on_c, 2, 56, 95
3, 23040, Note_on_c, 2, 52, 95
3, 23520, Note_off_c, 2, 56, 95
3, 23520, Note_off_c, 2, 52, 95
3, 23520, Note_on_c, 2, 56, 95
3, 24000, Note_off_c, 2, 56, 95
3, 24000, Note_on_c, 2, 59, 95
3, 24480, Note_off_c, 2, 59, 95
3, 24480, Note_on_c, 2, 57, 95
3, 24480, Note_on_c, 2, 54, 95
3, 25440, Note_off_c, 2, 57, 95
3, 25440, Note_off_c, 2, 54, 95
3, 25440, Note_on_c, 2, 64, 95
3, 25920, Note_off_c, 2, 64, 95
3, 25920, Note_on_c, 2, 59, 95
3, 26400, Note_off_c, 2, 59, 95
3, 26400, Note_on_c, 2, 57, 95
3, 26880, Note_off_c, 2, 57, 95
3, 26880, Note_on_c, 2, 57, 95
3, 26880, Note_on_c, 2, 52, 95
3, 27360, Note_off_c, 2, 57, 95
3, 27360, Note_off_c, 2, 52, 95
3, 27360, Note_on_c, 2, 59, 95
3, 27840, Note_off_c, 2, 59, 95
3, 27840, Note_on_c, 2, 64, 95
3, 28320, Note_off_c, 2, 64, 95
3, 28320, Note_on_c, 2, 56, 95
3, 28320, Note_on_c, 2, 52, 95
3, 29280, Note_off_c, 2, 56, 95
3, 29280, Note_off_c, 2, 52, 95
3, 29280, Note_on_c, 2, 64, 95
3, 29760, Note_off_c, 2, 64, 95
3, 29760, Note_on_c, 2, 59, 95
3, 30240, Note_off_c, 2, 59, 95
3, 30240, Note_on_c, 2, 56, 95
3, 30720, Note_off_c, 2, 56, 95
3, 30720, Note_on_c, 2, 56, 95
3, 30720, Note_on_c, 2, 52, 95
3, 31200, Note_off_c, 2, 56, 95
3, 31200, Note_off_c, 2, 52, 95
3, 31200, Note_on_c, 2, 56, 95
3, 31680, Note_off_c, 2, 56, 95
3, 31680, Note_on_c, 2, 59, 95
3, 32160, Note_off_c, 2, 59, 95
3, 32160, Note_on_c, 2, 57, 95
3, 32160, Note_on_c, 2, 54, 95
3, 33120, Note_off_c, 2, 57, 95
3, 33120, Note_off_c, 2, 54, 95
3, 33120, Note_on_c, 2, 59, 95
3, 33600, Note_off_c, 2, 59, 95
3, 33600, Note_on_c, 2, 64, 95
3, 34080, Note_off_c, 2, 64, 95
3, 34080, Note_on_c, 2, 59, 95
3, 34560, Note_off_c, 2, 59, 95
3, 34560, Note_on_c, 2, 57, 95
3, 34560, Note_on_c, 2, 52, 95
3, 35040, Note_off_c, 2, 57, 95
3, 35040, Note_off_c, 2, 52, 95
3, 35040, Note_on_c, 2, 59, 95
3, 35520, Note_off_c, 2, 59, 95
3, 35520, Note_on_c, 2, 64, 95
3, 36000, Note_off_c, 2, 64, 95
3, 36000, Note_on_c, 2, 56, 95
3, 36000, Note_on_c, 2, 52, 95
3, 36960, Note_off_c, 2, 56, 95
3, 36960, Note_off_c, 2, 52, 95
3, 36960, Note_on_c, 2, 59, 95
3, 37440, Note_off_c, 2, 59, 95
3, 37440, Note_on_c, 2, 64, 95
3, 37920, Note_off_c, 2, 64, 95
3, 37920, Note_on_c, 2, 59, 95
3, 38400, Note_off_c, 2, 59, 95
3, 38400, Note_on_c, 2, 56, 95
3, 38400, Note_on_c, 2, 52, 95
3, 38880, Note_off_c, 2, 56, 95
3, 38880, Note_off_c, 2, 52, 95
3, 38880, Note_on_c, 2, 56, 95
3, 39360, Note_off_c, 2, 56, 95
3, 39360, Note_on_c, 2, 59, 95
3, 39840, Note_off_c, 2, 59, 95
3, 39840, Note_on_c, 2, 57, 95
3, 39840, Note_on_c, 2, 54, 95
3, 40800, Note_off_c, 2, 57, 95
3, 40800, Note_off_c, 2, 54, 95
3, 40800, Note_on_c, 2, 59, 95
3, 41280, Note_off_c, 2, 59, 95
3, 41280, Note_on_c, 2, 64, 95
3, 41760, Note_off_c, 2, 64, 95
3, 41760, Note_on_c, 2, 59, 95
3, 42240, Note_off_c, 2, 59, 95
3, 42240, Note_on_c, 2, 57, 95
3, 42240, Note_on_c, 2, 52, 95
3, 42720, Note_off_c, 2, 57, 95
3, 42720, Note_off_c, 2, 52, 95
3, 42720, Note_on_c, 2, 59, 95
3, 43200, Note_off_c, 2, 59, 95
3, 43200, Note_on_c, 2, 64, 95
3, 43680, Note_off_c, 2, 64, 95
3, 43680, Note_on_c, 2, 56, 95
3, 43680, Note_on_c, 2, 52, 95
3, 44640, Note_off_c, 2, 56, 95
3, 44640, Note_off_c, 2, 52, 95
3, 44640, Note_on_c, 2, 59, 95
3, 45120, Note_off_c, 2, 59, 95
3, 45120, Note_on_c, 2, 64, 95
3, 45600, Note_off_c, 2, 64, 95
3, 45600, Note_on_c, 2, 59, 95
3, 46080, Note_off_c, 2, 59, 95
3, 46080, Note_on_c, 2, 56, 95
3, 46080, Note_on_c, 2, 52, 95
3, 46560, Note_off_c, 2, 56, 95
3, 46560, Note_off_c, 2, 52, 95
3, 46560, Note_on_c, 2, 56, 95
3, 47040, Note_off_c, 2, 56, 95
3, 47040, Note_on_c, 2, 59, 95
3, 47520, Note_off_c, 2, 59, 95
3, 47520, Note_on_c, 2, 57, 95
3, 47520, Note_on_c, 2, 54, 95
3, 48480, Note_off_c, 2, 57, 95
3, 48480, Note_off_c, 2, 54, 95
3, 48480, Note_on_c, 2, 59, 95
3, 48960, Note_off_c, 2, 59, 95
3, 48960, Note_on_c, 2, 64, 95
3, 49440, Note_off_c, 2, 64, 95
3, 49440, Note_on_c, 2, 59, 95
3, 49920, Note_off_c, 2, 59, 95
3, 49920, Note_on_c, 2, 57, 95
3, 49920, Note_on_c, 2, 52, 95
3, 50400, Note_off_c, 2, 57, 95
3, 50400, Note_off_c, 2, 52, 95
3, 50400, Note_on_c, 2, 59, 95
3, 50880, Note_off_c, 2, 59, 95
3, 50880, Note_on_c, 2, 64, 95
3, 51360, Note_off_c, 2, 64, 95
3, 51360, Note_on_c, 2, 56, 95
3, 51360, Note_on_c, 2, 52, 95
3, 52320, Note_off_c, 2, 56, 95
3, 52320, Note_off_c, 2, 52, 95
3, 52320, Note_on_c, 2, 59, 95
3, 52800, Note_off_c, 2, 59, 95
3, 52800, Note_on_c, 2, 64, 95
3, 53280, Note_off_c, 2, 64, 95
3, 53280, Note_on_c, 2, 59, 95
3, 53760, Note_off_c, 2, 59, 95
3, 53760, Note_on_c, 2, 56, 95
3, 53760, Note_on_c, 2, 52, 95
3, 54240, Note_off_c, 2, 56, 95
3, 54240, Note_off_c, 2, 52, 95
3, 54240, Note_on_c, 2, 56, 95
3, 54720, Note_off_c, 2, 56, 95
3, 54720, Note_on_c, 2, 59, 95
3, 55200, Note_off_c, 2, 59, 95
3, 55200, Note_on_c, 2, 57, 95
3, 55200, Note_on_c, 2, 54, 95
3, 56160, Note_off_c, 2, 57, 95
3, 56160, Note_off_c, 2, 54, 95
3, 56160, Note_on_c, 2, 59, 95
3, 56640, Note_off_c, 2, 59, 95
3, 56640, Note_on_c, 2, 64, 95
3, 57120, Note_off_c, 2, 64, 95
3, 57120, Note_on_c, 2, 59, 95
3, 57600, Note_off_c, 2, 59, 95
3, 57600, Note_on_c, 2, 57, 95
3, 57600, Note_on_c, 2, 52, 95
3, 58080, Note_off_c, 2, 57, 95
3, 58080, Note_off_c, 2, 52, 95
3, 58080, Note_on_c, 2, 59, 95
3, 58560, Note_off_c, 2, 59, 95
3, 58560, Note_on_c, 2, 64, 95
3, 59040, Note_off_c, 2, 64, 95
3, 59040, Note_on_c, 2, 56, 95
3, 59040, Note_on_c, 2, 52, 95
3, 60000, Note_off_c, 2, 56, 95
3, 60000, Note_off_c, 2, 52, 95
3, 60000, Note_on_c, 2, 59, 95
3, 60480, Note_off_c, 2, 59, 95
3, 60480, Note_on_c, 2, 64, 95
3, 60960, Note_off_c, 2, 64, 95
3, 60960, Note_on_c, 2, 59, 95
3, 61440, Note_off_c, 2, 59, 95
3, 61440, Note_on_c, 2, 56, 95
3, 61440, Note_on_c, 2, 52, 95
3, 61920, Note_off_c, 2, 56, 95
3, 61920, Note_off_c, 2, 52, 95
3, 61920, Note_on_c, 2, 56, 95
3, 62400, Note_off_c, 2, 56, 95
3, 62400, Note_on_c, 2, 59, 95
3, 62880, Note_off_c, 2, 59, 95
3, 62880, Note_on_c, 2, 57, 95
3, 62880, Note_on_c, 2, 54, 95
3, 63840, Note_off_c, 2, 57, 95
3, 63840, Note_off_c, 2, 54, 95
3, 63840, Note_on_c, 2, 59, 95
3, 64320, Note_off_c, 2, 59, 95
3, 64320, Note_on_c, 2, 64, 95
3, 64800, Note_off_c, 2, 64, 95
3, 64800, Note_on_c, 2, 59, 95
3, 65280, Note_off_c, 2, 59, 95
3, 65280, Note_on_c, 2, 57, 95
3, 65280, Note_on_c, 2, 52, 95
3, 65760, Note_off_c, 2, 57, 95
3, 65760, Note_off_c, 2, 52, 95
3, 65760, Note_on_c, 2, 59, 95
3, 66240, Note_off_c, 2, 59, 95
3, 66240, Note_on_c, 2, 64, 95
3, 66720, Note_off_c, 2, 64, 95
3, 66720, Note_on_c, 2, 56, 95
3, 66720, Note_on_c, 2, 52, 95
3, 67680, Note_off_c, 2, 56, 95
3, 67680, Note_off_c, 2, 52, 95
3, 67680, Note_on_c, 2, 59, 95
3, 68160, Note_off_c, 2, 59, 95
3, 68160, Note_on_c, 2, 64, 95
3, 68640, Note_off_c, 2, 64, 95
3, 68640, Note_on_c, 2, 59, 95
3, 69120, Note_off_c, 2, 59, 95
3, 69120, Note_on_c, 2, 56, 95
3, 69120, Note_on_c, 2, 52, 95
3, 69600, Note_off_c, 2, 56, 95
3, 69600, Note_off_c, 2, 52, 95
3, 69600, Note_on_c, 2, 56, 95
3, 70080, Note_off_c, 2, 56, 95
3, 70080, Note_on_c, 2, 59, 95
3, 70560, Note_off_c, 2, 59, 95
3, 70560, Note_on_c, 2, 57, 95
3, 70560, Note_on_c, 2, 54, 95
3, 71520, Note_off_c, 2, 57, 95
3, 71520, Note_off_c, 2, 54, 95
3, 71520, Note_on_c, 2, 59, 95
3, 72000, Note_off_c, 2, 59, 95
3, 72000, Note_on_c, 2, 64, 95
3, 72480, Note_off_c, 2, 64, 95
3, 72480, Note_on_c, 2, 59, 95
3, 72960, Note_off_c, 2, 59, 95
3, 72960, Note_on_c, 2, 59, 95
3, 72960, Note_on_c, 2, 61, 95
3, 72960, Note_on_c, 2, 45, 95
3, 73920, Note_off_c, 2, 59, 95
3, 73920, Note_off_c, 2, 61, 95
3, 73920, Note_off_c, 2, 45, 95
3, 73920, Note_on_c, 2, 64, 95
3, 73920, Note_on_c, 2, 59, 95
3, 74400, Note_off_c, 2, 64, 95
3, 74400, Note_off_c, 2, 59, 95
3, 74400, Note_on_c, 2, 64, 95
3, 74400, Note_on_c, 2, 59, 95
3, 74400, Note_on_c, 2, 63, 95
3, 74400, Note_on_c, 2, 47, 95
3, 75360, Note_off_c, 2, 64, 95
3, 75360, Note_off_c, 2, 59, 95
3, 75360, Note_off_c, 2, 63, 95
3, 75360, Note_off_c, 2, 47, 95
3, 75360, Note_on_c, 2, 59, 95
3, 75840, Note_off_c, 2, 59, 95
3, 75840, Note_on_c, 2, 64, 95
3, 76320, Note_off_c, 2, 64, 95
3, 76320, Note_on_c, 2, 59, 95
3, 76800, Note_off_c, 2, 59, 95
3, 76800, Note_on_c, 2, 40, 95
3, 77520, Note_off_c, 2, 40, 95
3, 77520, Note_on_c, 2, 64, 95
3, 77520, Note_on_c, 2, 59, 95
3, 77520, Note_on_c, 2, 56, 95
3, 77760, Note_off_c, 2, 64, 95
3, 77760, Note_off_c, 2, 59, 95
3, 77760, Note_off_c, 2, 56, 95
3, 78240, Note_on_c, 2, 64, 95
3, 78240, Note_on_c, 2, 59, 95
3, 78240, Note_on_c, 2, 56, 95
3, 79200, Note_off_c, 2, 64, 95
3, 79200, Note_off_c, 2, 59, 95
3, 79200, Note_off_c, 2, 56, 95
3, 79200, Note_on_c, 2, 56, 95
3, 79680, Note_off_c, 2, 56, 95
3, 79680, Note_on_c, 2, 64, 95
3, 79680, Note_on_c, 2, 59, 95
3, 80160, Note_off_c, 2, 64, 95
3, 80160, Note_off_c, 2, 59, 95
3, 80160, Note_on_c, 2, 56, 95
3, 80640, Note_off_c, 2, 56, 95
3, 80640, Note_on_c, 2, 49, 95
3, 80644, Note_on_c, 2, 56, 95
3, 80648, Note_on_c, 2, 61, 15
3, 80880, Note_off_c, 2, 61, 15
3, 80880, Note_off_c, 2, 56, 95
3, 80880, Note_off_c, 2, 49, 95
3, 80880, Note_on_c, 2, 64, 15
3, 80884, Note_on_c, 2, 64, 15
3, 80888, Note_on_c, 2, 61, 15
3, 81120, Note_off_c, 2, 64, 15
3, 81120, Note_off_c, 2, 64, 15
3, 81120, Note_off_c, 2, 61, 15
3, 81360, Note_on_c, 2, 64, 15
3, 81364, Note_on_c, 2, 64, 15
3, 81368, Note_on_c, 2, 61, 15
3, 81600, Note_off_c, 2, 64, 15
3, 81600, Note_off_c, 2, 64, 15
3, 81600, Note_off_c, 2, 61, 15
3, 81600, Note_on_c, 2, 49, 95
3, 81604, Note_on_c, 2, 56, 95
3, 81608, Note_on_c, 2, 61, 15
3, 81840, Note_off_c, 2, 61, 15
3, 81840, Note_off_c, 2, 56, 95
3, 81840, Note_off_c, 2, 49, 95
3, 82080, Note_on_c, 2, 49, 95
3, 82084, Note_on_c, 2, 56, 95
3, 82088, Note_on_c, 2, 61, 47
3, 82320, Note_off_c, 2, 61, 47
3, 82320, Note_off_c, 2, 56, 95
3, 82320, Note_off_c, 2, 49, 95
3, 82320, Note_on_c, 2, 64, 15
3, 82324, Note_on_c, 2, 64, 15
3, 82328, Note_on_c, 2, 61, 15
3, 82560, Note_off_c, 2, 64, 15
3, 82560, Note_off_c, 2, 64, 15
3, 82560, Note_off_c, 2, 61, 15
3, 82800, Note_on_c, 2, 64, 15
3, 82804, Note_on_c, 2, 64, 15
3, 82808, Note_on_c, 2, 61, 15
3, 83040, Note_off_c, 2, 64, 15
3, 83040, Note_off_c, 2, 64, 15
3, 83040, Note_off_c, 2, 61, 15
3, 83040, Note_on_c, 2, 49, 95
3, 83044, Note_on_c, 2, 56, 95
3, 83048, Note_on_c, 2, 61, 47
3, 83280, Note_off_c, 2, 61, 47
3, 83280, Note_off_c, 2, 56, 95
3, 83280, Note_off_c, 2, 49, 95
3, 83520, Note_on_c, 2, 49, 95
3, 83524, Note_on_c, 2, 56, 95
3, 83528, Note_on_c, 2, 61, 47
3, 83760, Note_off_c, 2, 61, 47
3, 83760, Note_off_c, 2, 56, 95
3, 83760, Note_off_c, 2, 49, 95
3, 83760, Note_on_c, 2, 64, 15
3, 83764, Note_on_c, 2, 64, 15
3, 83768, Note_on_c, 2, 61, 15
3, 84000, Note_off_c, 2, 64, 15
3, 84000, Note_off_c, 2, 64, 15
3, 84000, Note_off_c, 2, 61, 15
3, 84000, Note_on_c, 2, 49, 15
3, 84004, Note_on_c, 2, 56, 15
3, 84008, Note_on_c, 2, 61, 15
3, 84240, Note_off_c, 2, 61, 15
3, 84240, Note_off_c, 2, 56, 15
3, 84240, Note_off_c, 2, 49, 15
3, 84480, Note_on_c, 2, 47, 95
3, 84484, Note_on_c, 2, 54, 95
3, 84488, Note_on_c, 2, 59, 47
3, 84720, Note_off_c, 2, 59, 47
3, 84720, Note_off_c, 2, 54, 95
3, 84720, Note_off_c, 2, 47, 95
3, 84720, Note_on_c, 2, 64, 15
3, 84724, Note_on_c, 2, 59, 15
3, 84728, Note_on_c, 2, 59, 15
3, 84960, Note_off_c, 2, 64, 15
3, 84960, Note_off_c, 2, 59, 15
3, 84960, Note_off_c, 2, 59, 15
3, 85200, Note_on_c, 2, 64, 15
3, 85204, Note_on_c, 2, 59, 15
3, 85208, Note_on_c, 2, 59, 15
3, 85440, Note_off_c, 2, 64, 15
3, 85440, Note_off_c, 2, 59, 15
3, 85440, Note_off_c, 2, 59, 15
3, 85440, Note_on_c, 2, 47, 95
3, 85444, Note_on_c, 2, 54, 95
3, 85448, Note_on_c, 2, 59, 47
3, 85680, Note_off_c, 2, 59, 47
3, 85680, Note_off_c, 2, 54, 95
3, 85680, Note_off_c, 2, 47, 95
3, 85920, Note_on_c, 2, 47, 95
3, 85924, Note_on_c, 2, 54, 95
3, 85928, Note_on_c, 2, 59, 47
3, 86160, Note_off_c, 2, 59, 47
3, 86160, Note_off_c, 2, 54, 95
3, 86160, Note_off_c, 2, 47, 95
3, 86160, Note_on_c, 2, 64, 15
3, 86164, Note_on_c, 2, 59, 15
3, 86168, Note_on_c, 2, 59, 15
3, 86400, Note_off_c, 2, 64, 15
3, 86400, Note_off_c, 2, 59, 15
3, 86400, Note_off_c, 2, 59, 15
3, 86640, Note_on_c, 2, 64, 15
3, 86644, Note_on_c, 2, 59, 15
3, 86648, Note_on_c, 2, 59, 15
3, 86880, Note_off_c, 2, 64, 15
3, 86880, Note_off_c, 2, 59, 15
3, 86880, Note_off_c, 2, 59, 15
3, 86880, Note_on_c, 2, 47, 95
3, 86884, Note_on_c, 2, 54, 95
3, 86888, Note_on_c, 2, 59, 47
3, 87120, Note_off_c, 2, 59, 47
3, 87120, Note_off_c, 2, 54, 95
3, 87120, Note_off_c, 2, 47, 95
3, 87360, Note_on_c, 2, 47, 95
3, 87364, Note_on_c, 2, 54, 95
3, 87368, Note_on_c, 2, 59, 47
3, 87600, Note_off_c, 2, 59, 47
3, 87600, Note_off_c, 2, 54, 95
3, 87600, Note_off_c, 2, 47, 95
3, 87600, Note_on_c, 2, 64, 15
3, 87604, Note_on_c, 2, 59, 15
3, 87608, Note_on_c, 2, 59, 15
3, 87840, Note_off_c, 2, 64, 15
3, 87840, Note_off_c, 2, 59, 15
3, 87840, Note_off_c, 2, 59, 15
3, 87840, Note_on_c, 2, 47, 47
3, 87844, Note_on_c, 2, 54, 47
3, 87848, Note_on_c, 2, 59, 47
3, 88080, Note_off_c, 2, 59, 47
3, 88080, Note_off_c, 2, 54, 47
3, 88080, Note_off_c, 2, 47, 47
3, 88320, Note_on_c, 2, 49, 95
3, 88324, Note_on_c, 2, 56, 95
3, 88328, Note_on_c, 2, 61, 15
3, 88560, Note_off_c, 2, 61, 15
3, 88560, Note_off_c, 2, 56, 95
3, 88560, Note_off_c, 2, 49, 95
3, 88560, Note_on_c, 2, 64, 15
3, 88564, Note_on_c, 2, 64, 15
3, 88568, Note_on_c, 2, 61, 15
3, 88800, Note_off_c, 2, 64, 15
3, 88800, Note_off_c, 2, 64, 15
3, 88800, Note_off_c, 2, 61, 15
3, 89040, Note_on_c, 2, 64, 15
3, 89044, Note_on_c, 2, 64, 15
3, 89048, Note_on_c, 2, 61, 15
3, 89280, Note_off_c, 2, 64, 15
3, 89280, Note_off_c, 2, 64, 15
3, 89280, Note_off_c, 2, 61, 15
3, 89280, Note_on_c, 2, 49, 95
3, 89284, Note_on_c, 2, 56, 95
3, 89288, Note_on_c, 2, 61, 15
3, 89520, Note_off_c, 2, 61, 15
3, 89520, Note_off_c, 2, 56, 95
3, 89520, Note_off_c, 2, 49, 95
3, 89760, Note_on_c, 2, 49, 95
3, 89764, Note_on_c, 2, 56, 95
3, 89768, Note_on_c, 2, 61, 47
3, 90000, Note_off_c, 2, 61, 47
3, 90000, Note_off_c, 2, 56, 95
3, 90000, Note_off_c, 2, 49, 95
3, 90000, Note_on_c, 2, 64, 15
3, 90004, Note_on_c, 2, 64, 15
3, 90008, Note_on_c, 2, 61, 15
3, 90240, Note_off_c, 2, 64, 15
3, 90240, Note_off_c, 2, 64, 15
3, 90240, Note_off_c, 2, 61, 15
3, 90480, Note_on_c, 2, 64, 15
3, 90484, Note_on_c, 2, 64, 15
3, 90488, Note_on_c, 2, 61, 15
3, 90720, Note_off_c, 2, 64, 15
3, 90720, Note_off_c, 2, 64, 15
3, 90720, Note_off_c, 2, 61, 15
3, 90720, Note_on_c, 2, 49, 95
3, 90724, Note_on_c, 2, 56, 95
3, 90728, Note_on_c, 2, 61, 47
3, 90960, Note_off_c, 2, 61, 47
3, 90960, Note_off_c, 2, 56, 95
3, 90960, Note_off_c, 2, 49, 95
3, 91200, Note_on_c, 2, 49, 95
3, 91204, Note_on_c, 2, 56, 95
3, 91208, Note_on_c, 2, 61, 47
3, 91440, Note_off_c, 2, 61, 47
3, 91440, Note_off_c, 2, 56, 95
3, 91440, Note_off_c, 2, 49, 95
3, 91440, Note_on_c, 2, 64, 15
3, 91444, Note_on_c, 2, 64, 15
3, 91448, Note_on_c, 2, 61, 15
3, 91680, Note_off_c, 2, 64, 15
3, 91680, Note_off_c, 2, 64, 15
3, 91680, Note_off_c, 2, 61, 15
3, 91680, Note_on_c, 2, 49, 15
3, 91684, Note_on_c, 2, 56, 15
3, 91688, Note_on_c, 2, 61, 15
3, 91920, Note_off_c, 2, 61, 15
3, 91920, Note_off_c, 2, 56, 15
3, 91920, Note_off_c, 2, 49, 15
3, 92160, Note_on_c, 2, 47, 95
3, 92164, Note_on_c, 2, 54, 95
3, 92168, Note_on_c, 2, 59, 47
3, 92400, Note_off_c, 2, 59, 47
3, 92400, Note_off_c, 2, 54, 95
3, 92400, Note_off_c, 2, 47, 95
3, 92400, Note_on_c, 2, 64, 15
3, 92404, Note_on_c, 2, 59, 15
3, 92408, Note_on_c, 2, 59, 15
3, 92640, Note_off_c, 2, 64, 15
3, 92640, Note_off_c, 2, 59, 15
3, 92640, Note_off_c, 2, 59, 15
3, 92880, Note_on_c, 2, 64, 15
3, 92884, Note_on_c, 2, 59, 15
3, 92888, Note_on_c, 2, 59, 15
3, 93120, Note_off_c, 2, 64, 15
3, 93120, Note_off_c, 2, 59, 15
3, 93120, Note_off_c, 2, 59, 15
3, 93120, Note_on_c, 2, 47, 95
3, 93124, Note_on_c, 2, 54, 95
3, 93128, Note_on_c, 2, 59, 47
3, 93360, Note_off_c, 2, 59, 47
3, 93360, Note_off_c, 2, 54, 95
3, 93360, Note_off_c, 2, 47, 95
3, 93600, Note_on_c, 2, 47, 95
3, 93604, Note_on_c, 2, 54, 95
3, 93608, Note_on_c, 2, 59, 47
3, 93840, Note_off_c, 2, 59, 47
3, 93840, Note_off_c, 2, 54, 95
3, 93840, Note_off_c, 2, 47, 95
3, 93840, Note_on_c, 2, 64, 15
3, 93844, Note_on_c, 2, 59, 15
3, 93848, Note_on_c, 2, 59, 15
3, 94080, Note_off_c, 2, 64, 15
3, 94080, Note_off_c, 2, 59, 15
3, 94080, Note_off_c, 2, 59, 15
3, 94320, Note_on_c, 2, 64, 15
3, 94324, Note_on_c, 2, 59, 15
3, 94328, Note_on_c, 2, 59, 15
3, 94560, Note_off_c, 2, 64, 15
3, 94560, Note_off_c, 2, 59, 15
3, 94560, Note_off_c, 2, 59, 15
3, 94560, Note_on_c, 2, 47, 95
3, 94564, Note_on_c, 2, 54, 95
3, 94568, Note_on_c, 2, 59, 47
3, 94800, Note_off_c, 2, 59, 47
3, 94800, Note_off_c, 2, 54, 95
3, 94800, Note_off_c, 2, 47, 95
3, 95040, Note_on_c, 2, 47, 95
3, 95044, Note_on_c, 2, 54, 95
3, 95048, Note_on_c, 2, 59, 47
3, 95280, Note_off_c, 2, 59, 47
3, 95280, Note_off_c, 2, 54, 95
3, 95280, Note_off_c, 2, 47, 95
3, 95280, Note_on_c, 2, 64, 15
3, 95284, Note_on_c, 2, 59, 15
3, 95288, Note_on_c, 2, 59, 15
3, 95520, Note_off_c, 2, 64, 15
3, 95520, Note_off_c, 2, 59, 15
3, 95520, Note_off_c, 2, 59, 15
3, 95520, Note_on_c, 2, 47, 47
3, 95524, Note_on_c, 2, 54, 47
3, 95528, Note_on_c, 2, 59, 47
3, 95760, Note_off_c, 2, 59, 47
3, 95760, Note_off_c, 2, 54, 47
3, 95760, Note_off_c, 2, 47, 47
3, 96000, Note_on_c, 2, 49, 95
3, 96004, Note_on_c, 2, 56, 95
3, 96008, Note_on_c, 2, 61, 15
3, 96240, Note_off_c, 2, 61, 15
3, 96240, Note_off_c, 2, 56, 95
3, 96240, Note_off_c, 2, 49, 95
3, 96240, Note_on_c, 2, 64, 15
3, 96244, Note_on_c, 2, 64, 15
3, 96248, Note_on_c, 2, 61, 15
3, 96480, Note_off_c, 2, 64, 15
3, 96480, Note_off_c, 2, 64, 15
3, 96480, Note_off_c, 2, 61, 15
3, 96720, Note_on_c, 2, 64, 15
3, 96724, Note_on_c, 2, 64, 15
3, 96728, Note_on_c, 2, 61, 15
3, 96960, Note_off_c, 2, 64, 15
3, 96960, Note_off_c, 2, 64, 15
3, 96960, Note_off_c, 2, 61, 15
3, 96960, Note_on_c, 2, 49, 95
3, 96964, Note_on_c, 2, 56, 95
3, 96968, Note_on_c, 2, 61, 15
3, 97200, Note_off_c, 2, 61, 15
3, 97200, Note_off_c, 2, 56, 95
3, 97200, Note_off_c, 2, 49, 95
3, 97440, Note_on_c, 2, 49, 95
3, 97444, Note_on_c, 2, 56, 95
3, 97448, Note_on_c, 2, 61, 47
3, 97680, Note_off_c, 2, 61, 47
3, 97680, Note_off_c, 2, 56, 95
3, 97680, Note_off_c, 2, 49, 95
3, 97680, Note_on_c, 2, 64, 15
3, 97684, Note_on_c, 2, 64, 15
3, 97688, Note_on_c, 2, 61, 15
3, 97920, Note_off_c, 2, 64, 15
3, 97920, Note_off_c, 2, 64, 15
3, 97920, Note_off_c, 2, 61, 15
3, 98160, Note_on_c, 2, 64, 15
3, 98164, Note_on_c, 2, 64, 15
3, 98168, Note_on_c, 2, 61, 15
3, 98400, Note_off_c, 2, 64, 15
3, 98400, Note_off_c, 2, 64, 15
3, 98400, Note_off_c, 2, 61, 15
3, 98400, Note_on_c, 2, 49, 95
3, 98404, Note_on_c, 2, 56, 95
3, 98408, Note_on_c, 2, 61, 47
3, 98640, Note_off_c, 2, 61, 47
3, 98640, Note_off_c, 2, 56, 95
3, 98640, Note_off_c, 2, 49, 95
3, 98880, Note_on_c, 2, 49, 95
3, 98884, Note_on_c, 2, 56, 95
3, 98888, Note_on_c, 2, 61, 47
3, 99120, Note_off_c, 2, 61, 47
3, 99120, Note_off_c, 2, 56, 95
3, 99120, Note_off_c, 2, 49, 95
3, 99120, Note_on_c, 2, 64, 15
3, 99124, Note_on_c, 2, 64, 15
3, 99128, Note_on_c, 2, 61, 15
3, 99360, Note_off_c, 2, 64, 15
3, 99360, Note_off_c, 2, 64, 15
3, 99360, Note_off_c, 2, 61, 15
3, 99360, Note_on_c, 2, 49, 15
3, 99364, Note_on_c, 2, 56, 15
3, 99368, Note_on_c, 2, 61, 15
3, 99600, Note_off_c, 2, 61, 15
3, 99600, Note_off_c, 2, 56, 15
3, 99600, Note_off_c, 2, 49, 15
3, 99840, Note_on_c, 2, 47, 95
3, 99844, Note_on_c, 2, 54, 95
3, 99848, Note_on_c, 2, 59, 47
3, 100080, Note_off_c, 2, 59, 47
3, 100080, Note_off_c, 2, 54, 95
3, 100080, Note_off_c, 2, 47, 95
3, 100080, Note_on_c, 2, 64, 15
3, 100084, Note_on_c, 2, 59, 15
3, 100088, Note_on_c, 2, 59, 15
3, 100320, Note_off_c, 2, 64, 15
3, 100320, Note_off_c, 2, 59, 15
3, 100320, Note_off_c, 2, 59, 15
3, 100560, Note_on_c, 2, 64, 15
3, 100564, Note_on_c, 2, 59, 15
3, 100568, Note_on_c, 2, 59, 15
3, 100800, Note_off_c, 2, 64, 15
3, 100800, Note_off_c, 2, 59, 15
3, 100800, Note_off_c, 2, 59, 15
3, 100800, Note_on_c, 2, 47, 95
3, 100804, Note_on_c, 2, 54, 95
3, 100808, Note_on_c, 2, 59, 47
3, 101040, Note_off_c, 2, 59, 47
3, 101040, Note_off_c, 2, 54, 95
3, 101040, Note_off_c, 2, 47, 95
3, 101280, Note_on_c, 2, 47, 95
3, 101284, Note_on_c, 2, 54, 95
3, 101288, Note_on_c, 2, 59, 47
3, 101520, Note_off_c, 2, 59, 47
3, 101520, Note_off_c, 2, 54, 95
3, 101520, Note_off_c, 2, 47, 95
3, 101520, Note_on_c, 2, 64, 15
3, 101524, Note_on_c, 2, 59, 15
3, 101528, Note_on_c, 2, 59, 15
3, 101760, Note_off_c, 2, 64, 15
3, 101760, Note_off_c, 2, 59, 15
3, 101760, Note_off_c, 2, 59, 15
3, 102000, Note_on_c, 2, 64, 15
3, 102004, Note_on_c, 2, 59, 15
3, 102008, Note_on_c, 2, 59, 15
3, 102240, Note_off_c, 2, 64, 15
3, 102240, Note_off_c, 2, 59, 15
3, 102240, Note_off_c, 2, 59, 15
3, 102240, Note_on_c, 2, 47, 95
3, 102244, Note_on_c, 2, 54, 95
3, 102248, Note_on_c, 2, 59, 47
3, 102480, Note_off_c, 2, 59, 47
3, 102480, Note_off_c, 2, 54, 95
3, 102480, Note_off_c, 2, 47, 95
3, 102720, Note_on_c, 2, 47, 95
3, 102724, Note_on_c, 2, 54, 95
3, 102728, Note_on_c, 2, 59, 47
3, 102960, Note_off_c, 2, 59, 47
3, 102960, Note_off_c, 2, 54, 95
3, 102960, Note_off_c, 2, 47, 95
3, 102960, Note_on_c, 2, 64, 15
3, 102964, Note_on_c, 2, 59, 15
3, 102968, Note_on_c, 2, 59, 15
3, 103200, Note_off_c, 2, 64, 15
3, 103200, Note_off_c, 2, 59, 15
3, 103200, Note_off_c, 2, 59, 15
3, 103200, Note_on_c, 2, 47, 47
3, 103204, Note_on_c, 2, 54, 47
3, 103208, Note_on_c, 2, 59, 47
3, 103440, Note_off_c, 2, 59, 47
3, 103440, Note_off_c, 2, 54, 47
3, 103440, Note_off_c, 2, 47, 47
3, 103680, Note_on_c, 2, 64, 95
3, 103680, Note_on_c, 2, 61, 95
3, 103680, Note_on_c, 2, 57, 95
3, 103680, Note_on_c, 2, 54, 95
3, 103680, Note_on_c, 2, 49, 95
3, 105600, Note_off_c, 2, 64, 95
3, 105600, Note_off_c, 2, 61, 95
3, 105600, Note_off_c, 2, 57, 95
3, 105600, Note_off_c, 2, 54, 95
3, 105600, Note_off_c, 2, 49, 95
3, 105600, Note_on_c, 2, 61, 95
3, 105600, Note_on_c, 2, 57, 95
3, 105600, Note_on_c, 2, 52, 95
3, 105600, Note_on_c, 2, 45, 95
3, 107520, Note_off_c, 2, 61, 95
3, 107520, Note_off_c, 2, 57, 95
3, 107520, Note_off_c, 2, 52, 95
3, 107520, Note_off_c, 2, 45, 95
3, 107520, Note_on_c, 2, 64, 95
3, 107520, Note_on_c, 2, 59, 95
3, 107520, Note_on_c, 2, 59, 95
3, 107520, Note_on_c, 2, 54, 95
3, 107520, Note_on_c, 2, 47, 95
3, 109440, Note_off_c, 2, 64, 95
3, 109440, Note_off_c, 2, 59, 95
3, 109440, Note_off_c, 2, 59, 95
3, 109440, Note_off_c, 2, 54, 95
3, 109440, Note_off_c, 2, 47, 95
3, 109920, Note_on_c, 2, 64, 95
3, 110400, Note_off_c, 2, 64, 95
3, 110400, Note_on_c, 2, 59, 95
3, 110880, Note_off_c, 2, 59, 95
3, 110880, Note_on_c, 2, 63, 95
3, 111360, Note_off_c, 2, 63, 95
3, 111360, Note_on_c, 2, 56, 95
3, 111360, Note_on_c, 2, 52, 95
3, 111840, Note_off_c, 2, 56, 95
3, 111840, Note_off_c, 2, 52, 95
3, 111840, Note_on_c, 2, 56, 95
3, 112320, Note_off_c, 2, 56, 95
3, 112320, Note_on_c, 2, 59, 95
3, 112800, Note_off_c, 2, 59, 95
3, 112800, Note_on_c, 2, 57, 95
3, 112800, Note_on_c, 2, 54, 95
3, 113760, Note_off_c, 2, 57, 95
3, 113760, Note_off_c, 2, 54, 95
3, 113760, Note_on_c, 2, 59, 95
3, 114240, Note_off_c, 2, 59, 95
3, 114240, Note_on_c, 2, 64, 95
3, 114720, Note_off_c, 2, 64, 95
3, 114720, Note_on_c, 2, 59, 95
3, 115200, Note_off_c, 2, 59, 95
3, 115200, Note_on_c, 2, 57, 95
3, 115200, Note_on_c, 2, 52, 95
3, 115680, Note_off_c, 2, 57, 95
3, 115680, Note_off_c, 2, 52, 95
3, 115680, Note_on_c, 2, 59, 95
3, 116160, Note_off_c, 2, 59, 95
3, 116160, Note_on_c, 2, 64, 95
3, 116640, Note_off_c, 2, 64, 95
3, 116640, Note_on_c, 2, 56, 95
3, 116640, Note_on_c, 2, 52, 95
3, 117600, Note_off_c, 2, 56, 95
3, 117600, Note_off_c, 2, 52, 95
3, 117600, Note_on_c, 2, 59, 95
3, 118080, Note_off_c, 2, 59, 95
3, 118080, Note_on_c, 2, 64, 95
3, 118560, Note_off_c, 2, 64, 95
3, 118560, Note_on_c, 2, 59, 95
3, 119040, Note_off_c, 2, 59, 95
3, 119040, Note_on_c, 2, 56, 95
3, 119040, Note_on_c, 2, 52, 95
3, 119520, Note_off_c, 2, 56, 95
3, 119520, Note_off_c, 2, 52, 95
3, 119520, Note_on_c, 2, 56, 95
3, 120000, Note_off_c, 2, 56, 95
3, 120000, Note_on_c, 2, 59, 95
3, 120480, Note_off_c, 2, 59, 95
3, 120480, Note_on_c, 2, 57, 95
3, 120480, Note_on_c, 2, 54, 95
3, 121440, Note_off_c, 2, 57, 95
3, 121440, Note_off_c, 2, 54, 95
3, 121440, Note_on_c, 2, 59, 95
3, 121920, Note_off_c, 2, 59, 95
3, 121920, Note_on_c, 2, 64, 95
3, 122400, Note_off_c, 2, 64, 95
3, 122400, Note_on_c, 2, 59, 95
3, 122880, Note_off_c, 2, 59, 95
3, 122880, Note_on_c, 2, 57, 95
3, 122880, Note_on_c, 2, 52, 95
3, 123360, Note_off_c, 2, 57, 95
3, 123360, Note_off_c, 2, 52, 95
3, 123360, Note_on_c, 2, 59, 95
3, 123840, Note_off_c, 2, 59, 95
3, 123840, Note_on_c, 2, 64, 95
3, 124320, Note_off_c, 2, 64, 95
3, 124320, Note_on_c, 2, 56, 95
3, 124320, Note_on_c, 2, 52, 95
3, 125280, Note_off_c, 2, 56, 95
3, 125280, Note_off_c, 2, 52, 95
3, 125280, Note_on_c, 2, 59, 95
3, 125760, Note_off_c, 2, 59, 95
3, 125760, Note_on_c, 2, 64, 95
3, 126240, Note_off_c, 2, 64, 95
3, 126240, Note_on_c, 2, 59, 95
3, 126720, Note_off_c, 2, 59, 95
3, 126720, Note_on_c, 2, 56, 95
3, 126720, Note_on_c, 2, 52, 95
3, 127200, Note_off_c, 2, 56, 95
3, 127200, Note_off_c, 2, 52, 95
3, 127200, Note_on_c, 2, 56, 95
3, 127680, Note_off_c, 2, 56, 95
3, 127680, Note_on_c, 2, 59, 95
3, 128160, Note_off_c, 2, 59, 95
3, 128160, Note_on_c, 2, 57, 95
3, 128160, Note_on_c, 2, 54, 95
3, 129120, Note_off_c, 2, 57, 95
3, 129120, Note_off_c, 2, 54, 95
3, 129120, Note_on_c, 2, 59, 95
3, 129600, Note_off_c, 2, 59, 95
3, 129600, Note_on_c, 2, 64, 95
3, 130080, Note_off_c, 2, 64, 95
3, 130080, Note_on_c, 2, 59, 95
3, 130560, Note_off_c, 2, 59, 95
3, 130560, Note_on_c, 2, 57, 95
3, 130560, Note_on_c, 2, 52, 95
3, 131040, Note_off_c, 2, 57, 95
3, 131040, Note_off_c, 2, 52, 95
3, 131040, Note_on_c, 2, 59, 95
3, 131520, Note_off_c, 2, 59, 95
3, 131520, Note_on_c, 2, 64, 95
3, 132000, Note_off_c, 2, 64, 95
3, 132000, Note_on_c, 2, 56, 95
3, 132000, Note_on_c, 2, 52, 95
3, 132960, Note_off_c, 2, 56, 95
3, 132960, Note_off_c, 2, 52, 95
3, 132960, Note_on_c, 2, 59, 95
3, 133440, Note_off_c, 2, 59, 95
3, 133440, Note_on_c, 2, 64, 95
3, 133920, Note_off_c, 2, 64, 95
3, 133920, Note_on_c, 2, 59, 95
3, 134400, Note_off_c, 2, 59, 95
3, 134400, Note_on_c, 2, 56, 95
3, 134400, Note_on_c, 2, 52, 95
3, 134880, Note_off_c, 2, 56, 95
3, 134880, Note_off_c, 2, 52, 95
3, 134880, Note_on_c, 2, 56, 95
3, 135360, Note_off_c, 2, 56, 95
3, 135360, Note_on_c, 2, 59, 95
3, 135840, Note_off_c, 2, 59, 95
3, 135840, Note_on_c, 2, 57, 95
3, 135840, Note_on_c, 2, 54, 95
3, 136800, Note_off_c, 2, 57, 95
3, 136800, Note_off_c, 2, 54, 95
3, 136800, Note_on_c, 2, 59, 95
3, 137280, Note_off_c, 2, 59, 95
3, 137280, Note_on_c, 2, 64, 95
3, 137760, Note_off_c, 2, 64, 95
3, 137760, Note_on_c, 2, 59, 95
3, 138240, Note_off_c, 2, 59, 95
3, 138240, Note_on_c, 2, 57, 95
3, 138240, Note_on_c, 2, 52, 95
3, 138720, Note_off_c, 2, 57, 95
3, 138720, Note_off_c, 2, 52, 95
3, 138720, Note_on_c, 2, 59, 95
3, 139200, Note_off_c, 2, 59, 95
3, 139200, Note_on_c, 2, 64, 95
3, 139680, Note_off_c, 2, 64, 95
3, 139680, Note_on_c, 2, 56, 95
3, 139680, Note_on_c, 2, 52, 95
3, 140640, Note_off_c, 2, 56, 95
3, 140640, Note_off_c, 2, 52, 95
3, 140640, Note_on_c, 2, 59, 95
3, 141120, Note_off_c, 2, 59, 95
3, 141120, Note_on_c, 2, 64, 95
3, 141600, Note_off_c, 2, 64, 95
3, 141600, Note_on_c, 2, 59, 95
3, 142080, Note_off_c, 2, 59, 95
3, 142080, Note_on_c, 2, 56, 95
3, 142080, Note_on_c, 2, 52, 95
3, 142560, Note_off_c, 2, 56, 95
3, 142560, Note_off_c, 2, 52, 95
3, 142560, Note_on_c, 2, 56, 95
3, 143040, Note_off_c, 2, 56, 95
3, 143040, Note_on_c, 2, 59, 95
3, 143520, Note_off_c, 2, 59, 95
3, 143520, Note_on_c, 2, 57, 95
3, 143520, Note_on_c, 2, 54, 95
3, 144480, Note_off_c, 2, 57, 95
3, 144480, Note_off_c, 2, 54, 95
3, 144480, Note_on_c, 2, 59, 95
3, 144960, Note_off_c, 2, 59, 95
3, 144960, Note_on_c, 2, 64, 95
3, 145440, Note_off_c, 2, 64, 95
3, 145440, Note_on_c, 2, 59, 95
3, 145920, Note_off_c, 2, 59, 95
3, 145920, Note_on_c, 2, 57, 95
3, 145920, Note_on_c, 2, 52, 95
3, 146400, Note_off_c, 2, 57, 95
3, 146400, Note_off_c, 2, 52, 95
3, 146400, Note_on_c, 2, 59, 95
3, 146880, Note_off_c, 2, 59, 95
3, 146880, Note_on_c, 2, 64, 95
3, 147360, Note_off_c, 2, 64, 95
3, 147360, Note_on_c, 2, 56, 95
3, 147360, Note_on_c, 2, 52, 95
3, 148320, Note_off_c, 2, 56, 95
3, 148320, Note_off_c, 2, 52, 95
3, 148320, Note_on_c, 2, 59, 95
3, 148800, Note_off_c, 2, 59, 95
3, 148800, Note_on_c, 2, 64, 95
3, 149280, Note_off_c, 2, 64, 95
3, 149280, Note_on_c, 2, 59, 95
3, 149760, Note_off_c, 2, 59, 95
3, 149760, Note_on_c, 2, 56, 95
3, 149760, Note_on_c, 2, 52, 95
3, 150240, Note_off_c, 2, 56, 95
3, 150240, Note_off_c, 2, 52, 95
3, 150240, Note_on_c, 2, 56, 95
3, 150720, Note_off_c, 2, 56, 95
3, 150720, Note_on_c, 2, 59, 95
3, 151200, Note_off_c, 2, 59, 95
3, 151200, Note_on_c, 2, 57, 95
3, 151200, Note_on_c, 2, 54, 95
3, 152160, Note_off_c, 2, 57, 95
3, 152160, Note_off_c, 2, 54, 95
3, 152160, Note_on_c, 2, 59, 95
3, 152640, Note_off_c, 2, 59, 95
3, 152640, Note_on_c, 2, 64, 95
3, 153120, Note_off_c, 2, 64, 95
3, 153120, Note_on_c, 2, 59, 95
3, 153600, Note_off_c, 2, 59, 95
3, 153600, Note_on_c, 2, 59, 95
3, 153600, Note_on_c, 2, 61, 95
3, 153600, Note_on_c, 2, 45, 95
3, 154560, Note_off_c, 2, 59, 95
3, 154560, Note_off_c, 2, 61, 95
3, 154560, Note_off_c, 2, 45, 95
3, 154560, Note_on_c, 2, 64, 95
3, 154560, Note_on_c, 2, 59, 95
3, 155040, Note_off_c, 2, 64, 95
3, 155040, Note_off_c, 2, 59, 95
3, 155040, Note_on_c, 2, 64, 95
3, 155040, Note_on_c, 2, 59, 95
3, 155040, Note_on_c, 2, 63, 95
3, 155040, Note_on_c, 2, 47, 95
3, 156000, Note_off_c, 2, 64, 95
3, 156000, Note_off_c, 2, 59, 95
3, 156000, Note_off_c, 2, 63, 95
3, 156000, Note_off_c, 2, 47, 95
3, 156000, Note_on_c, 2, 59, 95
3, 156480, Note_off_c, 2, 59, 95
3, 156480, Note_on_c, 2, 64, 95
3, 156960, Note_off_c, 2, 64, 95
3, 156960, Note_on_c, 2, 59, 95
3, 157440, Note_off_c, 2, 59, 95
3, 157440, Note_on_c, 2, 40, 95
3, 158160, Note_off_c, 2, 40, 95
3, 158160, Note_on_c, 2, 64, 95
3, 158160, Note_on_c, 2, 59, 95
3, 158160, Note_on_c, 2, 56, 95
3, 158400, Note_off_c, 2, 64, 95
3, 158400, Note_off_c, 2, 59, 95
3, 158400, Note_off_c, 2, 56, 95
3, 158880, Note_on_c, 2, 64, 95
3, 158880, Note_on_c, 2, 59, 95
3, 158880, Note_on_c, 2, 56, 95
3, 159840, Note_off_c, 2, 64, 95
3, 159840, Note_off_c, 2, 59, 95
3, 159840, Note_off_c, 2, 56, 95
3, 159840, Note_on_c, 2, 56, 95
3, 160320, Note_off_c, 2, 56, 95
3, 160320, Note_on_c, 2, 64, 95
3, 160320, Note_on_c, 2, 59, 95
3, 160800, Note_off_c, 2, 64, 95
3, 160800, Note_off_c, 2, 59, 95
3, 160800, Note_on_c, 2, 56, 95
3, 161280, Note_off_c, 2, 56, 95
3, 161280, Note_on_c, 2, 49, 95
3, 161284, Note_on_c, 2, 56, 95
3, 161288, Note_on_c, 2, 61, 15
3, 161520, Note_off_c, 2, 61, 15
3, 161520, Note_off_c, 2, 56, 95
3, 161520, Note_off_c, 2, 49, 95
3, 161520, Note_on_c, 2, 64, 15
3, 161524, Note_on_c, 2, 64, 15
3, 161528, Note_on_c, 2, 61, 15
3, 161760, Note_off_c, 2, 64, 15
3, 161760, Note_off_c, 2, 64, 15
3, 161760, Note_off_c, 2, 61, 15
3, 162000, Note_on_c, 2, 64, 15
3, 162004, Note_on_c, 2, 64, 15
3, 162008, Note_on_c, 2, 61, 15
3, 162240, Note_off_c, 2, 64, 15
3, 162240, Note_off_c, 2, 64, 15
3, 162240, Note_off_c, 2, 61, 15
3, 162240, Note_on_c, 2, 49, 95
3, 162244, Note_on_c, 2, 56, 95
3, 162248, Note_on_c, 2, 61, 15
3, 162480, Note_off_c, 2, 61, 15
3, 162480, Note_off_c, 2, 56, 95
3, 162480, Note_off_c, 2, 49, 95
3, 162720, Note_on_c, 2, 49, 95
3, 162724, Note_on_c, 2, 56, 95
3, 162728, Note_on_c, 2, 61, 47
3, 162960, Note_off_c, 2, 61, 47
3, 162960, Note_off_c, 2, 56, 95
3, 162960, Note_off_c, 2, 49, 95
3, 162960, Note_on_c, 2, 64, 15
3, 162964, Note_on_c, 2, 64, 15
3, 162968, Note_on_c, 2, 61, 15
3, 163200, Note_off_c, 2, 64, 15
3, 163200, Note_off_c, 2, 64, 15
3, 163200, Note_off_c, 2, 61, 15
3, 163440, Note_on_c, 2, 64, 15
3, 163444, Note_on_c, 2, 64, 15
3, 163448, Note_on_c, 2, 61, 15
3, 163680, Note_off_c, 2, 64, 15
3, 163680, Note_off_c, 2, 64, 15
3, 163680, Note_off_c, 2, 61, 15
3, 163680, Note_on_c, 2, 49, 95
3, 163684, Note_on_c, 2, 56, 95
3, 163688, Note_on_c, 2, 61, 47
3, 163920, Note_off_c, 2, 61, 47
3, 163920, Note_off_c, 2, 56, 95
3, 163920, Note_off_c, 2, 49, 95
3, 164160, Note_on_c, 2, 49, 95
3, 164164, Note_on_c, 2, 56, 95
3, 164168, Note_on_c, 2, 61, 47
3, 164400, Note_off_c, 2, 61, 47
3, 164400, Note_off_c, 2, 56, 95
3, 164400, Note_off_c, 2, 49, 95
3, 164400, Note_on_c, 2, 64, 15
3, 164404, Note_on_c, 2, 64, 15
3, 164408, Note_on_c, 2, 61, 15
3, 164640, Note_off_c, 2, 64, 15
3, 164640, Note_off_c, 2, 64, 15
3, 164640, Note_off_c, 2, 61, 15
3, 164640, Note_on_c, 2, 49, 15
3, 164644, Note_on_c, 2, 56, 15
3, 164648, Note_on_c, 2, 61, 15
3, 164880, Note_off_c, 2, 61, 15
3, 164880, Note_off_c, 2, 56, 15
3, 164880, Note_off_c, 2, 49, 15
3, 165120, Note_on_c, 2, 47, 95
3, 165124, Note_on_c, 2, 54, 95
3, 165128, Note_on_c, 2, 59, 47
3, 165360, Note_off_c, 2, 59, 47
3, 165360, Note_off_c, 2, 54, 95
3, 165360, Note_off_c, 2, 47, 95
3, 165360, Note_on_c, 2, 64, 15
3, 165364, Note_on_c, 2, 59, 15
3, 165368, Note_on_c, 2, 59, 15
3, 165600, Note_off_c, 2, 64, 15
3, 165600, Note_off_c, 2, 59, 15
3, 165600, Note_off_c, 2, 59, 15
3, 165840, Note_on_c, 2, 64, 15
3, 165844, Note_on_c, 2, 59, 15
3, 165848, Note_on_c, 2, 59, 15
3, 166080, Note_off_c, 2, 64, 15
3, 166080, Note_off_c, 2, 59, 15
3, 166080, Note_off_c, 2, 59, 15
3, 166080, Note_on_c, 2, 47, 95
3, 166084, Note_on_c, 2, 54, 95
3, 166088, Note_on_c, 2, 59, 47
3, 166320, Note_off_c, 2, 59, 47
3, 166320, Note_off_c, 2, 54, 95
3, 166320, Note_off_c, 2, 47, 95
3, 166560, Note_on_c, 2, 47, 95
3, 166564, Note_on_c, 2, 54, 95
3, 166568, Note_on_c, 2, 59, 47
3, 166800, Note_off_c, 2, 59, 47
3, 166800, Note_off_c, 2, 54, 95
3, 166800, Note_off_c, 2, 47, 95
3, 166800, Note_on_c, 2, 64, 15
3, 166804, Note_on_c, 2, 59, 15
3, 166808, Note_on_c, 2, 59, 15
3, 167040, Note_off_c, 2, 64, 15
3, 167040, Note_off_c, 2, 59, 15
3, 167040, Note_off_c, 2, 59, 15
3, 167280, Note_on_c, 2, 64, 15
3, 167284, Note_on_c, 2, 59, 15
3, 167288, Note_on_c, 2, 59, 15
3, 167520, Note_off_c, 2, 64, 15
3, 167520, Note_off_c, 2, 59, 15
3, 167520, Note_off_c, 2, 59, 15
3, 167520, Note_on_c, 2, 47, 95
3, 167524, Note_on_c, 2, 54, 95
3, 167528, Note_on_c, 2, 59, 47
3, 167760, Note_off_c, 2, 59, 47
3, 167760, Note_off_c, 2, 54, 95
3, 167760, Note_off_c, 2, 47, 95
3, 168000, Note_on_c, 2, 47, 95
3, 168004, Note_on_c, 2, 54, 95
3, 168008, Note_on_c, 2, 59, 47
3, 168240, Note_off_c, 2, 59, 47
3, 168240, Note_off_c, 2, 54, 95
3, 168240, Note_off_c, 2, 47, 95
3, 168240, Note_on_c, 2, 64, 15
3, 168244, Note_on_c, 2, 59, 15
3, 168248, Note_on_c, 2, 59, 15
3, 168480, Note_off_c, 2, 64, 15
3, 168480, Note_off_c, 2, 59, 15
3, 168480, Note_off_c, 2, 59, 15
3, 168480, Note_on_c, 2, 47, 47
3, 168484, Note_on_c, 2, 54, 47
3, 168488, Note_on_c, 2, 59, 47
3, 168720, Note_off_c, 2, 59, 47
3, 168720, Note_off_c, 2, 54, 47
3, 168720, Note_off_c, 2, 47, 47
3, 168960, Note_on_c, 2, 49, 95
3, 168964, Note_on_c, 2, 56, 95
3, 168968, Note_on_c, 2, 61, 15
3, 169200, Note_off_c, 2, 61, 15
3, 169200, Note_off_c, 2, 56, 95
3, 169200, Note_off_c, 2, 49, 95
3, 169200, Note_on_c, 2, 64, 15
3, 169204, Note_on_c, 2, 64, 15
3, 169208, Note_on_c, 2, 61, 15
3, 169440, Note_off_c, 2, 64, 15
3, 169440, Note_off_c, 2, 64, 15
3, 169440, Note_off_c, 2, 61, 15
3, 169680, Note_on_c, 2, 64, 15
3, 169684, Note_on_c, 2, 64, 15
3, 169688, Note_on_c, 2, 61, 15
3, 169920, Note_off_c, 2, 64, 15
3, 169920, Note_off_c, 2, 64, 15
3, 169920, Note_off_c, 2, 61, 15
3, 169920, Note_on_c, 2, 49, 95
3, 169924, Note_on_c, 2, 56, 95
3, 169928, Note_on_c, 2, 61, 15
3, 170160, Note_off_c, 2, 61, 15
3, 170160, Note_off_c, 2, 56, 95
3, 170160, Note_off_c, 2, 49, 95
3, 170400, Note_on_c, 2, 49, 95
3, 170404, Note_on_c, 2, 56, 95
3, 170408, Note_on_c, 2, 61, 47
3, 170640, Note_off_c, 2, 61, 47
3, 170640, Note_off_c, 2, 56, 95
3, 170640, Note_off_c, 2, 49, 95
3, 170640, Note_on_c, 2, 64, 15
3, 170644, Note_on_c, 2, 64, 15
3, 170648, Note_on_c, 2, 61, 15
3, 170880, Note_off_c, 2, 64, 15
3, 170880, Note_off_c, 2, 64, 15
3, 170880, Note_off_c, 2, 61, 15
3, 171120, Note_on_c, 2, 64, 15
3, 171124, Note_on_c, 2, 64, 15
3, 171128, Note_on_c, 2, 61, 15
3, 171360, Note_off_c, 2, 64, 15
3, 171360, Note_off_c, 2, 64, 15
3, 171360, Note_off_c, 2, 61, 15
3, 171360, Note_on_c, 2, 49, 95
3, 171364, Note_on_c, 2, 56, 95
3, 171368, Note_on_c, 2, 61, 47
3, 171600, Note_off_c, 2, 61, 47
3, 171600, Note_off_c, 2, 56, 95
3, 171600, Note_off_c, 2, 49, 95
3, 171840, Note_on_c, 2, 49, 95
3, 171844, Note_on_c, 2, 56, 95
3, 171848, Note_on_c, 2, 61, 47
3, 172080, Note_off_c, 2, 61, 47
3, 172080, Note_off_c, 2, 56, 95
3, 172080, Note_off_c, 2, 49, 95
3, 172080, Note_on_c, 2, 64, 15
3, 172084, Note_on_c, 2, 64, 15
3, 172088, Note_on_c, 2, 61, 15
3, 172320, Note_off_c, 2, 64, 15
3, 172320, Note_off_c, 2, 64, 15
3, 172320, Note_off_c, 2, 61, 15
3, 172320, Note_on_c, 2, 49, 15
3, 172324, Note_on_c, 2, 56, 15
3, 172328, Note_on_c, 2, 61, 15
3, 172560, Note_off_c, 2, 61, 15
3, 172560, Note_off_c, 2, 56, 15
3, 172560, Note_off_c, 2, 49, 15
3, 172800, Note_on_c, 2, 47, 95
3, 172804, Note_on_c, 2, 54, 95
3, 172808, Note_on_c, 2, 59, 47
3, 173040, Note_off_c, 2, 59, 47
3, 173040, Note_off_c, 2, 54, 95
3, 173040, Note_off_c, 2, 47, 95
3, 173040, Note_on_c, 2, 64, 15
3, 173044, Note_on_c, 2, 59, 15
3, 173048, Note_on_c, 2, 59, 15
3, 173280, Note_off_c, 2, 64, 15
3, 173280, Note_off_c, 2, 59, 15
3, 173280, Note_off_c, 2, 59, 15
3, 173520, Note_on_c, 2, 64, 15
3, 173524, Note_on_c, 2, 59, 15
3, 173528, Note_on_c, 2, 59, 15
3, 173760, Note_off_c, 2, 64, 15
3, 173760, Note_off_c, 2, 59, 15
3, 173760, Note_off_c, 2, 59, 15
3, 173760, Note_on_c, 2, 47, 95
3, 173764, Note_on_c, 2, 54, 95
3, 173768, Note_on_c, 2, 59, 47
3, 174000, Note_off_c, 2, 59, 47
3, 174000, Note_off_c, 2, 54, 95
3, 174000, Note_off_c, 2, 47, 95
3, 174240, Note_on_c, 2, 47, 95
3, 174244, Note_on_c, 2, 54, 95
3, 174248, Note_on_c, 2, 59, 47
3, 174480, Note_off_c, 2, 59, 47
3, 174480, Note_off_c, 2, 54, 95
3, 174480, Note_off_c, 2, 47, 95
3, 174480, Note_on_c, 2, 64, 15
3, 174484, Note_on_c, 2, 59, 15
3, 174488, Note_on_c, 2, 59, 15
3, 174720, Note_off_c, 2, 64, 15
3, 174720, Note_off_c, 2, 59, 15
3, 174720, Note_off_c, 2, 59, 15
3, 174960, Note_on_c, 2, 64, 15
3, 174964, Note_on_c, 2, 59, 15
3, 174968, Note_on_c, 2, 59, 15
3, 175200, Note_off_c, 2, 64, 15
3, 175200, Note_off_c, 2, 59, 15
3, 175200, Note_off_c, 2, 59, 15
3, 175200, Note_on_c, 2, 47, 95
3, 175204, Note_on_c, 2, 54, 95
3, 175208, Note_on_c, 2, 59, 47
3, 175440, Note_off_c, 2, 59, 47
3, 175440, Note_off_c, 2, 54, 95
3, 175440, Note_off_c, 2, 47, 95
3, 175680, Note_on_c, 2, 47, 95
3, 175684, Note_on_c, 2, 54, 95
3, 175688, Note_on_c, 2, 59, 47
3, 175920, Note_off_c, 2, 59, 47
3, 175920, Note_off_c, 2, 54, 95
3, 175920, Note_off_c, 2, 47, 95
3, 175920, Note_on_c, 2, 64, 15
3, 175924, Note_on_c, 2, 59, 15
3, 175928, Note_on_c, 2, 59, 15
3, 176160, Note_off_c, 2, 64, 15
3, 176160, Note_off_c, 2, 59, 15
3, 176160, Note_off_c, 2, 59, 15
3, 176160, Note_on_c, 2, 47, 47
3, 176164, Note_on_c, 2, 54, 47
3, 176168, Note_on_c, 2, 59, 47
3, 176400, Note_off_c, 2, 59, 47
3, 176400, Note_off_c, 2, 54, 47
3, 176400, Note_off_c, 2, 47, 47
3, 176640, Note_on_c, 2, 49, 95
3, 176644, Note_on_c, 2, 56, 95
3, 176648, Note_on_c, 2, 61, 15
3, 176880, Note_off_c, 2, 61, 15
3, 176880, Note_off_c, 2, 56, 95
3, 176880, Note_off_c, 2, 49, 95
3, 176880, Note_on_c, 2, 64, 15
3, 176884, Note_on_c, 2, 64, 15
3, 176888, Note_on_c, 2, 61, 15
3, 177120, Note_off_c, 2, 64, 15
3, 177120, Note_off_c, 2, 64, 15
3, 177120, Note_off_c, 2, 61, 15
3, 177360, Note_on_c, 2, 64, 15
3, 177364, Note_on_c, 2, 64, 15
3, 177368, Note_on_c, 2, 61, 15
3, 177600, Note_off_c, 2, 64, 15
3, 177600, Note_off_c, 2, 64, 15
3, 177600, Note_off_c, 2, 61, 15
3, 177600, Note_on_c, 2, 49, 95
3, 177604, Note_on_c, 2, 56, 95
3, 177608, Note_on_c, 2, 61, 15
3, 177840, Note_off_c, 2, 61, 15
3, 177840, Note_off_c, 2, 56, 95
3, 177840, Note_off_c, 2, 49, 95
3, 178080, Note_on_c, 2, 49, 95
3, 178084, Note_on_c, 2, 56, 95
3, 178088, Note_on_c, 2, 61, 47
3, 178320, Note_off_c, 2, 61, 47
3, 178320, Note_off_c, 2, 56, 95
3, 178320, Note_off_c, 2, 49, 95
3, 178320, Note_on_c, 2, 64, 15
3, 178324, Note_on_c, 2, 64, 15
3, 178328, Note_on_c, 2, 61, 15
3, 178560, Note_off_c, 2, 64, 15
3, 178560, Note_off_c, 2, 64, 15
3, 178560, Note_off_c, 2, 61, 15
3, 178800, Note_on_c, 2, 64, 15
3, 178804, Note_on_c, 2, 64, 15
3, 178808, Note_on_c, 2, 61, 15
3, 179040, Note_off_c, 2, 64, 15
3, 179040, Note_off_c, 2, 64, 15
3, 179040, Note_off_c, 2, 61, 15
3, 179040, Note_on_c, 2, 49, 95
3, 179044, Note_on_c, 2, 56, 95
3, 179048, Note_on_c, 2, 61, 47
3, 179280, Note_off_c, 2, 61, 47
3, 179280, Note_off_c, 2, 56, 95
3, 179280, Note_off_c, 2, 49, 95
3, 179520, Note_on_c, 2, 49, 95
3, 179524, Note_on_c, 2, 56, 95
3, 179528, Note_on_c, 2, 61, 47
3, 179760, Note_off_c, 2, 61, 47
3, 179760, Note_off_c, 2, 56, 95
3, 179760, Note_off_c, 2, 49, 95
3, 179760, Note_on_c, 2, 64, 15
3, 179764, Note_on_c, 2, 64, 15
3, 179768, Note_on_c, 2, 61, 15
3, 180000, Note_off_c, 2, 64, 15
3, 180000, Note_off_c, 2, 64, 15
3, 180000, Note_off_c, 2, 61, 15
3, 180000, Note_on_c, 2, 49, 15
3, 180004, Note_on_c, 2, 56, 15
3, 180008, Note_on_c, 2, 61, 15
3, 180240, Note_off_c, 2, 61, 15
3, 180240, Note_off_c, 2, 56, 15
3, 180240, Note_off_c, 2, 49, 15
3, 180480, Note_on_c, 2, 47, 95
3, 180484, Note_on_c, 2, 54, 95
3, 180488, Note_on_c, 2, 59, 47
3, 180720, Note_off_c, 2, 59, 47
3, 180720, Note_off_c, 2, 54, 95
3, 180720, Note_off_c, 2, 47, 95
3, 180720, Note_on_c, 2, 64, 15
3, 180724, Note_on_c, 2, 59, 15
3, 180728, Note_on_c, 2, 59, 15
3, 180960, Note_off_c, 2, 64, 15
3, 180960, Note_off_c, 2, 59, 15
3, 180960, Note_off_c, 2, 59, 15
3, 181200, Note_on_c, 2, 64, 15
3, 181204, Note_on_c, 2, 59, 15
3, 181208, Note_on_c, 2, 59, 15
3, 181440, Note_off_c, 2, 64, 15
3, 181440, Note_off_c, 2, 59, 15
3, 181440, Note_off_c, 2, 59, 15
3, 181440, Note_on_c, 2, 47, 95
3, 181444, Note_on_c, 2, 54, 95
3, 181448, Note_on_c, 2, 59, 47
3, 181680, Note_off_c, 2, 59, 47
3, 181680, Note_off_c, 2, 54, 95
3, 181680, Note_off_c, 2, 47, 95
3, 181920, Note_on_c, 2, 47, 95
3, 181924, Note_on_c, 2, 54, 95
3, 181928, Note_on_c, 2, 59, 47
3, 182160, Note_off_c, 2, 59, 47
3, 182160, Note_off_c, 2, 54, 95
3, 182160, Note_off_c, 2, 47, 95
3, 182160, Note_on_c, 2, 64, 15
3, 182164, Note_on_c, 2, 59, 15
3, 182168, Note_on_c, 2, 59, 15
3, 182400, Note_off_c, 2, 64, 15
3, 182400, Note_off_c, 2, 59, 15
3, 182400, Note_off_c, 2, 59, 15
3, 182640, Note_on_c, 2, 64, 15
3, 182644, Note_on_c, 2, 59, 15
3, 182648, Note_on_c, 2, 59, 15
3, 182880, Note_off_c, 2, 64, 15
3, 182880, Note_off_c, 2, 59, 15
3, 182880, Note_off_c, 2, 59, 15
3, 182880, Note_on_c, 2, 47, 95
3, 182884, Note_on_c, 2, 54, 95
3, 182888, Note_on_c, 2, 59, 47
3, 183120, Note_off_c, 2, 59, 47
3, 183120, Note_off_c, 2, 54, 95
3, 183120, Note_off_c, 2, 47, 95
3, 183360, Note_on_c, 2, 47, 95
3, 183364, Note_on_c, 2, 54, 95
3, 183368, Note_on_c, 2, 59, 47
3, 183600, Note_off_c, 2, 59, 47
3, 183600, Note_off_c, 2, 54, 95
3, 183600, Note_off_c, 2, 47, 95
3, 183600, Note_on_c, 2, 64, 15
3, 183604, Note_on_c, 2, 59, 15
3, 183608, Note_on_c, 2, 59, 15
3, 183840, Note_off_c, 2, 64, 15
3, 183840, Note_off_c, 2, 59, 15
3, 183840, Note_off_c, 2, 59, 15
3, 183840, Note_on_c, 2, 47, 47
3, 183844, Note_on_c, 2, 54, 47
3, 183848, Note_on_c, 2, 59, 47
3, 184080, Note_off_c, 2, 59, 47
3, 184080, Note_off_c, 2, 54, 47
3, 184080, Note_off_c, 2, 47, 47
3, 184320, Note_on_c, 2, 64, 95
3, 184320, Note_on_c, 2, 61, 95
3, 184320, Note_on_c, 2, 57, 95
3, 184320, Note_on_c, 2, 54, 95
3, 184320, Note_on_c, 2, 49, 95
3, 186240, Note_off_c, 2, 64, 95
3, 186240, Note_off_c, 2, 61, 95
3, 186240, Note_off_c, 2, 57, 95
3, 186240, Note_off_c, 2, 54, 95
3, 186240, Note_off_c, 2, 49, 95
3, 186240, Note_on_c, 2, 61, 95
3, 186240, Note_on_c, 2, 57, 95
3, 186240, Note_on_c, 2, 52, 95
3, 186240, Note_on_c, 2, 45, 95
3, 188160, Note_off_c, 2, 61, 95
3, 188160, Note_off_c, 2, 57, 95
3, 188160, Note_off_c, 2, 52, 95
3, 188160, Note_off_c, 2, 45, 95
3, 188160, Note_on_c, 2, 64, 95
3, 188160, Note_on_c, 2, 59, 95
3, 188160, Note_on_c, 2, 59, 95
3, 188160, Note_on_c, 2, 54, 95
3, 188160, Note_on_c, 2, 47, 95
3, 190080, Note_off_c, 2, 64, 95
3, 190080, Note_off_c, 2, 59, 95
3, 190080, Note_off_c, 2, 59, 95
3, 190080, Note_off_c, 2, 54, 95
3, 190080, Note_off_c, 2, 47, 95
3, 191520, Note_on_c, 2, 47, 127
3, 191760, Note_off_c, 2, 47, 127
3, 191760, Note_on_c, 2, 49, 102
3, 192000, Note_off_c, 2, 49, 102
3, 192000, Note_on_c, 2, 52, 127
3, 193860, Note_on_c, 3, 57, 95
3, 193860, Note_on_c, 3, 54, 95
3, 193920, Note_off_c, 2, 52, 127
3, 193920, Note_off_c, 3, 57, 95
3, 193920, Note_on_c, 3, 59, 127
3, 193920, Note_off_c, 3, 54, 95
3, 193920, Note_on_c, 3, 56, 127
3, 194400, Note_off_c, 3, 59, 127
3, 194400, Note_off_c, 3, 56, 127
3, 194400, Note_on_c, 2, 57, 127
3, 194400, Note_on_c, 2, 54, 127
3, 194880, Note_off_c, 2, 57, 127
3, 194880, Note_off_c, 2, 54, 127
3, 194880, Note_on_c, 2, 56, 127
3, 194880, Note_on_c, 2, 52, 127
3, 195360, Note_off_c, 2, 56, 127
3, 195360, Note_off_c, 2, 52, 127
3, 195360, Note_on_c, 2, 59, 47
3, 195780, Note_on_c, 3, 59, 95
3, 195840, Note_off_c, 2, 59, 47
3, 195840, Note_off_c, 3, 59, 95
3, 195840, Note_on_c, 3, 61, 127
3, 196320, Note_off_c, 3, 61, 127
3, 196320, Note_on_c, 2, 59, 127
3, 196560, Note_off_c, 2, 59, 127
3, 196800, Note_on_c, 2, 54, 95
3, 196920, Note_off_c, 2, 54, 95
3, 196920, Note_on_c, 2, 56, 102
3, 197040, Note_off_c, 2, 56, 102
3, 197040, Note_on_c, 2, 54, 102
3, 197280, Note_off_c, 2, 54, 102
3, 197280, Note_on_c, 2, 52, 127
3, 199680, Note_off_c, 2, 52, 127
3, 200100, Note_on_c, 3, 64, 127
3, 200100, Note_on_c, 3, 59, 127
3, 200146, Note_off_c, 3, 64, 127
3, 200146, Note_off_c, 3, 59, 127
3, 200160, Note_on_c, 3, 68, 127
3, 200160, Note_on_c, 3, 64, 127
3, 200640, Note_off_c, 3, 68, 127
3, 200640, Note_off_c, 3, 64, 127
3, 200640, Note_on_c, 2, 66, 127
3, 200640, Note_on_c, 2, 63, 127
3, 201120, Note_off_c, 2, 66, 127
3, 201120, Note_off_c, 2, 63, 127
3, 201120, Note_on_c, 2, 64, 127
3, 201120, Note_on_c, 2, 59, 127
3, 201540, Note_on_c, 3, 64, 127
3, 201540, Note_on_c, 3, 59, 95
3, 201600, Note_off_c, 2, 64, 127
3, 201600, Note_off_c, 2, 59, 127
3, 201600, Note_off_c, 3, 64, 127
3, 201600, Note_on_c, 3, 66, 127
3, 201600, Note_off_c, 3, 59, 95
3, 201600, Note_on_c, 3, 61, 127
3, 202080, Note_off_c, 3, 66, 127
3, 202080, Note_off_c, 3, 61, 127
3, 202080, Note_on_c, 2, 64, 127
3, 202080, Note_on_c, 2, 59, 127
3, 202560, Note_off_c, 2, 64, 127
3, 202560, Note_off_c, 2, 59, 127
3, 202560, Note_on_c, 2, 56, 127
3, 202800, Note_off_c, 2, 56, 127
3, 202800, Note_on_c, 2, 54, 102
3, 203040, Note_off_c, 2, 54, 102
3, 203040, Note_on_c, 2, 52, 127
3, 203460, Note_on_c, 3, 57, 95
3, 203460, Note_on_c, 3, 54, 95
3, 203520, Note_off_c, 2, 52, 127
3, 203520, Note_off_c, 3, 57, 95
3, 203520, Note_on_c, 3, 59, 127
3, 203520, Note_off_c, 3, 54, 95
3, 203520, Note_on_c, 3, 56, 127
3, 204000, Note_off_c, 3, 59, 127
3, 204000, Note_off_c, 3, 56, 127
3, 204000, Note_on_c, 2, 59, 127
3, 204000, Note_on_c, 2, 56, 127
3, 204480, Note_off_c, 2, 59, 127
3, 204480, Note_off_c, 2, 56, 127
3, 204480, Note_on_c, 2, 59, 127
3, 204480, Note_on_c, 2, 56, 127
3, 204720, Note_off_c, 2, 59, 127
3, 204720, Note_off_c, 2, 56, 127
3, 204720, Note_on_c, 2, 57, 102
3, 204720, Note_on_c, 2, 54, 102
3, 204960, Note_off_c, 2, 57, 102
3, 204960, Note_off_c, 2, 54, 102
3, 204960, Note_on_c, 2, 56, 127
3, 204960, Note_on_c, 2, 52, 127
3, 205440, Note_off_c, 2, 52, 127
3, 207360, Note_off_c, 2, 56, 127
3, 207780, Note_on_c, 3, 64, 127
3, 207826, Note_off_c, 3, 64, 127
3, 207840, Note_on_c, 3, 71, 127
3, 208320, Note_off_c, 3, 71, 127
3, 208320, Note_on_c, 2, 69, 127
3, 208800, Note_off_c, 2, 69, 127
3, 208800, Note_on_c, 2, 68, 127
3, 209280, Note_off_c, 2, 68, 127
3, 209280, Note_on_c, 3, 64, 127
3, 209400, Pitch_bend_c, 3, 8832
3, 209520, Pitch_bend_c, 3, 9600
3, 209520, Pitch_bend_c, 3, 8192
3, 209520, Note_off_c, 3, 64, 127
3, 209520, Note_on_c, 2, 66, 127
3, 209760, Note_off_c, 2, 66, 127
3, 209760, Note_on_c, 2, 64, 127
3, 210240, Note_off_c, 2, 64, 127
3, 210240, Note_on_c, 2, 61, 127
3, 210480, Note_off_c, 2, 61, 127
3, 210480, Note_on_c, 2, 59, 102
3, 210720, Note_off_c, 2, 59, 102
3, 210720, Note_on_c, 2, 57, 127
3, 211200, Note_off_c, 2, 57, 127
3, 211200, Note_on_c, 2, 56, 127
3, 211440, Note_off_c, 2, 56, 127
3, 211440, Note_on_c, 2, 57, 102
3, 211680, Note_off_c, 2, 57, 102
3, 211680, Note_on_c, 2, 59, 127
3, 211920, Note_off_c, 2, 59, 127
3, 211920, Note_on_c, 2, 61, 102
3, 212160, Note_off_c, 2, 61, 102
3, 212160, Note_on_c, 2, 63, 127
3, 212400, Note_off_c, 2, 63, 127
3, 212400, Note_on_c, 2, 64, 102
3, 212640, Note_off_c, 2, 64, 102
3, 212640, Note_on_c, 2, 66, 102
3, 212880, Note_off_c, 2, 66, 102
3, 212880, Note_on_c, 2, 68, 127
3, 213120, Note_off_c, 2, 68, 127
3, 213120, Note_on_c, 2, 64, 127
3, 215040, Note_off_c, 2, 64, 127
3, 215460, Note_on_c, 3, 63, 95
3, 215520, Note_off_c, 3, 63, 95
3, 215520, Note_on_c, 3, 64, 127
3, 215760, Note_off_c, 3, 64, 127
3, 216000, Note_on_c, 2, 64, 127
3, 216240, Note_off_c, 2, 64, 127
3, 216480, Note_on_c, 2, 66, 127
3, 216720, Note_off_c, 2, 66, 127
3, 216960, Note_on_c, 2, 68, 127
3, 217120, Note_off_c, 2, 68, 127
3, 217120, Note_on_c, 2, 69, 102
3, 217280, Note_off_c, 2, 69, 102
3, 217280, Note_on_c, 2, 68, 102
3, 217440, Note_off_c, 2, 68, 102
3, 217440, Note_on_c, 2, 64, 127
3, 217920, Note_off_c, 2, 64, 127
3, 217920, Note_on_c, 2, 59, 127
3, 218160, Note_off_c, 2, 59, 127
3, 218160, Note_on_c, 2, 61, 102
3, 218400, Note_off_c, 2, 61, 102
3, 218400, Note_on_c, 2, 59, 102
3, 218880, Note_off_c, 2, 59, 102
3, 219300, Note_on_c, 3, 59, 127
3, 219360, Note_off_c, 3, 59, 127
3, 219360, Note_on_c, 3, 61, 127
3, 219600, Note_off_c, 3, 61, 127
3, 219840, Note_on_c, 2, 63, 127
3, 220080, Note_off_c, 2, 63, 127
3, 220260, Note_on_c, 3, 63, 127
3, 220320, Note_off_c, 3, 63, 127
3, 220320, Note_on_c, 3, 64, 127
3, 221040, Note_off_c, 3, 64, 127
3, 221280, Note_on_c, 2, 63, 127
3, 221520, Note_off_c, 2, 63, 127
3, 221760, Note_on_c, 2, 63, 127
3, 222000, Note_off_c, 2, 63, 127
3, 222000, Note_on_c, 2, 64, 102
3, 222240, Note_off_c, 2, 64, 102
3, 222240, Note_on_c, 2, 66, 102
3, 222720, Note_off_c, 2, 66, 102
3, 222720, Note_on_c, 2, 49, 95
3, 222724, Note_on_c, 2, 56, 95
3, 222728, Note_on_c, 2, 61, 15
3, 222960, Note_off_c, 2, 61, 15
3, 222960, Note_off_c, 2, 56, 95
3, 222960, Note_off_c, 2, 49, 95
3, 222960, Note_on_c, 2, 64, 15
3, 222964, Note_on_c, 2, 64, 15
3, 222968, Note_on_c, 2, 61, 15
3, 223200, Note_off_c, 2, 64, 15
3, 223200, Note_off_c, 2, 64, 15
3, 223200, Note_off_c, 2, 61, 15
3, 223440, Note_on_c, 2, 64, 15
3, 223444, Note_on_c, 2, 64, 15
3, 223448, Note_on_c, 2, 61, 15
3, 223680, Note_off_c, 2, 64, 15
3, 223680, Note_off_c, 2, 64, 15
3, 223680, Note_off_c, 2, 61, 15
3, 223680, Note_on_c, 2, 49, 95
3, 223684, Note_on_c, 2, 56, 95
3, 223688, Note_on_c, 2, 61, 15
3, 223920, Note_off_c, 2, 61, 15
3, 223920, Note_off_c, 2, 56, 95
3, 223920, Note_off_c, 2, 49, 95
3, 224160, Note_on_c, 2, 49, 95
3, 224164, Note_on_c, 2, 56, 95
3, 224168, Note_on_c, 2, 61, 47
3, 224400, Note_off_c, 2, 61, 47
3, 224400, Note_off_c, 2, 56, 95
3, 224400, Note_off_c, 2, 49, 95
3, 224400, Note_on_c, 2, 64, 15
3, 224404, Note_on_c, 2, 64, 15
3, 224408, Note_on_c, 2, 61, 15
3, 224640, Note_off_c, 2, 64, 15
3, 224640, Note_off_c, 2, 64, 15
3, 224640, Note_off_c, 2, 61, 15
3, 224880, Note_on_c, 2, 64, 15
3, 224884, Note_on_c, 2, 64, 15
3, 224888, Note_on_c, 2, 61, 15
3, 225120, Note_off_c, 2, 64, 15
3, 225120, Note_off_c, 2, 64, 15
3, 225120, Note_off_c, 2, 61, 15
3, 225120, Note_on_c, 2, 49, 95
3, 225124, Note_on_c, 2, 56, 95
3, 225128, Note_on_c, 2, 61, 47
3, 225360, Note_off_c, 2, 61, 47
3, 225360, Note_off_c, 2, 56, 95
3, 225360, Note_off_c, 2, 49, 95
3, 225600, Note_on_c, 2, 49, 95
3, 225604, Note_on_c, 2, 56, 95
3, 225608, Note_on_c, 2, 61, 47
3, 225840, Note_off_c, 2, 61, 47
3, 225840, Note_off_c, 2, 56, 95
3, 225840, Note_off_c, 2, 49, 95
3, 225840, Note_on_c, 2, 64, 15
3, 225844, Note_on_c, 2, 64, 15
3, 225848, Note_on_c, 2, 61, 15
3, 226080, Note_off_c, 2, 64, 15
3, 226080, Note_off_c, 2, 64, 15
3, 226080, Note_off_c, 2, 61, 15
3, 226080, Note_on_c, 2, 49, 15
3, 226084, Note_on_c, 2, 56, 15
3, 226088, Note_on_c, 2, 61, 15
3, 226320, Note_off_c, 2, 61, 15
3, 226320, Note_off_c, 2, 56, 15
3, 226320, Note_off_c, 2, 49, 15
3, 226560, Note_on_c, 2, 47, 95
3, 226564, Note_on_c, 2, 54, 95
3, 226568, Note_on_c, 2, 59, 47
3, 226800, Note_off_c, 2, 59, 47
3, 226800, Note_off_c, 2, 54, 95
3, 226800, Note_off_c, 2, 47, 95
3, 226800, Note_on_c, 2, 64, 15
3, 226804, Note_on_c, 2, 59, 15
3, 226808, Note_on_c, 2, 59, 15
3, 227040, Note_off_c, 2, 64, 15
3, 227040, Note_off_c, 2, 59, 15
3, 227040, Note_off_c, 2, 59, 15
3, 227280, Note_on_c, 2, 64, 15
3, 227284, Note_on_c, 2, 59, 15
3, 227288, Note_on_c, 2, 59, 15
3, 227520, Note_off_c, 2, 64, 15
3, 227520, Note_off_c, 2, 59, 15
3, 227520, Note_off_c, 2, 59, 15
3, 227520, Note_on_c, 2, 47, 95
3, 227524, Note_on_c, 2, 54, 95
3, 227528, Note_on_c, 2, 59, 47
3, 227760, Note_off_c, 2, 59, 47
3, 227760, Note_off_c, 2, 54, 95
3, 227760, Note_off_c, 2, 47, 95
3, 228000, Note_on_c, 2, 47, 95
3, 228004, Note_on_c, 2, 54, 95
3, 228008, Note_on_c, 2, 59, 47
3, 228240, Note_off_c, 2, 59, 47
3, 228240, Note_off_c, 2, 54, 95
3, 228240, Note_off_c, 2, 47, 95
3, 228240, Note_on_c, 2, 64, 15
3, 228244, Note_on_c, 2, 59, 15
3, 228248, Note_on_c, 2, 59, 15
3, 228480, Note_off_c, 2, 64, 15
3, 228480, Note_off_c, 2, 59, 15
3, 228480, Note_off_c, 2, 59, 15
3, 228720, Note_on_c, 2, 64, 15
3, 228724, Note_on_c, 2, 59, 15
3, 228728, Note_on_c, 2, 59, 15
3, 228960, Note_off_c, 2, 64, 15
3, 228960, Note_off_c, 2, 59, 15
3, 228960, Note_off_c, 2, 59, 15
3, 228960, Note_on_c, 2, 47, 95
3, 228964, Note_on_c, 2, 54, 95
3, 228968, Note_on_c, 2, 59, 47
3, 229200, Note_off_c, 2, 59, 47
3, 229200, Note_off_c, 2, 54, 95
3, 229200, Note_off_c, 2, 47, 95
3, 229440, Note_on_c, 2, 47, 95
3, 229444, Note_on_c, 2, 54, 95
3, 229448, Note_on_c, 2, 59, 47
3, 229680, Note_off_c, 2, 59, 47
3, 229680, Note_off_c, 2, 54, 95
3, 229680, Note_off_c, 2, 47, 95
3, 229680, Note_on_c, 2, 64, 15
3, 229684, Note_on_c, 2, 59, 15
3, 229688, Note_on_c, 2, 59, 15
3, 229920, Note_off_c, 2, 64, 15
3, 229920, Note_off_c, 2, 59, 15
3, 229920, Note_off_c, 2, 59, 15
3, 229920, Note_on_c, 2, 47, 47
3, 229924, Note_on_c, 2, 54, 47
3, 229928, Note_on_c, 2, 59, 47
3, 230160, Note_off_c, 2, 59, 47
3, 230160, Note_off_c, 2, 54, 47
3, 230160, Note_off_c, 2, 47, 47
3, 230400, Note_on_c, 2, 49, 95
3, 230404, Note_on_c, 2, 56, 95
3, 230408, Note_on_c, 2, 61, 15
3, 230640, Note_off_c, 2, 61, 15
3, 230640, Note_off_c, 2, 56, 95
3, 230640, Note_off_c, 2, 49, 95
3, 230640, Note_on_c, 2, 64, 15
3, 230644, Note_on_c, 2, 64, 15
3, 230648, Note_on_c, 2, 61, 15
3, 230880, Note_off_c, 2, 64, 15
3, 230880, Note_off_c, 2, 64, 15
3, 230880, Note_off_c, 2, 61, 15
3, 231120, Note_on_c, 2, 64, 15
3, 231124, Note_on_c, 2, 64, 15
3, 231128, Note_on_c, 2, 61, 15
3, 231360, Note_off_c, 2, 64, 15
3, 231360, Note_off_c, 2, 64, 15
3, 231360, Note_off_c, 2, 61, 15
3, 231360, Note_on_c, 2, 49, 95
3, 231364, Note_on_c, 2, 56, 95
3, 231368, Note_on_c, 2, 61, 15
3, 231600, Note_off_c, 2, 61, 15
3, 231600, Note_off_c, 2, 56, 95
3, 231600, Note_off_c, 2, 49, 95
3, 231840, Note_on_c, 2, 49, 95
3, 231844, Note_on_c, 2, 56, 95
3, 231848, Note_on_c, 2, 61, 47
3, 232080, Note_off_c, 2, 61, 47
3, 232080, Note_off_c, 2, 56, 95
3, 232080, Note_off_c, 2, 49, 95
3, 232080, Note_on_c, 2, 64, 15
3, 232084, Note_on_c, 2, 64, 15
3, 232088, Note_on_c, 2, 61, 15
3, 232320, Note_off_c, 2, 64, 15
3, 232320, Note_off_c, 2, 64, 15
3, 232320, Note_off_c, 2, 61, 15
3, 232560, Note_on_c, 2, 64, 15
3, 232564, Note_on_c, 2, 64, 15
3, 232568, Note_on_c, 2, 61, 15
3, 232800, Note_off_c, 2, 64, 15
3, 232800, Note_off_c, 2, 64, 15
3, 232800, Note_off_c, 2, 61, 15
3, 232800, Note_on_c, 2, 49, 95
3, 232804, Note_on_c, 2, 56, 95
3, 232808, Note_on_c, 2, 61, 47
3, 233040, Note_off_c, 2, 61, 47
3, 233040, Note_off_c, 2, 56, 95
3, 233040, Note_off_c, 2, 49, 95
3, 233280, Note_on_c, 2, 49, 95
3, 233284, Note_on_c, 2, 56, 95
3, 233288, Note_on_c, 2, 61, 47
3, 233520, Note_off_c, 2, 61, 47
3, 233520, Note_off_c, 2, 56, 95
3, 233520, Note_off_c, 2, 49, 95
3, 233520, Note_on_c, 2, 64, 15
3, 233524, Note_on_c, 2, 64, 15
3, 233528, Note_on_c, 2, 61, 15
3, 233760, Note_off_c, 2, 64, 15
3, 233760, Note_off_c, 2, 64, 15
3, 233760, Note_off_c, 2, 61, 15
3, 233760, Note_on_c, 2, 49, 15
3, 233764, Note_on_c, 2, 56, 15
3, 233768, Note_on_c, 2, 61, 15
3, 234000, Note_off_c, 2, 61, 15
3, 234000, Note_off_c, 2, 56, 15
3, 234000, Note_off_c, 2, 49, 15
3, 234240, Note_on_c, 2, 47, 95
3, 234244, Note_on_c, 2, 54, 95
3, 234248, Note_on_c, 2, 59, 47
3, 234480, Note_off_c, 2, 59, 47
3, 234480, Note_off_c, 2, 54, 95
3, 234480, Note_off_c, 2, 47, 95
3, 234480, Note_on_c, 2, 64, 15
3, 234484, Note_on_c, 2, 59, 15
3, 234488, Note_on_c, 2, 59, 15
3, 234720, Note_off_c, 2, 64, 15
3, 234720, Note_off_c, 2, 59, 15
3, 234720, Note_off_c, 2, 59, 15
3, 234960, Note_on_c, 2, 64, 15
3, 234964, Note_on_c, 2, 59, 15
3, 234968, Note_on_c, 2, 59, 15
3, 235200, Note_off_c, 2, 64, 15
3, 235200, Note_off_c, 2, 59, 15
3, 235200, Note_off_c, 2, 59, 15
3, 235200, Note_on_c, 2, 47, 95
3, 235204, Note_on_c, 2, 54, 95
3, 235208, Note_on_c, 2, 59, 47
3, 235440, Note_off_c, 2, 59, 47
3, 235440, Note_off_c, 2, 54, 95
3, 235440, Note_off_c, 2, 47, 95
3, 235680, Note_on_c, 2, 47, 95
3, 235684, Note_on_c, 2, 54, 95
3, 235688, Note_on_c, 2, 59, 47
3, 235920, Note_off_c, 2, 59, 47
3, 235920, Note_off_c, 2, 54, 95
3, 235920, Note_off_c, 2, 47, 95
3, 235920, Note_on_c, 2, 64, 15
3, 235924, Note_on_c, 2, 59, 15
3, 235928, Note_on_c, 2, 59, 15
3, 236160, Note_off_c, 2, 64, 15
3, 236160, Note_off_c, 2, 59, 15
3, 236160, Note_off_c, 2, 59, 15
3, 236400, Note_on_c, 2, 64, 15
3, 236404, Note_on_c, 2, 59, 15
3, 236408, Note_on_c, 2, 59, 15
3, 236640, Note_off_c, 2, 64, 15
3, 236640, Note_off_c, 2, 59, 15
3, 236640, Note_off_c, 2, 59, 15
3, 236640, Note_on_c, 2, 47, 95
3, 236644, Note_on_c, 2, 54, 95
3, 236648, Note_on_c, 2, 59, 47
3, 236880, Note_off_c, 2, 59, 47
3, 236880, Note_off_c, 2, 54, 95
3, 236880, Note_off_c, 2, 47, 95
3, 237120, Note_on_c, 2, 47, 95
3, 237124, Note_on_c, 2, 54, 95
3, 237128, Note_on_c, 2, 59, 47
3, 237360, Note_off_c, 2, 59, 47
3, 237360, Note_off_c, 2, 54, 95
3, 237360, Note_off_c, 2, 47, 95
3, 237360, Note_on_c, 2, 64, 15
3, 237364, Note_on_c, 2, 59, 15
3, 237368, Note_on_c, 2, 59, 15
3, 237600, Note_off_c, 2, 64, 15
3, 237600, Note_off_c, 2, 59, 15
3, 237600, Note_off_c, 2, 59, 15
3, 237600, Note_on_c, 2, 47, 47
3, 237604, Note_on_c, 2, 54, 47
3, 237608, Note_on_c, 2, 59, 47
3, 237840, Note_off_c, 2, 59, 47
3, 237840, Note_off_c, 2, 54, 47
3, 237840, Note_off_c, 2, 47, 47
3, 238080, Note_on_c, 2, 49, 95
3, 238084, Note_on_c, 2, 56, 95
3, 238088, Note_on_c, 2, 61, 15
3, 238320, Note_off_c, 2, 61, 15
3, 238320, Note_off_c, 2, 56, 95
3, 238320, Note_off_c, 2, 49, 95
3, 238320, Note_on_c, 2, 64, 15
3, 238324, Note_on_c, 2, 64, 15
3, 238328, Note_on_c, 2, 61, 15
3, 238560, Note_off_c, 2, 64, 15
3, 238560, Note_off_c, 2, 64, 15
3, 238560, Note_off_c, 2, 61, 15
3, 238800, Note_on_c, 2, 64, 15
3, 238804, Note_on_c, 2, 64, 15
3, 238808, Note_on_c, 2, 61, 15
3, 239040, Note_off_c, 2, 64, 15
3, 239040, Note_off_c, 2, 64, 15
3, 239040, Note_off_c, 2, 61, 15
3, 239040, Note_on_c, 2, 49, 95
3, 239044, Note_on_c, 2, 56, 95
3, 239048, Note_on_c, 2, 61, 15
3, 239280, Note_off_c, 2, 61, 15
3, 239280, Note_off_c, 2, 56, 95
3, 239280, Note_off_c, 2, 49, 95
3, 239520, Note_on_c, 2, 49, 95
3, 239524, Note_on_c, 2, 56, 95
3, 239528, Note_on_c, 2, 61, 47
3, 239760, Note_off_c, 2, 61, 47
3, 239760, Note_off_c, 2, 56, 95
3, 239760, Note_off_c, 2, 49, 95
3, 239760, Note_on_c, 2, 64, 15
3, 239764, Note_on_c, 2, 64, 15
3, 239768, Note_on_c, 2, 61, 15
3, 240000, Note_off_c, 2, 64, 15
3, 240000, Note_off_c, 2, 64, 15
3, 240000, Note_off_c, 2, 61, 15
3, 240240, Note_on_c, 2, 64, 15
3, 240244, Note_on_c, 2, 64, 15
3, 240248, Note_on_c, 2, 61, 15
3, 240480, Note_off_c, 2, 64, 15
3, 240480, Note_off_c, 2, 64, 15
3, 240480, Note_off_c, 2, 61, 15
3, 240480, Note_on_c, 2, 49, 95
3, 240484, Note_on_c, 2, 56, 95
3, 240488, Note_on_c, 2, 61, 47
3, 240720, Note_off_c, 2, 61, 47
3, 240720, Note_off_c, 2, 56, 95
3, 240720, Note_off_c, 2, 49, 95
3, 240960, Note_on_c, 2, 49, 95
3, 240964, Note_on_c, 2, 56, 95
3, 240968, Note_on_c, 2, 61, 47
3, 241200, Note_off_c, 2, 61, 47
3, 241200, Note_off_c, 2, 56, 95
3, 241200, Note_off_c, 2, 49, 95
3, 241200, Note_on_c, 2, 64, 15
3, 241204, Note_on_c, 2, 64, 15
3, 241208, Note_on_c, 2, 61, 15
3, 241440, Note_off_c, 2, 64, 15
3, 241440, Note_off_c, 2, 64, 15
3, 241440, Note_off_c, 2, 61, 15
3, 241440, Note_on_c, 2, 49, 15
3, 241444, Note_on_c, 2, 56, 15
3, 241448, Note_on_c, 2, 61, 15
3, 241680, Note_off_c, 2, 61, 15
3, 241680, Note_off_c, 2, 56, 15
3, 241680, Note_off_c, 2, 49, 15
3, 241920, Note_on_c, 2, 47, 95
3, 241924, Note_on_c, 2, 54, 95
3, 241928, Note_on_c, 2, 59, 47
3, 242160, Note_off_c, 2, 59, 47
3, 242160, Note_off_c, 2, 54, 95
3, 242160, Note_off_c, 2, 47, 95
3, 242160, Note_on_c, 2, 64, 15
3, 242164, Note_on_c, 2, 59, 15
3, 242168, Note_on_c, 2, 59, 15
3, 242400, Note_off_c, 2, 64, 15
3, 242400, Note_off_c, 2, 59, 15
3, 242400, Note_off_c, 2, 59, 15
3, 242640, Note_on_c, 2, 64, 15
3, 242644, Note_on_c, 2, 59, 15
3, 242648, Note_on_c, 2, 59, 15
3, 242880, Note_off_c, 2, 64, 15
3, 242880, Note_off_c, 2, 59, 15
3, 242880, Note_off_c, 2, 59, 15
3, 242880, Note_on_c, 2, 47, 95
3, 242884, Note_on_c, 2, 54, 95
3, 242888, Note_on_c, 2, 59, 47
3, 243120, Note_off_c, 2, 59, 47
3, 243120, Note_off_c, 2, 54, 95
3, 243120, Note_off_c, 2, 47, 95
3, 243360, Note_on_c, 2, 47, 95
3, 243364, Note_on_c, 2, 54, 95
3, 243368, Note_on_c, 2, 59, 47
3, 243600, Note_off_c, 2, 59, 47
3, 243600, Note_off_c, 2, 54, 95
3, 243600, Note_off_c, 2, 47, 95
3, 243600, Note_on_c, 2, 64, 15
3, 243604, Note_on_c, 2, 59, 15
3, 243608, Note_on_c, 2, 59, 15
3, 243840, Note_off_c, 2, 64, 15
3, 243840, Note_off_c, 2, 59, 15
3, 243840, Note_off_c, 2, 59, 15
3, 244080, Note_on_c, 2, 64, 15
3, 244084, Note_on_c, 2, 59, 15
3, 244088, Note_on_c, 2, 59, 15
3, 244320, Note_off_c, 2, 64, 15
3, 244320, Note_off_c, 2, 59, 15
3, 244320, Note_off_c, 2, 59, 15
3, 244320, Note_on_c, 2, 47, 95
3, 244324, Note_on_c, 2, 54, 95
3, 244328, Note_on_c, 2, 59, 47
3, 244560, Note_off_c, 2, 59, 47
3, 244560, Note_off_c, 2, 54, 95
3, 244560, Note_off_c, 2, 47, 95
3, 244800, Note_on_c, 2, 47, 95
3, 244804, Note_on_c, 2, 54, 95
3, 244808, Note_on_c, 2, 59, 47
3, 245040, Note_off_c, 2, 59, 47
3, 245040, Note_off_c, 2, 54, 95
3, 245040, Note_off_c, 2, 47, 95
3, 245040, Note_on_c, 2, 64, 15
3, 245044, Note_on_c, 2, 59, 15
3, 245048, Note_on_c, 2, 59, 15
3, 245280, Note_off_c, 2, 64, 15
3, 245280, Note_off_c, 2, 59, 15
3, 245280, Note_off_c, 2, 59, 15
3, 245280, Note_on_c, 2, 47, 47
3, 245284, Note_on_c, 2, 54, 47
3, 245288, Note_on_c, 2, 59, 47
3, 245520, Note_off_c, 2, 59, 47
3, 245520, Note_off_c, 2, 54, 47
3, 245520, Note_off_c, 2, 47, 47
3, 245760, Note_on_c, 2, 64, 95
3, 245760, Note_on_c, 2, 61, 95
3, 245760, Note_on_c, 2, 57, 95
3, 245760, Note_on_c, 2, 54, 95
3, 245760, Note_on_c, 2, 49, 95
3, 247680, Note_off_c, 2, 64, 95
3, 247680, Note_off_c, 2, 61, 95
3, 247680, Note_off_c, 2, 57, 95
3, 247680, Note_off_c, 2, 54, 95
3, 247680, Note_off_c, 2, 49, 95
3, 247680, Note_on_c, 2, 61, 95
3, 247680, Note_on_c, 2, 57, 95
3, 247680, Note_on_c, 2, 52, 95
3, 247680, Note_on_c, 2, 45, 95
3, 249600, Note_off_c, 2, 61, 95
3, 249600, Note_off_c, 2, 57, 95
3, 249600, Note_off_c, 2, 52, 95
3, 249600, Note_off_c, 2, 45, 95
3, 249600, Note_on_c, 2, 64, 95
3, 249600, Note_on_c, 2, 59, 95
3, 249600, Note_on_c, 2, 59, 95
3, 249600, Note_on_c, 2, 54, 95
3, 249600, Note_on_c, 2, 47, 95
3, 251520, Note_off_c, 2, 64, 95
3, 251520, Note_off_c, 2, 59, 95
3, 251520, Note_off_c, 2, 59, 95
3, 251520, Note_off_c, 2, 54, 95
3, 251520, Note_off_c, 2, 47, 95
3, 252000, Note_on_c, 2, 64, 95
3, 252480, Note_off_c, 2, 64, 95
3, 252480, Note_on_c, 2, 59, 95
3, 252960, Note_off_c, 2, 59, 95
3, 252960, Note_on_c, 2, 64, 95
3, 253440, Note_off_c, 2, 64, 95
3, 253440, Note_on_c, 2, 56, 95
3, 253440, Note_on_c, 2, 52, 95
3, 253920, Note_off_c, 2, 56, 95
3, 253920, Note_off_c, 2, 52, 95
3, 253920, Note_on_c, 2, 56, 95
3, 254400, Note_off_c, 2, 56, 95
3, 254400, Note_on_c, 2, 59, 95
3, 254880, Note_off_c, 2, 59, 95
3, 254880, Note_on_c, 2, 57, 95
3, 254880, Note_on_c, 2, 54, 95
3, 255840, Note_off_c, 2, 57, 95
3, 255840, Note_off_c, 2, 54, 95
3, 255840, Note_on_c, 2, 59, 95
3, 256320, Note_off_c, 2, 59, 95
3, 256320, Note_on_c, 2, 64, 95
3, 256800, Note_off_c, 2, 64, 95
3, 256800, Note_on_c, 2, 59, 95
3, 257280, Note_off_c, 2, 59, 95
3, 257280, Note_on_c, 2, 57, 95
3, 257280, Note_on_c, 2, 52, 95
3, 257760, Note_off_c, 2, 57, 95
3, 257760, Note_off_c, 2, 52, 95
3, 257760, Note_on_c, 2, 59, 95
3, 258240, Note_off_c, 2, 59, 95
3, 258240, Note_on_c, 2, 64, 95
3, 258720, Note_off_c, 2, 64, 95
3, 258720, Note_on_c, 2, 56, 95
3, 258720, Note_on_c, 2, 52, 95
3, 259680, Note_off_c, 2, 56, 95
3, 259680, Note_off_c, 2, 52, 95
3, 259680, Note_on_c, 2, 59, 95
3, 260160, Note_off_c, 2, 59, 95
3, 260160, Note_on_c, 2, 64, 95
3, 260640, Note_off_c, 2, 64, 95
3, 260640, Note_on_c, 2, 59, 95
3, 261120, Note_off_c, 2, 59, 95
3, 261120, Note_on_c, 2, 56, 95
3, 261120, Note_on_c, 2, 52, 95
3, 261600, Note_off_c, 2, 56, 95
3, 261600, Note_off_c, 2, 52, 95
3, 261600, Note_on_c, 2, 56, 95
3, 262080, Note_off_c, 2, 56, 95
3, 262080, Note_on_c, 2, 59, 95
3, 262560, Note_off_c, 2, 59, 95
3, 262560, Note_on_c, 2, 57, 95
3, 262560, Note_on_c, 2, 54, 95
3, 263520, Note_off_c, 2, 57, 95
3, 263520, Note_off_c, 2, 54, 95
3, 263520, Note_on_c, 2, 59, 95
3, 264000, Note_off_c, 2, 59, 95
3, 264000, Note_on_c, 2, 64, 95
3, 264480, Note_off_c, 2, 64, 95
3, 264480, Note_on_c, 2, 59, 95
3, 264960, Note_off_c, 2, 59, 95
3, 264960, Note_on_c, 2, 57, 95
3, 264960, Note_on_c, 2, 52, 95
3, 265440, Note_off_c, 2, 57, 95
3, 265440, Note_off_c, 2, 52, 95
3, 265440, Note_on_c, 2, 59, 95
3, 265920, Note_off_c, 2, 59, 95
3, 265920, Note_on_c, 2, 64, 95
3, 266400, Note_off_c, 2, 64, 95
3, 266400, Note_on_c, 2, 56, 95
3, 266400, Note_on_c, 2, 52, 95
3, 267360, Note_off_c, 2, 56, 95
3, 267360, Note_off_c, 2, 52, 95
3, 267360, Note_on_c, 2, 59, 95
3, 267840, Note_off_c, 2, 59, 95
3, 267840, Note_on_c, 2, 64, 95
3, 268320, Note_off_c, 2, 64, 95
3, 268320, Note_on_c, 2, 59, 95
3, 268800, Note_off_c, 2, 59, 95
3, 268800, Note_on_c, 2, 56, 95
3, 268800, Note_on_c, 2, 52, 95
3, 269280, Note_off_c, 2, 56, 95
3, 269280, Note_off_c, 2, 52, 95
3, 269280, Note_on_c, 2, 56, 95
3, 269760, Note_off_c, 2, 56, 95
3, 269760, Note_on_c, 2, 59, 95
3, 270240, Note_off_c, 2, 59, 95
3, 270240, Note_on_c, 2, 57, 95
3, 270240, Note_on_c, 2, 54, 95
3, 271200, Note_off_c, 2, 57, 95
3, 271200, Note_off_c, 2, 54, 95
3, 271200, Note_on_c, 2, 59, 95
3, 271680, Note_off_c, 2, 59, 95
3, 271680, Note_on_c, 2, 64, 95
3, 272160, Note_off_c, 2, 64, 95
3, 272160, Note_on_c, 2, 59, 95
3, 272640, Note_off_c, 2, 59, 95
3, 272640, Note_on_c, 2, 57, 95
3, 272640, Note_on_c, 2, 52, 95
3, 273120, Note_off_c, 2, 57, 95
3, 273120, Note_off_c, 2, 52, 95
3, 273120, Note_on_c, 2, 59, 95
3, 273600, Note_off_c, 2, 59, 95
3, 273600, Note_on_c, 2, 64, 95
3, 274080, Note_off_c, 2, 64, 95
3, 274080, Note_on_c, 2, 56, 95
3, 274080, Note_on_c, 2, 52, 95
3, 275040, Note_off_c, 2, 56, 95
3, 275040, Note_off_c, 2, 52, 95
3, 275040, Note_on_c, 2, 59, 95
3, 275520, Note_off_c, 2, 59, 95
3, 275520, Note_on_c, 2, 64, 95
3, 276000, Note_off_c, 2, 64, 95
3, 276000, Note_on_c, 2, 59, 95
3, 276480, Note_off_c, 2, 59, 95
3, 276480, Note_on_c, 2, 56, 95
3, 276480, Note_on_c, 2, 52, 95
3, 276960, Note_off_c, 2, 56, 95
3, 276960, Note_off_c, 2, 52, 95
3, 276960, Note_on_c, 2, 56, 95
3, 277440, Note_off_c, 2, 56, 95
3, 277440, Note_on_c, 2, 59, 95
3, 277920, Note_off_c, 2, 59, 95
3, 277920, Note_on_c, 2, 57, 95
3, 277920, Note_on_c, 2, 54, 95
3, 278880, Note_off_c, 2, 57, 95
3, 278880, Note_off_c, 2, 54, 95
3, 278880, Note_on_c, 2, 59, 95
3, 279360, Note_off_c, 2, 59, 95
3, 279360, Note_on_c, 2, 64, 95
3, 279840, Note_off_c, 2, 64, 95
3, 279840, Note_on_c, 2, 59, 95
3, 280320, Note_off_c, 2, 59, 95
3, 280320, Note_on_c, 2, 57, 95
3, 280320, Note_on_c, 2, 52, 95
3, 280800, Note_off_c, 2, 57, 95
3, 280800, Note_off_c, 2, 52, 95
3, 280800, Note_on_c, 2, 59, 95
3, 281280, Note_off_c, 2, 59, 95
3, 281280, Note_on_c, 2, 64, 95
3, 281760, Note_off_c, 2, 64, 95
3, 281760, Note_on_c, 2, 56, 95
3, 281760, Note_on_c, 2, 52, 95
3, 282720, Note_off_c, 2, 56, 95
3, 282720, Note_off_c, 2, 52, 95
3, 282720, Note_on_c, 2, 59, 95
3, 283200, Note_off_c, 2, 59, 95
3, 283200, Note_on_c, 2, 64, 95
3, 283680, Note_off_c, 2, 64, 95
3, 283680, Note_on_c, 2, 59, 95
3, 284160, Note_off_c, 2, 59, 95
3, 284580, Note_on_c, 3, 56, 127
3, 284640, Note_off_c, 3, 56, 127
3, 284640, Note_on_c, 3, 57, 95
3, 285120, Note_off_c, 3, 57, 95
3, 285120, Note_on_c, 2, 52, 95
3, 285600, Note_off_c, 2, 52, 95
3, 285600, Note_on_c, 2, 59, 95
3, 285840, Note_off_c, 2, 59, 95
3, 286080, Note_on_c, 2, 57, 95
3, 288000, Note_off_c, 2, 57, 95
3, 288420, Note_on_c, 3, 56, 127
3, 288480, Note_off_c, 3, 56, 127
3, 288480, Note_on_c, 3, 57, 95
3, 288960, Note_off_c, 3, 57, 95
3, 288960, Note_on_c, 2, 57, 95
3, 289440, Note_off_c, 2, 57, 95
3, 289440, Note_on_c, 2, 59, 95
3, 289800, Note_on_c, 3, 57, 127
3, 289920, Note_off_c, 2, 59, 95
3, 289920, Note_off_c, 3, 57, 127
3, 289920, Note_on_c, 3, 59, 95
3, 290880, Note_off_c, 3, 59, 95
3, 290880, Note_on_c, 2, 57, 95
3, 291120, Note_off_c, 2, 57, 95
3, 291120, Note_on_c, 2, 56, 70
3, 291360, Note_off_c, 2, 56, 70
3, 291360, Note_on_c, 2, 52, 95
3, 291840, Note_off_c, 2, 52, 95
3, 292260, Note_on_c, 3, 56, 127
3, 292320, Note_off_c, 3, 56, 127
3, 292320, Note_on_c, 3, 57, 95
3, 292800, Note_off_c, 3, 57, 95
3, 292800, Note_on_c, 2, 52, 95
3, 293280, Note_off_c, 2, 52, 95
3, 293280, Note_on_c, 2, 59, 95
3, 293520, Note_off_c, 2, 59, 95
3, 293760, Note_on_c, 2, 57, 95
3, 295680, Note_off_c, 2, 57, 95
3, 296100, Note_on_c, 3, 56, 127
3, 296160, Note_off_c, 3, 56, 127
3, 296160, Note_on_c, 3, 57, 95
3, 296640, Note_off_c, 3, 57, 95
3, 296640, Note_on_c, 2, 57, 95
3, 297120, Note_off_c, 2, 57, 95
3, 297120, Note_on_c, 2, 59, 95
3, 297480, Note_on_c, 3, 57, 127
3, 297600, Note_off_c, 2, 59, 95
3, 297600, Note_off_c, 3, 57, 127
3, 297600, Note_on_c, 3, 59, 95
3, 299520, Note_off_c, 3, 59, 95
3, 300000, Note_on_c, 3, 54, 95
3, 300120, Pitch_bend_c, 3, 8832
3, 300240, Pitch_bend_c, 3, 9600
3, 300240, Pitch_bend_c, 3, 8192
3, 300240, Note_off_c, 3, 54, 95
3, 300240, Note_on_c, 2, 56, 95
3, 300480, Note_off_c, 2, 56, 95
3, 300480, Note_on_c, 2, 59, 95
3, 300720, Note_off_c, 2, 59, 95
3, 300960, Note_on_c, 2, 64, 95
3, 301200, Note_off_c, 2, 64, 95
3, 301440, Note_on_c, 2, 63, 95
3, 302400, Note_off_c, 2, 63, 95
3, 302400, Note_on_c, 2, 59, 95
3, 303120, Note_off_c, 2, 59, 95
3, 303120, Note_on_c, 2, 59, 95
3, 303360, Note_off_c, 2, 59, 95
3, 303360, Note_on_c, 3, 59, 95
3, 303480, Pitch_bend_c, 3, 8832
3, 303600, Pitch_bend_c, 3, 9600
3, 303600, Pitch_bend_c, 3, 8192
3, 303600, Note_off_c, 3, 59, 95
3, 303600, Note_on_c, 2, 61, 95
3, 303840, Note_off_c, 2, 61, 95
3, 303840, Note_on_c, 2, 59, 95
3, 304080, Note_off_c, 2, 59, 95
3, 304320, Note_on_c, 2, 54, 95
3, 304440, Note_off_c, 2, 54, 95
3, 304440, Note_on_c, 2, 56, 70
3, 304560, Note_off_c, 2, 56, 70
3, 304560, Note_on_c, 2, 54, 70
3, 304800, Note_off_c, 2, 54, 70
3, 304800, Note_on_c, 2, 52, 95
3, 307200, Note_off_c, 2, 52, 95
3, 307680, Note_on_c, 3, 57, 95
3, 307680, Note_on_c, 3, 54, 95
3, 307800, Pitch_bend_c, 3, 8832
3, 307800, Pitch_bend_c, 3, 8832
3, 307920, Pitch_bend_c, 3, 9600
3, 307920, Pitch_bend_c, 3, 8192
3, 307920, Note_off_c, 3, 57, 95
3, 307920, Pitch_bend_c, 3, 9600
3, 307920, Pitch_bend_c, 3, 8192
3, 307920, Note_off_c, 3, 54, 95
3, 307920, Note_on_c, 2, 59, 95
3, 307920, Note_on_c, 2, 56, 95
3, 308160, Note_off_c, 2, 59, 95
3, 308160, Note_off_c, 2, 56, 95
3, 308160, Note_on_c, 2, 59, 95
3, 308400, Note_off_c, 2, 59, 95
3, 308640, Note_on_c, 2, 64, 95
3, 308640, Note_on_c, 2, 59, 95
3, 308880, Note_off_c, 2, 64, 95
3, 308880, Note_off_c, 2, 59, 95
3, 309000, Note_on_c, 3, 64, 127
3, 309000, Note_on_c, 3, 59, 127
3, 309120, Note_off_c, 3, 64, 127
3, 309120, Note_on_c, 3, 66, 95
3, 309120, Note_off_c, 3, 59, 127
3, 309120, Note_on_c, 3, 61, 95
3, 310080, Note_off_c, 3, 66, 95
3, 310080, Note_off_c, 3, 61, 95
3, 310080, Note_on_c, 2, 64, 95
3, 310080, Note_on_c, 2, 59, 95
3, 310560, Note_off_c, 2, 59, 95
3, 310800, Note_off_c, 2, 64, 95
3, 310800, Note_on_c, 2, 66, 95
3, 311040, Note_off_c, 2, 66, 95
3, 311040, Note_on_c, 2, 66, 95
3, 311160, Note_off_c, 2, 66, 95
3, 311160, Note_on_c, 2, 68, 70
3, 311280, Note_off_c, 2, 68, 70
3, 311280, Note_on_c, 2, 66, 70
3, 311400, Note_off_c, 2, 66, 70
3, 311400, Note_on_c, 2, 64, 70
3, 312000, Note_off_c, 2, 64, 70
3, 312000, Note_on_c, 2, 68, 95
3, 312120, Note_off_c, 2, 68, 95
3, 312120, Note_on_c, 2, 69, 70
3, 312240, Note_off_c, 2, 69, 70
3, 312240, Note_on_c, 2, 68, 70
3, 312360, Note_off_c, 2, 68, 70
3, 312360, Note_on_c, 2, 64, 70
3, 314880, Note_off_c, 2, 64, 70
3, 315300, Note_on_c, 3, 56, 127
3, 315360, Note_off_c, 3, 56, 127
3, 315360, Note_on_c, 3, 57, 95
3, 315840, Note_off_c, 3, 57, 95
3, 315840, Note_on_c, 2, 52, 95
3, 316320, Note_off_c, 2, 52, 95
3, 316320, Note_on_c, 2, 59, 95
3, 316560, Note_off_c, 2, 59, 95
3, 316800, Note_on_c, 2, 57, 95
3, 318720, Note_off_c, 2, 57, 95
3, 319140, Note_on_c, 3, 56, 127
3, 319200, Note_off_c, 3, 56, 127
3, 319200, Note_on_c, 3, 57, 95
3, 319680, Note_off_c, 3, 57, 95
3, 319680, Note_on_c, 2, 57, 95
3, 320160, Note_off_c, 2, 57, 95
3, 320160, Note_on_c, 2, 59, 95
3, 320520, Note_on_c, 3, 57, 127
3, 320640, Note_off_c, 2, 59, 95
3, 320640, Note_off_c, 3, 57, 127
3, 320640, Note_on_c, 3, 59, 95
3, 321600, Note_off_c, 3, 59, 95
3, 321600, Note_on_c, 2, 57, 95
3, 321840, Note_off_c, 2, 57, 95
3, 321840, Note_on_c, 2, 56, 70
3, 322080, Note_off_c, 2, 56, 70
3, 322080, Note_on_c, 2, 52, 95
3, 322560, Note_off_c, 2, 52, 95
3, 322980, Note_on_c, 3, 56, 127
3, 323040, Note_off_c, 3, 56, 127
3, 323040, Note_on_c, 3, 57, 95
3, 323520, Note_off_c, 3, 57, 95
3, 323520, Note_on_c, 2, 52, 95
3, 324000, Note_off_c, 2, 52, 95
3, 324000, Note_on_c, 2, 59, 95
3, 324240, Note_off_c, 2, 59, 95
3, 324480, Note_on_c, 2, 57, 95
3, 326400, Note_off_c, 2, 57, 95
3, 326820, Note_on_c, 3, 56, 127
3, 326880, Note_off_c, 3, 56, 127
3, 326880, Note_on_c, 3, 57, 95
3, 327360, Note_off_c, 3, 57, 95
3, 327360, Note_on_c, 2, 57, 95
3, 327840, Note_off_c, 2, 57, 95
3, 327840, Note_on_c, 2, 59, 95
3, 328200, Note_on_c, 3, 57, 127
3, 328320, Note_off_c, 2, 59, 95
3, 328320, Note_off_c, 3, 57, 127
3, 328320, Note_on_c, 3, 59, 95
3, 330240, Note_off_c, 3, 59, 95
3, 330660, Note_on_c, 3, 56, 127
3, 330720, Note_off_c, 3, 56, 127
3, 330720, Note_on_c, 3, 57, 95
3, 331200, Note_off_c, 3, 57, 95
3, 331200, Note_on_c, 2, 52, 95
3, 331680, Note_off_c, 2, 52, 95
3, 331680, Note_on_c, 2, 59, 95
3, 331920, Note_off_c, 2, 59, 95
3, 332160, Note_on_c, 2, 57, 95
3, 334080, Note_off_c, 2, 57, 95
3, 334500, Note_on_c, 3, 56, 127
3, 334560, Note_off_c, 3, 56, 127
3, 334560, Note_on_c, 3, 57, 95
3, 335040, Note_off_c, 3, 57, 95
3, 335040, Note_on_c, 2, 57, 95
3, 335520, Note_off_c, 2, 57, 95
3, 335520, Note_on_c, 2, 59, 95
3, 335880, Note_on_c, 3, 57, 127
3, 336000, Note_off_c, 2, 59, 95
3, 336000, Note_off_c, 3, 57, 127
3, 336000, Note_on_c, 3, 59, 95
3, 336960, Note_off_c, 3, 59, 95
3, 336960, Note_on_c, 2, 57, 95
3, 337200, Note_off_c, 2, 57, 95
3, 337200, Note_on_c, 2, 56, 70
3, 337440, Note_off_c, 2, 56, 70
3, 337440, Note_on_c, 2, 52, 95
3, 337920, Note_off_c, 2, 52, 95
3, 338340, Note_on_c, 3, 56, 127
3, 338400, Note_off_c, 3, 56, 127
3, 338400, Note_on_c, 3, 57, 95
3, 338880, Note_off_c, 3, 57, 95
3, 338880, Note_on_c, 2, 52, 95
3, 339360, Note_off_c, 2, 52, 95
3, 339360, Note_on_c, 2, 59, 95
3, 339600, Note_off_c, 2, 59, 95
3, 339840, Note_on_c, 2, 57, 95
3, 341760, Note_off_c, 2, 57, 95
3, 342180, Note_on_c, 3, 56, 127
3, 342240, Note_off_c, 3, 56, 127
3, 342240, Note_on_c, 3, 57, 95
3, 342720, Note_off_c, 3, 57, 95
3, 342720, Note_on_c, 2, 57, 95
3, 343200, Note_off_c, 2, 57, 95
3, 343200, Note_on_c, 2, 59, 95
3, 343560, Note_on_c, 3, 57, 127
3, 343680, Note_off_c, 2, 59, 95
3, 343680, Note_off_c, 3, 57, 127
3, 343680, Note_on_c, 3, 59, 95
3, 345600, Note_off_c, 3, 59, 95
3, 345600, Note_on_c, 2, 64, 95
3, 345600, Note_on_c, 2, 59, 95
3, 345600, Note_on_c, 2, 56, 95
3, 345600, Note_on_c, 2, 52, 95
3, 345600, Note_on_c, 2, 47, 95
3, 345600, Note_on_c, 2, 40, 95
3, 349440, Note_off_c, 2, 64, 95
3, 349440, Note_off_c, 2, 59, 95
3, 349440, Note_off_c, 2, 56, 95
3, 349440, Note_off_c, 2, 52, 95
3, 349440, Note_off_c, 2, 47, 95
3, 349440, Note_off_c, 2, 40, 95
3, 349440, End_track
4, 0, Start_track
4, 0, Pitch_bend_c, 4, 8192
4, 0, Control_c, 4, 7, 127
4, 0, Control_c, 4, 10, 63
4, 0, Control_c, 4, 93, 0
4, 0, Control_c, 4, 91, 0
4, 0, Control_c, 4, 95, 0
4, 0, Control_c, 4, 92, 0
4, 0, Control_c, 4, 11, 127
4, 0, Program_c, 4, 52
4, 0, Control_c, 5, 7, 127
4, 0, Control_c, 5, 10, 63
4, 0, Control_c, 5, 93, 0
4, 0, Control_c, 5, 91, 0
4, 0, Control_c, 5, 95, 0
4, 0, Control_c, 5, 92, 0
4, 0, Control_c, 5, 11, 127
4, 0, Program_c, 5, 52
4, 31200, Note_on_c, 5, 56, 95
4, 31360, Pitch_bend_c, 5, 8192
4, 31520, Pitch_bend_c, 5, 8320
4, 31680, Pitch_bend_c, 5, 8192
4, 31680, Pitch_bend_c, 5, 8320
4, 31680, Pitch_bend_c, 5, 8192
4, 31680, Note_off_c, 5, 56, 95
4, 31680, Note_on_c, 4, 56, 95
4, 32160, Note_off_c, 4, 56, 95
4, 32160, Note_on_c, 5, 59, 95
4, 32320, Pitch_bend_c, 5, 8192
4, 32480, Pitch_bend_c, 5, 8320
4, 32640, Pitch_bend_c, 5, 8192
4, 32640, Pitch_bend_c, 5, 8320
4, 32640, Pitch_bend_c, 5, 8192
4, 32640, Note_off_c, 5, 59, 95
4, 32640, Note_on_c, 5, 57, 95
4, 32800, Pitch_bend_c, 5, 8192
4, 32960, Pitch_bend_c, 5, 8320
4, 33120, Pitch_bend_c, 5, 8192
4, 33280, Pitch_bend_c, 5, 8320
4, 33440, Pitch_bend_c, 5, 8192
4, 33600, Pitch_bend_c, 5, 8320
4, 33760, Pitch_bend_c, 5, 8192
4, 33920, Pitch_bend_c, 5, 8320
4, 34080, Pitch_bend_c, 5, 8192
4, 34240, Pitch_bend_c, 5, 8320
4, 34400, Pitch_bend_c, 5, 8192
4, 34560, Pitch_bend_c, 5, 8320
4, 34560, Pitch_bend_c, 5, 8192
4, 34560, Note_off_c, 5, 57, 95
4, 35040, Note_on_c, 5, 57, 95
4, 35200, Pitch_bend_c, 5, 8192
4, 35360, Pitch_bend_c, 5, 8320
4, 35520, Pitch_bend_c, 5, 8192
4, 35520, Pitch_bend_c, 5, 8320
4, 35520, Pitch_bend_c, 5, 8192
4, 35520, Note_off_c, 5, 57, 95
4, 35520, Note_on_c, 5, 57, 95
4, 35680, Pitch_bend_c, 5, 8192
4, 35840, Pitch_bend_c, 5, 8320
4, 36000, Pitch_bend_c, 5, 8192
4, 36000, Pitch_bend_c, 5, 8320
4, 36000, Pitch_bend_c, 5, 8192
4, 36000, Note_off_c, 5, 57, 95
4, 36000, Note_on_c, 5, 59, 95
4, 36160, Pitch_bend_c, 5, 8192
4, 36320, Pitch_bend_c, 5, 8320
4, 36480, Pitch_bend_c, 5, 8192
4, 36480, Pitch_bend_c, 5, 8320
4, 36480, Pitch_bend_c, 5, 8192
4, 36480, Note_off_c, 5, 59, 95
4, 36480, Note_on_c, 5, 59, 95
4, 36640, Pitch_bend_c, 5, 8192
4, 36800, Pitch_bend_c, 5, 8320
4, 36960, Pitch_bend_c, 5, 8192
4, 37120, Pitch_bend_c, 5, 8320
4, 37280, Pitch_bend_c, 5, 8192
4, 37440, Pitch_bend_c, 5, 8320
4, 37600, Pitch_bend_c, 5, 8192
4, 37760, Pitch_bend_c, 5, 8320
4, 37920, Pitch_bend_c, 5, 8192
4, 37920, Pitch_bend_c, 5, 8320
4, 37920, Pitch_bend_c, 5, 8192
4, 37920, Note_off_c, 5, 59, 95
4, 37920, Note_on_c, 5, 52, 95
4, 38080, Pitch_bend_c, 5, 8192
4, 38240, Pitch_bend_c, 5, 8320
4, 38400, Pitch_bend_c, 5, 8192
4, 38400, Pitch_bend_c, 5, 8320
4, 38400, Pitch_bend_c, 5, 8192
4, 38400, Note_off_c, 5, 52, 95
4, 38880, Note_on_c, 5, 56, 95
4, 39040, Pitch_bend_c, 5, 8192
4, 39200, Pitch_bend_c, 5, 8320
4, 39360, Pitch_bend_c, 5, 8192
4, 39360, Pitch_bend_c, 5, 8320
4, 39360, Pitch_bend_c, 5, 8192
4, 39360, Note_off_c, 5, 56, 95
4, 39360, Note_on_c, 5, 56, 95
4, 39520, Pitch_bend_c, 5, 8192
4, 39680, Pitch_bend_c, 5, 8320
4, 39840, Pitch_bend_c, 5, 8192
4, 39840, Pitch_bend_c, 5, 8320
4, 39840, Pitch_bend_c, 5, 8192
4, 39840, Note_off_c, 5, 56, 95
4, 39840, Note_on_c, 5, 59, 95
4, 40000, Pitch_bend_c, 5, 8192
4, 40160, Pitch_bend_c, 5, 8320
4, 40320, Pitch_bend_c, 5, 8192
4, 40320, Pitch_bend_c, 5, 8320
4, 40320, Pitch_bend_c, 5, 8192
4, 40320, Note_off_c, 5, 59, 95
4, 40320, Note_on_c, 5, 57, 95
4, 40480, Pitch_bend_c, 5, 8192
4, 40640, Pitch_bend_c, 5, 8320
4, 40800, Pitch_bend_c, 5, 8192
4, 40960, Pitch_bend_c, 5, 8320
4, 41120, Pitch_bend_c, 5, 8192
4, 41280, Pitch_bend_c, 5, 8320
4, 41440, Pitch_bend_c, 5, 8192
4, 41600, Pitch_bend_c, 5, 8320
4, 41760, Pitch_bend_c, 5, 8192
4, 41920, Pitch_bend_c, 5, 8320
4, 42080, Pitch_bend_c, 5, 8192
4, 42240, Pitch_bend_c, 5, 8320
4, 42240, Pitch_bend_c, 5, 8192
4, 42240, Note_off_c, 5, 57, 95
4, 42720, Note_on_c, 5, 57, 95
4, 42880, Pitch_bend_c, 5, 8192
4, 43040, Pitch_bend_c, 5, 8320
4, 43200, Pitch_bend_c, 5, 8192
4, 43200, Pitch_bend_c, 5, 8320
4, 43200, Pitch_bend_c, 5, 8192
4, 43200, Note_off_c, 5, 57, 95
4, 43200, Note_on_c, 5, 57, 95
4, 43360, Pitch_bend_c, 5, 8192
4, 43520, Pitch_bend_c, 5, 8320
4, 43680, Pitch_bend_c, 5, 8192
4, 43680, Pitch_bend_c, 5, 8320
4, 43680, Pitch_bend_c, 5, 8192
4, 43680, Note_off_c, 5, 57, 95
4, 43680, Note_on_c, 5, 59, 95
4, 43840, Pitch_bend_c, 5, 8192
4, 44000, Pitch_bend_c, 5, 8320
4, 44100, Note_on_c, 5, 57, 95
4, 44160, Pitch_bend_c, 5, 8192
4, 44160, Pitch_bend_c, 5, 8320
4, 44160, Pitch_bend_c, 5, 8192
4, 44160, Note_off_c, 5, 59, 95
4, 44160, Note_off_c, 5, 57, 95
4, 44160, Note_on_c, 5, 59, 95
4, 44320, Pitch_bend_c, 5, 8192
4, 44480, Pitch_bend_c, 5, 8320
4, 44640, Pitch_bend_c, 5, 8192
4, 44800, Pitch_bend_c, 5, 8320
4, 44960, Pitch_bend_c, 5, 8192
4, 45120, Pitch_bend_c, 5, 8320
4, 45280, Pitch_bend_c, 5, 8192
4, 45440, Pitch_bend_c, 5, 8320
4, 45600, Pitch_bend_c, 5, 8192
4, 45760, Pitch_bend_c, 5, 8320
4, 45920, Pitch_bend_c, 5, 8192
4, 46080, Pitch_bend_c, 5, 8320
4, 46080, Pitch_bend_c, 5, 8192
4, 46080, Note_off_c, 5, 59, 95
4, 46560, Note_on_c, 5, 56, 95
4, 46720, Pitch_bend_c, 5, 8192
4, 46880, Pitch_bend_c, 5, 8320
4, 47040, Pitch_bend_c, 5, 8192
4, 47040, Pitch_bend_c, 5, 8320
4, 47040, Pitch_bend_c, 5, 8192
4, 47040, Note_off_c, 5, 56, 95
4, 47040, Note_on_c, 5, 56, 95
4, 47200, Pitch_bend_c, 5, 8192
4, 47360, Pitch_bend_c, 5, 8320
4, 47520, Pitch_bend_c, 5, 8192
4, 47520, Pitch_bend_c, 5, 8320
4, 47520, Pitch_bend_c, 5, 8192
4, 47520, Note_off_c, 5, 56, 95
4, 47520, Note_on_c, 5, 59, 95
4, 47680, Pitch_bend_c, 5, 8192
4, 47840, Pitch_bend_c, 5, 8320
4, 48000, Pitch_bend_c, 5, 8192
4, 48000, Pitch_bend_c, 5, 8320
4, 48000, Pitch_bend_c, 5, 8192
4, 48000, Note_off_c, 5, 59, 95
4, 48000, Note_on_c, 5, 57, 95
4, 48160, Pitch_bend_c, 5, 8192
4, 48320, Pitch_bend_c, 5, 8320
4, 48480, Pitch_bend_c, 5, 8192
4, 48640, Pitch_bend_c, 5, 8320
4, 48800, Pitch_bend_c, 5, 8192
4, 48960, Pitch_bend_c, 5, 8320
4, 49120, Pitch_bend_c, 5, 8192
4, 49280, Pitch_bend_c, 5, 8320
4, 49440, Pitch_bend_c, 5, 8192
4, 49600, Pitch_bend_c, 5, 8320
4, 49760, Pitch_bend_c, 5, 8192
4, 49920, Pitch_bend_c, 5, 8320
4, 49920, Pitch_bend_c, 5, 8192
4, 49920, Note_off_c, 5, 57, 95
4, 50400, Note_on_c, 5, 57, 95
4, 50560, Pitch_bend_c, 5, 8192
4, 50720, Pitch_bend_c, 5, 8320
4, 50880, Pitch_bend_c, 5, 8192
4, 50880, Pitch_bend_c, 5, 8320
4, 50880, Pitch_bend_c, 5, 8192
4, 50880, Note_off_c, 5, 57, 95
4, 50880, Note_on_c, 5, 57, 95
4, 51040, Pitch_bend_c, 5, 8192
4, 51200, Pitch_bend_c, 5, 8320
4, 51360, Pitch_bend_c, 5, 8192
4, 51360, Pitch_bend_c, 5, 8320
4, 51360, Pitch_bend_c, 5, 8192
4, 51360, Note_off_c, 5, 57, 95
4, 51360, Note_on_c, 5, 59, 95
4, 51520, Pitch_bend_c, 5, 8192
4, 51680, Pitch_bend_c, 5, 8320
4, 51840, Pitch_bend_c, 5, 8192
4, 51840, Pitch_bend_c, 5, 8320
4, 51840, Pitch_bend_c, 5, 8192
4, 51840, Note_off_c, 5, 59, 95
4, 51840, Note_on_c, 5, 59, 95
4, 52000, Pitch_bend_c, 5, 8192
4, 52160, Pitch_bend_c, 5, 8320
4, 52320, Pitch_bend_c, 5, 8192
4, 52480, Pitch_bend_c, 5, 8320
4, 52640, Pitch_bend_c, 5, 8192
4, 52800, Pitch_bend_c, 5, 8320
4, 52960, Pitch_bend_c, 5, 8192
4, 53120, Pitch_bend_c, 5, 8320
4, 53280, Pitch_bend_c, 5, 8192
4, 53280, Pitch_bend_c, 5, 8320
4, 53280, Pitch_bend_c, 5, 8192
4, 53280, Note_off_c, 5, 59, 95
4, 53280, Note_on_c, 5, 52, 95
4, 53440, Pitch_bend_c, 5, 8192
4, 53600, Pitch_bend_c, 5, 8320
4, 53760, Pitch_bend_c, 5, 8192
4, 53760, Pitch_bend_c, 5, 8320
4, 53760, Pitch_bend_c, 5, 8192
4, 53760, Note_off_c, 5, 52, 95
4, 54240, Note_on_c, 5, 56, 95
4, 54400, Pitch_bend_c, 5, 8192
4, 54560, Pitch_bend_c, 5, 8320
4, 54720, Pitch_bend_c, 5, 8192
4, 54720, Pitch_bend_c, 5, 8320
4, 54720, Pitch_bend_c, 5, 8192
4, 54720, Note_off_c, 5, 56, 95
4, 54720, Note_on_c, 5, 56, 95
4, 54880, Pitch_bend_c, 5, 8192
4, 55040, Pitch_bend_c, 5, 8320
4, 55200, Pitch_bend_c, 5, 8192
4, 55200, Pitch_bend_c, 5, 8320
4, 55200, Pitch_bend_c, 5, 8192
4, 55200, Note_off_c, 5, 56, 95
4, 55200, Note_on_c, 5, 59, 95
4, 55360, Pitch_bend_c, 5, 8192
4, 55520, Pitch_bend_c, 5, 8320
4, 55680, Pitch_bend_c, 5, 8192
4, 55680, Pitch_bend_c, 5, 8320
4, 55680, Pitch_bend_c, 5, 8192
4, 55680, Note_off_c, 5, 59, 95
4, 55680, Note_on_c, 5, 57, 95
4, 55840, Pitch_bend_c, 5, 8192
4, 56000, Pitch_bend_c, 5, 8320
4, 56160, Pitch_bend_c, 5, 8192
4, 56320, Pitch_bend_c, 5, 8320
4, 56480, Pitch_bend_c, 5, 8192
4, 56640, Pitch_bend_c, 5, 8320
4, 56800, Pitch_bend_c, 5, 8192
4, 56960, Pitch_bend_c, 5, 8320
4, 57120, Pitch_bend_c, 5, 8192
4, 57280, Pitch_bend_c, 5, 8320
4, 57440, Pitch_bend_c, 5, 8192
4, 57600, Pitch_bend_c, 5, 8320
4, 57600, Pitch_bend_c, 5, 8192
4, 57600, Note_off_c, 5, 57, 95
4, 58080, Note_on_c, 5, 57, 95
4, 58240, Pitch_bend_c, 5, 8192
4, 58400, Pitch_bend_c, 5, 8320
4, 58560, Pitch_bend_c, 5, 8192
4, 58560, Pitch_bend_c, 5, 8320
4, 58560, Pitch_bend_c, 5, 8192
4, 58560, Note_off_c, 5, 57, 95
4, 58560, Note_on_c, 5, 57, 95
4, 58720, Pitch_bend_c, 5, 8192
4, 58880, Pitch_bend_c, 5, 8320
4, 59040, Pitch_bend_c, 5, 8192
4, 59040, Pitch_bend_c, 5, 8320
4, 59040, Pitch_bend_c, 5, 8192
4, 59040, Note_off_c, 5, 57, 95
4, 59040, Note_on_c, 5, 59, 95
4, 59200, Pitch_bend_c, 5, 8192
4, 59360, Pitch_bend_c, 5, 8320
4, 59460, Note_on_c, 5, 57, 95
4, 59520, Pitch_bend_c, 5, 8192
4, 59520, Pitch_bend_c, 5, 8320
4, 59520, Pitch_bend_c, 5, 8192
4, 59520, Note_off_c, 5, 59, 95
4, 59520, Note_off_c, 5, 57, 95
4, 59520, Note_on_c, 5, 59, 95
4, 59680, Pitch_bend_c, 5, 8192
4, 59840, Pitch_bend_c, 5, 8320
4, 60000, Pitch_bend_c, 5, 8192
4, 60160, Pitch_bend_c, 5, 8320
4, 60320, Pitch_bend_c, 5, 8192
4, 60480, Pitch_bend_c, 5, 8320
4, 60640, Pitch_bend_c, 5, 8192
4, 60800, Pitch_bend_c, 5, 8320
4, 60960, Pitch_bend_c, 5, 8192
4, 61120, Pitch_bend_c, 5, 8320
4, 61280, Pitch_bend_c, 5, 8192
4, 61440, Pitch_bend_c, 5, 8320
4, 61440, Pitch_bend_c, 5, 8192
4, 61440, Note_off_c, 5, 59, 95
4, 61860, Note_on_c, 5, 56, 95
4, 61920, Note_off_c, 5, 56, 95
4, 61920, Note_on_c, 5, 56, 95
4, 62080, Pitch_bend_c, 5, 8192
4, 62240, Pitch_bend_c, 5, 8320
4, 62400, Pitch_bend_c, 5, 8192
4, 62400, Pitch_bend_c, 5, 8320
4, 62400, Pitch_bend_c, 5, 8192
4, 62400, Note_off_c, 5, 56, 95
4, 62400, Note_on_c, 5, 68, 95
4, 62560, Pitch_bend_c, 5, 8192
4, 62720, Pitch_bend_c, 5, 8320
4, 62880, Pitch_bend_c, 5, 8192
4, 62880, Pitch_bend_c, 5, 8320
4, 62880, Pitch_bend_c, 5, 8192
4, 62880, Note_off_c, 5, 68, 95
4, 62880, Note_on_c, 5, 66, 95
4, 63040, Pitch_bend_c, 5, 8192
4, 63200, Pitch_bend_c, 5, 8320
4, 63360, Pitch_bend_c, 5, 8192
4, 63360, Pitch_bend_c, 5, 8320
4, 63360, Pitch_bend_c, 5, 8192
4, 63360, Note_off_c, 5, 66, 95
4, 63360, Note_on_c, 5, 64, 95
4, 63520, Pitch_bend_c, 5, 8192
4, 63680, Pitch_bend_c, 5, 8320
4, 63840, Pitch_bend_c, 5, 8192
4, 64000, Pitch_bend_c, 5, 8320
4, 64160, Pitch_bend_c, 5, 8192
4, 64320, Pitch_bend_c, 5, 8320
4, 64320, Pitch_bend_c, 5, 8192
4, 64320, Note_off_c, 5, 64, 95
4, 64320, Note_on_c, 5, 63, 95
4, 64440, Pitch_bend_c, 5, 8192
4, 64440, Pitch_bend_c, 5, 8320
4, 64440, Pitch_bend_c, 5, 8192
4, 64440, Note_off_c, 5, 63, 95
4, 64440, Note_on_c, 4, 61, 47
4, 64560, Note_off_c, 4, 61, 47
4, 64560, Note_on_c, 4, 59, 22
4, 64680, Note_off_c, 4, 59, 22
4, 64680, Note_on_c, 5, 57, 47
4, 64840, Pitch_bend_c, 5, 8192
4, 65000, Pitch_bend_c, 5, 8320
4, 65160, Pitch_bend_c, 5, 8192
4, 65280, Pitch_bend_c, 5, 8320
4, 65280, Pitch_bend_c, 5, 8192
4, 65280, Note_off_c, 5, 57, 47
4, 65700, Note_on_c, 5, 57, 95
4, 65760, Note_off_c, 5, 57, 95
4, 65760, Note_on_c, 5, 59, 95
4, 66240, Note_off_c, 5, 59, 95
4, 66240, Note_on_c, 5, 59, 95
4, 66400, Pitch_bend_c, 5, 8192
4, 66560, Pitch_bend_c, 5, 8320
4, 66660, Note_on_c, 5, 59, 95
4, 66720, Pitch_bend_c, 5, 8192
4, 66720, Pitch_bend_c, 5, 8320
4, 66720, Pitch_bend_c, 5, 8192
4, 66720, Note_off_c, 5, 59, 95
4, 66720, Note_off_c, 5, 59, 95
4, 66720, Note_on_c, 5, 61, 95
4, 66880, Pitch_bend_c, 5, 8192
4, 67040, Pitch_bend_c, 5, 8320
4, 67140, Note_on_c, 5, 57, 95
4, 67200, Pitch_bend_c, 5, 8192
4, 67200, Pitch_bend_c, 5, 8320
4, 67200, Pitch_bend_c, 5, 8192
4, 67200, Note_off_c, 5, 61, 95
4, 67200, Note_off_c, 5, 57, 95
4, 67200, Note_on_c, 5, 59, 95
4, 67360, Pitch_bend_c, 5, 8192
4, 67520, Pitch_bend_c, 5, 8320
4, 67680, Pitch_bend_c, 5, 8192
4, 67840, Pitch_bend_c, 5, 8320
4, 68000, Pitch_bend_c, 5, 8192
4, 68160, Pitch_bend_c, 5, 8320
4, 68160, Pitch_bend_c, 5, 8192
4, 68160, Note_off_c, 5, 59, 95
4, 68160, Note_on_c, 4, 59, 47
4, 68280, Note_off_c, 4, 59, 47
4, 68280, Note_on_c, 4, 57, 22
4, 68400, Note_off_c, 4, 57, 22
4, 68400, Note_on_c, 4, 56, 22
4, 68520, Note_off_c, 4, 56, 22
4, 68520, Note_on_c, 5, 52, 47
4, 68680, Pitch_bend_c, 5, 8192
4, 68840, Pitch_bend_c, 5, 8320
4, 69000, Pitch_bend_c, 5, 8192
4, 69120, Pitch_bend_c, 5, 8320
4, 69120, Pitch_bend_c, 5, 8192
4, 69120, Note_off_c, 5, 52, 47
4, 69540, Note_on_c, 5, 51, 95
4, 69600, Note_off_c, 5, 51, 95
4, 69600, Note_on_c, 5, 52, 95
4, 69760, Pitch_bend_c, 5, 8192
4, 69920, Pitch_bend_c, 5, 8320
4, 70080, Pitch_bend_c, 5, 8192
4, 70080, Pitch_bend_c, 5, 8320
4, 70080, Pitch_bend_c, 5, 8192
4, 70080, Note_off_c, 5, 52, 95
4, 70080, Note_on_c, 5, 52, 95
4, 70240, Pitch_bend_c, 5, 8192
4, 70400, Pitch_bend_c, 5, 8320
4, 70560, Pitch_bend_c, 5, 8192
4, 70560, Pitch_bend_c, 5, 8320
4, 70560, Pitch_bend_c, 5, 8192
4, 70560, Note_off_c, 5, 52, 95
4, 70560, Note_on_c, 5, 52, 95
4, 70720, Pitch_bend_c, 5, 8192
4, 70880, Pitch_bend_c, 5, 8320
4, 70980, Note_on_c, 5, 56, 95
4, 71040, Pitch_bend_c, 5, 8192
4, 71040, Pitch_bend_c, 5, 8320
4, 71040, Pitch_bend_c, 5, 8192
4, 71040, Note_off_c, 5, 52, 95
4, 71040, Note_off_c, 5, 56, 95
4, 71040, Note_on_c, 5, 57, 95
4, 71200, Pitch_bend_c, 5, 8192
4, 71360, Pitch_bend_c, 5, 8320
4, 71520, Pitch_bend_c, 5, 8192
4, 71680, Pitch_bend_c, 5, 8320
4, 71840, Pitch_bend_c, 5, 8192
4, 71940, Note_on_c, 5, 56, 95
4, 72000, Pitch_bend_c, 5, 8320
4, 72000, Pitch_bend_c, 5, 8192
4, 72000, Note_off_c, 5, 57, 95
4, 72000, Note_off_c, 5, 56, 95
4, 72000, Note_on_c, 5, 57, 95
4, 72160, Pitch_bend_c, 5, 8192
4, 72320, Pitch_bend_c, 5, 8320
4, 72480, Pitch_bend_c, 5, 8192
4, 72640, Pitch_bend_c, 5, 8320
4, 72800, Pitch_bend_c, 5, 8192
4, 72960, Pitch_bend_c, 5, 8320
4, 72960, Pitch_bend_c, 5, 8192
4, 72960, Note_off_c, 5, 57, 95
4, 73440, Note_on_c, 4, 61, 95
4, 73920, Note_off_c, 4, 61, 95
4, 73920, Note_on_c, 4, 61, 95
4, 74400, Note_off_c, 4, 61, 95
4, 74400, Note_on_c, 4, 59, 95
4, 74880, Note_off_c, 4, 59, 95
4, 74880, Note_on_c, 4, 61, 95
4, 75360, Note_off_c, 4, 61, 95
4, 75360, Note_on_c, 4, 63, 95
4, 75840, Note_off_c, 4, 63, 95
4, 75840, Note_on_c, 4, 64, 95
4, 76320, Note_off_c, 4, 64, 95
4, 76320, Note_on_c, 4, 63, 95
4, 76800, Note_off_c, 4, 63, 95
4, 76800, Note_on_c, 4, 61, 95
4, 77280, Note_off_c, 4, 61, 95
4, 77280, Note_on_c, 5, 59, 95
4, 77440, Pitch_bend_c, 5, 8192
4, 77600, Pitch_bend_c, 5, 8320
4, 77760, Pitch_bend_c, 5, 8192
4, 77920, Pitch_bend_c, 5, 8320
4, 78080, Pitch_bend_c, 5, 8192
4, 78240, Pitch_bend_c, 5, 8320
4, 78400, Pitch_bend_c, 5, 8192
4, 78560, Pitch_bend_c, 5, 8320
4, 78720, Pitch_bend_c, 5, 8192
4, 78880, Pitch_bend_c, 5, 8320
4, 79040, Pitch_bend_c, 5, 8192
4, 79200, Pitch_bend_c, 5, 8320
4, 79360, Pitch_bend_c, 5, 8192
4, 79520, Pitch_bend_c, 5, 8320
4, 79680, Pitch_bend_c, 5, 8192
4, 79840, Pitch_bend_c, 5, 8320
4, 80000, Pitch_bend_c, 5, 8192
4, 80160, Pitch_bend_c, 5, 8320
4, 80320, Pitch_bend_c, 5, 8192
4, 80480, Pitch_bend_c, 5, 8320
4, 80640, Pitch_bend_c, 5, 8192
4, 80640, Pitch_bend_c, 5, 8320
4, 80640, Pitch_bend_c, 5, 8192
4, 80640, Note_off_c, 5, 59, 95
4, 81120, Note_on_c, 4, 61, 95
4, 81600, Note_off_c, 4, 61, 95
4, 81600, Note_on_c, 4, 61, 95
4, 82080, Note_off_c, 4, 61, 95
4, 82080, Note_on_c, 4, 56, 95
4, 82560, Note_off_c, 4, 56, 95
4, 82560, Note_on_c, 4, 61, 95
4, 83040, Note_off_c, 4, 61, 95
4, 83040, Note_on_c, 4, 63, 95
4, 83520, Note_off_c, 4, 63, 95
4, 83520, Note_on_c, 4, 64, 95
4, 84000, Note_off_c, 4, 64, 95
4, 84000, Note_on_c, 4, 66, 95
4, 84480, Note_off_c, 4, 66, 95
4, 84480, Pitch_bend_c, 5, 8192
4, 84480, Note_on_c, 5, 63, 95
4, 84720, Pitch_bend_c, 5, 8320
4, 84960, Pitch_bend_c, 5, 8448
4, 84960, Pitch_bend_c, 5, 8448
4, 85440, Pitch_bend_c, 5, 8448
4, 85440, Pitch_bend_c, 5, 8192
4, 85440, Note_off_c, 5, 63, 95
4, 85440, Note_on_c, 4, 61, 95
4, 85920, Note_off_c, 4, 61, 95
4, 85920, Note_on_c, 4, 59, 95
4, 87840, Note_off_c, 4, 59, 95
4, 88800, Note_on_c, 4, 61, 95
4, 89280, Note_off_c, 4, 61, 95
4, 89280, Note_on_c, 4, 61, 95
4, 89760, Note_off_c, 4, 61, 95
4, 89760, Note_on_c, 4, 56, 95
4, 90240, Note_off_c, 4, 56, 95
4, 90240, Note_on_c, 4, 61, 95
4, 90720, Note_off_c, 4, 61, 95
4, 90720, Note_on_c, 4, 63, 95
4, 91200, Note_off_c, 4, 63, 95
4, 91200, Note_on_c, 4, 64, 95
4, 91680, Note_off_c, 4, 64, 95
4, 91680, Note_on_c, 4, 66, 95
4, 92100, Note_on_c, 5, 61, 95
4, 92160, Note_off_c, 4, 66, 95
4, 92160, Note_off_c, 5, 61, 95
4, 92160, Note_on_c, 5, 63, 95
4, 92320, Pitch_bend_c, 5, 8192
4, 92480, Pitch_bend_c, 5, 8320
4, 92640, Pitch_bend_c, 5, 8192
4, 92800, Pitch_bend_c, 5, 8320
4, 92960, Pitch_bend_c, 5, 8192
4, 93120, Pitch_bend_c, 5, 8320
4, 93280, Pitch_bend_c, 5, 8192
4, 93440, Pitch_bend_c, 5, 8320
4, 93600, Pitch_bend_c, 5, 8192
4, 93760, Pitch_bend_c, 5, 8320
4, 93920, Pitch_bend_c, 5, 8192
4, 94080, Pitch_bend_c, 5, 8320
4, 94080, Pitch_bend_c, 5, 8192
4, 94080, Note_off_c, 5, 63, 95
4, 96480, Note_on_c, 4, 61, 95
4, 96960, Note_off_c, 4, 61, 95
4, 96960, Note_on_c, 4, 61, 95
4, 97440, Note_off_c, 4, 61, 95
4, 97440, Note_on_c, 4, 56, 95
4, 97920, Note_off_c, 4, 56, 95
4, 97920, Note_on_c, 4, 61, 95
4, 98400, Note_off_c, 4, 61, 95
4, 98400, Note_on_c, 4, 63, 95
4, 98880, Note_off_c, 4, 63, 95
4, 98880, Note_on_c, 4, 64, 95
4, 99360, Note_off_c, 4, 64, 95
4, 99360, Note_on_c, 4, 66, 95
4, 99840, Note_off_c, 4, 66, 95
4, 99840, Pitch_bend_c, 5, 8192
4, 99840, Note_on_c, 5, 63, 95
4, 100080, Pitch_bend_c, 5, 8320
4, 100320, Pitch_bend_c, 5, 8448
4, 100320, Pitch_bend_c, 5, 8448
4, 100800, Pitch_bend_c, 5, 8448
4, 100800, Pitch_bend_c, 5, 8192
4, 100800, Note_off_c, 5, 63, 95
4, 100800, Note_on_c, 4, 61, 95
4, 101280, Note_off_c, 4, 61, 95
4, 101280, Note_on_c, 4, 59, 95
4, 103200, Note_off_c, 4, 59, 95
4, 104160, Note_on_c, 5, 57, 95
4, 104320, Pitch_bend_c, 5, 8192
4, 104480, Pitch_bend_c, 5, 8320
4, 104640, Pitch_bend_c, 5, 8192
4, 104640, Pitch_bend_c, 5, 8320
4, 104640, Pitch_bend_c, 5, 8192
4, 104640, Note_off_c, 5, 57, 95
4, 104640, Note_on_c, 5, 57, 95
4, 104800, Pitch_bend_c, 5, 8192
4, 104960, Pitch_bend_c, 5, 8320
4, 105120, Pitch_bend_c, 5, 8192
4, 105120, Pitch_bend_c, 5, 8320
4, 105120, Pitch_bend_c, 5, 8192
4, 105120, Note_off_c, 5, 57, 95
4, 105120, Note_on_c, 5, 57, 95
4, 105280, Pitch_bend_c, 5, 8192
4, 105440, Pitch_bend_c, 5, 8320
4, 105600, Pitch_bend_c, 5, 8192
4, 105600, Pitch_bend_c, 5, 8320
4, 105600, Pitch_bend_c, 5, 8192
4, 105600, Note_off_c, 5, 57, 95
4, 105600, Note_on_c, 5, 57, 95
4, 105760, Pitch_bend_c, 5, 8192
4, 105920, Pitch_bend_c, 5, 8320
4, 106080, Pitch_bend_c, 5, 8192
4, 106080, Pitch_bend_c, 5, 8320
4, 106080, Pitch_bend_c, 5, 8192
4, 106080, Note_off_c, 5, 57, 95
4, 106080, Note_on_c, 5, 57, 95
4, 106240, Pitch_bend_c, 5, 8192
4, 106400, Pitch_bend_c, 5, 8320
4, 106560, Pitch_bend_c, 5, 8192
4, 106560, Pitch_bend_c, 5, 8320
4, 106560, Pitch_bend_c, 5, 8192
4, 106560, Note_off_c, 5, 57, 95
4, 106560, Note_on_c, 5, 61, 95
4, 106720, Pitch_bend_c, 5, 8192
4, 106880, Pitch_bend_c, 5, 8320
4, 107040, Pitch_bend_c, 5, 8192
4, 107040, Pitch_bend_c, 5, 8320
4, 107040, Pitch_bend_c, 5, 8192
4, 107040, Note_off_c, 5, 61, 95
4, 107040, Note_on_c, 5, 64, 95
4, 107200, Pitch_bend_c, 5, 8192
4, 107360, Pitch_bend_c, 5, 8320
4, 107520, Pitch_bend_c, 5, 8192
4, 107520, Pitch_bend_c, 5, 8320
4, 107520, Pitch_bend_c, 5, 8192
4, 107520, Note_off_c, 5, 64, 95
4, 107520, Note_on_c, 4, 63, 95
4, 109440, Note_off_c, 4, 63, 95
4, 111840, Note_on_c, 5, 56, 95
4, 112000, Pitch_bend_c, 5, 8192
4, 112160, Pitch_bend_c, 5, 8320
4, 112320, Pitch_bend_c, 5, 8192
4, 112320, Pitch_bend_c, 5, 8320
4, 112320, Pitch_bend_c, 5, 8192
4, 112320, Note_off_c, 5, 56, 95
4, 112320, Note_on_c, 5, 56, 95
4, 112480, Pitch_bend_c, 5, 8192
4, 112640, Pitch_bend_c, 5, 8320
4, 112800, Pitch_bend_c, 5, 8192
4, 112800, Pitch_bend_c, 5, 8320
4, 112800, Pitch_bend_c, 5, 8192
4, 112800, Note_off_c, 5, 56, 95
4, 112800, Note_on_c, 5, 59, 95
4, 112960, Pitch_bend_c, 5, 8192
4, 113120, Pitch_bend_c, 5, 8320
4, 113280, Pitch_bend_c, 5, 8192
4, 113440, Pitch_bend_c, 5, 8320
4, 113600, Pitch_bend_c, 5, 8192
4, 113760, Pitch_bend_c, 5, 8320
4, 113760, Pitch_bend_c, 5, 8192
4, 113760, Note_off_c, 5, 59, 95
4, 113760, Note_on_c, 5, 57, 95
4, 113920, Pitch_bend_c, 5, 8192
4, 114080, Pitch_bend_c, 5, 8320
4, 114240, Pitch_bend_c, 5, 8192
4, 114400, Pitch_bend_c, 5, 8320
4, 114560, Pitch_bend_c, 5, 8192
4, 114720, Pitch_bend_c, 5, 8320
4, 114880, Pitch_bend_c, 5, 8192
4, 115040, Pitch_bend_c, 5, 8320
4, 115200, Pitch_bend_c, 5, 8192
4, 115200, Pitch_bend_c, 5, 8320
4, 115200, Pitch_bend_c, 5, 8192
4, 115200, Note_off_c, 5, 57, 95
4, 115680, Note_on_c, 5, 57, 95
4, 115840, Pitch_bend_c, 5, 8192
4, 116000, Pitch_bend_c, 5, 8320
4, 116160, Pitch_bend_c, 5, 8192
4, 116160, Pitch_bend_c, 5, 8320
4, 116160, Pitch_bend_c, 5, 8192
4, 116160, Note_off_c, 5, 57, 95
4, 116160, Note_on_c, 5, 57, 95
4, 116320, Pitch_bend_c, 5, 8192
4, 116480, Pitch_bend_c, 5, 8320
4, 116640, Pitch_bend_c, 5, 8192
4, 116640, Pitch_bend_c, 5, 8320
4, 116640, Pitch_bend_c, 5, 8192
4, 116640, Note_off_c, 5, 57, 95
4, 116640, Note_on_c, 5, 59, 95
4, 116800, Pitch_bend_c, 5, 8192
4, 116960, Pitch_bend_c, 5, 8320
4, 117120, Pitch_bend_c, 5, 8192
4, 117120, Pitch_bend_c, 5, 8320
4, 117120, Pitch_bend_c, 5, 8192
4, 117120, Note_off_c, 5, 59, 95
4, 117120, Note_on_c, 5, 59, 95
4, 117280, Pitch_bend_c, 5, 8192
4, 117440, Pitch_bend_c, 5, 8320
4, 117600, Pitch_bend_c, 5, 8192
4, 117760, Pitch_bend_c, 5, 8320
4, 117920, Pitch_bend_c, 5, 8192
4, 118080, Pitch_bend_c, 5, 8320
4, 118240, Pitch_bend_c, 5, 8192
4, 118400, Pitch_bend_c, 5, 8320
4, 118560, Pitch_bend_c, 5, 8192
4, 118560, Pitch_bend_c, 5, 8320
4, 118560, Pitch_bend_c, 5, 8192
4, 118560, Note_off_c, 5, 59, 95
4, 118560, Note_on_c, 5, 52, 95
4, 118720, Pitch_bend_c, 5, 8192
4, 118880, Pitch_bend_c, 5, 8320
4, 119040, Pitch_bend_c, 5, 8192
4, 119040, Pitch_bend_c, 5, 8320
4, 119040, Pitch_bend_c, 5, 8192
4, 119040, Note_off_c, 5, 52, 95
4, 119520, Note_on_c, 5, 56, 95
4, 119680, Pitch_bend_c, 5, 8192
4, 119840, Pitch_bend_c, 5, 8320
4, 120000, Pitch_bend_c, 5, 8192
4, 120000, Pitch_bend_c, 5, 8320
4, 120000, Pitch_bend_c, 5, 8192
4, 120000, Note_off_c, 5, 56, 95
4, 120000, Note_on_c, 5, 56, 95
4, 120160, Pitch_bend_c, 5, 8192
4, 120320, Pitch_bend_c, 5, 8320
4, 120480, Pitch_bend_c, 5, 8192
4, 120480, Pitch_bend_c, 5, 8320
4, 120480, Pitch_bend_c, 5, 8192
4, 120480, Note_off_c, 5, 56, 95
4, 120480, Note_on_c, 5, 59, 95
4, 120640, Pitch_bend_c, 5, 8192
4, 120800, Pitch_bend_c, 5, 8320
4, 120960, Pitch_bend_c, 5, 8192
4, 121120, Pitch_bend_c, 5, 8320
4, 121280, Pitch_bend_c, 5, 8192
4, 121440, Pitch_bend_c, 5, 8320
4, 121440, Pitch_bend_c, 5, 8192
4, 121440, Note_off_c, 5, 59, 95
4, 121440, Note_on_c, 5, 57, 95
4, 121600, Pitch_bend_c, 5, 8192
4, 121760, Pitch_bend_c, 5, 8320
4, 121920, Pitch_bend_c, 5, 8192
4, 122080, Pitch_bend_c, 5, 8320
4, 122240, Pitch_bend_c, 5, 8192
4, 122400, Pitch_bend_c, 5, 8320
4, 122560, Pitch_bend_c, 5, 8192
4, 122720, Pitch_bend_c, 5, 8320
4, 122880, Pitch_bend_c, 5, 8192
4, 122880, Pitch_bend_c, 5, 8320
4, 122880, Pitch_bend_c, 5, 8192
4, 122880, Note_off_c, 5, 57, 95
4, 123360, Note_on_c, 5, 57, 95
4, 123520, Pitch_bend_c, 5, 8192
4, 123680, Pitch_bend_c, 5, 8320
4, 123840, Pitch_bend_c, 5, 8192
4, 123840, Pitch_bend_c, 5, 8320
4, 123840, Pitch_bend_c, 5, 8192
4, 123840, Note_off_c, 5, 57, 95
4, 123840, Note_on_c, 5, 57, 95
4, 124000, Pitch_bend_c, 5, 8192
4, 124160, Pitch_bend_c, 5, 8320
4, 124320, Pitch_bend_c, 5, 8192
4, 124320, Pitch_bend_c, 5, 8320
4, 124320, Pitch_bend_c, 5, 8192
4, 124320, Note_off_c, 5, 57, 95
4, 124320, Note_on_c, 5, 59, 95
4, 124480, Pitch_bend_c, 5, 8192
4, 124640, Pitch_bend_c, 5, 8320
4, 124740, Note_on_c, 5, 57, 95
4, 124800, Pitch_bend_c, 5, 8192
4, 124800, Pitch_bend_c, 5, 8320
4, 124800, Pitch_bend_c, 5, 8192
4, 124800, Note_off_c, 5, 59, 95
4, 124800, Note_off_c, 5, 57, 95
4, 124800, Note_on_c, 5, 59, 95
4, 124960, Pitch_bend_c, 5, 8192
4, 125120, Pitch_bend_c, 5, 8320
4, 125280, Pitch_bend_c, 5, 8192
4, 125440, Pitch_bend_c, 5, 8320
4, 125600, Pitch_bend_c, 5, 8192
4, 125760, Pitch_bend_c, 5, 8320
4, 125920, Pitch_bend_c, 5, 8192
4, 126080, Pitch_bend_c, 5, 8320
4, 126240, Pitch_bend_c, 5, 8192
4, 126400, Pitch_bend_c, 5, 8320
4, 126560, Pitch_bend_c, 5, 8192
4, 126720, Pitch_bend_c, 5, 8320
4, 126720, Pitch_bend_c, 5, 8192
4, 126720, Note_off_c, 5, 59, 95
4, 127200, Note_on_c, 5, 56, 95
4, 127360, Pitch_bend_c, 5, 8192
4, 127520, Pitch_bend_c, 5, 8320
4, 127680, Pitch_bend_c, 5, 8192
4, 127680, Pitch_bend_c, 5, 8320
4, 127680, Pitch_bend_c, 5, 8192
4, 127680, Note_off_c, 5, 56, 95
4, 127680, Note_on_c, 5, 56, 95
4, 127840, Pitch_bend_c, 5, 8192
4, 128000, Pitch_bend_c, 5, 8320
4, 128160, Pitch_bend_c, 5, 8192
4, 128160, Pitch_bend_c, 5, 8320
4, 128160, Pitch_bend_c, 5, 8192
4, 128160, Note_off_c, 5, 56, 95
4, 128160, Note_on_c, 5, 59, 95
4, 128320, Pitch_bend_c, 5, 8192
4, 128480, Pitch_bend_c, 5, 8320
4, 128640, Pitch_bend_c, 5, 8192
4, 128640, Pitch_bend_c, 5, 8320
4, 128640, Pitch_bend_c, 5, 8192
4, 128640, Note_off_c, 5, 59, 95
4, 128640, Note_on_c, 5, 57, 95
4, 128800, Pitch_bend_c, 5, 8192
4, 128960, Pitch_bend_c, 5, 8320
4, 129120, Pitch_bend_c, 5, 8192
4, 129280, Pitch_bend_c, 5, 8320
4, 129440, Pitch_bend_c, 5, 8192
4, 129600, Pitch_bend_c, 5, 8320
4, 129760, Pitch_bend_c, 5, 8192
4, 129920, Pitch_bend_c, 5, 8320
4, 130080, Pitch_bend_c, 5, 8192
4, 130240, Pitch_bend_c, 5, 8320
4, 130400, Pitch_bend_c, 5, 8192
4, 130560, Pitch_bend_c, 5, 8320
4, 130560, Pitch_bend_c, 5, 8192
4, 130560, Note_off_c, 5, 57, 95
4, 131040, Note_on_c, 5, 57, 95
4, 131200, Pitch_bend_c, 5, 8192
4, 131360, Pitch_bend_c, 5, 8320
4, 131520, Pitch_bend_c, 5, 8192
4, 131520, Pitch_bend_c, 5, 8320
4, 131520, Pitch_bend_c, 5, 8192
4, 131520, Note_off_c, 5, 57, 95
4, 131520, Note_on_c, 5, 57, 95
4, 131680, Pitch_bend_c, 5, 8192
4, 131840, Pitch_bend_c, 5, 8320
4, 132000, Pitch_bend_c, 5, 8192
4, 132000, Pitch_bend_c, 5, 8320
4, 132000, Pitch_bend_c, 5, 8192
4, 132000, Note_off_c, 5, 57, 95
4, 132000, Note_on_c, 5, 59, 95
4, 132160, Pitch_bend_c, 5, 8192
4, 132320, Pitch_bend_c, 5, 8320
4, 132480, Pitch_bend_c, 5, 8192
4, 132480, Pitch_bend_c, 5, 8320
4, 132480, Pitch_bend_c, 5, 8192
4, 132480, Note_off_c, 5, 59, 95
4, 132480, Note_on_c, 5, 59, 95
4, 132640, Pitch_bend_c, 5, 8192
4, 132800, Pitch_bend_c, 5, 8320
4, 132960, Pitch_bend_c, 5, 8192
4, 133120, Pitch_bend_c, 5, 8320
4, 133280, Pitch_bend_c, 5, 8192
4, 133440, Pitch_bend_c, 5, 8320
4, 133600, Pitch_bend_c, 5, 8192
4, 133760, Pitch_bend_c, 5, 8320
4, 133920, Pitch_bend_c, 5, 8192
4, 133920, Pitch_bend_c, 5, 8320
4, 133920, Pitch_bend_c, 5, 8192
4, 133920, Note_off_c, 5, 59, 95
4, 133920, Note_on_c, 5, 52, 95
4, 134080, Pitch_bend_c, 5, 8192
4, 134240, Pitch_bend_c, 5, 8320
4, 134400, Pitch_bend_c, 5, 8192
4, 134400, Pitch_bend_c, 5, 8320
4, 134400, Pitch_bend_c, 5, 8192
4, 134400, Note_off_c, 5, 52, 95
4, 134880, Note_on_c, 5, 56, 95
4, 135040, Pitch_bend_c, 5, 8192
4, 135200, Pitch_bend_c, 5, 8320
4, 135360, Pitch_bend_c, 5, 8192
4, 135360, Pitch_bend_c, 5, 8320
4, 135360, Pitch_bend_c, 5, 8192
4, 135360, Note_off_c, 5, 56, 95
4, 135360, Note_on_c, 5, 56, 95
4, 135520, Pitch_bend_c, 5, 8192
4, 135680, Pitch_bend_c, 5, 8320
4, 135840, Pitch_bend_c, 5, 8192
4, 135840, Pitch_bend_c, 5, 8320
4, 135840, Pitch_bend_c, 5, 8192
4, 135840, Note_off_c, 5, 56, 95
4, 135840, Note_on_c, 5, 59, 95
4, 136000, Pitch_bend_c, 5, 8192
4, 136160, Pitch_bend_c, 5, 8320
4, 136320, Pitch_bend_c, 5, 8192
4, 136320, Pitch_bend_c, 5, 8320
4, 136320, Pitch_bend_c, 5, 8192
4, 136320, Note_off_c, 5, 59, 95
4, 136320, Note_on_c, 5, 57, 95
4, 136480, Pitch_bend_c, 5, 8192
4, 136640, Pitch_bend_c, 5, 8320
4, 136800, Pitch_bend_c, 5, 8192
4, 136960, Pitch_bend_c, 5, 8320
4, 137120, Pitch_bend_c, 5, 8192
4, 137280, Pitch_bend_c, 5, 8320
4, 137440, Pitch_bend_c, 5, 8192
4, 137600, Pitch_bend_c, 5, 8320
4, 137760, Pitch_bend_c, 5, 8192
4, 137920, Pitch_bend_c, 5, 8320
4, 138080, Pitch_bend_c, 5, 8192
4, 138240, Pitch_bend_c, 5, 8320
4, 138240, Pitch_bend_c, 5, 8192
4, 138240, Note_off_c, 5, 57, 95
4, 138720, Note_on_c, 5, 57, 95
4, 138880, Pitch_bend_c, 5, 8192
4, 139040, Pitch_bend_c, 5, 8320
4, 139200, Pitch_bend_c, 5, 8192
4, 139200, Pitch_bend_c, 5, 8320
4, 139200, Pitch_bend_c, 5, 8192
4, 139200, Note_off_c, 5, 57, 95
4, 139200, Note_on_c, 5, 57, 95
4, 139360, Pitch_bend_c, 5, 8192
4, 139520, Pitch_bend_c, 5, 8320
4, 139680, Pitch_bend_c, 5, 8192
4, 139680, Pitch_bend_c, 5, 8320
4, 139680, Pitch_bend_c, 5, 8192
4, 139680, Note_off_c, 5, 57, 95
4, 139680, Note_on_c, 5, 59, 95
4, 139840, Pitch_bend_c, 5, 8192
4, 140000, Pitch_bend_c, 5, 8320
4, 140100, Note_on_c, 5, 57, 95
4, 140160, Pitch_bend_c, 5, 8192
4, 140160, Pitch_bend_c, 5, 8320
4, 140160, Pitch_bend_c, 5, 8192
4, 140160, Note_off_c, 5, 59, 95
4, 140160, Note_off_c, 5, 57, 95
4, 140160, Note_on_c, 5, 59, 95
4, 140320, Pitch_bend_c, 5, 8192
4, 140480, Pitch_bend_c, 5, 8320
4, 140640, Pitch_bend_c, 5, 8192
4, 140800, Pitch_bend_c, 5, 8320
4, 140960, Pitch_bend_c, 5, 8192
4, 141120, Pitch_bend_c, 5, 8320
4, 141280, Pitch_bend_c, 5, 8192
4, 141440, Pitch_bend_c, 5, 8320
4, 141600, Pitch_bend_c, 5, 8192
4, 141760, Pitch_bend_c, 5, 8320
4, 141920, Pitch_bend_c, 5, 8192
4, 142080, Pitch_bend_c, 5, 8320
4, 142080, Pitch_bend_c, 5, 8192
4, 142080, Note_off_c, 5, 59, 95
4, 142500, Note_on_c, 5, 56, 95
4, 142560, Note_off_c, 5, 56, 95
4, 142560, Note_on_c, 5, 56, 95
4, 142720, Pitch_bend_c, 5, 8192
4, 142880, Pitch_bend_c, 5, 8320
4, 143040, Pitch_bend_c, 5, 8192
4, 143040, Pitch_bend_c, 5, 8320
4, 143040, Pitch_bend_c, 5, 8192
4, 143040, Note_off_c, 5, 56, 95
4, 143040, Note_on_c, 5, 68, 95
4, 143200, Pitch_bend_c, 5, 8192
4, 143360, Pitch_bend_c, 5, 8320
4, 143520, Pitch_bend_c, 5, 8192
4, 143520, Pitch_bend_c, 5, 8320
4, 143520, Pitch_bend_c, 5, 8192
4, 143520, Note_off_c, 5, 68, 95
4, 143520, Note_on_c, 5, 66, 95
4, 143680, Pitch_bend_c, 5, 8192
4, 143840, Pitch_bend_c, 5, 8320
4, 144000, Pitch_bend_c, 5, 8192
4, 144000, Pitch_bend_c, 5, 8320
4, 144000, Pitch_bend_c, 5, 8192
4, 144000, Note_off_c, 5, 66, 95
4, 144000, Note_on_c, 5, 64, 95
4, 144160, Pitch_bend_c, 5, 8192
4, 144320, Pitch_bend_c, 5, 8320
4, 144480, Pitch_bend_c, 5, 8192
4, 144640, Pitch_bend_c, 5, 8320
4, 144800, Pitch_bend_c, 5, 8192
4, 144960, Pitch_bend_c, 5, 8320
4, 144960, Pitch_bend_c, 5, 8192
4, 144960, Note_off_c, 5, 64, 95
4, 144960, Note_on_c, 5, 63, 95
4, 145080, Pitch_bend_c, 5, 8192
4, 145080, Pitch_bend_c, 5, 8320
4, 145080, Pitch_bend_c, 5, 8192
4, 145080, Note_off_c, 5, 63, 95
4, 145080, Note_on_c, 4, 61, 47
4, 145200, Note_off_c, 4, 61, 47
4, 145200, Note_on_c, 4, 59, 22
4, 145320, Note_off_c, 4, 59, 22
4, 145320, Note_on_c, 5, 57, 47
4, 145480, Pitch_bend_c, 5, 8192
4, 145640, Pitch_bend_c, 5, 8320
4, 145800, Pitch_bend_c, 5, 8192
4, 145920, Pitch_bend_c, 5, 8320
4, 145920, Pitch_bend_c, 5, 8192
4, 145920, Note_off_c, 5, 57, 47
4, 146340, Note_on_c, 5, 57, 95
4, 146400, Note_off_c, 5, 57, 95
4, 146400, Note_on_c, 5, 59, 95
4, 146880, Note_off_c, 5, 59, 95
4, 146880, Note_on_c, 5, 59, 95
4, 147040, Pitch_bend_c, 5, 8192
4, 147200, Pitch_bend_c, 5, 8320
4, 147300, Note_on_c, 5, 59, 95
4, 147360, Pitch_bend_c, 5, 8192
4, 147360, Pitch_bend_c, 5, 8320
4, 147360, Pitch_bend_c, 5, 8192
4, 147360, Note_off_c, 5, 59, 95
4, 147360, Note_off_c, 5, 59, 95
4, 147360, Note_on_c, 5, 61, 95
4, 147520, Pitch_bend_c, 5, 8192
4, 147680, Pitch_bend_c, 5, 8320
4, 147780, Note_on_c, 5, 57, 95
4, 147840, Pitch_bend_c, 5, 8192
4, 147840, Pitch_bend_c, 5, 8320
4, 147840, Pitch_bend_c, 5, 8192
4, 147840, Note_off_c, 5, 61, 95
4, 147840, Note_off_c, 5, 57, 95
4, 147840, Note_on_c, 5, 59, 95
4, 148000, Pitch_bend_c, 5, 8192
4, 148160, Pitch_bend_c, 5, 8320
4, 148320, Pitch_bend_c, 5, 8192
4, 148480, Pitch_bend_c, 5, 8320
4, 148640, Pitch_bend_c, 5, 8192
4, 148800, Pitch_bend_c, 5, 8320
4, 148800, Pitch_bend_c, 5, 8192
4, 148800, Note_off_c, 5, 59, 95
4, 148800, Note_on_c, 4, 59, 47
4, 148920, Note_off_c, 4, 59, 47
4, 148920, Note_on_c, 4, 57, 22
4, 149040, Note_off_c, 4, 57, 22
4, 149040, Note_on_c, 4, 56, 22
4, 149160, Note_off_c, 4, 56, 22
4, 149160, Note_on_c, 5, 52, 47
4, 149320, Pitch_bend_c, 5, 8192
4, 149480, Pitch_bend_c, 5, 8320
4, 149640, Pitch_bend_c, 5, 8192
4, 149760, Pitch_bend_c, 5, 8320
4, 149760, Pitch_bend_c, 5, 8192
4, 149760, Note_off_c, 5, 52, 47
4, 150180, Note_on_c, 5, 51, 95
4, 150240, Note_off_c, 5, 51, 95
4, 150240, Note_on_c, 5, 52, 95
4, 150400, Pitch_bend_c, 5, 8192
4, 150560, Pitch_bend_c, 5, 8320
4, 150720, Pitch_bend_c, 5, 8192
4, 150720, Pitch_bend_c, 5, 8320
4, 150720, Pitch_bend_c, 5, 8192
4, 150720, Note_off_c, 5, 52, 95
4, 150720, Note_on_c, 5, 52, 95
4, 150880, Pitch_bend_c, 5, 8192
4, 151040, Pitch_bend_c, 5, 8320
4, 151200, Pitch_bend_c, 5, 8192
4, 151200, Pitch_bend_c, 5, 8320
4, 151200, Pitch_bend_c, 5, 8192
4, 151200, Note_off_c, 5, 52, 95
4, 151200, Note_on_c, 5, 52, 95
4, 151360, Pitch_bend_c, 5, 8192
4, 151520, Pitch_bend_c, 5, 8320
4, 151620, Note_on_c, 5, 56, 95
4, 151680, Pitch_bend_c, 5, 8192
4, 151680, Pitch_bend_c, 5, 8320
4, 151680, Pitch_bend_c, 5, 8192
4, 151680, Note_off_c, 5, 52, 95
4, 151680, Note_off_c, 5, 56, 95
4, 151680, Note_on_c, 5, 57, 95
4, 151840, Pitch_bend_c, 5, 8192
4, 152000, Pitch_bend_c, 5, 8320
4, 152160, Pitch_bend_c, 5, 8192
4, 152320, Pitch_bend_c, 5, 8320
4, 152480, Pitch_bend_c, 5, 8192
4, 152580, Note_on_c, 5, 56, 95
4, 152640, Pitch_bend_c, 5, 8320
4, 152640, Pitch_bend_c, 5, 8192
4, 152640, Note_off_c, 5, 57, 95
4, 152640, Note_off_c, 5, 56, 95
4, 152640, Note_on_c, 5, 57, 95
4, 152800, Pitch_bend_c, 5, 8192
4, 152960, Pitch_bend_c, 5, 8320
4, 153120, Pitch_bend_c, 5, 8192
4, 153280, Pitch_bend_c, 5, 8320
4, 153440, Pitch_bend_c, 5, 8192
4, 153600, Pitch_bend_c, 5, 8320
4, 153600, Pitch_bend_c, 5, 8192
4, 153600, Note_off_c, 5, 57, 95
4, 154080, Note_on_c, 4, 61, 95
4, 154560, Note_off_c, 4, 61, 95
4, 154560, Note_on_c, 4, 61, 95
4, 155040, Note_off_c, 4, 61, 95
4, 155040, Note_on_c, 4, 59, 95
4, 155520, Note_off_c, 4, 59, 95
4, 155520, Note_on_c, 4, 61, 95
4, 156000, Note_off_c, 4, 61, 95
4, 156000, Note_on_c, 4, 63, 95
4, 156480, Note_off_c, 4, 63, 95
4, 156480, Note_on_c, 4, 64, 95
4, 156960, Note_off_c, 4, 64, 95
4, 156960, Note_on_c, 4, 63, 95
4, 157440, Note_off_c, 4, 63, 95
4, 157440, Note_on_c, 4, 61, 95
4, 157920, Note_off_c, 4, 61, 95
4, 157920, Note_on_c, 5, 59, 95
4, 158080, Pitch_bend_c, 5, 8192
4, 158240, Pitch_bend_c, 5, 8320
4, 158400, Pitch_bend_c, 5, 8192
4, 158560, Pitch_bend_c, 5, 8320
4, 158720, Pitch_bend_c, 5, 8192
4, 158880, Pitch_bend_c, 5, 8320
4, 159040, Pitch_bend_c, 5, 8192
4, 159200, Pitch_bend_c, 5, 8320
4, 159360, Pitch_bend_c, 5, 8192
4, 159520, Pitch_bend_c, 5, 8320
4, 159680, Pitch_bend_c, 5, 8192
4, 159840, Pitch_bend_c, 5, 8320
4, 160000, Pitch_bend_c, 5, 8192
4, 160160, Pitch_bend_c, 5, 8320
4, 160320, Pitch_bend_c, 5, 8192
4, 160480, Pitch_bend_c, 5, 8320
4, 160640, Pitch_bend_c, 5, 8192
4, 160800, Pitch_bend_c, 5, 8320
4, 160960, Pitch_bend_c, 5, 8192
4, 161120, Pitch_bend_c, 5, 8320
4, 161280, Pitch_bend_c, 5, 8192
4, 161280, Pitch_bend_c, 5, 8320
4, 161280, Pitch_bend_c, 5, 8192
4, 161280, Note_off_c, 5, 59, 95
4, 161760, Note_on_c, 4, 61, 95
4, 162240, Note_off_c, 4, 61, 95
4, 162240, Note_on_c, 4, 61, 95
4, 162720, Note_off_c, 4, 61, 95
4, 162720, Note_on_c, 4, 56, 95
4, 163200, Note_off_c, 4, 56, 95
4, 163200, Note_on_c, 4, 61, 95
4, 163680, Note_off_c, 4, 61, 95
4, 163680, Note_on_c, 4, 63, 95
4, 164160, Note_off_c, 4, 63, 95
4, 164160, Note_on_c, 4, 64, 95
4, 164640, Note_off_c, 4, 64, 95
4, 164640, Note_on_c, 4, 66, 95
4, 165120, Note_off_c, 4, 66, 95
4, 165120, Pitch_bend_c, 5, 8192
4, 165120, Note_on_c, 5, 63, 95
4, 165360, Pitch_bend_c, 5, 8320
4, 165600, Pitch_bend_c, 5, 8448
4, 165600, Pitch_bend_c, 5, 8448
4, 166080, Pitch_bend_c, 5, 8448
4, 166080, Pitch_bend_c, 5, 8192
4, 166080, Note_off_c, 5, 63, 95
4, 166080, Note_on_c, 4, 61, 95
4, 166560, Note_off_c, 4, 61, 95
4, 166560, Note_on_c, 4, 59, 95
4, 168480, Note_off_c, 4, 59, 95
4, 169440, Note_on_c, 4, 61, 95
4, 169920, Note_off_c, 4, 61, 95
4, 169920, Note_on_c, 4, 61, 95
4, 170400, Note_off_c, 4, 61, 95
4, 170400, Note_on_c, 4, 56, 95
4, 170880, Note_off_c, 4, 56, 95
4, 170880, Note_on_c, 4, 61, 95
4, 171360, Note_off_c, 4, 61, 95
4, 171360, Note_on_c, 4, 63, 95
4, 171840, Note_off_c, 4, 63, 95
4, 171840, Note_on_c, 4, 64, 95
4, 172320, Note_off_c, 4, 64, 95
4, 172320, Note_on_c, 4, 66, 95
4, 172740, Note_on_c, 5, 61, 95
4, 172800, Note_off_c, 4, 66, 95
4, 172800, Note_off_c, 5, 61, 95
4, 172800, Note_on_c, 5, 63, 95
4, 172960, Pitch_bend_c, 5, 8192
4, 173120, Pitch_bend_c, 5, 8320
4, 173280, Pitch_bend_c, 5, 8192
4, 173440, Pitch_bend_c, 5, 8320
4, 173600, Pitch_bend_c, 5, 8192
4, 173760, Pitch_bend_c, 5, 8320
4, 173920, Pitch_bend_c, 5, 8192
4, 174080, Pitch_bend_c, 5, 8320
4, 174240, Pitch_bend_c, 5, 8192
4, 174400, Pitch_bend_c, 5, 8320
4, 174560, Pitch_bend_c, 5, 8192
4, 174720, Pitch_bend_c, 5, 8320
4, 174720, Pitch_bend_c, 5, 8192
4, 174720, Note_off_c, 5, 63, 95
4, 177120, Note_on_c, 4, 61, 95
4, 177600, Note_off_c, 4, 61, 95
4, 177600, Note_on_c, 4, 61, 95
4, 178080, Note_off_c, 4, 61, 95
4, 178080, Note_on_c, 4, 56, 95
4, 178560, Note_off_c, 4, 56, 95
4, 178560, Note_on_c, 4, 61, 95
4, 179040, Note_off_c, 4, 61, 95
4, 179040, Note_on_c, 4, 63, 95
4, 179520, Note_off_c, 4, 63, 95
4, 179520, Note_on_c, 4, 64, 95
4, 180000, Note_off_c, 4, 64, 95
4, 180000, Note_on_c, 4, 66, 95
4, 180480, Note_off_c, 4, 66, 95
4, 180480, Pitch_bend_c, 5, 8192
4, 180480, Note_on_c, 5, 63, 95
4, 180720, Pitch_bend_c, 5, 8320
4, 180960, Pitch_bend_c, 5, 8448
4, 180960, Pitch_bend_c, 5, 8448
4, 181440, Pitch_bend_c, 5, 8448
4, 181440, Pitch_bend_c, 5, 8192
4, 181440, Note_off_c, 5, 63, 95
4, 181440, Note_on_c, 4, 61, 95
4, 181920, Note_off_c, 4, 61, 95
4, 181920, Note_on_c, 4, 59, 95
4, 183840, Note_off_c, 4, 59, 95
4, 184800, Note_on_c, 5, 57, 95
4, 184960, Pitch_bend_c, 5, 8192
4, 185120, Pitch_bend_c, 5, 8320
4, 185280, Pitch_bend_c, 5, 8192
4, 185280, Pitch_bend_c, 5, 8320
4, 185280, Pitch_bend_c, 5, 8192
4, 185280, Note_off_c, 5, 57, 95
4, 185280, Note_on_c, 5, 57, 95
4, 185440, Pitch_bend_c, 5, 8192
4, 185600, Pitch_bend_c, 5, 8320
4, 185760, Pitch_bend_c, 5, 8192
4, 185760, Pitch_bend_c, 5, 8320
4, 185760, Pitch_bend_c, 5, 8192
4, 185760, Note_off_c, 5, 57, 95
4, 185760, Note_on_c, 5, 57, 95
4, 185920, Pitch_bend_c, 5, 8192
4, 186080, Pitch_bend_c, 5, 8320
4, 186240, Pitch_bend_c, 5, 8192
4, 186240, Pitch_bend_c, 5, 8320
4, 186240, Pitch_bend_c, 5, 8192
4, 186240, Note_off_c, 5, 57, 95
4, 186240, Note_on_c, 5, 57, 95
4, 186400, Pitch_bend_c, 5, 8192
4, 186560, Pitch_bend_c, 5, 8320
4, 186720, Pitch_bend_c, 5, 8192
4, 186720, Pitch_bend_c, 5, 8320
4, 186720, Pitch_bend_c, 5, 8192
4, 186720, Note_off_c, 5, 57, 95
4, 186720, Note_on_c, 5, 57, 95
4, 186880, Pitch_bend_c, 5, 8192
4, 187040, Pitch_bend_c, 5, 8320
4, 187200, Pitch_bend_c, 5, 8192
4, 187200, Pitch_bend_c, 5, 8320
4, 187200, Pitch_bend_c, 5, 8192
4, 187200, Note_off_c, 5, 57, 95
4, 187200, Note_on_c, 5, 61, 95
4, 187360, Pitch_bend_c, 5, 8192
4, 187520, Pitch_bend_c, 5, 8320
4, 187680, Pitch_bend_c, 5, 8192
4, 187680, Pitch_bend_c, 5, 8320
4, 187680, Pitch_bend_c, 5, 8192
4, 187680, Note_off_c, 5, 61, 95
4, 187680, Note_on_c, 5, 64, 95
4, 187840, Pitch_bend_c, 5, 8192
4, 188000, Pitch_bend_c, 5, 8320
4, 188160, Pitch_bend_c, 5, 8192
4, 188160, Pitch_bend_c, 5, 8320
4, 188160, Pitch_bend_c, 5, 8192
4, 188160, Note_off_c, 5, 64, 95
4, 188160, Note_on_c, 4, 63, 95
4, 190080, Note_off_c, 4, 63, 95
4, 223200, Note_on_c, 4, 61, 95
4, 223680, Note_off_c, 4, 61, 95
4, 223680, Note_on_c, 4, 61, 95
4, 224160, Note_off_c, 4, 61, 95
4, 224160, Note_on_c, 4, 56, 95
4, 224640, Note_off_c, 4, 56, 95
4, 224640, Note_on_c, 4, 61, 95
4, 225120, Note_off_c, 4, 61, 95
4, 225120, Note_on_c, 4, 63, 95
4, 225600, Note_off_c, 4, 63, 95
4, 225600, Note_on_c, 4, 64, 95
4, 226080, Note_off_c, 4, 64, 95
4, 226080, Note_on_c, 4, 66, 95
4, 226560, Note_off_c, 4, 66, 95
4, 226560, Pitch_bend_c, 5, 8192
4, 226560, Note_on_c, 5, 63, 95
4, 226800, Pitch_bend_c, 5, 8320
4, 227040, Pitch_bend_c, 5, 8448
4, 227040, Pitch_bend_c, 5, 8448
4, 227520, Pitch_bend_c, 5, 8448
4, 227520, Pitch_bend_c, 5, 8192
4, 227520, Note_off_c, 5, 63, 95
4, 227520, Note_on_c, 4, 61, 95
4, 228000, Note_off_c, 4, 61, 95
4, 228000, Note_on_c, 4, 59, 95
4, 229920, Note_off_c, 4, 59, 95
4, 230880, Note_on_c, 4, 61, 95
4, 231360, Note_off_c, 4, 61, 95
4, 231360, Note_on_c, 4, 61, 95
4, 231840, Note_off_c, 4, 61, 95
4, 231840, Note_on_c, 4, 56, 95
4, 232320, Note_off_c, 4, 56, 95
4, 232320, Note_on_c, 4, 61, 95
4, 232800, Note_off_c, 4, 61, 95
4, 232800, Note_on_c, 4, 63, 95
4, 233280, Note_off_c, 4, 63, 95
4, 233280, Note_on_c, 4, 64, 95
4, 233760, Note_off_c, 4, 64, 95
4, 233760, Note_on_c, 4, 66, 95
4, 234180, Note_on_c, 5, 61, 95
4, 234240, Note_off_c, 4, 66, 95
4, 234240, Note_off_c, 5, 61, 95
4, 234240, Note_on_c, 5, 63, 95
4, 234400, Pitch_bend_c, 5, 8192
4, 234560, Pitch_bend_c, 5, 8320
4, 234720, Pitch_bend_c, 5, 8192
4, 234880, Pitch_bend_c, 5, 8320
4, 235040, Pitch_bend_c, 5, 8192
4, 235200, Pitch_bend_c, 5, 8320
4, 235360, Pitch_bend_c, 5, 8192
4, 235520, Pitch_bend_c, 5, 8320
4, 235680, Pitch_bend_c, 5, 8192
4, 235840, Pitch_bend_c, 5, 8320
4, 236000, Pitch_bend_c, 5, 8192
4, 236160, Pitch_bend_c, 5, 8320
4, 236160, Pitch_bend_c, 5, 8192
4, 236160, Note_off_c, 5, 63, 95
4, 238560, Note_on_c, 4, 61, 95
4, 239040, Note_off_c, 4, 61, 95
4, 239040, Note_on_c, 4, 61, 95
4, 239520, Note_off_c, 4, 61, 95
4, 239520, Note_on_c, 4, 56, 95
4, 240000, Note_off_c, 4, 56, 95
4, 240000, Note_on_c, 4, 61, 95
4, 240480, Note_off_c, 4, 61, 95
4, 240480, Note_on_c, 4, 63, 95
4, 240960, Note_off_c, 4, 63, 95
4, 240960, Note_on_c, 4, 64, 95
4, 241440, Note_off_c, 4, 64, 95
4, 241440, Note_on_c, 4, 66, 95
4, 241920, Note_off_c, 4, 66, 95
4, 241920, Pitch_bend_c, 5, 8192
4, 241920, Note_on_c, 5, 63, 95
4, 242160, Pitch_bend_c, 5, 8320
4, 242400, Pitch_bend_c, 5, 8448
4, 242400, Pitch_bend_c, 5, 8448
4, 242880, Pitch_bend_c, 5, 8448
4, 242880, Pitch_bend_c, 5, 8192
4, 242880, Note_off_c, 5, 63, 95
4, 242880, Note_on_c, 4, 61, 95
4, 243360, Note_off_c, 4, 61, 95
4, 243360, Note_on_c, 4, 59, 95
4, 245280, Note_off_c, 4, 59, 95
4, 246240, Note_on_c, 5, 57, 95
4, 246400, Pitch_bend_c, 5, 8192
4, 246560, Pitch_bend_c, 5, 8320
4, 246720, Pitch_bend_c, 5, 8192
4, 246720, Pitch_bend_c, 5, 8320
4, 246720, Pitch_bend_c, 5, 8192
4, 246720, Note_off_c, 5, 57, 95
4, 246720, Note_on_c, 5, 57, 95
4, 246880, Pitch_bend_c, 5, 8192
4, 247040, Pitch_bend_c, 5, 8320
4, 247200, Pitch_bend_c, 5, 8192
4, 247200, Pitch_bend_c, 5, 8320
4, 247200, Pitch_bend_c, 5, 8192
4, 247200, Note_off_c, 5, 57, 95
4, 247200, Note_on_c, 5, 57, 95
4, 247360, Pitch_bend_c, 5, 8192
4, 247520, Pitch_bend_c, 5, 8320
4, 247680, Pitch_bend_c, 5, 8192
4, 247680, Pitch_bend_c, 5, 8320
4, 247680, Pitch_bend_c, 5, 8192
4, 247680, Note_off_c, 5, 57, 95
4, 247680, Note_on_c, 5, 57, 95
4, 247840, Pitch_bend_c, 5, 8192
4, 248000, Pitch_bend_c, 5, 8320
4, 248160, Pitch_bend_c, 5, 8192
4, 248160, Pitch_bend_c, 5, 8320
4, 248160, Pitch_bend_c, 5, 8192
4, 248160, Note_off_c, 5, 57, 95
4, 248160, Note_on_c, 5, 57, 95
4, 248320, Pitch_bend_c, 5, 8192
4, 248480, Pitch_bend_c, 5, 8320
4, 248640, Pitch_bend_c, 5, 8192
4, 248640, Pitch_bend_c, 5, 8320
4, 248640, Pitch_bend_c, 5, 8192
4, 248640, Note_off_c, 5, 57, 95
4, 248640, Note_on_c, 5, 61, 95
4, 248800, Pitch_bend_c, 5, 8192
4, 248960, Pitch_bend_c, 5, 8320
4, 249120, Pitch_bend_c, 5, 8192
4, 249120, Pitch_bend_c, 5, 8320
4, 249120, Pitch_bend_c, 5, 8192
4, 249120, Note_off_c, 5, 61, 95
4, 249120, Note_on_c, 5, 64, 95
4, 249280, Pitch_bend_c, 5, 8192
4, 249440, Pitch_bend_c, 5, 8320
4, 249600, Pitch_bend_c, 5, 8192
4, 249600, Pitch_bend_c, 5, 8320
4, 249600, Pitch_bend_c, 5, 8192
4, 249600, Note_off_c, 5, 64, 95
4, 249600, Note_on_c, 4, 63, 95
4, 251520, Note_off_c, 4, 63, 95
4, 253920, Note_on_c, 5, 56, 95
4, 254080, Pitch_bend_c, 5, 8192
4, 254240, Pitch_bend_c, 5, 8320
4, 254400, Pitch_bend_c, 5, 8192
4, 254400, Pitch_bend_c, 5, 8320
4, 254400, Pitch_bend_c, 5, 8192
4, 254400, Note_off_c, 5, 56, 95
4, 254400, Note_on_c, 4, 56, 95
4, 254880, Note_off_c, 4, 56, 95
4, 254880, Note_on_c, 5, 59, 95
4, 255040, Pitch_bend_c, 5, 8192
4, 255200, Pitch_bend_c, 5, 8320
4, 255360, Pitch_bend_c, 5, 8192
4, 255360, Pitch_bend_c, 5, 8320
4, 255360, Pitch_bend_c, 5, 8192
4, 255360, Note_off_c, 5, 59, 95
4, 255360, Note_on_c, 5, 57, 95
4, 255520, Pitch_bend_c, 5, 8192
4, 255680, Pitch_bend_c, 5, 8320
4, 255840, Pitch_bend_c, 5, 8192
4, 256000, Pitch_bend_c, 5, 8320
4, 256160, Pitch_bend_c, 5, 8192
4, 256320, Pitch_bend_c, 5, 8320
4, 256480, Pitch_bend_c, 5, 8192
4, 256640, Pitch_bend_c, 5, 8320
4, 256800, Pitch_bend_c, 5, 8192
4, 256960, Pitch_bend_c, 5, 8320
4, 257120, Pitch_bend_c, 5, 8192
4, 257280, Pitch_bend_c, 5, 8320
4, 257280, Pitch_bend_c, 5, 8192
4, 257280, Note_off_c, 5, 57, 95
4, 257760, Note_on_c, 5, 57, 95
4, 257920, Pitch_bend_c, 5, 8192
4, 258080, Pitch_bend_c, 5, 8320
4, 258240, Pitch_bend_c, 5, 8192
4, 258240, Pitch_bend_c, 5, 8320
4, 258240, Pitch_bend_c, 5, 8192
4, 258240, Note_off_c, 5, 57, 95
4, 258240, Note_on_c, 5, 57, 95
4, 258400, Pitch_bend_c, 5, 8192
4, 258560, Pitch_bend_c, 5, 8320
4, 258720, Pitch_bend_c, 5, 8192
4, 258720, Pitch_bend_c, 5, 8320
4, 258720, Pitch_bend_c, 5, 8192
4, 258720, Note_off_c, 5, 57, 95
4, 258720, Note_on_c, 5, 59, 95
4, 258880, Pitch_bend_c, 5, 8192
4, 259040, Pitch_bend_c, 5, 8320
4, 259200, Pitch_bend_c, 5, 8192
4, 259200, Pitch_bend_c, 5, 8320
4, 259200, Pitch_bend_c, 5, 8192
4, 259200, Note_off_c, 5, 59, 95
4, 259200, Note_on_c, 5, 59, 95
4, 259360, Pitch_bend_c, 5, 8192
4, 259520, Pitch_bend_c, 5, 8320
4, 259680, Pitch_bend_c, 5, 8192
4, 259840, Pitch_bend_c, 5, 8320
4, 260000, Pitch_bend_c, 5, 8192
4, 260160, Pitch_bend_c, 5, 8320
4, 260320, Pitch_bend_c, 5, 8192
4, 260480, Pitch_bend_c, 5, 8320
4, 260640, Pitch_bend_c, 5, 8192
4, 260640, Pitch_bend_c, 5, 8320
4, 260640, Pitch_bend_c, 5, 8192
4, 260640, Note_off_c, 5, 59, 95
4, 260640, Note_on_c, 5, 52, 95
4, 260800, Pitch_bend_c, 5, 8192
4, 260960, Pitch_bend_c, 5, 8320
4, 261120, Pitch_bend_c, 5, 8192
4, 261120, Pitch_bend_c, 5, 8320
4, 261120, Pitch_bend_c, 5, 8192
4, 261120, Note_off_c, 5, 52, 95
4, 261600, Note_on_c, 5, 56, 95
4, 261760, Pitch_bend_c, 5, 8192
4, 261920, Pitch_bend_c, 5, 8320
4, 262080, Pitch_bend_c, 5, 8192
4, 262080, Pitch_bend_c, 5, 8320
4, 262080, Pitch_bend_c, 5, 8192
4, 262080, Note_off_c, 5, 56, 95
4, 262080, Note_on_c, 5, 56, 95
4, 262240, Pitch_bend_c, 5, 8192
4, 262400, Pitch_bend_c, 5, 8320
4, 262560, Pitch_bend_c, 5, 8192
4, 262560, Pitch_bend_c, 5, 8320
4, 262560, Pitch_bend_c, 5, 8192
4, 262560, Note_off_c, 5, 56, 95
4, 262560, Note_on_c, 5, 59, 95
4, 262720, Pitch_bend_c, 5, 8192
4, 262880, Pitch_bend_c, 5, 8320
4, 263040, Pitch_bend_c, 5, 8192
4, 263040, Pitch_bend_c, 5, 8320
4, 263040, Pitch_bend_c, 5, 8192
4, 263040, Note_off_c, 5, 59, 95
4, 263040, Note_on_c, 5, 57, 95
4, 263200, Pitch_bend_c, 5, 8192
4, 263360, Pitch_bend_c, 5, 8320
4, 263520, Pitch_bend_c, 5, 8192
4, 263680, Pitch_bend_c, 5, 8320
4, 263840, Pitch_bend_c, 5, 8192
4, 264000, Pitch_bend_c, 5, 8320
4, 264160, Pitch_bend_c, 5, 8192
4, 264320, Pitch_bend_c, 5, 8320
4, 264480, Pitch_bend_c, 5, 8192
4, 264640, Pitch_bend_c, 5, 8320
4, 264800, Pitch_bend_c, 5, 8192
4, 264960, Pitch_bend_c, 5, 8320
4, 264960, Pitch_bend_c, 5, 8192
4, 264960, Note_off_c, 5, 57, 95
4, 265440, Note_on_c, 5, 57, 95
4, 265600, Pitch_bend_c, 5, 8192
4, 265760, Pitch_bend_c, 5, 8320
4, 265920, Pitch_bend_c, 5, 8192
4, 265920, Pitch_bend_c, 5, 8320
4, 265920, Pitch_bend_c, 5, 8192
4, 265920, Note_off_c, 5, 57, 95
4, 265920, Note_on_c, 5, 57, 95
4, 266080, Pitch_bend_c, 5, 8192
4, 266240, Pitch_bend_c, 5, 8320
4, 266400, Pitch_bend_c, 5, 8192
4, 266400, Pitch_bend_c, 5, 8320
4, 266400, Pitch_bend_c, 5, 8192
4, 266400, Note_off_c, 5, 57, 95
4, 266400, Note_on_c, 5, 59, 95
4, 266560, Pitch_bend_c, 5, 8192
4, 266720, Pitch_bend_c, 5, 8320
4, 266820, Note_on_c, 5, 57, 95
4, 266880, Pitch_bend_c, 5, 8192
4, 266880, Pitch_bend_c, 5, 8320
4, 266880, Pitch_bend_c, 5, 8192
4, 266880, Note_off_c, 5, 59, 95
4, 266880, Note_off_c, 5, 57, 95
4, 266880, Note_on_c, 5, 59, 95
4, 267040, Pitch_bend_c, 5, 8192
4, 267200, Pitch_bend_c, 5, 8320
4, 267360, Pitch_bend_c, 5, 8192
4, 267520, Pitch_bend_c, 5, 8320
4, 267680, Pitch_bend_c, 5, 8192
4, 267840, Pitch_bend_c, 5, 8320
4, 268000, Pitch_bend_c, 5, 8192
4, 268160, Pitch_bend_c, 5, 8320
4, 268320, Pitch_bend_c, 5, 8192
4, 268480, Pitch_bend_c, 5, 8320
4, 268640, Pitch_bend_c, 5, 8192
4, 268800, Pitch_bend_c, 5, 8320
4, 268800, Pitch_bend_c, 5, 8192
4, 268800, Note_off_c, 5, 59, 95
4, 269280, Note_on_c, 5, 56, 95
4, 269440, Pitch_bend_c, 5, 8192
4, 269600, Pitch_bend_c, 5, 8320
4, 269760, Pitch_bend_c, 5, 8192
4, 269760, Pitch_bend_c, 5, 8320
4, 269760, Pitch_bend_c, 5, 8192
4, 269760, Note_off_c, 5, 56, 95
4, 269760, Note_on_c, 5, 56, 95
4, 269920, Pitch_bend_c, 5, 8192
4, 270080, Pitch_bend_c, 5, 8320
4, 270240, Pitch_bend_c, 5, 8192
4, 270240, Pitch_bend_c, 5, 8320
4, 270240, Pitch_bend_c, 5, 8192
4, 270240, Note_off_c, 5, 56, 95
4, 270240, Note_on_c, 5, 59, 95
4, 270400, Pitch_bend_c, 5, 8192
4, 270560, Pitch_bend_c, 5, 8320
4, 270720, Pitch_bend_c, 5, 8192
4, 270720, Pitch_bend_c, 5, 8320
4, 270720, Pitch_bend_c, 5, 8192
4, 270720, Note_off_c, 5, 59, 95
4, 270720, Note_on_c, 5, 57, 95
4, 270880, Pitch_bend_c, 5, 8192
4, 271040, Pitch_bend_c, 5, 8320
4, 271200, Pitch_bend_c, 5, 8192
4, 271360, Pitch_bend_c, 5, 8320
4, 271520, Pitch_bend_c, 5, 8192
4, 271680, Pitch_bend_c, 5, 8320
4, 271840, Pitch_bend_c, 5, 8192
4, 272000, Pitch_bend_c, 5, 8320
4, 272160, Pitch_bend_c, 5, 8192
4, 272320, Pitch_bend_c, 5, 8320
4, 272480, Pitch_bend_c, 5, 8192
4, 272640, Pitch_bend_c, 5, 8320
4, 272640, Pitch_bend_c, 5, 8192
4, 272640, Note_off_c, 5, 57, 95
4, 273120, Note_on_c, 5, 57, 95
4, 273280, Pitch_bend_c, 5, 8192
4, 273440, Pitch_bend_c, 5, 8320
4, 273600, Pitch_bend_c, 5, 8192
4, 273600, Pitch_bend_c, 5, 8320
4, 273600, Pitch_bend_c, 5, 8192
4, 273600, Note_off_c, 5, 57, 95
4, 273600, Note_on_c, 5, 57, 95
4, 273760, Pitch_bend_c, 5, 8192
4, 273920, Pitch_bend_c, 5, 8320
4, 274080, Pitch_bend_c, 5, 8192
4, 274080, Pitch_bend_c, 5, 8320
4, 274080, Pitch_bend_c, 5, 8192
4, 274080, Note_off_c, 5, 57, 95
4, 274080, Note_on_c, 5, 59, 95
4, 274240, Pitch_bend_c, 5, 8192
4, 274400, Pitch_bend_c, 5, 8320
4, 274560, Pitch_bend_c, 5, 8192
4, 274560, Pitch_bend_c, 5, 8320
4, 274560, Pitch_bend_c, 5, 8192
4, 274560, Note_off_c, 5, 59, 95
4, 274560, Note_on_c, 5, 59, 95
4, 274720, Pitch_bend_c, 5, 8192
4, 274880, Pitch_bend_c, 5, 8320
4, 275040, Pitch_bend_c, 5, 8192
4, 275200, Pitch_bend_c, 5, 8320
4, 275360, Pitch_bend_c, 5, 8192
4, 275520, Pitch_bend_c, 5, 8320
4, 275680, Pitch_bend_c, 5, 8192
4, 275840, Pitch_bend_c, 5, 8320
4, 276000, Pitch_bend_c, 5, 8192
4, 276000, Pitch_bend_c, 5, 8320
4, 276000, Pitch_bend_c, 5, 8192
4, 276000, Note_off_c, 5, 59, 95
4, 276000, Note_on_c, 5, 52, 95
4, 276160, Pitch_bend_c, 5, 8192
4, 276320, Pitch_bend_c, 5, 8320
4, 276480, Pitch_bend_c, 5, 8192
4, 276480, Pitch_bend_c, 5, 8320
4, 276480, Pitch_bend_c, 5, 8192
4, 276480, Note_off_c, 5, 52, 95
4, 276960, Note_on_c, 5, 56, 95
4, 277120, Pitch_bend_c, 5, 8192
4, 277280, Pitch_bend_c, 5, 8320
4, 277440, Pitch_bend_c, 5, 8192
4, 277440, Pitch_bend_c, 5, 8320
4, 277440, Pitch_bend_c, 5, 8192
4, 277440, Note_off_c, 5, 56, 95
4, 277440, Note_on_c, 5, 56, 95
4, 277600, Pitch_bend_c, 5, 8192
4, 277760, Pitch_bend_c, 5, 8320
4, 277920, Pitch_bend_c, 5, 8192
4, 277920, Pitch_bend_c, 5, 8320
4, 277920, Pitch_bend_c, 5, 8192
4, 277920, Note_off_c, 5, 56, 95
4, 277920, Note_on_c, 5, 59, 95
4, 278080, Pitch_bend_c, 5, 8192
4, 278240, Pitch_bend_c, 5, 8320
4, 278400, Pitch_bend_c, 5, 8192
4, 278400, Pitch_bend_c, 5, 8320
4, 278400, Pitch_bend_c, 5, 8192
4, 278400, Note_off_c, 5, 59, 95
4, 278400, Note_on_c, 5, 57, 95
4, 278560, Pitch_bend_c, 5, 8192
4, 278720, Pitch_bend_c, 5, 8320
4, 278880, Pitch_bend_c, 5, 8192
4, 279040, Pitch_bend_c, 5, 8320
4, 279200, Pitch_bend_c, 5, 8192
4, 279360, Pitch_bend_c, 5, 8320
4, 279520, Pitch_bend_c, 5, 8192
4, 279680, Pitch_bend_c, 5, 8320
4, 279840, Pitch_bend_c, 5, 8192
4, 280000, Pitch_bend_c, 5, 8320
4, 280160, Pitch_bend_c, 5, 8192
4, 280320, Pitch_bend_c, 5, 8320
4, 280320, Pitch_bend_c, 5, 8192
4, 280320, Note_off_c, 5, 57, 95
4, 280800, Note_on_c, 5, 57, 95
4, 280960, Pitch_bend_c, 5, 8192
4, 281120, Pitch_bend_c, 5, 8320
4, 281280, Pitch_bend_c, 5, 8192
4, 281280, Pitch_bend_c, 5, 8320
4, 281280, Pitch_bend_c, 5, 8192
4, 281280, Note_off_c, 5, 57, 95
4, 281280, Note_on_c, 5, 57, 95
4, 281440, Pitch_bend_c, 5, 8192
4, 281600, Pitch_bend_c, 5, 8320
4, 281760, Pitch_bend_c, 5, 8192
4, 281760, Pitch_bend_c, 5, 8320
4, 281760, Pitch_bend_c, 5, 8192
4, 281760, Note_off_c, 5, 57, 95
4, 281760, Note_on_c, 5, 59, 95
4, 281920, Pitch_bend_c, 5, 8192
4, 282080, Pitch_bend_c, 5, 8320
4, 282180, Note_on_c, 5, 57, 95
4, 282240, Pitch_bend_c, 5, 8192
4, 282240, Pitch_bend_c, 5, 8320
4, 282240, Pitch_bend_c, 5, 8192
4, 282240, Note_off_c, 5, 59, 95
4, 282240, Note_off_c, 5, 57, 95
4, 282240, Note_on_c, 5, 59, 95
4, 282400, Pitch_bend_c, 5, 8192
4, 282560, Pitch_bend_c, 5, 8320
4, 282720, Pitch_bend_c, 5, 8192
4, 282880, Pitch_bend_c, 5, 8320
4, 283040, Pitch_bend_c, 5, 8192
4, 283200, Pitch_bend_c, 5, 8320
4, 283360, Pitch_bend_c, 5, 8192
4, 283520, Pitch_bend_c, 5, 8320
4, 283680, Pitch_bend_c, 5, 8192
4, 283840, Pitch_bend_c, 5, 8320
4, 284000, Pitch_bend_c, 5, 8192
4, 284160, Pitch_bend_c, 5, 8320
4, 284160, Pitch_bend_c, 5, 8192
4, 284160, Note_off_c, 5, 59, 95
4, 314880, Note_on_c, 4, 40, 95
4, 315360, Note_off_c, 4, 40, 95
4, 315360, Note_on_c, 4, 64, 95
4, 315360, Note_on_c, 4, 59, 95
4, 315360, Note_on_c, 4, 56, 95
4, 315840, Note_off_c, 4, 64, 95
4, 315840, Note_off_c, 4, 59, 95
4, 315840, Note_off_c, 4, 56, 95
4, 316320, Note_on_c, 4, 59, 95
4, 316320, Note_on_c, 4, 57, 95
4, 316320, Note_on_c, 4, 49, 95
4, 316800, Note_off_c, 4, 59, 95
4, 316800, Note_off_c, 4, 57, 95
4, 316800, Note_off_c, 4, 49, 95
4, 316800, Note_on_c, 4, 54, 95
4, 317280, Note_off_c, 4, 54, 95
4, 317280, Note_on_c, 4, 57, 95
4, 317760, Note_off_c, 4, 57, 95
4, 317760, Note_on_c, 4, 64, 95
4, 317760, Note_on_c, 4, 59, 95
4, 318240, Note_off_c, 4, 64, 95
4, 318240, Note_off_c, 4, 59, 95
4, 318240, Note_on_c, 4, 57, 95
4, 318720, Note_off_c, 4, 57, 95
4, 318720, Note_on_c, 4, 45, 95
4, 319200, Note_off_c, 4, 45, 95
4, 319200, Note_on_c, 4, 64, 95
4, 319200, Note_on_c, 4, 59, 95
4, 319200, Note_on_c, 4, 57, 95
4, 319680, Note_off_c, 4, 64, 95
4, 319680, Note_off_c, 4, 59, 95
4, 319680, Note_off_c, 4, 57, 95
4, 320160, Note_on_c, 4, 59, 95
4, 320160, Note_on_c, 4, 56, 95
4, 320160, Note_on_c, 4, 40, 95
4, 320640, Note_off_c, 4, 59, 95
4, 320640, Note_off_c, 4, 56, 95
4, 320640, Note_off_c, 4, 40, 95
4, 320640, Note_on_c, 4, 52, 95
4, 321120, Note_off_c, 4, 52, 95
4, 321120, Note_on_c, 4, 56, 95
4, 321600, Note_off_c, 4, 56, 95
4, 321600, Note_on_c, 4, 64, 95
4, 321600, Note_on_c, 4, 59, 95
4, 322080, Note_off_c, 4, 64, 95
4, 322080, Note_off_c, 4, 59, 95
4, 322080, Note_on_c, 4, 56, 95
4, 322560, Note_off_c, 4, 56, 95
4, 322560, Note_on_c, 4, 40, 95
4, 323040, Note_off_c, 4, 40, 95
4, 323040, Note_on_c, 4, 64, 95
4, 323040, Note_on_c, 4, 59, 95
4, 323040, Note_on_c, 4, 56, 95
4, 323520, Note_off_c, 4, 64, 95
4, 323520, Note_off_c, 4, 59, 95
4, 323520, Note_off_c, 4, 56, 95
4, 324000, Note_on_c, 4, 59, 95
4, 324000, Note_on_c, 4, 57, 95
4, 324000, Note_on_c, 4, 49, 95
4, 324480, Note_off_c, 4, 59, 95
4, 324480, Note_off_c, 4, 57, 95
4, 324480, Note_off_c, 4, 49, 95
4, 324480, Note_on_c, 4, 54, 95
4, 324960, Note_off_c, 4, 54, 95
4, 324960, Note_on_c, 4, 57, 95
4, 325440, Note_off_c, 4, 57, 95
4, 325440, Note_on_c, 4, 64, 95
4, 325440, Note_on_c, 4, 59, 95
4, 325920, Note_off_c, 4, 64, 95
4, 325920, Note_off_c, 4, 59, 95
4, 325920, Note_on_c, 4, 57, 95
4, 326400, Note_off_c, 4, 57, 95
4, 326400, Note_on_c, 4, 45, 95
4, 326880, Note_off_c, 4, 45, 95
4, 326880, Note_on_c, 4, 64, 95
4, 326880, Note_on_c, 4, 59, 95
4, 326880, Note_on_c, 4, 57, 95
4, 327360, Note_off_c, 4, 64, 95
4, 327360, Note_off_c, 4, 59, 95
4, 327360, Note_off_c, 4, 57, 95
4, 327840, Note_on_c, 4, 59, 95
4, 327840, Note_on_c, 4, 56, 95
4, 327840, Note_on_c, 4, 40, 95
4, 328320, Note_off_c, 4, 59, 95
4, 328320, Note_off_c, 4, 56, 95
4, 328320, Note_off_c, 4, 40, 95
4, 328320, Note_on_c, 4, 52, 95
4, 328800, Note_off_c, 4, 52, 95
4, 328800, Note_on_c, 4, 56, 95
4, 329280, Note_off_c, 4, 56, 95
4, 329280, Note_on_c, 4, 64, 95
4, 329280, Note_on_c, 4, 59, 95
4, 329760, Note_off_c, 4, 64, 95
4, 329760, Note_off_c, 4, 59, 95
4, 329760, Note_on_c, 4, 56, 95
4, 330240, Note_off_c, 4, 56, 95
4, 330240, Note_on_c, 4, 40, 95
4, 330720, Note_off_c, 4, 40, 95
4, 330720, Note_on_c, 4, 64, 95
4, 330720, Note_on_c, 4, 59, 95
4, 330720, Note_on_c, 4, 56, 95
4, 331200, Note_off_c, 4, 64, 95
4, 331200, Note_off_c, 4, 59, 95
4, 331200, Note_off_c, 4, 56, 95
4, 331680, Note_on_c, 4, 59, 95
4, 331680, Note_on_c, 4, 57, 95
4, 331680, Note_on_c, 4, 49, 95
4, 332160, Note_off_c, 4, 59, 95
4, 332160, Note_off_c, 4, 57, 95
4, 332160, Note_off_c, 4, 49, 95
4, 332160, Note_on_c, 4, 54, 95
4, 332640, Note_off_c, 4, 54, 95
4, 332640, Note_on_c, 4, 57, 95
4, 333120, Note_off_c, 4, 57, 95
4, 333120, Note_on_c, 4, 64, 95
4, 333120, Note_on_c, 4, 59, 95
4, 333600, Note_off_c, 4, 64, 95
4, 333600, Note_off_c, 4, 59, 95
4, 333600, Note_on_c, 4, 57, 95
4, 334080, Note_off_c, 4, 57, 95
4, 334080, Note_on_c, 4, 45, 95
4, 334560, Note_off_c, 4, 45, 95
4, 334560, Note_on_c, 4, 64, 95
4, 334560, Note_on_c, 4, 59, 95
4, 334560, Note_on_c, 4, 57, 95
4, 335040, Note_off_c, 4, 64, 95
4, 335040, Note_off_c, 4, 59, 95
4, 335040, Note_off_c, 4, 57, 95
4, 335520, Note_on_c, 4, 59, 95
4, 335520, Note_on_c, 4, 56, 95
4, 335520, Note_on_c, 4, 40, 95
4, 336000, Note_off_c, 4, 59, 95
4, 336000, Note_off_c, 4, 56, 95
4, 336000, Note_off_c, 4, 40, 95
4, 336000, Note_on_c, 4, 52, 95
4, 336480, Note_off_c, 4, 52, 95
4, 336480, Note_on_c, 4, 56, 95
4, 336960, Note_off_c, 4, 56, 95
4, 336960, Note_on_c, 4, 64, 95
4, 336960, Note_on_c, 4, 59, 95
4, 337440, Note_off_c, 4, 64, 95
4, 337440, Note_off_c, 4, 59, 95
4, 337440, Note_on_c, 4, 56, 95
4, 337920, Note_off_c, 4, 56, 95
4, 337920, Note_on_c, 4, 40, 95
4, 338400, Note_off_c, 4, 40, 95
4, 338400, Note_on_c, 4, 64, 95
4, 338400, Note_on_c, 4, 59, 95
4, 338400, Note_on_c, 4, 56, 95
4, 338880, Note_off_c, 4, 64, 95
4, 338880, Note_off_c, 4, 59, 95
4, 338880, Note_off_c, 4, 56, 95
4, 339360, Note_on_c, 4, 59, 95
4, 339360, Note_on_c, 4, 57, 95
4, 339360, Note_on_c, 4, 49, 95
4, 339840, Note_off_c, 4, 59, 95
4, 339840, Note_off_c, 4, 57, 95
4, 339840, Note_off_c, 4, 49, 95
4, 339840, Note_on_c, 4, 54, 95
4, 340320, Note_off_c, 4, 54, 95
4, 340320, Note_on_c, 4, 57, 95
4, 340800, Note_off_c, 4, 57, 95
4, 340800, Note_on_c, 4, 64, 95
4, 340800, Note_on_c, 4, 59, 95
4, 341280, Note_off_c, 4, 64, 95
4, 341280, Note_off_c, 4, 59, 95
4, 341280, Note_on_c, 4, 57, 95
4, 341760, Note_off_c, 4, 57, 95
4, 341760, Note_on_c, 4, 45, 95
4, 342240, Note_off_c, 4, 45, 95
4, 342240, Note_on_c, 4, 64, 95
4, 342240, Note_on_c, 4, 59, 95
4, 342240, Note_on_c, 4, 57, 95
4, 342720, Note_off_c, 4, 64, 95
4, 342720, Note_off_c, 4, 59, 95
4, 342720, Note_off_c, 4, 57, 95
4, 343200, Note_on_c, 4, 59, 95
4, 343200, Note_on_c, 4, 56, 95
4, 343200, Note_on_c, 4, 40, 95
4, 343680, Note_off_c, 4, 59, 95
4, 343680, Note_off_c, 4, 56, 95
4, 343680, Note_off_c, 4, 40, 95
4, 343680, Note_on_c, 4, 52, 95
4, 344160, Note_off_c, 4, 52, 95
4, 344160, Note_on_c, 4, 56, 95
4, 344640, Note_off_c, 4, 56, 95
4, 344640, Note_on_c, 4, 64, 95
4, 344640, Note_on_c, 4, 59, 95
4, 345120, Note_off_c, 4, 64, 95
4, 345120, Note_off_c, 4, 59, 95
4, 345120, Note_on_c, 4, 56, 95
4, 345600, Note_off_c, 4, 56, 95
4, 345600, Note_on_c, 4, 64, 95
4, 345600, Note_on_c, 4, 59, 95
4, 345600, Note_on_c, 4, 56, 95
4, 345600, Note_on_c, 4, 52, 95
4, 345600, Note_on_c, 4, 47, 95
4, 345600, Note_on_c, 4, 40, 95
4, 349440, Note_off_c, 4, 64, 95
4, 349440, Note_off_c, 4, 59, 95
4, 349440, Note_off_c, 4, 56, 95
4, 349440, Note_off_c, 4, 52, 95
4, 349440, Note_off_c, 4, 47, 95
4, 349440, Note_off_c, 4, 40, 95
4, 349440, End_track
5, 0, Start_track
5, 0, Pitch_bend_c, 6, 8192
5, 0, Control_c, 6, 7, 103
5, 0, Control_c, 6, 10, 63
5, 0, Control_c, 6, 93, 0
5, 0, Control_c, 6, 91, 0
5, 0, Control_c, 6, 95, 0
5, 0, Control_c, 6, 92, 0
5, 0, Control_c, 6, 11, 127
5, 0, Program_c, 6, 54
5, 0, Control_c, 7, 7, 103
5, 0, Control_c, 7, 10, 63
5, 0, Control_c, 7, 93, 0
5, 0, Control_c, 7, 91, 0
5, 0, Control_c, 7, 95, 0
5, 0, Control_c, 7, 92, 0
5, 0, Control_c, 7, 11, 127
5, 0, Program_c, 7, 54
5, 46560, Note_on_c, 7, 52, 95
5, 46720, Pitch_bend_c, 7, 8192
5, 46880, Pitch_bend_c, 7, 8320
5, 47040, Pitch_bend_c, 7, 8192
5, 47040, Pitch_bend_c, 7, 8320
5, 47040, Pitch_bend_c, 7, 8192
5, 47040, Note_off_c, 7, 52, 95
5, 47040, Note_on_c, 7, 52, 95
5, 47200, Pitch_bend_c, 7, 8192
5, 47360, Pitch_bend_c, 7, 8320
5, 47520, Pitch_bend_c, 7, 8192
5, 47520, Pitch_bend_c, 7, 8320
5, 47520, Pitch_bend_c, 7, 8192
5, 47520, Note_off_c, 7, 52, 95
5, 47520, Note_on_c, 7, 56, 95
5, 47680, Pitch_bend_c, 7, 8192
5, 47840, Pitch_bend_c, 7, 8320
5, 48000, Pitch_bend_c, 7, 8192
5, 48000, Pitch_bend_c, 7, 8320
5, 48000, Pitch_bend_c, 7, 8192
5, 48000, Note_off_c, 7, 56, 95
5, 48000, Note_on_c, 7, 54, 95
5, 48160, Pitch_bend_c, 7, 8192
5, 48320, Pitch_bend_c, 7, 8320
5, 48480, Pitch_bend_c, 7, 8192
5, 48640, Pitch_bend_c, 7, 8320
5, 48800, Pitch_bend_c, 7, 8192
5, 48960, Pitch_bend_c, 7, 8320
5, 49120, Pitch_bend_c, 7, 8192
5, 49280, Pitch_bend_c, 7, 8320
5, 49440, Pitch_bend_c, 7, 8192
5, 49600, Pitch_bend_c, 7, 8320
5, 49760, Pitch_bend_c, 7, 8192
5, 49920, Pitch_bend_c, 7, 8320
5, 49920, Pitch_bend_c, 7, 8192
5, 49920, Note_off_c, 7, 54, 95
5, 50400, Note_on_c, 7, 54, 95
5, 50560, Pitch_bend_c, 7, 8192
5, 50720, Pitch_bend_c, 7, 8320
5, 50880, Pitch_bend_c, 7, 8192
5, 50880, Pitch_bend_c, 7, 8320
5, 50880, Pitch_bend_c, 7, 8192
5, 50880, Note_off_c, 7, 54, 95
5, 50880, Note_on_c, 7, 54, 95
5, 51040, Pitch_bend_c, 7, 8192
5, 51200, Pitch_bend_c, 7, 8320
5, 51360, Pitch_bend_c, 7, 8192
5, 51360, Pitch_bend_c, 7, 8320
5, 51360, Pitch_bend_c, 7, 8192
5, 51360, Note_off_c, 7, 54, 95
5, 51360, Note_on_c, 7, 56, 95
5, 51520, Pitch_bend_c, 7, 8192
5, 51680, Pitch_bend_c, 7, 8320
5, 51840, Pitch_bend_c, 7, 8192
5, 51840, Pitch_bend_c, 7, 8320
5, 51840, Pitch_bend_c, 7, 8192
5, 51840, Note_off_c, 7, 56, 95
5, 51840, Note_on_c, 7, 56, 95
5, 52000, Pitch_bend_c, 7, 8192
5, 52160, Pitch_bend_c, 7, 8320
5, 52320, Pitch_bend_c, 7, 8192
5, 52480, Pitch_bend_c, 7, 8320
5, 52640, Pitch_bend_c, 7, 8192
5, 52800, Pitch_bend_c, 7, 8320
5, 52960, Pitch_bend_c, 7, 8192
5, 53120, Pitch_bend_c, 7, 8320
5, 53280, Pitch_bend_c, 7, 8192
5, 53280, Pitch_bend_c, 7, 8320
5, 53280, Pitch_bend_c, 7, 8192
5, 53280, Note_off_c, 7, 56, 95
5, 53280, Note_on_c, 7, 52, 95
5, 53440, Pitch_bend_c, 7, 8192
5, 53600, Pitch_bend_c, 7, 8320
5, 53760, Pitch_bend_c, 7, 8192
5, 53760, Pitch_bend_c, 7, 8320
5, 53760, Pitch_bend_c, 7, 8192
5, 53760, Note_off_c, 7, 52, 95
5, 54240, Note_on_c, 7, 52, 95
5, 54400, Pitch_bend_c, 7, 8192
5, 54560, Pitch_bend_c, 7, 8320
5, 54720, Pitch_bend_c, 7, 8192
5, 54720, Pitch_bend_c, 7, 8320
5, 54720, Pitch_bend_c, 7, 8192
5, 54720, Note_off_c, 7, 52, 95
5, 54720, Note_on_c, 7, 52, 95
5, 54880, Pitch_bend_c, 7, 8192
5, 55040, Pitch_bend_c, 7, 8320
5, 55200, Pitch_bend_c, 7, 8192
5, 55200, Pitch_bend_c, 7, 8320
5, 55200, Pitch_bend_c, 7, 8192
5, 55200, Note_off_c, 7, 52, 95
5, 55200, Note_on_c, 7, 56, 95
5, 55360, Pitch_bend_c, 7, 8192
5, 55520, Pitch_bend_c, 7, 8320
5, 55680, Pitch_bend_c, 7, 8192
5, 55680, Pitch_bend_c, 7, 8320
5, 55680, Pitch_bend_c, 7, 8192
5, 55680, Note_off_c, 7, 56, 95
5, 55680, Note_on_c, 7, 54, 95
5, 55840, Pitch_bend_c, 7, 8192
5, 56000, Pitch_bend_c, 7, 8320
5, 56160, Pitch_bend_c, 7, 8192
5, 56320, Pitch_bend_c, 7, 8320
5, 56480, Pitch_bend_c, 7, 8192
5, 56640, Pitch_bend_c, 7, 8320
5, 56800, Pitch_bend_c, 7, 8192
5, 56960, Pitch_bend_c, 7, 8320
5, 57120, Pitch_bend_c, 7, 8192
5, 57280, Pitch_bend_c, 7, 8320
5, 57440, Pitch_bend_c, 7, 8192
5, 57600, Pitch_bend_c, 7, 8320
5, 57600, Pitch_bend_c, 7, 8192
5, 57600, Note_off_c, 7, 54, 95
5, 58080, Note_on_c, 7, 54, 95
5, 58240, Pitch_bend_c, 7, 8192
5, 58400, Pitch_bend_c, 7, 8320
5, 58560, Pitch_bend_c, 7, 8192
5, 58560, Pitch_bend_c, 7, 8320
5, 58560, Pitch_bend_c, 7, 8192
5, 58560, Note_off_c, 7, 54, 95
5, 58560, Note_on_c, 7, 54, 95
5, 58720, Pitch_bend_c, 7, 8192
5, 58880, Pitch_bend_c, 7, 8320
5, 59040, Pitch_bend_c, 7, 8192
5, 59040, Pitch_bend_c, 7, 8320
5, 59040, Pitch_bend_c, 7, 8192
5, 59040, Note_off_c, 7, 54, 95
5, 59040, Note_on_c, 7, 56, 95
5, 59200, Pitch_bend_c, 7, 8192
5, 59360, Pitch_bend_c, 7, 8320
5, 59460, Note_on_c, 7, 55, 95
5, 59520, Pitch_bend_c, 7, 8192
5, 59520, Pitch_bend_c, 7, 8320
5, 59520, Pitch_bend_c, 7, 8192
5, 59520, Note_off_c, 7, 56, 95
5, 59520, Note_off_c, 7, 55, 95
5, 59520, Note_on_c, 7, 56, 95
5, 59680, Pitch_bend_c, 7, 8192
5, 59840, Pitch_bend_c, 7, 8320
5, 60000, Pitch_bend_c, 7, 8192
5, 60160, Pitch_bend_c, 7, 8320
5, 60320, Pitch_bend_c, 7, 8192
5, 60480, Pitch_bend_c, 7, 8320
5, 60640, Pitch_bend_c, 7, 8192
5, 60800, Pitch_bend_c, 7, 8320
5, 60960, Pitch_bend_c, 7, 8192
5, 61120, Pitch_bend_c, 7, 8320
5, 61280, Pitch_bend_c, 7, 8192
5, 61440, Pitch_bend_c, 7, 8320
5, 61440, Pitch_bend_c, 7, 8192
5, 61440, Note_off_c, 7, 56, 95
5, 81120, Note_on_c, 7, 64, 95
5, 81280, Pitch_bend_c, 7, 8192
5, 81440, Pitch_bend_c, 7, 8320
5, 81600, Pitch_bend_c, 7, 8192
5, 81600, Pitch_bend_c, 7, 8320
5, 81600, Pitch_bend_c, 7, 8192
5, 81600, Note_off_c, 7, 64, 95
5, 81600, Note_on_c, 7, 64, 95
5, 81760, Pitch_bend_c, 7, 8192
5, 81920, Pitch_bend_c, 7, 8320
5, 82080, Pitch_bend_c, 7, 8192
5, 82080, Pitch_bend_c, 7, 8320
5, 82080, Pitch_bend_c, 7, 8192
5, 82080, Note_off_c, 7, 64, 95
5, 82080, Note_on_c, 7, 61, 95
5, 82240, Pitch_bend_c, 7, 8192
5, 82400, Pitch_bend_c, 7, 8320
5, 82560, Pitch_bend_c, 7, 8192
5, 82560, Pitch_bend_c, 7, 8320
5, 82560, Pitch_bend_c, 7, 8192
5, 82560, Note_off_c, 7, 61, 95
5, 82560, Note_on_c, 7, 64, 95
5, 82720, Pitch_bend_c, 7, 8192
5, 82880, Pitch_bend_c, 7, 8320
5, 83040, Pitch_bend_c, 7, 8192
5, 83040, Pitch_bend_c, 7, 8320
5, 83040, Pitch_bend_c, 7, 8192
5, 83040, Note_off_c, 7, 64, 95
5, 83040, Note_on_c, 7, 66, 95
5, 83200, Pitch_bend_c, 7, 8192
5, 83360, Pitch_bend_c, 7, 8320
5, 83520, Pitch_bend_c, 7, 8192
5, 83520, Pitch_bend_c, 7, 8320
5, 83520, Pitch_bend_c, 7, 8192
5, 83520, Note_off_c, 7, 66, 95
5, 83520, Note_on_c, 7, 68, 95
5, 83680, Pitch_bend_c, 7, 8192
5, 83840, Pitch_bend_c, 7, 8320
5, 84000, Pitch_bend_c, 7, 8192
5, 84000, Pitch_bend_c, 7, 8320
5, 84000, Pitch_bend_c, 7, 8192
5, 84000, Note_off_c, 7, 68, 95
5, 84000, Note_on_c, 7, 69, 95
5, 84160, Pitch_bend_c, 7, 8192
5, 84320, Pitch_bend_c, 7, 8320
5, 84480, Pitch_bend_c, 7, 8192
5, 84480, Pitch_bend_c, 7, 8320
5, 84480, Pitch_bend_c, 7, 8192
5, 84480, Note_off_c, 7, 69, 95
5, 84480, Pitch_bend_c, 7, 8192
5, 84480, Note_on_c, 7, 66, 95
5, 84720, Pitch_bend_c, 7, 8320
5, 84960, Pitch_bend_c, 7, 8448
5, 84960, Pitch_bend_c, 7, 8448
5, 85440, Pitch_bend_c, 7, 8448
5, 85440, Pitch_bend_c, 7, 8192
5, 85440, Note_off_c, 7, 66, 95
5, 85440, Note_on_c, 7, 64, 95
5, 85600, Pitch_bend_c, 7, 8192
5, 85760, Pitch_bend_c, 7, 8320
5, 85920, Pitch_bend_c, 7, 8192
5, 85920, Pitch_bend_c, 7, 8320
5, 85920, Pitch_bend_c, 7, 8192
5, 85920, Note_off_c, 7, 64, 95
5, 85920, Note_on_c, 7, 63, 95
5, 86080, Pitch_bend_c, 7, 8192
5, 86240, Pitch_bend_c, 7, 8320
5, 86400, Pitch_bend_c, 7, 8192
5, 86560, Pitch_bend_c, 7, 8320
5, 86720, Pitch_bend_c, 7, 8192
5, 86880, Pitch_bend_c, 7, 8320
5, 87040, Pitch_bend_c, 7, 8192
5, 87200, Pitch_bend_c, 7, 8320
5, 87360, Pitch_bend_c, 7, 8192
5, 87520, Pitch_bend_c, 7, 8320
5, 87680, Pitch_bend_c, 7, 8192
5, 87840, Pitch_bend_c, 7, 8320
5, 87840, Pitch_bend_c, 7, 8192
5, 87840, Note_off_c, 7, 63, 95
5, 88800, Note_on_c, 7, 64, 95
5, 88960, Pitch_bend_c, 7, 8192
5, 89120, Pitch_bend_c, 7, 8320
5, 89280, Pitch_bend_c, 7, 8192
5, 89280, Pitch_bend_c, 7, 8320
5, 89280, Pitch_bend_c, 7, 8192
5, 89280, Note_off_c, 7, 64, 95
5, 89280, Note_on_c, 7, 64, 95
5, 89440, Pitch_bend_c, 7, 8192
5, 89600, Pitch_bend_c, 7, 8320
5, 89760, Pitch_bend_c, 7, 8192
5, 89760, Pitch_bend_c, 7, 8320
5, 89760, Pitch_bend_c, 7, 8192
5, 89760, Note_off_c, 7, 64, 95
5, 89760, Note_on_c, 7, 61, 95
5, 89920, Pitch_bend_c, 7, 8192
5, 90080, Pitch_bend_c, 7, 8320
5, 90240, Pitch_bend_c, 7, 8192
5, 90240, Pitch_bend_c, 7, 8320
5, 90240, Pitch_bend_c, 7, 8192
5, 90240, Note_off_c, 7, 61, 95
5, 90240, Note_on_c, 7, 64, 95
5, 90400, Pitch_bend_c, 7, 8192
5, 90560, Pitch_bend_c, 7, 8320
5, 90720, Pitch_bend_c, 7, 8192
5, 90720, Pitch_bend_c, 7, 8320
5, 90720, Pitch_bend_c, 7, 8192
5, 90720, Note_off_c, 7, 64, 95
5, 90720, Note_on_c, 7, 66, 95
5, 90880, Pitch_bend_c, 7, 8192
5, 91040, Pitch_bend_c, 7, 8320
5, 91200, Pitch_bend_c, 7, 8192
5, 91200, Pitch_bend_c, 7, 8320
5, 91200, Pitch_bend_c, 7, 8192
5, 91200, Note_off_c, 7, 66, 95
5, 91200, Note_on_c, 7, 68, 95
5, 91360, Pitch_bend_c, 7, 8192
5, 91520, Pitch_bend_c, 7, 8320
5, 91680, Pitch_bend_c, 7, 8192
5, 91680, Pitch_bend_c, 7, 8320
5, 91680, Pitch_bend_c, 7, 8192
5, 91680, Note_off_c, 7, 68, 95
5, 91680, Note_on_c, 7, 69, 95
5, 91840, Pitch_bend_c, 7, 8192
5, 92000, Pitch_bend_c, 7, 8320
5, 92100, Note_on_c, 7, 64, 95
5, 92160, Pitch_bend_c, 7, 8192
5, 92160, Pitch_bend_c, 7, 8320
5, 92160, Pitch_bend_c, 7, 8192
5, 92160, Note_off_c, 7, 69, 95
5, 92160, Note_off_c, 7, 64, 95
5, 92160, Note_on_c, 7, 66, 95
5, 92320, Pitch_bend_c, 7, 8192
5, 92480, Pitch_bend_c, 7, 8320
5, 92640, Pitch_bend_c, 7, 8192
5, 92800, Pitch_bend_c, 7, 8320
5, 92960, Pitch_bend_c, 7, 8192
5, 93120, Pitch_bend_c, 7, 8320
5, 93280, Pitch_bend_c, 7, 8192
5, 93440, Pitch_bend_c, 7, 8320
5, 93600, Pitch_bend_c, 7, 8192
5, 93760, Pitch_bend_c, 7, 8320
5, 93920, Pitch_bend_c, 7, 8192
5, 94080, Pitch_bend_c, 7, 8320
5, 94080, Pitch_bend_c, 7, 8192
5, 94080, Note_off_c, 7, 66, 95
5, 96480, Note_on_c, 7, 64, 95
5, 96640, Pitch_bend_c, 7, 8192
5, 96800, Pitch_bend_c, 7, 8320
5, 96960, Pitch_bend_c, 7, 8192
5, 96960, Pitch_bend_c, 7, 8320
5, 96960, Pitch_bend_c, 7, 8192
5, 96960, Note_off_c, 7, 64, 95
5, 96960, Note_on_c, 7, 64, 95
5, 97120, Pitch_bend_c, 7, 8192
5, 97280, Pitch_bend_c, 7, 8320
5, 97440, Pitch_bend_c, 7, 8192
5, 97440, Pitch_bend_c, 7, 8320
5, 97440, Pitch_bend_c, 7, 8192
5, 97440, Note_off_c, 7, 64, 95
5, 97440, Note_on_c, 7, 61, 95
5, 97600, Pitch_bend_c, 7, 8192
5, 97760, Pitch_bend_c, 7, 8320
5, 97920, Pitch_bend_c, 7, 8192
5, 97920, Pitch_bend_c, 7, 8320
5, 97920, Pitch_bend_c, 7, 8192
5, 97920, Note_off_c, 7, 61, 95
5, 97920, Note_on_c, 7, 64, 95
5, 98080, Pitch_bend_c, 7, 8192
5, 98240, Pitch_bend_c, 7, 8320
5, 98400, Pitch_bend_c, 7, 8192
5, 98400, Pitch_bend_c, 7, 8320
5, 98400, Pitch_bend_c, 7, 8192
5, 98400, Note_off_c, 7, 64, 95
5, 98400, Note_on_c, 7, 66, 95
5, 98560, Pitch_bend_c, 7, 8192
5, 98720, Pitch_bend_c, 7, 8320
5, 98880, Pitch_bend_c, 7, 8192
5, 98880, Pitch_bend_c, 7, 8320
5, 98880, Pitch_bend_c, 7, 8192
5, 98880, Note_off_c, 7, 66, 95
5, 98880, Note_on_c, 7, 68, 95
5, 99040, Pitch_bend_c, 7, 8192
5, 99200, Pitch_bend_c, 7, 8320
5, 99360, Pitch_bend_c, 7, 8192
5, 99360, Pitch_bend_c, 7, 8320
5, 99360, Pitch_bend_c, 7, 8192
5, 99360, Note_off_c, 7, 68, 95
5, 99360, Note_on_c, 7, 69, 95
5, 99520, Pitch_bend_c, 7, 8192
5, 99680, Pitch_bend_c, 7, 8320
5, 99840, Pitch_bend_c, 7, 8192
5, 99840, Pitch_bend_c, 7, 8320
5, 99840, Pitch_bend_c, 7, 8192
5, 99840, Note_off_c, 7, 69, 95
5, 99840, Pitch_bend_c, 7, 8192
5, 99840, Note_on_c, 7, 66, 95
5, 100080, Pitch_bend_c, 7, 8320
5, 100320, Pitch_bend_c, 7, 8448
5, 100320, Pitch_bend_c, 7, 8448
5, 100800, Pitch_bend_c, 7, 8448
5, 100800, Pitch_bend_c, 7, 8192
5, 100800, Note_off_c, 7, 66, 95
5, 100800, Note_on_c, 7, 64, 95
5, 100960, Pitch_bend_c, 7, 8192
5, 101120, Pitch_bend_c, 7, 8320
5, 101280, Pitch_bend_c, 7, 8192
5, 101280, Pitch_bend_c, 7, 8320
5, 101280, Pitch_bend_c, 7, 8192
5, 101280, Note_off_c, 7, 64, 95
5, 101280, Note_on_c, 7, 63, 95
5, 101440, Pitch_bend_c, 7, 8192
5, 101600, Pitch_bend_c, 7, 8320
5, 101760, Pitch_bend_c, 7, 8192
5, 101920, Pitch_bend_c, 7, 8320
5, 102080, Pitch_bend_c, 7, 8192
5, 102240, Pitch_bend_c, 7, 8320
5, 102400, Pitch_bend_c, 7, 8192
5, 102560, Pitch_bend_c, 7, 8320
5, 102720, Pitch_bend_c, 7, 8192
5, 102880, Pitch_bend_c, 7, 8320
5, 103040, Pitch_bend_c, 7, 8192
5, 103200, Pitch_bend_c, 7, 8320
5, 103200, Pitch_bend_c, 7, 8192
5, 103200, Note_off_c, 7, 63, 95
5, 104160, Note_on_c, 7, 69, 95
5, 104320, Pitch_bend_c, 7, 8192
5, 104480, Pitch_bend_c, 7, 8320
5, 104640, Pitch_bend_c, 7, 8192
5, 104800, Pitch_bend_c, 7, 8320
5, 104960, Pitch_bend_c, 7, 8192
5, 105120, Pitch_bend_c, 7, 8320
5, 105280, Pitch_bend_c, 7, 8192
5, 105440, Pitch_bend_c, 7, 8320
5, 105600, Pitch_bend_c, 7, 8192
5, 105760, Pitch_bend_c, 7, 8320
5, 105920, Pitch_bend_c, 7, 8192
5, 106080, Pitch_bend_c, 7, 8320
5, 106080, Pitch_bend_c, 7, 8192
5, 106080, Note_off_c, 7, 69, 95
5, 106080, Note_on_c, 6, 68, 95
5, 106560, Note_off_c, 6, 68, 95
5, 106560, Note_on_c, 6, 69, 95
5, 107040, Note_off_c, 6, 69, 95
5, 107040, Note_on_c, 6, 68, 95
5, 107460, Note_on_c, 7, 64, 95
5, 107520, Note_off_c, 6, 68, 95
5, 107520, Note_off_c, 7, 64, 95
5, 107520, Note_on_c, 7, 66, 95
5, 107680, Pitch_bend_c, 7, 8192
5, 107840, Pitch_bend_c, 7, 8320
5, 108000, Pitch_bend_c, 7, 8192
5, 108160, Pitch_bend_c, 7, 8320
5, 108320, Pitch_bend_c, 7, 8192
5, 108480, Pitch_bend_c, 7, 8320
5, 108640, Pitch_bend_c, 7, 8192
5, 108800, Pitch_bend_c, 7, 8320
5, 108960, Pitch_bend_c, 7, 8192
5, 109120, Pitch_bend_c, 7, 8320
5, 109280, Pitch_bend_c, 7, 8192
5, 109440, Pitch_bend_c, 7, 8320
5, 109600, Pitch_bend_c, 7, 8192
5, 109760, Pitch_bend_c, 7, 8320
5, 109920, Pitch_bend_c, 7, 8192
5, 110080, Pitch_bend_c, 7, 8320
5, 110240, Pitch_bend_c, 7, 8192
5, 110400, Pitch_bend_c, 7, 8320
5, 110400, Pitch_bend_c, 7, 8192
5, 110400, Note_off_c, 7, 66, 95
5, 127200, Note_on_c, 7, 52, 95
5, 127360, Pitch_bend_c, 7, 8192
5, 127520, Pitch_bend_c, 7, 8320
5, 127680, Pitch_bend_c, 7, 8192
5, 127680, Pitch_bend_c, 7, 8320
5, 127680, Pitch_bend_c, 7, 8192
5, 127680, Note_off_c, 7, 52, 95
5, 127680, Note_on_c, 7, 52, 95
5, 127840, Pitch_bend_c, 7, 8192
5, 128000, Pitch_bend_c, 7, 8320
5, 128160, Pitch_bend_c, 7, 8192
5, 128160, Pitch_bend_c, 7, 8320
5, 128160, Pitch_bend_c, 7, 8192
5, 128160, Note_off_c, 7, 52, 95
5, 128160, Note_on_c, 7, 56, 95
5, 128320, Pitch_bend_c, 7, 8192
5, 128480, Pitch_bend_c, 7, 8320
5, 128640, Pitch_bend_c, 7, 8192
5, 128640, Pitch_bend_c, 7, 8320
5, 128640, Pitch_bend_c, 7, 8192
5, 128640, Note_off_c, 7, 56, 95
5, 128640, Note_on_c, 7, 54, 95
5, 128800, Pitch_bend_c, 7, 8192
5, 128960, Pitch_bend_c, 7, 8320
5, 129120, Pitch_bend_c, 7, 8192
5, 129280, Pitch_bend_c, 7, 8320
5, 129440, Pitch_bend_c, 7, 8192
5, 129600, Pitch_bend_c, 7, 8320
5, 129760, Pitch_bend_c, 7, 8192
5, 129920, Pitch_bend_c, 7, 8320
5, 130080, Pitch_bend_c, 7, 8192
5, 130240, Pitch_bend_c, 7, 8320
5, 130400, Pitch_bend_c, 7, 8192
5, 130560, Pitch_bend_c, 7, 8320
5, 130560, Pitch_bend_c, 7, 8192
5, 130560, Note_off_c, 7, 54, 95
5, 131040, Note_on_c, 7, 54, 95
5, 131200, Pitch_bend_c, 7, 8192
5, 131360, Pitch_bend_c, 7, 8320
5, 131520, Pitch_bend_c, 7, 8192
5, 131520, Pitch_bend_c, 7, 8320
5, 131520, Pitch_bend_c, 7, 8192
5, 131520, Note_off_c, 7, 54, 95
5, 131520, Note_on_c, 7, 54, 95
5, 131680, Pitch_bend_c, 7, 8192
5, 131840, Pitch_bend_c, 7, 8320
5, 132000, Pitch_bend_c, 7, 8192
5, 132000, Pitch_bend_c, 7, 8320
5, 132000, Pitch_bend_c, 7, 8192
5, 132000, Note_off_c, 7, 54, 95
5, 132000, Note_on_c, 7, 56, 95
5, 132160, Pitch_bend_c, 7, 8192
5, 132320, Pitch_bend_c, 7, 8320
5, 132480, Pitch_bend_c, 7, 8192
5, 132480, Pitch_bend_c, 7, 8320
5, 132480, Pitch_bend_c, 7, 8192
5, 132480, Note_off_c, 7, 56, 95
5, 132480, Note_on_c, 7, 56, 95
5, 132640, Pitch_bend_c, 7, 8192
5, 132800, Pitch_bend_c, 7, 8320
5, 132960, Pitch_bend_c, 7, 8192
5, 133120, Pitch_bend_c, 7, 8320
5, 133280, Pitch_bend_c, 7, 8192
5, 133440, Pitch_bend_c, 7, 8320
5, 133600, Pitch_bend_c, 7, 8192
5, 133760, Pitch_bend_c, 7, 8320
5, 133920, Pitch_bend_c, 7, 8192
5, 133920, Pitch_bend_c, 7, 8320
5, 133920, Pitch_bend_c, 7, 8192
5, 133920, Note_off_c, 7, 56, 95
5, 133920, Note_on_c, 7, 52, 95
5, 134080, Pitch_bend_c, 7, 8192
5, 134240, Pitch_bend_c, 7, 8320
5, 134400, Pitch_bend_c, 7, 8192
5, 134400, Pitch_bend_c, 7, 8320
5, 134400, Pitch_bend_c, 7, 8192
5, 134400, Note_off_c, 7, 52, 95
5, 134880, Note_on_c, 7, 52, 95
5, 135040, Pitch_bend_c, 7, 8192
5, 135200, Pitch_bend_c, 7, 8320
5, 135360, Pitch_bend_c, 7, 8192
5, 135360, Pitch_bend_c, 7, 8320
5, 135360, Pitch_bend_c, 7, 8192
5, 135360, Note_off_c, 7, 52, 95
5, 135360, Note_on_c, 7, 52, 95
5, 135520, Pitch_bend_c, 7, 8192
5, 135680, Pitch_bend_c, 7, 8320
5, 135840, Pitch_bend_c, 7, 8192
5, 135840, Pitch_bend_c, 7, 8320
5, 135840, Pitch_bend_c, 7, 8192
5, 135840, Note_off_c, 7, 52, 95
5, 135840, Note_on_c, 7, 56, 95
5, 136000, Pitch_bend_c, 7, 8192
5, 136160, Pitch_bend_c, 7, 8320
5, 136320, Pitch_bend_c, 7, 8192
5, 136320, Pitch_bend_c, 7, 8320
5, 136320, Pitch_bend_c, 7, 8192
5, 136320, Note_off_c, 7, 56, 95
5, 136320, Note_on_c, 7, 54, 95
5, 136480, Pitch_bend_c, 7, 8192
5, 136640, Pitch_bend_c, 7, 8320
5, 136800, Pitch_bend_c, 7, 8192
5, 136960, Pitch_bend_c, 7, 8320
5, 137120, Pitch_bend_c, 7, 8192
5, 137280, Pitch_bend_c, 7, 8320
5, 137440, Pitch_bend_c, 7, 8192
5, 137600, Pitch_bend_c, 7, 8320
5, 137760, Pitch_bend_c, 7, 8192
5, 137920, Pitch_bend_c, 7, 8320
5, 138080, Pitch_bend_c, 7, 8192
5, 138240, Pitch_bend_c, 7, 8320
5, 138240, Pitch_bend_c, 7, 8192
5, 138240, Note_off_c, 7, 54, 95
5, 138720, Note_on_c, 7, 54, 95
5, 138880, Pitch_bend_c, 7, 8192
5, 139040, Pitch_bend_c, 7, 8320
5, 139200, Pitch_bend_c, 7, 8192
5, 139200, Pitch_bend_c, 7, 8320
5, 139200, Pitch_bend_c, 7, 8192
5, 139200, Note_off_c, 7, 54, 95
5, 139200, Note_on_c, 7, 54, 95
5, 139360, Pitch_bend_c, 7, 8192
5, 139520, Pitch_bend_c, 7, 8320
5, 139680, Pitch_bend_c, 7, 8192
5, 139680, Pitch_bend_c, 7, 8320
5, 139680, Pitch_bend_c, 7, 8192
5, 139680, Note_off_c, 7, 54, 95
5, 139680, Note_on_c, 7, 56, 95
5, 139840, Pitch_bend_c, 7, 8192
5, 140000, Pitch_bend_c, 7, 8320
5, 140100, Note_on_c, 7, 55, 95
5, 140160, Pitch_bend_c, 7, 8192
5, 140160, Pitch_bend_c, 7, 8320
5, 140160, Pitch_bend_c, 7, 8192
5, 140160, Note_off_c, 7, 56, 95
5, 140160, Note_off_c, 7, 55, 95
5, 140160, Note_on_c, 7, 56, 95
5, 140320, Pitch_bend_c, 7, 8192
5, 140480, Pitch_bend_c, 7, 8320
5, 140640, Pitch_bend_c, 7, 8192
5, 140800, Pitch_bend_c, 7, 8320
5, 140960, Pitch_bend_c, 7, 8192
5, 141120, Pitch_bend_c, 7, 8320
5, 141280, Pitch_bend_c, 7, 8192
5, 141440, Pitch_bend_c, 7, 8320
5, 141600, Pitch_bend_c, 7, 8192
5, 141760, Pitch_bend_c, 7, 8320
5, 141920, Pitch_bend_c, 7, 8192
5, 142080, Pitch_bend_c, 7, 8320
5, 142080, Pitch_bend_c, 7, 8192
5, 142080, Note_off_c, 7, 56, 95
5, 161760, Note_on_c, 7, 64, 95
5, 161920, Pitch_bend_c, 7, 8192
5, 162080, Pitch_bend_c, 7, 8320
5, 162240, Pitch_bend_c, 7, 8192
5, 162240, Pitch_bend_c, 7, 8320
5, 162240, Pitch_bend_c, 7, 8192
5, 162240, Note_off_c, 7, 64, 95
5, 162240, Note_on_c, 7, 64, 95
5, 162400, Pitch_bend_c, 7, 8192
5, 162560, Pitch_bend_c, 7, 8320
5, 162720, Pitch_bend_c, 7, 8192
5, 162720, Pitch_bend_c, 7, 8320
5, 162720, Pitch_bend_c, 7, 8192
5, 162720, Note_off_c, 7, 64, 95
5, 162720, Note_on_c, 7, 61, 95
5, 162880, Pitch_bend_c, 7, 8192
5, 163040, Pitch_bend_c, 7, 8320
5, 163200, Pitch_bend_c, 7, 8192
5, 163200, Pitch_bend_c, 7, 8320
5, 163200, Pitch_bend_c, 7, 8192
5, 163200, Note_off_c, 7, 61, 95
5, 163200, Note_on_c, 7, 64, 95
5, 163360, Pitch_bend_c, 7, 8192
5, 163520, Pitch_bend_c, 7, 8320
5, 163680, Pitch_bend_c, 7, 8192
5, 163680, Pitch_bend_c, 7, 8320
5, 163680, Pitch_bend_c, 7, 8192
5, 163680, Note_off_c, 7, 64, 95
5, 163680, Note_on_c, 7, 66, 95
5, 163840, Pitch_bend_c, 7, 8192
5, 164000, Pitch_bend_c, 7, 8320
5, 164160, Pitch_bend_c, 7, 8192
5, 164160, Pitch_bend_c, 7, 8320
5, 164160, Pitch_bend_c, 7, 8192
5, 164160, Note_off_c, 7, 66, 95
5, 164160, Note_on_c, 7, 68, 95
5, 164320, Pitch_bend_c, 7, 8192
5, 164480, Pitch_bend_c, 7, 8320
5, 164640, Pitch_bend_c, 7, 8192
5, 164640, Pitch_bend_c, 7, 8320
5, 164640, Pitch_bend_c, 7, 8192
5, 164640, Note_off_c, 7, 68, 95
5, 164640, Note_on_c, 7, 69, 95
5, 164800, Pitch_bend_c, 7, 8192
5, 164960, Pitch_bend_c, 7, 8320
5, 165120, Pitch_bend_c, 7, 8192
5, 165120, Pitch_bend_c, 7, 8320
5, 165120, Pitch_bend_c, 7, 8192
5, 165120, Note_off_c, 7, 69, 95
5, 165120, Pitch_bend_c, 7, 8192
5, 165120, Note_on_c, 7, 66, 95
5, 165360, Pitch_bend_c, 7, 8320
5, 165600, Pitch_bend_c, 7, 8448
5, 165600, Pitch_bend_c, 7, 8448
5, 166080, Pitch_bend_c, 7, 8448
5, 166080, Pitch_bend_c, 7, 8192
5, 166080, Note_off_c, 7, 66, 95
5, 166080, Note_on_c, 7, 64, 95
5, 166240, Pitch_bend_c, 7, 8192
5, 166400, Pitch_bend_c, 7, 8320
5, 166560, Pitch_bend_c, 7, 8192
5, 166560, Pitch_bend_c, 7, 8320
5, 166560, Pitch_bend_c, 7, 8192
5, 166560, Note_off_c, 7, 64, 95
5, 166560, Note_on_c, 7, 63, 95
5, 166720, Pitch_bend_c, 7, 8192
5, 166880, Pitch_bend_c, 7, 8320
5, 167040, Pitch_bend_c, 7, 8192
5, 167200, Pitch_bend_c, 7, 8320
5, 167360, Pitch_bend_c, 7, 8192
5, 167520, Pitch_bend_c, 7, 8320
5, 167680, Pitch_bend_c, 7, 8192
5, 167840, Pitch_bend_c, 7, 8320
5, 168000, Pitch_bend_c, 7, 8192
5, 168160, Pitch_bend_c, 7, 8320
5, 168320, Pitch_bend_c, 7, 8192
5, 168480, Pitch_bend_c, 7, 8320
5, 168480, Pitch_bend_c, 7, 8192
5, 168480, Note_off_c, 7, 63, 95
5, 169440, Note_on_c, 7, 64, 95
5, 169600, Pitch_bend_c, 7, 8192
5, 169760, Pitch_bend_c, 7, 8320
5, 169920, Pitch_bend_c, 7, 8192
5, 169920, Pitch_bend_c, 7, 8320
5, 169920, Pitch_bend_c, 7, 8192
5, 169920, Note_off_c, 7, 64, 95
5, 169920, Note_on_c, 7, 64, 95
5, 170080, Pitch_bend_c, 7, 8192
5, 170240, Pitch_bend_c, 7, 8320
5, 170400, Pitch_bend_c, 7, 8192
5, 170400, Pitch_bend_c, 7, 8320
5, 170400, Pitch_bend_c, 7, 8192
5, 170400, Note_off_c, 7, 64, 95
5, 170400, Note_on_c, 7, 61, 95
5, 170560, Pitch_bend_c, 7, 8192
5, 170720, Pitch_bend_c, 7, 8320
5, 170880, Pitch_bend_c, 7, 8192
5, 170880, Pitch_bend_c, 7, 8320
5, 170880, Pitch_bend_c, 7, 8192
5, 170880, Note_off_c, 7, 61, 95
5, 170880, Note_on_c, 7, 64, 95
5, 171040, Pitch_bend_c, 7, 8192
5, 171200, Pitch_bend_c, 7, 8320
5, 171360, Pitch_bend_c, 7, 8192
5, 171360, Pitch_bend_c, 7, 8320
5, 171360, Pitch_bend_c, 7, 8192
5, 171360, Note_off_c, 7, 64, 95
5, 171360, Note_on_c, 7, 66, 95
5, 171520, Pitch_bend_c, 7, 8192
5, 171680, Pitch_bend_c, 7, 8320
5, 171840, Pitch_bend_c, 7, 8192
5, 171840, Pitch_bend_c, 7, 8320
5, 171840, Pitch_bend_c, 7, 8192
5, 171840, Note_off_c, 7, 66, 95
5, 171840, Note_on_c, 7, 68, 95
5, 172000, Pitch_bend_c, 7, 8192
5, 172160, Pitch_bend_c, 7, 8320
5, 172320, Pitch_bend_c, 7, 8192
5, 172320, Pitch_bend_c, 7, 8320
5, 172320, Pitch_bend_c, 7, 8192
5, 172320, Note_off_c, 7, 68, 95
5, 172320, Note_on_c, 7, 69, 95
5, 172480, Pitch_bend_c, 7, 8192
5, 172640, Pitch_bend_c, 7, 8320
5, 172740, Note_on_c, 7, 64, 95
5, 172800, Pitch_bend_c, 7, 8192
5, 172800, Pitch_bend_c, 7, 8320
5, 172800, Pitch_bend_c, 7, 8192
5, 172800, Note_off_c, 7, 69, 95
5, 172800, Note_off_c, 7, 64, 95
5, 172800, Note_on_c, 7, 66, 95
5, 172960, Pitch_bend_c, 7, 8192
5, 173120, Pitch_bend_c, 7, 8320
5, 173280, Pitch_bend_c, 7, 8192
5, 173440, Pitch_bend_c, 7, 8320
5, 173600, Pitch_bend_c, 7, 8192
5, 173760, Pitch_bend_c, 7, 8320
5, 173920, Pitch_bend_c, 7, 8192
5, 174080, Pitch_bend_c, 7, 8320
5, 174240, Pitch_bend_c, 7, 8192
5, 174400, Pitch_bend_c, 7, 8320
5, 174560, Pitch_bend_c, 7, 8192
5, 174720, Pitch_bend_c, 7, 8320
5, 174720, Pitch_bend_c, 7, 8192
5, 174720, Note_off_c, 7, 66, 95
5, 177120, Note_on_c, 7, 64, 95
5, 177280, Pitch_bend_c, 7, 8192
5, 177440, Pitch_bend_c, 7, 8320
5, 177600, Pitch_bend_c, 7, 8192
5, 177600, Pitch_bend_c, 7, 8320
5, 177600, Pitch_bend_c, 7, 8192
5, 177600, Note_off_c, 7, 64, 95
5, 177600, Note_on_c, 7, 64, 95
5, 177760, Pitch_bend_c, 7, 8192
5, 177920, Pitch_bend_c, 7, 8320
5, 178080, Pitch_bend_c, 7, 8192
5, 178080, Pitch_bend_c, 7, 8320
5, 178080, Pitch_bend_c, 7, 8192
5, 178080, Note_off_c, 7, 64, 95
5, 178080, Note_on_c, 7, 61, 95
5, 178240, Pitch_bend_c, 7, 8192
5, 178400, Pitch_bend_c, 7, 8320
5, 178560, Pitch_bend_c, 7, 8192
5, 178560, Pitch_bend_c, 7, 8320
5, 178560, Pitch_bend_c, 7, 8192
5, 178560, Note_off_c, 7, 61, 95
5, 178560, Note_on_c, 7, 64, 95
5, 178720, Pitch_bend_c, 7, 8192
5, 178880, Pitch_bend_c, 7, 8320
5, 179040, Pitch_bend_c, 7, 8192
5, 179040, Pitch_bend_c, 7, 8320
5, 179040, Pitch_bend_c, 7, 8192
5, 179040, Note_off_c, 7, 64, 95
5, 179040, Note_on_c, 7, 66, 95
5, 179200, Pitch_bend_c, 7, 8192
5, 179360, Pitch_bend_c, 7, 8320
5, 179520, Pitch_bend_c, 7, 8192
5, 179520, Pitch_bend_c, 7, 8320
5, 179520, Pitch_bend_c, 7, 8192
5, 179520, Note_off_c, 7, 66, 95
5, 179520, Note_on_c, 7, 68, 95
5, 179680, Pitch_bend_c, 7, 8192
5, 179840, Pitch_bend_c, 7, 8320
5, 180000, Pitch_bend_c, 7, 8192
5, 180000, Pitch_bend_c, 7, 8320
5, 180000, Pitch_bend_c, 7, 8192
5, 180000, Note_off_c, 7, 68, 95
5, 180000, Note_on_c, 7, 69, 95
5, 180160, Pitch_bend_c, 7, 8192
5, 180320, Pitch_bend_c, 7, 8320
5, 180480, Pitch_bend_c, 7, 8192
5, 180480, Pitch_bend_c, 7, 8320
5, 180480, Pitch_bend_c, 7, 8192
5, 180480, Note_off_c, 7, 69, 95
5, 180480, Pitch_bend_c, 7, 8192
5, 180480, Note_on_c, 7, 66, 95
5, 180720, Pitch_bend_c, 7, 8320
5, 180960, Pitch_bend_c, 7, 8448
5, 180960, Pitch_bend_c, 7, 8448
5, 181440, Pitch_bend_c, 7, 8448
5, 181440, Pitch_bend_c, 7, 8192
5, 181440, Note_off_c, 7, 66, 95
5, 181440, Note_on_c, 7, 64, 95
5, 181600, Pitch_bend_c, 7, 8192
5, 181760, Pitch_bend_c, 7, 8320
5, 181920, Pitch_bend_c, 7, 8192
5, 181920, Pitch_bend_c, 7, 8320
5, 181920, Pitch_bend_c, 7, 8192
5, 181920, Note_off_c, 7, 64, 95
5, 181920, Note_on_c, 7, 63, 95
5, 182080, Pitch_bend_c, 7, 8192
5, 182240, Pitch_bend_c, 7, 8320
5, 182400, Pitch_bend_c, 7, 8192
5, 182560, Pitch_bend_c, 7, 8320
5, 182720, Pitch_bend_c, 7, 8192
5, 182880, Pitch_bend_c, 7, 8320
5, 183040, Pitch_bend_c, 7, 8192
5, 183200, Pitch_bend_c, 7, 8320
5, 183360, Pitch_bend_c, 7, 8192
5, 183520, Pitch_bend_c, 7, 8320
5, 183680, Pitch_bend_c, 7, 8192
5, 183840, Pitch_bend_c, 7, 8320
5, 183840, Pitch_bend_c, 7, 8192
5, 183840, Note_off_c, 7, 63, 95
5, 184800, Note_on_c, 7, 69, 95
5, 184960, Pitch_bend_c, 7, 8192
5, 185120, Pitch_bend_c, 7, 8320
5, 185280, Pitch_bend_c, 7, 8192
5, 185440, Pitch_bend_c, 7, 8320
5, 185600, Pitch_bend_c, 7, 8192
5, 185760, Pitch_bend_c, 7, 8320
5, 185920, Pitch_bend_c, 7, 8192
5, 186080, Pitch_bend_c, 7, 8320
5, 186240, Pitch_bend_c, 7, 8192
5, 186400, Pitch_bend_c, 7, 8320
5, 186560, Pitch_bend_c, 7, 8192
5, 186720, Pitch_bend_c, 7, 8320
5, 186720, Pitch_bend_c, 7, 8192
5, 186720, Note_off_c, 7, 69, 95
5, 186720, Note_on_c, 6, 68, 95
5, 187200, Note_off_c, 6, 68, 95
5, 187200, Note_on_c, 6, 69, 95
5, 187680, Note_off_c, 6, 69, 95
5, 187680, Note_on_c, 6, 68, 95
5, 188100, Note_on_c, 7, 64, 95
5, 188160, Note_off_c, 6, 68, 95
5, 188160, Note_off_c, 7, 64, 95
5, 188160, Note_on_c, 7, 66, 95
5, 188320, Pitch_bend_c, 7, 8192
5, 188480, Pitch_bend_c, 7, 8320
5, 188640, Pitch_bend_c, 7, 8192
5, 188800, Pitch_bend_c, 7, 8320
5, 188960, Pitch_bend_c, 7, 8192
5, 189120, Pitch_bend_c, 7, 8320
5, 189280, Pitch_bend_c, 7, 8192
5, 189440, Pitch_bend_c, 7, 8320
5, 189600, Pitch_bend_c, 7, 8192
5, 189760, Pitch_bend_c, 7, 8320
5, 189920, Pitch_bend_c, 7, 8192
5, 190080, Pitch_bend_c, 7, 8320
5, 190240, Pitch_bend_c, 7, 8192
5, 190400, Pitch_bend_c, 7, 8320
5, 190560, Pitch_bend_c, 7, 8192
5, 190720, Pitch_bend_c, 7, 8320
5, 190880, Pitch_bend_c, 7, 8192
5, 191040, Pitch_bend_c, 7, 8320
5, 191040, Pitch_bend_c, 7, 8192
5, 191040, Note_off_c, 7, 66, 95
5, 223200, Note_on_c, 7, 64, 95
5, 223360, Pitch_bend_c, 7, 8192
5, 223520, Pitch_bend_c, 7, 8320
5, 223680, Pitch_bend_c, 7, 8192
5, 223680, Pitch_bend_c, 7, 8320
5, 223680, Pitch_bend_c, 7, 8192
5, 223680, Note_off_c, 7, 64, 95
5, 223680, Note_on_c, 7, 64, 95
5, 223840, Pitch_bend_c, 7, 8192
5, 224000, Pitch_bend_c, 7, 8320
5, 224160, Pitch_bend_c, 7, 8192
5, 224160, Pitch_bend_c, 7, 8320
5, 224160, Pitch_bend_c, 7, 8192
5, 224160, Note_off_c, 7, 64, 95
5, 224160, Note_on_c, 7, 61, 95
5, 224320, Pitch_bend_c, 7, 8192
5, 224480, Pitch_bend_c, 7, 8320
5, 224640, Pitch_bend_c, 7, 8192
5, 224640, Pitch_bend_c, 7, 8320
5, 224640, Pitch_bend_c, 7, 8192
5, 224640, Note_off_c, 7, 61, 95
5, 224640, Note_on_c, 7, 64, 95
5, 224800, Pitch_bend_c, 7, 8192
5, 224960, Pitch_bend_c, 7, 8320
5, 225120, Pitch_bend_c, 7, 8192
5, 225120, Pitch_bend_c, 7, 8320
5, 225120, Pitch_bend_c, 7, 8192
5, 225120, Note_off_c, 7, 64, 95
5, 225120, Note_on_c, 7, 66, 95
5, 225280, Pitch_bend_c, 7, 8192
5, 225440, Pitch_bend_c, 7, 8320
5, 225600, Pitch_bend_c, 7, 8192
5, 225600, Pitch_bend_c, 7, 8320
5, 225600, Pitch_bend_c, 7, 8192
5, 225600, Note_off_c, 7, 66, 95
5, 225600, Note_on_c, 7, 68, 95
5, 225760, Pitch_bend_c, 7, 8192
5, 225920, Pitch_bend_c, 7, 8320
5, 226080, Pitch_bend_c, 7, 8192
5, 226080, Pitch_bend_c, 7, 8320
5, 226080, Pitch_bend_c, 7, 8192
5, 226080, Note_off_c, 7, 68, 95
5, 226080, Note_on_c, 7, 69, 95
5, 226240, Pitch_bend_c, 7, 8192
5, 226400, Pitch_bend_c, 7, 8320
5, 226560, Pitch_bend_c, 7, 8192
5, 226560, Pitch_bend_c, 7, 8320
5, 226560, Pitch_bend_c, 7, 8192
5, 226560, Note_off_c, 7, 69, 95
5, 226560, Pitch_bend_c, 7, 8192
5, 226560, Note_on_c, 7, 66, 95
5, 226800, Pitch_bend_c, 7, 8320
5, 227040, Pitch_bend_c, 7, 8448
5, 227040, Pitch_bend_c, 7, 8448
5, 227520, Pitch_bend_c, 7, 8448
5, 227520, Pitch_bend_c, 7, 8192
5, 227520, Note_off_c, 7, 66, 95
5, 227520, Note_on_c, 7, 64, 95
5, 227680, Pitch_bend_c, 7, 8192
5, 227840, Pitch_bend_c, 7, 8320
5, 228000, Pitch_bend_c, 7, 8192
5, 228000, Pitch_bend_c, 7, 8320
5, 228000, Pitch_bend_c, 7, 8192
5, 228000, Note_off_c, 7, 64, 95
5, 228000, Note_on_c, 7, 63, 95
5, 228160, Pitch_bend_c, 7, 8192
5, 228320, Pitch_bend_c, 7, 8320
5, 228480, Pitch_bend_c, 7, 8192
5, 228640, Pitch_bend_c, 7, 8320
5, 228800, Pitch_bend_c, 7, 8192
5, 228960, Pitch_bend_c, 7, 8320
5, 229120, Pitch_bend_c, 7, 8192
5, 229280, Pitch_bend_c, 7, 8320
5, 229440, Pitch_bend_c, 7, 8192
5, 229600, Pitch_bend_c, 7, 8320
5, 229760, Pitch_bend_c, 7, 8192
5, 229920, Pitch_bend_c, 7, 8320
5, 229920, Pitch_bend_c, 7, 8192
5, 229920, Note_off_c, 7, 63, 95
5, 230880, Note_on_c, 7, 64, 95
5, 231040, Pitch_bend_c, 7, 8192
5, 231200, Pitch_bend_c, 7, 8320
5, 231360, Pitch_bend_c, 7, 8192
5, 231360, Pitch_bend_c, 7, 8320
5, 231360, Pitch_bend_c, 7, 8192
5, 231360, Note_off_c, 7, 64, 95
5, 231360, Note_on_c, 7, 64, 95
5, 231520, Pitch_bend_c, 7, 8192
5, 231680, Pitch_bend_c, 7, 8320
5, 231840, Pitch_bend_c, 7, 8192
5, 231840, Pitch_bend_c, 7, 8320
5, 231840, Pitch_bend_c, 7, 8192
5, 231840, Note_off_c, 7, 64, 95
5, 231840, Note_on_c, 7, 61, 95
5, 232000, Pitch_bend_c, 7, 8192
5, 232160, Pitch_bend_c, 7, 8320
5, 232320, Pitch_bend_c, 7, 8192
5, 232320, Pitch_bend_c, 7, 8320
5, 232320, Pitch_bend_c, 7, 8192
5, 232320, Note_off_c, 7, 61, 95
5, 232320, Note_on_c, 7, 64, 95
5, 232480, Pitch_bend_c, 7, 8192
5, 232640, Pitch_bend_c, 7, 8320
5, 232800, Pitch_bend_c, 7, 8192
5, 232800, Pitch_bend_c, 7, 8320
5, 232800, Pitch_bend_c, 7, 8192
5, 232800, Note_off_c, 7, 64, 95
5, 232800, Note_on_c, 7, 66, 95
5, 232960, Pitch_bend_c, 7, 8192
5, 233120, Pitch_bend_c, 7, 8320
5, 233280, Pitch_bend_c, 7, 8192
5, 233280, Pitch_bend_c, 7, 8320
5, 233280, Pitch_bend_c, 7, 8192
5, 233280, Note_off_c, 7, 66, 95
5, 233280, Note_on_c, 7, 68, 95
5, 233440, Pitch_bend_c, 7, 8192
5, 233600, Pitch_bend_c, 7, 8320
5, 233760, Pitch_bend_c, 7, 8192
5, 233760, Pitch_bend_c, 7, 8320
5, 233760, Pitch_bend_c, 7, 8192
5, 233760, Note_off_c, 7, 68, 95
5, 233760, Note_on_c, 7, 69, 95
5, 233920, Pitch_bend_c, 7, 8192
5, 234080, Pitch_bend_c, 7, 8320
5, 234180, Note_on_c, 7, 64, 95
5, 234240, Pitch_bend_c, 7, 8192
5, 234240, Pitch_bend_c, 7, 8320
5, 234240, Pitch_bend_c, 7, 8192
5, 234240, Note_off_c, 7, 69, 95
5, 234240, Note_off_c, 7, 64, 95
5, 234240, Note_on_c, 7, 66, 95
5, 234400, Pitch_bend_c, 7, 8192
5, 234560, Pitch_bend_c, 7, 8320
5, 234720, Pitch_bend_c, 7, 8192
5, 234880, Pitch_bend_c, 7, 8320
5, 235040, Pitch_bend_c, 7, 8192
5, 235200, Pitch_bend_c, 7, 8320
5, 235360, Pitch_bend_c, 7, 8192
5, 235520, Pitch_bend_c, 7, 8320
5, 235680, Pitch_bend_c, 7, 8192
5, 235840, Pitch_bend_c, 7, 8320
5, 236000, Pitch_bend_c, 7, 8192
5, 236160, Pitch_bend_c, 7, 8320
5, 236160, Pitch_bend_c, 7, 8192
5, 236160, Note_off_c, 7, 66, 95
5, 238560, Note_on_c, 7, 64, 95
5, 238720, Pitch_bend_c, 7, 8192
5, 238880, Pitch_bend_c, 7, 8320
5, 239040, Pitch_bend_c, 7, 8192
5, 239040, Pitch_bend_c, 7, 8320
5, 239040, Pitch_bend_c, 7, 8192
5, 239040, Note_off_c, 7, 64, 95
5, 239040, Note_on_c, 7, 64, 95
5, 239200, Pitch_bend_c, 7, 8192
5, 239360, Pitch_bend_c, 7, 8320
5, 239520, Pitch_bend_c, 7, 8192
5, 239520, Pitch_bend_c, 7, 8320
5, 239520, Pitch_bend_c, 7, 8192
5, 239520, Note_off_c, 7, 64, 95
5, 239520, Note_on_c, 7, 61, 95
5, 239680, Pitch_bend_c, 7, 8192
5, 239840, Pitch_bend_c, 7, 8320
5, 240000, Pitch_bend_c, 7, 8192
5, 240000, Pitch_bend_c, 7, 8320
5, 240000, Pitch_bend_c, 7, 8192
5, 240000, Note_off_c, 7, 61, 95
5, 240000, Note_on_c, 7, 64, 95
5, 240160, Pitch_bend_c, 7, 8192
5, 240320, Pitch_bend_c, 7, 8320
5, 240480, Pitch_bend_c, 7, 8192
5, 240480, Pitch_bend_c, 7, 8320
5, 240480, Pitch_bend_c, 7, 8192
5, 240480, Note_off_c, 7, 64, 95
5, 240480, Note_on_c, 7, 66, 95
5, 240640, Pitch_bend_c, 7, 8192
5, 240800, Pitch_bend_c, 7, 8320
5, 240960, Pitch_bend_c, 7, 8192
5, 240960, Pitch_bend_c, 7, 8320
5, 240960, Pitch_bend_c, 7, 8192
5, 240960, Note_off_c, 7, 66, 95
5, 240960, Note_on_c, 7, 68, 95
5, 241120, Pitch_bend_c, 7, 8192
5, 241280, Pitch_bend_c, 7, 8320
5, 241440, Pitch_bend_c, 7, 8192
5, 241440, Pitch_bend_c, 7, 8320
5, 241440, Pitch_bend_c, 7, 8192
5, 241440, Note_off_c, 7, 68, 95
5, 241440, Note_on_c, 7, 69, 95
5, 241600, Pitch_bend_c, 7, 8192
5, 241760, Pitch_bend_c, 7, 8320
5, 241920, Pitch_bend_c, 7, 8192
5, 241920, Pitch_bend_c, 7, 8320
5, 241920, Pitch_bend_c, 7, 8192
5, 241920, Note_off_c, 7, 69, 95
5, 241920, Pitch_bend_c, 7, 8192
5, 241920, Note_on_c, 7, 66, 95
5, 242160, Pitch_bend_c, 7, 8320
5, 242400, Pitch_bend_c, 7, 8448
5, 242400, Pitch_bend_c, 7, 8448
5, 242880, Pitch_bend_c, 7, 8448
5, 242880, Pitch_bend_c, 7, 8192
5, 242880, Note_off_c, 7, 66, 95
5, 242880, Note_on_c, 7, 64, 95
5, 243040, Pitch_bend_c, 7, 8192
5, 243200, Pitch_bend_c, 7, 8320
5, 243360, Pitch_bend_c, 7, 8192
5, 243360, Pitch_bend_c, 7, 8320
5, 243360, Pitch_bend_c, 7, 8192
5, 243360, Note_off_c, 7, 64, 95
5, 243360, Note_on_c, 7, 63, 95
5, 243520, Pitch_bend_c, 7, 8192
5, 243680, Pitch_bend_c, 7, 8320
5, 243840, Pitch_bend_c, 7, 8192
5, 244000, Pitch_bend_c, 7, 8320
5, 244160, Pitch_bend_c, 7, 8192
5, 244320, Pitch_bend_c, 7, 8320
5, 244480, Pitch_bend_c, 7, 8192
5, 244640, Pitch_bend_c, 7, 8320
5, 244800, Pitch_bend_c, 7, 8192
5, 244960, Pitch_bend_c, 7, 8320
5, 245120, Pitch_bend_c, 7, 8192
5, 245280, Pitch_bend_c, 7, 8320
5, 245280, Pitch_bend_c, 7, 8192
5, 245280, Note_off_c, 7, 63, 95
5, 246240, Note_on_c, 7, 69, 95
5, 246400, Pitch_bend_c, 7, 8192
5, 246560, Pitch_bend_c, 7, 8320
5, 246720, Pitch_bend_c, 7, 8192
5, 246880, Pitch_bend_c, 7, 8320
5, 247040, Pitch_bend_c, 7, 8192
5, 247200, Pitch_bend_c, 7, 8320
5, 247360, Pitch_bend_c, 7, 8192
5, 247520, Pitch_bend_c, 7, 8320
5, 247680, Pitch_bend_c, 7, 8192
5, 247840, Pitch_bend_c, 7, 8320
5, 248000, Pitch_bend_c, 7, 8192
5, 248160, Pitch_bend_c, 7, 8320
5, 248160, Pitch_bend_c, 7, 8192
5, 248160, Note_off_c, 7, 69, 95
5, 248160, Note_on_c, 6, 68, 95
5, 248640, Note_off_c, 6, 68, 95
5, 248640, Note_on_c, 6, 69, 95
5, 249120, Note_off_c, 6, 69, 95
5, 249120, Note_on_c, 6, 68, 95
5, 249540, Note_on_c, 7, 64, 95
5, 249600, Note_off_c, 6, 68, 95
5, 249600, Note_off_c, 7, 64, 95
5, 249600, Note_on_c, 7, 66, 95
5, 249760, Pitch_bend_c, 7, 8192
5, 249920, Pitch_bend_c, 7, 8320
5, 250080, Pitch_bend_c, 7, 8192
5, 250240, Pitch_bend_c, 7, 8320
5, 250400, Pitch_bend_c, 7, 8192
5, 250560, Pitch_bend_c, 7, 8320
5, 250720, Pitch_bend_c, 7, 8192
5, 250880, Pitch_bend_c, 7, 8320
5, 251040, Pitch_bend_c, 7, 8192
5, 251200, Pitch_bend_c, 7, 8320
5, 251360, Pitch_bend_c, 7, 8192
5, 251520, Pitch_bend_c, 7, 8320
5, 251680, Pitch_bend_c, 7, 8192
5, 251840, Pitch_bend_c, 7, 8320
5, 252000, Pitch_bend_c, 7, 8192
5, 252160, Pitch_bend_c, 7, 8320
5, 252320, Pitch_bend_c, 7, 8192
5, 252480, Pitch_bend_c, 7, 8320
5, 252480, Pitch_bend_c, 7, 8192
5, 252480, Note_off_c, 7, 66, 95
5, 269280, Note_on_c, 7, 52, 95
5, 269440, Pitch_bend_c, 7, 8192
5, 269600, Pitch_bend_c, 7, 8320
5, 269760, Pitch_bend_c, 7, 8192
5, 269760, Pitch_bend_c, 7, 8320
5, 269760, Pitch_bend_c, 7, 8192
5, 269760, Note_off_c, 7, 52, 95
5, 269760, Note_on_c, 7, 52, 95
5, 269920, Pitch_bend_c, 7, 8192
5, 270080, Pitch_bend_c, 7, 8320
5, 270240, Pitch_bend_c, 7, 8192
5, 270240, Pitch_bend_c, 7, 8320
5, 270240, Pitch_bend_c, 7, 8192
5, 270240, Note_off_c, 7, 52, 95
5, 270240, Note_on_c, 7, 56, 95
5, 270400, Pitch_bend_c, 7, 8192
5, 270560, Pitch_bend_c, 7, 8320
5, 270720, Pitch_bend_c, 7, 8192
5, 270720, Pitch_bend_c, 7, 8320
5, 270720, Pitch_bend_c, 7, 8192
5, 270720, Note_off_c, 7, 56, 95
5, 270720, Note_on_c, 7, 54, 95
5, 270880, Pitch_bend_c, 7, 8192
5, 271040, Pitch_bend_c, 7, 8320
5, 271200, Pitch_bend_c, 7, 8192
5, 271360, Pitch_bend_c, 7, 8320
5, 271520, Pitch_bend_c, 7, 8192
5, 271680, Pitch_bend_c, 7, 8320
5, 271840, Pitch_bend_c, 7, 8192
5, 272000, Pitch_bend_c, 7, 8320
5, 272160, Pitch_bend_c, 7, 8192
5, 272320, Pitch_bend_c, 7, 8320
5, 272480, Pitch_bend_c, 7, 8192
5, 272640, Pitch_bend_c, 7, 8320
5, 272640, Pitch_bend_c, 7, 8192
5, 272640, Note_off_c, 7, 54, 95
5, 273120, Note_on_c, 7, 54, 95
5, 273280, Pitch_bend_c, 7, 8192
5, 273440, Pitch_bend_c, 7, 8320
5, 273600, Pitch_bend_c, 7, 8192
5, 273600, Pitch_bend_c, 7, 8320
5, 273600, Pitch_bend_c, 7, 8192
5, 273600, Note_off_c, 7, 54, 95
5, 273600, Note_on_c, 7, 54, 95
5, 273760, Pitch_bend_c, 7, 8192
5, 273920, Pitch_bend_c, 7, 8320
5, 274080, Pitch_bend_c, 7, 8192
5, 274080, Pitch_bend_c, 7, 8320
5, 274080, Pitch_bend_c, 7, 8192
5, 274080, Note_off_c, 7, 54, 95
5, 274080, Note_on_c, 7, 56, 95
5, 274240, Pitch_bend_c, 7, 8192
5, 274400, Pitch_bend_c, 7, 8320
5, 274560, Pitch_bend_c, 7, 8192
5, 274560, Pitch_bend_c, 7, 8320
5, 274560, Pitch_bend_c, 7, 8192
5, 274560, Note_off_c, 7, 56, 95
5, 274560, Note_on_c, 7, 56, 95
5, 274720, Pitch_bend_c, 7, 8192
5, 274880, Pitch_bend_c, 7, 8320
5, 275040, Pitch_bend_c, 7, 8192
5, 275200, Pitch_bend_c, 7, 8320
5, 275360, Pitch_bend_c, 7, 8192
5, 275520, Pitch_bend_c, 7, 8320
5, 275680, Pitch_bend_c, 7, 8192
5, 275840, Pitch_bend_c, 7, 8320
5, 276000, Pitch_bend_c, 7, 8192
5, 276000, Pitch_bend_c, 7, 8320
5, 276000, Pitch_bend_c, 7, 8192
5, 276000, Note_off_c, 7, 56, 95
5, 276000, Note_on_c, 7, 52, 95
5, 276160, Pitch_bend_c, 7, 8192
5, 276320, Pitch_bend_c, 7, 8320
5, 276480, Pitch_bend_c, 7, 8192
5, 276480, Pitch_bend_c, 7, 8320
5, 276480, Pitch_bend_c, 7, 8192
5, 276480, Note_off_c, 7, 52, 95
5, 276960, Note_on_c, 7, 52, 95
5, 277120, Pitch_bend_c, 7, 8192
5, 277280, Pitch_bend_c, 7, 8320
5, 277440, Pitch_bend_c, 7, 8192
5, 277440, Pitch_bend_c, 7, 8320
5, 277440, Pitch_bend_c, 7, 8192
5, 277440, Note_off_c, 7, 52, 95
5, 277440, Note_on_c, 7, 52, 95
5, 277600, Pitch_bend_c, 7, 8192
5, 277760, Pitch_bend_c, 7, 8320
5, 277920, Pitch_bend_c, 7, 8192
5, 277920, Pitch_bend_c, 7, 8320
5, 277920, Pitch_bend_c, 7, 8192
5, 277920, Note_off_c, 7, 52, 95
5, 277920, Note_on_c, 7, 56, 95
5, 278080, Pitch_bend_c, 7, 8192
5, 278240, Pitch_bend_c, 7, 8320
5, 278400, Pitch_bend_c, 7, 8192
5, 278400, Pitch_bend_c, 7, 8320
5, 278400, Pitch_bend_c, 7, 8192
5, 278400, Note_off_c, 7, 56, 95
5, 278400, Note_on_c, 7, 54, 95
5, 278560, Pitch_bend_c, 7, 8192
5, 278720, Pitch_bend_c, 7, 8320
5, 278880, Pitch_bend_c, 7, 8192
5, 279040, Pitch_bend_c, 7, 8320
5, 279200, Pitch_bend_c, 7, 8192
5, 279360, Pitch_bend_c, 7, 8320
5, 279520, Pitch_bend_c, 7, 8192
5, 279680, Pitch_bend_c, 7, 8320
5, 279840, Pitch_bend_c, 7, 8192
5, 280000, Pitch_bend_c, 7, 8320
5, 280160, Pitch_bend_c, 7, 8192
5, 280320, Pitch_bend_c, 7, 8320
5, 280320, Pitch_bend_c, 7, 8192
5, 280320, Note_off_c, 7, 54, 95
5, 280800, Note_on_c, 7, 54, 95
5, 280960, Pitch_bend_c, 7, 8192
5, 281120, Pitch_bend_c, 7, 8320
5, 281280, Pitch_bend_c, 7, 8192
5, 281280, Pitch_bend_c, 7, 8320
5, 281280, Pitch_bend_c, 7, 8192
5, 281280, Note_off_c, 7, 54, 95
5, 281280, Note_on_c, 7, 54, 95
5, 281440, Pitch_bend_c, 7, 8192
5, 281600, Pitch_bend_c, 7, 8320
5, 281760, Pitch_bend_c, 7, 8192
5, 281760, Pitch_bend_c, 7, 8320
5, 281760, Pitch_bend_c, 7, 8192
5, 281760, Note_off_c, 7, 54, 95
5, 281760, Note_on_c, 7, 56, 95
5, 281920, Pitch_bend_c, 7, 8192
5, 282080, Pitch_bend_c, 7, 8320
5, 282180, Note_on_c, 7, 55, 95
5, 282240, Pitch_bend_c, 7, 8192
5, 282240, Pitch_bend_c, 7, 8320
5, 282240, Pitch_bend_c, 7, 8192
5, 282240, Note_off_c, 7, 56, 95
5, 282240, Note_off_c, 7, 55, 95
5, 282240, Note_on_c, 7, 56, 95
5, 282400, Pitch_bend_c, 7, 8192
5, 282560, Pitch_bend_c, 7, 8320
5, 282720, Pitch_bend_c, 7, 8192
5, 282880, Pitch_bend_c, 7, 8320
5, 283040, Pitch_bend_c, 7, 8192
5, 283200, Pitch_bend_c, 7, 8320
5, 283360, Pitch_bend_c, 7, 8192
5, 283520, Pitch_bend_c, 7, 8320
5, 283680, Pitch_bend_c, 7, 8192
5, 283840, Pitch_bend_c, 7, 8320
5, 284000, Pitch_bend_c, 7, 8192
5, 284160, Pitch_bend_c, 7, 8320
5, 284160, Pitch_bend_c, 7, 8192
5, 284160, Note_off_c, 7, 56, 95
5, 345600, Note_on_c, 6, 64, 95
5, 345600, Note_on_c, 6, 59, 95
5, 345600, Note_on_c, 6, 56, 95
5, 345600, Note_on_c, 6, 52, 95
5, 345600, Note_on_c, 6, 47, 95
5, 345600, Note_on_c, 6, 40, 95
5, 349440, Note_off_c, 6, 64, 95
5, 349440, Note_off_c, 6, 59, 95
5, 349440, Note_off_c, 6, 56, 95
5, 349440, Note_off_c, 6, 52, 95
5, 349440, Note_off_c, 6, 47, 95
5, 349440, Note_off_c, 6, 40, 95
5, 349440, End_track
6, 0, Start_track
6, 0, Pitch_bend_c, 9, 8192
6, 0, Control_c, 9, 7, 79
6, 0, Control_c, 9, 10, 63
6, 0, Control_c, 9, 93, 0
6, 0, Control_c, 9, 91, 0
6, 0, Control_c, 9, 95, 0
6, 0, Control_c, 9, 92, 0
6, 0, Control_c, 9, 11, 127
6, 0, Program_c, 9, 0
6, 960, Note_on_c, 9, 44, 95
6, 1920, Note_off_c, 9, 44, 95
6, 4800, Note_on_c, 9, 44, 95
6, 5760, Note_off_c, 9, 44, 95
6, 8640, Note_on_c, 9, 44, 95
6, 9600, Note_off_c, 9, 44, 95
6, 12480, Note_on_c, 9, 44, 95
6, 13440, Note_off_c, 9, 44, 95
6, 16320, Note_on_c, 9, 44, 95
6, 17280, Note_off_c, 9, 44, 95
6, 20160, Note_on_c, 9, 44, 95
6, 21120, Note_off_c, 9, 44, 95
6, 24000, Note_on_c, 9, 44, 95
6, 24960, Note_off_c, 9, 44, 95
6, 27840, Note_on_c, 9, 44, 95
6, 28800, Note_off_c, 9, 44, 95
6, 31680, Note_on_c, 9, 44, 95
6, 32640, Note_off_c, 9, 44, 95
6, 35520, Note_on_c, 9, 44, 95
6, 36480, Note_off_c, 9, 44, 95
6, 39360, Note_on_c, 9, 44, 95
6, 40320, Note_off_c, 9, 44, 95
6, 43200, Note_on_c, 9, 44, 95
6, 44160, Note_off_c, 9, 44, 95
6, 47040, Note_on_c, 9, 44, 95
6, 48000, Note_off_c, 9, 44, 95
6, 50880, Note_on_c, 9, 44, 95
6, 51840, Note_off_c, 9, 44, 95
6, 54720, Note_on_c, 9, 44, 95
6, 55680, Note_off_c, 9, 44, 95
6, 58560, Note_on_c, 9, 44, 95
6, 59520, Note_off_c, 9, 44, 95
6, 62400, Note_on_c, 9, 44, 95
6, 63360, Note_off_c, 9, 44, 95
6, 66240, Note_on_c, 9, 44, 95
6, 67200, Note_off_c, 9, 44, 95
6, 70080, Note_on_c, 9, 44, 95
6, 71040, Note_off_c, 9, 44, 95
6, 73920, Note_on_c, 9, 44, 95
6, 74880, Note_off_c, 9, 44, 95
6, 77760, Note_on_c, 9, 44, 95
6, 78720, Note_off_c, 9, 44, 95
6, 112320, Note_on_c, 9, 44, 95
6, 113280, Note_off_c, 9, 44, 95
6, 116160, Note_on_c, 9, 44, 95
6, 117120, Note_off_c, 9, 44, 95
6, 120000, Note_on_c, 9, 44, 95
6, 120960, Note_off_c, 9, 44, 95
6, 123840, Note_on_c, 9, 44, 95
6, 124800, Note_off_c, 9, 44, 95
6, 127680, Note_on_c, 9, 44, 95
6, 128640, Note_off_c, 9, 44, 95
6, 131520, Note_on_c, 9, 44, 95
6, 132480, Note_off_c, 9, 44, 95
6, 135360, Note_on_c, 9, 44, 95
6, 136320, Note_off_c, 9, 44, 95
6, 139200, Note_on_c, 9, 44, 95
6, 140160, Note_off_c, 9, 44, 95
6, 143040, Note_on_c, 9, 44, 95
6, 144000, Note_off_c, 9, 44, 95
6, 146880, Note_on_c, 9, 44, 95
6, 147840, Note_off_c, 9, 44, 95
6, 150720, Note_on_c, 9, 44, 95
6, 151680, Note_off_c, 9, 44, 95
6, 154560, Note_on_c, 9, 44, 95
6, 155520, Note_off_c, 9, 44, 95
6, 158400, Note_on_c, 9, 44, 95
6, 159360, Note_off_c, 9, 44, 95
6, 192960, Note_on_c, 9, 44, 95
6, 193920, Note_off_c, 9, 44, 95
6, 196800, Note_on_c, 9, 44, 95
6, 197760, Note_off_c, 9, 44, 95
6, 200640, Note_on_c, 9, 44, 95
6, 201600, Note_off_c, 9, 44, 95
6, 204480, Note_on_c, 9, 44, 95
6, 205440, Note_off_c, 9, 44, 95
6, 208320, Note_on_c, 9, 44, 95
6, 209280, Note_off_c, 9, 44, 95
6, 212160, Note_on_c, 9, 44, 95
6, 213120, Note_off_c, 9, 44, 95
6, 216000, Note_on_c, 9, 44, 95
6, 216960, Note_off_c, 9, 44, 95
6, 219840, Note_on_c, 9, 44, 95
6, 220800, Note_off_c, 9, 44, 95
6, 254400, Note_on_c, 9, 44, 95
6, 255360, Note_off_c, 9, 44, 95
6, 258240, Note_on_c, 9, 44, 95
6, 259200, Note_off_c, 9, 44, 95
6, 262080, Note_on_c, 9, 44, 95
6, 263040, Note_off_c, 9, 44, 95
6, 265920, Note_on_c, 9, 44, 95
6, 266880, Note_off_c, 9, 44, 95
6, 269760, Note_on_c, 9, 44, 95
6, 270720, Note_off_c, 9, 44, 95
6, 273600, Note_on_c, 9, 44, 95
6, 274560, Note_off_c, 9, 44, 95
6, 277440, Note_on_c, 9, 44, 95
6, 278400, Note_off_c, 9, 44, 95
6, 281280, Note_on_c, 9, 44, 95
6, 282240, Note_off_c, 9, 44, 95
6, 285120, Note_on_c, 9, 44, 95
6, 286080, Note_off_c, 9, 44, 95
6, 288960, Note_on_c, 9, 44, 95
6, 289920, Note_off_c, 9, 44, 95
6, 292800, Note_on_c, 9, 44, 95
6, 293760, Note_off_c, 9, 44, 95
6, 296640, Note_on_c, 9, 44, 95
6, 297600, Note_off_c, 9, 44, 95
6, 300480, Note_on_c, 9, 44, 95
6, 301440, Note_off_c, 9, 44, 95
6, 304320, Note_on_c, 9, 44, 95
6, 305280, Note_off_c, 9, 44, 95
6, 308160, Note_on_c, 9, 44, 95
6, 309120, Note_off_c, 9, 44, 95
6, 312000, Note_on_c, 9, 44, 95
6, 312960, Note_off_c, 9, 44, 95
6, 315840, Note_on_c, 9, 44, 95
6, 316800, Note_off_c, 9, 44, 95
6, 319680, Note_on_c, 9, 44, 95
6, 320640, Note_off_c, 9, 44, 95
6, 323520, Note_on_c, 9, 44, 95
6, 324480, Note_off_c, 9, 44, 95
6, 327360, Note_on_c, 9, 44, 95
6, 328320, Note_off_c, 9, 44, 95
6, 331200, Note_on_c, 9, 44, 95
6, 332160, Note_off_c, 9, 44, 95
6, 335040, Note_on_c, 9, 44, 95
6, 336000, Note_off_c, 9, 44, 95
6, 338880, Note_on_c, 9, 44, 95
6, 339840, Note_off_c, 9, 44, 95
6, 342720, Note_on_c, 9, 44, 95
6, 343680, Note_off_c, 9, 44, 95
6, 343680, End_track
0, 0, End_of_file
