0, 0, Header, 0, 1, 120
1, 0, Start_track
1, 0, Sequencer_specific, 3, 0, 0, 65
1, 0, Time_signature, 4, 2, 24, 8
1, 0, Key_signature, 0, "major"
1, 0, Tempo, 566038
1, 0, Marker_t, "Vocals"
1, 0, Control_c, 0, 0, 5
1, 0, Control_c, 0, 32, 87
1, 0, Program_c, 0, 85
1, 0, Control_c, 0, 7, 115
1, 0, Control_c, 0, 64, 0
1, 0, Control_c, 9, 64, 0
1, 0, Control_c, 7, 0, 0
1, 0, Control_c, 7, 32, 40
1, 0, Program_c, 7, 30
1, 0, Control_c, 7, 7, 100
1, 0, Control_c, 7, 64, 0
1, 0, Control_c, 1, 7, 100
1, 0, Control_c, 1, 91, 127
1, 0, Control_c, 4, 64, 0
1, 0, Control_c, 2, 0, 1
1, 0, Control_c, 2, 32, 72
1, 0, Program_c, 2, 30
1, 0, Control_c, 2, 64, 0
1, 0, Control_c, 3, 0, 0
1, 0, Control_c, 3, 32, 0
1, 0, Program_c, 3, 50
1, 0, Control_c, 3, 7, 50
1, 0, Control_c, 3, 64, 0
1, 0, Control_c, 9, 7, 110
1, 0, Control_c, 1, 0, 1
1, 0, Control_c, 1, 32, 72
1, 0, Program_c, 1, 84
1, 0, Control_c, 4, 0, 0
1, 0, Control_c, 4, 32, 40
1, 0, Program_c, 4, 36
1, 0, Control_c, 4, 7, 85
1, 0, Control_c, 9, 64, 0
1, 0, Control_c, 9, 7, 100
1, 0, Control_c, 9, 64, 0
1, 240, Note_on_c, 9, 38, 119
1, 240, Note_on_c, 9, 65, 65
1, 280, Note_on_c, 9, 38, 0
1, 300, Note_on_c, 9, 38, 90
1, 310, Note_on_c, 9, 38, 0
1, 315, Note_on_c, 9, 38, 90
1, 320, Note_on_c, 9, 65, 0
1, 325, Note_on_c, 9, 38, 0
1, 330, Note_on_c, 9, 38, 120
1, 360, Note_on_c, 9, 65, 65
1, 360, Note_on_c, 9, 38, 120
1, 370, Note_on_c, 9, 38, 0
1, 440, Note_on_c, 9, 65, 0
1, 440, Note_on_c, 9, 38, 0
1, 480, Note_on_c, 3, 68, 100
1, 480, Note_on_c, 9, 36, 100
1, 480, Note_on_c, 9, 42, 50
1, 480, Note_on_c, 9, 57, 85
1, 480, Note_on_c, 7, 56, 100
1, 480, Note_on_c, 3, 61, 100
1, 480, Note_on_c, 4, 49, 100
1, 480, Note_on_c, 3, 59, 100
1, 480, Note_on_c, 7, 59, 100
1, 500, Note_on_c, 4, 49, 0
1, 508, Note_on_c, 9, 42, 0
1, 510, Note_on_c, 9, 42, 50
1, 510, Note_on_c, 4, 49, 100
1, 520, Note_on_c, 9, 36, 0
1, 538, Note_on_c, 9, 42, 0
1, 540, Note_on_c, 7, 59, 0
1, 540, Note_on_c, 7, 56, 0
1, 540, Note_on_c, 9, 42, 50
1, 560, Note_on_c, 9, 57, 0
1, 568, Note_on_c, 9, 42, 0
1, 570, Note_on_c, 7, 61, 100
1, 570, Note_on_c, 9, 36, 100
1, 570, Note_on_c, 7, 56, 100
1, 570, Note_on_c, 9, 42, 50
1, 598, Note_on_c, 9, 42, 0
1, 600, Note_on_c, 9, 42, 50
1, 600, Note_on_c, 9, 38, 110
1, 610, Note_on_c, 9, 36, 0
1, 628, Note_on_c, 9, 42, 0
1, 630, Note_on_c, 9, 42, 50
1, 650, Note_on_c, 4, 49, 0
1, 658, Note_on_c, 9, 42, 0
1, 660, Note_on_c, 9, 36, 100
1, 660, Note_on_c, 9, 42, 50
1, 660, Note_on_c, 4, 49, 100
1, 680, Note_on_c, 4, 49, 0
1, 680, Note_on_c, 9, 38, 0
1, 680, Note_on_c, 7, 61, 0
1, 680, Note_on_c, 7, 56, 0
1, 688, Note_on_c, 9, 42, 0
1, 690, Note_on_c, 9, 42, 50
1, 690, Note_on_c, 4, 49, 100
1, 700, Note_on_c, 9, 36, 0
1, 718, Note_on_c, 9, 42, 0
1, 720, Note_on_c, 9, 42, 50
1, 720, Note_on_c, 7, 59, 100
1, 720, Note_on_c, 7, 56, 100
1, 730, Note_on_c, 4, 49, 0
1, 748, Note_on_c, 9, 42, 0
1, 750, Note_on_c, 9, 42, 50
1, 750, Note_on_c, 4, 49, 100
1, 760, Note_on_c, 7, 59, 0
1, 760, Note_on_c, 7, 56, 0
1, 778, Note_on_c, 9, 42, 0
1, 780, Note_on_c, 9, 36, 100
1, 780, Note_on_c, 7, 56, 100
1, 780, Note_on_c, 7, 59, 100
1, 780, Note_on_c, 9, 42, 50
1, 790, Note_on_c, 4, 49, 0
1, 808, Note_on_c, 9, 42, 0
1, 810, Note_on_c, 4, 49, 100
1, 810, Note_on_c, 9, 42, 50
1, 820, Note_on_c, 7, 56, 0
1, 820, Note_on_c, 9, 36, 0
1, 820, Note_on_c, 7, 59, 0
1, 838, Note_on_c, 9, 42, 0
1, 840, Note_on_c, 9, 42, 50
1, 840, Note_on_c, 9, 38, 110
1, 840, Note_on_c, 7, 56, 100
1, 840, Note_on_c, 7, 61, 100
1, 868, Note_on_c, 9, 42, 0
1, 870, Note_on_c, 4, 49, 0
1, 870, Note_on_c, 9, 42, 50
1, 898, Note_on_c, 9, 42, 0
1, 900, Note_on_c, 9, 36, 100
1, 900, Note_on_c, 9, 42, 50
1, 900, Note_on_c, 4, 49, 100
1, 920, Note_on_c, 4, 49, 0
1, 920, Note_on_c, 9, 36, 0
1, 920, Note_on_c, 7, 61, 0
1, 920, Note_on_c, 9, 38, 0
1, 920, Note_on_c, 7, 56, 0
1, 928, Note_on_c, 9, 42, 0
1, 930, Note_on_c, 9, 42, 50
1, 930, Note_on_c, 4, 49, 100
1, 930, Note_on_c, 9, 36, 100
1, 950, Note_on_c, 9, 36, 0
1, 950, Note_on_c, 4, 49, 0
1, 958, Note_on_c, 3, 61, 0
1, 958, Note_on_c, 3, 59, 0
1, 958, Note_on_c, 3, 68, 0
1, 958, Note_on_c, 9, 42, 0
1, 960, Note_on_c, 4, 49, 100
1, 960, Note_on_c, 3, 61, 100
1, 960, Note_on_c, 9, 36, 100
1, 960, Note_on_c, 7, 56, 100
1, 960, Note_on_c, 9, 42, 50
1, 960, Note_on_c, 3, 59, 100
1, 960, Note_on_c, 3, 68, 100
1, 960, Note_on_c, 7, 59, 100
1, 980, Note_on_c, 4, 49, 0
1, 988, Note_on_c, 9, 42, 0
1, 990, Note_on_c, 4, 49, 100
1, 990, Note_on_c, 9, 42, 50
1, 1000, Note_on_c, 9, 36, 0
1, 1018, Note_on_c, 9, 42, 0
1, 1020, Note_on_c, 7, 59, 0
1, 1020, Note_on_c, 7, 56, 0
1, 1020, Note_on_c, 9, 42, 50
1, 1048, Note_on_c, 9, 42, 0
1, 1050, Note_on_c, 7, 61, 100
1, 1050, Note_on_c, 9, 42, 50
1, 1050, Note_on_c, 7, 56, 100
1, 1050, Note_on_c, 9, 36, 100
1, 1078, Note_on_c, 9, 42, 0
1, 1080, Note_on_c, 9, 42, 50
1, 1080, Note_on_c, 9, 38, 110
1, 1090, Note_on_c, 9, 36, 0
1, 1108, Note_on_c, 9, 42, 0
1, 1110, Note_on_c, 9, 42, 50
1, 1130, Note_on_c, 4, 49, 0
1, 1138, Note_on_c, 9, 42, 0
1, 1140, Note_on_c, 9, 42, 50
1, 1140, Note_on_c, 9, 36, 100
1, 1140, Note_on_c, 4, 49, 100
1, 1160, Note_on_c, 4, 49, 0
1, 1160, Note_on_c, 9, 38, 0
1, 1160, Note_on_c, 7, 61, 0
1, 1160, Note_on_c, 7, 56, 0
1, 1168, Note_on_c, 9, 42, 0
1, 1170, Note_on_c, 9, 42, 50
1, 1170, Note_on_c, 4, 49, 100
1, 1180, Note_on_c, 9, 36, 0
1, 1198, Note_on_c, 9, 42, 0
1, 1200, Note_on_c, 7, 56, 100
1, 1200, Note_on_c, 7, 59, 100
1, 1200, Note_on_c, 9, 42, 50
1, 1210, Note_on_c, 4, 49, 0
1, 1228, Note_on_c, 9, 42, 0
1, 1230, Note_on_c, 9, 42, 50
1, 1230, Note_on_c, 4, 49, 100
1, 1240, Note_on_c, 7, 56, 0
1, 1240, Note_on_c, 7, 59, 0
1, 1258, Note_on_c, 9, 42, 0
1, 1260, Note_on_c, 7, 56, 100
1, 1260, Note_on_c, 7, 59, 100
1, 1260, Note_on_c, 9, 36, 100
1, 1260, Note_on_c, 9, 42, 50
1, 1270, Note_on_c, 4, 49, 0
1, 1288, Note_on_c, 9, 42, 0
1, 1290, Note_on_c, 9, 42, 50
1, 1290, Note_on_c, 4, 49, 100
1, 1300, Note_on_c, 7, 59, 0
1, 1300, Note_on_c, 7, 56, 0
1, 1300, Note_on_c, 9, 36, 0
1, 1318, Note_on_c, 9, 42, 0
1, 1320, Note_on_c, 7, 56, 100
1, 1320, Note_on_c, 7, 61, 100
1, 1320, Note_on_c, 9, 42, 50
1, 1320, Note_on_c, 9, 38, 110
1, 1348, Note_on_c, 9, 42, 0
1, 1350, Note_on_c, 4, 49, 0
1, 1350, Note_on_c, 9, 42, 50
1, 1378, Note_on_c, 9, 42, 0
1, 1380, Note_on_c, 4, 49, 100
1, 1380, Note_on_c, 9, 36, 100
1, 1380, Note_on_c, 9, 42, 50
1, 1400, Note_on_c, 9, 36, 0
1, 1400, Note_on_c, 4, 49, 0
1, 1400, Note_on_c, 7, 56, 0
1, 1400, Note_on_c, 9, 38, 0
1, 1400, Note_on_c, 7, 61, 0
1, 1408, Note_on_c, 9, 42, 0
1, 1410, Note_on_c, 9, 36, 100
1, 1410, Note_on_c, 9, 42, 50
1, 1410, Note_on_c, 4, 49, 100
1, 1430, Note_on_c, 4, 49, 0
1, 1430, Note_on_c, 9, 36, 0
1, 1438, Note_on_c, 3, 61, 0
1, 1438, Note_on_c, 3, 59, 0
1, 1438, Note_on_c, 3, 68, 0
1, 1438, Note_on_c, 9, 42, 0
1, 1440, Note_on_c, 9, 36, 100
1, 1440, Note_on_c, 3, 68, 100
1, 1440, Note_on_c, 3, 61, 100
1, 1440, Note_on_c, 3, 59, 100
1, 1440, Note_on_c, 4, 49, 100
1, 1440, Note_on_c, 9, 42, 50
1, 1440, Note_on_c, 7, 56, 100
1, 1440, Note_on_c, 7, 59, 100
1, 1460, Note_on_c, 4, 49, 0
1, 1468, Note_on_c, 9, 42, 0
1, 1470, Note_on_c, 4, 49, 100
1, 1470, Note_on_c, 9, 42, 50
1, 1480, Note_on_c, 9, 36, 0
1, 1498, Note_on_c, 9, 42, 0
1, 1500, Note_on_c, 7, 59, 0
1, 1500, Note_on_c, 7, 56, 0
1, 1500, Note_on_c, 9, 42, 50
1, 1528, Note_on_c, 9, 42, 0
1, 1530, Note_on_c, 7, 61, 100
1, 1530, Note_on_c, 7, 56, 100
1, 1530, Note_on_c, 9, 42, 50
1, 1530, Note_on_c, 9, 36, 100
1, 1558, Note_on_c, 9, 42, 0
1, 1560, Note_on_c, 9, 42, 50
1, 1560, Note_on_c, 9, 38, 110
1, 1570, Note_on_c, 9, 36, 0
1, 1588, Note_on_c, 9, 42, 0
1, 1590, Note_on_c, 9, 42, 50
1, 1610, Note_on_c, 4, 49, 0
1, 1618, Note_on_c, 9, 42, 0
1, 1620, Note_on_c, 9, 42, 50
1, 1620, Note_on_c, 4, 49, 100
1, 1620, Note_on_c, 9, 36, 100
1, 1640, Note_on_c, 4, 49, 0
1, 1640, Note_on_c, 9, 38, 0
1, 1640, Note_on_c, 7, 61, 0
1, 1640, Note_on_c, 7, 56, 0
1, 1648, Note_on_c, 9, 42, 0
1, 1650, Note_on_c, 4, 49, 100
1, 1650, Note_on_c, 9, 42, 50
1, 1660, Note_on_c, 9, 36, 0
1, 1678, Note_on_c, 9, 42, 0
1, 1680, Note_on_c, 9, 42, 50
1, 1680, Note_on_c, 7, 59, 100
1, 1680, Note_on_c, 7, 56, 100
1, 1690, Note_on_c, 4, 49, 0
1, 1708, Note_on_c, 9, 42, 0
1, 1710, Note_on_c, 9, 42, 50
1, 1710, Note_on_c, 4, 49, 100
1, 1720, Note_on_c, 7, 59, 0
1, 1720, Note_on_c, 7, 56, 0
1, 1738, Note_on_c, 9, 42, 0
1, 1740, Note_on_c, 9, 42, 50
1, 1740, Note_on_c, 7, 56, 100
1, 1740, Note_on_c, 9, 36, 100
1, 1740, Note_on_c, 7, 59, 100
1, 1750, Note_on_c, 4, 49, 0
1, 1768, Note_on_c, 9, 42, 0
1, 1770, Note_on_c, 9, 42, 50
1, 1770, Note_on_c, 4, 49, 100
1, 1780, Note_on_c, 7, 56, 0
1, 1780, Note_on_c, 7, 59, 0
1, 1780, Note_on_c, 9, 36, 0
1, 1798, Note_on_c, 9, 42, 0
1, 1800, Note_on_c, 9, 38, 110
1, 1800, Note_on_c, 7, 61, 100
1, 1800, Note_on_c, 9, 42, 50
1, 1800, Note_on_c, 7, 56, 100
1, 1828, Note_on_c, 9, 42, 0
1, 1830, Note_on_c, 4, 49, 0
1, 1830, Note_on_c, 9, 42, 50
1, 1858, Note_on_c, 9, 42, 0
1, 1860, Note_on_c, 9, 36, 100
1, 1860, Note_on_c, 9, 42, 50
1, 1860, Note_on_c, 4, 49, 100
1, 1880, Note_on_c, 4, 49, 0
1, 1880, Note_on_c, 9, 36, 0
1, 1880, Note_on_c, 9, 38, 0
1, 1880, Note_on_c, 7, 56, 0
1, 1880, Note_on_c, 7, 61, 0
1, 1888, Note_on_c, 9, 42, 0
1, 1890, Note_on_c, 4, 49, 100
1, 1890, Note_on_c, 9, 42, 50
1, 1890, Note_on_c, 9, 36, 100
1, 1910, Note_on_c, 9, 36, 0
1, 1910, Note_on_c, 4, 49, 0
1, 1918, Note_on_c, 3, 68, 0
1, 1918, Note_on_c, 3, 61, 0
1, 1918, Note_on_c, 3, 59, 0
1, 1918, Note_on_c, 9, 42, 0
1, 1920, Note_on_c, 7, 54, 100
1, 1920, Note_on_c, 3, 66, 100
1, 1920, Note_on_c, 3, 61, 100
1, 1920, Note_on_c, 7, 61, 100
1, 1920, Note_on_c, 4, 46, 100
1, 1920, Note_on_c, 9, 57, 50
1, 1920, Note_on_c, 3, 54, 100
1, 1920, Note_on_c, 7, 66, 100
1, 1920, Note_on_c, 9, 36, 100
1, 1920, Note_on_c, 9, 42, 50
1, 1948, Note_on_c, 9, 42, 0
1, 1950, Note_on_c, 9, 42, 50
1, 1960, Note_on_c, 9, 36, 0
1, 1978, Note_on_c, 9, 42, 0
1, 1980, Note_on_c, 7, 61, 0
1, 1980, Note_on_c, 7, 54, 0
1, 1980, Note_on_c, 3, 66, 0
1, 1980, Note_on_c, 7, 66, 0
1, 1980, Note_on_c, 3, 61, 0
1, 1980, Note_on_c, 3, 54, 0
1, 1980, Note_on_c, 4, 46, 0
1, 1980, Note_on_c, 9, 42, 50
1, 2000, Note_on_c, 9, 57, 0
1, 2008, Note_on_c, 9, 42, 0
1, 2010, Note_on_c, 7, 64, 100
1, 2010, Note_on_c, 3, 61, 100
1, 2010, Note_on_c, 3, 54, 100
1, 2010, Note_on_c, 4, 47, 100
1, 2010, Note_on_c, 7, 61, 100
1, 2010, Note_on_c, 7, 54, 100
1, 2010, Note_on_c, 9, 36, 100
1, 2010, Note_on_c, 9, 42, 50
1, 2010, Note_on_c, 3, 64, 100
1, 2038, Note_on_c, 9, 42, 0
1, 2040, Note_on_c, 9, 42, 50
1, 2040, Note_on_c, 9, 38, 110
1, 2050, Note_on_c, 9, 36, 0
1, 2068, Note_on_c, 9, 42, 0
1, 2070, Note_on_c, 3, 64, 0
1, 2070, Note_on_c, 4, 47, 0
1, 2070, Note_on_c, 7, 61, 0
1, 2070, Note_on_c, 3, 61, 0
1, 2070, Note_on_c, 3, 54, 0
1, 2070, Note_on_c, 7, 64, 0
1, 2070, Note_on_c, 7, 54, 0
1, 2070, Note_on_c, 9, 42, 50
1, 2098, Note_on_c, 9, 42, 0
1, 2100, Note_on_c, 9, 42, 50
1, 2100, Note_on_c, 9, 36, 100
1, 2100, Note_on_c, 4, 49, 100
1, 2100, Note_on_c, 3, 61, 100
1, 2100, Note_on_c, 7, 61, 100
1, 2100, Note_on_c, 7, 56, 100
1, 2100, Note_on_c, 3, 56, 100
1, 2120, Note_on_c, 9, 38, 0
1, 2128, Note_on_c, 9, 42, 0
1, 2130, Note_on_c, 9, 42, 50
1, 2140, Note_on_c, 9, 36, 0
1, 2158, Note_on_c, 9, 42, 0
1, 2160, Note_on_c, 9, 42, 50
1, 2188, Note_on_c, 9, 42, 0
1, 2190, Note_on_c, 9, 42, 50
1, 2190, Note_on_c, 9, 38, 110
1, 2210, Note_on_c, 9, 38, 0
1, 2218, Note_on_c, 9, 42, 0
1, 2220, Note_on_c, 9, 42, 50
1, 2220, Note_on_c, 9, 36, 100
1, 2248, Note_on_c, 9, 42, 0
1, 2250, Note_on_c, 9, 42, 50
1, 2260, Note_on_c, 4, 49, 0
1, 2260, Note_on_c, 9, 36, 0
1, 2278, Note_on_c, 9, 42, 0
1, 2280, Note_on_c, 9, 42, 50
1, 2280, Note_on_c, 9, 38, 110
1, 2308, Note_on_c, 9, 42, 0
1, 2310, Note_on_c, 9, 42, 50
1, 2320, Note_on_c, 3, 61, 0
1, 2320, Note_on_c, 3, 56, 0
1, 2320, Note_on_c, 7, 61, 0
1, 2320, Note_on_c, 7, 56, 0
1, 2338, Note_on_c, 9, 42, 0
1, 2340, Note_on_c, 9, 36, 100
1, 2340, Note_on_c, 9, 42, 50
1, 2360, Note_on_c, 9, 36, 0
1, 2360, Note_on_c, 9, 38, 0
1, 2368, Note_on_c, 9, 42, 0
1, 2370, Note_on_c, 9, 42, 50
1, 2370, Note_on_c, 9, 36, 100
1, 2390, Note_on_c, 9, 36, 0
1, 2398, Note_on_c, 9, 42, 0
1, 2400, Note_on_c, 9, 42, 50
1, 2400, Note_on_c, 9, 36, 100
1, 2400, Note_on_c, 3, 68, 100
1, 2400, Note_on_c, 3, 61, 100
1, 2400, Note_on_c, 3, 59, 100
1, 2400, Note_on_c, 7, 59, 100
1, 2400, Note_on_c, 7, 56, 100
1, 2400, Note_on_c, 4, 49, 100
1, 2420, Note_on_c, 4, 49, 0
1, 2428, Note_on_c, 9, 42, 0
1, 2430, Note_on_c, 4, 49, 100
1, 2430, Note_on_c, 9, 42, 50
1, 2440, Note_on_c, 9, 36, 0
1, 2458, Note_on_c, 9, 42, 0
1, 2460, Note_on_c, 7, 59, 0
1, 2460, Note_on_c, 7, 56, 0
1, 2460, Note_on_c, 9, 42, 50
1, 2488, Note_on_c, 9, 42, 0
1, 2490, Note_on_c, 9, 42, 50
1, 2490, Note_on_c, 7, 56, 100
1, 2490, Note_on_c, 9, 36, 100
1, 2490, Note_on_c, 7, 61, 100
1, 2518, Note_on_c, 9, 42, 0
1, 2520, Note_on_c, 9, 38, 110
1, 2520, Note_on_c, 9, 42, 50
1, 2530, Note_on_c, 9, 36, 0
1, 2548, Note_on_c, 9, 42, 0
1, 2550, Note_on_c, 9, 42, 50
1, 2570, Note_on_c, 4, 49, 0
1, 2578, Note_on_c, 9, 42, 0
1, 2580, Note_on_c, 9, 42, 50
1, 2580, Note_on_c, 9, 36, 100
1, 2580, Note_on_c, 4, 49, 100
1, 2600, Note_on_c, 4, 49, 0
1, 2600, Note_on_c, 9, 38, 0
1, 2600, Note_on_c, 7, 61, 0
1, 2600, Note_on_c, 7, 56, 0
1, 2608, Note_on_c, 9, 42, 0
1, 2610, Note_on_c, 9, 42, 50
1, 2610, Note_on_c, 4, 49, 100
1, 2620, Note_on_c, 9, 36, 0
1, 2638, Note_on_c, 9, 42, 0
1, 2640, Note_on_c, 9, 42, 50
1, 2640, Note_on_c, 7, 59, 100
1, 2640, Note_on_c, 7, 56, 100
1, 2650, Note_on_c, 4, 49, 0
1, 2668, Note_on_c, 9, 42, 0
1, 2670, Note_on_c, 4, 49, 100
1, 2670, Note_on_c, 9, 42, 50
1, 2680, Note_on_c, 7, 59, 0
1, 2680, Note_on_c, 7, 56, 0
1, 2698, Note_on_c, 9, 42, 0
1, 2700, Note_on_c, 9, 36, 100
1, 2700, Note_on_c, 9, 42, 50
1, 2700, Note_on_c, 7, 56, 100
1, 2700, Note_on_c, 7, 59, 100
1, 2710, Note_on_c, 4, 49, 0
1, 2728, Note_on_c, 9, 42, 0
1, 2730, Note_on_c, 9, 42, 50
1, 2730, Note_on_c, 4, 49, 100
1, 2740, Note_on_c, 7, 59, 0
1, 2740, Note_on_c, 9, 36, 0
1, 2740, Note_on_c, 7, 56, 0
1, 2750, Note_on_c, 4, 49, 0
1, 2758, Note_on_c, 9, 42, 0
1, 2760, Note_on_c, 7, 56, 100
1, 2760, Note_on_c, 4, 37, 100
1, 2760, Note_on_c, 9, 38, 110
1, 2760, Note_on_c, 7, 61, 100
1, 2760, Note_on_c, 9, 42, 50
1, 2788, Note_on_c, 9, 42, 0
1, 2790, Note_on_c, 9, 42, 50
1, 2800, Note_on_c, 4, 37, 0
1, 2818, Note_on_c, 9, 42, 0
1, 2820, Note_on_c, 9, 42, 50
1, 2820, Note_on_c, 9, 36, 100
1, 2820, Note_on_c, 4, 37, 100
1, 2840, Note_on_c, 4, 37, 0
1, 2840, Note_on_c, 7, 56, 0
1, 2840, Note_on_c, 9, 36, 0
1, 2840, Note_on_c, 9, 38, 0
1, 2840, Note_on_c, 7, 61, 0
1, 2848, Note_on_c, 9, 42, 0
1, 2850, Note_on_c, 9, 36, 100
1, 2850, Note_on_c, 4, 49, 100
1, 2850, Note_on_c, 9, 42, 50
1, 2870, Note_on_c, 4, 49, 0
1, 2870, Note_on_c, 9, 36, 0
1, 2878, Note_on_c, 3, 68, 0
1, 2878, Note_on_c, 3, 61, 0
1, 2878, Note_on_c, 9, 42, 0
1, 2878, Note_on_c, 3, 59, 0
1, 2880, Note_on_c, 7, 56, 100
1, 2880, Note_on_c, 7, 59, 100
1, 2880, Note_on_c, 9, 36, 100
1, 2880, Note_on_c, 9, 42, 50
1, 2880, Note_on_c, 3, 68, 100
1, 2880, Note_on_c, 4, 49, 100
1, 2880, Note_on_c, 3, 59, 100
1, 2880, Note_on_c, 3, 61, 100
1, 2900, Note_on_c, 4, 49, 0
1, 2908, Note_on_c, 9, 42, 0
1, 2910, Note_on_c, 9, 42, 50
1, 2910, Note_on_c, 4, 49, 100
1, 2920, Note_on_c, 9, 36, 0
1, 2938, Note_on_c, 9, 42, 0
1, 2940, Note_on_c, 7, 56, 0
1, 2940, Note_on_c, 7, 59, 0
1, 2940, Note_on_c, 9, 42, 50
1, 2968, Note_on_c, 9, 42, 0
1, 2970, Note_on_c, 9, 42, 50
1, 2970, Note_on_c, 9, 36, 100
1, 2970, Note_on_c, 7, 56, 100
1, 2970, Note_on_c, 7, 61, 100
1, 2998, Note_on_c, 9, 42, 0
1, 3000, Note_on_c, 9, 38, 110
1, 3000, Note_on_c, 9, 42, 50
1, 3010, Note_on_c, 9, 36, 0
1, 3028, Note_on_c, 9, 42, 0
1, 3030, Note_on_c, 9, 42, 50
1, 3050, Note_on_c, 4, 49, 0
1, 3058, Note_on_c, 9, 42, 0
1, 3060, Note_on_c, 9, 42, 50
1, 3060, Note_on_c, 4, 49, 100
1, 3060, Note_on_c, 9, 36, 100
1, 3080, Note_on_c, 4, 49, 0
1, 3080, Note_on_c, 9, 38, 0
1, 3080, Note_on_c, 7, 61, 0
1, 3080, Note_on_c, 7, 56, 0
1, 3088, Note_on_c, 9, 42, 0
1, 3090, Note_on_c, 4, 49, 100
1, 3090, Note_on_c, 9, 42, 50
1, 3100, Note_on_c, 9, 36, 0
1, 3118, Note_on_c, 9, 42, 0
1, 3120, Note_on_c, 7, 56, 100
1, 3120, Note_on_c, 7, 59, 100
1, 3120, Note_on_c, 9, 42, 50
1, 3130, Note_on_c, 4, 49, 0
1, 3148, Note_on_c, 9, 42, 0
1, 3150, Note_on_c, 9, 42, 50
1, 3150, Note_on_c, 4, 49, 100
1, 3160, Note_on_c, 7, 56, 0
1, 3160, Note_on_c, 7, 59, 0
1, 3178, Note_on_c, 9, 42, 0
1, 3180, Note_on_c, 7, 59, 100
1, 3180, Note_on_c, 9, 42, 50
1, 3180, Note_on_c, 9, 36, 100
1, 3180, Note_on_c, 7, 56, 100
1, 3190, Note_on_c, 4, 49, 0
1, 3208, Note_on_c, 9, 42, 0
1, 3210, Note_on_c, 9, 42, 50
1, 3210, Note_on_c, 4, 49, 100
1, 3220, Note_on_c, 7, 56, 0
1, 3220, Note_on_c, 7, 59, 0
1, 3220, Note_on_c, 9, 36, 0
1, 3230, Note_on_c, 4, 49, 0
1, 3238, Note_on_c, 9, 42, 0
1, 3240, Note_on_c, 7, 61, 100
1, 3240, Note_on_c, 7, 56, 100
1, 3240, Note_on_c, 9, 38, 110
1, 3240, Note_on_c, 4, 37, 100
1, 3240, Note_on_c, 9, 42, 50
1, 3268, Note_on_c, 9, 42, 0
1, 3270, Note_on_c, 9, 42, 50
1, 3280, Note_on_c, 4, 37, 0
1, 3298, Note_on_c, 9, 42, 0
1, 3300, Note_on_c, 9, 36, 100
1, 3300, Note_on_c, 9, 42, 50
1, 3300, Note_on_c, 4, 37, 100
1, 3320, Note_on_c, 4, 37, 0
1, 3320, Note_on_c, 9, 36, 0
1, 3320, Note_on_c, 7, 61, 0
1, 3320, Note_on_c, 9, 38, 0
1, 3320, Note_on_c, 7, 56, 0
1, 3328, Note_on_c, 9, 42, 0
1, 3330, Note_on_c, 9, 36, 100
1, 3330, Note_on_c, 4, 49, 100
1, 3330, Note_on_c, 9, 42, 50
1, 3350, Note_on_c, 4, 49, 0
1, 3350, Note_on_c, 9, 36, 0
1, 3358, Note_on_c, 3, 68, 0
1, 3358, Note_on_c, 3, 59, 0
1, 3358, Note_on_c, 9, 42, 0
1, 3358, Note_on_c, 3, 61, 0
1, 3360, Note_on_c, 3, 59, 100
1, 3360, Note_on_c, 9, 42, 50
1, 3360, Note_on_c, 3, 61, 100
1, 3360, Note_on_c, 7, 59, 100
1, 3360, Note_on_c, 7, 56, 100
1, 3360, Note_on_c, 9, 36, 100
1, 3360, Note_on_c, 3, 68, 100
1, 3360, Note_on_c, 4, 49, 100
1, 3380, Note_on_c, 4, 49, 0
1, 3388, Note_on_c, 9, 42, 0
1, 3390, Note_on_c, 9, 42, 50
1, 3390, Note_on_c, 4, 49, 100
1, 3400, Note_on_c, 9, 36, 0
1, 3418, Note_on_c, 9, 42, 0
1, 3420, Note_on_c, 7, 56, 0
1, 3420, Note_on_c, 7, 59, 0
1, 3420, Note_on_c, 9, 42, 50
1, 3448, Note_on_c, 9, 42, 0
1, 3450, Note_on_c, 9, 42, 50
1, 3450, Note_on_c, 9, 36, 100
1, 3450, Note_on_c, 7, 56, 100
1, 3450, Note_on_c, 7, 61, 100
1, 3478, Note_on_c, 9, 42, 0
1, 3480, Note_on_c, 9, 42, 50
1, 3480, Note_on_c, 9, 38, 110
1, 3490, Note_on_c, 9, 36, 0
1, 3508, Note_on_c, 9, 42, 0
1, 3510, Note_on_c, 9, 42, 50
1, 3530, Note_on_c, 4, 49, 0
1, 3538, Note_on_c, 9, 42, 0
1, 3540, Note_on_c, 9, 36, 100
1, 3540, Note_on_c, 9, 42, 50
1, 3540, Note_on_c, 4, 49, 100
1, 3560, Note_on_c, 4, 49, 0
1, 3560, Note_on_c, 9, 38, 0
1, 3560, Note_on_c, 7, 61, 0
1, 3560, Note_on_c, 7, 56, 0
1, 3568, Note_on_c, 9, 42, 0
1, 3570, Note_on_c, 4, 49, 100
1, 3570, Note_on_c, 9, 42, 50
1, 3580, Note_on_c, 9, 36, 0
1, 3598, Note_on_c, 9, 42, 0
1, 3600, Note_on_c, 9, 42, 50
1, 3600, Note_on_c, 7, 59, 100
1, 3600, Note_on_c, 7, 56, 100
1, 3610, Note_on_c, 4, 49, 0
1, 3628, Note_on_c, 9, 42, 0
1, 3630, Note_on_c, 9, 42, 50
1, 3630, Note_on_c, 4, 49, 100
1, 3630, Note_on_c, 9, 38, 110
1, 3640, Note_on_c, 7, 59, 0
1, 3640, Note_on_c, 7, 56, 0
1, 3650, Note_on_c, 9, 38, 0
1, 3658, Note_on_c, 9, 42, 0
1, 3660, Note_on_c, 7, 59, 100
1, 3660, Note_on_c, 7, 56, 100
1, 3660, Note_on_c, 9, 42, 50
1, 3660, Note_on_c, 9, 36, 100
1, 3670, Note_on_c, 4, 49, 0
1, 3688, Note_on_c, 9, 42, 0
1, 3690, Note_on_c, 9, 42, 50
1, 3690, Note_on_c, 4, 49, 100
1, 3700, Note_on_c, 9, 36, 0
1, 3700, Note_on_c, 7, 59, 0
1, 3700, Note_on_c, 7, 56, 0
1, 3710, Note_on_c, 4, 49, 0
1, 3718, Note_on_c, 9, 42, 0
1, 3720, Note_on_c, 9, 38, 110
1, 3720, Note_on_c, 7, 61, 100
1, 3720, Note_on_c, 7, 56, 100
1, 3720, Note_on_c, 4, 37, 100
1, 3720, Note_on_c, 9, 42, 50
1, 3748, Note_on_c, 9, 42, 0
1, 3750, Note_on_c, 9, 42, 50
1, 3760, Note_on_c, 4, 37, 0
1, 3778, Note_on_c, 9, 42, 0
1, 3780, Note_on_c, 9, 42, 50
1, 3780, Note_on_c, 9, 36, 100
1, 3780, Note_on_c, 4, 37, 100
1, 3800, Note_on_c, 4, 37, 0
1, 3800, Note_on_c, 9, 38, 0
1, 3800, Note_on_c, 9, 36, 0
1, 3800, Note_on_c, 7, 61, 0
1, 3800, Note_on_c, 7, 56, 0
1, 3808, Note_on_c, 9, 42, 0
1, 3810, Note_on_c, 9, 36, 100
1, 3810, Note_on_c, 4, 49, 100
1, 3810, Note_on_c, 9, 42, 50
1, 3830, Note_on_c, 4, 49, 0
1, 3830, Note_on_c, 9, 36, 0
1, 3838, Note_on_c, 3, 61, 0
1, 3838, Note_on_c, 3, 68, 0
1, 3838, Note_on_c, 9, 42, 0
1, 3838, Note_on_c, 3, 59, 0
1, 3840, Note_on_c, 7, 66, 100
1, 3840, Note_on_c, 4, 46, 100
1, 3840, Note_on_c, 7, 61, 100
1, 3840, Note_on_c, 9, 36, 100
1, 3840, Note_on_c, 9, 42, 50
1, 3840, Note_on_c, 9, 57, 50
1, 3840, Note_on_c, 7, 54, 100
1, 3840, Note_on_c, 3, 66, 100
1, 3840, Note_on_c, 3, 54, 100
1, 3840, Note_on_c, 3, 61, 100
1, 3868, Note_on_c, 9, 42, 0
1, 3870, Note_on_c, 9, 42, 50
1, 3880, Note_on_c, 9, 36, 0
1, 3898, Note_on_c, 9, 42, 0
1, 3900, Note_on_c, 3, 66, 0
1, 3900, Note_on_c, 7, 66, 0
1, 3900, Note_on_c, 4, 46, 0
1, 3900, Note_on_c, 3, 61, 0
1, 3900, Note_on_c, 7, 61, 0
1, 3900, Note_on_c, 3, 54, 0
1, 3900, Note_on_c, 7, 54, 0
1, 3900, Note_on_c, 9, 42, 50
1, 3920, Note_on_c, 9, 57, 0
1, 3928, Note_on_c, 9, 42, 0
1, 3930, Note_on_c, 7, 61, 100
1, 3930, Note_on_c, 7, 54, 100
1, 3930, Note_on_c, 9, 42, 50
1, 3930, Note_on_c, 3, 64, 100
1, 3930, Note_on_c, 3, 61, 100
1, 3930, Note_on_c, 3, 54, 100
1, 3930, Note_on_c, 9, 36, 100
1, 3930, Note_on_c, 7, 64, 100
1, 3930, Note_on_c, 4, 47, 100
1, 3958, Note_on_c, 9, 42, 0
1, 3960, Note_on_c, 9, 42, 50
1, 3960, Note_on_c, 9, 38, 110
1, 3970, Note_on_c, 9, 36, 0
1, 3988, Note_on_c, 9, 42, 0
1, 3990, Note_on_c, 7, 64, 0
1, 3990, Note_on_c, 4, 47, 0
1, 3990, Note_on_c, 3, 54, 0
1, 3990, Note_on_c, 7, 54, 0
1, 3990, Note_on_c, 3, 64, 0
1, 3990, Note_on_c, 7, 61, 0
1, 3990, Note_on_c, 3, 61, 0
1, 3990, Note_on_c, 9, 42, 50
1, 4018, Note_on_c, 9, 42, 0
1, 4020, Note_on_c, 9, 42, 50
1, 4020, Note_on_c, 9, 36, 100
1, 4020, Note_on_c, 3, 61, 100
1, 4020, Note_on_c, 3, 56, 100
1, 4020, Note_on_c, 7, 61, 100
1, 4020, Note_on_c, 7, 56, 100
1, 4020, Note_on_c, 4, 49, 100
1, 4040, Note_on_c, 9, 38, 0
1, 4048, Note_on_c, 9, 42, 0
1, 4050, Note_on_c, 9, 42, 50
1, 4060, Note_on_c, 9, 36, 0
1, 4078, Note_on_c, 9, 42, 0
1, 4080, Note_on_c, 9, 42, 50
1, 4108, Note_on_c, 9, 42, 0
1, 4110, Note_on_c, 9, 42, 50
1, 4138, Note_on_c, 9, 42, 0
1, 4140, Note_on_c, 9, 42, 50
1, 4140, Note_on_c, 9, 36, 100
1, 4140, Note_on_c, 9, 47, 100
1, 4168, Note_on_c, 9, 42, 0
1, 4170, Note_on_c, 9, 42, 50
1, 4180, Note_on_c, 9, 47, 0
1, 4180, Note_on_c, 9, 36, 0
1, 4180, Note_on_c, 4, 49, 0
1, 4198, Note_on_c, 9, 42, 0
1, 4200, Note_on_c, 9, 45, 100
1, 4200, Note_on_c, 9, 42, 50
1, 4228, Note_on_c, 9, 42, 0
1, 4230, Note_on_c, 9, 42, 50
1, 4230, Note_on_c, 4, 49, 100
1, 4240, Note_on_c, 7, 61, 0
1, 4240, Note_on_c, 3, 56, 0
1, 4240, Note_on_c, 3, 61, 0
1, 4240, Note_on_c, 7, 56, 0
1, 4240, Note_on_c, 9, 45, 0
1, 4250, Note_on_c, 4, 49, 0
1, 4258, Note_on_c, 9, 42, 0
1, 4260, Note_on_c, 4, 44, 100
1, 4260, Note_on_c, 9, 42, 50
1, 4260, Note_on_c, 9, 43, 100
1, 4260, Note_on_c, 9, 36, 100
1, 4280, Note_on_c, 9, 36, 0
1, 4280, Note_on_c, 4, 44, 0
1, 4288, Note_on_c, 9, 42, 0
1, 4290, Note_on_c, 4, 46, 100
1, 4290, Note_on_c, 9, 42, 50
1, 4290, Note_on_c, 9, 36, 100
1, 4300, Note_on_c, 9, 43, 0
1, 4310, Note_on_c, 4, 46, 0
1, 4310, Note_on_c, 9, 36, 0
1, 4318, Note_on_c, 9, 42, 0
1, 4320, Note_on_c, 3, 56, 100
1, 4320, Note_on_c, 9, 36, 100
1, 4320, Note_on_c, 3, 61, 100
1, 4320, Note_on_c, 4, 37, 100
1, 4320, Note_on_c, 9, 42, 50
1, 4320, Note_on_c, 7, 61, 100
1, 4320, Note_on_c, 7, 56, 100
1, 4320, Control_c, 7, 7, 80
1, 4348, Note_on_c, 9, 42, 0
1, 4350, Note_on_c, 9, 42, 50
1, 4360, Note_on_c, 9, 36, 0
1, 4378, Note_on_c, 9, 42, 0
1, 4380, Note_on_c, 7, 61, 0
1, 4380, Note_on_c, 4, 37, 0
1, 4380, Note_on_c, 7, 56, 0
1, 4380, Note_on_c, 9, 42, 50
1, 4380, Note_on_c, 0, 68, 100
1, 4408, Note_on_c, 9, 42, 0
1, 4410, Note_on_c, 9, 36, 100
1, 4410, Note_on_c, 4, 49, 100
1, 4410, Note_on_c, 9, 42, 50
1, 4410, Note_on_c, 7, 61, 100
1, 4410, Note_on_c, 7, 56, 100
1, 4438, Note_on_c, 9, 42, 0
1, 4440, Note_on_c, 0, 68, 0
1, 4440, Note_on_c, 9, 38, 110
1, 4440, Note_on_c, 9, 42, 50
1, 4450, Note_on_c, 9, 36, 0
1, 4468, Note_on_c, 9, 42, 0
1, 4470, Note_on_c, 7, 56, 0
1, 4470, Note_on_c, 4, 49, 0
1, 4470, Note_on_c, 7, 61, 0
1, 4470, Note_on_c, 0, 71, 100
1, 4470, Note_on_c, 9, 42, 50
1, 4498, Note_on_c, 9, 42, 0
1, 4500, Note_on_c, 7, 61, 100
1, 4500, Note_on_c, 4, 37, 100
1, 4500, Note_on_c, 7, 56, 100
1, 4500, Note_on_c, 9, 42, 50
1, 4500, Note_on_c, 9, 36, 100
1, 4520, Note_on_c, 9, 38, 0
1, 4528, Note_on_c, 9, 42, 0
1, 4530, Note_on_c, 0, 71, 0
1, 4530, Note_on_c, 9, 42, 50
1, 4540, Note_on_c, 9, 36, 0
1, 4558, Note_on_c, 9, 42, 0
1, 4560, Note_on_c, 4, 37, 0
1, 4560, Note_on_c, 9, 42, 50
1, 4560, Note_on_c, 0, 73, 100
1, 4580, Note_on_c, 7, 61, 0
1, 4580, Note_on_c, 7, 56, 0
1, 4588, Note_on_c, 9, 42, 0
1, 4590, Note_on_c, 4, 37, 100
1, 4590, Note_on_c, 9, 42, 50
1, 4610, Note_on_c, 4, 37, 0
1, 4618, Note_on_c, 9, 42, 0
1, 4620, Note_on_c, 4, 37, 100
1, 4620, Note_on_c, 9, 42, 50
1, 4620, Note_on_c, 7, 61, 100
1, 4620, Note_on_c, 7, 56, 100
1, 4620, Note_on_c, 9, 36, 100
1, 4640, Note_on_c, 0, 73, 0
1, 4648, Note_on_c, 9, 42, 0
1, 4650, Note_on_c, 9, 42, 50
1, 4660, Note_on_c, 9, 36, 0
1, 4660, Note_on_c, 4, 37, 0
1, 4678, Note_on_c, 9, 42, 0
1, 4680, Note_on_c, 4, 37, 100
1, 4680, Note_on_c, 9, 42, 50
1, 4680, Note_on_c, 9, 38, 110
1, 4708, Note_on_c, 9, 42, 0
1, 4710, Note_on_c, 0, 71, 100
1, 4710, Note_on_c, 9, 42, 50
1, 4720, Note_on_c, 4, 37, 0
1, 4730, Note_on_c, 0, 71, 0
1, 4738, Note_on_c, 9, 42, 0
1, 4740, Note_on_c, 7, 61, 0
1, 4740, Note_on_c, 7, 56, 0
1, 4740, Note_on_c, 9, 42, 50
1, 4740, Note_on_c, 0, 71, 100
1, 4740, Note_on_c, 9, 36, 100
1, 4740, Note_on_c, 4, 46, 100
1, 4760, Note_on_c, 4, 46, 0
1, 4760, Note_on_c, 9, 38, 0
1, 4760, Note_on_c, 9, 36, 0
1, 4768, Note_on_c, 9, 42, 0
1, 4770, Note_on_c, 4, 49, 100
1, 4770, Note_on_c, 9, 36, 100
1, 4770, Note_on_c, 9, 42, 50
1, 4790, Note_on_c, 9, 36, 0
1, 4790, Note_on_c, 4, 49, 0
1, 4798, Note_on_c, 3, 61, 0
1, 4798, Note_on_c, 3, 56, 0
1, 4798, Note_on_c, 9, 42, 0
1, 4800, Note_on_c, 9, 42, 50
1, 4800, Note_on_c, 4, 42, 100
1, 4800, Note_on_c, 7, 54, 100
1, 4800, Note_on_c, 3, 54, 100
1, 4800, Note_on_c, 7, 61, 100
1, 4800, Note_on_c, 9, 36, 100
1, 4800, Note_on_c, 3, 61, 100
1, 4828, Note_on_c, 9, 42, 0
1, 4830, Note_on_c, 9, 42, 50
1, 4840, Note_on_c, 0, 71, 0
1, 4840, Note_on_c, 9, 36, 0
1, 4858, Note_on_c, 9, 42, 0
1, 4860, Note_on_c, 7, 61, 0
1, 4860, Note_on_c, 7, 54, 0
1, 4860, Note_on_c, 4, 42, 0
1, 4860, Note_on_c, 9, 42, 50
1, 4860, Note_on_c, 0, 71, 100
1, 4888, Note_on_c, 9, 42, 0
1, 4890, Note_on_c, 4, 49, 100
1, 4890, Note_on_c, 7, 61, 100
1, 4890, Note_on_c, 9, 42, 50
1, 4890, Note_on_c, 7, 54, 100
1, 4890, Note_on_c, 9, 36, 100
1, 4900, Note_on_c, 0, 71, 0
1, 4918, Note_on_c, 9, 42, 0
1, 4920, Note_on_c, 9, 38, 110
1, 4920, Note_on_c, 9, 42, 50
1, 4920, Note_on_c, 0, 71, 100
1, 4930, Note_on_c, 9, 36, 0
1, 4948, Note_on_c, 9, 42, 0
1, 4950, Note_on_c, 7, 61, 0
1, 4950, Note_on_c, 4, 49, 0
1, 4950, Note_on_c, 7, 54, 0
1, 4950, Note_on_c, 9, 42, 50
1, 4978, Note_on_c, 9, 42, 0
1, 4980, Note_on_c, 3, 61, 100
1, 4980, Note_on_c, 3, 56, 100
1, 4980, Note_on_c, 7, 61, 100
1, 4980, Note_on_c, 9, 42, 50
1, 4980, Note_on_c, 7, 56, 100
1, 4980, Note_on_c, 9, 36, 100
1, 4980, Note_on_c, 4, 37, 100
1, 5000, Note_on_c, 0, 71, 0
1, 5000, Note_on_c, 9, 38, 0
1, 5008, Note_on_c, 9, 42, 0
1, 5010, Note_on_c, 9, 42, 50
1, 5020, Note_on_c, 9, 36, 0
1, 5038, Note_on_c, 9, 42, 0
1, 5038, Note_on_c, 3, 61, 0
1, 5038, Note_on_c, 3, 54, 0
1, 5040, Note_on_c, 4, 37, 0
1, 5040, Note_on_c, 9, 42, 50
1, 5040, Note_on_c, 0, 73, 100
1, 5060, Note_on_c, 7, 56, 0
1, 5060, Note_on_c, 7, 61, 0
1, 5068, Note_on_c, 9, 42, 0
1, 5070, Note_on_c, 4, 37, 100
1, 5070, Note_on_c, 9, 42, 50
1, 5090, Note_on_c, 4, 37, 0
1, 5098, Note_on_c, 9, 42, 0
1, 5100, Note_on_c, 7, 56, 100
1, 5100, Note_on_c, 7, 61, 100
1, 5100, Note_on_c, 4, 37, 100
1, 5100, Note_on_c, 9, 42, 50
1, 5100, Note_on_c, 9, 36, 100
1, 5120, Note_on_c, 0, 73, 0
1, 5128, Note_on_c, 9, 42, 0
1, 5130, Note_on_c, 9, 42, 50
1, 5140, Note_on_c, 9, 36, 0
1, 5140, Note_on_c, 4, 37, 0
1, 5158, Note_on_c, 9, 42, 0
1, 5160, Note_on_c, 9, 38, 110
1, 5160, Note_on_c, 4, 37, 100
1, 5160, Note_on_c, 9, 42, 50
1, 5188, Note_on_c, 9, 42, 0
1, 5190, Note_on_c, 9, 42, 50
1, 5200, Note_on_c, 4, 37, 0
1, 5218, Note_on_c, 9, 42, 0
1, 5220, Note_on_c, 7, 61, 0
1, 5220, Note_on_c, 7, 56, 0
1, 5220, Note_on_c, 4, 40, 100
1, 5220, Note_on_c, 9, 42, 50
1, 5220, Note_on_c, 9, 36, 100
1, 5240, Note_on_c, 9, 36, 0
1, 5240, Note_on_c, 9, 38, 0
1, 5240, Note_on_c, 4, 40, 0
1, 5248, Note_on_c, 9, 42, 0
1, 5250, Note_on_c, 9, 36, 100
1, 5250, Note_on_c, 4, 41, 100
1, 5250, Note_on_c, 9, 42, 50
1, 5270, Note_on_c, 4, 41, 0
1, 5270, Note_on_c, 9, 36, 0
1, 5278, Note_on_c, 3, 56, 0
1, 5278, Note_on_c, 3, 61, 0
1, 5278, Note_on_c, 9, 42, 0
1, 5280, Note_on_c, 7, 61, 100
1, 5280, Note_on_c, 3, 61, 100
1, 5280, Note_on_c, 9, 36, 100
1, 5280, Note_on_c, 0, 76, 100
1, 5280, Note_on_c, 7, 56, 100
1, 5280, Note_on_c, 9, 42, 50
1, 5280, Note_on_c, 4, 37, 100
1, 5280, Note_on_c, 3, 56, 100
1, 5308, Note_on_c, 9, 42, 0
1, 5310, Note_on_c, 9, 42, 50
1, 5320, Note_on_c, 9, 36, 0
1, 5320, Note_on_c, 0, 76, 0
1, 5338, Note_on_c, 9, 42, 0
1, 5340, Note_on_c, 4, 37, 0
1, 5340, Note_on_c, 7, 56, 0
1, 5340, Note_on_c, 7, 61, 0
1, 5340, Note_on_c, 9, 42, 50
1, 5340, Note_on_c, 0, 76, 100
1, 5360, Note_on_c, 0, 76, 0
1, 5368, Note_on_c, 9, 42, 0
1, 5370, Note_on_c, 7, 56, 100
1, 5370, Note_on_c, 9, 42, 50
1, 5370, Note_on_c, 4, 49, 100
1, 5370, Note_on_c, 9, 36, 100
1, 5370, Note_on_c, 7, 61, 100
1, 5370, Note_on_c, 0, 76, 100
1, 5398, Note_on_c, 9, 42, 0
1, 5400, Note_on_c, 9, 38, 110
1, 5400, Note_on_c, 9, 42, 50
1, 5410, Note_on_c, 9, 36, 0
1, 5428, Note_on_c, 9, 42, 0
1, 5430, Note_on_c, 4, 49, 0
1, 5430, Note_on_c, 0, 76, 0
1, 5430, Note_on_c, 7, 56, 0
1, 5430, Note_on_c, 7, 61, 0
1, 5430, Note_on_c, 9, 42, 50
1, 5458, Note_on_c, 9, 42, 0
1, 5460, Note_on_c, 4, 37, 100
1, 5460, Note_on_c, 7, 61, 100
1, 5460, Note_on_c, 9, 42, 50
1, 5460, Note_on_c, 7, 56, 100
1, 5460, Note_on_c, 9, 36, 100
1, 5460, Note_on_c, 0, 73, 100
1, 5480, Note_on_c, 0, 73, 0
1, 5480, Note_on_c, 9, 38, 0
1, 5488, Note_on_c, 9, 42, 0
1, 5490, Note_on_c, 0, 71, 100
1, 5490, Note_on_c, 9, 42, 50
1, 5500, Note_on_c, 9, 36, 0
1, 5510, Note_on_c, 0, 71, 0
1, 5518, Note_on_c, 9, 42, 0
1, 5520, Note_on_c, 4, 37, 0
1, 5520, Note_on_c, 9, 42, 50
1, 5520, Note_on_c, 0, 73, 100
1, 5540, Note_on_c, 7, 61, 0
1, 5540, Note_on_c, 7, 56, 0
1, 5548, Note_on_c, 9, 42, 0
1, 5550, Note_on_c, 4, 37, 100
1, 5550, Note_on_c, 9, 42, 50
1, 5560, Note_on_c, 0, 73, 0
1, 5570, Note_on_c, 4, 37, 0
1, 5578, Note_on_c, 9, 42, 0
1, 5580, Note_on_c, 0, 73, 100
1, 5580, Note_on_c, 4, 37, 100
1, 5580, Note_on_c, 9, 42, 50
1, 5580, Note_on_c, 7, 56, 100
1, 5580, Note_on_c, 9, 36, 100
1, 5580, Note_on_c, 7, 61, 100
1, 5608, Note_on_c, 9, 42, 0
1, 5610, Note_on_c, 9, 42, 50
1, 5620, Note_on_c, 4, 37, 0
1, 5620, Note_on_c, 9, 36, 0
1, 5638, Note_on_c, 9, 42, 0
1, 5640, Note_on_c, 9, 38, 110
1, 5640, Note_on_c, 4, 37, 100
1, 5640, Note_on_c, 9, 42, 50
1, 5660, Note_on_c, 0, 73, 0
1, 5668, Note_on_c, 9, 42, 0
1, 5670, Note_on_c, 9, 42, 50
1, 5680, Note_on_c, 4, 37, 0
1, 5698, Note_on_c, 9, 42, 0
1, 5700, Note_on_c, 7, 56, 0
1, 5700, Note_on_c, 7, 61, 0
1, 5700, Note_on_c, 9, 42, 50
1, 5700, Note_on_c, 4, 37, 100
1, 5700, Note_on_c, 9, 36, 100
1, 5700, Note_on_c, 0, 70, 100
1, 5720, Note_on_c, 9, 36, 0
1, 5720, Note_on_c, 9, 38, 0
1, 5728, Note_on_c, 9, 42, 0
1, 5730, Note_on_c, 9, 42, 50
1, 5730, Note_on_c, 9, 36, 100
1, 5740, Note_on_c, 4, 37, 0
1, 5740, Note_on_c, 0, 70, 0
1, 5750, Note_on_c, 9, 36, 0
1, 5758, Note_on_c, 3, 56, 0
1, 5758, Note_on_c, 3, 61, 0
1, 5758, Note_on_c, 9, 42, 0
1, 5760, Note_on_c, 7, 61, 100
1, 5760, Note_on_c, 7, 66, 100
1, 5760, Note_on_c, 7, 54, 100
1, 5760, Note_on_c, 0, 73, 100
1, 5760, Note_on_c, 4, 42, 100
1, 5760, Note_on_c, 9, 36, 100
1, 5760, Note_on_c, 3, 61, 100
1, 5760, Note_on_c, 3, 54, 100
1, 5760, Note_on_c, 9, 42, 50
1, 5788, Note_on_c, 9, 42, 0
1, 5790, Note_on_c, 9, 42, 50
1, 5800, Note_on_c, 9, 36, 0
1, 5818, Note_on_c, 9, 42, 0
1, 5820, Note_on_c, 7, 54, 0
1, 5820, Note_on_c, 7, 61, 0
1, 5820, Note_on_c, 7, 66, 0
1, 5820, Note_on_c, 4, 42, 0
1, 5820, Note_on_c, 9, 42, 50
1, 5840, Note_on_c, 0, 73, 0
1, 5848, Note_on_c, 9, 42, 0
1, 5850, Note_on_c, 4, 46, 100
1, 5850, Note_on_c, 9, 42, 50
1, 5850, Note_on_c, 9, 36, 100
1, 5850, Note_on_c, 7, 54, 100
1, 5850, Note_on_c, 7, 64, 100
1, 5850, Note_on_c, 7, 61, 100
1, 5870, Note_on_c, 4, 46, 0
1, 5878, Note_on_c, 9, 42, 0
1, 5880, Note_on_c, 9, 42, 50
1, 5880, Note_on_c, 4, 47, 100
1, 5880, Note_on_c, 9, 38, 110
1, 5890, Note_on_c, 9, 36, 0
1, 5900, Note_on_c, 4, 47, 0
1, 5908, Note_on_c, 9, 42, 0
1, 5910, Note_on_c, 7, 54, 0
1, 5910, Note_on_c, 7, 61, 0
1, 5910, Note_on_c, 7, 64, 0
1, 5910, Note_on_c, 9, 42, 50
1, 5910, Note_on_c, 4, 48, 100
1, 5930, Note_on_c, 4, 48, 0
1, 5938, Note_on_c, 9, 42, 0
1, 5940, Note_on_c, 9, 36, 100
1, 5940, Note_on_c, 3, 61, 100
1, 5940, Note_on_c, 3, 56, 100
1, 5940, Note_on_c, 7, 56, 100
1, 5940, Note_on_c, 7, 61, 100
1, 5940, Note_on_c, 9, 42, 50
1, 5940, Note_on_c, 4, 49, 100
1, 5960, Note_on_c, 9, 38, 0
1, 5968, Note_on_c, 9, 42, 0
1, 5970, Note_on_c, 9, 42, 50
1, 5980, Note_on_c, 9, 36, 0
1, 5998, Note_on_c, 9, 42, 0
1, 5998, Note_on_c, 3, 54, 0
1, 5998, Note_on_c, 3, 61, 0
1, 6000, Note_on_c, 4, 49, 0
1, 6000, Note_on_c, 9, 42, 50
1, 6028, Note_on_c, 9, 42, 0
1, 6030, Note_on_c, 9, 42, 50
1, 6030, Note_on_c, 9, 38, 110
1, 6030, Note_on_c, 4, 37, 100
1, 6050, Note_on_c, 4, 37, 0
1, 6050, Note_on_c, 9, 38, 0
1, 6058, Note_on_c, 9, 42, 0
1, 6060, Note_on_c, 9, 36, 100
1, 6060, Note_on_c, 4, 37, 100
1, 6060, Note_on_c, 9, 42, 50
1, 6088, Note_on_c, 9, 42, 0
1, 6090, Note_on_c, 9, 42, 50
1, 6100, Note_on_c, 9, 36, 0
1, 6100, Note_on_c, 4, 37, 0
1, 6118, Note_on_c, 9, 42, 0
1, 6120, Note_on_c, 9, 38, 110
1, 6120, Note_on_c, 4, 37, 100
1, 6120, Note_on_c, 9, 42, 50
1, 6148, Note_on_c, 9, 42, 0
1, 6150, Note_on_c, 9, 42, 50
1, 6160, Note_on_c, 7, 61, 0
1, 6160, Note_on_c, 4, 37, 0
1, 6160, Note_on_c, 7, 56, 0
1, 6178, Note_on_c, 9, 42, 0
1, 6180, Note_on_c, 9, 42, 50
1, 6180, Note_on_c, 9, 36, 100
1, 6180, Note_on_c, 4, 44, 100
1, 6200, Note_on_c, 4, 44, 0
1, 6200, Note_on_c, 9, 38, 0
1, 6200, Note_on_c, 9, 36, 0
1, 6208, Note_on_c, 9, 42, 0
1, 6210, Note_on_c, 9, 42, 50
1, 6210, Note_on_c, 9, 36, 100
1, 6210, Note_on_c, 4, 46, 100
1, 6230, Note_on_c, 4, 46, 0
1, 6230, Note_on_c, 9, 36, 0
1, 6238, Note_on_c, 3, 56, 0
1, 6238, Note_on_c, 3, 61, 0
1, 6238, Note_on_c, 9, 42, 0
1, 6240, Note_on_c, 4, 37, 100
1, 6240, Note_on_c, 9, 36, 100
1, 6240, Note_on_c, 7, 61, 100
1, 6240, Note_on_c, 9, 42, 50
1, 6240, Note_on_c, 3, 56, 100
1, 6240, Note_on_c, 3, 61, 100
1, 6240, Note_on_c, 7, 56, 100
1, 6268, Note_on_c, 9, 42, 0
1, 6270, Note_on_c, 9, 42, 50
1, 6280, Note_on_c, 9, 36, 0
1, 6298, Note_on_c, 9, 42, 0
1, 6300, Note_on_c, 7, 61, 0
1, 6300, Note_on_c, 4, 37, 0
1, 6300, Note_on_c, 7, 56, 0
1, 6300, Note_on_c, 9, 42, 50
1, 6300, Note_on_c, 0, 68, 100
1, 6328, Note_on_c, 9, 42, 0
1, 6330, Note_on_c, 9, 36, 100
1, 6330, Note_on_c, 4, 49, 100
1, 6330, Note_on_c, 9, 42, 50
1, 6330, Note_on_c, 7, 56, 100
1, 6330, Note_on_c, 7, 61, 100
1, 6358, Note_on_c, 9, 42, 0
1, 6360, Note_on_c, 0, 68, 0
1, 6360, Note_on_c, 9, 42, 50
1, 6360, Note_on_c, 9, 38, 110
1, 6370, Note_on_c, 9, 36, 0
1, 6388, Note_on_c, 9, 42, 0
1, 6390, Note_on_c, 7, 61, 0
1, 6390, Note_on_c, 4, 49, 0
1, 6390, Note_on_c, 7, 56, 0
1, 6390, Note_on_c, 9, 42, 50
1, 6390, Note_on_c, 0, 71, 100
1, 6418, Note_on_c, 9, 42, 0
1, 6420, Note_on_c, 9, 36, 100
1, 6420, Note_on_c, 7, 56, 100
1, 6420, Note_on_c, 9, 42, 50
1, 6420, Note_on_c, 4, 37, 100
1, 6420, Note_on_c, 7, 61, 100
1, 6440, Note_on_c, 9, 38, 0
1, 6448, Note_on_c, 9, 42, 0
1, 6450, Note_on_c, 0, 71, 0
1, 6450, Note_on_c, 9, 42, 50
1, 6460, Note_on_c, 9, 36, 0
1, 6478, Note_on_c, 9, 42, 0
1, 6480, Note_on_c, 4, 37, 0
1, 6480, Note_on_c, 0, 73, 100
1, 6480, Note_on_c, 9, 42, 50
1, 6500, Note_on_c, 7, 56, 0
1, 6500, Note_on_c, 7, 61, 0
1, 6508, Note_on_c, 9, 42, 0
1, 6510, Note_on_c, 9, 42, 50
1, 6510, Note_on_c, 4, 37, 100
1, 6530, Note_on_c, 4, 37, 0
1, 6538, Note_on_c, 9, 42, 0
1, 6540, Note_on_c, 9, 36, 100
1, 6540, Note_on_c, 7, 56, 100
1, 6540, Note_on_c, 4, 37, 100
1, 6540, Note_on_c, 9, 42, 50
1, 6540, Note_on_c, 7, 61, 100
1, 6560, Note_on_c, 0, 73, 0
1, 6568, Note_on_c, 9, 42, 0
1, 6570, Note_on_c, 9, 42, 50
1, 6580, Note_on_c, 9, 36, 0
1, 6580, Note_on_c, 4, 37, 0
1, 6598, Note_on_c, 9, 42, 0
1, 6600, Note_on_c, 4, 37, 100
1, 6600, Note_on_c, 9, 42, 50
1, 6600, Note_on_c, 9, 38, 110
1, 6628, Note_on_c, 9, 42, 0
1, 6630, Note_on_c, 9, 42, 50
1, 6640, Note_on_c, 4, 37, 0
1, 6658, Note_on_c, 9, 42, 0
1, 6660, Note_on_c, 7, 56, 0
1, 6660, Note_on_c, 7, 61, 0
1, 6660, Note_on_c, 4, 37, 100
1, 6660, Note_on_c, 0, 71, 100
1, 6660, Note_on_c, 9, 42, 50
1, 6660, Note_on_c, 9, 36, 100
1, 6680, Note_on_c, 9, 36, 0
1, 6680, Note_on_c, 9, 38, 0
1, 6680, Note_on_c, 4, 37, 0
1, 6688, Note_on_c, 9, 42, 0
1, 6690, Note_on_c, 9, 42, 50
1, 6690, Note_on_c, 9, 36, 100
1, 6690, Note_on_c, 4, 41, 100
1, 6710, Note_on_c, 4, 41, 0
1, 6710, Note_on_c, 9, 36, 0
1, 6718, Note_on_c, 3, 61, 0
1, 6718, Note_on_c, 9, 42, 0
1, 6718, Note_on_c, 3, 56, 0
1, 6720, Note_on_c, 9, 36, 100
1, 6720, Note_on_c, 7, 61, 100
1, 6720, Note_on_c, 3, 54, 100
1, 6720, Note_on_c, 3, 61, 100
1, 6720, Note_on_c, 7, 54, 100
1, 6720, Note_on_c, 4, 42, 100
1, 6720, Note_on_c, 9, 42, 50
1, 6748, Note_on_c, 9, 42, 0
1, 6750, Note_on_c, 9, 42, 50
1, 6760, Note_on_c, 9, 36, 0
1, 6760, Note_on_c, 0, 71, 0
1, 6778, Note_on_c, 9, 42, 0
1, 6780, Note_on_c, 7, 61, 0
1, 6780, Note_on_c, 7, 54, 0
1, 6780, Note_on_c, 4, 42, 0
1, 6780, Note_on_c, 9, 42, 50
1, 6780, Note_on_c, 0, 71, 100
1, 6808, Note_on_c, 9, 42, 0
1, 6810, Note_on_c, 9, 36, 100
1, 6810, Note_on_c, 9, 42, 50
1, 6810, Note_on_c, 4, 46, 100
1, 6810, Note_on_c, 7, 61, 100
1, 6810, Note_on_c, 7, 54, 100
1, 6820, Note_on_c, 0, 71, 0
1, 6838, Note_on_c, 9, 42, 0
1, 6840, Note_on_c, 9, 38, 110
1, 6840, Note_on_c, 9, 42, 50
1, 6840, Note_on_c, 0, 71, 100
1, 6850, Note_on_c, 9, 36, 0
1, 6868, Note_on_c, 9, 42, 0
1, 6870, Note_on_c, 4, 46, 0
1, 6870, Note_on_c, 7, 54, 0
1, 6870, Note_on_c, 7, 61, 0
1, 6870, Note_on_c, 9, 42, 50
1, 6898, Note_on_c, 9, 42, 0
1, 6900, Note_on_c, 9, 36, 100
1, 6900, Note_on_c, 7, 56, 100
1, 6900, Note_on_c, 3, 61, 100
1, 6900, Note_on_c, 9, 42, 50
1, 6900, Note_on_c, 7, 61, 100
1, 6900, Note_on_c, 4, 49, 100
1, 6900, Note_on_c, 3, 56, 100
1, 6920, Note_on_c, 0, 71, 0
1, 6920, Note_on_c, 9, 38, 0
1, 6928, Note_on_c, 9, 42, 0
1, 6930, Note_on_c, 9, 42, 50
1, 6940, Note_on_c, 9, 36, 0
1, 6958, Note_on_c, 9, 42, 0
1, 6958, Note_on_c, 3, 61, 0
1, 6958, Note_on_c, 3, 54, 0
1, 6960, Note_on_c, 4, 49, 0
1, 6960, Note_on_c, 0, 73, 100
1, 6960, Note_on_c, 9, 42, 50
1, 6980, Note_on_c, 7, 61, 0
1, 6980, Note_on_c, 7, 56, 0
1, 6988, Note_on_c, 9, 42, 0
1, 6990, Note_on_c, 4, 49, 100
1, 6990, Note_on_c, 9, 42, 50
1, 7010, Note_on_c, 4, 49, 0
1, 7018, Note_on_c, 9, 42, 0
1, 7020, Note_on_c, 7, 61, 100
1, 7020, Note_on_c, 9, 42, 50
1, 7020, Note_on_c, 4, 49, 100
1, 7020, Note_on_c, 9, 36, 100
1, 7020, Note_on_c, 7, 56, 100
1, 7040, Note_on_c, 0, 73, 0
1, 7048, Note_on_c, 9, 42, 0
1, 7050, Note_on_c, 9, 42, 50
1, 7060, Note_on_c, 4, 49, 0
1, 7060, Note_on_c, 9, 36, 0
1, 7078, Note_on_c, 9, 42, 0
1, 7080, Note_on_c, 4, 49, 100
1, 7080, Note_on_c, 9, 42, 50
1, 7080, Note_on_c, 9, 38, 110
1, 7108, Note_on_c, 9, 42, 0
1, 7110, Note_on_c, 9, 42, 50
1, 7120, Note_on_c, 4, 49, 0
1, 7138, Note_on_c, 9, 42, 0
1, 7140, Note_on_c, 7, 61, 0
1, 7140, Note_on_c, 7, 56, 0
1, 7140, Note_on_c, 9, 36, 100
1, 7140, Note_on_c, 9, 42, 50
1, 7140, Note_on_c, 4, 52, 100
1, 7160, Note_on_c, 4, 52, 0
1, 7160, Note_on_c, 9, 38, 0
1, 7160, Note_on_c, 9, 36, 0
1, 7168, Note_on_c, 9, 42, 0
1, 7170, Note_on_c, 4, 53, 100
1, 7170, Note_on_c, 9, 36, 100
1, 7170, Note_on_c, 9, 42, 50
1, 7190, Note_on_c, 9, 36, 0
1, 7190, Note_on_c, 4, 53, 0
1, 7198, Note_on_c, 3, 56, 0
1, 7198, Note_on_c, 3, 61, 0
1, 7198, Note_on_c, 9, 42, 0
1, 7198, Control_c, 7, 7, 90
1, 7200, Note_on_c, 9, 42, 50
1, 7200, Note_on_c, 9, 36, 100
1, 7200, Note_on_c, 4, 37, 100
1, 7200, Note_on_c, 0, 76, 100
1, 7200, Note_on_c, 3, 56, 100
1, 7200, Note_on_c, 3, 61, 100
1, 7200, Note_on_c, 7, 56, 100
1, 7200, Note_on_c, 7, 61, 100
1, 7228, Note_on_c, 9, 42, 0
1, 7230, Note_on_c, 9, 42, 50
1, 7240, Note_on_c, 0, 76, 0
1, 7240, Note_on_c, 9, 36, 0
1, 7258, Note_on_c, 9, 42, 0
1, 7260, Note_on_c, 4, 37, 0
1, 7260, Note_on_c, 7, 61, 0
1, 7260, Note_on_c, 7, 56, 0
1, 7260, Note_on_c, 0, 76, 100
1, 7260, Note_on_c, 9, 42, 50
1, 7280, Note_on_c, 0, 76, 0
1, 7288, Note_on_c, 9, 42, 0
1, 7290, Note_on_c, 7, 61, 100
1, 7290, Note_on_c, 9, 42, 50
1, 7290, Note_on_c, 4, 49, 100
1, 7290, Note_on_c, 9, 36, 100
1, 7290, Note_on_c, 0, 76, 100
1, 7290, Note_on_c, 7, 56, 100
1, 7318, Note_on_c, 9, 42, 0
1, 7320, Note_on_c, 9, 38, 110
1, 7320, Note_on_c, 9, 42, 50
1, 7330, Note_on_c, 0, 76, 0
1, 7330, Note_on_c, 9, 36, 0
1, 7348, Note_on_c, 9, 42, 0
1, 7350, Note_on_c, 7, 56, 0
1, 7350, Note_on_c, 7, 61, 0
1, 7350, Note_on_c, 4, 49, 0
1, 7350, Note_on_c, 0, 73, 100
1, 7350, Note_on_c, 9, 42, 50
1, 7370, Note_on_c, 0, 73, 0
1, 7378, Note_on_c, 9, 42, 0
1, 7380, Note_on_c, 9, 42, 50
1, 7380, Note_on_c, 9, 36, 100
1, 7380, Note_on_c, 0, 73, 100
1, 7380, Note_on_c, 4, 37, 100
1, 7380, Note_on_c, 7, 61, 100
1, 7380, Note_on_c, 7, 56, 100
1, 7400, Note_on_c, 0, 73, 0
1, 7400, Note_on_c, 9, 38, 0
1, 7408, Note_on_c, 9, 42, 0
1, 7410, Note_on_c, 0, 71, 100
1, 7410, Note_on_c, 9, 42, 50
1, 7420, Note_on_c, 9, 36, 0
1, 7430, Note_on_c, 0, 71, 0
1, 7438, Note_on_c, 9, 42, 0
1, 7440, Note_on_c, 4, 37, 0
1, 7440, Note_on_c, 0, 73, 100
1, 7440, Note_on_c, 9, 42, 50
1, 7460, Note_on_c, 0, 73, 0
1, 7460, Note_on_c, 7, 56, 0
1, 7460, Note_on_c, 7, 61, 0
1, 7468, Note_on_c, 9, 42, 0
1, 7470, Note_on_c, 4, 37, 100
1, 7470, Note_on_c, 9, 42, 50
1, 7470, Note_on_c, 0, 73, 100
1, 7490, Note_on_c, 0, 73, 0
1, 7490, Note_on_c, 4, 37, 0
1, 7498, Note_on_c, 9, 42, 0
1, 7500, Note_on_c, 7, 56, 100
1, 7500, Note_on_c, 7, 61, 100
1, 7500, Note_on_c, 4, 37, 100
1, 7500, Note_on_c, 9, 42, 50
1, 7500, Note_on_c, 0, 73, 100
1, 7500, Note_on_c, 9, 36, 100
1, 7528, Note_on_c, 9, 42, 0
1, 7530, Note_on_c, 9, 42, 50
1, 7540, Note_on_c, 9, 36, 0
1, 7540, Note_on_c, 4, 37, 0
1, 7558, Note_on_c, 9, 42, 0
1, 7560, Note_on_c, 4, 37, 100
1, 7560, Note_on_c, 9, 38, 110
1, 7560, Note_on_c, 9, 42, 50
1, 7580, Note_on_c, 0, 73, 0
1, 7588, Note_on_c, 9, 42, 0
1, 7590, Note_on_c, 9, 42, 50
1, 7600, Note_on_c, 4, 37, 0
1, 7618, Note_on_c, 9, 42, 0
1, 7620, Note_on_c, 7, 61, 0
1, 7620, Note_on_c, 7, 56, 0
1, 7620, Note_on_c, 9, 42, 50
1, 7620, Note_on_c, 9, 36, 100
1, 7620, Note_on_c, 0, 70, 100
1, 7620, Note_on_c, 4, 41, 100
1, 7640, Note_on_c, 9, 36, 0
1, 7640, Note_on_c, 9, 38, 0
1, 7648, Note_on_c, 9, 42, 0
1, 7650, Note_on_c, 9, 42, 50
1, 7650, Note_on_c, 9, 36, 100
1, 7660, Note_on_c, 0, 70, 0
1, 7660, Note_on_c, 4, 41, 0
1, 7670, Note_on_c, 9, 36, 0
1, 7678, Note_on_c, 3, 61, 0
1, 7678, Note_on_c, 3, 56, 0
1, 7678, Note_on_c, 9, 42, 0
1, 7680, Note_on_c, 9, 36, 100
1, 7680, Note_on_c, 0, 73, 100
1, 7680, Note_on_c, 7, 61, 100
1, 7680, Note_on_c, 7, 66, 100
1, 7680, Note_on_c, 9, 42, 50
1, 7680, Note_on_c, 3, 61, 100
1, 7680, Note_on_c, 3, 54, 100
1, 7680, Note_on_c, 7, 54, 100
1, 7680, Note_on_c, 4, 42, 100
1, 7708, Note_on_c, 9, 42, 0
1, 7710, Note_on_c, 9, 42, 50
1, 7720, Note_on_c, 9, 36, 0
1, 7738, Note_on_c, 9, 42, 0
1, 7740, Note_on_c, 4, 42, 0
1, 7740, Note_on_c, 7, 54, 0
1, 7740, Note_on_c, 7, 66, 0
1, 7740, Note_on_c, 7, 61, 0
1, 7740, Note_on_c, 9, 42, 50
1, 7760, Note_on_c, 0, 73, 0
1, 7768, Note_on_c, 9, 42, 0
1, 7770, Note_on_c, 7, 64, 100
1, 7770, Note_on_c, 7, 61, 100
1, 7770, Note_on_c, 9, 42, 50
1, 7770, Note_on_c, 7, 54, 100
1, 7770, Note_on_c, 9, 36, 100
1, 7770, Note_on_c, 4, 46, 100
1, 7790, Note_on_c, 4, 46, 0
1, 7798, Note_on_c, 9, 42, 0
1, 7800, Note_on_c, 9, 42, 50
1, 7800, Note_on_c, 9, 38, 110
1, 7800, Note_on_c, 4, 47, 100
1, 7810, Note_on_c, 9, 36, 0
1, 7820, Note_on_c, 4, 47, 0
1, 7828, Note_on_c, 9, 42, 0
1, 7830, Note_on_c, 7, 61, 0
1, 7830, Note_on_c, 7, 64, 0
1, 7830, Note_on_c, 7, 54, 0
1, 7830, Note_on_c, 4, 48, 100
1, 7830, Note_on_c, 9, 42, 50
1, 7850, Note_on_c, 4, 48, 0
1, 7858, Note_on_c, 9, 42, 0
1, 7860, Note_on_c, 7, 61, 100
1, 7860, Note_on_c, 3, 61, 100
1, 7860, Note_on_c, 3, 56, 100
1, 7860, Note_on_c, 4, 49, 100
1, 7860, Note_on_c, 7, 56, 100
1, 7860, Note_on_c, 9, 42, 50
1, 7860, Note_on_c, 9, 36, 100
1, 7880, Note_on_c, 9, 38, 0
1, 7888, Note_on_c, 9, 42, 0
1, 7890, Note_on_c, 9, 42, 50
1, 7900, Note_on_c, 9, 36, 0
1, 7918, Note_on_c, 9, 42, 0
1, 7918, Note_on_c, 3, 61, 0
1, 7918, Note_on_c, 3, 54, 0
1, 7920, Note_on_c, 4, 49, 0
1, 7920, Note_on_c, 9, 42, 50
1, 7948, Note_on_c, 9, 42, 0
1, 7950, Note_on_c, 9, 38, 110
1, 7950, Note_on_c, 4, 37, 100
1, 7950, Note_on_c, 9, 42, 50
1, 7970, Note_on_c, 4, 37, 0
1, 7970, Note_on_c, 9, 38, 0
1, 7978, Note_on_c, 9, 42, 0
1, 7980, Note_on_c, 9, 42, 50
1, 7980, Note_on_c, 9, 36, 100
1, 7980, Note_on_c, 4, 37, 100
1, 7980, Note_on_c, 9, 38, 110
1, 8008, Note_on_c, 9, 42, 0
1, 8010, Note_on_c, 9, 42, 50
1, 8020, Note_on_c, 9, 38, 0
1, 8020, Note_on_c, 4, 37, 0
1, 8020, Note_on_c, 9, 36, 0
1, 8038, Note_on_c, 9, 42, 0
1, 8040, Note_on_c, 9, 38, 110
1, 8040, Note_on_c, 9, 42, 50
1, 8040, Note_on_c, 4, 37, 100
1, 8068, Note_on_c, 9, 42, 0
1, 8070, Note_on_c, 9, 42, 50
1, 8070, Note_on_c, 9, 38, 110
1, 8080, Note_on_c, 9, 38, 0
1, 8080, Note_on_c, 7, 61, 0
1, 8080, Note_on_c, 7, 56, 0
1, 8090, Note_on_c, 9, 38, 0
1, 8098, Note_on_c, 9, 42, 0
1, 8100, Note_on_c, 9, 36, 100
1, 8100, Note_on_c, 9, 42, 50
1, 8100, Note_on_c, 9, 38, 110
1, 8120, Note_on_c, 9, 36, 0
1, 8120, Note_on_c, 4, 37, 0
1, 8128, Note_on_c, 9, 42, 0
1, 8130, Note_on_c, 9, 42, 50
1, 8140, Note_on_c, 9, 38, 0
1, 8158, Note_on_c, 3, 56, 0
1, 8158, Note_on_c, 3, 61, 0
1, 8158, Note_on_c, 9, 42, 0
1, 8160, Note_on_c, 0, 75, 100
1, 8160, Note_on_c, 3, 63, 100
1, 8160, Note_on_c, 9, 36, 100
1, 8160, Note_on_c, 3, 66, 100
1, 8160, Note_on_c, 3, 60, 100
1, 8160, Note_on_c, 9, 42, 50
1, 8160, Note_on_c, 7, 66, 100
1, 8160, Note_on_c, 4, 44, 100
1, 8188, Note_on_c, 9, 42, 0
1, 8190, Note_on_c, 9, 42, 50
1, 8200, Note_on_c, 7, 66, 0
1, 8200, Note_on_c, 0, 75, 0
1, 8200, Note_on_c, 9, 36, 0
1, 8218, Note_on_c, 9, 42, 0
1, 8220, Note_on_c, 4, 44, 0
1, 8220, Note_on_c, 7, 71, 100
1, 8220, Note_on_c, 9, 42, 50
1, 8220, Note_on_c, 0, 75, 100
1, 8240, Note_on_c, 0, 75, 0
1, 8248, Note_on_c, 9, 42, 0
1, 8250, Note_on_c, 9, 36, 100
1, 8250, Note_on_c, 0, 75, 100
1, 8250, Note_on_c, 9, 42, 50
1, 8250, Note_on_c, 4, 44, 100
1, 8260, Note_on_c, 7, 71, 0
1, 8278, Note_on_c, 9, 42, 0
1, 8280, Note_on_c, 9, 38, 110
1, 8280, Note_on_c, 7, 70, 100
1, 8280, Note_on_c, 9, 42, 50
1, 8290, Note_on_c, 9, 36, 0
1, 8300, Note_on_c, 7, 70, 0
1, 8308, Note_on_c, 9, 42, 0
1, 8310, Note_on_c, 4, 44, 0
1, 8310, Note_on_c, 0, 75, 0
1, 8310, Note_on_c, 7, 66, 100
1, 8310, Note_on_c, 9, 42, 50
1, 8330, Note_on_c, 7, 66, 0
1, 8338, Note_on_c, 3, 60, 0
1, 8338, Note_on_c, 3, 66, 0
1, 8338, Note_on_c, 3, 63, 0
1, 8338, Note_on_c, 9, 42, 0
1, 8340, Note_on_c, 9, 42, 50
1, 8340, Note_on_c, 9, 36, 100
1, 8340, Note_on_c, 0, 76, 100
1, 8340, Note_on_c, 3, 61, 100
1, 8340, Note_on_c, 4, 47, 100
1, 8340, Note_on_c, 3, 63, 100
1, 8340, Note_on_c, 3, 66, 100
1, 8340, Note_on_c, 7, 61, 100
1, 8360, Note_on_c, 9, 38, 0
1, 8368, Note_on_c, 9, 42, 0
1, 8370, Note_on_c, 9, 42, 50
1, 8380, Note_on_c, 0, 76, 0
1, 8380, Note_on_c, 7, 61, 0
1, 8380, Note_on_c, 9, 36, 0
1, 8398, Note_on_c, 9, 42, 0
1, 8400, Note_on_c, 9, 42, 50
1, 8400, Note_on_c, 0, 73, 100
1, 8400, Note_on_c, 7, 70, 100
1, 8420, Note_on_c, 4, 47, 0
1, 8428, Note_on_c, 9, 42, 0
1, 8430, Note_on_c, 9, 42, 50
1, 8440, Note_on_c, 7, 70, 0
1, 8458, Note_on_c, 9, 42, 0
1, 8460, Note_on_c, 7, 66, 100
1, 8460, Note_on_c, 9, 42, 50
1, 8460, Note_on_c, 4, 47, 100
1, 8460, Note_on_c, 9, 36, 100
1, 8480, Note_on_c, 7, 66, 0
1, 8480, Note_on_c, 0, 73, 0
1, 8488, Note_on_c, 9, 42, 0
1, 8490, Note_on_c, 9, 42, 50
1, 8490, Note_on_c, 7, 61, 100
1, 8500, Note_on_c, 9, 36, 0
1, 8518, Note_on_c, 9, 42, 0
1, 8520, Note_on_c, 4, 47, 0
1, 8520, Note_on_c, 9, 38, 110
1, 8520, Note_on_c, 9, 42, 50
1, 8548, Note_on_c, 9, 42, 0
1, 8550, Note_on_c, 7, 61, 0
1, 8550, Note_on_c, 4, 47, 100
1, 8550, Note_on_c, 9, 42, 50
1, 8578, Note_on_c, 9, 42, 0
1, 8580, Note_on_c, 9, 42, 50
1, 8580, Note_on_c, 9, 36, 100
1, 8580, Note_on_c, 7, 70, 100
1, 8600, Note_on_c, 7, 70, 0
1, 8600, Note_on_c, 9, 36, 0
1, 8600, Note_on_c, 9, 38, 0
1, 8608, Note_on_c, 9, 42, 0
1, 8610, Note_on_c, 4, 47, 0
1, 8610, Note_on_c, 9, 36, 100
1, 8610, Note_on_c, 9, 42, 50
1, 8610, Note_on_c, 7, 68, 100
1, 8627, Note_on_c, 3, 66, 0
1, 8627, Note_on_c, 3, 61, 0
1, 8627, Note_on_c, 3, 63, 0
1, 8630, Note_on_c, 9, 36, 0
1, 8638, Note_on_c, 9, 42, 0
1, 8640, Note_on_c, 4, 40, 100
1, 8640, Note_on_c, 3, 68, 100
1, 8640, Note_on_c, 9, 42, 50
1, 8640, Note_on_c, 3, 70, 100
1, 8640, Note_on_c, 9, 36, 100
1, 8640, Note_on_c, 0, 70, 100
1, 8640, Note_on_c, 3, 66, 100
1, 8668, Note_on_c, 9, 42, 0
1, 8670, Note_on_c, 9, 42, 50
1, 8680, Note_on_c, 0, 70, 0
1, 8680, Note_on_c, 9, 36, 0
1, 8690, Note_on_c, 7, 68, 0
1, 8698, Note_on_c, 9, 42, 0
1, 8700, Note_on_c, 4, 40, 0
1, 8700, Note_on_c, 0, 70, 100
1, 8700, Note_on_c, 7, 68, 100
1, 8700, Note_on_c, 9, 42, 50
1, 8720, Note_on_c, 0, 70, 0
1, 8728, Note_on_c, 9, 42, 0
1, 8730, Note_on_c, 9, 36, 100
1, 8730, Note_on_c, 4, 40, 100
1, 8730, Note_on_c, 9, 42, 50
1, 8730, Note_on_c, 0, 73, 100
1, 8740, Note_on_c, 7, 68, 0
1, 8758, Note_on_c, 9, 42, 0
1, 8760, Note_on_c, 9, 38, 110
1, 8760, Note_on_c, 9, 42, 50
1, 8760, Note_on_c, 7, 64, 100
1, 8770, Note_on_c, 9, 36, 0
1, 8780, Note_on_c, 7, 64, 0
1, 8788, Note_on_c, 9, 42, 0
1, 8790, Note_on_c, 0, 73, 0
1, 8790, Note_on_c, 4, 40, 0
1, 8790, Note_on_c, 9, 42, 50
1, 8790, Note_on_c, 7, 59, 100
1, 8810, Note_on_c, 7, 59, 0
1, 8818, Note_on_c, 3, 70, 0
1, 8818, Note_on_c, 3, 68, 0
1, 8818, Note_on_c, 3, 66, 0
1, 8818, Note_on_c, 9, 42, 0
1, 8820, Note_on_c, 3, 60, 100
1, 8820, Note_on_c, 0, 73, 100
1, 8820, Note_on_c, 7, 56, 100
1, 8820, Note_on_c, 3, 68, 100
1, 8820, Note_on_c, 9, 42, 50
1, 8820, Note_on_c, 4, 42, 100
1, 8820, Note_on_c, 9, 36, 100
1, 8820, Note_on_c, 3, 70, 100
1, 8840, Note_on_c, 0, 73, 0
1, 8840, Note_on_c, 9, 38, 0
1, 8848, Note_on_c, 9, 42, 0
1, 8850, Note_on_c, 0, 73, 100
1, 8850, Note_on_c, 9, 42, 50
1, 8860, Note_on_c, 9, 36, 0
1, 8860, Note_on_c, 7, 56, 0
1, 8878, Note_on_c, 9, 42, 0
1, 8880, Note_on_c, 9, 42, 50
1, 8880, Note_on_c, 7, 70, 100
1, 8880, Note_on_c, 7, 61, 100
1, 8900, Note_on_c, 4, 42, 0
1, 8908, Note_on_c, 9, 42, 0
1, 8910, Note_on_c, 9, 42, 50
1, 8920, Note_on_c, 7, 61, 0
1, 8920, Note_on_c, 7, 70, 0
1, 8938, Note_on_c, 9, 42, 0
1, 8940, Note_on_c, 7, 66, 100
1, 8940, Note_on_c, 9, 42, 50
1, 8940, Note_on_c, 4, 42, 100
1, 8940, Note_on_c, 9, 36, 100
1, 8960, Note_on_c, 7, 66, 0
1, 8968, Note_on_c, 9, 42, 0
1, 8970, Note_on_c, 0, 73, 0
1, 8970, Note_on_c, 7, 61, 100
1, 8970, Note_on_c, 9, 42, 50
1, 8980, Note_on_c, 9, 36, 0
1, 8998, Note_on_c, 9, 42, 0
1, 9000, Note_on_c, 4, 42, 0
1, 9000, Note_on_c, 9, 38, 110
1, 9000, Note_on_c, 9, 42, 50
1, 9028, Note_on_c, 9, 42, 0
1, 9030, Note_on_c, 7, 61, 0
1, 9030, Note_on_c, 4, 42, 100
1, 9030, Note_on_c, 9, 42, 50
1, 9058, Note_on_c, 9, 42, 0
1, 9060, Note_on_c, 7, 70, 100
1, 9060, Note_on_c, 9, 42, 50
1, 9060, Note_on_c, 9, 36, 100
1, 9080, Note_on_c, 9, 36, 0
1, 9080, Note_on_c, 7, 70, 0
1, 9080, Note_on_c, 9, 38, 0
1, 9088, Note_on_c, 9, 42, 0
1, 9090, Note_on_c, 4, 42, 0
1, 9090, Note_on_c, 9, 36, 100
1, 9090, Note_on_c, 7, 68, 100
1, 9090, Note_on_c, 9, 42, 50
1, 9107, Note_on_c, 3, 60, 0
1, 9107, Note_on_c, 3, 70, 0
1, 9107, Note_on_c, 3, 68, 0
1, 9110, Note_on_c, 9, 36, 0
1, 9118, Note_on_c, 9, 42, 0
1, 9120, Note_on_c, 4, 44, 100
1, 9120, Note_on_c, 9, 42, 50
1, 9120, Note_on_c, 3, 60, 100
1, 9120, Note_on_c, 9, 36, 100
1, 9120, Note_on_c, 3, 63, 100
1, 9120, Note_on_c, 3, 66, 100
1, 9148, Note_on_c, 9, 42, 0
1, 9150, Note_on_c, 7, 68, 0
1, 9150, Note_on_c, 9, 42, 50
1, 9160, Note_on_c, 9, 36, 0
1, 9178, Note_on_c, 9, 42, 0
1, 9180, Note_on_c, 4, 44, 0
1, 9180, Note_on_c, 0, 75, 100
1, 9180, Note_on_c, 9, 42, 50
1, 9180, Note_on_c, 7, 71, 100
1, 9200, Note_on_c, 0, 75, 0
1, 9208, Note_on_c, 9, 42, 0
1, 9210, Note_on_c, 0, 75, 100
1, 9210, Note_on_c, 9, 36, 100
1, 9210, Note_on_c, 4, 44, 100
1, 9210, Note_on_c, 9, 42, 50
1, 9220, Note_on_c, 7, 71, 0
1, 9230, Note_on_c, 0, 75, 0
1, 9238, Note_on_c, 9, 42, 0
1, 9240, Note_on_c, 9, 42, 50
1, 9240, Note_on_c, 7, 70, 100
1, 9240, Note_on_c, 9, 38, 110
1, 9240, Note_on_c, 0, 75, 100
1, 9250, Note_on_c, 9, 36, 0
1, 9260, Note_on_c, 7, 70, 0
1, 9268, Note_on_c, 9, 42, 0
1, 9270, Note_on_c, 4, 44, 0
1, 9270, Note_on_c, 9, 42, 50
1, 9270, Note_on_c, 7, 66, 100
1, 9280, Note_on_c, 0, 75, 0
1, 9290, Note_on_c, 7, 66, 0
1, 9298, Note_on_c, 3, 60, 0
1, 9298, Note_on_c, 3, 66, 0
1, 9298, Note_on_c, 3, 63, 0
1, 9298, Note_on_c, 9, 42, 0
1, 9300, Note_on_c, 9, 36, 100
1, 9300, Note_on_c, 0, 75, 100
1, 9300, Note_on_c, 7, 61, 100
1, 9300, Note_on_c, 3, 66, 100
1, 9300, Note_on_c, 3, 61, 100
1, 9300, Note_on_c, 9, 42, 50
1, 9300, Note_on_c, 3, 63, 100
1, 9300, Note_on_c, 4, 47, 100
1, 9320, Note_on_c, 9, 38, 0
1, 9328, Note_on_c, 9, 42, 0
1, 9330, Note_on_c, 9, 42, 50
1, 9340, Note_on_c, 7, 61, 0
1, 9340, Note_on_c, 9, 36, 0
1, 9340, Note_on_c, 0, 75, 0
1, 9358, Note_on_c, 9, 42, 0
1, 9360, Note_on_c, 0, 75, 100
1, 9360, Note_on_c, 7, 70, 100
1, 9360, Note_on_c, 9, 42, 50
1, 9380, Note_on_c, 4, 47, 0
1, 9388, Note_on_c, 9, 42, 0
1, 9390, Note_on_c, 9, 42, 50
1, 9400, Note_on_c, 0, 75, 0
1, 9400, Note_on_c, 7, 70, 0
1, 9418, Note_on_c, 9, 42, 0
1, 9420, Note_on_c, 7, 66, 100
1, 9420, Note_on_c, 9, 36, 100
1, 9420, Note_on_c, 0, 73, 100
1, 9420, Note_on_c, 4, 47, 100
1, 9420, Note_on_c, 9, 42, 50
1, 9440, Note_on_c, 7, 66, 0
1, 9448, Note_on_c, 9, 42, 0
1, 9450, Note_on_c, 7, 61, 100
1, 9450, Note_on_c, 9, 42, 50
1, 9460, Note_on_c, 9, 36, 0
1, 9478, Note_on_c, 9, 42, 0
1, 9480, Note_on_c, 4, 47, 0
1, 9480, Note_on_c, 9, 42, 50
1, 9480, Note_on_c, 9, 38, 110
1, 9508, Note_on_c, 9, 42, 0
1, 9510, Note_on_c, 7, 61, 0
1, 9510, Note_on_c, 4, 47, 100
1, 9510, Note_on_c, 9, 42, 50
1, 9538, Note_on_c, 9, 42, 0
1, 9540, Note_on_c, 0, 73, 0
1, 9540, Note_on_c, 9, 42, 50
1, 9540, Note_on_c, 7, 70, 100
1, 9540, Note_on_c, 9, 36, 100
1, 9560, Note_on_c, 9, 36, 0
1, 9560, Note_on_c, 7, 70, 0
1, 9560, Note_on_c, 9, 38, 0
1, 9568, Note_on_c, 9, 42, 0
1, 9570, Note_on_c, 4, 47, 0
1, 9570, Note_on_c, 9, 36, 100
1, 9570, Note_on_c, 7, 68, 100
1, 9570, Note_on_c, 9, 42, 50
1, 9587, Note_on_c, 3, 61, 0
1, 9587, Note_on_c, 3, 66, 0
1, 9587, Note_on_c, 3, 63, 0
1, 9590, Note_on_c, 9, 36, 0
1, 9598, Note_on_c, 9, 42, 0
1, 9600, Note_on_c, 0, 70, 100
1, 9600, Note_on_c, 3, 70, 100
1, 9600, Note_on_c, 3, 68, 100
1, 9600, Note_on_c, 4, 42, 100
1, 9600, Note_on_c, 9, 36, 100
1, 9600, Note_on_c, 9, 42, 50
1, 9600, Note_on_c, 3, 60, 100
1, 9628, Note_on_c, 9, 42, 0
1, 9630, Note_on_c, 9, 42, 50
1, 9640, Note_on_c, 9, 36, 0
1, 9650, Note_on_c, 7, 68, 0
1, 9658, Note_on_c, 9, 42, 0
1, 9660, Note_on_c, 4, 42, 0
1, 9660, Note_on_c, 0, 70, 0
1, 9660, Note_on_c, 9, 42, 50
1, 9660, Note_on_c, 7, 70, 100
1, 9688, Note_on_c, 9, 42, 0
1, 9690, Note_on_c, 4, 42, 100
1, 9690, Note_on_c, 9, 36, 100
1, 9690, Note_on_c, 9, 42, 50
1, 9690, Note_on_c, 0, 73, 100
1, 9700, Note_on_c, 7, 70, 0
1, 9718, Note_on_c, 9, 42, 0
1, 9720, Note_on_c, 7, 68, 100
1, 9720, Note_on_c, 9, 42, 50
1, 9720, Note_on_c, 9, 38, 110
1, 9730, Note_on_c, 0, 73, 0
1, 9730, Note_on_c, 9, 36, 0
1, 9740, Note_on_c, 7, 68, 0
1, 9748, Note_on_c, 9, 42, 0
1, 9750, Note_on_c, 4, 42, 0
1, 9750, Note_on_c, 7, 65, 100
1, 9750, Note_on_c, 9, 42, 50
1, 9750, Note_on_c, 0, 73, 100
1, 9770, Note_on_c, 0, 73, 0
1, 9770, Note_on_c, 7, 65, 0
1, 9778, Note_on_c, 3, 70, 0
1, 9778, Note_on_c, 3, 60, 0
1, 9778, Note_on_c, 3, 68, 0
1, 9778, Note_on_c, 9, 42, 0
1, 9780, Note_on_c, 7, 61, 100
1, 9780, Note_on_c, 9, 42, 50
1, 9780, Note_on_c, 0, 73, 100
1, 9780, Note_on_c, 9, 36, 100
1, 9780, Note_on_c, 3, 61, 100
1, 9780, Note_on_c, 4, 49, 100
1, 9780, Note_on_c, 3, 63, 100
1, 9780, Note_on_c, 3, 66, 100
1, 9800, Note_on_c, 9, 38, 0
1, 9808, Note_on_c, 9, 42, 0
1, 9810, Note_on_c, 9, 42, 50
1, 9820, Note_on_c, 9, 36, 0
1, 9820, Note_on_c, 7, 61, 0
1, 9838, Note_on_c, 9, 42, 0
1, 9840, Note_on_c, 4, 49, 0
1, 9840, Note_on_c, 9, 42, 50
1, 9840, Note_on_c, 7, 68, 100
1, 9840, Note_on_c, 9, 38, 61
1, 9860, Note_on_c, 9, 38, 0
1, 9860, Note_on_c, 0, 73, 0
1, 9868, Note_on_c, 9, 42, 0
1, 9870, Note_on_c, 0, 70, 100
1, 9870, Note_on_c, 9, 42, 50
1, 9870, Note_on_c, 4, 49, 100
1, 9870, Note_on_c, 9, 38, 67
1, 9880, Note_on_c, 7, 68, 0
1, 9890, Note_on_c, 9, 38, 0
1, 9890, Note_on_c, 0, 70, 0
1, 9890, Note_on_c, 4, 49, 0
1, 9898, Note_on_c, 9, 42, 0
1, 9900, Note_on_c, 4, 49, 100
1, 9900, Note_on_c, 9, 42, 50
1, 9900, Note_on_c, 7, 63, 100
1, 9900, Note_on_c, 0, 68, 100
1, 9900, Note_on_c, 9, 36, 100
1, 9900, Note_on_c, 9, 38, 73
1, 9920, Note_on_c, 9, 38, 0
1, 9920, Note_on_c, 7, 63, 0
1, 9920, Note_on_c, 4, 49, 0
1, 9928, Note_on_c, 9, 42, 0
1, 9930, Note_on_c, 4, 53, 100
1, 9930, Note_on_c, 9, 42, 50
1, 9930, Note_on_c, 7, 61, 100
1, 9930, Note_on_c, 9, 38, 79
1, 9940, Note_on_c, 9, 36, 0
1, 9940, Note_on_c, 0, 68, 0
1, 9950, Note_on_c, 9, 38, 0
1, 9950, Note_on_c, 4, 53, 0
1, 9958, Note_on_c, 9, 42, 0
1, 9960, Note_on_c, 9, 38, 85
1, 9960, Note_on_c, 4, 56, 100
1, 9960, Note_on_c, 9, 42, 50
1, 9980, Note_on_c, 4, 56, 0
1, 9980, Note_on_c, 9, 38, 0
1, 9988, Note_on_c, 9, 42, 0
1, 9990, Note_on_c, 9, 38, 91
1, 9990, Note_on_c, 9, 42, 50
1, 9990, Note_on_c, 4, 53, 100
1, 10010, Note_on_c, 4, 53, 0
1, 10010, Note_on_c, 9, 38, 0
1, 10018, Note_on_c, 9, 42, 0
1, 10020, Note_on_c, 9, 38, 97
1, 10020, Note_on_c, 4, 51, 100
1, 10020, Note_on_c, 9, 42, 50
1, 10020, Note_on_c, 9, 36, 100
1, 10040, Note_on_c, 9, 36, 0
1, 10040, Note_on_c, 4, 51, 0
1, 10040, Note_on_c, 9, 38, 0
1, 10048, Note_on_c, 9, 42, 0
1, 10050, Note_on_c, 7, 61, 0
1, 10050, Note_on_c, 9, 38, 103
1, 10050, Note_on_c, 9, 36, 100
1, 10050, Note_on_c, 4, 49, 100
1, 10050, Note_on_c, 9, 42, 50
1, 10067, Note_on_c, 3, 61, 0
1, 10067, Note_on_c, 3, 66, 0
1, 10067, Note_on_c, 3, 63, 0
1, 10070, Note_on_c, 9, 36, 0
1, 10070, Note_on_c, 9, 38, 0
1, 10070, Note_on_c, 4, 49, 0
1, 10078, Note_on_c, 9, 42, 0
1, 10080, Note_on_c, 4, 44, 100
1, 10080, Note_on_c, 7, 66, 100
1, 10080, Note_on_c, 9, 57, 100
1, 10080, Note_on_c, 3, 63, 100
1, 10080, Note_on_c, 3, 60, 100
1, 10080, Note_on_c, 9, 36, 100
1, 10080, Note_on_c, 9, 42, 50
1, 10080, Note_on_c, 3, 66, 100
1, 10108, Note_on_c, 9, 42, 0
1, 10110, Note_on_c, 9, 42, 50
1, 10120, Note_on_c, 9, 36, 0
1, 10120, Note_on_c, 7, 66, 0
1, 10120, Note_on_c, 9, 57, 0
1, 10138, Note_on_c, 9, 42, 0
1, 10140, Note_on_c, 4, 44, 0
1, 10140, Note_on_c, 9, 42, 50
1, 10140, Note_on_c, 0, 75, 100
1, 10140, Note_on_c, 7, 71, 100
1, 10168, Note_on_c, 9, 42, 0
1, 10170, Note_on_c, 4, 44, 100
1, 10170, Note_on_c, 9, 42, 50
1, 10170, Note_on_c, 9, 36, 100
1, 10180, Note_on_c, 0, 75, 0
1, 10180, Note_on_c, 7, 71, 0
1, 10198, Note_on_c, 9, 42, 0
1, 10200, Note_on_c, 9, 38, 110
1, 10200, Note_on_c, 0, 75, 100
1, 10200, Note_on_c, 7, 70, 100
1, 10200, Note_on_c, 9, 42, 50
1, 10210, Note_on_c, 9, 36, 0
1, 10220, Note_on_c, 7, 70, 0
1, 10228, Note_on_c, 9, 42, 0
1, 10230, Note_on_c, 4, 44, 0
1, 10230, Note_on_c, 9, 42, 50
1, 10230, Note_on_c, 7, 66, 100
1, 10240, Note_on_c, 0, 75, 0
1, 10250, Note_on_c, 7, 66, 0
1, 10258, Note_on_c, 3, 66, 0
1, 10258, Note_on_c, 3, 63, 0
1, 10258, Note_on_c, 3, 60, 0
1, 10258, Note_on_c, 9, 42, 0
1, 10260, Note_on_c, 0, 73, 100
1, 10260, Note_on_c, 3, 61, 100
1, 10260, Note_on_c, 3, 63, 100
1, 10260, Note_on_c, 7, 61, 100
1, 10260, Note_on_c, 9, 42, 50
1, 10260, Note_on_c, 4, 47, 100
1, 10260, Note_on_c, 9, 36, 100
1, 10260, Note_on_c, 3, 66, 100
1, 10280, Note_on_c, 9, 38, 0
1, 10288, Note_on_c, 9, 42, 0
1, 10290, Note_on_c, 9, 42, 50
1, 10300, Note_on_c, 9, 36, 0
1, 10300, Note_on_c, 7, 61, 0
1, 10300, Note_on_c, 0, 73, 0
1, 10318, Note_on_c, 9, 42, 0
1, 10320, Note_on_c, 9, 42, 50
1, 10320, Note_on_c, 0, 80, 100
1, 10320, Note_on_c, 7, 70, 100
1, 10340, Note_on_c, 4, 47, 0
1, 10348, Note_on_c, 9, 42, 0
1, 10350, Note_on_c, 9, 42, 50
1, 10360, Note_on_c, 0, 80, 0
1, 10360, Note_on_c, 7, 70, 0
1, 10378, Note_on_c, 9, 42, 0
1, 10380, Note_on_c, 0, 76, 100
1, 10380, Note_on_c, 7, 66, 100
1, 10380, Note_on_c, 4, 47, 100
1, 10380, Note_on_c, 9, 42, 50
1, 10380, Note_on_c, 9, 36, 100
1, 10400, Note_on_c, 7, 66, 0
1, 10408, Note_on_c, 9, 42, 0
1, 10410, Note_on_c, 7, 61, 100
1, 10410, Note_on_c, 9, 42, 50
1, 10420, Note_on_c, 9, 36, 0
1, 10420, Note_on_c, 0, 76, 0
1, 10438, Note_on_c, 9, 42, 0
1, 10440, Note_on_c, 4, 47, 0
1, 10440, Note_on_c, 9, 38, 110
1, 10440, Note_on_c, 9, 42, 50
1, 10440, Note_on_c, 0, 73, 100
1, 10468, Note_on_c, 9, 42, 0
1, 10470, Note_on_c, 7, 61, 0
1, 10470, Note_on_c, 4, 47, 100
1, 10470, Note_on_c, 9, 42, 50
1, 10490, Note_on_c, 4, 47, 0
1, 10498, Note_on_c, 9, 42, 0
1, 10500, Note_on_c, 4, 47, 100
1, 10500, Note_on_c, 9, 36, 100
1, 10500, Note_on_c, 9, 42, 50
1, 10500, Note_on_c, 7, 70, 100
1, 10520, Note_on_c, 7, 70, 0
1, 10520, Note_on_c, 9, 36, 0
1, 10520, Note_on_c, 0, 73, 0
1, 10520, Note_on_c, 9, 38, 0
1, 10528, Note_on_c, 9, 42, 0
1, 10530, Note_on_c, 9, 36, 100
1, 10530, Note_on_c, 7, 68, 100
1, 10530, Note_on_c, 9, 42, 50
1, 10540, Note_on_c, 4, 47, 0
1, 10547, Note_on_c, 3, 63, 0
1, 10547, Note_on_c, 3, 61, 0
1, 10547, Note_on_c, 3, 66, 0
1, 10550, Note_on_c, 9, 36, 0
1, 10558, Note_on_c, 9, 42, 0
1, 10560, Note_on_c, 4, 40, 100
1, 10560, Note_on_c, 9, 42, 50
1, 10560, Note_on_c, 3, 68, 100
1, 10560, Note_on_c, 3, 66, 100
1, 10560, Note_on_c, 9, 36, 100
1, 10560, Note_on_c, 0, 71, 100
1, 10560, Note_on_c, 3, 70, 100
1, 10580, Note_on_c, 0, 71, 0
1, 10588, Note_on_c, 9, 42, 0
1, 10590, Note_on_c, 9, 42, 50
1, 10590, Note_on_c, 0, 71, 100
1, 10600, Note_on_c, 9, 36, 0
1, 10610, Note_on_c, 0, 71, 0
1, 10610, Note_on_c, 7, 68, 0
1, 10618, Note_on_c, 9, 42, 0
1, 10620, Note_on_c, 4, 40, 0
1, 10620, Note_on_c, 7, 68, 100
1, 10620, Note_on_c, 9, 42, 50
1, 10620, Note_on_c, 0, 71, 100
1, 10640, Note_on_c, 0, 71, 0
1, 10648, Note_on_c, 9, 42, 0
1, 10650, Note_on_c, 0, 73, 100
1, 10650, Note_on_c, 9, 42, 50
1, 10650, Note_on_c, 9, 36, 100
1, 10650, Note_on_c, 4, 40, 100
1, 10660, Note_on_c, 7, 68, 0
1, 10678, Note_on_c, 9, 42, 0
1, 10680, Note_on_c, 9, 38, 110
1, 10680, Note_on_c, 9, 42, 50
1, 10680, Note_on_c, 7, 64, 100
1, 10690, Note_on_c, 9, 36, 0
1, 10700, Note_on_c, 7, 64, 0
1, 10708, Note_on_c, 9, 42, 0
1, 10710, Note_on_c, 0, 73, 0
1, 10710, Note_on_c, 4, 40, 0
1, 10710, Note_on_c, 7, 59, 100
1, 10710, Note_on_c, 9, 42, 50
1, 10730, Note_on_c, 7, 59, 0
1, 10738, Note_on_c, 3, 66, 0
1, 10738, Note_on_c, 3, 68, 0
1, 10738, Note_on_c, 3, 70, 0
1, 10738, Note_on_c, 9, 42, 0
1, 10740, Note_on_c, 3, 68, 100
1, 10740, Note_on_c, 9, 42, 50
1, 10740, Note_on_c, 3, 60, 100
1, 10740, Note_on_c, 4, 42, 100
1, 10740, Note_on_c, 3, 70, 100
1, 10740, Note_on_c, 0, 73, 100
1, 10740, Note_on_c, 9, 36, 100
1, 10740, Note_on_c, 7, 56, 100
1, 10760, Note_on_c, 9, 38, 0
1, 10768, Note_on_c, 9, 42, 0
1, 10770, Note_on_c, 9, 42, 50
1, 10780, Note_on_c, 7, 56, 0
1, 10780, Note_on_c, 9, 36, 0
1, 10780, Note_on_c, 0, 73, 0
1, 10798, Note_on_c, 9, 42, 0
1, 10800, Note_on_c, 9, 42, 50
1, 10800, Note_on_c, 0, 73, 100
1, 10800, Note_on_c, 7, 70, 100
1, 10820, Note_on_c, 4, 42, 0
1, 10828, Note_on_c, 9, 42, 0
1, 10830, Note_on_c, 9, 42, 50
1, 10840, Note_on_c, 7, 70, 0
1, 10858, Note_on_c, 9, 42, 0
1, 10860, Note_on_c, 4, 42, 100
1, 10860, Note_on_c, 9, 42, 50
1, 10860, Note_on_c, 7, 66, 100
1, 10860, Note_on_c, 9, 36, 100
1, 10880, Note_on_c, 7, 66, 0
1, 10880, Note_on_c, 0, 73, 0
1, 10888, Note_on_c, 9, 42, 0
1, 10890, Note_on_c, 7, 61, 100
1, 10890, Note_on_c, 9, 42, 50
1, 10900, Note_on_c, 9, 36, 0
1, 10918, Note_on_c, 9, 42, 0
1, 10920, Note_on_c, 4, 42, 0
1, 10920, Note_on_c, 9, 38, 110
1, 10920, Note_on_c, 9, 42, 50
1, 10948, Note_on_c, 9, 42, 0
1, 10950, Note_on_c, 7, 61, 0
1, 10950, Note_on_c, 4, 42, 100
1, 10950, Note_on_c, 9, 42, 50
1, 10970, Note_on_c, 4, 42, 0
1, 10978, Note_on_c, 9, 42, 0
1, 10980, Note_on_c, 4, 42, 100
1, 10980, Note_on_c, 9, 43, 100
1, 10980, Note_on_c, 9, 36, 100
1, 10980, Note_on_c, 7, 70, 100
1, 10980, Note_on_c, 9, 42, 50
1, 11000, Note_on_c, 7, 70, 0
1, 11000, Note_on_c, 9, 36, 0
1, 11000, Note_on_c, 9, 38, 0
1, 11008, Note_on_c, 9, 42, 0
1, 11010, Note_on_c, 9, 42, 50
1, 11010, Note_on_c, 9, 36, 100
1, 11010, Note_on_c, 7, 68, 100
1, 11020, Note_on_c, 4, 42, 0
1, 11020, Note_on_c, 9, 43, 0
1, 11027, Note_on_c, 3, 70, 0
1, 11027, Note_on_c, 3, 60, 0
1, 11027, Note_on_c, 3, 68, 0
1, 11030, Note_on_c, 9, 36, 0
1, 11038, Note_on_c, 9, 42, 0
1, 11040, Note_on_c, 9, 42, 50
1, 11040, Note_on_c, 3, 68, 100
1, 11040, Note_on_c, 4, 44, 100
1, 11040, Note_on_c, 9, 36, 100
1, 11040, Note_on_c, 3, 63, 100
1, 11068, Note_on_c, 9, 42, 0
1, 11070, Note_on_c, 9, 42, 50
1, 11080, Note_on_c, 9, 36, 0
1, 11087, Note_on_c, 7, 68, 0
1, 11098, Note_on_c, 9, 42, 0
1, 11100, Note_on_c, 4, 44, 0
1, 11100, Note_on_c, 0, 68, 100
1, 11100, Note_on_c, 9, 42, 50
1, 11120, Note_on_c, 0, 68, 0
1, 11128, Note_on_c, 9, 42, 0
1, 11130, Note_on_c, 4, 44, 100
1, 11130, Note_on_c, 9, 42, 50
1, 11130, Note_on_c, 0, 68, 100
1, 11130, Note_on_c, 9, 36, 100
1, 11150, Note_on_c, 0, 68, 0
1, 11158, Note_on_c, 9, 42, 0
1, 11160, Note_on_c, 9, 38, 110
1, 11160, Note_on_c, 0, 68, 100
1, 11160, Note_on_c, 9, 42, 50
1, 11170, Note_on_c, 9, 36, 0
1, 11188, Note_on_c, 9, 42, 0
1, 11190, Note_on_c, 4, 44, 0
1, 11190, Note_on_c, 9, 42, 50
1, 11200, Note_on_c, 0, 68, 0
1, 11218, Note_on_c, 9, 42, 0
1, 11220, Note_on_c, 4, 47, 100
1, 11220, Note_on_c, 9, 36, 100
1, 11220, Note_on_c, 9, 42, 50
1, 11220, Note_on_c, 0, 68, 100
1, 11240, Note_on_c, 9, 38, 0
1, 11248, Note_on_c, 9, 42, 0
1, 11250, Note_on_c, 9, 42, 50
1, 11260, Note_on_c, 9, 36, 0
1, 11260, Note_on_c, 4, 47, 0
1, 11260, Note_on_c, 0, 68, 0
1, 11278, Note_on_c, 9, 42, 0
1, 11280, Note_on_c, 0, 71, 100
1, 11280, Note_on_c, 4, 51, 100
1, 11280, Note_on_c, 9, 42, 50
1, 11308, Note_on_c, 9, 42, 0
1, 11310, Note_on_c, 9, 42, 50
1, 11320, Note_on_c, 4, 51, 0
1, 11338, Note_on_c, 9, 42, 0
1, 11340, Note_on_c, 0, 71, 0
1, 11340, Note_on_c, 4, 53, 100
1, 11340, Note_on_c, 9, 36, 100
1, 11340, Note_on_c, 9, 42, 50
1, 11368, Note_on_c, 9, 42, 0
1, 11370, Note_on_c, 9, 42, 50
1, 11370, Note_on_c, 0, 71, 100
1, 11380, Note_on_c, 4, 53, 0
1, 11380, Note_on_c, 9, 36, 0
1, 11398, Note_on_c, 9, 42, 0
1, 11400, Note_on_c, 4, 56, 100
1, 11400, Note_on_c, 9, 42, 50
1, 11400, Note_on_c, 9, 38, 110
1, 11410, Note_on_c, 0, 71, 0
1, 11428, Note_on_c, 9, 42, 0
1, 11430, Note_on_c, 0, 68, 100
1, 11430, Note_on_c, 9, 42, 50
1, 11440, Note_on_c, 4, 56, 0
1, 11450, Note_on_c, 0, 68, 0
1, 11458, Note_on_c, 9, 42, 0
1, 11460, Note_on_c, 0, 71, 100
1, 11460, Note_on_c, 9, 42, 50
1, 11460, Note_on_c, 9, 36, 100
1, 11460, Note_on_c, 4, 51, 100
1, 11480, Note_on_c, 9, 36, 0
1, 11480, Note_on_c, 9, 38, 0
1, 11488, Note_on_c, 9, 42, 0
1, 11490, Note_on_c, 9, 42, 50
1, 11490, Note_on_c, 9, 36, 100
1, 11500, Note_on_c, 0, 71, 0
1, 11500, Note_on_c, 4, 51, 0
1, 11510, Note_on_c, 9, 36, 0
1, 11518, Note_on_c, 9, 42, 0
1, 11520, Note_on_c, 9, 36, 100
1, 11520, Note_on_c, 9, 42, 50
1, 11520, Note_on_c, 4, 54, 100
1, 11548, Note_on_c, 9, 42, 0
1, 11550, Note_on_c, 9, 42, 50
1, 11560, Note_on_c, 9, 36, 0
1, 11578, Note_on_c, 9, 42, 0
1, 11580, Note_on_c, 0, 76, 100
1, 11580, Note_on_c, 9, 42, 50
1, 11600, Note_on_c, 0, 76, 0
1, 11600, Note_on_c, 4, 54, 0
1, 11608, Note_on_c, 9, 42, 0
1, 11610, Note_on_c, 9, 42, 50
1, 11610, Note_on_c, 0, 76, 100
1, 11610, Note_on_c, 9, 36, 100
1, 11630, Note_on_c, 0, 76, 0
1, 11638, Note_on_c, 9, 42, 0
1, 11640, Note_on_c, 9, 42, 50
1, 11640, Note_on_c, 4, 52, 100
1, 11640, Note_on_c, 9, 38, 110
1, 11640, Note_on_c, 0, 76, 100
1, 11650, Note_on_c, 9, 36, 0
1, 11668, Note_on_c, 9, 42, 0
1, 11670, Note_on_c, 9, 42, 50
1, 11680, Note_on_c, 0, 76, 0
1, 11698, Note_on_c, 9, 42, 0
1, 11700, Note_on_c, 0, 73, 100
1, 11700, Note_on_c, 9, 36, 100
1, 11700, Note_on_c, 9, 42, 50
1, 11720, Note_on_c, 4, 52, 0
1, 11720, Note_on_c, 9, 38, 0
1, 11728, Note_on_c, 9, 42, 0
1, 11730, Note_on_c, 9, 42, 50
1, 11740, Note_on_c, 0, 73, 0
1, 11740, Note_on_c, 9, 36, 0
1, 11758, Note_on_c, 9, 42, 0
1, 11760, Note_on_c, 9, 42, 50
1, 11760, Note_on_c, 4, 51, 100
1, 11760, Note_on_c, 0, 76, 100
1, 11788, Note_on_c, 9, 42, 0
1, 11790, Note_on_c, 9, 42, 50
1, 11800, Note_on_c, 0, 76, 0
1, 11818, Note_on_c, 9, 42, 0
1, 11820, Note_on_c, 9, 38, 110
1, 11820, Note_on_c, 9, 36, 100
1, 11820, Note_on_c, 9, 42, 50
1, 11820, Note_on_c, 0, 73, 100
1, 11840, Note_on_c, 9, 38, 0
1, 11840, Note_on_c, 4, 51, 0
1, 11848, Note_on_c, 9, 42, 0
1, 11850, Note_on_c, 9, 38, 110
1, 11850, Note_on_c, 9, 42, 50
1, 11860, Note_on_c, 9, 36, 0
1, 11870, Note_on_c, 9, 38, 0
1, 11878, Note_on_c, 9, 42, 0
1, 11880, Note_on_c, 9, 42, 50
1, 11880, Note_on_c, 9, 38, 110
1, 11880, Note_on_c, 4, 49, 100
1, 11900, Note_on_c, 9, 38, 0
1, 11908, Note_on_c, 9, 42, 0
1, 11910, Note_on_c, 9, 42, 50
1, 11938, Note_on_c, 9, 42, 0
1, 11940, Note_on_c, 0, 73, 0
1, 11940, Note_on_c, 9, 38, 110
1, 11940, Note_on_c, 9, 36, 100
1, 11940, Note_on_c, 9, 42, 50
1, 11960, Note_on_c, 9, 36, 0
1, 11960, Note_on_c, 9, 38, 0
1, 11960, Note_on_c, 4, 49, 0
1, 11968, Note_on_c, 9, 42, 0
1, 11970, Note_on_c, 9, 38, 110
1, 11970, Note_on_c, 9, 36, 100
1, 11970, Note_on_c, 9, 42, 50
1, 11990, Note_on_c, 9, 36, 0
1, 11990, Note_on_c, 9, 38, 0
1, 11998, Note_on_c, 3, 68, 0
1, 11998, Note_on_c, 3, 63, 0
1, 11998, Note_on_c, 9, 42, 0
1, 12000, Note_on_c, 3, 63, 100
1, 12000, Note_on_c, 3, 59, 100
1, 12000, Control_c, 7, 7, 70
1, 12000, Note_on_c, 3, 66, 100
1, 12000, Note_on_c, 9, 42, 50
1, 12000, Note_on_c, 7, 59, 100
1, 12000, Note_on_c, 7, 54, 100
1, 12000, Note_on_c, 7, 63, 100
1, 12000, Note_on_c, 4, 47, 100
1, 12000, Note_on_c, 9, 36, 100
1, 12028, Note_on_c, 9, 42, 0
1, 12030, Note_on_c, 9, 42, 50
1, 12040, Note_on_c, 9, 36, 0
1, 12058, Note_on_c, 9, 42, 0
1, 12060, Note_on_c, 4, 47, 0
1, 12060, Note_on_c, 7, 54, 0
1, 12060, Note_on_c, 7, 59, 0
1, 12060, Note_on_c, 7, 63, 0
1, 12060, Note_on_c, 9, 42, 50
1, 12060, Note_on_c, 0, 71, 100
1, 12088, Note_on_c, 9, 42, 0
1, 12090, Note_on_c, 9, 36, 100
1, 12090, Note_on_c, 4, 47, 100
1, 12090, Note_on_c, 7, 54, 100
1, 12090, Note_on_c, 7, 59, 100
1, 12090, Note_on_c, 9, 42, 50
1, 12090, Note_on_c, 7, 63, 100
1, 12118, Note_on_c, 9, 42, 0
1, 12120, Note_on_c, 0, 71, 0
1, 12120, Note_on_c, 9, 42, 50
1, 12120, Note_on_c, 9, 38, 110
1, 12130, Note_on_c, 9, 36, 0
1, 12130, Note_on_c, 4, 47, 0
1, 12148, Note_on_c, 9, 42, 0
1, 12150, Note_on_c, 7, 59, 0
1, 12150, Note_on_c, 7, 63, 0
1, 12150, Note_on_c, 7, 54, 0
1, 12150, Note_on_c, 9, 42, 50
1, 12150, Note_on_c, 0, 71, 100
1, 12150, Note_on_c, 4, 47, 100
1, 12170, Note_on_c, 4, 47, 0
1, 12178, Note_on_c, 9, 42, 0
1, 12180, Note_on_c, 9, 36, 100
1, 12180, Note_on_c, 7, 54, 100
1, 12180, Note_on_c, 4, 47, 100
1, 12180, Note_on_c, 9, 42, 50
1, 12180, Note_on_c, 7, 59, 100
1, 12180, Note_on_c, 7, 63, 100
1, 12200, Note_on_c, 9, 38, 0
1, 12208, Note_on_c, 9, 42, 0
1, 12210, Note_on_c, 0, 71, 0
1, 12210, Note_on_c, 9, 42, 50
1, 12220, Note_on_c, 9, 36, 0
1, 12238, Note_on_c, 9, 42, 0
1, 12240, Note_on_c, 0, 73, 100
1, 12240, Note_on_c, 9, 42, 50
1, 12260, Note_on_c, 7, 59, 0
1, 12260, Note_on_c, 7, 63, 0
1, 12260, Note_on_c, 7, 54, 0
1, 12268, Note_on_c, 9, 42, 0
1, 12270, Note_on_c, 9, 42, 50
1, 12298, Note_on_c, 9, 42, 0
1, 12300, Note_on_c, 7, 54, 100
1, 12300, Note_on_c, 7, 63, 100
1, 12300, Note_on_c, 7, 59, 100
1, 12300, Note_on_c, 9, 36, 100
1, 12300, Note_on_c, 9, 42, 50
1, 12320, Note_on_c, 0, 73, 0
1, 12328, Note_on_c, 9, 42, 0
1, 12330, Note_on_c, 9, 42, 50
1, 12340, Note_on_c, 9, 36, 0
1, 12340, Note_on_c, 4, 47, 0
1, 12358, Note_on_c, 9, 42, 0
1, 12360, Note_on_c, 9, 42, 50
1, 12360, Note_on_c, 9, 38, 110
1, 12388, Note_on_c, 9, 42, 0
1, 12390, Note_on_c, 9, 42, 50
1, 12390, Note_on_c, 4, 47, 100
1, 12410, Note_on_c, 4, 47, 0
1, 12418, Note_on_c, 9, 42, 0
1, 12420, Note_on_c, 7, 59, 0
1, 12420, Note_on_c, 7, 54, 0
1, 12420, Note_on_c, 7, 63, 0
1, 12420, Note_on_c, 9, 42, 50
1, 12420, Note_on_c, 9, 36, 100
1, 12420, Note_on_c, 4, 47, 100
1, 12440, Note_on_c, 9, 36, 0
1, 12440, Note_on_c, 9, 38, 0
1, 12448, Note_on_c, 9, 42, 0
1, 12450, Note_on_c, 9, 42, 50
1, 12450, Note_on_c, 9, 36, 100
1, 12460, Note_on_c, 4, 47, 0
1, 12470, Note_on_c, 9, 36, 0
1, 12478, Note_on_c, 3, 59, 0
1, 12478, Note_on_c, 3, 66, 0
1, 12478, Note_on_c, 3, 63, 0
1, 12478, Note_on_c, 9, 42, 0
1, 12480, Note_on_c, 3, 66, 100
1, 12480, Note_on_c, 7, 66, 100
1, 12480, Note_on_c, 4, 42, 100
1, 12480, Note_on_c, 9, 36, 100
1, 12480, Note_on_c, 9, 42, 50
1, 12480, Note_on_c, 7, 58, 100
1, 12480, Note_on_c, 7, 61, 100
1, 12480, Note_on_c, 3, 61, 100
1, 12480, Note_on_c, 3, 58, 100
1, 12508, Note_on_c, 9, 42, 0
1, 12510, Note_on_c, 9, 42, 50
1, 12520, Note_on_c, 9, 36, 0
1, 12538, Note_on_c, 9, 42, 0
1, 12540, Note_on_c, 4, 42, 0
1, 12540, Note_on_c, 7, 58, 0
1, 12540, Note_on_c, 7, 66, 0
1, 12540, Note_on_c, 7, 61, 0
1, 12540, Note_on_c, 9, 42, 50
1, 12540, Note_on_c, 0, 75, 100
1, 12568, Note_on_c, 9, 42, 0
1, 12570, Note_on_c, 9, 36, 100
1, 12570, Note_on_c, 4, 46, 100
1, 12570, Note_on_c, 7, 61, 100
1, 12570, Note_on_c, 7, 58, 100
1, 12570, Note_on_c, 7, 66, 100
1, 12570, Note_on_c, 9, 42, 50
1, 12598, Note_on_c, 9, 42, 0
1, 12600, Note_on_c, 0, 75, 0
1, 12600, Note_on_c, 9, 42, 50
1, 12600, Note_on_c, 9, 38, 110
1, 12610, Note_on_c, 9, 36, 0
1, 12610, Note_on_c, 4, 46, 0
1, 12628, Note_on_c, 9, 42, 0
1, 12630, Note_on_c, 7, 66, 0
1, 12630, Note_on_c, 7, 58, 0
1, 12630, Note_on_c, 7, 61, 0
1, 12630, Note_on_c, 4, 47, 100
1, 12630, Note_on_c, 0, 73, 100
1, 12630, Note_on_c, 9, 42, 50
1, 12650, Note_on_c, 4, 47, 0
1, 12658, Note_on_c, 3, 61, 0
1, 12658, Note_on_c, 3, 58, 0
1, 12658, Note_on_c, 3, 66, 0
1, 12658, Note_on_c, 9, 42, 0
1, 12660, Note_on_c, 3, 61, 100
1, 12660, Note_on_c, 7, 56, 100
1, 12660, Note_on_c, 4, 49, 100
1, 12660, Note_on_c, 3, 56, 100
1, 12660, Note_on_c, 3, 65, 100
1, 12660, Note_on_c, 7, 61, 100
1, 12660, Note_on_c, 9, 42, 50
1, 12660, Note_on_c, 7, 65, 100
1, 12660, Note_on_c, 9, 36, 100
1, 12680, Note_on_c, 9, 38, 0
1, 12688, Note_on_c, 9, 42, 0
1, 12690, Note_on_c, 0, 73, 0
1, 12690, Note_on_c, 9, 42, 50
1, 12700, Note_on_c, 9, 36, 0
1, 12718, Note_on_c, 9, 42, 0
1, 12720, Note_on_c, 4, 49, 0
1, 12720, Note_on_c, 9, 42, 50
1, 12720, Note_on_c, 0, 73, 100
1, 12748, Note_on_c, 9, 42, 0
1, 12750, Note_on_c, 9, 42, 50
1, 12750, Note_on_c, 4, 37, 100
1, 12770, Note_on_c, 4, 37, 0
1, 12778, Note_on_c, 9, 42, 0
1, 12780, Note_on_c, 9, 36, 100
1, 12780, Note_on_c, 9, 42, 50
1, 12780, Note_on_c, 4, 37, 100
1, 12800, Note_on_c, 0, 73, 0
1, 12808, Note_on_c, 9, 42, 0
1, 12810, Note_on_c, 9, 42, 50
1, 12820, Note_on_c, 9, 36, 0
1, 12820, Note_on_c, 4, 37, 0
1, 12838, Note_on_c, 9, 42, 0
1, 12840, Note_on_c, 9, 38, 110
1, 12840, Note_on_c, 4, 37, 100
1, 12840, Note_on_c, 9, 42, 50
1, 12868, Note_on_c, 9, 42, 0
1, 12870, Note_on_c, 9, 42, 50
1, 12870, Note_on_c, 0, 71, 100
1, 12890, Note_on_c, 0, 71, 0
1, 12898, Note_on_c, 9, 42, 0
1, 12900, Note_on_c, 7, 61, 0
1, 12900, Note_on_c, 7, 65, 0
1, 12900, Note_on_c, 7, 56, 0
1, 12900, Note_on_c, 0, 71, 100
1, 12900, Note_on_c, 9, 36, 100
1, 12900, Note_on_c, 9, 42, 50
1, 12920, Note_on_c, 9, 36, 0
1, 12920, Note_on_c, 4, 37, 0
1, 12920, Note_on_c, 9, 38, 0
1, 12928, Note_on_c, 9, 42, 0
1, 12930, Note_on_c, 9, 36, 100
1, 12930, Note_on_c, 9, 42, 50
1, 12930, Note_on_c, 9, 38, 100
1, 12940, Note_on_c, 0, 71, 0
1, 12947, Note_on_c, 3, 56, 0
1, 12947, Note_on_c, 3, 61, 0
1, 12947, Note_on_c, 3, 65, 0
1, 12950, Note_on_c, 9, 38, 0
1, 12950, Note_on_c, 9, 36, 0
1, 12958, Note_on_c, 9, 42, 0
1, 12960, Note_on_c, 4, 49, 100
1, 12960, Note_on_c, 0, 73, 100
1, 12960, Note_on_c, 7, 65, 100
1, 12960, Note_on_c, 3, 65, 100
1, 12960, Note_on_c, 7, 56, 100
1, 12960, Note_on_c, 9, 42, 50
1, 12960, Note_on_c, 9, 36, 100
1, 12960, Note_on_c, 3, 56, 100
1, 12988, Note_on_c, 9, 42, 0
1, 12990, Note_on_c, 9, 42, 50
1, 13000, Note_on_c, 9, 36, 0
1, 13018, Note_on_c, 9, 42, 0
1, 13020, Note_on_c, 0, 73, 0
1, 13020, Note_on_c, 9, 42, 50
1, 13040, Note_on_c, 4, 49, 0
1, 13048, Note_on_c, 9, 42, 0
1, 13050, Note_on_c, 9, 36, 100
1, 13050, Note_on_c, 9, 42, 50
1, 13050, Note_on_c, 0, 73, 100
1, 13070, Note_on_c, 0, 73, 0
1, 13078, Note_on_c, 7, 56, 0
1, 13078, Note_on_c, 3, 65, 0
1, 13078, Note_on_c, 7, 65, 0
1, 13078, Note_on_c, 3, 56, 0
1, 13078, Note_on_c, 9, 42, 0
1, 13080, Note_on_c, 9, 42, 50
1, 13080, Note_on_c, 9, 38, 110
1, 13080, Note_on_c, 3, 56, 100
1, 13080, Note_on_c, 7, 63, 100
1, 13080, Note_on_c, 3, 63, 100
1, 13080, Note_on_c, 0, 73, 100
1, 13080, Note_on_c, 7, 56, 100
1, 13080, Note_on_c, 4, 47, 100
1, 13090, Note_on_c, 9, 36, 0
1, 13100, Note_on_c, 0, 73, 0
1, 13108, Note_on_c, 9, 42, 0
1, 13110, Note_on_c, 9, 42, 50
1, 13110, Note_on_c, 0, 70, 100
1, 13130, Note_on_c, 0, 70, 0
1, 13138, Note_on_c, 9, 42, 0
1, 13140, Note_on_c, 9, 42, 50
1, 13140, Note_on_c, 0, 68, 100
1, 13140, Note_on_c, 9, 36, 100
1, 13160, Note_on_c, 9, 38, 0
1, 13160, Note_on_c, 4, 47, 0
1, 13168, Note_on_c, 9, 42, 0
1, 13170, Note_on_c, 9, 42, 50
1, 13180, Note_on_c, 9, 36, 0
1, 13180, Note_on_c, 0, 68, 0
1, 13198, Note_on_c, 3, 63, 0
1, 13198, Note_on_c, 7, 63, 0
1, 13198, Note_on_c, 3, 56, 0
1, 13198, Note_on_c, 9, 42, 0
1, 13198, Note_on_c, 7, 56, 0
1, 13200, Note_on_c, 0, 71, 100
1, 13200, Note_on_c, 3, 61, 100
1, 13200, Note_on_c, 7, 56, 100
1, 13200, Note_on_c, 9, 42, 50
1, 13200, Note_on_c, 3, 56, 100
1, 13200, Note_on_c, 7, 61, 100
1, 13200, Note_on_c, 4, 46, 100
1, 13228, Note_on_c, 9, 42, 0
1, 13230, Note_on_c, 9, 42, 50
1, 13258, Note_on_c, 9, 42, 0
1, 13260, Note_on_c, 9, 42, 50
1, 13260, Note_on_c, 9, 36, 100
1, 13280, Note_on_c, 4, 46, 0
1, 13280, Note_on_c, 0, 71, 0
1, 13288, Note_on_c, 9, 42, 0
1, 13290, Note_on_c, 9, 42, 50
1, 13300, Note_on_c, 9, 36, 0
1, 13318, Note_on_c, 3, 61, 0
1, 13318, Note_on_c, 3, 56, 0
1, 13318, Note_on_c, 7, 61, 0
1, 13318, Note_on_c, 9, 42, 0
1, 13318, Note_on_c, 7, 56, 0
1, 13320, Note_on_c, 7, 61, 100
1, 13320, Note_on_c, 3, 53, 100
1, 13320, Note_on_c, 9, 38, 110
1, 13320, Note_on_c, 9, 42, 50
1, 13320, Note_on_c, 4, 44, 100
1, 13320, Note_on_c, 0, 68, 100
1, 13320, Note_on_c, 7, 53, 100
1, 13320, Note_on_c, 3, 56, 100
1, 13320, Note_on_c, 7, 56, 100
1, 13320, Note_on_c, 3, 61, 100
1, 13348, Note_on_c, 9, 42, 0
1, 13350, Note_on_c, 9, 42, 50
1, 13360, Note_on_c, 0, 68, 0
1, 13378, Note_on_c, 9, 42, 0
1, 13380, Note_on_c, 9, 42, 50
1, 13380, Note_on_c, 0, 66, 100
1, 13380, Note_on_c, 9, 36, 100
1, 13400, Note_on_c, 9, 36, 0
1, 13400, Note_on_c, 9, 38, 0
1, 13400, Note_on_c, 4, 44, 0
1, 13408, Note_on_c, 9, 42, 0
1, 13410, Note_on_c, 9, 42, 50
1, 13410, Note_on_c, 9, 36, 100
1, 13430, Note_on_c, 9, 36, 0
1, 13438, Note_on_c, 7, 61, 0
1, 13438, Note_on_c, 9, 42, 0
1, 13438, Note_on_c, 7, 53, 0
1, 13438, Note_on_c, 3, 53, 0
1, 13438, Note_on_c, 3, 56, 0
1, 13438, Note_on_c, 7, 56, 0
1, 13438, Note_on_c, 3, 61, 0
1, 13440, Note_on_c, 7, 58, 100
1, 13440, Note_on_c, 3, 66, 100
1, 13440, Note_on_c, 3, 61, 100
1, 13440, Note_on_c, 4, 42, 100
1, 13440, Note_on_c, 3, 58, 100
1, 13440, Note_on_c, 7, 54, 100
1, 13440, Note_on_c, 9, 36, 100
1, 13440, Note_on_c, 9, 42, 50
1, 13468, Note_on_c, 9, 42, 0
1, 13470, Note_on_c, 9, 42, 50
1, 13480, Note_on_c, 9, 36, 0
1, 13498, Note_on_c, 9, 42, 0
1, 13500, Note_on_c, 7, 54, 0
1, 13500, Note_on_c, 7, 58, 0
1, 13500, Note_on_c, 4, 42, 0
1, 13500, Note_on_c, 9, 42, 50
1, 13528, Note_on_c, 9, 42, 0
1, 13530, Note_on_c, 4, 46, 100
1, 13530, Note_on_c, 7, 61, 100
1, 13530, Note_on_c, 9, 36, 100
1, 13530, Note_on_c, 9, 42, 50
1, 13540, Note_on_c, 0, 66, 0
1, 13558, Note_on_c, 9, 42, 0
1, 13560, Note_on_c, 9, 42, 50
1, 13560, Note_on_c, 9, 38, 110
1, 13570, Note_on_c, 4, 46, 0
1, 13570, Note_on_c, 9, 36, 0
1, 13588, Note_on_c, 9, 42, 0
1, 13590, Note_on_c, 7, 61, 0
1, 13590, Note_on_c, 4, 47, 100
1, 13590, Note_on_c, 9, 42, 50
1, 13610, Note_on_c, 4, 47, 0
1, 13618, Note_on_c, 3, 66, 0
1, 13618, Note_on_c, 3, 61, 0
1, 13618, Note_on_c, 3, 58, 0
1, 13618, Note_on_c, 9, 42, 0
1, 13620, Note_on_c, 3, 61, 100
1, 13620, Note_on_c, 3, 56, 100
1, 13620, Note_on_c, 3, 65, 100
1, 13620, Note_on_c, 7, 56, 100
1, 13620, Note_on_c, 9, 36, 100
1, 13620, Note_on_c, 7, 61, 100
1, 13620, Note_on_c, 7, 65, 100
1, 13620, Note_on_c, 9, 42, 50
1, 13620, Note_on_c, 4, 49, 100
1, 13640, Note_on_c, 9, 38, 0
1, 13648, Note_on_c, 9, 42, 0
1, 13650, Note_on_c, 9, 42, 50
1, 13660, Note_on_c, 9, 36, 0
1, 13678, Note_on_c, 9, 42, 0
1, 13680, Note_on_c, 4, 49, 0
1, 13680, Note_on_c, 9, 42, 50
1, 13708, Note_on_c, 9, 42, 0
1, 13710, Note_on_c, 4, 37, 100
1, 13710, Note_on_c, 9, 42, 50
1, 13730, Note_on_c, 4, 37, 0
1, 13738, Note_on_c, 9, 42, 0
1, 13740, Note_on_c, 9, 42, 50
1, 13740, Note_on_c, 9, 36, 100
1, 13740, Note_on_c, 4, 37, 100
1, 13768, Note_on_c, 9, 42, 0
1, 13770, Note_on_c, 9, 42, 50
1, 13780, Note_on_c, 4, 37, 0
1, 13780, Note_on_c, 9, 36, 0
1, 13798, Note_on_c, 9, 42, 0
1, 13800, Note_on_c, 9, 38, 110
1, 13800, Note_on_c, 4, 37, 100
1, 13800, Note_on_c, 9, 42, 50
1, 13828, Note_on_c, 9, 42, 0
1, 13830, Note_on_c, 9, 42, 50
1, 13858, Note_on_c, 9, 42, 0
1, 13860, Note_on_c, 7, 56, 0
1, 13860, Note_on_c, 7, 65, 0
1, 13860, Note_on_c, 7, 61, 0
1, 13860, Note_on_c, 9, 38, 65
1, 13860, Note_on_c, 9, 42, 50
1, 13860, Note_on_c, 9, 36, 100
1, 13870, Note_on_c, 9, 38, 0
1, 13875, Note_on_c, 9, 38, 65
1, 13880, Note_on_c, 9, 38, 0
1, 13880, Note_on_c, 9, 36, 0
1, 13880, Note_on_c, 4, 37, 0
1, 13885, Note_on_c, 9, 38, 0
1, 13888, Note_on_c, 9, 42, 0
1, 13890, Note_on_c, 9, 38, 65
1, 13890, Note_on_c, 9, 36, 100
1, 13890, Note_on_c, 9, 42, 50
1, 13900, Note_on_c, 9, 38, 0
1, 13905, Note_on_c, 9, 38, 65
1, 13907, Note_on_c, 3, 61, 0
1, 13907, Note_on_c, 3, 56, 0
1, 13907, Note_on_c, 3, 65, 0
1, 13910, Note_on_c, 9, 36, 0
1, 13915, Note_on_c, 9, 38, 0
1, 13918, Note_on_c, 9, 42, 0
1, 13920, Note_on_c, 7, 63, 100
1, 13920, Note_on_c, 3, 63, 100
1, 13920, Note_on_c, 7, 59, 100
1, 13920, Note_on_c, 9, 42, 50
1, 13920, Note_on_c, 3, 59, 100
1, 13920, Note_on_c, 3, 66, 100
1, 13920, Note_on_c, 9, 36, 100
1, 13920, Note_on_c, 7, 54, 100
1, 13920, Note_on_c, 4, 47, 100
1, 13948, Note_on_c, 9, 42, 0
1, 13950, Note_on_c, 9, 42, 50
1, 13960, Note_on_c, 9, 36, 0
1, 13978, Note_on_c, 9, 42, 0
1, 13980, Note_on_c, 7, 54, 0
1, 13980, Note_on_c, 7, 63, 0
1, 13980, Note_on_c, 4, 47, 0
1, 13980, Note_on_c, 7, 59, 0
1, 13980, Note_on_c, 0, 71, 100
1, 13980, Note_on_c, 9, 42, 50
1, 14008, Note_on_c, 9, 42, 0
1, 14010, Note_on_c, 7, 54, 100
1, 14010, Note_on_c, 7, 63, 100
1, 14010, Note_on_c, 7, 59, 100
1, 14010, Note_on_c, 9, 36, 100
1, 14010, Note_on_c, 4, 47, 100
1, 14010, Note_on_c, 9, 42, 50
1, 14038, Note_on_c, 9, 42, 0
1, 14040, Note_on_c, 0, 71, 0
1, 14040, Note_on_c, 9, 38, 110
1, 14040, Note_on_c, 9, 42, 50
1, 14050, Note_on_c, 9, 36, 0
1, 14050, Note_on_c, 4, 47, 0
1, 14068, Note_on_c, 9, 42, 0
1, 14070, Note_on_c, 7, 54, 0
1, 14070, Note_on_c, 7, 63, 0
1, 14070, Note_on_c, 7, 59, 0
1, 14070, Note_on_c, 9, 42, 50
1, 14070, Note_on_c, 0, 71, 100
1, 14070, Note_on_c, 4, 47, 100
1, 14090, Note_on_c, 4, 47, 0
1, 14098, Note_on_c, 9, 42, 0
1, 14100, Note_on_c, 9, 36, 100
1, 14100, Note_on_c, 7, 59, 100
1, 14100, Note_on_c, 4, 47, 100
1, 14100, Note_on_c, 9, 42, 50
1, 14100, Note_on_c, 7, 54, 100
1, 14100, Note_on_c, 7, 63, 100
1, 14120, Note_on_c, 9, 38, 0
1, 14128, Note_on_c, 9, 42, 0
1, 14130, Note_on_c, 0, 71, 0
1, 14130, Note_on_c, 9, 42, 50
1, 14140, Note_on_c, 9, 36, 0
1, 14158, Note_on_c, 9, 42, 0
1, 14160, Note_on_c, 0, 73, 100
1, 14160, Note_on_c, 9, 42, 50
1, 14180, Note_on_c, 7, 54, 0
1, 14180, Note_on_c, 7, 63, 0
1, 14180, Note_on_c, 7, 59, 0
1, 14188, Note_on_c, 9, 42, 0
1, 14190, Note_on_c, 9, 38, 100
1, 14190, Note_on_c, 9, 42, 50
1, 14218, Note_on_c, 9, 42, 0
1, 14220, Note_on_c, 7, 59, 100
1, 14220, Note_on_c, 9, 36, 100
1, 14220, Note_on_c, 7, 63, 100
1, 14220, Note_on_c, 7, 54, 100
1, 14220, Note_on_c, 9, 42, 50
1, 14230, Note_on_c, 9, 38, 0
1, 14240, Note_on_c, 0, 73, 0
1, 14248, Note_on_c, 9, 42, 0
1, 14250, Note_on_c, 9, 42, 50
1, 14260, Note_on_c, 9, 36, 0
1, 14260, Note_on_c, 4, 47, 0
1, 14278, Note_on_c, 9, 42, 0
1, 14280, Note_on_c, 9, 38, 110
1, 14280, Note_on_c, 9, 42, 50
1, 14308, Note_on_c, 9, 42, 0
1, 14310, Note_on_c, 9, 42, 50
1, 14310, Note_on_c, 4, 47, 100
1, 14330, Note_on_c, 4, 47, 0
1, 14338, Note_on_c, 9, 42, 0
1, 14340, Note_on_c, 7, 63, 0
1, 14340, Note_on_c, 7, 59, 0
1, 14340, Note_on_c, 7, 54, 0
1, 14340, Note_on_c, 9, 42, 50
1, 14340, Note_on_c, 9, 36, 100
1, 14340, Note_on_c, 4, 47, 100
1, 14360, Note_on_c, 9, 36, 0
1, 14360, Note_on_c, 9, 38, 0
1, 14368, Note_on_c, 9, 42, 0
1, 14370, Note_on_c, 9, 36, 100
1, 14370, Note_on_c, 9, 42, 50
1, 14380, Note_on_c, 4, 47, 0
1, 14390, Note_on_c, 9, 36, 0
1, 14398, Note_on_c, 3, 63, 0
1, 14398, Note_on_c, 3, 59, 0
1, 14398, Note_on_c, 9, 42, 0
1, 14398, Note_on_c, 3, 66, 0
1, 14400, Note_on_c, 3, 66, 100
1, 14400, Note_on_c, 3, 58, 100
1, 14400, Note_on_c, 7, 61, 100
1, 14400, Note_on_c, 7, 66, 100
1, 14400, Note_on_c, 9, 36, 100
1, 14400, Note_on_c, 7, 58, 100
1, 14400, Note_on_c, 4, 42, 100
1, 14400, Note_on_c, 9, 42, 50
1, 14400, Note_on_c, 3, 61, 100
1, 14428, Note_on_c, 9, 42, 0
1, 14430, Note_on_c, 9, 42, 50
1, 14440, Note_on_c, 9, 36, 0
1, 14458, Note_on_c, 9, 42, 0
1, 14460, Note_on_c, 7, 66, 0
1, 14460, Note_on_c, 7, 58, 0
1, 14460, Note_on_c, 7, 61, 0
1, 14460, Note_on_c, 4, 42, 0
1, 14460, Note_on_c, 9, 42, 50
1, 14460, Note_on_c, 0, 75, 100
1, 14488, Note_on_c, 9, 42, 0
1, 14490, Note_on_c, 9, 36, 100
1, 14490, Note_on_c, 4, 46, 100
1, 14490, Note_on_c, 7, 66, 100
1, 14490, Note_on_c, 7, 61, 100
1, 14490, Note_on_c, 9, 42, 50
1, 14490, Note_on_c, 7, 58, 100
1, 14518, Note_on_c, 9, 42, 0
1, 14520, Note_on_c, 0, 75, 0
1, 14520, Note_on_c, 9, 42, 50
1, 14520, Note_on_c, 9, 38, 110
1, 14530, Note_on_c, 9, 36, 0
1, 14530, Note_on_c, 4, 46, 0
1, 14548, Note_on_c, 9, 42, 0
1, 14550, Note_on_c, 7, 61, 0
1, 14550, Note_on_c, 7, 58, 0
1, 14550, Note_on_c, 7, 66, 0
1, 14550, Note_on_c, 4, 47, 100
1, 14550, Note_on_c, 9, 42, 50
1, 14550, Note_on_c, 0, 73, 100
1, 14570, Note_on_c, 4, 47, 0
1, 14578, Note_on_c, 3, 58, 0
1, 14578, Note_on_c, 3, 66, 0
1, 14578, Note_on_c, 3, 61, 0
1, 14578, Note_on_c, 9, 42, 0
1, 14580, Note_on_c, 9, 36, 100
1, 14580, Note_on_c, 7, 56, 100
1, 14580, Note_on_c, 3, 65, 100
1, 14580, Note_on_c, 3, 61, 100
1, 14580, Note_on_c, 7, 61, 100
1, 14580, Note_on_c, 4, 49, 100
1, 14580, Note_on_c, 7, 65, 100
1, 14580, Note_on_c, 3, 56, 100
1, 14580, Note_on_c, 9, 42, 50
1, 14600, Note_on_c, 9, 38, 0
1, 14608, Note_on_c, 9, 42, 0
1, 14610, Note_on_c, 0, 73, 0
1, 14610, Note_on_c, 9, 42, 50
1, 14620, Note_on_c, 9, 36, 0
1, 14638, Note_on_c, 9, 42, 0
1, 14640, Note_on_c, 4, 49, 0
1, 14640, Note_on_c, 9, 42, 50
1, 14640, Note_on_c, 0, 73, 100
1, 14668, Note_on_c, 9, 42, 0
1, 14670, Note_on_c, 4, 37, 100
1, 14670, Note_on_c, 9, 42, 50
1, 14690, Note_on_c, 4, 37, 0
1, 14698, Note_on_c, 9, 42, 0
1, 14700, Note_on_c, 9, 42, 50
1, 14700, Note_on_c, 4, 37, 100
1, 14700, Note_on_c, 9, 36, 100
1, 14720, Note_on_c, 0, 73, 0
1, 14728, Note_on_c, 9, 42, 0
1, 14730, Note_on_c, 9, 42, 50
1, 14740, Note_on_c, 4, 37, 0
1, 14740, Note_on_c, 9, 36, 0
1, 14758, Note_on_c, 9, 42, 0
1, 14760, Note_on_c, 4, 37, 100
1, 14760, Note_on_c, 9, 38, 110
1, 14760, Note_on_c, 9, 42, 50
1, 14788, Note_on_c, 9, 42, 0
1, 14790, Note_on_c, 9, 42, 50
1, 14818, Note_on_c, 9, 42, 0
1, 14820, Note_on_c, 7, 65, 0
1, 14820, Note_on_c, 7, 56, 0
1, 14820, Note_on_c, 7, 61, 0
1, 14820, Note_on_c, 0, 71, 100
1, 14820, Note_on_c, 9, 36, 100
1, 14820, Note_on_c, 9, 38, 100
1, 14820, Note_on_c, 9, 42, 50
1, 14840, Note_on_c, 9, 38, 0
1, 14840, Note_on_c, 9, 36, 0
1, 14840, Note_on_c, 4, 37, 0
1, 14848, Note_on_c, 9, 42, 0
1, 14850, Note_on_c, 9, 42, 50
1, 14850, Note_on_c, 9, 36, 100
1, 14860, Note_on_c, 9, 38, 0
1, 14860, Note_on_c, 0, 71, 0
1, 14867, Note_on_c, 3, 61, 0
1, 14867, Note_on_c, 3, 56, 0
1, 14867, Note_on_c, 3, 65, 0
1, 14870, Note_on_c, 9, 36, 0
1, 14878, Note_on_c, 9, 42, 0
1, 14880, Note_on_c, 4, 49, 100
1, 14880, Note_on_c, 7, 65, 100
1, 14880, Note_on_c, 7, 56, 100
1, 14880, Note_on_c, 9, 36, 100
1, 14880, Note_on_c, 3, 56, 100
1, 14880, Note_on_c, 3, 65, 100
1, 14880, Note_on_c, 9, 42, 50
1, 14880, Note_on_c, 0, 73, 100
1, 14908, Note_on_c, 9, 42, 0
1, 14910, Note_on_c, 9, 42, 50
1, 14920, Note_on_c, 9, 36, 0
1, 14938, Note_on_c, 9, 42, 0
1, 14940, Note_on_c, 0, 73, 0
1, 14940, Note_on_c, 9, 42, 50
1, 14960, Note_on_c, 4, 49, 0
1, 14968, Note_on_c, 9, 42, 0
1, 14970, Note_on_c, 9, 36, 100
1, 14970, Note_on_c, 0, 73, 100
1, 14970, Note_on_c, 9, 42, 50
1, 14990, Note_on_c, 0, 73, 0
1, 14998, Note_on_c, 3, 56, 0
1, 14998, Note_on_c, 7, 65, 0
1, 14998, Note_on_c, 7, 56, 0
1, 14998, Note_on_c, 3, 65, 0
1, 14998, Note_on_c, 9, 42, 0
1, 15000, Note_on_c, 3, 63, 100
1, 15000, Note_on_c, 0, 73, 100
1, 15000, Note_on_c, 3, 56, 100
1, 15000, Note_on_c, 7, 63, 100
1, 15000, Note_on_c, 4, 47, 100
1, 15000, Note_on_c, 9, 38, 110
1, 15000, Note_on_c, 7, 56, 100
1, 15000, Note_on_c, 9, 42, 50
1, 15010, Note_on_c, 9, 36, 0
1, 15020, Note_on_c, 0, 73, 0
1, 15028, Note_on_c, 9, 42, 0
1, 15030, Note_on_c, 0, 75, 100
1, 15030, Note_on_c, 9, 42, 50
1, 15050, Note_on_c, 0, 75, 0
1, 15058, Note_on_c, 9, 42, 0
1, 15060, Note_on_c, 9, 36, 100
1, 15060, Note_on_c, 0, 77, 100
1, 15060, Note_on_c, 9, 42, 50
1, 15080, Note_on_c, 4, 47, 0
1, 15080, Note_on_c, 9, 38, 0
1, 15088, Note_on_c, 9, 42, 0
1, 15090, Note_on_c, 9, 42, 50
1, 15100, Note_on_c, 0, 77, 0
1, 15100, Note_on_c, 9, 36, 0
1, 15118, Note_on_c, 7, 63, 0
1, 15118, Note_on_c, 3, 56, 0
1, 15118, Note_on_c, 3, 63, 0
1, 15118, Note_on_c, 9, 42, 0
1, 15118, Note_on_c, 7, 56, 0
1, 15120, Note_on_c, 7, 61, 100
1, 15120, Note_on_c, 7, 56, 100
1, 15120, Note_on_c, 3, 56, 100
1, 15120, Note_on_c, 9, 42, 50
1, 15120, Note_on_c, 0, 75, 100
1, 15120, Note_on_c, 3, 61, 100
1, 15120, Note_on_c, 4, 46, 100
1, 15148, Note_on_c, 9, 42, 0
1, 15150, Note_on_c, 9, 42, 50
1, 15178, Note_on_c, 9, 42, 0
1, 15180, Note_on_c, 9, 36, 100
1, 15180, Note_on_c, 9, 42, 50
1, 15200, Note_on_c, 4, 46, 0
1, 15200, Note_on_c, 0, 75, 0
1, 15208, Note_on_c, 9, 42, 0
1, 15210, Note_on_c, 9, 42, 50
1, 15220, Note_on_c, 9, 36, 0
1, 15238, Note_on_c, 7, 56, 0
1, 15238, Note_on_c, 3, 56, 0
1, 15238, Note_on_c, 3, 61, 0
1, 15238, Note_on_c, 9, 42, 0
1, 15238, Note_on_c, 7, 61, 0
1, 15240, Note_on_c, 3, 56, 100
1, 15240, Note_on_c, 9, 42, 50
1, 15240, Note_on_c, 3, 61, 100
1, 15240, Note_on_c, 0, 73, 100
1, 15240, Note_on_c, 3, 53, 100
1, 15240, Note_on_c, 7, 61, 100
1, 15240, Note_on_c, 4, 44, 100
1, 15240, Note_on_c, 7, 53, 100
1, 15240, Note_on_c, 7, 56, 100
1, 15240, Note_on_c, 9, 38, 110
1, 15268, Note_on_c, 9, 42, 0
1, 15270, Note_on_c, 9, 42, 50
1, 15280, Note_on_c, 0, 73, 0
1, 15298, Note_on_c, 9, 42, 0
1, 15300, Note_on_c, 9, 42, 50
1, 15300, Note_on_c, 0, 77, 100
1, 15300, Note_on_c, 9, 36, 100
1, 15320, Note_on_c, 9, 36, 0
1, 15320, Note_on_c, 9, 38, 0
1, 15320, Note_on_c, 4, 44, 0
1, 15328, Note_on_c, 9, 42, 0
1, 15330, Note_on_c, 9, 36, 100
1, 15330, Note_on_c, 9, 42, 50
1, 15350, Note_on_c, 9, 36, 0
1, 15358, Note_on_c, 7, 56, 0
1, 15358, Note_on_c, 7, 53, 0
1, 15358, Note_on_c, 7, 61, 0
1, 15358, Note_on_c, 9, 42, 0
1, 15358, Note_on_c, 3, 53, 0
1, 15358, Note_on_c, 3, 56, 0
1, 15358, Note_on_c, 3, 61, 0
1, 15360, Note_on_c, 7, 54, 100
1, 15360, Note_on_c, 9, 36, 100
1, 15360, Note_on_c, 7, 58, 100
1, 15360, Note_on_c, 9, 42, 50
1, 15360, Note_on_c, 4, 42, 100
1, 15360, Note_on_c, 3, 66, 100
1, 15360, Note_on_c, 3, 58, 100
1, 15360, Note_on_c, 3, 61, 100
1, 15380, Note_on_c, 4, 42, 0
1, 15388, Note_on_c, 9, 42, 0
1, 15390, Note_on_c, 4, 44, 100
1, 15390, Note_on_c, 9, 42, 50
1, 15400, Note_on_c, 9, 36, 0
1, 15410, Note_on_c, 4, 44, 0
1, 15418, Note_on_c, 9, 42, 0
1, 15420, Note_on_c, 7, 58, 0
1, 15420, Note_on_c, 7, 54, 0
1, 15420, Note_on_c, 4, 46, 100
1, 15420, Note_on_c, 9, 42, 50
1, 15448, Note_on_c, 9, 42, 0
1, 15450, Note_on_c, 9, 42, 50
1, 15450, Note_on_c, 9, 36, 100
1, 15450, Note_on_c, 7, 61, 100
1, 15460, Note_on_c, 0, 77, 0
1, 15460, Note_on_c, 4, 46, 0
1, 15478, Note_on_c, 9, 42, 0
1, 15480, Note_on_c, 9, 38, 110
1, 15480, Note_on_c, 4, 49, 100
1, 15480, Note_on_c, 9, 42, 50
1, 15490, Note_on_c, 9, 36, 0
1, 15500, Note_on_c, 4, 49, 0
1, 15508, Note_on_c, 9, 42, 0
1, 15510, Note_on_c, 7, 61, 0
1, 15510, Note_on_c, 4, 51, 100
1, 15510, Note_on_c, 9, 42, 50
1, 15530, Note_on_c, 4, 51, 0
1, 15538, Note_on_c, 3, 61, 0
1, 15538, Note_on_c, 3, 66, 0
1, 15538, Note_on_c, 3, 58, 0
1, 15538, Note_on_c, 9, 42, 0
1, 15540, Note_on_c, 3, 65, 100
1, 15540, Note_on_c, 9, 42, 50
1, 15540, Note_on_c, 3, 61, 100
1, 15540, Note_on_c, 7, 56, 100
1, 15540, Note_on_c, 4, 49, 100
1, 15540, Note_on_c, 9, 36, 100
1, 15540, Note_on_c, 3, 56, 100
1, 15540, Note_on_c, 7, 65, 100
1, 15540, Note_on_c, 7, 61, 100
1, 15560, Note_on_c, 9, 38, 0
1, 15568, Note_on_c, 9, 42, 0
1, 15570, Note_on_c, 9, 42, 50
1, 15580, Note_on_c, 9, 36, 0
1, 15598, Note_on_c, 9, 42, 0
1, 15600, Note_on_c, 4, 49, 0
1, 15600, Note_on_c, 9, 42, 50
1, 15628, Note_on_c, 9, 42, 0
1, 15630, Note_on_c, 4, 37, 100
1, 15630, Note_on_c, 9, 42, 50
1, 15650, Note_on_c, 4, 37, 0
1, 15658, Note_on_c, 9, 42, 0
1, 15660, Note_on_c, 9, 42, 50
1, 15660, Note_on_c, 9, 47, 100
1, 15660, Note_on_c, 9, 36, 100
1, 15660, Note_on_c, 4, 37, 100
1, 15680, Note_on_c, 9, 47, 0
1, 15688, Note_on_c, 9, 42, 0
1, 15690, Note_on_c, 9, 42, 50
1, 15690, Note_on_c, 9, 47, 100
1, 15700, Note_on_c, 9, 36, 0
1, 15700, Note_on_c, 4, 37, 0
1, 15710, Note_on_c, 9, 47, 0
1, 15718, Note_on_c, 9, 42, 0
1, 15720, Note_on_c, 9, 42, 50
1, 15720, Note_on_c, 9, 38, 110
1, 15720, Note_on_c, 9, 45, 100
1, 15720, Note_on_c, 4, 37, 100
1, 15740, Note_on_c, 9, 45, 0
1, 15748, Note_on_c, 9, 42, 0
1, 15750, Note_on_c, 9, 42, 50
1, 15750, Note_on_c, 9, 45, 100
1, 15770, Note_on_c, 9, 45, 0
1, 15778, Note_on_c, 9, 42, 0
1, 15780, Note_on_c, 7, 65, 0
1, 15780, Note_on_c, 7, 61, 0
1, 15780, Note_on_c, 7, 56, 0
1, 15780, Note_on_c, 9, 42, 50
1, 15780, Note_on_c, 9, 43, 100
1, 15780, Note_on_c, 9, 36, 100
1, 15800, Note_on_c, 9, 36, 0
1, 15800, Note_on_c, 9, 43, 0
1, 15800, Note_on_c, 4, 37, 0
1, 15800, Note_on_c, 9, 38, 0
1, 15808, Note_on_c, 9, 42, 0
1, 15810, Note_on_c, 9, 42, 50
1, 15810, Note_on_c, 9, 36, 100
1, 15810, Note_on_c, 9, 43, 100
1, 15827, Note_on_c, 3, 65, 0
1, 15827, Note_on_c, 3, 56, 0
1, 15827, Note_on_c, 3, 61, 0
1, 15830, Note_on_c, 9, 43, 0
1, 15830, Note_on_c, 9, 36, 0
1, 15838, Note_on_c, 9, 42, 0
1, 15840, Note_on_c, 9, 36, 100
1, 15840, Note_on_c, 9, 51, 100
1, 15840, Note_on_c, 4, 39, 100
1, 15840, Note_on_c, 1, 63, 100
1, 15840, Note_on_c, 3, 63, 100
1, 15840, Note_on_c, 3, 65, 100
1, 15880, Note_on_c, 9, 51, 0
1, 15880, Note_on_c, 9, 36, 0
1, 15885, Note_on_c, 1, 63, 0
1, 15900, Note_on_c, 4, 39, 0
1, 15900, Note_on_c, 1, 66, 100
1, 15900, Note_on_c, 9, 51, 100
1, 15930, Note_on_c, 4, 39, 100
1, 15940, Note_on_c, 9, 51, 0
1, 15945, Note_on_c, 1, 66, 0
1, 15960, Note_on_c, 9, 38, 110
1, 15960, Note_on_c, 1, 70, 100
1, 15960, Note_on_c, 9, 51, 100
1, 15990, Note_on_c, 4, 39, 0
1, 16000, Note_on_c, 9, 51, 0
1, 16005, Note_on_c, 1, 70, 0
1, 16018, Note_on_c, 3, 63, 0
1, 16018, Note_on_c, 3, 65, 0
1, 16020, Note_on_c, 4, 42, 100
1, 16020, Note_on_c, 9, 36, 100
1, 16020, Note_on_c, 9, 51, 100
1, 16020, Note_on_c, 3, 61, 100
1, 16020, Note_on_c, 3, 68, 100
1, 16020, Note_on_c, 3, 58, 100
1, 16020, Note_on_c, 1, 68, 100
1, 16040, Note_on_c, 9, 38, 0
1, 16060, Note_on_c, 9, 51, 0
1, 16060, Note_on_c, 9, 36, 0
1, 16080, Note_on_c, 4, 42, 0
1, 16080, Note_on_c, 9, 51, 100
1, 16110, Note_on_c, 1, 68, 0
1, 16110, Note_on_c, 4, 42, 100
1, 16120, Note_on_c, 9, 51, 0
1, 16130, Note_on_c, 4, 42, 0
1, 16140, Note_on_c, 1, 65, 100
1, 16140, Note_on_c, 9, 51, 100
1, 16140, Note_on_c, 4, 42, 100
1, 16140, Note_on_c, 9, 36, 100
1, 16180, Note_on_c, 9, 36, 0
1, 16180, Note_on_c, 9, 51, 0
1, 16185, Note_on_c, 1, 65, 0
1, 16200, Note_on_c, 1, 61, 100
1, 16200, Note_on_c, 9, 51, 100
1, 16200, Note_on_c, 9, 38, 110
1, 16220, Note_on_c, 4, 42, 0
1, 16240, Note_on_c, 9, 51, 0
1, 16245, Note_on_c, 1, 61, 0
1, 16258, Note_on_c, 3, 58, 0
1, 16258, Note_on_c, 3, 61, 0
1, 16258, Note_on_c, 3, 68, 0
1, 16260, Note_on_c, 1, 59, 100
1, 16260, Note_on_c, 4, 42, 100
1, 16260, Note_on_c, 9, 36, 100
1, 16260, Note_on_c, 3, 59, 100
1, 16260, Note_on_c, 3, 56, 100
1, 16260, Note_on_c, 9, 51, 100
1, 16280, Note_on_c, 9, 36, 0
1, 16280, Note_on_c, 9, 38, 0
1, 16300, Note_on_c, 4, 42, 0
1, 16300, Note_on_c, 9, 51, 0
1, 16320, Note_on_c, 4, 44, 100
1, 16320, Note_on_c, 9, 51, 100
1, 16360, Note_on_c, 9, 51, 0
1, 16380, Note_on_c, 4, 44, 0
1, 16380, Note_on_c, 9, 51, 100
1, 16380, Note_on_c, 1, 63, 100
1, 16380, Note_on_c, 9, 36, 100
1, 16395, Note_on_c, 1, 59, 0
1, 16410, Note_on_c, 4, 44, 100
1, 16420, Note_on_c, 9, 51, 0
1, 16420, Note_on_c, 9, 36, 0
1, 16425, Note_on_c, 1, 63, 0
1, 16440, Note_on_c, 9, 38, 110
1, 16440, Note_on_c, 9, 51, 100
1, 16440, Note_on_c, 1, 66, 100
1, 16470, Note_on_c, 4, 44, 0
1, 16480, Note_on_c, 9, 51, 0
1, 16485, Note_on_c, 1, 66, 0
1, 16498, Note_on_c, 3, 56, 0
1, 16498, Note_on_c, 3, 59, 0
1, 16500, Note_on_c, 3, 61, 100
1, 16500, Note_on_c, 3, 68, 100
1, 16500, Note_on_c, 4, 49, 100
1, 16500, Note_on_c, 9, 51, 100
1, 16500, Note_on_c, 1, 68, 100
1, 16500, Note_on_c, 9, 36, 100
1, 16520, Note_on_c, 9, 38, 0
1, 16540, Note_on_c, 9, 51, 0
1, 16540, Note_on_c, 9, 36, 0
1, 16545, Note_on_c, 1, 68, 0
1, 16560, Note_on_c, 4, 49, 0
1, 16560, Note_on_c, 9, 36, 100
1, 16560, Note_on_c, 9, 51, 100
1, 16560, Note_on_c, 1, 65, 100
1, 16590, Note_on_c, 4, 49, 100
1, 16600, Note_on_c, 9, 51, 0
1, 16600, Note_on_c, 9, 36, 0
1, 16605, Note_on_c, 1, 65, 0
1, 16610, Note_on_c, 4, 49, 0
1, 16620, Note_on_c, 1, 61, 100
1, 16620, Note_on_c, 4, 49, 100
1, 16620, Note_on_c, 9, 51, 100
1, 16660, Note_on_c, 9, 51, 0
1, 16665, Note_on_c, 1, 61, 0
1, 16680, Note_on_c, 1, 56, 100
1, 16680, Note_on_c, 9, 38, 110
1, 16680, Note_on_c, 9, 51, 100
1, 16700, Note_on_c, 4, 49, 0
1, 16720, Note_on_c, 9, 51, 0
1, 16740, Note_on_c, 9, 51, 100
1, 16740, Note_on_c, 4, 49, 100
1, 16760, Note_on_c, 4, 49, 0
1, 16760, Note_on_c, 9, 38, 0
1, 16770, Note_on_c, 1, 56, 0
1, 16770, Note_on_c, 4, 51, 100
1, 16780, Note_on_c, 9, 51, 0
1, 16787, Note_on_c, 3, 68, 0
1, 16787, Note_on_c, 3, 61, 0
1, 16790, Note_on_c, 4, 51, 0
1, 16800, Note_on_c, 9, 36, 100
1, 16800, Note_on_c, 9, 51, 100
1, 16800, Note_on_c, 3, 65, 100
1, 16800, Note_on_c, 3, 63, 100
1, 16800, Note_on_c, 4, 39, 100
1, 16800, Note_on_c, 1, 63, 100
1, 16840, Note_on_c, 9, 51, 0
1, 16840, Note_on_c, 9, 36, 0
1, 16845, Note_on_c, 1, 63, 0
1, 16860, Note_on_c, 4, 39, 0
1, 16860, Note_on_c, 9, 51, 100
1, 16860, Note_on_c, 1, 66, 100
1, 16890, Note_on_c, 4, 39, 100
1, 16900, Note_on_c, 9, 51, 0
1, 16905, Note_on_c, 1, 66, 0
1, 16920, Note_on_c, 9, 51, 100
1, 16920, Note_on_c, 9, 38, 110
1, 16920, Note_on_c, 1, 70, 100
1, 16950, Note_on_c, 4, 39, 0
1, 16960, Note_on_c, 9, 51, 0
1, 16965, Note_on_c, 1, 70, 0
1, 16978, Note_on_c, 3, 63, 0
1, 16978, Note_on_c, 3, 65, 0
1, 16980, Note_on_c, 3, 58, 100
1, 16980, Note_on_c, 1, 68, 100
1, 16980, Note_on_c, 3, 61, 100
1, 16980, Note_on_c, 9, 36, 100
1, 16980, Note_on_c, 4, 42, 100
1, 16980, Note_on_c, 3, 68, 100
1, 16980, Note_on_c, 9, 51, 100
1, 17000, Note_on_c, 9, 38, 0
1, 17020, Note_on_c, 9, 51, 0
1, 17020, Note_on_c, 9, 36, 0
1, 17040, Note_on_c, 4, 42, 0
1, 17040, Note_on_c, 9, 51, 100
1, 17070, Note_on_c, 1, 68, 0
1, 17070, Note_on_c, 4, 42, 100
1, 17080, Note_on_c, 9, 51, 0
1, 17090, Note_on_c, 4, 42, 0
1, 17100, Note_on_c, 9, 51, 100
1, 17100, Note_on_c, 4, 42, 100
1, 17100, Note_on_c, 9, 36, 100
1, 17100, Note_on_c, 1, 65, 100
1, 17140, Note_on_c, 9, 36, 0
1, 17140, Note_on_c, 9, 51, 0
1, 17145, Note_on_c, 1, 65, 0
1, 17160, Note_on_c, 9, 38, 110
1, 17160, Note_on_c, 9, 51, 100
1, 17160, Note_on_c, 1, 61, 100
1, 17180, Note_on_c, 4, 42, 0
1, 17200, Note_on_c, 9, 51, 0
1, 17205, Note_on_c, 1, 61, 0
1, 17218, Note_on_c, 3, 58, 0
1, 17218, Note_on_c, 3, 68, 0
1, 17218, Note_on_c, 3, 61, 0
1, 17220, Note_on_c, 9, 51, 100
1, 17220, Note_on_c, 4, 44, 100
1, 17220, Note_on_c, 3, 71, 100
1, 17220, Note_on_c, 9, 36, 100
1, 17220, Note_on_c, 3, 63, 100
1, 17220, Note_on_c, 3, 59, 100
1, 17220, Note_on_c, 3, 66, 100
1, 17220, Note_on_c, 1, 71, 100
1, 17240, Note_on_c, 9, 36, 0
1, 17240, Note_on_c, 9, 38, 0
1, 17260, Note_on_c, 9, 51, 0
1, 17280, Note_on_c, 9, 51, 100
1, 17310, Note_on_c, 1, 71, 0
1, 17320, Note_on_c, 9, 51, 0
1, 17338, Note_on_c, 3, 63, 0
1, 17338, Note_on_c, 3, 66, 0
1, 17338, Note_on_c, 3, 71, 0
1, 17338, Note_on_c, 3, 59, 0
1, 17340, Note_on_c, 4, 44, 0
1, 17340, Note_on_c, 3, 70, 100
1, 17340, Note_on_c, 1, 70, 100
1, 17340, Note_on_c, 4, 47, 100
1, 17340, Note_on_c, 3, 66, 100
1, 17340, Note_on_c, 3, 61, 100
1, 17340, Note_on_c, 9, 51, 100
1, 17340, Note_on_c, 9, 36, 100
1, 17380, Note_on_c, 9, 36, 0
1, 17380, Note_on_c, 9, 51, 0
1, 17400, Note_on_c, 9, 38, 110
1, 17400, Note_on_c, 9, 51, 100
1, 17420, Note_on_c, 4, 47, 0
1, 17430, Note_on_c, 1, 70, 0
1, 17440, Note_on_c, 9, 51, 0
1, 17458, Note_on_c, 3, 66, 0
1, 17458, Note_on_c, 3, 70, 0
1, 17458, Note_on_c, 3, 61, 0
1, 17460, Note_on_c, 1, 68, 100
1, 17460, Note_on_c, 3, 65, 100
1, 17460, Note_on_c, 9, 36, 100
1, 17460, Note_on_c, 3, 61, 100
1, 17460, Note_on_c, 3, 68, 100
1, 17460, Note_on_c, 4, 49, 100
1, 17460, Note_on_c, 9, 51, 100
1, 17480, Note_on_c, 9, 38, 0
1, 17500, Note_on_c, 9, 51, 0
1, 17500, Note_on_c, 9, 36, 0
1, 17500, Note_on_c, 4, 49, 0
1, 17505, Note_on_c, 1, 68, 0
1, 17520, Note_on_c, 1, 68, 100
1, 17520, Note_on_c, 4, 49, 100
1, 17520, Note_on_c, 9, 51, 100
1, 17520, Note_on_c, 9, 36, 100
1, 17560, Note_on_c, 9, 36, 0
1, 17560, Note_on_c, 9, 51, 0
1, 17580, Note_on_c, 9, 51, 100
1, 17620, Note_on_c, 9, 51, 0
1, 17640, Note_on_c, 9, 51, 100
1, 17640, Note_on_c, 9, 38, 110
1, 17680, Note_on_c, 9, 51, 0
1, 17680, Note_on_c, 4, 49, 0
1, 17700, Note_on_c, 9, 51, 100
1, 17720, Note_on_c, 1, 68, 0
1, 17720, Note_on_c, 9, 38, 0
1, 17740, Note_on_c, 9, 51, 0
1, 17747, Note_on_c, 3, 61, 0
1, 17747, Note_on_c, 3, 68, 0
1, 17747, Note_on_c, 3, 65, 0
1, 17760, Note_on_c, 7, 59, 100
1, 17760, Note_on_c, 4, 42, 100
1, 17760, Note_on_c, 9, 42, 50
1, 17760, Note_on_c, 3, 59, 100
1, 17760, Note_on_c, 3, 68, 100
1, 17760, Note_on_c, 3, 61, 100
1, 17760, Note_on_c, 9, 36, 100
1, 17760, Note_on_c, 7, 56, 100
1, 17760, Control_c, 7, 7, 100
1, 17788, Note_on_c, 9, 42, 0
1, 17790, Note_on_c, 9, 42, 50
1, 17800, Note_on_c, 9, 36, 0
1, 17818, Note_on_c, 9, 42, 0
1, 17820, Note_on_c, 7, 59, 0
1, 17820, Note_on_c, 7, 56, 0
1, 17820, Note_on_c, 4, 42, 0
1, 17820, Note_on_c, 9, 42, 50
1, 17848, Note_on_c, 9, 42, 0
1, 17850, Note_on_c, 4, 46, 100
1, 17850, Note_on_c, 7, 56, 100
1, 17850, Note_on_c, 9, 42, 50
1, 17850, Note_on_c, 7, 61, 100
1, 17850, Note_on_c, 9, 36, 100
1, 17878, Note_on_c, 9, 42, 0
1, 17880, Note_on_c, 9, 42, 50
1, 17880, Note_on_c, 9, 38, 110
1, 17890, Note_on_c, 9, 36, 0
1, 17908, Note_on_c, 9, 42, 0
1, 17910, Note_on_c, 4, 46, 0
1, 17910, Note_on_c, 9, 42, 50
1, 17938, Note_on_c, 9, 42, 0
1, 17940, Note_on_c, 9, 42, 50
1, 17940, Note_on_c, 9, 36, 100
1, 17940, Note_on_c, 4, 49, 100
1, 17960, Note_on_c, 7, 61, 0
1, 17960, Note_on_c, 9, 38, 0
1, 17960, Note_on_c, 7, 56, 0
1, 17968, Note_on_c, 9, 42, 0
1, 17970, Note_on_c, 9, 42, 50
1, 17980, Note_on_c, 9, 36, 0
1, 17998, Note_on_c, 9, 42, 0
1, 18000, Note_on_c, 9, 42, 50
1, 18000, Note_on_c, 7, 59, 100
1, 18000, Note_on_c, 7, 56, 100
1, 18020, Note_on_c, 4, 49, 0
1, 18028, Note_on_c, 9, 42, 0
1, 18030, Note_on_c, 9, 42, 50
1, 18040, Note_on_c, 7, 59, 0
1, 18040, Note_on_c, 7, 56, 0
1, 18058, Note_on_c, 9, 42, 0
1, 18060, Note_on_c, 9, 36, 100
1, 18060, Note_on_c, 9, 42, 50
1, 18060, Note_on_c, 7, 56, 100
1, 18060, Note_on_c, 7, 59, 100
1, 18060, Note_on_c, 4, 49, 100
1, 18088, Note_on_c, 9, 42, 0
1, 18090, Note_on_c, 9, 42, 50
1, 18100, Note_on_c, 9, 36, 0
1, 18100, Note_on_c, 7, 59, 0
1, 18100, Note_on_c, 7, 56, 0
1, 18118, Note_on_c, 9, 42, 0
1, 18120, Note_on_c, 9, 38, 110
1, 18120, Note_on_c, 7, 56, 100
1, 18120, Note_on_c, 7, 61, 100
1, 18120, Note_on_c, 9, 42, 50
1, 18140, Note_on_c, 4, 49, 0
1, 18148, Note_on_c, 9, 42, 0
1, 18150, Note_on_c, 9, 42, 50
1, 18178, Note_on_c, 9, 42, 0
1, 18180, Note_on_c, 9, 42, 50
1, 18180, Note_on_c, 9, 36, 100
1, 18180, Note_on_c, 4, 49, 100
1, 18200, Note_on_c, 4, 49, 0
1, 18200, Note_on_c, 9, 38, 0
1, 18200, Note_on_c, 9, 36, 0
1, 18200, Note_on_c, 7, 61, 0
1, 18200, Note_on_c, 7, 56, 0
1, 18208, Note_on_c, 9, 42, 0
1, 18210, Note_on_c, 9, 36, 100
1, 18210, Note_on_c, 9, 42, 50
1, 18210, Note_on_c, 4, 49, 100
1, 18230, Note_on_c, 4, 49, 0
1, 18230, Note_on_c, 9, 36, 0
1, 18238, Note_on_c, 3, 61, 0
1, 18238, Note_on_c, 3, 68, 0
1, 18238, Note_on_c, 3, 59, 0
1, 18238, Note_on_c, 9, 42, 0
1, 18240, Note_on_c, 4, 42, 100
1, 18240, Note_on_c, 3, 61, 100
1, 18240, Note_on_c, 3, 68, 100
1, 18240, Note_on_c, 9, 36, 100
1, 18240, Note_on_c, 9, 42, 50
1, 18240, Note_on_c, 3, 59, 100
1, 18240, Note_on_c, 7, 56, 100
1, 18240, Note_on_c, 7, 59, 100
1, 18268, Note_on_c, 9, 42, 0
1, 18270, Note_on_c, 9, 42, 50
1, 18280, Note_on_c, 9, 36, 0
1, 18298, Note_on_c, 9, 42, 0
1, 18300, Note_on_c, 7, 59, 0
1, 18300, Note_on_c, 4, 42, 0
1, 18300, Note_on_c, 7, 56, 0
1, 18300, Note_on_c, 9, 42, 50
1, 18328, Note_on_c, 9, 42, 0
1, 18330, Note_on_c, 7, 61, 100
1, 18330, Note_on_c, 9, 42, 50
1, 18330, Note_on_c, 7, 56, 100
1, 18330, Note_on_c, 4, 46, 100
1, 18330, Note_on_c, 9, 36, 100
1, 18358, Note_on_c, 9, 42, 0
1, 18360, Note_on_c, 9, 42, 50
1, 18360, Note_on_c, 9, 38, 110
1, 18370, Note_on_c, 9, 36, 0
1, 18388, Note_on_c, 9, 42, 0
1, 18390, Note_on_c, 4, 46, 0
1, 18390, Note_on_c, 9, 42, 50
1, 18418, Note_on_c, 9, 42, 0
1, 18420, Note_on_c, 4, 49, 100
1, 18420, Note_on_c, 9, 42, 50
1, 18420, Note_on_c, 9, 36, 100
1, 18440, Note_on_c, 7, 56, 0
1, 18440, Note_on_c, 9, 38, 0
1, 18440, Note_on_c, 7, 61, 0
1, 18448, Note_on_c, 9, 42, 0
1, 18450, Note_on_c, 9, 42, 50
1, 18460, Note_on_c, 9, 36, 0
1, 18478, Note_on_c, 9, 42, 0
1, 18480, Note_on_c, 7, 59, 100
1, 18480, Note_on_c, 9, 42, 50
1, 18480, Note_on_c, 7, 56, 100
1, 18500, Note_on_c, 4, 49, 0
1, 18508, Note_on_c, 9, 42, 0
1, 18510, Note_on_c, 9, 42, 50
1, 18520, Note_on_c, 7, 59, 0
1, 18520, Note_on_c, 7, 56, 0
1, 18538, Note_on_c, 9, 42, 0
1, 18540, Note_on_c, 7, 56, 100
1, 18540, Note_on_c, 4, 49, 100
1, 18540, Note_on_c, 7, 59, 100
1, 18540, Note_on_c, 9, 42, 50
1, 18540, Note_on_c, 9, 36, 100
1, 18568, Note_on_c, 9, 42, 0
1, 18570, Note_on_c, 9, 42, 50
1, 18580, Note_on_c, 9, 36, 0
1, 18580, Note_on_c, 7, 59, 0
1, 18580, Note_on_c, 7, 56, 0
1, 18598, Note_on_c, 9, 42, 0
1, 18600, Note_on_c, 7, 56, 100
1, 18600, Note_on_c, 7, 61, 100
1, 18600, Note_on_c, 9, 38, 110
1, 18600, Note_on_c, 9, 42, 50
1, 18620, Note_on_c, 4, 49, 0
1, 18628, Note_on_c, 9, 42, 0
1, 18630, Note_on_c, 9, 42, 50
1, 18658, Note_on_c, 9, 42, 0
1, 18660, Note_on_c, 4, 49, 100
1, 18660, Note_on_c, 9, 36, 100
1, 18660, Note_on_c, 9, 42, 50
1, 18680, Note_on_c, 9, 36, 0
1, 18680, Note_on_c, 4, 49, 0
1, 18680, Note_on_c, 7, 56, 0
1, 18680, Note_on_c, 7, 61, 0
1, 18680, Note_on_c, 9, 38, 0
1, 18688, Note_on_c, 9, 42, 0
1, 18690, Note_on_c, 4, 49, 100
1, 18690, Note_on_c, 9, 42, 50
1, 18690, Note_on_c, 9, 36, 100
1, 18710, Note_on_c, 9, 36, 0
1, 18710, Note_on_c, 4, 49, 0
1, 18718, Note_on_c, 3, 59, 0
1, 18718, Note_on_c, 3, 61, 0
1, 18718, Note_on_c, 3, 68, 0
1, 18718, Note_on_c, 9, 42, 0
1, 18720, Note_on_c, 3, 68, 100
1, 18720, Note_on_c, 3, 61, 100
1, 18720, Note_on_c, 3, 59, 100
1, 18720, Note_on_c, 7, 56, 100
1, 18720, Note_on_c, 9, 42, 50
1, 18720, Note_on_c, 4, 42, 100
1, 18720, Note_on_c, 7, 59, 100
1, 18720, Note_on_c, 9, 36, 100
1, 18748, Note_on_c, 9, 42, 0
1, 18750, Note_on_c, 9, 42, 50
1, 18760, Note_on_c, 9, 36, 0
1, 18778, Note_on_c, 9, 42, 0
1, 18780, Note_on_c, 4, 42, 0
1, 18780, Note_on_c, 7, 56, 0
1, 18780, Note_on_c, 7, 59, 0
1, 18780, Note_on_c, 9, 42, 50
1, 18808, Note_on_c, 9, 42, 0
1, 18810, Note_on_c, 9, 42, 50
1, 18810, Note_on_c, 9, 36, 100
1, 18810, Note_on_c, 7, 56, 100
1, 18810, Note_on_c, 4, 46, 100
1, 18810, Note_on_c, 7, 61, 100
1, 18838, Note_on_c, 9, 42, 0
1, 18840, Note_on_c, 9, 38, 110
1, 18840, Note_on_c, 9, 42, 50
1, 18850, Note_on_c, 9, 36, 0
1, 18868, Note_on_c, 9, 42, 0
1, 18870, Note_on_c, 4, 46, 0
1, 18870, Note_on_c, 9, 42, 50
1, 18898, Note_on_c, 9, 42, 0
1, 18900, Note_on_c, 9, 42, 50
1, 18900, Note_on_c, 9, 36, 100
1, 18900, Note_on_c, 4, 49, 100
1, 18920, Note_on_c, 7, 56, 0
1, 18920, Note_on_c, 9, 38, 0
1, 18920, Note_on_c, 7, 61, 0
1, 18928, Note_on_c, 9, 42, 0
1, 18930, Note_on_c, 9, 42, 50
1, 18940, Note_on_c, 9, 36, 0
1, 18958, Note_on_c, 9, 42, 0
1, 18960, Note_on_c, 9, 42, 50
1, 18960, Note_on_c, 7, 56, 100
1, 18960, Note_on_c, 7, 59, 100
1, 18980, Note_on_c, 4, 49, 0
1, 18988, Note_on_c, 9, 42, 0
1, 18990, Note_on_c, 9, 42, 50
1, 18990, Note_on_c, 9, 38, 110
1, 19000, Note_on_c, 7, 56, 0
1, 19000, Note_on_c, 7, 59, 0
1, 19010, Note_on_c, 9, 38, 0
1, 19018, Note_on_c, 9, 42, 0
1, 19020, Note_on_c, 7, 56, 100
1, 19020, Note_on_c, 9, 36, 100
1, 19020, Note_on_c, 7, 59, 100
1, 19020, Note_on_c, 4, 49, 100
1, 19020, Note_on_c, 9, 42, 50
1, 19048, Note_on_c, 9, 42, 0
1, 19050, Note_on_c, 9, 42, 50
1, 19060, Note_on_c, 7, 59, 0
1, 19060, Note_on_c, 7, 56, 0
1, 19060, Note_on_c, 9, 36, 0
1, 19078, Note_on_c, 9, 42, 0
1, 19080, Note_on_c, 7, 61, 100
1, 19080, Note_on_c, 9, 38, 110
1, 19080, Note_on_c, 9, 42, 50
1, 19080, Note_on_c, 7, 56, 100
1, 19100, Note_on_c, 4, 49, 0
1, 19108, Note_on_c, 9, 42, 0
1, 19110, Note_on_c, 9, 42, 50
1, 19138, Note_on_c, 9, 42, 0
1, 19140, Note_on_c, 9, 42, 50
1, 19140, Note_on_c, 4, 49, 100
1, 19140, Note_on_c, 9, 36, 100
1, 19160, Note_on_c, 9, 36, 0
1, 19160, Note_on_c, 7, 61, 0
1, 19160, Note_on_c, 4, 49, 0
1, 19160, Note_on_c, 9, 38, 0
1, 19160, Note_on_c, 7, 56, 0
1, 19168, Note_on_c, 9, 42, 0
1, 19170, Note_on_c, 9, 36, 100
1, 19170, Note_on_c, 9, 42, 50
1, 19170, Note_on_c, 4, 49, 100
1, 19190, Note_on_c, 4, 49, 0
1, 19190, Note_on_c, 9, 36, 0
1, 19198, Tempo, 566038
1, 19198, Note_on_c, 3, 68, 0
1, 19198, Note_on_c, 3, 61, 0
1, 19198, Note_on_c, 3, 59, 0
1, 19198, Note_on_c, 9, 42, 0
1, 19200, Note_on_c, 9, 36, 100
1, 19200, Note_on_c, 3, 66, 100
1, 19200, Note_on_c, 7, 61, 100
1, 19200, Note_on_c, 4, 46, 100
1, 19200, Note_on_c, 9, 42, 50
1, 19200, Note_on_c, 7, 54, 100
1, 19200, Note_on_c, 9, 52, 100
1, 19200, Note_on_c, 7, 66, 100
1, 19200, Note_on_c, 3, 54, 100
1, 19200, Note_on_c, 3, 61, 100
1, 19228, Note_on_c, 9, 42, 0
1, 19230, Note_on_c, 9, 42, 50
1, 19240, Note_on_c, 9, 36, 0
1, 19240, Note_on_c, 9, 52, 0
1, 19258, Note_on_c, 9, 42, 0
1, 19260, Note_on_c, 3, 66, 0
1, 19260, Note_on_c, 7, 54, 0
1, 19260, Note_on_c, 7, 61, 0
1, 19260, Note_on_c, 4, 46, 0
1, 19260, Note_on_c, 3, 54, 0
1, 19260, Note_on_c, 3, 61, 0
1, 19260, Note_on_c, 7, 66, 0
1, 19260, Note_on_c, 9, 42, 50
1, 19288, Note_on_c, 9, 42, 0
1, 19290, Note_on_c, 7, 64, 100
1, 19290, Note_on_c, 9, 36, 100
1, 19290, Note_on_c, 4, 47, 100
1, 19290, Note_on_c, 3, 61, 100
1, 19290, Note_on_c, 3, 54, 100
1, 19290, Note_on_c, 3, 64, 100
1, 19290, Note_on_c, 7, 61, 100
1, 19290, Note_on_c, 7, 54, 100
1, 19290, Note_on_c, 9, 42, 50
1, 19290, Note_on_c, 9, 52, 100
1, 19318, Note_on_c, 9, 42, 0
1, 19320, Note_on_c, 9, 42, 50
1, 19330, Note_on_c, 9, 52, 0
1, 19330, Note_on_c, 9, 36, 0
1, 19348, Note_on_c, 9, 42, 0
1, 19350, Note_on_c, 7, 64, 0
1, 19350, Note_on_c, 3, 64, 0
1, 19350, Note_on_c, 4, 47, 0
1, 19350, Note_on_c, 3, 61, 0
1, 19350, Note_on_c, 7, 54, 0
1, 19350, Note_on_c, 7, 61, 0
1, 19350, Note_on_c, 3, 54, 0
1, 19350, Note_on_c, 9, 42, 50
1, 19378, Note_on_c, 9, 42, 0
1, 19380, Note_on_c, 9, 36, 100
1, 19380, Note_on_c, 4, 49, 100
1, 19380, Note_on_c, 3, 61, 100
1, 19380, Note_on_c, 7, 61, 100
1, 19380, Note_on_c, 7, 56, 100
1, 19380, Note_on_c, 9, 42, 50
1, 19380, Note_on_c, 3, 56, 100
1, 19380, Note_on_c, 9, 52, 100
1, 19408, Note_on_c, 9, 42, 0
1, 19410, Note_on_c, 9, 42, 50
1, 19420, Note_on_c, 9, 52, 0
1, 19420, Note_on_c, 9, 36, 0
1, 19438, Note_on_c, 9, 42, 0
1, 19440, Note_on_c, 9, 42, 50
1, 19440, Note_on_c, 9, 38, 50
1, 19450, Note_on_c, 9, 38, 0
1, 19455, Note_on_c, 9, 38, 54
1, 19465, Note_on_c, 9, 38, 0
1, 19468, Note_on_c, 9, 42, 0
1, 19470, Note_on_c, 9, 38, 58
1, 19470, Note_on_c, 9, 42, 50
1, 19480, Note_on_c, 9, 38, 0
1, 19485, Note_on_c, 9, 38, 62
1, 19495, Note_on_c, 9, 38, 0
1, 19498, Note_on_c, 9, 42, 0
1, 19500, Note_on_c, 9, 42, 50
1, 19500, Note_on_c, 9, 38, 66
1, 19510, Note_on_c, 9, 38, 0
1, 19515, Note_on_c, 9, 38, 70
1, 19525, Note_on_c, 9, 38, 0
1, 19528, Note_on_c, 9, 42, 0
1, 19530, Note_on_c, 9, 38, 74
1, 19530, Note_on_c, 9, 42, 50
1, 19540, Note_on_c, 9, 38, 0
1, 19540, Note_on_c, 4, 49, 0
1, 19545, Note_on_c, 9, 38, 78
1, 19555, Note_on_c, 9, 38, 0
1, 19558, Note_on_c, 9, 42, 0
1, 19560, Note_on_c, 9, 42, 50
1, 19560, Note_on_c, 9, 38, 100
1, 19580, Note_on_c, 9, 38, 0
1, 19588, Note_on_c, 9, 42, 0
1, 19590, Note_on_c, 9, 38, 100
1, 19590, Note_on_c, 9, 42, 50
1, 19590, Note_on_c, 9, 65, 120
1, 19600, Note_on_c, 3, 61, 0
1, 19600, Note_on_c, 7, 56, 0
1, 19600, Note_on_c, 3, 56, 0
1, 19600, Note_on_c, 7, 61, 0
1, 19610, Note_on_c, 9, 65, 0
1, 19610, Note_on_c, 9, 38, 0
1, 19618, Note_on_c, 9, 42, 0
1, 19620, Note_on_c, 4, 44, 100
1, 19620, Note_on_c, 9, 42, 50
1, 19640, Note_on_c, 4, 44, 0
1, 19648, Note_on_c, 9, 42, 0
1, 19650, Note_on_c, 9, 65, 100
1, 19650, Note_on_c, 9, 38, 120
1, 19650, Note_on_c, 4, 46, 100
1, 19650, Note_on_c, 9, 42, 50
1, 19670, Note_on_c, 4, 46, 0
1, 19670, Note_on_c, 9, 65, 0
1, 19670, Note_on_c, 9, 38, 0
1, 19678, Note_on_c, 9, 42, 0
1, 19680, Note_on_c, 7, 61, 100
1, 19680, Note_on_c, 3, 56, 100
1, 19680, Note_on_c, 3, 61, 100
1, 19680, Note_on_c, 9, 36, 100
1, 19680, Control_c, 7, 7, 80
1, 19680, Note_on_c, 4, 37, 100
1, 19680, Note_on_c, 9, 42, 50
1, 19680, Note_on_c, 7, 56, 100
1, 19708, Note_on_c, 9, 42, 0
1, 19710, Note_on_c, 9, 42, 50
1, 19720, Note_on_c, 9, 36, 0
1, 19738, Note_on_c, 9, 42, 0
1, 19740, Note_on_c, 4, 37, 0
1, 19740, Note_on_c, 7, 61, 0
1, 19740, Note_on_c, 7, 56, 0
1, 19740, Note_on_c, 9, 42, 50
1, 19740, Note_on_c, 0, 68, 100
1, 19768, Note_on_c, 9, 42, 0
1, 19770, Note_on_c, 7, 56, 100
1, 19770, Note_on_c, 9, 42, 50
1, 19770, Note_on_c, 9, 36, 100
1, 19770, Note_on_c, 7, 61, 100
1, 19770, Note_on_c, 4, 49, 100
1, 19798, Note_on_c, 9, 42, 0
1, 19800, Note_on_c, 0, 68, 0
1, 19800, Note_on_c, 9, 42, 50
1, 19800, Note_on_c, 9, 38, 110
1, 19810, Note_on_c, 9, 36, 0
1, 19828, Note_on_c, 9, 42, 0
1, 19830, Note_on_c, 4, 49, 0
1, 19830, Note_on_c, 7, 56, 0
1, 19830, Note_on_c, 7, 61, 0
1, 19830, Note_on_c, 9, 42, 50
1, 19830, Note_on_c, 0, 71, 100
1, 19858, Note_on_c, 9, 42, 0
1, 19860, Note_on_c, 9, 36, 100
1, 19860, Note_on_c, 9, 42, 50
1, 19860, Note_on_c, 7, 56, 100
1, 19860, Note_on_c, 4, 37, 100
1, 19860, Note_on_c, 7, 61, 100
1, 19880, Note_on_c, 9, 38, 0
1, 19888, Note_on_c, 9, 42, 0
1, 19890, Note_on_c, 0, 71, 0
1, 19890, Note_on_c, 9, 42, 50
1, 19900, Note_on_c, 9, 36, 0
1, 19918, Note_on_c, 9, 42, 0
1, 19920, Note_on_c, 4, 37, 0
1, 19920, Note_on_c, 0, 71, 100
1, 19920, Note_on_c, 9, 42, 50
1, 19940, Note_on_c, 7, 56, 0
1, 19940, Note_on_c, 7, 61, 0
1, 19948, Note_on_c, 9, 42, 0
1, 19950, Note_on_c, 4, 37, 100
1, 19950, Note_on_c, 9, 42, 50
1, 19970, Note_on_c, 4, 37, 0
1, 19978, Note_on_c, 9, 42, 0
1, 19980, Note_on_c, 9, 36, 100
1, 19980, Note_on_c, 7, 61, 100
1, 19980, Note_on_c, 9, 42, 50
1, 19980, Note_on_c, 4, 37, 100
1, 19980, Note_on_c, 7, 56, 100
1, 20000, Note_on_c, 0, 71, 0
1, 20008, Note_on_c, 9, 42, 0
1, 20010, Note_on_c, 9, 42, 50
1, 20020, Note_on_c, 9, 36, 0
1, 20020, Note_on_c, 4, 37, 0
1, 20038, Note_on_c, 9, 42, 0
1, 20040, Note_on_c, 0, 73, 100
1, 20040, Note_on_c, 9, 42, 50
1, 20040, Note_on_c, 4, 37, 100
1, 20040, Note_on_c, 9, 38, 110
1, 20068, Note_on_c, 9, 42, 0
1, 20070, Note_on_c, 9, 42, 50
1, 20080, Note_on_c, 4, 37, 0
1, 20098, Note_on_c, 9, 42, 0
1, 20100, Note_on_c, 7, 56, 0
1, 20100, Note_on_c, 7, 61, 0
1, 20100, Note_on_c, 9, 36, 100
1, 20100, Note_on_c, 4, 46, 100
1, 20100, Note_on_c, 9, 42, 50
1, 20120, Note_on_c, 4, 46, 0
1, 20120, Note_on_c, 0, 73, 0
1, 20120, Note_on_c, 9, 38, 0
1, 20120, Note_on_c, 9, 36, 0
1, 20128, Note_on_c, 9, 42, 0
1, 20130, Note_on_c, 9, 36, 100
1, 20130, Note_on_c, 4, 49, 100
1, 20130, Note_on_c, 9, 42, 50
1, 20150, Note_on_c, 4, 49, 0
1, 20150, Note_on_c, 9, 36, 0
1, 20158, Note_on_c, 3, 61, 0
1, 20158, Note_on_c, 3, 56, 0
1, 20158, Note_on_c, 9, 42, 0
1, 20160, Note_on_c, 3, 61, 100
1, 20160, Note_on_c, 3, 54, 100
1, 20160, Note_on_c, 4, 42, 100
1, 20160, Note_on_c, 9, 42, 50
1, 20160, Note_on_c, 9, 36, 100
1, 20160, Note_on_c, 7, 61, 100
1, 20160, Note_on_c, 7, 54, 100
1, 20188, Note_on_c, 9, 42, 0
1, 20190, Note_on_c, 9, 42, 50
1, 20200, Note_on_c, 9, 36, 0
1, 20218, Note_on_c, 9, 42, 0
1, 20220, Note_on_c, 7, 61, 0
1, 20220, Note_on_c, 4, 42, 0
1, 20220, Note_on_c, 7, 54, 0
1, 20220, Note_on_c, 9, 42, 50
1, 20220, Note_on_c, 0, 71, 100
1, 20248, Note_on_c, 9, 42, 0
1, 20250, Note_on_c, 9, 42, 50
1, 20250, Note_on_c, 9, 36, 100
1, 20250, Note_on_c, 7, 61, 100
1, 20250, Note_on_c, 7, 54, 100
1, 20250, Note_on_c, 4, 49, 100
1, 20260, Note_on_c, 0, 71, 0
1, 20278, Note_on_c, 9, 42, 0
1, 20280, Note_on_c, 9, 38, 110
1, 20280, Note_on_c, 0, 71, 100
1, 20280, Note_on_c, 9, 42, 50
1, 20290, Note_on_c, 9, 36, 0
1, 20308, Note_on_c, 9, 42, 0
1, 20310, Note_on_c, 4, 49, 0
1, 20310, Note_on_c, 7, 61, 0
1, 20310, Note_on_c, 7, 54, 0
1, 20310, Note_on_c, 9, 42, 50
1, 20338, Note_on_c, 9, 42, 0
1, 20340, Note_on_c, 9, 42, 50
1, 20340, Note_on_c, 9, 36, 100
1, 20340, Note_on_c, 7, 61, 100
1, 20340, Note_on_c, 7, 56, 100
1, 20340, Note_on_c, 3, 56, 100
1, 20340, Note_on_c, 4, 37, 100
1, 20340, Note_on_c, 3, 61, 100
1, 20360, Note_on_c, 0, 71, 0
1, 20360, Note_on_c, 9, 38, 0
1, 20368, Note_on_c, 9, 42, 0
1, 20370, Note_on_c, 9, 42, 50
1, 20380, Note_on_c, 9, 36, 0
1, 20398, Note_on_c, 9, 42, 0
1, 20398, Note_on_c, 3, 61, 0
1, 20398, Note_on_c, 3, 54, 0
1, 20400, Note_on_c, 4, 37, 0
1, 20400, Note_on_c, 0, 73, 100
1, 20400, Note_on_c, 9, 42, 50
1, 20420, Note_on_c, 7, 56, 0
1, 20420, Note_on_c, 7, 61, 0
1, 20428, Note_on_c, 9, 42, 0
1, 20430, Note_on_c, 4, 37, 100
1, 20430, Note_on_c, 9, 42, 50
1, 20450, Note_on_c, 4, 37, 0
1, 20458, Note_on_c, 9, 42, 0
1, 20460, Note_on_c, 9, 42, 50
1, 20460, Note_on_c, 7, 61, 100
1, 20460, Note_on_c, 9, 36, 100
1, 20460, Note_on_c, 4, 37, 100
1, 20460, Note_on_c, 7, 56, 100
1, 20480, Note_on_c, 0, 73, 0
1, 20488, Note_on_c, 9, 42, 0
1, 20490, Note_on_c, 9, 42, 50
1, 20500, Note_on_c, 9, 36, 0
1, 20500, Note_on_c, 4, 37, 0
1, 20518, Note_on_c, 9, 42, 0
1, 20520, Note_on_c, 9, 38, 110
1, 20520, Note_on_c, 9, 42, 50
1, 20520, Note_on_c, 4, 37, 100
1, 20548, Note_on_c, 9, 42, 0
1, 20550, Note_on_c, 9, 42, 50
1, 20560, Note_on_c, 4, 37, 0
1, 20578, Note_on_c, 9, 42, 0
1, 20580, Note_on_c, 7, 56, 0
1, 20580, Note_on_c, 7, 61, 0
1, 20580, Note_on_c, 9, 36, 100
1, 20580, Note_on_c, 4, 40, 100
1, 20580, Note_on_c, 9, 42, 50
1, 20600, Note_on_c, 4, 40, 0
1, 20600, Note_on_c, 9, 36, 0
1, 20600, Note_on_c, 9, 38, 0
1, 20608, Note_on_c, 9, 42, 0
1, 20610, Note_on_c, 9, 36, 100
1, 20610, Note_on_c, 9, 42, 50
1, 20610, Note_on_c, 4, 41, 100
1, 20630, Note_on_c, 4, 41, 0
1, 20630, Note_on_c, 9, 36, 0
1, 20638, Note_on_c, 3, 61, 0
1, 20638, Note_on_c, 3, 56, 0
1, 20638, Note_on_c, 9, 42, 0
1, 20640, Note_on_c, 9, 36, 100
1, 20640, Note_on_c, 7, 56, 100
1, 20640, Note_on_c, 3, 56, 100
1, 20640, Note_on_c, 9, 42, 50
1, 20640, Note_on_c, 3, 61, 100
1, 20640, Note_on_c, 4, 37, 100
1, 20640, Note_on_c, 0, 76, 100
1, 20640, Note_on_c, 7, 61, 100
1, 20668, Note_on_c, 9, 42, 0
1, 20670, Note_on_c, 9, 42, 50
1, 20680, Note_on_c, 9, 36, 0
1, 20680, Note_on_c, 0, 76, 0
1, 20698, Note_on_c, 9, 42, 0
1, 20700, Note_on_c, 4, 37, 0
1, 20700, Note_on_c, 7, 56, 0
1, 20700, Note_on_c, 7, 61, 0
1, 20700, Note_on_c, 0, 76, 100
1, 20700, Note_on_c, 9, 42, 50
1, 20720, Note_on_c, 0, 76, 0
1, 20728, Note_on_c, 9, 42, 0
1, 20730, Note_on_c, 7, 56, 100
1, 20730, Note_on_c, 0, 76, 100
1, 20730, Note_on_c, 4, 49, 100
1, 20730, Note_on_c, 7, 61, 100
1, 20730, Note_on_c, 9, 36, 100
1, 20730, Note_on_c, 9, 42, 50
1, 20758, Note_on_c, 9, 42, 0
1, 20760, Note_on_c, 9, 42, 50
1, 20760, Note_on_c, 9, 38, 110
1, 20770, Note_on_c, 9, 36, 0
1, 20788, Note_on_c, 9, 42, 0
1, 20790, Note_on_c, 0, 76, 0
1, 20790, Note_on_c, 4, 49, 0
1, 20790, Note_on_c, 7, 56, 0
1, 20790, Note_on_c, 7, 61, 0
1, 20790, Note_on_c, 9, 42, 50
1, 20818, Note_on_c, 9, 42, 0
1, 20820, Note_on_c, 7, 56, 100
1, 20820, Note_on_c, 4, 37, 100
1, 20820, Note_on_c, 9, 36, 100
1, 20820, Note_on_c, 9, 42, 50
1, 20820, Note_on_c, 0, 73, 100
1, 20820, Note_on_c, 7, 61, 100
1, 20840, Note_on_c, 0, 73, 0
1, 20840, Note_on_c, 9, 38, 0
1, 20848, Note_on_c, 9, 42, 0
1, 20850, Note_on_c, 0, 71, 100
1, 20850, Note_on_c, 9, 42, 50
1, 20860, Note_on_c, 9, 36, 0
1, 20870, Note_on_c, 0, 71, 0
1, 20878, Note_on_c, 9, 42, 0
1, 20880, Note_on_c, 4, 37, 0
1, 20880, Note_on_c, 9, 42, 50
1, 20880, Note_on_c, 0, 73, 100
1, 20900, Note_on_c, 7, 56, 0
1, 20900, Note_on_c, 7, 61, 0
1, 20908, Note_on_c, 9, 42, 0
1, 20910, Note_on_c, 9, 38, 100
1, 20910, Note_on_c, 9, 42, 50
1, 20910, Note_on_c, 4, 37, 100
1, 20920, Note_on_c, 0, 73, 0
1, 20930, Note_on_c, 4, 37, 0
1, 20938, Note_on_c, 9, 42, 0
1, 20940, Note_on_c, 7, 56, 100
1, 20940, Note_on_c, 0, 73, 100
1, 20940, Note_on_c, 9, 36, 100
1, 20940, Note_on_c, 9, 42, 50
1, 20940, Note_on_c, 7, 61, 100
1, 20940, Note_on_c, 4, 37, 100
1, 20950, Note_on_c, 9, 38, 0
1, 20968, Note_on_c, 9, 42, 0
1, 20970, Note_on_c, 9, 42, 50
1, 20980, Note_on_c, 4, 37, 0
1, 20980, Note_on_c, 9, 36, 0
1, 20998, Note_on_c, 9, 42, 0
1, 21000, Note_on_c, 4, 37, 100
1, 21000, Note_on_c, 9, 38, 110
1, 21000, Note_on_c, 9, 42, 50
1, 21020, Note_on_c, 0, 73, 0
1, 21028, Note_on_c, 9, 42, 0
1, 21030, Note_on_c, 9, 42, 50
1, 21040, Note_on_c, 4, 37, 0
1, 21058, Note_on_c, 9, 42, 0
1, 21060, Note_on_c, 7, 56, 0
1, 21060, Note_on_c, 7, 61, 0
1, 21060, Note_on_c, 0, 70, 100
1, 21060, Note_on_c, 9, 42, 50
1, 21060, Note_on_c, 4, 37, 100
1, 21060, Note_on_c, 9, 36, 100
1, 21080, Note_on_c, 9, 36, 0
1, 21080, Note_on_c, 9, 38, 0
1, 21088, Note_on_c, 9, 42, 0
1, 21090, Note_on_c, 9, 42, 50
1, 21090, Note_on_c, 9, 36, 100
1, 21100, Note_on_c, 0, 70, 0
1, 21100, Note_on_c, 4, 37, 0
1, 21110, Note_on_c, 9, 36, 0
1, 21118, Note_on_c, 3, 61, 0
1, 21118, Note_on_c, 3, 56, 0
1, 21118, Note_on_c, 9, 42, 0
1, 21120, Note_on_c, 4, 42, 100
1, 21120, Note_on_c, 0, 73, 100
1, 21120, Note_on_c, 3, 54, 100
1, 21120, Note_on_c, 9, 42, 50
1, 21120, Note_on_c, 9, 36, 100
1, 21120, Note_on_c, 7, 61, 100
1, 21120, Note_on_c, 7, 66, 100
1, 21120, Note_on_c, 3, 61, 100
1, 21120, Note_on_c, 7, 54, 100
1, 21148, Note_on_c, 9, 42, 0
1, 21150, Note_on_c, 9, 42, 50
1, 21160, Note_on_c, 9, 36, 0
1, 21178, Note_on_c, 9, 42, 0
1, 21180, Note_on_c, 7, 54, 0
1, 21180, Note_on_c, 7, 61, 0
1, 21180, Note_on_c, 4, 42, 0
1, 21180, Note_on_c, 7, 66, 0
1, 21180, Note_on_c, 9, 42, 50
1, 21200, Note_on_c, 0, 73, 0
1, 21208, Note_on_c, 9, 42, 0
1, 21210, Note_on_c, 9, 42, 50
1, 21210, Note_on_c, 7, 61, 100
1, 21210, Note_on_c, 4, 46, 100
1, 21210, Note_on_c, 7, 64, 100
1, 21210, Note_on_c, 9, 36, 100
1, 21210, Note_on_c, 7, 54, 100
1, 21230, Note_on_c, 4, 46, 0
1, 21238, Note_on_c, 9, 42, 0
1, 21240, Note_on_c, 9, 38, 110
1, 21240, Note_on_c, 4, 47, 100
1, 21240, Note_on_c, 9, 42, 50
1, 21250, Note_on_c, 9, 36, 0
1, 21260, Note_on_c, 4, 47, 0
1, 21268, Note_on_c, 9, 42, 0
1, 21270, Note_on_c, 7, 54, 0
1, 21270, Note_on_c, 7, 61, 0
1, 21270, Note_on_c, 7, 64, 0
1, 21270, Note_on_c, 9, 42, 50
1, 21270, Note_on_c, 4, 48, 100
1, 21290, Note_on_c, 4, 48, 0
1, 21298, Note_on_c, 9, 42, 0
1, 21300, Note_on_c, 3, 56, 100
1, 21300, Note_on_c, 4, 49, 100
1, 21300, Note_on_c, 9, 42, 50
1, 21300, Note_on_c, 7, 61, 100
1, 21300, Note_on_c, 7, 56, 100
1, 21300, Note_on_c, 3, 61, 100
1, 21300, Note_on_c, 9, 36, 100
1, 21320, Note_on_c, 9, 38, 0
1, 21328, Note_on_c, 9, 42, 0
1, 21330, Note_on_c, 9, 42, 50
1, 21340, Note_on_c, 9, 36, 0
1, 21358, Note_on_c, 9, 42, 0
1, 21358, Note_on_c, 3, 61, 0
1, 21358, Note_on_c, 3, 54, 0
1, 21360, Note_on_c, 4, 49, 0
1, 21360, Note_on_c, 9, 42, 50
1, 21388, Note_on_c, 9, 42, 0
1, 21390, Note_on_c, 4, 37, 100
1, 21390, Note_on_c, 9, 42, 50
1, 21410, Note_on_c, 4, 37, 0
1, 21418, Note_on_c, 9, 42, 0
1, 21420, Note_on_c, 4, 37, 100
1, 21420, Note_on_c, 9, 42, 50
1, 21420, Note_on_c, 9, 36, 100
1, 21448, Note_on_c, 9, 42, 0
1, 21450, Note_on_c, 9, 42, 50
1, 21460, Note_on_c, 4, 37, 0
1, 21460, Note_on_c, 9, 36, 0
1, 21478, Note_on_c, 9, 42, 0
1, 21480, Note_on_c, 9, 42, 50
1, 21480, Note_on_c, 4, 37, 100
1, 21508, Note_on_c, 9, 42, 0
1, 21510, Note_on_c, 9, 42, 50
1, 21510, Note_on_c, 9, 38, 100
1, 21520, Note_on_c, 7, 61, 0
1, 21520, Note_on_c, 7, 56, 0
1, 21520, Note_on_c, 4, 37, 0
1, 21538, Note_on_c, 9, 42, 0
1, 21540, Note_on_c, 9, 36, 100
1, 21540, Note_on_c, 9, 42, 50
1, 21540, Note_on_c, 4, 44, 100
1, 21550, Note_on_c, 9, 38, 0
1, 21560, Note_on_c, 9, 36, 0
1, 21560, Note_on_c, 4, 44, 0
1, 21568, Note_on_c, 9, 42, 0
1, 21570, Note_on_c, 9, 38, 100
1, 21570, Note_on_c, 4, 46, 100
1, 21570, Note_on_c, 9, 42, 50
1, 21570, Note_on_c, 9, 36, 100
1, 21590, Note_on_c, 9, 36, 0
1, 21590, Note_on_c, 9, 38, 0
1, 21590, Note_on_c, 4, 46, 0
1, 21598, Note_on_c, 3, 61, 0
1, 21598, Note_on_c, 9, 42, 0
1, 21598, Note_on_c, 3, 56, 0
1, 21600, Note_on_c, 4, 37, 100
1, 21600, Note_on_c, 9, 36, 100
1, 21600, Note_on_c, 9, 42, 50
1, 21600, Note_on_c, 3, 61, 100
1, 21600, Note_on_c, 3, 56, 100
1, 21600, Note_on_c, 7, 56, 100
1, 21600, Note_on_c, 7, 61, 100
1, 21628, Note_on_c, 9, 42, 0
1, 21630, Note_on_c, 9, 42, 50
1, 21630, Note_on_c, 9, 38, 100
1, 21640, Note_on_c, 9, 36, 0
1, 21650, Note_on_c, 9, 38, 0
1, 21658, Note_on_c, 9, 42, 0
1, 21660, Note_on_c, 7, 56, 0
1, 21660, Note_on_c, 4, 37, 0
1, 21660, Note_on_c, 7, 61, 0
1, 21660, Note_on_c, 9, 42, 50
1, 21660, Note_on_c, 0, 68, 100
1, 21680, Note_on_c, 0, 68, 0
1, 21688, Note_on_c, 9, 42, 0
1, 21690, Note_on_c, 9, 38, 100
1, 21690, Note_on_c, 9, 36, 100
1, 21690, Note_on_c, 7, 61, 100
1, 21690, Note_on_c, 9, 42, 50
1, 21690, Note_on_c, 4, 49, 100
1, 21690, Note_on_c, 0, 68, 100
1, 21690, Note_on_c, 7, 56, 100
1, 21710, Note_on_c, 0, 68, 0
1, 21710, Note_on_c, 9, 38, 0
1, 21718, Note_on_c, 9, 42, 0
1, 21720, Note_on_c, 9, 42, 50
1, 21720, Note_on_c, 9, 38, 110
1, 21720, Note_on_c, 0, 68, 100
1, 21730, Note_on_c, 9, 36, 0
1, 21740, Note_on_c, 0, 68, 0
1, 21748, Note_on_c, 9, 42, 0
1, 21750, Note_on_c, 7, 56, 0
1, 21750, Note_on_c, 7, 61, 0
1, 21750, Note_on_c, 4, 49, 0
1, 21750, Note_on_c, 0, 71, 100
1, 21750, Note_on_c, 9, 42, 50
1, 21778, Note_on_c, 9, 42, 0
1, 21780, Note_on_c, 9, 36, 100
1, 21780, Note_on_c, 7, 61, 100
1, 21780, Note_on_c, 9, 42, 50
1, 21780, Note_on_c, 7, 56, 100
1, 21780, Note_on_c, 4, 37, 100
1, 21800, Note_on_c, 9, 38, 0
1, 21808, Note_on_c, 9, 42, 0
1, 21810, Note_on_c, 0, 71, 0
1, 21810, Note_on_c, 9, 42, 50
1, 21820, Note_on_c, 9, 36, 0
1, 21838, Note_on_c, 9, 42, 0
1, 21840, Note_on_c, 4, 37, 0
1, 21840, Note_on_c, 0, 73, 100
1, 21840, Note_on_c, 9, 42, 50
1, 21860, Note_on_c, 7, 61, 0
1, 21860, Note_on_c, 7, 56, 0
1, 21868, Note_on_c, 9, 42, 0
1, 21870, Note_on_c, 4, 37, 100
1, 21870, Note_on_c, 9, 42, 50
1, 21890, Note_on_c, 4, 37, 0
1, 21898, Note_on_c, 9, 42, 0
1, 21900, Note_on_c, 4, 37, 100
1, 21900, Note_on_c, 7, 56, 100
1, 21900, Note_on_c, 9, 36, 100
1, 21900, Note_on_c, 7, 61, 100
1, 21900, Note_on_c, 9, 42, 50
1, 21920, Note_on_c, 0, 73, 0
1, 21928, Note_on_c, 9, 42, 0
1, 21930, Note_on_c, 9, 42, 50
1, 21940, Note_on_c, 4, 37, 0
1, 21940, Note_on_c, 9, 36, 0
1, 21958, Note_on_c, 9, 42, 0
1, 21960, Note_on_c, 9, 42, 50
1, 21960, Note_on_c, 4, 37, 100
1, 21960, Note_on_c, 9, 38, 110
1, 21988, Note_on_c, 9, 42, 0
1, 21990, Note_on_c, 9, 42, 50
1, 22000, Note_on_c, 4, 37, 0
1, 22018, Note_on_c, 9, 42, 0
1, 22020, Note_on_c, 7, 56, 0
1, 22020, Note_on_c, 7, 61, 0
1, 22020, Note_on_c, 4, 37, 100
1, 22020, Note_on_c, 9, 36, 100
1, 22020, Note_on_c, 0, 71, 100
1, 22020, Note_on_c, 9, 42, 50
1, 22040, Note_on_c, 9, 36, 0
1, 22040, Note_on_c, 4, 37, 0
1, 22040, Note_on_c, 9, 38, 0
1, 22048, Note_on_c, 9, 42, 0
1, 22050, Note_on_c, 9, 36, 100
1, 22050, Note_on_c, 9, 42, 50
1, 22050, Note_on_c, 4, 41, 100
1, 22070, Note_on_c, 4, 41, 0
1, 22070, Note_on_c, 9, 36, 0
1, 22078, Note_on_c, 3, 61, 0
1, 22078, Note_on_c, 9, 42, 0
1, 22078, Note_on_c, 3, 56, 0
1, 22080, Note_on_c, 9, 36, 100
1, 22080, Note_on_c, 4, 42, 100
1, 22080, Note_on_c, 3, 61, 100
1, 22080, Note_on_c, 9, 42, 50
1, 22080, Note_on_c, 7, 54, 100
1, 22080, Note_on_c, 7, 61, 100
1, 22080, Note_on_c, 3, 54, 100
1, 22108, Note_on_c, 9, 42, 0
1, 22110, Note_on_c, 9, 42, 50
1, 22120, Note_on_c, 9, 36, 0
1, 22120, Note_on_c, 0, 71, 0
1, 22138, Note_on_c, 9, 42, 0
1, 22140, Note_on_c, 4, 42, 0
1, 22140, Note_on_c, 7, 54, 0
1, 22140, Note_on_c, 7, 61, 0
1, 22140, Note_on_c, 9, 42, 50
1, 22140, Note_on_c, 0, 71, 100
1, 22168, Note_on_c, 9, 42, 0
1, 22170, Note_on_c, 9, 42, 50
1, 22170, Note_on_c, 4, 46, 100
1, 22170, Note_on_c, 7, 54, 100
1, 22170, Note_on_c, 9, 36, 100
1, 22170, Note_on_c, 7, 61, 100
1, 22180, Note_on_c, 0, 71, 0
1, 22198, Note_on_c, 9, 42, 0
1, 22200, Note_on_c, 9, 42, 50
1, 22200, Note_on_c, 9, 38, 110
1, 22200, Note_on_c, 0, 71, 100
1, 22210, Note_on_c, 9, 36, 0
1, 22228, Note_on_c, 9, 42, 0
1, 22230, Note_on_c, 7, 61, 0
1, 22230, Note_on_c, 4, 46, 0
1, 22230, Note_on_c, 7, 54, 0
1, 22230, Note_on_c, 9, 42, 50
1, 22258, Note_on_c, 9, 42, 0
1, 22260, Note_on_c, 4, 49, 100
1, 22260, Note_on_c, 7, 61, 100
1, 22260, Note_on_c, 9, 42, 50
1, 22260, Note_on_c, 3, 61, 100
1, 22260, Note_on_c, 3, 56, 100
1, 22260, Note_on_c, 7, 56, 100
1, 22260, Note_on_c, 9, 36, 100
1, 22280, Note_on_c, 0, 71, 0
1, 22280, Note_on_c, 9, 38, 0
1, 22288, Note_on_c, 9, 42, 0
1, 22290, Note_on_c, 9, 42, 50
1, 22300, Note_on_c, 9, 36, 0
1, 22318, Note_on_c, 9, 42, 0
1, 22318, Note_on_c, 3, 61, 0
1, 22318, Note_on_c, 3, 54, 0
1, 22320, Note_on_c, 4, 49, 0
1, 22320, Note_on_c, 0, 73, 100
1, 22320, Note_on_c, 9, 42, 50
1, 22340, Note_on_c, 7, 61, 0
1, 22340, Note_on_c, 7, 56, 0
1, 22348, Note_on_c, 9, 42, 0
1, 22350, Note_on_c, 9, 42, 50
1, 22350, Note_on_c, 4, 49, 100
1, 22370, Note_on_c, 4, 49, 0
1, 22378, Note_on_c, 9, 42, 0
1, 22380, Note_on_c, 9, 36, 100
1, 22380, Note_on_c, 9, 42, 50
1, 22380, Note_on_c, 7, 61, 100
1, 22380, Note_on_c, 7, 56, 100
1, 22380, Note_on_c, 4, 49, 100
1, 22400, Note_on_c, 0, 73, 0
1, 22408, Note_on_c, 9, 42, 0
1, 22410, Note_on_c, 9, 42, 50
1, 22420, Note_on_c, 4, 49, 0
1, 22420, Note_on_c, 9, 36, 0
1, 22438, Note_on_c, 9, 42, 0
1, 22440, Note_on_c, 9, 38, 110
1, 22440, Note_on_c, 9, 42, 50
1, 22440, Note_on_c, 4, 49, 100
1, 22468, Note_on_c, 9, 42, 0
1, 22470, Note_on_c, 9, 42, 50
1, 22480, Note_on_c, 4, 49, 0
1, 22498, Note_on_c, 9, 42, 0
1, 22500, Note_on_c, 7, 56, 0
1, 22500, Note_on_c, 7, 61, 0
1, 22500, Note_on_c, 4, 52, 100
1, 22500, Note_on_c, 9, 42, 50
1, 22500, Note_on_c, 9, 36, 100
1, 22520, Note_on_c, 9, 36, 0
1, 22520, Note_on_c, 9, 38, 0
1, 22520, Note_on_c, 4, 52, 0
1, 22528, Note_on_c, 9, 42, 0
1, 22530, Note_on_c, 4, 53, 100
1, 22530, Note_on_c, 9, 42, 50
1, 22530, Note_on_c, 9, 36, 100
1, 22550, Note_on_c, 9, 36, 0
1, 22550, Note_on_c, 4, 53, 0
1, 22558, Note_on_c, 3, 56, 0
1, 22558, Note_on_c, 3, 61, 0
1, 22558, Note_on_c, 9, 42, 0
1, 22558, Control_c, 7, 7, 90
1, 22560, Note_on_c, 7, 61, 100
1, 22560, Note_on_c, 7, 56, 100
1, 22560, Note_on_c, 9, 42, 50
1, 22560, Note_on_c, 9, 36, 100
1, 22560, Note_on_c, 4, 37, 100
1, 22560, Note_on_c, 0, 76, 100
1, 22560, Note_on_c, 3, 56, 100
1, 22560, Note_on_c, 3, 61, 100
1, 22588, Note_on_c, 9, 42, 0
1, 22590, Note_on_c, 9, 42, 50
1, 22600, Note_on_c, 9, 36, 0
1, 22600, Note_on_c, 0, 76, 0
1, 22618, Note_on_c, 9, 42, 0
1, 22620, Note_on_c, 7, 61, 0
1, 22620, Note_on_c, 4, 37, 0
1, 22620, Note_on_c, 7, 56, 0
1, 22620, Note_on_c, 0, 76, 100
1, 22620, Note_on_c, 9, 42, 50
1, 22640, Note_on_c, 0, 76, 0
1, 22648, Note_on_c, 9, 42, 0
1, 22650, Note_on_c, 7, 56, 100
1, 22650, Note_on_c, 9, 42, 50
1, 22650, Note_on_c, 9, 36, 100
1, 22650, Note_on_c, 7, 61, 100
1, 22650, Note_on_c, 0, 76, 100
1, 22650, Note_on_c, 4, 49, 100
1, 22678, Note_on_c, 9, 42, 0
1, 22680, Note_on_c, 9, 38, 110
1, 22680, Note_on_c, 9, 42, 50
1, 22690, Note_on_c, 9, 36, 0
1, 22708, Note_on_c, 9, 42, 0
1, 22710, Note_on_c, 4, 49, 0
1, 22710, Note_on_c, 7, 56, 0
1, 22710, Note_on_c, 7, 61, 0
1, 22710, Note_on_c, 9, 42, 50
1, 22730, Note_on_c, 0, 76, 0
1, 22738, Note_on_c, 9, 42, 0
1, 22740, Note_on_c, 7, 56, 100
1, 22740, Note_on_c, 4, 37, 100
1, 22740, Note_on_c, 9, 42, 50
1, 22740, Note_on_c, 9, 36, 100
1, 22740, Note_on_c, 7, 61, 100
1, 22760, Note_on_c, 9, 38, 0
1, 22768, Note_on_c, 9, 42, 0
1, 22770, Note_on_c, 9, 42, 50
1, 22780, Note_on_c, 9, 36, 0
1, 22798, Note_on_c, 9, 42, 0
1, 22800, Note_on_c, 4, 37, 0
1, 22800, Note_on_c, 9, 42, 50
1, 22820, Note_on_c, 7, 56, 0
1, 22820, Note_on_c, 7, 61, 0
1, 22828, Note_on_c, 9, 42, 0
1, 22830, Note_on_c, 4, 37, 100
1, 22830, Note_on_c, 9, 42, 50
1, 22850, Note_on_c, 4, 37, 0
1, 22858, Note_on_c, 9, 42, 0
1, 22860, Note_on_c, 0, 73, 100
1, 22860, Note_on_c, 4, 37, 100
1, 22860, Note_on_c, 9, 42, 50
1, 22860, Note_on_c, 7, 61, 100
1, 22860, Note_on_c, 9, 36, 100
1, 22860, Note_on_c, 7, 56, 100
1, 22888, Note_on_c, 9, 42, 0
1, 22890, Note_on_c, 9, 42, 50
1, 22900, Note_on_c, 4, 37, 0
1, 22900, Note_on_c, 9, 36, 0
1, 22918, Note_on_c, 9, 42, 0
1, 22920, Note_on_c, 9, 42, 50
1, 22920, Note_on_c, 9, 38, 110
1, 22920, Note_on_c, 4, 37, 100
1, 22940, Note_on_c, 0, 73, 0
1, 22948, Note_on_c, 9, 42, 0
1, 22950, Note_on_c, 9, 42, 50
1, 22960, Note_on_c, 4, 37, 0
1, 22978, Note_on_c, 9, 42, 0
1, 22980, Note_on_c, 7, 61, 0
1, 22980, Note_on_c, 7, 56, 0
1, 22980, Note_on_c, 9, 42, 50
1, 22980, Note_on_c, 0, 70, 100
1, 22980, Note_on_c, 9, 36, 100
1, 22980, Note_on_c, 4, 41, 100
1, 23000, Note_on_c, 9, 36, 0
1, 23000, Note_on_c, 9, 38, 0
1, 23008, Note_on_c, 9, 42, 0
1, 23010, Note_on_c, 9, 36, 100
1, 23010, Note_on_c, 9, 42, 50
1, 23020, Note_on_c, 0, 70, 0
1, 23020, Note_on_c, 4, 41, 0
1, 23030, Note_on_c, 9, 36, 0
1, 23038, Note_on_c, 3, 61, 0
1, 23038, Note_on_c, 9, 42, 0
1, 23038, Note_on_c, 3, 56, 0
1, 23040, Note_on_c, 7, 61, 100
1, 23040, Note_on_c, 7, 66, 100
1, 23040, Note_on_c, 4, 42, 100
1, 23040, Note_on_c, 7, 54, 100
1, 23040, Note_on_c, 0, 73, 100
1, 23040, Note_on_c, 3, 61, 100
1, 23040, Note_on_c, 9, 42, 50
1, 23040, Note_on_c, 3, 54, 100
1, 23040, Note_on_c, 9, 36, 100
1, 23068, Note_on_c, 9, 42, 0
1, 23070, Note_on_c, 9, 42, 50
1, 23080, Note_on_c, 9, 36, 0
1, 23098, Note_on_c, 9, 42, 0
1, 23100, Note_on_c, 4, 42, 0
1, 23100, Note_on_c, 7, 66, 0
1, 23100, Note_on_c, 7, 61, 0
1, 23100, Note_on_c, 7, 54, 0
1, 23100, Note_on_c, 9, 42, 50
1, 23120, Note_on_c, 0, 73, 0
1, 23128, Note_on_c, 9, 42, 0
1, 23130, Note_on_c, 4, 46, 100
1, 23130, Note_on_c, 7, 64, 100
1, 23130, Note_on_c, 9, 36, 100
1, 23130, Note_on_c, 9, 42, 50
1, 23130, Note_on_c, 7, 54, 100
1, 23130, Note_on_c, 7, 61, 100
1, 23150, Note_on_c, 4, 46, 0
1, 23158, Note_on_c, 9, 42, 0
1, 23160, Note_on_c, 4, 47, 100
1, 23160, Note_on_c, 9, 42, 50
1, 23160, Note_on_c, 9, 38, 110
1, 23170, Note_on_c, 9, 36, 0
1, 23180, Note_on_c, 4, 47, 0
1, 23188, Note_on_c, 9, 42, 0
1, 23190, Note_on_c, 7, 61, 0
1, 23190, Note_on_c, 7, 64, 0
1, 23190, Note_on_c, 7, 54, 0
1, 23190, Note_on_c, 9, 42, 50
1, 23190, Note_on_c, 4, 48, 100
1, 23210, Note_on_c, 4, 48, 0
1, 23218, Note_on_c, 9, 42, 0
1, 23220, Note_on_c, 9, 42, 50
1, 23220, Note_on_c, 3, 56, 100
1, 23220, Note_on_c, 7, 56, 100
1, 23220, Note_on_c, 9, 36, 100
1, 23220, Note_on_c, 7, 61, 100
1, 23220, Note_on_c, 3, 61, 100
1, 23220, Note_on_c, 4, 49, 100
1, 23240, Note_on_c, 9, 38, 0
1, 23248, Note_on_c, 9, 42, 0
1, 23250, Note_on_c, 9, 42, 50
1, 23260, Note_on_c, 9, 36, 0
1, 23278, Note_on_c, 9, 42, 0
1, 23278, Note_on_c, 3, 61, 0
1, 23278, Note_on_c, 3, 54, 0
1, 23280, Note_on_c, 4, 49, 0
1, 23280, Note_on_c, 9, 42, 50
1, 23308, Note_on_c, 9, 42, 0
1, 23310, Note_on_c, 4, 37, 100
1, 23310, Note_on_c, 9, 42, 50
1, 23330, Note_on_c, 4, 37, 0
1, 23338, Note_on_c, 9, 42, 0
1, 23340, Note_on_c, 9, 42, 50
1, 23340, Note_on_c, 9, 36, 100
1, 23340, Note_on_c, 4, 37, 100
1, 23368, Note_on_c, 9, 42, 0
1, 23370, Note_on_c, 9, 42, 50
1, 23370, Note_on_c, 9, 43, 100
1, 23380, Note_on_c, 9, 36, 0
1, 23380, Note_on_c, 4, 37, 0
1, 23390, Note_on_c, 9, 43, 0
1, 23398, Note_on_c, 9, 42, 0
1, 23400, Note_on_c, 9, 42, 50
1, 23400, Note_on_c, 9, 38, 110
1, 23400, Note_on_c, 4, 37, 100
1, 23428, Note_on_c, 9, 42, 0
1, 23430, Note_on_c, 9, 45, 100
1, 23430, Note_on_c, 9, 42, 50
1, 23440, Note_on_c, 7, 61, 0
1, 23440, Note_on_c, 9, 38, 0
1, 23440, Note_on_c, 7, 56, 0
1, 23450, Note_on_c, 9, 45, 0
1, 23458, Note_on_c, 9, 42, 0
1, 23460, Note_on_c, 9, 36, 100
1, 23460, Note_on_c, 9, 47, 100
1, 23460, Note_on_c, 9, 42, 50
1, 23480, Note_on_c, 9, 47, 0
1, 23480, Note_on_c, 9, 36, 0
1, 23480, Note_on_c, 4, 37, 0
1, 23488, Note_on_c, 9, 42, 0
1, 23490, Note_on_c, 9, 42, 50
1, 23518, Note_on_c, 9, 42, 0
1, 23518, Note_on_c, 3, 61, 0
1, 23518, Note_on_c, 3, 56, 0
1, 23520, Note_on_c, 0, 75, 100
1, 23520, Note_on_c, 9, 42, 50
1, 23520, Note_on_c, 3, 66, 100
1, 23520, Note_on_c, 3, 63, 100
1, 23520, Note_on_c, 3, 60, 100
1, 23520, Note_on_c, 9, 36, 100
1, 23520, Note_on_c, 7, 66, 100
1, 23520, Note_on_c, 4, 44, 100
1, 23548, Note_on_c, 9, 42, 0
1, 23550, Note_on_c, 9, 42, 50
1, 23560, Note_on_c, 0, 75, 0
1, 23560, Note_on_c, 7, 66, 0
1, 23560, Note_on_c, 9, 36, 0
1, 23578, Note_on_c, 9, 42, 0
1, 23580, Note_on_c, 4, 44, 0
1, 23580, Note_on_c, 9, 42, 50
1, 23580, Note_on_c, 0, 75, 100
1, 23580, Note_on_c, 7, 71, 100
1, 23600, Note_on_c, 0, 75, 0
1, 23608, Note_on_c, 9, 42, 0
1, 23610, Note_on_c, 9, 42, 50
1, 23610, Note_on_c, 9, 36, 100
1, 23610, Note_on_c, 4, 44, 100
1, 23610, Note_on_c, 0, 75, 100
1, 23620, Note_on_c, 7, 71, 0
1, 23638, Note_on_c, 9, 42, 0
1, 23640, Note_on_c, 9, 38, 110
1, 23640, Note_on_c, 9, 42, 50
1, 23640, Note_on_c, 7, 70, 100
1, 23650, Note_on_c, 0, 75, 0
1, 23650, Note_on_c, 9, 36, 0
1, 23660, Note_on_c, 7, 70, 0
1, 23668, Note_on_c, 9, 42, 0
1, 23670, Note_on_c, 4, 44, 0
1, 23670, Note_on_c, 7, 66, 100
1, 23670, Note_on_c, 0, 75, 100
1, 23670, Note_on_c, 9, 42, 50
1, 23690, Note_on_c, 0, 75, 0
1, 23690, Note_on_c, 7, 66, 0
1, 23698, Note_on_c, 3, 66, 0
1, 23698, Note_on_c, 3, 60, 0
1, 23698, Note_on_c, 3, 63, 0
1, 23698, Note_on_c, 9, 42, 0
1, 23700, Note_on_c, 7, 61, 100
1, 23700, Note_on_c, 0, 76, 100
1, 23700, Note_on_c, 9, 36, 100
1, 23700, Note_on_c, 3, 63, 100
1, 23700, Note_on_c, 4, 47, 100
1, 23700, Note_on_c, 3, 66, 100
1, 23700, Note_on_c, 9, 42, 50
1, 23700, Note_on_c, 3, 61, 100
1, 23720, Note_on_c, 9, 38, 0
1, 23728, Note_on_c, 9, 42, 0
1, 23730, Note_on_c, 9, 42, 50
1, 23740, Note_on_c, 9, 36, 0
1, 23740, Note_on_c, 7, 61, 0
1, 23740, Note_on_c, 0, 76, 0
1, 23758, Note_on_c, 9, 42, 0
1, 23760, Note_on_c, 0, 73, 100
1, 23760, Note_on_c, 9, 42, 50
1, 23760, Note_on_c, 7, 70, 100
1, 23780, Note_on_c, 4, 47, 0
1, 23788, Note_on_c, 9, 42, 0
1, 23790, Note_on_c, 9, 42, 50
1, 23800, Note_on_c, 7, 70, 0
1, 23818, Note_on_c, 9, 42, 0
1, 23820, Note_on_c, 4, 47, 100
1, 23820, Note_on_c, 9, 36, 100
1, 23820, Note_on_c, 9, 42, 50
1, 23820, Note_on_c, 7, 66, 100
1, 23840, Note_on_c, 7, 66, 0
1, 23840, Note_on_c, 0, 73, 0
1, 23848, Note_on_c, 9, 42, 0
1, 23850, Note_on_c, 9, 42, 50
1, 23850, Note_on_c, 7, 61, 100
1, 23860, Note_on_c, 9, 36, 0
1, 23878, Note_on_c, 9, 42, 0
1, 23880, Note_on_c, 4, 47, 0
1, 23880, Note_on_c, 9, 42, 50
1, 23880, Note_on_c, 9, 38, 110
1, 23908, Note_on_c, 9, 42, 0
1, 23910, Note_on_c, 7, 61, 0
1, 23910, Note_on_c, 4, 47, 100
1, 23910, Note_on_c, 9, 42, 50
1, 23938, Note_on_c, 9, 42, 0
1, 23940, Note_on_c, 7, 70, 100
1, 23940, Note_on_c, 9, 42, 50
1, 23940, Note_on_c, 9, 36, 100
1, 23960, Note_on_c, 9, 36, 0
1, 23960, Note_on_c, 7, 70, 0
1, 23960, Note_on_c, 9, 38, 0
1, 23968, Note_on_c, 9, 42, 0
1, 23970, Note_on_c, 4, 47, 0
1, 23970, Note_on_c, 9, 42, 50
1, 23970, Note_on_c, 7, 68, 100
1, 23970, Note_on_c, 9, 36, 100
1, 23987, Note_on_c, 3, 61, 0
1, 23987, Note_on_c, 3, 66, 0
1, 23987, Note_on_c, 3, 63, 0
1, 23990, Note_on_c, 9, 36, 0
1, 23998, Note_on_c, 9, 42, 0
1, 24000, Note_on_c, 3, 66, 100
1, 24000, Note_on_c, 4, 40, 100
1, 24000, Note_on_c, 3, 68, 100
1, 24000, Note_on_c, 9, 36, 100
1, 24000, Note_on_c, 9, 42, 50
1, 24000, Note_on_c, 3, 70, 100
1, 24000, Note_on_c, 0, 70, 100
1, 24028, Note_on_c, 9, 42, 0
1, 24030, Note_on_c, 9, 42, 50
1, 24040, Note_on_c, 0, 70, 0
1, 24040, Note_on_c, 9, 36, 0
1, 24050, Note_on_c, 7, 68, 0
1, 24058, Note_on_c, 9, 42, 0
1, 24060, Note_on_c, 4, 40, 0
1, 24060, Note_on_c, 7, 68, 100
1, 24060, Note_on_c, 0, 70, 100
1, 24060, Note_on_c, 9, 42, 50
1, 24080, Note_on_c, 0, 70, 0
1, 24088, Note_on_c, 9, 42, 0
1, 24090, Note_on_c, 9, 42, 50
1, 24090, Note_on_c, 9, 36, 100
1, 24090, Note_on_c, 0, 73, 100
1, 24090, Note_on_c, 4, 40, 100
1, 24100, Note_on_c, 7, 68, 0
1, 24118, Note_on_c, 9, 42, 0
1, 24120, Note_on_c, 9, 42, 50
1, 24120, Note_on_c, 9, 38, 110
1, 24120, Note_on_c, 7, 64, 100
1, 24130, Note_on_c, 9, 36, 0
1, 24140, Note_on_c, 7, 64, 0
1, 24148, Note_on_c, 9, 42, 0
1, 24150, Note_on_c, 4, 40, 0
1, 24150, Note_on_c, 0, 73, 0
1, 24150, Note_on_c, 9, 42, 50
1, 24150, Note_on_c, 7, 59, 100
1, 24170, Note_on_c, 7, 59, 0
1, 24178, Note_on_c, 3, 68, 0
1, 24178, Note_on_c, 3, 66, 0
1, 24178, Note_on_c, 3, 70, 0
1, 24178, Note_on_c, 9, 42, 0
1, 24180, Note_on_c, 7, 56, 100
1, 24180, Note_on_c, 0, 73, 100
1, 24180, Note_on_c, 3, 60, 100
1, 24180, Note_on_c, 9, 42, 50
1, 24180, Note_on_c, 9, 36, 100
1, 24180, Note_on_c, 4, 42, 100
1, 24180, Note_on_c, 3, 70, 100
1, 24180, Note_on_c, 3, 68, 100
1, 24200, Note_on_c, 0, 73, 0
1, 24200, Note_on_c, 9, 38, 0
1, 24208, Note_on_c, 9, 42, 0
1, 24210, Note_on_c, 9, 42, 50
1, 24210, Note_on_c, 0, 73, 100
1, 24220, Note_on_c, 7, 56, 0
1, 24220, Note_on_c, 9, 36, 0
1, 24238, Note_on_c, 9, 42, 0
1, 24240, Note_on_c, 7, 70, 100
1, 24240, Note_on_c, 7, 61, 100
1, 24240, Note_on_c, 9, 42, 50
1, 24260, Note_on_c, 4, 42, 0
1, 24268, Note_on_c, 9, 42, 0
1, 24270, Note_on_c, 9, 42, 50
1, 24280, Note_on_c, 7, 70, 0
1, 24280, Note_on_c, 7, 61, 0
1, 24298, Note_on_c, 9, 42, 0
1, 24300, Note_on_c, 9, 36, 100
1, 24300, Note_on_c, 4, 42, 100
1, 24300, Note_on_c, 9, 42, 50
1, 24300, Note_on_c, 7, 66, 100
1, 24320, Note_on_c, 7, 66, 0
1, 24328, Note_on_c, 9, 42, 0
1, 24330, Note_on_c, 0, 73, 0
1, 24330, Note_on_c, 9, 42, 50
1, 24330, Note_on_c, 7, 61, 100
1, 24340, Note_on_c, 9, 36, 0
1, 24358, Note_on_c, 9, 42, 0
1, 24360, Note_on_c, 4, 42, 0
1, 24360, Note_on_c, 9, 38, 110
1, 24360, Note_on_c, 9, 42, 50
1, 24388, Note_on_c, 9, 42, 0
1, 24390, Note_on_c, 7, 61, 0
1, 24390, Note_on_c, 4, 42, 100
1, 24390, Note_on_c, 9, 42, 50
1, 24418, Note_on_c, 9, 42, 0
1, 24420, Note_on_c, 9, 42, 50
1, 24420, Note_on_c, 9, 36, 100
1, 24420, Note_on_c, 7, 70, 100
1, 24440, Note_on_c, 7, 70, 0
1, 24440, Note_on_c, 9, 36, 0
1, 24440, Note_on_c, 9, 38, 0
1, 24448, Note_on_c, 9, 42, 0
1, 24450, Note_on_c, 4, 42, 0
1, 24450, Note_on_c, 9, 36, 100
1, 24450, Note_on_c, 9, 42, 50
1, 24450, Note_on_c, 7, 68, 100
1, 24467, Note_on_c, 3, 70, 0
1, 24467, Note_on_c, 3, 68, 0
1, 24467, Note_on_c, 3, 60, 0
1, 24470, Note_on_c, 9, 36, 0
1, 24478, Note_on_c, 9, 42, 0
1, 24480, Note_on_c, 9, 36, 100
1, 24480, Note_on_c, 3, 66, 100
1, 24480, Note_on_c, 3, 60, 100
1, 24480, Note_on_c, 4, 44, 100
1, 24480, Note_on_c, 9, 42, 50
1, 24480, Note_on_c, 3, 63, 100
1, 24508, Note_on_c, 9, 42, 0
1, 24510, Note_on_c, 7, 68, 0
1, 24510, Note_on_c, 9, 42, 50
1, 24520, Note_on_c, 9, 36, 0
1, 24538, Note_on_c, 9, 42, 0
1, 24540, Note_on_c, 4, 44, 0
1, 24540, Note_on_c, 9, 42, 50
1, 24540, Note_on_c, 7, 71, 100
1, 24540, Note_on_c, 0, 75, 100
1, 24560, Note_on_c, 0, 75, 0
1, 24568, Note_on_c, 9, 42, 0
1, 24570, Note_on_c, 9, 42, 50
1, 24570, Note_on_c, 0, 75, 100
1, 24570, Note_on_c, 9, 36, 100
1, 24570, Note_on_c, 4, 44, 100
1, 24580, Note_on_c, 7, 71, 0
1, 24590, Note_on_c, 0, 75, 0
1, 24598, Note_on_c, 9, 42, 0
1, 24600, Note_on_c, 0, 75, 100
1, 24600, Note_on_c, 9, 42, 50
1, 24600, Note_on_c, 9, 38, 110
1, 24600, Note_on_c, 7, 70, 100
1, 24610, Note_on_c, 9, 36, 0
1, 24620, Note_on_c, 7, 70, 0
1, 24628, Note_on_c, 9, 42, 0
1, 24630, Note_on_c, 4, 44, 0
1, 24630, Note_on_c, 7, 66, 100
1, 24630, Note_on_c, 9, 42, 50
1, 24640, Note_on_c, 0, 75, 0
1, 24650, Note_on_c, 7, 66, 0
1, 24658, Note_on_c, 3, 63, 0
1, 24658, Note_on_c, 3, 60, 0
1, 24658, Note_on_c, 3, 66, 0
1, 24658, Note_on_c, 9, 42, 0
1, 24660, Note_on_c, 9, 36, 100
1, 24660, Note_on_c, 0, 75, 100
1, 24660, Note_on_c, 7, 61, 100
1, 24660, Note_on_c, 9, 42, 50
1, 24660, Note_on_c, 3, 66, 100
1, 24660, Note_on_c, 3, 63, 100
1, 24660, Note_on_c, 3, 61, 100
1, 24660, Note_on_c, 4, 47, 100
1, 24680, Note_on_c, 9, 38, 0
1, 24688, Note_on_c, 9, 42, 0
1, 24690, Note_on_c, 9, 42, 50
1, 24700, Note_on_c, 9, 36, 0
1, 24700, Note_on_c, 7, 61, 0
1, 24700, Note_on_c, 0, 75, 0
1, 24718, Note_on_c, 9, 42, 0
1, 24720, Note_on_c, 9, 42, 50
1, 24720, Note_on_c, 0, 75, 100
1, 24720, Note_on_c, 7, 70, 100
1, 24740, Note_on_c, 4, 47, 0
1, 24748, Note_on_c, 9, 42, 0
1, 24750, Note_on_c, 9, 42, 50
1, 24760, Note_on_c, 0, 75, 0
1, 24760, Note_on_c, 7, 70, 0
1, 24778, Note_on_c, 9, 42, 0
1, 24780, Note_on_c, 9, 42, 50
1, 24780, Note_on_c, 0, 73, 100
1, 24780, Note_on_c, 9, 36, 100
1, 24780, Note_on_c, 4, 47, 100
1, 24780, Note_on_c, 7, 66, 100
1, 24800, Note_on_c, 7, 66, 0
1, 24808, Note_on_c, 9, 42, 0
1, 24810, Note_on_c, 9, 42, 50
1, 24810, Note_on_c, 7, 61, 100
1, 24820, Note_on_c, 9, 36, 0
1, 24838, Note_on_c, 9, 42, 0
1, 24840, Note_on_c, 4, 47, 0
1, 24840, Note_on_c, 9, 38, 110
1, 24840, Note_on_c, 9, 42, 50
1, 24868, Note_on_c, 9, 42, 0
1, 24870, Note_on_c, 7, 61, 0
1, 24870, Note_on_c, 4, 47, 100
1, 24870, Note_on_c, 9, 42, 50
1, 24898, Note_on_c, 9, 42, 0
1, 24900, Note_on_c, 0, 73, 0
1, 24900, Note_on_c, 9, 42, 50
1, 24900, Note_on_c, 7, 70, 100
1, 24900, Note_on_c, 9, 36, 100
1, 24920, Note_on_c, 9, 36, 0
1, 24920, Note_on_c, 7, 70, 0
1, 24920, Note_on_c, 9, 38, 0
1, 24928, Note_on_c, 9, 42, 0
1, 24930, Note_on_c, 4, 47, 0
1, 24930, Note_on_c, 7, 68, 100
1, 24930, Note_on_c, 9, 36, 100
1, 24930, Note_on_c, 9, 42, 50
1, 24947, Note_on_c, 3, 63, 0
1, 24947, Note_on_c, 3, 61, 0
1, 24947, Note_on_c, 3, 66, 0
1, 24950, Note_on_c, 9, 36, 0
1, 24958, Note_on_c, 9, 42, 0
1, 24960, Note_on_c, 4, 42, 100
1, 24960, Note_on_c, 3, 68, 100
1, 24960, Note_on_c, 0, 70, 100
1, 24960, Note_on_c, 9, 42, 50
1, 24960, Note_on_c, 3, 70, 100
1, 24960, Note_on_c, 9, 36, 100
1, 24960, Note_on_c, 3, 60, 100
1, 24988, Note_on_c, 9, 42, 0
1, 24990, Note_on_c, 9, 42, 50
1, 25000, Note_on_c, 9, 36, 0
1, 25010, Note_on_c, 7, 68, 0
1, 25018, Note_on_c, 9, 42, 0
1, 25020, Note_on_c, 4, 42, 0
1, 25020, Note_on_c, 0, 70, 0
1, 25020, Note_on_c, 7, 70, 100
1, 25020, Note_on_c, 9, 42, 50
1, 25048, Note_on_c, 9, 42, 0
1, 25050, Note_on_c, 0, 73, 100
1, 25050, Note_on_c, 4, 42, 100
1, 25050, Note_on_c, 9, 42, 50
1, 25050, Note_on_c, 9, 36, 100
1, 25060, Note_on_c, 7, 70, 0
1, 25078, Note_on_c, 9, 42, 0
1, 25080, Note_on_c, 9, 38, 110
1, 25080, Note_on_c, 7, 68, 100
1, 25080, Note_on_c, 9, 42, 50
1, 25090, Note_on_c, 9, 36, 0
1, 25090, Note_on_c, 0, 73, 0
1, 25100, Note_on_c, 7, 68, 0
1, 25108, Note_on_c, 9, 42, 0
1, 25110, Note_on_c, 4, 42, 0
1, 25110, Note_on_c, 9, 42, 50
1, 25110, Note_on_c, 7, 65, 100
1, 25110, Note_on_c, 0, 73, 100
1, 25130, Note_on_c, 0, 73, 0
1, 25130, Note_on_c, 7, 65, 0
1, 25138, Note_on_c, 3, 60, 0
1, 25138, Note_on_c, 3, 68, 0
1, 25138, Note_on_c, 3, 70, 0
1, 25138, Note_on_c, 9, 42, 0
1, 25140, Note_on_c, 7, 61, 100
1, 25140, Note_on_c, 0, 73, 100
1, 25140, Note_on_c, 3, 61, 100
1, 25140, Note_on_c, 3, 66, 100
1, 25140, Note_on_c, 3, 63, 100
1, 25140, Note_on_c, 9, 42, 50
1, 25140, Note_on_c, 9, 36, 100
1, 25140, Note_on_c, 4, 49, 100
1, 25160, Note_on_c, 9, 38, 0
1, 25168, Note_on_c, 9, 42, 0
1, 25170, Note_on_c, 9, 42, 50
1, 25180, Note_on_c, 9, 36, 0
1, 25180, Note_on_c, 7, 61, 0
1, 25198, Note_on_c, 9, 42, 0
1, 25200, Note_on_c, 4, 49, 0
1, 25200, Note_on_c, 7, 68, 100
1, 25200, Note_on_c, 9, 42, 50
1, 25220, Note_on_c, 0, 73, 0
1, 25228, Note_on_c, 9, 42, 0
1, 25230, Note_on_c, 9, 42, 50
1, 25230, Note_on_c, 0, 70, 100
1, 25230, Note_on_c, 4, 49, 100
1, 25240, Note_on_c, 7, 68, 0
1, 25250, Note_on_c, 0, 70, 0
1, 25250, Note_on_c, 4, 49, 0
1, 25258, Note_on_c, 9, 42, 0
1, 25260, Note_on_c, 7, 63, 100
1, 25260, Note_on_c, 0, 68, 100
1, 25260, Note_on_c, 9, 36, 100
1, 25260, Note_on_c, 4, 49, 100
1, 25260, Note_on_c, 9, 42, 50
1, 25260, Note_on_c, 9, 47, 100
1, 25280, Note_on_c, 4, 49, 0
1, 25280, Note_on_c, 7, 63, 0
1, 25288, Note_on_c, 9, 42, 0
1, 25290, Note_on_c, 4, 53, 100
1, 25290, Note_on_c, 7, 61, 100
1, 25290, Note_on_c, 9, 42, 50
1, 25300, Note_on_c, 9, 36, 0
1, 25300, Note_on_c, 9, 47, 0
1, 25300, Note_on_c, 0, 68, 0
1, 25310, Note_on_c, 4, 53, 0
1, 25318, Note_on_c, 9, 42, 0
1, 25320, Note_on_c, 9, 42, 50
1, 25320, Note_on_c, 9, 38, 85
1, 25320, Note_on_c, 4, 56, 100
1, 25340, Note_on_c, 4, 56, 0
1, 25340, Note_on_c, 9, 38, 0
1, 25348, Note_on_c, 9, 42, 0
1, 25350, Note_on_c, 4, 53, 100
1, 25350, Note_on_c, 9, 42, 50
1, 25370, Note_on_c, 4, 53, 0
1, 25378, Note_on_c, 9, 42, 0
1, 25380, Note_on_c, 9, 38, 97
1, 25380, Note_on_c, 9, 36, 100
1, 25380, Note_on_c, 4, 51, 100
1, 25380, Note_on_c, 9, 42, 50
1, 25400, Note_on_c, 4, 51, 0
1, 25400, Note_on_c, 9, 36, 0
1, 25400, Note_on_c, 9, 38, 0
1, 25408, Note_on_c, 9, 42, 0
1, 25410, Note_on_c, 7, 61, 0
1, 25410, Note_on_c, 4, 49, 100
1, 25410, Note_on_c, 9, 42, 50
1, 25410, Note_on_c, 9, 36, 100
1, 25427, Note_on_c, 3, 66, 0
1, 25427, Note_on_c, 3, 61, 0
1, 25427, Note_on_c, 3, 63, 0
1, 25430, Note_on_c, 4, 49, 0
1, 25430, Note_on_c, 9, 36, 0
1, 25438, Note_on_c, 9, 42, 0
1, 25440, Note_on_c, 9, 42, 50
1, 25440, Note_on_c, 9, 36, 100
1, 25440, Note_on_c, 3, 66, 100
1, 25440, Note_on_c, 4, 44, 100
1, 25440, Note_on_c, 9, 57, 100
1, 25440, Note_on_c, 7, 66, 100
1, 25440, Note_on_c, 3, 60, 100
1, 25440, Note_on_c, 3, 63, 100
1, 25468, Note_on_c, 9, 42, 0
1, 25470, Note_on_c, 9, 42, 50
1, 25480, Note_on_c, 9, 57, 0
1, 25480, Note_on_c, 9, 36, 0
1, 25480, Note_on_c, 7, 66, 0
1, 25498, Note_on_c, 9, 42, 0
1, 25500, Note_on_c, 4, 44, 0
1, 25500, Note_on_c, 7, 71, 100
1, 25500, Note_on_c, 0, 75, 100
1, 25500, Note_on_c, 9, 42, 50
1, 25528, Note_on_c, 9, 42, 0
1, 25530, Note_on_c, 9, 36, 100
1, 25530, Note_on_c, 9, 42, 50
1, 25530, Note_on_c, 4, 44, 100
1, 25540, Note_on_c, 7, 71, 0
1, 25540, Note_on_c, 0, 75, 0
1, 25558, Note_on_c, 9, 42, 0
1, 25560, Note_on_c, 0, 75, 100
1, 25560, Note_on_c, 7, 70, 100
1, 25560, Note_on_c, 9, 42, 50
1, 25560, Note_on_c, 9, 38, 110
1, 25570, Note_on_c, 9, 36, 0
1, 25580, Note_on_c, 7, 70, 0
1, 25588, Note_on_c, 9, 42, 0
1, 25590, Note_on_c, 4, 44, 0
1, 25590, Note_on_c, 7, 66, 100
1, 25590, Note_on_c, 9, 42, 50
1, 25610, Note_on_c, 7, 66, 0
1, 25618, Note_on_c, 3, 60, 0
1, 25618, Note_on_c, 3, 63, 0
1, 25618, Note_on_c, 3, 66, 0
1, 25618, Note_on_c, 9, 42, 0
1, 25620, Note_on_c, 9, 42, 50
1, 25620, Note_on_c, 3, 61, 100
1, 25620, Note_on_c, 3, 66, 100
1, 25620, Note_on_c, 3, 63, 100
1, 25620, Note_on_c, 9, 36, 100
1, 25620, Note_on_c, 7, 61, 100
1, 25620, Note_on_c, 4, 47, 100
1, 25640, Note_on_c, 9, 38, 0
1, 25640, Note_on_c, 0, 75, 0
1, 25648, Note_on_c, 9, 42, 0
1, 25650, Note_on_c, 9, 42, 50
1, 25660, Note_on_c, 7, 61, 0
1, 25660, Note_on_c, 9, 36, 0
1, 25678, Note_on_c, 9, 42, 0
1, 25680, Note_on_c, 7, 70, 100
1, 25680, Note_on_c, 9, 42, 50
1, 25680, Note_on_c, 0, 80, 100
1, 25700, Note_on_c, 4, 47, 0
1, 25708, Note_on_c, 9, 42, 0
1, 25710, Note_on_c, 9, 42, 50
1, 25720, Note_on_c, 7, 70, 0
1, 25720, Note_on_c, 0, 80, 0
1, 25738, Note_on_c, 9, 42, 0
1, 25740, Note_on_c, 0, 76, 100
1, 25740, Note_on_c, 9, 42, 50
1, 25740, Note_on_c, 4, 47, 100
1, 25740, Note_on_c, 7, 66, 100
1, 25740, Note_on_c, 9, 36, 100
1, 25760, Note_on_c, 7, 66, 0
1, 25768, Note_on_c, 9, 42, 0
1, 25770, Note_on_c, 7, 61, 100
1, 25770, Note_on_c, 9, 42, 50
1, 25780, Note_on_c, 9, 36, 0
1, 25780, Note_on_c, 0, 76, 0
1, 25798, Note_on_c, 9, 42, 0
1, 25800, Note_on_c, 4, 47, 0
1, 25800, Note_on_c, 9, 42, 50
1, 25800, Note_on_c, 9, 38, 110
1, 25800, Note_on_c, 0, 73, 100
1, 25828, Note_on_c, 9, 42, 0
1, 25830, Note_on_c, 7, 61, 0
1, 25830, Note_on_c, 4, 47, 100
1, 25830, Note_on_c, 9, 42, 50
1, 25850, Note_on_c, 4, 47, 0
1, 25858, Note_on_c, 9, 42, 0
1, 25860, Note_on_c, 9, 36, 100
1, 25860, Note_on_c, 7, 70, 100
1, 25860, Note_on_c, 4, 47, 100
1, 25860, Note_on_c, 9, 42, 50
1, 25880, Note_on_c, 7, 70, 0
1, 25880, Note_on_c, 9, 36, 0
1, 25880, Note_on_c, 9, 38, 0
1, 25880, Note_on_c, 0, 73, 0
1, 25888, Note_on_c, 9, 42, 0
1, 25890, Note_on_c, 9, 38, 100
1, 25890, Note_on_c, 9, 42, 50
1, 25890, Note_on_c, 9, 36, 100
1, 25890, Note_on_c, 7, 68, 100
1, 25900, Note_on_c, 4, 47, 0
1, 25907, Note_on_c, 3, 61, 0
1, 25907, Note_on_c, 3, 66, 0
1, 25907, Note_on_c, 3, 63, 0
1, 25910, Note_on_c, 9, 38, 0
1, 25910, Note_on_c, 9, 36, 0
1, 25918, Note_on_c, 9, 42, 0
1, 25920, Note_on_c, 3, 68, 100
1, 25920, Note_on_c, 4, 40, 100
1, 25920, Note_on_c, 9, 36, 100
1, 25920, Note_on_c, 9, 42, 50
1, 25920, Note_on_c, 3, 70, 100
1, 25920, Note_on_c, 3, 66, 100
1, 25948, Note_on_c, 9, 42, 0
1, 25950, Note_on_c, 9, 42, 50
1, 25950, Note_on_c, 0, 71, 100
1, 25960, Note_on_c, 9, 36, 0
1, 25970, Note_on_c, 0, 71, 0
1, 25970, Note_on_c, 7, 68, 0
1, 25978, Note_on_c, 9, 42, 0
1, 25980, Note_on_c, 4, 40, 0
1, 25980, Note_on_c, 9, 42, 50
1, 25980, Note_on_c, 0, 71, 100
1, 25980, Note_on_c, 7, 68, 100
1, 26000, Note_on_c, 0, 71, 0
1, 26008, Note_on_c, 9, 42, 0
1, 26010, Note_on_c, 0, 73, 100
1, 26010, Note_on_c, 9, 42, 50
1, 26010, Note_on_c, 4, 40, 100
1, 26010, Note_on_c, 9, 36, 100
1, 26020, Note_on_c, 7, 68, 0
1, 26038, Note_on_c, 9, 42, 0
1, 26040, Note_on_c, 9, 42, 50
1, 26040, Note_on_c, 7, 64, 100
1, 26040, Note_on_c, 9, 38, 110
1, 26050, Note_on_c, 9, 36, 0
1, 26060, Note_on_c, 7, 64, 0
1, 26068, Note_on_c, 9, 42, 0
1, 26070, Note_on_c, 0, 73, 0
1, 26070, Note_on_c, 4, 40, 0
1, 26070, Note_on_c, 7, 59, 100
1, 26070, Note_on_c, 9, 42, 50
1, 26090, Note_on_c, 7, 59, 0
1, 26098, Note_on_c, 3, 68, 0
1, 26098, Note_on_c, 3, 66, 0
1, 26098, Note_on_c, 3, 70, 0
1, 26098, Note_on_c, 9, 42, 0
1, 26100, Note_on_c, 7, 56, 100
1, 26100, Note_on_c, 9, 36, 100
1, 26100, Note_on_c, 9, 42, 50
1, 26100, Note_on_c, 3, 60, 100
1, 26100, Note_on_c, 3, 68, 100
1, 26100, Note_on_c, 0, 73, 100
1, 26100, Note_on_c, 3, 70, 100
1, 26100, Note_on_c, 4, 42, 100
1, 26120, Note_on_c, 9, 38, 0
1, 26128, Note_on_c, 9, 42, 0
1, 26130, Note_on_c, 9, 42, 50
1, 26140, Note_on_c, 7, 56, 0
1, 26140, Note_on_c, 0, 73, 0
1, 26140, Note_on_c, 9, 36, 0
1, 26158, Note_on_c, 9, 42, 0
1, 26160, Note_on_c, 7, 70, 100
1, 26160, Note_on_c, 9, 42, 50
1, 26160, Note_on_c, 0, 73, 100
1, 26180, Note_on_c, 4, 42, 0
1, 26188, Note_on_c, 9, 42, 0
1, 26190, Note_on_c, 9, 42, 50
1, 26200, Note_on_c, 7, 70, 0
1, 26218, Note_on_c, 9, 42, 0
1, 26220, Note_on_c, 4, 42, 100
1, 26220, Note_on_c, 9, 36, 100
1, 26220, Note_on_c, 9, 42, 50
1, 26220, Note_on_c, 7, 66, 100
1, 26240, Note_on_c, 7, 66, 0
1, 26240, Note_on_c, 0, 73, 0
1, 26248, Note_on_c, 9, 42, 0
1, 26250, Note_on_c, 7, 61, 100
1, 26250, Note_on_c, 9, 42, 50
1, 26260, Note_on_c, 9, 36, 0
1, 26278, Note_on_c, 9, 42, 0
1, 26280, Note_on_c, 4, 42, 0
1, 26280, Note_on_c, 9, 38, 110
1, 26280, Note_on_c, 9, 42, 50
1, 26308, Note_on_c, 9, 42, 0
1, 26310, Note_on_c, 7, 61, 0
1, 26310, Note_on_c, 4, 42, 100
1, 26310, Note_on_c, 9, 42, 50
1, 26330, Note_on_c, 4, 42, 0
1, 26338, Note_on_c, 9, 42, 0
1, 26340, Note_on_c, 4, 42, 100
1, 26340, Note_on_c, 9, 42, 50
1, 26340, Note_on_c, 7, 70, 100
1, 26340, Note_on_c, 9, 36, 100
1, 26340, Note_on_c, 9, 43, 100
1, 26360, Note_on_c, 9, 36, 0
1, 26360, Note_on_c, 7, 70, 0
1, 26360, Note_on_c, 9, 38, 0
1, 26368, Note_on_c, 9, 42, 0
1, 26370, Note_on_c, 9, 36, 100
1, 26370, Note_on_c, 9, 42, 50
1, 26370, Note_on_c, 7, 68, 100
1, 26380, Note_on_c, 4, 42, 0
1, 26380, Note_on_c, 9, 43, 0
1, 26387, Note_on_c, 3, 70, 0
1, 26387, Note_on_c, 3, 60, 0
1, 26387, Note_on_c, 3, 68, 0
1, 26390, Note_on_c, 9, 36, 0
1, 26398, Note_on_c, 9, 42, 0
1, 26400, Note_on_c, 9, 36, 100
1, 26400, Note_on_c, 3, 63, 100
1, 26400, Note_on_c, 9, 42, 50
1, 26400, Note_on_c, 4, 44, 100
1, 26400, Note_on_c, 3, 68, 100
1, 26428, Note_on_c, 9, 42, 0
1, 26430, Note_on_c, 9, 42, 50
1, 26440, Note_on_c, 9, 36, 0
1, 26447, Note_on_c, 7, 68, 0
1, 26458, Note_on_c, 9, 42, 0
1, 26460, Note_on_c, 4, 44, 0
1, 26460, Note_on_c, 0, 68, 100
1, 26460, Note_on_c, 9, 42, 50
1, 26480, Note_on_c, 0, 68, 0
1, 26488, Note_on_c, 9, 42, 0
1, 26490, Note_on_c, 9, 36, 100
1, 26490, Note_on_c, 0, 68, 100
1, 26490, Note_on_c, 4, 44, 100
1, 26490, Note_on_c, 9, 42, 50
1, 26510, Note_on_c, 0, 68, 0
1, 26518, Note_on_c, 9, 42, 0
1, 26520, Note_on_c, 0, 68, 100
1, 26520, Note_on_c, 9, 42, 50
1, 26520, Note_on_c, 9, 38, 110
1, 26530, Note_on_c, 9, 36, 0
1, 26540, Note_on_c, 0, 68, 0
1, 26548, Note_on_c, 9, 42, 0
1, 26550, Note_on_c, 4, 44, 0
1, 26550, Note_on_c, 9, 42, 50
1, 26550, Note_on_c, 0, 68, 100
1, 26570, Note_on_c, 0, 68, 0
1, 26578, Note_on_c, 9, 42, 0
1, 26580, Note_on_c, 9, 36, 100
1, 26580, Note_on_c, 0, 68, 100
1, 26580, Note_on_c, 4, 47, 100
1, 26580, Note_on_c, 9, 42, 50
1, 26600, Note_on_c, 9, 38, 0
1, 26608, Note_on_c, 9, 42, 0
1, 26610, Note_on_c, 9, 42, 50
1, 26620, Note_on_c, 0, 68, 0
1, 26620, Note_on_c, 9, 36, 0
1, 26620, Note_on_c, 4, 47, 0
1, 26638, Note_on_c, 9, 42, 0
1, 26640, Note_on_c, 4, 51, 100
1, 26640, Note_on_c, 0, 71, 100
1, 26640, Note_on_c, 9, 42, 50
1, 26668, Note_on_c, 9, 42, 0
1, 26670, Note_on_c, 9, 42, 50
1, 26680, Note_on_c, 4, 51, 0
1, 26698, Note_on_c, 9, 42, 0
1, 26700, Note_on_c, 0, 71, 0
1, 26700, Note_on_c, 4, 53, 100
1, 26700, Note_on_c, 9, 36, 100
1, 26700, Note_on_c, 9, 42, 50
1, 26728, Note_on_c, 9, 42, 0
1, 26730, Note_on_c, 9, 42, 50
1, 26730, Note_on_c, 0, 71, 100
1, 26740, Note_on_c, 4, 53, 0
1, 26740, Note_on_c, 9, 36, 0
1, 26758, Note_on_c, 9, 42, 0
1, 26760, Note_on_c, 9, 42, 50
1, 26760, Note_on_c, 9, 38, 110
1, 26760, Note_on_c, 4, 56, 100
1, 26770, Note_on_c, 0, 71, 0
1, 26788, Note_on_c, 9, 42, 0
1, 26790, Note_on_c, 9, 42, 50
1, 26790, Note_on_c, 0, 68, 100
1, 26800, Note_on_c, 4, 56, 0
1, 26810, Note_on_c, 0, 68, 0
1, 26818, Note_on_c, 9, 42, 0
1, 26820, Note_on_c, 9, 36, 100
1, 26820, Note_on_c, 0, 71, 100
1, 26820, Note_on_c, 9, 42, 50
1, 26820, Note_on_c, 4, 51, 100
1, 26840, Note_on_c, 9, 36, 0
1, 26840, Note_on_c, 9, 38, 0
1, 26848, Note_on_c, 9, 42, 0
1, 26850, Note_on_c, 9, 36, 100
1, 26850, Note_on_c, 9, 42, 50
1, 26860, Note_on_c, 0, 71, 0
1, 26860, Note_on_c, 4, 51, 0
1, 26870, Note_on_c, 9, 36, 0
1, 26878, Note_on_c, 9, 42, 0
1, 26880, Note_on_c, 9, 36, 100
1, 26880, Note_on_c, 4, 54, 100
1, 26880, Note_on_c, 9, 42, 50
1, 26908, Note_on_c, 9, 42, 0
1, 26910, Note_on_c, 9, 42, 50
1, 26920, Note_on_c, 9, 36, 0
1, 26938, Note_on_c, 9, 42, 0
1, 26940, Note_on_c, 9, 42, 50
1, 26940, Note_on_c, 0, 76, 100
1, 26960, Note_on_c, 0, 76, 0
1, 26960, Note_on_c, 4, 54, 0
1, 26968, Note_on_c, 9, 42, 0
1, 26970, Note_on_c, 9, 42, 50
1, 26970, Note_on_c, 9, 36, 100
1, 26970, Note_on_c, 0, 76, 100
1, 26990, Note_on_c, 0, 76, 0
1, 26998, Note_on_c, 9, 42, 0
1, 27000, Note_on_c, 9, 38, 110
1, 27000, Note_on_c, 4, 52, 100
1, 27000, Note_on_c, 9, 42, 50
1, 27000, Note_on_c, 0, 76, 100
1, 27010, Note_on_c, 9, 36, 0
1, 27028, Note_on_c, 9, 42, 0
1, 27030, Note_on_c, 9, 42, 50
1, 27040, Note_on_c, 0, 76, 0
1, 27058, Note_on_c, 9, 42, 0
1, 27060, Note_on_c, 9, 42, 50
1, 27060, Note_on_c, 0, 73, 100
1, 27060, Note_on_c, 9, 36, 100
1, 27080, Note_on_c, 0, 73, 0
1, 27080, Note_on_c, 4, 52, 0
1, 27080, Note_on_c, 9, 38, 0
1, 27088, Note_on_c, 9, 42, 0
1, 27090, Note_on_c, 0, 73, 100
1, 27090, Note_on_c, 9, 42, 50
1, 27100, Note_on_c, 9, 36, 0
1, 27110, Note_on_c, 0, 73, 0
1, 27118, Note_on_c, 9, 42, 0
1, 27120, Note_on_c, 4, 51, 100
1, 27120, Note_on_c, 0, 76, 100
1, 27120, Note_on_c, 9, 42, 50
1, 27140, Note_on_c, 0, 76, 0
1, 27148, Note_on_c, 9, 42, 0
1, 27150, Note_on_c, 0, 73, 100
1, 27150, Note_on_c, 9, 42, 50
1, 27170, Note_on_c, 0, 73, 0
1, 27178, Note_on_c, 9, 42, 0
1, 27180, Note_on_c, 9, 38, 110
1, 27180, Note_on_c, 9, 36, 100
1, 27180, Note_on_c, 0, 73, 100
1, 27180, Note_on_c, 9, 42, 50
1, 27200, Note_on_c, 9, 38, 0
1, 27200, Note_on_c, 4, 51, 0
1, 27208, Note_on_c, 9, 42, 0
1, 27210, Note_on_c, 9, 42, 50
1, 27210, Note_on_c, 9, 38, 110
1, 27220, Note_on_c, 9, 36, 0
1, 27230, Note_on_c, 9, 38, 0
1, 27238, Note_on_c, 9, 42, 0
1, 27240, Note_on_c, 9, 42, 50
1, 27240, Note_on_c, 4, 49, 100
1, 27240, Note_on_c, 9, 38, 110
1, 27260, Note_on_c, 9, 38, 0
1, 27268, Note_on_c, 9, 42, 0
1, 27270, Note_on_c, 9, 42, 50
1, 27298, Note_on_c, 9, 42, 0
1, 27300, Note_on_c, 0, 73, 0
1, 27300, Note_on_c, 9, 42, 50
1, 27300, Note_on_c, 9, 36, 100
1, 27300, Note_on_c, 9, 38, 110
1, 27320, Note_on_c, 9, 38, 0
1, 27320, Note_on_c, 4, 49, 0
1, 27320, Note_on_c, 9, 36, 0
1, 27328, Note_on_c, 9, 42, 0
1, 27330, Note_on_c, 9, 38, 110
1, 27330, Note_on_c, 9, 36, 100
1, 27330, Note_on_c, 9, 42, 50
1, 27350, Note_on_c, 9, 36, 0
1, 27350, Note_on_c, 9, 38, 0
1, 27358, Note_on_c, 3, 63, 0
1, 27358, Note_on_c, 3, 68, 0
1, 27358, Note_on_c, 9, 42, 0
1, 27360, Note_on_c, 3, 63, 100
1, 27360, Note_on_c, 3, 59, 100
1, 27360, Note_on_c, 3, 66, 100
1, 27360, Note_on_c, 7, 63, 100
1, 27360, Note_on_c, 4, 47, 100
1, 27360, Note_on_c, 9, 42, 50
1, 27360, Note_on_c, 9, 36, 100
1, 27360, Note_on_c, 7, 59, 100
1, 27360, Note_on_c, 7, 54, 100
1, 27360, Control_c, 7, 7, 70
1, 27388, Note_on_c, 9, 42, 0
1, 27390, Note_on_c, 9, 42, 50
1, 27400, Note_on_c, 9, 36, 0
1, 27418, Note_on_c, 9, 42, 0
1, 27420, Note_on_c, 7, 59, 0
1, 27420, Note_on_c, 4, 47, 0
1, 27420, Note_on_c, 7, 54, 0
1, 27420, Note_on_c, 7, 63, 0
1, 27420, Note_on_c, 0, 71, 100
1, 27420, Note_on_c, 9, 42, 50
1, 27448, Note_on_c, 9, 42, 0
1, 27450, Note_on_c, 7, 63, 100
1, 27450, Note_on_c, 4, 47, 100
1, 27450, Note_on_c, 7, 54, 100
1, 27450, Note_on_c, 7, 59, 100
1, 27450, Note_on_c, 9, 42, 50
1, 27450, Note_on_c, 9, 36, 100
1, 27478, Note_on_c, 9, 42, 0
1, 27480, Note_on_c, 0, 71, 0
1, 27480, Note_on_c, 9, 38, 110
1, 27480, Note_on_c, 9, 42, 50
1, 27490, Note_on_c, 9, 36, 0
1, 27490, Note_on_c, 4, 47, 0
1, 27508, Note_on_c, 9, 42, 0
1, 27510, Note_on_c, 7, 59, 0
1, 27510, Note_on_c, 7, 63, 0
1, 27510, Note_on_c, 7, 54, 0
1, 27510, Note_on_c, 9, 42, 50
1, 27510, Note_on_c, 4, 47, 100
1, 27510, Note_on_c, 0, 71, 100
1, 27530, Note_on_c, 4, 47, 0
1, 27538, Note_on_c, 9, 42, 0
1, 27540, Note_on_c, 7, 54, 100
1, 27540, Note_on_c, 7, 63, 100
1, 27540, Note_on_c, 7, 59, 100
1, 27540, Note_on_c, 9, 42, 50
1, 27540, Note_on_c, 4, 47, 100
1, 27540, Note_on_c, 9, 36, 100
1, 27560, Note_on_c, 9, 38, 0
1, 27568, Note_on_c, 9, 42, 0
1, 27570, Note_on_c, 0, 71, 0
1, 27570, Note_on_c, 9, 42, 50
1, 27580, Note_on_c, 9, 36, 0
1, 27598, Note_on_c, 9, 42, 0
1, 27600, Note_on_c, 9, 42, 50
1, 27600, Note_on_c, 0, 73, 100
1, 27620, Note_on_c, 7, 59, 0
1, 27620, Note_on_c, 7, 54, 0
1, 27620, Note_on_c, 7, 63, 0
1, 27628, Note_on_c, 9, 42, 0
1, 27630, Note_on_c, 9, 42, 50
1, 27658, Note_on_c, 9, 42, 0
1, 27660, Note_on_c, 9, 42, 50
1, 27660, Note_on_c, 7, 54, 100
1, 27660, Note_on_c, 7, 63, 100
1, 27660, Note_on_c, 7, 59, 100
1, 27660, Note_on_c, 9, 36, 100
1, 27680, Note_on_c, 0, 73, 0
1, 27688, Note_on_c, 9, 42, 0
1, 27690, Note_on_c, 9, 42, 50
1, 27700, Note_on_c, 9, 36, 0
1, 27700, Note_on_c, 4, 47, 0
1, 27718, Note_on_c, 9, 42, 0
1, 27720, Note_on_c, 9, 38, 110
1, 27720, Note_on_c, 9, 42, 50
1, 27748, Note_on_c, 9, 42, 0
1, 27750, Note_on_c, 4, 47, 100
1, 27750, Note_on_c, 9, 42, 50
1, 27770, Note_on_c, 4, 47, 0
1, 27778, Note_on_c, 9, 42, 0
1, 27780, Note_on_c, 7, 59, 0
1, 27780, Note_on_c, 7, 63, 0
1, 27780, Note_on_c, 7, 54, 0
1, 27780, Note_on_c, 9, 42, 50
1, 27780, Note_on_c, 4, 47, 100
1, 27780, Note_on_c, 9, 36, 100
1, 27800, Note_on_c, 9, 36, 0
1, 27800, Note_on_c, 9, 38, 0
1, 27808, Note_on_c, 9, 42, 0
1, 27810, Note_on_c, 9, 36, 100
1, 27810, Note_on_c, 9, 42, 50
1, 27820, Note_on_c, 4, 47, 0
1, 27830, Note_on_c, 9, 36, 0
1, 27838, Note_on_c, 3, 63, 0
1, 27838, Note_on_c, 3, 66, 0
1, 27838, Note_on_c, 9, 42, 0
1, 27838, Note_on_c, 3, 59, 0
1, 27840, Note_on_c, 4, 42, 100
1, 27840, Note_on_c, 9, 42, 50
1, 27840, Note_on_c, 7, 58, 100
1, 27840, Note_on_c, 7, 61, 100
1, 27840, Note_on_c, 3, 58, 100
1, 27840, Note_on_c, 7, 66, 100
1, 27840, Note_on_c, 3, 61, 100
1, 27840, Note_on_c, 9, 36, 100
1, 27840, Note_on_c, 3, 66, 100
1, 27868, Note_on_c, 9, 42, 0
1, 27870, Note_on_c, 9, 42, 50
1, 27880, Note_on_c, 9, 36, 0
1, 27898, Note_on_c, 9, 42, 0
1, 27900, Note_on_c, 4, 42, 0
1, 27900, Note_on_c, 7, 61, 0
1, 27900, Note_on_c, 7, 58, 0
1, 27900, Note_on_c, 7, 66, 0
1, 27900, Note_on_c, 9, 42, 50
1, 27900, Note_on_c, 0, 75, 100
1, 27928, Note_on_c, 9, 42, 0
1, 27930, Note_on_c, 9, 36, 100
1, 27930, Note_on_c, 4, 46, 100
1, 27930, Note_on_c, 7, 58, 100
1, 27930, Note_on_c, 7, 66, 100
1, 27930, Note_on_c, 9, 42, 50
1, 27930, Note_on_c, 7, 61, 100
1, 27958, Note_on_c, 9, 42, 0
1, 27960, Note_on_c, 0, 75, 0
1, 27960, Note_on_c, 9, 42, 50
1, 27960, Note_on_c, 9, 38, 110
1, 27970, Note_on_c, 9, 36, 0
1, 27970, Note_on_c, 4, 46, 0
1, 27988, Note_on_c, 9, 42, 0
1, 27990, Note_on_c, 7, 66, 0
1, 27990, Note_on_c, 7, 61, 0
1, 27990, Note_on_c, 7, 58, 0
1, 27990, Note_on_c, 4, 47, 100
1, 27990, Note_on_c, 9, 42, 50
1, 27990, Note_on_c, 0, 73, 100
1, 28010, Note_on_c, 4, 47, 0
1, 28018, Note_on_c, 3, 61, 0
1, 28018, Note_on_c, 3, 58, 0
1, 28018, Note_on_c, 3, 66, 0
1, 28018, Note_on_c, 9, 42, 0
1, 28020, Note_on_c, 7, 61, 100
1, 28020, Note_on_c, 7, 65, 100
1, 28020, Note_on_c, 7, 56, 100
1, 28020, Note_on_c, 9, 36, 100
1, 28020, Note_on_c, 3, 65, 100
1, 28020, Note_on_c, 4, 49, 100
1, 28020, Note_on_c, 3, 61, 100
1, 28020, Note_on_c, 3, 56, 100
1, 28020, Note_on_c, 9, 42, 50
1, 28040, Note_on_c, 9, 38, 0
1, 28048, Note_on_c, 9, 42, 0
1, 28050, Note_on_c, 0, 73, 0
1, 28050, Note_on_c, 9, 42, 50
1, 28060, Note_on_c, 9, 36, 0
1, 28078, Note_on_c, 9, 42, 0
1, 28080, Note_on_c, 4, 49, 0
1, 28080, Note_on_c, 9, 42, 50
1, 28080, Note_on_c, 0, 73, 100
1, 28108, Note_on_c, 9, 42, 0
1, 28110, Note_on_c, 4, 37, 100
1, 28110, Note_on_c, 9, 42, 50
1, 28110, Note_on_c, 9, 38, 100
1, 28130, Note_on_c, 4, 37, 0
1, 28138, Note_on_c, 9, 42, 0
1, 28140, Note_on_c, 4, 37, 100
1, 28140, Note_on_c, 9, 36, 100
1, 28140, Note_on_c, 9, 42, 50
1, 28150, Note_on_c, 9, 38, 0
1, 28160, Note_on_c, 0, 73, 0
1, 28168, Note_on_c, 9, 42, 0
1, 28170, Note_on_c, 9, 42, 50
1, 28180, Note_on_c, 4, 37, 0
1, 28180, Note_on_c, 9, 36, 0
1, 28198, Note_on_c, 9, 42, 0
1, 28200, Note_on_c, 4, 37, 100
1, 28200, Note_on_c, 9, 42, 50
1, 28200, Note_on_c, 9, 38, 110
1, 28228, Note_on_c, 9, 42, 0
1, 28230, Note_on_c, 0, 71, 100
1, 28230, Note_on_c, 9, 38, 100
1, 28230, Note_on_c, 9, 42, 50
1, 28250, Note_on_c, 9, 38, 0
1, 28250, Note_on_c, 0, 71, 0
1, 28258, Note_on_c, 9, 42, 0
1, 28260, Note_on_c, 7, 56, 0
1, 28260, Note_on_c, 7, 61, 0
1, 28260, Note_on_c, 7, 65, 0
1, 28260, Note_on_c, 9, 36, 100
1, 28260, Note_on_c, 0, 71, 100
1, 28260, Note_on_c, 9, 42, 50
1, 28280, Note_on_c, 9, 36, 0
1, 28280, Note_on_c, 9, 38, 0
1, 28280, Note_on_c, 4, 37, 0
1, 28288, Note_on_c, 9, 42, 0
1, 28290, Note_on_c, 9, 38, 100
1, 28290, Note_on_c, 9, 42, 50
1, 28290, Note_on_c, 9, 36, 100
1, 28300, Note_on_c, 0, 71, 0
1, 28307, Note_on_c, 3, 56, 0
1, 28307, Note_on_c, 3, 61, 0
1, 28307, Note_on_c, 3, 65, 0
1, 28310, Note_on_c, 9, 36, 0
1, 28310, Note_on_c, 9, 38, 0
1, 28318, Note_on_c, 9, 42, 0
1, 28320, Note_on_c, 3, 56, 100
1, 28320, Note_on_c, 3, 65, 100
1, 28320, Note_on_c, 9, 36, 100
1, 28320, Note_on_c, 9, 42, 50
1, 28320, Note_on_c, 4, 49, 100
1, 28320, Note_on_c, 0, 73, 100
1, 28320, Note_on_c, 7, 56, 100
1, 28320, Note_on_c, 7, 65, 100
1, 28348, Note_on_c, 9, 42, 0
1, 28350, Note_on_c, 9, 42, 50
1, 28360, Note_on_c, 9, 36, 0
1, 28378, Note_on_c, 9, 42, 0
1, 28380, Note_on_c, 0, 73, 0
1, 28380, Note_on_c, 9, 42, 50
1, 28400, Note_on_c, 4, 49, 0
1, 28408, Note_on_c, 9, 42, 0
1, 28410, Note_on_c, 0, 73, 100
1, 28410, Note_on_c, 9, 42, 50
1, 28410, Note_on_c, 9, 36, 100
1, 28430, Note_on_c, 0, 73, 0
1, 28438, Note_on_c, 3, 56, 0
1, 28438, Note_on_c, 7, 56, 0
1, 28438, Note_on_c, 3, 65, 0
1, 28438, Note_on_c, 7, 65, 0
1, 28438, Note_on_c, 9, 42, 0
1, 28440, Note_on_c, 7, 56, 100
1, 28440, Note_on_c, 3, 63, 100
1, 28440, Note_on_c, 7, 63, 100
1, 28440, Note_on_c, 3, 56, 100
1, 28440, Note_on_c, 9, 42, 50
1, 28440, Note_on_c, 9, 38, 110
1, 28440, Note_on_c, 0, 73, 100
1, 28440, Note_on_c, 4, 47, 100
1, 28450, Note_on_c, 9, 36, 0
1, 28460, Note_on_c, 0, 73, 0
1, 28468, Note_on_c, 9, 42, 0
1, 28470, Note_on_c, 0, 70, 100
1, 28470, Note_on_c, 9, 42, 50
1, 28490, Note_on_c, 0, 70, 0
1, 28498, Note_on_c, 9, 42, 0
1, 28500, Note_on_c, 9, 36, 100
1, 28500, Note_on_c, 9, 42, 50
1, 28500, Note_on_c, 0, 68, 100
1, 28520, Note_on_c, 9, 38, 0
1, 28520, Note_on_c, 4, 47, 0
1, 28528, Note_on_c, 9, 42, 0
1, 28530, Note_on_c, 9, 42, 50
1, 28540, Note_on_c, 0, 68, 0
1, 28540, Note_on_c, 9, 36, 0
1, 28558, Note_on_c, 3, 63, 0
1, 28558, Note_on_c, 7, 63, 0
1, 28558, Note_on_c, 7, 56, 0
1, 28558, Note_on_c, 9, 42, 0
1, 28558, Note_on_c, 3, 56, 0
1, 28560, Note_on_c, 7, 61, 100
1, 28560, Note_on_c, 0, 71, 100
1, 28560, Note_on_c, 4, 46, 100
1, 28560, Note_on_c, 9, 42, 50
1, 28560, Note_on_c, 7, 56, 100
1, 28560, Note_on_c, 3, 56, 100
1, 28560, Note_on_c, 3, 61, 100
1, 28588, Note_on_c, 9, 42, 0
1, 28590, Note_on_c, 9, 42, 50
1, 28618, Note_on_c, 9, 42, 0
1, 28620, Note_on_c, 9, 42, 50
1, 28620, Note_on_c, 9, 36, 100
1, 28640, Note_on_c, 0, 71, 0
1, 28640, Note_on_c, 4, 46, 0
1, 28648, Note_on_c, 9, 42, 0
1, 28650, Note_on_c, 9, 42, 50
1, 28660, Note_on_c, 9, 36, 0
1, 28678, Note_on_c, 7, 61, 0
1, 28678, Note_on_c, 7, 56, 0
1, 28678, Note_on_c, 3, 61, 0
1, 28678, Note_on_c, 9, 42, 0
1, 28678, Note_on_c, 3, 56, 0
1, 28680, Note_on_c, 0, 68, 100
1, 28680, Note_on_c, 7, 56, 100
1, 28680, Note_on_c, 7, 53, 100
1, 28680, Note_on_c, 9, 38, 110
1, 28680, Note_on_c, 3, 61, 100
1, 28680, Note_on_c, 3, 56, 100
1, 28680, Note_on_c, 3, 53, 100
1, 28680, Note_on_c, 4, 44, 100
1, 28680, Note_on_c, 7, 61, 100
1, 28680, Note_on_c, 9, 42, 50
1, 28708, Note_on_c, 9, 42, 0
1, 28710, Note_on_c, 9, 42, 50
1, 28720, Note_on_c, 0, 68, 0
1, 28738, Note_on_c, 9, 42, 0
1, 28740, Note_on_c, 0, 66, 100
1, 28740, Note_on_c, 9, 36, 100
1, 28740, Note_on_c, 9, 42, 50
1, 28760, Note_on_c, 9, 36, 0
1, 28760, Note_on_c, 4, 44, 0
1, 28760, Note_on_c, 9, 38, 0
1, 28768, Note_on_c, 9, 42, 0
1, 28770, Note_on_c, 9, 42, 50
1, 28770, Note_on_c, 9, 36, 100
1, 28790, Note_on_c, 9, 36, 0
1, 28798, Note_on_c, 7, 56, 0
1, 28798, Note_on_c, 9, 42, 0
1, 28798, Note_on_c, 3, 56, 0
1, 28798, Note_on_c, 7, 53, 0
1, 28798, Note_on_c, 7, 61, 0
1, 28798, Note_on_c, 3, 61, 0
1, 28798, Note_on_c, 3, 53, 0
1, 28800, Note_on_c, 7, 54, 100
1, 28800, Note_on_c, 3, 58, 100
1, 28800, Note_on_c, 3, 61, 100
1, 28800, Note_on_c, 9, 36, 100
1, 28800, Note_on_c, 4, 42, 100
1, 28800, Note_on_c, 7, 58, 100
1, 28800, Note_on_c, 9, 42, 50
1, 28800, Note_on_c, 3, 66, 100
1, 28828, Note_on_c, 9, 42, 0
1, 28830, Note_on_c, 9, 42, 50
1, 28840, Note_on_c, 9, 36, 0
1, 28858, Note_on_c, 9, 42, 0
1, 28860, Note_on_c, 7, 54, 0
1, 28860, Note_on_c, 4, 42, 0
1, 28860, Note_on_c, 7, 58, 0
1, 28860, Note_on_c, 9, 42, 50
1, 28888, Note_on_c, 9, 42, 0
1, 28890, Note_on_c, 4, 46, 100
1, 28890, Note_on_c, 9, 42, 50
1, 28890, Note_on_c, 7, 61, 100
1, 28890, Note_on_c, 9, 36, 100
1, 28900, Note_on_c, 0, 66, 0
1, 28918, Note_on_c, 9, 42, 0
1, 28920, Note_on_c, 9, 42, 50
1, 28920, Note_on_c, 9, 38, 110
1, 28930, Note_on_c, 9, 36, 0
1, 28930, Note_on_c, 4, 46, 0
1, 28948, Note_on_c, 9, 42, 0
1, 28950, Note_on_c, 7, 61, 0
1, 28950, Note_on_c, 4, 47, 100
1, 28950, Note_on_c, 9, 42, 50
1, 28970, Note_on_c, 4, 47, 0
1, 28978, Note_on_c, 3, 58, 0
1, 28978, Note_on_c, 3, 66, 0
1, 28978, Note_on_c, 3, 61, 0
1, 28978, Note_on_c, 9, 42, 0
1, 28980, Note_on_c, 7, 65, 100
1, 28980, Note_on_c, 7, 61, 100
1, 28980, Note_on_c, 3, 61, 100
1, 28980, Note_on_c, 7, 56, 100
1, 28980, Note_on_c, 9, 42, 50
1, 28980, Note_on_c, 4, 49, 100
1, 28980, Note_on_c, 3, 65, 100
1, 28980, Note_on_c, 9, 36, 100
1, 28980, Note_on_c, 3, 56, 100
1, 29000, Note_on_c, 9, 38, 0
1, 29008, Note_on_c, 9, 42, 0
1, 29010, Note_on_c, 9, 42, 50
1, 29020, Note_on_c, 9, 36, 0
1, 29038, Note_on_c, 9, 42, 0
1, 29040, Note_on_c, 4, 49, 0
1, 29040, Note_on_c, 9, 42, 50
1, 29068, Note_on_c, 9, 42, 0
1, 29070, Note_on_c, 4, 37, 100
1, 29070, Note_on_c, 9, 42, 50
1, 29090, Note_on_c, 4, 37, 0
1, 29098, Note_on_c, 9, 42, 0
1, 29100, Note_on_c, 9, 36, 100
1, 29100, Note_on_c, 9, 42, 50
1, 29100, Note_on_c, 4, 37, 100
1, 29128, Note_on_c, 9, 42, 0
1, 29130, Note_on_c, 9, 42, 50
1, 29140, Note_on_c, 4, 37, 0
1, 29140, Note_on_c, 9, 36, 0
1, 29158, Note_on_c, 9, 42, 0
1, 29160, Note_on_c, 4, 37, 100
1, 29160, Note_on_c, 9, 42, 50
1, 29160, Note_on_c, 9, 38, 110
1, 29188, Note_on_c, 9, 42, 0
1, 29190, Note_on_c, 9, 42, 50
1, 29218, Note_on_c, 9, 42, 0
1, 29220, Note_on_c, 7, 61, 0
1, 29220, Note_on_c, 7, 65, 0
1, 29220, Note_on_c, 7, 56, 0
1, 29220, Note_on_c, 9, 36, 100
1, 29220, Note_on_c, 9, 43, 100
1, 29220, Note_on_c, 9, 42, 50
1, 29240, Note_on_c, 9, 43, 0
1, 29240, Note_on_c, 9, 36, 0
1, 29240, Note_on_c, 9, 38, 0
1, 29240, Note_on_c, 4, 37, 0
1, 29248, Note_on_c, 9, 42, 0
1, 29250, Note_on_c, 9, 36, 100
1, 29250, Note_on_c, 9, 43, 100
1, 29250, Note_on_c, 9, 42, 50
1, 29267, Note_on_c, 3, 61, 0
1, 29267, Note_on_c, 3, 56, 0
1, 29267, Note_on_c, 3, 65, 0
1, 29270, Note_on_c, 9, 36, 0
1, 29270, Note_on_c, 9, 43, 0
1, 29278, Note_on_c, 9, 42, 0
1, 29280, Note_on_c, 7, 54, 100
1, 29280, Note_on_c, 3, 63, 100
1, 29280, Note_on_c, 7, 59, 100
1, 29280, Note_on_c, 3, 59, 100
1, 29280, Note_on_c, 3, 66, 100
1, 29280, Note_on_c, 9, 42, 50
1, 29280, Note_on_c, 9, 36, 100
1, 29280, Note_on_c, 7, 63, 100
1, 29280, Note_on_c, 4, 47, 100
1, 29308, Note_on_c, 9, 42, 0
1, 29310, Note_on_c, 9, 42, 50
1, 29320, Note_on_c, 9, 36, 0
1, 29338, Note_on_c, 9, 42, 0
1, 29340, Note_on_c, 7, 63, 0
1, 29340, Note_on_c, 7, 59, 0
1, 29340, Note_on_c, 4, 47, 0
1, 29340, Note_on_c, 7, 54, 0
1, 29340, Note_on_c, 0, 71, 100
1, 29340, Note_on_c, 9, 42, 50
1, 29368, Note_on_c, 9, 42, 0
1, 29370, Note_on_c, 4, 47, 100
1, 29370, Note_on_c, 9, 36, 100
1, 29370, Note_on_c, 7, 63, 100
1, 29370, Note_on_c, 7, 59, 100
1, 29370, Note_on_c, 7, 54, 100
1, 29370, Note_on_c, 9, 38, 100
1, 29370, Note_on_c, 9, 42, 50
1, 29390, Note_on_c, 9, 38, 0
1, 29398, Note_on_c, 9, 42, 0
1, 29400, Note_on_c, 0, 71, 0
1, 29400, Note_on_c, 9, 38, 110
1, 29400, Note_on_c, 9, 42, 50
1, 29410, Note_on_c, 4, 47, 0
1, 29410, Note_on_c, 9, 36, 0
1, 29428, Note_on_c, 9, 42, 0
1, 29430, Note_on_c, 7, 54, 0
1, 29430, Note_on_c, 7, 59, 0
1, 29430, Note_on_c, 7, 63, 0
1, 29430, Note_on_c, 4, 47, 100
1, 29430, Note_on_c, 9, 42, 50
1, 29430, Note_on_c, 0, 71, 100
1, 29450, Note_on_c, 4, 47, 0
1, 29458, Note_on_c, 9, 42, 0
1, 29460, Note_on_c, 9, 36, 100
1, 29460, Note_on_c, 7, 59, 100
1, 29460, Note_on_c, 9, 42, 50
1, 29460, Note_on_c, 4, 47, 100
1, 29460, Note_on_c, 7, 54, 100
1, 29460, Note_on_c, 7, 63, 100
1, 29480, Note_on_c, 9, 38, 0
1, 29488, Note_on_c, 9, 42, 0
1, 29490, Note_on_c, 0, 71, 0
1, 29490, Note_on_c, 9, 42, 50
1, 29500, Note_on_c, 9, 36, 0
1, 29518, Note_on_c, 9, 42, 0
1, 29520, Note_on_c, 9, 42, 50
1, 29520, Note_on_c, 0, 73, 100
1, 29540, Note_on_c, 7, 54, 0
1, 29540, Note_on_c, 7, 63, 0
1, 29540, Note_on_c, 7, 59, 0
1, 29548, Note_on_c, 9, 42, 0
1, 29550, Note_on_c, 9, 42, 50
1, 29578, Note_on_c, 9, 42, 0
1, 29580, Note_on_c, 9, 42, 50
1, 29580, Note_on_c, 7, 63, 100
1, 29580, Note_on_c, 7, 54, 100
1, 29580, Note_on_c, 9, 36, 100
1, 29580, Note_on_c, 7, 59, 100
1, 29600, Note_on_c, 0, 73, 0
1, 29608, Note_on_c, 9, 42, 0
1, 29610, Note_on_c, 9, 42, 50
1, 29620, Note_on_c, 9, 36, 0
1, 29620, Note_on_c, 4, 47, 0
1, 29638, Note_on_c, 9, 42, 0
1, 29640, Note_on_c, 9, 38, 110
1, 29640, Note_on_c, 9, 42, 50
1, 29668, Note_on_c, 9, 42, 0
1, 29670, Note_on_c, 4, 47, 100
1, 29670, Note_on_c, 9, 42, 50
1, 29690, Note_on_c, 4, 47, 0
1, 29698, Note_on_c, 9, 42, 0
1, 29700, Note_on_c, 7, 59, 0
1, 29700, Note_on_c, 7, 54, 0
1, 29700, Note_on_c, 7, 63, 0
1, 29700, Note_on_c, 9, 42, 50
1, 29700, Note_on_c, 4, 47, 100
1, 29700, Note_on_c, 9, 36, 100
1, 29720, Note_on_c, 9, 36, 0
1, 29720, Note_on_c, 9, 38, 0
1, 29728, Note_on_c, 9, 42, 0
1, 29730, Note_on_c, 9, 36, 100
1, 29730, Note_on_c, 9, 42, 50
1, 29740, Note_on_c, 4, 47, 0
1, 29750, Note_on_c, 9, 36, 0
1, 29758, Note_on_c, 3, 63, 0
1, 29758, Note_on_c, 3, 59, 0
1, 29758, Note_on_c, 9, 42, 0
1, 29758, Note_on_c, 3, 66, 0
1, 29760, Note_on_c, 7, 61, 100
1, 29760, Note_on_c, 7, 66, 100
1, 29760, Note_on_c, 3, 58, 100
1, 29760, Note_on_c, 3, 61, 100
1, 29760, Note_on_c, 7, 58, 100
1, 29760, Note_on_c, 4, 42, 100
1, 29760, Note_on_c, 9, 42, 50
1, 29760, Note_on_c, 9, 36, 100
1, 29760, Note_on_c, 3, 66, 100
1, 29788, Note_on_c, 9, 42, 0
1, 29790, Note_on_c, 9, 42, 50
1, 29790, Note_on_c, 9, 38, 100
1, 29800, Note_on_c, 9, 36, 0
1, 29810, Note_on_c, 9, 38, 0
1, 29818, Note_on_c, 9, 42, 0
1, 29820, Note_on_c, 7, 66, 0
1, 29820, Note_on_c, 7, 58, 0
1, 29820, Note_on_c, 7, 61, 0
1, 29820, Note_on_c, 4, 42, 0
1, 29820, Note_on_c, 0, 75, 100
1, 29820, Note_on_c, 9, 42, 50
1, 29848, Note_on_c, 9, 42, 0
1, 29850, Note_on_c, 7, 58, 100
1, 29850, Note_on_c, 7, 61, 100
1, 29850, Note_on_c, 4, 46, 100
1, 29850, Note_on_c, 7, 66, 100
1, 29850, Note_on_c, 9, 42, 50
1, 29850, Note_on_c, 9, 36, 100
1, 29878, Note_on_c, 9, 42, 0
1, 29880, Note_on_c, 0, 75, 0
1, 29880, Note_on_c, 9, 38, 110
1, 29880, Note_on_c, 9, 42, 50
1, 29890, Note_on_c, 9, 36, 0
1, 29890, Note_on_c, 4, 46, 0
1, 29908, Note_on_c, 9, 42, 0
1, 29910, Note_on_c, 7, 66, 0
1, 29910, Note_on_c, 7, 58, 0
1, 29910, Note_on_c, 7, 61, 0
1, 29910, Note_on_c, 9, 42, 50
1, 29910, Note_on_c, 4, 47, 100
1, 29910, Note_on_c, 0, 73, 100
1, 29930, Note_on_c, 4, 47, 0
1, 29938, Note_on_c, 3, 66, 0
1, 29938, Note_on_c, 3, 61, 0
1, 29938, Note_on_c, 3, 58, 0
1, 29938, Note_on_c, 9, 42, 0
1, 29940, Note_on_c, 3, 61, 100
1, 29940, Note_on_c, 3, 65, 100
1, 29940, Note_on_c, 9, 42, 50
1, 29940, Note_on_c, 7, 61, 100
1, 29940, Note_on_c, 7, 65, 100
1, 29940, Note_on_c, 9, 36, 100
1, 29940, Note_on_c, 7, 56, 100
1, 29940, Note_on_c, 4, 49, 100
1, 29940, Note_on_c, 3, 56, 100
1, 29960, Note_on_c, 9, 38, 0
1, 29968, Note_on_c, 9, 42, 0
1, 29970, Note_on_c, 0, 73, 0
1, 29970, Note_on_c, 9, 42, 50
1, 29980, Note_on_c, 9, 36, 0
1, 29998, Note_on_c, 9, 42, 0
1, 30000, Note_on_c, 4, 49, 0
1, 30000, Note_on_c, 9, 42, 50
1, 30000, Note_on_c, 0, 73, 100
1, 30028, Note_on_c, 9, 42, 0
1, 30030, Note_on_c, 4, 37, 100
1, 30030, Note_on_c, 9, 42, 50
1, 30050, Note_on_c, 4, 37, 0
1, 30058, Note_on_c, 9, 42, 0
1, 30060, Note_on_c, 9, 42, 50
1, 30060, Note_on_c, 4, 37, 100
1, 30060, Note_on_c, 9, 36, 100
1, 30080, Note_on_c, 0, 73, 0
1, 30088, Note_on_c, 9, 42, 0
1, 30090, Note_on_c, 9, 42, 50
1, 30100, Note_on_c, 4, 37, 0
1, 30100, Note_on_c, 9, 36, 0
1, 30118, Note_on_c, 9, 42, 0
1, 30120, Note_on_c, 9, 38, 110
1, 30120, Note_on_c, 4, 37, 100
1, 30120, Note_on_c, 9, 42, 50
1, 30148, Note_on_c, 9, 42, 0
1, 30150, Note_on_c, 9, 42, 50
1, 30178, Note_on_c, 9, 42, 0
1, 30180, Note_on_c, 7, 65, 0
1, 30180, Note_on_c, 7, 56, 0
1, 30180, Note_on_c, 7, 61, 0
1, 30180, Note_on_c, 0, 71, 100
1, 30180, Note_on_c, 9, 42, 50
1, 30180, Note_on_c, 9, 36, 100
1, 30180, Note_on_c, 9, 38, 100
1, 30200, Note_on_c, 9, 38, 0
1, 30200, Note_on_c, 9, 36, 0
1, 30200, Note_on_c, 4, 37, 0
1, 30208, Note_on_c, 9, 42, 0
1, 30210, Note_on_c, 9, 36, 100
1, 30210, Note_on_c, 9, 42, 50
1, 30220, Note_on_c, 9, 38, 0
1, 30220, Note_on_c, 0, 71, 0
1, 30227, Note_on_c, 3, 65, 0
1, 30227, Note_on_c, 3, 56, 0
1, 30227, Note_on_c, 3, 61, 0
1, 30230, Note_on_c, 9, 36, 0
1, 30238, Note_on_c, 9, 42, 0
1, 30240, Note_on_c, 4, 49, 100
1, 30240, Note_on_c, 0, 73, 100
1, 30240, Note_on_c, 9, 42, 50
1, 30240, Note_on_c, 9, 36, 100
1, 30240, Note_on_c, 7, 65, 100
1, 30240, Note_on_c, 7, 56, 100
1, 30240, Note_on_c, 3, 56, 100
1, 30240, Note_on_c, 3, 65, 100
1, 30268, Note_on_c, 9, 42, 0
1, 30270, Note_on_c, 9, 42, 50
1, 30280, Note_on_c, 9, 36, 0
1, 30298, Note_on_c, 9, 42, 0
1, 30300, Note_on_c, 0, 73, 0
1, 30300, Note_on_c, 9, 42, 50
1, 30320, Note_on_c, 4, 49, 0
1, 30328, Note_on_c, 9, 42, 0
1, 30330, Note_on_c, 0, 73, 100
1, 30330, Note_on_c, 9, 42, 50
1, 30330, Note_on_c, 9, 36, 100
1, 30350, Note_on_c, 0, 73, 0
1, 30358, Note_on_c, 7, 65, 0
1, 30358, Note_on_c, 3, 56, 0
1, 30358, Note_on_c, 7, 56, 0
1, 30358, Note_on_c, 3, 65, 0
1, 30358, Note_on_c, 9, 42, 0
1, 30360, Note_on_c, 7, 56, 100
1, 30360, Note_on_c, 3, 63, 100
1, 30360, Note_on_c, 9, 38, 110
1, 30360, Note_on_c, 4, 47, 100
1, 30360, Note_on_c, 0, 73, 100
1, 30360, Note_on_c, 7, 63, 100
1, 30360, Note_on_c, 9, 42, 50
1, 30360, Note_on_c, 3, 56, 100
1, 30370, Note_on_c, 9, 36, 0
1, 30380, Note_on_c, 0, 73, 0
1, 30388, Note_on_c, 9, 42, 0
1, 30390, Note_on_c, 0, 75, 100
1, 30390, Note_on_c, 9, 42, 50
1, 30410, Note_on_c, 0, 75, 0
1, 30418, Note_on_c, 9, 42, 0
1, 30420, Note_on_c, 9, 42, 50
1, 30420, Note_on_c, 9, 36, 100
1, 30420, Note_on_c, 0, 77, 100
1, 30440, Note_on_c, 9, 38, 0
1, 30440, Note_on_c, 4, 47, 0
1, 30448, Note_on_c, 9, 42, 0
1, 30450, Note_on_c, 9, 42, 50
1, 30460, Note_on_c, 0, 77, 0
1, 30460, Note_on_c, 9, 36, 0
1, 30478, Note_on_c, 3, 63, 0
1, 30478, Note_on_c, 7, 63, 0
1, 30478, Note_on_c, 3, 56, 0
1, 30478, Note_on_c, 9, 42, 0
1, 30478, Note_on_c, 7, 56, 0
1, 30480, Note_on_c, 0, 75, 100
1, 30480, Note_on_c, 9, 42, 50
1, 30480, Note_on_c, 3, 56, 100
1, 30480, Note_on_c, 7, 56, 100
1, 30480, Note_on_c, 3, 61, 100
1, 30480, Note_on_c, 7, 61, 100
1, 30480, Note_on_c, 4, 46, 100
1, 30508, Note_on_c, 9, 42, 0
1, 30510, Note_on_c, 9, 42, 50
1, 30538, Note_on_c, 9, 42, 0
1, 30540, Note_on_c, 9, 42, 50
1, 30540, Note_on_c, 9, 36, 100
1, 30560, Note_on_c, 4, 46, 0
1, 30560, Note_on_c, 0, 75, 0
1, 30568, Note_on_c, 9, 42, 0
1, 30570, Note_on_c, 9, 42, 50
1, 30580, Note_on_c, 9, 36, 0
1, 30598, Note_on_c, 7, 56, 0
1, 30598, Note_on_c, 3, 61, 0
1, 30598, Note_on_c, 7, 61, 0
1, 30598, Note_on_c, 9, 42, 0
1, 30598, Note_on_c, 3, 56, 0
1, 30600, Note_on_c, 0, 73, 100
1, 30600, Note_on_c, 3, 61, 100
1, 30600, Note_on_c, 9, 38, 110
1, 30600, Note_on_c, 9, 42, 50
1, 30600, Note_on_c, 7, 61, 100
1, 30600, Note_on_c, 7, 56, 100
1, 30600, Note_on_c, 7, 53, 100
1, 30600, Note_on_c, 3, 53, 100
1, 30600, Note_on_c, 4, 44, 100
1, 30600, Note_on_c, 3, 56, 100
1, 30628, Note_on_c, 9, 42, 0
1, 30630, Note_on_c, 9, 42, 50
1, 30640, Note_on_c, 0, 73, 0
1, 30658, Note_on_c, 9, 42, 0
1, 30660, Note_on_c, 9, 42, 50
1, 30660, Note_on_c, 0, 77, 100
1, 30660, Note_on_c, 9, 36, 100
1, 30680, Note_on_c, 9, 36, 0
1, 30680, Note_on_c, 4, 44, 0
1, 30680, Note_on_c, 9, 38, 0
1, 30688, Note_on_c, 9, 42, 0
1, 30690, Note_on_c, 9, 36, 100
1, 30690, Note_on_c, 9, 42, 50
1, 30710, Note_on_c, 9, 36, 0
1, 30718, Note_on_c, 7, 61, 0
1, 30718, Note_on_c, 3, 53, 0
1, 30718, Note_on_c, 7, 53, 0
1, 30718, Note_on_c, 9, 42, 0
1, 30718, Note_on_c, 3, 56, 0
1, 30718, Note_on_c, 3, 61, 0
1, 30718, Note_on_c, 7, 56, 0
1, 30720, Note_on_c, 3, 58, 100
1, 30720, Note_on_c, 9, 42, 50
1, 30720, Note_on_c, 9, 36, 100
1, 30720, Note_on_c, 4, 42, 100
1, 30720, Note_on_c, 3, 61, 100
1, 30720, Note_on_c, 7, 58, 100
1, 30720, Note_on_c, 3, 66, 100
1, 30720, Note_on_c, 7, 54, 100
1, 30740, Note_on_c, 4, 42, 0
1, 30748, Note_on_c, 9, 42, 0
1, 30750, Note_on_c, 9, 42, 50
1, 30750, Note_on_c, 4, 44, 100
1, 30750, Note_on_c, 9, 38, 100
1, 30760, Note_on_c, 9, 36, 0
1, 30770, Note_on_c, 4, 44, 0
1, 30778, Note_on_c, 9, 42, 0
1, 30780, Note_on_c, 7, 54, 0
1, 30780, Note_on_c, 7, 58, 0
1, 30780, Note_on_c, 4, 46, 100
1, 30780, Note_on_c, 9, 42, 50
1, 30790, Note_on_c, 9, 38, 0
1, 30808, Note_on_c, 9, 42, 0
1, 30810, Note_on_c, 7, 61, 100
1, 30810, Note_on_c, 9, 42, 50
1, 30810, Note_on_c, 9, 36, 100
1, 30820, Note_on_c, 0, 77, 0
1, 30820, Note_on_c, 4, 46, 0
1, 30838, Note_on_c, 9, 42, 0
1, 30840, Note_on_c, 9, 42, 50
1, 30840, Note_on_c, 9, 38, 110
1, 30840, Note_on_c, 4, 49, 100
1, 30850, Note_on_c, 9, 36, 0
1, 30860, Note_on_c, 4, 49, 0
1, 30868, Note_on_c, 9, 42, 0
1, 30870, Note_on_c, 7, 61, 0
1, 30870, Note_on_c, 9, 42, 50
1, 30870, Note_on_c, 4, 51, 100
1, 30890, Note_on_c, 4, 51, 0
1, 30898, Note_on_c, 3, 58, 0
1, 30898, Note_on_c, 3, 61, 0
1, 30898, Note_on_c, 3, 66, 0
1, 30898, Note_on_c, 9, 42, 0
1, 30900, Note_on_c, 7, 65, 100
1, 30900, Note_on_c, 4, 49, 100
1, 30900, Note_on_c, 7, 61, 100
1, 30900, Note_on_c, 3, 65, 100
1, 30900, Note_on_c, 9, 42, 50
1, 30900, Note_on_c, 3, 61, 100
1, 30900, Note_on_c, 3, 56, 100
1, 30900, Note_on_c, 7, 56, 100
1, 30900, Note_on_c, 9, 36, 100
1, 30920, Note_on_c, 9, 38, 0
1, 30928, Note_on_c, 9, 42, 0
1, 30930, Note_on_c, 9, 42, 50
1, 30940, Note_on_c, 9, 36, 0
1, 30958, Note_on_c, 9, 42, 0
1, 30960, Note_on_c, 4, 49, 0
1, 30960, Note_on_c, 9, 42, 50
1, 30988, Note_on_c, 9, 42, 0
1, 30990, Note_on_c, 4, 37, 100
1, 30990, Note_on_c, 9, 42, 50
1, 31010, Note_on_c, 4, 37, 0
1, 31018, Note_on_c, 9, 42, 0
1, 31020, Note_on_c, 9, 47, 100
1, 31020, Note_on_c, 9, 42, 50
1, 31020, Note_on_c, 4, 37, 100
1, 31020, Note_on_c, 9, 36, 100
1, 31040, Note_on_c, 9, 47, 0
1, 31048, Note_on_c, 9, 42, 0
1, 31050, Note_on_c, 9, 47, 100
1, 31050, Note_on_c, 9, 42, 50
1, 31060, Note_on_c, 4, 37, 0
1, 31060, Note_on_c, 9, 36, 0
1, 31070, Note_on_c, 9, 47, 0
1, 31078, Note_on_c, 9, 42, 0
1, 31080, Note_on_c, 9, 42, 50
1, 31080, Note_on_c, 9, 45, 100
1, 31080, Note_on_c, 4, 37, 100
1, 31080, Note_on_c, 9, 38, 110
1, 31100, Note_on_c, 9, 45, 0
1, 31108, Note_on_c, 9, 42, 0
1, 31110, Note_on_c, 9, 45, 100
1, 31110, Note_on_c, 9, 42, 50
1, 31130, Note_on_c, 9, 45, 0
1, 31138, Note_on_c, 9, 42, 0
1, 31140, Note_on_c, 7, 56, 0
1, 31140, Note_on_c, 7, 65, 0
1, 31140, Note_on_c, 7, 61, 0
1, 31140, Note_on_c, 9, 42, 50
1, 31140, Note_on_c, 9, 36, 100
1, 31140, Note_on_c, 9, 43, 100
1, 31160, Note_on_c, 9, 43, 0
1, 31160, Note_on_c, 9, 36, 0
1, 31160, Note_on_c, 9, 38, 0
1, 31160, Note_on_c, 4, 37, 0
1, 31168, Note_on_c, 9, 42, 0
1, 31170, Note_on_c, 9, 36, 100
1, 31170, Note_on_c, 9, 42, 50
1, 31170, Note_on_c, 9, 43, 100
1, 31187, Note_on_c, 3, 56, 0
1, 31187, Note_on_c, 3, 65, 0
1, 31187, Note_on_c, 3, 61, 0
1, 31190, Note_on_c, 9, 36, 0
1, 31190, Note_on_c, 9, 43, 0
1, 31198, Note_on_c, 9, 42, 0
1, 31200, Control_c, 1, 67, 76
1, 31200, Note_on_c, 3, 65, 100
1, 31200, Note_on_c, 1, 63, 100
1, 31200, Note_on_c, 9, 51, 100
1, 31200, Note_on_c, 9, 36, 100
1, 31200, Note_on_c, 4, 39, 100
1, 31200, Note_on_c, 3, 63, 100
1, 31240, Note_on_c, 9, 36, 0
1, 31240, Note_on_c, 9, 51, 0
1, 31245, Note_on_c, 1, 63, 0
1, 31260, Note_on_c, 4, 39, 0
1, 31260, Note_on_c, 1, 66, 100
1, 31260, Note_on_c, 9, 51, 100
1, 31290, Note_on_c, 4, 39, 100
1, 31300, Note_on_c, 9, 51, 0
1, 31305, Note_on_c, 1, 66, 0
1, 31320, Note_on_c, 1, 70, 100
1, 31320, Note_on_c, 9, 38, 110
1, 31320, Note_on_c, 9, 51, 100
1, 31350, Note_on_c, 4, 39, 0
1, 31360, Note_on_c, 9, 51, 0
1, 31365, Note_on_c, 1, 70, 0
1, 31378, Note_on_c, 3, 65, 0
1, 31378, Note_on_c, 3, 63, 0
1, 31380, Note_on_c, 3, 68, 100
1, 31380, Note_on_c, 4, 42, 100
1, 31380, Note_on_c, 9, 36, 100
1, 31380, Note_on_c, 9, 51, 100
1, 31380, Note_on_c, 3, 61, 100
1, 31380, Note_on_c, 3, 58, 100
1, 31380, Note_on_c, 1, 68, 100
1, 31400, Note_on_c, 9, 38, 0
1, 31420, Note_on_c, 9, 51, 0
1, 31420, Note_on_c, 9, 36, 0
1, 31440, Note_on_c, 4, 42, 0
1, 31440, Note_on_c, 9, 51, 100
1, 31470, Note_on_c, 1, 68, 0
1, 31470, Note_on_c, 4, 42, 100
1, 31480, Note_on_c, 9, 51, 0
1, 31490, Note_on_c, 4, 42, 0
1, 31500, Note_on_c, 1, 65, 100
1, 31500, Note_on_c, 9, 51, 100
1, 31500, Note_on_c, 9, 36, 100
1, 31500, Note_on_c, 4, 42, 100
1, 31540, Note_on_c, 9, 36, 0
1, 31540, Note_on_c, 9, 51, 0
1, 31545, Note_on_c, 1, 65, 0
1, 31560, Note_on_c, 1, 61, 100
1, 31560, Note_on_c, 9, 51, 100
1, 31560, Note_on_c, 9, 38, 110
1, 31580, Note_on_c, 4, 42, 0
1, 31600, Note_on_c, 9, 51, 0
1, 31605, Note_on_c, 1, 61, 0
1, 31618, Note_on_c, 3, 61, 0
1, 31618, Note_on_c, 3, 68, 0
1, 31618, Note_on_c, 3, 58, 0
1, 31620, Note_on_c, 1, 59, 100
1, 31620, Note_on_c, 9, 51, 100
1, 31620, Note_on_c, 4, 42, 100
1, 31620, Note_on_c, 9, 36, 100
1, 31620, Note_on_c, 3, 56, 100
1, 31620, Note_on_c, 3, 59, 100
1, 31640, Note_on_c, 9, 36, 0
1, 31640, Note_on_c, 9, 38, 0
1, 31660, Note_on_c, 4, 42, 0
1, 31660, Note_on_c, 9, 51, 0
1, 31680, Note_on_c, 4, 44, 100
1, 31680, Note_on_c, 9, 51, 100
1, 31720, Note_on_c, 9, 51, 0
1, 31740, Note_on_c, 4, 44, 0
1, 31740, Note_on_c, 1, 63, 100
1, 31740, Note_on_c, 9, 36, 100
1, 31740, Note_on_c, 9, 51, 100
1, 31755, Note_on_c, 1, 59, 0
1, 31770, Note_on_c, 4, 44, 100
1, 31780, Note_on_c, 9, 36, 0
1, 31780, Note_on_c, 9, 51, 0
1, 31785, Note_on_c, 1, 63, 0
1, 31800, Note_on_c, 9, 51, 100
1, 31800, Note_on_c, 9, 38, 110
1, 31800, Note_on_c, 1, 66, 100
1, 31830, Note_on_c, 4, 44, 0
1, 31840, Note_on_c, 9, 51, 0
1, 31845, Note_on_c, 1, 66, 0
1, 31858, Note_on_c, 3, 59, 0
1, 31858, Note_on_c, 3, 56, 0
1, 31860, Note_on_c, 9, 36, 100
1, 31860, Note_on_c, 3, 61, 100
1, 31860, Note_on_c, 9, 51, 100
1, 31860, Note_on_c, 1, 68, 100
1, 31860, Note_on_c, 4, 49, 100
1, 31860, Note_on_c, 3, 68, 100
1, 31880, Note_on_c, 9, 38, 0
1, 31900, Note_on_c, 9, 51, 0
1, 31900, Note_on_c, 9, 36, 0
1, 31905, Note_on_c, 1, 68, 0
1, 31920, Note_on_c, 4, 49, 0
1, 31920, Note_on_c, 1, 65, 100
1, 31920, Note_on_c, 9, 51, 100
1, 31920, Note_on_c, 9, 36, 100
1, 31950, Note_on_c, 4, 49, 100
1, 31960, Note_on_c, 9, 36, 0
1, 31960, Note_on_c, 9, 51, 0
1, 31965, Note_on_c, 1, 65, 0
1, 31970, Note_on_c, 4, 49, 0
1, 31980, Note_on_c, 1, 61, 100
1, 31980, Note_on_c, 4, 49, 100
1, 31980, Note_on_c, 9, 51, 100
1, 32020, Note_on_c, 9, 51, 0
1, 32025, Note_on_c, 1, 61, 0
1, 32040, Note_on_c, 1, 56, 100
1, 32040, Note_on_c, 9, 51, 100
1, 32040, Note_on_c, 9, 38, 110
1, 32060, Note_on_c, 4, 49, 0
1, 32080, Note_on_c, 9, 51, 0
1, 32100, Note_on_c, 4, 49, 100
1, 32100, Note_on_c, 9, 51, 100
1, 32120, Note_on_c, 4, 49, 0
1, 32120, Note_on_c, 9, 38, 0
1, 32130, Note_on_c, 1, 56, 0
1, 32130, Note_on_c, 4, 51, 100
1, 32140, Note_on_c, 9, 51, 0
1, 32147, Note_on_c, 3, 61, 0
1, 32147, Note_on_c, 3, 68, 0
1, 32150, Note_on_c, 4, 51, 0
1, 32160, Note_on_c, 9, 51, 100
1, 32160, Note_on_c, 4, 39, 100
1, 32160, Note_on_c, 9, 36, 100
1, 32160, Note_on_c, 3, 63, 100
1, 32160, Note_on_c, 3, 65, 100
1, 32160, Note_on_c, 1, 63, 100
1, 32200, Note_on_c, 9, 36, 0
1, 32200, Note_on_c, 9, 51, 0
1, 32205, Note_on_c, 1, 63, 0
1, 32220, Note_on_c, 4, 39, 0
1, 32220, Note_on_c, 9, 51, 100
1, 32220, Note_on_c, 1, 66, 100
1, 32250, Note_on_c, 4, 39, 100
1, 32260, Note_on_c, 9, 51, 0
1, 32265, Note_on_c, 1, 66, 0
1, 32280, Note_on_c, 1, 70, 100
1, 32280, Note_on_c, 9, 38, 110
1, 32280, Note_on_c, 9, 51, 100
1, 32310, Note_on_c, 4, 39, 0
1, 32320, Note_on_c, 9, 51, 0
1, 32325, Note_on_c, 1, 70, 0
1, 32338, Note_on_c, 3, 63, 0
1, 32338, Note_on_c, 3, 65, 0
1, 32340, Note_on_c, 3, 58, 100
1, 32340, Note_on_c, 9, 51, 100
1, 32340, Note_on_c, 9, 36, 100
1, 32340, Note_on_c, 3, 68, 100
1, 32340, Note_on_c, 1, 68, 100
1, 32340, Note_on_c, 4, 42, 100
1, 32340, Note_on_c, 3, 61, 100
1, 32360, Note_on_c, 9, 38, 0
1, 32380, Note_on_c, 9, 36, 0
1, 32380, Note_on_c, 9, 51, 0
1, 32400, Note_on_c, 4, 42, 0
1, 32400, Note_on_c, 9, 51, 100
1, 32430, Note_on_c, 1, 68, 0
1, 32430, Note_on_c, 4, 42, 100
1, 32440, Note_on_c, 9, 51, 0
1, 32450, Note_on_c, 4, 42, 0
1, 32460, Note_on_c, 1, 65, 100
1, 32460, Note_on_c, 9, 36, 100
1, 32460, Note_on_c, 4, 42, 100
1, 32460, Note_on_c, 9, 51, 100
1, 32500, Note_on_c, 9, 51, 0
1, 32500, Note_on_c, 9, 36, 0
1, 32505, Note_on_c, 1, 65, 0
1, 32520, Note_on_c, 9, 51, 100
1, 32520, Note_on_c, 9, 38, 110
1, 32520, Note_on_c, 1, 61, 100
1, 32540, Note_on_c, 4, 42, 0
1, 32560, Note_on_c, 9, 51, 0
1, 32565, Note_on_c, 1, 61, 0
1, 32578, Note_on_c, 3, 68, 0
1, 32578, Note_on_c, 3, 58, 0
1, 32578, Note_on_c, 3, 61, 0
1, 32580, Note_on_c, 3, 59, 100
1, 32580, Note_on_c, 1, 71, 100
1, 32580, Note_on_c, 3, 71, 100
1, 32580, Note_on_c, 9, 36, 100
1, 32580, Note_on_c, 3, 63, 100
1, 32580, Note_on_c, 9, 51, 100
1, 32580, Note_on_c, 3, 66, 100
1, 32580, Note_on_c, 4, 44, 100
1, 32600, Note_on_c, 9, 36, 0
1, 32600, Note_on_c, 9, 38, 0
1, 32620, Note_on_c, 9, 51, 0
1, 32640, Note_on_c, 9, 51, 100
1, 32670, Note_on_c, 1, 71, 0
1, 32680, Note_on_c, 9, 51, 0
1, 32698, Note_on_c, 3, 66, 0
1, 32698, Note_on_c, 3, 71, 0
1, 32698, Note_on_c, 3, 59, 0
1, 32698, Note_on_c, 3, 63, 0
1, 32700, Note_on_c, 4, 44, 0
1, 32700, Note_on_c, 3, 70, 100
1, 32700, Note_on_c, 1, 70, 100
1, 32700, Note_on_c, 9, 51, 100
1, 32700, Note_on_c, 3, 66, 100
1, 32700, Note_on_c, 4, 47, 100
1, 32700, Note_on_c, 9, 36, 100
1, 32700, Note_on_c, 3, 61, 100
1, 32740, Note_on_c, 9, 36, 0
1, 32740, Note_on_c, 9, 51, 0
1, 32760, Note_on_c, 9, 38, 110
1, 32760, Note_on_c, 9, 51, 100
1, 32780, Note_on_c, 4, 47, 0
1, 32790, Note_on_c, 1, 70, 0
1, 32800, Note_on_c, 9, 51, 0
1, 32818, Note_on_c, 3, 66, 0
1, 32818, Note_on_c, 3, 70, 0
1, 32818, Note_on_c, 3, 61, 0
1, 32820, Note_on_c, 4, 49, 100
1, 32820, Note_on_c, 3, 61, 100
1, 32820, Note_on_c, 3, 68, 100
1, 32820, Note_on_c, 3, 65, 100
1, 32820, Note_on_c, 9, 51, 100
1, 32820, Note_on_c, 9, 36, 100
1, 32820, Note_on_c, 1, 68, 100
1, 32840, Note_on_c, 9, 38, 0
1, 32860, Note_on_c, 4, 49, 0
1, 32860, Note_on_c, 9, 51, 0
1, 32860, Note_on_c, 9, 36, 0
1, 32865, Note_on_c, 1, 68, 0
1, 32880, Note_on_c, 9, 36, 100
1, 32880, Note_on_c, 1, 68, 100
1, 32880, Note_on_c, 4, 49, 100
1, 32880, Note_on_c, 9, 51, 100
1, 32920, Note_on_c, 9, 51, 0
1, 32920, Note_on_c, 9, 36, 0
1, 32920, Note_on_c, 4, 49, 0
1, 32940, Note_on_c, 9, 51, 100
1, 32940, Note_on_c, 4, 49, 100
1, 32960, Note_on_c, 4, 49, 0
1, 32970, Note_on_c, 4, 49, 100
1, 32980, Note_on_c, 9, 51, 0
1, 32990, Note_on_c, 4, 49, 0
1, 33000, Note_on_c, 4, 49, 100
1, 33000, Note_on_c, 9, 38, 110
1, 33000, Note_on_c, 9, 51, 100
1, 33020, Note_on_c, 4, 49, 0
1, 33030, Note_on_c, 4, 37, 100
1, 33040, Note_on_c, 9, 51, 0
1, 33050, Note_on_c, 4, 37, 0
1, 33060, Note_on_c, 9, 45, 100
1, 33060, Note_on_c, 4, 37, 100
1, 33060, Note_on_c, 9, 51, 100
1, 33080, Note_on_c, 9, 45, 0
1, 33080, Note_on_c, 1, 68, 0
1, 33080, Note_on_c, 9, 38, 0
1, 33090, Note_on_c, 9, 47, 100
1, 33100, Note_on_c, 9, 51, 0
1, 33100, Note_on_c, 4, 37, 0
1, 33107, Note_on_c, 3, 68, 0
1, 33107, Note_on_c, 3, 61, 0
1, 33107, Note_on_c, 3, 65, 0
1, 33110, Note_on_c, 9, 47, 0
1, 33120, Control_c, 0, 67, 76
1, 33120, Note_on_c, 9, 51, 100
1, 33120, Control_c, 1, 67, 76
1, 33120, Note_on_c, 3, 63, 100
1, 33120, Note_on_c, 9, 36, 100
1, 33120, Note_on_c, 0, 63, 100
1, 33120, Note_on_c, 1, 63, 100
1, 33120, Note_on_c, 4, 39, 100
1, 33120, Note_on_c, 3, 65, 100
1, 33160, Note_on_c, 9, 36, 0
1, 33160, Note_on_c, 9, 51, 0
1, 33165, Note_on_c, 1, 63, 0
1, 33165, Note_on_c, 0, 63, 0
1, 33180, Note_on_c, 4, 39, 0
1, 33180, Note_on_c, 0, 66, 100
1, 33180, Note_on_c, 1, 66, 100
1, 33180, Note_on_c, 9, 51, 100
1, 33210, Note_on_c, 4, 39, 100
1, 33220, Note_on_c, 9, 51, 0
1, 33225, Note_on_c, 1, 66, 0
1, 33225, Note_on_c, 0, 66, 0
1, 33240, Note_on_c, 9, 38, 110
1, 33240, Note_on_c, 9, 51, 100
1, 33240, Note_on_c, 0, 70, 100
1, 33240, Note_on_c, 1, 70, 100
1, 33270, Note_on_c, 4, 39, 0
1, 33280, Note_on_c, 9, 51, 0
1, 33285, Note_on_c, 0, 70, 0
1, 33285, Note_on_c, 1, 70, 0
1, 33298, Note_on_c, 3, 65, 0
1, 33298, Note_on_c, 3, 63, 0
1, 33300, Note_on_c, 4, 42, 100
1, 33300, Note_on_c, 3, 61, 100
1, 33300, Note_on_c, 9, 51, 100
1, 33300, Note_on_c, 1, 68, 100
1, 33300, Note_on_c, 3, 58, 100
1, 33300, Note_on_c, 3, 68, 100
1, 33300, Note_on_c, 0, 68, 100
1, 33300, Note_on_c, 9, 36, 100
1, 33320, Note_on_c, 9, 38, 0
1, 33340, Note_on_c, 9, 36, 0
1, 33340, Note_on_c, 9, 51, 0
1, 33360, Note_on_c, 4, 42, 0
1, 33360, Note_on_c, 9, 51, 100
1, 33390, Note_on_c, 0, 68, 0
1, 33390, Note_on_c, 1, 68, 0
1, 33390, Note_on_c, 4, 42, 100
1, 33400, Note_on_c, 9, 51, 0
1, 33410, Note_on_c, 4, 42, 0
1, 33420, Note_on_c, 4, 42, 100
1, 33420, Note_on_c, 9, 51, 100
1, 33420, Note_on_c, 0, 65, 100
1, 33420, Note_on_c, 1, 65, 100
1, 33420, Note_on_c, 9, 36, 100
1, 33460, Note_on_c, 9, 36, 0
1, 33460, Note_on_c, 9, 51, 0
1, 33465, Note_on_c, 0, 65, 0
1, 33465, Note_on_c, 1, 65, 0
1, 33480, Note_on_c, 0, 61, 100
1, 33480, Note_on_c, 9, 51, 100
1, 33480, Note_on_c, 1, 61, 100
1, 33480, Note_on_c, 9, 38, 110
1, 33500, Note_on_c, 4, 42, 0
1, 33520, Note_on_c, 9, 51, 0
1, 33525, Note_on_c, 0, 61, 0
1, 33525, Note_on_c, 1, 61, 0
1, 33538, Note_on_c, 3, 58, 0
1, 33538, Note_on_c, 3, 68, 0
1, 33538, Note_on_c, 3, 61, 0
1, 33540, Note_on_c, 9, 51, 100
1, 33540, Note_on_c, 1, 59, 100
1, 33540, Note_on_c, 9, 36, 100
1, 33540, Note_on_c, 3, 59, 100
1, 33540, Note_on_c, 4, 42, 100
1, 33540, Note_on_c, 0, 59, 100
1, 33540, Note_on_c, 3, 56, 100
1, 33560, Note_on_c, 9, 36, 0
1, 33560, Note_on_c, 9, 38, 0
1, 33580, Note_on_c, 9, 51, 0
1, 33580, Note_on_c, 4, 42, 0
1, 33600, Note_on_c, 9, 51, 100
1, 33600, Note_on_c, 4, 44, 100
1, 33640, Note_on_c, 9, 51, 0
1, 33660, Note_on_c, 4, 44, 0
1, 33660, Note_on_c, 0, 63, 100
1, 33660, Note_on_c, 1, 63, 100
1, 33660, Note_on_c, 9, 51, 100
1, 33660, Note_on_c, 9, 36, 100
1, 33675, Note_on_c, 0, 59, 0
1, 33675, Note_on_c, 1, 59, 0
1, 33690, Note_on_c, 4, 44, 100
1, 33700, Note_on_c, 9, 36, 0
1, 33700, Note_on_c, 9, 51, 0
1, 33705, Note_on_c, 0, 63, 0
1, 33705, Note_on_c, 1, 63, 0
1, 33720, Note_on_c, 9, 38, 110
1, 33720, Note_on_c, 9, 51, 100
1, 33720, Note_on_c, 1, 66, 100
1, 33720, Note_on_c, 0, 66, 100
1, 33750, Note_on_c, 4, 44, 0
1, 33760, Note_on_c, 9, 51, 0
1, 33765, Note_on_c, 1, 66, 0
1, 33765, Note_on_c, 0, 66, 0
1, 33778, Note_on_c, 3, 59, 0
1, 33778, Note_on_c, 3, 56, 0
1, 33780, Note_on_c, 9, 51, 100
1, 33780, Note_on_c, 3, 68, 100
1, 33780, Note_on_c, 4, 49, 100
1, 33780, Note_on_c, 9, 36, 100
1, 33780, Note_on_c, 0, 68, 100
1, 33780, Note_on_c, 3, 61, 100
1, 33780, Note_on_c, 1, 68, 100
1, 33800, Note_on_c, 9, 38, 0
1, 33820, Note_on_c, 9, 36, 0
1, 33820, Note_on_c, 9, 51, 0
1, 33825, Note_on_c, 1, 68, 0
1, 33825, Note_on_c, 0, 68, 0
1, 33840, Note_on_c, 4, 49, 0
1, 33840, Note_on_c, 9, 51, 100
1, 33840, Note_on_c, 9, 36, 100
1, 33840, Note_on_c, 0, 65, 100
1, 33840, Note_on_c, 1, 65, 100
1, 33870, Note_on_c, 4, 49, 100
1, 33880, Note_on_c, 9, 36, 0
1, 33880, Note_on_c, 9, 51, 0
1, 33885, Note_on_c, 0, 65, 0
1, 33885, Note_on_c, 1, 65, 0
1, 33890, Note_on_c, 4, 49, 0
1, 33900, Note_on_c, 0, 61, 100
1, 33900, Note_on_c, 9, 51, 100
1, 33900, Note_on_c, 1, 61, 100
1, 33900, Note_on_c, 4, 49, 100
1, 33940, Note_on_c, 9, 51, 0
1, 33945, Note_on_c, 1, 61, 0
1, 33945, Note_on_c, 0, 61, 0
1, 33960, Note_on_c, 9, 51, 100
1, 33960, Note_on_c, 1, 56, 100
1, 33960, Note_on_c, 9, 38, 110
1, 33980, Note_on_c, 4, 49, 0
1, 34000, Note_on_c, 9, 51, 0
1, 34020, Note_on_c, 9, 51, 100
1, 34020, Note_on_c, 4, 49, 100
1, 34040, Note_on_c, 4, 49, 0
1, 34040, Note_on_c, 9, 38, 0
1, 34050, Note_on_c, 1, 56, 0
1, 34050, Note_on_c, 4, 51, 100
1, 34060, Note_on_c, 9, 51, 0
1, 34067, Note_on_c, 3, 68, 0
1, 34067, Note_on_c, 3, 61, 0
1, 34070, Note_on_c, 4, 51, 0
1, 34080, Note_on_c, 0, 63, 100
1, 34080, Note_on_c, 1, 63, 100
1, 34080, Note_on_c, 4, 39, 100
1, 34080, Note_on_c, 3, 63, 100
1, 34080, Note_on_c, 3, 65, 100
1, 34080, Note_on_c, 9, 51, 100
1, 34080, Note_on_c, 9, 36, 100
1, 34120, Note_on_c, 9, 36, 0
1, 34120, Note_on_c, 9, 51, 0
1, 34125, Note_on_c, 0, 63, 0
1, 34125, Note_on_c, 1, 63, 0
1, 34140, Note_on_c, 4, 39, 0
1, 34140, Note_on_c, 0, 66, 100
1, 34140, Note_on_c, 1, 66, 100
1, 34140, Note_on_c, 9, 51, 100
1, 34170, Note_on_c, 4, 39, 100
1, 34180, Note_on_c, 9, 51, 0
1, 34185, Note_on_c, 1, 66, 0
1, 34185, Note_on_c, 0, 66, 0
1, 34200, Note_on_c, 9, 51, 100
1, 34200, Note_on_c, 0, 70, 100
1, 34200, Note_on_c, 1, 70, 100
1, 34200, Note_on_c, 9, 38, 110
1, 34230, Note_on_c, 4, 39, 0
1, 34240, Note_on_c, 9, 51, 0
1, 34245, Note_on_c, 0, 70, 0
1, 34245, Note_on_c, 1, 70, 0
1, 34258, Note_on_c, 3, 65, 0
1, 34258, Note_on_c, 3, 63, 0
1, 34260, Note_on_c, 9, 36, 100
1, 34260, Note_on_c, 1, 68, 100
1, 34260, Note_on_c, 0, 68, 100
1, 34260, Note_on_c, 4, 42, 100
1, 34260, Note_on_c, 9, 51, 100
1, 34260, Note_on_c, 3, 58, 100
1, 34260, Note_on_c, 3, 61, 100
1, 34260, Note_on_c, 3, 68, 100
1, 34280, Note_on_c, 9, 38, 0
1, 34300, Note_on_c, 9, 36, 0
1, 34300, Note_on_c, 9, 51, 0
1, 34320, Note_on_c, 4, 42, 0
1, 34320, Note_on_c, 9, 51, 100
1, 34350, Note_on_c, 0, 68, 0
1, 34350, Note_on_c, 1, 68, 0
1, 34350, Note_on_c, 4, 42, 100
1, 34360, Note_on_c, 9, 51, 0
1, 34370, Note_on_c, 4, 42, 0
1, 34380, Note_on_c, 1, 65, 100
1, 34380, Note_on_c, 0, 65, 100
1, 34380, Note_on_c, 4, 42, 100
1, 34380, Note_on_c, 9, 51, 100
1, 34380, Note_on_c, 9, 36, 100
1, 34420, Note_on_c, 9, 36, 0
1, 34420, Note_on_c, 9, 51, 0
1, 34425, Note_on_c, 1, 65, 0
1, 34425, Note_on_c, 0, 65, 0
1, 34440, Note_on_c, 9, 51, 100
1, 34440, Note_on_c, 0, 61, 100
1, 34440, Note_on_c, 9, 38, 110
1, 34440, Note_on_c, 1, 61, 100
1, 34460, Note_on_c, 4, 42, 0
1, 34480, Note_on_c, 9, 51, 0
1, 34485, Note_on_c, 1, 61, 0
1, 34485, Note_on_c, 0, 61, 0
1, 34498, Note_on_c, 3, 58, 0
1, 34498, Note_on_c, 3, 61, 0
1, 34498, Note_on_c, 3, 68, 0
1, 34500, Note_on_c, 3, 71, 100
1, 34500, Note_on_c, 9, 36, 100
1, 34500, Note_on_c, 9, 51, 100
1, 34500, Note_on_c, 3, 66, 100
1, 34500, Note_on_c, 4, 44, 100
1, 34500, Note_on_c, 3, 59, 100
1, 34500, Note_on_c, 0, 71, 100
1, 34500, Note_on_c, 1, 71, 100
1, 34500, Note_on_c, 3, 63, 100
1, 34520, Note_on_c, 9, 36, 0
1, 34520, Note_on_c, 9, 38, 0
1, 34540, Note_on_c, 9, 51, 0
1, 34560, Note_on_c, 9, 51, 100
1, 34590, Note_on_c, 0, 71, 0
1, 34590, Note_on_c, 1, 71, 0
1, 34600, Note_on_c, 9, 51, 0
1, 34618, Note_on_c, 3, 59, 0
1, 34618, Note_on_c, 3, 63, 0
1, 34618, Note_on_c, 3, 71, 0
1, 34618, Note_on_c, 3, 66, 0
1, 34620, Note_on_c, 4, 44, 0
1, 34620, Note_on_c, 3, 70, 100
1, 34620, Note_on_c, 9, 36, 100
1, 34620, Note_on_c, 4, 47, 100
1, 34620, Note_on_c, 9, 51, 100
1, 34620, Note_on_c, 1, 70, 100
1, 34620, Note_on_c, 0, 70, 100
1, 34620, Note_on_c, 3, 66, 100
1, 34620, Note_on_c, 3, 61, 100
1, 34660, Note_on_c, 9, 51, 0
1, 34660, Note_on_c, 9, 36, 0
1, 34680, Note_on_c, 9, 38, 110
1, 34680, Note_on_c, 9, 51, 100
1, 34700, Note_on_c, 4, 47, 0
1, 34710, Note_on_c, 1, 70, 0
1, 34710, Note_on_c, 0, 70, 0
1, 34720, Note_on_c, 9, 51, 0
1, 34738, Note_on_c, 3, 70, 0
1, 34738, Note_on_c, 3, 61, 0
1, 34738, Note_on_c, 3, 66, 0
1, 34740, Note_on_c, 1, 68, 100
1, 34740, Note_on_c, 9, 51, 100
1, 34740, Note_on_c, 0, 68, 100
1, 34740, Note_on_c, 3, 65, 100
1, 34740, Note_on_c, 3, 61, 100
1, 34740, Note_on_c, 3, 68, 100
1, 34740, Note_on_c, 9, 36, 100
1, 34740, Note_on_c, 4, 49, 100
1, 34760, Note_on_c, 9, 38, 0
1, 34780, Note_on_c, 4, 49, 0
1, 34780, Note_on_c, 9, 36, 0
1, 34780, Note_on_c, 9, 51, 0
1, 34785, Note_on_c, 1, 68, 0
1, 34785, Note_on_c, 0, 68, 0
1, 34800, Note_on_c, 1, 68, 100
1, 34800, Note_on_c, 9, 36, 100
1, 34800, Note_on_c, 4, 49, 100
1, 34800, Note_on_c, 0, 68, 100
1, 34800, Note_on_c, 9, 51, 100
1, 34840, Note_on_c, 9, 51, 0
1, 34840, Note_on_c, 4, 49, 0
1, 34840, Note_on_c, 9, 36, 0
1, 34860, Note_on_c, 4, 49, 100
1, 34860, Note_on_c, 9, 51, 100
1, 34880, Note_on_c, 4, 49, 0
1, 34890, Note_on_c, 4, 44, 100
1, 34900, Note_on_c, 9, 51, 0
1, 34910, Note_on_c, 4, 44, 0
1, 34920, Note_on_c, 4, 49, 100
1, 34920, Note_on_c, 9, 51, 100
1, 34920, Note_on_c, 9, 47, 100
1, 34960, Note_on_c, 9, 47, 0
1, 34960, Note_on_c, 9, 51, 0
1, 34960, Note_on_c, 4, 49, 0
1, 34980, Note_on_c, 9, 43, 100
1, 34980, Note_on_c, 4, 44, 100
1, 34980, Note_on_c, 9, 51, 100
1, 35000, Note_on_c, 9, 43, 0
1, 35000, Note_on_c, 1, 68, 0
1, 35000, Note_on_c, 0, 68, 0
1, 35010, Note_on_c, 9, 43, 100
1, 35020, Note_on_c, 9, 51, 0
1, 35020, Note_on_c, 4, 44, 0
1, 35027, Note_on_c, 3, 61, 0
1, 35027, Note_on_c, 3, 65, 0
1, 35027, Note_on_c, 3, 68, 0
1, 35030, Note_on_c, 9, 43, 0
1, 35040, Note_on_c, 9, 36, 100
1, 35040, Note_on_c, 0, 75, 100
1, 35040, Note_on_c, 3, 63, 100
1, 35040, Note_on_c, 3, 66, 100
1, 35040, Note_on_c, 4, 44, 100
1, 35040, Note_on_c, 9, 42, 50
1, 35040, Note_on_c, 3, 60, 100
1, 35068, Note_on_c, 9, 42, 0
1, 35070, Note_on_c, 9, 42, 50
1, 35080, Note_on_c, 0, 75, 0
1, 35098, Note_on_c, 9, 42, 0
1, 35100, Note_on_c, 4, 44, 0
1, 35100, Note_on_c, 9, 36, 0
1, 35100, Note_on_c, 0, 75, 100
1, 35100, Note_on_c, 9, 42, 50
1, 35120, Note_on_c, 0, 75, 0
1, 35128, Note_on_c, 9, 42, 0
1, 35130, Note_on_c, 4, 44, 100
1, 35130, Note_on_c, 0, 75, 100
1, 35130, Note_on_c, 9, 42, 50
1, 35130, Note_on_c, 9, 36, 100
1, 35158, Note_on_c, 9, 42, 0
1, 35160, Note_on_c, 9, 42, 50
1, 35170, Note_on_c, 0, 75, 0
1, 35188, Note_on_c, 9, 42, 0
1, 35190, Note_on_c, 4, 44, 0
1, 35190, Note_on_c, 9, 36, 0
1, 35190, Note_on_c, 0, 75, 100
1, 35190, Note_on_c, 9, 42, 50
1, 35210, Note_on_c, 0, 75, 0
1, 35218, Note_on_c, 3, 66, 0
1, 35218, Note_on_c, 3, 60, 0
1, 35218, Note_on_c, 3, 63, 0
1, 35218, Note_on_c, 9, 42, 0
1, 35220, Note_on_c, 9, 42, 50
1, 35220, Note_on_c, 3, 61, 100
1, 35220, Note_on_c, 0, 76, 100
1, 35220, Note_on_c, 3, 63, 100
1, 35220, Note_on_c, 9, 36, 100
1, 35220, Note_on_c, 3, 66, 100
1, 35220, Note_on_c, 4, 47, 100
1, 35248, Note_on_c, 9, 42, 0
1, 35250, Note_on_c, 9, 42, 50
1, 35260, Note_on_c, 9, 36, 0
1, 35260, Note_on_c, 0, 76, 0
1, 35278, Note_on_c, 9, 42, 0
1, 35280, Note_on_c, 9, 42, 50
1, 35280, Note_on_c, 0, 73, 100
1, 35280, Note_on_c, 9, 38, 100
1, 35300, Note_on_c, 4, 47, 0
1, 35308, Note_on_c, 9, 42, 0
1, 35310, Note_on_c, 9, 42, 50
1, 35338, Note_on_c, 9, 42, 0
1, 35340, Note_on_c, 4, 47, 100
1, 35340, Note_on_c, 9, 42, 50
1, 35360, Note_on_c, 9, 38, 0
1, 35360, Note_on_c, 0, 73, 0
1, 35368, Note_on_c, 9, 42, 0
1, 35370, Note_on_c, 9, 42, 50
1, 35398, Note_on_c, 9, 42, 0
1, 35400, Note_on_c, 4, 47, 0
1, 35400, Note_on_c, 9, 42, 50
1, 35400, Note_on_c, 9, 50, 100
1, 35428, Note_on_c, 9, 42, 0
1, 35430, Note_on_c, 9, 42, 50
1, 35430, Note_on_c, 4, 47, 100
1, 35458, Note_on_c, 9, 42, 0
1, 35460, Note_on_c, 9, 42, 50
1, 35480, Note_on_c, 9, 50, 0
1, 35488, Note_on_c, 9, 42, 0
1, 35490, Note_on_c, 4, 47, 0
1, 35490, Note_on_c, 9, 42, 50
1, 35507, Note_on_c, 3, 66, 0
1, 35507, Note_on_c, 3, 63, 0
1, 35507, Note_on_c, 3, 61, 0
1, 35518, Note_on_c, 9, 42, 0
1, 35520, Note_on_c, 9, 42, 50
1, 35520, Note_on_c, 3, 70, 100
1, 35520, Note_on_c, 3, 68, 100
1, 35520, Note_on_c, 9, 36, 100
1, 35520, Note_on_c, 4, 40, 100
1, 35520, Note_on_c, 0, 70, 100
1, 35520, Note_on_c, 3, 66, 100
1, 35548, Note_on_c, 9, 42, 0
1, 35550, Note_on_c, 9, 42, 50
1, 35560, Note_on_c, 0, 70, 0
1, 35578, Note_on_c, 9, 42, 0
1, 35580, Note_on_c, 4, 40, 0
1, 35580, Note_on_c, 9, 36, 0
1, 35580, Note_on_c, 9, 42, 50
1, 35580, Note_on_c, 0, 70, 100
1, 35600, Note_on_c, 0, 70, 0
1, 35608, Note_on_c, 9, 42, 0
1, 35610, Note_on_c, 4, 40, 100
1, 35610, Note_on_c, 0, 73, 100
1, 35610, Note_on_c, 9, 42, 50
1, 35610, Note_on_c, 9, 36, 100
1, 35638, Note_on_c, 9, 42, 0
1, 35640, Note_on_c, 9, 42, 50
1, 35668, Note_on_c, 9, 42, 0
1, 35670, Note_on_c, 9, 36, 0
1, 35670, Note_on_c, 4, 40, 0
1, 35670, Note_on_c, 0, 73, 0
1, 35670, Note_on_c, 9, 42, 50
1, 35698, Note_on_c, 9, 42, 0
1, 35698, Note_on_c, 3, 66, 0
1, 35698, Note_on_c, 3, 68, 0
1, 35698, Note_on_c, 3, 70, 0
1, 35700, Note_on_c, 3, 68, 100
1, 35700, Note_on_c, 9, 42, 50
1, 35700, Note_on_c, 3, 70, 100
1, 35700, Note_on_c, 9, 36, 100
1, 35700, Note_on_c, 0, 73, 100
1, 35700, Note_on_c, 4, 42, 100
1, 35700, Note_on_c, 3, 60, 100
1, 35720, Note_on_c, 0, 73, 0
1, 35728, Note_on_c, 9, 42, 0
1, 35730, Note_on_c, 0, 73, 100
1, 35730, Note_on_c, 9, 42, 50
1, 35740, Note_on_c, 9, 36, 0
1, 35758, Note_on_c, 9, 42, 0
1, 35760, Note_on_c, 9, 42, 50
1, 35760, Note_on_c, 9, 41, 100
1, 35780, Note_on_c, 4, 42, 0
1, 35788, Note_on_c, 9, 42, 0
1, 35790, Note_on_c, 9, 42, 50
1, 35818, Note_on_c, 9, 42, 0
1, 35820, Note_on_c, 9, 42, 50
1, 35820, Note_on_c, 4, 42, 100
1, 35840, Note_on_c, 9, 41, 0
1, 35848, Note_on_c, 9, 42, 0
1, 35850, Note_on_c, 0, 73, 0
1, 35850, Note_on_c, 9, 42, 50
1, 35878, Note_on_c, 9, 42, 0
1, 35880, Note_on_c, 4, 42, 0
1, 35880, Note_on_c, 9, 42, 50
1, 35880, Note_on_c, 9, 38, 100
1, 35908, Note_on_c, 9, 42, 0
1, 35910, Note_on_c, 9, 42, 50
1, 35910, Note_on_c, 4, 42, 100
1, 35938, Note_on_c, 9, 42, 0
1, 35940, Note_on_c, 9, 42, 50
1, 35960, Note_on_c, 9, 38, 0
1, 35968, Note_on_c, 9, 42, 0
1, 35970, Note_on_c, 4, 42, 0
1, 35970, Note_on_c, 9, 42, 50
1, 35987, Note_on_c, 3, 70, 0
1, 35987, Note_on_c, 3, 60, 0
1, 35987, Note_on_c, 3, 68, 0
1, 35998, Note_on_c, 9, 42, 0
1, 36000, Note_on_c, 3, 63, 100
1, 36000, Note_on_c, 9, 36, 100
1, 36000, Note_on_c, 3, 60, 100
1, 36000, Note_on_c, 3, 66, 100
1, 36000, Note_on_c, 4, 44, 100
1, 36000, Note_on_c, 9, 42, 50
1, 36028, Note_on_c, 9, 42, 0
1, 36030, Note_on_c, 9, 42, 50
1, 36058, Note_on_c, 9, 42, 0
1, 36060, Note_on_c, 4, 44, 0
1, 36060, Note_on_c, 9, 36, 0
1, 36060, Note_on_c, 9, 42, 50
1, 36060, Note_on_c, 0, 75, 100
1, 36080, Note_on_c, 0, 75, 0
1, 36088, Note_on_c, 9, 42, 0
1, 36090, Note_on_c, 9, 42, 50
1, 36090, Note_on_c, 4, 44, 100
1, 36090, Note_on_c, 9, 36, 100
1, 36090, Note_on_c, 0, 75, 100
1, 36110, Note_on_c, 0, 75, 0
1, 36118, Note_on_c, 9, 42, 0
1, 36120, Note_on_c, 0, 75, 100
1, 36120, Note_on_c, 9, 42, 50
1, 36148, Note_on_c, 9, 42, 0
1, 36150, Note_on_c, 9, 36, 0
1, 36150, Note_on_c, 4, 44, 0
1, 36150, Note_on_c, 9, 42, 50
1, 36160, Note_on_c, 0, 75, 0
1, 36178, Note_on_c, 3, 66, 0
1, 36178, Note_on_c, 3, 63, 0
1, 36178, Note_on_c, 3, 60, 0
1, 36178, Note_on_c, 9, 42, 0
1, 36180, Note_on_c, 3, 66, 100
1, 36180, Note_on_c, 3, 63, 100
1, 36180, Note_on_c, 0, 75, 100
1, 36180, Note_on_c, 9, 36, 100
1, 36180, Note_on_c, 9, 42, 50
1, 36180, Note_on_c, 4, 47, 100
1, 36180, Note_on_c, 3, 61, 100
1, 36208, Note_on_c, 9, 42, 0
1, 36210, Note_on_c, 9, 42, 50
1, 36220, Note_on_c, 9, 36, 0
1, 36220, Note_on_c, 0, 75, 0
1, 36238, Note_on_c, 9, 42, 0
1, 36240, Note_on_c, 9, 38, 100
1, 36240, Note_on_c, 0, 75, 100
1, 36240, Note_on_c, 9, 42, 50
1, 36260, Note_on_c, 4, 47, 0
1, 36268, Note_on_c, 9, 42, 0
1, 36270, Note_on_c, 9, 42, 50
1, 36280, Note_on_c, 0, 75, 0
1, 36298, Note_on_c, 9, 42, 0
1, 36300, Note_on_c, 9, 42, 50
1, 36300, Note_on_c, 0, 73, 100
1, 36300, Note_on_c, 4, 47, 100
1, 36320, Note_on_c, 9, 38, 0
1, 36328, Note_on_c, 9, 42, 0
1, 36330, Note_on_c, 9, 42, 50
1, 36358, Note_on_c, 9, 42, 0
1, 36360, Note_on_c, 4, 47, 0
1, 36360, Note_on_c, 9, 42, 50
1, 36360, Note_on_c, 9, 50, 100
1, 36388, Note_on_c, 9, 42, 0
1, 36390, Note_on_c, 9, 42, 50
1, 36390, Note_on_c, 4, 47, 100
1, 36418, Note_on_c, 9, 42, 0
1, 36420, Note_on_c, 0, 73, 0
1, 36420, Note_on_c, 9, 42, 50
1, 36440, Note_on_c, 9, 50, 0
1, 36448, Note_on_c, 9, 42, 0
1, 36450, Note_on_c, 4, 47, 0
1, 36450, Note_on_c, 9, 42, 50
1, 36467, Note_on_c, 3, 66, 0
1, 36467, Note_on_c, 3, 63, 0
1, 36467, Note_on_c, 3, 61, 0
1, 36478, Note_on_c, 9, 42, 0
1, 36480, Note_on_c, 3, 70, 100
1, 36480, Note_on_c, 3, 68, 100
1, 36480, Note_on_c, 4, 42, 100
1, 36480, Note_on_c, 0, 70, 100
1, 36480, Note_on_c, 9, 36, 100
1, 36480, Note_on_c, 3, 60, 100
1, 36480, Note_on_c, 9, 42, 50
1, 36508, Note_on_c, 9, 42, 0
1, 36510, Note_on_c, 9, 42, 50
1, 36538, Note_on_c, 9, 42, 0
1, 36540, Note_on_c, 9, 36, 0
1, 36540, Note_on_c, 4, 42, 0
1, 36540, Note_on_c, 0, 70, 0
1, 36540, Note_on_c, 9, 42, 50
1, 36568, Note_on_c, 9, 42, 0
1, 36570, Note_on_c, 9, 42, 50
1, 36570, Note_on_c, 9, 36, 100
1, 36570, Note_on_c, 4, 42, 100
1, 36570, Note_on_c, 0, 73, 100
1, 36598, Note_on_c, 9, 42, 0
1, 36600, Note_on_c, 9, 42, 50
1, 36610, Note_on_c, 0, 73, 0
1, 36628, Note_on_c, 9, 42, 0
1, 36630, Note_on_c, 9, 36, 0
1, 36630, Note_on_c, 4, 42, 0
1, 36630, Note_on_c, 0, 73, 100
1, 36630, Note_on_c, 9, 42, 50
1, 36650, Note_on_c, 0, 73, 0
1, 36658, Note_on_c, 3, 70, 0
1, 36658, Note_on_c, 3, 60, 0
1, 36658, Note_on_c, 3, 68, 0
1, 36658, Note_on_c, 9, 42, 0
1, 36660, Note_on_c, 0, 73, 100
1, 36660, Note_on_c, 9, 36, 100
1, 36660, Note_on_c, 3, 63, 100
1, 36660, Note_on_c, 3, 61, 100
1, 36660, Note_on_c, 3, 66, 100
1, 36660, Note_on_c, 9, 42, 50
1, 36660, Note_on_c, 4, 49, 100
1, 36688, Note_on_c, 9, 42, 0
1, 36690, Note_on_c, 9, 42, 50
1, 36700, Note_on_c, 9, 36, 0
1, 36718, Note_on_c, 9, 42, 0
1, 36720, Note_on_c, 4, 49, 0
1, 36720, Note_on_c, 9, 42, 50
1, 36720, Note_on_c, 9, 41, 100
1, 36740, Note_on_c, 0, 73, 0
1, 36748, Note_on_c, 9, 42, 0
1, 36750, Note_on_c, 9, 42, 50
1, 36750, Note_on_c, 4, 49, 100
1, 36750, Note_on_c, 0, 70, 100
1, 36770, Note_on_c, 0, 70, 0
1, 36770, Note_on_c, 4, 49, 0
1, 36778, Note_on_c, 9, 42, 0
1, 36780, Note_on_c, 9, 42, 50
1, 36780, Note_on_c, 0, 68, 100
1, 36780, Note_on_c, 4, 49, 100
1, 36800, Note_on_c, 4, 49, 0
1, 36800, Note_on_c, 9, 41, 0
1, 36808, Note_on_c, 9, 42, 0
1, 36810, Note_on_c, 9, 42, 50
1, 36810, Note_on_c, 4, 53, 100
1, 36820, Note_on_c, 0, 68, 0
1, 36830, Note_on_c, 4, 53, 0
1, 36838, Note_on_c, 9, 42, 0
1, 36840, Note_on_c, 9, 38, 100
1, 36840, Note_on_c, 4, 56, 100
1, 36840, Note_on_c, 9, 42, 50
1, 36860, Note_on_c, 4, 56, 0
1, 36868, Note_on_c, 9, 42, 0
1, 36870, Note_on_c, 4, 53, 100
1, 36870, Note_on_c, 9, 42, 50
1, 36890, Note_on_c, 4, 53, 0
1, 36898, Note_on_c, 9, 42, 0
1, 36900, Note_on_c, 9, 42, 50
1, 36900, Note_on_c, 4, 51, 100
1, 36920, Note_on_c, 4, 51, 0
1, 36920, Note_on_c, 9, 38, 0
1, 36928, Note_on_c, 9, 42, 0
1, 36930, Note_on_c, 9, 42, 50
1, 36930, Note_on_c, 4, 49, 100
1, 36947, Note_on_c, 3, 66, 0
1, 36947, Note_on_c, 3, 61, 0
1, 36947, Note_on_c, 3, 63, 0
1, 36950, Note_on_c, 4, 49, 0
1, 36958, Note_on_c, 9, 42, 0
1, 36960, Note_on_c, 4, 44, 100
1, 36960, Note_on_c, 3, 66, 100
1, 36960, Note_on_c, 3, 63, 100
1, 36960, Note_on_c, 9, 36, 100
1, 36960, Note_on_c, 3, 60, 100
1, 36960, Note_on_c, 9, 42, 50
1, 36988, Note_on_c, 9, 42, 0
1, 36990, Note_on_c, 9, 42, 50
1, 37018, Note_on_c, 9, 42, 0
1, 37020, Note_on_c, 9, 36, 0
1, 37020, Note_on_c, 4, 44, 0
1, 37020, Note_on_c, 9, 42, 50
1, 37020, Note_on_c, 0, 75, 100
1, 37048, Note_on_c, 9, 42, 0
1, 37050, Note_on_c, 4, 44, 100
1, 37050, Note_on_c, 9, 36, 100
1, 37050, Note_on_c, 9, 42, 50
1, 37060, Note_on_c, 0, 75, 0
1, 37078, Note_on_c, 9, 42, 0
1, 37080, Note_on_c, 9, 42, 50
1, 37080, Note_on_c, 0, 75, 100
1, 37108, Note_on_c, 9, 42, 0
1, 37110, Note_on_c, 4, 44, 0
1, 37110, Note_on_c, 9, 36, 0
1, 37110, Note_on_c, 9, 42, 50
1, 37138, Note_on_c, 9, 42, 0
1, 37138, Note_on_c, 3, 60, 0
1, 37138, Note_on_c, 3, 63, 0
1, 37138, Note_on_c, 3, 66, 0
1, 37140, Note_on_c, 9, 36, 100
1, 37140, Note_on_c, 4, 47, 100
1, 37140, Note_on_c, 3, 66, 100
1, 37140, Note_on_c, 3, 63, 100
1, 37140, Note_on_c, 3, 61, 100
1, 37140, Note_on_c, 9, 42, 50
1, 37160, Note_on_c, 0, 75, 0
1, 37168, Note_on_c, 9, 42, 0
1, 37170, Note_on_c, 9, 42, 50
1, 37180, Note_on_c, 9, 36, 0
1, 37198, Note_on_c, 9, 42, 0
1, 37200, Note_on_c, 9, 38, 100
1, 37200, Note_on_c, 9, 42, 50
1, 37200, Note_on_c, 0, 80, 100
1, 37220, Note_on_c, 4, 47, 0
1, 37228, Note_on_c, 9, 42, 0
1, 37230, Note_on_c, 9, 42, 50
1, 37240, Note_on_c, 0, 80, 0
1, 37258, Note_on_c, 9, 42, 0
1, 37260, Note_on_c, 9, 42, 50
1, 37260, Note_on_c, 4, 47, 100
1, 37260, Note_on_c, 0, 76, 100
1, 37280, Note_on_c, 9, 38, 0
1, 37288, Note_on_c, 9, 42, 0
1, 37290, Note_on_c, 9, 42, 50
1, 37300, Note_on_c, 0, 76, 0
1, 37318, Note_on_c, 9, 42, 0
1, 37320, Note_on_c, 4, 47, 0
1, 37320, Note_on_c, 9, 42, 50
1, 37320, Note_on_c, 0, 73, 100
1, 37320, Note_on_c, 9, 50, 100
1, 37348, Note_on_c, 9, 42, 0
1, 37350, Note_on_c, 4, 47, 100
1, 37350, Note_on_c, 9, 42, 50
1, 37370, Note_on_c, 4, 47, 0
1, 37378, Note_on_c, 9, 42, 0
1, 37380, Note_on_c, 9, 42, 50
1, 37380, Note_on_c, 4, 47, 100
1, 37400, Note_on_c, 9, 50, 0
1, 37400, Note_on_c, 0, 73, 0
1, 37408, Note_on_c, 9, 42, 0
1, 37410, Note_on_c, 9, 42, 50
1, 37420, Note_on_c, 4, 47, 0
1, 37427, Note_on_c, 3, 63, 0
1, 37427, Note_on_c, 3, 61, 0
1, 37427, Note_on_c, 3, 66, 0
1, 37438, Note_on_c, 9, 42, 0
1, 37440, Note_on_c, 3, 68, 100
1, 37440, Note_on_c, 0, 71, 100
1, 37440, Note_on_c, 4, 40, 100
1, 37440, Note_on_c, 3, 66, 100
1, 37440, Note_on_c, 3, 70, 100
1, 37440, Note_on_c, 9, 36, 100
1, 37440, Note_on_c, 9, 42, 50
1, 37460, Note_on_c, 0, 71, 0
1, 37468, Note_on_c, 9, 42, 0
1, 37470, Note_on_c, 9, 42, 50
1, 37470, Note_on_c, 0, 71, 100
1, 37498, Note_on_c, 9, 42, 0
1, 37500, Note_on_c, 4, 40, 0
1, 37500, Note_on_c, 9, 36, 0
1, 37500, Note_on_c, 9, 42, 50
1, 37510, Note_on_c, 0, 71, 0
1, 37528, Note_on_c, 9, 42, 0
1, 37530, Note_on_c, 9, 36, 100
1, 37530, Note_on_c, 4, 40, 100
1, 37530, Note_on_c, 9, 42, 50
1, 37530, Note_on_c, 0, 73, 100
1, 37558, Note_on_c, 9, 42, 0
1, 37560, Note_on_c, 9, 42, 50
1, 37588, Note_on_c, 9, 42, 0
1, 37590, Note_on_c, 0, 73, 0
1, 37590, Note_on_c, 9, 36, 0
1, 37590, Note_on_c, 4, 40, 0
1, 37590, Note_on_c, 9, 42, 50
1, 37618, Note_on_c, 9, 42, 0
1, 37618, Note_on_c, 3, 66, 0
1, 37618, Note_on_c, 3, 68, 0
1, 37618, Note_on_c, 3, 70, 0
1, 37620, Note_on_c, 4, 42, 100
1, 37620, Note_on_c, 3, 60, 100
1, 37620, Note_on_c, 3, 68, 100
1, 37620, Note_on_c, 9, 42, 50
1, 37620, Note_on_c, 3, 70, 100
1, 37620, Note_on_c, 9, 36, 100
1, 37620, Note_on_c, 0, 73, 100
1, 37648, Note_on_c, 9, 42, 0
1, 37650, Note_on_c, 9, 42, 50
1, 37660, Note_on_c, 9, 36, 0
1, 37660, Note_on_c, 0, 73, 0
1, 37678, Note_on_c, 9, 42, 0
1, 37680, Note_on_c, 9, 41, 100
1, 37680, Note_on_c, 0, 73, 100
1, 37680, Note_on_c, 9, 42, 50
1, 37700, Note_on_c, 4, 42, 0
1, 37708, Note_on_c, 9, 42, 0
1, 37710, Note_on_c, 9, 42, 50
1, 37738, Note_on_c, 9, 42, 0
1, 37740, Note_on_c, 4, 42, 100
1, 37740, Note_on_c, 9, 42, 50
1, 37760, Note_on_c, 0, 73, 0
1, 37760, Note_on_c, 9, 41, 0
1, 37768, Note_on_c, 9, 42, 0
1, 37770, Note_on_c, 9, 42, 50
1, 37798, Note_on_c, 9, 42, 0
1, 37800, Note_on_c, 4, 42, 0
1, 37800, Note_on_c, 9, 38, 100
1, 37800, Note_on_c, 9, 42, 50
1, 37828, Note_on_c, 9, 42, 0
1, 37830, Note_on_c, 4, 42, 100
1, 37830, Note_on_c, 9, 42, 50
1, 37850, Note_on_c, 4, 42, 0
1, 37858, Note_on_c, 9, 42, 0
1, 37860, Note_on_c, 9, 42, 50
1, 37860, Note_on_c, 4, 42, 100
1, 37880, Note_on_c, 9, 38, 0
1, 37888, Note_on_c, 9, 42, 0
1, 37890, Note_on_c, 9, 42, 50
1, 37900, Note_on_c, 4, 42, 0
1, 37907, Note_on_c, 3, 70, 0
1, 37907, Note_on_c, 3, 68, 0
1, 37907, Note_on_c, 3, 60, 0
1, 37918, Note_on_c, 9, 42, 0
1, 37920, Note_on_c, 9, 36, 100
1, 37920, Note_on_c, 3, 63, 100
1, 37920, Note_on_c, 4, 44, 100
1, 37920, Note_on_c, 3, 68, 100
1, 37920, Note_on_c, 9, 42, 50
1, 37948, Note_on_c, 9, 42, 0
1, 37950, Note_on_c, 9, 42, 50
1, 37960, Note_on_c, 9, 36, 0
1, 37978, Note_on_c, 9, 42, 0
1, 37980, Note_on_c, 4, 44, 0
1, 37980, Note_on_c, 0, 68, 100
1, 37980, Note_on_c, 9, 42, 50
1, 38000, Note_on_c, 0, 68, 0
1, 38008, Note_on_c, 9, 42, 0
1, 38010, Note_on_c, 9, 42, 50
1, 38010, Note_on_c, 0, 68, 100
1, 38010, Note_on_c, 4, 44, 100
1, 38030, Note_on_c, 0, 68, 0
1, 38038, Note_on_c, 9, 42, 0
1, 38040, Note_on_c, 9, 38, 100
1, 38040, Note_on_c, 9, 42, 50
1, 38040, Note_on_c, 0, 68, 100
1, 38068, Note_on_c, 9, 42, 0
1, 38070, Note_on_c, 4, 44, 0
1, 38070, Note_on_c, 9, 42, 50
1, 38080, Note_on_c, 0, 68, 0
1, 38098, Note_on_c, 9, 42, 0
1, 38100, Note_on_c, 9, 42, 50
1, 38100, Note_on_c, 4, 47, 100
1, 38100, Note_on_c, 0, 68, 100
1, 38100, Note_on_c, 9, 36, 100
1, 38120, Note_on_c, 9, 38, 0
1, 38128, Note_on_c, 9, 42, 0
1, 38130, Note_on_c, 9, 42, 50
1, 38140, Note_on_c, 0, 68, 0
1, 38140, Note_on_c, 4, 47, 0
1, 38140, Note_on_c, 9, 36, 0
1, 38158, Note_on_c, 9, 42, 0
1, 38160, Note_on_c, 4, 51, 100
1, 38160, Note_on_c, 9, 36, 100
1, 38160, Note_on_c, 0, 71, 100
1, 38160, Note_on_c, 9, 42, 50
1, 38188, Note_on_c, 9, 42, 0
1, 38190, Note_on_c, 9, 42, 50
1, 38200, Note_on_c, 4, 51, 0
1, 38200, Note_on_c, 9, 36, 0
1, 38218, Note_on_c, 9, 42, 0
1, 38220, Note_on_c, 0, 71, 0
1, 38220, Note_on_c, 9, 42, 50
1, 38220, Note_on_c, 4, 53, 100
1, 38248, Note_on_c, 9, 42, 0
1, 38250, Note_on_c, 0, 71, 100
1, 38250, Note_on_c, 9, 42, 50
1, 38260, Note_on_c, 4, 53, 0
1, 38278, Note_on_c, 9, 42, 0
1, 38280, Note_on_c, 9, 38, 100
1, 38280, Note_on_c, 9, 42, 50
1, 38280, Note_on_c, 4, 56, 100
1, 38290, Note_on_c, 0, 71, 0
1, 38308, Note_on_c, 9, 42, 0
1, 38310, Note_on_c, 9, 42, 50
1, 38320, Note_on_c, 4, 56, 0
1, 38338, Note_on_c, 9, 42, 0
1, 38340, Note_on_c, 9, 36, 100
1, 38340, Note_on_c, 0, 71, 100
1, 38340, Note_on_c, 9, 42, 50
1, 38340, Note_on_c, 4, 51, 100
1, 38360, Note_on_c, 9, 38, 0
1, 38368, Note_on_c, 9, 42, 0
1, 38370, Note_on_c, 9, 42, 50
1, 38380, Note_on_c, 0, 71, 0
1, 38380, Note_on_c, 9, 36, 0
1, 38380, Note_on_c, 4, 51, 0
1, 38398, Note_on_c, 9, 42, 0
1, 38400, Note_on_c, 9, 36, 100
1, 38400, Note_on_c, 4, 54, 100
1, 38400, Note_on_c, 9, 42, 50
1, 38428, Note_on_c, 9, 42, 0
1, 38430, Note_on_c, 9, 42, 50
1, 38440, Note_on_c, 9, 36, 0
1, 38458, Note_on_c, 9, 42, 0
1, 38460, Note_on_c, 9, 42, 50
1, 38460, Note_on_c, 0, 76, 100
1, 38480, Note_on_c, 0, 76, 0
1, 38480, Note_on_c, 4, 54, 0
1, 38488, Note_on_c, 9, 42, 0
1, 38490, Note_on_c, 9, 42, 50
1, 38490, Note_on_c, 0, 76, 100
1, 38510, Note_on_c, 0, 76, 0
1, 38518, Note_on_c, 9, 42, 0
1, 38520, Note_on_c, 4, 52, 100
1, 38520, Note_on_c, 0, 76, 100
1, 38520, Note_on_c, 9, 38, 100
1, 38520, Note_on_c, 9, 42, 50
1, 38548, Note_on_c, 9, 42, 0
1, 38550, Note_on_c, 9, 42, 50
1, 38560, Note_on_c, 0, 76, 0
1, 38578, Note_on_c, 9, 42, 0
1, 38580, Note_on_c, 9, 42, 50
1, 38600, Note_on_c, 4, 52, 0
1, 38600, Note_on_c, 9, 38, 0
1, 38608, Note_on_c, 9, 42, 0
1, 38610, Note_on_c, 9, 38, 100
1, 38610, Note_on_c, 0, 73, 100
1, 38610, Note_on_c, 9, 42, 50
1, 38630, Note_on_c, 0, 73, 0
1, 38630, Note_on_c, 9, 38, 0
1, 38638, Note_on_c, 9, 42, 0
1, 38640, Note_on_c, 9, 38, 100
1, 38640, Note_on_c, 0, 76, 100
1, 38640, Note_on_c, 4, 51, 100
1, 38640, Note_on_c, 9, 42, 50
1, 38668, Note_on_c, 9, 42, 0
1, 38670, Note_on_c, 9, 42, 50
1, 38680, Note_on_c, 9, 38, 0
1, 38680, Note_on_c, 0, 76, 0
1, 38698, Note_on_c, 9, 42, 0
1, 38700, Note_on_c, 0, 73, 100
1, 38700, Note_on_c, 9, 36, 100
1, 38700, Note_on_c, 9, 38, 100
1, 38700, Note_on_c, 9, 42, 50
1, 38720, Note_on_c, 4, 51, 0
1, 38728, Note_on_c, 9, 42, 0
1, 38730, Note_on_c, 9, 42, 50
1, 38740, Note_on_c, 9, 36, 0
1, 38740, Note_on_c, 0, 73, 0
1, 38740, Note_on_c, 9, 38, 0
1, 38758, Note_on_c, 9, 42, 0
1, 38760, Note_on_c, 4, 49, 100
1, 38760, Note_on_c, 9, 42, 50
1, 38760, Note_on_c, 9, 38, 100
1, 38760, Note_on_c, 9, 36, 100
1, 38760, Note_on_c, 0, 73, 100
1, 38788, Note_on_c, 9, 42, 0
1, 38790, Note_on_c, 9, 42, 50
1, 38800, Note_on_c, 9, 38, 0
1, 38800, Note_on_c, 9, 36, 0
1, 38818, Note_on_c, 9, 42, 0
1, 38820, Note_on_c, 9, 42, 50
1, 38840, Note_on_c, 4, 49, 0
1, 38840, Note_on_c, 0, 73, 0
1, 38848, Note_on_c, 9, 42, 0
1, 38850, Note_on_c, 9, 42, 50
1, 38878, Tempo, 566038
1, 38878, Note_on_c, 9, 42, 0
1, 38878, Note_on_c, 3, 63, 0
1, 38878, Note_on_c, 3, 68, 0
1, 38880, Note_on_c, 7, 63, 100
1, 38880, Note_on_c, 3, 59, 100
1, 38880, Note_on_c, 9, 36, 100
1, 38880, Note_on_c, 9, 42, 50
1, 38880, Note_on_c, 7, 59, 100
1, 38880, Note_on_c, 3, 63, 100
1, 38880, Control_c, 7, 7, 70
1, 38880, Note_on_c, 7, 54, 100
1, 38880, Note_on_c, 3, 66, 100
1, 38880, Note_on_c, 4, 47, 100
1, 38908, Note_on_c, 9, 42, 0
1, 38910, Note_on_c, 9, 42, 50
1, 38920, Note_on_c, 9, 36, 0
1, 38938, Note_on_c, 9, 42, 0
1, 38940, Note_on_c, 4, 47, 0
1, 38940, Note_on_c, 7, 63, 0
1, 38940, Note_on_c, 7, 59, 0
1, 38940, Note_on_c, 7, 54, 0
1, 38940, Note_on_c, 9, 42, 50
1, 38940, Note_on_c, 0, 71, 100
1, 38968, Note_on_c, 9, 42, 0
1, 38970, Note_on_c, 9, 42, 50
1, 38970, Note_on_c, 7, 63, 100
1, 38970, Note_on_c, 7, 59, 100
1, 38970, Note_on_c, 7, 54, 100
1, 38970, Note_on_c, 4, 47, 100
1, 38970, Note_on_c, 9, 36, 100
1, 38998, Note_on_c, 9, 42, 0
1, 39000, Note_on_c, 0, 71, 0
1, 39000, Note_on_c, 9, 38, 110
1, 39000, Note_on_c, 9, 42, 50
1, 39010, Note_on_c, 4, 47, 0
1, 39010, Note_on_c, 9, 36, 0
1, 39028, Note_on_c, 9, 42, 0
1, 39030, Note_on_c, 7, 54, 0
1, 39030, Note_on_c, 7, 63, 0
1, 39030, Note_on_c, 7, 59, 0
1, 39030, Note_on_c, 0, 71, 100
1, 39030, Note_on_c, 9, 42, 50
1, 39030, Note_on_c, 4, 47, 100
1, 39050, Note_on_c, 4, 47, 0
1, 39058, Note_on_c, 9, 42, 0
1, 39060, Note_on_c, 7, 59, 100
1, 39060, Note_on_c, 7, 54, 100
1, 39060, Note_on_c, 9, 42, 50
1, 39060, Note_on_c, 7, 63, 100
1, 39060, Note_on_c, 9, 36, 100
1, 39060, Note_on_c, 4, 47, 100
1, 39080, Note_on_c, 9, 38, 0
1, 39088, Note_on_c, 9, 42, 0
1, 39090, Note_on_c, 0, 71, 0
1, 39090, Note_on_c, 9, 42, 50
1, 39100, Note_on_c, 9, 36, 0
1, 39118, Note_on_c, 9, 42, 0
1, 39120, Note_on_c, 9, 42, 50
1, 39120, Note_on_c, 0, 73, 100
1, 39140, Note_on_c, 7, 63, 0
1, 39140, Note_on_c, 7, 54, 0
1, 39140, Note_on_c, 7, 59, 0
1, 39148, Note_on_c, 9, 42, 0
1, 39150, Note_on_c, 9, 42, 50
1, 39178, Note_on_c, 9, 42, 0
1, 39180, Note_on_c, 9, 42, 50
1, 39180, Note_on_c, 7, 59, 100
1, 39180, Note_on_c, 7, 54, 100
1, 39180, Note_on_c, 7, 63, 100
1, 39180, Note_on_c, 9, 36, 100
1, 39200, Note_on_c, 0, 73, 0
1, 39208, Note_on_c, 9, 42, 0
1, 39210, Note_on_c, 9, 42, 50
1, 39220, Note_on_c, 9, 36, 0
1, 39220, Note_on_c, 4, 47, 0
1, 39238, Note_on_c, 9, 42, 0
1, 39240, Note_on_c, 9, 38, 110
1, 39240, Note_on_c, 9, 42, 50
1, 39268, Note_on_c, 9, 42, 0
1, 39270, Note_on_c, 4, 47, 100
1, 39270, Note_on_c, 9, 42, 50
1, 39290, Note_on_c, 4, 47, 0
1, 39298, Note_on_c, 9, 42, 0
1, 39300, Note_on_c, 7, 63, 0
1, 39300, Note_on_c, 7, 54, 0
1, 39300, Note_on_c, 7, 59, 0
1, 39300, Note_on_c, 4, 47, 100
1, 39300, Note_on_c, 9, 36, 100
1, 39300, Note_on_c, 9, 42, 50
1, 39320, Note_on_c, 9, 36, 0
1, 39320, Note_on_c, 9, 38, 0
1, 39328, Note_on_c, 9, 42, 0
1, 39330, Note_on_c, 9, 36, 100
1, 39330, Note_on_c, 9, 42, 50
1, 39340, Note_on_c, 4, 47, 0
1, 39350, Note_on_c, 9, 36, 0
1, 39358, Note_on_c, 3, 59, 0
1, 39358, Note_on_c, 3, 63, 0
1, 39358, Note_on_c, 9, 42, 0
1, 39358, Note_on_c, 3, 66, 0
1, 39360, Note_on_c, 9, 42, 50
1, 39360, Note_on_c, 7, 66, 100
1, 39360, Note_on_c, 7, 61, 100
1, 39360, Note_on_c, 3, 66, 100
1, 39360, Note_on_c, 3, 61, 100
1, 39360, Note_on_c, 4, 42, 100
1, 39360, Note_on_c, 7, 58, 100
1, 39360, Note_on_c, 9, 36, 100
1, 39360, Note_on_c, 3, 58, 100
1, 39388, Note_on_c, 9, 42, 0
1, 39390, Note_on_c, 9, 42, 50
1, 39400, Note_on_c, 9, 36, 0
1, 39418, Note_on_c, 9, 42, 0
1, 39420, Note_on_c, 7, 66, 0
1, 39420, Note_on_c, 4, 42, 0
1, 39420, Note_on_c, 7, 61, 0
1, 39420, Note_on_c, 7, 58, 0
1, 39420, Note_on_c, 0, 75, 100
1, 39420, Note_on_c, 9, 42, 50
1, 39448, Note_on_c, 9, 42, 0
1, 39450, Note_on_c, 9, 42, 50
1, 39450, Note_on_c, 9, 36, 100
1, 39450, Note_on_c, 7, 58, 100
1, 39450, Note_on_c, 7, 61, 100
1, 39450, Note_on_c, 4, 46, 100
1, 39450, Note_on_c, 7, 66, 100
1, 39478, Note_on_c, 9, 42, 0
1, 39480, Note_on_c, 0, 75, 0
1, 39480, Note_on_c, 9, 38, 110
1, 39480, Note_on_c, 9, 42, 50
1, 39490, Note_on_c, 4, 46, 0
1, 39490, Note_on_c, 9, 36, 0
1, 39508, Note_on_c, 9, 42, 0
1, 39510, Note_on_c, 7, 61, 0
1, 39510, Note_on_c, 7, 58, 0
1, 39510, Note_on_c, 7, 66, 0
1, 39510, Note_on_c, 9, 42, 50
1, 39510, Note_on_c, 4, 47, 100
1, 39510, Note_on_c, 0, 73, 100
1, 39530, Note_on_c, 4, 47, 0
1, 39538, Note_on_c, 3, 66, 0
1, 39538, Note_on_c, 3, 61, 0
1, 39538, Note_on_c, 3, 58, 0
1, 39538, Note_on_c, 9, 42, 0
1, 39540, Note_on_c, 3, 65, 100
1, 39540, Note_on_c, 4, 49, 100
1, 39540, Note_on_c, 7, 65, 100
1, 39540, Note_on_c, 7, 61, 100
1, 39540, Note_on_c, 7, 56, 100
1, 39540, Note_on_c, 3, 56, 100
1, 39540, Note_on_c, 9, 36, 100
1, 39540, Note_on_c, 3, 61, 100
1, 39540, Note_on_c, 9, 42, 50
1, 39560, Note_on_c, 9, 38, 0
1, 39568, Note_on_c, 9, 42, 0
1, 39570, Note_on_c, 0, 73, 0
1, 39570, Note_on_c, 9, 42, 50
1, 39580, Note_on_c, 9, 36, 0
1, 39598, Note_on_c, 9, 42, 0
1, 39600, Note_on_c, 4, 49, 0
1, 39600, Note_on_c, 0, 73, 100
1, 39600, Note_on_c, 9, 42, 50
1, 39628, Note_on_c, 9, 42, 0
1, 39630, Note_on_c, 4, 37, 100
1, 39630, Note_on_c, 9, 42, 50
1, 39630, Note_on_c, 9, 38, 100
1, 39650, Note_on_c, 4, 37, 0
1, 39658, Note_on_c, 9, 42, 0
1, 39660, Note_on_c, 4, 37, 100
1, 39660, Note_on_c, 9, 36, 100
1, 39660, Note_on_c, 9, 42, 50
1, 39670, Note_on_c, 9, 38, 0
1, 39680, Note_on_c, 0, 73, 0
1, 39688, Note_on_c, 9, 42, 0
1, 39690, Note_on_c, 9, 42, 50
1, 39700, Note_on_c, 4, 37, 0
1, 39700, Note_on_c, 9, 36, 0
1, 39718, Note_on_c, 9, 42, 0
1, 39720, Note_on_c, 9, 42, 50
1, 39720, Note_on_c, 9, 38, 110
1, 39720, Note_on_c, 4, 37, 100
1, 39748, Note_on_c, 9, 42, 0
1, 39750, Note_on_c, 0, 71, 100
1, 39750, Note_on_c, 9, 38, 100
1, 39750, Note_on_c, 9, 42, 50
1, 39770, Note_on_c, 9, 38, 0
1, 39770, Note_on_c, 0, 71, 0
1, 39778, Note_on_c, 9, 42, 0
1, 39780, Note_on_c, 7, 65, 0
1, 39780, Note_on_c, 7, 56, 0
1, 39780, Note_on_c, 7, 61, 0
1, 39780, Note_on_c, 9, 42, 50
1, 39780, Note_on_c, 0, 71, 100
1, 39780, Note_on_c, 9, 36, 100
1, 39800, Note_on_c, 9, 36, 0
1, 39800, Note_on_c, 4, 37, 0
1, 39800, Note_on_c, 9, 38, 0
1, 39808, Note_on_c, 9, 42, 0
1, 39810, Note_on_c, 9, 38, 100
1, 39810, Note_on_c, 9, 36, 100
1, 39810, Note_on_c, 9, 42, 50
1, 39820, Note_on_c, 0, 71, 0
1, 39827, Note_on_c, 3, 56, 0
1, 39827, Note_on_c, 3, 65, 0
1, 39827, Note_on_c, 3, 61, 0
1, 39830, Note_on_c, 9, 36, 0
1, 39830, Note_on_c, 9, 38, 0
1, 39838, Note_on_c, 9, 42, 0
1, 39840, Note_on_c, 7, 65, 100
1, 39840, Note_on_c, 0, 73, 100
1, 39840, Note_on_c, 3, 65, 100
1, 39840, Note_on_c, 4, 49, 100
1, 39840, Note_on_c, 3, 56, 100
1, 39840, Note_on_c, 7, 56, 100
1, 39840, Note_on_c, 9, 42, 50
1, 39840, Note_on_c, 9, 36, 100
1, 39868, Note_on_c, 9, 42, 0
1, 39870, Note_on_c, 9, 42, 50
1, 39880, Note_on_c, 9, 36, 0
1, 39898, Note_on_c, 9, 42, 0
1, 39900, Note_on_c, 0, 73, 0
1, 39900, Note_on_c, 9, 42, 50
1, 39920, Note_on_c, 4, 49, 0
1, 39928, Note_on_c, 9, 42, 0
1, 39930, Note_on_c, 0, 73, 100
1, 39930, Note_on_c, 9, 42, 50
1, 39930, Note_on_c, 9, 36, 100
1, 39950, Note_on_c, 0, 73, 0
1, 39958, Note_on_c, 3, 56, 0
1, 39958, Note_on_c, 7, 56, 0
1, 39958, Note_on_c, 3, 65, 0
1, 39958, Note_on_c, 7, 65, 0
1, 39958, Note_on_c, 9, 42, 0
1, 39960, Note_on_c, 4, 47, 100
1, 39960, Note_on_c, 9, 38, 110
1, 39960, Note_on_c, 9, 42, 50
1, 39960, Note_on_c, 7, 63, 100
1, 39960, Note_on_c, 7, 56, 100
1, 39960, Note_on_c, 3, 56, 100
1, 39960, Note_on_c, 0, 73, 100
1, 39960, Note_on_c, 3, 63, 100
1, 39970, Note_on_c, 9, 36, 0
1, 39980, Note_on_c, 0, 73, 0
1, 39988, Note_on_c, 9, 42, 0
1, 39990, Note_on_c, 0, 70, 100
1, 39990, Note_on_c, 9, 42, 50
1, 40010, Note_on_c, 0, 70, 0
1, 40018, Note_on_c, 9, 42, 0
1, 40020, Note_on_c, 0, 68, 100
1, 40020, Note_on_c, 9, 42, 50
1, 40020, Note_on_c, 9, 36, 100
1, 40040, Note_on_c, 9, 38, 0
1, 40040, Note_on_c, 4, 47, 0
1, 40048, Note_on_c, 9, 42, 0
1, 40050, Note_on_c, 9, 42, 50
1, 40060, Note_on_c, 9, 36, 0
1, 40060, Note_on_c, 0, 68, 0
1, 40078, Note_on_c, 7, 56, 0
1, 40078, Note_on_c, 7, 63, 0
1, 40078, Note_on_c, 3, 56, 0
1, 40078, Note_on_c, 9, 42, 0
1, 40078, Note_on_c, 3, 63, 0
1, 40080, Note_on_c, 3, 56, 100
1, 40080, Note_on_c, 4, 46, 100
1, 40080, Note_on_c, 0, 71, 100
1, 40080, Note_on_c, 7, 56, 100
1, 40080, Note_on_c, 7, 61, 100
1, 40080, Note_on_c, 9, 42, 50
1, 40080, Note_on_c, 3, 61, 100
1, 40108, Note_on_c, 9, 42, 0
1, 40110, Note_on_c, 9, 42, 50
1, 40138, Note_on_c, 9, 42, 0
1, 40140, Note_on_c, 9, 36, 100
1, 40140, Note_on_c, 9, 42, 50
1, 40160, Note_on_c, 4, 46, 0
1, 40160, Note_on_c, 0, 71, 0
1, 40168, Note_on_c, 9, 42, 0
1, 40170, Note_on_c, 9, 42, 50
1, 40180, Note_on_c, 9, 36, 0
1, 40198, Note_on_c, 3, 61, 0
1, 40198, Note_on_c, 7, 56, 0
1, 40198, Note_on_c, 7, 61, 0
1, 40198, Note_on_c, 9, 42, 0
1, 40198, Note_on_c, 3, 56, 0
1, 40200, Note_on_c, 9, 42, 50
1, 40200, Note_on_c, 7, 61, 100
1, 40200, Note_on_c, 9, 38, 110
1, 40200, Note_on_c, 4, 44, 100
1, 40200, Note_on_c, 7, 56, 100
1, 40200, Note_on_c, 7, 53, 100
1, 40200, Note_on_c, 3, 61, 100
1, 40200, Note_on_c, 0, 68, 100
1, 40200, Note_on_c, 3, 53, 100
1, 40200, Note_on_c, 3, 56, 100
1, 40228, Note_on_c, 9, 42, 0
1, 40230, Note_on_c, 9, 42, 50
1, 40240, Note_on_c, 0, 68, 0
1, 40258, Note_on_c, 9, 42, 0
1, 40260, Note_on_c, 0, 66, 100
1, 40260, Note_on_c, 9, 42, 50
1, 40260, Note_on_c, 9, 36, 100
1, 40280, Note_on_c, 9, 36, 0
1, 40280, Note_on_c, 4, 44, 0
1, 40280, Note_on_c, 9, 38, 0
1, 40288, Note_on_c, 9, 42, 0
1, 40290, Note_on_c, 9, 36, 100
1, 40290, Note_on_c, 9, 42, 50
1, 40310, Note_on_c, 9, 36, 0
1, 40318, Note_on_c, 7, 61, 0
1, 40318, Note_on_c, 9, 42, 0
1, 40318, Note_on_c, 3, 61, 0
1, 40318, Note_on_c, 7, 53, 0
1, 40318, Note_on_c, 3, 53, 0
1, 40318, Note_on_c, 7, 56, 0
1, 40318, Note_on_c, 3, 56, 0
1, 40320, Note_on_c, 3, 66, 100
1, 40320, Note_on_c, 7, 58, 100
1, 40320, Note_on_c, 7, 54, 100
1, 40320, Note_on_c, 9, 36, 100
1, 40320, Note_on_c, 9, 42, 50
1, 40320, Note_on_c, 3, 58, 100
1, 40320, Note_on_c, 3, 61, 100
1, 40320, Note_on_c, 4, 42, 100
1, 40348, Note_on_c, 9, 42, 0
1, 40350, Note_on_c, 9, 42, 50
1, 40360, Note_on_c, 9, 36, 0
1, 40378, Note_on_c, 9, 42, 0
1, 40380, Note_on_c, 7, 54, 0
1, 40380, Note_on_c, 4, 42, 0
1, 40380, Note_on_c, 7, 58, 0
1, 40380, Note_on_c, 9, 42, 50
1, 40408, Note_on_c, 9, 42, 0
1, 40410, Note_on_c, 7, 61, 100
1, 40410, Note_on_c, 4, 46, 100
1, 40410, Note_on_c, 9, 42, 50
1, 40410, Note_on_c, 9, 36, 100
1, 40420, Note_on_c, 0, 66, 0
1, 40438, Note_on_c, 9, 42, 0
1, 40440, Note_on_c, 9, 42, 50
1, 40440, Note_on_c, 9, 38, 110
1, 40450, Note_on_c, 9, 36, 0
1, 40450, Note_on_c, 4, 46, 0
1, 40468, Note_on_c, 9, 42, 0
1, 40470, Note_on_c, 7, 61, 0
1, 40470, Note_on_c, 9, 42, 50
1, 40470, Note_on_c, 4, 47, 100
1, 40490, Note_on_c, 4, 47, 0
1, 40498, Note_on_c, 3, 58, 0
1, 40498, Note_on_c, 3, 66, 0
1, 40498, Note_on_c, 3, 61, 0
1, 40498, Note_on_c, 9, 42, 0
1, 40500, Note_on_c, 9, 42, 50
1, 40500, Note_on_c, 7, 61, 100
1, 40500, Note_on_c, 7, 56, 100
1, 40500, Note_on_c, 4, 49, 100
1, 40500, Note_on_c, 9, 36, 100
1, 40500, Note_on_c, 7, 65, 100
1, 40500, Note_on_c, 3, 61, 100
1, 40500, Note_on_c, 3, 56, 100
1, 40500, Note_on_c, 3, 65, 100
1, 40520, Note_on_c, 9, 38, 0
1, 40528, Note_on_c, 9, 42, 0
1, 40530, Note_on_c, 9, 42, 50
1, 40540, Note_on_c, 9, 36, 0
1, 40558, Note_on_c, 9, 42, 0
1, 40560, Note_on_c, 4, 49, 0
1, 40560, Note_on_c, 9, 42, 50
1, 40588, Note_on_c, 9, 42, 0
1, 40590, Note_on_c, 4, 37, 100
1, 40590, Note_on_c, 9, 42, 50
1, 40610, Note_on_c, 4, 37, 0
1, 40618, Note_on_c, 9, 42, 0
1, 40620, Note_on_c, 4, 37, 100
1, 40620, Note_on_c, 9, 36, 100
1, 40620, Note_on_c, 9, 42, 50
1, 40648, Note_on_c, 9, 42, 0
1, 40650, Note_on_c, 9, 42, 50
1, 40660, Note_on_c, 9, 36, 0
1, 40660, Note_on_c, 4, 37, 0
1, 40678, Note_on_c, 9, 42, 0
1, 40680, Note_on_c, 9, 42, 50
1, 40680, Note_on_c, 9, 38, 110
1, 40680, Note_on_c, 4, 37, 100
1, 40708, Note_on_c, 9, 42, 0
1, 40710, Note_on_c, 9, 42, 50
1, 40738, Note_on_c, 9, 42, 0
1, 40740, Note_on_c, 7, 56, 0
1, 40740, Note_on_c, 7, 61, 0
1, 40740, Note_on_c, 7, 65, 0
1, 40740, Note_on_c, 9, 42, 50
1, 40740, Note_on_c, 9, 43, 100
1, 40740, Note_on_c, 9, 36, 100
1, 40760, Note_on_c, 9, 36, 0
1, 40760, Note_on_c, 9, 43, 0
1, 40760, Note_on_c, 9, 38, 0
1, 40760, Note_on_c, 4, 37, 0
1, 40768, Note_on_c, 9, 42, 0
1, 40770, Note_on_c, 9, 36, 100
1, 40770, Note_on_c, 9, 43, 100
1, 40770, Note_on_c, 9, 42, 50
1, 40787, Note_on_c, 3, 56, 0
1, 40787, Note_on_c, 3, 65, 0
1, 40787, Note_on_c, 3, 61, 0
1, 40790, Note_on_c, 9, 36, 0
1, 40790, Note_on_c, 9, 43, 0
1, 40798, Note_on_c, 9, 42, 0
1, 40800, Note_on_c, 3, 59, 100
1, 40800, Note_on_c, 4, 47, 100
1, 40800, Note_on_c, 7, 59, 100
1, 40800, Note_on_c, 7, 63, 100
1, 40800, Note_on_c, 9, 36, 100
1, 40800, Note_on_c, 9, 42, 50
1, 40800, Note_on_c, 3, 66, 100
1, 40800, Note_on_c, 3, 63, 100
1, 40800, Note_on_c, 7, 54, 100
1, 40828, Note_on_c, 9, 42, 0
1, 40830, Note_on_c, 9, 42, 50
1, 40840, Note_on_c, 9, 36, 0
1, 40858, Note_on_c, 9, 42, 0
1, 40860, Note_on_c, 7, 63, 0
1, 40860, Note_on_c, 7, 54, 0
1, 40860, Note_on_c, 7, 59, 0
1, 40860, Note_on_c, 4, 47, 0
1, 40860, Note_on_c, 9, 42, 50
1, 40860, Note_on_c, 0, 71, 100
1, 40888, Note_on_c, 9, 42, 0
1, 40890, Note_on_c, 9, 36, 100
1, 40890, Note_on_c, 4, 47, 100
1, 40890, Note_on_c, 9, 42, 50
1, 40890, Note_on_c, 7, 59, 100
1, 40890, Note_on_c, 7, 63, 100
1, 40890, Note_on_c, 9, 38, 100
1, 40890, Note_on_c, 7, 54, 100
1, 40910, Note_on_c, 9, 38, 0
1, 40918, Note_on_c, 9, 42, 0
1, 40920, Note_on_c, 0, 71, 0
1, 40920, Note_on_c, 9, 42, 50
1, 40920, Note_on_c, 9, 38, 110
1, 40930, Note_on_c, 9, 36, 0
1, 40930, Note_on_c, 4, 47, 0
1, 40948, Note_on_c, 9, 42, 0
1, 40950, Note_on_c, 7, 63, 0
1, 40950, Note_on_c, 7, 59, 0
1, 40950, Note_on_c, 7, 54, 0
1, 40950, Note_on_c, 4, 47, 100
1, 40950, Note_on_c, 9, 42, 50
1, 40950, Note_on_c, 0, 71, 100
1, 40970, Note_on_c, 4, 47, 0
1, 40978, Note_on_c, 9, 42, 0
1, 40980, Note_on_c, 9, 42, 50
1, 40980, Note_on_c, 7, 59, 100
1, 40980, Note_on_c, 7, 63, 100
1, 40980, Note_on_c, 9, 36, 100
1, 40980, Note_on_c, 4, 47, 100
1, 40980, Note_on_c, 7, 54, 100
1, 41000, Note_on_c, 9, 38, 0
1, 41008, Note_on_c, 9, 42, 0
1, 41010, Note_on_c, 0, 71, 0
1, 41010, Note_on_c, 9, 42, 50
1, 41020, Note_on_c, 9, 36, 0
1, 41038, Note_on_c, 9, 42, 0
1, 41040, Note_on_c, 0, 73, 100
1, 41040, Note_on_c, 9, 42, 50
1, 41060, Note_on_c, 7, 63, 0
1, 41060, Note_on_c, 7, 54, 0
1, 41060, Note_on_c, 7, 59, 0
1, 41068, Note_on_c, 9, 42, 0
1, 41070, Note_on_c, 9, 42, 50
1, 41098, Note_on_c, 9, 42, 0
1, 41100, Note_on_c, 9, 42, 50
1, 41100, Note_on_c, 7, 59, 100
1, 41100, Note_on_c, 9, 36, 100
1, 41100, Note_on_c, 7, 63, 100
1, 41100, Note_on_c, 7, 54, 100
1, 41120, Note_on_c, 0, 73, 0
1, 41128, Note_on_c, 9, 42, 0
1, 41130, Note_on_c, 9, 42, 50
1, 41140, Note_on_c, 9, 36, 0
1, 41140, Note_on_c, 4, 47, 0
1, 41158, Note_on_c, 9, 42, 0
1, 41160, Note_on_c, 9, 38, 110
1, 41160, Note_on_c, 9, 42, 50
1, 41188, Note_on_c, 9, 42, 0
1, 41190, Note_on_c, 9, 42, 50
1, 41190, Note_on_c, 4, 47, 100
1, 41210, Note_on_c, 4, 47, 0
1, 41218, Note_on_c, 9, 42, 0
1, 41220, Note_on_c, 7, 54, 0
1, 41220, Note_on_c, 7, 63, 0
1, 41220, Note_on_c, 7, 59, 0
1, 41220, Note_on_c, 9, 42, 50
1, 41220, Note_on_c, 4, 47, 100
1, 41220, Note_on_c, 9, 36, 100
1, 41240, Note_on_c, 9, 36, 0
1, 41240, Note_on_c, 9, 38, 0
1, 41248, Note_on_c, 9, 42, 0
1, 41250, Note_on_c, 9, 36, 100
1, 41250, Note_on_c, 9, 42, 50
1, 41260, Note_on_c, 4, 47, 0
1, 41270, Note_on_c, 9, 36, 0
1, 41278, Note_on_c, 3, 63, 0
1, 41278, Note_on_c, 3, 66, 0
1, 41278, Note_on_c, 9, 42, 0
1, 41278, Note_on_c, 3, 59, 0
1, 41280, Note_on_c, 4, 42, 100
1, 41280, Note_on_c, 3, 61, 100
1, 41280, Note_on_c, 3, 66, 100
1, 41280, Note_on_c, 9, 36, 100
1, 41280, Note_on_c, 3, 58, 100
1, 41280, Note_on_c, 7, 66, 100
1, 41280, Note_on_c, 9, 42, 50
1, 41280, Note_on_c, 7, 58, 100
1, 41280, Note_on_c, 7, 61, 100
1, 41308, Note_on_c, 9, 42, 0
1, 41310, Note_on_c, 9, 42, 50
1, 41310, Note_on_c, 9, 38, 100
1, 41320, Note_on_c, 9, 36, 0
1, 41330, Note_on_c, 9, 38, 0
1, 41338, Note_on_c, 9, 42, 0
1, 41340, Note_on_c, 7, 58, 0
1, 41340, Note_on_c, 7, 66, 0
1, 41340, Note_on_c, 7, 61, 0
1, 41340, Note_on_c, 4, 42, 0
1, 41340, Note_on_c, 0, 75, 100
1, 41340, Note_on_c, 9, 42, 50
1, 41368, Note_on_c, 9, 42, 0
1, 41370, Note_on_c, 7, 61, 100
1, 41370, Note_on_c, 4, 46, 100
1, 41370, Note_on_c, 9, 36, 100
1, 41370, Note_on_c, 9, 42, 50
1, 41370, Note_on_c, 7, 66, 100
1, 41370, Note_on_c, 7, 58, 100
1, 41398, Note_on_c, 9, 42, 0
1, 41400, Note_on_c, 0, 75, 0
1, 41400, Note_on_c, 9, 42, 50
1, 41400, Note_on_c, 9, 38, 110
1, 41410, Note_on_c, 9, 36, 0
1, 41410, Note_on_c, 4, 46, 0
1, 41428, Note_on_c, 9, 42, 0
1, 41430, Note_on_c, 7, 61, 0
1, 41430, Note_on_c, 7, 66, 0
1, 41430, Note_on_c, 7, 58, 0
1, 41430, Note_on_c, 0, 73, 100
1, 41430, Note_on_c, 9, 42, 50
1, 41430, Note_on_c, 4, 47, 100
1, 41450, Note_on_c, 4, 47, 0
1, 41458, Note_on_c, 3, 61, 0
1, 41458, Note_on_c, 3, 58, 0
1, 41458, Note_on_c, 3, 66, 0
1, 41458, Note_on_c, 9, 42, 0
1, 41460, Note_on_c, 9, 36, 100
1, 41460, Note_on_c, 9, 42, 50
1, 41460, Note_on_c, 7, 61, 100
1, 41460, Note_on_c, 7, 65, 100
1, 41460, Note_on_c, 3, 65, 100
1, 41460, Note_on_c, 7, 56, 100
1, 41460, Note_on_c, 4, 49, 100
1, 41460, Note_on_c, 3, 56, 100
1, 41460, Note_on_c, 3, 61, 100
1, 41480, Note_on_c, 9, 38, 0
1, 41488, Note_on_c, 9, 42, 0
1, 41490, Note_on_c, 0, 73, 0
1, 41490, Note_on_c, 9, 42, 50
1, 41500, Note_on_c, 9, 36, 0
1, 41518, Note_on_c, 9, 42, 0
1, 41520, Note_on_c, 4, 49, 0
1, 41520, Note_on_c, 9, 42, 50
1, 41520, Note_on_c, 0, 73, 100
1, 41548, Note_on_c, 9, 42, 0
1, 41550, Note_on_c, 9, 42, 50
1, 41550, Note_on_c, 4, 37, 100
1, 41570, Note_on_c, 4, 37, 0
1, 41578, Note_on_c, 9, 42, 0
1, 41580, Note_on_c, 9, 42, 50
1, 41580, Note_on_c, 4, 37, 100
1, 41580, Note_on_c, 9, 36, 100
1, 41600, Note_on_c, 0, 73, 0
1, 41608, Note_on_c, 9, 42, 0
1, 41610, Note_on_c, 9, 42, 50
1, 41620, Note_on_c, 4, 37, 0
1, 41620, Note_on_c, 9, 36, 0
1, 41638, Note_on_c, 9, 42, 0
1, 41640, Note_on_c, 9, 38, 110
1, 41640, Note_on_c, 9, 42, 50
1, 41640, Note_on_c, 4, 37, 100
1, 41668, Note_on_c, 9, 42, 0
1, 41670, Note_on_c, 9, 42, 50
1, 41698, Note_on_c, 9, 42, 0
1, 41700, Note_on_c, 7, 65, 0
1, 41700, Note_on_c, 7, 61, 0
1, 41700, Note_on_c, 7, 56, 0
1, 41700, Note_on_c, 9, 42, 50
1, 41700, Note_on_c, 9, 38, 100
1, 41700, Note_on_c, 0, 71, 100
1, 41700, Note_on_c, 9, 36, 100
1, 41720, Note_on_c, 9, 36, 0
1, 41720, Note_on_c, 9, 38, 0
1, 41720, Note_on_c, 4, 37, 0
1, 41728, Note_on_c, 9, 42, 0
1, 41730, Note_on_c, 9, 36, 100
1, 41730, Note_on_c, 9, 42, 50
1, 41740, Note_on_c, 0, 71, 0
1, 41740, Note_on_c, 9, 38, 0
1, 41747, Note_on_c, 3, 56, 0
1, 41747, Note_on_c, 3, 65, 0
1, 41747, Note_on_c, 3, 61, 0
1, 41750, Note_on_c, 9, 36, 0
1, 41758, Note_on_c, 9, 42, 0
1, 41760, Note_on_c, 3, 65, 100
1, 41760, Note_on_c, 0, 73, 100
1, 41760, Note_on_c, 3, 56, 100
1, 41760, Note_on_c, 7, 65, 100
1, 41760, Note_on_c, 9, 36, 100
1, 41760, Note_on_c, 9, 42, 50
1, 41760, Note_on_c, 7, 56, 100
1, 41760, Note_on_c, 4, 49, 100
1, 41788, Note_on_c, 9, 42, 0
1, 41790, Note_on_c, 9, 42, 50
1, 41800, Note_on_c, 9, 36, 0
1, 41818, Note_on_c, 9, 42, 0
1, 41820, Note_on_c, 0, 73, 0
1, 41820, Note_on_c, 9, 42, 50
1, 41840, Note_on_c, 4, 49, 0
1, 41848, Note_on_c, 9, 42, 0
1, 41850, Note_on_c, 9, 36, 100
1, 41850, Note_on_c, 9, 42, 50
1, 41850, Note_on_c, 0, 73, 100
1, 41870, Note_on_c, 0, 73, 0
1, 41878, Note_on_c, 7, 65, 0
1, 41878, Note_on_c, 3, 65, 0
1, 41878, Note_on_c, 3, 56, 0
1, 41878, Note_on_c, 7, 56, 0
1, 41878, Note_on_c, 9, 42, 0
1, 41880, Note_on_c, 0, 73, 100
1, 41880, Note_on_c, 7, 56, 100
1, 41880, Note_on_c, 4, 47, 100
1, 41880, Note_on_c, 3, 63, 100
1, 41880, Note_on_c, 9, 38, 110
1, 41880, Note_on_c, 7, 63, 100
1, 41880, Note_on_c, 9, 42, 50
1, 41880, Note_on_c, 3, 56, 100
1, 41890, Note_on_c, 9, 36, 0
1, 41900, Note_on_c, 0, 73, 0
1, 41908, Note_on_c, 9, 42, 0
1, 41910, Note_on_c, 0, 75, 100
1, 41910, Note_on_c, 9, 42, 50
1, 41930, Note_on_c, 0, 75, 0
1, 41938, Note_on_c, 9, 42, 0
1, 41940, Note_on_c, 9, 42, 50
1, 41940, Note_on_c, 9, 36, 100
1, 41940, Note_on_c, 0, 77, 100
1, 41960, Note_on_c, 9, 38, 0
1, 41960, Note_on_c, 4, 47, 0
1, 41968, Note_on_c, 9, 42, 0
1, 41970, Note_on_c, 9, 42, 50
1, 41980, Note_on_c, 0, 77, 0
1, 41980, Note_on_c, 9, 36, 0
1, 41998, Note_on_c, 7, 56, 0
1, 41998, Note_on_c, 3, 63, 0
1, 41998, Note_on_c, 3, 56, 0
1, 41998, Note_on_c, 9, 42, 0
1, 41998, Note_on_c, 7, 63, 0
1, 42000, Note_on_c, 7, 61, 100
1, 42000, Note_on_c, 3, 56, 100
1, 42000, Note_on_c, 4, 46, 100
1, 42000, Note_on_c, 7, 56, 100
1, 42000, Note_on_c, 9, 42, 50
1, 42000, Note_on_c, 0, 75, 100
1, 42000, Note_on_c, 3, 61, 100
1, 42028, Note_on_c, 9, 42, 0
1, 42030, Note_on_c, 9, 42, 50
1, 42058, Note_on_c, 9, 42, 0
1, 42060, Note_on_c, 9, 36, 100
1, 42060, Note_on_c, 9, 42, 50
1, 42080, Note_on_c, 0, 75, 0
1, 42080, Note_on_c, 4, 46, 0
1, 42088, Note_on_c, 9, 42, 0
1, 42090, Note_on_c, 9, 42, 50
1, 42100, Note_on_c, 9, 36, 0
1, 42118, Note_on_c, 3, 56, 0
1, 42118, Note_on_c, 7, 56, 0
1, 42118, Note_on_c, 3, 61, 0
1, 42118, Note_on_c, 9, 42, 0
1, 42118, Note_on_c, 7, 61, 0
1, 42120, Note_on_c, 3, 56, 100
1, 42120, Note_on_c, 4, 44, 100
1, 42120, Note_on_c, 3, 61, 100
1, 42120, Note_on_c, 9, 38, 110
1, 42120, Note_on_c, 7, 61, 100
1, 42120, Note_on_c, 7, 56, 100
1, 42120, Note_on_c, 7, 53, 100
1, 42120, Note_on_c, 0, 73, 100
1, 42120, Note_on_c, 9, 42, 50
1, 42120, Note_on_c, 3, 53, 100
1, 42148, Note_on_c, 9, 42, 0
1, 42150, Note_on_c, 9, 42, 50
1, 42160, Note_on_c, 0, 73, 0
1, 42178, Note_on_c, 9, 42, 0
1, 42180, Note_on_c, 9, 36, 100
1, 42180, Note_on_c, 0, 77, 100
1, 42180, Note_on_c, 9, 42, 50
1, 42200, Note_on_c, 9, 36, 0
1, 42200, Note_on_c, 4, 44, 0
1, 42200, Note_on_c, 9, 38, 0
1, 42208, Note_on_c, 9, 42, 0
1, 42210, Note_on_c, 9, 36, 100
1, 42210, Note_on_c, 9, 42, 50
1, 42230, Note_on_c, 9, 36, 0
1, 42238, Note_on_c, 3, 53, 0
1, 42238, Note_on_c, 7, 61, 0
1, 42238, Note_on_c, 7, 56, 0
1, 42238, Note_on_c, 3, 61, 0
1, 42238, Note_on_c, 9, 42, 0
1, 42238, Note_on_c, 3, 56, 0
1, 42238, Note_on_c, 7, 53, 0
1, 42240, Note_on_c, 9, 42, 50
1, 42240, Note_on_c, 9, 36, 100
1, 42240, Note_on_c, 7, 58, 100
1, 42240, Note_on_c, 7, 54, 100
1, 42240, Note_on_c, 3, 66, 100
1, 42240, Note_on_c, 3, 61, 100
1, 42240, Note_on_c, 3, 58, 100
1, 42240, Note_on_c, 4, 42, 100
1, 42260, Note_on_c, 4, 42, 0
1, 42268, Note_on_c, 9, 42, 0
1, 42270, Note_on_c, 4, 44, 100
1, 42270, Note_on_c, 9, 42, 50
1, 42270, Note_on_c, 9, 38, 100
1, 42280, Note_on_c, 9, 36, 0
1, 42290, Note_on_c, 4, 44, 0
1, 42298, Note_on_c, 9, 42, 0
1, 42300, Note_on_c, 7, 54, 0
1, 42300, Note_on_c, 7, 58, 0
1, 42300, Note_on_c, 9, 42, 50
1, 42300, Note_on_c, 4, 46, 100
1, 42310, Note_on_c, 9, 38, 0
1, 42328, Note_on_c, 9, 42, 0
1, 42330, Note_on_c, 9, 36, 100
1, 42330, Note_on_c, 9, 42, 50
1, 42330, Note_on_c, 7, 61, 100
1, 42340, Note_on_c, 0, 77, 0
1, 42340, Note_on_c, 4, 46, 0
1, 42358, Note_on_c, 9, 42, 0
1, 42360, Note_on_c, 9, 42, 50
1, 42360, Note_on_c, 9, 38, 110
1, 42360, Note_on_c, 4, 49, 100
1, 42370, Note_on_c, 9, 36, 0
1, 42380, Note_on_c, 4, 49, 0
1, 42388, Note_on_c, 9, 42, 0
1, 42390, Note_on_c, 7, 61, 0
1, 42390, Note_on_c, 4, 51, 100
1, 42390, Note_on_c, 9, 42, 50
1, 42410, Note_on_c, 4, 51, 0
1, 42418, Note_on_c, 3, 61, 0
1, 42418, Note_on_c, 3, 58, 0
1, 42418, Note_on_c, 3, 66, 0
1, 42418, Note_on_c, 9, 42, 0
1, 42420, Note_on_c, 9, 42, 50
1, 42420, Note_on_c, 3, 65, 100
1, 42420, Note_on_c, 9, 36, 100
1, 42420, Note_on_c, 3, 56, 100
1, 42420, Note_on_c, 7, 61, 100
1, 42420, Note_on_c, 4, 49, 100
1, 42420, Note_on_c, 7, 65, 100
1, 42420, Note_on_c, 3, 61, 100
1, 42420, Note_on_c, 7, 56, 100
1, 42440, Note_on_c, 9, 38, 0
1, 42448, Note_on_c, 9, 42, 0
1, 42450, Note_on_c, 9, 42, 50
1, 42460, Note_on_c, 9, 36, 0
1, 42478, Note_on_c, 9, 42, 0
1, 42480, Note_on_c, 4, 49, 0
1, 42480, Note_on_c, 9, 42, 50
1, 42508, Note_on_c, 9, 42, 0
1, 42510, Note_on_c, 4, 37, 100
1, 42510, Note_on_c, 9, 42, 50
1, 42530, Note_on_c, 4, 37, 0
1, 42538, Note_on_c, 9, 42, 0
1, 42540, Note_on_c, 9, 47, 100
1, 42540, Note_on_c, 9, 42, 50
1, 42540, Note_on_c, 9, 36, 100
1, 42540, Note_on_c, 4, 37, 100
1, 42560, Note_on_c, 9, 47, 0
1, 42568, Note_on_c, 9, 42, 0
1, 42570, Note_on_c, 9, 47, 100
1, 42570, Note_on_c, 9, 42, 50
1, 42580, Note_on_c, 9, 36, 0
1, 42580, Note_on_c, 4, 37, 0
1, 42590, Note_on_c, 9, 47, 0
1, 42598, Note_on_c, 9, 42, 0
1, 42600, Note_on_c, 4, 37, 100
1, 42600, Note_on_c, 9, 45, 100
1, 42600, Note_on_c, 9, 42, 50
1, 42600, Note_on_c, 9, 38, 110
1, 42620, Note_on_c, 9, 45, 0
1, 42628, Note_on_c, 9, 42, 0
1, 42630, Note_on_c, 9, 45, 100
1, 42630, Note_on_c, 9, 42, 50
1, 42650, Note_on_c, 9, 45, 0
1, 42658, Note_on_c, 9, 42, 0
1, 42660, Note_on_c, 7, 56, 0
1, 42660, Note_on_c, 7, 61, 0
1, 42660, Note_on_c, 7, 65, 0
1, 42660, Note_on_c, 9, 36, 100
1, 42660, Note_on_c, 9, 42, 50
1, 42660, Note_on_c, 9, 43, 100
1, 42680, Note_on_c, 9, 43, 0
1, 42680, Note_on_c, 9, 36, 0
1, 42680, Note_on_c, 9, 38, 0
1, 42680, Note_on_c, 4, 37, 0
1, 42688, Note_on_c, 9, 42, 0
1, 42690, Note_on_c, 9, 36, 100
1, 42690, Note_on_c, 9, 42, 50
1, 42690, Note_on_c, 9, 43, 100
1, 42707, Note_on_c, 3, 65, 0
1, 42707, Note_on_c, 3, 61, 0
1, 42707, Note_on_c, 3, 56, 0
1, 42710, Note_on_c, 9, 36, 0
1, 42710, Note_on_c, 9, 43, 0
1, 42718, Note_on_c, 9, 42, 0
1, 42720, Note_on_c, 3, 63, 100
1, 42720, Note_on_c, 9, 36, 100
1, 42720, Note_on_c, 1, 63, 100
1, 42720, Note_on_c, 4, 39, 100
1, 42720, Note_on_c, 9, 51, 100
1, 42720, Note_on_c, 3, 65, 100
1, 42720, Control_c, 1, 67, 76
1, 42760, Note_on_c, 9, 51, 0
1, 42760, Note_on_c, 9, 36, 0
1, 42765, Note_on_c, 1, 63, 0
1, 42780, Note_on_c, 4, 39, 0
1, 42780, Note_on_c, 9, 51, 100
1, 42780, Note_on_c, 1, 66, 100
1, 42810, Note_on_c, 4, 39, 100
1, 42820, Note_on_c, 9, 51, 0
1, 42825, Note_on_c, 1, 66, 0
1, 42840, Note_on_c, 1, 70, 100
1, 42840, Note_on_c, 9, 38, 110
1, 42840, Note_on_c, 9, 51, 100
1, 42870, Note_on_c, 4, 39, 0
1, 42880, Note_on_c, 9, 51, 0
1, 42885, Note_on_c, 1, 70, 0
1, 42898, Note_on_c, 3, 63, 0
1, 42898, Note_on_c, 3, 65, 0
1, 42900, Note_on_c, 9, 36, 100
1, 42900, Note_on_c, 3, 68, 100
1, 42900, Note_on_c, 4, 42, 100
1, 42900, Note_on_c, 3, 61, 100
1, 42900, Note_on_c, 3, 58, 100
1, 42900, Note_on_c, 9, 51, 100
1, 42900, Note_on_c, 1, 68, 100
1, 42920, Note_on_c, 9, 38, 0
1, 42940, Note_on_c, 9, 36, 0
1, 42940, Note_on_c, 9, 51, 0
1, 42960, Note_on_c, 4, 42, 0
1, 42960, Note_on_c, 9, 51, 100
1, 42990, Note_on_c, 1, 68, 0
1, 42990, Note_on_c, 4, 42, 100
1, 43000, Note_on_c, 9, 51, 0
1, 43010, Note_on_c, 4, 42, 0
1, 43020, Note_on_c, 4, 42, 100
1, 43020, Note_on_c, 1, 65, 100
1, 43020, Note_on_c, 9, 36, 100
1, 43020, Note_on_c, 9, 51, 100
1, 43060, Note_on_c, 9, 51, 0
1, 43060, Note_on_c, 9, 36, 0
1, 43065, Note_on_c, 1, 65, 0
1, 43080, Note_on_c, 9, 38, 110
1, 43080, Note_on_c, 9, 51, 100
1, 43080, Note_on_c, 1, 61, 100
1, 43100, Note_on_c, 4, 42, 0
1, 43120, Note_on_c, 9, 51, 0
1, 43125, Note_on_c, 1, 61, 0
1, 43138, Note_on_c, 3, 68, 0
1, 43138, Note_on_c, 3, 61, 0
1, 43138, Note_on_c, 3, 58, 0
1, 43140, Note_on_c, 3, 59, 100
1, 43140, Note_on_c, 9, 36, 100
1, 43140, Note_on_c, 4, 42, 100
1, 43140, Note_on_c, 1, 59, 100
1, 43140, Note_on_c, 3, 56, 100
1, 43140, Note_on_c, 9, 51, 100
1, 43160, Note_on_c, 9, 36, 0
1, 43160, Note_on_c, 9, 38, 0
1, 43180, Note_on_c, 4, 42, 0
1, 43180, Note_on_c, 9, 51, 0
1, 43200, Note_on_c, 9, 51, 100
1, 43200, Note_on_c, 4, 44, 100
1, 43240, Note_on_c, 9, 51, 0
1, 43260, Note_on_c, 4, 44, 0
1, 43260, Note_on_c, 9, 36, 100
1, 43260, Note_on_c, 1, 63, 100
1, 43260, Note_on_c, 9, 51, 100
1, 43275, Note_on_c, 1, 59, 0
1, 43290, Note_on_c, 4, 44, 100
1, 43300, Note_on_c, 9, 36, 0
1, 43300, Note_on_c, 9, 51, 0
1, 43305, Note_on_c, 1, 63, 0
1, 43320, Note_on_c, 9, 51, 100
1, 43320, Note_on_c, 9, 38, 110
1, 43320, Note_on_c, 1, 66, 100
1, 43350, Note_on_c, 4, 44, 0
1, 43360, Note_on_c, 9, 51, 0
1, 43365, Note_on_c, 1, 66, 0
1, 43378, Note_on_c, 3, 56, 0
1, 43378, Note_on_c, 3, 59, 0
1, 43380, Note_on_c, 9, 36, 100
1, 43380, Note_on_c, 9, 51, 100
1, 43380, Note_on_c, 3, 68, 100
1, 43380, Note_on_c, 1, 68, 100
1, 43380, Note_on_c, 3, 61, 100
1, 43380, Note_on_c, 4, 49, 100
1, 43400, Note_on_c, 9, 38, 0
1, 43420, Note_on_c, 9, 36, 0
1, 43420, Note_on_c, 9, 51, 0
1, 43425, Note_on_c, 1, 68, 0
1, 43440, Note_on_c, 4, 49, 0
1, 43440, Note_on_c, 9, 36, 100
1, 43440, Note_on_c, 9, 51, 100
1, 43440, Note_on_c, 1, 65, 100
1, 43470, Note_on_c, 4, 49, 100
1, 43480, Note_on_c, 9, 51, 0
1, 43480, Note_on_c, 9, 36, 0
1, 43485, Note_on_c, 1, 65, 0
1, 43490, Note_on_c, 4, 49, 0
1, 43500, Note_on_c, 4, 49, 100
1, 43500, Note_on_c, 9, 51, 100
1, 43500, Note_on_c, 1, 61, 100
1, 43540, Note_on_c, 9, 51, 0
1, 43545, Note_on_c, 1, 61, 0
1, 43560, Note_on_c, 1, 56, 100
1, 43560, Note_on_c, 9, 51, 100
1, 43560, Note_on_c, 9, 38, 110
1, 43580, Note_on_c, 4, 49, 0
1, 43600, Note_on_c, 9, 51, 0
1, 43620, Note_on_c, 4, 49, 100
1, 43620, Note_on_c, 9, 51, 100
1, 43640, Note_on_c, 4, 49, 0
1, 43640, Note_on_c, 9, 38, 0
1, 43650, Note_on_c, 1, 56, 0
1, 43650, Note_on_c, 4, 51, 100
1, 43660, Note_on_c, 9, 51, 0
1, 43667, Note_on_c, 3, 68, 0
1, 43667, Note_on_c, 3, 61, 0
1, 43670, Note_on_c, 4, 51, 0
1, 43680, Note_on_c, 3, 65, 100
1, 43680, Note_on_c, 3, 63, 100
1, 43680, Note_on_c, 9, 36, 100
1, 43680, Note_on_c, 4, 39, 100
1, 43680, Note_on_c, 1, 63, 100
1, 43680, Note_on_c, 9, 51, 100
1, 43720, Note_on_c, 9, 51, 0
1, 43720, Note_on_c, 9, 36, 0
1, 43725, Note_on_c, 1, 63, 0
1, 43740, Note_on_c, 4, 39, 0
1, 43740, Note_on_c, 1, 66, 100
1, 43740, Note_on_c, 9, 51, 100
1, 43770, Note_on_c, 4, 39, 100
1, 43780, Note_on_c, 9, 51, 0
1, 43785, Note_on_c, 1, 66, 0
1, 43800, Note_on_c, 9, 38, 110
1, 43800, Note_on_c, 9, 51, 100
1, 43800, Note_on_c, 1, 70, 100
1, 43830, Note_on_c, 4, 39, 0
1, 43840, Note_on_c, 9, 51, 0
1, 43845, Note_on_c, 1, 70, 0
1, 43858, Note_on_c, 3, 63, 0
1, 43858, Note_on_c, 3, 65, 0
1, 43860, Note_on_c, 4, 42, 100
1, 43860, Note_on_c, 3, 61, 100
1, 43860, Note_on_c, 1, 68, 100
1, 43860, Note_on_c, 9, 36, 100
1, 43860, Note_on_c, 3, 68, 100
1, 43860, Note_on_c, 3, 58, 100
1, 43860, Note_on_c, 9, 51, 100
1, 43880, Note_on_c, 9, 38, 0
1, 43900, Note_on_c, 9, 51, 0
1, 43900, Note_on_c, 9, 36, 0
1, 43920, Note_on_c, 4, 42, 0
1, 43920, Note_on_c, 9, 51, 100
1, 43950, Note_on_c, 1, 68, 0
1, 43950, Note_on_c, 4, 42, 100
1, 43960, Note_on_c, 9, 51, 0
1, 43970, Note_on_c, 4, 42, 0
1, 43980, Note_on_c, 9, 36, 100
1, 43980, Note_on_c, 1, 65, 100
1, 43980, Note_on_c, 4, 42, 100
1, 43980, Note_on_c, 9, 51, 100
1, 44020, Note_on_c, 9, 51, 0
1, 44020, Note_on_c, 9, 36, 0
1, 44025, Note_on_c, 1, 65, 0
1, 44040, Note_on_c, 9, 51, 100
1, 44040, Note_on_c, 9, 38, 110
1, 44040, Note_on_c, 1, 61, 100
1, 44060, Note_on_c, 4, 42, 0
1, 44080, Note_on_c, 9, 51, 0
1, 44085, Note_on_c, 1, 61, 0
1, 44098, Note_on_c, 3, 58, 0
1, 44098, Note_on_c, 3, 68, 0
1, 44098, Note_on_c, 3, 61, 0
1, 44100, Note_on_c, 3, 59, 100
1, 44100, Note_on_c, 9, 51, 100
1, 44100, Note_on_c, 3, 71, 100
1, 44100, Note_on_c, 9, 36, 100
1, 44100, Note_on_c, 3, 63, 100
1, 44100, Note_on_c, 4, 44, 100
1, 44100, Note_on_c, 3, 66, 100
1, 44100, Note_on_c, 1, 71, 100
1, 44120, Note_on_c, 9, 36, 0
1, 44120, Note_on_c, 9, 38, 0
1, 44140, Note_on_c, 9, 51, 0
1, 44160, Note_on_c, 9, 51, 100
1, 44190, Note_on_c, 1, 71, 0
1, 44200, Note_on_c, 9, 51, 0
1, 44218, Note_on_c, 3, 63, 0
1, 44218, Note_on_c, 3, 71, 0
1, 44218, Note_on_c, 3, 66, 0
1, 44218, Note_on_c, 3, 59, 0
1, 44220, Note_on_c, 4, 44, 0
1, 44220, Note_on_c, 3, 70, 100
1, 44220, Note_on_c, 1, 70, 100
1, 44220, Note_on_c, 3, 66, 100
1, 44220, Note_on_c, 9, 36, 100
1, 44220, Note_on_c, 4, 47, 100
1, 44220, Note_on_c, 3, 61, 100
1, 44220, Note_on_c, 9, 51, 100
1, 44260, Note_on_c, 9, 51, 0
1, 44260, Note_on_c, 9, 36, 0
1, 44280, Note_on_c, 9, 51, 100
1, 44280, Note_on_c, 9, 38, 110
1, 44300, Note_on_c, 4, 47, 0
1, 44310, Note_on_c, 1, 70, 0
1, 44320, Note_on_c, 9, 51, 0
1, 44338, Note_on_c, 3, 66, 0
1, 44338, Note_on_c, 3, 70, 0
1, 44338, Note_on_c, 3, 61, 0
1, 44340, Note_on_c, 4, 49, 100
1, 44340, Note_on_c, 3, 61, 100
1, 44340, Note_on_c, 3, 68, 100
1, 44340, Note_on_c, 1, 68, 100
1, 44340, Note_on_c, 9, 51, 100
1, 44340, Note_on_c, 9, 36, 100
1, 44340, Note_on_c, 3, 65, 100
1, 44360, Note_on_c, 9, 38, 0
1, 44380, Note_on_c, 4, 49, 0
1, 44380, Note_on_c, 9, 51, 0
1, 44380, Note_on_c, 9, 36, 0
1, 44385, Note_on_c, 1, 68, 0
1, 44400, Note_on_c, 9, 36, 100
1, 44400, Note_on_c, 1, 68, 100
1, 44400, Note_on_c, 9, 51, 100
1, 44400, Note_on_c, 4, 49, 100
1, 44440, Note_on_c, 4, 49, 0
1, 44440, Note_on_c, 9, 36, 0
1, 44440, Note_on_c, 9, 51, 0
1, 44460, Note_on_c, 9, 51, 100
1, 44460, Note_on_c, 4, 49, 100
1, 44480, Note_on_c, 4, 49, 0
1, 44490, Note_on_c, 4, 49, 100
1, 44500, Note_on_c, 9, 51, 0
1, 44510, Note_on_c, 4, 49, 0
1, 44520, Note_on_c, 9, 51, 100
1, 44520, Note_on_c, 9, 38, 110
1, 44520, Note_on_c, 4, 49, 100
1, 44540, Note_on_c, 4, 49, 0
1, 44550, Note_on_c, 4, 37, 100
1, 44560, Note_on_c, 9, 51, 0
1, 44570, Note_on_c, 4, 37, 0
1, 44580, Note_on_c, 9, 45, 100
1, 44580, Note_on_c, 9, 51, 100
1, 44580, Note_on_c, 4, 37, 100
1, 44600, Note_on_c, 9, 45, 0
1, 44600, Note_on_c, 1, 68, 0
1, 44600, Note_on_c, 9, 38, 0
1, 44610, Note_on_c, 9, 47, 100
1, 44620, Note_on_c, 4, 37, 0
1, 44620, Note_on_c, 9, 51, 0
1, 44627, Note_on_c, 3, 65, 0
1, 44627, Note_on_c, 3, 61, 0
1, 44627, Note_on_c, 3, 68, 0
1, 44630, Note_on_c, 9, 47, 0
1, 44640, Note_on_c, 0, 63, 100
1, 44640, Control_c, 1, 67, 76
1, 44640, Note_on_c, 3, 63, 100
1, 44640, Note_on_c, 1, 63, 100
1, 44640, Note_on_c, 4, 47, 100
1, 44640, Note_on_c, 9, 51, 100
1, 44640, Control_c, 0, 67, 76
1, 44640, Note_on_c, 3, 65, 100
1, 44640, Note_on_c, 9, 36, 100
1, 44680, Note_on_c, 9, 36, 0
1, 44680, Note_on_c, 9, 51, 0
1, 44685, Note_on_c, 1, 63, 0
1, 44685, Note_on_c, 0, 63, 0
1, 44700, Note_on_c, 4, 47, 0
1, 44700, Note_on_c, 1, 66, 100
1, 44700, Note_on_c, 9, 51, 100
1, 44700, Note_on_c, 0, 66, 100
1, 44730, Note_on_c, 4, 47, 100
1, 44740, Note_on_c, 9, 51, 0
1, 44745, Note_on_c, 0, 66, 0
1, 44745, Note_on_c, 1, 66, 0
1, 44760, Note_on_c, 9, 51, 100
1, 44760, Note_on_c, 1, 70, 100
1, 44760, Note_on_c, 9, 38, 110
1, 44760, Note_on_c, 0, 70, 100
1, 44790, Note_on_c, 4, 47, 0
1, 44800, Note_on_c, 9, 51, 0
1, 44805, Note_on_c, 1, 70, 0
1, 44805, Note_on_c, 0, 70, 0
1, 44818, Note_on_c, 3, 65, 0
1, 44818, Note_on_c, 3, 63, 0
1, 44820, Note_on_c, 1, 68, 100
1, 44820, Note_on_c, 0, 68, 100
1, 44820, Note_on_c, 3, 68, 100
1, 44820, Note_on_c, 3, 61, 100
1, 44820, Note_on_c, 3, 58, 100
1, 44820, Note_on_c, 9, 51, 100
1, 44820, Note_on_c, 9, 36, 100
1, 44820, Note_on_c, 4, 47, 100
1, 44840, Note_on_c, 9, 38, 0
1, 44860, Note_on_c, 9, 36, 0
1, 44860, Note_on_c, 9, 51, 0
1, 44880, Note_on_c, 4, 47, 0
1, 44880, Note_on_c, 9, 51, 100
1, 44910, Note_on_c, 1, 68, 0
1, 44910, Note_on_c, 0, 68, 0
1, 44910, Note_on_c, 4, 47, 100
1, 44920, Note_on_c, 9, 51, 0
1, 44930, Note_on_c, 4, 47, 0
1, 44940, Note_on_c, 9, 51, 100
1, 44940, Note_on_c, 1, 65, 100
1, 44940, Note_on_c, 9, 36, 100
1, 44940, Note_on_c, 0, 65, 100
1, 44940, Note_on_c, 4, 47, 100
1, 44980, Note_on_c, 9, 36, 0
1, 44980, Note_on_c, 9, 51, 0
1, 44985, Note_on_c, 1, 65, 0
1, 44985, Note_on_c, 0, 65, 0
1, 45000, Note_on_c, 1, 61, 100
1, 45000, Note_on_c, 9, 51, 100
1, 45000, Note_on_c, 0, 61, 100
1, 45000, Note_on_c, 9, 38, 110
1, 45020, Note_on_c, 4, 47, 0
1, 45040, Note_on_c, 9, 51, 0
1, 45045, Note_on_c, 1, 61, 0
1, 45045, Note_on_c, 0, 61, 0
1, 45058, Note_on_c, 3, 68, 0
1, 45058, Note_on_c, 3, 58, 0
1, 45058, Note_on_c, 3, 61, 0
1, 45060, Note_on_c, 9, 36, 100
1, 45060, Note_on_c, 0, 59, 100
1, 45060, Note_on_c, 3, 59, 100
1, 45060, Note_on_c, 4, 47, 100
1, 45060, Note_on_c, 1, 59, 100
1, 45060, Note_on_c, 9, 51, 100
1, 45060, Note_on_c, 3, 56, 100
1, 45080, Note_on_c, 9, 36, 0
1, 45080, Note_on_c, 9, 38, 0
1, 45100, Note_on_c, 4, 47, 0
1, 45100, Note_on_c, 9, 51, 0
1, 45120, Note_on_c, 9, 51, 100
1, 45120, Note_on_c, 4, 42, 100
1, 45160, Note_on_c, 9, 51, 0
1, 45180, Note_on_c, 4, 42, 0
1, 45180, Note_on_c, 9, 51, 100
1, 45180, Note_on_c, 1, 63, 100
1, 45180, Note_on_c, 0, 63, 100
1, 45180, Note_on_c, 9, 36, 100
1, 45195, Note_on_c, 1, 59, 0
1, 45195, Note_on_c, 0, 59, 0
1, 45210, Note_on_c, 4, 46, 100
1, 45220, Note_on_c, 9, 36, 0
1, 45220, Note_on_c, 9, 51, 0
1, 45225, Note_on_c, 0, 63, 0
1, 45225, Note_on_c, 1, 63, 0
1, 45240, Note_on_c, 9, 38, 110
1, 45240, Note_on_c, 1, 66, 100
1, 45240, Note_on_c, 9, 51, 100
1, 45240, Note_on_c, 0, 66, 100
1, 45270, Note_on_c, 4, 46, 0
1, 45280, Note_on_c, 9, 51, 0
1, 45285, Note_on_c, 1, 66, 0
1, 45285, Note_on_c, 0, 66, 0
1, 45298, Note_on_c, 3, 59, 0
1, 45298, Note_on_c, 3, 56, 0
1, 45300, Note_on_c, 4, 49, 100
1, 45300, Note_on_c, 3, 68, 100
1, 45300, Note_on_c, 3, 61, 100
1, 45300, Note_on_c, 9, 36, 100
1, 45300, Note_on_c, 1, 68, 100
1, 45300, Note_on_c, 9, 51, 100
1, 45300, Note_on_c, 0, 68, 100
1, 45320, Note_on_c, 9, 38, 0
1, 45340, Note_on_c, 9, 36, 0
1, 45340, Note_on_c, 9, 51, 0
1, 45345, Note_on_c, 0, 68, 0
1, 45345, Note_on_c, 1, 68, 0
1, 45360, Note_on_c, 4, 49, 0
1, 45360, Note_on_c, 1, 65, 100
1, 45360, Note_on_c, 9, 36, 100
1, 45360, Note_on_c, 0, 65, 100
1, 45360, Note_on_c, 9, 51, 100
1, 45390, Note_on_c, 4, 49, 100
1, 45400, Note_on_c, 9, 51, 0
1, 45400, Note_on_c, 9, 36, 0
1, 45405, Note_on_c, 0, 65, 0
1, 45405, Note_on_c, 1, 65, 0
1, 45410, Note_on_c, 4, 49, 0
1, 45420, Note_on_c, 0, 61, 100
1, 45420, Note_on_c, 4, 49, 100
1, 45420, Note_on_c, 9, 51, 100
1, 45420, Note_on_c, 1, 61, 100
1, 45460, Note_on_c, 9, 51, 0
1, 45465, Note_on_c, 0, 61, 0
1, 45465, Note_on_c, 1, 61, 0
1, 45480, Note_on_c, 9, 38, 110
1, 45480, Note_on_c, 1, 56, 100
1, 45480, Note_on_c, 9, 51, 100
1, 45500, Note_on_c, 4, 49, 0
1, 45520, Note_on_c, 9, 51, 0
1, 45540, Note_on_c, 9, 51, 100
1, 45540, Note_on_c, 4, 49, 100
1, 45560, Note_on_c, 4, 49, 0
1, 45560, Note_on_c, 9, 38, 0
1, 45570, Note_on_c, 1, 56, 0
1, 45570, Note_on_c, 4, 49, 100
1, 45580, Note_on_c, 9, 51, 0
1, 45587, Note_on_c, 3, 68, 0
1, 45587, Note_on_c, 3, 61, 0
1, 45590, Note_on_c, 4, 49, 0
1, 45600, Note_on_c, 1, 63, 100
1, 45600, Note_on_c, 3, 65, 100
1, 45600, Note_on_c, 0, 63, 100
1, 45600, Note_on_c, 9, 51, 100
1, 45600, Note_on_c, 9, 36, 100
1, 45600, Note_on_c, 4, 47, 100
1, 45600, Note_on_c, 3, 63, 100
1, 45640, Note_on_c, 9, 36, 0
1, 45640, Note_on_c, 9, 51, 0
1, 45645, Note_on_c, 0, 63, 0
1, 45645, Note_on_c, 1, 63, 0
1, 45660, Note_on_c, 4, 47, 0
1, 45660, Note_on_c, 0, 66, 100
1, 45660, Note_on_c, 1, 66, 100
1, 45660, Note_on_c, 9, 51, 100
1, 45690, Note_on_c, 4, 47, 100
1, 45700, Note_on_c, 9, 51, 0
1, 45705, Note_on_c, 1, 66, 0
1, 45705, Note_on_c, 0, 66, 0
1, 45720, Note_on_c, 0, 70, 100
1, 45720, Note_on_c, 9, 51, 100
1, 45720, Note_on_c, 1, 70, 100
1, 45720, Note_on_c, 9, 38, 110
1, 45750, Note_on_c, 4, 47, 0
1, 45760, Note_on_c, 9, 51, 0
1, 45765, Note_on_c, 0, 70, 0
1, 45765, Note_on_c, 1, 70, 0
1, 45778, Note_on_c, 3, 63, 0
1, 45778, Note_on_c, 3, 65, 0
1, 45780, Note_on_c, 9, 36, 100
1, 45780, Note_on_c, 4, 47, 100
1, 45780, Note_on_c, 9, 51, 100
1, 45780, Note_on_c, 0, 68, 100
1, 45780, Note_on_c, 1, 68, 100
1, 45780, Note_on_c, 3, 68, 100
1, 45780, Note_on_c, 3, 61, 100
1, 45780, Note_on_c, 3, 58, 100
1, 45800, Note_on_c, 9, 38, 0
1, 45820, Note_on_c, 9, 51, 0
1, 45820, Note_on_c, 9, 36, 0
1, 45840, Note_on_c, 4, 47, 0
1, 45840, Note_on_c, 9, 51, 100
1, 45870, Note_on_c, 0, 68, 0
1, 45870, Note_on_c, 1, 68, 0
1, 45870, Note_on_c, 4, 47, 100
1, 45880, Note_on_c, 9, 51, 0
1, 45890, Note_on_c, 4, 47, 0
1, 45900, Note_on_c, 0, 65, 100
1, 45900, Note_on_c, 9, 51, 100
1, 45900, Note_on_c, 1, 65, 100
1, 45900, Note_on_c, 4, 47, 100
1, 45900, Note_on_c, 9, 36, 100
1, 45940, Note_on_c, 9, 36, 0
1, 45940, Note_on_c, 9, 51, 0
1, 45945, Note_on_c, 0, 65, 0
1, 45945, Note_on_c, 1, 65, 0
1, 45960, Note_on_c, 1, 61, 100
1, 45960, Note_on_c, 9, 51, 100
1, 45960, Note_on_c, 0, 61, 100
1, 45960, Note_on_c, 9, 38, 110
1, 45980, Note_on_c, 4, 47, 0
1, 46000, Note_on_c, 9, 51, 0
1, 46005, Note_on_c, 1, 61, 0
1, 46005, Note_on_c, 0, 61, 0
1, 46018, Note_on_c, 3, 58, 0
1, 46018, Note_on_c, 3, 68, 0
1, 46018, Note_on_c, 3, 61, 0
1, 46020, Note_on_c, 4, 47, 100
1, 46020, Note_on_c, 3, 59, 100
1, 46020, Note_on_c, 3, 66, 100
1, 46020, Note_on_c, 1, 71, 100
1, 46020, Note_on_c, 0, 71, 100
1, 46020, Note_on_c, 9, 36, 100
1, 46020, Note_on_c, 3, 71, 100
1, 46020, Note_on_c, 9, 51, 100
1, 46020, Note_on_c, 3, 63, 100
1, 46040, Note_on_c, 9, 36, 0
1, 46040, Note_on_c, 9, 38, 0
1, 46060, Note_on_c, 9, 51, 0
1, 46080, Note_on_c, 9, 51, 100
1, 46110, Note_on_c, 1, 71, 0
1, 46110, Note_on_c, 0, 71, 0
1, 46120, Note_on_c, 9, 51, 0
1, 46138, Note_on_c, 3, 66, 0
1, 46138, Note_on_c, 3, 63, 0
1, 46138, Note_on_c, 3, 71, 0
1, 46138, Note_on_c, 3, 59, 0
1, 46140, Note_on_c, 4, 47, 0
1, 46140, Note_on_c, 0, 70, 100
1, 46140, Note_on_c, 3, 70, 100
1, 46140, Note_on_c, 3, 61, 100
1, 46140, Note_on_c, 9, 51, 100
1, 46140, Note_on_c, 1, 70, 100
1, 46140, Note_on_c, 9, 36, 100
1, 46140, Note_on_c, 3, 66, 100
1, 46140, Note_on_c, 4, 47, 100
1, 46180, Note_on_c, 9, 36, 0
1, 46180, Note_on_c, 9, 51, 0
1, 46200, Note_on_c, 9, 38, 110
1, 46200, Note_on_c, 9, 51, 100
1, 46220, Note_on_c, 4, 47, 0
1, 46230, Note_on_c, 1, 70, 0
1, 46230, Note_on_c, 0, 70, 0
1, 46240, Note_on_c, 9, 51, 0
1, 46258, Note_on_c, 3, 66, 0
1, 46258, Note_on_c, 3, 61, 0
1, 46258, Note_on_c, 3, 70, 0
1, 46260, Note_on_c, 9, 51, 100
1, 46260, Note_on_c, 9, 36, 100
1, 46260, Note_on_c, 4, 49, 100
1, 46260, Note_on_c, 0, 68, 100
1, 46260, Note_on_c, 3, 61, 100
1, 46260, Note_on_c, 1, 68, 100
1, 46260, Note_on_c, 3, 65, 100
1, 46260, Note_on_c, 3, 68, 100
1, 46280, Note_on_c, 9, 38, 0
1, 46300, Note_on_c, 4, 49, 0
1, 46300, Note_on_c, 9, 51, 0
1, 46300, Note_on_c, 9, 36, 0
1, 46305, Note_on_c, 0, 68, 0
1, 46305, Note_on_c, 1, 68, 0
1, 46320, Note_on_c, 0, 68, 100
1, 46320, Note_on_c, 9, 36, 100
1, 46320, Note_on_c, 9, 38, 100
1, 46320, Note_on_c, 1, 68, 100
1, 46320, Note_on_c, 9, 51, 100
1, 46320, Note_on_c, 4, 49, 100
1, 46340, Note_on_c, 9, 38, 0
1, 46350, Note_on_c, 9, 38, 100
1, 46360, Note_on_c, 9, 51, 0
1, 46360, Note_on_c, 9, 36, 0
1, 46370, Note_on_c, 9, 38, 0
1, 46380, Note_on_c, 9, 51, 100
1, 46410, Note_on_c, 9, 38, 100
1, 46420, Note_on_c, 9, 51, 0
1, 46430, Note_on_c, 9, 38, 0
1, 46440, Note_on_c, 4, 49, 0
1, 46440, Note_on_c, 9, 38, 100
1, 46440, Note_on_c, 9, 51, 100
1, 46460, Note_on_c, 9, 38, 0
1, 46470, Note_on_c, 9, 38, 100
1, 46480, Note_on_c, 9, 51, 0
1, 46490, Note_on_c, 9, 38, 0
1, 46500, Note_on_c, 9, 51, 100
1, 46500, Note_on_c, 9, 36, 100
1, 46500, Note_on_c, 4, 49, 100
1, 46520, Note_on_c, 4, 49, 0
1, 46520, Note_on_c, 9, 36, 0
1, 46520, Note_on_c, 1, 68, 0
1, 46520, Note_on_c, 0, 68, 0
1, 46530, Note_on_c, 9, 38, 100
1, 46530, Note_on_c, 4, 49, 100
1, 46530, Note_on_c, 9, 36, 100
1, 46540, Note_on_c, 9, 51, 0
1, 46547, Note_on_c, 3, 61, 0
1, 46547, Note_on_c, 3, 65, 0
1, 46547, Note_on_c, 3, 68, 0
1, 46550, Note_on_c, 9, 36, 0
1, 46550, Note_on_c, 9, 38, 0
1, 46550, Note_on_c, 4, 49, 0
1, 46560, Note_on_c, 9, 36, 100
1, 46560, Note_on_c, 3, 65, 100
1, 46560, Control_c, 1, 67, 76
1, 46560, Note_on_c, 3, 63, 100
1, 46560, Note_on_c, 9, 51, 100
1, 46560, Note_on_c, 4, 47, 100
1, 46560, Note_on_c, 1, 63, 100
1, 46600, Note_on_c, 9, 51, 0
1, 46600, Note_on_c, 9, 36, 0
1, 46605, Note_on_c, 1, 63, 0
1, 46620, Note_on_c, 4, 47, 0
1, 46620, Note_on_c, 1, 66, 100
1, 46620, Note_on_c, 9, 51, 100
1, 46650, Note_on_c, 4, 47, 100
1, 46660, Note_on_c, 9, 51, 0
1, 46665, Note_on_c, 1, 66, 0
1, 46680, Note_on_c, 1, 70, 100
1, 46680, Note_on_c, 9, 38, 110
1, 46680, Note_on_c, 9, 51, 100
1, 46710, Note_on_c, 4, 47, 0
1, 46720, Note_on_c, 9, 51, 0
1, 46725, Note_on_c, 1, 70, 0
1, 46738, Note_on_c, 3, 65, 0
1, 46738, Note_on_c, 3, 63, 0
1, 46740, Note_on_c, 9, 36, 100
1, 46740, Note_on_c, 9, 51, 100
1, 46740, Note_on_c, 1, 68, 100
1, 46740, Note_on_c, 3, 61, 100
1, 46740, Note_on_c, 3, 68, 100
1, 46740, Note_on_c, 4, 47, 100
1, 46740, Note_on_c, 3, 58, 100
1, 46760, Note_on_c, 9, 38, 0
1, 46780, Note_on_c, 9, 36, 0
1, 46780, Note_on_c, 9, 51, 0
1, 46800, Note_on_c, 4, 47, 0
1, 46800, Note_on_c, 9, 51, 100
1, 46830, Note_on_c, 1, 68, 0
1, 46830, Note_on_c, 4, 47, 100
1, 46840, Note_on_c, 9, 51, 0
1, 46850, Note_on_c, 4, 47, 0
1, 46860, Note_on_c, 1, 65, 100
1, 46860, Note_on_c, 9, 36, 100
1, 46860, Note_on_c, 9, 51, 100
1, 46860, Note_on_c, 4, 47, 100
1, 46900, Note_on_c, 9, 51, 0
1, 46900, Note_on_c, 9, 36, 0
1, 46905, Note_on_c, 1, 65, 0
1, 46920, Note_on_c, 9, 38, 110
1, 46920, Note_on_c, 1, 61, 100
1, 46920, Note_on_c, 9, 51, 100
1, 46940, Note_on_c, 4, 47, 0
1, 46960, Note_on_c, 9, 51, 0
1, 46965, Note_on_c, 1, 61, 0
1, 46978, Note_on_c, 3, 68, 0
1, 46978, Note_on_c, 3, 61, 0
1, 46978, Note_on_c, 3, 58, 0
1, 46980, Note_on_c, 1, 59, 100
1, 46980, Note_on_c, 3, 59, 100
1, 46980, Note_on_c, 3, 56, 100
1, 46980, Note_on_c, 4, 47, 100
1, 46980, Note_on_c, 9, 36, 100
1, 46980, Note_on_c, 9, 51, 100
1, 47000, Note_on_c, 9, 36, 0
1, 47000, Note_on_c, 9, 38, 0
1, 47020, Note_on_c, 4, 47, 0
1, 47020, Note_on_c, 9, 51, 0
1, 47040, Note_on_c, 4, 42, 100
1, 47040, Note_on_c, 9, 51, 100
1, 47080, Note_on_c, 9, 51, 0
1, 47100, Note_on_c, 4, 42, 0
1, 47100, Note_on_c, 9, 51, 100
1, 47100, Note_on_c, 9, 36, 100
1, 47100, Note_on_c, 1, 63, 100
1, 47115, Note_on_c, 1, 59, 0
1, 47130, Note_on_c, 4, 46, 100
1, 47140, Note_on_c, 9, 36, 0
1, 47140, Note_on_c, 9, 51, 0
1, 47145, Note_on_c, 1, 63, 0
1, 47160, Note_on_c, 9, 51, 100
1, 47160, Note_on_c, 1, 66, 100
1, 47160, Note_on_c, 9, 38, 110
1, 47170, Note_on_c, 4, 46, 0
1, 47190, Note_on_c, 4, 47, 100
1, 47200, Note_on_c, 9, 51, 0
1, 47205, Note_on_c, 1, 66, 0
1, 47210, Note_on_c, 4, 47, 0
1, 47218, Note_on_c, 3, 56, 0
1, 47218, Note_on_c, 3, 59, 0
1, 47220, Note_on_c, 3, 68, 100
1, 47220, Note_on_c, 4, 49, 100
1, 47220, Note_on_c, 9, 36, 100
1, 47220, Note_on_c, 9, 51, 100
1, 47220, Note_on_c, 1, 68, 100
1, 47220, Note_on_c, 3, 61, 100
1, 47240, Note_on_c, 9, 38, 0
1, 47260, Note_on_c, 9, 51, 0
1, 47260, Note_on_c, 9, 36, 0
1, 47265, Note_on_c, 1, 68, 0
1, 47280, Note_on_c, 4, 49, 0
1, 47280, Note_on_c, 9, 51, 100
1, 47280, Note_on_c, 9, 36, 100
1, 47280, Note_on_c, 1, 65, 100
1, 47310, Note_on_c, 4, 49, 100
1, 47320, Note_on_c, 9, 36, 0
1, 47320, Note_on_c, 9, 51, 0
1, 47325, Note_on_c, 1, 65, 0
1, 47330, Note_on_c, 4, 49, 0
1, 47340, Note_on_c, 9, 51, 100
1, 47340, Note_on_c, 1, 61, 100
1, 47340, Note_on_c, 4, 49, 100
1, 47380, Note_on_c, 9, 51, 0
1, 47385, Note_on_c, 1, 61, 0
1, 47400, Note_on_c, 1, 56, 100
1, 47400, Note_on_c, 9, 51, 100
1, 47400, Note_on_c, 9, 38, 110
1, 47420, Note_on_c, 4, 49, 0
1, 47440, Note_on_c, 9, 51, 0
1, 47460, Note_on_c, 9, 51, 100
1, 47460, Note_on_c, 4, 49, 100
1, 47480, Note_on_c, 4, 49, 0
1, 47480, Note_on_c, 9, 38, 0
1, 47490, Note_on_c, 1, 56, 0
1, 47490, Note_on_c, 4, 49, 100
1, 47500, Note_on_c, 9, 51, 0
1, 47507, Note_on_c, 3, 61, 0
1, 47507, Note_on_c, 3, 68, 0
1, 47510, Note_on_c, 4, 49, 0
1, 47520, Note_on_c, 3, 63, 100
1, 47520, Note_on_c, 3, 65, 100
1, 47520, Note_on_c, 9, 51, 100
1, 47520, Note_on_c, 4, 47, 100
1, 47520, Note_on_c, 9, 36, 100
1, 47520, Note_on_c, 1, 63, 100
1, 47560, Note_on_c, 9, 36, 0
1, 47560, Note_on_c, 9, 51, 0
1, 47565, Note_on_c, 1, 63, 0
1, 47580, Note_on_c, 4, 47, 0
1, 47580, Note_on_c, 9, 51, 100
1, 47580, Note_on_c, 1, 66, 100
1, 47610, Note_on_c, 4, 47, 100
1, 47620, Note_on_c, 9, 51, 0
1, 47625, Note_on_c, 1, 66, 0
1, 47640, Note_on_c, 9, 51, 100
1, 47640, Note_on_c, 9, 38, 110
1, 47640, Note_on_c, 1, 70, 100
1, 47670, Note_on_c, 4, 47, 0
1, 47680, Note_on_c, 9, 51, 0
1, 47685, Note_on_c, 1, 70, 0
1, 47698, Note_on_c, 3, 63, 0
1, 47698, Note_on_c, 3, 65, 0
1, 47700, Note_on_c, 4, 47, 100
1, 47700, Note_on_c, 9, 51, 100
1, 47700, Note_on_c, 1, 68, 100
1, 47700, Note_on_c, 3, 68, 100
1, 47700, Note_on_c, 9, 36, 100
1, 47700, Note_on_c, 3, 58, 100
1, 47700, Note_on_c, 3, 61, 100
1, 47720, Note_on_c, 9, 38, 0
1, 47740, Note_on_c, 9, 36, 0
1, 47740, Note_on_c, 9, 51, 0
1, 47760, Note_on_c, 4, 47, 0
1, 47760, Note_on_c, 9, 51, 100
1, 47790, Note_on_c, 1, 68, 0
1, 47790, Note_on_c, 4, 47, 100
1, 47800, Note_on_c, 9, 51, 0
1, 47810, Note_on_c, 4, 47, 0
1, 47820, Note_on_c, 9, 51, 100
1, 47820, Note_on_c, 4, 47, 100
1, 47820, Note_on_c, 1, 65, 100
1, 47820, Note_on_c, 9, 36, 100
1, 47860, Note_on_c, 9, 36, 0
1, 47860, Note_on_c, 9, 51, 0
1, 47865, Note_on_c, 1, 65, 0
1, 47880, Note_on_c, 9, 51, 100
1, 47880, Note_on_c, 9, 38, 110
1, 47880, Note_on_c, 1, 61, 100
1, 47900, Note_on_c, 4, 47, 0
1, 47920, Note_on_c, 9, 51, 0
1, 47925, Note_on_c, 1, 61, 0
1, 47938, Note_on_c, 3, 61, 0
1, 47938, Note_on_c, 3, 68, 0
1, 47938, Note_on_c, 3, 58, 0
1, 47940, Note_on_c, 3, 71, 100
1, 47940, Note_on_c, 9, 51, 100
1, 47940, Note_on_c, 4, 47, 100
1, 47940, Note_on_c, 3, 66, 100
1, 47940, Note_on_c, 9, 36, 100
1, 47940, Note_on_c, 1, 71, 100
1, 47940, Note_on_c, 3, 63, 100
1, 47940, Note_on_c, 3, 59, 100
1, 47960, Note_on_c, 9, 36, 0
1, 47960, Note_on_c, 9, 38, 0
1, 47980, Note_on_c, 9, 51, 0
1, 48000, Note_on_c, 9, 51, 100
1, 48030, Note_on_c, 1, 71, 0
1, 48040, Note_on_c, 9, 51, 0
1, 48058, Note_on_c, 3, 59, 0
1, 48058, Note_on_c, 3, 71, 0
1, 48058, Note_on_c, 3, 63, 0
1, 48058, Note_on_c, 3, 66, 0
1, 48060, Note_on_c, 4, 47, 0
1, 48060, Note_on_c, 1, 70, 100
1, 48060, Note_on_c, 9, 36, 100
1, 48060, Note_on_c, 3, 66, 100
1, 48060, Note_on_c, 9, 51, 100
1, 48060, Note_on_c, 4, 47, 100
1, 48060, Note_on_c, 3, 70, 100
1, 48060, Note_on_c, 3, 61, 100
1, 48100, Note_on_c, 9, 51, 0
1, 48100, Note_on_c, 9, 36, 0
1, 48120, Note_on_c, 9, 38, 110
1, 48120, Note_on_c, 9, 51, 100
1, 48140, Note_on_c, 4, 47, 0
1, 48150, Note_on_c, 1, 70, 0
1, 48160, Note_on_c, 9, 51, 0
1, 48178, Note_on_c, 3, 70, 0
1, 48178, Note_on_c, 3, 66, 0
1, 48178, Note_on_c, 3, 61, 0
1, 48180, Note_on_c, 9, 36, 100
1, 48180, Note_on_c, 1, 68, 100
1, 48180, Note_on_c, 9, 51, 100
1, 48180, Note_on_c, 3, 61, 100
1, 48180, Note_on_c, 4, 49, 100
1, 48180, Note_on_c, 3, 68, 100
1, 48180, Note_on_c, 3, 65, 100
1, 48200, Note_on_c, 9, 38, 0
1, 48210, Note_on_c, 9, 43, 100
1, 48220, Note_on_c, 9, 51, 0
1, 48220, Note_on_c, 9, 36, 0
1, 48220, Note_on_c, 4, 49, 0
1, 48225, Note_on_c, 1, 68, 0
1, 48230, Note_on_c, 9, 43, 0
1, 48240, Note_on_c, 1, 68, 100
1, 48240, Note_on_c, 9, 51, 100
1, 48240, Note_on_c, 4, 49, 100
1, 48240, Note_on_c, 9, 36, 100
1, 48270, Note_on_c, 9, 43, 100
1, 48280, Note_on_c, 9, 36, 0
1, 48280, Note_on_c, 9, 51, 0
1, 48290, Note_on_c, 9, 43, 0
1, 48300, Note_on_c, 9, 51, 100
1, 48300, Note_on_c, 9, 43, 100
1, 48320, Note_on_c, 9, 43, 0
1, 48330, Note_on_c, 9, 47, 100
1, 48340, Note_on_c, 9, 51, 0
1, 48350, Note_on_c, 9, 47, 0
1, 48360, Note_on_c, 4, 49, 0
1, 48360, Note_on_c, 9, 51, 100
1, 48360, Note_on_c, 9, 45, 100
1, 48380, Note_on_c, 9, 45, 0
1, 48390, Note_on_c, 9, 45, 100
1, 48400, Note_on_c, 9, 51, 0
1, 48410, Note_on_c, 9, 45, 0
1, 48420, Note_on_c, 9, 45, 100
1, 48420, Note_on_c, 9, 51, 100
1, 48440, Note_on_c, 9, 45, 0
1, 48440, Note_on_c, 1, 68, 0
1, 48450, Note_on_c, 9, 47, 100
1, 48460, Note_on_c, 9, 51, 0
1, 48467, Note_on_c, 3, 68, 0
1, 48467, Note_on_c, 3, 61, 0
1, 48467, Note_on_c, 3, 65, 0
1, 48470, Note_on_c, 9, 47, 0
1, 48480, Note_on_c, 3, 68, 100
1, 48480, Note_on_c, 4, 42, 100
1, 48480, Note_on_c, 7, 56, 100
1, 48480, Note_on_c, 3, 61, 100
1, 48480, Note_on_c, 3, 59, 100
1, 48480, Note_on_c, 9, 36, 100
1, 48480, Note_on_c, 7, 59, 100
1, 48480, Note_on_c, 9, 42, 50
1, 48480, Control_c, 7, 7, 100
1, 48508, Note_on_c, 9, 42, 0
1, 48510, Note_on_c, 9, 42, 50
1, 48520, Note_on_c, 9, 36, 0
1, 48538, Note_on_c, 9, 42, 0
1, 48540, Note_on_c, 7, 56, 0
1, 48540, Note_on_c, 4, 42, 0
1, 48540, Note_on_c, 7, 59, 0
1, 48540, Note_on_c, 9, 42, 50
1, 48568, Note_on_c, 9, 42, 0
1, 48570, Note_on_c, 4, 46, 100
1, 48570, Note_on_c, 9, 42, 50
1, 48570, Note_on_c, 9, 36, 100
1, 48570, Note_on_c, 7, 61, 100
1, 48570, Note_on_c, 7, 56, 100
1, 48598, Note_on_c, 9, 42, 0
1, 48600, Note_on_c, 9, 38, 110
1, 48600, Note_on_c, 9, 42, 50
1, 48610, Note_on_c, 9, 36, 0
1, 48628, Note_on_c, 9, 42, 0
1, 48630, Note_on_c, 4, 46, 0
1, 48630, Note_on_c, 9, 42, 50
1, 48658, Note_on_c, 9, 42, 0
1, 48660, Note_on_c, 9, 42, 50
1, 48660, Note_on_c, 4, 49, 100
1, 48660, Note_on_c, 9, 36, 100
1, 48680, Note_on_c, 7, 61, 0
1, 48680, Note_on_c, 9, 38, 0
1, 48680, Note_on_c, 7, 56, 0
1, 48688, Note_on_c, 9, 42, 0
1, 48690, Note_on_c, 9, 42, 50
1, 48700, Note_on_c, 9, 36, 0
1, 48718, Note_on_c, 9, 42, 0
1, 48720, Note_on_c, 7, 56, 100
1, 48720, Note_on_c, 9, 42, 50
1, 48720, Note_on_c, 7, 59, 100
1, 48740, Note_on_c, 4, 49, 0
1, 48748, Note_on_c, 9, 42, 0
1, 48750, Note_on_c, 9, 42, 50
1, 48760, Note_on_c, 7, 56, 0
1, 48760, Note_on_c, 7, 59, 0
1, 48778, Note_on_c, 9, 42, 0
1, 48780, Note_on_c, 4, 49, 100
1, 48780, Note_on_c, 7, 59, 100
1, 48780, Note_on_c, 7, 56, 100
1, 48780, Note_on_c, 9, 42, 50
1, 48780, Note_on_c, 9, 36, 100
1, 48808, Note_on_c, 9, 42, 0
1, 48810, Note_on_c, 9, 42, 50
1, 48820, Note_on_c, 9, 36, 0
1, 48820, Note_on_c, 7, 56, 0
1, 48820, Note_on_c, 7, 59, 0
1, 48838, Note_on_c, 9, 42, 0
1, 48840, Note_on_c, 9, 42, 50
1, 48840, Note_on_c, 9, 38, 110
1, 48840, Note_on_c, 7, 56, 100
1, 48840, Note_on_c, 7, 61, 100
1, 48860, Note_on_c, 4, 49, 0
1, 48868, Note_on_c, 9, 42, 0
1, 48870, Note_on_c, 9, 42, 50
1, 48898, Note_on_c, 9, 42, 0
1, 48900, Note_on_c, 4, 49, 100
1, 48900, Note_on_c, 9, 42, 50
1, 48900, Note_on_c, 9, 36, 100
1, 48920, Note_on_c, 9, 36, 0
1, 48920, Note_on_c, 4, 49, 0
1, 48920, Note_on_c, 7, 61, 0
1, 48920, Note_on_c, 9, 38, 0
1, 48920, Note_on_c, 7, 56, 0
1, 48928, Note_on_c, 9, 42, 0
1, 48930, Note_on_c, 9, 42, 50
1, 48930, Note_on_c, 4, 49, 100
1, 48930, Note_on_c, 9, 36, 100
1, 48950, Note_on_c, 9, 36, 0
1, 48950, Note_on_c, 4, 49, 0
1, 48958, Note_on_c, 3, 59, 0
1, 48958, Note_on_c, 3, 61, 0
1, 48958, Note_on_c, 3, 68, 0
1, 48958, Note_on_c, 9, 42, 0
1, 48960, Note_on_c, 3, 68, 100
1, 48960, Note_on_c, 9, 36, 100
1, 48960, Note_on_c, 9, 42, 50
1, 48960, Note_on_c, 3, 59, 100
1, 48960, Note_on_c, 7, 59, 100
1, 48960, Note_on_c, 7, 56, 100
1, 48960, Note_on_c, 4, 42, 100
1, 48960, Note_on_c, 3, 61, 100
1, 48988, Note_on_c, 9, 42, 0
1, 48990, Note_on_c, 9, 42, 50
1, 49000, Note_on_c, 9, 36, 0
1, 49018, Note_on_c, 9, 42, 0
1, 49020, Note_on_c, 4, 42, 0
1, 49020, Note_on_c, 7, 59, 0
1, 49020, Note_on_c, 7, 56, 0
1, 49020, Note_on_c, 9, 42, 50
1, 49048, Note_on_c, 9, 42, 0
1, 49050, Note_on_c, 9, 36, 100
1, 49050, Note_on_c, 7, 61, 100
1, 49050, Note_on_c, 7, 56, 100
1, 49050, Note_on_c, 4, 46, 100
1, 49050, Note_on_c, 9, 42, 50
1, 49078, Note_on_c, 9, 42, 0
1, 49080, Note_on_c, 9, 42, 50
1, 49080, Note_on_c, 9, 38, 110
1, 49090, Note_on_c, 9, 36, 0
1, 49108, Note_on_c, 9, 42, 0
1, 49110, Note_on_c, 4, 46, 0
1, 49110, Note_on_c, 9, 42, 50
1, 49138, Note_on_c, 9, 42, 0
1, 49140, Note_on_c, 9, 36, 100
1, 49140, Note_on_c, 9, 42, 50
1, 49140, Note_on_c, 4, 49, 100
1, 49160, Note_on_c, 7, 56, 0
1, 49160, Note_on_c, 9, 38, 0
1, 49160, Note_on_c, 7, 61, 0
1, 49168, Note_on_c, 9, 42, 0
1, 49170, Note_on_c, 9, 42, 50
1, 49180, Note_on_c, 9, 36, 0
1, 49198, Note_on_c, 9, 42, 0
1, 49200, Note_on_c, 9, 42, 50
1, 49200, Note_on_c, 7, 56, 100
1, 49200, Note_on_c, 7, 59, 100
1, 49220, Note_on_c, 4, 49, 0
1, 49228, Note_on_c, 9, 42, 0
1, 49230, Note_on_c, 9, 42, 50
1, 49240, Note_on_c, 7, 56, 0
1, 49240, Note_on_c, 7, 59, 0
1, 49258, Note_on_c, 9, 42, 0
1, 49260, Note_on_c, 9, 36, 100
1, 49260, Note_on_c, 7, 59, 100
1, 49260, Note_on_c, 9, 42, 50
1, 49260, Note_on_c, 4, 49, 100
1, 49260, Note_on_c, 7, 56, 100
1, 49288, Note_on_c, 9, 42, 0
1, 49290, Note_on_c, 9, 42, 50
1, 49300, Note_on_c, 7, 56, 0
1, 49300, Note_on_c, 9, 36, 0
1, 49300, Note_on_c, 7, 59, 0
1, 49318, Note_on_c, 9, 42, 0
1, 49320, Note_on_c, 9, 42, 50
1, 49320, Note_on_c, 9, 38, 110
1, 49320, Note_on_c, 7, 56, 100
1, 49320, Note_on_c, 7, 61, 100
1, 49340, Note_on_c, 4, 49, 0
1, 49348, Note_on_c, 9, 42, 0
1, 49350, Note_on_c, 9, 42, 50
1, 49378, Note_on_c, 9, 42, 0
1, 49380, Note_on_c, 4, 49, 100
1, 49380, Note_on_c, 9, 36, 100
1, 49380, Note_on_c, 9, 42, 50
1, 49400, Note_on_c, 9, 36, 0
1, 49400, Note_on_c, 4, 49, 0
1, 49400, Note_on_c, 7, 61, 0
1, 49400, Note_on_c, 9, 38, 0
1, 49400, Note_on_c, 7, 56, 0
1, 49408, Note_on_c, 9, 42, 0
1, 49410, Note_on_c, 4, 49, 100
1, 49410, Note_on_c, 9, 36, 100
1, 49410, Note_on_c, 9, 42, 50
1, 49430, Note_on_c, 9, 36, 0
1, 49430, Note_on_c, 4, 49, 0
1, 49438, Note_on_c, 3, 59, 0
1, 49438, Note_on_c, 3, 68, 0
1, 49438, Note_on_c, 9, 42, 0
1, 49438, Note_on_c, 3, 61, 0
1, 49440, Note_on_c, 7, 59, 100
1, 49440, Note_on_c, 3, 68, 100
1, 49440, Note_on_c, 3, 61, 100
1, 49440, Note_on_c, 9, 36, 100
1, 49440, Note_on_c, 4, 42, 100
1, 49440, Note_on_c, 7, 56, 100
1, 49440, Note_on_c, 3, 59, 100
1, 49440, Note_on_c, 9, 42, 50
1, 49468, Note_on_c, 9, 42, 0
1, 49470, Note_on_c, 9, 42, 50
1, 49480, Note_on_c, 9, 36, 0
1, 49498, Note_on_c, 9, 42, 0
1, 49500, Note_on_c, 4, 42, 0
1, 49500, Note_on_c, 7, 59, 0
1, 49500, Note_on_c, 7, 56, 0
1, 49500, Note_on_c, 9, 42, 50
1, 49528, Note_on_c, 9, 42, 0
1, 49530, Note_on_c, 4, 46, 100
1, 49530, Note_on_c, 9, 42, 50
1, 49530, Note_on_c, 9, 36, 100
1, 49530, Note_on_c, 7, 56, 100
1, 49530, Note_on_c, 7, 61, 100
1, 49558, Note_on_c, 9, 42, 0
1, 49560, Note_on_c, 9, 42, 50
1, 49560, Note_on_c, 9, 38, 110
1, 49570, Note_on_c, 9, 36, 0
1, 49588, Note_on_c, 9, 42, 0
1, 49590, Note_on_c, 4, 46, 0
1, 49590, Note_on_c, 9, 42, 50
1, 49618, Note_on_c, 9, 42, 0
1, 49620, Note_on_c, 4, 49, 100
1, 49620, Note_on_c, 9, 36, 100
1, 49620, Note_on_c, 9, 42, 50
1, 49640, Note_on_c, 7, 56, 0
1, 49640, Note_on_c, 9, 38, 0
1, 49640, Note_on_c, 7, 61, 0
1, 49648, Note_on_c, 9, 42, 0
1, 49650, Note_on_c, 9, 42, 50
1, 49660, Note_on_c, 9, 36, 0
1, 49678, Note_on_c, 9, 42, 0
1, 49680, Note_on_c, 7, 59, 100
1, 49680, Note_on_c, 7, 56, 100
1, 49680, Note_on_c, 9, 42, 50
1, 49700, Note_on_c, 4, 49, 0
1, 49708, Note_on_c, 9, 42, 0
1, 49710, Note_on_c, 9, 42, 50
1, 49710, Note_on_c, 9, 38, 110
1, 49720, Note_on_c, 7, 59, 0
1, 49720, Note_on_c, 7, 56, 0
1, 49730, Note_on_c, 9, 38, 0
1, 49738, Note_on_c, 9, 42, 0
1, 49740, Note_on_c, 4, 49, 100
1, 49740, Note_on_c, 7, 56, 100
1, 49740, Note_on_c, 9, 42, 50
1, 49740, Note_on_c, 7, 59, 100
1, 49740, Note_on_c, 9, 36, 100
1, 49768, Note_on_c, 9, 42, 0
1, 49770, Note_on_c, 9, 42, 50
1, 49780, Note_on_c, 9, 36, 0
1, 49780, Note_on_c, 7, 59, 0
1, 49780, Note_on_c, 7, 56, 0
1, 49798, Note_on_c, 9, 42, 0
1, 49800, Note_on_c, 9, 38, 110
1, 49800, Note_on_c, 7, 61, 100
1, 49800, Note_on_c, 7, 56, 100
1, 49800, Note_on_c, 9, 42, 50
1, 49820, Note_on_c, 4, 49, 0
1, 49828, Note_on_c, 9, 42, 0
1, 49830, Note_on_c, 9, 42, 50
1, 49858, Note_on_c, 9, 42, 0
1, 49860, Note_on_c, 9, 42, 50
1, 49860, Note_on_c, 9, 36, 100
1, 49860, Note_on_c, 4, 49, 100
1, 49880, Note_on_c, 4, 49, 0
1, 49880, Note_on_c, 9, 38, 0
1, 49880, Note_on_c, 9, 36, 0
1, 49880, Note_on_c, 7, 56, 0
1, 49880, Note_on_c, 7, 61, 0
1, 49888, Note_on_c, 9, 42, 0
1, 49890, Note_on_c, 9, 36, 100
1, 49890, Note_on_c, 9, 42, 50
1, 49890, Note_on_c, 4, 49, 100
1, 49910, Note_on_c, 4, 49, 0
1, 49910, Note_on_c, 9, 36, 0
1, 49918, Note_on_c, 3, 59, 0
1, 49918, Note_on_c, 3, 68, 0
1, 49918, Note_on_c, 3, 61, 0
1, 49918, Note_on_c, 9, 42, 0
1, 49920, Note_on_c, 3, 54, 100
1, 49920, Note_on_c, 3, 61, 100
1, 49920, Note_on_c, 7, 66, 100
1, 49920, Note_on_c, 7, 61, 100
1, 49920, Note_on_c, 7, 54, 100
1, 49920, Note_on_c, 3, 66, 100
1, 49920, Note_on_c, 9, 42, 50
1, 49920, Note_on_c, 9, 36, 100
1, 49920, Note_on_c, 9, 52, 100
1, 49920, Note_on_c, 4, 46, 100
1, 49948, Note_on_c, 9, 42, 0
1, 49950, Note_on_c, 9, 42, 50
1, 49960, Note_on_c, 9, 52, 0
1, 49960, Note_on_c, 9, 36, 0
1, 49978, Note_on_c, 9, 42, 0
1, 49980, Note_on_c, 3, 54, 0
1, 49980, Note_on_c, 7, 54, 0
1, 49980, Note_on_c, 3, 61, 0
1, 49980, Note_on_c, 4, 46, 0
1, 49980, Note_on_c, 7, 66, 0
1, 49980, Note_on_c, 3, 66, 0
1, 49980, Note_on_c, 7, 61, 0
1, 49980, Note_on_c, 9, 42, 50
1, 50008, Note_on_c, 9, 42, 0
1, 50010, Note_on_c, 7, 54, 100
1, 50010, Note_on_c, 3, 64, 100
1, 50010, Note_on_c, 3, 61, 100
1, 50010, Note_on_c, 7, 64, 100
1, 50010, Note_on_c, 7, 61, 100
1, 50010, Note_on_c, 4, 47, 100
1, 50010, Note_on_c, 3, 54, 100
1, 50010, Note_on_c, 9, 36, 100
1, 50010, Note_on_c, 9, 42, 50
1, 50038, Note_on_c, 9, 42, 0
1, 50040, Note_on_c, 9, 42, 50
1, 50040, Note_on_c, 9, 38, 100
1, 50050, Note_on_c, 9, 36, 0
1, 50068, Note_on_c, 9, 42, 0
1, 50070, Note_on_c, 3, 54, 0
1, 50070, Note_on_c, 7, 64, 0
1, 50070, Note_on_c, 7, 61, 0
1, 50070, Note_on_c, 3, 64, 0
1, 50070, Note_on_c, 3, 61, 0
1, 50070, Note_on_c, 7, 54, 0
1, 50070, Note_on_c, 4, 47, 0
1, 50070, Note_on_c, 9, 42, 50
1, 50098, Note_on_c, 9, 42, 0
1, 50100, Note_on_c, 9, 36, 100
1, 50100, Note_on_c, 4, 49, 100
1, 50100, Note_on_c, 3, 61, 100
1, 50100, Note_on_c, 3, 56, 100
1, 50100, Note_on_c, 7, 61, 100
1, 50100, Note_on_c, 7, 56, 100
1, 50100, Note_on_c, 9, 42, 50
1, 50120, Note_on_c, 9, 38, 0
1, 50128, Note_on_c, 9, 42, 0
1, 50130, Note_on_c, 9, 42, 50
1, 50140, Note_on_c, 9, 36, 0
1, 50158, Note_on_c, 9, 42, 0
1, 50160, Note_on_c, 9, 41, 100
1, 50160, Note_on_c, 9, 50, 100
1, 50160, Note_on_c, 9, 42, 50
1, 50188, Note_on_c, 9, 42, 0
1, 50190, Note_on_c, 9, 42, 50
1, 50200, Note_on_c, 9, 50, 0
1, 50200, Note_on_c, 9, 41, 0
1, 50218, Note_on_c, 9, 42, 0
1, 50220, Note_on_c, 9, 48, 100
1, 50220, Note_on_c, 9, 42, 50
1, 50240, Note_on_c, 9, 48, 0
1, 50248, Note_on_c, 9, 42, 0
1, 50250, Note_on_c, 9, 48, 100
1, 50250, Note_on_c, 9, 42, 50
1, 50260, Note_on_c, 4, 49, 0
1, 50270, Note_on_c, 9, 48, 0
1, 50278, Note_on_c, 9, 42, 0
1, 50280, Note_on_c, 9, 47, 100
1, 50280, Note_on_c, 9, 42, 50
1, 50300, Note_on_c, 9, 47, 0
1, 50308, Note_on_c, 9, 42, 0
1, 50310, Note_on_c, 9, 47, 100
1, 50310, Note_on_c, 9, 42, 50
1, 50320, Note_on_c, 7, 56, 0
1, 50320, Note_on_c, 3, 56, 0
1, 50320, Note_on_c, 3, 61, 0
1, 50320, Note_on_c, 7, 61, 0
1, 50330, Note_on_c, 9, 47, 0
1, 50338, Note_on_c, 9, 42, 0
1, 50340, Note_on_c, 4, 44, 100
1, 50340, Note_on_c, 9, 42, 50
1, 50340, Note_on_c, 9, 43, 100
1, 50360, Note_on_c, 9, 43, 0
1, 50360, Note_on_c, 4, 44, 0
1, 50368, Note_on_c, 9, 42, 0
1, 50370, Note_on_c, 9, 43, 100
1, 50370, Note_on_c, 4, 46, 100
1, 50370, Note_on_c, 9, 42, 50
1, 50390, Note_on_c, 4, 46, 0
1, 50390, Note_on_c, 9, 43, 0
1, 50398, Note_on_c, 9, 42, 0
1, 50400, Note_on_c, 1, 63, 100
1, 50400, Note_on_c, 4, 47, 100
1, 50400, Note_on_c, 3, 65, 100
1, 50400, Note_on_c, 3, 63, 100
1, 50400, Control_c, 0, 67, 76
1, 50400, Note_on_c, 0, 63, 100
1, 50400, Note_on_c, 9, 36, 100
1, 50400, Control_c, 1, 67, 76
1, 50400, Note_on_c, 9, 51, 100
1, 50440, Note_on_c, 9, 51, 0
1, 50440, Note_on_c, 9, 36, 0
1, 50445, Note_on_c, 1, 63, 0
1, 50445, Note_on_c, 0, 63, 0
1, 50460, Note_on_c, 4, 47, 0
1, 50460, Note_on_c, 1, 66, 100
1, 50460, Note_on_c, 0, 66, 100
1, 50460, Note_on_c, 9, 51, 100
1, 50490, Note_on_c, 4, 47, 100
1, 50500, Note_on_c, 9, 51, 0
1, 50505, Note_on_c, 0, 66, 0
1, 50505, Note_on_c, 1, 66, 0
1, 50520, Note_on_c, 9, 38, 110
1, 50520, Note_on_c, 9, 51, 100
1, 50520, Note_on_c, 0, 70, 100
1, 50520, Note_on_c, 1, 70, 100
1, 50550, Note_on_c, 4, 47, 0
1, 50560, Note_on_c, 9, 51, 0
1, 50565, Note_on_c, 0, 70, 0
1, 50565, Note_on_c, 1, 70, 0
1, 50578, Note_on_c, 3, 63, 0
1, 50578, Note_on_c, 3, 65, 0
1, 50580, Note_on_c, 1, 68, 100
1, 50580, Note_on_c, 4, 47, 100
1, 50580, Note_on_c, 9, 51, 100
1, 50580, Note_on_c, 3, 68, 100
1, 50580, Note_on_c, 3, 61, 100
1, 50580, Note_on_c, 3, 58, 100
1, 50580, Note_on_c, 9, 36, 100
1, 50580, Note_on_c, 0, 68, 100
1, 50600, Note_on_c, 9, 38, 0
1, 50620, Note_on_c, 9, 36, 0
1, 50620, Note_on_c, 9, 51, 0
1, 50640, Note_on_c, 4, 47, 0
1, 50640, Note_on_c, 9, 51, 100
1, 50670, Note_on_c, 1, 68, 0
1, 50670, Note_on_c, 0, 68, 0
1, 50670, Note_on_c, 4, 47, 100
1, 50680, Note_on_c, 9, 51, 0
1, 50690, Note_on_c, 4, 47, 0
1, 50700, Note_on_c, 9, 36, 100
1, 50700, Note_on_c, 1, 65, 100
1, 50700, Note_on_c, 9, 51, 100
1, 50700, Note_on_c, 4, 47, 100
1, 50700, Note_on_c, 0, 65, 100
1, 50740, Note_on_c, 9, 51, 0
1, 50740, Note_on_c, 9, 36, 0
1, 50745, Note_on_c, 0, 65, 0
1, 50745, Note_on_c, 1, 65, 0
1, 50760, Note_on_c, 9, 51, 100
1, 50760, Note_on_c, 0, 61, 100
1, 50760, Note_on_c, 9, 38, 110
1, 50760, Note_on_c, 1, 61, 100
1, 50780, Note_on_c, 4, 47, 0
1, 50800, Note_on_c, 9, 51, 0
1, 50805, Note_on_c, 1, 61, 0
1, 50805, Note_on_c, 0, 61, 0
1, 50818, Note_on_c, 3, 68, 0
1, 50818, Note_on_c, 3, 58, 0
1, 50818, Note_on_c, 3, 61, 0
1, 50820, Note_on_c, 0, 59, 100
1, 50820, Note_on_c, 9, 51, 100
1, 50820, Note_on_c, 3, 59, 100
1, 50820, Note_on_c, 4, 47, 100
1, 50820, Note_on_c, 9, 36, 100
1, 50820, Note_on_c, 1, 59, 100
1, 50820, Note_on_c, 3, 56, 100
1, 50840, Note_on_c, 9, 36, 0
1, 50840, Note_on_c, 9, 38, 0
1, 50860, Note_on_c, 4, 47, 0
1, 50860, Note_on_c, 9, 51, 0
1, 50880, Note_on_c, 9, 51, 100
1, 50880, Note_on_c, 4, 42, 100
1, 50920, Note_on_c, 9, 51, 0
1, 50940, Note_on_c, 4, 42, 0
1, 50940, Note_on_c, 0, 63, 100
1, 50940, Note_on_c, 1, 63, 100
1, 50940, Note_on_c, 9, 51, 100
1, 50940, Note_on_c, 9, 36, 100
1, 50955, Note_on_c, 1, 59, 0
1, 50955, Note_on_c, 0, 59, 0
1, 50970, Note_on_c, 4, 46, 100
1, 50980, Note_on_c, 9, 36, 0
1, 50980, Note_on_c, 9, 51, 0
1, 50985, Note_on_c, 1, 63, 0
1, 50985, Note_on_c, 0, 63, 0
1, 51000, Note_on_c, 9, 38, 110
1, 51000, Note_on_c, 1, 66, 100
1, 51000, Note_on_c, 0, 66, 100
1, 51000, Note_on_c, 9, 51, 100
1, 51030, Note_on_c, 4, 46, 0
1, 51040, Note_on_c, 9, 51, 0
1, 51045, Note_on_c, 1, 66, 0
1, 51045, Note_on_c, 0, 66, 0
1, 51058, Note_on_c, 3, 56, 0
1, 51058, Note_on_c, 3, 59, 0
1, 51060, Note_on_c, 9, 36, 100
1, 51060, Note_on_c, 0, 68, 100
1, 51060, Note_on_c, 3, 68, 100
1, 51060, Note_on_c, 4, 49, 100
1, 51060, Note_on_c, 9, 51, 100
1, 51060, Note_on_c, 1, 68, 100
1, 51060, Note_on_c, 3, 61, 100
1, 51080, Note_on_c, 9, 38, 0
1, 51100, Note_on_c, 9, 36, 0
1, 51100, Note_on_c, 9, 51, 0
1, 51105, Note_on_c, 0, 68, 0
1, 51105, Note_on_c, 1, 68, 0
1, 51120, Note_on_c, 4, 49, 0
1, 51120, Note_on_c, 0, 65, 100
1, 51120, Note_on_c, 9, 36, 100
1, 51120, Note_on_c, 9, 51, 100
1, 51120, Note_on_c, 1, 65, 100
1, 51150, Note_on_c, 9, 38, 100
1, 51150, Note_on_c, 4, 49, 100
1, 51160, Note_on_c, 9, 51, 0
1, 51160, Note_on_c, 9, 36, 0
1, 51165, Note_on_c, 0, 65, 0
1, 51165, Note_on_c, 1, 65, 0
1, 51170, Note_on_c, 4, 49, 0
1, 51180, Note_on_c, 9, 51, 100
1, 51180, Note_on_c, 0, 61, 100
1, 51180, Note_on_c, 4, 49, 100
1, 51180, Note_on_c, 1, 61, 100
1, 51190, Note_on_c, 9, 38, 0
1, 51220, Note_on_c, 9, 51, 0
1, 51225, Note_on_c, 0, 61, 0
1, 51225, Note_on_c, 1, 61, 0
1, 51240, Note_on_c, 9, 38, 110
1, 51240, Note_on_c, 9, 51, 100
1, 51240, Note_on_c, 1, 56, 100
1, 51260, Note_on_c, 4, 49, 0
1, 51280, Note_on_c, 9, 51, 0
1, 51300, Note_on_c, 4, 49, 100
1, 51300, Note_on_c, 9, 51, 100
1, 51320, Note_on_c, 4, 49, 0
1, 51320, Note_on_c, 9, 38, 0
1, 51330, Note_on_c, 1, 56, 0
1, 51330, Note_on_c, 4, 49, 100
1, 51340, Note_on_c, 9, 51, 0
1, 51347, Note_on_c, 3, 61, 0
1, 51347, Note_on_c, 3, 68, 0
1, 51350, Note_on_c, 4, 49, 0
1, 51360, Note_on_c, 1, 63, 100
1, 51360, Note_on_c, 3, 63, 100
1, 51360, Note_on_c, 4, 47, 100
1, 51360, Note_on_c, 3, 65, 100
1, 51360, Note_on_c, 9, 36, 100
1, 51360, Note_on_c, 9, 51, 100
1, 51360, Note_on_c, 0, 63, 100
1, 51400, Note_on_c, 9, 51, 0
1, 51400, Note_on_c, 9, 36, 0
1, 51405, Note_on_c, 1, 63, 0
1, 51405, Note_on_c, 0, 63, 0
1, 51420, Note_on_c, 4, 47, 0
1, 51420, Note_on_c, 0, 66, 100
1, 51420, Note_on_c, 1, 66, 100
1, 51420, Note_on_c, 9, 51, 100
1, 51450, Note_on_c, 4, 47, 100
1, 51460, Note_on_c, 9, 51, 0
1, 51465, Note_on_c, 1, 66, 0
1, 51465, Note_on_c, 0, 66, 0
1, 51480, Note_on_c, 0, 70, 100
1, 51480, Note_on_c, 9, 51, 100
1, 51480, Note_on_c, 9, 38, 110
1, 51480, Note_on_c, 1, 70, 100
1, 51510, Note_on_c, 4, 47, 0
1, 51520, Note_on_c, 9, 51, 0
1, 51525, Note_on_c, 0, 70, 0
1, 51525, Note_on_c, 1, 70, 0
1, 51538, Note_on_c, 3, 65, 0
1, 51538, Note_on_c, 3, 63, 0
1, 51540, Note_on_c, 3, 61, 100
1, 51540, Note_on_c, 9, 51, 100
1, 51540, Note_on_c, 4, 47, 100
1, 51540, Note_on_c, 3, 58, 100
1, 51540, Note_on_c, 9, 36, 100
1, 51540, Note_on_c, 3, 68, 100
1, 51540, Note_on_c, 1, 68, 100
1, 51540, Note_on_c, 0, 68, 100
1, 51560, Note_on_c, 9, 38, 0
1, 51580, Note_on_c, 9, 36, 0
1, 51580, Note_on_c, 9, 51, 0
1, 51600, Note_on_c, 4, 47, 0
1, 51600, Note_on_c, 9, 51, 100
1, 51630, Note_on_c, 0, 68, 0
1, 51630, Note_on_c, 1, 68, 0
1, 51630, Note_on_c, 4, 47, 100
1, 51640, Note_on_c, 9, 51, 0
1, 51650, Note_on_c, 4, 47, 0
1, 51660, Note_on_c, 0, 65, 100
1, 51660, Note_on_c, 9, 36, 100
1, 51660, Note_on_c, 4, 47, 100
1, 51660, Note_on_c, 9, 51, 100
1, 51660, Note_on_c, 1, 65, 100
1, 51700, Note_on_c, 9, 51, 0
1, 51700, Note_on_c, 9, 36, 0
1, 51705, Note_on_c, 1, 65, 0
1, 51705, Note_on_c, 0, 65, 0
1, 51720, Note_on_c, 9, 38, 110
1, 51720, Note_on_c, 0, 61, 100
1, 51720, Note_on_c, 1, 61, 100
1, 51720, Note_on_c, 9, 51, 100
1, 51740, Note_on_c, 4, 47, 0
1, 51760, Note_on_c, 9, 51, 0
1, 51765, Note_on_c, 0, 61, 0
1, 51765, Note_on_c, 1, 61, 0
1, 51778, Note_on_c, 3, 61, 0
1, 51778, Note_on_c, 3, 58, 0
1, 51778, Note_on_c, 3, 68, 0
1, 51780, Note_on_c, 4, 47, 100
1, 51780, Note_on_c, 9, 36, 100
1, 51780, Note_on_c, 1, 71, 100
1, 51780, Note_on_c, 0, 71, 100
1, 51780, Note_on_c, 3, 63, 100
1, 51780, Note_on_c, 3, 59, 100
1, 51780, Note_on_c, 3, 66, 100
1, 51780, Note_on_c, 3, 71, 100
1, 51780, Note_on_c, 9, 51, 100
1, 51800, Note_on_c, 9, 36, 0
1, 51800, Note_on_c, 9, 38, 0
1, 51820, Note_on_c, 9, 51, 0
1, 51840, Note_on_c, 9, 51, 100
1, 51870, Note_on_c, 0, 71, 0
1, 51870, Note_on_c, 1, 71, 0
1, 51880, Note_on_c, 9, 51, 0
1, 51898, Note_on_c, 3, 59, 0
1, 51898, Note_on_c, 3, 66, 0
1, 51898, Note_on_c, 3, 71, 0
1, 51898, Note_on_c, 3, 63, 0
1, 51900, Note_on_c, 4, 47, 0
1, 51900, Note_on_c, 3, 70, 100
1, 51900, Note_on_c, 9, 36, 100
1, 51900, Note_on_c, 9, 51, 100
1, 51900, Note_on_c, 4, 47, 100
1, 51900, Note_on_c, 0, 70, 100
1, 51900, Note_on_c, 3, 66, 100
1, 51900, Note_on_c, 1, 70, 100
1, 51900, Note_on_c, 3, 61, 100
1, 51940, Note_on_c, 9, 51, 0
1, 51940, Note_on_c, 9, 36, 0
1, 51960, Note_on_c, 9, 51, 100
1, 51960, Note_on_c, 9, 38, 110
1, 51980, Note_on_c, 4, 47, 0
1, 51990, Note_on_c, 0, 70, 0
1, 51990, Note_on_c, 1, 70, 0
1, 52000, Note_on_c, 9, 51, 0
1, 52018, Note_on_c, 3, 70, 0
1, 52018, Note_on_c, 3, 61, 0
1, 52018, Note_on_c, 3, 66, 0
1, 52020, Note_on_c, 4, 49, 100
1, 52020, Note_on_c, 9, 51, 100
1, 52020, Note_on_c, 3, 68, 100
1, 52020, Note_on_c, 3, 65, 100
1, 52020, Note_on_c, 1, 68, 100
1, 52020, Note_on_c, 0, 68, 100
1, 52020, Note_on_c, 9, 36, 100
1, 52020, Note_on_c, 3, 61, 100
1, 52040, Note_on_c, 9, 38, 0
1, 52060, Note_on_c, 9, 36, 0
1, 52060, Note_on_c, 4, 49, 0
1, 52060, Note_on_c, 9, 51, 0
1, 52065, Note_on_c, 1, 68, 0
1, 52065, Note_on_c, 0, 68, 0
1, 52080, Note_on_c, 0, 68, 100
1, 52080, Note_on_c, 4, 49, 100
1, 52080, Note_on_c, 9, 38, 100
1, 52080, Note_on_c, 9, 36, 100
1, 52080, Note_on_c, 9, 51, 100
1, 52080, Note_on_c, 1, 68, 100
1, 52100, Note_on_c, 9, 38, 0
1, 52110, Note_on_c, 9, 38, 100
1, 52120, Note_on_c, 9, 51, 0
1, 52120, Note_on_c, 9, 36, 0
1, 52130, Note_on_c, 9, 38, 0
1, 52140, Note_on_c, 9, 51, 100
1, 52170, Note_on_c, 9, 38, 100
1, 52180, Note_on_c, 9, 51, 0
1, 52190, Note_on_c, 9, 38, 0
1, 52200, Note_on_c, 4, 49, 0
1, 52200, Note_on_c, 9, 51, 100
1, 52200, Note_on_c, 9, 38, 100
1, 52220, Note_on_c, 9, 38, 0
1, 52230, Note_on_c, 9, 38, 100
1, 52240, Note_on_c, 9, 51, 0
1, 52250, Note_on_c, 9, 38, 0
1, 52260, Note_on_c, 9, 36, 100
1, 52260, Note_on_c, 4, 49, 100
1, 52260, Note_on_c, 9, 51, 100
1, 52280, Note_on_c, 4, 49, 0
1, 52280, Note_on_c, 9, 36, 0
1, 52280, Note_on_c, 1, 68, 0
1, 52280, Note_on_c, 0, 68, 0
1, 52290, Note_on_c, 9, 36, 100
1, 52290, Note_on_c, 4, 49, 100
1, 52290, Note_on_c, 9, 38, 100
1, 52300, Note_on_c, 9, 51, 0
1, 52307, Note_on_c, 3, 61, 0
1, 52307, Note_on_c, 3, 65, 0
1, 52307, Note_on_c, 3, 68, 0
1, 52310, Note_on_c, 9, 38, 0
1, 52310, Note_on_c, 9, 36, 0
1, 52310, Note_on_c, 4, 49, 0
1, 52320, Note_on_c, 1, 63, 100
1, 52320, Control_c, 1, 67, 76
1, 52320, Note_on_c, 3, 65, 100
1, 52320, Note_on_c, 9, 51, 100
1, 52320, Note_on_c, 4, 47, 100
1, 52320, Note_on_c, 9, 36, 100
1, 52320, Note_on_c, 3, 63, 100
1, 52360, Note_on_c, 9, 36, 0
1, 52360, Note_on_c, 9, 51, 0
1, 52365, Note_on_c, 1, 63, 0
1, 52380, Note_on_c, 4, 47, 0
1, 52380, Note_on_c, 9, 51, 100
1, 52380, Note_on_c, 1, 66, 100
1, 52410, Note_on_c, 4, 47, 100
1, 52420, Note_on_c, 9, 51, 0
1, 52425, Note_on_c, 1, 66, 0
1, 52440, Note_on_c, 1, 70, 100
1, 52440, Note_on_c, 9, 51, 100
1, 52440, Note_on_c, 9, 38, 110
1, 52470, Note_on_c, 4, 47, 0
1, 52480, Note_on_c, 9, 51, 0
1, 52485, Note_on_c, 1, 70, 0
1, 52498, Note_on_c, 3, 65, 0
1, 52498, Note_on_c, 3, 63, 0
1, 52500, Note_on_c, 3, 68, 100
1, 52500, Note_on_c, 3, 61, 100
1, 52500, Note_on_c, 3, 58, 100
1, 52500, Note_on_c, 4, 47, 100
1, 52500, Note_on_c, 9, 36, 100
1, 52500, Note_on_c, 9, 51, 100
1, 52500, Note_on_c, 1, 68, 100
1, 52520, Note_on_c, 9, 38, 0
1, 52540, Note_on_c, 9, 51, 0
1, 52540, Note_on_c, 9, 36, 0
1, 52560, Note_on_c, 4, 47, 0
1, 52560, Note_on_c, 9, 51, 100
1, 52590, Note_on_c, 1, 68, 0
1, 52590, Note_on_c, 4, 47, 100
1, 52600, Note_on_c, 9, 51, 0
1, 52610, Note_on_c, 4, 47, 0
1, 52620, Note_on_c, 9, 51, 100
1, 52620, Note_on_c, 4, 47, 100
1, 52620, Note_on_c, 1, 65, 100
1, 52620, Note_on_c, 9, 36, 100
1, 52660, Note_on_c, 9, 36, 0
1, 52660, Note_on_c, 9, 51, 0
1, 52665, Note_on_c, 1, 65, 0
1, 52680, Note_on_c, 1, 61, 100
1, 52680, Note_on_c, 9, 38, 110
1, 52680, Note_on_c, 9, 51, 100
1, 52700, Note_on_c, 4, 47, 0
1, 52720, Note_on_c, 9, 51, 0
1, 52725, Note_on_c, 1, 61, 0
1, 52738, Note_on_c, 3, 61, 0
1, 52738, Note_on_c, 3, 58, 0
1, 52738, Note_on_c, 3, 68, 0
1, 52740, Note_on_c, 9, 36, 100
1, 52740, Note_on_c, 9, 51, 100
1, 52740, Note_on_c, 3, 59, 100
1, 52740, Note_on_c, 1, 59, 100
1, 52740, Note_on_c, 3, 56, 100
1, 52740, Note_on_c, 4, 47, 100
1, 52760, Note_on_c, 9, 36, 0
1, 52760, Note_on_c, 9, 38, 0
1, 52780, Note_on_c, 9, 51, 0
1, 52780, Note_on_c, 4, 47, 0
1, 52800, Note_on_c, 4, 42, 100
1, 52800, Note_on_c, 9, 51, 100
1, 52840, Note_on_c, 9, 51, 0
1, 52860, Note_on_c, 4, 42, 0
1, 52860, Note_on_c, 9, 51, 100
1, 52860, Note_on_c, 1, 63, 100
1, 52860, Note_on_c, 9, 36, 100
1, 52875, Note_on_c, 1, 59, 0
1, 52890, Note_on_c, 4, 46, 100
1, 52900, Note_on_c, 9, 51, 0
1, 52900, Note_on_c, 9, 36, 0
1, 52905, Note_on_c, 1, 63, 0
1, 52920, Note_on_c, 1, 66, 100
1, 52920, Note_on_c, 9, 51, 100
1, 52920, Note_on_c, 9, 38, 110
1, 52930, Note_on_c, 4, 46, 0
1, 52950, Note_on_c, 4, 47, 100
1, 52960, Note_on_c, 9, 51, 0
1, 52965, Note_on_c, 1, 66, 0
1, 52970, Note_on_c, 4, 47, 0
1, 52978, Note_on_c, 3, 56, 0
1, 52978, Note_on_c, 3, 59, 0
1, 52980, Note_on_c, 4, 49, 100
1, 52980, Note_on_c, 9, 36, 100
1, 52980, Note_on_c, 1, 68, 100
1, 52980, Note_on_c, 3, 61, 100
1, 52980, Note_on_c, 3, 68, 100
1, 52980, Note_on_c, 9, 51, 100
1, 53000, Note_on_c, 9, 38, 0
1, 53020, Note_on_c, 9, 36, 0
1, 53020, Note_on_c, 9, 51, 0
1, 53025, Note_on_c, 1, 68, 0
1, 53040, Note_on_c, 4, 49, 0
1, 53040, Note_on_c, 1, 65, 100
1, 53040, Note_on_c, 9, 51, 100
1, 53040, Note_on_c, 9, 36, 100
1, 53070, Note_on_c, 4, 49, 100
1, 53080, Note_on_c, 9, 36, 0
1, 53080, Note_on_c, 9, 51, 0
1, 53085, Note_on_c, 1, 65, 0
1, 53090, Note_on_c, 4, 49, 0
1, 53100, Note_on_c, 9, 51, 100
1, 53100, Note_on_c, 4, 49, 100
1, 53100, Note_on_c, 1, 61, 100
1, 53140, Note_on_c, 9, 51, 0
1, 53145, Note_on_c, 1, 61, 0
1, 53160, Note_on_c, 9, 51, 100
1, 53160, Note_on_c, 9, 38, 110
1, 53160, Note_on_c, 1, 56, 100
1, 53180, Note_on_c, 4, 49, 0
1, 53200, Note_on_c, 9, 51, 0
1, 53220, Note_on_c, 4, 49, 100
1, 53220, Note_on_c, 9, 51, 100
1, 53240, Note_on_c, 4, 49, 0
1, 53240, Note_on_c, 9, 38, 0
1, 53250, Note_on_c, 1, 56, 0
1, 53250, Note_on_c, 4, 49, 100
1, 53260, Note_on_c, 9, 51, 0
1, 53267, Note_on_c, 3, 68, 0
1, 53267, Note_on_c, 3, 61, 0
1, 53270, Note_on_c, 4, 49, 0
1, 53280, Note_on_c, 3, 63, 100
1, 53280, Note_on_c, 3, 65, 100
1, 53280, Note_on_c, 9, 51, 100
1, 53280, Note_on_c, 9, 36, 100
1, 53280, Note_on_c, 4, 47, 100
1, 53280, Note_on_c, 1, 63, 100
1, 53320, Note_on_c, 9, 36, 0
1, 53320, Note_on_c, 9, 51, 0
1, 53325, Note_on_c, 1, 63, 0
1, 53340, Note_on_c, 4, 47, 0
1, 53340, Note_on_c, 1, 66, 100
1, 53340, Note_on_c, 9, 51, 100
1, 53370, Note_on_c, 4, 47, 100
1, 53380, Note_on_c, 9, 51, 0
1, 53385, Note_on_c, 1, 66, 0
1, 53400, Note_on_c, 1, 70, 100
1, 53400, Note_on_c, 9, 38, 110
1, 53400, Note_on_c, 9, 51, 100
1, 53430, Note_on_c, 4, 47, 0
1, 53440, Note_on_c, 9, 51, 0
1, 53445, Note_on_c, 1, 70, 0
1, 53458, Note_on_c, 3, 63, 0
1, 53458, Note_on_c, 3, 65, 0
1, 53460, Note_on_c, 9, 51, 100
1, 53460, Note_on_c, 4, 47, 100
1, 53460, Note_on_c, 3, 61, 100
1, 53460, Note_on_c, 3, 68, 100
1, 53460, Note_on_c, 9, 36, 100
1, 53460, Note_on_c, 1, 68, 100
1, 53460, Note_on_c, 3, 58, 100
1, 53480, Note_on_c, 9, 38, 0
1, 53500, Note_on_c, 9, 51, 0
1, 53500, Note_on_c, 9, 36, 0
1, 53520, Note_on_c, 4, 47, 0
1, 53520, Note_on_c, 9, 51, 100
1, 53550, Note_on_c, 1, 68, 0
1, 53550, Note_on_c, 4, 47, 100
1, 53560, Note_on_c, 9, 51, 0
1, 53570, Note_on_c, 4, 47, 0
1, 53580, Note_on_c, 9, 36, 100
1, 53580, Note_on_c, 1, 65, 100
1, 53580, Note_on_c, 9, 51, 100
1, 53580, Note_on_c, 4, 47, 100
1, 53620, Note_on_c, 9, 51, 0
1, 53620, Note_on_c, 9, 36, 0
1, 53625, Note_on_c, 1, 65, 0
1, 53640, Note_on_c, 9, 38, 110
1, 53640, Note_on_c, 9, 51, 100
1, 53640, Note_on_c, 1, 61, 100
1, 53660, Note_on_c, 4, 47, 0
1, 53680, Note_on_c, 9, 51, 0
1, 53685, Note_on_c, 1, 61, 0
1, 53698, Note_on_c, 3, 68, 0
1, 53698, Note_on_c, 3, 61, 0
1, 53698, Note_on_c, 3, 58, 0
1, 53700, Note_on_c, 3, 66, 100
1, 53700, Note_on_c, 4, 47, 100
1, 53700, Note_on_c, 1, 71, 100
1, 53700, Note_on_c, 3, 71, 100
1, 53700, Note_on_c, 9, 51, 100
1, 53700, Note_on_c, 9, 36, 100
1, 53700, Note_on_c, 3, 63, 100
1, 53700, Note_on_c, 3, 59, 100
1, 53720, Note_on_c, 9, 36, 0
1, 53720, Note_on_c, 9, 38, 0
1, 53740, Note_on_c, 9, 51, 0
1, 53760, Note_on_c, 9, 51, 100
1, 53790, Note_on_c, 1, 71, 0
1, 53800, Note_on_c, 9, 51, 0
1, 53818, Note_on_c, 3, 63, 0
1, 53818, Note_on_c, 3, 71, 0
1, 53818, Note_on_c, 3, 59, 0
1, 53818, Note_on_c, 3, 66, 0
1, 53820, Note_on_c, 4, 47, 0
1, 53820, Note_on_c, 9, 51, 100
1, 53820, Note_on_c, 9, 36, 100
1, 53820, Note_on_c, 1, 70, 100
1, 53820, Note_on_c, 3, 70, 100
1, 53820, Note_on_c, 3, 66, 100
1, 53820, Note_on_c, 3, 61, 100
1, 53820, Note_on_c, 4, 47, 100
1, 53860, Note_on_c, 9, 36, 0
1, 53860, Note_on_c, 9, 51, 0
1, 53880, Note_on_c, 9, 38, 110
1, 53880, Note_on_c, 9, 51, 100
1, 53900, Note_on_c, 4, 47, 0
1, 53910, Note_on_c, 1, 70, 0
1, 53920, Note_on_c, 9, 51, 0
1, 53938, Note_on_c, 3, 66, 0
1, 53938, Note_on_c, 3, 70, 0
1, 53938, Note_on_c, 3, 61, 0
1, 53940, Note_on_c, 9, 51, 100
1, 53940, Note_on_c, 9, 36, 100
1, 53940, Note_on_c, 1, 68, 100
1, 53940, Note_on_c, 3, 61, 100
1, 53940, Note_on_c, 3, 65, 100
1, 53940, Note_on_c, 4, 49, 100
1, 53940, Note_on_c, 3, 68, 100
1, 53960, Note_on_c, 9, 38, 0
1, 53970, Note_on_c, 9, 43, 100
1, 53980, Note_on_c, 9, 51, 0
1, 53980, Note_on_c, 4, 49, 0
1, 53980, Note_on_c, 9, 36, 0
1, 53985, Note_on_c, 1, 68, 0
1, 53990, Note_on_c, 9, 43, 0
1, 54000, Note_on_c, 9, 36, 100
1, 54000, Note_on_c, 4, 49, 100
1, 54000, Note_on_c, 1, 68, 100
1, 54000, Note_on_c, 9, 51, 100
1, 54030, Note_on_c, 9, 43, 100
1, 54040, Note_on_c, 9, 51, 0
1, 54040, Note_on_c, 9, 36, 0
1, 54050, Note_on_c, 9, 43, 0
1, 54060, Note_on_c, 9, 51, 100
1, 54060, Note_on_c, 9, 43, 100
1, 54080, Note_on_c, 9, 43, 0
1, 54090, Note_on_c, 9, 47, 100
1, 54100, Note_on_c, 9, 51, 0
1, 54110, Note_on_c, 9, 47, 0
1, 54120, Note_on_c, 4, 49, 0
1, 54120, Note_on_c, 9, 51, 100
1, 54120, Note_on_c, 9, 45, 100
1, 54140, Note_on_c, 9, 45, 0
1, 54150, Note_on_c, 9, 45, 100
1, 54160, Note_on_c, 9, 51, 0
1, 54170, Note_on_c, 9, 45, 0
1, 54180, Note_on_c, 9, 51, 100
1, 54180, Note_on_c, 9, 45, 100
1, 54200, Note_on_c, 9, 45, 0
1, 54200, Note_on_c, 1, 68, 0
1, 54210, Note_on_c, 9, 47, 100
1, 54220, Note_on_c, 9, 51, 0
1, 54227, Note_on_c, 3, 68, 0
1, 54227, Note_on_c, 3, 61, 0
1, 54227, Note_on_c, 3, 65, 0
1, 54230, Note_on_c, 9, 47, 0
1, 54240, Note_on_c, 3, 61, 100
1, 54240, Note_on_c, 4, 42, 100
1, 54240, Note_on_c, 9, 42, 50
1, 54240, Note_on_c, 3, 68, 100
1, 54240, Note_on_c, 9, 36, 100
1, 54240, Note_on_c, 3, 59, 100
1, 54240, Control_c, 7, 7, 100
1, 54240, Note_on_c, 7, 59, 100
1, 54240, Note_on_c, 7, 56, 100
1, 54268, Note_on_c, 9, 42, 0
1, 54270, Note_on_c, 9, 42, 50
1, 54280, Note_on_c, 9, 36, 0
1, 54298, Note_on_c, 9, 42, 0
1, 54300, Note_on_c, 4, 42, 0
1, 54300, Note_on_c, 7, 56, 0
1, 54300, Note_on_c, 7, 59, 0
1, 54300, Note_on_c, 9, 42, 50
1, 54328, Note_on_c, 9, 42, 0
1, 54330, Note_on_c, 4, 46, 100
1, 54330, Note_on_c, 9, 42, 50
1, 54330, Note_on_c, 7, 56, 100
1, 54330, Note_on_c, 9, 36, 100
1, 54330, Note_on_c, 7, 61, 100
1, 54358, Note_on_c, 9, 42, 0
1, 54360, Note_on_c, 9, 38, 110
1, 54360, Note_on_c, 9, 42, 50
1, 54370, Note_on_c, 9, 36, 0
1, 54388, Note_on_c, 9, 42, 0
1, 54390, Note_on_c, 4, 46, 0
1, 54390, Note_on_c, 9, 42, 50
1, 54418, Note_on_c, 9, 42, 0
1, 54420, Note_on_c, 9, 42, 50
1, 54420, Note_on_c, 9, 36, 100
1, 54420, Note_on_c, 4, 49, 100
1, 54440, Note_on_c, 7, 56, 0
1, 54440, Note_on_c, 9, 38, 0
1, 54440, Note_on_c, 7, 61, 0
1, 54448, Note_on_c, 9, 42, 0
1, 54450, Note_on_c, 9, 42, 50
1, 54460, Note_on_c, 9, 36, 0
1, 54478, Note_on_c, 9, 42, 0
1, 54480, Note_on_c, 9, 42, 50
1, 54480, Note_on_c, 7, 56, 100
1, 54480, Note_on_c, 7, 59, 100
1, 54500, Note_on_c, 4, 49, 0
1, 54508, Note_on_c, 9, 42, 0
1, 54510, Note_on_c, 9, 42, 50
1, 54520, Note_on_c, 7, 56, 0
1, 54520, Note_on_c, 7, 59, 0
1, 54538, Note_on_c, 9, 42, 0
1, 54540, Note_on_c, 7, 59, 100
1, 54540, Note_on_c, 7, 56, 100
1, 54540, Note_on_c, 9, 36, 100
1, 54540, Note_on_c, 4, 49, 100
1, 54540, Note_on_c, 9, 42, 50
1, 54568, Note_on_c, 9, 42, 0
1, 54570, Note_on_c, 9, 42, 50
1, 54580, Note_on_c, 9, 36, 0
1, 54580, Note_on_c, 7, 59, 0
1, 54580, Note_on_c, 7, 56, 0
1, 54598, Note_on_c, 9, 42, 0
1, 54600, Note_on_c, 9, 38, 110
1, 54600, Note_on_c, 7, 56, 100
1, 54600, Note_on_c, 7, 61, 100
1, 54600, Note_on_c, 9, 42, 50
1, 54620, Note_on_c, 4, 49, 0
1, 54628, Note_on_c, 9, 42, 0
1, 54630, Note_on_c, 9, 42, 50
1, 54658, Note_on_c, 9, 42, 0
1, 54660, Note_on_c, 4, 49, 100
1, 54660, Note_on_c, 9, 36, 100
1, 54660, Note_on_c, 9, 42, 50
1, 54680, Note_on_c, 9, 36, 0
1, 54680, Note_on_c, 4, 49, 0
1, 54680, Note_on_c, 9, 38, 0
1, 54680, Note_on_c, 7, 56, 0
1, 54680, Note_on_c, 7, 61, 0
1, 54688, Note_on_c, 9, 42, 0
1, 54690, Note_on_c, 9, 36, 100
1, 54690, Note_on_c, 4, 49, 100
1, 54690, Note_on_c, 9, 42, 50
1, 54710, Note_on_c, 4, 49, 0
1, 54710, Note_on_c, 9, 36, 0
1, 54718, Note_on_c, 3, 61, 0
1, 54718, Note_on_c, 3, 59, 0
1, 54718, Note_on_c, 9, 42, 0
1, 54718, Note_on_c, 3, 68, 0
1, 54720, Note_on_c, 7, 59, 100
1, 54720, Note_on_c, 7, 56, 100
1, 54720, Note_on_c, 3, 68, 100
1, 54720, Note_on_c, 3, 61, 100
1, 54720, Note_on_c, 3, 59, 100
1, 54720, Note_on_c, 4, 42, 100
1, 54720, Note_on_c, 9, 42, 50
1, 54720, Note_on_c, 9, 36, 100
1, 54748, Note_on_c, 9, 42, 0
1, 54750, Note_on_c, 9, 42, 50
1, 54760, Note_on_c, 9, 36, 0
1, 54778, Note_on_c, 9, 42, 0
1, 54780, Note_on_c, 7, 56, 0
1, 54780, Note_on_c, 7, 59, 0
1, 54780, Note_on_c, 4, 42, 0
1, 54780, Note_on_c, 9, 42, 50
1, 54808, Note_on_c, 9, 42, 0
1, 54810, Note_on_c, 7, 61, 100
1, 54810, Note_on_c, 7, 56, 100
1, 54810, Note_on_c, 9, 36, 100
1, 54810, Note_on_c, 4, 46, 100
1, 54810, Note_on_c, 9, 42, 50
1, 54838, Note_on_c, 9, 42, 0
1, 54840, Note_on_c, 9, 42, 50
1, 54840, Note_on_c, 9, 38, 110
1, 54850, Note_on_c, 9, 36, 0
1, 54868, Note_on_c, 9, 42, 0
1, 54870, Note_on_c, 4, 46, 0
1, 54870, Note_on_c, 9, 42, 50
1, 54898, Note_on_c, 9, 42, 0
1, 54900, Note_on_c, 4, 49, 100
1, 54900, Note_on_c, 9, 36, 100
1, 54900, Note_on_c, 9, 42, 50
1, 54920, Note_on_c, 7, 56, 0
1, 54920, Note_on_c, 9, 38, 0
1, 54920, Note_on_c, 7, 61, 0
1, 54928, Note_on_c, 9, 42, 0
1, 54930, Note_on_c, 9, 42, 50
1, 54940, Note_on_c, 9, 36, 0
1, 54958, Note_on_c, 9, 42, 0
1, 54960, Note_on_c, 9, 42, 50
1, 54960, Note_on_c, 7, 59, 100
1, 54960, Note_on_c, 7, 56, 100
1, 54980, Note_on_c, 4, 49, 0
1, 54988, Note_on_c, 9, 42, 0
1, 54990, Note_on_c, 9, 42, 50
1, 55000, Note_on_c, 7, 59, 0
1, 55000, Note_on_c, 7, 56, 0
1, 55018, Note_on_c, 9, 42, 0
1, 55020, Note_on_c, 7, 56, 100
1, 55020, Note_on_c, 4, 49, 100
1, 55020, Note_on_c, 9, 36, 100
1, 55020, Note_on_c, 7, 59, 100
1, 55020, Note_on_c, 9, 42, 50
1, 55048, Note_on_c, 9, 42, 0
1, 55050, Note_on_c, 9, 42, 50
1, 55060, Note_on_c, 7, 59, 0
1, 55060, Note_on_c, 9, 36, 0
1, 55060, Note_on_c, 7, 56, 0
1, 55078, Note_on_c, 9, 42, 0
1, 55080, Note_on_c, 9, 42, 50
1, 55080, Note_on_c, 7, 61, 100
1, 55080, Note_on_c, 9, 38, 110
1, 55080, Note_on_c, 7, 56, 100
1, 55100, Note_on_c, 4, 49, 0
1, 55108, Note_on_c, 9, 42, 0
1, 55110, Note_on_c, 9, 42, 50
1, 55138, Note_on_c, 9, 42, 0
1, 55140, Note_on_c, 4, 49, 100
1, 55140, Note_on_c, 9, 42, 50
1, 55140, Note_on_c, 9, 36, 100
1, 55160, Note_on_c, 9, 36, 0
1, 55160, Note_on_c, 4, 49, 0
1, 55160, Note_on_c, 7, 56, 0
1, 55160, Note_on_c, 7, 61, 0
1, 55160, Note_on_c, 9, 38, 0
1, 55168, Note_on_c, 9, 42, 0
1, 55170, Note_on_c, 9, 42, 50
1, 55170, Note_on_c, 9, 36, 100
1, 55170, Note_on_c, 4, 49, 100
1, 55190, Note_on_c, 4, 49, 0
1, 55190, Note_on_c, 9, 36, 0
1, 55198, Note_on_c, 3, 59, 0
1, 55198, Note_on_c, 3, 61, 0
1, 55198, Note_on_c, 3, 68, 0
1, 55198, Note_on_c, 9, 42, 0
1, 55200, Note_on_c, 3, 68, 100
1, 55200, Note_on_c, 7, 56, 100
1, 55200, Note_on_c, 4, 42, 100
1, 55200, Note_on_c, 3, 61, 100
1, 55200, Note_on_c, 9, 36, 100
1, 55200, Note_on_c, 7, 59, 100
1, 55200, Note_on_c, 3, 59, 100
1, 55200, Note_on_c, 9, 42, 50
1, 55228, Note_on_c, 9, 42, 0
1, 55230, Note_on_c, 9, 42, 50
1, 55240, Note_on_c, 9, 36, 0
1, 55258, Note_on_c, 9, 42, 0
1, 55260, Note_on_c, 4, 42, 0
1, 55260, Note_on_c, 7, 56, 0
1, 55260, Note_on_c, 7, 59, 0
1, 55260, Note_on_c, 9, 42, 50
1, 55288, Note_on_c, 9, 42, 0
1, 55290, Note_on_c, 7, 61, 100
1, 55290, Note_on_c, 4, 46, 100
1, 55290, Note_on_c, 9, 36, 100
1, 55290, Note_on_c, 9, 42, 50
1, 55290, Note_on_c, 7, 56, 100
1, 55318, Note_on_c, 9, 42, 0
1, 55320, Note_on_c, 9, 38, 110
1, 55320, Note_on_c, 9, 42, 50
1, 55330, Note_on_c, 9, 36, 0
1, 55348, Note_on_c, 9, 42, 0
1, 55350, Note_on_c, 4, 46, 0
1, 55350, Note_on_c, 9, 42, 50
1, 55378, Note_on_c, 9, 42, 0
1, 55380, Note_on_c, 4, 49, 100
1, 55380, Note_on_c, 9, 36, 100
1, 55380, Note_on_c, 9, 42, 50
1, 55400, Note_on_c, 7, 61, 0
1, 55400, Note_on_c, 9, 38, 0
1, 55400, Note_on_c, 7, 56, 0
1, 55408, Note_on_c, 9, 42, 0
1, 55410, Note_on_c, 9, 42, 50
1, 55420, Note_on_c, 9, 36, 0
1, 55438, Note_on_c, 9, 42, 0
1, 55440, Note_on_c, 9, 42, 50
1, 55440, Note_on_c, 7, 56, 100
1, 55440, Note_on_c, 7, 59, 100
1, 55460, Note_on_c, 4, 49, 0
1, 55468, Note_on_c, 9, 42, 0
1, 55470, Note_on_c, 9, 42, 50
1, 55470, Note_on_c, 9, 38, 110
1, 55480, Note_on_c, 7, 56, 0
1, 55480, Note_on_c, 7, 59, 0
1, 55490, Note_on_c, 9, 38, 0
1, 55498, Note_on_c, 9, 42, 0
1, 55500, Note_on_c, 4, 49, 100
1, 55500, Note_on_c, 9, 36, 100
1, 55500, Note_on_c, 7, 59, 100
1, 55500, Note_on_c, 9, 42, 50
1, 55500, Note_on_c, 7, 56, 100
1, 55528, Note_on_c, 9, 42, 0
1, 55530, Note_on_c, 9, 42, 50
1, 55540, Note_on_c, 7, 56, 0
1, 55540, Note_on_c, 7, 59, 0
1, 55540, Note_on_c, 9, 36, 0
1, 55558, Note_on_c, 9, 42, 0
1, 55560, Note_on_c, 7, 56, 100
1, 55560, Note_on_c, 7, 61, 100
1, 55560, Note_on_c, 9, 42, 50
1, 55560, Note_on_c, 9, 38, 110
1, 55580, Note_on_c, 4, 49, 0
1, 55588, Note_on_c, 9, 42, 0
1, 55590, Note_on_c, 9, 42, 50
1, 55618, Note_on_c, 9, 42, 0
1, 55620, Note_on_c, 9, 36, 100
1, 55620, Note_on_c, 4, 49, 100
1, 55620, Note_on_c, 9, 42, 50
1, 55640, Note_on_c, 4, 49, 0
1, 55640, Note_on_c, 9, 36, 0
1, 55640, Note_on_c, 7, 56, 0
1, 55640, Note_on_c, 9, 38, 0
1, 55640, Note_on_c, 7, 61, 0
1, 55648, Note_on_c, 9, 42, 0
1, 55650, Note_on_c, 9, 42, 50
1, 55650, Note_on_c, 4, 49, 100
1, 55650, Note_on_c, 9, 36, 100
1, 55670, Note_on_c, 9, 36, 0
1, 55670, Note_on_c, 4, 49, 0
1, 55678, Note_on_c, 3, 61, 0
1, 55678, Note_on_c, 3, 68, 0
1, 55678, Note_on_c, 3, 59, 0
1, 55678, Note_on_c, 9, 42, 0
1, 55680, Note_on_c, 7, 61, 100
1, 55680, Note_on_c, 7, 54, 100
1, 55680, Note_on_c, 7, 66, 100
1, 55680, Note_on_c, 3, 54, 100
1, 55680, Note_on_c, 9, 38, 100
1, 55680, Note_on_c, 9, 36, 100
1, 55680, Note_on_c, 3, 66, 100
1, 55680, Note_on_c, 3, 61, 100
1, 55680, Note_on_c, 4, 46, 100
1, 55680, Note_on_c, 9, 52, 100
1, 55680, Note_on_c, 9, 42, 50
1, 55708, Note_on_c, 9, 42, 0
1, 55710, Note_on_c, 9, 42, 50
1, 55720, Note_on_c, 9, 52, 0
1, 55720, Note_on_c, 9, 36, 0
1, 55738, Note_on_c, 9, 42, 0
1, 55740, Note_on_c, 3, 54, 0
1, 55740, Note_on_c, 7, 61, 0
1, 55740, Note_on_c, 9, 38, 0
1, 55740, Note_on_c, 7, 54, 0
1, 55740, Note_on_c, 4, 46, 0
1, 55740, Note_on_c, 3, 61, 0
1, 55740, Note_on_c, 3, 66, 0
1, 55740, Note_on_c, 7, 66, 0
1, 55740, Note_on_c, 9, 42, 50
1, 55768, Note_on_c, 9, 42, 0
1, 55770, Note_on_c, 7, 64, 100
1, 55770, Note_on_c, 4, 47, 100
1, 55770, Note_on_c, 3, 61, 100
1, 55770, Note_on_c, 7, 61, 100
1, 55770, Note_on_c, 7, 54, 100
1, 55770, Note_on_c, 9, 42, 50
1, 55770, Note_on_c, 3, 64, 100
1, 55770, Note_on_c, 9, 38, 100
1, 55770, Note_on_c, 3, 54, 100
1, 55770, Note_on_c, 9, 52, 100
1, 55770, Note_on_c, 9, 36, 100
1, 55798, Note_on_c, 9, 42, 0
1, 55800, Note_on_c, 9, 42, 50
1, 55810, Note_on_c, 9, 36, 0
1, 55810, Note_on_c, 9, 52, 0
1, 55828, Note_on_c, 9, 42, 0
1, 55830, Note_on_c, 7, 61, 0
1, 55830, Note_on_c, 7, 64, 0
1, 55830, Note_on_c, 7, 54, 0
1, 55830, Note_on_c, 4, 47, 0
1, 55830, Note_on_c, 3, 54, 0
1, 55830, Note_on_c, 9, 38, 0
1, 55830, Note_on_c, 3, 64, 0
1, 55830, Note_on_c, 3, 61, 0
1, 55830, Note_on_c, 9, 42, 50
1, 55858, Note_on_c, 9, 42, 0
1, 55860, Note_on_c, 4, 49, 100
1, 55860, Note_on_c, 3, 61, 100
1, 55860, Note_on_c, 3, 56, 100
1, 55860, Note_on_c, 7, 56, 100
1, 55860, Note_on_c, 7, 61, 100
1, 55860, Note_on_c, 9, 38, 100
1, 55860, Note_on_c, 9, 36, 100
1, 55860, Note_on_c, 9, 52, 100
1, 55860, Note_on_c, 9, 42, 50
1, 55888, Note_on_c, 9, 42, 0
1, 55900, Note_on_c, 4, 49, 0
1, 55900, Note_on_c, 9, 52, 0
1, 55900, Note_on_c, 3, 61, 0
1, 55900, Note_on_c, 9, 36, 0
1, 55900, Note_on_c, 3, 56, 0
1, 55920, Note_on_c, 9, 38, 0
1, 56080, Note_on_c, 7, 61, 0
1, 56080, Note_on_c, 7, 56, 0
1, 56080, End_track
0, 0, End_of_file
