0, 0, Header, 1, 9, 960
1, 0, Start_track
1, 0, Control_c, 0, 101, 0
1, 0, Control_c, 0, 100, 0
1, 0, Control_c, 0, 6, 12
1, 0, Control_c, 0, 38, 0
1, 0, Control_c, 1, 101, 0
1, 0, Control_c, 1, 100, 0
1, 0, Control_c, 1, 6, 12
1, 0, Control_c, 1, 38, 0
1, 0, Control_c, 2, 101, 0
1, 0, Control_c, 2, 100, 0
1, 0, Control_c, 2, 6, 12
1, 0, Control_c, 2, 38, 0
1, 0, Control_c, 3, 101, 0
1, 0, Control_c, 3, 100, 0
1, 0, Control_c, 3, 6, 12
1, 0, Control_c, 3, 38, 0
1, 0, Control_c, 4, 101, 0
1, 0, Control_c, 4, 100, 0
1, 0, Control_c, 4, 6, 12
1, 0, Control_c, 4, 38, 0
1, 0, Control_c, 5, 101, 0
1, 0, Control_c, 5, 100, 0
1, 0, Control_c, 5, 6, 12
1, 0, Control_c, 5, 38, 0
1, 0, Control_c, 6, 101, 0
1, 0, Control_c, 6, 100, 0
1, 0, Control_c, 6, 6, 12
1, 0, Control_c, 6, 38, 0
1, 0, Control_c, 7, 101, 0
1, 0, Control_c, 7, 100, 0
1, 0, Control_c, 7, 6, 12
1, 0, Control_c, 7, 38, 0
1, 0, Control_c, 8, 101, 0
1, 0, Control_c, 8, 100, 0
1, 0, Control_c, 8, 6, 12
1, 0, Control_c, 8, 38, 0
1, 0, Control_c, 9, 101, 0
1, 0, Control_c, 9, 100, 0
1, 0, Control_c, 9, 6, 12
1, 0, Control_c, 9, 38, 0
1, 0, Control_c, 10, 101, 0
1, 0, Control_c, 10, 100, 0
1, 0, Control_c, 10, 6, 12
1, 0, Control_c, 10, 38, 0
1, 0, Control_c, 11, 101, 0
1, 0, Control_c, 11, 100, 0
1, 0, Control_c, 11, 6, 12
1, 0, Control_c, 11, 38, 0
1, 0, Control_c, 12, 101, 0
1, 0, Control_c, 12, 100, 0
1, 0, Control_c, 12, 6, 12
1, 0, Control_c, 12, 38, 0
1, 0, Control_c, 13, 101, 0
1, 0, Control_c, 13, 100, 0
1, 0, Control_c, 13, 6, 12
1, 0, Control_c, 13, 38, 0
1, 0, Control_c, 14, 101, 0
1, 0, Control_c, 14, 100, 0
1, 0, Control_c, 14, 6, 12
1, 0, Control_c, 14, 38, 0
1, 0, Control_c, 15, 101, 0
1, 0, Control_c, 15, 100, 0
1, 0, Control_c, 15, 6, 12
1, 0, Control_c, 15, 38, 0
1, 0, Time_signature, 4, 2, 24, 8
1, 0, Tempo, 576923
1, 0, End_track
2, 0, Start_track
2, 0, Pitch_bend_c, 9, 8192
2, 0, Control_c, 9, 7, 103
2, 0, Control_c, 9, 10, 63
2, 0, Control_c, 9, 93, 0
2, 0, Control_c, 9, 91, 0
2, 0, Control_c, 9, 95, 0
2, 0, Control_c, 9, 92, 0
2, 0, Control_c, 9, 11, 127
2, 0, Program_c, 9, 0
2, 0, Note_on_c, 9, 33, 95
2, 960, Note_off_c, 9, 33, 95
2, 1920, Note_on_c, 9, 33, 95
2, 2880, Note_off_c, 9, 33, 95
2, 3840, Note_on_c, 9, 33, 63
2, 4080, Note_off_c, 9, 33, 63
2, 4080, Note_on_c, 9, 40, 95
2, 4080, Note_on_c, 9, 40, 63
2, 4200, Note_off_c, 9, 40, 95
2, 4200, Note_off_c, 9, 40, 63
2, 4200, Note_on_c, 9, 40, 95
2, 4320, Note_off_c, 9, 40, 95
2, 4320, Note_on_c, 9, 40, 111
2, 4440, Note_off_c, 9, 40, 111
2, 4560, Note_on_c, 9, 40, 95
2, 4680, Note_off_c, 9, 40, 95
2, 4800, Note_on_c, 9, 33, 79
2, 4800, Note_on_c, 9, 40, 111
2, 4920, Note_off_c, 9, 33, 79
2, 4920, Note_off_c, 9, 40, 111
2, 5040, Note_on_c, 9, 40, 95
2, 5160, Note_off_c, 9, 40, 95
2, 5280, Note_on_c, 9, 40, 111
2, 5400, Note_off_c, 9, 40, 111
2, 5520, Note_on_c, 9, 40, 111
2, 5640, Note_off_c, 9, 40, 111
2, 5760, Note_on_c, 9, 33, 63
2, 5760, Note_on_c, 9, 47, 111
2, 5880, Note_off_c, 9, 33, 63
2, 5880, Note_off_c, 9, 47, 111
2, 6000, Note_on_c, 9, 47, 95
2, 6000, Note_on_c, 9, 47, 63
2, 6120, Note_off_c, 9, 47, 95
2, 6120, Note_off_c, 9, 47, 63
2, 6120, Note_on_c, 9, 47, 95
2, 6240, Note_off_c, 9, 47, 95
2, 6240, Note_on_c, 9, 47, 111
2, 6360, Note_off_c, 9, 47, 111
2, 6480, Note_on_c, 9, 47, 95
2, 6600, Note_off_c, 9, 47, 95
2, 6720, Note_on_c, 9, 33, 79
2, 6720, Note_on_c, 9, 47, 111
2, 6840, Note_off_c, 9, 33, 79
2, 6840, Note_off_c, 9, 47, 111
2, 6960, Note_on_c, 9, 47, 95
2, 7080, Note_off_c, 9, 47, 95
2, 7200, Note_on_c, 9, 47, 111
2, 7320, Note_off_c, 9, 47, 111
2, 7440, Note_on_c, 9, 47, 111
2, 7560, Note_off_c, 9, 47, 111
2, 7680, Note_on_c, 9, 35, 95
2, 7680, Note_on_c, 9, 42, 95
2, 7680, Note_on_c, 9, 57, 95
2, 7920, Note_off_c, 9, 35, 95
2, 7920, Note_off_c, 9, 42, 95
2, 7920, Note_off_c, 9, 57, 95
2, 7920, Note_on_c, 9, 42, 63
2, 8040, Note_off_c, 9, 42, 63
2, 8160, Note_on_c, 9, 42, 95
2, 8280, Note_off_c, 9, 42, 95
2, 8400, Note_on_c, 9, 42, 95
2, 8520, Note_off_c, 9, 42, 95
2, 8640, Note_on_c, 9, 40, 127
2, 8640, Note_on_c, 9, 42, 95
2, 8880, Note_off_c, 9, 40, 127
2, 8880, Note_off_c, 9, 42, 95
2, 8880, Note_on_c, 9, 42, 63
2, 9000, Note_off_c, 9, 42, 63
2, 9120, Note_on_c, 9, 42, 95
2, 9240, Note_off_c, 9, 42, 95
2, 9360, Note_on_c, 9, 35, 79
2, 9360, Note_on_c, 9, 42, 95
2, 9600, Note_off_c, 9, 35, 79
2, 9600, Note_off_c, 9, 42, 95
2, 9600, Note_on_c, 9, 35, 95
2, 9600, Note_on_c, 9, 42, 95
2, 9720, Note_off_c, 9, 35, 95
2, 9720, Note_off_c, 9, 42, 95
2, 9840, Note_on_c, 9, 42, 63
2, 9960, Note_off_c, 9, 42, 63
2, 10080, Note_on_c, 9, 35, 95
2, 10080, Note_on_c, 9, 42, 95
2, 10320, Note_off_c, 9, 35, 95
2, 10320, Note_off_c, 9, 42, 95
2, 10320, Note_on_c, 9, 42, 95
2, 10440, Note_off_c, 9, 42, 95
2, 10560, Note_on_c, 9, 40, 127
2, 10560, Note_on_c, 9, 42, 95
2, 10560, Note_on_c, 9, 43, 79
2, 10800, Note_off_c, 9, 40, 127
2, 10800, Note_off_c, 9, 42, 95
2, 10800, Note_off_c, 9, 43, 79
2, 10800, Note_on_c, 9, 42, 63
2, 10920, Note_off_c, 9, 42, 63
2, 11040, Note_on_c, 9, 35, 95
2, 11040, Note_on_c, 9, 42, 95
2, 11280, Note_off_c, 9, 35, 95
2, 11280, Note_off_c, 9, 42, 95
2, 11280, Note_on_c, 9, 42, 95
2, 11400, Note_off_c, 9, 42, 95
2, 11520, Note_on_c, 9, 35, 95
2, 11520, Note_on_c, 9, 42, 95
2, 11760, Note_off_c, 9, 35, 95
2, 11760, Note_off_c, 9, 42, 95
2, 11760, Note_on_c, 9, 42, 63
2, 11880, Note_off_c, 9, 42, 63
2, 12000, Note_on_c, 9, 42, 95
2, 12120, Note_off_c, 9, 42, 95
2, 12240, Note_on_c, 9, 42, 95
2, 12360, Note_off_c, 9, 42, 95
2, 12480, Note_on_c, 9, 40, 127
2, 12480, Note_on_c, 9, 42, 95
2, 12720, Note_off_c, 9, 40, 127
2, 12720, Note_off_c, 9, 42, 95
2, 12720, Note_on_c, 9, 42, 63
2, 12840, Note_off_c, 9, 42, 63
2, 12960, Note_on_c, 9, 42, 95
2, 13080, Note_off_c, 9, 42, 95
2, 13200, Note_on_c, 9, 35, 79
2, 13200, Note_on_c, 9, 42, 95
2, 13440, Note_off_c, 9, 35, 79
2, 13440, Note_off_c, 9, 42, 95
2, 13440, Note_on_c, 9, 35, 95
2, 13440, Note_on_c, 9, 42, 95
2, 13560, Note_off_c, 9, 35, 95
2, 13560, Note_off_c, 9, 42, 95
2, 13680, Note_on_c, 9, 42, 63
2, 13800, Note_off_c, 9, 42, 63
2, 13920, Note_on_c, 9, 35, 95
2, 13920, Note_on_c, 9, 42, 95
2, 14160, Note_off_c, 9, 35, 95
2, 14160, Note_off_c, 9, 42, 95
2, 14160, Note_on_c, 9, 42, 95
2, 14160, Note_on_c, 9, 50, 95
2, 14400, Note_off_c, 9, 42, 95
2, 14400, Note_off_c, 9, 50, 95
2, 14400, Note_on_c, 9, 40, 127
2, 14400, Note_on_c, 9, 42, 95
2, 14400, Note_on_c, 9, 43, 79
2, 14640, Note_off_c, 9, 40, 127
2, 14640, Note_off_c, 9, 42, 95
2, 14640, Note_off_c, 9, 43, 79
2, 14640, Note_on_c, 9, 42, 63
2, 14760, Note_off_c, 9, 42, 63
2, 14880, Note_on_c, 9, 35, 95
2, 14880, Note_on_c, 9, 40, 95
2, 14880, Note_on_c, 9, 42, 95
2, 15120, Note_off_c, 9, 35, 95
2, 15120, Note_off_c, 9, 40, 95
2, 15120, Note_off_c, 9, 42, 95
2, 15120, Note_on_c, 9, 40, 95
2, 15120, Note_on_c, 9, 46, 95
2, 15360, Note_off_c, 9, 40, 95
2, 15360, Note_off_c, 9, 46, 95
2, 15360, Note_on_c, 9, 35, 95
2, 15360, Note_on_c, 9, 42, 95
2, 15600, Note_off_c, 9, 35, 95
2, 15600, Note_off_c, 9, 42, 95
2, 15600, Note_on_c, 9, 42, 63
2, 15720, Note_off_c, 9, 42, 63
2, 15840, Note_on_c, 9, 42, 95
2, 15960, Note_off_c, 9, 42, 95
2, 16080, Note_on_c, 9, 42, 95
2, 16200, Note_off_c, 9, 42, 95
2, 16320, Note_on_c, 9, 40, 127
2, 16320, Note_on_c, 9, 42, 95
2, 16560, Note_off_c, 9, 40, 127
2, 16560, Note_off_c, 9, 42, 95
2, 16560, Note_on_c, 9, 42, 63
2, 16680, Note_off_c, 9, 42, 63
2, 16800, Note_on_c, 9, 42, 95
2, 16920, Note_off_c, 9, 42, 95
2, 17040, Note_on_c, 9, 35, 79
2, 17040, Note_on_c, 9, 42, 95
2, 17280, Note_off_c, 9, 35, 79
2, 17280, Note_off_c, 9, 42, 95
2, 17280, Note_on_c, 9, 35, 95
2, 17280, Note_on_c, 9, 42, 95
2, 17400, Note_off_c, 9, 35, 95
2, 17400, Note_off_c, 9, 42, 95
2, 17520, Note_on_c, 9, 42, 63
2, 17640, Note_off_c, 9, 42, 63
2, 17760, Note_on_c, 9, 35, 95
2, 17760, Note_on_c, 9, 42, 95
2, 18000, Note_off_c, 9, 35, 95
2, 18000, Note_off_c, 9, 42, 95
2, 18000, Note_on_c, 9, 42, 95
2, 18120, Note_off_c, 9, 42, 95
2, 18240, Note_on_c, 9, 40, 127
2, 18240, Note_on_c, 9, 42, 95
2, 18240, Note_on_c, 9, 43, 111
2, 18480, Note_off_c, 9, 40, 127
2, 18480, Note_off_c, 9, 42, 95
2, 18480, Note_off_c, 9, 43, 111
2, 18480, Note_on_c, 9, 46, 63
2, 18720, Note_off_c, 9, 46, 63
2, 18720, Note_on_c, 9, 35, 95
2, 18720, Note_on_c, 9, 42, 95
2, 18960, Note_off_c, 9, 35, 95
2, 18960, Note_off_c, 9, 42, 95
2, 18960, Note_on_c, 9, 46, 95
2, 19200, Note_off_c, 9, 46, 95
2, 19200, Note_on_c, 9, 35, 95
2, 19200, Note_on_c, 9, 42, 95
2, 19440, Note_off_c, 9, 35, 95
2, 19440, Note_off_c, 9, 42, 95
2, 19440, Note_on_c, 9, 42, 63
2, 19560, Note_off_c, 9, 42, 63
2, 19680, Note_on_c, 9, 42, 95
2, 19800, Note_off_c, 9, 42, 95
2, 19920, Note_on_c, 9, 42, 95
2, 20040, Note_off_c, 9, 42, 95
2, 20160, Note_on_c, 9, 40, 127
2, 20160, Note_on_c, 9, 42, 95
2, 20400, Note_off_c, 9, 40, 127
2, 20400, Note_off_c, 9, 42, 95
2, 20400, Note_on_c, 9, 42, 63
2, 20520, Note_off_c, 9, 42, 63
2, 20640, Note_on_c, 9, 42, 95
2, 20760, Note_off_c, 9, 42, 95
2, 20880, Note_on_c, 9, 35, 79
2, 20880, Note_on_c, 9, 42, 95
2, 21120, Note_off_c, 9, 35, 79
2, 21120, Note_off_c, 9, 42, 95
2, 21120, Note_on_c, 9, 35, 95
2, 21120, Note_on_c, 9, 42, 95
2, 21120, Note_on_c, 9, 50, 111
2, 21360, Note_off_c, 9, 35, 95
2, 21360, Note_off_c, 9, 42, 95
2, 21360, Note_off_c, 9, 50, 111
2, 21360, Note_on_c, 9, 42, 63
2, 21360, Note_on_c, 9, 50, 95
2, 21480, Note_off_c, 9, 42, 63
2, 21480, Note_off_c, 9, 50, 95
2, 21600, Note_on_c, 9, 35, 95
2, 21600, Note_on_c, 9, 42, 95
2, 21600, Note_on_c, 9, 50, 95
2, 21840, Note_off_c, 9, 35, 95
2, 21840, Note_off_c, 9, 42, 95
2, 21840, Note_off_c, 9, 50, 95
2, 21840, Note_on_c, 9, 42, 95
2, 21840, Note_on_c, 9, 47, 95
2, 22080, Note_off_c, 9, 42, 95
2, 22080, Note_off_c, 9, 47, 95
2, 22080, Note_on_c, 9, 40, 127
2, 22080, Note_on_c, 9, 42, 95
2, 22080, Note_on_c, 9, 47, 111
2, 22320, Note_off_c, 9, 40, 127
2, 22320, Note_off_c, 9, 42, 95
2, 22320, Note_off_c, 9, 47, 111
2, 22320, Note_on_c, 9, 42, 63
2, 22320, Note_on_c, 9, 47, 95
2, 22440, Note_off_c, 9, 42, 63
2, 22440, Note_off_c, 9, 47, 95
2, 22560, Note_on_c, 9, 35, 95
2, 22560, Note_on_c, 9, 42, 95
2, 22560, Note_on_c, 9, 43, 95
2, 22800, Note_off_c, 9, 35, 95
2, 22800, Note_off_c, 9, 42, 95
2, 22800, Note_off_c, 9, 43, 95
2, 22800, Note_on_c, 9, 43, 95
2, 22800, Note_on_c, 9, 46, 95
2, 23040, Note_off_c, 9, 43, 95
2, 23040, Note_off_c, 9, 46, 95
2, 23040, Note_on_c, 9, 35, 95
2, 23040, Note_on_c, 9, 42, 95
2, 23280, Note_off_c, 9, 35, 95
2, 23280, Note_off_c, 9, 42, 95
2, 23280, Note_on_c, 9, 42, 63
2, 23400, Note_off_c, 9, 42, 63
2, 23520, Note_on_c, 9, 42, 95
2, 23640, Note_off_c, 9, 42, 95
2, 23760, Note_on_c, 9, 46, 95
2, 24000, Note_off_c, 9, 46, 95
2, 24000, Note_on_c, 9, 40, 127
2, 24000, Note_on_c, 9, 42, 95
2, 24240, Note_off_c, 9, 40, 127
2, 24240, Note_off_c, 9, 42, 95
2, 24240, Note_on_c, 9, 42, 63
2, 24360, Note_off_c, 9, 42, 63
2, 24480, Note_on_c, 9, 42, 95
2, 24600, Note_off_c, 9, 42, 95
2, 24720, Note_on_c, 9, 35, 79
2, 24720, Note_on_c, 9, 42, 95
2, 24960, Note_off_c, 9, 35, 79
2, 24960, Note_off_c, 9, 42, 95
2, 24960, Note_on_c, 9, 35, 95
2, 24960, Note_on_c, 9, 42, 95
2, 25080, Note_off_c, 9, 35, 95
2, 25080, Note_off_c, 9, 42, 95
2, 25200, Note_on_c, 9, 42, 63
2, 25320, Note_off_c, 9, 42, 63
2, 25440, Note_on_c, 9, 35, 95
2, 25440, Note_on_c, 9, 42, 95
2, 25680, Note_off_c, 9, 35, 95
2, 25680, Note_off_c, 9, 42, 95
2, 25680, Note_on_c, 9, 42, 95
2, 25800, Note_off_c, 9, 42, 95
2, 25920, Note_on_c, 9, 40, 127
2, 25920, Note_on_c, 9, 42, 95
2, 26160, Note_off_c, 9, 40, 127
2, 26160, Note_off_c, 9, 42, 95
2, 26160, Note_on_c, 9, 42, 63
2, 26280, Note_off_c, 9, 42, 63
2, 26400, Note_on_c, 9, 35, 95
2, 26400, Note_on_c, 9, 42, 95
2, 26640, Note_off_c, 9, 35, 95
2, 26640, Note_off_c, 9, 42, 95
2, 26640, Note_on_c, 9, 46, 95
2, 26880, Note_off_c, 9, 46, 95
2, 26880, Note_on_c, 9, 35, 95
2, 26880, Note_on_c, 9, 42, 95
2, 27120, Note_off_c, 9, 35, 95
2, 27120, Note_off_c, 9, 42, 95
2, 27120, Note_on_c, 9, 42, 63
2, 27240, Note_off_c, 9, 42, 63
2, 27360, Note_on_c, 9, 42, 95
2, 27480, Note_off_c, 9, 42, 95
2, 27600, Note_on_c, 9, 42, 95
2, 27720, Note_off_c, 9, 42, 95
2, 27840, Note_on_c, 9, 40, 127
2, 27840, Note_on_c, 9, 42, 95
2, 28080, Note_off_c, 9, 40, 127
2, 28080, Note_off_c, 9, 42, 95
2, 28080, Note_on_c, 9, 42, 63
2, 28200, Note_off_c, 9, 42, 63
2, 28320, Note_on_c, 9, 42, 95
2, 28440, Note_off_c, 9, 42, 95
2, 28560, Note_on_c, 9, 35, 79
2, 28560, Note_on_c, 9, 42, 95
2, 28800, Note_off_c, 9, 35, 79
2, 28800, Note_off_c, 9, 42, 95
2, 28800, Note_on_c, 9, 35, 95
2, 28800, Note_on_c, 9, 42, 95
2, 28920, Note_off_c, 9, 35, 95
2, 28920, Note_off_c, 9, 42, 95
2, 29040, Note_on_c, 9, 42, 63
2, 29160, Note_off_c, 9, 42, 63
2, 29280, Note_on_c, 9, 35, 95
2, 29280, Note_on_c, 9, 42, 95
2, 29520, Note_off_c, 9, 35, 95
2, 29520, Note_off_c, 9, 42, 95
2, 29520, Note_on_c, 9, 42, 95
2, 29640, Note_off_c, 9, 42, 95
2, 29760, Note_on_c, 9, 40, 127
2, 29760, Note_on_c, 9, 42, 95
2, 29760, Note_on_c, 9, 43, 79
2, 30000, Note_off_c, 9, 40, 127
2, 30000, Note_off_c, 9, 42, 95
2, 30000, Note_off_c, 9, 43, 79
2, 30000, Note_on_c, 9, 42, 63
2, 30120, Note_off_c, 9, 42, 63
2, 30240, Note_on_c, 9, 35, 95
2, 30240, Note_on_c, 9, 42, 95
2, 30480, Note_off_c, 9, 35, 95
2, 30480, Note_off_c, 9, 42, 95
2, 30480, Note_on_c, 9, 46, 95
2, 30720, Note_off_c, 9, 46, 95
2, 30720, Note_on_c, 9, 35, 95
2, 30720, Note_on_c, 9, 42, 95
2, 30960, Note_off_c, 9, 35, 95
2, 30960, Note_off_c, 9, 42, 95
2, 30960, Note_on_c, 9, 42, 63
2, 31080, Note_off_c, 9, 42, 63
2, 31200, Note_on_c, 9, 42, 95
2, 31320, Note_off_c, 9, 42, 95
2, 31440, Note_on_c, 9, 42, 95
2, 31560, Note_off_c, 9, 42, 95
2, 31680, Note_on_c, 9, 40, 127
2, 31680, Note_on_c, 9, 42, 95
2, 31920, Note_off_c, 9, 40, 127
2, 31920, Note_off_c, 9, 42, 95
2, 31920, Note_on_c, 9, 42, 63
2, 32040, Note_off_c, 9, 42, 63
2, 32160, Note_on_c, 9, 42, 95
2, 32280, Note_off_c, 9, 42, 95
2, 32400, Note_on_c, 9, 35, 79
2, 32400, Note_on_c, 9, 42, 95
2, 32640, Note_off_c, 9, 35, 79
2, 32640, Note_off_c, 9, 42, 95
2, 32640, Note_on_c, 9, 35, 95
2, 32640, Note_on_c, 9, 42, 95
2, 32760, Note_off_c, 9, 35, 95
2, 32760, Note_off_c, 9, 42, 95
2, 32880, Note_on_c, 9, 42, 63
2, 33000, Note_off_c, 9, 42, 63
2, 33120, Note_on_c, 9, 35, 95
2, 33120, Note_on_c, 9, 42, 95
2, 33360, Note_off_c, 9, 35, 95
2, 33360, Note_off_c, 9, 42, 95
2, 33360, Note_on_c, 9, 42, 95
2, 33480, Note_off_c, 9, 42, 95
2, 33600, Note_on_c, 9, 40, 127
2, 33600, Note_on_c, 9, 42, 95
2, 33600, Note_on_c, 9, 43, 111
2, 33840, Note_off_c, 9, 40, 127
2, 33840, Note_off_c, 9, 42, 95
2, 33840, Note_off_c, 9, 43, 111
2, 33840, Note_on_c, 9, 42, 63
2, 33960, Note_off_c, 9, 42, 63
2, 34080, Note_on_c, 9, 35, 95
2, 34080, Note_on_c, 9, 42, 95
2, 34320, Note_off_c, 9, 35, 95
2, 34320, Note_off_c, 9, 42, 95
2, 34320, Note_on_c, 9, 46, 95
2, 34560, Note_off_c, 9, 46, 95
2, 34560, Note_on_c, 9, 35, 95
2, 34560, Note_on_c, 9, 42, 95
2, 34800, Note_off_c, 9, 35, 95
2, 34800, Note_off_c, 9, 42, 95
2, 34800, Note_on_c, 9, 42, 63
2, 34920, Note_off_c, 9, 42, 63
2, 35040, Note_on_c, 9, 42, 95
2, 35160, Note_off_c, 9, 42, 95
2, 35280, Note_on_c, 9, 42, 95
2, 35400, Note_off_c, 9, 42, 95
2, 35520, Note_on_c, 9, 40, 127
2, 35520, Note_on_c, 9, 42, 95
2, 35760, Note_off_c, 9, 40, 127
2, 35760, Note_off_c, 9, 42, 95
2, 35760, Note_on_c, 9, 42, 63
2, 35880, Note_off_c, 9, 42, 63
2, 36000, Note_on_c, 9, 42, 95
2, 36120, Note_off_c, 9, 42, 95
2, 36240, Note_on_c, 9, 35, 79
2, 36240, Note_on_c, 9, 42, 95
2, 36480, Note_off_c, 9, 35, 79
2, 36480, Note_off_c, 9, 42, 95
2, 36480, Note_on_c, 9, 35, 95
2, 36600, Note_off_c, 9, 35, 95
2, 36720, Note_on_c, 9, 42, 63
2, 36960, Note_off_c, 9, 42, 63
2, 36960, Note_on_c, 9, 35, 95
2, 36960, Note_on_c, 9, 40, 95
2, 36960, Note_on_c, 9, 42, 95
2, 37200, Note_off_c, 9, 35, 95
2, 37200, Note_off_c, 9, 40, 95
2, 37200, Note_off_c, 9, 42, 95
2, 37200, Note_on_c, 9, 40, 95
2, 37200, Note_on_c, 9, 42, 95
2, 37320, Note_off_c, 9, 40, 95
2, 37320, Note_off_c, 9, 42, 95
2, 37440, Note_on_c, 9, 40, 127
2, 37440, Note_on_c, 9, 42, 95
2, 37560, Note_off_c, 9, 40, 127
2, 37560, Note_off_c, 9, 42, 95
2, 37680, Note_on_c, 9, 42, 63
2, 37800, Note_off_c, 9, 42, 63
2, 37920, Note_on_c, 9, 35, 95
2, 37920, Note_on_c, 9, 40, 111
2, 37920, Note_on_c, 9, 42, 95
2, 38160, Note_off_c, 9, 35, 95
2, 38160, Note_off_c, 9, 40, 111
2, 38160, Note_off_c, 9, 42, 95
2, 38160, Note_on_c, 9, 40, 111
2, 38160, Note_on_c, 9, 46, 95
2, 38400, Note_off_c, 9, 40, 111
2, 38400, Note_off_c, 9, 46, 95
2, 38400, Note_on_c, 9, 35, 95
2, 38400, Note_on_c, 9, 42, 95
2, 38640, Note_off_c, 9, 35, 95
2, 38640, Note_off_c, 9, 42, 95
2, 38640, Note_on_c, 9, 42, 63
2, 38760, Note_off_c, 9, 42, 63
2, 38880, Note_on_c, 9, 42, 95
2, 39000, Note_off_c, 9, 42, 95
2, 39120, Note_on_c, 9, 42, 95
2, 39240, Note_off_c, 9, 42, 95
2, 39360, Note_on_c, 9, 40, 127
2, 39360, Note_on_c, 9, 42, 95
2, 39600, Note_off_c, 9, 40, 127
2, 39600, Note_off_c, 9, 42, 95
2, 39600, Note_on_c, 9, 42, 63
2, 39720, Note_off_c, 9, 42, 63
2, 39840, Note_on_c, 9, 42, 95
2, 39960, Note_off_c, 9, 42, 95
2, 40080, Note_on_c, 9, 35, 79
2, 40080, Note_on_c, 9, 42, 95
2, 40320, Note_off_c, 9, 35, 79
2, 40320, Note_off_c, 9, 42, 95
2, 40320, Note_on_c, 9, 35, 95
2, 40320, Note_on_c, 9, 42, 95
2, 40440, Note_off_c, 9, 35, 95
2, 40440, Note_off_c, 9, 42, 95
2, 40560, Note_on_c, 9, 42, 63
2, 40680, Note_off_c, 9, 42, 63
2, 40800, Note_on_c, 9, 35, 95
2, 40800, Note_on_c, 9, 42, 95
2, 41040, Note_off_c, 9, 35, 95
2, 41040, Note_off_c, 9, 42, 95
2, 41040, Note_on_c, 9, 42, 95
2, 41160, Note_off_c, 9, 42, 95
2, 41280, Note_on_c, 9, 40, 127
2, 41280, Note_on_c, 9, 42, 95
2, 41280, Note_on_c, 9, 43, 79
2, 41520, Note_off_c, 9, 40, 127
2, 41520, Note_off_c, 9, 42, 95
2, 41520, Note_off_c, 9, 43, 79
2, 41520, Note_on_c, 9, 42, 63
2, 41640, Note_off_c, 9, 42, 63
2, 41760, Note_on_c, 9, 35, 95
2, 41760, Note_on_c, 9, 42, 95
2, 42000, Note_off_c, 9, 35, 95
2, 42000, Note_off_c, 9, 42, 95
2, 42000, Note_on_c, 9, 42, 95
2, 42120, Note_off_c, 9, 42, 95
2, 42240, Note_on_c, 9, 35, 95
2, 42240, Note_on_c, 9, 42, 95
2, 42480, Note_off_c, 9, 35, 95
2, 42480, Note_off_c, 9, 42, 95
2, 42480, Note_on_c, 9, 42, 63
2, 42600, Note_off_c, 9, 42, 63
2, 42720, Note_on_c, 9, 42, 95
2, 42840, Note_off_c, 9, 42, 95
2, 42960, Note_on_c, 9, 42, 95
2, 43080, Note_off_c, 9, 42, 95
2, 43200, Note_on_c, 9, 40, 127
2, 43200, Note_on_c, 9, 42, 95
2, 43440, Note_off_c, 9, 40, 127
2, 43440, Note_off_c, 9, 42, 95
2, 43440, Note_on_c, 9, 42, 63
2, 43560, Note_off_c, 9, 42, 63
2, 43680, Note_on_c, 9, 42, 95
2, 43800, Note_off_c, 9, 42, 95
2, 43920, Note_on_c, 9, 35, 79
2, 43920, Note_on_c, 9, 42, 95
2, 44160, Note_off_c, 9, 35, 79
2, 44160, Note_off_c, 9, 42, 95
2, 44160, Note_on_c, 9, 35, 95
2, 44160, Note_on_c, 9, 42, 95
2, 44280, Note_off_c, 9, 35, 95
2, 44280, Note_off_c, 9, 42, 95
2, 44400, Note_on_c, 9, 42, 63
2, 44520, Note_off_c, 9, 42, 63
2, 44640, Note_on_c, 9, 35, 95
2, 44640, Note_on_c, 9, 42, 95
2, 44880, Note_off_c, 9, 35, 95
2, 44880, Note_off_c, 9, 42, 95
2, 44880, Note_on_c, 9, 42, 95
2, 45000, Note_off_c, 9, 42, 95
2, 45120, Note_on_c, 9, 40, 127
2, 45120, Note_on_c, 9, 42, 95
2, 45360, Note_off_c, 9, 40, 127
2, 45360, Note_off_c, 9, 42, 95
2, 45360, Note_on_c, 9, 42, 63
2, 45480, Note_off_c, 9, 42, 63
2, 45600, Note_on_c, 9, 35, 95
2, 45600, Note_on_c, 9, 42, 95
2, 45840, Note_off_c, 9, 35, 95
2, 45840, Note_off_c, 9, 42, 95
2, 45840, Note_on_c, 9, 42, 95
2, 45960, Note_off_c, 9, 42, 95
2, 46080, Note_on_c, 9, 35, 95
2, 46080, Note_on_c, 9, 42, 95
2, 46320, Note_off_c, 9, 35, 95
2, 46320, Note_off_c, 9, 42, 95
2, 46320, Note_on_c, 9, 42, 63
2, 46440, Note_off_c, 9, 42, 63
2, 46560, Note_on_c, 9, 42, 95
2, 46680, Note_off_c, 9, 42, 95
2, 46800, Note_on_c, 9, 42, 95
2, 46920, Note_off_c, 9, 42, 95
2, 47040, Note_on_c, 9, 40, 127
2, 47040, Note_on_c, 9, 42, 95
2, 47280, Note_off_c, 9, 40, 127
2, 47280, Note_off_c, 9, 42, 95
2, 47280, Note_on_c, 9, 42, 63
2, 47400, Note_off_c, 9, 42, 63
2, 47520, Note_on_c, 9, 42, 95
2, 47640, Note_off_c, 9, 42, 95
2, 47760, Note_on_c, 9, 35, 79
2, 47760, Note_on_c, 9, 42, 95
2, 48000, Note_off_c, 9, 35, 79
2, 48000, Note_off_c, 9, 42, 95
2, 48000, Note_on_c, 9, 35, 95
2, 48000, Note_on_c, 9, 42, 95
2, 48120, Note_off_c, 9, 35, 95
2, 48120, Note_off_c, 9, 42, 95
2, 48240, Note_on_c, 9, 42, 63
2, 48360, Note_off_c, 9, 42, 63
2, 48480, Note_on_c, 9, 35, 95
2, 48480, Note_on_c, 9, 42, 95
2, 48720, Note_off_c, 9, 35, 95
2, 48720, Note_off_c, 9, 42, 95
2, 48720, Note_on_c, 9, 42, 95
2, 48840, Note_off_c, 9, 42, 95
2, 48960, Note_on_c, 9, 40, 127
2, 48960, Note_on_c, 9, 42, 95
2, 48960, Note_on_c, 9, 43, 79
2, 49200, Note_off_c, 9, 40, 127
2, 49200, Note_off_c, 9, 42, 95
2, 49200, Note_off_c, 9, 43, 79
2, 49200, Note_on_c, 9, 42, 63
2, 49320, Note_off_c, 9, 42, 63
2, 49440, Note_on_c, 9, 35, 95
2, 49440, Note_on_c, 9, 42, 95
2, 49680, Note_off_c, 9, 35, 95
2, 49680, Note_off_c, 9, 42, 95
2, 49680, Note_on_c, 9, 46, 95
2, 49920, Note_off_c, 9, 46, 95
2, 49920, Note_on_c, 9, 35, 95
2, 49920, Note_on_c, 9, 42, 95
2, 50160, Note_off_c, 9, 35, 95
2, 50160, Note_off_c, 9, 42, 95
2, 50160, Note_on_c, 9, 42, 63
2, 50280, Note_off_c, 9, 42, 63
2, 50400, Note_on_c, 9, 42, 95
2, 50520, Note_off_c, 9, 42, 95
2, 50640, Note_on_c, 9, 42, 95
2, 50760, Note_off_c, 9, 42, 95
2, 50880, Note_on_c, 9, 40, 127
2, 50880, Note_on_c, 9, 42, 95
2, 51120, Note_off_c, 9, 40, 127
2, 51120, Note_off_c, 9, 42, 95
2, 51120, Note_on_c, 9, 42, 63
2, 51240, Note_off_c, 9, 42, 63
2, 51360, Note_on_c, 9, 42, 95
2, 51480, Note_off_c, 9, 42, 95
2, 51600, Note_on_c, 9, 35, 79
2, 51600, Note_on_c, 9, 42, 95
2, 51840, Note_off_c, 9, 35, 79
2, 51840, Note_off_c, 9, 42, 95
2, 51840, Note_on_c, 9, 35, 95
2, 51840, Note_on_c, 9, 42, 95
2, 51960, Note_off_c, 9, 35, 95
2, 51960, Note_off_c, 9, 42, 95
2, 52080, Note_on_c, 9, 42, 63
2, 52200, Note_off_c, 9, 42, 63
2, 52320, Note_on_c, 9, 35, 95
2, 52320, Note_on_c, 9, 42, 95
2, 52560, Note_off_c, 9, 35, 95
2, 52560, Note_off_c, 9, 42, 95
2, 52560, Note_on_c, 9, 42, 95
2, 52680, Note_off_c, 9, 42, 95
2, 52800, Note_on_c, 9, 40, 127
2, 52800, Note_on_c, 9, 42, 95
2, 52800, Note_on_c, 9, 43, 111
2, 53040, Note_off_c, 9, 40, 127
2, 53040, Note_off_c, 9, 42, 95
2, 53040, Note_off_c, 9, 43, 111
2, 53040, Note_on_c, 9, 42, 63
2, 53160, Note_off_c, 9, 42, 63
2, 53280, Note_on_c, 9, 35, 95
2, 53280, Note_on_c, 9, 42, 95
2, 53520, Note_off_c, 9, 35, 95
2, 53520, Note_off_c, 9, 42, 95
2, 53520, Note_on_c, 9, 42, 95
2, 53640, Note_off_c, 9, 42, 95
2, 53760, Note_on_c, 9, 35, 95
2, 53760, Note_on_c, 9, 42, 95
2, 54000, Note_off_c, 9, 35, 95
2, 54000, Note_off_c, 9, 42, 95
2, 54000, Note_on_c, 9, 42, 63
2, 54120, Note_off_c, 9, 42, 63
2, 54240, Note_on_c, 9, 42, 95
2, 54360, Note_off_c, 9, 42, 95
2, 54480, Note_on_c, 9, 42, 95
2, 54600, Note_off_c, 9, 42, 95
2, 54720, Note_on_c, 9, 40, 127
2, 54720, Note_on_c, 9, 42, 95
2, 54960, Note_off_c, 9, 40, 127
2, 54960, Note_off_c, 9, 42, 95
2, 54960, Note_on_c, 9, 42, 63
2, 55080, Note_off_c, 9, 42, 63
2, 55200, Note_on_c, 9, 42, 95
2, 55320, Note_off_c, 9, 42, 95
2, 55440, Note_on_c, 9, 35, 79
2, 55440, Note_on_c, 9, 42, 95
2, 55680, Note_off_c, 9, 35, 79
2, 55680, Note_off_c, 9, 42, 95
2, 55680, Note_on_c, 9, 35, 95
2, 55680, Note_on_c, 9, 42, 95
2, 55800, Note_off_c, 9, 35, 95
2, 55800, Note_off_c, 9, 42, 95
2, 55920, Note_on_c, 9, 42, 63
2, 56040, Note_off_c, 9, 42, 63
2, 56160, Note_on_c, 9, 35, 95
2, 56160, Note_on_c, 9, 42, 95
2, 56400, Note_off_c, 9, 35, 95
2, 56400, Note_off_c, 9, 42, 95
2, 56400, Note_on_c, 9, 42, 95
2, 56400, Note_on_c, 9, 50, 95
2, 56640, Note_off_c, 9, 42, 95
2, 56640, Note_off_c, 9, 50, 95
2, 56640, Note_on_c, 9, 40, 127
2, 56640, Note_on_c, 9, 42, 95
2, 56640, Note_on_c, 9, 43, 79
2, 56880, Note_off_c, 9, 40, 127
2, 56880, Note_off_c, 9, 42, 95
2, 56880, Note_off_c, 9, 43, 79
2, 56880, Note_on_c, 9, 42, 63
2, 57000, Note_off_c, 9, 42, 63
2, 57120, Note_on_c, 9, 35, 95
2, 57120, Note_on_c, 9, 42, 95
2, 57360, Note_off_c, 9, 35, 95
2, 57360, Note_off_c, 9, 42, 95
2, 57360, Note_on_c, 9, 42, 95
2, 57480, Note_off_c, 9, 42, 95
2, 57600, Note_on_c, 9, 35, 95
2, 57600, Note_on_c, 9, 42, 95
2, 57840, Note_off_c, 9, 35, 95
2, 57840, Note_off_c, 9, 42, 95
2, 57840, Note_on_c, 9, 42, 63
2, 57960, Note_off_c, 9, 42, 63
2, 58080, Note_on_c, 9, 42, 95
2, 58200, Note_off_c, 9, 42, 95
2, 58320, Note_on_c, 9, 42, 95
2, 58440, Note_off_c, 9, 42, 95
2, 58560, Note_on_c, 9, 40, 127
2, 58560, Note_on_c, 9, 42, 95
2, 58800, Note_off_c, 9, 40, 127
2, 58800, Note_off_c, 9, 42, 95
2, 58800, Note_on_c, 9, 42, 63
2, 58920, Note_off_c, 9, 42, 63
2, 59040, Note_on_c, 9, 42, 95
2, 59160, Note_off_c, 9, 42, 95
2, 59280, Note_on_c, 9, 35, 79
2, 59280, Note_on_c, 9, 42, 95
2, 59520, Note_off_c, 9, 35, 79
2, 59520, Note_off_c, 9, 42, 95
2, 59520, Note_on_c, 9, 35, 95
2, 59520, Note_on_c, 9, 42, 95
2, 59640, Note_off_c, 9, 35, 95
2, 59640, Note_off_c, 9, 42, 95
2, 59760, Note_on_c, 9, 42, 63
2, 59880, Note_off_c, 9, 42, 63
2, 60000, Note_on_c, 9, 35, 95
2, 60000, Note_on_c, 9, 42, 95
2, 60240, Note_off_c, 9, 35, 95
2, 60240, Note_off_c, 9, 42, 95
2, 60240, Note_on_c, 9, 42, 95
2, 60240, Note_on_c, 9, 50, 95
2, 60480, Note_off_c, 9, 42, 95
2, 60480, Note_off_c, 9, 50, 95
2, 60480, Note_on_c, 9, 40, 127
2, 60480, Note_on_c, 9, 42, 95
2, 60480, Note_on_c, 9, 43, 79
2, 60720, Note_off_c, 9, 40, 127
2, 60720, Note_off_c, 9, 42, 95
2, 60720, Note_off_c, 9, 43, 79
2, 60720, Note_on_c, 9, 42, 63
2, 60840, Note_off_c, 9, 42, 63
2, 60960, Note_on_c, 9, 35, 95
2, 60960, Note_on_c, 9, 42, 95
2, 61200, Note_off_c, 9, 35, 95
2, 61200, Note_off_c, 9, 42, 95
2, 61200, Note_on_c, 9, 46, 95
2, 61440, Note_off_c, 9, 46, 95
2, 61440, Note_on_c, 9, 35, 95
2, 61440, Note_on_c, 9, 42, 95
2, 61680, Note_off_c, 9, 35, 95
2, 61680, Note_off_c, 9, 42, 95
2, 61680, Note_on_c, 9, 42, 63
2, 61800, Note_off_c, 9, 42, 63
2, 61920, Note_on_c, 9, 42, 95
2, 62040, Note_off_c, 9, 42, 95
2, 62160, Note_on_c, 9, 42, 95
2, 62280, Note_off_c, 9, 42, 95
2, 62400, Note_on_c, 9, 40, 127
2, 62400, Note_on_c, 9, 42, 95
2, 62640, Note_off_c, 9, 40, 127
2, 62640, Note_off_c, 9, 42, 95
2, 62640, Note_on_c, 9, 42, 63
2, 62760, Note_off_c, 9, 42, 63
2, 62880, Note_on_c, 9, 42, 95
2, 63000, Note_off_c, 9, 42, 95
2, 63120, Note_on_c, 9, 35, 79
2, 63120, Note_on_c, 9, 42, 95
2, 63360, Note_off_c, 9, 35, 79
2, 63360, Note_off_c, 9, 42, 95
2, 63360, Note_on_c, 9, 35, 95
2, 63360, Note_on_c, 9, 42, 95
2, 63480, Note_off_c, 9, 35, 95
2, 63480, Note_off_c, 9, 42, 95
2, 63600, Note_on_c, 9, 42, 63
2, 63720, Note_off_c, 9, 42, 63
2, 63840, Note_on_c, 9, 35, 95
2, 63840, Note_on_c, 9, 42, 95
2, 64080, Note_off_c, 9, 35, 95
2, 64080, Note_off_c, 9, 42, 95
2, 64080, Note_on_c, 9, 42, 95
2, 64200, Note_off_c, 9, 42, 95
2, 64320, Note_on_c, 9, 40, 127
2, 64320, Note_on_c, 9, 42, 95
2, 64560, Note_off_c, 9, 40, 127
2, 64560, Note_off_c, 9, 42, 95
2, 64560, Note_on_c, 9, 42, 63
2, 64680, Note_off_c, 9, 42, 63
2, 64800, Note_on_c, 9, 35, 95
2, 64800, Note_on_c, 9, 42, 95
2, 65040, Note_off_c, 9, 35, 95
2, 65040, Note_off_c, 9, 42, 95
2, 65040, Note_on_c, 9, 46, 95
2, 65280, Note_off_c, 9, 46, 95
2, 65280, Note_on_c, 9, 35, 95
2, 65280, Note_on_c, 9, 42, 95
2, 65520, Note_off_c, 9, 35, 95
2, 65520, Note_off_c, 9, 42, 95
2, 65520, Note_on_c, 9, 42, 63
2, 65640, Note_off_c, 9, 42, 63
2, 65760, Note_on_c, 9, 42, 95
2, 65880, Note_off_c, 9, 42, 95
2, 66000, Note_on_c, 9, 42, 95
2, 66120, Note_off_c, 9, 42, 95
2, 66240, Note_on_c, 9, 40, 127
2, 66240, Note_on_c, 9, 42, 95
2, 66480, Note_off_c, 9, 40, 127
2, 66480, Note_off_c, 9, 42, 95
2, 66480, Note_on_c, 9, 42, 63
2, 66600, Note_off_c, 9, 42, 63
2, 66720, Note_on_c, 9, 42, 95
2, 66840, Note_off_c, 9, 42, 95
2, 66960, Note_on_c, 9, 35, 79
2, 66960, Note_on_c, 9, 42, 95
2, 67200, Note_off_c, 9, 35, 79
2, 67200, Note_off_c, 9, 42, 95
2, 67200, Note_on_c, 9, 35, 95
2, 67200, Note_on_c, 9, 42, 95
2, 67200, Note_on_c, 9, 50, 111
2, 67440, Note_off_c, 9, 35, 95
2, 67440, Note_off_c, 9, 42, 95
2, 67440, Note_off_c, 9, 50, 111
2, 67440, Note_on_c, 9, 42, 63
2, 67440, Note_on_c, 9, 50, 95
2, 67560, Note_off_c, 9, 42, 63
2, 67560, Note_off_c, 9, 50, 95
2, 67680, Note_on_c, 9, 35, 95
2, 67680, Note_on_c, 9, 42, 95
2, 67680, Note_on_c, 9, 50, 95
2, 67920, Note_off_c, 9, 35, 95
2, 67920, Note_off_c, 9, 42, 95
2, 67920, Note_off_c, 9, 50, 95
2, 67920, Note_on_c, 9, 42, 95
2, 67920, Note_on_c, 9, 47, 95
2, 68160, Note_off_c, 9, 42, 95
2, 68160, Note_off_c, 9, 47, 95
2, 68160, Note_on_c, 9, 40, 127
2, 68160, Note_on_c, 9, 42, 95
2, 68160, Note_on_c, 9, 47, 111
2, 68400, Note_off_c, 9, 40, 127
2, 68400, Note_off_c, 9, 42, 95
2, 68400, Note_off_c, 9, 47, 111
2, 68400, Note_on_c, 9, 42, 63
2, 68400, Note_on_c, 9, 47, 95
2, 68520, Note_off_c, 9, 42, 63
2, 68520, Note_off_c, 9, 47, 95
2, 68640, Note_on_c, 9, 35, 95
2, 68640, Note_on_c, 9, 42, 95
2, 68640, Note_on_c, 9, 43, 95
2, 68880, Note_off_c, 9, 35, 95
2, 68880, Note_off_c, 9, 42, 95
2, 68880, Note_off_c, 9, 43, 95
2, 68880, Note_on_c, 9, 42, 95
2, 68880, Note_on_c, 9, 43, 95
2, 69000, Note_off_c, 9, 42, 95
2, 69000, Note_off_c, 9, 43, 95
2, 69120, Note_on_c, 9, 35, 95
2, 69120, Note_on_c, 9, 51, 63
2, 69120, Note_on_c, 9, 60, 111
2, 69360, Note_off_c, 9, 35, 95
2, 69360, Note_off_c, 9, 51, 63
2, 69360, Note_off_c, 9, 60, 111
2, 69360, Note_on_c, 9, 51, 63
2, 69480, Note_off_c, 9, 51, 63
2, 69600, Note_on_c, 9, 51, 63
2, 69720, Note_off_c, 9, 51, 63
2, 69840, Note_on_c, 9, 51, 63
2, 69960, Note_off_c, 9, 51, 63
2, 70080, Note_on_c, 9, 40, 127
2, 70080, Note_on_c, 9, 51, 63
2, 70080, Note_on_c, 9, 60, 111
2, 70320, Note_off_c, 9, 40, 127
2, 70320, Note_off_c, 9, 51, 63
2, 70320, Note_off_c, 9, 60, 111
2, 70320, Note_on_c, 9, 51, 63
2, 70440, Note_off_c, 9, 51, 63
2, 70560, Note_on_c, 9, 51, 63
2, 70680, Note_off_c, 9, 51, 63
2, 70800, Note_on_c, 9, 35, 79
2, 70800, Note_on_c, 9, 51, 63
2, 71040, Note_off_c, 9, 35, 79
2, 71040, Note_off_c, 9, 51, 63
2, 71040, Note_on_c, 9, 35, 95
2, 71040, Note_on_c, 9, 51, 63
2, 71040, Note_on_c, 9, 60, 111
2, 71280, Note_off_c, 9, 35, 95
2, 71280, Note_off_c, 9, 51, 63
2, 71280, Note_off_c, 9, 60, 111
2, 71280, Note_on_c, 9, 51, 63
2, 71400, Note_off_c, 9, 51, 63
2, 71520, Note_on_c, 9, 35, 95
2, 71520, Note_on_c, 9, 51, 63
2, 71760, Note_off_c, 9, 35, 95
2, 71760, Note_off_c, 9, 51, 63
2, 71760, Note_on_c, 9, 51, 63
2, 71880, Note_off_c, 9, 51, 63
2, 72000, Note_on_c, 9, 39, 95
2, 72000, Note_on_c, 9, 40, 127
2, 72000, Note_on_c, 9, 51, 63
2, 72000, Note_on_c, 9, 60, 111
2, 72240, Note_off_c, 9, 39, 95
2, 72240, Note_off_c, 9, 40, 127
2, 72240, Note_off_c, 9, 51, 63
2, 72240, Note_off_c, 9, 60, 111
2, 72240, Note_on_c, 9, 51, 63
2, 72360, Note_off_c, 9, 51, 63
2, 72480, Note_on_c, 9, 35, 95
2, 72480, Note_on_c, 9, 51, 63
2, 72720, Note_off_c, 9, 35, 95
2, 72720, Note_off_c, 9, 51, 63
2, 72720, Note_on_c, 9, 51, 63
2, 72840, Note_off_c, 9, 51, 63
2, 72960, Note_on_c, 9, 35, 95
2, 72960, Note_on_c, 9, 51, 63
2, 72960, Note_on_c, 9, 60, 111
2, 73200, Note_off_c, 9, 35, 95
2, 73200, Note_off_c, 9, 51, 63
2, 73200, Note_off_c, 9, 60, 111
2, 73200, Note_on_c, 9, 51, 63
2, 73320, Note_off_c, 9, 51, 63
2, 73440, Note_on_c, 9, 51, 63
2, 73560, Note_off_c, 9, 51, 63
2, 73680, Note_on_c, 9, 51, 63
2, 73800, Note_off_c, 9, 51, 63
2, 73920, Note_on_c, 9, 40, 127
2, 73920, Note_on_c, 9, 51, 63
2, 73920, Note_on_c, 9, 60, 111
2, 74160, Note_off_c, 9, 40, 127
2, 74160, Note_off_c, 9, 51, 63
2, 74160, Note_off_c, 9, 60, 111
2, 74160, Note_on_c, 9, 51, 63
2, 74280, Note_off_c, 9, 51, 63
2, 74400, Note_on_c, 9, 51, 63
2, 74520, Note_off_c, 9, 51, 63
2, 74640, Note_on_c, 9, 35, 79
2, 74640, Note_on_c, 9, 51, 63
2, 74880, Note_off_c, 9, 35, 79
2, 74880, Note_off_c, 9, 51, 63
2, 74880, Note_on_c, 9, 35, 95
2, 74880, Note_on_c, 9, 51, 63
2, 74880, Note_on_c, 9, 60, 111
2, 75120, Note_off_c, 9, 35, 95
2, 75120, Note_off_c, 9, 51, 63
2, 75120, Note_off_c, 9, 60, 111
2, 75120, Note_on_c, 9, 51, 63
2, 75240, Note_off_c, 9, 51, 63
2, 75360, Note_on_c, 9, 35, 95
2, 75360, Note_on_c, 9, 51, 63
2, 75600, Note_off_c, 9, 35, 95
2, 75600, Note_off_c, 9, 51, 63
2, 75600, Note_on_c, 9, 51, 63
2, 75720, Note_off_c, 9, 51, 63
2, 75840, Note_on_c, 9, 39, 95
2, 75840, Note_on_c, 9, 40, 127
2, 75840, Note_on_c, 9, 51, 63
2, 75840, Note_on_c, 9, 60, 111
2, 76080, Note_off_c, 9, 39, 95
2, 76080, Note_off_c, 9, 40, 127
2, 76080, Note_off_c, 9, 51, 63
2, 76080, Note_off_c, 9, 60, 111
2, 76080, Note_on_c, 9, 51, 63
2, 76200, Note_off_c, 9, 51, 63
2, 76320, Note_on_c, 9, 35, 95
2, 76320, Note_on_c, 9, 51, 63
2, 76560, Note_off_c, 9, 35, 95
2, 76560, Note_off_c, 9, 51, 63
2, 76560, Note_on_c, 9, 51, 63
2, 76680, Note_off_c, 9, 51, 63
2, 76800, Note_on_c, 9, 35, 95
2, 76800, Note_on_c, 9, 51, 63
2, 76800, Note_on_c, 9, 60, 111
2, 77040, Note_off_c, 9, 35, 95
2, 77040, Note_off_c, 9, 51, 63
2, 77040, Note_off_c, 9, 60, 111
2, 77040, Note_on_c, 9, 51, 63
2, 77160, Note_off_c, 9, 51, 63
2, 77280, Note_on_c, 9, 51, 63
2, 77400, Note_off_c, 9, 51, 63
2, 77520, Note_on_c, 9, 51, 63
2, 77640, Note_off_c, 9, 51, 63
2, 77760, Note_on_c, 9, 40, 127
2, 77760, Note_on_c, 9, 51, 63
2, 77760, Note_on_c, 9, 60, 111
2, 78000, Note_off_c, 9, 40, 127
2, 78000, Note_off_c, 9, 51, 63
2, 78000, Note_off_c, 9, 60, 111
2, 78000, Note_on_c, 9, 51, 63
2, 78120, Note_off_c, 9, 51, 63
2, 78240, Note_on_c, 9, 51, 63
2, 78360, Note_off_c, 9, 51, 63
2, 78480, Note_on_c, 9, 35, 79
2, 78480, Note_on_c, 9, 51, 63
2, 78720, Note_off_c, 9, 35, 79
2, 78720, Note_off_c, 9, 51, 63
2, 78720, Note_on_c, 9, 35, 95
2, 78720, Note_on_c, 9, 51, 63
2, 78720, Note_on_c, 9, 60, 111
2, 78960, Note_off_c, 9, 35, 95
2, 78960, Note_off_c, 9, 51, 63
2, 78960, Note_off_c, 9, 60, 111
2, 78960, Note_on_c, 9, 51, 63
2, 79080, Note_off_c, 9, 51, 63
2, 79200, Note_on_c, 9, 35, 95
2, 79200, Note_on_c, 9, 51, 63
2, 79440, Note_off_c, 9, 35, 95
2, 79440, Note_off_c, 9, 51, 63
2, 79440, Note_on_c, 9, 51, 63
2, 79560, Note_off_c, 9, 51, 63
2, 79680, Note_on_c, 9, 39, 95
2, 79680, Note_on_c, 9, 40, 127
2, 79680, Note_on_c, 9, 51, 63
2, 79680, Note_on_c, 9, 60, 111
2, 79920, Note_off_c, 9, 39, 95
2, 79920, Note_off_c, 9, 40, 127
2, 79920, Note_off_c, 9, 51, 63
2, 79920, Note_off_c, 9, 60, 111
2, 79920, Note_on_c, 9, 51, 63
2, 80040, Note_off_c, 9, 51, 63
2, 80160, Note_on_c, 9, 35, 95
2, 80160, Note_on_c, 9, 51, 63
2, 80400, Note_off_c, 9, 35, 95
2, 80400, Note_off_c, 9, 51, 63
2, 80400, Note_on_c, 9, 51, 63
2, 80520, Note_off_c, 9, 51, 63
2, 80640, Note_on_c, 9, 35, 95
2, 80640, Note_on_c, 9, 51, 63
2, 80640, Note_on_c, 9, 60, 111
2, 80880, Note_off_c, 9, 35, 95
2, 80880, Note_off_c, 9, 51, 63
2, 80880, Note_off_c, 9, 60, 111
2, 80880, Note_on_c, 9, 51, 63
2, 81000, Note_off_c, 9, 51, 63
2, 81120, Note_on_c, 9, 51, 63
2, 81240, Note_off_c, 9, 51, 63
2, 81360, Note_on_c, 9, 51, 63
2, 81480, Note_off_c, 9, 51, 63
2, 81600, Note_on_c, 9, 40, 127
2, 81600, Note_on_c, 9, 51, 63
2, 81600, Note_on_c, 9, 60, 111
2, 81840, Note_off_c, 9, 40, 127
2, 81840, Note_off_c, 9, 51, 63
2, 81840, Note_off_c, 9, 60, 111
2, 81840, Note_on_c, 9, 51, 63
2, 81960, Note_off_c, 9, 51, 63
2, 82080, Note_on_c, 9, 51, 63
2, 82200, Note_off_c, 9, 51, 63
2, 82320, Note_on_c, 9, 35, 79
2, 82320, Note_on_c, 9, 51, 63
2, 82560, Note_off_c, 9, 35, 79
2, 82560, Note_off_c, 9, 51, 63
2, 82560, Note_on_c, 9, 35, 95
2, 82560, Note_on_c, 9, 51, 63
2, 82560, Note_on_c, 9, 60, 111
2, 82800, Note_off_c, 9, 35, 95
2, 82800, Note_off_c, 9, 51, 63
2, 82800, Note_off_c, 9, 60, 111
2, 82800, Note_on_c, 9, 51, 63
2, 82920, Note_off_c, 9, 51, 63
2, 83040, Note_on_c, 9, 35, 95
2, 83040, Note_on_c, 9, 51, 63
2, 83280, Note_off_c, 9, 35, 95
2, 83280, Note_off_c, 9, 51, 63
2, 83280, Note_on_c, 9, 51, 63
2, 83400, Note_off_c, 9, 51, 63
2, 83520, Note_on_c, 9, 39, 95
2, 83520, Note_on_c, 9, 40, 127
2, 83520, Note_on_c, 9, 51, 63
2, 83520, Note_on_c, 9, 60, 111
2, 83760, Note_off_c, 9, 39, 95
2, 83760, Note_off_c, 9, 40, 127
2, 83760, Note_off_c, 9, 51, 63
2, 83760, Note_off_c, 9, 60, 111
2, 83760, Note_on_c, 9, 51, 63
2, 83880, Note_off_c, 9, 51, 63
2, 84000, Note_on_c, 9, 35, 95
2, 84000, Note_on_c, 9, 51, 63
2, 84240, Note_off_c, 9, 35, 95
2, 84240, Note_off_c, 9, 51, 63
2, 84240, Note_on_c, 9, 51, 63
2, 84360, Note_off_c, 9, 51, 63
2, 84480, Note_on_c, 9, 35, 95
2, 84480, Note_on_c, 9, 51, 63
2, 84480, Note_on_c, 9, 60, 111
2, 84720, Note_off_c, 9, 35, 95
2, 84720, Note_off_c, 9, 51, 63
2, 84720, Note_off_c, 9, 60, 111
2, 84720, Note_on_c, 9, 51, 63
2, 84840, Note_off_c, 9, 51, 63
2, 84960, Note_on_c, 9, 51, 63
2, 85080, Note_off_c, 9, 51, 63
2, 85200, Note_on_c, 9, 51, 63
2, 85320, Note_off_c, 9, 51, 63
2, 85440, Note_on_c, 9, 40, 127
2, 85440, Note_on_c, 9, 51, 63
2, 85440, Note_on_c, 9, 60, 111
2, 85680, Note_off_c, 9, 40, 127
2, 85680, Note_off_c, 9, 51, 63
2, 85680, Note_off_c, 9, 60, 111
2, 85680, Note_on_c, 9, 51, 63
2, 85800, Note_off_c, 9, 51, 63
2, 85920, Note_on_c, 9, 51, 63
2, 86040, Note_off_c, 9, 51, 63
2, 86160, Note_on_c, 9, 35, 79
2, 86160, Note_on_c, 9, 51, 63
2, 86400, Note_off_c, 9, 35, 79
2, 86400, Note_off_c, 9, 51, 63
2, 86400, Note_on_c, 9, 35, 95
2, 86400, Note_on_c, 9, 51, 63
2, 86400, Note_on_c, 9, 60, 111
2, 86640, Note_off_c, 9, 35, 95
2, 86640, Note_off_c, 9, 51, 63
2, 86640, Note_off_c, 9, 60, 111
2, 86640, Note_on_c, 9, 51, 63
2, 86760, Note_off_c, 9, 51, 63
2, 86880, Note_on_c, 9, 35, 95
2, 86880, Note_on_c, 9, 51, 63
2, 87120, Note_off_c, 9, 35, 95
2, 87120, Note_off_c, 9, 51, 63
2, 87120, Note_on_c, 9, 51, 63
2, 87240, Note_off_c, 9, 51, 63
2, 87360, Note_on_c, 9, 39, 95
2, 87360, Note_on_c, 9, 40, 127
2, 87360, Note_on_c, 9, 51, 63
2, 87360, Note_on_c, 9, 60, 111
2, 87600, Note_off_c, 9, 39, 95
2, 87600, Note_off_c, 9, 40, 127
2, 87600, Note_off_c, 9, 51, 63
2, 87600, Note_off_c, 9, 60, 111
2, 87600, Note_on_c, 9, 51, 63
2, 87720, Note_off_c, 9, 51, 63
2, 87840, Note_on_c, 9, 35, 95
2, 87840, Note_on_c, 9, 51, 63
2, 88080, Note_off_c, 9, 35, 95
2, 88080, Note_off_c, 9, 51, 63
2, 88080, Note_on_c, 9, 51, 63
2, 88200, Note_off_c, 9, 51, 63
2, 88320, Note_on_c, 9, 35, 95
2, 88320, Note_on_c, 9, 51, 63
2, 88320, Note_on_c, 9, 60, 111
2, 88560, Note_off_c, 9, 35, 95
2, 88560, Note_off_c, 9, 51, 63
2, 88560, Note_off_c, 9, 60, 111
2, 88560, Note_on_c, 9, 51, 63
2, 88680, Note_off_c, 9, 51, 63
2, 88800, Note_on_c, 9, 51, 63
2, 88920, Note_off_c, 9, 51, 63
2, 89040, Note_on_c, 9, 51, 63
2, 89160, Note_off_c, 9, 51, 63
2, 89280, Note_on_c, 9, 40, 127
2, 89280, Note_on_c, 9, 51, 63
2, 89280, Note_on_c, 9, 60, 111
2, 89520, Note_off_c, 9, 40, 127
2, 89520, Note_off_c, 9, 51, 63
2, 89520, Note_off_c, 9, 60, 111
2, 89520, Note_on_c, 9, 51, 63
2, 89640, Note_off_c, 9, 51, 63
2, 89760, Note_on_c, 9, 51, 63
2, 89880, Note_off_c, 9, 51, 63
2, 90000, Note_on_c, 9, 35, 79
2, 90000, Note_on_c, 9, 51, 63
2, 90240, Note_off_c, 9, 35, 79
2, 90240, Note_off_c, 9, 51, 63
2, 90240, Note_on_c, 9, 35, 95
2, 90240, Note_on_c, 9, 51, 63
2, 90240, Note_on_c, 9, 60, 111
2, 90480, Note_off_c, 9, 35, 95
2, 90480, Note_off_c, 9, 51, 63
2, 90480, Note_off_c, 9, 60, 111
2, 90480, Note_on_c, 9, 51, 63
2, 90600, Note_off_c, 9, 51, 63
2, 90720, Note_on_c, 9, 35, 95
2, 90720, Note_on_c, 9, 51, 63
2, 90960, Note_off_c, 9, 35, 95
2, 90960, Note_off_c, 9, 51, 63
2, 90960, Note_on_c, 9, 51, 63
2, 91080, Note_off_c, 9, 51, 63
2, 91200, Note_on_c, 9, 39, 95
2, 91200, Note_on_c, 9, 40, 127
2, 91200, Note_on_c, 9, 51, 63
2, 91200, Note_on_c, 9, 60, 111
2, 91440, Note_off_c, 9, 39, 95
2, 91440, Note_off_c, 9, 40, 127
2, 91440, Note_off_c, 9, 51, 63
2, 91440, Note_off_c, 9, 60, 111
2, 91440, Note_on_c, 9, 51, 63
2, 91560, Note_off_c, 9, 51, 63
2, 91680, Note_on_c, 9, 35, 95
2, 91680, Note_on_c, 9, 51, 63
2, 91920, Note_off_c, 9, 35, 95
2, 91920, Note_off_c, 9, 51, 63
2, 91920, Note_on_c, 9, 51, 63
2, 92040, Note_off_c, 9, 51, 63
2, 92160, Note_on_c, 9, 35, 95
2, 92160, Note_on_c, 9, 51, 63
2, 92160, Note_on_c, 9, 60, 111
2, 92400, Note_off_c, 9, 35, 95
2, 92400, Note_off_c, 9, 51, 63
2, 92400, Note_off_c, 9, 60, 111
2, 92400, Note_on_c, 9, 51, 63
2, 92520, Note_off_c, 9, 51, 63
2, 92640, Note_on_c, 9, 51, 63
2, 92760, Note_off_c, 9, 51, 63
2, 92880, Note_on_c, 9, 51, 63
2, 93000, Note_off_c, 9, 51, 63
2, 93120, Note_on_c, 9, 40, 127
2, 93120, Note_on_c, 9, 51, 63
2, 93120, Note_on_c, 9, 60, 111
2, 93360, Note_off_c, 9, 40, 127
2, 93360, Note_off_c, 9, 51, 63
2, 93360, Note_off_c, 9, 60, 111
2, 93360, Note_on_c, 9, 51, 63
2, 93480, Note_off_c, 9, 51, 63
2, 93600, Note_on_c, 9, 51, 63
2, 93720, Note_off_c, 9, 51, 63
2, 93840, Note_on_c, 9, 35, 79
2, 93840, Note_on_c, 9, 51, 63
2, 94080, Note_off_c, 9, 35, 79
2, 94080, Note_off_c, 9, 51, 63
2, 94080, Note_on_c, 9, 35, 95
2, 94080, Note_on_c, 9, 51, 63
2, 94080, Note_on_c, 9, 60, 111
2, 94320, Note_off_c, 9, 35, 95
2, 94320, Note_off_c, 9, 51, 63
2, 94320, Note_off_c, 9, 60, 111
2, 94320, Note_on_c, 9, 51, 63
2, 94440, Note_off_c, 9, 51, 63
2, 94560, Note_on_c, 9, 35, 95
2, 94560, Note_on_c, 9, 51, 63
2, 94800, Note_off_c, 9, 35, 95
2, 94800, Note_off_c, 9, 51, 63
2, 94800, Note_on_c, 9, 51, 63
2, 94920, Note_off_c, 9, 51, 63
2, 95040, Note_on_c, 9, 39, 95
2, 95040, Note_on_c, 9, 40, 127
2, 95040, Note_on_c, 9, 51, 63
2, 95040, Note_on_c, 9, 60, 111
2, 95280, Note_off_c, 9, 39, 95
2, 95280, Note_off_c, 9, 40, 127
2, 95280, Note_off_c, 9, 51, 63
2, 95280, Note_off_c, 9, 60, 111
2, 95280, Note_on_c, 9, 51, 63
2, 95400, Note_off_c, 9, 51, 63
2, 95520, Note_on_c, 9, 35, 95
2, 95520, Note_on_c, 9, 51, 63
2, 95760, Note_off_c, 9, 35, 95
2, 95760, Note_off_c, 9, 51, 63
2, 95760, Note_on_c, 9, 51, 63
2, 95880, Note_off_c, 9, 51, 63
2, 96000, Note_on_c, 9, 35, 95
2, 96000, Note_on_c, 9, 51, 63
2, 96000, Note_on_c, 9, 60, 111
2, 96240, Note_off_c, 9, 35, 95
2, 96240, Note_off_c, 9, 51, 63
2, 96240, Note_off_c, 9, 60, 111
2, 96240, Note_on_c, 9, 51, 63
2, 96360, Note_off_c, 9, 51, 63
2, 96480, Note_on_c, 9, 51, 63
2, 96600, Note_off_c, 9, 51, 63
2, 96720, Note_on_c, 9, 51, 63
2, 96840, Note_off_c, 9, 51, 63
2, 96960, Note_on_c, 9, 40, 127
2, 96960, Note_on_c, 9, 51, 63
2, 96960, Note_on_c, 9, 60, 111
2, 97200, Note_off_c, 9, 40, 127
2, 97200, Note_off_c, 9, 51, 63
2, 97200, Note_off_c, 9, 60, 111
2, 97200, Note_on_c, 9, 51, 63
2, 97320, Note_off_c, 9, 51, 63
2, 97440, Note_on_c, 9, 51, 63
2, 97560, Note_off_c, 9, 51, 63
2, 97680, Note_on_c, 9, 35, 79
2, 97680, Note_on_c, 9, 51, 63
2, 97920, Note_off_c, 9, 35, 79
2, 97920, Note_off_c, 9, 51, 63
2, 97920, Note_on_c, 9, 35, 95
2, 97920, Note_on_c, 9, 51, 63
2, 97920, Note_on_c, 9, 60, 111
2, 98160, Note_off_c, 9, 35, 95
2, 98160, Note_off_c, 9, 51, 63
2, 98160, Note_off_c, 9, 60, 111
2, 98160, Note_on_c, 9, 51, 63
2, 98280, Note_off_c, 9, 51, 63
2, 98400, Note_on_c, 9, 35, 95
2, 98400, Note_on_c, 9, 51, 63
2, 98640, Note_off_c, 9, 35, 95
2, 98640, Note_off_c, 9, 51, 63
2, 98640, Note_on_c, 9, 51, 63
2, 98760, Note_off_c, 9, 51, 63
2, 98880, Note_on_c, 9, 39, 95
2, 98880, Note_on_c, 9, 40, 127
2, 98880, Note_on_c, 9, 51, 63
2, 98880, Note_on_c, 9, 60, 111
2, 99120, Note_off_c, 9, 39, 95
2, 99120, Note_off_c, 9, 40, 127
2, 99120, Note_off_c, 9, 51, 63
2, 99120, Note_off_c, 9, 60, 111
2, 99120, Note_on_c, 9, 51, 63
2, 99240, Note_off_c, 9, 51, 63
2, 99360, Note_on_c, 9, 35, 95
2, 99360, Note_on_c, 9, 51, 63
2, 99600, Note_off_c, 9, 35, 95
2, 99600, Note_off_c, 9, 51, 63
2, 99600, Note_on_c, 9, 51, 63
2, 99720, Note_off_c, 9, 51, 63
2, 99840, Note_on_c, 9, 35, 95
2, 99840, Note_on_c, 9, 51, 63
2, 99840, Note_on_c, 9, 60, 111
2, 100080, Note_off_c, 9, 35, 95
2, 100080, Note_off_c, 9, 51, 63
2, 100080, Note_off_c, 9, 60, 111
2, 100080, Note_on_c, 9, 51, 63
2, 100200, Note_off_c, 9, 51, 63
2, 100320, Note_on_c, 9, 51, 63
2, 100440, Note_off_c, 9, 51, 63
2, 100560, Note_on_c, 9, 51, 63
2, 100680, Note_off_c, 9, 51, 63
2, 100800, Note_on_c, 9, 40, 127
2, 100800, Note_on_c, 9, 51, 63
2, 100800, Note_on_c, 9, 60, 111
2, 101040, Note_off_c, 9, 40, 127
2, 101040, Note_off_c, 9, 51, 63
2, 101040, Note_off_c, 9, 60, 111
2, 101040, Note_on_c, 9, 51, 63
2, 101160, Note_off_c, 9, 51, 63
2, 101280, Note_on_c, 9, 51, 63
2, 101400, Note_off_c, 9, 51, 63
2, 101520, Note_on_c, 9, 35, 79
2, 101520, Note_on_c, 9, 51, 63
2, 101760, Note_off_c, 9, 35, 79
2, 101760, Note_off_c, 9, 51, 63
2, 101760, Note_on_c, 9, 35, 95
2, 101760, Note_on_c, 9, 51, 63
2, 101760, Note_on_c, 9, 60, 111
2, 102000, Note_off_c, 9, 35, 95
2, 102000, Note_off_c, 9, 51, 63
2, 102000, Note_off_c, 9, 60, 111
2, 102000, Note_on_c, 9, 51, 63
2, 102120, Note_off_c, 9, 51, 63
2, 102240, Note_on_c, 9, 35, 95
2, 102240, Note_on_c, 9, 51, 63
2, 102480, Note_off_c, 9, 35, 95
2, 102480, Note_off_c, 9, 51, 63
2, 102480, Note_on_c, 9, 51, 63
2, 102600, Note_off_c, 9, 51, 63
2, 102720, Note_on_c, 9, 39, 95
2, 102720, Note_on_c, 9, 40, 127
2, 102720, Note_on_c, 9, 51, 63
2, 102720, Note_on_c, 9, 60, 111
2, 102960, Note_off_c, 9, 39, 95
2, 102960, Note_off_c, 9, 40, 127
2, 102960, Note_off_c, 9, 51, 63
2, 102960, Note_off_c, 9, 60, 111
2, 102960, Note_on_c, 9, 51, 63
2, 103080, Note_off_c, 9, 51, 63
2, 103200, Note_on_c, 9, 35, 95
2, 103200, Note_on_c, 9, 51, 63
2, 103440, Note_off_c, 9, 35, 95
2, 103440, Note_off_c, 9, 51, 63
2, 103440, Note_on_c, 9, 51, 63
2, 103560, Note_off_c, 9, 51, 63
2, 103680, Note_on_c, 9, 35, 95
2, 103680, Note_on_c, 9, 51, 63
2, 103680, Note_on_c, 9, 60, 111
2, 103920, Note_off_c, 9, 35, 95
2, 103920, Note_off_c, 9, 51, 63
2, 103920, Note_off_c, 9, 60, 111
2, 103920, Note_on_c, 9, 51, 63
2, 104040, Note_off_c, 9, 51, 63
2, 104160, Note_on_c, 9, 51, 63
2, 104280, Note_off_c, 9, 51, 63
2, 104400, Note_on_c, 9, 51, 63
2, 104520, Note_off_c, 9, 51, 63
2, 104640, Note_on_c, 9, 40, 127
2, 104640, Note_on_c, 9, 51, 63
2, 104640, Note_on_c, 9, 60, 111
2, 104880, Note_off_c, 9, 40, 127
2, 104880, Note_off_c, 9, 51, 63
2, 104880, Note_off_c, 9, 60, 111
2, 104880, Note_on_c, 9, 51, 63
2, 105000, Note_off_c, 9, 51, 63
2, 105120, Note_on_c, 9, 51, 63
2, 105240, Note_off_c, 9, 51, 63
2, 105360, Note_on_c, 9, 35, 79
2, 105360, Note_on_c, 9, 47, 95
2, 105360, Note_on_c, 9, 51, 63
2, 105600, Note_off_c, 9, 35, 79
2, 105600, Note_off_c, 9, 47, 95
2, 105600, Note_off_c, 9, 51, 63
2, 105600, Note_on_c, 9, 35, 95
2, 105600, Note_on_c, 9, 51, 63
2, 105600, Note_on_c, 9, 60, 111
2, 105840, Note_off_c, 9, 35, 95
2, 105840, Note_off_c, 9, 51, 63
2, 105840, Note_off_c, 9, 60, 111
2, 105840, Note_on_c, 9, 47, 95
2, 105840, Note_on_c, 9, 51, 63
2, 106080, Note_off_c, 9, 47, 95
2, 106080, Note_off_c, 9, 51, 63
2, 106080, Note_on_c, 9, 35, 95
2, 106080, Note_on_c, 9, 47, 95
2, 106080, Note_on_c, 9, 51, 63
2, 106320, Note_off_c, 9, 35, 95
2, 106320, Note_off_c, 9, 47, 95
2, 106320, Note_off_c, 9, 51, 63
2, 106320, Note_on_c, 9, 51, 63
2, 106440, Note_off_c, 9, 51, 63
2, 106560, Note_on_c, 9, 40, 127
2, 106560, Note_on_c, 9, 51, 63
2, 106560, Note_on_c, 9, 60, 111
2, 106800, Note_off_c, 9, 40, 127
2, 106800, Note_off_c, 9, 51, 63
2, 106800, Note_off_c, 9, 60, 111
2, 106800, Note_on_c, 9, 51, 63
2, 106920, Note_off_c, 9, 51, 63
2, 107040, Note_on_c, 9, 35, 95
2, 107040, Note_on_c, 9, 51, 63
2, 107280, Note_off_c, 9, 35, 95
2, 107280, Note_off_c, 9, 51, 63
2, 107280, Note_on_c, 9, 51, 63
2, 107400, Note_off_c, 9, 51, 63
2, 107520, Note_on_c, 9, 35, 95
2, 107520, Note_on_c, 9, 42, 95
2, 107520, Note_on_c, 9, 57, 95
2, 107760, Note_off_c, 9, 35, 95
2, 107760, Note_off_c, 9, 42, 95
2, 107760, Note_off_c, 9, 57, 95
2, 107760, Note_on_c, 9, 42, 63
2, 107880, Note_off_c, 9, 42, 63
2, 108000, Note_on_c, 9, 42, 95
2, 108120, Note_off_c, 9, 42, 95
2, 108240, Note_on_c, 9, 42, 95
2, 108360, Note_off_c, 9, 42, 95
2, 108480, Note_on_c, 9, 40, 127
2, 108480, Note_on_c, 9, 42, 95
2, 108720, Note_off_c, 9, 40, 127
2, 108720, Note_off_c, 9, 42, 95
2, 108720, Note_on_c, 9, 42, 63
2, 108840, Note_off_c, 9, 42, 63
2, 108960, Note_on_c, 9, 42, 95
2, 109080, Note_off_c, 9, 42, 95
2, 109200, Note_on_c, 9, 35, 79
2, 109200, Note_on_c, 9, 42, 95
2, 109440, Note_off_c, 9, 35, 79
2, 109440, Note_off_c, 9, 42, 95
2, 109440, Note_on_c, 9, 35, 95
2, 109440, Note_on_c, 9, 42, 95
2, 109560, Note_off_c, 9, 35, 95
2, 109560, Note_off_c, 9, 42, 95
2, 109680, Note_on_c, 9, 42, 63
2, 109800, Note_off_c, 9, 42, 63
2, 109920, Note_on_c, 9, 35, 95
2, 109920, Note_on_c, 9, 42, 95
2, 110160, Note_off_c, 9, 35, 95
2, 110160, Note_off_c, 9, 42, 95
2, 110160, Note_on_c, 9, 42, 95
2, 110280, Note_off_c, 9, 42, 95
2, 110400, Note_on_c, 9, 40, 127
2, 110400, Note_on_c, 9, 42, 95
2, 110400, Note_on_c, 9, 43, 111
2, 110640, Note_off_c, 9, 40, 127
2, 110640, Note_off_c, 9, 42, 95
2, 110640, Note_off_c, 9, 43, 111
2, 110640, Note_on_c, 9, 42, 63
2, 110760, Note_off_c, 9, 42, 63
2, 110880, Note_on_c, 9, 35, 95
2, 110880, Note_on_c, 9, 42, 95
2, 111120, Note_off_c, 9, 35, 95
2, 111120, Note_off_c, 9, 42, 95
2, 111120, Note_on_c, 9, 46, 95
2, 111360, Note_off_c, 9, 46, 95
2, 111360, Note_on_c, 9, 35, 95
2, 111360, Note_on_c, 9, 42, 95
2, 111600, Note_off_c, 9, 35, 95
2, 111600, Note_off_c, 9, 42, 95
2, 111600, Note_on_c, 9, 42, 63
2, 111720, Note_off_c, 9, 42, 63
2, 111840, Note_on_c, 9, 42, 95
2, 111960, Note_off_c, 9, 42, 95
2, 112080, Note_on_c, 9, 42, 95
2, 112200, Note_off_c, 9, 42, 95
2, 112320, Note_on_c, 9, 40, 127
2, 112320, Note_on_c, 9, 42, 95
2, 112560, Note_off_c, 9, 40, 127
2, 112560, Note_off_c, 9, 42, 95
2, 112560, Note_on_c, 9, 42, 63
2, 112680, Note_off_c, 9, 42, 63
2, 112800, Note_on_c, 9, 42, 95
2, 112920, Note_off_c, 9, 42, 95
2, 113040, Note_on_c, 9, 35, 79
2, 113040, Note_on_c, 9, 42, 95
2, 113280, Note_off_c, 9, 35, 79
2, 113280, Note_off_c, 9, 42, 95
2, 113280, Note_on_c, 9, 35, 95
2, 113280, Note_on_c, 9, 42, 95
2, 113400, Note_off_c, 9, 35, 95
2, 113400, Note_off_c, 9, 42, 95
2, 113520, Note_on_c, 9, 42, 63
2, 113640, Note_off_c, 9, 42, 63
2, 113760, Note_on_c, 9, 35, 95
2, 113760, Note_on_c, 9, 42, 95
2, 114000, Note_off_c, 9, 35, 95
2, 114000, Note_off_c, 9, 42, 95
2, 114000, Note_on_c, 9, 42, 95
2, 114000, Note_on_c, 9, 50, 95
2, 114240, Note_off_c, 9, 42, 95
2, 114240, Note_off_c, 9, 50, 95
2, 114240, Note_on_c, 9, 40, 127
2, 114240, Note_on_c, 9, 42, 95
2, 114480, Note_off_c, 9, 40, 127
2, 114480, Note_off_c, 9, 42, 95
2, 114480, Note_on_c, 9, 42, 63
2, 114600, Note_off_c, 9, 42, 63
2, 114720, Note_on_c, 9, 35, 95
2, 114720, Note_on_c, 9, 42, 95
2, 114960, Note_off_c, 9, 35, 95
2, 114960, Note_off_c, 9, 42, 95
2, 114960, Note_on_c, 9, 46, 95
2, 115200, Note_off_c, 9, 46, 95
2, 115200, Note_on_c, 9, 35, 95
2, 115200, Note_on_c, 9, 42, 95
2, 115440, Note_off_c, 9, 35, 95
2, 115440, Note_off_c, 9, 42, 95
2, 115440, Note_on_c, 9, 42, 63
2, 115560, Note_off_c, 9, 42, 63
2, 115680, Note_on_c, 9, 42, 95
2, 115800, Note_off_c, 9, 42, 95
2, 115920, Note_on_c, 9, 42, 95
2, 116040, Note_off_c, 9, 42, 95
2, 116160, Note_on_c, 9, 40, 127
2, 116160, Note_on_c, 9, 42, 95
2, 116400, Note_off_c, 9, 40, 127
2, 116400, Note_off_c, 9, 42, 95
2, 116400, Note_on_c, 9, 42, 63
2, 116520, Note_off_c, 9, 42, 63
2, 116640, Note_on_c, 9, 42, 95
2, 116760, Note_off_c, 9, 42, 95
2, 116880, Note_on_c, 9, 35, 79
2, 116880, Note_on_c, 9, 42, 95
2, 117120, Note_off_c, 9, 35, 79
2, 117120, Note_off_c, 9, 42, 95
2, 117120, Note_on_c, 9, 35, 95
2, 117120, Note_on_c, 9, 42, 95
2, 117240, Note_off_c, 9, 35, 95
2, 117240, Note_off_c, 9, 42, 95
2, 117360, Note_on_c, 9, 42, 63
2, 117480, Note_off_c, 9, 42, 63
2, 117600, Note_on_c, 9, 35, 95
2, 117600, Note_on_c, 9, 42, 95
2, 117840, Note_off_c, 9, 35, 95
2, 117840, Note_off_c, 9, 42, 95
2, 117840, Note_on_c, 9, 46, 95
2, 117840, Note_on_c, 9, 50, 95
2, 118080, Note_off_c, 9, 46, 95
2, 118080, Note_off_c, 9, 50, 95
2, 118080, Note_on_c, 9, 40, 127
2, 118080, Note_on_c, 9, 42, 95
2, 118080, Note_on_c, 9, 43, 79
2, 118320, Note_off_c, 9, 40, 127
2, 118320, Note_off_c, 9, 42, 95
2, 118320, Note_off_c, 9, 43, 79
2, 118320, Note_on_c, 9, 42, 63
2, 118440, Note_off_c, 9, 42, 63
2, 118560, Note_on_c, 9, 35, 95
2, 118560, Note_on_c, 9, 42, 95
2, 118800, Note_off_c, 9, 35, 95
2, 118800, Note_off_c, 9, 42, 95
2, 118800, Note_on_c, 9, 42, 95
2, 118920, Note_off_c, 9, 42, 95
2, 119040, Note_on_c, 9, 35, 95
2, 119040, Note_on_c, 9, 42, 95
2, 119280, Note_off_c, 9, 35, 95
2, 119280, Note_off_c, 9, 42, 95
2, 119280, Note_on_c, 9, 42, 63
2, 119400, Note_off_c, 9, 42, 63
2, 119520, Note_on_c, 9, 42, 95
2, 119640, Note_off_c, 9, 42, 95
2, 119760, Note_on_c, 9, 42, 95
2, 119880, Note_off_c, 9, 42, 95
2, 120000, Note_on_c, 9, 40, 127
2, 120000, Note_on_c, 9, 42, 95
2, 120240, Note_off_c, 9, 40, 127
2, 120240, Note_off_c, 9, 42, 95
2, 120240, Note_on_c, 9, 42, 63
2, 120360, Note_off_c, 9, 42, 63
2, 120480, Note_on_c, 9, 42, 95
2, 120600, Note_off_c, 9, 42, 95
2, 120720, Note_on_c, 9, 35, 79
2, 120720, Note_on_c, 9, 42, 95
2, 120960, Note_off_c, 9, 35, 79
2, 120960, Note_off_c, 9, 42, 95
2, 120960, Note_on_c, 9, 35, 95
2, 120960, Note_on_c, 9, 42, 95
2, 121080, Note_off_c, 9, 35, 95
2, 121080, Note_off_c, 9, 42, 95
2, 121200, Note_on_c, 9, 42, 63
2, 121320, Note_off_c, 9, 42, 63
2, 121440, Note_on_c, 9, 35, 95
2, 121440, Note_on_c, 9, 42, 95
2, 121680, Note_off_c, 9, 35, 95
2, 121680, Note_off_c, 9, 42, 95
2, 121680, Note_on_c, 9, 42, 95
2, 121800, Note_off_c, 9, 42, 95
2, 121920, Note_on_c, 9, 40, 127
2, 121920, Note_on_c, 9, 42, 95
2, 122160, Note_off_c, 9, 40, 127
2, 122160, Note_off_c, 9, 42, 95
2, 122160, Note_on_c, 9, 42, 63
2, 122280, Note_off_c, 9, 42, 63
2, 122400, Note_on_c, 9, 35, 95
2, 122400, Note_on_c, 9, 42, 95
2, 122640, Note_off_c, 9, 35, 95
2, 122640, Note_off_c, 9, 42, 95
2, 122640, Note_on_c, 9, 46, 95
2, 122880, Note_off_c, 9, 46, 95
2, 122880, Note_on_c, 9, 35, 95
2, 122880, Note_on_c, 9, 42, 95
2, 123120, Note_off_c, 9, 35, 95
2, 123120, Note_off_c, 9, 42, 95
2, 123120, Note_on_c, 9, 42, 63
2, 123240, Note_off_c, 9, 42, 63
2, 123360, Note_on_c, 9, 42, 95
2, 123480, Note_off_c, 9, 42, 95
2, 123600, Note_on_c, 9, 42, 95
2, 123720, Note_off_c, 9, 42, 95
2, 123840, Note_on_c, 9, 40, 127
2, 123840, Note_on_c, 9, 42, 95
2, 124080, Note_off_c, 9, 40, 127
2, 124080, Note_off_c, 9, 42, 95
2, 124080, Note_on_c, 9, 42, 63
2, 124200, Note_off_c, 9, 42, 63
2, 124320, Note_on_c, 9, 42, 95
2, 124440, Note_off_c, 9, 42, 95
2, 124560, Note_on_c, 9, 35, 79
2, 124560, Note_on_c, 9, 42, 95
2, 124800, Note_off_c, 9, 35, 79
2, 124800, Note_off_c, 9, 42, 95
2, 124800, Note_on_c, 9, 35, 95
2, 124800, Note_on_c, 9, 42, 95
2, 124920, Note_off_c, 9, 35, 95
2, 124920, Note_off_c, 9, 42, 95
2, 125040, Note_on_c, 9, 42, 63
2, 125160, Note_off_c, 9, 42, 63
2, 125280, Note_on_c, 9, 35, 95
2, 125280, Note_on_c, 9, 42, 95
2, 125520, Note_off_c, 9, 35, 95
2, 125520, Note_off_c, 9, 42, 95
2, 125520, Note_on_c, 9, 42, 95
2, 125640, Note_off_c, 9, 42, 95
2, 125760, Note_on_c, 9, 40, 127
2, 125760, Note_on_c, 9, 42, 95
2, 126000, Note_off_c, 9, 40, 127
2, 126000, Note_off_c, 9, 42, 95
2, 126000, Note_on_c, 9, 42, 63
2, 126120, Note_off_c, 9, 42, 63
2, 126240, Note_on_c, 9, 35, 95
2, 126240, Note_on_c, 9, 42, 95
2, 126480, Note_off_c, 9, 35, 95
2, 126480, Note_off_c, 9, 42, 95
2, 126480, Note_on_c, 9, 42, 95
2, 126600, Note_off_c, 9, 42, 95
2, 126720, Note_on_c, 9, 35, 95
2, 126720, Note_on_c, 9, 42, 95
2, 126960, Note_off_c, 9, 35, 95
2, 126960, Note_off_c, 9, 42, 95
2, 126960, Note_on_c, 9, 42, 63
2, 127080, Note_off_c, 9, 42, 63
2, 127200, Note_on_c, 9, 42, 95
2, 127320, Note_off_c, 9, 42, 95
2, 127440, Note_on_c, 9, 42, 95
2, 127560, Note_off_c, 9, 42, 95
2, 127680, Note_on_c, 9, 40, 127
2, 127680, Note_on_c, 9, 42, 95
2, 127920, Note_off_c, 9, 40, 127
2, 127920, Note_off_c, 9, 42, 95
2, 127920, Note_on_c, 9, 42, 63
2, 128040, Note_off_c, 9, 42, 63
2, 128160, Note_on_c, 9, 42, 95
2, 128280, Note_off_c, 9, 42, 95
2, 128400, Note_on_c, 9, 35, 79
2, 128400, Note_on_c, 9, 42, 95
2, 128640, Note_off_c, 9, 35, 79
2, 128640, Note_off_c, 9, 42, 95
2, 128640, Note_on_c, 9, 35, 95
2, 128640, Note_on_c, 9, 42, 95
2, 128640, Note_on_c, 9, 50, 111
2, 128880, Note_off_c, 9, 35, 95
2, 128880, Note_off_c, 9, 42, 95
2, 128880, Note_off_c, 9, 50, 111
2, 128880, Note_on_c, 9, 42, 63
2, 128880, Note_on_c, 9, 50, 95
2, 129000, Note_off_c, 9, 42, 63
2, 129000, Note_off_c, 9, 50, 95
2, 129120, Note_on_c, 9, 35, 95
2, 129120, Note_on_c, 9, 42, 95
2, 129120, Note_on_c, 9, 50, 95
2, 129360, Note_off_c, 9, 35, 95
2, 129360, Note_off_c, 9, 42, 95
2, 129360, Note_off_c, 9, 50, 95
2, 129360, Note_on_c, 9, 42, 95
2, 129360, Note_on_c, 9, 47, 95
2, 129600, Note_off_c, 9, 42, 95
2, 129600, Note_off_c, 9, 47, 95
2, 129600, Note_on_c, 9, 40, 127
2, 129600, Note_on_c, 9, 42, 95
2, 129600, Note_on_c, 9, 47, 111
2, 129840, Note_off_c, 9, 40, 127
2, 129840, Note_off_c, 9, 42, 95
2, 129840, Note_off_c, 9, 47, 111
2, 129840, Note_on_c, 9, 42, 63
2, 129840, Note_on_c, 9, 47, 95
2, 129960, Note_off_c, 9, 42, 63
2, 129960, Note_off_c, 9, 47, 95
2, 130080, Note_on_c, 9, 35, 95
2, 130080, Note_on_c, 9, 42, 95
2, 130080, Note_on_c, 9, 43, 95
2, 130320, Note_off_c, 9, 35, 95
2, 130320, Note_off_c, 9, 42, 95
2, 130320, Note_off_c, 9, 43, 95
2, 130320, Note_on_c, 9, 43, 95
2, 130320, Note_on_c, 9, 46, 95
2, 130560, Note_off_c, 9, 43, 95
2, 130560, Note_off_c, 9, 46, 95
2, 130560, Note_on_c, 9, 35, 95
2, 130560, Note_on_c, 9, 42, 95
2, 130800, Note_off_c, 9, 35, 95
2, 130800, Note_off_c, 9, 42, 95
2, 130800, Note_on_c, 9, 42, 63
2, 130920, Note_off_c, 9, 42, 63
2, 131040, Note_on_c, 9, 42, 95
2, 131160, Note_off_c, 9, 42, 95
2, 131280, Note_on_c, 9, 42, 95
2, 131400, Note_off_c, 9, 42, 95
2, 131520, Note_on_c, 9, 40, 127
2, 131520, Note_on_c, 9, 42, 95
2, 131760, Note_off_c, 9, 40, 127
2, 131760, Note_off_c, 9, 42, 95
2, 131760, Note_on_c, 9, 42, 63
2, 131880, Note_off_c, 9, 42, 63
2, 132000, Note_on_c, 9, 42, 95
2, 132120, Note_off_c, 9, 42, 95
2, 132240, Note_on_c, 9, 35, 79
2, 132240, Note_on_c, 9, 42, 95
2, 132480, Note_off_c, 9, 35, 79
2, 132480, Note_off_c, 9, 42, 95
2, 132480, Note_on_c, 9, 35, 95
2, 132480, Note_on_c, 9, 42, 95
2, 132600, Note_off_c, 9, 35, 95
2, 132600, Note_off_c, 9, 42, 95
2, 132720, Note_on_c, 9, 42, 63
2, 132840, Note_off_c, 9, 42, 63
2, 132960, Note_on_c, 9, 35, 95
2, 132960, Note_on_c, 9, 42, 95
2, 133200, Note_off_c, 9, 35, 95
2, 133200, Note_off_c, 9, 42, 95
2, 133200, Note_on_c, 9, 46, 95
2, 133440, Note_off_c, 9, 46, 95
2, 133440, Note_on_c, 9, 40, 127
2, 133440, Note_on_c, 9, 42, 95
2, 133440, Note_on_c, 9, 43, 79
2, 133680, Note_off_c, 9, 40, 127
2, 133680, Note_off_c, 9, 42, 95
2, 133680, Note_off_c, 9, 43, 79
2, 133680, Note_on_c, 9, 42, 63
2, 133800, Note_off_c, 9, 42, 63
2, 133920, Note_on_c, 9, 35, 95
2, 133920, Note_on_c, 9, 42, 95
2, 134160, Note_off_c, 9, 35, 95
2, 134160, Note_off_c, 9, 42, 95
2, 134160, Note_on_c, 9, 46, 95
2, 134400, Note_off_c, 9, 46, 95
2, 134400, Note_on_c, 9, 35, 95
2, 134400, Note_on_c, 9, 42, 95
2, 134640, Note_off_c, 9, 35, 95
2, 134640, Note_off_c, 9, 42, 95
2, 134640, Note_on_c, 9, 42, 63
2, 134760, Note_off_c, 9, 42, 63
2, 134880, Note_on_c, 9, 42, 95
2, 135000, Note_off_c, 9, 42, 95
2, 135120, Note_on_c, 9, 42, 95
2, 135240, Note_off_c, 9, 42, 95
2, 135360, Note_on_c, 9, 40, 127
2, 135360, Note_on_c, 9, 42, 95
2, 135600, Note_off_c, 9, 40, 127
2, 135600, Note_off_c, 9, 42, 95
2, 135600, Note_on_c, 9, 42, 63
2, 135720, Note_off_c, 9, 42, 63
2, 135840, Note_on_c, 9, 42, 95
2, 135960, Note_off_c, 9, 42, 95
2, 136080, Note_on_c, 9, 35, 79
2, 136080, Note_on_c, 9, 42, 95
2, 136320, Note_off_c, 9, 35, 79
2, 136320, Note_off_c, 9, 42, 95
2, 136320, Note_on_c, 9, 35, 95
2, 136440, Note_off_c, 9, 35, 95
2, 136560, Note_on_c, 9, 42, 63
2, 136800, Note_off_c, 9, 42, 63
2, 136800, Note_on_c, 9, 35, 95
2, 136800, Note_on_c, 9, 40, 95
2, 136800, Note_on_c, 9, 42, 95
2, 137040, Note_off_c, 9, 35, 95
2, 137040, Note_off_c, 9, 40, 95
2, 137040, Note_off_c, 9, 42, 95
2, 137040, Note_on_c, 9, 40, 95
2, 137040, Note_on_c, 9, 42, 95
2, 137160, Note_off_c, 9, 40, 95
2, 137160, Note_off_c, 9, 42, 95
2, 137280, Note_on_c, 9, 40, 127
2, 137280, Note_on_c, 9, 42, 95
2, 137400, Note_off_c, 9, 40, 127
2, 137400, Note_off_c, 9, 42, 95
2, 137520, Note_on_c, 9, 42, 63
2, 137640, Note_off_c, 9, 42, 63
2, 137760, Note_on_c, 9, 35, 95
2, 137760, Note_on_c, 9, 40, 111
2, 137760, Note_on_c, 9, 42, 95
2, 138000, Note_off_c, 9, 35, 95
2, 138000, Note_off_c, 9, 40, 111
2, 138000, Note_off_c, 9, 42, 95
2, 138000, Note_on_c, 9, 40, 111
2, 138000, Note_on_c, 9, 42, 95
2, 138120, Note_off_c, 9, 40, 111
2, 138120, Note_off_c, 9, 42, 95
2, 138240, Note_on_c, 9, 35, 95
2, 138240, Note_on_c, 9, 42, 95
2, 138480, Note_off_c, 9, 35, 95
2, 138480, Note_off_c, 9, 42, 95
2, 138480, Note_on_c, 9, 42, 63
2, 138600, Note_off_c, 9, 42, 63
2, 138720, Note_on_c, 9, 42, 95
2, 138840, Note_off_c, 9, 42, 95
2, 138960, Note_on_c, 9, 42, 95
2, 139080, Note_off_c, 9, 42, 95
2, 139200, Note_on_c, 9, 40, 127
2, 139200, Note_on_c, 9, 42, 95
2, 139440, Note_off_c, 9, 40, 127
2, 139440, Note_off_c, 9, 42, 95
2, 139440, Note_on_c, 9, 42, 63
2, 139560, Note_off_c, 9, 42, 63
2, 139680, Note_on_c, 9, 42, 95
2, 139800, Note_off_c, 9, 42, 95
2, 139920, Note_on_c, 9, 35, 79
2, 139920, Note_on_c, 9, 46, 95
2, 140160, Note_off_c, 9, 35, 79
2, 140160, Note_off_c, 9, 46, 95
2, 140160, Note_on_c, 9, 35, 95
2, 140160, Note_on_c, 9, 42, 95
2, 140400, Note_off_c, 9, 35, 95
2, 140400, Note_off_c, 9, 42, 95
2, 140400, Note_on_c, 9, 42, 63
2, 140520, Note_off_c, 9, 42, 63
2, 140640, Note_on_c, 9, 35, 95
2, 140640, Note_on_c, 9, 42, 95
2, 140880, Note_off_c, 9, 35, 95
2, 140880, Note_off_c, 9, 42, 95
2, 140880, Note_on_c, 9, 42, 95
2, 140880, Note_on_c, 9, 50, 95
2, 141120, Note_off_c, 9, 42, 95
2, 141120, Note_off_c, 9, 50, 95
2, 141120, Note_on_c, 9, 40, 127
2, 141120, Note_on_c, 9, 42, 95
2, 141120, Note_on_c, 9, 43, 79
2, 141360, Note_off_c, 9, 40, 127
2, 141360, Note_off_c, 9, 42, 95
2, 141360, Note_off_c, 9, 43, 79
2, 141360, Note_on_c, 9, 42, 63
2, 141480, Note_off_c, 9, 42, 63
2, 141600, Note_on_c, 9, 35, 95
2, 141600, Note_on_c, 9, 42, 95
2, 141840, Note_off_c, 9, 35, 95
2, 141840, Note_off_c, 9, 42, 95
2, 141840, Note_on_c, 9, 42, 95
2, 141960, Note_off_c, 9, 42, 95
2, 142080, Note_on_c, 9, 35, 95
2, 142080, Note_on_c, 9, 42, 95
2, 142320, Note_off_c, 9, 35, 95
2, 142320, Note_off_c, 9, 42, 95
2, 142320, Note_on_c, 9, 42, 63
2, 142440, Note_off_c, 9, 42, 63
2, 142560, Note_on_c, 9, 42, 95
2, 142680, Note_off_c, 9, 42, 95
2, 142800, Note_on_c, 9, 42, 95
2, 142920, Note_off_c, 9, 42, 95
2, 143040, Note_on_c, 9, 40, 127
2, 143040, Note_on_c, 9, 42, 95
2, 143280, Note_off_c, 9, 40, 127
2, 143280, Note_off_c, 9, 42, 95
2, 143280, Note_on_c, 9, 42, 63
2, 143400, Note_off_c, 9, 42, 63
2, 143520, Note_on_c, 9, 42, 95
2, 143640, Note_off_c, 9, 42, 95
2, 143760, Note_on_c, 9, 35, 79
2, 143760, Note_on_c, 9, 42, 95
2, 144000, Note_off_c, 9, 35, 79
2, 144000, Note_off_c, 9, 42, 95
2, 144000, Note_on_c, 9, 35, 95
2, 144000, Note_on_c, 9, 42, 95
2, 144120, Note_off_c, 9, 35, 95
2, 144120, Note_off_c, 9, 42, 95
2, 144240, Note_on_c, 9, 42, 63
2, 144360, Note_off_c, 9, 42, 63
2, 144480, Note_on_c, 9, 35, 95
2, 144480, Note_on_c, 9, 42, 95
2, 144720, Note_off_c, 9, 35, 95
2, 144720, Note_off_c, 9, 42, 95
2, 144720, Note_on_c, 9, 42, 95
2, 144720, Note_on_c, 9, 50, 95
2, 144960, Note_off_c, 9, 42, 95
2, 144960, Note_off_c, 9, 50, 95
2, 144960, Note_on_c, 9, 40, 127
2, 144960, Note_on_c, 9, 42, 95
2, 144960, Note_on_c, 9, 43, 79
2, 145200, Note_off_c, 9, 40, 127
2, 145200, Note_off_c, 9, 42, 95
2, 145200, Note_off_c, 9, 43, 79
2, 145200, Note_on_c, 9, 42, 63
2, 145320, Note_off_c, 9, 42, 63
2, 145440, Note_on_c, 9, 35, 95
2, 145440, Note_on_c, 9, 40, 95
2, 145440, Note_on_c, 9, 42, 95
2, 145680, Note_off_c, 9, 35, 95
2, 145680, Note_off_c, 9, 40, 95
2, 145680, Note_off_c, 9, 42, 95
2, 145680, Note_on_c, 9, 40, 95
2, 145680, Note_on_c, 9, 46, 95
2, 145920, Note_off_c, 9, 40, 95
2, 145920, Note_off_c, 9, 46, 95
2, 145920, Note_on_c, 9, 35, 95
2, 145920, Note_on_c, 9, 42, 95
2, 146160, Note_off_c, 9, 35, 95
2, 146160, Note_off_c, 9, 42, 95
2, 146160, Note_on_c, 9, 42, 63
2, 146280, Note_off_c, 9, 42, 63
2, 146400, Note_on_c, 9, 42, 95
2, 146520, Note_off_c, 9, 42, 95
2, 146640, Note_on_c, 9, 42, 95
2, 146760, Note_off_c, 9, 42, 95
2, 146880, Note_on_c, 9, 40, 127
2, 146880, Note_on_c, 9, 42, 95
2, 147120, Note_off_c, 9, 40, 127
2, 147120, Note_off_c, 9, 42, 95
2, 147120, Note_on_c, 9, 42, 63
2, 147240, Note_off_c, 9, 42, 63
2, 147360, Note_on_c, 9, 42, 95
2, 147480, Note_off_c, 9, 42, 95
2, 147600, Note_on_c, 9, 35, 79
2, 147600, Note_on_c, 9, 46, 95
2, 147840, Note_off_c, 9, 35, 79
2, 147840, Note_off_c, 9, 46, 95
2, 147840, Note_on_c, 9, 35, 95
2, 147840, Note_on_c, 9, 42, 95
2, 148080, Note_off_c, 9, 35, 95
2, 148080, Note_off_c, 9, 42, 95
2, 148080, Note_on_c, 9, 42, 63
2, 148200, Note_off_c, 9, 42, 63
2, 148320, Note_on_c, 9, 35, 95
2, 148320, Note_on_c, 9, 42, 95
2, 148560, Note_off_c, 9, 35, 95
2, 148560, Note_off_c, 9, 42, 95
2, 148560, Note_on_c, 9, 42, 95
2, 148680, Note_off_c, 9, 42, 95
2, 148800, Note_on_c, 9, 40, 127
2, 148800, Note_on_c, 9, 42, 95
2, 148800, Note_on_c, 9, 43, 79
2, 149040, Note_off_c, 9, 40, 127
2, 149040, Note_off_c, 9, 42, 95
2, 149040, Note_off_c, 9, 43, 79
2, 149040, Note_on_c, 9, 42, 63
2, 149160, Note_off_c, 9, 42, 63
2, 149280, Note_on_c, 9, 35, 95
2, 149280, Note_on_c, 9, 42, 95
2, 149520, Note_off_c, 9, 35, 95
2, 149520, Note_off_c, 9, 42, 95
2, 149520, Note_on_c, 9, 46, 95
2, 149760, Note_off_c, 9, 46, 95
2, 149760, Note_on_c, 9, 35, 95
2, 149760, Note_on_c, 9, 42, 95
2, 150000, Note_off_c, 9, 35, 95
2, 150000, Note_off_c, 9, 42, 95
2, 150000, Note_on_c, 9, 42, 63
2, 150120, Note_off_c, 9, 42, 63
2, 150240, Note_on_c, 9, 42, 95
2, 150360, Note_off_c, 9, 42, 95
2, 150480, Note_on_c, 9, 42, 95
2, 150600, Note_off_c, 9, 42, 95
2, 150720, Note_on_c, 9, 40, 127
2, 150720, Note_on_c, 9, 42, 95
2, 150960, Note_off_c, 9, 40, 127
2, 150960, Note_off_c, 9, 42, 95
2, 150960, Note_on_c, 9, 42, 63
2, 151080, Note_off_c, 9, 42, 63
2, 151200, Note_on_c, 9, 42, 95
2, 151320, Note_off_c, 9, 42, 95
2, 151440, Note_on_c, 9, 35, 79
2, 151440, Note_on_c, 9, 42, 95
2, 151680, Note_off_c, 9, 35, 79
2, 151680, Note_off_c, 9, 42, 95
2, 151680, Note_on_c, 9, 35, 95
2, 151800, Note_off_c, 9, 35, 95
2, 151920, Note_on_c, 9, 42, 63
2, 152160, Note_off_c, 9, 42, 63
2, 152160, Note_on_c, 9, 35, 95
2, 152160, Note_on_c, 9, 40, 95
2, 152160, Note_on_c, 9, 42, 95
2, 152400, Note_off_c, 9, 35, 95
2, 152400, Note_off_c, 9, 40, 95
2, 152400, Note_off_c, 9, 42, 95
2, 152400, Note_on_c, 9, 40, 95
2, 152400, Note_on_c, 9, 42, 95
2, 152520, Note_off_c, 9, 40, 95
2, 152520, Note_off_c, 9, 42, 95
2, 152640, Note_on_c, 9, 40, 127
2, 152640, Note_on_c, 9, 42, 95
2, 152760, Note_off_c, 9, 40, 127
2, 152760, Note_off_c, 9, 42, 95
2, 152880, Note_on_c, 9, 42, 63
2, 153000, Note_off_c, 9, 42, 63
2, 153120, Note_on_c, 9, 35, 95
2, 153120, Note_on_c, 9, 40, 111
2, 153120, Note_on_c, 9, 42, 95
2, 153360, Note_off_c, 9, 35, 95
2, 153360, Note_off_c, 9, 40, 111
2, 153360, Note_off_c, 9, 42, 95
2, 153360, Note_on_c, 9, 40, 111
2, 153360, Note_on_c, 9, 42, 95
2, 153480, Note_off_c, 9, 40, 111
2, 153480, Note_off_c, 9, 42, 95
2, 153600, Note_on_c, 9, 35, 95
2, 153600, Note_on_c, 9, 51, 63
2, 153600, Note_on_c, 9, 60, 111
2, 153840, Note_off_c, 9, 35, 95
2, 153840, Note_off_c, 9, 51, 63
2, 153840, Note_off_c, 9, 60, 111
2, 153840, Note_on_c, 9, 51, 63
2, 153960, Note_off_c, 9, 51, 63
2, 154080, Note_on_c, 9, 51, 63
2, 154200, Note_off_c, 9, 51, 63
2, 154320, Note_on_c, 9, 51, 63
2, 154440, Note_off_c, 9, 51, 63
2, 154560, Note_on_c, 9, 40, 127
2, 154560, Note_on_c, 9, 51, 63
2, 154560, Note_on_c, 9, 60, 111
2, 154800, Note_off_c, 9, 40, 127
2, 154800, Note_off_c, 9, 51, 63
2, 154800, Note_off_c, 9, 60, 111
2, 154800, Note_on_c, 9, 51, 63
2, 154920, Note_off_c, 9, 51, 63
2, 155040, Note_on_c, 9, 51, 63
2, 155160, Note_off_c, 9, 51, 63
2, 155280, Note_on_c, 9, 35, 79
2, 155280, Note_on_c, 9, 51, 63
2, 155520, Note_off_c, 9, 35, 79
2, 155520, Note_off_c, 9, 51, 63
2, 155520, Note_on_c, 9, 35, 95
2, 155520, Note_on_c, 9, 51, 63
2, 155520, Note_on_c, 9, 60, 111
2, 155760, Note_off_c, 9, 35, 95
2, 155760, Note_off_c, 9, 51, 63
2, 155760, Note_off_c, 9, 60, 111
2, 155760, Note_on_c, 9, 51, 63
2, 155880, Note_off_c, 9, 51, 63
2, 156000, Note_on_c, 9, 35, 95
2, 156000, Note_on_c, 9, 51, 63
2, 156240, Note_off_c, 9, 35, 95
2, 156240, Note_off_c, 9, 51, 63
2, 156240, Note_on_c, 9, 51, 63
2, 156360, Note_off_c, 9, 51, 63
2, 156480, Note_on_c, 9, 39, 95
2, 156480, Note_on_c, 9, 40, 127
2, 156480, Note_on_c, 9, 51, 63
2, 156480, Note_on_c, 9, 60, 111
2, 156720, Note_off_c, 9, 39, 95
2, 156720, Note_off_c, 9, 40, 127
2, 156720, Note_off_c, 9, 51, 63
2, 156720, Note_off_c, 9, 60, 111
2, 156720, Note_on_c, 9, 51, 63
2, 156840, Note_off_c, 9, 51, 63
2, 156960, Note_on_c, 9, 35, 95
2, 156960, Note_on_c, 9, 51, 63
2, 157200, Note_off_c, 9, 35, 95
2, 157200, Note_off_c, 9, 51, 63
2, 157200, Note_on_c, 9, 51, 63
2, 157320, Note_off_c, 9, 51, 63
2, 157440, Note_on_c, 9, 35, 95
2, 157440, Note_on_c, 9, 51, 63
2, 157440, Note_on_c, 9, 60, 111
2, 157680, Note_off_c, 9, 35, 95
2, 157680, Note_off_c, 9, 51, 63
2, 157680, Note_off_c, 9, 60, 111
2, 157680, Note_on_c, 9, 51, 63
2, 157800, Note_off_c, 9, 51, 63
2, 157920, Note_on_c, 9, 51, 63
2, 158040, Note_off_c, 9, 51, 63
2, 158160, Note_on_c, 9, 51, 63
2, 158280, Note_off_c, 9, 51, 63
2, 158400, Note_on_c, 9, 40, 127
2, 158400, Note_on_c, 9, 51, 63
2, 158400, Note_on_c, 9, 60, 111
2, 158640, Note_off_c, 9, 40, 127
2, 158640, Note_off_c, 9, 51, 63
2, 158640, Note_off_c, 9, 60, 111
2, 158640, Note_on_c, 9, 51, 63
2, 158760, Note_off_c, 9, 51, 63
2, 158880, Note_on_c, 9, 51, 63
2, 159000, Note_off_c, 9, 51, 63
2, 159120, Note_on_c, 9, 35, 79
2, 159120, Note_on_c, 9, 51, 63
2, 159360, Note_off_c, 9, 35, 79
2, 159360, Note_off_c, 9, 51, 63
2, 159360, Note_on_c, 9, 35, 95
2, 159360, Note_on_c, 9, 51, 63
2, 159360, Note_on_c, 9, 60, 111
2, 159600, Note_off_c, 9, 35, 95
2, 159600, Note_off_c, 9, 51, 63
2, 159600, Note_off_c, 9, 60, 111
2, 159600, Note_on_c, 9, 51, 63
2, 159720, Note_off_c, 9, 51, 63
2, 159840, Note_on_c, 9, 35, 95
2, 159840, Note_on_c, 9, 51, 63
2, 160080, Note_off_c, 9, 35, 95
2, 160080, Note_off_c, 9, 51, 63
2, 160080, Note_on_c, 9, 51, 63
2, 160200, Note_off_c, 9, 51, 63
2, 160320, Note_on_c, 9, 39, 95
2, 160320, Note_on_c, 9, 40, 127
2, 160320, Note_on_c, 9, 51, 63
2, 160320, Note_on_c, 9, 60, 111
2, 160560, Note_off_c, 9, 39, 95
2, 160560, Note_off_c, 9, 40, 127
2, 160560, Note_off_c, 9, 51, 63
2, 160560, Note_off_c, 9, 60, 111
2, 160560, Note_on_c, 9, 51, 63
2, 160680, Note_off_c, 9, 51, 63
2, 160800, Note_on_c, 9, 35, 95
2, 160800, Note_on_c, 9, 51, 63
2, 161040, Note_off_c, 9, 35, 95
2, 161040, Note_off_c, 9, 51, 63
2, 161040, Note_on_c, 9, 51, 63
2, 161160, Note_off_c, 9, 51, 63
2, 161280, Note_on_c, 9, 35, 95
2, 161280, Note_on_c, 9, 51, 63
2, 161280, Note_on_c, 9, 60, 111
2, 161520, Note_off_c, 9, 35, 95
2, 161520, Note_off_c, 9, 51, 63
2, 161520, Note_off_c, 9, 60, 111
2, 161520, Note_on_c, 9, 51, 63
2, 161640, Note_off_c, 9, 51, 63
2, 161760, Note_on_c, 9, 51, 63
2, 161880, Note_off_c, 9, 51, 63
2, 162000, Note_on_c, 9, 51, 63
2, 162120, Note_off_c, 9, 51, 63
2, 162240, Note_on_c, 9, 40, 127
2, 162240, Note_on_c, 9, 51, 63
2, 162240, Note_on_c, 9, 60, 111
2, 162480, Note_off_c, 9, 40, 127
2, 162480, Note_off_c, 9, 51, 63
2, 162480, Note_off_c, 9, 60, 111
2, 162480, Note_on_c, 9, 51, 63
2, 162600, Note_off_c, 9, 51, 63
2, 162720, Note_on_c, 9, 51, 63
2, 162840, Note_off_c, 9, 51, 63
2, 162960, Note_on_c, 9, 35, 79
2, 162960, Note_on_c, 9, 51, 63
2, 163200, Note_off_c, 9, 35, 79
2, 163200, Note_off_c, 9, 51, 63
2, 163200, Note_on_c, 9, 35, 95
2, 163200, Note_on_c, 9, 51, 63
2, 163200, Note_on_c, 9, 60, 111
2, 163440, Note_off_c, 9, 35, 95
2, 163440, Note_off_c, 9, 51, 63
2, 163440, Note_off_c, 9, 60, 111
2, 163440, Note_on_c, 9, 51, 63
2, 163560, Note_off_c, 9, 51, 63
2, 163680, Note_on_c, 9, 35, 95
2, 163680, Note_on_c, 9, 51, 63
2, 163920, Note_off_c, 9, 35, 95
2, 163920, Note_off_c, 9, 51, 63
2, 163920, Note_on_c, 9, 51, 63
2, 164040, Note_off_c, 9, 51, 63
2, 164160, Note_on_c, 9, 39, 95
2, 164160, Note_on_c, 9, 40, 127
2, 164160, Note_on_c, 9, 51, 63
2, 164160, Note_on_c, 9, 60, 111
2, 164400, Note_off_c, 9, 39, 95
2, 164400, Note_off_c, 9, 40, 127
2, 164400, Note_off_c, 9, 51, 63
2, 164400, Note_off_c, 9, 60, 111
2, 164400, Note_on_c, 9, 51, 63
2, 164520, Note_off_c, 9, 51, 63
2, 164640, Note_on_c, 9, 35, 95
2, 164640, Note_on_c, 9, 51, 63
2, 164880, Note_off_c, 9, 35, 95
2, 164880, Note_off_c, 9, 51, 63
2, 164880, Note_on_c, 9, 51, 63
2, 165000, Note_off_c, 9, 51, 63
2, 165120, Note_on_c, 9, 35, 95
2, 165120, Note_on_c, 9, 51, 63
2, 165120, Note_on_c, 9, 60, 111
2, 165360, Note_off_c, 9, 35, 95
2, 165360, Note_off_c, 9, 51, 63
2, 165360, Note_off_c, 9, 60, 111
2, 165360, Note_on_c, 9, 51, 63
2, 165480, Note_off_c, 9, 51, 63
2, 165600, Note_on_c, 9, 51, 63
2, 165720, Note_off_c, 9, 51, 63
2, 165840, Note_on_c, 9, 51, 63
2, 165960, Note_off_c, 9, 51, 63
2, 166080, Note_on_c, 9, 40, 127
2, 166080, Note_on_c, 9, 51, 63
2, 166080, Note_on_c, 9, 60, 111
2, 166320, Note_off_c, 9, 40, 127
2, 166320, Note_off_c, 9, 51, 63
2, 166320, Note_off_c, 9, 60, 111
2, 166320, Note_on_c, 9, 51, 63
2, 166440, Note_off_c, 9, 51, 63
2, 166560, Note_on_c, 9, 51, 63
2, 166680, Note_off_c, 9, 51, 63
2, 166800, Note_on_c, 9, 35, 79
2, 166800, Note_on_c, 9, 51, 63
2, 167040, Note_off_c, 9, 35, 79
2, 167040, Note_off_c, 9, 51, 63
2, 167040, Note_on_c, 9, 35, 95
2, 167040, Note_on_c, 9, 51, 63
2, 167040, Note_on_c, 9, 60, 111
2, 167280, Note_off_c, 9, 35, 95
2, 167280, Note_off_c, 9, 51, 63
2, 167280, Note_off_c, 9, 60, 111
2, 167280, Note_on_c, 9, 51, 63
2, 167400, Note_off_c, 9, 51, 63
2, 167520, Note_on_c, 9, 35, 95
2, 167520, Note_on_c, 9, 51, 63
2, 167760, Note_off_c, 9, 35, 95
2, 167760, Note_off_c, 9, 51, 63
2, 167760, Note_on_c, 9, 51, 63
2, 167880, Note_off_c, 9, 51, 63
2, 168000, Note_on_c, 9, 39, 95
2, 168000, Note_on_c, 9, 40, 127
2, 168000, Note_on_c, 9, 51, 63
2, 168000, Note_on_c, 9, 60, 111
2, 168240, Note_off_c, 9, 39, 95
2, 168240, Note_off_c, 9, 40, 127
2, 168240, Note_off_c, 9, 51, 63
2, 168240, Note_off_c, 9, 60, 111
2, 168240, Note_on_c, 9, 51, 63
2, 168360, Note_off_c, 9, 51, 63
2, 168480, Note_on_c, 9, 35, 95
2, 168480, Note_on_c, 9, 51, 63
2, 168720, Note_off_c, 9, 35, 95
2, 168720, Note_off_c, 9, 51, 63
2, 168720, Note_on_c, 9, 51, 63
2, 168840, Note_off_c, 9, 51, 63
2, 168960, Note_on_c, 9, 35, 95
2, 168960, Note_on_c, 9, 51, 63
2, 168960, Note_on_c, 9, 60, 111
2, 169200, Note_off_c, 9, 35, 95
2, 169200, Note_off_c, 9, 51, 63
2, 169200, Note_off_c, 9, 60, 111
2, 169200, Note_on_c, 9, 51, 63
2, 169320, Note_off_c, 9, 51, 63
2, 169440, Note_on_c, 9, 51, 63
2, 169560, Note_off_c, 9, 51, 63
2, 169680, Note_on_c, 9, 51, 63
2, 169800, Note_off_c, 9, 51, 63
2, 169920, Note_on_c, 9, 40, 127
2, 169920, Note_on_c, 9, 51, 63
2, 169920, Note_on_c, 9, 60, 111
2, 170160, Note_off_c, 9, 40, 127
2, 170160, Note_off_c, 9, 51, 63
2, 170160, Note_off_c, 9, 60, 111
2, 170160, Note_on_c, 9, 51, 63
2, 170280, Note_off_c, 9, 51, 63
2, 170400, Note_on_c, 9, 51, 63
2, 170520, Note_off_c, 9, 51, 63
2, 170640, Note_on_c, 9, 35, 79
2, 170640, Note_on_c, 9, 51, 63
2, 170880, Note_off_c, 9, 35, 79
2, 170880, Note_off_c, 9, 51, 63
2, 170880, Note_on_c, 9, 35, 95
2, 170880, Note_on_c, 9, 40, 95
2, 170880, Note_on_c, 9, 51, 63
2, 171120, Note_off_c, 9, 35, 95
2, 171120, Note_off_c, 9, 40, 95
2, 171120, Note_off_c, 9, 51, 63
2, 171120, Note_on_c, 9, 40, 95
2, 171120, Note_on_c, 9, 51, 63
2, 171240, Note_off_c, 9, 40, 95
2, 171240, Note_off_c, 9, 51, 63
2, 171360, Note_on_c, 9, 35, 95
2, 171360, Note_on_c, 9, 51, 63
2, 171600, Note_off_c, 9, 35, 95
2, 171600, Note_off_c, 9, 51, 63
2, 171600, Note_on_c, 9, 40, 95
2, 171600, Note_on_c, 9, 51, 63
2, 171840, Note_off_c, 9, 40, 95
2, 171840, Note_off_c, 9, 51, 63
2, 171840, Note_on_c, 9, 40, 127
2, 171840, Note_on_c, 9, 51, 63
2, 171840, Note_on_c, 9, 60, 111
2, 172080, Note_off_c, 9, 40, 127
2, 172080, Note_off_c, 9, 51, 63
2, 172080, Note_off_c, 9, 60, 111
2, 172080, Note_on_c, 9, 40, 95
2, 172080, Note_on_c, 9, 51, 63
2, 172200, Note_off_c, 9, 40, 95
2, 172200, Note_off_c, 9, 51, 63
2, 172320, Note_on_c, 9, 35, 95
2, 172320, Note_on_c, 9, 40, 111
2, 172320, Note_on_c, 9, 51, 63
2, 172560, Note_off_c, 9, 35, 95
2, 172560, Note_off_c, 9, 40, 111
2, 172560, Note_off_c, 9, 51, 63
2, 172560, Note_on_c, 9, 51, 63
2, 172680, Note_off_c, 9, 51, 63
2, 172800, Note_on_c, 9, 35, 95
2, 172800, Note_on_c, 9, 42, 95
2, 173040, Note_off_c, 9, 35, 95
2, 173040, Note_off_c, 9, 42, 95
2, 173040, Note_on_c, 9, 42, 63
2, 173160, Note_off_c, 9, 42, 63
2, 173280, Note_on_c, 9, 42, 95
2, 173400, Note_off_c, 9, 42, 95
2, 173520, Note_on_c, 9, 42, 95
2, 173640, Note_off_c, 9, 42, 95
2, 173760, Note_on_c, 9, 40, 127
2, 173760, Note_on_c, 9, 42, 95
2, 174000, Note_off_c, 9, 40, 127
2, 174000, Note_off_c, 9, 42, 95
2, 174000, Note_on_c, 9, 42, 63
2, 174120, Note_off_c, 9, 42, 63
2, 174240, Note_on_c, 9, 42, 95
2, 174360, Note_off_c, 9, 42, 95
2, 174480, Note_on_c, 9, 35, 79
2, 174480, Note_on_c, 9, 42, 95
2, 174720, Note_off_c, 9, 35, 79
2, 174720, Note_off_c, 9, 42, 95
2, 174720, Note_on_c, 9, 35, 95
2, 174720, Note_on_c, 9, 42, 95
2, 174840, Note_off_c, 9, 35, 95
2, 174840, Note_off_c, 9, 42, 95
2, 174960, Note_on_c, 9, 42, 63
2, 175080, Note_off_c, 9, 42, 63
2, 175200, Note_on_c, 9, 35, 95
2, 175200, Note_on_c, 9, 42, 95
2, 175440, Note_off_c, 9, 35, 95
2, 175440, Note_off_c, 9, 42, 95
2, 175440, Note_on_c, 9, 42, 95
2, 175560, Note_off_c, 9, 42, 95
2, 175680, Note_on_c, 9, 40, 127
2, 175680, Note_on_c, 9, 42, 95
2, 175680, Note_on_c, 9, 43, 79
2, 175920, Note_off_c, 9, 40, 127
2, 175920, Note_off_c, 9, 42, 95
2, 175920, Note_off_c, 9, 43, 79
2, 175920, Note_on_c, 9, 42, 63
2, 176040, Note_off_c, 9, 42, 63
2, 176160, Note_on_c, 9, 35, 95
2, 176160, Note_on_c, 9, 42, 95
2, 176400, Note_off_c, 9, 35, 95
2, 176400, Note_off_c, 9, 42, 95
2, 176400, Note_on_c, 9, 46, 95
2, 176640, Note_off_c, 9, 46, 95
2, 176640, Note_on_c, 9, 35, 95
2, 176640, Note_on_c, 9, 42, 95
2, 176880, Note_off_c, 9, 35, 95
2, 176880, Note_off_c, 9, 42, 95
2, 176880, Note_on_c, 9, 42, 63
2, 177000, Note_off_c, 9, 42, 63
2, 177120, Note_on_c, 9, 42, 95
2, 177240, Note_off_c, 9, 42, 95
2, 177360, Note_on_c, 9, 42, 95
2, 177480, Note_off_c, 9, 42, 95
2, 177600, Note_on_c, 9, 40, 127
2, 177600, Note_on_c, 9, 42, 95
2, 177840, Note_off_c, 9, 40, 127
2, 177840, Note_off_c, 9, 42, 95
2, 177840, Note_on_c, 9, 42, 63
2, 177960, Note_off_c, 9, 42, 63
2, 178080, Note_on_c, 9, 42, 95
2, 178200, Note_off_c, 9, 42, 95
2, 178320, Note_on_c, 9, 35, 79
2, 178320, Note_on_c, 9, 42, 95
2, 178560, Note_off_c, 9, 35, 79
2, 178560, Note_off_c, 9, 42, 95
2, 178560, Note_on_c, 9, 35, 95
2, 178560, Note_on_c, 9, 42, 95
2, 178680, Note_off_c, 9, 35, 95
2, 178680, Note_off_c, 9, 42, 95
2, 178800, Note_on_c, 9, 42, 63
2, 178920, Note_off_c, 9, 42, 63
2, 179040, Note_on_c, 9, 35, 95
2, 179040, Note_on_c, 9, 42, 95
2, 179280, Note_off_c, 9, 35, 95
2, 179280, Note_off_c, 9, 42, 95
2, 179280, Note_on_c, 9, 42, 95
2, 179280, Note_on_c, 9, 50, 95
2, 179520, Note_off_c, 9, 42, 95
2, 179520, Note_off_c, 9, 50, 95
2, 179520, Note_on_c, 9, 40, 127
2, 179520, Note_on_c, 9, 42, 95
2, 179520, Note_on_c, 9, 43, 79
2, 179760, Note_off_c, 9, 40, 127
2, 179760, Note_off_c, 9, 42, 95
2, 179760, Note_off_c, 9, 43, 79
2, 179760, Note_on_c, 9, 46, 63
2, 180000, Note_off_c, 9, 46, 63
2, 180000, Note_on_c, 9, 35, 95
2, 180000, Note_on_c, 9, 40, 95
2, 180000, Note_on_c, 9, 42, 95
2, 180240, Note_off_c, 9, 35, 95
2, 180240, Note_off_c, 9, 40, 95
2, 180240, Note_off_c, 9, 42, 95
2, 180240, Note_on_c, 9, 42, 95
2, 180360, Note_off_c, 9, 42, 95
2, 180480, Note_on_c, 9, 35, 95
2, 180480, Note_on_c, 9, 42, 95
2, 180720, Note_off_c, 9, 35, 95
2, 180720, Note_off_c, 9, 42, 95
2, 180720, Note_on_c, 9, 42, 63
2, 180840, Note_off_c, 9, 42, 63
2, 180960, Note_on_c, 9, 42, 95
2, 181080, Note_off_c, 9, 42, 95
2, 181200, Note_on_c, 9, 42, 95
2, 181320, Note_off_c, 9, 42, 95
2, 181440, Note_on_c, 9, 40, 127
2, 181440, Note_on_c, 9, 42, 95
2, 181680, Note_off_c, 9, 40, 127
2, 181680, Note_off_c, 9, 42, 95
2, 181680, Note_on_c, 9, 42, 63
2, 181800, Note_off_c, 9, 42, 63
2, 181920, Note_on_c, 9, 42, 95
2, 182040, Note_off_c, 9, 42, 95
2, 182160, Note_on_c, 9, 35, 79
2, 182160, Note_on_c, 9, 42, 95
2, 182400, Note_off_c, 9, 35, 79
2, 182400, Note_off_c, 9, 42, 95
2, 182400, Note_on_c, 9, 35, 95
2, 182400, Note_on_c, 9, 42, 95
2, 182520, Note_off_c, 9, 35, 95
2, 182520, Note_off_c, 9, 42, 95
2, 182640, Note_on_c, 9, 42, 63
2, 182760, Note_off_c, 9, 42, 63
2, 182880, Note_on_c, 9, 35, 95
2, 182880, Note_on_c, 9, 42, 95
2, 183120, Note_off_c, 9, 35, 95
2, 183120, Note_off_c, 9, 42, 95
2, 183120, Note_on_c, 9, 42, 95
2, 183240, Note_off_c, 9, 42, 95
2, 183360, Note_on_c, 9, 40, 127
2, 183360, Note_on_c, 9, 42, 95
2, 183600, Note_off_c, 9, 40, 127
2, 183600, Note_off_c, 9, 42, 95
2, 183600, Note_on_c, 9, 42, 63
2, 183720, Note_off_c, 9, 42, 63
2, 183840, Note_on_c, 9, 35, 95
2, 183840, Note_on_c, 9, 40, 95
2, 183840, Note_on_c, 9, 42, 95
2, 184080, Note_off_c, 9, 35, 95
2, 184080, Note_off_c, 9, 40, 95
2, 184080, Note_off_c, 9, 42, 95
2, 184080, Note_on_c, 9, 40, 95
2, 184080, Note_on_c, 9, 46, 95
2, 184320, Note_off_c, 9, 40, 95
2, 184320, Note_off_c, 9, 46, 95
2, 184320, Note_on_c, 9, 35, 95
2, 184320, Note_on_c, 9, 42, 95
2, 184560, Note_off_c, 9, 35, 95
2, 184560, Note_off_c, 9, 42, 95
2, 184560, Note_on_c, 9, 42, 63
2, 184680, Note_off_c, 9, 42, 63
2, 184800, Note_on_c, 9, 42, 95
2, 184920, Note_off_c, 9, 42, 95
2, 185040, Note_on_c, 9, 42, 95
2, 185160, Note_off_c, 9, 42, 95
2, 185280, Note_on_c, 9, 40, 127
2, 185280, Note_on_c, 9, 42, 95
2, 185520, Note_off_c, 9, 40, 127
2, 185520, Note_off_c, 9, 42, 95
2, 185520, Note_on_c, 9, 42, 63
2, 185640, Note_off_c, 9, 42, 63
2, 185760, Note_on_c, 9, 42, 95
2, 185880, Note_off_c, 9, 42, 95
2, 186000, Note_on_c, 9, 35, 79
2, 186000, Note_on_c, 9, 42, 95
2, 186240, Note_off_c, 9, 35, 79
2, 186240, Note_off_c, 9, 42, 95
2, 186240, Note_on_c, 9, 35, 95
2, 186240, Note_on_c, 9, 42, 95
2, 186360, Note_off_c, 9, 35, 95
2, 186360, Note_off_c, 9, 42, 95
2, 186480, Note_on_c, 9, 42, 63
2, 186600, Note_off_c, 9, 42, 63
2, 186720, Note_on_c, 9, 35, 95
2, 186720, Note_on_c, 9, 42, 95
2, 186960, Note_off_c, 9, 35, 95
2, 186960, Note_off_c, 9, 42, 95
2, 186960, Note_on_c, 9, 42, 95
2, 186960, Note_on_c, 9, 50, 95
2, 187200, Note_off_c, 9, 42, 95
2, 187200, Note_off_c, 9, 50, 95
2, 187200, Note_on_c, 9, 40, 127
2, 187200, Note_on_c, 9, 42, 95
2, 187200, Note_on_c, 9, 43, 111
2, 187440, Note_off_c, 9, 40, 127
2, 187440, Note_off_c, 9, 42, 95
2, 187440, Note_off_c, 9, 43, 111
2, 187440, Note_on_c, 9, 42, 63
2, 187560, Note_off_c, 9, 42, 63
2, 187680, Note_on_c, 9, 35, 95
2, 187680, Note_on_c, 9, 42, 95
2, 187920, Note_off_c, 9, 35, 95
2, 187920, Note_off_c, 9, 42, 95
2, 187920, Note_on_c, 9, 42, 95
2, 188040, Note_off_c, 9, 42, 95
2, 188160, Note_on_c, 9, 35, 95
2, 188160, Note_on_c, 9, 42, 95
2, 188400, Note_off_c, 9, 35, 95
2, 188400, Note_off_c, 9, 42, 95
2, 188400, Note_on_c, 9, 42, 63
2, 188520, Note_off_c, 9, 42, 63
2, 188640, Note_on_c, 9, 42, 95
2, 188760, Note_off_c, 9, 42, 95
2, 188880, Note_on_c, 9, 42, 95
2, 189000, Note_off_c, 9, 42, 95
2, 189120, Note_on_c, 9, 40, 127
2, 189120, Note_on_c, 9, 42, 95
2, 189360, Note_off_c, 9, 40, 127
2, 189360, Note_off_c, 9, 42, 95
2, 189360, Note_on_c, 9, 42, 63
2, 189480, Note_off_c, 9, 42, 63
2, 189600, Note_on_c, 9, 42, 95
2, 189720, Note_off_c, 9, 42, 95
2, 189840, Note_on_c, 9, 35, 79
2, 189840, Note_on_c, 9, 42, 95
2, 190080, Note_off_c, 9, 35, 79
2, 190080, Note_off_c, 9, 42, 95
2, 190080, Note_on_c, 9, 35, 95
2, 190080, Note_on_c, 9, 42, 95
2, 190200, Note_off_c, 9, 35, 95
2, 190200, Note_off_c, 9, 42, 95
2, 190320, Note_on_c, 9, 42, 63
2, 190440, Note_off_c, 9, 42, 63
2, 190560, Note_on_c, 9, 35, 95
2, 190560, Note_on_c, 9, 42, 95
2, 190800, Note_off_c, 9, 35, 95
2, 190800, Note_off_c, 9, 42, 95
2, 190800, Note_on_c, 9, 42, 95
2, 190800, Note_on_c, 9, 50, 95
2, 191040, Note_off_c, 9, 42, 95
2, 191040, Note_off_c, 9, 50, 95
2, 191040, Note_on_c, 9, 40, 127
2, 191040, Note_on_c, 9, 42, 95
2, 191040, Note_on_c, 9, 43, 79
2, 191280, Note_off_c, 9, 40, 127
2, 191280, Note_off_c, 9, 42, 95
2, 191280, Note_off_c, 9, 43, 79
2, 191280, Note_on_c, 9, 46, 63
2, 191520, Note_off_c, 9, 46, 63
2, 191520, Note_on_c, 9, 35, 95
2, 191520, Note_on_c, 9, 42, 95
2, 191760, Note_off_c, 9, 35, 95
2, 191760, Note_off_c, 9, 42, 95
2, 191760, Note_on_c, 9, 42, 95
2, 191880, Note_off_c, 9, 42, 95
2, 192000, Note_on_c, 9, 35, 95
2, 192000, Note_on_c, 9, 42, 95
2, 192240, Note_off_c, 9, 35, 95
2, 192240, Note_off_c, 9, 42, 95
2, 192240, Note_on_c, 9, 42, 63
2, 192360, Note_off_c, 9, 42, 63
2, 192480, Note_on_c, 9, 42, 95
2, 192600, Note_off_c, 9, 42, 95
2, 192720, Note_on_c, 9, 42, 95
2, 192840, Note_off_c, 9, 42, 95
2, 192960, Note_on_c, 9, 40, 127
2, 192960, Note_on_c, 9, 42, 95
2, 193200, Note_off_c, 9, 40, 127
2, 193200, Note_off_c, 9, 42, 95
2, 193200, Note_on_c, 9, 42, 63
2, 193320, Note_off_c, 9, 42, 63
2, 193440, Note_on_c, 9, 42, 95
2, 193560, Note_off_c, 9, 42, 95
2, 193680, Note_on_c, 9, 35, 79
2, 193680, Note_on_c, 9, 46, 95
2, 193920, Note_off_c, 9, 35, 79
2, 193920, Note_off_c, 9, 46, 95
2, 193920, Note_on_c, 9, 35, 95
2, 193920, Note_on_c, 9, 42, 95
2, 194160, Note_off_c, 9, 35, 95
2, 194160, Note_off_c, 9, 42, 95
2, 194160, Note_on_c, 9, 42, 63
2, 194280, Note_off_c, 9, 42, 63
2, 194400, Note_on_c, 9, 35, 95
2, 194400, Note_on_c, 9, 42, 95
2, 194640, Note_off_c, 9, 35, 95
2, 194640, Note_off_c, 9, 42, 95
2, 194640, Note_on_c, 9, 42, 95
2, 194760, Note_off_c, 9, 42, 95
2, 194880, Note_on_c, 9, 40, 127
2, 194880, Note_on_c, 9, 42, 95
2, 195120, Note_off_c, 9, 40, 127
2, 195120, Note_off_c, 9, 42, 95
2, 195120, Note_on_c, 9, 42, 63
2, 195240, Note_off_c, 9, 42, 63
2, 195360, Note_on_c, 9, 35, 95
2, 195360, Note_on_c, 9, 40, 95
2, 195360, Note_on_c, 9, 42, 95
2, 195600, Note_off_c, 9, 35, 95
2, 195600, Note_off_c, 9, 40, 95
2, 195600, Note_off_c, 9, 42, 95
2, 195600, Note_on_c, 9, 42, 95
2, 195720, Note_off_c, 9, 42, 95
2, 195840, Note_on_c, 9, 35, 95
2, 195840, Note_on_c, 9, 42, 95
2, 196080, Note_off_c, 9, 35, 95
2, 196080, Note_off_c, 9, 42, 95
2, 196080, Note_on_c, 9, 42, 63
2, 196200, Note_off_c, 9, 42, 63
2, 196320, Note_on_c, 9, 42, 95
2, 196440, Note_off_c, 9, 42, 95
2, 196560, Note_on_c, 9, 46, 95
2, 196800, Note_off_c, 9, 46, 95
2, 196800, Note_on_c, 9, 40, 127
2, 196800, Note_on_c, 9, 42, 95
2, 197040, Note_off_c, 9, 40, 127
2, 197040, Note_off_c, 9, 42, 95
2, 197040, Note_on_c, 9, 42, 63
2, 197160, Note_off_c, 9, 42, 63
2, 197280, Note_on_c, 9, 42, 95
2, 197400, Note_off_c, 9, 42, 95
2, 197520, Note_on_c, 9, 35, 79
2, 197520, Note_on_c, 9, 42, 95
2, 197760, Note_off_c, 9, 35, 79
2, 197760, Note_off_c, 9, 42, 95
2, 197760, Note_on_c, 9, 35, 95
2, 197760, Note_on_c, 9, 42, 95
2, 197880, Note_off_c, 9, 35, 95
2, 197880, Note_off_c, 9, 42, 95
2, 198000, Note_on_c, 9, 42, 63
2, 198120, Note_off_c, 9, 42, 63
2, 198240, Note_on_c, 9, 35, 95
2, 198240, Note_on_c, 9, 42, 95
2, 198480, Note_off_c, 9, 35, 95
2, 198480, Note_off_c, 9, 42, 95
2, 198480, Note_on_c, 9, 42, 95
2, 198480, Note_on_c, 9, 50, 95
2, 198720, Note_off_c, 9, 42, 95
2, 198720, Note_off_c, 9, 50, 95
2, 198720, Note_on_c, 9, 40, 127
2, 198720, Note_on_c, 9, 42, 95
2, 198960, Note_off_c, 9, 40, 127
2, 198960, Note_off_c, 9, 42, 95
2, 198960, Note_on_c, 9, 42, 63
2, 199080, Note_off_c, 9, 42, 63
2, 199200, Note_on_c, 9, 35, 95
2, 199200, Note_on_c, 9, 42, 95
2, 199440, Note_off_c, 9, 35, 95
2, 199440, Note_off_c, 9, 42, 95
2, 199440, Note_on_c, 9, 42, 95
2, 199560, Note_off_c, 9, 42, 95
2, 199680, Note_on_c, 9, 35, 95
2, 199680, Note_on_c, 9, 42, 95
2, 199920, Note_off_c, 9, 35, 95
2, 199920, Note_off_c, 9, 42, 95
2, 199920, Note_on_c, 9, 42, 63
2, 200040, Note_off_c, 9, 42, 63
2, 200160, Note_on_c, 9, 42, 95
2, 200280, Note_off_c, 9, 42, 95
2, 200400, Note_on_c, 9, 42, 95
2, 200520, Note_off_c, 9, 42, 95
2, 200640, Note_on_c, 9, 40, 127
2, 200640, Note_on_c, 9, 42, 95
2, 200880, Note_off_c, 9, 40, 127
2, 200880, Note_off_c, 9, 42, 95
2, 200880, Note_on_c, 9, 42, 63
2, 201000, Note_off_c, 9, 42, 63
2, 201120, Note_on_c, 9, 42, 95
2, 201240, Note_off_c, 9, 42, 95
2, 201360, Note_on_c, 9, 35, 79
2, 201360, Note_on_c, 9, 42, 95
2, 201600, Note_off_c, 9, 35, 79
2, 201600, Note_off_c, 9, 42, 95
2, 201600, Note_on_c, 9, 35, 95
2, 201600, Note_on_c, 9, 42, 95
2, 201600, Note_on_c, 9, 50, 111
2, 201840, Note_off_c, 9, 35, 95
2, 201840, Note_off_c, 9, 42, 95
2, 201840, Note_off_c, 9, 50, 111
2, 201840, Note_on_c, 9, 42, 63
2, 201840, Note_on_c, 9, 50, 95
2, 201960, Note_off_c, 9, 42, 63
2, 201960, Note_off_c, 9, 50, 95
2, 202080, Note_on_c, 9, 35, 95
2, 202080, Note_on_c, 9, 42, 95
2, 202080, Note_on_c, 9, 50, 95
2, 202320, Note_off_c, 9, 35, 95
2, 202320, Note_off_c, 9, 42, 95
2, 202320, Note_off_c, 9, 50, 95
2, 202320, Note_on_c, 9, 42, 95
2, 202320, Note_on_c, 9, 47, 95
2, 202560, Note_off_c, 9, 42, 95
2, 202560, Note_off_c, 9, 47, 95
2, 202560, Note_on_c, 9, 40, 127
2, 202560, Note_on_c, 9, 42, 95
2, 202560, Note_on_c, 9, 47, 111
2, 202800, Note_off_c, 9, 40, 127
2, 202800, Note_off_c, 9, 42, 95
2, 202800, Note_off_c, 9, 47, 111
2, 202800, Note_on_c, 9, 42, 63
2, 202800, Note_on_c, 9, 47, 95
2, 202920, Note_off_c, 9, 42, 63
2, 202920, Note_off_c, 9, 47, 95
2, 203040, Note_on_c, 9, 35, 95
2, 203040, Note_on_c, 9, 42, 95
2, 203040, Note_on_c, 9, 43, 95
2, 203280, Note_off_c, 9, 35, 95
2, 203280, Note_off_c, 9, 42, 95
2, 203280, Note_off_c, 9, 43, 95
2, 203280, Note_on_c, 9, 43, 95
2, 203280, Note_on_c, 9, 46, 95
2, 203520, Note_off_c, 9, 43, 95
2, 203520, Note_off_c, 9, 46, 95
2, 203520, Note_on_c, 9, 35, 95
2, 203520, Note_on_c, 9, 51, 63
2, 203520, Note_on_c, 9, 60, 111
2, 203760, Note_off_c, 9, 35, 95
2, 203760, Note_off_c, 9, 51, 63
2, 203760, Note_off_c, 9, 60, 111
2, 203760, Note_on_c, 9, 51, 63
2, 203880, Note_off_c, 9, 51, 63
2, 204000, Note_on_c, 9, 51, 63
2, 204120, Note_off_c, 9, 51, 63
2, 204240, Note_on_c, 9, 51, 63
2, 204360, Note_off_c, 9, 51, 63
2, 204480, Note_on_c, 9, 40, 127
2, 204480, Note_on_c, 9, 51, 63
2, 204480, Note_on_c, 9, 60, 111
2, 204720, Note_off_c, 9, 40, 127
2, 204720, Note_off_c, 9, 51, 63
2, 204720, Note_off_c, 9, 60, 111
2, 204720, Note_on_c, 9, 51, 63
2, 204840, Note_off_c, 9, 51, 63
2, 204960, Note_on_c, 9, 51, 63
2, 205080, Note_off_c, 9, 51, 63
2, 205200, Note_on_c, 9, 35, 79
2, 205200, Note_on_c, 9, 51, 63
2, 205440, Note_off_c, 9, 35, 79
2, 205440, Note_off_c, 9, 51, 63
2, 205440, Note_on_c, 9, 35, 95
2, 205440, Note_on_c, 9, 51, 63
2, 205440, Note_on_c, 9, 60, 111
2, 205680, Note_off_c, 9, 35, 95
2, 205680, Note_off_c, 9, 51, 63
2, 205680, Note_off_c, 9, 60, 111
2, 205680, Note_on_c, 9, 51, 63
2, 205800, Note_off_c, 9, 51, 63
2, 205920, Note_on_c, 9, 35, 95
2, 205920, Note_on_c, 9, 51, 63
2, 206160, Note_off_c, 9, 35, 95
2, 206160, Note_off_c, 9, 51, 63
2, 206160, Note_on_c, 9, 51, 63
2, 206280, Note_off_c, 9, 51, 63
2, 206400, Note_on_c, 9, 39, 95
2, 206400, Note_on_c, 9, 40, 127
2, 206400, Note_on_c, 9, 51, 63
2, 206400, Note_on_c, 9, 60, 111
2, 206640, Note_off_c, 9, 39, 95
2, 206640, Note_off_c, 9, 40, 127
2, 206640, Note_off_c, 9, 51, 63
2, 206640, Note_off_c, 9, 60, 111
2, 206640, Note_on_c, 9, 51, 63
2, 206760, Note_off_c, 9, 51, 63
2, 206880, Note_on_c, 9, 35, 95
2, 206880, Note_on_c, 9, 51, 63
2, 207120, Note_off_c, 9, 35, 95
2, 207120, Note_off_c, 9, 51, 63
2, 207120, Note_on_c, 9, 51, 63
2, 207240, Note_off_c, 9, 51, 63
2, 207360, Note_on_c, 9, 35, 95
2, 207360, Note_on_c, 9, 51, 63
2, 207360, Note_on_c, 9, 60, 111
2, 207600, Note_off_c, 9, 35, 95
2, 207600, Note_off_c, 9, 51, 63
2, 207600, Note_off_c, 9, 60, 111
2, 207600, Note_on_c, 9, 51, 63
2, 207720, Note_off_c, 9, 51, 63
2, 207840, Note_on_c, 9, 51, 63
2, 207960, Note_off_c, 9, 51, 63
2, 208080, Note_on_c, 9, 51, 63
2, 208200, Note_off_c, 9, 51, 63
2, 208320, Note_on_c, 9, 40, 127
2, 208320, Note_on_c, 9, 51, 63
2, 208320, Note_on_c, 9, 60, 111
2, 208560, Note_off_c, 9, 40, 127
2, 208560, Note_off_c, 9, 51, 63
2, 208560, Note_off_c, 9, 60, 111
2, 208560, Note_on_c, 9, 51, 63
2, 208680, Note_off_c, 9, 51, 63
2, 208800, Note_on_c, 9, 51, 63
2, 208920, Note_off_c, 9, 51, 63
2, 209040, Note_on_c, 9, 35, 79
2, 209040, Note_on_c, 9, 51, 63
2, 209280, Note_off_c, 9, 35, 79
2, 209280, Note_off_c, 9, 51, 63
2, 209280, Note_on_c, 9, 35, 95
2, 209280, Note_on_c, 9, 51, 63
2, 209280, Note_on_c, 9, 60, 111
2, 209520, Note_off_c, 9, 35, 95
2, 209520, Note_off_c, 9, 51, 63
2, 209520, Note_off_c, 9, 60, 111
2, 209520, Note_on_c, 9, 51, 63
2, 209640, Note_off_c, 9, 51, 63
2, 209760, Note_on_c, 9, 35, 95
2, 209760, Note_on_c, 9, 51, 63
2, 210000, Note_off_c, 9, 35, 95
2, 210000, Note_off_c, 9, 51, 63
2, 210000, Note_on_c, 9, 51, 63
2, 210120, Note_off_c, 9, 51, 63
2, 210240, Note_on_c, 9, 39, 95
2, 210240, Note_on_c, 9, 40, 127
2, 210240, Note_on_c, 9, 51, 63
2, 210240, Note_on_c, 9, 60, 111
2, 210480, Note_off_c, 9, 39, 95
2, 210480, Note_off_c, 9, 40, 127
2, 210480, Note_off_c, 9, 51, 63
2, 210480, Note_off_c, 9, 60, 111
2, 210480, Note_on_c, 9, 51, 63
2, 210600, Note_off_c, 9, 51, 63
2, 210720, Note_on_c, 9, 35, 95
2, 210720, Note_on_c, 9, 51, 63
2, 210960, Note_off_c, 9, 35, 95
2, 210960, Note_off_c, 9, 51, 63
2, 210960, Note_on_c, 9, 51, 63
2, 211080, Note_off_c, 9, 51, 63
2, 211200, Note_on_c, 9, 35, 95
2, 211200, Note_on_c, 9, 51, 63
2, 211200, Note_on_c, 9, 60, 111
2, 211440, Note_off_c, 9, 35, 95
2, 211440, Note_off_c, 9, 51, 63
2, 211440, Note_off_c, 9, 60, 111
2, 211440, Note_on_c, 9, 51, 63
2, 211560, Note_off_c, 9, 51, 63
2, 211680, Note_on_c, 9, 51, 63
2, 211800, Note_off_c, 9, 51, 63
2, 211920, Note_on_c, 9, 51, 63
2, 212040, Note_off_c, 9, 51, 63
2, 212160, Note_on_c, 9, 40, 127
2, 212160, Note_on_c, 9, 51, 63
2, 212160, Note_on_c, 9, 60, 111
2, 212400, Note_off_c, 9, 40, 127
2, 212400, Note_off_c, 9, 51, 63
2, 212400, Note_off_c, 9, 60, 111
2, 212400, Note_on_c, 9, 51, 63
2, 212520, Note_off_c, 9, 51, 63
2, 212640, Note_on_c, 9, 51, 63
2, 212760, Note_off_c, 9, 51, 63
2, 212880, Note_on_c, 9, 35, 79
2, 212880, Note_on_c, 9, 51, 63
2, 213120, Note_off_c, 9, 35, 79
2, 213120, Note_off_c, 9, 51, 63
2, 213120, Note_on_c, 9, 35, 95
2, 213120, Note_on_c, 9, 51, 63
2, 213120, Note_on_c, 9, 60, 111
2, 213360, Note_off_c, 9, 35, 95
2, 213360, Note_off_c, 9, 51, 63
2, 213360, Note_off_c, 9, 60, 111
2, 213360, Note_on_c, 9, 51, 63
2, 213480, Note_off_c, 9, 51, 63
2, 213600, Note_on_c, 9, 35, 95
2, 213600, Note_on_c, 9, 51, 63
2, 213840, Note_off_c, 9, 35, 95
2, 213840, Note_off_c, 9, 51, 63
2, 213840, Note_on_c, 9, 51, 63
2, 213960, Note_off_c, 9, 51, 63
2, 214080, Note_on_c, 9, 39, 95
2, 214080, Note_on_c, 9, 40, 127
2, 214080, Note_on_c, 9, 51, 63
2, 214080, Note_on_c, 9, 60, 111
2, 214320, Note_off_c, 9, 39, 95
2, 214320, Note_off_c, 9, 40, 127
2, 214320, Note_off_c, 9, 51, 63
2, 214320, Note_off_c, 9, 60, 111
2, 214320, Note_on_c, 9, 51, 63
2, 214440, Note_off_c, 9, 51, 63
2, 214560, Note_on_c, 9, 35, 95
2, 214560, Note_on_c, 9, 51, 63
2, 214800, Note_off_c, 9, 35, 95
2, 214800, Note_off_c, 9, 51, 63
2, 214800, Note_on_c, 9, 51, 63
2, 214920, Note_off_c, 9, 51, 63
2, 215040, Note_on_c, 9, 35, 95
2, 215040, Note_on_c, 9, 40, 111
2, 215040, Note_on_c, 9, 51, 63
2, 215040, Note_on_c, 9, 60, 111
2, 215280, Note_off_c, 9, 35, 95
2, 215280, Note_off_c, 9, 40, 111
2, 215280, Note_off_c, 9, 51, 63
2, 215280, Note_off_c, 9, 60, 111
2, 215280, Note_on_c, 9, 40, 95
2, 215280, Note_on_c, 9, 51, 63
2, 215280, Note_on_c, 9, 40, 63
2, 215400, Note_off_c, 9, 40, 95
2, 215400, Note_off_c, 9, 51, 63
2, 215400, Note_off_c, 9, 40, 63
2, 215400, Note_on_c, 9, 40, 95
2, 215520, Note_off_c, 9, 40, 95
2, 215520, Note_on_c, 9, 40, 111
2, 215520, Note_on_c, 9, 51, 63
2, 215640, Note_off_c, 9, 40, 111
2, 215640, Note_off_c, 9, 51, 63
2, 215760, Note_on_c, 9, 40, 95
2, 215760, Note_on_c, 9, 51, 63
2, 215880, Note_off_c, 9, 40, 95
2, 215880, Note_off_c, 9, 51, 63
2, 216000, Note_on_c, 9, 40, 127
2, 216000, Note_on_c, 9, 51, 63
2, 216000, Note_on_c, 9, 60, 111
2, 216240, Note_off_c, 9, 40, 127
2, 216240, Note_off_c, 9, 51, 63
2, 216240, Note_off_c, 9, 60, 111
2, 216240, Note_on_c, 9, 40, 95
2, 216240, Note_on_c, 9, 51, 63
2, 216360, Note_off_c, 9, 40, 95
2, 216360, Note_off_c, 9, 51, 63
2, 216480, Note_on_c, 9, 40, 111
2, 216480, Note_on_c, 9, 51, 63
2, 216600, Note_off_c, 9, 40, 111
2, 216600, Note_off_c, 9, 51, 63
2, 216720, Note_on_c, 9, 35, 79
2, 216720, Note_on_c, 9, 40, 111
2, 216720, Note_on_c, 9, 51, 63
2, 216960, Note_off_c, 9, 35, 79
2, 216960, Note_off_c, 9, 40, 111
2, 216960, Note_off_c, 9, 51, 63
2, 216960, Note_on_c, 9, 35, 95
2, 216960, Note_on_c, 9, 47, 111
2, 216960, Note_on_c, 9, 51, 63
2, 216960, Note_on_c, 9, 60, 111
2, 217200, Note_off_c, 9, 35, 95
2, 217200, Note_off_c, 9, 47, 111
2, 217200, Note_off_c, 9, 51, 63
2, 217200, Note_off_c, 9, 60, 111
2, 217200, Note_on_c, 9, 47, 95
2, 217200, Note_on_c, 9, 51, 63
2, 217200, Note_on_c, 9, 47, 63
2, 217320, Note_off_c, 9, 47, 95
2, 217320, Note_off_c, 9, 51, 63
2, 217320, Note_off_c, 9, 47, 63
2, 217320, Note_on_c, 9, 47, 95
2, 217440, Note_off_c, 9, 47, 95
2, 217440, Note_on_c, 9, 35, 95
2, 217440, Note_on_c, 9, 47, 111
2, 217440, Note_on_c, 9, 51, 63
2, 217680, Note_off_c, 9, 35, 95
2, 217680, Note_off_c, 9, 47, 111
2, 217680, Note_off_c, 9, 51, 63
2, 217680, Note_on_c, 9, 47, 95
2, 217680, Note_on_c, 9, 51, 63
2, 217800, Note_off_c, 9, 47, 95
2, 217800, Note_off_c, 9, 51, 63
2, 217920, Note_on_c, 9, 39, 95
2, 217920, Note_on_c, 9, 40, 127
2, 217920, Note_on_c, 9, 47, 111
2, 217920, Note_on_c, 9, 51, 63
2, 217920, Note_on_c, 9, 60, 111
2, 218160, Note_off_c, 9, 39, 95
2, 218160, Note_off_c, 9, 40, 127
2, 218160, Note_off_c, 9, 47, 111
2, 218160, Note_off_c, 9, 51, 63
2, 218160, Note_off_c, 9, 60, 111
2, 218160, Note_on_c, 9, 47, 95
2, 218160, Note_on_c, 9, 51, 63
2, 218280, Note_off_c, 9, 47, 95
2, 218280, Note_off_c, 9, 51, 63
2, 218400, Note_on_c, 9, 35, 95
2, 218400, Note_on_c, 9, 47, 111
2, 218400, Note_on_c, 9, 51, 63
2, 218640, Note_off_c, 9, 35, 95
2, 218640, Note_off_c, 9, 47, 111
2, 218640, Note_off_c, 9, 51, 63
2, 218640, Note_on_c, 9, 47, 111
2, 218640, Note_on_c, 9, 51, 63
2, 218760, Note_off_c, 9, 47, 111
2, 218760, Note_off_c, 9, 51, 63
2, 218880, Note_on_c, 9, 35, 95
2, 218880, Note_on_c, 9, 40, 111
2, 218880, Note_on_c, 9, 51, 63
2, 218880, Note_on_c, 9, 60, 111
2, 219120, Note_off_c, 9, 35, 95
2, 219120, Note_off_c, 9, 40, 111
2, 219120, Note_off_c, 9, 51, 63
2, 219120, Note_off_c, 9, 60, 111
2, 219120, Note_on_c, 9, 40, 95
2, 219120, Note_on_c, 9, 51, 63
2, 219120, Note_on_c, 9, 40, 63
2, 219240, Note_off_c, 9, 40, 95
2, 219240, Note_off_c, 9, 51, 63
2, 219240, Note_off_c, 9, 40, 63
2, 219240, Note_on_c, 9, 40, 95
2, 219360, Note_off_c, 9, 40, 95
2, 219360, Note_on_c, 9, 40, 111
2, 219360, Note_on_c, 9, 51, 63
2, 219480, Note_off_c, 9, 40, 111
2, 219480, Note_off_c, 9, 51, 63
2, 219600, Note_on_c, 9, 40, 95
2, 219600, Note_on_c, 9, 51, 63
2, 219720, Note_off_c, 9, 40, 95
2, 219720, Note_off_c, 9, 51, 63
2, 219840, Note_on_c, 9, 40, 127
2, 219840, Note_on_c, 9, 51, 63
2, 219840, Note_on_c, 9, 60, 111
2, 220080, Note_off_c, 9, 40, 127
2, 220080, Note_off_c, 9, 51, 63
2, 220080, Note_off_c, 9, 60, 111
2, 220080, Note_on_c, 9, 40, 95
2, 220080, Note_on_c, 9, 51, 63
2, 220200, Note_off_c, 9, 40, 95
2, 220200, Note_off_c, 9, 51, 63
2, 220320, Note_on_c, 9, 40, 111
2, 220320, Note_on_c, 9, 51, 63
2, 220440, Note_off_c, 9, 40, 111
2, 220440, Note_off_c, 9, 51, 63
2, 220560, Note_on_c, 9, 35, 79
2, 220560, Note_on_c, 9, 40, 111
2, 220560, Note_on_c, 9, 51, 63
2, 220800, Note_off_c, 9, 35, 79
2, 220800, Note_off_c, 9, 40, 111
2, 220800, Note_off_c, 9, 51, 63
2, 220800, Note_on_c, 9, 35, 95
2, 220800, Note_on_c, 9, 40, 95
2, 220800, Note_on_c, 9, 51, 63
2, 221040, Note_off_c, 9, 35, 95
2, 221040, Note_off_c, 9, 40, 95
2, 221040, Note_off_c, 9, 51, 63
2, 221040, Note_on_c, 9, 40, 95
2, 221040, Note_on_c, 9, 51, 63
2, 221160, Note_off_c, 9, 40, 95
2, 221160, Note_off_c, 9, 51, 63
2, 221280, Note_on_c, 9, 35, 95
2, 221280, Note_on_c, 9, 51, 63
2, 221520, Note_off_c, 9, 35, 95
2, 221520, Note_off_c, 9, 51, 63
2, 221520, Note_on_c, 9, 40, 95
2, 221520, Note_on_c, 9, 51, 63
2, 221760, Note_off_c, 9, 40, 95
2, 221760, Note_off_c, 9, 51, 63
2, 221760, Note_on_c, 9, 40, 127
2, 221760, Note_on_c, 9, 51, 63
2, 221760, Note_on_c, 9, 60, 111
2, 222000, Note_off_c, 9, 40, 127
2, 222000, Note_off_c, 9, 51, 63
2, 222000, Note_off_c, 9, 60, 111
2, 222000, Note_on_c, 9, 40, 95
2, 222000, Note_on_c, 9, 51, 63
2, 222120, Note_off_c, 9, 40, 95
2, 222120, Note_off_c, 9, 51, 63
2, 222240, Note_on_c, 9, 35, 95
2, 222240, Note_on_c, 9, 51, 63
2, 222480, Note_off_c, 9, 35, 95
2, 222480, Note_off_c, 9, 51, 63
2, 222480, Note_on_c, 9, 51, 63
2, 222600, Note_off_c, 9, 51, 63
2, 222720, Note_on_c, 9, 35, 95
2, 222720, Note_on_c, 9, 42, 95
2, 222720, Note_on_c, 9, 57, 111
2, 222960, Note_off_c, 9, 35, 95
2, 222960, Note_off_c, 9, 42, 95
2, 222960, Note_off_c, 9, 57, 111
2, 222960, Note_on_c, 9, 42, 63
2, 223080, Note_off_c, 9, 42, 63
2, 223200, Note_on_c, 9, 42, 95
2, 223320, Note_off_c, 9, 42, 95
2, 223440, Note_on_c, 9, 46, 95
2, 223680, Note_off_c, 9, 46, 95
2, 223680, Note_on_c, 9, 40, 127
2, 223680, Note_on_c, 9, 42, 95
2, 223920, Note_off_c, 9, 40, 127
2, 223920, Note_off_c, 9, 42, 95
2, 223920, Note_on_c, 9, 42, 63
2, 224040, Note_off_c, 9, 42, 63
2, 224160, Note_on_c, 9, 42, 95
2, 224280, Note_off_c, 9, 42, 95
2, 224400, Note_on_c, 9, 35, 79
2, 224400, Note_on_c, 9, 46, 95
2, 224640, Note_off_c, 9, 35, 79
2, 224640, Note_off_c, 9, 46, 95
2, 224640, Note_on_c, 9, 35, 95
2, 224640, Note_on_c, 9, 42, 95
2, 224880, Note_off_c, 9, 35, 95
2, 224880, Note_off_c, 9, 42, 95
2, 224880, Note_on_c, 9, 42, 63
2, 225000, Note_off_c, 9, 42, 63
2, 225120, Note_on_c, 9, 35, 95
2, 225120, Note_on_c, 9, 42, 95
2, 225360, Note_off_c, 9, 35, 95
2, 225360, Note_off_c, 9, 42, 95
2, 225360, Note_on_c, 9, 42, 95
2, 225480, Note_off_c, 9, 42, 95
2, 225600, Note_on_c, 9, 40, 127
2, 225600, Note_on_c, 9, 42, 95
2, 225840, Note_off_c, 9, 40, 127
2, 225840, Note_off_c, 9, 42, 95
2, 225840, Note_on_c, 9, 42, 63
2, 225960, Note_off_c, 9, 42, 63
2, 226080, Note_on_c, 9, 35, 95
2, 226080, Note_on_c, 9, 42, 95
2, 226320, Note_off_c, 9, 35, 95
2, 226320, Note_off_c, 9, 42, 95
2, 226320, Note_on_c, 9, 46, 95
2, 226560, Note_off_c, 9, 46, 95
2, 226560, Note_on_c, 9, 35, 95
2, 226560, Note_on_c, 9, 42, 95
2, 226800, Note_off_c, 9, 35, 95
2, 226800, Note_off_c, 9, 42, 95
2, 226800, Note_on_c, 9, 42, 63
2, 226920, Note_off_c, 9, 42, 63
2, 227040, Note_on_c, 9, 42, 95
2, 227160, Note_off_c, 9, 42, 95
2, 227280, Note_on_c, 9, 42, 95
2, 227400, Note_off_c, 9, 42, 95
2, 227520, Note_on_c, 9, 40, 127
2, 227520, Note_on_c, 9, 42, 95
2, 227760, Note_off_c, 9, 40, 127
2, 227760, Note_off_c, 9, 42, 95
2, 227760, Note_on_c, 9, 42, 63
2, 227880, Note_off_c, 9, 42, 63
2, 228000, Note_on_c, 9, 42, 95
2, 228120, Note_off_c, 9, 42, 95
2, 228240, Note_on_c, 9, 35, 79
2, 228240, Note_on_c, 9, 42, 95
2, 228480, Note_off_c, 9, 35, 79
2, 228480, Note_off_c, 9, 42, 95
2, 228480, Note_on_c, 9, 35, 95
2, 228480, Note_on_c, 9, 42, 95
2, 228600, Note_off_c, 9, 35, 95
2, 228600, Note_off_c, 9, 42, 95
2, 228720, Note_on_c, 9, 42, 63
2, 228840, Note_off_c, 9, 42, 63
2, 228960, Note_on_c, 9, 35, 95
2, 228960, Note_on_c, 9, 42, 95
2, 229200, Note_off_c, 9, 35, 95
2, 229200, Note_off_c, 9, 42, 95
2, 229200, Note_on_c, 9, 42, 95
2, 229320, Note_off_c, 9, 42, 95
2, 229440, Note_on_c, 9, 40, 127
2, 229440, Note_on_c, 9, 42, 95
2, 229440, Note_on_c, 9, 43, 79
2, 229680, Note_off_c, 9, 40, 127
2, 229680, Note_off_c, 9, 42, 95
2, 229680, Note_off_c, 9, 43, 79
2, 229680, Note_on_c, 9, 42, 63
2, 229800, Note_off_c, 9, 42, 63
2, 229920, Note_on_c, 9, 35, 95
2, 229920, Note_on_c, 9, 42, 95
2, 230160, Note_off_c, 9, 35, 95
2, 230160, Note_off_c, 9, 42, 95
2, 230160, Note_on_c, 9, 46, 95
2, 230400, Note_off_c, 9, 46, 95
2, 230400, Note_on_c, 9, 35, 95
2, 230400, Note_on_c, 9, 42, 95
2, 230640, Note_off_c, 9, 35, 95
2, 230640, Note_off_c, 9, 42, 95
2, 230640, Note_on_c, 9, 42, 63
2, 230760, Note_off_c, 9, 42, 63
2, 230880, Note_on_c, 9, 42, 95
2, 231000, Note_off_c, 9, 42, 95
2, 231120, Note_on_c, 9, 42, 95
2, 231240, Note_off_c, 9, 42, 95
2, 231360, Note_on_c, 9, 40, 127
2, 231360, Note_on_c, 9, 42, 95
2, 231600, Note_off_c, 9, 40, 127
2, 231600, Note_off_c, 9, 42, 95
2, 231600, Note_on_c, 9, 42, 63
2, 231720, Note_off_c, 9, 42, 63
2, 231840, Note_on_c, 9, 42, 95
2, 231960, Note_off_c, 9, 42, 95
2, 232080, Note_on_c, 9, 35, 79
2, 232080, Note_on_c, 9, 42, 95
2, 232320, Note_off_c, 9, 35, 79
2, 232320, Note_off_c, 9, 42, 95
2, 232320, Note_on_c, 9, 35, 95
2, 232320, Note_on_c, 9, 42, 95
2, 232440, Note_off_c, 9, 35, 95
2, 232440, Note_off_c, 9, 42, 95
2, 232560, Note_on_c, 9, 42, 63
2, 232680, Note_off_c, 9, 42, 63
2, 232800, Note_on_c, 9, 35, 95
2, 232800, Note_on_c, 9, 42, 95
2, 233040, Note_off_c, 9, 35, 95
2, 233040, Note_off_c, 9, 42, 95
2, 233040, Note_on_c, 9, 42, 95
2, 233160, Note_off_c, 9, 42, 95
2, 233280, Note_on_c, 9, 40, 127
2, 233280, Note_on_c, 9, 42, 95
2, 233520, Note_off_c, 9, 40, 127
2, 233520, Note_off_c, 9, 42, 95
2, 233520, Note_on_c, 9, 42, 63
2, 233640, Note_off_c, 9, 42, 63
2, 233760, Note_on_c, 9, 35, 95
2, 233760, Note_on_c, 9, 42, 95
2, 234000, Note_off_c, 9, 35, 95
2, 234000, Note_off_c, 9, 42, 95
2, 234000, Note_on_c, 9, 46, 95
2, 234240, Note_off_c, 9, 46, 95
2, 234240, Note_on_c, 9, 35, 95
2, 234240, Note_on_c, 9, 42, 95
2, 234480, Note_off_c, 9, 35, 95
2, 234480, Note_off_c, 9, 42, 95
2, 234480, Note_on_c, 9, 42, 63
2, 234600, Note_off_c, 9, 42, 63
2, 234720, Note_on_c, 9, 42, 95
2, 234840, Note_off_c, 9, 42, 95
2, 234960, Note_on_c, 9, 42, 95
2, 235080, Note_off_c, 9, 42, 95
2, 235200, Note_on_c, 9, 40, 127
2, 235200, Note_on_c, 9, 42, 95
2, 235440, Note_off_c, 9, 40, 127
2, 235440, Note_off_c, 9, 42, 95
2, 235440, Note_on_c, 9, 42, 63
2, 235560, Note_off_c, 9, 42, 63
2, 235680, Note_on_c, 9, 42, 95
2, 235800, Note_off_c, 9, 42, 95
2, 235920, Note_on_c, 9, 35, 79
2, 235920, Note_on_c, 9, 42, 95
2, 236160, Note_off_c, 9, 35, 79
2, 236160, Note_off_c, 9, 42, 95
2, 236160, Note_on_c, 9, 35, 95
2, 236280, Note_off_c, 9, 35, 95
2, 236400, Note_on_c, 9, 42, 63
2, 236640, Note_off_c, 9, 42, 63
2, 236640, Note_on_c, 9, 35, 95
2, 236640, Note_on_c, 9, 40, 95
2, 236640, Note_on_c, 9, 42, 95
2, 236880, Note_off_c, 9, 35, 95
2, 236880, Note_off_c, 9, 40, 95
2, 236880, Note_off_c, 9, 42, 95
2, 236880, Note_on_c, 9, 40, 95
2, 236880, Note_on_c, 9, 42, 95
2, 237000, Note_off_c, 9, 40, 95
2, 237000, Note_off_c, 9, 42, 95
2, 237120, Note_on_c, 9, 40, 127
2, 237120, Note_on_c, 9, 42, 95
2, 237240, Note_off_c, 9, 40, 127
2, 237240, Note_off_c, 9, 42, 95
2, 237360, Note_on_c, 9, 42, 63
2, 237480, Note_off_c, 9, 42, 63
2, 237600, Note_on_c, 9, 35, 95
2, 237600, Note_on_c, 9, 40, 111
2, 237600, Note_on_c, 9, 42, 95
2, 237840, Note_off_c, 9, 35, 95
2, 237840, Note_off_c, 9, 40, 111
2, 237840, Note_off_c, 9, 42, 95
2, 237840, Note_on_c, 9, 40, 111
2, 237840, Note_on_c, 9, 46, 95
2, 238080, Note_off_c, 9, 40, 111
2, 238080, Note_off_c, 9, 46, 95
2, 238080, Note_on_c, 9, 35, 95
2, 238080, Note_on_c, 9, 42, 95
2, 238320, Note_off_c, 9, 35, 95
2, 238320, Note_off_c, 9, 42, 95
2, 238320, Note_on_c, 9, 42, 63
2, 238440, Note_off_c, 9, 42, 63
2, 238560, Note_on_c, 9, 42, 95
2, 238680, Note_off_c, 9, 42, 95
2, 238800, Note_on_c, 9, 42, 95
2, 238920, Note_off_c, 9, 42, 95
2, 239040, Note_on_c, 9, 40, 127
2, 239040, Note_on_c, 9, 42, 95
2, 239280, Note_off_c, 9, 40, 127
2, 239280, Note_off_c, 9, 42, 95
2, 239280, Note_on_c, 9, 42, 63
2, 239400, Note_off_c, 9, 42, 63
2, 239520, Note_on_c, 9, 42, 95
2, 239640, Note_off_c, 9, 42, 95
2, 239760, Note_on_c, 9, 35, 79
2, 239760, Note_on_c, 9, 46, 95
2, 240000, Note_off_c, 9, 35, 79
2, 240000, Note_off_c, 9, 46, 95
2, 240000, Note_on_c, 9, 35, 95
2, 240000, Note_on_c, 9, 42, 95
2, 240240, Note_off_c, 9, 35, 95
2, 240240, Note_off_c, 9, 42, 95
2, 240240, Note_on_c, 9, 42, 63
2, 240360, Note_off_c, 9, 42, 63
2, 240480, Note_on_c, 9, 35, 95
2, 240480, Note_on_c, 9, 42, 95
2, 240720, Note_off_c, 9, 35, 95
2, 240720, Note_off_c, 9, 42, 95
2, 240720, Note_on_c, 9, 42, 95
2, 240720, Note_on_c, 9, 50, 95
2, 240960, Note_off_c, 9, 42, 95
2, 240960, Note_off_c, 9, 50, 95
2, 240960, Note_on_c, 9, 40, 127
2, 240960, Note_on_c, 9, 42, 95
2, 240960, Note_on_c, 9, 43, 111
2, 241200, Note_off_c, 9, 40, 127
2, 241200, Note_off_c, 9, 42, 95
2, 241200, Note_off_c, 9, 43, 111
2, 241200, Note_on_c, 9, 42, 63
2, 241320, Note_off_c, 9, 42, 63
2, 241440, Note_on_c, 9, 35, 95
2, 241440, Note_on_c, 9, 42, 95
2, 241680, Note_off_c, 9, 35, 95
2, 241680, Note_off_c, 9, 42, 95
2, 241680, Note_on_c, 9, 46, 95
2, 241920, Note_off_c, 9, 46, 95
2, 241920, Note_on_c, 9, 35, 95
2, 241920, Note_on_c, 9, 42, 95
2, 242160, Note_off_c, 9, 35, 95
2, 242160, Note_off_c, 9, 42, 95
2, 242160, Note_on_c, 9, 42, 63
2, 242280, Note_off_c, 9, 42, 63
2, 242400, Note_on_c, 9, 42, 95
2, 242520, Note_off_c, 9, 42, 95
2, 242640, Note_on_c, 9, 42, 95
2, 242760, Note_off_c, 9, 42, 95
2, 242880, Note_on_c, 9, 40, 127
2, 242880, Note_on_c, 9, 42, 95
2, 243120, Note_off_c, 9, 40, 127
2, 243120, Note_off_c, 9, 42, 95
2, 243120, Note_on_c, 9, 42, 63
2, 243240, Note_off_c, 9, 42, 63
2, 243360, Note_on_c, 9, 42, 95
2, 243480, Note_off_c, 9, 42, 95
2, 243600, Note_on_c, 9, 35, 79
2, 243600, Note_on_c, 9, 42, 95
2, 243840, Note_off_c, 9, 35, 79
2, 243840, Note_off_c, 9, 42, 95
2, 243840, Note_on_c, 9, 35, 95
2, 243840, Note_on_c, 9, 42, 95
2, 243960, Note_off_c, 9, 35, 95
2, 243960, Note_off_c, 9, 42, 95
2, 244080, Note_on_c, 9, 42, 63
2, 244200, Note_off_c, 9, 42, 63
2, 244320, Note_on_c, 9, 35, 95
2, 244320, Note_on_c, 9, 42, 95
2, 244560, Note_off_c, 9, 35, 95
2, 244560, Note_off_c, 9, 42, 95
2, 244560, Note_on_c, 9, 42, 95
2, 244560, Note_on_c, 9, 50, 95
2, 244800, Note_off_c, 9, 42, 95
2, 244800, Note_off_c, 9, 50, 95
2, 244800, Note_on_c, 9, 40, 127
2, 244800, Note_on_c, 9, 42, 95
2, 244800, Note_on_c, 9, 43, 111
2, 245040, Note_off_c, 9, 40, 127
2, 245040, Note_off_c, 9, 42, 95
2, 245040, Note_off_c, 9, 43, 111
2, 245040, Note_on_c, 9, 42, 63
2, 245160, Note_off_c, 9, 42, 63
2, 245280, Note_on_c, 9, 35, 95
2, 245280, Note_on_c, 9, 42, 95
2, 245520, Note_off_c, 9, 35, 95
2, 245520, Note_off_c, 9, 42, 95
2, 245520, Note_on_c, 9, 46, 95
2, 245760, Note_off_c, 9, 46, 95
2, 245760, Note_on_c, 9, 35, 95
2, 245760, Note_on_c, 9, 42, 95
2, 246000, Note_off_c, 9, 35, 95
2, 246000, Note_off_c, 9, 42, 95
2, 246000, Note_on_c, 9, 42, 63
2, 246120, Note_off_c, 9, 42, 63
2, 246240, Note_on_c, 9, 42, 95
2, 246360, Note_off_c, 9, 42, 95
2, 246480, Note_on_c, 9, 42, 95
2, 246600, Note_off_c, 9, 42, 95
2, 246720, Note_on_c, 9, 40, 127
2, 246720, Note_on_c, 9, 42, 95
2, 246960, Note_off_c, 9, 40, 127
2, 246960, Note_off_c, 9, 42, 95
2, 246960, Note_on_c, 9, 42, 63
2, 247080, Note_off_c, 9, 42, 63
2, 247200, Note_on_c, 9, 42, 95
2, 247320, Note_off_c, 9, 42, 95
2, 247440, Note_on_c, 9, 35, 79
2, 247440, Note_on_c, 9, 42, 95
2, 247680, Note_off_c, 9, 35, 79
2, 247680, Note_off_c, 9, 42, 95
2, 247680, Note_on_c, 9, 35, 95
2, 247680, Note_on_c, 9, 42, 95
2, 247800, Note_off_c, 9, 35, 95
2, 247800, Note_off_c, 9, 42, 95
2, 247920, Note_on_c, 9, 42, 63
2, 248040, Note_off_c, 9, 42, 63
2, 248160, Note_on_c, 9, 35, 95
2, 248160, Note_on_c, 9, 42, 95
2, 248400, Note_off_c, 9, 35, 95
2, 248400, Note_off_c, 9, 42, 95
2, 248400, Note_on_c, 9, 42, 95
2, 248520, Note_off_c, 9, 42, 95
2, 248640, Note_on_c, 9, 40, 127
2, 248640, Note_on_c, 9, 42, 95
2, 248640, Note_on_c, 9, 43, 79
2, 248880, Note_off_c, 9, 40, 127
2, 248880, Note_off_c, 9, 42, 95
2, 248880, Note_off_c, 9, 43, 79
2, 248880, Note_on_c, 9, 42, 63
2, 249000, Note_off_c, 9, 42, 63
2, 249120, Note_on_c, 9, 35, 95
2, 249120, Note_on_c, 9, 42, 95
2, 249360, Note_off_c, 9, 35, 95
2, 249360, Note_off_c, 9, 42, 95
2, 249360, Note_on_c, 9, 42, 95
2, 249480, Note_off_c, 9, 42, 95
2, 249600, Note_on_c, 9, 35, 95
2, 249600, Note_on_c, 9, 42, 95
2, 249840, Note_off_c, 9, 35, 95
2, 249840, Note_off_c, 9, 42, 95
2, 249840, Note_on_c, 9, 42, 63
2, 249960, Note_off_c, 9, 42, 63
2, 250080, Note_on_c, 9, 42, 95
2, 250200, Note_off_c, 9, 42, 95
2, 250320, Note_on_c, 9, 42, 95
2, 250440, Note_off_c, 9, 42, 95
2, 250560, Note_on_c, 9, 40, 127
2, 250560, Note_on_c, 9, 42, 95
2, 250800, Note_off_c, 9, 40, 127
2, 250800, Note_off_c, 9, 42, 95
2, 250800, Note_on_c, 9, 42, 63
2, 250920, Note_off_c, 9, 42, 63
2, 251040, Note_on_c, 9, 42, 95
2, 251160, Note_off_c, 9, 42, 95
2, 251280, Note_on_c, 9, 35, 79
2, 251280, Note_on_c, 9, 42, 95
2, 251520, Note_off_c, 9, 35, 79
2, 251520, Note_off_c, 9, 42, 95
2, 251520, Note_on_c, 9, 35, 95
2, 251520, Note_on_c, 9, 42, 95
2, 251520, Note_on_c, 9, 50, 111
2, 251760, Note_off_c, 9, 35, 95
2, 251760, Note_off_c, 9, 42, 95
2, 251760, Note_off_c, 9, 50, 111
2, 251760, Note_on_c, 9, 42, 63
2, 251760, Note_on_c, 9, 50, 95
2, 251880, Note_off_c, 9, 42, 63
2, 251880, Note_off_c, 9, 50, 95
2, 252000, Note_on_c, 9, 35, 95
2, 252000, Note_on_c, 9, 42, 95
2, 252000, Note_on_c, 9, 50, 95
2, 252240, Note_off_c, 9, 35, 95
2, 252240, Note_off_c, 9, 42, 95
2, 252240, Note_off_c, 9, 50, 95
2, 252240, Note_on_c, 9, 42, 95
2, 252240, Note_on_c, 9, 47, 95
2, 252480, Note_off_c, 9, 42, 95
2, 252480, Note_off_c, 9, 47, 95
2, 252480, Note_on_c, 9, 40, 127
2, 252480, Note_on_c, 9, 42, 95
2, 252480, Note_on_c, 9, 47, 111
2, 252720, Note_off_c, 9, 40, 127
2, 252720, Note_off_c, 9, 42, 95
2, 252720, Note_off_c, 9, 47, 111
2, 252720, Note_on_c, 9, 42, 63
2, 252720, Note_on_c, 9, 47, 95
2, 252840, Note_off_c, 9, 42, 63
2, 252840, Note_off_c, 9, 47, 95
2, 252960, Note_on_c, 9, 35, 95
2, 252960, Note_on_c, 9, 42, 95
2, 252960, Note_on_c, 9, 43, 95
2, 253200, Note_off_c, 9, 35, 95
2, 253200, Note_off_c, 9, 42, 95
2, 253200, Note_off_c, 9, 43, 95
2, 253200, Note_on_c, 9, 43, 95
2, 253200, Note_on_c, 9, 46, 95
2, 253440, Note_off_c, 9, 43, 95
2, 253440, Note_off_c, 9, 46, 95
2, 253440, Note_on_c, 9, 35, 95
2, 253440, Note_on_c, 9, 42, 95
2, 253680, Note_off_c, 9, 35, 95
2, 253680, Note_off_c, 9, 42, 95
2, 253680, Note_on_c, 9, 42, 63
2, 253800, Note_off_c, 9, 42, 63
2, 253920, Note_on_c, 9, 42, 95
2, 254040, Note_off_c, 9, 42, 95
2, 254160, Note_on_c, 9, 42, 95
2, 254280, Note_off_c, 9, 42, 95
2, 254400, Note_on_c, 9, 40, 127
2, 254400, Note_on_c, 9, 42, 95
2, 254640, Note_off_c, 9, 40, 127
2, 254640, Note_off_c, 9, 42, 95
2, 254640, Note_on_c, 9, 42, 63
2, 254760, Note_off_c, 9, 42, 63
2, 254880, Note_on_c, 9, 42, 95
2, 255000, Note_off_c, 9, 42, 95
2, 255120, Note_on_c, 9, 35, 79
2, 255120, Note_on_c, 9, 42, 95
2, 255360, Note_off_c, 9, 35, 79
2, 255360, Note_off_c, 9, 42, 95
2, 255360, Note_on_c, 9, 35, 95
2, 255360, Note_on_c, 9, 42, 95
2, 255480, Note_off_c, 9, 35, 95
2, 255480, Note_off_c, 9, 42, 95
2, 255600, Note_on_c, 9, 42, 63
2, 255720, Note_off_c, 9, 42, 63
2, 255840, Note_on_c, 9, 35, 95
2, 255840, Note_on_c, 9, 42, 95
2, 256080, Note_off_c, 9, 35, 95
2, 256080, Note_off_c, 9, 42, 95
2, 256080, Note_on_c, 9, 46, 95
2, 256320, Note_off_c, 9, 46, 95
2, 256320, Note_on_c, 9, 40, 127
2, 256320, Note_on_c, 9, 42, 95
2, 256560, Note_off_c, 9, 40, 127
2, 256560, Note_off_c, 9, 42, 95
2, 256560, Note_on_c, 9, 46, 63
2, 256800, Note_off_c, 9, 46, 63
2, 256800, Note_on_c, 9, 35, 95
2, 256800, Note_on_c, 9, 42, 95
2, 257040, Note_off_c, 9, 35, 95
2, 257040, Note_off_c, 9, 42, 95
2, 257040, Note_on_c, 9, 46, 95
2, 257280, Note_off_c, 9, 46, 95
2, 257280, Note_on_c, 9, 35, 95
2, 257280, Note_on_c, 9, 42, 95
2, 257520, Note_off_c, 9, 35, 95
2, 257520, Note_off_c, 9, 42, 95
2, 257520, Note_on_c, 9, 42, 63
2, 257640, Note_off_c, 9, 42, 63
2, 257760, Note_on_c, 9, 42, 95
2, 257880, Note_off_c, 9, 42, 95
2, 258000, Note_on_c, 9, 42, 95
2, 258120, Note_off_c, 9, 42, 95
2, 258240, Note_on_c, 9, 40, 127
2, 258240, Note_on_c, 9, 42, 95
2, 258480, Note_off_c, 9, 40, 127
2, 258480, Note_off_c, 9, 42, 95
2, 258480, Note_on_c, 9, 42, 63
2, 258600, Note_off_c, 9, 42, 63
2, 258720, Note_on_c, 9, 42, 95
2, 258840, Note_off_c, 9, 42, 95
2, 258960, Note_on_c, 9, 35, 79
2, 258960, Note_on_c, 9, 42, 95
2, 259200, Note_off_c, 9, 35, 79
2, 259200, Note_off_c, 9, 42, 95
2, 259200, Note_on_c, 9, 35, 95
2, 259200, Note_on_c, 9, 42, 95
2, 259320, Note_off_c, 9, 35, 95
2, 259320, Note_off_c, 9, 42, 95
2, 259440, Note_on_c, 9, 42, 63
2, 259560, Note_off_c, 9, 42, 63
2, 259680, Note_on_c, 9, 35, 95
2, 259680, Note_on_c, 9, 42, 95
2, 259920, Note_off_c, 9, 35, 95
2, 259920, Note_off_c, 9, 42, 95
2, 259920, Note_on_c, 9, 42, 95
2, 259920, Note_on_c, 9, 50, 95
2, 260160, Note_off_c, 9, 42, 95
2, 260160, Note_off_c, 9, 50, 95
2, 260160, Note_on_c, 9, 40, 127
2, 260160, Note_on_c, 9, 42, 95
2, 260160, Note_on_c, 9, 43, 111
2, 260400, Note_off_c, 9, 40, 127
2, 260400, Note_off_c, 9, 42, 95
2, 260400, Note_off_c, 9, 43, 111
2, 260400, Note_on_c, 9, 42, 63
2, 260520, Note_off_c, 9, 42, 63
2, 260640, Note_on_c, 9, 35, 95
2, 260640, Note_on_c, 9, 42, 95
2, 260880, Note_off_c, 9, 35, 95
2, 260880, Note_off_c, 9, 42, 95
2, 260880, Note_on_c, 9, 46, 95
2, 261120, Note_off_c, 9, 46, 95
2, 261120, Note_on_c, 9, 35, 95
2, 261120, Note_on_c, 9, 42, 95
2, 261360, Note_off_c, 9, 35, 95
2, 261360, Note_off_c, 9, 42, 95
2, 261360, Note_on_c, 9, 42, 63
2, 261480, Note_off_c, 9, 42, 63
2, 261600, Note_on_c, 9, 42, 95
2, 261720, Note_off_c, 9, 42, 95
2, 261840, Note_on_c, 9, 42, 95
2, 261960, Note_off_c, 9, 42, 95
2, 262080, Note_on_c, 9, 40, 127
2, 262080, Note_on_c, 9, 42, 95
2, 262320, Note_off_c, 9, 40, 127
2, 262320, Note_off_c, 9, 42, 95
2, 262320, Note_on_c, 9, 42, 63
2, 262440, Note_off_c, 9, 42, 63
2, 262560, Note_on_c, 9, 42, 95
2, 262680, Note_off_c, 9, 42, 95
2, 262800, Note_on_c, 9, 35, 79
2, 262800, Note_on_c, 9, 42, 95
2, 263040, Note_off_c, 9, 35, 79
2, 263040, Note_off_c, 9, 42, 95
2, 263040, Note_on_c, 9, 35, 95
2, 263040, Note_on_c, 9, 42, 95
2, 263160, Note_off_c, 9, 35, 95
2, 263160, Note_off_c, 9, 42, 95
2, 263280, Note_on_c, 9, 42, 63
2, 263400, Note_off_c, 9, 42, 63
2, 263520, Note_on_c, 9, 35, 95
2, 263520, Note_on_c, 9, 42, 95
2, 263760, Note_off_c, 9, 35, 95
2, 263760, Note_off_c, 9, 42, 95
2, 263760, Note_on_c, 9, 42, 95
2, 263880, Note_off_c, 9, 42, 95
2, 264000, Note_on_c, 9, 40, 127
2, 264000, Note_on_c, 9, 42, 95
2, 264240, Note_off_c, 9, 40, 127
2, 264240, Note_off_c, 9, 42, 95
2, 264240, Note_on_c, 9, 42, 63
2, 264360, Note_off_c, 9, 42, 63
2, 264480, Note_on_c, 9, 35, 95
2, 264480, Note_on_c, 9, 42, 95
2, 264720, Note_off_c, 9, 35, 95
2, 264720, Note_off_c, 9, 42, 95
2, 264720, Note_on_c, 9, 42, 95
2, 264840, Note_off_c, 9, 42, 95
2, 264960, Note_on_c, 9, 35, 95
2, 264960, Note_on_c, 9, 42, 95
2, 265200, Note_off_c, 9, 35, 95
2, 265200, Note_off_c, 9, 42, 95
2, 265200, Note_on_c, 9, 42, 63
2, 265320, Note_off_c, 9, 42, 63
2, 265440, Note_on_c, 9, 42, 95
2, 265560, Note_off_c, 9, 42, 95
2, 265680, Note_on_c, 9, 42, 95
2, 265800, Note_off_c, 9, 42, 95
2, 265920, Note_on_c, 9, 40, 127
2, 265920, Note_on_c, 9, 42, 95
2, 266160, Note_off_c, 9, 40, 127
2, 266160, Note_off_c, 9, 42, 95
2, 266160, Note_on_c, 9, 42, 63
2, 266280, Note_off_c, 9, 42, 63
2, 266400, Note_on_c, 9, 42, 95
2, 266520, Note_off_c, 9, 42, 95
2, 266640, Note_on_c, 9, 35, 79
2, 266640, Note_on_c, 9, 42, 95
2, 266880, Note_off_c, 9, 35, 79
2, 266880, Note_off_c, 9, 42, 95
2, 266880, Note_on_c, 9, 35, 95
2, 266880, Note_on_c, 9, 42, 95
2, 267000, Note_off_c, 9, 35, 95
2, 267000, Note_off_c, 9, 42, 95
2, 267120, Note_on_c, 9, 42, 63
2, 267240, Note_off_c, 9, 42, 63
2, 267360, Note_on_c, 9, 35, 95
2, 267360, Note_on_c, 9, 42, 95
2, 267600, Note_off_c, 9, 35, 95
2, 267600, Note_off_c, 9, 42, 95
2, 267600, Note_on_c, 9, 46, 95
2, 267840, Note_off_c, 9, 46, 95
2, 267840, Note_on_c, 9, 40, 127
2, 267840, Note_on_c, 9, 42, 95
2, 267840, Note_on_c, 9, 43, 111
2, 268080, Note_off_c, 9, 40, 127
2, 268080, Note_off_c, 9, 42, 95
2, 268080, Note_off_c, 9, 43, 111
2, 268080, Note_on_c, 9, 42, 63
2, 268200, Note_off_c, 9, 42, 63
2, 268320, Note_on_c, 9, 35, 95
2, 268320, Note_on_c, 9, 42, 95
2, 268560, Note_off_c, 9, 35, 95
2, 268560, Note_off_c, 9, 42, 95
2, 268560, Note_on_c, 9, 42, 95
2, 268680, Note_off_c, 9, 42, 95
2, 268800, Note_on_c, 9, 35, 95
2, 268800, Note_on_c, 9, 42, 95
2, 269040, Note_off_c, 9, 35, 95
2, 269040, Note_off_c, 9, 42, 95
2, 269040, Note_on_c, 9, 42, 63
2, 269160, Note_off_c, 9, 42, 63
2, 269280, Note_on_c, 9, 42, 95
2, 269400, Note_off_c, 9, 42, 95
2, 269520, Note_on_c, 9, 46, 95
2, 269760, Note_off_c, 9, 46, 95
2, 269760, Note_on_c, 9, 40, 127
2, 269760, Note_on_c, 9, 42, 95
2, 270000, Note_off_c, 9, 40, 127
2, 270000, Note_off_c, 9, 42, 95
2, 270000, Note_on_c, 9, 42, 63
2, 270120, Note_off_c, 9, 42, 63
2, 270240, Note_on_c, 9, 42, 95
2, 270360, Note_off_c, 9, 42, 95
2, 270480, Note_on_c, 9, 35, 79
2, 270480, Note_on_c, 9, 42, 95
2, 270720, Note_off_c, 9, 35, 79
2, 270720, Note_off_c, 9, 42, 95
2, 270720, Note_on_c, 9, 35, 95
2, 270720, Note_on_c, 9, 42, 95
2, 270840, Note_off_c, 9, 35, 95
2, 270840, Note_off_c, 9, 42, 95
2, 270960, Note_on_c, 9, 42, 63
2, 271080, Note_off_c, 9, 42, 63
2, 271200, Note_on_c, 9, 35, 95
2, 271200, Note_on_c, 9, 42, 95
2, 271440, Note_off_c, 9, 35, 95
2, 271440, Note_off_c, 9, 42, 95
2, 271440, Note_on_c, 9, 42, 95
2, 271560, Note_off_c, 9, 42, 95
2, 271680, Note_on_c, 9, 40, 127
2, 271680, Note_on_c, 9, 42, 95
2, 271680, Note_on_c, 9, 43, 79
2, 271920, Note_off_c, 9, 40, 127
2, 271920, Note_off_c, 9, 42, 95
2, 271920, Note_off_c, 9, 43, 79
2, 271920, Note_on_c, 9, 46, 63
2, 272160, Note_off_c, 9, 46, 63
2, 272160, Note_on_c, 9, 35, 95
2, 272160, Note_on_c, 9, 42, 95
2, 272400, Note_off_c, 9, 35, 95
2, 272400, Note_off_c, 9, 42, 95
2, 272400, Note_on_c, 9, 46, 95
2, 272640, Note_off_c, 9, 46, 95
2, 272640, Note_on_c, 9, 35, 95
2, 272640, Note_on_c, 9, 42, 95
2, 272880, Note_off_c, 9, 35, 95
2, 272880, Note_off_c, 9, 42, 95
2, 272880, Note_on_c, 9, 42, 63
2, 273000, Note_off_c, 9, 42, 63
2, 273120, Note_on_c, 9, 42, 95
2, 273240, Note_off_c, 9, 42, 95
2, 273360, Note_on_c, 9, 42, 95
2, 273480, Note_off_c, 9, 42, 95
2, 273600, Note_on_c, 9, 40, 127
2, 273600, Note_on_c, 9, 42, 95
2, 273840, Note_off_c, 9, 40, 127
2, 273840, Note_off_c, 9, 42, 95
2, 273840, Note_on_c, 9, 42, 63
2, 273960, Note_off_c, 9, 42, 63
2, 274080, Note_on_c, 9, 42, 95
2, 274200, Note_off_c, 9, 42, 95
2, 274320, Note_on_c, 9, 35, 79
2, 274320, Note_on_c, 9, 42, 95
2, 274560, Note_off_c, 9, 35, 79
2, 274560, Note_off_c, 9, 42, 95
2, 274560, Note_on_c, 9, 35, 95
2, 274560, Note_on_c, 9, 42, 95
2, 274680, Note_off_c, 9, 35, 95
2, 274680, Note_off_c, 9, 42, 95
2, 274800, Note_on_c, 9, 42, 63
2, 274920, Note_off_c, 9, 42, 63
2, 275040, Note_on_c, 9, 35, 95
2, 275040, Note_on_c, 9, 42, 95
2, 275280, Note_off_c, 9, 35, 95
2, 275280, Note_off_c, 9, 42, 95
2, 275280, Note_on_c, 9, 42, 95
2, 275280, Note_on_c, 9, 50, 95
2, 275520, Note_off_c, 9, 42, 95
2, 275520, Note_off_c, 9, 50, 95
2, 275520, Note_on_c, 9, 40, 127
2, 275520, Note_on_c, 9, 42, 95
2, 275520, Note_on_c, 9, 43, 111
2, 275760, Note_off_c, 9, 40, 127
2, 275760, Note_off_c, 9, 42, 95
2, 275760, Note_off_c, 9, 43, 111
2, 275760, Note_on_c, 9, 42, 63
2, 275880, Note_off_c, 9, 42, 63
2, 276000, Note_on_c, 9, 35, 95
2, 276000, Note_on_c, 9, 40, 95
2, 276000, Note_on_c, 9, 42, 95
2, 276240, Note_off_c, 9, 35, 95
2, 276240, Note_off_c, 9, 40, 95
2, 276240, Note_off_c, 9, 42, 95
2, 276240, Note_on_c, 9, 40, 95
2, 276240, Note_on_c, 9, 46, 95
2, 276480, Note_off_c, 9, 40, 95
2, 276480, Note_off_c, 9, 46, 95
2, 276480, Note_on_c, 9, 35, 95
2, 276480, Note_on_c, 9, 42, 95
2, 276720, Note_off_c, 9, 35, 95
2, 276720, Note_off_c, 9, 42, 95
2, 276720, Note_on_c, 9, 42, 63
2, 276840, Note_off_c, 9, 42, 63
2, 276960, Note_on_c, 9, 42, 95
2, 277080, Note_off_c, 9, 42, 95
2, 277200, Note_on_c, 9, 42, 95
2, 277320, Note_off_c, 9, 42, 95
2, 277440, Note_on_c, 9, 40, 127
2, 277440, Note_on_c, 9, 42, 95
2, 277680, Note_off_c, 9, 40, 127
2, 277680, Note_off_c, 9, 42, 95
2, 277680, Note_on_c, 9, 42, 63
2, 277800, Note_off_c, 9, 42, 63
2, 277920, Note_on_c, 9, 42, 95
2, 278040, Note_off_c, 9, 42, 95
2, 278160, Note_on_c, 9, 35, 79
2, 278160, Note_on_c, 9, 42, 95
2, 278400, Note_off_c, 9, 35, 79
2, 278400, Note_off_c, 9, 42, 95
2, 278400, Note_on_c, 9, 35, 95
2, 278400, Note_on_c, 9, 42, 95
2, 278520, Note_off_c, 9, 35, 95
2, 278520, Note_off_c, 9, 42, 95
2, 278640, Note_on_c, 9, 42, 63
2, 278760, Note_off_c, 9, 42, 63
2, 278880, Note_on_c, 9, 35, 95
2, 278880, Note_on_c, 9, 42, 95
2, 279120, Note_off_c, 9, 35, 95
2, 279120, Note_off_c, 9, 42, 95
2, 279120, Note_on_c, 9, 42, 95
2, 279240, Note_off_c, 9, 42, 95
2, 279360, Note_on_c, 9, 40, 127
2, 279360, Note_on_c, 9, 42, 95
2, 279360, Note_on_c, 9, 43, 111
2, 279600, Note_off_c, 9, 40, 127
2, 279600, Note_off_c, 9, 42, 95
2, 279600, Note_off_c, 9, 43, 111
2, 279600, Note_on_c, 9, 42, 63
2, 279720, Note_off_c, 9, 42, 63
2, 279840, Note_on_c, 9, 35, 95
2, 279840, Note_on_c, 9, 42, 95
2, 280080, Note_off_c, 9, 35, 95
2, 280080, Note_off_c, 9, 42, 95
2, 280080, Note_on_c, 9, 46, 95
2, 280320, Note_off_c, 9, 46, 95
2, 280320, Note_on_c, 9, 35, 95
2, 280320, Note_on_c, 9, 42, 95
2, 280560, Note_off_c, 9, 35, 95
2, 280560, Note_off_c, 9, 42, 95
2, 280560, Note_on_c, 9, 42, 63
2, 280680, Note_off_c, 9, 42, 63
2, 280800, Note_on_c, 9, 42, 95
2, 280920, Note_off_c, 9, 42, 95
2, 281040, Note_on_c, 9, 42, 95
2, 281160, Note_off_c, 9, 42, 95
2, 281280, Note_on_c, 9, 40, 127
2, 281280, Note_on_c, 9, 42, 95
2, 281520, Note_off_c, 9, 40, 127
2, 281520, Note_off_c, 9, 42, 95
2, 281520, Note_on_c, 9, 42, 63
2, 281640, Note_off_c, 9, 42, 63
2, 281760, Note_on_c, 9, 42, 95
2, 281880, Note_off_c, 9, 42, 95
2, 282000, Note_on_c, 9, 35, 79
2, 282000, Note_on_c, 9, 42, 95
2, 282240, Note_off_c, 9, 35, 79
2, 282240, Note_off_c, 9, 42, 95
2, 282240, Note_on_c, 9, 35, 95
2, 282240, Note_on_c, 9, 40, 95
2, 282240, Note_on_c, 9, 42, 95
2, 282480, Note_off_c, 9, 35, 95
2, 282480, Note_off_c, 9, 40, 95
2, 282480, Note_off_c, 9, 42, 95
2, 282480, Note_on_c, 9, 42, 63
2, 282600, Note_off_c, 9, 42, 63
2, 282720, Note_on_c, 9, 35, 95
2, 282720, Note_on_c, 9, 40, 95
2, 282720, Note_on_c, 9, 42, 95
2, 282960, Note_off_c, 9, 35, 95
2, 282960, Note_off_c, 9, 40, 95
2, 282960, Note_off_c, 9, 42, 95
2, 282960, Note_on_c, 9, 40, 95
2, 282960, Note_on_c, 9, 42, 95
2, 283080, Note_off_c, 9, 40, 95
2, 283080, Note_off_c, 9, 42, 95
2, 283200, Note_on_c, 9, 40, 127
2, 283200, Note_on_c, 9, 42, 95
2, 283320, Note_off_c, 9, 40, 127
2, 283320, Note_off_c, 9, 42, 95
2, 283440, Note_on_c, 9, 42, 63
2, 283560, Note_off_c, 9, 42, 63
2, 283680, Note_on_c, 9, 35, 95
2, 283680, Note_on_c, 9, 40, 111
2, 283680, Note_on_c, 9, 42, 95
2, 283920, Note_off_c, 9, 35, 95
2, 283920, Note_off_c, 9, 40, 111
2, 283920, Note_off_c, 9, 42, 95
2, 283920, Note_on_c, 9, 40, 111
2, 283920, Note_on_c, 9, 42, 95
2, 284040, Note_off_c, 9, 40, 111
2, 284040, Note_off_c, 9, 42, 95
2, 284160, Note_on_c, 9, 35, 95
2, 284160, Note_on_c, 9, 42, 95
2, 284400, Note_off_c, 9, 35, 95
2, 284400, Note_off_c, 9, 42, 95
2, 284400, Note_on_c, 9, 42, 63
2, 284520, Note_off_c, 9, 42, 63
2, 284640, Note_on_c, 9, 42, 95
2, 284760, Note_off_c, 9, 42, 95
2, 284880, Note_on_c, 9, 42, 95
2, 285000, Note_off_c, 9, 42, 95
2, 285120, Note_on_c, 9, 40, 127
2, 285120, Note_on_c, 9, 42, 95
2, 285360, Note_off_c, 9, 40, 127
2, 285360, Note_off_c, 9, 42, 95
2, 285360, Note_on_c, 9, 42, 63
2, 285480, Note_off_c, 9, 42, 63
2, 285600, Note_on_c, 9, 42, 95
2, 285720, Note_off_c, 9, 42, 95
2, 285840, Note_on_c, 9, 35, 79
2, 285840, Note_on_c, 9, 46, 95
2, 286080, Note_off_c, 9, 35, 79
2, 286080, Note_off_c, 9, 46, 95
2, 286080, Note_on_c, 9, 35, 95
2, 286080, Note_on_c, 9, 42, 95
2, 286320, Note_off_c, 9, 35, 95
2, 286320, Note_off_c, 9, 42, 95
2, 286320, Note_on_c, 9, 42, 63
2, 286440, Note_off_c, 9, 42, 63
2, 286560, Note_on_c, 9, 35, 95
2, 286560, Note_on_c, 9, 42, 95
2, 286800, Note_off_c, 9, 35, 95
2, 286800, Note_off_c, 9, 42, 95
2, 286800, Note_on_c, 9, 42, 95
2, 286920, Note_off_c, 9, 42, 95
2, 287040, Note_on_c, 9, 40, 127
2, 287040, Note_on_c, 9, 42, 95
2, 287280, Note_off_c, 9, 40, 127
2, 287280, Note_off_c, 9, 42, 95
2, 287280, Note_on_c, 9, 42, 63
2, 287400, Note_off_c, 9, 42, 63
2, 287520, Note_on_c, 9, 35, 95
2, 287520, Note_on_c, 9, 40, 95
2, 287520, Note_on_c, 9, 42, 95
2, 287760, Note_off_c, 9, 35, 95
2, 287760, Note_off_c, 9, 40, 95
2, 287760, Note_off_c, 9, 42, 95
2, 287760, Note_on_c, 9, 42, 95
2, 287880, Note_off_c, 9, 42, 95
2, 288000, Note_on_c, 9, 35, 95
2, 288000, Note_on_c, 9, 42, 95
2, 288240, Note_off_c, 9, 35, 95
2, 288240, Note_off_c, 9, 42, 95
2, 288240, Note_on_c, 9, 42, 63
2, 288360, Note_off_c, 9, 42, 63
2, 288480, Note_on_c, 9, 42, 95
2, 288600, Note_off_c, 9, 42, 95
2, 288720, Note_on_c, 9, 42, 95
2, 288840, Note_off_c, 9, 42, 95
2, 288960, Note_on_c, 9, 40, 127
2, 288960, Note_on_c, 9, 42, 95
2, 289200, Note_off_c, 9, 40, 127
2, 289200, Note_off_c, 9, 42, 95
2, 289200, Note_on_c, 9, 42, 63
2, 289320, Note_off_c, 9, 42, 63
2, 289440, Note_on_c, 9, 42, 95
2, 289560, Note_off_c, 9, 42, 95
2, 289680, Note_on_c, 9, 35, 79
2, 289680, Note_on_c, 9, 42, 95
2, 289920, Note_off_c, 9, 35, 79
2, 289920, Note_off_c, 9, 42, 95
2, 289920, Note_on_c, 9, 35, 95
2, 289920, Note_on_c, 9, 42, 95
2, 290040, Note_off_c, 9, 35, 95
2, 290040, Note_off_c, 9, 42, 95
2, 290160, Note_on_c, 9, 42, 63
2, 290280, Note_off_c, 9, 42, 63
2, 290400, Note_on_c, 9, 35, 95
2, 290400, Note_on_c, 9, 42, 95
2, 290640, Note_off_c, 9, 35, 95
2, 290640, Note_off_c, 9, 42, 95
2, 290640, Note_on_c, 9, 42, 95
2, 290760, Note_off_c, 9, 42, 95
2, 290880, Note_on_c, 9, 40, 127
2, 290880, Note_on_c, 9, 42, 95
2, 290880, Note_on_c, 9, 43, 79
2, 291120, Note_off_c, 9, 40, 127
2, 291120, Note_off_c, 9, 42, 95
2, 291120, Note_off_c, 9, 43, 79
2, 291120, Note_on_c, 9, 42, 63
2, 291240, Note_off_c, 9, 42, 63
2, 291360, Note_on_c, 9, 35, 95
2, 291360, Note_on_c, 9, 42, 95
2, 291600, Note_off_c, 9, 35, 95
2, 291600, Note_off_c, 9, 42, 95
2, 291600, Note_on_c, 9, 46, 95
2, 291840, Note_off_c, 9, 46, 95
2, 291840, Note_on_c, 9, 35, 95
2, 291840, Note_on_c, 9, 42, 95
2, 292080, Note_off_c, 9, 35, 95
2, 292080, Note_off_c, 9, 42, 95
2, 292080, Note_on_c, 9, 42, 63
2, 292200, Note_off_c, 9, 42, 63
2, 292320, Note_on_c, 9, 42, 95
2, 292440, Note_off_c, 9, 42, 95
2, 292560, Note_on_c, 9, 42, 95
2, 292680, Note_off_c, 9, 42, 95
2, 292800, Note_on_c, 9, 40, 127
2, 292800, Note_on_c, 9, 42, 95
2, 293040, Note_off_c, 9, 40, 127
2, 293040, Note_off_c, 9, 42, 95
2, 293040, Note_on_c, 9, 42, 63
2, 293160, Note_off_c, 9, 42, 63
2, 293280, Note_on_c, 9, 42, 95
2, 293400, Note_off_c, 9, 42, 95
2, 293520, Note_on_c, 9, 35, 79
2, 293520, Note_on_c, 9, 46, 95
2, 293760, Note_off_c, 9, 35, 79
2, 293760, Note_off_c, 9, 46, 95
2, 293760, Note_on_c, 9, 35, 95
2, 293760, Note_on_c, 9, 42, 95
2, 294000, Note_off_c, 9, 35, 95
2, 294000, Note_off_c, 9, 42, 95
2, 294000, Note_on_c, 9, 42, 63
2, 294120, Note_off_c, 9, 42, 63
2, 294240, Note_on_c, 9, 35, 95
2, 294240, Note_on_c, 9, 42, 95
2, 294480, Note_off_c, 9, 35, 95
2, 294480, Note_off_c, 9, 42, 95
2, 294480, Note_on_c, 9, 42, 95
2, 294480, Note_on_c, 9, 50, 95
2, 294720, Note_off_c, 9, 42, 95
2, 294720, Note_off_c, 9, 50, 95
2, 294720, Note_on_c, 9, 40, 127
2, 294720, Note_on_c, 9, 42, 95
2, 294720, Note_on_c, 9, 43, 79
2, 294960, Note_off_c, 9, 40, 127
2, 294960, Note_off_c, 9, 42, 95
2, 294960, Note_off_c, 9, 43, 79
2, 294960, Note_on_c, 9, 42, 63
2, 295080, Note_off_c, 9, 42, 63
2, 295200, Note_on_c, 9, 35, 95
2, 295200, Note_on_c, 9, 42, 95
2, 295440, Note_off_c, 9, 35, 95
2, 295440, Note_off_c, 9, 42, 95
2, 295440, Note_on_c, 9, 46, 95
2, 295680, Note_off_c, 9, 46, 95
2, 295680, Note_on_c, 9, 35, 95
2, 295680, Note_on_c, 9, 42, 95
2, 295920, Note_off_c, 9, 35, 95
2, 295920, Note_off_c, 9, 42, 95
2, 295920, Note_on_c, 9, 42, 63
2, 296040, Note_off_c, 9, 42, 63
2, 296160, Note_on_c, 9, 42, 95
2, 296280, Note_off_c, 9, 42, 95
2, 296400, Note_on_c, 9, 42, 95
2, 296520, Note_off_c, 9, 42, 95
2, 296640, Note_on_c, 9, 40, 127
2, 296640, Note_on_c, 9, 42, 95
2, 296880, Note_off_c, 9, 40, 127
2, 296880, Note_off_c, 9, 42, 95
2, 296880, Note_on_c, 9, 42, 63
2, 297000, Note_off_c, 9, 42, 63
2, 297120, Note_on_c, 9, 42, 95
2, 297240, Note_off_c, 9, 42, 95
2, 297360, Note_on_c, 9, 35, 79
2, 297360, Note_on_c, 9, 42, 95
2, 297600, Note_off_c, 9, 35, 79
2, 297600, Note_off_c, 9, 42, 95
2, 297600, Note_on_c, 9, 35, 95
2, 297600, Note_on_c, 9, 42, 95
2, 297720, Note_off_c, 9, 35, 95
2, 297720, Note_off_c, 9, 42, 95
2, 297840, Note_on_c, 9, 42, 63
2, 297960, Note_off_c, 9, 42, 63
2, 298080, Note_on_c, 9, 35, 95
2, 298080, Note_on_c, 9, 42, 95
2, 298320, Note_off_c, 9, 35, 95
2, 298320, Note_off_c, 9, 42, 95
2, 298320, Note_on_c, 9, 42, 95
2, 298440, Note_off_c, 9, 42, 95
2, 298560, Note_on_c, 9, 40, 127
2, 298560, Note_on_c, 9, 42, 95
2, 298560, Note_on_c, 9, 43, 79
2, 298800, Note_off_c, 9, 40, 127
2, 298800, Note_off_c, 9, 42, 95
2, 298800, Note_off_c, 9, 43, 79
2, 298800, Note_on_c, 9, 42, 63
2, 298920, Note_off_c, 9, 42, 63
2, 299040, Note_on_c, 9, 35, 95
2, 299040, Note_on_c, 9, 42, 95
2, 299280, Note_off_c, 9, 35, 95
2, 299280, Note_off_c, 9, 42, 95
2, 299280, Note_on_c, 9, 42, 95
2, 299400, Note_off_c, 9, 42, 95
2, 299520, Note_on_c, 9, 35, 95
2, 299520, Note_on_c, 9, 42, 95
2, 299760, Note_off_c, 9, 35, 95
2, 299760, Note_off_c, 9, 42, 95
2, 299760, Note_on_c, 9, 42, 63
2, 299880, Note_off_c, 9, 42, 63
2, 300000, Note_on_c, 9, 42, 95
2, 300120, Note_off_c, 9, 42, 95
2, 300240, Note_on_c, 9, 42, 95
2, 300360, Note_off_c, 9, 42, 95
2, 300480, Note_on_c, 9, 40, 127
2, 300480, Note_on_c, 9, 42, 95
2, 300720, Note_off_c, 9, 40, 127
2, 300720, Note_off_c, 9, 42, 95
2, 300720, Note_on_c, 9, 42, 63
2, 300840, Note_off_c, 9, 42, 63
2, 300960, Note_on_c, 9, 42, 95
2, 301080, Note_off_c, 9, 42, 95
2, 301200, Note_on_c, 9, 35, 79
2, 301200, Note_on_c, 9, 42, 95
2, 301440, Note_off_c, 9, 35, 79
2, 301440, Note_off_c, 9, 42, 95
2, 301440, Note_on_c, 9, 35, 95
2, 301440, Note_on_c, 9, 42, 95
2, 301560, Note_off_c, 9, 35, 95
2, 301560, Note_off_c, 9, 42, 95
2, 301680, Note_on_c, 9, 42, 63
2, 301800, Note_off_c, 9, 42, 63
2, 301920, Note_on_c, 9, 35, 95
2, 301920, Note_on_c, 9, 42, 95
2, 302160, Note_off_c, 9, 35, 95
2, 302160, Note_off_c, 9, 42, 95
2, 302160, Note_on_c, 9, 42, 95
2, 302280, Note_off_c, 9, 42, 95
2, 302400, Note_on_c, 9, 40, 127
2, 302400, Note_on_c, 9, 42, 95
2, 302640, Note_off_c, 9, 40, 127
2, 302640, Note_off_c, 9, 42, 95
2, 302640, Note_on_c, 9, 42, 63
2, 302760, Note_off_c, 9, 42, 63
2, 302880, Note_on_c, 9, 35, 95
2, 302880, Note_on_c, 9, 42, 95
2, 303120, Note_off_c, 9, 35, 95
2, 303120, Note_off_c, 9, 42, 95
2, 303120, Note_on_c, 9, 42, 95
2, 303240, Note_off_c, 9, 42, 95
2, 303360, Note_on_c, 9, 35, 95
2, 303360, Note_on_c, 9, 42, 95
2, 303600, Note_off_c, 9, 35, 95
2, 303600, Note_off_c, 9, 42, 95
2, 303600, Note_on_c, 9, 42, 63
2, 303720, Note_off_c, 9, 42, 63
2, 303840, Note_on_c, 9, 42, 95
2, 303960, Note_off_c, 9, 42, 95
2, 304080, Note_on_c, 9, 42, 95
2, 304200, Note_off_c, 9, 42, 95
2, 304320, Note_on_c, 9, 40, 127
2, 304320, Note_on_c, 9, 42, 95
2, 304560, Note_off_c, 9, 40, 127
2, 304560, Note_off_c, 9, 42, 95
2, 304560, Note_on_c, 9, 42, 63
2, 304680, Note_off_c, 9, 42, 63
2, 304800, Note_on_c, 9, 42, 95
2, 304920, Note_off_c, 9, 42, 95
2, 305040, Note_on_c, 9, 35, 79
2, 305040, Note_on_c, 9, 42, 95
2, 305280, Note_off_c, 9, 35, 79
2, 305280, Note_off_c, 9, 42, 95
2, 305280, Note_on_c, 9, 35, 95
2, 305280, Note_on_c, 9, 42, 95
2, 305400, Note_off_c, 9, 35, 95
2, 305400, Note_off_c, 9, 42, 95
2, 305520, Note_on_c, 9, 42, 63
2, 305640, Note_off_c, 9, 42, 63
2, 305760, Note_on_c, 9, 35, 95
2, 305760, Note_on_c, 9, 42, 95
2, 306000, Note_off_c, 9, 35, 95
2, 306000, Note_off_c, 9, 42, 95
2, 306000, Note_on_c, 9, 42, 95
2, 306120, Note_off_c, 9, 42, 95
2, 306240, Note_on_c, 9, 40, 127
2, 306240, Note_on_c, 9, 42, 95
2, 306240, Note_on_c, 9, 43, 79
2, 306480, Note_off_c, 9, 40, 127
2, 306480, Note_off_c, 9, 42, 95
2, 306480, Note_off_c, 9, 43, 79
2, 306480, Note_on_c, 9, 42, 63
2, 306600, Note_off_c, 9, 42, 63
2, 306720, Note_on_c, 9, 35, 95
2, 306720, Note_on_c, 9, 42, 95
2, 306960, Note_off_c, 9, 35, 95
2, 306960, Note_off_c, 9, 42, 95
2, 306960, Note_on_c, 9, 42, 95
2, 307080, Note_off_c, 9, 42, 95
2, 307200, Note_on_c, 9, 35, 95
2, 307200, Note_on_c, 9, 42, 95
2, 307440, Note_off_c, 9, 35, 95
2, 307440, Note_off_c, 9, 42, 95
2, 307440, Note_on_c, 9, 42, 63
2, 307560, Note_off_c, 9, 42, 63
2, 307680, Note_on_c, 9, 42, 95
2, 307800, Note_off_c, 9, 42, 95
2, 307920, Note_on_c, 9, 42, 95
2, 308040, Note_off_c, 9, 42, 95
2, 308160, Note_on_c, 9, 40, 127
2, 308160, Note_on_c, 9, 42, 95
2, 308400, Note_off_c, 9, 40, 127
2, 308400, Note_off_c, 9, 42, 95
2, 308400, Note_on_c, 9, 42, 63
2, 308520, Note_off_c, 9, 42, 63
2, 308640, Note_on_c, 9, 42, 95
2, 308760, Note_off_c, 9, 42, 95
2, 308880, Note_on_c, 9, 35, 79
2, 308880, Note_on_c, 9, 42, 95
2, 309120, Note_off_c, 9, 35, 79
2, 309120, Note_off_c, 9, 42, 95
2, 309120, Note_on_c, 9, 35, 95
2, 309120, Note_on_c, 9, 42, 95
2, 309240, Note_off_c, 9, 35, 95
2, 309240, Note_off_c, 9, 42, 95
2, 309360, Note_on_c, 9, 42, 63
2, 309480, Note_off_c, 9, 42, 63
2, 309600, Note_on_c, 9, 35, 95
2, 309600, Note_on_c, 9, 42, 95
2, 309840, Note_off_c, 9, 35, 95
2, 309840, Note_off_c, 9, 42, 95
2, 309840, Note_on_c, 9, 42, 95
2, 309960, Note_off_c, 9, 42, 95
2, 310080, Note_on_c, 9, 40, 127
2, 310080, Note_on_c, 9, 42, 95
2, 310320, Note_off_c, 9, 40, 127
2, 310320, Note_off_c, 9, 42, 95
2, 310320, Note_on_c, 9, 42, 63
2, 310440, Note_off_c, 9, 42, 63
2, 310560, Note_on_c, 9, 35, 95
2, 310560, Note_on_c, 9, 42, 95
2, 310800, Note_off_c, 9, 35, 95
2, 310800, Note_off_c, 9, 42, 95
2, 310800, Note_on_c, 9, 46, 95
2, 311040, Note_off_c, 9, 46, 95
2, 311040, Note_on_c, 9, 35, 95
2, 311040, Note_on_c, 9, 42, 95
2, 311280, Note_off_c, 9, 35, 95
2, 311280, Note_off_c, 9, 42, 95
2, 311280, Note_on_c, 9, 42, 63
2, 311400, Note_off_c, 9, 42, 63
2, 311520, Note_on_c, 9, 42, 95
2, 311640, Note_off_c, 9, 42, 95
2, 311760, Note_on_c, 9, 42, 95
2, 311880, Note_off_c, 9, 42, 95
2, 312000, Note_on_c, 9, 40, 127
2, 312000, Note_on_c, 9, 42, 95
2, 312240, Note_off_c, 9, 40, 127
2, 312240, Note_off_c, 9, 42, 95
2, 312240, Note_on_c, 9, 42, 63
2, 312360, Note_off_c, 9, 42, 63
2, 312480, Note_on_c, 9, 42, 95
2, 312600, Note_off_c, 9, 42, 95
2, 312720, Note_on_c, 9, 35, 79
2, 312720, Note_on_c, 9, 42, 95
2, 312960, Note_off_c, 9, 35, 79
2, 312960, Note_off_c, 9, 42, 95
2, 312960, Note_on_c, 9, 35, 95
2, 312960, Note_on_c, 9, 42, 95
2, 312960, Note_on_c, 9, 50, 111
2, 313200, Note_off_c, 9, 35, 95
2, 313200, Note_off_c, 9, 42, 95
2, 313200, Note_off_c, 9, 50, 111
2, 313200, Note_on_c, 9, 42, 63
2, 313200, Note_on_c, 9, 50, 95
2, 313320, Note_off_c, 9, 42, 63
2, 313320, Note_off_c, 9, 50, 95
2, 313440, Note_on_c, 9, 35, 95
2, 313440, Note_on_c, 9, 42, 95
2, 313440, Note_on_c, 9, 50, 95
2, 313680, Note_off_c, 9, 35, 95
2, 313680, Note_off_c, 9, 42, 95
2, 313680, Note_off_c, 9, 50, 95
2, 313680, Note_on_c, 9, 42, 95
2, 313680, Note_on_c, 9, 47, 95
2, 313920, Note_off_c, 9, 42, 95
2, 313920, Note_off_c, 9, 47, 95
2, 313920, Note_on_c, 9, 40, 127
2, 313920, Note_on_c, 9, 42, 95
2, 313920, Note_on_c, 9, 47, 111
2, 314160, Note_off_c, 9, 40, 127
2, 314160, Note_off_c, 9, 42, 95
2, 314160, Note_off_c, 9, 47, 111
2, 314160, Note_on_c, 9, 42, 63
2, 314160, Note_on_c, 9, 47, 95
2, 314280, Note_off_c, 9, 42, 63
2, 314280, Note_off_c, 9, 47, 95
2, 314400, Note_on_c, 9, 35, 95
2, 314400, Note_on_c, 9, 42, 95
2, 314400, Note_on_c, 9, 43, 95
2, 314640, Note_off_c, 9, 35, 95
2, 314640, Note_off_c, 9, 42, 95
2, 314640, Note_off_c, 9, 43, 95
2, 314640, Note_on_c, 9, 42, 95
2, 314640, Note_on_c, 9, 43, 95
2, 314760, Note_off_c, 9, 42, 95
2, 314760, Note_off_c, 9, 43, 95
2, 314760, End_track
3, 0, Start_track
3, 0, Pitch_bend_c, 0, 8192
3, 0, Control_c, 0, 7, 119
3, 0, Control_c, 0, 10, 63
3, 0, Control_c, 0, 93, 0
3, 0, Control_c, 0, 91, 63
3, 0, Control_c, 0, 95, 0
3, 0, Control_c, 0, 92, 0
3, 0, Control_c, 0, 11, 127
3, 0, Program_c, 0, 66
3, 69120, Note_on_c, 0, 78, 79
3, 69120, Note_on_c, 0, 74, 79
3, 69120, Note_on_c, 0, 71, 79
3, 69360, Note_off_c, 0, 78, 79
3, 69360, Note_off_c, 0, 74, 79
3, 69360, Note_off_c, 0, 71, 79
3, 69360, Note_on_c, 0, 78, 95
3, 69360, Note_on_c, 0, 74, 95
3, 69360, Note_on_c, 0, 71, 95
3, 69600, Note_off_c, 0, 78, 95
3, 69600, Note_off_c, 0, 74, 95
3, 69600, Note_off_c, 0, 71, 95
3, 69840, Note_on_c, 0, 78, 79
3, 69840, Note_on_c, 0, 74, 79
3, 69840, Note_on_c, 0, 71, 79
3, 70080, Note_off_c, 0, 78, 79
3, 70080, Note_off_c, 0, 74, 79
3, 70080, Note_off_c, 0, 71, 79
3, 70320, Note_on_c, 0, 78, 79
3, 70320, Note_on_c, 0, 74, 79
3, 70320, Note_on_c, 0, 71, 79
3, 70560, Note_off_c, 0, 78, 79
3, 70560, Note_off_c, 0, 74, 79
3, 70560, Note_off_c, 0, 71, 79
3, 70560, Note_on_c, 0, 78, 95
3, 70560, Note_on_c, 0, 74, 95
3, 70560, Note_on_c, 0, 71, 95
3, 70800, Note_off_c, 0, 78, 95
3, 70800, Note_off_c, 0, 74, 95
3, 70800, Note_off_c, 0, 71, 95
3, 71280, Note_on_c, 0, 59, 79
3, 71280, Note_on_c, 0, 66, 79
3, 71280, Note_on_c, 0, 62, 79
3, 71520, Note_off_c, 0, 59, 79
3, 71520, Note_off_c, 0, 66, 79
3, 71520, Note_off_c, 0, 62, 79
3, 71520, Note_on_c, 0, 59, 79
3, 71520, Note_on_c, 0, 66, 79
3, 71520, Note_on_c, 0, 62, 79
3, 71760, Note_off_c, 0, 59, 79
3, 71760, Note_off_c, 0, 66, 79
3, 71760, Note_off_c, 0, 62, 79
3, 72000, Note_on_c, 0, 59, 79
3, 72000, Note_on_c, 0, 66, 79
3, 72000, Note_on_c, 0, 62, 79
3, 72240, Note_off_c, 0, 59, 79
3, 72240, Note_off_c, 0, 66, 79
3, 72240, Note_off_c, 0, 62, 79
3, 72960, Note_on_c, 0, 64, 79
3, 72960, Note_on_c, 0, 68, 79
3, 72960, Note_on_c, 0, 61, 79
3, 73440, Note_off_c, 0, 64, 79
3, 73440, Note_off_c, 0, 68, 79
3, 73440, Note_off_c, 0, 61, 79
3, 73440, Note_on_c, 0, 73, 79
3, 73440, Note_on_c, 0, 69, 79
3, 73440, Note_on_c, 0, 64, 79
3, 74400, Note_off_c, 0, 73, 79
3, 74400, Note_off_c, 0, 69, 79
3, 74400, Note_off_c, 0, 64, 79
3, 74400, Note_on_c, 0, 76, 79
3, 74400, Note_on_c, 0, 73, 79
3, 74400, Note_on_c, 0, 69, 79
3, 75360, Note_off_c, 0, 76, 79
3, 75360, Note_off_c, 0, 73, 79
3, 75360, Note_off_c, 0, 69, 79
3, 75360, Note_on_c, 0, 78, 79
3, 75360, Note_on_c, 0, 74, 79
3, 75360, Note_on_c, 0, 71, 79
3, 76320, Note_off_c, 0, 78, 79
3, 76320, Note_off_c, 0, 74, 79
3, 76320, Note_off_c, 0, 71, 79
3, 76320, Note_on_c, 0, 80, 79
3, 76320, Note_on_c, 0, 76, 79
3, 76320, Note_on_c, 0, 73, 79
3, 76800, Note_off_c, 0, 80, 79
3, 76800, Note_off_c, 0, 76, 79
3, 76800, Note_off_c, 0, 73, 79
3, 76800, Note_on_c, 0, 81, 79
3, 76800, Note_on_c, 0, 77, 79
3, 76800, Note_on_c, 0, 74, 79
3, 77040, Note_off_c, 0, 81, 79
3, 77040, Note_off_c, 0, 77, 79
3, 77040, Note_off_c, 0, 74, 79
3, 77040, Note_on_c, 0, 81, 95
3, 77040, Note_on_c, 0, 77, 95
3, 77040, Note_on_c, 0, 74, 95
3, 77280, Note_off_c, 0, 81, 95
3, 77280, Note_off_c, 0, 77, 95
3, 77280, Note_off_c, 0, 74, 95
3, 77520, Note_on_c, 0, 81, 79
3, 77520, Note_on_c, 0, 77, 79
3, 77520, Note_on_c, 0, 74, 79
3, 77760, Note_off_c, 0, 81, 79
3, 77760, Note_off_c, 0, 77, 79
3, 77760, Note_off_c, 0, 74, 79
3, 78000, Note_on_c, 0, 81, 79
3, 78000, Note_on_c, 0, 77, 79
3, 78000, Note_on_c, 0, 74, 79
3, 78240, Note_off_c, 0, 81, 79
3, 78240, Note_off_c, 0, 77, 79
3, 78240, Note_off_c, 0, 74, 79
3, 78240, Note_on_c, 0, 81, 95
3, 78240, Note_on_c, 0, 77, 95
3, 78240, Note_on_c, 0, 74, 95
3, 78480, Note_off_c, 0, 81, 95
3, 78480, Note_off_c, 0, 77, 95
3, 78480, Note_off_c, 0, 74, 95
3, 78960, Note_on_c, 0, 69, 79
3, 78960, Note_on_c, 0, 65, 79
3, 78960, Note_on_c, 0, 62, 79
3, 79200, Note_off_c, 0, 69, 79
3, 79200, Note_off_c, 0, 65, 79
3, 79200, Note_off_c, 0, 62, 79
3, 79200, Note_on_c, 0, 69, 79
3, 79200, Note_on_c, 0, 65, 79
3, 79200, Note_on_c, 0, 62, 79
3, 79440, Note_off_c, 0, 69, 79
3, 79440, Note_off_c, 0, 65, 79
3, 79440, Note_off_c, 0, 62, 79
3, 79680, Note_on_c, 0, 69, 79
3, 79680, Note_on_c, 0, 65, 79
3, 79680, Note_on_c, 0, 62, 79
3, 79920, Note_off_c, 0, 69, 79
3, 79920, Note_off_c, 0, 65, 79
3, 79920, Note_off_c, 0, 62, 79
3, 80640, Note_on_c, 0, 64, 79
3, 80640, Note_on_c, 0, 71, 79
3, 80640, Note_on_c, 0, 67, 79
3, 81120, Note_off_c, 0, 64, 79
3, 81120, Note_off_c, 0, 71, 79
3, 81120, Note_off_c, 0, 67, 79
3, 81120, Note_on_c, 0, 76, 79
3, 81120, Note_on_c, 0, 72, 79
3, 81120, Note_on_c, 0, 67, 79
3, 82080, Note_off_c, 0, 76, 79
3, 82080, Note_off_c, 0, 72, 79
3, 82080, Note_off_c, 0, 67, 79
3, 82080, Note_on_c, 0, 79, 79
3, 82080, Note_on_c, 0, 76, 79
3, 82080, Note_on_c, 0, 72, 79
3, 83040, Note_off_c, 0, 79, 79
3, 83040, Note_off_c, 0, 76, 79
3, 83040, Note_off_c, 0, 72, 79
3, 83040, Note_on_c, 0, 81, 79
3, 83040, Note_on_c, 0, 77, 79
3, 83040, Note_on_c, 0, 74, 79
3, 84000, Note_off_c, 0, 81, 79
3, 84000, Note_off_c, 0, 77, 79
3, 84000, Note_off_c, 0, 74, 79
3, 84000, Note_on_c, 0, 83, 79
3, 84000, Note_on_c, 0, 79, 79
3, 84000, Note_on_c, 0, 76, 79
3, 84480, Note_off_c, 0, 83, 79
3, 84480, Note_off_c, 0, 79, 79
3, 84480, Note_off_c, 0, 76, 79
3, 84480, Note_on_c, 0, 84, 79
3, 84480, Note_on_c, 0, 80, 79
3, 84480, Note_on_c, 0, 77, 79
3, 84720, Note_off_c, 0, 84, 79
3, 84720, Note_off_c, 0, 80, 79
3, 84720, Note_off_c, 0, 77, 79
3, 84720, Note_on_c, 0, 84, 95
3, 84720, Note_on_c, 0, 80, 95
3, 84720, Note_on_c, 0, 77, 95
3, 84960, Note_off_c, 0, 84, 95
3, 84960, Note_off_c, 0, 80, 95
3, 84960, Note_off_c, 0, 77, 95
3, 85200, Note_on_c, 0, 84, 79
3, 85200, Note_on_c, 0, 80, 79
3, 85200, Note_on_c, 0, 77, 79
3, 85440, Note_off_c, 0, 84, 79
3, 85440, Note_off_c, 0, 80, 79
3, 85440, Note_off_c, 0, 77, 79
3, 85680, Note_on_c, 0, 84, 79
3, 85680, Note_on_c, 0, 80, 79
3, 85680, Note_on_c, 0, 77, 79
3, 85920, Note_off_c, 0, 84, 79
3, 85920, Note_off_c, 0, 80, 79
3, 85920, Note_off_c, 0, 77, 79
3, 85920, Note_on_c, 0, 84, 95
3, 85920, Note_on_c, 0, 80, 95
3, 85920, Note_on_c, 0, 77, 95
3, 86160, Note_off_c, 0, 84, 95
3, 86160, Note_off_c, 0, 80, 95
3, 86160, Note_off_c, 0, 77, 95
3, 86640, Note_on_c, 0, 72, 79
3, 86640, Note_on_c, 0, 68, 79
3, 86640, Note_on_c, 0, 65, 79
3, 86880, Note_off_c, 0, 72, 79
3, 86880, Note_off_c, 0, 68, 79
3, 86880, Note_off_c, 0, 65, 79
3, 86880, Note_on_c, 0, 72, 79
3, 86880, Note_on_c, 0, 68, 79
3, 86880, Note_on_c, 0, 65, 79
3, 87120, Note_off_c, 0, 72, 79
3, 87120, Note_off_c, 0, 68, 79
3, 87120, Note_off_c, 0, 65, 79
3, 87360, Note_on_c, 0, 72, 79
3, 87360, Note_on_c, 0, 68, 79
3, 87360, Note_on_c, 0, 65, 79
3, 87600, Note_off_c, 0, 72, 79
3, 87600, Note_off_c, 0, 68, 79
3, 87600, Note_off_c, 0, 65, 79
3, 88320, Note_on_c, 0, 75, 79
3, 88320, Note_on_c, 0, 70, 79
3, 88320, Note_on_c, 0, 67, 79
3, 88800, Note_off_c, 0, 75, 79
3, 88800, Note_off_c, 0, 70, 79
3, 88800, Note_off_c, 0, 67, 79
3, 88800, Note_on_c, 0, 82, 79
3, 88800, Note_on_c, 0, 77, 79
3, 88800, Note_on_c, 0, 67, 79
3, 89760, Note_off_c, 0, 82, 79
3, 89760, Note_off_c, 0, 77, 79
3, 89760, Note_off_c, 0, 67, 79
3, 89760, Note_on_c, 0, 75, 79
3, 89760, Note_on_c, 0, 70, 79
3, 90720, Note_off_c, 0, 75, 79
3, 90720, Note_off_c, 0, 70, 79
3, 90720, Note_on_c, 0, 77, 79
3, 90720, Note_on_c, 0, 70, 79
3, 90720, Note_on_c, 0, 65, 79
3, 91680, Note_off_c, 0, 77, 79
3, 91680, Note_off_c, 0, 70, 79
3, 91680, Note_off_c, 0, 65, 79
3, 91680, Note_on_c, 0, 79, 79
3, 91680, Note_on_c, 0, 75, 79
3, 91680, Note_on_c, 0, 67, 79
3, 92160, Note_off_c, 0, 79, 79
3, 92160, Note_off_c, 0, 75, 79
3, 92160, Note_off_c, 0, 67, 79
3, 92160, Note_on_c, 0, 80, 79
3, 92160, Note_on_c, 0, 75, 79
3, 92400, Note_off_c, 0, 80, 79
3, 92400, Note_off_c, 0, 75, 79
3, 92400, Note_on_c, 0, 80, 79
3, 92400, Note_on_c, 0, 75, 79
3, 92640, Note_off_c, 0, 80, 79
3, 92640, Note_off_c, 0, 75, 79
3, 92640, Note_on_c, 0, 80, 79
3, 92640, Note_on_c, 0, 75, 79
3, 92880, Note_off_c, 0, 80, 79
3, 92880, Note_off_c, 0, 75, 79
3, 92880, Note_on_c, 0, 80, 79
3, 92880, Note_on_c, 0, 75, 79
3, 93120, Note_off_c, 0, 80, 79
3, 93120, Note_off_c, 0, 75, 79
3, 93120, Note_on_c, 0, 80, 79
3, 93120, Note_on_c, 0, 75, 79
3, 93360, Note_off_c, 0, 80, 79
3, 93360, Note_off_c, 0, 75, 79
3, 93360, Note_on_c, 0, 78, 79
3, 93360, Note_on_c, 0, 73, 79
3, 93600, Note_off_c, 0, 78, 79
3, 93600, Note_off_c, 0, 73, 79
3, 93600, Note_on_c, 0, 78, 79
3, 93600, Note_on_c, 0, 73, 79
3, 93840, Note_off_c, 0, 78, 79
3, 93840, Note_off_c, 0, 73, 79
3, 93840, Note_on_c, 0, 77, 79
3, 93840, Note_on_c, 0, 73, 79
3, 94080, Note_off_c, 0, 77, 79
3, 94080, Note_off_c, 0, 73, 79
3, 94080, Note_on_c, 0, 77, 79
3, 94080, Note_on_c, 0, 73, 79
3, 94320, Note_off_c, 0, 77, 79
3, 94320, Note_off_c, 0, 73, 79
3, 94320, Note_on_c, 0, 75, 79
3, 94320, Note_on_c, 0, 72, 79
3, 94560, Note_off_c, 0, 75, 79
3, 94560, Note_off_c, 0, 72, 79
3, 94560, Note_on_c, 0, 75, 79
3, 94560, Note_on_c, 0, 72, 79
3, 94800, Note_off_c, 0, 75, 79
3, 94800, Note_off_c, 0, 72, 79
3, 94800, Note_on_c, 0, 73, 79
3, 94800, Note_on_c, 0, 70, 79
3, 95040, Note_off_c, 0, 73, 79
3, 95040, Note_off_c, 0, 70, 79
3, 95040, Note_on_c, 0, 73, 79
3, 95040, Note_on_c, 0, 70, 79
3, 95280, Note_off_c, 0, 73, 79
3, 95280, Note_off_c, 0, 70, 79
3, 95280, Note_on_c, 0, 73, 79
3, 95280, Note_on_c, 0, 68, 79
3, 95520, Note_off_c, 0, 73, 79
3, 95520, Note_off_c, 0, 68, 79
3, 95520, Note_on_c, 0, 73, 79
3, 95520, Note_on_c, 0, 68, 79
3, 95760, Note_off_c, 0, 73, 79
3, 95760, Note_off_c, 0, 68, 79
3, 95760, Note_on_c, 0, 73, 79
3, 95760, Note_on_c, 0, 66, 79
3, 96000, Note_off_c, 0, 73, 79
3, 96000, Note_off_c, 0, 66, 79
3, 96000, Note_on_c, 0, 73, 79
3, 96000, Note_on_c, 0, 65, 79
3, 96120, Note_off_c, 0, 73, 79
3, 96120, Note_off_c, 0, 65, 79
3, 96120, Note_on_c, 0, 75, 79
3, 96120, Note_on_c, 0, 67, 79
3, 96240, Note_off_c, 0, 75, 79
3, 96240, Note_off_c, 0, 67, 79
3, 96240, Note_on_c, 0, 73, 79
3, 96240, Note_on_c, 0, 65, 79
3, 96480, Note_off_c, 0, 73, 79
3, 96480, Note_off_c, 0, 65, 79
3, 96480, Note_on_c, 0, 77, 79
3, 96480, Note_on_c, 0, 73, 79
3, 96960, Note_off_c, 0, 77, 79
3, 96960, Note_off_c, 0, 73, 79
3, 96960, Note_on_c, 0, 77, 79
3, 96960, Note_on_c, 0, 73, 79
3, 97080, Note_off_c, 0, 77, 79
3, 97080, Note_off_c, 0, 73, 79
3, 97080, Note_on_c, 0, 79, 79
3, 97080, Note_on_c, 0, 76, 79
3, 97200, Note_off_c, 0, 79, 79
3, 97200, Note_off_c, 0, 76, 79
3, 97200, Note_on_c, 0, 77, 79
3, 97200, Note_on_c, 0, 73, 79
3, 97440, Note_off_c, 0, 77, 79
3, 97440, Note_off_c, 0, 73, 79
3, 97440, Note_on_c, 0, 73, 79
3, 97440, Note_on_c, 0, 65, 79
3, 97920, Note_off_c, 0, 73, 79
3, 97920, Note_off_c, 0, 65, 79
3, 97920, Note_on_c, 0, 73, 79
3, 97920, Note_on_c, 0, 65, 79
3, 98040, Note_off_c, 0, 73, 79
3, 98040, Note_off_c, 0, 65, 79
3, 98040, Note_on_c, 0, 75, 79
3, 98040, Note_on_c, 0, 67, 79
3, 98160, Note_off_c, 0, 75, 79
3, 98160, Note_off_c, 0, 67, 79
3, 98160, Note_on_c, 0, 73, 79
3, 98160, Note_on_c, 0, 65, 79
3, 98400, Note_off_c, 0, 73, 79
3, 98400, Note_off_c, 0, 65, 79
3, 98400, Note_on_c, 0, 77, 79
3, 98400, Note_on_c, 0, 73, 79
3, 98880, Note_off_c, 0, 77, 79
3, 98880, Note_off_c, 0, 73, 79
3, 98880, Note_on_c, 0, 77, 79
3, 98880, Note_on_c, 0, 73, 79
3, 99000, Note_off_c, 0, 77, 79
3, 99000, Note_off_c, 0, 73, 79
3, 99000, Note_on_c, 0, 79, 79
3, 99000, Note_on_c, 0, 76, 79
3, 99120, Note_off_c, 0, 79, 79
3, 99120, Note_off_c, 0, 76, 79
3, 99120, Note_on_c, 0, 77, 79
3, 99120, Note_on_c, 0, 73, 79
3, 99360, Note_off_c, 0, 77, 79
3, 99360, Note_off_c, 0, 73, 79
3, 99360, Note_on_c, 0, 73, 79
3, 99360, Note_on_c, 0, 65, 79
3, 99840, Note_off_c, 0, 73, 79
3, 99840, Note_off_c, 0, 65, 79
3, 99840, Note_on_c, 0, 71, 79
3, 99840, Note_on_c, 0, 68, 79
3, 99840, Note_on_c, 0, 59, 79
3, 100320, Note_off_c, 0, 71, 79
3, 100320, Note_off_c, 0, 68, 79
3, 100320, Note_off_c, 0, 59, 79
3, 100320, Note_on_c, 0, 71, 79
3, 100320, Note_on_c, 0, 68, 79
3, 100560, Note_off_c, 0, 71, 79
3, 100560, Note_off_c, 0, 68, 79
3, 100560, Note_on_c, 0, 71, 79
3, 100560, Note_on_c, 0, 68, 79
3, 100800, Note_off_c, 0, 71, 79
3, 100800, Note_off_c, 0, 68, 79
3, 101040, Note_on_c, 0, 75, 79
3, 101040, Note_on_c, 0, 71, 79
3, 101280, Note_off_c, 0, 75, 79
3, 101280, Note_off_c, 0, 71, 79
3, 101280, Note_on_c, 0, 75, 79
3, 101280, Note_on_c, 0, 71, 79
3, 101520, Note_off_c, 0, 75, 79
3, 101520, Note_off_c, 0, 71, 79
3, 101760, Note_on_c, 0, 75, 79
3, 101760, Note_on_c, 0, 71, 79
3, 102000, Note_off_c, 0, 75, 79
3, 102000, Note_off_c, 0, 71, 79
3, 102000, Note_on_c, 0, 76, 79
3, 102000, Note_on_c, 0, 73, 79
3, 102240, Note_off_c, 0, 76, 79
3, 102240, Note_off_c, 0, 73, 79
3, 102480, Note_on_c, 0, 76, 79
3, 102480, Note_on_c, 0, 73, 79
3, 102720, Note_off_c, 0, 76, 79
3, 102720, Note_off_c, 0, 73, 79
3, 102960, Note_on_c, 0, 78, 79
3, 102960, Note_on_c, 0, 75, 79
3, 103200, Note_off_c, 0, 78, 79
3, 103200, Note_off_c, 0, 75, 79
3, 103200, Note_on_c, 0, 78, 79
3, 103200, Note_on_c, 0, 75, 79
3, 103440, Note_off_c, 0, 78, 79
3, 103440, Note_off_c, 0, 75, 79
3, 103680, Note_on_c, 0, 78, 79
3, 103680, Note_on_c, 0, 75, 79
3, 103920, Note_off_c, 0, 78, 79
3, 103920, Note_off_c, 0, 75, 79
3, 104160, Note_on_c, 0, 78, 79
3, 104160, Note_on_c, 0, 75, 79
3, 104400, Note_off_c, 0, 78, 79
3, 104400, Note_off_c, 0, 75, 79
3, 104400, Note_on_c, 0, 80, 79
3, 104400, Note_on_c, 0, 76, 79
3, 104520, Note_off_c, 0, 80, 79
3, 104520, Note_off_c, 0, 76, 79
3, 104520, Note_on_c, 0, 78, 79
3, 104520, Note_on_c, 0, 75, 79
3, 104520, Note_on_c, 0, 71, 79
3, 104520, Note_on_c, 0, 67, 79
3, 104640, Note_off_c, 0, 78, 79
3, 104640, Note_off_c, 0, 75, 79
3, 104640, Note_off_c, 0, 71, 79
3, 104640, Note_off_c, 0, 67, 79
3, 104640, Note_on_c, 0, 71, 95
3, 105600, Note_off_c, 0, 71, 95
3, 105600, Note_on_c, 0, 71, 95
3, 105840, Note_off_c, 0, 71, 95
3, 105840, Note_on_c, 0, 75, 95
3, 105840, Note_on_c, 0, 69, 95
3, 105840, Note_on_c, 0, 66, 95
3, 106080, Note_off_c, 0, 75, 95
3, 106080, Note_off_c, 0, 69, 95
3, 106080, Note_off_c, 0, 66, 95
3, 106320, Note_on_c, 0, 73, 95
3, 106320, Note_on_c, 0, 68, 95
3, 106320, Note_on_c, 0, 64, 95
3, 106560, Note_off_c, 0, 73, 95
3, 106560, Note_off_c, 0, 68, 95
3, 106560, Note_off_c, 0, 64, 95
3, 106800, Note_on_c, 0, 73, 95
3, 106800, Note_on_c, 0, 68, 95
3, 106800, Note_on_c, 0, 64, 95
3, 107040, Note_off_c, 0, 73, 95
3, 107040, Note_off_c, 0, 68, 95
3, 107040, Note_off_c, 0, 64, 95
3, 107040, Note_on_c, 0, 71, 95
3, 107040, Note_on_c, 0, 66, 95
3, 107040, Note_on_c, 0, 63, 95
3, 107280, Note_off_c, 0, 71, 95
3, 107280, Note_off_c, 0, 66, 95
3, 107280, Note_off_c, 0, 63, 95
3, 170880, Note_on_c, 0, 65, 95
3, 170880, Note_on_c, 0, 60, 95
3, 170880, Note_on_c, 0, 57, 95
3, 171000, Note_off_c, 0, 65, 95
3, 171000, Note_off_c, 0, 60, 95
3, 171000, Note_off_c, 0, 57, 95
3, 171000, Note_on_c, 0, 66, 95
3, 171000, Note_on_c, 0, 61, 95
3, 171000, Note_on_c, 0, 58, 95
3, 171120, Note_off_c, 0, 66, 95
3, 171120, Note_off_c, 0, 61, 95
3, 171120, Note_off_c, 0, 58, 95
3, 171240, Note_on_c, 0, 67, 95
3, 171240, Note_on_c, 0, 62, 95
3, 171240, Note_on_c, 0, 59, 95
3, 171360, Note_off_c, 0, 67, 95
3, 171360, Note_off_c, 0, 62, 95
3, 171360, Note_off_c, 0, 59, 95
3, 171360, Note_on_c, 0, 68, 95
3, 171360, Note_on_c, 0, 63, 95
3, 171360, Note_on_c, 0, 60, 95
3, 171480, Note_off_c, 0, 68, 95
3, 171480, Note_off_c, 0, 63, 95
3, 171480, Note_off_c, 0, 60, 95
3, 171480, Note_on_c, 0, 69, 95
3, 171480, Note_on_c, 0, 64, 95
3, 171480, Note_on_c, 0, 61, 95
3, 171600, Note_off_c, 0, 69, 95
3, 171600, Note_off_c, 0, 64, 95
3, 171600, Note_off_c, 0, 61, 95
3, 171720, Note_on_c, 0, 70, 95
3, 171720, Note_on_c, 0, 65, 95
3, 171720, Note_on_c, 0, 62, 95
3, 171840, Note_off_c, 0, 70, 95
3, 171840, Note_off_c, 0, 65, 95
3, 171840, Note_off_c, 0, 62, 95
3, 171840, Note_on_c, 0, 71, 95
3, 171840, Note_on_c, 0, 66, 95
3, 171840, Note_on_c, 0, 63, 95
3, 171960, Note_off_c, 0, 71, 95
3, 171960, Note_off_c, 0, 66, 95
3, 171960, Note_off_c, 0, 63, 95
3, 171960, Note_on_c, 0, 72, 95
3, 171960, Note_on_c, 0, 67, 95
3, 171960, Note_on_c, 0, 64, 95
3, 172080, Note_off_c, 0, 72, 95
3, 172080, Note_off_c, 0, 67, 95
3, 172080, Note_off_c, 0, 64, 95
3, 172200, Note_on_c, 0, 73, 95
3, 172200, Note_on_c, 0, 68, 95
3, 172200, Note_on_c, 0, 65, 95
3, 172320, Note_off_c, 0, 73, 95
3, 172320, Note_off_c, 0, 68, 95
3, 172320, Note_off_c, 0, 65, 95
3, 172320, Note_on_c, 0, 74, 95
3, 172320, Note_on_c, 0, 69, 95
3, 172320, Note_on_c, 0, 66, 95
3, 172440, Note_off_c, 0, 74, 95
3, 172440, Note_off_c, 0, 69, 95
3, 172440, Note_off_c, 0, 66, 95
3, 172440, Note_on_c, 0, 75, 95
3, 172440, Note_on_c, 0, 70, 95
3, 172440, Note_on_c, 0, 67, 95
3, 172560, Note_off_c, 0, 75, 95
3, 172560, Note_off_c, 0, 70, 95
3, 172560, Note_off_c, 0, 67, 95
3, 172680, Note_on_c, 0, 76, 95
3, 172680, Note_on_c, 0, 71, 95
3, 172680, Note_on_c, 0, 68, 95
3, 172800, Note_off_c, 0, 76, 95
3, 172800, Note_off_c, 0, 71, 95
3, 172800, Note_off_c, 0, 68, 95
3, 172800, Note_on_c, 0, 77, 95
3, 172800, Note_on_c, 0, 72, 95
3, 172800, Note_on_c, 0, 69, 95
3, 174720, Note_off_c, 0, 77, 95
3, 174720, Note_off_c, 0, 72, 95
3, 174720, Note_off_c, 0, 69, 95
3, 174720, Note_on_c, 0, 76, 95
3, 174720, Note_on_c, 0, 72, 95
3, 174720, Note_on_c, 0, 67, 95
3, 176640, Note_off_c, 0, 76, 95
3, 176640, Note_off_c, 0, 72, 95
3, 176640, Note_off_c, 0, 67, 95
3, 176640, Note_on_c, 0, 76, 95
3, 176640, Note_on_c, 0, 72, 95
3, 176640, Note_on_c, 0, 67, 95
3, 177360, Note_off_c, 0, 76, 95
3, 177360, Note_off_c, 0, 72, 95
3, 177360, Note_off_c, 0, 67, 95
3, 177360, Note_on_c, 0, 77, 95
3, 177360, Note_on_c, 0, 74, 95
3, 177360, Note_on_c, 0, 69, 95
3, 177480, Note_off_c, 0, 77, 95
3, 177480, Note_off_c, 0, 74, 95
3, 177480, Note_off_c, 0, 69, 95
3, 177480, Note_on_c, 0, 76, 95
3, 177480, Note_on_c, 0, 72, 95
3, 177480, Note_on_c, 0, 67, 95
3, 177600, Note_off_c, 0, 76, 95
3, 177600, Note_off_c, 0, 72, 95
3, 177600, Note_off_c, 0, 67, 95
3, 177600, Note_on_c, 0, 74, 95
3, 177600, Note_on_c, 0, 70, 95
3, 177600, Note_on_c, 0, 65, 95
3, 179520, Note_off_c, 0, 74, 95
3, 179520, Note_off_c, 0, 70, 95
3, 179520, Note_off_c, 0, 65, 95
3, 180480, Note_on_c, 0, 77, 95
3, 180480, Note_on_c, 0, 72, 95
3, 180480, Note_on_c, 0, 69, 95
3, 182400, Note_off_c, 0, 77, 95
3, 182400, Note_off_c, 0, 72, 95
3, 182400, Note_off_c, 0, 69, 95
3, 182400, Note_on_c, 0, 76, 95
3, 182400, Note_on_c, 0, 72, 95
3, 182400, Note_on_c, 0, 67, 95
3, 184320, Note_off_c, 0, 76, 95
3, 184320, Note_off_c, 0, 72, 95
3, 184320, Note_off_c, 0, 67, 95
3, 184320, Note_on_c, 0, 76, 95
3, 184320, Note_on_c, 0, 72, 95
3, 184320, Note_on_c, 0, 67, 95
3, 185040, Note_off_c, 0, 76, 95
3, 185040, Note_off_c, 0, 72, 95
3, 185040, Note_off_c, 0, 67, 95
3, 185040, Note_on_c, 0, 77, 95
3, 185040, Note_on_c, 0, 74, 95
3, 185040, Note_on_c, 0, 69, 95
3, 185160, Note_off_c, 0, 77, 95
3, 185160, Note_off_c, 0, 74, 95
3, 185160, Note_off_c, 0, 69, 95
3, 185160, Note_on_c, 0, 76, 95
3, 185160, Note_on_c, 0, 72, 95
3, 185160, Note_on_c, 0, 67, 95
3, 185280, Note_off_c, 0, 76, 95
3, 185280, Note_off_c, 0, 72, 95
3, 185280, Note_off_c, 0, 67, 95
3, 185280, Note_on_c, 0, 74, 95
3, 185280, Note_on_c, 0, 74, 95
3, 185280, Note_on_c, 0, 70, 95
3, 185280, Note_on_c, 0, 65, 95
3, 186240, Note_off_c, 0, 74, 95
3, 186240, Note_off_c, 0, 74, 95
3, 186240, Note_off_c, 0, 70, 95
3, 186240, Note_off_c, 0, 65, 95
3, 186720, Note_on_c, 0, 68, 95
3, 186720, Note_on_c, 0, 63, 95
3, 186720, Note_on_c, 0, 60, 95
3, 186840, Note_off_c, 0, 68, 95
3, 186840, Note_off_c, 0, 63, 95
3, 186840, Note_off_c, 0, 60, 95
3, 186840, Note_on_c, 0, 69, 95
3, 186840, Note_on_c, 0, 64, 95
3, 186840, Note_on_c, 0, 61, 95
3, 186960, Note_off_c, 0, 69, 95
3, 186960, Note_off_c, 0, 64, 95
3, 186960, Note_off_c, 0, 61, 95
3, 187080, Note_on_c, 0, 70, 95
3, 187080, Note_on_c, 0, 65, 95
3, 187080, Note_on_c, 0, 62, 95
3, 187200, Note_off_c, 0, 70, 95
3, 187200, Note_off_c, 0, 65, 95
3, 187200, Note_off_c, 0, 62, 95
3, 187200, Note_on_c, 0, 71, 95
3, 187200, Note_on_c, 0, 66, 95
3, 187200, Note_on_c, 0, 63, 95
3, 187320, Note_off_c, 0, 71, 95
3, 187320, Note_off_c, 0, 66, 95
3, 187320, Note_off_c, 0, 63, 95
3, 187320, Note_on_c, 0, 64, 95
3, 187320, Note_on_c, 0, 72, 95
3, 187320, Note_on_c, 0, 67, 95
3, 187440, Note_off_c, 0, 64, 95
3, 187440, Note_off_c, 0, 72, 95
3, 187440, Note_off_c, 0, 67, 95
3, 187560, Note_on_c, 0, 73, 95
3, 187560, Note_on_c, 0, 68, 95
3, 187560, Note_on_c, 0, 65, 95
3, 187680, Note_off_c, 0, 73, 95
3, 187680, Note_off_c, 0, 68, 95
3, 187680, Note_off_c, 0, 65, 95
3, 187680, Note_on_c, 0, 74, 95
3, 187680, Note_on_c, 0, 69, 95
3, 187680, Note_on_c, 0, 66, 95
3, 187800, Note_off_c, 0, 74, 95
3, 187800, Note_off_c, 0, 69, 95
3, 187800, Note_off_c, 0, 66, 95
3, 187800, Note_on_c, 0, 75, 95
3, 187800, Note_on_c, 0, 70, 95
3, 187800, Note_on_c, 0, 67, 95
3, 187920, Note_off_c, 0, 75, 95
3, 187920, Note_off_c, 0, 70, 95
3, 187920, Note_off_c, 0, 67, 95
3, 188040, Note_on_c, 0, 76, 95
3, 188040, Note_on_c, 0, 71, 95
3, 188040, Note_on_c, 0, 68, 95
3, 188160, Note_off_c, 0, 76, 95
3, 188160, Note_off_c, 0, 71, 95
3, 188160, Note_off_c, 0, 68, 95
3, 188160, Note_on_c, 0, 77, 95
3, 188160, Note_on_c, 0, 72, 95
3, 188160, Note_on_c, 0, 69, 95
3, 190080, Note_off_c, 0, 77, 95
3, 190080, Note_off_c, 0, 72, 95
3, 190080, Note_off_c, 0, 69, 95
3, 190080, Note_on_c, 0, 76, 95
3, 190080, Note_on_c, 0, 72, 95
3, 190080, Note_on_c, 0, 67, 95
3, 192000, Note_off_c, 0, 76, 95
3, 192000, Note_off_c, 0, 72, 95
3, 192000, Note_off_c, 0, 67, 95
3, 192000, Note_on_c, 0, 76, 95
3, 192000, Note_on_c, 0, 72, 95
3, 192000, Note_on_c, 0, 67, 95
3, 192720, Note_off_c, 0, 76, 95
3, 192720, Note_off_c, 0, 72, 95
3, 192720, Note_off_c, 0, 67, 95
3, 192720, Note_on_c, 0, 77, 95
3, 192720, Note_on_c, 0, 74, 95
3, 192720, Note_on_c, 0, 69, 95
3, 192840, Note_off_c, 0, 77, 95
3, 192840, Note_off_c, 0, 74, 95
3, 192840, Note_off_c, 0, 69, 95
3, 192840, Note_on_c, 0, 76, 95
3, 192840, Note_on_c, 0, 72, 95
3, 192840, Note_on_c, 0, 67, 95
3, 192960, Note_off_c, 0, 76, 95
3, 192960, Note_off_c, 0, 72, 95
3, 192960, Note_off_c, 0, 67, 95
3, 192960, Note_on_c, 0, 74, 95
3, 192960, Note_on_c, 0, 70, 95
3, 192960, Note_on_c, 0, 65, 95
3, 194880, Note_off_c, 0, 74, 95
3, 194880, Note_off_c, 0, 70, 95
3, 194880, Note_off_c, 0, 65, 95
3, 195840, Note_on_c, 0, 77, 95
3, 195840, Note_on_c, 0, 72, 95
3, 195840, Note_on_c, 0, 69, 95
3, 197760, Note_off_c, 0, 77, 95
3, 197760, Note_off_c, 0, 72, 95
3, 197760, Note_off_c, 0, 69, 95
3, 197760, Note_on_c, 0, 76, 95
3, 197760, Note_on_c, 0, 72, 95
3, 197760, Note_on_c, 0, 67, 95
3, 199680, Note_off_c, 0, 76, 95
3, 199680, Note_off_c, 0, 72, 95
3, 199680, Note_off_c, 0, 67, 95
3, 199680, Note_on_c, 0, 76, 95
3, 199680, Note_on_c, 0, 72, 95
3, 199680, Note_on_c, 0, 67, 95
3, 200400, Note_off_c, 0, 76, 95
3, 200400, Note_off_c, 0, 72, 95
3, 200400, Note_off_c, 0, 67, 95
3, 200400, Note_on_c, 0, 77, 95
3, 200400, Note_on_c, 0, 74, 95
3, 200400, Note_on_c, 0, 69, 95
3, 200520, Note_off_c, 0, 77, 95
3, 200520, Note_off_c, 0, 74, 95
3, 200520, Note_off_c, 0, 69, 95
3, 200520, Note_on_c, 0, 76, 95
3, 200520, Note_on_c, 0, 72, 95
3, 200520, Note_on_c, 0, 67, 95
3, 200640, Note_off_c, 0, 76, 95
3, 200640, Note_off_c, 0, 72, 95
3, 200640, Note_off_c, 0, 67, 95
3, 200640, Note_on_c, 0, 74, 95
3, 200640, Note_on_c, 0, 74, 95
3, 200640, Note_on_c, 0, 70, 95
3, 200640, Note_on_c, 0, 65, 95
3, 202560, Note_off_c, 0, 74, 95
3, 202560, Note_off_c, 0, 74, 95
3, 202560, Note_off_c, 0, 70, 95
3, 202560, Note_off_c, 0, 65, 95
3, 266880, Note_on_c, 0, 78, 95
3, 267360, Note_off_c, 0, 78, 95
3, 267840, Note_on_c, 0, 76, 95
3, 268320, Note_off_c, 0, 76, 95
3, 268800, Note_on_c, 0, 76, 95
3, 269280, Note_off_c, 0, 76, 95
3, 269280, Note_on_c, 0, 78, 95
3, 269520, Note_off_c, 0, 78, 95
3, 269520, Note_on_c, 0, 76, 95
3, 269760, Note_off_c, 0, 76, 95
3, 269760, Note_on_c, 0, 74, 95
3, 271680, Note_off_c, 0, 74, 95
3, 271680, Note_on_c, 0, 80, 95
3, 272640, Note_off_c, 0, 80, 95
3, 272640, Note_on_c, 0, 76, 95
3, 276480, Note_off_c, 0, 76, 95
3, 282240, Note_on_c, 0, 78, 95
3, 282720, Note_off_c, 0, 78, 95
3, 283200, Note_on_c, 0, 76, 95
3, 283680, Note_off_c, 0, 76, 95
3, 284160, Note_on_c, 0, 76, 95
3, 284640, Note_off_c, 0, 76, 95
3, 284640, Note_on_c, 0, 78, 95
3, 284880, Note_off_c, 0, 78, 95
3, 284880, Note_on_c, 0, 76, 95
3, 285120, Note_off_c, 0, 76, 95
3, 285120, Note_on_c, 0, 74, 95
3, 287040, Note_off_c, 0, 74, 95
3, 287040, Note_on_c, 0, 80, 95
3, 288000, Note_off_c, 0, 80, 95
3, 288000, Note_on_c, 0, 76, 95
3, 291840, Note_off_c, 0, 76, 95
3, 297600, Note_on_c, 0, 78, 95
3, 298080, Note_off_c, 0, 78, 95
3, 298560, Note_on_c, 0, 76, 95
3, 299040, Note_off_c, 0, 76, 95
3, 299520, Note_on_c, 0, 76, 95
3, 300000, Note_off_c, 0, 76, 95
3, 300000, Note_on_c, 0, 78, 95
3, 300240, Note_off_c, 0, 78, 95
3, 300240, Note_on_c, 0, 76, 95
3, 300480, Note_off_c, 0, 76, 95
3, 300480, Note_on_c, 0, 74, 95
3, 302400, Note_off_c, 0, 74, 95
3, 302400, Note_on_c, 0, 80, 95
3, 303360, Note_off_c, 0, 80, 95
3, 303360, Note_on_c, 0, 76, 95
3, 307200, Note_off_c, 0, 76, 95
3, 307200, End_track
4, 0, Start_track
4, 0, Pitch_bend_c, 1, 8192
4, 0, Control_c, 1, 7, 111
4, 0, Control_c, 1, 10, 63
4, 0, Control_c, 1, 93, 0
4, 0, Control_c, 1, 91, 0
4, 0, Control_c, 1, 95, 0
4, 0, Control_c, 1, 92, 0
4, 0, Control_c, 1, 11, 127
4, 0, Program_c, 1, 16
4, 108000, Note_on_c, 1, 73, 127
4, 108960, Note_off_c, 1, 73, 127
4, 108960, Note_on_c, 1, 71, 95
4, 109440, Note_off_c, 1, 71, 95
4, 109440, Note_on_c, 1, 68, 127
4, 110640, Note_off_c, 1, 68, 127
4, 110640, Note_on_c, 1, 73, 127
4, 110880, Note_off_c, 1, 73, 127
4, 110880, Note_on_c, 1, 71, 95
4, 111120, Note_off_c, 1, 71, 95
4, 111120, Note_on_c, 1, 68, 95
4, 111360, Note_off_c, 1, 68, 95
4, 111360, Note_on_c, 1, 66, 127
4, 112080, Note_off_c, 1, 66, 127
4, 112080, Note_on_c, 1, 64, 95
4, 112320, Note_off_c, 1, 64, 95
4, 112320, Note_on_c, 1, 66, 127
4, 113040, Note_off_c, 1, 66, 127
4, 113040, Note_on_c, 1, 64, 95
4, 113280, Note_off_c, 1, 64, 95
4, 113280, Note_on_c, 1, 66, 127
4, 113520, Note_off_c, 1, 66, 127
4, 113520, Note_on_c, 1, 68, 95
4, 113760, Note_off_c, 1, 68, 95
4, 113760, Note_on_c, 1, 71, 127
4, 114000, Note_off_c, 1, 71, 127
4, 115440, Note_on_c, 1, 73, 127
4, 115680, Note_off_c, 1, 73, 127
4, 115680, Note_on_c, 1, 71, 95
4, 115920, Note_off_c, 1, 71, 95
4, 115920, Note_on_c, 1, 68, 95
4, 116160, Note_off_c, 1, 68, 95
4, 116160, Note_on_c, 1, 66, 127
4, 116280, Note_off_c, 1, 66, 127
4, 116280, Note_on_c, 1, 68, 95
4, 116400, Note_off_c, 1, 68, 95
4, 116520, Note_on_c, 1, 66, 95
4, 116640, Note_off_c, 1, 66, 95
4, 116640, Note_on_c, 1, 64, 127
4, 116880, Note_off_c, 1, 64, 127
4, 117360, Note_on_c, 1, 73, 127
4, 117600, Note_off_c, 1, 73, 127
4, 117600, Note_on_c, 1, 71, 95
4, 117840, Note_off_c, 1, 71, 95
4, 117840, Note_on_c, 1, 68, 95
4, 118080, Note_off_c, 1, 68, 95
4, 118080, Note_on_c, 1, 66, 127
4, 118200, Note_off_c, 1, 66, 127
4, 118200, Note_on_c, 1, 68, 95
4, 118320, Note_off_c, 1, 68, 95
4, 118440, Note_on_c, 1, 66, 95
4, 118560, Note_off_c, 1, 66, 95
4, 118560, Note_on_c, 1, 64, 127
4, 118800, Note_off_c, 1, 64, 127
4, 118800, Note_on_c, 1, 66, 95
4, 119040, Note_off_c, 1, 66, 95
4, 119040, Note_on_c, 1, 68, 127
4, 119520, Note_off_c, 1, 68, 127
4, 119520, Note_on_c, 1, 71, 95
4, 119760, Note_off_c, 1, 71, 95
4, 119760, Note_on_c, 1, 68, 95
4, 120240, Note_off_c, 1, 68, 95
4, 120240, Note_on_c, 1, 71, 95
4, 120480, Note_off_c, 1, 71, 95
4, 120480, Note_on_c, 1, 66, 127
4, 120960, Note_off_c, 1, 66, 127
4, 120960, Note_on_c, 1, 66, 127
4, 121680, Note_off_c, 1, 66, 127
4, 121680, Note_on_c, 1, 64, 95
4, 121920, Note_off_c, 1, 64, 95
4, 121920, Note_on_c, 1, 66, 127
4, 122400, Note_off_c, 1, 66, 127
4, 122400, Note_on_c, 1, 64, 95
4, 122880, Note_off_c, 1, 64, 95
4, 123120, Note_on_c, 1, 73, 127
4, 123360, Note_off_c, 1, 73, 127
4, 123360, Note_on_c, 1, 71, 95
4, 123600, Note_off_c, 1, 71, 95
4, 123600, Note_on_c, 1, 68, 95
4, 123840, Note_off_c, 1, 68, 95
4, 123840, Note_on_c, 1, 66, 127
4, 123960, Note_off_c, 1, 66, 127
4, 123960, Note_on_c, 1, 68, 95
4, 124080, Note_off_c, 1, 68, 95
4, 124200, Note_on_c, 1, 66, 95
4, 124320, Note_off_c, 1, 66, 95
4, 124320, Note_on_c, 1, 64, 127
4, 124560, Note_off_c, 1, 64, 127
4, 124560, Note_on_c, 1, 61, 95
4, 124800, Note_off_c, 1, 61, 95
4, 124800, Note_on_c, 1, 64, 127
4, 125280, Note_off_c, 1, 64, 127
4, 125280, Note_on_c, 1, 66, 95
4, 125520, Note_off_c, 1, 66, 95
4, 125520, Note_on_c, 1, 64, 127
4, 125760, Note_off_c, 1, 64, 127
4, 125760, Note_on_c, 1, 66, 95
4, 126240, Note_off_c, 1, 66, 95
4, 126240, Note_on_c, 1, 64, 127
4, 126480, Note_off_c, 1, 64, 127
4, 126480, Note_on_c, 1, 66, 95
4, 126720, Note_off_c, 1, 66, 95
4, 126720, Note_on_c, 1, 68, 127
4, 126960, Note_off_c, 1, 68, 127
4, 126960, Note_on_c, 1, 64, 95
4, 127200, Note_off_c, 1, 64, 95
4, 127200, Note_on_c, 1, 66, 95
4, 128160, Note_off_c, 1, 66, 95
4, 128160, Note_on_c, 1, 66, 127
4, 128400, Note_off_c, 1, 66, 127
4, 128400, Note_on_c, 1, 66, 95
4, 128640, Note_off_c, 1, 66, 95
4, 128640, Note_on_c, 1, 66, 95
4, 128880, Note_off_c, 1, 66, 95
4, 128880, Note_on_c, 1, 64, 127
4, 129120, Note_off_c, 1, 64, 127
4, 129120, Note_on_c, 1, 64, 95
4, 129360, Note_off_c, 1, 64, 95
4, 129360, Note_on_c, 1, 64, 127
4, 129600, Note_off_c, 1, 64, 127
4, 129600, Note_on_c, 1, 64, 95
4, 129840, Note_off_c, 1, 64, 95
4, 129840, Note_on_c, 1, 61, 127
4, 130080, Note_off_c, 1, 61, 127
4, 130080, Note_on_c, 1, 61, 95
4, 130320, Note_off_c, 1, 61, 95
4, 130320, Note_on_c, 1, 61, 95
4, 130560, Note_off_c, 1, 61, 95
4, 130560, Note_on_c, 1, 61, 95
4, 130800, Note_off_c, 1, 61, 95
4, 130800, Note_on_c, 1, 64, 95
4, 131040, Note_off_c, 1, 64, 95
4, 131040, Note_on_c, 1, 61, 95
4, 131760, Note_off_c, 1, 61, 95
4, 131760, Note_on_c, 1, 61, 127
4, 132240, Note_off_c, 1, 61, 127
4, 132240, Note_on_c, 1, 59, 95
4, 132480, Note_off_c, 1, 59, 95
4, 132480, Note_on_c, 1, 61, 95
4, 132720, Note_off_c, 1, 61, 95
4, 132720, Note_on_c, 1, 64, 127
4, 132840, Note_off_c, 1, 64, 127
4, 132840, Note_on_c, 1, 61, 95
4, 132960, Note_off_c, 1, 61, 95
4, 132960, Note_on_c, 1, 59, 95
4, 133200, Note_off_c, 1, 59, 95
4, 133200, Note_on_c, 1, 61, 95
4, 133440, Note_off_c, 1, 61, 95
4, 133440, Note_on_c, 1, 59, 95
4, 133680, Note_off_c, 1, 59, 95
4, 133680, Note_on_c, 1, 61, 127
4, 133920, Note_off_c, 1, 61, 127
4, 133920, Note_on_c, 1, 61, 95
4, 134160, Note_off_c, 1, 61, 95
4, 134160, Note_on_c, 1, 59, 95
4, 134400, Note_off_c, 1, 59, 95
4, 134400, Note_on_c, 1, 64, 127
4, 134880, Note_off_c, 1, 64, 127
4, 134880, Note_on_c, 1, 64, 95
4, 135120, Note_off_c, 1, 64, 95
4, 135120, Note_on_c, 1, 61, 95
4, 135360, Note_off_c, 1, 61, 95
4, 135360, Note_on_c, 1, 64, 127
4, 135600, Note_off_c, 1, 64, 127
4, 135600, Note_on_c, 1, 61, 95
4, 135840, Note_off_c, 1, 61, 95
4, 135840, Note_on_c, 1, 64, 95
4, 136080, Note_off_c, 1, 64, 95
4, 136080, Note_on_c, 1, 61, 95
4, 136320, Note_off_c, 1, 61, 95
4, 136320, Note_on_c, 1, 66, 127
4, 136560, Note_off_c, 1, 66, 127
4, 136560, Note_on_c, 1, 64, 95
4, 138240, Note_off_c, 1, 64, 95
4, 153600, Note_on_c, 1, 67, 95
4, 153840, Note_off_c, 1, 67, 95
4, 153840, Note_on_c, 1, 72, 95
4, 154080, Note_off_c, 1, 72, 95
4, 154080, Note_on_c, 1, 67, 95
4, 154320, Note_off_c, 1, 67, 95
4, 154320, Note_on_c, 1, 65, 95
4, 154560, Note_off_c, 1, 65, 95
4, 154560, Note_on_c, 1, 64, 95
4, 154800, Note_off_c, 1, 64, 95
4, 154800, Note_on_c, 1, 60, 95
4, 155040, Note_off_c, 1, 60, 95
4, 155040, Note_on_c, 1, 67, 95
4, 155280, Note_off_c, 1, 67, 95
4, 155280, Note_on_c, 1, 64, 95
4, 155520, Note_off_c, 1, 64, 95
4, 155520, Note_on_c, 1, 66, 95
4, 155760, Note_off_c, 1, 66, 95
4, 155760, Note_on_c, 1, 62, 95
4, 156000, Note_off_c, 1, 62, 95
4, 156000, Note_on_c, 1, 69, 95
4, 156240, Note_off_c, 1, 69, 95
4, 156240, Note_on_c, 1, 66, 95
4, 156480, Note_off_c, 1, 66, 95
4, 156480, Note_on_c, 1, 74, 95
4, 156720, Note_off_c, 1, 74, 95
4, 156720, Note_on_c, 1, 69, 95
4, 156960, Note_off_c, 1, 69, 95
4, 156960, Note_on_c, 1, 78, 95
4, 157200, Note_off_c, 1, 78, 95
4, 157200, Note_on_c, 1, 81, 95
4, 157440, Note_off_c, 1, 81, 95
4, 157440, Note_on_c, 1, 79, 95
4, 157680, Note_off_c, 1, 79, 95
4, 157680, Note_on_c, 1, 74, 95
4, 157920, Note_off_c, 1, 74, 95
4, 157920, Note_on_c, 1, 69, 95
4, 158160, Note_off_c, 1, 69, 95
4, 158160, Note_on_c, 1, 65, 95
4, 158400, Note_off_c, 1, 65, 95
4, 158400, Note_on_c, 1, 64, 95
4, 158640, Note_off_c, 1, 64, 95
4, 158640, Note_on_c, 1, 65, 95
4, 158880, Note_off_c, 1, 65, 95
4, 158880, Note_on_c, 1, 69, 95
4, 159120, Note_off_c, 1, 69, 95
4, 159120, Note_on_c, 1, 74, 95
4, 159360, Note_off_c, 1, 74, 95
4, 159360, Note_on_c, 1, 77, 95
4, 159600, Note_off_c, 1, 77, 95
4, 159600, Note_on_c, 1, 72, 95
4, 159840, Note_off_c, 1, 72, 95
4, 159840, Note_on_c, 1, 67, 95
4, 160080, Note_off_c, 1, 67, 95
4, 160080, Note_on_c, 1, 63, 95
4, 160320, Note_off_c, 1, 63, 95
4, 160320, Note_on_c, 1, 62, 95
4, 160560, Note_off_c, 1, 62, 95
4, 160560, Note_on_c, 1, 63, 95
4, 160800, Note_off_c, 1, 63, 95
4, 160800, Note_on_c, 1, 70, 95
4, 161040, Note_off_c, 1, 70, 95
4, 161040, Note_on_c, 1, 75, 95
4, 161280, Note_off_c, 1, 75, 95
4, 161520, Note_on_c, 1, 74, 95
4, 161760, Note_off_c, 1, 74, 95
4, 161760, Note_on_c, 1, 77, 95
4, 162000, Note_off_c, 1, 77, 95
4, 162000, Note_on_c, 1, 75, 95
4, 162240, Note_off_c, 1, 75, 95
4, 162240, Note_on_c, 1, 79, 95
4, 162480, Note_off_c, 1, 79, 95
4, 162480, Note_on_c, 1, 77, 95
4, 162720, Note_off_c, 1, 77, 95
4, 162720, Note_on_c, 1, 79, 95
4, 162960, Note_off_c, 1, 79, 95
4, 162960, Note_on_c, 1, 80, 95
4, 163200, Note_off_c, 1, 80, 95
4, 163200, Note_on_c, 1, 79, 95
4, 163440, Note_off_c, 1, 79, 95
4, 163440, Note_on_c, 1, 77, 95
4, 163680, Note_off_c, 1, 77, 95
4, 163680, Note_on_c, 1, 72, 95
4, 163920, Note_off_c, 1, 72, 95
4, 163920, Note_on_c, 1, 77, 95
4, 164160, Note_off_c, 1, 77, 95
4, 164160, Note_on_c, 1, 74, 95
4, 164400, Note_off_c, 1, 74, 95
4, 164400, Note_on_c, 1, 69, 95
4, 164640, Note_off_c, 1, 69, 95
4, 164640, Note_on_c, 1, 65, 95
4, 164880, Note_off_c, 1, 65, 95
4, 164880, Note_on_c, 1, 72, 95
4, 165120, Note_off_c, 1, 72, 95
4, 165120, Note_on_c, 1, 67, 127
4, 165120, Note_on_c, 1, 64, 127
4, 168960, Note_off_c, 1, 67, 127
4, 168960, Note_off_c, 1, 64, 127
4, 168960, Note_on_c, 1, 67, 127
4, 168960, Note_on_c, 1, 64, 127
4, 169440, Note_off_c, 1, 67, 127
4, 169440, Note_off_c, 1, 64, 127
4, 169440, Note_on_c, 1, 67, 127
4, 169440, Note_on_c, 1, 64, 127
4, 169920, Note_off_c, 1, 67, 127
4, 169920, Note_off_c, 1, 64, 127
4, 169920, Note_on_c, 1, 67, 127
4, 169920, Note_on_c, 1, 64, 127
4, 170400, Note_off_c, 1, 67, 127
4, 170400, Note_off_c, 1, 64, 127
4, 170400, Note_on_c, 1, 67, 127
4, 170400, Note_on_c, 1, 64, 127
4, 170880, Note_off_c, 1, 67, 127
4, 170880, Note_off_c, 1, 64, 127
4, 203520, Note_on_c, 1, 64, 95
4, 203760, Note_off_c, 1, 64, 95
4, 203760, Note_on_c, 1, 69, 95
4, 204000, Note_off_c, 1, 69, 95
4, 204000, Note_on_c, 1, 64, 95
4, 204240, Note_off_c, 1, 64, 95
4, 204240, Note_on_c, 1, 62, 95
4, 204480, Note_off_c, 1, 62, 95
4, 204480, Note_on_c, 1, 61, 95
4, 204720, Note_off_c, 1, 61, 95
4, 204720, Note_on_c, 1, 57, 95
4, 204960, Note_off_c, 1, 57, 95
4, 204960, Note_on_c, 1, 64, 95
4, 205200, Note_off_c, 1, 64, 95
4, 205200, Note_on_c, 1, 61, 95
4, 205440, Note_off_c, 1, 61, 95
4, 205440, Note_on_c, 1, 63, 95
4, 205680, Note_off_c, 1, 63, 95
4, 205680, Note_on_c, 1, 59, 95
4, 205920, Note_off_c, 1, 59, 95
4, 205920, Note_on_c, 1, 66, 95
4, 206160, Note_off_c, 1, 66, 95
4, 206160, Note_on_c, 1, 63, 95
4, 206400, Note_off_c, 1, 63, 95
4, 206400, Note_on_c, 1, 71, 95
4, 206640, Note_off_c, 1, 71, 95
4, 206640, Note_on_c, 1, 66, 95
4, 206880, Note_off_c, 1, 66, 95
4, 206880, Note_on_c, 1, 75, 95
4, 207120, Note_off_c, 1, 75, 95
4, 207120, Note_on_c, 1, 78, 95
4, 207360, Note_off_c, 1, 78, 95
4, 207360, Note_on_c, 1, 76, 95
4, 207600, Note_off_c, 1, 76, 95
4, 207600, Note_on_c, 1, 83, 95
4, 207840, Note_off_c, 1, 83, 95
4, 207840, Note_on_c, 1, 78, 95
4, 208080, Note_off_c, 1, 78, 95
4, 208080, Note_on_c, 1, 74, 95
4, 208320, Note_off_c, 1, 74, 95
4, 208320, Note_on_c, 1, 73, 95
4, 208560, Note_off_c, 1, 73, 95
4, 208560, Note_on_c, 1, 74, 95
4, 208800, Note_off_c, 1, 74, 95
4, 208800, Note_on_c, 1, 78, 95
4, 209040, Note_off_c, 1, 78, 95
4, 209040, Note_on_c, 1, 83, 95
4, 209280, Note_off_c, 1, 83, 95
4, 209280, Note_on_c, 1, 74, 95
4, 209520, Note_off_c, 1, 74, 95
4, 209520, Note_on_c, 1, 79, 95
4, 209760, Note_off_c, 1, 79, 95
4, 209760, Note_on_c, 1, 76, 95
4, 210000, Note_off_c, 1, 76, 95
4, 210000, Note_on_c, 1, 72, 95
4, 210240, Note_off_c, 1, 72, 95
4, 210240, Note_on_c, 1, 71, 95
4, 210480, Note_off_c, 1, 71, 95
4, 210480, Note_on_c, 1, 72, 95
4, 210720, Note_off_c, 1, 72, 95
4, 210720, Note_on_c, 1, 79, 95
4, 210960, Note_off_c, 1, 79, 95
4, 210960, Note_on_c, 1, 84, 95
4, 211200, Note_off_c, 1, 84, 95
4, 211200, Note_on_c, 1, 71, 95
4, 211440, Note_off_c, 1, 71, 95
4, 211440, Note_on_c, 1, 69, 95
4, 211680, Note_off_c, 1, 69, 95
4, 211680, Note_on_c, 1, 72, 95
4, 211920, Note_off_c, 1, 72, 95
4, 211920, Note_on_c, 1, 71, 95
4, 212160, Note_off_c, 1, 71, 95
4, 212160, Note_on_c, 1, 74, 95
4, 212400, Note_off_c, 1, 74, 95
4, 212400, Note_on_c, 1, 72, 95
4, 212640, Note_off_c, 1, 72, 95
4, 212640, Note_on_c, 1, 76, 95
4, 212880, Note_off_c, 1, 76, 95
4, 212880, Note_on_c, 1, 77, 95
4, 213120, Note_off_c, 1, 77, 95
4, 213120, Note_on_c, 1, 76, 95
4, 213360, Note_off_c, 1, 76, 95
4, 213360, Note_on_c, 1, 74, 95
4, 213600, Note_off_c, 1, 74, 95
4, 213600, Note_on_c, 1, 69, 95
4, 213840, Note_off_c, 1, 69, 95
4, 213840, Note_on_c, 1, 74, 95
4, 214080, Note_off_c, 1, 74, 95
4, 214080, Note_on_c, 1, 71, 95
4, 214320, Note_off_c, 1, 71, 95
4, 214320, Note_on_c, 1, 78, 95
4, 214560, Note_off_c, 1, 78, 95
4, 214560, Note_on_c, 1, 74, 95
4, 214800, Note_off_c, 1, 74, 95
4, 214800, Note_on_c, 1, 81, 95
4, 215040, Note_off_c, 1, 81, 95
4, 215040, Note_on_c, 1, 76, 95
4, 218880, Note_off_c, 1, 76, 95
4, 218880, Note_on_c, 1, 76, 95
4, 219000, Note_off_c, 1, 76, 95
4, 219360, Note_on_c, 1, 76, 95
4, 219480, Note_off_c, 1, 76, 95
4, 219840, Note_on_c, 1, 76, 95
4, 219960, Note_off_c, 1, 76, 95
4, 220320, Note_on_c, 1, 76, 95
4, 220440, Note_off_c, 1, 76, 95
4, 220800, Note_on_c, 1, 76, 95
4, 220920, Note_off_c, 1, 76, 95
4, 221280, Note_on_c, 1, 76, 95
4, 221400, Note_off_c, 1, 76, 95
4, 221760, Note_on_c, 1, 76, 95
4, 221880, Note_off_c, 1, 76, 95
4, 222240, Note_on_c, 1, 76, 95
4, 222360, Note_off_c, 1, 76, 95
4, 266880, Note_on_c, 1, 69, 95
4, 267360, Note_off_c, 1, 69, 95
4, 267840, Note_on_c, 1, 68, 95
4, 268320, Note_off_c, 1, 68, 95
4, 268800, Note_on_c, 1, 68, 95
4, 269280, Note_off_c, 1, 68, 95
4, 269280, Note_on_c, 1, 69, 95
4, 269520, Note_off_c, 1, 69, 95
4, 269520, Note_on_c, 1, 68, 95
4, 269760, Note_off_c, 1, 68, 95
4, 269760, Note_on_c, 1, 66, 95
4, 271680, Note_off_c, 1, 66, 95
4, 271680, Note_on_c, 1, 71, 95
4, 272640, Note_off_c, 1, 71, 95
4, 272640, Note_on_c, 1, 68, 95
4, 276480, Note_off_c, 1, 68, 95
4, 282240, Note_on_c, 1, 69, 95
4, 282720, Note_off_c, 1, 69, 95
4, 283200, Note_on_c, 1, 68, 95
4, 283680, Note_off_c, 1, 68, 95
4, 284160, Note_on_c, 1, 68, 95
4, 284640, Note_off_c, 1, 68, 95
4, 284640, Note_on_c, 1, 69, 95
4, 284880, Note_off_c, 1, 69, 95
4, 284880, Note_on_c, 1, 68, 95
4, 285120, Note_off_c, 1, 68, 95
4, 285120, Note_on_c, 1, 66, 95
4, 287040, Note_off_c, 1, 66, 95
4, 287040, Note_on_c, 1, 71, 95
4, 288000, Note_off_c, 1, 71, 95
4, 288000, Note_on_c, 1, 68, 95
4, 291840, Note_off_c, 1, 68, 95
4, 297600, Note_on_c, 1, 69, 95
4, 298080, Note_off_c, 1, 69, 95
4, 298560, Note_on_c, 1, 68, 95
4, 299040, Note_off_c, 1, 68, 95
4, 299520, Note_on_c, 1, 68, 95
4, 300000, Note_off_c, 1, 68, 95
4, 300000, Note_on_c, 1, 69, 95
4, 300240, Note_off_c, 1, 69, 95
4, 300240, Note_on_c, 1, 68, 95
4, 300480, Note_off_c, 1, 68, 95
4, 300480, Note_on_c, 1, 66, 95
4, 302400, Note_off_c, 1, 66, 95
4, 302400, Note_on_c, 1, 71, 95
4, 303360, Note_off_c, 1, 71, 95
4, 303360, Note_on_c, 1, 68, 95
4, 307200, Note_off_c, 1, 68, 95
4, 307200, End_track
5, 0, Start_track
5, 0, Pitch_bend_c, 2, 8192
5, 0, Control_c, 2, 7, 103
5, 0, Control_c, 2, 10, 63
5, 0, Control_c, 2, 93, 0
5, 0, Control_c, 2, 91, 0
5, 0, Control_c, 2, 95, 0
5, 0, Control_c, 2, 92, 0
5, 0, Control_c, 2, 11, 127
5, 0, Program_c, 2, 32
5, 7680, Note_on_c, 2, 35, 111
5, 7920, Note_off_c, 2, 35, 111
5, 7920, Note_on_c, 2, 42, 111
5, 8160, Note_off_c, 2, 42, 111
5, 8160, Note_on_c, 2, 47, 111
5, 8400, Note_off_c, 2, 47, 111
5, 8400, Note_on_c, 2, 42, 111
5, 8640, Note_off_c, 2, 42, 111
5, 8640, Note_on_c, 2, 35, 111
5, 9600, Note_off_c, 2, 35, 111
5, 9600, Note_on_c, 2, 35, 111
5, 9840, Note_off_c, 2, 35, 111
5, 9840, Note_on_c, 2, 42, 111
5, 10080, Note_off_c, 2, 42, 111
5, 10080, Note_on_c, 2, 47, 111
5, 10320, Note_off_c, 2, 47, 111
5, 10320, Note_on_c, 2, 42, 111
5, 10560, Note_off_c, 2, 42, 111
5, 10560, Note_on_c, 2, 47, 111
5, 11520, Note_off_c, 2, 47, 111
5, 11520, Note_on_c, 2, 35, 111
5, 11760, Note_off_c, 2, 35, 111
5, 11760, Note_on_c, 2, 42, 111
5, 12000, Note_off_c, 2, 42, 111
5, 12000, Note_on_c, 2, 47, 111
5, 12240, Note_off_c, 2, 47, 111
5, 12240, Note_on_c, 2, 42, 111
5, 12480, Note_off_c, 2, 42, 111
5, 12480, Note_on_c, 2, 47, 111
5, 13440, Note_off_c, 2, 47, 111
5, 13440, Note_on_c, 2, 42, 111
5, 14400, Note_off_c, 2, 42, 111
5, 14400, Note_on_c, 2, 40, 111
5, 15360, Note_off_c, 2, 40, 111
5, 15360, Note_on_c, 2, 35, 111
5, 15600, Note_off_c, 2, 35, 111
5, 15600, Note_on_c, 2, 42, 111
5, 15840, Note_off_c, 2, 42, 111
5, 15840, Note_on_c, 2, 47, 111
5, 16080, Note_off_c, 2, 47, 111
5, 16080, Note_on_c, 2, 42, 111
5, 16320, Note_off_c, 2, 42, 111
5, 16320, Note_on_c, 2, 35, 111
5, 17280, Note_off_c, 2, 35, 111
5, 17280, Note_on_c, 2, 35, 111
5, 17520, Note_off_c, 2, 35, 111
5, 17520, Note_on_c, 2, 42, 111
5, 17760, Note_off_c, 2, 42, 111
5, 17760, Note_on_c, 2, 47, 111
5, 18000, Note_off_c, 2, 47, 111
5, 18000, Note_on_c, 2, 42, 111
5, 18240, Note_off_c, 2, 42, 111
5, 18240, Note_on_c, 2, 47, 111
5, 19200, Note_off_c, 2, 47, 111
5, 19200, Note_on_c, 2, 35, 111
5, 19440, Note_off_c, 2, 35, 111
5, 19440, Note_on_c, 2, 42, 111
5, 19680, Note_off_c, 2, 42, 111
5, 19680, Note_on_c, 2, 47, 111
5, 19920, Note_off_c, 2, 47, 111
5, 19920, Note_on_c, 2, 42, 111
5, 20160, Note_off_c, 2, 42, 111
5, 20160, Note_on_c, 2, 47, 111
5, 21120, Note_off_c, 2, 47, 111
5, 21120, Note_on_c, 2, 42, 111
5, 22080, Note_off_c, 2, 42, 111
5, 22080, Note_on_c, 2, 40, 111
5, 23040, Note_off_c, 2, 40, 111
5, 23040, Note_on_c, 2, 35, 111
5, 23280, Note_off_c, 2, 35, 111
5, 23280, Note_on_c, 2, 42, 111
5, 23520, Note_off_c, 2, 42, 111
5, 23520, Note_on_c, 2, 47, 111
5, 23760, Note_off_c, 2, 47, 111
5, 23760, Note_on_c, 2, 42, 111
5, 24000, Note_off_c, 2, 42, 111
5, 24000, Note_on_c, 2, 35, 111
5, 24960, Note_off_c, 2, 35, 111
5, 24960, Note_on_c, 2, 35, 111
5, 25200, Note_off_c, 2, 35, 111
5, 25200, Note_on_c, 2, 42, 111
5, 25440, Note_off_c, 2, 42, 111
5, 25440, Note_on_c, 2, 47, 111
5, 25680, Note_off_c, 2, 47, 111
5, 25680, Note_on_c, 2, 42, 111
5, 25920, Note_off_c, 2, 42, 111
5, 25920, Note_on_c, 2, 47, 111
5, 26880, Note_off_c, 2, 47, 111
5, 26880, Note_on_c, 2, 35, 111
5, 27120, Note_off_c, 2, 35, 111
5, 27120, Note_on_c, 2, 42, 111
5, 27360, Note_off_c, 2, 42, 111
5, 27360, Note_on_c, 2, 47, 111
5, 27600, Note_off_c, 2, 47, 111
5, 27600, Note_on_c, 2, 42, 111
5, 27840, Note_off_c, 2, 42, 111
5, 27840, Note_on_c, 2, 47, 111
5, 28800, Note_off_c, 2, 47, 111
5, 28800, Note_on_c, 2, 42, 111
5, 29760, Note_off_c, 2, 42, 111
5, 29760, Note_on_c, 2, 40, 111
5, 30720, Note_off_c, 2, 40, 111
5, 30720, Note_on_c, 2, 35, 111
5, 30960, Note_off_c, 2, 35, 111
5, 30960, Note_on_c, 2, 42, 111
5, 31200, Note_off_c, 2, 42, 111
5, 31200, Note_on_c, 2, 47, 111
5, 31440, Note_off_c, 2, 47, 111
5, 31440, Note_on_c, 2, 42, 111
5, 31680, Note_off_c, 2, 42, 111
5, 31680, Note_on_c, 2, 35, 111
5, 32640, Note_off_c, 2, 35, 111
5, 32640, Note_on_c, 2, 35, 111
5, 32880, Note_off_c, 2, 35, 111
5, 32880, Note_on_c, 2, 42, 111
5, 33120, Note_off_c, 2, 42, 111
5, 33120, Note_on_c, 2, 47, 111
5, 33360, Note_off_c, 2, 47, 111
5, 33360, Note_on_c, 2, 42, 111
5, 33600, Note_off_c, 2, 42, 111
5, 33600, Note_on_c, 2, 47, 111
5, 34560, Note_off_c, 2, 47, 111
5, 34560, Note_on_c, 2, 35, 111
5, 34800, Note_off_c, 2, 35, 111
5, 34800, Note_on_c, 2, 42, 111
5, 35040, Note_off_c, 2, 42, 111
5, 35040, Note_on_c, 2, 47, 111
5, 35280, Note_off_c, 2, 47, 111
5, 35280, Note_on_c, 2, 42, 111
5, 35520, Note_off_c, 2, 42, 111
5, 35520, Note_on_c, 2, 47, 111
5, 36480, Note_off_c, 2, 47, 111
5, 36480, Note_on_c, 2, 42, 111
5, 37440, Note_off_c, 2, 42, 111
5, 37440, Note_on_c, 2, 40, 111
5, 38400, Note_off_c, 2, 40, 111
5, 38400, Note_on_c, 2, 35, 111
5, 38640, Note_off_c, 2, 35, 111
5, 38640, Note_on_c, 2, 42, 111
5, 38880, Note_off_c, 2, 42, 111
5, 38880, Note_on_c, 2, 35, 111
5, 39120, Note_off_c, 2, 35, 111
5, 39120, Note_on_c, 2, 35, 111
5, 39360, Note_off_c, 2, 35, 111
5, 39840, Note_on_c, 2, 42, 111
5, 40320, Note_off_c, 2, 42, 111
5, 40320, Note_on_c, 2, 35, 111
5, 40800, Note_off_c, 2, 35, 111
5, 41040, Note_on_c, 2, 35, 111
5, 41280, Note_off_c, 2, 35, 111
5, 41280, Note_on_c, 2, 35, 111
5, 41760, Note_off_c, 2, 35, 111
5, 41760, Note_on_c, 2, 42, 111
5, 42240, Note_off_c, 2, 42, 111
5, 42240, Note_on_c, 2, 33, 111
5, 42720, Note_off_c, 2, 33, 111
5, 42960, Note_on_c, 2, 33, 111
5, 43200, Note_off_c, 2, 33, 111
5, 44640, Note_on_c, 2, 40, 111
5, 44880, Note_off_c, 2, 40, 111
5, 44880, Note_on_c, 2, 40, 111
5, 45120, Note_off_c, 2, 40, 111
5, 45120, Note_on_c, 2, 42, 111
5, 45360, Note_off_c, 2, 42, 111
5, 45360, Note_on_c, 2, 40, 111
5, 45600, Note_off_c, 2, 40, 111
5, 45600, Note_on_c, 2, 37, 111
5, 46080, Note_off_c, 2, 37, 111
5, 46080, Note_on_c, 2, 36, 111
5, 46560, Note_off_c, 2, 36, 111
5, 46560, Note_on_c, 2, 40, 111
5, 47040, Note_off_c, 2, 40, 111
5, 48000, Note_on_c, 2, 38, 111
5, 49920, Note_off_c, 2, 38, 111
5, 49920, Note_on_c, 2, 33, 111
5, 50880, Note_off_c, 2, 33, 111
5, 50880, Note_on_c, 2, 40, 111
5, 51840, Note_off_c, 2, 40, 111
5, 51840, Note_on_c, 2, 42, 111
5, 52320, Note_off_c, 2, 42, 111
5, 52320, Note_on_c, 2, 40, 111
5, 52800, Note_off_c, 2, 40, 111
5, 52800, Note_on_c, 2, 40, 111
5, 53760, Note_off_c, 2, 40, 111
5, 53760, Note_on_c, 2, 35, 111
5, 54000, Note_off_c, 2, 35, 111
5, 54000, Note_on_c, 2, 42, 111
5, 54240, Note_off_c, 2, 42, 111
5, 54240, Note_on_c, 2, 35, 111
5, 54480, Note_off_c, 2, 35, 111
5, 54480, Note_on_c, 2, 35, 111
5, 54720, Note_off_c, 2, 35, 111
5, 55200, Note_on_c, 2, 42, 111
5, 55680, Note_off_c, 2, 42, 111
5, 55680, Note_on_c, 2, 35, 111
5, 56160, Note_off_c, 2, 35, 111
5, 56400, Note_on_c, 2, 35, 111
5, 56640, Note_off_c, 2, 35, 111
5, 56640, Note_on_c, 2, 35, 111
5, 57120, Note_off_c, 2, 35, 111
5, 57120, Note_on_c, 2, 42, 111
5, 57600, Note_off_c, 2, 42, 111
5, 57600, Note_on_c, 2, 33, 111
5, 58080, Note_off_c, 2, 33, 111
5, 58320, Note_on_c, 2, 33, 111
5, 58560, Note_off_c, 2, 33, 111
5, 60000, Note_on_c, 2, 40, 111
5, 60240, Note_off_c, 2, 40, 111
5, 60240, Note_on_c, 2, 40, 111
5, 60480, Note_off_c, 2, 40, 111
5, 60480, Note_on_c, 2, 42, 111
5, 60720, Note_off_c, 2, 42, 111
5, 60720, Note_on_c, 2, 40, 111
5, 60960, Note_off_c, 2, 40, 111
5, 60960, Note_on_c, 2, 37, 111
5, 61440, Note_off_c, 2, 37, 111
5, 61440, Note_on_c, 2, 36, 111
5, 61920, Note_off_c, 2, 36, 111
5, 61920, Note_on_c, 2, 40, 111
5, 62400, Note_off_c, 2, 40, 111
5, 63360, Note_on_c, 2, 38, 111
5, 65280, Note_off_c, 2, 38, 111
5, 65280, Note_on_c, 2, 33, 111
5, 66240, Note_off_c, 2, 33, 111
5, 66240, Note_on_c, 2, 40, 111
5, 67200, Note_off_c, 2, 40, 111
5, 67200, Note_on_c, 2, 42, 111
5, 67680, Note_off_c, 2, 42, 111
5, 67680, Note_on_c, 2, 40, 111
5, 68160, Note_off_c, 2, 40, 111
5, 68160, Note_on_c, 2, 40, 111
5, 69120, Note_off_c, 2, 40, 111
5, 69120, Note_on_c, 2, 47, 111
5, 69360, Note_off_c, 2, 47, 111
5, 69360, Note_on_c, 2, 47, 111
5, 69840, Note_off_c, 2, 47, 111
5, 69840, Note_on_c, 2, 47, 111
5, 70320, Note_off_c, 2, 47, 111
5, 70320, Note_on_c, 2, 47, 111
5, 70560, Note_off_c, 2, 47, 111
5, 70560, Note_on_c, 2, 47, 111
5, 71040, Note_off_c, 2, 47, 111
5, 71280, Note_on_c, 2, 35, 111
5, 71520, Note_off_c, 2, 35, 111
5, 71520, Note_on_c, 2, 35, 111
5, 72000, Note_off_c, 2, 35, 111
5, 72000, Note_on_c, 2, 35, 111
5, 72960, Note_off_c, 2, 35, 111
5, 72960, Note_on_c, 2, 37, 111
5, 73440, Note_off_c, 2, 37, 111
5, 73440, Note_on_c, 2, 40, 111
5, 74400, Note_off_c, 2, 40, 111
5, 74400, Note_on_c, 2, 45, 111
5, 75360, Note_off_c, 2, 45, 111
5, 75360, Note_on_c, 2, 47, 111
5, 76320, Note_off_c, 2, 47, 111
5, 76320, Note_on_c, 2, 49, 111
5, 76800, Note_off_c, 2, 49, 111
5, 76800, Note_on_c, 2, 50, 111
5, 77040, Note_off_c, 2, 50, 111
5, 77040, Note_on_c, 2, 50, 111
5, 77520, Note_off_c, 2, 50, 111
5, 77520, Note_on_c, 2, 50, 111
5, 78000, Note_off_c, 2, 50, 111
5, 78000, Note_on_c, 2, 50, 111
5, 78240, Note_off_c, 2, 50, 111
5, 78240, Note_on_c, 2, 50, 111
5, 78720, Note_off_c, 2, 50, 111
5, 78960, Note_on_c, 2, 38, 111
5, 79200, Note_off_c, 2, 38, 111
5, 79200, Note_on_c, 2, 38, 111
5, 79680, Note_off_c, 2, 38, 111
5, 79680, Note_on_c, 2, 38, 111
5, 80640, Note_off_c, 2, 38, 111
5, 80640, Note_on_c, 2, 40, 111
5, 81120, Note_off_c, 2, 40, 111
5, 81120, Note_on_c, 2, 43, 111
5, 82080, Note_off_c, 2, 43, 111
5, 82080, Note_on_c, 2, 48, 111
5, 83040, Note_off_c, 2, 48, 111
5, 83040, Note_on_c, 2, 50, 111
5, 84000, Note_off_c, 2, 50, 111
5, 84000, Note_on_c, 2, 52, 111
5, 84480, Note_off_c, 2, 52, 111
5, 84480, Note_on_c, 2, 53, 111
5, 84720, Note_off_c, 2, 53, 111
5, 84720, Note_on_c, 2, 53, 111
5, 85200, Note_off_c, 2, 53, 111
5, 85200, Note_on_c, 2, 53, 111
5, 85680, Note_off_c, 2, 53, 111
5, 85680, Note_on_c, 2, 53, 111
5, 85920, Note_off_c, 2, 53, 111
5, 85920, Note_on_c, 2, 53, 111
5, 86400, Note_off_c, 2, 53, 111
5, 86640, Note_on_c, 2, 41, 111
5, 86880, Note_off_c, 2, 41, 111
5, 86880, Note_on_c, 2, 41, 111
5, 87360, Note_off_c, 2, 41, 111
5, 87360, Note_on_c, 2, 41, 111
5, 88320, Note_off_c, 2, 41, 111
5, 88320, Note_on_c, 2, 43, 111
5, 88800, Note_off_c, 2, 43, 111
5, 88800, Note_on_c, 2, 46, 111
5, 89760, Note_off_c, 2, 46, 111
5, 89760, Note_on_c, 2, 51, 111
5, 90720, Note_off_c, 2, 51, 111
5, 90720, Note_on_c, 2, 53, 111
5, 91680, Note_off_c, 2, 53, 111
5, 91680, Note_on_c, 2, 52, 111
5, 92160, Note_off_c, 2, 52, 111
5, 92160, Note_on_c, 2, 53, 111
5, 94080, Note_off_c, 2, 53, 111
5, 94080, Note_on_c, 2, 37, 111
5, 94800, Note_off_c, 2, 37, 111
5, 94800, Note_on_c, 2, 37, 111
5, 95280, Note_off_c, 2, 37, 111
5, 95280, Note_on_c, 2, 37, 111
5, 95520, Note_off_c, 2, 37, 111
5, 95520, Note_on_c, 2, 37, 111
5, 96000, Note_off_c, 2, 37, 111
5, 96000, Note_on_c, 2, 53, 111
5, 97920, Note_off_c, 2, 53, 111
5, 97920, Note_on_c, 2, 37, 111
5, 98640, Note_off_c, 2, 37, 111
5, 98640, Note_on_c, 2, 37, 111
5, 99120, Note_off_c, 2, 37, 111
5, 99120, Note_on_c, 2, 37, 111
5, 99360, Note_off_c, 2, 37, 111
5, 99360, Note_on_c, 2, 37, 111
5, 99840, Note_off_c, 2, 37, 111
5, 99840, Note_on_c, 2, 51, 111
5, 101760, Note_off_c, 2, 51, 111
5, 101760, Note_on_c, 2, 35, 111
5, 102000, Note_off_c, 2, 35, 111
5, 102000, Note_on_c, 2, 35, 111
5, 102480, Note_off_c, 2, 35, 111
5, 102480, Note_on_c, 2, 35, 111
5, 102960, Note_off_c, 2, 35, 111
5, 102960, Note_on_c, 2, 35, 111
5, 103200, Note_off_c, 2, 35, 111
5, 103200, Note_on_c, 2, 35, 111
5, 103680, Note_off_c, 2, 35, 111
5, 103680, Note_on_c, 2, 51, 111
5, 105600, Note_off_c, 2, 51, 111
5, 105600, Note_on_c, 2, 35, 111
5, 105840, Note_off_c, 2, 35, 111
5, 105840, Note_on_c, 2, 35, 111
5, 106320, Note_off_c, 2, 35, 111
5, 106320, Note_on_c, 2, 35, 111
5, 106800, Note_off_c, 2, 35, 111
5, 106800, Note_on_c, 2, 35, 111
5, 107040, Note_off_c, 2, 35, 111
5, 107040, Note_on_c, 2, 35, 111
5, 107520, Note_off_c, 2, 35, 111
5, 107520, Note_on_c, 2, 40, 111
5, 108000, Note_off_c, 2, 40, 111
5, 108000, Note_on_c, 2, 40, 111
5, 108240, Note_off_c, 2, 40, 111
5, 108240, Note_on_c, 2, 40, 111
5, 108480, Note_off_c, 2, 40, 111
5, 108480, Note_on_c, 2, 40, 111
5, 108960, Note_off_c, 2, 40, 111
5, 109200, Note_on_c, 2, 40, 111
5, 109440, Note_off_c, 2, 40, 111
5, 109440, Note_on_c, 2, 44, 111
5, 109680, Note_off_c, 2, 44, 111
5, 109680, Note_on_c, 2, 47, 111
5, 110160, Note_off_c, 2, 47, 111
5, 110160, Note_on_c, 2, 49, 111
5, 110640, Note_off_c, 2, 49, 111
5, 110640, Note_on_c, 2, 52, 111
5, 111120, Note_off_c, 2, 52, 111
5, 111120, Note_on_c, 2, 53, 111
5, 111360, Note_off_c, 2, 53, 111
5, 111360, Note_on_c, 2, 54, 111
5, 111840, Note_off_c, 2, 54, 111
5, 111840, Note_on_c, 2, 54, 111
5, 112320, Note_off_c, 2, 54, 111
5, 112320, Note_on_c, 2, 52, 111
5, 112560, Note_off_c, 2, 52, 111
5, 112560, Note_on_c, 2, 49, 111
5, 112800, Note_off_c, 2, 49, 111
5, 112800, Note_on_c, 2, 42, 111
5, 113040, Note_off_c, 2, 42, 111
5, 113040, Note_on_c, 2, 49, 111
5, 113520, Note_off_c, 2, 49, 111
5, 113520, Note_on_c, 2, 48, 111
5, 114000, Note_off_c, 2, 48, 111
5, 114000, Note_on_c, 2, 47, 111
5, 114480, Note_off_c, 2, 47, 111
5, 114480, Note_on_c, 2, 47, 111
5, 114720, Note_off_c, 2, 47, 111
5, 115200, Note_on_c, 2, 40, 111
5, 115680, Note_off_c, 2, 40, 111
5, 115680, Note_on_c, 2, 40, 111
5, 115920, Note_off_c, 2, 40, 111
5, 115920, Note_on_c, 2, 40, 111
5, 116160, Note_off_c, 2, 40, 111
5, 116160, Note_on_c, 2, 40, 111
5, 116640, Note_off_c, 2, 40, 111
5, 116880, Note_on_c, 2, 39, 111
5, 117120, Note_off_c, 2, 39, 111
5, 117120, Note_on_c, 2, 44, 111
5, 117360, Note_off_c, 2, 44, 111
5, 117360, Note_on_c, 2, 47, 111
5, 117600, Note_off_c, 2, 47, 111
5, 117600, Note_on_c, 2, 49, 111
5, 117840, Note_off_c, 2, 49, 111
5, 117840, Note_on_c, 2, 52, 111
5, 118320, Note_off_c, 2, 52, 111
5, 118320, Note_on_c, 2, 49, 111
5, 118560, Note_off_c, 2, 49, 111
5, 118560, Note_on_c, 2, 48, 111
5, 118800, Note_off_c, 2, 48, 111
5, 118800, Note_on_c, 2, 47, 111
5, 119040, Note_off_c, 2, 47, 111
5, 119040, Note_on_c, 2, 49, 111
5, 119520, Note_off_c, 2, 49, 111
5, 119520, Note_on_c, 2, 54, 111
5, 120000, Note_off_c, 2, 54, 111
5, 120000, Note_on_c, 2, 54, 111
5, 120240, Note_off_c, 2, 54, 111
5, 120240, Note_on_c, 2, 53, 111
5, 120720, Note_off_c, 2, 53, 111
5, 120720, Note_on_c, 2, 52, 111
5, 121200, Note_off_c, 2, 52, 111
5, 121200, Note_on_c, 2, 49, 111
5, 121680, Note_off_c, 2, 49, 111
5, 121680, Note_on_c, 2, 42, 111
5, 121920, Note_off_c, 2, 42, 111
5, 121920, Note_on_c, 2, 49, 111
5, 122160, Note_off_c, 2, 49, 111
5, 122160, Note_on_c, 2, 42, 111
5, 122400, Note_off_c, 2, 42, 111
5, 122400, Note_on_c, 2, 41, 111
5, 122640, Note_off_c, 2, 41, 111
5, 122640, Note_on_c, 2, 48, 111
5, 122880, Note_off_c, 2, 48, 111
5, 122880, Note_on_c, 2, 40, 111
5, 123360, Note_off_c, 2, 40, 111
5, 123360, Note_on_c, 2, 40, 111
5, 123840, Note_off_c, 2, 40, 111
5, 123840, Note_on_c, 2, 44, 111
5, 124080, Note_off_c, 2, 44, 111
5, 124080, Note_on_c, 2, 32, 111
5, 124560, Note_off_c, 2, 32, 111
5, 124560, Note_on_c, 2, 35, 111
5, 125040, Note_off_c, 2, 35, 111
5, 125040, Note_on_c, 2, 37, 111
5, 125520, Note_off_c, 2, 37, 111
5, 125520, Note_on_c, 2, 38, 111
5, 126000, Note_off_c, 2, 38, 111
5, 126000, Note_on_c, 2, 39, 111
5, 126240, Note_off_c, 2, 39, 111
5, 126240, Note_on_c, 2, 40, 111
5, 126480, Note_off_c, 2, 40, 111
5, 126480, Note_on_c, 2, 41, 111
5, 126720, Note_off_c, 2, 41, 111
5, 126720, Note_on_c, 2, 42, 111
5, 127200, Note_off_c, 2, 42, 111
5, 127200, Note_on_c, 2, 42, 111
5, 127680, Note_off_c, 2, 42, 111
5, 127680, Note_on_c, 2, 44, 111
5, 127920, Note_off_c, 2, 44, 111
5, 127920, Note_on_c, 2, 45, 111
5, 128160, Note_off_c, 2, 45, 111
5, 128160, Note_on_c, 2, 46, 111
5, 128400, Note_off_c, 2, 46, 111
5, 128400, Note_on_c, 2, 47, 111
5, 128880, Note_off_c, 2, 47, 111
5, 128880, Note_on_c, 2, 42, 111
5, 129120, Note_off_c, 2, 42, 111
5, 129120, Note_on_c, 2, 47, 111
5, 129360, Note_off_c, 2, 47, 111
5, 129360, Note_on_c, 2, 47, 111
5, 129840, Note_off_c, 2, 47, 111
5, 129840, Note_on_c, 2, 42, 111
5, 130320, Note_off_c, 2, 42, 111
5, 130320, Note_on_c, 2, 35, 111
5, 130560, Note_off_c, 2, 35, 111
5, 130560, Note_on_c, 2, 40, 111
5, 131040, Note_off_c, 2, 40, 111
5, 131040, Note_on_c, 2, 40, 111
5, 131280, Note_off_c, 2, 40, 111
5, 131280, Note_on_c, 2, 40, 111
5, 131520, Note_off_c, 2, 40, 111
5, 131760, Note_on_c, 2, 46, 111
5, 132000, Note_off_c, 2, 46, 111
5, 132000, Note_on_c, 2, 47, 111
5, 132240, Note_off_c, 2, 47, 111
5, 132240, Note_on_c, 2, 51, 111
5, 132480, Note_off_c, 2, 51, 111
5, 132480, Note_on_c, 2, 52, 111
5, 132720, Note_off_c, 2, 52, 111
5, 132720, Note_on_c, 2, 46, 111
5, 132960, Note_off_c, 2, 46, 111
5, 132960, Note_on_c, 2, 47, 111
5, 133200, Note_off_c, 2, 47, 111
5, 133200, Note_on_c, 2, 39, 111
5, 133440, Note_off_c, 2, 39, 111
5, 133440, Note_on_c, 2, 40, 111
5, 133680, Note_off_c, 2, 40, 111
5, 133680, Note_on_c, 2, 41, 111
5, 133920, Note_off_c, 2, 41, 111
5, 133920, Note_on_c, 2, 41, 111
5, 134160, Note_off_c, 2, 41, 111
5, 134160, Note_on_c, 2, 42, 111
5, 134400, Note_off_c, 2, 42, 111
5, 134640, Note_on_c, 2, 46, 111
5, 135120, Note_off_c, 2, 46, 111
5, 135120, Note_on_c, 2, 47, 111
5, 135360, Note_off_c, 2, 47, 111
5, 135360, Note_on_c, 2, 49, 111
5, 135600, Note_off_c, 2, 49, 111
5, 135600, Note_on_c, 2, 52, 111
5, 135840, Note_off_c, 2, 52, 111
5, 135840, Note_on_c, 2, 49, 111
5, 136080, Note_off_c, 2, 49, 111
5, 136080, Note_on_c, 2, 54, 111
5, 136560, Note_off_c, 2, 54, 111
5, 136560, Note_on_c, 2, 53, 111
5, 137040, Note_off_c, 2, 53, 111
5, 137040, Note_on_c, 2, 52, 111
5, 137520, Note_off_c, 2, 52, 111
5, 137520, Note_on_c, 2, 49, 111
5, 137760, Note_off_c, 2, 49, 111
5, 137760, Note_on_c, 2, 42, 111
5, 138000, Note_off_c, 2, 42, 111
5, 138000, Note_on_c, 2, 40, 111
5, 138240, Note_off_c, 2, 40, 111
5, 138240, Note_on_c, 2, 45, 111
5, 139200, Note_off_c, 2, 45, 111
5, 139440, Note_on_c, 2, 40, 111
5, 139680, Note_off_c, 2, 40, 111
5, 139680, Note_on_c, 2, 40, 111
5, 139920, Note_off_c, 2, 40, 111
5, 139920, Note_on_c, 2, 44, 111
5, 140640, Note_off_c, 2, 44, 111
5, 140640, Note_on_c, 2, 39, 111
5, 140880, Note_off_c, 2, 39, 111
5, 140880, Note_on_c, 2, 51, 111
5, 141360, Note_off_c, 2, 51, 111
5, 141360, Note_on_c, 2, 51, 111
5, 141600, Note_off_c, 2, 51, 111
5, 141600, Note_on_c, 2, 44, 111
5, 141840, Note_off_c, 2, 44, 111
5, 141840, Note_on_c, 2, 45, 111
5, 142080, Note_off_c, 2, 45, 111
5, 142080, Note_on_c, 2, 45, 111
5, 142320, Note_off_c, 2, 45, 111
5, 142320, Note_on_c, 2, 40, 111
5, 142560, Note_off_c, 2, 40, 111
5, 142560, Note_on_c, 2, 45, 111
5, 142800, Note_off_c, 2, 45, 111
5, 142800, Note_on_c, 2, 51, 111
5, 143280, Note_off_c, 2, 51, 111
5, 143280, Note_on_c, 2, 52, 111
5, 143760, Note_off_c, 2, 52, 111
5, 143760, Note_on_c, 2, 45, 111
5, 144000, Note_off_c, 2, 45, 111
5, 144000, Note_on_c, 2, 44, 111
5, 144240, Note_off_c, 2, 44, 111
5, 144240, Note_on_c, 2, 50, 111
5, 144720, Note_off_c, 2, 50, 111
5, 144720, Note_on_c, 2, 51, 111
5, 145200, Note_off_c, 2, 51, 111
5, 145200, Note_on_c, 2, 44, 111
5, 145440, Note_off_c, 2, 44, 111
5, 145440, Note_on_c, 2, 39, 111
5, 145680, Note_off_c, 2, 39, 111
5, 145680, Note_on_c, 2, 32, 111
5, 145920, Note_off_c, 2, 32, 111
5, 145920, Note_on_c, 2, 45, 111
5, 146400, Note_off_c, 2, 45, 111
5, 146400, Note_on_c, 2, 45, 111
5, 146640, Note_off_c, 2, 45, 111
5, 146640, Note_on_c, 2, 45, 111
5, 146880, Note_off_c, 2, 45, 111
5, 147120, Note_on_c, 2, 40, 111
5, 147360, Note_off_c, 2, 40, 111
5, 147360, Note_on_c, 2, 45, 111
5, 147600, Note_off_c, 2, 45, 111
5, 147600, Note_on_c, 2, 40, 111
5, 147840, Note_off_c, 2, 40, 111
5, 147840, Note_on_c, 2, 44, 111
5, 148800, Note_off_c, 2, 44, 111
5, 148800, Note_on_c, 2, 50, 111
5, 149040, Note_off_c, 2, 50, 111
5, 149040, Note_on_c, 2, 51, 111
5, 149280, Note_off_c, 2, 51, 111
5, 149280, Note_on_c, 2, 44, 111
5, 149520, Note_off_c, 2, 44, 111
5, 149520, Note_on_c, 2, 39, 111
5, 149760, Note_off_c, 2, 39, 111
5, 149760, Note_on_c, 2, 45, 111
5, 150960, Note_off_c, 2, 45, 111
5, 150960, Note_on_c, 2, 40, 111
5, 151440, Note_off_c, 2, 40, 111
5, 151440, Note_on_c, 2, 33, 111
5, 151680, Note_off_c, 2, 33, 111
5, 152160, Note_on_c, 2, 50, 111
5, 152400, Note_off_c, 2, 50, 111
5, 152400, Note_on_c, 2, 50, 111
5, 152640, Note_off_c, 2, 50, 111
5, 152640, Note_on_c, 2, 51, 111
5, 152880, Note_off_c, 2, 51, 111
5, 152880, Note_on_c, 2, 51, 111
5, 153120, Note_off_c, 2, 51, 111
5, 153120, Note_on_c, 2, 51, 111
5, 153360, Note_off_c, 2, 51, 111
5, 153360, Note_on_c, 2, 51, 111
5, 153600, Note_off_c, 2, 51, 111
5, 153600, Note_on_c, 2, 48, 111
5, 154080, Note_off_c, 2, 48, 111
5, 154080, Note_on_c, 2, 48, 111
5, 154320, Note_off_c, 2, 48, 111
5, 154320, Note_on_c, 2, 48, 111
5, 154560, Note_off_c, 2, 48, 111
5, 154560, Note_on_c, 2, 48, 111
5, 154800, Note_off_c, 2, 48, 111
5, 154800, Note_on_c, 2, 48, 111
5, 155280, Note_off_c, 2, 48, 111
5, 155280, Note_on_c, 2, 49, 111
5, 155520, Note_off_c, 2, 49, 111
5, 155520, Note_on_c, 2, 50, 111
5, 156000, Note_off_c, 2, 50, 111
5, 156000, Note_on_c, 2, 50, 111
5, 156240, Note_off_c, 2, 50, 111
5, 156240, Note_on_c, 2, 50, 111
5, 156480, Note_off_c, 2, 50, 111
5, 156480, Note_on_c, 2, 50, 111
5, 156720, Note_off_c, 2, 50, 111
5, 156720, Note_on_c, 2, 50, 111
5, 157200, Note_off_c, 2, 50, 111
5, 157200, Note_on_c, 2, 44, 111
5, 157440, Note_off_c, 2, 44, 111
5, 157440, Note_on_c, 2, 46, 111
5, 157920, Note_off_c, 2, 46, 111
5, 157920, Note_on_c, 2, 46, 111
5, 158400, Note_off_c, 2, 46, 111
5, 158400, Note_on_c, 2, 43, 111
5, 158640, Note_off_c, 2, 43, 111
5, 158640, Note_on_c, 2, 44, 111
5, 158880, Note_off_c, 2, 44, 111
5, 158880, Note_on_c, 2, 46, 111
5, 159120, Note_off_c, 2, 46, 111
5, 159120, Note_on_c, 2, 39, 111
5, 159600, Note_off_c, 2, 39, 111
5, 159600, Note_on_c, 2, 39, 111
5, 160080, Note_off_c, 2, 39, 111
5, 160080, Note_on_c, 2, 46, 111
5, 160320, Note_off_c, 2, 46, 111
5, 160320, Note_on_c, 2, 51, 111
5, 160560, Note_off_c, 2, 51, 111
5, 160560, Note_on_c, 2, 51, 111
5, 160800, Note_off_c, 2, 51, 111
5, 160800, Note_on_c, 2, 46, 111
5, 161280, Note_off_c, 2, 46, 111
5, 161280, Note_on_c, 2, 44, 111
5, 161760, Note_off_c, 2, 44, 111
5, 161760, Note_on_c, 2, 44, 111
5, 162240, Note_off_c, 2, 44, 111
5, 162480, Note_on_c, 2, 39, 111
5, 162720, Note_off_c, 2, 39, 111
5, 162720, Note_on_c, 2, 40, 111
5, 162960, Note_off_c, 2, 40, 111
5, 162960, Note_on_c, 2, 41, 111
5, 163200, Note_off_c, 2, 41, 111
5, 163440, Note_on_c, 2, 46, 111
5, 163680, Note_off_c, 2, 46, 111
5, 163680, Note_on_c, 2, 48, 111
5, 163920, Note_off_c, 2, 48, 111
5, 163920, Note_on_c, 2, 53, 111
5, 164400, Note_off_c, 2, 53, 111
5, 164400, Note_on_c, 2, 51, 111
5, 164640, Note_off_c, 2, 51, 111
5, 164640, Note_on_c, 2, 48, 111
5, 165120, Note_off_c, 2, 48, 111
5, 165120, Note_on_c, 2, 31, 111
5, 165600, Note_off_c, 2, 31, 111
5, 165600, Note_on_c, 2, 31, 111
5, 166560, Note_off_c, 2, 31, 111
5, 166560, Note_on_c, 2, 43, 111
5, 167280, Note_off_c, 2, 43, 111
5, 167280, Note_on_c, 2, 43, 111
5, 167760, Note_off_c, 2, 43, 111
5, 167760, Note_on_c, 2, 43, 111
5, 168000, Note_off_c, 2, 43, 111
5, 168000, Note_on_c, 2, 31, 111
5, 168480, Note_off_c, 2, 31, 111
5, 168480, Note_on_c, 2, 43, 111
5, 168960, Note_off_c, 2, 43, 111
5, 168960, Note_on_c, 2, 43, 111
5, 169440, Note_off_c, 2, 43, 111
5, 169440, Note_on_c, 2, 31, 111
5, 169680, Note_off_c, 2, 31, 111
5, 169680, Note_on_c, 2, 43, 111
5, 169920, Note_off_c, 2, 43, 111
5, 169920, Note_on_c, 2, 43, 111
5, 170400, Note_off_c, 2, 43, 111
5, 170400, Note_on_c, 2, 43, 111
5, 170640, Note_off_c, 2, 43, 111
5, 170640, Note_on_c, 2, 43, 111
5, 171360, Note_off_c, 2, 43, 111
5, 171360, Note_on_c, 2, 43, 111
5, 171600, Note_off_c, 2, 43, 111
5, 171600, Note_on_c, 2, 43, 111
5, 171840, Note_off_c, 2, 43, 111
5, 171840, Note_on_c, 2, 31, 111
5, 172320, Note_off_c, 2, 31, 111
5, 172320, Note_on_c, 2, 43, 111
5, 172800, Note_off_c, 2, 43, 111
5, 172800, Note_on_c, 2, 29, 111
5, 173040, Note_off_c, 2, 29, 111
5, 173040, Note_on_c, 2, 33, 111
5, 173520, Note_off_c, 2, 33, 111
5, 173520, Note_on_c, 2, 34, 111
5, 174000, Note_off_c, 2, 34, 111
5, 174000, Note_on_c, 2, 35, 111
5, 174240, Note_off_c, 2, 35, 111
5, 174240, Note_on_c, 2, 36, 111
5, 174480, Note_off_c, 2, 36, 111
5, 174480, Note_on_c, 2, 36, 111
5, 174720, Note_off_c, 2, 36, 111
5, 174720, Note_on_c, 2, 36, 111
5, 174960, Note_off_c, 2, 36, 111
5, 174960, Note_on_c, 2, 40, 111
5, 175440, Note_off_c, 2, 40, 111
5, 175440, Note_on_c, 2, 41, 111
5, 175920, Note_off_c, 2, 41, 111
5, 175920, Note_on_c, 2, 42, 111
5, 176400, Note_off_c, 2, 42, 111
5, 176400, Note_on_c, 2, 43, 111
5, 176640, Note_off_c, 2, 43, 111
5, 176640, Note_on_c, 2, 46, 111
5, 176880, Note_off_c, 2, 46, 111
5, 176880, Note_on_c, 2, 38, 111
5, 177360, Note_off_c, 2, 38, 111
5, 177360, Note_on_c, 2, 39, 111
5, 177840, Note_off_c, 2, 39, 111
5, 177840, Note_on_c, 2, 40, 111
5, 178320, Note_off_c, 2, 40, 111
5, 178320, Note_on_c, 2, 41, 111
5, 178560, Note_off_c, 2, 41, 111
5, 178560, Note_on_c, 2, 46, 111
5, 178800, Note_off_c, 2, 46, 111
5, 178800, Note_on_c, 2, 48, 111
5, 179040, Note_off_c, 2, 48, 111
5, 179040, Note_on_c, 2, 46, 111
5, 179280, Note_off_c, 2, 46, 111
5, 179280, Note_on_c, 2, 38, 111
5, 179520, Note_off_c, 2, 38, 111
5, 179520, Note_on_c, 2, 41, 111
5, 179760, Note_off_c, 2, 41, 111
5, 179760, Note_on_c, 2, 34, 111
5, 180000, Note_off_c, 2, 34, 111
5, 180000, Note_on_c, 2, 41, 111
5, 180240, Note_off_c, 2, 41, 111
5, 180240, Note_on_c, 2, 41, 111
5, 180480, Note_off_c, 2, 41, 111
5, 180480, Note_on_c, 2, 41, 111
5, 180720, Note_off_c, 2, 41, 111
5, 180720, Note_on_c, 2, 29, 111
5, 181200, Note_off_c, 2, 29, 111
5, 181200, Note_on_c, 2, 34, 111
5, 181680, Note_off_c, 2, 34, 111
5, 181680, Note_on_c, 2, 35, 111
5, 182400, Note_off_c, 2, 35, 111
5, 182400, Note_on_c, 2, 36, 111
5, 182640, Note_off_c, 2, 36, 111
5, 182640, Note_on_c, 2, 28, 111
5, 183120, Note_off_c, 2, 28, 111
5, 183120, Note_on_c, 2, 29, 111
5, 183600, Note_off_c, 2, 29, 111
5, 183600, Note_on_c, 2, 30, 111
5, 184080, Note_off_c, 2, 30, 111
5, 184080, Note_on_c, 2, 31, 111
5, 184320, Note_off_c, 2, 31, 111
5, 184320, Note_on_c, 2, 34, 111
5, 184560, Note_off_c, 2, 34, 111
5, 184560, Note_on_c, 2, 38, 111
5, 185040, Note_off_c, 2, 38, 111
5, 185040, Note_on_c, 2, 39, 111
5, 185520, Note_off_c, 2, 39, 111
5, 185520, Note_on_c, 2, 40, 111
5, 186000, Note_off_c, 2, 40, 111
5, 186000, Note_on_c, 2, 41, 111
5, 186240, Note_off_c, 2, 41, 111
5, 186240, Note_on_c, 2, 46, 111
5, 186480, Note_off_c, 2, 46, 111
5, 186480, Note_on_c, 2, 46, 111
5, 186720, Note_off_c, 2, 46, 111
5, 186720, Note_on_c, 2, 44, 111
5, 186960, Note_off_c, 2, 44, 111
5, 186960, Note_on_c, 2, 41, 111
5, 187200, Note_off_c, 2, 41, 111
5, 187200, Note_on_c, 2, 46, 111
5, 187440, Note_off_c, 2, 46, 111
5, 187440, Note_on_c, 2, 44, 111
5, 187680, Note_off_c, 2, 44, 111
5, 187680, Note_on_c, 2, 41, 111
5, 187920, Note_off_c, 2, 41, 111
5, 187920, Note_on_c, 2, 38, 111
5, 188160, Note_off_c, 2, 38, 111
5, 188160, Note_on_c, 2, 41, 111
5, 188640, Note_off_c, 2, 41, 111
5, 188640, Note_on_c, 2, 29, 111
5, 189120, Note_off_c, 2, 29, 111
5, 189120, Note_on_c, 2, 34, 111
5, 189600, Note_off_c, 2, 34, 111
5, 189600, Note_on_c, 2, 35, 111
5, 189840, Note_off_c, 2, 35, 111
5, 189840, Note_on_c, 2, 35, 111
5, 190080, Note_off_c, 2, 35, 111
5, 190080, Note_on_c, 2, 36, 111
5, 190560, Note_off_c, 2, 36, 111
5, 190560, Note_on_c, 2, 28, 111
5, 191040, Note_off_c, 2, 28, 111
5, 191040, Note_on_c, 2, 29, 111
5, 191280, Note_off_c, 2, 29, 111
5, 191280, Note_on_c, 2, 29, 111
5, 191520, Note_off_c, 2, 29, 111
5, 191520, Note_on_c, 2, 30, 111
5, 191760, Note_off_c, 2, 30, 111
5, 191760, Note_on_c, 2, 31, 111
5, 192000, Note_off_c, 2, 31, 111
5, 192000, Note_on_c, 2, 34, 111
5, 192480, Note_off_c, 2, 34, 111
5, 192480, Note_on_c, 2, 29, 111
5, 192720, Note_off_c, 2, 29, 111
5, 192720, Note_on_c, 2, 31, 111
5, 192960, Note_off_c, 2, 31, 111
5, 192960, Note_on_c, 2, 34, 111
5, 193200, Note_off_c, 2, 34, 111
5, 193200, Note_on_c, 2, 34, 111
5, 193680, Note_off_c, 2, 34, 111
5, 193680, Note_on_c, 2, 34, 111
5, 194160, Note_off_c, 2, 34, 111
5, 194160, Note_on_c, 2, 29, 111
5, 194400, Note_off_c, 2, 29, 111
5, 194400, Note_on_c, 2, 31, 111
5, 194640, Note_off_c, 2, 31, 111
5, 194640, Note_on_c, 2, 34, 111
5, 195120, Note_off_c, 2, 34, 111
5, 195120, Note_on_c, 2, 34, 111
5, 195360, Note_off_c, 2, 34, 111
5, 195360, Note_on_c, 2, 34, 111
5, 195600, Note_off_c, 2, 34, 111
5, 195600, Note_on_c, 2, 36, 111
5, 195840, Note_off_c, 2, 36, 111
5, 195840, Note_on_c, 2, 41, 111
5, 196320, Note_off_c, 2, 41, 111
5, 196320, Note_on_c, 2, 29, 111
5, 196800, Note_off_c, 2, 29, 111
5, 196800, Note_on_c, 2, 34, 111
5, 197040, Note_off_c, 2, 34, 111
5, 197040, Note_on_c, 2, 34, 111
5, 197280, Note_off_c, 2, 34, 111
5, 197280, Note_on_c, 2, 35, 111
5, 197520, Note_off_c, 2, 35, 111
5, 197520, Note_on_c, 2, 35, 111
5, 197760, Note_off_c, 2, 35, 111
5, 197760, Note_on_c, 2, 36, 111
5, 198000, Note_off_c, 2, 36, 111
5, 198000, Note_on_c, 2, 40, 111
5, 198480, Note_off_c, 2, 40, 111
5, 198480, Note_on_c, 2, 41, 111
5, 198960, Note_off_c, 2, 41, 111
5, 198960, Note_on_c, 2, 42, 111
5, 199440, Note_off_c, 2, 42, 111
5, 199440, Note_on_c, 2, 43, 111
5, 199680, Note_off_c, 2, 43, 111
5, 199680, Note_on_c, 2, 46, 111
5, 200160, Note_off_c, 2, 46, 111
5, 200160, Note_on_c, 2, 38, 111
5, 200400, Note_off_c, 2, 38, 111
5, 200400, Note_on_c, 2, 38, 111
5, 200880, Note_off_c, 2, 38, 111
5, 200880, Note_on_c, 2, 39, 111
5, 201360, Note_off_c, 2, 39, 111
5, 201360, Note_on_c, 2, 40, 111
5, 201840, Note_off_c, 2, 40, 111
5, 201840, Note_on_c, 2, 41, 111
5, 202080, Note_off_c, 2, 41, 111
5, 202080, Note_on_c, 2, 46, 111
5, 202320, Note_off_c, 2, 46, 111
5, 202320, Note_on_c, 2, 46, 111
5, 203040, Note_off_c, 2, 46, 111
5, 203520, Note_on_c, 2, 33, 111
5, 204240, Note_off_c, 2, 33, 111
5, 204240, Note_on_c, 2, 33, 111
5, 204480, Note_off_c, 2, 33, 111
5, 204480, Note_on_c, 2, 33, 111
5, 204720, Note_off_c, 2, 33, 111
5, 204720, Note_on_c, 2, 45, 111
5, 204960, Note_off_c, 2, 45, 111
5, 205200, Note_on_c, 2, 34, 111
5, 205440, Note_off_c, 2, 34, 111
5, 205440, Note_on_c, 2, 35, 111
5, 205680, Note_off_c, 2, 35, 111
5, 205680, Note_on_c, 2, 42, 111
5, 205920, Note_off_c, 2, 42, 111
5, 205920, Note_on_c, 2, 47, 111
5, 206160, Note_off_c, 2, 47, 111
5, 206160, Note_on_c, 2, 35, 111
5, 206400, Note_off_c, 2, 35, 111
5, 206400, Note_on_c, 2, 35, 111
5, 206880, Note_off_c, 2, 35, 111
5, 206880, Note_on_c, 2, 42, 111
5, 207120, Note_off_c, 2, 42, 111
5, 207120, Note_on_c, 2, 35, 111
5, 207360, Note_off_c, 2, 35, 111
5, 207360, Note_on_c, 2, 31, 111
5, 208080, Note_off_c, 2, 31, 111
5, 208080, Note_on_c, 2, 31, 111
5, 208320, Note_off_c, 2, 31, 111
5, 208320, Note_on_c, 2, 31, 111
5, 208560, Note_off_c, 2, 31, 111
5, 208560, Note_on_c, 2, 38, 111
5, 208800, Note_off_c, 2, 38, 111
5, 208800, Note_on_c, 2, 35, 111
5, 209040, Note_off_c, 2, 35, 111
5, 209040, Note_on_c, 2, 36, 111
5, 209280, Note_off_c, 2, 36, 111
5, 209280, Note_on_c, 2, 36, 111
5, 209520, Note_off_c, 2, 36, 111
5, 209520, Note_on_c, 2, 43, 111
5, 209760, Note_off_c, 2, 43, 111
5, 209760, Note_on_c, 2, 48, 111
5, 210000, Note_off_c, 2, 48, 111
5, 210000, Note_on_c, 2, 36, 111
5, 210240, Note_off_c, 2, 36, 111
5, 210240, Note_on_c, 2, 36, 111
5, 210480, Note_off_c, 2, 36, 111
5, 210480, Note_on_c, 2, 48, 111
5, 210720, Note_off_c, 2, 48, 111
5, 210720, Note_on_c, 2, 43, 111
5, 210960, Note_off_c, 2, 43, 111
5, 210960, Note_on_c, 2, 36, 111
5, 211200, Note_off_c, 2, 36, 111
5, 211200, Note_on_c, 2, 29, 111
5, 211920, Note_off_c, 2, 29, 111
5, 211920, Note_on_c, 2, 29, 111
5, 212160, Note_off_c, 2, 29, 111
5, 212160, Note_on_c, 2, 29, 111
5, 212400, Note_off_c, 2, 29, 111
5, 212400, Note_on_c, 2, 41, 111
5, 212640, Note_off_c, 2, 41, 111
5, 212640, Note_on_c, 2, 29, 111
5, 212880, Note_off_c, 2, 29, 111
5, 212880, Note_on_c, 2, 31, 111
5, 213120, Note_off_c, 2, 31, 111
5, 213120, Note_on_c, 2, 38, 111
5, 213600, Note_off_c, 2, 38, 111
5, 213600, Note_on_c, 2, 43, 111
5, 213840, Note_off_c, 2, 43, 111
5, 213840, Note_on_c, 2, 45, 111
5, 214080, Note_off_c, 2, 45, 111
5, 214080, Note_on_c, 2, 38, 111
5, 214320, Note_off_c, 2, 38, 111
5, 214320, Note_on_c, 2, 45, 111
5, 214560, Note_off_c, 2, 45, 111
5, 214560, Note_on_c, 2, 38, 111
5, 215040, Note_off_c, 2, 38, 111
5, 215040, Note_on_c, 2, 40, 111
5, 215760, Note_off_c, 2, 40, 111
5, 215760, Note_on_c, 2, 51, 111
5, 216000, Note_off_c, 2, 51, 111
5, 216000, Note_on_c, 2, 50, 111
5, 216240, Note_off_c, 2, 50, 111
5, 216240, Note_on_c, 2, 49, 111
5, 216720, Note_off_c, 2, 49, 111
5, 216720, Note_on_c, 2, 51, 111
5, 217200, Note_off_c, 2, 51, 111
5, 217200, Note_on_c, 2, 49, 111
5, 217680, Note_off_c, 2, 49, 111
5, 217680, Note_on_c, 2, 47, 111
5, 217920, Note_off_c, 2, 47, 111
5, 217920, Note_on_c, 2, 49, 111
5, 218160, Note_off_c, 2, 49, 111
5, 218160, Note_on_c, 2, 47, 111
5, 218640, Note_off_c, 2, 47, 111
5, 218640, Note_on_c, 2, 45, 111
5, 218880, Note_off_c, 2, 45, 111
5, 218880, Note_on_c, 2, 45, 111
5, 219120, Note_off_c, 2, 45, 111
5, 219120, Note_on_c, 2, 44, 111
5, 219600, Note_off_c, 2, 44, 111
5, 219600, Note_on_c, 2, 42, 111
5, 220080, Note_off_c, 2, 42, 111
5, 220080, Note_on_c, 2, 40, 111
5, 220320, Note_off_c, 2, 40, 111
5, 220320, Note_on_c, 2, 42, 111
5, 220560, Note_off_c, 2, 42, 111
5, 220560, Note_on_c, 2, 40, 111
5, 220800, Note_off_c, 2, 40, 111
5, 220800, Note_on_c, 2, 43, 111
5, 221040, Note_off_c, 2, 43, 111
5, 221040, Note_on_c, 2, 43, 111
5, 221280, Note_off_c, 2, 43, 111
5, 221520, Note_on_c, 2, 43, 111
5, 222000, Note_off_c, 2, 43, 111
5, 222000, Note_on_c, 2, 43, 111
5, 222240, Note_off_c, 2, 43, 111
5, 222240, Note_on_c, 2, 43, 111
5, 222480, Note_off_c, 2, 43, 111
5, 222480, Note_on_c, 2, 35, 111
5, 222720, Note_off_c, 2, 35, 111
5, 222720, Note_on_c, 2, 35, 111
5, 222960, Note_off_c, 2, 35, 111
5, 222960, Note_on_c, 2, 42, 111
5, 223200, Note_off_c, 2, 42, 111
5, 223200, Note_on_c, 2, 47, 111
5, 223440, Note_off_c, 2, 47, 111
5, 223440, Note_on_c, 2, 42, 111
5, 223680, Note_off_c, 2, 42, 111
5, 223680, Note_on_c, 2, 35, 111
5, 224640, Note_off_c, 2, 35, 111
5, 224640, Note_on_c, 2, 35, 111
5, 224880, Note_off_c, 2, 35, 111
5, 224880, Note_on_c, 2, 42, 111
5, 225120, Note_off_c, 2, 42, 111
5, 225120, Note_on_c, 2, 47, 111
5, 225360, Note_off_c, 2, 47, 111
5, 225360, Note_on_c, 2, 42, 111
5, 225600, Note_off_c, 2, 42, 111
5, 225600, Note_on_c, 2, 47, 111
5, 226560, Note_off_c, 2, 47, 111
5, 226560, Note_on_c, 2, 35, 111
5, 226800, Note_off_c, 2, 35, 111
5, 226800, Note_on_c, 2, 42, 111
5, 227040, Note_off_c, 2, 42, 111
5, 227040, Note_on_c, 2, 47, 111
5, 227280, Note_off_c, 2, 47, 111
5, 227280, Note_on_c, 2, 42, 111
5, 227520, Note_off_c, 2, 42, 111
5, 227520, Note_on_c, 2, 47, 111
5, 228480, Note_off_c, 2, 47, 111
5, 228480, Note_on_c, 2, 42, 111
5, 229440, Note_off_c, 2, 42, 111
5, 229440, Note_on_c, 2, 40, 111
5, 230400, Note_off_c, 2, 40, 111
5, 230400, Note_on_c, 2, 35, 111
5, 230640, Note_off_c, 2, 35, 111
5, 230640, Note_on_c, 2, 42, 111
5, 230880, Note_off_c, 2, 42, 111
5, 230880, Note_on_c, 2, 47, 111
5, 231120, Note_off_c, 2, 47, 111
5, 231120, Note_on_c, 2, 42, 111
5, 231360, Note_off_c, 2, 42, 111
5, 231360, Note_on_c, 2, 35, 111
5, 232320, Note_off_c, 2, 35, 111
5, 232320, Note_on_c, 2, 35, 111
5, 232560, Note_off_c, 2, 35, 111
5, 232560, Note_on_c, 2, 42, 111
5, 232800, Note_off_c, 2, 42, 111
5, 232800, Note_on_c, 2, 47, 111
5, 233040, Note_off_c, 2, 47, 111
5, 233040, Note_on_c, 2, 42, 111
5, 233280, Note_off_c, 2, 42, 111
5, 233280, Note_on_c, 2, 47, 111
5, 234240, Note_off_c, 2, 47, 111
5, 234240, Note_on_c, 2, 35, 111
5, 234480, Note_off_c, 2, 35, 111
5, 234480, Note_on_c, 2, 42, 111
5, 234720, Note_off_c, 2, 42, 111
5, 234720, Note_on_c, 2, 47, 111
5, 234960, Note_off_c, 2, 47, 111
5, 234960, Note_on_c, 2, 42, 111
5, 235200, Note_off_c, 2, 42, 111
5, 235200, Note_on_c, 2, 47, 111
5, 236160, Note_off_c, 2, 47, 111
5, 236160, Note_on_c, 2, 42, 111
5, 237120, Note_off_c, 2, 42, 111
5, 237120, Note_on_c, 2, 40, 111
5, 238080, Note_off_c, 2, 40, 111
5, 238080, Note_on_c, 2, 35, 111
5, 238320, Note_off_c, 2, 35, 111
5, 238320, Note_on_c, 2, 42, 111
5, 238560, Note_off_c, 2, 42, 111
5, 238560, Note_on_c, 2, 47, 111
5, 238800, Note_off_c, 2, 47, 111
5, 238800, Note_on_c, 2, 42, 111
5, 239040, Note_off_c, 2, 42, 111
5, 239040, Note_on_c, 2, 35, 111
5, 240000, Note_off_c, 2, 35, 111
5, 240000, Note_on_c, 2, 35, 111
5, 240240, Note_off_c, 2, 35, 111
5, 240240, Note_on_c, 2, 42, 111
5, 240480, Note_off_c, 2, 42, 111
5, 240480, Note_on_c, 2, 47, 111
5, 240720, Note_off_c, 2, 47, 111
5, 240720, Note_on_c, 2, 42, 111
5, 240960, Note_off_c, 2, 42, 111
5, 240960, Note_on_c, 2, 47, 111
5, 241920, Note_off_c, 2, 47, 111
5, 241920, Note_on_c, 2, 35, 111
5, 242160, Note_off_c, 2, 35, 111
5, 242160, Note_on_c, 2, 42, 111
5, 242400, Note_off_c, 2, 42, 111
5, 242400, Note_on_c, 2, 47, 111
5, 242640, Note_off_c, 2, 47, 111
5, 242640, Note_on_c, 2, 42, 111
5, 242880, Note_off_c, 2, 42, 111
5, 242880, Note_on_c, 2, 47, 111
5, 243840, Note_off_c, 2, 47, 111
5, 243840, Note_on_c, 2, 42, 111
5, 244800, Note_off_c, 2, 42, 111
5, 244800, Note_on_c, 2, 40, 111
5, 245760, Note_off_c, 2, 40, 111
5, 245760, Note_on_c, 2, 35, 111
5, 246000, Note_off_c, 2, 35, 111
5, 246000, Note_on_c, 2, 42, 111
5, 246240, Note_off_c, 2, 42, 111
5, 246240, Note_on_c, 2, 47, 111
5, 246480, Note_off_c, 2, 47, 111
5, 246480, Note_on_c, 2, 42, 111
5, 246720, Note_off_c, 2, 42, 111
5, 246720, Note_on_c, 2, 35, 111
5, 247680, Note_off_c, 2, 35, 111
5, 247680, Note_on_c, 2, 35, 111
5, 247920, Note_off_c, 2, 35, 111
5, 247920, Note_on_c, 2, 42, 111
5, 248160, Note_off_c, 2, 42, 111
5, 248160, Note_on_c, 2, 47, 111
5, 248400, Note_off_c, 2, 47, 111
5, 248400, Note_on_c, 2, 42, 111
5, 248640, Note_off_c, 2, 42, 111
5, 248640, Note_on_c, 2, 47, 111
5, 249600, Note_off_c, 2, 47, 111
5, 249600, Note_on_c, 2, 35, 111
5, 249840, Note_off_c, 2, 35, 111
5, 249840, Note_on_c, 2, 42, 111
5, 250080, Note_off_c, 2, 42, 111
5, 250080, Note_on_c, 2, 47, 111
5, 250320, Note_off_c, 2, 47, 111
5, 250320, Note_on_c, 2, 42, 111
5, 250560, Note_off_c, 2, 42, 111
5, 250560, Note_on_c, 2, 47, 111
5, 251520, Note_off_c, 2, 47, 111
5, 251520, Note_on_c, 2, 42, 111
5, 252480, Note_off_c, 2, 42, 111
5, 252480, Note_on_c, 2, 40, 111
5, 253440, Note_off_c, 2, 40, 111
5, 253440, Note_on_c, 2, 35, 111
5, 253680, Note_off_c, 2, 35, 111
5, 253680, Note_on_c, 2, 42, 111
5, 253920, Note_off_c, 2, 42, 111
5, 253920, Note_on_c, 2, 35, 111
5, 254160, Note_off_c, 2, 35, 111
5, 254160, Note_on_c, 2, 35, 111
5, 254400, Note_off_c, 2, 35, 111
5, 254880, Note_on_c, 2, 42, 111
5, 255360, Note_off_c, 2, 42, 111
5, 255360, Note_on_c, 2, 35, 111
5, 255840, Note_off_c, 2, 35, 111
5, 256080, Note_on_c, 2, 35, 111
5, 256320, Note_off_c, 2, 35, 111
5, 256320, Note_on_c, 2, 35, 111
5, 256800, Note_off_c, 2, 35, 111
5, 256800, Note_on_c, 2, 42, 111
5, 257280, Note_off_c, 2, 42, 111
5, 257280, Note_on_c, 2, 33, 111
5, 257760, Note_off_c, 2, 33, 111
5, 258000, Note_on_c, 2, 33, 111
5, 258240, Note_off_c, 2, 33, 111
5, 259680, Note_on_c, 2, 40, 111
5, 259920, Note_off_c, 2, 40, 111
5, 259920, Note_on_c, 2, 40, 111
5, 260160, Note_off_c, 2, 40, 111
5, 260160, Note_on_c, 2, 42, 111
5, 260400, Note_off_c, 2, 42, 111
5, 260400, Note_on_c, 2, 40, 111
5, 260640, Note_off_c, 2, 40, 111
5, 260640, Note_on_c, 2, 37, 111
5, 261120, Note_off_c, 2, 37, 111
5, 261120, Note_on_c, 2, 36, 111
5, 261600, Note_off_c, 2, 36, 111
5, 261600, Note_on_c, 2, 40, 111
5, 262080, Note_off_c, 2, 40, 111
5, 263040, Note_on_c, 2, 38, 111
5, 264960, Note_off_c, 2, 38, 111
5, 264960, Note_on_c, 2, 33, 111
5, 265920, Note_off_c, 2, 33, 111
5, 265920, Note_on_c, 2, 40, 111
5, 266880, Note_off_c, 2, 40, 111
5, 266880, Note_on_c, 2, 42, 111
5, 267360, Note_off_c, 2, 42, 111
5, 267360, Note_on_c, 2, 40, 111
5, 267840, Note_off_c, 2, 40, 111
5, 267840, Note_on_c, 2, 40, 111
5, 268800, Note_off_c, 2, 40, 111
5, 268800, Note_on_c, 2, 35, 111
5, 269040, Note_off_c, 2, 35, 111
5, 269040, Note_on_c, 2, 42, 111
5, 269280, Note_off_c, 2, 42, 111
5, 269280, Note_on_c, 2, 35, 111
5, 269520, Note_off_c, 2, 35, 111
5, 269520, Note_on_c, 2, 35, 111
5, 269760, Note_off_c, 2, 35, 111
5, 270240, Note_on_c, 2, 42, 111
5, 270720, Note_off_c, 2, 42, 111
5, 270720, Note_on_c, 2, 35, 111
5, 271200, Note_off_c, 2, 35, 111
5, 271440, Note_on_c, 2, 35, 111
5, 271680, Note_off_c, 2, 35, 111
5, 271680, Note_on_c, 2, 35, 111
5, 272160, Note_off_c, 2, 35, 111
5, 272160, Note_on_c, 2, 42, 111
5, 272640, Note_off_c, 2, 42, 111
5, 272640, Note_on_c, 2, 33, 111
5, 273120, Note_off_c, 2, 33, 111
5, 273360, Note_on_c, 2, 33, 111
5, 273600, Note_off_c, 2, 33, 111
5, 275040, Note_on_c, 2, 40, 111
5, 275280, Note_off_c, 2, 40, 111
5, 275280, Note_on_c, 2, 40, 111
5, 275520, Note_off_c, 2, 40, 111
5, 275520, Note_on_c, 2, 42, 111
5, 275760, Note_off_c, 2, 42, 111
5, 275760, Note_on_c, 2, 40, 111
5, 276000, Note_off_c, 2, 40, 111
5, 276000, Note_on_c, 2, 37, 111
5, 276480, Note_off_c, 2, 37, 111
5, 276480, Note_on_c, 2, 36, 111
5, 276960, Note_off_c, 2, 36, 111
5, 276960, Note_on_c, 2, 40, 111
5, 277440, Note_off_c, 2, 40, 111
5, 278400, Note_on_c, 2, 38, 111
5, 280320, Note_off_c, 2, 38, 111
5, 280320, Note_on_c, 2, 33, 111
5, 281280, Note_off_c, 2, 33, 111
5, 281280, Note_on_c, 2, 40, 111
5, 282240, Note_off_c, 2, 40, 111
5, 282240, Note_on_c, 2, 42, 111
5, 282720, Note_off_c, 2, 42, 111
5, 282720, Note_on_c, 2, 40, 111
5, 283200, Note_off_c, 2, 40, 111
5, 283200, Note_on_c, 2, 40, 111
5, 284160, Note_off_c, 2, 40, 111
5, 284160, Note_on_c, 2, 35, 111
5, 284400, Note_off_c, 2, 35, 111
5, 284400, Note_on_c, 2, 42, 111
5, 284640, Note_off_c, 2, 42, 111
5, 284640, Note_on_c, 2, 35, 111
5, 284880, Note_off_c, 2, 35, 111
5, 284880, Note_on_c, 2, 35, 111
5, 285120, Note_off_c, 2, 35, 111
5, 285600, Note_on_c, 2, 42, 111
5, 286080, Note_off_c, 2, 42, 111
5, 286080, Note_on_c, 2, 35, 111
5, 286560, Note_off_c, 2, 35, 111
5, 286800, Note_on_c, 2, 35, 111
5, 287040, Note_off_c, 2, 35, 111
5, 287040, Note_on_c, 2, 35, 111
5, 287520, Note_off_c, 2, 35, 111
5, 287520, Note_on_c, 2, 42, 111
5, 288000, Note_off_c, 2, 42, 111
5, 288000, Note_on_c, 2, 33, 111
5, 288480, Note_off_c, 2, 33, 111
5, 288720, Note_on_c, 2, 33, 111
5, 288960, Note_off_c, 2, 33, 111
5, 290400, Note_on_c, 2, 40, 111
5, 290640, Note_off_c, 2, 40, 111
5, 290640, Note_on_c, 2, 40, 111
5, 290880, Note_off_c, 2, 40, 111
5, 290880, Note_on_c, 2, 42, 111
5, 291120, Note_off_c, 2, 42, 111
5, 291120, Note_on_c, 2, 40, 111
5, 291360, Note_off_c, 2, 40, 111
5, 291360, Note_on_c, 2, 37, 111
5, 291840, Note_off_c, 2, 37, 111
5, 291840, Note_on_c, 2, 36, 111
5, 292320, Note_off_c, 2, 36, 111
5, 292320, Note_on_c, 2, 40, 111
5, 292800, Note_off_c, 2, 40, 111
5, 293760, Note_on_c, 2, 38, 111
5, 295680, Note_off_c, 2, 38, 111
5, 295680, Note_on_c, 2, 33, 111
5, 296640, Note_off_c, 2, 33, 111
5, 296640, Note_on_c, 2, 40, 111
5, 297600, Note_off_c, 2, 40, 111
5, 297600, Note_on_c, 2, 42, 111
5, 298080, Note_off_c, 2, 42, 111
5, 298080, Note_on_c, 2, 40, 111
5, 298560, Note_off_c, 2, 40, 111
5, 298560, Note_on_c, 2, 40, 111
5, 299520, Note_off_c, 2, 40, 111
5, 299520, Note_on_c, 2, 35, 111
5, 299760, Note_off_c, 2, 35, 111
5, 299760, Note_on_c, 2, 42, 111
5, 300000, Note_off_c, 2, 42, 111
5, 300000, Note_on_c, 2, 35, 111
5, 300240, Note_off_c, 2, 35, 111
5, 300240, Note_on_c, 2, 35, 111
5, 300480, Note_off_c, 2, 35, 111
5, 300960, Note_on_c, 2, 42, 111
5, 301440, Note_off_c, 2, 42, 111
5, 301440, Note_on_c, 2, 35, 111
5, 301920, Note_off_c, 2, 35, 111
5, 302160, Note_on_c, 2, 35, 111
5, 302400, Note_off_c, 2, 35, 111
5, 302400, Note_on_c, 2, 35, 111
5, 302880, Note_off_c, 2, 35, 111
5, 302880, Note_on_c, 2, 42, 111
5, 303360, Note_off_c, 2, 42, 111
5, 303360, Note_on_c, 2, 33, 111
5, 303840, Note_off_c, 2, 33, 111
5, 304080, Note_on_c, 2, 33, 111
5, 304320, Note_off_c, 2, 33, 111
5, 305760, Note_on_c, 2, 40, 111
5, 306000, Note_off_c, 2, 40, 111
5, 306000, Note_on_c, 2, 40, 111
5, 306240, Note_off_c, 2, 40, 111
5, 306240, Note_on_c, 2, 42, 111
5, 306480, Note_off_c, 2, 42, 111
5, 306480, Note_on_c, 2, 40, 111
5, 306720, Note_off_c, 2, 40, 111
5, 306720, Note_on_c, 2, 37, 111
5, 307200, Note_off_c, 2, 37, 111
5, 307200, Note_on_c, 2, 36, 111
5, 307680, Note_off_c, 2, 36, 111
5, 307680, Note_on_c, 2, 40, 111
5, 308160, Note_off_c, 2, 40, 111
5, 309120, Note_on_c, 2, 38, 111
5, 311040, Note_off_c, 2, 38, 111
5, 311040, Note_on_c, 2, 33, 111
5, 312000, Note_off_c, 2, 33, 111
5, 312000, Note_on_c, 2, 40, 111
5, 312960, Note_off_c, 2, 40, 111
5, 312960, Note_on_c, 2, 42, 111
5, 313440, Note_off_c, 2, 42, 111
5, 313440, Note_on_c, 2, 40, 111
5, 313920, Note_off_c, 2, 40, 111
5, 313920, Note_on_c, 2, 40, 111
5, 314880, Note_off_c, 2, 40, 111
5, 314880, Note_on_c, 2, 35, 111
5, 315120, Note_off_c, 2, 35, 111
5, 315120, Note_on_c, 2, 42, 111
5, 315360, Note_off_c, 2, 42, 111
5, 315360, Note_on_c, 2, 35, 111
5, 315600, Note_off_c, 2, 35, 111
5, 315600, Note_on_c, 2, 35, 111
5, 315840, Note_off_c, 2, 35, 111
5, 316320, Note_on_c, 2, 42, 111
5, 316800, Note_off_c, 2, 42, 111
5, 316800, Note_on_c, 2, 35, 111
5, 317280, Note_off_c, 2, 35, 111
5, 317520, Note_on_c, 2, 35, 111
5, 317760, Note_off_c, 2, 35, 111
5, 317760, Note_on_c, 2, 35, 111
5, 318240, Note_off_c, 2, 35, 111
5, 318240, Note_on_c, 2, 42, 111
5, 318720, Note_off_c, 2, 42, 111
5, 318720, Note_on_c, 2, 33, 111
5, 319200, Note_off_c, 2, 33, 111
5, 319440, Note_on_c, 2, 33, 111
5, 319680, Note_off_c, 2, 33, 111
5, 321120, Note_on_c, 2, 40, 111
5, 321360, Note_off_c, 2, 40, 111
5, 321360, Note_on_c, 2, 40, 111
5, 321600, Note_off_c, 2, 40, 111
5, 321600, Note_on_c, 2, 42, 111
5, 321840, Note_off_c, 2, 42, 111
5, 321840, Note_on_c, 2, 40, 111
5, 322080, Note_off_c, 2, 40, 111
5, 322080, Note_on_c, 2, 37, 111
5, 322560, Note_off_c, 2, 37, 111
5, 322560, Note_on_c, 2, 36, 111
5, 323040, Note_off_c, 2, 36, 111
5, 323040, Note_on_c, 2, 40, 111
5, 323520, Note_off_c, 2, 40, 111
5, 324480, Note_on_c, 2, 38, 111
5, 326400, Note_off_c, 2, 38, 111
5, 326400, Note_on_c, 2, 33, 111
5, 327360, Note_off_c, 2, 33, 111
5, 327360, Note_on_c, 2, 40, 111
5, 328320, Note_off_c, 2, 40, 111
5, 328320, Note_on_c, 2, 42, 111
5, 328800, Note_off_c, 2, 42, 111
5, 328800, Note_on_c, 2, 40, 111
5, 329280, Note_off_c, 2, 40, 111
5, 329280, Note_on_c, 2, 40, 111
5, 330240, Note_off_c, 2, 40, 111
5, 330240, Note_on_c, 2, 35, 111
5, 330480, Note_off_c, 2, 35, 111
5, 330480, Note_on_c, 2, 42, 111
5, 330720, Note_off_c, 2, 42, 111
5, 330720, Note_on_c, 2, 35, 111
5, 330960, Note_off_c, 2, 35, 111
5, 330960, Note_on_c, 2, 35, 111
5, 331200, Note_off_c, 2, 35, 111
5, 331680, Note_on_c, 2, 42, 111
5, 332160, Note_off_c, 2, 42, 111
5, 332160, Note_on_c, 2, 35, 111
5, 332640, Note_off_c, 2, 35, 111
5, 332880, Note_on_c, 2, 35, 111
5, 333120, Note_off_c, 2, 35, 111
5, 333120, Note_on_c, 2, 35, 111
5, 333600, Note_off_c, 2, 35, 111
5, 333600, Note_on_c, 2, 42, 111
5, 334080, Note_off_c, 2, 42, 111
5, 334080, Note_on_c, 2, 33, 111
5, 334560, Note_off_c, 2, 33, 111
5, 334800, Note_on_c, 2, 33, 111
5, 335040, Note_off_c, 2, 33, 111
5, 336480, Note_on_c, 2, 40, 111
5, 336720, Note_off_c, 2, 40, 111
5, 336720, Note_on_c, 2, 40, 111
5, 336960, Note_off_c, 2, 40, 111
5, 336960, Note_on_c, 2, 42, 111
5, 337200, Note_off_c, 2, 42, 111
5, 337200, Note_on_c, 2, 40, 111
5, 337440, Note_off_c, 2, 40, 111
5, 337440, Note_on_c, 2, 37, 111
5, 337920, Note_off_c, 2, 37, 111
5, 337920, Note_on_c, 2, 36, 111
5, 338400, Note_off_c, 2, 36, 111
5, 338400, Note_on_c, 2, 40, 111
5, 338880, Note_off_c, 2, 40, 111
5, 339840, Note_on_c, 2, 38, 111
5, 341760, Note_off_c, 2, 38, 111
5, 341760, Note_on_c, 2, 33, 111
5, 342720, Note_off_c, 2, 33, 111
5, 342720, Note_on_c, 2, 40, 111
5, 343680, Note_off_c, 2, 40, 111
5, 343680, Note_on_c, 2, 42, 111
5, 344160, Note_off_c, 2, 42, 111
5, 344160, Note_on_c, 2, 40, 111
5, 344640, Note_off_c, 2, 40, 111
5, 344640, Note_on_c, 2, 40, 111
5, 345600, Note_off_c, 2, 40, 111
5, 345600, End_track
6, 0, Start_track
6, 0, Pitch_bend_c, 3, 8192
6, 0, Control_c, 3, 7, 111
6, 0, Control_c, 3, 10, 63
6, 0, Control_c, 3, 93, 0
6, 0, Control_c, 3, 91, 0
6, 0, Control_c, 3, 95, 0
6, 0, Control_c, 3, 92, 0
6, 0, Control_c, 3, 11, 127
6, 0, Program_c, 3, 0
6, 7680, Note_on_c, 3, 62, 79
6, 7680, Note_on_c, 3, 59, 79
6, 7680, Note_on_c, 3, 54, 79
6, 7920, Note_off_c, 3, 62, 79
6, 7920, Note_off_c, 3, 59, 79
6, 7920, Note_off_c, 3, 54, 79
6, 8640, Note_on_c, 3, 59, 79
6, 8640, Note_on_c, 3, 66, 79
6, 8640, Note_on_c, 3, 62, 79
6, 8640, Note_on_c, 3, 57, 79
6, 8880, Note_off_c, 3, 59, 79
6, 8880, Note_off_c, 3, 66, 79
6, 8880, Note_off_c, 3, 62, 79
6, 8880, Note_off_c, 3, 57, 79
6, 9600, Note_on_c, 3, 64, 79
6, 9600, Note_on_c, 3, 59, 79
6, 9600, Note_on_c, 3, 56, 79
6, 10200, Note_off_c, 3, 64, 79
6, 10200, Note_off_c, 3, 59, 79
6, 10200, Note_off_c, 3, 56, 79
6, 10560, Note_on_c, 3, 59, 79
6, 10560, Note_on_c, 3, 62, 79
6, 10560, Note_on_c, 3, 54, 79
6, 11160, Note_off_c, 3, 59, 79
6, 11160, Note_off_c, 3, 62, 79
6, 11160, Note_off_c, 3, 54, 79
6, 11520, Note_on_c, 3, 64, 79
6, 11520, Note_on_c, 3, 61, 79
6, 11520, Note_on_c, 3, 57, 79
6, 11760, Note_off_c, 3, 64, 79
6, 11760, Note_off_c, 3, 61, 79
6, 11760, Note_off_c, 3, 57, 79
6, 12480, Note_on_c, 3, 62, 79
6, 12480, Note_on_c, 3, 59, 79
6, 12480, Note_on_c, 3, 54, 79
6, 12720, Note_off_c, 3, 62, 79
6, 12720, Note_off_c, 3, 59, 79
6, 12720, Note_off_c, 3, 54, 79
6, 13440, Note_on_c, 3, 64, 79
6, 13440, Note_on_c, 3, 59, 79
6, 13440, Note_on_c, 3, 56, 79
6, 13920, Note_off_c, 3, 64, 79
6, 13920, Note_off_c, 3, 59, 79
6, 13920, Note_off_c, 3, 56, 79
6, 13920, Note_on_c, 3, 59, 95
6, 14040, Note_off_c, 3, 59, 95
6, 14040, Note_on_c, 3, 66, 95
6, 14160, Note_off_c, 3, 66, 95
6, 14280, Note_on_c, 3, 71, 95
6, 14400, Note_off_c, 3, 71, 95
6, 14400, Note_on_c, 3, 76, 95
6, 14640, Note_off_c, 3, 76, 95
6, 14640, Note_on_c, 3, 83, 95
6, 14760, Note_off_c, 3, 83, 95
6, 14760, Note_on_c, 3, 76, 95
6, 14880, Note_off_c, 3, 76, 95
6, 14880, Note_on_c, 3, 64, 95
6, 14880, Note_on_c, 3, 59, 95
6, 14880, Note_on_c, 3, 56, 95
6, 15000, Note_off_c, 3, 64, 95
6, 15000, Note_off_c, 3, 59, 95
6, 15000, Note_off_c, 3, 56, 95
6, 15000, Note_on_c, 3, 71, 95
6, 15120, Note_off_c, 3, 71, 95
6, 15120, Note_on_c, 3, 64, 95
6, 15360, Note_off_c, 3, 64, 95
6, 15360, Note_on_c, 3, 62, 79
6, 15360, Note_on_c, 3, 59, 79
6, 15360, Note_on_c, 3, 54, 79
6, 15360, Note_on_c, 3, 47, 95
6, 16320, Note_off_c, 3, 62, 79
6, 16320, Note_off_c, 3, 59, 79
6, 16320, Note_off_c, 3, 54, 79
6, 16320, Note_off_c, 3, 47, 95
6, 16320, Note_on_c, 3, 59, 79
6, 16320, Note_on_c, 3, 66, 79
6, 16320, Note_on_c, 3, 62, 79
6, 16320, Note_on_c, 3, 57, 79
6, 16560, Note_off_c, 3, 59, 79
6, 16560, Note_off_c, 3, 66, 79
6, 16560, Note_off_c, 3, 62, 79
6, 16560, Note_off_c, 3, 57, 79
6, 17280, Note_on_c, 3, 64, 79
6, 17280, Note_on_c, 3, 59, 79
6, 17280, Note_on_c, 3, 56, 79
6, 17520, Note_off_c, 3, 64, 79
6, 17520, Note_off_c, 3, 59, 79
6, 17520, Note_off_c, 3, 56, 79
6, 18240, Note_on_c, 3, 62, 79
6, 18240, Note_on_c, 3, 59, 79
6, 18240, Note_on_c, 3, 54, 79
6, 18840, Note_off_c, 3, 62, 79
6, 18840, Note_off_c, 3, 59, 79
6, 18840, Note_off_c, 3, 54, 79
6, 19200, Note_on_c, 3, 64, 79
6, 19200, Note_on_c, 3, 61, 79
6, 19200, Note_on_c, 3, 57, 79
6, 19800, Note_off_c, 3, 64, 79
6, 19800, Note_off_c, 3, 61, 79
6, 19800, Note_off_c, 3, 57, 79
6, 20160, Note_on_c, 3, 59, 79
6, 20160, Note_on_c, 3, 62, 79
6, 20160, Note_on_c, 3, 54, 79
6, 20760, Note_off_c, 3, 59, 79
6, 20760, Note_off_c, 3, 62, 79
6, 20760, Note_off_c, 3, 54, 79
6, 21120, Note_on_c, 3, 64, 79
6, 21120, Note_on_c, 3, 59, 79
6, 21120, Note_on_c, 3, 56, 79
6, 21600, Note_off_c, 3, 64, 79
6, 21600, Note_off_c, 3, 59, 79
6, 21600, Note_off_c, 3, 56, 79
6, 21600, Note_on_c, 3, 59, 95
6, 21720, Note_off_c, 3, 59, 95
6, 21720, Note_on_c, 3, 66, 95
6, 21840, Note_off_c, 3, 66, 95
6, 21960, Note_on_c, 3, 71, 95
6, 22080, Note_off_c, 3, 71, 95
6, 22080, Note_on_c, 3, 76, 95
6, 22320, Note_off_c, 3, 76, 95
6, 22320, Note_on_c, 3, 83, 95
6, 22320, Note_on_c, 3, 55, 95
6, 22320, Note_on_c, 3, 59, 95
6, 22320, Note_on_c, 3, 51, 95
6, 22440, Note_off_c, 3, 83, 95
6, 22440, Note_off_c, 3, 55, 95
6, 22440, Note_off_c, 3, 59, 95
6, 22440, Note_off_c, 3, 51, 95
6, 22440, Note_on_c, 3, 76, 95
6, 22680, Note_off_c, 3, 76, 95
6, 22680, Note_on_c, 3, 71, 95
6, 22800, Note_off_c, 3, 71, 95
6, 22800, Note_on_c, 3, 64, 95
6, 23040, Note_off_c, 3, 64, 95
6, 23040, Note_on_c, 3, 62, 79
6, 23040, Note_on_c, 3, 59, 79
6, 23040, Note_on_c, 3, 54, 79
6, 23040, Note_on_c, 3, 47, 95
6, 24000, Note_off_c, 3, 62, 79
6, 24000, Note_off_c, 3, 59, 79
6, 24000, Note_off_c, 3, 54, 79
6, 24000, Note_off_c, 3, 47, 95
6, 24000, Note_on_c, 3, 59, 79
6, 24000, Note_on_c, 3, 66, 79
6, 24000, Note_on_c, 3, 62, 79
6, 24000, Note_on_c, 3, 57, 79
6, 24600, Note_off_c, 3, 59, 79
6, 24600, Note_off_c, 3, 66, 79
6, 24600, Note_off_c, 3, 62, 79
6, 24600, Note_off_c, 3, 57, 79
6, 24960, Note_on_c, 3, 64, 79
6, 24960, Note_on_c, 3, 59, 79
6, 24960, Note_on_c, 3, 56, 79
6, 25560, Note_off_c, 3, 64, 79
6, 25560, Note_off_c, 3, 59, 79
6, 25560, Note_off_c, 3, 56, 79
6, 25920, Note_on_c, 3, 62, 79
6, 25920, Note_on_c, 3, 59, 79
6, 25920, Note_on_c, 3, 54, 79
6, 26160, Note_off_c, 3, 62, 79
6, 26160, Note_off_c, 3, 59, 79
6, 26160, Note_off_c, 3, 54, 79
6, 26880, Note_on_c, 3, 64, 79
6, 26880, Note_on_c, 3, 61, 79
6, 26880, Note_on_c, 3, 57, 79
6, 27120, Note_off_c, 3, 64, 79
6, 27120, Note_off_c, 3, 61, 79
6, 27120, Note_off_c, 3, 57, 79
6, 27840, Note_on_c, 3, 59, 79
6, 27840, Note_on_c, 3, 62, 79
6, 27840, Note_on_c, 3, 54, 79
6, 28440, Note_off_c, 3, 59, 79
6, 28440, Note_off_c, 3, 62, 79
6, 28440, Note_off_c, 3, 54, 79
6, 28800, Note_on_c, 3, 64, 79
6, 28800, Note_on_c, 3, 59, 79
6, 28800, Note_on_c, 3, 56, 79
6, 29280, Note_off_c, 3, 64, 79
6, 29280, Note_off_c, 3, 59, 79
6, 29280, Note_off_c, 3, 56, 79
6, 29280, Note_on_c, 3, 59, 95
6, 29400, Note_off_c, 3, 59, 95
6, 29400, Note_on_c, 3, 66, 95
6, 29520, Note_off_c, 3, 66, 95
6, 29640, Note_on_c, 3, 71, 95
6, 29760, Note_off_c, 3, 71, 95
6, 29760, Note_on_c, 3, 76, 95
6, 30000, Note_off_c, 3, 76, 95
6, 30000, Note_on_c, 3, 83, 95
6, 30000, Note_on_c, 3, 55, 95
6, 30000, Note_on_c, 3, 59, 95
6, 30000, Note_on_c, 3, 51, 95
6, 30120, Note_off_c, 3, 83, 95
6, 30120, Note_off_c, 3, 55, 95
6, 30120, Note_off_c, 3, 59, 95
6, 30120, Note_off_c, 3, 51, 95
6, 30120, Note_on_c, 3, 76, 95
6, 30360, Note_off_c, 3, 76, 95
6, 30360, Note_on_c, 3, 71, 95
6, 30480, Note_off_c, 3, 71, 95
6, 30480, Note_on_c, 3, 64, 95
6, 30720, Note_off_c, 3, 64, 95
6, 30720, Note_on_c, 3, 62, 79
6, 30720, Note_on_c, 3, 59, 79
6, 30720, Note_on_c, 3, 54, 79
6, 30720, Note_on_c, 3, 47, 95
6, 31680, Note_off_c, 3, 62, 79
6, 31680, Note_off_c, 3, 59, 79
6, 31680, Note_off_c, 3, 54, 79
6, 31680, Note_off_c, 3, 47, 95
6, 31680, Note_on_c, 3, 59, 79
6, 31680, Note_on_c, 3, 66, 79
6, 31680, Note_on_c, 3, 62, 79
6, 31680, Note_on_c, 3, 57, 79
6, 32280, Note_off_c, 3, 59, 79
6, 32280, Note_off_c, 3, 66, 79
6, 32280, Note_off_c, 3, 62, 79
6, 32280, Note_off_c, 3, 57, 79
6, 32640, Note_on_c, 3, 64, 79
6, 32640, Note_on_c, 3, 59, 79
6, 32640, Note_on_c, 3, 56, 79
6, 33240, Note_off_c, 3, 64, 79
6, 33240, Note_off_c, 3, 59, 79
6, 33240, Note_off_c, 3, 56, 79
6, 33600, Note_on_c, 3, 62, 79
6, 33600, Note_on_c, 3, 59, 79
6, 33600, Note_on_c, 3, 54, 79
6, 34200, Note_off_c, 3, 62, 79
6, 34200, Note_off_c, 3, 59, 79
6, 34200, Note_off_c, 3, 54, 79
6, 34560, Note_on_c, 3, 64, 79
6, 34560, Note_on_c, 3, 61, 79
6, 34560, Note_on_c, 3, 57, 79
6, 34800, Note_off_c, 3, 64, 79
6, 34800, Note_off_c, 3, 61, 79
6, 34800, Note_off_c, 3, 57, 79
6, 35520, Note_on_c, 3, 59, 79
6, 35520, Note_on_c, 3, 62, 79
6, 35520, Note_on_c, 3, 54, 79
6, 36120, Note_off_c, 3, 59, 79
6, 36120, Note_off_c, 3, 62, 79
6, 36120, Note_off_c, 3, 54, 79
6, 36480, Note_on_c, 3, 64, 79
6, 36480, Note_on_c, 3, 59, 79
6, 36480, Note_on_c, 3, 56, 79
6, 36960, Note_off_c, 3, 64, 79
6, 36960, Note_off_c, 3, 59, 79
6, 36960, Note_off_c, 3, 56, 79
6, 36960, Note_on_c, 3, 59, 95
6, 37080, Note_off_c, 3, 59, 95
6, 37080, Note_on_c, 3, 66, 95
6, 37200, Note_off_c, 3, 66, 95
6, 37320, Note_on_c, 3, 71, 95
6, 37440, Note_off_c, 3, 71, 95
6, 37440, Note_on_c, 3, 76, 95
6, 37680, Note_off_c, 3, 76, 95
6, 37680, Note_on_c, 3, 83, 95
6, 37800, Note_off_c, 3, 83, 95
6, 37800, Note_on_c, 3, 76, 95
6, 37920, Note_off_c, 3, 76, 95
6, 37920, Note_on_c, 3, 64, 95
6, 37920, Note_on_c, 3, 59, 95
6, 37920, Note_on_c, 3, 56, 95
6, 38040, Note_off_c, 3, 64, 95
6, 38040, Note_off_c, 3, 59, 95
6, 38040, Note_off_c, 3, 56, 95
6, 38040, Note_on_c, 3, 71, 95
6, 38160, Note_off_c, 3, 71, 95
6, 38160, Note_on_c, 3, 64, 95
6, 38400, Note_off_c, 3, 64, 95
6, 38400, Note_on_c, 3, 62, 79
6, 38400, Note_on_c, 3, 59, 79
6, 38400, Note_on_c, 3, 54, 79
6, 39000, Note_off_c, 3, 62, 79
6, 39000, Note_off_c, 3, 59, 79
6, 39000, Note_off_c, 3, 54, 79
6, 39120, Note_on_c, 3, 62, 95
6, 39120, Note_on_c, 3, 59, 95
6, 39120, Note_on_c, 3, 54, 95
6, 39360, Note_off_c, 3, 62, 95
6, 39360, Note_off_c, 3, 59, 95
6, 39360, Note_off_c, 3, 54, 95
6, 41280, Note_on_c, 3, 62, 95
6, 41280, Note_on_c, 3, 59, 95
6, 41280, Note_on_c, 3, 54, 95
6, 41760, Note_off_c, 3, 62, 95
6, 41760, Note_off_c, 3, 59, 95
6, 41760, Note_off_c, 3, 54, 95
6, 42240, Note_on_c, 3, 64, 79
6, 42240, Note_on_c, 3, 61, 79
6, 42240, Note_on_c, 3, 57, 79
6, 42840, Note_off_c, 3, 64, 79
6, 42840, Note_off_c, 3, 61, 79
6, 42840, Note_off_c, 3, 57, 79
6, 42960, Note_on_c, 3, 64, 95
6, 42960, Note_on_c, 3, 61, 95
6, 42960, Note_on_c, 3, 57, 95
6, 43200, Note_off_c, 3, 64, 95
6, 43200, Note_off_c, 3, 61, 95
6, 43200, Note_off_c, 3, 57, 95
6, 45120, Note_on_c, 3, 64, 95
6, 45120, Note_on_c, 3, 61, 95
6, 45120, Note_on_c, 3, 57, 95
6, 45600, Note_off_c, 3, 64, 95
6, 45600, Note_off_c, 3, 61, 95
6, 45600, Note_off_c, 3, 57, 95
6, 46080, Note_on_c, 3, 59, 79
6, 46080, Note_on_c, 3, 55, 79
6, 46080, Note_on_c, 3, 62, 79
6, 46680, Note_off_c, 3, 59, 79
6, 46680, Note_off_c, 3, 55, 79
6, 46680, Note_off_c, 3, 62, 79
6, 47280, Note_on_c, 3, 59, 95
6, 47280, Note_on_c, 3, 55, 95
6, 47280, Note_on_c, 3, 62, 95
6, 47640, Note_off_c, 3, 59, 95
6, 47640, Note_off_c, 3, 55, 95
6, 47640, Note_off_c, 3, 62, 95
6, 48000, Note_on_c, 3, 65, 79
6, 48000, Note_on_c, 3, 62, 79
6, 48000, Note_on_c, 3, 57, 79
6, 48600, Note_off_c, 3, 65, 79
6, 48600, Note_off_c, 3, 62, 79
6, 48600, Note_off_c, 3, 57, 79
6, 49200, Note_on_c, 3, 65, 95
6, 49200, Note_on_c, 3, 62, 95
6, 49200, Note_on_c, 3, 57, 95
6, 49560, Note_off_c, 3, 65, 95
6, 49560, Note_off_c, 3, 62, 95
6, 49560, Note_off_c, 3, 57, 95
6, 49920, Note_on_c, 3, 64, 79
6, 49920, Note_on_c, 3, 61, 79
6, 49920, Note_on_c, 3, 57, 79
6, 50520, Note_off_c, 3, 64, 79
6, 50520, Note_off_c, 3, 61, 79
6, 50520, Note_off_c, 3, 57, 79
6, 51360, Note_on_c, 3, 64, 95
6, 51360, Note_on_c, 3, 61, 95
6, 51360, Note_on_c, 3, 57, 95
6, 51600, Note_off_c, 3, 64, 95
6, 51600, Note_off_c, 3, 61, 95
6, 51600, Note_off_c, 3, 57, 95
6, 51840, Note_on_c, 3, 66, 79
6, 51840, Note_on_c, 3, 61, 79
6, 51840, Note_on_c, 3, 57, 79
6, 52440, Note_off_c, 3, 66, 79
6, 52440, Note_off_c, 3, 61, 79
6, 52440, Note_off_c, 3, 57, 79
6, 52800, Note_on_c, 3, 64, 79
6, 52800, Note_on_c, 3, 59, 79
6, 52800, Note_on_c, 3, 56, 79
6, 53040, Note_off_c, 3, 64, 79
6, 53040, Note_off_c, 3, 59, 79
6, 53040, Note_off_c, 3, 56, 79
6, 53760, Note_on_c, 3, 62, 79
6, 53760, Note_on_c, 3, 59, 79
6, 53760, Note_on_c, 3, 54, 79
6, 55560, Note_off_c, 3, 62, 79
6, 55560, Note_off_c, 3, 59, 79
6, 55560, Note_off_c, 3, 54, 79
6, 57600, Note_on_c, 3, 64, 79
6, 57600, Note_on_c, 3, 61, 79
6, 57600, Note_on_c, 3, 57, 79
6, 58200, Note_off_c, 3, 64, 79
6, 58200, Note_off_c, 3, 61, 79
6, 58200, Note_off_c, 3, 57, 79
6, 58320, Note_on_c, 3, 64, 95
6, 58320, Note_on_c, 3, 61, 95
6, 58320, Note_on_c, 3, 57, 95
6, 58560, Note_off_c, 3, 64, 95
6, 58560, Note_off_c, 3, 61, 95
6, 58560, Note_off_c, 3, 57, 95
6, 60480, Note_on_c, 3, 64, 95
6, 60480, Note_on_c, 3, 61, 95
6, 60480, Note_on_c, 3, 57, 95
6, 60960, Note_off_c, 3, 64, 95
6, 60960, Note_off_c, 3, 61, 95
6, 60960, Note_off_c, 3, 57, 95
6, 61440, Note_on_c, 3, 62, 79
6, 61440, Note_on_c, 3, 59, 79
6, 61440, Note_on_c, 3, 55, 79
6, 62040, Note_off_c, 3, 62, 79
6, 62040, Note_off_c, 3, 59, 79
6, 62040, Note_off_c, 3, 55, 79
6, 62640, Note_on_c, 3, 62, 95
6, 62640, Note_on_c, 3, 59, 95
6, 62640, Note_on_c, 3, 55, 95
6, 63000, Note_off_c, 3, 62, 95
6, 63000, Note_off_c, 3, 59, 95
6, 63000, Note_off_c, 3, 55, 95
6, 63360, Note_on_c, 3, 65, 79
6, 63360, Note_on_c, 3, 62, 79
6, 63360, Note_on_c, 3, 57, 79
6, 63960, Note_off_c, 3, 65, 79
6, 63960, Note_off_c, 3, 62, 79
6, 63960, Note_off_c, 3, 57, 79
6, 64560, Note_on_c, 3, 65, 95
6, 64560, Note_on_c, 3, 62, 95
6, 64560, Note_on_c, 3, 57, 95
6, 64920, Note_off_c, 3, 65, 95
6, 64920, Note_off_c, 3, 62, 95
6, 64920, Note_off_c, 3, 57, 95
6, 65280, Note_on_c, 3, 64, 79
6, 65280, Note_on_c, 3, 61, 79
6, 65280, Note_on_c, 3, 57, 79
6, 65880, Note_off_c, 3, 64, 79
6, 65880, Note_off_c, 3, 61, 79
6, 65880, Note_off_c, 3, 57, 79
6, 66480, Note_on_c, 3, 64, 95
6, 66480, Note_on_c, 3, 61, 95
6, 66480, Note_on_c, 3, 57, 95
6, 66840, Note_off_c, 3, 64, 95
6, 66840, Note_off_c, 3, 61, 95
6, 66840, Note_off_c, 3, 57, 95
6, 67200, Note_on_c, 3, 66, 79
6, 67200, Note_on_c, 3, 61, 79
6, 67200, Note_on_c, 3, 57, 79
6, 67800, Note_off_c, 3, 66, 79
6, 67800, Note_off_c, 3, 61, 79
6, 67800, Note_off_c, 3, 57, 79
6, 68160, Note_on_c, 3, 64, 79
6, 68160, Note_on_c, 3, 59, 79
6, 68160, Note_on_c, 3, 56, 79
6, 68400, Note_off_c, 3, 64, 79
6, 68400, Note_off_c, 3, 59, 79
6, 68400, Note_off_c, 3, 56, 79
6, 69120, Note_on_c, 3, 62, 79
6, 69120, Note_on_c, 3, 59, 79
6, 69120, Note_on_c, 3, 54, 79
6, 69720, Note_off_c, 3, 62, 79
6, 69720, Note_off_c, 3, 59, 79
6, 69720, Note_off_c, 3, 54, 79
6, 69840, Note_on_c, 3, 62, 95
6, 69840, Note_on_c, 3, 59, 95
6, 69840, Note_on_c, 3, 54, 95
6, 70080, Note_off_c, 3, 62, 95
6, 70080, Note_off_c, 3, 59, 95
6, 70080, Note_off_c, 3, 54, 95
6, 72000, Note_on_c, 3, 62, 95
6, 72000, Note_on_c, 3, 59, 95
6, 72000, Note_on_c, 3, 54, 95
6, 72480, Note_off_c, 3, 62, 95
6, 72480, Note_off_c, 3, 59, 95
6, 72480, Note_off_c, 3, 54, 95
6, 72960, Note_on_c, 3, 64, 79
6, 72960, Note_on_c, 3, 61, 79
6, 72960, Note_on_c, 3, 57, 79
6, 74760, Note_off_c, 3, 64, 79
6, 74760, Note_off_c, 3, 61, 79
6, 74760, Note_off_c, 3, 57, 79
6, 76800, Note_on_c, 3, 65, 79
6, 76800, Note_on_c, 3, 62, 79
6, 76800, Note_on_c, 3, 57, 79
6, 77400, Note_off_c, 3, 65, 79
6, 77400, Note_off_c, 3, 62, 79
6, 77400, Note_off_c, 3, 57, 79
6, 77520, Note_on_c, 3, 65, 95
6, 77520, Note_on_c, 3, 62, 95
6, 77520, Note_on_c, 3, 57, 95
6, 77760, Note_off_c, 3, 65, 95
6, 77760, Note_off_c, 3, 62, 95
6, 77760, Note_off_c, 3, 57, 95
6, 79680, Note_on_c, 3, 65, 95
6, 79680, Note_on_c, 3, 62, 95
6, 79680, Note_on_c, 3, 57, 95
6, 80160, Note_off_c, 3, 65, 95
6, 80160, Note_off_c, 3, 62, 95
6, 80160, Note_off_c, 3, 57, 95
6, 80640, Note_on_c, 3, 64, 79
6, 80640, Note_on_c, 3, 59, 79
6, 80640, Note_on_c, 3, 55, 79
6, 81240, Note_off_c, 3, 64, 79
6, 81240, Note_off_c, 3, 59, 79
6, 81240, Note_off_c, 3, 55, 79
6, 81360, Note_on_c, 3, 64, 95
6, 81360, Note_on_c, 3, 59, 95
6, 81360, Note_on_c, 3, 55, 95
6, 81600, Note_off_c, 3, 64, 95
6, 81600, Note_off_c, 3, 59, 95
6, 81600, Note_off_c, 3, 55, 95
6, 83520, Note_on_c, 3, 64, 95
6, 83520, Note_on_c, 3, 59, 95
6, 83520, Note_on_c, 3, 55, 95
6, 84000, Note_off_c, 3, 64, 95
6, 84000, Note_off_c, 3, 59, 95
6, 84000, Note_off_c, 3, 55, 95
6, 84480, Note_on_c, 3, 65, 79
6, 84480, Note_on_c, 3, 60, 79
6, 84480, Note_on_c, 3, 56, 79
6, 85080, Note_off_c, 3, 65, 79
6, 85080, Note_off_c, 3, 60, 79
6, 85080, Note_off_c, 3, 56, 79
6, 85200, Note_on_c, 3, 65, 95
6, 85200, Note_on_c, 3, 60, 95
6, 85200, Note_on_c, 3, 56, 95
6, 85440, Note_off_c, 3, 65, 95
6, 85440, Note_off_c, 3, 60, 95
6, 85440, Note_off_c, 3, 56, 95
6, 87360, Note_on_c, 3, 65, 95
6, 87360, Note_on_c, 3, 60, 95
6, 87360, Note_on_c, 3, 56, 95
6, 87840, Note_off_c, 3, 65, 95
6, 87840, Note_off_c, 3, 60, 95
6, 87840, Note_off_c, 3, 56, 95
6, 88320, Note_on_c, 3, 62, 79
6, 88320, Note_on_c, 3, 58, 79
6, 88320, Note_on_c, 3, 55, 79
6, 88920, Note_off_c, 3, 62, 79
6, 88920, Note_off_c, 3, 58, 79
6, 88920, Note_off_c, 3, 55, 79
6, 89040, Note_on_c, 3, 62, 95
6, 89040, Note_on_c, 3, 58, 95
6, 89040, Note_on_c, 3, 55, 95
6, 89280, Note_off_c, 3, 62, 95
6, 89280, Note_off_c, 3, 58, 95
6, 89280, Note_off_c, 3, 55, 95
6, 91200, Note_on_c, 3, 62, 95
6, 91200, Note_on_c, 3, 58, 95
6, 91200, Note_on_c, 3, 55, 95
6, 91680, Note_off_c, 3, 62, 95
6, 91680, Note_off_c, 3, 58, 95
6, 91680, Note_off_c, 3, 55, 95
6, 92160, Note_on_c, 3, 65, 79
6, 92160, Note_on_c, 3, 61, 79
6, 92160, Note_on_c, 3, 56, 79
6, 92760, Note_off_c, 3, 65, 79
6, 92760, Note_off_c, 3, 61, 79
6, 92760, Note_off_c, 3, 56, 79
6, 92880, Note_on_c, 3, 65, 95
6, 92880, Note_on_c, 3, 61, 95
6, 92880, Note_on_c, 3, 56, 95
6, 93120, Note_off_c, 3, 65, 95
6, 93120, Note_off_c, 3, 61, 95
6, 93120, Note_off_c, 3, 56, 95
6, 96000, Note_on_c, 3, 65, 79
6, 96000, Note_on_c, 3, 61, 79
6, 96000, Note_on_c, 3, 56, 79
6, 96600, Note_off_c, 3, 65, 79
6, 96600, Note_off_c, 3, 61, 79
6, 96600, Note_off_c, 3, 56, 79
6, 96720, Note_on_c, 3, 65, 95
6, 96720, Note_on_c, 3, 61, 95
6, 96720, Note_on_c, 3, 56, 95
6, 96960, Note_off_c, 3, 65, 95
6, 96960, Note_off_c, 3, 61, 95
6, 96960, Note_off_c, 3, 56, 95
6, 98880, Note_on_c, 3, 65, 95
6, 98880, Note_on_c, 3, 61, 95
6, 98880, Note_on_c, 3, 56, 95
6, 99360, Note_off_c, 3, 65, 95
6, 99360, Note_off_c, 3, 61, 95
6, 99360, Note_off_c, 3, 56, 95
6, 99840, Note_on_c, 3, 63, 79
6, 99840, Note_on_c, 3, 59, 79
6, 99840, Note_on_c, 3, 54, 79
6, 100440, Note_off_c, 3, 63, 79
6, 100440, Note_off_c, 3, 59, 79
6, 100440, Note_off_c, 3, 54, 79
6, 100560, Note_on_c, 3, 63, 95
6, 100560, Note_on_c, 3, 59, 95
6, 100560, Note_on_c, 3, 54, 95
6, 100800, Note_off_c, 3, 63, 95
6, 100800, Note_off_c, 3, 59, 95
6, 100800, Note_off_c, 3, 54, 95
6, 102720, Note_on_c, 3, 63, 95
6, 102720, Note_on_c, 3, 59, 95
6, 102720, Note_on_c, 3, 54, 95
6, 103200, Note_off_c, 3, 63, 95
6, 103200, Note_off_c, 3, 59, 95
6, 103200, Note_off_c, 3, 54, 95
6, 103680, Note_on_c, 3, 63, 79
6, 103680, Note_on_c, 3, 59, 79
6, 103680, Note_on_c, 3, 54, 79
6, 105480, Note_off_c, 3, 63, 79
6, 105480, Note_off_c, 3, 59, 79
6, 105480, Note_off_c, 3, 54, 79
6, 107520, Note_on_c, 3, 64, 79
6, 107520, Note_on_c, 3, 59, 79
6, 107520, Note_on_c, 3, 56, 79
6, 108120, Note_off_c, 3, 64, 79
6, 108120, Note_off_c, 3, 59, 79
6, 108120, Note_off_c, 3, 56, 79
6, 108960, Note_on_c, 3, 64, 95
6, 108960, Note_on_c, 3, 59, 95
6, 108960, Note_on_c, 3, 56, 95
6, 109200, Note_off_c, 3, 64, 95
6, 109200, Note_off_c, 3, 59, 95
6, 109200, Note_off_c, 3, 56, 95
6, 109440, Note_on_c, 3, 63, 79
6, 109440, Note_on_c, 3, 59, 79
6, 109440, Note_on_c, 3, 56, 79
6, 110040, Note_off_c, 3, 63, 79
6, 110040, Note_off_c, 3, 59, 79
6, 110040, Note_off_c, 3, 56, 79
6, 110880, Note_on_c, 3, 63, 95
6, 110880, Note_on_c, 3, 59, 95
6, 110880, Note_on_c, 3, 56, 95
6, 111120, Note_off_c, 3, 63, 95
6, 111120, Note_off_c, 3, 59, 95
6, 111120, Note_off_c, 3, 56, 95
6, 111360, Note_on_c, 3, 66, 79
6, 111360, Note_on_c, 3, 61, 79
6, 111360, Note_on_c, 3, 57, 79
6, 111960, Note_off_c, 3, 66, 79
6, 111960, Note_off_c, 3, 61, 79
6, 111960, Note_off_c, 3, 57, 79
6, 112800, Note_on_c, 3, 66, 95
6, 112800, Note_on_c, 3, 61, 95
6, 112800, Note_on_c, 3, 57, 95
6, 113040, Note_off_c, 3, 66, 95
6, 113040, Note_off_c, 3, 61, 95
6, 113040, Note_off_c, 3, 57, 95
6, 113280, Note_on_c, 3, 63, 79
6, 113280, Note_on_c, 3, 59, 79
6, 113280, Note_on_c, 3, 54, 79
6, 113880, Note_off_c, 3, 63, 79
6, 113880, Note_off_c, 3, 59, 79
6, 113880, Note_off_c, 3, 54, 79
6, 114720, Note_on_c, 3, 63, 95
6, 114720, Note_on_c, 3, 59, 95
6, 114720, Note_on_c, 3, 54, 95
6, 114960, Note_off_c, 3, 63, 95
6, 114960, Note_off_c, 3, 59, 95
6, 114960, Note_off_c, 3, 54, 95
6, 115200, Note_on_c, 3, 64, 79
6, 115200, Note_on_c, 3, 59, 79
6, 115200, Note_on_c, 3, 56, 79
6, 115800, Note_off_c, 3, 64, 79
6, 115800, Note_off_c, 3, 59, 79
6, 115800, Note_off_c, 3, 56, 79
6, 116640, Note_on_c, 3, 64, 95
6, 116640, Note_on_c, 3, 59, 95
6, 116640, Note_on_c, 3, 56, 95
6, 116880, Note_off_c, 3, 64, 95
6, 116880, Note_off_c, 3, 59, 95
6, 116880, Note_off_c, 3, 56, 95
6, 117120, Note_on_c, 3, 63, 79
6, 117120, Note_on_c, 3, 59, 79
6, 117120, Note_on_c, 3, 56, 79
6, 117720, Note_off_c, 3, 63, 79
6, 117720, Note_off_c, 3, 59, 79
6, 117720, Note_off_c, 3, 56, 79
6, 118560, Note_on_c, 3, 63, 95
6, 118560, Note_on_c, 3, 59, 95
6, 118560, Note_on_c, 3, 56, 95
6, 118800, Note_off_c, 3, 63, 95
6, 118800, Note_off_c, 3, 59, 95
6, 118800, Note_off_c, 3, 56, 95
6, 119040, Note_on_c, 3, 69, 79
6, 119040, Note_on_c, 3, 66, 79
6, 119040, Note_on_c, 3, 61, 79
6, 119640, Note_off_c, 3, 69, 79
6, 119640, Note_off_c, 3, 66, 79
6, 119640, Note_off_c, 3, 61, 79
6, 120480, Note_on_c, 3, 69, 95
6, 120480, Note_on_c, 3, 66, 95
6, 120480, Note_on_c, 3, 61, 95
6, 120720, Note_off_c, 3, 69, 95
6, 120720, Note_off_c, 3, 66, 95
6, 120720, Note_off_c, 3, 61, 95
6, 120960, Note_on_c, 3, 63, 79
6, 120960, Note_on_c, 3, 59, 79
6, 120960, Note_on_c, 3, 54, 79
6, 121560, Note_off_c, 3, 63, 79
6, 121560, Note_off_c, 3, 59, 79
6, 121560, Note_off_c, 3, 54, 79
6, 122160, Note_on_c, 3, 63, 95
6, 122160, Note_on_c, 3, 59, 95
6, 122160, Note_on_c, 3, 54, 95
6, 122520, Note_off_c, 3, 63, 95
6, 122520, Note_off_c, 3, 59, 95
6, 122520, Note_off_c, 3, 54, 95
6, 122880, Note_on_c, 3, 64, 79
6, 122880, Note_on_c, 3, 59, 79
6, 122880, Note_on_c, 3, 56, 79
6, 123480, Note_off_c, 3, 64, 79
6, 123480, Note_off_c, 3, 59, 79
6, 123480, Note_off_c, 3, 56, 79
6, 124080, Note_on_c, 3, 64, 95
6, 124080, Note_on_c, 3, 59, 95
6, 124080, Note_on_c, 3, 56, 95
6, 124440, Note_off_c, 3, 64, 95
6, 124440, Note_off_c, 3, 59, 95
6, 124440, Note_off_c, 3, 56, 95
6, 124800, Note_on_c, 3, 63, 79
6, 124800, Note_on_c, 3, 59, 79
6, 124800, Note_on_c, 3, 56, 79
6, 125400, Note_off_c, 3, 63, 79
6, 125400, Note_off_c, 3, 59, 79
6, 125400, Note_off_c, 3, 56, 79
6, 126240, Note_on_c, 3, 63, 95
6, 126240, Note_on_c, 3, 59, 95
6, 126240, Note_on_c, 3, 56, 95
6, 126480, Note_off_c, 3, 63, 95
6, 126480, Note_off_c, 3, 59, 95
6, 126480, Note_off_c, 3, 56, 95
6, 126720, Note_on_c, 3, 66, 79
6, 126720, Note_on_c, 3, 61, 79
6, 126720, Note_on_c, 3, 57, 79
6, 127320, Note_off_c, 3, 66, 79
6, 127320, Note_off_c, 3, 61, 79
6, 127320, Note_off_c, 3, 57, 79
6, 128160, Note_on_c, 3, 66, 95
6, 128160, Note_on_c, 3, 61, 95
6, 128160, Note_on_c, 3, 57, 95
6, 128400, Note_off_c, 3, 66, 95
6, 128400, Note_off_c, 3, 61, 95
6, 128400, Note_off_c, 3, 57, 95
6, 128640, Note_on_c, 3, 63, 79
6, 128640, Note_on_c, 3, 59, 79
6, 128640, Note_on_c, 3, 54, 79
6, 129240, Note_off_c, 3, 63, 79
6, 129240, Note_off_c, 3, 59, 79
6, 129240, Note_off_c, 3, 54, 79
6, 130080, Note_on_c, 3, 63, 95
6, 130080, Note_on_c, 3, 59, 95
6, 130080, Note_on_c, 3, 54, 95
6, 130320, Note_off_c, 3, 63, 95
6, 130320, Note_off_c, 3, 59, 95
6, 130320, Note_off_c, 3, 54, 95
6, 130560, Note_on_c, 3, 64, 79
6, 130560, Note_on_c, 3, 59, 79
6, 130560, Note_on_c, 3, 56, 79
6, 131160, Note_off_c, 3, 64, 79
6, 131160, Note_off_c, 3, 59, 79
6, 131160, Note_off_c, 3, 56, 79
6, 132000, Note_on_c, 3, 64, 95
6, 132000, Note_on_c, 3, 59, 95
6, 132000, Note_on_c, 3, 56, 95
6, 132240, Note_off_c, 3, 64, 95
6, 132240, Note_off_c, 3, 59, 95
6, 132240, Note_off_c, 3, 56, 95
6, 132480, Note_on_c, 3, 63, 79
6, 132480, Note_on_c, 3, 59, 79
6, 132480, Note_on_c, 3, 56, 79
6, 133080, Note_off_c, 3, 63, 79
6, 133080, Note_off_c, 3, 59, 79
6, 133080, Note_off_c, 3, 56, 79
6, 133920, Note_on_c, 3, 63, 95
6, 133920, Note_on_c, 3, 59, 95
6, 133920, Note_on_c, 3, 56, 95
6, 134160, Note_off_c, 3, 63, 95
6, 134160, Note_off_c, 3, 59, 95
6, 134160, Note_off_c, 3, 56, 95
6, 134400, Note_on_c, 3, 61, 79
6, 134400, Note_on_c, 3, 57, 79
6, 134400, Note_on_c, 3, 54, 79
6, 135000, Note_off_c, 3, 61, 79
6, 135000, Note_off_c, 3, 57, 79
6, 135000, Note_off_c, 3, 54, 79
6, 135840, Note_on_c, 3, 61, 95
6, 135840, Note_on_c, 3, 57, 95
6, 135840, Note_on_c, 3, 54, 95
6, 136080, Note_off_c, 3, 61, 95
6, 136080, Note_off_c, 3, 57, 95
6, 136080, Note_off_c, 3, 54, 95
6, 136320, Note_on_c, 3, 63, 79
6, 136320, Note_on_c, 3, 59, 79
6, 136320, Note_on_c, 3, 54, 79
6, 136920, Note_off_c, 3, 63, 79
6, 136920, Note_off_c, 3, 59, 79
6, 136920, Note_off_c, 3, 54, 79
6, 137520, Note_on_c, 3, 63, 95
6, 137520, Note_on_c, 3, 59, 95
6, 137520, Note_on_c, 3, 54, 95
6, 137880, Note_off_c, 3, 63, 95
6, 137880, Note_off_c, 3, 59, 95
6, 137880, Note_off_c, 3, 54, 95
6, 138240, Note_on_c, 3, 64, 79
6, 138240, Note_on_c, 3, 61, 79
6, 138240, Note_on_c, 3, 57, 79
6, 138840, Note_off_c, 3, 64, 79
6, 138840, Note_off_c, 3, 61, 79
6, 138840, Note_off_c, 3, 57, 79
6, 139680, Note_on_c, 3, 64, 95
6, 139680, Note_on_c, 3, 61, 95
6, 139680, Note_on_c, 3, 57, 95
6, 139920, Note_off_c, 3, 64, 95
6, 139920, Note_off_c, 3, 61, 95
6, 139920, Note_off_c, 3, 57, 95
6, 140160, Note_on_c, 3, 63, 79
6, 140160, Note_on_c, 3, 59, 79
6, 140160, Note_on_c, 3, 56, 79
6, 140760, Note_off_c, 3, 63, 79
6, 140760, Note_off_c, 3, 59, 79
6, 140760, Note_off_c, 3, 56, 79
6, 141360, Note_on_c, 3, 63, 95
6, 141360, Note_on_c, 3, 59, 95
6, 141360, Note_on_c, 3, 56, 95
6, 141720, Note_off_c, 3, 63, 95
6, 141720, Note_off_c, 3, 59, 95
6, 141720, Note_off_c, 3, 56, 95
6, 142080, Note_on_c, 3, 64, 79
6, 142080, Note_on_c, 3, 61, 79
6, 142080, Note_on_c, 3, 57, 79
6, 142680, Note_off_c, 3, 64, 79
6, 142680, Note_off_c, 3, 61, 79
6, 142680, Note_off_c, 3, 57, 79
6, 143280, Note_on_c, 3, 64, 95
6, 143280, Note_on_c, 3, 61, 95
6, 143280, Note_on_c, 3, 57, 95
6, 143640, Note_off_c, 3, 64, 95
6, 143640, Note_off_c, 3, 61, 95
6, 143640, Note_off_c, 3, 57, 95
6, 144000, Note_on_c, 3, 63, 79
6, 144000, Note_on_c, 3, 59, 79
6, 144000, Note_on_c, 3, 56, 79
6, 144600, Note_off_c, 3, 63, 79
6, 144600, Note_off_c, 3, 59, 79
6, 144600, Note_off_c, 3, 56, 79
6, 145440, Note_on_c, 3, 63, 95
6, 145440, Note_on_c, 3, 59, 95
6, 145440, Note_on_c, 3, 56, 95
6, 145680, Note_off_c, 3, 63, 95
6, 145680, Note_off_c, 3, 59, 95
6, 145680, Note_off_c, 3, 56, 95
6, 145920, Note_on_c, 3, 64, 79
6, 145920, Note_on_c, 3, 61, 79
6, 145920, Note_on_c, 3, 57, 79
6, 146520, Note_off_c, 3, 64, 79
6, 146520, Note_off_c, 3, 61, 79
6, 146520, Note_off_c, 3, 57, 79
6, 147120, Note_on_c, 3, 64, 95
6, 147120, Note_on_c, 3, 61, 95
6, 147120, Note_on_c, 3, 57, 95
6, 147480, Note_off_c, 3, 64, 95
6, 147480, Note_off_c, 3, 61, 95
6, 147480, Note_off_c, 3, 57, 95
6, 147840, Note_on_c, 3, 63, 79
6, 147840, Note_on_c, 3, 59, 79
6, 147840, Note_on_c, 3, 56, 79
6, 148440, Note_off_c, 3, 63, 79
6, 148440, Note_off_c, 3, 59, 79
6, 148440, Note_off_c, 3, 56, 79
6, 149280, Note_on_c, 3, 63, 95
6, 149280, Note_on_c, 3, 59, 95
6, 149280, Note_on_c, 3, 56, 95
6, 149520, Note_off_c, 3, 63, 95
6, 149520, Note_off_c, 3, 59, 95
6, 149520, Note_off_c, 3, 56, 95
6, 149760, Note_on_c, 3, 64, 79
6, 149760, Note_on_c, 3, 61, 79
6, 149760, Note_on_c, 3, 57, 79
6, 150360, Note_off_c, 3, 64, 79
6, 150360, Note_off_c, 3, 61, 79
6, 150360, Note_off_c, 3, 57, 79
6, 150960, Note_on_c, 3, 64, 95
6, 150960, Note_on_c, 3, 61, 95
6, 150960, Note_on_c, 3, 57, 95
6, 151320, Note_off_c, 3, 64, 95
6, 151320, Note_off_c, 3, 61, 95
6, 151320, Note_off_c, 3, 57, 95
6, 151680, Note_on_c, 3, 63, 79
6, 151680, Note_on_c, 3, 59, 79
6, 151680, Note_on_c, 3, 56, 79
6, 152280, Note_off_c, 3, 63, 79
6, 152280, Note_off_c, 3, 59, 79
6, 152280, Note_off_c, 3, 56, 79
6, 153120, Note_on_c, 3, 63, 95
6, 153120, Note_on_c, 3, 59, 95
6, 153120, Note_on_c, 3, 56, 95
6, 153360, Note_off_c, 3, 63, 95
6, 153360, Note_off_c, 3, 59, 95
6, 153360, Note_off_c, 3, 56, 95
6, 153600, Note_on_c, 3, 64, 79
6, 153600, Note_on_c, 3, 60, 79
6, 153600, Note_on_c, 3, 55, 79
6, 154200, Note_off_c, 3, 64, 79
6, 154200, Note_off_c, 3, 60, 79
6, 154200, Note_off_c, 3, 55, 79
6, 155040, Note_on_c, 3, 64, 95
6, 155040, Note_on_c, 3, 60, 95
6, 155040, Note_on_c, 3, 55, 95
6, 155280, Note_off_c, 3, 64, 95
6, 155280, Note_off_c, 3, 60, 95
6, 155280, Note_off_c, 3, 55, 95
6, 155520, Note_on_c, 3, 66, 79
6, 155520, Note_on_c, 3, 62, 79
6, 155520, Note_on_c, 3, 57, 79
6, 156120, Note_off_c, 3, 66, 79
6, 156120, Note_off_c, 3, 62, 79
6, 156120, Note_off_c, 3, 57, 79
6, 156960, Note_on_c, 3, 66, 95
6, 156960, Note_on_c, 3, 62, 95
6, 156960, Note_on_c, 3, 57, 95
6, 157200, Note_off_c, 3, 66, 95
6, 157200, Note_off_c, 3, 62, 95
6, 157200, Note_off_c, 3, 57, 95
6, 157440, Note_on_c, 3, 65, 79
6, 157440, Note_on_c, 3, 62, 79
6, 157440, Note_on_c, 3, 58, 79
6, 158040, Note_off_c, 3, 65, 79
6, 158040, Note_off_c, 3, 62, 79
6, 158040, Note_off_c, 3, 58, 79
6, 158880, Note_on_c, 3, 65, 95
6, 158880, Note_on_c, 3, 62, 95
6, 158880, Note_on_c, 3, 58, 95
6, 159120, Note_off_c, 3, 65, 95
6, 159120, Note_off_c, 3, 62, 95
6, 159120, Note_off_c, 3, 58, 95
6, 159360, Note_on_c, 3, 67, 79
6, 159360, Note_on_c, 3, 63, 79
6, 159360, Note_on_c, 3, 58, 79
6, 159960, Note_off_c, 3, 67, 79
6, 159960, Note_off_c, 3, 63, 79
6, 159960, Note_off_c, 3, 58, 79
6, 160560, Note_on_c, 3, 67, 95
6, 160560, Note_on_c, 3, 63, 95
6, 160560, Note_on_c, 3, 58, 95
6, 160920, Note_off_c, 3, 67, 95
6, 160920, Note_off_c, 3, 63, 95
6, 160920, Note_off_c, 3, 58, 95
6, 161280, Note_on_c, 3, 63, 79
6, 161280, Note_on_c, 3, 60, 79
6, 161280, Note_on_c, 3, 56, 79
6, 161880, Note_off_c, 3, 63, 79
6, 161880, Note_off_c, 3, 60, 79
6, 161880, Note_off_c, 3, 56, 79
6, 162480, Note_on_c, 3, 63, 95
6, 162480, Note_on_c, 3, 60, 95
6, 162480, Note_on_c, 3, 56, 95
6, 162840, Note_off_c, 3, 63, 95
6, 162840, Note_off_c, 3, 60, 95
6, 162840, Note_off_c, 3, 56, 95
6, 163200, Note_on_c, 3, 65, 79
6, 163200, Note_on_c, 3, 60, 79
6, 163200, Note_on_c, 3, 57, 79
6, 163800, Note_off_c, 3, 65, 79
6, 163800, Note_off_c, 3, 60, 79
6, 163800, Note_off_c, 3, 57, 79
6, 164400, Note_on_c, 3, 65, 95
6, 164400, Note_on_c, 3, 60, 95
6, 164400, Note_on_c, 3, 57, 95
6, 164760, Note_off_c, 3, 65, 95
6, 164760, Note_off_c, 3, 60, 95
6, 164760, Note_off_c, 3, 57, 95
6, 165120, Note_on_c, 3, 59, 79
6, 165120, Note_on_c, 3, 62, 79
6, 165120, Note_on_c, 3, 55, 79
6, 166920, Note_off_c, 3, 59, 79
6, 166920, Note_off_c, 3, 62, 79
6, 166920, Note_off_c, 3, 55, 79
6, 168960, Note_on_c, 3, 59, 79
6, 168960, Note_on_c, 3, 62, 79
6, 168960, Note_on_c, 3, 55, 79
6, 169560, Note_off_c, 3, 59, 79
6, 169560, Note_off_c, 3, 62, 79
6, 169560, Note_off_c, 3, 55, 79
6, 169680, Note_on_c, 3, 59, 95
6, 169680, Note_on_c, 3, 62, 95
6, 169680, Note_on_c, 3, 55, 95
6, 169920, Note_off_c, 3, 59, 95
6, 169920, Note_off_c, 3, 62, 95
6, 169920, Note_off_c, 3, 55, 95
6, 172800, Note_on_c, 3, 65, 79
6, 172800, Note_on_c, 3, 60, 79
6, 172800, Note_on_c, 3, 57, 79
6, 173400, Note_off_c, 3, 65, 79
6, 173400, Note_off_c, 3, 60, 79
6, 173400, Note_off_c, 3, 57, 79
6, 174240, Note_on_c, 3, 65, 95
6, 174240, Note_on_c, 3, 60, 95
6, 174240, Note_on_c, 3, 57, 95
6, 174480, Note_off_c, 3, 65, 95
6, 174480, Note_off_c, 3, 60, 95
6, 174480, Note_off_c, 3, 57, 95
6, 174720, Note_on_c, 3, 64, 79
6, 174720, Note_on_c, 3, 60, 79
6, 174720, Note_on_c, 3, 55, 79
6, 175320, Note_off_c, 3, 64, 79
6, 175320, Note_off_c, 3, 60, 79
6, 175320, Note_off_c, 3, 55, 79
6, 176160, Note_on_c, 3, 64, 95
6, 176160, Note_on_c, 3, 60, 95
6, 176160, Note_on_c, 3, 55, 95
6, 176400, Note_off_c, 3, 64, 95
6, 176400, Note_off_c, 3, 60, 95
6, 176400, Note_off_c, 3, 55, 95
6, 176640, Note_on_c, 3, 64, 79
6, 176640, Note_on_c, 3, 60, 79
6, 176640, Note_on_c, 3, 55, 79
6, 177240, Note_off_c, 3, 64, 79
6, 177240, Note_off_c, 3, 60, 79
6, 177240, Note_off_c, 3, 55, 79
6, 177600, Note_on_c, 3, 62, 79
6, 177600, Note_on_c, 3, 58, 79
6, 177600, Note_on_c, 3, 53, 79
6, 178200, Note_off_c, 3, 62, 79
6, 178200, Note_off_c, 3, 58, 79
6, 178200, Note_off_c, 3, 53, 79
6, 178560, Note_on_c, 3, 65, 79
6, 178560, Note_on_c, 3, 62, 79
6, 178560, Note_on_c, 3, 58, 79
6, 179160, Note_off_c, 3, 65, 79
6, 179160, Note_off_c, 3, 62, 79
6, 179160, Note_off_c, 3, 58, 79
6, 180000, Note_on_c, 3, 65, 95
6, 180000, Note_on_c, 3, 62, 95
6, 180000, Note_on_c, 3, 58, 95
6, 180240, Note_off_c, 3, 65, 95
6, 180240, Note_off_c, 3, 62, 95
6, 180240, Note_off_c, 3, 58, 95
6, 180480, Note_on_c, 3, 65, 79
6, 180480, Note_on_c, 3, 60, 79
6, 180480, Note_on_c, 3, 57, 79
6, 181080, Note_off_c, 3, 65, 79
6, 181080, Note_off_c, 3, 60, 79
6, 181080, Note_off_c, 3, 57, 79
6, 181680, Note_on_c, 3, 65, 95
6, 181680, Note_on_c, 3, 60, 95
6, 181680, Note_on_c, 3, 57, 95
6, 182040, Note_off_c, 3, 65, 95
6, 182040, Note_off_c, 3, 60, 95
6, 182040, Note_off_c, 3, 57, 95
6, 182400, Note_on_c, 3, 64, 79
6, 182400, Note_on_c, 3, 60, 79
6, 182400, Note_on_c, 3, 55, 79
6, 183000, Note_off_c, 3, 64, 79
6, 183000, Note_off_c, 3, 60, 79
6, 183000, Note_off_c, 3, 55, 79
6, 183600, Note_on_c, 3, 64, 95
6, 183600, Note_on_c, 3, 60, 95
6, 183600, Note_on_c, 3, 55, 95
6, 183960, Note_off_c, 3, 64, 95
6, 183960, Note_off_c, 3, 60, 95
6, 183960, Note_off_c, 3, 55, 95
6, 184320, Note_on_c, 3, 64, 79
6, 184320, Note_on_c, 3, 60, 79
6, 184320, Note_on_c, 3, 55, 79
6, 184560, Note_off_c, 3, 64, 79
6, 184560, Note_off_c, 3, 60, 79
6, 184560, Note_off_c, 3, 55, 79
6, 185280, Note_on_c, 3, 62, 79
6, 185280, Note_on_c, 3, 58, 79
6, 185280, Note_on_c, 3, 53, 79
6, 185880, Note_off_c, 3, 62, 79
6, 185880, Note_off_c, 3, 58, 79
6, 185880, Note_off_c, 3, 53, 79
6, 186240, Note_on_c, 3, 62, 79
6, 186240, Note_on_c, 3, 58, 79
6, 186240, Note_on_c, 3, 53, 79
6, 186840, Note_off_c, 3, 62, 79
6, 186840, Note_off_c, 3, 58, 79
6, 186840, Note_off_c, 3, 53, 79
6, 187440, Note_on_c, 3, 62, 95
6, 187440, Note_on_c, 3, 58, 95
6, 187440, Note_on_c, 3, 53, 95
6, 187800, Note_off_c, 3, 62, 95
6, 187800, Note_off_c, 3, 58, 95
6, 187800, Note_off_c, 3, 53, 95
6, 188160, Note_on_c, 3, 65, 79
6, 188160, Note_on_c, 3, 60, 79
6, 188160, Note_on_c, 3, 57, 79
6, 188760, Note_off_c, 3, 65, 79
6, 188760, Note_off_c, 3, 60, 79
6, 188760, Note_off_c, 3, 57, 79
6, 189600, Note_on_c, 3, 65, 95
6, 189600, Note_on_c, 3, 60, 95
6, 189600, Note_on_c, 3, 57, 95
6, 189840, Note_off_c, 3, 65, 95
6, 189840, Note_off_c, 3, 60, 95
6, 189840, Note_off_c, 3, 57, 95
6, 190080, Note_on_c, 3, 64, 79
6, 190080, Note_on_c, 3, 60, 79
6, 190080, Note_on_c, 3, 55, 79
6, 190680, Note_off_c, 3, 64, 79
6, 190680, Note_off_c, 3, 60, 79
6, 190680, Note_off_c, 3, 55, 79
6, 191520, Note_on_c, 3, 64, 95
6, 191520, Note_on_c, 3, 60, 95
6, 191520, Note_on_c, 3, 55, 95
6, 191760, Note_off_c, 3, 64, 95
6, 191760, Note_off_c, 3, 60, 95
6, 191760, Note_off_c, 3, 55, 95
6, 192000, Note_on_c, 3, 64, 79
6, 192000, Note_on_c, 3, 60, 79
6, 192000, Note_on_c, 3, 55, 79
6, 192240, Note_off_c, 3, 64, 79
6, 192240, Note_off_c, 3, 60, 79
6, 192240, Note_off_c, 3, 55, 79
6, 192960, Note_on_c, 3, 65, 79
6, 192960, Note_on_c, 3, 62, 79
6, 192960, Note_on_c, 3, 58, 79
6, 193200, Note_off_c, 3, 65, 79
6, 193200, Note_off_c, 3, 62, 79
6, 193200, Note_off_c, 3, 58, 79
6, 193920, Note_on_c, 3, 65, 79
6, 193920, Note_on_c, 3, 62, 79
6, 193920, Note_on_c, 3, 58, 79
6, 194520, Note_off_c, 3, 65, 79
6, 194520, Note_off_c, 3, 62, 79
6, 194520, Note_off_c, 3, 58, 79
6, 195120, Note_on_c, 3, 65, 95
6, 195120, Note_on_c, 3, 62, 95
6, 195120, Note_on_c, 3, 58, 95
6, 195480, Note_off_c, 3, 65, 95
6, 195480, Note_off_c, 3, 62, 95
6, 195480, Note_off_c, 3, 58, 95
6, 195840, Note_on_c, 3, 65, 79
6, 195840, Note_on_c, 3, 60, 79
6, 195840, Note_on_c, 3, 57, 79
6, 196440, Note_off_c, 3, 65, 79
6, 196440, Note_off_c, 3, 60, 79
6, 196440, Note_off_c, 3, 57, 79
6, 197280, Note_on_c, 3, 65, 95
6, 197280, Note_on_c, 3, 60, 95
6, 197280, Note_on_c, 3, 57, 95
6, 197520, Note_off_c, 3, 65, 95
6, 197520, Note_off_c, 3, 60, 95
6, 197520, Note_off_c, 3, 57, 95
6, 197760, Note_on_c, 3, 64, 79
6, 197760, Note_on_c, 3, 60, 79
6, 197760, Note_on_c, 3, 55, 79
6, 198360, Note_off_c, 3, 64, 79
6, 198360, Note_off_c, 3, 60, 79
6, 198360, Note_off_c, 3, 55, 79
6, 198960, Note_on_c, 3, 64, 95
6, 198960, Note_on_c, 3, 60, 95
6, 198960, Note_on_c, 3, 55, 95
6, 199320, Note_off_c, 3, 64, 95
6, 199320, Note_off_c, 3, 60, 95
6, 199320, Note_off_c, 3, 55, 95
6, 199680, Note_on_c, 3, 64, 79
6, 199680, Note_on_c, 3, 60, 79
6, 199680, Note_on_c, 3, 55, 79
6, 199920, Note_off_c, 3, 64, 79
6, 199920, Note_off_c, 3, 60, 79
6, 199920, Note_off_c, 3, 55, 79
6, 200640, Note_on_c, 3, 62, 79
6, 200640, Note_on_c, 3, 58, 79
6, 200640, Note_on_c, 3, 53, 79
6, 201240, Note_off_c, 3, 62, 79
6, 201240, Note_off_c, 3, 58, 79
6, 201240, Note_off_c, 3, 53, 79
6, 201600, Note_on_c, 3, 65, 79
6, 201600, Note_on_c, 3, 62, 79
6, 201600, Note_on_c, 3, 58, 79
6, 202200, Note_off_c, 3, 65, 79
6, 202200, Note_off_c, 3, 62, 79
6, 202200, Note_off_c, 3, 58, 79
6, 203040, Note_on_c, 3, 65, 95
6, 203040, Note_on_c, 3, 62, 95
6, 203040, Note_on_c, 3, 58, 95
6, 203280, Note_off_c, 3, 65, 95
6, 203280, Note_off_c, 3, 62, 95
6, 203280, Note_off_c, 3, 58, 95
6, 203520, Note_on_c, 3, 64, 79
6, 203520, Note_on_c, 3, 61, 79
6, 203520, Note_on_c, 3, 57, 79
6, 204120, Note_off_c, 3, 64, 79
6, 204120, Note_off_c, 3, 61, 79
6, 204120, Note_off_c, 3, 57, 79
6, 204720, Note_on_c, 3, 64, 95
6, 204720, Note_on_c, 3, 61, 95
6, 204720, Note_on_c, 3, 57, 95
6, 205080, Note_off_c, 3, 64, 95
6, 205080, Note_off_c, 3, 61, 95
6, 205080, Note_off_c, 3, 57, 95
6, 205440, Note_on_c, 3, 63, 79
6, 205440, Note_on_c, 3, 59, 79
6, 205440, Note_on_c, 3, 54, 79
6, 206040, Note_off_c, 3, 63, 79
6, 206040, Note_off_c, 3, 59, 79
6, 206040, Note_off_c, 3, 54, 79
6, 206880, Note_on_c, 3, 63, 95
6, 206880, Note_on_c, 3, 59, 95
6, 206880, Note_on_c, 3, 54, 95
6, 207120, Note_off_c, 3, 63, 95
6, 207120, Note_off_c, 3, 59, 95
6, 207120, Note_off_c, 3, 54, 95
6, 207360, Note_on_c, 3, 62, 79
6, 207360, Note_on_c, 3, 59, 79
6, 207360, Note_on_c, 3, 55, 79
6, 207960, Note_off_c, 3, 62, 79
6, 207960, Note_off_c, 3, 59, 79
6, 207960, Note_off_c, 3, 55, 79
6, 208560, Note_on_c, 3, 62, 95
6, 208560, Note_on_c, 3, 59, 95
6, 208560, Note_on_c, 3, 55, 95
6, 208920, Note_off_c, 3, 62, 95
6, 208920, Note_off_c, 3, 59, 95
6, 208920, Note_off_c, 3, 55, 95
6, 209280, Note_on_c, 3, 64, 79
6, 209280, Note_on_c, 3, 60, 79
6, 209280, Note_on_c, 3, 55, 79
6, 209880, Note_off_c, 3, 64, 79
6, 209880, Note_off_c, 3, 60, 79
6, 209880, Note_off_c, 3, 55, 79
6, 210720, Note_on_c, 3, 64, 95
6, 210720, Note_on_c, 3, 60, 95
6, 210720, Note_on_c, 3, 55, 95
6, 210960, Note_off_c, 3, 64, 95
6, 210960, Note_off_c, 3, 60, 95
6, 210960, Note_off_c, 3, 55, 95
6, 211200, Note_on_c, 3, 65, 79
6, 211200, Note_on_c, 3, 60, 79
6, 211200, Note_on_c, 3, 57, 79
6, 211800, Note_off_c, 3, 65, 79
6, 211800, Note_off_c, 3, 60, 79
6, 211800, Note_off_c, 3, 57, 79
6, 212400, Note_on_c, 3, 65, 95
6, 212400, Note_on_c, 3, 60, 95
6, 212400, Note_on_c, 3, 57, 95
6, 212760, Note_off_c, 3, 65, 95
6, 212760, Note_off_c, 3, 60, 95
6, 212760, Note_off_c, 3, 57, 95
6, 213120, Note_on_c, 3, 66, 79
6, 213120, Note_on_c, 3, 62, 79
6, 213120, Note_on_c, 3, 57, 79
6, 213720, Note_off_c, 3, 66, 79
6, 213720, Note_off_c, 3, 62, 79
6, 213720, Note_off_c, 3, 57, 79
6, 214320, Note_on_c, 3, 66, 95
6, 214320, Note_on_c, 3, 62, 95
6, 214320, Note_on_c, 3, 57, 95
6, 214680, Note_off_c, 3, 66, 95
6, 214680, Note_off_c, 3, 62, 95
6, 214680, Note_off_c, 3, 57, 95
6, 215040, Note_on_c, 3, 64, 79
6, 215040, Note_on_c, 3, 59, 79
6, 215040, Note_on_c, 3, 56, 79
6, 216840, Note_off_c, 3, 64, 79
6, 216840, Note_off_c, 3, 59, 79
6, 216840, Note_off_c, 3, 56, 79
6, 218880, Note_on_c, 3, 64, 79
6, 218880, Note_on_c, 3, 59, 79
6, 218880, Note_on_c, 3, 56, 79
6, 219480, Note_off_c, 3, 64, 79
6, 219480, Note_off_c, 3, 59, 79
6, 219480, Note_off_c, 3, 56, 79
6, 219600, Note_on_c, 3, 64, 95
6, 219600, Note_on_c, 3, 59, 95
6, 219600, Note_on_c, 3, 56, 95
6, 219840, Note_off_c, 3, 64, 95
6, 219840, Note_off_c, 3, 59, 95
6, 219840, Note_off_c, 3, 56, 95
6, 221760, Note_on_c, 3, 64, 95
6, 221760, Note_on_c, 3, 59, 95
6, 221760, Note_on_c, 3, 56, 95
6, 222240, Note_off_c, 3, 64, 95
6, 222240, Note_off_c, 3, 59, 95
6, 222240, Note_off_c, 3, 56, 95
6, 222720, Note_on_c, 3, 62, 79
6, 222720, Note_on_c, 3, 59, 79
6, 222720, Note_on_c, 3, 54, 79
6, 222960, Note_off_c, 3, 62, 79
6, 222960, Note_off_c, 3, 59, 79
6, 222960, Note_off_c, 3, 54, 79
6, 223680, Note_on_c, 3, 59, 79
6, 223680, Note_on_c, 3, 66, 79
6, 223680, Note_on_c, 3, 62, 79
6, 223680, Note_on_c, 3, 57, 79
6, 224280, Note_off_c, 3, 59, 79
6, 224280, Note_off_c, 3, 66, 79
6, 224280, Note_off_c, 3, 62, 79
6, 224280, Note_off_c, 3, 57, 79
6, 224640, Note_on_c, 3, 64, 79
6, 224640, Note_on_c, 3, 59, 79
6, 224640, Note_on_c, 3, 56, 79
6, 224880, Note_off_c, 3, 64, 79
6, 224880, Note_off_c, 3, 59, 79
6, 224880, Note_off_c, 3, 56, 79
6, 225600, Note_on_c, 3, 62, 79
6, 225600, Note_on_c, 3, 59, 79
6, 225600, Note_on_c, 3, 54, 79
6, 225840, Note_off_c, 3, 62, 79
6, 225840, Note_off_c, 3, 59, 79
6, 225840, Note_off_c, 3, 54, 79
6, 226560, Note_on_c, 3, 64, 79
6, 226560, Note_on_c, 3, 61, 79
6, 226560, Note_on_c, 3, 57, 79
6, 227160, Note_off_c, 3, 64, 79
6, 227160, Note_off_c, 3, 61, 79
6, 227160, Note_off_c, 3, 57, 79
6, 227520, Note_on_c, 3, 62, 79
6, 227520, Note_on_c, 3, 59, 79
6, 227520, Note_on_c, 3, 54, 79
6, 228120, Note_off_c, 3, 62, 79
6, 228120, Note_off_c, 3, 59, 79
6, 228120, Note_off_c, 3, 54, 79
6, 228480, Note_on_c, 3, 64, 79
6, 228480, Note_on_c, 3, 59, 79
6, 228480, Note_on_c, 3, 56, 79
6, 228960, Note_off_c, 3, 64, 79
6, 228960, Note_off_c, 3, 59, 79
6, 228960, Note_off_c, 3, 56, 79
6, 228960, Note_on_c, 3, 59, 95
6, 229080, Note_off_c, 3, 59, 95
6, 229080, Note_on_c, 3, 66, 95
6, 229200, Note_off_c, 3, 66, 95
6, 229320, Note_on_c, 3, 71, 95
6, 229440, Note_off_c, 3, 71, 95
6, 229440, Note_on_c, 3, 76, 95
6, 229680, Note_off_c, 3, 76, 95
6, 229680, Note_on_c, 3, 83, 95
6, 229680, Note_on_c, 3, 55, 95
6, 229680, Note_on_c, 3, 59, 95
6, 229680, Note_on_c, 3, 51, 95
6, 229800, Note_off_c, 3, 83, 95
6, 229800, Note_off_c, 3, 55, 95
6, 229800, Note_off_c, 3, 59, 95
6, 229800, Note_off_c, 3, 51, 95
6, 229800, Note_on_c, 3, 76, 95
6, 230040, Note_off_c, 3, 76, 95
6, 230040, Note_on_c, 3, 71, 95
6, 230160, Note_off_c, 3, 71, 95
6, 230160, Note_on_c, 3, 64, 95
6, 230400, Note_off_c, 3, 64, 95
6, 230400, Note_on_c, 3, 62, 79
6, 230400, Note_on_c, 3, 59, 79
6, 230400, Note_on_c, 3, 54, 79
6, 230400, Note_on_c, 3, 47, 95
6, 231360, Note_off_c, 3, 62, 79
6, 231360, Note_off_c, 3, 59, 79
6, 231360, Note_off_c, 3, 54, 79
6, 231360, Note_off_c, 3, 47, 95
6, 231360, Note_on_c, 3, 59, 79
6, 231360, Note_on_c, 3, 66, 79
6, 231360, Note_on_c, 3, 62, 79
6, 231360, Note_on_c, 3, 57, 79
6, 231960, Note_off_c, 3, 59, 79
6, 231960, Note_off_c, 3, 66, 79
6, 231960, Note_off_c, 3, 62, 79
6, 231960, Note_off_c, 3, 57, 79
6, 232320, Note_on_c, 3, 64, 79
6, 232320, Note_on_c, 3, 59, 79
6, 232320, Note_on_c, 3, 56, 79
6, 232560, Note_off_c, 3, 64, 79
6, 232560, Note_off_c, 3, 59, 79
6, 232560, Note_off_c, 3, 56, 79
6, 233280, Note_on_c, 3, 59, 79
6, 233280, Note_on_c, 3, 66, 79
6, 233280, Note_on_c, 3, 62, 79
6, 233880, Note_off_c, 3, 59, 79
6, 233880, Note_off_c, 3, 66, 79
6, 233880, Note_off_c, 3, 62, 79
6, 234240, Note_on_c, 3, 64, 79
6, 234240, Note_on_c, 3, 61, 79
6, 234240, Note_on_c, 3, 57, 79
6, 234480, Note_off_c, 3, 64, 79
6, 234480, Note_off_c, 3, 61, 79
6, 234480, Note_off_c, 3, 57, 79
6, 235200, Note_on_c, 3, 59, 79
6, 235200, Note_on_c, 3, 62, 79
6, 235200, Note_on_c, 3, 54, 79
6, 235440, Note_off_c, 3, 59, 79
6, 235440, Note_off_c, 3, 62, 79
6, 235440, Note_off_c, 3, 54, 79
6, 236160, Note_on_c, 3, 64, 79
6, 236160, Note_on_c, 3, 59, 79
6, 236160, Note_on_c, 3, 56, 79
6, 236640, Note_off_c, 3, 64, 79
6, 236640, Note_off_c, 3, 59, 79
6, 236640, Note_off_c, 3, 56, 79
6, 236640, Note_on_c, 3, 59, 95
6, 236760, Note_off_c, 3, 59, 95
6, 236760, Note_on_c, 3, 66, 95
6, 236880, Note_off_c, 3, 66, 95
6, 237000, Note_on_c, 3, 71, 95
6, 237120, Note_off_c, 3, 71, 95
6, 237120, Note_on_c, 3, 76, 95
6, 237360, Note_off_c, 3, 76, 95
6, 237360, Note_on_c, 3, 83, 95
6, 237480, Note_off_c, 3, 83, 95
6, 237480, Note_on_c, 3, 76, 95
6, 237600, Note_off_c, 3, 76, 95
6, 237600, Note_on_c, 3, 64, 95
6, 237600, Note_on_c, 3, 59, 95
6, 237600, Note_on_c, 3, 56, 95
6, 237720, Note_off_c, 3, 64, 95
6, 237720, Note_off_c, 3, 59, 95
6, 237720, Note_off_c, 3, 56, 95
6, 237720, Note_on_c, 3, 71, 95
6, 237840, Note_off_c, 3, 71, 95
6, 237840, Note_on_c, 3, 64, 95
6, 238080, Note_off_c, 3, 64, 95
6, 238080, Note_on_c, 3, 62, 79
6, 238080, Note_on_c, 3, 59, 79
6, 238080, Note_on_c, 3, 54, 79
6, 238080, Note_on_c, 3, 47, 95
6, 239040, Note_off_c, 3, 62, 79
6, 239040, Note_off_c, 3, 59, 79
6, 239040, Note_off_c, 3, 54, 79
6, 239040, Note_off_c, 3, 47, 95
6, 239040, Note_on_c, 3, 59, 79
6, 239040, Note_on_c, 3, 66, 79
6, 239040, Note_on_c, 3, 62, 79
6, 239040, Note_on_c, 3, 57, 79
6, 239280, Note_off_c, 3, 59, 79
6, 239280, Note_off_c, 3, 66, 79
6, 239280, Note_off_c, 3, 62, 79
6, 239280, Note_off_c, 3, 57, 79
6, 240000, Note_on_c, 3, 64, 79
6, 240000, Note_on_c, 3, 59, 79
6, 240000, Note_on_c, 3, 56, 79
6, 240600, Note_off_c, 3, 64, 79
6, 240600, Note_off_c, 3, 59, 79
6, 240600, Note_off_c, 3, 56, 79
6, 240960, Note_on_c, 3, 62, 79
6, 240960, Note_on_c, 3, 59, 79
6, 240960, Note_on_c, 3, 54, 79
6, 241200, Note_off_c, 3, 62, 79
6, 241200, Note_off_c, 3, 59, 79
6, 241200, Note_off_c, 3, 54, 79
6, 241920, Note_on_c, 3, 64, 79
6, 241920, Note_on_c, 3, 61, 79
6, 241920, Note_on_c, 3, 57, 79
6, 242520, Note_off_c, 3, 64, 79
6, 242520, Note_off_c, 3, 61, 79
6, 242520, Note_off_c, 3, 57, 79
6, 242880, Note_on_c, 3, 59, 79
6, 242880, Note_on_c, 3, 62, 79
6, 242880, Note_on_c, 3, 54, 79
6, 243480, Note_off_c, 3, 59, 79
6, 243480, Note_off_c, 3, 62, 79
6, 243480, Note_off_c, 3, 54, 79
6, 243840, Note_on_c, 3, 64, 79
6, 243840, Note_on_c, 3, 59, 79
6, 243840, Note_on_c, 3, 56, 79
6, 244320, Note_off_c, 3, 64, 79
6, 244320, Note_off_c, 3, 59, 79
6, 244320, Note_off_c, 3, 56, 79
6, 244320, Note_on_c, 3, 59, 95
6, 244440, Note_off_c, 3, 59, 95
6, 244440, Note_on_c, 3, 66, 95
6, 244560, Note_off_c, 3, 66, 95
6, 244680, Note_on_c, 3, 71, 95
6, 244800, Note_off_c, 3, 71, 95
6, 244800, Note_on_c, 3, 76, 95
6, 245040, Note_off_c, 3, 76, 95
6, 245040, Note_on_c, 3, 83, 95
6, 245160, Note_off_c, 3, 83, 95
6, 245160, Note_on_c, 3, 76, 95
6, 245280, Note_off_c, 3, 76, 95
6, 245280, Note_on_c, 3, 64, 95
6, 245280, Note_on_c, 3, 59, 95
6, 245280, Note_on_c, 3, 56, 95
6, 245400, Note_off_c, 3, 64, 95
6, 245400, Note_off_c, 3, 59, 95
6, 245400, Note_off_c, 3, 56, 95
6, 245400, Note_on_c, 3, 71, 95
6, 245520, Note_off_c, 3, 71, 95
6, 245520, Note_on_c, 3, 64, 95
6, 245760, Note_off_c, 3, 64, 95
6, 245760, Note_on_c, 3, 62, 79
6, 245760, Note_on_c, 3, 59, 79
6, 245760, Note_on_c, 3, 54, 79
6, 245760, Note_on_c, 3, 47, 95
6, 246720, Note_off_c, 3, 62, 79
6, 246720, Note_off_c, 3, 59, 79
6, 246720, Note_off_c, 3, 54, 79
6, 246720, Note_off_c, 3, 47, 95
6, 246720, Note_on_c, 3, 59, 79
6, 246720, Note_on_c, 3, 66, 79
6, 246720, Note_on_c, 3, 62, 79
6, 246720, Note_on_c, 3, 57, 79
6, 246960, Note_off_c, 3, 59, 79
6, 246960, Note_off_c, 3, 66, 79
6, 246960, Note_off_c, 3, 62, 79
6, 246960, Note_off_c, 3, 57, 79
6, 247680, Note_on_c, 3, 64, 79
6, 247680, Note_on_c, 3, 59, 79
6, 247680, Note_on_c, 3, 56, 79
6, 248280, Note_off_c, 3, 64, 79
6, 248280, Note_off_c, 3, 59, 79
6, 248280, Note_off_c, 3, 56, 79
6, 248640, Note_on_c, 3, 62, 79
6, 248640, Note_on_c, 3, 59, 79
6, 248640, Note_on_c, 3, 54, 79
6, 248880, Note_off_c, 3, 62, 79
6, 248880, Note_off_c, 3, 59, 79
6, 248880, Note_off_c, 3, 54, 79
6, 249600, Note_on_c, 3, 64, 79
6, 249600, Note_on_c, 3, 61, 79
6, 249600, Note_on_c, 3, 57, 79
6, 249840, Note_off_c, 3, 64, 79
6, 249840, Note_off_c, 3, 61, 79
6, 249840, Note_off_c, 3, 57, 79
6, 250560, Note_on_c, 3, 59, 79
6, 250560, Note_on_c, 3, 62, 79
6, 250560, Note_on_c, 3, 54, 79
6, 251160, Note_off_c, 3, 59, 79
6, 251160, Note_off_c, 3, 62, 79
6, 251160, Note_off_c, 3, 54, 79
6, 251520, Note_on_c, 3, 64, 79
6, 251520, Note_on_c, 3, 59, 79
6, 251520, Note_on_c, 3, 56, 79
6, 252000, Note_off_c, 3, 64, 79
6, 252000, Note_off_c, 3, 59, 79
6, 252000, Note_off_c, 3, 56, 79
6, 252000, Note_on_c, 3, 59, 95
6, 252120, Note_off_c, 3, 59, 95
6, 252120, Note_on_c, 3, 66, 95
6, 252240, Note_off_c, 3, 66, 95
6, 252360, Note_on_c, 3, 71, 95
6, 252480, Note_off_c, 3, 71, 95
6, 252480, Note_on_c, 3, 76, 95
6, 252720, Note_off_c, 3, 76, 95
6, 252720, Note_on_c, 3, 83, 95
6, 252720, Note_on_c, 3, 55, 95
6, 252720, Note_on_c, 3, 59, 95
6, 252720, Note_on_c, 3, 51, 95
6, 252840, Note_off_c, 3, 83, 95
6, 252840, Note_off_c, 3, 55, 95
6, 252840, Note_off_c, 3, 59, 95
6, 252840, Note_off_c, 3, 51, 95
6, 252840, Note_on_c, 3, 76, 95
6, 253080, Note_off_c, 3, 76, 95
6, 253080, Note_on_c, 3, 71, 95
6, 253200, Note_off_c, 3, 71, 95
6, 253200, Note_on_c, 3, 64, 95
6, 253440, Note_off_c, 3, 64, 95
6, 253440, Note_on_c, 3, 62, 79
6, 253440, Note_on_c, 3, 59, 79
6, 253440, Note_on_c, 3, 54, 79
6, 254040, Note_off_c, 3, 62, 79
6, 254040, Note_off_c, 3, 59, 79
6, 254040, Note_off_c, 3, 54, 79
6, 254160, Note_on_c, 3, 62, 95
6, 254160, Note_on_c, 3, 59, 95
6, 254160, Note_on_c, 3, 54, 95
6, 254400, Note_off_c, 3, 62, 95
6, 254400, Note_off_c, 3, 59, 95
6, 254400, Note_off_c, 3, 54, 95
6, 256320, Note_on_c, 3, 62, 95
6, 256320, Note_on_c, 3, 59, 95
6, 256320, Note_on_c, 3, 54, 95
6, 256800, Note_off_c, 3, 62, 95
6, 256800, Note_off_c, 3, 59, 95
6, 256800, Note_off_c, 3, 54, 95
6, 257280, Note_on_c, 3, 64, 79
6, 257280, Note_on_c, 3, 61, 79
6, 257280, Note_on_c, 3, 57, 79
6, 259080, Note_off_c, 3, 64, 79
6, 259080, Note_off_c, 3, 61, 79
6, 259080, Note_off_c, 3, 57, 79
6, 261120, Note_on_c, 3, 59, 79
6, 261120, Note_on_c, 3, 62, 79
6, 261120, Note_on_c, 3, 55, 79
6, 261720, Note_off_c, 3, 59, 79
6, 261720, Note_off_c, 3, 62, 79
6, 261720, Note_off_c, 3, 55, 79
6, 262560, Note_on_c, 3, 59, 95
6, 262560, Note_on_c, 3, 62, 95
6, 262560, Note_on_c, 3, 55, 95
6, 262800, Note_off_c, 3, 59, 95
6, 262800, Note_off_c, 3, 62, 95
6, 262800, Note_off_c, 3, 55, 95
6, 263040, Note_on_c, 3, 65, 79
6, 263040, Note_on_c, 3, 62, 79
6, 263040, Note_on_c, 3, 57, 79
6, 263640, Note_off_c, 3, 65, 79
6, 263640, Note_off_c, 3, 62, 79
6, 263640, Note_off_c, 3, 57, 79
6, 264240, Note_on_c, 3, 65, 95
6, 264240, Note_on_c, 3, 62, 95
6, 264240, Note_on_c, 3, 57, 95
6, 264600, Note_off_c, 3, 65, 95
6, 264600, Note_off_c, 3, 62, 95
6, 264600, Note_off_c, 3, 57, 95
6, 264960, Note_on_c, 3, 64, 79
6, 264960, Note_on_c, 3, 61, 79
6, 264960, Note_on_c, 3, 57, 79
6, 265560, Note_off_c, 3, 64, 79
6, 265560, Note_off_c, 3, 61, 79
6, 265560, Note_off_c, 3, 57, 79
6, 266400, Note_on_c, 3, 64, 95
6, 266400, Note_on_c, 3, 61, 95
6, 266400, Note_on_c, 3, 57, 95
6, 266640, Note_off_c, 3, 64, 95
6, 266640, Note_off_c, 3, 61, 95
6, 266640, Note_off_c, 3, 57, 95
6, 266880, Note_on_c, 3, 66, 79
6, 266880, Note_on_c, 3, 61, 79
6, 266880, Note_on_c, 3, 57, 79
6, 267480, Note_off_c, 3, 66, 79
6, 267480, Note_off_c, 3, 61, 79
6, 267480, Note_off_c, 3, 57, 79
6, 267840, Note_on_c, 3, 64, 79
6, 267840, Note_on_c, 3, 59, 79
6, 267840, Note_on_c, 3, 56, 79
6, 268080, Note_off_c, 3, 64, 79
6, 268080, Note_off_c, 3, 59, 79
6, 268080, Note_off_c, 3, 56, 79
6, 268800, Note_on_c, 3, 62, 79
6, 268800, Note_on_c, 3, 59, 79
6, 268800, Note_on_c, 3, 54, 79
6, 270600, Note_off_c, 3, 62, 79
6, 270600, Note_off_c, 3, 59, 79
6, 270600, Note_off_c, 3, 54, 79
6, 272640, Note_on_c, 3, 64, 79
6, 272640, Note_on_c, 3, 61, 79
6, 272640, Note_on_c, 3, 57, 79
6, 273240, Note_off_c, 3, 64, 79
6, 273240, Note_off_c, 3, 61, 79
6, 273240, Note_off_c, 3, 57, 79
6, 273360, Note_on_c, 3, 64, 95
6, 273360, Note_on_c, 3, 61, 95
6, 273360, Note_on_c, 3, 57, 95
6, 273600, Note_off_c, 3, 64, 95
6, 273600, Note_off_c, 3, 61, 95
6, 273600, Note_off_c, 3, 57, 95
6, 275520, Note_on_c, 3, 64, 95
6, 275520, Note_on_c, 3, 61, 95
6, 275520, Note_on_c, 3, 57, 95
6, 276000, Note_off_c, 3, 64, 95
6, 276000, Note_off_c, 3, 61, 95
6, 276000, Note_off_c, 3, 57, 95
6, 276480, Note_on_c, 3, 62, 79
6, 276480, Note_on_c, 3, 59, 79
6, 276480, Note_on_c, 3, 55, 79
6, 277080, Note_off_c, 3, 62, 79
6, 277080, Note_off_c, 3, 59, 79
6, 277080, Note_off_c, 3, 55, 79
6, 277680, Note_on_c, 3, 62, 95
6, 277680, Note_on_c, 3, 59, 95
6, 277680, Note_on_c, 3, 55, 95
6, 278040, Note_off_c, 3, 62, 95
6, 278040, Note_off_c, 3, 59, 95
6, 278040, Note_off_c, 3, 55, 95
6, 278400, Note_on_c, 3, 65, 79
6, 278400, Note_on_c, 3, 62, 79
6, 278400, Note_on_c, 3, 57, 79
6, 279000, Note_off_c, 3, 65, 79
6, 279000, Note_off_c, 3, 62, 79
6, 279000, Note_off_c, 3, 57, 79
6, 279600, Note_on_c, 3, 65, 95
6, 279600, Note_on_c, 3, 62, 95
6, 279600, Note_on_c, 3, 57, 95
6, 279960, Note_off_c, 3, 65, 95
6, 279960, Note_off_c, 3, 62, 95
6, 279960, Note_off_c, 3, 57, 95
6, 280320, Note_on_c, 3, 64, 79
6, 280320, Note_on_c, 3, 61, 79
6, 280320, Note_on_c, 3, 57, 79
6, 280920, Note_off_c, 3, 64, 79
6, 280920, Note_off_c, 3, 61, 79
6, 280920, Note_off_c, 3, 57, 79
6, 281520, Note_on_c, 3, 64, 95
6, 281520, Note_on_c, 3, 61, 95
6, 281520, Note_on_c, 3, 57, 95
6, 281880, Note_off_c, 3, 64, 95
6, 281880, Note_off_c, 3, 61, 95
6, 281880, Note_off_c, 3, 57, 95
6, 282240, Note_on_c, 3, 66, 79
6, 282240, Note_on_c, 3, 61, 79
6, 282240, Note_on_c, 3, 57, 79
6, 282480, Note_off_c, 3, 66, 79
6, 282480, Note_off_c, 3, 61, 79
6, 282480, Note_off_c, 3, 57, 79
6, 283200, Note_on_c, 3, 64, 79
6, 283200, Note_on_c, 3, 59, 79
6, 283200, Note_on_c, 3, 56, 79
6, 283800, Note_off_c, 3, 64, 79
6, 283800, Note_off_c, 3, 59, 79
6, 283800, Note_off_c, 3, 56, 79
6, 284160, Note_on_c, 3, 62, 79
6, 284160, Note_on_c, 3, 59, 79
6, 284160, Note_on_c, 3, 54, 79
6, 284760, Note_off_c, 3, 62, 79
6, 284760, Note_off_c, 3, 59, 79
6, 284760, Note_off_c, 3, 54, 79
6, 284880, Note_on_c, 3, 62, 95
6, 284880, Note_on_c, 3, 59, 95
6, 284880, Note_on_c, 3, 54, 95
6, 285120, Note_off_c, 3, 62, 95
6, 285120, Note_off_c, 3, 59, 95
6, 285120, Note_off_c, 3, 54, 95
6, 287040, Note_on_c, 3, 62, 95
6, 287040, Note_on_c, 3, 59, 95
6, 287040, Note_on_c, 3, 54, 95
6, 287520, Note_off_c, 3, 62, 95
6, 287520, Note_off_c, 3, 59, 95
6, 287520, Note_off_c, 3, 54, 95
6, 288000, Note_on_c, 3, 64, 79
6, 288000, Note_on_c, 3, 61, 79
6, 288000, Note_on_c, 3, 57, 79
6, 288600, Note_off_c, 3, 64, 79
6, 288600, Note_off_c, 3, 61, 79
6, 288600, Note_off_c, 3, 57, 79
6, 288720, Note_on_c, 3, 64, 95
6, 288720, Note_on_c, 3, 61, 95
6, 288720, Note_on_c, 3, 57, 95
6, 288960, Note_off_c, 3, 64, 95
6, 288960, Note_off_c, 3, 61, 95
6, 288960, Note_off_c, 3, 57, 95
6, 290880, Note_on_c, 3, 64, 95
6, 290880, Note_on_c, 3, 61, 95
6, 290880, Note_on_c, 3, 57, 95
6, 291360, Note_off_c, 3, 64, 95
6, 291360, Note_off_c, 3, 61, 95
6, 291360, Note_off_c, 3, 57, 95
6, 291840, Note_on_c, 3, 62, 79
6, 291840, Note_on_c, 3, 59, 79
6, 291840, Note_on_c, 3, 55, 79
6, 292440, Note_off_c, 3, 62, 79
6, 292440, Note_off_c, 3, 59, 79
6, 292440, Note_off_c, 3, 55, 79
6, 293280, Note_on_c, 3, 62, 95
6, 293280, Note_on_c, 3, 59, 95
6, 293280, Note_on_c, 3, 55, 95
6, 293520, Note_off_c, 3, 62, 95
6, 293520, Note_off_c, 3, 59, 95
6, 293520, Note_off_c, 3, 55, 95
6, 293760, Note_on_c, 3, 65, 79
6, 293760, Note_on_c, 3, 62, 79
6, 293760, Note_on_c, 3, 57, 79
6, 294360, Note_off_c, 3, 65, 79
6, 294360, Note_off_c, 3, 62, 79
6, 294360, Note_off_c, 3, 57, 79
6, 294960, Note_on_c, 3, 65, 95
6, 294960, Note_on_c, 3, 62, 95
6, 294960, Note_on_c, 3, 57, 95
6, 295320, Note_off_c, 3, 65, 95
6, 295320, Note_off_c, 3, 62, 95
6, 295320, Note_off_c, 3, 57, 95
6, 295680, Note_on_c, 3, 64, 79
6, 295680, Note_on_c, 3, 61, 79
6, 295680, Note_on_c, 3, 57, 79
6, 296280, Note_off_c, 3, 64, 79
6, 296280, Note_off_c, 3, 61, 79
6, 296280, Note_off_c, 3, 57, 79
6, 296880, Note_on_c, 3, 64, 95
6, 296880, Note_on_c, 3, 61, 95
6, 296880, Note_on_c, 3, 57, 95
6, 297240, Note_off_c, 3, 64, 95
6, 297240, Note_off_c, 3, 61, 95
6, 297240, Note_off_c, 3, 57, 95
6, 297600, Note_on_c, 3, 66, 79
6, 297600, Note_on_c, 3, 61, 79
6, 297600, Note_on_c, 3, 57, 79
6, 297840, Note_off_c, 3, 66, 79
6, 297840, Note_off_c, 3, 61, 79
6, 297840, Note_off_c, 3, 57, 79
6, 298560, Note_on_c, 3, 64, 79
6, 298560, Note_on_c, 3, 59, 79
6, 298560, Note_on_c, 3, 56, 79
6, 299160, Note_off_c, 3, 64, 79
6, 299160, Note_off_c, 3, 59, 79
6, 299160, Note_off_c, 3, 56, 79
6, 299520, Note_on_c, 3, 62, 79
6, 299520, Note_on_c, 3, 59, 79
6, 299520, Note_on_c, 3, 54, 79
6, 301320, Note_off_c, 3, 62, 79
6, 301320, Note_off_c, 3, 59, 79
6, 301320, Note_off_c, 3, 54, 79
6, 303360, Note_on_c, 3, 64, 79
6, 303360, Note_on_c, 3, 61, 79
6, 303360, Note_on_c, 3, 57, 79
6, 303960, Note_off_c, 3, 64, 79
6, 303960, Note_off_c, 3, 61, 79
6, 303960, Note_off_c, 3, 57, 79
6, 304080, Note_on_c, 3, 64, 95
6, 304080, Note_on_c, 3, 61, 95
6, 304080, Note_on_c, 3, 57, 95
6, 304320, Note_off_c, 3, 64, 95
6, 304320, Note_off_c, 3, 61, 95
6, 304320, Note_off_c, 3, 57, 95
6, 307200, Note_on_c, 3, 62, 79
6, 307200, Note_on_c, 3, 59, 79
6, 307200, Note_on_c, 3, 55, 79
6, 307800, Note_off_c, 3, 62, 79
6, 307800, Note_off_c, 3, 59, 79
6, 307800, Note_off_c, 3, 55, 79
6, 308400, Note_on_c, 3, 62, 95
6, 308400, Note_on_c, 3, 59, 95
6, 308400, Note_on_c, 3, 55, 95
6, 308760, Note_off_c, 3, 62, 95
6, 308760, Note_off_c, 3, 59, 95
6, 308760, Note_off_c, 3, 55, 95
6, 309120, Note_on_c, 3, 65, 79
6, 309120, Note_on_c, 3, 62, 79
6, 309120, Note_on_c, 3, 57, 79
6, 309720, Note_off_c, 3, 65, 79
6, 309720, Note_off_c, 3, 62, 79
6, 309720, Note_off_c, 3, 57, 79
6, 310320, Note_on_c, 3, 65, 95
6, 310320, Note_on_c, 3, 62, 95
6, 310320, Note_on_c, 3, 57, 95
6, 310680, Note_off_c, 3, 65, 95
6, 310680, Note_off_c, 3, 62, 95
6, 310680, Note_off_c, 3, 57, 95
6, 311040, Note_on_c, 3, 64, 79
6, 311040, Note_on_c, 3, 61, 79
6, 311040, Note_on_c, 3, 57, 79
6, 311640, Note_off_c, 3, 64, 79
6, 311640, Note_off_c, 3, 61, 79
6, 311640, Note_off_c, 3, 57, 79
6, 312480, Note_on_c, 3, 64, 95
6, 312480, Note_on_c, 3, 61, 95
6, 312480, Note_on_c, 3, 57, 95
6, 312720, Note_off_c, 3, 64, 95
6, 312720, Note_off_c, 3, 61, 95
6, 312720, Note_off_c, 3, 57, 95
6, 312960, Note_on_c, 3, 66, 79
6, 312960, Note_on_c, 3, 61, 79
6, 312960, Note_on_c, 3, 57, 79
6, 313200, Note_off_c, 3, 66, 79
6, 313200, Note_off_c, 3, 61, 79
6, 313200, Note_off_c, 3, 57, 79
6, 313920, Note_on_c, 3, 64, 79
6, 313920, Note_on_c, 3, 59, 79
6, 313920, Note_on_c, 3, 56, 79
6, 314520, Note_off_c, 3, 64, 79
6, 314520, Note_off_c, 3, 59, 79
6, 314520, Note_off_c, 3, 56, 79
6, 314520, End_track
7, 0, Start_track
7, 0, Pitch_bend_c, 4, 8192
7, 0, Control_c, 4, 7, 103
7, 0, Control_c, 4, 10, 63
7, 0, Control_c, 4, 93, 0
7, 0, Control_c, 4, 91, 0
7, 0, Control_c, 4, 95, 0
7, 0, Control_c, 4, 92, 0
7, 0, Control_c, 4, 11, 127
7, 0, Program_c, 4, 19
7, 153600, Note_on_c, 4, 79, 95
7, 153840, Note_off_c, 4, 79, 95
7, 153840, Note_on_c, 4, 84, 95
7, 154080, Note_off_c, 4, 84, 95
7, 154080, Note_on_c, 4, 79, 95
7, 154320, Note_off_c, 4, 79, 95
7, 154320, Note_on_c, 4, 77, 95
7, 154560, Note_off_c, 4, 77, 95
7, 154560, Note_on_c, 4, 76, 95
7, 154800, Note_off_c, 4, 76, 95
7, 154800, Note_on_c, 4, 72, 95
7, 155040, Note_off_c, 4, 72, 95
7, 155040, Note_on_c, 4, 79, 95
7, 155280, Note_off_c, 4, 79, 95
7, 155280, Note_on_c, 4, 76, 95
7, 155520, Note_off_c, 4, 76, 95
7, 155520, Note_on_c, 4, 78, 95
7, 155760, Note_off_c, 4, 78, 95
7, 155760, Note_on_c, 4, 74, 95
7, 156000, Note_off_c, 4, 74, 95
7, 156000, Note_on_c, 4, 81, 95
7, 156240, Note_off_c, 4, 81, 95
7, 156240, Note_on_c, 4, 78, 95
7, 156480, Note_off_c, 4, 78, 95
7, 156480, Note_on_c, 4, 86, 95
7, 156720, Note_off_c, 4, 86, 95
7, 156720, Note_on_c, 4, 81, 95
7, 156960, Note_off_c, 4, 81, 95
7, 156960, Note_on_c, 4, 90, 95
7, 157200, Note_off_c, 4, 90, 95
7, 157200, Note_on_c, 4, 93, 95
7, 157440, Note_off_c, 4, 93, 95
7, 157440, Note_on_c, 4, 91, 95
7, 157680, Note_off_c, 4, 91, 95
7, 157680, Note_on_c, 4, 86, 95
7, 157920, Note_off_c, 4, 86, 95
7, 157920, Note_on_c, 4, 81, 95
7, 158160, Note_off_c, 4, 81, 95
7, 158160, Note_on_c, 4, 77, 95
7, 158400, Note_off_c, 4, 77, 95
7, 158400, Note_on_c, 4, 76, 95
7, 158640, Note_off_c, 4, 76, 95
7, 158640, Note_on_c, 4, 77, 95
7, 158880, Note_off_c, 4, 77, 95
7, 158880, Note_on_c, 4, 81, 95
7, 159120, Note_off_c, 4, 81, 95
7, 159120, Note_on_c, 4, 86, 95
7, 159360, Note_off_c, 4, 86, 95
7, 159360, Note_on_c, 4, 89, 95
7, 159600, Note_off_c, 4, 89, 95
7, 159600, Note_on_c, 4, 84, 95
7, 159840, Note_off_c, 4, 84, 95
7, 159840, Note_on_c, 4, 79, 95
7, 160080, Note_off_c, 4, 79, 95
7, 160080, Note_on_c, 4, 75, 95
7, 160320, Note_off_c, 4, 75, 95
7, 160320, Note_on_c, 4, 74, 95
7, 160560, Note_off_c, 4, 74, 95
7, 160560, Note_on_c, 4, 75, 95
7, 160800, Note_off_c, 4, 75, 95
7, 160800, Note_on_c, 4, 82, 95
7, 161040, Note_off_c, 4, 82, 95
7, 161040, Note_on_c, 4, 87, 95
7, 161280, Note_off_c, 4, 87, 95
7, 161520, Note_on_c, 4, 86, 95
7, 161760, Note_off_c, 4, 86, 95
7, 161760, Note_on_c, 4, 89, 95
7, 162000, Note_off_c, 4, 89, 95
7, 162000, Note_on_c, 4, 87, 95
7, 162240, Note_off_c, 4, 87, 95
7, 162240, Note_on_c, 4, 91, 95
7, 162480, Note_off_c, 4, 91, 95
7, 162480, Note_on_c, 4, 89, 95
7, 162720, Note_off_c, 4, 89, 95
7, 162720, Note_on_c, 4, 91, 95
7, 162960, Note_off_c, 4, 91, 95
7, 162960, Note_on_c, 4, 92, 95
7, 163200, Note_off_c, 4, 92, 95
7, 163200, Note_on_c, 4, 91, 95
7, 163440, Note_off_c, 4, 91, 95
7, 163440, Note_on_c, 4, 89, 95
7, 163680, Note_off_c, 4, 89, 95
7, 163680, Note_on_c, 4, 84, 95
7, 163920, Note_off_c, 4, 84, 95
7, 163920, Note_on_c, 4, 89, 95
7, 164160, Note_off_c, 4, 89, 95
7, 164160, Note_on_c, 4, 86, 95
7, 164400, Note_off_c, 4, 86, 95
7, 164400, Note_on_c, 4, 81, 95
7, 164640, Note_off_c, 4, 81, 95
7, 164640, Note_on_c, 4, 77, 95
7, 164880, Note_off_c, 4, 77, 95
7, 164880, Note_on_c, 4, 84, 95
7, 165120, Note_off_c, 4, 84, 95
7, 165120, Note_on_c, 4, 67, 127
7, 165120, Note_on_c, 4, 64, 127
7, 168960, Note_off_c, 4, 67, 127
7, 168960, Note_off_c, 4, 64, 127
7, 203520, Note_on_c, 4, 76, 95
7, 203760, Note_off_c, 4, 76, 95
7, 203760, Note_on_c, 4, 81, 95
7, 204000, Note_off_c, 4, 81, 95
7, 204000, Note_on_c, 4, 76, 95
7, 204240, Note_off_c, 4, 76, 95
7, 204240, Note_on_c, 4, 74, 95
7, 204480, Note_off_c, 4, 74, 95
7, 204480, Note_on_c, 4, 73, 95
7, 204720, Note_off_c, 4, 73, 95
7, 204720, Note_on_c, 4, 69, 95
7, 204960, Note_off_c, 4, 69, 95
7, 204960, Note_on_c, 4, 76, 95
7, 205200, Note_off_c, 4, 76, 95
7, 205200, Note_on_c, 4, 73, 95
7, 205440, Note_off_c, 4, 73, 95
7, 205440, Note_on_c, 4, 75, 95
7, 205680, Note_off_c, 4, 75, 95
7, 205680, Note_on_c, 4, 71, 95
7, 205920, Note_off_c, 4, 71, 95
7, 205920, Note_on_c, 4, 78, 95
7, 206160, Note_off_c, 4, 78, 95
7, 206160, Note_on_c, 4, 75, 95
7, 206400, Note_off_c, 4, 75, 95
7, 206400, Note_on_c, 4, 83, 95
7, 206640, Note_off_c, 4, 83, 95
7, 206640, Note_on_c, 4, 78, 95
7, 206880, Note_off_c, 4, 78, 95
7, 206880, Note_on_c, 4, 87, 95
7, 207120, Note_off_c, 4, 87, 95
7, 207120, Note_on_c, 4, 90, 95
7, 207360, Note_off_c, 4, 90, 95
7, 207360, Note_on_c, 4, 88, 95
7, 207600, Note_off_c, 4, 88, 95
7, 207840, Note_on_c, 4, 90, 95
7, 208080, Note_off_c, 4, 90, 95
7, 208080, Note_on_c, 4, 86, 95
7, 208320, Note_off_c, 4, 86, 95
7, 208320, Note_on_c, 4, 85, 95
7, 208560, Note_off_c, 4, 85, 95
7, 208560, Note_on_c, 4, 86, 95
7, 208800, Note_off_c, 4, 86, 95
7, 208800, Note_on_c, 4, 90, 95
7, 209040, Note_off_c, 4, 90, 95
7, 209280, Note_on_c, 4, 86, 95
7, 209520, Note_off_c, 4, 86, 95
7, 209520, Note_on_c, 4, 91, 95
7, 209760, Note_off_c, 4, 91, 95
7, 209760, Note_on_c, 4, 88, 95
7, 210000, Note_off_c, 4, 88, 95
7, 210000, Note_on_c, 4, 84, 95
7, 210240, Note_off_c, 4, 84, 95
7, 210240, Note_on_c, 4, 83, 95
7, 210480, Note_off_c, 4, 83, 95
7, 210480, Note_on_c, 4, 84, 95
7, 210720, Note_off_c, 4, 84, 95
7, 210720, Note_on_c, 4, 91, 95
7, 210960, Note_off_c, 4, 91, 95
7, 211200, Note_on_c, 4, 83, 95
7, 211440, Note_off_c, 4, 83, 95
7, 211440, Note_on_c, 4, 81, 95
7, 211680, Note_off_c, 4, 81, 95
7, 211680, Note_on_c, 4, 84, 95
7, 211920, Note_off_c, 4, 84, 95
7, 211920, Note_on_c, 4, 83, 95
7, 212160, Note_off_c, 4, 83, 95
7, 212160, Note_on_c, 4, 86, 95
7, 212400, Note_off_c, 4, 86, 95
7, 212400, Note_on_c, 4, 84, 95
7, 212640, Note_off_c, 4, 84, 95
7, 212640, Note_on_c, 4, 88, 95
7, 212880, Note_off_c, 4, 88, 95
7, 212880, Note_on_c, 4, 89, 95
7, 213120, Note_off_c, 4, 89, 95
7, 213120, Note_on_c, 4, 88, 95
7, 213360, Note_off_c, 4, 88, 95
7, 213360, Note_on_c, 4, 86, 95
7, 213600, Note_off_c, 4, 86, 95
7, 213600, Note_on_c, 4, 81, 95
7, 213840, Note_off_c, 4, 81, 95
7, 213840, Note_on_c, 4, 86, 95
7, 214080, Note_off_c, 4, 86, 95
7, 214080, Note_on_c, 4, 83, 95
7, 214320, Note_off_c, 4, 83, 95
7, 214320, Note_on_c, 4, 90, 95
7, 214560, Note_off_c, 4, 90, 95
7, 214560, Note_on_c, 4, 86, 95
7, 214800, Note_off_c, 4, 86, 95
7, 214800, Note_on_c, 4, 93, 95
7, 215040, Note_off_c, 4, 93, 95
7, 215040, Note_on_c, 4, 88, 95
7, 218880, Note_off_c, 4, 88, 95
7, 218880, Note_on_c, 4, 88, 95
7, 219000, Note_off_c, 4, 88, 95
7, 219360, Note_on_c, 4, 88, 95
7, 219480, Note_off_c, 4, 88, 95
7, 219840, Note_on_c, 4, 88, 95
7, 219960, Note_off_c, 4, 88, 95
7, 220320, Note_on_c, 4, 88, 95
7, 220440, Note_off_c, 4, 88, 95
7, 220800, Note_on_c, 4, 88, 95
7, 220920, Note_off_c, 4, 88, 95
7, 221280, Note_on_c, 4, 88, 95
7, 221400, Note_off_c, 4, 88, 95
7, 221760, Note_on_c, 4, 88, 95
7, 221880, Note_off_c, 4, 88, 95
7, 222240, Note_on_c, 4, 88, 95
7, 222360, Note_off_c, 4, 88, 95
7, 222360, End_track
8, 0, Start_track
8, 0, Pitch_bend_c, 5, 8192
8, 0, Control_c, 5, 7, 103
8, 0, Control_c, 5, 10, 63
8, 0, Control_c, 5, 93, 0
8, 0, Control_c, 5, 91, 0
8, 0, Control_c, 5, 95, 0
8, 0, Control_c, 5, 92, 0
8, 0, Control_c, 5, 11, 127
8, 0, Program_c, 5, 71
8, 38400, Note_on_c, 5, 71, 127
8, 39840, Note_off_c, 5, 71, 127
8, 39840, Note_on_c, 5, 71, 127
8, 40080, Note_off_c, 5, 71, 127
8, 40080, Note_on_c, 5, 71, 127
8, 40320, Note_off_c, 5, 71, 127
8, 40320, Note_on_c, 5, 71, 127
8, 40800, Note_off_c, 5, 71, 127
8, 40800, Note_on_c, 5, 73, 127
8, 41280, Note_off_c, 5, 73, 127
8, 41280, Note_on_c, 5, 74, 127
8, 41760, Note_off_c, 5, 74, 127
8, 41760, Note_on_c, 5, 76, 127
8, 42240, Note_off_c, 5, 76, 127
8, 42240, Note_on_c, 5, 73, 127
8, 43200, Note_off_c, 5, 73, 127
8, 43200, Note_on_c, 5, 69, 127
8, 46080, Note_off_c, 5, 69, 127
8, 46080, Note_on_c, 5, 74, 127
8, 47040, Note_off_c, 5, 74, 127
8, 47040, Note_on_c, 5, 74, 127
8, 47160, Note_off_c, 5, 74, 127
8, 47280, Note_on_c, 5, 76, 127
8, 47400, Note_off_c, 5, 76, 127
8, 47400, Note_on_c, 5, 74, 127
8, 47520, Note_off_c, 5, 74, 127
8, 47640, Note_on_c, 5, 73, 127
8, 47760, Note_off_c, 5, 73, 127
8, 47760, Note_on_c, 5, 71, 127
8, 47880, Note_off_c, 5, 71, 127
8, 48000, Note_on_c, 5, 72, 127
8, 48240, Note_off_c, 5, 72, 127
8, 48360, Note_on_c, 5, 71, 127
8, 48600, Note_off_c, 5, 71, 127
8, 48600, Note_on_c, 5, 69, 127
8, 48840, Note_off_c, 5, 69, 127
8, 48960, Note_on_c, 5, 67, 127
8, 49440, Note_off_c, 5, 67, 127
8, 49440, Note_on_c, 5, 62, 127
8, 49920, Note_off_c, 5, 62, 127
8, 49920, Note_on_c, 5, 64, 127
8, 53760, Note_off_c, 5, 64, 127
8, 53760, Note_on_c, 5, 71, 127
8, 55200, Note_off_c, 5, 71, 127
8, 55200, Note_on_c, 5, 71, 127
8, 55440, Note_off_c, 5, 71, 127
8, 55440, Note_on_c, 5, 71, 127
8, 55680, Note_off_c, 5, 71, 127
8, 55680, Note_on_c, 5, 71, 127
8, 56160, Note_off_c, 5, 71, 127
8, 56160, Note_on_c, 5, 73, 127
8, 56640, Note_off_c, 5, 73, 127
8, 56640, Note_on_c, 5, 74, 127
8, 57120, Note_off_c, 5, 74, 127
8, 57120, Note_on_c, 5, 76, 127
8, 57600, Note_off_c, 5, 76, 127
8, 57600, Note_on_c, 5, 73, 127
8, 58560, Note_off_c, 5, 73, 127
8, 58560, Note_on_c, 5, 69, 127
8, 61440, Note_off_c, 5, 69, 127
8, 61440, Note_on_c, 5, 74, 127
8, 62400, Note_off_c, 5, 74, 127
8, 62400, Note_on_c, 5, 74, 127
8, 62520, Note_off_c, 5, 74, 127
8, 62640, Note_on_c, 5, 76, 127
8, 62760, Note_off_c, 5, 76, 127
8, 62760, Note_on_c, 5, 74, 127
8, 62880, Note_off_c, 5, 74, 127
8, 63000, Note_on_c, 5, 73, 127
8, 63120, Note_off_c, 5, 73, 127
8, 63120, Note_on_c, 5, 71, 127
8, 63240, Note_off_c, 5, 71, 127
8, 63360, Note_on_c, 5, 72, 127
8, 63600, Note_off_c, 5, 72, 127
8, 63720, Note_on_c, 5, 71, 127
8, 63960, Note_off_c, 5, 71, 127
8, 63960, Note_on_c, 5, 69, 127
8, 64200, Note_off_c, 5, 69, 127
8, 64320, Note_on_c, 5, 67, 127
8, 64800, Note_off_c, 5, 67, 127
8, 64800, Note_on_c, 5, 62, 127
8, 65280, Note_off_c, 5, 62, 127
8, 65280, Note_on_c, 5, 64, 127
8, 69120, Note_off_c, 5, 64, 127
8, 253440, Note_on_c, 5, 71, 127
8, 254880, Note_off_c, 5, 71, 127
8, 254880, Note_on_c, 5, 71, 127
8, 255120, Note_off_c, 5, 71, 127
8, 255120, Note_on_c, 5, 71, 127
8, 255360, Note_off_c, 5, 71, 127
8, 255360, Note_on_c, 5, 71, 127
8, 255840, Note_off_c, 5, 71, 127
8, 255840, Note_on_c, 5, 73, 127
8, 256320, Note_off_c, 5, 73, 127
8, 256320, Note_on_c, 5, 74, 127
8, 256800, Note_off_c, 5, 74, 127
8, 256800, Note_on_c, 5, 76, 127
8, 257280, Note_off_c, 5, 76, 127
8, 257280, Note_on_c, 5, 73, 127
8, 258240, Note_off_c, 5, 73, 127
8, 258240, Note_on_c, 5, 69, 127
8, 261120, Note_off_c, 5, 69, 127
8, 261120, Note_on_c, 5, 74, 127
8, 262080, Note_off_c, 5, 74, 127
8, 262080, Note_on_c, 5, 74, 127
8, 262200, Note_off_c, 5, 74, 127
8, 262320, Note_on_c, 5, 76, 127
8, 262440, Note_off_c, 5, 76, 127
8, 262440, Note_on_c, 5, 74, 127
8, 262560, Note_off_c, 5, 74, 127
8, 262680, Note_on_c, 5, 73, 127
8, 262800, Note_off_c, 5, 73, 127
8, 262800, Note_on_c, 5, 71, 127
8, 262920, Note_off_c, 5, 71, 127
8, 263040, Note_on_c, 5, 72, 127
8, 263280, Note_off_c, 5, 72, 127
8, 263400, Note_on_c, 5, 71, 127
8, 263640, Note_off_c, 5, 71, 127
8, 263640, Note_on_c, 5, 69, 127
8, 263880, Note_off_c, 5, 69, 127
8, 264000, Note_on_c, 5, 67, 127
8, 264480, Note_off_c, 5, 67, 127
8, 264480, Note_on_c, 5, 62, 127
8, 264960, Note_off_c, 5, 62, 127
8, 264960, Note_on_c, 5, 64, 127
8, 268800, Note_off_c, 5, 64, 127
8, 268800, Note_on_c, 5, 71, 127
8, 270240, Note_off_c, 5, 71, 127
8, 270240, Note_on_c, 5, 71, 127
8, 270480, Note_off_c, 5, 71, 127
8, 270480, Note_on_c, 5, 71, 127
8, 270720, Note_off_c, 5, 71, 127
8, 270720, Note_on_c, 5, 71, 127
8, 271200, Note_off_c, 5, 71, 127
8, 271200, Note_on_c, 5, 73, 127
8, 271680, Note_off_c, 5, 73, 127
8, 271680, Note_on_c, 5, 74, 127
8, 272160, Note_off_c, 5, 74, 127
8, 272160, Note_on_c, 5, 76, 127
8, 272640, Note_off_c, 5, 76, 127
8, 272640, Note_on_c, 5, 73, 127
8, 273600, Note_off_c, 5, 73, 127
8, 273600, Note_on_c, 5, 69, 127
8, 276480, Note_off_c, 5, 69, 127
8, 276480, Note_on_c, 5, 74, 127
8, 277440, Note_off_c, 5, 74, 127
8, 277440, Note_on_c, 5, 74, 127
8, 277560, Note_off_c, 5, 74, 127
8, 277680, Note_on_c, 5, 76, 127
8, 277800, Note_off_c, 5, 76, 127
8, 277800, Note_on_c, 5, 74, 127
8, 277920, Note_off_c, 5, 74, 127
8, 278040, Note_on_c, 5, 73, 127
8, 278160, Note_off_c, 5, 73, 127
8, 278160, Note_on_c, 5, 71, 127
8, 278280, Note_off_c, 5, 71, 127
8, 278400, Note_on_c, 5, 72, 127
8, 278640, Note_off_c, 5, 72, 127
8, 278760, Note_on_c, 5, 71, 127
8, 279000, Note_off_c, 5, 71, 127
8, 279000, Note_on_c, 5, 69, 127
8, 279240, Note_off_c, 5, 69, 127
8, 279360, Note_on_c, 5, 67, 127
8, 279840, Note_off_c, 5, 67, 127
8, 279840, Note_on_c, 5, 62, 127
8, 280320, Note_off_c, 5, 62, 127
8, 280320, Note_on_c, 5, 64, 127
8, 284160, Note_off_c, 5, 64, 127
8, 284160, Note_on_c, 5, 71, 127
8, 285600, Note_off_c, 5, 71, 127
8, 285600, Note_on_c, 5, 71, 127
8, 285840, Note_off_c, 5, 71, 127
8, 285840, Note_on_c, 5, 71, 127
8, 286080, Note_off_c, 5, 71, 127
8, 286080, Note_on_c, 5, 71, 127
8, 286560, Note_off_c, 5, 71, 127
8, 286560, Note_on_c, 5, 73, 127
8, 287040, Note_off_c, 5, 73, 127
8, 287040, Note_on_c, 5, 74, 127
8, 287520, Note_off_c, 5, 74, 127
8, 287520, Note_on_c, 5, 76, 127
8, 288000, Note_off_c, 5, 76, 127
8, 288000, Note_on_c, 5, 73, 127
8, 288960, Note_off_c, 5, 73, 127
8, 288960, Note_on_c, 5, 69, 127
8, 291840, Note_off_c, 5, 69, 127
8, 291840, Note_on_c, 5, 74, 127
8, 292800, Note_off_c, 5, 74, 127
8, 292800, Note_on_c, 5, 74, 127
8, 292920, Note_off_c, 5, 74, 127
8, 293040, Note_on_c, 5, 76, 127
8, 293160, Note_off_c, 5, 76, 127
8, 293160, Note_on_c, 5, 74, 127
8, 293280, Note_off_c, 5, 74, 127
8, 293400, Note_on_c, 5, 73, 127
8, 293520, Note_off_c, 5, 73, 127
8, 293520, Note_on_c, 5, 71, 127
8, 293640, Note_off_c, 5, 71, 127
8, 293760, Note_on_c, 5, 72, 127
8, 294000, Note_off_c, 5, 72, 127
8, 294120, Note_on_c, 5, 71, 127
8, 294360, Note_off_c, 5, 71, 127
8, 294360, Note_on_c, 5, 69, 127
8, 294600, Note_off_c, 5, 69, 127
8, 294720, Note_on_c, 5, 67, 127
8, 295200, Note_off_c, 5, 67, 127
8, 295200, Note_on_c, 5, 62, 127
8, 295680, Note_off_c, 5, 62, 127
8, 295680, Note_on_c, 5, 64, 127
8, 299520, Note_off_c, 5, 64, 127
8, 299520, Note_on_c, 5, 71, 127
8, 300960, Note_off_c, 5, 71, 127
8, 300960, Note_on_c, 5, 71, 127
8, 301200, Note_off_c, 5, 71, 127
8, 301200, Note_on_c, 5, 71, 127
8, 301440, Note_off_c, 5, 71, 127
8, 301440, Note_on_c, 5, 71, 127
8, 301920, Note_off_c, 5, 71, 127
8, 301920, Note_on_c, 5, 73, 127
8, 302400, Note_off_c, 5, 73, 127
8, 302400, Note_on_c, 5, 74, 127
8, 302880, Note_off_c, 5, 74, 127
8, 302880, Note_on_c, 5, 76, 127
8, 303360, Note_off_c, 5, 76, 127
8, 303360, Note_on_c, 5, 73, 127
8, 304320, Note_off_c, 5, 73, 127
8, 304320, Note_on_c, 5, 69, 127
8, 307200, Note_off_c, 5, 69, 127
8, 307200, Note_on_c, 5, 74, 127
8, 308160, Note_off_c, 5, 74, 127
8, 308160, Note_on_c, 5, 74, 127
8, 308280, Note_off_c, 5, 74, 127
8, 308400, Note_on_c, 5, 76, 127
8, 308520, Note_off_c, 5, 76, 127
8, 308520, Note_on_c, 5, 74, 127
8, 308640, Note_off_c, 5, 74, 127
8, 308760, Note_on_c, 5, 73, 127
8, 308880, Note_off_c, 5, 73, 127
8, 308880, Note_on_c, 5, 71, 127
8, 309000, Note_off_c, 5, 71, 127
8, 309120, Note_on_c, 5, 72, 127
8, 309360, Note_off_c, 5, 72, 127
8, 309480, Note_on_c, 5, 71, 127
8, 309720, Note_off_c, 5, 71, 127
8, 309720, Note_on_c, 5, 69, 127
8, 309960, Note_off_c, 5, 69, 127
8, 310080, Note_on_c, 5, 67, 127
8, 310560, Note_off_c, 5, 67, 127
8, 310560, Note_on_c, 5, 62, 127
8, 311040, Note_off_c, 5, 62, 127
8, 311040, Note_on_c, 5, 64, 127
8, 314880, Note_off_c, 5, 64, 127
8, 314880, End_track
9, 0, Start_track
9, 0, Pitch_bend_c, 6, 8192
9, 0, Control_c, 6, 7, 103
9, 0, Control_c, 6, 10, 63
9, 0, Control_c, 6, 93, 0
9, 0, Control_c, 6, 91, 0
9, 0, Control_c, 6, 95, 0
9, 0, Control_c, 6, 92, 0
9, 0, Control_c, 6, 11, 127
9, 0, Program_c, 6, 30
9, 8640, Note_on_c, 6, 74, 127
9, 8640, Note_on_c, 6, 69, 127
9, 8640, Note_on_c, 6, 66, 127
9, 9600, Note_off_c, 6, 74, 127
9, 9600, Note_off_c, 6, 69, 127
9, 9600, Note_off_c, 6, 66, 127
9, 9600, Note_on_c, 6, 73, 127
9, 9600, Note_on_c, 6, 68, 127
9, 9600, Note_on_c, 6, 64, 127
9, 10560, Note_off_c, 6, 73, 127
9, 10560, Note_off_c, 6, 68, 127
9, 10560, Note_off_c, 6, 64, 127
9, 10560, Note_on_c, 6, 71, 127
9, 10560, Note_on_c, 6, 66, 127
9, 10560, Note_on_c, 6, 62, 127
9, 11520, Note_off_c, 6, 71, 127
9, 11520, Note_off_c, 6, 66, 127
9, 11520, Note_off_c, 6, 62, 127
9, 11520, Note_on_c, 6, 69, 127
9, 11520, Note_on_c, 6, 64, 127
9, 11520, Note_on_c, 6, 61, 127
9, 12480, Note_off_c, 6, 69, 127
9, 12480, Note_off_c, 6, 64, 127
9, 12480, Note_off_c, 6, 61, 127
9, 12480, Note_on_c, 6, 71, 127
9, 12480, Note_on_c, 6, 66, 127
9, 12480, Note_on_c, 6, 62, 127
9, 13440, Note_off_c, 6, 71, 127
9, 13440, Note_off_c, 6, 66, 127
9, 13440, Note_off_c, 6, 62, 127
9, 13440, Note_on_c, 6, 68, 127
9, 13440, Note_on_c, 6, 64, 127
9, 13440, Note_on_c, 6, 59, 127
9, 15360, Note_off_c, 6, 68, 127
9, 15360, Note_off_c, 6, 64, 127
9, 15360, Note_off_c, 6, 59, 127
9, 16320, Note_on_c, 6, 74, 127
9, 16320, Note_on_c, 6, 69, 127
9, 16320, Note_on_c, 6, 66, 127
9, 17280, Note_off_c, 6, 74, 127
9, 17280, Note_off_c, 6, 69, 127
9, 17280, Note_off_c, 6, 66, 127
9, 17280, Note_on_c, 6, 73, 127
9, 17280, Note_on_c, 6, 68, 127
9, 17280, Note_on_c, 6, 64, 127
9, 18240, Note_off_c, 6, 73, 127
9, 18240, Note_off_c, 6, 68, 127
9, 18240, Note_off_c, 6, 64, 127
9, 18240, Note_on_c, 6, 71, 127
9, 18240, Note_on_c, 6, 66, 127
9, 18240, Note_on_c, 6, 62, 127
9, 19200, Note_off_c, 6, 71, 127
9, 19200, Note_off_c, 6, 66, 127
9, 19200, Note_off_c, 6, 62, 127
9, 19200, Note_on_c, 6, 69, 127
9, 19200, Note_on_c, 6, 64, 127
9, 19200, Note_on_c, 6, 61, 127
9, 20160, Note_off_c, 6, 69, 127
9, 20160, Note_off_c, 6, 64, 127
9, 20160, Note_off_c, 6, 61, 127
9, 20160, Note_on_c, 6, 71, 127
9, 20160, Note_on_c, 6, 66, 127
9, 20160, Note_on_c, 6, 62, 127
9, 21120, Note_off_c, 6, 71, 127
9, 21120, Note_off_c, 6, 66, 127
9, 21120, Note_off_c, 6, 62, 127
9, 21120, Note_on_c, 6, 68, 127
9, 21120, Note_on_c, 6, 64, 127
9, 21120, Note_on_c, 6, 59, 127
9, 23040, Note_off_c, 6, 68, 127
9, 23040, Note_off_c, 6, 64, 127
9, 23040, Note_off_c, 6, 59, 127
9, 24000, Note_on_c, 6, 74, 127
9, 24000, Note_on_c, 6, 69, 127
9, 24000, Note_on_c, 6, 66, 127
9, 24960, Note_off_c, 6, 74, 127
9, 24960, Note_off_c, 6, 69, 127
9, 24960, Note_off_c, 6, 66, 127
9, 24960, Note_on_c, 6, 73, 127
9, 24960, Note_on_c, 6, 68, 127
9, 24960, Note_on_c, 6, 64, 127
9, 25920, Note_off_c, 6, 73, 127
9, 25920, Note_off_c, 6, 68, 127
9, 25920, Note_off_c, 6, 64, 127
9, 25920, Note_on_c, 6, 71, 127
9, 25920, Note_on_c, 6, 66, 127
9, 25920, Note_on_c, 6, 62, 127
9, 26880, Note_off_c, 6, 71, 127
9, 26880, Note_off_c, 6, 66, 127
9, 26880, Note_off_c, 6, 62, 127
9, 26880, Note_on_c, 6, 69, 127
9, 26880, Note_on_c, 6, 64, 127
9, 26880, Note_on_c, 6, 61, 127
9, 27840, Note_off_c, 6, 69, 127
9, 27840, Note_off_c, 6, 64, 127
9, 27840, Note_off_c, 6, 61, 127
9, 27840, Note_on_c, 6, 71, 127
9, 27840, Note_on_c, 6, 66, 127
9, 27840, Note_on_c, 6, 62, 127
9, 28800, Note_off_c, 6, 71, 127
9, 28800, Note_off_c, 6, 66, 127
9, 28800, Note_off_c, 6, 62, 127
9, 28800, Note_on_c, 6, 68, 127
9, 28800, Note_on_c, 6, 64, 127
9, 28800, Note_on_c, 6, 59, 127
9, 30720, Note_off_c, 6, 68, 127
9, 30720, Note_off_c, 6, 64, 127
9, 30720, Note_off_c, 6, 59, 127
9, 31680, Note_on_c, 6, 74, 127
9, 31680, Note_on_c, 6, 69, 127
9, 31680, Note_on_c, 6, 66, 127
9, 32640, Note_off_c, 6, 74, 127
9, 32640, Note_off_c, 6, 69, 127
9, 32640, Note_off_c, 6, 66, 127
9, 32640, Note_on_c, 6, 73, 127
9, 32640, Note_on_c, 6, 68, 127
9, 32640, Note_on_c, 6, 64, 127
9, 33600, Note_off_c, 6, 73, 127
9, 33600, Note_off_c, 6, 68, 127
9, 33600, Note_off_c, 6, 64, 127
9, 33600, Note_on_c, 6, 71, 127
9, 33600, Note_on_c, 6, 66, 127
9, 33600, Note_on_c, 6, 62, 127
9, 34560, Note_off_c, 6, 71, 127
9, 34560, Note_off_c, 6, 66, 127
9, 34560, Note_off_c, 6, 62, 127
9, 34560, Note_on_c, 6, 69, 127
9, 34560, Note_on_c, 6, 64, 127
9, 34560, Note_on_c, 6, 61, 127
9, 35520, Note_off_c, 6, 69, 127
9, 35520, Note_off_c, 6, 64, 127
9, 35520, Note_off_c, 6, 61, 127
9, 35520, Note_on_c, 6, 71, 127
9, 35520, Note_on_c, 6, 66, 127
9, 35520, Note_on_c, 6, 62, 127
9, 36480, Note_off_c, 6, 71, 127
9, 36480, Note_off_c, 6, 66, 127
9, 36480, Note_off_c, 6, 62, 127
9, 36480, Note_on_c, 6, 68, 127
9, 36480, Note_on_c, 6, 64, 127
9, 36480, Note_on_c, 6, 59, 127
9, 38400, Note_off_c, 6, 68, 127
9, 38400, Note_off_c, 6, 64, 127
9, 38400, Note_off_c, 6, 59, 127
9, 38400, Note_on_c, 6, 71, 127
9, 39840, Note_off_c, 6, 71, 127
9, 39840, Note_on_c, 6, 71, 127
9, 40080, Note_off_c, 6, 71, 127
9, 40080, Note_on_c, 6, 71, 127
9, 40320, Note_off_c, 6, 71, 127
9, 40320, Note_on_c, 6, 71, 127
9, 40800, Note_off_c, 6, 71, 127
9, 40800, Note_on_c, 6, 73, 127
9, 41280, Note_off_c, 6, 73, 127
9, 41280, Note_on_c, 6, 74, 127
9, 41760, Note_off_c, 6, 74, 127
9, 41760, Note_on_c, 6, 76, 127
9, 42240, Note_off_c, 6, 76, 127
9, 42240, Note_on_c, 6, 73, 127
9, 43200, Note_off_c, 6, 73, 127
9, 43200, Note_on_c, 6, 69, 127
9, 46080, Note_off_c, 6, 69, 127
9, 46080, Note_on_c, 6, 74, 127
9, 47040, Note_off_c, 6, 74, 127
9, 47040, Note_on_c, 6, 74, 127
9, 47160, Note_off_c, 6, 74, 127
9, 47280, Note_on_c, 6, 76, 127
9, 47400, Note_off_c, 6, 76, 127
9, 47400, Note_on_c, 6, 74, 127
9, 47520, Note_off_c, 6, 74, 127
9, 47640, Note_on_c, 6, 73, 127
9, 47760, Note_off_c, 6, 73, 127
9, 47760, Note_on_c, 6, 71, 127
9, 47880, Note_off_c, 6, 71, 127
9, 48000, Note_on_c, 6, 72, 127
9, 48240, Note_off_c, 6, 72, 127
9, 48360, Note_on_c, 6, 71, 127
9, 48600, Note_off_c, 6, 71, 127
9, 48600, Note_on_c, 6, 69, 127
9, 48840, Note_off_c, 6, 69, 127
9, 48960, Note_on_c, 6, 67, 127
9, 49440, Note_off_c, 6, 67, 127
9, 49440, Note_on_c, 6, 62, 127
9, 49920, Note_off_c, 6, 62, 127
9, 49920, Note_on_c, 6, 64, 127
9, 53760, Note_off_c, 6, 64, 127
9, 53760, Note_on_c, 6, 71, 127
9, 55200, Note_off_c, 6, 71, 127
9, 55200, Note_on_c, 6, 71, 127
9, 55440, Note_off_c, 6, 71, 127
9, 55440, Note_on_c, 6, 71, 127
9, 55680, Note_off_c, 6, 71, 127
9, 55680, Note_on_c, 6, 71, 127
9, 56160, Note_off_c, 6, 71, 127
9, 56160, Note_on_c, 6, 73, 127
9, 56640, Note_off_c, 6, 73, 127
9, 56640, Note_on_c, 6, 74, 127
9, 57120, Note_off_c, 6, 74, 127
9, 57120, Note_on_c, 6, 76, 127
9, 57600, Note_off_c, 6, 76, 127
9, 57600, Note_on_c, 6, 73, 127
9, 58560, Note_off_c, 6, 73, 127
9, 58560, Note_on_c, 6, 69, 127
9, 61440, Note_off_c, 6, 69, 127
9, 61440, Note_on_c, 6, 74, 127
9, 62400, Note_off_c, 6, 74, 127
9, 62400, Note_on_c, 6, 74, 127
9, 62520, Note_off_c, 6, 74, 127
9, 62640, Note_on_c, 6, 76, 127
9, 62760, Note_off_c, 6, 76, 127
9, 62760, Note_on_c, 6, 74, 127
9, 62880, Note_off_c, 6, 74, 127
9, 63000, Note_on_c, 6, 73, 127
9, 63120, Note_off_c, 6, 73, 127
9, 63120, Note_on_c, 6, 71, 127
9, 63240, Note_off_c, 6, 71, 127
9, 63360, Note_on_c, 6, 72, 127
9, 63600, Note_off_c, 6, 72, 127
9, 63720, Note_on_c, 6, 71, 127
9, 63960, Note_off_c, 6, 71, 127
9, 63960, Note_on_c, 6, 69, 127
9, 64200, Note_off_c, 6, 69, 127
9, 64320, Note_on_c, 6, 67, 127
9, 64800, Note_off_c, 6, 67, 127
9, 64800, Note_on_c, 6, 62, 127
9, 65280, Note_off_c, 6, 62, 127
9, 65280, Note_on_c, 6, 64, 127
9, 69120, Note_off_c, 6, 64, 127
9, 108000, Note_on_c, 6, 73, 127
9, 108960, Note_off_c, 6, 73, 127
9, 108960, Note_on_c, 6, 71, 127
9, 109440, Note_off_c, 6, 71, 127
9, 109440, Note_on_c, 6, 68, 127
9, 110640, Note_off_c, 6, 68, 127
9, 110640, Note_on_c, 6, 73, 127
9, 110880, Note_off_c, 6, 73, 127
9, 110880, Note_on_c, 6, 71, 127
9, 111120, Note_off_c, 6, 71, 127
9, 111120, Note_on_c, 6, 68, 127
9, 111360, Note_off_c, 6, 68, 127
9, 111360, Note_on_c, 6, 66, 127
9, 112080, Note_off_c, 6, 66, 127
9, 112080, Note_on_c, 6, 64, 127
9, 112320, Note_off_c, 6, 64, 127
9, 112320, Note_on_c, 6, 66, 127
9, 113040, Note_off_c, 6, 66, 127
9, 113040, Note_on_c, 6, 64, 127
9, 113280, Note_off_c, 6, 64, 127
9, 113280, Note_on_c, 6, 66, 127
9, 113520, Note_off_c, 6, 66, 127
9, 113520, Note_on_c, 6, 68, 127
9, 113760, Note_off_c, 6, 68, 127
9, 113760, Note_on_c, 6, 71, 127
9, 114000, Note_off_c, 6, 71, 127
9, 115440, Note_on_c, 6, 73, 127
9, 115680, Note_off_c, 6, 73, 127
9, 115680, Note_on_c, 6, 71, 127
9, 115920, Note_off_c, 6, 71, 127
9, 115920, Note_on_c, 6, 68, 127
9, 116160, Note_off_c, 6, 68, 127
9, 116160, Note_on_c, 6, 66, 127
9, 116280, Note_off_c, 6, 66, 127
9, 116280, Note_on_c, 6, 68, 127
9, 116400, Note_off_c, 6, 68, 127
9, 116520, Note_on_c, 6, 66, 127
9, 116640, Note_off_c, 6, 66, 127
9, 116640, Note_on_c, 6, 64, 127
9, 116880, Note_off_c, 6, 64, 127
9, 117360, Note_on_c, 6, 73, 127
9, 117600, Note_off_c, 6, 73, 127
9, 117600, Note_on_c, 6, 71, 127
9, 117840, Note_off_c, 6, 71, 127
9, 117840, Note_on_c, 6, 68, 127
9, 118080, Note_off_c, 6, 68, 127
9, 118080, Note_on_c, 6, 66, 127
9, 118200, Note_off_c, 6, 66, 127
9, 118200, Note_on_c, 6, 68, 127
9, 118320, Note_off_c, 6, 68, 127
9, 118440, Note_on_c, 6, 66, 127
9, 118560, Note_off_c, 6, 66, 127
9, 118560, Note_on_c, 6, 64, 127
9, 118800, Note_off_c, 6, 64, 127
9, 118800, Note_on_c, 6, 66, 127
9, 119040, Note_off_c, 6, 66, 127
9, 119040, Note_on_c, 6, 68, 127
9, 119520, Note_off_c, 6, 68, 127
9, 119520, Note_on_c, 6, 71, 127
9, 119760, Note_off_c, 6, 71, 127
9, 119760, Note_on_c, 6, 68, 127
9, 120240, Note_off_c, 6, 68, 127
9, 120240, Note_on_c, 6, 71, 127
9, 120480, Note_off_c, 6, 71, 127
9, 120480, Note_on_c, 6, 66, 127
9, 120960, Note_off_c, 6, 66, 127
9, 120960, Note_on_c, 6, 66, 127
9, 121680, Note_off_c, 6, 66, 127
9, 121680, Note_on_c, 6, 64, 127
9, 121920, Note_off_c, 6, 64, 127
9, 121920, Note_on_c, 6, 66, 127
9, 122400, Note_off_c, 6, 66, 127
9, 122400, Note_on_c, 6, 64, 127
9, 122880, Note_off_c, 6, 64, 127
9, 123120, Note_on_c, 6, 73, 127
9, 123360, Note_off_c, 6, 73, 127
9, 123360, Note_on_c, 6, 71, 127
9, 123600, Note_off_c, 6, 71, 127
9, 123600, Note_on_c, 6, 68, 127
9, 123840, Note_off_c, 6, 68, 127
9, 123840, Note_on_c, 6, 66, 127
9, 123960, Note_off_c, 6, 66, 127
9, 123960, Note_on_c, 6, 68, 127
9, 124080, Note_off_c, 6, 68, 127
9, 124200, Note_on_c, 6, 66, 127
9, 124320, Note_off_c, 6, 66, 127
9, 124320, Note_on_c, 6, 64, 127
9, 124560, Note_off_c, 6, 64, 127
9, 124560, Note_on_c, 6, 61, 127
9, 124800, Note_off_c, 6, 61, 127
9, 124800, Note_on_c, 6, 64, 127
9, 125280, Note_off_c, 6, 64, 127
9, 125280, Note_on_c, 6, 66, 127
9, 125520, Note_off_c, 6, 66, 127
9, 125520, Note_on_c, 6, 64, 127
9, 125760, Note_off_c, 6, 64, 127
9, 125760, Note_on_c, 6, 66, 127
9, 126240, Note_off_c, 6, 66, 127
9, 126240, Note_on_c, 6, 64, 127
9, 126480, Note_off_c, 6, 64, 127
9, 126480, Note_on_c, 6, 66, 127
9, 126720, Note_off_c, 6, 66, 127
9, 126720, Note_on_c, 6, 68, 127
9, 126960, Note_off_c, 6, 68, 127
9, 126960, Note_on_c, 6, 64, 127
9, 127200, Note_off_c, 6, 64, 127
9, 127200, Note_on_c, 6, 66, 127
9, 128160, Note_off_c, 6, 66, 127
9, 128160, Note_on_c, 6, 66, 127
9, 128400, Note_off_c, 6, 66, 127
9, 128400, Note_on_c, 6, 66, 127
9, 128640, Note_off_c, 6, 66, 127
9, 128640, Note_on_c, 6, 66, 127
9, 128880, Note_off_c, 6, 66, 127
9, 128880, Note_on_c, 6, 64, 127
9, 129120, Note_off_c, 6, 64, 127
9, 129120, Note_on_c, 6, 64, 127
9, 129360, Note_off_c, 6, 64, 127
9, 129360, Note_on_c, 6, 64, 127
9, 129600, Note_off_c, 6, 64, 127
9, 129600, Note_on_c, 6, 64, 127
9, 129840, Note_off_c, 6, 64, 127
9, 129840, Note_on_c, 6, 61, 127
9, 130080, Note_off_c, 6, 61, 127
9, 130080, Note_on_c, 6, 61, 127
9, 130320, Note_off_c, 6, 61, 127
9, 130320, Note_on_c, 6, 61, 127
9, 130560, Note_off_c, 6, 61, 127
9, 130560, Note_on_c, 6, 61, 127
9, 130800, Note_off_c, 6, 61, 127
9, 130800, Note_on_c, 6, 64, 127
9, 131040, Note_off_c, 6, 64, 127
9, 131040, Note_on_c, 6, 61, 127
9, 131760, Note_off_c, 6, 61, 127
9, 131760, Note_on_c, 6, 61, 127
9, 132240, Note_off_c, 6, 61, 127
9, 132240, Note_on_c, 6, 59, 127
9, 132480, Note_off_c, 6, 59, 127
9, 132480, Note_on_c, 6, 61, 127
9, 132720, Note_off_c, 6, 61, 127
9, 132720, Note_on_c, 6, 64, 127
9, 132840, Note_off_c, 6, 64, 127
9, 132840, Note_on_c, 6, 61, 127
9, 132960, Note_off_c, 6, 61, 127
9, 132960, Note_on_c, 6, 59, 127
9, 133200, Note_off_c, 6, 59, 127
9, 133200, Note_on_c, 6, 61, 127
9, 133440, Note_off_c, 6, 61, 127
9, 133440, Note_on_c, 6, 59, 127
9, 133680, Note_off_c, 6, 59, 127
9, 133680, Note_on_c, 6, 61, 127
9, 133920, Note_off_c, 6, 61, 127
9, 133920, Note_on_c, 6, 61, 127
9, 134160, Note_off_c, 6, 61, 127
9, 134160, Note_on_c, 6, 59, 127
9, 134400, Note_off_c, 6, 59, 127
9, 134400, Note_on_c, 6, 64, 127
9, 134880, Note_off_c, 6, 64, 127
9, 134880, Note_on_c, 6, 64, 127
9, 135120, Note_off_c, 6, 64, 127
9, 135120, Note_on_c, 6, 61, 127
9, 135360, Note_off_c, 6, 61, 127
9, 135360, Note_on_c, 6, 64, 127
9, 135600, Note_off_c, 6, 64, 127
9, 135600, Note_on_c, 6, 61, 127
9, 135840, Note_off_c, 6, 61, 127
9, 135840, Note_on_c, 6, 64, 127
9, 136080, Note_off_c, 6, 64, 127
9, 136080, Note_on_c, 6, 61, 127
9, 136320, Note_off_c, 6, 61, 127
9, 136320, Note_on_c, 6, 66, 127
9, 136560, Note_off_c, 6, 66, 127
9, 136560, Note_on_c, 6, 64, 127
9, 138240, Note_off_c, 6, 64, 127
9, 138480, Note_on_c, 6, 68, 127
9, 138720, Note_off_c, 6, 68, 127
9, 138720, Note_on_c, 6, 71, 127
9, 138960, Note_off_c, 6, 71, 127
9, 138960, Note_on_c, 6, 66, 127
9, 139200, Note_off_c, 6, 66, 127
9, 139200, Note_on_c, 6, 68, 127
9, 139440, Note_off_c, 6, 68, 127
9, 139440, Note_on_c, 6, 66, 127
9, 139680, Note_off_c, 6, 66, 127
9, 139680, Note_on_c, 6, 63, 127
9, 139920, Note_off_c, 6, 63, 127
9, 139920, Note_on_c, 6, 56, 127
9, 142080, Note_off_c, 6, 56, 127
9, 142320, Note_on_c, 6, 68, 127
9, 142560, Note_off_c, 6, 68, 127
9, 142560, Note_on_c, 6, 66, 127
9, 142800, Note_off_c, 6, 66, 127
9, 142800, Note_on_c, 6, 64, 127
9, 143040, Note_off_c, 6, 64, 127
9, 143040, Note_on_c, 6, 66, 127
9, 143280, Note_off_c, 6, 66, 127
9, 143520, Note_on_c, 6, 64, 127
9, 143760, Note_off_c, 6, 64, 127
9, 143760, Note_on_c, 6, 66, 127
9, 144000, Note_off_c, 6, 66, 127
9, 144000, Note_on_c, 6, 68, 127
9, 144240, Note_off_c, 6, 68, 127
9, 144240, Note_on_c, 6, 71, 127
9, 144480, Note_off_c, 6, 71, 127
9, 144480, Note_on_c, 6, 68, 127
9, 146160, Note_off_c, 6, 68, 127
9, 146160, Note_on_c, 6, 68, 127
9, 146400, Note_off_c, 6, 68, 127
9, 146400, Note_on_c, 6, 66, 127
9, 146640, Note_off_c, 6, 66, 127
9, 146640, Note_on_c, 6, 63, 127
9, 146880, Note_off_c, 6, 63, 127
9, 146880, Note_on_c, 6, 61, 127
9, 147120, Note_off_c, 6, 61, 127
9, 147360, Note_on_c, 6, 59, 127
9, 147600, Note_off_c, 6, 59, 127
9, 147600, Note_on_c, 6, 61, 127
9, 147840, Note_off_c, 6, 61, 127
9, 147840, Note_on_c, 6, 63, 127
9, 148200, Note_off_c, 6, 63, 127
9, 148200, Note_on_c, 6, 66, 127
9, 148320, Note_off_c, 6, 66, 127
9, 148320, Note_on_c, 6, 61, 127
9, 148800, Note_off_c, 6, 61, 127
9, 148800, Note_on_c, 6, 59, 127
9, 149280, Note_off_c, 6, 59, 127
9, 149760, Note_on_c, 6, 68, 127
9, 149760, Note_on_c, 6, 63, 127
9, 150000, Note_off_c, 6, 68, 127
9, 150000, Note_off_c, 6, 63, 127
9, 150000, Note_on_c, 6, 71, 127
9, 150000, Note_on_c, 6, 66, 127
9, 150240, Note_off_c, 6, 71, 127
9, 150240, Note_off_c, 6, 66, 127
9, 150240, Note_on_c, 6, 68, 127
9, 150240, Note_on_c, 6, 63, 127
9, 150480, Note_off_c, 6, 68, 127
9, 150480, Note_off_c, 6, 63, 127
9, 150480, Note_on_c, 6, 61, 127
9, 151200, Note_off_c, 6, 61, 127
9, 151200, Note_on_c, 6, 61, 127
9, 151440, Note_off_c, 6, 61, 127
9, 151440, Note_on_c, 6, 59, 127
9, 151680, Note_off_c, 6, 59, 127
9, 151680, Note_on_c, 6, 63, 127
9, 151920, Note_off_c, 6, 63, 127
9, 151920, Note_on_c, 6, 61, 127
9, 152160, Note_off_c, 6, 61, 127
9, 152160, Note_on_c, 6, 59, 127
9, 152640, Note_off_c, 6, 59, 127
9, 223680, Note_on_c, 6, 74, 127
9, 223680, Note_on_c, 6, 69, 127
9, 223680, Note_on_c, 6, 66, 127
9, 224640, Note_off_c, 6, 74, 127
9, 224640, Note_off_c, 6, 69, 127
9, 224640, Note_off_c, 6, 66, 127
9, 224640, Note_on_c, 6, 73, 127
9, 224640, Note_on_c, 6, 68, 127
9, 224640, Note_on_c, 6, 64, 127
9, 225600, Note_off_c, 6, 73, 127
9, 225600, Note_off_c, 6, 68, 127
9, 225600, Note_off_c, 6, 64, 127
9, 225600, Note_on_c, 6, 71, 127
9, 225600, Note_on_c, 6, 66, 127
9, 225600, Note_on_c, 6, 62, 127
9, 226560, Note_off_c, 6, 71, 127
9, 226560, Note_off_c, 6, 66, 127
9, 226560, Note_off_c, 6, 62, 127
9, 226560, Note_on_c, 6, 69, 127
9, 226560, Note_on_c, 6, 64, 127
9, 226560, Note_on_c, 6, 61, 127
9, 227520, Note_off_c, 6, 69, 127
9, 227520, Note_off_c, 6, 64, 127
9, 227520, Note_off_c, 6, 61, 127
9, 227520, Note_on_c, 6, 71, 127
9, 227520, Note_on_c, 6, 66, 127
9, 227520, Note_on_c, 6, 62, 127
9, 228480, Note_off_c, 6, 71, 127
9, 228480, Note_off_c, 6, 66, 127
9, 228480, Note_off_c, 6, 62, 127
9, 228480, Note_on_c, 6, 68, 127
9, 228480, Note_on_c, 6, 64, 127
9, 228480, Note_on_c, 6, 59, 127
9, 230400, Note_off_c, 6, 68, 127
9, 230400, Note_off_c, 6, 64, 127
9, 230400, Note_off_c, 6, 59, 127
9, 231360, Note_on_c, 6, 74, 127
9, 231360, Note_on_c, 6, 69, 127
9, 231360, Note_on_c, 6, 66, 127
9, 232320, Note_off_c, 6, 74, 127
9, 232320, Note_off_c, 6, 69, 127
9, 232320, Note_off_c, 6, 66, 127
9, 232320, Note_on_c, 6, 73, 127
9, 232320, Note_on_c, 6, 68, 127
9, 232320, Note_on_c, 6, 64, 127
9, 233280, Note_off_c, 6, 73, 127
9, 233280, Note_off_c, 6, 68, 127
9, 233280, Note_off_c, 6, 64, 127
9, 233280, Note_on_c, 6, 71, 127
9, 233280, Note_on_c, 6, 66, 127
9, 233280, Note_on_c, 6, 62, 127
9, 234240, Note_off_c, 6, 71, 127
9, 234240, Note_off_c, 6, 66, 127
9, 234240, Note_off_c, 6, 62, 127
9, 234240, Note_on_c, 6, 69, 127
9, 234240, Note_on_c, 6, 64, 127
9, 234240, Note_on_c, 6, 61, 127
9, 235200, Note_off_c, 6, 69, 127
9, 235200, Note_off_c, 6, 64, 127
9, 235200, Note_off_c, 6, 61, 127
9, 235200, Note_on_c, 6, 71, 127
9, 235200, Note_on_c, 6, 66, 127
9, 235200, Note_on_c, 6, 62, 127
9, 236160, Note_off_c, 6, 71, 127
9, 236160, Note_off_c, 6, 66, 127
9, 236160, Note_off_c, 6, 62, 127
9, 236160, Note_on_c, 6, 68, 127
9, 236160, Note_on_c, 6, 64, 127
9, 236160, Note_on_c, 6, 59, 127
9, 238080, Note_off_c, 6, 68, 127
9, 238080, Note_off_c, 6, 64, 127
9, 238080, Note_off_c, 6, 59, 127
9, 239040, Note_on_c, 6, 74, 127
9, 239040, Note_on_c, 6, 69, 127
9, 239040, Note_on_c, 6, 66, 127
9, 240000, Note_off_c, 6, 74, 127
9, 240000, Note_off_c, 6, 69, 127
9, 240000, Note_off_c, 6, 66, 127
9, 240000, Note_on_c, 6, 73, 127
9, 240000, Note_on_c, 6, 68, 127
9, 240000, Note_on_c, 6, 64, 127
9, 240960, Note_off_c, 6, 73, 127
9, 240960, Note_off_c, 6, 68, 127
9, 240960, Note_off_c, 6, 64, 127
9, 240960, Note_on_c, 6, 71, 127
9, 240960, Note_on_c, 6, 66, 127
9, 240960, Note_on_c, 6, 62, 127
9, 241920, Note_off_c, 6, 71, 127
9, 241920, Note_off_c, 6, 66, 127
9, 241920, Note_off_c, 6, 62, 127
9, 241920, Note_on_c, 6, 69, 127
9, 241920, Note_on_c, 6, 64, 127
9, 241920, Note_on_c, 6, 61, 127
9, 242880, Note_off_c, 6, 69, 127
9, 242880, Note_off_c, 6, 64, 127
9, 242880, Note_off_c, 6, 61, 127
9, 242880, Note_on_c, 6, 71, 127
9, 242880, Note_on_c, 6, 66, 127
9, 242880, Note_on_c, 6, 62, 127
9, 243840, Note_off_c, 6, 71, 127
9, 243840, Note_off_c, 6, 66, 127
9, 243840, Note_off_c, 6, 62, 127
9, 243840, Note_on_c, 6, 68, 127
9, 243840, Note_on_c, 6, 64, 127
9, 243840, Note_on_c, 6, 59, 127
9, 245760, Note_off_c, 6, 68, 127
9, 245760, Note_off_c, 6, 64, 127
9, 245760, Note_off_c, 6, 59, 127
9, 246720, Note_on_c, 6, 74, 127
9, 246720, Note_on_c, 6, 69, 127
9, 246720, Note_on_c, 6, 66, 127
9, 247680, Note_off_c, 6, 74, 127
9, 247680, Note_off_c, 6, 69, 127
9, 247680, Note_off_c, 6, 66, 127
9, 247680, Note_on_c, 6, 73, 127
9, 247680, Note_on_c, 6, 68, 127
9, 247680, Note_on_c, 6, 64, 127
9, 248640, Note_off_c, 6, 73, 127
9, 248640, Note_off_c, 6, 68, 127
9, 248640, Note_off_c, 6, 64, 127
9, 248640, Note_on_c, 6, 71, 127
9, 248640, Note_on_c, 6, 66, 127
9, 248640, Note_on_c, 6, 62, 127
9, 249600, Note_off_c, 6, 71, 127
9, 249600, Note_off_c, 6, 66, 127
9, 249600, Note_off_c, 6, 62, 127
9, 249600, Note_on_c, 6, 69, 127
9, 249600, Note_on_c, 6, 64, 127
9, 249600, Note_on_c, 6, 61, 127
9, 250560, Note_off_c, 6, 69, 127
9, 250560, Note_off_c, 6, 64, 127
9, 250560, Note_off_c, 6, 61, 127
9, 250560, Note_on_c, 6, 71, 127
9, 250560, Note_on_c, 6, 66, 127
9, 250560, Note_on_c, 6, 62, 127
9, 251520, Note_off_c, 6, 71, 127
9, 251520, Note_off_c, 6, 66, 127
9, 251520, Note_off_c, 6, 62, 127
9, 251520, Note_on_c, 6, 68, 127
9, 251520, Note_on_c, 6, 64, 127
9, 251520, Note_on_c, 6, 59, 127
9, 253440, Note_off_c, 6, 68, 127
9, 253440, Note_off_c, 6, 64, 127
9, 253440, Note_off_c, 6, 59, 127
9, 253440, Note_on_c, 6, 71, 127
9, 254880, Note_off_c, 6, 71, 127
9, 254880, Note_on_c, 6, 71, 127
9, 255120, Note_off_c, 6, 71, 127
9, 255120, Note_on_c, 6, 71, 127
9, 255360, Note_off_c, 6, 71, 127
9, 255360, Note_on_c, 6, 71, 127
9, 255840, Note_off_c, 6, 71, 127
9, 255840, Note_on_c, 6, 73, 127
9, 256320, Note_off_c, 6, 73, 127
9, 256320, Note_on_c, 6, 74, 127
9, 256800, Note_off_c, 6, 74, 127
9, 256800, Note_on_c, 6, 76, 127
9, 257280, Note_off_c, 6, 76, 127
9, 257280, Note_on_c, 6, 73, 127
9, 258240, Note_off_c, 6, 73, 127
9, 258240, Note_on_c, 6, 69, 127
9, 261120, Note_off_c, 6, 69, 127
9, 261120, Note_on_c, 6, 74, 127
9, 262080, Note_off_c, 6, 74, 127
9, 262080, Note_on_c, 6, 74, 127
9, 262200, Note_off_c, 6, 74, 127
9, 262320, Note_on_c, 6, 76, 127
9, 262440, Note_off_c, 6, 76, 127
9, 262440, Note_on_c, 6, 74, 127
9, 262560, Note_off_c, 6, 74, 127
9, 262680, Note_on_c, 6, 73, 127
9, 262800, Note_off_c, 6, 73, 127
9, 262800, Note_on_c, 6, 71, 127
9, 262920, Note_off_c, 6, 71, 127
9, 263040, Note_on_c, 6, 72, 127
9, 263280, Note_off_c, 6, 72, 127
9, 263400, Note_on_c, 6, 71, 127
9, 263640, Note_off_c, 6, 71, 127
9, 263640, Note_on_c, 6, 69, 127
9, 263880, Note_off_c, 6, 69, 127
9, 264000, Note_on_c, 6, 67, 127
9, 264480, Note_off_c, 6, 67, 127
9, 264480, Note_on_c, 6, 62, 127
9, 264960, Note_off_c, 6, 62, 127
9, 264960, Note_on_c, 6, 64, 127
9, 268800, Note_off_c, 6, 64, 127
9, 268800, Note_on_c, 6, 71, 127
9, 270240, Note_off_c, 6, 71, 127
9, 270240, Note_on_c, 6, 71, 127
9, 270480, Note_off_c, 6, 71, 127
9, 270480, Note_on_c, 6, 71, 127
9, 270720, Note_off_c, 6, 71, 127
9, 270720, Note_on_c, 6, 71, 127
9, 271200, Note_off_c, 6, 71, 127
9, 271200, Note_on_c, 6, 73, 127
9, 271680, Note_off_c, 6, 73, 127
9, 271680, Note_on_c, 6, 74, 127
9, 272160, Note_off_c, 6, 74, 127
9, 272160, Note_on_c, 6, 76, 127
9, 272640, Note_off_c, 6, 76, 127
9, 272640, Note_on_c, 6, 73, 127
9, 273600, Note_off_c, 6, 73, 127
9, 273600, Note_on_c, 6, 69, 127
9, 276480, Note_off_c, 6, 69, 127
9, 276480, Note_on_c, 6, 74, 127
9, 277440, Note_off_c, 6, 74, 127
9, 277440, Note_on_c, 6, 74, 127
9, 277560, Note_off_c, 6, 74, 127
9, 277680, Note_on_c, 6, 76, 127
9, 277800, Note_off_c, 6, 76, 127
9, 277800, Note_on_c, 6, 74, 127
9, 277920, Note_off_c, 6, 74, 127
9, 278040, Note_on_c, 6, 73, 127
9, 278160, Note_off_c, 6, 73, 127
9, 278160, Note_on_c, 6, 71, 127
9, 278280, Note_off_c, 6, 71, 127
9, 278400, Note_on_c, 6, 72, 127
9, 278640, Note_off_c, 6, 72, 127
9, 278760, Note_on_c, 6, 71, 127
9, 279000, Note_off_c, 6, 71, 127
9, 279000, Note_on_c, 6, 69, 127
9, 279240, Note_off_c, 6, 69, 127
9, 279360, Note_on_c, 6, 67, 127
9, 279840, Note_off_c, 6, 67, 127
9, 279840, Note_on_c, 6, 62, 127
9, 280320, Note_off_c, 6, 62, 127
9, 280320, Note_on_c, 6, 64, 127
9, 284160, Note_off_c, 6, 64, 127
9, 284160, Note_on_c, 6, 71, 127
9, 285600, Note_off_c, 6, 71, 127
9, 285600, Note_on_c, 6, 71, 127
9, 285840, Note_off_c, 6, 71, 127
9, 285840, Note_on_c, 6, 71, 127
9, 286080, Note_off_c, 6, 71, 127
9, 286080, Note_on_c, 6, 71, 127
9, 286560, Note_off_c, 6, 71, 127
9, 286560, Note_on_c, 6, 73, 127
9, 287040, Note_off_c, 6, 73, 127
9, 287040, Note_on_c, 6, 74, 127
9, 287520, Note_off_c, 6, 74, 127
9, 287520, Note_on_c, 6, 76, 127
9, 288000, Note_off_c, 6, 76, 127
9, 288000, Note_on_c, 6, 73, 127
9, 288960, Note_off_c, 6, 73, 127
9, 288960, Note_on_c, 6, 69, 127
9, 291840, Note_off_c, 6, 69, 127
9, 291840, Note_on_c, 6, 74, 127
9, 292800, Note_off_c, 6, 74, 127
9, 292800, Note_on_c, 6, 74, 127
9, 292920, Note_off_c, 6, 74, 127
9, 293040, Note_on_c, 6, 76, 127
9, 293160, Note_off_c, 6, 76, 127
9, 293160, Note_on_c, 6, 74, 127
9, 293280, Note_off_c, 6, 74, 127
9, 293400, Note_on_c, 6, 73, 127
9, 293520, Note_off_c, 6, 73, 127
9, 293520, Note_on_c, 6, 71, 127
9, 293640, Note_off_c, 6, 71, 127
9, 293760, Note_on_c, 6, 72, 127
9, 294000, Note_off_c, 6, 72, 127
9, 294120, Note_on_c, 6, 71, 127
9, 294360, Note_off_c, 6, 71, 127
9, 294360, Note_on_c, 6, 69, 127
9, 294600, Note_off_c, 6, 69, 127
9, 294720, Note_on_c, 6, 67, 127
9, 295200, Note_off_c, 6, 67, 127
9, 295200, Note_on_c, 6, 62, 127
9, 295680, Note_off_c, 6, 62, 127
9, 295680, Note_on_c, 6, 64, 127
9, 299520, Note_off_c, 6, 64, 127
9, 299520, Note_on_c, 6, 71, 127
9, 300960, Note_off_c, 6, 71, 127
9, 300960, Note_on_c, 6, 71, 127
9, 301200, Note_off_c, 6, 71, 127
9, 301200, Note_on_c, 6, 71, 127
9, 301440, Note_off_c, 6, 71, 127
9, 301440, Note_on_c, 6, 71, 127
9, 301920, Note_off_c, 6, 71, 127
9, 301920, Note_on_c, 6, 73, 127
9, 302400, Note_off_c, 6, 73, 127
9, 302400, Note_on_c, 6, 74, 127
9, 302880, Note_off_c, 6, 74, 127
9, 302880, Note_on_c, 6, 76, 127
9, 303360, Note_off_c, 6, 76, 127
9, 303360, Note_on_c, 6, 73, 127
9, 304320, Note_off_c, 6, 73, 127
9, 304320, Note_on_c, 6, 69, 127
9, 307200, Note_off_c, 6, 69, 127
9, 307200, Note_on_c, 6, 74, 127
9, 308160, Note_off_c, 6, 74, 127
9, 308160, Note_on_c, 6, 74, 127
9, 308280, Note_off_c, 6, 74, 127
9, 308400, Note_on_c, 6, 76, 127
9, 308520, Note_off_c, 6, 76, 127
9, 308520, Note_on_c, 6, 74, 127
9, 308640, Note_off_c, 6, 74, 127
9, 308760, Note_on_c, 6, 73, 127
9, 308880, Note_off_c, 6, 73, 127
9, 308880, Note_on_c, 6, 71, 127
9, 309000, Note_off_c, 6, 71, 127
9, 309120, Note_on_c, 6, 72, 127
9, 309360, Note_off_c, 6, 72, 127
9, 309480, Note_on_c, 6, 71, 127
9, 309720, Note_off_c, 6, 71, 127
9, 309720, Note_on_c, 6, 69, 127
9, 309960, Note_off_c, 6, 69, 127
9, 310080, Note_on_c, 6, 67, 127
9, 310560, Note_off_c, 6, 67, 127
9, 310560, Note_on_c, 6, 62, 127
9, 311040, Note_off_c, 6, 62, 127
9, 311040, Note_on_c, 6, 64, 127
9, 314880, Note_off_c, 6, 64, 127
9, 314880, End_track
0, 0, End_of_file
