0, 0, Header, 1, 4, 960
1, 0, Start_track
1, 0, Control_c, 0, 101, 0
1, 0, Control_c, 0, 100, 0
1, 0, Control_c, 0, 6, 12
1, 0, Control_c, 0, 38, 0
1, 0, Control_c, 1, 101, 0
1, 0, Control_c, 1, 100, 0
1, 0, Control_c, 1, 6, 12
1, 0, Control_c, 1, 38, 0
1, 0, Control_c, 2, 101, 0
1, 0, Control_c, 2, 100, 0
1, 0, Control_c, 2, 6, 12
1, 0, Control_c, 2, 38, 0
1, 0, Control_c, 3, 101, 0
1, 0, Control_c, 3, 100, 0
1, 0, Control_c, 3, 6, 12
1, 0, Control_c, 3, 38, 0
1, 0, Control_c, 4, 101, 0
1, 0, Control_c, 4, 100, 0
1, 0, Control_c, 4, 6, 12
1, 0, Control_c, 4, 38, 0
1, 0, Control_c, 5, 101, 0
1, 0, Control_c, 5, 100, 0
1, 0, Control_c, 5, 6, 12
1, 0, Control_c, 5, 38, 0
1, 0, Control_c, 6, 101, 0
1, 0, Control_c, 6, 100, 0
1, 0, Control_c, 6, 6, 12
1, 0, Control_c, 6, 38, 0
1, 0, Control_c, 7, 101, 0
1, 0, Control_c, 7, 100, 0
1, 0, Control_c, 7, 6, 12
1, 0, Control_c, 7, 38, 0
1, 0, Control_c, 8, 101, 0
1, 0, Control_c, 8, 100, 0
1, 0, Control_c, 8, 6, 12
1, 0, Control_c, 8, 38, 0
1, 0, Control_c, 9, 101, 0
1, 0, Control_c, 9, 100, 0
1, 0, Control_c, 9, 6, 12
1, 0, Control_c, 9, 38, 0
1, 0, Control_c, 10, 101, 0
1, 0, Control_c, 10, 100, 0
1, 0, Control_c, 10, 6, 12
1, 0, Control_c, 10, 38, 0
1, 0, Control_c, 11, 101, 0
1, 0, Control_c, 11, 100, 0
1, 0, Control_c, 11, 6, 12
1, 0, Control_c, 11, 38, 0
1, 0, Control_c, 12, 101, 0
1, 0, Control_c, 12, 100, 0
1, 0, Control_c, 12, 6, 12
1, 0, Control_c, 12, 38, 0
1, 0, Control_c, 13, 101, 0
1, 0, Control_c, 13, 100, 0
1, 0, Control_c, 13, 6, 12
1, 0, Control_c, 13, 38, 0
1, 0, Control_c, 14, 101, 0
1, 0, Control_c, 14, 100, 0
1, 0, Control_c, 14, 6, 12
1, 0, Control_c, 14, 38, 0
1, 0, Control_c, 15, 101, 0
1, 0, Control_c, 15, 100, 0
1, 0, Control_c, 15, 6, 12
1, 0, Control_c, 15, 38, 0
1, 0, Time_signature, 2, 2, 24, 8
1, 0, Tempo, 600000
1, 0, End_track
2, 0, Start_track
2, 0, Pitch_bend_c, 0, 8192
2, 0, Control_c, 0, 7, 103
2, 0, Control_c, 0, 10, 63
2, 0, Control_c, 0, 93, 0
2, 0, Control_c, 0, 91, 0
2, 0, Control_c, 0, 95, 0
2, 0, Control_c, 0, 92, 0
2, 0, Control_c, 0, 11, 127
2, 0, Program_c, 0, 30
2, 0, Control_c, 1, 7, 103
2, 0, Control_c, 1, 10, 63
2, 0, Control_c, 1, 93, 0
2, 0, Control_c, 1, 91, 0
2, 0, Control_c, 1, 95, 0
2, 0, Control_c, 1, 92, 0
2, 0, Control_c, 1, 11, 127
2, 0, Program_c, 1, 30
2, 0, Note_on_c, 0, 43, 95
2, 240, Note_off_c, 0, 43, 95
2, 240, Note_on_c, 0, 44, 95
2, 480, Note_off_c, 0, 44, 95
2, 480, Note_on_c, 0, 45, 95
2, 720, Note_off_c, 0, 45, 95
2, 720, Note_on_c, 0, 46, 95
2, 960, Note_off_c, 0, 46, 95
2, 960, Note_on_c, 0, 48, 95
2, 1200, Note_off_c, 0, 48, 95
2, 1200, Note_on_c, 0, 49, 95
2, 1440, Note_off_c, 0, 49, 95
2, 1440, Note_on_c, 0, 45, 95
2, 1680, Note_off_c, 0, 45, 95
2, 1680, Note_on_c, 0, 46, 95
2, 1920, Note_off_c, 0, 46, 95
2, 1920, Note_on_c, 0, 43, 95
2, 2160, Note_off_c, 0, 43, 95
2, 2160, Note_on_c, 0, 44, 95
2, 2400, Note_off_c, 0, 44, 95
2, 2400, Note_on_c, 0, 45, 95
2, 2640, Note_off_c, 0, 45, 95
2, 2640, Note_on_c, 0, 46, 95
2, 2880, Note_off_c, 0, 46, 95
2, 2880, Note_on_c, 0, 48, 95
2, 3120, Note_off_c, 0, 48, 95
2, 3120, Note_on_c, 0, 49, 95
2, 3360, Note_off_c, 0, 49, 95
2, 3360, Note_on_c, 0, 45, 95
2, 3600, Note_off_c, 0, 45, 95
2, 3600, Note_on_c, 0, 46, 95
2, 3840, Note_off_c, 0, 46, 95
2, 3840, Note_on_c, 0, 70, 95
2, 3840, Note_on_c, 0, 43, 95
2, 4080, Note_off_c, 0, 43, 95
2, 4080, Note_on_c, 0, 44, 95
2, 4320, Note_off_c, 0, 70, 95
2, 4320, Note_off_c, 0, 44, 95
2, 4320, Note_on_c, 0, 71, 95
2, 4320, Note_on_c, 0, 45, 95
2, 4560, Note_off_c, 0, 45, 95
2, 4560, Note_on_c, 0, 46, 95
2, 4800, Note_off_c, 0, 71, 95
2, 4800, Note_off_c, 0, 46, 95
2, 4800, Note_on_c, 0, 75, 95
2, 4800, Note_on_c, 0, 48, 95
2, 5040, Note_off_c, 0, 48, 95
2, 5040, Note_on_c, 0, 49, 95
2, 5280, Note_off_c, 0, 75, 95
2, 5280, Note_off_c, 0, 49, 95
2, 5280, Note_on_c, 0, 74, 95
2, 5280, Note_on_c, 0, 45, 95
2, 5520, Note_off_c, 0, 45, 95
2, 5520, Note_on_c, 0, 46, 95
2, 5760, Note_off_c, 0, 74, 95
2, 5760, Note_off_c, 0, 46, 95
2, 5760, Note_on_c, 0, 70, 95
2, 5760, Note_on_c, 0, 43, 95
2, 6000, Note_off_c, 0, 43, 95
2, 6000, Note_on_c, 0, 44, 95
2, 6240, Note_off_c, 0, 70, 95
2, 6240, Note_off_c, 0, 44, 95
2, 6240, Note_on_c, 0, 71, 95
2, 6240, Note_on_c, 0, 45, 95
2, 6480, Note_off_c, 0, 45, 95
2, 6480, Note_on_c, 0, 46, 95
2, 6720, Note_off_c, 0, 71, 95
2, 6720, Note_off_c, 0, 46, 95
2, 6720, Note_on_c, 0, 75, 95
2, 6720, Note_on_c, 0, 48, 95
2, 6960, Note_off_c, 0, 48, 95
2, 6960, Note_on_c, 0, 49, 95
2, 7200, Note_off_c, 0, 75, 95
2, 7200, Note_off_c, 0, 49, 95
2, 7200, Note_on_c, 0, 74, 95
2, 7200, Note_on_c, 0, 45, 95
2, 7440, Note_off_c, 0, 45, 95
2, 7440, Note_on_c, 0, 46, 95
2, 7680, Note_off_c, 0, 74, 95
2, 7680, Note_off_c, 0, 46, 95
2, 7680, Note_on_c, 0, 70, 95
2, 7680, Note_on_c, 0, 43, 95
2, 7920, Note_off_c, 0, 43, 95
2, 7920, Note_on_c, 0, 44, 95
2, 8160, Note_off_c, 0, 70, 95
2, 8160, Note_off_c, 0, 44, 95
2, 8160, Note_on_c, 0, 71, 95
2, 8160, Note_on_c, 0, 45, 95
2, 8400, Note_off_c, 0, 45, 95
2, 8400, Note_on_c, 0, 46, 95
2, 8640, Note_off_c, 0, 71, 95
2, 8640, Note_off_c, 0, 46, 95
2, 8640, Note_on_c, 0, 75, 95
2, 8640, Note_on_c, 0, 48, 95
2, 8880, Note_off_c, 0, 48, 95
2, 8880, Note_on_c, 0, 49, 95
2, 9120, Note_off_c, 0, 75, 95
2, 9120, Note_off_c, 0, 49, 95
2, 9120, Note_on_c, 0, 74, 95
2, 9120, Note_on_c, 0, 45, 95
2, 9360, Note_off_c, 0, 45, 95
2, 9360, Note_on_c, 0, 46, 95
2, 9600, Note_off_c, 0, 74, 95
2, 9600, Note_off_c, 0, 46, 95
2, 9600, Note_on_c, 0, 72, 95
2, 9600, Note_on_c, 0, 51, 95
2, 9840, Note_off_c, 0, 72, 95
2, 9840, Note_off_c, 0, 51, 95
2, 9840, Note_on_c, 0, 71, 95
2, 9840, Note_on_c, 0, 50, 95
2, 10080, Note_off_c, 0, 71, 95
2, 10080, Note_off_c, 0, 50, 95
2, 10080, Note_on_c, 0, 70, 95
2, 10080, Note_on_c, 0, 49, 95
2, 10320, Note_off_c, 0, 70, 95
2, 10320, Note_off_c, 0, 49, 95
2, 10320, Note_on_c, 0, 69, 95
2, 10320, Note_on_c, 0, 48, 95
2, 10560, Note_off_c, 0, 69, 95
2, 10560, Note_off_c, 0, 48, 95
2, 10560, Note_on_c, 0, 73, 95
2, 10560, Note_on_c, 0, 51, 95
2, 10800, Note_off_c, 0, 73, 95
2, 10800, Note_off_c, 0, 51, 95
2, 10800, Note_on_c, 0, 72, 95
2, 10800, Note_on_c, 0, 50, 95
2, 11040, Note_off_c, 0, 72, 95
2, 11040, Note_off_c, 0, 50, 95
2, 11040, Note_on_c, 0, 71, 95
2, 11040, Note_on_c, 0, 49, 95
2, 11280, Note_off_c, 0, 71, 95
2, 11280, Note_off_c, 0, 49, 95
2, 11280, Note_on_c, 0, 70, 95
2, 11280, Note_on_c, 0, 48, 95
2, 11520, Note_off_c, 0, 70, 95
2, 11520, Note_off_c, 0, 48, 95
2, 11520, Note_on_c, 0, 70, 95
2, 11520, Note_on_c, 0, 43, 95
2, 11760, Note_off_c, 0, 43, 95
2, 11760, Note_on_c, 0, 44, 95
2, 12000, Note_off_c, 0, 70, 95
2, 12000, Note_off_c, 0, 44, 95
2, 12000, Note_on_c, 0, 71, 95
2, 12000, Note_on_c, 0, 45, 95
2, 12240, Note_off_c, 0, 45, 95
2, 12240, Note_on_c, 0, 46, 95
2, 12480, Note_off_c, 0, 71, 95
2, 12480, Note_off_c, 0, 46, 95
2, 12480, Note_on_c, 0, 75, 95
2, 12480, Note_on_c, 0, 48, 95
2, 12720, Note_off_c, 0, 48, 95
2, 12720, Note_on_c, 0, 49, 95
2, 12960, Note_off_c, 0, 75, 95
2, 12960, Note_off_c, 0, 49, 95
2, 12960, Note_on_c, 0, 74, 95
2, 12960, Note_on_c, 0, 45, 95
2, 13200, Note_off_c, 0, 45, 95
2, 13200, Note_on_c, 0, 46, 95
2, 13440, Note_off_c, 0, 74, 95
2, 13440, Note_off_c, 0, 46, 95
2, 13440, Note_on_c, 0, 70, 95
2, 13440, Note_on_c, 0, 43, 95
2, 13680, Note_off_c, 0, 43, 95
2, 13680, Note_on_c, 0, 44, 95
2, 13920, Note_off_c, 0, 70, 95
2, 13920, Note_off_c, 0, 44, 95
2, 13920, Note_on_c, 0, 71, 95
2, 13920, Note_on_c, 0, 45, 95
2, 14160, Note_off_c, 0, 45, 95
2, 14160, Note_on_c, 0, 46, 95
2, 14400, Note_off_c, 0, 71, 95
2, 14400, Note_off_c, 0, 46, 95
2, 14400, Note_on_c, 0, 75, 95
2, 14400, Note_on_c, 0, 48, 95
2, 14640, Note_off_c, 0, 48, 95
2, 14640, Note_on_c, 0, 49, 95
2, 14880, Note_off_c, 0, 75, 95
2, 14880, Note_off_c, 0, 49, 95
2, 14880, Note_on_c, 0, 74, 95
2, 14880, Note_on_c, 0, 45, 95
2, 15120, Note_off_c, 0, 45, 95
2, 15120, Note_on_c, 0, 46, 95
2, 15360, Note_off_c, 0, 74, 95
2, 15360, Note_off_c, 0, 46, 95
2, 15360, Note_on_c, 0, 70, 95
2, 15360, Note_on_c, 0, 43, 95
2, 15600, Note_off_c, 0, 43, 95
2, 15600, Note_on_c, 0, 44, 95
2, 15840, Note_off_c, 0, 70, 95
2, 15840, Note_off_c, 0, 44, 95
2, 15840, Note_on_c, 0, 71, 95
2, 15840, Note_on_c, 0, 45, 95
2, 16080, Note_off_c, 0, 45, 95
2, 16080, Note_on_c, 0, 46, 95
2, 16320, Note_off_c, 0, 71, 95
2, 16320, Note_off_c, 0, 46, 95
2, 16320, Note_on_c, 0, 75, 95
2, 16320, Note_on_c, 0, 48, 95
2, 16560, Note_off_c, 0, 48, 95
2, 16560, Note_on_c, 0, 49, 95
2, 16800, Note_off_c, 0, 75, 95
2, 16800, Note_off_c, 0, 49, 95
2, 16800, Note_on_c, 0, 74, 95
2, 16800, Note_on_c, 0, 45, 95
2, 17040, Note_off_c, 0, 45, 95
2, 17040, Note_on_c, 0, 46, 95
2, 17280, Note_off_c, 0, 74, 95
2, 17280, Note_off_c, 0, 46, 95
2, 17280, Note_on_c, 0, 72, 95
2, 17280, Note_on_c, 0, 51, 95
2, 17520, Note_off_c, 0, 72, 95
2, 17520, Note_off_c, 0, 51, 95
2, 17520, Note_on_c, 0, 71, 95
2, 17520, Note_on_c, 0, 50, 95
2, 17760, Note_off_c, 0, 71, 95
2, 17760, Note_off_c, 0, 50, 95
2, 17760, Note_on_c, 0, 70, 95
2, 17760, Note_on_c, 0, 49, 95
2, 18000, Note_off_c, 0, 70, 95
2, 18000, Note_off_c, 0, 49, 95
2, 18000, Note_on_c, 0, 69, 95
2, 18000, Note_on_c, 0, 48, 95
2, 18240, Note_off_c, 0, 69, 95
2, 18240, Note_off_c, 0, 48, 95
2, 18240, Note_on_c, 0, 73, 95
2, 18240, Note_on_c, 0, 51, 95
2, 18480, Note_off_c, 0, 73, 95
2, 18480, Note_off_c, 0, 51, 95
2, 18480, Note_on_c, 0, 72, 95
2, 18480, Note_on_c, 0, 50, 95
2, 18720, Note_off_c, 0, 72, 95
2, 18720, Note_off_c, 0, 50, 95
2, 18720, Note_on_c, 0, 71, 95
2, 18720, Note_on_c, 0, 49, 95
2, 18960, Note_off_c, 0, 71, 95
2, 18960, Note_off_c, 0, 49, 95
2, 18960, Note_on_c, 0, 70, 95
2, 18960, Note_on_c, 0, 48, 95
2, 19200, Note_off_c, 0, 70, 95
2, 19200, Note_off_c, 0, 48, 95
2, 19200, Note_on_c, 0, 55, 95
2, 19200, Note_on_c, 0, 43, 95
2, 19680, Note_off_c, 0, 55, 95
2, 19680, Note_off_c, 0, 43, 95
2, 19680, Note_on_c, 0, 62, 95
2, 19680, Note_on_c, 0, 50, 95
2, 20160, Note_off_c, 0, 62, 95
2, 20160, Note_off_c, 0, 50, 95
2, 20160, Note_on_c, 0, 66, 95
2, 20160, Note_on_c, 0, 49, 95
2, 20640, Note_off_c, 0, 66, 95
2, 20640, Note_off_c, 0, 49, 95
2, 20640, Note_on_c, 0, 62, 95
2, 20640, Note_on_c, 0, 45, 95
2, 21120, Note_off_c, 0, 62, 95
2, 21120, Note_off_c, 0, 45, 95
2, 21120, Note_on_c, 0, 55, 95
2, 21120, Note_on_c, 0, 43, 95
2, 21600, Note_off_c, 0, 55, 95
2, 21600, Note_off_c, 0, 43, 95
2, 21600, Note_on_c, 0, 62, 95
2, 21600, Note_on_c, 0, 50, 95
2, 22080, Note_off_c, 0, 62, 95
2, 22080, Note_off_c, 0, 50, 95
2, 22080, Note_on_c, 0, 63, 95
2, 22080, Note_on_c, 0, 51, 95
2, 22560, Note_off_c, 0, 63, 95
2, 22560, Note_off_c, 0, 51, 95
2, 22560, Note_on_c, 0, 62, 95
2, 22560, Note_on_c, 0, 50, 95
2, 23040, Note_off_c, 0, 62, 95
2, 23040, Note_off_c, 0, 50, 95
2, 23040, Note_on_c, 0, 55, 95
2, 23040, Note_on_c, 0, 43, 95
2, 23520, Note_off_c, 0, 55, 95
2, 23520, Note_off_c, 0, 43, 95
2, 23520, Note_on_c, 0, 62, 95
2, 23520, Note_on_c, 0, 50, 95
2, 24000, Note_off_c, 0, 62, 95
2, 24000, Note_off_c, 0, 50, 95
2, 24000, Note_on_c, 0, 66, 95
2, 24000, Note_on_c, 0, 49, 95
2, 24480, Note_off_c, 0, 66, 95
2, 24480, Note_off_c, 0, 49, 95
2, 24480, Note_on_c, 0, 62, 95
2, 24480, Note_on_c, 0, 45, 95
2, 24960, Note_off_c, 0, 62, 95
2, 24960, Note_off_c, 0, 45, 95
2, 24960, Note_on_c, 0, 55, 95
2, 24960, Note_on_c, 0, 43, 95
2, 25440, Note_off_c, 0, 55, 95
2, 25440, Note_off_c, 0, 43, 95
2, 25440, Note_on_c, 0, 62, 95
2, 25440, Note_on_c, 0, 50, 95
2, 25920, Note_off_c, 0, 62, 95
2, 25920, Note_off_c, 0, 50, 95
2, 25920, Note_on_c, 0, 63, 95
2, 25920, Note_on_c, 0, 51, 95
2, 26400, Note_off_c, 0, 63, 95
2, 26400, Note_off_c, 0, 51, 95
2, 26400, Note_on_c, 0, 62, 95
2, 26400, Note_on_c, 0, 50, 95
2, 26880, Note_off_c, 0, 62, 95
2, 26880, Note_off_c, 0, 50, 95
2, 26880, Note_on_c, 0, 74, 95
2, 26880, Note_on_c, 0, 48, 95
2, 27120, Note_off_c, 0, 74, 95
2, 27120, Note_off_c, 0, 48, 95
2, 27120, Note_on_c, 0, 75, 95
2, 27120, Note_on_c, 0, 49, 95
2, 27360, Note_off_c, 0, 75, 95
2, 27360, Note_off_c, 0, 49, 95
2, 27360, Note_on_c, 0, 76, 95
2, 27360, Note_on_c, 0, 50, 95
2, 27600, Note_off_c, 0, 76, 95
2, 27600, Note_off_c, 0, 50, 95
2, 27600, Note_on_c, 0, 77, 95
2, 27600, Note_on_c, 0, 51, 95
2, 27840, Note_off_c, 0, 77, 95
2, 27840, Note_off_c, 0, 51, 95
2, 27840, Note_on_c, 0, 75, 95
2, 27840, Note_on_c, 0, 49, 95
2, 28080, Note_off_c, 0, 75, 95
2, 28080, Note_off_c, 0, 49, 95
2, 28080, Note_on_c, 0, 76, 95
2, 28080, Note_on_c, 0, 50, 95
2, 28320, Note_off_c, 0, 76, 95
2, 28320, Note_off_c, 0, 50, 95
2, 28320, Note_on_c, 0, 77, 95
2, 28320, Note_on_c, 0, 51, 95
2, 28560, Note_off_c, 0, 77, 95
2, 28560, Note_off_c, 0, 51, 95
2, 28560, Note_on_c, 0, 78, 95
2, 28560, Note_on_c, 0, 52, 95
2, 28800, Note_off_c, 0, 78, 95
2, 28800, Note_off_c, 0, 52, 95
2, 28800, Note_on_c, 0, 76, 95
2, 28800, Note_on_c, 0, 50, 95
2, 29040, Note_off_c, 0, 76, 95
2, 29040, Note_off_c, 0, 50, 95
2, 29040, Note_on_c, 0, 77, 95
2, 29040, Note_on_c, 0, 51, 95
2, 29280, Note_off_c, 0, 77, 95
2, 29280, Note_off_c, 0, 51, 95
2, 29280, Note_on_c, 0, 78, 95
2, 29280, Note_on_c, 0, 52, 95
2, 29520, Note_off_c, 0, 78, 95
2, 29520, Note_off_c, 0, 52, 95
2, 29520, Note_on_c, 0, 79, 95
2, 29520, Note_on_c, 0, 53, 95
2, 29760, Note_off_c, 0, 79, 95
2, 29760, Note_off_c, 0, 53, 95
2, 29760, Note_on_c, 0, 77, 95
2, 29760, Note_on_c, 0, 51, 95
2, 30000, Note_off_c, 0, 77, 95
2, 30000, Note_off_c, 0, 51, 95
2, 30000, Note_on_c, 0, 78, 95
2, 30000, Note_on_c, 0, 52, 95
2, 30240, Note_off_c, 0, 78, 95
2, 30240, Note_off_c, 0, 52, 95
2, 30240, Note_on_c, 0, 79, 95
2, 30240, Note_on_c, 0, 53, 95
2, 30480, Note_off_c, 0, 79, 95
2, 30480, Note_off_c, 0, 53, 95
2, 30480, Note_on_c, 0, 80, 95
2, 30480, Note_on_c, 0, 54, 95
2, 30720, Note_off_c, 0, 80, 95
2, 30720, Note_off_c, 0, 54, 95
2, 30720, Note_on_c, 1, 73, 95
2, 30720, Note_on_c, 0, 43, 95
2, 30840, Pitch_bend_c, 1, 8192
2, 30960, Pitch_bend_c, 1, 8192
2, 30960, Pitch_bend_c, 1, 8192
2, 30960, Note_off_c, 0, 43, 95
2, 30960, Note_on_c, 0, 44, 95
2, 31200, Note_off_c, 0, 44, 95
2, 31200, Note_on_c, 0, 43, 95
2, 31440, Note_off_c, 0, 43, 95
2, 31440, Note_on_c, 0, 44, 95
2, 31680, Note_off_c, 1, 73, 95
2, 31680, Note_off_c, 0, 44, 95
2, 31680, Note_on_c, 0, 81, 95
2, 31680, Note_on_c, 0, 43, 95
2, 31920, Note_off_c, 0, 43, 95
2, 31920, Note_on_c, 0, 44, 95
2, 32160, Note_off_c, 0, 44, 95
2, 32160, Note_on_c, 0, 43, 95
2, 32400, Note_off_c, 0, 43, 95
2, 32400, Note_on_c, 0, 44, 95
2, 32640, Note_off_c, 0, 81, 95
2, 32640, Note_off_c, 0, 44, 95
2, 32640, Note_on_c, 1, 73, 95
2, 32640, Note_on_c, 0, 43, 95
2, 32760, Pitch_bend_c, 1, 8192
2, 32880, Pitch_bend_c, 1, 8192
2, 32880, Pitch_bend_c, 1, 8192
2, 32880, Note_off_c, 0, 43, 95
2, 32880, Note_on_c, 0, 44, 95
2, 33120, Note_off_c, 0, 44, 95
2, 33120, Note_on_c, 0, 43, 95
2, 33360, Note_off_c, 0, 43, 95
2, 33360, Note_on_c, 0, 44, 95
2, 33600, Note_off_c, 1, 73, 95
2, 33600, Note_off_c, 0, 44, 95
2, 33600, Note_on_c, 0, 81, 95
2, 33600, Note_on_c, 0, 43, 95
2, 33840, Note_off_c, 0, 43, 95
2, 33840, Note_on_c, 0, 44, 95
2, 34080, Note_off_c, 0, 44, 95
2, 34080, Note_on_c, 0, 43, 95
2, 34320, Note_off_c, 0, 43, 95
2, 34320, Note_on_c, 0, 44, 95
2, 34560, Note_off_c, 0, 81, 95
2, 34560, Note_off_c, 0, 44, 95
2, 34560, Note_on_c, 1, 73, 95
2, 34560, Note_on_c, 0, 43, 95
2, 34680, Pitch_bend_c, 1, 8192
2, 34800, Pitch_bend_c, 1, 8192
2, 34800, Pitch_bend_c, 1, 8192
2, 34800, Note_off_c, 0, 43, 95
2, 34800, Note_on_c, 0, 44, 95
2, 35040, Note_off_c, 0, 44, 95
2, 35040, Note_on_c, 0, 43, 95
2, 35280, Note_off_c, 0, 43, 95
2, 35280, Note_on_c, 0, 44, 95
2, 35520, Note_off_c, 1, 73, 95
2, 35520, Note_off_c, 0, 44, 95
2, 35520, Note_on_c, 0, 81, 95
2, 35520, Note_on_c, 0, 43, 95
2, 35760, Note_off_c, 0, 43, 95
2, 35760, Note_on_c, 0, 44, 95
2, 36000, Note_off_c, 0, 44, 95
2, 36000, Note_on_c, 0, 43, 95
2, 36240, Note_off_c, 0, 43, 95
2, 36240, Note_on_c, 0, 44, 95
2, 36480, Note_off_c, 0, 81, 95
2, 36480, Note_off_c, 0, 44, 95
2, 36480, Note_on_c, 0, 79, 95
2, 36480, Note_on_c, 0, 67, 95
2, 36480, Note_on_c, 0, 50, 95
2, 36480, Note_on_c, 0, 43, 95
2, 36960, Note_off_c, 0, 79, 95
2, 36960, Note_off_c, 0, 67, 95
2, 36960, Note_off_c, 0, 50, 95
2, 36960, Note_off_c, 0, 43, 95
2, 36960, Note_on_c, 0, 78, 95
2, 36960, Note_on_c, 0, 66, 95
2, 36960, Note_on_c, 0, 49, 95
2, 36960, Note_on_c, 0, 43, 95
2, 37440, Note_off_c, 0, 78, 95
2, 37440, Note_off_c, 0, 66, 95
2, 37440, Note_off_c, 0, 49, 95
2, 37440, Note_off_c, 0, 43, 95
2, 37440, Note_on_c, 0, 79, 95
2, 37440, Note_on_c, 0, 67, 95
2, 37440, Note_on_c, 0, 50, 95
2, 37440, Note_on_c, 0, 43, 95
2, 37920, Note_off_c, 0, 79, 95
2, 37920, Note_off_c, 0, 67, 95
2, 37920, Note_off_c, 0, 50, 95
2, 37920, Note_off_c, 0, 43, 95
2, 37920, Note_on_c, 0, 78, 95
2, 37920, Note_on_c, 0, 66, 95
2, 37920, Note_on_c, 0, 49, 95
2, 37920, Note_on_c, 0, 43, 95
2, 38400, Note_off_c, 0, 78, 95
2, 38400, Note_off_c, 0, 66, 95
2, 38400, Note_off_c, 0, 49, 95
2, 38400, Note_off_c, 0, 43, 95
2, 38400, Note_on_c, 0, 79, 95
2, 38400, Note_on_c, 0, 67, 95
2, 38400, Note_on_c, 0, 50, 95
2, 38400, Note_on_c, 0, 43, 95
2, 38880, Note_off_c, 0, 79, 95
2, 38880, Note_off_c, 0, 67, 95
2, 38880, Note_off_c, 0, 50, 95
2, 38880, Note_off_c, 0, 43, 95
2, 38880, Note_on_c, 0, 78, 95
2, 38880, Note_on_c, 0, 66, 95
2, 38880, Note_on_c, 0, 49, 95
2, 38880, Note_on_c, 0, 43, 95
2, 39360, Note_off_c, 0, 78, 95
2, 39360, Note_off_c, 0, 66, 95
2, 39360, Note_off_c, 0, 49, 95
2, 39360, Note_off_c, 0, 43, 95
2, 39360, Note_on_c, 0, 79, 95
2, 39360, Note_on_c, 0, 67, 95
2, 39360, Note_on_c, 0, 50, 95
2, 39360, Note_on_c, 0, 43, 95
2, 39840, Note_off_c, 0, 79, 95
2, 39840, Note_off_c, 0, 67, 95
2, 39840, Note_off_c, 0, 50, 95
2, 39840, Note_off_c, 0, 43, 95
2, 39840, End_track
3, 0, Start_track
3, 0, Pitch_bend_c, 4, 8192
3, 0, Control_c, 4, 7, 103
3, 0, Control_c, 4, 10, 63
3, 0, Control_c, 4, 93, 0
3, 0, Control_c, 4, 91, 0
3, 0, Control_c, 4, 95, 0
3, 0, Control_c, 4, 92, 0
3, 0, Control_c, 4, 11, 127
3, 0, Program_c, 4, 30
3, 0, Control_c, 5, 7, 103
3, 0, Control_c, 5, 10, 63
3, 0, Control_c, 5, 93, 0
3, 0, Control_c, 5, 91, 0
3, 0, Control_c, 5, 95, 0
3, 0, Control_c, 5, 92, 0
3, 0, Control_c, 5, 11, 127
3, 0, Program_c, 5, 30
3, 0, Note_on_c, 4, 43, 95
3, 240, Note_off_c, 4, 43, 95
3, 240, Note_on_c, 4, 44, 95
3, 480, Note_off_c, 4, 44, 95
3, 480, Note_on_c, 4, 45, 95
3, 720, Note_off_c, 4, 45, 95
3, 720, Note_on_c, 4, 46, 95
3, 960, Note_off_c, 4, 46, 95
3, 960, Note_on_c, 4, 48, 95
3, 1200, Note_off_c, 4, 48, 95
3, 1200, Note_on_c, 4, 49, 95
3, 1440, Note_off_c, 4, 49, 95
3, 1440, Note_on_c, 4, 45, 95
3, 1680, Note_off_c, 4, 45, 95
3, 1680, Note_on_c, 4, 46, 95
3, 1920, Note_off_c, 4, 46, 95
3, 1920, Note_on_c, 4, 43, 95
3, 2160, Note_off_c, 4, 43, 95
3, 2160, Note_on_c, 4, 44, 95
3, 2400, Note_off_c, 4, 44, 95
3, 2400, Note_on_c, 4, 45, 95
3, 2640, Note_off_c, 4, 45, 95
3, 2640, Note_on_c, 4, 46, 95
3, 2880, Note_off_c, 4, 46, 95
3, 2880, Note_on_c, 4, 48, 95
3, 3120, Note_off_c, 4, 48, 95
3, 3120, Note_on_c, 4, 49, 95
3, 3360, Note_off_c, 4, 49, 95
3, 3360, Note_on_c, 4, 45, 95
3, 3600, Note_off_c, 4, 45, 95
3, 3600, Note_on_c, 4, 46, 95
3, 3840, Note_off_c, 4, 46, 95
3, 3840, Note_on_c, 4, 43, 95
3, 4080, Note_off_c, 4, 43, 95
3, 4080, Note_on_c, 4, 44, 95
3, 4320, Note_off_c, 4, 44, 95
3, 4320, Note_on_c, 4, 45, 95
3, 4560, Note_off_c, 4, 45, 95
3, 4560, Note_on_c, 4, 46, 95
3, 4800, Note_off_c, 4, 46, 95
3, 4800, Note_on_c, 4, 48, 95
3, 5040, Note_off_c, 4, 48, 95
3, 5040, Note_on_c, 4, 49, 95
3, 5280, Note_off_c, 4, 49, 95
3, 5280, Note_on_c, 4, 45, 95
3, 5520, Note_off_c, 4, 45, 95
3, 5520, Note_on_c, 4, 46, 95
3, 5760, Note_off_c, 4, 46, 95
3, 5760, Note_on_c, 4, 43, 95
3, 6000, Note_off_c, 4, 43, 95
3, 6000, Note_on_c, 4, 44, 95
3, 6240, Note_off_c, 4, 44, 95
3, 6240, Note_on_c, 4, 45, 95
3, 6480, Note_off_c, 4, 45, 95
3, 6480, Note_on_c, 4, 46, 95
3, 6720, Note_off_c, 4, 46, 95
3, 6720, Note_on_c, 4, 48, 95
3, 6960, Note_off_c, 4, 48, 95
3, 6960, Note_on_c, 4, 49, 95
3, 7200, Note_off_c, 4, 49, 95
3, 7200, Note_on_c, 4, 45, 95
3, 7440, Note_off_c, 4, 45, 95
3, 7440, Note_on_c, 4, 46, 95
3, 7680, Note_off_c, 4, 46, 95
3, 7680, Note_on_c, 4, 43, 95
3, 7920, Note_off_c, 4, 43, 95
3, 7920, Note_on_c, 4, 44, 95
3, 8160, Note_off_c, 4, 44, 95
3, 8160, Note_on_c, 4, 45, 95
3, 8400, Note_off_c, 4, 45, 95
3, 8400, Note_on_c, 4, 46, 95
3, 8640, Note_off_c, 4, 46, 95
3, 8640, Note_on_c, 4, 48, 95
3, 8880, Note_off_c, 4, 48, 95
3, 8880, Note_on_c, 4, 49, 95
3, 9120, Note_off_c, 4, 49, 95
3, 9120, Note_on_c, 4, 45, 95
3, 9360, Note_off_c, 4, 45, 95
3, 9360, Note_on_c, 4, 46, 95
3, 9600, Note_off_c, 4, 46, 95
3, 9600, Note_on_c, 4, 51, 95
3, 9840, Note_off_c, 4, 51, 95
3, 9840, Note_on_c, 4, 50, 95
3, 10080, Note_off_c, 4, 50, 95
3, 10080, Note_on_c, 4, 49, 95
3, 10320, Note_off_c, 4, 49, 95
3, 10320, Note_on_c, 4, 48, 95
3, 10560, Note_off_c, 4, 48, 95
3, 10560, Note_on_c, 4, 51, 95
3, 10800, Note_off_c, 4, 51, 95
3, 10800, Note_on_c, 4, 50, 95
3, 11040, Note_off_c, 4, 50, 95
3, 11040, Note_on_c, 4, 49, 95
3, 11280, Note_off_c, 4, 49, 95
3, 11280, Note_on_c, 4, 48, 95
3, 11520, Note_off_c, 4, 48, 95
3, 11520, Note_on_c, 4, 43, 95
3, 11760, Note_off_c, 4, 43, 95
3, 11760, Note_on_c, 4, 44, 95
3, 12000, Note_off_c, 4, 44, 95
3, 12000, Note_on_c, 4, 45, 95
3, 12240, Note_off_c, 4, 45, 95
3, 12240, Note_on_c, 4, 46, 95
3, 12480, Note_off_c, 4, 46, 95
3, 12480, Note_on_c, 4, 48, 95
3, 12720, Note_off_c, 4, 48, 95
3, 12720, Note_on_c, 4, 49, 95
3, 12960, Note_off_c, 4, 49, 95
3, 12960, Note_on_c, 4, 45, 95
3, 13200, Note_off_c, 4, 45, 95
3, 13200, Note_on_c, 4, 46, 95
3, 13440, Note_off_c, 4, 46, 95
3, 13440, Note_on_c, 4, 43, 95
3, 13680, Note_off_c, 4, 43, 95
3, 13680, Note_on_c, 4, 44, 95
3, 13920, Note_off_c, 4, 44, 95
3, 13920, Note_on_c, 4, 45, 95
3, 14160, Note_off_c, 4, 45, 95
3, 14160, Note_on_c, 4, 46, 95
3, 14400, Note_off_c, 4, 46, 95
3, 14400, Note_on_c, 4, 48, 95
3, 14640, Note_off_c, 4, 48, 95
3, 14640, Note_on_c, 4, 49, 95
3, 14880, Note_off_c, 4, 49, 95
3, 14880, Note_on_c, 4, 45, 95
3, 15120, Note_off_c, 4, 45, 95
3, 15120, Note_on_c, 4, 46, 95
3, 15360, Note_off_c, 4, 46, 95
3, 15360, Note_on_c, 4, 43, 95
3, 15600, Note_off_c, 4, 43, 95
3, 15600, Note_on_c, 4, 44, 95
3, 15840, Note_off_c, 4, 44, 95
3, 15840, Note_on_c, 4, 45, 95
3, 16080, Note_off_c, 4, 45, 95
3, 16080, Note_on_c, 4, 46, 95
3, 16320, Note_off_c, 4, 46, 95
3, 16320, Note_on_c, 4, 48, 95
3, 16560, Note_off_c, 4, 48, 95
3, 16560, Note_on_c, 4, 49, 95
3, 16800, Note_off_c, 4, 49, 95
3, 16800, Note_on_c, 4, 45, 95
3, 17040, Note_off_c, 4, 45, 95
3, 17040, Note_on_c, 4, 46, 95
3, 17280, Note_off_c, 4, 46, 95
3, 17280, Note_on_c, 4, 51, 95
3, 17520, Note_off_c, 4, 51, 95
3, 17520, Note_on_c, 4, 50, 95
3, 17760, Note_off_c, 4, 50, 95
3, 17760, Note_on_c, 4, 49, 95
3, 18000, Note_off_c, 4, 49, 95
3, 18000, Note_on_c, 4, 48, 95
3, 18240, Note_off_c, 4, 48, 95
3, 18240, Note_on_c, 4, 51, 95
3, 18480, Note_off_c, 4, 51, 95
3, 18480, Note_on_c, 4, 50, 95
3, 18720, Note_off_c, 4, 50, 95
3, 18720, Note_on_c, 4, 49, 95
3, 18960, Note_off_c, 4, 49, 95
3, 18960, Note_on_c, 4, 48, 95
3, 19200, Note_off_c, 4, 48, 95
3, 19200, Note_on_c, 4, 43, 95
3, 19680, Note_off_c, 4, 43, 95
3, 19680, Note_on_c, 4, 50, 95
3, 20160, Note_off_c, 4, 50, 95
3, 20160, Note_on_c, 4, 49, 95
3, 20640, Note_off_c, 4, 49, 95
3, 20640, Note_on_c, 4, 45, 95
3, 21120, Note_off_c, 4, 45, 95
3, 21120, Note_on_c, 4, 43, 95
3, 21600, Note_off_c, 4, 43, 95
3, 21600, Note_on_c, 4, 50, 95
3, 22080, Note_off_c, 4, 50, 95
3, 22080, Note_on_c, 4, 51, 95
3, 22560, Note_off_c, 4, 51, 95
3, 22560, Note_on_c, 4, 50, 95
3, 23040, Note_off_c, 4, 50, 95
3, 23040, Note_on_c, 4, 43, 95
3, 23520, Note_off_c, 4, 43, 95
3, 23520, Note_on_c, 4, 50, 95
3, 24000, Note_off_c, 4, 50, 95
3, 24000, Note_on_c, 4, 49, 95
3, 24480, Note_off_c, 4, 49, 95
3, 24480, Note_on_c, 4, 45, 95
3, 24960, Note_off_c, 4, 45, 95
3, 24960, Note_on_c, 4, 43, 95
3, 25440, Note_off_c, 4, 43, 95
3, 25440, Note_on_c, 4, 50, 95
3, 25920, Note_off_c, 4, 50, 95
3, 25920, Note_on_c, 4, 51, 95
3, 26400, Note_off_c, 4, 51, 95
3, 26400, Note_on_c, 4, 50, 95
3, 26880, Note_off_c, 4, 50, 95
3, 26880, Note_on_c, 4, 48, 95
3, 27120, Note_off_c, 4, 48, 95
3, 27120, Note_on_c, 4, 49, 95
3, 27360, Note_off_c, 4, 49, 95
3, 27360, Note_on_c, 4, 50, 95
3, 27600, Note_off_c, 4, 50, 95
3, 27600, Note_on_c, 4, 51, 95
3, 27840, Note_off_c, 4, 51, 95
3, 27840, Note_on_c, 4, 49, 95
3, 28080, Note_off_c, 4, 49, 95
3, 28080, Note_on_c, 4, 50, 95
3, 28320, Note_off_c, 4, 50, 95
3, 28320, Note_on_c, 4, 51, 95
3, 28560, Note_off_c, 4, 51, 95
3, 28560, Note_on_c, 4, 52, 95
3, 28800, Note_off_c, 4, 52, 95
3, 28800, Note_on_c, 4, 50, 95
3, 29040, Note_off_c, 4, 50, 95
3, 29040, Note_on_c, 4, 51, 95
3, 29280, Note_off_c, 4, 51, 95
3, 29280, Note_on_c, 4, 52, 95
3, 29520, Note_off_c, 4, 52, 95
3, 29520, Note_on_c, 4, 53, 95
3, 29760, Note_off_c, 4, 53, 95
3, 29760, Note_on_c, 4, 51, 95
3, 30000, Note_off_c, 4, 51, 95
3, 30000, Note_on_c, 4, 52, 95
3, 30240, Note_off_c, 4, 52, 95
3, 30240, Note_on_c, 4, 53, 95
3, 30480, Note_off_c, 4, 53, 95
3, 30480, Note_on_c, 4, 54, 95
3, 30720, Note_off_c, 4, 54, 95
3, 30720, Note_on_c, 4, 43, 95
3, 30960, Note_off_c, 4, 43, 95
3, 30960, Note_on_c, 4, 44, 95
3, 31200, Note_off_c, 4, 44, 95
3, 31200, Note_on_c, 4, 43, 95
3, 31440, Note_off_c, 4, 43, 95
3, 31440, Note_on_c, 4, 44, 95
3, 31680, Note_off_c, 4, 44, 95
3, 31680, Note_on_c, 4, 43, 95
3, 31920, Note_off_c, 4, 43, 95
3, 31920, Note_on_c, 4, 44, 95
3, 32160, Note_off_c, 4, 44, 95
3, 32160, Note_on_c, 4, 43, 95
3, 32400, Note_off_c, 4, 43, 95
3, 32400, Note_on_c, 4, 44, 95
3, 32640, Note_off_c, 4, 44, 95
3, 32640, Note_on_c, 4, 43, 95
3, 32880, Note_off_c, 4, 43, 95
3, 32880, Note_on_c, 4, 44, 95
3, 33120, Note_off_c, 4, 44, 95
3, 33120, Note_on_c, 4, 43, 95
3, 33360, Note_off_c, 4, 43, 95
3, 33360, Note_on_c, 4, 44, 95
3, 33600, Note_off_c, 4, 44, 95
3, 33600, Note_on_c, 4, 43, 95
3, 33840, Note_off_c, 4, 43, 95
3, 33840, Note_on_c, 4, 44, 95
3, 34080, Note_off_c, 4, 44, 95
3, 34080, Note_on_c, 4, 43, 95
3, 34320, Note_off_c, 4, 43, 95
3, 34320, Note_on_c, 4, 44, 95
3, 34560, Note_off_c, 4, 44, 95
3, 34560, Note_on_c, 4, 43, 95
3, 34800, Note_off_c, 4, 43, 95
3, 34800, Note_on_c, 4, 44, 95
3, 35040, Note_off_c, 4, 44, 95
3, 35040, Note_on_c, 4, 43, 95
3, 35280, Note_off_c, 4, 43, 95
3, 35280, Note_on_c, 4, 44, 95
3, 35520, Note_off_c, 4, 44, 95
3, 35520, Note_on_c, 4, 43, 95
3, 35760, Note_off_c, 4, 43, 95
3, 35760, Note_on_c, 4, 44, 95
3, 36000, Note_off_c, 4, 44, 95
3, 36000, Note_on_c, 4, 43, 95
3, 36240, Note_off_c, 4, 43, 95
3, 36240, Note_on_c, 4, 44, 95
3, 36480, Note_off_c, 4, 44, 95
3, 36480, Note_on_c, 4, 50, 95
3, 36480, Note_on_c, 4, 43, 95
3, 36960, Note_off_c, 4, 50, 95
3, 36960, Note_off_c, 4, 43, 95
3, 36960, Note_on_c, 4, 49, 95
3, 36960, Note_on_c, 4, 43, 95
3, 37440, Note_off_c, 4, 49, 95
3, 37440, Note_off_c, 4, 43, 95
3, 37440, Note_on_c, 4, 50, 95
3, 37440, Note_on_c, 4, 43, 95
3, 37920, Note_off_c, 4, 50, 95
3, 37920, Note_off_c, 4, 43, 95
3, 37920, Note_on_c, 4, 49, 95
3, 37920, Note_on_c, 4, 43, 95
3, 38400, Note_off_c, 4, 49, 95
3, 38400, Note_off_c, 4, 43, 95
3, 38400, Note_on_c, 4, 50, 95
3, 38400, Note_on_c, 4, 43, 95
3, 38880, Note_off_c, 4, 50, 95
3, 38880, Note_off_c, 4, 43, 95
3, 38880, Note_on_c, 4, 49, 95
3, 38880, Note_on_c, 4, 43, 95
3, 39360, Note_off_c, 4, 49, 95
3, 39360, Note_off_c, 4, 43, 95
3, 39360, Note_on_c, 4, 50, 95
3, 39360, Note_on_c, 4, 43, 95
3, 39840, Note_off_c, 4, 50, 95
3, 39840, Note_off_c, 4, 43, 95
3, 39840, End_track
4, 0, Start_track
4, 0, Pitch_bend_c, 2, 8192
4, 0, Control_c, 2, 7, 103
4, 0, Control_c, 2, 10, 63
4, 0, Control_c, 2, 93, 0
4, 0, Control_c, 2, 91, 0
4, 0, Control_c, 2, 95, 0
4, 0, Control_c, 2, 92, 0
4, 0, Control_c, 2, 11, 127
4, 0, Program_c, 2, 30
4, 0, Control_c, 3, 7, 103
4, 0, Control_c, 3, 10, 63
4, 0, Control_c, 3, 93, 0
4, 0, Control_c, 3, 91, 0
4, 0, Control_c, 3, 95, 0
4, 0, Control_c, 3, 92, 0
4, 0, Control_c, 3, 11, 127
4, 0, Program_c, 3, 30
4, 3840, Note_on_c, 2, 70, 95
4, 4320, Note_off_c, 2, 70, 95
4, 4320, Note_on_c, 2, 71, 95
4, 4800, Note_off_c, 2, 71, 95
4, 4800, Note_on_c, 2, 75, 95
4, 5280, Note_off_c, 2, 75, 95
4, 5280, Note_on_c, 2, 74, 95
4, 5760, Note_off_c, 2, 74, 95
4, 5760, Note_on_c, 2, 70, 95
4, 6240, Note_off_c, 2, 70, 95
4, 6240, Note_on_c, 2, 71, 95
4, 6720, Note_off_c, 2, 71, 95
4, 6720, Note_on_c, 2, 75, 95
4, 7200, Note_off_c, 2, 75, 95
4, 7200, Note_on_c, 2, 74, 95
4, 7680, Note_off_c, 2, 74, 95
4, 7680, Note_on_c, 2, 70, 95
4, 8160, Note_off_c, 2, 70, 95
4, 8160, Note_on_c, 2, 71, 95
4, 8640, Note_off_c, 2, 71, 95
4, 8640, Note_on_c, 2, 75, 95
4, 9120, Note_off_c, 2, 75, 95
4, 9120, Note_on_c, 2, 74, 95
4, 9600, Note_off_c, 2, 74, 95
4, 9600, Note_on_c, 2, 72, 95
4, 9840, Note_off_c, 2, 72, 95
4, 9840, Note_on_c, 2, 71, 95
4, 10080, Note_off_c, 2, 71, 95
4, 10080, Note_on_c, 2, 70, 95
4, 10320, Note_off_c, 2, 70, 95
4, 10320, Note_on_c, 2, 69, 95
4, 10560, Note_off_c, 2, 69, 95
4, 10560, Note_on_c, 2, 73, 95
4, 10800, Note_off_c, 2, 73, 95
4, 10800, Note_on_c, 2, 72, 95
4, 11040, Note_off_c, 2, 72, 95
4, 11040, Note_on_c, 2, 71, 95
4, 11280, Note_off_c, 2, 71, 95
4, 11280, Note_on_c, 2, 70, 95
4, 11520, Note_off_c, 2, 70, 95
4, 11520, Note_on_c, 2, 70, 95
4, 12000, Note_off_c, 2, 70, 95
4, 12000, Note_on_c, 2, 71, 95
4, 12480, Note_off_c, 2, 71, 95
4, 12480, Note_on_c, 2, 75, 95
4, 12960, Note_off_c, 2, 75, 95
4, 12960, Note_on_c, 2, 74, 95
4, 13440, Note_off_c, 2, 74, 95
4, 13440, Note_on_c, 2, 70, 95
4, 13920, Note_off_c, 2, 70, 95
4, 13920, Note_on_c, 2, 71, 95
4, 14400, Note_off_c, 2, 71, 95
4, 14400, Note_on_c, 2, 75, 95
4, 14880, Note_off_c, 2, 75, 95
4, 14880, Note_on_c, 2, 74, 95
4, 15360, Note_off_c, 2, 74, 95
4, 15360, Note_on_c, 2, 70, 95
4, 15840, Note_off_c, 2, 70, 95
4, 15840, Note_on_c, 2, 71, 95
4, 16320, Note_off_c, 2, 71, 95
4, 16320, Note_on_c, 2, 75, 95
4, 16800, Note_off_c, 2, 75, 95
4, 16800, Note_on_c, 2, 74, 95
4, 17280, Note_off_c, 2, 74, 95
4, 17280, Note_on_c, 2, 72, 95
4, 17520, Note_off_c, 2, 72, 95
4, 17520, Note_on_c, 2, 71, 95
4, 17760, Note_off_c, 2, 71, 95
4, 17760, Note_on_c, 2, 70, 95
4, 18000, Note_off_c, 2, 70, 95
4, 18000, Note_on_c, 2, 69, 95
4, 18240, Note_off_c, 2, 69, 95
4, 18240, Note_on_c, 2, 73, 95
4, 18480, Note_off_c, 2, 73, 95
4, 18480, Note_on_c, 2, 72, 95
4, 18720, Note_off_c, 2, 72, 95
4, 18720, Note_on_c, 2, 71, 95
4, 18960, Note_off_c, 2, 71, 95
4, 18960, Note_on_c, 2, 70, 95
4, 19200, Note_off_c, 2, 70, 95
4, 19200, Note_on_c, 2, 55, 95
4, 19680, Note_off_c, 2, 55, 95
4, 19680, Note_on_c, 2, 62, 95
4, 20160, Note_off_c, 2, 62, 95
4, 20160, Note_on_c, 2, 66, 95
4, 20640, Note_off_c, 2, 66, 95
4, 20640, Note_on_c, 2, 62, 95
4, 21120, Note_off_c, 2, 62, 95
4, 21120, Note_on_c, 2, 55, 95
4, 21600, Note_off_c, 2, 55, 95
4, 21600, Note_on_c, 2, 62, 95
4, 22080, Note_off_c, 2, 62, 95
4, 22080, Note_on_c, 2, 63, 95
4, 22560, Note_off_c, 2, 63, 95
4, 22560, Note_on_c, 2, 62, 95
4, 23040, Note_off_c, 2, 62, 95
4, 23040, Note_on_c, 2, 55, 95
4, 23520, Note_off_c, 2, 55, 95
4, 23520, Note_on_c, 2, 62, 95
4, 24000, Note_off_c, 2, 62, 95
4, 24000, Note_on_c, 2, 66, 95
4, 24480, Note_off_c, 2, 66, 95
4, 24480, Note_on_c, 2, 62, 95
4, 24960, Note_off_c, 2, 62, 95
4, 24960, Note_on_c, 2, 55, 95
4, 25440, Note_off_c, 2, 55, 95
4, 25440, Note_on_c, 2, 62, 95
4, 25920, Note_off_c, 2, 62, 95
4, 25920, Note_on_c, 2, 63, 95
4, 26400, Note_off_c, 2, 63, 95
4, 26400, Note_on_c, 2, 62, 95
4, 26880, Note_off_c, 2, 62, 95
4, 26880, Note_on_c, 2, 74, 95
4, 27120, Note_off_c, 2, 74, 95
4, 27120, Note_on_c, 2, 75, 95
4, 27360, Note_off_c, 2, 75, 95
4, 27360, Note_on_c, 2, 76, 95
4, 27600, Note_off_c, 2, 76, 95
4, 27600, Note_on_c, 2, 77, 95
4, 27840, Note_off_c, 2, 77, 95
4, 27840, Note_on_c, 2, 75, 95
4, 28080, Note_off_c, 2, 75, 95
4, 28080, Note_on_c, 2, 76, 95
4, 28320, Note_off_c, 2, 76, 95
4, 28320, Note_on_c, 2, 77, 95
4, 28560, Note_off_c, 2, 77, 95
4, 28560, Note_on_c, 2, 78, 95
4, 28800, Note_off_c, 2, 78, 95
4, 28800, Note_on_c, 2, 76, 95
4, 29040, Note_off_c, 2, 76, 95
4, 29040, Note_on_c, 2, 77, 95
4, 29280, Note_off_c, 2, 77, 95
4, 29280, Note_on_c, 2, 78, 95
4, 29520, Note_off_c, 2, 78, 95
4, 29520, Note_on_c, 2, 79, 95
4, 29760, Note_off_c, 2, 79, 95
4, 29760, Note_on_c, 2, 77, 95
4, 30000, Note_off_c, 2, 77, 95
4, 30000, Note_on_c, 2, 78, 95
4, 30240, Note_off_c, 2, 78, 95
4, 30240, Note_on_c, 2, 79, 95
4, 30480, Note_off_c, 2, 79, 95
4, 30480, Note_on_c, 2, 80, 95
4, 30720, Note_off_c, 2, 80, 95
4, 30720, Note_on_c, 3, 73, 95
4, 30840, Pitch_bend_c, 3, 8832
4, 30960, Pitch_bend_c, 3, 9600
4, 31080, Pitch_bend_c, 3, 10240
4, 31200, Pitch_bend_c, 3, 11008
4, 31320, Pitch_bend_c, 3, 11648
4, 31440, Pitch_bend_c, 3, 12416
4, 31560, Pitch_bend_c, 3, 13056
4, 31680, Pitch_bend_c, 3, 13824
4, 31680, Pitch_bend_c, 3, 8192
4, 31680, Note_off_c, 3, 73, 95
4, 31680, Note_on_c, 2, 81, 95
4, 32640, Note_off_c, 2, 81, 95
4, 32640, Note_on_c, 3, 73, 95
4, 32760, Pitch_bend_c, 3, 8832
4, 32880, Pitch_bend_c, 3, 9600
4, 33000, Pitch_bend_c, 3, 10240
4, 33120, Pitch_bend_c, 3, 11008
4, 33240, Pitch_bend_c, 3, 11648
4, 33360, Pitch_bend_c, 3, 12416
4, 33480, Pitch_bend_c, 3, 13056
4, 33600, Pitch_bend_c, 3, 13824
4, 33600, Pitch_bend_c, 3, 8192
4, 33600, Note_off_c, 3, 73, 95
4, 33600, Note_on_c, 2, 81, 95
4, 34560, Note_off_c, 2, 81, 95
4, 34560, Note_on_c, 3, 73, 95
4, 34680, Pitch_bend_c, 3, 8832
4, 34800, Pitch_bend_c, 3, 9600
4, 34920, Pitch_bend_c, 3, 10240
4, 35040, Pitch_bend_c, 3, 11008
4, 35160, Pitch_bend_c, 3, 11648
4, 35280, Pitch_bend_c, 3, 12416
4, 35400, Pitch_bend_c, 3, 13056
4, 35520, Pitch_bend_c, 3, 13824
4, 35520, Pitch_bend_c, 3, 8192
4, 35520, Note_off_c, 3, 73, 95
4, 35520, Note_on_c, 2, 81, 95
4, 36480, Note_off_c, 2, 81, 95
4, 36480, Note_on_c, 2, 79, 95
4, 36480, Note_on_c, 2, 67, 95
4, 36960, Note_off_c, 2, 79, 95
4, 36960, Note_off_c, 2, 67, 95
4, 36960, Note_on_c, 2, 78, 95
4, 36960, Note_on_c, 2, 66, 95
4, 37440, Note_off_c, 2, 78, 95
4, 37440, Note_off_c, 2, 66, 95
4, 37440, Note_on_c, 2, 79, 95
4, 37440, Note_on_c, 2, 67, 95
4, 37920, Note_off_c, 2, 79, 95
4, 37920, Note_off_c, 2, 67, 95
4, 37920, Note_on_c, 2, 78, 95
4, 37920, Note_on_c, 2, 66, 95
4, 38400, Note_off_c, 2, 78, 95
4, 38400, Note_off_c, 2, 66, 95
4, 38400, Note_on_c, 2, 79, 95
4, 38400, Note_on_c, 2, 67, 95
4, 38880, Note_off_c, 2, 79, 95
4, 38880, Note_off_c, 2, 67, 95
4, 38880, Note_on_c, 2, 78, 95
4, 38880, Note_on_c, 2, 66, 95
4, 39360, Note_off_c, 2, 78, 95
4, 39360, Note_off_c, 2, 66, 95
4, 39360, Note_on_c, 2, 79, 95
4, 39360, Note_on_c, 2, 67, 95
4, 39840, Note_off_c, 2, 79, 95
4, 39840, Note_off_c, 2, 67, 95
4, 39840, End_track
0, 0, End_of_file
