0, 0, Header, 1, 11, 240
1, 0, Start_track
1, 0, Title_t, "untitled"
1, 0, SMPTE_offset, 96, 0, 3, 0, 0
1, 0, Time_signature, 4, 2, 24, 8
1, 0, Key_signature, 0, "major"
1, 0, Tempo, 504202
1, 0, Marker_t, "Peg"
1, 50880, Marker_t, "Guitar Solo"
1, 50880, End_track
2, 0, Start_track
2, 0, MIDI_port, 0
2, 0, Title_t, "C1-P4-Rhodes"
2, 0, Control_c, 0, 0, 56
2, 0, Control_c, 0, 32, 0
2, 0, Program_c, 0, 4
2, 0, Control_c, 0, 7, 92
2, 0, Control_c, 0, 10, 64
2, 0, Control_c, 0, 91, 77
2, 0, Control_c, 0, 93, 127
2, 957, Poly_aftertouch_c, 0, 12, 0
2, 958, Poly_aftertouch_c, 0, 3, 0
2, 959, Poly_aftertouch_c, 0, 2, 0
2, 963, Note_on_c, 0, 66, 70
2, 963, Note_on_c, 0, 62, 85
2, 964, Note_on_c, 0, 59, 74
2, 964, Note_on_c, 0, 69, 83
2, 964, Note_on_c, 0, 31, 65
2, 965, Note_on_c, 0, 43, 72
2, 1861, Note_on_c, 0, 31, 0
2, 1861, Note_on_c, 0, 69, 0
2, 1863, Note_on_c, 0, 43, 0
2, 1864, Note_on_c, 0, 66, 0
2, 1864, Note_on_c, 0, 59, 0
2, 1864, Note_on_c, 0, 62, 0
2, 1931, Note_on_c, 0, 30, 76
2, 1938, Note_on_c, 0, 42, 74
2, 1939, Note_on_c, 0, 61, 70
2, 1943, Note_on_c, 0, 58, 76
2, 1945, Note_on_c, 0, 69, 81
2, 1946, Note_on_c, 0, 64, 83
2, 2809, Note_on_c, 0, 42, 0
2, 2830, Note_on_c, 0, 30, 0
2, 2838, Note_on_c, 0, 61, 0
2, 2843, Note_on_c, 0, 58, 0
2, 2846, Note_on_c, 0, 64, 0
2, 2862, Note_on_c, 0, 69, 0
2, 2877, Note_on_c, 0, 60, 76
2, 2880, Note_on_c, 0, 64, 72
2, 2882, Note_on_c, 0, 29, 76
2, 2883, Note_on_c, 0, 57, 76
2, 2884, Note_on_c, 0, 41, 57
2, 2885, Note_on_c, 0, 67, 83
2, 3780, Note_on_c, 0, 64, 0
2, 3781, Note_on_c, 0, 60, 0
2, 3782, Note_on_c, 0, 29, 0
2, 3783, Note_on_c, 0, 57, 0
2, 3786, Note_on_c, 0, 41, 0
2, 3787, Note_on_c, 0, 67, 0
2, 3844, Note_on_c, 0, 67, 83
2, 3847, Note_on_c, 0, 56, 76
2, 3848, Note_on_c, 0, 59, 83
2, 3849, Note_on_c, 0, 40, 78
2, 3852, Note_on_c, 0, 62, 83
2, 4746, Note_on_c, 0, 67, 0
2, 4748, Note_on_c, 0, 56, 0
2, 4749, Note_on_c, 0, 59, 0
2, 4750, Note_on_c, 0, 40, 0
2, 4753, Note_on_c, 0, 62, 0
2, 4783, Note_on_c, 0, 65, 70
2, 4786, Note_on_c, 0, 55, 85
2, 4787, Note_on_c, 0, 58, 81
2, 4789, Note_on_c, 0, 62, 83
2, 4791, Note_on_c, 0, 39, 83
2, 4803, Note_on_c, 0, 67, 83
2, 5702, Note_on_c, 0, 55, 0
2, 5702, Note_on_c, 0, 65, 0
2, 5703, Note_on_c, 0, 58, 0
2, 5703, Note_on_c, 0, 67, 0
2, 5704, Note_on_c, 0, 62, 0
2, 5704, Note_on_c, 0, 39, 0
2, 5742, Note_on_c, 0, 57, 88
2, 5745, Note_on_c, 0, 38, 90
2, 5747, Note_on_c, 0, 65, 83
2, 5748, Note_on_c, 0, 62, 85
2, 5750, Note_on_c, 0, 54, 93
2, 5761, Note_on_c, 0, 60, 47
2, 6661, Note_on_c, 0, 57, 0
2, 6663, Note_on_c, 0, 60, 0
2, 6664, Note_on_c, 0, 38, 0
2, 6665, Note_on_c, 0, 62, 0
2, 6665, Note_on_c, 0, 65, 0
2, 6666, Note_on_c, 0, 54, 0
2, 6716, Note_on_c, 0, 64, 70
2, 6719, Note_on_c, 0, 60, 78
2, 6724, Note_on_c, 0, 67, 68
2, 6726, Note_on_c, 0, 59, 68
2, 6761, Note_on_c, 0, 60, 0
2, 6762, Note_on_c, 0, 67, 0
2, 6763, Note_on_c, 0, 59, 0
2, 6770, Note_on_c, 0, 64, 0
2, 6899, Note_on_c, 0, 60, 85
2, 6902, Note_on_c, 0, 64, 85
2, 6903, Note_on_c, 0, 59, 85
2, 6904, Note_on_c, 0, 67, 88
2, 6961, Note_on_c, 0, 59, 0
2, 6961, Note_on_c, 0, 64, 0
2, 6962, Note_on_c, 0, 60, 0
2, 6983, Note_on_c, 0, 67, 0
2, 7077, Note_on_c, 0, 67, 78
2, 7082, Note_on_c, 0, 59, 88
2, 7083, Note_on_c, 0, 62, 88
2, 7084, Note_on_c, 0, 57, 85
2, 7677, Note_on_c, 0, 67, 0
2, 7678, Note_on_c, 0, 59, 0
2, 7682, Note_on_c, 0, 62, 0
2, 7683, Note_on_c, 0, 57, 0
2, 7684, Note_on_c, 0, 60, 83
2, 7685, Note_on_c, 0, 67, 72
2, 7686, Note_on_c, 0, 59, 72
2, 7687, Note_on_c, 0, 64, 76
2, 7741, Note_on_c, 0, 59, 0
2, 7747, Note_on_c, 0, 60, 0
2, 7752, Note_on_c, 0, 64, 0
2, 7762, Note_on_c, 0, 67, 0
2, 7863, Note_on_c, 0, 67, 76
2, 7866, Note_on_c, 0, 60, 88
2, 7868, Note_on_c, 0, 59, 72
2, 7869, Note_on_c, 0, 64, 83
2, 7917, Note_on_c, 0, 59, 0
2, 7922, Note_on_c, 0, 64, 0
2, 7924, Note_on_c, 0, 60, 0
2, 7935, Note_on_c, 0, 67, 0
2, 8037, Note_on_c, 0, 67, 74
2, 8042, Note_on_c, 0, 57, 85
2, 8042, Note_on_c, 0, 59, 85
2, 8043, Note_on_c, 0, 62, 85
2, 8559, Note_on_c, 0, 57, 0
2, 8560, Note_on_c, 0, 62, 0
2, 8564, Note_on_c, 0, 59, 0
2, 8567, Note_on_c, 0, 67, 0
2, 8646, Note_on_c, 0, 60, 85
2, 8646, Note_on_c, 0, 67, 76
2, 8647, Note_on_c, 0, 64, 83
2, 8650, Note_on_c, 0, 59, 83
2, 8711, Note_on_c, 0, 64, 0
2, 8716, Note_on_c, 0, 60, 0
2, 8717, Note_on_c, 0, 59, 0
2, 8723, Note_on_c, 0, 67, 0
2, 8829, Note_on_c, 0, 59, 78
2, 8830, Note_on_c, 0, 60, 83
2, 8832, Note_on_c, 0, 67, 74
2, 8834, Note_on_c, 0, 64, 83
2, 8887, Note_on_c, 0, 59, 0
2, 8892, Note_on_c, 0, 64, 0
2, 8895, Note_on_c, 0, 60, 0
2, 8907, Note_on_c, 0, 67, 0
2, 9006, Note_on_c, 0, 67, 76
2, 9009, Note_on_c, 0, 59, 85
2, 9010, Note_on_c, 0, 62, 85
2, 9011, Note_on_c, 0, 57, 83
2, 9516, Note_on_c, 0, 59, 0
2, 9517, Note_on_c, 0, 57, 0
2, 9519, Note_on_c, 0, 67, 0
2, 9520, Note_on_c, 0, 62, 0
2, 9604, Note_on_c, 0, 60, 78
2, 9607, Note_on_c, 0, 59, 74
2, 9608, Note_on_c, 0, 64, 81
2, 9610, Note_on_c, 0, 67, 74
2, 9657, Note_on_c, 0, 60, 0
2, 9661, Note_on_c, 0, 64, 0
2, 9662, Note_on_c, 0, 59, 0
2, 9674, Note_on_c, 0, 67, 0
2, 9794, Note_on_c, 0, 60, 83
2, 9795, Note_on_c, 0, 67, 81
2, 9796, Note_on_c, 0, 59, 74
2, 9798, Note_on_c, 0, 64, 81
2, 9846, Note_on_c, 0, 64, 0
2, 9846, Note_on_c, 0, 60, 0
2, 9848, Note_on_c, 0, 59, 0
2, 9860, Note_on_c, 0, 67, 0
2, 9970, Note_on_c, 0, 59, 88
2, 9972, Note_on_c, 0, 57, 78
2, 9975, Note_on_c, 0, 62, 85
2, 9975, Note_on_c, 0, 67, 68
2, 10467, Note_on_c, 0, 59, 0
2, 10472, Note_on_c, 0, 57, 0
2, 10477, Note_on_c, 0, 62, 0
2, 10484, Note_on_c, 0, 67, 0
2, 10564, Note_on_c, 0, 60, 78
2, 10567, Note_on_c, 0, 59, 74
2, 10568, Note_on_c, 0, 64, 81
2, 10570, Note_on_c, 0, 67, 74
2, 10617, Note_on_c, 0, 60, 0
2, 10621, Note_on_c, 0, 64, 0
2, 10623, Note_on_c, 0, 59, 0
2, 10636, Note_on_c, 0, 67, 0
2, 10753, Note_on_c, 0, 60, 83
2, 10754, Note_on_c, 0, 67, 81
2, 10754, Note_on_c, 0, 59, 74
2, 10757, Note_on_c, 0, 64, 81
2, 10804, Note_on_c, 0, 60, 0
2, 10805, Note_on_c, 0, 64, 0
2, 10807, Note_on_c, 0, 59, 0
2, 10821, Note_on_c, 0, 67, 0
2, 10931, Note_on_c, 0, 59, 88
2, 10933, Note_on_c, 0, 57, 78
2, 10936, Note_on_c, 0, 62, 85
2, 10937, Note_on_c, 0, 67, 68
2, 11427, Note_on_c, 0, 59, 0
2, 11432, Note_on_c, 0, 57, 0
2, 11437, Note_on_c, 0, 62, 0
2, 11445, Note_on_c, 0, 67, 0
2, 11523, Note_on_c, 0, 64, 70
2, 11524, Note_on_c, 0, 60, 81
2, 11524, Note_on_c, 0, 59, 72
2, 11524, Note_on_c, 0, 67, 72
2, 11572, Note_on_c, 0, 60, 0
2, 11577, Note_on_c, 0, 64, 0
2, 11578, Note_on_c, 0, 59, 0
2, 11595, Note_on_c, 0, 67, 0
2, 11715, Note_on_c, 0, 60, 85
2, 11716, Note_on_c, 0, 64, 83
2, 11718, Note_on_c, 0, 59, 78
2, 11718, Note_on_c, 0, 67, 83
2, 11766, Note_on_c, 0, 59, 0
2, 11768, Note_on_c, 0, 60, 0
2, 11770, Note_on_c, 0, 64, 0
2, 11796, Note_on_c, 0, 67, 0
2, 11887, Note_on_c, 0, 67, 65
2, 11890, Note_on_c, 0, 59, 83
2, 11892, Note_on_c, 0, 57, 70
2, 11895, Note_on_c, 0, 62, 74
2, 12394, Note_on_c, 0, 57, 0
2, 12397, Note_on_c, 0, 59, 0
2, 12400, Note_on_c, 0, 67, 0
2, 12401, Note_on_c, 0, 62, 0
2, 12482, Note_on_c, 0, 69, 83
2, 12484, Note_on_c, 0, 65, 83
2, 12487, Note_on_c, 0, 64, 81
2, 12488, Note_on_c, 0, 72, 78
2, 12552, Note_on_c, 0, 65, 0
2, 12560, Note_on_c, 0, 69, 0
2, 12562, Note_on_c, 0, 64, 0
2, 12567, Note_on_c, 0, 72, 0
2, 12667, Note_on_c, 0, 65, 85
2, 12670, Note_on_c, 0, 69, 83
2, 12671, Note_on_c, 0, 72, 81
2, 12672, Note_on_c, 0, 64, 78
2, 12722, Note_on_c, 0, 65, 0
2, 12725, Note_on_c, 0, 64, 0
2, 12729, Note_on_c, 0, 69, 0
2, 12753, Note_on_c, 0, 72, 0
2, 12846, Note_on_c, 0, 62, 76
2, 12846, Note_on_c, 0, 72, 74
2, 12848, Note_on_c, 0, 64, 83
2, 12849, Note_on_c, 0, 67, 88
2, 13359, Note_on_c, 0, 67, 0
2, 13362, Note_on_c, 0, 64, 0
2, 13370, Note_on_c, 0, 62, 0
2, 13387, Note_on_c, 0, 72, 0
2, 13445, Note_on_c, 0, 69, 83
2, 13446, Note_on_c, 0, 72, 72
2, 13448, Note_on_c, 0, 65, 72
2, 13450, Note_on_c, 0, 64, 70
2, 13502, Note_on_c, 0, 69, 0
2, 13504, Note_on_c, 0, 65, 0
2, 13509, Note_on_c, 0, 64, 0
2, 13527, Note_on_c, 0, 72, 0
2, 13625, Note_on_c, 0, 72, 70
2, 13626, Note_on_c, 0, 65, 70
2, 13627, Note_on_c, 0, 69, 70
2, 13630, Note_on_c, 0, 64, 63
2, 13685, Note_on_c, 0, 65, 0
2, 13691, Note_on_c, 0, 64, 0
2, 13691, Note_on_c, 0, 69, 0
2, 13698, Note_on_c, 0, 72, 0
2, 13800, Note_on_c, 0, 72, 65
2, 13804, Note_on_c, 0, 62, 65
2, 13805, Note_on_c, 0, 64, 81
2, 13807, Note_on_c, 0, 67, 70
2, 14324, Note_on_c, 0, 67, 0
2, 14330, Note_on_c, 0, 72, 0
2, 14332, Note_on_c, 0, 64, 0
2, 14332, Note_on_c, 0, 62, 0
2, 14409, Note_on_c, 0, 59, 68
2, 14412, Note_on_c, 0, 64, 88
2, 14414, Note_on_c, 0, 67, 74
2, 14416, Note_on_c, 0, 60, 81
2, 14469, Note_on_c, 0, 60, 0
2, 14481, Note_on_c, 0, 59, 0
2, 14491, Note_on_c, 0, 64, 0
2, 14492, Note_on_c, 0, 67, 0
2, 14584, Note_on_c, 0, 60, 83
2, 14587, Note_on_c, 0, 67, 72
2, 14590, Note_on_c, 0, 59, 72
2, 14592, Note_on_c, 0, 64, 78
2, 14657, Note_on_c, 0, 64, 0
2, 14659, Note_on_c, 0, 60, 0
2, 14664, Note_on_c, 0, 59, 0
2, 14677, Note_on_c, 0, 67, 0
2, 14770, Note_on_c, 0, 57, 85
2, 14773, Note_on_c, 0, 62, 88
2, 14774, Note_on_c, 0, 59, 85
2, 14775, Note_on_c, 0, 67, 81
2, 15245, Note_on_c, 0, 57, 0
2, 15246, Note_on_c, 0, 62, 0
2, 15247, Note_on_c, 0, 59, 0
2, 15260, Note_on_c, 0, 67, 0
2, 15358, Note_on_c, 0, 60, 72
2, 15359, Note_on_c, 0, 67, 68
2, 15362, Note_on_c, 0, 59, 65
2, 15364, Note_on_c, 0, 64, 65
2, 15417, Note_on_c, 0, 60, 0
2, 15419, Note_on_c, 0, 64, 0
2, 15422, Note_on_c, 0, 59, 0
2, 15437, Note_on_c, 0, 67, 0
2, 15547, Note_on_c, 0, 67, 74
2, 15548, Note_on_c, 0, 60, 83
2, 15550, Note_on_c, 0, 64, 78
2, 15552, Note_on_c, 0, 59, 74
2, 15598, Note_on_c, 0, 60, 0
2, 15599, Note_on_c, 0, 64, 0
2, 15602, Note_on_c, 0, 59, 0
2, 15614, Note_on_c, 0, 67, 0
2, 15724, Note_on_c, 0, 67, 68
2, 15727, Note_on_c, 0, 59, 81
2, 15729, Note_on_c, 0, 62, 74
2, 15732, Note_on_c, 0, 57, 70
2, 16282, Note_on_c, 0, 57, 0
2, 16292, Note_on_c, 0, 59, 0
2, 16297, Note_on_c, 0, 62, 0
2, 16299, Note_on_c, 0, 67, 0
2, 16322, Note_on_c, 0, 74, 81
2, 16323, Note_on_c, 0, 66, 83
2, 16324, Note_on_c, 0, 67, 81
2, 16324, Note_on_c, 0, 71, 78
2, 16377, Note_on_c, 0, 74, 0
2, 16379, Note_on_c, 0, 66, 0
2, 16380, Note_on_c, 0, 71, 0
2, 16381, Note_on_c, 0, 67, 0
2, 16498, Note_on_c, 0, 74, 81
2, 16502, Note_on_c, 0, 67, 85
2, 16504, Note_on_c, 0, 71, 74
2, 16506, Note_on_c, 0, 66, 85
2, 16544, Note_on_c, 0, 67, 0
2, 16547, Note_on_c, 0, 71, 0
2, 16554, Note_on_c, 0, 74, 0
2, 16557, Note_on_c, 0, 66, 0
2, 16684, Note_on_c, 0, 66, 85
2, 16687, Note_on_c, 0, 69, 88
2, 16688, Note_on_c, 0, 74, 83
2, 16689, Note_on_c, 0, 64, 85
2, 17222, Note_on_c, 0, 74, 0
2, 17225, Note_on_c, 0, 64, 0
2, 17232, Note_on_c, 0, 66, 0
2, 17233, Note_on_c, 0, 69, 0
2, 17286, Note_on_c, 0, 69, 88
2, 17286, Note_on_c, 0, 65, 85
2, 17288, Note_on_c, 0, 72, 74
2, 17289, Note_on_c, 0, 64, 78
2, 17333, Note_on_c, 0, 65, 0
2, 17338, Note_on_c, 0, 64, 0
2, 17343, Note_on_c, 0, 69, 0
2, 17350, Note_on_c, 0, 72, 0
2, 17467, Note_on_c, 0, 65, 85
2, 17469, Note_on_c, 0, 72, 81
2, 17472, Note_on_c, 0, 69, 88
2, 17473, Note_on_c, 0, 64, 85
2, 17524, Note_on_c, 0, 65, 0
2, 17526, Note_on_c, 0, 69, 0
2, 17527, Note_on_c, 0, 64, 0
2, 17551, Note_on_c, 0, 72, 0
2, 17645, Note_on_c, 0, 72, 83
2, 17647, Note_on_c, 0, 62, 85
2, 17650, Note_on_c, 0, 67, 88
2, 17651, Note_on_c, 0, 64, 90
2, 18207, Note_on_c, 0, 67, 0
2, 18208, Note_on_c, 0, 64, 0
2, 18210, Note_on_c, 0, 72, 0
2, 18212, Note_on_c, 0, 62, 0
2, 18242, Note_on_c, 0, 59, 74
2, 18243, Note_on_c, 0, 60, 78
2, 18243, Note_on_c, 0, 64, 76
2, 18244, Note_on_c, 0, 67, 74
2, 18302, Note_on_c, 0, 60, 0
2, 18303, Note_on_c, 0, 64, 0
2, 18305, Note_on_c, 0, 67, 0
2, 18312, Note_on_c, 0, 59, 0
2, 18423, Note_on_c, 0, 60, 81
2, 18425, Note_on_c, 0, 67, 72
2, 18426, Note_on_c, 0, 64, 70
2, 18428, Note_on_c, 0, 59, 76
2, 18492, Note_on_c, 0, 64, 0
2, 18497, Note_on_c, 0, 60, 0
2, 18498, Note_on_c, 0, 59, 0
2, 18505, Note_on_c, 0, 67, 0
2, 18605, Note_on_c, 0, 67, 83
2, 18607, Note_on_c, 0, 59, 85
2, 18610, Note_on_c, 0, 62, 81
2, 18611, Note_on_c, 0, 57, 78
2, 19117, Note_on_c, 0, 59, 0
2, 19122, Note_on_c, 0, 62, 0
2, 19123, Note_on_c, 0, 57, 0
2, 19124, Note_on_c, 0, 67, 0
2, 19207, Note_on_c, 0, 59, 81
2, 19208, Note_on_c, 0, 67, 81
2, 19210, Note_on_c, 0, 60, 85
2, 19212, Note_on_c, 0, 64, 74
2, 19274, Note_on_c, 0, 59, 0
2, 19276, Note_on_c, 0, 64, 0
2, 19279, Note_on_c, 0, 60, 0
2, 19290, Note_on_c, 0, 67, 0
2, 19387, Note_on_c, 0, 60, 83
2, 19389, Note_on_c, 0, 67, 78
2, 19392, Note_on_c, 0, 59, 72
2, 19393, Note_on_c, 0, 64, 78
2, 19447, Note_on_c, 0, 59, 0
2, 19452, Note_on_c, 0, 64, 0
2, 19454, Note_on_c, 0, 60, 0
2, 19456, Note_on_c, 0, 67, 0
2, 19558, Note_on_c, 0, 59, 85
2, 19560, Note_on_c, 0, 67, 76
2, 19562, Note_on_c, 0, 57, 81
2, 19563, Note_on_c, 0, 62, 85
2, 20055, Note_on_c, 0, 59, 0
2, 20056, Note_on_c, 0, 67, 0
2, 20058, Note_on_c, 0, 57, 0
2, 20058, Note_on_c, 0, 62, 0
2, 20158, Note_on_c, 0, 59, 68
2, 20159, Note_on_c, 0, 60, 88
2, 20162, Note_on_c, 0, 67, 74
2, 20163, Note_on_c, 0, 64, 81
2, 20225, Note_on_c, 0, 64, 0
2, 20230, Note_on_c, 0, 59, 0
2, 20231, Note_on_c, 0, 60, 0
2, 20237, Note_on_c, 0, 67, 0
2, 20350, Note_on_c, 0, 60, 81
2, 20353, Note_on_c, 0, 59, 76
2, 20353, Note_on_c, 0, 67, 72
2, 20354, Note_on_c, 0, 64, 78
2, 20413, Note_on_c, 0, 60, 0
2, 20418, Note_on_c, 0, 59, 0
2, 20421, Note_on_c, 0, 64, 0
2, 20423, Note_on_c, 0, 67, 0
2, 20530, Note_on_c, 0, 67, 70
2, 20532, Note_on_c, 0, 57, 76
2, 20533, Note_on_c, 0, 59, 83
2, 20535, Note_on_c, 0, 62, 76
2, 21062, Note_on_c, 0, 57, 0
2, 21063, Note_on_c, 0, 59, 0
2, 21065, Note_on_c, 0, 62, 0
2, 21074, Note_on_c, 0, 67, 0
2, 21127, Note_on_c, 0, 67, 76
2, 21129, Note_on_c, 0, 59, 76
2, 21130, Note_on_c, 0, 60, 81
2, 21132, Note_on_c, 0, 64, 70
2, 21205, Note_on_c, 0, 59, 0
2, 21209, Note_on_c, 0, 64, 0
2, 21211, Note_on_c, 0, 60, 0
2, 21220, Note_on_c, 0, 67, 0
2, 21314, Note_on_c, 0, 67, 68
2, 21317, Note_on_c, 0, 60, 78
2, 21319, Note_on_c, 0, 64, 72
2, 21321, Note_on_c, 0, 59, 74
2, 21379, Note_on_c, 0, 59, 0
2, 21382, Note_on_c, 0, 64, 0
2, 21387, Note_on_c, 0, 60, 0
2, 21394, Note_on_c, 0, 67, 0
2, 21491, Note_on_c, 0, 67, 68
2, 21493, Note_on_c, 0, 57, 81
2, 21494, Note_on_c, 0, 59, 88
2, 21496, Note_on_c, 0, 62, 78
2, 21966, Note_on_c, 0, 57, 0
2, 21972, Note_on_c, 0, 59, 0
2, 21974, Note_on_c, 0, 62, 0
2, 21989, Note_on_c, 0, 67, 0
2, 22071, Note_on_c, 0, 67, 68
2, 22076, Note_on_c, 0, 64, 76
2, 22077, Note_on_c, 0, 60, 72
2, 22078, Note_on_c, 0, 59, 65
2, 22152, Note_on_c, 0, 60, 0
2, 22154, Note_on_c, 0, 64, 0
2, 22156, Note_on_c, 0, 59, 0
2, 22162, Note_on_c, 0, 67, 0
2, 22267, Note_on_c, 0, 60, 78
2, 22269, Note_on_c, 0, 67, 74
2, 22270, Note_on_c, 0, 64, 74
2, 22272, Note_on_c, 0, 59, 68
2, 22348, Note_on_c, 0, 64, 0
2, 22351, Note_on_c, 0, 59, 0
2, 22353, Note_on_c, 0, 60, 0
2, 22363, Note_on_c, 0, 67, 0
2, 22440, Note_on_c, 0, 67, 65
2, 22444, Note_on_c, 0, 59, 78
2, 22447, Note_on_c, 0, 62, 70
2, 22448, Note_on_c, 0, 57, 72
2, 22941, Note_on_c, 0, 57, 0
2, 22946, Note_on_c, 0, 59, 0
2, 22948, Note_on_c, 0, 67, 0
2, 22949, Note_on_c, 0, 62, 0
2, 23037, Note_on_c, 0, 67, 70
2, 23045, Note_on_c, 0, 64, 70
2, 23047, Note_on_c, 0, 60, 72
2, 23048, Note_on_c, 0, 59, 68
2, 23125, Note_on_c, 0, 64, 0
2, 23126, Note_on_c, 0, 60, 0
2, 23127, Note_on_c, 0, 59, 0
2, 23130, Note_on_c, 0, 67, 0
2, 23231, Note_on_c, 0, 67, 78
2, 23233, Note_on_c, 0, 59, 83
2, 23234, Note_on_c, 0, 60, 83
2, 23236, Note_on_c, 0, 64, 76
2, 23309, Note_on_c, 0, 64, 0
2, 23312, Note_on_c, 0, 59, 0
2, 23314, Note_on_c, 0, 67, 0
2, 23315, Note_on_c, 0, 60, 0
2, 23404, Note_on_c, 0, 67, 72
2, 23408, Note_on_c, 0, 59, 85
2, 23410, Note_on_c, 0, 57, 83
2, 23411, Note_on_c, 0, 62, 83
2, 23932, Note_on_c, 0, 67, 0
2, 23935, Note_on_c, 0, 62, 0
2, 23941, Note_on_c, 0, 57, 0
2, 23942, Note_on_c, 0, 59, 0
2, 24001, Note_on_c, 0, 69, 90
2, 24003, Note_on_c, 0, 65, 88
2, 24004, Note_on_c, 0, 72, 83
2, 24005, Note_on_c, 0, 64, 83
2, 24053, Note_on_c, 0, 65, 0
2, 24063, Note_on_c, 0, 64, 0
2, 24068, Note_on_c, 0, 69, 0
2, 24076, Note_on_c, 0, 72, 0
2, 24190, Note_on_c, 0, 72, 81
2, 24195, Note_on_c, 0, 65, 88
2, 24196, Note_on_c, 0, 64, 88
2, 24197, Note_on_c, 0, 69, 83
2, 24246, Note_on_c, 0, 64, 0
2, 24246, Note_on_c, 0, 65, 0
2, 24247, Note_on_c, 0, 69, 0
2, 24265, Note_on_c, 0, 72, 0
2, 24367, Note_on_c, 0, 72, 83
2, 24369, Note_on_c, 0, 62, 81
2, 24372, Note_on_c, 0, 67, 83
2, 24374, Note_on_c, 0, 64, 85
2, 24883, Note_on_c, 0, 62, 0
2, 24884, Note_on_c, 0, 64, 0
2, 24888, Note_on_c, 0, 67, 0
2, 24891, Note_on_c, 0, 72, 0
2, 24967, Note_on_c, 0, 65, 83
2, 24968, Note_on_c, 0, 72, 70
2, 24970, Note_on_c, 0, 69, 74
2, 24971, Note_on_c, 0, 64, 68
2, 25029, Note_on_c, 0, 65, 0
2, 25034, Note_on_c, 0, 64, 0
2, 25037, Note_on_c, 0, 69, 0
2, 25047, Note_on_c, 0, 72, 0
2, 25146, Note_on_c, 0, 72, 72
2, 25148, Note_on_c, 0, 64, 78
2, 25149, Note_on_c, 0, 65, 85
2, 25151, Note_on_c, 0, 69, 78
2, 25196, Note_on_c, 0, 65, 0
2, 25197, Note_on_c, 0, 69, 0
2, 25198, Note_on_c, 0, 64, 0
2, 25210, Note_on_c, 0, 72, 0
2, 25322, Note_on_c, 0, 72, 72
2, 25324, Note_on_c, 0, 64, 85
2, 25327, Note_on_c, 0, 62, 78
2, 25328, Note_on_c, 0, 67, 83
2, 25827, Note_on_c, 0, 62, 0
2, 25830, Note_on_c, 0, 64, 0
2, 25831, Note_on_c, 0, 67, 0
2, 25832, Note_on_c, 0, 72, 0
2, 25922, Note_on_c, 0, 59, 68
2, 25923, Note_on_c, 0, 60, 76
2, 25925, Note_on_c, 0, 67, 68
2, 25926, Note_on_c, 0, 64, 76
2, 25967, Note_on_c, 0, 59, 0
2, 25973, Note_on_c, 0, 60, 0
2, 25981, Note_on_c, 0, 64, 0
2, 25983, Note_on_c, 0, 67, 0
2, 26104, Note_on_c, 0, 67, 63
2, 26108, Note_on_c, 0, 60, 76
2, 26109, Note_on_c, 0, 64, 70
2, 26110, Note_on_c, 0, 59, 65
2, 26162, Note_on_c, 0, 59, 0
2, 26164, Note_on_c, 0, 64, 0
2, 26170, Note_on_c, 0, 60, 0
2, 26180, Note_on_c, 0, 67, 0
2, 26289, Note_on_c, 0, 67, 72
2, 26290, Note_on_c, 0, 59, 74
2, 26291, Note_on_c, 0, 57, 72
2, 26293, Note_on_c, 0, 62, 70
2, 26782, Note_on_c, 0, 57, 0
2, 26786, Note_on_c, 0, 59, 0
2, 26787, Note_on_c, 0, 67, 0
2, 26787, Note_on_c, 0, 62, 0
2, 26868, Note_on_c, 0, 60, 83
2, 26871, Note_on_c, 0, 64, 85
2, 26873, Note_on_c, 0, 59, 72
2, 26874, Note_on_c, 0, 67, 83
2, 26964, Note_on_c, 0, 60, 0
2, 26965, Note_on_c, 0, 59, 0
2, 26967, Note_on_c, 0, 64, 0
2, 26967, Note_on_c, 0, 67, 0
2, 27062, Note_on_c, 0, 67, 68
2, 27064, Note_on_c, 0, 60, 68
2, 27068, Note_on_c, 0, 64, 68
2, 27068, Note_on_c, 0, 59, 61
2, 27131, Note_on_c, 0, 64, 0
2, 27133, Note_on_c, 0, 59, 0
2, 27136, Note_on_c, 0, 60, 0
2, 27138, Note_on_c, 0, 67, 0
2, 27245, Note_on_c, 0, 59, 78
2, 27247, Note_on_c, 0, 57, 74
2, 27250, Note_on_c, 0, 67, 70
2, 27251, Note_on_c, 0, 62, 65
2, 27837, Note_on_c, 0, 62, 0
2, 27841, Note_on_c, 0, 74, 83
2, 27842, Note_on_c, 0, 59, 0
2, 27843, Note_on_c, 0, 57, 0
2, 27843, Note_on_c, 0, 67, 0
2, 27844, Note_on_c, 0, 66, 81
2, 27847, Note_on_c, 0, 67, 74
2, 27848, Note_on_c, 0, 71, 74
2, 27902, Note_on_c, 0, 67, 0
2, 27911, Note_on_c, 0, 71, 0
2, 27911, Note_on_c, 0, 66, 0
2, 27915, Note_on_c, 0, 74, 0
2, 28022, Note_on_c, 0, 67, 83
2, 28023, Note_on_c, 0, 74, 83
2, 28025, Note_on_c, 0, 66, 83
2, 28027, Note_on_c, 0, 71, 74
2, 28084, Note_on_c, 0, 67, 0
2, 28085, Note_on_c, 0, 71, 0
2, 28088, Note_on_c, 0, 74, 0
2, 28089, Note_on_c, 0, 66, 0
2, 28207, Note_on_c, 0, 66, 85
2, 28211, Note_on_c, 0, 64, 85
2, 28212, Note_on_c, 0, 74, 85
2, 28213, Note_on_c, 0, 69, 90
2, 28699, Note_on_c, 0, 74, 0
2, 28702, Note_on_c, 0, 66, 0
2, 28704, Note_on_c, 0, 69, 0
2, 28706, Note_on_c, 0, 64, 0
2, 28802, Note_on_c, 0, 65, 85
2, 28804, Note_on_c, 0, 69, 83
2, 28804, Note_on_c, 0, 64, 74
2, 28805, Note_on_c, 0, 72, 74
2, 28862, Note_on_c, 0, 65, 0
2, 28864, Note_on_c, 0, 64, 0
2, 28870, Note_on_c, 0, 69, 0
2, 28871, Note_on_c, 0, 72, 0
2, 28982, Note_on_c, 0, 65, 85
2, 28983, Note_on_c, 0, 72, 76
2, 28984, Note_on_c, 0, 69, 85
2, 28987, Note_on_c, 0, 64, 78
2, 29034, Note_on_c, 0, 65, 0
2, 29038, Note_on_c, 0, 69, 0
2, 29041, Note_on_c, 0, 64, 0
2, 29058, Note_on_c, 0, 72, 0
2, 29160, Note_on_c, 0, 72, 74
2, 29162, Note_on_c, 0, 64, 88
2, 29165, Note_on_c, 0, 67, 88
2, 29167, Note_on_c, 0, 62, 83
2, 29701, Note_on_c, 0, 64, 0
2, 29704, Note_on_c, 0, 67, 0
2, 29707, Note_on_c, 0, 72, 0
2, 29708, Note_on_c, 0, 62, 0
2, 29762, Note_on_c, 0, 59, 65
2, 29762, Note_on_c, 0, 60, 78
2, 29762, Note_on_c, 0, 64, 72
2, 29767, Note_on_c, 0, 67, 70
2, 29812, Note_on_c, 0, 59, 0
2, 29813, Note_on_c, 0, 60, 0
2, 29814, Note_on_c, 0, 67, 0
2, 29820, Note_on_c, 0, 64, 0
2, 29943, Note_on_c, 0, 67, 70
2, 29946, Note_on_c, 0, 60, 81
2, 29949, Note_on_c, 0, 59, 70
2, 29950, Note_on_c, 0, 64, 78
2, 29995, Note_on_c, 0, 59, 0
2, 30003, Note_on_c, 0, 64, 0
2, 30003, Note_on_c, 0, 60, 0
2, 30014, Note_on_c, 0, 67, 0
2, 30121, Note_on_c, 0, 59, 85
2, 30121, Note_on_c, 0, 67, 74
2, 30122, Note_on_c, 0, 62, 72
2, 30126, Note_on_c, 0, 57, 76
2, 30634, Note_on_c, 0, 59, 0
2, 30637, Note_on_c, 0, 57, 0
2, 30639, Note_on_c, 0, 67, 0
2, 30645, Note_on_c, 0, 62, 0
2, 30722, Note_on_c, 0, 59, 65
2, 30723, Note_on_c, 0, 60, 78
2, 30723, Note_on_c, 0, 64, 72
2, 30727, Note_on_c, 0, 67, 70
2, 30773, Note_on_c, 0, 59, 0
2, 30774, Note_on_c, 0, 60, 0
2, 30775, Note_on_c, 0, 67, 0
2, 30782, Note_on_c, 0, 64, 0
2, 30902, Note_on_c, 0, 67, 70
2, 30905, Note_on_c, 0, 60, 81
2, 30907, Note_on_c, 0, 59, 70
2, 30909, Note_on_c, 0, 64, 78
2, 30955, Note_on_c, 0, 59, 0
2, 30962, Note_on_c, 0, 64, 0
2, 30962, Note_on_c, 0, 60, 0
2, 30974, Note_on_c, 0, 67, 0
2, 31081, Note_on_c, 0, 59, 85
2, 31082, Note_on_c, 0, 67, 74
2, 31082, Note_on_c, 0, 62, 72
2, 31084, Note_on_c, 0, 57, 76
2, 31595, Note_on_c, 0, 59, 0
2, 31598, Note_on_c, 0, 57, 0
2, 31601, Note_on_c, 0, 67, 0
2, 31606, Note_on_c, 0, 62, 0
2, 31684, Note_on_c, 0, 64, 85
2, 31685, Note_on_c, 0, 67, 83
2, 31686, Note_on_c, 0, 60, 88
2, 31686, Note_on_c, 0, 59, 85
2, 31741, Note_on_c, 0, 64, 0
2, 31742, Note_on_c, 0, 59, 0
2, 31742, Note_on_c, 0, 60, 0
2, 31745, Note_on_c, 0, 67, 0
2, 31866, Note_on_c, 0, 67, 83
2, 31868, Note_on_c, 0, 64, 88
2, 31870, Note_on_c, 0, 60, 85
2, 31871, Note_on_c, 0, 59, 85
2, 31916, Note_on_c, 0, 64, 0
2, 31922, Note_on_c, 0, 59, 0
2, 31925, Note_on_c, 0, 60, 0
2, 31934, Note_on_c, 0, 67, 0
2, 32032, Note_on_c, 0, 67, 83
2, 32034, Note_on_c, 0, 59, 85
2, 32036, Note_on_c, 0, 57, 85
2, 32037, Note_on_c, 0, 62, 85
2, 32502, Note_on_c, 0, 59, 0
2, 32503, Note_on_c, 0, 57, 0
2, 32505, Note_on_c, 0, 67, 0
2, 32507, Note_on_c, 0, 62, 0
2, 32641, Note_on_c, 0, 62, 74
2, 32644, Note_on_c, 0, 60, 85
2, 32644, Note_on_c, 0, 67, 88
2, 32708, Note_on_c, 0, 60, 0
2, 32710, Note_on_c, 0, 67, 0
2, 32716, Note_on_c, 0, 62, 0
2, 32820, Note_on_c, 0, 62, 76
2, 32822, Note_on_c, 0, 60, 85
2, 32824, Note_on_c, 0, 67, 83
2, 32874, Note_on_c, 0, 67, 0
2, 32885, Note_on_c, 0, 62, 0
2, 32886, Note_on_c, 0, 60, 0
2, 32993, Note_on_c, 0, 62, 88
2, 32996, Note_on_c, 0, 69, 83
2, 33000, Note_on_c, 0, 64, 90
2, 33546, Note_on_c, 0, 69, 0
2, 33548, Note_on_c, 0, 62, 0
2, 33551, Note_on_c, 0, 64, 0
2, 33603, Note_on_c, 0, 59, 68
2, 33604, Note_on_c, 0, 67, 78
2, 33604, Note_on_c, 0, 60, 65
2, 33604, Note_on_c, 0, 64, 70
2, 33665, Note_on_c, 0, 67, 0
2, 33669, Note_on_c, 0, 59, 0
2, 33670, Note_on_c, 0, 64, 0
2, 33672, Note_on_c, 0, 60, 0
2, 33783, Note_on_c, 0, 67, 76
2, 33786, Note_on_c, 0, 64, 83
2, 33786, Note_on_c, 0, 60, 83
2, 33787, Note_on_c, 0, 59, 70
2, 33825, Note_on_c, 0, 64, 0
2, 33828, Note_on_c, 0, 59, 0
2, 33833, Note_on_c, 0, 60, 0
2, 33846, Note_on_c, 0, 67, 0
2, 33952, Note_on_c, 0, 67, 78
2, 33955, Note_on_c, 0, 57, 81
2, 33956, Note_on_c, 0, 59, 78
2, 33957, Note_on_c, 0, 62, 72
2, 34430, Note_on_c, 0, 57, 0
2, 34431, Note_on_c, 0, 59, 0
2, 34436, Note_on_c, 0, 67, 0
2, 34438, Note_on_c, 0, 62, 0
2, 34562, Note_on_c, 0, 62, 74
2, 34563, Note_on_c, 0, 60, 85
2, 34564, Note_on_c, 0, 67, 88
2, 34627, Note_on_c, 0, 60, 0
2, 34629, Note_on_c, 0, 67, 0
2, 34634, Note_on_c, 0, 62, 0
2, 34740, Note_on_c, 0, 62, 76
2, 34742, Note_on_c, 0, 60, 85
2, 34744, Note_on_c, 0, 67, 83
2, 34794, Note_on_c, 0, 67, 0
2, 34804, Note_on_c, 0, 62, 0
2, 34806, Note_on_c, 0, 60, 0
2, 34912, Note_on_c, 0, 62, 88
2, 34916, Note_on_c, 0, 69, 83
2, 34918, Note_on_c, 0, 64, 90
2, 35464, Note_on_c, 0, 69, 0
2, 35467, Note_on_c, 0, 62, 0
2, 35469, Note_on_c, 0, 64, 0
2, 35526, Note_on_c, 0, 64, 96
2, 35527, Note_on_c, 0, 69, 90
2, 35528, Note_on_c, 0, 59, 93
2, 35818, Note_on_c, 0, 69, 0
2, 35826, Note_on_c, 0, 64, 0
2, 35831, Note_on_c, 0, 59, 0
2, 35885, Note_on_c, 0, 57, 90
2, 35886, Note_on_c, 0, 67, 90
2, 35887, Note_on_c, 0, 64, 99
2, 36370, Note_on_c, 0, 57, 0
2, 36373, Note_on_c, 0, 67, 0
2, 36374, Note_on_c, 0, 64, 0
2, 36482, Note_on_c, 0, 67, 85
2, 36483, Note_on_c, 0, 59, 81
2, 36484, Note_on_c, 0, 64, 85
2, 36682, Note_on_c, 0, 59, 0
2, 36683, Note_on_c, 0, 64, 0
2, 36684, Note_on_c, 0, 67, 0
2, 36710, Note_on_c, 0, 67, 63
2, 36712, Note_on_c, 0, 59, 63
2, 36715, Note_on_c, 0, 64, 70
2, 36742, Note_on_c, 0, 59, 0
2, 36756, Note_on_c, 0, 64, 0
2, 36757, Note_on_c, 0, 67, 0
2, 36832, Note_on_c, 0, 66, 70
2, 36834, Note_on_c, 0, 64, 85
2, 36836, Note_on_c, 0, 58, 78
2, 37413, Note_on_c, 0, 66, 0
2, 37416, Note_on_c, 0, 64, 0
2, 37417, Note_on_c, 0, 58, 0
2, 37448, Note_on_c, 0, 69, 95
2, 37449, Note_on_c, 0, 66, 83
2, 37451, Note_on_c, 0, 62, 88
2, 37453, Note_on_c, 0, 71, 83
2, 37773, Note_on_c, 0, 62, 0
2, 37776, Note_on_c, 0, 69, 0
2, 37778, Note_on_c, 0, 66, 0
2, 37783, Note_on_c, 0, 71, 0
2, 37801, Note_on_c, 0, 64, 85
2, 37812, Note_on_c, 0, 67, 88
2, 37815, Note_on_c, 0, 71, 81
2, 38359, Note_on_c, 0, 67, 0
2, 38368, Note_on_c, 0, 71, 0
2, 38405, Note_on_c, 0, 64, 0
2, 38405, Note_on_c, 0, 55, 86
2, 38405, Note_on_c, 0, 57, 85
2, 38407, Note_on_c, 0, 60, 88
2, 38409, Note_on_c, 0, 64, 90
2, 38669, Note_on_c, 0, 60, 0
2, 38671, Note_on_c, 0, 64, 0
2, 38682, Note_on_c, 0, 55, 0
2, 38700, Note_on_c, 0, 57, 0
2, 38761, Note_on_c, 0, 57, 85
2, 38762, Note_on_c, 0, 60, 83
2, 38767, Note_on_c, 0, 64, 85
2, 38769, Note_on_c, 0, 67, 88
2, 39302, Note_on_c, 0, 57, 0
2, 39303, Note_on_c, 0, 60, 0
2, 39314, Note_on_c, 0, 67, 0
2, 39319, Note_on_c, 0, 64, 0
2, 39364, Note_on_c, 0, 60, 85
2, 39366, Note_on_c, 0, 67, 76
2, 39367, Note_on_c, 0, 64, 83
2, 39371, Note_on_c, 0, 59, 83
2, 39431, Note_on_c, 0, 64, 0
2, 39436, Note_on_c, 0, 60, 0
2, 39437, Note_on_c, 0, 59, 0
2, 39444, Note_on_c, 0, 67, 0
2, 39550, Note_on_c, 0, 59, 78
2, 39551, Note_on_c, 0, 60, 83
2, 39552, Note_on_c, 0, 67, 74
2, 39554, Note_on_c, 0, 64, 83
2, 39607, Note_on_c, 0, 59, 0
2, 39612, Note_on_c, 0, 64, 0
2, 39614, Note_on_c, 0, 60, 0
2, 39627, Note_on_c, 0, 67, 0
2, 39725, Note_on_c, 0, 67, 76
2, 39728, Note_on_c, 0, 62, 85
2, 39729, Note_on_c, 0, 59, 85
2, 39731, Note_on_c, 0, 57, 83
2, 40236, Note_on_c, 0, 57, 0
2, 40236, Note_on_c, 0, 59, 0
2, 40238, Note_on_c, 0, 67, 0
2, 40239, Note_on_c, 0, 62, 0
2, 40325, Note_on_c, 0, 60, 78
2, 40327, Note_on_c, 0, 59, 74
2, 40328, Note_on_c, 0, 64, 81
2, 40329, Note_on_c, 0, 67, 74
2, 40377, Note_on_c, 0, 60, 0
2, 40380, Note_on_c, 0, 64, 0
2, 40382, Note_on_c, 0, 59, 0
2, 40394, Note_on_c, 0, 67, 0
2, 40514, Note_on_c, 0, 67, 81
2, 40514, Note_on_c, 0, 60, 83
2, 40516, Note_on_c, 0, 59, 74
2, 40517, Note_on_c, 0, 64, 81
2, 40566, Note_on_c, 0, 60, 0
2, 40567, Note_on_c, 0, 64, 0
2, 40569, Note_on_c, 0, 59, 0
2, 40580, Note_on_c, 0, 67, 0
2, 40689, Note_on_c, 0, 59, 88
2, 40692, Note_on_c, 0, 57, 78
2, 40694, Note_on_c, 0, 62, 85
2, 40695, Note_on_c, 0, 67, 68
2, 41187, Note_on_c, 0, 59, 0
2, 41192, Note_on_c, 0, 57, 0
2, 41197, Note_on_c, 0, 62, 0
2, 41204, Note_on_c, 0, 67, 0
2, 41287, Note_on_c, 0, 64, 88
2, 41289, Note_on_c, 0, 61, 99
2, 41290, Note_on_c, 0, 59, 96
2, 41292, Note_on_c, 0, 57, 93
2, 41587, Note_on_c, 0, 64, 0
2, 41590, Note_on_c, 0, 59, 0
2, 41591, Note_on_c, 0, 61, 0
2, 41592, Note_on_c, 0, 57, 0
2, 41648, Note_on_c, 0, 62, 96
2, 41649, Note_on_c, 0, 57, 96
2, 41651, Note_on_c, 0, 59, 105
2, 41652, Note_on_c, 0, 66, 85
2, 41948, Note_on_c, 0, 62, 0
2, 41949, Note_on_c, 0, 57, 0
2, 41950, Note_on_c, 0, 59, 0
2, 41951, Note_on_c, 0, 66, 0
2, 42002, Note_on_c, 0, 67, 85
2, 42004, Note_on_c, 0, 64, 93
2, 42005, Note_on_c, 0, 62, 88
2, 42007, Note_on_c, 0, 59, 90
2, 42327, Note_on_c, 0, 62, 0
2, 42330, Note_on_c, 0, 64, 0
2, 42332, Note_on_c, 0, 67, 0
2, 42333, Note_on_c, 0, 59, 0
2, 42367, Note_on_c, 0, 59, 85
2, 42369, Note_on_c, 0, 57, 85
2, 42370, Note_on_c, 0, 62, 88
2, 42372, Note_on_c, 0, 66, 78
2, 42614, Note_on_c, 0, 57, 0
2, 42622, Note_on_c, 0, 66, 0
2, 42624, Note_on_c, 0, 59, 0
2, 42627, Note_on_c, 0, 62, 0
2, 42724, Note_on_c, 0, 60, 96
2, 42728, Note_on_c, 0, 59, 90
2, 42729, Note_on_c, 0, 64, 90
2, 42729, Note_on_c, 0, 67, 88
2, 43184, Note_on_c, 0, 67, 0
2, 43192, Note_on_c, 0, 59, 0
2, 43193, Note_on_c, 0, 64, 0
2, 43194, Note_on_c, 0, 60, 0
2, 43203, Note_on_c, 0, 69, 85
2, 43204, Note_on_c, 0, 66, 72
2, 43204, Note_on_c, 0, 62, 87
2, 43205, Note_on_c, 0, 59, 76
2, 43205, Note_on_c, 0, 31, 67
2, 43205, Note_on_c, 0, 43, 74
2, 44012, Note_on_c, 0, 66, 0
2, 44029, Note_on_c, 0, 62, 0
2, 44034, Note_on_c, 0, 31, 0
2, 44040, Note_on_c, 0, 59, 0
2, 44054, Note_on_c, 0, 43, 0
2, 44080, Note_on_c, 0, 69, 0
2, 44107, Note_on_c, 0, 64, 27
2, 44137, Note_on_c, 0, 64, 0
2, 44142, Note_on_c, 0, 61, 40
2, 44163, Note_on_c, 0, 61, 0
2, 44171, Note_on_c, 0, 30, 78
2, 44179, Note_on_c, 0, 61, 72
2, 44180, Note_on_c, 0, 42, 76
2, 44183, Note_on_c, 0, 58, 78
2, 44184, Note_on_c, 0, 69, 83
2, 44186, Note_on_c, 0, 64, 85
2, 44993, Note_on_c, 0, 64, 0
2, 44994, Note_on_c, 0, 69, 0
2, 45002, Note_on_c, 0, 61, 0
2, 45005, Note_on_c, 0, 58, 0
2, 45026, Note_on_c, 0, 30, 0
2, 45048, Note_on_c, 0, 42, 0
2, 45117, Note_on_c, 0, 60, 78
2, 45120, Note_on_c, 0, 64, 74
2, 45122, Note_on_c, 0, 57, 78
2, 45123, Note_on_c, 0, 29, 78
2, 45124, Note_on_c, 0, 41, 59
2, 45125, Note_on_c, 0, 67, 85
2, 45863, Note_on_c, 0, 60, 0
2, 45865, Note_on_c, 0, 64, 0
2, 45912, Note_on_c, 0, 41, 0
2, 45915, Note_on_c, 0, 67, 0
2, 45922, Note_on_c, 0, 57, 0
2, 45932, Note_on_c, 0, 29, 0
2, 46084, Note_on_c, 0, 67, 85
2, 46087, Note_on_c, 0, 56, 78
2, 46088, Note_on_c, 0, 59, 85
2, 46090, Note_on_c, 0, 40, 80
2, 46092, Note_on_c, 0, 62, 85
2, 46867, Note_on_c, 0, 59, 0
2, 46874, Note_on_c, 0, 67, 0
2, 46879, Note_on_c, 0, 62, 0
2, 46907, Note_on_c, 0, 56, 0
2, 46973, Note_on_c, 0, 40, 0
2, 47023, Note_on_c, 0, 65, 72
2, 47026, Note_on_c, 0, 55, 87
2, 47026, Note_on_c, 0, 58, 83
2, 47028, Note_on_c, 0, 62, 85
2, 47030, Note_on_c, 0, 39, 85
2, 47042, Note_on_c, 0, 67, 85
2, 47727, Note_on_c, 0, 58, 0
2, 47848, Note_on_c, 0, 62, 0
2, 47853, Note_on_c, 0, 55, 0
2, 47870, Note_on_c, 0, 65, 0
2, 47881, Note_on_c, 0, 67, 0
2, 47919, Note_on_c, 0, 39, 0
2, 47982, Note_on_c, 0, 57, 90
2, 47986, Note_on_c, 0, 38, 92
2, 47987, Note_on_c, 0, 65, 85
2, 47988, Note_on_c, 0, 62, 87
2, 47990, Note_on_c, 0, 54, 95
2, 48000, Note_on_c, 0, 60, 49
2, 48845, Note_on_c, 0, 65, 0
2, 48858, Note_on_c, 0, 62, 0
2, 48858, Note_on_c, 0, 60, 0
2, 48862, Note_on_c, 0, 57, 0
2, 48867, Note_on_c, 0, 54, 0
2, 48881, Note_on_c, 0, 38, 0
2, 48956, Note_on_c, 0, 64, 72
2, 48958, Note_on_c, 0, 60, 80
2, 48963, Note_on_c, 0, 67, 68
2, 48965, Note_on_c, 0, 59, 68
2, 49000, Note_on_c, 0, 60, 0
2, 49001, Note_on_c, 0, 67, 0
2, 49002, Note_on_c, 0, 59, 0
2, 49010, Note_on_c, 0, 64, 0
2, 49140, Note_on_c, 0, 60, 85
2, 49142, Note_on_c, 0, 64, 85
2, 49143, Note_on_c, 0, 59, 85
2, 49145, Note_on_c, 0, 67, 88
2, 49201, Note_on_c, 0, 64, 0
2, 49202, Note_on_c, 0, 59, 0
2, 49204, Note_on_c, 0, 60, 0
2, 49223, Note_on_c, 0, 67, 0
2, 49317, Note_on_c, 0, 67, 78
2, 49322, Note_on_c, 0, 62, 88
2, 49322, Note_on_c, 0, 59, 88
2, 49324, Note_on_c, 0, 57, 85
2, 49826, Note_on_c, 0, 59, 0
2, 49827, Note_on_c, 0, 57, 0
2, 49828, Note_on_c, 0, 62, 0
2, 49829, Note_on_c, 0, 67, 0
2, 49922, Note_on_c, 0, 60, 83
2, 49923, Note_on_c, 0, 67, 72
2, 49924, Note_on_c, 0, 59, 72
2, 49927, Note_on_c, 0, 64, 76
2, 49980, Note_on_c, 0, 59, 0
2, 49987, Note_on_c, 0, 60, 0
2, 49992, Note_on_c, 0, 64, 0
2, 50002, Note_on_c, 0, 67, 0
2, 50103, Note_on_c, 0, 67, 76
2, 50106, Note_on_c, 0, 60, 88
2, 50108, Note_on_c, 0, 59, 72
2, 50109, Note_on_c, 0, 64, 83
2, 50157, Note_on_c, 0, 59, 0
2, 50162, Note_on_c, 0, 64, 0
2, 50165, Note_on_c, 0, 60, 0
2, 50175, Note_on_c, 0, 67, 0
2, 50277, Note_on_c, 0, 67, 74
2, 50282, Note_on_c, 0, 57, 85
2, 50282, Note_on_c, 0, 59, 85
2, 50282, Note_on_c, 0, 62, 85
2, 50799, Note_on_c, 0, 57, 0
2, 50800, Note_on_c, 0, 62, 0
2, 50804, Note_on_c, 0, 59, 0
2, 50807, Note_on_c, 0, 67, 0
2, 50886, Note_on_c, 0, 60, 85
2, 50887, Note_on_c, 0, 67, 76
2, 50889, Note_on_c, 0, 64, 83
2, 50891, Note_on_c, 0, 59, 83
2, 50949, Note_on_c, 0, 64, 0
2, 50954, Note_on_c, 0, 60, 0
2, 50955, Note_on_c, 0, 59, 0
2, 50962, Note_on_c, 0, 67, 0
2, 51070, Note_on_c, 0, 59, 78
2, 51070, Note_on_c, 0, 60, 83
2, 51072, Note_on_c, 0, 67, 74
2, 51075, Note_on_c, 0, 64, 83
2, 51127, Note_on_c, 0, 59, 0
2, 51132, Note_on_c, 0, 64, 0
2, 51135, Note_on_c, 0, 60, 0
2, 51147, Note_on_c, 0, 67, 0
2, 51244, Note_on_c, 0, 67, 76
2, 51247, Note_on_c, 0, 62, 85
2, 51248, Note_on_c, 0, 59, 85
2, 51249, Note_on_c, 0, 57, 83
2, 51756, Note_on_c, 0, 59, 0
2, 51757, Note_on_c, 0, 57, 0
2, 51758, Note_on_c, 0, 67, 0
2, 51759, Note_on_c, 0, 62, 0
2, 51845, Note_on_c, 0, 60, 78
2, 51847, Note_on_c, 0, 59, 74
2, 51848, Note_on_c, 0, 64, 81
2, 51850, Note_on_c, 0, 67, 74
2, 51897, Note_on_c, 0, 60, 0
2, 51901, Note_on_c, 0, 64, 0
2, 51902, Note_on_c, 0, 59, 0
2, 51914, Note_on_c, 0, 67, 0
2, 52034, Note_on_c, 0, 67, 81
2, 52035, Note_on_c, 0, 60, 83
2, 52036, Note_on_c, 0, 59, 74
2, 52038, Note_on_c, 0, 64, 81
2, 52084, Note_on_c, 0, 60, 0
2, 52085, Note_on_c, 0, 64, 0
2, 52087, Note_on_c, 0, 59, 0
2, 52100, Note_on_c, 0, 67, 0
2, 52210, Note_on_c, 0, 59, 88
2, 52212, Note_on_c, 0, 57, 78
2, 52215, Note_on_c, 0, 62, 85
2, 52216, Note_on_c, 0, 67, 68
2, 52707, Note_on_c, 0, 59, 0
2, 52712, Note_on_c, 0, 57, 0
2, 52717, Note_on_c, 0, 62, 0
2, 52724, Note_on_c, 0, 67, 0
2, 52805, Note_on_c, 0, 60, 78
2, 52808, Note_on_c, 0, 59, 74
2, 52809, Note_on_c, 0, 64, 81
2, 52810, Note_on_c, 0, 67, 74
2, 52858, Note_on_c, 0, 60, 0
2, 52862, Note_on_c, 0, 64, 0
2, 52864, Note_on_c, 0, 59, 0
2, 52876, Note_on_c, 0, 67, 0
2, 52993, Note_on_c, 0, 67, 81
2, 52994, Note_on_c, 0, 60, 83
2, 52996, Note_on_c, 0, 59, 74
2, 52998, Note_on_c, 0, 64, 81
2, 53044, Note_on_c, 0, 60, 0
2, 53046, Note_on_c, 0, 64, 0
2, 53047, Note_on_c, 0, 59, 0
2, 53060, Note_on_c, 0, 67, 0
2, 53171, Note_on_c, 0, 59, 88
2, 53173, Note_on_c, 0, 57, 78
2, 53176, Note_on_c, 0, 62, 85
2, 53177, Note_on_c, 0, 67, 68
2, 53667, Note_on_c, 0, 59, 0
2, 53672, Note_on_c, 0, 57, 0
2, 53677, Note_on_c, 0, 62, 0
2, 53686, Note_on_c, 0, 67, 0
2, 53762, Note_on_c, 0, 64, 70
2, 53763, Note_on_c, 0, 67, 72
2, 53763, Note_on_c, 0, 60, 81
2, 53763, Note_on_c, 0, 59, 72
2, 53812, Note_on_c, 0, 60, 0
2, 53817, Note_on_c, 0, 64, 0
2, 53818, Note_on_c, 0, 59, 0
2, 53834, Note_on_c, 0, 67, 0
2, 53956, Note_on_c, 0, 64, 83
2, 53956, Note_on_c, 0, 60, 85
2, 53958, Note_on_c, 0, 67, 83
2, 53958, Note_on_c, 0, 59, 78
2, 54005, Note_on_c, 0, 59, 0
2, 54008, Note_on_c, 0, 60, 0
2, 54011, Note_on_c, 0, 64, 0
2, 54035, Note_on_c, 0, 67, 0
2, 54127, Note_on_c, 0, 67, 65
2, 54130, Note_on_c, 0, 59, 83
2, 54132, Note_on_c, 0, 57, 70
2, 54135, Note_on_c, 0, 62, 74
2, 54635, Note_on_c, 0, 57, 0
2, 54638, Note_on_c, 0, 59, 0
2, 54640, Note_on_c, 0, 67, 0
2, 54641, Note_on_c, 0, 62, 0
2, 54722, Note_on_c, 0, 69, 83
2, 54724, Note_on_c, 0, 65, 83
2, 54727, Note_on_c, 0, 72, 78
2, 54728, Note_on_c, 0, 64, 81
2, 54793, Note_on_c, 0, 65, 0
2, 54801, Note_on_c, 0, 69, 0
2, 54804, Note_on_c, 0, 64, 0
2, 54808, Note_on_c, 0, 72, 0
2, 54907, Note_on_c, 0, 65, 85
2, 54909, Note_on_c, 0, 69, 83
2, 54910, Note_on_c, 0, 72, 81
2, 54912, Note_on_c, 0, 64, 78
2, 54962, Note_on_c, 0, 65, 0
2, 54964, Note_on_c, 0, 64, 0
2, 54969, Note_on_c, 0, 69, 0
2, 54993, Note_on_c, 0, 72, 0
2, 55086, Note_on_c, 0, 62, 76
2, 55087, Note_on_c, 0, 72, 74
2, 55088, Note_on_c, 0, 67, 88
2, 55089, Note_on_c, 0, 64, 83
2, 55600, Note_on_c, 0, 67, 0
2, 55602, Note_on_c, 0, 64, 0
2, 55611, Note_on_c, 0, 62, 0
2, 55628, Note_on_c, 0, 72, 0
2, 55684, Note_on_c, 0, 69, 83
2, 55685, Note_on_c, 0, 72, 72
2, 55687, Note_on_c, 0, 65, 72
2, 55689, Note_on_c, 0, 64, 70
2, 55742, Note_on_c, 0, 69, 0
2, 55744, Note_on_c, 0, 65, 0
2, 55749, Note_on_c, 0, 64, 0
2, 55767, Note_on_c, 0, 72, 0
2, 55866, Note_on_c, 0, 72, 70
2, 55866, Note_on_c, 0, 65, 70
2, 55867, Note_on_c, 0, 69, 70
2, 55869, Note_on_c, 0, 64, 63
2, 55926, Note_on_c, 0, 65, 0
2, 55930, Note_on_c, 0, 69, 0
2, 55931, Note_on_c, 0, 64, 0
2, 55938, Note_on_c, 0, 72, 0
2, 56040, Note_on_c, 0, 72, 65
2, 56044, Note_on_c, 0, 62, 65
2, 56045, Note_on_c, 0, 64, 81
2, 56047, Note_on_c, 0, 67, 70
2, 56565, Note_on_c, 0, 67, 0
2, 56570, Note_on_c, 0, 72, 0
2, 56572, Note_on_c, 0, 64, 0
2, 56572, Note_on_c, 0, 62, 0
2, 56649, Note_on_c, 0, 59, 68
2, 56652, Note_on_c, 0, 64, 88
2, 56654, Note_on_c, 0, 67, 74
2, 56656, Note_on_c, 0, 60, 81
2, 56711, Note_on_c, 0, 60, 0
2, 56721, Note_on_c, 0, 59, 0
2, 56731, Note_on_c, 0, 64, 0
2, 56732, Note_on_c, 0, 67, 0
2, 56826, Note_on_c, 0, 60, 83
2, 56827, Note_on_c, 0, 67, 72
2, 56830, Note_on_c, 0, 59, 72
2, 56832, Note_on_c, 0, 64, 78
2, 56897, Note_on_c, 0, 64, 0
2, 56901, Note_on_c, 0, 60, 0
2, 56904, Note_on_c, 0, 59, 0
2, 56917, Note_on_c, 0, 67, 0
2, 57011, Note_on_c, 0, 57, 85
2, 57013, Note_on_c, 0, 67, 81
2, 57014, Note_on_c, 0, 62, 88
2, 57015, Note_on_c, 0, 59, 85
2, 57486, Note_on_c, 0, 57, 0
2, 57487, Note_on_c, 0, 59, 0
2, 57487, Note_on_c, 0, 62, 0
2, 57499, Note_on_c, 0, 67, 0
2, 57598, Note_on_c, 0, 60, 72
2, 57599, Note_on_c, 0, 67, 68
2, 57601, Note_on_c, 0, 59, 65
2, 57603, Note_on_c, 0, 64, 65
2, 57657, Note_on_c, 0, 60, 0
2, 57659, Note_on_c, 0, 64, 0
2, 57662, Note_on_c, 0, 59, 0
2, 57677, Note_on_c, 0, 67, 0
2, 57787, Note_on_c, 0, 60, 83
2, 57790, Note_on_c, 0, 64, 78
2, 57792, Note_on_c, 0, 59, 74
2, 57840, Note_on_c, 0, 64, 0
2, 57840, Note_on_c, 0, 60, 0
2, 57844, Note_on_c, 0, 59, 0
2, 57964, Note_on_c, 0, 67, 68
2, 57967, Note_on_c, 0, 59, 81
2, 57969, Note_on_c, 0, 62, 74
2, 57972, Note_on_c, 0, 57, 70
2, 58522, Note_on_c, 0, 57, 0
2, 58532, Note_on_c, 0, 59, 0
2, 58537, Note_on_c, 0, 62, 0
2, 58540, Note_on_c, 0, 67, 0
2, 58562, Note_on_c, 0, 74, 81
2, 58563, Note_on_c, 0, 66, 83
2, 58564, Note_on_c, 0, 67, 81
2, 58564, Note_on_c, 0, 71, 78
2, 58618, Note_on_c, 0, 66, 0
2, 58618, Note_on_c, 0, 74, 0
2, 58619, Note_on_c, 0, 71, 0
2, 58620, Note_on_c, 0, 67, 0
2, 58737, Note_on_c, 0, 74, 81
2, 58741, Note_on_c, 0, 67, 85
2, 58743, Note_on_c, 0, 71, 74
2, 58745, Note_on_c, 0, 66, 85
2, 58785, Note_on_c, 0, 67, 0
2, 58787, Note_on_c, 0, 71, 0
2, 58795, Note_on_c, 0, 74, 0
2, 58797, Note_on_c, 0, 66, 0
2, 58924, Note_on_c, 0, 66, 85
2, 58928, Note_on_c, 0, 69, 88
2, 58928, Note_on_c, 0, 74, 83
2, 58929, Note_on_c, 0, 64, 85
2, 59462, Note_on_c, 0, 74, 0
2, 59465, Note_on_c, 0, 64, 0
2, 59473, Note_on_c, 0, 66, 0
2, 59474, Note_on_c, 0, 69, 0
2, 59526, Note_on_c, 0, 69, 88
2, 59527, Note_on_c, 0, 65, 85
2, 59529, Note_on_c, 0, 72, 74
2, 59530, Note_on_c, 0, 64, 78
2, 59572, Note_on_c, 0, 65, 0
2, 59577, Note_on_c, 0, 64, 0
2, 59581, Note_on_c, 0, 69, 0
2, 59589, Note_on_c, 0, 72, 0
2, 59707, Note_on_c, 0, 65, 85
2, 59710, Note_on_c, 0, 72, 81
2, 59712, Note_on_c, 0, 69, 88
2, 59714, Note_on_c, 0, 64, 85
2, 59766, Note_on_c, 0, 69, 0
2, 59766, Note_on_c, 0, 65, 0
2, 59767, Note_on_c, 0, 64, 0
2, 59791, Note_on_c, 0, 72, 0
2, 59885, Note_on_c, 0, 72, 83
2, 59887, Note_on_c, 0, 62, 85
2, 59889, Note_on_c, 0, 67, 88
2, 59890, Note_on_c, 0, 64, 90
2, 60447, Note_on_c, 0, 67, 0
2, 60448, Note_on_c, 0, 64, 0
2, 60449, Note_on_c, 0, 72, 0
2, 60451, Note_on_c, 0, 62, 0
2, 60482, Note_on_c, 0, 59, 74
2, 60483, Note_on_c, 0, 60, 78
2, 60484, Note_on_c, 0, 64, 76
2, 60484, Note_on_c, 0, 67, 74
2, 60542, Note_on_c, 0, 60, 0
2, 60544, Note_on_c, 0, 64, 0
2, 60545, Note_on_c, 0, 67, 0
2, 60552, Note_on_c, 0, 59, 0
2, 60663, Note_on_c, 0, 60, 81
2, 60666, Note_on_c, 0, 67, 72
2, 60667, Note_on_c, 0, 64, 70
2, 60669, Note_on_c, 0, 59, 76
2, 60732, Note_on_c, 0, 64, 0
2, 60737, Note_on_c, 0, 60, 0
2, 60738, Note_on_c, 0, 59, 0
2, 60744, Note_on_c, 0, 67, 0
2, 60845, Note_on_c, 0, 67, 83
2, 60847, Note_on_c, 0, 59, 85
2, 60850, Note_on_c, 0, 62, 81
2, 60851, Note_on_c, 0, 57, 78
2, 61357, Note_on_c, 0, 59, 0
2, 61361, Note_on_c, 0, 57, 0
2, 61363, Note_on_c, 0, 67, 0
2, 61364, Note_on_c, 0, 62, 0
2, 61448, Note_on_c, 0, 59, 81
2, 61449, Note_on_c, 0, 67, 81
2, 61451, Note_on_c, 0, 60, 85
2, 61452, Note_on_c, 0, 64, 74
2, 61514, Note_on_c, 0, 59, 0
2, 61516, Note_on_c, 0, 64, 0
2, 61518, Note_on_c, 0, 60, 0
2, 61529, Note_on_c, 0, 67, 0
2, 61627, Note_on_c, 0, 60, 83
2, 61629, Note_on_c, 0, 67, 78
2, 61632, Note_on_c, 0, 59, 72
2, 61633, Note_on_c, 0, 64, 78
2, 61687, Note_on_c, 0, 59, 0
2, 61692, Note_on_c, 0, 64, 0
2, 61695, Note_on_c, 0, 60, 0
2, 61696, Note_on_c, 0, 67, 0
2, 61798, Note_on_c, 0, 59, 85
2, 61800, Note_on_c, 0, 67, 76
2, 61803, Note_on_c, 0, 57, 81
2, 61803, Note_on_c, 0, 62, 85
2, 62296, Note_on_c, 0, 59, 0
2, 62297, Note_on_c, 0, 67, 0
2, 62298, Note_on_c, 0, 57, 0
2, 62298, Note_on_c, 0, 62, 0
2, 62397, Note_on_c, 0, 59, 68
2, 62398, Note_on_c, 0, 60, 88
2, 62402, Note_on_c, 0, 67, 74
2, 62402, Note_on_c, 0, 64, 81
2, 62465, Note_on_c, 0, 64, 0
2, 62470, Note_on_c, 0, 59, 0
2, 62471, Note_on_c, 0, 60, 0
2, 62477, Note_on_c, 0, 67, 0
2, 62591, Note_on_c, 0, 60, 81
2, 62594, Note_on_c, 0, 59, 76
2, 62594, Note_on_c, 0, 67, 72
2, 62596, Note_on_c, 0, 64, 78
2, 62652, Note_on_c, 0, 60, 0
2, 62658, Note_on_c, 0, 59, 0
2, 62660, Note_on_c, 0, 64, 0
2, 62662, Note_on_c, 0, 67, 0
2, 62771, Note_on_c, 0, 67, 70
2, 62772, Note_on_c, 0, 57, 76
2, 62773, Note_on_c, 0, 59, 83
2, 62775, Note_on_c, 0, 62, 76
2, 63302, Note_on_c, 0, 57, 0
2, 63303, Note_on_c, 0, 59, 0
2, 63304, Note_on_c, 0, 62, 0
2, 63314, Note_on_c, 0, 67, 0
2, 63367, Note_on_c, 0, 67, 76
2, 63370, Note_on_c, 0, 59, 76
2, 63371, Note_on_c, 0, 60, 81
2, 63372, Note_on_c, 0, 64, 70
2, 63446, Note_on_c, 0, 59, 0
2, 63448, Note_on_c, 0, 64, 0
2, 63450, Note_on_c, 0, 60, 0
2, 63461, Note_on_c, 0, 67, 0
2, 63554, Note_on_c, 0, 67, 68
2, 63557, Note_on_c, 0, 60, 78
2, 63559, Note_on_c, 0, 64, 72
2, 63561, Note_on_c, 0, 59, 74
2, 63619, Note_on_c, 0, 59, 0
2, 63622, Note_on_c, 0, 64, 0
2, 63627, Note_on_c, 0, 60, 0
2, 63635, Note_on_c, 0, 67, 0
2, 63731, Note_on_c, 0, 67, 68
2, 63733, Note_on_c, 0, 57, 81
2, 63734, Note_on_c, 0, 59, 88
2, 63736, Note_on_c, 0, 62, 78
2, 64204, Note_on_c, 0, 57, 0
2, 64212, Note_on_c, 0, 59, 0
2, 64215, Note_on_c, 0, 62, 0
2, 64229, Note_on_c, 0, 67, 0
2, 64310, Note_on_c, 0, 67, 68
2, 64315, Note_on_c, 0, 64, 76
2, 64316, Note_on_c, 0, 60, 72
2, 64318, Note_on_c, 0, 59, 65
2, 64392, Note_on_c, 0, 60, 0
2, 64395, Note_on_c, 0, 64, 0
2, 64396, Note_on_c, 0, 59, 0
2, 64402, Note_on_c, 0, 67, 0
2, 64509, Note_on_c, 0, 60, 78
2, 64509, Note_on_c, 0, 67, 74
2, 64510, Note_on_c, 0, 64, 74
2, 64512, Note_on_c, 0, 59, 68
2, 64588, Note_on_c, 0, 64, 0
2, 64591, Note_on_c, 0, 59, 0
2, 64593, Note_on_c, 0, 60, 0
2, 64604, Note_on_c, 0, 67, 0
2, 64681, Note_on_c, 0, 67, 65
2, 64684, Note_on_c, 0, 59, 78
2, 64687, Note_on_c, 0, 62, 70
2, 64688, Note_on_c, 0, 57, 72
2, 65179, Note_on_c, 0, 57, 0
2, 65184, Note_on_c, 0, 59, 0
2, 65187, Note_on_c, 0, 67, 0
2, 65188, Note_on_c, 0, 62, 0
2, 65277, Note_on_c, 0, 67, 70
2, 65284, Note_on_c, 0, 64, 70
2, 65287, Note_on_c, 0, 60, 72
2, 65288, Note_on_c, 0, 59, 68
2, 65366, Note_on_c, 0, 64, 0
2, 65367, Note_on_c, 0, 59, 0
2, 65367, Note_on_c, 0, 60, 0
2, 65371, Note_on_c, 0, 67, 0
2, 65470, Note_on_c, 0, 67, 78
2, 65472, Note_on_c, 0, 59, 83
2, 65473, Note_on_c, 0, 60, 83
2, 65475, Note_on_c, 0, 64, 76
2, 65549, Note_on_c, 0, 64, 0
2, 65552, Note_on_c, 0, 59, 0
2, 65554, Note_on_c, 0, 67, 0
2, 65555, Note_on_c, 0, 60, 0
2, 65644, Note_on_c, 0, 67, 72
2, 65648, Note_on_c, 0, 59, 85
2, 65651, Note_on_c, 0, 57, 83
2, 65651, Note_on_c, 0, 62, 83
2, 66172, Note_on_c, 0, 67, 0
2, 66175, Note_on_c, 0, 62, 0
2, 66181, Note_on_c, 0, 57, 0
2, 66182, Note_on_c, 0, 59, 0
2, 66241, Note_on_c, 0, 69, 90
2, 66243, Note_on_c, 0, 65, 88
2, 66244, Note_on_c, 0, 72, 83
2, 66245, Note_on_c, 0, 64, 83
2, 66292, Note_on_c, 0, 65, 0
2, 66302, Note_on_c, 0, 64, 0
2, 66307, Note_on_c, 0, 69, 0
2, 66314, Note_on_c, 0, 72, 0
2, 66430, Note_on_c, 0, 72, 81
2, 66435, Note_on_c, 0, 65, 88
2, 66436, Note_on_c, 0, 64, 88
2, 66437, Note_on_c, 0, 69, 83
2, 66486, Note_on_c, 0, 65, 0
2, 66487, Note_on_c, 0, 64, 0
2, 66488, Note_on_c, 0, 69, 0
2, 66506, Note_on_c, 0, 72, 0
2, 66607, Note_on_c, 0, 72, 83
2, 66609, Note_on_c, 0, 62, 81
2, 66612, Note_on_c, 0, 67, 83
2, 66614, Note_on_c, 0, 64, 85
2, 67123, Note_on_c, 0, 62, 0
2, 67124, Note_on_c, 0, 64, 0
2, 67128, Note_on_c, 0, 67, 0
2, 67130, Note_on_c, 0, 72, 0
2, 67207, Note_on_c, 0, 65, 83
2, 67208, Note_on_c, 0, 72, 70
2, 67209, Note_on_c, 0, 69, 74
2, 67210, Note_on_c, 0, 64, 68
2, 67269, Note_on_c, 0, 65, 0
2, 67274, Note_on_c, 0, 64, 0
2, 67277, Note_on_c, 0, 69, 0
2, 67287, Note_on_c, 0, 72, 0
2, 67386, Note_on_c, 0, 72, 72
2, 67388, Note_on_c, 0, 64, 78
2, 67389, Note_on_c, 0, 65, 85
2, 67391, Note_on_c, 0, 69, 78
2, 67434, Note_on_c, 0, 65, 0
2, 67435, Note_on_c, 0, 69, 0
2, 67437, Note_on_c, 0, 64, 0
2, 67450, Note_on_c, 0, 72, 0
2, 67562, Note_on_c, 0, 72, 72
2, 67564, Note_on_c, 0, 64, 85
2, 67567, Note_on_c, 0, 62, 78
2, 67568, Note_on_c, 0, 67, 83
2, 68067, Note_on_c, 0, 62, 0
2, 68069, Note_on_c, 0, 64, 0
2, 68070, Note_on_c, 0, 67, 0
2, 68073, Note_on_c, 0, 72, 0
2, 68162, Note_on_c, 0, 59, 68
2, 68164, Note_on_c, 0, 60, 76
2, 68165, Note_on_c, 0, 67, 68
2, 68166, Note_on_c, 0, 64, 76
2, 68208, Note_on_c, 0, 59, 0
2, 68213, Note_on_c, 0, 60, 0
2, 68221, Note_on_c, 0, 64, 0
2, 68223, Note_on_c, 0, 67, 0
2, 68344, Note_on_c, 0, 67, 63
2, 68347, Note_on_c, 0, 60, 76
2, 68351, Note_on_c, 0, 64, 70
2, 68352, Note_on_c, 0, 59, 65
2, 68402, Note_on_c, 0, 59, 0
2, 68405, Note_on_c, 0, 64, 0
2, 68410, Note_on_c, 0, 60, 0
2, 68421, Note_on_c, 0, 67, 0
2, 68528, Note_on_c, 0, 67, 72
2, 68529, Note_on_c, 0, 59, 74
2, 68530, Note_on_c, 0, 57, 72
2, 68532, Note_on_c, 0, 62, 70
2, 69024, Note_on_c, 0, 57, 0
2, 69026, Note_on_c, 0, 59, 0
2, 69028, Note_on_c, 0, 62, 0
2, 69029, Note_on_c, 0, 67, 0
2, 69107, Note_on_c, 0, 60, 83
2, 69110, Note_on_c, 0, 64, 85
2, 69112, Note_on_c, 0, 59, 72
2, 69113, Note_on_c, 0, 67, 83
2, 69204, Note_on_c, 0, 59, 0
2, 69206, Note_on_c, 0, 60, 0
2, 69207, Note_on_c, 0, 64, 0
2, 69207, Note_on_c, 0, 67, 0
2, 69303, Note_on_c, 0, 67, 68
2, 69306, Note_on_c, 0, 60, 68
2, 69308, Note_on_c, 0, 64, 68
2, 69309, Note_on_c, 0, 59, 61
2, 69370, Note_on_c, 0, 64, 0
2, 69372, Note_on_c, 0, 59, 0
2, 69375, Note_on_c, 0, 60, 0
2, 69377, Note_on_c, 0, 67, 0
2, 69484, Note_on_c, 0, 59, 78
2, 69487, Note_on_c, 0, 57, 74
2, 69489, Note_on_c, 0, 67, 70
2, 69490, Note_on_c, 0, 62, 65
2, 70078, Note_on_c, 0, 62, 0
2, 70082, Note_on_c, 0, 59, 0
2, 70083, Note_on_c, 0, 67, 0
2, 70083, Note_on_c, 0, 57, 0
2, 70084, Note_on_c, 0, 74, 83
2, 70085, Note_on_c, 0, 66, 81
2, 70087, Note_on_c, 0, 67, 74
2, 70089, Note_on_c, 0, 71, 74
2, 70144, Note_on_c, 0, 67, 0
2, 70151, Note_on_c, 0, 66, 0
2, 70152, Note_on_c, 0, 71, 0
2, 70156, Note_on_c, 0, 74, 0
2, 70262, Note_on_c, 0, 67, 83
2, 70263, Note_on_c, 0, 74, 83
2, 70264, Note_on_c, 0, 66, 83
2, 70267, Note_on_c, 0, 71, 74
2, 70324, Note_on_c, 0, 67, 0
2, 70325, Note_on_c, 0, 71, 0
2, 70327, Note_on_c, 0, 74, 0
2, 70330, Note_on_c, 0, 66, 0
2, 70449, Note_on_c, 0, 66, 85
2, 70451, Note_on_c, 0, 64, 85
2, 70452, Note_on_c, 0, 74, 85
2, 70453, Note_on_c, 0, 69, 90
2, 70940, Note_on_c, 0, 74, 0
2, 70942, Note_on_c, 0, 66, 0
2, 70945, Note_on_c, 0, 69, 0
2, 70946, Note_on_c, 0, 64, 0
2, 71042, Note_on_c, 0, 65, 85
2, 71044, Note_on_c, 0, 69, 83
2, 71044, Note_on_c, 0, 64, 74
2, 71045, Note_on_c, 0, 72, 74
2, 71102, Note_on_c, 0, 65, 0
2, 71105, Note_on_c, 0, 64, 0
2, 71110, Note_on_c, 0, 69, 0
2, 71111, Note_on_c, 0, 72, 0
2, 71222, Note_on_c, 0, 65, 85
2, 71223, Note_on_c, 0, 72, 76
2, 71224, Note_on_c, 0, 69, 85
2, 71227, Note_on_c, 0, 64, 78
2, 71275, Note_on_c, 0, 65, 0
2, 71278, Note_on_c, 0, 69, 0
2, 71282, Note_on_c, 0, 64, 0
2, 71298, Note_on_c, 0, 72, 0
2, 71401, Note_on_c, 0, 72, 74
2, 71402, Note_on_c, 0, 64, 88
2, 71405, Note_on_c, 0, 67, 88
2, 71406, Note_on_c, 0, 62, 83
2, 71941, Note_on_c, 0, 64, 0
2, 71944, Note_on_c, 0, 67, 0
2, 71947, Note_on_c, 0, 72, 0
2, 71948, Note_on_c, 0, 62, 0
2, 72002, Note_on_c, 0, 59, 65
2, 72002, Note_on_c, 0, 60, 78
2, 72003, Note_on_c, 0, 64, 72
2, 72007, Note_on_c, 0, 67, 70
2, 72053, Note_on_c, 0, 59, 0
2, 72054, Note_on_c, 0, 60, 0
2, 72054, Note_on_c, 0, 67, 0
2, 72061, Note_on_c, 0, 64, 0
2, 72182, Note_on_c, 0, 67, 70
2, 72185, Note_on_c, 0, 60, 81
2, 72187, Note_on_c, 0, 59, 70
2, 72188, Note_on_c, 0, 64, 78
2, 72235, Note_on_c, 0, 59, 0
2, 72242, Note_on_c, 0, 64, 0
2, 72242, Note_on_c, 0, 60, 0
2, 72254, Note_on_c, 0, 67, 0
2, 72361, Note_on_c, 0, 59, 85
2, 72362, Note_on_c, 0, 67, 74
2, 72362, Note_on_c, 0, 62, 72
2, 72366, Note_on_c, 0, 57, 76
2, 72875, Note_on_c, 0, 59, 0
2, 72877, Note_on_c, 0, 57, 0
2, 72880, Note_on_c, 0, 67, 0
2, 72885, Note_on_c, 0, 62, 0
2, 72962, Note_on_c, 0, 59, 65
2, 72963, Note_on_c, 0, 60, 78
2, 72964, Note_on_c, 0, 64, 72
2, 72968, Note_on_c, 0, 67, 70
2, 73012, Note_on_c, 0, 59, 0
2, 73013, Note_on_c, 0, 60, 0
2, 73014, Note_on_c, 0, 67, 0
2, 73020, Note_on_c, 0, 64, 0
2, 73142, Note_on_c, 0, 67, 70
2, 73144, Note_on_c, 0, 60, 81
2, 73148, Note_on_c, 0, 59, 70
2, 73148, Note_on_c, 0, 64, 78
2, 73195, Note_on_c, 0, 59, 0
2, 73202, Note_on_c, 0, 60, 0
2, 73203, Note_on_c, 0, 64, 0
2, 73215, Note_on_c, 0, 67, 0
2, 73319, Note_on_c, 0, 59, 85
2, 73321, Note_on_c, 0, 67, 74
2, 73321, Note_on_c, 0, 62, 72
2, 73324, Note_on_c, 0, 57, 76
2, 73836, Note_on_c, 0, 59, 0
2, 73838, Note_on_c, 0, 57, 0
2, 73841, Note_on_c, 0, 67, 0
2, 73846, Note_on_c, 0, 62, 0
2, 73921, Note_on_c, 0, 64, 85
2, 73922, Note_on_c, 0, 67, 83
2, 73923, Note_on_c, 0, 60, 88
2, 73924, Note_on_c, 0, 59, 85
2, 73981, Note_on_c, 0, 64, 0
2, 73983, Note_on_c, 0, 59, 0
2, 73983, Note_on_c, 0, 60, 0
2, 73985, Note_on_c, 0, 67, 0
2, 74106, Note_on_c, 0, 67, 83
2, 74109, Note_on_c, 0, 64, 88
2, 74110, Note_on_c, 0, 60, 85
2, 74111, Note_on_c, 0, 59, 85
2, 74155, Note_on_c, 0, 64, 0
2, 74162, Note_on_c, 0, 59, 0
2, 74165, Note_on_c, 0, 60, 0
2, 74175, Note_on_c, 0, 67, 0
2, 74272, Note_on_c, 0, 67, 83
2, 74275, Note_on_c, 0, 59, 85
2, 74276, Note_on_c, 0, 57, 85
2, 74277, Note_on_c, 0, 62, 85
2, 74742, Note_on_c, 0, 59, 0
2, 74743, Note_on_c, 0, 57, 0
2, 74745, Note_on_c, 0, 67, 0
2, 74747, Note_on_c, 0, 62, 0
2, 74881, Note_on_c, 0, 62, 74
2, 74884, Note_on_c, 0, 60, 85
2, 74885, Note_on_c, 0, 67, 88
2, 74949, Note_on_c, 0, 60, 0
2, 74951, Note_on_c, 0, 67, 0
2, 74956, Note_on_c, 0, 62, 0
2, 75061, Note_on_c, 0, 62, 76
2, 75063, Note_on_c, 0, 60, 85
2, 75064, Note_on_c, 0, 67, 83
2, 75115, Note_on_c, 0, 67, 0
2, 75125, Note_on_c, 0, 62, 0
2, 75126, Note_on_c, 0, 60, 0
2, 75234, Note_on_c, 0, 62, 88
2, 75236, Note_on_c, 0, 69, 83
2, 75239, Note_on_c, 0, 64, 90
2, 75785, Note_on_c, 0, 69, 0
2, 75788, Note_on_c, 0, 62, 0
2, 75790, Note_on_c, 0, 64, 0
2, 75842, Note_on_c, 0, 59, 68
2, 75844, Note_on_c, 0, 67, 78
2, 75845, Note_on_c, 0, 60, 65
2, 75845, Note_on_c, 0, 64, 70
2, 75905, Note_on_c, 0, 67, 0
2, 75909, Note_on_c, 0, 59, 0
2, 75910, Note_on_c, 0, 64, 0
2, 75913, Note_on_c, 0, 60, 0
2, 76023, Note_on_c, 0, 67, 76
2, 76025, Note_on_c, 0, 64, 83
2, 76026, Note_on_c, 0, 60, 83
2, 76028, Note_on_c, 0, 59, 70
2, 76066, Note_on_c, 0, 64, 0
2, 76069, Note_on_c, 0, 59, 0
2, 76074, Note_on_c, 0, 60, 0
2, 76086, Note_on_c, 0, 67, 0
2, 76192, Note_on_c, 0, 67, 78
2, 76195, Note_on_c, 0, 57, 81
2, 76196, Note_on_c, 0, 59, 78
2, 76197, Note_on_c, 0, 62, 72
2, 76669, Note_on_c, 0, 57, 0
2, 76670, Note_on_c, 0, 59, 0
2, 76674, Note_on_c, 0, 67, 0
2, 76677, Note_on_c, 0, 62, 0
2, 76801, Note_on_c, 0, 62, 74
2, 76802, Note_on_c, 0, 60, 85
2, 76804, Note_on_c, 0, 67, 88
2, 76869, Note_on_c, 0, 60, 0
2, 76871, Note_on_c, 0, 67, 0
2, 76876, Note_on_c, 0, 62, 0
2, 76981, Note_on_c, 0, 62, 76
2, 76982, Note_on_c, 0, 60, 85
2, 76984, Note_on_c, 0, 67, 83
2, 77035, Note_on_c, 0, 67, 0
2, 77045, Note_on_c, 0, 62, 0
2, 77046, Note_on_c, 0, 60, 0
2, 77154, Note_on_c, 0, 62, 88
2, 77156, Note_on_c, 0, 69, 83
2, 77159, Note_on_c, 0, 64, 90
2, 77706, Note_on_c, 0, 69, 0
2, 77709, Note_on_c, 0, 62, 0
2, 77711, Note_on_c, 0, 64, 0
2, 77766, Note_on_c, 0, 64, 96
2, 77767, Note_on_c, 0, 69, 90
2, 77769, Note_on_c, 0, 59, 93
2, 78057, Note_on_c, 0, 69, 0
2, 78065, Note_on_c, 0, 64, 0
2, 78070, Note_on_c, 0, 59, 0
2, 78125, Note_on_c, 0, 57, 90
2, 78126, Note_on_c, 0, 67, 90
2, 78127, Note_on_c, 0, 64, 99
2, 78610, Note_on_c, 0, 57, 0
2, 78612, Note_on_c, 0, 67, 0
2, 78613, Note_on_c, 0, 64, 0
2, 78722, Note_on_c, 0, 67, 85
2, 78723, Note_on_c, 0, 59, 81
2, 78724, Note_on_c, 0, 64, 85
2, 78921, Note_on_c, 0, 59, 0
2, 78922, Note_on_c, 0, 64, 0
2, 78924, Note_on_c, 0, 67, 0
2, 78950, Note_on_c, 0, 67, 63
2, 78952, Note_on_c, 0, 59, 63
2, 78955, Note_on_c, 0, 64, 70
2, 78982, Note_on_c, 0, 59, 0
2, 78996, Note_on_c, 0, 64, 0
2, 78997, Note_on_c, 0, 67, 0
2, 79072, Note_on_c, 0, 66, 70
2, 79076, Note_on_c, 0, 64, 85
2, 79077, Note_on_c, 0, 58, 78
2, 79654, Note_on_c, 0, 66, 0
2, 79656, Note_on_c, 0, 58, 0
2, 79656, Note_on_c, 0, 64, 0
2, 79688, Note_on_c, 0, 69, 95
2, 79689, Note_on_c, 0, 66, 83
2, 79690, Note_on_c, 0, 62, 88
2, 79693, Note_on_c, 0, 71, 83
2, 80012, Note_on_c, 0, 62, 0
2, 80015, Note_on_c, 0, 69, 0
2, 80017, Note_on_c, 0, 66, 0
2, 80022, Note_on_c, 0, 71, 0
2, 80040, Note_on_c, 0, 64, 85
2, 80052, Note_on_c, 0, 67, 88
2, 80054, Note_on_c, 0, 71, 81
2, 80599, Note_on_c, 0, 67, 0
2, 80608, Note_on_c, 0, 71, 0
2, 80642, Note_on_c, 0, 64, 0
2, 80645, Note_on_c, 0, 55, 86
2, 80645, Note_on_c, 0, 57, 85
2, 80647, Note_on_c, 0, 60, 88
2, 80650, Note_on_c, 0, 64, 90
2, 80910, Note_on_c, 0, 60, 0
2, 80911, Note_on_c, 0, 64, 0
2, 80922, Note_on_c, 0, 55, 0
2, 80940, Note_on_c, 0, 57, 0
2, 81002, Note_on_c, 0, 57, 85
2, 81003, Note_on_c, 0, 60, 83
2, 81007, Note_on_c, 0, 64, 85
2, 81010, Note_on_c, 0, 67, 88
2, 81541, Note_on_c, 0, 57, 0
2, 81543, Note_on_c, 0, 60, 0
2, 81555, Note_on_c, 0, 67, 0
2, 81560, Note_on_c, 0, 64, 0
2, 81605, Note_on_c, 0, 64, 85
2, 81606, Note_on_c, 0, 67, 83
2, 81607, Note_on_c, 0, 60, 88
2, 81608, Note_on_c, 0, 59, 85
2, 81662, Note_on_c, 0, 64, 0
2, 81664, Note_on_c, 0, 59, 0
2, 81664, Note_on_c, 0, 60, 0
2, 81666, Note_on_c, 0, 67, 0
2, 81785, Note_on_c, 0, 67, 83
2, 81787, Note_on_c, 0, 64, 88
2, 81788, Note_on_c, 0, 60, 85
2, 81790, Note_on_c, 0, 59, 85
2, 81835, Note_on_c, 0, 64, 0
2, 81842, Note_on_c, 0, 59, 0
2, 81845, Note_on_c, 0, 60, 0
2, 81855, Note_on_c, 0, 67, 0
2, 81954, Note_on_c, 0, 67, 83
2, 81956, Note_on_c, 0, 59, 85
2, 81957, Note_on_c, 0, 57, 85
2, 81958, Note_on_c, 0, 62, 85
2, 82422, Note_on_c, 0, 59, 0
2, 82424, Note_on_c, 0, 57, 0
2, 82426, Note_on_c, 0, 67, 0
2, 82429, Note_on_c, 0, 62, 0
2, 82560, Note_on_c, 0, 62, 74
2, 82562, Note_on_c, 0, 60, 85
2, 82564, Note_on_c, 0, 67, 88
2, 82627, Note_on_c, 0, 60, 0
2, 82630, Note_on_c, 0, 67, 0
2, 82635, Note_on_c, 0, 62, 0
2, 82741, Note_on_c, 0, 62, 76
2, 82745, Note_on_c, 0, 60, 85
2, 82745, Note_on_c, 0, 67, 83
2, 82796, Note_on_c, 0, 67, 0
2, 82805, Note_on_c, 0, 62, 0
2, 82806, Note_on_c, 0, 60, 0
2, 82912, Note_on_c, 0, 62, 88
2, 82914, Note_on_c, 0, 69, 83
2, 82919, Note_on_c, 0, 64, 90
2, 83465, Note_on_c, 0, 69, 0
2, 83467, Note_on_c, 0, 62, 0
2, 83470, Note_on_c, 0, 64, 0
2, 83522, Note_on_c, 0, 59, 68
2, 83523, Note_on_c, 0, 67, 78
2, 83525, Note_on_c, 0, 60, 65
2, 83526, Note_on_c, 0, 64, 70
2, 83586, Note_on_c, 0, 67, 0
2, 83591, Note_on_c, 0, 59, 0
2, 83592, Note_on_c, 0, 64, 0
2, 83594, Note_on_c, 0, 60, 0
2, 83702, Note_on_c, 0, 67, 76
2, 83705, Note_on_c, 0, 64, 83
2, 83706, Note_on_c, 0, 60, 83
2, 83707, Note_on_c, 0, 59, 70
2, 83745, Note_on_c, 0, 64, 0
2, 83747, Note_on_c, 0, 59, 0
2, 83752, Note_on_c, 0, 60, 0
2, 83765, Note_on_c, 0, 67, 0
2, 83874, Note_on_c, 0, 67, 78
2, 83876, Note_on_c, 0, 57, 81
2, 83877, Note_on_c, 0, 59, 78
2, 83878, Note_on_c, 0, 62, 72
2, 84350, Note_on_c, 0, 57, 0
2, 84351, Note_on_c, 0, 59, 0
2, 84356, Note_on_c, 0, 67, 0
2, 84357, Note_on_c, 0, 62, 0
2, 84481, Note_on_c, 0, 62, 74
2, 84482, Note_on_c, 0, 60, 85
2, 84483, Note_on_c, 0, 67, 88
2, 84546, Note_on_c, 0, 60, 0
2, 84549, Note_on_c, 0, 67, 0
2, 84554, Note_on_c, 0, 62, 0
2, 84660, Note_on_c, 0, 62, 76
2, 84662, Note_on_c, 0, 60, 85
2, 84663, Note_on_c, 0, 67, 83
2, 84716, Note_on_c, 0, 67, 0
2, 84727, Note_on_c, 0, 62, 0
2, 84728, Note_on_c, 0, 60, 0
2, 84832, Note_on_c, 0, 62, 88
2, 84835, Note_on_c, 0, 69, 83
2, 84838, Note_on_c, 0, 64, 90
2, 85385, Note_on_c, 0, 69, 0
2, 85387, Note_on_c, 0, 62, 0
2, 85390, Note_on_c, 0, 64, 0
2, 85445, Note_on_c, 0, 64, 96
2, 85446, Note_on_c, 0, 69, 90
2, 85447, Note_on_c, 0, 59, 93
2, 85737, Note_on_c, 0, 69, 0
2, 85745, Note_on_c, 0, 64, 0
2, 85750, Note_on_c, 0, 59, 0
2, 85806, Note_on_c, 0, 57, 90
2, 85808, Note_on_c, 0, 67, 90
2, 85809, Note_on_c, 0, 64, 99
2, 86291, Note_on_c, 0, 57, 0
2, 86292, Note_on_c, 0, 64, 0
2, 86294, Note_on_c, 0, 67, 0
2, 86404, Note_on_c, 0, 67, 85
2, 86405, Note_on_c, 0, 59, 81
2, 86405, Note_on_c, 0, 64, 85
2, 86603, Note_on_c, 0, 59, 0
2, 86604, Note_on_c, 0, 64, 0
2, 86605, Note_on_c, 0, 67, 0
2, 86632, Note_on_c, 0, 67, 63
2, 86634, Note_on_c, 0, 59, 63
2, 86636, Note_on_c, 0, 64, 70
2, 86662, Note_on_c, 0, 59, 0
2, 86675, Note_on_c, 0, 64, 0
2, 86678, Note_on_c, 0, 67, 0
2, 86752, Note_on_c, 0, 66, 70
2, 86755, Note_on_c, 0, 64, 85
2, 86756, Note_on_c, 0, 58, 78
2, 87333, Note_on_c, 0, 66, 0
2, 87335, Note_on_c, 0, 58, 0
2, 87335, Note_on_c, 0, 64, 0
2, 87367, Note_on_c, 0, 69, 95
2, 87369, Note_on_c, 0, 66, 83
2, 87370, Note_on_c, 0, 62, 88
2, 87372, Note_on_c, 0, 71, 83
2, 87692, Note_on_c, 0, 62, 0
2, 87695, Note_on_c, 0, 69, 0
2, 87697, Note_on_c, 0, 66, 0
2, 87702, Note_on_c, 0, 71, 0
2, 87721, Note_on_c, 0, 64, 85
2, 87732, Note_on_c, 0, 67, 88
2, 87735, Note_on_c, 0, 71, 81
2, 88280, Note_on_c, 0, 67, 0
2, 88289, Note_on_c, 0, 71, 0
2, 88324, Note_on_c, 0, 55, 86
2, 88325, Note_on_c, 0, 57, 85
2, 88326, Note_on_c, 0, 64, 0
2, 88329, Note_on_c, 0, 60, 88
2, 88331, Note_on_c, 0, 64, 90
2, 88591, Note_on_c, 0, 60, 0
2, 88592, Note_on_c, 0, 64, 0
2, 88603, Note_on_c, 0, 55, 0
2, 88622, Note_on_c, 0, 57, 0
2, 88682, Note_on_c, 0, 57, 85
2, 88683, Note_on_c, 0, 60, 83
2, 88687, Note_on_c, 0, 64, 85
2, 88690, Note_on_c, 0, 67, 88
2, 89221, Note_on_c, 0, 57, 0
2, 89222, Note_on_c, 0, 60, 0
2, 89235, Note_on_c, 0, 67, 0
2, 89240, Note_on_c, 0, 64, 0
2, 89285, Note_on_c, 0, 64, 85
2, 89286, Note_on_c, 0, 67, 83
2, 89287, Note_on_c, 0, 60, 88
2, 89287, Note_on_c, 0, 59, 85
2, 89342, Note_on_c, 0, 60, 0
2, 89342, Note_on_c, 0, 64, 0
2, 89343, Note_on_c, 0, 59, 0
2, 89345, Note_on_c, 0, 67, 0
2, 89466, Note_on_c, 0, 67, 83
2, 89469, Note_on_c, 0, 64, 88
2, 89469, Note_on_c, 0, 60, 85
2, 89471, Note_on_c, 0, 59, 85
2, 89515, Note_on_c, 0, 64, 0
2, 89522, Note_on_c, 0, 59, 0
2, 89525, Note_on_c, 0, 60, 0
2, 89535, Note_on_c, 0, 67, 0
2, 89632, Note_on_c, 0, 67, 83
2, 89634, Note_on_c, 0, 59, 85
2, 89636, Note_on_c, 0, 57, 85
2, 89637, Note_on_c, 0, 62, 85
2, 90102, Note_on_c, 0, 59, 0
2, 90103, Note_on_c, 0, 57, 0
2, 90105, Note_on_c, 0, 67, 0
2, 90107, Note_on_c, 0, 62, 0
2, 90241, Note_on_c, 0, 62, 74
2, 90243, Note_on_c, 0, 60, 85
2, 90244, Note_on_c, 0, 67, 88
2, 90309, Note_on_c, 0, 60, 0
2, 90311, Note_on_c, 0, 67, 0
2, 90316, Note_on_c, 0, 62, 0
2, 90420, Note_on_c, 0, 62, 76
2, 90423, Note_on_c, 0, 60, 85
2, 90424, Note_on_c, 0, 67, 83
2, 90475, Note_on_c, 0, 67, 0
2, 90485, Note_on_c, 0, 62, 0
2, 90486, Note_on_c, 0, 60, 0
2, 90593, Note_on_c, 0, 62, 88
2, 90596, Note_on_c, 0, 69, 83
2, 90599, Note_on_c, 0, 64, 90
2, 91146, Note_on_c, 0, 69, 0
2, 91148, Note_on_c, 0, 62, 0
2, 91150, Note_on_c, 0, 64, 0
2, 91203, Note_on_c, 0, 59, 68
2, 91204, Note_on_c, 0, 67, 78
2, 91204, Note_on_c, 0, 60, 65
2, 91205, Note_on_c, 0, 64, 70
2, 91265, Note_on_c, 0, 67, 0
2, 91270, Note_on_c, 0, 64, 0
2, 91271, Note_on_c, 0, 59, 0
2, 91272, Note_on_c, 0, 60, 0
2, 91384, Note_on_c, 0, 67, 76
2, 91386, Note_on_c, 0, 64, 83
2, 91387, Note_on_c, 0, 60, 83
2, 91388, Note_on_c, 0, 59, 70
2, 91426, Note_on_c, 0, 64, 0
2, 91428, Note_on_c, 0, 59, 0
2, 91433, Note_on_c, 0, 60, 0
2, 91445, Note_on_c, 0, 67, 0
2, 91552, Note_on_c, 0, 67, 78
2, 91555, Note_on_c, 0, 57, 81
2, 91556, Note_on_c, 0, 59, 78
2, 91557, Note_on_c, 0, 62, 72
2, 92030, Note_on_c, 0, 57, 0
2, 92031, Note_on_c, 0, 59, 0
2, 92035, Note_on_c, 0, 67, 0
2, 92037, Note_on_c, 0, 62, 0
2, 92162, Note_on_c, 0, 62, 74
2, 92162, Note_on_c, 0, 60, 85
2, 92164, Note_on_c, 0, 67, 88
2, 92227, Note_on_c, 0, 60, 0
2, 92230, Note_on_c, 0, 67, 0
2, 92235, Note_on_c, 0, 62, 0
2, 92341, Note_on_c, 0, 62, 76
2, 92342, Note_on_c, 0, 60, 85
2, 92344, Note_on_c, 0, 67, 83
2, 92395, Note_on_c, 0, 67, 0
2, 92406, Note_on_c, 0, 62, 0
2, 92407, Note_on_c, 0, 60, 0
2, 92512, Note_on_c, 0, 62, 88
2, 92515, Note_on_c, 0, 69, 83
2, 92517, Note_on_c, 0, 64, 90
2, 93064, Note_on_c, 0, 69, 0
2, 93067, Note_on_c, 0, 62, 0
2, 93069, Note_on_c, 0, 64, 0
2, 93125, Note_on_c, 0, 64, 96
2, 93126, Note_on_c, 0, 69, 90
2, 93127, Note_on_c, 0, 59, 93
2, 93416, Note_on_c, 0, 69, 0
2, 93424, Note_on_c, 0, 64, 0
2, 93429, Note_on_c, 0, 59, 0
2, 93486, Note_on_c, 0, 57, 90
2, 93487, Note_on_c, 0, 67, 90
2, 93488, Note_on_c, 0, 64, 99
2, 93969, Note_on_c, 0, 57, 0
2, 93972, Note_on_c, 0, 67, 0
2, 93973, Note_on_c, 0, 64, 0
2, 94083, Note_on_c, 0, 67, 85
2, 94084, Note_on_c, 0, 59, 81
2, 94085, Note_on_c, 0, 64, 85
2, 94282, Note_on_c, 0, 59, 0
2, 94283, Note_on_c, 0, 64, 0
2, 94285, Note_on_c, 0, 67, 0
2, 94310, Note_on_c, 0, 67, 63
2, 94311, Note_on_c, 0, 59, 63
2, 94314, Note_on_c, 0, 64, 70
2, 94342, Note_on_c, 0, 59, 0
2, 94355, Note_on_c, 0, 64, 0
2, 94357, Note_on_c, 0, 67, 0
2, 94433, Note_on_c, 0, 66, 70
2, 94436, Note_on_c, 0, 64, 85
2, 94437, Note_on_c, 0, 58, 78
2, 95014, Note_on_c, 0, 66, 0
2, 95016, Note_on_c, 0, 64, 0
2, 95017, Note_on_c, 0, 58, 0
2, 95047, Note_on_c, 0, 69, 95
2, 95049, Note_on_c, 0, 66, 83
2, 95049, Note_on_c, 0, 62, 88
2, 95051, Note_on_c, 0, 71, 83
2, 95372, Note_on_c, 0, 62, 0
2, 95375, Note_on_c, 0, 69, 0
2, 95377, Note_on_c, 0, 66, 0
2, 95382, Note_on_c, 0, 71, 0
2, 95401, Note_on_c, 0, 64, 85
2, 95411, Note_on_c, 0, 67, 88
2, 95414, Note_on_c, 0, 71, 81
2, 95960, Note_on_c, 0, 67, 0
2, 95968, Note_on_c, 0, 71, 0
2, 96004, Note_on_c, 0, 55, 86
2, 96004, Note_on_c, 0, 57, 85
2, 96005, Note_on_c, 0, 64, 0
2, 96007, Note_on_c, 0, 60, 88
2, 96010, Note_on_c, 0, 64, 90
2, 96269, Note_on_c, 0, 60, 0
2, 96270, Note_on_c, 0, 64, 0
2, 96282, Note_on_c, 0, 55, 0
2, 96302, Note_on_c, 0, 57, 0
2, 96363, Note_on_c, 0, 57, 85
2, 96364, Note_on_c, 0, 60, 83
2, 96368, Note_on_c, 0, 64, 85
2, 96371, Note_on_c, 0, 67, 88
2, 96902, Note_on_c, 0, 60, 0
2, 96902, Note_on_c, 0, 57, 0
2, 96915, Note_on_c, 0, 67, 0
2, 96920, Note_on_c, 0, 64, 0
2, 96966, Note_on_c, 0, 60, 85
2, 96967, Note_on_c, 0, 67, 76
2, 96968, Note_on_c, 0, 64, 83
2, 96971, Note_on_c, 0, 59, 83
2, 97029, Note_on_c, 0, 64, 0
2, 97034, Note_on_c, 0, 60, 0
2, 97035, Note_on_c, 0, 59, 0
2, 97042, Note_on_c, 0, 67, 0
2, 97150, Note_on_c, 0, 59, 78
2, 97151, Note_on_c, 0, 60, 83
2, 97153, Note_on_c, 0, 67, 74
2, 97155, Note_on_c, 0, 64, 83
2, 97208, Note_on_c, 0, 59, 0
2, 97213, Note_on_c, 0, 64, 0
2, 97216, Note_on_c, 0, 60, 0
2, 97228, Note_on_c, 0, 67, 0
2, 97325, Note_on_c, 0, 67, 76
2, 97327, Note_on_c, 0, 62, 85
2, 97328, Note_on_c, 0, 59, 85
2, 97329, Note_on_c, 0, 57, 83
2, 97835, Note_on_c, 0, 59, 0
2, 97836, Note_on_c, 0, 57, 0
2, 97837, Note_on_c, 0, 67, 0
2, 97838, Note_on_c, 0, 62, 0
2, 97925, Note_on_c, 0, 60, 78
2, 97927, Note_on_c, 0, 59, 74
2, 97928, Note_on_c, 0, 64, 81
2, 97930, Note_on_c, 0, 67, 74
2, 97977, Note_on_c, 0, 60, 0
2, 97981, Note_on_c, 0, 64, 0
2, 97982, Note_on_c, 0, 59, 0
2, 97996, Note_on_c, 0, 67, 0
2, 98113, Note_on_c, 0, 67, 81
2, 98114, Note_on_c, 0, 60, 83
2, 98115, Note_on_c, 0, 59, 74
2, 98117, Note_on_c, 0, 64, 81
2, 98165, Note_on_c, 0, 60, 0
2, 98166, Note_on_c, 0, 64, 0
2, 98167, Note_on_c, 0, 59, 0
2, 98180, Note_on_c, 0, 67, 0
2, 98289, Note_on_c, 0, 59, 88
2, 98291, Note_on_c, 0, 57, 78
2, 98295, Note_on_c, 0, 62, 85
2, 98295, Note_on_c, 0, 67, 68
2, 98787, Note_on_c, 0, 59, 0
2, 98792, Note_on_c, 0, 57, 0
2, 98797, Note_on_c, 0, 62, 0
2, 98805, Note_on_c, 0, 67, 0
2, 98886, Note_on_c, 0, 60, 78
2, 98888, Note_on_c, 0, 59, 74
2, 98889, Note_on_c, 0, 64, 81
2, 98890, Note_on_c, 0, 67, 74
2, 98939, Note_on_c, 0, 60, 0
2, 98941, Note_on_c, 0, 64, 0
2, 98942, Note_on_c, 0, 59, 0
2, 98955, Note_on_c, 0, 67, 0
2, 99072, Note_on_c, 0, 67, 81
2, 99074, Note_on_c, 0, 60, 83
2, 99075, Note_on_c, 0, 59, 74
2, 99077, Note_on_c, 0, 64, 81
2, 99126, Note_on_c, 0, 64, 0
2, 99126, Note_on_c, 0, 60, 0
2, 99127, Note_on_c, 0, 59, 0
2, 99139, Note_on_c, 0, 67, 0
2, 99250, Note_on_c, 0, 59, 88
2, 99252, Note_on_c, 0, 57, 78
2, 99255, Note_on_c, 0, 62, 85
2, 99256, Note_on_c, 0, 67, 68
2, 99748, Note_on_c, 0, 59, 0
2, 99753, Note_on_c, 0, 57, 0
2, 99759, Note_on_c, 0, 62, 0
2, 99766, Note_on_c, 0, 67, 0
2, 99842, Note_on_c, 0, 64, 70
2, 99843, Note_on_c, 0, 67, 72
2, 99843, Note_on_c, 0, 60, 81
2, 99843, Note_on_c, 0, 59, 72
2, 99891, Note_on_c, 0, 60, 0
2, 99896, Note_on_c, 0, 64, 0
2, 99897, Note_on_c, 0, 59, 0
2, 99915, Note_on_c, 0, 67, 0
2, 100036, Note_on_c, 0, 64, 83
2, 100037, Note_on_c, 0, 60, 85
2, 100039, Note_on_c, 0, 67, 83
2, 100040, Note_on_c, 0, 59, 78
2, 100085, Note_on_c, 0, 59, 0
2, 100087, Note_on_c, 0, 60, 0
2, 100090, Note_on_c, 0, 64, 0
2, 100115, Note_on_c, 0, 67, 0
2, 100207, Note_on_c, 0, 67, 65
2, 100210, Note_on_c, 0, 59, 83
2, 100212, Note_on_c, 0, 57, 70
2, 100215, Note_on_c, 0, 62, 74
2, 100715, Note_on_c, 0, 57, 0
2, 100717, Note_on_c, 0, 59, 0
2, 100720, Note_on_c, 0, 67, 0
2, 100721, Note_on_c, 0, 62, 0
2, 100806, Note_on_c, 0, 60, 85
2, 100806, Note_on_c, 0, 67, 76
2, 100807, Note_on_c, 0, 64, 83
2, 100810, Note_on_c, 0, 59, 83
2, 100871, Note_on_c, 0, 64, 0
2, 100876, Note_on_c, 0, 60, 0
2, 100877, Note_on_c, 0, 59, 0
2, 100884, Note_on_c, 0, 67, 0
2, 100990, Note_on_c, 0, 59, 78
2, 100991, Note_on_c, 0, 60, 83
2, 100993, Note_on_c, 0, 67, 74
2, 100995, Note_on_c, 0, 64, 83
2, 101047, Note_on_c, 0, 59, 0
2, 101051, Note_on_c, 0, 64, 0
2, 101054, Note_on_c, 0, 60, 0
2, 101067, Note_on_c, 0, 67, 0
2, 101166, Note_on_c, 0, 67, 76
2, 101168, Note_on_c, 0, 62, 85
2, 101169, Note_on_c, 0, 59, 85
2, 101171, Note_on_c, 0, 57, 83
2, 101676, Note_on_c, 0, 59, 0
2, 101677, Note_on_c, 0, 57, 0
2, 101679, Note_on_c, 0, 67, 0
2, 101680, Note_on_c, 0, 62, 0
2, 101765, Note_on_c, 0, 60, 78
2, 101767, Note_on_c, 0, 59, 74
2, 101768, Note_on_c, 0, 64, 81
2, 101769, Note_on_c, 0, 67, 74
2, 101817, Note_on_c, 0, 60, 0
2, 101821, Note_on_c, 0, 64, 0
2, 101822, Note_on_c, 0, 59, 0
2, 101835, Note_on_c, 0, 67, 0
2, 101953, Note_on_c, 0, 67, 81
2, 101955, Note_on_c, 0, 60, 83
2, 101956, Note_on_c, 0, 59, 74
2, 101959, Note_on_c, 0, 64, 81
2, 102006, Note_on_c, 0, 60, 0
2, 102007, Note_on_c, 0, 64, 0
2, 102008, Note_on_c, 0, 59, 0
2, 102020, Note_on_c, 0, 67, 0
2, 102129, Note_on_c, 0, 59, 88
2, 102132, Note_on_c, 0, 57, 78
2, 102135, Note_on_c, 0, 62, 85
2, 102136, Note_on_c, 0, 67, 68
2, 102627, Note_on_c, 0, 59, 0
2, 102632, Note_on_c, 0, 57, 0
2, 102637, Note_on_c, 0, 62, 0
2, 102645, Note_on_c, 0, 67, 0
2, 102725, Note_on_c, 0, 60, 78
2, 102727, Note_on_c, 0, 59, 74
2, 102729, Note_on_c, 0, 64, 81
2, 102729, Note_on_c, 0, 67, 74
2, 102777, Note_on_c, 0, 60, 0
2, 102781, Note_on_c, 0, 64, 0
2, 102782, Note_on_c, 0, 59, 0
2, 102796, Note_on_c, 0, 67, 0
2, 102912, Note_on_c, 0, 67, 81
2, 102913, Note_on_c, 0, 60, 83
2, 102915, Note_on_c, 0, 59, 74
2, 102918, Note_on_c, 0, 64, 81
2, 102965, Note_on_c, 0, 60, 0
2, 102966, Note_on_c, 0, 64, 0
2, 102967, Note_on_c, 0, 59, 0
2, 102979, Note_on_c, 0, 67, 0
2, 103091, Note_on_c, 0, 59, 88
2, 103094, Note_on_c, 0, 57, 78
2, 103096, Note_on_c, 0, 62, 85
2, 103097, Note_on_c, 0, 67, 68
2, 103587, Note_on_c, 0, 59, 0
2, 103591, Note_on_c, 0, 57, 0
2, 103596, Note_on_c, 0, 62, 0
2, 103604, Note_on_c, 0, 67, 0
2, 103686, Note_on_c, 0, 60, 78
2, 103688, Note_on_c, 0, 59, 74
2, 103689, Note_on_c, 0, 64, 81
2, 103690, Note_on_c, 0, 67, 74
2, 103738, Note_on_c, 0, 60, 0
2, 103740, Note_on_c, 0, 64, 0
2, 103742, Note_on_c, 0, 59, 0
2, 103755, Note_on_c, 0, 67, 0
2, 103872, Note_on_c, 0, 67, 81
2, 103873, Note_on_c, 0, 60, 83
2, 103875, Note_on_c, 0, 59, 74
2, 103877, Note_on_c, 0, 64, 81
2, 103926, Note_on_c, 0, 60, 0
2, 103927, Note_on_c, 0, 64, 0
2, 103928, Note_on_c, 0, 59, 0
2, 103941, Note_on_c, 0, 67, 0
2, 104050, Note_on_c, 0, 59, 88
2, 104052, Note_on_c, 0, 57, 78
2, 104055, Note_on_c, 0, 62, 85
2, 104056, Note_on_c, 0, 67, 68
2, 104057, Control_c, 0, 91, 0
2, 104057, Control_c, 0, 93, 0
2, 104871, Note_on_c, 0, 67, 0
2, 104871, Note_on_c, 0, 62, 0
2, 104871, Note_on_c, 0, 59, 0
2, 104892, Note_on_c, 0, 57, 0
2, 104892, End_track
3, 0, Start_track
3, 0, MIDI_port, 0
3, 0, Title_t, "C2-P29-Rhythm Guitar"
3, 0, Control_c, 1, 0, 56
3, 0, Control_c, 1, 32, 0
3, 0, Program_c, 1, 28
3, 0, Control_c, 1, 7, 94
3, 0, Control_c, 1, 10, 22
3, 0, Control_c, 1, 91, 87
3, 7799, Note_on_c, 1, 62, 58
3, 7819, Note_on_c, 1, 62, 0
3, 7861, Note_on_c, 1, 64, 70
3, 7881, Note_on_c, 1, 64, 0
3, 7920, Note_on_c, 1, 67, 95
3, 7940, Note_on_c, 1, 67, 0
3, 7980, Note_on_c, 1, 67, 108
3, 7999, Note_on_c, 1, 67, 0
3, 8100, Note_on_c, 1, 67, 76
3, 8119, Note_on_c, 1, 67, 0
3, 8280, Note_on_c, 1, 64, 39
3, 8300, Note_on_c, 1, 64, 0
3, 8340, Note_on_c, 1, 62, 63
3, 8359, Note_on_c, 1, 62, 0
3, 8400, Note_on_c, 1, 67, 88
3, 8421, Note_on_c, 1, 67, 0
3, 8761, Note_on_c, 1, 62, 61
3, 8779, Note_on_c, 1, 62, 0
3, 8820, Note_on_c, 1, 64, 61
3, 8840, Note_on_c, 1, 64, 0
3, 8880, Note_on_c, 1, 67, 93
3, 8900, Note_on_c, 1, 67, 0
3, 8940, Note_on_c, 1, 67, 93
3, 8960, Note_on_c, 1, 67, 0
3, 9060, Note_on_c, 1, 67, 78
3, 9079, Note_on_c, 1, 67, 0
3, 9179, Note_on_c, 1, 67, 72
3, 9200, Note_on_c, 1, 67, 0
3, 9239, Note_on_c, 1, 64, 72
3, 9261, Note_on_c, 1, 64, 0
3, 9300, Note_on_c, 1, 62, 60
3, 9320, Note_on_c, 1, 62, 0
3, 9360, Note_on_c, 1, 67, 91
3, 9379, Note_on_c, 1, 67, 0
3, 9720, Note_on_c, 1, 62, 59
3, 9739, Note_on_c, 1, 62, 0
3, 9779, Note_on_c, 1, 64, 56
3, 9799, Note_on_c, 1, 64, 0
3, 9841, Note_on_c, 1, 67, 95
3, 9861, Note_on_c, 1, 67, 0
3, 9900, Note_on_c, 1, 67, 93
3, 9920, Note_on_c, 1, 67, 0
3, 10020, Note_on_c, 1, 67, 80
3, 10039, Note_on_c, 1, 67, 0
3, 10139, Note_on_c, 1, 67, 56
3, 10160, Note_on_c, 1, 67, 0
3, 10200, Note_on_c, 1, 64, 64
3, 10220, Note_on_c, 1, 64, 0
3, 10260, Note_on_c, 1, 62, 39
3, 10280, Note_on_c, 1, 62, 0
3, 10320, Note_on_c, 1, 67, 80
3, 10339, Note_on_c, 1, 67, 0
3, 10681, Note_on_c, 1, 62, 57
3, 10699, Note_on_c, 1, 62, 0
3, 10740, Note_on_c, 1, 64, 70
3, 10759, Note_on_c, 1, 64, 0
3, 10800, Note_on_c, 1, 65, 61
3, 10801, Note_on_c, 1, 67, 91
3, 10820, Note_on_c, 1, 65, 0
3, 10821, Note_on_c, 1, 67, 0
3, 10860, Note_on_c, 1, 67, 74
3, 10880, Note_on_c, 1, 67, 0
3, 10980, Note_on_c, 1, 67, 88
3, 10999, Note_on_c, 1, 67, 0
3, 11099, Note_on_c, 1, 67, 72
3, 11119, Note_on_c, 1, 67, 0
3, 11160, Note_on_c, 1, 64, 45
3, 11180, Note_on_c, 1, 64, 0
3, 11221, Note_on_c, 1, 62, 58
3, 11241, Note_on_c, 1, 62, 0
3, 11280, Note_on_c, 1, 67, 74
3, 11300, Note_on_c, 1, 67, 0
3, 11640, Note_on_c, 1, 62, 76
3, 11659, Note_on_c, 1, 62, 0
3, 11700, Note_on_c, 1, 64, 63
3, 11719, Note_on_c, 1, 64, 0
3, 11760, Note_on_c, 1, 67, 106
3, 11781, Note_on_c, 1, 67, 0
3, 11820, Note_on_c, 1, 67, 99
3, 11840, Note_on_c, 1, 67, 0
3, 11940, Note_on_c, 1, 67, 72
3, 11960, Note_on_c, 1, 67, 0
3, 12061, Note_on_c, 1, 67, 67
3, 12081, Note_on_c, 1, 67, 0
3, 12120, Note_on_c, 1, 64, 42
3, 12139, Note_on_c, 1, 64, 0
3, 12180, Note_on_c, 1, 62, 57
3, 12200, Note_on_c, 1, 62, 0
3, 12240, Note_on_c, 1, 67, 72
3, 12260, Note_on_c, 1, 67, 0
3, 12600, Note_on_c, 1, 67, 53
3, 12621, Note_on_c, 1, 67, 0
3, 12660, Note_on_c, 1, 69, 80
3, 12679, Note_on_c, 1, 69, 0
3, 12720, Note_on_c, 1, 72, 91
3, 12739, Note_on_c, 1, 72, 0
3, 12780, Note_on_c, 1, 72, 104
3, 12800, Note_on_c, 1, 72, 0
3, 12901, Note_on_c, 1, 72, 70
3, 12921, Note_on_c, 1, 72, 0
3, 13020, Note_on_c, 1, 72, 63
3, 13039, Note_on_c, 1, 72, 0
3, 13080, Note_on_c, 1, 69, 29
3, 13099, Note_on_c, 1, 69, 0
3, 13139, Note_on_c, 1, 67, 47
3, 13160, Note_on_c, 1, 67, 0
3, 13201, Note_on_c, 1, 72, 72
3, 13220, Note_on_c, 1, 72, 0
3, 13560, Note_on_c, 1, 67, 63
3, 13580, Note_on_c, 1, 67, 0
3, 13620, Note_on_c, 1, 69, 43
3, 13640, Note_on_c, 1, 69, 0
3, 13680, Note_on_c, 1, 72, 88
3, 13699, Note_on_c, 1, 72, 0
3, 13740, Note_on_c, 1, 72, 88
3, 13759, Note_on_c, 1, 72, 0
3, 13860, Note_on_c, 1, 72, 91
3, 13880, Note_on_c, 1, 72, 0
3, 13981, Note_on_c, 1, 72, 65
3, 13999, Note_on_c, 1, 72, 0
3, 14040, Note_on_c, 1, 69, 72
3, 14059, Note_on_c, 1, 69, 0
3, 14099, Note_on_c, 1, 67, 60
3, 14119, Note_on_c, 1, 67, 0
3, 14160, Note_on_c, 1, 72, 70
3, 14180, Note_on_c, 1, 72, 0
3, 14519, Note_on_c, 1, 62, 36
3, 14541, Note_on_c, 1, 62, 0
3, 14580, Note_on_c, 1, 64, 63
3, 14600, Note_on_c, 1, 64, 0
3, 14640, Note_on_c, 1, 67, 104
3, 14660, Note_on_c, 1, 67, 0
3, 14700, Note_on_c, 1, 67, 67
3, 14720, Note_on_c, 1, 67, 0
3, 14821, Note_on_c, 1, 67, 86
3, 14840, Note_on_c, 1, 67, 0
3, 14940, Note_on_c, 1, 67, 64
3, 14960, Note_on_c, 1, 67, 0
3, 15000, Note_on_c, 1, 64, 59
3, 15019, Note_on_c, 1, 64, 0
3, 15060, Note_on_c, 1, 62, 47
3, 15079, Note_on_c, 1, 62, 0
3, 15120, Note_on_c, 1, 67, 63
3, 15139, Note_on_c, 1, 67, 0
3, 15480, Note_on_c, 1, 62, 49
3, 15500, Note_on_c, 1, 62, 0
3, 15540, Note_on_c, 1, 64, 78
3, 15560, Note_on_c, 1, 64, 0
3, 15600, Note_on_c, 1, 67, 108
3, 15620, Note_on_c, 1, 67, 0
3, 15661, Note_on_c, 1, 67, 84
3, 15679, Note_on_c, 1, 67, 0
3, 15780, Note_on_c, 1, 67, 53
3, 15799, Note_on_c, 1, 67, 0
3, 15899, Note_on_c, 1, 67, 72
3, 15920, Note_on_c, 1, 67, 0
3, 15960, Note_on_c, 1, 64, 64
3, 15979, Note_on_c, 1, 64, 0
3, 16020, Note_on_c, 1, 62, 72
3, 16039, Note_on_c, 1, 62, 0
3, 16079, Note_on_c, 1, 67, 70
3, 16099, Note_on_c, 1, 67, 0
3, 16439, Note_on_c, 1, 69, 65
3, 16460, Note_on_c, 1, 69, 0
3, 16502, Note_on_c, 1, 71, 57
3, 16520, Note_on_c, 1, 71, 0
3, 16560, Note_on_c, 1, 74, 97
3, 16580, Note_on_c, 1, 74, 0
3, 16620, Note_on_c, 1, 74, 88
3, 16639, Note_on_c, 1, 74, 0
3, 16740, Note_on_c, 1, 74, 65
3, 16759, Note_on_c, 1, 74, 0
3, 16859, Note_on_c, 1, 74, 66
3, 16880, Note_on_c, 1, 74, 0
3, 16920, Note_on_c, 1, 71, 59
3, 16940, Note_on_c, 1, 71, 0
3, 16980, Note_on_c, 1, 69, 67
3, 16999, Note_on_c, 1, 69, 0
3, 17040, Note_on_c, 1, 74, 78
3, 17060, Note_on_c, 1, 74, 0
3, 17400, Note_on_c, 1, 67, 53
3, 17419, Note_on_c, 1, 67, 0
3, 17460, Note_on_c, 1, 69, 57
3, 17479, Note_on_c, 1, 69, 0
3, 17520, Note_on_c, 1, 72, 88
3, 17540, Note_on_c, 1, 72, 0
3, 17580, Note_on_c, 1, 72, 76
3, 17600, Note_on_c, 1, 72, 0
3, 17700, Note_on_c, 1, 72, 59
3, 17719, Note_on_c, 1, 72, 0
3, 17819, Note_on_c, 1, 72, 66
3, 17840, Note_on_c, 1, 72, 0
3, 17879, Note_on_c, 1, 69, 43
3, 17901, Note_on_c, 1, 69, 0
3, 17940, Note_on_c, 1, 67, 53
3, 17960, Note_on_c, 1, 67, 0
3, 18000, Note_on_c, 1, 72, 84
3, 18019, Note_on_c, 1, 72, 0
3, 18360, Note_on_c, 1, 62, 66
3, 18379, Note_on_c, 1, 62, 0
3, 18421, Note_on_c, 1, 64, 56
3, 18439, Note_on_c, 1, 64, 0
3, 18480, Note_on_c, 1, 67, 84
3, 18500, Note_on_c, 1, 67, 0
3, 18540, Note_on_c, 1, 67, 95
3, 18560, Note_on_c, 1, 67, 0
3, 18660, Note_on_c, 1, 67, 86
3, 18679, Note_on_c, 1, 67, 0
3, 18779, Note_on_c, 1, 67, 66
3, 18800, Note_on_c, 1, 67, 0
3, 18840, Note_on_c, 1, 64, 66
3, 18860, Note_on_c, 1, 64, 0
3, 18900, Note_on_c, 1, 62, 45
3, 18920, Note_on_c, 1, 62, 0
3, 18960, Note_on_c, 1, 67, 63
3, 18979, Note_on_c, 1, 67, 0
3, 19320, Note_on_c, 1, 62, 63
3, 19339, Note_on_c, 1, 62, 0
3, 19380, Note_on_c, 1, 64, 51
3, 19399, Note_on_c, 1, 64, 0
3, 19440, Note_on_c, 1, 67, 93
3, 19459, Note_on_c, 1, 67, 0
3, 19562, Note_on_c, 1, 67, 66
3, 19581, Note_on_c, 1, 67, 0
3, 19620, Note_on_c, 1, 67, 59
3, 19639, Note_on_c, 1, 67, 0
3, 19680, Note_on_c, 1, 69, 104
3, 19720, Pitch_bend_c, 1, 8612
3, 19725, Pitch_bend_c, 1, 9368
3, 19730, Pitch_bend_c, 1, 10214
3, 19734, Pitch_bend_c, 1, 11060
3, 19739, Pitch_bend_c, 1, 11984
3, 19747, Pitch_bend_c, 1, 13592
3, 19752, Pitch_bend_c, 1, 15026
3, 19757, Pitch_bend_c, 1, 16383
3, 19807, Pitch_bend_c, 1, 16376
3, 19814, Pitch_bend_c, 1, 13418
3, 19820, Pitch_bend_c, 1, 10802
3, 19825, Pitch_bend_c, 1, 9200
3, 19830, Pitch_bend_c, 1, 8192
3, 19861, Note_on_c, 1, 69, 0
3, 19920, Note_on_c, 1, 67, 86
3, 19940, Note_on_c, 1, 67, 0
3, 20040, Note_on_c, 1, 64, 63
3, 20059, Note_on_c, 1, 64, 0
3, 20099, Note_on_c, 1, 62, 48
3, 20120, Note_on_c, 1, 62, 0
3, 20280, Note_on_c, 1, 62, 72
3, 20299, Note_on_c, 1, 62, 0
3, 20340, Note_on_c, 1, 64, 72
3, 20360, Note_on_c, 1, 64, 0
3, 20399, Note_on_c, 1, 67, 86
3, 20422, Note_on_c, 1, 67, 0
3, 20459, Note_on_c, 1, 67, 91
3, 20480, Note_on_c, 1, 67, 0
3, 20580, Note_on_c, 1, 67, 60
3, 20600, Note_on_c, 1, 67, 0
3, 20701, Note_on_c, 1, 67, 54
3, 20719, Note_on_c, 1, 67, 0
3, 20760, Note_on_c, 1, 64, 59
3, 20779, Note_on_c, 1, 64, 0
3, 20820, Note_on_c, 1, 62, 53
3, 20840, Note_on_c, 1, 62, 0
3, 20880, Note_on_c, 1, 67, 59
3, 20900, Note_on_c, 1, 67, 0
3, 21240, Note_on_c, 1, 62, 66
3, 21261, Note_on_c, 1, 62, 0
3, 21300, Note_on_c, 1, 64, 70
3, 21320, Note_on_c, 1, 64, 0
3, 21360, Note_on_c, 1, 67, 104
3, 21380, Note_on_c, 1, 67, 0
3, 21419, Note_on_c, 1, 67, 74
3, 21439, Note_on_c, 1, 67, 0
3, 21541, Note_on_c, 1, 67, 84
3, 21560, Note_on_c, 1, 67, 0
3, 21660, Note_on_c, 1, 67, 59
3, 21679, Note_on_c, 1, 67, 0
3, 21720, Note_on_c, 1, 64, 58
3, 21740, Note_on_c, 1, 64, 0
3, 21840, Note_on_c, 1, 67, 69
3, 21860, Note_on_c, 1, 67, 0
3, 22200, Note_on_c, 1, 62, 66
3, 22220, Note_on_c, 1, 62, 0
3, 22260, Note_on_c, 1, 64, 64
3, 22279, Note_on_c, 1, 64, 0
3, 22320, Note_on_c, 1, 67, 106
3, 22339, Note_on_c, 1, 67, 0
3, 22382, Note_on_c, 1, 67, 76
3, 22399, Note_on_c, 1, 67, 0
3, 22500, Note_on_c, 1, 67, 72
3, 22520, Note_on_c, 1, 67, 0
3, 22620, Note_on_c, 1, 67, 82
3, 22639, Note_on_c, 1, 67, 0
3, 22680, Note_on_c, 1, 64, 59
3, 22699, Note_on_c, 1, 64, 0
3, 22739, Note_on_c, 1, 62, 44
3, 22759, Note_on_c, 1, 62, 0
3, 22800, Note_on_c, 1, 67, 76
3, 22820, Note_on_c, 1, 67, 0
3, 23159, Note_on_c, 1, 62, 61
3, 23180, Note_on_c, 1, 62, 0
3, 23221, Note_on_c, 1, 64, 68
3, 23240, Note_on_c, 1, 64, 0
3, 23280, Note_on_c, 1, 67, 86
3, 23299, Note_on_c, 1, 67, 0
3, 23340, Note_on_c, 1, 67, 68
3, 23359, Note_on_c, 1, 67, 0
3, 23459, Note_on_c, 1, 67, 88
3, 23480, Note_on_c, 1, 67, 0
3, 23580, Note_on_c, 1, 67, 72
3, 23600, Note_on_c, 1, 67, 0
3, 23640, Note_on_c, 1, 64, 29
3, 23659, Note_on_c, 1, 64, 0
3, 23759, Note_on_c, 1, 67, 68
3, 23781, Note_on_c, 1, 67, 0
3, 24120, Note_on_c, 1, 67, 69
3, 24140, Note_on_c, 1, 67, 0
3, 24180, Note_on_c, 1, 69, 53
3, 24200, Note_on_c, 1, 69, 0
3, 24240, Note_on_c, 1, 72, 104
3, 24260, Note_on_c, 1, 72, 0
3, 24300, Note_on_c, 1, 72, 88
3, 24319, Note_on_c, 1, 72, 0
3, 24420, Note_on_c, 1, 72, 70
3, 24439, Note_on_c, 1, 72, 0
3, 24539, Note_on_c, 1, 72, 51
3, 24560, Note_on_c, 1, 72, 0
3, 24600, Note_on_c, 1, 69, 72
3, 24620, Note_on_c, 1, 69, 0
3, 24660, Note_on_c, 1, 67, 33
3, 24679, Note_on_c, 1, 67, 0
3, 24719, Note_on_c, 1, 72, 72
3, 24739, Note_on_c, 1, 72, 0
3, 25079, Note_on_c, 1, 67, 49
3, 25099, Note_on_c, 1, 67, 0
3, 25139, Note_on_c, 1, 69, 57
3, 25160, Note_on_c, 1, 69, 0
3, 25200, Note_on_c, 1, 72, 99
3, 25220, Note_on_c, 1, 72, 0
3, 25260, Note_on_c, 1, 72, 86
3, 25279, Note_on_c, 1, 72, 0
3, 25379, Note_on_c, 1, 72, 67
3, 25399, Note_on_c, 1, 72, 0
3, 25499, Note_on_c, 1, 72, 47
3, 25520, Note_on_c, 1, 72, 0
3, 25560, Note_on_c, 1, 69, 63
3, 25580, Note_on_c, 1, 69, 0
3, 25620, Note_on_c, 1, 67, 53
3, 25639, Note_on_c, 1, 67, 0
3, 25680, Note_on_c, 1, 72, 72
3, 25699, Note_on_c, 1, 72, 0
3, 26040, Note_on_c, 1, 62, 50
3, 26059, Note_on_c, 1, 62, 0
3, 26100, Note_on_c, 1, 64, 63
3, 26120, Note_on_c, 1, 64, 0
3, 26160, Note_on_c, 1, 67, 84
3, 26181, Note_on_c, 1, 67, 0
3, 26220, Note_on_c, 1, 67, 86
3, 26240, Note_on_c, 1, 67, 0
3, 26340, Note_on_c, 1, 67, 78
3, 26360, Note_on_c, 1, 67, 0
3, 26459, Note_on_c, 1, 67, 72
3, 26480, Note_on_c, 1, 67, 0
3, 26520, Note_on_c, 1, 64, 61
3, 26540, Note_on_c, 1, 64, 0
3, 26581, Note_on_c, 1, 62, 48
3, 26599, Note_on_c, 1, 62, 0
3, 26640, Note_on_c, 1, 67, 69
3, 26659, Note_on_c, 1, 67, 0
3, 27000, Note_on_c, 1, 62, 57
3, 27019, Note_on_c, 1, 62, 0
3, 27121, Note_on_c, 1, 67, 111
3, 27141, Note_on_c, 1, 67, 0
3, 27180, Note_on_c, 1, 67, 86
3, 27200, Note_on_c, 1, 67, 0
3, 27301, Note_on_c, 1, 67, 67
3, 27319, Note_on_c, 1, 67, 0
3, 27420, Note_on_c, 1, 67, 72
3, 27439, Note_on_c, 1, 67, 0
3, 27480, Note_on_c, 1, 64, 63
3, 27500, Note_on_c, 1, 64, 0
3, 27540, Note_on_c, 1, 62, 62
3, 27560, Note_on_c, 1, 62, 0
3, 27600, Note_on_c, 1, 67, 76
3, 27619, Note_on_c, 1, 67, 0
3, 27960, Note_on_c, 1, 69, 55
3, 27980, Note_on_c, 1, 69, 0
3, 28080, Note_on_c, 1, 74, 88
3, 28100, Note_on_c, 1, 74, 0
3, 28139, Note_on_c, 1, 74, 93
3, 28160, Note_on_c, 1, 74, 0
3, 28261, Note_on_c, 1, 74, 65
3, 28279, Note_on_c, 1, 74, 0
3, 28379, Note_on_c, 1, 74, 66
3, 28399, Note_on_c, 1, 74, 0
3, 28440, Note_on_c, 1, 71, 53
3, 28460, Note_on_c, 1, 71, 0
3, 28499, Note_on_c, 1, 69, 56
3, 28520, Note_on_c, 1, 69, 0
3, 28560, Note_on_c, 1, 74, 65
3, 28580, Note_on_c, 1, 74, 0
3, 28920, Note_on_c, 1, 67, 48
3, 28939, Note_on_c, 1, 67, 0
3, 28980, Note_on_c, 1, 69, 63
3, 28999, Note_on_c, 1, 69, 0
3, 29041, Note_on_c, 1, 72, 76
3, 29059, Note_on_c, 1, 72, 0
3, 29101, Note_on_c, 1, 72, 86
3, 29119, Note_on_c, 1, 72, 0
3, 29220, Note_on_c, 1, 72, 76
3, 29240, Note_on_c, 1, 72, 0
3, 29341, Note_on_c, 1, 72, 59
3, 29359, Note_on_c, 1, 72, 0
3, 29400, Note_on_c, 1, 69, 45
3, 29419, Note_on_c, 1, 69, 0
3, 29520, Note_on_c, 1, 72, 76
3, 29540, Note_on_c, 1, 72, 0
3, 29880, Note_on_c, 1, 62, 58
3, 29900, Note_on_c, 1, 62, 0
3, 30001, Note_on_c, 1, 67, 86
3, 30002, Note_on_c, 1, 64, 36
3, 30019, Note_on_c, 1, 67, 0
3, 30020, Note_on_c, 1, 64, 0
3, 30179, Note_on_c, 1, 67, 61
3, 30200, Note_on_c, 1, 67, 0
3, 30300, Note_on_c, 1, 67, 72
3, 30319, Note_on_c, 1, 67, 0
3, 30360, Note_on_c, 1, 64, 65
3, 30379, Note_on_c, 1, 64, 0
3, 30420, Note_on_c, 1, 62, 70
3, 30440, Note_on_c, 1, 62, 0
3, 30481, Note_on_c, 1, 67, 82
3, 30501, Note_on_c, 1, 67, 0
3, 30840, Note_on_c, 1, 62, 63
3, 30860, Note_on_c, 1, 62, 0
3, 30900, Note_on_c, 1, 64, 51
3, 30919, Note_on_c, 1, 64, 0
3, 30960, Note_on_c, 1, 67, 93
3, 30979, Note_on_c, 1, 67, 0
3, 31080, Note_on_c, 1, 67, 66
3, 31099, Note_on_c, 1, 67, 0
3, 31140, Note_on_c, 1, 67, 59
3, 31160, Note_on_c, 1, 67, 0
3, 31200, Note_on_c, 1, 69, 104
3, 31239, Pitch_bend_c, 1, 8612
3, 31244, Pitch_bend_c, 1, 9368
3, 31249, Pitch_bend_c, 1, 10214
3, 31255, Pitch_bend_c, 1, 11060
3, 31260, Pitch_bend_c, 1, 11984
3, 31267, Pitch_bend_c, 1, 13592
3, 31272, Pitch_bend_c, 1, 15026
3, 31277, Pitch_bend_c, 1, 16383
3, 31327, Pitch_bend_c, 1, 16376
3, 31334, Pitch_bend_c, 1, 13418
3, 31340, Pitch_bend_c, 1, 10802
3, 31346, Pitch_bend_c, 1, 9200
3, 31351, Pitch_bend_c, 1, 8192
3, 31380, Note_on_c, 1, 69, 0
3, 31439, Note_on_c, 1, 67, 86
3, 31460, Note_on_c, 1, 67, 0
3, 31560, Note_on_c, 1, 64, 63
3, 31579, Note_on_c, 1, 64, 0
3, 31621, Note_on_c, 1, 62, 48
3, 31639, Note_on_c, 1, 62, 0
3, 39480, Note_on_c, 1, 62, 64
3, 39500, Note_on_c, 1, 62, 0
3, 39540, Note_on_c, 1, 64, 62
3, 39559, Note_on_c, 1, 64, 0
3, 39600, Note_on_c, 1, 67, 84
3, 39619, Note_on_c, 1, 67, 0
3, 39659, Note_on_c, 1, 67, 60
3, 39679, Note_on_c, 1, 67, 0
3, 39780, Note_on_c, 1, 67, 70
3, 39800, Note_on_c, 1, 67, 0
3, 39900, Note_on_c, 1, 67, 63
3, 39919, Note_on_c, 1, 67, 0
3, 39960, Note_on_c, 1, 64, 58
3, 39979, Note_on_c, 1, 64, 0
3, 40020, Note_on_c, 1, 62, 57
3, 40039, Note_on_c, 1, 62, 0
3, 40080, Note_on_c, 1, 67, 63
3, 40100, Note_on_c, 1, 67, 0
3, 40440, Note_on_c, 1, 62, 54
3, 40460, Note_on_c, 1, 62, 0
3, 40500, Note_on_c, 1, 64, 59
3, 40520, Note_on_c, 1, 64, 0
3, 40561, Note_on_c, 1, 67, 104
3, 40581, Note_on_c, 1, 67, 0
3, 40620, Note_on_c, 1, 67, 74
3, 40639, Note_on_c, 1, 67, 0
3, 40740, Note_on_c, 1, 67, 62
3, 40760, Note_on_c, 1, 67, 0
3, 40861, Note_on_c, 1, 67, 64
3, 40879, Note_on_c, 1, 67, 0
3, 40920, Note_on_c, 1, 64, 47
3, 40939, Note_on_c, 1, 64, 0
3, 40980, Note_on_c, 1, 62, 44
3, 40999, Note_on_c, 1, 62, 0
3, 41040, Note_on_c, 1, 67, 74
3, 41060, Note_on_c, 1, 67, 0
3, 50039, Note_on_c, 1, 62, 41
3, 50060, Note_on_c, 1, 62, 0
3, 50101, Note_on_c, 1, 64, 36
3, 50120, Note_on_c, 1, 64, 0
3, 50160, Note_on_c, 1, 67, 37
3, 50179, Note_on_c, 1, 67, 0
3, 50220, Note_on_c, 1, 67, 64
3, 50239, Note_on_c, 1, 67, 0
3, 50339, Note_on_c, 1, 67, 45
3, 50361, Note_on_c, 1, 67, 0
3, 50459, Note_on_c, 1, 67, 46
3, 50480, Note_on_c, 1, 67, 0
3, 50520, Note_on_c, 1, 64, 42
3, 50539, Note_on_c, 1, 64, 0
3, 50580, Note_on_c, 1, 62, 24
3, 50599, Note_on_c, 1, 62, 0
3, 50641, Note_on_c, 1, 67, 42
3, 50661, Note_on_c, 1, 67, 0
3, 51000, Note_on_c, 1, 62, 19
3, 51020, Note_on_c, 1, 62, 0
3, 51060, Note_on_c, 1, 64, 33
3, 51080, Note_on_c, 1, 64, 0
3, 51120, Note_on_c, 1, 67, 64
3, 51140, Note_on_c, 1, 67, 0
3, 51179, Note_on_c, 1, 67, 60
3, 51200, Note_on_c, 1, 67, 0
3, 51299, Note_on_c, 1, 67, 42
3, 51319, Note_on_c, 1, 67, 0
3, 51419, Note_on_c, 1, 67, 34
3, 51440, Note_on_c, 1, 67, 0
3, 51481, Note_on_c, 1, 64, 42
3, 51501, Note_on_c, 1, 64, 0
3, 51540, Note_on_c, 1, 62, 19
3, 51559, Note_on_c, 1, 62, 0
3, 51600, Note_on_c, 1, 67, 34
3, 51619, Note_on_c, 1, 67, 0
3, 51959, Note_on_c, 1, 62, 19
3, 51979, Note_on_c, 1, 62, 0
3, 52019, Note_on_c, 1, 64, 41
3, 52041, Note_on_c, 1, 64, 0
3, 52080, Note_on_c, 1, 67, 64
3, 52101, Note_on_c, 1, 67, 0
3, 52140, Note_on_c, 1, 67, 50
3, 52159, Note_on_c, 1, 67, 0
3, 52260, Note_on_c, 1, 67, 40
3, 52279, Note_on_c, 1, 67, 0
3, 52380, Note_on_c, 1, 67, 35
3, 52400, Note_on_c, 1, 67, 0
3, 52440, Note_on_c, 1, 64, 39
3, 52460, Note_on_c, 1, 64, 0
3, 52500, Note_on_c, 1, 62, 19
3, 52519, Note_on_c, 1, 62, 0
3, 52560, Note_on_c, 1, 67, 35
3, 52579, Note_on_c, 1, 67, 0
3, 52920, Note_on_c, 1, 62, 30
3, 52939, Note_on_c, 1, 62, 0
3, 52980, Note_on_c, 1, 64, 35
3, 52999, Note_on_c, 1, 64, 0
3, 53040, Note_on_c, 1, 67, 54
3, 53061, Note_on_c, 1, 67, 0
3, 53100, Note_on_c, 1, 67, 62
3, 53120, Note_on_c, 1, 67, 0
3, 53220, Note_on_c, 1, 67, 41
3, 53239, Note_on_c, 1, 67, 0
3, 53339, Note_on_c, 1, 67, 33
3, 53360, Note_on_c, 1, 67, 0
3, 53399, Note_on_c, 1, 64, 25
3, 53421, Note_on_c, 1, 64, 0
3, 53461, Note_on_c, 1, 62, 29
3, 53480, Note_on_c, 1, 62, 0
3, 53520, Note_on_c, 1, 67, 37
3, 53539, Note_on_c, 1, 67, 0
3, 53880, Note_on_c, 1, 62, 42
3, 53899, Note_on_c, 1, 62, 0
3, 53939, Note_on_c, 1, 64, 39
3, 53959, Note_on_c, 1, 64, 0
3, 54001, Note_on_c, 1, 67, 69
3, 54021, Note_on_c, 1, 67, 0
3, 54060, Note_on_c, 1, 67, 48
3, 54080, Note_on_c, 1, 67, 0
3, 54180, Note_on_c, 1, 67, 39
3, 54199, Note_on_c, 1, 67, 0
3, 54300, Note_on_c, 1, 67, 34
3, 54319, Note_on_c, 1, 67, 0
3, 54360, Note_on_c, 1, 64, 30
3, 54380, Note_on_c, 1, 64, 0
3, 54420, Note_on_c, 1, 62, 23
3, 54440, Note_on_c, 1, 62, 0
3, 54480, Note_on_c, 1, 67, 33
3, 54499, Note_on_c, 1, 67, 0
3, 54840, Note_on_c, 1, 67, 37
3, 54859, Note_on_c, 1, 67, 0
3, 54900, Note_on_c, 1, 69, 50
3, 54919, Note_on_c, 1, 69, 0
3, 54960, Note_on_c, 1, 72, 52
3, 54979, Note_on_c, 1, 72, 0
3, 55020, Note_on_c, 1, 72, 62
3, 55040, Note_on_c, 1, 72, 0
3, 55140, Note_on_c, 1, 72, 39
3, 55159, Note_on_c, 1, 72, 0
3, 55260, Note_on_c, 1, 72, 19
3, 55279, Note_on_c, 1, 72, 0
3, 55319, Note_on_c, 1, 69, 19
3, 55339, Note_on_c, 1, 69, 0
3, 55381, Note_on_c, 1, 67, 39
3, 55400, Note_on_c, 1, 67, 0
3, 55440, Note_on_c, 1, 72, 44
3, 55460, Note_on_c, 1, 72, 0
3, 55800, Note_on_c, 1, 67, 48
3, 55820, Note_on_c, 1, 67, 0
3, 55860, Note_on_c, 1, 69, 62
3, 55879, Note_on_c, 1, 69, 0
3, 55921, Note_on_c, 1, 72, 84
3, 55941, Note_on_c, 1, 72, 0
3, 55979, Note_on_c, 1, 72, 56
3, 56000, Note_on_c, 1, 72, 0
3, 56100, Note_on_c, 1, 72, 27
3, 56120, Note_on_c, 1, 72, 0
3, 56221, Note_on_c, 1, 72, 34
3, 56239, Note_on_c, 1, 72, 0
3, 56279, Note_on_c, 1, 69, 19
3, 56299, Note_on_c, 1, 69, 0
3, 56340, Note_on_c, 1, 67, 40
3, 56360, Note_on_c, 1, 67, 0
3, 56400, Note_on_c, 1, 72, 52
3, 56420, Note_on_c, 1, 72, 0
3, 56761, Note_on_c, 1, 62, 34
3, 56780, Note_on_c, 1, 62, 0
3, 56820, Note_on_c, 1, 64, 52
3, 56840, Note_on_c, 1, 64, 0
3, 56880, Note_on_c, 1, 67, 69
3, 56900, Note_on_c, 1, 67, 0
3, 56941, Note_on_c, 1, 67, 64
3, 56959, Note_on_c, 1, 67, 0
3, 57060, Note_on_c, 1, 67, 46
3, 57080, Note_on_c, 1, 67, 0
3, 57180, Note_on_c, 1, 67, 45
3, 57199, Note_on_c, 1, 67, 0
3, 57240, Note_on_c, 1, 64, 40
3, 57259, Note_on_c, 1, 64, 0
3, 57301, Note_on_c, 1, 62, 39
3, 57321, Note_on_c, 1, 62, 0
3, 57359, Note_on_c, 1, 67, 42
3, 57380, Note_on_c, 1, 67, 0
3, 57720, Note_on_c, 1, 62, 35
3, 57740, Note_on_c, 1, 62, 0
3, 57780, Note_on_c, 1, 64, 43
3, 57800, Note_on_c, 1, 64, 0
3, 57842, Note_on_c, 1, 67, 84
3, 57860, Note_on_c, 1, 67, 0
3, 57900, Note_on_c, 1, 67, 52
3, 57919, Note_on_c, 1, 67, 0
3, 58019, Note_on_c, 1, 67, 40
3, 58040, Note_on_c, 1, 67, 0
3, 58141, Note_on_c, 1, 67, 37
3, 58160, Note_on_c, 1, 67, 0
3, 58200, Note_on_c, 1, 64, 41
3, 58219, Note_on_c, 1, 64, 0
3, 58259, Note_on_c, 1, 62, 19
3, 58279, Note_on_c, 1, 62, 0
3, 58320, Note_on_c, 1, 67, 56
3, 58340, Note_on_c, 1, 67, 0
3, 58681, Note_on_c, 1, 69, 52
3, 58701, Note_on_c, 1, 69, 0
3, 58741, Note_on_c, 1, 71, 43
3, 58760, Note_on_c, 1, 71, 0
3, 58800, Note_on_c, 1, 74, 62
3, 58819, Note_on_c, 1, 74, 0
3, 58860, Note_on_c, 1, 74, 64
3, 58879, Note_on_c, 1, 74, 0
3, 58981, Note_on_c, 1, 74, 48
3, 59001, Note_on_c, 1, 74, 0
3, 59100, Note_on_c, 1, 74, 32
3, 59120, Note_on_c, 1, 74, 0
3, 59160, Note_on_c, 1, 71, 21
3, 59179, Note_on_c, 1, 71, 0
3, 59220, Note_on_c, 1, 69, 34
3, 59239, Note_on_c, 1, 69, 0
3, 59281, Note_on_c, 1, 74, 50
3, 59299, Note_on_c, 1, 74, 0
3, 59640, Note_on_c, 1, 67, 27
3, 59659, Note_on_c, 1, 67, 0
3, 59700, Note_on_c, 1, 69, 22
3, 59720, Note_on_c, 1, 69, 0
3, 59761, Note_on_c, 1, 72, 60
3, 59780, Note_on_c, 1, 72, 0
3, 59821, Note_on_c, 1, 72, 50
3, 59840, Note_on_c, 1, 72, 0
3, 59940, Note_on_c, 1, 72, 52
3, 59960, Note_on_c, 1, 72, 0
3, 60061, Note_on_c, 1, 72, 42
3, 60080, Note_on_c, 1, 72, 0
3, 60121, Note_on_c, 1, 69, 19
3, 60139, Note_on_c, 1, 69, 0
3, 60180, Note_on_c, 1, 67, 40
3, 60199, Note_on_c, 1, 67, 0
3, 60240, Note_on_c, 1, 72, 45
3, 60259, Note_on_c, 1, 72, 0
3, 60599, Note_on_c, 1, 62, 35
3, 60620, Note_on_c, 1, 62, 0
3, 60661, Note_on_c, 1, 64, 52
3, 60681, Note_on_c, 1, 64, 0
3, 60719, Note_on_c, 1, 67, 67
3, 60740, Note_on_c, 1, 67, 0
3, 60780, Note_on_c, 1, 67, 64
3, 60799, Note_on_c, 1, 67, 0
3, 60900, Note_on_c, 1, 67, 40
3, 60919, Note_on_c, 1, 67, 0
3, 61020, Note_on_c, 1, 67, 45
3, 61040, Note_on_c, 1, 67, 0
3, 61080, Note_on_c, 1, 64, 19
3, 61100, Note_on_c, 1, 64, 0
3, 61140, Note_on_c, 1, 62, 29
3, 61159, Note_on_c, 1, 62, 0
3, 61201, Note_on_c, 1, 67, 67
3, 61220, Note_on_c, 1, 67, 0
3, 61440, Note_on_c, 1, 69, 62
3, 61460, Note_on_c, 1, 69, 0
3, 61498, Pitch_bend_c, 1, 9452
3, 61502, Pitch_bend_c, 1, 11396
3, 61507, Pitch_bend_c, 1, 13928
3, 61516, Pitch_bend_c, 1, 15950
3, 61521, Pitch_bend_c, 1, 16383
3, 61547, Pitch_bend_c, 1, 16292
3, 61555, Pitch_bend_c, 1, 15530
3, 61560, Pitch_bend_c, 1, 13676
3, 61565, Pitch_bend_c, 1, 10466
3, 61572, Pitch_bend_c, 1, 8192
3, 61620, Note_on_c, 1, 67, 54
3, 61640, Note_on_c, 1, 67, 0
3, 61680, Note_on_c, 1, 69, 52
3, 61700, Note_on_c, 1, 69, 0
3, 61802, Note_on_c, 1, 67, 37
3, 61819, Note_on_c, 1, 67, 0
3, 62039, Note_on_c, 1, 62, 35
3, 62061, Note_on_c, 1, 62, 0
3, 62100, Note_on_c, 1, 64, 45
3, 62120, Note_on_c, 1, 64, 0
3, 62160, Note_on_c, 1, 67, 42
3, 62179, Note_on_c, 1, 67, 0
3, 62520, Note_on_c, 1, 62, 48
3, 62539, Note_on_c, 1, 62, 0
3, 62579, Note_on_c, 1, 64, 50
3, 62599, Note_on_c, 1, 64, 0
3, 62641, Note_on_c, 1, 67, 67
3, 62660, Note_on_c, 1, 67, 0
3, 62700, Note_on_c, 1, 67, 46
3, 62720, Note_on_c, 1, 67, 0
3, 62820, Note_on_c, 1, 67, 29
3, 62839, Note_on_c, 1, 67, 0
3, 62939, Note_on_c, 1, 67, 34
3, 62959, Note_on_c, 1, 67, 0
3, 63000, Note_on_c, 1, 64, 34
3, 63020, Note_on_c, 1, 64, 0
3, 63060, Note_on_c, 1, 62, 27
3, 63080, Note_on_c, 1, 62, 0
3, 63120, Note_on_c, 1, 67, 64
3, 63139, Note_on_c, 1, 67, 0
3, 63481, Note_on_c, 1, 62, 50
3, 63499, Note_on_c, 1, 62, 0
3, 63540, Note_on_c, 1, 64, 54
3, 63560, Note_on_c, 1, 64, 0
3, 63600, Note_on_c, 1, 67, 80
3, 63621, Note_on_c, 1, 67, 0
3, 63660, Note_on_c, 1, 67, 56
3, 63680, Note_on_c, 1, 67, 0
3, 63780, Note_on_c, 1, 67, 45
3, 63799, Note_on_c, 1, 67, 0
3, 63900, Note_on_c, 1, 67, 37
3, 63919, Note_on_c, 1, 67, 0
3, 63960, Note_on_c, 1, 64, 37
3, 63981, Note_on_c, 1, 64, 0
3, 64080, Note_on_c, 1, 67, 54
3, 64100, Note_on_c, 1, 67, 0
3, 64440, Note_on_c, 1, 62, 34
3, 64459, Note_on_c, 1, 62, 0
3, 64560, Note_on_c, 1, 67, 60
3, 64581, Note_on_c, 1, 67, 0
3, 64680, Note_on_c, 1, 67, 67
3, 64700, Note_on_c, 1, 67, 0
3, 64740, Note_on_c, 1, 67, 46
3, 64760, Note_on_c, 1, 67, 0
3, 64861, Note_on_c, 1, 67, 24
3, 64880, Note_on_c, 1, 67, 0
3, 64980, Note_on_c, 1, 62, 24
3, 65000, Note_on_c, 1, 62, 0
3, 65040, Note_on_c, 1, 67, 40
3, 65060, Note_on_c, 1, 67, 0
3, 65399, Note_on_c, 1, 62, 44
3, 65421, Note_on_c, 1, 62, 0
3, 65460, Note_on_c, 1, 64, 33
3, 65479, Note_on_c, 1, 64, 0
3, 65520, Note_on_c, 1, 67, 82
3, 65539, Note_on_c, 1, 67, 0
3, 65579, Note_on_c, 1, 67, 48
3, 65599, Note_on_c, 1, 67, 0
3, 65702, Note_on_c, 1, 67, 41
3, 65721, Note_on_c, 1, 67, 0
3, 65820, Note_on_c, 1, 67, 48
3, 65839, Note_on_c, 1, 67, 0
3, 65880, Note_on_c, 1, 64, 36
3, 65899, Note_on_c, 1, 64, 0
3, 65939, Note_on_c, 1, 62, 24
3, 65960, Note_on_c, 1, 62, 0
3, 66001, Note_on_c, 1, 67, 46
3, 66020, Note_on_c, 1, 67, 0
3, 66360, Note_on_c, 1, 67, 20
3, 66380, Note_on_c, 1, 67, 0
3, 66420, Note_on_c, 1, 69, 50
3, 66440, Note_on_c, 1, 69, 0
3, 66480, Note_on_c, 1, 72, 77
3, 66499, Note_on_c, 1, 72, 0
3, 66541, Note_on_c, 1, 72, 67
3, 66561, Note_on_c, 1, 72, 0
3, 66660, Note_on_c, 1, 72, 43
3, 66680, Note_on_c, 1, 72, 0
3, 66780, Note_on_c, 1, 72, 34
3, 66799, Note_on_c, 1, 72, 0
3, 66841, Note_on_c, 1, 69, 25
3, 66859, Note_on_c, 1, 69, 0
3, 66960, Note_on_c, 1, 72, 45
3, 66980, Note_on_c, 1, 72, 0
3, 67320, Note_on_c, 1, 67, 39
3, 67340, Note_on_c, 1, 67, 0
3, 67381, Note_on_c, 1, 69, 19
3, 67401, Note_on_c, 1, 69, 0
3, 67440, Note_on_c, 1, 72, 73
3, 67459, Note_on_c, 1, 72, 0
3, 67500, Note_on_c, 1, 72, 48
3, 67519, Note_on_c, 1, 72, 0
3, 67619, Note_on_c, 1, 72, 52
3, 67640, Note_on_c, 1, 72, 0
3, 67740, Note_on_c, 1, 72, 42
3, 67760, Note_on_c, 1, 72, 0
3, 67800, Note_on_c, 1, 69, 34
3, 67819, Note_on_c, 1, 69, 0
3, 67860, Note_on_c, 1, 67, 38
3, 67879, Note_on_c, 1, 67, 0
3, 67919, Note_on_c, 1, 72, 54
3, 67941, Note_on_c, 1, 72, 0
3, 68280, Note_on_c, 1, 62, 42
3, 68300, Note_on_c, 1, 62, 0
3, 68340, Note_on_c, 1, 64, 25
3, 68360, Note_on_c, 1, 64, 0
3, 68400, Note_on_c, 1, 67, 40
3, 68420, Note_on_c, 1, 67, 0
3, 68461, Note_on_c, 1, 67, 67
3, 68479, Note_on_c, 1, 67, 0
3, 68580, Note_on_c, 1, 67, 46
3, 68600, Note_on_c, 1, 67, 0
3, 68699, Note_on_c, 1, 67, 40
3, 68720, Note_on_c, 1, 67, 0
3, 68760, Note_on_c, 1, 64, 34
3, 68780, Note_on_c, 1, 64, 0
3, 68820, Note_on_c, 1, 62, 22
3, 68839, Note_on_c, 1, 62, 0
3, 68880, Note_on_c, 1, 67, 41
3, 68899, Note_on_c, 1, 67, 0
3, 69240, Note_on_c, 1, 62, 19
3, 69259, Note_on_c, 1, 62, 0
3, 69299, Note_on_c, 1, 64, 40
3, 69320, Note_on_c, 1, 64, 0
3, 69361, Note_on_c, 1, 67, 75
3, 69380, Note_on_c, 1, 67, 0
3, 69420, Note_on_c, 1, 67, 62
3, 69439, Note_on_c, 1, 67, 0
3, 69540, Note_on_c, 1, 67, 40
3, 69559, Note_on_c, 1, 67, 0
3, 69659, Note_on_c, 1, 67, 50
3, 69680, Note_on_c, 1, 67, 0
3, 69720, Note_on_c, 1, 64, 31
3, 69740, Note_on_c, 1, 64, 0
3, 69780, Note_on_c, 1, 62, 20
3, 69799, Note_on_c, 1, 62, 0
3, 69840, Note_on_c, 1, 67, 48
3, 69859, Note_on_c, 1, 67, 0
3, 70202, Note_on_c, 1, 69, 37
3, 70219, Note_on_c, 1, 69, 0
3, 70260, Note_on_c, 1, 71, 30
3, 70279, Note_on_c, 1, 71, 0
3, 70320, Note_on_c, 1, 74, 71
3, 70340, Note_on_c, 1, 74, 0
3, 70380, Note_on_c, 1, 74, 67
3, 70400, Note_on_c, 1, 74, 0
3, 70500, Note_on_c, 1, 74, 52
3, 70519, Note_on_c, 1, 74, 0
3, 70619, Note_on_c, 1, 74, 35
3, 70640, Note_on_c, 1, 74, 0
3, 70680, Note_on_c, 1, 71, 32
3, 70700, Note_on_c, 1, 71, 0
3, 70800, Note_on_c, 1, 74, 50
3, 70801, Note_on_c, 1, 69, 19
3, 70819, Note_on_c, 1, 69, 0
3, 70819, Note_on_c, 1, 74, 0
3, 71160, Note_on_c, 1, 67, 38
3, 71179, Note_on_c, 1, 67, 0
3, 71220, Note_on_c, 1, 69, 42
3, 71239, Note_on_c, 1, 69, 0
3, 71281, Note_on_c, 1, 72, 67
3, 71301, Note_on_c, 1, 72, 0
3, 71340, Note_on_c, 1, 72, 60
3, 71360, Note_on_c, 1, 72, 0
3, 71460, Note_on_c, 1, 72, 50
3, 71480, Note_on_c, 1, 72, 0
3, 71580, Note_on_c, 1, 72, 34
3, 71601, Note_on_c, 1, 72, 0
3, 71640, Note_on_c, 1, 69, 37
3, 71660, Note_on_c, 1, 69, 0
3, 71760, Note_on_c, 1, 72, 50
3, 71779, Note_on_c, 1, 72, 0
3, 72120, Note_on_c, 1, 62, 34
3, 72140, Note_on_c, 1, 62, 0
3, 72180, Note_on_c, 1, 64, 38
3, 72199, Note_on_c, 1, 64, 0
3, 72240, Note_on_c, 1, 67, 75
3, 72260, Note_on_c, 1, 67, 0
3, 72300, Note_on_c, 1, 67, 82
3, 72320, Note_on_c, 1, 67, 0
3, 72421, Note_on_c, 1, 67, 64
3, 72440, Note_on_c, 1, 67, 0
3, 72539, Note_on_c, 1, 67, 41
3, 72559, Note_on_c, 1, 67, 0
3, 72600, Note_on_c, 1, 64, 25
3, 72620, Note_on_c, 1, 64, 0
3, 72659, Note_on_c, 1, 62, 46
3, 72680, Note_on_c, 1, 62, 0
3, 72721, Note_on_c, 1, 67, 67
3, 72740, Note_on_c, 1, 67, 0
3, 73080, Note_on_c, 1, 62, 39
3, 73099, Note_on_c, 1, 62, 0
3, 73140, Note_on_c, 1, 64, 33
3, 73160, Note_on_c, 1, 64, 0
3, 73201, Note_on_c, 1, 67, 64
3, 73219, Note_on_c, 1, 67, 0
3, 73261, Note_on_c, 1, 67, 75
3, 73281, Note_on_c, 1, 67, 0
3, 73380, Note_on_c, 1, 67, 25
3, 73400, Note_on_c, 1, 67, 0
3, 73439, Note_on_c, 1, 69, 73
3, 73459, Note_on_c, 1, 69, 0
3, 73488, Pitch_bend_c, 1, 8528
3, 73492, Pitch_bend_c, 1, 12152
3, 73500, Pitch_bend_c, 1, 16376
3, 73505, Pitch_bend_c, 1, 16383
3, 73549, Pitch_bend_c, 1, 15530
3, 73554, Pitch_bend_c, 1, 13082
3, 73560, Pitch_bend_c, 1, 11396
3, 73568, Pitch_bend_c, 1, 9536
3, 73572, Pitch_bend_c, 1, 8192
3, 73679, Note_on_c, 1, 67, 58
3, 73699, Note_on_c, 1, 67, 0
3, 73799, Note_on_c, 1, 64, 52
3, 73821, Note_on_c, 1, 64, 0
3, 73860, Note_on_c, 1, 62, 32
3, 73861, Control_c, 1, 91, 0
3, 73880, Note_on_c, 1, 62, 0
3, 73880, End_track
4, 0, Start_track
4, 0, MIDI_port, 0
4, 0, Title_t, "C3-P34-Bass"
4, 0, Control_c, 2, 0, 56
4, 0, Control_c, 2, 32, 0
4, 0, Program_c, 2, 33
4, 0, Control_c, 2, 7, 101
4, 0, Control_c, 2, 10, 64
4, 239, Control_c, 2, 91, 54
4, 962, Note_on_c, 2, 31, 88
4, 1919, Note_on_c, 2, 31, 0
4, 1921, Note_on_c, 2, 30, 85
4, 2890, Note_on_c, 2, 30, 0
4, 2890, Note_on_c, 2, 29, 86
4, 3434, Pitch_bend_c, 2, 7100
4, 3442, Pitch_bend_c, 2, 2204
4, 3449, Pitch_bend_c, 2, 0
4, 3467, Note_on_c, 2, 45, 72
4, 3529, Pitch_bend_c, 2, 770
4, 3537, Pitch_bend_c, 2, 2876
4, 3545, Pitch_bend_c, 2, 6758
4, 3549, Pitch_bend_c, 2, 8192
4, 3574, Note_on_c, 2, 29, 0
4, 3587, Note_on_c, 2, 50, 75
4, 3594, Note_on_c, 2, 45, 0
4, 3710, Note_on_c, 2, 57, 69
4, 3712, Note_on_c, 2, 50, 0
4, 3835, Note_on_c, 2, 57, 0
4, 3839, Note_on_c, 2, 28, 86
4, 3839, Note_on_c, 2, 56, 68
4, 4803, Note_on_c, 2, 56, 0
4, 4805, Note_on_c, 2, 39, 84
4, 4809, Note_on_c, 2, 55, 62
4, 4817, Note_on_c, 2, 28, 0
4, 5724, Note_on_c, 2, 39, 0
4, 5732, Note_on_c, 2, 55, 0
4, 5746, Note_on_c, 2, 38, 85
4, 5747, Note_on_c, 2, 54, 62
4, 6644, Note_on_c, 2, 54, 0
4, 6662, Note_on_c, 2, 38, 0
4, 6719, Note_on_c, 2, 36, 82
4, 6822, Note_on_c, 2, 36, 0
4, 6905, Note_on_c, 2, 36, 84
4, 6987, Note_on_c, 2, 36, 0
4, 7078, Note_on_c, 2, 35, 83
4, 7644, Note_on_c, 2, 35, 0
4, 7687, Note_on_c, 2, 36, 86
4, 7782, Note_on_c, 2, 36, 0
4, 7857, Note_on_c, 2, 36, 83
4, 7920, Note_on_c, 2, 36, 0
4, 8022, Note_on_c, 2, 31, 84
4, 8446, Note_on_c, 2, 31, 0
4, 8514, Note_on_c, 2, 31, 103
4, 8569, Pitch_bend_c, 2, 9200
4, 8574, Pitch_bend_c, 2, 10976
4, 8580, Pitch_bend_c, 2, 12662
4, 8584, Pitch_bend_c, 2, 14348
4, 8590, Pitch_bend_c, 2, 15950
4, 8592, Pitch_bend_c, 2, 16383
4, 8634, Note_on_c, 2, 31, 0
4, 8640, Note_on_c, 2, 34, 110
4, 8728, Note_on_c, 2, 34, 0
4, 8824, Note_on_c, 2, 34, 117
4, 8897, Note_on_c, 2, 34, 0
4, 8929, Pitch_bend_c, 2, 14858
4, 8934, Pitch_bend_c, 2, 10214
4, 8941, Pitch_bend_c, 2, 8192
4, 8996, Note_on_c, 2, 31, 103
4, 9210, Note_on_c, 2, 31, 0
4, 9285, Note_on_c, 2, 31, 74
4, 9332, Note_on_c, 2, 31, 0
4, 9339, Note_on_c, 2, 33, 99
4, 9392, Pitch_bend_c, 2, 8444
4, 9397, Pitch_bend_c, 2, 10382
4, 9402, Pitch_bend_c, 2, 12998
4, 9407, Pitch_bend_c, 2, 15278
4, 9410, Pitch_bend_c, 2, 16383
4, 9470, Note_on_c, 2, 33, 0
4, 9475, Note_on_c, 2, 36, 99
4, 9520, Note_on_c, 2, 36, 0
4, 9561, Pitch_bend_c, 2, 12998
4, 9566, Pitch_bend_c, 2, 8192
4, 9600, Note_on_c, 2, 36, 110
4, 9684, Note_on_c, 2, 36, 0
4, 9787, Note_on_c, 2, 36, 99
4, 9884, Note_on_c, 2, 36, 0
4, 9910, Note_on_c, 2, 38, 76
4, 9927, Note_on_c, 2, 38, 0
4, 9965, Note_on_c, 2, 31, 95
4, 10103, Note_on_c, 2, 31, 0
4, 10132, Note_on_c, 2, 31, 92
4, 10165, Note_on_c, 2, 31, 0
4, 10194, Note_on_c, 2, 43, 90
4, 10234, Note_on_c, 2, 43, 0
4, 10254, Note_on_c, 2, 31, 76
4, 10302, Note_on_c, 2, 31, 0
4, 10309, Note_on_c, 2, 33, 105
4, 10362, Pitch_bend_c, 2, 9368
4, 10367, Pitch_bend_c, 2, 11480
4, 10370, Pitch_bend_c, 2, 14858
4, 10375, Pitch_bend_c, 2, 16383
4, 10428, Note_on_c, 2, 33, 0
4, 10435, Note_on_c, 2, 36, 103
4, 10482, Note_on_c, 2, 36, 0
4, 10509, Pitch_bend_c, 2, 14348
4, 10514, Pitch_bend_c, 2, 10466
4, 10520, Pitch_bend_c, 2, 8192
4, 10562, Note_on_c, 2, 36, 108
4, 10642, Note_on_c, 2, 36, 0
4, 10743, Note_on_c, 2, 36, 115
4, 10812, Note_on_c, 2, 36, 0
4, 10859, Note_on_c, 2, 38, 97
4, 10887, Note_on_c, 2, 38, 0
4, 10919, Note_on_c, 2, 31, 108
4, 11064, Note_on_c, 2, 31, 0
4, 11104, Note_on_c, 2, 31, 80
4, 11135, Note_on_c, 2, 31, 0
4, 11155, Note_on_c, 2, 43, 73
4, 11200, Note_on_c, 2, 43, 0
4, 11214, Note_on_c, 2, 31, 99
4, 11269, Note_on_c, 2, 33, 112
4, 11270, Note_on_c, 2, 31, 0
4, 11330, Pitch_bend_c, 2, 9626
4, 11335, Pitch_bend_c, 2, 12746
4, 11340, Pitch_bend_c, 2, 16383
4, 11392, Note_on_c, 2, 33, 0
4, 11397, Note_on_c, 2, 36, 105
4, 11452, Note_on_c, 2, 36, 0
4, 11474, Pitch_bend_c, 2, 12914
4, 11480, Pitch_bend_c, 2, 8192
4, 11515, Note_on_c, 2, 36, 112
4, 11602, Note_on_c, 2, 36, 0
4, 11702, Note_on_c, 2, 36, 110
4, 11745, Note_on_c, 2, 36, 0
4, 11824, Note_on_c, 2, 38, 70
4, 11847, Note_on_c, 2, 38, 0
4, 11882, Note_on_c, 2, 31, 97
4, 12019, Note_on_c, 2, 31, 0
4, 12068, Note_on_c, 2, 31, 95
4, 12102, Note_on_c, 2, 31, 0
4, 12122, Note_on_c, 2, 43, 78
4, 12169, Note_on_c, 2, 43, 0
4, 12174, Note_on_c, 2, 31, 95
4, 12222, Note_on_c, 2, 31, 0
4, 12232, Note_on_c, 2, 33, 108
4, 12292, Pitch_bend_c, 2, 11312
4, 12297, Pitch_bend_c, 2, 15782
4, 12302, Pitch_bend_c, 2, 16383
4, 12356, Note_on_c, 2, 36, 108
4, 12358, Note_on_c, 2, 33, 0
4, 12405, Note_on_c, 2, 36, 0
4, 12432, Pitch_bend_c, 2, 16124
4, 12437, Pitch_bend_c, 2, 12152
4, 12442, Pitch_bend_c, 2, 8612
4, 12447, Pitch_bend_c, 2, 8192
4, 12477, Note_on_c, 2, 41, 112
4, 12544, Note_on_c, 2, 41, 0
4, 12661, Note_on_c, 2, 41, 115
4, 12715, Note_on_c, 2, 41, 0
4, 12784, Note_on_c, 2, 43, 82
4, 12810, Note_on_c, 2, 43, 0
4, 12837, Note_on_c, 2, 36, 97
4, 12989, Note_on_c, 2, 36, 0
4, 13020, Note_on_c, 2, 36, 92
4, 13057, Note_on_c, 2, 48, 86
4, 13065, Note_on_c, 2, 36, 0
4, 13115, Note_on_c, 2, 48, 0
4, 13137, Note_on_c, 2, 36, 97
4, 13195, Note_on_c, 2, 38, 99
4, 13203, Note_on_c, 2, 36, 0
4, 13225, Pitch_bend_c, 2, 8696
4, 13232, Pitch_bend_c, 2, 9452
4, 13234, Pitch_bend_c, 2, 10466
4, 13239, Pitch_bend_c, 2, 12152
4, 13244, Pitch_bend_c, 2, 14180
4, 13247, Pitch_bend_c, 2, 16383
4, 13252, Pitch_bend_c, 2, 16383
4, 13304, Note_on_c, 2, 38, 0
4, 13320, Note_on_c, 2, 41, 95
4, 13372, Note_on_c, 2, 41, 0
4, 13397, Pitch_bend_c, 2, 13166
4, 13402, Pitch_bend_c, 2, 8192
4, 13437, Note_on_c, 2, 41, 110
4, 13497, Note_on_c, 2, 41, 0
4, 13622, Note_on_c, 2, 41, 103
4, 13677, Note_on_c, 2, 41, 0
4, 13749, Note_on_c, 2, 43, 66
4, 13769, Note_on_c, 2, 43, 0
4, 13802, Note_on_c, 2, 36, 105
4, 13937, Note_on_c, 2, 36, 0
4, 13983, Note_on_c, 2, 36, 92
4, 14027, Note_on_c, 2, 36, 0
4, 14027, Note_on_c, 2, 48, 56
4, 14092, Note_on_c, 2, 48, 0
4, 14100, Note_on_c, 2, 36, 99
4, 14157, Note_on_c, 2, 38, 112
4, 14169, Note_on_c, 2, 36, 0
4, 14204, Pitch_bend_c, 2, 8948
4, 14207, Pitch_bend_c, 2, 10886
4, 14212, Pitch_bend_c, 2, 13844
4, 14217, Pitch_bend_c, 2, 16383
4, 14278, Note_on_c, 2, 38, 0
4, 14287, Note_on_c, 2, 41, 112
4, 14331, Note_on_c, 2, 41, 0
4, 14362, Pitch_bend_c, 2, 13082
4, 14367, Pitch_bend_c, 2, 8360
4, 14372, Pitch_bend_c, 2, 8192
4, 14405, Note_on_c, 2, 36, 108
4, 14464, Note_on_c, 2, 36, 0
4, 14582, Note_on_c, 2, 36, 112
4, 14624, Note_on_c, 2, 36, 0
4, 14701, Note_on_c, 2, 38, 70
4, 14725, Note_on_c, 2, 38, 0
4, 14752, Note_on_c, 2, 31, 110
4, 14922, Note_on_c, 2, 31, 0
4, 14950, Note_on_c, 2, 31, 101
4, 14997, Note_on_c, 2, 43, 86
4, 15002, Note_on_c, 2, 31, 0
4, 15045, Note_on_c, 2, 43, 0
4, 15065, Note_on_c, 2, 31, 92
4, 15124, Note_on_c, 2, 33, 112
4, 15134, Note_on_c, 2, 31, 0
4, 15155, Pitch_bend_c, 2, 8780
4, 15160, Pitch_bend_c, 2, 9200
4, 15164, Pitch_bend_c, 2, 9626
4, 15167, Pitch_bend_c, 2, 10046
4, 15172, Pitch_bend_c, 2, 10634
4, 15177, Pitch_bend_c, 2, 11648
4, 15182, Pitch_bend_c, 2, 13418
4, 15184, Pitch_bend_c, 2, 16034
4, 15189, Pitch_bend_c, 2, 16383
4, 15232, Note_on_c, 2, 33, 0
4, 15250, Note_on_c, 2, 36, 99
4, 15294, Note_on_c, 2, 36, 0
4, 15317, Pitch_bend_c, 2, 16124
4, 15321, Pitch_bend_c, 2, 12746
4, 15324, Pitch_bend_c, 2, 9536
4, 15329, Pitch_bend_c, 2, 8192
4, 15365, Note_on_c, 2, 36, 108
4, 15418, Note_on_c, 2, 36, 0
4, 15542, Note_on_c, 2, 36, 112
4, 15594, Note_on_c, 2, 36, 0
4, 15669, Note_on_c, 2, 38, 57
4, 15689, Note_on_c, 2, 38, 0
4, 15725, Note_on_c, 2, 31, 105
4, 15867, Note_on_c, 2, 31, 0
4, 15912, Note_on_c, 2, 31, 92
4, 15953, Note_on_c, 2, 43, 58
4, 15962, Note_on_c, 2, 31, 0
4, 16012, Note_on_c, 2, 43, 0
4, 16021, Note_on_c, 2, 31, 88
4, 16070, Note_on_c, 2, 33, 105
4, 16080, Note_on_c, 2, 31, 0
4, 16122, Pitch_bend_c, 2, 8528
4, 16127, Pitch_bend_c, 2, 11312
4, 16132, Pitch_bend_c, 2, 15362
4, 16137, Pitch_bend_c, 2, 16383
4, 16187, Note_on_c, 2, 36, 101
4, 16198, Note_on_c, 2, 33, 0
4, 16239, Note_on_c, 2, 36, 0
4, 16289, Pitch_bend_c, 2, 13250
4, 16294, Pitch_bend_c, 2, 8948
4, 16300, Pitch_bend_c, 2, 8192
4, 16312, Note_on_c, 2, 43, 110
4, 16399, Note_on_c, 2, 43, 0
4, 16504, Note_on_c, 2, 43, 112
4, 16594, Note_on_c, 2, 43, 0
4, 16622, Note_on_c, 2, 45, 92
4, 16657, Note_on_c, 2, 45, 0
4, 16682, Note_on_c, 2, 38, 108
4, 16852, Note_on_c, 2, 38, 0
4, 16892, Note_on_c, 2, 38, 84
4, 16927, Note_on_c, 2, 50, 100
4, 16944, Note_on_c, 2, 38, 0
4, 16982, Note_on_c, 2, 50, 0
4, 16994, Note_on_c, 2, 38, 92
4, 17050, Note_on_c, 2, 40, 95
4, 17063, Note_on_c, 2, 38, 0
4, 17087, Pitch_bend_c, 2, 8780
4, 17092, Pitch_bend_c, 2, 9962
4, 17094, Pitch_bend_c, 2, 11732
4, 17099, Pitch_bend_c, 2, 14180
4, 17104, Pitch_bend_c, 2, 16383
4, 17162, Note_on_c, 2, 43, 99
4, 17164, Note_on_c, 2, 40, 0
4, 17217, Note_on_c, 2, 43, 0
4, 17244, Pitch_bend_c, 2, 15782
4, 17249, Pitch_bend_c, 2, 11984
4, 17254, Pitch_bend_c, 2, 9368
4, 17259, Pitch_bend_c, 2, 8192
4, 17290, Note_on_c, 2, 41, 110
4, 17364, Note_on_c, 2, 41, 0
4, 17462, Note_on_c, 2, 41, 110
4, 17514, Note_on_c, 2, 41, 0
4, 17581, Note_on_c, 2, 43, 68
4, 17607, Note_on_c, 2, 43, 0
4, 17636, Note_on_c, 2, 36, 101
4, 17790, Note_on_c, 2, 36, 0
4, 17827, Note_on_c, 2, 36, 92
4, 17852, Note_on_c, 2, 48, 76
4, 17882, Note_on_c, 2, 36, 0
4, 17913, Note_on_c, 2, 48, 0
4, 17942, Note_on_c, 2, 36, 103
4, 18002, Note_on_c, 2, 38, 108
4, 18015, Note_on_c, 2, 36, 0
4, 18052, Pitch_bend_c, 2, 10802
4, 18057, Pitch_bend_c, 2, 14774
4, 18062, Pitch_bend_c, 2, 16383
4, 18117, Note_on_c, 2, 38, 0
4, 18119, Note_on_c, 2, 41, 74
4, 18160, Note_on_c, 2, 41, 0
4, 18181, Note_on_c, 2, 41, 74
4, 18211, Pitch_bend_c, 2, 15110
4, 18215, Pitch_bend_c, 2, 11900
4, 18219, Note_on_c, 2, 41, 0
4, 18219, Pitch_bend_c, 2, 8948
4, 18224, Pitch_bend_c, 2, 8192
4, 18240, Note_on_c, 2, 45, 115
4, 18347, Note_on_c, 2, 45, 0
4, 18367, Note_on_c, 2, 43, 90
4, 18410, Note_on_c, 2, 43, 0
4, 18417, Note_on_c, 2, 38, 97
4, 18468, Pitch_bend_c, 2, 10466
4, 18473, Pitch_bend_c, 2, 15782
4, 18475, Pitch_bend_c, 2, 16383
4, 18519, Note_on_c, 2, 38, 0
4, 18542, Note_on_c, 2, 38, 110
4, 18597, Pitch_bend_c, 2, 9626
4, 18606, Pitch_bend_c, 2, 8192
4, 18705, Note_on_c, 2, 38, 0
4, 18715, Note_on_c, 2, 31, 101
4, 18807, Note_on_c, 2, 31, 0
4, 18834, Note_on_c, 2, 31, 115
4, 19200, Note_on_c, 2, 31, 0
4, 19313, Note_on_c, 2, 43, 99
4, 19347, Note_on_c, 2, 43, 0
4, 19388, Note_on_c, 2, 43, 112
4, 19417, Pitch_bend_c, 2, 10634
4, 19422, Pitch_bend_c, 2, 14942
4, 19425, Pitch_bend_c, 2, 16383
4, 19515, Note_on_c, 2, 43, 0
4, 19559, Note_on_c, 2, 43, 78
4, 19567, Pitch_bend_c, 2, 11816
4, 19572, Pitch_bend_c, 2, 8864
4, 19577, Pitch_bend_c, 2, 8192
4, 19622, Note_on_c, 2, 38, 101
4, 19625, Note_on_c, 2, 43, 0
4, 19659, Pitch_bend_c, 2, 10130
4, 19665, Pitch_bend_c, 2, 14264
4, 19670, Pitch_bend_c, 2, 16383
4, 19717, Note_on_c, 2, 38, 0
4, 19744, Note_on_c, 2, 38, 110
4, 19808, Pitch_bend_c, 2, 11564
4, 19812, Pitch_bend_c, 2, 8192
4, 19904, Note_on_c, 2, 38, 0
4, 19921, Note_on_c, 2, 31, 97
4, 20037, Note_on_c, 2, 31, 0
4, 20040, Note_on_c, 2, 35, 115
4, 20143, Note_on_c, 2, 35, 0
4, 20161, Note_on_c, 2, 36, 101
4, 20242, Note_on_c, 2, 36, 0
4, 20342, Note_on_c, 2, 36, 97
4, 20402, Note_on_c, 2, 36, 0
4, 20460, Note_on_c, 2, 38, 78
4, 20490, Note_on_c, 2, 38, 0
4, 20512, Note_on_c, 2, 31, 99
4, 20674, Note_on_c, 2, 31, 0
4, 20706, Note_on_c, 2, 31, 90
4, 20760, Note_on_c, 2, 31, 0
4, 20764, Note_on_c, 2, 43, 86
4, 20814, Note_on_c, 2, 43, 0
4, 20822, Note_on_c, 2, 31, 86
4, 20870, Note_on_c, 2, 31, 0
4, 20877, Note_on_c, 2, 33, 95
4, 20932, Pitch_bend_c, 2, 8612
4, 20937, Pitch_bend_c, 2, 10298
4, 20942, Pitch_bend_c, 2, 12578
4, 20947, Pitch_bend_c, 2, 14942
4, 20952, Pitch_bend_c, 2, 16383
4, 20993, Note_on_c, 2, 33, 0
4, 20999, Note_on_c, 2, 36, 92
4, 21057, Note_on_c, 2, 36, 0
4, 21082, Pitch_bend_c, 2, 15362
4, 21087, Pitch_bend_c, 2, 12494
4, 21090, Pitch_bend_c, 2, 10046
4, 21095, Pitch_bend_c, 2, 8192
4, 21124, Note_on_c, 2, 36, 101
4, 21195, Note_on_c, 2, 36, 0
4, 21307, Note_on_c, 2, 36, 99
4, 21355, Note_on_c, 2, 36, 0
4, 21429, Note_on_c, 2, 38, 80
4, 21455, Note_on_c, 2, 38, 0
4, 21484, Note_on_c, 2, 31, 101
4, 21627, Note_on_c, 2, 31, 0
4, 21662, Note_on_c, 2, 31, 95
4, 21697, Note_on_c, 2, 31, 0
4, 21729, Note_on_c, 2, 43, 44
4, 21777, Note_on_c, 2, 31, 92
4, 21787, Note_on_c, 2, 43, 0
4, 21823, Note_on_c, 2, 31, 0
4, 21838, Note_on_c, 2, 33, 112
4, 21889, Pitch_bend_c, 2, 10298
4, 21894, Pitch_bend_c, 2, 13592
4, 21897, Pitch_bend_c, 2, 16383
4, 21957, Note_on_c, 2, 33, 0
4, 21962, Note_on_c, 2, 36, 101
4, 22015, Note_on_c, 2, 36, 0
4, 22042, Pitch_bend_c, 2, 14858
4, 22047, Pitch_bend_c, 2, 12326
4, 22052, Pitch_bend_c, 2, 9962
4, 22057, Pitch_bend_c, 2, 8444
4, 22062, Pitch_bend_c, 2, 8192
4, 22078, Note_on_c, 2, 36, 99
4, 22130, Note_on_c, 2, 36, 0
4, 22261, Note_on_c, 2, 36, 99
4, 22292, Note_on_c, 2, 36, 0
4, 22386, Note_on_c, 2, 38, 58
4, 22407, Note_on_c, 2, 38, 0
4, 22442, Note_on_c, 2, 31, 112
4, 22602, Note_on_c, 2, 31, 0
4, 22622, Note_on_c, 2, 31, 95
4, 22661, Note_on_c, 2, 31, 0
4, 22682, Note_on_c, 2, 43, 88
4, 22727, Note_on_c, 2, 43, 0
4, 22740, Note_on_c, 2, 31, 97
4, 22784, Note_on_c, 2, 31, 0
4, 22791, Note_on_c, 2, 33, 103
4, 22832, Pitch_bend_c, 2, 8948
4, 22837, Pitch_bend_c, 2, 10634
4, 22839, Pitch_bend_c, 2, 13082
4, 22844, Pitch_bend_c, 2, 15866
4, 22849, Pitch_bend_c, 2, 16383
4, 22913, Note_on_c, 2, 33, 0
4, 22917, Note_on_c, 2, 36, 105
4, 22959, Note_on_c, 2, 36, 0
4, 22997, Pitch_bend_c, 2, 13676
4, 23002, Pitch_bend_c, 2, 9710
4, 23007, Pitch_bend_c, 2, 8192
4, 23042, Note_on_c, 2, 36, 105
4, 23085, Note_on_c, 2, 36, 0
4, 23228, Note_on_c, 2, 36, 103
4, 23277, Note_on_c, 2, 36, 0
4, 23354, Note_on_c, 2, 38, 78
4, 23374, Note_on_c, 2, 38, 0
4, 23408, Note_on_c, 2, 31, 110
4, 23540, Note_on_c, 2, 31, 0
4, 23582, Note_on_c, 2, 31, 88
4, 23624, Note_on_c, 2, 31, 0
4, 23667, Note_on_c, 2, 43, 52
4, 23690, Note_on_c, 2, 43, 0
4, 23700, Note_on_c, 2, 31, 99
4, 23752, Note_on_c, 2, 31, 0
4, 23753, Note_on_c, 2, 33, 92
4, 23802, Pitch_bend_c, 2, 9710
4, 23805, Pitch_bend_c, 2, 12494
4, 23809, Pitch_bend_c, 2, 16208
4, 23814, Pitch_bend_c, 2, 16383
4, 23869, Note_on_c, 2, 36, 105
4, 23877, Note_on_c, 2, 33, 0
4, 23914, Note_on_c, 2, 36, 0
4, 23967, Pitch_bend_c, 2, 14516
4, 23972, Pitch_bend_c, 2, 10718
4, 23977, Pitch_bend_c, 2, 8192
4, 23995, Note_on_c, 2, 41, 112
4, 24037, Note_on_c, 2, 41, 0
4, 24174, Note_on_c, 2, 41, 101
4, 24222, Note_on_c, 2, 41, 0
4, 24301, Note_on_c, 2, 43, 71
4, 24320, Note_on_c, 2, 43, 0
4, 24359, Note_on_c, 2, 36, 110
4, 24507, Note_on_c, 2, 36, 0
4, 24547, Note_on_c, 2, 36, 69
4, 24601, Note_on_c, 2, 36, 0
4, 24602, Note_on_c, 2, 48, 92
4, 24642, Note_on_c, 2, 48, 0
4, 24657, Note_on_c, 2, 36, 99
4, 24712, Note_on_c, 2, 38, 97
4, 24729, Note_on_c, 2, 36, 0
4, 24764, Pitch_bend_c, 2, 9032
4, 24769, Pitch_bend_c, 2, 12746
4, 24774, Pitch_bend_c, 2, 16383
4, 24837, Note_on_c, 2, 41, 105
4, 24839, Note_on_c, 2, 38, 0
4, 24889, Note_on_c, 2, 41, 0
4, 24916, Pitch_bend_c, 2, 15782
4, 24919, Pitch_bend_c, 2, 12152
4, 24922, Pitch_bend_c, 2, 9032
4, 24927, Pitch_bend_c, 2, 8192
4, 24955, Note_on_c, 2, 41, 108
4, 25005, Note_on_c, 2, 41, 0
4, 25137, Note_on_c, 2, 41, 110
4, 25185, Note_on_c, 2, 41, 0
4, 25260, Note_on_c, 2, 43, 84
4, 25282, Note_on_c, 2, 43, 0
4, 25317, Note_on_c, 2, 36, 105
4, 25479, Note_on_c, 2, 36, 0
4, 25507, Note_on_c, 2, 36, 90
4, 25552, Note_on_c, 2, 36, 0
4, 25562, Note_on_c, 2, 48, 64
4, 25617, Note_on_c, 2, 48, 0
4, 25627, Note_on_c, 2, 36, 101
4, 25682, Note_on_c, 2, 38, 101
4, 25700, Note_on_c, 2, 36, 0
4, 25732, Pitch_bend_c, 2, 9962
4, 25734, Pitch_bend_c, 2, 12998
4, 25741, Pitch_bend_c, 2, 16383
4, 25745, Pitch_bend_c, 2, 16383
4, 25800, Note_on_c, 2, 41, 103
4, 25804, Note_on_c, 2, 38, 0
4, 25847, Note_on_c, 2, 41, 0
4, 25880, Pitch_bend_c, 2, 16208
4, 25884, Pitch_bend_c, 2, 14096
4, 25889, Pitch_bend_c, 2, 11900
4, 25894, Pitch_bend_c, 2, 10214
4, 25899, Pitch_bend_c, 2, 9284
4, 25902, Pitch_bend_c, 2, 8444
4, 25907, Pitch_bend_c, 2, 8192
4, 25924, Note_on_c, 2, 36, 99
4, 25975, Note_on_c, 2, 36, 0
4, 26091, Note_on_c, 2, 36, 99
4, 26120, Note_on_c, 2, 36, 0
4, 26217, Note_on_c, 2, 38, 78
4, 26237, Note_on_c, 2, 38, 0
4, 26277, Note_on_c, 2, 31, 82
4, 26427, Note_on_c, 2, 31, 0
4, 26464, Note_on_c, 2, 31, 92
4, 26504, Note_on_c, 2, 31, 0
4, 26532, Note_on_c, 2, 43, 84
4, 26583, Note_on_c, 2, 31, 108
4, 26584, Note_on_c, 2, 43, 0
4, 26632, Note_on_c, 2, 31, 0
4, 26635, Note_on_c, 2, 33, 112
4, 26675, Pitch_bend_c, 2, 8270
4, 26680, Pitch_bend_c, 2, 9962
4, 26685, Pitch_bend_c, 2, 12746
4, 26690, Pitch_bend_c, 2, 16124
4, 26692, Pitch_bend_c, 2, 16383
4, 26755, Note_on_c, 2, 36, 112
4, 26757, Note_on_c, 2, 33, 0
4, 26800, Note_on_c, 2, 36, 0
4, 26832, Pitch_bend_c, 2, 15362
4, 26837, Pitch_bend_c, 2, 12152
4, 26842, Pitch_bend_c, 2, 10046
4, 26845, Pitch_bend_c, 2, 8528
4, 26850, Pitch_bend_c, 2, 8192
4, 26880, Note_on_c, 2, 36, 108
4, 26962, Note_on_c, 2, 36, 0
4, 27060, Note_on_c, 2, 36, 105
4, 27100, Note_on_c, 2, 36, 0
4, 27184, Note_on_c, 2, 38, 80
4, 27207, Note_on_c, 2, 38, 0
4, 27237, Note_on_c, 2, 31, 101
4, 27392, Note_on_c, 2, 31, 0
4, 27425, Note_on_c, 2, 31, 82
4, 27464, Note_on_c, 2, 43, 54
4, 27472, Note_on_c, 2, 31, 0
4, 27524, Note_on_c, 2, 43, 0
4, 27541, Note_on_c, 2, 31, 95
4, 27590, Note_on_c, 2, 33, 99
4, 27594, Note_on_c, 2, 31, 0
4, 27644, Pitch_bend_c, 2, 8780
4, 27650, Pitch_bend_c, 2, 9962
4, 27655, Pitch_bend_c, 2, 11648
4, 27660, Pitch_bend_c, 2, 13592
4, 27664, Pitch_bend_c, 2, 15866
4, 27667, Pitch_bend_c, 2, 16383
4, 27711, Note_on_c, 2, 36, 92
4, 27714, Note_on_c, 2, 33, 0
4, 27757, Note_on_c, 2, 36, 0
4, 27807, Pitch_bend_c, 2, 13508
4, 27812, Pitch_bend_c, 2, 9878
4, 27817, Pitch_bend_c, 2, 8192
4, 27829, Note_on_c, 2, 43, 101
4, 27920, Note_on_c, 2, 43, 0
4, 28015, Note_on_c, 2, 43, 112
4, 28082, Note_on_c, 2, 43, 0
4, 28142, Note_on_c, 2, 45, 80
4, 28167, Note_on_c, 2, 45, 0
4, 28202, Note_on_c, 2, 38, 110
4, 28344, Note_on_c, 2, 38, 0
4, 28389, Note_on_c, 2, 38, 90
4, 28437, Note_on_c, 2, 38, 0
4, 28449, Note_on_c, 2, 50, 108
4, 28504, Note_on_c, 2, 38, 92
4, 28507, Note_on_c, 2, 50, 0
4, 28556, Note_on_c, 2, 38, 0
4, 28558, Note_on_c, 2, 41, 105
4, 28594, Pitch_bend_c, 2, 8612
4, 28600, Pitch_bend_c, 2, 9794
4, 28604, Pitch_bend_c, 2, 11564
4, 28607, Pitch_bend_c, 2, 13676
4, 28612, Pitch_bend_c, 2, 15362
4, 28617, Pitch_bend_c, 2, 16383
4, 28675, Note_on_c, 2, 43, 92
4, 28677, Note_on_c, 2, 41, 0
4, 28717, Note_on_c, 2, 43, 0
4, 28765, Pitch_bend_c, 2, 15362
4, 28770, Pitch_bend_c, 2, 13250
4, 28775, Pitch_bend_c, 2, 10382
4, 28780, Pitch_bend_c, 2, 8192
4, 28806, Note_on_c, 2, 41, 95
4, 28887, Note_on_c, 2, 41, 0
4, 28977, Note_on_c, 2, 41, 110
4, 29052, Note_on_c, 2, 41, 0
4, 29106, Note_on_c, 2, 40, 88
4, 29125, Note_on_c, 2, 40, 0
4, 29154, Note_on_c, 2, 36, 97
4, 29293, Note_on_c, 2, 36, 0
4, 29335, Note_on_c, 2, 36, 92
4, 29381, Note_on_c, 2, 36, 0
4, 29391, Note_on_c, 2, 48, 95
4, 29454, Note_on_c, 2, 36, 99
4, 29469, Note_on_c, 2, 48, 0
4, 29504, Note_on_c, 2, 36, 0
4, 29512, Note_on_c, 2, 38, 101
4, 29535, Pitch_bend_c, 2, 8360
4, 29540, Pitch_bend_c, 2, 8864
4, 29544, Pitch_bend_c, 2, 9368
4, 29549, Pitch_bend_c, 2, 9962
4, 29554, Pitch_bend_c, 2, 10802
4, 29557, Pitch_bend_c, 2, 11816
4, 29562, Pitch_bend_c, 2, 13166
4, 29567, Pitch_bend_c, 2, 14774
4, 29572, Pitch_bend_c, 2, 15866
4, 29577, Pitch_bend_c, 2, 16383
4, 29622, Note_on_c, 2, 38, 0
4, 29632, Note_on_c, 2, 41, 101
4, 29680, Note_on_c, 2, 41, 0
4, 29700, Note_on_c, 2, 41, 74
4, 29712, Pitch_bend_c, 2, 14096
4, 29717, Pitch_bend_c, 2, 10382
4, 29722, Pitch_bend_c, 2, 8192
4, 29740, Note_on_c, 2, 41, 0
4, 29760, Note_on_c, 2, 45, 115
4, 29867, Note_on_c, 2, 45, 0
4, 29888, Note_on_c, 2, 43, 90
4, 29931, Note_on_c, 2, 43, 0
4, 29938, Note_on_c, 2, 38, 97
4, 29987, Pitch_bend_c, 2, 10466
4, 29992, Pitch_bend_c, 2, 15782
4, 29996, Pitch_bend_c, 2, 16383
4, 30040, Note_on_c, 2, 38, 0
4, 30062, Note_on_c, 2, 38, 110
4, 30117, Pitch_bend_c, 2, 9626
4, 30124, Pitch_bend_c, 2, 8192
4, 30226, Note_on_c, 2, 38, 0
4, 30236, Note_on_c, 2, 31, 101
4, 30327, Note_on_c, 2, 31, 0
4, 30355, Note_on_c, 2, 31, 115
4, 30721, Note_on_c, 2, 31, 0
4, 30832, Note_on_c, 2, 43, 99
4, 30867, Note_on_c, 2, 43, 0
4, 30908, Note_on_c, 2, 43, 112
4, 30937, Pitch_bend_c, 2, 10634
4, 30942, Pitch_bend_c, 2, 14942
4, 30944, Pitch_bend_c, 2, 16383
4, 31034, Note_on_c, 2, 43, 0
4, 31078, Note_on_c, 2, 43, 78
4, 31087, Pitch_bend_c, 2, 11816
4, 31092, Pitch_bend_c, 2, 8864
4, 31097, Pitch_bend_c, 2, 8192
4, 31142, Note_on_c, 2, 38, 101
4, 31144, Note_on_c, 2, 43, 0
4, 31179, Pitch_bend_c, 2, 10130
4, 31184, Pitch_bend_c, 2, 14264
4, 31190, Pitch_bend_c, 2, 16383
4, 31237, Note_on_c, 2, 38, 0
4, 31265, Note_on_c, 2, 38, 110
4, 31328, Pitch_bend_c, 2, 11564
4, 31332, Pitch_bend_c, 2, 8192
4, 31424, Note_on_c, 2, 38, 0
4, 31440, Note_on_c, 2, 31, 97
4, 31557, Note_on_c, 2, 31, 0
4, 31561, Note_on_c, 2, 35, 115
4, 31662, Note_on_c, 2, 35, 0
4, 31683, Note_on_c, 2, 36, 101
4, 31799, Note_on_c, 2, 48, 78
4, 31800, Note_on_c, 2, 36, 0
4, 31837, Note_on_c, 2, 48, 0
4, 31911, Note_on_c, 2, 36, 88
4, 31937, Note_on_c, 2, 36, 0
4, 31972, Note_on_c, 2, 36, 92
4, 32014, Note_on_c, 2, 36, 0
4, 32030, Note_on_c, 2, 48, 95
4, 32100, Note_on_c, 2, 33, 74
4, 32120, Note_on_c, 2, 33, 0
4, 32139, Note_on_c, 2, 48, 0
4, 32152, Note_on_c, 2, 35, 78
4, 32265, Note_on_c, 2, 35, 0
4, 32270, Note_on_c, 2, 47, 66
4, 32297, Note_on_c, 2, 47, 0
4, 32332, Note_on_c, 2, 35, 84
4, 32375, Note_on_c, 2, 35, 0
4, 32399, Note_on_c, 2, 47, 74
4, 32520, Note_on_c, 2, 33, 74
4, 32521, Note_on_c, 2, 47, 0
4, 32559, Note_on_c, 2, 33, 0
4, 32580, Note_on_c, 2, 35, 74
4, 32592, Pitch_bend_c, 2, 8192
4, 32597, Pitch_bend_c, 2, 6338
4, 32602, Pitch_bend_c, 2, 4652
4, 32607, Pitch_bend_c, 2, 2288
4, 32609, Pitch_bend_c, 2, 0
4, 32619, Note_on_c, 2, 35, 0
4, 32643, Note_on_c, 2, 35, 88
4, 32807, Note_on_c, 2, 35, 0
4, 32814, Note_on_c, 2, 47, 110
4, 32852, Note_on_c, 2, 47, 0
4, 32937, Note_on_c, 2, 47, 99
4, 32969, Note_on_c, 2, 47, 0
4, 32977, Pitch_bend_c, 2, 512
4, 32982, Pitch_bend_c, 2, 1694
4, 32987, Pitch_bend_c, 2, 3386
4, 32994, Pitch_bend_c, 2, 5744
4, 32996, Note_on_c, 2, 28, 95
4, 32999, Pitch_bend_c, 2, 8192
4, 33132, Note_on_c, 2, 28, 0
4, 33182, Note_on_c, 2, 28, 70
4, 33232, Note_on_c, 2, 28, 0
4, 33239, Note_on_c, 2, 40, 90
4, 33279, Note_on_c, 2, 40, 0
4, 33301, Note_on_c, 2, 28, 76
4, 33330, Note_on_c, 2, 28, 0
4, 33357, Note_on_c, 2, 31, 117
4, 33484, Note_on_c, 2, 31, 0
4, 33540, Note_on_c, 2, 35, 74
4, 33581, Note_on_c, 2, 35, 0
4, 33601, Note_on_c, 2, 36, 108
4, 33722, Note_on_c, 2, 48, 95
4, 33727, Note_on_c, 2, 36, 0
4, 33755, Note_on_c, 2, 48, 0
4, 33842, Note_on_c, 2, 36, 90
4, 33873, Note_on_c, 2, 36, 0
4, 33902, Note_on_c, 2, 36, 92
4, 33947, Note_on_c, 2, 36, 0
4, 33953, Note_on_c, 2, 48, 105
4, 34047, Note_on_c, 2, 48, 0
4, 34077, Note_on_c, 2, 35, 97
4, 34192, Note_on_c, 2, 35, 0
4, 34195, Note_on_c, 2, 47, 92
4, 34222, Note_on_c, 2, 47, 0
4, 34255, Note_on_c, 2, 35, 97
4, 34282, Note_on_c, 2, 35, 0
4, 34305, Note_on_c, 2, 47, 110
4, 34482, Pitch_bend_c, 2, 7688
4, 34487, Pitch_bend_c, 2, 6254
4, 34492, Pitch_bend_c, 2, 4904
4, 34497, Pitch_bend_c, 2, 4310
4, 34502, Pitch_bend_c, 2, 3890
4, 34507, Pitch_bend_c, 2, 3722
4, 34512, Pitch_bend_c, 2, 2960
4, 34517, Pitch_bend_c, 2, 1778
4, 34522, Pitch_bend_c, 2, 344
4, 34527, Pitch_bend_c, 2, 0
4, 34554, Note_on_c, 2, 35, 92
4, 34557, Note_on_c, 2, 47, 0
4, 34727, Note_on_c, 2, 35, 0
4, 34743, Note_on_c, 2, 47, 97
4, 34775, Note_on_c, 2, 47, 0
4, 34862, Note_on_c, 2, 47, 88
4, 34882, Pitch_bend_c, 2, 1190
4, 34885, Pitch_bend_c, 2, 428
4, 34887, Note_on_c, 2, 47, 0
4, 34887, Pitch_bend_c, 2, 1778
4, 34897, Pitch_bend_c, 2, 512
4, 34899, Pitch_bend_c, 2, 2540
4, 34902, Pitch_bend_c, 2, 2120
4, 34915, Pitch_bend_c, 2, 0
4, 34919, Note_on_c, 2, 30, 74
4, 35037, Note_on_c, 2, 30, 0
4, 35054, Pitch_bend_c, 2, 0
4, 35057, Pitch_bend_c, 2, 512
4, 35062, Pitch_bend_c, 2, 1274
4, 35067, Pitch_bend_c, 2, 2036
4, 35072, Pitch_bend_c, 2, 3890
4, 35075, Pitch_bend_c, 2, 7352
4, 35080, Pitch_bend_c, 2, 8192
4, 35109, Note_on_c, 2, 28, 97
4, 35152, Note_on_c, 2, 28, 0
4, 35226, Note_on_c, 2, 28, 73
4, 35261, Note_on_c, 2, 28, 0
4, 35276, Note_on_c, 2, 35, 99
4, 35395, Note_on_c, 2, 35, 0
4, 35400, Note_on_c, 2, 36, 74
4, 35522, Note_on_c, 2, 37, 94
4, 35523, Note_on_c, 2, 36, 0
4, 35640, Note_on_c, 2, 49, 94
4, 35641, Note_on_c, 2, 37, 0
4, 35680, Note_on_c, 2, 49, 0
4, 35700, Note_on_c, 2, 37, 94
4, 35702, Note_on_c, 2, 37, 0
4, 35759, Note_on_c, 2, 37, 94
4, 35799, Note_on_c, 2, 37, 0
4, 35821, Note_on_c, 2, 49, 94
4, 35864, Note_on_c, 2, 49, 0
4, 35880, Note_on_c, 2, 36, 94
4, 36037, Note_on_c, 2, 36, 0
4, 36059, Note_on_c, 2, 36, 94
4, 36062, Note_on_c, 2, 36, 0
4, 36120, Note_on_c, 2, 48, 94
4, 36162, Note_on_c, 2, 48, 0
4, 36180, Note_on_c, 2, 36, 94
4, 36182, Note_on_c, 2, 36, 0
4, 36240, Note_on_c, 2, 36, 94
4, 36361, Note_on_c, 2, 48, 94
4, 36362, Note_on_c, 2, 36, 0
4, 36402, Note_on_c, 2, 48, 0
4, 36479, Note_on_c, 2, 31, 94
4, 36600, Note_on_c, 2, 31, 0
4, 36601, Note_on_c, 2, 43, 94
4, 36640, Note_on_c, 2, 43, 0
4, 36661, Note_on_c, 2, 31, 94
4, 36663, Note_on_c, 2, 31, 0
4, 36720, Note_on_c, 2, 31, 94
4, 36760, Note_on_c, 2, 31, 0
4, 36780, Note_on_c, 2, 43, 94
4, 36822, Note_on_c, 2, 43, 0
4, 36840, Note_on_c, 2, 30, 94
4, 37002, Note_on_c, 2, 30, 0
4, 37019, Note_on_c, 2, 30, 94
4, 37022, Note_on_c, 2, 30, 0
4, 37080, Note_on_c, 2, 42, 94
4, 37132, Note_on_c, 2, 42, 0
4, 37140, Note_on_c, 2, 30, 94
4, 37142, Note_on_c, 2, 30, 0
4, 37201, Note_on_c, 2, 33, 94
4, 37312, Note_on_c, 2, 33, 0
4, 37320, Note_on_c, 2, 34, 94
4, 37439, Note_on_c, 2, 34, 0
4, 37441, Note_on_c, 2, 35, 94
4, 37560, Note_on_c, 2, 47, 94
4, 37561, Note_on_c, 2, 35, 0
4, 37602, Note_on_c, 2, 47, 0
4, 37620, Note_on_c, 2, 35, 94
4, 37622, Note_on_c, 2, 35, 0
4, 37680, Note_on_c, 2, 35, 94
4, 37738, Note_on_c, 2, 35, 0
4, 37800, Note_on_c, 2, 52, 94
4, 37980, Note_on_c, 2, 52, 0
4, 37980, Note_on_c, 2, 28, 94
4, 37982, Note_on_c, 2, 28, 0
4, 38039, Note_on_c, 2, 28, 94
4, 38160, Note_on_c, 2, 31, 94
4, 38161, Note_on_c, 2, 28, 0
4, 38275, Note_on_c, 2, 31, 0
4, 38280, Note_on_c, 2, 32, 94
4, 38402, Note_on_c, 2, 33, 94
4, 38404, Note_on_c, 2, 32, 0
4, 38520, Note_on_c, 2, 33, 0
4, 38520, Note_on_c, 2, 45, 94
4, 38559, Note_on_c, 2, 45, 0
4, 38580, Note_on_c, 2, 33, 94
4, 38582, Note_on_c, 2, 33, 0
4, 38640, Note_on_c, 2, 33, 94
4, 38752, Note_on_c, 2, 33, 0
4, 38759, Note_on_c, 2, 38, 94
4, 38881, Note_on_c, 2, 38, 0
4, 38940, Note_on_c, 2, 45, 94
4, 38980, Note_on_c, 2, 45, 0
4, 38999, Note_on_c, 2, 50, 103
4, 39057, Note_on_c, 2, 50, 0
4, 39060, Note_on_c, 2, 52, 94
4, 39117, Note_on_c, 2, 52, 0
4, 39119, Note_on_c, 2, 50, 103
4, 39232, Note_on_c, 2, 50, 0
4, 39240, Note_on_c, 2, 38, 94
4, 39359, Note_on_c, 2, 38, 0
4, 39362, Note_on_c, 2, 36, 108
4, 39444, Note_on_c, 2, 36, 0
4, 39542, Note_on_c, 2, 36, 115
4, 39613, Note_on_c, 2, 36, 0
4, 39659, Note_on_c, 2, 38, 97
4, 39687, Note_on_c, 2, 38, 0
4, 39719, Note_on_c, 2, 31, 108
4, 39864, Note_on_c, 2, 31, 0
4, 39905, Note_on_c, 2, 31, 80
4, 39934, Note_on_c, 2, 31, 0
4, 40016, Note_on_c, 2, 31, 99
4, 40069, Note_on_c, 2, 31, 0
4, 40069, Note_on_c, 2, 33, 112
4, 40129, Pitch_bend_c, 2, 9626
4, 40134, Pitch_bend_c, 2, 12746
4, 40140, Pitch_bend_c, 2, 16383
4, 40192, Note_on_c, 2, 33, 0
4, 40197, Note_on_c, 2, 36, 105
4, 40252, Note_on_c, 2, 36, 0
4, 40274, Pitch_bend_c, 2, 12914
4, 40279, Pitch_bend_c, 2, 8192
4, 40316, Note_on_c, 2, 36, 112
4, 40402, Note_on_c, 2, 36, 0
4, 40502, Note_on_c, 2, 36, 110
4, 40544, Note_on_c, 2, 36, 0
4, 40624, Note_on_c, 2, 38, 70
4, 40647, Note_on_c, 2, 38, 0
4, 40682, Note_on_c, 2, 31, 97
4, 40820, Note_on_c, 2, 31, 0
4, 40869, Note_on_c, 2, 31, 95
4, 40902, Note_on_c, 2, 31, 0
4, 40921, Note_on_c, 2, 38, 95
4, 41039, Note_on_c, 2, 38, 0
4, 41041, Note_on_c, 2, 28, 108
4, 41149, Note_on_c, 2, 28, 0
4, 41160, Note_on_c, 2, 31, 108
4, 41280, Note_on_c, 2, 31, 0
4, 41284, Note_on_c, 2, 30, 123
4, 41649, Note_on_c, 2, 35, 105
4, 41652, Note_on_c, 2, 30, 0
4, 41988, Note_on_c, 2, 35, 0
4, 41996, Note_on_c, 2, 40, 115
4, 42350, Note_on_c, 2, 40, 0
4, 42362, Note_on_c, 2, 35, 108
4, 42709, Note_on_c, 2, 36, 110
4, 42710, Note_on_c, 2, 35, 0
4, 43202, Note_on_c, 2, 31, 110
4, 43203, Note_on_c, 2, 36, 0
4, 44160, Note_on_c, 2, 31, 0
4, 44161, Note_on_c, 2, 30, 101
4, 45130, Note_on_c, 2, 30, 0
4, 45130, Note_on_c, 2, 29, 92
4, 45674, Pitch_bend_c, 2, 7100
4, 45682, Pitch_bend_c, 2, 2204
4, 45690, Pitch_bend_c, 2, 0
4, 45707, Note_on_c, 2, 45, 83
4, 45769, Pitch_bend_c, 2, 770
4, 45777, Pitch_bend_c, 2, 2876
4, 45785, Pitch_bend_c, 2, 6758
4, 45790, Pitch_bend_c, 2, 8192
4, 45814, Note_on_c, 2, 29, 0
4, 45827, Note_on_c, 2, 50, 97
4, 45834, Note_on_c, 2, 45, 0
4, 45950, Note_on_c, 2, 57, 90
4, 45952, Note_on_c, 2, 50, 0
4, 46074, Note_on_c, 2, 57, 0
4, 46079, Note_on_c, 2, 28, 101
4, 46079, Note_on_c, 2, 56, 79
4, 47042, Note_on_c, 2, 56, 0
4, 47044, Note_on_c, 2, 39, 75
4, 47049, Note_on_c, 2, 55, 103
4, 47057, Note_on_c, 2, 28, 0
4, 47964, Note_on_c, 2, 39, 0
4, 47972, Note_on_c, 2, 55, 0
4, 47985, Note_on_c, 2, 38, 88
4, 47987, Note_on_c, 2, 54, 111
4, 48884, Note_on_c, 2, 54, 0
4, 48900, Note_on_c, 2, 38, 0
4, 48958, Note_on_c, 2, 36, 106
4, 49062, Note_on_c, 2, 36, 0
4, 49145, Note_on_c, 2, 36, 115
4, 49227, Note_on_c, 2, 36, 0
4, 49318, Note_on_c, 2, 35, 112
4, 49884, Note_on_c, 2, 35, 0
4, 49925, Note_on_c, 2, 36, 108
4, 50022, Note_on_c, 2, 36, 0
4, 50098, Note_on_c, 2, 36, 110
4, 50160, Note_on_c, 2, 36, 0
4, 50262, Note_on_c, 2, 31, 105
4, 50684, Note_on_c, 2, 31, 0
4, 50754, Note_on_c, 2, 31, 103
4, 50809, Pitch_bend_c, 2, 9200
4, 50814, Pitch_bend_c, 2, 10976
4, 50820, Pitch_bend_c, 2, 12662
4, 50825, Pitch_bend_c, 2, 14348
4, 50830, Pitch_bend_c, 2, 15950
4, 50832, Pitch_bend_c, 2, 16383
4, 50875, Note_on_c, 2, 31, 0
4, 50880, Note_on_c, 2, 34, 110
4, 50967, Note_on_c, 2, 34, 0
4, 51064, Note_on_c, 2, 34, 117
4, 51137, Note_on_c, 2, 34, 0
4, 51169, Pitch_bend_c, 2, 14858
4, 51174, Pitch_bend_c, 2, 10214
4, 51181, Pitch_bend_c, 2, 8192
4, 51235, Note_on_c, 2, 31, 103
4, 51449, Note_on_c, 2, 31, 0
4, 51524, Note_on_c, 2, 31, 74
4, 51572, Note_on_c, 2, 31, 0
4, 51580, Note_on_c, 2, 33, 99
4, 51632, Pitch_bend_c, 2, 8444
4, 51637, Pitch_bend_c, 2, 10382
4, 51642, Pitch_bend_c, 2, 12998
4, 51647, Pitch_bend_c, 2, 15278
4, 51650, Pitch_bend_c, 2, 16383
4, 51709, Note_on_c, 2, 33, 0
4, 51714, Note_on_c, 2, 36, 99
4, 51759, Note_on_c, 2, 36, 0
4, 51800, Pitch_bend_c, 2, 12998
4, 51804, Pitch_bend_c, 2, 8192
4, 51840, Note_on_c, 2, 36, 110
4, 51924, Note_on_c, 2, 36, 0
4, 52027, Note_on_c, 2, 36, 99
4, 52124, Note_on_c, 2, 36, 0
4, 52150, Note_on_c, 2, 38, 76
4, 52167, Note_on_c, 2, 38, 0
4, 52205, Note_on_c, 2, 31, 95
4, 52343, Note_on_c, 2, 31, 0
4, 52372, Note_on_c, 2, 31, 92
4, 52405, Note_on_c, 2, 31, 0
4, 52434, Note_on_c, 2, 43, 90
4, 52474, Note_on_c, 2, 43, 0
4, 52495, Note_on_c, 2, 31, 76
4, 52542, Note_on_c, 2, 31, 0
4, 52550, Note_on_c, 2, 33, 105
4, 52602, Pitch_bend_c, 2, 9368
4, 52607, Pitch_bend_c, 2, 11480
4, 52611, Pitch_bend_c, 2, 14858
4, 52616, Pitch_bend_c, 2, 16383
4, 52667, Note_on_c, 2, 33, 0
4, 52674, Note_on_c, 2, 36, 103
4, 52722, Note_on_c, 2, 36, 0
4, 52749, Pitch_bend_c, 2, 14348
4, 52755, Pitch_bend_c, 2, 10466
4, 52760, Pitch_bend_c, 2, 8192
4, 52802, Note_on_c, 2, 36, 108
4, 52883, Note_on_c, 2, 36, 0
4, 52982, Note_on_c, 2, 36, 115
4, 53052, Note_on_c, 2, 36, 0
4, 53099, Note_on_c, 2, 38, 97
4, 53127, Note_on_c, 2, 38, 0
4, 53161, Note_on_c, 2, 31, 108
4, 53304, Note_on_c, 2, 31, 0
4, 53344, Note_on_c, 2, 31, 80
4, 53375, Note_on_c, 2, 31, 0
4, 53394, Note_on_c, 2, 43, 73
4, 53440, Note_on_c, 2, 43, 0
4, 53456, Note_on_c, 2, 31, 99
4, 53510, Note_on_c, 2, 31, 0
4, 53510, Note_on_c, 2, 33, 112
4, 53570, Pitch_bend_c, 2, 9626
4, 53575, Pitch_bend_c, 2, 12746
4, 53580, Pitch_bend_c, 2, 16383
4, 53632, Note_on_c, 2, 33, 0
4, 53637, Note_on_c, 2, 36, 105
4, 53692, Note_on_c, 2, 36, 0
4, 53714, Pitch_bend_c, 2, 12914
4, 53720, Pitch_bend_c, 2, 8192
4, 53756, Note_on_c, 2, 36, 112
4, 53842, Note_on_c, 2, 36, 0
4, 53942, Note_on_c, 2, 36, 110
4, 53986, Note_on_c, 2, 36, 0
4, 54064, Note_on_c, 2, 38, 70
4, 54087, Note_on_c, 2, 38, 0
4, 54122, Note_on_c, 2, 31, 97
4, 54259, Note_on_c, 2, 31, 0
4, 54307, Note_on_c, 2, 31, 95
4, 54342, Note_on_c, 2, 31, 0
4, 54362, Note_on_c, 2, 43, 78
4, 54409, Note_on_c, 2, 43, 0
4, 54414, Note_on_c, 2, 31, 95
4, 54462, Note_on_c, 2, 31, 0
4, 54472, Note_on_c, 2, 33, 108
4, 54532, Pitch_bend_c, 2, 11312
4, 54538, Pitch_bend_c, 2, 15782
4, 54543, Pitch_bend_c, 2, 16383
4, 54595, Note_on_c, 2, 36, 108
4, 54597, Note_on_c, 2, 33, 0
4, 54645, Note_on_c, 2, 36, 0
4, 54672, Pitch_bend_c, 2, 16124
4, 54677, Pitch_bend_c, 2, 12152
4, 54682, Pitch_bend_c, 2, 8612
4, 54687, Pitch_bend_c, 2, 8192
4, 54717, Note_on_c, 2, 41, 112
4, 54785, Note_on_c, 2, 41, 0
4, 54901, Note_on_c, 2, 41, 115
4, 54954, Note_on_c, 2, 41, 0
4, 55024, Note_on_c, 2, 43, 82
4, 55050, Note_on_c, 2, 43, 0
4, 55077, Note_on_c, 2, 36, 97
4, 55230, Note_on_c, 2, 36, 0
4, 55261, Note_on_c, 2, 36, 92
4, 55297, Note_on_c, 2, 48, 86
4, 55305, Note_on_c, 2, 36, 0
4, 55355, Note_on_c, 2, 48, 0
4, 55378, Note_on_c, 2, 36, 97
4, 55434, Note_on_c, 2, 38, 99
4, 55442, Note_on_c, 2, 36, 0
4, 55464, Pitch_bend_c, 2, 8696
4, 55472, Pitch_bend_c, 2, 9452
4, 55474, Pitch_bend_c, 2, 10466
4, 55479, Pitch_bend_c, 2, 12152
4, 55484, Pitch_bend_c, 2, 14180
4, 55487, Pitch_bend_c, 2, 16383
4, 55492, Pitch_bend_c, 2, 16383
4, 55545, Note_on_c, 2, 38, 0
4, 55560, Note_on_c, 2, 41, 95
4, 55612, Note_on_c, 2, 41, 0
4, 55637, Pitch_bend_c, 2, 13166
4, 55643, Pitch_bend_c, 2, 8192
4, 55678, Note_on_c, 2, 41, 110
4, 55737, Note_on_c, 2, 41, 0
4, 55862, Note_on_c, 2, 41, 103
4, 55917, Note_on_c, 2, 41, 0
4, 55989, Note_on_c, 2, 43, 66
4, 56010, Note_on_c, 2, 43, 0
4, 56042, Note_on_c, 2, 36, 105
4, 56177, Note_on_c, 2, 36, 0
4, 56223, Note_on_c, 2, 36, 92
4, 56267, Note_on_c, 2, 48, 56
4, 56268, Note_on_c, 2, 36, 0
4, 56331, Note_on_c, 2, 48, 0
4, 56340, Note_on_c, 2, 36, 99
4, 56397, Note_on_c, 2, 38, 112
4, 56410, Note_on_c, 2, 36, 0
4, 56444, Pitch_bend_c, 2, 8948
4, 56447, Pitch_bend_c, 2, 10886
4, 56452, Pitch_bend_c, 2, 13844
4, 56458, Pitch_bend_c, 2, 16383
4, 56517, Note_on_c, 2, 38, 0
4, 56527, Note_on_c, 2, 41, 112
4, 56571, Note_on_c, 2, 41, 0
4, 56602, Pitch_bend_c, 2, 13082
4, 56607, Pitch_bend_c, 2, 8360
4, 56612, Pitch_bend_c, 2, 8192
4, 56644, Note_on_c, 2, 36, 108
4, 56704, Note_on_c, 2, 36, 0
4, 56822, Note_on_c, 2, 36, 112
4, 56864, Note_on_c, 2, 36, 0
4, 56941, Note_on_c, 2, 38, 70
4, 56964, Note_on_c, 2, 38, 0
4, 56992, Note_on_c, 2, 31, 110
4, 57162, Note_on_c, 2, 31, 0
4, 57190, Note_on_c, 2, 31, 101
4, 57238, Note_on_c, 2, 43, 86
4, 57242, Note_on_c, 2, 31, 0
4, 57285, Note_on_c, 2, 43, 0
4, 57305, Note_on_c, 2, 31, 92
4, 57364, Note_on_c, 2, 33, 112
4, 57374, Note_on_c, 2, 31, 0
4, 57395, Pitch_bend_c, 2, 8780
4, 57399, Pitch_bend_c, 2, 9200
4, 57404, Pitch_bend_c, 2, 9626
4, 57407, Pitch_bend_c, 2, 10046
4, 57412, Pitch_bend_c, 2, 10634
4, 57417, Pitch_bend_c, 2, 11648
4, 57422, Pitch_bend_c, 2, 13418
4, 57424, Pitch_bend_c, 2, 16034
4, 57430, Pitch_bend_c, 2, 16383
4, 57472, Note_on_c, 2, 33, 0
4, 57490, Note_on_c, 2, 36, 99
4, 57535, Note_on_c, 2, 36, 0
4, 57557, Pitch_bend_c, 2, 16124
4, 57562, Pitch_bend_c, 2, 12746
4, 57564, Pitch_bend_c, 2, 9536
4, 57569, Pitch_bend_c, 2, 8192
4, 57605, Note_on_c, 2, 36, 108
4, 57658, Note_on_c, 2, 36, 0
4, 57782, Note_on_c, 2, 36, 112
4, 57835, Note_on_c, 2, 36, 0
4, 57907, Note_on_c, 2, 38, 57
4, 57930, Note_on_c, 2, 38, 0
4, 57965, Note_on_c, 2, 31, 105
4, 58107, Note_on_c, 2, 31, 0
4, 58153, Note_on_c, 2, 31, 92
4, 58192, Note_on_c, 2, 43, 58
4, 58202, Note_on_c, 2, 31, 0
4, 58252, Note_on_c, 2, 43, 0
4, 58260, Note_on_c, 2, 31, 88
4, 58310, Note_on_c, 2, 33, 105
4, 58319, Note_on_c, 2, 31, 0
4, 58362, Pitch_bend_c, 2, 8528
4, 58367, Pitch_bend_c, 2, 11312
4, 58372, Pitch_bend_c, 2, 15362
4, 58377, Pitch_bend_c, 2, 16383
4, 58428, Note_on_c, 2, 36, 101
4, 58438, Note_on_c, 2, 33, 0
4, 58479, Note_on_c, 2, 36, 0
4, 58529, Pitch_bend_c, 2, 13250
4, 58534, Pitch_bend_c, 2, 8948
4, 58540, Pitch_bend_c, 2, 8192
4, 58552, Note_on_c, 2, 43, 110
4, 58641, Note_on_c, 2, 43, 0
4, 58743, Note_on_c, 2, 43, 112
4, 58834, Note_on_c, 2, 43, 0
4, 58862, Note_on_c, 2, 45, 92
4, 58897, Note_on_c, 2, 45, 0
4, 58922, Note_on_c, 2, 38, 108
4, 59092, Note_on_c, 2, 38, 0
4, 59132, Note_on_c, 2, 38, 84
4, 59167, Note_on_c, 2, 50, 100
4, 59184, Note_on_c, 2, 38, 0
4, 59222, Note_on_c, 2, 50, 0
4, 59234, Note_on_c, 2, 38, 92
4, 59289, Note_on_c, 2, 40, 95
4, 59302, Note_on_c, 2, 38, 0
4, 59327, Pitch_bend_c, 2, 8780
4, 59332, Pitch_bend_c, 2, 9962
4, 59334, Pitch_bend_c, 2, 11732
4, 59340, Pitch_bend_c, 2, 14180
4, 59344, Pitch_bend_c, 2, 16383
4, 59402, Note_on_c, 2, 43, 99
4, 59405, Note_on_c, 2, 40, 0
4, 59457, Note_on_c, 2, 43, 0
4, 59484, Pitch_bend_c, 2, 15782
4, 59489, Pitch_bend_c, 2, 11984
4, 59494, Pitch_bend_c, 2, 9368
4, 59500, Pitch_bend_c, 2, 8192
4, 59518, Note_on_c, 2, 41, 110
4, 59592, Note_on_c, 2, 41, 0
4, 59702, Note_on_c, 2, 41, 110
4, 59754, Note_on_c, 2, 41, 0
4, 59822, Note_on_c, 2, 43, 68
4, 59848, Note_on_c, 2, 43, 0
4, 59875, Note_on_c, 2, 36, 101
4, 60030, Note_on_c, 2, 36, 0
4, 60067, Note_on_c, 2, 36, 92
4, 60091, Note_on_c, 2, 48, 76
4, 60123, Note_on_c, 2, 36, 0
4, 60152, Note_on_c, 2, 48, 0
4, 60182, Note_on_c, 2, 36, 103
4, 60242, Note_on_c, 2, 38, 108
4, 60254, Note_on_c, 2, 36, 0
4, 60292, Pitch_bend_c, 2, 10802
4, 60297, Pitch_bend_c, 2, 14774
4, 60302, Pitch_bend_c, 2, 16383
4, 60358, Note_on_c, 2, 38, 0
4, 60361, Note_on_c, 2, 41, 74
4, 60400, Note_on_c, 2, 41, 0
4, 60420, Note_on_c, 2, 41, 74
4, 60450, Pitch_bend_c, 2, 15110
4, 60454, Pitch_bend_c, 2, 11900
4, 60459, Pitch_bend_c, 2, 8948
4, 60460, Note_on_c, 2, 41, 0
4, 60464, Pitch_bend_c, 2, 8192
4, 60480, Note_on_c, 2, 45, 115
4, 60587, Note_on_c, 2, 45, 0
4, 60607, Note_on_c, 2, 43, 90
4, 60649, Note_on_c, 2, 43, 0
4, 60658, Note_on_c, 2, 38, 97
4, 60707, Pitch_bend_c, 2, 10466
4, 60712, Pitch_bend_c, 2, 15782
4, 60714, Pitch_bend_c, 2, 16383
4, 60760, Note_on_c, 2, 38, 0
4, 60782, Note_on_c, 2, 38, 110
4, 60838, Pitch_bend_c, 2, 9626
4, 60846, Pitch_bend_c, 2, 8192
4, 60946, Note_on_c, 2, 38, 0
4, 60956, Note_on_c, 2, 31, 101
4, 61047, Note_on_c, 2, 31, 0
4, 61074, Note_on_c, 2, 31, 115
4, 61441, Note_on_c, 2, 31, 0
4, 61553, Note_on_c, 2, 43, 99
4, 61587, Note_on_c, 2, 43, 0
4, 61628, Note_on_c, 2, 43, 112
4, 61657, Pitch_bend_c, 2, 10634
4, 61662, Pitch_bend_c, 2, 14942
4, 61665, Pitch_bend_c, 2, 16383
4, 61755, Note_on_c, 2, 43, 0
4, 61799, Note_on_c, 2, 43, 78
4, 61808, Pitch_bend_c, 2, 11816
4, 61811, Pitch_bend_c, 2, 8864
4, 61816, Pitch_bend_c, 2, 8192
4, 61862, Note_on_c, 2, 38, 101
4, 61864, Note_on_c, 2, 43, 0
4, 61900, Pitch_bend_c, 2, 10130
4, 61905, Pitch_bend_c, 2, 14264
4, 61910, Pitch_bend_c, 2, 16383
4, 61958, Note_on_c, 2, 38, 0
4, 61984, Note_on_c, 2, 38, 110
4, 62047, Pitch_bend_c, 2, 11564
4, 62052, Pitch_bend_c, 2, 8192
4, 62144, Note_on_c, 2, 38, 0
4, 62161, Note_on_c, 2, 31, 97
4, 62277, Note_on_c, 2, 31, 0
4, 62280, Note_on_c, 2, 35, 115
4, 62382, Note_on_c, 2, 35, 0
4, 62400, Note_on_c, 2, 36, 101
4, 62482, Note_on_c, 2, 36, 0
4, 62582, Note_on_c, 2, 36, 97
4, 62643, Note_on_c, 2, 36, 0
4, 62700, Note_on_c, 2, 38, 78
4, 62730, Note_on_c, 2, 38, 0
4, 62752, Note_on_c, 2, 31, 99
4, 62916, Note_on_c, 2, 31, 0
4, 62944, Note_on_c, 2, 31, 90
4, 63000, Note_on_c, 2, 31, 0
4, 63004, Note_on_c, 2, 43, 86
4, 63054, Note_on_c, 2, 43, 0
4, 63062, Note_on_c, 2, 31, 86
4, 63109, Note_on_c, 2, 31, 0
4, 63117, Note_on_c, 2, 33, 95
4, 63172, Pitch_bend_c, 2, 8612
4, 63177, Pitch_bend_c, 2, 10298
4, 63182, Pitch_bend_c, 2, 12578
4, 63187, Pitch_bend_c, 2, 14942
4, 63193, Pitch_bend_c, 2, 16383
4, 63232, Note_on_c, 2, 33, 0
4, 63237, Note_on_c, 2, 36, 92
4, 63297, Note_on_c, 2, 36, 0
4, 63322, Pitch_bend_c, 2, 15362
4, 63327, Pitch_bend_c, 2, 12494
4, 63330, Pitch_bend_c, 2, 10046
4, 63335, Pitch_bend_c, 2, 8192
4, 63364, Note_on_c, 2, 36, 101
4, 63435, Note_on_c, 2, 36, 0
4, 63547, Note_on_c, 2, 36, 99
4, 63594, Note_on_c, 2, 36, 0
4, 63669, Note_on_c, 2, 38, 80
4, 63694, Note_on_c, 2, 38, 0
4, 63725, Note_on_c, 2, 31, 101
4, 63867, Note_on_c, 2, 31, 0
4, 63902, Note_on_c, 2, 31, 95
4, 63937, Note_on_c, 2, 31, 0
4, 63969, Note_on_c, 2, 43, 44
4, 64017, Note_on_c, 2, 31, 92
4, 64028, Note_on_c, 2, 43, 0
4, 64062, Note_on_c, 2, 31, 0
4, 64077, Note_on_c, 2, 33, 112
4, 64129, Pitch_bend_c, 2, 10298
4, 64135, Pitch_bend_c, 2, 13592
4, 64137, Pitch_bend_c, 2, 16383
4, 64197, Note_on_c, 2, 33, 0
4, 64202, Note_on_c, 2, 36, 101
4, 64254, Note_on_c, 2, 36, 0
4, 64282, Pitch_bend_c, 2, 14858
4, 64287, Pitch_bend_c, 2, 12326
4, 64292, Pitch_bend_c, 2, 9962
4, 64297, Pitch_bend_c, 2, 8444
4, 64302, Pitch_bend_c, 2, 8192
4, 64322, Note_on_c, 2, 36, 99
4, 64374, Note_on_c, 2, 36, 0
4, 64500, Note_on_c, 2, 36, 99
4, 64532, Note_on_c, 2, 36, 0
4, 64624, Note_on_c, 2, 38, 58
4, 64647, Note_on_c, 2, 38, 0
4, 64682, Note_on_c, 2, 31, 112
4, 64842, Note_on_c, 2, 31, 0
4, 64862, Note_on_c, 2, 31, 95
4, 64900, Note_on_c, 2, 31, 0
4, 64922, Note_on_c, 2, 43, 88
4, 64967, Note_on_c, 2, 43, 0
4, 64980, Note_on_c, 2, 31, 97
4, 65024, Note_on_c, 2, 31, 0
4, 65032, Note_on_c, 2, 33, 103
4, 65072, Pitch_bend_c, 2, 8948
4, 65077, Pitch_bend_c, 2, 10634
4, 65079, Pitch_bend_c, 2, 13082
4, 65084, Pitch_bend_c, 2, 15866
4, 65089, Pitch_bend_c, 2, 16383
4, 65153, Note_on_c, 2, 33, 0
4, 65158, Note_on_c, 2, 36, 105
4, 65200, Note_on_c, 2, 36, 0
4, 65237, Pitch_bend_c, 2, 13676
4, 65242, Pitch_bend_c, 2, 9710
4, 65247, Pitch_bend_c, 2, 8192
4, 65282, Note_on_c, 2, 36, 105
4, 65325, Note_on_c, 2, 36, 0
4, 65467, Note_on_c, 2, 36, 103
4, 65517, Note_on_c, 2, 36, 0
4, 65594, Note_on_c, 2, 38, 78
4, 65615, Note_on_c, 2, 38, 0
4, 65649, Note_on_c, 2, 31, 110
4, 65780, Note_on_c, 2, 31, 0
4, 65822, Note_on_c, 2, 31, 88
4, 65865, Note_on_c, 2, 31, 0
4, 65907, Note_on_c, 2, 43, 52
4, 65930, Note_on_c, 2, 43, 0
4, 65941, Note_on_c, 2, 31, 99
4, 65993, Note_on_c, 2, 31, 0
4, 65993, Note_on_c, 2, 33, 92
4, 66042, Pitch_bend_c, 2, 9710
4, 66044, Pitch_bend_c, 2, 12494
4, 66049, Pitch_bend_c, 2, 16208
4, 66054, Pitch_bend_c, 2, 16383
4, 66109, Note_on_c, 2, 36, 105
4, 66117, Note_on_c, 2, 33, 0
4, 66154, Note_on_c, 2, 36, 0
4, 66207, Pitch_bend_c, 2, 14516
4, 66212, Pitch_bend_c, 2, 10718
4, 66217, Pitch_bend_c, 2, 8192
4, 66234, Note_on_c, 2, 41, 112
4, 66278, Note_on_c, 2, 41, 0
4, 66414, Note_on_c, 2, 41, 101
4, 66462, Note_on_c, 2, 41, 0
4, 66542, Note_on_c, 2, 43, 71
4, 66561, Note_on_c, 2, 43, 0
4, 66597, Note_on_c, 2, 36, 110
4, 66747, Note_on_c, 2, 36, 0
4, 66787, Note_on_c, 2, 36, 69
4, 66842, Note_on_c, 2, 36, 0
4, 66843, Note_on_c, 2, 48, 92
4, 66882, Note_on_c, 2, 48, 0
4, 66897, Note_on_c, 2, 36, 99
4, 66951, Note_on_c, 2, 38, 97
4, 66969, Note_on_c, 2, 36, 0
4, 67004, Pitch_bend_c, 2, 9032
4, 67009, Pitch_bend_c, 2, 12746
4, 67014, Pitch_bend_c, 2, 16383
4, 67077, Note_on_c, 2, 41, 105
4, 67080, Note_on_c, 2, 38, 0
4, 67129, Note_on_c, 2, 41, 0
4, 67155, Pitch_bend_c, 2, 15782
4, 67157, Pitch_bend_c, 2, 12152
4, 67162, Pitch_bend_c, 2, 9032
4, 67167, Pitch_bend_c, 2, 8192
4, 67195, Note_on_c, 2, 41, 108
4, 67245, Note_on_c, 2, 41, 0
4, 67377, Note_on_c, 2, 41, 110
4, 67424, Note_on_c, 2, 41, 0
4, 67501, Note_on_c, 2, 43, 84
4, 67522, Note_on_c, 2, 43, 0
4, 67557, Note_on_c, 2, 36, 105
4, 67717, Note_on_c, 2, 36, 0
4, 67747, Note_on_c, 2, 36, 90
4, 67792, Note_on_c, 2, 36, 0
4, 67802, Note_on_c, 2, 48, 64
4, 67857, Note_on_c, 2, 48, 0
4, 67867, Note_on_c, 2, 36, 101
4, 67922, Note_on_c, 2, 38, 101
4, 67941, Note_on_c, 2, 36, 0
4, 67972, Pitch_bend_c, 2, 9962
4, 67975, Pitch_bend_c, 2, 12998
4, 67980, Pitch_bend_c, 2, 16383
4, 67984, Pitch_bend_c, 2, 16383
4, 68040, Note_on_c, 2, 41, 103
4, 68044, Note_on_c, 2, 38, 0
4, 68087, Note_on_c, 2, 41, 0
4, 68119, Pitch_bend_c, 2, 16208
4, 68124, Pitch_bend_c, 2, 14096
4, 68129, Pitch_bend_c, 2, 11900
4, 68134, Pitch_bend_c, 2, 10214
4, 68139, Pitch_bend_c, 2, 9284
4, 68142, Pitch_bend_c, 2, 8444
4, 68147, Pitch_bend_c, 2, 8192
4, 68165, Note_on_c, 2, 36, 99
4, 68214, Note_on_c, 2, 36, 0
4, 68332, Note_on_c, 2, 36, 99
4, 68360, Note_on_c, 2, 36, 0
4, 68457, Note_on_c, 2, 38, 78
4, 68477, Note_on_c, 2, 38, 0
4, 68520, Note_on_c, 2, 31, 82
4, 68667, Note_on_c, 2, 31, 0
4, 68704, Note_on_c, 2, 31, 92
4, 68744, Note_on_c, 2, 31, 0
4, 68772, Note_on_c, 2, 43, 84
4, 68822, Note_on_c, 2, 31, 108
4, 68823, Note_on_c, 2, 43, 0
4, 68872, Note_on_c, 2, 31, 0
4, 68875, Note_on_c, 2, 33, 112
4, 68915, Pitch_bend_c, 2, 8270
4, 68920, Pitch_bend_c, 2, 9962
4, 68925, Pitch_bend_c, 2, 12746
4, 68930, Pitch_bend_c, 2, 16124
4, 68932, Pitch_bend_c, 2, 16383
4, 68994, Note_on_c, 2, 36, 112
4, 68997, Note_on_c, 2, 33, 0
4, 69039, Note_on_c, 2, 36, 0
4, 69073, Pitch_bend_c, 2, 15362
4, 69079, Pitch_bend_c, 2, 12152
4, 69083, Pitch_bend_c, 2, 10046
4, 69086, Pitch_bend_c, 2, 8528
4, 69089, Pitch_bend_c, 2, 8192
4, 69120, Note_on_c, 2, 36, 108
4, 69202, Note_on_c, 2, 36, 0
4, 69301, Note_on_c, 2, 36, 105
4, 69340, Note_on_c, 2, 36, 0
4, 69425, Note_on_c, 2, 38, 80
4, 69447, Note_on_c, 2, 38, 0
4, 69477, Note_on_c, 2, 31, 101
4, 69633, Note_on_c, 2, 31, 0
4, 69664, Note_on_c, 2, 31, 82
4, 69704, Note_on_c, 2, 43, 54
4, 69712, Note_on_c, 2, 31, 0
4, 69764, Note_on_c, 2, 43, 0
4, 69781, Note_on_c, 2, 31, 95
4, 69830, Note_on_c, 2, 33, 99
4, 69835, Note_on_c, 2, 31, 0
4, 69885, Pitch_bend_c, 2, 8780
4, 69890, Pitch_bend_c, 2, 9962
4, 69894, Pitch_bend_c, 2, 11648
4, 69901, Pitch_bend_c, 2, 13592
4, 69904, Pitch_bend_c, 2, 15866
4, 69907, Pitch_bend_c, 2, 16383
4, 69949, Note_on_c, 2, 36, 92
4, 69952, Note_on_c, 2, 33, 0
4, 69997, Note_on_c, 2, 36, 0
4, 70047, Pitch_bend_c, 2, 13508
4, 70052, Pitch_bend_c, 2, 9878
4, 70057, Pitch_bend_c, 2, 8192
4, 70069, Note_on_c, 2, 43, 101
4, 70160, Note_on_c, 2, 43, 0
4, 70255, Note_on_c, 2, 43, 112
4, 70322, Note_on_c, 2, 43, 0
4, 70382, Note_on_c, 2, 45, 80
4, 70407, Note_on_c, 2, 45, 0
4, 70443, Note_on_c, 2, 38, 110
4, 70584, Note_on_c, 2, 38, 0
4, 70629, Note_on_c, 2, 38, 90
4, 70677, Note_on_c, 2, 38, 0
4, 70690, Note_on_c, 2, 50, 108
4, 70746, Note_on_c, 2, 38, 92
4, 70748, Note_on_c, 2, 50, 0
4, 70795, Note_on_c, 2, 38, 0
4, 70797, Note_on_c, 2, 41, 105
4, 70834, Pitch_bend_c, 2, 8612
4, 70840, Pitch_bend_c, 2, 9794
4, 70845, Pitch_bend_c, 2, 11564
4, 70847, Pitch_bend_c, 2, 13676
4, 70852, Pitch_bend_c, 2, 15362
4, 70857, Pitch_bend_c, 2, 16383
4, 70915, Note_on_c, 2, 43, 92
4, 70917, Note_on_c, 2, 41, 0
4, 70957, Note_on_c, 2, 43, 0
4, 71005, Pitch_bend_c, 2, 15362
4, 71010, Pitch_bend_c, 2, 13250
4, 71014, Pitch_bend_c, 2, 10382
4, 71019, Pitch_bend_c, 2, 8192
4, 71046, Note_on_c, 2, 41, 95
4, 71127, Note_on_c, 2, 41, 0
4, 71217, Note_on_c, 2, 41, 110
4, 71292, Note_on_c, 2, 41, 0
4, 71344, Note_on_c, 2, 40, 88
4, 71365, Note_on_c, 2, 40, 0
4, 71394, Note_on_c, 2, 36, 97
4, 71532, Note_on_c, 2, 36, 0
4, 71576, Note_on_c, 2, 36, 92
4, 71620, Note_on_c, 2, 36, 0
4, 71629, Note_on_c, 2, 48, 95
4, 71694, Note_on_c, 2, 36, 99
4, 71710, Note_on_c, 2, 48, 0
4, 71744, Note_on_c, 2, 36, 0
4, 71752, Note_on_c, 2, 38, 101
4, 71774, Pitch_bend_c, 2, 8360
4, 71779, Pitch_bend_c, 2, 8864
4, 71784, Pitch_bend_c, 2, 9368
4, 71789, Pitch_bend_c, 2, 9962
4, 71794, Pitch_bend_c, 2, 10802
4, 71797, Pitch_bend_c, 2, 11816
4, 71802, Pitch_bend_c, 2, 13166
4, 71807, Pitch_bend_c, 2, 14774
4, 71812, Pitch_bend_c, 2, 15866
4, 71817, Pitch_bend_c, 2, 16383
4, 71863, Note_on_c, 2, 38, 0
4, 71873, Note_on_c, 2, 41, 101
4, 71920, Note_on_c, 2, 41, 0
4, 71940, Note_on_c, 2, 41, 74
4, 71952, Pitch_bend_c, 2, 14096
4, 71957, Pitch_bend_c, 2, 10382
4, 71962, Pitch_bend_c, 2, 8192
4, 71980, Note_on_c, 2, 41, 0
4, 72000, Note_on_c, 2, 45, 115
4, 72107, Note_on_c, 2, 45, 0
4, 72127, Note_on_c, 2, 43, 90
4, 72170, Note_on_c, 2, 43, 0
4, 72177, Note_on_c, 2, 38, 97
4, 72227, Pitch_bend_c, 2, 10466
4, 72232, Pitch_bend_c, 2, 15782
4, 72235, Pitch_bend_c, 2, 16383
4, 72280, Note_on_c, 2, 38, 0
4, 72302, Note_on_c, 2, 38, 110
4, 72357, Pitch_bend_c, 2, 9626
4, 72364, Pitch_bend_c, 2, 8192
4, 72464, Note_on_c, 2, 38, 0
4, 72475, Note_on_c, 2, 31, 101
4, 72567, Note_on_c, 2, 31, 0
4, 72595, Note_on_c, 2, 31, 115
4, 72961, Note_on_c, 2, 31, 0
4, 73072, Note_on_c, 2, 43, 99
4, 73107, Note_on_c, 2, 43, 0
4, 73147, Note_on_c, 2, 43, 112
4, 73177, Pitch_bend_c, 2, 10634
4, 73182, Pitch_bend_c, 2, 14942
4, 73185, Pitch_bend_c, 2, 16383
4, 73276, Note_on_c, 2, 43, 0
4, 73317, Note_on_c, 2, 43, 78
4, 73326, Pitch_bend_c, 2, 11816
4, 73332, Pitch_bend_c, 2, 8864
4, 73337, Pitch_bend_c, 2, 8192
4, 73382, Note_on_c, 2, 38, 101
4, 73385, Note_on_c, 2, 43, 0
4, 73420, Pitch_bend_c, 2, 10130
4, 73425, Pitch_bend_c, 2, 14264
4, 73430, Pitch_bend_c, 2, 16383
4, 73477, Note_on_c, 2, 38, 0
4, 73505, Note_on_c, 2, 38, 110
4, 73568, Pitch_bend_c, 2, 11564
4, 73572, Pitch_bend_c, 2, 8192
4, 73665, Note_on_c, 2, 38, 0
4, 73679, Note_on_c, 2, 31, 97
4, 73797, Note_on_c, 2, 31, 0
4, 73800, Note_on_c, 2, 35, 115
4, 73902, Note_on_c, 2, 35, 0
4, 73919, Note_on_c, 2, 36, 101
4, 74040, Note_on_c, 2, 36, 0
4, 74040, Note_on_c, 2, 48, 78
4, 74077, Note_on_c, 2, 48, 0
4, 74150, Note_on_c, 2, 36, 88
4, 74177, Note_on_c, 2, 36, 0
4, 74212, Note_on_c, 2, 36, 92
4, 74255, Note_on_c, 2, 36, 0
4, 74270, Note_on_c, 2, 48, 95
4, 74340, Note_on_c, 2, 33, 74
4, 74360, Note_on_c, 2, 33, 0
4, 74381, Note_on_c, 2, 48, 0
4, 74394, Note_on_c, 2, 35, 78
4, 74505, Note_on_c, 2, 35, 0
4, 74510, Note_on_c, 2, 47, 66
4, 74537, Note_on_c, 2, 47, 0
4, 74572, Note_on_c, 2, 35, 84
4, 74615, Note_on_c, 2, 35, 0
4, 74639, Note_on_c, 2, 47, 74
4, 74760, Note_on_c, 2, 33, 74
4, 74761, Note_on_c, 2, 47, 0
4, 74800, Note_on_c, 2, 33, 0
4, 74820, Note_on_c, 2, 35, 74
4, 74832, Pitch_bend_c, 2, 8192
4, 74837, Pitch_bend_c, 2, 6338
4, 74842, Pitch_bend_c, 2, 4652
4, 74847, Pitch_bend_c, 2, 2288
4, 74850, Pitch_bend_c, 2, 0
4, 74860, Note_on_c, 2, 35, 0
4, 74885, Note_on_c, 2, 35, 88
4, 75047, Note_on_c, 2, 35, 0
4, 75055, Note_on_c, 2, 47, 110
4, 75092, Note_on_c, 2, 47, 0
4, 75177, Note_on_c, 2, 47, 99
4, 75210, Note_on_c, 2, 47, 0
4, 75217, Pitch_bend_c, 2, 512
4, 75222, Pitch_bend_c, 2, 1694
4, 75227, Pitch_bend_c, 2, 3386
4, 75234, Pitch_bend_c, 2, 5744
4, 75237, Note_on_c, 2, 28, 95
4, 75239, Pitch_bend_c, 2, 8192
4, 75372, Note_on_c, 2, 28, 0
4, 75421, Note_on_c, 2, 28, 70
4, 75472, Note_on_c, 2, 28, 0
4, 75480, Note_on_c, 2, 40, 90
4, 75521, Note_on_c, 2, 40, 0
4, 75539, Note_on_c, 2, 28, 76
4, 75570, Note_on_c, 2, 28, 0
4, 75597, Note_on_c, 2, 31, 117
4, 75725, Note_on_c, 2, 31, 0
4, 75780, Note_on_c, 2, 35, 74
4, 75820, Note_on_c, 2, 35, 0
4, 75840, Note_on_c, 2, 36, 108
4, 75962, Note_on_c, 2, 48, 95
4, 75967, Note_on_c, 2, 36, 0
4, 75995, Note_on_c, 2, 48, 0
4, 76083, Note_on_c, 2, 36, 90
4, 76112, Note_on_c, 2, 36, 0
4, 76141, Note_on_c, 2, 36, 92
4, 76187, Note_on_c, 2, 36, 0
4, 76193, Note_on_c, 2, 48, 105
4, 76287, Note_on_c, 2, 48, 0
4, 76317, Note_on_c, 2, 35, 97
4, 76432, Note_on_c, 2, 35, 0
4, 76434, Note_on_c, 2, 47, 92
4, 76462, Note_on_c, 2, 47, 0
4, 76495, Note_on_c, 2, 35, 97
4, 76522, Note_on_c, 2, 35, 0
4, 76544, Note_on_c, 2, 47, 110
4, 76722, Pitch_bend_c, 2, 7688
4, 76727, Pitch_bend_c, 2, 6254
4, 76732, Pitch_bend_c, 2, 4904
4, 76737, Pitch_bend_c, 2, 4310
4, 76742, Pitch_bend_c, 2, 3890
4, 76747, Pitch_bend_c, 2, 3722
4, 76752, Pitch_bend_c, 2, 2960
4, 76757, Pitch_bend_c, 2, 1778
4, 76762, Pitch_bend_c, 2, 344
4, 76768, Pitch_bend_c, 2, 0
4, 76794, Note_on_c, 2, 35, 92
4, 76797, Note_on_c, 2, 47, 0
4, 76968, Note_on_c, 2, 35, 0
4, 76983, Note_on_c, 2, 47, 97
4, 77015, Note_on_c, 2, 47, 0
4, 77102, Note_on_c, 2, 47, 88
4, 77122, Pitch_bend_c, 2, 1190
4, 77125, Pitch_bend_c, 2, 428
4, 77127, Pitch_bend_c, 2, 1778
4, 77128, Note_on_c, 2, 47, 0
4, 77137, Pitch_bend_c, 2, 512
4, 77140, Pitch_bend_c, 2, 2540
4, 77142, Pitch_bend_c, 2, 2120
4, 77156, Pitch_bend_c, 2, 0
4, 77159, Note_on_c, 2, 30, 74
4, 77277, Note_on_c, 2, 30, 0
4, 77295, Pitch_bend_c, 2, 0
4, 77297, Pitch_bend_c, 2, 512
4, 77301, Pitch_bend_c, 2, 1274
4, 77306, Pitch_bend_c, 2, 2036
4, 77312, Pitch_bend_c, 2, 3890
4, 77314, Pitch_bend_c, 2, 7352
4, 77320, Pitch_bend_c, 2, 8192
4, 77350, Note_on_c, 2, 28, 97
4, 77392, Note_on_c, 2, 28, 0
4, 77466, Note_on_c, 2, 28, 73
4, 77500, Note_on_c, 2, 28, 0
4, 77515, Note_on_c, 2, 35, 99
4, 77635, Note_on_c, 2, 35, 0
4, 77640, Note_on_c, 2, 36, 74
4, 77762, Note_on_c, 2, 37, 94
4, 77763, Note_on_c, 2, 36, 0
4, 77880, Note_on_c, 2, 37, 0
4, 77880, Note_on_c, 2, 49, 94
4, 77919, Note_on_c, 2, 49, 0
4, 77940, Note_on_c, 2, 37, 94
4, 77942, Note_on_c, 2, 37, 0
4, 78000, Note_on_c, 2, 37, 94
4, 78040, Note_on_c, 2, 37, 0
4, 78060, Note_on_c, 2, 49, 94
4, 78105, Note_on_c, 2, 49, 0
4, 78120, Note_on_c, 2, 36, 94
4, 78277, Note_on_c, 2, 36, 0
4, 78301, Note_on_c, 2, 36, 94
4, 78303, Note_on_c, 2, 36, 0
4, 78360, Note_on_c, 2, 48, 94
4, 78402, Note_on_c, 2, 48, 0
4, 78419, Note_on_c, 2, 36, 94
4, 78421, Note_on_c, 2, 36, 0
4, 78480, Note_on_c, 2, 36, 94
4, 78601, Note_on_c, 2, 48, 94
4, 78602, Note_on_c, 2, 36, 0
4, 78642, Note_on_c, 2, 48, 0
4, 78720, Note_on_c, 2, 31, 94
4, 78840, Note_on_c, 2, 31, 0
4, 78841, Note_on_c, 2, 43, 94
4, 78881, Note_on_c, 2, 43, 0
4, 78900, Note_on_c, 2, 31, 94
4, 78902, Note_on_c, 2, 31, 0
4, 78960, Note_on_c, 2, 31, 94
4, 79000, Note_on_c, 2, 31, 0
4, 79020, Note_on_c, 2, 43, 94
4, 79062, Note_on_c, 2, 43, 0
4, 79080, Note_on_c, 2, 30, 94
4, 79242, Note_on_c, 2, 30, 0
4, 79260, Note_on_c, 2, 30, 94
4, 79262, Note_on_c, 2, 30, 0
4, 79320, Note_on_c, 2, 42, 94
4, 79372, Note_on_c, 2, 42, 0
4, 79380, Note_on_c, 2, 30, 94
4, 79382, Note_on_c, 2, 30, 0
4, 79441, Note_on_c, 2, 33, 94
4, 79552, Note_on_c, 2, 33, 0
4, 79560, Note_on_c, 2, 34, 94
4, 79680, Note_on_c, 2, 35, 94
4, 79681, Note_on_c, 2, 34, 0
4, 79800, Note_on_c, 2, 47, 94
4, 79801, Note_on_c, 2, 35, 0
4, 79842, Note_on_c, 2, 47, 0
4, 79860, Note_on_c, 2, 35, 94
4, 79862, Note_on_c, 2, 35, 0
4, 79919, Note_on_c, 2, 35, 94
4, 79978, Note_on_c, 2, 35, 0
4, 80039, Note_on_c, 2, 52, 94
4, 80219, Note_on_c, 2, 52, 0
4, 80221, Note_on_c, 2, 28, 94
4, 80222, Note_on_c, 2, 28, 0
4, 80280, Note_on_c, 2, 28, 94
4, 80399, Note_on_c, 2, 31, 94
4, 80400, Note_on_c, 2, 28, 0
4, 80515, Note_on_c, 2, 31, 0
4, 80519, Note_on_c, 2, 32, 94
4, 80642, Note_on_c, 2, 33, 94
4, 80643, Note_on_c, 2, 32, 0
4, 80759, Note_on_c, 2, 33, 0
4, 80759, Note_on_c, 2, 45, 94
4, 80799, Note_on_c, 2, 45, 0
4, 80821, Note_on_c, 2, 33, 94
4, 80823, Note_on_c, 2, 33, 0
4, 80879, Note_on_c, 2, 33, 94
4, 80992, Note_on_c, 2, 33, 0
4, 80999, Note_on_c, 2, 38, 94
4, 81121, Note_on_c, 2, 38, 0
4, 81180, Note_on_c, 2, 45, 94
4, 81220, Note_on_c, 2, 45, 0
4, 81240, Note_on_c, 2, 50, 103
4, 81297, Note_on_c, 2, 50, 0
4, 81300, Note_on_c, 2, 52, 94
4, 81357, Note_on_c, 2, 52, 0
4, 81360, Note_on_c, 2, 50, 103
4, 81472, Note_on_c, 2, 50, 0
4, 81480, Note_on_c, 2, 38, 94
4, 81603, Note_on_c, 2, 38, 0
4, 81603, Note_on_c, 2, 36, 101
4, 81720, Note_on_c, 2, 36, 0
4, 81720, Note_on_c, 2, 48, 78
4, 81757, Note_on_c, 2, 48, 0
4, 81830, Note_on_c, 2, 36, 88
4, 81857, Note_on_c, 2, 36, 0
4, 81892, Note_on_c, 2, 36, 92
4, 81935, Note_on_c, 2, 36, 0
4, 81951, Note_on_c, 2, 48, 95
4, 82020, Note_on_c, 2, 33, 74
4, 82039, Note_on_c, 2, 33, 0
4, 82060, Note_on_c, 2, 48, 0
4, 82072, Note_on_c, 2, 35, 78
4, 82185, Note_on_c, 2, 35, 0
4, 82190, Note_on_c, 2, 47, 66
4, 82217, Note_on_c, 2, 47, 0
4, 82252, Note_on_c, 2, 35, 84
4, 82295, Note_on_c, 2, 35, 0
4, 82320, Note_on_c, 2, 47, 74
4, 82440, Note_on_c, 2, 47, 0
4, 82441, Note_on_c, 2, 33, 74
4, 82480, Note_on_c, 2, 33, 0
4, 82500, Note_on_c, 2, 35, 74
4, 82513, Pitch_bend_c, 2, 8192
4, 82519, Pitch_bend_c, 2, 6338
4, 82522, Pitch_bend_c, 2, 4652
4, 82527, Pitch_bend_c, 2, 2288
4, 82530, Pitch_bend_c, 2, 0
4, 82539, Note_on_c, 2, 35, 0
4, 82563, Note_on_c, 2, 35, 88
4, 82727, Note_on_c, 2, 35, 0
4, 82735, Note_on_c, 2, 47, 110
4, 82773, Note_on_c, 2, 47, 0
4, 82857, Note_on_c, 2, 47, 99
4, 82890, Note_on_c, 2, 47, 0
4, 82897, Pitch_bend_c, 2, 512
4, 82901, Pitch_bend_c, 2, 1694
4, 82906, Pitch_bend_c, 2, 3386
4, 82912, Pitch_bend_c, 2, 5744
4, 82915, Note_on_c, 2, 28, 95
4, 82918, Pitch_bend_c, 2, 8192
4, 83054, Note_on_c, 2, 28, 0
4, 83102, Note_on_c, 2, 28, 70
4, 83152, Note_on_c, 2, 28, 0
4, 83160, Note_on_c, 2, 40, 90
4, 83199, Note_on_c, 2, 40, 0
4, 83220, Note_on_c, 2, 28, 76
4, 83250, Note_on_c, 2, 28, 0
4, 83277, Note_on_c, 2, 31, 117
4, 83405, Note_on_c, 2, 31, 0
4, 83460, Note_on_c, 2, 35, 74
4, 83499, Note_on_c, 2, 35, 0
4, 83522, Note_on_c, 2, 36, 108
4, 83643, Note_on_c, 2, 48, 95
4, 83647, Note_on_c, 2, 36, 0
4, 83675, Note_on_c, 2, 48, 0
4, 83762, Note_on_c, 2, 36, 90
4, 83792, Note_on_c, 2, 36, 0
4, 83822, Note_on_c, 2, 36, 92
4, 83867, Note_on_c, 2, 36, 0
4, 83874, Note_on_c, 2, 48, 105
4, 83967, Note_on_c, 2, 48, 0
4, 83997, Note_on_c, 2, 35, 97
4, 84112, Note_on_c, 2, 35, 0
4, 84115, Note_on_c, 2, 47, 92
4, 84141, Note_on_c, 2, 47, 0
4, 84176, Note_on_c, 2, 35, 97
4, 84202, Note_on_c, 2, 35, 0
4, 84225, Note_on_c, 2, 47, 110
4, 84402, Pitch_bend_c, 2, 7688
4, 84407, Pitch_bend_c, 2, 6254
4, 84412, Pitch_bend_c, 2, 4904
4, 84417, Pitch_bend_c, 2, 4310
4, 84423, Pitch_bend_c, 2, 3890
4, 84427, Pitch_bend_c, 2, 3722
4, 84432, Pitch_bend_c, 2, 2960
4, 84437, Pitch_bend_c, 2, 1778
4, 84442, Pitch_bend_c, 2, 344
4, 84447, Pitch_bend_c, 2, 0
4, 84476, Note_on_c, 2, 35, 92
4, 84478, Note_on_c, 2, 47, 0
4, 84647, Note_on_c, 2, 35, 0
4, 84663, Note_on_c, 2, 47, 97
4, 84695, Note_on_c, 2, 47, 0
4, 84781, Note_on_c, 2, 47, 88
4, 84802, Pitch_bend_c, 2, 1190
4, 84805, Pitch_bend_c, 2, 428
4, 84807, Pitch_bend_c, 2, 1778
4, 84808, Note_on_c, 2, 47, 0
4, 84817, Pitch_bend_c, 2, 512
4, 84819, Pitch_bend_c, 2, 2540
4, 84822, Pitch_bend_c, 2, 2120
4, 84836, Pitch_bend_c, 2, 0
4, 84838, Note_on_c, 2, 30, 74
4, 84957, Note_on_c, 2, 30, 0
4, 84975, Pitch_bend_c, 2, 0
4, 84977, Pitch_bend_c, 2, 512
4, 84982, Pitch_bend_c, 2, 1274
4, 84987, Pitch_bend_c, 2, 2036
4, 84994, Pitch_bend_c, 2, 3890
4, 84996, Pitch_bend_c, 2, 7352
4, 85001, Pitch_bend_c, 2, 8192
4, 85029, Note_on_c, 2, 28, 97
4, 85073, Note_on_c, 2, 28, 0
4, 85144, Note_on_c, 2, 28, 73
4, 85179, Note_on_c, 2, 28, 0
4, 85195, Note_on_c, 2, 35, 99
4, 85315, Note_on_c, 2, 35, 0
4, 85320, Note_on_c, 2, 36, 74
4, 85441, Note_on_c, 2, 37, 94
4, 85442, Note_on_c, 2, 36, 0
4, 85561, Note_on_c, 2, 49, 94
4, 85562, Note_on_c, 2, 37, 0
4, 85600, Note_on_c, 2, 49, 0
4, 85620, Note_on_c, 2, 37, 94
4, 85622, Note_on_c, 2, 37, 0
4, 85680, Note_on_c, 2, 37, 94
4, 85720, Note_on_c, 2, 37, 0
4, 85740, Note_on_c, 2, 49, 94
4, 85785, Note_on_c, 2, 49, 0
4, 85799, Note_on_c, 2, 36, 94
4, 85957, Note_on_c, 2, 36, 0
4, 85980, Note_on_c, 2, 36, 94
4, 85982, Note_on_c, 2, 36, 0
4, 86040, Note_on_c, 2, 48, 94
4, 86082, Note_on_c, 2, 48, 0
4, 86101, Note_on_c, 2, 36, 94
4, 86103, Note_on_c, 2, 36, 0
4, 86160, Note_on_c, 2, 36, 94
4, 86279, Note_on_c, 2, 48, 94
4, 86280, Note_on_c, 2, 36, 0
4, 86322, Note_on_c, 2, 48, 0
4, 86402, Note_on_c, 2, 31, 94
4, 86520, Note_on_c, 2, 43, 94
4, 86521, Note_on_c, 2, 31, 0
4, 86560, Note_on_c, 2, 43, 0
4, 86580, Note_on_c, 2, 31, 94
4, 86582, Note_on_c, 2, 31, 0
4, 86640, Note_on_c, 2, 31, 94
4, 86681, Note_on_c, 2, 31, 0
4, 86701, Note_on_c, 2, 43, 94
4, 86742, Note_on_c, 2, 43, 0
4, 86760, Note_on_c, 2, 30, 94
4, 86922, Note_on_c, 2, 30, 0
4, 86941, Note_on_c, 2, 30, 94
4, 86943, Note_on_c, 2, 30, 0
4, 87000, Note_on_c, 2, 42, 94
4, 87052, Note_on_c, 2, 42, 0
4, 87060, Note_on_c, 2, 30, 94
4, 87062, Note_on_c, 2, 30, 0
4, 87120, Note_on_c, 2, 33, 94
4, 87234, Note_on_c, 2, 33, 0
4, 87241, Note_on_c, 2, 34, 94
4, 87360, Note_on_c, 2, 35, 94
4, 87361, Note_on_c, 2, 34, 0
4, 87480, Note_on_c, 2, 35, 0
4, 87481, Note_on_c, 2, 47, 94
4, 87523, Note_on_c, 2, 47, 0
4, 87539, Note_on_c, 2, 35, 94
4, 87541, Note_on_c, 2, 35, 0
4, 87600, Note_on_c, 2, 35, 94
4, 87657, Note_on_c, 2, 35, 0
4, 87720, Note_on_c, 2, 52, 94
4, 87899, Note_on_c, 2, 28, 94
4, 87900, Note_on_c, 2, 52, 0
4, 87901, Note_on_c, 2, 28, 0
4, 87960, Note_on_c, 2, 28, 94
4, 88081, Note_on_c, 2, 31, 94
4, 88082, Note_on_c, 2, 28, 0
4, 88195, Note_on_c, 2, 31, 0
4, 88200, Note_on_c, 2, 32, 94
4, 88322, Note_on_c, 2, 33, 94
4, 88323, Note_on_c, 2, 32, 0
4, 88440, Note_on_c, 2, 33, 0
4, 88440, Note_on_c, 2, 45, 94
4, 88480, Note_on_c, 2, 45, 0
4, 88500, Note_on_c, 2, 33, 94
4, 88502, Note_on_c, 2, 33, 0
4, 88560, Note_on_c, 2, 33, 94
4, 88672, Note_on_c, 2, 33, 0
4, 88681, Note_on_c, 2, 38, 94
4, 88800, Note_on_c, 2, 38, 0
4, 88860, Note_on_c, 2, 45, 94
4, 88900, Note_on_c, 2, 45, 0
4, 88921, Note_on_c, 2, 50, 103
4, 88977, Note_on_c, 2, 50, 0
4, 88980, Note_on_c, 2, 52, 94
4, 89037, Note_on_c, 2, 52, 0
4, 89040, Note_on_c, 2, 50, 103
4, 89152, Note_on_c, 2, 50, 0
4, 89159, Note_on_c, 2, 38, 94
4, 89283, Note_on_c, 2, 36, 101
4, 89284, Note_on_c, 2, 38, 0
4, 89400, Note_on_c, 2, 36, 0
4, 89400, Note_on_c, 2, 48, 78
4, 89437, Note_on_c, 2, 48, 0
4, 89510, Note_on_c, 2, 36, 88
4, 89537, Note_on_c, 2, 36, 0
4, 89572, Note_on_c, 2, 36, 92
4, 89615, Note_on_c, 2, 36, 0
4, 89629, Note_on_c, 2, 48, 95
4, 89700, Note_on_c, 2, 33, 74
4, 89720, Note_on_c, 2, 33, 0
4, 89740, Note_on_c, 2, 48, 0
4, 89753, Note_on_c, 2, 35, 78
4, 89864, Note_on_c, 2, 35, 0
4, 89869, Note_on_c, 2, 47, 66
4, 89897, Note_on_c, 2, 47, 0
4, 89932, Note_on_c, 2, 35, 84
4, 89975, Note_on_c, 2, 35, 0
4, 89999, Note_on_c, 2, 47, 74
4, 90119, Note_on_c, 2, 33, 74
4, 90120, Note_on_c, 2, 47, 0
4, 90160, Note_on_c, 2, 33, 0
4, 90180, Note_on_c, 2, 35, 74
4, 90193, Pitch_bend_c, 2, 8192
4, 90198, Pitch_bend_c, 2, 6338
4, 90202, Pitch_bend_c, 2, 4652
4, 90207, Pitch_bend_c, 2, 2288
4, 90210, Pitch_bend_c, 2, 0
4, 90219, Note_on_c, 2, 35, 0
4, 90244, Note_on_c, 2, 35, 88
4, 90407, Note_on_c, 2, 35, 0
4, 90415, Note_on_c, 2, 47, 110
4, 90452, Note_on_c, 2, 47, 0
4, 90538, Note_on_c, 2, 47, 99
4, 90570, Note_on_c, 2, 47, 0
4, 90577, Pitch_bend_c, 2, 512
4, 90583, Pitch_bend_c, 2, 1694
4, 90587, Pitch_bend_c, 2, 3386
4, 90594, Pitch_bend_c, 2, 5744
4, 90597, Note_on_c, 2, 28, 95
4, 90599, Pitch_bend_c, 2, 8192
4, 90732, Note_on_c, 2, 28, 0
4, 90782, Note_on_c, 2, 28, 70
4, 90832, Note_on_c, 2, 28, 0
4, 90840, Note_on_c, 2, 40, 90
4, 90880, Note_on_c, 2, 40, 0
4, 90900, Note_on_c, 2, 28, 76
4, 90930, Note_on_c, 2, 28, 0
4, 90957, Note_on_c, 2, 31, 117
4, 91085, Note_on_c, 2, 31, 0
4, 91141, Note_on_c, 2, 35, 74
4, 91180, Note_on_c, 2, 35, 0
4, 91201, Note_on_c, 2, 36, 108
4, 91322, Note_on_c, 2, 48, 95
4, 91327, Note_on_c, 2, 36, 0
4, 91354, Note_on_c, 2, 48, 0
4, 91442, Note_on_c, 2, 36, 90
4, 91471, Note_on_c, 2, 36, 0
4, 91502, Note_on_c, 2, 36, 92
4, 91547, Note_on_c, 2, 36, 0
4, 91553, Note_on_c, 2, 48, 105
4, 91647, Note_on_c, 2, 48, 0
4, 91679, Note_on_c, 2, 35, 97
4, 91792, Note_on_c, 2, 35, 0
4, 91795, Note_on_c, 2, 47, 92
4, 91822, Note_on_c, 2, 47, 0
4, 91855, Note_on_c, 2, 35, 97
4, 91882, Note_on_c, 2, 35, 0
4, 91905, Note_on_c, 2, 47, 110
4, 92082, Pitch_bend_c, 2, 7688
4, 92087, Pitch_bend_c, 2, 6254
4, 92092, Pitch_bend_c, 2, 4904
4, 92097, Pitch_bend_c, 2, 4310
4, 92103, Pitch_bend_c, 2, 3890
4, 92107, Pitch_bend_c, 2, 3722
4, 92112, Pitch_bend_c, 2, 2960
4, 92117, Pitch_bend_c, 2, 1778
4, 92122, Pitch_bend_c, 2, 344
4, 92127, Pitch_bend_c, 2, 0
4, 92155, Note_on_c, 2, 35, 92
4, 92157, Note_on_c, 2, 47, 0
4, 92327, Note_on_c, 2, 35, 0
4, 92343, Note_on_c, 2, 47, 97
4, 92375, Note_on_c, 2, 47, 0
4, 92462, Note_on_c, 2, 47, 88
4, 92483, Pitch_bend_c, 2, 1190
4, 92486, Pitch_bend_c, 2, 428
4, 92488, Note_on_c, 2, 47, 0
4, 92488, Pitch_bend_c, 2, 1778
4, 92499, Pitch_bend_c, 2, 512
4, 92500, Pitch_bend_c, 2, 2540
4, 92502, Pitch_bend_c, 2, 2120
4, 92516, Pitch_bend_c, 2, 0
4, 92518, Note_on_c, 2, 30, 74
4, 92637, Note_on_c, 2, 30, 0
4, 92655, Pitch_bend_c, 2, 0
4, 92657, Pitch_bend_c, 2, 512
4, 92662, Pitch_bend_c, 2, 1274
4, 92667, Pitch_bend_c, 2, 2036
4, 92672, Pitch_bend_c, 2, 3890
4, 92675, Pitch_bend_c, 2, 7352
4, 92680, Pitch_bend_c, 2, 8192
4, 92710, Note_on_c, 2, 28, 97
4, 92753, Note_on_c, 2, 28, 0
4, 92824, Note_on_c, 2, 28, 73
4, 92860, Note_on_c, 2, 28, 0
4, 92875, Note_on_c, 2, 35, 99
4, 92995, Note_on_c, 2, 35, 0
4, 93002, Note_on_c, 2, 36, 74
4, 93121, Note_on_c, 2, 36, 0
4, 93122, Note_on_c, 2, 37, 94
4, 93240, Note_on_c, 2, 37, 0
4, 93240, Note_on_c, 2, 49, 94
4, 93280, Note_on_c, 2, 49, 0
4, 93299, Note_on_c, 2, 37, 94
4, 93302, Note_on_c, 2, 37, 0
4, 93360, Note_on_c, 2, 37, 94
4, 93401, Note_on_c, 2, 37, 0
4, 93420, Note_on_c, 2, 49, 94
4, 93465, Note_on_c, 2, 49, 0
4, 93481, Note_on_c, 2, 36, 94
4, 93637, Note_on_c, 2, 36, 0
4, 93660, Note_on_c, 2, 36, 94
4, 93662, Note_on_c, 2, 36, 0
4, 93721, Note_on_c, 2, 48, 94
4, 93762, Note_on_c, 2, 48, 0
4, 93781, Note_on_c, 2, 36, 94
4, 93782, Note_on_c, 2, 36, 0
4, 93840, Note_on_c, 2, 36, 94
4, 93960, Note_on_c, 2, 48, 94
4, 93961, Note_on_c, 2, 36, 0
4, 94002, Note_on_c, 2, 48, 0
4, 94082, Note_on_c, 2, 31, 94
4, 94200, Note_on_c, 2, 43, 94
4, 94201, Note_on_c, 2, 31, 0
4, 94241, Note_on_c, 2, 43, 0
4, 94261, Note_on_c, 2, 31, 94
4, 94262, Note_on_c, 2, 31, 0
4, 94319, Note_on_c, 2, 31, 94
4, 94360, Note_on_c, 2, 31, 0
4, 94380, Note_on_c, 2, 43, 94
4, 94421, Note_on_c, 2, 43, 0
4, 94441, Note_on_c, 2, 30, 94
4, 94602, Note_on_c, 2, 30, 0
4, 94620, Note_on_c, 2, 30, 94
4, 94622, Note_on_c, 2, 30, 0
4, 94680, Note_on_c, 2, 42, 94
4, 94733, Note_on_c, 2, 42, 0
4, 94741, Note_on_c, 2, 30, 94
4, 94742, Note_on_c, 2, 30, 0
4, 94801, Note_on_c, 2, 33, 94
4, 94912, Note_on_c, 2, 33, 0
4, 94921, Note_on_c, 2, 34, 94
4, 95040, Note_on_c, 2, 35, 94
4, 95041, Note_on_c, 2, 34, 0
4, 95160, Note_on_c, 2, 47, 94
4, 95161, Note_on_c, 2, 35, 0
4, 95202, Note_on_c, 2, 47, 0
4, 95220, Note_on_c, 2, 35, 94
4, 95222, Note_on_c, 2, 35, 0
4, 95282, Note_on_c, 2, 35, 94
4, 95337, Note_on_c, 2, 35, 0
4, 95401, Note_on_c, 2, 52, 94
4, 95580, Note_on_c, 2, 28, 94
4, 95581, Note_on_c, 2, 52, 0
4, 95582, Note_on_c, 2, 28, 0
4, 95640, Note_on_c, 2, 28, 94
4, 95760, Note_on_c, 2, 31, 94
4, 95761, Note_on_c, 2, 28, 0
4, 95875, Note_on_c, 2, 31, 0
4, 95881, Note_on_c, 2, 32, 94
4, 96002, Note_on_c, 2, 33, 94
4, 96003, Note_on_c, 2, 32, 0
4, 96121, Note_on_c, 2, 45, 94
4, 96122, Note_on_c, 2, 33, 0
4, 96159, Note_on_c, 2, 45, 0
4, 96180, Note_on_c, 2, 33, 94
4, 96182, Note_on_c, 2, 33, 0
4, 96240, Note_on_c, 2, 33, 94
4, 96352, Note_on_c, 2, 33, 0
4, 96362, Note_on_c, 2, 38, 94
4, 96480, Note_on_c, 2, 38, 0
4, 96539, Note_on_c, 2, 45, 94
4, 96580, Note_on_c, 2, 45, 0
4, 96600, Note_on_c, 2, 50, 103
4, 96656, Note_on_c, 2, 50, 0
4, 96659, Note_on_c, 2, 52, 94
4, 96716, Note_on_c, 2, 52, 0
4, 96720, Note_on_c, 2, 50, 103
4, 96832, Note_on_c, 2, 50, 0
4, 96840, Note_on_c, 2, 38, 94
4, 96962, Note_on_c, 2, 36, 101
4, 96963, Note_on_c, 2, 38, 0
4, 97043, Note_on_c, 2, 36, 0
4, 97142, Note_on_c, 2, 36, 97
4, 97202, Note_on_c, 2, 36, 0
4, 97260, Note_on_c, 2, 38, 78
4, 97289, Note_on_c, 2, 38, 0
4, 97312, Note_on_c, 2, 31, 99
4, 97475, Note_on_c, 2, 31, 0
4, 97505, Note_on_c, 2, 31, 90
4, 97560, Note_on_c, 2, 31, 0
4, 97565, Note_on_c, 2, 43, 86
4, 97615, Note_on_c, 2, 43, 0
4, 97622, Note_on_c, 2, 31, 86
4, 97669, Note_on_c, 2, 31, 0
4, 97677, Note_on_c, 2, 33, 95
4, 97732, Pitch_bend_c, 2, 8612
4, 97737, Pitch_bend_c, 2, 10298
4, 97742, Pitch_bend_c, 2, 12578
4, 97747, Pitch_bend_c, 2, 14942
4, 97752, Pitch_bend_c, 2, 16383
4, 97793, Note_on_c, 2, 33, 0
4, 97799, Note_on_c, 2, 36, 92
4, 97857, Note_on_c, 2, 36, 0
4, 97882, Pitch_bend_c, 2, 15362
4, 97887, Pitch_bend_c, 2, 12494
4, 97889, Pitch_bend_c, 2, 10046
4, 97894, Pitch_bend_c, 2, 8192
4, 97926, Note_on_c, 2, 36, 101
4, 97995, Note_on_c, 2, 36, 0
4, 98107, Note_on_c, 2, 36, 99
4, 98155, Note_on_c, 2, 36, 0
4, 98230, Note_on_c, 2, 38, 80
4, 98255, Note_on_c, 2, 38, 0
4, 98285, Note_on_c, 2, 31, 101
4, 98427, Note_on_c, 2, 31, 0
4, 98462, Note_on_c, 2, 31, 95
4, 98497, Note_on_c, 2, 31, 0
4, 98529, Note_on_c, 2, 43, 44
4, 98577, Note_on_c, 2, 31, 92
4, 98587, Note_on_c, 2, 43, 0
4, 98622, Note_on_c, 2, 31, 0
4, 98639, Note_on_c, 2, 33, 112
4, 98690, Pitch_bend_c, 2, 10298
4, 98695, Pitch_bend_c, 2, 13592
4, 98697, Pitch_bend_c, 2, 16383
4, 98757, Note_on_c, 2, 33, 0
4, 98762, Note_on_c, 2, 36, 101
4, 98815, Note_on_c, 2, 36, 0
4, 98842, Pitch_bend_c, 2, 14858
4, 98847, Pitch_bend_c, 2, 12326
4, 98852, Pitch_bend_c, 2, 9962
4, 98857, Pitch_bend_c, 2, 8444
4, 98862, Pitch_bend_c, 2, 8192
4, 98880, Note_on_c, 2, 36, 99
4, 98936, Note_on_c, 2, 36, 0
4, 99060, Note_on_c, 2, 36, 99
4, 99092, Note_on_c, 2, 36, 0
4, 99185, Note_on_c, 2, 38, 58
4, 99208, Note_on_c, 2, 38, 0
4, 99242, Note_on_c, 2, 31, 112
4, 99402, Note_on_c, 2, 31, 0
4, 99422, Note_on_c, 2, 31, 95
4, 99460, Note_on_c, 2, 31, 0
4, 99484, Note_on_c, 2, 43, 88
4, 99527, Note_on_c, 2, 43, 0
4, 99540, Note_on_c, 2, 31, 97
4, 99585, Note_on_c, 2, 31, 0
4, 99592, Note_on_c, 2, 33, 103
4, 99632, Pitch_bend_c, 2, 8948
4, 99637, Pitch_bend_c, 2, 10634
4, 99640, Pitch_bend_c, 2, 13082
4, 99645, Pitch_bend_c, 2, 15866
4, 99649, Pitch_bend_c, 2, 16383
4, 99712, Note_on_c, 2, 33, 0
4, 99717, Note_on_c, 2, 36, 105
4, 99761, Note_on_c, 2, 36, 0
4, 99797, Pitch_bend_c, 2, 13676
4, 99802, Pitch_bend_c, 2, 9710
4, 99807, Pitch_bend_c, 2, 8192
4, 99844, Note_on_c, 2, 36, 105
4, 99885, Note_on_c, 2, 36, 0
4, 100027, Note_on_c, 2, 36, 103
4, 100076, Note_on_c, 2, 36, 0
4, 100155, Note_on_c, 2, 38, 78
4, 100174, Note_on_c, 2, 38, 0
4, 100208, Note_on_c, 2, 31, 110
4, 100340, Note_on_c, 2, 31, 0
4, 100382, Note_on_c, 2, 31, 88
4, 100424, Note_on_c, 2, 31, 0
4, 100467, Note_on_c, 2, 43, 52
4, 100490, Note_on_c, 2, 43, 0
4, 100500, Note_on_c, 2, 31, 99
4, 100552, Note_on_c, 2, 31, 0
4, 100553, Note_on_c, 2, 33, 92
4, 100604, Pitch_bend_c, 2, 9710
4, 100606, Pitch_bend_c, 2, 12494
4, 100611, Pitch_bend_c, 2, 16208
4, 100616, Pitch_bend_c, 2, 16383
4, 100669, Note_on_c, 2, 36, 105
4, 100677, Note_on_c, 2, 33, 0
4, 100716, Note_on_c, 2, 36, 0
4, 100767, Pitch_bend_c, 2, 14516
4, 100771, Pitch_bend_c, 2, 10718
4, 100776, Pitch_bend_c, 2, 8192
4, 100800, Note_on_c, 2, 36, 101
4, 100884, Note_on_c, 2, 36, 0
4, 100982, Note_on_c, 2, 36, 97
4, 101042, Note_on_c, 2, 36, 0
4, 101100, Note_on_c, 2, 38, 78
4, 101130, Note_on_c, 2, 38, 0
4, 101153, Note_on_c, 2, 31, 99
4, 101315, Note_on_c, 2, 31, 0
4, 101345, Note_on_c, 2, 31, 90
4, 101400, Note_on_c, 2, 31, 0
4, 101405, Note_on_c, 2, 43, 86
4, 101456, Note_on_c, 2, 43, 0
4, 101462, Note_on_c, 2, 31, 86
4, 101510, Note_on_c, 2, 31, 0
4, 101517, Note_on_c, 2, 33, 95
4, 101572, Pitch_bend_c, 2, 8612
4, 101577, Pitch_bend_c, 2, 10298
4, 101582, Pitch_bend_c, 2, 12578
4, 101587, Pitch_bend_c, 2, 14942
4, 101592, Pitch_bend_c, 2, 16383
4, 101632, Note_on_c, 2, 33, 0
4, 101637, Note_on_c, 2, 36, 92
4, 101697, Note_on_c, 2, 36, 0
4, 101722, Pitch_bend_c, 2, 15362
4, 101728, Pitch_bend_c, 2, 12494
4, 101730, Pitch_bend_c, 2, 10046
4, 101735, Pitch_bend_c, 2, 8192
4, 101766, Note_on_c, 2, 36, 101
4, 101836, Note_on_c, 2, 36, 0
4, 101947, Note_on_c, 2, 36, 99
4, 101996, Note_on_c, 2, 36, 0
4, 102069, Note_on_c, 2, 38, 80
4, 102094, Note_on_c, 2, 38, 0
4, 102125, Note_on_c, 2, 31, 101
4, 102267, Note_on_c, 2, 31, 0
4, 102302, Note_on_c, 2, 31, 95
4, 102337, Note_on_c, 2, 31, 0
4, 102369, Note_on_c, 2, 43, 44
4, 102418, Note_on_c, 2, 31, 92
4, 102427, Note_on_c, 2, 43, 0
4, 102462, Note_on_c, 2, 31, 0
4, 102477, Note_on_c, 2, 33, 112
4, 102529, Pitch_bend_c, 2, 10298
4, 102535, Pitch_bend_c, 2, 13592
4, 102537, Pitch_bend_c, 2, 16383
4, 102597, Note_on_c, 2, 33, 0
4, 102602, Note_on_c, 2, 36, 101
4, 102655, Note_on_c, 2, 36, 0
4, 102682, Pitch_bend_c, 2, 14858
4, 102687, Pitch_bend_c, 2, 12326
4, 102692, Pitch_bend_c, 2, 9962
4, 102697, Pitch_bend_c, 2, 8444
4, 102702, Pitch_bend_c, 2, 8192
4, 102726, Note_on_c, 2, 36, 101
4, 102796, Note_on_c, 2, 36, 0
4, 102907, Note_on_c, 2, 36, 99
4, 102955, Note_on_c, 2, 36, 0
4, 103029, Note_on_c, 2, 38, 80
4, 103055, Note_on_c, 2, 38, 0
4, 103085, Note_on_c, 2, 43, 101
4, 103227, Note_on_c, 2, 43, 0
4, 103262, Note_on_c, 2, 31, 95
4, 103297, Note_on_c, 2, 31, 0
4, 103330, Note_on_c, 2, 40, 78
4, 103377, Note_on_c, 2, 31, 92
4, 103387, Note_on_c, 2, 40, 0
4, 103422, Note_on_c, 2, 31, 0
4, 103436, Note_on_c, 2, 33, 112
4, 103489, Pitch_bend_c, 2, 10298
4, 103495, Pitch_bend_c, 2, 13592
4, 103497, Pitch_bend_c, 2, 16383
4, 103557, Note_on_c, 2, 33, 0
4, 103562, Note_on_c, 2, 36, 101
4, 103615, Note_on_c, 2, 36, 0
4, 103642, Pitch_bend_c, 2, 14858
4, 103647, Pitch_bend_c, 2, 12326
4, 103652, Pitch_bend_c, 2, 9962
4, 103657, Pitch_bend_c, 2, 8444
4, 103662, Pitch_bend_c, 2, 8192
4, 103682, Note_on_c, 2, 36, 99
4, 103845, Note_on_c, 2, 36, 0
4, 103859, Note_on_c, 2, 38, 99
4, 104017, Note_on_c, 2, 38, 0
4, 104042, Note_on_c, 2, 31, 112
4, 104043, Control_c, 2, 91, 0
4, 104962, Note_on_c, 2, 31, 0
4, 104962, End_track
5, 0, Start_track
5, 0, MIDI_port, 0
5, 0, Title_t, "C4-P31-Lead guitar"
5, 0, Control_c, 3, 0, 56
5, 0, Control_c, 3, 32, 0
5, 0, Program_c, 3, 30
5, 0, Control_c, 3, 7, 82
5, 0, Control_c, 3, 10, 92
5, 0, Control_c, 3, 93, 99
5, 0, Control_c, 3, 91, 101
5, 32640, Note_on_c, 3, 74, 85
5, 32717, Note_on_c, 3, 74, 0
5, 32802, Note_on_c, 3, 74, 62
5, 32900, Note_on_c, 3, 74, 0
5, 32999, Note_on_c, 3, 76, 78
5, 33522, Note_on_c, 3, 76, 0
5, 34561, Note_on_c, 3, 62, 85
5, 34637, Note_on_c, 3, 62, 0
5, 34722, Note_on_c, 3, 62, 62
5, 34820, Note_on_c, 3, 62, 0
5, 34917, Note_on_c, 3, 64, 78
5, 35442, Note_on_c, 3, 64, 0
5, 36174, Pitch_bend_c, 3, 8108
5, 36187, Pitch_bend_c, 3, 6758
5, 36192, Pitch_bend_c, 3, 5660
5, 36202, Pitch_bend_c, 3, 4736
5, 36207, Pitch_bend_c, 3, 3722
5, 36214, Pitch_bend_c, 3, 2792
5, 36219, Pitch_bend_c, 3, 2204
5, 36227, Pitch_bend_c, 3, 1694
5, 36232, Pitch_bend_c, 3, 1526
5, 36255, Note_on_c, 3, 60, 88
5, 36282, Pitch_bend_c, 3, 2624
5, 36290, Pitch_bend_c, 3, 4484
5, 36295, Pitch_bend_c, 3, 6086
5, 36304, Pitch_bend_c, 3, 8024
5, 36312, Pitch_bend_c, 3, 8192
5, 36468, Note_on_c, 3, 60, 0
5, 36519, Note_on_c, 3, 59, 88
5, 36705, Note_on_c, 3, 59, 0
5, 36869, Note_on_c, 3, 52, 91
5, 37344, Note_on_c, 3, 52, 0
5, 37457, Note_on_c, 3, 62, 83
5, 37631, Note_on_c, 3, 62, 0
5, 37796, Note_on_c, 3, 64, 88
5, 38345, Note_on_c, 3, 64, 0
5, 38399, Note_on_c, 3, 57, 80
5, 38677, Note_on_c, 3, 57, 0
5, 38772, Note_on_c, 3, 62, 87
5, 39285, Note_on_c, 3, 62, 0
5, 50174, Pitch_bend_c, 3, 10886
5, 50181, Pitch_bend_c, 3, 14774
5, 50187, Pitch_bend_c, 3, 16383
5, 50640, Note_on_c, 3, 65, 108
5, 50642, Note_on_c, 3, 62, 107
5, 50694, Pitch_bend_c, 3, 14774
5, 50699, Pitch_bend_c, 3, 12494
5, 50704, Pitch_bend_c, 3, 10298
5, 50712, Pitch_bend_c, 3, 8948
5, 50720, Pitch_bend_c, 3, 8270
5, 50725, Pitch_bend_c, 3, 8192
5, 50744, Pitch_bend_c, 3, 9452
5, 50752, Pitch_bend_c, 3, 11900
5, 50759, Pitch_bend_c, 3, 15782
5, 50767, Pitch_bend_c, 3, 16383
5, 50875, Pitch_bend_c, 3, 15782
5, 50892, Pitch_bend_c, 3, 13082
5, 50897, Pitch_bend_c, 3, 8192
5, 51527, Note_on_c, 3, 65, 0
5, 51540, Note_on_c, 3, 66, 90
5, 51541, Note_on_c, 3, 62, 0
5, 51542, Note_on_c, 3, 66, 0
5, 51555, Note_on_c, 3, 67, 90
5, 51555, Note_on_c, 3, 63, 90
5, 51557, Note_on_c, 3, 63, 0
5, 51557, Note_on_c, 3, 67, 0
5, 51569, Note_on_c, 3, 68, 90
5, 51569, Note_on_c, 3, 64, 90
5, 51572, Note_on_c, 3, 68, 0
5, 51573, Note_on_c, 3, 64, 0
5, 51585, Note_on_c, 3, 69, 90
5, 51585, Note_on_c, 3, 65, 90
5, 51587, Note_on_c, 3, 65, 0
5, 51587, Note_on_c, 3, 69, 0
5, 51600, Note_on_c, 3, 70, 90
5, 51601, Note_on_c, 3, 66, 90
5, 51602, Note_on_c, 3, 70, 0
5, 51603, Note_on_c, 3, 66, 0
5, 51614, Note_on_c, 3, 71, 90
5, 51614, Note_on_c, 3, 67, 90
5, 51705, Note_on_c, 3, 67, 0
5, 51705, Note_on_c, 3, 71, 0
5, 51719, Note_on_c, 3, 68, 90
5, 51720, Note_on_c, 3, 72, 90
5, 51840, Note_on_c, 3, 72, 0
5, 51840, Note_on_c, 3, 68, 0
5, 51840, Note_on_c, 3, 71, 92
5, 51841, Note_on_c, 3, 67, 92
5, 52379, Note_on_c, 3, 71, 0
5, 52380, Note_on_c, 3, 67, 0
5, 52439, Note_on_c, 3, 62, 106
5, 52441, Note_on_c, 3, 65, 107
5, 52457, Pitch_bend_c, 3, 9452
5, 52462, Pitch_bend_c, 3, 16383
5, 52592, Pitch_bend_c, 3, 14774
5, 52600, Pitch_bend_c, 3, 12410
5, 52605, Pitch_bend_c, 3, 10130
5, 52613, Pitch_bend_c, 3, 8696
5, 52620, Pitch_bend_c, 3, 8192
5, 52632, Pitch_bend_c, 3, 9626
5, 52639, Pitch_bend_c, 3, 16034
5, 52644, Pitch_bend_c, 3, 16383
5, 52787, Pitch_bend_c, 3, 13676
5, 52794, Pitch_bend_c, 3, 8192
5, 52979, Note_on_c, 3, 62, 0
5, 52981, Note_on_c, 3, 65, 0
5, 52994, Note_on_c, 3, 66, 92
5, 52996, Note_on_c, 3, 63, 92
5, 52997, Note_on_c, 3, 66, 0
5, 52998, Note_on_c, 3, 63, 0
5, 53010, Note_on_c, 3, 67, 92
5, 53010, Note_on_c, 3, 64, 92
5, 53012, Note_on_c, 3, 64, 0
5, 53012, Note_on_c, 3, 67, 0
5, 53025, Note_on_c, 3, 68, 92
5, 53025, Note_on_c, 3, 65, 92
5, 53027, Note_on_c, 3, 65, 0
5, 53027, Note_on_c, 3, 68, 0
5, 53039, Note_on_c, 3, 69, 92
5, 53040, Note_on_c, 3, 66, 92
5, 53249, Note_on_c, 3, 69, 0
5, 53250, Note_on_c, 3, 66, 0
5, 53265, Note_on_c, 3, 68, 92
5, 53265, Note_on_c, 3, 65, 92
5, 53267, Note_on_c, 3, 65, 0
5, 53267, Note_on_c, 3, 68, 0
5, 53279, Note_on_c, 3, 67, 92
5, 53280, Note_on_c, 3, 64, 92
5, 53415, Note_on_c, 3, 67, 0
5, 53416, Note_on_c, 3, 64, 0
5, 53430, Note_on_c, 3, 68, 92
5, 53431, Note_on_c, 3, 65, 92
5, 53432, Note_on_c, 3, 68, 0
5, 53433, Note_on_c, 3, 65, 0
5, 53445, Note_on_c, 3, 69, 92
5, 53446, Note_on_c, 3, 66, 92
5, 53448, Note_on_c, 3, 66, 0
5, 53448, Note_on_c, 3, 69, 0
5, 53461, Note_on_c, 3, 70, 92
5, 53463, Note_on_c, 3, 67, 92
5, 53464, Note_on_c, 3, 70, 0
5, 53465, Note_on_c, 3, 67, 0
5, 53475, Note_on_c, 3, 71, 92
5, 53477, Note_on_c, 3, 71, 0
5, 53489, Note_on_c, 3, 72, 92
5, 53490, Note_on_c, 3, 68, 92
5, 53492, Note_on_c, 3, 68, 0
5, 53492, Note_on_c, 3, 72, 0
5, 53504, Note_on_c, 3, 73, 92
5, 53504, Note_on_c, 3, 69, 92
5, 53507, Note_on_c, 3, 69, 0
5, 53507, Note_on_c, 3, 73, 0
5, 53520, Note_on_c, 3, 74, 92
5, 53521, Note_on_c, 3, 70, 92
5, 53522, Note_on_c, 3, 70, 0
5, 53535, Note_on_c, 3, 71, 92
5, 53985, Note_on_c, 3, 71, 0
5, 54000, Note_on_c, 3, 74, 0
5, 54075, Note_on_c, 3, 67, 101
5, 54077, Note_on_c, 3, 67, 0
5, 54104, Note_on_c, 3, 74, 101
5, 54107, Note_on_c, 3, 74, 0
5, 54142, Note_on_c, 3, 81, 113
5, 54262, Note_on_c, 3, 81, 0
5, 54269, Note_on_c, 3, 74, 92
5, 54299, Note_on_c, 3, 74, 0
5, 54314, Note_on_c, 3, 67, 92
5, 54419, Note_on_c, 3, 67, 0
5, 54449, Note_on_c, 3, 67, 92
5, 54555, Note_on_c, 3, 67, 0
5, 54585, Note_on_c, 3, 74, 102
5, 54632, Pitch_bend_c, 3, 8444
5, 54637, Pitch_bend_c, 3, 9626
5, 54647, Pitch_bend_c, 3, 11396
5, 54655, Pitch_bend_c, 3, 12998
5, 54659, Pitch_bend_c, 3, 14348
5, 54667, Pitch_bend_c, 3, 15698
5, 54672, Pitch_bend_c, 3, 16383
5, 54787, Pitch_bend_c, 3, 15782
5, 54795, Pitch_bend_c, 3, 14600
5, 54803, Pitch_bend_c, 3, 13418
5, 54808, Pitch_bend_c, 3, 12152
5, 54810, Note_on_c, 3, 74, 0
5, 54814, Pitch_bend_c, 3, 11312
5, 54822, Pitch_bend_c, 3, 10550
5, 54828, Pitch_bend_c, 3, 9962
5, 54836, Pitch_bend_c, 3, 9452
5, 54840, Note_on_c, 3, 74, 104
5, 54845, Pitch_bend_c, 3, 9116
5, 54869, Pitch_bend_c, 3, 10130
5, 54874, Pitch_bend_c, 3, 11816
5, 54882, Pitch_bend_c, 3, 13508
5, 54890, Pitch_bend_c, 3, 15026
5, 54895, Pitch_bend_c, 3, 15950
5, 54904, Pitch_bend_c, 3, 16383
5, 55019, Pitch_bend_c, 3, 16034
5, 55027, Pitch_bend_c, 3, 14774
5, 55032, Pitch_bend_c, 3, 13082
5, 55040, Pitch_bend_c, 3, 11732
5, 55047, Pitch_bend_c, 3, 10466
5, 55052, Pitch_bend_c, 3, 9452
5, 55059, Pitch_bend_c, 3, 8780
5, 55067, Pitch_bend_c, 3, 8192
5, 55079, Note_on_c, 3, 74, 0
5, 55124, Note_on_c, 3, 67, 92
5, 55229, Note_on_c, 3, 67, 0
5, 55260, Note_on_c, 3, 67, 92
5, 55564, Pitch_bend_c, 3, 7604
5, 55572, Pitch_bend_c, 3, 6338
5, 55577, Pitch_bend_c, 3, 5408
5, 55584, Pitch_bend_c, 3, 4820
5, 55617, Pitch_bend_c, 3, 4988
5, 55628, Pitch_bend_c, 3, 5576
5, 55634, Note_on_c, 3, 67, 0
5, 55636, Pitch_bend_c, 3, 6590
5, 55642, Pitch_bend_c, 3, 8192
5, 55647, Pitch_bend_c, 3, 8192
5, 55679, Note_on_c, 3, 65, 112
5, 55737, Note_on_c, 3, 65, 0
5, 55739, Note_on_c, 3, 67, 97
5, 55797, Note_on_c, 3, 67, 0
5, 55800, Note_on_c, 3, 65, 97
5, 55857, Note_on_c, 3, 65, 0
5, 55920, Note_on_c, 3, 64, 113
5, 55977, Note_on_c, 3, 64, 0
5, 55979, Note_on_c, 3, 65, 92
5, 56037, Note_on_c, 3, 65, 0
5, 56039, Note_on_c, 3, 64, 92
5, 56097, Note_on_c, 3, 64, 0
5, 56100, Note_on_c, 3, 60, 57
5, 56157, Note_on_c, 3, 60, 0
5, 56160, Note_on_c, 3, 62, 111
5, 56219, Note_on_c, 3, 62, 0
5, 56221, Note_on_c, 3, 64, 92
5, 56277, Note_on_c, 3, 64, 0
5, 56279, Note_on_c, 3, 62, 92
5, 56337, Note_on_c, 3, 62, 0
5, 56339, Note_on_c, 3, 60, 63
5, 56397, Note_on_c, 3, 60, 0
5, 56399, Note_on_c, 3, 62, 102
5, 56457, Note_on_c, 3, 62, 0
5, 56460, Note_on_c, 3, 58, 101
5, 56542, Pitch_bend_c, 3, 8528
5, 56549, Pitch_bend_c, 3, 8864
5, 56554, Pitch_bend_c, 3, 9284
5, 56560, Pitch_bend_c, 3, 9794
5, 56567, Pitch_bend_c, 3, 10214
5, 56575, Pitch_bend_c, 3, 10550
5, 56584, Pitch_bend_c, 3, 10718
5, 56602, Pitch_bend_c, 3, 10976
5, 56610, Pitch_bend_c, 3, 11228
5, 56617, Pitch_bend_c, 3, 11480
5, 56622, Pitch_bend_c, 3, 11648
5, 56630, Pitch_bend_c, 3, 8192
5, 56639, Note_on_c, 3, 55, 98
5, 56640, Note_on_c, 3, 58, 0
5, 56802, Pitch_bend_c, 3, 8024
5, 56809, Pitch_bend_c, 3, 7268
5, 56817, Pitch_bend_c, 3, 6842
5, 56825, Pitch_bend_c, 3, 6674
5, 56849, Pitch_bend_c, 3, 6422
5, 56857, Pitch_bend_c, 3, 6170
5, 56884, Pitch_bend_c, 3, 5918
5, 56892, Pitch_bend_c, 3, 5492
5, 56899, Pitch_bend_c, 3, 5156
5, 56907, Pitch_bend_c, 3, 4820
5, 56912, Pitch_bend_c, 3, 4484
5, 56934, Note_on_c, 3, 55, 0
5, 56939, Note_on_c, 3, 54, 92
5, 56949, Pitch_bend_c, 3, 5240
5, 56957, Pitch_bend_c, 3, 6086
5, 56962, Pitch_bend_c, 3, 7268
5, 56970, Pitch_bend_c, 3, 8192
5, 56997, Note_on_c, 3, 54, 0
5, 56999, Note_on_c, 3, 57, 112
5, 57057, Note_on_c, 3, 57, 0
5, 57059, Note_on_c, 3, 55, 67
5, 57117, Note_on_c, 3, 55, 0
5, 57119, Note_on_c, 3, 56, 68
5, 57177, Note_on_c, 3, 56, 0
5, 57180, Note_on_c, 3, 59, 113
5, 57237, Note_on_c, 3, 59, 0
5, 57240, Note_on_c, 3, 56, 65
5, 57298, Note_on_c, 3, 56, 0
5, 57300, Note_on_c, 3, 57, 66
5, 57357, Note_on_c, 3, 57, 0
5, 57359, Note_on_c, 3, 60, 113
5, 57417, Note_on_c, 3, 60, 0
5, 57660, Note_on_c, 3, 58, 92
5, 57717, Note_on_c, 3, 58, 0
5, 57719, Note_on_c, 3, 61, 113
5, 57777, Note_on_c, 3, 61, 0
5, 57780, Note_on_c, 3, 58, 66
5, 57838, Note_on_c, 3, 58, 0
5, 57841, Note_on_c, 3, 59, 67
5, 57897, Note_on_c, 3, 59, 0
5, 57900, Note_on_c, 3, 62, 113
5, 57957, Note_on_c, 3, 62, 0
5, 57959, Note_on_c, 3, 60, 66
5, 58017, Note_on_c, 3, 60, 0
5, 58019, Note_on_c, 3, 61, 65
5, 58077, Note_on_c, 3, 61, 0
5, 58079, Note_on_c, 3, 64, 113
5, 58137, Note_on_c, 3, 64, 0
5, 58141, Note_on_c, 3, 61, 60
5, 58197, Note_on_c, 3, 61, 0
5, 58200, Note_on_c, 3, 62, 67
5, 58257, Note_on_c, 3, 62, 0
5, 58259, Note_on_c, 3, 65, 113
5, 58317, Note_on_c, 3, 65, 0
5, 58561, Note_on_c, 3, 66, 92
5, 58589, Note_on_c, 3, 66, 0
5, 58600, Note_on_c, 3, 69, 92
5, 58629, Note_on_c, 3, 69, 0
5, 58639, Note_on_c, 3, 62, 92
5, 58669, Note_on_c, 3, 62, 0
5, 58679, Note_on_c, 3, 66, 92
5, 58711, Note_on_c, 3, 66, 0
5, 58720, Note_on_c, 3, 69, 92
5, 58750, Note_on_c, 3, 69, 0
5, 58755, Note_on_c, 3, 73, 92
5, 58784, Note_on_c, 3, 73, 0
5, 58800, Note_on_c, 3, 69, 92
5, 58829, Note_on_c, 3, 69, 0
5, 58839, Note_on_c, 3, 73, 92
5, 58869, Note_on_c, 3, 73, 0
5, 58874, Note_on_c, 3, 76, 92
5, 58905, Note_on_c, 3, 76, 0
5, 58919, Note_on_c, 3, 78, 92
5, 58950, Note_on_c, 3, 78, 0
5, 58960, Note_on_c, 3, 76, 92
5, 58990, Note_on_c, 3, 76, 0
5, 58996, Note_on_c, 3, 78, 92
5, 59025, Note_on_c, 3, 78, 0
5, 59055, Pitch_bend_c, 3, 512
5, 59056, Note_on_c, 3, 79, 113
5, 59070, Pitch_bend_c, 3, 1694
5, 59084, Pitch_bend_c, 3, 5324
5, 59099, Pitch_bend_c, 3, 8192
5, 59404, Pitch_bend_c, 3, 6926
5, 59412, Pitch_bend_c, 3, 5492
5, 59417, Pitch_bend_c, 3, 4820
5, 59424, Pitch_bend_c, 3, 4562
5, 59467, Pitch_bend_c, 3, 4736
5, 59474, Pitch_bend_c, 3, 5408
5, 59479, Pitch_bend_c, 3, 6170
5, 59479, Pitch_bend_c, 3, 8192
5, 59487, Pitch_bend_c, 3, 7010
5, 59492, Pitch_bend_c, 3, 8024
5, 59499, Pitch_bend_c, 3, 8192
5, 59551, Pitch_bend_c, 3, 8192
5, 59752, Note_on_c, 3, 79, 0
5, 59760, Note_on_c, 3, 69, 109
5, 59877, Pitch_bend_c, 3, 8444
5, 59885, Pitch_bend_c, 3, 8696
5, 59894, Pitch_bend_c, 3, 8864
5, 59902, Pitch_bend_c, 3, 9032
5, 59910, Pitch_bend_c, 3, 9200
5, 59914, Pitch_bend_c, 3, 9452
5, 59922, Pitch_bend_c, 3, 9626
5, 59927, Pitch_bend_c, 3, 9794
5, 59947, Pitch_bend_c, 3, 9962
5, 59954, Pitch_bend_c, 3, 10130
5, 59959, Pitch_bend_c, 3, 10298
5, 59967, Pitch_bend_c, 3, 10466
5, 59975, Pitch_bend_c, 3, 10634
5, 60020, Pitch_bend_c, 3, 10886
5, 60034, Pitch_bend_c, 3, 11060
5, 60059, Pitch_bend_c, 3, 11228
5, 60075, Pitch_bend_c, 3, 11396
5, 60102, Pitch_bend_c, 3, 11564
5, 60116, Pitch_bend_c, 3, 11732
5, 60130, Pitch_bend_c, 3, 11984
5, 60170, Pitch_bend_c, 3, 12152
5, 60204, Pitch_bend_c, 3, 11480
5, 60209, Note_on_c, 3, 69, 0
5, 60212, Pitch_bend_c, 3, 10634
5, 60217, Pitch_bend_c, 3, 9452
5, 60225, Pitch_bend_c, 3, 8192
5, 60240, Note_on_c, 3, 69, 104
5, 60249, Pitch_bend_c, 3, 9200
5, 60257, Pitch_bend_c, 3, 10046
5, 60262, Pitch_bend_c, 3, 11228
5, 60270, Pitch_bend_c, 3, 12494
5, 60275, Pitch_bend_c, 3, 13676
5, 60282, Pitch_bend_c, 3, 14774
5, 60287, Pitch_bend_c, 3, 15026
5, 60299, Pitch_bend_c, 3, 14180
5, 60307, Pitch_bend_c, 3, 12068
5, 60314, Pitch_bend_c, 3, 10046
5, 60320, Pitch_bend_c, 3, 8192
5, 60357, Note_on_c, 3, 69, 0
5, 60359, Note_on_c, 3, 67, 92
5, 60417, Note_on_c, 3, 67, 0
5, 60419, Note_on_c, 3, 64, 77
5, 60477, Note_on_c, 3, 64, 0
5, 60479, Note_on_c, 3, 67, 88
5, 60537, Note_on_c, 3, 67, 0
5, 60540, Note_on_c, 3, 69, 102
5, 60597, Note_on_c, 3, 69, 0
5, 60599, Note_on_c, 3, 67, 78
5, 60657, Note_on_c, 3, 67, 0
5, 60660, Note_on_c, 3, 64, 64
5, 60717, Note_on_c, 3, 64, 0
5, 60719, Note_on_c, 3, 67, 98
5, 60777, Note_on_c, 3, 67, 0
5, 60780, Note_on_c, 3, 62, 75
5, 60837, Note_on_c, 3, 62, 0
5, 60840, Note_on_c, 3, 60, 67
5, 60958, Note_on_c, 3, 60, 0
5, 60960, Note_on_c, 3, 67, 103
5, 61017, Note_on_c, 3, 67, 0
5, 61019, Note_on_c, 3, 60, 77
5, 61077, Note_on_c, 3, 60, 0
5, 61080, Note_on_c, 3, 59, 72
5, 61197, Note_on_c, 3, 59, 0
5, 61200, Note_on_c, 3, 67, 105
5, 61257, Note_on_c, 3, 67, 0
5, 61259, Note_on_c, 3, 59, 74
5, 61317, Note_on_c, 3, 59, 0
5, 61319, Note_on_c, 3, 57, 72
5, 61437, Note_on_c, 3, 57, 0
5, 61455, Note_on_c, 3, 65, 98
5, 61497, Pitch_bend_c, 3, 8864
5, 61505, Pitch_bend_c, 3, 9878
5, 61513, Pitch_bend_c, 3, 10976
5, 61520, Pitch_bend_c, 3, 12494
5, 61525, Pitch_bend_c, 3, 13508
5, 61532, Pitch_bend_c, 3, 14348
5, 61540, Pitch_bend_c, 3, 14942
5, 61545, Pitch_bend_c, 3, 15362
5, 61552, Pitch_bend_c, 3, 15698
5, 61560, Pitch_bend_c, 3, 16034
5, 61567, Pitch_bend_c, 3, 16376
5, 61579, Pitch_bend_c, 3, 16383
5, 61762, Pitch_bend_c, 3, 16376
5, 61767, Pitch_bend_c, 3, 15950
5, 61774, Pitch_bend_c, 3, 15446
5, 61782, Pitch_bend_c, 3, 14774
5, 61787, Pitch_bend_c, 3, 13760
5, 61796, Pitch_bend_c, 3, 12242
5, 61810, Pitch_bend_c, 3, 8192
5, 61852, Note_on_c, 3, 62, 92
5, 61855, Note_on_c, 3, 65, 0
5, 61912, Note_on_c, 3, 64, 92
5, 61922, Note_on_c, 3, 62, 0
5, 62155, Note_on_c, 3, 62, 92
5, 62161, Note_on_c, 3, 64, 0
5, 62389, Note_on_c, 3, 57, 92
5, 62415, Note_on_c, 3, 62, 0
5, 62489, Pitch_bend_c, 3, 8444
5, 62494, Pitch_bend_c, 3, 8864
5, 62502, Pitch_bend_c, 3, 9368
5, 62507, Pitch_bend_c, 3, 9794
5, 62515, Pitch_bend_c, 3, 10130
5, 62520, Pitch_bend_c, 3, 10634
5, 62527, Pitch_bend_c, 3, 11312
5, 62534, Pitch_bend_c, 3, 11732
5, 62542, Pitch_bend_c, 3, 12152
5, 62547, Pitch_bend_c, 3, 12410
5, 62554, Pitch_bend_c, 3, 12578
5, 62560, Pitch_bend_c, 3, 12746
5, 62567, Pitch_bend_c, 3, 12914
5, 62574, Pitch_bend_c, 3, 13082
5, 62582, Pitch_bend_c, 3, 13250
5, 62590, Pitch_bend_c, 3, 13418
5, 62603, Pitch_bend_c, 3, 13844
5, 62607, Pitch_bend_c, 3, 14180
5, 62615, Pitch_bend_c, 3, 14348
5, 62627, Pitch_bend_c, 3, 14600
5, 62645, Pitch_bend_c, 3, 14774
5, 62649, Pitch_bend_c, 3, 15110
5, 62657, Pitch_bend_c, 3, 15278
5, 62667, Pitch_bend_c, 3, 15446
5, 62677, Pitch_bend_c, 3, 15698
5, 62707, Pitch_bend_c, 3, 15950
5, 62757, Pitch_bend_c, 3, 16124
5, 62792, Pitch_bend_c, 3, 16292
5, 62865, Pitch_bend_c, 3, 16383
5, 62877, Pitch_bend_c, 3, 16383
5, 63922, Note_on_c, 3, 57, 0
5, 64090, Pitch_bend_c, 3, 16383
5, 64097, Pitch_bend_c, 3, 15698
5, 64102, Pitch_bend_c, 3, 14516
5, 64107, Pitch_bend_c, 3, 13334
5, 64114, Pitch_bend_c, 3, 12068
5, 64122, Pitch_bend_c, 3, 10718
5, 64127, Pitch_bend_c, 3, 9878
5, 64134, Pitch_bend_c, 3, 9452
5, 64140, Pitch_bend_c, 3, 8948
5, 64147, Pitch_bend_c, 3, 8444
5, 64154, Pitch_bend_c, 3, 8192
5, 74881, Note_on_c, 3, 74, 85
5, 74958, Note_on_c, 3, 74, 0
5, 75042, Note_on_c, 3, 74, 62
5, 75139, Note_on_c, 3, 74, 0
5, 75238, Note_on_c, 3, 76, 78
5, 75762, Note_on_c, 3, 76, 0
5, 76799, Note_on_c, 3, 74, 85
5, 76877, Note_on_c, 3, 74, 0
5, 76962, Note_on_c, 3, 74, 62
5, 77059, Note_on_c, 3, 74, 0
5, 77158, Note_on_c, 3, 76, 78
5, 77682, Note_on_c, 3, 76, 0
5, 78415, Pitch_bend_c, 3, 8108
5, 78426, Pitch_bend_c, 3, 6758
5, 78432, Pitch_bend_c, 3, 5660
5, 78442, Pitch_bend_c, 3, 4736
5, 78447, Pitch_bend_c, 3, 3722
5, 78455, Pitch_bend_c, 3, 2792
5, 78460, Pitch_bend_c, 3, 2204
5, 78467, Pitch_bend_c, 3, 1694
5, 78473, Pitch_bend_c, 3, 1526
5, 78522, Pitch_bend_c, 3, 2624
5, 78530, Pitch_bend_c, 3, 4484
5, 78535, Pitch_bend_c, 3, 6086
5, 78544, Pitch_bend_c, 3, 8024
5, 78552, Pitch_bend_c, 3, 8192
5, 78734, Note_on_c, 3, 71, 83
5, 78884, Note_on_c, 3, 71, 0
5, 79110, Note_on_c, 3, 64, 84
5, 79585, Note_on_c, 3, 64, 0
5, 79697, Note_on_c, 3, 74, 91
5, 79837, Note_on_c, 3, 74, 0
5, 80035, Note_on_c, 3, 76, 78
5, 80585, Note_on_c, 3, 76, 0
5, 80640, Note_on_c, 3, 69, 74
5, 80917, Note_on_c, 3, 69, 0
5, 81012, Note_on_c, 3, 74, 83
5, 81525, Note_on_c, 3, 74, 0
5, 82559, Note_on_c, 3, 74, 85
5, 82637, Note_on_c, 3, 74, 0
5, 82722, Note_on_c, 3, 74, 62
5, 82820, Note_on_c, 3, 74, 0
5, 82917, Note_on_c, 3, 76, 78
5, 83442, Note_on_c, 3, 76, 0
5, 84479, Note_on_c, 3, 74, 85
5, 84557, Note_on_c, 3, 74, 0
5, 84642, Note_on_c, 3, 74, 62
5, 84739, Note_on_c, 3, 74, 0
5, 84837, Note_on_c, 3, 76, 78
5, 85362, Note_on_c, 3, 76, 0
5, 86095, Pitch_bend_c, 3, 8108
5, 86107, Pitch_bend_c, 3, 6758
5, 86114, Pitch_bend_c, 3, 5660
5, 86123, Pitch_bend_c, 3, 4736
5, 86129, Pitch_bend_c, 3, 3722
5, 86135, Pitch_bend_c, 3, 2792
5, 86139, Pitch_bend_c, 3, 2204
5, 86146, Pitch_bend_c, 3, 1694
5, 86152, Pitch_bend_c, 3, 1526
5, 86202, Pitch_bend_c, 3, 2624
5, 86210, Pitch_bend_c, 3, 4484
5, 86215, Pitch_bend_c, 3, 6086
5, 86225, Pitch_bend_c, 3, 8024
5, 86232, Pitch_bend_c, 3, 8192
5, 86439, Note_on_c, 3, 71, 84
5, 86618, Note_on_c, 3, 71, 0
5, 86789, Note_on_c, 3, 64, 86
5, 87264, Note_on_c, 3, 64, 0
5, 87377, Note_on_c, 3, 74, 98
5, 87518, Note_on_c, 3, 74, 0
5, 87715, Note_on_c, 3, 76, 87
5, 88265, Note_on_c, 3, 76, 0
5, 88321, Note_on_c, 3, 69, 87
5, 88597, Note_on_c, 3, 69, 0
5, 88692, Note_on_c, 3, 74, 87
5, 89206, Note_on_c, 3, 74, 0
5, 89281, Note_on_c, 3, 69, 97
5, 89352, Pitch_bend_c, 3, 8696
5, 89357, Pitch_bend_c, 3, 9452
5, 89365, Pitch_bend_c, 3, 10550
5, 89370, Pitch_bend_c, 3, 11984
5, 89377, Pitch_bend_c, 3, 13928
5, 89385, Pitch_bend_c, 3, 15866
5, 89390, Pitch_bend_c, 3, 16383
5, 90137, Note_on_c, 3, 69, 0
5, 90215, Pitch_bend_c, 3, 16292
5, 90221, Pitch_bend_c, 3, 12914
5, 90229, Pitch_bend_c, 3, 10382
5, 90234, Pitch_bend_c, 3, 8948
5, 90377, Note_on_c, 3, 74, 100
5, 90415, Pitch_bend_c, 3, 8696
5, 90425, Pitch_bend_c, 3, 10634
5, 90430, Pitch_bend_c, 3, 13082
5, 90445, Pitch_bend_c, 3, 16292
5, 90450, Pitch_bend_c, 3, 16383
5, 90512, Note_on_c, 3, 74, 0
5, 90550, Note_on_c, 3, 74, 98
5, 90567, Pitch_bend_c, 3, 13418
5, 90572, Pitch_bend_c, 3, 9626
5, 90582, Pitch_bend_c, 3, 8192
5, 90731, Note_on_c, 3, 69, 100
5, 90734, Note_on_c, 3, 74, 0
5, 90789, Pitch_bend_c, 3, 8864
5, 90795, Pitch_bend_c, 3, 9962
5, 90802, Pitch_bend_c, 3, 11060
5, 90810, Pitch_bend_c, 3, 12242
5, 90815, Pitch_bend_c, 3, 13508
5, 90822, Pitch_bend_c, 3, 15026
5, 90827, Pitch_bend_c, 3, 16383
5, 90915, Note_on_c, 3, 69, 0
5, 90920, Note_on_c, 3, 70, 76
5, 91029, Note_on_c, 3, 70, 0
5, 91047, Note_on_c, 3, 69, 91
5, 91211, Note_on_c, 3, 69, 0
5, 91216, Pitch_bend_c, 3, 8192
5, 91237, Note_on_c, 3, 69, 103
5, 91280, Pitch_bend_c, 3, 8270
5, 91287, Pitch_bend_c, 3, 10298
5, 91292, Pitch_bend_c, 3, 13166
5, 91300, Pitch_bend_c, 3, 15278
5, 91305, Pitch_bend_c, 3, 16383
5, 91986, Pitch_bend_c, 3, 16124
5, 91990, Pitch_bend_c, 3, 15194
5, 91995, Pitch_bend_c, 3, 14180
5, 92002, Pitch_bend_c, 3, 13082
5, 92007, Pitch_bend_c, 3, 11984
5, 92015, Pitch_bend_c, 3, 11060
5, 92023, Pitch_bend_c, 3, 9878
5, 92030, Pitch_bend_c, 3, 8864
5, 92040, Pitch_bend_c, 3, 8270
5, 92047, Pitch_bend_c, 3, 8192
5, 92055, Note_on_c, 3, 69, 0
5, 92691, Note_on_c, 3, 62, 76
5, 92735, Note_on_c, 3, 62, 0
5, 92748, Note_on_c, 3, 67, 80
5, 92807, Note_on_c, 3, 62, 70
5, 92808, Note_on_c, 3, 67, 0
5, 92852, Note_on_c, 3, 62, 0
5, 92877, Note_on_c, 3, 69, 96
5, 92939, Note_on_c, 3, 62, 66
5, 92944, Note_on_c, 3, 69, 0
5, 92980, Note_on_c, 3, 62, 0
5, 93000, Note_on_c, 3, 67, 85
5, 93080, Note_on_c, 3, 67, 0
5, 93121, Note_on_c, 3, 69, 98
5, 93775, Note_on_c, 3, 69, 0
5, 95056, Note_on_c, 3, 74, 90
5, 95236, Note_on_c, 3, 74, 0
5, 95395, Note_on_c, 3, 76, 87
5, 95945, Note_on_c, 3, 76, 0
5, 96001, Note_on_c, 3, 69, 87
5, 96276, Note_on_c, 3, 69, 0
5, 96372, Note_on_c, 3, 74, 87
5, 96373, Control_c, 3, 93, 0
5, 96373, Control_c, 3, 91, 0
5, 96885, Note_on_c, 3, 74, 0
5, 96885, End_track
6, 0, Start_track
6, 0, MIDI_port, 0
6, 0, Title_t, "C5-P25-Lead Vocal"
6, 0, Control_c, 4, 0, 56
6, 0, Control_c, 4, 32, 0
6, 0, Program_c, 4, 24
6, 0, Control_c, 4, 7, 124
6, 0, Control_c, 4, 10, 64
6, 0, Control_c, 4, 91, 80
6, 8262, Note_on_c, 4, 62, 90
6, 8327, Note_on_c, 4, 62, 0
6, 8385, Note_on_c, 4, 64, 108
6, 8492, Note_on_c, 4, 64, 0
6, 8509, Note_on_c, 4, 67, 94
6, 8552, Note_on_c, 4, 67, 0
6, 8632, Note_on_c, 4, 67, 125
6, 8762, Note_on_c, 4, 67, 0
6, 8812, Note_on_c, 4, 62, 85
6, 8840, Pitch_bend_c, 4, 10214
6, 8847, Pitch_bend_c, 4, 11060
6, 8852, Pitch_bend_c, 4, 12410
6, 8860, Pitch_bend_c, 4, 14348
6, 8867, Pitch_bend_c, 4, 16383
6, 8957, Note_on_c, 4, 62, 0
6, 8974, Pitch_bend_c, 4, 14774
6, 8982, Pitch_bend_c, 4, 11732
6, 8991, Pitch_bend_c, 4, 9368
6, 8996, Pitch_bend_c, 4, 8192
6, 9957, Note_on_c, 4, 62, 98
6, 10037, Note_on_c, 4, 62, 0
6, 10080, Note_on_c, 4, 59, 108
6, 10204, Note_on_c, 4, 62, 92
6, 10205, Note_on_c, 4, 59, 0
6, 10230, Note_on_c, 4, 62, 0
6, 10320, Note_on_c, 4, 62, 125
6, 10427, Note_on_c, 4, 62, 0
6, 10434, Note_on_c, 4, 59, 94
6, 10482, Note_on_c, 4, 59, 0
6, 10557, Note_on_c, 4, 62, 116
6, 10689, Note_on_c, 4, 62, 0
6, 10692, Note_on_c, 4, 64, 90
6, 10725, Note_on_c, 4, 64, 0
6, 12110, Note_on_c, 4, 62, 105
6, 12230, Note_on_c, 4, 62, 0
6, 12232, Note_on_c, 4, 64, 105
6, 12282, Note_on_c, 4, 64, 0
6, 12351, Note_on_c, 4, 67, 105
6, 12392, Note_on_c, 4, 67, 0
6, 12467, Note_on_c, 4, 67, 125
6, 12612, Note_on_c, 4, 67, 0
6, 12655, Note_on_c, 4, 69, 110
6, 12734, Note_on_c, 4, 69, 0
6, 12827, Note_on_c, 4, 60, 108
6, 12994, Note_on_c, 4, 60, 0
6, 14024, Note_on_c, 4, 55, 92
6, 14072, Note_on_c, 4, 55, 0
6, 14144, Note_on_c, 4, 57, 110
6, 14190, Pitch_bend_c, 4, 10298
6, 14197, Pitch_bend_c, 4, 13508
6, 14201, Pitch_bend_c, 4, 16383
6, 14257, Note_on_c, 4, 57, 0
6, 14276, Note_on_c, 4, 60, 71
6, 14307, Note_on_c, 4, 60, 0
6, 14395, Note_on_c, 4, 60, 119
6, 14558, Note_on_c, 4, 60, 0
6, 14589, Note_on_c, 4, 62, 101
6, 14641, Note_on_c, 4, 62, 0
6, 14712, Pitch_bend_c, 4, 14348
6, 14719, Pitch_bend_c, 4, 9452
6, 14724, Pitch_bend_c, 4, 8192
6, 14761, Note_on_c, 4, 55, 90
6, 15005, Note_on_c, 4, 55, 0
6, 15946, Note_on_c, 4, 62, 108
6, 16007, Note_on_c, 4, 62, 0
6, 16079, Note_on_c, 4, 64, 119
6, 16170, Note_on_c, 4, 64, 0
6, 16197, Note_on_c, 4, 62, 92
6, 16238, Note_on_c, 4, 62, 0
6, 16320, Note_on_c, 4, 64, 116
6, 16362, Pitch_bend_c, 4, 8948
6, 16367, Pitch_bend_c, 4, 9200
6, 16382, Pitch_bend_c, 4, 9452
6, 16390, Pitch_bend_c, 4, 9794
6, 16397, Pitch_bend_c, 4, 10130
6, 16402, Pitch_bend_c, 4, 10550
6, 16410, Pitch_bend_c, 4, 10976
6, 16417, Pitch_bend_c, 4, 11228
6, 16539, Note_on_c, 4, 64, 0
6, 16542, Pitch_bend_c, 4, 10976
6, 16549, Pitch_bend_c, 4, 9962
6, 16559, Pitch_bend_c, 4, 8696
6, 16561, Note_on_c, 4, 64, 103
6, 16570, Pitch_bend_c, 4, 8192
6, 16659, Note_on_c, 4, 64, 0
6, 16675, Note_on_c, 4, 59, 88
6, 16714, Note_on_c, 4, 59, 0
6, 16735, Note_on_c, 4, 62, 110
6, 16885, Note_on_c, 4, 62, 0
6, 16914, Note_on_c, 4, 64, 94
6, 16937, Note_on_c, 4, 64, 0
6, 17638, Note_on_c, 4, 67, 108
6, 17697, Note_on_c, 4, 67, 0
6, 17757, Note_on_c, 4, 64, 90
6, 17757, Pitch_bend_c, 4, 6086
6, 17764, Pitch_bend_c, 4, 2876
6, 17772, Pitch_bend_c, 4, 2540
6, 17779, Pitch_bend_c, 4, 2876
6, 17785, Pitch_bend_c, 4, 4736
6, 17792, Pitch_bend_c, 4, 8192
6, 17867, Note_on_c, 4, 64, 0
6, 17884, Note_on_c, 4, 67, 94
6, 17927, Note_on_c, 4, 67, 0
6, 17995, Note_on_c, 4, 65, 116
6, 18105, Note_on_c, 4, 65, 0
6, 18122, Note_on_c, 4, 67, 75
6, 18165, Note_on_c, 4, 67, 0
6, 18250, Note_on_c, 4, 64, 88
6, 18255, Pitch_bend_c, 4, 3974
6, 18260, Pitch_bend_c, 4, 2372
6, 18269, Pitch_bend_c, 4, 1778
6, 18279, Pitch_bend_c, 4, 3722
6, 18287, Pitch_bend_c, 4, 6926
6, 18292, Pitch_bend_c, 4, 8192
6, 18314, Note_on_c, 4, 64, 0
6, 18372, Note_on_c, 4, 67, 90
6, 18419, Note_on_c, 4, 67, 0
6, 19082, Note_on_c, 4, 55, 101
6, 19162, Note_on_c, 4, 55, 0
6, 19787, Note_on_c, 4, 62, 108
6, 19914, Note_on_c, 4, 64, 110
6, 19925, Note_on_c, 4, 62, 0
6, 19985, Note_on_c, 4, 64, 0
6, 20029, Note_on_c, 4, 67, 110
6, 20075, Note_on_c, 4, 67, 0
6, 20148, Note_on_c, 4, 67, 125
6, 20274, Note_on_c, 4, 67, 0
6, 20322, Note_on_c, 4, 62, 92
6, 20359, Pitch_bend_c, 4, 8864
6, 20364, Pitch_bend_c, 4, 10298
6, 20372, Pitch_bend_c, 4, 11732
6, 20377, Pitch_bend_c, 4, 13418
6, 20385, Pitch_bend_c, 4, 14942
6, 20392, Pitch_bend_c, 4, 16376
6, 20397, Pitch_bend_c, 4, 16383
6, 20487, Note_on_c, 4, 62, 0
6, 20590, Pitch_bend_c, 4, 16208
6, 20597, Pitch_bend_c, 4, 14774
6, 20602, Pitch_bend_c, 4, 12830
6, 20609, Pitch_bend_c, 4, 10214
6, 20614, Pitch_bend_c, 4, 8192
6, 21474, Note_on_c, 4, 62, 108
6, 21532, Note_on_c, 4, 62, 0
6, 21592, Note_on_c, 4, 59, 103
6, 21710, Note_on_c, 4, 62, 85
6, 21712, Note_on_c, 4, 59, 0
6, 21739, Note_on_c, 4, 62, 0
6, 21839, Note_on_c, 4, 62, 125
6, 21960, Note_on_c, 4, 59, 103
6, 21965, Note_on_c, 4, 62, 0
6, 22000, Note_on_c, 4, 59, 0
6, 22080, Note_on_c, 4, 62, 122
6, 22207, Note_on_c, 4, 64, 88
6, 22212, Note_on_c, 4, 62, 0
6, 22242, Note_on_c, 4, 64, 0
6, 23632, Note_on_c, 4, 62, 108
6, 23727, Note_on_c, 4, 62, 0
6, 23747, Note_on_c, 4, 64, 105
6, 23824, Note_on_c, 4, 64, 0
6, 23874, Note_on_c, 4, 67, 122
6, 23922, Note_on_c, 4, 67, 0
6, 23990, Note_on_c, 4, 67, 125
6, 24134, Note_on_c, 4, 67, 0
6, 24169, Note_on_c, 4, 69, 108
6, 24217, Note_on_c, 4, 69, 0
6, 24341, Note_on_c, 4, 60, 98
6, 24611, Note_on_c, 4, 60, 0
6, 25539, Note_on_c, 4, 55, 96
6, 25592, Note_on_c, 4, 55, 0
6, 25667, Note_on_c, 4, 57, 110
6, 25689, Pitch_bend_c, 4, 8948
6, 25697, Pitch_bend_c, 4, 10214
6, 25704, Pitch_bend_c, 4, 11732
6, 25710, Pitch_bend_c, 4, 13928
6, 25717, Pitch_bend_c, 4, 16034
6, 25725, Pitch_bend_c, 4, 16383
6, 25775, Note_on_c, 4, 57, 0
6, 25787, Note_on_c, 4, 60, 90
6, 25822, Note_on_c, 4, 60, 0
6, 25907, Note_on_c, 4, 60, 116
6, 26097, Note_on_c, 4, 60, 0
6, 26107, Note_on_c, 4, 62, 88
6, 26144, Note_on_c, 4, 62, 0
6, 26209, Pitch_bend_c, 4, 13508
6, 26214, Pitch_bend_c, 4, 9536
6, 26222, Pitch_bend_c, 4, 8192
6, 26280, Note_on_c, 4, 55, 98
6, 26581, Note_on_c, 4, 55, 0
6, 27482, Note_on_c, 4, 62, 103
6, 27537, Note_on_c, 4, 62, 0
6, 27589, Note_on_c, 4, 64, 108
6, 27677, Note_on_c, 4, 64, 0
6, 27713, Note_on_c, 4, 62, 83
6, 27762, Note_on_c, 4, 62, 0
6, 27832, Note_on_c, 4, 64, 103
6, 27988, Pitch_bend_c, 4, 8444
6, 27996, Pitch_bend_c, 4, 8780
6, 28000, Pitch_bend_c, 4, 9032
6, 28007, Pitch_bend_c, 4, 9200
6, 28050, Note_on_c, 4, 64, 0
6, 28050, Pitch_bend_c, 4, 9452
6, 28057, Pitch_bend_c, 4, 9710
6, 28062, Pitch_bend_c, 4, 9878
6, 28087, Note_on_c, 4, 64, 98
6, 28094, Pitch_bend_c, 4, 8192
6, 28189, Note_on_c, 4, 64, 0
6, 28199, Note_on_c, 4, 59, 85
6, 28242, Note_on_c, 4, 59, 0
6, 28258, Note_on_c, 4, 62, 108
6, 28444, Note_on_c, 4, 62, 0
6, 28457, Note_on_c, 4, 64, 60
6, 28477, Note_on_c, 4, 64, 0
6, 29164, Note_on_c, 4, 67, 116
6, 29259, Note_on_c, 4, 67, 0
6, 29287, Note_on_c, 4, 64, 81
6, 29292, Pitch_bend_c, 4, 7856
6, 29297, Pitch_bend_c, 4, 6926
6, 29304, Pitch_bend_c, 4, 6506
6, 29325, Pitch_bend_c, 4, 6758
6, 29332, Pitch_bend_c, 4, 7604
6, 29340, Pitch_bend_c, 4, 8192
6, 29391, Note_on_c, 4, 64, 0
6, 29409, Note_on_c, 4, 67, 88
6, 29462, Note_on_c, 4, 67, 0
6, 29527, Note_on_c, 4, 65, 119
6, 29642, Note_on_c, 4, 65, 0
6, 29657, Note_on_c, 4, 67, 88
6, 29692, Note_on_c, 4, 67, 0
6, 29742, Pitch_bend_c, 4, 7352
6, 29749, Pitch_bend_c, 4, 5660
6, 29757, Pitch_bend_c, 4, 4226
6, 29758, Note_on_c, 4, 64, 85
6, 29774, Pitch_bend_c, 4, 1106
6, 29780, Pitch_bend_c, 4, 596
6, 29787, Pitch_bend_c, 4, 428
6, 29799, Pitch_bend_c, 4, 2372
6, 29807, Pitch_bend_c, 4, 6758
6, 29814, Pitch_bend_c, 4, 8192
6, 29848, Note_on_c, 4, 64, 0
6, 29887, Note_on_c, 4, 67, 96
6, 29964, Note_on_c, 4, 67, 0
6, 31678, Note_on_c, 4, 62, 124
6, 31722, Pitch_bend_c, 4, 8528
6, 31730, Pitch_bend_c, 4, 9452
6, 31735, Pitch_bend_c, 4, 10802
6, 31744, Pitch_bend_c, 4, 13082
6, 31752, Pitch_bend_c, 4, 16383
6, 32231, Note_on_c, 4, 62, 0
6, 32275, Pitch_bend_c, 4, 15362
6, 32287, Pitch_bend_c, 4, 8192
6, 32520, Note_on_c, 4, 59, 108
6, 32570, Note_on_c, 4, 59, 0
6, 32627, Note_on_c, 4, 57, 108
6, 32767, Note_on_c, 4, 57, 0
6, 32822, Note_on_c, 4, 55, 115
6, 32905, Note_on_c, 4, 55, 0
6, 32990, Note_on_c, 4, 52, 108
6, 33364, Note_on_c, 4, 52, 0
6, 33598, Note_on_c, 4, 62, 115
6, 33642, Pitch_bend_c, 4, 10382
6, 33650, Pitch_bend_c, 4, 12998
6, 33657, Pitch_bend_c, 4, 15614
6, 33665, Pitch_bend_c, 4, 16383
6, 34153, Pitch_bend_c, 4, 15026
6, 34156, Note_on_c, 4, 62, 0
6, 34160, Pitch_bend_c, 4, 10718
6, 34167, Pitch_bend_c, 4, 8192
6, 34310, Note_on_c, 4, 59, 108
6, 34382, Note_on_c, 4, 59, 0
6, 34435, Note_on_c, 4, 58, 95
6, 34494, Note_on_c, 4, 58, 0
6, 34560, Note_on_c, 4, 57, 110
6, 34670, Note_on_c, 4, 57, 0
6, 34737, Note_on_c, 4, 55, 103
6, 34787, Note_on_c, 4, 55, 0
6, 34894, Note_on_c, 4, 52, 86
6, 35238, Note_on_c, 4, 52, 0
6, 35518, Note_on_c, 4, 64, 118
6, 36101, Note_on_c, 4, 64, 0
6, 36110, Note_on_c, 4, 62, 95
6, 36235, Note_on_c, 4, 62, 0
6, 36240, Note_on_c, 4, 66, 108
6, 36267, Pitch_bend_c, 4, 9032
6, 36274, Pitch_bend_c, 4, 9962
6, 36279, Pitch_bend_c, 4, 10802
6, 36287, Pitch_bend_c, 4, 11396
6, 36292, Pitch_bend_c, 4, 11564
6, 36300, Pitch_bend_c, 4, 11732
6, 36307, Pitch_bend_c, 4, 11900
6, 36319, Pitch_bend_c, 4, 12068
6, 36354, Pitch_bend_c, 4, 11900
6, 36367, Pitch_bend_c, 4, 11564
6, 36375, Pitch_bend_c, 4, 10214
6, 36382, Pitch_bend_c, 4, 9116
6, 36388, Pitch_bend_c, 4, 8270
6, 36396, Pitch_bend_c, 4, 8192
6, 36489, Note_on_c, 4, 64, 106
6, 36507, Note_on_c, 4, 66, 0
6, 36850, Note_on_c, 4, 64, 0
6, 37067, Note_on_c, 4, 66, 108
6, 37164, Note_on_c, 4, 66, 0
6, 37189, Note_on_c, 4, 62, 103
6, 37310, Note_on_c, 4, 64, 113
6, 37325, Note_on_c, 4, 62, 0
6, 37437, Note_on_c, 4, 64, 0
6, 37437, Note_on_c, 4, 66, 124
6, 37632, Note_on_c, 4, 66, 0
6, 37662, Note_on_c, 4, 66, 101
6, 37737, Note_on_c, 4, 66, 0
6, 37785, Note_on_c, 4, 64, 125
6, 37925, Pitch_bend_c, 4, 5744
6, 37932, Pitch_bend_c, 4, 3044
6, 37939, Pitch_bend_c, 4, 848
6, 37944, Pitch_bend_c, 4, 0
6, 37987, Pitch_bend_c, 4, 680
6, 37994, Pitch_bend_c, 4, 1610
6, 38002, Pitch_bend_c, 4, 2624
6, 38007, Pitch_bend_c, 4, 4058
6, 38015, Pitch_bend_c, 4, 5828
6, 38020, Pitch_bend_c, 4, 7604
6, 38027, Pitch_bend_c, 4, 8192
6, 38107, Note_on_c, 4, 64, 0
6, 38639, Note_on_c, 4, 62, 118
6, 38727, Note_on_c, 4, 62, 0
6, 38749, Note_on_c, 4, 64, 108
6, 38832, Note_on_c, 4, 64, 0
6, 38885, Note_on_c, 4, 64, 110
6, 38887, Pitch_bend_c, 4, 8270
6, 38892, Pitch_bend_c, 4, 8864
6, 38900, Pitch_bend_c, 4, 9368
6, 38908, Pitch_bend_c, 4, 9878
6, 38913, Pitch_bend_c, 4, 10382
6, 38919, Pitch_bend_c, 4, 10718
6, 38924, Pitch_bend_c, 4, 11060
6, 38932, Pitch_bend_c, 4, 11228
6, 38954, Pitch_bend_c, 4, 10382
6, 38962, Pitch_bend_c, 4, 9710
6, 38969, Pitch_bend_c, 4, 9284
6, 38974, Pitch_bend_c, 4, 8780
6, 38982, Pitch_bend_c, 4, 8192
6, 39014, Note_on_c, 4, 62, 88
6, 39019, Note_on_c, 4, 64, 0
6, 39072, Note_on_c, 4, 62, 0
6, 39127, Note_on_c, 4, 60, 101
6, 39222, Note_on_c, 4, 60, 0
6, 39232, Note_on_c, 4, 59, 101
6, 39352, Note_on_c, 4, 59, 0
6, 39369, Note_on_c, 4, 59, 113
6, 39482, Note_on_c, 4, 62, 97
6, 39484, Note_on_c, 4, 59, 0
6, 39512, Note_on_c, 4, 62, 0
6, 62034, Note_on_c, 4, 62, 112
6, 62145, Note_on_c, 4, 62, 0
6, 62160, Note_on_c, 4, 64, 125
6, 62271, Note_on_c, 4, 64, 0
6, 62277, Note_on_c, 4, 67, 125
6, 62342, Note_on_c, 4, 67, 0
6, 62398, Note_on_c, 4, 67, 125
6, 62505, Note_on_c, 4, 67, 0
6, 62565, Note_on_c, 4, 62, 116
6, 62584, Pitch_bend_c, 4, 8948
6, 62593, Pitch_bend_c, 4, 11984
6, 62602, Pitch_bend_c, 4, 16383
6, 62742, Note_on_c, 4, 62, 0
6, 62747, Pitch_bend_c, 4, 16124
6, 62754, Pitch_bend_c, 4, 14012
6, 62762, Pitch_bend_c, 4, 12410
6, 62770, Pitch_bend_c, 4, 11396
6, 62780, Pitch_bend_c, 4, 10046
6, 62787, Pitch_bend_c, 4, 9284
6, 62794, Pitch_bend_c, 4, 8192
6, 63712, Note_on_c, 4, 62, 122
6, 63774, Note_on_c, 4, 62, 0
6, 63842, Note_on_c, 4, 59, 108
6, 63952, Note_on_c, 4, 59, 0
6, 63964, Note_on_c, 4, 62, 105
6, 63997, Note_on_c, 4, 62, 0
6, 64090, Note_on_c, 4, 62, 110
6, 64179, Note_on_c, 4, 62, 0
6, 64194, Note_on_c, 4, 59, 98
6, 64251, Note_on_c, 4, 59, 0
6, 64321, Note_on_c, 4, 62, 122
6, 64430, Note_on_c, 4, 62, 0
6, 64440, Note_on_c, 4, 64, 98
6, 64540, Note_on_c, 4, 64, 0
6, 65882, Note_on_c, 4, 62, 114
6, 65982, Note_on_c, 4, 62, 0
6, 66003, Note_on_c, 4, 64, 108
6, 66067, Note_on_c, 4, 64, 0
6, 66112, Note_on_c, 4, 67, 113
6, 66149, Note_on_c, 4, 67, 0
6, 66230, Note_on_c, 4, 67, 125
6, 66357, Note_on_c, 4, 67, 0
6, 66417, Note_on_c, 4, 69, 110
6, 66488, Note_on_c, 4, 69, 0
6, 66587, Note_on_c, 4, 60, 83
6, 66897, Note_on_c, 4, 60, 0
6, 67769, Note_on_c, 4, 55, 103
6, 67829, Note_on_c, 4, 55, 0
6, 67902, Note_on_c, 4, 57, 113
6, 67951, Pitch_bend_c, 4, 8948
6, 67959, Pitch_bend_c, 4, 10718
6, 67963, Pitch_bend_c, 4, 13166
6, 67969, Pitch_bend_c, 4, 16208
6, 67974, Pitch_bend_c, 4, 16383
6, 68017, Note_on_c, 4, 57, 0
6, 68034, Note_on_c, 4, 60, 83
6, 68072, Note_on_c, 4, 60, 0
6, 68157, Note_on_c, 4, 60, 122
6, 68315, Note_on_c, 4, 60, 0
6, 68350, Note_on_c, 4, 62, 103
6, 68412, Note_on_c, 4, 62, 0
6, 68460, Pitch_bend_c, 4, 12494
6, 68465, Pitch_bend_c, 4, 8192
6, 68519, Note_on_c, 4, 55, 103
6, 68798, Note_on_c, 4, 55, 0
6, 69719, Note_on_c, 4, 62, 108
6, 69832, Note_on_c, 4, 62, 0
6, 69847, Note_on_c, 4, 64, 108
6, 69902, Note_on_c, 4, 64, 0
6, 69957, Note_on_c, 4, 62, 101
6, 69994, Note_on_c, 4, 62, 0
6, 70077, Note_on_c, 4, 64, 116
6, 70145, Pitch_bend_c, 4, 8780
6, 70153, Pitch_bend_c, 4, 9368
6, 70159, Pitch_bend_c, 4, 10214
6, 70164, Pitch_bend_c, 4, 10976
6, 70172, Pitch_bend_c, 4, 11480
6, 70181, Pitch_bend_c, 4, 11816
6, 70185, Pitch_bend_c, 4, 12068
6, 70282, Note_on_c, 4, 64, 0
6, 70300, Pitch_bend_c, 4, 11816
6, 70305, Pitch_bend_c, 4, 11564
6, 70312, Pitch_bend_c, 4, 10886
6, 70314, Note_on_c, 4, 64, 101
6, 70319, Pitch_bend_c, 4, 9116
6, 70332, Pitch_bend_c, 4, 8192
6, 70407, Note_on_c, 4, 64, 0
6, 70442, Note_on_c, 4, 59, 57
6, 70464, Note_on_c, 4, 59, 0
6, 70492, Note_on_c, 4, 62, 110
6, 70662, Note_on_c, 4, 64, 88
6, 70669, Note_on_c, 4, 62, 0
6, 70692, Note_on_c, 4, 64, 0
6, 71397, Note_on_c, 4, 67, 119
6, 71457, Note_on_c, 4, 67, 0
6, 71492, Pitch_bend_c, 4, 7100
6, 71499, Pitch_bend_c, 4, 4904
6, 71505, Pitch_bend_c, 4, 2540
6, 71512, Pitch_bend_c, 4, 938
6, 71520, Pitch_bend_c, 4, 92
6, 71525, Pitch_bend_c, 4, 0
6, 71529, Note_on_c, 4, 64, 98
6, 71547, Pitch_bend_c, 4, 0
6, 71555, Pitch_bend_c, 4, 848
6, 71560, Pitch_bend_c, 4, 1862
6, 71567, Pitch_bend_c, 4, 3722
6, 71574, Pitch_bend_c, 4, 6170
6, 71582, Pitch_bend_c, 4, 8192
6, 71627, Note_on_c, 4, 64, 0
6, 71649, Note_on_c, 4, 67, 83
6, 71697, Note_on_c, 4, 67, 0
6, 71765, Note_on_c, 4, 65, 113
6, 71854, Note_on_c, 4, 65, 0
6, 71889, Note_on_c, 4, 67, 85
6, 71924, Note_on_c, 4, 67, 0
6, 71992, Pitch_bend_c, 4, 6758
6, 71997, Pitch_bend_c, 4, 4394
6, 72010, Note_on_c, 4, 64, 96
6, 72015, Pitch_bend_c, 4, 0
6, 72049, Pitch_bend_c, 4, 1694
6, 72057, Pitch_bend_c, 4, 6002
6, 72065, Pitch_bend_c, 4, 8192
6, 72089, Note_on_c, 4, 64, 0
6, 72130, Note_on_c, 4, 67, 98
6, 72170, Note_on_c, 4, 67, 0
6, 73910, Note_on_c, 4, 62, 110
6, 73920, Note_on_c, 4, 62, 0
6, 73920, Note_on_c, 4, 62, 123
6, 73945, Pitch_bend_c, 4, 9032
6, 73952, Pitch_bend_c, 4, 11900
6, 73959, Pitch_bend_c, 4, 15278
6, 73967, Pitch_bend_c, 4, 16383
6, 74472, Note_on_c, 4, 62, 0
6, 74482, Pitch_bend_c, 4, 15950
6, 74487, Pitch_bend_c, 4, 12998
6, 74497, Pitch_bend_c, 4, 8528
6, 74502, Pitch_bend_c, 4, 8192
6, 74755, Note_on_c, 4, 59, 97
6, 74836, Note_on_c, 4, 59, 0
6, 74879, Note_on_c, 4, 57, 121
6, 74985, Note_on_c, 4, 57, 0
6, 75067, Note_on_c, 4, 55, 109
6, 75112, Note_on_c, 4, 55, 0
6, 75231, Note_on_c, 4, 52, 96
6, 75549, Note_on_c, 4, 52, 0
6, 75839, Note_on_c, 4, 62, 127
6, 75882, Pitch_bend_c, 4, 8528
6, 75890, Pitch_bend_c, 4, 9368
6, 75897, Pitch_bend_c, 4, 10634
6, 75904, Pitch_bend_c, 4, 12998
6, 75912, Pitch_bend_c, 4, 15026
6, 75919, Pitch_bend_c, 4, 16383
6, 76424, Pitch_bend_c, 4, 15362
6, 76429, Pitch_bend_c, 4, 9962
6, 76439, Pitch_bend_c, 4, 8192
6, 76515, Note_on_c, 4, 62, 0
6, 76685, Note_on_c, 4, 58, 115
6, 76751, Note_on_c, 4, 58, 0
6, 76805, Note_on_c, 4, 57, 113
6, 76865, Note_on_c, 4, 57, 0
6, 76967, Note_on_c, 4, 55, 109
6, 77015, Note_on_c, 4, 55, 0
6, 77135, Note_on_c, 4, 52, 98
6, 77478, Note_on_c, 4, 52, 0
6, 77761, Note_on_c, 4, 64, 125
6, 78305, Note_on_c, 4, 64, 0
6, 78359, Note_on_c, 4, 62, 102
6, 78439, Note_on_c, 4, 62, 0
6, 78472, Note_on_c, 4, 66, 109
6, 78527, Pitch_bend_c, 4, 8528
6, 78535, Pitch_bend_c, 4, 9284
6, 78541, Pitch_bend_c, 4, 9962
6, 78546, Pitch_bend_c, 4, 10718
6, 78554, Pitch_bend_c, 4, 11228
6, 78562, Pitch_bend_c, 4, 11564
6, 78615, Pitch_bend_c, 4, 10718
6, 78620, Pitch_bend_c, 4, 10130
6, 78627, Pitch_bend_c, 4, 9452
6, 78632, Pitch_bend_c, 4, 8192
6, 78732, Note_on_c, 4, 64, 113
6, 78733, Note_on_c, 4, 66, 0
6, 78990, Note_on_c, 4, 64, 0
6, 79317, Note_on_c, 4, 66, 124
6, 79399, Note_on_c, 4, 66, 0
6, 79438, Note_on_c, 4, 62, 100
6, 79565, Note_on_c, 4, 64, 98
6, 79575, Note_on_c, 4, 62, 0
6, 79670, Note_on_c, 4, 64, 0
6, 79694, Note_on_c, 4, 66, 125
6, 79897, Note_on_c, 4, 66, 0
6, 79926, Note_on_c, 4, 66, 91
6, 79977, Note_on_c, 4, 66, 0
6, 80044, Note_on_c, 4, 64, 124
6, 80185, Pitch_bend_c, 4, 6758
6, 80192, Pitch_bend_c, 4, 5408
6, 80197, Pitch_bend_c, 4, 4310
6, 80205, Pitch_bend_c, 4, 3554
6, 80210, Pitch_bend_c, 4, 3044
6, 80217, Pitch_bend_c, 4, 2792
6, 80247, Pitch_bend_c, 4, 2960
6, 80252, Pitch_bend_c, 4, 3470
6, 80260, Pitch_bend_c, 4, 4310
6, 80267, Pitch_bend_c, 4, 4904
6, 80272, Pitch_bend_c, 4, 5660
6, 80280, Pitch_bend_c, 4, 6758
6, 80292, Pitch_bend_c, 4, 8192
6, 80372, Note_on_c, 4, 64, 0
6, 80872, Note_on_c, 4, 62, 116
6, 80977, Note_on_c, 4, 62, 0
6, 80995, Note_on_c, 4, 64, 113
6, 81062, Note_on_c, 4, 64, 0
6, 81129, Note_on_c, 4, 64, 100
6, 81132, Pitch_bend_c, 4, 8948
6, 81137, Pitch_bend_c, 4, 10298
6, 81144, Pitch_bend_c, 4, 11480
6, 81152, Pitch_bend_c, 4, 12152
6, 81157, Pitch_bend_c, 4, 12494
6, 81170, Pitch_bend_c, 4, 11816
6, 81177, Pitch_bend_c, 4, 10130
6, 81187, Pitch_bend_c, 4, 8192
6, 81245, Note_on_c, 4, 62, 89
6, 81252, Note_on_c, 4, 64, 0
6, 81297, Note_on_c, 4, 62, 0
6, 81365, Note_on_c, 4, 60, 116
6, 81470, Note_on_c, 4, 59, 93
6, 81485, Note_on_c, 4, 60, 0
6, 81517, Note_on_c, 4, 59, 0
6, 81601, Note_on_c, 4, 59, 121
6, 81730, Note_on_c, 4, 62, 111
6, 81731, Note_on_c, 4, 59, 0
6, 81772, Note_on_c, 4, 62, 0
6, 82197, Note_on_c, 4, 62, 125
6, 82272, Note_on_c, 4, 62, 0
6, 82327, Note_on_c, 4, 60, 121
6, 82435, Note_on_c, 4, 60, 0
6, 82440, Note_on_c, 4, 59, 106
6, 82518, Note_on_c, 4, 59, 0
6, 82565, Note_on_c, 4, 57, 121
6, 82672, Note_on_c, 4, 57, 0
6, 82743, Note_on_c, 4, 55, 106
6, 82822, Note_on_c, 4, 55, 0
6, 82904, Note_on_c, 4, 52, 113
6, 83264, Note_on_c, 4, 52, 0
6, 83521, Note_on_c, 4, 64, 122
6, 84090, Note_on_c, 4, 64, 0
6, 84360, Note_on_c, 4, 59, 116
6, 84425, Note_on_c, 4, 59, 0
6, 84474, Note_on_c, 4, 57, 113
6, 84579, Note_on_c, 4, 57, 0
6, 84640, Note_on_c, 4, 55, 113
6, 84726, Note_on_c, 4, 55, 0
6, 84825, Note_on_c, 4, 52, 102
6, 85185, Note_on_c, 4, 52, 0
6, 85439, Note_on_c, 4, 64, 125
6, 85997, Note_on_c, 4, 64, 0
6, 86029, Note_on_c, 4, 62, 96
6, 86090, Note_on_c, 4, 62, 0
6, 86149, Note_on_c, 4, 66, 121
6, 86212, Pitch_bend_c, 4, 8444
6, 86220, Pitch_bend_c, 4, 8864
6, 86227, Pitch_bend_c, 4, 9452
6, 86232, Pitch_bend_c, 4, 10046
6, 86240, Pitch_bend_c, 4, 10382
6, 86247, Pitch_bend_c, 4, 10550
6, 86271, Pitch_bend_c, 4, 10298
6, 86279, Pitch_bend_c, 4, 9794
6, 86295, Pitch_bend_c, 4, 8192
6, 86398, Note_on_c, 4, 66, 0
6, 86401, Note_on_c, 4, 64, 111
6, 86631, Note_on_c, 4, 64, 0
6, 86987, Note_on_c, 4, 66, 125
6, 87087, Note_on_c, 4, 66, 0
6, 87127, Note_on_c, 4, 62, 96
6, 87236, Note_on_c, 4, 62, 0
6, 87238, Note_on_c, 4, 64, 106
6, 87297, Note_on_c, 4, 64, 0
6, 87352, Note_on_c, 4, 66, 118
6, 87565, Note_on_c, 4, 66, 0
6, 87607, Note_on_c, 4, 66, 98
6, 87650, Note_on_c, 4, 66, 0
6, 87715, Note_on_c, 4, 64, 121
6, 87835, Pitch_bend_c, 4, 7268
6, 87842, Pitch_bend_c, 4, 6338
6, 87850, Pitch_bend_c, 4, 5240
6, 87857, Pitch_bend_c, 4, 4394
6, 87862, Pitch_bend_c, 4, 3386
6, 87870, Pitch_bend_c, 4, 2456
6, 87875, Pitch_bend_c, 4, 1862
6, 87882, Pitch_bend_c, 4, 1358
6, 87890, Pitch_bend_c, 4, 1022
6, 87914, Pitch_bend_c, 4, 1190
6, 87919, Pitch_bend_c, 4, 1610
6, 87925, Pitch_bend_c, 4, 2372
6, 87932, Pitch_bend_c, 4, 3470
6, 87939, Pitch_bend_c, 4, 4484
6, 87945, Pitch_bend_c, 4, 5744
6, 87952, Pitch_bend_c, 4, 7010
6, 87957, Pitch_bend_c, 4, 8192
6, 88005, Note_on_c, 4, 64, 0
6, 88567, Note_on_c, 4, 62, 116
6, 88659, Note_on_c, 4, 62, 0
6, 88679, Note_on_c, 4, 64, 109
6, 88742, Note_on_c, 4, 64, 0
6, 88797, Pitch_bend_c, 4, 8360
6, 88805, Note_on_c, 4, 64, 104
6, 88807, Pitch_bend_c, 4, 9710
6, 88815, Pitch_bend_c, 4, 10130
6, 88822, Pitch_bend_c, 4, 10298
6, 88840, Pitch_bend_c, 4, 9878
6, 88847, Pitch_bend_c, 4, 8864
6, 88852, Pitch_bend_c, 4, 8192
6, 88929, Note_on_c, 4, 62, 75
6, 88939, Note_on_c, 4, 64, 0
6, 88967, Note_on_c, 4, 62, 0
6, 89045, Note_on_c, 4, 60, 113
6, 89167, Note_on_c, 4, 59, 100
6, 89180, Note_on_c, 4, 60, 0
6, 89212, Note_on_c, 4, 59, 0
6, 89279, Note_on_c, 4, 59, 121
6, 89410, Note_on_c, 4, 59, 0
6, 89410, Note_on_c, 4, 62, 111
6, 89452, Note_on_c, 4, 62, 0
6, 90119, Note_on_c, 4, 59, 112
6, 90216, Note_on_c, 4, 59, 0
6, 90245, Note_on_c, 4, 57, 121
6, 90352, Note_on_c, 4, 57, 0
6, 90422, Note_on_c, 4, 55, 111
6, 90506, Note_on_c, 4, 55, 0
6, 90585, Note_on_c, 4, 52, 113
6, 90945, Note_on_c, 4, 52, 0
6, 91200, Note_on_c, 4, 64, 125
6, 91770, Note_on_c, 4, 64, 0
6, 92040, Note_on_c, 4, 59, 116
6, 92106, Note_on_c, 4, 59, 0
6, 92152, Note_on_c, 4, 57, 113
6, 92260, Note_on_c, 4, 57, 0
6, 92319, Note_on_c, 4, 55, 113
6, 92406, Note_on_c, 4, 55, 0
6, 92505, Note_on_c, 4, 52, 102
6, 92865, Note_on_c, 4, 52, 0
6, 93120, Note_on_c, 4, 64, 125
6, 93677, Note_on_c, 4, 64, 0
6, 93709, Note_on_c, 4, 62, 96
6, 93770, Note_on_c, 4, 62, 0
6, 93830, Note_on_c, 4, 66, 121
6, 93893, Pitch_bend_c, 4, 8444
6, 93900, Pitch_bend_c, 4, 8864
6, 93907, Pitch_bend_c, 4, 9452
6, 93912, Pitch_bend_c, 4, 10046
6, 93920, Pitch_bend_c, 4, 10382
6, 93927, Pitch_bend_c, 4, 10550
6, 93952, Pitch_bend_c, 4, 10298
6, 93960, Pitch_bend_c, 4, 9794
6, 93975, Pitch_bend_c, 4, 8192
6, 94077, Note_on_c, 4, 66, 0
6, 94081, Note_on_c, 4, 64, 111
6, 94309, Note_on_c, 4, 64, 0
6, 94667, Note_on_c, 4, 66, 125
6, 94767, Note_on_c, 4, 66, 0
6, 94807, Note_on_c, 4, 62, 96
6, 94915, Note_on_c, 4, 62, 0
6, 94917, Note_on_c, 4, 64, 106
6, 94977, Note_on_c, 4, 64, 0
6, 95031, Note_on_c, 4, 66, 118
6, 95245, Note_on_c, 4, 66, 0
6, 95288, Note_on_c, 4, 66, 98
6, 95330, Note_on_c, 4, 66, 0
6, 95395, Note_on_c, 4, 64, 121
6, 95515, Pitch_bend_c, 4, 7268
6, 95522, Pitch_bend_c, 4, 6338
6, 95530, Pitch_bend_c, 4, 5240
6, 95537, Pitch_bend_c, 4, 4394
6, 95542, Pitch_bend_c, 4, 3386
6, 95549, Pitch_bend_c, 4, 2456
6, 95554, Pitch_bend_c, 4, 1862
6, 95562, Pitch_bend_c, 4, 1358
6, 95571, Pitch_bend_c, 4, 1022
6, 95595, Pitch_bend_c, 4, 1190
6, 95600, Pitch_bend_c, 4, 1610
6, 95605, Pitch_bend_c, 4, 2372
6, 95612, Pitch_bend_c, 4, 3470
6, 95620, Pitch_bend_c, 4, 4484
6, 95625, Pitch_bend_c, 4, 5744
6, 95632, Pitch_bend_c, 4, 7010
6, 95637, Pitch_bend_c, 4, 8192
6, 95684, Note_on_c, 4, 64, 0
6, 96247, Note_on_c, 4, 62, 116
6, 96340, Note_on_c, 4, 62, 0
6, 96361, Note_on_c, 4, 64, 109
6, 96422, Note_on_c, 4, 64, 0
6, 96477, Pitch_bend_c, 4, 8360
6, 96485, Note_on_c, 4, 64, 104
6, 96487, Pitch_bend_c, 4, 9710
6, 96495, Pitch_bend_c, 4, 10130
6, 96502, Pitch_bend_c, 4, 10298
6, 96520, Pitch_bend_c, 4, 9878
6, 96527, Pitch_bend_c, 4, 8864
6, 96531, Pitch_bend_c, 4, 8192
6, 96607, Note_on_c, 4, 62, 75
6, 96620, Note_on_c, 4, 64, 0
6, 96647, Note_on_c, 4, 62, 0
6, 96725, Note_on_c, 4, 60, 113
6, 96847, Note_on_c, 4, 59, 100
6, 96860, Note_on_c, 4, 60, 0
6, 96892, Note_on_c, 4, 59, 0
6, 96961, Note_on_c, 4, 59, 121
6, 97069, Note_on_c, 4, 59, 0
6, 97080, Note_on_c, 4, 62, 83
6, 97081, Control_c, 4, 91, 0
6, 97105, Note_on_c, 4, 62, 0
6, 97105, End_track
7, 0, Start_track
7, 0, MIDI_port, 0
7, 0, Title_t, "C6-P59-Trombones"
7, 0, Control_c, 5, 0, 56
7, 0, Control_c, 5, 32, 0
7, 0, Program_c, 5, 58
7, 0, Control_c, 5, 7, 73
7, 0, Control_c, 5, 10, 44
7, 0, Control_c, 5, 91, 70
7, 1202, Note_on_c, 5, 64, 107
7, 1251, Note_on_c, 5, 64, 0
7, 1387, Note_on_c, 5, 62, 96
7, 1546, Note_on_c, 5, 62, 0
7, 1560, Note_on_c, 5, 64, 98
7, 1591, Note_on_c, 5, 64, 0
7, 2382, Note_on_c, 5, 61, 80
7, 2424, Note_on_c, 5, 61, 0
7, 2442, Note_on_c, 5, 64, 88
7, 2484, Note_on_c, 5, 64, 0
7, 2502, Note_on_c, 5, 66, 80
7, 2546, Note_on_c, 5, 66, 0
7, 2564, Note_on_c, 5, 69, 110
7, 2705, Note_on_c, 5, 69, 0
7, 2753, Note_on_c, 5, 66, 110
7, 2789, Note_on_c, 5, 66, 0
7, 2990, Note_on_c, 5, 60, 110
7, 3027, Note_on_c, 5, 60, 0
7, 3173, Note_on_c, 5, 62, 112
7, 3215, Note_on_c, 5, 62, 0
7, 3350, Note_on_c, 5, 60, 112
7, 3391, Note_on_c, 5, 60, 0
7, 4317, Note_on_c, 5, 59, 88
7, 4359, Note_on_c, 5, 59, 0
7, 4378, Note_on_c, 5, 62, 95
7, 4419, Note_on_c, 5, 62, 0
7, 4438, Note_on_c, 5, 64, 92
7, 4479, Note_on_c, 5, 64, 0
7, 4501, Note_on_c, 5, 67, 99
7, 4664, Note_on_c, 5, 67, 0
7, 4680, Note_on_c, 5, 64, 99
7, 4714, Note_on_c, 5, 64, 0
7, 4902, Note_on_c, 5, 58, 99
7, 4963, Note_on_c, 5, 58, 0
7, 5081, Note_on_c, 5, 60, 110
7, 5127, Note_on_c, 5, 60, 0
7, 5272, Note_on_c, 5, 58, 108
7, 5328, Note_on_c, 5, 58, 0
7, 6237, Note_on_c, 5, 57, 99
7, 6277, Note_on_c, 5, 57, 0
7, 6295, Note_on_c, 5, 60, 95
7, 6337, Note_on_c, 5, 60, 0
7, 6345, Note_on_c, 5, 62, 78
7, 6393, Note_on_c, 5, 62, 0
7, 6410, Note_on_c, 5, 65, 110
7, 6476, Pitch_bend_c, 5, 10298
7, 6483, Pitch_bend_c, 5, 14096
7, 6490, Pitch_bend_c, 5, 16376
7, 6495, Pitch_bend_c, 5, 16383
7, 6502, Pitch_bend_c, 5, 16292
7, 6510, Pitch_bend_c, 5, 13166
7, 6515, Pitch_bend_c, 5, 9452
7, 6523, Pitch_bend_c, 5, 8192
7, 6547, Pitch_bend_c, 5, 8696
7, 6563, Pitch_bend_c, 5, 8528
7, 6568, Pitch_bend_c, 5, 8192
7, 6569, Note_on_c, 5, 65, 0
7, 6585, Note_on_c, 5, 62, 103
7, 6616, Note_on_c, 5, 62, 0
7, 22081, Note_on_c, 5, 67, 108
7, 22284, Note_on_c, 5, 67, 0
7, 22325, Note_on_c, 5, 67, 101
7, 22430, Note_on_c, 5, 67, 0
7, 22435, Note_on_c, 5, 69, 84
7, 22474, Note_on_c, 5, 69, 0
7, 22502, Note_on_c, 5, 71, 101
7, 22536, Note_on_c, 5, 71, 0
7, 22925, Note_on_c, 5, 74, 108
7, 22964, Note_on_c, 5, 74, 0
7, 23052, Note_on_c, 5, 67, 101
7, 23241, Note_on_c, 5, 67, 0
7, 23287, Note_on_c, 5, 67, 108
7, 23385, Note_on_c, 5, 67, 0
7, 23397, Note_on_c, 5, 69, 84
7, 23429, Note_on_c, 5, 69, 0
7, 23461, Note_on_c, 5, 71, 99
7, 23489, Note_on_c, 5, 71, 0
7, 25922, Note_on_c, 5, 67, 108
7, 26124, Note_on_c, 5, 67, 0
7, 26165, Note_on_c, 5, 67, 101
7, 26271, Note_on_c, 5, 67, 0
7, 26275, Note_on_c, 5, 69, 84
7, 26315, Note_on_c, 5, 69, 0
7, 26342, Note_on_c, 5, 71, 101
7, 26377, Note_on_c, 5, 71, 0
7, 26764, Note_on_c, 5, 74, 108
7, 26804, Note_on_c, 5, 74, 0
7, 26892, Note_on_c, 5, 67, 101
7, 27082, Note_on_c, 5, 67, 0
7, 27128, Note_on_c, 5, 67, 108
7, 27225, Note_on_c, 5, 67, 0
7, 27238, Note_on_c, 5, 69, 84
7, 27269, Note_on_c, 5, 69, 0
7, 27300, Note_on_c, 5, 71, 99
7, 27327, Note_on_c, 5, 71, 0
7, 43442, Note_on_c, 5, 64, 105
7, 43491, Note_on_c, 5, 64, 0
7, 43627, Note_on_c, 5, 62, 94
7, 43786, Note_on_c, 5, 62, 0
7, 43800, Note_on_c, 5, 64, 96
7, 43831, Note_on_c, 5, 64, 0
7, 44622, Note_on_c, 5, 61, 78
7, 44664, Note_on_c, 5, 61, 0
7, 44682, Note_on_c, 5, 64, 86
7, 44724, Note_on_c, 5, 64, 0
7, 44742, Note_on_c, 5, 66, 78
7, 44786, Note_on_c, 5, 66, 0
7, 44804, Note_on_c, 5, 69, 108
7, 44945, Note_on_c, 5, 69, 0
7, 44993, Note_on_c, 5, 66, 108
7, 45029, Note_on_c, 5, 66, 0
7, 45230, Note_on_c, 5, 60, 108
7, 45267, Note_on_c, 5, 60, 0
7, 45413, Note_on_c, 5, 62, 110
7, 45455, Note_on_c, 5, 62, 0
7, 45590, Note_on_c, 5, 60, 110
7, 45631, Note_on_c, 5, 60, 0
7, 46557, Note_on_c, 5, 59, 86
7, 46599, Note_on_c, 5, 59, 0
7, 46618, Note_on_c, 5, 62, 93
7, 46659, Note_on_c, 5, 62, 0
7, 46678, Note_on_c, 5, 64, 90
7, 46719, Note_on_c, 5, 64, 0
7, 46741, Note_on_c, 5, 67, 97
7, 46904, Note_on_c, 5, 67, 0
7, 46920, Note_on_c, 5, 64, 97
7, 46954, Note_on_c, 5, 64, 0
7, 47142, Note_on_c, 5, 58, 97
7, 47203, Note_on_c, 5, 58, 0
7, 47321, Note_on_c, 5, 60, 108
7, 47367, Note_on_c, 5, 60, 0
7, 47512, Note_on_c, 5, 58, 106
7, 47568, Note_on_c, 5, 58, 0
7, 48477, Note_on_c, 5, 57, 97
7, 48517, Note_on_c, 5, 57, 0
7, 48535, Note_on_c, 5, 60, 93
7, 48577, Note_on_c, 5, 60, 0
7, 48585, Note_on_c, 5, 62, 76
7, 48633, Note_on_c, 5, 62, 0
7, 48650, Note_on_c, 5, 65, 108
7, 48716, Pitch_bend_c, 5, 10298
7, 48723, Pitch_bend_c, 5, 14096
7, 48730, Pitch_bend_c, 5, 16376
7, 48735, Pitch_bend_c, 5, 16383
7, 48742, Pitch_bend_c, 5, 16292
7, 48750, Pitch_bend_c, 5, 13166
7, 48755, Pitch_bend_c, 5, 9452
7, 48763, Pitch_bend_c, 5, 8192
7, 48787, Pitch_bend_c, 5, 8696
7, 48803, Pitch_bend_c, 5, 8528
7, 48808, Pitch_bend_c, 5, 8192
7, 48809, Note_on_c, 5, 65, 0
7, 48825, Note_on_c, 5, 62, 101
7, 48856, Note_on_c, 5, 62, 0
7, 64321, Note_on_c, 5, 55, 120
7, 64524, Note_on_c, 5, 55, 0
7, 64565, Note_on_c, 5, 55, 113
7, 64670, Note_on_c, 5, 55, 0
7, 64674, Note_on_c, 5, 57, 96
7, 64714, Note_on_c, 5, 57, 0
7, 64742, Note_on_c, 5, 59, 113
7, 64776, Note_on_c, 5, 59, 0
7, 65166, Note_on_c, 5, 62, 120
7, 65204, Note_on_c, 5, 62, 0
7, 65292, Note_on_c, 5, 55, 113
7, 65481, Note_on_c, 5, 55, 0
7, 65527, Note_on_c, 5, 55, 120
7, 65625, Note_on_c, 5, 55, 0
7, 65637, Note_on_c, 5, 57, 96
7, 65669, Note_on_c, 5, 57, 0
7, 65701, Note_on_c, 5, 59, 111
7, 65727, Note_on_c, 5, 59, 0
7, 68162, Note_on_c, 5, 55, 120
7, 68364, Note_on_c, 5, 55, 0
7, 68405, Note_on_c, 5, 55, 113
7, 68512, Note_on_c, 5, 55, 0
7, 68516, Note_on_c, 5, 57, 96
7, 68554, Note_on_c, 5, 57, 0
7, 68582, Note_on_c, 5, 59, 113
7, 68617, Note_on_c, 5, 59, 0
7, 69004, Note_on_c, 5, 62, 120
7, 69044, Note_on_c, 5, 62, 0
7, 69132, Note_on_c, 5, 55, 113
7, 69321, Note_on_c, 5, 55, 0
7, 69368, Note_on_c, 5, 55, 120
7, 69465, Note_on_c, 5, 55, 0
7, 69478, Note_on_c, 5, 57, 96
7, 69509, Note_on_c, 5, 57, 0
7, 69540, Note_on_c, 5, 59, 111
7, 69542, Control_c, 5, 91, 0
7, 69568, Note_on_c, 5, 59, 0
7, 69568, End_track
8, 0, Start_track
8, 0, MIDI_port, 0
8, 0, Title_t, "C7-P57-Trumpets"
8, 0, Control_c, 6, 0, 56
8, 0, Control_c, 6, 32, 0
8, 0, Program_c, 6, 56
8, 0, Control_c, 6, 7, 76
8, 0, Control_c, 6, 10, 10
8, 0, Control_c, 6, 91, 75
8, 1202, Note_on_c, 6, 76, 107
8, 1250, Note_on_c, 6, 76, 0
8, 1389, Note_on_c, 6, 74, 95
8, 1546, Note_on_c, 6, 74, 0
8, 1558, Note_on_c, 6, 76, 98
8, 1587, Note_on_c, 6, 76, 0
8, 2382, Note_on_c, 6, 73, 80
8, 2424, Note_on_c, 6, 73, 0
8, 2442, Note_on_c, 6, 76, 88
8, 2484, Note_on_c, 6, 76, 0
8, 2504, Note_on_c, 6, 78, 80
8, 2545, Note_on_c, 6, 78, 0
8, 2564, Note_on_c, 6, 81, 110
8, 2705, Note_on_c, 6, 81, 0
8, 2752, Note_on_c, 6, 78, 110
8, 2790, Note_on_c, 6, 78, 0
8, 2989, Note_on_c, 6, 72, 110
8, 3026, Note_on_c, 6, 72, 0
8, 3172, Note_on_c, 6, 74, 112
8, 3214, Note_on_c, 6, 74, 0
8, 3351, Note_on_c, 6, 72, 112
8, 3390, Note_on_c, 6, 72, 0
8, 4317, Note_on_c, 6, 71, 88
8, 4359, Note_on_c, 6, 71, 0
8, 4377, Note_on_c, 6, 74, 95
8, 4419, Note_on_c, 6, 74, 0
8, 4437, Note_on_c, 6, 76, 92
8, 4481, Note_on_c, 6, 76, 0
8, 4500, Note_on_c, 6, 79, 102
8, 4664, Note_on_c, 6, 79, 0
8, 4681, Note_on_c, 6, 76, 99
8, 4714, Note_on_c, 6, 76, 0
8, 4902, Note_on_c, 6, 70, 99
8, 4963, Note_on_c, 6, 70, 0
8, 5081, Note_on_c, 6, 72, 110
8, 5127, Note_on_c, 6, 72, 0
8, 5273, Note_on_c, 6, 70, 108
8, 5329, Note_on_c, 6, 70, 0
8, 6237, Note_on_c, 6, 69, 99
8, 6276, Note_on_c, 6, 69, 0
8, 6294, Note_on_c, 6, 72, 95
8, 6336, Note_on_c, 6, 72, 0
8, 6344, Note_on_c, 6, 74, 78
8, 6393, Note_on_c, 6, 74, 0
8, 6408, Note_on_c, 6, 77, 110
8, 6476, Pitch_bend_c, 6, 8546
8, 6483, Pitch_bend_c, 6, 9194
8, 6489, Pitch_bend_c, 6, 9578
8, 6494, Pitch_bend_c, 6, 9608
8, 6502, Pitch_bend_c, 6, 9566
8, 6510, Pitch_bend_c, 6, 9032
8, 6515, Pitch_bend_c, 6, 8402
8, 6522, Pitch_bend_c, 6, 8192
8, 6547, Pitch_bend_c, 6, 8276
8, 6562, Pitch_bend_c, 6, 8246
8, 6566, Note_on_c, 6, 77, 0
8, 6567, Pitch_bend_c, 6, 8192
8, 6584, Note_on_c, 6, 74, 103
8, 6615, Note_on_c, 6, 74, 0
8, 22081, Note_on_c, 6, 67, 108
8, 22284, Note_on_c, 6, 67, 0
8, 22325, Note_on_c, 6, 67, 101
8, 22430, Note_on_c, 6, 67, 0
8, 22435, Note_on_c, 6, 69, 84
8, 22474, Note_on_c, 6, 69, 0
8, 22502, Note_on_c, 6, 71, 101
8, 22536, Note_on_c, 6, 71, 0
8, 22925, Note_on_c, 6, 74, 108
8, 22964, Note_on_c, 6, 74, 0
8, 23052, Note_on_c, 6, 67, 101
8, 23241, Note_on_c, 6, 67, 0
8, 23287, Note_on_c, 6, 67, 108
8, 23385, Note_on_c, 6, 67, 0
8, 23397, Note_on_c, 6, 69, 84
8, 23429, Note_on_c, 6, 69, 0
8, 23461, Note_on_c, 6, 71, 99
8, 23489, Note_on_c, 6, 71, 0
8, 25922, Note_on_c, 6, 67, 108
8, 26124, Note_on_c, 6, 67, 0
8, 26165, Note_on_c, 6, 67, 101
8, 26271, Note_on_c, 6, 67, 0
8, 26275, Note_on_c, 6, 69, 84
8, 26315, Note_on_c, 6, 69, 0
8, 26342, Note_on_c, 6, 71, 101
8, 26377, Note_on_c, 6, 71, 0
8, 26764, Note_on_c, 6, 74, 108
8, 26804, Note_on_c, 6, 74, 0
8, 26892, Note_on_c, 6, 67, 101
8, 27082, Note_on_c, 6, 67, 0
8, 27128, Note_on_c, 6, 67, 108
8, 27225, Note_on_c, 6, 67, 0
8, 27238, Note_on_c, 6, 69, 84
8, 27269, Note_on_c, 6, 69, 0
8, 27300, Note_on_c, 6, 71, 99
8, 27327, Note_on_c, 6, 71, 0
8, 43442, Note_on_c, 6, 76, 112
8, 43490, Note_on_c, 6, 76, 0
8, 43629, Note_on_c, 6, 74, 100
8, 43786, Note_on_c, 6, 74, 0
8, 43798, Note_on_c, 6, 76, 103
8, 43827, Note_on_c, 6, 76, 0
8, 44622, Note_on_c, 6, 73, 85
8, 44664, Note_on_c, 6, 73, 0
8, 44682, Note_on_c, 6, 76, 93
8, 44724, Note_on_c, 6, 76, 0
8, 44744, Note_on_c, 6, 78, 85
8, 44785, Note_on_c, 6, 78, 0
8, 44804, Note_on_c, 6, 81, 115
8, 44945, Note_on_c, 6, 81, 0
8, 44992, Note_on_c, 6, 78, 115
8, 45030, Note_on_c, 6, 78, 0
8, 45229, Note_on_c, 6, 72, 115
8, 45266, Note_on_c, 6, 72, 0
8, 45412, Note_on_c, 6, 74, 117
8, 45454, Note_on_c, 6, 74, 0
8, 45591, Note_on_c, 6, 72, 117
8, 45630, Note_on_c, 6, 72, 0
8, 46557, Note_on_c, 6, 71, 93
8, 46599, Note_on_c, 6, 71, 0
8, 46617, Note_on_c, 6, 74, 100
8, 46659, Note_on_c, 6, 74, 0
8, 46677, Note_on_c, 6, 76, 97
8, 46721, Note_on_c, 6, 76, 0
8, 46740, Note_on_c, 6, 79, 107
8, 46904, Note_on_c, 6, 79, 0
8, 46921, Note_on_c, 6, 76, 104
8, 46954, Note_on_c, 6, 76, 0
8, 47142, Note_on_c, 6, 70, 104
8, 47203, Note_on_c, 6, 70, 0
8, 47321, Note_on_c, 6, 72, 115
8, 47367, Note_on_c, 6, 72, 0
8, 47513, Note_on_c, 6, 70, 113
8, 47569, Note_on_c, 6, 70, 0
8, 48477, Note_on_c, 6, 69, 104
8, 48516, Note_on_c, 6, 69, 0
8, 48534, Note_on_c, 6, 72, 100
8, 48576, Note_on_c, 6, 72, 0
8, 48584, Note_on_c, 6, 74, 83
8, 48633, Note_on_c, 6, 74, 0
8, 48648, Note_on_c, 6, 77, 115
8, 48716, Pitch_bend_c, 6, 8546
8, 48723, Pitch_bend_c, 6, 9194
8, 48729, Pitch_bend_c, 6, 9578
8, 48734, Pitch_bend_c, 6, 9608
8, 48742, Pitch_bend_c, 6, 9566
8, 48750, Pitch_bend_c, 6, 9032
8, 48755, Pitch_bend_c, 6, 8402
8, 48762, Pitch_bend_c, 6, 8192
8, 48787, Pitch_bend_c, 6, 8276
8, 48802, Pitch_bend_c, 6, 8246
8, 48806, Note_on_c, 6, 77, 0
8, 48807, Pitch_bend_c, 6, 8192
8, 48824, Note_on_c, 6, 74, 108
8, 48855, Note_on_c, 6, 74, 0
8, 64321, Note_on_c, 6, 67, 106
8, 64524, Note_on_c, 6, 67, 0
8, 64565, Note_on_c, 6, 67, 99
8, 64670, Note_on_c, 6, 67, 0
8, 64674, Note_on_c, 6, 69, 82
8, 64714, Note_on_c, 6, 69, 0
8, 64742, Note_on_c, 6, 71, 99
8, 64776, Note_on_c, 6, 71, 0
8, 65166, Note_on_c, 6, 74, 106
8, 65204, Note_on_c, 6, 74, 0
8, 65292, Note_on_c, 6, 67, 99
8, 65481, Note_on_c, 6, 67, 0
8, 65527, Note_on_c, 6, 67, 106
8, 65625, Note_on_c, 6, 67, 0
8, 65637, Note_on_c, 6, 69, 82
8, 65669, Note_on_c, 6, 69, 0
8, 65701, Note_on_c, 6, 71, 97
8, 65727, Note_on_c, 6, 71, 0
8, 68162, Note_on_c, 6, 67, 106
8, 68364, Note_on_c, 6, 67, 0
8, 68405, Note_on_c, 6, 67, 99
8, 68512, Note_on_c, 6, 67, 0
8, 68516, Note_on_c, 6, 69, 82
8, 68554, Note_on_c, 6, 69, 0
8, 68582, Note_on_c, 6, 71, 99
8, 68617, Note_on_c, 6, 71, 0
8, 69004, Note_on_c, 6, 74, 106
8, 69044, Note_on_c, 6, 74, 0
8, 69132, Note_on_c, 6, 67, 99
8, 69321, Note_on_c, 6, 67, 0
8, 69368, Note_on_c, 6, 67, 106
8, 69465, Note_on_c, 6, 67, 0
8, 69478, Note_on_c, 6, 69, 82
8, 69509, Note_on_c, 6, 69, 0
8, 69540, Note_on_c, 6, 71, 97
8, 69542, Control_c, 6, 91, 0
8, 69568, Note_on_c, 6, 71, 0
8, 69568, End_track
9, 0, Start_track
9, 0, MIDI_port, 0
9, 0, Title_t, "C8-P55-Vocal Harmonies"
9, 0, Control_c, 7, 0, 56
9, 0, Control_c, 7, 32, 0
9, 0, Program_c, 7, 54
9, 0, Control_c, 7, 7, 118
9, 0, Control_c, 7, 10, 74
9, 0, Control_c, 7, 91, 98
9, 31680, Note_on_c, 7, 67, 105
9, 31681, Note_on_c, 7, 71, 108
9, 32487, Note_on_c, 7, 67, 0
9, 32493, Note_on_c, 7, 71, 0
9, 33613, Note_on_c, 7, 71, 114
9, 33615, Note_on_c, 7, 67, 103
9, 34489, Note_on_c, 7, 71, 0
9, 34490, Note_on_c, 7, 67, 0
9, 35517, Note_on_c, 7, 64, 111
9, 35521, Note_on_c, 7, 59, 102
9, 35531, Note_on_c, 7, 69, 107
9, 35844, Note_on_c, 7, 64, 0
9, 35845, Note_on_c, 7, 59, 0
9, 35877, Note_on_c, 7, 64, 105
9, 35885, Note_on_c, 7, 57, 110
9, 35892, Note_on_c, 7, 67, 105
9, 35899, Note_on_c, 7, 69, 0
9, 36302, Note_on_c, 7, 64, 0
9, 36347, Note_on_c, 7, 57, 0
9, 36391, Note_on_c, 7, 67, 0
9, 36474, Note_on_c, 7, 59, 105
9, 36490, Note_on_c, 7, 67, 113
9, 36492, Note_on_c, 7, 64, 116
9, 36656, Note_on_c, 7, 59, 0
9, 36671, Note_on_c, 7, 64, 0
9, 36690, Note_on_c, 7, 67, 0
9, 36717, Note_on_c, 7, 67, 82
9, 36717, Note_on_c, 7, 64, 102
9, 36727, Note_on_c, 7, 59, 110
9, 36780, Note_on_c, 7, 59, 0
9, 36787, Note_on_c, 7, 64, 0
9, 36792, Note_on_c, 7, 67, 0
9, 36845, Note_on_c, 7, 64, 116
9, 36847, Note_on_c, 7, 66, 107
9, 36850, Note_on_c, 7, 58, 107
9, 37205, Note_on_c, 7, 58, 0
9, 37242, Note_on_c, 7, 64, 0
9, 37255, Note_on_c, 7, 66, 0
9, 37429, Note_on_c, 7, 62, 110
9, 37449, Note_on_c, 7, 59, 105
9, 37450, Note_on_c, 7, 66, 102
9, 37699, Note_on_c, 7, 59, 0
9, 37715, Note_on_c, 7, 62, 0
9, 37774, Note_on_c, 7, 66, 0
9, 37798, Note_on_c, 7, 62, 107
9, 37804, Note_on_c, 7, 67, 102
9, 37807, Note_on_c, 7, 59, 110
9, 37992, Note_on_c, 7, 62, 0
9, 38034, Note_on_c, 7, 62, 105
9, 38134, Note_on_c, 7, 62, 0
9, 38137, Note_on_c, 7, 59, 0
9, 38189, Note_on_c, 7, 67, 0
9, 38391, Note_on_c, 7, 55, 102
9, 38400, Note_on_c, 7, 64, 100
9, 38402, Note_on_c, 7, 60, 107
9, 38647, Note_on_c, 7, 60, 0
9, 38659, Note_on_c, 7, 55, 0
9, 38672, Note_on_c, 7, 64, 0
9, 38747, Note_on_c, 7, 64, 116
9, 38750, Note_on_c, 7, 57, 105
9, 38750, Note_on_c, 7, 67, 119
9, 38951, Note_on_c, 7, 57, 0
9, 38954, Note_on_c, 7, 64, 0
9, 38955, Note_on_c, 7, 67, 0
9, 38985, Note_on_c, 7, 67, 105
9, 38985, Note_on_c, 7, 64, 89
9, 38992, Note_on_c, 7, 57, 100
9, 39051, Note_on_c, 7, 67, 0
9, 39060, Note_on_c, 7, 64, 0
9, 39067, Note_on_c, 7, 57, 0
9, 73934, Note_on_c, 7, 67, 105
9, 73935, Note_on_c, 7, 71, 108
9, 74707, Note_on_c, 7, 71, 0
9, 74712, Note_on_c, 7, 67, 0
9, 75827, Note_on_c, 7, 71, 96
9, 75830, Note_on_c, 7, 67, 89
9, 76723, Note_on_c, 7, 71, 0
9, 76725, Note_on_c, 7, 67, 0
9, 77761, Note_on_c, 7, 59, 100
9, 77762, Note_on_c, 7, 69, 105
9, 77763, Note_on_c, 7, 64, 117
9, 78085, Note_on_c, 7, 59, 0
9, 78125, Note_on_c, 7, 57, 108
9, 78132, Note_on_c, 7, 67, 100
9, 78135, Note_on_c, 7, 69, 0
9, 78462, Note_on_c, 7, 64, 0
9, 78589, Note_on_c, 7, 57, 0
9, 78594, Note_on_c, 7, 67, 0
9, 78715, Note_on_c, 7, 59, 103
9, 78730, Note_on_c, 7, 67, 117
9, 78733, Note_on_c, 7, 64, 111
9, 78895, Note_on_c, 7, 59, 0
9, 78919, Note_on_c, 7, 67, 0
9, 78929, Note_on_c, 7, 64, 0
9, 78957, Note_on_c, 7, 67, 100
9, 78960, Note_on_c, 7, 64, 83
9, 78967, Note_on_c, 7, 59, 108
9, 79020, Note_on_c, 7, 59, 0
9, 79037, Note_on_c, 7, 64, 0
9, 79041, Note_on_c, 7, 67, 0
9, 79076, Note_on_c, 7, 66, 98
9, 79085, Note_on_c, 7, 64, 117
9, 79090, Note_on_c, 7, 58, 105
9, 79446, Note_on_c, 7, 58, 0
9, 79449, Note_on_c, 7, 64, 0
9, 79470, Note_on_c, 7, 66, 0
9, 79679, Note_on_c, 7, 66, 100
9, 79688, Note_on_c, 7, 59, 103
9, 79696, Note_on_c, 7, 62, 103
9, 79939, Note_on_c, 7, 59, 0
9, 79982, Note_on_c, 7, 66, 0
9, 80003, Note_on_c, 7, 62, 0
9, 80037, Note_on_c, 7, 67, 105
9, 80044, Note_on_c, 7, 62, 108
9, 80046, Note_on_c, 7, 59, 108
9, 80245, Note_on_c, 7, 62, 0
9, 80278, Note_on_c, 7, 62, 80
9, 80362, Note_on_c, 7, 62, 0
9, 80377, Note_on_c, 7, 59, 0
9, 80387, Note_on_c, 7, 67, 0
9, 80632, Note_on_c, 7, 55, 100
9, 80652, Note_on_c, 7, 60, 105
9, 80655, Note_on_c, 7, 64, 103
9, 80897, Note_on_c, 7, 60, 0
9, 80899, Note_on_c, 7, 55, 0
9, 80923, Note_on_c, 7, 64, 0
9, 80990, Note_on_c, 7, 57, 103
9, 80991, Note_on_c, 7, 67, 117
9, 80993, Note_on_c, 7, 64, 111
9, 81192, Note_on_c, 7, 57, 0
9, 81195, Note_on_c, 7, 64, 0
9, 81205, Note_on_c, 7, 67, 0
9, 81232, Note_on_c, 7, 57, 98
9, 81233, Note_on_c, 7, 67, 98
9, 81235, Note_on_c, 7, 64, 105
9, 81287, Note_on_c, 7, 64, 0
9, 81307, Note_on_c, 7, 57, 0
9, 81315, Note_on_c, 7, 67, 0
9, 81587, Note_on_c, 7, 64, 117
9, 81597, Note_on_c, 7, 67, 100
9, 81597, Note_on_c, 7, 71, 108
9, 81601, Note_on_c, 7, 64, 0
9, 82425, Note_on_c, 7, 71, 0
9, 82428, Note_on_c, 7, 67, 0
9, 83514, Note_on_c, 7, 67, 96
9, 83517, Note_on_c, 7, 71, 100
9, 84207, Note_on_c, 7, 67, 0
9, 84208, Note_on_c, 7, 71, 0
9, 85437, Note_on_c, 7, 64, 114
9, 85440, Note_on_c, 7, 59, 100
9, 85452, Note_on_c, 7, 69, 117
9, 85752, Note_on_c, 7, 69, 0
9, 85764, Note_on_c, 7, 59, 0
9, 85807, Note_on_c, 7, 57, 108
9, 85808, Note_on_c, 7, 67, 120
9, 86170, Note_on_c, 7, 64, 0
9, 86182, Note_on_c, 7, 67, 0
9, 86266, Note_on_c, 7, 57, 0
9, 86394, Note_on_c, 7, 64, 103
9, 86396, Note_on_c, 7, 59, 103
9, 86410, Note_on_c, 7, 67, 108
9, 86575, Note_on_c, 7, 59, 0
9, 86597, Note_on_c, 7, 64, 0
9, 86608, Note_on_c, 7, 67, 0
9, 86645, Note_on_c, 7, 64, 93
9, 86647, Note_on_c, 7, 59, 108
9, 86657, Note_on_c, 7, 67, 103
9, 86692, Note_on_c, 7, 64, 0
9, 86700, Note_on_c, 7, 59, 0
9, 86720, Note_on_c, 7, 67, 0
9, 86765, Note_on_c, 7, 64, 111
9, 86770, Note_on_c, 7, 58, 105
9, 86770, Note_on_c, 7, 66, 98
9, 87125, Note_on_c, 7, 58, 0
9, 87154, Note_on_c, 7, 66, 0
9, 87160, Note_on_c, 7, 64, 0
9, 87345, Note_on_c, 7, 62, 103
9, 87355, Note_on_c, 7, 66, 105
9, 87368, Note_on_c, 7, 59, 103
9, 87620, Note_on_c, 7, 59, 0
9, 87640, Note_on_c, 7, 62, 0
9, 87672, Note_on_c, 7, 66, 0
9, 87712, Note_on_c, 7, 62, 111
9, 87725, Note_on_c, 7, 67, 114
9, 87727, Note_on_c, 7, 59, 108
9, 87927, Note_on_c, 7, 62, 0
9, 87933, Note_on_c, 7, 67, 0
9, 87955, Note_on_c, 7, 62, 93
9, 87967, Note_on_c, 7, 67, 103
9, 88021, Note_on_c, 7, 67, 0
9, 88024, Note_on_c, 7, 62, 0
9, 88057, Note_on_c, 7, 59, 0
9, 88304, Note_on_c, 7, 60, 108
9, 88312, Note_on_c, 7, 55, 100
9, 88329, Note_on_c, 7, 64, 111
9, 88568, Note_on_c, 7, 60, 0
9, 88579, Note_on_c, 7, 55, 0
9, 88593, Note_on_c, 7, 64, 0
9, 88669, Note_on_c, 7, 57, 103
9, 88677, Note_on_c, 7, 67, 125
9, 88678, Note_on_c, 7, 64, 114
9, 88872, Note_on_c, 7, 57, 0
9, 88875, Note_on_c, 7, 64, 0
9, 88901, Note_on_c, 7, 67, 0
9, 88913, Note_on_c, 7, 57, 98
9, 88915, Note_on_c, 7, 64, 108
9, 88929, Note_on_c, 7, 67, 80
9, 88970, Note_on_c, 7, 67, 0
9, 88970, Note_on_c, 7, 64, 0
9, 88987, Note_on_c, 7, 57, 0
9, 89282, Note_on_c, 7, 67, 100
9, 89283, Note_on_c, 7, 71, 108
9, 90105, Note_on_c, 7, 71, 0
9, 90108, Note_on_c, 7, 67, 0
9, 91195, Note_on_c, 7, 67, 96
9, 91197, Note_on_c, 7, 71, 100
9, 91887, Note_on_c, 7, 71, 0
9, 91887, Note_on_c, 7, 67, 0
9, 93117, Note_on_c, 7, 64, 114
9, 93120, Note_on_c, 7, 59, 100
9, 93132, Note_on_c, 7, 69, 117
9, 93432, Note_on_c, 7, 69, 0
9, 93445, Note_on_c, 7, 59, 0
9, 93485, Note_on_c, 7, 57, 108
9, 93487, Note_on_c, 7, 67, 120
9, 93850, Note_on_c, 7, 64, 0
9, 93862, Note_on_c, 7, 67, 0
9, 93947, Note_on_c, 7, 57, 0
9, 94072, Note_on_c, 7, 64, 103
9, 94075, Note_on_c, 7, 59, 103
9, 94089, Note_on_c, 7, 67, 108
9, 94255, Note_on_c, 7, 59, 0
9, 94277, Note_on_c, 7, 64, 0
9, 94288, Note_on_c, 7, 67, 0
9, 94324, Note_on_c, 7, 64, 93
9, 94327, Note_on_c, 7, 59, 108
9, 94337, Note_on_c, 7, 67, 103
9, 94372, Note_on_c, 7, 64, 0
9, 94380, Note_on_c, 7, 59, 0
9, 94400, Note_on_c, 7, 67, 0
9, 94446, Note_on_c, 7, 64, 111
9, 94451, Note_on_c, 7, 58, 105
9, 94451, Note_on_c, 7, 66, 98
9, 94805, Note_on_c, 7, 58, 0
9, 94835, Note_on_c, 7, 66, 0
9, 94840, Note_on_c, 7, 64, 0
9, 95025, Note_on_c, 7, 62, 103
9, 95033, Note_on_c, 7, 66, 105
9, 95048, Note_on_c, 7, 59, 103
9, 95299, Note_on_c, 7, 59, 0
9, 95320, Note_on_c, 7, 62, 0
9, 95352, Note_on_c, 7, 66, 0
9, 95392, Note_on_c, 7, 62, 111
9, 95405, Note_on_c, 7, 67, 114
9, 95407, Note_on_c, 7, 59, 108
9, 95607, Note_on_c, 7, 62, 0
9, 95612, Note_on_c, 7, 67, 0
9, 95635, Note_on_c, 7, 62, 93
9, 95647, Note_on_c, 7, 67, 103
9, 95702, Note_on_c, 7, 67, 0
9, 95705, Note_on_c, 7, 62, 0
9, 95737, Note_on_c, 7, 59, 0
9, 95985, Note_on_c, 7, 60, 108
9, 95992, Note_on_c, 7, 55, 100
9, 96007, Note_on_c, 7, 64, 111
9, 96248, Note_on_c, 7, 60, 0
9, 96260, Note_on_c, 7, 55, 0
9, 96271, Note_on_c, 7, 64, 0
9, 96350, Note_on_c, 7, 57, 103
9, 96357, Note_on_c, 7, 67, 125
9, 96359, Note_on_c, 7, 64, 114
9, 96552, Note_on_c, 7, 57, 0
9, 96555, Note_on_c, 7, 64, 0
9, 96582, Note_on_c, 7, 67, 0
9, 96592, Note_on_c, 7, 57, 98
9, 96595, Note_on_c, 7, 64, 108
9, 96608, Note_on_c, 7, 67, 80
9, 96609, Control_c, 7, 91, 0
9, 96649, Note_on_c, 7, 64, 0
9, 96650, Note_on_c, 7, 67, 0
9, 96667, Note_on_c, 7, 57, 0
9, 96667, End_track
10, 0, Start_track
10, 0, MIDI_port, 0
10, 0, Title_t, "C9-P68-Saxes"
10, 0, Control_c, 8, 0, 56
10, 0, Control_c, 8, 32, 0
10, 0, Program_c, 8, 67
10, 0, Control_c, 8, 7, 87
10, 0, Control_c, 8, 10, 119
10, 240, Control_c, 8, 91, 55
10, 1202, Note_on_c, 8, 64, 97
10, 1251, Note_on_c, 8, 64, 0
10, 1387, Note_on_c, 8, 62, 81
10, 1546, Note_on_c, 8, 62, 0
10, 1560, Note_on_c, 8, 64, 79
10, 1591, Note_on_c, 8, 64, 0
10, 2382, Note_on_c, 8, 61, 60
10, 2400, Note_on_c, 8, 37, 115
10, 2424, Note_on_c, 8, 61, 0
10, 2442, Note_on_c, 8, 64, 68
10, 2447, Note_on_c, 8, 37, 0
10, 2467, Note_on_c, 8, 40, 90
10, 2484, Note_on_c, 8, 64, 0
10, 2502, Note_on_c, 8, 66, 60
10, 2513, Note_on_c, 8, 40, 0
10, 2520, Note_on_c, 8, 42, 90
10, 2546, Note_on_c, 8, 66, 0
10, 2562, Note_on_c, 8, 42, 0
10, 2564, Note_on_c, 8, 69, 90
10, 2572, Note_on_c, 8, 45, 90
10, 2705, Note_on_c, 8, 69, 0
10, 2744, Note_on_c, 8, 45, 0
10, 2753, Note_on_c, 8, 66, 90
10, 2760, Note_on_c, 8, 42, 90
10, 2789, Note_on_c, 8, 66, 0
10, 2814, Note_on_c, 8, 42, 0
10, 2990, Note_on_c, 8, 60, 77
10, 2997, Note_on_c, 8, 48, 80
10, 3027, Note_on_c, 8, 60, 0
10, 3049, Note_on_c, 8, 48, 0
10, 3173, Note_on_c, 8, 62, 82
10, 3184, Note_on_c, 8, 50, 86
10, 3215, Note_on_c, 8, 62, 0
10, 3244, Note_on_c, 8, 50, 0
10, 3350, Note_on_c, 8, 60, 71
10, 3360, Note_on_c, 8, 48, 75
10, 3391, Note_on_c, 8, 60, 0
10, 3404, Note_on_c, 8, 48, 0
10, 4314, Note_on_c, 8, 35, 94
10, 4317, Note_on_c, 8, 59, 72
10, 4359, Note_on_c, 8, 59, 0
10, 4375, Note_on_c, 8, 38, 94
10, 4378, Note_on_c, 8, 35, 0
10, 4378, Note_on_c, 8, 62, 79
10, 4419, Note_on_c, 8, 62, 0
10, 4432, Note_on_c, 8, 38, 0
10, 4435, Note_on_c, 8, 40, 94
10, 4438, Note_on_c, 8, 64, 76
10, 4479, Note_on_c, 8, 64, 0
10, 4480, Note_on_c, 8, 40, 0
10, 4485, Note_on_c, 8, 43, 94
10, 4501, Note_on_c, 8, 67, 83
10, 4663, Note_on_c, 8, 43, 0
10, 4664, Note_on_c, 8, 67, 0
10, 4680, Note_on_c, 8, 64, 83
10, 4687, Note_on_c, 8, 40, 94
10, 4714, Note_on_c, 8, 64, 0
10, 4729, Note_on_c, 8, 40, 0
10, 4902, Note_on_c, 8, 58, 71
10, 4907, Note_on_c, 8, 46, 82
10, 4951, Note_on_c, 8, 46, 0
10, 4963, Note_on_c, 8, 58, 0
10, 5081, Note_on_c, 8, 60, 82
10, 5095, Note_on_c, 8, 48, 82
10, 5127, Note_on_c, 8, 60, 0
10, 5140, Note_on_c, 8, 48, 0
10, 5272, Note_on_c, 8, 46, 82
10, 5272, Note_on_c, 8, 58, 80
10, 5316, Note_on_c, 8, 46, 0
10, 5328, Note_on_c, 8, 58, 0
10, 6234, Note_on_c, 8, 33, 90
10, 6237, Note_on_c, 8, 57, 79
10, 6277, Note_on_c, 8, 57, 0
10, 6295, Note_on_c, 8, 60, 75
10, 6296, Note_on_c, 8, 33, 0
10, 6297, Note_on_c, 8, 36, 90
10, 6337, Note_on_c, 8, 60, 0
10, 6337, Note_on_c, 8, 38, 90
10, 6345, Note_on_c, 8, 62, 58
10, 6352, Note_on_c, 8, 36, 0
10, 6393, Note_on_c, 8, 62, 0
10, 6394, Note_on_c, 8, 38, 0
10, 6399, Note_on_c, 8, 41, 90
10, 6410, Note_on_c, 8, 65, 90
10, 6476, Pitch_bend_c, 8, 10298
10, 6483, Pitch_bend_c, 8, 14096
10, 6490, Pitch_bend_c, 8, 16376
10, 6495, Pitch_bend_c, 8, 16383
10, 6502, Pitch_bend_c, 8, 16292
10, 6510, Pitch_bend_c, 8, 13166
10, 6515, Pitch_bend_c, 8, 9452
10, 6523, Pitch_bend_c, 8, 8192
10, 6547, Pitch_bend_c, 8, 8696
10, 6555, Note_on_c, 8, 41, 0
10, 6563, Pitch_bend_c, 8, 8528
10, 6568, Pitch_bend_c, 8, 8192
10, 6569, Note_on_c, 8, 65, 0
10, 6585, Note_on_c, 8, 62, 83
10, 6587, Note_on_c, 8, 38, 90
10, 6616, Note_on_c, 8, 62, 0
10, 6619, Note_on_c, 8, 38, 0
10, 22081, Note_on_c, 8, 67, 88
10, 22284, Note_on_c, 8, 67, 0
10, 22325, Note_on_c, 8, 67, 81
10, 22430, Note_on_c, 8, 67, 0
10, 22435, Note_on_c, 8, 69, 64
10, 22474, Note_on_c, 8, 69, 0
10, 22502, Note_on_c, 8, 71, 81
10, 22536, Note_on_c, 8, 71, 0
10, 22925, Note_on_c, 8, 74, 88
10, 22964, Note_on_c, 8, 74, 0
10, 23052, Note_on_c, 8, 67, 81
10, 23241, Note_on_c, 8, 67, 0
10, 23287, Note_on_c, 8, 67, 88
10, 23385, Note_on_c, 8, 67, 0
10, 23397, Note_on_c, 8, 69, 64
10, 23429, Note_on_c, 8, 69, 0
10, 23461, Note_on_c, 8, 71, 79
10, 23489, Note_on_c, 8, 71, 0
10, 25922, Note_on_c, 8, 67, 88
10, 26124, Note_on_c, 8, 67, 0
10, 26165, Note_on_c, 8, 67, 81
10, 26271, Note_on_c, 8, 67, 0
10, 26275, Note_on_c, 8, 69, 64
10, 26315, Note_on_c, 8, 69, 0
10, 26342, Note_on_c, 8, 71, 81
10, 26377, Note_on_c, 8, 71, 0
10, 26764, Note_on_c, 8, 74, 88
10, 26804, Note_on_c, 8, 74, 0
10, 26892, Note_on_c, 8, 67, 81
10, 27082, Note_on_c, 8, 67, 0
10, 27128, Note_on_c, 8, 67, 88
10, 27225, Note_on_c, 8, 67, 0
10, 27238, Note_on_c, 8, 69, 64
10, 27269, Note_on_c, 8, 69, 0
10, 27300, Note_on_c, 8, 71, 79
10, 27327, Note_on_c, 8, 71, 0
10, 43442, Note_on_c, 8, 64, 97
10, 43491, Note_on_c, 8, 64, 0
10, 43627, Note_on_c, 8, 62, 81
10, 43786, Note_on_c, 8, 62, 0
10, 43800, Note_on_c, 8, 64, 79
10, 43831, Note_on_c, 8, 64, 0
10, 44622, Note_on_c, 8, 61, 60
10, 44640, Note_on_c, 8, 37, 115
10, 44664, Note_on_c, 8, 61, 0
10, 44682, Note_on_c, 8, 64, 68
10, 44687, Note_on_c, 8, 37, 0
10, 44707, Note_on_c, 8, 40, 90
10, 44724, Note_on_c, 8, 64, 0
10, 44742, Note_on_c, 8, 66, 60
10, 44753, Note_on_c, 8, 40, 0
10, 44760, Note_on_c, 8, 42, 90
10, 44786, Note_on_c, 8, 66, 0
10, 44802, Note_on_c, 8, 42, 0
10, 44804, Note_on_c, 8, 69, 90
10, 44812, Note_on_c, 8, 45, 90
10, 44945, Note_on_c, 8, 69, 0
10, 44984, Note_on_c, 8, 45, 0
10, 44993, Note_on_c, 8, 66, 90
10, 45000, Note_on_c, 8, 42, 90
10, 45029, Note_on_c, 8, 66, 0
10, 45054, Note_on_c, 8, 42, 0
10, 45230, Note_on_c, 8, 60, 77
10, 45237, Note_on_c, 8, 48, 80
10, 45267, Note_on_c, 8, 60, 0
10, 45289, Note_on_c, 8, 48, 0
10, 45413, Note_on_c, 8, 62, 82
10, 45424, Note_on_c, 8, 50, 86
10, 45455, Note_on_c, 8, 62, 0
10, 45484, Note_on_c, 8, 50, 0
10, 45590, Note_on_c, 8, 60, 71
10, 45600, Note_on_c, 8, 48, 75
10, 45631, Note_on_c, 8, 60, 0
10, 45644, Note_on_c, 8, 48, 0
10, 46554, Note_on_c, 8, 35, 94
10, 46557, Note_on_c, 8, 59, 72
10, 46599, Note_on_c, 8, 59, 0
10, 46615, Note_on_c, 8, 38, 94
10, 46618, Note_on_c, 8, 35, 0
10, 46618, Note_on_c, 8, 62, 79
10, 46659, Note_on_c, 8, 62, 0
10, 46672, Note_on_c, 8, 38, 0
10, 46675, Note_on_c, 8, 40, 94
10, 46678, Note_on_c, 8, 64, 76
10, 46719, Note_on_c, 8, 64, 0
10, 46720, Note_on_c, 8, 40, 0
10, 46725, Note_on_c, 8, 43, 94
10, 46741, Note_on_c, 8, 67, 83
10, 46903, Note_on_c, 8, 43, 0
10, 46904, Note_on_c, 8, 67, 0
10, 46920, Note_on_c, 8, 64, 83
10, 46927, Note_on_c, 8, 40, 94
10, 46954, Note_on_c, 8, 64, 0
10, 46969, Note_on_c, 8, 40, 0
10, 47142, Note_on_c, 8, 58, 71
10, 47147, Note_on_c, 8, 46, 82
10, 47191, Note_on_c, 8, 46, 0
10, 47203, Note_on_c, 8, 58, 0
10, 47321, Note_on_c, 8, 60, 82
10, 47335, Note_on_c, 8, 48, 82
10, 47367, Note_on_c, 8, 60, 0
10, 47380, Note_on_c, 8, 48, 0
10, 47512, Note_on_c, 8, 46, 82
10, 47512, Note_on_c, 8, 58, 80
10, 47556, Note_on_c, 8, 46, 0
10, 47568, Note_on_c, 8, 58, 0
10, 48474, Note_on_c, 8, 33, 90
10, 48477, Note_on_c, 8, 57, 79
10, 48517, Note_on_c, 8, 57, 0
10, 48535, Note_on_c, 8, 60, 75
10, 48536, Note_on_c, 8, 33, 0
10, 48537, Note_on_c, 8, 36, 90
10, 48577, Note_on_c, 8, 60, 0
10, 48577, Note_on_c, 8, 38, 90
10, 48585, Note_on_c, 8, 62, 58
10, 48592, Note_on_c, 8, 36, 0
10, 48633, Note_on_c, 8, 62, 0
10, 48634, Note_on_c, 8, 38, 0
10, 48639, Note_on_c, 8, 41, 90
10, 48650, Note_on_c, 8, 65, 90
10, 48716, Pitch_bend_c, 8, 10298
10, 48723, Pitch_bend_c, 8, 14096
10, 48730, Pitch_bend_c, 8, 16376
10, 48735, Pitch_bend_c, 8, 16383
10, 48742, Pitch_bend_c, 8, 16292
10, 48750, Pitch_bend_c, 8, 13166
10, 48755, Pitch_bend_c, 8, 9452
10, 48763, Pitch_bend_c, 8, 8192
10, 48787, Pitch_bend_c, 8, 8696
10, 48795, Note_on_c, 8, 41, 0
10, 48803, Pitch_bend_c, 8, 8528
10, 48808, Pitch_bend_c, 8, 8192
10, 48809, Note_on_c, 8, 65, 0
10, 48825, Note_on_c, 8, 62, 83
10, 48827, Note_on_c, 8, 38, 90
10, 48856, Note_on_c, 8, 62, 0
10, 48859, Note_on_c, 8, 38, 0
10, 64321, Note_on_c, 8, 67, 84
10, 64524, Note_on_c, 8, 67, 0
10, 64565, Note_on_c, 8, 67, 77
10, 64670, Note_on_c, 8, 67, 0
10, 64674, Note_on_c, 8, 69, 60
10, 64714, Note_on_c, 8, 69, 0
10, 64742, Note_on_c, 8, 71, 77
10, 64776, Note_on_c, 8, 71, 0
10, 65166, Note_on_c, 8, 74, 84
10, 65204, Note_on_c, 8, 74, 0
10, 65292, Note_on_c, 8, 67, 77
10, 65481, Note_on_c, 8, 67, 0
10, 65527, Note_on_c, 8, 67, 84
10, 65625, Note_on_c, 8, 67, 0
10, 65637, Note_on_c, 8, 69, 60
10, 65669, Note_on_c, 8, 69, 0
10, 65701, Note_on_c, 8, 71, 75
10, 65727, Note_on_c, 8, 71, 0
10, 68162, Note_on_c, 8, 67, 84
10, 68364, Note_on_c, 8, 67, 0
10, 68405, Note_on_c, 8, 67, 77
10, 68512, Note_on_c, 8, 67, 0
10, 68516, Note_on_c, 8, 69, 60
10, 68554, Note_on_c, 8, 69, 0
10, 68582, Note_on_c, 8, 71, 77
10, 68617, Note_on_c, 8, 71, 0
10, 69004, Note_on_c, 8, 74, 84
10, 69044, Note_on_c, 8, 74, 0
10, 69132, Note_on_c, 8, 67, 77
10, 69321, Note_on_c, 8, 67, 0
10, 69368, Note_on_c, 8, 67, 84
10, 69465, Note_on_c, 8, 67, 0
10, 69478, Note_on_c, 8, 69, 60
10, 69509, Note_on_c, 8, 69, 0
10, 69540, Note_on_c, 8, 71, 75
10, 69542, Control_c, 8, 91, 0
10, 69568, Note_on_c, 8, 71, 0
10, 69568, End_track
11, 0, Start_track
11, 0, MIDI_port, 0
11, 0, Title_t, "C10-Drums"
11, 0, Control_c, 9, 0, 62
11, 0, Control_c, 9, 32, 0
11, 0, Program_c, 9, 0
11, 0, Control_c, 9, 7, 90
11, 0, Control_c, 9, 10, 64
11, 966, Control_c, 9, 91, 88
11, 967, Note_on_c, 9, 51, 49
11, 1014, Note_on_c, 9, 51, 0
11, 1085, Note_on_c, 9, 51, 29
11, 1113, Note_on_c, 9, 51, 0
11, 1152, Note_on_c, 9, 51, 73
11, 1175, Note_on_c, 9, 51, 0
11, 1206, Note_on_c, 9, 51, 66
11, 1206, Note_on_c, 9, 35, 120
11, 1257, Note_on_c, 9, 51, 0
11, 1298, Note_on_c, 9, 35, 0
11, 1326, Note_on_c, 9, 51, 29
11, 1327, Note_on_c, 9, 51, 0
11, 1390, Note_on_c, 9, 51, 68
11, 1414, Note_on_c, 9, 51, 0
11, 1447, Note_on_c, 9, 51, 59
11, 1498, Note_on_c, 9, 51, 0
11, 1566, Note_on_c, 9, 51, 29
11, 1567, Note_on_c, 9, 51, 0
11, 1631, Note_on_c, 9, 51, 73
11, 1655, Note_on_c, 9, 51, 0
11, 1687, Note_on_c, 9, 42, 44
11, 1687, Note_on_c, 9, 51, 59
11, 1738, Note_on_c, 9, 51, 0
11, 1773, Note_on_c, 9, 42, 0
11, 1806, Note_on_c, 9, 51, 29
11, 1807, Note_on_c, 9, 51, 0
11, 1872, Note_on_c, 9, 51, 77
11, 1895, Note_on_c, 9, 51, 0
11, 1927, Note_on_c, 9, 51, 61
11, 1977, Note_on_c, 9, 51, 0
11, 2045, Note_on_c, 9, 51, 29
11, 2046, Note_on_c, 9, 51, 0
11, 2111, Note_on_c, 9, 51, 73
11, 2134, Note_on_c, 9, 51, 0
11, 2166, Note_on_c, 9, 51, 66
11, 2166, Note_on_c, 9, 35, 126
11, 2218, Note_on_c, 9, 51, 0
11, 2241, Note_on_c, 9, 35, 0
11, 2287, Note_on_c, 9, 51, 29
11, 2288, Note_on_c, 9, 51, 0
11, 2350, Note_on_c, 9, 51, 68
11, 2373, Note_on_c, 9, 51, 0
11, 2406, Note_on_c, 9, 51, 58
11, 2457, Note_on_c, 9, 51, 0
11, 2527, Note_on_c, 9, 51, 29
11, 2554, Note_on_c, 9, 51, 0
11, 2591, Note_on_c, 9, 51, 73
11, 2614, Note_on_c, 9, 51, 0
11, 2646, Note_on_c, 9, 42, 49
11, 2646, Note_on_c, 9, 51, 66
11, 2697, Note_on_c, 9, 51, 0
11, 2726, Note_on_c, 9, 42, 0
11, 2767, Note_on_c, 9, 51, 29
11, 2794, Note_on_c, 9, 51, 0
11, 2832, Note_on_c, 9, 51, 77
11, 2854, Note_on_c, 9, 51, 0
11, 2885, Note_on_c, 9, 51, 61
11, 2937, Note_on_c, 9, 51, 0
11, 3006, Note_on_c, 9, 51, 29
11, 3007, Note_on_c, 9, 51, 0
11, 3072, Note_on_c, 9, 51, 68
11, 3095, Note_on_c, 9, 51, 0
11, 3127, Note_on_c, 9, 51, 68
11, 3127, Note_on_c, 9, 35, 122
11, 3170, Note_on_c, 9, 35, 0
11, 3178, Note_on_c, 9, 51, 0
11, 3246, Note_on_c, 9, 51, 29
11, 3247, Note_on_c, 9, 51, 0
11, 3310, Note_on_c, 9, 51, 66
11, 3334, Note_on_c, 9, 51, 0
11, 3367, Note_on_c, 9, 51, 59
11, 3418, Note_on_c, 9, 51, 0
11, 3486, Note_on_c, 9, 51, 29
11, 3487, Note_on_c, 9, 51, 0
11, 3551, Note_on_c, 9, 51, 73
11, 3574, Note_on_c, 9, 51, 0
11, 3606, Note_on_c, 9, 51, 61
11, 3607, Note_on_c, 9, 42, 52
11, 3657, Note_on_c, 9, 51, 0
11, 3687, Note_on_c, 9, 42, 0
11, 3725, Note_on_c, 9, 51, 29
11, 3726, Note_on_c, 9, 51, 0
11, 3791, Note_on_c, 9, 51, 86
11, 3792, Note_on_c, 9, 51, 0
11, 3847, Note_on_c, 9, 51, 64
11, 3898, Note_on_c, 9, 51, 0
11, 3967, Note_on_c, 9, 51, 29
11, 3968, Note_on_c, 9, 51, 0
11, 4030, Note_on_c, 9, 51, 73
11, 4053, Note_on_c, 9, 51, 0
11, 4086, Note_on_c, 9, 51, 61
11, 4086, Note_on_c, 9, 35, 124
11, 4137, Note_on_c, 9, 51, 0
11, 4153, Note_on_c, 9, 35, 0
11, 4207, Note_on_c, 9, 51, 29
11, 4234, Note_on_c, 9, 51, 0
11, 4271, Note_on_c, 9, 51, 68
11, 4294, Note_on_c, 9, 51, 0
11, 4326, Note_on_c, 9, 51, 61
11, 4377, Note_on_c, 9, 51, 0
11, 4447, Note_on_c, 9, 51, 29
11, 4474, Note_on_c, 9, 51, 0
11, 4512, Note_on_c, 9, 51, 73
11, 4535, Note_on_c, 9, 51, 0
11, 4566, Note_on_c, 9, 42, 55
11, 4566, Note_on_c, 9, 51, 64
11, 4617, Note_on_c, 9, 51, 0
11, 4629, Note_on_c, 9, 42, 0
11, 4687, Note_on_c, 9, 51, 29
11, 4714, Note_on_c, 9, 51, 0
11, 4750, Note_on_c, 9, 51, 77
11, 4774, Note_on_c, 9, 51, 0
11, 4806, Note_on_c, 9, 51, 53
11, 4857, Note_on_c, 9, 51, 0
11, 4926, Note_on_c, 9, 51, 29
11, 4927, Note_on_c, 9, 51, 0
11, 4990, Note_on_c, 9, 51, 71
11, 5013, Note_on_c, 9, 51, 0
11, 5045, Note_on_c, 9, 51, 59
11, 5047, Note_on_c, 9, 35, 120
11, 5097, Note_on_c, 9, 51, 0
11, 5111, Note_on_c, 9, 35, 0
11, 5166, Note_on_c, 9, 51, 29
11, 5167, Note_on_c, 9, 51, 0
11, 5231, Note_on_c, 9, 51, 75
11, 5254, Note_on_c, 9, 51, 0
11, 5286, Note_on_c, 9, 51, 59
11, 5337, Note_on_c, 9, 51, 0
11, 5406, Note_on_c, 9, 51, 29
11, 5407, Note_on_c, 9, 51, 0
11, 5471, Note_on_c, 9, 51, 54
11, 5494, Note_on_c, 9, 51, 0
11, 5526, Note_on_c, 9, 42, 49
11, 5526, Note_on_c, 9, 51, 64
11, 5578, Note_on_c, 9, 51, 0
11, 5608, Note_on_c, 9, 42, 0
11, 5647, Note_on_c, 9, 51, 29
11, 5648, Note_on_c, 9, 51, 0
11, 5712, Note_on_c, 9, 51, 77
11, 5732, Note_on_c, 9, 51, 0
11, 5760, Note_on_c, 9, 51, 77
11, 5762, Note_on_c, 9, 51, 0
11, 5766, Note_on_c, 9, 51, 59
11, 5818, Note_on_c, 9, 51, 0
11, 5887, Note_on_c, 9, 51, 29
11, 5888, Note_on_c, 9, 51, 0
11, 5951, Note_on_c, 9, 51, 66
11, 5974, Note_on_c, 9, 51, 0
11, 6006, Note_on_c, 9, 51, 61
11, 6006, Note_on_c, 9, 35, 124
11, 6057, Note_on_c, 9, 51, 0
11, 6063, Note_on_c, 9, 35, 0
11, 6126, Note_on_c, 9, 51, 29
11, 6127, Note_on_c, 9, 51, 0
11, 6192, Note_on_c, 9, 51, 64
11, 6215, Note_on_c, 9, 51, 0
11, 6246, Note_on_c, 9, 51, 64
11, 6297, Note_on_c, 9, 51, 0
11, 6367, Note_on_c, 9, 51, 29
11, 6391, Note_on_c, 9, 51, 0
11, 6431, Note_on_c, 9, 51, 69
11, 6455, Note_on_c, 9, 51, 0
11, 6487, Note_on_c, 9, 42, 49
11, 6487, Note_on_c, 9, 51, 71
11, 6518, Note_on_c, 9, 51, 0
11, 6561, Note_on_c, 9, 42, 0
11, 6606, Note_on_c, 9, 35, 113
11, 6646, Note_on_c, 9, 35, 0
11, 6725, Note_on_c, 9, 38, 94
11, 6736, Note_on_c, 9, 38, 96
11, 6786, Note_on_c, 9, 38, 0
11, 6796, Note_on_c, 9, 38, 0
11, 7206, Note_on_c, 9, 42, 17
11, 7278, Note_on_c, 9, 42, 0
11, 7327, Note_on_c, 9, 38, 104
11, 7335, Note_on_c, 9, 38, 104
11, 7376, Note_on_c, 9, 38, 0
11, 7385, Note_on_c, 9, 38, 0
11, 7446, Note_on_c, 9, 38, 104
11, 7456, Note_on_c, 9, 38, 104
11, 7496, Note_on_c, 9, 38, 0
11, 7506, Note_on_c, 9, 38, 0
11, 7566, Note_on_c, 9, 38, 104
11, 7576, Note_on_c, 9, 38, 104
11, 7616, Note_on_c, 9, 38, 0
11, 7626, Note_on_c, 9, 38, 0
11, 7685, Note_on_c, 9, 38, 68
11, 7685, Note_on_c, 9, 42, 30
11, 7685, Note_on_c, 9, 35, 127
11, 7687, Note_on_c, 9, 38, 0
11, 7725, Note_on_c, 9, 42, 0
11, 7745, Note_on_c, 9, 38, 69
11, 7746, Note_on_c, 9, 35, 0
11, 7785, Note_on_c, 9, 38, 0
11, 7803, Note_on_c, 9, 38, 74
11, 7805, Note_on_c, 9, 42, 34
11, 7843, Note_on_c, 9, 38, 0
11, 7845, Note_on_c, 9, 42, 0
11, 7866, Note_on_c, 9, 38, 78
11, 7869, Note_on_c, 9, 38, 0
11, 7926, Note_on_c, 9, 38, 82
11, 7926, Note_on_c, 9, 42, 33
11, 7966, Note_on_c, 9, 42, 0
11, 7986, Note_on_c, 9, 38, 0
11, 8046, Note_on_c, 9, 42, 86
11, 8047, Note_on_c, 9, 38, 90
11, 8086, Note_on_c, 9, 38, 0
11, 8098, Note_on_c, 9, 42, 0
11, 8107, Note_on_c, 9, 38, 95
11, 8107, Note_on_c, 9, 42, 32
11, 8118, Note_on_c, 9, 42, 0
11, 8147, Note_on_c, 9, 38, 0
11, 8167, Note_on_c, 9, 42, 49
11, 8198, Note_on_c, 9, 42, 0
11, 8285, Note_on_c, 9, 42, 81
11, 8285, Note_on_c, 9, 35, 114
11, 8345, Note_on_c, 9, 42, 0
11, 8346, Note_on_c, 9, 42, 32
11, 8347, Note_on_c, 9, 35, 0
11, 8358, Note_on_c, 9, 42, 0
11, 8406, Note_on_c, 9, 38, 120
11, 8406, Note_on_c, 9, 42, 52
11, 8446, Note_on_c, 9, 42, 0
11, 8466, Note_on_c, 9, 38, 0
11, 8525, Note_on_c, 9, 42, 88
11, 8585, Note_on_c, 9, 42, 0
11, 8585, Note_on_c, 9, 42, 34
11, 8586, Note_on_c, 9, 42, 0
11, 8647, Note_on_c, 9, 42, 43
11, 8647, Note_on_c, 9, 35, 127
11, 8668, Note_on_c, 9, 42, 0
11, 8707, Note_on_c, 9, 35, 0
11, 8766, Note_on_c, 9, 42, 81
11, 8826, Note_on_c, 9, 42, 0
11, 8826, Note_on_c, 9, 42, 28
11, 8827, Note_on_c, 9, 42, 0
11, 8886, Note_on_c, 9, 42, 49
11, 8887, Note_on_c, 9, 38, 123
11, 8908, Note_on_c, 9, 42, 0
11, 8947, Note_on_c, 9, 38, 0
11, 9006, Note_on_c, 9, 42, 81
11, 9063, Note_on_c, 9, 42, 0
11, 9065, Note_on_c, 9, 42, 28
11, 9075, Note_on_c, 9, 42, 0
11, 9125, Note_on_c, 9, 42, 45
11, 9158, Note_on_c, 9, 42, 0
11, 9246, Note_on_c, 9, 42, 86
11, 9247, Note_on_c, 9, 35, 115
11, 9300, Note_on_c, 9, 42, 0
11, 9305, Note_on_c, 9, 35, 0
11, 9305, Note_on_c, 9, 42, 32
11, 9317, Note_on_c, 9, 42, 0
11, 9365, Note_on_c, 9, 38, 123
11, 9365, Note_on_c, 9, 42, 51
11, 9399, Note_on_c, 9, 42, 0
11, 9425, Note_on_c, 9, 38, 0
11, 9485, Note_on_c, 9, 42, 79
11, 9543, Note_on_c, 9, 42, 0
11, 9546, Note_on_c, 9, 42, 39
11, 9566, Note_on_c, 9, 42, 0
11, 9605, Note_on_c, 9, 42, 51
11, 9605, Note_on_c, 9, 35, 124
11, 9640, Note_on_c, 9, 42, 0
11, 9665, Note_on_c, 9, 35, 0
11, 9725, Note_on_c, 9, 42, 84
11, 9787, Note_on_c, 9, 46, 76
11, 9788, Note_on_c, 9, 42, 0
11, 9799, Note_on_c, 9, 46, 0
11, 9847, Note_on_c, 9, 38, 123
11, 9847, Note_on_c, 9, 42, 51
11, 9888, Note_on_c, 9, 42, 0
11, 9906, Note_on_c, 9, 38, 0
11, 9965, Note_on_c, 9, 42, 88
11, 10026, Note_on_c, 9, 46, 71
11, 10031, Note_on_c, 9, 42, 0
11, 10041, Note_on_c, 9, 46, 0
11, 10087, Note_on_c, 9, 42, 47
11, 10117, Note_on_c, 9, 42, 0
11, 10205, Note_on_c, 9, 42, 88
11, 10206, Note_on_c, 9, 35, 117
11, 10263, Note_on_c, 9, 42, 0
11, 10265, Note_on_c, 9, 35, 0
11, 10327, Note_on_c, 9, 38, 123
11, 10327, Note_on_c, 9, 42, 51
11, 10348, Note_on_c, 9, 42, 0
11, 10387, Note_on_c, 9, 38, 0
11, 10445, Note_on_c, 9, 42, 77
11, 10505, Note_on_c, 9, 42, 0
11, 10505, Note_on_c, 9, 42, 41
11, 10506, Note_on_c, 9, 42, 0
11, 10565, Note_on_c, 9, 42, 49
11, 10565, Note_on_c, 9, 35, 126
11, 10586, Note_on_c, 9, 42, 0
11, 10627, Note_on_c, 9, 35, 0
11, 10687, Note_on_c, 9, 42, 81
11, 10745, Note_on_c, 9, 46, 71
11, 10748, Note_on_c, 9, 42, 0
11, 10758, Note_on_c, 9, 46, 0
11, 10805, Note_on_c, 9, 38, 120
11, 10805, Note_on_c, 9, 42, 51
11, 10823, Note_on_c, 9, 42, 0
11, 10867, Note_on_c, 9, 38, 0
11, 10927, Note_on_c, 9, 42, 67
11, 10985, Note_on_c, 9, 46, 72
11, 10993, Note_on_c, 9, 42, 0
11, 10998, Note_on_c, 9, 46, 0
11, 11046, Note_on_c, 9, 42, 46
11, 11081, Note_on_c, 9, 42, 0
11, 11166, Note_on_c, 9, 42, 84
11, 11167, Note_on_c, 9, 35, 126
11, 11227, Note_on_c, 9, 35, 0
11, 11227, Note_on_c, 9, 42, 0
11, 11227, Note_on_c, 9, 42, 31
11, 11228, Note_on_c, 9, 42, 0
11, 11286, Note_on_c, 9, 38, 120
11, 11286, Note_on_c, 9, 42, 47
11, 11308, Note_on_c, 9, 42, 0
11, 11346, Note_on_c, 9, 38, 0
11, 11405, Note_on_c, 9, 42, 69
11, 11461, Note_on_c, 9, 42, 0
11, 11466, Note_on_c, 9, 42, 33
11, 11476, Note_on_c, 9, 42, 0
11, 11527, Note_on_c, 9, 42, 46
11, 11527, Note_on_c, 9, 35, 126
11, 11543, Note_on_c, 9, 42, 0
11, 11586, Note_on_c, 9, 35, 0
11, 11646, Note_on_c, 9, 42, 90
11, 11705, Note_on_c, 9, 46, 75
11, 11715, Note_on_c, 9, 46, 0
11, 11749, Note_on_c, 9, 42, 0
11, 11767, Note_on_c, 9, 38, 120
11, 11767, Note_on_c, 9, 42, 46
11, 11797, Note_on_c, 9, 42, 0
11, 11826, Note_on_c, 9, 38, 0
11, 11886, Note_on_c, 9, 42, 66
11, 11946, Note_on_c, 9, 46, 69
11, 11960, Note_on_c, 9, 46, 0
11, 12003, Note_on_c, 9, 42, 0
11, 12006, Note_on_c, 9, 42, 46
11, 12036, Note_on_c, 9, 42, 0
11, 12126, Note_on_c, 9, 42, 88
11, 12126, Note_on_c, 9, 35, 110
11, 12186, Note_on_c, 9, 35, 0
11, 12186, Note_on_c, 9, 42, 0
11, 12186, Note_on_c, 9, 42, 28
11, 12187, Note_on_c, 9, 42, 0
11, 12246, Note_on_c, 9, 42, 46
11, 12247, Note_on_c, 9, 38, 120
11, 12273, Note_on_c, 9, 42, 0
11, 12306, Note_on_c, 9, 38, 0
11, 12367, Note_on_c, 9, 42, 67
11, 12416, Note_on_c, 9, 42, 0
11, 12485, Note_on_c, 9, 42, 31
11, 12486, Note_on_c, 9, 35, 124
11, 12523, Note_on_c, 9, 42, 0
11, 12546, Note_on_c, 9, 35, 0
11, 12607, Note_on_c, 9, 42, 88
11, 12666, Note_on_c, 9, 42, 0
11, 12666, Note_on_c, 9, 42, 37
11, 12667, Note_on_c, 9, 42, 0
11, 12725, Note_on_c, 9, 38, 123
11, 12725, Note_on_c, 9, 42, 55
11, 12758, Note_on_c, 9, 42, 0
11, 12786, Note_on_c, 9, 38, 0
11, 12845, Note_on_c, 9, 42, 63
11, 12907, Note_on_c, 9, 46, 75
11, 12917, Note_on_c, 9, 46, 0
11, 12920, Note_on_c, 9, 42, 0
11, 12966, Note_on_c, 9, 42, 49
11, 12998, Note_on_c, 9, 42, 0
11, 13085, Note_on_c, 9, 42, 86
11, 13087, Note_on_c, 9, 35, 126
11, 13147, Note_on_c, 9, 35, 0
11, 13147, Note_on_c, 9, 42, 0
11, 13147, Note_on_c, 9, 42, 37
11, 13148, Note_on_c, 9, 42, 0
11, 13207, Note_on_c, 9, 38, 123
11, 13207, Note_on_c, 9, 42, 39
11, 13235, Note_on_c, 9, 42, 0
11, 13266, Note_on_c, 9, 38, 0
11, 13326, Note_on_c, 9, 42, 75
11, 13385, Note_on_c, 9, 42, 0
11, 13386, Note_on_c, 9, 42, 30
11, 13387, Note_on_c, 9, 42, 0
11, 13445, Note_on_c, 9, 42, 51
11, 13447, Note_on_c, 9, 35, 126
11, 13482, Note_on_c, 9, 42, 0
11, 13506, Note_on_c, 9, 35, 0
11, 13566, Note_on_c, 9, 42, 86
11, 13625, Note_on_c, 9, 46, 68
11, 13638, Note_on_c, 9, 46, 0
11, 13663, Note_on_c, 9, 42, 0
11, 13685, Note_on_c, 9, 42, 51
11, 13687, Note_on_c, 9, 38, 120
11, 13721, Note_on_c, 9, 42, 0
11, 13746, Note_on_c, 9, 38, 0
11, 13805, Note_on_c, 9, 42, 66
11, 13866, Note_on_c, 9, 46, 66
11, 13883, Note_on_c, 9, 46, 0
11, 13913, Note_on_c, 9, 42, 0
11, 13926, Note_on_c, 9, 42, 53
11, 13963, Note_on_c, 9, 42, 0
11, 14045, Note_on_c, 9, 42, 88
11, 14045, Note_on_c, 9, 35, 117
11, 14096, Note_on_c, 9, 42, 0
11, 14106, Note_on_c, 9, 35, 0
11, 14107, Note_on_c, 9, 42, 29
11, 14118, Note_on_c, 9, 42, 0
11, 14166, Note_on_c, 9, 42, 32
11, 14167, Note_on_c, 9, 38, 123
11, 14205, Note_on_c, 9, 42, 0
11, 14226, Note_on_c, 9, 38, 0
11, 14286, Note_on_c, 9, 42, 71
11, 14346, Note_on_c, 9, 42, 0
11, 14346, Note_on_c, 9, 42, 25
11, 14347, Note_on_c, 9, 42, 0
11, 14405, Note_on_c, 9, 42, 36
11, 14405, Note_on_c, 9, 35, 124
11, 14433, Note_on_c, 9, 42, 0
11, 14466, Note_on_c, 9, 35, 0
11, 14527, Note_on_c, 9, 42, 86
11, 14586, Note_on_c, 9, 46, 68
11, 14605, Note_on_c, 9, 46, 0
11, 14621, Note_on_c, 9, 42, 0
11, 14646, Note_on_c, 9, 38, 120
11, 14646, Note_on_c, 9, 42, 49
11, 14676, Note_on_c, 9, 42, 0
11, 14705, Note_on_c, 9, 38, 0
11, 14766, Note_on_c, 9, 42, 75
11, 14827, Note_on_c, 9, 46, 69
11, 14846, Note_on_c, 9, 46, 0
11, 14878, Note_on_c, 9, 42, 0
11, 14886, Note_on_c, 9, 42, 49
11, 14913, Note_on_c, 9, 42, 0
11, 15006, Note_on_c, 9, 42, 88
11, 15007, Note_on_c, 9, 35, 126
11, 15063, Note_on_c, 9, 42, 0
11, 15067, Note_on_c, 9, 35, 0
11, 15067, Note_on_c, 9, 42, 30
11, 15078, Note_on_c, 9, 42, 0
11, 15126, Note_on_c, 9, 38, 118
11, 15126, Note_on_c, 9, 42, 47
11, 15160, Note_on_c, 9, 42, 0
11, 15186, Note_on_c, 9, 38, 0
11, 15246, Note_on_c, 9, 42, 71
11, 15306, Note_on_c, 9, 42, 0
11, 15306, Note_on_c, 9, 42, 30
11, 15307, Note_on_c, 9, 42, 0
11, 15367, Note_on_c, 9, 42, 45
11, 15367, Note_on_c, 9, 35, 127
11, 15402, Note_on_c, 9, 42, 0
11, 15425, Note_on_c, 9, 35, 0
11, 15486, Note_on_c, 9, 42, 88
11, 15546, Note_on_c, 9, 46, 69
11, 15563, Note_on_c, 9, 46, 0
11, 15588, Note_on_c, 9, 42, 0
11, 15607, Note_on_c, 9, 38, 120
11, 15607, Note_on_c, 9, 42, 26
11, 15651, Note_on_c, 9, 42, 0
11, 15667, Note_on_c, 9, 38, 0
11, 15725, Note_on_c, 9, 42, 69
11, 15786, Note_on_c, 9, 46, 66
11, 15798, Note_on_c, 9, 46, 0
11, 15846, Note_on_c, 9, 42, 0
11, 15846, Note_on_c, 9, 42, 55
11, 15847, Note_on_c, 9, 42, 0
11, 15966, Note_on_c, 9, 42, 90
11, 15966, Note_on_c, 9, 35, 120
11, 16026, Note_on_c, 9, 35, 0
11, 16026, Note_on_c, 9, 42, 0
11, 16026, Note_on_c, 9, 42, 32
11, 16027, Note_on_c, 9, 42, 0
11, 16087, Note_on_c, 9, 38, 118
11, 16087, Note_on_c, 9, 42, 49
11, 16123, Note_on_c, 9, 42, 0
11, 16146, Note_on_c, 9, 38, 0
11, 16206, Note_on_c, 9, 42, 71
11, 16266, Note_on_c, 9, 42, 0
11, 16266, Note_on_c, 9, 42, 36
11, 16267, Note_on_c, 9, 42, 0
11, 16327, Note_on_c, 9, 42, 49
11, 16327, Note_on_c, 9, 35, 126
11, 16358, Note_on_c, 9, 42, 0
11, 16386, Note_on_c, 9, 35, 0
11, 16447, Note_on_c, 9, 42, 88
11, 16507, Note_on_c, 9, 42, 0
11, 16508, Note_on_c, 9, 42, 25
11, 16509, Note_on_c, 9, 42, 0
11, 16566, Note_on_c, 9, 38, 120
11, 16566, Note_on_c, 9, 42, 32
11, 16596, Note_on_c, 9, 42, 0
11, 16626, Note_on_c, 9, 38, 0
11, 16686, Note_on_c, 9, 42, 61
11, 16747, Note_on_c, 9, 46, 71
11, 16760, Note_on_c, 9, 46, 0
11, 16792, Note_on_c, 9, 42, 0
11, 16806, Note_on_c, 9, 42, 43
11, 16843, Note_on_c, 9, 42, 0
11, 16925, Note_on_c, 9, 42, 86
11, 16926, Note_on_c, 9, 35, 122
11, 16983, Note_on_c, 9, 42, 0
11, 16986, Note_on_c, 9, 35, 0
11, 16987, Note_on_c, 9, 42, 36
11, 16998, Note_on_c, 9, 42, 0
11, 17047, Note_on_c, 9, 38, 118
11, 17047, Note_on_c, 9, 42, 49
11, 17079, Note_on_c, 9, 42, 0
11, 17106, Note_on_c, 9, 38, 0
11, 17166, Note_on_c, 9, 42, 69
11, 17225, Note_on_c, 9, 42, 0
11, 17225, Note_on_c, 9, 42, 27
11, 17226, Note_on_c, 9, 42, 0
11, 17285, Note_on_c, 9, 42, 49
11, 17287, Note_on_c, 9, 35, 127
11, 17320, Note_on_c, 9, 42, 0
11, 17347, Note_on_c, 9, 35, 0
11, 17406, Note_on_c, 9, 42, 79
11, 17466, Note_on_c, 9, 46, 68
11, 17480, Note_on_c, 9, 46, 0
11, 17516, Note_on_c, 9, 42, 0
11, 17525, Note_on_c, 9, 42, 45
11, 17527, Note_on_c, 9, 38, 123
11, 17556, Note_on_c, 9, 42, 0
11, 17587, Note_on_c, 9, 38, 0
11, 17645, Note_on_c, 9, 42, 59
11, 17706, Note_on_c, 9, 46, 68
11, 17724, Note_on_c, 9, 46, 0
11, 17742, Note_on_c, 9, 42, 0
11, 17766, Note_on_c, 9, 42, 42
11, 17804, Note_on_c, 9, 42, 0
11, 17887, Note_on_c, 9, 42, 73
11, 17887, Note_on_c, 9, 35, 124
11, 17933, Note_on_c, 9, 42, 0
11, 17945, Note_on_c, 9, 35, 0
11, 17945, Note_on_c, 9, 42, 28
11, 17961, Note_on_c, 9, 42, 0
11, 18006, Note_on_c, 9, 38, 120
11, 18006, Note_on_c, 9, 42, 38
11, 18041, Note_on_c, 9, 42, 0
11, 18066, Note_on_c, 9, 38, 0
11, 18127, Note_on_c, 9, 42, 88
11, 18186, Note_on_c, 9, 42, 0
11, 18186, Note_on_c, 9, 42, 39
11, 18187, Note_on_c, 9, 42, 0
11, 18244, Note_on_c, 9, 42, 55
11, 18245, Note_on_c, 9, 35, 126
11, 18280, Note_on_c, 9, 42, 0
11, 18305, Note_on_c, 9, 35, 0
11, 18365, Note_on_c, 9, 42, 63
11, 18426, Note_on_c, 9, 46, 67
11, 18434, Note_on_c, 9, 46, 0
11, 18473, Note_on_c, 9, 42, 0
11, 18485, Note_on_c, 9, 38, 120
11, 18485, Note_on_c, 9, 42, 46
11, 18525, Note_on_c, 9, 42, 0
11, 18544, Note_on_c, 9, 38, 0
11, 18605, Note_on_c, 9, 42, 73
11, 18665, Note_on_c, 9, 46, 69
11, 18686, Note_on_c, 9, 46, 0
11, 18726, Note_on_c, 9, 42, 0
11, 18726, Note_on_c, 9, 42, 37
11, 18727, Note_on_c, 9, 42, 0
11, 18845, Note_on_c, 9, 42, 88
11, 18845, Note_on_c, 9, 35, 124
11, 18905, Note_on_c, 9, 35, 0
11, 18905, Note_on_c, 9, 42, 0
11, 18907, Note_on_c, 9, 42, 29
11, 18927, Note_on_c, 9, 42, 0
11, 18966, Note_on_c, 9, 38, 123
11, 18966, Note_on_c, 9, 42, 45
11, 18997, Note_on_c, 9, 42, 0
11, 19026, Note_on_c, 9, 38, 0
11, 19085, Note_on_c, 9, 42, 90
11, 19142, Note_on_c, 9, 42, 0
11, 19145, Note_on_c, 9, 42, 27
11, 19155, Note_on_c, 9, 42, 0
11, 19204, Note_on_c, 9, 42, 49
11, 19206, Note_on_c, 9, 35, 126
11, 19243, Note_on_c, 9, 42, 0
11, 19264, Note_on_c, 9, 35, 0
11, 19325, Note_on_c, 9, 42, 77
11, 19385, Note_on_c, 9, 46, 71
11, 19402, Note_on_c, 9, 46, 0
11, 19425, Note_on_c, 9, 42, 0
11, 19445, Note_on_c, 9, 38, 120
11, 19445, Note_on_c, 9, 42, 46
11, 19483, Note_on_c, 9, 42, 0
11, 19505, Note_on_c, 9, 38, 0
11, 19566, Note_on_c, 9, 42, 71
11, 19625, Note_on_c, 9, 46, 67
11, 19640, Note_on_c, 9, 46, 0
11, 19663, Note_on_c, 9, 42, 0
11, 19685, Note_on_c, 9, 42, 46
11, 19723, Note_on_c, 9, 42, 0
11, 19805, Note_on_c, 9, 42, 79
11, 19806, Note_on_c, 9, 35, 124
11, 19857, Note_on_c, 9, 42, 0
11, 19866, Note_on_c, 9, 35, 0
11, 19866, Note_on_c, 9, 42, 33
11, 19881, Note_on_c, 9, 42, 0
11, 19925, Note_on_c, 9, 38, 118
11, 19925, Note_on_c, 9, 42, 46
11, 19975, Note_on_c, 9, 42, 0
11, 19985, Note_on_c, 9, 38, 0
11, 20046, Note_on_c, 9, 42, 88
11, 20085, Note_on_c, 9, 42, 0
11, 20106, Note_on_c, 9, 42, 30
11, 20115, Note_on_c, 9, 42, 0
11, 20165, Note_on_c, 9, 42, 45
11, 20165, Note_on_c, 9, 49, 111
11, 20165, Note_on_c, 9, 35, 124
11, 20179, Note_on_c, 9, 42, 0
11, 20195, Note_on_c, 9, 49, 0
11, 20225, Note_on_c, 9, 35, 0
11, 20285, Note_on_c, 9, 42, 81
11, 20328, Note_on_c, 9, 42, 0
11, 20345, Note_on_c, 9, 42, 26
11, 20363, Note_on_c, 9, 42, 0
11, 20406, Note_on_c, 9, 38, 120
11, 20406, Note_on_c, 9, 42, 41
11, 20445, Note_on_c, 9, 42, 0
11, 20465, Note_on_c, 9, 38, 0
11, 20525, Note_on_c, 9, 42, 84
11, 20585, Note_on_c, 9, 46, 80
11, 20600, Note_on_c, 9, 42, 0
11, 20608, Note_on_c, 9, 46, 0
11, 20645, Note_on_c, 9, 42, 45
11, 20693, Note_on_c, 9, 42, 0
11, 20765, Note_on_c, 9, 42, 86
11, 20765, Note_on_c, 9, 35, 127
11, 20825, Note_on_c, 9, 35, 0
11, 20825, Note_on_c, 9, 42, 0
11, 20825, Note_on_c, 9, 42, 39
11, 20826, Note_on_c, 9, 42, 0
11, 20885, Note_on_c, 9, 42, 45
11, 20886, Note_on_c, 9, 38, 120
11, 20933, Note_on_c, 9, 42, 0
11, 20945, Note_on_c, 9, 38, 0
11, 21005, Note_on_c, 9, 42, 81
11, 21065, Note_on_c, 9, 42, 0
11, 21065, Note_on_c, 9, 42, 34
11, 21066, Note_on_c, 9, 42, 0
11, 21125, Note_on_c, 9, 42, 43
11, 21125, Note_on_c, 9, 35, 124
11, 21170, Note_on_c, 9, 42, 0
11, 21185, Note_on_c, 9, 35, 0
11, 21247, Note_on_c, 9, 42, 86
11, 21305, Note_on_c, 9, 46, 67
11, 21328, Note_on_c, 9, 46, 0
11, 21347, Note_on_c, 9, 42, 0
11, 21365, Note_on_c, 9, 38, 123
11, 21365, Note_on_c, 9, 42, 39
11, 21408, Note_on_c, 9, 42, 0
11, 21425, Note_on_c, 9, 38, 0
11, 21485, Note_on_c, 9, 42, 79
11, 21546, Note_on_c, 9, 46, 75
11, 21585, Note_on_c, 9, 46, 0
11, 21590, Note_on_c, 9, 42, 0
11, 21605, Note_on_c, 9, 42, 55
11, 21645, Note_on_c, 9, 42, 0
11, 21725, Note_on_c, 9, 42, 84
11, 21727, Note_on_c, 9, 35, 126
11, 21772, Note_on_c, 9, 42, 0
11, 21785, Note_on_c, 9, 35, 0
11, 21786, Note_on_c, 9, 42, 27
11, 21826, Note_on_c, 9, 42, 0
11, 21844, Note_on_c, 9, 42, 47
11, 21845, Note_on_c, 9, 38, 123
11, 21888, Note_on_c, 9, 42, 0
11, 21905, Note_on_c, 9, 38, 0
11, 21965, Note_on_c, 9, 42, 63
11, 22025, Note_on_c, 9, 42, 0
11, 22025, Note_on_c, 9, 42, 41
11, 22026, Note_on_c, 9, 42, 0
11, 22086, Note_on_c, 9, 42, 51
11, 22087, Note_on_c, 9, 35, 124
11, 22122, Note_on_c, 9, 42, 0
11, 22145, Note_on_c, 9, 35, 0
11, 22205, Note_on_c, 9, 42, 84
11, 22265, Note_on_c, 9, 46, 75
11, 22285, Note_on_c, 9, 46, 0
11, 22315, Note_on_c, 9, 42, 0
11, 22326, Note_on_c, 9, 42, 49
11, 22327, Note_on_c, 9, 38, 123
11, 22363, Note_on_c, 9, 42, 0
11, 22386, Note_on_c, 9, 38, 0
11, 22445, Note_on_c, 9, 42, 66
11, 22505, Note_on_c, 9, 46, 80
11, 22527, Note_on_c, 9, 46, 0
11, 22552, Note_on_c, 9, 42, 0
11, 22565, Note_on_c, 9, 42, 51
11, 22605, Note_on_c, 9, 42, 0
11, 22685, Note_on_c, 9, 42, 77
11, 22685, Note_on_c, 9, 35, 122
11, 22745, Note_on_c, 9, 35, 0
11, 22745, Note_on_c, 9, 42, 0
11, 22745, Note_on_c, 9, 42, 32
11, 22746, Note_on_c, 9, 42, 0
11, 22805, Note_on_c, 9, 38, 120
11, 22805, Note_on_c, 9, 42, 53
11, 22842, Note_on_c, 9, 42, 0
11, 22865, Note_on_c, 9, 38, 0
11, 22926, Note_on_c, 9, 42, 71
11, 22985, Note_on_c, 9, 42, 0
11, 22985, Note_on_c, 9, 42, 32
11, 22986, Note_on_c, 9, 42, 0
11, 23045, Note_on_c, 9, 42, 39
11, 23045, Note_on_c, 9, 35, 122
11, 23088, Note_on_c, 9, 42, 0
11, 23105, Note_on_c, 9, 35, 0
11, 23167, Note_on_c, 9, 42, 86
11, 23227, Note_on_c, 9, 42, 0
11, 23227, Note_on_c, 9, 42, 27
11, 23228, Note_on_c, 9, 42, 0
11, 23285, Note_on_c, 9, 38, 120
11, 23285, Note_on_c, 9, 42, 45
11, 23325, Note_on_c, 9, 42, 0
11, 23345, Note_on_c, 9, 38, 0
11, 23405, Note_on_c, 9, 42, 66
11, 23466, Note_on_c, 9, 42, 0
11, 23466, Note_on_c, 9, 42, 28
11, 23467, Note_on_c, 9, 42, 0
11, 23525, Note_on_c, 9, 42, 46
11, 23565, Note_on_c, 9, 42, 0
11, 23645, Note_on_c, 9, 42, 88
11, 23645, Note_on_c, 9, 35, 117
11, 23695, Note_on_c, 9, 42, 0
11, 23705, Note_on_c, 9, 35, 0
11, 23707, Note_on_c, 9, 42, 32
11, 23715, Note_on_c, 9, 42, 0
11, 23767, Note_on_c, 9, 38, 118
11, 23767, Note_on_c, 9, 42, 47
11, 23812, Note_on_c, 9, 42, 0
11, 23825, Note_on_c, 9, 38, 0
11, 23885, Note_on_c, 9, 42, 77
11, 23945, Note_on_c, 9, 42, 0
11, 23945, Note_on_c, 9, 42, 30
11, 23946, Note_on_c, 9, 42, 0
11, 24006, Note_on_c, 9, 42, 47
11, 24007, Note_on_c, 9, 35, 126
11, 24040, Note_on_c, 9, 42, 0
11, 24067, Note_on_c, 9, 35, 0
11, 24125, Note_on_c, 9, 42, 77
11, 24183, Note_on_c, 9, 42, 0
11, 24185, Note_on_c, 9, 42, 33
11, 24225, Note_on_c, 9, 42, 0
11, 24245, Note_on_c, 9, 42, 46
11, 24246, Note_on_c, 9, 38, 118
11, 24285, Note_on_c, 9, 42, 0
11, 24306, Note_on_c, 9, 38, 0
11, 24365, Note_on_c, 9, 42, 84
11, 24425, Note_on_c, 9, 46, 70
11, 24438, Note_on_c, 9, 46, 0
11, 24485, Note_on_c, 9, 42, 0
11, 24485, Note_on_c, 9, 42, 45
11, 24486, Note_on_c, 9, 42, 0
11, 24606, Note_on_c, 9, 42, 81
11, 24606, Note_on_c, 9, 35, 126
11, 24665, Note_on_c, 9, 35, 0
11, 24665, Note_on_c, 9, 42, 0
11, 24665, Note_on_c, 9, 42, 28
11, 24666, Note_on_c, 9, 42, 0
11, 24725, Note_on_c, 9, 38, 123
11, 24725, Note_on_c, 9, 42, 46
11, 24762, Note_on_c, 9, 42, 0
11, 24785, Note_on_c, 9, 38, 0
11, 24846, Note_on_c, 9, 42, 81
11, 24906, Note_on_c, 9, 42, 0
11, 24906, Note_on_c, 9, 42, 27
11, 24907, Note_on_c, 9, 42, 0
11, 24965, Note_on_c, 9, 42, 53
11, 24965, Note_on_c, 9, 35, 126
11, 25002, Note_on_c, 9, 42, 0
11, 25025, Note_on_c, 9, 35, 0
11, 25085, Note_on_c, 9, 42, 81
11, 25146, Note_on_c, 9, 46, 69
11, 25158, Note_on_c, 9, 46, 0
11, 25196, Note_on_c, 9, 42, 0
11, 25205, Note_on_c, 9, 38, 123
11, 25205, Note_on_c, 9, 42, 43
11, 25245, Note_on_c, 9, 42, 0
11, 25265, Note_on_c, 9, 38, 0
11, 25325, Note_on_c, 9, 42, 81
11, 25385, Note_on_c, 9, 46, 69
11, 25408, Note_on_c, 9, 46, 0
11, 25430, Note_on_c, 9, 42, 0
11, 25446, Note_on_c, 9, 42, 41
11, 25488, Note_on_c, 9, 42, 0
11, 25565, Note_on_c, 9, 42, 79
11, 25565, Note_on_c, 9, 35, 127
11, 25617, Note_on_c, 9, 42, 0
11, 25625, Note_on_c, 9, 35, 0
11, 25625, Note_on_c, 9, 42, 27
11, 25648, Note_on_c, 9, 42, 0
11, 25686, Note_on_c, 9, 38, 123
11, 25686, Note_on_c, 9, 42, 44
11, 25739, Note_on_c, 9, 42, 0
11, 25746, Note_on_c, 9, 38, 0
11, 25805, Note_on_c, 9, 42, 75
11, 25858, Note_on_c, 9, 42, 0
11, 25865, Note_on_c, 9, 42, 32
11, 25880, Note_on_c, 9, 42, 0
11, 25926, Note_on_c, 9, 42, 46
11, 25926, Note_on_c, 9, 35, 120
11, 25965, Note_on_c, 9, 42, 0
11, 25986, Note_on_c, 9, 35, 0
11, 26045, Note_on_c, 9, 42, 88
11, 26105, Note_on_c, 9, 46, 69
11, 26123, Note_on_c, 9, 46, 0
11, 26147, Note_on_c, 9, 42, 0
11, 26165, Note_on_c, 9, 38, 118
11, 26165, Note_on_c, 9, 42, 44
11, 26203, Note_on_c, 9, 42, 0
11, 26225, Note_on_c, 9, 38, 0
11, 26286, Note_on_c, 9, 42, 59
11, 26345, Note_on_c, 9, 46, 66
11, 26365, Note_on_c, 9, 46, 0
11, 26392, Note_on_c, 9, 42, 0
11, 26405, Note_on_c, 9, 42, 46
11, 26443, Note_on_c, 9, 42, 0
11, 26526, Note_on_c, 9, 42, 90
11, 26526, Note_on_c, 9, 35, 117
11, 26586, Note_on_c, 9, 35, 0
11, 26586, Note_on_c, 9, 42, 0
11, 26587, Note_on_c, 9, 42, 31
11, 26588, Note_on_c, 9, 42, 0
11, 26645, Note_on_c, 9, 38, 120
11, 26645, Note_on_c, 9, 42, 41
11, 26680, Note_on_c, 9, 42, 0
11, 26705, Note_on_c, 9, 38, 0
11, 26765, Note_on_c, 9, 42, 69
11, 26825, Note_on_c, 9, 42, 0
11, 26826, Note_on_c, 9, 42, 28
11, 26844, Note_on_c, 9, 42, 0
11, 26886, Note_on_c, 9, 42, 38
11, 26886, Note_on_c, 9, 35, 126
11, 26924, Note_on_c, 9, 42, 0
11, 26945, Note_on_c, 9, 35, 0
11, 27005, Note_on_c, 9, 42, 90
11, 27062, Note_on_c, 9, 42, 0
11, 27065, Note_on_c, 9, 42, 30
11, 27083, Note_on_c, 9, 42, 0
11, 27126, Note_on_c, 9, 38, 118
11, 27126, Note_on_c, 9, 42, 45
11, 27165, Note_on_c, 9, 42, 0
11, 27185, Note_on_c, 9, 38, 0
11, 27245, Note_on_c, 9, 42, 88
11, 27305, Note_on_c, 9, 46, 68
11, 27330, Note_on_c, 9, 46, 0
11, 27360, Note_on_c, 9, 42, 0
11, 27365, Note_on_c, 9, 42, 36
11, 27400, Note_on_c, 9, 42, 0
11, 27485, Note_on_c, 9, 42, 71
11, 27485, Note_on_c, 9, 35, 104
11, 27545, Note_on_c, 9, 42, 0
11, 27546, Note_on_c, 9, 42, 28
11, 27547, Note_on_c, 9, 35, 0
11, 27557, Note_on_c, 9, 42, 0
11, 27605, Note_on_c, 9, 42, 44
11, 27606, Note_on_c, 9, 38, 118
11, 27645, Note_on_c, 9, 42, 0
11, 27666, Note_on_c, 9, 38, 0
11, 27725, Note_on_c, 9, 42, 86
11, 27840, Note_on_c, 9, 42, 0
11, 27846, Note_on_c, 9, 42, 44
11, 27847, Note_on_c, 9, 35, 127
11, 27885, Note_on_c, 9, 42, 0
11, 27904, Note_on_c, 9, 35, 0
11, 27966, Note_on_c, 9, 42, 66
11, 28025, Note_on_c, 9, 42, 0
11, 28025, Note_on_c, 9, 42, 29
11, 28026, Note_on_c, 9, 42, 0
11, 28085, Note_on_c, 9, 38, 120
11, 28085, Note_on_c, 9, 42, 46
11, 28130, Note_on_c, 9, 42, 0
11, 28145, Note_on_c, 9, 38, 0
11, 28205, Note_on_c, 9, 42, 90
11, 28266, Note_on_c, 9, 46, 75
11, 28295, Note_on_c, 9, 46, 0
11, 28295, Note_on_c, 9, 42, 0
11, 28325, Note_on_c, 9, 42, 43
11, 28368, Note_on_c, 9, 42, 0
11, 28445, Note_on_c, 9, 42, 71
11, 28447, Note_on_c, 9, 35, 124
11, 28506, Note_on_c, 9, 35, 0
11, 28506, Note_on_c, 9, 42, 0
11, 28506, Note_on_c, 9, 42, 27
11, 28507, Note_on_c, 9, 42, 0
11, 28565, Note_on_c, 9, 38, 120
11, 28565, Note_on_c, 9, 42, 44
11, 28604, Note_on_c, 9, 42, 0
11, 28625, Note_on_c, 9, 38, 0
11, 28685, Note_on_c, 9, 42, 84
11, 28738, Note_on_c, 9, 42, 0
11, 28745, Note_on_c, 9, 42, 29
11, 28770, Note_on_c, 9, 42, 0
11, 28806, Note_on_c, 9, 42, 40
11, 28806, Note_on_c, 9, 35, 126
11, 28845, Note_on_c, 9, 42, 0
11, 28865, Note_on_c, 9, 35, 0
11, 28925, Note_on_c, 9, 42, 84
11, 28984, Note_on_c, 9, 46, 73
11, 29015, Note_on_c, 9, 46, 0
11, 29042, Note_on_c, 9, 42, 0
11, 29046, Note_on_c, 9, 38, 120
11, 29046, Note_on_c, 9, 42, 45
11, 29086, Note_on_c, 9, 42, 0
11, 29106, Note_on_c, 9, 38, 0
11, 29165, Note_on_c, 9, 42, 67
11, 29225, Note_on_c, 9, 46, 69
11, 29245, Note_on_c, 9, 46, 0
11, 29282, Note_on_c, 9, 42, 0
11, 29284, Note_on_c, 9, 42, 48
11, 29330, Note_on_c, 9, 42, 0
11, 29405, Note_on_c, 9, 42, 88
11, 29405, Note_on_c, 9, 35, 126
11, 29465, Note_on_c, 9, 35, 0
11, 29465, Note_on_c, 9, 42, 0
11, 29465, Note_on_c, 9, 42, 28
11, 29466, Note_on_c, 9, 42, 0
11, 29525, Note_on_c, 9, 38, 120
11, 29525, Note_on_c, 9, 42, 40
11, 29565, Note_on_c, 9, 42, 0
11, 29585, Note_on_c, 9, 38, 0
11, 29645, Note_on_c, 9, 42, 81
11, 29705, Note_on_c, 9, 42, 0
11, 29705, Note_on_c, 9, 42, 30
11, 29706, Note_on_c, 9, 42, 0
11, 29765, Note_on_c, 9, 42, 33
11, 29767, Note_on_c, 9, 35, 124
11, 29805, Note_on_c, 9, 42, 0
11, 29825, Note_on_c, 9, 35, 0
11, 29886, Note_on_c, 9, 42, 71
11, 29928, Note_on_c, 9, 42, 0
11, 29946, Note_on_c, 9, 42, 29
11, 29961, Note_on_c, 9, 42, 0
11, 30005, Note_on_c, 9, 42, 38
11, 30007, Note_on_c, 9, 38, 120
11, 30045, Note_on_c, 9, 42, 0
11, 30065, Note_on_c, 9, 38, 0
11, 30125, Note_on_c, 9, 42, 88
11, 30186, Note_on_c, 9, 46, 68
11, 30200, Note_on_c, 9, 46, 0
11, 30224, Note_on_c, 9, 42, 0
11, 30246, Note_on_c, 9, 42, 37
11, 30292, Note_on_c, 9, 42, 0
11, 30365, Note_on_c, 9, 42, 88
11, 30365, Note_on_c, 9, 35, 126
11, 30425, Note_on_c, 9, 42, 0
11, 30427, Note_on_c, 9, 35, 0
11, 30427, Note_on_c, 9, 42, 29
11, 30440, Note_on_c, 9, 42, 0
11, 30486, Note_on_c, 9, 38, 123
11, 30486, Note_on_c, 9, 42, 41
11, 30532, Note_on_c, 9, 42, 0
11, 30545, Note_on_c, 9, 38, 0
11, 30605, Note_on_c, 9, 42, 66
11, 30665, Note_on_c, 9, 42, 0
11, 30665, Note_on_c, 9, 42, 26
11, 30666, Note_on_c, 9, 42, 0
11, 30727, Note_on_c, 9, 42, 38
11, 30727, Note_on_c, 9, 35, 124
11, 30765, Note_on_c, 9, 42, 0
11, 30787, Note_on_c, 9, 35, 0
11, 30845, Note_on_c, 9, 42, 88
11, 30905, Note_on_c, 9, 42, 0
11, 30905, Note_on_c, 9, 42, 28
11, 30906, Note_on_c, 9, 42, 0
11, 30967, Note_on_c, 9, 38, 123
11, 30967, Note_on_c, 9, 42, 46
11, 31007, Note_on_c, 9, 42, 0
11, 31025, Note_on_c, 9, 38, 0
11, 31085, Note_on_c, 9, 42, 88
11, 31145, Note_on_c, 9, 46, 69
11, 31165, Note_on_c, 9, 46, 0
11, 31197, Note_on_c, 9, 42, 0
11, 31205, Note_on_c, 9, 42, 40
11, 31253, Note_on_c, 9, 42, 0
11, 31326, Note_on_c, 9, 42, 88
11, 31327, Note_on_c, 9, 35, 114
11, 31385, Note_on_c, 9, 35, 0
11, 31385, Note_on_c, 9, 46, 68
11, 31425, Note_on_c, 9, 46, 0
11, 31442, Note_on_c, 9, 42, 0
11, 31445, Note_on_c, 9, 38, 115
11, 31445, Note_on_c, 9, 42, 44
11, 31495, Note_on_c, 9, 42, 0
11, 31505, Note_on_c, 9, 38, 0
11, 31567, Note_on_c, 9, 42, 90
11, 31644, Note_on_c, 9, 42, 0
11, 31686, Note_on_c, 9, 42, 43
11, 31686, Note_on_c, 9, 42, 36
11, 31686, Note_on_c, 9, 49, 60
11, 31686, Note_on_c, 9, 35, 127
11, 31708, Note_on_c, 9, 42, 0
11, 31725, Note_on_c, 9, 49, 0
11, 31733, Note_on_c, 9, 42, 0
11, 31745, Note_on_c, 9, 35, 0
11, 31747, Note_on_c, 9, 42, 17
11, 31777, Note_on_c, 9, 42, 0
11, 31807, Note_on_c, 9, 42, 19
11, 31807, Note_on_c, 9, 42, 81
11, 31846, Note_on_c, 9, 42, 0
11, 31865, Note_on_c, 9, 42, 0
11, 31866, Note_on_c, 9, 42, 17
11, 31866, Note_on_c, 9, 42, 28
11, 31878, Note_on_c, 9, 42, 0
11, 31899, Note_on_c, 9, 42, 0
11, 31925, Note_on_c, 9, 42, 44
11, 31925, Note_on_c, 9, 38, 123
11, 31925, Note_on_c, 9, 42, 49
11, 31947, Note_on_c, 9, 42, 0
11, 31980, Note_on_c, 9, 42, 0
11, 31985, Note_on_c, 9, 38, 0
11, 31985, Note_on_c, 9, 42, 17
11, 32025, Note_on_c, 9, 42, 0
11, 32045, Note_on_c, 9, 42, 17
11, 32045, Note_on_c, 9, 42, 81
11, 32099, Note_on_c, 9, 42, 0
11, 32102, Note_on_c, 9, 42, 0
11, 32105, Note_on_c, 9, 42, 28
11, 32106, Note_on_c, 9, 42, 17
11, 32115, Note_on_c, 9, 42, 0
11, 32138, Note_on_c, 9, 42, 0
11, 32166, Note_on_c, 9, 42, 17
11, 32166, Note_on_c, 9, 42, 45
11, 32199, Note_on_c, 9, 42, 0
11, 32205, Note_on_c, 9, 42, 0
11, 32225, Note_on_c, 9, 42, 17
11, 32265, Note_on_c, 9, 42, 0
11, 32285, Note_on_c, 9, 42, 17
11, 32285, Note_on_c, 9, 42, 86
11, 32285, Note_on_c, 9, 35, 115
11, 32325, Note_on_c, 9, 42, 0
11, 32340, Note_on_c, 9, 42, 0
11, 32345, Note_on_c, 9, 35, 0
11, 32345, Note_on_c, 9, 42, 17
11, 32345, Note_on_c, 9, 42, 32
11, 32357, Note_on_c, 9, 42, 0
11, 32380, Note_on_c, 9, 42, 0
11, 32406, Note_on_c, 9, 42, 46
11, 32406, Note_on_c, 9, 38, 123
11, 32406, Note_on_c, 9, 42, 51
11, 32438, Note_on_c, 9, 42, 0
11, 32453, Note_on_c, 9, 42, 0
11, 32466, Note_on_c, 9, 38, 0
11, 32466, Note_on_c, 9, 42, 17
11, 32498, Note_on_c, 9, 42, 0
11, 32526, Note_on_c, 9, 42, 17
11, 32526, Note_on_c, 9, 42, 79
11, 32526, Note_on_c, 9, 35, 112
11, 32560, Note_on_c, 9, 42, 0
11, 32565, Note_on_c, 9, 35, 0
11, 32582, Note_on_c, 9, 42, 0
11, 32585, Note_on_c, 9, 42, 17
11, 32585, Note_on_c, 9, 42, 39
11, 32605, Note_on_c, 9, 42, 0
11, 32618, Note_on_c, 9, 42, 0
11, 32646, Note_on_c, 9, 42, 51
11, 32646, Note_on_c, 9, 35, 124
11, 32647, Note_on_c, 9, 42, 44
11, 32679, Note_on_c, 9, 42, 0
11, 32690, Note_on_c, 9, 42, 0
11, 32705, Note_on_c, 9, 35, 0
11, 32706, Note_on_c, 9, 42, 17
11, 32741, Note_on_c, 9, 42, 0
11, 32765, Note_on_c, 9, 42, 17
11, 32765, Note_on_c, 9, 42, 84
11, 32800, Note_on_c, 9, 42, 0
11, 32824, Note_on_c, 9, 46, 76
11, 32824, Note_on_c, 9, 42, 17
11, 32827, Note_on_c, 9, 42, 0
11, 32838, Note_on_c, 9, 46, 0
11, 32855, Note_on_c, 9, 42, 0
11, 32885, Note_on_c, 9, 42, 17
11, 32885, Note_on_c, 9, 38, 123
11, 32885, Note_on_c, 9, 42, 51
11, 32925, Note_on_c, 9, 42, 0
11, 32928, Note_on_c, 9, 42, 0
11, 32945, Note_on_c, 9, 38, 0
11, 32945, Note_on_c, 9, 42, 17
11, 32985, Note_on_c, 9, 42, 0
11, 33007, Note_on_c, 9, 42, 17
11, 33007, Note_on_c, 9, 42, 88
11, 33041, Note_on_c, 9, 42, 0
11, 33064, Note_on_c, 9, 46, 71
11, 33064, Note_on_c, 9, 42, 17
11, 33069, Note_on_c, 9, 42, 0
11, 33080, Note_on_c, 9, 46, 0
11, 33090, Note_on_c, 9, 42, 0
11, 33125, Note_on_c, 9, 42, 44
11, 33125, Note_on_c, 9, 42, 47
11, 33155, Note_on_c, 9, 42, 0
11, 33169, Note_on_c, 9, 42, 0
11, 33185, Note_on_c, 9, 42, 17
11, 33215, Note_on_c, 9, 42, 0
11, 33246, Note_on_c, 9, 42, 17
11, 33246, Note_on_c, 9, 42, 88
11, 33246, Note_on_c, 9, 35, 117
11, 33281, Note_on_c, 9, 42, 0
11, 33303, Note_on_c, 9, 42, 0
11, 33306, Note_on_c, 9, 35, 0
11, 33306, Note_on_c, 9, 42, 17
11, 33335, Note_on_c, 9, 42, 0
11, 33365, Note_on_c, 9, 42, 44
11, 33365, Note_on_c, 9, 38, 123
11, 33365, Note_on_c, 9, 42, 51
11, 33387, Note_on_c, 9, 42, 0
11, 33409, Note_on_c, 9, 42, 0
11, 33425, Note_on_c, 9, 38, 0
11, 33425, Note_on_c, 9, 42, 17
11, 33457, Note_on_c, 9, 42, 0
11, 33485, Note_on_c, 9, 42, 77
11, 33485, Note_on_c, 9, 35, 109
11, 33486, Note_on_c, 9, 42, 17
11, 33520, Note_on_c, 9, 42, 0
11, 33525, Note_on_c, 9, 35, 0
11, 33546, Note_on_c, 9, 42, 0
11, 33547, Note_on_c, 9, 42, 41
11, 33547, Note_on_c, 9, 42, 17
11, 33548, Note_on_c, 9, 42, 0
11, 33586, Note_on_c, 9, 42, 0
11, 33604, Note_on_c, 9, 42, 49
11, 33604, Note_on_c, 9, 35, 126
11, 33605, Note_on_c, 9, 42, 17
11, 33625, Note_on_c, 9, 42, 0
11, 33645, Note_on_c, 9, 42, 0
11, 33665, Note_on_c, 9, 35, 0
11, 33665, Note_on_c, 9, 42, 17
11, 33695, Note_on_c, 9, 42, 0
11, 33725, Note_on_c, 9, 42, 17
11, 33725, Note_on_c, 9, 42, 81
11, 33760, Note_on_c, 9, 42, 0
11, 33785, Note_on_c, 9, 46, 71
11, 33785, Note_on_c, 9, 42, 17
11, 33787, Note_on_c, 9, 42, 0
11, 33798, Note_on_c, 9, 46, 0
11, 33818, Note_on_c, 9, 42, 0
11, 33846, Note_on_c, 9, 42, 46
11, 33846, Note_on_c, 9, 38, 120
11, 33846, Note_on_c, 9, 42, 51
11, 33864, Note_on_c, 9, 42, 0
11, 33890, Note_on_c, 9, 42, 0
11, 33905, Note_on_c, 9, 38, 0
11, 33905, Note_on_c, 9, 42, 17
11, 33935, Note_on_c, 9, 42, 0
11, 33965, Note_on_c, 9, 42, 67
11, 33966, Note_on_c, 9, 42, 17
11, 34001, Note_on_c, 9, 42, 0
11, 34025, Note_on_c, 9, 46, 72
11, 34025, Note_on_c, 9, 42, 17
11, 34033, Note_on_c, 9, 42, 0
11, 34038, Note_on_c, 9, 46, 0
11, 34051, Note_on_c, 9, 42, 0
11, 34085, Note_on_c, 9, 42, 46
11, 34086, Note_on_c, 9, 42, 46
11, 34120, Note_on_c, 9, 42, 0
11, 34130, Note_on_c, 9, 42, 0
11, 34147, Note_on_c, 9, 42, 17
11, 34181, Note_on_c, 9, 42, 0
11, 34205, Note_on_c, 9, 42, 84
11, 34205, Note_on_c, 9, 35, 126
11, 34206, Note_on_c, 9, 42, 17
11, 34239, Note_on_c, 9, 42, 0
11, 34266, Note_on_c, 9, 42, 0
11, 34266, Note_on_c, 9, 35, 0
11, 34266, Note_on_c, 9, 42, 31
11, 34266, Note_on_c, 9, 42, 17
11, 34267, Note_on_c, 9, 42, 0
11, 34296, Note_on_c, 9, 42, 0
11, 34326, Note_on_c, 9, 38, 120
11, 34326, Note_on_c, 9, 42, 47
11, 34327, Note_on_c, 9, 42, 46
11, 34348, Note_on_c, 9, 42, 0
11, 34373, Note_on_c, 9, 42, 0
11, 34386, Note_on_c, 9, 38, 0
11, 34387, Note_on_c, 9, 42, 17
11, 34422, Note_on_c, 9, 42, 0
11, 34446, Note_on_c, 9, 42, 17
11, 34446, Note_on_c, 9, 42, 69
11, 34446, Note_on_c, 9, 35, 114
11, 34476, Note_on_c, 9, 42, 0
11, 34486, Note_on_c, 9, 35, 0
11, 34501, Note_on_c, 9, 42, 0
11, 34506, Note_on_c, 9, 42, 17
11, 34506, Note_on_c, 9, 42, 33
11, 34516, Note_on_c, 9, 42, 0
11, 34533, Note_on_c, 9, 42, 0
11, 34567, Note_on_c, 9, 42, 46
11, 34567, Note_on_c, 9, 42, 46
11, 34567, Note_on_c, 9, 35, 126
11, 34583, Note_on_c, 9, 42, 0
11, 34610, Note_on_c, 9, 42, 0
11, 34626, Note_on_c, 9, 35, 0
11, 34626, Note_on_c, 9, 42, 17
11, 34658, Note_on_c, 9, 42, 0
11, 34686, Note_on_c, 9, 42, 90
11, 34687, Note_on_c, 9, 42, 17
11, 34719, Note_on_c, 9, 42, 0
11, 34746, Note_on_c, 9, 46, 75
11, 34746, Note_on_c, 9, 42, 17
11, 34756, Note_on_c, 9, 46, 0
11, 34775, Note_on_c, 9, 42, 0
11, 34788, Note_on_c, 9, 42, 0
11, 34806, Note_on_c, 9, 42, 49
11, 34806, Note_on_c, 9, 38, 120
11, 34806, Note_on_c, 9, 42, 46
11, 34836, Note_on_c, 9, 42, 0
11, 34853, Note_on_c, 9, 42, 0
11, 34865, Note_on_c, 9, 42, 17
11, 34866, Note_on_c, 9, 38, 0
11, 34899, Note_on_c, 9, 42, 0
11, 34926, Note_on_c, 9, 42, 66
11, 34927, Note_on_c, 9, 42, 19
11, 34960, Note_on_c, 9, 42, 0
11, 34987, Note_on_c, 9, 46, 69
11, 34987, Note_on_c, 9, 42, 17
11, 35002, Note_on_c, 9, 46, 0
11, 35020, Note_on_c, 9, 42, 0
11, 35043, Note_on_c, 9, 42, 0
11, 35046, Note_on_c, 9, 42, 17
11, 35046, Note_on_c, 9, 42, 46
11, 35075, Note_on_c, 9, 42, 0
11, 35086, Note_on_c, 9, 42, 0
11, 35106, Note_on_c, 9, 42, 17
11, 35145, Note_on_c, 9, 42, 0
11, 35166, Note_on_c, 9, 42, 88
11, 35166, Note_on_c, 9, 35, 110
11, 35167, Note_on_c, 9, 42, 17
11, 35209, Note_on_c, 9, 42, 0
11, 35225, Note_on_c, 9, 42, 0
11, 35226, Note_on_c, 9, 42, 28
11, 35227, Note_on_c, 9, 35, 0
11, 35227, Note_on_c, 9, 42, 17
11, 35238, Note_on_c, 9, 42, 0
11, 35260, Note_on_c, 9, 42, 0
11, 35286, Note_on_c, 9, 42, 17
11, 35286, Note_on_c, 9, 38, 120
11, 35286, Note_on_c, 9, 42, 46
11, 35313, Note_on_c, 9, 42, 0
11, 35325, Note_on_c, 9, 42, 0
11, 35346, Note_on_c, 9, 38, 0
11, 35346, Note_on_c, 9, 42, 17
11, 35386, Note_on_c, 9, 42, 0
11, 35406, Note_on_c, 9, 42, 67
11, 35406, Note_on_c, 9, 35, 113
11, 35407, Note_on_c, 9, 42, 17
11, 35443, Note_on_c, 9, 42, 0
11, 35446, Note_on_c, 9, 35, 0
11, 35456, Note_on_c, 9, 42, 0
11, 35466, Note_on_c, 9, 42, 17
11, 35493, Note_on_c, 9, 42, 0
11, 35526, Note_on_c, 9, 42, 46
11, 35526, Note_on_c, 9, 42, 31
11, 35526, Note_on_c, 9, 35, 124
11, 35565, Note_on_c, 9, 42, 0
11, 35576, Note_on_c, 9, 42, 0
11, 35586, Note_on_c, 9, 35, 0
11, 35586, Note_on_c, 9, 42, 17
11, 35621, Note_on_c, 9, 42, 0
11, 35646, Note_on_c, 9, 42, 17
11, 35646, Note_on_c, 9, 42, 88
11, 35683, Note_on_c, 9, 42, 0
11, 35706, Note_on_c, 9, 42, 0
11, 35706, Note_on_c, 9, 42, 37
11, 35707, Note_on_c, 9, 42, 0
11, 35707, Note_on_c, 9, 42, 17
11, 35738, Note_on_c, 9, 42, 0
11, 35767, Note_on_c, 9, 42, 17
11, 35767, Note_on_c, 9, 38, 123
11, 35767, Note_on_c, 9, 42, 55
11, 35798, Note_on_c, 9, 42, 0
11, 35807, Note_on_c, 9, 42, 0
11, 35827, Note_on_c, 9, 42, 17
11, 35828, Note_on_c, 9, 38, 0
11, 35866, Note_on_c, 9, 42, 0
11, 35885, Note_on_c, 9, 42, 17
11, 35885, Note_on_c, 9, 42, 63
11, 35922, Note_on_c, 9, 42, 0
11, 35945, Note_on_c, 9, 46, 75
11, 35945, Note_on_c, 9, 42, 17
11, 35955, Note_on_c, 9, 46, 0
11, 35957, Note_on_c, 9, 42, 0
11, 35973, Note_on_c, 9, 42, 0
11, 36005, Note_on_c, 9, 42, 44
11, 36005, Note_on_c, 9, 42, 49
11, 36038, Note_on_c, 9, 42, 0
11, 36047, Note_on_c, 9, 42, 0
11, 36067, Note_on_c, 9, 42, 21
11, 36101, Note_on_c, 9, 42, 0
11, 36125, Note_on_c, 9, 42, 17
11, 36125, Note_on_c, 9, 42, 86
11, 36125, Note_on_c, 9, 35, 126
11, 36162, Note_on_c, 9, 42, 0
11, 36185, Note_on_c, 9, 35, 0
11, 36185, Note_on_c, 9, 42, 0
11, 36185, Note_on_c, 9, 42, 17
11, 36186, Note_on_c, 9, 42, 0
11, 36186, Note_on_c, 9, 42, 37
11, 36210, Note_on_c, 9, 42, 0
11, 36245, Note_on_c, 9, 42, 39
11, 36246, Note_on_c, 9, 42, 44
11, 36247, Note_on_c, 9, 38, 123
11, 36274, Note_on_c, 9, 42, 0
11, 36290, Note_on_c, 9, 42, 0
11, 36306, Note_on_c, 9, 38, 0
11, 36307, Note_on_c, 9, 42, 17
11, 36338, Note_on_c, 9, 42, 0
11, 36366, Note_on_c, 9, 42, 75
11, 36367, Note_on_c, 9, 42, 17
11, 36367, Note_on_c, 9, 35, 112
11, 36404, Note_on_c, 9, 42, 0
11, 36405, Note_on_c, 9, 35, 0
11, 36425, Note_on_c, 9, 42, 0
11, 36425, Note_on_c, 9, 42, 30
11, 36425, Note_on_c, 9, 42, 17
11, 36426, Note_on_c, 9, 42, 0
11, 36453, Note_on_c, 9, 42, 0
11, 36486, Note_on_c, 9, 42, 51
11, 36487, Note_on_c, 9, 42, 17
11, 36487, Note_on_c, 9, 35, 126
11, 36520, Note_on_c, 9, 42, 0
11, 36525, Note_on_c, 9, 42, 0
11, 36545, Note_on_c, 9, 35, 0
11, 36545, Note_on_c, 9, 42, 17
11, 36585, Note_on_c, 9, 42, 0
11, 36606, Note_on_c, 9, 42, 86
11, 36607, Note_on_c, 9, 42, 17
11, 36646, Note_on_c, 9, 42, 0
11, 36666, Note_on_c, 9, 42, 17
11, 36667, Note_on_c, 9, 46, 68
11, 36679, Note_on_c, 9, 46, 0
11, 36691, Note_on_c, 9, 42, 0
11, 36703, Note_on_c, 9, 42, 0
11, 36725, Note_on_c, 9, 42, 44
11, 36725, Note_on_c, 9, 38, 120
11, 36725, Note_on_c, 9, 42, 51
11, 36760, Note_on_c, 9, 42, 0
11, 36773, Note_on_c, 9, 42, 0
11, 36785, Note_on_c, 9, 38, 0
11, 36787, Note_on_c, 9, 42, 17
11, 36823, Note_on_c, 9, 42, 0
11, 36845, Note_on_c, 9, 42, 66
11, 36847, Note_on_c, 9, 42, 17
11, 36880, Note_on_c, 9, 42, 0
11, 36905, Note_on_c, 9, 46, 66
11, 36906, Note_on_c, 9, 42, 17
11, 36922, Note_on_c, 9, 46, 0
11, 36927, Note_on_c, 9, 42, 0
11, 36954, Note_on_c, 9, 42, 0
11, 36965, Note_on_c, 9, 42, 44
11, 36965, Note_on_c, 9, 42, 53
11, 37003, Note_on_c, 9, 42, 0
11, 37010, Note_on_c, 9, 42, 0
11, 37025, Note_on_c, 9, 42, 17
11, 37055, Note_on_c, 9, 42, 0
11, 37085, Note_on_c, 9, 42, 88
11, 37085, Note_on_c, 9, 35, 117
11, 37087, Note_on_c, 9, 42, 17
11, 37120, Note_on_c, 9, 42, 0
11, 37135, Note_on_c, 9, 42, 0
11, 37145, Note_on_c, 9, 35, 0
11, 37147, Note_on_c, 9, 42, 17
11, 37147, Note_on_c, 9, 42, 29
11, 37158, Note_on_c, 9, 42, 0
11, 37170, Note_on_c, 9, 42, 0
11, 37207, Note_on_c, 9, 42, 42
11, 37207, Note_on_c, 9, 38, 123
11, 37207, Note_on_c, 9, 42, 32
11, 37245, Note_on_c, 9, 42, 0
11, 37245, Note_on_c, 9, 42, 0
11, 37265, Note_on_c, 9, 38, 0
11, 37265, Note_on_c, 9, 42, 17
11, 37300, Note_on_c, 9, 42, 0
11, 37325, Note_on_c, 9, 42, 17
11, 37325, Note_on_c, 9, 42, 71
11, 37325, Note_on_c, 9, 35, 115
11, 37362, Note_on_c, 9, 42, 0
11, 37365, Note_on_c, 9, 35, 0
11, 37385, Note_on_c, 9, 42, 0
11, 37385, Note_on_c, 9, 42, 25
11, 37385, Note_on_c, 9, 42, 17
11, 37386, Note_on_c, 9, 42, 0
11, 37417, Note_on_c, 9, 42, 0
11, 37446, Note_on_c, 9, 42, 44
11, 37446, Note_on_c, 9, 42, 36
11, 37446, Note_on_c, 9, 35, 124
11, 37472, Note_on_c, 9, 42, 0
11, 37493, Note_on_c, 9, 42, 0
11, 37506, Note_on_c, 9, 35, 0
11, 37506, Note_on_c, 9, 42, 17
11, 37537, Note_on_c, 9, 42, 0
11, 37565, Note_on_c, 9, 42, 17
11, 37565, Note_on_c, 9, 42, 86
11, 37610, Note_on_c, 9, 42, 0
11, 37625, Note_on_c, 9, 46, 68
11, 37625, Note_on_c, 9, 42, 17
11, 37645, Note_on_c, 9, 46, 0
11, 37660, Note_on_c, 9, 42, 0
11, 37660, Note_on_c, 9, 42, 0
11, 37685, Note_on_c, 9, 42, 49
11, 37686, Note_on_c, 9, 38, 120
11, 37686, Note_on_c, 9, 42, 17
11, 37715, Note_on_c, 9, 42, 0
11, 37725, Note_on_c, 9, 42, 0
11, 37745, Note_on_c, 9, 38, 0
11, 37747, Note_on_c, 9, 42, 17
11, 37787, Note_on_c, 9, 42, 0
11, 37805, Note_on_c, 9, 42, 17
11, 37805, Note_on_c, 9, 42, 75
11, 37845, Note_on_c, 9, 42, 0
11, 37865, Note_on_c, 9, 46, 69
11, 37865, Note_on_c, 9, 42, 17
11, 37885, Note_on_c, 9, 46, 0
11, 37895, Note_on_c, 9, 42, 0
11, 37918, Note_on_c, 9, 42, 0
11, 37925, Note_on_c, 9, 42, 44
11, 37925, Note_on_c, 9, 42, 49
11, 37953, Note_on_c, 9, 42, 0
11, 37970, Note_on_c, 9, 42, 0
11, 37986, Note_on_c, 9, 42, 17
11, 38017, Note_on_c, 9, 42, 0
11, 38046, Note_on_c, 9, 42, 17
11, 38046, Note_on_c, 9, 42, 88
11, 38046, Note_on_c, 9, 35, 126
11, 38084, Note_on_c, 9, 42, 0
11, 38103, Note_on_c, 9, 42, 0
11, 38105, Note_on_c, 9, 35, 0
11, 38105, Note_on_c, 9, 42, 17
11, 38105, Note_on_c, 9, 42, 30
11, 38118, Note_on_c, 9, 42, 0
11, 38128, Note_on_c, 9, 42, 0
11, 38165, Note_on_c, 9, 38, 118
11, 38165, Note_on_c, 9, 42, 47
11, 38166, Note_on_c, 9, 42, 42
11, 38200, Note_on_c, 9, 42, 0
11, 38210, Note_on_c, 9, 42, 0
11, 38225, Note_on_c, 9, 38, 0
11, 38225, Note_on_c, 9, 42, 17
11, 38260, Note_on_c, 9, 42, 0
11, 38286, Note_on_c, 9, 42, 17
11, 38286, Note_on_c, 9, 42, 71
11, 38286, Note_on_c, 9, 35, 113
11, 38325, Note_on_c, 9, 35, 0
11, 38328, Note_on_c, 9, 42, 0
11, 38346, Note_on_c, 9, 42, 0
11, 38346, Note_on_c, 9, 42, 30
11, 38346, Note_on_c, 9, 42, 17
11, 38347, Note_on_c, 9, 42, 0
11, 38373, Note_on_c, 9, 42, 0
11, 38406, Note_on_c, 9, 42, 42
11, 38406, Note_on_c, 9, 42, 45
11, 38406, Note_on_c, 9, 35, 127
11, 38440, Note_on_c, 9, 42, 0
11, 38451, Note_on_c, 9, 42, 0
11, 38465, Note_on_c, 9, 35, 0
11, 38465, Note_on_c, 9, 42, 17
11, 38500, Note_on_c, 9, 42, 0
11, 38527, Note_on_c, 9, 42, 17
11, 38527, Note_on_c, 9, 42, 88
11, 38560, Note_on_c, 9, 42, 0
11, 38587, Note_on_c, 9, 46, 69
11, 38587, Note_on_c, 9, 42, 17
11, 38602, Note_on_c, 9, 46, 0
11, 38616, Note_on_c, 9, 42, 0
11, 38629, Note_on_c, 9, 42, 0
11, 38645, Note_on_c, 9, 42, 17
11, 38645, Note_on_c, 9, 38, 120
11, 38645, Note_on_c, 9, 42, 26
11, 38685, Note_on_c, 9, 42, 0
11, 38690, Note_on_c, 9, 42, 0
11, 38705, Note_on_c, 9, 38, 0
11, 38705, Note_on_c, 9, 42, 17
11, 38745, Note_on_c, 9, 42, 0
11, 38767, Note_on_c, 9, 42, 17
11, 38767, Note_on_c, 9, 42, 69
11, 38810, Note_on_c, 9, 42, 0
11, 38825, Note_on_c, 9, 46, 66
11, 38825, Note_on_c, 9, 42, 17
11, 38837, Note_on_c, 9, 46, 0
11, 38855, Note_on_c, 9, 42, 0
11, 38886, Note_on_c, 9, 42, 0
11, 38887, Note_on_c, 9, 42, 55
11, 38887, Note_on_c, 9, 42, 26
11, 38888, Note_on_c, 9, 42, 0
11, 38930, Note_on_c, 9, 42, 0
11, 38945, Note_on_c, 9, 42, 17
11, 38973, Note_on_c, 9, 42, 0
11, 39005, Note_on_c, 9, 42, 90
11, 39005, Note_on_c, 9, 35, 120
11, 39006, Note_on_c, 9, 42, 17
11, 39047, Note_on_c, 9, 42, 0
11, 39065, Note_on_c, 9, 42, 0
11, 39067, Note_on_c, 9, 35, 0
11, 39067, Note_on_c, 9, 42, 17
11, 39067, Note_on_c, 9, 42, 32
11, 39083, Note_on_c, 9, 42, 0
11, 39093, Note_on_c, 9, 42, 0
11, 39126, Note_on_c, 9, 42, 49
11, 39127, Note_on_c, 9, 42, 31
11, 39127, Note_on_c, 9, 38, 118
11, 39163, Note_on_c, 9, 42, 0
11, 39170, Note_on_c, 9, 42, 0
11, 39186, Note_on_c, 9, 42, 17
11, 39187, Note_on_c, 9, 38, 0
11, 39218, Note_on_c, 9, 42, 0
11, 39245, Note_on_c, 9, 42, 17
11, 39245, Note_on_c, 9, 42, 71
11, 39245, Note_on_c, 9, 35, 115
11, 39285, Note_on_c, 9, 35, 0
11, 39290, Note_on_c, 9, 42, 0
11, 39305, Note_on_c, 9, 42, 0
11, 39305, Note_on_c, 9, 42, 36
11, 39306, Note_on_c, 9, 42, 0
11, 39306, Note_on_c, 9, 42, 26
11, 39331, Note_on_c, 9, 42, 0
11, 39365, Note_on_c, 9, 42, 49
11, 39366, Note_on_c, 9, 35, 126
11, 39397, Note_on_c, 9, 42, 0
11, 39426, Note_on_c, 9, 35, 0
11, 39485, Note_on_c, 9, 42, 88
11, 39545, Note_on_c, 9, 42, 0
11, 39545, Note_on_c, 9, 42, 25
11, 39546, Note_on_c, 9, 42, 0
11, 39605, Note_on_c, 9, 38, 120
11, 39605, Note_on_c, 9, 42, 32
11, 39635, Note_on_c, 9, 42, 0
11, 39667, Note_on_c, 9, 38, 0
11, 39727, Note_on_c, 9, 42, 61
11, 39785, Note_on_c, 9, 46, 71
11, 39800, Note_on_c, 9, 46, 0
11, 39830, Note_on_c, 9, 42, 0
11, 39845, Note_on_c, 9, 42, 43
11, 39883, Note_on_c, 9, 42, 0
11, 39967, Note_on_c, 9, 42, 86
11, 39967, Note_on_c, 9, 35, 122
11, 40024, Note_on_c, 9, 42, 0
11, 40027, Note_on_c, 9, 35, 0
11, 40027, Note_on_c, 9, 42, 36
11, 40038, Note_on_c, 9, 42, 0
11, 40085, Note_on_c, 9, 38, 118
11, 40085, Note_on_c, 9, 42, 49
11, 40118, Note_on_c, 9, 42, 0
11, 40145, Note_on_c, 9, 38, 0
11, 40205, Note_on_c, 9, 42, 69
11, 40265, Note_on_c, 9, 42, 0
11, 40267, Note_on_c, 9, 42, 27
11, 40281, Note_on_c, 9, 42, 0
11, 40325, Note_on_c, 9, 42, 49
11, 40325, Note_on_c, 9, 35, 127
11, 40360, Note_on_c, 9, 42, 0
11, 40385, Note_on_c, 9, 35, 0
11, 40445, Note_on_c, 9, 42, 79
11, 40505, Note_on_c, 9, 46, 68
11, 40520, Note_on_c, 9, 46, 0
11, 40556, Note_on_c, 9, 42, 0
11, 40566, Note_on_c, 9, 38, 123
11, 40566, Note_on_c, 9, 42, 45
11, 40595, Note_on_c, 9, 42, 0
11, 40625, Note_on_c, 9, 38, 0
11, 40685, Note_on_c, 9, 42, 59
11, 40745, Note_on_c, 9, 46, 68
11, 40763, Note_on_c, 9, 46, 0
11, 40782, Note_on_c, 9, 42, 0
11, 40805, Note_on_c, 9, 42, 42
11, 40842, Note_on_c, 9, 42, 0
11, 40925, Note_on_c, 9, 42, 73
11, 40925, Note_on_c, 9, 35, 124
11, 40973, Note_on_c, 9, 42, 0
11, 40985, Note_on_c, 9, 35, 0
11, 40985, Note_on_c, 9, 42, 28
11, 41000, Note_on_c, 9, 42, 0
11, 41046, Note_on_c, 9, 38, 120
11, 41046, Note_on_c, 9, 42, 38
11, 41080, Note_on_c, 9, 42, 0
11, 41105, Note_on_c, 9, 38, 0
11, 41165, Note_on_c, 9, 42, 88
11, 41225, Note_on_c, 9, 42, 0
11, 41225, Note_on_c, 9, 42, 39
11, 41226, Note_on_c, 9, 42, 0
11, 41285, Note_on_c, 9, 35, 116
11, 41363, Note_on_c, 9, 35, 0
11, 41525, Note_on_c, 9, 35, 110
11, 41663, Note_on_c, 9, 35, 0
11, 41765, Note_on_c, 9, 35, 104
11, 41853, Note_on_c, 9, 35, 0
11, 42005, Note_on_c, 9, 35, 115
11, 42108, Note_on_c, 9, 35, 0
11, 42246, Note_on_c, 9, 35, 103
11, 42353, Note_on_c, 9, 35, 0
11, 42485, Note_on_c, 9, 35, 101
11, 42596, Note_on_c, 9, 35, 0
11, 42725, Note_on_c, 9, 35, 113
11, 42829, Note_on_c, 9, 35, 0
11, 42965, Note_on_c, 9, 35, 115
11, 43058, Note_on_c, 9, 35, 0
11, 43205, Note_on_c, 9, 51, 49
11, 43253, Note_on_c, 9, 51, 0
11, 43325, Note_on_c, 9, 51, 29
11, 43353, Note_on_c, 9, 51, 0
11, 43392, Note_on_c, 9, 51, 73
11, 43414, Note_on_c, 9, 51, 0
11, 43445, Note_on_c, 9, 51, 66
11, 43445, Note_on_c, 9, 35, 120
11, 43496, Note_on_c, 9, 51, 0
11, 43538, Note_on_c, 9, 35, 0
11, 43565, Note_on_c, 9, 51, 29
11, 43566, Note_on_c, 9, 51, 0
11, 43630, Note_on_c, 9, 51, 68
11, 43653, Note_on_c, 9, 51, 0
11, 43685, Note_on_c, 9, 51, 59
11, 43736, Note_on_c, 9, 51, 0
11, 43805, Note_on_c, 9, 51, 29
11, 43806, Note_on_c, 9, 51, 0
11, 43870, Note_on_c, 9, 51, 73
11, 43894, Note_on_c, 9, 51, 0
11, 43926, Note_on_c, 9, 42, 44
11, 43926, Note_on_c, 9, 51, 59
11, 43977, Note_on_c, 9, 51, 0
11, 44012, Note_on_c, 9, 42, 0
11, 44045, Note_on_c, 9, 51, 29
11, 44046, Note_on_c, 9, 51, 0
11, 44110, Note_on_c, 9, 51, 77
11, 44134, Note_on_c, 9, 51, 0
11, 44166, Note_on_c, 9, 51, 61
11, 44217, Note_on_c, 9, 51, 0
11, 44285, Note_on_c, 9, 51, 29
11, 44286, Note_on_c, 9, 51, 0
11, 44350, Note_on_c, 9, 51, 73
11, 44373, Note_on_c, 9, 51, 0
11, 44405, Note_on_c, 9, 51, 66
11, 44405, Note_on_c, 9, 35, 126
11, 44456, Note_on_c, 9, 51, 0
11, 44480, Note_on_c, 9, 35, 0
11, 44525, Note_on_c, 9, 51, 29
11, 44526, Note_on_c, 9, 51, 0
11, 44590, Note_on_c, 9, 51, 68
11, 44613, Note_on_c, 9, 51, 0
11, 44645, Note_on_c, 9, 51, 58
11, 44697, Note_on_c, 9, 51, 0
11, 44766, Note_on_c, 9, 51, 29
11, 44767, Note_on_c, 9, 51, 0
11, 44830, Note_on_c, 9, 51, 73
11, 44853, Note_on_c, 9, 51, 0
11, 44885, Note_on_c, 9, 42, 49
11, 44885, Note_on_c, 9, 51, 66
11, 44937, Note_on_c, 9, 51, 0
11, 44965, Note_on_c, 9, 42, 0
11, 45006, Note_on_c, 9, 51, 29
11, 45007, Note_on_c, 9, 51, 0
11, 45071, Note_on_c, 9, 51, 77
11, 45094, Note_on_c, 9, 51, 0
11, 45125, Note_on_c, 9, 51, 61
11, 45176, Note_on_c, 9, 51, 0
11, 45245, Note_on_c, 9, 51, 29
11, 45246, Note_on_c, 9, 51, 0
11, 45311, Note_on_c, 9, 51, 68
11, 45334, Note_on_c, 9, 51, 0
11, 45365, Note_on_c, 9, 51, 68
11, 45365, Note_on_c, 9, 35, 122
11, 45410, Note_on_c, 9, 35, 0
11, 45416, Note_on_c, 9, 51, 0
11, 45485, Note_on_c, 9, 51, 29
11, 45486, Note_on_c, 9, 51, 0
11, 45550, Note_on_c, 9, 51, 66
11, 45574, Note_on_c, 9, 51, 0
11, 45606, Note_on_c, 9, 51, 59
11, 45657, Note_on_c, 9, 51, 0
11, 45725, Note_on_c, 9, 51, 29
11, 45726, Note_on_c, 9, 51, 0
11, 45790, Note_on_c, 9, 51, 73
11, 45813, Note_on_c, 9, 51, 0
11, 45845, Note_on_c, 9, 51, 61
11, 45847, Note_on_c, 9, 42, 52
11, 45896, Note_on_c, 9, 51, 0
11, 45925, Note_on_c, 9, 42, 0
11, 45965, Note_on_c, 9, 51, 29
11, 45966, Note_on_c, 9, 51, 0
11, 46030, Note_on_c, 9, 51, 86
11, 46031, Note_on_c, 9, 51, 0
11, 46086, Note_on_c, 9, 51, 64
11, 46137, Note_on_c, 9, 51, 0
11, 46206, Note_on_c, 9, 51, 29
11, 46207, Note_on_c, 9, 51, 0
11, 46271, Note_on_c, 9, 51, 73
11, 46294, Note_on_c, 9, 51, 0
11, 46325, Note_on_c, 9, 51, 61
11, 46325, Note_on_c, 9, 35, 124
11, 46377, Note_on_c, 9, 51, 0
11, 46393, Note_on_c, 9, 35, 0
11, 46446, Note_on_c, 9, 51, 29
11, 46447, Note_on_c, 9, 51, 0
11, 46510, Note_on_c, 9, 51, 68
11, 46533, Note_on_c, 9, 51, 0
11, 46566, Note_on_c, 9, 51, 61
11, 46617, Note_on_c, 9, 51, 0
11, 46687, Note_on_c, 9, 51, 29
11, 46688, Note_on_c, 9, 51, 0
11, 46751, Note_on_c, 9, 51, 73
11, 46774, Note_on_c, 9, 51, 0
11, 46805, Note_on_c, 9, 42, 55
11, 46805, Note_on_c, 9, 51, 64
11, 46856, Note_on_c, 9, 51, 0
11, 46868, Note_on_c, 9, 42, 0
11, 46926, Note_on_c, 9, 51, 29
11, 46953, Note_on_c, 9, 51, 0
11, 46990, Note_on_c, 9, 51, 77
11, 47013, Note_on_c, 9, 51, 0
11, 47045, Note_on_c, 9, 51, 53
11, 47096, Note_on_c, 9, 51, 0
11, 47165, Note_on_c, 9, 51, 29
11, 47166, Note_on_c, 9, 51, 0
11, 47230, Note_on_c, 9, 51, 71
11, 47254, Note_on_c, 9, 51, 0
11, 47286, Note_on_c, 9, 51, 59
11, 47286, Note_on_c, 9, 35, 120
11, 47337, Note_on_c, 9, 51, 0
11, 47350, Note_on_c, 9, 35, 0
11, 47405, Note_on_c, 9, 51, 29
11, 47406, Note_on_c, 9, 51, 0
11, 47470, Note_on_c, 9, 51, 75
11, 47494, Note_on_c, 9, 51, 0
11, 47526, Note_on_c, 9, 51, 59
11, 47577, Note_on_c, 9, 51, 0
11, 47645, Note_on_c, 9, 51, 29
11, 47646, Note_on_c, 9, 51, 0
11, 47710, Note_on_c, 9, 51, 54
11, 47733, Note_on_c, 9, 51, 0
11, 47765, Note_on_c, 9, 42, 49
11, 47765, Note_on_c, 9, 51, 64
11, 47816, Note_on_c, 9, 51, 0
11, 47848, Note_on_c, 9, 42, 0
11, 47885, Note_on_c, 9, 51, 29
11, 47886, Note_on_c, 9, 51, 0
11, 47950, Note_on_c, 9, 51, 77
11, 47974, Note_on_c, 9, 51, 0
11, 48006, Note_on_c, 9, 51, 59
11, 48057, Note_on_c, 9, 51, 0
11, 48126, Note_on_c, 9, 51, 29
11, 48127, Note_on_c, 9, 51, 0
11, 48190, Note_on_c, 9, 51, 66
11, 48213, Note_on_c, 9, 51, 0
11, 48245, Note_on_c, 9, 51, 61
11, 48245, Note_on_c, 9, 35, 124
11, 48296, Note_on_c, 9, 51, 0
11, 48303, Note_on_c, 9, 35, 0
11, 48366, Note_on_c, 9, 51, 29
11, 48393, Note_on_c, 9, 51, 0
11, 48431, Note_on_c, 9, 51, 64
11, 48454, Note_on_c, 9, 51, 0
11, 48485, Note_on_c, 9, 51, 64
11, 48536, Note_on_c, 9, 51, 0
11, 48606, Note_on_c, 9, 51, 29
11, 48630, Note_on_c, 9, 51, 0
11, 48670, Note_on_c, 9, 51, 69
11, 48693, Note_on_c, 9, 51, 0
11, 48725, Note_on_c, 9, 42, 49
11, 48725, Note_on_c, 9, 51, 71
11, 48757, Note_on_c, 9, 51, 0
11, 48800, Note_on_c, 9, 42, 0
11, 48845, Note_on_c, 9, 35, 121
11, 48885, Note_on_c, 9, 35, 0
11, 48966, Note_on_c, 9, 38, 120
11, 48969, Note_on_c, 9, 38, 123
11, 49025, Note_on_c, 9, 38, 0
11, 49028, Note_on_c, 9, 38, 0
11, 49445, Note_on_c, 9, 42, 17
11, 49519, Note_on_c, 9, 42, 0
11, 49564, Note_on_c, 9, 38, 123
11, 49625, Note_on_c, 9, 38, 0
11, 49685, Note_on_c, 9, 38, 123
11, 49745, Note_on_c, 9, 38, 0
11, 49807, Note_on_c, 9, 38, 123
11, 49865, Note_on_c, 9, 38, 0
11, 49925, Note_on_c, 9, 49, 60
11, 49925, Note_on_c, 9, 35, 127
11, 49965, Note_on_c, 9, 49, 0
11, 49985, Note_on_c, 9, 35, 0
11, 49985, Note_on_c, 9, 42, 24
11, 50025, Note_on_c, 9, 42, 0
11, 50047, Note_on_c, 9, 46, 69
11, 50089, Note_on_c, 9, 46, 0
11, 50106, Note_on_c, 9, 42, 32
11, 50118, Note_on_c, 9, 42, 0
11, 50165, Note_on_c, 9, 38, 120
11, 50165, Note_on_c, 9, 42, 44
11, 50203, Note_on_c, 9, 42, 0
11, 50225, Note_on_c, 9, 38, 0
11, 50287, Note_on_c, 9, 42, 86
11, 50337, Note_on_c, 9, 42, 0
11, 50347, Note_on_c, 9, 42, 32
11, 50358, Note_on_c, 9, 42, 0
11, 50405, Note_on_c, 9, 42, 49
11, 50438, Note_on_c, 9, 42, 0
11, 50525, Note_on_c, 9, 42, 81
11, 50525, Note_on_c, 9, 35, 114
11, 50585, Note_on_c, 9, 42, 0
11, 50587, Note_on_c, 9, 35, 0
11, 50587, Note_on_c, 9, 42, 32
11, 50598, Note_on_c, 9, 42, 0
11, 50647, Note_on_c, 9, 38, 120
11, 50647, Note_on_c, 9, 42, 52
11, 50684, Note_on_c, 9, 42, 0
11, 50705, Note_on_c, 9, 38, 0
11, 50765, Note_on_c, 9, 42, 88
11, 50825, Note_on_c, 9, 42, 0
11, 50825, Note_on_c, 9, 42, 34
11, 50826, Note_on_c, 9, 42, 0
11, 50886, Note_on_c, 9, 42, 43
11, 50886, Note_on_c, 9, 35, 127
11, 50908, Note_on_c, 9, 42, 0
11, 50946, Note_on_c, 9, 35, 0
11, 51005, Note_on_c, 9, 42, 81
11, 51065, Note_on_c, 9, 42, 0
11, 51065, Note_on_c, 9, 42, 28
11, 51066, Note_on_c, 9, 42, 0
11, 51125, Note_on_c, 9, 42, 49
11, 51126, Note_on_c, 9, 38, 123
11, 51147, Note_on_c, 9, 42, 0
11, 51186, Note_on_c, 9, 38, 0
11, 51245, Note_on_c, 9, 42, 81
11, 51303, Note_on_c, 9, 42, 0
11, 51305, Note_on_c, 9, 42, 28
11, 51315, Note_on_c, 9, 42, 0
11, 51365, Note_on_c, 9, 42, 45
11, 51397, Note_on_c, 9, 42, 0
11, 51486, Note_on_c, 9, 42, 86
11, 51486, Note_on_c, 9, 35, 115
11, 51540, Note_on_c, 9, 42, 0
11, 51545, Note_on_c, 9, 35, 0
11, 51545, Note_on_c, 9, 42, 32
11, 51557, Note_on_c, 9, 42, 0
11, 51605, Note_on_c, 9, 42, 51
11, 51606, Note_on_c, 9, 38, 123
11, 51637, Note_on_c, 9, 42, 0
11, 51665, Note_on_c, 9, 38, 0
11, 51726, Note_on_c, 9, 42, 79
11, 51784, Note_on_c, 9, 42, 0
11, 51786, Note_on_c, 9, 42, 39
11, 51805, Note_on_c, 9, 42, 0
11, 51846, Note_on_c, 9, 42, 51
11, 51846, Note_on_c, 9, 35, 124
11, 51880, Note_on_c, 9, 42, 0
11, 51905, Note_on_c, 9, 35, 0
11, 51965, Note_on_c, 9, 42, 84
11, 52026, Note_on_c, 9, 46, 76
11, 52027, Note_on_c, 9, 42, 0
11, 52038, Note_on_c, 9, 46, 0
11, 52085, Note_on_c, 9, 38, 123
11, 52085, Note_on_c, 9, 42, 51
11, 52127, Note_on_c, 9, 42, 0
11, 52145, Note_on_c, 9, 38, 0
11, 52205, Note_on_c, 9, 42, 88
11, 52265, Note_on_c, 9, 46, 71
11, 52270, Note_on_c, 9, 42, 0
11, 52279, Note_on_c, 9, 46, 0
11, 52326, Note_on_c, 9, 42, 47
11, 52355, Note_on_c, 9, 42, 0
11, 52445, Note_on_c, 9, 42, 88
11, 52446, Note_on_c, 9, 35, 117
11, 52503, Note_on_c, 9, 42, 0
11, 52505, Note_on_c, 9, 35, 0
11, 52566, Note_on_c, 9, 38, 123
11, 52566, Note_on_c, 9, 42, 51
11, 52588, Note_on_c, 9, 42, 0
11, 52626, Note_on_c, 9, 38, 0
11, 52685, Note_on_c, 9, 42, 77
11, 52745, Note_on_c, 9, 42, 0
11, 52745, Note_on_c, 9, 42, 41
11, 52746, Note_on_c, 9, 42, 0
11, 52805, Note_on_c, 9, 42, 49
11, 52805, Note_on_c, 9, 35, 126
11, 52826, Note_on_c, 9, 42, 0
11, 52867, Note_on_c, 9, 35, 0
11, 52925, Note_on_c, 9, 42, 81
11, 52985, Note_on_c, 9, 46, 71
11, 52988, Note_on_c, 9, 42, 0
11, 52997, Note_on_c, 9, 46, 0
11, 53045, Note_on_c, 9, 38, 120
11, 53045, Note_on_c, 9, 42, 51
11, 53064, Note_on_c, 9, 42, 0
11, 53107, Note_on_c, 9, 38, 0
11, 53167, Note_on_c, 9, 42, 67
11, 53226, Note_on_c, 9, 46, 72
11, 53233, Note_on_c, 9, 42, 0
11, 53239, Note_on_c, 9, 46, 0
11, 53285, Note_on_c, 9, 42, 46
11, 53320, Note_on_c, 9, 42, 0
11, 53406, Note_on_c, 9, 42, 84
11, 53407, Note_on_c, 9, 35, 126
11, 53467, Note_on_c, 9, 35, 0
11, 53467, Note_on_c, 9, 42, 0
11, 53467, Note_on_c, 9, 42, 31
11, 53468, Note_on_c, 9, 42, 0
11, 53525, Note_on_c, 9, 42, 47
11, 53526, Note_on_c, 9, 38, 120
11, 53548, Note_on_c, 9, 42, 0
11, 53586, Note_on_c, 9, 38, 0
11, 53646, Note_on_c, 9, 42, 69
11, 53701, Note_on_c, 9, 42, 0
11, 53706, Note_on_c, 9, 42, 33
11, 53716, Note_on_c, 9, 42, 0
11, 53766, Note_on_c, 9, 42, 46
11, 53766, Note_on_c, 9, 35, 126
11, 53783, Note_on_c, 9, 42, 0
11, 53826, Note_on_c, 9, 35, 0
11, 53885, Note_on_c, 9, 42, 90
11, 53945, Note_on_c, 9, 46, 75
11, 53955, Note_on_c, 9, 46, 0
11, 53988, Note_on_c, 9, 42, 0
11, 54006, Note_on_c, 9, 38, 120
11, 54006, Note_on_c, 9, 42, 46
11, 54035, Note_on_c, 9, 42, 0
11, 54066, Note_on_c, 9, 38, 0
11, 54125, Note_on_c, 9, 42, 66
11, 54185, Note_on_c, 9, 46, 69
11, 54201, Note_on_c, 9, 46, 0
11, 54243, Note_on_c, 9, 42, 0
11, 54246, Note_on_c, 9, 42, 46
11, 54277, Note_on_c, 9, 42, 0
11, 54366, Note_on_c, 9, 42, 88
11, 54366, Note_on_c, 9, 35, 110
11, 54426, Note_on_c, 9, 42, 0
11, 54428, Note_on_c, 9, 35, 0
11, 54428, Note_on_c, 9, 42, 28
11, 54438, Note_on_c, 9, 42, 0
11, 54487, Note_on_c, 9, 38, 120
11, 54487, Note_on_c, 9, 42, 46
11, 54514, Note_on_c, 9, 42, 0
11, 54547, Note_on_c, 9, 38, 0
11, 54606, Note_on_c, 9, 42, 67
11, 54656, Note_on_c, 9, 42, 0
11, 54726, Note_on_c, 9, 42, 31
11, 54726, Note_on_c, 9, 35, 124
11, 54763, Note_on_c, 9, 42, 0
11, 54785, Note_on_c, 9, 35, 0
11, 54845, Note_on_c, 9, 42, 88
11, 54906, Note_on_c, 9, 42, 0
11, 54906, Note_on_c, 9, 42, 37
11, 54907, Note_on_c, 9, 42, 0
11, 54966, Note_on_c, 9, 38, 123
11, 54966, Note_on_c, 9, 42, 55
11, 54998, Note_on_c, 9, 42, 0
11, 55027, Note_on_c, 9, 38, 0
11, 55087, Note_on_c, 9, 42, 63
11, 55146, Note_on_c, 9, 46, 75
11, 55155, Note_on_c, 9, 46, 0
11, 55158, Note_on_c, 9, 42, 0
11, 55205, Note_on_c, 9, 42, 49
11, 55239, Note_on_c, 9, 42, 0
11, 55327, Note_on_c, 9, 42, 86
11, 55327, Note_on_c, 9, 35, 126
11, 55387, Note_on_c, 9, 35, 0
11, 55387, Note_on_c, 9, 42, 0
11, 55387, Note_on_c, 9, 42, 37
11, 55388, Note_on_c, 9, 42, 0
11, 55446, Note_on_c, 9, 38, 123
11, 55446, Note_on_c, 9, 42, 39
11, 55476, Note_on_c, 9, 42, 0
11, 55505, Note_on_c, 9, 38, 0
11, 55565, Note_on_c, 9, 42, 75
11, 55626, Note_on_c, 9, 42, 0
11, 55627, Note_on_c, 9, 42, 30
11, 55638, Note_on_c, 9, 42, 0
11, 55686, Note_on_c, 9, 42, 51
11, 55686, Note_on_c, 9, 35, 126
11, 55721, Note_on_c, 9, 42, 0
11, 55746, Note_on_c, 9, 35, 0
11, 55805, Note_on_c, 9, 42, 86
11, 55865, Note_on_c, 9, 46, 68
11, 55878, Note_on_c, 9, 46, 0
11, 55903, Note_on_c, 9, 42, 0
11, 55927, Note_on_c, 9, 38, 120
11, 55927, Note_on_c, 9, 42, 51
11, 55962, Note_on_c, 9, 42, 0
11, 55986, Note_on_c, 9, 38, 0
11, 56046, Note_on_c, 9, 42, 66
11, 56106, Note_on_c, 9, 46, 66
11, 56123, Note_on_c, 9, 46, 0
11, 56153, Note_on_c, 9, 42, 0
11, 56167, Note_on_c, 9, 42, 53
11, 56203, Note_on_c, 9, 42, 0
11, 56286, Note_on_c, 9, 42, 88
11, 56286, Note_on_c, 9, 35, 117
11, 56336, Note_on_c, 9, 42, 0
11, 56346, Note_on_c, 9, 35, 0
11, 56347, Note_on_c, 9, 42, 29
11, 56359, Note_on_c, 9, 42, 0
11, 56407, Note_on_c, 9, 38, 123
11, 56407, Note_on_c, 9, 42, 32
11, 56446, Note_on_c, 9, 42, 0
11, 56467, Note_on_c, 9, 38, 0
11, 56525, Note_on_c, 9, 42, 71
11, 56586, Note_on_c, 9, 42, 0
11, 56586, Note_on_c, 9, 42, 25
11, 56587, Note_on_c, 9, 42, 0
11, 56647, Note_on_c, 9, 42, 36
11, 56647, Note_on_c, 9, 35, 124
11, 56673, Note_on_c, 9, 42, 0
11, 56706, Note_on_c, 9, 35, 0
11, 56767, Note_on_c, 9, 42, 86
11, 56826, Note_on_c, 9, 46, 68
11, 56846, Note_on_c, 9, 46, 0
11, 56861, Note_on_c, 9, 42, 0
11, 56886, Note_on_c, 9, 38, 120
11, 56886, Note_on_c, 9, 42, 49
11, 56916, Note_on_c, 9, 42, 0
11, 56947, Note_on_c, 9, 38, 0
11, 57007, Note_on_c, 9, 42, 75
11, 57066, Note_on_c, 9, 46, 69
11, 57085, Note_on_c, 9, 46, 0
11, 57119, Note_on_c, 9, 42, 0
11, 57126, Note_on_c, 9, 42, 49
11, 57153, Note_on_c, 9, 42, 0
11, 57247, Note_on_c, 9, 42, 88
11, 57247, Note_on_c, 9, 35, 126
11, 57304, Note_on_c, 9, 42, 0
11, 57307, Note_on_c, 9, 35, 0
11, 57307, Note_on_c, 9, 42, 30
11, 57320, Note_on_c, 9, 42, 0
11, 57366, Note_on_c, 9, 38, 118
11, 57366, Note_on_c, 9, 42, 47
11, 57401, Note_on_c, 9, 42, 0
11, 57426, Note_on_c, 9, 38, 0
11, 57485, Note_on_c, 9, 42, 71
11, 57546, Note_on_c, 9, 42, 0
11, 57547, Note_on_c, 9, 42, 30
11, 57565, Note_on_c, 9, 42, 0
11, 57607, Note_on_c, 9, 42, 45
11, 57607, Note_on_c, 9, 35, 127
11, 57640, Note_on_c, 9, 42, 0
11, 57666, Note_on_c, 9, 35, 0
11, 57726, Note_on_c, 9, 42, 88
11, 57787, Note_on_c, 9, 46, 69
11, 57803, Note_on_c, 9, 46, 0
11, 57829, Note_on_c, 9, 42, 0
11, 57847, Note_on_c, 9, 38, 120
11, 57847, Note_on_c, 9, 42, 26
11, 57892, Note_on_c, 9, 42, 0
11, 57906, Note_on_c, 9, 38, 0
11, 57965, Note_on_c, 9, 42, 69
11, 58026, Note_on_c, 9, 46, 66
11, 58038, Note_on_c, 9, 46, 0
11, 58086, Note_on_c, 9, 42, 0
11, 58087, Note_on_c, 9, 42, 55
11, 58121, Note_on_c, 9, 42, 0
11, 58205, Note_on_c, 9, 42, 90
11, 58206, Note_on_c, 9, 35, 120
11, 58266, Note_on_c, 9, 42, 0
11, 58267, Note_on_c, 9, 35, 0
11, 58267, Note_on_c, 9, 42, 32
11, 58283, Note_on_c, 9, 42, 0
11, 58327, Note_on_c, 9, 38, 118
11, 58327, Note_on_c, 9, 42, 49
11, 58363, Note_on_c, 9, 42, 0
11, 58386, Note_on_c, 9, 38, 0
11, 58447, Note_on_c, 9, 42, 71
11, 58505, Note_on_c, 9, 42, 0
11, 58505, Note_on_c, 9, 42, 36
11, 58506, Note_on_c, 9, 42, 0
11, 58567, Note_on_c, 9, 42, 49
11, 58567, Note_on_c, 9, 35, 126
11, 58599, Note_on_c, 9, 42, 0
11, 58626, Note_on_c, 9, 35, 0
11, 58687, Note_on_c, 9, 42, 88
11, 58746, Note_on_c, 9, 42, 0
11, 58746, Note_on_c, 9, 42, 25
11, 58747, Note_on_c, 9, 42, 0
11, 58806, Note_on_c, 9, 38, 120
11, 58806, Note_on_c, 9, 42, 32
11, 58836, Note_on_c, 9, 42, 0
11, 58866, Note_on_c, 9, 38, 0
11, 58926, Note_on_c, 9, 42, 61
11, 58987, Note_on_c, 9, 46, 71
11, 59002, Note_on_c, 9, 46, 0
11, 59031, Note_on_c, 9, 42, 0
11, 59046, Note_on_c, 9, 42, 43
11, 59083, Note_on_c, 9, 42, 0
11, 59165, Note_on_c, 9, 42, 86
11, 59167, Note_on_c, 9, 35, 122
11, 59223, Note_on_c, 9, 42, 0
11, 59227, Note_on_c, 9, 35, 0
11, 59227, Note_on_c, 9, 42, 36
11, 59238, Note_on_c, 9, 42, 0
11, 59287, Note_on_c, 9, 38, 118
11, 59287, Note_on_c, 9, 42, 49
11, 59318, Note_on_c, 9, 42, 0
11, 59346, Note_on_c, 9, 38, 0
11, 59406, Note_on_c, 9, 42, 69
11, 59466, Note_on_c, 9, 42, 0
11, 59466, Note_on_c, 9, 42, 27
11, 59467, Note_on_c, 9, 42, 0
11, 59525, Note_on_c, 9, 42, 49
11, 59527, Note_on_c, 9, 35, 127
11, 59562, Note_on_c, 9, 42, 0
11, 59586, Note_on_c, 9, 35, 0
11, 59646, Note_on_c, 9, 42, 79
11, 59706, Note_on_c, 9, 46, 68
11, 59720, Note_on_c, 9, 46, 0
11, 59756, Note_on_c, 9, 42, 0
11, 59766, Note_on_c, 9, 42, 45
11, 59767, Note_on_c, 9, 38, 123
11, 59796, Note_on_c, 9, 42, 0
11, 59827, Note_on_c, 9, 38, 0
11, 59885, Note_on_c, 9, 42, 59
11, 59945, Note_on_c, 9, 46, 68
11, 59963, Note_on_c, 9, 46, 0
11, 59983, Note_on_c, 9, 42, 0
11, 60005, Note_on_c, 9, 42, 42
11, 60043, Note_on_c, 9, 42, 0
11, 60127, Note_on_c, 9, 42, 73
11, 60127, Note_on_c, 9, 35, 124
11, 60173, Note_on_c, 9, 42, 0
11, 60186, Note_on_c, 9, 35, 0
11, 60186, Note_on_c, 9, 42, 28
11, 60200, Note_on_c, 9, 42, 0
11, 60245, Note_on_c, 9, 42, 38
11, 60247, Note_on_c, 9, 38, 120
11, 60280, Note_on_c, 9, 42, 0
11, 60306, Note_on_c, 9, 38, 0
11, 60367, Note_on_c, 9, 42, 88
11, 60426, Note_on_c, 9, 42, 0
11, 60426, Note_on_c, 9, 42, 39
11, 60427, Note_on_c, 9, 42, 0
11, 60486, Note_on_c, 9, 42, 55
11, 60486, Note_on_c, 9, 35, 126
11, 60520, Note_on_c, 9, 42, 0
11, 60546, Note_on_c, 9, 35, 0
11, 60606, Note_on_c, 9, 42, 63
11, 60667, Note_on_c, 9, 46, 67
11, 60675, Note_on_c, 9, 46, 0
11, 60713, Note_on_c, 9, 42, 0
11, 60726, Note_on_c, 9, 38, 120
11, 60726, Note_on_c, 9, 42, 46
11, 60766, Note_on_c, 9, 42, 0
11, 60786, Note_on_c, 9, 38, 0
11, 60846, Note_on_c, 9, 42, 73
11, 60907, Note_on_c, 9, 46, 69
11, 60928, Note_on_c, 9, 46, 0
11, 60967, Note_on_c, 9, 42, 0
11, 60967, Note_on_c, 9, 42, 37
11, 60968, Note_on_c, 9, 42, 0
11, 61086, Note_on_c, 9, 42, 88
11, 61087, Note_on_c, 9, 35, 124
11, 61146, Note_on_c, 9, 42, 0
11, 61147, Note_on_c, 9, 35, 0
11, 61147, Note_on_c, 9, 42, 29
11, 61169, Note_on_c, 9, 42, 0
11, 61208, Note_on_c, 9, 38, 123
11, 61208, Note_on_c, 9, 42, 45
11, 61240, Note_on_c, 9, 42, 0
11, 61266, Note_on_c, 9, 38, 0
11, 61325, Note_on_c, 9, 42, 90
11, 61384, Note_on_c, 9, 42, 0
11, 61386, Note_on_c, 9, 42, 27
11, 61395, Note_on_c, 9, 42, 0
11, 61447, Note_on_c, 9, 42, 49
11, 61447, Note_on_c, 9, 35, 126
11, 61484, Note_on_c, 9, 42, 0
11, 61507, Note_on_c, 9, 35, 0
11, 61566, Note_on_c, 9, 42, 77
11, 61627, Note_on_c, 9, 46, 71
11, 61642, Note_on_c, 9, 46, 0
11, 61665, Note_on_c, 9, 42, 0
11, 61685, Note_on_c, 9, 42, 46
11, 61687, Note_on_c, 9, 38, 120
11, 61723, Note_on_c, 9, 42, 0
11, 61745, Note_on_c, 9, 38, 0
11, 61806, Note_on_c, 9, 42, 71
11, 61865, Note_on_c, 9, 46, 67
11, 61880, Note_on_c, 9, 46, 0
11, 61903, Note_on_c, 9, 42, 0
11, 61925, Note_on_c, 9, 42, 46
11, 61963, Note_on_c, 9, 42, 0
11, 62047, Note_on_c, 9, 42, 79
11, 62047, Note_on_c, 9, 35, 124
11, 62096, Note_on_c, 9, 42, 0
11, 62106, Note_on_c, 9, 35, 0
11, 62106, Note_on_c, 9, 42, 33
11, 62121, Note_on_c, 9, 42, 0
11, 62167, Note_on_c, 9, 38, 118
11, 62167, Note_on_c, 9, 42, 46
11, 62216, Note_on_c, 9, 42, 0
11, 62226, Note_on_c, 9, 38, 0
11, 62285, Note_on_c, 9, 42, 88
11, 62326, Note_on_c, 9, 42, 0
11, 62347, Note_on_c, 9, 42, 30
11, 62357, Note_on_c, 9, 42, 0
11, 62406, Note_on_c, 9, 42, 45
11, 62406, Note_on_c, 9, 49, 83
11, 62406, Note_on_c, 9, 35, 124
11, 62421, Note_on_c, 9, 42, 0
11, 62436, Note_on_c, 9, 49, 0
11, 62465, Note_on_c, 9, 35, 0
11, 62526, Note_on_c, 9, 42, 81
11, 62568, Note_on_c, 9, 42, 0
11, 62587, Note_on_c, 9, 42, 26
11, 62603, Note_on_c, 9, 42, 0
11, 62647, Note_on_c, 9, 38, 120
11, 62647, Note_on_c, 9, 42, 41
11, 62686, Note_on_c, 9, 42, 0
11, 62706, Note_on_c, 9, 38, 0
11, 62766, Note_on_c, 9, 42, 84
11, 62826, Note_on_c, 9, 46, 80
11, 62841, Note_on_c, 9, 42, 0
11, 62849, Note_on_c, 9, 46, 0
11, 62886, Note_on_c, 9, 42, 45
11, 62935, Note_on_c, 9, 42, 0
11, 63005, Note_on_c, 9, 42, 86
11, 63005, Note_on_c, 9, 35, 127
11, 63066, Note_on_c, 9, 35, 0
11, 63066, Note_on_c, 9, 42, 0
11, 63067, Note_on_c, 9, 42, 39
11, 63091, Note_on_c, 9, 42, 0
11, 63127, Note_on_c, 9, 38, 120
11, 63127, Note_on_c, 9, 42, 45
11, 63173, Note_on_c, 9, 42, 0
11, 63187, Note_on_c, 9, 38, 0
11, 63246, Note_on_c, 9, 42, 81
11, 63305, Note_on_c, 9, 42, 0
11, 63305, Note_on_c, 9, 42, 34
11, 63306, Note_on_c, 9, 42, 0
11, 63365, Note_on_c, 9, 42, 43
11, 63366, Note_on_c, 9, 35, 124
11, 63410, Note_on_c, 9, 42, 0
11, 63426, Note_on_c, 9, 35, 0
11, 63487, Note_on_c, 9, 42, 86
11, 63546, Note_on_c, 9, 46, 67
11, 63568, Note_on_c, 9, 46, 0
11, 63588, Note_on_c, 9, 42, 0
11, 63606, Note_on_c, 9, 38, 123
11, 63606, Note_on_c, 9, 42, 39
11, 63649, Note_on_c, 9, 42, 0
11, 63665, Note_on_c, 9, 38, 0
11, 63725, Note_on_c, 9, 42, 79
11, 63786, Note_on_c, 9, 46, 75
11, 63826, Note_on_c, 9, 46, 0
11, 63831, Note_on_c, 9, 42, 0
11, 63846, Note_on_c, 9, 42, 55
11, 63886, Note_on_c, 9, 42, 0
11, 63966, Note_on_c, 9, 42, 84
11, 63968, Note_on_c, 9, 35, 126
11, 64013, Note_on_c, 9, 42, 0
11, 64027, Note_on_c, 9, 35, 0
11, 64027, Note_on_c, 9, 42, 27
11, 64066, Note_on_c, 9, 42, 0
11, 64086, Note_on_c, 9, 38, 123
11, 64086, Note_on_c, 9, 42, 47
11, 64128, Note_on_c, 9, 42, 0
11, 64146, Note_on_c, 9, 38, 0
11, 64206, Note_on_c, 9, 42, 63
11, 64266, Note_on_c, 9, 42, 0
11, 64267, Note_on_c, 9, 42, 41
11, 64276, Note_on_c, 9, 42, 0
11, 64327, Note_on_c, 9, 42, 51
11, 64327, Note_on_c, 9, 35, 124
11, 64361, Note_on_c, 9, 42, 0
11, 64385, Note_on_c, 9, 35, 0
11, 64446, Note_on_c, 9, 42, 84
11, 64506, Note_on_c, 9, 46, 75
11, 64526, Note_on_c, 9, 46, 0
11, 64557, Note_on_c, 9, 42, 0
11, 64567, Note_on_c, 9, 38, 123
11, 64567, Note_on_c, 9, 42, 49
11, 64604, Note_on_c, 9, 42, 0
11, 64626, Note_on_c, 9, 38, 0
11, 64685, Note_on_c, 9, 42, 66
11, 64745, Note_on_c, 9, 46, 80
11, 64768, Note_on_c, 9, 46, 0
11, 64793, Note_on_c, 9, 42, 0
11, 64806, Note_on_c, 9, 42, 51
11, 64846, Note_on_c, 9, 42, 0
11, 64926, Note_on_c, 9, 42, 77
11, 64926, Note_on_c, 9, 35, 122
11, 64986, Note_on_c, 9, 35, 0
11, 64986, Note_on_c, 9, 42, 0
11, 64988, Note_on_c, 9, 42, 32
11, 64998, Note_on_c, 9, 42, 0
11, 65045, Note_on_c, 9, 42, 53
11, 65047, Note_on_c, 9, 38, 120
11, 65084, Note_on_c, 9, 42, 0
11, 65106, Note_on_c, 9, 38, 0
11, 65167, Note_on_c, 9, 42, 71
11, 65226, Note_on_c, 9, 42, 0
11, 65226, Note_on_c, 9, 42, 32
11, 65227, Note_on_c, 9, 42, 0
11, 65286, Note_on_c, 9, 42, 39
11, 65286, Note_on_c, 9, 35, 122
11, 65328, Note_on_c, 9, 42, 0
11, 65346, Note_on_c, 9, 35, 0
11, 65407, Note_on_c, 9, 42, 86
11, 65466, Note_on_c, 9, 42, 0
11, 65466, Note_on_c, 9, 42, 27
11, 65467, Note_on_c, 9, 42, 0
11, 65526, Note_on_c, 9, 38, 120
11, 65526, Note_on_c, 9, 42, 45
11, 65566, Note_on_c, 9, 42, 0
11, 65586, Note_on_c, 9, 38, 0
11, 65646, Note_on_c, 9, 42, 66
11, 65707, Note_on_c, 9, 42, 0
11, 65707, Note_on_c, 9, 42, 28
11, 65708, Note_on_c, 9, 42, 0
11, 65765, Note_on_c, 9, 42, 46
11, 65806, Note_on_c, 9, 42, 0
11, 65886, Note_on_c, 9, 42, 88
11, 65887, Note_on_c, 9, 35, 117
11, 65937, Note_on_c, 9, 42, 0
11, 65947, Note_on_c, 9, 35, 0
11, 65947, Note_on_c, 9, 42, 32
11, 65956, Note_on_c, 9, 42, 0
11, 66007, Note_on_c, 9, 38, 118
11, 66007, Note_on_c, 9, 42, 47
11, 66054, Note_on_c, 9, 42, 0
11, 66066, Note_on_c, 9, 38, 0
11, 66126, Note_on_c, 9, 42, 77
11, 66186, Note_on_c, 9, 42, 0
11, 66187, Note_on_c, 9, 42, 30
11, 66198, Note_on_c, 9, 42, 0
11, 66247, Note_on_c, 9, 42, 47
11, 66247, Note_on_c, 9, 35, 126
11, 66282, Note_on_c, 9, 42, 0
11, 66306, Note_on_c, 9, 35, 0
11, 66366, Note_on_c, 9, 42, 77
11, 66423, Note_on_c, 9, 42, 0
11, 66425, Note_on_c, 9, 42, 33
11, 66466, Note_on_c, 9, 42, 0
11, 66485, Note_on_c, 9, 42, 46
11, 66487, Note_on_c, 9, 38, 118
11, 66525, Note_on_c, 9, 42, 0
11, 66547, Note_on_c, 9, 38, 0
11, 66606, Note_on_c, 9, 42, 84
11, 66666, Note_on_c, 9, 46, 70
11, 66678, Note_on_c, 9, 46, 0
11, 66726, Note_on_c, 9, 42, 0
11, 66726, Note_on_c, 9, 42, 45
11, 66727, Note_on_c, 9, 42, 0
11, 66847, Note_on_c, 9, 42, 81
11, 66847, Note_on_c, 9, 35, 126
11, 66906, Note_on_c, 9, 35, 0
11, 66906, Note_on_c, 9, 42, 0
11, 66906, Note_on_c, 9, 42, 28
11, 66907, Note_on_c, 9, 42, 0
11, 66966, Note_on_c, 9, 38, 123
11, 66966, Note_on_c, 9, 42, 46
11, 67003, Note_on_c, 9, 42, 0
11, 67026, Note_on_c, 9, 38, 0
11, 67087, Note_on_c, 9, 42, 81
11, 67146, Note_on_c, 9, 42, 0
11, 67146, Note_on_c, 9, 42, 27
11, 67147, Note_on_c, 9, 42, 0
11, 67206, Note_on_c, 9, 42, 53
11, 67206, Note_on_c, 9, 35, 126
11, 67243, Note_on_c, 9, 42, 0
11, 67266, Note_on_c, 9, 35, 0
11, 67326, Note_on_c, 9, 42, 81
11, 67387, Note_on_c, 9, 46, 69
11, 67399, Note_on_c, 9, 46, 0
11, 67435, Note_on_c, 9, 42, 0
11, 67445, Note_on_c, 9, 42, 43
11, 67446, Note_on_c, 9, 38, 123
11, 67486, Note_on_c, 9, 42, 0
11, 67506, Note_on_c, 9, 38, 0
11, 67566, Note_on_c, 9, 42, 81
11, 67627, Note_on_c, 9, 46, 69
11, 67648, Note_on_c, 9, 46, 0
11, 67672, Note_on_c, 9, 42, 0
11, 67687, Note_on_c, 9, 42, 41
11, 67728, Note_on_c, 9, 42, 0
11, 67805, Note_on_c, 9, 42, 79
11, 67806, Note_on_c, 9, 35, 127
11, 67858, Note_on_c, 9, 42, 0
11, 67866, Note_on_c, 9, 35, 0
11, 67867, Note_on_c, 9, 42, 27
11, 67889, Note_on_c, 9, 42, 0
11, 67927, Note_on_c, 9, 38, 123
11, 67927, Note_on_c, 9, 42, 44
11, 67978, Note_on_c, 9, 42, 0
11, 67986, Note_on_c, 9, 38, 0
11, 68046, Note_on_c, 9, 42, 75
11, 68098, Note_on_c, 9, 42, 0
11, 68105, Note_on_c, 9, 42, 32
11, 68121, Note_on_c, 9, 42, 0
11, 68167, Note_on_c, 9, 42, 46
11, 68167, Note_on_c, 9, 35, 120
11, 68205, Note_on_c, 9, 42, 0
11, 68227, Note_on_c, 9, 35, 0
11, 68286, Note_on_c, 9, 42, 88
11, 68346, Note_on_c, 9, 46, 69
11, 68363, Note_on_c, 9, 46, 0
11, 68388, Note_on_c, 9, 42, 0
11, 68405, Note_on_c, 9, 42, 44
11, 68407, Note_on_c, 9, 38, 118
11, 68443, Note_on_c, 9, 42, 0
11, 68467, Note_on_c, 9, 38, 0
11, 68527, Note_on_c, 9, 42, 59
11, 68586, Note_on_c, 9, 46, 66
11, 68606, Note_on_c, 9, 46, 0
11, 68632, Note_on_c, 9, 42, 0
11, 68646, Note_on_c, 9, 42, 46
11, 68683, Note_on_c, 9, 42, 0
11, 68767, Note_on_c, 9, 42, 90
11, 68767, Note_on_c, 9, 35, 117
11, 68826, Note_on_c, 9, 35, 0
11, 68826, Note_on_c, 9, 42, 0
11, 68826, Note_on_c, 9, 42, 31
11, 68827, Note_on_c, 9, 42, 0
11, 68886, Note_on_c, 9, 38, 120
11, 68886, Note_on_c, 9, 42, 41
11, 68920, Note_on_c, 9, 42, 0
11, 68946, Note_on_c, 9, 38, 0
11, 69006, Note_on_c, 9, 42, 69
11, 69067, Note_on_c, 9, 42, 0
11, 69067, Note_on_c, 9, 42, 28
11, 69068, Note_on_c, 9, 42, 0
11, 69125, Note_on_c, 9, 42, 38
11, 69125, Note_on_c, 9, 35, 126
11, 69166, Note_on_c, 9, 42, 0
11, 69186, Note_on_c, 9, 35, 0
11, 69246, Note_on_c, 9, 42, 90
11, 69303, Note_on_c, 9, 42, 0
11, 69307, Note_on_c, 9, 42, 30
11, 69324, Note_on_c, 9, 42, 0
11, 69367, Note_on_c, 9, 38, 118
11, 69367, Note_on_c, 9, 42, 45
11, 69406, Note_on_c, 9, 42, 0
11, 69425, Note_on_c, 9, 38, 0
11, 69485, Note_on_c, 9, 42, 88
11, 69547, Note_on_c, 9, 46, 68
11, 69571, Note_on_c, 9, 46, 0
11, 69601, Note_on_c, 9, 42, 0
11, 69606, Note_on_c, 9, 42, 36
11, 69642, Note_on_c, 9, 42, 0
11, 69726, Note_on_c, 9, 42, 71
11, 69726, Note_on_c, 9, 35, 104
11, 69786, Note_on_c, 9, 42, 0
11, 69787, Note_on_c, 9, 35, 0
11, 69787, Note_on_c, 9, 42, 28
11, 69798, Note_on_c, 9, 42, 0
11, 69846, Note_on_c, 9, 42, 44
11, 69847, Note_on_c, 9, 38, 118
11, 69885, Note_on_c, 9, 42, 0
11, 69907, Note_on_c, 9, 38, 0
11, 69966, Note_on_c, 9, 42, 86
11, 70081, Note_on_c, 9, 42, 0
11, 70087, Note_on_c, 9, 42, 44
11, 70087, Note_on_c, 9, 35, 127
11, 70126, Note_on_c, 9, 42, 0
11, 70145, Note_on_c, 9, 35, 0
11, 70207, Note_on_c, 9, 42, 66
11, 70266, Note_on_c, 9, 42, 0
11, 70266, Note_on_c, 9, 42, 29
11, 70267, Note_on_c, 9, 42, 0
11, 70326, Note_on_c, 9, 42, 46
11, 70327, Note_on_c, 9, 38, 120
11, 70371, Note_on_c, 9, 42, 0
11, 70386, Note_on_c, 9, 38, 0
11, 70445, Note_on_c, 9, 42, 90
11, 70505, Note_on_c, 9, 46, 75
11, 70536, Note_on_c, 9, 46, 0
11, 70536, Note_on_c, 9, 42, 0
11, 70566, Note_on_c, 9, 42, 43
11, 70608, Note_on_c, 9, 42, 0
11, 70686, Note_on_c, 9, 42, 71
11, 70687, Note_on_c, 9, 35, 124
11, 70746, Note_on_c, 9, 35, 0
11, 70746, Note_on_c, 9, 42, 0
11, 70747, Note_on_c, 9, 42, 27
11, 70748, Note_on_c, 9, 42, 0
11, 70805, Note_on_c, 9, 38, 120
11, 70805, Note_on_c, 9, 42, 44
11, 70845, Note_on_c, 9, 42, 0
11, 70866, Note_on_c, 9, 38, 0
11, 70926, Note_on_c, 9, 42, 84
11, 70978, Note_on_c, 9, 42, 0
11, 70986, Note_on_c, 9, 42, 29
11, 71012, Note_on_c, 9, 42, 0
11, 71046, Note_on_c, 9, 42, 40
11, 71047, Note_on_c, 9, 35, 126
11, 71086, Note_on_c, 9, 42, 0
11, 71105, Note_on_c, 9, 35, 0
11, 71166, Note_on_c, 9, 42, 84
11, 71226, Note_on_c, 9, 46, 73
11, 71256, Note_on_c, 9, 46, 0
11, 71285, Note_on_c, 9, 42, 0
11, 71287, Note_on_c, 9, 38, 120
11, 71287, Note_on_c, 9, 42, 45
11, 71327, Note_on_c, 9, 42, 0
11, 71346, Note_on_c, 9, 38, 0
11, 71405, Note_on_c, 9, 42, 67
11, 71465, Note_on_c, 9, 46, 69
11, 71486, Note_on_c, 9, 46, 0
11, 71523, Note_on_c, 9, 42, 0
11, 71525, Note_on_c, 9, 42, 48
11, 71571, Note_on_c, 9, 42, 0
11, 71646, Note_on_c, 9, 42, 88
11, 71646, Note_on_c, 9, 35, 126
11, 71706, Note_on_c, 9, 35, 0
11, 71706, Note_on_c, 9, 42, 0
11, 71706, Note_on_c, 9, 42, 28
11, 71707, Note_on_c, 9, 42, 0
11, 71765, Note_on_c, 9, 42, 40
11, 71767, Note_on_c, 9, 38, 120
11, 71806, Note_on_c, 9, 42, 0
11, 71826, Note_on_c, 9, 38, 0
11, 71887, Note_on_c, 9, 42, 81
11, 71946, Note_on_c, 9, 42, 0
11, 71946, Note_on_c, 9, 42, 30
11, 71947, Note_on_c, 9, 42, 0
11, 72006, Note_on_c, 9, 42, 33
11, 72007, Note_on_c, 9, 35, 124
11, 72046, Note_on_c, 9, 42, 0
11, 72066, Note_on_c, 9, 35, 0
11, 72127, Note_on_c, 9, 42, 71
11, 72169, Note_on_c, 9, 42, 0
11, 72185, Note_on_c, 9, 42, 29
11, 72201, Note_on_c, 9, 42, 0
11, 72246, Note_on_c, 9, 42, 38
11, 72247, Note_on_c, 9, 38, 120
11, 72286, Note_on_c, 9, 42, 0
11, 72306, Note_on_c, 9, 38, 0
11, 72367, Note_on_c, 9, 42, 88
11, 72427, Note_on_c, 9, 46, 68
11, 72442, Note_on_c, 9, 46, 0
11, 72463, Note_on_c, 9, 42, 0
11, 72485, Note_on_c, 9, 42, 37
11, 72533, Note_on_c, 9, 42, 0
11, 72606, Note_on_c, 9, 42, 88
11, 72607, Note_on_c, 9, 35, 126
11, 72667, Note_on_c, 9, 35, 0
11, 72667, Note_on_c, 9, 42, 0
11, 72667, Note_on_c, 9, 42, 29
11, 72668, Note_on_c, 9, 42, 0
11, 72727, Note_on_c, 9, 38, 123
11, 72727, Note_on_c, 9, 42, 41
11, 72773, Note_on_c, 9, 42, 0
11, 72785, Note_on_c, 9, 38, 0
11, 72846, Note_on_c, 9, 42, 66
11, 72906, Note_on_c, 9, 42, 0
11, 72906, Note_on_c, 9, 42, 26
11, 72907, Note_on_c, 9, 42, 0
11, 72967, Note_on_c, 9, 42, 38
11, 72967, Note_on_c, 9, 35, 124
11, 73007, Note_on_c, 9, 42, 0
11, 73026, Note_on_c, 9, 35, 0
11, 73085, Note_on_c, 9, 42, 88
11, 73145, Note_on_c, 9, 42, 0
11, 73145, Note_on_c, 9, 42, 28
11, 73146, Note_on_c, 9, 42, 0
11, 73207, Note_on_c, 9, 38, 123
11, 73207, Note_on_c, 9, 42, 46
11, 73248, Note_on_c, 9, 42, 0
11, 73267, Note_on_c, 9, 38, 0
11, 73326, Note_on_c, 9, 42, 88
11, 73385, Note_on_c, 9, 46, 69
11, 73406, Note_on_c, 9, 46, 0
11, 73438, Note_on_c, 9, 42, 0
11, 73445, Note_on_c, 9, 42, 40
11, 73493, Note_on_c, 9, 42, 0
11, 73567, Note_on_c, 9, 42, 88
11, 73567, Note_on_c, 9, 35, 114
11, 73626, Note_on_c, 9, 35, 0
11, 73626, Note_on_c, 9, 46, 68
11, 73666, Note_on_c, 9, 46, 0
11, 73684, Note_on_c, 9, 42, 0
11, 73686, Note_on_c, 9, 42, 44
11, 73687, Note_on_c, 9, 38, 115
11, 73736, Note_on_c, 9, 42, 0
11, 73746, Note_on_c, 9, 38, 0
11, 73807, Note_on_c, 9, 42, 90
11, 73884, Note_on_c, 9, 42, 0
11, 73927, Note_on_c, 9, 42, 43
11, 73927, Note_on_c, 9, 42, 36
11, 73927, Note_on_c, 9, 49, 60
11, 73927, Note_on_c, 9, 35, 127
11, 73948, Note_on_c, 9, 42, 0
11, 73966, Note_on_c, 9, 49, 0
11, 73973, Note_on_c, 9, 42, 0
11, 73987, Note_on_c, 9, 35, 0
11, 73987, Note_on_c, 9, 42, 17
11, 74018, Note_on_c, 9, 42, 0
11, 74047, Note_on_c, 9, 42, 19
11, 74047, Note_on_c, 9, 42, 81
11, 74086, Note_on_c, 9, 42, 0
11, 74106, Note_on_c, 9, 42, 0
11, 74106, Note_on_c, 9, 42, 28
11, 74106, Note_on_c, 9, 42, 17
11, 74107, Note_on_c, 9, 42, 0
11, 74138, Note_on_c, 9, 42, 0
11, 74165, Note_on_c, 9, 42, 44
11, 74165, Note_on_c, 9, 38, 123
11, 74165, Note_on_c, 9, 42, 49
11, 74188, Note_on_c, 9, 42, 0
11, 74220, Note_on_c, 9, 42, 0
11, 74226, Note_on_c, 9, 38, 0
11, 74226, Note_on_c, 9, 42, 17
11, 74266, Note_on_c, 9, 42, 0
11, 74286, Note_on_c, 9, 42, 17
11, 74286, Note_on_c, 9, 42, 81
11, 74341, Note_on_c, 9, 42, 0
11, 74343, Note_on_c, 9, 42, 0
11, 74347, Note_on_c, 9, 42, 17
11, 74347, Note_on_c, 9, 42, 28
11, 74355, Note_on_c, 9, 42, 0
11, 74378, Note_on_c, 9, 42, 0
11, 74407, Note_on_c, 9, 42, 17
11, 74407, Note_on_c, 9, 42, 45
11, 74438, Note_on_c, 9, 42, 0
11, 74446, Note_on_c, 9, 42, 0
11, 74465, Note_on_c, 9, 42, 17
11, 74505, Note_on_c, 9, 42, 0
11, 74526, Note_on_c, 9, 42, 17
11, 74526, Note_on_c, 9, 42, 86
11, 74526, Note_on_c, 9, 35, 115
11, 74565, Note_on_c, 9, 42, 0
11, 74580, Note_on_c, 9, 42, 0
11, 74586, Note_on_c, 9, 35, 0
11, 74586, Note_on_c, 9, 42, 32
11, 74587, Note_on_c, 9, 42, 17
11, 74599, Note_on_c, 9, 42, 0
11, 74621, Note_on_c, 9, 42, 0
11, 74647, Note_on_c, 9, 42, 46
11, 74647, Note_on_c, 9, 38, 123
11, 74647, Note_on_c, 9, 42, 51
11, 74679, Note_on_c, 9, 42, 0
11, 74695, Note_on_c, 9, 42, 0
11, 74706, Note_on_c, 9, 38, 0
11, 74706, Note_on_c, 9, 42, 17
11, 74738, Note_on_c, 9, 42, 0
11, 74765, Note_on_c, 9, 42, 79
11, 74765, Note_on_c, 9, 35, 112
11, 74767, Note_on_c, 9, 42, 17
11, 74801, Note_on_c, 9, 42, 0
11, 74806, Note_on_c, 9, 35, 0
11, 74823, Note_on_c, 9, 42, 0
11, 74825, Note_on_c, 9, 42, 17
11, 74825, Note_on_c, 9, 42, 39
11, 74846, Note_on_c, 9, 42, 0
11, 74858, Note_on_c, 9, 42, 0
11, 74887, Note_on_c, 9, 42, 44
11, 74887, Note_on_c, 9, 42, 51
11, 74887, Note_on_c, 9, 35, 124
11, 74920, Note_on_c, 9, 42, 0
11, 74931, Note_on_c, 9, 42, 0
11, 74947, Note_on_c, 9, 35, 0
11, 74947, Note_on_c, 9, 42, 17
11, 74981, Note_on_c, 9, 42, 0
11, 75006, Note_on_c, 9, 42, 17
11, 75006, Note_on_c, 9, 42, 84
11, 75041, Note_on_c, 9, 42, 0
11, 75065, Note_on_c, 9, 46, 76
11, 75065, Note_on_c, 9, 42, 17
11, 75068, Note_on_c, 9, 42, 0
11, 75078, Note_on_c, 9, 46, 0
11, 75096, Note_on_c, 9, 42, 0
11, 75125, Note_on_c, 9, 42, 17
11, 75125, Note_on_c, 9, 38, 123
11, 75125, Note_on_c, 9, 42, 51
11, 75166, Note_on_c, 9, 42, 0
11, 75169, Note_on_c, 9, 42, 0
11, 75186, Note_on_c, 9, 38, 0
11, 75187, Note_on_c, 9, 42, 17
11, 75227, Note_on_c, 9, 42, 0
11, 75247, Note_on_c, 9, 42, 17
11, 75247, Note_on_c, 9, 42, 88
11, 75280, Note_on_c, 9, 42, 0
11, 75306, Note_on_c, 9, 46, 71
11, 75306, Note_on_c, 9, 42, 17
11, 75311, Note_on_c, 9, 42, 0
11, 75320, Note_on_c, 9, 46, 0
11, 75330, Note_on_c, 9, 42, 0
11, 75366, Note_on_c, 9, 42, 44
11, 75366, Note_on_c, 9, 42, 47
11, 75396, Note_on_c, 9, 42, 0
11, 75411, Note_on_c, 9, 42, 0
11, 75425, Note_on_c, 9, 42, 17
11, 75456, Note_on_c, 9, 42, 0
11, 75487, Note_on_c, 9, 42, 17
11, 75487, Note_on_c, 9, 42, 88
11, 75487, Note_on_c, 9, 35, 117
11, 75521, Note_on_c, 9, 42, 0
11, 75543, Note_on_c, 9, 42, 0
11, 75546, Note_on_c, 9, 35, 0
11, 75546, Note_on_c, 9, 42, 17
11, 75575, Note_on_c, 9, 42, 0
11, 75606, Note_on_c, 9, 42, 44
11, 75606, Note_on_c, 9, 38, 123
11, 75606, Note_on_c, 9, 42, 51
11, 75628, Note_on_c, 9, 42, 0
11, 75651, Note_on_c, 9, 42, 0
11, 75666, Note_on_c, 9, 38, 0
11, 75666, Note_on_c, 9, 42, 17
11, 75698, Note_on_c, 9, 42, 0
11, 75726, Note_on_c, 9, 42, 77
11, 75726, Note_on_c, 9, 35, 109
11, 75727, Note_on_c, 9, 42, 17
11, 75761, Note_on_c, 9, 42, 0
11, 75766, Note_on_c, 9, 35, 0
11, 75787, Note_on_c, 9, 42, 0
11, 75787, Note_on_c, 9, 42, 41
11, 75787, Note_on_c, 9, 42, 17
11, 75788, Note_on_c, 9, 42, 0
11, 75826, Note_on_c, 9, 42, 0
11, 75847, Note_on_c, 9, 42, 17
11, 75847, Note_on_c, 9, 42, 49
11, 75847, Note_on_c, 9, 35, 126
11, 75866, Note_on_c, 9, 42, 0
11, 75885, Note_on_c, 9, 42, 0
11, 75906, Note_on_c, 9, 35, 0
11, 75906, Note_on_c, 9, 42, 17
11, 75936, Note_on_c, 9, 42, 0
11, 75966, Note_on_c, 9, 42, 17
11, 75966, Note_on_c, 9, 42, 81
11, 76001, Note_on_c, 9, 42, 0
11, 76026, Note_on_c, 9, 46, 71
11, 76027, Note_on_c, 9, 42, 17
11, 76029, Note_on_c, 9, 42, 0
11, 76039, Note_on_c, 9, 46, 0
11, 76058, Note_on_c, 9, 42, 0
11, 76087, Note_on_c, 9, 42, 46
11, 76087, Note_on_c, 9, 38, 120
11, 76087, Note_on_c, 9, 42, 51
11, 76103, Note_on_c, 9, 42, 0
11, 76131, Note_on_c, 9, 42, 0
11, 76145, Note_on_c, 9, 42, 17
11, 76146, Note_on_c, 9, 38, 0
11, 76176, Note_on_c, 9, 42, 0
11, 76206, Note_on_c, 9, 42, 17
11, 76206, Note_on_c, 9, 42, 67
11, 76240, Note_on_c, 9, 42, 0
11, 76266, Note_on_c, 9, 46, 72
11, 76266, Note_on_c, 9, 42, 17
11, 76273, Note_on_c, 9, 42, 0
11, 76278, Note_on_c, 9, 46, 0
11, 76290, Note_on_c, 9, 42, 0
11, 76326, Note_on_c, 9, 42, 46
11, 76327, Note_on_c, 9, 42, 46
11, 76362, Note_on_c, 9, 42, 0
11, 76372, Note_on_c, 9, 42, 0
11, 76386, Note_on_c, 9, 42, 17
11, 76421, Note_on_c, 9, 42, 0
11, 76446, Note_on_c, 9, 42, 17
11, 76446, Note_on_c, 9, 42, 84
11, 76446, Note_on_c, 9, 35, 126
11, 76478, Note_on_c, 9, 42, 0
11, 76505, Note_on_c, 9, 42, 0
11, 76506, Note_on_c, 9, 35, 0
11, 76506, Note_on_c, 9, 42, 17
11, 76506, Note_on_c, 9, 42, 31
11, 76507, Note_on_c, 9, 42, 0
11, 76536, Note_on_c, 9, 42, 0
11, 76566, Note_on_c, 9, 38, 120
11, 76566, Note_on_c, 9, 42, 47
11, 76567, Note_on_c, 9, 42, 46
11, 76589, Note_on_c, 9, 42, 0
11, 76613, Note_on_c, 9, 42, 0
11, 76627, Note_on_c, 9, 38, 0
11, 76627, Note_on_c, 9, 42, 17
11, 76661, Note_on_c, 9, 42, 0
11, 76686, Note_on_c, 9, 42, 17
11, 76686, Note_on_c, 9, 42, 69
11, 76686, Note_on_c, 9, 35, 114
11, 76716, Note_on_c, 9, 42, 0
11, 76726, Note_on_c, 9, 35, 0
11, 76741, Note_on_c, 9, 42, 0
11, 76746, Note_on_c, 9, 42, 17
11, 76746, Note_on_c, 9, 42, 33
11, 76756, Note_on_c, 9, 42, 0
11, 76773, Note_on_c, 9, 42, 0
11, 76807, Note_on_c, 9, 42, 46
11, 76807, Note_on_c, 9, 42, 46
11, 76807, Note_on_c, 9, 35, 126
11, 76823, Note_on_c, 9, 42, 0
11, 76850, Note_on_c, 9, 42, 0
11, 76865, Note_on_c, 9, 35, 0
11, 76867, Note_on_c, 9, 42, 17
11, 76898, Note_on_c, 9, 42, 0
11, 76927, Note_on_c, 9, 42, 17
11, 76927, Note_on_c, 9, 42, 90
11, 76958, Note_on_c, 9, 42, 0
11, 76986, Note_on_c, 9, 46, 75
11, 76986, Note_on_c, 9, 42, 17
11, 76996, Note_on_c, 9, 46, 0
11, 77015, Note_on_c, 9, 42, 0
11, 77028, Note_on_c, 9, 42, 0
11, 77045, Note_on_c, 9, 42, 49
11, 77045, Note_on_c, 9, 38, 120
11, 77045, Note_on_c, 9, 42, 46
11, 77076, Note_on_c, 9, 42, 0
11, 77093, Note_on_c, 9, 42, 0
11, 77105, Note_on_c, 9, 38, 0
11, 77105, Note_on_c, 9, 42, 17
11, 77139, Note_on_c, 9, 42, 0
11, 77166, Note_on_c, 9, 42, 66
11, 77167, Note_on_c, 9, 42, 19
11, 77202, Note_on_c, 9, 42, 0
11, 77226, Note_on_c, 9, 46, 69
11, 77226, Note_on_c, 9, 42, 17
11, 77241, Note_on_c, 9, 46, 0
11, 77260, Note_on_c, 9, 42, 0
11, 77283, Note_on_c, 9, 42, 0
11, 77286, Note_on_c, 9, 42, 17
11, 77286, Note_on_c, 9, 42, 46
11, 77315, Note_on_c, 9, 42, 0
11, 77326, Note_on_c, 9, 42, 0
11, 77346, Note_on_c, 9, 42, 17
11, 77386, Note_on_c, 9, 42, 0
11, 77406, Note_on_c, 9, 42, 88
11, 77407, Note_on_c, 9, 42, 17
11, 77407, Note_on_c, 9, 35, 110
11, 77449, Note_on_c, 9, 42, 0
11, 77466, Note_on_c, 9, 42, 0
11, 77467, Note_on_c, 9, 35, 0
11, 77467, Note_on_c, 9, 42, 28
11, 77467, Note_on_c, 9, 42, 17
11, 77468, Note_on_c, 9, 42, 0
11, 77499, Note_on_c, 9, 42, 0
11, 77526, Note_on_c, 9, 42, 17
11, 77526, Note_on_c, 9, 38, 120
11, 77526, Note_on_c, 9, 42, 46
11, 77553, Note_on_c, 9, 42, 0
11, 77565, Note_on_c, 9, 42, 0
11, 77586, Note_on_c, 9, 38, 0
11, 77586, Note_on_c, 9, 42, 17
11, 77626, Note_on_c, 9, 42, 0
11, 77646, Note_on_c, 9, 42, 67
11, 77647, Note_on_c, 9, 42, 17
11, 77647, Note_on_c, 9, 35, 113
11, 77683, Note_on_c, 9, 42, 0
11, 77686, Note_on_c, 9, 35, 0
11, 77696, Note_on_c, 9, 42, 0
11, 77705, Note_on_c, 9, 42, 17
11, 77733, Note_on_c, 9, 42, 0
11, 77767, Note_on_c, 9, 42, 31
11, 77767, Note_on_c, 9, 35, 124
11, 77768, Note_on_c, 9, 42, 46
11, 77802, Note_on_c, 9, 42, 0
11, 77816, Note_on_c, 9, 42, 0
11, 77827, Note_on_c, 9, 35, 0
11, 77827, Note_on_c, 9, 42, 17
11, 77861, Note_on_c, 9, 42, 0
11, 77886, Note_on_c, 9, 42, 88
11, 77887, Note_on_c, 9, 42, 17
11, 77924, Note_on_c, 9, 42, 0
11, 77945, Note_on_c, 9, 42, 0
11, 77947, Note_on_c, 9, 42, 17
11, 77947, Note_on_c, 9, 42, 37
11, 77958, Note_on_c, 9, 42, 0
11, 77978, Note_on_c, 9, 42, 0
11, 78007, Note_on_c, 9, 42, 17
11, 78007, Note_on_c, 9, 38, 123
11, 78007, Note_on_c, 9, 42, 55
11, 78040, Note_on_c, 9, 42, 0
11, 78047, Note_on_c, 9, 42, 0
11, 78065, Note_on_c, 9, 42, 17
11, 78066, Note_on_c, 9, 38, 0
11, 78106, Note_on_c, 9, 42, 0
11, 78126, Note_on_c, 9, 42, 17
11, 78126, Note_on_c, 9, 42, 63
11, 78163, Note_on_c, 9, 42, 0
11, 78186, Note_on_c, 9, 46, 75
11, 78186, Note_on_c, 9, 42, 17
11, 78196, Note_on_c, 9, 46, 0
11, 78198, Note_on_c, 9, 42, 0
11, 78214, Note_on_c, 9, 42, 0
11, 78245, Note_on_c, 9, 42, 49
11, 78247, Note_on_c, 9, 42, 44
11, 78279, Note_on_c, 9, 42, 0
11, 78289, Note_on_c, 9, 42, 0
11, 78306, Note_on_c, 9, 42, 21
11, 78341, Note_on_c, 9, 42, 0
11, 78366, Note_on_c, 9, 42, 17
11, 78366, Note_on_c, 9, 42, 86
11, 78366, Note_on_c, 9, 35, 126
11, 78404, Note_on_c, 9, 42, 0
11, 78427, Note_on_c, 9, 35, 0
11, 78427, Note_on_c, 9, 42, 0
11, 78427, Note_on_c, 9, 42, 17
11, 78427, Note_on_c, 9, 42, 37
11, 78428, Note_on_c, 9, 42, 0
11, 78450, Note_on_c, 9, 42, 0
11, 78484, Note_on_c, 9, 42, 39
11, 78486, Note_on_c, 9, 38, 123
11, 78486, Note_on_c, 9, 42, 44
11, 78516, Note_on_c, 9, 42, 0
11, 78530, Note_on_c, 9, 42, 0
11, 78545, Note_on_c, 9, 38, 0
11, 78546, Note_on_c, 9, 42, 17
11, 78578, Note_on_c, 9, 42, 0
11, 78606, Note_on_c, 9, 42, 75
11, 78607, Note_on_c, 9, 42, 17
11, 78607, Note_on_c, 9, 35, 112
11, 78643, Note_on_c, 9, 42, 0
11, 78645, Note_on_c, 9, 35, 0
11, 78665, Note_on_c, 9, 42, 0
11, 78665, Note_on_c, 9, 42, 30
11, 78665, Note_on_c, 9, 42, 17
11, 78666, Note_on_c, 9, 42, 0
11, 78692, Note_on_c, 9, 42, 0
11, 78726, Note_on_c, 9, 42, 51
11, 78727, Note_on_c, 9, 42, 17
11, 78727, Note_on_c, 9, 35, 126
11, 78760, Note_on_c, 9, 42, 0
11, 78765, Note_on_c, 9, 42, 0
11, 78785, Note_on_c, 9, 35, 0
11, 78785, Note_on_c, 9, 42, 17
11, 78825, Note_on_c, 9, 42, 0
11, 78846, Note_on_c, 9, 42, 86
11, 78847, Note_on_c, 9, 42, 17
11, 78887, Note_on_c, 9, 42, 0
11, 78905, Note_on_c, 9, 46, 68
11, 78905, Note_on_c, 9, 42, 17
11, 78918, Note_on_c, 9, 46, 0
11, 78932, Note_on_c, 9, 42, 0
11, 78943, Note_on_c, 9, 42, 0
11, 78965, Note_on_c, 9, 42, 44
11, 78965, Note_on_c, 9, 38, 120
11, 78965, Note_on_c, 9, 42, 51
11, 79000, Note_on_c, 9, 42, 0
11, 79013, Note_on_c, 9, 42, 0
11, 79025, Note_on_c, 9, 38, 0
11, 79027, Note_on_c, 9, 42, 17
11, 79063, Note_on_c, 9, 42, 0
11, 79085, Note_on_c, 9, 42, 66
11, 79087, Note_on_c, 9, 42, 17
11, 79120, Note_on_c, 9, 42, 0
11, 79146, Note_on_c, 9, 42, 17
11, 79147, Note_on_c, 9, 46, 66
11, 79164, Note_on_c, 9, 46, 0
11, 79169, Note_on_c, 9, 42, 0
11, 79193, Note_on_c, 9, 42, 0
11, 79205, Note_on_c, 9, 42, 44
11, 79205, Note_on_c, 9, 42, 53
11, 79243, Note_on_c, 9, 42, 0
11, 79250, Note_on_c, 9, 42, 0
11, 79265, Note_on_c, 9, 42, 17
11, 79295, Note_on_c, 9, 42, 0
11, 79325, Note_on_c, 9, 42, 88
11, 79327, Note_on_c, 9, 42, 17
11, 79327, Note_on_c, 9, 35, 117
11, 79360, Note_on_c, 9, 42, 0
11, 79375, Note_on_c, 9, 42, 0
11, 79387, Note_on_c, 9, 35, 0
11, 79387, Note_on_c, 9, 42, 17
11, 79387, Note_on_c, 9, 42, 29
11, 79398, Note_on_c, 9, 42, 0
11, 79410, Note_on_c, 9, 42, 0
11, 79446, Note_on_c, 9, 42, 42
11, 79446, Note_on_c, 9, 38, 123
11, 79446, Note_on_c, 9, 42, 32
11, 79484, Note_on_c, 9, 42, 0
11, 79484, Note_on_c, 9, 42, 0
11, 79505, Note_on_c, 9, 38, 0
11, 79505, Note_on_c, 9, 42, 17
11, 79540, Note_on_c, 9, 42, 0
11, 79565, Note_on_c, 9, 42, 17
11, 79565, Note_on_c, 9, 42, 71
11, 79565, Note_on_c, 9, 35, 115
11, 79602, Note_on_c, 9, 42, 0
11, 79605, Note_on_c, 9, 35, 0
11, 79625, Note_on_c, 9, 42, 0
11, 79625, Note_on_c, 9, 42, 25
11, 79626, Note_on_c, 9, 42, 0
11, 79626, Note_on_c, 9, 42, 17
11, 79657, Note_on_c, 9, 42, 0
11, 79686, Note_on_c, 9, 42, 44
11, 79686, Note_on_c, 9, 42, 36
11, 79686, Note_on_c, 9, 35, 124
11, 79714, Note_on_c, 9, 42, 0
11, 79734, Note_on_c, 9, 42, 0
11, 79745, Note_on_c, 9, 35, 0
11, 79745, Note_on_c, 9, 42, 17
11, 79777, Note_on_c, 9, 42, 0
11, 79805, Note_on_c, 9, 42, 17
11, 79805, Note_on_c, 9, 42, 86
11, 79850, Note_on_c, 9, 42, 0
11, 79865, Note_on_c, 9, 46, 68
11, 79865, Note_on_c, 9, 42, 17
11, 79885, Note_on_c, 9, 46, 0
11, 79900, Note_on_c, 9, 42, 0
11, 79900, Note_on_c, 9, 42, 0
11, 79925, Note_on_c, 9, 42, 49
11, 79926, Note_on_c, 9, 38, 120
11, 79926, Note_on_c, 9, 42, 17
11, 79955, Note_on_c, 9, 42, 0
11, 79965, Note_on_c, 9, 42, 0
11, 79987, Note_on_c, 9, 38, 0
11, 79987, Note_on_c, 9, 42, 17
11, 80025, Note_on_c, 9, 42, 0
11, 80044, Note_on_c, 9, 42, 17
11, 80044, Note_on_c, 9, 42, 75
11, 80085, Note_on_c, 9, 42, 0
11, 80105, Note_on_c, 9, 46, 69
11, 80105, Note_on_c, 9, 42, 17
11, 80125, Note_on_c, 9, 46, 0
11, 80135, Note_on_c, 9, 42, 0
11, 80158, Note_on_c, 9, 42, 0
11, 80165, Note_on_c, 9, 42, 44
11, 80165, Note_on_c, 9, 42, 49
11, 80193, Note_on_c, 9, 42, 0
11, 80210, Note_on_c, 9, 42, 0
11, 80226, Note_on_c, 9, 42, 17
11, 80259, Note_on_c, 9, 42, 0
11, 80286, Note_on_c, 9, 42, 88
11, 80286, Note_on_c, 9, 35, 126
11, 80287, Note_on_c, 9, 42, 17
11, 80322, Note_on_c, 9, 42, 0
11, 80343, Note_on_c, 9, 42, 0
11, 80345, Note_on_c, 9, 35, 0
11, 80345, Note_on_c, 9, 42, 17
11, 80345, Note_on_c, 9, 42, 30
11, 80357, Note_on_c, 9, 42, 0
11, 80368, Note_on_c, 9, 42, 0
11, 80405, Note_on_c, 9, 42, 47
11, 80406, Note_on_c, 9, 38, 118
11, 80406, Note_on_c, 9, 42, 42
11, 80440, Note_on_c, 9, 42, 0
11, 80450, Note_on_c, 9, 42, 0
11, 80465, Note_on_c, 9, 38, 0
11, 80465, Note_on_c, 9, 42, 17
11, 80500, Note_on_c, 9, 42, 0
11, 80526, Note_on_c, 9, 42, 71
11, 80526, Note_on_c, 9, 35, 113
11, 80527, Note_on_c, 9, 42, 17
11, 80566, Note_on_c, 9, 35, 0
11, 80568, Note_on_c, 9, 42, 0
11, 80585, Note_on_c, 9, 42, 0
11, 80585, Note_on_c, 9, 42, 30
11, 80585, Note_on_c, 9, 42, 17
11, 80586, Note_on_c, 9, 42, 0
11, 80613, Note_on_c, 9, 42, 0
11, 80646, Note_on_c, 9, 42, 45
11, 80647, Note_on_c, 9, 42, 42
11, 80647, Note_on_c, 9, 35, 127
11, 80680, Note_on_c, 9, 42, 0
11, 80690, Note_on_c, 9, 42, 0
11, 80705, Note_on_c, 9, 35, 0
11, 80705, Note_on_c, 9, 42, 17
11, 80740, Note_on_c, 9, 42, 0
11, 80766, Note_on_c, 9, 42, 88
11, 80767, Note_on_c, 9, 42, 17
11, 80800, Note_on_c, 9, 42, 0
11, 80826, Note_on_c, 9, 42, 17
11, 80827, Note_on_c, 9, 46, 69
11, 80844, Note_on_c, 9, 46, 0
11, 80854, Note_on_c, 9, 42, 0
11, 80867, Note_on_c, 9, 42, 0
11, 80886, Note_on_c, 9, 42, 17
11, 80886, Note_on_c, 9, 38, 120
11, 80886, Note_on_c, 9, 42, 26
11, 80925, Note_on_c, 9, 42, 0
11, 80930, Note_on_c, 9, 42, 0
11, 80945, Note_on_c, 9, 38, 0
11, 80945, Note_on_c, 9, 42, 17
11, 80985, Note_on_c, 9, 42, 0
11, 81007, Note_on_c, 9, 42, 17
11, 81007, Note_on_c, 9, 42, 69
11, 81050, Note_on_c, 9, 42, 0
11, 81065, Note_on_c, 9, 46, 66
11, 81066, Note_on_c, 9, 42, 17
11, 81078, Note_on_c, 9, 46, 0
11, 81095, Note_on_c, 9, 42, 0
11, 81126, Note_on_c, 9, 42, 0
11, 81127, Note_on_c, 9, 42, 55
11, 81127, Note_on_c, 9, 42, 26
11, 81128, Note_on_c, 9, 42, 0
11, 81170, Note_on_c, 9, 42, 0
11, 81185, Note_on_c, 9, 42, 17
11, 81213, Note_on_c, 9, 42, 0
11, 81245, Note_on_c, 9, 42, 17
11, 81245, Note_on_c, 9, 42, 90
11, 81245, Note_on_c, 9, 35, 120
11, 81288, Note_on_c, 9, 42, 0
11, 81305, Note_on_c, 9, 42, 0
11, 81306, Note_on_c, 9, 42, 32
11, 81307, Note_on_c, 9, 35, 0
11, 81307, Note_on_c, 9, 42, 17
11, 81323, Note_on_c, 9, 42, 0
11, 81332, Note_on_c, 9, 42, 0
11, 81366, Note_on_c, 9, 42, 49
11, 81367, Note_on_c, 9, 42, 31
11, 81367, Note_on_c, 9, 38, 118
11, 81404, Note_on_c, 9, 42, 0
11, 81411, Note_on_c, 9, 42, 0
11, 81425, Note_on_c, 9, 38, 0
11, 81425, Note_on_c, 9, 42, 17
11, 81458, Note_on_c, 9, 42, 0
11, 81485, Note_on_c, 9, 42, 17
11, 81485, Note_on_c, 9, 42, 71
11, 81485, Note_on_c, 9, 35, 115
11, 81525, Note_on_c, 9, 35, 0
11, 81530, Note_on_c, 9, 42, 0
11, 81545, Note_on_c, 9, 42, 0
11, 81547, Note_on_c, 9, 42, 26
11, 81547, Note_on_c, 9, 42, 36
11, 81558, Note_on_c, 9, 42, 0
11, 81570, Note_on_c, 9, 42, 0
11, 81607, Note_on_c, 9, 42, 36
11, 81607, Note_on_c, 9, 49, 60
11, 81607, Note_on_c, 9, 35, 127
11, 81645, Note_on_c, 9, 49, 0
11, 81650, Note_on_c, 9, 42, 0
11, 81666, Note_on_c, 9, 35, 0
11, 81666, Note_on_c, 9, 42, 17
11, 81698, Note_on_c, 9, 42, 0
11, 81725, Note_on_c, 9, 42, 19
11, 81738, Note_on_c, 9, 51, 66
11, 81764, Note_on_c, 9, 51, 0
11, 81765, Note_on_c, 9, 42, 0
11, 81785, Note_on_c, 9, 42, 17
11, 81799, Note_on_c, 9, 51, 29
11, 81800, Note_on_c, 9, 51, 0
11, 81818, Note_on_c, 9, 42, 0
11, 81845, Note_on_c, 9, 38, 123
11, 81845, Note_on_c, 9, 42, 44
11, 81900, Note_on_c, 9, 42, 0
11, 81905, Note_on_c, 9, 38, 0
11, 81906, Note_on_c, 9, 42, 17
11, 81946, Note_on_c, 9, 42, 0
11, 81967, Note_on_c, 9, 42, 17
11, 81967, Note_on_c, 9, 51, 66
11, 81997, Note_on_c, 9, 51, 0
11, 82020, Note_on_c, 9, 42, 0
11, 82025, Note_on_c, 9, 42, 17
11, 82038, Note_on_c, 9, 51, 29
11, 82039, Note_on_c, 9, 51, 0
11, 82058, Note_on_c, 9, 42, 0
11, 82085, Note_on_c, 9, 42, 17
11, 82126, Note_on_c, 9, 42, 0
11, 82145, Note_on_c, 9, 42, 17
11, 82186, Note_on_c, 9, 42, 0
11, 82204, Note_on_c, 9, 51, 66
11, 82207, Note_on_c, 9, 42, 17
11, 82207, Note_on_c, 9, 35, 115
11, 82235, Note_on_c, 9, 51, 0
11, 82247, Note_on_c, 9, 42, 0
11, 82266, Note_on_c, 9, 35, 0
11, 82266, Note_on_c, 9, 42, 17
11, 82279, Note_on_c, 9, 51, 29
11, 82280, Note_on_c, 9, 51, 0
11, 82300, Note_on_c, 9, 42, 0
11, 82326, Note_on_c, 9, 38, 123
11, 82326, Note_on_c, 9, 42, 46
11, 82373, Note_on_c, 9, 42, 0
11, 82386, Note_on_c, 9, 38, 0
11, 82386, Note_on_c, 9, 42, 17
11, 82418, Note_on_c, 9, 42, 0
11, 82447, Note_on_c, 9, 42, 17
11, 82447, Note_on_c, 9, 35, 112
11, 82453, Note_on_c, 9, 51, 66
11, 82481, Note_on_c, 9, 42, 0
11, 82487, Note_on_c, 9, 35, 0
11, 82503, Note_on_c, 9, 51, 0
11, 82507, Note_on_c, 9, 42, 17
11, 82539, Note_on_c, 9, 42, 0
11, 82565, Note_on_c, 9, 42, 44
11, 82565, Note_on_c, 9, 35, 124
11, 82611, Note_on_c, 9, 42, 0
11, 82626, Note_on_c, 9, 35, 0
11, 82626, Note_on_c, 9, 42, 17
11, 82661, Note_on_c, 9, 42, 0
11, 82686, Note_on_c, 9, 42, 17
11, 82689, Note_on_c, 9, 51, 61
11, 82718, Note_on_c, 9, 51, 0
11, 82721, Note_on_c, 9, 42, 0
11, 82747, Note_on_c, 9, 42, 17
11, 82759, Note_on_c, 9, 51, 29
11, 82777, Note_on_c, 9, 42, 0
11, 82786, Note_on_c, 9, 51, 0
11, 82805, Note_on_c, 9, 38, 123
11, 82805, Note_on_c, 9, 42, 17
11, 82846, Note_on_c, 9, 42, 0
11, 82866, Note_on_c, 9, 38, 0
11, 82866, Note_on_c, 9, 42, 17
11, 82905, Note_on_c, 9, 42, 0
11, 82926, Note_on_c, 9, 42, 17
11, 82933, Note_on_c, 9, 51, 66
11, 82960, Note_on_c, 9, 42, 0
11, 82986, Note_on_c, 9, 42, 17
11, 82988, Note_on_c, 9, 51, 0
11, 83010, Note_on_c, 9, 42, 0
11, 83047, Note_on_c, 9, 42, 44
11, 83091, Note_on_c, 9, 42, 0
11, 83106, Note_on_c, 9, 42, 17
11, 83136, Note_on_c, 9, 42, 0
11, 83163, Note_on_c, 9, 51, 68
11, 83166, Note_on_c, 9, 42, 17
11, 83166, Note_on_c, 9, 35, 117
11, 83201, Note_on_c, 9, 42, 0
11, 83220, Note_on_c, 9, 51, 0
11, 83225, Note_on_c, 9, 35, 0
11, 83225, Note_on_c, 9, 42, 17
11, 83256, Note_on_c, 9, 42, 0
11, 83286, Note_on_c, 9, 38, 123
11, 83287, Note_on_c, 9, 42, 44
11, 83331, Note_on_c, 9, 42, 0
11, 83347, Note_on_c, 9, 38, 0
11, 83347, Note_on_c, 9, 42, 17
11, 83378, Note_on_c, 9, 42, 0
11, 83406, Note_on_c, 9, 42, 17
11, 83406, Note_on_c, 9, 35, 109
11, 83411, Note_on_c, 9, 51, 68
11, 83441, Note_on_c, 9, 42, 0
11, 83446, Note_on_c, 9, 35, 0
11, 83465, Note_on_c, 9, 51, 0
11, 83465, Note_on_c, 9, 42, 17
11, 83506, Note_on_c, 9, 42, 0
11, 83527, Note_on_c, 9, 42, 17
11, 83527, Note_on_c, 9, 35, 126
11, 83566, Note_on_c, 9, 42, 0
11, 83585, Note_on_c, 9, 35, 0
11, 83586, Note_on_c, 9, 42, 17
11, 83617, Note_on_c, 9, 42, 0
11, 83646, Note_on_c, 9, 42, 17
11, 83648, Note_on_c, 9, 51, 66
11, 83678, Note_on_c, 9, 51, 0
11, 83681, Note_on_c, 9, 42, 0
11, 83706, Note_on_c, 9, 42, 17
11, 83718, Note_on_c, 9, 51, 29
11, 83719, Note_on_c, 9, 51, 0
11, 83737, Note_on_c, 9, 42, 0
11, 83765, Note_on_c, 9, 38, 120
11, 83765, Note_on_c, 9, 42, 46
11, 83810, Note_on_c, 9, 42, 0
11, 83825, Note_on_c, 9, 38, 0
11, 83825, Note_on_c, 9, 42, 17
11, 83855, Note_on_c, 9, 42, 0
11, 83885, Note_on_c, 9, 42, 17
11, 83899, Note_on_c, 9, 51, 68
11, 83921, Note_on_c, 9, 42, 0
11, 83924, Note_on_c, 9, 51, 0
11, 83945, Note_on_c, 9, 42, 17
11, 83958, Note_on_c, 9, 51, 29
11, 83959, Note_on_c, 9, 51, 0
11, 83971, Note_on_c, 9, 42, 0
11, 84006, Note_on_c, 9, 42, 46
11, 84051, Note_on_c, 9, 42, 0
11, 84066, Note_on_c, 9, 42, 17
11, 84101, Note_on_c, 9, 42, 0
11, 84125, Note_on_c, 9, 35, 126
11, 84127, Note_on_c, 9, 42, 17
11, 84128, Note_on_c, 9, 51, 66
11, 84158, Note_on_c, 9, 51, 0
11, 84158, Note_on_c, 9, 42, 0
11, 84187, Note_on_c, 9, 35, 0
11, 84187, Note_on_c, 9, 42, 17
11, 84200, Note_on_c, 9, 51, 29
11, 84201, Note_on_c, 9, 51, 0
11, 84216, Note_on_c, 9, 42, 0
11, 84246, Note_on_c, 9, 38, 120
11, 84246, Note_on_c, 9, 42, 46
11, 84293, Note_on_c, 9, 42, 0
11, 84306, Note_on_c, 9, 38, 0
11, 84306, Note_on_c, 9, 42, 17
11, 84341, Note_on_c, 9, 42, 0
11, 84361, Note_on_c, 9, 51, 58
11, 84366, Note_on_c, 9, 42, 17
11, 84366, Note_on_c, 9, 35, 114
11, 84394, Note_on_c, 9, 51, 0
11, 84396, Note_on_c, 9, 42, 0
11, 84406, Note_on_c, 9, 35, 0
11, 84426, Note_on_c, 9, 42, 17
11, 84455, Note_on_c, 9, 42, 0
11, 84485, Note_on_c, 9, 42, 46
11, 84485, Note_on_c, 9, 35, 126
11, 84530, Note_on_c, 9, 42, 0
11, 84546, Note_on_c, 9, 35, 0
11, 84546, Note_on_c, 9, 42, 17
11, 84578, Note_on_c, 9, 42, 0
11, 84601, Note_on_c, 9, 51, 64
11, 84606, Note_on_c, 9, 42, 17
11, 84634, Note_on_c, 9, 51, 0
11, 84638, Note_on_c, 9, 42, 0
11, 84666, Note_on_c, 9, 42, 17
11, 84678, Note_on_c, 9, 51, 32
11, 84679, Note_on_c, 9, 51, 0
11, 84695, Note_on_c, 9, 42, 0
11, 84726, Note_on_c, 9, 42, 49
11, 84727, Note_on_c, 9, 38, 120
11, 84773, Note_on_c, 9, 42, 0
11, 84785, Note_on_c, 9, 38, 0
11, 84785, Note_on_c, 9, 42, 17
11, 84818, Note_on_c, 9, 42, 0
11, 84830, Note_on_c, 9, 51, 68
11, 84846, Note_on_c, 9, 42, 19
11, 84881, Note_on_c, 9, 42, 0
11, 84897, Note_on_c, 9, 51, 0
11, 84905, Note_on_c, 9, 42, 17
11, 84941, Note_on_c, 9, 42, 0
11, 84966, Note_on_c, 9, 42, 17
11, 85007, Note_on_c, 9, 42, 0
11, 85026, Note_on_c, 9, 42, 17
11, 85065, Note_on_c, 9, 42, 0
11, 85078, Note_on_c, 9, 51, 68
11, 85086, Note_on_c, 9, 42, 17
11, 85086, Note_on_c, 9, 35, 110
11, 85112, Note_on_c, 9, 51, 0
11, 85128, Note_on_c, 9, 42, 0
11, 85146, Note_on_c, 9, 35, 0
11, 85146, Note_on_c, 9, 42, 17
11, 85158, Note_on_c, 9, 51, 29
11, 85159, Note_on_c, 9, 51, 0
11, 85177, Note_on_c, 9, 42, 0
11, 85206, Note_on_c, 9, 38, 120
11, 85207, Note_on_c, 9, 42, 17
11, 85246, Note_on_c, 9, 42, 0
11, 85267, Note_on_c, 9, 38, 0
11, 85267, Note_on_c, 9, 42, 17
11, 85306, Note_on_c, 9, 42, 0
11, 85325, Note_on_c, 9, 42, 17
11, 85326, Note_on_c, 9, 35, 113
11, 85338, Note_on_c, 9, 51, 71
11, 85363, Note_on_c, 9, 42, 0
11, 85365, Note_on_c, 9, 35, 0
11, 85385, Note_on_c, 9, 42, 17
11, 85391, Note_on_c, 9, 51, 0
11, 85413, Note_on_c, 9, 42, 0
11, 85446, Note_on_c, 9, 42, 46
11, 85446, Note_on_c, 9, 35, 124
11, 85495, Note_on_c, 9, 42, 0
11, 85505, Note_on_c, 9, 35, 0
11, 85506, Note_on_c, 9, 42, 17
11, 85540, Note_on_c, 9, 42, 0
11, 85566, Note_on_c, 9, 42, 17
11, 85574, Note_on_c, 9, 51, 64
11, 85601, Note_on_c, 9, 51, 0
11, 85603, Note_on_c, 9, 42, 0
11, 85625, Note_on_c, 9, 42, 17
11, 85638, Note_on_c, 9, 51, 29
11, 85639, Note_on_c, 9, 51, 0
11, 85659, Note_on_c, 9, 42, 0
11, 85685, Note_on_c, 9, 38, 123
11, 85685, Note_on_c, 9, 42, 17
11, 85725, Note_on_c, 9, 42, 0
11, 85745, Note_on_c, 9, 38, 0
11, 85747, Note_on_c, 9, 42, 17
11, 85786, Note_on_c, 9, 42, 0
11, 85804, Note_on_c, 9, 51, 68
11, 85807, Note_on_c, 9, 42, 17
11, 85835, Note_on_c, 9, 51, 0
11, 85845, Note_on_c, 9, 42, 0
11, 85866, Note_on_c, 9, 42, 17
11, 85878, Note_on_c, 9, 51, 29
11, 85879, Note_on_c, 9, 51, 0
11, 85893, Note_on_c, 9, 42, 0
11, 85925, Note_on_c, 9, 42, 44
11, 85967, Note_on_c, 9, 42, 0
11, 85985, Note_on_c, 9, 42, 21
11, 86020, Note_on_c, 9, 42, 0
11, 86045, Note_on_c, 9, 35, 126
11, 86046, Note_on_c, 9, 42, 17
11, 86050, Note_on_c, 9, 51, 64
11, 86079, Note_on_c, 9, 51, 0
11, 86083, Note_on_c, 9, 42, 0
11, 86106, Note_on_c, 9, 35, 0
11, 86106, Note_on_c, 9, 42, 17
11, 86118, Note_on_c, 9, 51, 29
11, 86119, Note_on_c, 9, 51, 0
11, 86131, Note_on_c, 9, 42, 0
11, 86165, Note_on_c, 9, 38, 123
11, 86165, Note_on_c, 9, 42, 44
11, 86210, Note_on_c, 9, 42, 0
11, 86225, Note_on_c, 9, 38, 0
11, 86225, Note_on_c, 9, 42, 17
11, 86257, Note_on_c, 9, 42, 0
11, 86286, Note_on_c, 9, 42, 17
11, 86286, Note_on_c, 9, 35, 112
11, 86295, Note_on_c, 9, 51, 58
11, 86321, Note_on_c, 9, 51, 0
11, 86322, Note_on_c, 9, 42, 0
11, 86325, Note_on_c, 9, 35, 0
11, 86345, Note_on_c, 9, 42, 17
11, 86358, Note_on_c, 9, 51, 29
11, 86372, Note_on_c, 9, 42, 0
11, 86389, Note_on_c, 9, 51, 0
11, 86406, Note_on_c, 9, 35, 126
11, 86408, Note_on_c, 9, 42, 17
11, 86445, Note_on_c, 9, 42, 0
11, 86465, Note_on_c, 9, 35, 0
11, 86465, Note_on_c, 9, 42, 17
11, 86505, Note_on_c, 9, 42, 0
11, 86525, Note_on_c, 9, 42, 17
11, 86527, Note_on_c, 9, 51, 66
11, 86557, Note_on_c, 9, 51, 0
11, 86565, Note_on_c, 9, 42, 0
11, 86585, Note_on_c, 9, 42, 17
11, 86597, Note_on_c, 9, 51, 29
11, 86598, Note_on_c, 9, 51, 0
11, 86613, Note_on_c, 9, 42, 0
11, 86646, Note_on_c, 9, 38, 120
11, 86646, Note_on_c, 9, 42, 44
11, 86695, Note_on_c, 9, 42, 0
11, 86706, Note_on_c, 9, 38, 0
11, 86706, Note_on_c, 9, 42, 17
11, 86743, Note_on_c, 9, 42, 0
11, 86765, Note_on_c, 9, 42, 17
11, 86765, Note_on_c, 9, 51, 64
11, 86796, Note_on_c, 9, 51, 0
11, 86800, Note_on_c, 9, 42, 0
11, 86826, Note_on_c, 9, 42, 17
11, 86838, Note_on_c, 9, 51, 29
11, 86839, Note_on_c, 9, 51, 0
11, 86848, Note_on_c, 9, 42, 0
11, 86886, Note_on_c, 9, 42, 44
11, 86931, Note_on_c, 9, 42, 0
11, 86947, Note_on_c, 9, 42, 17
11, 86976, Note_on_c, 9, 42, 0
11, 87003, Note_on_c, 9, 51, 64
11, 87006, Note_on_c, 9, 42, 17
11, 87006, Note_on_c, 9, 35, 117
11, 87034, Note_on_c, 9, 51, 0
11, 87041, Note_on_c, 9, 42, 0
11, 87066, Note_on_c, 9, 35, 0
11, 87066, Note_on_c, 9, 42, 17
11, 87077, Note_on_c, 9, 51, 32
11, 87078, Note_on_c, 9, 51, 0
11, 87091, Note_on_c, 9, 42, 0
11, 87126, Note_on_c, 9, 38, 123
11, 87127, Note_on_c, 9, 42, 42
11, 87166, Note_on_c, 9, 42, 0
11, 87186, Note_on_c, 9, 38, 0
11, 87187, Note_on_c, 9, 42, 17
11, 87221, Note_on_c, 9, 42, 0
11, 87241, Note_on_c, 9, 51, 68
11, 87247, Note_on_c, 9, 42, 17
11, 87247, Note_on_c, 9, 35, 115
11, 87274, Note_on_c, 9, 51, 0
11, 87282, Note_on_c, 9, 42, 0
11, 87285, Note_on_c, 9, 35, 0
11, 87306, Note_on_c, 9, 42, 17
11, 87318, Note_on_c, 9, 51, 29
11, 87319, Note_on_c, 9, 51, 0
11, 87339, Note_on_c, 9, 42, 0
11, 87366, Note_on_c, 9, 35, 124
11, 87367, Note_on_c, 9, 42, 44
11, 87413, Note_on_c, 9, 42, 0
11, 87426, Note_on_c, 9, 35, 0
11, 87426, Note_on_c, 9, 42, 17
11, 87459, Note_on_c, 9, 42, 0
11, 87487, Note_on_c, 9, 42, 17
11, 87491, Note_on_c, 9, 51, 77
11, 87520, Note_on_c, 9, 51, 0
11, 87533, Note_on_c, 9, 42, 0
11, 87546, Note_on_c, 9, 42, 17
11, 87559, Note_on_c, 9, 51, 34
11, 87560, Note_on_c, 9, 51, 0
11, 87580, Note_on_c, 9, 42, 0
11, 87605, Note_on_c, 9, 38, 120
11, 87605, Note_on_c, 9, 42, 17
11, 87646, Note_on_c, 9, 42, 0
11, 87666, Note_on_c, 9, 38, 0
11, 87666, Note_on_c, 9, 42, 17
11, 87706, Note_on_c, 9, 42, 0
11, 87727, Note_on_c, 9, 42, 17
11, 87735, Note_on_c, 9, 51, 68
11, 87762, Note_on_c, 9, 51, 0
11, 87766, Note_on_c, 9, 42, 0
11, 87787, Note_on_c, 9, 42, 17
11, 87799, Note_on_c, 9, 51, 29
11, 87800, Note_on_c, 9, 51, 0
11, 87815, Note_on_c, 9, 42, 0
11, 87845, Note_on_c, 9, 42, 44
11, 87890, Note_on_c, 9, 42, 0
11, 87905, Note_on_c, 9, 42, 17
11, 87938, Note_on_c, 9, 42, 0
11, 87965, Note_on_c, 9, 35, 126
11, 87966, Note_on_c, 9, 42, 17
11, 87975, Note_on_c, 9, 51, 66
11, 88002, Note_on_c, 9, 51, 0
11, 88003, Note_on_c, 9, 42, 0
11, 88025, Note_on_c, 9, 35, 0
11, 88026, Note_on_c, 9, 42, 17
11, 88039, Note_on_c, 9, 51, 29
11, 88048, Note_on_c, 9, 42, 0
11, 88072, Note_on_c, 9, 51, 0
11, 88086, Note_on_c, 9, 38, 118
11, 88086, Note_on_c, 9, 42, 42
11, 88131, Note_on_c, 9, 42, 0
11, 88146, Note_on_c, 9, 38, 0
11, 88146, Note_on_c, 9, 42, 17
11, 88180, Note_on_c, 9, 42, 0
11, 88206, Note_on_c, 9, 42, 17
11, 88206, Note_on_c, 9, 51, 68
11, 88206, Note_on_c, 9, 35, 113
11, 88236, Note_on_c, 9, 51, 0
11, 88246, Note_on_c, 9, 35, 0
11, 88248, Note_on_c, 9, 42, 0
11, 88266, Note_on_c, 9, 42, 17
11, 88278, Note_on_c, 9, 51, 34
11, 88279, Note_on_c, 9, 51, 0
11, 88294, Note_on_c, 9, 42, 0
11, 88328, Note_on_c, 9, 42, 42
11, 88328, Note_on_c, 9, 35, 127
11, 88372, Note_on_c, 9, 42, 0
11, 88386, Note_on_c, 9, 35, 0
11, 88386, Note_on_c, 9, 42, 17
11, 88420, Note_on_c, 9, 42, 0
11, 88443, Note_on_c, 9, 51, 46
11, 88446, Note_on_c, 9, 42, 17
11, 88475, Note_on_c, 9, 51, 0
11, 88481, Note_on_c, 9, 42, 0
11, 88505, Note_on_c, 9, 42, 17
11, 88518, Note_on_c, 9, 51, 29
11, 88519, Note_on_c, 9, 51, 0
11, 88536, Note_on_c, 9, 42, 0
11, 88566, Note_on_c, 9, 38, 120
11, 88567, Note_on_c, 9, 42, 17
11, 88606, Note_on_c, 9, 42, 0
11, 88627, Note_on_c, 9, 38, 0
11, 88627, Note_on_c, 9, 42, 17
11, 88666, Note_on_c, 9, 42, 0
11, 88684, Note_on_c, 9, 51, 71
11, 88686, Note_on_c, 9, 42, 17
11, 88715, Note_on_c, 9, 51, 0
11, 88731, Note_on_c, 9, 42, 0
11, 88746, Note_on_c, 9, 42, 17
11, 88758, Note_on_c, 9, 51, 29
11, 88759, Note_on_c, 9, 51, 0
11, 88776, Note_on_c, 9, 42, 0
11, 88806, Note_on_c, 9, 42, 26
11, 88850, Note_on_c, 9, 42, 0
11, 88867, Note_on_c, 9, 42, 17
11, 88893, Note_on_c, 9, 42, 0
11, 88926, Note_on_c, 9, 42, 17
11, 88926, Note_on_c, 9, 51, 58
11, 88926, Note_on_c, 9, 35, 120
11, 88956, Note_on_c, 9, 51, 0
11, 88968, Note_on_c, 9, 42, 0
11, 88986, Note_on_c, 9, 35, 0
11, 88986, Note_on_c, 9, 42, 17
11, 88998, Note_on_c, 9, 51, 29
11, 88999, Note_on_c, 9, 51, 0
11, 89014, Note_on_c, 9, 42, 0
11, 89045, Note_on_c, 9, 38, 118
11, 89045, Note_on_c, 9, 42, 31
11, 89091, Note_on_c, 9, 42, 0
11, 89106, Note_on_c, 9, 38, 0
11, 89106, Note_on_c, 9, 42, 17
11, 89138, Note_on_c, 9, 42, 0
11, 89167, Note_on_c, 9, 42, 17
11, 89167, Note_on_c, 9, 35, 115
11, 89171, Note_on_c, 9, 51, 68
11, 89206, Note_on_c, 9, 35, 0
11, 89212, Note_on_c, 9, 42, 0
11, 89226, Note_on_c, 9, 42, 26
11, 89229, Note_on_c, 9, 51, 0
11, 89251, Note_on_c, 9, 42, 0
11, 89287, Note_on_c, 9, 35, 127
11, 89288, Note_on_c, 9, 42, 36
11, 89288, Note_on_c, 9, 49, 68
11, 89325, Note_on_c, 9, 49, 0
11, 89331, Note_on_c, 9, 42, 0
11, 89345, Note_on_c, 9, 35, 0
11, 89346, Note_on_c, 9, 42, 17
11, 89379, Note_on_c, 9, 42, 0
11, 89407, Note_on_c, 9, 42, 19
11, 89411, Note_on_c, 9, 51, 59
11, 89440, Note_on_c, 9, 51, 0
11, 89446, Note_on_c, 9, 42, 0
11, 89467, Note_on_c, 9, 42, 17
11, 89480, Note_on_c, 9, 51, 29
11, 89481, Note_on_c, 9, 51, 0
11, 89499, Note_on_c, 9, 42, 0
11, 89526, Note_on_c, 9, 38, 123
11, 89526, Note_on_c, 9, 42, 44
11, 89581, Note_on_c, 9, 42, 0
11, 89586, Note_on_c, 9, 38, 0
11, 89586, Note_on_c, 9, 42, 17
11, 89625, Note_on_c, 9, 42, 0
11, 89646, Note_on_c, 9, 42, 17
11, 89646, Note_on_c, 9, 51, 68
11, 89676, Note_on_c, 9, 51, 0
11, 89700, Note_on_c, 9, 42, 0
11, 89707, Note_on_c, 9, 42, 17
11, 89720, Note_on_c, 9, 51, 29
11, 89738, Note_on_c, 9, 42, 0
11, 89746, Note_on_c, 9, 51, 0
11, 89767, Note_on_c, 9, 42, 17
11, 89806, Note_on_c, 9, 42, 0
11, 89825, Note_on_c, 9, 42, 17
11, 89866, Note_on_c, 9, 42, 0
11, 89879, Note_on_c, 9, 51, 61
11, 89886, Note_on_c, 9, 42, 17
11, 89886, Note_on_c, 9, 35, 115
11, 89912, Note_on_c, 9, 51, 0
11, 89926, Note_on_c, 9, 42, 0
11, 89946, Note_on_c, 9, 35, 0
11, 89946, Note_on_c, 9, 42, 17
11, 89959, Note_on_c, 9, 51, 29
11, 89982, Note_on_c, 9, 42, 0
11, 89988, Note_on_c, 9, 51, 0
11, 90007, Note_on_c, 9, 38, 123
11, 90007, Note_on_c, 9, 42, 46
11, 90055, Note_on_c, 9, 42, 0
11, 90066, Note_on_c, 9, 38, 0
11, 90066, Note_on_c, 9, 42, 17
11, 90098, Note_on_c, 9, 42, 0
11, 90118, Note_on_c, 9, 51, 68
11, 90126, Note_on_c, 9, 35, 112
11, 90127, Note_on_c, 9, 42, 17
11, 90152, Note_on_c, 9, 51, 0
11, 90161, Note_on_c, 9, 42, 0
11, 90166, Note_on_c, 9, 35, 0
11, 90185, Note_on_c, 9, 42, 17
11, 90199, Note_on_c, 9, 51, 29
11, 90200, Note_on_c, 9, 51, 0
11, 90217, Note_on_c, 9, 42, 0
11, 90245, Note_on_c, 9, 35, 124
11, 90247, Note_on_c, 9, 42, 44
11, 90291, Note_on_c, 9, 42, 0
11, 90307, Note_on_c, 9, 35, 0
11, 90307, Note_on_c, 9, 42, 17
11, 90341, Note_on_c, 9, 42, 0
11, 90363, Note_on_c, 9, 51, 66
11, 90366, Note_on_c, 9, 42, 17
11, 90395, Note_on_c, 9, 51, 0
11, 90401, Note_on_c, 9, 42, 0
11, 90425, Note_on_c, 9, 42, 17
11, 90438, Note_on_c, 9, 51, 29
11, 90439, Note_on_c, 9, 51, 0
11, 90455, Note_on_c, 9, 42, 0
11, 90486, Note_on_c, 9, 38, 123
11, 90486, Note_on_c, 9, 42, 17
11, 90526, Note_on_c, 9, 42, 0
11, 90545, Note_on_c, 9, 38, 0
11, 90546, Note_on_c, 9, 42, 17
11, 90587, Note_on_c, 9, 42, 0
11, 90604, Note_on_c, 9, 51, 68
11, 90607, Note_on_c, 9, 42, 17
11, 90635, Note_on_c, 9, 51, 0
11, 90641, Note_on_c, 9, 42, 0
11, 90666, Note_on_c, 9, 42, 17
11, 90677, Note_on_c, 9, 51, 29
11, 90678, Note_on_c, 9, 51, 0
11, 90691, Note_on_c, 9, 42, 0
11, 90726, Note_on_c, 9, 42, 44
11, 90770, Note_on_c, 9, 42, 0
11, 90786, Note_on_c, 9, 42, 17
11, 90816, Note_on_c, 9, 42, 0
11, 90847, Note_on_c, 9, 42, 17
11, 90847, Note_on_c, 9, 51, 68
11, 90847, Note_on_c, 9, 35, 117
11, 90877, Note_on_c, 9, 51, 0
11, 90880, Note_on_c, 9, 42, 0
11, 90906, Note_on_c, 9, 35, 0
11, 90906, Note_on_c, 9, 42, 17
11, 90919, Note_on_c, 9, 51, 36
11, 90920, Note_on_c, 9, 51, 0
11, 90936, Note_on_c, 9, 42, 0
11, 90966, Note_on_c, 9, 38, 123
11, 90966, Note_on_c, 9, 42, 44
11, 91011, Note_on_c, 9, 42, 0
11, 91026, Note_on_c, 9, 38, 0
11, 91026, Note_on_c, 9, 42, 17
11, 91059, Note_on_c, 9, 42, 0
11, 91086, Note_on_c, 9, 35, 109
11, 91087, Note_on_c, 9, 42, 17
11, 91088, Note_on_c, 9, 51, 64
11, 91118, Note_on_c, 9, 51, 0
11, 91120, Note_on_c, 9, 42, 0
11, 91127, Note_on_c, 9, 35, 0
11, 91147, Note_on_c, 9, 42, 17
11, 91158, Note_on_c, 9, 51, 29
11, 91159, Note_on_c, 9, 51, 0
11, 91186, Note_on_c, 9, 42, 0
11, 91207, Note_on_c, 9, 42, 17
11, 91208, Note_on_c, 9, 35, 126
11, 91246, Note_on_c, 9, 42, 0
11, 91265, Note_on_c, 9, 35, 0
11, 91265, Note_on_c, 9, 42, 17
11, 91295, Note_on_c, 9, 42, 0
11, 91326, Note_on_c, 9, 42, 17
11, 91328, Note_on_c, 9, 51, 64
11, 91358, Note_on_c, 9, 51, 0
11, 91361, Note_on_c, 9, 42, 0
11, 91386, Note_on_c, 9, 42, 17
11, 91399, Note_on_c, 9, 51, 29
11, 91412, Note_on_c, 9, 51, 0
11, 91420, Note_on_c, 9, 42, 0
11, 91445, Note_on_c, 9, 42, 46
11, 91446, Note_on_c, 9, 38, 120
11, 91491, Note_on_c, 9, 42, 0
11, 91506, Note_on_c, 9, 38, 0
11, 91506, Note_on_c, 9, 42, 17
11, 91535, Note_on_c, 9, 42, 0
11, 91566, Note_on_c, 9, 42, 17
11, 91571, Note_on_c, 9, 51, 68
11, 91600, Note_on_c, 9, 51, 0
11, 91600, Note_on_c, 9, 42, 0
11, 91626, Note_on_c, 9, 42, 17
11, 91640, Note_on_c, 9, 51, 29
11, 91651, Note_on_c, 9, 42, 0
11, 91656, Note_on_c, 9, 51, 0
11, 91687, Note_on_c, 9, 42, 46
11, 91730, Note_on_c, 9, 42, 0
11, 91745, Note_on_c, 9, 42, 17
11, 91781, Note_on_c, 9, 42, 0
11, 91800, Note_on_c, 9, 51, 64
11, 91806, Note_on_c, 9, 42, 17
11, 91806, Note_on_c, 9, 35, 126
11, 91833, Note_on_c, 9, 51, 0
11, 91838, Note_on_c, 9, 42, 0
11, 91866, Note_on_c, 9, 35, 0
11, 91866, Note_on_c, 9, 42, 17
11, 91877, Note_on_c, 9, 51, 29
11, 91878, Note_on_c, 9, 51, 0
11, 91895, Note_on_c, 9, 42, 0
11, 91926, Note_on_c, 9, 38, 120
11, 91927, Note_on_c, 9, 42, 46
11, 91974, Note_on_c, 9, 42, 0
11, 91987, Note_on_c, 9, 38, 0
11, 91987, Note_on_c, 9, 42, 17
11, 92021, Note_on_c, 9, 42, 0
11, 92038, Note_on_c, 9, 51, 68
11, 92045, Note_on_c, 9, 42, 17
11, 92045, Note_on_c, 9, 35, 114
11, 92072, Note_on_c, 9, 51, 0
11, 92075, Note_on_c, 9, 42, 0
11, 92086, Note_on_c, 9, 35, 0
11, 92106, Note_on_c, 9, 42, 17
11, 92118, Note_on_c, 9, 51, 29
11, 92119, Note_on_c, 9, 51, 0
11, 92133, Note_on_c, 9, 42, 0
11, 92165, Note_on_c, 9, 35, 126
11, 92167, Note_on_c, 9, 42, 46
11, 92211, Note_on_c, 9, 42, 0
11, 92226, Note_on_c, 9, 35, 0
11, 92226, Note_on_c, 9, 42, 17
11, 92258, Note_on_c, 9, 42, 0
11, 92278, Note_on_c, 9, 51, 68
11, 92285, Note_on_c, 9, 42, 17
11, 92312, Note_on_c, 9, 51, 0
11, 92318, Note_on_c, 9, 42, 0
11, 92345, Note_on_c, 9, 42, 17
11, 92358, Note_on_c, 9, 51, 29
11, 92359, Note_on_c, 9, 51, 0
11, 92376, Note_on_c, 9, 42, 0
11, 92405, Note_on_c, 9, 38, 120
11, 92405, Note_on_c, 9, 42, 49
11, 92453, Note_on_c, 9, 42, 0
11, 92466, Note_on_c, 9, 38, 0
11, 92467, Note_on_c, 9, 42, 17
11, 92500, Note_on_c, 9, 42, 0
11, 92525, Note_on_c, 9, 42, 19
11, 92531, Note_on_c, 9, 51, 71
11, 92559, Note_on_c, 9, 51, 0
11, 92561, Note_on_c, 9, 42, 0
11, 92585, Note_on_c, 9, 42, 17
11, 92598, Note_on_c, 9, 51, 29
11, 92599, Note_on_c, 9, 51, 0
11, 92621, Note_on_c, 9, 42, 0
11, 92646, Note_on_c, 9, 42, 17
11, 92685, Note_on_c, 9, 42, 0
11, 92706, Note_on_c, 9, 42, 17
11, 92746, Note_on_c, 9, 42, 0
11, 92766, Note_on_c, 9, 42, 17
11, 92766, Note_on_c, 9, 51, 68
11, 92766, Note_on_c, 9, 35, 110
11, 92796, Note_on_c, 9, 51, 0
11, 92808, Note_on_c, 9, 42, 0
11, 92826, Note_on_c, 9, 35, 0
11, 92826, Note_on_c, 9, 42, 17
11, 92838, Note_on_c, 9, 51, 30
11, 92839, Note_on_c, 9, 51, 0
11, 92858, Note_on_c, 9, 42, 0
11, 92886, Note_on_c, 9, 38, 120
11, 92886, Note_on_c, 9, 42, 17
11, 92926, Note_on_c, 9, 42, 0
11, 92944, Note_on_c, 9, 38, 0
11, 92946, Note_on_c, 9, 42, 17
11, 92987, Note_on_c, 9, 42, 0
11, 93007, Note_on_c, 9, 42, 17
11, 93007, Note_on_c, 9, 35, 113
11, 93010, Note_on_c, 9, 51, 68
11, 93039, Note_on_c, 9, 51, 0
11, 93044, Note_on_c, 9, 42, 0
11, 93047, Note_on_c, 9, 35, 0
11, 93066, Note_on_c, 9, 42, 17
11, 93078, Note_on_c, 9, 51, 29
11, 93079, Note_on_c, 9, 51, 0
11, 93094, Note_on_c, 9, 42, 0
11, 93127, Note_on_c, 9, 42, 46
11, 93127, Note_on_c, 9, 35, 124
11, 93176, Note_on_c, 9, 42, 0
11, 93186, Note_on_c, 9, 35, 0
11, 93186, Note_on_c, 9, 42, 17
11, 93221, Note_on_c, 9, 42, 0
11, 93247, Note_on_c, 9, 42, 17
11, 93254, Note_on_c, 9, 51, 66
11, 93281, Note_on_c, 9, 51, 0
11, 93284, Note_on_c, 9, 42, 0
11, 93307, Note_on_c, 9, 42, 17
11, 93320, Note_on_c, 9, 51, 29
11, 93321, Note_on_c, 9, 51, 0
11, 93339, Note_on_c, 9, 42, 0
11, 93366, Note_on_c, 9, 38, 123
11, 93366, Note_on_c, 9, 42, 17
11, 93406, Note_on_c, 9, 42, 0
11, 93426, Note_on_c, 9, 38, 0
11, 93426, Note_on_c, 9, 42, 17
11, 93466, Note_on_c, 9, 42, 0
11, 93486, Note_on_c, 9, 42, 17
11, 93501, Note_on_c, 9, 51, 68
11, 93524, Note_on_c, 9, 42, 0
11, 93525, Note_on_c, 9, 51, 0
11, 93546, Note_on_c, 9, 42, 17
11, 93560, Note_on_c, 9, 51, 29
11, 93574, Note_on_c, 9, 42, 0
11, 93580, Note_on_c, 9, 51, 0
11, 93607, Note_on_c, 9, 42, 44
11, 93648, Note_on_c, 9, 42, 0
11, 93666, Note_on_c, 9, 42, 21
11, 93701, Note_on_c, 9, 42, 0
11, 93726, Note_on_c, 9, 42, 17
11, 93727, Note_on_c, 9, 35, 126
11, 93743, Note_on_c, 9, 51, 74
11, 93763, Note_on_c, 9, 42, 0
11, 93767, Note_on_c, 9, 51, 0
11, 93785, Note_on_c, 9, 35, 0
11, 93787, Note_on_c, 9, 42, 17
11, 93799, Note_on_c, 9, 51, 29
11, 93800, Note_on_c, 9, 51, 0
11, 93811, Note_on_c, 9, 42, 0
11, 93847, Note_on_c, 9, 38, 123
11, 93847, Note_on_c, 9, 42, 44
11, 93892, Note_on_c, 9, 42, 0
11, 93906, Note_on_c, 9, 38, 0
11, 93906, Note_on_c, 9, 42, 17
11, 93938, Note_on_c, 9, 42, 0
11, 93966, Note_on_c, 9, 42, 17
11, 93966, Note_on_c, 9, 35, 112
11, 93973, Note_on_c, 9, 51, 64
11, 94000, Note_on_c, 9, 51, 0
11, 94003, Note_on_c, 9, 42, 0
11, 94005, Note_on_c, 9, 35, 0
11, 94025, Note_on_c, 9, 42, 17
11, 94038, Note_on_c, 9, 51, 29
11, 94039, Note_on_c, 9, 51, 0
11, 94054, Note_on_c, 9, 42, 0
11, 94087, Note_on_c, 9, 42, 17
11, 94087, Note_on_c, 9, 35, 126
11, 94125, Note_on_c, 9, 42, 0
11, 94146, Note_on_c, 9, 35, 0
11, 94147, Note_on_c, 9, 42, 17
11, 94186, Note_on_c, 9, 42, 0
11, 94205, Note_on_c, 9, 42, 17
11, 94206, Note_on_c, 9, 51, 61
11, 94236, Note_on_c, 9, 51, 0
11, 94246, Note_on_c, 9, 42, 0
11, 94266, Note_on_c, 9, 42, 17
11, 94278, Note_on_c, 9, 51, 29
11, 94279, Note_on_c, 9, 51, 0
11, 94293, Note_on_c, 9, 42, 0
11, 94326, Note_on_c, 9, 38, 120
11, 94326, Note_on_c, 9, 42, 44
11, 94373, Note_on_c, 9, 42, 0
11, 94387, Note_on_c, 9, 38, 0
11, 94387, Note_on_c, 9, 42, 17
11, 94423, Note_on_c, 9, 42, 0
11, 94447, Note_on_c, 9, 42, 17
11, 94462, Note_on_c, 9, 51, 68
11, 94481, Note_on_c, 9, 42, 0
11, 94486, Note_on_c, 9, 51, 0
11, 94505, Note_on_c, 9, 42, 17
11, 94518, Note_on_c, 9, 51, 34
11, 94519, Note_on_c, 9, 51, 0
11, 94528, Note_on_c, 9, 42, 0
11, 94566, Note_on_c, 9, 42, 44
11, 94610, Note_on_c, 9, 42, 0
11, 94626, Note_on_c, 9, 42, 17
11, 94655, Note_on_c, 9, 42, 0
11, 94687, Note_on_c, 9, 42, 17
11, 94687, Note_on_c, 9, 35, 117
11, 94700, Note_on_c, 9, 51, 66
11, 94722, Note_on_c, 9, 42, 0
11, 94724, Note_on_c, 9, 51, 0
11, 94746, Note_on_c, 9, 35, 0
11, 94746, Note_on_c, 9, 42, 17
11, 94758, Note_on_c, 9, 51, 29
11, 94759, Note_on_c, 9, 51, 0
11, 94771, Note_on_c, 9, 42, 0
11, 94805, Note_on_c, 9, 38, 123
11, 94805, Note_on_c, 9, 42, 42
11, 94846, Note_on_c, 9, 42, 0
11, 94866, Note_on_c, 9, 38, 0
11, 94866, Note_on_c, 9, 42, 17
11, 94901, Note_on_c, 9, 42, 0
11, 94926, Note_on_c, 9, 35, 115
11, 94927, Note_on_c, 9, 42, 17
11, 94927, Note_on_c, 9, 51, 71
11, 94963, Note_on_c, 9, 42, 0
11, 94965, Note_on_c, 9, 35, 0
11, 94986, Note_on_c, 9, 51, 0
11, 94987, Note_on_c, 9, 42, 17
11, 95019, Note_on_c, 9, 42, 0
11, 95045, Note_on_c, 9, 42, 44
11, 95045, Note_on_c, 9, 35, 124
11, 95093, Note_on_c, 9, 42, 0
11, 95105, Note_on_c, 9, 35, 0
11, 95105, Note_on_c, 9, 42, 17
11, 95138, Note_on_c, 9, 42, 0
11, 95165, Note_on_c, 9, 42, 17
11, 95168, Note_on_c, 9, 51, 43
11, 95198, Note_on_c, 9, 51, 0
11, 95210, Note_on_c, 9, 42, 0
11, 95225, Note_on_c, 9, 42, 17
11, 95239, Note_on_c, 9, 51, 29
11, 95257, Note_on_c, 9, 51, 0
11, 95260, Note_on_c, 9, 42, 0
11, 95286, Note_on_c, 9, 38, 120
11, 95286, Note_on_c, 9, 42, 17
11, 95325, Note_on_c, 9, 42, 0
11, 95345, Note_on_c, 9, 38, 0
11, 95345, Note_on_c, 9, 42, 17
11, 95386, Note_on_c, 9, 42, 0
11, 95403, Note_on_c, 9, 51, 66
11, 95405, Note_on_c, 9, 42, 17
11, 95434, Note_on_c, 9, 51, 0
11, 95446, Note_on_c, 9, 42, 0
11, 95466, Note_on_c, 9, 42, 17
11, 95477, Note_on_c, 9, 51, 29
11, 95478, Note_on_c, 9, 51, 0
11, 95496, Note_on_c, 9, 42, 0
11, 95526, Note_on_c, 9, 42, 44
11, 95572, Note_on_c, 9, 42, 0
11, 95586, Note_on_c, 9, 42, 17
11, 95618, Note_on_c, 9, 42, 0
11, 95646, Note_on_c, 9, 42, 17
11, 95646, Note_on_c, 9, 35, 126
11, 95656, Note_on_c, 9, 51, 53
11, 95682, Note_on_c, 9, 51, 0
11, 95682, Note_on_c, 9, 42, 0
11, 95706, Note_on_c, 9, 35, 0
11, 95706, Note_on_c, 9, 42, 17
11, 95719, Note_on_c, 9, 51, 29
11, 95720, Note_on_c, 9, 51, 0
11, 95728, Note_on_c, 9, 42, 0
11, 95767, Note_on_c, 9, 38, 118
11, 95767, Note_on_c, 9, 42, 42
11, 95811, Note_on_c, 9, 42, 0
11, 95826, Note_on_c, 9, 38, 0
11, 95827, Note_on_c, 9, 42, 17
11, 95862, Note_on_c, 9, 42, 0
11, 95886, Note_on_c, 9, 42, 17
11, 95886, Note_on_c, 9, 35, 113
11, 95890, Note_on_c, 9, 51, 79
11, 95919, Note_on_c, 9, 51, 0
11, 95926, Note_on_c, 9, 35, 0
11, 95928, Note_on_c, 9, 42, 0
11, 95946, Note_on_c, 9, 42, 17
11, 95958, Note_on_c, 9, 51, 29
11, 95959, Note_on_c, 9, 51, 0
11, 95973, Note_on_c, 9, 42, 0
11, 96007, Note_on_c, 9, 35, 127
11, 96008, Note_on_c, 9, 42, 42
11, 96051, Note_on_c, 9, 42, 0
11, 96066, Note_on_c, 9, 35, 0
11, 96066, Note_on_c, 9, 42, 17
11, 96099, Note_on_c, 9, 42, 0
11, 96125, Note_on_c, 9, 51, 61
11, 96127, Note_on_c, 9, 42, 17
11, 96156, Note_on_c, 9, 51, 0
11, 96161, Note_on_c, 9, 42, 0
11, 96186, Note_on_c, 9, 42, 17
11, 96198, Note_on_c, 9, 51, 29
11, 96199, Note_on_c, 9, 51, 0
11, 96216, Note_on_c, 9, 42, 0
11, 96246, Note_on_c, 9, 38, 120
11, 96247, Note_on_c, 9, 42, 17
11, 96286, Note_on_c, 9, 42, 0
11, 96306, Note_on_c, 9, 38, 0
11, 96307, Note_on_c, 9, 42, 17
11, 96346, Note_on_c, 9, 42, 0
11, 96367, Note_on_c, 9, 42, 17
11, 96379, Note_on_c, 9, 51, 68
11, 96404, Note_on_c, 9, 51, 0
11, 96412, Note_on_c, 9, 42, 0
11, 96426, Note_on_c, 9, 42, 17
11, 96439, Note_on_c, 9, 51, 29
11, 96440, Note_on_c, 9, 51, 0
11, 96456, Note_on_c, 9, 42, 0
11, 96486, Note_on_c, 9, 42, 26
11, 96531, Note_on_c, 9, 42, 0
11, 96546, Note_on_c, 9, 42, 17
11, 96573, Note_on_c, 9, 42, 0
11, 96605, Note_on_c, 9, 35, 120
11, 96607, Note_on_c, 9, 42, 17
11, 96611, Note_on_c, 9, 51, 77
11, 96640, Note_on_c, 9, 51, 0
11, 96648, Note_on_c, 9, 42, 0
11, 96667, Note_on_c, 9, 35, 0
11, 96667, Note_on_c, 9, 42, 17
11, 96679, Note_on_c, 9, 51, 29
11, 96680, Note_on_c, 9, 51, 0
11, 96695, Note_on_c, 9, 42, 0
11, 96726, Note_on_c, 9, 38, 118
11, 96726, Note_on_c, 9, 42, 31
11, 96770, Note_on_c, 9, 42, 0
11, 96786, Note_on_c, 9, 38, 0
11, 96786, Note_on_c, 9, 42, 17
11, 96818, Note_on_c, 9, 42, 0
11, 96845, Note_on_c, 9, 42, 17
11, 96845, Note_on_c, 9, 35, 115
11, 96851, Note_on_c, 9, 51, 74
11, 96885, Note_on_c, 9, 35, 0
11, 96890, Note_on_c, 9, 42, 0
11, 96895, Note_on_c, 9, 51, 0
11, 96908, Note_on_c, 9, 42, 26
11, 96931, Note_on_c, 9, 42, 0
11, 96967, Note_on_c, 9, 42, 51
11, 96967, Note_on_c, 9, 35, 124
11, 97001, Note_on_c, 9, 42, 0
11, 97026, Note_on_c, 9, 35, 0
11, 97086, Note_on_c, 9, 42, 84
11, 97146, Note_on_c, 9, 46, 76
11, 97149, Note_on_c, 9, 42, 0
11, 97158, Note_on_c, 9, 46, 0
11, 97206, Note_on_c, 9, 42, 51
11, 97207, Note_on_c, 9, 38, 123
11, 97250, Note_on_c, 9, 42, 0
11, 97266, Note_on_c, 9, 38, 0
11, 97326, Note_on_c, 9, 42, 88
11, 97385, Note_on_c, 9, 46, 71
11, 97390, Note_on_c, 9, 42, 0
11, 97400, Note_on_c, 9, 46, 0
11, 97445, Note_on_c, 9, 42, 47
11, 97475, Note_on_c, 9, 42, 0
11, 97565, Note_on_c, 9, 42, 88
11, 97565, Note_on_c, 9, 35, 117
11, 97622, Note_on_c, 9, 42, 0
11, 97625, Note_on_c, 9, 35, 0
11, 97685, Note_on_c, 9, 42, 51
11, 97686, Note_on_c, 9, 38, 123
11, 97708, Note_on_c, 9, 42, 0
11, 97745, Note_on_c, 9, 38, 0
11, 97807, Note_on_c, 9, 42, 77
11, 97865, Note_on_c, 9, 42, 0
11, 97865, Note_on_c, 9, 42, 41
11, 97866, Note_on_c, 9, 42, 0
11, 97925, Note_on_c, 9, 42, 49
11, 97925, Note_on_c, 9, 35, 126
11, 97946, Note_on_c, 9, 42, 0
11, 97986, Note_on_c, 9, 35, 0
11, 98046, Note_on_c, 9, 42, 81
11, 98106, Note_on_c, 9, 46, 71
11, 98108, Note_on_c, 9, 42, 0
11, 98118, Note_on_c, 9, 46, 0
11, 98165, Note_on_c, 9, 38, 120
11, 98165, Note_on_c, 9, 42, 51
11, 98183, Note_on_c, 9, 42, 0
11, 98226, Note_on_c, 9, 38, 0
11, 98285, Note_on_c, 9, 42, 67
11, 98345, Note_on_c, 9, 46, 72
11, 98353, Note_on_c, 9, 42, 0
11, 98359, Note_on_c, 9, 46, 0
11, 98405, Note_on_c, 9, 42, 46
11, 98440, Note_on_c, 9, 42, 0
11, 98525, Note_on_c, 9, 42, 84
11, 98525, Note_on_c, 9, 35, 126
11, 98585, Note_on_c, 9, 42, 0
11, 98587, Note_on_c, 9, 35, 0
11, 98587, Note_on_c, 9, 42, 31
11, 98598, Note_on_c, 9, 42, 0
11, 98647, Note_on_c, 9, 38, 120
11, 98647, Note_on_c, 9, 42, 47
11, 98668, Note_on_c, 9, 42, 0
11, 98706, Note_on_c, 9, 38, 0
11, 98766, Note_on_c, 9, 42, 69
11, 98820, Note_on_c, 9, 42, 0
11, 98825, Note_on_c, 9, 42, 33
11, 98836, Note_on_c, 9, 42, 0
11, 98887, Note_on_c, 9, 42, 46
11, 98887, Note_on_c, 9, 35, 126
11, 98903, Note_on_c, 9, 42, 0
11, 98946, Note_on_c, 9, 35, 0
11, 99006, Note_on_c, 9, 42, 90
11, 99066, Note_on_c, 9, 46, 75
11, 99075, Note_on_c, 9, 46, 0
11, 99109, Note_on_c, 9, 42, 0
11, 99125, Note_on_c, 9, 38, 120
11, 99125, Note_on_c, 9, 42, 46
11, 99156, Note_on_c, 9, 42, 0
11, 99185, Note_on_c, 9, 38, 0
11, 99246, Note_on_c, 9, 42, 66
11, 99306, Note_on_c, 9, 46, 69
11, 99321, Note_on_c, 9, 46, 0
11, 99363, Note_on_c, 9, 42, 0
11, 99366, Note_on_c, 9, 42, 46
11, 99396, Note_on_c, 9, 42, 0
11, 99487, Note_on_c, 9, 42, 88
11, 99487, Note_on_c, 9, 35, 110
11, 99546, Note_on_c, 9, 35, 0
11, 99546, Note_on_c, 9, 42, 0
11, 99546, Note_on_c, 9, 42, 28
11, 99547, Note_on_c, 9, 42, 0
11, 99606, Note_on_c, 9, 38, 120
11, 99606, Note_on_c, 9, 42, 46
11, 99633, Note_on_c, 9, 42, 0
11, 99666, Note_on_c, 9, 38, 0
11, 99726, Note_on_c, 9, 42, 67
11, 99777, Note_on_c, 9, 42, 0
11, 99845, Note_on_c, 9, 42, 31
11, 99847, Note_on_c, 9, 35, 124
11, 99883, Note_on_c, 9, 42, 0
11, 99906, Note_on_c, 9, 35, 0
11, 99966, Note_on_c, 9, 42, 88
11, 100026, Note_on_c, 9, 42, 0
11, 100027, Note_on_c, 9, 42, 37
11, 100039, Note_on_c, 9, 42, 0
11, 100085, Note_on_c, 9, 38, 123
11, 100085, Note_on_c, 9, 42, 55
11, 100118, Note_on_c, 9, 42, 0
11, 100145, Note_on_c, 9, 38, 0
11, 100206, Note_on_c, 9, 42, 63
11, 100266, Note_on_c, 9, 46, 75
11, 100276, Note_on_c, 9, 46, 0
11, 100278, Note_on_c, 9, 42, 0
11, 100327, Note_on_c, 9, 42, 49
11, 100358, Note_on_c, 9, 42, 0
11, 100445, Note_on_c, 9, 42, 86
11, 100445, Note_on_c, 9, 35, 126
11, 100505, Note_on_c, 9, 42, 0
11, 100507, Note_on_c, 9, 35, 0
11, 100507, Note_on_c, 9, 42, 37
11, 100526, Note_on_c, 9, 42, 0
11, 100566, Note_on_c, 9, 42, 39
11, 100567, Note_on_c, 9, 38, 123
11, 100597, Note_on_c, 9, 42, 0
11, 100626, Note_on_c, 9, 38, 0
11, 100686, Note_on_c, 9, 42, 75
11, 100746, Note_on_c, 9, 42, 0
11, 100746, Note_on_c, 9, 42, 30
11, 100747, Note_on_c, 9, 42, 0
11, 100805, Note_on_c, 9, 42, 51
11, 100806, Note_on_c, 9, 35, 126
11, 100841, Note_on_c, 9, 42, 0
11, 100866, Note_on_c, 9, 35, 0
11, 100926, Note_on_c, 9, 42, 86
11, 100986, Note_on_c, 9, 46, 68
11, 100998, Note_on_c, 9, 46, 0
11, 101023, Note_on_c, 9, 42, 0
11, 101046, Note_on_c, 9, 38, 120
11, 101046, Note_on_c, 9, 42, 51
11, 101081, Note_on_c, 9, 42, 0
11, 101107, Note_on_c, 9, 38, 0
11, 101166, Note_on_c, 9, 42, 66
11, 101226, Note_on_c, 9, 46, 66
11, 101243, Note_on_c, 9, 46, 0
11, 101273, Note_on_c, 9, 42, 0
11, 101286, Note_on_c, 9, 42, 53
11, 101323, Note_on_c, 9, 42, 0
11, 101407, Note_on_c, 9, 42, 88
11, 101407, Note_on_c, 9, 35, 117
11, 101457, Note_on_c, 9, 42, 0
11, 101465, Note_on_c, 9, 35, 0
11, 101465, Note_on_c, 9, 42, 29
11, 101478, Note_on_c, 9, 42, 0
11, 101526, Note_on_c, 9, 38, 123
11, 101526, Note_on_c, 9, 42, 32
11, 101566, Note_on_c, 9, 42, 0
11, 101586, Note_on_c, 9, 38, 0
11, 101646, Note_on_c, 9, 42, 71
11, 101706, Note_on_c, 9, 42, 0
11, 101707, Note_on_c, 9, 42, 25
11, 101718, Note_on_c, 9, 42, 0
11, 101765, Note_on_c, 9, 42, 36
11, 101765, Note_on_c, 9, 35, 124
11, 101793, Note_on_c, 9, 42, 0
11, 101825, Note_on_c, 9, 35, 0
11, 101886, Note_on_c, 9, 42, 86
11, 101946, Note_on_c, 9, 46, 68
11, 101966, Note_on_c, 9, 46, 0
11, 101980, Note_on_c, 9, 42, 0
11, 102007, Note_on_c, 9, 38, 120
11, 102007, Note_on_c, 9, 42, 49
11, 102036, Note_on_c, 9, 42, 0
11, 102066, Note_on_c, 9, 38, 0
11, 102125, Note_on_c, 9, 42, 75
11, 102186, Note_on_c, 9, 46, 69
11, 102206, Note_on_c, 9, 46, 0
11, 102238, Note_on_c, 9, 42, 0
11, 102246, Note_on_c, 9, 42, 49
11, 102275, Note_on_c, 9, 42, 0
11, 102366, Note_on_c, 9, 42, 88
11, 102366, Note_on_c, 9, 35, 126
11, 102423, Note_on_c, 9, 42, 0
11, 102426, Note_on_c, 9, 35, 0
11, 102426, Note_on_c, 9, 42, 30
11, 102438, Note_on_c, 9, 42, 0
11, 102486, Note_on_c, 9, 38, 118
11, 102486, Note_on_c, 9, 42, 47
11, 102521, Note_on_c, 9, 42, 0
11, 102546, Note_on_c, 9, 38, 0
11, 102606, Note_on_c, 9, 42, 71
11, 102666, Note_on_c, 9, 42, 0
11, 102666, Note_on_c, 9, 42, 30
11, 102667, Note_on_c, 9, 42, 0
11, 102725, Note_on_c, 9, 42, 45
11, 102725, Note_on_c, 9, 35, 127
11, 102761, Note_on_c, 9, 42, 0
11, 102786, Note_on_c, 9, 35, 0
11, 102847, Note_on_c, 9, 42, 88
11, 102906, Note_on_c, 9, 46, 69
11, 102924, Note_on_c, 9, 46, 0
11, 102948, Note_on_c, 9, 42, 0
11, 102965, Note_on_c, 9, 38, 120
11, 102965, Note_on_c, 9, 42, 26
11, 103011, Note_on_c, 9, 42, 0
11, 103026, Note_on_c, 9, 38, 0
11, 103086, Note_on_c, 9, 42, 69
11, 103087, Note_on_c, 9, 35, 122
11, 103127, Note_on_c, 9, 35, 0
11, 103146, Note_on_c, 9, 46, 66
11, 103158, Note_on_c, 9, 46, 0
11, 103206, Note_on_c, 9, 38, 109
11, 103211, Note_on_c, 9, 42, 0
11, 103246, Note_on_c, 9, 38, 0
11, 103266, Note_on_c, 9, 38, 90
11, 103306, Note_on_c, 9, 38, 0
11, 103326, Note_on_c, 9, 48, 108
11, 103366, Note_on_c, 9, 48, 0
11, 103386, Note_on_c, 9, 48, 92
11, 103426, Note_on_c, 9, 48, 0
11, 103446, Note_on_c, 9, 45, 112
11, 103486, Note_on_c, 9, 45, 0
11, 103506, Note_on_c, 9, 41, 114
11, 103546, Note_on_c, 9, 41, 0
11, 103565, Note_on_c, 9, 41, 119
11, 103606, Note_on_c, 9, 41, 0
11, 103687, Note_on_c, 9, 49, 81
11, 103687, Note_on_c, 9, 35, 127
11, 103726, Note_on_c, 9, 49, 0
11, 103743, Note_on_c, 9, 35, 0
11, 103806, Note_on_c, 9, 38, 61
11, 103808, Note_on_c, 9, 38, 0
11, 103826, Note_on_c, 9, 38, 63
11, 103829, Note_on_c, 9, 38, 0
11, 103845, Note_on_c, 9, 38, 70
11, 103848, Note_on_c, 9, 38, 0
11, 103866, Note_on_c, 9, 38, 119
11, 103867, Note_on_c, 9, 35, 127
11, 103869, Note_on_c, 9, 38, 0
11, 103886, Note_on_c, 9, 38, 95
11, 103889, Note_on_c, 9, 38, 0
11, 103906, Note_on_c, 9, 35, 0
11, 104046, Note_on_c, 9, 49, 91
11, 104046, Note_on_c, 9, 35, 127
11, 104047, Control_c, 9, 91, 0
11, 104086, Note_on_c, 9, 35, 0
11, 104086, Note_on_c, 9, 49, 0
11, 104086, End_track
0, 0, End_of_file
