0, 0, Header, 1, 14, 192
1, 0, Start_track
1, 0, Sequencer_specific, 7, 5, 15, 18, 3, 3, 127, 127
1, 0, Sequencer_specific, 15, 5, 15, 28, 50, 48, 49, 51, 46, 48, 49, 46, 48, 50, 1, 1
1, 0, Sequencer_specific, 42, 5, 15, 45, 77, 105, 99, 114, 111, 115, 111, 102, 116, 32, 83, 97, 110, 115, 32, 83, 101, 114, 105, 102, 44, 56, 46, 50, 53, 44, 70, 97, 108, 115, 101, 44, 70, 97, 108, 115, 101, 44, 49
1, 0, Time_signature, 4, 2, 24, 8
1, 0, Tempo, 821917
1, 34752, Tempo, 909090
1, 34944, Tempo, 1071428
1, 35040, Tempo, 821917
1, 35136, End_track
2, 0, Start_track
2, 0, Sequencer_specific, 5, 5, 15, 9, 12, 64
2, 0, Sequencer_specific, 15, 5, 15, 6, 71, 101, 110, 101, 114, 97, 108, 32, 77, 73, 68, 73
2, 0, Title_t, "The Impressions ft Curtis Mayfield"
2, 0, Control_c, 1, 0, 0
2, 0, Program_c, 1, 32
2, 192, Control_c, 1, 121, 0
2, 327, Control_c, 1, 7, 126
2, 329, Control_c, 1, 10, 64
2, 331, Control_c, 1, 91, 0
2, 333, Control_c, 1, 93, 42
2, 336, Control_c, 1, 11, 127
2, 336, Pitch_bend_c, 1, 8192
2, 768, Note_on_c, 1, 37, 103
2, 1022, Note_off_c, 1, 37, 0
2, 1056, Note_on_c, 1, 34, 92
2, 1386, Note_off_c, 1, 34, 0
2, 1440, Note_on_c, 1, 34, 85
2, 1531, Note_off_c, 1, 34, 0
2, 1536, Note_on_c, 1, 32, 94
2, 1808, Note_off_c, 1, 32, 0
2, 1824, Note_on_c, 1, 37, 97
2, 2002, Note_off_c, 1, 37, 0
2, 2016, Note_on_c, 1, 41, 82
2, 2087, Note_off_c, 1, 41, 0
2, 2112, Note_on_c, 1, 44, 86
2, 2183, Note_off_c, 1, 44, 0
2, 2208, Note_on_c, 1, 49, 83
2, 2279, Note_off_c, 1, 49, 0
2, 2304, Note_on_c, 1, 37, 104
2, 2558, Note_off_c, 1, 37, 0
2, 2592, Note_on_c, 1, 34, 94
2, 2922, Note_off_c, 1, 34, 0
2, 2976, Note_on_c, 1, 34, 79
2, 3067, Note_off_c, 1, 34, 0
2, 3072, Note_on_c, 1, 32, 89
2, 3344, Note_off_c, 1, 32, 0
2, 3360, Note_on_c, 1, 37, 98
2, 3538, Note_off_c, 1, 37, 0
2, 3552, Note_on_c, 1, 41, 82
2, 3623, Note_off_c, 1, 41, 0
2, 3648, Note_on_c, 1, 44, 81
2, 3719, Note_off_c, 1, 44, 0
2, 3744, Note_on_c, 1, 49, 88
2, 3815, Note_off_c, 1, 49, 0
2, 3840, Note_on_c, 1, 37, 107
2, 4094, Note_off_c, 1, 37, 0
2, 4119, Text_t, "Peo"
2, 4128, Note_on_c, 1, 34, 96
2, 4186, Text_t, "ple "
2, 4239, Text_t, "get "
2, 4308, Text_t, "rea"
2, 4320, Note_on_c, 1, 46, 57
2, 4400, Note_off_c, 1, 46, 0
2, 4411, Note_off_c, 1, 34, 0
2, 4416, Note_on_c, 1, 41, 72
2, 4448, Text_t, "dy"
2, 4448, Text_t, "/"
2, 4496, Note_off_c, 1, 41, 0
2, 4507, Text_t, "there's "
2, 4512, Note_on_c, 1, 34, 81
2, 4555, Text_t, "a "
2, 4592, Note_off_c, 1, 34, 0
2, 4608, Note_on_c, 1, 32, 96
2, 4610, Text_t, "train "
2, 4784, Note_off_c, 1, 32, 0
2, 4791, Text_t, "a "
2, 4800, Note_on_c, 1, 32, 93
2, 4880, Note_off_c, 1, 32, 0
2, 4896, Note_on_c, 1, 37, 101
2, 4897, Text_t, "co"
2, 5074, Note_off_c, 1, 37, 0
2, 5081, Text_t, "min'"
2, 5081, Text_t, "/"
2, 5088, Note_on_c, 1, 41, 86
2, 5159, Note_off_c, 1, 41, 0
2, 5184, Note_on_c, 1, 44, 86
2, 5255, Note_off_c, 1, 44, 0
2, 5280, Note_on_c, 1, 49, 90
2, 5351, Note_off_c, 1, 49, 0
2, 5376, Note_on_c, 1, 37, 100
2, 5521, Text_t, "you "
2, 5574, Text_t, "don't "
2, 5626, Text_t, "need "
2, 5630, Note_off_c, 1, 37, 0
2, 5664, Note_on_c, 1, 34, 94
2, 5680, Text_t, "no "
2, 5744, Text_t, "bag"
2, 5850, Text_t, "gage"
2, 5850, Text_t, "/"
2, 5856, Note_on_c, 1, 46, 62
2, 5936, Note_off_c, 1, 46, 0
2, 5947, Note_off_c, 1, 34, 0
2, 5952, Note_on_c, 1, 41, 74
2, 6032, Note_off_c, 1, 41, 0
2, 6033, Text_t, "you "
2, 6048, Note_on_c, 1, 34, 79
2, 6077, Text_t, "just "
2, 6128, Note_off_c, 1, 34, 0
2, 6144, Note_on_c, 1, 32, 97
2, 6152, Text_t, "get "
2, 6248, Text_t, "on "
2, 6320, Note_off_c, 1, 32, 0
2, 6336, Note_on_c, 1, 32, 95
2, 6416, Note_off_c, 1, 32, 0
2, 6432, Note_on_c, 1, 37, 99
2, 6444, Text_t, "board"
2, 6444, Text_t, "/"
2, 6610, Note_off_c, 1, 37, 0
2, 6624, Note_on_c, 1, 41, 83
2, 6695, Note_off_c, 1, 41, 0
2, 6720, Note_on_c, 1, 44, 85
2, 6810, Note_off_c, 1, 44, 0
2, 6816, Note_on_c, 1, 44, 76
2, 6906, Note_off_c, 1, 44, 0
2, 6912, Note_on_c, 1, 37, 106
2, 7087, Text_t, "all "
2, 7137, Text_t, "you "
2, 7166, Note_off_c, 1, 37, 0
2, 7188, Text_t, "need "
2, 7200, Note_on_c, 1, 34, 90
2, 7269, Text_t, "is "
2, 7363, Text_t, "faith"
2, 7363, Text_t, "/"
2, 7392, Note_on_c, 1, 41, 78
2, 7472, Note_off_c, 1, 41, 0
2, 7483, Note_off_c, 1, 34, 0
2, 7488, Note_on_c, 1, 46, 60
2, 7541, Text_t, "to "
2, 7568, Note_off_c, 1, 46, 0
2, 7584, Text_t, "hear "
2, 7584, Note_on_c, 1, 41, 85
2, 7632, Text_t, "the "
2, 7664, Note_off_c, 1, 41, 0
2, 7680, Note_on_c, 1, 32, 94
2, 7684, Text_t, "die"
2, 7856, Note_off_c, 1, 32, 0
2, 7862, Text_t, "sels "
2, 7872, Note_on_c, 1, 32, 94
2, 7952, Note_off_c, 1, 32, 0
2, 7958, Text_t, "hum"
2, 7968, Note_on_c, 1, 37, 106
2, 8139, Text_t, "min'"
2, 8139, Text_t, "/"
2, 8146, Note_off_c, 1, 37, 0
2, 8160, Note_on_c, 1, 49, 77
2, 8231, Note_off_c, 1, 49, 0
2, 8256, Note_on_c, 1, 44, 84
2, 8327, Note_off_c, 1, 44, 0
2, 8352, Note_on_c, 1, 42, 85
2, 8438, Note_off_c, 1, 42, 0
2, 8448, Text_t, "don't "
2, 8448, Note_on_c, 1, 41, 79
2, 8541, Text_t, "need "
2, 8636, Text_t, "no "
2, 8702, Note_off_c, 1, 41, 0
2, 8730, Text_t, "tic"
2, 8736, Note_on_c, 1, 39, 99
2, 8776, Text_t, "ket."
2, 8883, Text_t, ".."
2, 8883, Text_t, "/"
2, 9019, Note_off_c, 1, 39, 0
2, 9024, Note_on_c, 1, 34, 88
2, 9080, Text_t, "you "
2, 9121, Text_t, "just "
2, 9200, Note_off_c, 1, 34, 0
2, 9216, Note_on_c, 1, 32, 100
2, 9219, Text_t, "thank "
2, 9392, Note_off_c, 1, 32, 0
2, 9408, Note_on_c, 1, 32, 96
2, 9414, Text_t, "the "
2, 9488, Note_off_c, 1, 32, 0
2, 9504, Note_on_c, 1, 37, 99
2, 9514, Text_t, "Lord"
2, 9514, Text_t, "/"
2, 9970, Note_off_c, 1, 37, 0
2, 10272, Note_on_c, 1, 46, 77
2, 10738, Note_off_c, 1, 46, 0
2, 11520, Note_on_c, 1, 37, 102
2, 11741, Text_t, "so "
2, 11774, Note_off_c, 1, 37, 0
2, 11799, Text_t, "peo"
2, 11808, Note_on_c, 1, 34, 97
2, 11866, Text_t, "ple "
2, 11919, Text_t, "get "
2, 11988, Text_t, "rea"
2, 12000, Note_on_c, 1, 46, 66
2, 12080, Note_off_c, 1, 46, 0
2, 12091, Note_off_c, 1, 34, 0
2, 12096, Note_on_c, 1, 41, 77
2, 12176, Note_off_c, 1, 41, 0
2, 12187, Text_t, "dy"
2, 12187, Text_t, "/"
2, 12192, Note_on_c, 1, 34, 82
2, 12235, Text_t, "for the "
2, 12272, Note_off_c, 1, 34, 0
2, 12288, Note_on_c, 1, 32, 93
2, 12290, Text_t, "train "
2, 12464, Note_off_c, 1, 32, 0
2, 12471, Text_t, "to "
2, 12480, Note_on_c, 1, 32, 102
2, 12560, Note_off_c, 1, 32, 0
2, 12576, Note_on_c, 1, 37, 103
2, 12577, Text_t, "Jor"
2, 12754, Note_off_c, 1, 37, 0
2, 12761, Text_t, "dan"
2, 12761, Text_t, "/"
2, 12768, Note_on_c, 1, 41, 88
2, 12839, Note_off_c, 1, 41, 0
2, 12864, Note_on_c, 1, 44, 89
2, 12935, Note_off_c, 1, 44, 0
2, 12960, Note_on_c, 1, 49, 89
2, 13031, Note_off_c, 1, 49, 0
2, 13056, Note_on_c, 1, 37, 104
2, 13254, Text_t, "it's pick"
2, 13306, Text_t, "ing "
2, 13310, Note_off_c, 1, 37, 0
2, 13344, Note_on_c, 1, 34, 94
2, 13360, Text_t, "up "
2, 13424, Text_t, "pas"
2, 13530, Text_t, "sen"
2, 13536, Note_on_c, 1, 46, 60
2, 13616, Note_off_c, 1, 46, 0
2, 13627, Note_off_c, 1, 34, 0
2, 13632, Note_on_c, 1, 41, 77
2, 13644, Text_t, "gers"
2, 13644, Text_t, "/"
2, 13712, Note_off_c, 1, 41, 0
2, 13728, Note_on_c, 1, 34, 89
2, 13808, Note_off_c, 1, 34, 0
2, 13824, Note_on_c, 1, 32, 93
2, 13832, Text_t, "from coast "
2, 14000, Note_off_c, 1, 32, 0
2, 14016, Note_on_c, 1, 32, 97
2, 14024, Text_t, "to "
2, 14096, Note_off_c, 1, 32, 0
2, 14112, Note_on_c, 1, 37, 107
2, 14124, Text_t, "coast"
2, 14124, Text_t, "/"
2, 14290, Note_off_c, 1, 37, 0
2, 14304, Note_on_c, 1, 41, 83
2, 14375, Note_off_c, 1, 41, 0
2, 14400, Note_on_c, 1, 44, 84
2, 14490, Note_off_c, 1, 44, 0
2, 14496, Note_on_c, 1, 44, 72
2, 14586, Note_off_c, 1, 44, 0
2, 14592, Note_on_c, 1, 37, 101
2, 14846, Note_off_c, 1, 37, 0
2, 14871, Text_t, "faith "
2, 14880, Note_on_c, 1, 34, 94
2, 14938, Text_t, "is "
2, 14991, Text_t, "the "
2, 15060, Text_t, "key"
2, 15060, Text_t, "/"
2, 15072, Note_on_c, 1, 41, 76
2, 15152, Note_off_c, 1, 41, 0
2, 15163, Note_off_c, 1, 34, 0
2, 15168, Note_on_c, 1, 46, 58
2, 15221, Text_t, "o"
2, 15248, Note_off_c, 1, 46, 0
2, 15264, Text_t, "pen "
2, 15264, Note_on_c, 1, 41, 89
2, 15312, Text_t, "the "
2, 15344, Note_off_c, 1, 41, 0
2, 15360, Note_on_c, 1, 32, 98
2, 15364, Text_t, "doors "
2, 15536, Note_off_c, 1, 32, 0
2, 15542, Text_t, "and "
2, 15552, Note_on_c, 1, 32, 97
2, 15632, Note_off_c, 1, 32, 0
2, 15638, Text_t, "board "
2, 15648, Note_on_c, 1, 37, 108
2, 15819, Text_t, "'em"
2, 15819, Text_t, "/"
2, 15826, Note_off_c, 1, 37, 0
2, 15840, Note_on_c, 1, 49, 72
2, 15911, Note_off_c, 1, 49, 0
2, 15936, Note_on_c, 1, 44, 81
2, 16007, Note_off_c, 1, 44, 0
2, 16032, Note_on_c, 1, 42, 91
2, 16118, Note_off_c, 1, 42, 0
2, 16128, Text_t, "there's "
2, 16128, Note_on_c, 1, 41, 82
2, 16221, Text_t, "hope "
2, 16316, Text_t, "for "
2, 16382, Note_off_c, 1, 41, 0
2, 16410, Text_t, "all."
2, 16416, Note_on_c, 1, 39, 96
2, 16456, Text_t, "."
2, 16563, Text_t, "."
2, 16563, Text_t, "/"
2, 16699, Note_off_c, 1, 39, 0
2, 16704, Note_on_c, 1, 34, 92
2, 16760, Text_t, "among "
2, 16801, Text_t, "those "
2, 16880, Note_off_c, 1, 34, 0
2, 16896, Note_on_c, 1, 32, 96
2, 16899, Text_t, "loved "
2, 17072, Note_off_c, 1, 32, 0
2, 17088, Note_on_c, 1, 32, 100
2, 17094, Text_t, "the "
2, 17168, Note_off_c, 1, 32, 0
2, 17184, Note_on_c, 1, 37, 100
2, 17194, Text_t, "most"
2, 17194, Text_t, "/"
2, 17650, Note_off_c, 1, 37, 0
2, 17664, Note_on_c, 1, 49, 72
2, 17938, Note_off_c, 1, 49, 0
2, 17952, Note_on_c, 1, 58, 51
2, 18418, Note_off_c, 1, 58, 0
2, 18432, Note_on_c, 1, 54, 71
2, 18706, Note_off_c, 1, 54, 0
2, 18720, Note_on_c, 1, 49, 63
2, 19186, Note_off_c, 1, 49, 0
2, 19200, Note_on_c, 1, 50, 77
2, 19474, Note_off_c, 1, 50, 0
2, 19488, Note_on_c, 1, 59, 54
2, 19954, Note_off_c, 1, 59, 0
2, 19968, Note_on_c, 1, 55, 73
2, 20242, Note_off_c, 1, 55, 0
2, 20256, Note_on_c, 1, 50, 60
2, 20722, Note_off_c, 1, 50, 0
2, 20736, Note_on_c, 1, 38, 109
2, 20990, Note_off_c, 1, 38, 0
2, 21015, Text_t, "there "
2, 21024, Note_on_c, 1, 35, 91
2, 21082, Text_t, "ain't "
2, 21135, Text_t, "no "
2, 21204, Text_t, "room"
2, 21204, Text_t, "/"
2, 21403, Note_off_c, 1, 35, 0
2, 21403, Text_t, "for "
2, 21408, Note_on_c, 1, 35, 91
2, 21451, Text_t, "the "
2, 21488, Note_off_c, 1, 35, 0
2, 21504, Note_on_c, 1, 33, 104
2, 21506, Text_t, "hope"
2, 21687, Text_t, "less "
2, 21776, Note_off_c, 1, 33, 0
2, 21792, Note_on_c, 1, 38, 101
2, 21793, Text_t, "sin"
2, 21970, Note_off_c, 1, 38, 0
2, 21977, Text_t, "ner"
2, 21977, Text_t, "/"
2, 21984, Note_on_c, 1, 42, 93
2, 22055, Note_off_c, 1, 42, 0
2, 22080, Note_on_c, 1, 45, 88
2, 22151, Note_off_c, 1, 45, 0
2, 22176, Note_on_c, 1, 50, 89
2, 22247, Note_off_c, 1, 50, 0
2, 22272, Note_on_c, 1, 38, 108
2, 22513, Text_t, "who "
2, 22526, Note_off_c, 1, 38, 0
2, 22558, Text_t, "would "
2, 22560, Note_on_c, 1, 35, 97
2, 22606, Text_t, "hurt "
2, 22671, Text_t, "all "
2, 22749, Note_off_c, 1, 35, 0
2, 22752, Note_on_c, 1, 47, 62
2, 22811, Text_t, "man"
2, 22832, Note_off_c, 1, 47, 0
2, 22848, Note_on_c, 1, 42, 81
2, 22928, Note_off_c, 1, 42, 0
2, 22944, Note_on_c, 1, 35, 84
2, 22964, Text_t, "kind"
2, 22964, Text_t, "/"
2, 23024, Note_off_c, 1, 35, 0
2, 23040, Note_on_c, 1, 33, 103
2, 23216, Note_off_c, 1, 33, 0
2, 23232, Note_on_c, 1, 33, 101
2, 23312, Note_off_c, 1, 33, 0
2, 23328, Note_on_c, 1, 38, 107
2, 23417, Text_t, "be"
2, 23495, Text_t, "lieve "
2, 23506, Note_off_c, 1, 38, 0
2, 23520, Note_on_c, 1, 50, 89
2, 23591, Note_off_c, 1, 50, 0
2, 23607, Text_t, "me "
2, 23616, Note_on_c, 1, 45, 85
2, 23660, Text_t, "now"
2, 23660, Text_t, "/"
2, 23706, Note_off_c, 1, 45, 0
2, 23712, Note_on_c, 1, 42, 79
2, 23802, Note_off_c, 1, 42, 0
2, 23808, Note_on_c, 1, 38, 104
2, 24038, Text_t, "have "
2, 24062, Note_off_c, 1, 38, 0
2, 24087, Text_t, "pi"
2, 24096, Note_on_c, 1, 35, 98
2, 24154, Text_t, "ty "
2, 24207, Text_t, "on "
2, 24276, Text_t, "those whose"
2, 24276, Text_t, "/"
2, 24381, Note_off_c, 1, 35, 0
2, 24384, Note_on_c, 1, 42, 92
2, 24464, Note_off_c, 1, 42, 0
2, 24480, Note_on_c, 1, 35, 92
2, 24560, Note_off_c, 1, 35, 0
2, 24576, Note_on_c, 1, 33, 98
2, 24748, Text_t, "chan"
2, 24752, Note_off_c, 1, 33, 0
2, 24768, Note_on_c, 1, 33, 98
2, 24808, Text_t, "ces "
2, 24848, Note_off_c, 1, 33, 0
2, 24864, Note_on_c, 1, 38, 109
2, 24875, Text_t, "grow "
2, 24977, Text_t, "thin"
2, 25042, Note_off_c, 1, 38, 0
2, 25056, Note_on_c, 1, 42, 84
2, 25088, Text_t, "ner"
2, 25088, Text_t, "/"
2, 25127, Note_off_c, 1, 42, 0
2, 25152, Note_on_c, 1, 45, 85
2, 25246, Text_t, "for "
2, 25294, Text_t, "there's "
2, 25330, Note_off_c, 1, 45, 0
2, 25344, Text_t, "no "
2, 25344, Note_on_c, 1, 38, 85
2, 25437, Text_t, "hi"
2, 25523, Note_off_c, 1, 38, 0
2, 25532, Text_t, "ding "
2, 25536, Note_on_c, 1, 42, 99
2, 25616, Note_off_c, 1, 42, 0
2, 25626, Text_t, "place."
2, 25632, Note_on_c, 1, 40, 104
2, 25672, Text_t, "."
2, 25779, Text_t, "."
2, 25779, Text_t, "/"
2, 25976, Text_t, "against "
2, 26000, Note_off_c, 1, 40, 0
2, 26016, Note_on_c, 1, 40, 99
2, 26017, Text_t, "the "
2, 26107, Note_off_c, 1, 40, 0
2, 26112, Note_on_c, 1, 33, 104
2, 26115, Text_t, "King"
2, 26288, Note_off_c, 1, 33, 0
2, 26304, Note_on_c, 1, 33, 103
2, 26310, Text_t, "dom's "
2, 26384, Note_off_c, 1, 33, 0
2, 26400, Note_on_c, 1, 38, 106
2, 26410, Text_t, "throne"
2, 26410, Text_t, "/"
2, 26785, Text_t, "so "
2, 26866, Note_off_c, 1, 38, 0
2, 26880, Text_t, "peo"
2, 26880, Note_on_c, 1, 38, 114
2, 26975, Text_t, "ple "
2, 27071, Text_t, "get "
2, 27134, Note_off_c, 1, 38, 0
2, 27166, Text_t, "rea"
2, 27168, Note_on_c, 1, 35, 97
2, 27328, Text_t, "dy"
2, 27328, Text_t, "/"
2, 27547, Note_off_c, 1, 35, 0
2, 27552, Note_on_c, 1, 35, 88
2, 27554, Text_t, "there's "
2, 27595, Text_t, "a "
2, 27632, Note_off_c, 1, 35, 0
2, 27648, Note_on_c, 1, 33, 98
2, 27656, Text_t, "train "
2, 27824, Note_off_c, 1, 33, 0
2, 27840, Note_on_c, 1, 33, 100
2, 27843, Text_t, "a "
2, 27920, Note_off_c, 1, 33, 0
2, 27936, Note_on_c, 1, 38, 111
2, 27938, Text_t, "co"
2, 28091, Text_t, "min'"
2, 28091, Text_t, "/"
2, 28114, Note_off_c, 1, 38, 0
2, 28128, Note_on_c, 1, 42, 94
2, 28199, Note_off_c, 1, 42, 0
2, 28224, Note_on_c, 1, 45, 96
2, 28295, Note_off_c, 1, 45, 0
2, 28320, Note_on_c, 1, 50, 97
2, 28376, Text_t, "you "
2, 28391, Note_off_c, 1, 50, 0
2, 28416, Text_t, "don't "
2, 28416, Note_on_c, 1, 38, 106
2, 28511, Text_t, "need "
2, 28607, Text_t, "no "
2, 28670, Note_off_c, 1, 38, 0
2, 28702, Text_t, "bag"
2, 28704, Note_on_c, 1, 35, 94
2, 28864, Text_t, "gage"
2, 28864, Text_t, "/"
2, 28893, Note_off_c, 1, 35, 0
2, 28896, Note_on_c, 1, 47, 68
2, 28976, Note_off_c, 1, 47, 0
2, 28992, Note_on_c, 1, 42, 77
2, 29042, Text_t, "you "
2, 29072, Note_off_c, 1, 42, 0
2, 29083, Text_t, "just "
2, 29088, Note_on_c, 1, 35, 94
2, 29168, Note_off_c, 1, 35, 0
2, 29184, Note_on_c, 1, 33, 100
2, 29192, Text_t, "get "
2, 29283, Text_t, "on "
2, 29360, Note_off_c, 1, 33, 0
2, 29376, Note_on_c, 1, 33, 106
2, 29456, Note_off_c, 1, 33, 0
2, 29472, Note_on_c, 1, 38, 103
2, 29474, Text_t, "board"
2, 29474, Text_t, "/"
2, 29650, Note_off_c, 1, 38, 0
2, 29664, Note_on_c, 1, 50, 89
2, 29735, Note_off_c, 1, 50, 0
2, 29760, Note_on_c, 1, 45, 91
2, 29850, Note_off_c, 1, 45, 0
2, 29856, Note_on_c, 1, 42, 79
2, 29858, Text_t, "all "
2, 29901, Text_t, "you "
2, 29946, Note_off_c, 1, 42, 0
2, 29952, Note_on_c, 1, 38, 108
2, 29967, Text_t, "need "
2, 30055, Text_t, "is "
2, 30206, Note_off_c, 1, 38, 0
2, 30238, Text_t, "faith"
2, 30238, Text_t, "/"
2, 30240, Note_on_c, 1, 35, 101
2, 30429, Note_off_c, 1, 35, 0
2, 30432, Note_on_c, 1, 47, 93
2, 30434, Text_t, "to "
2, 30512, Note_off_c, 1, 47, 0
2, 30528, Note_on_c, 1, 42, 92
2, 30530, Text_t, "hear "
2, 30608, Note_off_c, 1, 42, 0
2, 30624, Note_on_c, 1, 35, 90
2, 30626, Text_t, "the "
2, 30704, Note_off_c, 1, 35, 0
2, 30720, Note_on_c, 1, 33, 104
2, 30729, Text_t, "die"
2, 30896, Note_off_c, 1, 33, 0
2, 30912, Note_on_c, 1, 33, 98
2, 30926, Text_t, "sels "
2, 30992, Note_off_c, 1, 33, 0
2, 31008, Note_on_c, 1, 38, 108
2, 31016, Text_t, "hum"
2, 31143, Text_t, "min'"
2, 31143, Text_t, "/"
2, 31186, Note_off_c, 1, 38, 0
2, 31200, Note_on_c, 1, 50, 80
2, 31271, Note_off_c, 1, 50, 0
2, 31296, Note_on_c, 1, 45, 86
2, 31378, Note_off_c, 1, 45, 0
2, 31392, Note_on_c, 1, 43, 81
2, 31474, Note_off_c, 1, 43, 0
2, 31488, Note_on_c, 1, 42, 88
2, 31495, Text_t, "don't "
2, 31583, Text_t, "need "
2, 31675, Text_t, "no "
2, 31715, Note_off_c, 1, 42, 0
2, 31776, Note_on_c, 1, 40, 106
2, 31777, Text_t, "tic"
2, 31855, Text_t, "ket."
2, 31952, Note_off_c, 1, 40, 0
2, 31958, Text_t, ".."
2, 31958, Text_t, "/"
2, 32561, Text_t, "you "
2, 32626, Text_t, "just "
2, 32812, Text_t, "thank "
2, 33059, Text_t, "the "
2, 33179, Text_t, "Lord"
2, 33179, Text_t, "/"
2, 33984, Note_on_c, 1, 38, 107
2, 34238, Note_off_c, 1, 38, 0
2, 34272, Note_on_c, 1, 35, 101
2, 34651, Note_off_c, 1, 35, 0
2, 34656, Note_on_c, 1, 35, 88
2, 34736, Note_off_c, 1, 35, 0
2, 34752, Note_on_c, 1, 33, 100
2, 34928, Note_off_c, 1, 33, 0
2, 34944, Note_on_c, 1, 33, 102
2, 35024, Note_off_c, 1, 33, 0
2, 35040, Note_on_c, 1, 38, 106
2, 36477, Note_off_c, 1, 38, 0
2, 37536, Control_c, 1, 120, 0
2, 37584, Control_c, 1, 123, 0
2, 37632, End_track
3, 0, Start_track
3, 0, Sequencer_specific, 5, 5, 15, 9, 12, 64
3, 0, Sequencer_specific, 15, 5, 15, 6, 71, 101, 110, 101, 114, 97, 108, 32, 77, 73, 68, 73
3, 0, Title_t, "People Get Ready 1965"
3, 0, Control_c, 2, 0, 0
3, 0, Program_c, 2, 48
3, 192, Control_c, 2, 121, 0
3, 336, Pitch_bend_c, 2, 8192
3, 336, Control_c, 2, 11, 127
3, 351, Control_c, 2, 7, 100
3, 353, Control_c, 2, 10, 64
3, 355, Control_c, 2, 91, 92
3, 357, Control_c, 2, 93, 20
3, 768, Control_c, 2, 7, 76
3, 768, Note_on_c, 2, 49, 77
3, 768, Note_on_c, 2, 61, 75
3, 768, Note_on_c, 2, 68, 73
3, 768, Note_on_c, 2, 77, 72
3, 768, Note_on_c, 2, 85, 71
3, 816, Control_c, 2, 7, 79
3, 864, Control_c, 2, 7, 81
3, 912, Control_c, 2, 7, 83
3, 960, Control_c, 2, 7, 89
3, 1008, Control_c, 2, 7, 92
3, 1053, Note_off_c, 2, 85, 0
3, 1053, Note_off_c, 2, 77, 0
3, 1053, Note_off_c, 2, 68, 0
3, 1053, Note_off_c, 2, 61, 0
3, 1053, Note_off_c, 2, 49, 0
3, 1056, Control_c, 2, 7, 94
3, 1056, Note_on_c, 2, 46, 75
3, 1056, Note_on_c, 2, 61, 76
3, 1056, Note_on_c, 2, 68, 73
3, 1056, Note_on_c, 2, 77, 76
3, 1056, Note_on_c, 2, 82, 77
3, 1104, Control_c, 2, 7, 98
3, 1152, Control_c, 2, 7, 100
3, 1533, Note_off_c, 2, 82, 0
3, 1533, Note_off_c, 2, 77, 0
3, 1533, Note_off_c, 2, 68, 0
3, 1533, Note_off_c, 2, 61, 0
3, 1533, Note_off_c, 2, 46, 0
3, 1536, Note_on_c, 2, 44, 71
3, 1536, Note_on_c, 2, 61, 72
3, 1536, Note_on_c, 2, 70, 70
3, 1536, Note_on_c, 2, 78, 71
3, 1536, Note_on_c, 2, 82, 76
3, 1821, Note_off_c, 2, 82, 0
3, 1821, Note_off_c, 2, 78, 0
3, 1821, Note_off_c, 2, 70, 0
3, 1821, Note_off_c, 2, 61, 0
3, 1821, Note_off_c, 2, 44, 0
3, 1824, Note_on_c, 2, 49, 70
3, 1824, Note_on_c, 2, 61, 71
3, 1824, Note_on_c, 2, 68, 65
3, 1824, Note_on_c, 2, 77, 66
3, 1824, Note_on_c, 2, 85, 70
3, 2301, Note_off_c, 2, 85, 0
3, 2301, Note_off_c, 2, 77, 0
3, 2301, Note_off_c, 2, 68, 0
3, 2301, Note_off_c, 2, 61, 0
3, 2301, Note_off_c, 2, 49, 0
3, 2304, Note_on_c, 2, 49, 76
3, 2304, Note_on_c, 2, 61, 77
3, 2304, Note_on_c, 2, 68, 73
3, 2304, Note_on_c, 2, 77, 70
3, 2304, Note_on_c, 2, 85, 70
3, 2589, Note_off_c, 2, 85, 0
3, 2589, Note_off_c, 2, 77, 0
3, 2589, Note_off_c, 2, 68, 0
3, 2589, Note_off_c, 2, 61, 0
3, 2589, Note_off_c, 2, 49, 0
3, 2592, Note_on_c, 2, 46, 73
3, 2592, Note_on_c, 2, 61, 72
3, 2592, Note_on_c, 2, 68, 70
3, 2592, Note_on_c, 2, 77, 77
3, 2592, Note_on_c, 2, 82, 70
3, 3069, Note_off_c, 2, 82, 0
3, 3069, Note_off_c, 2, 77, 0
3, 3069, Note_off_c, 2, 68, 0
3, 3069, Note_off_c, 2, 61, 0
3, 3069, Note_off_c, 2, 46, 0
3, 3072, Note_on_c, 2, 44, 75
3, 3072, Note_on_c, 2, 61, 73
3, 3072, Note_on_c, 2, 66, 71
3, 3072, Note_on_c, 2, 70, 72
3, 3072, Note_on_c, 2, 78, 71
3, 3357, Note_off_c, 2, 78, 0
3, 3357, Note_off_c, 2, 70, 0
3, 3357, Note_off_c, 2, 66, 0
3, 3357, Note_off_c, 2, 61, 0
3, 3357, Note_off_c, 2, 44, 0
3, 3360, Note_on_c, 2, 49, 64
3, 3360, Note_on_c, 2, 61, 62
3, 3360, Note_on_c, 2, 68, 70
3, 3360, Note_on_c, 2, 77, 69
3, 3360, Note_on_c, 2, 85, 65
3, 3456, Control_c, 2, 7, 100
3, 3552, Control_c, 2, 7, 94
3, 3648, Control_c, 2, 7, 81
3, 3744, Control_c, 2, 7, 69
3, 3789, Note_off_c, 2, 85, 0
3, 3789, Note_off_c, 2, 77, 0
3, 3789, Note_off_c, 2, 68, 0
3, 3789, Note_off_c, 2, 61, 0
3, 3789, Note_off_c, 2, 49, 0
3, 3840, Control_c, 2, 7, 73
3, 3840, Note_on_c, 2, 49, 73
3, 3840, Note_on_c, 2, 53, 70
3, 3840, Note_on_c, 2, 56, 70
3, 3840, Note_on_c, 2, 61, 66
3, 3888, Control_c, 2, 7, 85
3, 3936, Control_c, 2, 7, 100
3, 4125, Note_off_c, 2, 56, 0
3, 4125, Note_off_c, 2, 53, 0
3, 4125, Note_off_c, 2, 49, 0
3, 4128, Note_on_c, 2, 46, 68
3, 4128, Note_on_c, 2, 53, 65
3, 4128, Note_on_c, 2, 56, 65
3, 4605, Note_off_c, 2, 61, 0
3, 4605, Note_off_c, 2, 56, 0
3, 4605, Note_off_c, 2, 53, 0
3, 4605, Note_off_c, 2, 46, 0
3, 4608, Note_on_c, 2, 44, 74
3, 4608, Note_on_c, 2, 54, 73
3, 4608, Note_on_c, 2, 58, 73
3, 4608, Note_on_c, 2, 61, 67
3, 4893, Note_off_c, 2, 58, 0
3, 4893, Note_off_c, 2, 54, 0
3, 4893, Note_off_c, 2, 44, 0
3, 4896, Note_on_c, 2, 49, 66
3, 4896, Note_on_c, 2, 53, 68
3, 4896, Note_on_c, 2, 56, 65
3, 5373, Note_off_c, 2, 61, 0
3, 5373, Note_off_c, 2, 56, 0
3, 5373, Note_off_c, 2, 53, 0
3, 5373, Note_off_c, 2, 49, 0
3, 5376, Note_on_c, 2, 49, 73
3, 5376, Note_on_c, 2, 53, 70
3, 5376, Note_on_c, 2, 56, 74
3, 5376, Note_on_c, 2, 61, 65
3, 5661, Note_off_c, 2, 56, 0
3, 5661, Note_off_c, 2, 53, 0
3, 5661, Note_off_c, 2, 49, 0
3, 5664, Note_on_c, 2, 46, 74
3, 5664, Note_on_c, 2, 53, 68
3, 5664, Note_on_c, 2, 56, 72
3, 6141, Note_off_c, 2, 61, 0
3, 6141, Note_off_c, 2, 56, 0
3, 6141, Note_off_c, 2, 53, 0
3, 6141, Note_off_c, 2, 46, 0
3, 6144, Note_on_c, 2, 44, 73
3, 6144, Note_on_c, 2, 54, 65
3, 6144, Note_on_c, 2, 58, 66
3, 6144, Note_on_c, 2, 61, 73
3, 6429, Note_off_c, 2, 58, 0
3, 6429, Note_off_c, 2, 54, 0
3, 6429, Note_off_c, 2, 44, 0
3, 6432, Note_on_c, 2, 49, 74
3, 6432, Note_on_c, 2, 53, 68
3, 6432, Note_on_c, 2, 56, 67
3, 6909, Note_off_c, 2, 61, 0
3, 6909, Note_off_c, 2, 56, 0
3, 6909, Note_off_c, 2, 53, 0
3, 6909, Note_off_c, 2, 49, 0
3, 6912, Note_on_c, 2, 49, 68
3, 6912, Note_on_c, 2, 53, 66
3, 6912, Note_on_c, 2, 56, 69
3, 6912, Note_on_c, 2, 61, 68
3, 7197, Note_off_c, 2, 56, 0
3, 7197, Note_off_c, 2, 53, 0
3, 7197, Note_off_c, 2, 49, 0
3, 7200, Note_on_c, 2, 46, 69
3, 7200, Note_on_c, 2, 53, 65
3, 7200, Note_on_c, 2, 56, 68
3, 7677, Note_off_c, 2, 61, 0
3, 7677, Note_off_c, 2, 56, 0
3, 7677, Note_off_c, 2, 53, 0
3, 7677, Note_off_c, 2, 46, 0
3, 7680, Note_on_c, 2, 44, 72
3, 7680, Note_on_c, 2, 54, 74
3, 7680, Note_on_c, 2, 58, 71
3, 7680, Note_on_c, 2, 61, 71
3, 7965, Note_off_c, 2, 58, 0
3, 7965, Note_off_c, 2, 54, 0
3, 7965, Note_off_c, 2, 44, 0
3, 7968, Note_on_c, 2, 49, 65
3, 7968, Note_on_c, 2, 53, 67
3, 7968, Note_on_c, 2, 56, 68
3, 8445, Note_off_c, 2, 61, 0
3, 8445, Note_off_c, 2, 56, 0
3, 8445, Note_off_c, 2, 53, 0
3, 8445, Note_off_c, 2, 49, 0
3, 8448, Note_on_c, 2, 53, 70
3, 8448, Note_on_c, 2, 63, 70
3, 8448, Note_on_c, 2, 68, 67
3, 8448, Note_on_c, 2, 80, 66
3, 8733, Note_off_c, 2, 80, 0
3, 8733, Note_off_c, 2, 68, 0
3, 8733, Note_off_c, 2, 63, 0
3, 8733, Note_off_c, 2, 53, 0
3, 8736, Note_on_c, 2, 51, 70
3, 8736, Note_on_c, 2, 61, 73
3, 8736, Note_on_c, 2, 66, 66
3, 8736, Note_on_c, 2, 78, 70
3, 9213, Note_off_c, 2, 78, 0
3, 9213, Note_off_c, 2, 66, 0
3, 9213, Note_off_c, 2, 61, 0
3, 9213, Note_off_c, 2, 51, 0
3, 9216, Note_on_c, 2, 44, 73
3, 9216, Note_on_c, 2, 58, 68
3, 9216, Note_on_c, 2, 61, 74
3, 9216, Note_on_c, 2, 66, 69
3, 9216, Note_on_c, 2, 78, 73
3, 9394, Note_off_c, 2, 78, 0
3, 9394, Note_off_c, 2, 66, 0
3, 9394, Note_off_c, 2, 61, 0
3, 9394, Note_off_c, 2, 58, 0
3, 9394, Note_off_c, 2, 44, 0
3, 9408, Note_on_c, 2, 44, 71
3, 9408, Note_on_c, 2, 58, 74
3, 9408, Note_on_c, 2, 61, 68
3, 9408, Note_on_c, 2, 66, 73
3, 9408, Note_on_c, 2, 78, 65
3, 9492, Note_off_c, 2, 78, 0
3, 9492, Note_off_c, 2, 66, 0
3, 9492, Note_off_c, 2, 61, 0
3, 9492, Note_off_c, 2, 58, 0
3, 9492, Note_off_c, 2, 44, 0
3, 9504, Note_on_c, 2, 49, 74
3, 9504, Note_on_c, 2, 56, 67
3, 9504, Note_on_c, 2, 61, 68
3, 9504, Note_on_c, 2, 65, 66
3, 9504, Note_on_c, 2, 85, 68
3, 9600, Control_c, 2, 7, 100
3, 9648, Control_c, 2, 7, 99
3, 9696, Control_c, 2, 7, 98
3, 9744, Control_c, 2, 7, 94
3, 9792, Control_c, 2, 7, 87
3, 9840, Control_c, 2, 7, 85
3, 9888, Control_c, 2, 7, 81
3, 9936, Control_c, 2, 7, 75
3, 9970, Note_off_c, 2, 85, 0
3, 9970, Note_off_c, 2, 65, 0
3, 9970, Note_off_c, 2, 61, 0
3, 9970, Note_off_c, 2, 56, 0
3, 9970, Note_off_c, 2, 49, 0
3, 9984, Control_c, 2, 7, 71
3, 10032, Control_c, 2, 7, 79
3, 10080, Control_c, 2, 7, 87
3, 10128, Control_c, 2, 7, 100
3, 11520, Note_on_c, 2, 49, 72
3, 11520, Note_on_c, 2, 53, 71
3, 11520, Note_on_c, 2, 56, 69
3, 11520, Note_on_c, 2, 61, 75
3, 11805, Note_off_c, 2, 56, 0
3, 11805, Note_off_c, 2, 53, 0
3, 11805, Note_off_c, 2, 49, 0
3, 11808, Note_on_c, 2, 46, 68
3, 11808, Note_on_c, 2, 53, 73
3, 11808, Note_on_c, 2, 56, 67
3, 12285, Note_off_c, 2, 61, 0
3, 12285, Note_off_c, 2, 56, 0
3, 12285, Note_off_c, 2, 53, 0
3, 12285, Note_off_c, 2, 46, 0
3, 12288, Note_on_c, 2, 44, 67
3, 12288, Note_on_c, 2, 54, 74
3, 12288, Note_on_c, 2, 58, 69
3, 12288, Note_on_c, 2, 61, 74
3, 12573, Note_off_c, 2, 58, 0
3, 12573, Note_off_c, 2, 54, 0
3, 12573, Note_off_c, 2, 44, 0
3, 12576, Note_on_c, 2, 49, 72
3, 12576, Note_on_c, 2, 53, 68
3, 12576, Note_on_c, 2, 56, 73
3, 13053, Note_off_c, 2, 61, 0
3, 13053, Note_off_c, 2, 56, 0
3, 13053, Note_off_c, 2, 53, 0
3, 13053, Note_off_c, 2, 49, 0
3, 13056, Note_on_c, 2, 49, 67
3, 13056, Note_on_c, 2, 53, 74
3, 13056, Note_on_c, 2, 56, 76
3, 13056, Note_on_c, 2, 61, 67
3, 13341, Note_off_c, 2, 56, 0
3, 13341, Note_off_c, 2, 53, 0
3, 13341, Note_off_c, 2, 49, 0
3, 13344, Note_on_c, 2, 46, 70
3, 13344, Note_on_c, 2, 53, 73
3, 13344, Note_on_c, 2, 56, 76
3, 13821, Note_off_c, 2, 61, 0
3, 13821, Note_off_c, 2, 56, 0
3, 13821, Note_off_c, 2, 53, 0
3, 13821, Note_off_c, 2, 46, 0
3, 13824, Note_on_c, 2, 44, 67
3, 13824, Note_on_c, 2, 54, 67
3, 13824, Note_on_c, 2, 58, 71
3, 13824, Note_on_c, 2, 61, 73
3, 14109, Note_off_c, 2, 58, 0
3, 14109, Note_off_c, 2, 54, 0
3, 14109, Note_off_c, 2, 44, 0
3, 14112, Note_on_c, 2, 49, 74
3, 14112, Note_on_c, 2, 53, 73
3, 14112, Note_on_c, 2, 56, 76
3, 14589, Note_off_c, 2, 61, 0
3, 14589, Note_off_c, 2, 56, 0
3, 14589, Note_off_c, 2, 53, 0
3, 14589, Note_off_c, 2, 49, 0
3, 14592, Note_on_c, 2, 49, 68
3, 14592, Note_on_c, 2, 53, 73
3, 14592, Note_on_c, 2, 56, 74
3, 14592, Note_on_c, 2, 61, 73
3, 14877, Note_off_c, 2, 56, 0
3, 14877, Note_off_c, 2, 53, 0
3, 14877, Note_off_c, 2, 49, 0
3, 14880, Note_on_c, 2, 46, 74
3, 14880, Note_on_c, 2, 53, 75
3, 14880, Note_on_c, 2, 56, 73
3, 15357, Note_off_c, 2, 61, 0
3, 15357, Note_off_c, 2, 56, 0
3, 15357, Note_off_c, 2, 53, 0
3, 15357, Note_off_c, 2, 46, 0
3, 15360, Note_on_c, 2, 44, 69
3, 15360, Note_on_c, 2, 54, 72
3, 15360, Note_on_c, 2, 58, 67
3, 15360, Note_on_c, 2, 61, 75
3, 15645, Note_off_c, 2, 58, 0
3, 15645, Note_off_c, 2, 54, 0
3, 15645, Note_off_c, 2, 44, 0
3, 15648, Note_on_c, 2, 49, 68
3, 15648, Note_on_c, 2, 53, 67
3, 15648, Note_on_c, 2, 56, 69
3, 16125, Note_off_c, 2, 61, 0
3, 16125, Note_off_c, 2, 56, 0
3, 16125, Note_off_c, 2, 53, 0
3, 16125, Note_off_c, 2, 49, 0
3, 16128, Note_on_c, 2, 53, 75
3, 16128, Note_on_c, 2, 63, 69
3, 16128, Note_on_c, 2, 68, 67
3, 16128, Note_on_c, 2, 80, 68
3, 16413, Note_off_c, 2, 80, 0
3, 16413, Note_off_c, 2, 68, 0
3, 16413, Note_off_c, 2, 63, 0
3, 16413, Note_off_c, 2, 53, 0
3, 16416, Note_on_c, 2, 51, 68
3, 16416, Note_on_c, 2, 61, 74
3, 16416, Note_on_c, 2, 66, 68
3, 16416, Note_on_c, 2, 78, 74
3, 16893, Note_off_c, 2, 78, 0
3, 16893, Note_off_c, 2, 66, 0
3, 16893, Note_off_c, 2, 61, 0
3, 16893, Note_off_c, 2, 51, 0
3, 16896, Note_on_c, 2, 44, 68
3, 16896, Note_on_c, 2, 58, 73
3, 16896, Note_on_c, 2, 61, 69
3, 16896, Note_on_c, 2, 66, 73
3, 16896, Note_on_c, 2, 78, 70
3, 17074, Note_off_c, 2, 78, 0
3, 17074, Note_off_c, 2, 66, 0
3, 17074, Note_off_c, 2, 61, 0
3, 17074, Note_off_c, 2, 58, 0
3, 17074, Note_off_c, 2, 44, 0
3, 17088, Note_on_c, 2, 44, 69
3, 17088, Note_on_c, 2, 58, 75
3, 17088, Note_on_c, 2, 61, 76
3, 17088, Note_on_c, 2, 66, 69
3, 17088, Note_on_c, 2, 78, 70
3, 17172, Note_off_c, 2, 78, 0
3, 17172, Note_off_c, 2, 66, 0
3, 17172, Note_off_c, 2, 61, 0
3, 17172, Note_off_c, 2, 58, 0
3, 17172, Note_off_c, 2, 44, 0
3, 17184, Note_on_c, 2, 49, 76
3, 17184, Note_on_c, 2, 56, 69
3, 17184, Note_on_c, 2, 61, 69
3, 17184, Note_on_c, 2, 65, 69
3, 17184, Note_on_c, 2, 85, 76
3, 17280, Control_c, 2, 7, 100
3, 17328, Control_c, 2, 7, 99
3, 17376, Control_c, 2, 7, 98
3, 17424, Control_c, 2, 7, 94
3, 17472, Control_c, 2, 7, 87
3, 17520, Control_c, 2, 7, 85
3, 17568, Control_c, 2, 7, 81
3, 17616, Control_c, 2, 7, 75
3, 17650, Note_off_c, 2, 85, 0
3, 17650, Note_off_c, 2, 65, 0
3, 17650, Note_off_c, 2, 61, 0
3, 17650, Note_off_c, 2, 56, 0
3, 17650, Note_off_c, 2, 49, 0
3, 17664, Control_c, 2, 7, 71
3, 17712, Control_c, 2, 7, 79
3, 17760, Control_c, 2, 7, 87
3, 17808, Control_c, 2, 7, 100
3, 20736, Note_on_c, 2, 50, 78
3, 20736, Note_on_c, 2, 54, 79
3, 20736, Note_on_c, 2, 57, 80
3, 20736, Note_on_c, 2, 62, 79
3, 21021, Note_off_c, 2, 57, 0
3, 21021, Note_off_c, 2, 54, 0
3, 21021, Note_off_c, 2, 50, 0
3, 21024, Note_on_c, 2, 47, 79
3, 21024, Note_on_c, 2, 54, 77
3, 21024, Note_on_c, 2, 57, 77
3, 21501, Note_off_c, 2, 62, 0
3, 21501, Note_off_c, 2, 57, 0
3, 21501, Note_off_c, 2, 54, 0
3, 21501, Note_off_c, 2, 47, 0
3, 21504, Note_on_c, 2, 45, 72
3, 21504, Note_on_c, 2, 55, 78
3, 21504, Note_on_c, 2, 59, 79
3, 21504, Note_on_c, 2, 62, 73
3, 21789, Note_off_c, 2, 59, 0
3, 21789, Note_off_c, 2, 55, 0
3, 21789, Note_off_c, 2, 45, 0
3, 21792, Note_on_c, 2, 50, 78
3, 21792, Note_on_c, 2, 54, 71
3, 21792, Note_on_c, 2, 57, 72
3, 22269, Note_off_c, 2, 62, 0
3, 22269, Note_off_c, 2, 57, 0
3, 22269, Note_off_c, 2, 54, 0
3, 22269, Note_off_c, 2, 50, 0
3, 22272, Note_on_c, 2, 50, 72
3, 22272, Note_on_c, 2, 54, 73
3, 22272, Note_on_c, 2, 57, 78
3, 22272, Note_on_c, 2, 62, 79
3, 22557, Note_off_c, 2, 57, 0
3, 22557, Note_off_c, 2, 54, 0
3, 22557, Note_off_c, 2, 50, 0
3, 22560, Note_on_c, 2, 47, 71
3, 22560, Note_on_c, 2, 54, 75
3, 22560, Note_on_c, 2, 57, 76
3, 23037, Note_off_c, 2, 62, 0
3, 23037, Note_off_c, 2, 57, 0
3, 23037, Note_off_c, 2, 54, 0
3, 23037, Note_off_c, 2, 47, 0
3, 23040, Note_on_c, 2, 45, 76
3, 23040, Note_on_c, 2, 55, 75
3, 23040, Note_on_c, 2, 59, 80
3, 23040, Note_on_c, 2, 62, 76
3, 23325, Note_off_c, 2, 59, 0
3, 23325, Note_off_c, 2, 55, 0
3, 23325, Note_off_c, 2, 45, 0
3, 23328, Note_on_c, 2, 50, 77
3, 23328, Note_on_c, 2, 54, 71
3, 23328, Note_on_c, 2, 57, 77
3, 23805, Note_off_c, 2, 62, 0
3, 23805, Note_off_c, 2, 57, 0
3, 23805, Note_off_c, 2, 54, 0
3, 23805, Note_off_c, 2, 50, 0
3, 23808, Note_on_c, 2, 50, 74
3, 23808, Note_on_c, 2, 54, 77
3, 23808, Note_on_c, 2, 57, 73
3, 23808, Note_on_c, 2, 62, 80
3, 24093, Note_off_c, 2, 57, 0
3, 24093, Note_off_c, 2, 54, 0
3, 24093, Note_off_c, 2, 50, 0
3, 24096, Note_on_c, 2, 47, 80
3, 24096, Note_on_c, 2, 54, 80
3, 24096, Note_on_c, 2, 57, 71
3, 24288, Note_on_c, 2, 78, 79
3, 24573, Note_off_c, 2, 78, 0
3, 24573, Note_off_c, 2, 62, 0
3, 24573, Note_off_c, 2, 57, 0
3, 24573, Note_off_c, 2, 54, 0
3, 24573, Note_off_c, 2, 47, 0
3, 24576, Note_on_c, 2, 45, 80
3, 24576, Note_on_c, 2, 55, 73
3, 24576, Note_on_c, 2, 59, 76
3, 24576, Note_on_c, 2, 62, 72
3, 24576, Note_on_c, 2, 79, 84
3, 24861, Note_off_c, 2, 79, 0
3, 24861, Note_off_c, 2, 59, 0
3, 24861, Note_off_c, 2, 55, 0
3, 24861, Note_off_c, 2, 45, 0
3, 24864, Note_on_c, 2, 50, 77
3, 24864, Note_on_c, 2, 54, 77
3, 24864, Note_on_c, 2, 57, 75
3, 24864, Note_on_c, 2, 78, 81
3, 25341, Note_off_c, 2, 78, 0
3, 25341, Note_off_c, 2, 62, 0
3, 25341, Note_off_c, 2, 57, 0
3, 25341, Note_off_c, 2, 54, 0
3, 25341, Note_off_c, 2, 50, 0
3, 25344, Note_on_c, 2, 54, 80
3, 25344, Note_on_c, 2, 64, 79
3, 25344, Note_on_c, 2, 69, 73
3, 25344, Note_on_c, 2, 81, 80
3, 25629, Note_off_c, 2, 81, 0
3, 25629, Note_off_c, 2, 69, 0
3, 25629, Note_off_c, 2, 64, 0
3, 25629, Note_off_c, 2, 54, 0
3, 25632, Note_on_c, 2, 52, 74
3, 25632, Note_on_c, 2, 62, 79
3, 25632, Note_on_c, 2, 67, 76
3, 25632, Note_on_c, 2, 79, 88
3, 25821, Note_off_c, 2, 79, 0
3, 25821, Note_off_c, 2, 67, 0
3, 25824, Note_on_c, 2, 67, 93
3, 25824, Note_on_c, 2, 79, 96
3, 26109, Note_off_c, 2, 79, 0
3, 26109, Note_off_c, 2, 67, 0
3, 26109, Note_off_c, 2, 62, 0
3, 26109, Note_off_c, 2, 52, 0
3, 26112, Note_on_c, 2, 45, 79
3, 26112, Note_on_c, 2, 59, 76
3, 26112, Note_on_c, 2, 62, 79
3, 26112, Note_on_c, 2, 67, 72
3, 26112, Note_on_c, 2, 79, 72
3, 26287, Note_off_c, 2, 45, 0
3, 26290, Note_off_c, 2, 79, 0
3, 26290, Note_off_c, 2, 67, 0
3, 26290, Note_off_c, 2, 62, 0
3, 26290, Note_off_c, 2, 59, 0
3, 26304, Note_on_c, 2, 45, 78
3, 26304, Note_on_c, 2, 59, 80
3, 26304, Note_on_c, 2, 62, 78
3, 26304, Note_on_c, 2, 67, 80
3, 26304, Note_on_c, 2, 79, 76
3, 26388, Note_off_c, 2, 79, 0
3, 26388, Note_off_c, 2, 67, 0
3, 26388, Note_off_c, 2, 62, 0
3, 26388, Note_off_c, 2, 59, 0
3, 26388, Note_off_c, 2, 45, 0
3, 26400, Note_on_c, 2, 50, 80
3, 26400, Note_on_c, 2, 57, 75
3, 26400, Note_on_c, 2, 62, 71
3, 26400, Note_on_c, 2, 66, 75
3, 26400, Note_on_c, 2, 78, 78
3, 26866, Note_off_c, 2, 78, 0
3, 26866, Note_off_c, 2, 66, 0
3, 26866, Note_off_c, 2, 62, 0
3, 26866, Note_off_c, 2, 57, 0
3, 26866, Note_off_c, 2, 50, 0
3, 26880, Note_on_c, 2, 50, 90
3, 26880, Note_on_c, 2, 54, 83
3, 26880, Note_on_c, 2, 57, 90
3, 26880, Note_on_c, 2, 62, 86
3, 26880, Note_on_c, 2, 86, 102
3, 27165, Note_off_c, 2, 57, 0
3, 27165, Note_off_c, 2, 54, 0
3, 27165, Note_off_c, 2, 50, 0
3, 27168, Note_on_c, 2, 47, 92
3, 27168, Note_on_c, 2, 54, 91
3, 27168, Note_on_c, 2, 57, 89
3, 27357, Note_off_c, 2, 86, 0
3, 27360, Note_on_c, 2, 83, 107
3, 27405, Note_off_c, 2, 83, 0
3, 27408, Note_on_c, 2, 81, 98
3, 27453, Note_off_c, 2, 81, 0
3, 27456, Note_on_c, 2, 78, 107
3, 27501, Note_off_c, 2, 78, 0
3, 27504, Note_on_c, 2, 76, 106
3, 27549, Note_off_c, 2, 76, 0
3, 27552, Note_on_c, 2, 74, 107
3, 27597, Note_off_c, 2, 74, 0
3, 27600, Note_on_c, 2, 78, 103
3, 27645, Note_off_c, 2, 78, 0
3, 27645, Note_off_c, 2, 62, 0
3, 27645, Note_off_c, 2, 57, 0
3, 27645, Note_off_c, 2, 54, 0
3, 27645, Note_off_c, 2, 47, 0
3, 27648, Note_on_c, 2, 45, 89
3, 27648, Note_on_c, 2, 55, 88
3, 27648, Note_on_c, 2, 59, 92
3, 27648, Note_on_c, 2, 62, 89
3, 27648, Note_on_c, 2, 83, 107
3, 27933, Note_off_c, 2, 83, 0
3, 27933, Note_off_c, 2, 59, 0
3, 27933, Note_off_c, 2, 55, 0
3, 27933, Note_off_c, 2, 45, 0
3, 27936, Note_on_c, 2, 50, 83
3, 27936, Note_on_c, 2, 54, 89
3, 27936, Note_on_c, 2, 57, 88
3, 27936, Note_on_c, 2, 81, 103
3, 28125, Note_off_c, 2, 81, 0
3, 28128, Note_on_c, 2, 69, 98
3, 28173, Note_off_c, 2, 69, 0
3, 28176, Note_on_c, 2, 71, 102
3, 28221, Note_off_c, 2, 71, 0
3, 28224, Note_on_c, 2, 74, 104
3, 28269, Note_off_c, 2, 74, 0
3, 28272, Note_on_c, 2, 76, 102
3, 28317, Note_off_c, 2, 76, 0
3, 28320, Note_on_c, 2, 78, 106
3, 28365, Note_off_c, 2, 78, 0
3, 28368, Note_on_c, 2, 81, 100
3, 28413, Note_off_c, 2, 81, 0
3, 28413, Note_off_c, 2, 62, 0
3, 28413, Note_off_c, 2, 57, 0
3, 28413, Note_off_c, 2, 54, 0
3, 28413, Note_off_c, 2, 50, 0
3, 28416, Note_on_c, 2, 50, 92
3, 28416, Note_on_c, 2, 54, 86
3, 28416, Note_on_c, 2, 57, 83
3, 28416, Note_on_c, 2, 62, 87
3, 28416, Note_on_c, 2, 86, 106
3, 28701, Note_off_c, 2, 57, 0
3, 28701, Note_off_c, 2, 54, 0
3, 28701, Note_off_c, 2, 50, 0
3, 28704, Note_on_c, 2, 47, 85
3, 28704, Note_on_c, 2, 54, 92
3, 28704, Note_on_c, 2, 57, 89
3, 28893, Note_off_c, 2, 86, 0
3, 28896, Note_on_c, 2, 83, 100
3, 28941, Note_off_c, 2, 83, 0
3, 28944, Note_on_c, 2, 81, 106
3, 28989, Note_off_c, 2, 81, 0
3, 28992, Note_on_c, 2, 78, 100
3, 29037, Note_off_c, 2, 78, 0
3, 29040, Note_on_c, 2, 76, 101
3, 29085, Note_off_c, 2, 76, 0
3, 29088, Note_on_c, 2, 74, 105
3, 29133, Note_off_c, 2, 74, 0
3, 29136, Note_on_c, 2, 78, 98
3, 29181, Note_off_c, 2, 78, 0
3, 29181, Note_off_c, 2, 62, 0
3, 29181, Note_off_c, 2, 57, 0
3, 29181, Note_off_c, 2, 54, 0
3, 29181, Note_off_c, 2, 47, 0
3, 29184, Note_on_c, 2, 45, 84
3, 29184, Note_on_c, 2, 55, 87
3, 29184, Note_on_c, 2, 59, 86
3, 29184, Note_on_c, 2, 62, 89
3, 29184, Note_on_c, 2, 83, 101
3, 29469, Note_off_c, 2, 83, 0
3, 29469, Note_off_c, 2, 59, 0
3, 29469, Note_off_c, 2, 55, 0
3, 29469, Note_off_c, 2, 45, 0
3, 29472, Note_on_c, 2, 50, 85
3, 29472, Note_on_c, 2, 54, 86
3, 29472, Note_on_c, 2, 57, 89
3, 29472, Note_on_c, 2, 81, 98
3, 29661, Note_off_c, 2, 81, 0
3, 29664, Note_on_c, 2, 69, 103
3, 29709, Note_off_c, 2, 69, 0
3, 29712, Note_on_c, 2, 71, 107
3, 29757, Note_off_c, 2, 71, 0
3, 29760, Note_on_c, 2, 74, 105
3, 29805, Note_off_c, 2, 74, 0
3, 29808, Note_on_c, 2, 76, 98
3, 29853, Note_off_c, 2, 76, 0
3, 29856, Note_on_c, 2, 78, 104
3, 29901, Note_off_c, 2, 78, 0
3, 29904, Note_on_c, 2, 81, 101
3, 29949, Note_off_c, 2, 81, 0
3, 29949, Note_off_c, 2, 62, 0
3, 29949, Note_off_c, 2, 57, 0
3, 29949, Note_off_c, 2, 54, 0
3, 29949, Note_off_c, 2, 50, 0
3, 29952, Note_on_c, 2, 50, 91
3, 29952, Note_on_c, 2, 54, 88
3, 29952, Note_on_c, 2, 57, 87
3, 29952, Note_on_c, 2, 62, 90
3, 29952, Note_on_c, 2, 86, 104
3, 30237, Note_off_c, 2, 57, 0
3, 30237, Note_off_c, 2, 54, 0
3, 30237, Note_off_c, 2, 50, 0
3, 30240, Note_on_c, 2, 47, 85
3, 30240, Note_on_c, 2, 54, 87
3, 30240, Note_on_c, 2, 57, 87
3, 30429, Note_off_c, 2, 86, 0
3, 30432, Note_on_c, 2, 83, 100
3, 30477, Note_off_c, 2, 83, 0
3, 30480, Note_on_c, 2, 81, 102
3, 30525, Note_off_c, 2, 81, 0
3, 30528, Note_on_c, 2, 78, 100
3, 30573, Note_off_c, 2, 78, 0
3, 30576, Note_on_c, 2, 76, 103
3, 30621, Note_off_c, 2, 76, 0
3, 30624, Note_on_c, 2, 74, 99
3, 30669, Note_off_c, 2, 74, 0
3, 30672, Note_on_c, 2, 78, 104
3, 30717, Note_off_c, 2, 78, 0
3, 30717, Note_off_c, 2, 62, 0
3, 30717, Note_off_c, 2, 57, 0
3, 30717, Note_off_c, 2, 54, 0
3, 30717, Note_off_c, 2, 47, 0
3, 30720, Note_on_c, 2, 45, 85
3, 30720, Note_on_c, 2, 55, 86
3, 30720, Note_on_c, 2, 59, 89
3, 30720, Note_on_c, 2, 62, 85
3, 30720, Note_on_c, 2, 83, 101
3, 31005, Note_off_c, 2, 83, 0
3, 31005, Note_off_c, 2, 59, 0
3, 31005, Note_off_c, 2, 55, 0
3, 31005, Note_off_c, 2, 45, 0
3, 31008, Note_on_c, 2, 50, 83
3, 31008, Note_on_c, 2, 54, 84
3, 31008, Note_on_c, 2, 57, 93
3, 31008, Note_on_c, 2, 81, 107
3, 31197, Note_off_c, 2, 81, 0
3, 31200, Note_on_c, 2, 69, 107
3, 31245, Note_off_c, 2, 69, 0
3, 31248, Note_on_c, 2, 71, 106
3, 31293, Note_off_c, 2, 71, 0
3, 31296, Note_on_c, 2, 74, 107
3, 31341, Note_off_c, 2, 74, 0
3, 31344, Note_on_c, 2, 76, 105
3, 31389, Note_off_c, 2, 76, 0
3, 31392, Note_on_c, 2, 78, 98
3, 31437, Note_off_c, 2, 78, 0
3, 31440, Note_on_c, 2, 81, 100
3, 31485, Note_off_c, 2, 81, 0
3, 31485, Note_off_c, 2, 62, 0
3, 31485, Note_off_c, 2, 57, 0
3, 31485, Note_off_c, 2, 54, 0
3, 31485, Note_off_c, 2, 50, 0
3, 31488, Note_on_c, 2, 54, 92
3, 31488, Note_on_c, 2, 64, 84
3, 31488, Note_on_c, 2, 69, 91
3, 31488, Note_on_c, 2, 81, 103
3, 31773, Note_off_c, 2, 81, 0
3, 31773, Note_off_c, 2, 69, 0
3, 31773, Note_off_c, 2, 64, 0
3, 31773, Note_off_c, 2, 54, 0
3, 31776, Note_on_c, 2, 52, 85
3, 31776, Note_on_c, 2, 62, 83
3, 31776, Note_on_c, 2, 67, 86
3, 31776, Note_on_c, 2, 79, 100
3, 31869, Note_off_c, 2, 79, 0
3, 31869, Note_off_c, 2, 67, 0
3, 31869, Note_off_c, 2, 62, 0
3, 31869, Note_off_c, 2, 52, 0
3, 33696, Note_on_c, 2, 62, 72
3, 33696, Note_on_c, 2, 74, 105
3, 33744, Note_on_c, 2, 64, 77
3, 33744, Note_on_c, 2, 76, 103
3, 33746, Note_off_c, 2, 74, 0
3, 33746, Note_off_c, 2, 62, 0
3, 33792, Note_on_c, 2, 66, 75
3, 33792, Note_on_c, 2, 78, 99
3, 33794, Note_off_c, 2, 76, 0
3, 33794, Note_off_c, 2, 64, 0
3, 33840, Note_on_c, 2, 69, 74
3, 33840, Note_on_c, 2, 81, 107
3, 33842, Note_off_c, 2, 78, 0
3, 33842, Note_off_c, 2, 66, 0
3, 33888, Note_on_c, 2, 71, 68
3, 33888, Note_on_c, 2, 83, 102
3, 33890, Note_off_c, 2, 81, 0
3, 33890, Note_off_c, 2, 69, 0
3, 33936, Note_on_c, 2, 74, 76
3, 33936, Note_on_c, 2, 86, 103
3, 33938, Note_off_c, 2, 83, 0
3, 33938, Note_off_c, 2, 71, 0
3, 33984, Note_on_c, 2, 50, 86
3, 33984, Note_on_c, 2, 57, 89
3, 33984, Note_on_c, 2, 62, 89
3, 33984, Note_on_c, 2, 66, 92
3, 33984, Note_on_c, 2, 90, 103
3, 33986, Note_off_c, 2, 86, 0
3, 33986, Note_off_c, 2, 74, 0
3, 34077, Note_off_c, 2, 90, 0
3, 34080, Note_on_c, 2, 91, 107
3, 34173, Note_off_c, 2, 91, 0
3, 34176, Note_on_c, 2, 90, 102
3, 34269, Note_off_c, 2, 90, 0
3, 34269, Note_off_c, 2, 66, 0
3, 34269, Note_off_c, 2, 57, 0
3, 34269, Note_off_c, 2, 50, 0
3, 34272, Note_on_c, 2, 47, 86
3, 34272, Note_on_c, 2, 57, 90
3, 34272, Note_on_c, 2, 66, 86
3, 34272, Note_on_c, 2, 86, 99
3, 34461, Note_off_c, 2, 86, 0
3, 34464, Note_on_c, 2, 83, 99
3, 34557, Note_off_c, 2, 83, 0
3, 34560, Note_on_c, 2, 81, 105
3, 34653, Note_off_c, 2, 81, 0
3, 34656, Note_on_c, 2, 83, 98
3, 34749, Note_off_c, 2, 83, 0
3, 34749, Note_off_c, 2, 66, 0
3, 34749, Note_off_c, 2, 62, 0
3, 34749, Note_off_c, 2, 57, 0
3, 34749, Note_off_c, 2, 47, 0
3, 34752, Note_on_c, 2, 45, 86
3, 34752, Note_on_c, 2, 59, 89
3, 34752, Note_on_c, 2, 62, 90
3, 34752, Note_on_c, 2, 67, 83
3, 34752, Note_on_c, 2, 79, 106
3, 34930, Note_off_c, 2, 79, 0
3, 34944, Note_on_c, 2, 79, 100
3, 35037, Note_off_c, 2, 79, 0
3, 35037, Note_off_c, 2, 67, 0
3, 35037, Note_off_c, 2, 59, 0
3, 35037, Note_off_c, 2, 45, 0
3, 35040, Note_on_c, 2, 50, 86
3, 35040, Note_on_c, 2, 57, 88
3, 35040, Note_on_c, 2, 66, 86
3, 35040, Note_on_c, 2, 78, 99
3, 35517, Note_off_c, 2, 62, 0
3, 36477, Note_off_c, 2, 78, 0
3, 36477, Note_off_c, 2, 66, 0
3, 36477, Note_off_c, 2, 57, 0
3, 36477, Note_off_c, 2, 50, 0
3, 37536, Control_c, 2, 120, 0
3, 37584, Control_c, 2, 123, 0
3, 37632, End_track
4, 0, Start_track
4, 0, Sequencer_specific, 5, 5, 15, 9, 76, 72
4, 0, Sequencer_specific, 15, 5, 15, 6, 71, 101, 110, 101, 114, 97, 108, 32, 77, 73, 68, 73
4, 0, Title_t, "Chart Position US R&B No.3"
4, 0, Control_c, 7, 0, 0
4, 0, Program_c, 7, 8
4, 192, Control_c, 7, 121, 0
4, 336, Pitch_bend_c, 7, 8192
4, 336, Control_c, 7, 11, 127
4, 350, Control_c, 7, 7, 104
4, 352, Control_c, 7, 10, 106
4, 354, Control_c, 7, 91, 80
4, 356, Control_c, 7, 93, 60
4, 770, Note_on_c, 7, 97, 102
4, 1001, Note_off_c, 7, 97, 0
4, 1057, Note_on_c, 7, 94, 96
4, 1476, Note_off_c, 7, 94, 0
4, 1536, Note_on_c, 7, 90, 105
4, 1790, Note_off_c, 7, 90, 0
4, 1825, Note_on_c, 7, 97, 91
4, 2227, Note_off_c, 7, 97, 0
4, 2304, Note_on_c, 7, 97, 102
4, 2561, Note_off_c, 7, 97, 0
4, 2592, Note_on_c, 7, 94, 98
4, 3018, Note_off_c, 7, 94, 0
4, 3072, Note_on_c, 7, 90, 95
4, 3353, Note_off_c, 7, 90, 0
4, 3361, Note_on_c, 7, 89, 77
4, 3639, Note_off_c, 7, 89, 0
4, 4034, Note_on_c, 7, 92, 82
4, 4115, Note_off_c, 7, 92, 0
4, 4129, Note_on_c, 7, 89, 77
4, 4307, Note_off_c, 7, 89, 0
4, 4321, Note_on_c, 7, 85, 83
4, 4499, Note_off_c, 7, 85, 0
4, 4513, Note_on_c, 7, 82, 82
4, 4594, Note_off_c, 7, 82, 0
4, 4608, Note_on_c, 7, 85, 79
4, 4787, Note_off_c, 7, 85, 0
4, 4802, Note_on_c, 7, 82, 84
4, 4893, Note_off_c, 7, 82, 0
4, 4897, Note_on_c, 7, 80, 83
4, 5316, Note_off_c, 7, 80, 0
4, 5474, Note_on_c, 7, 97, 83
4, 5555, Note_off_c, 7, 97, 0
4, 5570, Note_on_c, 7, 94, 80
4, 5651, Note_off_c, 7, 94, 0
4, 5666, Note_on_c, 7, 97, 79
4, 5747, Note_off_c, 7, 97, 0
4, 5858, Note_on_c, 7, 101, 79
4, 5939, Note_off_c, 7, 101, 0
4, 5954, Note_on_c, 7, 97, 77
4, 6035, Note_off_c, 7, 97, 0
4, 6050, Note_on_c, 7, 94, 78
4, 6131, Note_off_c, 7, 94, 0
4, 6146, Note_on_c, 7, 97, 75
4, 6323, Note_off_c, 7, 97, 0
4, 6338, Note_on_c, 7, 94, 77
4, 6419, Note_off_c, 7, 94, 0
4, 6434, Note_on_c, 7, 92, 83
4, 6515, Note_off_c, 7, 92, 0
4, 7106, Note_on_c, 7, 92, 83
4, 7187, Note_off_c, 7, 92, 0
4, 7201, Note_on_c, 7, 94, 80
4, 7379, Note_off_c, 7, 94, 0
4, 7393, Note_on_c, 7, 97, 77
4, 7486, Note_off_c, 7, 97, 0
4, 7489, Note_on_c, 7, 101, 80
4, 7667, Note_off_c, 7, 101, 0
4, 7680, Note_on_c, 7, 102, 85
4, 7859, Note_off_c, 7, 102, 0
4, 7874, Note_on_c, 7, 102, 79
4, 7965, Note_off_c, 7, 102, 0
4, 7969, Note_on_c, 7, 101, 84
4, 8388, Note_off_c, 7, 101, 0
4, 8450, Note_on_c, 7, 92, 76
4, 8531, Note_off_c, 7, 92, 0
4, 9218, Note_on_c, 7, 90, 79
4, 9395, Note_off_c, 7, 90, 0
4, 9410, Note_on_c, 7, 90, 79
4, 9491, Note_off_c, 7, 90, 0
4, 9506, Note_on_c, 7, 97, 76
4, 9779, Note_off_c, 7, 97, 0
4, 10272, Note_on_c, 7, 89, 67
4, 10274, Note_on_c, 7, 94, 90
4, 10737, Note_off_c, 7, 94, 0
4, 10737, Note_off_c, 7, 89, 0
4, 10752, Note_on_c, 7, 85, 84
4, 10754, Note_on_c, 7, 90, 87
4, 11025, Note_off_c, 7, 85, 0
4, 11027, Note_off_c, 7, 90, 0
4, 11040, Note_on_c, 7, 89, 80
4, 11042, Note_on_c, 7, 97, 83
4, 11313, Note_off_c, 7, 89, 0
4, 11315, Note_off_c, 7, 97, 0
4, 11714, Note_on_c, 7, 92, 84
4, 11795, Note_off_c, 7, 92, 0
4, 11809, Note_on_c, 7, 89, 84
4, 11987, Note_off_c, 7, 89, 0
4, 12001, Note_on_c, 7, 85, 85
4, 12179, Note_off_c, 7, 85, 0
4, 12193, Note_on_c, 7, 82, 77
4, 12274, Note_off_c, 7, 82, 0
4, 12288, Note_on_c, 7, 85, 81
4, 12467, Note_off_c, 7, 85, 0
4, 12482, Note_on_c, 7, 82, 81
4, 12573, Note_off_c, 7, 82, 0
4, 12577, Note_on_c, 7, 80, 83
4, 12996, Note_off_c, 7, 80, 0
4, 13154, Note_on_c, 7, 97, 82
4, 13235, Note_off_c, 7, 97, 0
4, 13250, Note_on_c, 7, 94, 79
4, 13331, Note_off_c, 7, 94, 0
4, 13346, Note_on_c, 7, 97, 84
4, 13427, Note_off_c, 7, 97, 0
4, 13538, Note_on_c, 7, 101, 80
4, 13619, Note_off_c, 7, 101, 0
4, 13634, Note_on_c, 7, 97, 80
4, 13715, Note_off_c, 7, 97, 0
4, 13730, Note_on_c, 7, 94, 78
4, 13811, Note_off_c, 7, 94, 0
4, 13826, Note_on_c, 7, 97, 86
4, 14003, Note_off_c, 7, 97, 0
4, 14018, Note_on_c, 7, 94, 79
4, 14099, Note_off_c, 7, 94, 0
4, 14114, Note_on_c, 7, 92, 82
4, 14195, Note_off_c, 7, 92, 0
4, 14786, Note_on_c, 7, 92, 84
4, 14867, Note_off_c, 7, 92, 0
4, 14881, Note_on_c, 7, 94, 77
4, 15059, Note_off_c, 7, 94, 0
4, 15073, Note_on_c, 7, 97, 84
4, 15166, Note_off_c, 7, 97, 0
4, 15169, Note_on_c, 7, 101, 77
4, 15347, Note_off_c, 7, 101, 0
4, 15360, Note_on_c, 7, 102, 83
4, 15539, Note_off_c, 7, 102, 0
4, 15554, Note_on_c, 7, 102, 82
4, 15645, Note_off_c, 7, 102, 0
4, 15649, Note_on_c, 7, 101, 78
4, 16068, Note_off_c, 7, 101, 0
4, 16130, Note_on_c, 7, 92, 86
4, 16211, Note_off_c, 7, 92, 0
4, 16898, Note_on_c, 7, 90, 77
4, 17075, Note_off_c, 7, 90, 0
4, 17090, Note_on_c, 7, 90, 80
4, 17171, Note_off_c, 7, 90, 0
4, 17186, Note_on_c, 7, 97, 85
4, 17459, Note_off_c, 7, 97, 0
4, 17664, Note_on_c, 7, 92, 74
4, 17666, Note_on_c, 7, 97, 95
4, 17937, Note_off_c, 7, 97, 0
4, 17937, Note_off_c, 7, 92, 0
4, 17952, Note_on_c, 7, 89, 75
4, 17954, Note_on_c, 7, 94, 88
4, 18417, Note_off_c, 7, 94, 0
4, 18417, Note_off_c, 7, 89, 0
4, 18432, Note_on_c, 7, 85, 79
4, 18434, Note_on_c, 7, 90, 91
4, 18705, Note_off_c, 7, 85, 0
4, 18707, Note_off_c, 7, 90, 0
4, 18720, Note_on_c, 7, 89, 81
4, 18722, Note_on_c, 7, 97, 88
4, 18993, Note_off_c, 7, 89, 0
4, 18995, Note_off_c, 7, 97, 0
4, 19200, Note_on_c, 7, 93, 72
4, 19202, Note_on_c, 7, 98, 97
4, 19473, Note_off_c, 7, 98, 0
4, 19473, Note_off_c, 7, 93, 0
4, 19488, Note_on_c, 7, 95, 65
4, 19490, Note_on_c, 7, 102, 95
4, 19953, Note_off_c, 7, 102, 0
4, 19953, Note_off_c, 7, 95, 0
4, 19968, Note_on_c, 7, 91, 81
4, 19970, Note_on_c, 7, 98, 90
4, 20049, Note_off_c, 7, 91, 0
4, 20051, Note_off_c, 7, 98, 0
4, 20064, Note_on_c, 7, 91, 86
4, 20066, Note_on_c, 7, 98, 94
4, 20241, Note_off_c, 7, 91, 0
4, 20243, Note_off_c, 7, 98, 0
4, 20256, Note_on_c, 7, 90, 79
4, 20258, Note_on_c, 7, 98, 92
4, 20529, Note_off_c, 7, 90, 0
4, 20531, Note_off_c, 7, 98, 0
4, 20930, Note_on_c, 7, 93, 84
4, 21011, Note_off_c, 7, 93, 0
4, 21025, Note_on_c, 7, 90, 88
4, 21203, Note_off_c, 7, 90, 0
4, 21217, Note_on_c, 7, 86, 81
4, 21395, Note_off_c, 7, 86, 0
4, 21409, Note_on_c, 7, 83, 82
4, 21490, Note_off_c, 7, 83, 0
4, 21504, Note_on_c, 7, 86, 88
4, 21683, Note_off_c, 7, 86, 0
4, 21698, Note_on_c, 7, 83, 83
4, 21789, Note_off_c, 7, 83, 0
4, 21793, Note_on_c, 7, 81, 80
4, 22212, Note_off_c, 7, 81, 0
4, 22370, Note_on_c, 7, 98, 87
4, 22451, Note_off_c, 7, 98, 0
4, 22466, Note_on_c, 7, 95, 79
4, 22547, Note_off_c, 7, 95, 0
4, 22562, Note_on_c, 7, 98, 83
4, 22643, Note_off_c, 7, 98, 0
4, 22754, Note_on_c, 7, 102, 81
4, 22835, Note_off_c, 7, 102, 0
4, 22850, Note_on_c, 7, 98, 88
4, 22931, Note_off_c, 7, 98, 0
4, 22946, Note_on_c, 7, 95, 83
4, 23027, Note_off_c, 7, 95, 0
4, 23042, Note_on_c, 7, 98, 84
4, 23219, Note_off_c, 7, 98, 0
4, 23234, Note_on_c, 7, 95, 81
4, 23315, Note_off_c, 7, 95, 0
4, 23330, Note_on_c, 7, 93, 79
4, 23411, Note_off_c, 7, 93, 0
4, 24002, Note_on_c, 7, 93, 83
4, 24083, Note_off_c, 7, 93, 0
4, 24097, Note_on_c, 7, 95, 88
4, 24275, Note_off_c, 7, 95, 0
4, 24289, Note_on_c, 7, 98, 82
4, 24382, Note_off_c, 7, 98, 0
4, 24385, Note_on_c, 7, 102, 88
4, 24563, Note_off_c, 7, 102, 0
4, 24576, Note_on_c, 7, 103, 91
4, 24755, Note_off_c, 7, 103, 0
4, 24770, Note_on_c, 7, 103, 80
4, 24861, Note_off_c, 7, 103, 0
4, 24865, Note_on_c, 7, 102, 81
4, 25284, Note_off_c, 7, 102, 0
4, 25346, Note_on_c, 7, 93, 79
4, 25427, Note_off_c, 7, 93, 0
4, 26114, Note_on_c, 7, 91, 84
4, 26291, Note_off_c, 7, 91, 0
4, 26306, Note_on_c, 7, 91, 81
4, 26387, Note_off_c, 7, 91, 0
4, 26402, Note_on_c, 7, 98, 81
4, 26675, Note_off_c, 7, 98, 0
4, 27074, Note_on_c, 7, 93, 82
4, 27155, Note_off_c, 7, 93, 0
4, 27169, Note_on_c, 7, 90, 91
4, 27347, Note_off_c, 7, 90, 0
4, 27361, Note_on_c, 7, 86, 89
4, 27539, Note_off_c, 7, 86, 0
4, 27553, Note_on_c, 7, 83, 90
4, 27634, Note_off_c, 7, 83, 0
4, 27648, Note_on_c, 7, 86, 89
4, 27827, Note_off_c, 7, 86, 0
4, 27842, Note_on_c, 7, 83, 90
4, 27933, Note_off_c, 7, 83, 0
4, 27937, Note_on_c, 7, 81, 81
4, 28356, Note_off_c, 7, 81, 0
4, 28514, Note_on_c, 7, 98, 88
4, 28595, Note_off_c, 7, 98, 0
4, 28610, Note_on_c, 7, 95, 84
4, 28691, Note_off_c, 7, 95, 0
4, 28706, Note_on_c, 7, 98, 83
4, 28787, Note_off_c, 7, 98, 0
4, 28898, Note_on_c, 7, 102, 85
4, 28979, Note_off_c, 7, 102, 0
4, 28994, Note_on_c, 7, 98, 82
4, 29075, Note_off_c, 7, 98, 0
4, 29090, Note_on_c, 7, 95, 86
4, 29171, Note_off_c, 7, 95, 0
4, 29186, Note_on_c, 7, 98, 85
4, 29363, Note_off_c, 7, 98, 0
4, 29378, Note_on_c, 7, 95, 82
4, 29459, Note_off_c, 7, 95, 0
4, 29474, Note_on_c, 7, 93, 85
4, 29555, Note_off_c, 7, 93, 0
4, 30146, Note_on_c, 7, 93, 83
4, 30227, Note_off_c, 7, 93, 0
4, 30241, Note_on_c, 7, 95, 85
4, 30419, Note_off_c, 7, 95, 0
4, 30433, Note_on_c, 7, 98, 87
4, 30526, Note_off_c, 7, 98, 0
4, 30529, Note_on_c, 7, 102, 85
4, 30707, Note_off_c, 7, 102, 0
4, 30720, Note_on_c, 7, 103, 89
4, 30899, Note_off_c, 7, 103, 0
4, 30914, Note_on_c, 7, 103, 89
4, 31005, Note_off_c, 7, 103, 0
4, 31009, Note_on_c, 7, 102, 83
4, 31428, Note_off_c, 7, 102, 0
4, 31490, Note_on_c, 7, 93, 83
4, 31763, Note_off_c, 7, 93, 0
4, 31778, Note_on_c, 7, 91, 86
4, 31859, Note_off_c, 7, 91, 0
4, 33986, Note_on_c, 7, 90, 85
4, 34211, Note_off_c, 7, 90, 0
4, 34273, Note_on_c, 7, 95, 84
4, 34547, Note_off_c, 7, 95, 0
4, 34752, Note_on_c, 7, 103, 90
4, 34931, Note_off_c, 7, 103, 0
4, 34946, Note_on_c, 7, 103, 85
4, 35037, Note_off_c, 7, 103, 0
4, 35041, Note_on_c, 7, 102, 89
4, 35253, Note_on_c, 7, 74, 66
4, 35346, Note_on_c, 7, 78, 75
4, 35455, Note_on_c, 7, 81, 67
4, 35460, Note_off_c, 7, 102, 0
4, 35565, Note_on_c, 7, 86, 72
4, 35683, Note_on_c, 7, 90, 65
4, 35822, Note_on_c, 7, 93, 65
4, 35992, Note_on_c, 7, 98, 62
4, 36447, Note_off_c, 7, 78, 0
4, 36449, Note_off_c, 7, 81, 0
4, 36452, Note_off_c, 7, 90, 0
4, 36453, Note_off_c, 7, 93, 0
4, 36455, Note_off_c, 7, 86, 0
4, 36456, Note_off_c, 7, 74, 0
4, 36457, Note_off_c, 7, 98, 0
4, 37536, Control_c, 7, 120, 0
4, 37584, Control_c, 7, 123, 0
4, 37632, End_track
5, 0, Start_track
5, 0, Sequencer_specific, 5, 5, 15, 9, 12, 64
5, 0, Sequencer_specific, 15, 5, 15, 6, 71, 101, 110, 101, 114, 97, 108, 32, 77, 73, 68, 73
5, 0, Title_t, "From The Album ""People Get Ready"""
5, 0, Control_c, 6, 0, 0
5, 0, Program_c, 6, 57
5, 192, Control_c, 6, 121, 0
5, 288, Pitch_bend_c, 6, 8192
5, 288, Control_c, 6, 11, 127
5, 301, Control_c, 6, 7, 96
5, 303, Control_c, 6, 10, 92
5, 305, Control_c, 6, 91, 90
5, 307, Control_c, 6, 93, 0
5, 768, Note_on_c, 6, 65, 119
5, 855, Note_off_c, 6, 65, 0
5, 864, Note_on_c, 6, 66, 120
5, 950, Note_off_c, 6, 66, 0
5, 960, Note_on_c, 6, 65, 118
5, 1049, Note_off_c, 6, 65, 0
5, 1056, Note_on_c, 6, 61, 121
5, 1245, Note_off_c, 6, 61, 0
5, 1248, Note_on_c, 6, 58, 111
5, 1337, Note_off_c, 6, 58, 0
5, 1344, Note_on_c, 6, 56, 111
5, 1432, Note_off_c, 6, 56, 0
5, 1440, Note_on_c, 6, 58, 115
5, 1529, Note_off_c, 6, 58, 0
5, 1536, Note_on_c, 6, 61, 112
5, 1724, Note_off_c, 6, 61, 0
5, 1728, Note_on_c, 6, 58, 115
5, 1817, Note_off_c, 6, 58, 0
5, 1824, Note_on_c, 6, 61, 121
5, 2163, Note_off_c, 6, 61, 0
5, 2304, Note_on_c, 6, 65, 114
5, 2391, Note_off_c, 6, 65, 0
5, 2400, Note_on_c, 6, 66, 117
5, 2486, Note_off_c, 6, 66, 0
5, 2496, Note_on_c, 6, 65, 115
5, 2585, Note_off_c, 6, 65, 0
5, 2592, Note_on_c, 6, 61, 119
5, 2781, Note_off_c, 6, 61, 0
5, 2784, Note_on_c, 6, 58, 108
5, 2873, Note_off_c, 6, 58, 0
5, 2880, Note_on_c, 6, 56, 110
5, 2968, Note_off_c, 6, 56, 0
5, 2976, Note_on_c, 6, 58, 113
5, 3065, Note_off_c, 6, 58, 0
5, 3072, Note_on_c, 6, 61, 116
5, 3260, Note_off_c, 6, 61, 0
5, 3264, Note_on_c, 6, 58, 116
5, 3353, Note_off_c, 6, 58, 0
5, 3360, Note_on_c, 6, 61, 117
5, 3699, Note_off_c, 6, 61, 0
5, 3840, Note_on_c, 6, 68, 113
5, 4551, Note_off_c, 6, 68, 0
5, 4608, Note_on_c, 6, 66, 106
5, 4858, Note_off_c, 6, 66, 0
5, 4896, Note_on_c, 6, 65, 112
5, 5338, Note_off_c, 6, 65, 0
5, 5376, Note_on_c, 6, 68, 108
5, 6087, Note_off_c, 6, 68, 0
5, 6144, Note_on_c, 6, 66, 113
5, 6394, Note_off_c, 6, 66, 0
5, 6432, Note_on_c, 6, 65, 112
5, 6826, Note_off_c, 6, 65, 0
5, 6912, Note_on_c, 6, 68, 107
5, 7623, Note_off_c, 6, 68, 0
5, 7680, Note_on_c, 6, 66, 109
5, 7930, Note_off_c, 6, 66, 0
5, 7968, Note_on_c, 6, 65, 105
5, 8410, Note_off_c, 6, 65, 0
5, 8448, Note_on_c, 6, 68, 110
5, 8826, Note_off_c, 6, 68, 0
5, 8832, Note_on_c, 6, 66, 105
5, 9210, Note_off_c, 6, 66, 0
5, 9216, Note_on_c, 6, 66, 113
5, 9381, Note_off_c, 6, 66, 0
5, 9408, Note_on_c, 6, 66, 109
5, 9488, Note_off_c, 6, 66, 0
5, 9504, Note_on_c, 6, 65, 115
5, 9706, Note_off_c, 6, 65, 0
5, 11520, Note_on_c, 6, 68, 116
5, 12231, Note_off_c, 6, 68, 0
5, 12288, Note_on_c, 6, 66, 115
5, 12538, Note_off_c, 6, 66, 0
5, 12576, Note_on_c, 6, 65, 112
5, 13018, Note_off_c, 6, 65, 0
5, 13056, Note_on_c, 6, 68, 110
5, 13767, Note_off_c, 6, 68, 0
5, 13824, Note_on_c, 6, 66, 116
5, 14074, Note_off_c, 6, 66, 0
5, 14112, Note_on_c, 6, 65, 109
5, 14506, Note_off_c, 6, 65, 0
5, 14592, Note_on_c, 6, 68, 110
5, 15303, Note_off_c, 6, 68, 0
5, 15360, Note_on_c, 6, 66, 108
5, 15610, Note_off_c, 6, 66, 0
5, 15648, Note_on_c, 6, 65, 116
5, 16090, Note_off_c, 6, 65, 0
5, 16128, Note_on_c, 6, 68, 112
5, 16506, Note_off_c, 6, 68, 0
5, 16512, Note_on_c, 6, 66, 109
5, 16890, Note_off_c, 6, 66, 0
5, 16896, Note_on_c, 6, 66, 111
5, 17061, Note_off_c, 6, 66, 0
5, 17088, Note_on_c, 6, 66, 108
5, 17168, Note_off_c, 6, 66, 0
5, 17184, Note_on_c, 6, 65, 111
5, 17386, Note_off_c, 6, 65, 0
5, 20736, Note_on_c, 6, 69, 111
5, 21447, Note_off_c, 6, 69, 0
5, 21504, Note_on_c, 6, 67, 118
5, 21754, Note_off_c, 6, 67, 0
5, 21792, Note_on_c, 6, 66, 110
5, 22234, Note_off_c, 6, 66, 0
5, 22272, Note_on_c, 6, 69, 112
5, 22522, Note_off_c, 6, 69, 0
5, 22560, Note_on_c, 6, 66, 117
5, 22954, Note_off_c, 6, 66, 0
5, 23040, Note_on_c, 6, 67, 114
5, 23290, Note_off_c, 6, 67, 0
5, 23328, Note_on_c, 6, 66, 112
5, 23722, Note_off_c, 6, 66, 0
5, 23808, Note_on_c, 6, 69, 110
5, 24519, Note_off_c, 6, 69, 0
5, 24576, Note_on_c, 6, 67, 118
5, 24826, Note_off_c, 6, 67, 0
5, 24864, Note_on_c, 6, 66, 109
5, 25306, Note_off_c, 6, 66, 0
5, 25344, Note_on_c, 6, 69, 112
5, 25722, Note_off_c, 6, 69, 0
5, 25728, Note_on_c, 6, 67, 109
5, 26106, Note_off_c, 6, 67, 0
5, 26112, Note_on_c, 6, 67, 118
5, 26277, Note_off_c, 6, 67, 0
5, 26304, Note_on_c, 6, 67, 113
5, 26384, Note_off_c, 6, 67, 0
5, 26400, Note_on_c, 6, 66, 112
5, 26602, Note_off_c, 6, 66, 0
5, 26880, Note_on_c, 6, 69, 120
5, 27591, Note_off_c, 6, 69, 0
5, 27648, Note_on_c, 6, 67, 111
5, 27898, Note_off_c, 6, 67, 0
5, 27936, Note_on_c, 6, 66, 115
5, 28378, Note_off_c, 6, 66, 0
5, 28416, Note_on_c, 6, 69, 112
5, 29127, Note_off_c, 6, 69, 0
5, 29184, Note_on_c, 6, 67, 113
5, 29434, Note_off_c, 6, 67, 0
5, 29472, Note_on_c, 6, 66, 116
5, 29866, Note_off_c, 6, 66, 0
5, 29952, Note_on_c, 6, 69, 120
5, 30663, Note_off_c, 6, 69, 0
5, 30720, Note_on_c, 6, 67, 120
5, 30970, Note_off_c, 6, 67, 0
5, 31008, Note_on_c, 6, 66, 118
5, 31450, Note_off_c, 6, 66, 0
5, 31488, Note_on_c, 6, 69, 115
5, 31770, Note_off_c, 6, 69, 0
5, 31776, Note_on_c, 6, 67, 117
5, 31866, Note_off_c, 6, 67, 0
5, 33984, Note_on_c, 6, 69, 115
5, 34695, Note_off_c, 6, 69, 0
5, 34752, Note_on_c, 6, 67, 119
5, 34906, Note_off_c, 6, 67, 0
5, 34944, Note_on_c, 6, 67, 112
5, 35040, Note_on_c, 6, 66, 108
5, 35063, Note_off_c, 6, 67, 0
5, 36470, Note_off_c, 6, 66, 0
5, 37536, Control_c, 6, 120, 0
5, 37584, Control_c, 6, 123, 0
5, 37632, End_track
6, 0, Start_track
6, 0, Sequencer_specific, 5, 5, 15, 9, 12, 64
6, 0, Sequencer_specific, 15, 5, 15, 6, 71, 101, 110, 101, 114, 97, 108, 32, 77, 73, 68, 73
6, 0, Title_t, "New Mix by Estrada 23rd January 2013"
6, 0, Control_c, 5, 7, 127
6, 0, Program_c, 5, 54
6, 0, Control_c, 5, 10, 17
6, 192, Control_c, 5, 121, 0
6, 384, Pitch_bend_c, 5, 8192
6, 384, Control_c, 5, 11, 127
6, 398, Control_c, 5, 91, 94
6, 400, Control_c, 5, 93, 36
6, 768, Note_on_c, 5, 61, 108
6, 1001, Note_off_c, 5, 61, 0
6, 1056, Note_on_c, 5, 65, 109
6, 1460, Note_off_c, 5, 65, 0
6, 1536, Note_on_c, 5, 61, 105
6, 1781, Note_off_c, 5, 61, 0
6, 1824, Note_on_c, 5, 58, 94
6, 2010, Note_off_c, 5, 58, 0
6, 2016, Note_on_c, 5, 56, 98
6, 2273, Note_off_c, 5, 56, 0
6, 2304, Note_on_c, 5, 61, 96
6, 2586, Note_off_c, 5, 61, 0
6, 2592, Note_on_c, 5, 65, 98
6, 3015, Note_off_c, 5, 65, 0
6, 3072, Note_on_c, 5, 61, 108
6, 3335, Note_off_c, 5, 61, 0
6, 3360, Note_on_c, 5, 61, 103
6, 3750, Note_off_c, 5, 61, 0
6, 20736, Note_on_c, 5, 62, 101
6, 21013, Note_off_c, 5, 62, 0
6, 21024, Note_on_c, 5, 66, 116
6, 21421, Note_off_c, 5, 66, 0
6, 21504, Note_on_c, 5, 62, 115
6, 21789, Note_off_c, 5, 62, 0
6, 21792, Note_on_c, 5, 59, 122
6, 21970, Note_off_c, 5, 59, 0
6, 21984, Note_on_c, 5, 57, 117
6, 22196, Note_off_c, 5, 57, 0
6, 22272, Note_on_c, 5, 62, 99
6, 22549, Note_off_c, 5, 62, 0
6, 22560, Note_on_c, 5, 66, 116
6, 22925, Note_off_c, 5, 66, 0
6, 27552, Control_c, 5, 120, 0
6, 27600, Control_c, 5, 123, 0
6, 27648, End_track
7, 0, Start_track
7, 0, Sequencer_specific, 5, 5, 15, 9, 12, 64
7, 0, Sequencer_specific, 15, 5, 15, 6, 71, 101, 110, 101, 114, 97, 108, 32, 77, 73, 68, 73
7, 0, Title_t, "Choir Aahs"
7, 0, Program_c, 4, 52
7, 192, Control_c, 4, 121, 0
7, 373, Control_c, 4, 7, 104
7, 375, Control_c, 4, 10, 92
7, 378, Control_c, 4, 91, 90
7, 380, Control_c, 4, 93, 50
7, 384, Pitch_bend_c, 4, 8192
7, 384, Control_c, 4, 11, 127
7, 6152, Note_on_c, 4, 61, 113
7, 6152, Note_on_c, 4, 66, 120
7, 6242, Note_off_c, 4, 66, 0
7, 6242, Note_off_c, 4, 61, 0
7, 6248, Note_on_c, 4, 61, 106
7, 6248, Note_on_c, 4, 66, 113
7, 6440, Note_off_c, 4, 66, 0
7, 6440, Note_off_c, 4, 61, 0
7, 6444, Note_on_c, 4, 61, 102
7, 6444, Note_on_c, 4, 65, 111
7, 6504, Note_off_c, 4, 65, 0
7, 6504, Note_off_c, 4, 61, 0
7, 9219, Note_on_c, 4, 61, 100
7, 9219, Note_on_c, 4, 66, 118
7, 9410, Note_off_c, 4, 66, 0
7, 9410, Note_off_c, 4, 61, 0
7, 9414, Note_on_c, 4, 61, 107
7, 9414, Note_on_c, 4, 66, 117
7, 9498, Note_off_c, 4, 66, 0
7, 9498, Note_off_c, 4, 61, 0
7, 9514, Note_on_c, 4, 61, 108
7, 9514, Note_on_c, 4, 65, 123
7, 9680, Note_off_c, 4, 65, 0
7, 9680, Note_off_c, 4, 61, 0
7, 13832, Note_on_c, 4, 61, 117
7, 13832, Note_on_c, 4, 66, 118
7, 14018, Note_off_c, 4, 66, 0
7, 14018, Note_off_c, 4, 61, 0
7, 14024, Note_on_c, 4, 61, 107
7, 14024, Note_on_c, 4, 66, 112
7, 14120, Note_off_c, 4, 66, 0
7, 14120, Note_off_c, 4, 61, 0
7, 14124, Note_on_c, 4, 61, 112
7, 14124, Note_on_c, 4, 65, 118
7, 14195, Note_off_c, 4, 65, 0
7, 14195, Note_off_c, 4, 61, 0
7, 16899, Note_on_c, 4, 61, 110
7, 16899, Note_on_c, 4, 66, 119
7, 17090, Note_off_c, 4, 66, 0
7, 17090, Note_off_c, 4, 61, 0
7, 17094, Note_on_c, 4, 61, 112
7, 17094, Note_on_c, 4, 66, 121
7, 17178, Note_off_c, 4, 66, 0
7, 17178, Note_off_c, 4, 61, 0
7, 17194, Note_on_c, 4, 61, 106
7, 17194, Note_on_c, 4, 65, 116
7, 17360, Note_off_c, 4, 65, 0
7, 17360, Note_off_c, 4, 61, 0
7, 22942, Note_on_c, 4, 57, 118
7, 22987, Note_off_c, 4, 57, 0
7, 22990, Note_on_c, 4, 59, 114
7, 23045, Note_off_c, 4, 59, 0
7, 23048, Note_on_c, 4, 55, 116
7, 23048, Note_on_c, 4, 62, 127
7, 23234, Note_off_c, 4, 62, 0
7, 23234, Note_off_c, 4, 55, 0
7, 23240, Note_on_c, 4, 55, 102
7, 23240, Note_on_c, 4, 59, 118
7, 23336, Note_off_c, 4, 59, 0
7, 23336, Note_off_c, 4, 55, 0
7, 23340, Note_on_c, 4, 54, 111
7, 23340, Note_on_c, 4, 57, 119
7, 23411, Note_off_c, 4, 57, 0
7, 23411, Note_off_c, 4, 54, 0
7, 26115, Note_on_c, 4, 62, 104
7, 26115, Note_on_c, 4, 67, 116
7, 26306, Note_off_c, 4, 67, 0
7, 26306, Note_off_c, 4, 62, 0
7, 26310, Note_on_c, 4, 62, 114
7, 26310, Note_on_c, 4, 67, 127
7, 26394, Note_off_c, 4, 67, 0
7, 26394, Note_off_c, 4, 62, 0
7, 26410, Note_on_c, 4, 62, 113
7, 26410, Note_on_c, 4, 66, 125
7, 26576, Note_off_c, 4, 66, 0
7, 26576, Note_off_c, 4, 62, 0
7, 26785, Note_on_c, 4, 57, 122
7, 26877, Note_off_c, 4, 57, 0
7, 26880, Note_on_c, 4, 62, 123
7, 26880, Note_on_c, 4, 66, 121
7, 26965, Note_off_c, 4, 66, 0
7, 26965, Note_off_c, 4, 62, 0
7, 26975, Note_on_c, 4, 64, 121
7, 26975, Note_on_c, 4, 67, 120
7, 27052, Note_off_c, 4, 67, 0
7, 27052, Note_off_c, 4, 64, 0
7, 27071, Note_on_c, 4, 62, 126
7, 27071, Note_on_c, 4, 66, 127
7, 27140, Note_off_c, 4, 66, 0
7, 27140, Note_off_c, 4, 62, 0
7, 27166, Note_on_c, 4, 61, 123
7, 27166, Note_on_c, 4, 64, 119
7, 27323, Note_off_c, 4, 64, 0
7, 27323, Note_off_c, 4, 61, 0
7, 27328, Note_on_c, 4, 59, 117
7, 27328, Note_on_c, 4, 62, 117
7, 27372, Note_off_c, 4, 62, 0
7, 27372, Note_off_c, 4, 59, 0
7, 27554, Note_on_c, 4, 57, 115
7, 27592, Note_off_c, 4, 57, 0
7, 27595, Note_on_c, 4, 59, 122
7, 27639, Note_off_c, 4, 59, 0
7, 27656, Note_on_c, 4, 59, 126
7, 27656, Note_on_c, 4, 62, 120
7, 27829, Note_off_c, 4, 62, 0
7, 27829, Note_off_c, 4, 59, 0
7, 27843, Note_on_c, 4, 55, 121
7, 27843, Note_on_c, 4, 59, 122
7, 27907, Note_off_c, 4, 59, 0
7, 27907, Note_off_c, 4, 55, 0
7, 27938, Note_on_c, 4, 61, 121
7, 27938, Note_on_c, 4, 64, 127
7, 28088, Note_off_c, 4, 64, 0
7, 28088, Note_off_c, 4, 61, 0
7, 28091, Note_on_c, 4, 62, 113
7, 28091, Note_on_c, 4, 66, 117
7, 28118, Note_off_c, 4, 66, 0
7, 28118, Note_off_c, 4, 62, 0
7, 28376, Note_on_c, 4, 57, 113
7, 28403, Note_off_c, 4, 57, 0
7, 28416, Note_on_c, 4, 62, 125
7, 28416, Note_on_c, 4, 66, 127
7, 28501, Note_off_c, 4, 66, 0
7, 28501, Note_off_c, 4, 62, 0
7, 28511, Note_on_c, 4, 64, 118
7, 28511, Note_on_c, 4, 67, 120
7, 28588, Note_off_c, 4, 67, 0
7, 28588, Note_off_c, 4, 64, 0
7, 28607, Note_on_c, 4, 62, 123
7, 28607, Note_on_c, 4, 66, 127
7, 28676, Note_off_c, 4, 66, 0
7, 28676, Note_off_c, 4, 62, 0
7, 28702, Note_on_c, 4, 61, 122
7, 28702, Note_on_c, 4, 64, 127
7, 28859, Note_off_c, 4, 64, 0
7, 28859, Note_off_c, 4, 61, 0
7, 28864, Note_on_c, 4, 59, 118
7, 28864, Note_on_c, 4, 62, 125
7, 28908, Note_off_c, 4, 62, 0
7, 28908, Note_off_c, 4, 59, 0
7, 29042, Note_on_c, 4, 57, 115
7, 29080, Note_off_c, 4, 57, 0
7, 29083, Note_on_c, 4, 59, 122
7, 29148, Note_off_c, 4, 59, 0
7, 29192, Note_on_c, 4, 62, 124
7, 29192, Note_on_c, 4, 67, 127
7, 29270, Note_off_c, 4, 67, 0
7, 29270, Note_off_c, 4, 62, 0
7, 29283, Note_on_c, 4, 62, 126
7, 29283, Note_on_c, 4, 67, 119
7, 29454, Note_off_c, 4, 67, 0
7, 29454, Note_off_c, 4, 62, 0
7, 29474, Note_on_c, 4, 62, 121
7, 29474, Note_on_c, 4, 66, 114
7, 29538, Note_off_c, 4, 66, 0
7, 29538, Note_off_c, 4, 62, 0
7, 29858, Note_on_c, 4, 59, 118
7, 29889, Note_off_c, 4, 59, 0
7, 29901, Note_on_c, 4, 62, 113
7, 29943, Note_off_c, 4, 62, 0
7, 29967, Note_on_c, 4, 62, 120
7, 29967, Note_on_c, 4, 66, 123
7, 30041, Note_off_c, 4, 66, 0
7, 30041, Note_off_c, 4, 62, 0
7, 30055, Note_on_c, 4, 66, 117
7, 30055, Note_on_c, 4, 69, 117
7, 30205, Note_off_c, 4, 69, 0
7, 30205, Note_off_c, 4, 66, 0
7, 30238, Note_on_c, 4, 62, 126
7, 30238, Note_on_c, 4, 66, 126
7, 30348, Note_off_c, 4, 66, 0
7, 30348, Note_off_c, 4, 62, 0
7, 30729, Note_on_c, 4, 59, 117
7, 30729, Note_on_c, 4, 62, 124
7, 30923, Note_off_c, 4, 62, 0
7, 30923, Note_off_c, 4, 59, 0
7, 30926, Note_on_c, 4, 55, 117
7, 30926, Note_on_c, 4, 59, 117
7, 31001, Note_off_c, 4, 59, 0
7, 31001, Note_off_c, 4, 55, 0
7, 31016, Note_on_c, 4, 61, 125
7, 31016, Note_on_c, 4, 64, 121
7, 31140, Note_off_c, 4, 64, 0
7, 31140, Note_off_c, 4, 61, 0
7, 31143, Note_on_c, 4, 62, 126
7, 31143, Note_on_c, 4, 66, 125
7, 31175, Note_off_c, 4, 66, 0
7, 31175, Note_off_c, 4, 62, 0
7, 31495, Note_on_c, 4, 67, 123
7, 31495, Note_on_c, 4, 71, 127
7, 31560, Note_off_c, 4, 71, 0
7, 31560, Note_off_c, 4, 67, 0
7, 31583, Note_on_c, 4, 66, 127
7, 31583, Note_on_c, 4, 69, 122
7, 31667, Note_off_c, 4, 69, 0
7, 31667, Note_off_c, 4, 66, 0
7, 31675, Note_on_c, 4, 62, 116
7, 31675, Note_on_c, 4, 66, 117
7, 31745, Note_off_c, 4, 66, 0
7, 31745, Note_off_c, 4, 62, 0
7, 31777, Note_on_c, 4, 61, 120
7, 31777, Note_on_c, 4, 64, 118
7, 31843, Note_off_c, 4, 64, 0
7, 31843, Note_off_c, 4, 61, 0
7, 31855, Note_on_c, 4, 59, 127
7, 31855, Note_on_c, 4, 62, 127
7, 31951, Note_off_c, 4, 62, 0
7, 31951, Note_off_c, 4, 59, 0
7, 31958, Note_on_c, 4, 55, 125
7, 31958, Note_on_c, 4, 59, 118
7, 31999, Note_off_c, 4, 59, 0
7, 31999, Note_off_c, 4, 55, 0
7, 32812, Note_on_c, 4, 62, 125
7, 32812, Note_on_c, 4, 67, 120
7, 33034, Note_off_c, 4, 67, 0
7, 33034, Note_off_c, 4, 62, 0
7, 33059, Note_on_c, 4, 62, 118
7, 33059, Note_on_c, 4, 67, 119
7, 33161, Note_off_c, 4, 67, 0
7, 33161, Note_off_c, 4, 62, 0
7, 33179, Note_on_c, 4, 62, 116
7, 33179, Note_on_c, 4, 66, 113
7, 34749, Note_off_c, 4, 66, 0
7, 34749, Note_off_c, 4, 62, 0
7, 37536, Control_c, 4, 120, 0
7, 37584, Control_c, 4, 123, 0
7, 37632, End_track
8, 0, Start_track
8, 0, Sequencer_specific, 5, 5, 15, 9, 12, 64
8, 0, Sequencer_specific, 15, 5, 15, 6, 71, 101, 110, 101, 114, 97, 108, 32, 77, 73, 68, 73
8, 0, Title_t, "Electric Guitar(Jazz)"
8, 0, Control_c, 3, 0, 0
8, 0, Program_c, 3, 26
8, 192, Control_c, 3, 121, 0
8, 279, Control_c, 3, 7, 126
8, 281, Control_c, 3, 10, 64
8, 283, Control_c, 3, 91, 90
8, 285, Control_c, 3, 93, 0
8, 288, Pitch_bend_c, 3, 8192
8, 288, Control_c, 3, 11, 127
8, 4119, Note_on_c, 3, 77, 117
8, 4161, Note_off_c, 3, 77, 0
8, 4186, Note_on_c, 3, 78, 106
8, 4215, Note_off_c, 3, 78, 0
8, 4239, Note_on_c, 3, 77, 108
8, 4271, Note_off_c, 3, 77, 0
8, 4308, Note_on_c, 3, 73, 104
8, 4445, Note_off_c, 3, 73, 0
8, 4448, Note_on_c, 3, 70, 104
8, 4499, Note_off_c, 3, 70, 0
8, 4507, Note_on_c, 3, 68, 90
8, 4541, Note_off_c, 3, 68, 0
8, 4555, Note_on_c, 3, 70, 98
8, 4589, Note_off_c, 3, 70, 0
8, 4610, Note_on_c, 3, 73, 106
8, 4785, Note_off_c, 3, 73, 0
8, 4791, Note_on_c, 3, 70, 102
8, 4871, Note_off_c, 3, 70, 0
8, 4897, Note_on_c, 3, 75, 106
8, 5078, Note_off_c, 3, 75, 0
8, 5081, Note_on_c, 3, 77, 100
8, 5111, Note_off_c, 3, 77, 0
8, 5521, Note_on_c, 3, 68, 105
8, 5556, Note_off_c, 3, 68, 0
8, 5574, Note_on_c, 3, 77, 105
8, 5623, Note_off_c, 3, 77, 0
8, 5626, Note_on_c, 3, 78, 104
8, 5666, Note_off_c, 3, 78, 0
8, 5680, Note_on_c, 3, 77, 105
8, 5729, Note_off_c, 3, 77, 0
8, 5744, Note_on_c, 3, 73, 105
8, 5847, Note_off_c, 3, 73, 0
8, 5850, Note_on_c, 3, 70, 104
8, 5943, Note_off_c, 3, 70, 0
8, 6033, Note_on_c, 3, 68, 103
8, 6066, Note_off_c, 3, 68, 0
8, 6077, Note_on_c, 3, 70, 90
8, 6127, Note_off_c, 3, 70, 0
8, 6152, Note_on_c, 3, 73, 108
8, 6242, Note_off_c, 3, 73, 0
8, 6248, Note_on_c, 3, 73, 101
8, 6438, Note_off_c, 3, 73, 0
8, 6444, Note_on_c, 3, 73, 103
8, 6523, Note_off_c, 3, 73, 0
8, 7087, Note_on_c, 3, 73, 111
8, 7130, Note_off_c, 3, 73, 0
8, 7137, Note_on_c, 3, 75, 102
8, 7179, Note_off_c, 3, 75, 0
8, 7188, Note_on_c, 3, 77, 100
8, 7256, Note_off_c, 3, 77, 0
8, 7269, Note_on_c, 3, 80, 107
8, 7349, Note_off_c, 3, 80, 0
8, 7363, Note_on_c, 3, 77, 100
8, 7502, Note_off_c, 3, 77, 0
8, 7541, Note_on_c, 3, 68, 108
8, 7581, Note_off_c, 3, 68, 0
8, 7584, Note_on_c, 3, 68, 102
8, 7629, Note_off_c, 3, 68, 0
8, 7632, Note_on_c, 3, 70, 110
8, 7673, Note_off_c, 3, 70, 0
8, 7684, Note_on_c, 3, 73, 107
8, 7859, Note_off_c, 3, 73, 0
8, 7862, Note_on_c, 3, 70, 102
8, 7925, Note_off_c, 3, 70, 0
8, 7958, Note_on_c, 3, 75, 104
8, 8135, Note_off_c, 3, 75, 0
8, 8139, Note_on_c, 3, 77, 101
8, 8193, Note_off_c, 3, 77, 0
8, 8448, Note_on_c, 3, 82, 106
8, 8524, Note_off_c, 3, 82, 0
8, 8541, Note_on_c, 3, 80, 106
8, 8607, Note_off_c, 3, 80, 0
8, 8636, Note_on_c, 3, 77, 104
8, 8696, Note_off_c, 3, 77, 0
8, 8730, Note_on_c, 3, 75, 102
8, 8773, Note_off_c, 3, 75, 0
8, 8776, Note_on_c, 3, 73, 108
8, 8880, Note_off_c, 3, 73, 0
8, 8883, Note_on_c, 3, 70, 90
8, 8993, Note_off_c, 3, 70, 0
8, 9080, Note_on_c, 3, 68, 100
8, 9116, Note_off_c, 3, 68, 0
8, 9121, Note_on_c, 3, 70, 97
8, 9200, Note_off_c, 3, 70, 0
8, 9219, Note_on_c, 3, 73, 105
8, 9410, Note_off_c, 3, 73, 0
8, 9414, Note_on_c, 3, 73, 112
8, 9498, Note_off_c, 3, 73, 0
8, 9514, Note_on_c, 3, 73, 105
8, 9680, Note_off_c, 3, 73, 0
8, 11741, Note_on_c, 3, 68, 94
8, 11775, Note_off_c, 3, 68, 0
8, 11799, Note_on_c, 3, 77, 119
8, 11841, Note_off_c, 3, 77, 0
8, 11866, Note_on_c, 3, 78, 108
8, 11895, Note_off_c, 3, 78, 0
8, 11919, Note_on_c, 3, 77, 113
8, 11951, Note_off_c, 3, 77, 0
8, 11988, Note_on_c, 3, 73, 113
8, 12162, Note_off_c, 3, 73, 0
8, 12187, Note_on_c, 3, 68, 100
8, 12221, Note_off_c, 3, 68, 0
8, 12235, Note_on_c, 3, 70, 99
8, 12269, Note_off_c, 3, 70, 0
8, 12290, Note_on_c, 3, 73, 109
8, 12465, Note_off_c, 3, 73, 0
8, 12471, Note_on_c, 3, 70, 102
8, 12551, Note_off_c, 3, 70, 0
8, 12577, Note_on_c, 3, 75, 113
8, 12758, Note_off_c, 3, 75, 0
8, 12761, Note_on_c, 3, 77, 111
8, 12791, Note_off_c, 3, 77, 0
8, 13254, Note_on_c, 3, 77, 101
8, 13303, Note_off_c, 3, 77, 0
8, 13306, Note_on_c, 3, 78, 102
8, 13346, Note_off_c, 3, 78, 0
8, 13360, Note_on_c, 3, 77, 105
8, 13409, Note_off_c, 3, 77, 0
8, 13424, Note_on_c, 3, 75, 110
8, 13527, Note_off_c, 3, 75, 0
8, 13530, Note_on_c, 3, 73, 111
8, 13593, Note_off_c, 3, 73, 0
8, 13596, Note_on_c, 3, 70, 103
8, 13641, Note_off_c, 3, 70, 0
8, 13644, Note_on_c, 3, 68, 109
8, 13737, Note_off_c, 3, 68, 0
8, 13832, Note_on_c, 3, 73, 112
8, 14018, Note_off_c, 3, 73, 0
8, 14024, Note_on_c, 3, 73, 100
8, 14118, Note_off_c, 3, 73, 0
8, 14124, Note_on_c, 3, 73, 103
8, 14214, Note_off_c, 3, 73, 0
8, 14871, Note_on_c, 3, 77, 112
8, 14913, Note_off_c, 3, 77, 0
8, 14938, Note_on_c, 3, 78, 107
8, 14967, Note_off_c, 3, 78, 0
8, 14991, Note_on_c, 3, 77, 106
8, 15023, Note_off_c, 3, 77, 0
8, 15060, Note_on_c, 3, 73, 109
8, 15218, Note_off_c, 3, 73, 0
8, 15221, Note_on_c, 3, 68, 109
8, 15261, Note_off_c, 3, 68, 0
8, 15264, Note_on_c, 3, 68, 106
8, 15309, Note_off_c, 3, 68, 0
8, 15312, Note_on_c, 3, 70, 113
8, 15353, Note_off_c, 3, 70, 0
8, 15364, Note_on_c, 3, 73, 110
8, 15539, Note_off_c, 3, 73, 0
8, 15542, Note_on_c, 3, 70, 108
8, 15605, Note_off_c, 3, 70, 0
8, 15638, Note_on_c, 3, 75, 112
8, 15815, Note_off_c, 3, 75, 0
8, 15819, Note_on_c, 3, 77, 106
8, 15873, Note_off_c, 3, 77, 0
8, 16128, Note_on_c, 3, 82, 108
8, 16204, Note_off_c, 3, 82, 0
8, 16221, Note_on_c, 3, 80, 113
8, 16287, Note_off_c, 3, 80, 0
8, 16316, Note_on_c, 3, 77, 104
8, 16376, Note_off_c, 3, 77, 0
8, 16410, Note_on_c, 3, 75, 107
8, 16453, Note_off_c, 3, 75, 0
8, 16456, Note_on_c, 3, 73, 110
8, 16560, Note_off_c, 3, 73, 0
8, 16563, Note_on_c, 3, 70, 93
8, 16673, Note_off_c, 3, 70, 0
8, 16760, Note_on_c, 3, 68, 102
8, 16796, Note_off_c, 3, 68, 0
8, 16801, Note_on_c, 3, 70, 99
8, 16880, Note_off_c, 3, 70, 0
8, 16899, Note_on_c, 3, 73, 103
8, 17090, Note_off_c, 3, 73, 0
8, 17094, Note_on_c, 3, 73, 114
8, 17178, Note_off_c, 3, 73, 0
8, 17194, Note_on_c, 3, 73, 106
8, 17360, Note_off_c, 3, 73, 0
8, 21015, Note_on_c, 3, 78, 120
8, 21057, Note_off_c, 3, 78, 0
8, 21082, Note_on_c, 3, 79, 111
8, 21111, Note_off_c, 3, 79, 0
8, 21135, Note_on_c, 3, 78, 117
8, 21167, Note_off_c, 3, 78, 0
8, 21204, Note_on_c, 3, 74, 117
8, 21378, Note_off_c, 3, 74, 0
8, 21403, Note_on_c, 3, 69, 103
8, 21437, Note_off_c, 3, 69, 0
8, 21451, Note_on_c, 3, 71, 104
8, 21485, Note_off_c, 3, 71, 0
8, 21506, Note_on_c, 3, 74, 113
8, 21681, Note_off_c, 3, 74, 0
8, 21687, Note_on_c, 3, 71, 112
8, 21767, Note_off_c, 3, 71, 0
8, 21793, Note_on_c, 3, 76, 120
8, 21974, Note_off_c, 3, 76, 0
8, 21977, Note_on_c, 3, 78, 113
8, 22007, Note_off_c, 3, 78, 0
8, 22513, Note_on_c, 3, 74, 120
8, 22554, Note_off_c, 3, 74, 0
8, 22558, Note_on_c, 3, 76, 116
8, 22584, Note_off_c, 3, 76, 0
8, 22606, Note_on_c, 3, 78, 115
8, 22652, Note_off_c, 3, 78, 0
8, 22671, Note_on_c, 3, 83, 109
8, 22807, Note_off_c, 3, 83, 0
8, 22811, Note_on_c, 3, 78, 113
8, 22874, Note_off_c, 3, 78, 0
8, 22904, Note_on_c, 3, 76, 116
8, 22961, Note_off_c, 3, 76, 0
8, 22964, Note_on_c, 3, 74, 111
8, 23088, Note_off_c, 3, 74, 0
8, 23417, Note_on_c, 3, 71, 116
8, 23473, Note_off_c, 3, 71, 0
8, 23495, Note_on_c, 3, 74, 115
8, 23604, Note_off_c, 3, 74, 0
8, 23607, Note_on_c, 3, 71, 106
8, 23655, Note_off_c, 3, 71, 0
8, 23660, Note_on_c, 3, 69, 100
8, 23752, Note_off_c, 3, 69, 0
8, 24038, Note_on_c, 3, 69, 118
8, 24074, Note_off_c, 3, 69, 0
8, 24087, Note_on_c, 3, 78, 120
8, 24129, Note_off_c, 3, 78, 0
8, 24154, Note_on_c, 3, 79, 110
8, 24183, Note_off_c, 3, 79, 0
8, 24207, Note_on_c, 3, 78, 116
8, 24239, Note_off_c, 3, 78, 0
8, 24276, Note_on_c, 3, 74, 117
8, 24434, Note_off_c, 3, 74, 0
8, 24748, Note_on_c, 3, 69, 113
8, 24791, Note_off_c, 3, 69, 0
8, 24808, Note_on_c, 3, 71, 118
8, 24843, Note_off_c, 3, 71, 0
8, 24875, Note_on_c, 3, 74, 110
8, 24947, Note_off_c, 3, 74, 0
8, 24977, Note_on_c, 3, 76, 117
8, 25085, Note_off_c, 3, 76, 0
8, 25088, Note_on_c, 3, 78, 118
8, 25110, Note_off_c, 3, 78, 0
8, 25246, Note_on_c, 3, 78, 118
8, 25272, Note_off_c, 3, 78, 0
8, 25294, Note_on_c, 3, 81, 119
8, 25340, Note_off_c, 3, 81, 0
8, 25344, Note_on_c, 3, 83, 116
8, 25420, Note_off_c, 3, 83, 0
8, 25437, Note_on_c, 3, 81, 117
8, 25503, Note_off_c, 3, 81, 0
8, 25532, Note_on_c, 3, 78, 110
8, 25592, Note_off_c, 3, 78, 0
8, 25626, Note_on_c, 3, 76, 110
8, 25669, Note_off_c, 3, 76, 0
8, 25672, Note_on_c, 3, 74, 114
8, 25776, Note_off_c, 3, 74, 0
8, 25779, Note_on_c, 3, 71, 100
8, 25889, Note_off_c, 3, 71, 0
8, 25976, Note_on_c, 3, 69, 113
8, 26012, Note_off_c, 3, 69, 0
8, 26017, Note_on_c, 3, 71, 109
8, 26096, Note_off_c, 3, 71, 0
8, 26115, Note_on_c, 3, 74, 112
8, 26306, Note_off_c, 3, 74, 0
8, 26310, Note_on_c, 3, 71, 116
8, 26394, Note_off_c, 3, 71, 0
8, 26410, Note_on_c, 3, 69, 112
8, 26576, Note_off_c, 3, 69, 0
8, 26785, Note_on_c, 3, 69, 111
8, 26877, Note_off_c, 3, 69, 0
8, 26880, Note_on_c, 3, 78, 111
8, 26965, Note_off_c, 3, 78, 0
8, 26975, Note_on_c, 3, 79, 105
8, 27052, Note_off_c, 3, 79, 0
8, 27071, Note_on_c, 3, 78, 118
8, 27140, Note_off_c, 3, 78, 0
8, 27166, Note_on_c, 3, 76, 115
8, 27323, Note_off_c, 3, 76, 0
8, 27328, Note_on_c, 3, 74, 112
8, 27372, Note_off_c, 3, 74, 0
8, 27554, Note_on_c, 3, 69, 108
8, 27592, Note_off_c, 3, 69, 0
8, 27595, Note_on_c, 3, 71, 117
8, 27639, Note_off_c, 3, 71, 0
8, 27656, Note_on_c, 3, 74, 111
8, 27829, Note_off_c, 3, 74, 0
8, 27843, Note_on_c, 3, 71, 117
8, 27907, Note_off_c, 3, 71, 0
8, 27938, Note_on_c, 3, 76, 115
8, 28088, Note_off_c, 3, 76, 0
8, 28091, Note_on_c, 3, 78, 106
8, 28107, Note_off_c, 3, 78, 0
8, 28376, Note_on_c, 3, 69, 109
8, 28403, Note_off_c, 3, 69, 0
8, 28416, Note_on_c, 3, 78, 110
8, 28501, Note_off_c, 3, 78, 0
8, 28511, Note_on_c, 3, 79, 107
8, 28588, Note_off_c, 3, 79, 0
8, 28607, Note_on_c, 3, 78, 115
8, 28676, Note_off_c, 3, 78, 0
8, 28702, Note_on_c, 3, 76, 115
8, 28859, Note_off_c, 3, 76, 0
8, 28864, Note_on_c, 3, 74, 108
8, 28908, Note_off_c, 3, 74, 0
8, 29042, Note_on_c, 3, 69, 106
8, 29080, Note_off_c, 3, 69, 0
8, 29083, Note_on_c, 3, 71, 116
8, 29148, Note_off_c, 3, 71, 0
8, 29192, Note_on_c, 3, 74, 111
8, 29270, Note_off_c, 3, 74, 0
8, 29283, Note_on_c, 3, 74, 112
8, 29454, Note_off_c, 3, 74, 0
8, 29474, Note_on_c, 3, 69, 108
8, 29538, Note_off_c, 3, 69, 0
8, 29858, Note_on_c, 3, 71, 114
8, 29889, Note_off_c, 3, 71, 0
8, 29901, Note_on_c, 3, 74, 103
8, 29943, Note_off_c, 3, 74, 0
8, 29967, Note_on_c, 3, 78, 118
8, 30041, Note_off_c, 3, 78, 0
8, 30055, Note_on_c, 3, 81, 106
8, 30205, Note_off_c, 3, 81, 0
8, 30238, Note_on_c, 3, 78, 112
8, 30348, Note_off_c, 3, 78, 0
8, 30434, Note_on_c, 3, 71, 100
8, 30513, Note_off_c, 3, 71, 0
8, 30530, Note_on_c, 3, 69, 110
8, 30609, Note_off_c, 3, 69, 0
8, 30626, Note_on_c, 3, 71, 107
8, 30705, Note_off_c, 3, 71, 0
8, 30729, Note_on_c, 3, 74, 105
8, 30923, Note_off_c, 3, 74, 0
8, 30926, Note_on_c, 3, 71, 107
8, 31001, Note_off_c, 3, 71, 0
8, 31016, Note_on_c, 3, 76, 112
8, 31140, Note_off_c, 3, 76, 0
8, 31143, Note_on_c, 3, 78, 108
8, 31168, Note_off_c, 3, 78, 0
8, 31495, Note_on_c, 3, 83, 119
8, 31560, Note_off_c, 3, 83, 0
8, 31583, Note_on_c, 3, 81, 110
8, 31667, Note_off_c, 3, 81, 0
8, 31675, Note_on_c, 3, 78, 106
8, 31745, Note_off_c, 3, 78, 0
8, 31777, Note_on_c, 3, 76, 110
8, 31843, Note_off_c, 3, 76, 0
8, 31855, Note_on_c, 3, 74, 120
8, 31951, Note_off_c, 3, 74, 0
8, 31958, Note_on_c, 3, 71, 106
8, 31999, Note_off_c, 3, 71, 0
8, 32561, Note_on_c, 3, 69, 107
8, 32623, Note_off_c, 3, 69, 0
8, 32626, Note_on_c, 3, 71, 111
8, 32680, Note_off_c, 3, 71, 0
8, 32812, Note_on_c, 3, 74, 109
8, 33034, Note_off_c, 3, 74, 0
8, 33059, Note_on_c, 3, 74, 114
8, 33161, Note_off_c, 3, 74, 0
8, 33179, Note_on_c, 3, 74, 111
8, 34749, Note_off_c, 3, 74, 0
8, 37536, Control_c, 3, 120, 0
8, 37584, Control_c, 3, 123, 0
8, 37632, End_track
9, 0, Start_track
9, 0, Sequencer_specific, 5, 5, 15, 9, 12, 64
9, 0, Sequencer_specific, 15, 5, 15, 6, 71, 101, 110, 101, 114, 97, 108, 32, 77, 73, 68, 73
9, 0, Title_t, "Electric Guitar(Clean)"
9, 0, Control_c, 8, 0, 0
9, 0, Program_c, 8, 27
9, 192, Control_c, 8, 121, 0
9, 326, Control_c, 8, 7, 104
9, 328, Control_c, 8, 10, 28
9, 330, Control_c, 8, 91, 88
9, 332, Control_c, 8, 93, 50
9, 336, Pitch_bend_c, 8, 8192
9, 336, Control_c, 8, 11, 127
9, 480, Control_c, 8, 99, 1
9, 555, Control_c, 8, 98, 33
9, 613, Control_c, 8, 6, 72
9, 660, Control_c, 8, 98, 32
9, 694, Control_c, 8, 6, 58
9, 960, Note_on_c, 8, 61, 79
9, 962, Note_on_c, 8, 65, 94
9, 964, Note_on_c, 8, 68, 101
9, 978, Note_off_c, 8, 61, 0
9, 980, Note_off_c, 8, 65, 0
9, 982, Note_off_c, 8, 68, 0
9, 1248, Note_on_c, 8, 61, 84
9, 1250, Note_on_c, 8, 65, 96
9, 1252, Note_on_c, 8, 70, 110
9, 1266, Note_off_c, 8, 61, 0
9, 1268, Note_off_c, 8, 65, 0
9, 1270, Note_off_c, 8, 70, 0
9, 1440, Note_on_c, 8, 61, 87
9, 1442, Note_on_c, 8, 65, 97
9, 1444, Note_on_c, 8, 70, 108
9, 1458, Note_off_c, 8, 61, 0
9, 1460, Note_off_c, 8, 65, 0
9, 1462, Note_off_c, 8, 70, 0
9, 1728, Note_on_c, 8, 58, 82
9, 1730, Note_on_c, 8, 61, 98
9, 1732, Note_on_c, 8, 66, 114
9, 1746, Note_off_c, 8, 58, 0
9, 1748, Note_off_c, 8, 61, 0
9, 1750, Note_off_c, 8, 66, 0
9, 2016, Note_on_c, 8, 61, 80
9, 2018, Note_on_c, 8, 65, 90
9, 2020, Note_on_c, 8, 68, 106
9, 2034, Note_off_c, 8, 61, 0
9, 2036, Note_off_c, 8, 65, 0
9, 2038, Note_off_c, 8, 68, 0
9, 2208, Note_on_c, 8, 61, 82
9, 2210, Note_on_c, 8, 65, 89
9, 2212, Note_on_c, 8, 68, 109
9, 2226, Note_off_c, 8, 61, 0
9, 2228, Note_off_c, 8, 65, 0
9, 2230, Note_off_c, 8, 68, 0
9, 2496, Note_on_c, 8, 61, 77
9, 2498, Note_on_c, 8, 65, 94
9, 2500, Note_on_c, 8, 68, 108
9, 2514, Note_off_c, 8, 61, 0
9, 2516, Note_off_c, 8, 65, 0
9, 2518, Note_off_c, 8, 68, 0
9, 2784, Note_on_c, 8, 61, 87
9, 2786, Note_on_c, 8, 65, 99
9, 2788, Note_on_c, 8, 70, 104
9, 2802, Note_off_c, 8, 61, 0
9, 2804, Note_off_c, 8, 65, 0
9, 2806, Note_off_c, 8, 70, 0
9, 2976, Note_on_c, 8, 61, 78
9, 2978, Note_on_c, 8, 65, 93
9, 2980, Note_on_c, 8, 70, 106
9, 2994, Note_off_c, 8, 61, 0
9, 2996, Note_off_c, 8, 65, 0
9, 2998, Note_off_c, 8, 70, 0
9, 3264, Note_on_c, 8, 58, 86
9, 3266, Note_on_c, 8, 61, 100
9, 3268, Note_on_c, 8, 66, 112
9, 3282, Note_off_c, 8, 58, 0
9, 3284, Note_off_c, 8, 61, 0
9, 3286, Note_off_c, 8, 66, 0
9, 3552, Note_on_c, 8, 61, 71
9, 3554, Note_on_c, 8, 65, 87
9, 3556, Note_on_c, 8, 68, 97
9, 3570, Note_off_c, 8, 61, 0
9, 3572, Note_off_c, 8, 65, 0
9, 3574, Note_off_c, 8, 68, 0
9, 3744, Note_on_c, 8, 61, 66
9, 3746, Note_on_c, 8, 65, 78
9, 3748, Note_on_c, 8, 68, 90
9, 3762, Note_off_c, 8, 61, 0
9, 3764, Note_off_c, 8, 65, 0
9, 3766, Note_off_c, 8, 68, 0
9, 4032, Note_on_c, 8, 61, 84
9, 4034, Note_on_c, 8, 65, 92
9, 4036, Note_on_c, 8, 68, 106
9, 4050, Note_off_c, 8, 61, 0
9, 4052, Note_off_c, 8, 65, 0
9, 4054, Note_off_c, 8, 68, 0
9, 4320, Note_on_c, 8, 61, 78
9, 4322, Note_on_c, 8, 65, 96
9, 4324, Note_on_c, 8, 70, 106
9, 4338, Note_off_c, 8, 61, 0
9, 4340, Note_off_c, 8, 65, 0
9, 4342, Note_off_c, 8, 70, 0
9, 4512, Note_on_c, 8, 61, 81
9, 4514, Note_on_c, 8, 65, 97
9, 4516, Note_on_c, 8, 70, 100
9, 4530, Note_off_c, 8, 61, 0
9, 4532, Note_off_c, 8, 65, 0
9, 4534, Note_off_c, 8, 70, 0
9, 4800, Note_on_c, 8, 58, 79
9, 4802, Note_on_c, 8, 61, 95
9, 4804, Note_on_c, 8, 66, 112
9, 4818, Note_off_c, 8, 58, 0
9, 4820, Note_off_c, 8, 61, 0
9, 4822, Note_off_c, 8, 66, 0
9, 5088, Note_on_c, 8, 61, 76
9, 5090, Note_on_c, 8, 65, 96
9, 5092, Note_on_c, 8, 68, 106
9, 5106, Note_off_c, 8, 61, 0
9, 5108, Note_off_c, 8, 65, 0
9, 5110, Note_off_c, 8, 68, 0
9, 5280, Note_on_c, 8, 61, 84
9, 5282, Note_on_c, 8, 65, 97
9, 5284, Note_on_c, 8, 68, 107
9, 5298, Note_off_c, 8, 61, 0
9, 5300, Note_off_c, 8, 65, 0
9, 5302, Note_off_c, 8, 68, 0
9, 5568, Note_on_c, 8, 61, 76
9, 5570, Note_on_c, 8, 65, 91
9, 5572, Note_on_c, 8, 68, 99
9, 5586, Note_off_c, 8, 61, 0
9, 5588, Note_off_c, 8, 65, 0
9, 5590, Note_off_c, 8, 68, 0
9, 5856, Note_on_c, 8, 61, 85
9, 5858, Note_on_c, 8, 65, 96
9, 5860, Note_on_c, 8, 70, 102
9, 5874, Note_off_c, 8, 61, 0
9, 5876, Note_off_c, 8, 65, 0
9, 5878, Note_off_c, 8, 70, 0
9, 6048, Note_on_c, 8, 61, 80
9, 6050, Note_on_c, 8, 65, 96
9, 6052, Note_on_c, 8, 70, 105
9, 6066, Note_off_c, 8, 61, 0
9, 6068, Note_off_c, 8, 65, 0
9, 6070, Note_off_c, 8, 70, 0
9, 6336, Note_on_c, 8, 58, 85
9, 6338, Note_on_c, 8, 61, 95
9, 6340, Note_on_c, 8, 66, 108
9, 6354, Note_off_c, 8, 58, 0
9, 6356, Note_off_c, 8, 61, 0
9, 6358, Note_off_c, 8, 66, 0
9, 6624, Note_on_c, 8, 61, 72
9, 6626, Note_on_c, 8, 65, 84
9, 6628, Note_on_c, 8, 68, 92
9, 6642, Note_off_c, 8, 61, 0
9, 6644, Note_off_c, 8, 65, 0
9, 6646, Note_off_c, 8, 68, 0
9, 6816, Note_on_c, 8, 61, 68
9, 6818, Note_on_c, 8, 65, 76
9, 6820, Note_on_c, 8, 68, 85
9, 6834, Note_off_c, 8, 61, 0
9, 6836, Note_off_c, 8, 65, 0
9, 6838, Note_off_c, 8, 68, 0
9, 7104, Note_on_c, 8, 61, 83
9, 7106, Note_on_c, 8, 65, 91
9, 7108, Note_on_c, 8, 68, 102
9, 7122, Note_off_c, 8, 61, 0
9, 7124, Note_off_c, 8, 65, 0
9, 7126, Note_off_c, 8, 68, 0
9, 7392, Note_on_c, 8, 61, 79
9, 7394, Note_on_c, 8, 65, 95
9, 7396, Note_on_c, 8, 70, 102
9, 7410, Note_off_c, 8, 61, 0
9, 7412, Note_off_c, 8, 65, 0
9, 7414, Note_off_c, 8, 70, 0
9, 7584, Note_on_c, 8, 61, 78
9, 7586, Note_on_c, 8, 65, 94
9, 7588, Note_on_c, 8, 70, 101
9, 7602, Note_off_c, 8, 61, 0
9, 7604, Note_off_c, 8, 65, 0
9, 7606, Note_off_c, 8, 70, 0
9, 7872, Note_on_c, 8, 58, 81
9, 7874, Note_on_c, 8, 61, 94
9, 7876, Note_on_c, 8, 66, 110
9, 7890, Note_off_c, 8, 58, 0
9, 7892, Note_off_c, 8, 61, 0
9, 7894, Note_off_c, 8, 66, 0
9, 8160, Note_on_c, 8, 61, 75
9, 8162, Note_on_c, 8, 65, 88
9, 8164, Note_on_c, 8, 68, 101
9, 8178, Note_off_c, 8, 61, 0
9, 8180, Note_off_c, 8, 65, 0
9, 8182, Note_off_c, 8, 68, 0
9, 8352, Note_on_c, 8, 61, 75
9, 8354, Note_on_c, 8, 65, 87
9, 8356, Note_on_c, 8, 68, 108
9, 8370, Note_off_c, 8, 61, 0
9, 8372, Note_off_c, 8, 65, 0
9, 8374, Note_off_c, 8, 68, 0
9, 8640, Note_on_c, 8, 60, 76
9, 8642, Note_on_c, 8, 65, 90
9, 8644, Note_on_c, 8, 68, 108
9, 8658, Note_off_c, 8, 60, 0
9, 8660, Note_off_c, 8, 65, 0
9, 8662, Note_off_c, 8, 68, 0
9, 8928, Note_on_c, 8, 58, 78
9, 8930, Note_on_c, 8, 61, 95
9, 8932, Note_on_c, 8, 66, 100
9, 8946, Note_off_c, 8, 58, 0
9, 8948, Note_off_c, 8, 61, 0
9, 8950, Note_off_c, 8, 66, 0
9, 9120, Note_on_c, 8, 58, 79
9, 9122, Note_on_c, 8, 61, 89
9, 9124, Note_on_c, 8, 66, 104
9, 9138, Note_off_c, 8, 58, 0
9, 9140, Note_off_c, 8, 61, 0
9, 9142, Note_off_c, 8, 66, 0
9, 9216, Note_on_c, 8, 58, 84
9, 9218, Note_on_c, 8, 61, 87
9, 9220, Note_on_c, 8, 66, 101
9, 9398, Note_off_c, 8, 58, 0
9, 9400, Note_off_c, 8, 61, 0
9, 9402, Note_off_c, 8, 66, 0
9, 9408, Note_on_c, 8, 58, 73
9, 9410, Note_on_c, 8, 61, 80
9, 9412, Note_on_c, 8, 66, 96
9, 9494, Note_off_c, 8, 58, 0
9, 9496, Note_off_c, 8, 61, 0
9, 9498, Note_off_c, 8, 66, 0
9, 9504, Note_on_c, 8, 56, 59
9, 9506, Note_on_c, 8, 61, 66
9, 9508, Note_on_c, 8, 65, 79
9, 9696, Note_on_c, 8, 53, 54
9, 9782, Note_off_c, 8, 53, 0
9, 9787, Note_off_c, 8, 56, 0
9, 9792, Note_on_c, 8, 56, 60
9, 9878, Note_off_c, 8, 56, 0
9, 9888, Note_on_c, 8, 53, 47
9, 9928, Note_off_c, 8, 61, 0
9, 9930, Note_off_c, 8, 65, 0
9, 9946, Note_off_c, 8, 53, 0
9, 9984, Pitch_bend_c, 8, 0
9, 9985, Note_on_c, 8, 70, 123
9, 9986, Note_on_c, 8, 65, 121
9, 10031, Pitch_bend_c, 8, 3584
9, 10038, Pitch_bend_c, 8, 8192
9, 10053, Pitch_bend_c, 8, 8192
9, 10093, Pitch_bend_c, 8, 7680
9, 10100, Pitch_bend_c, 8, 4992
9, 10107, Pitch_bend_c, 8, 0
9, 10263, Note_off_c, 8, 70, 0
9, 10264, Note_off_c, 8, 65, 0
9, 10266, Pitch_bend_c, 8, 8192
9, 10272, Note_on_c, 8, 58, 55
9, 10274, Note_on_c, 8, 61, 70
9, 10464, Note_on_c, 8, 56, 77
9, 10539, Note_off_c, 8, 56, 0
9, 10550, Note_off_c, 8, 58, 0
9, 10552, Note_off_c, 8, 61, 0
9, 10560, Note_on_c, 8, 53, 93
9, 10656, Note_on_c, 8, 56, 80
9, 10657, Note_off_c, 8, 53, 0
9, 10704, Note_off_c, 8, 56, 0
9, 10753, Note_on_c, 8, 61, 113
9, 10793, Pitch_bend_c, 8, 9856
9, 10800, Pitch_bend_c, 8, 11392
9, 10807, Pitch_bend_c, 8, 16256
9, 10825, Pitch_bend_c, 8, 8192
9, 10852, Note_on_c, 8, 58, 76
9, 10928, Note_off_c, 8, 58, 0
9, 10955, Note_on_c, 8, 54, 85
9, 10974, Note_off_c, 8, 54, 0
9, 11035, Note_off_c, 8, 61, 0
9, 11051, Note_on_c, 8, 49, 69
9, 11054, Note_on_c, 8, 53, 102
9, 11150, Note_on_c, 8, 58, 73
9, 11195, Note_off_c, 8, 58, 0
9, 11246, Note_on_c, 8, 58, 71
9, 11287, Note_off_c, 8, 58, 0
9, 11338, Note_on_c, 8, 58, 63
9, 11342, Note_on_c, 8, 61, 81
9, 11515, Note_off_c, 8, 58, 0
9, 11517, Note_off_c, 8, 61, 0
9, 11517, Note_off_c, 8, 53, 0
9, 11517, Note_off_c, 8, 49, 0
9, 11712, Note_on_c, 8, 61, 85
9, 11714, Note_on_c, 8, 65, 90
9, 11716, Note_on_c, 8, 68, 102
9, 11730, Note_off_c, 8, 61, 0
9, 11732, Note_off_c, 8, 65, 0
9, 11734, Note_off_c, 8, 68, 0
9, 12000, Note_on_c, 8, 61, 81
9, 12002, Note_on_c, 8, 65, 97
9, 12004, Note_on_c, 8, 70, 111
9, 12018, Note_off_c, 8, 61, 0
9, 12020, Note_off_c, 8, 65, 0
9, 12022, Note_off_c, 8, 70, 0
9, 12192, Note_on_c, 8, 61, 79
9, 12194, Note_on_c, 8, 65, 91
9, 12196, Note_on_c, 8, 70, 111
9, 12210, Note_off_c, 8, 61, 0
9, 12212, Note_off_c, 8, 65, 0
9, 12214, Note_off_c, 8, 70, 0
9, 12480, Note_on_c, 8, 58, 85
9, 12482, Note_on_c, 8, 61, 94
9, 12484, Note_on_c, 8, 66, 111
9, 12498, Note_off_c, 8, 58, 0
9, 12500, Note_off_c, 8, 61, 0
9, 12502, Note_off_c, 8, 66, 0
9, 12768, Note_on_c, 8, 61, 80
9, 12770, Note_on_c, 8, 65, 94
9, 12772, Note_on_c, 8, 68, 109
9, 12786, Note_off_c, 8, 61, 0
9, 12788, Note_off_c, 8, 65, 0
9, 12790, Note_off_c, 8, 68, 0
9, 12960, Note_on_c, 8, 61, 82
9, 12962, Note_on_c, 8, 65, 91
9, 12964, Note_on_c, 8, 68, 108
9, 12978, Note_off_c, 8, 61, 0
9, 12980, Note_off_c, 8, 65, 0
9, 12982, Note_off_c, 8, 68, 0
9, 13248, Note_on_c, 8, 61, 79
9, 13250, Note_on_c, 8, 65, 89
9, 13252, Note_on_c, 8, 68, 105
9, 13266, Note_off_c, 8, 61, 0
9, 13268, Note_off_c, 8, 65, 0
9, 13270, Note_off_c, 8, 68, 0
9, 13536, Note_on_c, 8, 61, 86
9, 13538, Note_on_c, 8, 65, 99
9, 13540, Note_on_c, 8, 70, 111
9, 13554, Note_off_c, 8, 61, 0
9, 13556, Note_off_c, 8, 65, 0
9, 13558, Note_off_c, 8, 70, 0
9, 13728, Note_on_c, 8, 61, 80
9, 13730, Note_on_c, 8, 65, 95
9, 13732, Note_on_c, 8, 70, 102
9, 13746, Note_off_c, 8, 61, 0
9, 13748, Note_off_c, 8, 65, 0
9, 13750, Note_off_c, 8, 70, 0
9, 14016, Note_on_c, 8, 58, 84
9, 14018, Note_on_c, 8, 61, 100
9, 14020, Note_on_c, 8, 66, 111
9, 14034, Note_off_c, 8, 58, 0
9, 14036, Note_off_c, 8, 61, 0
9, 14038, Note_off_c, 8, 66, 0
9, 14304, Note_on_c, 8, 61, 72
9, 14306, Note_on_c, 8, 65, 91
9, 14308, Note_on_c, 8, 68, 103
9, 14322, Note_off_c, 8, 61, 0
9, 14324, Note_off_c, 8, 65, 0
9, 14326, Note_off_c, 8, 68, 0
9, 14496, Note_on_c, 8, 61, 70
9, 14498, Note_on_c, 8, 65, 79
9, 14500, Note_on_c, 8, 68, 87
9, 14514, Note_off_c, 8, 61, 0
9, 14516, Note_off_c, 8, 65, 0
9, 14518, Note_off_c, 8, 68, 0
9, 14784, Note_on_c, 8, 61, 86
9, 14786, Note_on_c, 8, 65, 96
9, 14788, Note_on_c, 8, 68, 104
9, 14802, Note_off_c, 8, 61, 0
9, 14804, Note_off_c, 8, 65, 0
9, 14806, Note_off_c, 8, 68, 0
9, 15072, Note_on_c, 8, 61, 82
9, 15074, Note_on_c, 8, 65, 99
9, 15076, Note_on_c, 8, 70, 103
9, 15090, Note_off_c, 8, 61, 0
9, 15092, Note_off_c, 8, 65, 0
9, 15094, Note_off_c, 8, 70, 0
9, 15264, Note_on_c, 8, 61, 78
9, 15266, Note_on_c, 8, 65, 91
9, 15268, Note_on_c, 8, 70, 111
9, 15282, Note_off_c, 8, 61, 0
9, 15284, Note_off_c, 8, 65, 0
9, 15286, Note_off_c, 8, 70, 0
9, 15552, Note_on_c, 8, 58, 89
9, 15554, Note_on_c, 8, 61, 94
9, 15556, Note_on_c, 8, 66, 105
9, 15570, Note_off_c, 8, 58, 0
9, 15572, Note_off_c, 8, 61, 0
9, 15574, Note_off_c, 8, 66, 0
9, 15840, Note_on_c, 8, 61, 77
9, 15842, Note_on_c, 8, 65, 91
9, 15844, Note_on_c, 8, 68, 108
9, 15858, Note_off_c, 8, 61, 0
9, 15860, Note_off_c, 8, 65, 0
9, 15862, Note_off_c, 8, 68, 0
9, 16032, Note_on_c, 8, 61, 79
9, 16034, Note_on_c, 8, 65, 92
9, 16036, Note_on_c, 8, 68, 106
9, 16050, Note_off_c, 8, 61, 0
9, 16052, Note_off_c, 8, 65, 0
9, 16054, Note_off_c, 8, 68, 0
9, 16320, Note_on_c, 8, 60, 80
9, 16322, Note_on_c, 8, 65, 94
9, 16324, Note_on_c, 8, 68, 110
9, 16338, Note_off_c, 8, 60, 0
9, 16340, Note_off_c, 8, 65, 0
9, 16342, Note_off_c, 8, 68, 0
9, 16608, Note_on_c, 8, 58, 79
9, 16610, Note_on_c, 8, 61, 91
9, 16612, Note_on_c, 8, 66, 104
9, 16626, Note_off_c, 8, 58, 0
9, 16628, Note_off_c, 8, 61, 0
9, 16630, Note_off_c, 8, 66, 0
9, 16800, Note_on_c, 8, 58, 87
9, 16802, Note_on_c, 8, 61, 98
9, 16804, Note_on_c, 8, 66, 109
9, 16818, Note_off_c, 8, 58, 0
9, 16820, Note_off_c, 8, 61, 0
9, 16822, Note_off_c, 8, 66, 0
9, 16896, Note_on_c, 8, 58, 85
9, 16898, Note_on_c, 8, 61, 94
9, 16900, Note_on_c, 8, 66, 104
9, 17078, Note_off_c, 8, 58, 0
9, 17080, Note_off_c, 8, 61, 0
9, 17082, Note_off_c, 8, 66, 0
9, 17088, Note_on_c, 8, 58, 68
9, 17090, Note_on_c, 8, 61, 86
9, 17092, Note_on_c, 8, 66, 96
9, 17174, Note_off_c, 8, 58, 0
9, 17176, Note_off_c, 8, 61, 0
9, 17178, Note_off_c, 8, 66, 0
9, 17184, Note_on_c, 8, 56, 59
9, 17186, Note_on_c, 8, 61, 68
9, 17188, Note_on_c, 8, 65, 85
9, 17376, Note_on_c, 8, 53, 58
9, 17462, Note_off_c, 8, 53, 0
9, 17467, Note_off_c, 8, 56, 0
9, 17472, Note_on_c, 8, 56, 60
9, 17558, Note_off_c, 8, 56, 0
9, 17568, Note_on_c, 8, 53, 52
9, 17608, Note_off_c, 8, 61, 0
9, 17610, Note_off_c, 8, 65, 0
9, 17626, Note_off_c, 8, 53, 0
9, 17666, Note_on_c, 8, 65, 114
9, 17754, Note_off_c, 8, 65, 0
9, 17760, Pitch_bend_c, 8, 2560
9, 17761, Note_on_c, 8, 66, 114
9, 17774, Pitch_bend_c, 8, 3584
9, 17781, Pitch_bend_c, 8, 5632
9, 17789, Pitch_bend_c, 8, 8192
9, 17859, Note_on_c, 8, 65, 119
9, 17864, Note_off_c, 8, 66, 0
9, 17946, Pitch_bend_c, 8, 8192
9, 17948, Note_off_c, 8, 65, 0
9, 17955, Note_on_c, 8, 58, 89
9, 17960, Note_on_c, 8, 61, 105
9, 18141, Note_off_c, 8, 58, 0
9, 18144, Note_on_c, 8, 58, 72
9, 18158, Note_off_c, 8, 61, 0
9, 18219, Note_off_c, 8, 58, 0
9, 18240, Note_on_c, 8, 56, 102
9, 18336, Note_off_c, 8, 56, 0
9, 18336, Note_on_c, 8, 58, 80
9, 18385, Note_off_c, 8, 58, 0
9, 18432, Note_on_c, 8, 58, 86
9, 18433, Note_on_c, 8, 61, 119
9, 18503, Note_off_c, 8, 61, 0
9, 18529, Note_on_c, 8, 61, 81
9, 18624, Note_off_c, 8, 61, 0
9, 18632, Note_off_c, 8, 58, 0
9, 18635, Note_on_c, 8, 56, 81
9, 18661, Note_on_c, 8, 58, 80
9, 18702, Note_off_c, 8, 56, 0
9, 18728, Note_off_c, 8, 58, 0
9, 18731, Note_on_c, 8, 53, 56
9, 18734, Note_on_c, 8, 56, 105
9, 18825, Note_off_c, 8, 53, 0
9, 18826, Note_on_c, 8, 51, 83
9, 18827, Note_off_c, 8, 56, 0
9, 18836, Note_on_c, 8, 56, 64
9, 18919, Note_off_c, 8, 51, 0
9, 18922, Note_on_c, 8, 49, 67
9, 18929, Note_off_c, 8, 56, 0
9, 18932, Note_on_c, 8, 56, 64
9, 19103, Note_on_c, 8, 53, 78
9, 19107, Note_off_c, 8, 49, 0
9, 19117, Note_off_c, 8, 56, 0
9, 19181, Note_off_c, 8, 53, 0
9, 19202, Note_on_c, 8, 62, 80
9, 19202, Note_on_c, 8, 66, 114
9, 19290, Note_off_c, 8, 66, 0
9, 19296, Pitch_bend_c, 8, 2560
9, 19297, Note_on_c, 8, 67, 113
9, 19310, Pitch_bend_c, 8, 3584
9, 19317, Pitch_bend_c, 8, 5632
9, 19325, Pitch_bend_c, 8, 8192
9, 19395, Note_on_c, 8, 66, 112
9, 19400, Note_off_c, 8, 67, 0
9, 19482, Pitch_bend_c, 8, 8192
9, 19484, Note_off_c, 8, 66, 0
9, 19491, Note_on_c, 8, 59, 81
9, 19494, Note_off_c, 8, 62, 0
9, 19496, Note_on_c, 8, 62, 106
9, 19677, Note_off_c, 8, 59, 0
9, 19680, Note_on_c, 8, 59, 79
9, 19694, Note_off_c, 8, 62, 0
9, 19755, Note_off_c, 8, 59, 0
9, 19776, Note_on_c, 8, 57, 95
9, 19872, Note_off_c, 8, 57, 0
9, 19872, Note_on_c, 8, 59, 78
9, 19932, Note_off_c, 8, 59, 0
9, 19968, Note_on_c, 8, 55, 84
9, 19968, Note_on_c, 8, 59, 92
9, 19969, Note_on_c, 8, 62, 114
9, 20039, Note_off_c, 8, 62, 0
9, 20061, Note_off_c, 8, 59, 0
9, 20064, Note_on_c, 8, 59, 87
9, 20065, Note_on_c, 8, 62, 81
9, 20159, Note_off_c, 8, 59, 0
9, 20160, Note_off_c, 8, 62, 0
9, 20253, Note_off_c, 8, 55, 0
9, 20267, Note_on_c, 8, 54, 65
9, 20270, Note_on_c, 8, 57, 81
9, 20270, Note_on_c, 8, 62, 105
9, 20445, Note_off_c, 8, 54, 0
9, 20448, Note_on_c, 8, 54, 64
9, 20543, Note_off_c, 8, 57, 0
9, 20543, Note_off_c, 8, 54, 0
9, 20544, Note_on_c, 8, 57, 57
9, 20637, Note_off_c, 8, 62, 0
9, 20637, Note_off_c, 8, 57, 0
9, 20640, Note_on_c, 8, 62, 65
9, 20714, Note_off_c, 8, 62, 0
9, 20928, Note_on_c, 8, 62, 81
9, 20930, Note_on_c, 8, 66, 93
9, 20932, Note_on_c, 8, 69, 109
9, 20946, Note_off_c, 8, 62, 0
9, 20948, Note_off_c, 8, 66, 0
9, 20950, Note_off_c, 8, 69, 0
9, 21216, Note_on_c, 8, 62, 84
9, 21218, Note_on_c, 8, 66, 97
9, 21220, Note_on_c, 8, 71, 108
9, 21234, Note_off_c, 8, 62, 0
9, 21236, Note_off_c, 8, 66, 0
9, 21238, Note_off_c, 8, 71, 0
9, 21408, Note_on_c, 8, 62, 88
9, 21410, Note_on_c, 8, 66, 97
9, 21412, Note_on_c, 8, 71, 110
9, 21426, Note_off_c, 8, 62, 0
9, 21428, Note_off_c, 8, 66, 0
9, 21430, Note_off_c, 8, 71, 0
9, 21696, Note_on_c, 8, 59, 88
9, 21698, Note_on_c, 8, 62, 103
9, 21700, Note_on_c, 8, 67, 116
9, 21714, Note_off_c, 8, 59, 0
9, 21716, Note_off_c, 8, 62, 0
9, 21718, Note_off_c, 8, 67, 0
9, 21984, Note_on_c, 8, 62, 81
9, 21986, Note_on_c, 8, 66, 98
9, 21988, Note_on_c, 8, 69, 103
9, 22002, Note_off_c, 8, 62, 0
9, 22004, Note_off_c, 8, 66, 0
9, 22006, Note_off_c, 8, 69, 0
9, 22176, Note_on_c, 8, 62, 86
9, 22178, Note_on_c, 8, 66, 96
9, 22180, Note_on_c, 8, 69, 111
9, 22194, Note_off_c, 8, 62, 0
9, 22196, Note_off_c, 8, 66, 0
9, 22198, Note_off_c, 8, 69, 0
9, 22464, Note_on_c, 8, 62, 82
9, 22466, Note_on_c, 8, 66, 95
9, 22468, Note_on_c, 8, 69, 106
9, 22482, Note_off_c, 8, 62, 0
9, 22484, Note_off_c, 8, 66, 0
9, 22486, Note_off_c, 8, 69, 0
9, 22752, Note_on_c, 8, 62, 82
9, 22754, Note_on_c, 8, 66, 94
9, 22756, Note_on_c, 8, 71, 105
9, 22770, Note_off_c, 8, 62, 0
9, 22772, Note_off_c, 8, 66, 0
9, 22774, Note_off_c, 8, 71, 0
9, 22944, Note_on_c, 8, 62, 88
9, 22946, Note_on_c, 8, 66, 100
9, 22948, Note_on_c, 8, 71, 111
9, 22962, Note_off_c, 8, 62, 0
9, 22964, Note_off_c, 8, 66, 0
9, 22966, Note_off_c, 8, 71, 0
9, 23232, Note_on_c, 8, 59, 87
9, 23234, Note_on_c, 8, 62, 101
9, 23236, Note_on_c, 8, 67, 115
9, 23250, Note_off_c, 8, 59, 0
9, 23252, Note_off_c, 8, 62, 0
9, 23254, Note_off_c, 8, 67, 0
9, 23520, Note_on_c, 8, 62, 75
9, 23522, Note_on_c, 8, 66, 89
9, 23524, Note_on_c, 8, 69, 96
9, 23538, Note_off_c, 8, 62, 0
9, 23540, Note_off_c, 8, 66, 0
9, 23542, Note_off_c, 8, 69, 0
9, 23712, Note_on_c, 8, 62, 67
9, 23714, Note_on_c, 8, 66, 86
9, 23716, Note_on_c, 8, 69, 98
9, 23730, Note_off_c, 8, 62, 0
9, 23732, Note_off_c, 8, 66, 0
9, 23734, Note_off_c, 8, 69, 0
9, 24000, Note_on_c, 8, 62, 87
9, 24002, Note_on_c, 8, 66, 94
9, 24004, Note_on_c, 8, 69, 103
9, 24018, Note_off_c, 8, 62, 0
9, 24020, Note_off_c, 8, 66, 0
9, 24022, Note_off_c, 8, 69, 0
9, 24288, Note_on_c, 8, 62, 88
9, 24290, Note_on_c, 8, 66, 93
9, 24292, Note_on_c, 8, 71, 113
9, 24306, Note_off_c, 8, 62, 0
9, 24308, Note_off_c, 8, 66, 0
9, 24310, Note_off_c, 8, 71, 0
9, 24480, Note_on_c, 8, 62, 86
9, 24482, Note_on_c, 8, 66, 98
9, 24484, Note_on_c, 8, 71, 111
9, 24498, Note_off_c, 8, 62, 0
9, 24500, Note_off_c, 8, 66, 0
9, 24502, Note_off_c, 8, 71, 0
9, 24768, Note_on_c, 8, 59, 86
9, 24770, Note_on_c, 8, 62, 96
9, 24772, Note_on_c, 8, 67, 112
9, 24786, Note_off_c, 8, 59, 0
9, 24788, Note_off_c, 8, 62, 0
9, 24790, Note_off_c, 8, 67, 0
9, 25056, Note_on_c, 8, 62, 87
9, 25058, Note_on_c, 8, 66, 96
9, 25060, Note_on_c, 8, 69, 108
9, 25074, Note_off_c, 8, 62, 0
9, 25076, Note_off_c, 8, 66, 0
9, 25078, Note_off_c, 8, 69, 0
9, 25248, Note_on_c, 8, 62, 80
9, 25250, Note_on_c, 8, 66, 91
9, 25252, Note_on_c, 8, 69, 110
9, 25266, Note_off_c, 8, 62, 0
9, 25268, Note_off_c, 8, 66, 0
9, 25270, Note_off_c, 8, 69, 0
9, 25536, Note_on_c, 8, 61, 82
9, 25538, Note_on_c, 8, 66, 96
9, 25540, Note_on_c, 8, 69, 110
9, 25554, Note_off_c, 8, 61, 0
9, 25556, Note_off_c, 8, 66, 0
9, 25558, Note_off_c, 8, 69, 0
9, 25824, Note_on_c, 8, 59, 88
9, 25826, Note_on_c, 8, 62, 97
9, 25828, Note_on_c, 8, 67, 107
9, 25842, Note_off_c, 8, 59, 0
9, 25844, Note_off_c, 8, 62, 0
9, 25846, Note_off_c, 8, 67, 0
9, 26016, Note_on_c, 8, 59, 85
9, 26018, Note_on_c, 8, 62, 93
9, 26020, Note_on_c, 8, 67, 108
9, 26034, Note_off_c, 8, 59, 0
9, 26036, Note_off_c, 8, 62, 0
9, 26038, Note_off_c, 8, 67, 0
9, 26112, Note_on_c, 8, 59, 85
9, 26114, Note_on_c, 8, 62, 98
9, 26116, Note_on_c, 8, 67, 109
9, 26294, Note_off_c, 8, 59, 0
9, 26296, Note_off_c, 8, 62, 0
9, 26298, Note_off_c, 8, 67, 0
9, 26304, Note_on_c, 8, 59, 70
9, 26306, Note_on_c, 8, 62, 90
9, 26308, Note_on_c, 8, 67, 93
9, 26390, Note_off_c, 8, 59, 0
9, 26392, Note_off_c, 8, 62, 0
9, 26394, Note_off_c, 8, 67, 0
9, 26400, Note_on_c, 8, 57, 63
9, 26402, Note_on_c, 8, 62, 71
9, 26404, Note_on_c, 8, 66, 86
9, 26592, Note_on_c, 8, 54, 62
9, 26678, Note_off_c, 8, 54, 0
9, 26683, Note_off_c, 8, 57, 0
9, 26688, Note_on_c, 8, 57, 62
9, 26774, Note_off_c, 8, 57, 0
9, 26784, Note_on_c, 8, 54, 54
9, 26824, Note_off_c, 8, 62, 0
9, 26826, Note_off_c, 8, 66, 0
9, 26842, Note_off_c, 8, 54, 0
9, 27072, Note_on_c, 8, 62, 87
9, 27074, Note_on_c, 8, 66, 94
9, 27076, Note_on_c, 8, 69, 108
9, 27090, Note_off_c, 8, 62, 0
9, 27092, Note_off_c, 8, 66, 0
9, 27094, Note_off_c, 8, 69, 0
9, 27360, Note_on_c, 8, 62, 84
9, 27362, Note_on_c, 8, 66, 101
9, 27364, Note_on_c, 8, 71, 115
9, 27378, Note_off_c, 8, 62, 0
9, 27380, Note_off_c, 8, 66, 0
9, 27382, Note_off_c, 8, 71, 0
9, 27552, Note_on_c, 8, 62, 87
9, 27554, Note_on_c, 8, 66, 101
9, 27556, Note_on_c, 8, 71, 108
9, 27570, Note_off_c, 8, 62, 0
9, 27572, Note_off_c, 8, 66, 0
9, 27574, Note_off_c, 8, 71, 0
9, 27840, Note_on_c, 8, 59, 91
9, 27842, Note_on_c, 8, 62, 103
9, 27844, Note_on_c, 8, 67, 112
9, 27858, Note_off_c, 8, 59, 0
9, 27860, Note_off_c, 8, 62, 0
9, 27862, Note_off_c, 8, 67, 0
9, 28128, Note_on_c, 8, 62, 84
9, 28130, Note_on_c, 8, 66, 99
9, 28132, Note_on_c, 8, 69, 107
9, 28146, Note_off_c, 8, 62, 0
9, 28148, Note_off_c, 8, 66, 0
9, 28150, Note_off_c, 8, 69, 0
9, 28320, Note_on_c, 8, 62, 82
9, 28322, Note_on_c, 8, 66, 98
9, 28324, Note_on_c, 8, 69, 109
9, 28338, Note_off_c, 8, 62, 0
9, 28340, Note_off_c, 8, 66, 0
9, 28342, Note_off_c, 8, 69, 0
9, 28608, Note_on_c, 8, 62, 90
9, 28610, Note_on_c, 8, 66, 97
9, 28612, Note_on_c, 8, 69, 105
9, 28626, Note_off_c, 8, 62, 0
9, 28628, Note_off_c, 8, 66, 0
9, 28630, Note_off_c, 8, 69, 0
9, 28896, Note_on_c, 8, 62, 85
9, 28898, Note_on_c, 8, 66, 98
9, 28900, Note_on_c, 8, 71, 108
9, 28914, Note_off_c, 8, 62, 0
9, 28916, Note_off_c, 8, 66, 0
9, 28918, Note_off_c, 8, 71, 0
9, 29088, Note_on_c, 8, 62, 84
9, 29090, Note_on_c, 8, 66, 94
9, 29092, Note_on_c, 8, 71, 106
9, 29106, Note_off_c, 8, 62, 0
9, 29108, Note_off_c, 8, 66, 0
9, 29110, Note_off_c, 8, 71, 0
9, 29376, Note_on_c, 8, 59, 85
9, 29378, Note_on_c, 8, 62, 101
9, 29380, Note_on_c, 8, 67, 117
9, 29394, Note_off_c, 8, 59, 0
9, 29396, Note_off_c, 8, 62, 0
9, 29398, Note_off_c, 8, 67, 0
9, 29664, Note_on_c, 8, 62, 81
9, 29666, Note_on_c, 8, 66, 94
9, 29668, Note_on_c, 8, 69, 98
9, 29682, Note_off_c, 8, 62, 0
9, 29684, Note_off_c, 8, 66, 0
9, 29686, Note_off_c, 8, 69, 0
9, 29856, Note_on_c, 8, 62, 71
9, 29858, Note_on_c, 8, 66, 87
9, 29860, Note_on_c, 8, 69, 92
9, 29874, Note_off_c, 8, 62, 0
9, 29876, Note_off_c, 8, 66, 0
9, 29878, Note_off_c, 8, 69, 0
9, 30144, Note_on_c, 8, 62, 84
9, 30146, Note_on_c, 8, 66, 102
9, 30148, Note_on_c, 8, 69, 105
9, 30162, Note_off_c, 8, 62, 0
9, 30164, Note_off_c, 8, 66, 0
9, 30166, Note_off_c, 8, 69, 0
9, 30432, Note_on_c, 8, 62, 89
9, 30434, Note_on_c, 8, 66, 102
9, 30436, Note_on_c, 8, 71, 107
9, 30450, Note_off_c, 8, 62, 0
9, 30452, Note_off_c, 8, 66, 0
9, 30454, Note_off_c, 8, 71, 0
9, 30624, Note_on_c, 8, 62, 90
9, 30626, Note_on_c, 8, 66, 96
9, 30628, Note_on_c, 8, 71, 111
9, 30642, Note_off_c, 8, 62, 0
9, 30644, Note_off_c, 8, 66, 0
9, 30646, Note_off_c, 8, 71, 0
9, 30912, Note_on_c, 8, 59, 88
9, 30914, Note_on_c, 8, 62, 97
9, 30916, Note_on_c, 8, 67, 115
9, 30930, Note_off_c, 8, 59, 0
9, 30932, Note_off_c, 8, 62, 0
9, 30934, Note_off_c, 8, 67, 0
9, 31200, Note_on_c, 8, 62, 82
9, 31202, Note_on_c, 8, 66, 94
9, 31204, Note_on_c, 8, 69, 105
9, 31218, Note_off_c, 8, 62, 0
9, 31220, Note_off_c, 8, 66, 0
9, 31222, Note_off_c, 8, 69, 0
9, 31392, Note_on_c, 8, 62, 83
9, 31394, Note_on_c, 8, 66, 100
9, 31396, Note_on_c, 8, 69, 112
9, 31410, Note_off_c, 8, 62, 0
9, 31412, Note_off_c, 8, 66, 0
9, 31414, Note_off_c, 8, 69, 0
9, 31680, Note_on_c, 8, 61, 86
9, 31682, Note_on_c, 8, 66, 95
9, 31684, Note_on_c, 8, 69, 114
9, 31698, Note_off_c, 8, 61, 0
9, 31700, Note_off_c, 8, 66, 0
9, 31702, Note_off_c, 8, 69, 0
9, 31776, Note_on_c, 8, 59, 98
9, 31778, Note_on_c, 8, 62, 100
9, 31780, Note_on_c, 8, 67, 121
9, 31794, Note_off_c, 8, 59, 0
9, 31796, Note_off_c, 8, 62, 0
9, 31798, Note_off_c, 8, 67, 0
9, 34176, Note_on_c, 8, 62, 88
9, 34178, Note_on_c, 8, 66, 93
9, 34180, Note_on_c, 8, 69, 107
9, 34194, Note_off_c, 8, 62, 0
9, 34196, Note_off_c, 8, 66, 0
9, 34198, Note_off_c, 8, 69, 0
9, 34464, Note_on_c, 8, 62, 85
9, 34466, Note_on_c, 8, 66, 102
9, 34468, Note_on_c, 8, 71, 111
9, 34482, Note_off_c, 8, 62, 0
9, 34484, Note_off_c, 8, 66, 0
9, 34486, Note_off_c, 8, 71, 0
9, 34656, Note_on_c, 8, 62, 87
9, 34658, Note_on_c, 8, 66, 103
9, 34660, Note_on_c, 8, 71, 109
9, 34674, Note_off_c, 8, 62, 0
9, 34676, Note_off_c, 8, 66, 0
9, 34678, Note_off_c, 8, 71, 0
9, 34752, Note_on_c, 8, 59, 93
9, 34754, Note_on_c, 8, 62, 105
9, 34756, Note_on_c, 8, 67, 115
9, 34866, Note_off_c, 8, 59, 0
9, 34868, Note_off_c, 8, 62, 0
9, 34870, Note_off_c, 8, 67, 0
9, 34944, Note_on_c, 8, 59, 92
9, 34946, Note_on_c, 8, 62, 102
9, 34948, Note_on_c, 8, 67, 113
9, 35022, Note_off_c, 8, 59, 0
9, 35024, Note_off_c, 8, 62, 0
9, 35026, Note_off_c, 8, 67, 0
9, 35040, Note_on_c, 8, 57, 76
9, 35042, Note_on_c, 8, 62, 92
9, 35044, Note_on_c, 8, 66, 114
9, 36526, Note_off_c, 8, 57, 0
9, 36528, Note_off_c, 8, 62, 0
9, 36530, Note_off_c, 8, 66, 0
9, 37536, Control_c, 8, 120, 0
9, 37584, Control_c, 8, 123, 0
9, 37632, End_track
10, 0, Start_track
10, 0, Sequencer_specific, 5, 5, 15, 9, 12, 64
10, 0, Sequencer_specific, 15, 5, 15, 6, 71, 101, 110, 101, 114, 97, 108, 32, 77, 73, 68, 73
10, 0, Title_t, "Percussion"
10, 0, Sequencer_specific, 4, 5, 15, 16, 25
10, 0, Program_c, 9, 40
10, 192, Control_c, 9, 121, 0
10, 322, Control_c, 9, 7, 126
10, 326, Control_c, 9, 91, 78
10, 328, Control_c, 9, 93, 0
10, 336, Pitch_bend_c, 9, 8192
10, 336, Control_c, 9, 11, 127
10, 768, Note_on_c, 9, 38, 86
10, 768, Note_on_c, 9, 42, 78
10, 772, Note_off_c, 9, 42, 0
10, 772, Note_off_c, 9, 38, 0
10, 864, Note_on_c, 9, 38, 46
10, 868, Note_off_c, 9, 38, 0
10, 920, Note_on_c, 9, 42, 48
10, 924, Note_off_c, 9, 42, 0
10, 960, Note_on_c, 9, 38, 88
10, 960, Note_on_c, 9, 42, 69
10, 964, Note_off_c, 9, 42, 0
10, 964, Note_off_c, 9, 38, 0
10, 1056, Note_on_c, 9, 38, 54
10, 1056, Note_on_c, 9, 42, 37
10, 1060, Note_off_c, 9, 42, 0
10, 1060, Note_off_c, 9, 38, 0
10, 1152, Note_on_c, 9, 38, 84
10, 1152, Note_on_c, 9, 42, 69
10, 1156, Note_off_c, 9, 42, 0
10, 1156, Note_off_c, 9, 38, 0
10, 1248, Note_on_c, 9, 38, 45
10, 1248, Note_on_c, 9, 42, 44
10, 1252, Note_off_c, 9, 42, 0
10, 1252, Note_off_c, 9, 38, 0
10, 1344, Note_on_c, 9, 39, 102
10, 1344, Note_on_c, 9, 42, 75
10, 1348, Note_off_c, 9, 42, 0
10, 1348, Note_off_c, 9, 39, 0
10, 1440, Note_on_c, 9, 38, 50
10, 1440, Note_on_c, 9, 42, 37
10, 1444, Note_off_c, 9, 42, 0
10, 1444, Note_off_c, 9, 38, 0
10, 1536, Note_on_c, 9, 38, 84
10, 1536, Note_on_c, 9, 42, 75
10, 1540, Note_off_c, 9, 42, 0
10, 1540, Note_off_c, 9, 38, 0
10, 1632, Note_on_c, 9, 38, 45
10, 1636, Note_off_c, 9, 38, 0
10, 1688, Note_on_c, 9, 42, 46
10, 1692, Note_off_c, 9, 42, 0
10, 1728, Note_on_c, 9, 38, 91
10, 1728, Note_on_c, 9, 42, 74
10, 1732, Note_off_c, 9, 42, 0
10, 1732, Note_off_c, 9, 38, 0
10, 1824, Note_on_c, 9, 38, 51
10, 1824, Note_on_c, 9, 42, 42
10, 1828, Note_off_c, 9, 42, 0
10, 1828, Note_off_c, 9, 38, 0
10, 1920, Note_on_c, 9, 38, 84
10, 1920, Note_on_c, 9, 42, 73
10, 1924, Note_off_c, 9, 42, 0
10, 1924, Note_off_c, 9, 38, 0
10, 2016, Note_on_c, 9, 38, 54
10, 2016, Note_on_c, 9, 42, 44
10, 2020, Note_off_c, 9, 42, 0
10, 2020, Note_off_c, 9, 38, 0
10, 2112, Note_on_c, 9, 39, 103
10, 2112, Note_on_c, 9, 42, 75
10, 2116, Note_off_c, 9, 42, 0
10, 2116, Note_off_c, 9, 39, 0
10, 2208, Note_on_c, 9, 38, 45
10, 2208, Note_on_c, 9, 42, 40
10, 2212, Note_off_c, 9, 42, 0
10, 2212, Note_off_c, 9, 38, 0
10, 2304, Note_on_c, 9, 38, 92
10, 2304, Note_on_c, 9, 42, 71
10, 2308, Note_off_c, 9, 42, 0
10, 2308, Note_off_c, 9, 38, 0
10, 2400, Note_on_c, 9, 38, 50
10, 2404, Note_off_c, 9, 38, 0
10, 2456, Note_on_c, 9, 42, 42
10, 2460, Note_off_c, 9, 42, 0
10, 2496, Note_on_c, 9, 38, 87
10, 2496, Note_on_c, 9, 42, 75
10, 2500, Note_off_c, 9, 42, 0
10, 2500, Note_off_c, 9, 38, 0
10, 2592, Note_on_c, 9, 38, 49
10, 2592, Note_on_c, 9, 42, 39
10, 2596, Note_off_c, 9, 42, 0
10, 2596, Note_off_c, 9, 38, 0
10, 2688, Note_on_c, 9, 38, 93
10, 2688, Note_on_c, 9, 42, 76
10, 2692, Note_off_c, 9, 42, 0
10, 2692, Note_off_c, 9, 38, 0
10, 2784, Note_on_c, 9, 38, 49
10, 2784, Note_on_c, 9, 42, 41
10, 2788, Note_off_c, 9, 42, 0
10, 2788, Note_off_c, 9, 38, 0
10, 2880, Note_on_c, 9, 39, 99
10, 2880, Note_on_c, 9, 42, 70
10, 2884, Note_off_c, 9, 42, 0
10, 2884, Note_off_c, 9, 39, 0
10, 2976, Note_on_c, 9, 38, 51
10, 2976, Note_on_c, 9, 42, 46
10, 2980, Note_off_c, 9, 42, 0
10, 2980, Note_off_c, 9, 38, 0
10, 3072, Note_on_c, 9, 38, 87
10, 3072, Note_on_c, 9, 42, 77
10, 3076, Note_off_c, 9, 42, 0
10, 3076, Note_off_c, 9, 38, 0
10, 3168, Note_on_c, 9, 38, 50
10, 3172, Note_off_c, 9, 38, 0
10, 3224, Note_on_c, 9, 42, 45
10, 3228, Note_off_c, 9, 42, 0
10, 3264, Note_on_c, 9, 38, 86
10, 3264, Note_on_c, 9, 42, 70
10, 3268, Note_off_c, 9, 42, 0
10, 3268, Note_off_c, 9, 38, 0
10, 3360, Note_on_c, 9, 38, 48
10, 3360, Note_on_c, 9, 42, 38
10, 3364, Note_off_c, 9, 42, 0
10, 3364, Note_off_c, 9, 38, 0
10, 3456, Note_on_c, 9, 38, 90
10, 3456, Note_on_c, 9, 42, 69
10, 3460, Note_off_c, 9, 42, 0
10, 3460, Note_off_c, 9, 38, 0
10, 3552, Note_on_c, 9, 38, 50
10, 3552, Note_on_c, 9, 42, 45
10, 3556, Note_off_c, 9, 42, 0
10, 3556, Note_off_c, 9, 38, 0
10, 3648, Note_on_c, 9, 39, 107
10, 3648, Note_on_c, 9, 42, 70
10, 3652, Note_off_c, 9, 42, 0
10, 3652, Note_off_c, 9, 39, 0
10, 3744, Note_on_c, 9, 38, 48
10, 3744, Note_on_c, 9, 42, 44
10, 3748, Note_off_c, 9, 42, 0
10, 3748, Note_off_c, 9, 38, 0
10, 3840, Note_on_c, 9, 36, 105
10, 3840, Note_on_c, 9, 38, 89
10, 3840, Note_on_c, 9, 42, 73
10, 3844, Note_off_c, 9, 42, 0
10, 3844, Note_off_c, 9, 38, 0
10, 3844, Note_off_c, 9, 36, 0
10, 3936, Note_on_c, 9, 38, 51
10, 3940, Note_off_c, 9, 38, 0
10, 3992, Note_on_c, 9, 38, 66
10, 3992, Note_on_c, 9, 42, 43
10, 3996, Note_off_c, 9, 42, 0
10, 3996, Note_off_c, 9, 38, 0
10, 4032, Note_on_c, 9, 39, 104
10, 4032, Note_on_c, 9, 42, 74
10, 4036, Note_off_c, 9, 42, 0
10, 4036, Note_off_c, 9, 39, 0
10, 4128, Note_on_c, 9, 36, 76
10, 4128, Note_on_c, 9, 38, 50
10, 4128, Note_on_c, 9, 42, 41
10, 4132, Note_off_c, 9, 42, 0
10, 4132, Note_off_c, 9, 38, 0
10, 4132, Note_off_c, 9, 36, 0
10, 4224, Note_on_c, 9, 38, 86
10, 4224, Note_on_c, 9, 42, 71
10, 4228, Note_off_c, 9, 42, 0
10, 4228, Note_off_c, 9, 38, 0
10, 4320, Note_on_c, 9, 39, 73
10, 4320, Note_on_c, 9, 42, 40
10, 4324, Note_off_c, 9, 42, 0
10, 4324, Note_off_c, 9, 39, 0
10, 4416, Note_on_c, 9, 39, 108
10, 4416, Note_on_c, 9, 42, 80
10, 4420, Note_off_c, 9, 42, 0
10, 4420, Note_off_c, 9, 39, 0
10, 4512, Note_on_c, 9, 39, 82
10, 4512, Note_on_c, 9, 42, 44
10, 4516, Note_off_c, 9, 42, 0
10, 4516, Note_off_c, 9, 39, 0
10, 4608, Note_on_c, 9, 36, 100
10, 4608, Note_on_c, 9, 38, 87
10, 4608, Note_on_c, 9, 42, 76
10, 4612, Note_off_c, 9, 42, 0
10, 4612, Note_off_c, 9, 38, 0
10, 4612, Note_off_c, 9, 36, 0
10, 4704, Note_on_c, 9, 38, 51
10, 4708, Note_off_c, 9, 38, 0
10, 4760, Note_on_c, 9, 42, 49
10, 4764, Note_off_c, 9, 42, 0
10, 4800, Note_on_c, 9, 39, 107
10, 4800, Note_on_c, 9, 42, 76
10, 4804, Note_off_c, 9, 42, 0
10, 4804, Note_off_c, 9, 39, 0
10, 4896, Note_on_c, 9, 36, 80
10, 4896, Note_on_c, 9, 38, 55
10, 4896, Note_on_c, 9, 42, 45
10, 4900, Note_off_c, 9, 42, 0
10, 4900, Note_off_c, 9, 38, 0
10, 4900, Note_off_c, 9, 36, 0
10, 4992, Note_on_c, 9, 38, 91
10, 4992, Note_on_c, 9, 42, 71
10, 4996, Note_off_c, 9, 42, 0
10, 4996, Note_off_c, 9, 38, 0
10, 5088, Note_on_c, 9, 39, 76
10, 5088, Note_on_c, 9, 42, 39
10, 5092, Note_off_c, 9, 42, 0
10, 5092, Note_off_c, 9, 39, 0
10, 5184, Note_on_c, 9, 39, 104
10, 5184, Note_on_c, 9, 42, 74
10, 5188, Note_off_c, 9, 42, 0
10, 5188, Note_off_c, 9, 39, 0
10, 5280, Note_on_c, 9, 39, 80
10, 5280, Note_on_c, 9, 42, 40
10, 5284, Note_off_c, 9, 42, 0
10, 5284, Note_off_c, 9, 39, 0
10, 5376, Note_on_c, 9, 36, 102
10, 5376, Note_on_c, 9, 38, 92
10, 5376, Note_on_c, 9, 42, 73
10, 5380, Note_off_c, 9, 42, 0
10, 5380, Note_off_c, 9, 38, 0
10, 5380, Note_off_c, 9, 36, 0
10, 5472, Note_on_c, 9, 38, 55
10, 5476, Note_off_c, 9, 38, 0
10, 5528, Note_on_c, 9, 38, 69
10, 5528, Note_on_c, 9, 42, 48
10, 5532, Note_off_c, 9, 42, 0
10, 5532, Note_off_c, 9, 38, 0
10, 5568, Note_on_c, 9, 39, 105
10, 5568, Note_on_c, 9, 42, 76
10, 5572, Note_off_c, 9, 42, 0
10, 5572, Note_off_c, 9, 39, 0
10, 5664, Note_on_c, 9, 36, 83
10, 5664, Note_on_c, 9, 38, 47
10, 5664, Note_on_c, 9, 42, 42
10, 5668, Note_off_c, 9, 42, 0
10, 5668, Note_off_c, 9, 38, 0
10, 5668, Note_off_c, 9, 36, 0
10, 5760, Note_on_c, 9, 38, 95
10, 5760, Note_on_c, 9, 42, 78
10, 5764, Note_off_c, 9, 42, 0
10, 5764, Note_off_c, 9, 38, 0
10, 5856, Note_on_c, 9, 39, 75
10, 5856, Note_on_c, 9, 42, 47
10, 5860, Note_off_c, 9, 42, 0
10, 5860, Note_off_c, 9, 39, 0
10, 5952, Note_on_c, 9, 39, 105
10, 5952, Note_on_c, 9, 42, 79
10, 5956, Note_off_c, 9, 42, 0
10, 5956, Note_off_c, 9, 39, 0
10, 6048, Note_on_c, 9, 39, 83
10, 6048, Note_on_c, 9, 42, 39
10, 6052, Note_off_c, 9, 42, 0
10, 6052, Note_off_c, 9, 39, 0
10, 6144, Note_on_c, 9, 36, 107
10, 6144, Note_on_c, 9, 38, 96
10, 6144, Note_on_c, 9, 42, 80
10, 6148, Note_off_c, 9, 42, 0
10, 6148, Note_off_c, 9, 38, 0
10, 6148, Note_off_c, 9, 36, 0
10, 6240, Note_on_c, 9, 38, 54
10, 6244, Note_off_c, 9, 38, 0
10, 6296, Note_on_c, 9, 42, 50
10, 6300, Note_off_c, 9, 42, 0
10, 6336, Note_on_c, 9, 39, 109
10, 6336, Note_on_c, 9, 42, 71
10, 6340, Note_off_c, 9, 42, 0
10, 6340, Note_off_c, 9, 39, 0
10, 6432, Note_on_c, 9, 36, 74
10, 6432, Note_on_c, 9, 38, 54
10, 6432, Note_on_c, 9, 42, 40
10, 6436, Note_off_c, 9, 42, 0
10, 6436, Note_off_c, 9, 38, 0
10, 6436, Note_off_c, 9, 36, 0
10, 6528, Note_on_c, 9, 38, 94
10, 6528, Note_on_c, 9, 42, 78
10, 6532, Note_off_c, 9, 42, 0
10, 6532, Note_off_c, 9, 38, 0
10, 6624, Note_on_c, 9, 39, 68
10, 6624, Note_on_c, 9, 42, 45
10, 6628, Note_off_c, 9, 42, 0
10, 6628, Note_off_c, 9, 39, 0
10, 6720, Note_on_c, 9, 39, 103
10, 6720, Note_on_c, 9, 42, 71
10, 6724, Note_off_c, 9, 42, 0
10, 6724, Note_off_c, 9, 39, 0
10, 6816, Note_on_c, 9, 39, 82
10, 6816, Note_on_c, 9, 42, 40
10, 6820, Note_off_c, 9, 42, 0
10, 6820, Note_off_c, 9, 39, 0
10, 6912, Note_on_c, 9, 36, 98
10, 6912, Note_on_c, 9, 38, 93
10, 6912, Note_on_c, 9, 42, 74
10, 6916, Note_off_c, 9, 42, 0
10, 6916, Note_off_c, 9, 38, 0
10, 6916, Note_off_c, 9, 36, 0
10, 7008, Note_on_c, 9, 38, 48
10, 7012, Note_off_c, 9, 38, 0
10, 7064, Note_on_c, 9, 38, 63
10, 7064, Note_on_c, 9, 42, 52
10, 7068, Note_off_c, 9, 42, 0
10, 7068, Note_off_c, 9, 38, 0
10, 7104, Note_on_c, 9, 39, 103
10, 7104, Note_on_c, 9, 42, 76
10, 7108, Note_off_c, 9, 42, 0
10, 7108, Note_off_c, 9, 39, 0
10, 7200, Note_on_c, 9, 36, 78
10, 7200, Note_on_c, 9, 38, 50
10, 7200, Note_on_c, 9, 42, 40
10, 7204, Note_off_c, 9, 42, 0
10, 7204, Note_off_c, 9, 38, 0
10, 7204, Note_off_c, 9, 36, 0
10, 7296, Note_on_c, 9, 38, 95
10, 7296, Note_on_c, 9, 42, 78
10, 7300, Note_off_c, 9, 42, 0
10, 7300, Note_off_c, 9, 38, 0
10, 7392, Note_on_c, 9, 39, 70
10, 7392, Note_on_c, 9, 42, 45
10, 7396, Note_off_c, 9, 42, 0
10, 7396, Note_off_c, 9, 39, 0
10, 7488, Note_on_c, 9, 39, 103
10, 7488, Note_on_c, 9, 42, 78
10, 7492, Note_off_c, 9, 42, 0
10, 7492, Note_off_c, 9, 39, 0
10, 7584, Note_on_c, 9, 39, 78
10, 7584, Note_on_c, 9, 42, 41
10, 7588, Note_off_c, 9, 42, 0
10, 7588, Note_off_c, 9, 39, 0
10, 7680, Note_on_c, 9, 36, 107
10, 7680, Note_on_c, 9, 38, 91
10, 7680, Note_on_c, 9, 42, 71
10, 7684, Note_off_c, 9, 42, 0
10, 7684, Note_off_c, 9, 38, 0
10, 7684, Note_off_c, 9, 36, 0
10, 7776, Note_on_c, 9, 38, 54
10, 7780, Note_off_c, 9, 38, 0
10, 7832, Note_on_c, 9, 42, 52
10, 7836, Note_off_c, 9, 42, 0
10, 7872, Note_on_c, 9, 39, 107
10, 7872, Note_on_c, 9, 42, 78
10, 7876, Note_off_c, 9, 42, 0
10, 7876, Note_off_c, 9, 39, 0
10, 7968, Note_on_c, 9, 36, 78
10, 7968, Note_on_c, 9, 38, 54
10, 7968, Note_on_c, 9, 42, 42
10, 7972, Note_off_c, 9, 42, 0
10, 7972, Note_off_c, 9, 38, 0
10, 7972, Note_off_c, 9, 36, 0
10, 8064, Note_on_c, 9, 38, 93
10, 8064, Note_on_c, 9, 42, 73
10, 8068, Note_off_c, 9, 42, 0
10, 8068, Note_off_c, 9, 38, 0
10, 8160, Note_on_c, 9, 39, 70
10, 8160, Note_on_c, 9, 42, 39
10, 8164, Note_off_c, 9, 42, 0
10, 8164, Note_off_c, 9, 39, 0
10, 8256, Note_on_c, 9, 39, 109
10, 8256, Note_on_c, 9, 42, 76
10, 8260, Note_off_c, 9, 42, 0
10, 8260, Note_off_c, 9, 39, 0
10, 8352, Note_on_c, 9, 39, 76
10, 8352, Note_on_c, 9, 42, 47
10, 8356, Note_off_c, 9, 42, 0
10, 8356, Note_off_c, 9, 39, 0
10, 8448, Note_on_c, 9, 36, 101
10, 8448, Note_on_c, 9, 38, 86
10, 8448, Note_on_c, 9, 42, 73
10, 8452, Note_off_c, 9, 42, 0
10, 8452, Note_off_c, 9, 38, 0
10, 8452, Note_off_c, 9, 36, 0
10, 8544, Note_on_c, 9, 38, 52
10, 8548, Note_off_c, 9, 38, 0
10, 8600, Note_on_c, 9, 38, 68
10, 8600, Note_on_c, 9, 42, 44
10, 8604, Note_off_c, 9, 42, 0
10, 8604, Note_off_c, 9, 38, 0
10, 8640, Note_on_c, 9, 39, 101
10, 8640, Note_on_c, 9, 42, 80
10, 8644, Note_off_c, 9, 42, 0
10, 8644, Note_off_c, 9, 39, 0
10, 8736, Note_on_c, 9, 36, 78
10, 8736, Note_on_c, 9, 38, 54
10, 8736, Note_on_c, 9, 42, 43
10, 8740, Note_off_c, 9, 42, 0
10, 8740, Note_off_c, 9, 38, 0
10, 8740, Note_off_c, 9, 36, 0
10, 8832, Note_on_c, 9, 38, 94
10, 8832, Note_on_c, 9, 42, 71
10, 8836, Note_off_c, 9, 42, 0
10, 8836, Note_off_c, 9, 38, 0
10, 8928, Note_on_c, 9, 39, 68
10, 8928, Note_on_c, 9, 42, 48
10, 8932, Note_off_c, 9, 42, 0
10, 8932, Note_off_c, 9, 39, 0
10, 9024, Note_on_c, 9, 36, 77
10, 9024, Note_on_c, 9, 39, 109
10, 9024, Note_on_c, 9, 42, 72
10, 9028, Note_off_c, 9, 42, 0
10, 9028, Note_off_c, 9, 39, 0
10, 9028, Note_off_c, 9, 36, 0
10, 9120, Note_on_c, 9, 39, 79
10, 9120, Note_on_c, 9, 42, 48
10, 9124, Note_off_c, 9, 42, 0
10, 9124, Note_off_c, 9, 39, 0
10, 9216, Note_on_c, 9, 36, 103
10, 9216, Note_on_c, 9, 38, 87
10, 9216, Note_on_c, 9, 42, 78
10, 9220, Note_off_c, 9, 42, 0
10, 9220, Note_off_c, 9, 38, 0
10, 9220, Note_off_c, 9, 36, 0
10, 9312, Note_on_c, 9, 38, 54
10, 9316, Note_off_c, 9, 38, 0
10, 9368, Note_on_c, 9, 42, 46
10, 9372, Note_off_c, 9, 42, 0
10, 9408, Note_on_c, 9, 36, 74
10, 9408, Note_on_c, 9, 39, 105
10, 9408, Note_on_c, 9, 42, 74
10, 9412, Note_off_c, 9, 42, 0
10, 9412, Note_off_c, 9, 39, 0
10, 9412, Note_off_c, 9, 36, 0
10, 9504, Note_on_c, 9, 36, 83
10, 9504, Note_on_c, 9, 38, 47
10, 9504, Note_on_c, 9, 42, 40
10, 9508, Note_off_c, 9, 42, 0
10, 9508, Note_off_c, 9, 38, 0
10, 9508, Note_off_c, 9, 36, 0
10, 11520, Note_on_c, 9, 36, 108
10, 11520, Note_on_c, 9, 38, 94
10, 11520, Note_on_c, 9, 42, 74
10, 11524, Note_off_c, 9, 42, 0
10, 11524, Note_off_c, 9, 38, 0
10, 11524, Note_off_c, 9, 36, 0
10, 11616, Note_on_c, 9, 38, 57
10, 11620, Note_off_c, 9, 38, 0
10, 11672, Note_on_c, 9, 38, 72
10, 11672, Note_on_c, 9, 42, 45
10, 11676, Note_off_c, 9, 42, 0
10, 11676, Note_off_c, 9, 38, 0
10, 11712, Note_on_c, 9, 39, 108
10, 11712, Note_on_c, 9, 42, 82
10, 11716, Note_off_c, 9, 42, 0
10, 11716, Note_off_c, 9, 39, 0
10, 11808, Note_on_c, 9, 36, 81
10, 11808, Note_on_c, 9, 38, 53
10, 11808, Note_on_c, 9, 42, 43
10, 11812, Note_off_c, 9, 42, 0
10, 11812, Note_off_c, 9, 38, 0
10, 11812, Note_off_c, 9, 36, 0
10, 11904, Note_on_c, 9, 38, 92
10, 11904, Note_on_c, 9, 42, 76
10, 11908, Note_off_c, 9, 42, 0
10, 11908, Note_off_c, 9, 38, 0
10, 12000, Note_on_c, 9, 39, 74
10, 12000, Note_on_c, 9, 42, 44
10, 12004, Note_off_c, 9, 42, 0
10, 12004, Note_off_c, 9, 39, 0
10, 12096, Note_on_c, 9, 39, 111
10, 12096, Note_on_c, 9, 42, 78
10, 12100, Note_off_c, 9, 42, 0
10, 12100, Note_off_c, 9, 39, 0
10, 12192, Note_on_c, 9, 39, 81
10, 12192, Note_on_c, 9, 42, 50
10, 12196, Note_off_c, 9, 42, 0
10, 12196, Note_off_c, 9, 39, 0
10, 12288, Note_on_c, 9, 36, 100
10, 12288, Note_on_c, 9, 38, 93
10, 12288, Note_on_c, 9, 42, 75
10, 12292, Note_off_c, 9, 42, 0
10, 12292, Note_off_c, 9, 38, 0
10, 12292, Note_off_c, 9, 36, 0
10, 12384, Note_on_c, 9, 38, 51
10, 12388, Note_off_c, 9, 38, 0
10, 12440, Note_on_c, 9, 42, 50
10, 12444, Note_off_c, 9, 42, 0
10, 12480, Note_on_c, 9, 39, 107
10, 12480, Note_on_c, 9, 42, 80
10, 12484, Note_off_c, 9, 42, 0
10, 12484, Note_off_c, 9, 39, 0
10, 12576, Note_on_c, 9, 36, 77
10, 12576, Note_on_c, 9, 38, 53
10, 12576, Note_on_c, 9, 42, 41
10, 12580, Note_off_c, 9, 42, 0
10, 12580, Note_off_c, 9, 38, 0
10, 12580, Note_off_c, 9, 36, 0
10, 12672, Note_on_c, 9, 38, 96
10, 12672, Note_on_c, 9, 42, 73
10, 12676, Note_off_c, 9, 42, 0
10, 12676, Note_off_c, 9, 38, 0
10, 12768, Note_on_c, 9, 39, 78
10, 12768, Note_on_c, 9, 42, 43
10, 12772, Note_off_c, 9, 42, 0
10, 12772, Note_off_c, 9, 39, 0
10, 12864, Note_on_c, 9, 39, 110
10, 12864, Note_on_c, 9, 42, 79
10, 12868, Note_off_c, 9, 42, 0
10, 12868, Note_off_c, 9, 39, 0
10, 12960, Note_on_c, 9, 39, 78
10, 12960, Note_on_c, 9, 42, 48
10, 12964, Note_off_c, 9, 42, 0
10, 12964, Note_off_c, 9, 39, 0
10, 13056, Note_on_c, 9, 36, 101
10, 13056, Note_on_c, 9, 38, 91
10, 13056, Note_on_c, 9, 42, 80
10, 13060, Note_off_c, 9, 42, 0
10, 13060, Note_off_c, 9, 38, 0
10, 13060, Note_off_c, 9, 36, 0
10, 13152, Note_on_c, 9, 38, 54
10, 13156, Note_off_c, 9, 38, 0
10, 13208, Note_on_c, 9, 38, 66
10, 13208, Note_on_c, 9, 42, 45
10, 13212, Note_off_c, 9, 42, 0
10, 13212, Note_off_c, 9, 38, 0
10, 13248, Note_on_c, 9, 39, 106
10, 13248, Note_on_c, 9, 42, 75
10, 13252, Note_off_c, 9, 42, 0
10, 13252, Note_off_c, 9, 39, 0
10, 13344, Note_on_c, 9, 36, 85
10, 13344, Note_on_c, 9, 38, 49
10, 13344, Note_on_c, 9, 42, 46
10, 13348, Note_off_c, 9, 42, 0
10, 13348, Note_off_c, 9, 38, 0
10, 13348, Note_off_c, 9, 36, 0
10, 13440, Note_on_c, 9, 38, 88
10, 13440, Note_on_c, 9, 42, 74
10, 13444, Note_off_c, 9, 42, 0
10, 13444, Note_off_c, 9, 38, 0
10, 13536, Note_on_c, 9, 39, 70
10, 13536, Note_on_c, 9, 42, 45
10, 13540, Note_off_c, 9, 42, 0
10, 13540, Note_off_c, 9, 39, 0
10, 13632, Note_on_c, 9, 39, 108
10, 13632, Note_on_c, 9, 42, 81
10, 13636, Note_off_c, 9, 42, 0
10, 13636, Note_off_c, 9, 39, 0
10, 13728, Note_on_c, 9, 39, 83
10, 13728, Note_on_c, 9, 42, 44
10, 13732, Note_off_c, 9, 42, 0
10, 13732, Note_off_c, 9, 39, 0
10, 13824, Note_on_c, 9, 36, 106
10, 13824, Note_on_c, 9, 38, 88
10, 13824, Note_on_c, 9, 42, 80
10, 13828, Note_off_c, 9, 42, 0
10, 13828, Note_off_c, 9, 38, 0
10, 13828, Note_off_c, 9, 36, 0
10, 13920, Note_on_c, 9, 38, 51
10, 13924, Note_off_c, 9, 38, 0
10, 13976, Note_on_c, 9, 42, 46
10, 13980, Note_off_c, 9, 42, 0
10, 14016, Note_on_c, 9, 39, 109
10, 14016, Note_on_c, 9, 42, 76
10, 14020, Note_off_c, 9, 42, 0
10, 14020, Note_off_c, 9, 39, 0
10, 14112, Note_on_c, 9, 36, 82
10, 14112, Note_on_c, 9, 38, 59
10, 14112, Note_on_c, 9, 42, 48
10, 14116, Note_off_c, 9, 42, 0
10, 14116, Note_off_c, 9, 38, 0
10, 14116, Note_off_c, 9, 36, 0
10, 14208, Note_on_c, 9, 38, 92
10, 14208, Note_on_c, 9, 42, 78
10, 14212, Note_off_c, 9, 42, 0
10, 14212, Note_off_c, 9, 38, 0
10, 14304, Note_on_c, 9, 39, 77
10, 14304, Note_on_c, 9, 42, 42
10, 14308, Note_off_c, 9, 42, 0
10, 14308, Note_off_c, 9, 39, 0
10, 14400, Note_on_c, 9, 39, 108
10, 14400, Note_on_c, 9, 42, 76
10, 14404, Note_off_c, 9, 42, 0
10, 14404, Note_off_c, 9, 39, 0
10, 14496, Note_on_c, 9, 39, 84
10, 14496, Note_on_c, 9, 42, 41
10, 14500, Note_off_c, 9, 42, 0
10, 14500, Note_off_c, 9, 39, 0
10, 14592, Note_on_c, 9, 36, 102
10, 14592, Note_on_c, 9, 38, 89
10, 14592, Note_on_c, 9, 42, 78
10, 14596, Note_off_c, 9, 42, 0
10, 14596, Note_off_c, 9, 38, 0
10, 14596, Note_off_c, 9, 36, 0
10, 14688, Note_on_c, 9, 38, 50
10, 14692, Note_off_c, 9, 38, 0
10, 14744, Note_on_c, 9, 38, 63
10, 14744, Note_on_c, 9, 42, 47
10, 14748, Note_off_c, 9, 42, 0
10, 14748, Note_off_c, 9, 38, 0
10, 14784, Note_on_c, 9, 39, 103
10, 14784, Note_on_c, 9, 42, 79
10, 14788, Note_off_c, 9, 42, 0
10, 14788, Note_off_c, 9, 39, 0
10, 14880, Note_on_c, 9, 36, 83
10, 14880, Note_on_c, 9, 38, 55
10, 14880, Note_on_c, 9, 42, 49
10, 14884, Note_off_c, 9, 42, 0
10, 14884, Note_off_c, 9, 38, 0
10, 14884, Note_off_c, 9, 36, 0
10, 14976, Note_on_c, 9, 38, 90
10, 14976, Note_on_c, 9, 42, 79
10, 14980, Note_off_c, 9, 42, 0
10, 14980, Note_off_c, 9, 38, 0
10, 15072, Note_on_c, 9, 39, 78
10, 15072, Note_on_c, 9, 42, 42
10, 15076, Note_off_c, 9, 42, 0
10, 15076, Note_off_c, 9, 39, 0
10, 15168, Note_on_c, 9, 39, 105
10, 15168, Note_on_c, 9, 42, 79
10, 15172, Note_off_c, 9, 42, 0
10, 15172, Note_off_c, 9, 39, 0
10, 15264, Note_on_c, 9, 39, 85
10, 15264, Note_on_c, 9, 42, 46
10, 15268, Note_off_c, 9, 42, 0
10, 15268, Note_off_c, 9, 39, 0
10, 15360, Note_on_c, 9, 36, 103
10, 15360, Note_on_c, 9, 38, 88
10, 15360, Note_on_c, 9, 42, 75
10, 15364, Note_off_c, 9, 42, 0
10, 15364, Note_off_c, 9, 38, 0
10, 15364, Note_off_c, 9, 36, 0
10, 15456, Note_on_c, 9, 38, 50
10, 15460, Note_off_c, 9, 38, 0
10, 15512, Note_on_c, 9, 42, 51
10, 15516, Note_off_c, 9, 42, 0
10, 15552, Note_on_c, 9, 39, 110
10, 15552, Note_on_c, 9, 42, 80
10, 15556, Note_off_c, 9, 42, 0
10, 15556, Note_off_c, 9, 39, 0
10, 15648, Note_on_c, 9, 36, 80
10, 15648, Note_on_c, 9, 38, 49
10, 15648, Note_on_c, 9, 42, 41
10, 15652, Note_off_c, 9, 42, 0
10, 15652, Note_off_c, 9, 38, 0
10, 15652, Note_off_c, 9, 36, 0
10, 15744, Note_on_c, 9, 38, 97
10, 15744, Note_on_c, 9, 42, 78
10, 15748, Note_off_c, 9, 42, 0
10, 15748, Note_off_c, 9, 38, 0
10, 15840, Note_on_c, 9, 39, 75
10, 15840, Note_on_c, 9, 42, 49
10, 15844, Note_off_c, 9, 42, 0
10, 15844, Note_off_c, 9, 39, 0
10, 15936, Note_on_c, 9, 39, 110
10, 15936, Note_on_c, 9, 42, 74
10, 15940, Note_off_c, 9, 42, 0
10, 15940, Note_off_c, 9, 39, 0
10, 16032, Note_on_c, 9, 39, 78
10, 16032, Note_on_c, 9, 42, 45
10, 16036, Note_off_c, 9, 42, 0
10, 16036, Note_off_c, 9, 39, 0
10, 16128, Note_on_c, 9, 36, 107
10, 16128, Note_on_c, 9, 38, 91
10, 16128, Note_on_c, 9, 42, 82
10, 16132, Note_off_c, 9, 42, 0
10, 16132, Note_off_c, 9, 38, 0
10, 16132, Note_off_c, 9, 36, 0
10, 16224, Note_on_c, 9, 38, 55
10, 16228, Note_off_c, 9, 38, 0
10, 16280, Note_on_c, 9, 38, 70
10, 16280, Note_on_c, 9, 42, 50
10, 16284, Note_off_c, 9, 42, 0
10, 16284, Note_off_c, 9, 38, 0
10, 16320, Note_on_c, 9, 39, 108
10, 16320, Note_on_c, 9, 42, 81
10, 16324, Note_off_c, 9, 42, 0
10, 16324, Note_off_c, 9, 39, 0
10, 16416, Note_on_c, 9, 36, 79
10, 16416, Note_on_c, 9, 38, 49
10, 16416, Note_on_c, 9, 42, 44
10, 16420, Note_off_c, 9, 42, 0
10, 16420, Note_off_c, 9, 38, 0
10, 16420, Note_off_c, 9, 36, 0
10, 16512, Note_on_c, 9, 38, 96
10, 16512, Note_on_c, 9, 42, 78
10, 16516, Note_off_c, 9, 42, 0
10, 16516, Note_off_c, 9, 38, 0
10, 16608, Note_on_c, 9, 39, 72
10, 16608, Note_on_c, 9, 42, 49
10, 16612, Note_off_c, 9, 42, 0
10, 16612, Note_off_c, 9, 39, 0
10, 16704, Note_on_c, 9, 36, 77
10, 16704, Note_on_c, 9, 39, 109
10, 16704, Note_on_c, 9, 42, 79
10, 16708, Note_off_c, 9, 42, 0
10, 16708, Note_off_c, 9, 39, 0
10, 16708, Note_off_c, 9, 36, 0
10, 16800, Note_on_c, 9, 39, 80
10, 16800, Note_on_c, 9, 42, 44
10, 16804, Note_off_c, 9, 42, 0
10, 16804, Note_off_c, 9, 39, 0
10, 16896, Note_on_c, 9, 36, 107
10, 16896, Note_on_c, 9, 38, 91
10, 16896, Note_on_c, 9, 42, 81
10, 16900, Note_off_c, 9, 42, 0
10, 16900, Note_off_c, 9, 38, 0
10, 16900, Note_off_c, 9, 36, 0
10, 16992, Note_on_c, 9, 38, 58
10, 16996, Note_off_c, 9, 38, 0
10, 17048, Note_on_c, 9, 42, 48
10, 17052, Note_off_c, 9, 42, 0
10, 17088, Note_on_c, 9, 36, 82
10, 17088, Note_on_c, 9, 39, 104
10, 17088, Note_on_c, 9, 42, 80
10, 17092, Note_off_c, 9, 42, 0
10, 17092, Note_off_c, 9, 39, 0
10, 17092, Note_off_c, 9, 36, 0
10, 17184, Note_on_c, 9, 36, 78
10, 17184, Note_on_c, 9, 38, 50
10, 17184, Note_on_c, 9, 42, 43
10, 17188, Note_off_c, 9, 42, 0
10, 17188, Note_off_c, 9, 38, 0
10, 17188, Note_off_c, 9, 36, 0
10, 20448, Note_on_c, 9, 39, 64
10, 20452, Note_off_c, 9, 39, 0
10, 20544, Note_on_c, 9, 39, 82
10, 20548, Note_off_c, 9, 39, 0
10, 20640, Note_on_c, 9, 39, 63
10, 20644, Note_off_c, 9, 39, 0
10, 20736, Note_on_c, 9, 36, 103
10, 20736, Note_on_c, 9, 38, 99
10, 20736, Note_on_c, 9, 42, 82
10, 20740, Note_off_c, 9, 42, 0
10, 20740, Note_off_c, 9, 38, 0
10, 20740, Note_off_c, 9, 36, 0
10, 20832, Note_on_c, 9, 38, 57
10, 20836, Note_off_c, 9, 38, 0
10, 20888, Note_on_c, 9, 38, 73
10, 20888, Note_on_c, 9, 42, 51
10, 20892, Note_off_c, 9, 42, 0
10, 20892, Note_off_c, 9, 38, 0
10, 20928, Note_on_c, 9, 39, 112
10, 20928, Note_on_c, 9, 42, 78
10, 20932, Note_off_c, 9, 42, 0
10, 20932, Note_off_c, 9, 39, 0
10, 21024, Note_on_c, 9, 36, 80
10, 21024, Note_on_c, 9, 38, 56
10, 21024, Note_on_c, 9, 42, 53
10, 21028, Note_off_c, 9, 42, 0
10, 21028, Note_off_c, 9, 38, 0
10, 21028, Note_off_c, 9, 36, 0
10, 21120, Note_on_c, 9, 38, 95
10, 21120, Note_on_c, 9, 42, 77
10, 21124, Note_off_c, 9, 42, 0
10, 21124, Note_off_c, 9, 38, 0
10, 21216, Note_on_c, 9, 39, 76
10, 21216, Note_on_c, 9, 42, 53
10, 21220, Note_off_c, 9, 42, 0
10, 21220, Note_off_c, 9, 39, 0
10, 21312, Note_on_c, 9, 39, 109
10, 21312, Note_on_c, 9, 42, 76
10, 21316, Note_off_c, 9, 42, 0
10, 21316, Note_off_c, 9, 39, 0
10, 21408, Note_on_c, 9, 39, 81
10, 21408, Note_on_c, 9, 42, 50
10, 21412, Note_off_c, 9, 42, 0
10, 21412, Note_off_c, 9, 39, 0
10, 21504, Note_on_c, 9, 36, 108
10, 21504, Note_on_c, 9, 38, 94
10, 21504, Note_on_c, 9, 42, 77
10, 21508, Note_off_c, 9, 42, 0
10, 21508, Note_off_c, 9, 38, 0
10, 21508, Note_off_c, 9, 36, 0
10, 21600, Note_on_c, 9, 38, 57
10, 21604, Note_off_c, 9, 38, 0
10, 21656, Note_on_c, 9, 42, 48
10, 21660, Note_off_c, 9, 42, 0
10, 21696, Note_on_c, 9, 39, 110
10, 21696, Note_on_c, 9, 42, 76
10, 21700, Note_off_c, 9, 42, 0
10, 21700, Note_off_c, 9, 39, 0
10, 21792, Note_on_c, 9, 36, 84
10, 21792, Note_on_c, 9, 38, 56
10, 21792, Note_on_c, 9, 42, 43
10, 21796, Note_off_c, 9, 42, 0
10, 21796, Note_off_c, 9, 38, 0
10, 21796, Note_off_c, 9, 36, 0
10, 21888, Note_on_c, 9, 38, 92
10, 21888, Note_on_c, 9, 42, 78
10, 21892, Note_off_c, 9, 42, 0
10, 21892, Note_off_c, 9, 38, 0
10, 21984, Note_on_c, 9, 39, 71
10, 21984, Note_on_c, 9, 42, 45
10, 21988, Note_off_c, 9, 42, 0
10, 21988, Note_off_c, 9, 39, 0
10, 22080, Note_on_c, 9, 39, 110
10, 22080, Note_on_c, 9, 42, 81
10, 22084, Note_off_c, 9, 42, 0
10, 22084, Note_off_c, 9, 39, 0
10, 22176, Note_on_c, 9, 39, 79
10, 22176, Note_on_c, 9, 42, 51
10, 22180, Note_off_c, 9, 42, 0
10, 22180, Note_off_c, 9, 39, 0
10, 22272, Note_on_c, 9, 36, 106
10, 22272, Note_on_c, 9, 38, 99
10, 22272, Note_on_c, 9, 42, 75
10, 22276, Note_off_c, 9, 42, 0
10, 22276, Note_off_c, 9, 38, 0
10, 22276, Note_off_c, 9, 36, 0
10, 22368, Note_on_c, 9, 38, 51
10, 22372, Note_off_c, 9, 38, 0
10, 22424, Note_on_c, 9, 38, 70
10, 22424, Note_on_c, 9, 42, 50
10, 22428, Note_off_c, 9, 42, 0
10, 22428, Note_off_c, 9, 38, 0
10, 22464, Note_on_c, 9, 39, 106
10, 22464, Note_on_c, 9, 42, 80
10, 22468, Note_off_c, 9, 42, 0
10, 22468, Note_off_c, 9, 39, 0
10, 22560, Note_on_c, 9, 36, 81
10, 22560, Note_on_c, 9, 38, 52
10, 22560, Note_on_c, 9, 42, 50
10, 22564, Note_off_c, 9, 42, 0
10, 22564, Note_off_c, 9, 38, 0
10, 22564, Note_off_c, 9, 36, 0
10, 22656, Note_on_c, 9, 38, 96
10, 22656, Note_on_c, 9, 42, 82
10, 22660, Note_off_c, 9, 42, 0
10, 22660, Note_off_c, 9, 38, 0
10, 22752, Note_on_c, 9, 39, 76
10, 22752, Note_on_c, 9, 42, 45
10, 22756, Note_off_c, 9, 42, 0
10, 22756, Note_off_c, 9, 39, 0
10, 22848, Note_on_c, 9, 39, 114
10, 22848, Note_on_c, 9, 42, 84
10, 22852, Note_off_c, 9, 42, 0
10, 22852, Note_off_c, 9, 39, 0
10, 22944, Note_on_c, 9, 39, 85
10, 22944, Note_on_c, 9, 42, 52
10, 22948, Note_off_c, 9, 42, 0
10, 22948, Note_off_c, 9, 39, 0
10, 23040, Note_on_c, 9, 36, 110
10, 23040, Note_on_c, 9, 38, 98
10, 23040, Note_on_c, 9, 42, 84
10, 23044, Note_off_c, 9, 42, 0
10, 23044, Note_off_c, 9, 38, 0
10, 23044, Note_off_c, 9, 36, 0
10, 23136, Note_on_c, 9, 38, 54
10, 23140, Note_off_c, 9, 38, 0
10, 23192, Note_on_c, 9, 42, 55
10, 23196, Note_off_c, 9, 42, 0
10, 23232, Note_on_c, 9, 39, 112
10, 23232, Note_on_c, 9, 42, 79
10, 23236, Note_off_c, 9, 42, 0
10, 23236, Note_off_c, 9, 39, 0
10, 23328, Note_on_c, 9, 36, 82
10, 23328, Note_on_c, 9, 38, 53
10, 23328, Note_on_c, 9, 42, 49
10, 23332, Note_off_c, 9, 42, 0
10, 23332, Note_off_c, 9, 38, 0
10, 23332, Note_off_c, 9, 36, 0
10, 23424, Note_on_c, 9, 38, 93
10, 23424, Note_on_c, 9, 42, 75
10, 23428, Note_off_c, 9, 42, 0
10, 23428, Note_off_c, 9, 38, 0
10, 23520, Note_on_c, 9, 39, 79
10, 23520, Note_on_c, 9, 42, 50
10, 23524, Note_off_c, 9, 42, 0
10, 23524, Note_off_c, 9, 39, 0
10, 23616, Note_on_c, 9, 39, 105
10, 23616, Note_on_c, 9, 42, 75
10, 23620, Note_off_c, 9, 42, 0
10, 23620, Note_off_c, 9, 39, 0
10, 23712, Note_on_c, 9, 39, 85
10, 23712, Note_on_c, 9, 42, 52
10, 23716, Note_off_c, 9, 42, 0
10, 23716, Note_off_c, 9, 39, 0
10, 23808, Note_on_c, 9, 36, 107
10, 23808, Note_on_c, 9, 38, 91
10, 23808, Note_on_c, 9, 42, 82
10, 23812, Note_off_c, 9, 42, 0
10, 23812, Note_off_c, 9, 38, 0
10, 23812, Note_off_c, 9, 36, 0
10, 23904, Note_on_c, 9, 38, 56
10, 23908, Note_off_c, 9, 38, 0
10, 23960, Note_on_c, 9, 38, 67
10, 23960, Note_on_c, 9, 42, 50
10, 23964, Note_off_c, 9, 42, 0
10, 23964, Note_off_c, 9, 38, 0
10, 24000, Note_on_c, 9, 39, 105
10, 24000, Note_on_c, 9, 42, 79
10, 24004, Note_off_c, 9, 42, 0
10, 24004, Note_off_c, 9, 39, 0
10, 24096, Note_on_c, 9, 36, 79
10, 24096, Note_on_c, 9, 38, 54
10, 24096, Note_on_c, 9, 42, 46
10, 24100, Note_off_c, 9, 42, 0
10, 24100, Note_off_c, 9, 38, 0
10, 24100, Note_off_c, 9, 36, 0
10, 24192, Note_on_c, 9, 38, 99
10, 24192, Note_on_c, 9, 42, 83
10, 24196, Note_off_c, 9, 42, 0
10, 24196, Note_off_c, 9, 38, 0
10, 24288, Note_on_c, 9, 39, 72
10, 24288, Note_on_c, 9, 42, 52
10, 24292, Note_off_c, 9, 42, 0
10, 24292, Note_off_c, 9, 39, 0
10, 24384, Note_on_c, 9, 39, 113
10, 24384, Note_on_c, 9, 42, 75
10, 24388, Note_off_c, 9, 42, 0
10, 24388, Note_off_c, 9, 39, 0
10, 24480, Note_on_c, 9, 39, 82
10, 24480, Note_on_c, 9, 42, 47
10, 24484, Note_off_c, 9, 42, 0
10, 24484, Note_off_c, 9, 39, 0
10, 24576, Note_on_c, 9, 36, 108
10, 24576, Note_on_c, 9, 38, 94
10, 24576, Note_on_c, 9, 42, 77
10, 24580, Note_off_c, 9, 42, 0
10, 24580, Note_off_c, 9, 38, 0
10, 24580, Note_off_c, 9, 36, 0
10, 24672, Note_on_c, 9, 38, 51
10, 24676, Note_off_c, 9, 38, 0
10, 24728, Note_on_c, 9, 42, 47
10, 24732, Note_off_c, 9, 42, 0
10, 24768, Note_on_c, 9, 39, 114
10, 24768, Note_on_c, 9, 42, 77
10, 24772, Note_off_c, 9, 42, 0
10, 24772, Note_off_c, 9, 39, 0
10, 24864, Note_on_c, 9, 36, 84
10, 24864, Note_on_c, 9, 38, 55
10, 24864, Note_on_c, 9, 42, 43
10, 24868, Note_off_c, 9, 42, 0
10, 24868, Note_off_c, 9, 38, 0
10, 24868, Note_off_c, 9, 36, 0
10, 24960, Note_on_c, 9, 38, 94
10, 24960, Note_on_c, 9, 42, 78
10, 24964, Note_off_c, 9, 42, 0
10, 24964, Note_off_c, 9, 38, 0
10, 25056, Note_on_c, 9, 39, 78
10, 25056, Note_on_c, 9, 42, 49
10, 25060, Note_off_c, 9, 42, 0
10, 25060, Note_off_c, 9, 39, 0
10, 25152, Note_on_c, 9, 39, 109
10, 25152, Note_on_c, 9, 42, 83
10, 25156, Note_off_c, 9, 42, 0
10, 25156, Note_off_c, 9, 39, 0
10, 25248, Note_on_c, 9, 39, 79
10, 25248, Note_on_c, 9, 42, 44
10, 25252, Note_off_c, 9, 42, 0
10, 25252, Note_off_c, 9, 39, 0
10, 25344, Note_on_c, 9, 36, 105
10, 25344, Note_on_c, 9, 38, 93
10, 25344, Note_on_c, 9, 42, 80
10, 25348, Note_off_c, 9, 42, 0
10, 25348, Note_off_c, 9, 38, 0
10, 25348, Note_off_c, 9, 36, 0
10, 25440, Note_on_c, 9, 38, 58
10, 25444, Note_off_c, 9, 38, 0
10, 25496, Note_on_c, 9, 38, 72
10, 25496, Note_on_c, 9, 42, 53
10, 25500, Note_off_c, 9, 42, 0
10, 25500, Note_off_c, 9, 38, 0
10, 25536, Note_on_c, 9, 39, 108
10, 25536, Note_on_c, 9, 42, 82
10, 25540, Note_off_c, 9, 42, 0
10, 25540, Note_off_c, 9, 39, 0
10, 25632, Note_on_c, 9, 36, 85
10, 25632, Note_on_c, 9, 38, 60
10, 25632, Note_on_c, 9, 42, 46
10, 25636, Note_off_c, 9, 42, 0
10, 25636, Note_off_c, 9, 38, 0
10, 25636, Note_off_c, 9, 36, 0
10, 25728, Note_on_c, 9, 38, 91
10, 25728, Note_on_c, 9, 42, 84
10, 25732, Note_off_c, 9, 42, 0
10, 25732, Note_off_c, 9, 38, 0
10, 25824, Note_on_c, 9, 39, 80
10, 25824, Note_on_c, 9, 42, 52
10, 25828, Note_off_c, 9, 42, 0
10, 25828, Note_off_c, 9, 39, 0
10, 25920, Note_on_c, 9, 36, 81
10, 25920, Note_on_c, 9, 39, 109
10, 25920, Note_on_c, 9, 42, 83
10, 25924, Note_off_c, 9, 42, 0
10, 25924, Note_off_c, 9, 39, 0
10, 25924, Note_off_c, 9, 36, 0
10, 26016, Note_on_c, 9, 39, 86
10, 26016, Note_on_c, 9, 42, 47
10, 26020, Note_off_c, 9, 42, 0
10, 26020, Note_off_c, 9, 39, 0
10, 26112, Note_on_c, 9, 36, 110
10, 26112, Note_on_c, 9, 38, 93
10, 26112, Note_on_c, 9, 42, 80
10, 26116, Note_off_c, 9, 42, 0
10, 26116, Note_off_c, 9, 38, 0
10, 26116, Note_off_c, 9, 36, 0
10, 26208, Note_on_c, 9, 38, 59
10, 26212, Note_off_c, 9, 38, 0
10, 26264, Note_on_c, 9, 42, 49
10, 26268, Note_off_c, 9, 42, 0
10, 26304, Note_on_c, 9, 39, 112
10, 26304, Note_on_c, 9, 42, 83
10, 26308, Note_off_c, 9, 42, 0
10, 26308, Note_off_c, 9, 39, 0
10, 26400, Note_on_c, 9, 36, 83
10, 26400, Note_on_c, 9, 38, 52
10, 26400, Note_on_c, 9, 42, 50
10, 26404, Note_off_c, 9, 42, 0
10, 26404, Note_off_c, 9, 38, 0
10, 26404, Note_off_c, 9, 36, 0
10, 26496, Note_on_c, 9, 38, 90
10, 26496, Note_on_c, 9, 42, 75
10, 26500, Note_off_c, 9, 42, 0
10, 26500, Note_off_c, 9, 38, 0
10, 26592, Note_on_c, 9, 39, 78
10, 26592, Note_on_c, 9, 42, 48
10, 26596, Note_off_c, 9, 42, 0
10, 26596, Note_off_c, 9, 39, 0
10, 26688, Note_on_c, 9, 39, 105
10, 26688, Note_on_c, 9, 42, 76
10, 26692, Note_off_c, 9, 42, 0
10, 26692, Note_off_c, 9, 39, 0
10, 26784, Note_on_c, 9, 36, 101
10, 26784, Note_on_c, 9, 39, 78
10, 26784, Note_on_c, 9, 42, 44
10, 26788, Note_off_c, 9, 42, 0
10, 26788, Note_off_c, 9, 39, 0
10, 26788, Note_off_c, 9, 36, 0
10, 26880, Note_on_c, 9, 36, 109
10, 26880, Note_on_c, 9, 38, 99
10, 26880, Note_on_c, 9, 42, 85
10, 26884, Note_off_c, 9, 42, 0
10, 26884, Note_off_c, 9, 38, 0
10, 26884, Note_off_c, 9, 36, 0
10, 26976, Note_on_c, 9, 38, 54
10, 26980, Note_off_c, 9, 38, 0
10, 27032, Note_on_c, 9, 38, 67
10, 27032, Note_on_c, 9, 42, 57
10, 27036, Note_off_c, 9, 42, 0
10, 27036, Note_off_c, 9, 38, 0
10, 27072, Note_on_c, 9, 39, 109
10, 27072, Note_on_c, 9, 42, 82
10, 27076, Note_off_c, 9, 42, 0
10, 27076, Note_off_c, 9, 39, 0
10, 27168, Note_on_c, 9, 36, 81
10, 27168, Note_on_c, 9, 38, 53
10, 27168, Note_on_c, 9, 42, 49
10, 27172, Note_off_c, 9, 42, 0
10, 27172, Note_off_c, 9, 38, 0
10, 27172, Note_off_c, 9, 36, 0
10, 27264, Note_on_c, 9, 38, 92
10, 27264, Note_on_c, 9, 42, 85
10, 27268, Note_off_c, 9, 42, 0
10, 27268, Note_off_c, 9, 38, 0
10, 27360, Note_on_c, 9, 39, 81
10, 27360, Note_on_c, 9, 42, 54
10, 27364, Note_off_c, 9, 42, 0
10, 27364, Note_off_c, 9, 39, 0
10, 27456, Note_on_c, 9, 39, 107
10, 27456, Note_on_c, 9, 42, 83
10, 27460, Note_off_c, 9, 42, 0
10, 27460, Note_off_c, 9, 39, 0
10, 27552, Note_on_c, 9, 39, 83
10, 27552, Note_on_c, 9, 42, 45
10, 27556, Note_off_c, 9, 42, 0
10, 27556, Note_off_c, 9, 39, 0
10, 27648, Note_on_c, 9, 36, 107
10, 27648, Note_on_c, 9, 38, 96
10, 27648, Note_on_c, 9, 42, 79
10, 27652, Note_off_c, 9, 42, 0
10, 27652, Note_off_c, 9, 38, 0
10, 27652, Note_off_c, 9, 36, 0
10, 27744, Note_on_c, 9, 38, 58
10, 27748, Note_off_c, 9, 38, 0
10, 27800, Note_on_c, 9, 42, 52
10, 27804, Note_off_c, 9, 42, 0
10, 27840, Note_on_c, 9, 39, 114
10, 27840, Note_on_c, 9, 42, 81
10, 27844, Note_off_c, 9, 42, 0
10, 27844, Note_off_c, 9, 39, 0
10, 27936, Note_on_c, 9, 36, 85
10, 27936, Note_on_c, 9, 38, 61
10, 27936, Note_on_c, 9, 42, 49
10, 27940, Note_off_c, 9, 42, 0
10, 27940, Note_off_c, 9, 38, 0
10, 27940, Note_off_c, 9, 36, 0
10, 28032, Note_on_c, 9, 38, 99
10, 28032, Note_on_c, 9, 42, 85
10, 28036, Note_off_c, 9, 42, 0
10, 28036, Note_off_c, 9, 38, 0
10, 28128, Note_on_c, 9, 39, 75
10, 28128, Note_on_c, 9, 42, 46
10, 28132, Note_off_c, 9, 42, 0
10, 28132, Note_off_c, 9, 39, 0
10, 28224, Note_on_c, 9, 39, 107
10, 28224, Note_on_c, 9, 42, 82
10, 28228, Note_off_c, 9, 42, 0
10, 28228, Note_off_c, 9, 39, 0
10, 28320, Note_on_c, 9, 39, 83
10, 28320, Note_on_c, 9, 42, 52
10, 28324, Note_off_c, 9, 42, 0
10, 28324, Note_off_c, 9, 39, 0
10, 28416, Note_on_c, 9, 36, 105
10, 28416, Note_on_c, 9, 38, 97
10, 28416, Note_on_c, 9, 42, 82
10, 28420, Note_off_c, 9, 42, 0
10, 28420, Note_off_c, 9, 38, 0
10, 28420, Note_off_c, 9, 36, 0
10, 28512, Note_on_c, 9, 38, 60
10, 28516, Note_off_c, 9, 38, 0
10, 28568, Note_on_c, 9, 38, 76
10, 28568, Note_on_c, 9, 42, 57
10, 28572, Note_off_c, 9, 42, 0
10, 28572, Note_off_c, 9, 38, 0
10, 28608, Note_on_c, 9, 39, 112
10, 28608, Note_on_c, 9, 42, 77
10, 28612, Note_off_c, 9, 42, 0
10, 28612, Note_off_c, 9, 39, 0
10, 28704, Note_on_c, 9, 36, 81
10, 28704, Note_on_c, 9, 38, 56
10, 28704, Note_on_c, 9, 42, 53
10, 28708, Note_off_c, 9, 42, 0
10, 28708, Note_off_c, 9, 38, 0
10, 28708, Note_off_c, 9, 36, 0
10, 28800, Note_on_c, 9, 38, 94
10, 28800, Note_on_c, 9, 42, 85
10, 28804, Note_off_c, 9, 42, 0
10, 28804, Note_off_c, 9, 38, 0
10, 28896, Note_on_c, 9, 39, 75
10, 28896, Note_on_c, 9, 42, 47
10, 28900, Note_off_c, 9, 42, 0
10, 28900, Note_off_c, 9, 39, 0
10, 28992, Note_on_c, 9, 39, 108
10, 28992, Note_on_c, 9, 42, 83
10, 28996, Note_off_c, 9, 42, 0
10, 28996, Note_off_c, 9, 39, 0
10, 29088, Note_on_c, 9, 39, 81
10, 29088, Note_on_c, 9, 42, 45
10, 29092, Note_off_c, 9, 42, 0
10, 29092, Note_off_c, 9, 39, 0
10, 29184, Note_on_c, 9, 36, 106
10, 29184, Note_on_c, 9, 38, 97
10, 29184, Note_on_c, 9, 42, 81
10, 29188, Note_off_c, 9, 42, 0
10, 29188, Note_off_c, 9, 38, 0
10, 29188, Note_off_c, 9, 36, 0
10, 29280, Note_on_c, 9, 38, 54
10, 29284, Note_off_c, 9, 38, 0
10, 29336, Note_on_c, 9, 42, 55
10, 29340, Note_off_c, 9, 42, 0
10, 29376, Note_on_c, 9, 39, 109
10, 29376, Note_on_c, 9, 42, 83
10, 29380, Note_off_c, 9, 42, 0
10, 29380, Note_off_c, 9, 39, 0
10, 29472, Note_on_c, 9, 36, 88
10, 29472, Note_on_c, 9, 38, 60
10, 29472, Note_on_c, 9, 42, 52
10, 29476, Note_off_c, 9, 42, 0
10, 29476, Note_off_c, 9, 38, 0
10, 29476, Note_off_c, 9, 36, 0
10, 29568, Note_on_c, 9, 38, 93
10, 29568, Note_on_c, 9, 42, 86
10, 29572, Note_off_c, 9, 42, 0
10, 29572, Note_off_c, 9, 38, 0
10, 29664, Note_on_c, 9, 39, 77
10, 29664, Note_on_c, 9, 42, 52
10, 29668, Note_off_c, 9, 42, 0
10, 29668, Note_off_c, 9, 39, 0
10, 29760, Note_on_c, 9, 39, 113
10, 29760, Note_on_c, 9, 42, 86
10, 29764, Note_off_c, 9, 42, 0
10, 29764, Note_off_c, 9, 39, 0
10, 29856, Note_on_c, 9, 39, 82
10, 29856, Note_on_c, 9, 42, 47
10, 29860, Note_off_c, 9, 42, 0
10, 29860, Note_off_c, 9, 39, 0
10, 29952, Note_on_c, 9, 36, 106
10, 29952, Note_on_c, 9, 38, 97
10, 29952, Note_on_c, 9, 42, 79
10, 29956, Note_off_c, 9, 42, 0
10, 29956, Note_off_c, 9, 38, 0
10, 29956, Note_off_c, 9, 36, 0
10, 30048, Note_on_c, 9, 38, 62
10, 30052, Note_off_c, 9, 38, 0
10, 30104, Note_on_c, 9, 38, 74
10, 30104, Note_on_c, 9, 42, 50
10, 30108, Note_off_c, 9, 42, 0
10, 30108, Note_off_c, 9, 38, 0
10, 30144, Note_on_c, 9, 39, 113
10, 30144, Note_on_c, 9, 42, 84
10, 30148, Note_off_c, 9, 42, 0
10, 30148, Note_off_c, 9, 39, 0
10, 30240, Note_on_c, 9, 36, 83
10, 30240, Note_on_c, 9, 38, 58
10, 30240, Note_on_c, 9, 42, 52
10, 30244, Note_off_c, 9, 42, 0
10, 30244, Note_off_c, 9, 38, 0
10, 30244, Note_off_c, 9, 36, 0
10, 30336, Note_on_c, 9, 38, 96
10, 30336, Note_on_c, 9, 42, 84
10, 30340, Note_off_c, 9, 42, 0
10, 30340, Note_off_c, 9, 38, 0
10, 30432, Note_on_c, 9, 39, 74
10, 30432, Note_on_c, 9, 42, 52
10, 30436, Note_off_c, 9, 42, 0
10, 30436, Note_off_c, 9, 39, 0
10, 30528, Note_on_c, 9, 39, 107
10, 30528, Note_on_c, 9, 42, 79
10, 30532, Note_off_c, 9, 42, 0
10, 30532, Note_off_c, 9, 39, 0
10, 30624, Note_on_c, 9, 39, 87
10, 30624, Note_on_c, 9, 42, 52
10, 30628, Note_off_c, 9, 42, 0
10, 30628, Note_off_c, 9, 39, 0
10, 30720, Note_on_c, 9, 36, 105
10, 30720, Note_on_c, 9, 38, 96
10, 30720, Note_on_c, 9, 42, 84
10, 30724, Note_off_c, 9, 42, 0
10, 30724, Note_off_c, 9, 38, 0
10, 30724, Note_off_c, 9, 36, 0
10, 30816, Note_on_c, 9, 38, 54
10, 30820, Note_off_c, 9, 38, 0
10, 30872, Note_on_c, 9, 42, 57
10, 30876, Note_off_c, 9, 42, 0
10, 30912, Note_on_c, 9, 39, 113
10, 30912, Note_on_c, 9, 42, 86
10, 30916, Note_off_c, 9, 42, 0
10, 30916, Note_off_c, 9, 39, 0
10, 31008, Note_on_c, 9, 36, 89
10, 31008, Note_on_c, 9, 38, 60
10, 31008, Note_on_c, 9, 42, 50
10, 31012, Note_off_c, 9, 42, 0
10, 31012, Note_off_c, 9, 38, 0
10, 31012, Note_off_c, 9, 36, 0
10, 31104, Note_on_c, 9, 38, 98
10, 31104, Note_on_c, 9, 42, 83
10, 31108, Note_off_c, 9, 42, 0
10, 31108, Note_off_c, 9, 38, 0
10, 31200, Note_on_c, 9, 39, 82
10, 31200, Note_on_c, 9, 42, 49
10, 31204, Note_off_c, 9, 42, 0
10, 31204, Note_off_c, 9, 39, 0
10, 31296, Note_on_c, 9, 39, 115
10, 31296, Note_on_c, 9, 42, 78
10, 31300, Note_off_c, 9, 42, 0
10, 31300, Note_off_c, 9, 39, 0
10, 31392, Note_on_c, 9, 39, 80
10, 31392, Note_on_c, 9, 42, 54
10, 31396, Note_off_c, 9, 42, 0
10, 31396, Note_off_c, 9, 39, 0
10, 31488, Note_on_c, 9, 36, 111
10, 31488, Note_on_c, 9, 38, 92
10, 31488, Note_on_c, 9, 42, 77
10, 31492, Note_off_c, 9, 42, 0
10, 31492, Note_off_c, 9, 38, 0
10, 31492, Note_off_c, 9, 36, 0
10, 31584, Note_on_c, 9, 38, 55
10, 31588, Note_off_c, 9, 38, 0
10, 31640, Note_on_c, 9, 38, 68
10, 31640, Note_on_c, 9, 42, 50
10, 31644, Note_off_c, 9, 42, 0
10, 31644, Note_off_c, 9, 38, 0
10, 31680, Note_on_c, 9, 39, 113
10, 31680, Note_on_c, 9, 42, 72
10, 31684, Note_off_c, 9, 42, 0
10, 31684, Note_off_c, 9, 39, 0
10, 31776, Note_on_c, 9, 36, 91
10, 31776, Note_on_c, 9, 38, 53
10, 31776, Note_on_c, 9, 42, 85
10, 31780, Note_off_c, 9, 42, 0
10, 31780, Note_off_c, 9, 38, 0
10, 31780, Note_off_c, 9, 36, 0
10, 33984, Note_on_c, 9, 36, 112
10, 33984, Note_on_c, 9, 38, 99
10, 33984, Note_on_c, 9, 42, 83
10, 33988, Note_off_c, 9, 42, 0
10, 33988, Note_off_c, 9, 38, 0
10, 33988, Note_off_c, 9, 36, 0
10, 34080, Note_on_c, 9, 38, 57
10, 34084, Note_off_c, 9, 38, 0
10, 34136, Note_on_c, 9, 42, 49
10, 34140, Note_off_c, 9, 42, 0
10, 34176, Note_on_c, 9, 39, 107
10, 34176, Note_on_c, 9, 42, 81
10, 34180, Note_off_c, 9, 42, 0
10, 34180, Note_off_c, 9, 39, 0
10, 34272, Note_on_c, 9, 36, 83
10, 34272, Note_on_c, 9, 38, 53
10, 34272, Note_on_c, 9, 42, 47
10, 34276, Note_off_c, 9, 42, 0
10, 34276, Note_off_c, 9, 38, 0
10, 34276, Note_off_c, 9, 36, 0
10, 34368, Note_on_c, 9, 38, 95
10, 34368, Note_on_c, 9, 42, 78
10, 34372, Note_off_c, 9, 42, 0
10, 34372, Note_off_c, 9, 38, 0
10, 34464, Note_on_c, 9, 39, 77
10, 34464, Note_on_c, 9, 42, 53
10, 34468, Note_off_c, 9, 42, 0
10, 34468, Note_off_c, 9, 39, 0
10, 34560, Note_on_c, 9, 39, 116
10, 34560, Note_on_c, 9, 42, 77
10, 34564, Note_off_c, 9, 42, 0
10, 34564, Note_off_c, 9, 39, 0
10, 34656, Note_on_c, 9, 39, 85
10, 34656, Note_on_c, 9, 42, 49
10, 34660, Note_off_c, 9, 42, 0
10, 34660, Note_off_c, 9, 39, 0
10, 34752, Note_on_c, 9, 36, 104
10, 34752, Note_on_c, 9, 38, 97
10, 34752, Note_on_c, 9, 42, 86
10, 34756, Note_off_c, 9, 42, 0
10, 34756, Note_off_c, 9, 38, 0
10, 34756, Note_off_c, 9, 36, 0
10, 34848, Note_on_c, 9, 38, 59
10, 34852, Note_off_c, 9, 38, 0
10, 34904, Note_on_c, 9, 38, 69
10, 34908, Note_off_c, 9, 38, 0
10, 34944, Note_on_c, 9, 36, 105
10, 34944, Note_on_c, 9, 38, 86
10, 34944, Note_on_c, 9, 42, 72
10, 34948, Note_off_c, 9, 42, 0
10, 34948, Note_off_c, 9, 38, 0
10, 34948, Note_off_c, 9, 36, 0
10, 35040, Note_on_c, 9, 36, 91
10, 35040, Note_on_c, 9, 38, 55
10, 35040, Note_on_c, 9, 42, 60
10, 35044, Note_off_c, 9, 42, 0
10, 35044, Note_off_c, 9, 38, 0
10, 35044, Note_off_c, 9, 36, 0
10, 37536, Control_c, 9, 120, 0
10, 40028, End_track
11, 0, Start_track
11, 0, Sequencer_specific, 5, 5, 15, 9, 12, 64
11, 0, Sequencer_specific, 15, 5, 15, 6, 71, 101, 110, 101, 114, 97, 108, 32, 77, 73, 68, 73
11, 0, Title_t, "Voice Oohs"
11, 0, Control_c, 15, 7, 127
11, 0, Program_c, 15, 53
11, 361, Control_c, 15, 121, 0
11, 410, Pitch_bend_c, 15, 8192
11, 412, Control_c, 15, 10, 64
11, 413, Control_c, 15, 11, 127
11, 414, Control_c, 15, 91, 0
11, 415, Control_c, 15, 93, 0
11, 513, Control_c, 15, 17, 8
11, 6144, Note_on_c, 15, 61, 1
11, 6144, Note_on_c, 15, 66, 1
11, 6431, Note_off_c, 15, 66, 0
11, 6431, Note_off_c, 15, 61, 0
11, 6432, Note_on_c, 15, 61, 1
11, 6432, Note_on_c, 15, 65, 1
11, 6719, Note_off_c, 15, 65, 0
11, 6719, Note_off_c, 15, 61, 0
11, 9216, Note_on_c, 15, 61, 1
11, 9216, Note_on_c, 15, 66, 1
11, 9503, Note_off_c, 15, 66, 0
11, 9503, Note_off_c, 15, 61, 0
11, 9504, Note_on_c, 15, 61, 1
11, 9504, Note_on_c, 15, 65, 1
11, 9791, Note_off_c, 15, 65, 0
11, 9791, Note_off_c, 15, 61, 0
11, 13824, Note_on_c, 15, 61, 1
11, 13824, Note_on_c, 15, 66, 1
11, 14111, Note_off_c, 15, 66, 0
11, 14111, Note_off_c, 15, 61, 0
11, 14112, Note_on_c, 15, 61, 1
11, 14112, Note_on_c, 15, 65, 1
11, 14399, Note_off_c, 15, 65, 0
11, 14399, Note_off_c, 15, 61, 0
11, 16896, Note_on_c, 15, 61, 1
11, 16896, Note_on_c, 15, 66, 1
11, 17183, Note_off_c, 15, 66, 0
11, 17183, Note_off_c, 15, 61, 0
11, 17184, Note_on_c, 15, 61, 1
11, 17184, Note_on_c, 15, 65, 1
11, 17471, Note_off_c, 15, 65, 0
11, 17471, Note_off_c, 15, 61, 0
11, 26112, Note_on_c, 15, 62, 1
11, 26112, Note_on_c, 15, 67, 1
11, 26399, Note_off_c, 15, 67, 0
11, 26399, Note_off_c, 15, 62, 0
11, 26400, Note_on_c, 15, 62, 1
11, 26400, Note_on_c, 15, 66, 1
11, 26783, Note_off_c, 15, 66, 0
11, 26783, Note_off_c, 15, 62, 0
11, 26784, Note_on_c, 15, 57, 1
11, 26879, Note_off_c, 15, 57, 0
11, 26880, Note_on_c, 15, 62, 1
11, 26880, Note_on_c, 15, 66, 1
11, 26975, Note_off_c, 15, 66, 0
11, 26975, Note_off_c, 15, 62, 0
11, 26976, Note_on_c, 15, 64, 1
11, 26976, Note_on_c, 15, 67, 1
11, 27071, Note_off_c, 15, 67, 0
11, 27071, Note_off_c, 15, 64, 0
11, 27072, Note_on_c, 15, 62, 1
11, 27072, Note_on_c, 15, 66, 1
11, 27167, Note_off_c, 15, 66, 0
11, 27167, Note_off_c, 15, 62, 0
11, 27168, Note_on_c, 15, 61, 1
11, 27168, Note_on_c, 15, 64, 1
11, 27311, Note_off_c, 15, 64, 0
11, 27311, Note_off_c, 15, 61, 0
11, 27312, Note_on_c, 15, 59, 1
11, 27312, Note_on_c, 15, 62, 1
11, 27551, Note_off_c, 15, 62, 0
11, 27551, Note_off_c, 15, 59, 0
11, 27552, Note_on_c, 15, 57, 1
11, 27599, Note_off_c, 15, 57, 0
11, 27600, Note_on_c, 15, 59, 1
11, 27647, Note_off_c, 15, 59, 0
11, 27648, Note_on_c, 15, 59, 1
11, 27648, Note_on_c, 15, 62, 1
11, 27839, Note_off_c, 15, 62, 0
11, 27839, Note_off_c, 15, 59, 0
11, 27840, Note_on_c, 15, 55, 1
11, 27840, Note_on_c, 15, 59, 1
11, 27935, Note_off_c, 15, 59, 0
11, 27935, Note_off_c, 15, 55, 0
11, 27936, Note_on_c, 15, 61, 1
11, 27936, Note_on_c, 15, 64, 1
11, 28079, Note_off_c, 15, 64, 0
11, 28079, Note_off_c, 15, 61, 0
11, 28080, Note_on_c, 15, 62, 1
11, 28080, Note_on_c, 15, 66, 1
11, 28367, Note_off_c, 15, 66, 0
11, 28367, Note_off_c, 15, 62, 0
11, 28368, Note_on_c, 15, 57, 1
11, 28415, Note_off_c, 15, 57, 0
11, 28416, Note_on_c, 15, 62, 1
11, 28416, Note_on_c, 15, 66, 1
11, 28511, Note_off_c, 15, 66, 0
11, 28511, Note_off_c, 15, 62, 0
11, 28512, Note_on_c, 15, 64, 1
11, 28512, Note_on_c, 15, 67, 1
11, 28607, Note_off_c, 15, 67, 0
11, 28607, Note_off_c, 15, 64, 0
11, 28608, Note_on_c, 15, 62, 1
11, 28608, Note_on_c, 15, 66, 1
11, 28703, Note_off_c, 15, 66, 0
11, 28703, Note_off_c, 15, 62, 0
11, 28704, Note_on_c, 15, 61, 1
11, 28704, Note_on_c, 15, 64, 1
11, 28847, Note_off_c, 15, 64, 0
11, 28847, Note_off_c, 15, 61, 0
11, 28848, Note_on_c, 15, 59, 1
11, 28848, Note_on_c, 15, 62, 1
11, 29039, Note_off_c, 15, 62, 0
11, 29039, Note_off_c, 15, 59, 0
11, 29040, Note_on_c, 15, 57, 1
11, 29087, Note_off_c, 15, 57, 0
11, 29088, Note_on_c, 15, 59, 1
11, 29183, Note_off_c, 15, 59, 0
11, 29184, Note_on_c, 15, 62, 1
11, 29184, Note_on_c, 15, 67, 1
11, 29471, Note_off_c, 15, 67, 0
11, 29471, Note_off_c, 15, 62, 0
11, 29472, Note_on_c, 15, 62, 1
11, 29472, Note_on_c, 15, 66, 1
11, 29855, Note_off_c, 15, 66, 0
11, 29855, Note_off_c, 15, 62, 0
11, 29856, Note_on_c, 15, 59, 1
11, 29903, Note_off_c, 15, 59, 0
11, 29904, Note_on_c, 15, 62, 1
11, 29951, Note_off_c, 15, 62, 0
11, 29952, Note_on_c, 15, 62, 1
11, 29952, Note_on_c, 15, 66, 1
11, 30047, Note_off_c, 15, 66, 0
11, 30047, Note_off_c, 15, 62, 0
11, 30048, Note_on_c, 15, 66, 1
11, 30048, Note_on_c, 15, 69, 1
11, 30239, Note_off_c, 15, 69, 0
11, 30239, Note_off_c, 15, 66, 0
11, 30240, Note_on_c, 15, 62, 1
11, 30240, Note_on_c, 15, 66, 1
11, 30719, Note_off_c, 15, 66, 0
11, 30719, Note_off_c, 15, 62, 0
11, 30720, Note_on_c, 15, 59, 1
11, 30720, Note_on_c, 15, 62, 1
11, 30911, Note_off_c, 15, 62, 0
11, 30911, Note_off_c, 15, 59, 0
11, 30912, Note_on_c, 15, 55, 1
11, 30912, Note_on_c, 15, 59, 1
11, 31007, Note_off_c, 15, 59, 0
11, 31007, Note_off_c, 15, 55, 0
11, 31008, Note_on_c, 15, 61, 1
11, 31008, Note_on_c, 15, 64, 1
11, 31151, Note_off_c, 15, 64, 0
11, 31151, Note_off_c, 15, 61, 0
11, 31152, Note_on_c, 15, 62, 1
11, 31152, Note_on_c, 15, 66, 1
11, 31487, Note_off_c, 15, 66, 0
11, 31487, Note_off_c, 15, 62, 0
11, 31488, Note_on_c, 15, 67, 1
11, 31488, Note_on_c, 15, 71, 1
11, 31583, Note_off_c, 15, 71, 0
11, 31583, Note_off_c, 15, 67, 0
11, 31584, Note_on_c, 15, 66, 1
11, 31584, Note_on_c, 15, 69, 1
11, 31679, Note_off_c, 15, 69, 0
11, 31679, Note_off_c, 15, 66, 0
11, 31680, Note_on_c, 15, 62, 1
11, 31680, Note_on_c, 15, 66, 1
11, 31775, Note_off_c, 15, 66, 0
11, 31775, Note_off_c, 15, 62, 0
11, 31776, Note_on_c, 15, 61, 1
11, 31776, Note_on_c, 15, 64, 1
11, 31871, Note_off_c, 15, 64, 0
11, 31871, Note_off_c, 15, 61, 0
11, 31872, Note_on_c, 15, 59, 1
11, 31872, Note_on_c, 15, 62, 1
11, 31967, Note_off_c, 15, 62, 0
11, 31967, Note_off_c, 15, 59, 0
11, 31968, Note_on_c, 15, 55, 1
11, 31968, Note_on_c, 15, 59, 1
11, 32255, Note_off_c, 15, 59, 0
11, 32255, Note_off_c, 15, 55, 0
11, 32832, Note_on_c, 15, 62, 1
11, 32832, Note_on_c, 15, 67, 1
11, 33167, Note_off_c, 15, 67, 0
11, 33167, Note_off_c, 15, 62, 0
11, 33168, Note_on_c, 15, 62, 1
11, 33168, Note_on_c, 15, 66, 1
11, 34893, Note_off_c, 15, 66, 0
11, 34893, Note_off_c, 15, 62, 0
11, 37536, Control_c, 15, 120, 0
11, 37584, Control_c, 15, 123, 0
11, 37632, End_track
12, 0, Start_track
12, 0, Sequencer_specific, 5, 5, 15, 9, 12, 64
12, 0, Sequencer_specific, 15, 5, 15, 6, 71, 101, 110, 101, 114, 97, 108, 32, 77, 73, 68, 73
12, 0, Title_t, "Pad 2 (Warm)"
12, 0, Control_c, 10, 10, 112
12, 0, Control_c, 10, 7, 127
12, 0, Program_c, 10, 89
12, 192, Control_c, 10, 121, 0
12, 384, Pitch_bend_c, 10, 8192
12, 384, Control_c, 10, 11, 127
12, 398, Control_c, 10, 91, 94
12, 400, Control_c, 10, 93, 36
12, 596, Control_c, 10, 121, 0
12, 768, Note_on_c, 10, 61, 108
12, 1001, Note_off_c, 10, 61, 0
12, 1056, Note_on_c, 10, 65, 109
12, 1460, Note_off_c, 10, 65, 0
12, 1536, Note_on_c, 10, 61, 105
12, 1781, Note_off_c, 10, 61, 0
12, 1824, Note_on_c, 10, 58, 94
12, 2010, Note_off_c, 10, 58, 0
12, 2016, Note_on_c, 10, 56, 98
12, 2273, Note_off_c, 10, 56, 0
12, 2304, Note_on_c, 10, 61, 96
12, 2586, Note_off_c, 10, 61, 0
12, 2592, Note_on_c, 10, 65, 98
12, 3015, Note_off_c, 10, 65, 0
12, 3072, Note_on_c, 10, 61, 108
12, 3335, Note_off_c, 10, 61, 0
12, 3360, Note_on_c, 10, 61, 103
12, 3750, Note_off_c, 10, 61, 0
12, 3840, Sequencer_specific, 3, 5, 15, 10
12, 3930, End_track
13, 0, Start_track
13, 0, Sequencer_specific, 5, 5, 15, 9, 12, 64
13, 0, Sequencer_specific, 15, 5, 15, 6, 71, 101, 110, 101, 114, 97, 108, 32, 77, 73, 68, 73
13, 0, Title_t, "Soprano Sax"
13, 0, Control_c, 0, 10, 17
13, 0, Program_c, 0, 64
13, 0, Sequencer_specific, 4, 5, 15, 10, 1
13, 192, Control_c, 0, 121, 0
13, 288, Pitch_bend_c, 0, 8192
13, 288, Control_c, 0, 11, 127
13, 301, Control_c, 0, 7, 96
13, 305, Control_c, 0, 91, 90
13, 307, Control_c, 0, 93, 0
13, 768, Note_on_c, 0, 65, 119
13, 855, Note_off_c, 0, 65, 0
13, 864, Note_on_c, 0, 66, 120
13, 950, Note_off_c, 0, 66, 0
13, 960, Note_on_c, 0, 65, 118
13, 1049, Note_off_c, 0, 65, 0
13, 1056, Note_on_c, 0, 61, 121
13, 1245, Note_off_c, 0, 61, 0
13, 1248, Note_on_c, 0, 58, 111
13, 1337, Note_off_c, 0, 58, 0
13, 1344, Note_on_c, 0, 56, 111
13, 1432, Note_off_c, 0, 56, 0
13, 1440, Note_on_c, 0, 58, 115
13, 1529, Note_off_c, 0, 58, 0
13, 1536, Note_on_c, 0, 61, 112
13, 1724, Note_off_c, 0, 61, 0
13, 1728, Note_on_c, 0, 58, 115
13, 1817, Note_off_c, 0, 58, 0
13, 1824, Note_on_c, 0, 61, 121
13, 2163, Note_off_c, 0, 61, 0
13, 2304, Note_on_c, 0, 65, 114
13, 2391, Note_off_c, 0, 65, 0
13, 2400, Note_on_c, 0, 66, 117
13, 2486, Note_off_c, 0, 66, 0
13, 2496, Note_on_c, 0, 65, 115
13, 2585, Note_off_c, 0, 65, 0
13, 2592, Note_on_c, 0, 61, 119
13, 2781, Note_off_c, 0, 61, 0
13, 2784, Note_on_c, 0, 58, 108
13, 2873, Note_off_c, 0, 58, 0
13, 2880, Note_on_c, 0, 56, 110
13, 2968, Note_off_c, 0, 56, 0
13, 2976, Note_on_c, 0, 58, 113
13, 3065, Note_off_c, 0, 58, 0
13, 3072, Note_on_c, 0, 61, 116
13, 3260, Note_off_c, 0, 61, 0
13, 3264, Note_on_c, 0, 58, 116
13, 3353, Note_off_c, 0, 58, 0
13, 3360, Note_on_c, 0, 61, 117
13, 3699, Note_off_c, 0, 61, 0
13, 3840, Note_on_c, 0, 68, 113
13, 4551, Note_off_c, 0, 68, 0
13, 4608, Note_on_c, 0, 66, 106
13, 4858, Note_off_c, 0, 66, 0
13, 4896, Note_on_c, 0, 65, 112
13, 5338, Note_off_c, 0, 65, 0
13, 5376, Note_on_c, 0, 68, 108
13, 6087, Note_off_c, 0, 68, 0
13, 6144, Note_on_c, 0, 66, 113
13, 6394, Note_off_c, 0, 66, 0
13, 6432, Note_on_c, 0, 65, 112
13, 6826, Note_off_c, 0, 65, 0
13, 6912, Note_on_c, 0, 68, 107
13, 7623, Note_off_c, 0, 68, 0
13, 7680, Note_on_c, 0, 66, 109
13, 7930, Note_off_c, 0, 66, 0
13, 7968, Note_on_c, 0, 65, 105
13, 8410, Note_off_c, 0, 65, 0
13, 8448, Note_on_c, 0, 68, 110
13, 8826, Note_off_c, 0, 68, 0
13, 8832, Note_on_c, 0, 66, 105
13, 9210, Note_off_c, 0, 66, 0
13, 9216, Note_on_c, 0, 66, 113
13, 9381, Note_off_c, 0, 66, 0
13, 9408, Note_on_c, 0, 66, 109
13, 9488, Note_off_c, 0, 66, 0
13, 9504, Note_on_c, 0, 65, 115
13, 9706, Note_off_c, 0, 65, 0
13, 11520, Note_on_c, 0, 68, 116
13, 12231, Note_off_c, 0, 68, 0
13, 12288, Note_on_c, 0, 66, 115
13, 12538, Note_off_c, 0, 66, 0
13, 12576, Note_on_c, 0, 65, 112
13, 13018, Note_off_c, 0, 65, 0
13, 13056, Note_on_c, 0, 68, 110
13, 13767, Note_off_c, 0, 68, 0
13, 13824, Note_on_c, 0, 66, 116
13, 14074, Note_off_c, 0, 66, 0
13, 14112, Note_on_c, 0, 65, 109
13, 14506, Note_off_c, 0, 65, 0
13, 14592, Note_on_c, 0, 68, 110
13, 15303, Note_off_c, 0, 68, 0
13, 15360, Note_on_c, 0, 66, 108
13, 15610, Note_off_c, 0, 66, 0
13, 15648, Note_on_c, 0, 65, 116
13, 16090, Note_off_c, 0, 65, 0
13, 16128, Note_on_c, 0, 68, 112
13, 16506, Note_off_c, 0, 68, 0
13, 16512, Note_on_c, 0, 66, 109
13, 16890, Note_off_c, 0, 66, 0
13, 16896, Note_on_c, 0, 66, 111
13, 17061, Note_off_c, 0, 66, 0
13, 17088, Note_on_c, 0, 66, 108
13, 17168, Note_off_c, 0, 66, 0
13, 17184, Note_on_c, 0, 65, 111
13, 17386, Note_off_c, 0, 65, 0
13, 20736, Note_on_c, 0, 69, 111
13, 21447, Note_off_c, 0, 69, 0
13, 21504, Note_on_c, 0, 67, 118
13, 21754, Note_off_c, 0, 67, 0
13, 21792, Note_on_c, 0, 66, 110
13, 22234, Note_off_c, 0, 66, 0
13, 22272, Note_on_c, 0, 69, 112
13, 22522, Note_off_c, 0, 69, 0
13, 22560, Note_on_c, 0, 66, 117
13, 22954, Note_off_c, 0, 66, 0
13, 23040, Note_on_c, 0, 67, 114
13, 23290, Note_off_c, 0, 67, 0
13, 23328, Note_on_c, 0, 66, 112
13, 23722, Note_off_c, 0, 66, 0
13, 23808, Note_on_c, 0, 69, 110
13, 24519, Note_off_c, 0, 69, 0
13, 24576, Note_on_c, 0, 67, 118
13, 24826, Note_off_c, 0, 67, 0
13, 24864, Note_on_c, 0, 66, 109
13, 25306, Note_off_c, 0, 66, 0
13, 25344, Note_on_c, 0, 69, 112
13, 25722, Note_off_c, 0, 69, 0
13, 25728, Note_on_c, 0, 67, 109
13, 26106, Note_off_c, 0, 67, 0
13, 26112, Note_on_c, 0, 67, 118
13, 26277, Note_off_c, 0, 67, 0
13, 26304, Note_on_c, 0, 67, 113
13, 26384, Note_off_c, 0, 67, 0
13, 26400, Note_on_c, 0, 66, 112
13, 26602, Note_off_c, 0, 66, 0
13, 26880, Note_on_c, 0, 69, 120
13, 27591, Note_off_c, 0, 69, 0
13, 27648, Note_on_c, 0, 67, 111
13, 27898, Note_off_c, 0, 67, 0
13, 27936, Note_on_c, 0, 66, 115
13, 28378, Note_off_c, 0, 66, 0
13, 28416, Note_on_c, 0, 69, 112
13, 29127, Note_off_c, 0, 69, 0
13, 29184, Note_on_c, 0, 67, 113
13, 29434, Note_off_c, 0, 67, 0
13, 29472, Note_on_c, 0, 66, 116
13, 29866, Note_off_c, 0, 66, 0
13, 29952, Note_on_c, 0, 69, 120
13, 30663, Note_off_c, 0, 69, 0
13, 30720, Note_on_c, 0, 67, 120
13, 30970, Note_off_c, 0, 67, 0
13, 31008, Note_on_c, 0, 66, 118
13, 31450, Note_off_c, 0, 66, 0
13, 31488, Note_on_c, 0, 69, 115
13, 31770, Note_off_c, 0, 69, 0
13, 31776, Note_on_c, 0, 67, 117
13, 31866, Note_off_c, 0, 67, 0
13, 33984, Note_on_c, 0, 69, 115
13, 34695, Note_off_c, 0, 69, 0
13, 34752, Note_on_c, 0, 67, 119
13, 34906, Note_off_c, 0, 67, 0
13, 34944, Note_on_c, 0, 67, 112
13, 35040, Note_on_c, 0, 66, 108
13, 35063, Note_off_c, 0, 67, 0
13, 36470, Note_off_c, 0, 66, 0
13, 36864, Sequencer_specific, 3, 5, 15, 10
13, 37258, End_track
14, 0, Start_track
14, 0, Sequencer_specific, 5, 5, 15, 9, 12, 64
14, 0, Sequencer_specific, 15, 5, 15, 6, 71, 101, 110, 101, 114, 97, 108, 32, 77, 73, 68, 73
14, 0, Title_t, "Electric Guitar(Clean)"
14, 0, Control_c, 11, 10, 98
14, 0, Control_c, 11, 7, 96
14, 0, Program_c, 11, 27
14, 0, Sequencer_specific, 4, 5, 15, 10, 1
14, 9984, Pitch_bend_c, 11, 0
14, 9985, Note_on_c, 11, 70, 123
14, 9986, Note_on_c, 11, 65, 121
14, 10031, Pitch_bend_c, 11, 3584
14, 10038, Pitch_bend_c, 11, 8192
14, 10053, Pitch_bend_c, 11, 8192
14, 10093, Pitch_bend_c, 11, 7680
14, 10100, Pitch_bend_c, 11, 4992
14, 10107, Pitch_bend_c, 11, 0
14, 10263, Note_off_c, 11, 70, 0
14, 10264, Note_off_c, 11, 65, 0
14, 10266, Pitch_bend_c, 11, 8192
14, 10272, Note_on_c, 11, 58, 55
14, 10274, Note_on_c, 11, 61, 70
14, 10464, Note_on_c, 11, 56, 77
14, 10539, Note_off_c, 11, 56, 0
14, 10550, Note_off_c, 11, 58, 0
14, 10552, Note_off_c, 11, 61, 0
14, 10560, Note_on_c, 11, 53, 93
14, 10656, Note_on_c, 11, 56, 80
14, 10657, Note_off_c, 11, 53, 0
14, 10704, Note_off_c, 11, 56, 0
14, 10753, Note_on_c, 11, 61, 113
14, 10793, Pitch_bend_c, 11, 9856
14, 10800, Pitch_bend_c, 11, 11392
14, 10807, Pitch_bend_c, 11, 16256
14, 10825, Pitch_bend_c, 11, 8192
14, 10852, Note_on_c, 11, 58, 76
14, 10928, Note_off_c, 11, 58, 0
14, 10955, Note_on_c, 11, 54, 85
14, 10974, Note_off_c, 11, 54, 0
14, 11035, Note_off_c, 11, 61, 0
14, 11051, Note_on_c, 11, 49, 69
14, 11054, Note_on_c, 11, 53, 102
14, 11150, Note_on_c, 11, 58, 73
14, 11195, Note_off_c, 11, 58, 0
14, 11246, Note_on_c, 11, 58, 71
14, 11287, Note_off_c, 11, 58, 0
14, 11338, Note_on_c, 11, 58, 63
14, 11342, Note_on_c, 11, 61, 81
14, 11515, Note_off_c, 11, 58, 0
14, 11517, Note_off_c, 11, 61, 0
14, 11517, Note_off_c, 11, 53, 0
14, 11517, Note_off_c, 11, 49, 0
14, 11520, Sequencer_specific, 3, 5, 15, 10
14, 17666, Note_on_c, 11, 65, 114
14, 17754, Note_off_c, 11, 65, 0
14, 17760, Pitch_bend_c, 11, 2560
14, 17761, Note_on_c, 11, 66, 114
14, 17774, Pitch_bend_c, 11, 3584
14, 17781, Pitch_bend_c, 11, 5632
14, 17789, Pitch_bend_c, 11, 8192
14, 17859, Note_on_c, 11, 65, 119
14, 17864, Note_off_c, 11, 66, 0
14, 17946, Pitch_bend_c, 11, 8192
14, 17948, Note_off_c, 11, 65, 0
14, 17955, Note_on_c, 11, 58, 89
14, 17960, Note_on_c, 11, 61, 105
14, 18141, Note_off_c, 11, 58, 0
14, 18144, Note_on_c, 11, 58, 72
14, 18158, Note_off_c, 11, 61, 0
14, 18219, Note_off_c, 11, 58, 0
14, 18240, Note_on_c, 11, 56, 102
14, 18336, Note_off_c, 11, 56, 0
14, 18336, Note_on_c, 11, 58, 80
14, 18385, Note_off_c, 11, 58, 0
14, 18432, Note_on_c, 11, 58, 86
14, 18433, Note_on_c, 11, 61, 119
14, 18503, Note_off_c, 11, 61, 0
14, 18529, Note_on_c, 11, 61, 81
14, 18624, Note_off_c, 11, 61, 0
14, 18632, Note_off_c, 11, 58, 0
14, 18635, Note_on_c, 11, 56, 81
14, 18661, Note_on_c, 11, 58, 80
14, 18702, Note_off_c, 11, 56, 0
14, 18728, Note_off_c, 11, 58, 0
14, 18731, Note_on_c, 11, 53, 56
14, 18734, Note_on_c, 11, 56, 105
14, 18825, Note_off_c, 11, 53, 0
14, 18826, Note_on_c, 11, 51, 83
14, 18827, Note_off_c, 11, 56, 0
14, 18836, Note_on_c, 11, 56, 64
14, 18919, Note_off_c, 11, 51, 0
14, 18922, Note_on_c, 11, 49, 67
14, 18929, Note_off_c, 11, 56, 0
14, 18932, Note_on_c, 11, 56, 64
14, 19103, Note_on_c, 11, 53, 78
14, 19107, Note_off_c, 11, 49, 0
14, 19117, Note_off_c, 11, 56, 0
14, 19181, Note_off_c, 11, 53, 0
14, 19202, Note_on_c, 11, 62, 80
14, 19202, Note_on_c, 11, 66, 114
14, 19290, Note_off_c, 11, 66, 0
14, 19296, Pitch_bend_c, 11, 2560
14, 19297, Note_on_c, 11, 67, 113
14, 19310, Pitch_bend_c, 11, 3584
14, 19317, Pitch_bend_c, 11, 5632
14, 19325, Pitch_bend_c, 11, 8192
14, 19395, Note_on_c, 11, 66, 112
14, 19400, Note_off_c, 11, 67, 0
14, 19482, Pitch_bend_c, 11, 8192
14, 19484, Note_off_c, 11, 66, 0
14, 19491, Note_on_c, 11, 59, 81
14, 19494, Note_off_c, 11, 62, 0
14, 19496, Note_on_c, 11, 62, 106
14, 19677, Note_off_c, 11, 59, 0
14, 19680, Note_on_c, 11, 59, 79
14, 19694, Note_off_c, 11, 62, 0
14, 19755, Note_off_c, 11, 59, 0
14, 19776, Note_on_c, 11, 57, 95
14, 19872, Note_off_c, 11, 57, 0
14, 19872, Note_on_c, 11, 59, 78
14, 19932, Note_off_c, 11, 59, 0
14, 19968, Note_on_c, 11, 55, 84
14, 19968, Note_on_c, 11, 59, 92
14, 19969, Note_on_c, 11, 62, 114
14, 20039, Note_off_c, 11, 62, 0
14, 20061, Note_off_c, 11, 59, 0
14, 20064, Note_on_c, 11, 59, 87
14, 20065, Note_on_c, 11, 62, 81
14, 20159, Note_off_c, 11, 59, 0
14, 20160, Note_off_c, 11, 62, 0
14, 20253, Note_off_c, 11, 55, 0
14, 20267, Note_on_c, 11, 54, 65
14, 20270, Note_on_c, 11, 57, 81
14, 20270, Note_on_c, 11, 62, 105
14, 20445, Note_off_c, 11, 54, 0
14, 20448, Note_on_c, 11, 54, 64
14, 20543, Note_off_c, 11, 57, 0
14, 20543, Note_off_c, 11, 54, 0
14, 20544, Note_on_c, 11, 57, 57
14, 20637, Note_off_c, 11, 62, 0
14, 20637, Note_off_c, 11, 57, 0
14, 20640, Note_on_c, 11, 62, 65
14, 20714, Note_off_c, 11, 62, 0
14, 20736, Sequencer_specific, 3, 5, 15, 10
14, 20758, End_track
0, 0, End_of_file
