0, 0, Header, 1, 14, 480
1, 0, Start_track
1, 0, Title_t, "People"
1, 0, SMPTE_offset, 0, 0, 0, 0, 0
1, 0, Tempo, 571428
1, 0, Time_signature, 4, 2, 24, 8
1, 0, Key_signature, -2, "minor"
1, 0, End_track
2, 0, Start_track
2, 0, Title_t, "Soft karaoke"
2, 0, Text_t, "@KMIDI KARAOKE FILE"
2, 0, End_track
3, 0, Start_track
3, 0, Title_t, "Words"
3, 0, Text_t, "@LENGL"
3, 0, Text_t, "@TPeople"
3, 0, Text_t, "@TBarbra Streisand"
3, 0, Text_t, "@Tseq by Gary Rogers - kar by Mike M"
3, 11520, Text_t, "\\Peo"
3, 12000, Text_t, "ple,"
3, 14400, Text_t, "/Peo"
3, 14640, Text_t, "ple"
3, 14880, Text_t, " who"
3, 15120, Text_t, " need"
3, 15360, Text_t, " peo"
3, 15840, Text_t, "ple,"
3, 18240, Text_t, "/Are"
3, 18720, Text_t, " the"
3, 19200, Text_t, " luck"
3, 19520, Text_t, "i"
3, 19840, Text_t, "est"
3, 20160, Text_t, " peo"
3, 20640, Text_t, "ple"
3, 22080, Text_t, " in"
3, 22800, Text_t, " the"
3, 23040, Text_t, " world"
3, 26400, Text_t, "/We're"
3, 26880, Text_t, " chil"
3, 27360, Text_t, "dren,"
3, 29760, Text_t, " need"
3, 30000, Text_t, "ing"
3, 30240, Text_t, " oth"
3, 30480, Text_t, "er"
3, 30720, Text_t, " chil"
3, 31200, Text_t, "dren"
3, 33596, Text_t, "/And"
3, 33600, Text_t, " yet"
3, 34560, Text_t, " let"
3, 35040, Text_t, "ting"
3, 35280, Text_t, " a"
3, 35520, Text_t, " grown"
3, 36000, Text_t, "up"
3, 36480, Text_t, " pride"
3, 38400, Text_t, "/Hide"
3, 38880, Text_t, " all"
3, 39120, Text_t, " the"
3, 39360, Text_t, " need"
3, 39840, Text_t, " in"
3, 40320, Text_t, "side"
3, 41280, Text_t, "/Act"
3, 41760, Text_t, "ing"
3, 42240, Text_t, " more"
3, 43680, Text_t, " like"
3, 44160, Text_t, " chil"
3, 44640, Text_t, "dren"
3, 45600, Text_t, " than"
3, 46080, Text_t, " chil"
3, 46560, Text_t, "dren"
3, 49920, Text_t, "\\Lov"
3, 50400, Text_t, "ers"
3, 52560, Text_t, " are"
3, 52800, Text_t, " ve"
3, 53040, Text_t, "ry"
3, 53280, Text_t, " spe"
3, 53520, Text_t, "cial"
3, 53760, Text_t, " peo"
3, 54240, Text_t, "ple"
3, 56640, Text_t, "/They're"
3, 57120, Text_t, " the"
3, 57600, Text_t, " luck"
3, 57920, Text_t, "i"
3, 58240, Text_t, "est"
3, 58560, Text_t, " peo"
3, 59040, Text_t, "ple"
3, 60480, Text_t, " in"
3, 61200, Text_t, " the"
3, 61440, Text_t, " world"
3, 64320, Text_t, "/With"
3, 64800, Text_t, " one"
3, 65280, Text_t, " per"
3, 65760, Text_t, "son"
3, 67680, Text_t, " one"
3, 68160, Text_t, " ve"
3, 68400, Text_t, "ry"
3, 68640, Text_t, " spe"
3, 68880, Text_t, "cial"
3, 69120, Text_t, " per"
3, 69600, Text_t, "son"
3, 71520, Text_t, "/A"
3, 72000, Text_t, " feel"
3, 72480, Text_t, "ing"
3, 72960, Text_t, " deep"
3, 73440, Text_t, " in"
3, 73680, Text_t, " your"
3, 73920, Text_t, " soul"
3, 75360, Text_t, "/Says"
3, 75840, Text_t, " you"
3, 76320, Text_t, " were"
3, 76800, Text_t, " half"
3, 77280, Text_t, " now"
3, 77520, Text_t, " you're"
3, 77760, Text_t, " whole"
3, 79680, Text_t, "/No"
3, 80160, Text_t, " more"
3, 80640, Text_t, " hun"
3, 80960, Text_t, "ger"
3, 81280, Text_t, " and"
3, 81600, Text_t, " thirst"
3, 82320, Text_t, "/But"
3, 82560, Text_t, " first"
3, 83040, Text_t, " be"
3, 83280, Text_t, " a"
3, 83520, Text_t, " per"
3, 83760, Text_t, "son"
3, 84000, Text_t, " who"
3, 84240, Text_t, " needs"
3, 84480, Text_t, " peo"
3, 84960, Text_t, "ple"
3, 87360, Text_t, "/Peo"
3, 87600, Text_t, "ple"
3, 87840, Text_t, " who"
3, 88080, Text_t, " need"
3, 88320, Text_t, " peo"
3, 88800, Text_t, "ple"
3, 91200, Text_t, "/Are"
3, 91680, Text_t, " the"
3, 92160, Text_t, " luck"
3, 92480, Text_t, "i"
3, 92800, Text_t, "est"
3, 93120, Text_t, " peo"
3, 93600, Text_t, "ple"
3, 94080, Text_t, " in"
3, 95040, Text_t, " the"
3, 96000, Text_t, " world"
3, 99840, Text_t, "\\Peo"
3, 100320, Text_t, "ple,"
3, 102720, Text_t, "/Peo"
3, 102960, Text_t, "ple"
3, 103200, Text_t, " who"
3, 103440, Text_t, " need"
3, 103680, Text_t, " peo"
3, 104160, Text_t, "ple,"
3, 106560, Text_t, "/Are"
3, 107040, Text_t, " the"
3, 107520, Text_t, " luck"
3, 107840, Text_t, "i"
3, 108160, Text_t, "est"
3, 108480, Text_t, " peo"
3, 108960, Text_t, "ple"
3, 110400, Text_t, " in"
3, 111120, Text_t, " the"
3, 111360, Text_t, " world"
3, 114720, Text_t, "/We're"
3, 115200, Text_t, " chil"
3, 115680, Text_t, "dren,"
3, 118080, Text_t, " need"
3, 118320, Text_t, "ing"
3, 118560, Text_t, " oth"
3, 118800, Text_t, "er"
3, 119040, Text_t, " chil"
3, 119520, Text_t, "dren"
3, 121916, Text_t, "/And"
3, 121920, Text_t, " yet"
3, 122880, Text_t, " let"
3, 123360, Text_t, "ting"
3, 123600, Text_t, " a"
3, 123840, Text_t, " grown"
3, 124320, Text_t, "up"
3, 124800, Text_t, " pride"
3, 126720, Text_t, "/Hide"
3, 127200, Text_t, " all"
3, 127440, Text_t, " the"
3, 127680, Text_t, " need"
3, 128160, Text_t, " in"
3, 128640, Text_t, "side"
3, 129600, Text_t, "/Act"
3, 130080, Text_t, "ing"
3, 130560, Text_t, " more"
3, 132000, Text_t, " like"
3, 132480, Text_t, " chil"
3, 132960, Text_t, "dren"
3, 133920, Text_t, " than"
3, 134400, Text_t, " chil"
3, 134880, Text_t, "dren"
3, 138240, Text_t, "\\Lov"
3, 138720, Text_t, "ers"
3, 140880, Text_t, " are"
3, 141120, Text_t, " ve"
3, 141360, Text_t, "ry"
3, 141600, Text_t, " spe"
3, 141840, Text_t, "cial"
3, 142080, Text_t, " peo"
3, 142560, Text_t, "ple"
3, 144960, Text_t, "/They're"
3, 145440, Text_t, " the"
3, 145920, Text_t, " luck"
3, 146240, Text_t, "i"
3, 146560, Text_t, "est"
3, 146880, Text_t, " peo"
3, 147360, Text_t, "ple"
3, 148800, Text_t, " in"
3, 149520, Text_t, " the"
3, 149760, Text_t, " world"
3, 152640, Text_t, "/With"
3, 153120, Text_t, " one"
3, 153600, Text_t, " per"
3, 154080, Text_t, "son"
3, 156000, Text_t, " one"
3, 156480, Text_t, " ve"
3, 156720, Text_t, "ry"
3, 156960, Text_t, " spe"
3, 157200, Text_t, "cial"
3, 157440, Text_t, " per"
3, 157920, Text_t, "son"
3, 159840, Text_t, "/A"
3, 160320, Text_t, " feel"
3, 160800, Text_t, "ing"
3, 161280, Text_t, " deep"
3, 161760, Text_t, " in"
3, 162000, Text_t, " your"
3, 162240, Text_t, " soul"
3, 163680, Text_t, "/Says"
3, 164160, Text_t, " you"
3, 164640, Text_t, " were"
3, 165120, Text_t, " half"
3, 165600, Text_t, " now"
3, 165840, Text_t, " you're"
3, 166080, Text_t, " whole"
3, 168000, Text_t, "/No"
3, 168480, Text_t, " more"
3, 168960, Text_t, " hun"
3, 169280, Text_t, "ger"
3, 169600, Text_t, " and"
3, 169920, Text_t, " thirst"
3, 170640, Text_t, "/But"
3, 170880, Text_t, " first"
3, 171360, Text_t, " be"
3, 171600, Text_t, " a"
3, 171840, Text_t, " per"
3, 172080, Text_t, "son"
3, 172320, Text_t, " who"
3, 172560, Text_t, " needs"
3, 172800, Text_t, " peo"
3, 173280, Text_t, "ple"
3, 175680, Text_t, "/Peo"
3, 175920, Text_t, "ple"
3, 176160, Text_t, " who"
3, 176400, Text_t, " need"
3, 176640, Text_t, " peo"
3, 177120, Text_t, "ple"
3, 179520, Text_t, "/Are"
3, 180000, Text_t, " the"
3, 180480, Text_t, " luck"
3, 180800, Text_t, "i"
3, 181120, Text_t, "est"
3, 181440, Text_t, " peo"
3, 181920, Text_t, "ple"
3, 182400, Text_t, " in"
3, 183360, Text_t, " the"
3, 184320, Text_t, " world"
3, 184320, End_track
4, 0, Start_track
4, 0, Title_t, "Melody  (BB)"
4, 0, MIDI_port, 0
4, 0, Channel_prefix, 0
4, 0, Control_c, 0, 7, 127
4, 0, Control_c, 0, 10, 88
4, 0, Control_c, 0, 91, 99
4, 0, Control_c, 0, 93, 64
4, 0, Program_c, 0, 57
4, 0, Control_c, 0, 123, 0
4, 11520, Note_on_c, 0, 60, 121
4, 11904, Note_off_c, 0, 60, 64
4, 12000, Note_on_c, 0, 62, 111
4, 13920, Note_off_c, 0, 62, 64
4, 14400, Note_on_c, 0, 60, 110
4, 14592, Note_off_c, 0, 60, 64
4, 14640, Note_on_c, 0, 62, 99
4, 14832, Note_off_c, 0, 62, 64
4, 14880, Note_on_c, 0, 63, 112
4, 15072, Note_off_c, 0, 63, 64
4, 15120, Note_on_c, 0, 65, 110
4, 15312, Note_off_c, 0, 65, 64
4, 15360, Note_on_c, 0, 60, 110
4, 15744, Note_off_c, 0, 60, 64
4, 15840, Note_on_c, 0, 62, 114
4, 17740, Note_off_c, 0, 62, 64
4, 18240, Note_on_c, 0, 70, 110
4, 18624, Note_off_c, 0, 70, 64
4, 18720, Note_on_c, 0, 72, 109
4, 19104, Note_off_c, 0, 72, 64
4, 19200, Note_on_c, 0, 75, 105
4, 19456, Note_off_c, 0, 75, 64
4, 19520, Note_on_c, 0, 74, 122
4, 19776, Note_off_c, 0, 74, 64
4, 19840, Note_on_c, 0, 72, 117
4, 20096, Note_off_c, 0, 72, 64
4, 20160, Note_on_c, 0, 75, 109
4, 20544, Note_off_c, 0, 75, 64
4, 20640, Note_on_c, 0, 74, 110
4, 21792, Note_off_c, 0, 74, 64
4, 22080, Note_on_c, 0, 72, 110
4, 22720, Note_off_c, 0, 72, 64
4, 22800, Note_on_c, 0, 70, 110
4, 22992, Note_off_c, 0, 70, 64
4, 23040, Note_on_c, 0, 62, 115
4, 25728, Note_off_c, 0, 62, 64
4, 26400, Note_on_c, 0, 62, 108
4, 26784, Note_off_c, 0, 62, 64
4, 26880, Note_on_c, 0, 64, 120
4, 27264, Note_off_c, 0, 64, 64
4, 27360, Note_on_c, 0, 66, 116
4, 29280, Note_off_c, 0, 66, 64
4, 29760, Note_on_c, 0, 64, 110
4, 29952, Note_off_c, 0, 64, 64
4, 30000, Note_on_c, 0, 66, 110
4, 30192, Note_off_c, 0, 66, 64
4, 30240, Note_on_c, 0, 67, 113
4, 30432, Note_off_c, 0, 67, 64
4, 30480, Note_on_c, 0, 69, 111
4, 30672, Note_off_c, 0, 69, 64
4, 30720, Note_on_c, 0, 64, 106
4, 31104, Note_off_c, 0, 64, 64
4, 31200, Note_on_c, 0, 66, 112
4, 33100, Note_off_c, 0, 66, 64
4, 33600, Note_on_c, 0, 67, 110
4, 33984, Note_off_c, 0, 67, 64
4, 34560, Note_on_c, 0, 70, 102
4, 34944, Note_off_c, 0, 70, 64
4, 35040, Note_on_c, 0, 72, 118
4, 35232, Note_off_c, 0, 72, 64
4, 35280, Note_on_c, 0, 70, 113
4, 35472, Note_off_c, 0, 70, 64
4, 35520, Note_on_c, 0, 69, 114
4, 35904, Note_off_c, 0, 69, 64
4, 36000, Note_on_c, 0, 67, 103
4, 36384, Note_off_c, 0, 67, 64
4, 36480, Note_on_c, 0, 69, 108
4, 38016, Note_off_c, 0, 69, 64
4, 38400, Note_on_c, 0, 67, 96
4, 38784, Note_off_c, 0, 67, 64
4, 38880, Note_on_c, 0, 69, 114
4, 39072, Note_off_c, 0, 69, 64
4, 39120, Note_on_c, 0, 67, 102
4, 39312, Note_off_c, 0, 67, 64
4, 39360, Note_on_c, 0, 65, 113
4, 39744, Note_off_c, 0, 65, 64
4, 39840, Note_on_c, 0, 64, 106
4, 40224, Note_off_c, 0, 64, 64
4, 40320, Note_on_c, 0, 65, 120
4, 41088, Note_off_c, 0, 65, 64
4, 41280, Note_on_c, 0, 62, 109
4, 41664, Note_off_c, 0, 62, 64
4, 41760, Note_on_c, 0, 64, 120
4, 42144, Note_off_c, 0, 64, 64
4, 42240, Note_on_c, 0, 65, 102
4, 43392, Note_off_c, 0, 65, 64
4, 43680, Note_on_c, 0, 67, 122
4, 44064, Note_off_c, 0, 67, 64
4, 44160, Note_on_c, 0, 65, 114
4, 44544, Note_off_c, 0, 65, 64
4, 44640, Note_on_c, 0, 64, 96
4, 45408, Note_off_c, 0, 64, 64
4, 45600, Note_on_c, 0, 64, 108
4, 45984, Note_off_c, 0, 64, 64
4, 46080, Note_on_c, 0, 64, 109
4, 46464, Note_off_c, 0, 64, 64
4, 46560, Note_on_c, 0, 65, 103
4, 49248, Note_off_c, 0, 65, 64
4, 49920, Note_on_c, 0, 60, 114
4, 50304, Note_off_c, 0, 60, 64
4, 50400, Note_on_c, 0, 62, 112
4, 52192, Note_off_c, 0, 62, 64
4, 52560, Note_on_c, 0, 62, 125
4, 52752, Note_off_c, 0, 62, 64
4, 52800, Note_on_c, 0, 60, 110
4, 52992, Note_off_c, 0, 60, 64
4, 53040, Note_on_c, 0, 62, 107
4, 53232, Note_off_c, 0, 62, 64
4, 53280, Note_on_c, 0, 63, 106
4, 53472, Note_off_c, 0, 63, 64
4, 53520, Note_on_c, 0, 65, 121
4, 53712, Note_off_c, 0, 65, 64
4, 53760, Note_on_c, 0, 60, 105
4, 54144, Note_off_c, 0, 60, 64
4, 54240, Note_on_c, 0, 62, 117
4, 56140, Note_off_c, 0, 62, 64
4, 56640, Note_on_c, 0, 70, 112
4, 57024, Note_off_c, 0, 70, 64
4, 57120, Note_on_c, 0, 72, 110
4, 57504, Note_off_c, 0, 72, 64
4, 57600, Note_on_c, 0, 75, 110
4, 57856, Note_off_c, 0, 75, 64
4, 57920, Note_on_c, 0, 74, 103
4, 58176, Note_off_c, 0, 74, 64
4, 58240, Note_on_c, 0, 72, 112
4, 58496, Note_off_c, 0, 72, 64
4, 58560, Note_on_c, 0, 75, 109
4, 58944, Note_off_c, 0, 75, 64
4, 59040, Note_on_c, 0, 74, 103
4, 60192, Note_off_c, 0, 74, 64
4, 60480, Note_on_c, 0, 72, 106
4, 61120, Note_off_c, 0, 72, 64
4, 61200, Note_on_c, 0, 70, 111
4, 61392, Note_off_c, 0, 70, 64
4, 61440, Note_on_c, 0, 72, 114
4, 63744, Note_off_c, 0, 72, 64
4, 64320, Note_on_c, 0, 67, 121
4, 64704, Note_off_c, 0, 67, 64
4, 64800, Note_on_c, 0, 66, 117
4, 65184, Note_off_c, 0, 66, 64
4, 65280, Note_on_c, 0, 65, 125
4, 65664, Note_off_c, 0, 65, 64
4, 65760, Note_on_c, 0, 67, 110
4, 67296, Note_off_c, 0, 67, 64
4, 67680, Note_on_c, 0, 67, 114
4, 68064, Note_off_c, 0, 67, 64
4, 68160, Note_on_c, 0, 58, 111
4, 68352, Note_off_c, 0, 58, 64
4, 68400, Note_on_c, 0, 60, 124
4, 68592, Note_off_c, 0, 60, 64
4, 68640, Note_on_c, 0, 62, 109
4, 68832, Note_off_c, 0, 62, 64
4, 68880, Note_on_c, 0, 63, 105
4, 69072, Note_off_c, 0, 63, 64
4, 69120, Note_on_c, 0, 65, 111
4, 69504, Note_off_c, 0, 65, 64
4, 69600, Note_on_c, 0, 67, 119
4, 71136, Note_off_c, 0, 67, 64
4, 71520, Note_on_c, 0, 65, 111
4, 71904, Note_off_c, 0, 65, 64
4, 72000, Note_on_c, 0, 67, 110
4, 72384, Note_off_c, 0, 67, 64
4, 72480, Note_on_c, 0, 65, 110
4, 72864, Note_off_c, 0, 65, 64
4, 72960, Note_on_c, 0, 58, 116
4, 73344, Note_off_c, 0, 58, 64
4, 73440, Note_on_c, 0, 58, 121
4, 73632, Note_off_c, 0, 58, 64
4, 73680, Note_on_c, 0, 58, 110
4, 73872, Note_off_c, 0, 58, 64
4, 73920, Note_on_c, 0, 58, 112
4, 75072, Note_off_c, 0, 58, 64
4, 75360, Note_on_c, 0, 65, 121
4, 75744, Note_off_c, 0, 65, 64
4, 75840, Note_on_c, 0, 67, 98
4, 76224, Note_off_c, 0, 67, 64
4, 76320, Note_on_c, 0, 65, 124
4, 76704, Note_off_c, 0, 65, 64
4, 76800, Note_on_c, 0, 58, 117
4, 77184, Note_off_c, 0, 58, 64
4, 77280, Note_on_c, 0, 58, 110
4, 77472, Note_off_c, 0, 58, 64
4, 77520, Note_on_c, 0, 58, 100
4, 77712, Note_off_c, 0, 58, 64
4, 77760, Note_on_c, 0, 58, 109
4, 79180, Note_off_c, 0, 58, 64
4, 79680, Note_on_c, 0, 69, 117
4, 80064, Note_off_c, 0, 69, 64
4, 80160, Note_on_c, 0, 67, 108
4, 80544, Note_off_c, 0, 67, 64
4, 80640, Note_on_c, 0, 58, 118
4, 80896, Note_off_c, 0, 58, 64
4, 80960, Note_on_c, 0, 58, 111
4, 81216, Note_off_c, 0, 58, 64
4, 81280, Note_on_c, 0, 58, 112
4, 81536, Note_off_c, 0, 58, 64
4, 81600, Note_on_c, 0, 58, 109
4, 82060, Note_off_c, 0, 58, 64
4, 82320, Note_on_c, 0, 58, 124
4, 82512, Note_off_c, 0, 58, 64
4, 82560, Note_on_c, 0, 60, 110
4, 82752, Note_off_c, 0, 60, 64
4, 83040, Note_on_c, 0, 62, 110
4, 83232, Note_off_c, 0, 62, 64
4, 83280, Note_on_c, 0, 63, 118
4, 83472, Note_off_c, 0, 63, 64
4, 83520, Note_on_c, 0, 65, 103
4, 83712, Note_off_c, 0, 65, 64
4, 83760, Note_on_c, 0, 67, 110
4, 83952, Note_off_c, 0, 67, 64
4, 84000, Note_on_c, 0, 69, 121
4, 84192, Note_off_c, 0, 69, 64
4, 84240, Note_on_c, 0, 70, 125
4, 84432, Note_off_c, 0, 70, 64
4, 84480, Note_on_c, 0, 72, 120
4, 84864, Note_off_c, 0, 72, 64
4, 84960, Note_on_c, 0, 74, 106
4, 86880, Note_off_c, 0, 74, 64
4, 87360, Note_on_c, 0, 72, 118
4, 87552, Note_off_c, 0, 72, 64
4, 87600, Note_on_c, 0, 74, 118
4, 87792, Note_off_c, 0, 74, 64
4, 87840, Note_on_c, 0, 72, 111
4, 88032, Note_off_c, 0, 72, 64
4, 88080, Note_on_c, 0, 70, 109
4, 88272, Note_off_c, 0, 70, 64
4, 88320, Note_on_c, 0, 72, 105
4, 88704, Note_off_c, 0, 72, 64
4, 88800, Note_on_c, 0, 74, 115
4, 90700, Note_off_c, 0, 74, 64
4, 91200, Note_on_c, 0, 70, 117
4, 91584, Note_off_c, 0, 70, 64
4, 91680, Note_on_c, 0, 72, 108
4, 92064, Note_off_c, 0, 72, 64
4, 92160, Note_on_c, 0, 75, 99
4, 92416, Note_off_c, 0, 75, 64
4, 92480, Note_on_c, 0, 74, 109
4, 92736, Note_off_c, 0, 74, 64
4, 92800, Note_on_c, 0, 72, 118
4, 93056, Note_off_c, 0, 72, 64
4, 93120, Note_on_c, 0, 75, 108
4, 93504, Note_off_c, 0, 75, 64
4, 93600, Note_on_c, 0, 74, 97
4, 93984, Note_off_c, 0, 74, 64
4, 94080, Note_on_c, 0, 70, 115
4, 94848, Note_off_c, 0, 70, 64
4, 95040, Note_on_c, 0, 70, 110
4, 95808, Note_off_c, 0, 70, 64
4, 96000, Note_on_c, 0, 70, 104
4, 98860, Note_off_c, 0, 70, 64
4, 99840, Note_on_c, 0, 60, 110
4, 100224, Note_off_c, 0, 60, 64
4, 100320, Note_on_c, 0, 62, 109
4, 102240, Note_off_c, 0, 62, 64
4, 102720, Note_on_c, 0, 60, 100
4, 102912, Note_off_c, 0, 60, 64
4, 102960, Note_on_c, 0, 62, 109
4, 103152, Note_off_c, 0, 62, 64
4, 103200, Note_on_c, 0, 63, 113
4, 103392, Note_off_c, 0, 63, 64
4, 103440, Note_on_c, 0, 65, 109
4, 103632, Note_off_c, 0, 65, 64
4, 103680, Note_on_c, 0, 60, 114
4, 104064, Note_off_c, 0, 60, 64
4, 104160, Note_on_c, 0, 62, 112
4, 106060, Note_off_c, 0, 62, 64
4, 106560, Note_on_c, 0, 70, 110
4, 106944, Note_off_c, 0, 70, 64
4, 107040, Note_on_c, 0, 72, 106
4, 107424, Note_off_c, 0, 72, 64
4, 107520, Note_on_c, 0, 75, 115
4, 107776, Note_off_c, 0, 75, 64
4, 107840, Note_on_c, 0, 74, 111
4, 108096, Note_off_c, 0, 74, 64
4, 108160, Note_on_c, 0, 72, 120
4, 108416, Note_off_c, 0, 72, 64
4, 108480, Note_on_c, 0, 75, 105
4, 108864, Note_off_c, 0, 75, 64
4, 108960, Note_on_c, 0, 74, 110
4, 110112, Note_off_c, 0, 74, 64
4, 110400, Note_on_c, 0, 72, 107
4, 111040, Note_off_c, 0, 72, 64
4, 111120, Note_on_c, 0, 70, 109
4, 111312, Note_off_c, 0, 70, 64
4, 111360, Note_on_c, 0, 62, 100
4, 114048, Note_off_c, 0, 62, 64
4, 114720, Note_on_c, 0, 62, 116
4, 115104, Note_off_c, 0, 62, 64
4, 115200, Note_on_c, 0, 64, 110
4, 115584, Note_off_c, 0, 64, 64
4, 115680, Note_on_c, 0, 66, 115
4, 117600, Note_off_c, 0, 66, 64
4, 118080, Note_on_c, 0, 64, 110
4, 118272, Note_off_c, 0, 64, 64
4, 118320, Note_on_c, 0, 66, 105
4, 118512, Note_off_c, 0, 66, 64
4, 118560, Note_on_c, 0, 67, 110
4, 118752, Note_off_c, 0, 67, 64
4, 118800, Note_on_c, 0, 69, 115
4, 118992, Note_off_c, 0, 69, 64
4, 119040, Note_on_c, 0, 64, 112
4, 119424, Note_off_c, 0, 64, 64
4, 119520, Note_on_c, 0, 66, 97
4, 121420, Note_off_c, 0, 66, 64
4, 121920, Note_on_c, 0, 67, 111
4, 122304, Note_off_c, 0, 67, 64
4, 122880, Note_on_c, 0, 70, 115
4, 123264, Note_off_c, 0, 70, 64
4, 123360, Note_on_c, 0, 72, 123
4, 123552, Note_off_c, 0, 72, 64
4, 123600, Note_on_c, 0, 70, 107
4, 123792, Note_off_c, 0, 70, 64
4, 123840, Note_on_c, 0, 69, 110
4, 124224, Note_off_c, 0, 69, 64
4, 124320, Note_on_c, 0, 67, 105
4, 124704, Note_off_c, 0, 67, 64
4, 124800, Note_on_c, 0, 69, 118
4, 126336, Note_off_c, 0, 69, 64
4, 126720, Note_on_c, 0, 67, 116
4, 127104, Note_off_c, 0, 67, 64
4, 127200, Note_on_c, 0, 69, 104
4, 127392, Note_off_c, 0, 69, 64
4, 127440, Note_on_c, 0, 67, 96
4, 127632, Note_off_c, 0, 67, 64
4, 127680, Note_on_c, 0, 65, 107
4, 128064, Note_off_c, 0, 65, 64
4, 128160, Note_on_c, 0, 64, 114
4, 128544, Note_off_c, 0, 64, 64
4, 128640, Note_on_c, 0, 65, 104
4, 129408, Note_off_c, 0, 65, 64
4, 129600, Note_on_c, 0, 62, 119
4, 129984, Note_off_c, 0, 62, 64
4, 130080, Note_on_c, 0, 64, 116
4, 130464, Note_off_c, 0, 64, 64
4, 130560, Note_on_c, 0, 65, 122
4, 131712, Note_off_c, 0, 65, 64
4, 132000, Note_on_c, 0, 67, 118
4, 132384, Note_off_c, 0, 67, 64
4, 132480, Note_on_c, 0, 65, 107
4, 132864, Note_off_c, 0, 65, 64
4, 132960, Note_on_c, 0, 64, 110
4, 133728, Note_off_c, 0, 64, 64
4, 133920, Note_on_c, 0, 64, 114
4, 134304, Note_off_c, 0, 64, 64
4, 134400, Note_on_c, 0, 64, 109
4, 134784, Note_off_c, 0, 64, 64
4, 134880, Note_on_c, 0, 65, 103
4, 137568, Note_off_c, 0, 65, 64
4, 138240, Note_on_c, 0, 60, 113
4, 138624, Note_off_c, 0, 60, 64
4, 138720, Note_on_c, 0, 62, 108
4, 140512, Note_off_c, 0, 62, 64
4, 140880, Note_on_c, 0, 62, 114
4, 141072, Note_off_c, 0, 62, 64
4, 141120, Note_on_c, 0, 60, 113
4, 141312, Note_off_c, 0, 60, 64
4, 141360, Note_on_c, 0, 62, 111
4, 141552, Note_off_c, 0, 62, 64
4, 141600, Note_on_c, 0, 63, 124
4, 141792, Note_off_c, 0, 63, 64
4, 141840, Note_on_c, 0, 65, 109
4, 142032, Note_off_c, 0, 65, 64
4, 142080, Note_on_c, 0, 60, 110
4, 142464, Note_off_c, 0, 60, 64
4, 142560, Note_on_c, 0, 62, 101
4, 144460, Note_off_c, 0, 62, 64
4, 144960, Note_on_c, 0, 70, 101
4, 145344, Note_off_c, 0, 70, 64
4, 145440, Note_on_c, 0, 72, 109
4, 145824, Note_off_c, 0, 72, 64
4, 145920, Note_on_c, 0, 75, 103
4, 146176, Note_off_c, 0, 75, 64
4, 146240, Note_on_c, 0, 74, 107
4, 146496, Note_off_c, 0, 74, 64
4, 146560, Note_on_c, 0, 72, 118
4, 146816, Note_off_c, 0, 72, 64
4, 146880, Note_on_c, 0, 75, 116
4, 147264, Note_off_c, 0, 75, 64
4, 147360, Note_on_c, 0, 74, 112
4, 148512, Note_off_c, 0, 74, 64
4, 148800, Note_on_c, 0, 72, 98
4, 149440, Note_off_c, 0, 72, 64
4, 149520, Note_on_c, 0, 70, 112
4, 149712, Note_off_c, 0, 70, 64
4, 149760, Note_on_c, 0, 72, 118
4, 152064, Note_off_c, 0, 72, 64
4, 152640, Note_on_c, 0, 67, 121
4, 153024, Note_off_c, 0, 67, 64
4, 153120, Note_on_c, 0, 66, 112
4, 153504, Note_off_c, 0, 66, 64
4, 153600, Note_on_c, 0, 65, 104
4, 153984, Note_off_c, 0, 65, 64
4, 154080, Note_on_c, 0, 67, 123
4, 155616, Note_off_c, 0, 67, 64
4, 156000, Note_on_c, 0, 67, 115
4, 156384, Note_off_c, 0, 67, 64
4, 156480, Note_on_c, 0, 58, 111
4, 156672, Note_off_c, 0, 58, 64
4, 156720, Note_on_c, 0, 60, 102
4, 156912, Note_off_c, 0, 60, 64
4, 156960, Note_on_c, 0, 62, 107
4, 157152, Note_off_c, 0, 62, 64
4, 157200, Note_on_c, 0, 63, 110
4, 157392, Note_off_c, 0, 63, 64
4, 157440, Note_on_c, 0, 65, 109
4, 157824, Note_off_c, 0, 65, 64
4, 157920, Note_on_c, 0, 67, 109
4, 159456, Note_off_c, 0, 67, 64
4, 159840, Note_on_c, 0, 65, 98
4, 160224, Note_off_c, 0, 65, 64
4, 160320, Note_on_c, 0, 67, 106
4, 160704, Note_off_c, 0, 67, 64
4, 160800, Note_on_c, 0, 65, 103
4, 161184, Note_off_c, 0, 65, 64
4, 161280, Note_on_c, 0, 58, 108
4, 161664, Note_off_c, 0, 58, 64
4, 161760, Note_on_c, 0, 58, 120
4, 161952, Note_off_c, 0, 58, 64
4, 162000, Note_on_c, 0, 58, 105
4, 162192, Note_off_c, 0, 58, 64
4, 162240, Note_on_c, 0, 58, 110
4, 163392, Note_off_c, 0, 58, 64
4, 163680, Note_on_c, 0, 65, 110
4, 164064, Note_off_c, 0, 65, 64
4, 164160, Note_on_c, 0, 67, 114
4, 164544, Note_off_c, 0, 67, 64
4, 164640, Note_on_c, 0, 65, 113
4, 165024, Note_off_c, 0, 65, 64
4, 165120, Note_on_c, 0, 58, 108
4, 165504, Note_off_c, 0, 58, 64
4, 165600, Note_on_c, 0, 58, 110
4, 165792, Note_off_c, 0, 58, 64
4, 165840, Note_on_c, 0, 58, 95
4, 166032, Note_off_c, 0, 58, 64
4, 166080, Note_on_c, 0, 58, 120
4, 167500, Note_off_c, 0, 58, 64
4, 168000, Note_on_c, 0, 69, 113
4, 168384, Note_off_c, 0, 69, 64
4, 168480, Note_on_c, 0, 67, 112
4, 168864, Note_off_c, 0, 67, 64
4, 168960, Note_on_c, 0, 58, 114
4, 169216, Note_off_c, 0, 58, 64
4, 169280, Note_on_c, 0, 58, 104
4, 169536, Note_off_c, 0, 58, 64
4, 169600, Note_on_c, 0, 58, 110
4, 169856, Note_off_c, 0, 58, 64
4, 169920, Note_on_c, 0, 58, 109
4, 170380, Note_off_c, 0, 58, 64
4, 170640, Note_on_c, 0, 58, 107
4, 170832, Note_off_c, 0, 58, 64
4, 170880, Note_on_c, 0, 60, 110
4, 171072, Note_off_c, 0, 60, 64
4, 171360, Note_on_c, 0, 62, 120
4, 171552, Note_off_c, 0, 62, 64
4, 171600, Note_on_c, 0, 63, 110
4, 171792, Note_off_c, 0, 63, 64
4, 171840, Note_on_c, 0, 65, 111
4, 172032, Note_off_c, 0, 65, 64
4, 172080, Note_on_c, 0, 67, 110
4, 172272, Note_off_c, 0, 67, 64
4, 172320, Note_on_c, 0, 69, 116
4, 172512, Note_off_c, 0, 69, 64
4, 172560, Note_on_c, 0, 70, 116
4, 172752, Note_off_c, 0, 70, 64
4, 172800, Note_on_c, 0, 72, 116
4, 173184, Note_off_c, 0, 72, 64
4, 173280, Note_on_c, 0, 74, 109
4, 175200, Note_off_c, 0, 74, 64
4, 175680, Note_on_c, 0, 72, 109
4, 175872, Note_off_c, 0, 72, 64
4, 175920, Note_on_c, 0, 74, 113
4, 176112, Note_off_c, 0, 74, 64
4, 176160, Note_on_c, 0, 72, 110
4, 176352, Note_off_c, 0, 72, 64
4, 176400, Note_on_c, 0, 70, 115
4, 176592, Note_off_c, 0, 70, 64
4, 176640, Note_on_c, 0, 72, 103
4, 177024, Note_off_c, 0, 72, 64
4, 177120, Note_on_c, 0, 74, 115
4, 179020, Note_off_c, 0, 74, 64
4, 179520, Note_on_c, 0, 70, 118
4, 179904, Note_off_c, 0, 70, 64
4, 180000, Note_on_c, 0, 72, 98
4, 180384, Note_off_c, 0, 72, 64
4, 180480, Note_on_c, 0, 75, 109
4, 180736, Note_off_c, 0, 75, 64
4, 180800, Note_on_c, 0, 74, 110
4, 181056, Note_off_c, 0, 74, 64
4, 181120, Note_on_c, 0, 72, 95
4, 181376, Note_off_c, 0, 72, 64
4, 181440, Note_on_c, 0, 75, 110
4, 181824, Note_off_c, 0, 75, 64
4, 181920, Note_on_c, 0, 74, 107
4, 182304, Note_off_c, 0, 74, 64
4, 182400, Note_on_c, 0, 70, 117
4, 183168, Note_off_c, 0, 70, 64
4, 183360, Note_on_c, 0, 70, 97
4, 184128, Note_off_c, 0, 70, 64
4, 184320, Note_on_c, 0, 70, 109
4, 187660, Note_off_c, 0, 70, 64
4, 187660, End_track
5, 0, Start_track
5, 0, Title_t, "Soloist (BB)"
5, 0, MIDI_port, 0
5, 0, Channel_prefix, 1
5, 0, Control_c, 1, 7, 102
5, 0, Control_c, 1, 10, 40
5, 0, Control_c, 1, 91, 99
5, 0, Control_c, 1, 93, 64
5, 0, Program_c, 1, 66
5, 0, Control_c, 1, 123, 0
5, 3840, Note_on_c, 1, 67, 97
5, 3840, Note_on_c, 1, 70, 114
5, 3840, Note_on_c, 1, 75, 115
5, 4096, Note_off_c, 1, 75, 64
5, 4096, Note_off_c, 1, 70, 64
5, 4096, Note_off_c, 1, 67, 64
5, 4160, Note_on_c, 1, 65, 125
5, 4160, Note_on_c, 1, 70, 99
5, 4160, Note_on_c, 1, 74, 106
5, 4416, Note_off_c, 1, 74, 64
5, 4416, Note_off_c, 1, 70, 64
5, 4416, Note_off_c, 1, 65, 64
5, 4480, Note_on_c, 1, 63, 108
5, 4480, Note_on_c, 1, 67, 108
5, 4480, Note_on_c, 1, 72, 97
5, 4736, Note_off_c, 1, 72, 64
5, 4736, Note_off_c, 1, 67, 64
5, 4736, Note_off_c, 1, 63, 64
5, 4800, Note_on_c, 1, 67, 114
5, 4800, Note_on_c, 1, 70, 106
5, 4800, Note_on_c, 1, 75, 110
5, 5184, Note_off_c, 1, 75, 64
5, 5184, Note_off_c, 1, 70, 64
5, 5184, Note_off_c, 1, 67, 64
5, 5280, Note_on_c, 1, 65, 97
5, 5280, Note_on_c, 1, 70, 108
5, 5280, Note_on_c, 1, 74, 110
5, 5664, Note_off_c, 1, 74, 64
5, 5664, Note_off_c, 1, 70, 64
5, 5664, Note_off_c, 1, 65, 64
5, 5760, Note_on_c, 1, 63, 119
5, 5760, Note_on_c, 1, 67, 110
5, 5760, Note_on_c, 1, 70, 109
5, 6528, Note_off_c, 1, 70, 64
5, 6528, Note_off_c, 1, 67, 64
5, 6528, Note_off_c, 1, 63, 64
5, 6720, Note_on_c, 1, 63, 102
5, 6720, Note_on_c, 1, 67, 107
5, 6720, Note_on_c, 1, 70, 111
5, 7488, Note_off_c, 1, 70, 64
5, 7488, Note_off_c, 1, 67, 64
5, 7488, Note_off_c, 1, 63, 64
5, 7680, Note_on_c, 1, 69, 113
5, 7680, Note_on_c, 1, 72, 110
5, 8064, Note_off_c, 1, 72, 64
5, 8064, Note_off_c, 1, 69, 64
5, 8160, Note_on_c, 1, 70, 115
5, 8160, Note_on_c, 1, 74, 106
5, 8928, Note_off_c, 1, 74, 64
5, 8928, Note_off_c, 1, 70, 64
5, 9120, Note_on_c, 1, 69, 100
5, 9120, Note_on_c, 1, 72, 125
5, 9312, Note_off_c, 1, 72, 64
5, 9312, Note_off_c, 1, 69, 64
5, 9360, Note_on_c, 1, 67, 121
5, 9360, Note_on_c, 1, 70, 98
5, 9552, Note_off_c, 1, 70, 64
5, 9552, Note_off_c, 1, 67, 64
5, 9600, Note_on_c, 1, 58, 104
5, 9600, Note_on_c, 1, 63, 124
5, 9600, Note_on_c, 1, 67, 110
5, 9984, Note_off_c, 1, 67, 64
5, 9984, Note_off_c, 1, 63, 64
5, 10080, Note_on_c, 1, 63, 117
5, 10464, Note_off_c, 1, 58, 64
5, 10464, Note_off_c, 1, 63, 64
5, 10560, Note_on_c, 1, 57, 109
5, 10560, Note_on_c, 1, 62, 114
5, 10944, Note_off_c, 1, 62, 64
5, 11040, Note_on_c, 1, 65, 110
5, 11424, Note_off_c, 1, 57, 64
5, 11424, Note_off_c, 1, 65, 64
5, 11520, Note_on_c, 1, 53, 119
5, 12000, Note_on_c, 1, 58, 114
5, 12768, Note_off_c, 1, 58, 64
5, 12960, Note_on_c, 1, 57, 120
5, 13344, Note_off_c, 1, 53, 64
5, 13344, Note_off_c, 1, 57, 64
5, 13440, Note_on_c, 1, 55, 115
5, 13824, Note_off_c, 1, 55, 64
5, 13920, Note_on_c, 1, 53, 122
5, 14304, Note_off_c, 1, 53, 64
5, 14400, Note_on_c, 1, 55, 105
5, 15168, Note_off_c, 1, 55, 64
5, 15360, Note_on_c, 1, 53, 110
5, 15840, Note_on_c, 1, 58, 109
5, 16608, Note_off_c, 1, 58, 64
5, 16800, Note_on_c, 1, 57, 99
5, 17184, Note_off_c, 1, 53, 64
5, 17184, Note_off_c, 1, 57, 64
5, 17280, Note_on_c, 1, 55, 117
5, 17664, Note_off_c, 1, 55, 64
5, 17760, Note_on_c, 1, 53, 110
5, 18144, Note_off_c, 1, 53, 64
5, 18240, Note_on_c, 1, 63, 106
5, 18240, Note_on_c, 1, 67, 117
5, 18240, Note_on_c, 1, 70, 110
5, 18624, Note_off_c, 1, 70, 64
5, 18624, Note_off_c, 1, 67, 64
5, 18624, Note_off_c, 1, 63, 64
5, 18720, Note_on_c, 1, 63, 107
5, 18720, Note_on_c, 1, 67, 102
5, 18720, Note_on_c, 1, 72, 121
5, 19104, Note_off_c, 1, 72, 64
5, 19104, Note_off_c, 1, 67, 64
5, 19104, Note_off_c, 1, 63, 64
5, 19200, Note_on_c, 1, 67, 123
5, 19200, Note_on_c, 1, 70, 116
5, 19200, Note_on_c, 1, 75, 110
5, 19456, Note_off_c, 1, 75, 64
5, 19456, Note_off_c, 1, 70, 64
5, 19456, Note_off_c, 1, 67, 64
5, 19520, Note_on_c, 1, 65, 121
5, 19520, Note_on_c, 1, 69, 119
5, 19520, Note_on_c, 1, 74, 102
5, 19776, Note_off_c, 1, 74, 64
5, 19776, Note_off_c, 1, 69, 64
5, 19776, Note_off_c, 1, 65, 64
5, 19840, Note_on_c, 1, 63, 100
5, 19840, Note_on_c, 1, 67, 104
5, 19840, Note_on_c, 1, 72, 115
5, 20096, Note_off_c, 1, 72, 64
5, 20096, Note_off_c, 1, 67, 64
5, 20096, Note_off_c, 1, 63, 64
5, 20160, Note_on_c, 1, 67, 110
5, 20160, Note_on_c, 1, 70, 103
5, 20160, Note_on_c, 1, 75, 110
5, 20544, Note_off_c, 1, 75, 64
5, 20544, Note_off_c, 1, 70, 64
5, 20544, Note_off_c, 1, 67, 64
5, 20640, Note_on_c, 1, 65, 110
5, 20640, Note_on_c, 1, 69, 100
5, 20640, Note_on_c, 1, 74, 110
5, 21792, Note_off_c, 1, 74, 64
5, 21792, Note_off_c, 1, 69, 64
5, 21792, Note_off_c, 1, 65, 64
5, 22080, Note_on_c, 1, 62, 108
5, 23020, Note_off_c, 1, 62, 64
5, 23520, Note_on_c, 1, 55, 104
5, 23520, Note_on_c, 1, 60, 123
5, 24288, Note_off_c, 1, 60, 64
5, 24288, Note_off_c, 1, 55, 64
5, 24480, Note_on_c, 1, 55, 116
5, 24480, Note_on_c, 1, 60, 108
5, 24864, Note_off_c, 1, 60, 64
5, 24864, Note_off_c, 1, 55, 64
5, 24960, Note_on_c, 1, 54, 111
5, 25344, Note_off_c, 1, 54, 64
5, 25440, Note_on_c, 1, 55, 110
5, 25824, Note_off_c, 1, 55, 64
5, 25920, Note_on_c, 1, 57, 122
5, 26688, Note_off_c, 1, 57, 64
5, 26880, Note_on_c, 1, 58, 97
5, 26880, Note_on_c, 1, 62, 111
5, 26880, Note_on_c, 1, 64, 111
5, 27264, Note_off_c, 1, 64, 64
5, 27264, Note_off_c, 1, 62, 64
5, 27264, Note_off_c, 1, 58, 64
5, 27360, Note_on_c, 1, 58, 110
5, 27360, Note_on_c, 1, 62, 98
5, 27360, Note_on_c, 1, 66, 110
5, 28896, Note_off_c, 1, 66, 64
5, 28896, Note_off_c, 1, 62, 64
5, 28896, Note_off_c, 1, 58, 64
5, 29280, Note_on_c, 1, 58, 110
5, 29280, Note_on_c, 1, 62, 102
5, 30048, Note_off_c, 1, 62, 64
5, 30048, Note_off_c, 1, 58, 64
5, 30240, Note_on_c, 1, 58, 110
5, 30240, Note_on_c, 1, 62, 106
5, 30624, Note_off_c, 1, 62, 64
5, 30624, Note_off_c, 1, 58, 64
5, 30720, Note_on_c, 1, 58, 113
5, 30720, Note_on_c, 1, 62, 98
5, 30720, Note_on_c, 1, 64, 120
5, 31104, Note_off_c, 1, 64, 64
5, 31104, Note_off_c, 1, 62, 64
5, 31104, Note_off_c, 1, 58, 64
5, 31200, Note_on_c, 1, 58, 116
5, 31200, Note_on_c, 1, 62, 108
5, 31200, Note_on_c, 1, 66, 109
5, 32736, Note_off_c, 1, 66, 64
5, 32736, Note_off_c, 1, 62, 64
5, 32736, Note_off_c, 1, 58, 64
5, 33120, Note_on_c, 1, 58, 109
5, 33120, Note_on_c, 1, 62, 115
5, 34272, Note_off_c, 1, 62, 64
5, 34272, Note_off_c, 1, 58, 64
5, 34560, Note_on_c, 1, 65, 95
5, 35328, Note_off_c, 1, 65, 64
5, 35520, Note_on_c, 1, 64, 110
5, 36460, Note_off_c, 1, 64, 64
5, 36960, Note_on_c, 1, 60, 123
5, 36960, Note_on_c, 1, 64, 97
5, 37728, Note_off_c, 1, 64, 64
5, 37728, Note_off_c, 1, 60, 64
5, 37920, Note_on_c, 1, 57, 113
5, 37920, Note_on_c, 1, 62, 110
5, 38304, Note_off_c, 1, 62, 64
5, 38304, Note_off_c, 1, 57, 64
5, 38400, Note_on_c, 1, 62, 102
5, 39168, Note_off_c, 1, 62, 64
5, 39360, Note_on_c, 1, 55, 114
5, 39360, Note_on_c, 1, 61, 110
5, 40128, Note_off_c, 1, 61, 64
5, 40128, Note_off_c, 1, 55, 64
5, 40320, Note_on_c, 1, 60, 97
5, 41088, Note_off_c, 1, 60, 64
5, 41280, Note_on_c, 1, 59, 110
5, 42220, Note_off_c, 1, 59, 64
5, 42720, Note_on_c, 1, 58, 106
5, 42720, Note_on_c, 1, 62, 101
5, 43488, Note_off_c, 1, 62, 64
5, 43488, Note_off_c, 1, 58, 64
5, 43680, Note_on_c, 1, 58, 100
5, 43680, Note_on_c, 1, 62, 108
5, 44064, Note_off_c, 1, 62, 64
5, 44064, Note_off_c, 1, 58, 64
5, 44160, Note_on_c, 1, 58, 111
5, 44160, Note_on_c, 1, 62, 107
5, 44160, Note_on_c, 1, 65, 109
5, 44544, Note_off_c, 1, 65, 64
5, 44544, Note_off_c, 1, 62, 64
5, 44544, Note_off_c, 1, 58, 64
5, 44640, Note_on_c, 1, 58, 112
5, 44640, Note_on_c, 1, 60, 110
5, 44640, Note_on_c, 1, 64, 106
5, 45408, Note_off_c, 1, 64, 64
5, 45408, Note_off_c, 1, 60, 64
5, 45408, Note_off_c, 1, 58, 64
5, 45600, Note_on_c, 1, 58, 99
5, 45600, Note_on_c, 1, 60, 108
5, 45600, Note_on_c, 1, 64, 105
5, 45984, Note_off_c, 1, 64, 64
5, 45984, Note_off_c, 1, 60, 64
5, 45984, Note_off_c, 1, 58, 64
5, 46080, Note_on_c, 1, 56, 105
5, 46080, Note_on_c, 1, 59, 117
5, 46080, Note_on_c, 1, 64, 110
5, 46464, Note_off_c, 1, 64, 64
5, 46464, Note_off_c, 1, 59, 64
5, 46464, Note_off_c, 1, 56, 64
5, 46560, Note_on_c, 1, 57, 106
5, 46560, Note_on_c, 1, 60, 100
5, 46560, Note_on_c, 1, 65, 106
5, 46944, Note_off_c, 1, 65, 64
5, 46944, Note_off_c, 1, 60, 64
5, 46944, Note_off_c, 1, 57, 64
5, 47040, Note_on_c, 1, 63, 112
5, 47040, Note_on_c, 1, 67, 102
5, 47040, Note_on_c, 1, 74, 107
5, 47424, Note_off_c, 1, 74, 64
5, 47424, Note_off_c, 1, 67, 64
5, 47424, Note_off_c, 1, 63, 64
5, 47520, Note_on_c, 1, 60, 113
5, 47520, Note_on_c, 1, 63, 108
5, 47520, Note_on_c, 1, 70, 115
5, 47904, Note_off_c, 1, 70, 64
5, 47904, Note_off_c, 1, 63, 64
5, 47904, Note_off_c, 1, 60, 64
5, 48000, Note_on_c, 1, 58, 102
5, 48000, Note_on_c, 1, 60, 112
5, 48000, Note_on_c, 1, 67, 106
5, 48384, Note_off_c, 1, 67, 64
5, 48384, Note_off_c, 1, 60, 64
5, 48384, Note_off_c, 1, 58, 64
5, 48480, Note_on_c, 1, 55, 111
5, 48480, Note_on_c, 1, 58, 110
5, 48480, Note_on_c, 1, 63, 114
5, 48864, Note_off_c, 1, 63, 64
5, 48864, Note_off_c, 1, 58, 64
5, 48864, Note_off_c, 1, 55, 64
5, 48960, Note_on_c, 1, 55, 122
5, 49344, Note_off_c, 1, 55, 64
5, 49440, Note_on_c, 1, 57, 110
5, 49824, Note_off_c, 1, 57, 64
5, 49920, Note_on_c, 1, 53, 109
5, 50400, Note_on_c, 1, 58, 122
5, 51168, Note_off_c, 1, 58, 64
5, 51360, Note_on_c, 1, 57, 110
5, 51744, Note_off_c, 1, 53, 64
5, 51744, Note_off_c, 1, 57, 64
5, 51840, Note_on_c, 1, 55, 118
5, 52224, Note_off_c, 1, 55, 64
5, 52320, Note_on_c, 1, 53, 110
5, 52704, Note_off_c, 1, 53, 64
5, 52800, Note_on_c, 1, 55, 98
5, 53568, Note_off_c, 1, 55, 64
5, 53760, Note_on_c, 1, 57, 96
5, 54240, Note_on_c, 1, 58, 109
5, 55008, Note_off_c, 1, 58, 64
5, 55200, Note_on_c, 1, 57, 124
5, 55584, Note_off_c, 1, 57, 64
5, 55584, Note_off_c, 1, 57, 64
5, 55680, Note_on_c, 1, 55, 122
5, 56064, Note_off_c, 1, 55, 64
5, 56160, Note_on_c, 1, 53, 109
5, 56544, Note_off_c, 1, 53, 64
5, 56640, Note_on_c, 1, 63, 110
5, 56640, Note_on_c, 1, 67, 108
5, 56640, Note_on_c, 1, 70, 97
5, 57024, Note_off_c, 1, 70, 64
5, 57024, Note_off_c, 1, 67, 64
5, 57024, Note_off_c, 1, 63, 64
5, 57120, Note_on_c, 1, 63, 123
5, 57120, Note_on_c, 1, 67, 122
5, 57120, Note_on_c, 1, 72, 110
5, 57504, Note_off_c, 1, 72, 64
5, 57504, Note_off_c, 1, 67, 64
5, 57504, Note_off_c, 1, 63, 64
5, 57600, Note_on_c, 1, 67, 110
5, 57600, Note_on_c, 1, 70, 109
5, 57600, Note_on_c, 1, 75, 116
5, 57856, Note_off_c, 1, 75, 64
5, 57856, Note_off_c, 1, 70, 64
5, 57856, Note_off_c, 1, 67, 64
5, 57920, Note_on_c, 1, 65, 122
5, 57920, Note_on_c, 1, 69, 107
5, 57920, Note_on_c, 1, 74, 105
5, 58176, Note_off_c, 1, 74, 64
5, 58176, Note_off_c, 1, 69, 64
5, 58176, Note_off_c, 1, 65, 64
5, 58240, Note_on_c, 1, 63, 112
5, 58240, Note_on_c, 1, 67, 108
5, 58240, Note_on_c, 1, 72, 121
5, 58496, Note_off_c, 1, 72, 64
5, 58496, Note_off_c, 1, 67, 64
5, 58496, Note_off_c, 1, 63, 64
5, 58560, Note_on_c, 1, 67, 120
5, 58560, Note_on_c, 1, 70, 112
5, 58560, Note_on_c, 1, 75, 99
5, 58944, Note_off_c, 1, 75, 64
5, 58944, Note_off_c, 1, 70, 64
5, 58944, Note_off_c, 1, 67, 64
5, 59040, Note_on_c, 1, 65, 120
5, 59040, Note_on_c, 1, 69, 110
5, 59040, Note_on_c, 1, 74, 110
5, 60192, Note_off_c, 1, 74, 64
5, 60192, Note_off_c, 1, 69, 64
5, 60192, Note_off_c, 1, 65, 64
5, 60480, Note_on_c, 1, 62, 104
5, 61420, Note_off_c, 1, 62, 64
5, 61920, Note_on_c, 1, 63, 113
5, 61920, Note_on_c, 1, 68, 112
5, 62688, Note_off_c, 1, 68, 64
5, 62688, Note_off_c, 1, 63, 64
5, 62880, Note_on_c, 1, 63, 105
5, 62880, Note_on_c, 1, 68, 108
5, 63648, Note_off_c, 1, 68, 64
5, 63648, Note_off_c, 1, 63, 64
5, 63840, Note_on_c, 1, 63, 111
5, 63840, Note_on_c, 1, 68, 102
5, 64224, Note_off_c, 1, 68, 64
5, 64224, Note_off_c, 1, 63, 64
5, 64320, Note_on_c, 1, 56, 103
5, 65088, Note_off_c, 1, 56, 64
5, 65280, Note_on_c, 1, 55, 100
5, 65760, Note_on_c, 1, 63, 122
5, 66528, Note_off_c, 1, 63, 64
5, 66720, Note_on_c, 1, 62, 100
5, 67104, Note_off_c, 1, 55, 64
5, 67104, Note_off_c, 1, 62, 64
5, 67200, Note_on_c, 1, 60, 110
5, 67968, Note_off_c, 1, 60, 64
5, 68160, Note_on_c, 1, 55, 102
5, 68544, Note_off_c, 1, 55, 64
5, 68640, Note_on_c, 1, 54, 109
5, 69024, Note_off_c, 1, 54, 64
5, 69120, Note_on_c, 1, 58, 99
5, 71424, Note_off_c, 1, 58, 64
5, 72000, Note_on_c, 1, 56, 100
5, 72000, Note_on_c, 1, 60, 116
5, 72000, Note_on_c, 1, 63, 112
5, 72768, Note_off_c, 1, 63, 64
5, 72768, Note_off_c, 1, 60, 64
5, 72768, Note_off_c, 1, 56, 64
5, 72960, Note_on_c, 1, 55, 101
5, 74112, Note_off_c, 1, 55, 64
5, 74400, Note_on_c, 1, 51, 110
5, 74400, Note_on_c, 1, 55, 113
5, 74784, Note_off_c, 1, 55, 64
5, 74784, Note_off_c, 1, 51, 64
5, 74880, Note_on_c, 1, 55, 110
5, 75648, Note_off_c, 1, 55, 64
5, 75840, Note_on_c, 1, 57, 100
5, 75840, Note_on_c, 1, 60, 103
5, 76608, Note_off_c, 1, 60, 64
5, 76608, Note_off_c, 1, 57, 64
5, 76800, Note_on_c, 1, 53, 118
5, 77740, Note_off_c, 1, 53, 64
5, 78240, Note_on_c, 1, 53, 110
5, 79180, Note_off_c, 1, 53, 64
5, 79680, Note_on_c, 1, 58, 112
5, 79680, Note_on_c, 1, 62, 123
5, 80448, Note_off_c, 1, 62, 64
5, 80448, Note_off_c, 1, 58, 64
5, 80640, Note_on_c, 1, 55, 106
5, 81580, Note_off_c, 1, 55, 64
5, 82080, Note_on_c, 1, 53, 99
5, 82464, Note_off_c, 1, 53, 64
5, 82560, Note_on_c, 1, 55, 118
5, 82560, Note_on_c, 1, 58, 110
5, 82560, Note_on_c, 1, 60, 114
5, 82752, Note_off_c, 1, 60, 64
5, 82752, Note_off_c, 1, 58, 64
5, 82752, Note_off_c, 1, 55, 64
5, 83520, Note_on_c, 1, 57, 116
5, 83980, Note_off_c, 1, 57, 64
5, 84480, Note_on_c, 1, 65, 125
5, 84480, Note_on_c, 1, 67, 110
5, 84480, Note_on_c, 1, 72, 104
5, 84864, Note_off_c, 1, 72, 64
5, 84864, Note_off_c, 1, 67, 64
5, 84864, Note_off_c, 1, 65, 64
5, 84960, Note_on_c, 1, 65, 112
5, 84960, Note_on_c, 1, 70, 119
5, 84960, Note_on_c, 1, 74, 117
5, 86880, Note_off_c, 1, 74, 64
5, 86880, Note_off_c, 1, 70, 64
5, 86880, Note_off_c, 1, 65, 64
5, 87360, Note_on_c, 1, 63, 109
5, 87360, Note_on_c, 1, 67, 109
5, 88128, Note_off_c, 1, 67, 64
5, 88128, Note_off_c, 1, 63, 64
5, 88320, Note_on_c, 1, 63, 103
5, 88320, Note_on_c, 1, 67, 110
5, 88320, Note_on_c, 1, 72, 113
5, 88704, Note_off_c, 1, 72, 64
5, 88704, Note_off_c, 1, 67, 64
5, 88704, Note_off_c, 1, 63, 64
5, 88800, Note_on_c, 1, 67, 107
5, 88800, Note_on_c, 1, 70, 110
5, 88800, Note_on_c, 1, 74, 107
5, 90720, Note_off_c, 1, 74, 64
5, 90720, Note_off_c, 1, 70, 64
5, 90720, Note_off_c, 1, 67, 64
5, 91200, Note_on_c, 1, 63, 109
5, 91968, Note_off_c, 1, 63, 64
5, 92160, Note_on_c, 1, 67, 98
5, 92160, Note_on_c, 1, 70, 112
5, 92160, Note_on_c, 1, 75, 105
5, 92416, Note_off_c, 1, 75, 64
5, 92416, Note_off_c, 1, 70, 64
5, 92416, Note_off_c, 1, 67, 64
5, 92480, Note_on_c, 1, 65, 107
5, 92480, Note_on_c, 1, 70, 110
5, 92480, Note_on_c, 1, 74, 104
5, 92736, Note_off_c, 1, 74, 64
5, 92736, Note_off_c, 1, 70, 64
5, 92736, Note_off_c, 1, 65, 64
5, 92800, Note_on_c, 1, 63, 125
5, 92800, Note_on_c, 1, 67, 115
5, 92800, Note_on_c, 1, 72, 121
5, 93056, Note_off_c, 1, 72, 64
5, 93056, Note_off_c, 1, 67, 64
5, 93056, Note_off_c, 1, 63, 64
5, 93120, Note_on_c, 1, 67, 109
5, 93120, Note_on_c, 1, 70, 107
5, 93120, Note_on_c, 1, 75, 100
5, 93504, Note_off_c, 1, 75, 64
5, 93504, Note_off_c, 1, 70, 64
5, 93504, Note_off_c, 1, 67, 64
5, 93600, Note_on_c, 1, 65, 110
5, 93600, Note_on_c, 1, 70, 114
5, 93600, Note_on_c, 1, 74, 110
5, 93984, Note_off_c, 1, 74, 64
5, 93984, Note_off_c, 1, 70, 64
5, 93984, Note_off_c, 1, 65, 64
5, 94080, Note_on_c, 1, 63, 124
5, 94080, Note_on_c, 1, 67, 115
5, 94080, Note_on_c, 1, 70, 123
5, 94848, Note_off_c, 1, 70, 64
5, 94848, Note_off_c, 1, 67, 64
5, 94848, Note_off_c, 1, 63, 64
5, 95040, Note_on_c, 1, 63, 105
5, 95040, Note_on_c, 1, 67, 105
5, 95040, Note_on_c, 1, 70, 110
5, 95808, Note_off_c, 1, 70, 64
5, 95808, Note_off_c, 1, 67, 64
5, 95808, Note_off_c, 1, 63, 64
5, 96000, Note_on_c, 1, 60, 120
5, 96384, Note_off_c, 1, 60, 64
5, 96480, Note_on_c, 1, 62, 122
5, 96864, Note_off_c, 1, 62, 64
5, 96960, Note_on_c, 1, 72, 103
5, 96960, Note_on_c, 1, 65, 111
5, 97152, Note_off_c, 1, 72, 64
5, 97200, Note_on_c, 1, 70, 110
5, 97200, Note_on_c, 1, 74, 96
5, 97392, Note_off_c, 1, 74, 64
5, 97392, Note_off_c, 1, 70, 64
5, 97440, Note_on_c, 1, 69, 105
5, 97440, Note_on_c, 1, 72, 116
5, 97632, Note_off_c, 1, 72, 64
5, 97632, Note_off_c, 1, 69, 64
5, 97680, Note_on_c, 1, 67, 114
5, 97680, Note_on_c, 1, 70, 110
5, 97824, Note_off_c, 1, 65, 64
5, 97872, Note_off_c, 1, 67, 64
5, 97872, Note_off_c, 1, 70, 64
5, 97920, Note_on_c, 1, 58, 111
5, 97920, Note_on_c, 1, 63, 111
5, 98304, Note_off_c, 1, 63, 64
5, 98304, Note_off_c, 1, 58, 64
5, 98400, Note_on_c, 1, 55, 108
5, 98400, Note_on_c, 1, 58, 108
5, 98784, Note_off_c, 1, 58, 64
5, 98784, Note_off_c, 1, 55, 64
5, 98880, Note_on_c, 1, 57, 109
5, 99744, Note_off_c, 1, 57, 64
5, 99840, Note_on_c, 1, 53, 117
5, 100320, Note_on_c, 1, 58, 110
5, 101088, Note_off_c, 1, 58, 64
5, 101280, Note_on_c, 1, 57, 110
5, 101664, Note_off_c, 1, 53, 64
5, 101664, Note_off_c, 1, 57, 64
5, 101760, Note_on_c, 1, 55, 113
5, 102144, Note_off_c, 1, 55, 64
5, 102240, Note_on_c, 1, 53, 111
5, 102624, Note_off_c, 1, 53, 64
5, 102720, Note_on_c, 1, 55, 97
5, 103488, Note_off_c, 1, 55, 64
5, 103680, Note_on_c, 1, 53, 108
5, 104160, Note_on_c, 1, 58, 115
5, 104928, Note_off_c, 1, 58, 64
5, 105120, Note_on_c, 1, 57, 104
5, 105504, Note_off_c, 1, 53, 64
5, 105504, Note_off_c, 1, 57, 64
5, 105600, Note_on_c, 1, 55, 110
5, 105984, Note_off_c, 1, 55, 64
5, 106080, Note_on_c, 1, 53, 109
5, 106464, Note_off_c, 1, 53, 64
5, 106560, Note_on_c, 1, 63, 104
5, 106560, Note_on_c, 1, 67, 109
5, 106560, Note_on_c, 1, 70, 109
5, 106944, Note_off_c, 1, 70, 64
5, 106944, Note_off_c, 1, 67, 64
5, 106944, Note_off_c, 1, 63, 64
5, 107040, Note_on_c, 1, 63, 101
5, 107040, Note_on_c, 1, 67, 112
5, 107040, Note_on_c, 1, 72, 102
5, 107424, Note_off_c, 1, 72, 64
5, 107424, Note_off_c, 1, 67, 64
5, 107424, Note_off_c, 1, 63, 64
5, 107520, Note_on_c, 1, 67, 111
5, 107520, Note_on_c, 1, 70, 109
5, 107520, Note_on_c, 1, 75, 108
5, 107776, Note_off_c, 1, 75, 64
5, 107776, Note_off_c, 1, 70, 64
5, 107776, Note_off_c, 1, 67, 64
5, 107840, Note_on_c, 1, 65, 110
5, 107840, Note_on_c, 1, 69, 110
5, 107840, Note_on_c, 1, 74, 101
5, 108096, Note_off_c, 1, 74, 64
5, 108096, Note_off_c, 1, 69, 64
5, 108096, Note_off_c, 1, 65, 64
5, 108160, Note_on_c, 1, 63, 114
5, 108160, Note_on_c, 1, 67, 114
5, 108160, Note_on_c, 1, 72, 99
5, 108416, Note_off_c, 1, 72, 64
5, 108416, Note_off_c, 1, 67, 64
5, 108416, Note_off_c, 1, 63, 64
5, 108480, Note_on_c, 1, 67, 101
5, 108480, Note_on_c, 1, 70, 114
5, 108480, Note_on_c, 1, 75, 113
5, 108864, Note_off_c, 1, 75, 64
5, 108864, Note_off_c, 1, 70, 64
5, 108864, Note_off_c, 1, 67, 64
5, 108960, Note_on_c, 1, 65, 109
5, 108960, Note_on_c, 1, 69, 110
5, 108960, Note_on_c, 1, 74, 117
5, 110112, Note_off_c, 1, 74, 64
5, 110112, Note_off_c, 1, 69, 64
5, 110112, Note_off_c, 1, 65, 64
5, 110400, Note_on_c, 1, 62, 113
5, 111340, Note_off_c, 1, 62, 64
5, 111840, Note_on_c, 1, 55, 96
5, 111840, Note_on_c, 1, 60, 97
5, 112608, Note_off_c, 1, 60, 64
5, 112608, Note_off_c, 1, 55, 64
5, 112800, Note_on_c, 1, 55, 115
5, 112800, Note_on_c, 1, 60, 107
5, 113184, Note_off_c, 1, 60, 64
5, 113184, Note_off_c, 1, 55, 64
5, 113280, Note_on_c, 1, 54, 101
5, 113664, Note_off_c, 1, 54, 64
5, 113760, Note_on_c, 1, 55, 114
5, 114144, Note_off_c, 1, 55, 64
5, 114240, Note_on_c, 1, 57, 110
5, 115008, Note_off_c, 1, 57, 64
5, 115200, Note_on_c, 1, 58, 111
5, 115200, Note_on_c, 1, 62, 105
5, 115200, Note_on_c, 1, 64, 121
5, 115584, Note_off_c, 1, 64, 64
5, 115584, Note_off_c, 1, 62, 64
5, 115584, Note_off_c, 1, 58, 64
5, 115680, Note_on_c, 1, 58, 106
5, 115680, Note_on_c, 1, 62, 109
5, 115680, Note_on_c, 1, 66, 108
5, 117216, Note_off_c, 1, 66, 64
5, 117216, Note_off_c, 1, 62, 64
5, 117216, Note_off_c, 1, 58, 64
5, 117600, Note_on_c, 1, 58, 112
5, 117600, Note_on_c, 1, 62, 119
5, 118368, Note_off_c, 1, 62, 64
5, 118368, Note_off_c, 1, 58, 64
5, 118560, Note_on_c, 1, 58, 100
5, 118560, Note_on_c, 1, 62, 107
5, 118944, Note_off_c, 1, 62, 64
5, 118944, Note_off_c, 1, 58, 64
5, 119040, Note_on_c, 1, 58, 110
5, 119040, Note_on_c, 1, 62, 107
5, 119040, Note_on_c, 1, 64, 110
5, 119424, Note_off_c, 1, 64, 64
5, 119424, Note_off_c, 1, 62, 64
5, 119424, Note_off_c, 1, 58, 64
5, 119520, Note_on_c, 1, 58, 110
5, 119520, Note_on_c, 1, 62, 118
5, 119520, Note_on_c, 1, 66, 110
5, 121056, Note_off_c, 1, 66, 64
5, 121056, Note_off_c, 1, 62, 64
5, 121056, Note_off_c, 1, 58, 64
5, 121440, Note_on_c, 1, 58, 110
5, 121440, Note_on_c, 1, 62, 110
5, 122592, Note_off_c, 1, 62, 64
5, 122592, Note_off_c, 1, 58, 64
5, 122880, Note_on_c, 1, 65, 122
5, 123648, Note_off_c, 1, 65, 64
5, 123840, Note_on_c, 1, 64, 110
5, 124780, Note_off_c, 1, 64, 64
5, 125280, Note_on_c, 1, 60, 114
5, 125280, Note_on_c, 1, 64, 111
5, 126048, Note_off_c, 1, 64, 64
5, 126048, Note_off_c, 1, 60, 64
5, 126240, Note_on_c, 1, 57, 100
5, 126240, Note_on_c, 1, 62, 110
5, 126624, Note_off_c, 1, 62, 64
5, 126624, Note_off_c, 1, 57, 64
5, 126720, Note_on_c, 1, 62, 100
5, 127488, Note_off_c, 1, 62, 64
5, 127680, Note_on_c, 1, 55, 102
5, 127680, Note_on_c, 1, 61, 119
5, 128448, Note_off_c, 1, 61, 64
5, 128448, Note_off_c, 1, 55, 64
5, 128640, Note_on_c, 1, 60, 112
5, 129408, Note_off_c, 1, 60, 64
5, 129600, Note_on_c, 1, 59, 117
5, 130540, Note_off_c, 1, 59, 64
5, 131040, Note_on_c, 1, 58, 105
5, 131040, Note_on_c, 1, 62, 102
5, 131808, Note_off_c, 1, 62, 64
5, 131808, Note_off_c, 1, 58, 64
5, 132000, Note_on_c, 1, 58, 110
5, 132000, Note_on_c, 1, 62, 124
5, 132384, Note_off_c, 1, 62, 64
5, 132384, Note_off_c, 1, 58, 64
5, 132480, Note_on_c, 1, 58, 115
5, 132480, Note_on_c, 1, 62, 103
5, 132480, Note_on_c, 1, 65, 111
5, 132864, Note_off_c, 1, 65, 64
5, 132864, Note_off_c, 1, 62, 64
5, 132864, Note_off_c, 1, 58, 64
5, 132960, Note_on_c, 1, 58, 119
5, 132960, Note_on_c, 1, 60, 103
5, 132960, Note_on_c, 1, 64, 106
5, 133728, Note_off_c, 1, 64, 64
5, 133728, Note_off_c, 1, 60, 64
5, 133728, Note_off_c, 1, 58, 64
5, 133920, Note_on_c, 1, 58, 104
5, 133920, Note_on_c, 1, 60, 111
5, 133920, Note_on_c, 1, 64, 116
5, 134304, Note_off_c, 1, 64, 64
5, 134304, Note_off_c, 1, 60, 64
5, 134304, Note_off_c, 1, 58, 64
5, 134400, Note_on_c, 1, 56, 97
5, 134400, Note_on_c, 1, 59, 122
5, 134400, Note_on_c, 1, 64, 119
5, 134784, Note_off_c, 1, 64, 64
5, 134784, Note_off_c, 1, 59, 64
5, 134784, Note_off_c, 1, 56, 64
5, 134880, Note_on_c, 1, 57, 106
5, 134880, Note_on_c, 1, 60, 108
5, 134880, Note_on_c, 1, 65, 114
5, 135264, Note_off_c, 1, 65, 64
5, 135264, Note_off_c, 1, 60, 64
5, 135264, Note_off_c, 1, 57, 64
5, 135360, Note_on_c, 1, 63, 99
5, 135360, Note_on_c, 1, 67, 113
5, 135360, Note_on_c, 1, 74, 105
5, 135744, Note_off_c, 1, 74, 64
5, 135744, Note_off_c, 1, 67, 64
5, 135744, Note_off_c, 1, 63, 64
5, 135840, Note_on_c, 1, 60, 116
5, 135840, Note_on_c, 1, 63, 108
5, 135840, Note_on_c, 1, 70, 124
5, 136224, Note_off_c, 1, 70, 64
5, 136224, Note_off_c, 1, 63, 64
5, 136224, Note_off_c, 1, 60, 64
5, 136320, Note_on_c, 1, 58, 110
5, 136320, Note_on_c, 1, 60, 100
5, 136320, Note_on_c, 1, 67, 111
5, 136704, Note_off_c, 1, 67, 64
5, 136704, Note_off_c, 1, 60, 64
5, 136704, Note_off_c, 1, 58, 64
5, 136800, Note_on_c, 1, 55, 108
5, 136800, Note_on_c, 1, 58, 110
5, 136800, Note_on_c, 1, 63, 110
5, 137184, Note_off_c, 1, 63, 64
5, 137184, Note_off_c, 1, 58, 64
5, 137184, Note_off_c, 1, 55, 64
5, 137280, Note_on_c, 1, 55, 107
5, 137664, Note_off_c, 1, 55, 64
5, 137760, Note_on_c, 1, 57, 108
5, 138144, Note_off_c, 1, 57, 64
5, 138240, Note_on_c, 1, 53, 121
5, 138720, Note_on_c, 1, 58, 117
5, 139488, Note_off_c, 1, 58, 64
5, 139680, Note_on_c, 1, 57, 106
5, 140064, Note_off_c, 1, 53, 64
5, 140064, Note_off_c, 1, 57, 64
5, 140160, Note_on_c, 1, 55, 121
5, 140544, Note_off_c, 1, 55, 64
5, 140640, Note_on_c, 1, 53, 110
5, 141024, Note_off_c, 1, 53, 64
5, 141120, Note_on_c, 1, 55, 106
5, 141888, Note_off_c, 1, 55, 64
5, 142080, Note_on_c, 1, 57, 98
5, 142560, Note_on_c, 1, 58, 110
5, 143328, Note_off_c, 1, 58, 64
5, 143520, Note_on_c, 1, 57, 104
5, 143904, Note_off_c, 1, 57, 64
5, 143904, Note_off_c, 1, 57, 64
5, 144000, Note_on_c, 1, 55, 122
5, 144384, Note_off_c, 1, 55, 64
5, 144480, Note_on_c, 1, 53, 113
5, 144864, Note_off_c, 1, 53, 64
5, 144960, Note_on_c, 1, 63, 123
5, 144960, Note_on_c, 1, 67, 100
5, 144960, Note_on_c, 1, 70, 114
5, 145344, Note_off_c, 1, 70, 64
5, 145344, Note_off_c, 1, 67, 64
5, 145344, Note_off_c, 1, 63, 64
5, 145440, Note_on_c, 1, 63, 110
5, 145440, Note_on_c, 1, 67, 124
5, 145440, Note_on_c, 1, 72, 108
5, 145824, Note_off_c, 1, 72, 64
5, 145824, Note_off_c, 1, 67, 64
5, 145824, Note_off_c, 1, 63, 64
5, 145920, Note_on_c, 1, 67, 112
5, 145920, Note_on_c, 1, 70, 104
5, 145920, Note_on_c, 1, 75, 110
5, 146176, Note_off_c, 1, 75, 64
5, 146176, Note_off_c, 1, 70, 64
5, 146176, Note_off_c, 1, 67, 64
5, 146240, Note_on_c, 1, 65, 110
5, 146240, Note_on_c, 1, 69, 111
5, 146240, Note_on_c, 1, 74, 105
5, 146496, Note_off_c, 1, 74, 64
5, 146496, Note_off_c, 1, 69, 64
5, 146496, Note_off_c, 1, 65, 64
5, 146560, Note_on_c, 1, 63, 116
5, 146560, Note_on_c, 1, 67, 98
5, 146560, Note_on_c, 1, 72, 111
5, 146816, Note_off_c, 1, 72, 64
5, 146816, Note_off_c, 1, 67, 64
5, 146816, Note_off_c, 1, 63, 64
5, 146880, Note_on_c, 1, 67, 110
5, 146880, Note_on_c, 1, 70, 112
5, 146880, Note_on_c, 1, 75, 110
5, 147264, Note_off_c, 1, 75, 64
5, 147264, Note_off_c, 1, 70, 64
5, 147264, Note_off_c, 1, 67, 64
5, 147360, Note_on_c, 1, 65, 102
5, 147360, Note_on_c, 1, 69, 114
5, 147360, Note_on_c, 1, 74, 111
5, 148512, Note_off_c, 1, 74, 64
5, 148512, Note_off_c, 1, 69, 64
5, 148512, Note_off_c, 1, 65, 64
5, 148800, Note_on_c, 1, 62, 110
5, 149740, Note_off_c, 1, 62, 64
5, 150240, Note_on_c, 1, 63, 121
5, 150240, Note_on_c, 1, 68, 119
5, 151008, Note_off_c, 1, 68, 64
5, 151008, Note_off_c, 1, 63, 64
5, 151200, Note_on_c, 1, 63, 102
5, 151200, Note_on_c, 1, 68, 111
5, 151968, Note_off_c, 1, 68, 64
5, 151968, Note_off_c, 1, 63, 64
5, 152160, Note_on_c, 1, 63, 111
5, 152160, Note_on_c, 1, 68, 105
5, 152544, Note_off_c, 1, 68, 64
5, 152544, Note_off_c, 1, 63, 64
5, 152640, Note_on_c, 1, 56, 107
5, 153408, Note_off_c, 1, 56, 64
5, 153600, Note_on_c, 1, 55, 111
5, 154080, Note_on_c, 1, 63, 110
5, 154848, Note_off_c, 1, 63, 64
5, 155040, Note_on_c, 1, 62, 119
5, 155424, Note_off_c, 1, 55, 64
5, 155424, Note_off_c, 1, 62, 64
5, 155520, Note_on_c, 1, 60, 108
5, 156288, Note_off_c, 1, 60, 64
5, 156480, Note_on_c, 1, 55, 106
5, 156864, Note_off_c, 1, 55, 64
5, 156960, Note_on_c, 1, 54, 114
5, 157344, Note_off_c, 1, 54, 64
5, 157440, Note_on_c, 1, 58, 114
5, 159744, Note_off_c, 1, 58, 64
5, 160320, Note_on_c, 1, 56, 98
5, 160320, Note_on_c, 1, 60, 114
5, 160320, Note_on_c, 1, 63, 110
5, 161088, Note_off_c, 1, 63, 64
5, 161088, Note_off_c, 1, 60, 64
5, 161088, Note_off_c, 1, 56, 64
5, 161280, Note_on_c, 1, 55, 105
5, 162432, Note_off_c, 1, 55, 64
5, 162720, Note_on_c, 1, 51, 125
5, 162720, Note_on_c, 1, 55, 121
5, 163104, Note_off_c, 1, 55, 64
5, 163104, Note_off_c, 1, 51, 64
5, 163200, Note_on_c, 1, 55, 102
5, 163968, Note_off_c, 1, 55, 64
5, 164160, Note_on_c, 1, 57, 108
5, 164160, Note_on_c, 1, 60, 111
5, 164928, Note_off_c, 1, 60, 64
5, 164928, Note_off_c, 1, 57, 64
5, 165120, Note_on_c, 1, 53, 117
5, 166060, Note_off_c, 1, 53, 64
5, 166560, Note_on_c, 1, 53, 122
5, 167500, Note_off_c, 1, 53, 64
5, 168000, Note_on_c, 1, 58, 110
5, 168000, Note_on_c, 1, 62, 104
5, 168768, Note_off_c, 1, 62, 64
5, 168768, Note_off_c, 1, 58, 64
5, 168960, Note_on_c, 1, 55, 107
5, 169900, Note_off_c, 1, 55, 64
5, 170400, Note_on_c, 1, 53, 113
5, 170784, Note_off_c, 1, 53, 64
5, 170880, Note_on_c, 1, 55, 111
5, 170880, Note_on_c, 1, 58, 112
5, 170880, Note_on_c, 1, 60, 98
5, 171072, Note_off_c, 1, 60, 64
5, 171072, Note_off_c, 1, 58, 64
5, 171072, Note_off_c, 1, 55, 64
5, 171840, Note_on_c, 1, 57, 97
5, 172300, Note_off_c, 1, 57, 64
5, 172800, Note_on_c, 1, 65, 101
5, 172800, Note_on_c, 1, 67, 111
5, 172800, Note_on_c, 1, 72, 119
5, 173184, Note_off_c, 1, 72, 64
5, 173184, Note_off_c, 1, 67, 64
5, 173184, Note_off_c, 1, 65, 64
5, 173280, Note_on_c, 1, 65, 113
5, 173280, Note_on_c, 1, 70, 117
5, 173280, Note_on_c, 1, 74, 112
5, 175200, Note_off_c, 1, 74, 64
5, 175200, Note_off_c, 1, 70, 64
5, 175200, Note_off_c, 1, 65, 64
5, 175680, Note_on_c, 1, 63, 116
5, 175680, Note_on_c, 1, 67, 109
5, 176448, Note_off_c, 1, 67, 64
5, 176448, Note_off_c, 1, 63, 64
5, 176640, Note_on_c, 1, 63, 109
5, 176640, Note_on_c, 1, 67, 105
5, 176640, Note_on_c, 1, 72, 110
5, 177024, Note_off_c, 1, 72, 64
5, 177024, Note_off_c, 1, 67, 64
5, 177024, Note_off_c, 1, 63, 64
5, 177120, Note_on_c, 1, 67, 110
5, 177120, Note_on_c, 1, 70, 122
5, 177120, Note_on_c, 1, 74, 98
5, 179040, Note_off_c, 1, 74, 64
5, 179040, Note_off_c, 1, 70, 64
5, 179040, Note_off_c, 1, 67, 64
5, 179520, Note_on_c, 1, 63, 108
5, 180288, Note_off_c, 1, 63, 64
5, 180480, Note_on_c, 1, 67, 114
5, 180480, Note_on_c, 1, 70, 104
5, 180480, Note_on_c, 1, 75, 110
5, 180736, Note_off_c, 1, 75, 64
5, 180736, Note_off_c, 1, 70, 64
5, 180736, Note_off_c, 1, 67, 64
5, 180800, Note_on_c, 1, 65, 116
5, 180800, Note_on_c, 1, 70, 99
5, 180800, Note_on_c, 1, 74, 113
5, 181056, Note_off_c, 1, 74, 64
5, 181056, Note_off_c, 1, 70, 64
5, 181056, Note_off_c, 1, 65, 64
5, 181120, Note_on_c, 1, 63, 107
5, 181120, Note_on_c, 1, 67, 121
5, 181120, Note_on_c, 1, 72, 96
5, 181376, Note_off_c, 1, 72, 64
5, 181376, Note_off_c, 1, 67, 64
5, 181376, Note_off_c, 1, 63, 64
5, 181440, Note_on_c, 1, 67, 110
5, 181440, Note_on_c, 1, 70, 110
5, 181440, Note_on_c, 1, 75, 110
5, 181824, Note_off_c, 1, 75, 64
5, 181824, Note_off_c, 1, 70, 64
5, 181824, Note_off_c, 1, 67, 64
5, 181920, Note_on_c, 1, 65, 99
5, 181920, Note_on_c, 1, 70, 109
5, 181920, Note_on_c, 1, 74, 104
5, 182304, Note_off_c, 1, 74, 64
5, 182304, Note_off_c, 1, 70, 64
5, 182304, Note_off_c, 1, 65, 64
5, 182400, Note_on_c, 1, 63, 116
5, 182400, Note_on_c, 1, 67, 110
5, 182400, Note_on_c, 1, 70, 114
5, 183168, Note_off_c, 1, 70, 64
5, 183168, Note_off_c, 1, 67, 64
5, 183168, Note_off_c, 1, 63, 64
5, 183360, Note_on_c, 1, 63, 110
5, 183360, Note_on_c, 1, 67, 120
5, 183360, Note_on_c, 1, 70, 103
5, 184128, Note_off_c, 1, 70, 64
5, 184128, Note_off_c, 1, 67, 64
5, 184128, Note_off_c, 1, 63, 64
5, 184320, Note_on_c, 1, 60, 111
5, 184704, Note_off_c, 1, 60, 64
5, 184800, Note_on_c, 1, 62, 103
5, 185184, Note_off_c, 1, 62, 64
5, 185280, Note_on_c, 1, 72, 111
5, 185280, Note_on_c, 1, 65, 123
5, 185472, Note_off_c, 1, 72, 64
5, 185520, Note_on_c, 1, 70, 102
5, 185520, Note_on_c, 1, 74, 113
5, 185712, Note_off_c, 1, 74, 64
5, 185712, Note_off_c, 1, 70, 64
5, 185760, Note_on_c, 1, 69, 125
5, 185760, Note_on_c, 1, 72, 118
5, 185952, Note_off_c, 1, 72, 64
5, 185952, Note_off_c, 1, 69, 64
5, 186000, Note_on_c, 1, 67, 112
5, 186000, Note_on_c, 1, 70, 120
5, 186144, Note_off_c, 1, 65, 64
5, 186192, Note_off_c, 1, 67, 64
5, 186192, Note_off_c, 1, 70, 64
5, 186240, Note_on_c, 1, 65, 111
5, 186240, Note_on_c, 1, 67, 110
5, 186240, Note_on_c, 1, 72, 113
5, 186624, Note_off_c, 1, 72, 64
5, 186624, Note_off_c, 1, 67, 64
5, 186720, Note_on_c, 1, 70, 123
5, 186720, Note_on_c, 1, 74, 97
5, 187584, Note_off_c, 1, 74, 64
5, 187584, Note_off_c, 1, 65, 64
5, 187584, Note_off_c, 1, 70, 64
5, 187584, End_track
6, 0, Start_track
6, 0, Title_t, "Piano   (BB)"
6, 0, MIDI_port, 0
6, 0, Channel_prefix, 2
6, 0, Control_c, 2, 7, 67
6, 0, Control_c, 2, 10, 112
6, 0, Control_c, 2, 91, 44
6, 0, Control_c, 2, 93, 64
6, 0, Program_c, 2, 0
6, 0, Control_c, 2, 123, 0
6, 0, Control_c, 2, 64, 0
6, 3856, Control_c, 2, 64, 127
6, 3856, Note_on_c, 2, 39, 121
6, 4160, Note_on_c, 2, 55, 79
6, 4320, Note_on_c, 2, 58, 121
6, 4480, Note_on_c, 2, 63, 113
6, 4616, Control_c, 2, 64, 0
6, 4640, Note_on_c, 2, 67, 125
6, 4800, Note_off_c, 2, 67, 64
6, 4800, Note_off_c, 2, 63, 64
6, 4800, Note_off_c, 2, 58, 64
6, 4800, Note_off_c, 2, 55, 64
6, 4800, Note_off_c, 2, 39, 64
6, 4800, Note_on_c, 2, 67, 113
6, 4800, Note_on_c, 2, 63, 109
6, 4800, Note_on_c, 2, 58, 107
6, 5120, Note_on_c, 2, 39, 88
6, 5128, Note_off_c, 2, 58, 64
6, 5128, Note_off_c, 2, 63, 64
6, 5128, Note_off_c, 2, 67, 64
6, 5280, Note_off_c, 2, 39, 64
6, 5280, Note_on_c, 2, 46, 110
6, 5280, Note_on_c, 2, 62, 108
6, 5280, Note_on_c, 2, 58, 120
6, 5280, Note_on_c, 2, 53, 112
6, 5280, Note_on_c, 2, 34, 103
6, 5760, Note_off_c, 2, 34, 64
6, 5760, Note_off_c, 2, 53, 64
6, 5760, Note_off_c, 2, 58, 64
6, 5760, Note_off_c, 2, 62, 64
6, 5760, Note_off_c, 2, 46, 64
6, 5760, Note_on_c, 2, 58, 105
6, 5760, Note_on_c, 2, 60, 113
6, 5760, Note_on_c, 2, 55, 125
6, 5760, Note_on_c, 2, 63, 106
6, 5760, Note_on_c, 2, 36, 109
6, 5792, Control_c, 2, 64, 127
6, 5932, Note_off_c, 2, 63, 64
6, 5944, Note_off_c, 2, 60, 64
6, 5944, Note_off_c, 2, 58, 64
6, 5948, Note_off_c, 2, 55, 64
6, 6080, Note_on_c, 2, 48, 65
6, 6192, Note_off_c, 2, 48, 64
6, 6240, Note_on_c, 2, 55, 109
6, 6240, Note_on_c, 2, 58, 99
6, 6240, Note_on_c, 2, 60, 111
6, 6240, Note_on_c, 2, 63, 114
6, 6356, Note_off_c, 2, 36, 64
6, 6412, Note_off_c, 2, 55, 64
6, 6420, Note_off_c, 2, 58, 64
6, 6420, Note_off_c, 2, 63, 64
6, 6424, Note_off_c, 2, 60, 64
6, 6560, Note_on_c, 2, 36, 93
6, 6720, Note_on_c, 2, 48, 127
6, 6880, Note_on_c, 2, 58, 109
6, 7040, Note_on_c, 2, 63, 114
6, 7200, Note_on_c, 2, 60, 106
6, 7228, Note_off_c, 2, 58, 64
6, 7360, Note_on_c, 2, 58, 85
6, 7408, Note_off_c, 2, 63, 64
6, 7520, Note_on_c, 2, 63, 103
6, 7520, Note_on_c, 2, 67, 127
6, 7552, Control_c, 2, 64, 0
6, 7596, Note_off_c, 2, 36, 64
6, 7680, Note_off_c, 2, 48, 64
6, 7680, Note_off_c, 2, 60, 64
6, 7680, Note_off_c, 2, 58, 64
6, 7680, Note_off_c, 2, 63, 64
6, 7680, Note_off_c, 2, 67, 64
6, 7680, Note_on_c, 2, 62, 82
6, 7680, Note_on_c, 2, 58, 89
6, 7680, Note_on_c, 2, 53, 97
6, 7680, Note_on_c, 2, 34, 112
6, 7708, Control_c, 2, 64, 127
6, 7828, Note_off_c, 2, 53, 64
6, 7828, Note_off_c, 2, 58, 64
6, 7828, Note_off_c, 2, 62, 64
6, 8000, Note_on_c, 2, 46, 83
6, 8072, Control_c, 2, 64, 0
6, 8160, Note_on_c, 2, 62, 103
6, 8160, Note_on_c, 2, 58, 105
6, 8160, Note_on_c, 2, 53, 111
6, 8208, Note_off_c, 2, 34, 64
6, 8272, Note_off_c, 2, 62, 64
6, 8272, Note_off_c, 2, 58, 64
6, 8272, Note_off_c, 2, 53, 64
6, 8320, Note_on_c, 2, 58, 120
6, 8320, Note_on_c, 2, 63, 103
6, 8320, Note_on_c, 2, 55, 106
6, 8424, Note_off_c, 2, 55, 64
6, 8424, Note_off_c, 2, 63, 64
6, 8424, Note_off_c, 2, 58, 64
6, 8432, Note_off_c, 2, 46, 64
6, 8656, Control_c, 2, 64, 127
6, 8656, Note_on_c, 2, 43, 109
6, 8960, Note_on_c, 2, 58, 81
6, 9120, Note_on_c, 2, 62, 99
6, 9280, Note_on_c, 2, 65, 111
6, 9416, Control_c, 2, 64, 0
6, 9440, Note_on_c, 2, 67, 122
6, 9600, Note_off_c, 2, 67, 64
6, 9600, Note_off_c, 2, 65, 64
6, 9600, Note_off_c, 2, 62, 64
6, 9600, Note_off_c, 2, 58, 64
6, 9600, Note_off_c, 2, 43, 64
6, 9600, Note_on_c, 2, 48, 89
6, 9600, Note_on_c, 2, 36, 96
6, 9760, Note_on_c, 2, 63, 97
6, 9760, Note_on_c, 2, 60, 79
6, 9760, Note_on_c, 2, 58, 88
6, 9760, Note_on_c, 2, 67, 77
6, 9804, Note_off_c, 2, 48, 64
6, 9808, Note_off_c, 2, 36, 64
6, 9896, Note_off_c, 2, 63, 64
6, 9896, Note_off_c, 2, 60, 64
6, 9896, Note_off_c, 2, 58, 64
6, 9896, Note_off_c, 2, 67, 64
6, 9920, Note_on_c, 2, 48, 89
6, 9920, Note_on_c, 2, 36, 63
6, 9992, Note_off_c, 2, 36, 64
6, 10016, Note_off_c, 2, 48, 64
6, 10080, Note_on_c, 2, 63, 127
6, 10080, Note_on_c, 2, 60, 127
6, 10080, Note_on_c, 2, 58, 125
6, 10080, Note_on_c, 2, 67, 127
6, 10384, Note_off_c, 2, 67, 64
6, 10384, Note_off_c, 2, 58, 64
6, 10384, Note_off_c, 2, 60, 64
6, 10384, Note_off_c, 2, 63, 64
6, 10400, Note_on_c, 2, 36, 92
6, 10400, Note_on_c, 2, 48, 101
6, 10560, Note_off_c, 2, 48, 64
6, 10560, Note_off_c, 2, 36, 64
6, 10576, Control_c, 2, 64, 127
6, 10576, Note_on_c, 2, 41, 108
6, 10880, Note_on_c, 2, 57, 84
6, 11040, Note_on_c, 2, 60, 111
6, 11200, Note_on_c, 2, 63, 118
6, 11336, Control_c, 2, 64, 0
6, 11360, Note_on_c, 2, 65, 127
6, 11520, Note_off_c, 2, 65, 64
6, 11520, Note_off_c, 2, 63, 64
6, 11520, Note_off_c, 2, 60, 64
6, 11520, Note_off_c, 2, 57, 64
6, 11520, Note_off_c, 2, 41, 64
6, 11520, Note_on_c, 2, 34, 112
6, 11520, Note_on_c, 2, 46, 112
6, 11520, Note_on_c, 2, 53, 102
6, 11524, Note_on_c, 2, 62, 102
6, 11524, Note_on_c, 2, 65, 104
6, 13440, Note_off_c, 2, 65, 64
6, 13440, Note_off_c, 2, 62, 64
6, 13440, Note_off_c, 2, 53, 64
6, 13440, Note_off_c, 2, 46, 64
6, 13440, Note_off_c, 2, 34, 64
6, 13440, Note_on_c, 2, 65, 126
6, 13440, Note_on_c, 2, 62, 127
6, 13440, Note_on_c, 2, 58, 127
6, 14212, Note_off_c, 2, 58, 64
6, 14212, Note_off_c, 2, 62, 64
6, 14212, Note_off_c, 2, 65, 64
6, 14240, Note_on_c, 2, 46, 98
6, 14240, Note_on_c, 2, 34, 101
6, 14400, Note_off_c, 2, 34, 64
6, 14400, Note_off_c, 2, 46, 64
6, 14436, Note_on_c, 2, 41, 82
6, 14576, Note_off_c, 2, 41, 64
6, 14576, Note_on_c, 2, 65, 108
6, 14576, Note_on_c, 2, 63, 119
6, 14576, Note_on_c, 2, 60, 118
6, 14576, Note_on_c, 2, 69, 116
6, 14664, Note_off_c, 2, 69, 64
6, 14664, Note_off_c, 2, 60, 64
6, 14664, Note_off_c, 2, 63, 64
6, 14664, Note_off_c, 2, 65, 64
6, 14904, Note_on_c, 2, 65, 121
6, 14904, Note_on_c, 2, 63, 118
6, 14904, Note_on_c, 2, 60, 113
6, 14904, Note_on_c, 2, 69, 119
6, 15360, Note_off_c, 2, 69, 64
6, 15360, Note_off_c, 2, 60, 64
6, 15360, Note_off_c, 2, 63, 64
6, 15360, Note_off_c, 2, 65, 64
6, 15360, Note_on_c, 2, 65, 106
6, 15360, Note_on_c, 2, 62, 102
6, 15360, Note_on_c, 2, 58, 88
6, 15360, Note_on_c, 2, 34, 93
6, 15360, Note_on_c, 2, 46, 95
6, 17280, Note_off_c, 2, 46, 64
6, 17280, Note_off_c, 2, 34, 64
6, 17280, Note_off_c, 2, 58, 64
6, 17280, Note_off_c, 2, 62, 64
6, 17280, Note_off_c, 2, 65, 64
6, 17280, Note_on_c, 2, 62, 111
6, 17280, Note_on_c, 2, 58, 99
6, 17280, Note_on_c, 2, 53, 99
6, 17280, Note_on_c, 2, 34, 104
6, 17280, Note_on_c, 2, 46, 91
6, 18240, Note_off_c, 2, 46, 64
6, 18240, Note_off_c, 2, 34, 64
6, 18240, Note_off_c, 2, 53, 64
6, 18240, Note_off_c, 2, 58, 64
6, 18240, Note_off_c, 2, 62, 64
6, 18240, Note_on_c, 2, 63, 117
6, 18240, Note_on_c, 2, 60, 105
6, 18240, Note_on_c, 2, 58, 122
6, 18240, Note_on_c, 2, 67, 115
6, 18560, Note_on_c, 2, 48, 89
6, 18560, Note_on_c, 2, 36, 98
6, 18568, Note_off_c, 2, 67, 64
6, 18568, Note_off_c, 2, 58, 64
6, 18568, Note_off_c, 2, 60, 64
6, 18568, Note_off_c, 2, 63, 64
6, 18720, Note_off_c, 2, 48, 64
6, 18720, Note_off_c, 2, 36, 64
6, 18720, Note_on_c, 2, 41, 103
6, 18720, Note_on_c, 2, 65, 117
6, 18720, Note_on_c, 2, 63, 113
6, 18720, Note_on_c, 2, 60, 103
6, 18720, Note_on_c, 2, 69, 115
6, 19200, Note_off_c, 2, 69, 64
6, 19200, Note_off_c, 2, 60, 64
6, 19200, Note_off_c, 2, 63, 64
6, 19200, Note_off_c, 2, 65, 64
6, 19200, Note_off_c, 2, 41, 64
6, 19236, Note_on_c, 2, 39, 72
6, 19376, Note_off_c, 2, 39, 64
6, 19376, Note_on_c, 2, 63, 127
6, 19376, Note_on_c, 2, 58, 116
6, 19376, Note_on_c, 2, 55, 114
6, 19464, Note_off_c, 2, 55, 64
6, 19464, Note_off_c, 2, 58, 64
6, 19464, Note_off_c, 2, 63, 64
6, 19704, Note_on_c, 2, 63, 114
6, 19704, Note_on_c, 2, 58, 122
6, 19704, Note_on_c, 2, 55, 122
6, 20160, Note_off_c, 2, 55, 64
6, 20160, Note_off_c, 2, 58, 64
6, 20160, Note_off_c, 2, 63, 64
6, 20160, Note_on_c, 2, 39, 112
6, 20160, Note_on_c, 2, 63, 108
6, 20160, Note_on_c, 2, 58, 118
6, 20160, Note_on_c, 2, 55, 120
6, 20640, Note_off_c, 2, 55, 64
6, 20640, Note_off_c, 2, 58, 64
6, 20640, Note_off_c, 2, 63, 64
6, 20640, Note_off_c, 2, 39, 64
6, 20640, Note_on_c, 2, 46, 81
6, 20640, Note_on_c, 2, 34, 85
6, 20960, Note_on_c, 2, 69, 104
6, 20960, Note_on_c, 2, 65, 106
6, 20960, Note_on_c, 2, 62, 101
6, 20960, Note_on_c, 2, 72, 104
6, 20980, Note_off_c, 2, 34, 64
6, 20992, Note_off_c, 2, 46, 64
6, 21120, Note_off_c, 2, 69, 64
6, 21120, Note_off_c, 2, 65, 64
6, 21120, Note_off_c, 2, 62, 64
6, 21120, Note_off_c, 2, 72, 64
6, 21120, Note_on_c, 2, 34, 127
6, 21120, Note_on_c, 2, 46, 107
6, 21120, Note_on_c, 2, 69, 106
6, 21120, Note_on_c, 2, 65, 93
6, 21120, Note_on_c, 2, 62, 104
6, 21120, Note_on_c, 2, 72, 105
6, 21404, Control_c, 2, 64, 127
6, 21556, Note_off_c, 2, 34, 64
6, 21564, Note_off_c, 2, 69, 64
6, 21564, Note_off_c, 2, 65, 64
6, 21564, Note_off_c, 2, 62, 64
6, 21564, Note_off_c, 2, 72, 64
6, 21572, Note_off_c, 2, 46, 64
6, 22216, Control_c, 2, 64, 0
6, 22240, Note_on_c, 2, 65, 112
6, 22560, Note_on_c, 2, 62, 104
6, 22588, Note_off_c, 2, 65, 64
6, 22860, Note_off_c, 2, 62, 64
6, 22880, Note_on_c, 2, 57, 101
6, 23040, Note_off_c, 2, 57, 64
6, 23040, Note_on_c, 2, 67, 106
6, 23040, Note_on_c, 2, 64, 109
6, 23040, Note_on_c, 2, 60, 89
6, 23040, Note_on_c, 2, 69, 94
6, 23040, Note_on_c, 2, 38, 112
6, 23040, Note_on_c, 2, 50, 100
6, 24960, Note_off_c, 2, 50, 64
6, 24960, Note_off_c, 2, 38, 64
6, 24960, Note_off_c, 2, 69, 64
6, 24960, Note_off_c, 2, 60, 64
6, 24960, Note_off_c, 2, 64, 64
6, 24960, Note_off_c, 2, 67, 64
6, 24960, Note_on_c, 2, 38, 107
6, 24960, Note_on_c, 2, 50, 98
6, 24960, Note_on_c, 2, 60, 94
6, 24964, Note_on_c, 2, 66, 108
6, 24964, Note_on_c, 2, 69, 108
6, 26880, Note_off_c, 2, 69, 64
6, 26880, Note_off_c, 2, 66, 64
6, 26880, Note_off_c, 2, 60, 64
6, 26880, Note_off_c, 2, 50, 64
6, 26880, Note_off_c, 2, 38, 64
6, 26880, Note_on_c, 2, 62, 104
6, 26880, Note_on_c, 2, 58, 103
6, 26880, Note_on_c, 2, 55, 114
6, 26880, Note_on_c, 2, 43, 117
6, 27092, Control_c, 2, 64, 127
6, 27240, Note_off_c, 2, 43, 64
6, 27328, Note_off_c, 2, 55, 64
6, 27328, Note_off_c, 2, 58, 64
6, 27328, Note_off_c, 2, 62, 64
6, 28000, Note_on_c, 2, 70, 127
6, 28008, Control_c, 2, 64, 0
6, 28640, Note_on_c, 2, 62, 97
6, 28944, Control_c, 2, 64, 127
6, 29292, Note_off_c, 2, 70, 64
6, 29352, Note_off_c, 2, 62, 64
6, 29884, Control_c, 2, 64, 0
6, 29920, Note_on_c, 2, 70, 82
6, 30080, Note_on_c, 2, 67, 95
6, 30240, Note_on_c, 2, 58, 104
6, 30644, Note_off_c, 2, 67, 64
6, 30720, Note_off_c, 2, 70, 64
6, 30720, Note_off_c, 2, 58, 64
6, 30720, Note_on_c, 2, 43, 98
6, 30720, Note_on_c, 2, 58, 108
6, 30720, Note_on_c, 2, 62, 111
6, 30720, Note_on_c, 2, 70, 111
6, 31184, Control_c, 2, 64, 127
6, 31724, Note_off_c, 2, 58, 64
6, 31784, Note_off_c, 2, 62, 64
6, 31784, Note_off_c, 2, 70, 64
6, 32000, Note_on_c, 2, 58, 81
6, 32048, Control_c, 2, 64, 0
6, 32160, Note_on_c, 2, 62, 110
6, 32480, Note_on_c, 2, 70, 101
6, 33160, Control_c, 2, 64, 127
6, 33780, Note_off_c, 2, 58, 64
6, 33864, Control_c, 2, 64, 0
6, 33876, Note_off_c, 2, 62, 64
6, 33920, Note_on_c, 2, 58, 70
6, 34080, Note_on_c, 2, 62, 127
6, 34344, Note_off_c, 2, 62, 64
6, 34356, Note_off_c, 2, 43, 64
6, 34356, Note_off_c, 2, 70, 64
6, 34356, Note_off_c, 2, 58, 64
6, 34596, Note_on_c, 2, 46, 74
6, 34604, Note_on_c, 2, 34, 83
6, 34736, Note_off_c, 2, 34, 64
6, 34736, Note_on_c, 2, 65, 118
6, 34736, Note_on_c, 2, 61, 108
6, 34736, Note_on_c, 2, 58, 110
6, 34748, Note_off_c, 2, 46, 64
6, 34824, Note_off_c, 2, 65, 64
6, 34824, Note_off_c, 2, 61, 64
6, 34824, Note_off_c, 2, 58, 64
6, 35064, Note_on_c, 2, 65, 120
6, 35064, Note_on_c, 2, 61, 122
6, 35064, Note_on_c, 2, 58, 125
6, 35520, Note_off_c, 2, 58, 64
6, 35520, Note_off_c, 2, 61, 64
6, 35520, Note_off_c, 2, 65, 64
6, 35556, Note_on_c, 2, 48, 96
6, 35564, Note_on_c, 2, 36, 83
6, 35696, Note_off_c, 2, 36, 64
6, 35696, Note_on_c, 2, 64, 127
6, 35696, Note_on_c, 2, 60, 127
6, 35696, Note_on_c, 2, 58, 112
6, 35696, Note_on_c, 2, 67, 125
6, 35708, Note_off_c, 2, 48, 64
6, 35784, Note_off_c, 2, 64, 64
6, 35784, Note_off_c, 2, 60, 64
6, 35784, Note_off_c, 2, 58, 64
6, 35784, Note_off_c, 2, 67, 64
6, 36024, Note_on_c, 2, 64, 125
6, 36024, Note_on_c, 2, 60, 114
6, 36024, Note_on_c, 2, 58, 127
6, 36024, Note_on_c, 2, 67, 107
6, 36480, Note_off_c, 2, 67, 64
6, 36480, Note_off_c, 2, 58, 64
6, 36480, Note_off_c, 2, 60, 64
6, 36480, Note_off_c, 2, 64, 64
6, 36480, Note_on_c, 2, 67, 122
6, 36480, Note_on_c, 2, 64, 123
6, 36480, Note_on_c, 2, 60, 125
6, 36480, Note_on_c, 2, 69, 127
6, 37252, Note_off_c, 2, 69, 64
6, 37252, Note_off_c, 2, 60, 64
6, 37252, Note_off_c, 2, 64, 64
6, 37252, Note_off_c, 2, 67, 64
6, 37280, Note_on_c, 2, 41, 111
6, 37440, Note_off_c, 2, 41, 64
6, 37440, Note_on_c, 2, 41, 111
6, 37440, Note_on_c, 2, 67, 112
6, 37440, Note_on_c, 2, 64, 113
6, 37440, Note_on_c, 2, 60, 112
6, 37440, Note_on_c, 2, 69, 108
6, 37920, Note_off_c, 2, 69, 64
6, 37920, Note_off_c, 2, 60, 64
6, 37920, Note_off_c, 2, 64, 64
6, 37920, Note_off_c, 2, 67, 64
6, 37920, Note_off_c, 2, 41, 64
6, 37920, Note_on_c, 2, 65, 126
6, 37920, Note_on_c, 2, 62, 102
6, 37920, Note_on_c, 2, 60, 127
6, 37920, Note_on_c, 2, 69, 113
6, 38240, Note_on_c, 2, 41, 92
6, 38248, Note_off_c, 2, 69, 64
6, 38248, Note_off_c, 2, 60, 64
6, 38248, Note_off_c, 2, 62, 64
6, 38248, Note_off_c, 2, 65, 64
6, 38400, Note_off_c, 2, 41, 64
6, 38436, Note_on_c, 2, 43, 96
6, 38576, Note_off_c, 2, 43, 64
6, 38576, Note_on_c, 2, 62, 127
6, 38576, Note_on_c, 2, 59, 115
6, 38576, Note_on_c, 2, 55, 112
6, 38664, Note_off_c, 2, 55, 64
6, 38664, Note_off_c, 2, 59, 64
6, 38664, Note_off_c, 2, 62, 64
6, 38904, Note_on_c, 2, 62, 127
6, 38904, Note_on_c, 2, 59, 112
6, 38904, Note_on_c, 2, 55, 117
6, 39360, Note_off_c, 2, 55, 64
6, 39360, Note_off_c, 2, 59, 64
6, 39360, Note_off_c, 2, 62, 64
6, 39360, Note_on_c, 2, 67, 113
6, 39360, Note_on_c, 2, 65, 117
6, 39360, Note_on_c, 2, 61, 113
6, 39360, Note_on_c, 2, 70, 113
6, 39680, Note_on_c, 2, 46, 83
6, 39680, Note_on_c, 2, 34, 106
6, 39688, Note_off_c, 2, 70, 64
6, 39688, Note_off_c, 2, 61, 64
6, 39688, Note_off_c, 2, 65, 64
6, 39688, Note_off_c, 2, 67, 64
6, 39840, Note_off_c, 2, 46, 64
6, 39840, Note_off_c, 2, 34, 64
6, 39840, Note_on_c, 2, 64, 108
6, 39840, Note_on_c, 2, 61, 105
6, 39840, Note_on_c, 2, 58, 103
6, 39840, Note_on_c, 2, 67, 113
6, 40160, Note_on_c, 2, 43, 87
6, 40168, Note_off_c, 2, 67, 64
6, 40168, Note_off_c, 2, 58, 64
6, 40168, Note_off_c, 2, 61, 64
6, 40168, Note_off_c, 2, 64, 64
6, 40320, Note_off_c, 2, 43, 64
6, 40356, Note_on_c, 2, 41, 81
6, 40496, Note_off_c, 2, 41, 64
6, 40496, Note_on_c, 2, 65, 107
6, 40496, Note_on_c, 2, 60, 114
6, 40496, Note_on_c, 2, 57, 120
6, 40584, Note_off_c, 2, 57, 64
6, 40584, Note_off_c, 2, 60, 64
6, 40584, Note_off_c, 2, 65, 64
6, 40824, Note_on_c, 2, 65, 110
6, 40824, Note_on_c, 2, 60, 127
6, 40824, Note_on_c, 2, 57, 127
6, 41280, Note_off_c, 2, 57, 64
6, 41280, Note_off_c, 2, 60, 64
6, 41280, Note_off_c, 2, 65, 64
6, 41280, Note_on_c, 2, 65, 109
6, 41280, Note_on_c, 2, 62, 85
6, 41280, Note_on_c, 2, 59, 97
6, 41280, Note_on_c, 2, 68, 85
6, 41280, Note_on_c, 2, 41, 102
6, 42240, Note_off_c, 2, 41, 64
6, 42240, Note_off_c, 2, 68, 64
6, 42240, Note_off_c, 2, 59, 64
6, 42240, Note_off_c, 2, 62, 64
6, 42240, Note_off_c, 2, 65, 64
6, 42240, Note_on_c, 2, 67, 115
6, 42240, Note_on_c, 2, 58, 96
6, 42240, Note_on_c, 2, 43, 99
6, 42240, Note_on_c, 2, 65, 122
6, 42336, Control_c, 2, 64, 127
6, 42760, Note_off_c, 2, 58, 64
6, 42840, Note_off_c, 2, 43, 64
6, 42988, Note_off_c, 2, 67, 64
6, 43012, Note_off_c, 2, 65, 64
6, 43360, Note_on_c, 2, 43, 82
6, 43580, Control_c, 2, 64, 0
6, 43680, Note_on_c, 2, 58, 99
6, 43840, Note_on_c, 2, 65, 109
6, 44000, Note_on_c, 2, 67, 121
6, 44160, Note_off_c, 2, 67, 64
6, 44160, Note_off_c, 2, 65, 64
6, 44160, Note_off_c, 2, 58, 64
6, 44160, Note_off_c, 2, 43, 64
6, 44160, Note_on_c, 2, 43, 67
6, 44480, Note_on_c, 2, 70, 116
6, 44480, Note_on_c, 2, 67, 93
6, 44480, Note_on_c, 2, 65, 112
6, 44480, Note_on_c, 2, 74, 110
6, 44500, Note_off_c, 2, 43, 64
6, 44640, Note_off_c, 2, 70, 64
6, 44640, Note_off_c, 2, 67, 64
6, 44640, Note_off_c, 2, 65, 64
6, 44640, Note_off_c, 2, 74, 64
6, 44640, Note_on_c, 2, 48, 90
6, 44640, Note_on_c, 2, 36, 79
6, 44960, Note_on_c, 2, 64, 102
6, 44960, Note_on_c, 2, 60, 92
6, 44960, Note_on_c, 2, 58, 102
6, 44960, Note_on_c, 2, 67, 104
6, 44980, Note_off_c, 2, 36, 64
6, 44992, Note_off_c, 2, 48, 64
6, 45120, Note_off_c, 2, 64, 64
6, 45120, Note_off_c, 2, 60, 64
6, 45120, Note_off_c, 2, 58, 64
6, 45120, Note_off_c, 2, 67, 64
6, 45120, Note_on_c, 2, 64, 110
6, 45120, Note_on_c, 2, 60, 126
6, 45120, Note_on_c, 2, 58, 123
6, 45120, Note_on_c, 2, 67, 127
6, 45892, Note_off_c, 2, 67, 64
6, 45892, Note_off_c, 2, 58, 64
6, 45892, Note_off_c, 2, 60, 64
6, 45892, Note_off_c, 2, 64, 64
6, 45920, Note_on_c, 2, 48, 105
6, 45920, Note_on_c, 2, 36, 93
6, 46080, Note_off_c, 2, 36, 64
6, 46080, Note_off_c, 2, 48, 64
6, 46080, Note_on_c, 2, 64, 117
6, 46080, Note_on_c, 2, 59, 113
6, 46080, Note_on_c, 2, 56, 117
6, 46400, Note_on_c, 2, 40, 88
6, 46408, Note_off_c, 2, 56, 64
6, 46408, Note_off_c, 2, 59, 64
6, 46408, Note_off_c, 2, 64, 64
6, 46560, Note_off_c, 2, 40, 64
6, 46560, Note_on_c, 2, 41, 103
6, 46560, Note_on_c, 2, 65, 113
6, 46560, Note_on_c, 2, 63, 112
6, 46560, Note_on_c, 2, 60, 111
6, 46560, Note_on_c, 2, 69, 110
6, 47040, Note_off_c, 2, 69, 64
6, 47040, Note_off_c, 2, 60, 64
6, 47040, Note_off_c, 2, 63, 64
6, 47040, Note_off_c, 2, 65, 64
6, 47040, Note_off_c, 2, 41, 64
6, 47040, Note_on_c, 2, 43, 89
6, 47200, Note_on_c, 2, 65, 103
6, 47200, Note_on_c, 2, 62, 90
6, 47200, Note_on_c, 2, 58, 86
6, 47200, Note_on_c, 2, 67, 81
6, 47244, Note_off_c, 2, 43, 64
6, 47336, Note_off_c, 2, 65, 64
6, 47336, Note_off_c, 2, 62, 64
6, 47336, Note_off_c, 2, 58, 64
6, 47336, Note_off_c, 2, 67, 64
6, 47360, Note_on_c, 2, 43, 72
6, 47432, Note_off_c, 2, 43, 64
6, 47520, Note_on_c, 2, 65, 119
6, 47520, Note_on_c, 2, 62, 127
6, 47520, Note_on_c, 2, 58, 115
6, 47520, Note_on_c, 2, 67, 115
6, 47824, Note_off_c, 2, 67, 64
6, 47824, Note_off_c, 2, 58, 64
6, 47824, Note_off_c, 2, 62, 64
6, 47824, Note_off_c, 2, 65, 64
6, 47840, Note_on_c, 2, 43, 99
6, 48000, Note_off_c, 2, 43, 64
6, 48000, Note_on_c, 2, 43, 84
6, 48160, Note_on_c, 2, 65, 86
6, 48160, Note_on_c, 2, 62, 75
6, 48160, Note_on_c, 2, 58, 77
6, 48160, Note_on_c, 2, 67, 101
6, 48204, Note_off_c, 2, 43, 64
6, 48296, Note_off_c, 2, 65, 64
6, 48296, Note_off_c, 2, 62, 64
6, 48296, Note_off_c, 2, 58, 64
6, 48296, Note_off_c, 2, 67, 64
6, 48320, Note_on_c, 2, 43, 74
6, 48392, Note_off_c, 2, 43, 64
6, 48480, Note_on_c, 2, 65, 127
6, 48480, Note_on_c, 2, 62, 127
6, 48480, Note_on_c, 2, 58, 124
6, 48480, Note_on_c, 2, 67, 127
6, 48784, Note_off_c, 2, 67, 64
6, 48784, Note_off_c, 2, 58, 64
6, 48784, Note_off_c, 2, 62, 64
6, 48784, Note_off_c, 2, 65, 64
6, 48800, Note_on_c, 2, 43, 84
6, 48960, Note_off_c, 2, 43, 64
6, 48960, Note_on_c, 2, 67, 127
6, 48960, Note_on_c, 2, 63, 125
6, 48960, Note_on_c, 2, 60, 124
6, 48960, Note_on_c, 2, 69, 127
6, 49732, Note_off_c, 2, 69, 64
6, 49732, Note_off_c, 2, 60, 64
6, 49732, Note_off_c, 2, 63, 64
6, 49732, Note_off_c, 2, 67, 64
6, 49760, Note_on_c, 2, 41, 88
6, 49920, Note_off_c, 2, 41, 64
6, 49920, Note_on_c, 2, 46, 107
6, 49920, Note_on_c, 2, 34, 112
6, 49920, Note_on_c, 2, 65, 96
6, 49920, Note_on_c, 2, 58, 123
6, 49920, Note_on_c, 2, 53, 105
6, 50072, Control_c, 2, 64, 127
6, 50312, Note_off_c, 2, 53, 64
6, 50320, Note_off_c, 2, 58, 64
6, 50336, Note_off_c, 2, 65, 64
6, 50720, Note_on_c, 2, 53, 74
6, 50776, Note_off_c, 2, 53, 64
6, 50880, Note_on_c, 2, 58, 95
6, 51352, Control_c, 2, 64, 0
6, 51360, Note_on_c, 2, 65, 93
6, 51360, Note_on_c, 2, 53, 77
6, 51748, Note_off_c, 2, 53, 64
6, 51748, Note_off_c, 2, 65, 64
6, 51748, Note_off_c, 2, 58, 64
6, 51840, Note_off_c, 2, 34, 64
6, 51840, Note_off_c, 2, 46, 64
6, 51840, Note_on_c, 2, 65, 104
6, 51840, Note_on_c, 2, 62, 101
6, 51840, Note_on_c, 2, 58, 98
6, 51840, Note_on_c, 2, 34, 91
6, 51840, Note_on_c, 2, 46, 106
6, 52800, Note_off_c, 2, 46, 64
6, 52800, Note_off_c, 2, 34, 64
6, 52800, Note_off_c, 2, 58, 64
6, 52800, Note_off_c, 2, 62, 64
6, 52800, Note_off_c, 2, 65, 64
6, 52800, Note_on_c, 2, 41, 84
6, 52960, Note_on_c, 2, 65, 95
6, 52960, Note_on_c, 2, 63, 92
6, 52960, Note_on_c, 2, 60, 92
6, 52960, Note_on_c, 2, 69, 90
6, 53004, Note_off_c, 2, 41, 64
6, 53096, Note_off_c, 2, 65, 64
6, 53096, Note_off_c, 2, 63, 64
6, 53096, Note_off_c, 2, 60, 64
6, 53096, Note_off_c, 2, 69, 64
6, 53120, Note_on_c, 2, 41, 69
6, 53192, Note_off_c, 2, 41, 64
6, 53280, Note_on_c, 2, 65, 127
6, 53280, Note_on_c, 2, 63, 115
6, 53280, Note_on_c, 2, 60, 127
6, 53280, Note_on_c, 2, 69, 127
6, 53584, Note_off_c, 2, 69, 64
6, 53584, Note_off_c, 2, 60, 64
6, 53584, Note_off_c, 2, 63, 64
6, 53584, Note_off_c, 2, 65, 64
6, 53600, Note_on_c, 2, 41, 103
6, 53760, Note_off_c, 2, 41, 64
6, 53760, Note_on_c, 2, 34, 122
6, 53760, Note_on_c, 2, 46, 117
6, 53760, Note_on_c, 2, 65, 101
6, 53760, Note_on_c, 2, 62, 107
6, 53760, Note_on_c, 2, 58, 92
6, 54044, Control_c, 2, 64, 127
6, 54196, Note_off_c, 2, 34, 64
6, 54204, Note_off_c, 2, 65, 64
6, 54204, Note_off_c, 2, 62, 64
6, 54204, Note_off_c, 2, 58, 64
6, 54212, Note_off_c, 2, 46, 64
6, 54856, Control_c, 2, 64, 0
6, 54880, Note_on_c, 2, 65, 119
6, 55200, Note_on_c, 2, 62, 105
6, 55228, Note_off_c, 2, 65, 64
6, 55500, Note_off_c, 2, 62, 64
6, 55520, Note_on_c, 2, 53, 107
6, 55680, Note_off_c, 2, 53, 64
6, 55680, Note_on_c, 2, 65, 114
6, 55680, Note_on_c, 2, 62, 126
6, 55680, Note_on_c, 2, 58, 127
6, 56452, Note_off_c, 2, 58, 64
6, 56452, Note_off_c, 2, 62, 64
6, 56452, Note_off_c, 2, 65, 64
6, 56480, Note_on_c, 2, 46, 109
6, 56480, Note_on_c, 2, 34, 88
6, 56640, Note_off_c, 2, 34, 64
6, 56640, Note_off_c, 2, 46, 64
6, 56640, Note_on_c, 2, 63, 113
6, 56640, Note_on_c, 2, 60, 106
6, 56640, Note_on_c, 2, 58, 99
6, 56640, Note_on_c, 2, 67, 125
6, 56960, Note_on_c, 2, 48, 89
6, 56960, Note_on_c, 2, 36, 97
6, 56968, Note_off_c, 2, 67, 64
6, 56968, Note_off_c, 2, 58, 64
6, 56968, Note_off_c, 2, 60, 64
6, 56968, Note_off_c, 2, 63, 64
6, 57120, Note_off_c, 2, 48, 64
6, 57120, Note_off_c, 2, 36, 64
6, 57120, Note_on_c, 2, 41, 104
6, 57120, Note_on_c, 2, 65, 111
6, 57120, Note_on_c, 2, 63, 121
6, 57120, Note_on_c, 2, 60, 119
6, 57120, Note_on_c, 2, 69, 107
6, 57600, Note_off_c, 2, 69, 64
6, 57600, Note_off_c, 2, 60, 64
6, 57600, Note_off_c, 2, 63, 64
6, 57600, Note_off_c, 2, 65, 64
6, 57600, Note_off_c, 2, 41, 64
6, 57600, Note_on_c, 2, 63, 125
6, 57600, Note_on_c, 2, 58, 123
6, 57600, Note_on_c, 2, 55, 127
6, 58372, Note_off_c, 2, 55, 64
6, 58372, Note_off_c, 2, 58, 64
6, 58372, Note_off_c, 2, 63, 64
6, 58400, Note_on_c, 2, 39, 96
6, 58560, Note_off_c, 2, 39, 64
6, 58560, Note_on_c, 2, 67, 113
6, 58560, Note_on_c, 2, 63, 113
6, 58560, Note_on_c, 2, 58, 116
6, 58880, Note_on_c, 2, 39, 100
6, 58888, Note_off_c, 2, 58, 64
6, 58888, Note_off_c, 2, 63, 64
6, 58888, Note_off_c, 2, 67, 64
6, 59040, Note_off_c, 2, 39, 64
6, 59040, Note_on_c, 2, 46, 73
6, 59040, Note_on_c, 2, 34, 74
6, 59360, Note_on_c, 2, 69, 105
6, 59360, Note_on_c, 2, 65, 102
6, 59360, Note_on_c, 2, 62, 96
6, 59360, Note_on_c, 2, 72, 102
6, 59380, Note_off_c, 2, 34, 64
6, 59392, Note_off_c, 2, 46, 64
6, 59520, Note_off_c, 2, 69, 64
6, 59520, Note_off_c, 2, 65, 64
6, 59520, Note_off_c, 2, 62, 64
6, 59520, Note_off_c, 2, 72, 64
6, 59520, Note_on_c, 2, 46, 109
6, 59520, Note_on_c, 2, 34, 125
6, 59520, Note_on_c, 2, 62, 102
6, 59520, Note_on_c, 2, 57, 111
6, 59520, Note_on_c, 2, 53, 98
6, 59672, Control_c, 2, 64, 127
6, 59912, Note_off_c, 2, 53, 64
6, 59920, Note_off_c, 2, 57, 64
6, 59936, Note_off_c, 2, 62, 64
6, 60320, Note_on_c, 2, 53, 74
6, 60376, Note_off_c, 2, 53, 64
6, 60480, Note_on_c, 2, 57, 102
6, 60952, Control_c, 2, 64, 0
6, 60960, Note_on_c, 2, 62, 89
6, 60960, Note_on_c, 2, 53, 75
6, 61348, Note_off_c, 2, 53, 64
6, 61348, Note_off_c, 2, 62, 64
6, 61348, Note_off_c, 2, 57, 64
6, 61440, Note_off_c, 2, 34, 64
6, 61440, Note_off_c, 2, 46, 64
6, 61440, Note_on_c, 2, 63, 118
6, 61440, Note_on_c, 2, 53, 92
6, 61440, Note_on_c, 2, 56, 101
6, 61440, Note_on_c, 2, 41, 95
6, 61516, Control_c, 2, 64, 127
6, 61652, Note_off_c, 2, 56, 64
6, 61660, Note_off_c, 2, 63, 64
6, 61680, Note_off_c, 2, 53, 64
6, 61920, Note_on_c, 2, 63, 108
6, 61920, Note_on_c, 2, 56, 120
6, 61920, Note_on_c, 2, 53, 124
6, 62032, Note_off_c, 2, 41, 64
6, 62056, Note_off_c, 2, 53, 64
6, 62060, Note_off_c, 2, 56, 64
6, 62088, Note_off_c, 2, 63, 64
6, 62208, Control_c, 2, 64, 0
6, 62240, Note_on_c, 2, 41, 120
6, 62400, Note_on_c, 2, 60, 105
6, 62400, Note_on_c, 2, 65, 107
6, 62400, Note_on_c, 2, 55, 102
6, 62428, Control_c, 2, 64, 127
6, 62524, Note_off_c, 2, 65, 64
6, 62560, Note_off_c, 2, 60, 64
6, 62576, Note_off_c, 2, 55, 64
6, 62836, Control_c, 2, 64, 0
6, 62880, Note_on_c, 2, 65, 123
6, 62880, Note_on_c, 2, 60, 111
6, 62880, Note_on_c, 2, 56, 109
6, 63124, Note_off_c, 2, 60, 64
6, 63124, Note_off_c, 2, 65, 64
6, 63128, Note_off_c, 2, 56, 64
6, 63216, Note_off_c, 2, 41, 64
6, 63396, Note_on_c, 2, 41, 89
6, 63536, Note_off_c, 2, 41, 64
6, 63536, Note_on_c, 2, 65, 104
6, 63536, Note_on_c, 2, 63, 121
6, 63536, Note_on_c, 2, 60, 110
6, 63536, Note_on_c, 2, 68, 106
6, 63624, Note_off_c, 2, 68, 64
6, 63624, Note_off_c, 2, 60, 64
6, 63624, Note_off_c, 2, 63, 64
6, 63624, Note_off_c, 2, 65, 64
6, 63864, Note_on_c, 2, 65, 124
6, 63864, Note_on_c, 2, 63, 120
6, 63864, Note_on_c, 2, 60, 119
6, 63864, Note_on_c, 2, 68, 126
6, 64320, Note_off_c, 2, 68, 64
6, 64320, Note_off_c, 2, 60, 64
6, 64320, Note_off_c, 2, 63, 64
6, 64320, Note_off_c, 2, 65, 64
6, 64356, Note_on_c, 2, 46, 69
6, 64364, Note_on_c, 2, 34, 69
6, 64496, Note_off_c, 2, 34, 64
6, 64496, Note_on_c, 2, 68, 108
6, 64496, Note_on_c, 2, 65, 114
6, 64496, Note_on_c, 2, 62, 120
6, 64496, Note_on_c, 2, 72, 109
6, 64508, Note_off_c, 2, 46, 64
6, 64584, Note_off_c, 2, 68, 64
6, 64584, Note_off_c, 2, 65, 64
6, 64584, Note_off_c, 2, 62, 64
6, 64584, Note_off_c, 2, 72, 64
6, 64824, Note_on_c, 2, 68, 124
6, 64824, Note_on_c, 2, 65, 109
6, 64824, Note_on_c, 2, 62, 118
6, 64824, Note_on_c, 2, 72, 115
6, 65280, Note_off_c, 2, 72, 64
6, 65280, Note_off_c, 2, 62, 64
6, 65280, Note_off_c, 2, 65, 64
6, 65280, Note_off_c, 2, 68, 64
6, 65280, Note_on_c, 2, 39, 97
6, 65280, Note_on_c, 2, 55, 97
6, 65284, Note_on_c, 2, 63, 98
6, 65284, Note_on_c, 2, 67, 108
6, 67200, Note_off_c, 2, 67, 64
6, 67200, Note_off_c, 2, 63, 64
6, 67200, Note_off_c, 2, 55, 64
6, 67200, Note_off_c, 2, 39, 64
6, 67200, Note_on_c, 2, 63, 125
6, 67200, Note_on_c, 2, 58, 125
6, 67200, Note_on_c, 2, 55, 126
6, 67972, Note_off_c, 2, 55, 64
6, 67972, Note_off_c, 2, 58, 64
6, 67972, Note_off_c, 2, 63, 64
6, 68000, Note_on_c, 2, 39, 98
6, 68160, Note_off_c, 2, 39, 64
6, 68160, Note_on_c, 2, 39, 106
6, 68160, Note_on_c, 2, 63, 111
6, 68160, Note_on_c, 2, 58, 111
6, 68160, Note_on_c, 2, 55, 113
6, 68640, Note_off_c, 2, 55, 64
6, 68640, Note_off_c, 2, 58, 64
6, 68640, Note_off_c, 2, 63, 64
6, 68640, Note_off_c, 2, 39, 64
6, 68640, Note_on_c, 2, 39, 97
6, 68640, Note_on_c, 2, 63, 116
6, 68640, Note_on_c, 2, 58, 119
6, 68640, Note_on_c, 2, 54, 119
6, 69120, Note_off_c, 2, 54, 64
6, 69120, Note_off_c, 2, 58, 64
6, 69120, Note_off_c, 2, 63, 64
6, 69120, Note_off_c, 2, 39, 64
6, 69120, Note_on_c, 2, 65, 111
6, 69120, Note_on_c, 2, 53, 121
6, 69120, Note_on_c, 2, 34, 116
6, 69120, Note_on_c, 2, 46, 109
6, 69120, Note_on_c, 2, 62, 124
6, 69216, Control_c, 2, 64, 127
6, 69640, Note_off_c, 2, 53, 64
6, 69720, Note_off_c, 2, 34, 64
6, 69848, Note_off_c, 2, 46, 64
6, 69868, Note_off_c, 2, 65, 64
6, 69892, Note_off_c, 2, 62, 64
6, 70240, Note_on_c, 2, 34, 85
6, 70400, Note_on_c, 2, 46, 105
6, 70460, Control_c, 2, 64, 0
6, 70560, Note_on_c, 2, 53, 106
6, 70720, Note_on_c, 2, 62, 106
6, 70880, Note_on_c, 2, 65, 114
6, 71040, Note_off_c, 2, 65, 64
6, 71040, Note_off_c, 2, 62, 64
6, 71040, Note_off_c, 2, 53, 64
6, 71040, Note_off_c, 2, 46, 64
6, 71040, Note_off_c, 2, 34, 64
6, 71040, Note_on_c, 2, 46, 76
6, 71040, Note_on_c, 2, 34, 73
6, 71200, Note_on_c, 2, 65, 88
6, 71200, Note_on_c, 2, 62, 101
6, 71200, Note_on_c, 2, 58, 92
6, 71244, Note_off_c, 2, 46, 64
6, 71248, Note_off_c, 2, 34, 64
6, 71336, Note_off_c, 2, 65, 64
6, 71336, Note_off_c, 2, 62, 64
6, 71336, Note_off_c, 2, 58, 64
6, 71360, Note_on_c, 2, 46, 72
6, 71360, Note_on_c, 2, 34, 53
6, 71432, Note_off_c, 2, 34, 64
6, 71456, Note_off_c, 2, 46, 64
6, 71520, Note_on_c, 2, 65, 127
6, 71520, Note_on_c, 2, 62, 127
6, 71520, Note_on_c, 2, 58, 127
6, 71824, Note_off_c, 2, 58, 64
6, 71824, Note_off_c, 2, 62, 64
6, 71824, Note_off_c, 2, 65, 64
6, 71840, Note_on_c, 2, 34, 97
6, 71840, Note_on_c, 2, 46, 88
6, 72000, Note_off_c, 2, 46, 64
6, 72000, Note_off_c, 2, 34, 64
6, 72036, Note_on_c, 2, 41, 88
6, 72176, Note_off_c, 2, 41, 64
6, 72176, Note_on_c, 2, 65, 121
6, 72176, Note_on_c, 2, 63, 112
6, 72176, Note_on_c, 2, 60, 104
6, 72176, Note_on_c, 2, 68, 116
6, 72264, Note_off_c, 2, 68, 64
6, 72264, Note_off_c, 2, 60, 64
6, 72264, Note_off_c, 2, 63, 64
6, 72264, Note_off_c, 2, 65, 64
6, 72504, Note_on_c, 2, 65, 122
6, 72504, Note_on_c, 2, 63, 127
6, 72504, Note_on_c, 2, 60, 110
6, 72504, Note_on_c, 2, 68, 116
6, 72960, Note_off_c, 2, 68, 64
6, 72960, Note_off_c, 2, 60, 64
6, 72960, Note_off_c, 2, 63, 64
6, 72960, Note_off_c, 2, 65, 64
6, 72960, Note_on_c, 2, 39, 107
6, 72960, Note_on_c, 2, 67, 121
6, 72960, Note_on_c, 2, 58, 111
6, 72960, Note_on_c, 2, 55, 118
6, 72960, Note_on_c, 2, 63, 109
6, 73056, Control_c, 2, 64, 127
6, 73400, Note_off_c, 2, 39, 64
6, 73568, Note_off_c, 2, 58, 64
6, 73588, Note_off_c, 2, 67, 64
6, 73596, Note_off_c, 2, 63, 64
6, 73612, Note_off_c, 2, 55, 64
6, 73760, Note_on_c, 2, 39, 98
6, 74080, Note_on_c, 2, 55, 111
6, 74080, Note_on_c, 2, 67, 124
6, 74128, Note_off_c, 2, 55, 64
6, 74136, Note_off_c, 2, 67, 64
6, 74240, Note_on_c, 2, 58, 105
6, 74240, Note_on_c, 2, 70, 120
6, 74276, Note_off_c, 2, 58, 64
6, 74284, Note_off_c, 2, 70, 64
6, 74400, Note_on_c, 2, 72, 124
6, 74400, Note_on_c, 2, 60, 102
6, 74432, Note_off_c, 2, 60, 64
6, 74448, Note_off_c, 2, 72, 64
6, 74560, Note_on_c, 2, 75, 114
6, 74560, Note_on_c, 2, 63, 102
6, 74588, Note_off_c, 2, 63, 64
6, 74596, Note_off_c, 2, 75, 64
6, 74720, Note_on_c, 2, 58, 122
6, 74720, Note_on_c, 2, 70, 118
6, 74740, Control_c, 2, 64, 0
6, 74880, Note_off_c, 2, 70, 64
6, 74880, Note_off_c, 2, 39, 64
6, 74880, Note_off_c, 2, 58, 64
6, 74916, Note_on_c, 2, 39, 87
6, 75056, Note_off_c, 2, 39, 64
6, 75056, Note_on_c, 2, 63, 114
6, 75056, Note_on_c, 2, 58, 121
6, 75056, Note_on_c, 2, 55, 115
6, 75144, Note_off_c, 2, 55, 64
6, 75144, Note_off_c, 2, 58, 64
6, 75144, Note_off_c, 2, 63, 64
6, 75384, Note_on_c, 2, 63, 127
6, 75384, Note_on_c, 2, 58, 124
6, 75384, Note_on_c, 2, 55, 123
6, 75840, Note_off_c, 2, 55, 64
6, 75840, Note_off_c, 2, 58, 64
6, 75840, Note_off_c, 2, 63, 64
6, 75840, Note_on_c, 2, 65, 127
6, 75840, Note_on_c, 2, 63, 125
6, 75840, Note_on_c, 2, 60, 122
6, 75840, Note_on_c, 2, 69, 111
6, 76612, Note_off_c, 2, 69, 64
6, 76612, Note_off_c, 2, 60, 64
6, 76612, Note_off_c, 2, 63, 64
6, 76612, Note_off_c, 2, 65, 64
6, 76640, Note_on_c, 2, 41, 96
6, 76800, Note_off_c, 2, 41, 64
6, 76800, Note_on_c, 2, 34, 119
6, 76800, Note_on_c, 2, 46, 108
6, 76800, Note_on_c, 2, 65, 125
6, 76800, Note_on_c, 2, 58, 126
6, 76800, Note_on_c, 2, 53, 113
6, 76800, Note_on_c, 2, 62, 127
6, 76896, Control_c, 2, 64, 127
6, 77240, Note_off_c, 2, 34, 64
6, 77408, Note_off_c, 2, 58, 64
6, 77428, Note_off_c, 2, 65, 64
6, 77436, Note_off_c, 2, 62, 64
6, 77452, Note_off_c, 2, 53, 64
6, 77476, Note_off_c, 2, 46, 64
6, 77600, Note_on_c, 2, 34, 88
6, 77760, Note_on_c, 2, 46, 99
6, 77920, Note_on_c, 2, 53, 100
6, 77920, Note_on_c, 2, 65, 125
6, 77968, Note_off_c, 2, 53, 64
6, 77976, Note_off_c, 2, 65, 64
6, 78080, Note_on_c, 2, 58, 99
6, 78080, Note_on_c, 2, 70, 127
6, 78116, Note_off_c, 2, 58, 64
6, 78124, Note_off_c, 2, 70, 64
6, 78240, Note_on_c, 2, 72, 127
6, 78240, Note_on_c, 2, 60, 103
6, 78272, Note_off_c, 2, 60, 64
6, 78288, Note_off_c, 2, 72, 64
6, 78400, Note_on_c, 2, 74, 123
6, 78400, Note_on_c, 2, 62, 111
6, 78428, Note_off_c, 2, 62, 64
6, 78436, Note_off_c, 2, 74, 64
6, 78560, Note_on_c, 2, 58, 124
6, 78560, Note_on_c, 2, 70, 127
6, 78580, Control_c, 2, 64, 0
6, 78720, Note_off_c, 2, 70, 64
6, 78720, Note_off_c, 2, 46, 64
6, 78720, Note_off_c, 2, 34, 64
6, 78720, Note_off_c, 2, 58, 64
6, 78720, Note_on_c, 2, 64, 85
6, 78720, Note_on_c, 2, 62, 98
6, 78720, Note_on_c, 2, 58, 108
6, 78720, Note_on_c, 2, 67, 100
6, 78720, Note_on_c, 2, 43, 102
6, 80640, Note_off_c, 2, 43, 64
6, 80640, Note_off_c, 2, 67, 64
6, 80640, Note_off_c, 2, 58, 64
6, 80640, Note_off_c, 2, 62, 64
6, 80640, Note_off_c, 2, 64, 64
6, 80640, Note_on_c, 2, 67, 98
6, 80640, Note_on_c, 2, 65, 98
6, 80640, Note_on_c, 2, 62, 102
6, 80640, Note_on_c, 2, 70, 111
6, 80640, Note_on_c, 2, 34, 99
6, 80640, Note_on_c, 2, 46, 102
6, 81600, Note_off_c, 2, 46, 64
6, 81600, Note_off_c, 2, 34, 64
6, 81600, Note_off_c, 2, 70, 64
6, 81600, Note_off_c, 2, 62, 64
6, 81600, Note_off_c, 2, 65, 64
6, 81600, Note_off_c, 2, 67, 64
6, 81600, Note_on_c, 2, 43, 82
6, 81760, Note_on_c, 2, 65, 87
6, 81760, Note_on_c, 2, 62, 79
6, 81760, Note_on_c, 2, 58, 88
6, 81760, Note_on_c, 2, 67, 88
6, 81804, Note_off_c, 2, 43, 64
6, 81896, Note_off_c, 2, 65, 64
6, 81896, Note_off_c, 2, 62, 64
6, 81896, Note_off_c, 2, 58, 64
6, 81896, Note_off_c, 2, 67, 64
6, 81920, Note_on_c, 2, 43, 76
6, 81992, Note_off_c, 2, 43, 64
6, 82080, Note_on_c, 2, 65, 127
6, 82080, Note_on_c, 2, 62, 114
6, 82080, Note_on_c, 2, 58, 127
6, 82080, Note_on_c, 2, 67, 127
6, 82384, Note_off_c, 2, 67, 64
6, 82384, Note_off_c, 2, 58, 64
6, 82384, Note_off_c, 2, 62, 64
6, 82384, Note_off_c, 2, 65, 64
6, 82400, Note_on_c, 2, 43, 92
6, 82560, Note_off_c, 2, 43, 64
6, 82560, Note_on_c, 2, 63, 117
6, 82560, Note_on_c, 2, 60, 112
6, 82560, Note_on_c, 2, 58, 127
6, 82560, Note_on_c, 2, 67, 124
6, 83332, Note_off_c, 2, 67, 64
6, 83332, Note_off_c, 2, 58, 64
6, 83332, Note_off_c, 2, 60, 64
6, 83332, Note_off_c, 2, 63, 64
6, 83360, Note_on_c, 2, 48, 96
6, 83360, Note_on_c, 2, 36, 116
6, 83520, Note_off_c, 2, 36, 64
6, 83520, Note_off_c, 2, 48, 64
6, 83520, Note_on_c, 2, 65, 127
6, 83520, Note_on_c, 2, 63, 118
6, 83520, Note_on_c, 2, 60, 124
6, 83520, Note_on_c, 2, 69, 125
6, 84292, Note_off_c, 2, 69, 64
6, 84292, Note_off_c, 2, 60, 64
6, 84292, Note_off_c, 2, 63, 64
6, 84292, Note_off_c, 2, 65, 64
6, 84320, Note_on_c, 2, 41, 89
6, 84480, Note_off_c, 2, 41, 64
6, 84480, Note_on_c, 2, 65, 99
6, 84480, Note_on_c, 2, 62, 98
6, 84480, Note_on_c, 2, 58, 100
6, 84480, Note_on_c, 2, 34, 102
6, 84480, Note_on_c, 2, 46, 101
6, 86400, Note_off_c, 2, 46, 64
6, 86400, Note_off_c, 2, 34, 64
6, 86400, Note_off_c, 2, 58, 64
6, 86400, Note_off_c, 2, 62, 64
6, 86400, Note_off_c, 2, 65, 64
6, 86400, Note_on_c, 2, 46, 90
6, 86400, Note_on_c, 2, 34, 84
6, 86560, Note_on_c, 2, 62, 102
6, 86560, Note_on_c, 2, 58, 97
6, 86560, Note_on_c, 2, 53, 77
6, 86604, Note_off_c, 2, 46, 64
6, 86608, Note_off_c, 2, 34, 64
6, 86696, Note_off_c, 2, 62, 64
6, 86696, Note_off_c, 2, 58, 64
6, 86696, Note_off_c, 2, 53, 64
6, 86720, Note_on_c, 2, 46, 86
6, 86720, Note_on_c, 2, 34, 58
6, 86792, Note_off_c, 2, 34, 64
6, 86816, Note_off_c, 2, 46, 64
6, 86880, Note_on_c, 2, 62, 127
6, 86880, Note_on_c, 2, 58, 127
6, 86880, Note_on_c, 2, 53, 116
6, 87184, Note_off_c, 2, 53, 64
6, 87184, Note_off_c, 2, 58, 64
6, 87184, Note_off_c, 2, 62, 64
6, 87200, Note_on_c, 2, 34, 102
6, 87200, Note_on_c, 2, 46, 110
6, 87360, Note_off_c, 2, 46, 64
6, 87360, Note_off_c, 2, 34, 64
6, 87360, Note_on_c, 2, 46, 91
6, 87360, Note_on_c, 2, 34, 83
6, 87520, Note_on_c, 2, 68, 83
6, 87520, Note_on_c, 2, 65, 97
6, 87520, Note_on_c, 2, 62, 93
6, 87520, Note_on_c, 2, 70, 84
6, 87564, Note_off_c, 2, 46, 64
6, 87568, Note_off_c, 2, 34, 64
6, 87656, Note_off_c, 2, 68, 64
6, 87656, Note_off_c, 2, 65, 64
6, 87656, Note_off_c, 2, 62, 64
6, 87656, Note_off_c, 2, 70, 64
6, 87680, Note_on_c, 2, 46, 74
6, 87680, Note_on_c, 2, 34, 58
6, 87752, Note_off_c, 2, 34, 64
6, 87776, Note_off_c, 2, 46, 64
6, 87840, Note_on_c, 2, 68, 127
6, 87840, Note_on_c, 2, 65, 127
6, 87840, Note_on_c, 2, 62, 127
6, 87840, Note_on_c, 2, 70, 127
6, 88144, Note_off_c, 2, 70, 64
6, 88144, Note_off_c, 2, 62, 64
6, 88144, Note_off_c, 2, 65, 64
6, 88144, Note_off_c, 2, 68, 64
6, 88160, Note_on_c, 2, 34, 81
6, 88160, Note_on_c, 2, 46, 106
6, 88320, Note_off_c, 2, 46, 64
6, 88320, Note_off_c, 2, 34, 64
6, 88320, Note_on_c, 2, 39, 105
6, 88320, Note_on_c, 2, 67, 119
6, 88320, Note_on_c, 2, 58, 112
6, 88320, Note_on_c, 2, 55, 105
6, 88472, Control_c, 2, 64, 127
6, 88712, Note_off_c, 2, 55, 64
6, 88720, Note_off_c, 2, 58, 64
6, 88736, Note_off_c, 2, 67, 64
6, 89120, Note_on_c, 2, 55, 74
6, 89176, Note_off_c, 2, 55, 64
6, 89280, Note_on_c, 2, 58, 102
6, 89752, Control_c, 2, 64, 0
6, 89760, Note_on_c, 2, 67, 100
6, 89760, Note_on_c, 2, 55, 84
6, 90148, Note_off_c, 2, 55, 64
6, 90148, Note_off_c, 2, 67, 64
6, 90148, Note_off_c, 2, 58, 64
6, 90240, Note_off_c, 2, 39, 64
6, 90240, Note_on_c, 2, 39, 84
6, 90400, Note_on_c, 2, 63, 88
6, 90400, Note_on_c, 2, 58, 82
6, 90400, Note_on_c, 2, 55, 83
6, 90444, Note_off_c, 2, 39, 64
6, 90536, Note_off_c, 2, 63, 64
6, 90536, Note_off_c, 2, 58, 64
6, 90536, Note_off_c, 2, 55, 64
6, 90560, Note_on_c, 2, 39, 74
6, 90632, Note_off_c, 2, 39, 64
6, 90720, Note_on_c, 2, 63, 127
6, 90720, Note_on_c, 2, 58, 127
6, 90720, Note_on_c, 2, 55, 127
6, 91024, Note_off_c, 2, 55, 64
6, 91024, Note_off_c, 2, 58, 64
6, 91024, Note_off_c, 2, 63, 64
6, 91040, Note_on_c, 2, 39, 92
6, 91200, Note_off_c, 2, 39, 64
6, 91200, Note_on_c, 2, 66, 94
6, 91200, Note_on_c, 2, 63, 104
6, 91200, Note_on_c, 2, 58, 97
6, 91200, Note_on_c, 2, 39, 89
6, 92160, Note_off_c, 2, 39, 64
6, 92160, Note_off_c, 2, 58, 64
6, 92160, Note_off_c, 2, 63, 64
6, 92160, Note_off_c, 2, 66, 64
6, 92160, Note_on_c, 2, 63, 98
6, 92160, Note_on_c, 2, 58, 107
6, 92160, Note_on_c, 2, 55, 96
6, 92160, Note_on_c, 2, 39, 102
6, 93120, Note_off_c, 2, 39, 64
6, 93120, Note_off_c, 2, 55, 64
6, 93120, Note_off_c, 2, 58, 64
6, 93120, Note_off_c, 2, 63, 64
6, 93120, Note_on_c, 2, 39, 109
6, 93120, Note_on_c, 2, 63, 112
6, 93120, Note_on_c, 2, 58, 117
6, 93120, Note_on_c, 2, 55, 111
6, 93600, Note_off_c, 2, 55, 64
6, 93600, Note_off_c, 2, 58, 64
6, 93600, Note_off_c, 2, 63, 64
6, 93600, Note_off_c, 2, 39, 64
6, 93600, Note_on_c, 2, 65, 127
6, 93600, Note_on_c, 2, 62, 127
6, 93600, Note_on_c, 2, 58, 99
6, 93920, Note_on_c, 2, 46, 78
6, 93920, Note_on_c, 2, 34, 92
6, 93928, Note_off_c, 2, 58, 64
6, 93928, Note_off_c, 2, 62, 64
6, 93928, Note_off_c, 2, 65, 64
6, 94080, Note_off_c, 2, 46, 64
6, 94080, Note_off_c, 2, 34, 64
6, 94080, Note_on_c, 2, 36, 122
6, 94080, Note_on_c, 2, 48, 121
6, 94080, Note_on_c, 2, 63, 98
6, 94080, Note_on_c, 2, 60, 105
6, 94080, Note_on_c, 2, 58, 111
6, 94080, Note_on_c, 2, 67, 108
6, 94364, Control_c, 2, 64, 127
6, 94516, Note_off_c, 2, 36, 64
6, 94524, Note_off_c, 2, 63, 64
6, 94524, Note_off_c, 2, 60, 64
6, 94524, Note_off_c, 2, 58, 64
6, 94524, Note_off_c, 2, 67, 64
6, 94532, Note_off_c, 2, 48, 64
6, 95176, Control_c, 2, 64, 0
6, 95200, Note_on_c, 2, 67, 119
6, 95520, Note_on_c, 2, 63, 95
6, 95548, Note_off_c, 2, 67, 64
6, 95820, Note_off_c, 2, 63, 64
6, 95840, Note_on_c, 2, 58, 103
6, 96000, Note_off_c, 2, 58, 64
6, 96000, Note_on_c, 2, 46, 81
6, 96000, Note_on_c, 2, 34, 82
6, 96160, Note_on_c, 2, 65, 86
6, 96160, Note_on_c, 2, 62, 86
6, 96160, Note_on_c, 2, 58, 81
6, 96204, Note_off_c, 2, 46, 64
6, 96208, Note_off_c, 2, 34, 64
6, 96296, Note_off_c, 2, 65, 64
6, 96296, Note_off_c, 2, 62, 64
6, 96296, Note_off_c, 2, 58, 64
6, 96320, Note_on_c, 2, 46, 73
6, 96320, Note_on_c, 2, 34, 55
6, 96392, Note_off_c, 2, 34, 64
6, 96416, Note_off_c, 2, 46, 64
6, 96480, Note_on_c, 2, 65, 127
6, 96480, Note_on_c, 2, 62, 127
6, 96480, Note_on_c, 2, 58, 127
6, 96784, Note_off_c, 2, 58, 64
6, 96784, Note_off_c, 2, 62, 64
6, 96784, Note_off_c, 2, 65, 64
6, 96800, Note_on_c, 2, 34, 88
6, 96800, Note_on_c, 2, 46, 112
6, 96960, Note_off_c, 2, 46, 64
6, 96960, Note_off_c, 2, 34, 64
6, 96960, Note_on_c, 2, 65, 96
6, 96960, Note_on_c, 2, 62, 98
6, 96960, Note_on_c, 2, 58, 100
6, 96960, Note_on_c, 2, 67, 99
6, 96960, Note_on_c, 2, 43, 115
6, 97920, Note_off_c, 2, 43, 64
6, 97920, Note_off_c, 2, 67, 64
6, 97920, Note_off_c, 2, 58, 64
6, 97920, Note_off_c, 2, 62, 64
6, 97920, Note_off_c, 2, 65, 64
6, 97956, Note_on_c, 2, 48, 94
6, 97964, Note_on_c, 2, 36, 83
6, 98096, Note_off_c, 2, 36, 64
6, 98096, Note_on_c, 2, 63, 115
6, 98096, Note_on_c, 2, 60, 113
6, 98096, Note_on_c, 2, 58, 127
6, 98096, Note_on_c, 2, 67, 113
6, 98108, Note_off_c, 2, 48, 64
6, 98184, Note_off_c, 2, 63, 64
6, 98184, Note_off_c, 2, 60, 64
6, 98184, Note_off_c, 2, 58, 64
6, 98184, Note_off_c, 2, 67, 64
6, 98424, Note_on_c, 2, 63, 127
6, 98424, Note_on_c, 2, 60, 122
6, 98424, Note_on_c, 2, 58, 127
6, 98424, Note_on_c, 2, 67, 127
6, 98880, Note_off_c, 2, 67, 64
6, 98880, Note_off_c, 2, 58, 64
6, 98880, Note_off_c, 2, 60, 64
6, 98880, Note_off_c, 2, 63, 64
6, 98880, Note_on_c, 2, 65, 127
6, 98880, Note_on_c, 2, 63, 126
6, 98880, Note_on_c, 2, 60, 127
6, 98880, Note_on_c, 2, 69, 127
6, 99652, Note_off_c, 2, 69, 64
6, 99652, Note_off_c, 2, 60, 64
6, 99652, Note_off_c, 2, 63, 64
6, 99652, Note_off_c, 2, 65, 64
6, 99680, Note_on_c, 2, 41, 96
6, 99840, Note_off_c, 2, 41, 64
6, 99840, Note_on_c, 2, 34, 100
6, 99840, Note_on_c, 2, 46, 98
6, 99840, Note_on_c, 2, 53, 101
6, 99844, Note_on_c, 2, 62, 104
6, 99844, Note_on_c, 2, 65, 115
6, 101760, Note_off_c, 2, 65, 64
6, 101760, Note_off_c, 2, 62, 64
6, 101760, Note_off_c, 2, 53, 64
6, 101760, Note_off_c, 2, 46, 64
6, 101760, Note_off_c, 2, 34, 64
6, 101796, Note_on_c, 2, 46, 84
6, 101804, Note_on_c, 2, 34, 74
6, 101936, Note_off_c, 2, 34, 64
6, 101936, Note_on_c, 2, 65, 122
6, 101936, Note_on_c, 2, 62, 117
6, 101936, Note_on_c, 2, 58, 117
6, 101948, Note_off_c, 2, 46, 64
6, 102024, Note_off_c, 2, 65, 64
6, 102024, Note_off_c, 2, 62, 64
6, 102024, Note_off_c, 2, 58, 64
6, 102264, Note_on_c, 2, 65, 122
6, 102264, Note_on_c, 2, 62, 122
6, 102264, Note_on_c, 2, 58, 127
6, 102720, Note_off_c, 2, 58, 64
6, 102720, Note_off_c, 2, 62, 64
6, 102720, Note_off_c, 2, 65, 64
6, 102756, Note_on_c, 2, 41, 81
6, 102896, Note_off_c, 2, 41, 64
6, 102896, Note_on_c, 2, 65, 119
6, 102896, Note_on_c, 2, 63, 111
6, 102896, Note_on_c, 2, 60, 115
6, 102896, Note_on_c, 2, 69, 107
6, 102984, Note_off_c, 2, 69, 64
6, 102984, Note_off_c, 2, 60, 64
6, 102984, Note_off_c, 2, 63, 64
6, 102984, Note_off_c, 2, 65, 64
6, 103224, Note_on_c, 2, 65, 107
6, 103224, Note_on_c, 2, 63, 122
6, 103224, Note_on_c, 2, 60, 127
6, 103224, Note_on_c, 2, 69, 123
6, 103680, Note_off_c, 2, 69, 64
6, 103680, Note_off_c, 2, 60, 64
6, 103680, Note_off_c, 2, 63, 64
6, 103680, Note_off_c, 2, 65, 64
6, 103680, Note_on_c, 2, 34, 120
6, 103680, Note_on_c, 2, 46, 109
6, 103680, Note_on_c, 2, 65, 127
6, 103680, Note_on_c, 2, 58, 127
6, 103680, Note_on_c, 2, 53, 116
6, 103680, Note_on_c, 2, 62, 105
6, 103776, Control_c, 2, 64, 127
6, 104120, Note_off_c, 2, 34, 64
6, 104288, Note_off_c, 2, 58, 64
6, 104308, Note_off_c, 2, 65, 64
6, 104316, Note_off_c, 2, 62, 64
6, 104332, Note_off_c, 2, 53, 64
6, 104356, Note_off_c, 2, 46, 64
6, 104480, Note_on_c, 2, 34, 89
6, 104640, Note_on_c, 2, 46, 107
6, 104800, Note_on_c, 2, 53, 108
6, 104800, Note_on_c, 2, 65, 121
6, 104848, Note_off_c, 2, 53, 64
6, 104856, Note_off_c, 2, 65, 64
6, 104960, Note_on_c, 2, 58, 110
6, 104960, Note_on_c, 2, 70, 118
6, 104996, Note_off_c, 2, 58, 64
6, 105004, Note_off_c, 2, 70, 64
6, 105120, Note_on_c, 2, 72, 125
6, 105120, Note_on_c, 2, 60, 100
6, 105152, Note_off_c, 2, 60, 64
6, 105168, Note_off_c, 2, 72, 64
6, 105280, Note_on_c, 2, 74, 113
6, 105280, Note_on_c, 2, 62, 110
6, 105308, Note_off_c, 2, 62, 64
6, 105316, Note_off_c, 2, 74, 64
6, 105440, Note_on_c, 2, 58, 121
6, 105440, Note_on_c, 2, 70, 121
6, 105460, Control_c, 2, 64, 0
6, 105600, Note_off_c, 2, 70, 64
6, 105600, Note_off_c, 2, 46, 64
6, 105600, Note_off_c, 2, 34, 64
6, 105600, Note_off_c, 2, 58, 64
6, 105600, Note_on_c, 2, 65, 125
6, 105600, Note_on_c, 2, 62, 123
6, 105600, Note_on_c, 2, 58, 119
6, 106372, Note_off_c, 2, 58, 64
6, 106372, Note_off_c, 2, 62, 64
6, 106372, Note_off_c, 2, 65, 64
6, 106400, Note_on_c, 2, 46, 88
6, 106400, Note_on_c, 2, 34, 107
6, 106560, Note_off_c, 2, 34, 64
6, 106560, Note_off_c, 2, 46, 64
6, 106560, Note_on_c, 2, 48, 109
6, 106560, Note_on_c, 2, 63, 107
6, 106560, Note_on_c, 2, 60, 115
6, 106560, Note_on_c, 2, 58, 113
6, 106560, Note_on_c, 2, 67, 111
6, 106560, Note_on_c, 2, 36, 110
6, 107040, Note_off_c, 2, 36, 64
6, 107040, Note_off_c, 2, 67, 64
6, 107040, Note_off_c, 2, 58, 64
6, 107040, Note_off_c, 2, 60, 64
6, 107040, Note_off_c, 2, 63, 64
6, 107040, Note_off_c, 2, 48, 64
6, 107040, Note_on_c, 2, 41, 122
6, 107040, Note_on_c, 2, 65, 112
6, 107040, Note_on_c, 2, 63, 114
6, 107040, Note_on_c, 2, 60, 124
6, 107040, Note_on_c, 2, 69, 110
6, 107520, Note_off_c, 2, 69, 64
6, 107520, Note_off_c, 2, 60, 64
6, 107520, Note_off_c, 2, 63, 64
6, 107520, Note_off_c, 2, 65, 64
6, 107520, Note_off_c, 2, 41, 64
6, 107520, Note_on_c, 2, 39, 70
6, 107680, Note_on_c, 2, 63, 87
6, 107680, Note_on_c, 2, 58, 95
6, 107680, Note_on_c, 2, 55, 75
6, 107724, Note_off_c, 2, 39, 64
6, 107816, Note_off_c, 2, 63, 64
6, 107816, Note_off_c, 2, 58, 64
6, 107816, Note_off_c, 2, 55, 64
6, 107840, Note_on_c, 2, 39, 59
6, 107912, Note_off_c, 2, 39, 64
6, 108000, Note_on_c, 2, 63, 127
6, 108000, Note_on_c, 2, 58, 127
6, 108000, Note_on_c, 2, 55, 115
6, 108304, Note_off_c, 2, 55, 64
6, 108304, Note_off_c, 2, 58, 64
6, 108304, Note_off_c, 2, 63, 64
6, 108320, Note_on_c, 2, 39, 93
6, 108480, Note_off_c, 2, 39, 64
6, 108480, Note_on_c, 2, 39, 97
6, 108480, Note_on_c, 2, 63, 112
6, 108480, Note_on_c, 2, 58, 114
6, 108480, Note_on_c, 2, 55, 124
6, 108960, Note_off_c, 2, 55, 64
6, 108960, Note_off_c, 2, 58, 64
6, 108960, Note_off_c, 2, 63, 64
6, 108960, Note_off_c, 2, 39, 64
6, 108960, Note_on_c, 2, 69, 109
6, 108960, Note_on_c, 2, 65, 112
6, 108960, Note_on_c, 2, 62, 106
6, 108960, Note_on_c, 2, 72, 112
6, 109280, Note_on_c, 2, 46, 87
6, 109280, Note_on_c, 2, 34, 96
6, 109288, Note_off_c, 2, 72, 64
6, 109288, Note_off_c, 2, 62, 64
6, 109288, Note_off_c, 2, 65, 64
6, 109288, Note_off_c, 2, 69, 64
6, 109440, Note_off_c, 2, 46, 64
6, 109440, Note_off_c, 2, 34, 64
6, 109440, Note_on_c, 2, 34, 118
6, 109440, Note_on_c, 2, 46, 107
6, 109440, Note_on_c, 2, 69, 105
6, 109440, Note_on_c, 2, 65, 99
6, 109440, Note_on_c, 2, 62, 100
6, 109440, Note_on_c, 2, 72, 100
6, 109724, Control_c, 2, 64, 127
6, 109876, Note_off_c, 2, 34, 64
6, 109884, Note_off_c, 2, 69, 64
6, 109884, Note_off_c, 2, 65, 64
6, 109884, Note_off_c, 2, 62, 64
6, 109884, Note_off_c, 2, 72, 64
6, 109892, Note_off_c, 2, 46, 64
6, 110536, Control_c, 2, 64, 0
6, 110560, Note_on_c, 2, 65, 122
6, 110880, Note_on_c, 2, 62, 110
6, 110908, Note_off_c, 2, 65, 64
6, 111180, Note_off_c, 2, 62, 64
6, 111200, Note_on_c, 2, 57, 93
6, 111360, Note_off_c, 2, 57, 64
6, 111360, Note_on_c, 2, 38, 107
6, 111360, Note_on_c, 2, 50, 115
6, 111360, Note_on_c, 2, 60, 92
6, 111364, Note_on_c, 2, 67, 97
6, 111364, Note_on_c, 2, 69, 110
6, 113280, Note_off_c, 2, 69, 64
6, 113280, Note_off_c, 2, 67, 64
6, 113280, Note_off_c, 2, 60, 64
6, 113280, Note_off_c, 2, 50, 64
6, 113280, Note_off_c, 2, 38, 64
6, 113280, Note_on_c, 2, 38, 118
6, 113280, Note_on_c, 2, 50, 107
6, 113280, Note_on_c, 2, 66, 97
6, 113280, Note_on_c, 2, 62, 107
6, 113280, Note_on_c, 2, 60, 90
6, 113280, Note_on_c, 2, 69, 103
6, 113564, Control_c, 2, 64, 127
6, 113716, Note_off_c, 2, 38, 64
6, 113724, Note_off_c, 2, 66, 64
6, 113724, Note_off_c, 2, 62, 64
6, 113724, Note_off_c, 2, 60, 64
6, 113724, Note_off_c, 2, 69, 64
6, 113732, Note_off_c, 2, 50, 64
6, 114376, Control_c, 2, 64, 0
6, 114400, Note_on_c, 2, 69, 110
6, 114720, Note_on_c, 2, 66, 122
6, 114748, Note_off_c, 2, 69, 64
6, 115020, Note_off_c, 2, 66, 64
6, 115040, Note_on_c, 2, 60, 100
6, 115200, Note_off_c, 2, 60, 64
6, 115200, Note_on_c, 2, 62, 112
6, 115200, Note_on_c, 2, 58, 117
6, 115200, Note_on_c, 2, 55, 102
6, 115200, Note_on_c, 2, 43, 118
6, 115412, Control_c, 2, 64, 127
6, 115560, Note_off_c, 2, 43, 64
6, 115648, Note_off_c, 2, 55, 64
6, 115648, Note_off_c, 2, 58, 64
6, 115648, Note_off_c, 2, 62, 64
6, 116320, Note_on_c, 2, 70, 107
6, 116328, Control_c, 2, 64, 0
6, 116960, Note_on_c, 2, 62, 95
6, 117264, Control_c, 2, 64, 127
6, 117612, Note_off_c, 2, 70, 64
6, 117672, Note_off_c, 2, 62, 64
6, 118204, Control_c, 2, 64, 0
6, 118240, Note_on_c, 2, 70, 99
6, 118400, Note_on_c, 2, 67, 78
6, 118560, Note_on_c, 2, 58, 97
6, 118964, Note_off_c, 2, 67, 64
6, 119040, Note_off_c, 2, 70, 64
6, 119040, Note_off_c, 2, 58, 64
6, 119040, Note_on_c, 2, 62, 107
6, 119040, Note_on_c, 2, 58, 118
6, 119040, Note_on_c, 2, 55, 118
6, 119040, Note_on_c, 2, 43, 122
6, 119452, Control_c, 2, 64, 127
6, 119704, Note_off_c, 2, 43, 64
6, 119732, Note_off_c, 2, 55, 64
6, 119732, Note_off_c, 2, 58, 64
6, 119732, Note_off_c, 2, 62, 64
6, 120640, Note_on_c, 2, 58, 92
6, 120668, Control_c, 2, 64, 0
6, 120800, Note_on_c, 2, 67, 96
6, 120960, Note_on_c, 2, 70, 108
6, 122456, Note_off_c, 2, 70, 64
6, 122456, Note_off_c, 2, 67, 64
6, 122476, Note_off_c, 2, 58, 64
6, 122880, Note_on_c, 2, 46, 82
6, 122880, Note_on_c, 2, 34, 85
6, 123040, Note_on_c, 2, 65, 100
6, 123040, Note_on_c, 2, 61, 90
6, 123040, Note_on_c, 2, 58, 89
6, 123084, Note_off_c, 2, 46, 64
6, 123088, Note_off_c, 2, 34, 64
6, 123176, Note_off_c, 2, 65, 64
6, 123176, Note_off_c, 2, 61, 64
6, 123176, Note_off_c, 2, 58, 64
6, 123200, Note_on_c, 2, 46, 74
6, 123200, Note_on_c, 2, 34, 55
6, 123272, Note_off_c, 2, 34, 64
6, 123296, Note_off_c, 2, 46, 64
6, 123360, Note_on_c, 2, 65, 126
6, 123360, Note_on_c, 2, 61, 126
6, 123360, Note_on_c, 2, 58, 127
6, 123664, Note_off_c, 2, 58, 64
6, 123664, Note_off_c, 2, 61, 64
6, 123664, Note_off_c, 2, 65, 64
6, 123680, Note_on_c, 2, 34, 92
6, 123680, Note_on_c, 2, 46, 86
6, 123840, Note_off_c, 2, 46, 64
6, 123840, Note_off_c, 2, 34, 64
6, 123840, Note_on_c, 2, 48, 90
6, 123840, Note_on_c, 2, 36, 87
6, 124000, Note_on_c, 2, 64, 79
6, 124000, Note_on_c, 2, 60, 93
6, 124000, Note_on_c, 2, 58, 90
6, 124000, Note_on_c, 2, 67, 75
6, 124044, Note_off_c, 2, 48, 64
6, 124048, Note_off_c, 2, 36, 64
6, 124136, Note_off_c, 2, 64, 64
6, 124136, Note_off_c, 2, 60, 64
6, 124136, Note_off_c, 2, 58, 64
6, 124136, Note_off_c, 2, 67, 64
6, 124160, Note_on_c, 2, 48, 74
6, 124160, Note_on_c, 2, 36, 56
6, 124232, Note_off_c, 2, 36, 64
6, 124256, Note_off_c, 2, 48, 64
6, 124320, Note_on_c, 2, 64, 120
6, 124320, Note_on_c, 2, 60, 122
6, 124320, Note_on_c, 2, 58, 126
6, 124320, Note_on_c, 2, 67, 118
6, 124624, Note_off_c, 2, 67, 64
6, 124624, Note_off_c, 2, 58, 64
6, 124624, Note_off_c, 2, 60, 64
6, 124624, Note_off_c, 2, 64, 64
6, 124640, Note_on_c, 2, 36, 94
6, 124640, Note_on_c, 2, 48, 99
6, 124800, Note_off_c, 2, 48, 64
6, 124800, Note_off_c, 2, 36, 64
6, 124836, Note_on_c, 2, 41, 69
6, 124976, Note_off_c, 2, 41, 64
6, 124976, Note_on_c, 2, 67, 122
6, 124976, Note_on_c, 2, 64, 114
6, 124976, Note_on_c, 2, 60, 115
6, 124976, Note_on_c, 2, 69, 125
6, 125064, Note_off_c, 2, 69, 64
6, 125064, Note_off_c, 2, 60, 64
6, 125064, Note_off_c, 2, 64, 64
6, 125064, Note_off_c, 2, 67, 64
6, 125304, Note_on_c, 2, 67, 117
6, 125304, Note_on_c, 2, 64, 127
6, 125304, Note_on_c, 2, 60, 121
6, 125304, Note_on_c, 2, 69, 118
6, 125760, Note_off_c, 2, 69, 64
6, 125760, Note_off_c, 2, 60, 64
6, 125760, Note_off_c, 2, 64, 64
6, 125760, Note_off_c, 2, 67, 64
6, 125760, Note_on_c, 2, 41, 113
6, 125760, Note_on_c, 2, 67, 114
6, 125760, Note_on_c, 2, 64, 113
6, 125760, Note_on_c, 2, 60, 115
6, 125760, Note_on_c, 2, 69, 113
6, 126240, Note_off_c, 2, 69, 64
6, 126240, Note_off_c, 2, 60, 64
6, 126240, Note_off_c, 2, 64, 64
6, 126240, Note_off_c, 2, 67, 64
6, 126240, Note_off_c, 2, 41, 64
6, 126240, Note_on_c, 2, 65, 105
6, 126240, Note_on_c, 2, 62, 109
6, 126240, Note_on_c, 2, 60, 113
6, 126240, Note_on_c, 2, 69, 114
6, 126560, Note_on_c, 2, 41, 84
6, 126568, Note_off_c, 2, 69, 64
6, 126568, Note_off_c, 2, 60, 64
6, 126568, Note_off_c, 2, 62, 64
6, 126568, Note_off_c, 2, 65, 64
6, 126720, Note_off_c, 2, 41, 64
6, 126720, Note_on_c, 2, 62, 99
6, 126720, Note_on_c, 2, 59, 100
6, 126720, Note_on_c, 2, 55, 99
6, 126720, Note_on_c, 2, 43, 100
6, 127680, Note_off_c, 2, 43, 64
6, 127680, Note_off_c, 2, 55, 64
6, 127680, Note_off_c, 2, 59, 64
6, 127680, Note_off_c, 2, 62, 64
6, 127680, Note_on_c, 2, 61, 114
6, 127680, Note_on_c, 2, 58, 119
6, 127680, Note_on_c, 2, 55, 108
6, 127680, Note_on_c, 2, 65, 123
6, 128000, Note_on_c, 2, 46, 93
6, 128000, Note_on_c, 2, 34, 93
6, 128008, Note_off_c, 2, 65, 64
6, 128008, Note_off_c, 2, 55, 64
6, 128008, Note_off_c, 2, 58, 64
6, 128008, Note_off_c, 2, 61, 64
6, 128160, Note_off_c, 2, 46, 64
6, 128160, Note_off_c, 2, 34, 64
6, 128160, Note_on_c, 2, 64, 99
6, 128160, Note_on_c, 2, 61, 116
6, 128160, Note_on_c, 2, 58, 99
6, 128160, Note_on_c, 2, 67, 114
6, 128480, Note_on_c, 2, 43, 87
6, 128488, Note_off_c, 2, 67, 64
6, 128488, Note_off_c, 2, 58, 64
6, 128488, Note_off_c, 2, 61, 64
6, 128488, Note_off_c, 2, 64, 64
6, 128640, Note_off_c, 2, 43, 64
6, 128676, Note_on_c, 2, 41, 68
6, 128816, Note_off_c, 2, 41, 64
6, 128816, Note_on_c, 2, 65, 115
6, 128816, Note_on_c, 2, 60, 115
6, 128816, Note_on_c, 2, 57, 104
6, 128904, Note_off_c, 2, 57, 64
6, 128904, Note_off_c, 2, 60, 64
6, 128904, Note_off_c, 2, 65, 64
6, 129144, Note_on_c, 2, 65, 119
6, 129144, Note_on_c, 2, 60, 122
6, 129144, Note_on_c, 2, 57, 127
6, 129600, Note_off_c, 2, 57, 64
6, 129600, Note_off_c, 2, 60, 64
6, 129600, Note_off_c, 2, 65, 64
6, 129600, Note_on_c, 2, 41, 79
6, 129760, Note_on_c, 2, 65, 92
6, 129760, Note_on_c, 2, 62, 89
6, 129760, Note_on_c, 2, 59, 83
6, 129760, Note_on_c, 2, 68, 92
6, 129804, Note_off_c, 2, 41, 64
6, 129896, Note_off_c, 2, 65, 64
6, 129896, Note_off_c, 2, 62, 64
6, 129896, Note_off_c, 2, 59, 64
6, 129896, Note_off_c, 2, 68, 64
6, 129920, Note_on_c, 2, 41, 67
6, 129992, Note_off_c, 2, 41, 64
6, 130080, Note_on_c, 2, 65, 118
6, 130080, Note_on_c, 2, 62, 126
6, 130080, Note_on_c, 2, 59, 127
6, 130080, Note_on_c, 2, 68, 127
6, 130384, Note_off_c, 2, 68, 64
6, 130384, Note_off_c, 2, 59, 64
6, 130384, Note_off_c, 2, 62, 64
6, 130384, Note_off_c, 2, 65, 64
6, 130400, Note_on_c, 2, 41, 77
6, 130560, Note_off_c, 2, 41, 64
6, 130560, Note_on_c, 2, 43, 100
6, 130560, Note_on_c, 2, 58, 101
6, 130564, Note_on_c, 2, 65, 87
6, 130564, Note_on_c, 2, 67, 108
6, 132480, Note_off_c, 2, 67, 64
6, 132480, Note_off_c, 2, 65, 64
6, 132480, Note_off_c, 2, 58, 64
6, 132480, Note_off_c, 2, 43, 64
6, 132480, Note_on_c, 2, 65, 113
6, 132480, Note_on_c, 2, 62, 116
6, 132480, Note_on_c, 2, 58, 110
6, 132480, Note_on_c, 2, 67, 99
6, 132800, Note_on_c, 2, 43, 85
6, 132808, Note_off_c, 2, 67, 64
6, 132808, Note_off_c, 2, 58, 64
6, 132808, Note_off_c, 2, 62, 64
6, 132808, Note_off_c, 2, 65, 64
6, 132960, Note_off_c, 2, 43, 64
6, 132960, Note_on_c, 2, 64, 113
6, 132960, Note_on_c, 2, 60, 116
6, 132960, Note_on_c, 2, 58, 111
6, 132960, Note_on_c, 2, 67, 112
6, 133280, Note_on_c, 2, 48, 88
6, 133280, Note_on_c, 2, 36, 94
6, 133288, Note_off_c, 2, 67, 64
6, 133288, Note_off_c, 2, 58, 64
6, 133288, Note_off_c, 2, 60, 64
6, 133288, Note_off_c, 2, 64, 64
6, 133440, Note_off_c, 2, 48, 64
6, 133440, Note_off_c, 2, 36, 64
6, 133440, Note_on_c, 2, 64, 99
6, 133440, Note_on_c, 2, 60, 104
6, 133440, Note_on_c, 2, 58, 96
6, 133440, Note_on_c, 2, 67, 111
6, 133440, Note_on_c, 2, 36, 100
6, 133440, Note_on_c, 2, 48, 100
6, 134400, Note_off_c, 2, 48, 64
6, 134400, Note_off_c, 2, 36, 64
6, 134400, Note_off_c, 2, 67, 64
6, 134400, Note_off_c, 2, 58, 64
6, 134400, Note_off_c, 2, 60, 64
6, 134400, Note_off_c, 2, 64, 64
6, 134400, Note_on_c, 2, 64, 114
6, 134400, Note_on_c, 2, 59, 114
6, 134400, Note_on_c, 2, 56, 115
6, 134720, Note_on_c, 2, 40, 84
6, 134728, Note_off_c, 2, 56, 64
6, 134728, Note_off_c, 2, 59, 64
6, 134728, Note_off_c, 2, 64, 64
6, 134880, Note_off_c, 2, 40, 64
6, 134880, Note_on_c, 2, 41, 110
6, 134880, Note_on_c, 2, 65, 106
6, 134880, Note_on_c, 2, 63, 126
6, 134880, Note_on_c, 2, 60, 113
6, 134880, Note_on_c, 2, 69, 109
6, 135360, Note_off_c, 2, 69, 64
6, 135360, Note_off_c, 2, 60, 64
6, 135360, Note_off_c, 2, 63, 64
6, 135360, Note_off_c, 2, 65, 64
6, 135360, Note_off_c, 2, 41, 64
6, 135360, Note_on_c, 2, 65, 86
6, 135360, Note_on_c, 2, 62, 88
6, 135360, Note_on_c, 2, 58, 101
6, 135360, Note_on_c, 2, 67, 96
6, 135360, Note_on_c, 2, 43, 101
6, 136320, Note_off_c, 2, 43, 64
6, 136320, Note_off_c, 2, 67, 64
6, 136320, Note_off_c, 2, 58, 64
6, 136320, Note_off_c, 2, 62, 64
6, 136320, Note_off_c, 2, 65, 64
6, 136320, Note_on_c, 2, 65, 106
6, 136320, Note_on_c, 2, 62, 91
6, 136320, Note_on_c, 2, 58, 90
6, 136320, Note_on_c, 2, 67, 105
6, 136320, Note_on_c, 2, 43, 93
6, 137280, Note_off_c, 2, 43, 64
6, 137280, Note_off_c, 2, 67, 64
6, 137280, Note_off_c, 2, 58, 64
6, 137280, Note_off_c, 2, 62, 64
6, 137280, Note_off_c, 2, 65, 64
6, 137280, Note_on_c, 2, 67, 127
6, 137280, Note_on_c, 2, 63, 118
6, 137280, Note_on_c, 2, 60, 125
6, 137280, Note_on_c, 2, 69, 127
6, 138052, Note_off_c, 2, 69, 64
6, 138052, Note_off_c, 2, 60, 64
6, 138052, Note_off_c, 2, 63, 64
6, 138052, Note_off_c, 2, 67, 64
6, 138080, Note_on_c, 2, 41, 94
6, 138240, Note_off_c, 2, 41, 64
6, 138240, Note_on_c, 2, 65, 87
6, 138240, Note_on_c, 2, 62, 97
6, 138240, Note_on_c, 2, 58, 89
6, 138240, Note_on_c, 2, 34, 102
6, 138240, Note_on_c, 2, 46, 103
6, 140160, Note_off_c, 2, 46, 64
6, 140160, Note_off_c, 2, 34, 64
6, 140160, Note_off_c, 2, 58, 64
6, 140160, Note_off_c, 2, 62, 64
6, 140160, Note_off_c, 2, 65, 64
6, 140196, Note_on_c, 2, 46, 80
6, 140204, Note_on_c, 2, 34, 85
6, 140336, Note_off_c, 2, 34, 64
6, 140336, Note_on_c, 2, 65, 104
6, 140336, Note_on_c, 2, 62, 125
6, 140336, Note_on_c, 2, 58, 115
6, 140348, Note_off_c, 2, 46, 64
6, 140424, Note_off_c, 2, 65, 64
6, 140424, Note_off_c, 2, 62, 64
6, 140424, Note_off_c, 2, 58, 64
6, 140664, Note_on_c, 2, 65, 114
6, 140664, Note_on_c, 2, 62, 127
6, 140664, Note_on_c, 2, 58, 115
6, 141120, Note_off_c, 2, 58, 64
6, 141120, Note_off_c, 2, 62, 64
6, 141120, Note_off_c, 2, 65, 64
6, 141120, Note_on_c, 2, 65, 114
6, 141120, Note_on_c, 2, 63, 125
6, 141120, Note_on_c, 2, 60, 127
6, 141120, Note_on_c, 2, 69, 126
6, 141892, Note_off_c, 2, 69, 64
6, 141892, Note_off_c, 2, 60, 64
6, 141892, Note_off_c, 2, 63, 64
6, 141892, Note_off_c, 2, 65, 64
6, 141920, Note_on_c, 2, 41, 92
6, 142080, Note_off_c, 2, 41, 64
6, 142080, Note_on_c, 2, 65, 102
6, 142080, Note_on_c, 2, 62, 101
6, 142080, Note_on_c, 2, 58, 98
6, 142080, Note_on_c, 2, 34, 102
6, 142080, Note_on_c, 2, 46, 110
6, 144000, Note_off_c, 2, 46, 64
6, 144000, Note_off_c, 2, 34, 64
6, 144000, Note_off_c, 2, 58, 64
6, 144000, Note_off_c, 2, 62, 64
6, 144000, Note_off_c, 2, 65, 64
6, 144000, Note_on_c, 2, 46, 77
6, 144000, Note_on_c, 2, 34, 87
6, 144160, Note_on_c, 2, 65, 99
6, 144160, Note_on_c, 2, 62, 78
6, 144160, Note_on_c, 2, 58, 101
6, 144204, Note_off_c, 2, 46, 64
6, 144208, Note_off_c, 2, 34, 64
6, 144296, Note_off_c, 2, 65, 64
6, 144296, Note_off_c, 2, 62, 64
6, 144296, Note_off_c, 2, 58, 64
6, 144320, Note_on_c, 2, 46, 77
6, 144320, Note_on_c, 2, 34, 47
6, 144392, Note_off_c, 2, 34, 64
6, 144416, Note_off_c, 2, 46, 64
6, 144480, Note_on_c, 2, 65, 117
6, 144480, Note_on_c, 2, 62, 127
6, 144480, Note_on_c, 2, 58, 127
6, 144784, Note_off_c, 2, 58, 64
6, 144784, Note_off_c, 2, 62, 64
6, 144784, Note_off_c, 2, 65, 64
6, 144800, Note_on_c, 2, 34, 92
6, 144800, Note_on_c, 2, 46, 102
6, 144960, Note_off_c, 2, 46, 64
6, 144960, Note_off_c, 2, 34, 64
6, 144960, Note_on_c, 2, 48, 84
6, 144960, Note_on_c, 2, 36, 75
6, 145280, Note_on_c, 2, 63, 90
6, 145280, Note_on_c, 2, 60, 102
6, 145280, Note_on_c, 2, 58, 102
6, 145280, Note_on_c, 2, 67, 108
6, 145300, Note_off_c, 2, 36, 64
6, 145312, Note_off_c, 2, 48, 64
6, 145440, Note_off_c, 2, 63, 64
6, 145440, Note_off_c, 2, 60, 64
6, 145440, Note_off_c, 2, 58, 64
6, 145440, Note_off_c, 2, 67, 64
6, 145440, Note_on_c, 2, 41, 112
6, 145440, Note_on_c, 2, 65, 101
6, 145440, Note_on_c, 2, 63, 119
6, 145440, Note_on_c, 2, 60, 112
6, 145440, Note_on_c, 2, 69, 119
6, 145920, Note_off_c, 2, 69, 64
6, 145920, Note_off_c, 2, 60, 64
6, 145920, Note_off_c, 2, 63, 64
6, 145920, Note_off_c, 2, 65, 64
6, 145920, Note_off_c, 2, 41, 64
6, 145920, Note_on_c, 2, 67, 125
6, 145920, Note_on_c, 2, 63, 125
6, 145920, Note_on_c, 2, 58, 124
6, 146692, Note_off_c, 2, 58, 64
6, 146692, Note_off_c, 2, 63, 64
6, 146692, Note_off_c, 2, 67, 64
6, 146720, Note_on_c, 2, 39, 107
6, 146880, Note_off_c, 2, 39, 64
6, 146880, Note_on_c, 2, 39, 111
6, 146880, Note_on_c, 2, 63, 112
6, 146880, Note_on_c, 2, 58, 121
6, 146880, Note_on_c, 2, 55, 112
6, 147360, Note_off_c, 2, 55, 64
6, 147360, Note_off_c, 2, 58, 64
6, 147360, Note_off_c, 2, 63, 64
6, 147360, Note_off_c, 2, 39, 64
6, 147360, Note_on_c, 2, 46, 105
6, 147360, Note_on_c, 2, 69, 117
6, 147360, Note_on_c, 2, 65, 126
6, 147360, Note_on_c, 2, 62, 110
6, 147360, Note_on_c, 2, 72, 113
6, 147360, Note_on_c, 2, 34, 103
6, 147840, Note_off_c, 2, 34, 64
6, 147840, Note_off_c, 2, 72, 64
6, 147840, Note_off_c, 2, 62, 64
6, 147840, Note_off_c, 2, 65, 64
6, 147840, Note_off_c, 2, 69, 64
6, 147840, Note_off_c, 2, 46, 64
6, 147840, Note_on_c, 2, 34, 126
6, 147840, Note_on_c, 2, 46, 107
6, 147840, Note_on_c, 2, 69, 105
6, 147840, Note_on_c, 2, 65, 114
6, 147840, Note_on_c, 2, 62, 98
6, 147840, Note_on_c, 2, 72, 97
6, 148124, Control_c, 2, 64, 127
6, 148276, Note_off_c, 2, 34, 64
6, 148284, Note_off_c, 2, 69, 64
6, 148284, Note_off_c, 2, 65, 64
6, 148284, Note_off_c, 2, 62, 64
6, 148284, Note_off_c, 2, 72, 64
6, 148292, Note_off_c, 2, 46, 64
6, 148936, Control_c, 2, 64, 0
6, 148960, Note_on_c, 2, 65, 127
6, 149280, Note_on_c, 2, 62, 105
6, 149308, Note_off_c, 2, 65, 64
6, 149580, Note_off_c, 2, 62, 64
6, 149600, Note_on_c, 2, 57, 101
6, 149760, Note_off_c, 2, 57, 64
6, 149760, Note_on_c, 2, 63, 110
6, 149760, Note_on_c, 2, 53, 99
6, 149760, Note_on_c, 2, 56, 107
6, 149760, Note_on_c, 2, 41, 99
6, 149836, Control_c, 2, 64, 127
6, 149972, Note_off_c, 2, 56, 64
6, 149980, Note_off_c, 2, 63, 64
6, 150000, Note_off_c, 2, 53, 64
6, 150240, Note_on_c, 2, 63, 119
6, 150240, Note_on_c, 2, 56, 109
6, 150240, Note_on_c, 2, 53, 112
6, 150352, Note_off_c, 2, 41, 64
6, 150376, Note_off_c, 2, 53, 64
6, 150380, Note_off_c, 2, 56, 64
6, 150408, Note_off_c, 2, 63, 64
6, 150528, Control_c, 2, 64, 0
6, 150560, Note_on_c, 2, 41, 114
6, 150720, Note_on_c, 2, 60, 106
6, 150720, Note_on_c, 2, 65, 107
6, 150720, Note_on_c, 2, 55, 91
6, 150748, Control_c, 2, 64, 127
6, 150844, Note_off_c, 2, 65, 64
6, 150880, Note_off_c, 2, 60, 64
6, 150896, Note_off_c, 2, 55, 64
6, 151156, Control_c, 2, 64, 0
6, 151200, Note_on_c, 2, 65, 121
6, 151200, Note_on_c, 2, 60, 121
6, 151200, Note_on_c, 2, 56, 108
6, 151444, Note_off_c, 2, 60, 64
6, 151444, Note_off_c, 2, 65, 64
6, 151448, Note_off_c, 2, 56, 64
6, 151536, Note_off_c, 2, 41, 64
6, 151680, Note_on_c, 2, 65, 103
6, 151680, Note_on_c, 2, 63, 86
6, 151680, Note_on_c, 2, 60, 103
6, 151680, Note_on_c, 2, 68, 106
6, 151680, Note_on_c, 2, 41, 99
6, 152640, Note_off_c, 2, 41, 64
6, 152640, Note_off_c, 2, 68, 64
6, 152640, Note_off_c, 2, 60, 64
6, 152640, Note_off_c, 2, 63, 64
6, 152640, Note_off_c, 2, 65, 64
6, 152640, Note_on_c, 2, 68, 93
6, 152640, Note_on_c, 2, 65, 101
6, 152640, Note_on_c, 2, 62, 96
6, 152640, Note_on_c, 2, 72, 107
6, 152640, Note_on_c, 2, 34, 97
6, 152640, Note_on_c, 2, 46, 108
6, 153600, Note_off_c, 2, 46, 64
6, 153600, Note_off_c, 2, 34, 64
6, 153600, Note_off_c, 2, 72, 64
6, 153600, Note_off_c, 2, 62, 64
6, 153600, Note_off_c, 2, 65, 64
6, 153600, Note_off_c, 2, 68, 64
6, 153600, Note_on_c, 2, 39, 117
6, 153600, Note_on_c, 2, 67, 116
6, 153600, Note_on_c, 2, 58, 113
6, 153600, Note_on_c, 2, 55, 127
6, 153600, Note_on_c, 2, 63, 114
6, 153696, Control_c, 2, 64, 127
6, 154040, Note_off_c, 2, 39, 64
6, 154208, Note_off_c, 2, 58, 64
6, 154228, Note_off_c, 2, 67, 64
6, 154236, Note_off_c, 2, 63, 64
6, 154252, Note_off_c, 2, 55, 64
6, 154400, Note_on_c, 2, 39, 102
6, 154720, Note_on_c, 2, 55, 104
6, 154720, Note_on_c, 2, 67, 113
6, 154768, Note_off_c, 2, 55, 64
6, 154776, Note_off_c, 2, 67, 64
6, 154880, Note_on_c, 2, 58, 102
6, 154880, Note_on_c, 2, 70, 111
6, 154916, Note_off_c, 2, 58, 64
6, 154924, Note_off_c, 2, 70, 64
6, 155040, Note_on_c, 2, 72, 119
6, 155040, Note_on_c, 2, 60, 101
6, 155072, Note_off_c, 2, 60, 64
6, 155088, Note_off_c, 2, 72, 64
6, 155200, Note_on_c, 2, 75, 127
6, 155200, Note_on_c, 2, 63, 110
6, 155228, Note_off_c, 2, 63, 64
6, 155236, Note_off_c, 2, 75, 64
6, 155360, Note_on_c, 2, 58, 127
6, 155360, Note_on_c, 2, 70, 127
6, 155380, Control_c, 2, 64, 0
6, 155520, Note_off_c, 2, 70, 64
6, 155520, Note_off_c, 2, 39, 64
6, 155520, Note_off_c, 2, 58, 64
6, 155520, Note_on_c, 2, 63, 98
6, 155520, Note_on_c, 2, 58, 99
6, 155520, Note_on_c, 2, 55, 111
6, 155520, Note_on_c, 2, 39, 102
6, 156480, Note_off_c, 2, 39, 64
6, 156480, Note_off_c, 2, 55, 64
6, 156480, Note_off_c, 2, 58, 64
6, 156480, Note_off_c, 2, 63, 64
6, 156480, Note_on_c, 2, 39, 101
6, 156480, Note_on_c, 2, 63, 120
6, 156480, Note_on_c, 2, 58, 97
6, 156480, Note_on_c, 2, 55, 116
6, 156960, Note_off_c, 2, 55, 64
6, 156960, Note_off_c, 2, 58, 64
6, 156960, Note_off_c, 2, 63, 64
6, 156960, Note_off_c, 2, 39, 64
6, 156960, Note_on_c, 2, 39, 121
6, 156960, Note_on_c, 2, 66, 115
6, 156960, Note_on_c, 2, 63, 119
6, 156960, Note_on_c, 2, 58, 110
6, 157440, Note_off_c, 2, 58, 64
6, 157440, Note_off_c, 2, 63, 64
6, 157440, Note_off_c, 2, 66, 64
6, 157440, Note_off_c, 2, 39, 64
6, 157440, Note_on_c, 2, 65, 105
6, 157440, Note_on_c, 2, 53, 103
6, 157440, Note_on_c, 2, 58, 106
6, 157440, Note_on_c, 2, 34, 105
6, 157516, Control_c, 2, 64, 127
6, 157652, Note_off_c, 2, 58, 64
6, 157660, Note_off_c, 2, 65, 64
6, 157680, Note_off_c, 2, 53, 64
6, 157920, Note_on_c, 2, 65, 104
6, 157920, Note_on_c, 2, 58, 100
6, 157920, Note_on_c, 2, 53, 116
6, 158032, Note_off_c, 2, 34, 64
6, 158056, Note_off_c, 2, 53, 64
6, 158060, Note_off_c, 2, 58, 64
6, 158088, Note_off_c, 2, 65, 64
6, 158208, Control_c, 2, 64, 0
6, 158240, Note_on_c, 2, 34, 120
6, 158400, Note_on_c, 2, 46, 91
6, 158400, Note_on_c, 2, 62, 104
6, 158400, Note_on_c, 2, 67, 119
6, 158400, Note_on_c, 2, 55, 98
6, 158428, Control_c, 2, 64, 127
6, 158524, Note_off_c, 2, 67, 64
6, 158560, Note_off_c, 2, 62, 64
6, 158576, Note_off_c, 2, 55, 64
6, 158836, Control_c, 2, 64, 0
6, 158880, Note_on_c, 2, 65, 116
6, 158880, Note_on_c, 2, 62, 120
6, 158880, Note_on_c, 2, 58, 109
6, 159124, Note_off_c, 2, 62, 64
6, 159124, Note_off_c, 2, 65, 64
6, 159128, Note_off_c, 2, 58, 64
6, 159216, Note_off_c, 2, 34, 64
6, 159232, Note_off_c, 2, 46, 64
6, 159360, Note_on_c, 2, 65, 121
6, 159360, Note_on_c, 2, 62, 124
6, 159360, Note_on_c, 2, 58, 125
6, 160132, Note_off_c, 2, 58, 64
6, 160132, Note_off_c, 2, 62, 64
6, 160132, Note_off_c, 2, 65, 64
6, 160160, Note_on_c, 2, 46, 106
6, 160160, Note_on_c, 2, 34, 109
6, 160320, Note_off_c, 2, 34, 64
6, 160320, Note_off_c, 2, 46, 64
6, 160356, Note_on_c, 2, 41, 87
6, 160496, Note_off_c, 2, 41, 64
6, 160496, Note_on_c, 2, 65, 115
6, 160496, Note_on_c, 2, 63, 115
6, 160496, Note_on_c, 2, 60, 115
6, 160496, Note_on_c, 2, 68, 125
6, 160584, Note_off_c, 2, 68, 64
6, 160584, Note_off_c, 2, 60, 64
6, 160584, Note_off_c, 2, 63, 64
6, 160584, Note_off_c, 2, 65, 64
6, 160824, Note_on_c, 2, 65, 121
6, 160824, Note_on_c, 2, 63, 119
6, 160824, Note_on_c, 2, 60, 114
6, 160824, Note_on_c, 2, 68, 127
6, 161280, Note_off_c, 2, 68, 64
6, 161280, Note_off_c, 2, 60, 64
6, 161280, Note_off_c, 2, 63, 64
6, 161280, Note_off_c, 2, 65, 64
6, 161280, Note_on_c, 2, 63, 93
6, 161280, Note_on_c, 2, 58, 96
6, 161280, Note_on_c, 2, 55, 83
6, 161280, Note_on_c, 2, 39, 99
6, 163200, Note_off_c, 2, 39, 64
6, 163200, Note_off_c, 2, 55, 64
6, 163200, Note_off_c, 2, 58, 64
6, 163200, Note_off_c, 2, 63, 64
6, 163200, Note_on_c, 2, 67, 89
6, 163200, Note_on_c, 2, 63, 86
6, 163200, Note_on_c, 2, 58, 99
6, 163200, Note_on_c, 2, 39, 108
6, 164160, Note_off_c, 2, 39, 64
6, 164160, Note_off_c, 2, 58, 64
6, 164160, Note_off_c, 2, 63, 64
6, 164160, Note_off_c, 2, 67, 64
6, 164160, Note_on_c, 2, 41, 84
6, 164320, Note_on_c, 2, 65, 90
6, 164320, Note_on_c, 2, 63, 85
6, 164320, Note_on_c, 2, 60, 88
6, 164320, Note_on_c, 2, 69, 88
6, 164364, Note_off_c, 2, 41, 64
6, 164456, Note_off_c, 2, 65, 64
6, 164456, Note_off_c, 2, 63, 64
6, 164456, Note_off_c, 2, 60, 64
6, 164456, Note_off_c, 2, 69, 64
6, 164480, Note_on_c, 2, 41, 85
6, 164552, Note_off_c, 2, 41, 64
6, 164640, Note_on_c, 2, 65, 123
6, 164640, Note_on_c, 2, 63, 127
6, 164640, Note_on_c, 2, 60, 127
6, 164640, Note_on_c, 2, 69, 118
6, 164944, Note_off_c, 2, 69, 64
6, 164944, Note_off_c, 2, 60, 64
6, 164944, Note_off_c, 2, 63, 64
6, 164944, Note_off_c, 2, 65, 64
6, 164960, Note_on_c, 2, 41, 92
6, 165120, Note_off_c, 2, 41, 64
6, 165120, Note_on_c, 2, 62, 101
6, 165120, Note_on_c, 2, 58, 91
6, 165120, Note_on_c, 2, 53, 107
6, 165120, Note_on_c, 2, 34, 101
6, 165120, Note_on_c, 2, 46, 97
6, 167040, Note_off_c, 2, 46, 64
6, 167040, Note_off_c, 2, 34, 64
6, 167040, Note_off_c, 2, 53, 64
6, 167040, Note_off_c, 2, 58, 64
6, 167040, Note_off_c, 2, 62, 64
6, 167040, Note_on_c, 2, 67, 117
6, 167040, Note_on_c, 2, 58, 109
6, 167040, Note_on_c, 2, 43, 123
6, 167040, Note_on_c, 2, 64, 120
6, 167136, Control_c, 2, 64, 127
6, 167560, Note_off_c, 2, 58, 64
6, 167640, Note_off_c, 2, 43, 64
6, 167788, Note_off_c, 2, 67, 64
6, 167812, Note_off_c, 2, 64, 64
6, 168160, Note_on_c, 2, 43, 72
6, 168380, Control_c, 2, 64, 0
6, 168480, Note_on_c, 2, 58, 126
6, 168640, Note_on_c, 2, 64, 109
6, 168800, Note_on_c, 2, 67, 118
6, 168960, Note_off_c, 2, 67, 64
6, 168960, Note_off_c, 2, 64, 64
6, 168960, Note_off_c, 2, 58, 64
6, 168960, Note_off_c, 2, 43, 64
6, 168960, Note_on_c, 2, 62, 126
6, 168960, Note_on_c, 2, 58, 120
6, 168960, Note_on_c, 2, 55, 123
6, 168960, Note_on_c, 2, 65, 125
6, 169732, Note_off_c, 2, 65, 64
6, 169732, Note_off_c, 2, 55, 64
6, 169732, Note_off_c, 2, 58, 64
6, 169732, Note_off_c, 2, 62, 64
6, 169760, Note_on_c, 2, 46, 109
6, 169760, Note_on_c, 2, 34, 92
6, 169920, Note_off_c, 2, 34, 64
6, 169920, Note_off_c, 2, 46, 64
6, 169956, Note_on_c, 2, 43, 78
6, 170096, Note_off_c, 2, 43, 64
6, 170096, Note_on_c, 2, 65, 118
6, 170096, Note_on_c, 2, 62, 116
6, 170096, Note_on_c, 2, 58, 115
6, 170096, Note_on_c, 2, 67, 119
6, 170184, Note_off_c, 2, 67, 64
6, 170184, Note_off_c, 2, 58, 64
6, 170184, Note_off_c, 2, 62, 64
6, 170184, Note_off_c, 2, 65, 64
6, 170424, Note_on_c, 2, 65, 125
6, 170424, Note_on_c, 2, 62, 127
6, 170424, Note_on_c, 2, 58, 109
6, 170424, Note_on_c, 2, 67, 127
6, 170880, Note_off_c, 2, 67, 64
6, 170880, Note_off_c, 2, 58, 64
6, 170880, Note_off_c, 2, 62, 64
6, 170880, Note_off_c, 2, 65, 64
6, 170880, Note_on_c, 2, 48, 92
6, 170880, Note_on_c, 2, 36, 83
6, 171040, Note_on_c, 2, 63, 83
6, 171040, Note_on_c, 2, 60, 103
6, 171040, Note_on_c, 2, 58, 82
6, 171040, Note_on_c, 2, 67, 87
6, 171084, Note_off_c, 2, 48, 64
6, 171088, Note_off_c, 2, 36, 64
6, 171176, Note_off_c, 2, 63, 64
6, 171176, Note_off_c, 2, 60, 64
6, 171176, Note_off_c, 2, 58, 64
6, 171176, Note_off_c, 2, 67, 64
6, 171200, Note_on_c, 2, 48, 74
6, 171200, Note_on_c, 2, 36, 53
6, 171272, Note_off_c, 2, 36, 64
6, 171296, Note_off_c, 2, 48, 64
6, 171360, Note_on_c, 2, 63, 117
6, 171360, Note_on_c, 2, 60, 121
6, 171360, Note_on_c, 2, 58, 127
6, 171360, Note_on_c, 2, 67, 118
6, 171664, Note_off_c, 2, 67, 64
6, 171664, Note_off_c, 2, 58, 64
6, 171664, Note_off_c, 2, 60, 64
6, 171664, Note_off_c, 2, 63, 64
6, 171680, Note_on_c, 2, 36, 94
6, 171680, Note_on_c, 2, 48, 94
6, 171840, Note_off_c, 2, 48, 64
6, 171840, Note_off_c, 2, 36, 64
6, 171876, Note_on_c, 2, 41, 83
6, 172016, Note_off_c, 2, 41, 64
6, 172016, Note_on_c, 2, 65, 114
6, 172016, Note_on_c, 2, 63, 110
6, 172016, Note_on_c, 2, 60, 120
6, 172016, Note_on_c, 2, 69, 127
6, 172104, Note_off_c, 2, 69, 64
6, 172104, Note_off_c, 2, 60, 64
6, 172104, Note_off_c, 2, 63, 64
6, 172104, Note_off_c, 2, 65, 64
6, 172344, Note_on_c, 2, 65, 122
6, 172344, Note_on_c, 2, 63, 127
6, 172344, Note_on_c, 2, 60, 112
6, 172344, Note_on_c, 2, 69, 127
6, 172800, Note_off_c, 2, 69, 64
6, 172800, Note_off_c, 2, 60, 64
6, 172800, Note_off_c, 2, 63, 64
6, 172800, Note_off_c, 2, 65, 64
6, 172800, Note_on_c, 2, 65, 98
6, 172800, Note_on_c, 2, 62, 95
6, 172800, Note_on_c, 2, 58, 83
6, 172800, Note_on_c, 2, 34, 101
6, 172800, Note_on_c, 2, 46, 101
6, 174720, Note_off_c, 2, 46, 64
6, 174720, Note_off_c, 2, 34, 64
6, 174720, Note_off_c, 2, 58, 64
6, 174720, Note_off_c, 2, 62, 64
6, 174720, Note_off_c, 2, 65, 64
6, 174720, Note_on_c, 2, 62, 125
6, 174720, Note_on_c, 2, 58, 113
6, 174720, Note_on_c, 2, 53, 127
6, 175492, Note_off_c, 2, 53, 64
6, 175492, Note_off_c, 2, 58, 64
6, 175492, Note_off_c, 2, 62, 64
6, 175520, Note_on_c, 2, 46, 98
6, 175520, Note_on_c, 2, 34, 101
6, 175680, Note_off_c, 2, 34, 64
6, 175680, Note_off_c, 2, 46, 64
6, 175680, Note_on_c, 2, 46, 91
6, 175680, Note_on_c, 2, 34, 83
6, 175840, Note_on_c, 2, 68, 87
6, 175840, Note_on_c, 2, 65, 93
6, 175840, Note_on_c, 2, 62, 91
6, 175840, Note_on_c, 2, 70, 89
6, 175884, Note_off_c, 2, 46, 64
6, 175888, Note_off_c, 2, 34, 64
6, 175976, Note_off_c, 2, 68, 64
6, 175976, Note_off_c, 2, 65, 64
6, 175976, Note_off_c, 2, 62, 64
6, 175976, Note_off_c, 2, 70, 64
6, 176000, Note_on_c, 2, 46, 71
6, 176000, Note_on_c, 2, 34, 48
6, 176072, Note_off_c, 2, 34, 64
6, 176096, Note_off_c, 2, 46, 64
6, 176160, Note_on_c, 2, 68, 127
6, 176160, Note_on_c, 2, 65, 127
6, 176160, Note_on_c, 2, 62, 127
6, 176160, Note_on_c, 2, 70, 127
6, 176464, Note_off_c, 2, 70, 64
6, 176464, Note_off_c, 2, 62, 64
6, 176464, Note_off_c, 2, 65, 64
6, 176464, Note_off_c, 2, 68, 64
6, 176480, Note_on_c, 2, 34, 97
6, 176480, Note_on_c, 2, 46, 100
6, 176640, Note_off_c, 2, 46, 64
6, 176640, Note_off_c, 2, 34, 64
6, 176640, Note_on_c, 2, 39, 110
6, 176640, Note_on_c, 2, 55, 105
6, 176644, Note_on_c, 2, 63, 101
6, 176644, Note_on_c, 2, 67, 101
6, 178560, Note_off_c, 2, 67, 64
6, 178560, Note_off_c, 2, 63, 64
6, 178560, Note_off_c, 2, 55, 64
6, 178560, Note_off_c, 2, 39, 64
6, 178596, Note_on_c, 2, 39, 78
6, 178736, Note_off_c, 2, 39, 64
6, 178736, Note_on_c, 2, 63, 127
6, 178736, Note_on_c, 2, 58, 102
6, 178736, Note_on_c, 2, 55, 127
6, 178824, Note_off_c, 2, 55, 64
6, 178824, Note_off_c, 2, 58, 64
6, 178824, Note_off_c, 2, 63, 64
6, 179064, Note_on_c, 2, 63, 122
6, 179064, Note_on_c, 2, 58, 119
6, 179064, Note_on_c, 2, 55, 109
6, 179520, Note_off_c, 2, 55, 64
6, 179520, Note_off_c, 2, 58, 64
6, 179520, Note_off_c, 2, 63, 64
6, 179520, Note_on_c, 2, 39, 104
6, 179628, Note_off_c, 2, 39, 64
6, 179688, Note_on_c, 2, 63, 120
6, 179688, Note_on_c, 2, 58, 122
6, 179688, Note_on_c, 2, 54, 118
6, 179780, Note_off_c, 2, 54, 64
6, 179780, Note_off_c, 2, 58, 64
6, 179780, Note_off_c, 2, 63, 64
6, 180172, Note_on_c, 2, 63, 118
6, 180172, Note_on_c, 2, 58, 114
6, 180172, Note_on_c, 2, 54, 109
6, 180356, Note_off_c, 2, 54, 64
6, 180356, Note_off_c, 2, 58, 64
6, 180356, Note_off_c, 2, 63, 64
6, 180516, Note_on_c, 2, 39, 82
6, 180656, Note_off_c, 2, 39, 64
6, 180656, Note_on_c, 2, 63, 115
6, 180656, Note_on_c, 2, 58, 115
6, 180656, Note_on_c, 2, 55, 112
6, 180744, Note_off_c, 2, 55, 64
6, 180744, Note_off_c, 2, 58, 64
6, 180744, Note_off_c, 2, 63, 64
6, 180984, Note_on_c, 2, 63, 122
6, 180984, Note_on_c, 2, 58, 116
6, 180984, Note_on_c, 2, 55, 124
6, 181440, Note_off_c, 2, 55, 64
6, 181440, Note_off_c, 2, 58, 64
6, 181440, Note_off_c, 2, 63, 64
6, 181440, Note_on_c, 2, 39, 100
6, 181440, Note_on_c, 2, 63, 113
6, 181440, Note_on_c, 2, 58, 104
6, 181440, Note_on_c, 2, 55, 112
6, 181920, Note_off_c, 2, 55, 64
6, 181920, Note_off_c, 2, 58, 64
6, 181920, Note_off_c, 2, 63, 64
6, 181920, Note_off_c, 2, 39, 64
6, 181920, Note_on_c, 2, 65, 114
6, 181920, Note_on_c, 2, 62, 112
6, 181920, Note_on_c, 2, 58, 108
6, 182240, Note_on_c, 2, 46, 93
6, 182240, Note_on_c, 2, 34, 113
6, 182248, Note_off_c, 2, 58, 64
6, 182248, Note_off_c, 2, 62, 64
6, 182248, Note_off_c, 2, 65, 64
6, 182400, Note_off_c, 2, 46, 64
6, 182400, Note_off_c, 2, 34, 64
6, 182400, Note_on_c, 2, 63, 96
6, 182400, Note_on_c, 2, 60, 97
6, 182400, Note_on_c, 2, 58, 95
6, 182400, Note_on_c, 2, 67, 104
6, 182400, Note_on_c, 2, 36, 107
6, 182400, Note_on_c, 2, 48, 103
6, 184320, Note_off_c, 2, 48, 64
6, 184320, Note_off_c, 2, 36, 64
6, 184320, Note_off_c, 2, 67, 64
6, 184320, Note_off_c, 2, 58, 64
6, 184320, Note_off_c, 2, 60, 64
6, 184320, Note_off_c, 2, 63, 64
6, 184320, Control_c, 2, 64, 127
6, 184320, Note_on_c, 2, 34, 105
6, 184320, Note_on_c, 2, 62, 113
6, 184320, Note_on_c, 2, 58, 117
6, 184320, Note_on_c, 2, 53, 116
6, 184420, Note_off_c, 2, 58, 64
6, 184420, Note_off_c, 2, 62, 64
6, 184428, Note_off_c, 2, 53, 64
6, 184640, Note_on_c, 2, 46, 88
6, 184796, Note_off_c, 2, 46, 64
6, 184796, Control_c, 2, 64, 0
6, 184800, Note_on_c, 2, 58, 103
6, 184800, Note_on_c, 2, 53, 123
6, 184800, Note_on_c, 2, 62, 113
6, 184912, Note_off_c, 2, 34, 64
6, 184960, Note_on_c, 2, 46, 106
6, 185008, Note_off_c, 2, 46, 64
6, 185120, Note_on_c, 2, 34, 112
6, 185156, Control_c, 2, 64, 127
6, 185212, Note_off_c, 2, 58, 64
6, 185216, Note_off_c, 2, 62, 64
6, 185224, Note_off_c, 2, 53, 64
6, 185280, Note_on_c, 2, 46, 96
6, 185440, Note_on_c, 2, 62, 113
6, 185440, Note_on_c, 2, 53, 79
6, 185440, Note_on_c, 2, 58, 80
6, 185488, Note_off_c, 2, 53, 64
6, 185496, Note_off_c, 2, 58, 64
6, 185508, Note_off_c, 2, 62, 64
6, 185548, Control_c, 2, 64, 0
6, 185600, Note_on_c, 2, 55, 88
6, 185600, Note_on_c, 2, 58, 90
6, 185664, Note_off_c, 2, 58, 64
6, 185664, Note_off_c, 2, 55, 64
6, 185692, Note_off_c, 2, 46, 64
6, 185700, Note_off_c, 2, 34, 64
6, 185760, Note_on_c, 2, 62, 92
6, 185760, Note_on_c, 2, 65, 93
6, 185760, Note_on_c, 2, 58, 97
6, 185776, Note_off_c, 2, 58, 64
6, 185844, Note_off_c, 2, 65, 64
6, 185864, Note_off_c, 2, 62, 64
6, 185920, Note_on_c, 2, 55, 122
6, 185920, Note_on_c, 2, 58, 122
6, 185920, Note_on_c, 2, 63, 125
6, 186004, Note_off_c, 2, 63, 64
6, 186004, Note_off_c, 2, 55, 64
6, 186012, Note_off_c, 2, 58, 64
6, 186080, Note_on_c, 2, 46, 57
6, 186120, Note_off_c, 2, 46, 64
6, 186240, Note_on_c, 2, 34, 127
6, 186240, Note_on_c, 2, 53, 117
6, 186240, Note_on_c, 2, 58, 120
6, 186240, Note_on_c, 2, 62, 127
6, 188140, Note_off_c, 2, 62, 64
6, 188140, Note_off_c, 2, 58, 64
6, 188140, Note_off_c, 2, 53, 64
6, 188140, Note_off_c, 2, 34, 64
6, 188140, End_track
7, 0, Start_track
7, 0, Title_t, "Guitar  (BB)"
7, 0, MIDI_port, 0
7, 0, Channel_prefix, 3
7, 0, Control_c, 3, 7, 112
7, 0, Control_c, 3, 10, 16
7, 0, Control_c, 3, 91, 39
7, 0, Program_c, 3, 27
7, 0, Control_c, 3, 123, 0
7, 0, Control_c, 3, 64, 0
7, 4320, Note_on_c, 3, 75, 93
7, 4320, Note_on_c, 3, 70, 93
7, 4364, Note_off_c, 3, 70, 64
7, 4364, Note_off_c, 3, 75, 64
7, 6240, Note_on_c, 3, 72, 93
7, 6240, Note_on_c, 3, 67, 93
7, 6284, Note_off_c, 3, 67, 64
7, 6284, Note_off_c, 3, 72, 64
7, 7200, Note_on_c, 3, 72, 96
7, 7200, Note_on_c, 3, 67, 96
7, 7236, Note_off_c, 3, 72, 64
7, 7240, Note_off_c, 3, 67, 64
7, 8160, Note_on_c, 3, 70, 93
7, 8160, Note_on_c, 3, 65, 93
7, 8204, Note_off_c, 3, 65, 64
7, 8204, Note_off_c, 3, 70, 64
7, 9120, Note_on_c, 3, 67, 93
7, 9120, Note_on_c, 3, 62, 93
7, 9164, Note_off_c, 3, 62, 64
7, 9164, Note_off_c, 3, 67, 64
7, 10080, Note_on_c, 3, 72, 93
7, 10080, Note_on_c, 3, 67, 93
7, 10124, Note_off_c, 3, 67, 64
7, 10124, Note_off_c, 3, 72, 64
7, 11040, Note_on_c, 3, 77, 93
7, 11040, Note_on_c, 3, 72, 93
7, 11084, Note_off_c, 3, 72, 64
7, 11084, Note_off_c, 3, 77, 64
7, 12000, Note_on_c, 3, 70, 78
7, 12000, Note_on_c, 3, 65, 78
7, 12044, Note_off_c, 3, 65, 64
7, 12044, Note_off_c, 3, 70, 64
7, 12960, Note_on_c, 3, 70, 81
7, 12960, Note_on_c, 3, 65, 81
7, 12996, Note_off_c, 3, 70, 64
7, 13000, Note_off_c, 3, 65, 64
7, 13920, Note_on_c, 3, 70, 78
7, 13920, Note_on_c, 3, 65, 78
7, 13964, Note_off_c, 3, 65, 64
7, 13964, Note_off_c, 3, 70, 64
7, 14880, Note_on_c, 3, 77, 78
7, 14880, Note_on_c, 3, 72, 78
7, 14924, Note_off_c, 3, 72, 64
7, 14924, Note_off_c, 3, 77, 64
7, 15840, Note_on_c, 3, 70, 78
7, 15840, Note_on_c, 3, 65, 78
7, 15884, Note_off_c, 3, 65, 64
7, 15884, Note_off_c, 3, 70, 64
7, 16800, Note_on_c, 3, 70, 81
7, 16800, Note_on_c, 3, 65, 81
7, 16836, Note_off_c, 3, 70, 64
7, 16840, Note_off_c, 3, 65, 64
7, 17760, Note_on_c, 3, 70, 78
7, 17760, Note_on_c, 3, 65, 78
7, 17804, Note_off_c, 3, 65, 64
7, 17804, Note_off_c, 3, 70, 64
7, 19680, Note_on_c, 3, 75, 78
7, 19680, Note_on_c, 3, 70, 78
7, 19724, Note_off_c, 3, 70, 64
7, 19724, Note_off_c, 3, 75, 64
7, 21600, Note_on_c, 3, 70, 78
7, 21600, Note_on_c, 3, 65, 78
7, 21644, Note_off_c, 3, 65, 64
7, 21644, Note_off_c, 3, 70, 64
7, 22560, Note_on_c, 3, 70, 81
7, 22560, Note_on_c, 3, 65, 81
7, 22596, Note_off_c, 3, 70, 64
7, 22600, Note_off_c, 3, 65, 64
7, 23520, Note_on_c, 3, 74, 78
7, 23520, Note_on_c, 3, 69, 78
7, 23564, Note_off_c, 3, 69, 64
7, 23564, Note_off_c, 3, 74, 64
7, 24480, Note_on_c, 3, 74, 81
7, 24480, Note_on_c, 3, 69, 81
7, 24516, Note_off_c, 3, 74, 64
7, 24520, Note_off_c, 3, 69, 64
7, 25440, Note_on_c, 3, 74, 78
7, 25440, Note_on_c, 3, 69, 78
7, 25484, Note_off_c, 3, 69, 64
7, 25484, Note_off_c, 3, 74, 64
7, 26400, Note_on_c, 3, 74, 81
7, 26400, Note_on_c, 3, 69, 81
7, 26436, Note_off_c, 3, 74, 64
7, 26440, Note_off_c, 3, 69, 64
7, 27360, Note_on_c, 3, 67, 78
7, 27360, Note_on_c, 3, 62, 78
7, 27404, Note_off_c, 3, 62, 64
7, 27404, Note_off_c, 3, 67, 64
7, 28320, Note_on_c, 3, 67, 81
7, 28320, Note_on_c, 3, 62, 81
7, 28356, Note_off_c, 3, 67, 64
7, 28360, Note_off_c, 3, 62, 64
7, 29280, Note_on_c, 3, 62, 69
7, 29280, Note_on_c, 3, 67, 86
7, 29312, Note_off_c, 3, 62, 64
7, 29316, Note_off_c, 3, 67, 64
7, 30240, Note_on_c, 3, 62, 81
7, 30240, Note_on_c, 3, 67, 86
7, 30280, Note_off_c, 3, 67, 64
7, 30288, Note_off_c, 3, 62, 64
7, 31200, Note_on_c, 3, 67, 78
7, 31200, Note_on_c, 3, 62, 78
7, 31244, Note_off_c, 3, 62, 64
7, 31244, Note_off_c, 3, 67, 64
7, 32160, Note_on_c, 3, 67, 81
7, 32160, Note_on_c, 3, 62, 81
7, 32196, Note_off_c, 3, 67, 64
7, 32200, Note_off_c, 3, 62, 64
7, 33120, Note_on_c, 3, 62, 69
7, 33120, Note_on_c, 3, 67, 86
7, 33152, Note_off_c, 3, 62, 64
7, 33156, Note_off_c, 3, 67, 64
7, 34080, Note_on_c, 3, 62, 81
7, 34080, Note_on_c, 3, 67, 86
7, 34120, Note_off_c, 3, 67, 64
7, 34128, Note_off_c, 3, 62, 64
7, 35040, Note_on_c, 3, 70, 78
7, 35040, Note_on_c, 3, 65, 78
7, 35084, Note_off_c, 3, 65, 64
7, 35084, Note_off_c, 3, 70, 64
7, 36000, Note_on_c, 3, 72, 78
7, 36000, Note_on_c, 3, 67, 78
7, 36044, Note_off_c, 3, 67, 64
7, 36044, Note_off_c, 3, 72, 64
7, 36960, Note_on_c, 3, 77, 78
7, 36960, Note_on_c, 3, 72, 78
7, 37004, Note_off_c, 3, 72, 64
7, 37004, Note_off_c, 3, 77, 64
7, 38880, Note_on_c, 3, 67, 78
7, 38880, Note_on_c, 3, 62, 78
7, 38924, Note_off_c, 3, 62, 64
7, 38924, Note_off_c, 3, 67, 64
7, 40800, Note_on_c, 3, 77, 78
7, 40800, Note_on_c, 3, 72, 78
7, 40844, Note_off_c, 3, 72, 64
7, 40844, Note_off_c, 3, 77, 64
7, 41760, Note_on_c, 3, 77, 78
7, 41760, Note_on_c, 3, 71, 78
7, 41804, Note_off_c, 3, 71, 64
7, 41804, Note_off_c, 3, 77, 64
7, 42720, Note_on_c, 3, 67, 78
7, 42720, Note_on_c, 3, 62, 78
7, 42764, Note_off_c, 3, 62, 64
7, 42764, Note_off_c, 3, 67, 64
7, 43680, Note_on_c, 3, 67, 81
7, 43680, Note_on_c, 3, 62, 81
7, 43716, Note_off_c, 3, 67, 64
7, 43720, Note_off_c, 3, 62, 64
7, 45600, Note_on_c, 3, 72, 78
7, 45600, Note_on_c, 3, 67, 78
7, 45644, Note_off_c, 3, 67, 64
7, 45644, Note_off_c, 3, 72, 64
7, 47520, Note_on_c, 3, 67, 78
7, 47520, Note_on_c, 3, 62, 78
7, 47564, Note_off_c, 3, 62, 64
7, 47564, Note_off_c, 3, 67, 64
7, 48480, Note_on_c, 3, 67, 78
7, 48480, Note_on_c, 3, 62, 78
7, 48524, Note_off_c, 3, 62, 64
7, 48524, Note_off_c, 3, 67, 64
7, 49440, Note_on_c, 3, 77, 78
7, 49440, Note_on_c, 3, 72, 78
7, 49484, Note_off_c, 3, 72, 64
7, 49484, Note_off_c, 3, 77, 64
7, 50400, Note_on_c, 3, 70, 78
7, 50400, Note_on_c, 3, 65, 78
7, 50444, Note_off_c, 3, 65, 64
7, 50444, Note_off_c, 3, 70, 64
7, 51360, Note_on_c, 3, 70, 81
7, 51360, Note_on_c, 3, 65, 81
7, 51396, Note_off_c, 3, 70, 64
7, 51400, Note_off_c, 3, 65, 64
7, 52320, Note_on_c, 3, 70, 78
7, 52320, Note_on_c, 3, 65, 78
7, 52364, Note_off_c, 3, 65, 64
7, 52364, Note_off_c, 3, 70, 64
7, 53280, Note_on_c, 3, 77, 78
7, 53280, Note_on_c, 3, 72, 78
7, 53324, Note_off_c, 3, 72, 64
7, 53324, Note_off_c, 3, 77, 64
7, 54240, Note_on_c, 3, 70, 78
7, 54240, Note_on_c, 3, 65, 78
7, 54284, Note_off_c, 3, 65, 64
7, 54284, Note_off_c, 3, 70, 64
7, 55200, Note_on_c, 3, 70, 81
7, 55200, Note_on_c, 3, 65, 81
7, 55236, Note_off_c, 3, 70, 64
7, 55240, Note_off_c, 3, 65, 64
7, 56160, Note_on_c, 3, 70, 78
7, 56160, Note_on_c, 3, 65, 78
7, 56204, Note_off_c, 3, 65, 64
7, 56204, Note_off_c, 3, 70, 64
7, 58080, Note_on_c, 3, 75, 78
7, 58080, Note_on_c, 3, 70, 78
7, 58124, Note_off_c, 3, 70, 64
7, 58124, Note_off_c, 3, 75, 64
7, 60000, Note_on_c, 3, 70, 78
7, 60000, Note_on_c, 3, 65, 78
7, 60044, Note_off_c, 3, 65, 64
7, 60044, Note_off_c, 3, 70, 64
7, 60960, Note_on_c, 3, 70, 81
7, 60960, Note_on_c, 3, 65, 81
7, 60996, Note_off_c, 3, 70, 64
7, 61000, Note_off_c, 3, 65, 64
7, 61920, Note_on_c, 3, 77, 78
7, 61920, Note_on_c, 3, 72, 78
7, 61964, Note_off_c, 3, 72, 64
7, 61964, Note_off_c, 3, 77, 64
7, 62880, Note_on_c, 3, 77, 81
7, 62880, Note_on_c, 3, 72, 81
7, 62916, Note_off_c, 3, 77, 64
7, 62920, Note_off_c, 3, 72, 64
7, 63840, Note_on_c, 3, 77, 78
7, 63840, Note_on_c, 3, 72, 78
7, 63884, Note_off_c, 3, 72, 64
7, 63884, Note_off_c, 3, 77, 64
7, 64800, Note_on_c, 3, 70, 78
7, 64800, Note_on_c, 3, 65, 78
7, 64844, Note_off_c, 3, 65, 64
7, 64844, Note_off_c, 3, 70, 64
7, 65760, Note_on_c, 3, 75, 78
7, 65760, Note_on_c, 3, 70, 78
7, 65804, Note_off_c, 3, 70, 64
7, 65804, Note_off_c, 3, 75, 64
7, 66720, Note_on_c, 3, 75, 81
7, 66720, Note_on_c, 3, 70, 81
7, 66756, Note_off_c, 3, 75, 64
7, 66760, Note_off_c, 3, 70, 64
7, 67680, Note_on_c, 3, 75, 78
7, 67680, Note_on_c, 3, 70, 78
7, 67724, Note_off_c, 3, 70, 64
7, 67724, Note_off_c, 3, 75, 64
7, 69600, Note_on_c, 3, 70, 78
7, 69600, Note_on_c, 3, 65, 78
7, 69644, Note_off_c, 3, 65, 64
7, 69644, Note_off_c, 3, 70, 64
7, 70560, Note_on_c, 3, 70, 81
7, 70560, Note_on_c, 3, 65, 81
7, 70596, Note_off_c, 3, 70, 64
7, 70600, Note_off_c, 3, 65, 64
7, 71520, Note_on_c, 3, 70, 78
7, 71520, Note_on_c, 3, 65, 78
7, 71564, Note_off_c, 3, 65, 64
7, 71564, Note_off_c, 3, 70, 64
7, 72480, Note_on_c, 3, 77, 78
7, 72480, Note_on_c, 3, 72, 78
7, 72524, Note_off_c, 3, 72, 64
7, 72524, Note_off_c, 3, 77, 64
7, 73440, Note_on_c, 3, 75, 78
7, 73440, Note_on_c, 3, 70, 78
7, 73484, Note_off_c, 3, 70, 64
7, 73484, Note_off_c, 3, 75, 64
7, 74400, Note_on_c, 3, 75, 81
7, 74400, Note_on_c, 3, 70, 81
7, 74436, Note_off_c, 3, 75, 64
7, 74440, Note_off_c, 3, 70, 64
7, 75360, Note_on_c, 3, 75, 78
7, 75360, Note_on_c, 3, 70, 78
7, 75404, Note_off_c, 3, 70, 64
7, 75404, Note_off_c, 3, 75, 64
7, 76320, Note_on_c, 3, 77, 78
7, 76320, Note_on_c, 3, 72, 78
7, 76364, Note_off_c, 3, 72, 64
7, 76364, Note_off_c, 3, 77, 64
7, 77280, Note_on_c, 3, 70, 78
7, 77280, Note_on_c, 3, 65, 78
7, 77324, Note_off_c, 3, 65, 64
7, 77324, Note_off_c, 3, 70, 64
7, 78240, Note_on_c, 3, 70, 81
7, 78240, Note_on_c, 3, 65, 81
7, 78276, Note_off_c, 3, 70, 64
7, 78280, Note_off_c, 3, 65, 64
7, 79200, Note_on_c, 3, 67, 78
7, 79200, Note_on_c, 3, 62, 78
7, 79244, Note_off_c, 3, 62, 64
7, 79244, Note_off_c, 3, 67, 64
7, 80160, Note_on_c, 3, 67, 81
7, 80160, Note_on_c, 3, 62, 81
7, 80196, Note_off_c, 3, 67, 64
7, 80200, Note_off_c, 3, 62, 64
7, 81120, Note_on_c, 3, 70, 78
7, 81120, Note_on_c, 3, 65, 78
7, 81164, Note_off_c, 3, 65, 64
7, 81164, Note_off_c, 3, 70, 64
7, 82080, Note_on_c, 3, 67, 78
7, 82080, Note_on_c, 3, 62, 78
7, 82124, Note_off_c, 3, 62, 64
7, 82124, Note_off_c, 3, 67, 64
7, 83040, Note_on_c, 3, 72, 78
7, 83040, Note_on_c, 3, 67, 78
7, 83084, Note_off_c, 3, 67, 64
7, 83084, Note_off_c, 3, 72, 64
7, 84000, Note_on_c, 3, 77, 78
7, 84000, Note_on_c, 3, 72, 78
7, 84044, Note_off_c, 3, 72, 64
7, 84044, Note_off_c, 3, 77, 64
7, 84960, Note_on_c, 3, 70, 78
7, 84960, Note_on_c, 3, 65, 78
7, 85004, Note_off_c, 3, 65, 64
7, 85004, Note_off_c, 3, 70, 64
7, 85920, Note_on_c, 3, 70, 81
7, 85920, Note_on_c, 3, 65, 81
7, 85956, Note_off_c, 3, 70, 64
7, 85960, Note_off_c, 3, 65, 64
7, 86880, Note_on_c, 3, 70, 78
7, 86880, Note_on_c, 3, 65, 78
7, 86924, Note_off_c, 3, 65, 64
7, 86924, Note_off_c, 3, 70, 64
7, 87840, Note_on_c, 3, 70, 78
7, 87840, Note_on_c, 3, 65, 78
7, 87884, Note_off_c, 3, 65, 64
7, 87884, Note_off_c, 3, 70, 64
7, 88800, Note_on_c, 3, 75, 78
7, 88800, Note_on_c, 3, 70, 78
7, 88844, Note_off_c, 3, 70, 64
7, 88844, Note_off_c, 3, 75, 64
7, 89760, Note_on_c, 3, 75, 81
7, 89760, Note_on_c, 3, 70, 81
7, 89796, Note_off_c, 3, 75, 64
7, 89800, Note_off_c, 3, 70, 64
7, 90720, Note_on_c, 3, 75, 78
7, 90720, Note_on_c, 3, 70, 78
7, 90764, Note_off_c, 3, 70, 64
7, 90764, Note_off_c, 3, 75, 64
7, 91680, Note_on_c, 3, 75, 78
7, 91680, Note_on_c, 3, 70, 78
7, 91724, Note_off_c, 3, 70, 64
7, 91724, Note_off_c, 3, 75, 64
7, 92640, Note_on_c, 3, 75, 78
7, 92640, Note_on_c, 3, 70, 78
7, 92684, Note_off_c, 3, 70, 64
7, 92684, Note_off_c, 3, 75, 64
7, 94560, Note_on_c, 3, 72, 78
7, 94560, Note_on_c, 3, 67, 78
7, 94604, Note_off_c, 3, 67, 64
7, 94604, Note_off_c, 3, 72, 64
7, 95520, Note_on_c, 3, 72, 81
7, 95520, Note_on_c, 3, 67, 81
7, 95556, Note_off_c, 3, 72, 64
7, 95560, Note_off_c, 3, 67, 64
7, 96480, Note_on_c, 3, 70, 78
7, 96480, Note_on_c, 3, 65, 78
7, 96524, Note_off_c, 3, 65, 64
7, 96524, Note_off_c, 3, 70, 64
7, 97440, Note_on_c, 3, 67, 78
7, 97440, Note_on_c, 3, 62, 78
7, 97484, Note_off_c, 3, 62, 64
7, 97484, Note_off_c, 3, 67, 64
7, 98400, Note_on_c, 3, 72, 78
7, 98400, Note_on_c, 3, 67, 78
7, 98444, Note_off_c, 3, 67, 64
7, 98444, Note_off_c, 3, 72, 64
7, 99360, Note_on_c, 3, 77, 78
7, 99360, Note_on_c, 3, 72, 78
7, 99404, Note_off_c, 3, 72, 64
7, 99404, Note_off_c, 3, 77, 64
7, 100320, Note_on_c, 3, 70, 78
7, 100320, Note_on_c, 3, 65, 78
7, 100364, Note_off_c, 3, 65, 64
7, 100364, Note_off_c, 3, 70, 64
7, 101280, Note_on_c, 3, 70, 81
7, 101280, Note_on_c, 3, 65, 81
7, 101316, Note_off_c, 3, 70, 64
7, 101320, Note_off_c, 3, 65, 64
7, 102240, Note_on_c, 3, 70, 78
7, 102240, Note_on_c, 3, 65, 78
7, 102284, Note_off_c, 3, 65, 64
7, 102284, Note_off_c, 3, 70, 64
7, 103200, Note_on_c, 3, 77, 78
7, 103200, Note_on_c, 3, 72, 78
7, 103244, Note_off_c, 3, 72, 64
7, 103244, Note_off_c, 3, 77, 64
7, 104160, Note_on_c, 3, 70, 78
7, 104160, Note_on_c, 3, 65, 78
7, 104204, Note_off_c, 3, 65, 64
7, 104204, Note_off_c, 3, 70, 64
7, 105120, Note_on_c, 3, 70, 81
7, 105120, Note_on_c, 3, 65, 81
7, 105156, Note_off_c, 3, 70, 64
7, 105160, Note_off_c, 3, 65, 64
7, 106080, Note_on_c, 3, 70, 78
7, 106080, Note_on_c, 3, 65, 78
7, 106124, Note_off_c, 3, 65, 64
7, 106124, Note_off_c, 3, 70, 64
7, 108000, Note_on_c, 3, 75, 78
7, 108000, Note_on_c, 3, 70, 78
7, 108044, Note_off_c, 3, 70, 64
7, 108044, Note_off_c, 3, 75, 64
7, 109920, Note_on_c, 3, 70, 78
7, 109920, Note_on_c, 3, 65, 78
7, 109964, Note_off_c, 3, 65, 64
7, 109964, Note_off_c, 3, 70, 64
7, 110880, Note_on_c, 3, 70, 81
7, 110880, Note_on_c, 3, 65, 81
7, 110916, Note_off_c, 3, 70, 64
7, 110920, Note_off_c, 3, 65, 64
7, 111840, Note_on_c, 3, 74, 78
7, 111840, Note_on_c, 3, 69, 78
7, 111884, Note_off_c, 3, 69, 64
7, 111884, Note_off_c, 3, 74, 64
7, 112800, Note_on_c, 3, 74, 81
7, 112800, Note_on_c, 3, 69, 81
7, 112836, Note_off_c, 3, 74, 64
7, 112840, Note_off_c, 3, 69, 64
7, 113760, Note_on_c, 3, 74, 78
7, 113760, Note_on_c, 3, 69, 78
7, 113804, Note_off_c, 3, 69, 64
7, 113804, Note_off_c, 3, 74, 64
7, 114720, Note_on_c, 3, 74, 81
7, 114720, Note_on_c, 3, 69, 81
7, 114756, Note_off_c, 3, 74, 64
7, 114760, Note_off_c, 3, 69, 64
7, 115680, Note_on_c, 3, 67, 78
7, 115680, Note_on_c, 3, 62, 78
7, 115724, Note_off_c, 3, 62, 64
7, 115724, Note_off_c, 3, 67, 64
7, 116640, Note_on_c, 3, 67, 81
7, 116640, Note_on_c, 3, 62, 81
7, 116676, Note_off_c, 3, 67, 64
7, 116680, Note_off_c, 3, 62, 64
7, 117600, Note_on_c, 3, 62, 69
7, 117600, Note_on_c, 3, 67, 86
7, 117632, Note_off_c, 3, 62, 64
7, 117636, Note_off_c, 3, 67, 64
7, 118560, Note_on_c, 3, 62, 81
7, 118560, Note_on_c, 3, 67, 86
7, 118600, Note_off_c, 3, 67, 64
7, 118608, Note_off_c, 3, 62, 64
7, 119520, Note_on_c, 3, 67, 78
7, 119520, Note_on_c, 3, 62, 78
7, 119564, Note_off_c, 3, 62, 64
7, 119564, Note_off_c, 3, 67, 64
7, 120480, Note_on_c, 3, 67, 81
7, 120480, Note_on_c, 3, 62, 81
7, 120516, Note_off_c, 3, 67, 64
7, 120520, Note_off_c, 3, 62, 64
7, 121440, Note_on_c, 3, 62, 69
7, 121440, Note_on_c, 3, 67, 86
7, 121472, Note_off_c, 3, 62, 64
7, 121476, Note_off_c, 3, 67, 64
7, 122400, Note_on_c, 3, 62, 81
7, 122400, Note_on_c, 3, 67, 86
7, 122440, Note_off_c, 3, 67, 64
7, 122448, Note_off_c, 3, 62, 64
7, 123360, Note_on_c, 3, 70, 78
7, 123360, Note_on_c, 3, 65, 78
7, 123404, Note_off_c, 3, 65, 64
7, 123404, Note_off_c, 3, 70, 64
7, 124320, Note_on_c, 3, 72, 78
7, 124320, Note_on_c, 3, 67, 78
7, 124364, Note_off_c, 3, 67, 64
7, 124364, Note_off_c, 3, 72, 64
7, 125280, Note_on_c, 3, 77, 78
7, 125280, Note_on_c, 3, 72, 78
7, 125324, Note_off_c, 3, 72, 64
7, 125324, Note_off_c, 3, 77, 64
7, 127200, Note_on_c, 3, 67, 78
7, 127200, Note_on_c, 3, 62, 78
7, 127244, Note_off_c, 3, 62, 64
7, 127244, Note_off_c, 3, 67, 64
7, 129120, Note_on_c, 3, 77, 78
7, 129120, Note_on_c, 3, 72, 78
7, 129164, Note_off_c, 3, 72, 64
7, 129164, Note_off_c, 3, 77, 64
7, 130080, Note_on_c, 3, 77, 78
7, 130080, Note_on_c, 3, 71, 78
7, 130124, Note_off_c, 3, 71, 64
7, 130124, Note_off_c, 3, 77, 64
7, 131040, Note_on_c, 3, 67, 78
7, 131040, Note_on_c, 3, 62, 78
7, 131084, Note_off_c, 3, 62, 64
7, 131084, Note_off_c, 3, 67, 64
7, 132000, Note_on_c, 3, 67, 81
7, 132000, Note_on_c, 3, 62, 81
7, 132036, Note_off_c, 3, 67, 64
7, 132040, Note_off_c, 3, 62, 64
7, 133920, Note_on_c, 3, 72, 78
7, 133920, Note_on_c, 3, 67, 78
7, 133964, Note_off_c, 3, 67, 64
7, 133964, Note_off_c, 3, 72, 64
7, 135840, Note_on_c, 3, 67, 78
7, 135840, Note_on_c, 3, 62, 78
7, 135884, Note_off_c, 3, 62, 64
7, 135884, Note_off_c, 3, 67, 64
7, 136800, Note_on_c, 3, 67, 78
7, 136800, Note_on_c, 3, 62, 78
7, 136844, Note_off_c, 3, 62, 64
7, 136844, Note_off_c, 3, 67, 64
7, 137760, Note_on_c, 3, 77, 78
7, 137760, Note_on_c, 3, 72, 78
7, 137804, Note_off_c, 3, 72, 64
7, 137804, Note_off_c, 3, 77, 64
7, 138720, Note_on_c, 3, 70, 78
7, 138720, Note_on_c, 3, 65, 78
7, 138764, Note_off_c, 3, 65, 64
7, 138764, Note_off_c, 3, 70, 64
7, 139680, Note_on_c, 3, 70, 81
7, 139680, Note_on_c, 3, 65, 81
7, 139716, Note_off_c, 3, 70, 64
7, 139720, Note_off_c, 3, 65, 64
7, 140640, Note_on_c, 3, 70, 78
7, 140640, Note_on_c, 3, 65, 78
7, 140684, Note_off_c, 3, 65, 64
7, 140684, Note_off_c, 3, 70, 64
7, 141600, Note_on_c, 3, 77, 78
7, 141600, Note_on_c, 3, 72, 78
7, 141644, Note_off_c, 3, 72, 64
7, 141644, Note_off_c, 3, 77, 64
7, 142560, Note_on_c, 3, 70, 78
7, 142560, Note_on_c, 3, 65, 78
7, 142604, Note_off_c, 3, 65, 64
7, 142604, Note_off_c, 3, 70, 64
7, 143520, Note_on_c, 3, 70, 81
7, 143520, Note_on_c, 3, 65, 81
7, 143556, Note_off_c, 3, 70, 64
7, 143560, Note_off_c, 3, 65, 64
7, 144480, Note_on_c, 3, 70, 78
7, 144480, Note_on_c, 3, 65, 78
7, 144524, Note_off_c, 3, 65, 64
7, 144524, Note_off_c, 3, 70, 64
7, 146400, Note_on_c, 3, 75, 78
7, 146400, Note_on_c, 3, 70, 78
7, 146444, Note_off_c, 3, 70, 64
7, 146444, Note_off_c, 3, 75, 64
7, 148320, Note_on_c, 3, 70, 78
7, 148320, Note_on_c, 3, 65, 78
7, 148364, Note_off_c, 3, 65, 64
7, 148364, Note_off_c, 3, 70, 64
7, 149280, Note_on_c, 3, 70, 81
7, 149280, Note_on_c, 3, 65, 81
7, 149316, Note_off_c, 3, 70, 64
7, 149320, Note_off_c, 3, 65, 64
7, 150240, Note_on_c, 3, 77, 78
7, 150240, Note_on_c, 3, 72, 78
7, 150284, Note_off_c, 3, 72, 64
7, 150284, Note_off_c, 3, 77, 64
7, 151200, Note_on_c, 3, 77, 81
7, 151200, Note_on_c, 3, 72, 81
7, 151236, Note_off_c, 3, 77, 64
7, 151240, Note_off_c, 3, 72, 64
7, 152160, Note_on_c, 3, 77, 78
7, 152160, Note_on_c, 3, 72, 78
7, 152204, Note_off_c, 3, 72, 64
7, 152204, Note_off_c, 3, 77, 64
7, 153120, Note_on_c, 3, 70, 78
7, 153120, Note_on_c, 3, 65, 78
7, 153164, Note_off_c, 3, 65, 64
7, 153164, Note_off_c, 3, 70, 64
7, 154080, Note_on_c, 3, 75, 78
7, 154080, Note_on_c, 3, 70, 78
7, 154124, Note_off_c, 3, 70, 64
7, 154124, Note_off_c, 3, 75, 64
7, 155040, Note_on_c, 3, 75, 81
7, 155040, Note_on_c, 3, 70, 81
7, 155076, Note_off_c, 3, 75, 64
7, 155080, Note_off_c, 3, 70, 64
7, 156000, Note_on_c, 3, 75, 78
7, 156000, Note_on_c, 3, 70, 78
7, 156044, Note_off_c, 3, 70, 64
7, 156044, Note_off_c, 3, 75, 64
7, 157920, Note_on_c, 3, 70, 78
7, 157920, Note_on_c, 3, 65, 78
7, 157964, Note_off_c, 3, 65, 64
7, 157964, Note_off_c, 3, 70, 64
7, 158880, Note_on_c, 3, 70, 81
7, 158880, Note_on_c, 3, 65, 81
7, 158916, Note_off_c, 3, 70, 64
7, 158920, Note_off_c, 3, 65, 64
7, 159840, Note_on_c, 3, 70, 78
7, 159840, Note_on_c, 3, 65, 78
7, 159884, Note_off_c, 3, 65, 64
7, 159884, Note_off_c, 3, 70, 64
7, 160800, Note_on_c, 3, 77, 78
7, 160800, Note_on_c, 3, 72, 78
7, 160844, Note_off_c, 3, 72, 64
7, 160844, Note_off_c, 3, 77, 64
7, 161760, Note_on_c, 3, 75, 78
7, 161760, Note_on_c, 3, 70, 78
7, 161804, Note_off_c, 3, 70, 64
7, 161804, Note_off_c, 3, 75, 64
7, 162720, Note_on_c, 3, 75, 81
7, 162720, Note_on_c, 3, 70, 81
7, 162756, Note_off_c, 3, 75, 64
7, 162760, Note_off_c, 3, 70, 64
7, 163680, Note_on_c, 3, 75, 78
7, 163680, Note_on_c, 3, 70, 78
7, 163724, Note_off_c, 3, 70, 64
7, 163724, Note_off_c, 3, 75, 64
7, 164640, Note_on_c, 3, 77, 78
7, 164640, Note_on_c, 3, 72, 78
7, 164684, Note_off_c, 3, 72, 64
7, 164684, Note_off_c, 3, 77, 64
7, 165600, Note_on_c, 3, 70, 78
7, 165600, Note_on_c, 3, 65, 78
7, 165644, Note_off_c, 3, 65, 64
7, 165644, Note_off_c, 3, 70, 64
7, 166560, Note_on_c, 3, 70, 81
7, 166560, Note_on_c, 3, 65, 81
7, 166596, Note_off_c, 3, 70, 64
7, 166600, Note_off_c, 3, 65, 64
7, 167520, Note_on_c, 3, 67, 78
7, 167520, Note_on_c, 3, 62, 78
7, 167564, Note_off_c, 3, 62, 64
7, 167564, Note_off_c, 3, 67, 64
7, 168480, Note_on_c, 3, 67, 81
7, 168480, Note_on_c, 3, 62, 81
7, 168516, Note_off_c, 3, 67, 64
7, 168520, Note_off_c, 3, 62, 64
7, 169440, Note_on_c, 3, 70, 78
7, 169440, Note_on_c, 3, 65, 78
7, 169484, Note_off_c, 3, 65, 64
7, 169484, Note_off_c, 3, 70, 64
7, 170400, Note_on_c, 3, 67, 78
7, 170400, Note_on_c, 3, 62, 78
7, 170444, Note_off_c, 3, 62, 64
7, 170444, Note_off_c, 3, 67, 64
7, 171360, Note_on_c, 3, 72, 78
7, 171360, Note_on_c, 3, 67, 78
7, 171404, Note_off_c, 3, 67, 64
7, 171404, Note_off_c, 3, 72, 64
7, 172320, Note_on_c, 3, 77, 78
7, 172320, Note_on_c, 3, 72, 78
7, 172364, Note_off_c, 3, 72, 64
7, 172364, Note_off_c, 3, 77, 64
7, 173280, Note_on_c, 3, 70, 78
7, 173280, Note_on_c, 3, 65, 78
7, 173324, Note_off_c, 3, 65, 64
7, 173324, Note_off_c, 3, 70, 64
7, 174240, Note_on_c, 3, 70, 81
7, 174240, Note_on_c, 3, 65, 81
7, 174276, Note_off_c, 3, 70, 64
7, 174280, Note_off_c, 3, 65, 64
7, 175200, Note_on_c, 3, 70, 78
7, 175200, Note_on_c, 3, 65, 78
7, 175244, Note_off_c, 3, 65, 64
7, 175244, Note_off_c, 3, 70, 64
7, 176160, Note_on_c, 3, 70, 78
7, 176160, Note_on_c, 3, 65, 78
7, 176204, Note_off_c, 3, 65, 64
7, 176204, Note_off_c, 3, 70, 64
7, 177120, Note_on_c, 3, 75, 78
7, 177120, Note_on_c, 3, 70, 78
7, 177164, Note_off_c, 3, 70, 64
7, 177164, Note_off_c, 3, 75, 64
7, 178080, Note_on_c, 3, 75, 81
7, 178080, Note_on_c, 3, 70, 81
7, 178116, Note_off_c, 3, 75, 64
7, 178120, Note_off_c, 3, 70, 64
7, 179040, Note_on_c, 3, 75, 78
7, 179040, Note_on_c, 3, 70, 78
7, 179084, Note_off_c, 3, 70, 64
7, 179084, Note_off_c, 3, 75, 64
7, 180000, Note_on_c, 3, 75, 78
7, 180000, Note_on_c, 3, 70, 78
7, 180044, Note_off_c, 3, 70, 64
7, 180044, Note_off_c, 3, 75, 64
7, 180960, Note_on_c, 3, 75, 78
7, 180960, Note_on_c, 3, 70, 78
7, 181004, Note_off_c, 3, 70, 64
7, 181004, Note_off_c, 3, 75, 64
7, 182880, Note_on_c, 3, 72, 78
7, 182880, Note_on_c, 3, 67, 78
7, 182924, Note_off_c, 3, 67, 64
7, 182924, Note_off_c, 3, 72, 64
7, 183840, Note_on_c, 3, 72, 81
7, 183840, Note_on_c, 3, 67, 81
7, 183876, Note_off_c, 3, 72, 64
7, 183880, Note_off_c, 3, 67, 64
7, 184812, Note_on_c, 3, 65, 90
7, 184820, Note_on_c, 3, 70, 100
7, 184836, Note_off_c, 3, 65, 64
7, 184844, Note_off_c, 3, 70, 64
7, 185788, Note_on_c, 3, 65, 72
7, 185788, Note_on_c, 3, 70, 90
7, 185816, Note_off_c, 3, 65, 64
7, 185824, Note_off_c, 3, 70, 64
7, 186248, Note_on_c, 3, 70, 75
7, 186260, Note_on_c, 3, 65, 77
7, 188160, Note_off_c, 3, 65, 64
7, 188160, Note_off_c, 3, 70, 64
7, 188160, Control_c, 3, 64, 0
7, 188160, End_track
8, 0, Start_track
8, 0, Title_t, "Bass    (BB)"
8, 0, MIDI_port, 0
8, 0, Channel_prefix, 4
8, 0, Control_c, 4, 7, 80
8, 0, Control_c, 4, 10, 0
8, 0, Control_c, 4, 91, 39
8, 0, Program_c, 4, 35
8, 0, Control_c, 4, 123, 0
8, 0, Control_c, 4, 64, 0
8, 3840, Note_on_c, 4, 39, 88
8, 4268, Note_off_c, 4, 39, 64
8, 4320, Note_on_c, 4, 39, 103
8, 4748, Note_off_c, 4, 39, 64
8, 4800, Note_on_c, 4, 39, 95
8, 5280, Note_off_c, 4, 39, 64
8, 5280, Note_on_c, 4, 34, 95
8, 5760, Note_off_c, 4, 34, 64
8, 5760, Note_on_c, 4, 36, 121
8, 6448, Note_off_c, 4, 36, 64
8, 6560, Note_on_c, 4, 36, 97
8, 6604, Note_off_c, 4, 36, 64
8, 6720, Note_on_c, 4, 36, 106
8, 7360, Note_on_c, 4, 31, 83
8, 7364, Note_off_c, 4, 36, 64
8, 7516, Note_off_c, 4, 31, 64
8, 7520, Note_on_c, 4, 34, 72
8, 7680, Note_off_c, 4, 34, 64
8, 7680, Note_on_c, 4, 34, 95
8, 8640, Note_off_c, 4, 34, 64
8, 8640, Note_on_c, 4, 43, 97
8, 9344, Note_off_c, 4, 43, 64
8, 9440, Note_on_c, 4, 43, 94
8, 9568, Note_off_c, 4, 43, 64
8, 9600, Note_on_c, 4, 36, 95
8, 10560, Note_off_c, 4, 36, 64
8, 10560, Note_on_c, 4, 41, 97
8, 11264, Note_off_c, 4, 41, 64
8, 11360, Note_on_c, 4, 41, 94
8, 11488, Note_off_c, 4, 41, 64
8, 11520, Note_on_c, 4, 34, 107
8, 12212, Note_off_c, 4, 34, 64
8, 12320, Note_on_c, 4, 34, 77
8, 12372, Note_off_c, 4, 34, 64
8, 12480, Note_on_c, 4, 34, 101
8, 13116, Note_off_c, 4, 34, 64
8, 13440, Note_on_c, 4, 34, 97
8, 14144, Note_off_c, 4, 34, 64
8, 14240, Note_on_c, 4, 34, 94
8, 14368, Note_off_c, 4, 34, 64
8, 14400, Note_on_c, 4, 41, 115
8, 15048, Note_off_c, 4, 41, 64
8, 15048, Note_on_c, 4, 36, 86
8, 15200, Note_on_c, 4, 39, 86
8, 15216, Note_off_c, 4, 36, 64
8, 15356, Note_off_c, 4, 39, 64
8, 15360, Note_on_c, 4, 34, 105
8, 16056, Note_off_c, 4, 34, 64
8, 16160, Note_on_c, 4, 34, 82
8, 16196, Note_off_c, 4, 34, 64
8, 16320, Note_on_c, 4, 29, 87
8, 17032, Note_off_c, 4, 29, 64
8, 17120, Note_on_c, 4, 29, 87
8, 17280, Note_off_c, 4, 29, 64
8, 17280, Note_on_c, 4, 34, 95
8, 18240, Note_off_c, 4, 34, 64
8, 18240, Note_on_c, 4, 36, 97
8, 18488, Note_off_c, 4, 36, 64
8, 18560, Note_on_c, 4, 36, 95
8, 18692, Note_off_c, 4, 36, 64
8, 18720, Note_on_c, 4, 41, 97
8, 18968, Note_off_c, 4, 41, 64
8, 19040, Note_on_c, 4, 41, 95
8, 19172, Note_off_c, 4, 41, 64
8, 19200, Note_on_c, 4, 39, 95
8, 20160, Note_off_c, 4, 39, 64
8, 20160, Note_on_c, 4, 39, 97
8, 20408, Note_off_c, 4, 39, 64
8, 20480, Note_on_c, 4, 39, 95
8, 20612, Note_off_c, 4, 39, 64
8, 20640, Note_on_c, 4, 34, 97
8, 20888, Note_off_c, 4, 34, 64
8, 20960, Note_on_c, 4, 34, 95
8, 21092, Note_off_c, 4, 34, 64
8, 21120, Note_on_c, 4, 34, 110
8, 21828, Note_off_c, 4, 34, 64
8, 21920, Note_on_c, 4, 34, 97
8, 22124, Note_off_c, 4, 34, 64
8, 22124, Note_on_c, 4, 29, 85
8, 22564, Note_off_c, 4, 29, 64
8, 22564, Note_on_c, 4, 33, 89
8, 22968, Note_off_c, 4, 33, 64
8, 23040, Note_on_c, 4, 38, 117
8, 23740, Note_off_c, 4, 38, 64
8, 23840, Note_on_c, 4, 38, 92
8, 23880, Note_off_c, 4, 38, 64
8, 24000, Note_on_c, 4, 38, 75
8, 24484, Note_off_c, 4, 38, 64
8, 24484, Note_on_c, 4, 33, 96
8, 24960, Note_off_c, 4, 33, 64
8, 24960, Note_on_c, 4, 38, 100
8, 25676, Note_off_c, 4, 38, 64
8, 25760, Note_on_c, 4, 38, 85
8, 25844, Note_off_c, 4, 38, 64
8, 25920, Note_on_c, 4, 30, 100
8, 26400, Note_on_c, 4, 33, 95
8, 26404, Note_off_c, 4, 30, 64
8, 26832, Note_off_c, 4, 33, 64
8, 26880, Note_on_c, 4, 43, 113
8, 27716, Note_off_c, 4, 43, 64
8, 27840, Note_on_c, 4, 43, 104
8, 28640, Note_off_c, 4, 43, 64
8, 28640, Note_on_c, 4, 38, 91
8, 28800, Note_on_c, 4, 43, 116
8, 28852, Note_off_c, 4, 38, 64
8, 29496, Note_off_c, 4, 43, 64
8, 29600, Note_on_c, 4, 43, 63
8, 29632, Note_off_c, 4, 43, 64
8, 29760, Note_on_c, 4, 43, 100
8, 30544, Note_off_c, 4, 43, 64
8, 30560, Note_on_c, 4, 38, 83
8, 30720, Note_off_c, 4, 38, 64
8, 30720, Note_on_c, 4, 43, 105
8, 31452, Note_off_c, 4, 43, 64
8, 31520, Note_on_c, 4, 43, 85
8, 31552, Note_off_c, 4, 43, 64
8, 31680, Note_on_c, 4, 43, 105
8, 32276, Note_off_c, 4, 43, 64
8, 32320, Note_on_c, 4, 38, 80
8, 32476, Note_off_c, 4, 38, 64
8, 32480, Note_on_c, 4, 41, 102
8, 32640, Note_off_c, 4, 41, 64
8, 32640, Note_on_c, 4, 43, 89
8, 33348, Note_off_c, 4, 43, 64
8, 33440, Note_on_c, 4, 43, 87
8, 33480, Note_off_c, 4, 43, 64
8, 33600, Note_on_c, 4, 43, 102
8, 34396, Note_off_c, 4, 43, 64
8, 34560, Note_on_c, 4, 34, 95
8, 35520, Note_off_c, 4, 34, 64
8, 35520, Note_on_c, 4, 36, 95
8, 36480, Note_off_c, 4, 36, 64
8, 36480, Note_on_c, 4, 41, 95
8, 37440, Note_off_c, 4, 41, 64
8, 37440, Note_on_c, 4, 41, 95
8, 37920, Note_off_c, 4, 41, 64
8, 37920, Note_on_c, 4, 41, 97
8, 38168, Note_off_c, 4, 41, 64
8, 38240, Note_on_c, 4, 41, 95
8, 38372, Note_off_c, 4, 41, 64
8, 38400, Note_on_c, 4, 43, 113
8, 38836, Note_off_c, 4, 43, 64
8, 38880, Note_on_c, 4, 38, 86
8, 39088, Note_off_c, 4, 38, 64
8, 39200, Note_on_c, 4, 43, 87
8, 39360, Note_off_c, 4, 43, 64
8, 39360, Note_on_c, 4, 34, 95
8, 39840, Note_off_c, 4, 34, 64
8, 39840, Note_on_c, 4, 43, 97
8, 40088, Note_off_c, 4, 43, 64
8, 40160, Note_on_c, 4, 43, 95
8, 40292, Note_off_c, 4, 43, 64
8, 40320, Note_on_c, 4, 41, 97
8, 41024, Note_off_c, 4, 41, 64
8, 41120, Note_on_c, 4, 41, 94
8, 41248, Note_off_c, 4, 41, 64
8, 41280, Note_on_c, 4, 41, 113
8, 41716, Note_off_c, 4, 41, 64
8, 41760, Note_on_c, 4, 35, 86
8, 41968, Note_off_c, 4, 35, 64
8, 42080, Note_on_c, 4, 41, 87
8, 42240, Note_off_c, 4, 41, 64
8, 42240, Note_on_c, 4, 43, 107
8, 42948, Note_off_c, 4, 43, 64
8, 43040, Note_on_c, 4, 43, 87
8, 43080, Note_off_c, 4, 43, 64
8, 43200, Note_on_c, 4, 43, 87
8, 43832, Note_off_c, 4, 43, 64
8, 44000, Note_on_c, 4, 38, 82
8, 44160, Note_off_c, 4, 38, 64
8, 44160, Note_on_c, 4, 43, 97
8, 44408, Note_off_c, 4, 43, 64
8, 44480, Note_on_c, 4, 43, 95
8, 44612, Note_off_c, 4, 43, 64
8, 44640, Note_on_c, 4, 36, 95
8, 45120, Note_off_c, 4, 36, 64
8, 45120, Note_on_c, 4, 36, 97
8, 45824, Note_off_c, 4, 36, 64
8, 45920, Note_on_c, 4, 36, 94
8, 46048, Note_off_c, 4, 36, 64
8, 46080, Note_on_c, 4, 40, 97
8, 46328, Note_off_c, 4, 40, 64
8, 46400, Note_on_c, 4, 40, 95
8, 46532, Note_off_c, 4, 40, 64
8, 46560, Note_on_c, 4, 41, 97
8, 46808, Note_off_c, 4, 41, 64
8, 46880, Note_on_c, 4, 41, 95
8, 47012, Note_off_c, 4, 41, 64
8, 47040, Note_on_c, 4, 43, 97
8, 47744, Note_off_c, 4, 43, 64
8, 47840, Note_on_c, 4, 43, 94
8, 47968, Note_off_c, 4, 43, 64
8, 48000, Note_on_c, 4, 43, 97
8, 48704, Note_off_c, 4, 43, 64
8, 48800, Note_on_c, 4, 43, 94
8, 48928, Note_off_c, 4, 43, 64
8, 48960, Note_on_c, 4, 41, 95
8, 49920, Note_off_c, 4, 41, 64
8, 49920, Note_on_c, 4, 34, 100
8, 50636, Note_off_c, 4, 34, 64
8, 50720, Note_on_c, 4, 34, 85
8, 50804, Note_off_c, 4, 34, 64
8, 50880, Note_on_c, 4, 26, 100
8, 51360, Note_on_c, 4, 29, 95
8, 51364, Note_off_c, 4, 26, 64
8, 51792, Note_off_c, 4, 29, 64
8, 51840, Note_on_c, 4, 34, 97
8, 52544, Note_off_c, 4, 34, 64
8, 52640, Note_on_c, 4, 34, 94
8, 52768, Note_off_c, 4, 34, 64
8, 52800, Note_on_c, 4, 41, 104
8, 53208, Note_off_c, 4, 41, 64
8, 53280, Note_on_c, 4, 41, 85
8, 53536, Note_off_c, 4, 41, 64
8, 53600, Note_on_c, 4, 41, 96
8, 53700, Note_off_c, 4, 41, 64
8, 53760, Note_on_c, 4, 34, 107
8, 54468, Note_off_c, 4, 34, 64
8, 54560, Note_on_c, 4, 34, 87
8, 54600, Note_off_c, 4, 34, 64
8, 54720, Note_on_c, 4, 34, 87
8, 55352, Note_off_c, 4, 34, 64
8, 55520, Note_on_c, 4, 29, 82
8, 55680, Note_off_c, 4, 29, 64
8, 55680, Note_on_c, 4, 34, 88
8, 56108, Note_off_c, 4, 34, 64
8, 56160, Note_on_c, 4, 34, 103
8, 56588, Note_off_c, 4, 34, 64
8, 56640, Note_on_c, 4, 36, 95
8, 57120, Note_off_c, 4, 36, 64
8, 57120, Note_on_c, 4, 41, 97
8, 57368, Note_off_c, 4, 41, 64
8, 57440, Note_on_c, 4, 41, 95
8, 57572, Note_off_c, 4, 41, 64
8, 57600, Note_on_c, 4, 39, 95
8, 58560, Note_off_c, 4, 39, 64
8, 58560, Note_on_c, 4, 39, 95
8, 59040, Note_off_c, 4, 39, 64
8, 59040, Note_on_c, 4, 34, 95
8, 59520, Note_off_c, 4, 34, 64
8, 59520, Note_on_c, 4, 34, 107
8, 60212, Note_off_c, 4, 34, 64
8, 60320, Note_on_c, 4, 34, 77
8, 60372, Note_off_c, 4, 34, 64
8, 60480, Note_on_c, 4, 34, 101
8, 61116, Note_off_c, 4, 34, 64
8, 61440, Note_on_c, 4, 41, 117
8, 62140, Note_off_c, 4, 41, 64
8, 62240, Note_on_c, 4, 41, 92
8, 62280, Note_off_c, 4, 41, 64
8, 62400, Note_on_c, 4, 41, 75
8, 62884, Note_off_c, 4, 41, 64
8, 62884, Note_on_c, 4, 36, 96
8, 63360, Note_off_c, 4, 36, 64
8, 63360, Note_on_c, 4, 41, 88
8, 63788, Note_off_c, 4, 41, 64
8, 63840, Note_on_c, 4, 41, 103
8, 64268, Note_off_c, 4, 41, 64
8, 64320, Note_on_c, 4, 34, 115
8, 64968, Note_off_c, 4, 34, 64
8, 64968, Note_on_c, 4, 29, 86
8, 65120, Note_on_c, 4, 32, 86
8, 65136, Note_off_c, 4, 29, 64
8, 65276, Note_off_c, 4, 32, 64
8, 65280, Note_on_c, 4, 39, 105
8, 65976, Note_off_c, 4, 39, 64
8, 66080, Note_on_c, 4, 39, 82
8, 66116, Note_off_c, 4, 39, 64
8, 66240, Note_on_c, 4, 34, 87
8, 66952, Note_off_c, 4, 34, 64
8, 67040, Note_on_c, 4, 34, 87
8, 67200, Note_off_c, 4, 34, 64
8, 67200, Note_on_c, 4, 39, 88
8, 67628, Note_off_c, 4, 39, 64
8, 67680, Note_on_c, 4, 39, 103
8, 68108, Note_off_c, 4, 39, 64
8, 68160, Note_on_c, 4, 39, 97
8, 68408, Note_off_c, 4, 39, 64
8, 68480, Note_on_c, 4, 39, 95
8, 68612, Note_off_c, 4, 39, 64
8, 68640, Note_on_c, 4, 39, 97
8, 68888, Note_off_c, 4, 39, 64
8, 68960, Note_on_c, 4, 39, 95
8, 69092, Note_off_c, 4, 39, 64
8, 69120, Note_on_c, 4, 34, 100
8, 69836, Note_off_c, 4, 34, 64
8, 69920, Note_on_c, 4, 34, 85
8, 70004, Note_off_c, 4, 34, 64
8, 70080, Note_on_c, 4, 26, 100
8, 70560, Note_on_c, 4, 29, 95
8, 70564, Note_off_c, 4, 26, 64
8, 70992, Note_off_c, 4, 29, 64
8, 71040, Note_on_c, 4, 34, 95
8, 72000, Note_off_c, 4, 34, 64
8, 72000, Note_on_c, 4, 41, 95
8, 72960, Note_off_c, 4, 41, 64
8, 72960, Note_on_c, 4, 39, 117
8, 73660, Note_off_c, 4, 39, 64
8, 73760, Note_on_c, 4, 39, 92
8, 73800, Note_off_c, 4, 39, 64
8, 73920, Note_on_c, 4, 39, 75
8, 74404, Note_off_c, 4, 39, 64
8, 74404, Note_on_c, 4, 34, 96
8, 74880, Note_off_c, 4, 34, 64
8, 74880, Note_on_c, 4, 39, 95
8, 75840, Note_off_c, 4, 39, 64
8, 75840, Note_on_c, 4, 41, 95
8, 76800, Note_off_c, 4, 41, 64
8, 76800, Note_on_c, 4, 34, 100
8, 77516, Note_off_c, 4, 34, 64
8, 77600, Note_on_c, 4, 34, 85
8, 77684, Note_off_c, 4, 34, 64
8, 77760, Note_on_c, 4, 26, 100
8, 78240, Note_on_c, 4, 29, 95
8, 78244, Note_off_c, 4, 26, 64
8, 78672, Note_off_c, 4, 29, 64
8, 78720, Note_on_c, 4, 43, 127
8, 79132, Note_off_c, 4, 43, 64
8, 79200, Note_on_c, 4, 43, 96
8, 79520, Note_off_c, 4, 43, 64
8, 79520, Note_on_c, 4, 38, 73
8, 79680, Note_on_c, 4, 45, 116
8, 79708, Note_off_c, 4, 38, 64
8, 80160, Note_off_c, 4, 45, 64
8, 80160, Note_on_c, 4, 46, 87
8, 80640, Note_off_c, 4, 46, 64
8, 80640, Note_on_c, 4, 34, 88
8, 81068, Note_off_c, 4, 34, 64
8, 81120, Note_on_c, 4, 34, 103
8, 81548, Note_off_c, 4, 34, 64
8, 81600, Note_on_c, 4, 43, 95
8, 82560, Note_off_c, 4, 43, 64
8, 82560, Note_on_c, 4, 36, 97
8, 83264, Note_off_c, 4, 36, 64
8, 83360, Note_on_c, 4, 36, 94
8, 83488, Note_off_c, 4, 36, 64
8, 83520, Note_on_c, 4, 41, 104
8, 83928, Note_off_c, 4, 41, 64
8, 84000, Note_on_c, 4, 41, 85
8, 84256, Note_off_c, 4, 41, 64
8, 84320, Note_on_c, 4, 41, 96
8, 84420, Note_off_c, 4, 41, 64
8, 84480, Note_on_c, 4, 34, 107
8, 85188, Note_off_c, 4, 34, 64
8, 85280, Note_on_c, 4, 34, 87
8, 85320, Note_off_c, 4, 34, 64
8, 85440, Note_on_c, 4, 34, 87
8, 86072, Note_off_c, 4, 34, 64
8, 86240, Note_on_c, 4, 29, 82
8, 86400, Note_off_c, 4, 29, 64
8, 86400, Note_on_c, 4, 34, 95
8, 87360, Note_off_c, 4, 34, 64
8, 87360, Note_on_c, 4, 34, 113
8, 87796, Note_off_c, 4, 34, 64
8, 87840, Note_on_c, 4, 29, 86
8, 88048, Note_off_c, 4, 29, 64
8, 88160, Note_on_c, 4, 34, 87
8, 88320, Note_off_c, 4, 34, 64
8, 88320, Note_on_c, 4, 39, 107
8, 89012, Note_off_c, 4, 39, 64
8, 89120, Note_on_c, 4, 39, 77
8, 89172, Note_off_c, 4, 39, 64
8, 89280, Note_on_c, 4, 39, 101
8, 89916, Note_off_c, 4, 39, 64
8, 90240, Note_on_c, 4, 39, 95
8, 91200, Note_off_c, 4, 39, 64
8, 91200, Note_on_c, 4, 39, 115
8, 91848, Note_off_c, 4, 39, 64
8, 91848, Note_on_c, 4, 34, 86
8, 92000, Note_on_c, 4, 37, 86
8, 92016, Note_off_c, 4, 34, 64
8, 92156, Note_off_c, 4, 37, 64
8, 92160, Note_on_c, 4, 39, 95
8, 93120, Note_off_c, 4, 39, 64
8, 93120, Note_on_c, 4, 39, 97
8, 93368, Note_off_c, 4, 39, 64
8, 93440, Note_on_c, 4, 39, 95
8, 93572, Note_off_c, 4, 39, 64
8, 93600, Note_on_c, 4, 34, 97
8, 93848, Note_off_c, 4, 34, 64
8, 93920, Note_on_c, 4, 34, 95
8, 94052, Note_off_c, 4, 34, 64
8, 94080, Note_on_c, 4, 36, 121
8, 94768, Note_off_c, 4, 36, 64
8, 94880, Note_on_c, 4, 36, 97
8, 94924, Note_off_c, 4, 36, 64
8, 95040, Note_on_c, 4, 36, 106
8, 95680, Note_on_c, 4, 31, 83
8, 95684, Note_off_c, 4, 36, 64
8, 95836, Note_off_c, 4, 31, 64
8, 95840, Note_on_c, 4, 34, 72
8, 96000, Note_off_c, 4, 34, 64
8, 96000, Note_on_c, 4, 34, 113
8, 96436, Note_off_c, 4, 34, 64
8, 96480, Note_on_c, 4, 29, 86
8, 96688, Note_off_c, 4, 29, 64
8, 96800, Note_on_c, 4, 34, 87
8, 96960, Note_off_c, 4, 34, 64
8, 96960, Note_on_c, 4, 43, 115
8, 97608, Note_off_c, 4, 43, 64
8, 97608, Note_on_c, 4, 38, 86
8, 97760, Note_on_c, 4, 41, 86
8, 97776, Note_off_c, 4, 38, 64
8, 97916, Note_off_c, 4, 41, 64
8, 97920, Note_on_c, 4, 36, 97
8, 98624, Note_off_c, 4, 36, 64
8, 98720, Note_on_c, 4, 36, 94
8, 98848, Note_off_c, 4, 36, 64
8, 98880, Note_on_c, 4, 41, 113
8, 99316, Note_off_c, 4, 41, 64
8, 99360, Note_on_c, 4, 36, 86
8, 99568, Note_off_c, 4, 36, 64
8, 99680, Note_on_c, 4, 41, 87
8, 99840, Note_off_c, 4, 41, 64
8, 99840, Note_on_c, 4, 34, 107
8, 100548, Note_off_c, 4, 34, 64
8, 100640, Note_on_c, 4, 34, 87
8, 100680, Note_off_c, 4, 34, 64
8, 100800, Note_on_c, 4, 34, 87
8, 101432, Note_off_c, 4, 34, 64
8, 101600, Note_on_c, 4, 29, 82
8, 101760, Note_off_c, 4, 29, 64
8, 101760, Note_on_c, 4, 34, 95
8, 102720, Note_off_c, 4, 34, 64
8, 102720, Note_on_c, 4, 41, 104
8, 103128, Note_off_c, 4, 41, 64
8, 103200, Note_on_c, 4, 41, 85
8, 103456, Note_off_c, 4, 41, 64
8, 103520, Note_on_c, 4, 41, 96
8, 103620, Note_off_c, 4, 41, 64
8, 103680, Note_on_c, 4, 34, 117
8, 104380, Note_off_c, 4, 34, 64
8, 104480, Note_on_c, 4, 34, 92
8, 104520, Note_off_c, 4, 34, 64
8, 104640, Note_on_c, 4, 34, 75
8, 105124, Note_off_c, 4, 34, 64
8, 105124, Note_on_c, 4, 29, 96
8, 105600, Note_off_c, 4, 29, 64
8, 105600, Note_on_c, 4, 34, 95
8, 106560, Note_off_c, 4, 34, 64
8, 106560, Note_on_c, 4, 36, 97
8, 106808, Note_off_c, 4, 36, 64
8, 106880, Note_on_c, 4, 36, 95
8, 107012, Note_off_c, 4, 36, 64
8, 107040, Note_on_c, 4, 41, 95
8, 107520, Note_off_c, 4, 41, 64
8, 107520, Note_on_c, 4, 39, 95
8, 108480, Note_off_c, 4, 39, 64
8, 108480, Note_on_c, 4, 39, 97
8, 108728, Note_off_c, 4, 39, 64
8, 108800, Note_on_c, 4, 39, 95
8, 108932, Note_off_c, 4, 39, 64
8, 108960, Note_on_c, 4, 34, 97
8, 109208, Note_off_c, 4, 34, 64
8, 109280, Note_on_c, 4, 34, 95
8, 109412, Note_off_c, 4, 34, 64
8, 109440, Note_on_c, 4, 34, 121
8, 110128, Note_off_c, 4, 34, 64
8, 110240, Note_on_c, 4, 34, 97
8, 110284, Note_off_c, 4, 34, 64
8, 110400, Note_on_c, 4, 34, 106
8, 111040, Note_on_c, 4, 29, 83
8, 111044, Note_off_c, 4, 34, 64
8, 111196, Note_off_c, 4, 29, 64
8, 111200, Note_on_c, 4, 33, 72
8, 111360, Note_off_c, 4, 33, 64
8, 111360, Note_on_c, 4, 38, 107
8, 112068, Note_off_c, 4, 38, 64
8, 112160, Note_on_c, 4, 38, 87
8, 112200, Note_off_c, 4, 38, 64
8, 112320, Note_on_c, 4, 38, 87
8, 112952, Note_off_c, 4, 38, 64
8, 113120, Note_on_c, 4, 33, 82
8, 113280, Note_off_c, 4, 33, 64
8, 113280, Note_on_c, 4, 38, 107
8, 113988, Note_off_c, 4, 38, 64
8, 114080, Note_on_c, 4, 38, 87
8, 114120, Note_off_c, 4, 38, 64
8, 114240, Note_on_c, 4, 38, 87
8, 114872, Note_off_c, 4, 38, 64
8, 115040, Note_on_c, 4, 33, 82
8, 115200, Note_off_c, 4, 33, 64
8, 115200, Note_on_c, 4, 43, 105
8, 115932, Note_off_c, 4, 43, 64
8, 116000, Note_on_c, 4, 43, 85
8, 116032, Note_off_c, 4, 43, 64
8, 116160, Note_on_c, 4, 43, 105
8, 116756, Note_off_c, 4, 43, 64
8, 116800, Note_on_c, 4, 38, 80
8, 116956, Note_off_c, 4, 38, 64
8, 116960, Note_on_c, 4, 41, 102
8, 117120, Note_off_c, 4, 41, 64
8, 117120, Note_on_c, 4, 43, 89
8, 117828, Note_off_c, 4, 43, 64
8, 117920, Note_on_c, 4, 43, 87
8, 117960, Note_off_c, 4, 43, 64
8, 118080, Note_on_c, 4, 43, 102
8, 118876, Note_off_c, 4, 43, 64
8, 119040, Note_on_c, 4, 43, 93
8, 119688, Note_off_c, 4, 43, 64
8, 119840, Note_on_c, 4, 43, 85
8, 119876, Note_off_c, 4, 43, 64
8, 120000, Note_on_c, 4, 43, 97
8, 120616, Note_off_c, 4, 43, 64
8, 120640, Note_on_c, 4, 38, 73
8, 120800, Note_on_c, 4, 41, 117
8, 120804, Note_off_c, 4, 38, 64
8, 120960, Note_off_c, 4, 41, 64
8, 120960, Note_on_c, 4, 43, 93
8, 121516, Note_off_c, 4, 43, 64
8, 121760, Note_on_c, 4, 43, 113
8, 121796, Note_off_c, 4, 43, 64
8, 121920, Note_on_c, 4, 43, 87
8, 122080, Note_off_c, 4, 43, 64
8, 122080, Note_on_c, 4, 53, 97
8, 122240, Note_on_c, 4, 50, 100
8, 122252, Note_off_c, 4, 53, 64
8, 122392, Note_off_c, 4, 50, 64
8, 122400, Note_on_c, 4, 46, 106
8, 122560, Note_on_c, 4, 45, 97
8, 122584, Note_off_c, 4, 46, 64
8, 122708, Note_off_c, 4, 45, 64
8, 122720, Note_on_c, 4, 43, 87
8, 122860, Note_off_c, 4, 43, 64
8, 122880, Note_on_c, 4, 34, 95
8, 123840, Note_off_c, 4, 34, 64
8, 123840, Note_on_c, 4, 36, 104
8, 124248, Note_off_c, 4, 36, 64
8, 124320, Note_on_c, 4, 36, 85
8, 124576, Note_off_c, 4, 36, 64
8, 124640, Note_on_c, 4, 36, 96
8, 124740, Note_off_c, 4, 36, 64
8, 124800, Note_on_c, 4, 41, 113
8, 125236, Note_off_c, 4, 41, 64
8, 125280, Note_on_c, 4, 36, 86
8, 125488, Note_off_c, 4, 36, 64
8, 125600, Note_on_c, 4, 41, 87
8, 125760, Note_off_c, 4, 41, 64
8, 125760, Note_on_c, 4, 41, 97
8, 126008, Note_off_c, 4, 41, 64
8, 126080, Note_on_c, 4, 41, 95
8, 126212, Note_off_c, 4, 41, 64
8, 126240, Note_on_c, 4, 41, 95
8, 126720, Note_off_c, 4, 41, 64
8, 126720, Note_on_c, 4, 43, 97
8, 127424, Note_off_c, 4, 43, 64
8, 127520, Note_on_c, 4, 43, 94
8, 127648, Note_off_c, 4, 43, 64
8, 127680, Note_on_c, 4, 34, 97
8, 127928, Note_off_c, 4, 34, 64
8, 128000, Note_on_c, 4, 34, 95
8, 128132, Note_off_c, 4, 34, 64
8, 128160, Note_on_c, 4, 43, 97
8, 128408, Note_off_c, 4, 43, 64
8, 128480, Note_on_c, 4, 43, 95
8, 128612, Note_off_c, 4, 43, 64
8, 128640, Note_on_c, 4, 41, 95
8, 129600, Note_off_c, 4, 41, 64
8, 129600, Note_on_c, 4, 41, 97
8, 130304, Note_off_c, 4, 41, 64
8, 130400, Note_on_c, 4, 41, 94
8, 130528, Note_off_c, 4, 41, 64
8, 130560, Note_on_c, 4, 43, 117
8, 131260, Note_off_c, 4, 43, 64
8, 131360, Note_on_c, 4, 43, 92
8, 131400, Note_off_c, 4, 43, 64
8, 131520, Note_on_c, 4, 43, 75
8, 132004, Note_off_c, 4, 43, 64
8, 132004, Note_on_c, 4, 38, 96
8, 132480, Note_off_c, 4, 38, 64
8, 132480, Note_on_c, 4, 43, 95
8, 132960, Note_off_c, 4, 43, 64
8, 132960, Note_on_c, 4, 36, 95
8, 133440, Note_off_c, 4, 36, 64
8, 133440, Note_on_c, 4, 36, 88
8, 133868, Note_off_c, 4, 36, 64
8, 133920, Note_on_c, 4, 36, 103
8, 134348, Note_off_c, 4, 36, 64
8, 134400, Note_on_c, 4, 40, 97
8, 134648, Note_off_c, 4, 40, 64
8, 134720, Note_on_c, 4, 40, 95
8, 134852, Note_off_c, 4, 40, 64
8, 134880, Note_on_c, 4, 41, 95
8, 135360, Note_off_c, 4, 41, 64
8, 135360, Note_on_c, 4, 43, 113
8, 135796, Note_off_c, 4, 43, 64
8, 135840, Note_on_c, 4, 38, 86
8, 136048, Note_off_c, 4, 38, 64
8, 136160, Note_on_c, 4, 43, 87
8, 136320, Note_off_c, 4, 43, 64
8, 136320, Note_on_c, 4, 43, 88
8, 136748, Note_off_c, 4, 43, 64
8, 136800, Note_on_c, 4, 43, 103
8, 137228, Note_off_c, 4, 43, 64
8, 137280, Note_on_c, 4, 41, 104
8, 137688, Note_off_c, 4, 41, 64
8, 137760, Note_on_c, 4, 41, 85
8, 138016, Note_off_c, 4, 41, 64
8, 138080, Note_on_c, 4, 41, 96
8, 138180, Note_off_c, 4, 41, 64
8, 138240, Note_on_c, 4, 34, 107
8, 138932, Note_off_c, 4, 34, 64
8, 139040, Note_on_c, 4, 34, 77
8, 139092, Note_off_c, 4, 34, 64
8, 139200, Note_on_c, 4, 34, 101
8, 139836, Note_off_c, 4, 34, 64
8, 140160, Note_on_c, 4, 34, 97
8, 140864, Note_off_c, 4, 34, 64
8, 140960, Note_on_c, 4, 34, 94
8, 141088, Note_off_c, 4, 34, 64
8, 141120, Note_on_c, 4, 41, 97
8, 141824, Note_off_c, 4, 41, 64
8, 141920, Note_on_c, 4, 41, 94
8, 142048, Note_off_c, 4, 41, 64
8, 142080, Note_on_c, 4, 34, 107
8, 142788, Note_off_c, 4, 34, 64
8, 142880, Note_on_c, 4, 34, 87
8, 142920, Note_off_c, 4, 34, 64
8, 143040, Note_on_c, 4, 34, 87
8, 143672, Note_off_c, 4, 34, 64
8, 143840, Note_on_c, 4, 29, 82
8, 144000, Note_off_c, 4, 29, 64
8, 144000, Note_on_c, 4, 34, 97
8, 144704, Note_off_c, 4, 34, 64
8, 144800, Note_on_c, 4, 34, 94
8, 144928, Note_off_c, 4, 34, 64
8, 144960, Note_on_c, 4, 36, 97
8, 145208, Note_off_c, 4, 36, 64
8, 145280, Note_on_c, 4, 36, 95
8, 145412, Note_off_c, 4, 36, 64
8, 145440, Note_on_c, 4, 41, 95
8, 145920, Note_off_c, 4, 41, 64
8, 145920, Note_on_c, 4, 39, 97
8, 146624, Note_off_c, 4, 39, 64
8, 146720, Note_on_c, 4, 39, 94
8, 146848, Note_off_c, 4, 39, 64
8, 146880, Note_on_c, 4, 39, 95
8, 147360, Note_off_c, 4, 39, 64
8, 147360, Note_on_c, 4, 34, 95
8, 147840, Note_off_c, 4, 34, 64
8, 147840, Note_on_c, 4, 34, 105
8, 148536, Note_off_c, 4, 34, 64
8, 148640, Note_on_c, 4, 34, 82
8, 148676, Note_off_c, 4, 34, 64
8, 148800, Note_on_c, 4, 29, 87
8, 149512, Note_off_c, 4, 29, 64
8, 149600, Note_on_c, 4, 29, 87
8, 149760, Note_off_c, 4, 29, 64
8, 149760, Note_on_c, 4, 41, 117
8, 150460, Note_off_c, 4, 41, 64
8, 150560, Note_on_c, 4, 41, 92
8, 150600, Note_off_c, 4, 41, 64
8, 150720, Note_on_c, 4, 41, 75
8, 151204, Note_off_c, 4, 41, 64
8, 151204, Note_on_c, 4, 36, 96
8, 151680, Note_off_c, 4, 36, 64
8, 151680, Note_on_c, 4, 41, 95
8, 152640, Note_off_c, 4, 41, 64
8, 152640, Note_on_c, 4, 34, 97
8, 153344, Note_off_c, 4, 34, 64
8, 153440, Note_on_c, 4, 34, 94
8, 153568, Note_off_c, 4, 34, 64
8, 153600, Note_on_c, 4, 39, 107
8, 154292, Note_off_c, 4, 39, 64
8, 154400, Note_on_c, 4, 39, 77
8, 154452, Note_off_c, 4, 39, 64
8, 154560, Note_on_c, 4, 39, 101
8, 155196, Note_off_c, 4, 39, 64
8, 155520, Note_on_c, 4, 39, 95
8, 156480, Note_off_c, 4, 39, 64
8, 156480, Note_on_c, 4, 39, 95
8, 156960, Note_off_c, 4, 39, 64
8, 156960, Note_on_c, 4, 39, 97
8, 157208, Note_off_c, 4, 39, 64
8, 157280, Note_on_c, 4, 39, 95
8, 157412, Note_off_c, 4, 39, 64
8, 157440, Note_on_c, 4, 34, 107
8, 158132, Note_off_c, 4, 34, 64
8, 158240, Note_on_c, 4, 34, 77
8, 158292, Note_off_c, 4, 34, 64
8, 158400, Note_on_c, 4, 34, 101
8, 159036, Note_off_c, 4, 34, 64
8, 159360, Note_on_c, 4, 34, 88
8, 159788, Note_off_c, 4, 34, 64
8, 159840, Note_on_c, 4, 34, 103
8, 160268, Note_off_c, 4, 34, 64
8, 160320, Note_on_c, 4, 41, 115
8, 160968, Note_off_c, 4, 41, 64
8, 160968, Note_on_c, 4, 36, 86
8, 161120, Note_on_c, 4, 39, 86
8, 161136, Note_off_c, 4, 36, 64
8, 161276, Note_off_c, 4, 39, 64
8, 161280, Note_on_c, 4, 39, 100
8, 161996, Note_off_c, 4, 39, 64
8, 162080, Note_on_c, 4, 39, 85
8, 162164, Note_off_c, 4, 39, 64
8, 162240, Note_on_c, 4, 31, 100
8, 162720, Note_on_c, 4, 34, 95
8, 162724, Note_off_c, 4, 31, 64
8, 163152, Note_off_c, 4, 34, 64
8, 163200, Note_on_c, 4, 39, 113
8, 163636, Note_off_c, 4, 39, 64
8, 163680, Note_on_c, 4, 34, 86
8, 163888, Note_off_c, 4, 34, 64
8, 164000, Note_on_c, 4, 39, 87
8, 164160, Note_off_c, 4, 39, 64
8, 164160, Note_on_c, 4, 41, 104
8, 164568, Note_off_c, 4, 41, 64
8, 164640, Note_on_c, 4, 41, 85
8, 164896, Note_off_c, 4, 41, 64
8, 164960, Note_on_c, 4, 41, 96
8, 165060, Note_off_c, 4, 41, 64
8, 165120, Note_on_c, 4, 34, 117
8, 165820, Note_off_c, 4, 34, 64
8, 165920, Note_on_c, 4, 34, 92
8, 165960, Note_off_c, 4, 34, 64
8, 166080, Note_on_c, 4, 34, 75
8, 166564, Note_off_c, 4, 34, 64
8, 166564, Note_on_c, 4, 29, 96
8, 167040, Note_off_c, 4, 29, 64
8, 167040, Note_on_c, 4, 43, 118
8, 167740, Note_off_c, 4, 43, 64
8, 167840, Note_on_c, 4, 43, 86
8, 168000, Note_on_c, 4, 41, 109
8, 168012, Note_off_c, 4, 43, 64
8, 168480, Note_off_c, 4, 41, 64
8, 168480, Note_on_c, 4, 40, 88
8, 168740, Note_off_c, 4, 40, 64
8, 168800, Note_on_c, 4, 38, 78
8, 168960, Note_off_c, 4, 38, 64
8, 168960, Note_on_c, 4, 34, 88
8, 169388, Note_off_c, 4, 34, 64
8, 169440, Note_on_c, 4, 34, 103
8, 169868, Note_off_c, 4, 34, 64
8, 169920, Note_on_c, 4, 43, 115
8, 170568, Note_off_c, 4, 43, 64
8, 170568, Note_on_c, 4, 38, 86
8, 170720, Note_on_c, 4, 41, 86
8, 170736, Note_off_c, 4, 38, 64
8, 170876, Note_off_c, 4, 41, 64
8, 170880, Note_on_c, 4, 36, 95
8, 171840, Note_off_c, 4, 36, 64
8, 171840, Note_on_c, 4, 41, 115
8, 172488, Note_off_c, 4, 41, 64
8, 172488, Note_on_c, 4, 36, 86
8, 172640, Note_on_c, 4, 39, 86
8, 172656, Note_off_c, 4, 36, 64
8, 172796, Note_off_c, 4, 39, 64
8, 172800, Note_on_c, 4, 34, 100
8, 173516, Note_off_c, 4, 34, 64
8, 173600, Note_on_c, 4, 34, 85
8, 173684, Note_off_c, 4, 34, 64
8, 173760, Note_on_c, 4, 26, 100
8, 174240, Note_on_c, 4, 29, 95
8, 174244, Note_off_c, 4, 26, 64
8, 174672, Note_off_c, 4, 29, 64
8, 174720, Note_on_c, 4, 34, 88
8, 175148, Note_off_c, 4, 34, 64
8, 175200, Note_on_c, 4, 34, 103
8, 175628, Note_off_c, 4, 34, 64
8, 175680, Note_on_c, 4, 34, 97
8, 176384, Note_off_c, 4, 34, 64
8, 176480, Note_on_c, 4, 34, 94
8, 176608, Note_off_c, 4, 34, 64
8, 176640, Note_on_c, 4, 39, 117
8, 177340, Note_off_c, 4, 39, 64
8, 177440, Note_on_c, 4, 39, 92
8, 177480, Note_off_c, 4, 39, 64
8, 177600, Note_on_c, 4, 39, 75
8, 178084, Note_off_c, 4, 39, 64
8, 178084, Note_on_c, 4, 34, 96
8, 178560, Note_off_c, 4, 34, 64
8, 178560, Note_on_c, 4, 39, 97
8, 179264, Note_off_c, 4, 39, 64
8, 179360, Note_on_c, 4, 39, 94
8, 179488, Note_off_c, 4, 39, 64
8, 179520, Note_on_c, 4, 39, 104
8, 179928, Note_off_c, 4, 39, 64
8, 180000, Note_on_c, 4, 39, 85
8, 180256, Note_off_c, 4, 39, 64
8, 180320, Note_on_c, 4, 39, 96
8, 180420, Note_off_c, 4, 39, 64
8, 180480, Note_on_c, 4, 39, 113
8, 180916, Note_off_c, 4, 39, 64
8, 180960, Note_on_c, 4, 34, 86
8, 181168, Note_off_c, 4, 34, 64
8, 181280, Note_on_c, 4, 39, 87
8, 181440, Note_off_c, 4, 39, 64
8, 181440, Note_on_c, 4, 39, 95
8, 181920, Note_off_c, 4, 39, 64
8, 181920, Note_on_c, 4, 34, 97
8, 182168, Note_off_c, 4, 34, 64
8, 182240, Note_on_c, 4, 34, 95
8, 182372, Note_off_c, 4, 34, 64
8, 182400, Note_on_c, 4, 36, 100
8, 183116, Note_off_c, 4, 36, 64
8, 183200, Note_on_c, 4, 36, 85
8, 183284, Note_off_c, 4, 36, 64
8, 183360, Note_on_c, 4, 27, 100
8, 183840, Note_on_c, 4, 31, 95
8, 183844, Note_off_c, 4, 27, 64
8, 184272, Note_off_c, 4, 31, 64
8, 184320, Note_on_c, 4, 34, 100
8, 185016, Note_off_c, 4, 34, 64
8, 185120, Note_on_c, 4, 34, 70
8, 185180, Note_off_c, 4, 34, 64
8, 185280, Note_on_c, 4, 34, 82
8, 185944, Note_off_c, 4, 34, 64
8, 185944, Note_on_c, 4, 29, 64
8, 186080, Note_on_c, 4, 34, 74
8, 186108, Note_off_c, 4, 29, 64
8, 186240, Note_on_c, 4, 34, 76
8, 186244, Note_off_c, 4, 34, 64
8, 187944, Note_off_c, 4, 34, 64
8, 187944, End_track
9, 0, Start_track
9, 0, Title_t, "Drums   (BB)"
9, 0, MIDI_port, 0
9, 0, Channel_prefix, 9
9, 0, Control_c, 9, 7, 127
9, 0, Control_c, 9, 10, 64
9, 0, Control_c, 9, 91, 39
9, 0, Program_c, 9, 32
9, 0, Control_c, 9, 123, 0
9, 0, Note_on_c, 9, 37, 84
9, 480, Note_off_c, 9, 37, 64
9, 960, Note_on_c, 9, 37, 84
9, 1440, Note_off_c, 9, 37, 64
9, 1920, Note_on_c, 9, 37, 64
9, 2400, Note_off_c, 9, 37, 64
9, 2400, Note_on_c, 9, 37, 84
9, 2880, Note_off_c, 9, 37, 64
9, 2880, Note_on_c, 9, 37, 64
9, 3360, Note_off_c, 9, 37, 64
9, 3360, Note_on_c, 9, 37, 84
9, 3840, Note_off_c, 9, 37, 64
9, 3840, Note_on_c, 9, 35, 90
9, 3840, Note_on_c, 9, 42, 90
9, 3840, Note_on_c, 9, 49, 100
9, 3940, Note_off_c, 9, 49, 64
9, 3940, Note_off_c, 9, 42, 64
9, 3940, Note_off_c, 9, 35, 64
9, 4000, Note_on_c, 9, 42, 60
9, 4100, Note_off_c, 9, 42, 64
9, 4160, Note_on_c, 9, 42, 80
9, 4260, Note_off_c, 9, 42, 64
9, 4320, Note_on_c, 9, 38, 100
9, 4320, Note_on_c, 9, 42, 60
9, 4420, Note_off_c, 9, 42, 64
9, 4420, Note_off_c, 9, 38, 64
9, 4480, Note_on_c, 9, 42, 80
9, 4580, Note_off_c, 9, 42, 64
9, 4640, Note_on_c, 9, 35, 80
9, 4640, Note_on_c, 9, 42, 60
9, 4740, Note_off_c, 9, 42, 64
9, 4740, Note_off_c, 9, 35, 64
9, 4800, Note_on_c, 9, 35, 90
9, 4800, Note_on_c, 9, 42, 80
9, 4900, Note_off_c, 9, 42, 64
9, 4900, Note_off_c, 9, 35, 64
9, 4960, Note_on_c, 9, 42, 60
9, 5060, Note_off_c, 9, 42, 64
9, 5120, Note_on_c, 9, 42, 80
9, 5220, Note_off_c, 9, 42, 64
9, 5280, Note_on_c, 9, 38, 100
9, 5280, Note_on_c, 9, 42, 60
9, 5380, Note_off_c, 9, 42, 64
9, 5380, Note_off_c, 9, 38, 64
9, 5440, Note_on_c, 9, 42, 80
9, 5540, Note_off_c, 9, 42, 64
9, 5600, Note_on_c, 9, 42, 60
9, 5700, Note_off_c, 9, 42, 64
9, 5760, Note_on_c, 9, 35, 90
9, 5760, Note_on_c, 9, 42, 90
9, 5860, Note_off_c, 9, 42, 64
9, 5860, Note_off_c, 9, 35, 64
9, 5920, Note_on_c, 9, 42, 60
9, 6020, Note_off_c, 9, 42, 64
9, 6080, Note_on_c, 9, 42, 80
9, 6180, Note_off_c, 9, 42, 64
9, 6240, Note_on_c, 9, 38, 100
9, 6240, Note_on_c, 9, 42, 60
9, 6340, Note_off_c, 9, 42, 64
9, 6340, Note_off_c, 9, 38, 64
9, 6400, Note_on_c, 9, 42, 80
9, 6500, Note_off_c, 9, 42, 64
9, 6560, Note_on_c, 9, 35, 80
9, 6560, Note_on_c, 9, 42, 60
9, 6660, Note_off_c, 9, 42, 64
9, 6660, Note_off_c, 9, 35, 64
9, 6720, Note_on_c, 9, 35, 90
9, 6720, Note_on_c, 9, 42, 80
9, 6820, Note_off_c, 9, 42, 64
9, 6820, Note_off_c, 9, 35, 64
9, 6880, Note_on_c, 9, 42, 60
9, 6980, Note_off_c, 9, 42, 64
9, 7040, Note_on_c, 9, 42, 80
9, 7140, Note_off_c, 9, 42, 64
9, 7200, Note_on_c, 9, 38, 100
9, 7200, Note_on_c, 9, 42, 60
9, 7300, Note_off_c, 9, 42, 64
9, 7300, Note_off_c, 9, 38, 64
9, 7360, Note_on_c, 9, 42, 80
9, 7460, Note_off_c, 9, 42, 64
9, 7520, Note_on_c, 9, 35, 80
9, 7520, Note_on_c, 9, 42, 60
9, 7620, Note_off_c, 9, 42, 64
9, 7620, Note_off_c, 9, 35, 64
9, 7680, Note_on_c, 9, 35, 90
9, 7680, Note_on_c, 9, 42, 90
9, 7780, Note_off_c, 9, 42, 64
9, 7780, Note_off_c, 9, 35, 64
9, 7840, Note_on_c, 9, 42, 60
9, 7940, Note_off_c, 9, 42, 64
9, 8000, Note_on_c, 9, 42, 80
9, 8100, Note_off_c, 9, 42, 64
9, 8160, Note_on_c, 9, 38, 100
9, 8160, Note_on_c, 9, 42, 60
9, 8260, Note_off_c, 9, 42, 64
9, 8260, Note_off_c, 9, 38, 64
9, 8320, Note_on_c, 9, 42, 80
9, 8420, Note_off_c, 9, 42, 64
9, 8480, Note_on_c, 9, 35, 80
9, 8480, Note_on_c, 9, 42, 60
9, 8580, Note_off_c, 9, 42, 64
9, 8580, Note_off_c, 9, 35, 64
9, 8640, Note_on_c, 9, 35, 90
9, 8640, Note_on_c, 9, 42, 80
9, 8740, Note_off_c, 9, 42, 64
9, 8740, Note_off_c, 9, 35, 64
9, 8800, Note_on_c, 9, 42, 60
9, 8900, Note_off_c, 9, 42, 64
9, 8960, Note_on_c, 9, 42, 80
9, 9060, Note_off_c, 9, 42, 64
9, 9120, Note_on_c, 9, 38, 100
9, 9120, Note_on_c, 9, 42, 60
9, 9220, Note_off_c, 9, 42, 64
9, 9220, Note_off_c, 9, 38, 64
9, 9280, Note_on_c, 9, 42, 80
9, 9380, Note_off_c, 9, 42, 64
9, 9440, Note_on_c, 9, 35, 80
9, 9440, Note_on_c, 9, 42, 60
9, 9540, Note_off_c, 9, 42, 64
9, 9540, Note_off_c, 9, 35, 64
9, 9600, Note_on_c, 9, 35, 90
9, 9600, Note_on_c, 9, 42, 90
9, 9700, Note_off_c, 9, 42, 64
9, 9700, Note_off_c, 9, 35, 64
9, 9760, Note_on_c, 9, 38, 100
9, 9760, Note_on_c, 9, 42, 60
9, 9860, Note_off_c, 9, 42, 64
9, 9860, Note_off_c, 9, 38, 64
9, 9920, Note_on_c, 9, 35, 90
9, 9920, Note_on_c, 9, 42, 80
9, 10020, Note_off_c, 9, 42, 64
9, 10020, Note_off_c, 9, 35, 64
9, 10080, Note_on_c, 9, 38, 100
9, 10080, Note_on_c, 9, 42, 60
9, 10180, Note_off_c, 9, 42, 64
9, 10180, Note_off_c, 9, 38, 64
9, 10240, Note_on_c, 9, 35, 90
9, 10240, Note_on_c, 9, 42, 80
9, 10340, Note_off_c, 9, 42, 64
9, 10340, Note_off_c, 9, 35, 64
9, 10400, Note_on_c, 9, 38, 100
9, 10400, Note_on_c, 9, 42, 60
9, 10500, Note_off_c, 9, 42, 64
9, 10500, Note_off_c, 9, 38, 64
9, 10560, Note_on_c, 9, 35, 90
9, 10560, Note_on_c, 9, 42, 80
9, 10660, Note_off_c, 9, 42, 64
9, 10660, Note_off_c, 9, 35, 64
9, 10720, Note_on_c, 9, 42, 60
9, 10720, Note_on_c, 9, 48, 100
9, 10820, Note_off_c, 9, 48, 64
9, 10820, Note_off_c, 9, 42, 64
9, 10880, Note_on_c, 9, 42, 80
9, 10980, Note_off_c, 9, 42, 64
9, 11040, Note_on_c, 9, 42, 60
9, 11040, Note_on_c, 9, 45, 100
9, 11140, Note_off_c, 9, 45, 64
9, 11140, Note_off_c, 9, 42, 64
9, 11200, Note_on_c, 9, 42, 80
9, 11200, Note_on_c, 9, 41, 100
9, 11300, Note_off_c, 9, 41, 64
9, 11300, Note_off_c, 9, 42, 64
9, 11360, Note_on_c, 9, 35, 80
9, 11360, Note_on_c, 9, 42, 60
9, 11460, Note_off_c, 9, 42, 64
9, 11460, Note_off_c, 9, 35, 64
9, 11520, Note_on_c, 9, 35, 90
9, 11520, Note_on_c, 9, 49, 90
9, 11620, Note_off_c, 9, 49, 64
9, 11620, Note_off_c, 9, 35, 64
9, 11680, Note_on_c, 9, 42, 60
9, 11780, Note_off_c, 9, 42, 64
9, 11840, Note_on_c, 9, 42, 80
9, 11940, Note_off_c, 9, 42, 64
9, 12000, Note_on_c, 9, 42, 60
9, 12000, Note_on_c, 9, 37, 100
9, 12100, Note_off_c, 9, 37, 64
9, 12100, Note_off_c, 9, 42, 64
9, 12160, Note_on_c, 9, 42, 80
9, 12260, Note_off_c, 9, 42, 64
9, 12320, Note_on_c, 9, 35, 80
9, 12320, Note_on_c, 9, 42, 60
9, 12420, Note_off_c, 9, 42, 64
9, 12420, Note_off_c, 9, 35, 64
9, 12480, Note_on_c, 9, 35, 90
9, 12480, Note_on_c, 9, 42, 80
9, 12580, Note_off_c, 9, 42, 64
9, 12580, Note_off_c, 9, 35, 64
9, 12640, Note_on_c, 9, 42, 60
9, 12740, Note_off_c, 9, 42, 64
9, 12800, Note_on_c, 9, 42, 80
9, 12900, Note_off_c, 9, 42, 64
9, 12960, Note_on_c, 9, 42, 60
9, 12960, Note_on_c, 9, 37, 100
9, 13060, Note_off_c, 9, 37, 64
9, 13060, Note_off_c, 9, 42, 64
9, 13120, Note_on_c, 9, 42, 80
9, 13220, Note_off_c, 9, 42, 64
9, 13280, Note_on_c, 9, 42, 60
9, 13380, Note_off_c, 9, 42, 64
9, 13440, Note_on_c, 9, 35, 90
9, 13440, Note_on_c, 9, 42, 90
9, 13540, Note_off_c, 9, 42, 64
9, 13540, Note_off_c, 9, 35, 64
9, 13600, Note_on_c, 9, 42, 75
9, 13700, Note_off_c, 9, 42, 64
9, 13760, Note_on_c, 9, 42, 66
9, 13860, Note_off_c, 9, 42, 64
9, 13920, Note_on_c, 9, 42, 90
9, 13920, Note_on_c, 9, 37, 100
9, 14020, Note_off_c, 9, 37, 64
9, 14020, Note_off_c, 9, 42, 64
9, 14080, Note_on_c, 9, 42, 100
9, 14180, Note_off_c, 9, 42, 64
9, 14240, Note_on_c, 9, 35, 80
9, 14240, Note_on_c, 9, 42, 60
9, 14340, Note_off_c, 9, 42, 64
9, 14340, Note_off_c, 9, 35, 64
9, 14400, Note_on_c, 9, 35, 90
9, 14400, Note_on_c, 9, 42, 80
9, 14500, Note_off_c, 9, 42, 64
9, 14500, Note_off_c, 9, 35, 64
9, 14560, Note_on_c, 9, 42, 60
9, 14660, Note_off_c, 9, 42, 64
9, 14720, Note_on_c, 9, 42, 80
9, 14820, Note_off_c, 9, 42, 64
9, 14880, Note_on_c, 9, 42, 60
9, 14880, Note_on_c, 9, 37, 100
9, 14980, Note_off_c, 9, 37, 64
9, 14980, Note_off_c, 9, 42, 64
9, 15040, Note_on_c, 9, 42, 80
9, 15140, Note_off_c, 9, 42, 64
9, 15200, Note_on_c, 9, 35, 80
9, 15200, Note_on_c, 9, 46, 80
9, 15300, Note_off_c, 9, 46, 64
9, 15300, Note_off_c, 9, 35, 64
9, 15360, Note_on_c, 9, 35, 90
9, 15360, Note_on_c, 9, 42, 90
9, 15460, Note_off_c, 9, 42, 64
9, 15460, Note_off_c, 9, 35, 64
9, 15520, Note_on_c, 9, 42, 80
9, 15620, Note_off_c, 9, 42, 64
9, 15680, Note_on_c, 9, 42, 70
9, 15780, Note_off_c, 9, 42, 64
9, 15840, Note_on_c, 9, 42, 60
9, 15840, Note_on_c, 9, 37, 100
9, 15940, Note_off_c, 9, 37, 64
9, 15940, Note_off_c, 9, 42, 64
9, 16000, Note_on_c, 9, 42, 80
9, 16100, Note_off_c, 9, 42, 64
9, 16160, Note_on_c, 9, 35, 80
9, 16160, Note_on_c, 9, 42, 60
9, 16260, Note_off_c, 9, 42, 64
9, 16260, Note_off_c, 9, 35, 64
9, 16320, Note_on_c, 9, 35, 90
9, 16320, Note_on_c, 9, 42, 80
9, 16420, Note_off_c, 9, 42, 64
9, 16420, Note_off_c, 9, 35, 64
9, 16480, Note_on_c, 9, 42, 90
9, 16580, Note_off_c, 9, 42, 64
9, 16640, Note_on_c, 9, 42, 70
9, 16740, Note_off_c, 9, 42, 64
9, 16800, Note_on_c, 9, 42, 60
9, 16800, Note_on_c, 9, 37, 100
9, 16900, Note_off_c, 9, 37, 64
9, 16900, Note_off_c, 9, 42, 64
9, 16960, Note_on_c, 9, 42, 80
9, 17060, Note_off_c, 9, 42, 64
9, 17120, Note_on_c, 9, 42, 60
9, 17220, Note_off_c, 9, 42, 64
9, 17280, Note_on_c, 9, 35, 90
9, 17280, Note_on_c, 9, 42, 95
9, 17380, Note_off_c, 9, 42, 64
9, 17380, Note_off_c, 9, 35, 64
9, 17440, Note_on_c, 9, 42, 80
9, 17540, Note_off_c, 9, 42, 64
9, 17600, Note_on_c, 9, 42, 60
9, 17700, Note_off_c, 9, 42, 64
9, 17760, Note_on_c, 9, 42, 60
9, 17760, Note_on_c, 9, 37, 100
9, 17860, Note_off_c, 9, 37, 64
9, 17860, Note_off_c, 9, 42, 64
9, 17920, Note_on_c, 9, 42, 90
9, 18020, Note_off_c, 9, 42, 64
9, 18080, Note_on_c, 9, 35, 80
9, 18080, Note_on_c, 9, 42, 80
9, 18180, Note_off_c, 9, 42, 64
9, 18180, Note_off_c, 9, 35, 64
9, 18240, Note_on_c, 9, 35, 90
9, 18240, Note_on_c, 9, 42, 70
9, 18340, Note_off_c, 9, 42, 64
9, 18340, Note_off_c, 9, 35, 64
9, 18400, Note_on_c, 9, 42, 100
9, 18500, Note_off_c, 9, 42, 64
9, 18560, Note_on_c, 9, 42, 80
9, 18660, Note_off_c, 9, 42, 64
9, 18720, Note_on_c, 9, 42, 60
9, 18720, Note_on_c, 9, 37, 100
9, 18820, Note_off_c, 9, 37, 64
9, 18820, Note_off_c, 9, 42, 64
9, 18880, Note_on_c, 9, 42, 80
9, 18980, Note_off_c, 9, 42, 64
9, 19040, Note_on_c, 9, 35, 80
9, 19040, Note_on_c, 9, 42, 60
9, 19140, Note_off_c, 9, 42, 64
9, 19140, Note_off_c, 9, 35, 64
9, 19200, Note_on_c, 9, 35, 90
9, 19200, Note_on_c, 9, 42, 90
9, 19300, Note_off_c, 9, 42, 64
9, 19300, Note_off_c, 9, 35, 64
9, 19360, Note_on_c, 9, 42, 60
9, 19460, Note_off_c, 9, 42, 64
9, 19520, Note_on_c, 9, 42, 80
9, 19620, Note_off_c, 9, 42, 64
9, 19680, Note_on_c, 9, 42, 60
9, 19680, Note_on_c, 9, 37, 100
9, 19780, Note_off_c, 9, 37, 64
9, 19780, Note_off_c, 9, 42, 64
9, 19840, Note_on_c, 9, 42, 80
9, 19940, Note_off_c, 9, 42, 64
9, 20000, Note_on_c, 9, 35, 80
9, 20000, Note_on_c, 9, 42, 60
9, 20100, Note_off_c, 9, 42, 64
9, 20100, Note_off_c, 9, 35, 64
9, 20160, Note_on_c, 9, 35, 90
9, 20160, Note_on_c, 9, 42, 80
9, 20260, Note_off_c, 9, 42, 64
9, 20260, Note_off_c, 9, 35, 64
9, 20320, Note_on_c, 9, 42, 60
9, 20420, Note_off_c, 9, 42, 64
9, 20480, Note_on_c, 9, 42, 80
9, 20580, Note_off_c, 9, 42, 64
9, 20640, Note_on_c, 9, 42, 60
9, 20640, Note_on_c, 9, 37, 100
9, 20740, Note_off_c, 9, 37, 64
9, 20740, Note_off_c, 9, 42, 64
9, 20800, Note_on_c, 9, 42, 80
9, 20900, Note_off_c, 9, 42, 64
9, 20960, Note_on_c, 9, 42, 60
9, 21060, Note_off_c, 9, 42, 64
9, 21120, Note_on_c, 9, 35, 90
9, 21120, Note_on_c, 9, 42, 90
9, 21220, Note_off_c, 9, 42, 64
9, 21220, Note_off_c, 9, 35, 64
9, 21280, Note_on_c, 9, 42, 75
9, 21380, Note_off_c, 9, 42, 64
9, 21440, Note_on_c, 9, 42, 66
9, 21540, Note_off_c, 9, 42, 64
9, 21600, Note_on_c, 9, 42, 90
9, 21600, Note_on_c, 9, 37, 100
9, 21700, Note_off_c, 9, 37, 64
9, 21700, Note_off_c, 9, 42, 64
9, 21760, Note_on_c, 9, 42, 100
9, 21860, Note_off_c, 9, 42, 64
9, 21920, Note_on_c, 9, 35, 80
9, 21920, Note_on_c, 9, 42, 60
9, 22020, Note_off_c, 9, 42, 64
9, 22020, Note_off_c, 9, 35, 64
9, 22080, Note_on_c, 9, 35, 90
9, 22080, Note_on_c, 9, 42, 80
9, 22180, Note_off_c, 9, 42, 64
9, 22180, Note_off_c, 9, 35, 64
9, 22240, Note_on_c, 9, 42, 60
9, 22340, Note_off_c, 9, 42, 64
9, 22400, Note_on_c, 9, 42, 80
9, 22500, Note_off_c, 9, 42, 64
9, 22560, Note_on_c, 9, 42, 60
9, 22560, Note_on_c, 9, 37, 100
9, 22660, Note_off_c, 9, 37, 64
9, 22660, Note_off_c, 9, 42, 64
9, 22720, Note_on_c, 9, 42, 80
9, 22820, Note_off_c, 9, 42, 64
9, 22880, Note_on_c, 9, 35, 80
9, 22880, Note_on_c, 9, 46, 80
9, 22980, Note_off_c, 9, 46, 64
9, 22980, Note_off_c, 9, 35, 64
9, 23040, Note_on_c, 9, 35, 90
9, 23040, Note_on_c, 9, 42, 90
9, 23140, Note_off_c, 9, 42, 64
9, 23140, Note_off_c, 9, 35, 64
9, 23200, Note_on_c, 9, 42, 60
9, 23300, Note_off_c, 9, 42, 64
9, 23360, Note_on_c, 9, 42, 80
9, 23460, Note_off_c, 9, 42, 64
9, 23520, Note_on_c, 9, 42, 60
9, 23520, Note_on_c, 9, 37, 100
9, 23620, Note_off_c, 9, 37, 64
9, 23620, Note_off_c, 9, 42, 64
9, 23680, Note_on_c, 9, 42, 80
9, 23780, Note_off_c, 9, 42, 64
9, 23840, Note_on_c, 9, 35, 80
9, 23840, Note_on_c, 9, 42, 60
9, 23940, Note_off_c, 9, 42, 64
9, 23940, Note_off_c, 9, 35, 64
9, 24000, Note_on_c, 9, 35, 90
9, 24000, Note_on_c, 9, 42, 80
9, 24100, Note_off_c, 9, 42, 64
9, 24100, Note_off_c, 9, 35, 64
9, 24160, Note_on_c, 9, 42, 60
9, 24260, Note_off_c, 9, 42, 64
9, 24320, Note_on_c, 9, 42, 80
9, 24420, Note_off_c, 9, 42, 64
9, 24480, Note_on_c, 9, 42, 60
9, 24480, Note_on_c, 9, 37, 100
9, 24580, Note_off_c, 9, 37, 64
9, 24580, Note_off_c, 9, 42, 64
9, 24640, Note_on_c, 9, 42, 80
9, 24740, Note_off_c, 9, 42, 64
9, 24800, Note_on_c, 9, 42, 60
9, 24900, Note_off_c, 9, 42, 64
9, 24960, Note_on_c, 9, 35, 90
9, 24960, Note_on_c, 9, 42, 90
9, 25060, Note_off_c, 9, 42, 64
9, 25060, Note_off_c, 9, 35, 64
9, 25120, Note_on_c, 9, 42, 60
9, 25220, Note_off_c, 9, 42, 64
9, 25280, Note_on_c, 9, 42, 80
9, 25380, Note_off_c, 9, 42, 64
9, 25440, Note_on_c, 9, 38, 100
9, 25440, Note_on_c, 9, 42, 60
9, 25540, Note_off_c, 9, 42, 64
9, 25540, Note_off_c, 9, 38, 64
9, 25600, Note_on_c, 9, 42, 80
9, 25700, Note_off_c, 9, 42, 64
9, 25760, Note_on_c, 9, 35, 80
9, 25760, Note_on_c, 9, 42, 60
9, 25860, Note_off_c, 9, 42, 64
9, 25860, Note_off_c, 9, 35, 64
9, 25920, Note_on_c, 9, 35, 90
9, 25920, Note_on_c, 9, 42, 80
9, 26020, Note_off_c, 9, 42, 64
9, 26020, Note_off_c, 9, 35, 64
9, 26080, Note_on_c, 9, 42, 60
9, 26180, Note_off_c, 9, 42, 64
9, 26240, Note_on_c, 9, 42, 80
9, 26340, Note_off_c, 9, 42, 64
9, 26400, Note_on_c, 9, 38, 100
9, 26500, Note_off_c, 9, 38, 64
9, 26560, Note_on_c, 9, 38, 90
9, 26660, Note_off_c, 9, 38, 64
9, 26880, Note_on_c, 9, 35, 90
9, 26880, Note_on_c, 9, 49, 90
9, 26980, Note_off_c, 9, 49, 64
9, 26980, Note_off_c, 9, 35, 64
9, 27040, Note_on_c, 9, 42, 60
9, 27140, Note_off_c, 9, 42, 64
9, 27200, Note_on_c, 9, 42, 80
9, 27300, Note_off_c, 9, 42, 64
9, 27360, Note_on_c, 9, 42, 60
9, 27360, Note_on_c, 9, 37, 100
9, 27460, Note_off_c, 9, 37, 64
9, 27460, Note_off_c, 9, 42, 64
9, 27520, Note_on_c, 9, 42, 80
9, 27620, Note_off_c, 9, 42, 64
9, 27680, Note_on_c, 9, 35, 80
9, 27680, Note_on_c, 9, 42, 60
9, 27780, Note_off_c, 9, 42, 64
9, 27780, Note_off_c, 9, 35, 64
9, 27840, Note_on_c, 9, 35, 90
9, 27840, Note_on_c, 9, 42, 80
9, 27940, Note_off_c, 9, 42, 64
9, 27940, Note_off_c, 9, 35, 64
9, 28000, Note_on_c, 9, 42, 60
9, 28100, Note_off_c, 9, 42, 64
9, 28160, Note_on_c, 9, 42, 80
9, 28260, Note_off_c, 9, 42, 64
9, 28320, Note_on_c, 9, 42, 60
9, 28320, Note_on_c, 9, 37, 100
9, 28420, Note_off_c, 9, 37, 64
9, 28420, Note_off_c, 9, 42, 64
9, 28480, Note_on_c, 9, 42, 80
9, 28580, Note_off_c, 9, 42, 64
9, 28640, Note_on_c, 9, 42, 60
9, 28740, Note_off_c, 9, 42, 64
9, 28800, Note_on_c, 9, 35, 90
9, 28800, Note_on_c, 9, 42, 95
9, 28900, Note_off_c, 9, 42, 64
9, 28900, Note_off_c, 9, 35, 64
9, 28960, Note_on_c, 9, 42, 80
9, 29060, Note_off_c, 9, 42, 64
9, 29120, Note_on_c, 9, 42, 60
9, 29220, Note_off_c, 9, 42, 64
9, 29280, Note_on_c, 9, 42, 60
9, 29280, Note_on_c, 9, 37, 100
9, 29380, Note_off_c, 9, 37, 64
9, 29380, Note_off_c, 9, 42, 64
9, 29440, Note_on_c, 9, 42, 90
9, 29540, Note_off_c, 9, 42, 64
9, 29600, Note_on_c, 9, 35, 80
9, 29600, Note_on_c, 9, 42, 80
9, 29700, Note_off_c, 9, 42, 64
9, 29700, Note_off_c, 9, 35, 64
9, 29760, Note_on_c, 9, 35, 90
9, 29760, Note_on_c, 9, 42, 70
9, 29860, Note_off_c, 9, 42, 64
9, 29860, Note_off_c, 9, 35, 64
9, 29920, Note_on_c, 9, 42, 100
9, 30020, Note_off_c, 9, 42, 64
9, 30080, Note_on_c, 9, 42, 80
9, 30180, Note_off_c, 9, 42, 64
9, 30240, Note_on_c, 9, 42, 60
9, 30240, Note_on_c, 9, 37, 100
9, 30340, Note_off_c, 9, 37, 64
9, 30340, Note_off_c, 9, 42, 64
9, 30400, Note_on_c, 9, 42, 80
9, 30500, Note_off_c, 9, 42, 64
9, 30560, Note_on_c, 9, 35, 80
9, 30560, Note_on_c, 9, 42, 60
9, 30660, Note_off_c, 9, 42, 64
9, 30660, Note_off_c, 9, 35, 64
9, 30720, Note_on_c, 9, 35, 90
9, 30720, Note_on_c, 9, 42, 90
9, 30820, Note_off_c, 9, 42, 64
9, 30820, Note_off_c, 9, 35, 64
9, 30880, Note_on_c, 9, 42, 80
9, 30980, Note_off_c, 9, 42, 64
9, 31040, Note_on_c, 9, 42, 70
9, 31140, Note_off_c, 9, 42, 64
9, 31200, Note_on_c, 9, 42, 60
9, 31200, Note_on_c, 9, 37, 100
9, 31300, Note_off_c, 9, 37, 64
9, 31300, Note_off_c, 9, 42, 64
9, 31360, Note_on_c, 9, 42, 80
9, 31460, Note_off_c, 9, 42, 64
9, 31520, Note_on_c, 9, 35, 80
9, 31520, Note_on_c, 9, 42, 60
9, 31620, Note_off_c, 9, 42, 64
9, 31620, Note_off_c, 9, 35, 64
9, 31680, Note_on_c, 9, 35, 90
9, 31680, Note_on_c, 9, 42, 80
9, 31780, Note_off_c, 9, 42, 64
9, 31780, Note_off_c, 9, 35, 64
9, 31840, Note_on_c, 9, 42, 90
9, 31940, Note_off_c, 9, 42, 64
9, 32000, Note_on_c, 9, 42, 70
9, 32100, Note_off_c, 9, 42, 64
9, 32160, Note_on_c, 9, 42, 60
9, 32160, Note_on_c, 9, 37, 100
9, 32260, Note_off_c, 9, 37, 64
9, 32260, Note_off_c, 9, 42, 64
9, 32320, Note_on_c, 9, 42, 80
9, 32420, Note_off_c, 9, 42, 64
9, 32480, Note_on_c, 9, 42, 60
9, 32580, Note_off_c, 9, 42, 64
9, 32640, Note_on_c, 9, 35, 90
9, 32640, Note_on_c, 9, 42, 90
9, 32740, Note_off_c, 9, 42, 64
9, 32740, Note_off_c, 9, 35, 64
9, 32800, Note_on_c, 9, 42, 75
9, 32900, Note_off_c, 9, 42, 64
9, 32960, Note_on_c, 9, 42, 66
9, 33060, Note_off_c, 9, 42, 64
9, 33120, Note_on_c, 9, 42, 90
9, 33120, Note_on_c, 9, 37, 100
9, 33220, Note_off_c, 9, 37, 64
9, 33220, Note_off_c, 9, 42, 64
9, 33280, Note_on_c, 9, 42, 100
9, 33380, Note_off_c, 9, 42, 64
9, 33440, Note_on_c, 9, 35, 80
9, 33440, Note_on_c, 9, 42, 60
9, 33540, Note_off_c, 9, 42, 64
9, 33540, Note_off_c, 9, 35, 64
9, 33600, Note_on_c, 9, 35, 90
9, 33600, Note_on_c, 9, 42, 80
9, 33700, Note_off_c, 9, 42, 64
9, 33700, Note_off_c, 9, 35, 64
9, 33760, Note_on_c, 9, 42, 60
9, 33860, Note_off_c, 9, 42, 64
9, 33920, Note_on_c, 9, 42, 80
9, 34020, Note_off_c, 9, 42, 64
9, 34080, Note_on_c, 9, 42, 60
9, 34080, Note_on_c, 9, 37, 100
9, 34180, Note_off_c, 9, 37, 64
9, 34180, Note_off_c, 9, 42, 64
9, 34240, Note_on_c, 9, 42, 80
9, 34340, Note_off_c, 9, 42, 64
9, 34400, Note_on_c, 9, 35, 80
9, 34400, Note_on_c, 9, 46, 80
9, 34500, Note_off_c, 9, 46, 64
9, 34500, Note_off_c, 9, 35, 64
9, 34560, Note_on_c, 9, 35, 90
9, 34560, Note_on_c, 9, 42, 90
9, 34660, Note_off_c, 9, 42, 64
9, 34660, Note_off_c, 9, 35, 64
9, 34720, Note_on_c, 9, 42, 60
9, 34820, Note_off_c, 9, 42, 64
9, 34880, Note_on_c, 9, 42, 80
9, 34980, Note_off_c, 9, 42, 64
9, 35040, Note_on_c, 9, 42, 60
9, 35040, Note_on_c, 9, 37, 100
9, 35140, Note_off_c, 9, 37, 64
9, 35140, Note_off_c, 9, 42, 64
9, 35200, Note_on_c, 9, 42, 80
9, 35300, Note_off_c, 9, 42, 64
9, 35360, Note_on_c, 9, 35, 80
9, 35360, Note_on_c, 9, 42, 60
9, 35460, Note_off_c, 9, 42, 64
9, 35460, Note_off_c, 9, 35, 64
9, 35520, Note_on_c, 9, 35, 90
9, 35520, Note_on_c, 9, 42, 80
9, 35620, Note_off_c, 9, 42, 64
9, 35620, Note_off_c, 9, 35, 64
9, 35680, Note_on_c, 9, 42, 60
9, 35780, Note_off_c, 9, 42, 64
9, 35840, Note_on_c, 9, 42, 80
9, 35940, Note_off_c, 9, 42, 64
9, 36000, Note_on_c, 9, 42, 60
9, 36000, Note_on_c, 9, 37, 100
9, 36100, Note_off_c, 9, 37, 64
9, 36100, Note_off_c, 9, 42, 64
9, 36160, Note_on_c, 9, 42, 80
9, 36260, Note_off_c, 9, 42, 64
9, 36320, Note_on_c, 9, 42, 60
9, 36420, Note_off_c, 9, 42, 64
9, 36480, Note_on_c, 9, 35, 90
9, 36480, Note_on_c, 9, 42, 95
9, 36580, Note_off_c, 9, 42, 64
9, 36580, Note_off_c, 9, 35, 64
9, 36640, Note_on_c, 9, 42, 80
9, 36740, Note_off_c, 9, 42, 64
9, 36800, Note_on_c, 9, 42, 60
9, 36900, Note_off_c, 9, 42, 64
9, 36960, Note_on_c, 9, 42, 60
9, 36960, Note_on_c, 9, 37, 100
9, 37060, Note_off_c, 9, 37, 64
9, 37060, Note_off_c, 9, 42, 64
9, 37120, Note_on_c, 9, 42, 90
9, 37220, Note_off_c, 9, 42, 64
9, 37280, Note_on_c, 9, 35, 80
9, 37280, Note_on_c, 9, 42, 80
9, 37380, Note_off_c, 9, 42, 64
9, 37380, Note_off_c, 9, 35, 64
9, 37440, Note_on_c, 9, 35, 90
9, 37440, Note_on_c, 9, 42, 70
9, 37540, Note_off_c, 9, 42, 64
9, 37540, Note_off_c, 9, 35, 64
9, 37600, Note_on_c, 9, 42, 100
9, 37700, Note_off_c, 9, 42, 64
9, 37760, Note_on_c, 9, 42, 80
9, 37860, Note_off_c, 9, 42, 64
9, 37920, Note_on_c, 9, 42, 60
9, 37920, Note_on_c, 9, 37, 100
9, 38020, Note_off_c, 9, 37, 64
9, 38020, Note_off_c, 9, 42, 64
9, 38080, Note_on_c, 9, 42, 80
9, 38180, Note_off_c, 9, 42, 64
9, 38240, Note_on_c, 9, 35, 80
9, 38240, Note_on_c, 9, 42, 60
9, 38340, Note_off_c, 9, 42, 64
9, 38340, Note_off_c, 9, 35, 64
9, 38400, Note_on_c, 9, 35, 90
9, 38400, Note_on_c, 9, 42, 90
9, 38500, Note_off_c, 9, 42, 64
9, 38500, Note_off_c, 9, 35, 64
9, 38560, Note_on_c, 9, 42, 60
9, 38660, Note_off_c, 9, 42, 64
9, 38720, Note_on_c, 9, 42, 80
9, 38820, Note_off_c, 9, 42, 64
9, 38880, Note_on_c, 9, 42, 60
9, 38880, Note_on_c, 9, 37, 100
9, 38980, Note_off_c, 9, 37, 64
9, 38980, Note_off_c, 9, 42, 64
9, 39040, Note_on_c, 9, 42, 80
9, 39140, Note_off_c, 9, 42, 64
9, 39200, Note_on_c, 9, 35, 80
9, 39200, Note_on_c, 9, 42, 60
9, 39300, Note_off_c, 9, 42, 64
9, 39300, Note_off_c, 9, 35, 64
9, 39360, Note_on_c, 9, 35, 90
9, 39360, Note_on_c, 9, 42, 80
9, 39460, Note_off_c, 9, 42, 64
9, 39460, Note_off_c, 9, 35, 64
9, 39520, Note_on_c, 9, 42, 60
9, 39620, Note_off_c, 9, 42, 64
9, 39680, Note_on_c, 9, 42, 80
9, 39780, Note_off_c, 9, 42, 64
9, 39840, Note_on_c, 9, 42, 60
9, 39840, Note_on_c, 9, 37, 100
9, 39940, Note_off_c, 9, 37, 64
9, 39940, Note_off_c, 9, 42, 64
9, 40000, Note_on_c, 9, 42, 80
9, 40100, Note_off_c, 9, 42, 64
9, 40160, Note_on_c, 9, 42, 60
9, 40260, Note_off_c, 9, 42, 64
9, 40320, Note_on_c, 9, 35, 90
9, 40320, Note_on_c, 9, 42, 90
9, 40420, Note_off_c, 9, 42, 64
9, 40420, Note_off_c, 9, 35, 64
9, 40480, Note_on_c, 9, 42, 75
9, 40580, Note_off_c, 9, 42, 64
9, 40640, Note_on_c, 9, 42, 66
9, 40740, Note_off_c, 9, 42, 64
9, 40800, Note_on_c, 9, 42, 90
9, 40800, Note_on_c, 9, 37, 100
9, 40900, Note_off_c, 9, 37, 64
9, 40900, Note_off_c, 9, 42, 64
9, 40960, Note_on_c, 9, 42, 100
9, 41060, Note_off_c, 9, 42, 64
9, 41120, Note_on_c, 9, 35, 80
9, 41120, Note_on_c, 9, 42, 60
9, 41220, Note_off_c, 9, 42, 64
9, 41220, Note_off_c, 9, 35, 64
9, 41280, Note_on_c, 9, 35, 90
9, 41280, Note_on_c, 9, 42, 80
9, 41380, Note_off_c, 9, 42, 64
9, 41380, Note_off_c, 9, 35, 64
9, 41440, Note_on_c, 9, 42, 60
9, 41540, Note_off_c, 9, 42, 64
9, 41600, Note_on_c, 9, 42, 80
9, 41700, Note_off_c, 9, 42, 64
9, 41760, Note_on_c, 9, 42, 60
9, 41760, Note_on_c, 9, 37, 100
9, 41860, Note_off_c, 9, 37, 64
9, 41860, Note_off_c, 9, 42, 64
9, 41920, Note_on_c, 9, 42, 80
9, 42020, Note_off_c, 9, 42, 64
9, 42080, Note_on_c, 9, 35, 80
9, 42080, Note_on_c, 9, 46, 80
9, 42180, Note_off_c, 9, 46, 64
9, 42180, Note_off_c, 9, 35, 64
9, 42240, Note_on_c, 9, 35, 90
9, 42240, Note_on_c, 9, 42, 90
9, 42340, Note_off_c, 9, 42, 64
9, 42340, Note_off_c, 9, 35, 64
9, 42400, Note_on_c, 9, 42, 80
9, 42500, Note_off_c, 9, 42, 64
9, 42560, Note_on_c, 9, 42, 70
9, 42660, Note_off_c, 9, 42, 64
9, 42720, Note_on_c, 9, 42, 60
9, 42720, Note_on_c, 9, 37, 100
9, 42820, Note_off_c, 9, 37, 64
9, 42820, Note_off_c, 9, 42, 64
9, 42880, Note_on_c, 9, 42, 80
9, 42980, Note_off_c, 9, 42, 64
9, 43040, Note_on_c, 9, 35, 80
9, 43040, Note_on_c, 9, 42, 60
9, 43140, Note_off_c, 9, 42, 64
9, 43140, Note_off_c, 9, 35, 64
9, 43200, Note_on_c, 9, 35, 90
9, 43200, Note_on_c, 9, 42, 80
9, 43300, Note_off_c, 9, 42, 64
9, 43300, Note_off_c, 9, 35, 64
9, 43360, Note_on_c, 9, 42, 90
9, 43460, Note_off_c, 9, 42, 64
9, 43520, Note_on_c, 9, 42, 70
9, 43620, Note_off_c, 9, 42, 64
9, 43680, Note_on_c, 9, 42, 60
9, 43680, Note_on_c, 9, 37, 100
9, 43780, Note_off_c, 9, 37, 64
9, 43780, Note_off_c, 9, 42, 64
9, 43840, Note_on_c, 9, 42, 80
9, 43940, Note_off_c, 9, 42, 64
9, 44000, Note_on_c, 9, 42, 60
9, 44100, Note_off_c, 9, 42, 64
9, 44160, Note_on_c, 9, 35, 90
9, 44160, Note_on_c, 9, 42, 95
9, 44260, Note_off_c, 9, 42, 64
9, 44260, Note_off_c, 9, 35, 64
9, 44320, Note_on_c, 9, 42, 80
9, 44420, Note_off_c, 9, 42, 64
9, 44480, Note_on_c, 9, 42, 60
9, 44580, Note_off_c, 9, 42, 64
9, 44640, Note_on_c, 9, 42, 60
9, 44640, Note_on_c, 9, 37, 100
9, 44740, Note_off_c, 9, 37, 64
9, 44740, Note_off_c, 9, 42, 64
9, 44800, Note_on_c, 9, 42, 90
9, 44900, Note_off_c, 9, 42, 64
9, 44960, Note_on_c, 9, 35, 80
9, 44960, Note_on_c, 9, 42, 80
9, 45060, Note_off_c, 9, 42, 64
9, 45060, Note_off_c, 9, 35, 64
9, 45120, Note_on_c, 9, 35, 90
9, 45120, Note_on_c, 9, 42, 70
9, 45220, Note_off_c, 9, 42, 64
9, 45220, Note_off_c, 9, 35, 64
9, 45280, Note_on_c, 9, 42, 100
9, 45380, Note_off_c, 9, 42, 64
9, 45440, Note_on_c, 9, 42, 80
9, 45540, Note_off_c, 9, 42, 64
9, 45600, Note_on_c, 9, 42, 60
9, 45600, Note_on_c, 9, 37, 100
9, 45700, Note_off_c, 9, 37, 64
9, 45700, Note_off_c, 9, 42, 64
9, 45760, Note_on_c, 9, 42, 80
9, 45860, Note_off_c, 9, 42, 64
9, 45920, Note_on_c, 9, 35, 80
9, 45920, Note_on_c, 9, 46, 72
9, 46020, Note_off_c, 9, 46, 64
9, 46020, Note_off_c, 9, 35, 64
9, 46080, Note_on_c, 9, 35, 90
9, 46080, Note_on_c, 9, 42, 90
9, 46180, Note_off_c, 9, 42, 64
9, 46180, Note_off_c, 9, 35, 64
9, 46240, Note_on_c, 9, 42, 80
9, 46340, Note_off_c, 9, 42, 64
9, 46400, Note_on_c, 9, 42, 70
9, 46500, Note_off_c, 9, 42, 64
9, 46560, Note_on_c, 9, 42, 60
9, 46560, Note_on_c, 9, 37, 100
9, 46660, Note_off_c, 9, 37, 64
9, 46660, Note_off_c, 9, 42, 64
9, 46720, Note_on_c, 9, 42, 80
9, 46820, Note_off_c, 9, 42, 64
9, 46880, Note_on_c, 9, 35, 80
9, 46880, Note_on_c, 9, 42, 60
9, 46980, Note_off_c, 9, 42, 64
9, 46980, Note_off_c, 9, 35, 64
9, 47040, Note_on_c, 9, 35, 90
9, 47040, Note_on_c, 9, 42, 80
9, 47140, Note_off_c, 9, 42, 64
9, 47140, Note_off_c, 9, 35, 64
9, 47200, Note_on_c, 9, 42, 90
9, 47300, Note_off_c, 9, 42, 64
9, 47360, Note_on_c, 9, 42, 70
9, 47460, Note_off_c, 9, 42, 64
9, 47520, Note_on_c, 9, 42, 60
9, 47520, Note_on_c, 9, 37, 100
9, 47620, Note_off_c, 9, 37, 64
9, 47620, Note_off_c, 9, 42, 64
9, 47680, Note_on_c, 9, 42, 80
9, 47780, Note_off_c, 9, 42, 64
9, 47840, Note_on_c, 9, 42, 60
9, 47940, Note_off_c, 9, 42, 64
9, 48000, Note_on_c, 9, 35, 90
9, 48000, Note_on_c, 9, 42, 90
9, 48100, Note_off_c, 9, 42, 64
9, 48100, Note_off_c, 9, 35, 64
9, 48160, Note_on_c, 9, 38, 100
9, 48160, Note_on_c, 9, 42, 60
9, 48260, Note_off_c, 9, 42, 64
9, 48260, Note_off_c, 9, 38, 64
9, 48320, Note_on_c, 9, 35, 90
9, 48320, Note_on_c, 9, 42, 80
9, 48420, Note_off_c, 9, 42, 64
9, 48420, Note_off_c, 9, 35, 64
9, 48480, Note_on_c, 9, 38, 100
9, 48480, Note_on_c, 9, 42, 60
9, 48580, Note_off_c, 9, 42, 64
9, 48580, Note_off_c, 9, 38, 64
9, 48640, Note_on_c, 9, 35, 90
9, 48640, Note_on_c, 9, 42, 80
9, 48740, Note_off_c, 9, 42, 64
9, 48740, Note_off_c, 9, 35, 64
9, 48800, Note_on_c, 9, 38, 100
9, 48800, Note_on_c, 9, 42, 60
9, 48900, Note_off_c, 9, 42, 64
9, 48900, Note_off_c, 9, 38, 64
9, 48960, Note_on_c, 9, 35, 90
9, 48960, Note_on_c, 9, 42, 80
9, 49060, Note_off_c, 9, 42, 64
9, 49060, Note_off_c, 9, 35, 64
9, 49120, Note_on_c, 9, 42, 60
9, 49120, Note_on_c, 9, 48, 100
9, 49220, Note_off_c, 9, 48, 64
9, 49220, Note_off_c, 9, 42, 64
9, 49280, Note_on_c, 9, 42, 80
9, 49380, Note_off_c, 9, 42, 64
9, 49440, Note_on_c, 9, 42, 60
9, 49440, Note_on_c, 9, 45, 100
9, 49540, Note_off_c, 9, 45, 64
9, 49540, Note_off_c, 9, 42, 64
9, 49600, Note_on_c, 9, 42, 80
9, 49600, Note_on_c, 9, 41, 100
9, 49700, Note_off_c, 9, 41, 64
9, 49700, Note_off_c, 9, 42, 64
9, 49760, Note_on_c, 9, 35, 80
9, 49760, Note_on_c, 9, 42, 60
9, 49860, Note_off_c, 9, 42, 64
9, 49860, Note_off_c, 9, 35, 64
9, 49920, Note_on_c, 9, 35, 90
9, 49920, Note_on_c, 9, 49, 90
9, 50020, Note_off_c, 9, 49, 64
9, 50020, Note_off_c, 9, 35, 64
9, 50080, Note_on_c, 9, 42, 60
9, 50180, Note_off_c, 9, 42, 64
9, 50240, Note_on_c, 9, 42, 80
9, 50340, Note_off_c, 9, 42, 64
9, 50400, Note_on_c, 9, 42, 60
9, 50400, Note_on_c, 9, 37, 100
9, 50500, Note_off_c, 9, 37, 64
9, 50500, Note_off_c, 9, 42, 64
9, 50560, Note_on_c, 9, 42, 80
9, 50660, Note_off_c, 9, 42, 64
9, 50720, Note_on_c, 9, 35, 80
9, 50720, Note_on_c, 9, 42, 60
9, 50820, Note_off_c, 9, 42, 64
9, 50820, Note_off_c, 9, 35, 64
9, 50880, Note_on_c, 9, 35, 90
9, 50880, Note_on_c, 9, 42, 80
9, 50980, Note_off_c, 9, 42, 64
9, 50980, Note_off_c, 9, 35, 64
9, 51040, Note_on_c, 9, 42, 60
9, 51140, Note_off_c, 9, 42, 64
9, 51200, Note_on_c, 9, 42, 80
9, 51300, Note_off_c, 9, 42, 64
9, 51360, Note_on_c, 9, 42, 60
9, 51360, Note_on_c, 9, 37, 100
9, 51460, Note_off_c, 9, 37, 64
9, 51460, Note_off_c, 9, 42, 64
9, 51520, Note_on_c, 9, 42, 80
9, 51620, Note_off_c, 9, 42, 64
9, 51680, Note_on_c, 9, 42, 60
9, 51780, Note_off_c, 9, 42, 64
9, 51840, Note_on_c, 9, 35, 90
9, 51840, Note_on_c, 9, 42, 95
9, 51940, Note_off_c, 9, 42, 64
9, 51940, Note_off_c, 9, 35, 64
9, 52000, Note_on_c, 9, 42, 80
9, 52100, Note_off_c, 9, 42, 64
9, 52160, Note_on_c, 9, 42, 60
9, 52260, Note_off_c, 9, 42, 64
9, 52320, Note_on_c, 9, 42, 60
9, 52320, Note_on_c, 9, 37, 100
9, 52420, Note_off_c, 9, 37, 64
9, 52420, Note_off_c, 9, 42, 64
9, 52480, Note_on_c, 9, 42, 90
9, 52580, Note_off_c, 9, 42, 64
9, 52640, Note_on_c, 9, 35, 80
9, 52640, Note_on_c, 9, 42, 80
9, 52740, Note_off_c, 9, 42, 64
9, 52740, Note_off_c, 9, 35, 64
9, 52800, Note_on_c, 9, 35, 90
9, 52800, Note_on_c, 9, 42, 70
9, 52900, Note_off_c, 9, 42, 64
9, 52900, Note_off_c, 9, 35, 64
9, 52960, Note_on_c, 9, 42, 100
9, 53060, Note_off_c, 9, 42, 64
9, 53120, Note_on_c, 9, 42, 80
9, 53220, Note_off_c, 9, 42, 64
9, 53280, Note_on_c, 9, 42, 60
9, 53280, Note_on_c, 9, 37, 100
9, 53380, Note_off_c, 9, 37, 64
9, 53380, Note_off_c, 9, 42, 64
9, 53440, Note_on_c, 9, 42, 80
9, 53540, Note_off_c, 9, 42, 64
9, 53600, Note_on_c, 9, 35, 80
9, 53600, Note_on_c, 9, 42, 60
9, 53700, Note_off_c, 9, 42, 64
9, 53700, Note_off_c, 9, 35, 64
9, 53760, Note_on_c, 9, 35, 90
9, 53760, Note_on_c, 9, 42, 90
9, 53860, Note_off_c, 9, 42, 64
9, 53860, Note_off_c, 9, 35, 64
9, 53920, Note_on_c, 9, 42, 60
9, 54020, Note_off_c, 9, 42, 64
9, 54080, Note_on_c, 9, 42, 80
9, 54180, Note_off_c, 9, 42, 64
9, 54240, Note_on_c, 9, 42, 60
9, 54240, Note_on_c, 9, 37, 100
9, 54340, Note_off_c, 9, 37, 64
9, 54340, Note_off_c, 9, 42, 64
9, 54400, Note_on_c, 9, 42, 80
9, 54500, Note_off_c, 9, 42, 64
9, 54560, Note_on_c, 9, 35, 80
9, 54560, Note_on_c, 9, 42, 60
9, 54660, Note_off_c, 9, 42, 64
9, 54660, Note_off_c, 9, 35, 64
9, 54720, Note_on_c, 9, 35, 90
9, 54720, Note_on_c, 9, 42, 80
9, 54820, Note_off_c, 9, 42, 64
9, 54820, Note_off_c, 9, 35, 64
9, 54880, Note_on_c, 9, 42, 60
9, 54980, Note_off_c, 9, 42, 64
9, 55040, Note_on_c, 9, 42, 80
9, 55140, Note_off_c, 9, 42, 64
9, 55200, Note_on_c, 9, 42, 60
9, 55200, Note_on_c, 9, 37, 100
9, 55300, Note_off_c, 9, 37, 64
9, 55300, Note_off_c, 9, 42, 64
9, 55360, Note_on_c, 9, 42, 80
9, 55460, Note_off_c, 9, 42, 64
9, 55520, Note_on_c, 9, 42, 60
9, 55620, Note_off_c, 9, 42, 64
9, 55680, Note_on_c, 9, 35, 90
9, 55680, Note_on_c, 9, 42, 90
9, 55780, Note_off_c, 9, 42, 64
9, 55780, Note_off_c, 9, 35, 64
9, 55840, Note_on_c, 9, 42, 75
9, 55940, Note_off_c, 9, 42, 64
9, 56000, Note_on_c, 9, 42, 66
9, 56100, Note_off_c, 9, 42, 64
9, 56160, Note_on_c, 9, 42, 90
9, 56160, Note_on_c, 9, 37, 100
9, 56260, Note_off_c, 9, 37, 64
9, 56260, Note_off_c, 9, 42, 64
9, 56320, Note_on_c, 9, 42, 100
9, 56420, Note_off_c, 9, 42, 64
9, 56480, Note_on_c, 9, 35, 80
9, 56480, Note_on_c, 9, 42, 60
9, 56580, Note_off_c, 9, 42, 64
9, 56580, Note_off_c, 9, 35, 64
9, 56640, Note_on_c, 9, 35, 90
9, 56640, Note_on_c, 9, 42, 80
9, 56740, Note_off_c, 9, 42, 64
9, 56740, Note_off_c, 9, 35, 64
9, 56800, Note_on_c, 9, 42, 60
9, 56900, Note_off_c, 9, 42, 64
9, 56960, Note_on_c, 9, 42, 80
9, 57060, Note_off_c, 9, 42, 64
9, 57120, Note_on_c, 9, 42, 60
9, 57120, Note_on_c, 9, 37, 100
9, 57220, Note_off_c, 9, 37, 64
9, 57220, Note_off_c, 9, 42, 64
9, 57280, Note_on_c, 9, 42, 80
9, 57380, Note_off_c, 9, 42, 64
9, 57440, Note_on_c, 9, 35, 80
9, 57440, Note_on_c, 9, 46, 80
9, 57540, Note_off_c, 9, 46, 64
9, 57540, Note_off_c, 9, 35, 64
9, 57600, Note_on_c, 9, 35, 90
9, 57600, Note_on_c, 9, 42, 90
9, 57700, Note_off_c, 9, 42, 64
9, 57700, Note_off_c, 9, 35, 64
9, 57760, Note_on_c, 9, 42, 80
9, 57860, Note_off_c, 9, 42, 64
9, 57920, Note_on_c, 9, 42, 54
9, 58020, Note_off_c, 9, 42, 64
9, 58080, Note_on_c, 9, 42, 60
9, 58080, Note_on_c, 9, 37, 100
9, 58180, Note_off_c, 9, 37, 64
9, 58180, Note_off_c, 9, 42, 64
9, 58240, Note_on_c, 9, 42, 80
9, 58340, Note_off_c, 9, 42, 64
9, 58400, Note_on_c, 9, 35, 80
9, 58400, Note_on_c, 9, 42, 60
9, 58500, Note_off_c, 9, 42, 64
9, 58500, Note_off_c, 9, 35, 64
9, 58560, Note_on_c, 9, 35, 90
9, 58560, Note_on_c, 9, 42, 80
9, 58660, Note_off_c, 9, 42, 64
9, 58660, Note_off_c, 9, 35, 64
9, 58720, Note_on_c, 9, 42, 90
9, 58820, Note_off_c, 9, 42, 64
9, 58880, Note_on_c, 9, 42, 70
9, 58980, Note_off_c, 9, 42, 64
9, 59040, Note_on_c, 9, 42, 60
9, 59040, Note_on_c, 9, 37, 100
9, 59140, Note_off_c, 9, 37, 64
9, 59140, Note_off_c, 9, 42, 64
9, 59200, Note_on_c, 9, 42, 80
9, 59300, Note_off_c, 9, 42, 64
9, 59360, Note_on_c, 9, 42, 60
9, 59460, Note_off_c, 9, 42, 64
9, 59520, Note_on_c, 9, 35, 90
9, 59520, Note_on_c, 9, 42, 95
9, 59620, Note_off_c, 9, 42, 64
9, 59620, Note_off_c, 9, 35, 64
9, 59680, Note_on_c, 9, 42, 80
9, 59780, Note_off_c, 9, 42, 64
9, 59840, Note_on_c, 9, 42, 60
9, 59940, Note_off_c, 9, 42, 64
9, 60000, Note_on_c, 9, 42, 60
9, 60000, Note_on_c, 9, 37, 100
9, 60100, Note_off_c, 9, 37, 64
9, 60100, Note_off_c, 9, 42, 64
9, 60160, Note_on_c, 9, 42, 90
9, 60260, Note_off_c, 9, 42, 64
9, 60320, Note_on_c, 9, 35, 80
9, 60320, Note_on_c, 9, 42, 80
9, 60420, Note_off_c, 9, 42, 64
9, 60420, Note_off_c, 9, 35, 64
9, 60480, Note_on_c, 9, 35, 90
9, 60480, Note_on_c, 9, 42, 70
9, 60580, Note_off_c, 9, 42, 64
9, 60580, Note_off_c, 9, 35, 64
9, 60640, Note_on_c, 9, 42, 100
9, 60740, Note_off_c, 9, 42, 64
9, 60800, Note_on_c, 9, 42, 80
9, 60900, Note_off_c, 9, 42, 64
9, 60960, Note_on_c, 9, 42, 60
9, 60960, Note_on_c, 9, 37, 100
9, 61060, Note_off_c, 9, 37, 64
9, 61060, Note_off_c, 9, 42, 64
9, 61120, Note_on_c, 9, 42, 80
9, 61220, Note_off_c, 9, 42, 64
9, 61280, Note_on_c, 9, 35, 80
9, 61280, Note_on_c, 9, 42, 60
9, 61380, Note_off_c, 9, 42, 64
9, 61380, Note_off_c, 9, 35, 64
9, 61440, Note_on_c, 9, 35, 90
9, 61440, Note_on_c, 9, 42, 90
9, 61540, Note_off_c, 9, 42, 64
9, 61540, Note_off_c, 9, 35, 64
9, 61600, Note_on_c, 9, 42, 80
9, 61700, Note_off_c, 9, 42, 64
9, 61760, Note_on_c, 9, 42, 54
9, 61860, Note_off_c, 9, 42, 64
9, 61920, Note_on_c, 9, 42, 60
9, 61920, Note_on_c, 9, 37, 100
9, 62020, Note_off_c, 9, 37, 64
9, 62020, Note_off_c, 9, 42, 64
9, 62080, Note_on_c, 9, 42, 80
9, 62180, Note_off_c, 9, 42, 64
9, 62240, Note_on_c, 9, 35, 80
9, 62240, Note_on_c, 9, 42, 60
9, 62340, Note_off_c, 9, 42, 64
9, 62340, Note_off_c, 9, 35, 64
9, 62400, Note_on_c, 9, 35, 90
9, 62400, Note_on_c, 9, 42, 80
9, 62500, Note_off_c, 9, 42, 64
9, 62500, Note_off_c, 9, 35, 64
9, 62560, Note_on_c, 9, 42, 90
9, 62660, Note_off_c, 9, 42, 64
9, 62720, Note_on_c, 9, 42, 70
9, 62820, Note_off_c, 9, 42, 64
9, 62880, Note_on_c, 9, 42, 60
9, 62880, Note_on_c, 9, 37, 100
9, 62980, Note_off_c, 9, 37, 64
9, 62980, Note_off_c, 9, 42, 64
9, 63040, Note_on_c, 9, 42, 80
9, 63140, Note_off_c, 9, 42, 64
9, 63200, Note_on_c, 9, 42, 60
9, 63300, Note_off_c, 9, 42, 64
9, 63360, Note_on_c, 9, 35, 90
9, 63360, Note_on_c, 9, 42, 90
9, 63460, Note_off_c, 9, 42, 64
9, 63460, Note_off_c, 9, 35, 64
9, 63520, Note_on_c, 9, 42, 60
9, 63620, Note_off_c, 9, 42, 64
9, 63680, Note_on_c, 9, 42, 80
9, 63780, Note_off_c, 9, 42, 64
9, 63840, Note_on_c, 9, 38, 100
9, 63840, Note_on_c, 9, 42, 60
9, 63940, Note_off_c, 9, 42, 64
9, 63940, Note_off_c, 9, 38, 64
9, 64000, Note_on_c, 9, 42, 80
9, 64100, Note_off_c, 9, 42, 64
9, 64160, Note_on_c, 9, 35, 80
9, 64160, Note_on_c, 9, 42, 60
9, 64260, Note_off_c, 9, 42, 64
9, 64260, Note_off_c, 9, 35, 64
9, 64320, Note_on_c, 9, 38, 100
9, 64420, Note_off_c, 9, 38, 64
9, 64480, Note_on_c, 9, 42, 60
9, 64580, Note_off_c, 9, 42, 64
9, 64640, Note_on_c, 9, 48, 80
9, 64740, Note_off_c, 9, 48, 64
9, 64800, Note_on_c, 9, 48, 100
9, 64900, Note_off_c, 9, 48, 64
9, 64960, Note_on_c, 9, 38, 100
9, 65060, Note_off_c, 9, 38, 64
9, 65120, Note_on_c, 9, 35, 80
9, 65120, Note_on_c, 9, 49, 80
9, 65220, Note_off_c, 9, 49, 64
9, 65220, Note_off_c, 9, 35, 64
9, 65280, Note_on_c, 9, 35, 90
9, 65280, Note_on_c, 9, 49, 90
9, 65380, Note_off_c, 9, 49, 64
9, 65380, Note_off_c, 9, 35, 64
9, 65440, Note_on_c, 9, 42, 60
9, 65540, Note_off_c, 9, 42, 64
9, 65600, Note_on_c, 9, 42, 80
9, 65700, Note_off_c, 9, 42, 64
9, 65760, Note_on_c, 9, 42, 60
9, 65760, Note_on_c, 9, 37, 100
9, 65860, Note_off_c, 9, 37, 64
9, 65860, Note_off_c, 9, 42, 64
9, 65920, Note_on_c, 9, 42, 80
9, 66020, Note_off_c, 9, 42, 64
9, 66080, Note_on_c, 9, 35, 80
9, 66080, Note_on_c, 9, 42, 60
9, 66180, Note_off_c, 9, 42, 64
9, 66180, Note_off_c, 9, 35, 64
9, 66240, Note_on_c, 9, 35, 90
9, 66240, Note_on_c, 9, 42, 80
9, 66340, Note_off_c, 9, 42, 64
9, 66340, Note_off_c, 9, 35, 64
9, 66400, Note_on_c, 9, 42, 60
9, 66500, Note_off_c, 9, 42, 64
9, 66560, Note_on_c, 9, 42, 80
9, 66660, Note_off_c, 9, 42, 64
9, 66720, Note_on_c, 9, 42, 60
9, 66720, Note_on_c, 9, 37, 100
9, 66820, Note_off_c, 9, 37, 64
9, 66820, Note_off_c, 9, 42, 64
9, 66880, Note_on_c, 9, 42, 80
9, 66980, Note_off_c, 9, 42, 64
9, 67040, Note_on_c, 9, 42, 60
9, 67140, Note_off_c, 9, 42, 64
9, 67200, Note_on_c, 9, 35, 90
9, 67200, Note_on_c, 9, 42, 95
9, 67300, Note_off_c, 9, 42, 64
9, 67300, Note_off_c, 9, 35, 64
9, 67360, Note_on_c, 9, 42, 80
9, 67460, Note_off_c, 9, 42, 64
9, 67520, Note_on_c, 9, 42, 60
9, 67620, Note_off_c, 9, 42, 64
9, 67680, Note_on_c, 9, 42, 60
9, 67680, Note_on_c, 9, 37, 100
9, 67780, Note_off_c, 9, 37, 64
9, 67780, Note_off_c, 9, 42, 64
9, 67840, Note_on_c, 9, 42, 90
9, 67940, Note_off_c, 9, 42, 64
9, 68000, Note_on_c, 9, 35, 80
9, 68000, Note_on_c, 9, 42, 80
9, 68100, Note_off_c, 9, 42, 64
9, 68100, Note_off_c, 9, 35, 64
9, 68160, Note_on_c, 9, 35, 90
9, 68160, Note_on_c, 9, 42, 70
9, 68260, Note_off_c, 9, 42, 64
9, 68260, Note_off_c, 9, 35, 64
9, 68320, Note_on_c, 9, 42, 100
9, 68420, Note_off_c, 9, 42, 64
9, 68480, Note_on_c, 9, 42, 80
9, 68580, Note_off_c, 9, 42, 64
9, 68640, Note_on_c, 9, 42, 60
9, 68640, Note_on_c, 9, 37, 100
9, 68740, Note_off_c, 9, 37, 64
9, 68740, Note_off_c, 9, 42, 64
9, 68800, Note_on_c, 9, 42, 80
9, 68900, Note_off_c, 9, 42, 64
9, 68960, Note_on_c, 9, 35, 80
9, 68960, Note_on_c, 9, 42, 60
9, 69060, Note_off_c, 9, 42, 64
9, 69060, Note_off_c, 9, 35, 64
9, 69120, Note_on_c, 9, 35, 90
9, 69120, Note_on_c, 9, 42, 90
9, 69220, Note_off_c, 9, 42, 64
9, 69220, Note_off_c, 9, 35, 64
9, 69280, Note_on_c, 9, 42, 60
9, 69380, Note_off_c, 9, 42, 64
9, 69440, Note_on_c, 9, 42, 80
9, 69540, Note_off_c, 9, 42, 64
9, 69600, Note_on_c, 9, 42, 60
9, 69600, Note_on_c, 9, 37, 100
9, 69700, Note_off_c, 9, 37, 64
9, 69700, Note_off_c, 9, 42, 64
9, 69760, Note_on_c, 9, 42, 80
9, 69860, Note_off_c, 9, 42, 64
9, 69920, Note_on_c, 9, 35, 80
9, 69920, Note_on_c, 9, 42, 60
9, 70020, Note_off_c, 9, 42, 64
9, 70020, Note_off_c, 9, 35, 64
9, 70080, Note_on_c, 9, 35, 90
9, 70080, Note_on_c, 9, 42, 80
9, 70180, Note_off_c, 9, 42, 64
9, 70180, Note_off_c, 9, 35, 64
9, 70240, Note_on_c, 9, 42, 60
9, 70340, Note_off_c, 9, 42, 64
9, 70400, Note_on_c, 9, 42, 80
9, 70500, Note_off_c, 9, 42, 64
9, 70560, Note_on_c, 9, 42, 60
9, 70560, Note_on_c, 9, 37, 100
9, 70660, Note_off_c, 9, 37, 64
9, 70660, Note_off_c, 9, 42, 64
9, 70720, Note_on_c, 9, 42, 80
9, 70820, Note_off_c, 9, 42, 64
9, 70880, Note_on_c, 9, 42, 60
9, 70980, Note_off_c, 9, 42, 64
9, 71040, Note_on_c, 9, 35, 90
9, 71040, Note_on_c, 9, 42, 95
9, 71140, Note_off_c, 9, 42, 64
9, 71140, Note_off_c, 9, 35, 64
9, 71200, Note_on_c, 9, 42, 80
9, 71300, Note_off_c, 9, 42, 64
9, 71360, Note_on_c, 9, 42, 60
9, 71460, Note_off_c, 9, 42, 64
9, 71520, Note_on_c, 9, 42, 60
9, 71520, Note_on_c, 9, 37, 100
9, 71620, Note_off_c, 9, 37, 64
9, 71620, Note_off_c, 9, 42, 64
9, 71680, Note_on_c, 9, 42, 90
9, 71780, Note_off_c, 9, 42, 64
9, 71840, Note_on_c, 9, 35, 80
9, 71840, Note_on_c, 9, 42, 80
9, 71940, Note_off_c, 9, 42, 64
9, 71940, Note_off_c, 9, 35, 64
9, 72000, Note_on_c, 9, 35, 90
9, 72000, Note_on_c, 9, 42, 70
9, 72100, Note_off_c, 9, 42, 64
9, 72100, Note_off_c, 9, 35, 64
9, 72160, Note_on_c, 9, 42, 100
9, 72260, Note_off_c, 9, 42, 64
9, 72320, Note_on_c, 9, 42, 80
9, 72420, Note_off_c, 9, 42, 64
9, 72480, Note_on_c, 9, 42, 60
9, 72480, Note_on_c, 9, 37, 100
9, 72580, Note_off_c, 9, 37, 64
9, 72580, Note_off_c, 9, 42, 64
9, 72640, Note_on_c, 9, 42, 80
9, 72740, Note_off_c, 9, 42, 64
9, 72800, Note_on_c, 9, 35, 80
9, 72800, Note_on_c, 9, 46, 72
9, 72900, Note_off_c, 9, 46, 64
9, 72900, Note_off_c, 9, 35, 64
9, 72960, Note_on_c, 9, 35, 90
9, 72960, Note_on_c, 9, 42, 90
9, 73060, Note_off_c, 9, 42, 64
9, 73060, Note_off_c, 9, 35, 64
9, 73120, Note_on_c, 9, 42, 80
9, 73220, Note_off_c, 9, 42, 64
9, 73280, Note_on_c, 9, 42, 70
9, 73380, Note_off_c, 9, 42, 64
9, 73440, Note_on_c, 9, 42, 60
9, 73440, Note_on_c, 9, 37, 100
9, 73540, Note_off_c, 9, 37, 64
9, 73540, Note_off_c, 9, 42, 64
9, 73600, Note_on_c, 9, 42, 80
9, 73700, Note_off_c, 9, 42, 64
9, 73760, Note_on_c, 9, 35, 80
9, 73760, Note_on_c, 9, 46, 54
9, 73860, Note_off_c, 9, 46, 64
9, 73860, Note_off_c, 9, 35, 64
9, 73920, Note_on_c, 9, 35, 90
9, 73920, Note_on_c, 9, 42, 80
9, 74020, Note_off_c, 9, 42, 64
9, 74020, Note_off_c, 9, 35, 64
9, 74080, Note_on_c, 9, 42, 90
9, 74180, Note_off_c, 9, 42, 64
9, 74240, Note_on_c, 9, 42, 70
9, 74340, Note_off_c, 9, 42, 64
9, 74400, Note_on_c, 9, 42, 60
9, 74400, Note_on_c, 9, 37, 100
9, 74500, Note_off_c, 9, 37, 64
9, 74500, Note_off_c, 9, 42, 64
9, 74560, Note_on_c, 9, 42, 80
9, 74660, Note_off_c, 9, 42, 64
9, 74720, Note_on_c, 9, 42, 60
9, 74820, Note_off_c, 9, 42, 64
9, 74880, Note_on_c, 9, 35, 90
9, 74880, Note_on_c, 9, 42, 90
9, 74980, Note_off_c, 9, 42, 64
9, 74980, Note_off_c, 9, 35, 64
9, 75040, Note_on_c, 9, 42, 75
9, 75140, Note_off_c, 9, 42, 64
9, 75200, Note_on_c, 9, 42, 66
9, 75300, Note_off_c, 9, 42, 64
9, 75360, Note_on_c, 9, 42, 90
9, 75360, Note_on_c, 9, 37, 100
9, 75460, Note_off_c, 9, 37, 64
9, 75460, Note_off_c, 9, 42, 64
9, 75520, Note_on_c, 9, 42, 100
9, 75620, Note_off_c, 9, 42, 64
9, 75680, Note_on_c, 9, 35, 80
9, 75680, Note_on_c, 9, 42, 60
9, 75780, Note_off_c, 9, 42, 64
9, 75780, Note_off_c, 9, 35, 64
9, 75840, Note_on_c, 9, 35, 90
9, 75840, Note_on_c, 9, 42, 80
9, 75940, Note_off_c, 9, 42, 64
9, 75940, Note_off_c, 9, 35, 64
9, 76000, Note_on_c, 9, 42, 60
9, 76100, Note_off_c, 9, 42, 64
9, 76160, Note_on_c, 9, 42, 80
9, 76260, Note_off_c, 9, 42, 64
9, 76320, Note_on_c, 9, 42, 60
9, 76320, Note_on_c, 9, 37, 100
9, 76420, Note_off_c, 9, 37, 64
9, 76420, Note_off_c, 9, 42, 64
9, 76480, Note_on_c, 9, 42, 80
9, 76580, Note_off_c, 9, 42, 64
9, 76640, Note_on_c, 9, 35, 80
9, 76640, Note_on_c, 9, 46, 80
9, 76740, Note_off_c, 9, 46, 64
9, 76740, Note_off_c, 9, 35, 64
9, 76800, Note_on_c, 9, 35, 90
9, 76800, Note_on_c, 9, 42, 90
9, 76900, Note_off_c, 9, 42, 64
9, 76900, Note_off_c, 9, 35, 64
9, 76960, Note_on_c, 9, 42, 80
9, 77060, Note_off_c, 9, 42, 64
9, 77120, Note_on_c, 9, 42, 70
9, 77220, Note_off_c, 9, 42, 64
9, 77280, Note_on_c, 9, 42, 60
9, 77280, Note_on_c, 9, 37, 100
9, 77380, Note_off_c, 9, 37, 64
9, 77380, Note_off_c, 9, 42, 64
9, 77440, Note_on_c, 9, 42, 80
9, 77540, Note_off_c, 9, 42, 64
9, 77600, Note_on_c, 9, 35, 80
9, 77600, Note_on_c, 9, 42, 60
9, 77700, Note_off_c, 9, 42, 64
9, 77700, Note_off_c, 9, 35, 64
9, 77760, Note_on_c, 9, 35, 90
9, 77760, Note_on_c, 9, 42, 80
9, 77860, Note_off_c, 9, 42, 64
9, 77860, Note_off_c, 9, 35, 64
9, 77920, Note_on_c, 9, 42, 90
9, 78020, Note_off_c, 9, 42, 64
9, 78080, Note_on_c, 9, 42, 70
9, 78180, Note_off_c, 9, 42, 64
9, 78240, Note_on_c, 9, 42, 60
9, 78240, Note_on_c, 9, 37, 100
9, 78340, Note_off_c, 9, 37, 64
9, 78340, Note_off_c, 9, 42, 64
9, 78400, Note_on_c, 9, 42, 80
9, 78500, Note_off_c, 9, 42, 64
9, 78560, Note_on_c, 9, 42, 60
9, 78660, Note_off_c, 9, 42, 64
9, 78720, Note_on_c, 9, 35, 90
9, 78720, Note_on_c, 9, 42, 95
9, 78820, Note_off_c, 9, 42, 64
9, 78820, Note_off_c, 9, 35, 64
9, 78880, Note_on_c, 9, 42, 80
9, 78980, Note_off_c, 9, 42, 64
9, 79040, Note_on_c, 9, 42, 60
9, 79140, Note_off_c, 9, 42, 64
9, 79200, Note_on_c, 9, 42, 60
9, 79200, Note_on_c, 9, 37, 100
9, 79300, Note_off_c, 9, 37, 64
9, 79300, Note_off_c, 9, 42, 64
9, 79360, Note_on_c, 9, 42, 90
9, 79460, Note_off_c, 9, 42, 64
9, 79520, Note_on_c, 9, 35, 80
9, 79520, Note_on_c, 9, 42, 80
9, 79620, Note_off_c, 9, 42, 64
9, 79620, Note_off_c, 9, 35, 64
9, 79680, Note_on_c, 9, 35, 90
9, 79680, Note_on_c, 9, 42, 70
9, 79780, Note_off_c, 9, 42, 64
9, 79780, Note_off_c, 9, 35, 64
9, 79840, Note_on_c, 9, 42, 100
9, 79940, Note_off_c, 9, 42, 64
9, 80000, Note_on_c, 9, 42, 80
9, 80100, Note_off_c, 9, 42, 64
9, 80160, Note_on_c, 9, 42, 60
9, 80160, Note_on_c, 9, 37, 100
9, 80260, Note_off_c, 9, 37, 64
9, 80260, Note_off_c, 9, 42, 64
9, 80320, Note_on_c, 9, 42, 80
9, 80420, Note_off_c, 9, 42, 64
9, 80480, Note_on_c, 9, 35, 80
9, 80480, Note_on_c, 9, 42, 60
9, 80580, Note_off_c, 9, 42, 64
9, 80580, Note_off_c, 9, 35, 64
9, 80640, Note_on_c, 9, 35, 90
9, 80640, Note_on_c, 9, 42, 90
9, 80740, Note_off_c, 9, 42, 64
9, 80740, Note_off_c, 9, 35, 64
9, 80800, Note_on_c, 9, 42, 80
9, 80900, Note_off_c, 9, 42, 64
9, 80960, Note_on_c, 9, 42, 70
9, 81060, Note_off_c, 9, 42, 64
9, 81120, Note_on_c, 9, 42, 60
9, 81120, Note_on_c, 9, 37, 100
9, 81220, Note_off_c, 9, 37, 64
9, 81220, Note_off_c, 9, 42, 64
9, 81280, Note_on_c, 9, 42, 80
9, 81380, Note_off_c, 9, 42, 64
9, 81440, Note_on_c, 9, 35, 80
9, 81440, Note_on_c, 9, 42, 60
9, 81540, Note_off_c, 9, 42, 64
9, 81540, Note_off_c, 9, 35, 64
9, 81600, Note_on_c, 9, 35, 90
9, 81600, Note_on_c, 9, 42, 80
9, 81700, Note_off_c, 9, 42, 64
9, 81700, Note_off_c, 9, 35, 64
9, 81760, Note_on_c, 9, 42, 90
9, 81860, Note_off_c, 9, 42, 64
9, 81920, Note_on_c, 9, 42, 70
9, 82020, Note_off_c, 9, 42, 64
9, 82080, Note_on_c, 9, 42, 60
9, 82080, Note_on_c, 9, 37, 100
9, 82180, Note_off_c, 9, 37, 64
9, 82180, Note_off_c, 9, 42, 64
9, 82240, Note_on_c, 9, 42, 80
9, 82340, Note_off_c, 9, 42, 64
9, 82400, Note_on_c, 9, 42, 60
9, 82500, Note_off_c, 9, 42, 64
9, 82560, Note_on_c, 9, 35, 90
9, 82560, Note_on_c, 9, 42, 90
9, 82660, Note_off_c, 9, 42, 64
9, 82660, Note_off_c, 9, 35, 64
9, 82720, Note_on_c, 9, 42, 60
9, 82820, Note_off_c, 9, 42, 64
9, 82880, Note_on_c, 9, 42, 80
9, 82980, Note_off_c, 9, 42, 64
9, 83040, Note_on_c, 9, 38, 100
9, 83040, Note_on_c, 9, 42, 60
9, 83140, Note_off_c, 9, 42, 64
9, 83140, Note_off_c, 9, 38, 64
9, 83200, Note_on_c, 9, 42, 80
9, 83300, Note_off_c, 9, 42, 64
9, 83360, Note_on_c, 9, 35, 80
9, 83360, Note_on_c, 9, 42, 60
9, 83460, Note_off_c, 9, 42, 64
9, 83460, Note_off_c, 9, 35, 64
9, 83520, Note_on_c, 9, 35, 90
9, 83520, Note_on_c, 9, 42, 80
9, 83620, Note_off_c, 9, 42, 64
9, 83620, Note_off_c, 9, 35, 64
9, 83680, Note_on_c, 9, 42, 60
9, 83780, Note_off_c, 9, 42, 64
9, 83840, Note_on_c, 9, 42, 80
9, 83940, Note_off_c, 9, 42, 64
9, 84000, Note_on_c, 9, 38, 100
9, 84100, Note_off_c, 9, 38, 64
9, 84160, Note_on_c, 9, 38, 90
9, 84260, Note_off_c, 9, 38, 64
9, 84480, Note_on_c, 9, 35, 90
9, 84480, Note_on_c, 9, 49, 90
9, 84580, Note_off_c, 9, 49, 64
9, 84580, Note_off_c, 9, 35, 64
9, 84640, Note_on_c, 9, 42, 60
9, 84740, Note_off_c, 9, 42, 64
9, 84800, Note_on_c, 9, 42, 80
9, 84900, Note_off_c, 9, 42, 64
9, 84960, Note_on_c, 9, 42, 60
9, 84960, Note_on_c, 9, 37, 100
9, 85060, Note_off_c, 9, 37, 64
9, 85060, Note_off_c, 9, 42, 64
9, 85120, Note_on_c, 9, 42, 80
9, 85220, Note_off_c, 9, 42, 64
9, 85280, Note_on_c, 9, 35, 80
9, 85280, Note_on_c, 9, 42, 60
9, 85380, Note_off_c, 9, 42, 64
9, 85380, Note_off_c, 9, 35, 64
9, 85440, Note_on_c, 9, 35, 90
9, 85440, Note_on_c, 9, 42, 80
9, 85540, Note_off_c, 9, 42, 64
9, 85540, Note_off_c, 9, 35, 64
9, 85600, Note_on_c, 9, 42, 60
9, 85700, Note_off_c, 9, 42, 64
9, 85760, Note_on_c, 9, 42, 80
9, 85860, Note_off_c, 9, 42, 64
9, 85920, Note_on_c, 9, 42, 60
9, 85920, Note_on_c, 9, 37, 100
9, 86020, Note_off_c, 9, 37, 64
9, 86020, Note_off_c, 9, 42, 64
9, 86080, Note_on_c, 9, 42, 80
9, 86180, Note_off_c, 9, 42, 64
9, 86240, Note_on_c, 9, 42, 60
9, 86340, Note_off_c, 9, 42, 64
9, 86400, Note_on_c, 9, 35, 90
9, 86400, Note_on_c, 9, 42, 95
9, 86500, Note_off_c, 9, 42, 64
9, 86500, Note_off_c, 9, 35, 64
9, 86560, Note_on_c, 9, 42, 80
9, 86660, Note_off_c, 9, 42, 64
9, 86720, Note_on_c, 9, 42, 60
9, 86820, Note_off_c, 9, 42, 64
9, 86880, Note_on_c, 9, 42, 60
9, 86880, Note_on_c, 9, 37, 100
9, 86980, Note_off_c, 9, 37, 64
9, 86980, Note_off_c, 9, 42, 64
9, 87040, Note_on_c, 9, 42, 90
9, 87140, Note_off_c, 9, 42, 64
9, 87200, Note_on_c, 9, 35, 80
9, 87200, Note_on_c, 9, 42, 80
9, 87300, Note_off_c, 9, 42, 64
9, 87300, Note_off_c, 9, 35, 64
9, 87360, Note_on_c, 9, 35, 90
9, 87360, Note_on_c, 9, 42, 70
9, 87460, Note_off_c, 9, 42, 64
9, 87460, Note_off_c, 9, 35, 64
9, 87520, Note_on_c, 9, 42, 100
9, 87620, Note_off_c, 9, 42, 64
9, 87680, Note_on_c, 9, 42, 80
9, 87780, Note_off_c, 9, 42, 64
9, 87840, Note_on_c, 9, 42, 60
9, 87840, Note_on_c, 9, 37, 100
9, 87940, Note_off_c, 9, 37, 64
9, 87940, Note_off_c, 9, 42, 64
9, 88000, Note_on_c, 9, 42, 80
9, 88100, Note_off_c, 9, 42, 64
9, 88160, Note_on_c, 9, 35, 80
9, 88160, Note_on_c, 9, 46, 72
9, 88260, Note_off_c, 9, 46, 64
9, 88260, Note_off_c, 9, 35, 64
9, 88320, Note_on_c, 9, 35, 90
9, 88320, Note_on_c, 9, 42, 90
9, 88420, Note_off_c, 9, 42, 64
9, 88420, Note_off_c, 9, 35, 64
9, 88480, Note_on_c, 9, 42, 60
9, 88580, Note_off_c, 9, 42, 64
9, 88640, Note_on_c, 9, 42, 80
9, 88740, Note_off_c, 9, 42, 64
9, 88800, Note_on_c, 9, 42, 60
9, 88800, Note_on_c, 9, 37, 100
9, 88900, Note_off_c, 9, 37, 64
9, 88900, Note_off_c, 9, 42, 64
9, 88960, Note_on_c, 9, 42, 80
9, 89060, Note_off_c, 9, 42, 64
9, 89120, Note_on_c, 9, 35, 80
9, 89120, Note_on_c, 9, 42, 60
9, 89220, Note_off_c, 9, 42, 64
9, 89220, Note_off_c, 9, 35, 64
9, 89280, Note_on_c, 9, 35, 90
9, 89280, Note_on_c, 9, 42, 80
9, 89380, Note_off_c, 9, 42, 64
9, 89380, Note_off_c, 9, 35, 64
9, 89440, Note_on_c, 9, 42, 60
9, 89540, Note_off_c, 9, 42, 64
9, 89600, Note_on_c, 9, 42, 80
9, 89700, Note_off_c, 9, 42, 64
9, 89760, Note_on_c, 9, 42, 60
9, 89760, Note_on_c, 9, 37, 100
9, 89860, Note_off_c, 9, 37, 64
9, 89860, Note_off_c, 9, 42, 64
9, 89920, Note_on_c, 9, 42, 80
9, 90020, Note_off_c, 9, 42, 64
9, 90080, Note_on_c, 9, 42, 60
9, 90180, Note_off_c, 9, 42, 64
9, 90240, Note_on_c, 9, 35, 90
9, 90240, Note_on_c, 9, 42, 95
9, 90340, Note_off_c, 9, 42, 64
9, 90340, Note_off_c, 9, 35, 64
9, 90400, Note_on_c, 9, 42, 80
9, 90500, Note_off_c, 9, 42, 64
9, 90560, Note_on_c, 9, 42, 60
9, 90660, Note_off_c, 9, 42, 64
9, 90720, Note_on_c, 9, 42, 60
9, 90720, Note_on_c, 9, 37, 100
9, 90820, Note_off_c, 9, 37, 64
9, 90820, Note_off_c, 9, 42, 64
9, 90880, Note_on_c, 9, 42, 90
9, 90980, Note_off_c, 9, 42, 64
9, 91040, Note_on_c, 9, 35, 80
9, 91040, Note_on_c, 9, 42, 80
9, 91140, Note_off_c, 9, 42, 64
9, 91140, Note_off_c, 9, 35, 64
9, 91200, Note_on_c, 9, 35, 90
9, 91200, Note_on_c, 9, 42, 70
9, 91300, Note_off_c, 9, 42, 64
9, 91300, Note_off_c, 9, 35, 64
9, 91360, Note_on_c, 9, 42, 100
9, 91460, Note_off_c, 9, 42, 64
9, 91520, Note_on_c, 9, 42, 80
9, 91620, Note_off_c, 9, 42, 64
9, 91680, Note_on_c, 9, 42, 60
9, 91680, Note_on_c, 9, 37, 100
9, 91780, Note_off_c, 9, 37, 64
9, 91780, Note_off_c, 9, 42, 64
9, 91840, Note_on_c, 9, 42, 80
9, 91940, Note_off_c, 9, 42, 64
9, 92000, Note_on_c, 9, 35, 80
9, 92000, Note_on_c, 9, 42, 60
9, 92100, Note_off_c, 9, 42, 64
9, 92100, Note_off_c, 9, 35, 64
9, 92160, Note_on_c, 9, 35, 90
9, 92160, Note_on_c, 9, 42, 90
9, 92260, Note_off_c, 9, 42, 64
9, 92260, Note_off_c, 9, 35, 64
9, 92320, Note_on_c, 9, 42, 80
9, 92420, Note_off_c, 9, 42, 64
9, 92480, Note_on_c, 9, 42, 70
9, 92580, Note_off_c, 9, 42, 64
9, 92640, Note_on_c, 9, 42, 60
9, 92640, Note_on_c, 9, 37, 100
9, 92740, Note_off_c, 9, 37, 64
9, 92740, Note_off_c, 9, 42, 64
9, 92800, Note_on_c, 9, 42, 80
9, 92900, Note_off_c, 9, 42, 64
9, 92960, Note_on_c, 9, 35, 80
9, 92960, Note_on_c, 9, 42, 60
9, 93060, Note_off_c, 9, 42, 64
9, 93060, Note_off_c, 9, 35, 64
9, 93120, Note_on_c, 9, 35, 90
9, 93120, Note_on_c, 9, 42, 80
9, 93220, Note_off_c, 9, 42, 64
9, 93220, Note_off_c, 9, 35, 64
9, 93280, Note_on_c, 9, 42, 90
9, 93380, Note_off_c, 9, 42, 64
9, 93440, Note_on_c, 9, 42, 70
9, 93540, Note_off_c, 9, 42, 64
9, 93600, Note_on_c, 9, 42, 60
9, 93600, Note_on_c, 9, 37, 100
9, 93700, Note_off_c, 9, 37, 64
9, 93700, Note_off_c, 9, 42, 64
9, 93760, Note_on_c, 9, 42, 80
9, 93860, Note_off_c, 9, 42, 64
9, 93920, Note_on_c, 9, 42, 60
9, 94020, Note_off_c, 9, 42, 64
9, 94080, Note_on_c, 9, 35, 90
9, 94080, Note_on_c, 9, 42, 90
9, 94180, Note_off_c, 9, 42, 64
9, 94180, Note_off_c, 9, 35, 64
9, 94240, Note_on_c, 9, 42, 75
9, 94340, Note_off_c, 9, 42, 64
9, 94400, Note_on_c, 9, 42, 66
9, 94500, Note_off_c, 9, 42, 64
9, 94560, Note_on_c, 9, 42, 90
9, 94560, Note_on_c, 9, 37, 100
9, 94660, Note_off_c, 9, 37, 64
9, 94660, Note_off_c, 9, 42, 64
9, 94720, Note_on_c, 9, 42, 100
9, 94820, Note_off_c, 9, 42, 64
9, 94880, Note_on_c, 9, 35, 80
9, 94880, Note_on_c, 9, 42, 60
9, 94980, Note_off_c, 9, 42, 64
9, 94980, Note_off_c, 9, 35, 64
9, 95040, Note_on_c, 9, 35, 90
9, 95040, Note_on_c, 9, 42, 80
9, 95140, Note_off_c, 9, 42, 64
9, 95140, Note_off_c, 9, 35, 64
9, 95200, Note_on_c, 9, 42, 60
9, 95300, Note_off_c, 9, 42, 64
9, 95360, Note_on_c, 9, 42, 80
9, 95460, Note_off_c, 9, 42, 64
9, 95520, Note_on_c, 9, 42, 60
9, 95520, Note_on_c, 9, 37, 100
9, 95620, Note_off_c, 9, 37, 64
9, 95620, Note_off_c, 9, 42, 64
9, 95680, Note_on_c, 9, 42, 80
9, 95780, Note_off_c, 9, 42, 64
9, 95840, Note_on_c, 9, 35, 80
9, 95840, Note_on_c, 9, 46, 80
9, 95940, Note_off_c, 9, 46, 64
9, 95940, Note_off_c, 9, 35, 64
9, 96000, Note_on_c, 9, 35, 90
9, 96000, Note_on_c, 9, 42, 90
9, 96100, Note_off_c, 9, 42, 64
9, 96100, Note_off_c, 9, 35, 64
9, 96160, Note_on_c, 9, 42, 80
9, 96260, Note_off_c, 9, 42, 64
9, 96320, Note_on_c, 9, 42, 70
9, 96420, Note_off_c, 9, 42, 64
9, 96480, Note_on_c, 9, 42, 60
9, 96480, Note_on_c, 9, 37, 100
9, 96580, Note_off_c, 9, 37, 64
9, 96580, Note_off_c, 9, 42, 64
9, 96640, Note_on_c, 9, 42, 80
9, 96740, Note_off_c, 9, 42, 64
9, 96800, Note_on_c, 9, 35, 80
9, 96800, Note_on_c, 9, 42, 60
9, 96900, Note_off_c, 9, 42, 64
9, 96900, Note_off_c, 9, 35, 64
9, 96960, Note_on_c, 9, 35, 90
9, 96960, Note_on_c, 9, 42, 80
9, 97060, Note_off_c, 9, 42, 64
9, 97060, Note_off_c, 9, 35, 64
9, 97120, Note_on_c, 9, 42, 90
9, 97220, Note_off_c, 9, 42, 64
9, 97280, Note_on_c, 9, 42, 70
9, 97380, Note_off_c, 9, 42, 64
9, 97440, Note_on_c, 9, 42, 60
9, 97440, Note_on_c, 9, 37, 100
9, 97540, Note_off_c, 9, 37, 64
9, 97540, Note_off_c, 9, 42, 64
9, 97600, Note_on_c, 9, 42, 80
9, 97700, Note_off_c, 9, 42, 64
9, 97760, Note_on_c, 9, 42, 60
9, 97860, Note_off_c, 9, 42, 64
9, 97920, Note_on_c, 9, 35, 90
9, 97920, Note_on_c, 9, 38, 100
9, 97920, Note_on_c, 9, 41, 90
9, 98020, Note_off_c, 9, 41, 64
9, 98020, Note_off_c, 9, 38, 64
9, 98020, Note_off_c, 9, 35, 64
9, 98080, Note_on_c, 9, 38, 70
9, 98080, Note_on_c, 9, 41, 60
9, 98180, Note_off_c, 9, 41, 64
9, 98180, Note_off_c, 9, 38, 64
9, 98240, Note_on_c, 9, 38, 80
9, 98240, Note_on_c, 9, 41, 70
9, 98340, Note_off_c, 9, 41, 64
9, 98340, Note_off_c, 9, 38, 64
9, 98400, Note_on_c, 9, 38, 100
9, 98400, Note_on_c, 9, 41, 80
9, 98500, Note_off_c, 9, 41, 64
9, 98500, Note_off_c, 9, 38, 64
9, 98560, Note_on_c, 9, 38, 70
9, 98560, Note_on_c, 9, 41, 60
9, 98660, Note_off_c, 9, 41, 64
9, 98660, Note_off_c, 9, 38, 64
9, 98720, Note_on_c, 9, 35, 80
9, 98720, Note_on_c, 9, 38, 90
9, 98720, Note_on_c, 9, 41, 70
9, 98820, Note_off_c, 9, 41, 64
9, 98820, Note_off_c, 9, 38, 64
9, 98820, Note_off_c, 9, 35, 64
9, 98880, Note_on_c, 9, 35, 90
9, 98880, Note_on_c, 9, 38, 100
9, 98880, Note_on_c, 9, 41, 90
9, 98980, Note_off_c, 9, 41, 64
9, 98980, Note_off_c, 9, 38, 64
9, 98980, Note_off_c, 9, 35, 64
9, 99200, Note_on_c, 9, 48, 90
9, 99300, Note_off_c, 9, 48, 64
9, 99360, Note_on_c, 9, 48, 80
9, 99460, Note_off_c, 9, 48, 64
9, 99520, Note_on_c, 9, 45, 90
9, 99620, Note_off_c, 9, 45, 64
9, 99680, Note_on_c, 9, 38, 100
9, 99780, Note_off_c, 9, 38, 64
9, 99840, Note_on_c, 9, 35, 90
9, 99840, Note_on_c, 9, 49, 90
9, 99940, Note_off_c, 9, 49, 64
9, 99940, Note_off_c, 9, 35, 64
9, 100000, Note_on_c, 9, 42, 60
9, 100100, Note_off_c, 9, 42, 64
9, 100160, Note_on_c, 9, 42, 80
9, 100260, Note_off_c, 9, 42, 64
9, 100320, Note_on_c, 9, 42, 60
9, 100320, Note_on_c, 9, 37, 100
9, 100420, Note_off_c, 9, 37, 64
9, 100420, Note_off_c, 9, 42, 64
9, 100480, Note_on_c, 9, 42, 80
9, 100580, Note_off_c, 9, 42, 64
9, 100640, Note_on_c, 9, 35, 80
9, 100640, Note_on_c, 9, 42, 60
9, 100740, Note_off_c, 9, 42, 64
9, 100740, Note_off_c, 9, 35, 64
9, 100800, Note_on_c, 9, 35, 90
9, 100800, Note_on_c, 9, 42, 80
9, 100900, Note_off_c, 9, 42, 64
9, 100900, Note_off_c, 9, 35, 64
9, 100960, Note_on_c, 9, 42, 60
9, 101060, Note_off_c, 9, 42, 64
9, 101120, Note_on_c, 9, 42, 80
9, 101220, Note_off_c, 9, 42, 64
9, 101280, Note_on_c, 9, 42, 60
9, 101280, Note_on_c, 9, 37, 100
9, 101380, Note_off_c, 9, 37, 64
9, 101380, Note_off_c, 9, 42, 64
9, 101440, Note_on_c, 9, 42, 80
9, 101540, Note_off_c, 9, 42, 64
9, 101600, Note_on_c, 9, 42, 60
9, 101700, Note_off_c, 9, 42, 64
9, 101760, Note_on_c, 9, 35, 90
9, 101760, Note_on_c, 9, 42, 90
9, 101860, Note_off_c, 9, 42, 64
9, 101860, Note_off_c, 9, 35, 64
9, 101920, Note_on_c, 9, 42, 75
9, 102020, Note_off_c, 9, 42, 64
9, 102080, Note_on_c, 9, 42, 66
9, 102180, Note_off_c, 9, 42, 64
9, 102240, Note_on_c, 9, 42, 90
9, 102240, Note_on_c, 9, 37, 100
9, 102340, Note_off_c, 9, 37, 64
9, 102340, Note_off_c, 9, 42, 64
9, 102400, Note_on_c, 9, 42, 100
9, 102500, Note_off_c, 9, 42, 64
9, 102560, Note_on_c, 9, 35, 80
9, 102560, Note_on_c, 9, 42, 60
9, 102660, Note_off_c, 9, 42, 64
9, 102660, Note_off_c, 9, 35, 64
9, 102720, Note_on_c, 9, 35, 90
9, 102720, Note_on_c, 9, 42, 80
9, 102820, Note_off_c, 9, 42, 64
9, 102820, Note_off_c, 9, 35, 64
9, 102880, Note_on_c, 9, 42, 60
9, 102980, Note_off_c, 9, 42, 64
9, 103040, Note_on_c, 9, 42, 80
9, 103140, Note_off_c, 9, 42, 64
9, 103200, Note_on_c, 9, 42, 60
9, 103200, Note_on_c, 9, 37, 100
9, 103300, Note_off_c, 9, 37, 64
9, 103300, Note_off_c, 9, 42, 64
9, 103360, Note_on_c, 9, 42, 80
9, 103460, Note_off_c, 9, 42, 64
9, 103520, Note_on_c, 9, 35, 80
9, 103520, Note_on_c, 9, 46, 80
9, 103620, Note_off_c, 9, 46, 64
9, 103620, Note_off_c, 9, 35, 64
9, 103680, Note_on_c, 9, 35, 90
9, 103680, Note_on_c, 9, 42, 90
9, 103780, Note_off_c, 9, 42, 64
9, 103780, Note_off_c, 9, 35, 64
9, 103840, Note_on_c, 9, 42, 80
9, 103940, Note_off_c, 9, 42, 64
9, 104000, Note_on_c, 9, 42, 54
9, 104100, Note_off_c, 9, 42, 64
9, 104160, Note_on_c, 9, 42, 60
9, 104160, Note_on_c, 9, 37, 100
9, 104260, Note_off_c, 9, 37, 64
9, 104260, Note_off_c, 9, 42, 64
9, 104320, Note_on_c, 9, 42, 80
9, 104420, Note_off_c, 9, 42, 64
9, 104480, Note_on_c, 9, 35, 80
9, 104480, Note_on_c, 9, 42, 60
9, 104580, Note_off_c, 9, 42, 64
9, 104580, Note_off_c, 9, 35, 64
9, 104640, Note_on_c, 9, 35, 90
9, 104640, Note_on_c, 9, 42, 80
9, 104740, Note_off_c, 9, 42, 64
9, 104740, Note_off_c, 9, 35, 64
9, 104800, Note_on_c, 9, 42, 90
9, 104900, Note_off_c, 9, 42, 64
9, 104960, Note_on_c, 9, 42, 70
9, 105060, Note_off_c, 9, 42, 64
9, 105120, Note_on_c, 9, 42, 60
9, 105120, Note_on_c, 9, 37, 100
9, 105220, Note_off_c, 9, 37, 64
9, 105220, Note_off_c, 9, 42, 64
9, 105280, Note_on_c, 9, 42, 80
9, 105380, Note_off_c, 9, 42, 64
9, 105440, Note_on_c, 9, 42, 60
9, 105540, Note_off_c, 9, 42, 64
9, 105600, Note_on_c, 9, 35, 90
9, 105600, Note_on_c, 9, 42, 95
9, 105700, Note_off_c, 9, 42, 64
9, 105700, Note_off_c, 9, 35, 64
9, 105760, Note_on_c, 9, 42, 80
9, 105860, Note_off_c, 9, 42, 64
9, 105920, Note_on_c, 9, 42, 60
9, 106020, Note_off_c, 9, 42, 64
9, 106080, Note_on_c, 9, 42, 60
9, 106080, Note_on_c, 9, 37, 100
9, 106180, Note_off_c, 9, 37, 64
9, 106180, Note_off_c, 9, 42, 64
9, 106240, Note_on_c, 9, 42, 90
9, 106340, Note_off_c, 9, 42, 64
9, 106400, Note_on_c, 9, 35, 80
9, 106400, Note_on_c, 9, 42, 80
9, 106500, Note_off_c, 9, 42, 64
9, 106500, Note_off_c, 9, 35, 64
9, 106560, Note_on_c, 9, 35, 90
9, 106560, Note_on_c, 9, 42, 70
9, 106660, Note_off_c, 9, 42, 64
9, 106660, Note_off_c, 9, 35, 64
9, 106720, Note_on_c, 9, 42, 100
9, 106820, Note_off_c, 9, 42, 64
9, 106880, Note_on_c, 9, 42, 80
9, 106980, Note_off_c, 9, 42, 64
9, 107040, Note_on_c, 9, 42, 60
9, 107040, Note_on_c, 9, 37, 100
9, 107140, Note_off_c, 9, 37, 64
9, 107140, Note_off_c, 9, 42, 64
9, 107200, Note_on_c, 9, 42, 80
9, 107300, Note_off_c, 9, 42, 64
9, 107360, Note_on_c, 9, 35, 80
9, 107360, Note_on_c, 9, 46, 72
9, 107460, Note_off_c, 9, 46, 64
9, 107460, Note_off_c, 9, 35, 64
9, 107520, Note_on_c, 9, 35, 90
9, 107520, Note_on_c, 9, 42, 90
9, 107620, Note_off_c, 9, 42, 64
9, 107620, Note_off_c, 9, 35, 64
9, 107680, Note_on_c, 9, 42, 60
9, 107780, Note_off_c, 9, 42, 64
9, 107840, Note_on_c, 9, 42, 80
9, 107940, Note_off_c, 9, 42, 64
9, 108000, Note_on_c, 9, 42, 60
9, 108000, Note_on_c, 9, 37, 100
9, 108100, Note_off_c, 9, 37, 64
9, 108100, Note_off_c, 9, 42, 64
9, 108160, Note_on_c, 9, 42, 80
9, 108260, Note_off_c, 9, 42, 64
9, 108320, Note_on_c, 9, 35, 80
9, 108320, Note_on_c, 9, 42, 60
9, 108420, Note_off_c, 9, 42, 64
9, 108420, Note_off_c, 9, 35, 64
9, 108480, Note_on_c, 9, 35, 90
9, 108480, Note_on_c, 9, 42, 80
9, 108580, Note_off_c, 9, 42, 64
9, 108580, Note_off_c, 9, 35, 64
9, 108640, Note_on_c, 9, 42, 60
9, 108740, Note_off_c, 9, 42, 64
9, 108800, Note_on_c, 9, 42, 80
9, 108900, Note_off_c, 9, 42, 64
9, 108960, Note_on_c, 9, 42, 60
9, 108960, Note_on_c, 9, 37, 100
9, 109060, Note_off_c, 9, 37, 64
9, 109060, Note_off_c, 9, 42, 64
9, 109120, Note_on_c, 9, 42, 80
9, 109220, Note_off_c, 9, 42, 64
9, 109280, Note_on_c, 9, 42, 60
9, 109380, Note_off_c, 9, 42, 64
9, 109440, Note_on_c, 9, 35, 90
9, 109440, Note_on_c, 9, 42, 95
9, 109540, Note_off_c, 9, 42, 64
9, 109540, Note_off_c, 9, 35, 64
9, 109600, Note_on_c, 9, 42, 80
9, 109700, Note_off_c, 9, 42, 64
9, 109760, Note_on_c, 9, 42, 60
9, 109860, Note_off_c, 9, 42, 64
9, 109920, Note_on_c, 9, 42, 60
9, 109920, Note_on_c, 9, 37, 100
9, 110020, Note_off_c, 9, 37, 64
9, 110020, Note_off_c, 9, 42, 64
9, 110080, Note_on_c, 9, 42, 90
9, 110180, Note_off_c, 9, 42, 64
9, 110240, Note_on_c, 9, 35, 80
9, 110240, Note_on_c, 9, 42, 80
9, 110340, Note_off_c, 9, 42, 64
9, 110340, Note_off_c, 9, 35, 64
9, 110400, Note_on_c, 9, 35, 90
9, 110400, Note_on_c, 9, 42, 70
9, 110500, Note_off_c, 9, 42, 64
9, 110500, Note_off_c, 9, 35, 64
9, 110560, Note_on_c, 9, 42, 100
9, 110660, Note_off_c, 9, 42, 64
9, 110720, Note_on_c, 9, 42, 80
9, 110820, Note_off_c, 9, 42, 64
9, 110880, Note_on_c, 9, 42, 60
9, 110880, Note_on_c, 9, 37, 100
9, 110980, Note_off_c, 9, 37, 64
9, 110980, Note_off_c, 9, 42, 64
9, 111040, Note_on_c, 9, 42, 80
9, 111140, Note_off_c, 9, 42, 64
9, 111200, Note_on_c, 9, 35, 80
9, 111200, Note_on_c, 9, 42, 60
9, 111300, Note_off_c, 9, 42, 64
9, 111300, Note_off_c, 9, 35, 64
9, 111360, Note_on_c, 9, 35, 90
9, 111360, Note_on_c, 9, 42, 90
9, 111460, Note_off_c, 9, 42, 64
9, 111460, Note_off_c, 9, 35, 64
9, 111520, Note_on_c, 9, 42, 80
9, 111620, Note_off_c, 9, 42, 64
9, 111680, Note_on_c, 9, 42, 70
9, 111780, Note_off_c, 9, 42, 64
9, 111840, Note_on_c, 9, 42, 60
9, 111840, Note_on_c, 9, 37, 100
9, 111940, Note_off_c, 9, 37, 64
9, 111940, Note_off_c, 9, 42, 64
9, 112000, Note_on_c, 9, 42, 80
9, 112100, Note_off_c, 9, 42, 64
9, 112160, Note_on_c, 9, 35, 80
9, 112160, Note_on_c, 9, 42, 60
9, 112260, Note_off_c, 9, 42, 64
9, 112260, Note_off_c, 9, 35, 64
9, 112320, Note_on_c, 9, 35, 90
9, 112320, Note_on_c, 9, 42, 80
9, 112420, Note_off_c, 9, 42, 64
9, 112420, Note_off_c, 9, 35, 64
9, 112480, Note_on_c, 9, 42, 90
9, 112580, Note_off_c, 9, 42, 64
9, 112640, Note_on_c, 9, 42, 70
9, 112740, Note_off_c, 9, 42, 64
9, 112800, Note_on_c, 9, 42, 60
9, 112800, Note_on_c, 9, 37, 100
9, 112900, Note_off_c, 9, 37, 64
9, 112900, Note_off_c, 9, 42, 64
9, 112960, Note_on_c, 9, 46, 54
9, 113060, Note_off_c, 9, 46, 64
9, 113120, Note_on_c, 9, 42, 60
9, 113220, Note_off_c, 9, 42, 64
9, 113280, Note_on_c, 9, 35, 90
9, 113280, Note_on_c, 9, 42, 90
9, 113380, Note_off_c, 9, 42, 64
9, 113380, Note_off_c, 9, 35, 64
9, 113440, Note_on_c, 9, 42, 60
9, 113540, Note_off_c, 9, 42, 64
9, 113600, Note_on_c, 9, 42, 80
9, 113700, Note_off_c, 9, 42, 64
9, 113760, Note_on_c, 9, 38, 100
9, 113760, Note_on_c, 9, 42, 60
9, 113860, Note_off_c, 9, 42, 64
9, 113860, Note_off_c, 9, 38, 64
9, 113920, Note_on_c, 9, 42, 80
9, 114020, Note_off_c, 9, 42, 64
9, 114080, Note_on_c, 9, 35, 80
9, 114080, Note_on_c, 9, 42, 60
9, 114180, Note_off_c, 9, 42, 64
9, 114180, Note_off_c, 9, 35, 64
9, 114240, Note_on_c, 9, 35, 90
9, 114240, Note_on_c, 9, 42, 80
9, 114340, Note_off_c, 9, 42, 64
9, 114340, Note_off_c, 9, 35, 64
9, 114400, Note_on_c, 9, 42, 60
9, 114500, Note_off_c, 9, 42, 64
9, 114560, Note_on_c, 9, 42, 80
9, 114660, Note_off_c, 9, 42, 64
9, 114720, Note_on_c, 9, 38, 100
9, 114820, Note_off_c, 9, 38, 64
9, 114880, Note_on_c, 9, 38, 90
9, 114980, Note_off_c, 9, 38, 64
9, 115200, Note_on_c, 9, 35, 90
9, 115200, Note_on_c, 9, 49, 90
9, 115300, Note_off_c, 9, 49, 64
9, 115300, Note_off_c, 9, 35, 64
9, 115360, Note_on_c, 9, 42, 60
9, 115460, Note_off_c, 9, 42, 64
9, 115520, Note_on_c, 9, 42, 80
9, 115620, Note_off_c, 9, 42, 64
9, 115680, Note_on_c, 9, 42, 60
9, 115680, Note_on_c, 9, 37, 100
9, 115780, Note_off_c, 9, 37, 64
9, 115780, Note_off_c, 9, 42, 64
9, 115840, Note_on_c, 9, 42, 80
9, 115940, Note_off_c, 9, 42, 64
9, 116000, Note_on_c, 9, 35, 80
9, 116000, Note_on_c, 9, 42, 60
9, 116100, Note_off_c, 9, 42, 64
9, 116100, Note_off_c, 9, 35, 64
9, 116160, Note_on_c, 9, 35, 90
9, 116160, Note_on_c, 9, 42, 80
9, 116260, Note_off_c, 9, 42, 64
9, 116260, Note_off_c, 9, 35, 64
9, 116320, Note_on_c, 9, 42, 60
9, 116420, Note_off_c, 9, 42, 64
9, 116480, Note_on_c, 9, 42, 80
9, 116580, Note_off_c, 9, 42, 64
9, 116640, Note_on_c, 9, 42, 60
9, 116640, Note_on_c, 9, 37, 100
9, 116740, Note_off_c, 9, 37, 64
9, 116740, Note_off_c, 9, 42, 64
9, 116800, Note_on_c, 9, 42, 80
9, 116900, Note_off_c, 9, 42, 64
9, 116960, Note_on_c, 9, 42, 60
9, 117060, Note_off_c, 9, 42, 64
9, 117120, Note_on_c, 9, 35, 90
9, 117120, Note_on_c, 9, 42, 90
9, 117220, Note_off_c, 9, 42, 64
9, 117220, Note_off_c, 9, 35, 64
9, 117280, Note_on_c, 9, 42, 75
9, 117380, Note_off_c, 9, 42, 64
9, 117440, Note_on_c, 9, 42, 66
9, 117540, Note_off_c, 9, 42, 64
9, 117600, Note_on_c, 9, 42, 90
9, 117600, Note_on_c, 9, 37, 100
9, 117700, Note_off_c, 9, 37, 64
9, 117700, Note_off_c, 9, 42, 64
9, 117760, Note_on_c, 9, 42, 100
9, 117860, Note_off_c, 9, 42, 64
9, 117920, Note_on_c, 9, 35, 80
9, 117920, Note_on_c, 9, 42, 60
9, 118020, Note_off_c, 9, 42, 64
9, 118020, Note_off_c, 9, 35, 64
9, 118080, Note_on_c, 9, 35, 90
9, 118080, Note_on_c, 9, 42, 80
9, 118180, Note_off_c, 9, 42, 64
9, 118180, Note_off_c, 9, 35, 64
9, 118240, Note_on_c, 9, 42, 60
9, 118340, Note_off_c, 9, 42, 64
9, 118400, Note_on_c, 9, 42, 80
9, 118500, Note_off_c, 9, 42, 64
9, 118560, Note_on_c, 9, 42, 60
9, 118560, Note_on_c, 9, 37, 100
9, 118660, Note_off_c, 9, 37, 64
9, 118660, Note_off_c, 9, 42, 64
9, 118720, Note_on_c, 9, 42, 80
9, 118820, Note_off_c, 9, 42, 64
9, 118880, Note_on_c, 9, 35, 80
9, 118880, Note_on_c, 9, 46, 80
9, 118980, Note_off_c, 9, 46, 64
9, 118980, Note_off_c, 9, 35, 64
9, 119040, Note_on_c, 9, 35, 90
9, 119040, Note_on_c, 9, 42, 90
9, 119140, Note_off_c, 9, 42, 64
9, 119140, Note_off_c, 9, 35, 64
9, 119200, Note_on_c, 9, 42, 80
9, 119300, Note_off_c, 9, 42, 64
9, 119360, Note_on_c, 9, 42, 54
9, 119460, Note_off_c, 9, 42, 64
9, 119520, Note_on_c, 9, 42, 60
9, 119520, Note_on_c, 9, 37, 100
9, 119620, Note_off_c, 9, 37, 64
9, 119620, Note_off_c, 9, 42, 64
9, 119680, Note_on_c, 9, 42, 80
9, 119780, Note_off_c, 9, 42, 64
9, 119840, Note_on_c, 9, 35, 80
9, 119840, Note_on_c, 9, 42, 60
9, 119940, Note_off_c, 9, 42, 64
9, 119940, Note_off_c, 9, 35, 64
9, 120000, Note_on_c, 9, 35, 90
9, 120000, Note_on_c, 9, 42, 80
9, 120100, Note_off_c, 9, 42, 64
9, 120100, Note_off_c, 9, 35, 64
9, 120160, Note_on_c, 9, 42, 90
9, 120260, Note_off_c, 9, 42, 64
9, 120320, Note_on_c, 9, 42, 70
9, 120420, Note_off_c, 9, 42, 64
9, 120480, Note_on_c, 9, 42, 60
9, 120480, Note_on_c, 9, 37, 100
9, 120580, Note_off_c, 9, 37, 64
9, 120580, Note_off_c, 9, 42, 64
9, 120640, Note_on_c, 9, 42, 80
9, 120740, Note_off_c, 9, 42, 64
9, 120800, Note_on_c, 9, 42, 60
9, 120900, Note_off_c, 9, 42, 64
9, 120960, Note_on_c, 9, 35, 90
9, 120960, Note_on_c, 9, 42, 95
9, 121060, Note_off_c, 9, 42, 64
9, 121060, Note_off_c, 9, 35, 64
9, 121120, Note_on_c, 9, 42, 80
9, 121220, Note_off_c, 9, 42, 64
9, 121280, Note_on_c, 9, 42, 60
9, 121380, Note_off_c, 9, 42, 64
9, 121440, Note_on_c, 9, 42, 60
9, 121440, Note_on_c, 9, 37, 100
9, 121540, Note_off_c, 9, 37, 64
9, 121540, Note_off_c, 9, 42, 64
9, 121600, Note_on_c, 9, 42, 90
9, 121700, Note_off_c, 9, 42, 64
9, 121760, Note_on_c, 9, 35, 80
9, 121760, Note_on_c, 9, 42, 80
9, 121860, Note_off_c, 9, 42, 64
9, 121860, Note_off_c, 9, 35, 64
9, 121920, Note_on_c, 9, 35, 90
9, 121920, Note_on_c, 9, 42, 70
9, 122020, Note_off_c, 9, 42, 64
9, 122020, Note_off_c, 9, 35, 64
9, 122080, Note_on_c, 9, 42, 100
9, 122180, Note_off_c, 9, 42, 64
9, 122240, Note_on_c, 9, 42, 80
9, 122340, Note_off_c, 9, 42, 64
9, 122400, Note_on_c, 9, 42, 60
9, 122400, Note_on_c, 9, 37, 100
9, 122500, Note_off_c, 9, 37, 64
9, 122500, Note_off_c, 9, 42, 64
9, 122560, Note_on_c, 9, 42, 80
9, 122660, Note_off_c, 9, 42, 64
9, 122720, Note_on_c, 9, 35, 80
9, 122720, Note_on_c, 9, 46, 72
9, 122820, Note_off_c, 9, 46, 64
9, 122820, Note_off_c, 9, 35, 64
9, 122880, Note_on_c, 9, 35, 90
9, 122880, Note_on_c, 9, 42, 90
9, 122980, Note_off_c, 9, 42, 64
9, 122980, Note_off_c, 9, 35, 64
9, 123040, Note_on_c, 9, 42, 80
9, 123140, Note_off_c, 9, 42, 64
9, 123200, Note_on_c, 9, 42, 70
9, 123300, Note_off_c, 9, 42, 64
9, 123360, Note_on_c, 9, 42, 60
9, 123360, Note_on_c, 9, 37, 100
9, 123460, Note_off_c, 9, 37, 64
9, 123460, Note_off_c, 9, 42, 64
9, 123520, Note_on_c, 9, 42, 80
9, 123620, Note_off_c, 9, 42, 64
9, 123680, Note_on_c, 9, 35, 80
9, 123680, Note_on_c, 9, 42, 60
9, 123780, Note_off_c, 9, 42, 64
9, 123780, Note_off_c, 9, 35, 64
9, 123840, Note_on_c, 9, 35, 90
9, 123840, Note_on_c, 9, 42, 80
9, 123940, Note_off_c, 9, 42, 64
9, 123940, Note_off_c, 9, 35, 64
9, 124000, Note_on_c, 9, 42, 90
9, 124100, Note_off_c, 9, 42, 64
9, 124160, Note_on_c, 9, 42, 70
9, 124260, Note_off_c, 9, 42, 64
9, 124320, Note_on_c, 9, 42, 60
9, 124320, Note_on_c, 9, 37, 100
9, 124420, Note_off_c, 9, 37, 64
9, 124420, Note_off_c, 9, 42, 64
9, 124480, Note_on_c, 9, 42, 80
9, 124580, Note_off_c, 9, 42, 64
9, 124640, Note_on_c, 9, 42, 60
9, 124740, Note_off_c, 9, 42, 64
9, 124800, Note_on_c, 9, 35, 90
9, 124800, Note_on_c, 9, 42, 90
9, 124900, Note_off_c, 9, 42, 64
9, 124900, Note_off_c, 9, 35, 64
9, 124960, Note_on_c, 9, 42, 75
9, 125060, Note_off_c, 9, 42, 64
9, 125120, Note_on_c, 9, 42, 66
9, 125220, Note_off_c, 9, 42, 64
9, 125280, Note_on_c, 9, 42, 90
9, 125280, Note_on_c, 9, 37, 100
9, 125380, Note_off_c, 9, 37, 64
9, 125380, Note_off_c, 9, 42, 64
9, 125440, Note_on_c, 9, 42, 100
9, 125540, Note_off_c, 9, 42, 64
9, 125600, Note_on_c, 9, 35, 80
9, 125600, Note_on_c, 9, 42, 60
9, 125700, Note_off_c, 9, 42, 64
9, 125700, Note_off_c, 9, 35, 64
9, 125760, Note_on_c, 9, 35, 90
9, 125760, Note_on_c, 9, 42, 80
9, 125860, Note_off_c, 9, 42, 64
9, 125860, Note_off_c, 9, 35, 64
9, 125920, Note_on_c, 9, 42, 60
9, 126020, Note_off_c, 9, 42, 64
9, 126080, Note_on_c, 9, 42, 80
9, 126180, Note_off_c, 9, 42, 64
9, 126240, Note_on_c, 9, 42, 60
9, 126240, Note_on_c, 9, 37, 100
9, 126340, Note_off_c, 9, 37, 64
9, 126340, Note_off_c, 9, 42, 64
9, 126400, Note_on_c, 9, 42, 80
9, 126500, Note_off_c, 9, 42, 64
9, 126560, Note_on_c, 9, 35, 80
9, 126560, Note_on_c, 9, 46, 80
9, 126660, Note_off_c, 9, 46, 64
9, 126660, Note_off_c, 9, 35, 64
9, 126720, Note_on_c, 9, 35, 90
9, 126720, Note_on_c, 9, 42, 90
9, 126820, Note_off_c, 9, 42, 64
9, 126820, Note_off_c, 9, 35, 64
9, 126880, Note_on_c, 9, 42, 80
9, 126980, Note_off_c, 9, 42, 64
9, 127040, Note_on_c, 9, 42, 70
9, 127140, Note_off_c, 9, 42, 64
9, 127200, Note_on_c, 9, 42, 60
9, 127200, Note_on_c, 9, 37, 100
9, 127300, Note_off_c, 9, 37, 64
9, 127300, Note_off_c, 9, 42, 64
9, 127360, Note_on_c, 9, 42, 80
9, 127460, Note_off_c, 9, 42, 64
9, 127520, Note_on_c, 9, 35, 80
9, 127520, Note_on_c, 9, 42, 60
9, 127620, Note_off_c, 9, 42, 64
9, 127620, Note_off_c, 9, 35, 64
9, 127680, Note_on_c, 9, 35, 90
9, 127680, Note_on_c, 9, 42, 80
9, 127780, Note_off_c, 9, 42, 64
9, 127780, Note_off_c, 9, 35, 64
9, 127840, Note_on_c, 9, 42, 90
9, 127940, Note_off_c, 9, 42, 64
9, 128000, Note_on_c, 9, 42, 70
9, 128100, Note_off_c, 9, 42, 64
9, 128160, Note_on_c, 9, 42, 60
9, 128160, Note_on_c, 9, 37, 100
9, 128260, Note_off_c, 9, 37, 64
9, 128260, Note_off_c, 9, 42, 64
9, 128320, Note_on_c, 9, 42, 80
9, 128420, Note_off_c, 9, 42, 64
9, 128480, Note_on_c, 9, 42, 60
9, 128580, Note_off_c, 9, 42, 64
9, 128640, Note_on_c, 9, 35, 90
9, 128640, Note_on_c, 9, 42, 90
9, 128740, Note_off_c, 9, 42, 64
9, 128740, Note_off_c, 9, 35, 64
9, 128800, Note_on_c, 9, 42, 60
9, 128900, Note_off_c, 9, 42, 64
9, 128960, Note_on_c, 9, 42, 80
9, 129060, Note_off_c, 9, 42, 64
9, 129120, Note_on_c, 9, 42, 60
9, 129120, Note_on_c, 9, 37, 100
9, 129220, Note_off_c, 9, 37, 64
9, 129220, Note_off_c, 9, 42, 64
9, 129280, Note_on_c, 9, 42, 80
9, 129380, Note_off_c, 9, 42, 64
9, 129440, Note_on_c, 9, 35, 80
9, 129440, Note_on_c, 9, 42, 60
9, 129540, Note_off_c, 9, 42, 64
9, 129540, Note_off_c, 9, 35, 64
9, 129600, Note_on_c, 9, 35, 90
9, 129600, Note_on_c, 9, 42, 80
9, 129700, Note_off_c, 9, 42, 64
9, 129700, Note_off_c, 9, 35, 64
9, 129760, Note_on_c, 9, 42, 60
9, 129860, Note_off_c, 9, 42, 64
9, 129920, Note_on_c, 9, 42, 80
9, 130020, Note_off_c, 9, 42, 64
9, 130080, Note_on_c, 9, 38, 100
9, 130080, Note_on_c, 9, 46, 80
9, 130180, Note_off_c, 9, 46, 64
9, 130180, Note_off_c, 9, 38, 64
9, 130560, Note_on_c, 9, 35, 90
9, 130560, Note_on_c, 9, 42, 90
9, 130660, Note_off_c, 9, 42, 64
9, 130660, Note_off_c, 9, 35, 64
9, 130720, Note_on_c, 9, 42, 60
9, 130820, Note_off_c, 9, 42, 64
9, 130880, Note_on_c, 9, 42, 80
9, 130980, Note_off_c, 9, 42, 64
9, 131040, Note_on_c, 9, 42, 60
9, 131040, Note_on_c, 9, 37, 100
9, 131140, Note_off_c, 9, 37, 64
9, 131140, Note_off_c, 9, 42, 64
9, 131200, Note_on_c, 9, 42, 80
9, 131300, Note_off_c, 9, 42, 64
9, 131360, Note_on_c, 9, 35, 80
9, 131360, Note_on_c, 9, 42, 60
9, 131460, Note_off_c, 9, 42, 64
9, 131460, Note_off_c, 9, 35, 64
9, 131520, Note_on_c, 9, 35, 90
9, 131520, Note_on_c, 9, 42, 80
9, 131620, Note_off_c, 9, 42, 64
9, 131620, Note_off_c, 9, 35, 64
9, 131680, Note_on_c, 9, 42, 60
9, 131780, Note_off_c, 9, 42, 64
9, 131840, Note_on_c, 9, 42, 80
9, 131940, Note_off_c, 9, 42, 64
9, 132000, Note_on_c, 9, 42, 60
9, 132000, Note_on_c, 9, 37, 100
9, 132100, Note_off_c, 9, 37, 64
9, 132100, Note_off_c, 9, 42, 64
9, 132160, Note_on_c, 9, 42, 80
9, 132260, Note_off_c, 9, 42, 64
9, 132320, Note_on_c, 9, 42, 60
9, 132420, Note_off_c, 9, 42, 64
9, 132480, Note_on_c, 9, 35, 90
9, 132480, Note_on_c, 9, 42, 95
9, 132580, Note_off_c, 9, 42, 64
9, 132580, Note_off_c, 9, 35, 64
9, 132640, Note_on_c, 9, 42, 80
9, 132740, Note_off_c, 9, 42, 64
9, 132800, Note_on_c, 9, 42, 60
9, 132900, Note_off_c, 9, 42, 64
9, 132960, Note_on_c, 9, 42, 60
9, 132960, Note_on_c, 9, 37, 100
9, 133060, Note_off_c, 9, 37, 64
9, 133060, Note_off_c, 9, 42, 64
9, 133120, Note_on_c, 9, 42, 90
9, 133220, Note_off_c, 9, 42, 64
9, 133280, Note_on_c, 9, 35, 80
9, 133280, Note_on_c, 9, 42, 80
9, 133380, Note_off_c, 9, 42, 64
9, 133380, Note_off_c, 9, 35, 64
9, 133440, Note_on_c, 9, 35, 90
9, 133440, Note_on_c, 9, 42, 70
9, 133540, Note_off_c, 9, 42, 64
9, 133540, Note_off_c, 9, 35, 64
9, 133600, Note_on_c, 9, 42, 100
9, 133700, Note_off_c, 9, 42, 64
9, 133760, Note_on_c, 9, 42, 80
9, 133860, Note_off_c, 9, 42, 64
9, 133920, Note_on_c, 9, 42, 60
9, 133920, Note_on_c, 9, 37, 100
9, 134020, Note_off_c, 9, 37, 64
9, 134020, Note_off_c, 9, 42, 64
9, 134080, Note_on_c, 9, 42, 80
9, 134180, Note_off_c, 9, 42, 64
9, 134240, Note_on_c, 9, 35, 80
9, 134240, Note_on_c, 9, 46, 72
9, 134340, Note_off_c, 9, 46, 64
9, 134340, Note_off_c, 9, 35, 64
9, 134400, Note_on_c, 9, 35, 90
9, 134400, Note_on_c, 9, 42, 90
9, 134500, Note_off_c, 9, 42, 64
9, 134500, Note_off_c, 9, 35, 64
9, 134560, Note_on_c, 9, 42, 80
9, 134660, Note_off_c, 9, 42, 64
9, 134720, Note_on_c, 9, 42, 70
9, 134820, Note_off_c, 9, 42, 64
9, 134880, Note_on_c, 9, 42, 60
9, 134880, Note_on_c, 9, 37, 100
9, 134980, Note_off_c, 9, 37, 64
9, 134980, Note_off_c, 9, 42, 64
9, 135040, Note_on_c, 9, 42, 80
9, 135140, Note_off_c, 9, 42, 64
9, 135200, Note_on_c, 9, 35, 80
9, 135200, Note_on_c, 9, 42, 60
9, 135300, Note_off_c, 9, 42, 64
9, 135300, Note_off_c, 9, 35, 64
9, 135360, Note_on_c, 9, 35, 90
9, 135360, Note_on_c, 9, 42, 80
9, 135460, Note_off_c, 9, 42, 64
9, 135460, Note_off_c, 9, 35, 64
9, 135520, Note_on_c, 9, 42, 90
9, 135620, Note_off_c, 9, 42, 64
9, 135680, Note_on_c, 9, 42, 70
9, 135780, Note_off_c, 9, 42, 64
9, 135840, Note_on_c, 9, 42, 60
9, 135840, Note_on_c, 9, 37, 100
9, 135940, Note_off_c, 9, 37, 64
9, 135940, Note_off_c, 9, 42, 64
9, 136000, Note_on_c, 9, 42, 80
9, 136100, Note_off_c, 9, 42, 64
9, 136160, Note_on_c, 9, 42, 60
9, 136260, Note_off_c, 9, 42, 64
9, 136320, Note_on_c, 9, 35, 90
9, 136320, Note_on_c, 9, 42, 90
9, 136420, Note_off_c, 9, 42, 64
9, 136420, Note_off_c, 9, 35, 64
9, 136480, Note_on_c, 9, 42, 60
9, 136580, Note_off_c, 9, 42, 64
9, 136640, Note_on_c, 9, 42, 80
9, 136740, Note_off_c, 9, 42, 64
9, 136800, Note_on_c, 9, 38, 100
9, 136800, Note_on_c, 9, 42, 60
9, 136900, Note_off_c, 9, 42, 64
9, 136900, Note_off_c, 9, 38, 64
9, 136960, Note_on_c, 9, 42, 80
9, 137060, Note_off_c, 9, 42, 64
9, 137120, Note_on_c, 9, 35, 80
9, 137120, Note_on_c, 9, 42, 60
9, 137220, Note_off_c, 9, 42, 64
9, 137220, Note_off_c, 9, 35, 64
9, 137280, Note_on_c, 9, 35, 90
9, 137280, Note_on_c, 9, 42, 80
9, 137380, Note_off_c, 9, 42, 64
9, 137380, Note_off_c, 9, 35, 64
9, 137440, Note_on_c, 9, 42, 60
9, 137540, Note_off_c, 9, 42, 64
9, 137600, Note_on_c, 9, 42, 80
9, 137700, Note_off_c, 9, 42, 64
9, 137760, Note_on_c, 9, 38, 100
9, 137860, Note_off_c, 9, 38, 64
9, 137920, Note_on_c, 9, 38, 90
9, 138020, Note_off_c, 9, 38, 64
9, 138240, Note_on_c, 9, 35, 90
9, 138240, Note_on_c, 9, 49, 90
9, 138340, Note_off_c, 9, 49, 64
9, 138340, Note_off_c, 9, 35, 64
9, 138400, Note_on_c, 9, 42, 60
9, 138500, Note_off_c, 9, 42, 64
9, 138560, Note_on_c, 9, 42, 80
9, 138660, Note_off_c, 9, 42, 64
9, 138720, Note_on_c, 9, 42, 60
9, 138720, Note_on_c, 9, 37, 100
9, 138820, Note_off_c, 9, 37, 64
9, 138820, Note_off_c, 9, 42, 64
9, 138880, Note_on_c, 9, 42, 80
9, 138980, Note_off_c, 9, 42, 64
9, 139040, Note_on_c, 9, 35, 80
9, 139040, Note_on_c, 9, 42, 60
9, 139140, Note_off_c, 9, 42, 64
9, 139140, Note_off_c, 9, 35, 64
9, 139200, Note_on_c, 9, 35, 90
9, 139200, Note_on_c, 9, 42, 80
9, 139300, Note_off_c, 9, 42, 64
9, 139300, Note_off_c, 9, 35, 64
9, 139360, Note_on_c, 9, 42, 60
9, 139460, Note_off_c, 9, 42, 64
9, 139520, Note_on_c, 9, 42, 80
9, 139620, Note_off_c, 9, 42, 64
9, 139680, Note_on_c, 9, 42, 60
9, 139680, Note_on_c, 9, 37, 100
9, 139780, Note_off_c, 9, 37, 64
9, 139780, Note_off_c, 9, 42, 64
9, 139840, Note_on_c, 9, 42, 80
9, 139940, Note_off_c, 9, 42, 64
9, 140000, Note_on_c, 9, 42, 60
9, 140100, Note_off_c, 9, 42, 64
9, 140160, Note_on_c, 9, 35, 90
9, 140160, Note_on_c, 9, 42, 90
9, 140260, Note_off_c, 9, 42, 64
9, 140260, Note_off_c, 9, 35, 64
9, 140320, Note_on_c, 9, 42, 75
9, 140420, Note_off_c, 9, 42, 64
9, 140480, Note_on_c, 9, 42, 66
9, 140580, Note_off_c, 9, 42, 64
9, 140640, Note_on_c, 9, 42, 90
9, 140640, Note_on_c, 9, 37, 100
9, 140740, Note_off_c, 9, 37, 64
9, 140740, Note_off_c, 9, 42, 64
9, 140800, Note_on_c, 9, 42, 100
9, 140900, Note_off_c, 9, 42, 64
9, 140960, Note_on_c, 9, 35, 80
9, 140960, Note_on_c, 9, 42, 60
9, 141060, Note_off_c, 9, 42, 64
9, 141060, Note_off_c, 9, 35, 64
9, 141120, Note_on_c, 9, 35, 90
9, 141120, Note_on_c, 9, 42, 80
9, 141220, Note_off_c, 9, 42, 64
9, 141220, Note_off_c, 9, 35, 64
9, 141280, Note_on_c, 9, 42, 60
9, 141380, Note_off_c, 9, 42, 64
9, 141440, Note_on_c, 9, 42, 80
9, 141540, Note_off_c, 9, 42, 64
9, 141600, Note_on_c, 9, 42, 60
9, 141600, Note_on_c, 9, 37, 100
9, 141700, Note_off_c, 9, 37, 64
9, 141700, Note_off_c, 9, 42, 64
9, 141760, Note_on_c, 9, 42, 80
9, 141860, Note_off_c, 9, 42, 64
9, 141920, Note_on_c, 9, 35, 80
9, 141920, Note_on_c, 9, 46, 80
9, 142020, Note_off_c, 9, 46, 64
9, 142020, Note_off_c, 9, 35, 64
9, 142080, Note_on_c, 9, 35, 90
9, 142080, Note_on_c, 9, 42, 90
9, 142180, Note_off_c, 9, 42, 64
9, 142180, Note_off_c, 9, 35, 64
9, 142240, Note_on_c, 9, 42, 80
9, 142340, Note_off_c, 9, 42, 64
9, 142400, Note_on_c, 9, 42, 70
9, 142500, Note_off_c, 9, 42, 64
9, 142560, Note_on_c, 9, 42, 60
9, 142560, Note_on_c, 9, 37, 100
9, 142660, Note_off_c, 9, 37, 64
9, 142660, Note_off_c, 9, 42, 64
9, 142720, Note_on_c, 9, 42, 80
9, 142820, Note_off_c, 9, 42, 64
9, 142880, Note_on_c, 9, 35, 80
9, 142880, Note_on_c, 9, 42, 60
9, 142980, Note_off_c, 9, 42, 64
9, 142980, Note_off_c, 9, 35, 64
9, 143040, Note_on_c, 9, 35, 90
9, 143040, Note_on_c, 9, 42, 80
9, 143140, Note_off_c, 9, 42, 64
9, 143140, Note_off_c, 9, 35, 64
9, 143200, Note_on_c, 9, 42, 90
9, 143300, Note_off_c, 9, 42, 64
9, 143360, Note_on_c, 9, 42, 70
9, 143460, Note_off_c, 9, 42, 64
9, 143520, Note_on_c, 9, 42, 60
9, 143520, Note_on_c, 9, 37, 100
9, 143620, Note_off_c, 9, 37, 64
9, 143620, Note_off_c, 9, 42, 64
9, 143680, Note_on_c, 9, 42, 80
9, 143780, Note_off_c, 9, 42, 64
9, 143840, Note_on_c, 9, 42, 60
9, 143940, Note_off_c, 9, 42, 64
9, 144000, Note_on_c, 9, 35, 90
9, 144000, Note_on_c, 9, 42, 90
9, 144100, Note_off_c, 9, 42, 64
9, 144100, Note_off_c, 9, 35, 64
9, 144160, Note_on_c, 9, 42, 75
9, 144260, Note_off_c, 9, 42, 64
9, 144320, Note_on_c, 9, 42, 66
9, 144420, Note_off_c, 9, 42, 64
9, 144480, Note_on_c, 9, 42, 90
9, 144480, Note_on_c, 9, 37, 100
9, 144580, Note_off_c, 9, 37, 64
9, 144580, Note_off_c, 9, 42, 64
9, 144640, Note_on_c, 9, 42, 100
9, 144740, Note_off_c, 9, 42, 64
9, 144800, Note_on_c, 9, 35, 80
9, 144800, Note_on_c, 9, 42, 60
9, 144900, Note_off_c, 9, 42, 64
9, 144900, Note_off_c, 9, 35, 64
9, 144960, Note_on_c, 9, 35, 90
9, 144960, Note_on_c, 9, 42, 80
9, 145060, Note_off_c, 9, 42, 64
9, 145060, Note_off_c, 9, 35, 64
9, 145120, Note_on_c, 9, 42, 60
9, 145220, Note_off_c, 9, 42, 64
9, 145280, Note_on_c, 9, 42, 80
9, 145380, Note_off_c, 9, 42, 64
9, 145440, Note_on_c, 9, 42, 60
9, 145440, Note_on_c, 9, 37, 100
9, 145540, Note_off_c, 9, 37, 64
9, 145540, Note_off_c, 9, 42, 64
9, 145600, Note_on_c, 9, 42, 80
9, 145700, Note_off_c, 9, 42, 64
9, 145760, Note_on_c, 9, 35, 80
9, 145760, Note_on_c, 9, 46, 80
9, 145860, Note_off_c, 9, 46, 64
9, 145860, Note_off_c, 9, 35, 64
9, 145920, Note_on_c, 9, 35, 90
9, 145920, Note_on_c, 9, 42, 90
9, 146020, Note_off_c, 9, 42, 64
9, 146020, Note_off_c, 9, 35, 64
9, 146080, Note_on_c, 9, 42, 80
9, 146180, Note_off_c, 9, 42, 64
9, 146240, Note_on_c, 9, 42, 70
9, 146340, Note_off_c, 9, 42, 64
9, 146400, Note_on_c, 9, 42, 60
9, 146400, Note_on_c, 9, 37, 100
9, 146500, Note_off_c, 9, 37, 64
9, 146500, Note_off_c, 9, 42, 64
9, 146560, Note_on_c, 9, 42, 80
9, 146660, Note_off_c, 9, 42, 64
9, 146720, Note_on_c, 9, 35, 80
9, 146720, Note_on_c, 9, 42, 60
9, 146820, Note_off_c, 9, 42, 64
9, 146820, Note_off_c, 9, 35, 64
9, 146880, Note_on_c, 9, 35, 90
9, 146880, Note_on_c, 9, 42, 80
9, 146980, Note_off_c, 9, 42, 64
9, 146980, Note_off_c, 9, 35, 64
9, 147040, Note_on_c, 9, 42, 90
9, 147140, Note_off_c, 9, 42, 64
9, 147200, Note_on_c, 9, 42, 70
9, 147300, Note_off_c, 9, 42, 64
9, 147360, Note_on_c, 9, 42, 60
9, 147360, Note_on_c, 9, 37, 100
9, 147460, Note_off_c, 9, 37, 64
9, 147460, Note_off_c, 9, 42, 64
9, 147520, Note_on_c, 9, 42, 80
9, 147620, Note_off_c, 9, 42, 64
9, 147680, Note_on_c, 9, 42, 60
9, 147780, Note_off_c, 9, 42, 64
9, 147840, Note_on_c, 9, 35, 90
9, 147840, Note_on_c, 9, 42, 95
9, 147940, Note_off_c, 9, 42, 64
9, 147940, Note_off_c, 9, 35, 64
9, 148000, Note_on_c, 9, 42, 80
9, 148100, Note_off_c, 9, 42, 64
9, 148160, Note_on_c, 9, 42, 60
9, 148260, Note_off_c, 9, 42, 64
9, 148320, Note_on_c, 9, 42, 60
9, 148320, Note_on_c, 9, 37, 100
9, 148420, Note_off_c, 9, 37, 64
9, 148420, Note_off_c, 9, 42, 64
9, 148480, Note_on_c, 9, 42, 90
9, 148580, Note_off_c, 9, 42, 64
9, 148640, Note_on_c, 9, 35, 80
9, 148640, Note_on_c, 9, 42, 80
9, 148740, Note_off_c, 9, 42, 64
9, 148740, Note_off_c, 9, 35, 64
9, 148800, Note_on_c, 9, 35, 90
9, 148800, Note_on_c, 9, 42, 70
9, 148900, Note_off_c, 9, 42, 64
9, 148900, Note_off_c, 9, 35, 64
9, 148960, Note_on_c, 9, 42, 100
9, 149060, Note_off_c, 9, 42, 64
9, 149120, Note_on_c, 9, 42, 80
9, 149220, Note_off_c, 9, 42, 64
9, 149280, Note_on_c, 9, 42, 60
9, 149280, Note_on_c, 9, 37, 100
9, 149380, Note_off_c, 9, 37, 64
9, 149380, Note_off_c, 9, 42, 64
9, 149440, Note_on_c, 9, 42, 80
9, 149540, Note_off_c, 9, 42, 64
9, 149600, Note_on_c, 9, 35, 80
9, 149600, Note_on_c, 9, 42, 60
9, 149700, Note_off_c, 9, 42, 64
9, 149700, Note_off_c, 9, 35, 64
9, 149760, Note_on_c, 9, 35, 90
9, 149760, Note_on_c, 9, 42, 90
9, 149860, Note_off_c, 9, 42, 64
9, 149860, Note_off_c, 9, 35, 64
9, 149920, Note_on_c, 9, 42, 60
9, 150020, Note_off_c, 9, 42, 64
9, 150080, Note_on_c, 9, 42, 80
9, 150180, Note_off_c, 9, 42, 64
9, 150240, Note_on_c, 9, 42, 60
9, 150240, Note_on_c, 9, 37, 100
9, 150340, Note_off_c, 9, 37, 64
9, 150340, Note_off_c, 9, 42, 64
9, 150400, Note_on_c, 9, 42, 80
9, 150500, Note_off_c, 9, 42, 64
9, 150560, Note_on_c, 9, 35, 80
9, 150560, Note_on_c, 9, 42, 60
9, 150660, Note_off_c, 9, 42, 64
9, 150660, Note_off_c, 9, 35, 64
9, 150720, Note_on_c, 9, 35, 90
9, 150720, Note_on_c, 9, 42, 80
9, 150820, Note_off_c, 9, 42, 64
9, 150820, Note_off_c, 9, 35, 64
9, 150880, Note_on_c, 9, 42, 60
9, 150980, Note_off_c, 9, 42, 64
9, 151040, Note_on_c, 9, 42, 80
9, 151140, Note_off_c, 9, 42, 64
9, 151200, Note_on_c, 9, 42, 60
9, 151200, Note_on_c, 9, 37, 100
9, 151300, Note_off_c, 9, 37, 64
9, 151300, Note_off_c, 9, 42, 64
9, 151360, Note_on_c, 9, 42, 80
9, 151460, Note_off_c, 9, 42, 64
9, 151520, Note_on_c, 9, 42, 60
9, 151620, Note_off_c, 9, 42, 64
9, 151680, Note_on_c, 9, 35, 90
9, 151680, Note_on_c, 9, 42, 90
9, 151780, Note_off_c, 9, 42, 64
9, 151780, Note_off_c, 9, 35, 64
9, 151840, Note_on_c, 9, 42, 60
9, 151940, Note_off_c, 9, 42, 64
9, 152000, Note_on_c, 9, 42, 80
9, 152100, Note_off_c, 9, 42, 64
9, 152160, Note_on_c, 9, 38, 100
9, 152160, Note_on_c, 9, 42, 60
9, 152260, Note_off_c, 9, 42, 64
9, 152260, Note_off_c, 9, 38, 64
9, 152320, Note_on_c, 9, 42, 80
9, 152420, Note_off_c, 9, 42, 64
9, 152480, Note_on_c, 9, 35, 80
9, 152480, Note_on_c, 9, 42, 60
9, 152580, Note_off_c, 9, 42, 64
9, 152580, Note_off_c, 9, 35, 64
9, 152640, Note_on_c, 9, 38, 100
9, 152740, Note_off_c, 9, 38, 64
9, 152800, Note_on_c, 9, 42, 60
9, 152900, Note_off_c, 9, 42, 64
9, 152960, Note_on_c, 9, 48, 80
9, 153060, Note_off_c, 9, 48, 64
9, 153120, Note_on_c, 9, 48, 100
9, 153220, Note_off_c, 9, 48, 64
9, 153280, Note_on_c, 9, 38, 100
9, 153380, Note_off_c, 9, 38, 64
9, 153440, Note_on_c, 9, 35, 80
9, 153440, Note_on_c, 9, 49, 80
9, 153540, Note_off_c, 9, 49, 64
9, 153540, Note_off_c, 9, 35, 64
9, 153600, Note_on_c, 9, 35, 90
9, 153600, Note_on_c, 9, 49, 90
9, 153700, Note_off_c, 9, 49, 64
9, 153700, Note_off_c, 9, 35, 64
9, 153760, Note_on_c, 9, 42, 60
9, 153860, Note_off_c, 9, 42, 64
9, 153920, Note_on_c, 9, 42, 80
9, 154020, Note_off_c, 9, 42, 64
9, 154080, Note_on_c, 9, 42, 60
9, 154080, Note_on_c, 9, 37, 100
9, 154180, Note_off_c, 9, 37, 64
9, 154180, Note_off_c, 9, 42, 64
9, 154240, Note_on_c, 9, 42, 80
9, 154340, Note_off_c, 9, 42, 64
9, 154400, Note_on_c, 9, 35, 80
9, 154400, Note_on_c, 9, 42, 60
9, 154500, Note_off_c, 9, 42, 64
9, 154500, Note_off_c, 9, 35, 64
9, 154560, Note_on_c, 9, 35, 90
9, 154560, Note_on_c, 9, 42, 80
9, 154660, Note_off_c, 9, 42, 64
9, 154660, Note_off_c, 9, 35, 64
9, 154720, Note_on_c, 9, 42, 60
9, 154820, Note_off_c, 9, 42, 64
9, 154880, Note_on_c, 9, 42, 80
9, 154980, Note_off_c, 9, 42, 64
9, 155040, Note_on_c, 9, 42, 60
9, 155040, Note_on_c, 9, 37, 100
9, 155140, Note_off_c, 9, 37, 64
9, 155140, Note_off_c, 9, 42, 64
9, 155200, Note_on_c, 9, 42, 80
9, 155300, Note_off_c, 9, 42, 64
9, 155360, Note_on_c, 9, 42, 60
9, 155460, Note_off_c, 9, 42, 64
9, 155520, Note_on_c, 9, 35, 90
9, 155520, Note_on_c, 9, 42, 90
9, 155620, Note_off_c, 9, 42, 64
9, 155620, Note_off_c, 9, 35, 64
9, 155680, Note_on_c, 9, 42, 75
9, 155780, Note_off_c, 9, 42, 64
9, 155840, Note_on_c, 9, 42, 66
9, 155940, Note_off_c, 9, 42, 64
9, 156000, Note_on_c, 9, 42, 90
9, 156000, Note_on_c, 9, 37, 100
9, 156100, Note_off_c, 9, 37, 64
9, 156100, Note_off_c, 9, 42, 64
9, 156160, Note_on_c, 9, 42, 100
9, 156260, Note_off_c, 9, 42, 64
9, 156320, Note_on_c, 9, 35, 80
9, 156320, Note_on_c, 9, 42, 60
9, 156420, Note_off_c, 9, 42, 64
9, 156420, Note_off_c, 9, 35, 64
9, 156480, Note_on_c, 9, 35, 90
9, 156480, Note_on_c, 9, 42, 80
9, 156580, Note_off_c, 9, 42, 64
9, 156580, Note_off_c, 9, 35, 64
9, 156640, Note_on_c, 9, 42, 60
9, 156740, Note_off_c, 9, 42, 64
9, 156800, Note_on_c, 9, 42, 80
9, 156900, Note_off_c, 9, 42, 64
9, 156960, Note_on_c, 9, 42, 60
9, 156960, Note_on_c, 9, 37, 100
9, 157060, Note_off_c, 9, 37, 64
9, 157060, Note_off_c, 9, 42, 64
9, 157120, Note_on_c, 9, 42, 80
9, 157220, Note_off_c, 9, 42, 64
9, 157280, Note_on_c, 9, 35, 80
9, 157280, Note_on_c, 9, 46, 80
9, 157380, Note_off_c, 9, 46, 64
9, 157380, Note_off_c, 9, 35, 64
9, 157440, Note_on_c, 9, 35, 90
9, 157440, Note_on_c, 9, 42, 90
9, 157540, Note_off_c, 9, 42, 64
9, 157540, Note_off_c, 9, 35, 64
9, 157600, Note_on_c, 9, 42, 80
9, 157700, Note_off_c, 9, 42, 64
9, 157760, Note_on_c, 9, 42, 54
9, 157860, Note_off_c, 9, 42, 64
9, 157920, Note_on_c, 9, 42, 60
9, 157920, Note_on_c, 9, 37, 100
9, 158020, Note_off_c, 9, 37, 64
9, 158020, Note_off_c, 9, 42, 64
9, 158080, Note_on_c, 9, 42, 80
9, 158180, Note_off_c, 9, 42, 64
9, 158240, Note_on_c, 9, 35, 80
9, 158240, Note_on_c, 9, 42, 60
9, 158340, Note_off_c, 9, 42, 64
9, 158340, Note_off_c, 9, 35, 64
9, 158400, Note_on_c, 9, 35, 90
9, 158400, Note_on_c, 9, 42, 80
9, 158500, Note_off_c, 9, 42, 64
9, 158500, Note_off_c, 9, 35, 64
9, 158560, Note_on_c, 9, 42, 90
9, 158660, Note_off_c, 9, 42, 64
9, 158720, Note_on_c, 9, 42, 70
9, 158820, Note_off_c, 9, 42, 64
9, 158880, Note_on_c, 9, 42, 60
9, 158880, Note_on_c, 9, 37, 100
9, 158980, Note_off_c, 9, 37, 64
9, 158980, Note_off_c, 9, 42, 64
9, 159040, Note_on_c, 9, 42, 80
9, 159140, Note_off_c, 9, 42, 64
9, 159200, Note_on_c, 9, 42, 60
9, 159300, Note_off_c, 9, 42, 64
9, 159360, Note_on_c, 9, 35, 90
9, 159360, Note_on_c, 9, 42, 95
9, 159460, Note_off_c, 9, 42, 64
9, 159460, Note_off_c, 9, 35, 64
9, 159520, Note_on_c, 9, 42, 80
9, 159620, Note_off_c, 9, 42, 64
9, 159680, Note_on_c, 9, 42, 60
9, 159780, Note_off_c, 9, 42, 64
9, 159840, Note_on_c, 9, 42, 60
9, 159840, Note_on_c, 9, 37, 100
9, 159940, Note_off_c, 9, 37, 64
9, 159940, Note_off_c, 9, 42, 64
9, 160000, Note_on_c, 9, 42, 90
9, 160100, Note_off_c, 9, 42, 64
9, 160160, Note_on_c, 9, 35, 80
9, 160160, Note_on_c, 9, 42, 80
9, 160260, Note_off_c, 9, 42, 64
9, 160260, Note_off_c, 9, 35, 64
9, 160320, Note_on_c, 9, 35, 90
9, 160320, Note_on_c, 9, 42, 70
9, 160420, Note_off_c, 9, 42, 64
9, 160420, Note_off_c, 9, 35, 64
9, 160480, Note_on_c, 9, 42, 100
9, 160580, Note_off_c, 9, 42, 64
9, 160640, Note_on_c, 9, 42, 80
9, 160740, Note_off_c, 9, 42, 64
9, 160800, Note_on_c, 9, 42, 60
9, 160800, Note_on_c, 9, 37, 100
9, 160900, Note_off_c, 9, 37, 64
9, 160900, Note_off_c, 9, 42, 64
9, 160960, Note_on_c, 9, 42, 80
9, 161060, Note_off_c, 9, 42, 64
9, 161120, Note_on_c, 9, 35, 80
9, 161120, Note_on_c, 9, 42, 60
9, 161220, Note_off_c, 9, 42, 64
9, 161220, Note_off_c, 9, 35, 64
9, 161280, Note_on_c, 9, 35, 90
9, 161280, Note_on_c, 9, 42, 90
9, 161380, Note_off_c, 9, 42, 64
9, 161380, Note_off_c, 9, 35, 64
9, 161440, Note_on_c, 9, 42, 80
9, 161540, Note_off_c, 9, 42, 64
9, 161600, Note_on_c, 9, 42, 54
9, 161700, Note_off_c, 9, 42, 64
9, 161760, Note_on_c, 9, 42, 60
9, 161760, Note_on_c, 9, 37, 100
9, 161860, Note_off_c, 9, 37, 64
9, 161860, Note_off_c, 9, 42, 64
9, 161920, Note_on_c, 9, 42, 80
9, 162020, Note_off_c, 9, 42, 64
9, 162080, Note_on_c, 9, 35, 80
9, 162080, Note_on_c, 9, 42, 60
9, 162180, Note_off_c, 9, 42, 64
9, 162180, Note_off_c, 9, 35, 64
9, 162240, Note_on_c, 9, 35, 90
9, 162240, Note_on_c, 9, 42, 80
9, 162340, Note_off_c, 9, 42, 64
9, 162340, Note_off_c, 9, 35, 64
9, 162400, Note_on_c, 9, 42, 90
9, 162500, Note_off_c, 9, 42, 64
9, 162560, Note_on_c, 9, 42, 70
9, 162660, Note_off_c, 9, 42, 64
9, 162720, Note_on_c, 9, 42, 60
9, 162720, Note_on_c, 9, 37, 100
9, 162820, Note_off_c, 9, 37, 64
9, 162820, Note_off_c, 9, 42, 64
9, 162880, Note_on_c, 9, 42, 80
9, 162980, Note_off_c, 9, 42, 64
9, 163040, Note_on_c, 9, 42, 60
9, 163140, Note_off_c, 9, 42, 64
9, 163200, Note_on_c, 9, 35, 90
9, 163200, Note_on_c, 9, 42, 95
9, 163300, Note_off_c, 9, 42, 64
9, 163300, Note_off_c, 9, 35, 64
9, 163360, Note_on_c, 9, 42, 80
9, 163460, Note_off_c, 9, 42, 64
9, 163520, Note_on_c, 9, 42, 60
9, 163620, Note_off_c, 9, 42, 64
9, 163680, Note_on_c, 9, 42, 60
9, 163680, Note_on_c, 9, 37, 100
9, 163780, Note_off_c, 9, 37, 64
9, 163780, Note_off_c, 9, 42, 64
9, 163840, Note_on_c, 9, 42, 90
9, 163940, Note_off_c, 9, 42, 64
9, 164000, Note_on_c, 9, 35, 80
9, 164000, Note_on_c, 9, 42, 80
9, 164100, Note_off_c, 9, 42, 64
9, 164100, Note_off_c, 9, 35, 64
9, 164160, Note_on_c, 9, 35, 90
9, 164160, Note_on_c, 9, 42, 70
9, 164260, Note_off_c, 9, 42, 64
9, 164260, Note_off_c, 9, 35, 64
9, 164320, Note_on_c, 9, 42, 100
9, 164420, Note_off_c, 9, 42, 64
9, 164480, Note_on_c, 9, 42, 80
9, 164580, Note_off_c, 9, 42, 64
9, 164640, Note_on_c, 9, 42, 60
9, 164640, Note_on_c, 9, 37, 100
9, 164740, Note_off_c, 9, 37, 64
9, 164740, Note_off_c, 9, 42, 64
9, 164800, Note_on_c, 9, 42, 80
9, 164900, Note_off_c, 9, 42, 64
9, 164960, Note_on_c, 9, 35, 80
9, 164960, Note_on_c, 9, 46, 72
9, 165060, Note_off_c, 9, 46, 64
9, 165060, Note_off_c, 9, 35, 64
9, 165120, Note_on_c, 9, 35, 90
9, 165120, Note_on_c, 9, 42, 90
9, 165220, Note_off_c, 9, 42, 64
9, 165220, Note_off_c, 9, 35, 64
9, 165280, Note_on_c, 9, 42, 60
9, 165380, Note_off_c, 9, 42, 64
9, 165440, Note_on_c, 9, 42, 80
9, 165540, Note_off_c, 9, 42, 64
9, 165600, Note_on_c, 9, 42, 60
9, 165600, Note_on_c, 9, 37, 100
9, 165700, Note_off_c, 9, 37, 64
9, 165700, Note_off_c, 9, 42, 64
9, 165760, Note_on_c, 9, 42, 80
9, 165860, Note_off_c, 9, 42, 64
9, 165920, Note_on_c, 9, 35, 80
9, 165920, Note_on_c, 9, 42, 60
9, 166020, Note_off_c, 9, 42, 64
9, 166020, Note_off_c, 9, 35, 64
9, 166080, Note_on_c, 9, 35, 90
9, 166080, Note_on_c, 9, 42, 80
9, 166180, Note_off_c, 9, 42, 64
9, 166180, Note_off_c, 9, 35, 64
9, 166240, Note_on_c, 9, 42, 60
9, 166340, Note_off_c, 9, 42, 64
9, 166400, Note_on_c, 9, 42, 80
9, 166500, Note_off_c, 9, 42, 64
9, 166560, Note_on_c, 9, 42, 60
9, 166560, Note_on_c, 9, 37, 100
9, 166660, Note_off_c, 9, 37, 64
9, 166660, Note_off_c, 9, 42, 64
9, 166720, Note_on_c, 9, 42, 80
9, 166820, Note_off_c, 9, 42, 64
9, 166880, Note_on_c, 9, 42, 60
9, 166980, Note_off_c, 9, 42, 64
9, 167040, Note_on_c, 9, 35, 90
9, 167040, Note_on_c, 9, 42, 90
9, 167140, Note_off_c, 9, 42, 64
9, 167140, Note_off_c, 9, 35, 64
9, 167200, Note_on_c, 9, 42, 75
9, 167300, Note_off_c, 9, 42, 64
9, 167360, Note_on_c, 9, 42, 66
9, 167460, Note_off_c, 9, 42, 64
9, 167520, Note_on_c, 9, 42, 90
9, 167520, Note_on_c, 9, 37, 100
9, 167620, Note_off_c, 9, 37, 64
9, 167620, Note_off_c, 9, 42, 64
9, 167680, Note_on_c, 9, 42, 100
9, 167780, Note_off_c, 9, 42, 64
9, 167840, Note_on_c, 9, 35, 80
9, 167840, Note_on_c, 9, 42, 60
9, 167940, Note_off_c, 9, 42, 64
9, 167940, Note_off_c, 9, 35, 64
9, 168000, Note_on_c, 9, 35, 90
9, 168000, Note_on_c, 9, 42, 80
9, 168100, Note_off_c, 9, 42, 64
9, 168100, Note_off_c, 9, 35, 64
9, 168160, Note_on_c, 9, 42, 60
9, 168260, Note_off_c, 9, 42, 64
9, 168320, Note_on_c, 9, 42, 80
9, 168420, Note_off_c, 9, 42, 64
9, 168480, Note_on_c, 9, 42, 60
9, 168480, Note_on_c, 9, 37, 100
9, 168580, Note_off_c, 9, 37, 64
9, 168580, Note_off_c, 9, 42, 64
9, 168640, Note_on_c, 9, 42, 80
9, 168740, Note_off_c, 9, 42, 64
9, 168800, Note_on_c, 9, 35, 80
9, 168800, Note_on_c, 9, 46, 80
9, 168900, Note_off_c, 9, 46, 64
9, 168900, Note_off_c, 9, 35, 64
9, 168960, Note_on_c, 9, 35, 90
9, 168960, Note_on_c, 9, 42, 90
9, 169060, Note_off_c, 9, 42, 64
9, 169060, Note_off_c, 9, 35, 64
9, 169120, Note_on_c, 9, 42, 80
9, 169220, Note_off_c, 9, 42, 64
9, 169280, Note_on_c, 9, 42, 54
9, 169380, Note_off_c, 9, 42, 64
9, 169440, Note_on_c, 9, 42, 60
9, 169440, Note_on_c, 9, 37, 100
9, 169540, Note_off_c, 9, 37, 64
9, 169540, Note_off_c, 9, 42, 64
9, 169600, Note_on_c, 9, 42, 80
9, 169700, Note_off_c, 9, 42, 64
9, 169760, Note_on_c, 9, 35, 80
9, 169760, Note_on_c, 9, 46, 54
9, 169860, Note_off_c, 9, 46, 64
9, 169860, Note_off_c, 9, 35, 64
9, 169920, Note_on_c, 9, 35, 90
9, 169920, Note_on_c, 9, 42, 80
9, 170020, Note_off_c, 9, 42, 64
9, 170020, Note_off_c, 9, 35, 64
9, 170080, Note_on_c, 9, 42, 90
9, 170180, Note_off_c, 9, 42, 64
9, 170240, Note_on_c, 9, 42, 70
9, 170340, Note_off_c, 9, 42, 64
9, 170400, Note_on_c, 9, 42, 60
9, 170400, Note_on_c, 9, 37, 100
9, 170500, Note_off_c, 9, 37, 64
9, 170500, Note_off_c, 9, 42, 64
9, 170560, Note_on_c, 9, 42, 80
9, 170660, Note_off_c, 9, 42, 64
9, 170720, Note_on_c, 9, 42, 60
9, 170820, Note_off_c, 9, 42, 64
9, 170880, Note_on_c, 9, 35, 90
9, 170880, Note_on_c, 9, 38, 100
9, 170880, Note_on_c, 9, 41, 90
9, 170980, Note_off_c, 9, 41, 64
9, 170980, Note_off_c, 9, 38, 64
9, 170980, Note_off_c, 9, 35, 64
9, 171040, Note_on_c, 9, 38, 70
9, 171040, Note_on_c, 9, 41, 60
9, 171140, Note_off_c, 9, 41, 64
9, 171140, Note_off_c, 9, 38, 64
9, 171200, Note_on_c, 9, 38, 80
9, 171200, Note_on_c, 9, 41, 70
9, 171300, Note_off_c, 9, 41, 64
9, 171300, Note_off_c, 9, 38, 64
9, 171360, Note_on_c, 9, 38, 100
9, 171360, Note_on_c, 9, 41, 80
9, 171460, Note_off_c, 9, 41, 64
9, 171460, Note_off_c, 9, 38, 64
9, 171520, Note_on_c, 9, 38, 70
9, 171520, Note_on_c, 9, 41, 60
9, 171620, Note_off_c, 9, 41, 64
9, 171620, Note_off_c, 9, 38, 64
9, 171680, Note_on_c, 9, 35, 80
9, 171680, Note_on_c, 9, 38, 90
9, 171680, Note_on_c, 9, 41, 70
9, 171780, Note_off_c, 9, 41, 64
9, 171780, Note_off_c, 9, 38, 64
9, 171780, Note_off_c, 9, 35, 64
9, 171840, Note_on_c, 9, 35, 90
9, 171840, Note_on_c, 9, 38, 100
9, 171840, Note_on_c, 9, 41, 90
9, 171940, Note_off_c, 9, 41, 64
9, 171940, Note_off_c, 9, 38, 64
9, 171940, Note_off_c, 9, 35, 64
9, 172160, Note_on_c, 9, 48, 90
9, 172260, Note_off_c, 9, 48, 64
9, 172320, Note_on_c, 9, 48, 80
9, 172420, Note_off_c, 9, 48, 64
9, 172480, Note_on_c, 9, 45, 90
9, 172580, Note_off_c, 9, 45, 64
9, 172640, Note_on_c, 9, 38, 100
9, 172740, Note_off_c, 9, 38, 64
9, 172800, Note_on_c, 9, 35, 90
9, 172800, Note_on_c, 9, 49, 90
9, 172900, Note_off_c, 9, 49, 64
9, 172900, Note_off_c, 9, 35, 64
9, 172960, Note_on_c, 9, 42, 60
9, 173060, Note_off_c, 9, 42, 64
9, 173120, Note_on_c, 9, 42, 80
9, 173220, Note_off_c, 9, 42, 64
9, 173280, Note_on_c, 9, 42, 60
9, 173280, Note_on_c, 9, 37, 100
9, 173380, Note_off_c, 9, 37, 64
9, 173380, Note_off_c, 9, 42, 64
9, 173440, Note_on_c, 9, 42, 80
9, 173540, Note_off_c, 9, 42, 64
9, 173600, Note_on_c, 9, 35, 80
9, 173600, Note_on_c, 9, 42, 60
9, 173700, Note_off_c, 9, 42, 64
9, 173700, Note_off_c, 9, 35, 64
9, 173760, Note_on_c, 9, 35, 90
9, 173760, Note_on_c, 9, 42, 80
9, 173860, Note_off_c, 9, 42, 64
9, 173860, Note_off_c, 9, 35, 64
9, 173920, Note_on_c, 9, 42, 60
9, 174020, Note_off_c, 9, 42, 64
9, 174080, Note_on_c, 9, 42, 80
9, 174180, Note_off_c, 9, 42, 64
9, 174240, Note_on_c, 9, 42, 60
9, 174240, Note_on_c, 9, 37, 100
9, 174340, Note_off_c, 9, 37, 64
9, 174340, Note_off_c, 9, 42, 64
9, 174400, Note_on_c, 9, 42, 80
9, 174500, Note_off_c, 9, 42, 64
9, 174560, Note_on_c, 9, 42, 60
9, 174660, Note_off_c, 9, 42, 64
9, 174720, Note_on_c, 9, 35, 90
9, 174720, Note_on_c, 9, 42, 90
9, 174820, Note_off_c, 9, 42, 64
9, 174820, Note_off_c, 9, 35, 64
9, 174880, Note_on_c, 9, 42, 75
9, 174980, Note_off_c, 9, 42, 64
9, 175040, Note_on_c, 9, 42, 66
9, 175140, Note_off_c, 9, 42, 64
9, 175200, Note_on_c, 9, 42, 90
9, 175200, Note_on_c, 9, 37, 100
9, 175300, Note_off_c, 9, 37, 64
9, 175300, Note_off_c, 9, 42, 64
9, 175360, Note_on_c, 9, 42, 100
9, 175460, Note_off_c, 9, 42, 64
9, 175520, Note_on_c, 9, 35, 80
9, 175520, Note_on_c, 9, 42, 60
9, 175620, Note_off_c, 9, 42, 64
9, 175620, Note_off_c, 9, 35, 64
9, 175680, Note_on_c, 9, 35, 90
9, 175680, Note_on_c, 9, 42, 80
9, 175780, Note_off_c, 9, 42, 64
9, 175780, Note_off_c, 9, 35, 64
9, 175840, Note_on_c, 9, 42, 60
9, 175940, Note_off_c, 9, 42, 64
9, 176000, Note_on_c, 9, 42, 80
9, 176100, Note_off_c, 9, 42, 64
9, 176160, Note_on_c, 9, 42, 60
9, 176160, Note_on_c, 9, 37, 100
9, 176260, Note_off_c, 9, 37, 64
9, 176260, Note_off_c, 9, 42, 64
9, 176320, Note_on_c, 9, 42, 80
9, 176420, Note_off_c, 9, 42, 64
9, 176480, Note_on_c, 9, 35, 80
9, 176480, Note_on_c, 9, 46, 80
9, 176580, Note_off_c, 9, 46, 64
9, 176580, Note_off_c, 9, 35, 64
9, 176640, Note_on_c, 9, 35, 90
9, 176640, Note_on_c, 9, 42, 90
9, 176740, Note_off_c, 9, 42, 64
9, 176740, Note_off_c, 9, 35, 64
9, 176800, Note_on_c, 9, 42, 60
9, 176900, Note_off_c, 9, 42, 64
9, 176960, Note_on_c, 9, 42, 80
9, 177060, Note_off_c, 9, 42, 64
9, 177120, Note_on_c, 9, 42, 60
9, 177120, Note_on_c, 9, 37, 100
9, 177220, Note_off_c, 9, 37, 64
9, 177220, Note_off_c, 9, 42, 64
9, 177280, Note_on_c, 9, 42, 80
9, 177380, Note_off_c, 9, 42, 64
9, 177440, Note_on_c, 9, 35, 80
9, 177440, Note_on_c, 9, 42, 60
9, 177540, Note_off_c, 9, 42, 64
9, 177540, Note_off_c, 9, 35, 64
9, 177600, Note_on_c, 9, 35, 90
9, 177600, Note_on_c, 9, 42, 80
9, 177700, Note_off_c, 9, 42, 64
9, 177700, Note_off_c, 9, 35, 64
9, 177760, Note_on_c, 9, 42, 60
9, 177860, Note_off_c, 9, 42, 64
9, 177920, Note_on_c, 9, 42, 80
9, 178020, Note_off_c, 9, 42, 64
9, 178080, Note_on_c, 9, 42, 60
9, 178080, Note_on_c, 9, 37, 100
9, 178180, Note_off_c, 9, 37, 64
9, 178180, Note_off_c, 9, 42, 64
9, 178240, Note_on_c, 9, 42, 80
9, 178340, Note_off_c, 9, 42, 64
9, 178400, Note_on_c, 9, 42, 60
9, 178500, Note_off_c, 9, 42, 64
9, 178560, Note_on_c, 9, 35, 90
9, 178560, Note_on_c, 9, 42, 90
9, 178660, Note_off_c, 9, 42, 64
9, 178660, Note_off_c, 9, 35, 64
9, 178720, Note_on_c, 9, 42, 75
9, 178820, Note_off_c, 9, 42, 64
9, 178880, Note_on_c, 9, 42, 66
9, 178980, Note_off_c, 9, 42, 64
9, 179040, Note_on_c, 9, 42, 90
9, 179040, Note_on_c, 9, 37, 100
9, 179140, Note_off_c, 9, 37, 64
9, 179140, Note_off_c, 9, 42, 64
9, 179200, Note_on_c, 9, 42, 100
9, 179300, Note_off_c, 9, 42, 64
9, 179360, Note_on_c, 9, 35, 80
9, 179360, Note_on_c, 9, 42, 60
9, 179460, Note_off_c, 9, 42, 64
9, 179460, Note_off_c, 9, 35, 64
9, 179520, Note_on_c, 9, 35, 90
9, 179520, Note_on_c, 9, 42, 80
9, 179620, Note_off_c, 9, 42, 64
9, 179620, Note_off_c, 9, 35, 64
9, 179680, Note_on_c, 9, 42, 60
9, 179780, Note_off_c, 9, 42, 64
9, 179840, Note_on_c, 9, 42, 80
9, 179940, Note_off_c, 9, 42, 64
9, 180000, Note_on_c, 9, 42, 60
9, 180000, Note_on_c, 9, 37, 100
9, 180100, Note_off_c, 9, 37, 64
9, 180100, Note_off_c, 9, 42, 64
9, 180160, Note_on_c, 9, 42, 80
9, 180260, Note_off_c, 9, 42, 64
9, 180320, Note_on_c, 9, 35, 80
9, 180320, Note_on_c, 9, 46, 80
9, 180420, Note_off_c, 9, 46, 64
9, 180420, Note_off_c, 9, 35, 64
9, 180480, Note_on_c, 9, 35, 90
9, 180480, Note_on_c, 9, 42, 90
9, 180580, Note_off_c, 9, 42, 64
9, 180580, Note_off_c, 9, 35, 64
9, 180640, Note_on_c, 9, 42, 80
9, 180740, Note_off_c, 9, 42, 64
9, 180800, Note_on_c, 9, 42, 54
9, 180900, Note_off_c, 9, 42, 64
9, 180960, Note_on_c, 9, 42, 60
9, 180960, Note_on_c, 9, 37, 100
9, 181060, Note_off_c, 9, 37, 64
9, 181060, Note_off_c, 9, 42, 64
9, 181120, Note_on_c, 9, 42, 80
9, 181220, Note_off_c, 9, 42, 64
9, 181280, Note_on_c, 9, 35, 80
9, 181280, Note_on_c, 9, 42, 60
9, 181380, Note_off_c, 9, 42, 64
9, 181380, Note_off_c, 9, 35, 64
9, 181440, Note_on_c, 9, 35, 90
9, 181440, Note_on_c, 9, 42, 80
9, 181540, Note_off_c, 9, 42, 64
9, 181540, Note_off_c, 9, 35, 64
9, 181600, Note_on_c, 9, 42, 90
9, 181700, Note_off_c, 9, 42, 64
9, 181760, Note_on_c, 9, 42, 70
9, 181860, Note_off_c, 9, 42, 64
9, 181920, Note_on_c, 9, 42, 60
9, 181920, Note_on_c, 9, 37, 100
9, 182020, Note_off_c, 9, 37, 64
9, 182020, Note_off_c, 9, 42, 64
9, 182080, Note_on_c, 9, 42, 80
9, 182180, Note_off_c, 9, 42, 64
9, 182240, Note_on_c, 9, 42, 60
9, 182340, Note_off_c, 9, 42, 64
9, 182400, Note_on_c, 9, 35, 90
9, 182400, Note_on_c, 9, 42, 90
9, 182500, Note_off_c, 9, 42, 64
9, 182500, Note_off_c, 9, 35, 64
9, 182560, Note_on_c, 9, 42, 75
9, 182660, Note_off_c, 9, 42, 64
9, 182720, Note_on_c, 9, 42, 66
9, 182820, Note_off_c, 9, 42, 64
9, 182880, Note_on_c, 9, 42, 90
9, 182880, Note_on_c, 9, 37, 100
9, 182980, Note_off_c, 9, 37, 64
9, 182980, Note_off_c, 9, 42, 64
9, 183040, Note_on_c, 9, 42, 100
9, 183140, Note_off_c, 9, 42, 64
9, 183200, Note_on_c, 9, 35, 80
9, 183200, Note_on_c, 9, 42, 60
9, 183300, Note_off_c, 9, 42, 64
9, 183300, Note_off_c, 9, 35, 64
9, 183360, Note_on_c, 9, 35, 90
9, 183360, Note_on_c, 9, 42, 80
9, 183460, Note_off_c, 9, 42, 64
9, 183460, Note_off_c, 9, 35, 64
9, 183520, Note_on_c, 9, 42, 60
9, 183620, Note_off_c, 9, 42, 64
9, 183680, Note_on_c, 9, 42, 80
9, 183780, Note_off_c, 9, 42, 64
9, 183840, Note_on_c, 9, 42, 60
9, 183840, Note_on_c, 9, 37, 100
9, 183940, Note_off_c, 9, 37, 64
9, 183940, Note_off_c, 9, 42, 64
9, 184000, Note_on_c, 9, 42, 80
9, 184100, Note_off_c, 9, 42, 64
9, 184160, Note_on_c, 9, 35, 80
9, 184160, Note_on_c, 9, 46, 80
9, 184260, Note_off_c, 9, 46, 64
9, 184260, Note_off_c, 9, 35, 64
9, 184320, Note_on_c, 9, 35, 90
9, 184320, Note_on_c, 9, 42, 90
9, 184320, Note_on_c, 9, 49, 100
9, 184420, Note_off_c, 9, 49, 64
9, 184420, Note_off_c, 9, 42, 64
9, 184420, Note_off_c, 9, 35, 64
9, 184480, Note_on_c, 9, 42, 60
9, 184580, Note_off_c, 9, 42, 64
9, 184640, Note_on_c, 9, 42, 80
9, 184740, Note_off_c, 9, 42, 64
9, 184800, Note_on_c, 9, 38, 100
9, 184800, Note_on_c, 9, 42, 60
9, 184900, Note_off_c, 9, 42, 64
9, 184900, Note_off_c, 9, 38, 64
9, 184960, Note_on_c, 9, 42, 80
9, 185060, Note_off_c, 9, 42, 64
9, 185120, Note_on_c, 9, 35, 80
9, 185120, Note_on_c, 9, 42, 60
9, 185220, Note_off_c, 9, 42, 64
9, 185220, Note_off_c, 9, 35, 64
9, 185280, Note_on_c, 9, 35, 90
9, 185280, Note_on_c, 9, 42, 80
9, 185380, Note_off_c, 9, 42, 64
9, 185380, Note_off_c, 9, 35, 64
9, 185440, Note_on_c, 9, 42, 60
9, 185540, Note_off_c, 9, 42, 64
9, 185600, Note_on_c, 9, 38, 60
9, 185700, Note_off_c, 9, 38, 64
9, 185760, Note_on_c, 9, 38, 100
9, 185860, Note_off_c, 9, 38, 64
9, 185920, Note_on_c, 9, 38, 80
9, 186020, Note_off_c, 9, 38, 64
9, 186080, Note_on_c, 9, 35, 80
9, 186180, Note_off_c, 9, 35, 64
9, 186240, Note_on_c, 9, 35, 90
9, 186240, Note_on_c, 9, 49, 90
9, 186340, Note_off_c, 9, 49, 64
9, 186340, Note_off_c, 9, 35, 64
9, 186340, End_track
10, 0, Start_track
10, 0, Title_t, "People"
10, 0, MIDI_port, 0
10, 0, End_track
11, 0, Start_track
11, 0, Title_t, "Words and Music by:"
11, 0, MIDI_port, 0
11, 0, End_track
12, 0, Start_track
12, 0, Title_t, "Bob Merrill and Jule Styne"
12, 0, MIDI_port, 0
12, 0, End_track
13, 0, Start_track
13, 0, Title_t, "Sequenced by:"
13, 0, MIDI_port, 0
13, 0, End_track
14, 0, Start_track
14, 0, Title_t, "Gary Rogers"
14, 0, MIDI_port, 0
14, 0, End_track
0, 0, End_of_file
