0, 0, Header, 1, 6, 240
1, 0, Start_track
1, 0, Key_signature, 0, "major"
1, 0, MIDI_port, 0
1, 0, Time_signature, 4, 2, 24, 8
1, 0, Tempo, 545504
1, 0, End_track
2, 0, Start_track
2, 0, Title_t, "Trumpet"
2, 0, MIDI_port, 0
2, 0, Program_c, 4, 56
2, 0, Control_c, 4, 7, 126
2, 5760, Note_on_c, 4, 63, 80
2, 6576, Note_on_c, 4, 63, 0
2, 6600, Note_on_c, 4, 60, 80
2, 6696, Note_on_c, 4, 60, 0
2, 7680, Note_on_c, 4, 63, 80
2, 8448, Note_on_c, 4, 63, 0
2, 8640, Note_on_c, 4, 72, 80
2, 8736, Note_on_c, 4, 72, 0
2, 8760, Note_on_c, 4, 66, 80
2, 8856, Note_on_c, 4, 66, 0
2, 9720, Note_on_c, 4, 60, 80
2, 9816, Note_on_c, 4, 60, 0
2, 9840, Note_on_c, 4, 63, 80
2, 9936, Note_on_c, 4, 63, 0
2, 9960, Note_on_c, 4, 65, 80
2, 10056, Note_on_c, 4, 65, 0
2, 10080, Note_on_c, 4, 66, 80
2, 10208, Note_on_c, 4, 66, 0
2, 10240, Note_on_c, 4, 66, 80
2, 10368, Note_on_c, 4, 66, 0
2, 10400, Note_on_c, 4, 66, 80
2, 10528, Note_on_c, 4, 66, 0
2, 10560, Note_on_c, 4, 66, 80
2, 10688, Note_on_c, 4, 66, 0
2, 10720, Note_on_c, 4, 65, 80
2, 10848, Note_on_c, 4, 65, 0
2, 10880, Note_on_c, 4, 63, 80
2, 11008, Note_on_c, 4, 63, 0
2, 11040, Note_on_c, 4, 60, 80
2, 11168, Note_on_c, 4, 60, 0
2, 11200, Note_on_c, 4, 58, 80
2, 11328, Note_on_c, 4, 58, 0
2, 11360, Note_on_c, 4, 60, 80
2, 11488, Note_on_c, 4, 60, 0
2, 11520, Note_on_c, 4, 55, 80
2, 11616, Note_on_c, 4, 55, 0
2, 11640, Note_on_c, 4, 57, 80
2, 11736, Note_on_c, 4, 57, 0
2, 13440, Note_on_c, 4, 75, 80
2, 14256, Note_on_c, 4, 75, 0
2, 14280, Note_on_c, 4, 70, 80
2, 14376, Note_on_c, 4, 70, 0
2, 15360, Note_on_c, 4, 75, 80
2, 16128, Note_on_c, 4, 75, 0
2, 16320, Note_on_c, 4, 84, 80
2, 16416, Note_on_c, 4, 84, 0
2, 16440, Note_on_c, 4, 78, 80
2, 16536, Note_on_c, 4, 78, 0
2, 17400, Note_on_c, 4, 84, 80
2, 17496, Note_on_c, 4, 84, 0
2, 17520, Note_on_c, 4, 87, 80
2, 17616, Note_on_c, 4, 87, 0
2, 17640, Note_on_c, 4, 89, 80
2, 17736, Note_on_c, 4, 89, 0
2, 17760, Note_on_c, 4, 90, 80
2, 17888, Note_on_c, 4, 90, 0
2, 17920, Note_on_c, 4, 90, 80
2, 18048, Note_on_c, 4, 90, 0
2, 18080, Note_on_c, 4, 90, 80
2, 18208, Note_on_c, 4, 90, 0
2, 18240, Note_on_c, 4, 90, 80
2, 18368, Note_on_c, 4, 90, 0
2, 18400, Note_on_c, 4, 89, 80
2, 18528, Note_on_c, 4, 89, 0
2, 18560, Note_on_c, 4, 87, 80
2, 18688, Note_on_c, 4, 87, 0
2, 18720, Note_on_c, 4, 84, 80
2, 18848, Note_on_c, 4, 84, 0
2, 18880, Note_on_c, 4, 82, 80
2, 19008, Note_on_c, 4, 82, 0
2, 19040, Note_on_c, 4, 84, 80
2, 19168, Note_on_c, 4, 84, 0
2, 19200, Note_on_c, 4, 80, 80
2, 19296, Note_on_c, 4, 80, 0
2, 19320, Note_on_c, 4, 81, 80
2, 19416, Note_on_c, 4, 81, 0
2, 20760, Note_on_c, 4, 72, 80
2, 20856, Note_on_c, 4, 72, 0
2, 20880, Note_on_c, 4, 72, 80
2, 20976, Note_on_c, 4, 72, 0
2, 21000, Note_on_c, 4, 72, 80
2, 21096, Note_on_c, 4, 72, 0
2, 21120, Note_on_c, 4, 72, 80
2, 21216, Note_on_c, 4, 72, 0
2, 21240, Note_on_c, 4, 77, 80
2, 21336, Note_on_c, 4, 77, 0
2, 21360, Note_on_c, 4, 75, 80
2, 21392, Note_on_c, 4, 75, 0
2, 21400, Note_on_c, 4, 77, 80
2, 21432, Note_on_c, 4, 77, 0
2, 21440, Note_on_c, 4, 75, 80
2, 21472, Note_on_c, 4, 75, 0
2, 21480, Note_on_c, 4, 72, 80
2, 21576, Note_on_c, 4, 72, 0
2, 21600, Note_on_c, 4, 68, 80
2, 21696, Note_on_c, 4, 68, 0
2, 21720, Note_on_c, 4, 65, 80
2, 21816, Note_on_c, 4, 65, 0
2, 22080, Note_on_c, 4, 72, 80
2, 22176, Note_on_c, 4, 72, 0
2, 22200, Note_on_c, 4, 77, 80
2, 22296, Note_on_c, 4, 77, 0
2, 22320, Note_on_c, 4, 75, 80
2, 22352, Note_on_c, 4, 75, 0
2, 22360, Note_on_c, 4, 77, 80
2, 22392, Note_on_c, 4, 77, 0
2, 22400, Note_on_c, 4, 75, 80
2, 22432, Note_on_c, 4, 75, 0
2, 22440, Note_on_c, 4, 70, 80
2, 22536, Note_on_c, 4, 70, 0
2, 22560, Note_on_c, 4, 72, 80
2, 22656, Note_on_c, 4, 72, 0
2, 23040, Note_on_c, 4, 72, 80
2, 23136, Note_on_c, 4, 72, 0
2, 23160, Note_on_c, 4, 77, 80
2, 23256, Note_on_c, 4, 77, 0
2, 23280, Note_on_c, 4, 75, 80
2, 23328, Note_on_c, 4, 75, 0
2, 23340, Note_on_c, 4, 77, 80
2, 23388, Note_on_c, 4, 77, 0
2, 23400, Note_on_c, 4, 75, 80
2, 23448, Note_on_c, 4, 75, 0
2, 23460, Note_on_c, 4, 72, 80
2, 23508, Note_on_c, 4, 72, 0
2, 23520, Note_on_c, 4, 68, 80
2, 23616, Note_on_c, 4, 68, 0
2, 23640, Note_on_c, 4, 65, 80
2, 23736, Note_on_c, 4, 65, 0
2, 23760, Note_on_c, 4, 68, 80
2, 23856, Note_on_c, 4, 68, 0
2, 23880, Note_on_c, 4, 70, 80
2, 23976, Note_on_c, 4, 70, 0
2, 24000, Note_on_c, 4, 72, 80
2, 24096, Note_on_c, 4, 72, 0
2, 24120, Note_on_c, 4, 77, 80
2, 24216, Note_on_c, 4, 77, 0
2, 24240, Note_on_c, 4, 77, 80
2, 24336, Note_on_c, 4, 77, 0
2, 24360, Note_on_c, 4, 77, 80
2, 24456, Note_on_c, 4, 77, 0
2, 24480, Note_on_c, 4, 77, 80
2, 24576, Note_on_c, 4, 77, 0
2, 24600, Note_on_c, 4, 77, 80
2, 24696, Note_on_c, 4, 77, 0
2, 24720, Note_on_c, 4, 77, 80
2, 24816, Note_on_c, 4, 77, 0
2, 24840, Note_on_c, 4, 77, 80
2, 24936, Note_on_c, 4, 77, 0
2, 24960, Note_on_c, 4, 77, 80
2, 25536, Note_on_c, 4, 77, 0
2, 25560, Note_on_c, 4, 77, 80
2, 25656, Note_on_c, 4, 77, 0
2, 25680, Note_on_c, 4, 75, 80
2, 25776, Note_on_c, 4, 75, 0
2, 25800, Note_on_c, 4, 72, 80
2, 25896, Note_on_c, 4, 72, 0
2, 25920, Note_on_c, 4, 77, 80
2, 26016, Note_on_c, 4, 77, 0
2, 26040, Note_on_c, 4, 77, 80
2, 26136, Note_on_c, 4, 77, 0
2, 26160, Note_on_c, 4, 75, 80
2, 26256, Note_on_c, 4, 75, 0
2, 26280, Note_on_c, 4, 72, 80
2, 26496, Note_on_c, 4, 72, 0
2, 26520, Note_on_c, 4, 72, 80
2, 26616, Note_on_c, 4, 72, 0
2, 26640, Note_on_c, 4, 72, 80
2, 26736, Note_on_c, 4, 72, 0
2, 26760, Note_on_c, 4, 72, 80
2, 26856, Note_on_c, 4, 72, 0
2, 26880, Note_on_c, 4, 77, 80
2, 27072, Note_on_c, 4, 77, 0
2, 27120, Note_on_c, 4, 75, 80
2, 27216, Note_on_c, 4, 75, 0
2, 27240, Note_on_c, 4, 72, 80
2, 27336, Note_on_c, 4, 72, 0
2, 27360, Note_on_c, 4, 77, 80
2, 27552, Note_on_c, 4, 77, 0
2, 27600, Note_on_c, 4, 75, 80
2, 27696, Note_on_c, 4, 75, 0
2, 27720, Note_on_c, 4, 72, 80
2, 27816, Note_on_c, 4, 72, 0
2, 27840, Note_on_c, 4, 77, 80
2, 27936, Note_on_c, 4, 77, 0
2, 27960, Note_on_c, 4, 77, 80
2, 28056, Note_on_c, 4, 77, 0
2, 28080, Note_on_c, 4, 75, 80
2, 28176, Note_on_c, 4, 75, 0
2, 28200, Note_on_c, 4, 72, 80
2, 28704, Note_on_c, 4, 72, 0
2, 28800, Note_on_c, 4, 81, 80
2, 29376, Note_on_c, 4, 81, 0
2, 29400, Note_on_c, 4, 81, 80
2, 29496, Note_on_c, 4, 81, 0
2, 29520, Note_on_c, 4, 79, 80
2, 29616, Note_on_c, 4, 79, 0
2, 29640, Note_on_c, 4, 75, 80
2, 29736, Note_on_c, 4, 75, 0
2, 29760, Note_on_c, 4, 81, 80
2, 29856, Note_on_c, 4, 81, 0
2, 29880, Note_on_c, 4, 81, 80
2, 29976, Note_on_c, 4, 81, 0
2, 30000, Note_on_c, 4, 79, 80
2, 30096, Note_on_c, 4, 79, 0
2, 30120, Note_on_c, 4, 75, 80
2, 30336, Note_on_c, 4, 75, 0
2, 30360, Note_on_c, 4, 75, 80
2, 30456, Note_on_c, 4, 75, 0
2, 30480, Note_on_c, 4, 75, 80
2, 30576, Note_on_c, 4, 75, 0
2, 30600, Note_on_c, 4, 75, 80
2, 30696, Note_on_c, 4, 75, 0
2, 30720, Note_on_c, 4, 81, 80
2, 30912, Note_on_c, 4, 81, 0
2, 30960, Note_on_c, 4, 79, 80
2, 31056, Note_on_c, 4, 79, 0
2, 31080, Note_on_c, 4, 75, 80
2, 31176, Note_on_c, 4, 75, 0
2, 31200, Note_on_c, 4, 81, 80
2, 31392, Note_on_c, 4, 81, 0
2, 31440, Note_on_c, 4, 79, 80
2, 31536, Note_on_c, 4, 79, 0
2, 31560, Note_on_c, 4, 75, 80
2, 31656, Note_on_c, 4, 75, 0
2, 31680, Note_on_c, 4, 72, 80
2, 31776, Note_on_c, 4, 72, 0
2, 31800, Note_on_c, 4, 77, 80
2, 31896, Note_on_c, 4, 77, 0
2, 31920, Note_on_c, 4, 77, 80
2, 32016, Note_on_c, 4, 77, 0
2, 32040, Note_on_c, 4, 77, 80
2, 32136, Note_on_c, 4, 77, 0
2, 32160, Note_on_c, 4, 77, 80
2, 32256, Note_on_c, 4, 77, 0
2, 32280, Note_on_c, 4, 77, 80
2, 32376, Note_on_c, 4, 77, 0
2, 32400, Note_on_c, 4, 77, 80
2, 32496, Note_on_c, 4, 77, 0
2, 32520, Note_on_c, 4, 77, 80
2, 32616, Note_on_c, 4, 77, 0
2, 32640, Note_on_c, 4, 77, 80
2, 33216, Note_on_c, 4, 77, 0
2, 33240, Note_on_c, 4, 77, 80
2, 33336, Note_on_c, 4, 77, 0
2, 33360, Note_on_c, 4, 75, 80
2, 33456, Note_on_c, 4, 75, 0
2, 33480, Note_on_c, 4, 72, 80
2, 33576, Note_on_c, 4, 72, 0
2, 33600, Note_on_c, 4, 77, 80
2, 33696, Note_on_c, 4, 77, 0
2, 33720, Note_on_c, 4, 77, 80
2, 33816, Note_on_c, 4, 77, 0
2, 33840, Note_on_c, 4, 75, 80
2, 33936, Note_on_c, 4, 75, 0
2, 33960, Note_on_c, 4, 72, 80
2, 34176, Note_on_c, 4, 72, 0
2, 34200, Note_on_c, 4, 72, 80
2, 34296, Note_on_c, 4, 72, 0
2, 34320, Note_on_c, 4, 72, 80
2, 34416, Note_on_c, 4, 72, 0
2, 34440, Note_on_c, 4, 72, 80
2, 34536, Note_on_c, 4, 72, 0
2, 34560, Note_on_c, 4, 77, 80
2, 34752, Note_on_c, 4, 77, 0
2, 34800, Note_on_c, 4, 75, 80
2, 34896, Note_on_c, 4, 75, 0
2, 34920, Note_on_c, 4, 72, 80
2, 35016, Note_on_c, 4, 72, 0
2, 35040, Note_on_c, 4, 77, 80
2, 35232, Note_on_c, 4, 77, 0
2, 35280, Note_on_c, 4, 75, 80
2, 35376, Note_on_c, 4, 75, 0
2, 35400, Note_on_c, 4, 72, 80
2, 35496, Note_on_c, 4, 72, 0
2, 35520, Note_on_c, 4, 77, 80
2, 35616, Note_on_c, 4, 77, 0
2, 35640, Note_on_c, 4, 77, 80
2, 35736, Note_on_c, 4, 77, 0
2, 35760, Note_on_c, 4, 75, 80
2, 35856, Note_on_c, 4, 75, 0
2, 35880, Note_on_c, 4, 72, 80
2, 36384, Note_on_c, 4, 72, 0
2, 36480, Note_on_c, 4, 81, 80
2, 37056, Note_on_c, 4, 81, 0
2, 37080, Note_on_c, 4, 81, 80
2, 37176, Note_on_c, 4, 81, 0
2, 37200, Note_on_c, 4, 79, 80
2, 37296, Note_on_c, 4, 79, 0
2, 37320, Note_on_c, 4, 75, 80
2, 37416, Note_on_c, 4, 75, 0
2, 37440, Note_on_c, 4, 81, 80
2, 37536, Note_on_c, 4, 81, 0
2, 37560, Note_on_c, 4, 81, 80
2, 37656, Note_on_c, 4, 81, 0
2, 37680, Note_on_c, 4, 79, 80
2, 37776, Note_on_c, 4, 79, 0
2, 37800, Note_on_c, 4, 75, 80
2, 38016, Note_on_c, 4, 75, 0
2, 38040, Note_on_c, 4, 75, 80
2, 38136, Note_on_c, 4, 75, 0
2, 38160, Note_on_c, 4, 75, 80
2, 38256, Note_on_c, 4, 75, 0
2, 38280, Note_on_c, 4, 75, 80
2, 38376, Note_on_c, 4, 75, 0
2, 38400, Note_on_c, 4, 81, 80
2, 38592, Note_on_c, 4, 81, 0
2, 38640, Note_on_c, 4, 79, 80
2, 38736, Note_on_c, 4, 79, 0
2, 38760, Note_on_c, 4, 75, 80
2, 38856, Note_on_c, 4, 75, 0
2, 38880, Note_on_c, 4, 81, 80
2, 39072, Note_on_c, 4, 81, 0
2, 39120, Note_on_c, 4, 79, 80
2, 39216, Note_on_c, 4, 79, 0
2, 39240, Note_on_c, 4, 75, 80
2, 39336, Note_on_c, 4, 75, 0
2, 39360, Note_on_c, 4, 81, 80
2, 39456, Note_on_c, 4, 81, 0
2, 39480, Note_on_c, 4, 81, 80
2, 39576, Note_on_c, 4, 81, 0
2, 39600, Note_on_c, 4, 79, 80
2, 39696, Note_on_c, 4, 79, 0
2, 39720, Note_on_c, 4, 75, 80
2, 39936, Note_on_c, 4, 75, 0
2, 39960, Note_on_c, 4, 75, 80
2, 40056, Note_on_c, 4, 75, 0
2, 40080, Note_on_c, 4, 75, 80
2, 40176, Note_on_c, 4, 75, 0
2, 40200, Note_on_c, 4, 75, 80
2, 40296, Note_on_c, 4, 75, 0
2, 40320, Note_on_c, 4, 75, 80
2, 41136, Note_on_c, 4, 75, 0
2, 41160, Note_on_c, 4, 72, 80
2, 41256, Note_on_c, 4, 72, 0
2, 42240, Note_on_c, 4, 75, 80
2, 43008, Note_on_c, 4, 75, 0
2, 43200, Note_on_c, 4, 84, 80
2, 43296, Note_on_c, 4, 84, 0
2, 43320, Note_on_c, 4, 78, 80
2, 43416, Note_on_c, 4, 78, 0
2, 44280, Note_on_c, 4, 72, 80
2, 44376, Note_on_c, 4, 72, 0
2, 44400, Note_on_c, 4, 75, 80
2, 44496, Note_on_c, 4, 75, 0
2, 44520, Note_on_c, 4, 77, 80
2, 44616, Note_on_c, 4, 77, 0
2, 44640, Note_on_c, 4, 78, 80
2, 44768, Note_on_c, 4, 78, 0
2, 44800, Note_on_c, 4, 78, 80
2, 44928, Note_on_c, 4, 78, 0
2, 44960, Note_on_c, 4, 78, 80
2, 45088, Note_on_c, 4, 78, 0
2, 45120, Note_on_c, 4, 78, 80
2, 45248, Note_on_c, 4, 78, 0
2, 45280, Note_on_c, 4, 77, 80
2, 45408, Note_on_c, 4, 77, 0
2, 45440, Note_on_c, 4, 75, 80
2, 45568, Note_on_c, 4, 75, 0
2, 45600, Note_on_c, 4, 72, 80
2, 45728, Note_on_c, 4, 72, 0
2, 45760, Note_on_c, 4, 70, 80
2, 45888, Note_on_c, 4, 70, 0
2, 45920, Note_on_c, 4, 72, 80
2, 46048, Note_on_c, 4, 72, 0
2, 46080, Note_on_c, 4, 68, 80
2, 46176, Note_on_c, 4, 68, 0
2, 46200, Note_on_c, 4, 69, 80
2, 46296, Note_on_c, 4, 69, 0
2, 47640, Note_on_c, 4, 75, 80
2, 47736, Note_on_c, 4, 75, 0
2, 47760, Note_on_c, 4, 75, 80
2, 47856, Note_on_c, 4, 75, 0
2, 47880, Note_on_c, 4, 75, 80
2, 47976, Note_on_c, 4, 75, 0
2, 48000, Note_on_c, 4, 75, 80
2, 48816, Note_on_c, 4, 75, 0
2, 48840, Note_on_c, 4, 72, 80
2, 48936, Note_on_c, 4, 72, 0
2, 49920, Note_on_c, 4, 75, 80
2, 50688, Note_on_c, 4, 75, 0
2, 50880, Note_on_c, 4, 84, 80
2, 50976, Note_on_c, 4, 84, 0
2, 51000, Note_on_c, 4, 78, 80
2, 51096, Note_on_c, 4, 78, 0
2, 51960, Note_on_c, 4, 72, 80
2, 52056, Note_on_c, 4, 72, 0
2, 52080, Note_on_c, 4, 75, 80
2, 52176, Note_on_c, 4, 75, 0
2, 52200, Note_on_c, 4, 77, 80
2, 52296, Note_on_c, 4, 77, 0
2, 52320, Note_on_c, 4, 78, 80
2, 52448, Note_on_c, 4, 78, 0
2, 52480, Note_on_c, 4, 78, 80
2, 52608, Note_on_c, 4, 78, 0
2, 52640, Note_on_c, 4, 78, 80
2, 52768, Note_on_c, 4, 78, 0
2, 52800, Note_on_c, 4, 78, 80
2, 52928, Note_on_c, 4, 78, 0
2, 52960, Note_on_c, 4, 77, 80
2, 53088, Note_on_c, 4, 77, 0
2, 53120, Note_on_c, 4, 75, 80
2, 53248, Note_on_c, 4, 75, 0
2, 53280, Note_on_c, 4, 72, 80
2, 53408, Note_on_c, 4, 72, 0
2, 53440, Note_on_c, 4, 70, 80
2, 53568, Note_on_c, 4, 70, 0
2, 53600, Note_on_c, 4, 72, 80
2, 53728, Note_on_c, 4, 72, 0
2, 53760, Note_on_c, 4, 68, 80
2, 53856, Note_on_c, 4, 68, 0
2, 53880, Note_on_c, 4, 69, 80
2, 53976, Note_on_c, 4, 69, 0
2, 54600, Note_on_c, 4, 65, 80
2, 54696, Note_on_c, 4, 65, 0
2, 54720, Note_on_c, 4, 68, 80
2, 54816, Note_on_c, 4, 68, 0
2, 54840, Note_on_c, 4, 69, 80
2, 54936, Note_on_c, 4, 69, 0
2, 55560, Note_on_c, 4, 77, 80
2, 55656, Note_on_c, 4, 77, 0
2, 55680, Note_on_c, 4, 80, 80
2, 55776, Note_on_c, 4, 80, 0
2, 55800, Note_on_c, 4, 81, 80
2, 55896, Note_on_c, 4, 81, 0
2, 56520, Note_on_c, 4, 77, 80
2, 56616, Note_on_c, 4, 77, 0
2, 56640, Note_on_c, 4, 80, 80
2, 56736, Note_on_c, 4, 80, 0
2, 56760, Note_on_c, 4, 81, 80
2, 56856, Note_on_c, 4, 81, 0
2, 57240, Note_on_c, 4, 64, 80
2, 57288, Note_on_c, 4, 64, 0
2, 57300, Note_on_c, 4, 65, 80
2, 57408, Note_on_c, 4, 65, 0
2, 57420, Note_on_c, 4, 69, 80
2, 57468, Note_on_c, 4, 69, 0
2, 57480, Note_on_c, 4, 72, 80
2, 57576, Note_on_c, 4, 72, 0
2, 57600, Note_on_c, 4, 75, 80
2, 57792, Note_on_c, 4, 75, 0
2, 57840, Note_on_c, 4, 75, 80
2, 58032, Note_on_c, 4, 75, 0
2, 58080, Note_on_c, 4, 75, 80
2, 58272, Note_on_c, 4, 75, 0
2, 58320, Note_on_c, 4, 75, 80
2, 58512, Note_on_c, 4, 75, 0
2, 58560, Note_on_c, 4, 75, 80
2, 58752, Note_on_c, 4, 75, 0
2, 58800, Note_on_c, 4, 75, 80
2, 58992, Note_on_c, 4, 75, 0
2, 59040, Note_on_c, 4, 75, 80
2, 59232, Note_on_c, 4, 75, 0
2, 59280, Note_on_c, 4, 75, 80
2, 59376, Note_on_c, 4, 75, 0
2, 59400, Note_on_c, 4, 79, 80
2, 60288, Note_on_c, 4, 79, 0
2, 60288, End_track
3, 0, Start_track
3, 0, Title_t, "Brass Accomp."
3, 0, MIDI_port, 0
3, 0, Program_c, 2, 62
3, 0, Control_c, 2, 7, 94
3, 5760, Note_on_c, 2, 45, 80
3, 5760, Note_on_c, 2, 48, 80
3, 5760, Note_on_c, 2, 51, 80
3, 6336, Note_on_c, 2, 45, 0
3, 6336, Note_on_c, 2, 48, 0
3, 6576, Note_on_c, 2, 51, 0
3, 6600, Note_on_c, 2, 48, 80
3, 6696, Note_on_c, 2, 48, 0
3, 7680, Note_on_c, 2, 45, 80
3, 7680, Note_on_c, 2, 48, 80
3, 7680, Note_on_c, 2, 51, 80
3, 8448, Note_on_c, 2, 45, 0
3, 8448, Note_on_c, 2, 48, 0
3, 8448, Note_on_c, 2, 51, 0
3, 8640, Note_on_c, 2, 60, 80
3, 8736, Note_on_c, 2, 60, 0
3, 8760, Note_on_c, 2, 54, 80
3, 8856, Note_on_c, 2, 54, 0
3, 9720, Note_on_c, 2, 48, 80
3, 9816, Note_on_c, 2, 48, 0
3, 9840, Note_on_c, 2, 51, 80
3, 9936, Note_on_c, 2, 51, 0
3, 9960, Note_on_c, 2, 53, 80
3, 10056, Note_on_c, 2, 53, 0
3, 10080, Note_on_c, 2, 54, 80
3, 10208, Note_on_c, 2, 54, 0
3, 10240, Note_on_c, 2, 54, 80
3, 10368, Note_on_c, 2, 54, 0
3, 10400, Note_on_c, 2, 54, 80
3, 10528, Note_on_c, 2, 54, 0
3, 10560, Note_on_c, 2, 54, 80
3, 10688, Note_on_c, 2, 54, 0
3, 10720, Note_on_c, 2, 53, 80
3, 10848, Note_on_c, 2, 53, 0
3, 10880, Note_on_c, 2, 51, 80
3, 11008, Note_on_c, 2, 51, 0
3, 11040, Note_on_c, 2, 48, 80
3, 11168, Note_on_c, 2, 48, 0
3, 11200, Note_on_c, 2, 46, 80
3, 11328, Note_on_c, 2, 46, 0
3, 11360, Note_on_c, 2, 48, 80
3, 11488, Note_on_c, 2, 48, 0
3, 11520, Note_on_c, 2, 43, 80
3, 11616, Note_on_c, 2, 43, 0
3, 11640, Note_on_c, 2, 45, 80
3, 11736, Note_on_c, 2, 45, 0
3, 13440, Note_on_c, 2, 60, 80
3, 13440, Note_on_c, 2, 57, 80
3, 13440, Note_on_c, 2, 55, 80
3, 14256, Note_on_c, 2, 60, 0
3, 14256, Note_on_c, 2, 57, 0
3, 14256, Note_on_c, 2, 55, 0
3, 14280, Note_on_c, 2, 55, 80
3, 14280, Note_on_c, 2, 53, 80
3, 14280, Note_on_c, 2, 51, 80
3, 14376, Note_on_c, 2, 55, 0
3, 14376, Note_on_c, 2, 53, 0
3, 14376, Note_on_c, 2, 51, 0
3, 15360, Note_on_c, 2, 57, 80
3, 15360, Note_on_c, 2, 55, 80
3, 15360, Note_on_c, 2, 60, 80
3, 16128, Note_on_c, 2, 57, 0
3, 16128, Note_on_c, 2, 55, 0
3, 16128, Note_on_c, 2, 60, 0
3, 16320, Note_on_c, 2, 60, 80
3, 16320, Note_on_c, 2, 72, 80
3, 16416, Note_on_c, 2, 60, 0
3, 16416, Note_on_c, 2, 72, 0
3, 16440, Note_on_c, 2, 54, 80
3, 16440, Note_on_c, 2, 66, 80
3, 16536, Note_on_c, 2, 54, 0
3, 16536, Note_on_c, 2, 66, 0
3, 17400, Note_on_c, 2, 48, 80
3, 17400, Note_on_c, 2, 60, 80
3, 17496, Note_on_c, 2, 48, 0
3, 17496, Note_on_c, 2, 60, 0
3, 17520, Note_on_c, 2, 63, 80
3, 17520, Note_on_c, 2, 51, 80
3, 17616, Note_on_c, 2, 63, 0
3, 17616, Note_on_c, 2, 51, 0
3, 17640, Note_on_c, 2, 53, 80
3, 17640, Note_on_c, 2, 65, 80
3, 17736, Note_on_c, 2, 53, 0
3, 17736, Note_on_c, 2, 65, 0
3, 17760, Note_on_c, 2, 66, 80
3, 17760, Note_on_c, 2, 54, 80
3, 17888, Note_on_c, 2, 66, 0
3, 17888, Note_on_c, 2, 54, 0
3, 17920, Note_on_c, 2, 66, 80
3, 17920, Note_on_c, 2, 54, 80
3, 18048, Note_on_c, 2, 66, 0
3, 18048, Note_on_c, 2, 54, 0
3, 18080, Note_on_c, 2, 66, 80
3, 18080, Note_on_c, 2, 54, 80
3, 18208, Note_on_c, 2, 66, 0
3, 18208, Note_on_c, 2, 54, 0
3, 18240, Note_on_c, 2, 66, 80
3, 18240, Note_on_c, 2, 54, 80
3, 18368, Note_on_c, 2, 66, 0
3, 18368, Note_on_c, 2, 54, 0
3, 18400, Note_on_c, 2, 65, 80
3, 18400, Note_on_c, 2, 53, 80
3, 18528, Note_on_c, 2, 65, 0
3, 18528, Note_on_c, 2, 53, 0
3, 18560, Note_on_c, 2, 63, 80
3, 18560, Note_on_c, 2, 51, 80
3, 18688, Note_on_c, 2, 63, 0
3, 18688, Note_on_c, 2, 51, 0
3, 18720, Note_on_c, 2, 60, 80
3, 18720, Note_on_c, 2, 48, 80
3, 18848, Note_on_c, 2, 60, 0
3, 18848, Note_on_c, 2, 48, 0
3, 18880, Note_on_c, 2, 58, 80
3, 18880, Note_on_c, 2, 46, 80
3, 19008, Note_on_c, 2, 58, 0
3, 19008, Note_on_c, 2, 46, 0
3, 19040, Note_on_c, 2, 60, 80
3, 19040, Note_on_c, 2, 48, 80
3, 19168, Note_on_c, 2, 60, 0
3, 19168, Note_on_c, 2, 48, 0
3, 19200, Note_on_c, 2, 44, 80
3, 19200, Note_on_c, 2, 56, 80
3, 19296, Note_on_c, 2, 44, 0
3, 19296, Note_on_c, 2, 56, 0
3, 19320, Note_on_c, 2, 45, 80
3, 19320, Note_on_c, 2, 57, 80
3, 19416, Note_on_c, 2, 45, 0
3, 19416, Note_on_c, 2, 57, 0
3, 32640, Note_on_c, 2, 69, 80
3, 32640, Note_on_c, 2, 72, 80
3, 32640, Note_on_c, 2, 77, 80
3, 33216, Note_on_c, 2, 69, 0
3, 33216, Note_on_c, 2, 72, 0
3, 33216, Note_on_c, 2, 77, 0
3, 33240, Note_on_c, 2, 69, 80
3, 33240, Note_on_c, 2, 72, 80
3, 33240, Note_on_c, 2, 77, 80
3, 33336, Note_on_c, 2, 69, 0
3, 33336, Note_on_c, 2, 72, 0
3, 33336, Note_on_c, 2, 77, 0
3, 33360, Note_on_c, 2, 67, 80
3, 33360, Note_on_c, 2, 70, 80
3, 33360, Note_on_c, 2, 75, 80
3, 33456, Note_on_c, 2, 67, 0
3, 33456, Note_on_c, 2, 70, 0
3, 33456, Note_on_c, 2, 75, 0
3, 33480, Note_on_c, 2, 65, 80
3, 33480, Note_on_c, 2, 69, 80
3, 33480, Note_on_c, 2, 72, 80
3, 33576, Note_on_c, 2, 65, 0
3, 33576, Note_on_c, 2, 69, 0
3, 33576, Note_on_c, 2, 72, 0
3, 33600, Note_on_c, 2, 77, 80
3, 33600, Note_on_c, 2, 72, 80
3, 33600, Note_on_c, 2, 69, 80
3, 33696, Note_on_c, 2, 77, 0
3, 33696, Note_on_c, 2, 72, 0
3, 33696, Note_on_c, 2, 69, 0
3, 33720, Note_on_c, 2, 77, 80
3, 33720, Note_on_c, 2, 72, 80
3, 33720, Note_on_c, 2, 69, 80
3, 33816, Note_on_c, 2, 77, 0
3, 33816, Note_on_c, 2, 72, 0
3, 33816, Note_on_c, 2, 69, 0
3, 33840, Note_on_c, 2, 75, 80
3, 33840, Note_on_c, 2, 70, 80
3, 33840, Note_on_c, 2, 67, 80
3, 33936, Note_on_c, 2, 75, 0
3, 33936, Note_on_c, 2, 70, 0
3, 33936, Note_on_c, 2, 67, 0
3, 33960, Note_on_c, 2, 72, 80
3, 33960, Note_on_c, 2, 69, 80
3, 33960, Note_on_c, 2, 65, 80
3, 34176, Note_on_c, 2, 72, 0
3, 34176, Note_on_c, 2, 69, 0
3, 34176, Note_on_c, 2, 65, 0
3, 34200, Note_on_c, 2, 72, 80
3, 34200, Note_on_c, 2, 65, 80
3, 34200, Note_on_c, 2, 69, 80
3, 34296, Note_on_c, 2, 72, 0
3, 34296, Note_on_c, 2, 65, 0
3, 34296, Note_on_c, 2, 69, 0
3, 34320, Note_on_c, 2, 72, 80
3, 34320, Note_on_c, 2, 69, 80
3, 34320, Note_on_c, 2, 65, 80
3, 34416, Note_on_c, 2, 72, 0
3, 34416, Note_on_c, 2, 69, 0
3, 34416, Note_on_c, 2, 65, 0
3, 34440, Note_on_c, 2, 72, 80
3, 34440, Note_on_c, 2, 69, 80
3, 34440, Note_on_c, 2, 65, 80
3, 34536, Note_on_c, 2, 72, 0
3, 34536, Note_on_c, 2, 69, 0
3, 34536, Note_on_c, 2, 65, 0
3, 34560, Note_on_c, 2, 77, 80
3, 34560, Note_on_c, 2, 72, 80
3, 34560, Note_on_c, 2, 69, 80
3, 34752, Note_on_c, 2, 77, 0
3, 34752, Note_on_c, 2, 72, 0
3, 34752, Note_on_c, 2, 69, 0
3, 34800, Note_on_c, 2, 75, 80
3, 34800, Note_on_c, 2, 70, 80
3, 34800, Note_on_c, 2, 67, 80
3, 34896, Note_on_c, 2, 75, 0
3, 34896, Note_on_c, 2, 70, 0
3, 34896, Note_on_c, 2, 67, 0
3, 34920, Note_on_c, 2, 72, 80
3, 34920, Note_on_c, 2, 69, 80
3, 34920, Note_on_c, 2, 65, 80
3, 35016, Note_on_c, 2, 72, 0
3, 35016, Note_on_c, 2, 69, 0
3, 35016, Note_on_c, 2, 65, 0
3, 35040, Note_on_c, 2, 69, 80
3, 35040, Note_on_c, 2, 72, 80
3, 35040, Note_on_c, 2, 77, 80
3, 35232, Note_on_c, 2, 69, 0
3, 35232, Note_on_c, 2, 72, 0
3, 35232, Note_on_c, 2, 77, 0
3, 35280, Note_on_c, 2, 67, 80
3, 35280, Note_on_c, 2, 70, 80
3, 35280, Note_on_c, 2, 75, 80
3, 35376, Note_on_c, 2, 67, 0
3, 35376, Note_on_c, 2, 70, 0
3, 35376, Note_on_c, 2, 75, 0
3, 35400, Note_on_c, 2, 65, 80
3, 35400, Note_on_c, 2, 69, 80
3, 35400, Note_on_c, 2, 72, 80
3, 35496, Note_on_c, 2, 65, 0
3, 35496, Note_on_c, 2, 69, 0
3, 35496, Note_on_c, 2, 72, 0
3, 35520, Note_on_c, 2, 77, 80
3, 35520, Note_on_c, 2, 72, 80
3, 35520, Note_on_c, 2, 69, 80
3, 35616, Note_on_c, 2, 77, 0
3, 35616, Note_on_c, 2, 72, 0
3, 35616, Note_on_c, 2, 69, 0
3, 35640, Note_on_c, 2, 77, 80
3, 35640, Note_on_c, 2, 72, 80
3, 35640, Note_on_c, 2, 69, 80
3, 35736, Note_on_c, 2, 77, 0
3, 35736, Note_on_c, 2, 72, 0
3, 35736, Note_on_c, 2, 69, 0
3, 35760, Note_on_c, 2, 75, 80
3, 35760, Note_on_c, 2, 70, 80
3, 35760, Note_on_c, 2, 67, 80
3, 35856, Note_on_c, 2, 75, 0
3, 35856, Note_on_c, 2, 70, 0
3, 35856, Note_on_c, 2, 67, 0
3, 35880, Note_on_c, 2, 72, 80
3, 35880, Note_on_c, 2, 69, 80
3, 35880, Note_on_c, 2, 65, 80
3, 36384, Note_on_c, 2, 72, 0
3, 36384, Note_on_c, 2, 69, 0
3, 36384, Note_on_c, 2, 65, 0
3, 36480, Note_on_c, 2, 81, 80
3, 36480, Note_on_c, 2, 77, 80
3, 36480, Note_on_c, 2, 72, 80
3, 37056, Note_on_c, 2, 81, 0
3, 37056, Note_on_c, 2, 77, 0
3, 37056, Note_on_c, 2, 72, 0
3, 37080, Note_on_c, 2, 81, 80
3, 37080, Note_on_c, 2, 72, 80
3, 37080, Note_on_c, 2, 77, 80
3, 37176, Note_on_c, 2, 81, 0
3, 37176, Note_on_c, 2, 72, 0
3, 37176, Note_on_c, 2, 77, 0
3, 37200, Note_on_c, 2, 79, 80
3, 37200, Note_on_c, 2, 75, 80
3, 37200, Note_on_c, 2, 70, 80
3, 37296, Note_on_c, 2, 79, 0
3, 37296, Note_on_c, 2, 75, 0
3, 37296, Note_on_c, 2, 70, 0
3, 37320, Note_on_c, 2, 75, 80
3, 37320, Note_on_c, 2, 70, 80
3, 37320, Note_on_c, 2, 67, 80
3, 37416, Note_on_c, 2, 75, 0
3, 37416, Note_on_c, 2, 70, 0
3, 37416, Note_on_c, 2, 67, 0
3, 37440, Note_on_c, 2, 81, 80
3, 37440, Note_on_c, 2, 77, 80
3, 37440, Note_on_c, 2, 72, 80
3, 37536, Note_on_c, 2, 81, 0
3, 37536, Note_on_c, 2, 77, 0
3, 37536, Note_on_c, 2, 72, 0
3, 37560, Note_on_c, 2, 81, 80
3, 37560, Note_on_c, 2, 77, 80
3, 37560, Note_on_c, 2, 72, 80
3, 37656, Note_on_c, 2, 81, 0
3, 37656, Note_on_c, 2, 77, 0
3, 37656, Note_on_c, 2, 72, 0
3, 37680, Note_on_c, 2, 79, 80
3, 37680, Note_on_c, 2, 75, 80
3, 37680, Note_on_c, 2, 70, 80
3, 37776, Note_on_c, 2, 79, 0
3, 37776, Note_on_c, 2, 75, 0
3, 37776, Note_on_c, 2, 70, 0
3, 37800, Note_on_c, 2, 75, 80
3, 37800, Note_on_c, 2, 70, 80
3, 37800, Note_on_c, 2, 67, 80
3, 38016, Note_on_c, 2, 75, 0
3, 38016, Note_on_c, 2, 70, 0
3, 38016, Note_on_c, 2, 67, 0
3, 38040, Note_on_c, 2, 75, 80
3, 38040, Note_on_c, 2, 70, 80
3, 38040, Note_on_c, 2, 67, 80
3, 38136, Note_on_c, 2, 75, 0
3, 38136, Note_on_c, 2, 70, 0
3, 38136, Note_on_c, 2, 67, 0
3, 38160, Note_on_c, 2, 75, 80
3, 38160, Note_on_c, 2, 70, 80
3, 38160, Note_on_c, 2, 67, 80
3, 38256, Note_on_c, 2, 75, 0
3, 38256, Note_on_c, 2, 70, 0
3, 38256, Note_on_c, 2, 67, 0
3, 38280, Note_on_c, 2, 75, 80
3, 38280, Note_on_c, 2, 70, 80
3, 38280, Note_on_c, 2, 67, 80
3, 38376, Note_on_c, 2, 75, 0
3, 38376, Note_on_c, 2, 70, 0
3, 38376, Note_on_c, 2, 67, 0
3, 38400, Note_on_c, 2, 81, 80
3, 38400, Note_on_c, 2, 77, 80
3, 38400, Note_on_c, 2, 72, 80
3, 38592, Note_on_c, 2, 81, 0
3, 38592, Note_on_c, 2, 77, 0
3, 38592, Note_on_c, 2, 72, 0
3, 38640, Note_on_c, 2, 79, 80
3, 38640, Note_on_c, 2, 75, 80
3, 38640, Note_on_c, 2, 70, 80
3, 38736, Note_on_c, 2, 79, 0
3, 38736, Note_on_c, 2, 75, 0
3, 38736, Note_on_c, 2, 70, 0
3, 38760, Note_on_c, 2, 75, 80
3, 38760, Note_on_c, 2, 70, 80
3, 38760, Note_on_c, 2, 67, 80
3, 38856, Note_on_c, 2, 75, 0
3, 38856, Note_on_c, 2, 70, 0
3, 38856, Note_on_c, 2, 67, 0
3, 38880, Note_on_c, 2, 72, 80
3, 38880, Note_on_c, 2, 77, 80
3, 38880, Note_on_c, 2, 81, 80
3, 39072, Note_on_c, 2, 72, 0
3, 39072, Note_on_c, 2, 77, 0
3, 39072, Note_on_c, 2, 81, 0
3, 39120, Note_on_c, 2, 70, 80
3, 39120, Note_on_c, 2, 75, 80
3, 39120, Note_on_c, 2, 79, 80
3, 39216, Note_on_c, 2, 70, 0
3, 39216, Note_on_c, 2, 75, 0
3, 39216, Note_on_c, 2, 79, 0
3, 39240, Note_on_c, 2, 67, 80
3, 39240, Note_on_c, 2, 70, 80
3, 39240, Note_on_c, 2, 75, 80
3, 39336, Note_on_c, 2, 67, 0
3, 39336, Note_on_c, 2, 70, 0
3, 39336, Note_on_c, 2, 75, 0
3, 39360, Note_on_c, 2, 72, 80
3, 39360, Note_on_c, 2, 77, 80
3, 39360, Note_on_c, 2, 81, 80
3, 39456, Note_on_c, 2, 72, 0
3, 39456, Note_on_c, 2, 77, 0
3, 39456, Note_on_c, 2, 81, 0
3, 39480, Note_on_c, 2, 72, 80
3, 39480, Note_on_c, 2, 77, 80
3, 39480, Note_on_c, 2, 81, 80
3, 39576, Note_on_c, 2, 72, 0
3, 39576, Note_on_c, 2, 77, 0
3, 39576, Note_on_c, 2, 81, 0
3, 39600, Note_on_c, 2, 70, 80
3, 39600, Note_on_c, 2, 75, 80
3, 39600, Note_on_c, 2, 79, 80
3, 39696, Note_on_c, 2, 70, 0
3, 39696, Note_on_c, 2, 75, 0
3, 39696, Note_on_c, 2, 79, 0
3, 39720, Note_on_c, 2, 67, 80
3, 39720, Note_on_c, 2, 70, 80
3, 39720, Note_on_c, 2, 75, 80
3, 39936, Note_on_c, 2, 67, 0
3, 39936, Note_on_c, 2, 70, 0
3, 39936, Note_on_c, 2, 75, 0
3, 39960, Note_on_c, 2, 67, 80
3, 39960, Note_on_c, 2, 70, 80
3, 39960, Note_on_c, 2, 72, 80
3, 40056, Note_on_c, 2, 67, 0
3, 40056, Note_on_c, 2, 70, 0
3, 40056, Note_on_c, 2, 72, 0
3, 40080, Note_on_c, 2, 67, 80
3, 40080, Note_on_c, 2, 70, 80
3, 40080, Note_on_c, 2, 72, 80
3, 40176, Note_on_c, 2, 67, 0
3, 40176, Note_on_c, 2, 70, 0
3, 40176, Note_on_c, 2, 72, 0
3, 40200, Note_on_c, 2, 67, 80
3, 40200, Note_on_c, 2, 70, 80
3, 40200, Note_on_c, 2, 72, 80
3, 40296, Note_on_c, 2, 67, 0
3, 40296, Note_on_c, 2, 70, 0
3, 40296, Note_on_c, 2, 72, 0
3, 40320, Note_on_c, 2, 67, 80
3, 40320, Note_on_c, 2, 69, 80
3, 40320, Note_on_c, 2, 72, 80
3, 41136, Note_on_c, 2, 67, 0
3, 41136, Note_on_c, 2, 69, 0
3, 41136, Note_on_c, 2, 72, 0
3, 41160, Note_on_c, 2, 69, 80
3, 41160, Note_on_c, 2, 67, 80
3, 41160, Note_on_c, 2, 63, 80
3, 41256, Note_on_c, 2, 69, 0
3, 41256, Note_on_c, 2, 67, 0
3, 41256, Note_on_c, 2, 63, 0
3, 42240, Note_on_c, 2, 72, 80
3, 42240, Note_on_c, 2, 69, 80
3, 42240, Note_on_c, 2, 67, 80
3, 43008, Note_on_c, 2, 72, 0
3, 43008, Note_on_c, 2, 69, 0
3, 43008, Note_on_c, 2, 67, 0
3, 43200, Note_on_c, 2, 72, 80
3, 43200, Note_on_c, 2, 84, 80
3, 43296, Note_on_c, 2, 72, 0
3, 43296, Note_on_c, 2, 84, 0
3, 43320, Note_on_c, 2, 66, 80
3, 43320, Note_on_c, 2, 78, 80
3, 43416, Note_on_c, 2, 66, 0
3, 43416, Note_on_c, 2, 78, 0
3, 44280, Note_on_c, 2, 72, 80
3, 44280, Note_on_c, 2, 60, 80
3, 44376, Note_on_c, 2, 72, 0
3, 44376, Note_on_c, 2, 60, 0
3, 44400, Note_on_c, 2, 63, 80
3, 44400, Note_on_c, 2, 75, 80
3, 44496, Note_on_c, 2, 63, 0
3, 44496, Note_on_c, 2, 75, 0
3, 44520, Note_on_c, 2, 65, 80
3, 44520, Note_on_c, 2, 77, 80
3, 44616, Note_on_c, 2, 65, 0
3, 44616, Note_on_c, 2, 77, 0
3, 44640, Note_on_c, 2, 66, 80
3, 44640, Note_on_c, 2, 78, 80
3, 44768, Note_on_c, 2, 66, 0
3, 44768, Note_on_c, 2, 78, 0
3, 44800, Note_on_c, 2, 66, 80
3, 44800, Note_on_c, 2, 78, 80
3, 44928, Note_on_c, 2, 66, 0
3, 44928, Note_on_c, 2, 78, 0
3, 44960, Note_on_c, 2, 66, 80
3, 44960, Note_on_c, 2, 78, 80
3, 45088, Note_on_c, 2, 66, 0
3, 45088, Note_on_c, 2, 78, 0
3, 45120, Note_on_c, 2, 66, 80
3, 45120, Note_on_c, 2, 78, 80
3, 45248, Note_on_c, 2, 66, 0
3, 45248, Note_on_c, 2, 78, 0
3, 45280, Note_on_c, 2, 65, 80
3, 45280, Note_on_c, 2, 77, 80
3, 45408, Note_on_c, 2, 65, 0
3, 45408, Note_on_c, 2, 77, 0
3, 45440, Note_on_c, 2, 63, 80
3, 45440, Note_on_c, 2, 75, 80
3, 45568, Note_on_c, 2, 63, 0
3, 45568, Note_on_c, 2, 75, 0
3, 45600, Note_on_c, 2, 60, 80
3, 45600, Note_on_c, 2, 72, 80
3, 45728, Note_on_c, 2, 60, 0
3, 45728, Note_on_c, 2, 72, 0
3, 45760, Note_on_c, 2, 58, 80
3, 45760, Note_on_c, 2, 70, 80
3, 45888, Note_on_c, 2, 58, 0
3, 45888, Note_on_c, 2, 70, 0
3, 45920, Note_on_c, 2, 60, 80
3, 45920, Note_on_c, 2, 72, 80
3, 46048, Note_on_c, 2, 60, 0
3, 46048, Note_on_c, 2, 72, 0
3, 46080, Note_on_c, 2, 56, 80
3, 46080, Note_on_c, 2, 68, 80
3, 46176, Note_on_c, 2, 56, 0
3, 46176, Note_on_c, 2, 68, 0
3, 46200, Note_on_c, 2, 57, 80
3, 46200, Note_on_c, 2, 69, 80
3, 46296, Note_on_c, 2, 57, 0
3, 46296, Note_on_c, 2, 69, 0
3, 47640, Note_on_c, 2, 67, 80
3, 47640, Note_on_c, 2, 69, 80
3, 47640, Note_on_c, 2, 72, 80
3, 47736, Note_on_c, 2, 67, 0
3, 47736, Note_on_c, 2, 69, 0
3, 47736, Note_on_c, 2, 72, 0
3, 47760, Note_on_c, 2, 67, 80
3, 47760, Note_on_c, 2, 69, 80
3, 47760, Note_on_c, 2, 72, 80
3, 47856, Note_on_c, 2, 67, 0
3, 47856, Note_on_c, 2, 69, 0
3, 47856, Note_on_c, 2, 72, 0
3, 47880, Note_on_c, 2, 67, 80
3, 47880, Note_on_c, 2, 69, 80
3, 47880, Note_on_c, 2, 72, 80
3, 47976, Note_on_c, 2, 67, 0
3, 47976, Note_on_c, 2, 69, 0
3, 47976, Note_on_c, 2, 72, 0
3, 48000, Note_on_c, 2, 72, 80
3, 48000, Note_on_c, 2, 69, 80
3, 48000, Note_on_c, 2, 67, 80
3, 48816, Note_on_c, 2, 72, 0
3, 48816, Note_on_c, 2, 69, 0
3, 48816, Note_on_c, 2, 67, 0
3, 48840, Note_on_c, 2, 63, 80
3, 48840, Note_on_c, 2, 67, 80
3, 48840, Note_on_c, 2, 69, 80
3, 48936, Note_on_c, 2, 63, 0
3, 48936, Note_on_c, 2, 67, 0
3, 48936, Note_on_c, 2, 69, 0
3, 49920, Note_on_c, 2, 67, 80
3, 49920, Note_on_c, 2, 69, 80
3, 49920, Note_on_c, 2, 72, 80
3, 50688, Note_on_c, 2, 67, 0
3, 50688, Note_on_c, 2, 69, 0
3, 50688, Note_on_c, 2, 72, 0
3, 50880, Note_on_c, 2, 84, 80
3, 50880, Note_on_c, 2, 72, 80
3, 50976, Note_on_c, 2, 84, 0
3, 50976, Note_on_c, 2, 72, 0
3, 51000, Note_on_c, 2, 78, 80
3, 51000, Note_on_c, 2, 66, 80
3, 51096, Note_on_c, 2, 78, 0
3, 51096, Note_on_c, 2, 66, 0
3, 51960, Note_on_c, 2, 60, 80
3, 51960, Note_on_c, 2, 72, 80
3, 52056, Note_on_c, 2, 60, 0
3, 52056, Note_on_c, 2, 72, 0
3, 52080, Note_on_c, 2, 75, 80
3, 52080, Note_on_c, 2, 63, 80
3, 52176, Note_on_c, 2, 75, 0
3, 52176, Note_on_c, 2, 63, 0
3, 52200, Note_on_c, 2, 77, 80
3, 52200, Note_on_c, 2, 65, 80
3, 52296, Note_on_c, 2, 77, 0
3, 52296, Note_on_c, 2, 65, 0
3, 52320, Note_on_c, 2, 78, 80
3, 52320, Note_on_c, 2, 66, 80
3, 52448, Note_on_c, 2, 78, 0
3, 52448, Note_on_c, 2, 66, 0
3, 52480, Note_on_c, 2, 78, 80
3, 52480, Note_on_c, 2, 66, 80
3, 52608, Note_on_c, 2, 78, 0
3, 52608, Note_on_c, 2, 66, 0
3, 52640, Note_on_c, 2, 78, 80
3, 52640, Note_on_c, 2, 66, 80
3, 52768, Note_on_c, 2, 78, 0
3, 52768, Note_on_c, 2, 66, 0
3, 52800, Note_on_c, 2, 78, 80
3, 52800, Note_on_c, 2, 66, 80
3, 52928, Note_on_c, 2, 78, 0
3, 52928, Note_on_c, 2, 66, 0
3, 52960, Note_on_c, 2, 77, 80
3, 52960, Note_on_c, 2, 65, 80
3, 53088, Note_on_c, 2, 77, 0
3, 53088, Note_on_c, 2, 65, 0
3, 53120, Note_on_c, 2, 75, 80
3, 53120, Note_on_c, 2, 63, 80
3, 53248, Note_on_c, 2, 75, 0
3, 53248, Note_on_c, 2, 63, 0
3, 53280, Note_on_c, 2, 72, 80
3, 53280, Note_on_c, 2, 60, 80
3, 53408, Note_on_c, 2, 72, 0
3, 53408, Note_on_c, 2, 60, 0
3, 53440, Note_on_c, 2, 70, 80
3, 53440, Note_on_c, 2, 58, 80
3, 53568, Note_on_c, 2, 70, 0
3, 53568, Note_on_c, 2, 58, 0
3, 53600, Note_on_c, 2, 72, 80
3, 53600, Note_on_c, 2, 60, 80
3, 53728, Note_on_c, 2, 72, 0
3, 53728, Note_on_c, 2, 60, 0
3, 53760, Note_on_c, 2, 59, 80
3, 53760, Note_on_c, 2, 62, 80
3, 53760, Note_on_c, 2, 66, 80
3, 53856, Note_on_c, 2, 59, 0
3, 53856, Note_on_c, 2, 62, 0
3, 53856, Note_on_c, 2, 66, 0
3, 53880, Note_on_c, 2, 60, 80
3, 53880, Note_on_c, 2, 63, 80
3, 53880, Note_on_c, 2, 67, 80
3, 53976, Note_on_c, 2, 60, 0
3, 53976, Note_on_c, 2, 63, 0
3, 53976, Note_on_c, 2, 67, 0
3, 54600, Note_on_c, 2, 65, 80
3, 54696, Note_on_c, 2, 65, 0
3, 54720, Note_on_c, 2, 66, 80
3, 54720, Note_on_c, 2, 62, 80
3, 54720, Note_on_c, 2, 59, 80
3, 54816, Note_on_c, 2, 66, 0
3, 54816, Note_on_c, 2, 62, 0
3, 54816, Note_on_c, 2, 59, 0
3, 54840, Note_on_c, 2, 67, 80
3, 54840, Note_on_c, 2, 63, 80
3, 54840, Note_on_c, 2, 60, 80
3, 54936, Note_on_c, 2, 67, 0
3, 54936, Note_on_c, 2, 63, 0
3, 54936, Note_on_c, 2, 60, 0
3, 55560, Note_on_c, 2, 77, 80
3, 55656, Note_on_c, 2, 77, 0
3, 55680, Note_on_c, 2, 71, 80
3, 55680, Note_on_c, 2, 74, 80
3, 55680, Note_on_c, 2, 78, 80
3, 55776, Note_on_c, 2, 71, 0
3, 55776, Note_on_c, 2, 74, 0
3, 55776, Note_on_c, 2, 78, 0
3, 55800, Note_on_c, 2, 72, 80
3, 55800, Note_on_c, 2, 75, 80
3, 55800, Note_on_c, 2, 79, 80
3, 55896, Note_on_c, 2, 72, 0
3, 55896, Note_on_c, 2, 75, 0
3, 55896, Note_on_c, 2, 79, 0
3, 56520, Note_on_c, 2, 77, 80
3, 56616, Note_on_c, 2, 77, 0
3, 56640, Note_on_c, 2, 78, 80
3, 56640, Note_on_c, 2, 74, 80
3, 56640, Note_on_c, 2, 71, 80
3, 56736, Note_on_c, 2, 78, 0
3, 56736, Note_on_c, 2, 74, 0
3, 56736, Note_on_c, 2, 71, 0
3, 56760, Note_on_c, 2, 79, 80
3, 56760, Note_on_c, 2, 75, 80
3, 56760, Note_on_c, 2, 72, 80
3, 56856, Note_on_c, 2, 79, 0
3, 56856, Note_on_c, 2, 75, 0
3, 56856, Note_on_c, 2, 72, 0
3, 57240, Note_on_c, 2, 64, 80
3, 57288, Note_on_c, 2, 64, 0
3, 57300, Note_on_c, 2, 65, 80
3, 57408, Note_on_c, 2, 65, 0
3, 57420, Note_on_c, 2, 69, 80
3, 57468, Note_on_c, 2, 69, 0
3, 57480, Note_on_c, 2, 72, 80
3, 57576, Note_on_c, 2, 72, 0
3, 57600, Note_on_c, 2, 65, 80
3, 57600, Note_on_c, 2, 68, 80
3, 57600, Note_on_c, 2, 72, 80
3, 57792, Note_on_c, 2, 65, 0
3, 57792, Note_on_c, 2, 68, 0
3, 57792, Note_on_c, 2, 72, 0
3, 57840, Note_on_c, 2, 65, 80
3, 57840, Note_on_c, 2, 68, 80
3, 57840, Note_on_c, 2, 72, 80
3, 58032, Note_on_c, 2, 65, 0
3, 58032, Note_on_c, 2, 68, 0
3, 58032, Note_on_c, 2, 72, 0
3, 58080, Note_on_c, 2, 65, 80
3, 58080, Note_on_c, 2, 68, 80
3, 58080, Note_on_c, 2, 72, 80
3, 58272, Note_on_c, 2, 65, 0
3, 58272, Note_on_c, 2, 68, 0
3, 58272, Note_on_c, 2, 72, 0
3, 58320, Note_on_c, 2, 65, 80
3, 58320, Note_on_c, 2, 68, 80
3, 58320, Note_on_c, 2, 72, 80
3, 58512, Note_on_c, 2, 65, 0
3, 58512, Note_on_c, 2, 68, 0
3, 58512, Note_on_c, 2, 72, 0
3, 58560, Note_on_c, 2, 65, 80
3, 58560, Note_on_c, 2, 68, 80
3, 58560, Note_on_c, 2, 72, 80
3, 58752, Note_on_c, 2, 65, 0
3, 58752, Note_on_c, 2, 68, 0
3, 58752, Note_on_c, 2, 72, 0
3, 58800, Note_on_c, 2, 65, 80
3, 58800, Note_on_c, 2, 68, 80
3, 58800, Note_on_c, 2, 72, 80
3, 58992, Note_on_c, 2, 65, 0
3, 58992, Note_on_c, 2, 68, 0
3, 58992, Note_on_c, 2, 72, 0
3, 59040, Note_on_c, 2, 72, 80
3, 59040, Note_on_c, 2, 65, 80
3, 59040, Note_on_c, 2, 68, 80
3, 59232, Note_on_c, 2, 72, 0
3, 59232, Note_on_c, 2, 65, 0
3, 59232, Note_on_c, 2, 68, 0
3, 59280, Note_on_c, 2, 65, 80
3, 59280, Note_on_c, 2, 68, 80
3, 59280, Note_on_c, 2, 72, 80
3, 59376, Note_on_c, 2, 65, 0
3, 59376, Note_on_c, 2, 68, 0
3, 59376, Note_on_c, 2, 72, 0
3, 59400, Note_on_c, 2, 67, 80
3, 59400, Note_on_c, 2, 71, 80
3, 59400, Note_on_c, 2, 74, 80
3, 60288, Note_on_c, 2, 67, 0
3, 60288, Note_on_c, 2, 71, 0
3, 60288, Note_on_c, 2, 74, 0
3, 60288, End_track
4, 0, Start_track
4, 0, Title_t, "Synth Bass"
4, 0, MIDI_port, 0
4, 0, Program_c, 1, 38
4, 3840, Note_on_c, 1, 41, 80
4, 3936, Note_on_c, 1, 41, 0
4, 3960, Note_on_c, 1, 41, 80
4, 4056, Note_on_c, 1, 41, 0
4, 4080, Note_on_c, 1, 43, 80
4, 4176, Note_on_c, 1, 43, 0
4, 4200, Note_on_c, 1, 41, 80
4, 4296, Note_on_c, 1, 41, 0
4, 4320, Note_on_c, 1, 44, 80
4, 4368, Note_on_c, 1, 44, 0
4, 4380, Note_on_c, 1, 45, 80
4, 4428, Note_on_c, 1, 45, 0
4, 4440, Note_on_c, 1, 41, 80
4, 4536, Note_on_c, 1, 41, 0
4, 4560, Note_on_c, 1, 46, 80
4, 4656, Note_on_c, 1, 46, 0
4, 4680, Note_on_c, 1, 45, 80
4, 4776, Note_on_c, 1, 45, 0
4, 4800, Note_on_c, 1, 41, 80
4, 4896, Note_on_c, 1, 41, 0
4, 4920, Note_on_c, 1, 41, 80
4, 5016, Note_on_c, 1, 41, 0
4, 5040, Note_on_c, 1, 43, 80
4, 5136, Note_on_c, 1, 43, 0
4, 5160, Note_on_c, 1, 41, 80
4, 5256, Note_on_c, 1, 41, 0
4, 5280, Note_on_c, 1, 44, 80
4, 5328, Note_on_c, 1, 44, 0
4, 5340, Note_on_c, 1, 45, 80
4, 5388, Note_on_c, 1, 45, 0
4, 5400, Note_on_c, 1, 41, 80
4, 5496, Note_on_c, 1, 41, 0
4, 5520, Note_on_c, 1, 46, 80
4, 5616, Note_on_c, 1, 46, 0
4, 5640, Note_on_c, 1, 45, 80
4, 5736, Note_on_c, 1, 45, 0
4, 5760, Note_on_c, 1, 41, 80
4, 5856, Note_on_c, 1, 41, 0
4, 5880, Note_on_c, 1, 41, 80
4, 5976, Note_on_c, 1, 41, 0
4, 6000, Note_on_c, 1, 43, 80
4, 6096, Note_on_c, 1, 43, 0
4, 6120, Note_on_c, 1, 41, 80
4, 6216, Note_on_c, 1, 41, 0
4, 6240, Note_on_c, 1, 44, 80
4, 6288, Note_on_c, 1, 44, 0
4, 6300, Note_on_c, 1, 45, 80
4, 6348, Note_on_c, 1, 45, 0
4, 6360, Note_on_c, 1, 41, 80
4, 6456, Note_on_c, 1, 41, 0
4, 6480, Note_on_c, 1, 46, 80
4, 6576, Note_on_c, 1, 46, 0
4, 6600, Note_on_c, 1, 45, 80
4, 6696, Note_on_c, 1, 45, 0
4, 6720, Note_on_c, 1, 41, 80
4, 6816, Note_on_c, 1, 41, 0
4, 6840, Note_on_c, 1, 41, 80
4, 6936, Note_on_c, 1, 41, 0
4, 6960, Note_on_c, 1, 43, 80
4, 7056, Note_on_c, 1, 43, 0
4, 7080, Note_on_c, 1, 41, 80
4, 7176, Note_on_c, 1, 41, 0
4, 7200, Note_on_c, 1, 44, 80
4, 7248, Note_on_c, 1, 44, 0
4, 7260, Note_on_c, 1, 45, 80
4, 7308, Note_on_c, 1, 45, 0
4, 7320, Note_on_c, 1, 41, 80
4, 7416, Note_on_c, 1, 41, 0
4, 7440, Note_on_c, 1, 46, 80
4, 7536, Note_on_c, 1, 46, 0
4, 7560, Note_on_c, 1, 45, 80
4, 7656, Note_on_c, 1, 45, 0
4, 7680, Note_on_c, 1, 41, 80
4, 7776, Note_on_c, 1, 41, 0
4, 7800, Note_on_c, 1, 41, 80
4, 7896, Note_on_c, 1, 41, 0
4, 7920, Note_on_c, 1, 43, 80
4, 8016, Note_on_c, 1, 43, 0
4, 8040, Note_on_c, 1, 41, 80
4, 8136, Note_on_c, 1, 41, 0
4, 8160, Note_on_c, 1, 44, 80
4, 8208, Note_on_c, 1, 44, 0
4, 8220, Note_on_c, 1, 45, 80
4, 8268, Note_on_c, 1, 45, 0
4, 8280, Note_on_c, 1, 41, 80
4, 8376, Note_on_c, 1, 41, 0
4, 8400, Note_on_c, 1, 46, 80
4, 8496, Note_on_c, 1, 46, 0
4, 8520, Note_on_c, 1, 45, 80
4, 8616, Note_on_c, 1, 45, 0
4, 8640, Note_on_c, 1, 41, 80
4, 8736, Note_on_c, 1, 41, 0
4, 8760, Note_on_c, 1, 41, 80
4, 8856, Note_on_c, 1, 41, 0
4, 8880, Note_on_c, 1, 43, 80
4, 8976, Note_on_c, 1, 43, 0
4, 9000, Note_on_c, 1, 41, 80
4, 9096, Note_on_c, 1, 41, 0
4, 9120, Note_on_c, 1, 44, 80
4, 9168, Note_on_c, 1, 44, 0
4, 9180, Note_on_c, 1, 45, 80
4, 9228, Note_on_c, 1, 45, 0
4, 9240, Note_on_c, 1, 41, 80
4, 9336, Note_on_c, 1, 41, 0
4, 9360, Note_on_c, 1, 46, 80
4, 9456, Note_on_c, 1, 46, 0
4, 9480, Note_on_c, 1, 45, 80
4, 9576, Note_on_c, 1, 45, 0
4, 9600, Note_on_c, 1, 41, 80
4, 9696, Note_on_c, 1, 41, 0
4, 9720, Note_on_c, 1, 41, 80
4, 9816, Note_on_c, 1, 41, 0
4, 9840, Note_on_c, 1, 43, 80
4, 9936, Note_on_c, 1, 43, 0
4, 9960, Note_on_c, 1, 41, 80
4, 10056, Note_on_c, 1, 41, 0
4, 10080, Note_on_c, 1, 44, 80
4, 10128, Note_on_c, 1, 44, 0
4, 10140, Note_on_c, 1, 45, 80
4, 10188, Note_on_c, 1, 45, 0
4, 10200, Note_on_c, 1, 41, 80
4, 10296, Note_on_c, 1, 41, 0
4, 10320, Note_on_c, 1, 46, 80
4, 10416, Note_on_c, 1, 46, 0
4, 10440, Note_on_c, 1, 45, 80
4, 10536, Note_on_c, 1, 45, 0
4, 10560, Note_on_c, 1, 41, 80
4, 10656, Note_on_c, 1, 41, 0
4, 10680, Note_on_c, 1, 41, 80
4, 10776, Note_on_c, 1, 41, 0
4, 10800, Note_on_c, 1, 43, 80
4, 10896, Note_on_c, 1, 43, 0
4, 10920, Note_on_c, 1, 41, 80
4, 11016, Note_on_c, 1, 41, 0
4, 11040, Note_on_c, 1, 44, 80
4, 11088, Note_on_c, 1, 44, 0
4, 11100, Note_on_c, 1, 45, 80
4, 11148, Note_on_c, 1, 45, 0
4, 11160, Note_on_c, 1, 41, 80
4, 11256, Note_on_c, 1, 41, 0
4, 11280, Note_on_c, 1, 46, 80
4, 11376, Note_on_c, 1, 46, 0
4, 11400, Note_on_c, 1, 45, 80
4, 11496, Note_on_c, 1, 45, 0
4, 11520, Note_on_c, 1, 41, 80
4, 11616, Note_on_c, 1, 41, 0
4, 11640, Note_on_c, 1, 41, 80
4, 11736, Note_on_c, 1, 41, 0
4, 11760, Note_on_c, 1, 43, 80
4, 11856, Note_on_c, 1, 43, 0
4, 11880, Note_on_c, 1, 41, 80
4, 11976, Note_on_c, 1, 41, 0
4, 12000, Note_on_c, 1, 44, 80
4, 12048, Note_on_c, 1, 44, 0
4, 12060, Note_on_c, 1, 45, 80
4, 12108, Note_on_c, 1, 45, 0
4, 12120, Note_on_c, 1, 41, 80
4, 12216, Note_on_c, 1, 41, 0
4, 12240, Note_on_c, 1, 46, 80
4, 12336, Note_on_c, 1, 46, 0
4, 12360, Note_on_c, 1, 45, 80
4, 12456, Note_on_c, 1, 45, 0
4, 12480, Note_on_c, 1, 41, 80
4, 12576, Note_on_c, 1, 41, 0
4, 12600, Note_on_c, 1, 41, 80
4, 12696, Note_on_c, 1, 41, 0
4, 12720, Note_on_c, 1, 43, 80
4, 12816, Note_on_c, 1, 43, 0
4, 12840, Note_on_c, 1, 41, 80
4, 12936, Note_on_c, 1, 41, 0
4, 12960, Note_on_c, 1, 44, 80
4, 13008, Note_on_c, 1, 44, 0
4, 13020, Note_on_c, 1, 45, 80
4, 13068, Note_on_c, 1, 45, 0
4, 13080, Note_on_c, 1, 41, 80
4, 13176, Note_on_c, 1, 41, 0
4, 13200, Note_on_c, 1, 46, 80
4, 13296, Note_on_c, 1, 46, 0
4, 13320, Note_on_c, 1, 45, 80
4, 13416, Note_on_c, 1, 45, 0
4, 13440, Note_on_c, 1, 41, 80
4, 13536, Note_on_c, 1, 41, 0
4, 13560, Note_on_c, 1, 41, 80
4, 13656, Note_on_c, 1, 41, 0
4, 13680, Note_on_c, 1, 43, 80
4, 13776, Note_on_c, 1, 43, 0
4, 13800, Note_on_c, 1, 41, 80
4, 13896, Note_on_c, 1, 41, 0
4, 13920, Note_on_c, 1, 44, 80
4, 13968, Note_on_c, 1, 44, 0
4, 13980, Note_on_c, 1, 45, 80
4, 14028, Note_on_c, 1, 45, 0
4, 14040, Note_on_c, 1, 41, 80
4, 14136, Note_on_c, 1, 41, 0
4, 14160, Note_on_c, 1, 46, 80
4, 14256, Note_on_c, 1, 46, 0
4, 14280, Note_on_c, 1, 45, 80
4, 14376, Note_on_c, 1, 45, 0
4, 14400, Note_on_c, 1, 41, 80
4, 14496, Note_on_c, 1, 41, 0
4, 14520, Note_on_c, 1, 41, 80
4, 14616, Note_on_c, 1, 41, 0
4, 14640, Note_on_c, 1, 43, 80
4, 14736, Note_on_c, 1, 43, 0
4, 14760, Note_on_c, 1, 41, 80
4, 14856, Note_on_c, 1, 41, 0
4, 14880, Note_on_c, 1, 44, 80
4, 14928, Note_on_c, 1, 44, 0
4, 14940, Note_on_c, 1, 45, 80
4, 14988, Note_on_c, 1, 45, 0
4, 15000, Note_on_c, 1, 41, 80
4, 15096, Note_on_c, 1, 41, 0
4, 15120, Note_on_c, 1, 46, 80
4, 15216, Note_on_c, 1, 46, 0
4, 15240, Note_on_c, 1, 45, 80
4, 15336, Note_on_c, 1, 45, 0
4, 15360, Note_on_c, 1, 41, 80
4, 15456, Note_on_c, 1, 41, 0
4, 15480, Note_on_c, 1, 41, 80
4, 15576, Note_on_c, 1, 41, 0
4, 15600, Note_on_c, 1, 43, 80
4, 15696, Note_on_c, 1, 43, 0
4, 15720, Note_on_c, 1, 41, 80
4, 15816, Note_on_c, 1, 41, 0
4, 15840, Note_on_c, 1, 44, 80
4, 15888, Note_on_c, 1, 44, 0
4, 15900, Note_on_c, 1, 45, 80
4, 15948, Note_on_c, 1, 45, 0
4, 15960, Note_on_c, 1, 41, 80
4, 16056, Note_on_c, 1, 41, 0
4, 16080, Note_on_c, 1, 46, 80
4, 16176, Note_on_c, 1, 46, 0
4, 16200, Note_on_c, 1, 45, 80
4, 16296, Note_on_c, 1, 45, 0
4, 16320, Note_on_c, 1, 41, 80
4, 16416, Note_on_c, 1, 41, 0
4, 16440, Note_on_c, 1, 41, 80
4, 16536, Note_on_c, 1, 41, 0
4, 16560, Note_on_c, 1, 43, 80
4, 16656, Note_on_c, 1, 43, 0
4, 16680, Note_on_c, 1, 41, 80
4, 16776, Note_on_c, 1, 41, 0
4, 16800, Note_on_c, 1, 44, 80
4, 16848, Note_on_c, 1, 44, 0
4, 16860, Note_on_c, 1, 45, 80
4, 16908, Note_on_c, 1, 45, 0
4, 16920, Note_on_c, 1, 41, 80
4, 17016, Note_on_c, 1, 41, 0
4, 17040, Note_on_c, 1, 46, 80
4, 17136, Note_on_c, 1, 46, 0
4, 17160, Note_on_c, 1, 45, 80
4, 17256, Note_on_c, 1, 45, 0
4, 17280, Note_on_c, 1, 41, 80
4, 17376, Note_on_c, 1, 41, 0
4, 17400, Note_on_c, 1, 41, 80
4, 17496, Note_on_c, 1, 41, 0
4, 17520, Note_on_c, 1, 43, 80
4, 17616, Note_on_c, 1, 43, 0
4, 17640, Note_on_c, 1, 41, 80
4, 17736, Note_on_c, 1, 41, 0
4, 17760, Note_on_c, 1, 44, 80
4, 17808, Note_on_c, 1, 44, 0
4, 17820, Note_on_c, 1, 45, 80
4, 17868, Note_on_c, 1, 45, 0
4, 17880, Note_on_c, 1, 41, 80
4, 17976, Note_on_c, 1, 41, 0
4, 18000, Note_on_c, 1, 46, 80
4, 18096, Note_on_c, 1, 46, 0
4, 18120, Note_on_c, 1, 45, 80
4, 18216, Note_on_c, 1, 45, 0
4, 18240, Note_on_c, 1, 41, 80
4, 18336, Note_on_c, 1, 41, 0
4, 18360, Note_on_c, 1, 41, 80
4, 18456, Note_on_c, 1, 41, 0
4, 18480, Note_on_c, 1, 43, 80
4, 18576, Note_on_c, 1, 43, 0
4, 18600, Note_on_c, 1, 41, 80
4, 18696, Note_on_c, 1, 41, 0
4, 18720, Note_on_c, 1, 44, 80
4, 18768, Note_on_c, 1, 44, 0
4, 18780, Note_on_c, 1, 45, 80
4, 18828, Note_on_c, 1, 45, 0
4, 18840, Note_on_c, 1, 41, 80
4, 18936, Note_on_c, 1, 41, 0
4, 18960, Note_on_c, 1, 46, 80
4, 19056, Note_on_c, 1, 46, 0
4, 19080, Note_on_c, 1, 45, 80
4, 19176, Note_on_c, 1, 45, 0
4, 19200, Note_on_c, 1, 41, 80
4, 19296, Note_on_c, 1, 41, 0
4, 19320, Note_on_c, 1, 41, 80
4, 19416, Note_on_c, 1, 41, 0
4, 19440, Note_on_c, 1, 43, 80
4, 19536, Note_on_c, 1, 43, 0
4, 19560, Note_on_c, 1, 41, 80
4, 19656, Note_on_c, 1, 41, 0
4, 19680, Note_on_c, 1, 44, 80
4, 19728, Note_on_c, 1, 44, 0
4, 19740, Note_on_c, 1, 45, 80
4, 19788, Note_on_c, 1, 45, 0
4, 19800, Note_on_c, 1, 41, 80
4, 19896, Note_on_c, 1, 41, 0
4, 19920, Note_on_c, 1, 46, 80
4, 20016, Note_on_c, 1, 46, 0
4, 20040, Note_on_c, 1, 45, 80
4, 20136, Note_on_c, 1, 45, 0
4, 20160, Note_on_c, 1, 41, 80
4, 20256, Note_on_c, 1, 41, 0
4, 20280, Note_on_c, 1, 41, 80
4, 20376, Note_on_c, 1, 41, 0
4, 20400, Note_on_c, 1, 43, 80
4, 20496, Note_on_c, 1, 43, 0
4, 20520, Note_on_c, 1, 41, 80
4, 20616, Note_on_c, 1, 41, 0
4, 20640, Note_on_c, 1, 44, 80
4, 20688, Note_on_c, 1, 44, 0
4, 20700, Note_on_c, 1, 45, 80
4, 20748, Note_on_c, 1, 45, 0
4, 20760, Note_on_c, 1, 41, 80
4, 20856, Note_on_c, 1, 41, 0
4, 20880, Note_on_c, 1, 46, 80
4, 20976, Note_on_c, 1, 46, 0
4, 21000, Note_on_c, 1, 45, 80
4, 21096, Note_on_c, 1, 45, 0
4, 21120, Note_on_c, 1, 41, 80
4, 21216, Note_on_c, 1, 41, 0
4, 21840, Note_on_c, 1, 41, 80
4, 21840, Note_on_c, 1, 29, 80
4, 22032, Note_on_c, 1, 41, 0
4, 22032, Note_on_c, 1, 29, 0
4, 22680, Note_on_c, 1, 48, 80
4, 22680, Note_on_c, 1, 36, 80
4, 22776, Note_on_c, 1, 48, 0
4, 22776, Note_on_c, 1, 36, 0
4, 22800, Note_on_c, 1, 36, 80
4, 22800, Note_on_c, 1, 48, 80
4, 22896, Note_on_c, 1, 36, 0
4, 22896, Note_on_c, 1, 48, 0
4, 24120, Note_on_c, 1, 41, 80
4, 24216, Note_on_c, 1, 41, 0
4, 24240, Note_on_c, 1, 41, 80
4, 24336, Note_on_c, 1, 41, 0
4, 24360, Note_on_c, 1, 41, 80
4, 24456, Note_on_c, 1, 41, 0
4, 24480, Note_on_c, 1, 41, 80
4, 24576, Note_on_c, 1, 41, 0
4, 24600, Note_on_c, 1, 41, 80
4, 24696, Note_on_c, 1, 41, 0
4, 24720, Note_on_c, 1, 41, 80
4, 24816, Note_on_c, 1, 41, 0
4, 24840, Note_on_c, 1, 41, 80
4, 24936, Note_on_c, 1, 41, 0
4, 24960, Note_on_c, 1, 41, 80
4, 25056, Note_on_c, 1, 41, 0
4, 25080, Note_on_c, 1, 41, 80
4, 25176, Note_on_c, 1, 41, 0
4, 25200, Note_on_c, 1, 43, 80
4, 25296, Note_on_c, 1, 43, 0
4, 25320, Note_on_c, 1, 41, 80
4, 25416, Note_on_c, 1, 41, 0
4, 25440, Note_on_c, 1, 44, 80
4, 25488, Note_on_c, 1, 44, 0
4, 25500, Note_on_c, 1, 45, 80
4, 25548, Note_on_c, 1, 45, 0
4, 25560, Note_on_c, 1, 41, 80
4, 25656, Note_on_c, 1, 41, 0
4, 25680, Note_on_c, 1, 46, 80
4, 25776, Note_on_c, 1, 46, 0
4, 25800, Note_on_c, 1, 45, 80
4, 25896, Note_on_c, 1, 45, 0
4, 25920, Note_on_c, 1, 41, 80
4, 26016, Note_on_c, 1, 41, 0
4, 26040, Note_on_c, 1, 41, 80
4, 26136, Note_on_c, 1, 41, 0
4, 26160, Note_on_c, 1, 43, 80
4, 26256, Note_on_c, 1, 43, 0
4, 26280, Note_on_c, 1, 41, 80
4, 26376, Note_on_c, 1, 41, 0
4, 26400, Note_on_c, 1, 44, 80
4, 26448, Note_on_c, 1, 44, 0
4, 26460, Note_on_c, 1, 45, 80
4, 26508, Note_on_c, 1, 45, 0
4, 26520, Note_on_c, 1, 41, 80
4, 26616, Note_on_c, 1, 41, 0
4, 26640, Note_on_c, 1, 46, 80
4, 26736, Note_on_c, 1, 46, 0
4, 26760, Note_on_c, 1, 45, 80
4, 26856, Note_on_c, 1, 45, 0
4, 26880, Note_on_c, 1, 41, 80
4, 26976, Note_on_c, 1, 41, 0
4, 27000, Note_on_c, 1, 41, 80
4, 27096, Note_on_c, 1, 41, 0
4, 27120, Note_on_c, 1, 43, 80
4, 27216, Note_on_c, 1, 43, 0
4, 27240, Note_on_c, 1, 41, 80
4, 27336, Note_on_c, 1, 41, 0
4, 27360, Note_on_c, 1, 44, 80
4, 27408, Note_on_c, 1, 44, 0
4, 27420, Note_on_c, 1, 45, 80
4, 27468, Note_on_c, 1, 45, 0
4, 27480, Note_on_c, 1, 41, 80
4, 27576, Note_on_c, 1, 41, 0
4, 27600, Note_on_c, 1, 46, 80
4, 27696, Note_on_c, 1, 46, 0
4, 27720, Note_on_c, 1, 45, 80
4, 27816, Note_on_c, 1, 45, 0
4, 27840, Note_on_c, 1, 41, 80
4, 27936, Note_on_c, 1, 41, 0
4, 27960, Note_on_c, 1, 41, 80
4, 28056, Note_on_c, 1, 41, 0
4, 28080, Note_on_c, 1, 43, 80
4, 28176, Note_on_c, 1, 43, 0
4, 28200, Note_on_c, 1, 41, 80
4, 28296, Note_on_c, 1, 41, 0
4, 28320, Note_on_c, 1, 44, 80
4, 28368, Note_on_c, 1, 44, 0
4, 28380, Note_on_c, 1, 45, 80
4, 28428, Note_on_c, 1, 45, 0
4, 28440, Note_on_c, 1, 41, 80
4, 28536, Note_on_c, 1, 41, 0
4, 28560, Note_on_c, 1, 46, 80
4, 28656, Note_on_c, 1, 46, 0
4, 28680, Note_on_c, 1, 45, 80
4, 28776, Note_on_c, 1, 45, 0
4, 28800, Note_on_c, 1, 41, 80
4, 28896, Note_on_c, 1, 41, 0
4, 28920, Note_on_c, 1, 41, 80
4, 29016, Note_on_c, 1, 41, 0
4, 29040, Note_on_c, 1, 43, 80
4, 29136, Note_on_c, 1, 43, 0
4, 29160, Note_on_c, 1, 41, 80
4, 29256, Note_on_c, 1, 41, 0
4, 29280, Note_on_c, 1, 44, 80
4, 29328, Note_on_c, 1, 44, 0
4, 29340, Note_on_c, 1, 45, 80
4, 29388, Note_on_c, 1, 45, 0
4, 29400, Note_on_c, 1, 41, 80
4, 29496, Note_on_c, 1, 41, 0
4, 29520, Note_on_c, 1, 46, 80
4, 29616, Note_on_c, 1, 46, 0
4, 29640, Note_on_c, 1, 45, 80
4, 29736, Note_on_c, 1, 45, 0
4, 29760, Note_on_c, 1, 41, 80
4, 29856, Note_on_c, 1, 41, 0
4, 29880, Note_on_c, 1, 41, 80
4, 29976, Note_on_c, 1, 41, 0
4, 30000, Note_on_c, 1, 43, 80
4, 30096, Note_on_c, 1, 43, 0
4, 30120, Note_on_c, 1, 41, 80
4, 30216, Note_on_c, 1, 41, 0
4, 30240, Note_on_c, 1, 44, 80
4, 30288, Note_on_c, 1, 44, 0
4, 30300, Note_on_c, 1, 45, 80
4, 30348, Note_on_c, 1, 45, 0
4, 30360, Note_on_c, 1, 41, 80
4, 30456, Note_on_c, 1, 41, 0
4, 30480, Note_on_c, 1, 46, 80
4, 30576, Note_on_c, 1, 46, 0
4, 30600, Note_on_c, 1, 45, 80
4, 30696, Note_on_c, 1, 45, 0
4, 30720, Note_on_c, 1, 41, 80
4, 30816, Note_on_c, 1, 41, 0
4, 30840, Note_on_c, 1, 41, 80
4, 30936, Note_on_c, 1, 41, 0
4, 30960, Note_on_c, 1, 43, 80
4, 31056, Note_on_c, 1, 43, 0
4, 31080, Note_on_c, 1, 41, 80
4, 31176, Note_on_c, 1, 41, 0
4, 31200, Note_on_c, 1, 44, 80
4, 31248, Note_on_c, 1, 44, 0
4, 31260, Note_on_c, 1, 45, 80
4, 31308, Note_on_c, 1, 45, 0
4, 31320, Note_on_c, 1, 41, 80
4, 31416, Note_on_c, 1, 41, 0
4, 31440, Note_on_c, 1, 46, 80
4, 31536, Note_on_c, 1, 46, 0
4, 31560, Note_on_c, 1, 45, 80
4, 31656, Note_on_c, 1, 45, 0
4, 31680, Note_on_c, 1, 41, 80
4, 31776, Note_on_c, 1, 41, 0
4, 31800, Note_on_c, 1, 41, 80
4, 31896, Note_on_c, 1, 41, 0
4, 31920, Note_on_c, 1, 43, 80
4, 32016, Note_on_c, 1, 43, 0
4, 32040, Note_on_c, 1, 41, 80
4, 32136, Note_on_c, 1, 41, 0
4, 32160, Note_on_c, 1, 44, 80
4, 32208, Note_on_c, 1, 44, 0
4, 32220, Note_on_c, 1, 45, 80
4, 32268, Note_on_c, 1, 45, 0
4, 32280, Note_on_c, 1, 41, 80
4, 32376, Note_on_c, 1, 41, 0
4, 32400, Note_on_c, 1, 46, 80
4, 32496, Note_on_c, 1, 46, 0
4, 32520, Note_on_c, 1, 45, 80
4, 32616, Note_on_c, 1, 45, 0
4, 32640, Note_on_c, 1, 41, 80
4, 32736, Note_on_c, 1, 41, 0
4, 32760, Note_on_c, 1, 41, 80
4, 32856, Note_on_c, 1, 41, 0
4, 32880, Note_on_c, 1, 43, 80
4, 32976, Note_on_c, 1, 43, 0
4, 33000, Note_on_c, 1, 41, 80
4, 33096, Note_on_c, 1, 41, 0
4, 33120, Note_on_c, 1, 44, 80
4, 33168, Note_on_c, 1, 44, 0
4, 33180, Note_on_c, 1, 45, 80
4, 33228, Note_on_c, 1, 45, 0
4, 33240, Note_on_c, 1, 41, 80
4, 33336, Note_on_c, 1, 41, 0
4, 33360, Note_on_c, 1, 46, 80
4, 33456, Note_on_c, 1, 46, 0
4, 33480, Note_on_c, 1, 45, 80
4, 33576, Note_on_c, 1, 45, 0
4, 33600, Note_on_c, 1, 41, 80
4, 33696, Note_on_c, 1, 41, 0
4, 33720, Note_on_c, 1, 41, 80
4, 33816, Note_on_c, 1, 41, 0
4, 33840, Note_on_c, 1, 43, 80
4, 33936, Note_on_c, 1, 43, 0
4, 33960, Note_on_c, 1, 41, 80
4, 34056, Note_on_c, 1, 41, 0
4, 34080, Note_on_c, 1, 44, 80
4, 34128, Note_on_c, 1, 44, 0
4, 34140, Note_on_c, 1, 45, 80
4, 34188, Note_on_c, 1, 45, 0
4, 34200, Note_on_c, 1, 41, 80
4, 34296, Note_on_c, 1, 41, 0
4, 34320, Note_on_c, 1, 46, 80
4, 34416, Note_on_c, 1, 46, 0
4, 34440, Note_on_c, 1, 45, 80
4, 34536, Note_on_c, 1, 45, 0
4, 34560, Note_on_c, 1, 41, 80
4, 34656, Note_on_c, 1, 41, 0
4, 34680, Note_on_c, 1, 41, 80
4, 34776, Note_on_c, 1, 41, 0
4, 34800, Note_on_c, 1, 43, 80
4, 34896, Note_on_c, 1, 43, 0
4, 34920, Note_on_c, 1, 41, 80
4, 35016, Note_on_c, 1, 41, 0
4, 35040, Note_on_c, 1, 44, 80
4, 35088, Note_on_c, 1, 44, 0
4, 35100, Note_on_c, 1, 45, 80
4, 35148, Note_on_c, 1, 45, 0
4, 35160, Note_on_c, 1, 41, 80
4, 35256, Note_on_c, 1, 41, 0
4, 35280, Note_on_c, 1, 46, 80
4, 35376, Note_on_c, 1, 46, 0
4, 35400, Note_on_c, 1, 45, 80
4, 35496, Note_on_c, 1, 45, 0
4, 35520, Note_on_c, 1, 41, 80
4, 35616, Note_on_c, 1, 41, 0
4, 35640, Note_on_c, 1, 41, 80
4, 35736, Note_on_c, 1, 41, 0
4, 35760, Note_on_c, 1, 43, 80
4, 35856, Note_on_c, 1, 43, 0
4, 35880, Note_on_c, 1, 41, 80
4, 35976, Note_on_c, 1, 41, 0
4, 36000, Note_on_c, 1, 44, 80
4, 36048, Note_on_c, 1, 44, 0
4, 36060, Note_on_c, 1, 45, 80
4, 36108, Note_on_c, 1, 45, 0
4, 36120, Note_on_c, 1, 41, 80
4, 36216, Note_on_c, 1, 41, 0
4, 36240, Note_on_c, 1, 46, 80
4, 36336, Note_on_c, 1, 46, 0
4, 36360, Note_on_c, 1, 45, 80
4, 36456, Note_on_c, 1, 45, 0
4, 36480, Note_on_c, 1, 41, 80
4, 36576, Note_on_c, 1, 41, 0
4, 36600, Note_on_c, 1, 41, 80
4, 36696, Note_on_c, 1, 41, 0
4, 36720, Note_on_c, 1, 43, 80
4, 36816, Note_on_c, 1, 43, 0
4, 36840, Note_on_c, 1, 41, 80
4, 36936, Note_on_c, 1, 41, 0
4, 36960, Note_on_c, 1, 44, 80
4, 37008, Note_on_c, 1, 44, 0
4, 37020, Note_on_c, 1, 45, 80
4, 37068, Note_on_c, 1, 45, 0
4, 37080, Note_on_c, 1, 41, 80
4, 37176, Note_on_c, 1, 41, 0
4, 37200, Note_on_c, 1, 46, 80
4, 37296, Note_on_c, 1, 46, 0
4, 37320, Note_on_c, 1, 45, 80
4, 37416, Note_on_c, 1, 45, 0
4, 37440, Note_on_c, 1, 41, 80
4, 37536, Note_on_c, 1, 41, 0
4, 37560, Note_on_c, 1, 41, 80
4, 37656, Note_on_c, 1, 41, 0
4, 37680, Note_on_c, 1, 43, 80
4, 37776, Note_on_c, 1, 43, 0
4, 37800, Note_on_c, 1, 41, 80
4, 37896, Note_on_c, 1, 41, 0
4, 37920, Note_on_c, 1, 44, 80
4, 37968, Note_on_c, 1, 44, 0
4, 37980, Note_on_c, 1, 45, 80
4, 38028, Note_on_c, 1, 45, 0
4, 38040, Note_on_c, 1, 41, 80
4, 38136, Note_on_c, 1, 41, 0
4, 38160, Note_on_c, 1, 46, 80
4, 38256, Note_on_c, 1, 46, 0
4, 38280, Note_on_c, 1, 45, 80
4, 38376, Note_on_c, 1, 45, 0
4, 38400, Note_on_c, 1, 41, 80
4, 38496, Note_on_c, 1, 41, 0
4, 38520, Note_on_c, 1, 41, 80
4, 38616, Note_on_c, 1, 41, 0
4, 38640, Note_on_c, 1, 43, 80
4, 38736, Note_on_c, 1, 43, 0
4, 38760, Note_on_c, 1, 41, 80
4, 38856, Note_on_c, 1, 41, 0
4, 38880, Note_on_c, 1, 44, 80
4, 38928, Note_on_c, 1, 44, 0
4, 38940, Note_on_c, 1, 45, 80
4, 38988, Note_on_c, 1, 45, 0
4, 39000, Note_on_c, 1, 41, 80
4, 39096, Note_on_c, 1, 41, 0
4, 39120, Note_on_c, 1, 46, 80
4, 39216, Note_on_c, 1, 46, 0
4, 39240, Note_on_c, 1, 45, 80
4, 39336, Note_on_c, 1, 45, 0
4, 39360, Note_on_c, 1, 41, 80
4, 39456, Note_on_c, 1, 41, 0
4, 39480, Note_on_c, 1, 41, 80
4, 39576, Note_on_c, 1, 41, 0
4, 39600, Note_on_c, 1, 43, 80
4, 39696, Note_on_c, 1, 43, 0
4, 39720, Note_on_c, 1, 41, 80
4, 39816, Note_on_c, 1, 41, 0
4, 39840, Note_on_c, 1, 44, 80
4, 39888, Note_on_c, 1, 44, 0
4, 39900, Note_on_c, 1, 45, 80
4, 39948, Note_on_c, 1, 45, 0
4, 39960, Note_on_c, 1, 41, 80
4, 40056, Note_on_c, 1, 41, 0
4, 40080, Note_on_c, 1, 46, 80
4, 40176, Note_on_c, 1, 46, 0
4, 40200, Note_on_c, 1, 45, 80
4, 40296, Note_on_c, 1, 45, 0
4, 40320, Note_on_c, 1, 41, 80
4, 40416, Note_on_c, 1, 41, 0
4, 40440, Note_on_c, 1, 41, 80
4, 40536, Note_on_c, 1, 41, 0
4, 40560, Note_on_c, 1, 43, 80
4, 40656, Note_on_c, 1, 43, 0
4, 40680, Note_on_c, 1, 41, 80
4, 40776, Note_on_c, 1, 41, 0
4, 40800, Note_on_c, 1, 44, 80
4, 40848, Note_on_c, 1, 44, 0
4, 40860, Note_on_c, 1, 45, 80
4, 40908, Note_on_c, 1, 45, 0
4, 40920, Note_on_c, 1, 41, 80
4, 41016, Note_on_c, 1, 41, 0
4, 41040, Note_on_c, 1, 46, 80
4, 41136, Note_on_c, 1, 46, 0
4, 41160, Note_on_c, 1, 45, 80
4, 41256, Note_on_c, 1, 45, 0
4, 41280, Note_on_c, 1, 41, 80
4, 41376, Note_on_c, 1, 41, 0
4, 41400, Note_on_c, 1, 41, 80
4, 41496, Note_on_c, 1, 41, 0
4, 41520, Note_on_c, 1, 43, 80
4, 41616, Note_on_c, 1, 43, 0
4, 41640, Note_on_c, 1, 41, 80
4, 41736, Note_on_c, 1, 41, 0
4, 41760, Note_on_c, 1, 44, 80
4, 41808, Note_on_c, 1, 44, 0
4, 41820, Note_on_c, 1, 45, 80
4, 41868, Note_on_c, 1, 45, 0
4, 41880, Note_on_c, 1, 41, 80
4, 41976, Note_on_c, 1, 41, 0
4, 42000, Note_on_c, 1, 46, 80
4, 42096, Note_on_c, 1, 46, 0
4, 42120, Note_on_c, 1, 45, 80
4, 42216, Note_on_c, 1, 45, 0
4, 42240, Note_on_c, 1, 41, 80
4, 42336, Note_on_c, 1, 41, 0
4, 42360, Note_on_c, 1, 41, 80
4, 42456, Note_on_c, 1, 41, 0
4, 42480, Note_on_c, 1, 43, 80
4, 42576, Note_on_c, 1, 43, 0
4, 42600, Note_on_c, 1, 41, 80
4, 42696, Note_on_c, 1, 41, 0
4, 42720, Note_on_c, 1, 44, 80
4, 42768, Note_on_c, 1, 44, 0
4, 42780, Note_on_c, 1, 45, 80
4, 42828, Note_on_c, 1, 45, 0
4, 42840, Note_on_c, 1, 41, 80
4, 42936, Note_on_c, 1, 41, 0
4, 42960, Note_on_c, 1, 46, 80
4, 43056, Note_on_c, 1, 46, 0
4, 43080, Note_on_c, 1, 45, 80
4, 43176, Note_on_c, 1, 45, 0
4, 43200, Note_on_c, 1, 41, 80
4, 43296, Note_on_c, 1, 41, 0
4, 43320, Note_on_c, 1, 41, 80
4, 43416, Note_on_c, 1, 41, 0
4, 43440, Note_on_c, 1, 43, 80
4, 43536, Note_on_c, 1, 43, 0
4, 43560, Note_on_c, 1, 41, 80
4, 43656, Note_on_c, 1, 41, 0
4, 43680, Note_on_c, 1, 44, 80
4, 43728, Note_on_c, 1, 44, 0
4, 43740, Note_on_c, 1, 45, 80
4, 43788, Note_on_c, 1, 45, 0
4, 43800, Note_on_c, 1, 41, 80
4, 43896, Note_on_c, 1, 41, 0
4, 43920, Note_on_c, 1, 46, 80
4, 44016, Note_on_c, 1, 46, 0
4, 44040, Note_on_c, 1, 45, 80
4, 44136, Note_on_c, 1, 45, 0
4, 44160, Note_on_c, 1, 41, 80
4, 44256, Note_on_c, 1, 41, 0
4, 44280, Note_on_c, 1, 41, 80
4, 44376, Note_on_c, 1, 41, 0
4, 44400, Note_on_c, 1, 43, 80
4, 44496, Note_on_c, 1, 43, 0
4, 44520, Note_on_c, 1, 41, 80
4, 44616, Note_on_c, 1, 41, 0
4, 44640, Note_on_c, 1, 44, 80
4, 44688, Note_on_c, 1, 44, 0
4, 44700, Note_on_c, 1, 45, 80
4, 44748, Note_on_c, 1, 45, 0
4, 44760, Note_on_c, 1, 41, 80
4, 44856, Note_on_c, 1, 41, 0
4, 44880, Note_on_c, 1, 46, 80
4, 44976, Note_on_c, 1, 46, 0
4, 45000, Note_on_c, 1, 45, 80
4, 45096, Note_on_c, 1, 45, 0
4, 45120, Note_on_c, 1, 41, 80
4, 45216, Note_on_c, 1, 41, 0
4, 45240, Note_on_c, 1, 41, 80
4, 45336, Note_on_c, 1, 41, 0
4, 45360, Note_on_c, 1, 43, 80
4, 45456, Note_on_c, 1, 43, 0
4, 45480, Note_on_c, 1, 41, 80
4, 45576, Note_on_c, 1, 41, 0
4, 45600, Note_on_c, 1, 44, 80
4, 45648, Note_on_c, 1, 44, 0
4, 45660, Note_on_c, 1, 45, 80
4, 45708, Note_on_c, 1, 45, 0
4, 45720, Note_on_c, 1, 41, 80
4, 45816, Note_on_c, 1, 41, 0
4, 45840, Note_on_c, 1, 46, 80
4, 45936, Note_on_c, 1, 46, 0
4, 45960, Note_on_c, 1, 45, 80
4, 46056, Note_on_c, 1, 45, 0
4, 46080, Note_on_c, 1, 41, 80
4, 46176, Note_on_c, 1, 41, 0
4, 46200, Note_on_c, 1, 41, 80
4, 46296, Note_on_c, 1, 41, 0
4, 46320, Note_on_c, 1, 43, 80
4, 46416, Note_on_c, 1, 43, 0
4, 46440, Note_on_c, 1, 41, 80
4, 46536, Note_on_c, 1, 41, 0
4, 46560, Note_on_c, 1, 44, 80
4, 46608, Note_on_c, 1, 44, 0
4, 46620, Note_on_c, 1, 45, 80
4, 46668, Note_on_c, 1, 45, 0
4, 46680, Note_on_c, 1, 41, 80
4, 46776, Note_on_c, 1, 41, 0
4, 46800, Note_on_c, 1, 46, 80
4, 46896, Note_on_c, 1, 46, 0
4, 46920, Note_on_c, 1, 45, 80
4, 47016, Note_on_c, 1, 45, 0
4, 47040, Note_on_c, 1, 41, 80
4, 47136, Note_on_c, 1, 41, 0
4, 47160, Note_on_c, 1, 41, 80
4, 47256, Note_on_c, 1, 41, 0
4, 47280, Note_on_c, 1, 43, 80
4, 47376, Note_on_c, 1, 43, 0
4, 47400, Note_on_c, 1, 41, 80
4, 47496, Note_on_c, 1, 41, 0
4, 47520, Note_on_c, 1, 44, 80
4, 47568, Note_on_c, 1, 44, 0
4, 47580, Note_on_c, 1, 45, 80
4, 47628, Note_on_c, 1, 45, 0
4, 47640, Note_on_c, 1, 41, 80
4, 47736, Note_on_c, 1, 41, 0
4, 47760, Note_on_c, 1, 46, 80
4, 47856, Note_on_c, 1, 46, 0
4, 47880, Note_on_c, 1, 45, 80
4, 47976, Note_on_c, 1, 45, 0
4, 48000, Note_on_c, 1, 41, 80
4, 48096, Note_on_c, 1, 41, 0
4, 48120, Note_on_c, 1, 41, 80
4, 48216, Note_on_c, 1, 41, 0
4, 48240, Note_on_c, 1, 43, 80
4, 48336, Note_on_c, 1, 43, 0
4, 48360, Note_on_c, 1, 41, 80
4, 48456, Note_on_c, 1, 41, 0
4, 48480, Note_on_c, 1, 44, 80
4, 48528, Note_on_c, 1, 44, 0
4, 48540, Note_on_c, 1, 45, 80
4, 48588, Note_on_c, 1, 45, 0
4, 48600, Note_on_c, 1, 41, 80
4, 48696, Note_on_c, 1, 41, 0
4, 48720, Note_on_c, 1, 46, 80
4, 48816, Note_on_c, 1, 46, 0
4, 48840, Note_on_c, 1, 45, 80
4, 48936, Note_on_c, 1, 45, 0
4, 48960, Note_on_c, 1, 41, 80
4, 49056, Note_on_c, 1, 41, 0
4, 49080, Note_on_c, 1, 41, 80
4, 49176, Note_on_c, 1, 41, 0
4, 49200, Note_on_c, 1, 43, 80
4, 49296, Note_on_c, 1, 43, 0
4, 49320, Note_on_c, 1, 41, 80
4, 49416, Note_on_c, 1, 41, 0
4, 49440, Note_on_c, 1, 44, 80
4, 49488, Note_on_c, 1, 44, 0
4, 49500, Note_on_c, 1, 45, 80
4, 49548, Note_on_c, 1, 45, 0
4, 49560, Note_on_c, 1, 41, 80
4, 49656, Note_on_c, 1, 41, 0
4, 49680, Note_on_c, 1, 46, 80
4, 49776, Note_on_c, 1, 46, 0
4, 49800, Note_on_c, 1, 45, 80
4, 49896, Note_on_c, 1, 45, 0
4, 49920, Note_on_c, 1, 41, 80
4, 50016, Note_on_c, 1, 41, 0
4, 50040, Note_on_c, 1, 41, 80
4, 50136, Note_on_c, 1, 41, 0
4, 50160, Note_on_c, 1, 43, 80
4, 50256, Note_on_c, 1, 43, 0
4, 50280, Note_on_c, 1, 41, 80
4, 50376, Note_on_c, 1, 41, 0
4, 50400, Note_on_c, 1, 44, 80
4, 50448, Note_on_c, 1, 44, 0
4, 50460, Note_on_c, 1, 45, 80
4, 50508, Note_on_c, 1, 45, 0
4, 50520, Note_on_c, 1, 41, 80
4, 50616, Note_on_c, 1, 41, 0
4, 50640, Note_on_c, 1, 46, 80
4, 50736, Note_on_c, 1, 46, 0
4, 50760, Note_on_c, 1, 45, 80
4, 50856, Note_on_c, 1, 45, 0
4, 50880, Note_on_c, 1, 41, 80
4, 50976, Note_on_c, 1, 41, 0
4, 51000, Note_on_c, 1, 41, 80
4, 51096, Note_on_c, 1, 41, 0
4, 51120, Note_on_c, 1, 43, 80
4, 51216, Note_on_c, 1, 43, 0
4, 51240, Note_on_c, 1, 41, 80
4, 51336, Note_on_c, 1, 41, 0
4, 51360, Note_on_c, 1, 44, 80
4, 51408, Note_on_c, 1, 44, 0
4, 51420, Note_on_c, 1, 45, 80
4, 51468, Note_on_c, 1, 45, 0
4, 51480, Note_on_c, 1, 41, 80
4, 51576, Note_on_c, 1, 41, 0
4, 51600, Note_on_c, 1, 46, 80
4, 51696, Note_on_c, 1, 46, 0
4, 51720, Note_on_c, 1, 45, 80
4, 51816, Note_on_c, 1, 45, 0
4, 51840, Note_on_c, 1, 41, 80
4, 51936, Note_on_c, 1, 41, 0
4, 51960, Note_on_c, 1, 41, 80
4, 52056, Note_on_c, 1, 41, 0
4, 52080, Note_on_c, 1, 43, 80
4, 52176, Note_on_c, 1, 43, 0
4, 52200, Note_on_c, 1, 41, 80
4, 52296, Note_on_c, 1, 41, 0
4, 52320, Note_on_c, 1, 44, 80
4, 52368, Note_on_c, 1, 44, 0
4, 52380, Note_on_c, 1, 45, 80
4, 52428, Note_on_c, 1, 45, 0
4, 52440, Note_on_c, 1, 41, 80
4, 52536, Note_on_c, 1, 41, 0
4, 52560, Note_on_c, 1, 46, 80
4, 52656, Note_on_c, 1, 46, 0
4, 52680, Note_on_c, 1, 45, 80
4, 52776, Note_on_c, 1, 45, 0
4, 52800, Note_on_c, 1, 41, 80
4, 52896, Note_on_c, 1, 41, 0
4, 52920, Note_on_c, 1, 41, 80
4, 53016, Note_on_c, 1, 41, 0
4, 53040, Note_on_c, 1, 43, 80
4, 53136, Note_on_c, 1, 43, 0
4, 53160, Note_on_c, 1, 41, 80
4, 53256, Note_on_c, 1, 41, 0
4, 53280, Note_on_c, 1, 44, 80
4, 53328, Note_on_c, 1, 44, 0
4, 53340, Note_on_c, 1, 45, 80
4, 53388, Note_on_c, 1, 45, 0
4, 53400, Note_on_c, 1, 41, 80
4, 53496, Note_on_c, 1, 41, 0
4, 53520, Note_on_c, 1, 46, 80
4, 53616, Note_on_c, 1, 46, 0
4, 53640, Note_on_c, 1, 45, 80
4, 53736, Note_on_c, 1, 45, 0
4, 53760, Note_on_c, 1, 41, 80
4, 53856, Note_on_c, 1, 41, 0
4, 53880, Note_on_c, 1, 41, 80
4, 53976, Note_on_c, 1, 41, 0
4, 54000, Note_on_c, 1, 43, 80
4, 54096, Note_on_c, 1, 43, 0
4, 54120, Note_on_c, 1, 41, 80
4, 54216, Note_on_c, 1, 41, 0
4, 54240, Note_on_c, 1, 44, 80
4, 54288, Note_on_c, 1, 44, 0
4, 54300, Note_on_c, 1, 45, 80
4, 54348, Note_on_c, 1, 45, 0
4, 54360, Note_on_c, 1, 41, 80
4, 54456, Note_on_c, 1, 41, 0
4, 54480, Note_on_c, 1, 46, 80
4, 54576, Note_on_c, 1, 46, 0
4, 54600, Note_on_c, 1, 45, 80
4, 54696, Note_on_c, 1, 45, 0
4, 54720, Note_on_c, 1, 41, 80
4, 54816, Note_on_c, 1, 41, 0
4, 54840, Note_on_c, 1, 41, 80
4, 54936, Note_on_c, 1, 41, 0
4, 54960, Note_on_c, 1, 43, 80
4, 55056, Note_on_c, 1, 43, 0
4, 55080, Note_on_c, 1, 41, 80
4, 55176, Note_on_c, 1, 41, 0
4, 55200, Note_on_c, 1, 44, 80
4, 55248, Note_on_c, 1, 44, 0
4, 55260, Note_on_c, 1, 45, 80
4, 55308, Note_on_c, 1, 45, 0
4, 55320, Note_on_c, 1, 41, 80
4, 55416, Note_on_c, 1, 41, 0
4, 55440, Note_on_c, 1, 46, 80
4, 55536, Note_on_c, 1, 46, 0
4, 55560, Note_on_c, 1, 45, 80
4, 55656, Note_on_c, 1, 45, 0
4, 55680, Note_on_c, 1, 41, 80
4, 55776, Note_on_c, 1, 41, 0
4, 55800, Note_on_c, 1, 41, 80
4, 55896, Note_on_c, 1, 41, 0
4, 55920, Note_on_c, 1, 43, 80
4, 56016, Note_on_c, 1, 43, 0
4, 56040, Note_on_c, 1, 41, 80
4, 56136, Note_on_c, 1, 41, 0
4, 56160, Note_on_c, 1, 44, 80
4, 56208, Note_on_c, 1, 44, 0
4, 56220, Note_on_c, 1, 45, 80
4, 56268, Note_on_c, 1, 45, 0
4, 56280, Note_on_c, 1, 41, 80
4, 56376, Note_on_c, 1, 41, 0
4, 56400, Note_on_c, 1, 46, 80
4, 56496, Note_on_c, 1, 46, 0
4, 56520, Note_on_c, 1, 45, 80
4, 56616, Note_on_c, 1, 45, 0
4, 56640, Note_on_c, 1, 41, 80
4, 56736, Note_on_c, 1, 41, 0
4, 56760, Note_on_c, 1, 41, 80
4, 56856, Note_on_c, 1, 41, 0
4, 56880, Note_on_c, 1, 43, 80
4, 56976, Note_on_c, 1, 43, 0
4, 57000, Note_on_c, 1, 41, 80
4, 57096, Note_on_c, 1, 41, 0
4, 57120, Note_on_c, 1, 44, 80
4, 57168, Note_on_c, 1, 44, 0
4, 57180, Note_on_c, 1, 45, 80
4, 57228, Note_on_c, 1, 45, 0
4, 57240, Note_on_c, 1, 41, 80
4, 57336, Note_on_c, 1, 41, 0
4, 57360, Note_on_c, 1, 46, 80
4, 57456, Note_on_c, 1, 46, 0
4, 57480, Note_on_c, 1, 45, 80
4, 57576, Note_on_c, 1, 45, 0
4, 57600, Note_on_c, 1, 49, 80
4, 57792, Note_on_c, 1, 49, 0
4, 57840, Note_on_c, 1, 49, 80
4, 58032, Note_on_c, 1, 49, 0
4, 58080, Note_on_c, 1, 49, 80
4, 58272, Note_on_c, 1, 49, 0
4, 58320, Note_on_c, 1, 49, 80
4, 58512, Note_on_c, 1, 49, 0
4, 58560, Note_on_c, 1, 49, 80
4, 58752, Note_on_c, 1, 49, 0
4, 58800, Note_on_c, 1, 49, 80
4, 58992, Note_on_c, 1, 49, 0
4, 59040, Note_on_c, 1, 49, 80
4, 59232, Note_on_c, 1, 49, 0
4, 59280, Note_on_c, 1, 49, 80
4, 59376, Note_on_c, 1, 49, 0
4, 59400, Note_on_c, 1, 48, 80
4, 60288, Note_on_c, 1, 48, 0
4, 60288, End_track
5, 0, Start_track
5, 0, Title_t, "Percussion"
5, 0, MIDI_port, 0
5, 0, Program_c, 9, 0
5, 0, Control_c, 9, 7, 126
5, 0, Note_on_c, 9, 35, 80
5, 0, Note_on_c, 9, 41, 80
5, 192, Note_on_c, 9, 35, 0
5, 192, Note_on_c, 9, 41, 0
5, 240, Note_on_c, 9, 38, 80
5, 432, Note_on_c, 9, 38, 0
5, 480, Note_on_c, 9, 35, 80
5, 480, Note_on_c, 9, 41, 80
5, 576, Note_on_c, 9, 35, 0
5, 576, Note_on_c, 9, 41, 0
5, 600, Note_on_c, 9, 35, 80
5, 600, Note_on_c, 9, 41, 80
5, 696, Note_on_c, 9, 35, 0
5, 696, Note_on_c, 9, 41, 0
5, 720, Note_on_c, 9, 38, 80
5, 912, Note_on_c, 9, 38, 0
5, 960, Note_on_c, 9, 41, 80
5, 960, Note_on_c, 9, 35, 80
5, 1152, Note_on_c, 9, 41, 0
5, 1152, Note_on_c, 9, 35, 0
5, 1200, Note_on_c, 9, 38, 80
5, 1392, Note_on_c, 9, 38, 0
5, 1440, Note_on_c, 9, 41, 80
5, 1440, Note_on_c, 9, 35, 80
5, 1536, Note_on_c, 9, 41, 0
5, 1536, Note_on_c, 9, 35, 0
5, 1560, Note_on_c, 9, 41, 80
5, 1560, Note_on_c, 9, 35, 80
5, 1656, Note_on_c, 9, 41, 0
5, 1656, Note_on_c, 9, 35, 0
5, 1680, Note_on_c, 9, 38, 80
5, 1872, Note_on_c, 9, 38, 0
5, 1920, Note_on_c, 9, 41, 80
5, 1920, Note_on_c, 9, 35, 80
5, 2112, Note_on_c, 9, 41, 0
5, 2112, Note_on_c, 9, 35, 0
5, 2160, Note_on_c, 9, 38, 80
5, 2352, Note_on_c, 9, 38, 0
5, 2400, Note_on_c, 9, 41, 80
5, 2400, Note_on_c, 9, 35, 80
5, 2496, Note_on_c, 9, 41, 0
5, 2496, Note_on_c, 9, 35, 0
5, 2520, Note_on_c, 9, 41, 80
5, 2520, Note_on_c, 9, 35, 80
5, 2616, Note_on_c, 9, 41, 0
5, 2616, Note_on_c, 9, 35, 0
5, 2640, Note_on_c, 9, 38, 80
5, 2832, Note_on_c, 9, 38, 0
5, 2880, Note_on_c, 9, 41, 80
5, 2880, Note_on_c, 9, 35, 80
5, 3072, Note_on_c, 9, 41, 0
5, 3072, Note_on_c, 9, 35, 0
5, 3120, Note_on_c, 9, 38, 80
5, 3312, Note_on_c, 9, 38, 0
5, 3360, Note_on_c, 9, 41, 80
5, 3360, Note_on_c, 9, 35, 80
5, 3456, Note_on_c, 9, 41, 0
5, 3456, Note_on_c, 9, 35, 0
5, 3480, Note_on_c, 9, 41, 80
5, 3480, Note_on_c, 9, 35, 80
5, 3576, Note_on_c, 9, 41, 0
5, 3576, Note_on_c, 9, 35, 0
5, 3600, Note_on_c, 9, 38, 80
5, 3792, Note_on_c, 9, 38, 0
5, 3840, Note_on_c, 9, 41, 80
5, 3840, Note_on_c, 9, 35, 80
5, 4032, Note_on_c, 9, 41, 0
5, 4032, Note_on_c, 9, 35, 0
5, 4080, Note_on_c, 9, 38, 80
5, 4272, Note_on_c, 9, 38, 0
5, 4320, Note_on_c, 9, 41, 80
5, 4320, Note_on_c, 9, 35, 80
5, 4416, Note_on_c, 9, 41, 0
5, 4416, Note_on_c, 9, 35, 0
5, 4440, Note_on_c, 9, 41, 80
5, 4440, Note_on_c, 9, 35, 80
5, 4536, Note_on_c, 9, 41, 0
5, 4536, Note_on_c, 9, 35, 0
5, 4560, Note_on_c, 9, 38, 80
5, 4752, Note_on_c, 9, 38, 0
5, 4800, Note_on_c, 9, 35, 80
5, 4800, Note_on_c, 9, 41, 80
5, 4992, Note_on_c, 9, 35, 0
5, 4992, Note_on_c, 9, 41, 0
5, 5040, Note_on_c, 9, 38, 80
5, 5040, Note_on_c, 9, 44, 80
5, 5040, Note_on_c, 9, 46, 80
5, 5040, Note_on_c, 9, 49, 80
5, 5232, Note_on_c, 9, 38, 0
5, 5232, Note_on_c, 9, 44, 0
5, 5232, Note_on_c, 9, 46, 0
5, 5232, Note_on_c, 9, 49, 0
5, 5280, Note_on_c, 9, 38, 80
5, 5280, Note_on_c, 9, 35, 80
5, 5280, Note_on_c, 9, 41, 80
5, 5328, Note_on_c, 9, 38, 0
5, 5328, Note_on_c, 9, 35, 0
5, 5328, Note_on_c, 9, 41, 0
5, 5340, Note_on_c, 9, 38, 80
5, 5340, Note_on_c, 9, 41, 80
5, 5388, Note_on_c, 9, 38, 0
5, 5388, Note_on_c, 9, 41, 0
5, 5400, Note_on_c, 9, 35, 80
5, 5400, Note_on_c, 9, 38, 80
5, 5400, Note_on_c, 9, 41, 80
5, 5448, Note_on_c, 9, 35, 0
5, 5448, Note_on_c, 9, 38, 0
5, 5448, Note_on_c, 9, 41, 0
5, 5460, Note_on_c, 9, 41, 80
5, 5460, Note_on_c, 9, 38, 80
5, 5508, Note_on_c, 9, 41, 0
5, 5508, Note_on_c, 9, 38, 0
5, 5520, Note_on_c, 9, 38, 80
5, 5520, Note_on_c, 9, 41, 80
5, 5568, Note_on_c, 9, 38, 0
5, 5568, Note_on_c, 9, 41, 0
5, 5580, Note_on_c, 9, 41, 80
5, 5580, Note_on_c, 9, 38, 80
5, 5628, Note_on_c, 9, 41, 0
5, 5628, Note_on_c, 9, 38, 0
5, 5640, Note_on_c, 9, 38, 80
5, 5640, Note_on_c, 9, 41, 80
5, 5688, Note_on_c, 9, 38, 0
5, 5688, Note_on_c, 9, 41, 0
5, 5700, Note_on_c, 9, 38, 80
5, 5700, Note_on_c, 9, 41, 80
5, 5748, Note_on_c, 9, 38, 0
5, 5748, Note_on_c, 9, 41, 0
5, 5760, Note_on_c, 9, 41, 80
5, 5760, Note_on_c, 9, 35, 80
5, 5952, Note_on_c, 9, 41, 0
5, 5952, Note_on_c, 9, 35, 0
5, 6000, Note_on_c, 9, 38, 80
5, 6192, Note_on_c, 9, 38, 0
5, 6240, Note_on_c, 9, 41, 80
5, 6240, Note_on_c, 9, 35, 80
5, 6336, Note_on_c, 9, 41, 0
5, 6336, Note_on_c, 9, 35, 0
5, 6360, Note_on_c, 9, 41, 80
5, 6360, Note_on_c, 9, 35, 80
5, 6456, Note_on_c, 9, 41, 0
5, 6456, Note_on_c, 9, 35, 0
5, 6480, Note_on_c, 9, 38, 80
5, 6672, Note_on_c, 9, 38, 0
5, 6720, Note_on_c, 9, 41, 80
5, 6720, Note_on_c, 9, 35, 80
5, 6912, Note_on_c, 9, 41, 0
5, 6912, Note_on_c, 9, 35, 0
5, 6960, Note_on_c, 9, 38, 80
5, 7152, Note_on_c, 9, 38, 0
5, 7200, Note_on_c, 9, 41, 80
5, 7200, Note_on_c, 9, 35, 80
5, 7296, Note_on_c, 9, 41, 0
5, 7296, Note_on_c, 9, 35, 0
5, 7320, Note_on_c, 9, 41, 80
5, 7320, Note_on_c, 9, 35, 80
5, 7416, Note_on_c, 9, 41, 0
5, 7416, Note_on_c, 9, 35, 0
5, 7440, Note_on_c, 9, 38, 80
5, 7632, Note_on_c, 9, 38, 0
5, 7680, Note_on_c, 9, 41, 80
5, 7680, Note_on_c, 9, 35, 80
5, 7872, Note_on_c, 9, 41, 0
5, 7872, Note_on_c, 9, 35, 0
5, 7920, Note_on_c, 9, 38, 80
5, 8112, Note_on_c, 9, 38, 0
5, 8160, Note_on_c, 9, 41, 80
5, 8160, Note_on_c, 9, 35, 80
5, 8256, Note_on_c, 9, 41, 0
5, 8256, Note_on_c, 9, 35, 0
5, 8280, Note_on_c, 9, 41, 80
5, 8280, Note_on_c, 9, 35, 80
5, 8376, Note_on_c, 9, 41, 0
5, 8376, Note_on_c, 9, 35, 0
5, 8400, Note_on_c, 9, 38, 80
5, 8592, Note_on_c, 9, 38, 0
5, 8640, Note_on_c, 9, 41, 80
5, 8640, Note_on_c, 9, 35, 80
5, 8832, Note_on_c, 9, 41, 0
5, 8832, Note_on_c, 9, 35, 0
5, 8880, Note_on_c, 9, 38, 80
5, 9072, Note_on_c, 9, 38, 0
5, 9120, Note_on_c, 9, 41, 80
5, 9120, Note_on_c, 9, 35, 80
5, 9216, Note_on_c, 9, 41, 0
5, 9216, Note_on_c, 9, 35, 0
5, 9240, Note_on_c, 9, 41, 80
5, 9240, Note_on_c, 9, 35, 80
5, 9336, Note_on_c, 9, 41, 0
5, 9336, Note_on_c, 9, 35, 0
5, 9360, Note_on_c, 9, 38, 80
5, 9552, Note_on_c, 9, 38, 0
5, 9600, Note_on_c, 9, 41, 80
5, 9600, Note_on_c, 9, 35, 80
5, 9792, Note_on_c, 9, 41, 0
5, 9792, Note_on_c, 9, 35, 0
5, 9840, Note_on_c, 9, 38, 80
5, 10032, Note_on_c, 9, 38, 0
5, 10080, Note_on_c, 9, 41, 80
5, 10080, Note_on_c, 9, 35, 80
5, 10176, Note_on_c, 9, 41, 0
5, 10176, Note_on_c, 9, 35, 0
5, 10200, Note_on_c, 9, 41, 80
5, 10200, Note_on_c, 9, 35, 80
5, 10296, Note_on_c, 9, 41, 0
5, 10296, Note_on_c, 9, 35, 0
5, 10320, Note_on_c, 9, 38, 80
5, 10512, Note_on_c, 9, 38, 0
5, 10560, Note_on_c, 9, 41, 80
5, 10560, Note_on_c, 9, 35, 80
5, 10752, Note_on_c, 9, 41, 0
5, 10752, Note_on_c, 9, 35, 0
5, 10800, Note_on_c, 9, 38, 80
5, 10992, Note_on_c, 9, 38, 0
5, 11040, Note_on_c, 9, 41, 80
5, 11040, Note_on_c, 9, 35, 80
5, 11136, Note_on_c, 9, 41, 0
5, 11136, Note_on_c, 9, 35, 0
5, 11160, Note_on_c, 9, 41, 80
5, 11160, Note_on_c, 9, 35, 80
5, 11256, Note_on_c, 9, 41, 0
5, 11256, Note_on_c, 9, 35, 0
5, 11280, Note_on_c, 9, 38, 80
5, 11472, Note_on_c, 9, 38, 0
5, 11520, Note_on_c, 9, 41, 80
5, 11520, Note_on_c, 9, 35, 80
5, 11712, Note_on_c, 9, 41, 0
5, 11712, Note_on_c, 9, 35, 0
5, 11760, Note_on_c, 9, 38, 80
5, 11952, Note_on_c, 9, 38, 0
5, 12000, Note_on_c, 9, 41, 80
5, 12000, Note_on_c, 9, 35, 80
5, 12096, Note_on_c, 9, 41, 0
5, 12096, Note_on_c, 9, 35, 0
5, 12120, Note_on_c, 9, 41, 80
5, 12120, Note_on_c, 9, 35, 80
5, 12216, Note_on_c, 9, 41, 0
5, 12216, Note_on_c, 9, 35, 0
5, 12240, Note_on_c, 9, 38, 80
5, 12432, Note_on_c, 9, 38, 0
5, 12480, Note_on_c, 9, 41, 80
5, 12480, Note_on_c, 9, 35, 80
5, 12672, Note_on_c, 9, 41, 0
5, 12672, Note_on_c, 9, 35, 0
5, 12720, Note_on_c, 9, 49, 80
5, 12720, Note_on_c, 9, 46, 80
5, 12720, Note_on_c, 9, 44, 80
5, 12720, Note_on_c, 9, 38, 80
5, 12912, Note_on_c, 9, 49, 0
5, 12912, Note_on_c, 9, 46, 0
5, 12912, Note_on_c, 9, 44, 0
5, 12912, Note_on_c, 9, 38, 0
5, 12960, Note_on_c, 9, 41, 80
5, 12960, Note_on_c, 9, 35, 80
5, 12960, Note_on_c, 9, 38, 80
5, 13008, Note_on_c, 9, 41, 0
5, 13008, Note_on_c, 9, 35, 0
5, 13008, Note_on_c, 9, 38, 0
5, 13020, Note_on_c, 9, 41, 80
5, 13020, Note_on_c, 9, 38, 80
5, 13068, Note_on_c, 9, 41, 0
5, 13068, Note_on_c, 9, 38, 0
5, 13080, Note_on_c, 9, 41, 80
5, 13080, Note_on_c, 9, 38, 80
5, 13080, Note_on_c, 9, 35, 80
5, 13128, Note_on_c, 9, 41, 0
5, 13128, Note_on_c, 9, 38, 0
5, 13128, Note_on_c, 9, 35, 0
5, 13140, Note_on_c, 9, 38, 80
5, 13140, Note_on_c, 9, 41, 80
5, 13188, Note_on_c, 9, 38, 0
5, 13188, Note_on_c, 9, 41, 0
5, 13200, Note_on_c, 9, 41, 80
5, 13200, Note_on_c, 9, 38, 80
5, 13248, Note_on_c, 9, 41, 0
5, 13248, Note_on_c, 9, 38, 0
5, 13260, Note_on_c, 9, 38, 80
5, 13260, Note_on_c, 9, 41, 80
5, 13308, Note_on_c, 9, 38, 0
5, 13308, Note_on_c, 9, 41, 0
5, 13320, Note_on_c, 9, 41, 80
5, 13320, Note_on_c, 9, 38, 80
5, 13368, Note_on_c, 9, 41, 0
5, 13368, Note_on_c, 9, 38, 0
5, 13380, Note_on_c, 9, 41, 80
5, 13380, Note_on_c, 9, 38, 80
5, 13428, Note_on_c, 9, 41, 0
5, 13428, Note_on_c, 9, 38, 0
5, 13440, Note_on_c, 9, 41, 80
5, 13440, Note_on_c, 9, 35, 80
5, 13632, Note_on_c, 9, 41, 0
5, 13632, Note_on_c, 9, 35, 0
5, 13680, Note_on_c, 9, 38, 80
5, 13872, Note_on_c, 9, 38, 0
5, 13920, Note_on_c, 9, 41, 80
5, 13920, Note_on_c, 9, 35, 80
5, 14016, Note_on_c, 9, 41, 0
5, 14016, Note_on_c, 9, 35, 0
5, 14040, Note_on_c, 9, 41, 80
5, 14040, Note_on_c, 9, 35, 80
5, 14136, Note_on_c, 9, 41, 0
5, 14136, Note_on_c, 9, 35, 0
5, 14160, Note_on_c, 9, 38, 80
5, 14352, Note_on_c, 9, 38, 0
5, 14400, Note_on_c, 9, 41, 80
5, 14400, Note_on_c, 9, 35, 80
5, 14592, Note_on_c, 9, 41, 0
5, 14592, Note_on_c, 9, 35, 0
5, 14640, Note_on_c, 9, 38, 80
5, 14832, Note_on_c, 9, 38, 0
5, 14880, Note_on_c, 9, 41, 80
5, 14880, Note_on_c, 9, 35, 80
5, 14976, Note_on_c, 9, 41, 0
5, 14976, Note_on_c, 9, 35, 0
5, 15000, Note_on_c, 9, 41, 80
5, 15000, Note_on_c, 9, 35, 80
5, 15096, Note_on_c, 9, 41, 0
5, 15096, Note_on_c, 9, 35, 0
5, 15120, Note_on_c, 9, 38, 80
5, 15312, Note_on_c, 9, 38, 0
5, 15360, Note_on_c, 9, 41, 80
5, 15360, Note_on_c, 9, 35, 80
5, 15552, Note_on_c, 9, 41, 0
5, 15552, Note_on_c, 9, 35, 0
5, 15600, Note_on_c, 9, 38, 80
5, 15792, Note_on_c, 9, 38, 0
5, 15840, Note_on_c, 9, 41, 80
5, 15840, Note_on_c, 9, 35, 80
5, 15936, Note_on_c, 9, 41, 0
5, 15936, Note_on_c, 9, 35, 0
5, 15960, Note_on_c, 9, 41, 80
5, 15960, Note_on_c, 9, 35, 80
5, 16056, Note_on_c, 9, 41, 0
5, 16056, Note_on_c, 9, 35, 0
5, 16080, Note_on_c, 9, 38, 80
5, 16272, Note_on_c, 9, 38, 0
5, 16320, Note_on_c, 9, 41, 80
5, 16320, Note_on_c, 9, 35, 80
5, 16512, Note_on_c, 9, 41, 0
5, 16512, Note_on_c, 9, 35, 0
5, 16560, Note_on_c, 9, 38, 80
5, 16752, Note_on_c, 9, 38, 0
5, 16800, Note_on_c, 9, 41, 80
5, 16800, Note_on_c, 9, 35, 80
5, 16896, Note_on_c, 9, 41, 0
5, 16896, Note_on_c, 9, 35, 0
5, 16920, Note_on_c, 9, 41, 80
5, 16920, Note_on_c, 9, 35, 80
5, 17016, Note_on_c, 9, 41, 0
5, 17016, Note_on_c, 9, 35, 0
5, 17040, Note_on_c, 9, 38, 80
5, 17232, Note_on_c, 9, 38, 0
5, 17280, Note_on_c, 9, 41, 80
5, 17280, Note_on_c, 9, 35, 80
5, 17472, Note_on_c, 9, 41, 0
5, 17472, Note_on_c, 9, 35, 0
5, 17520, Note_on_c, 9, 38, 80
5, 17712, Note_on_c, 9, 38, 0
5, 17760, Note_on_c, 9, 41, 80
5, 17760, Note_on_c, 9, 35, 80
5, 17856, Note_on_c, 9, 41, 0
5, 17856, Note_on_c, 9, 35, 0
5, 17880, Note_on_c, 9, 41, 80
5, 17880, Note_on_c, 9, 35, 80
5, 17976, Note_on_c, 9, 41, 0
5, 17976, Note_on_c, 9, 35, 0
5, 18000, Note_on_c, 9, 38, 80
5, 18192, Note_on_c, 9, 38, 0
5, 18240, Note_on_c, 9, 41, 80
5, 18240, Note_on_c, 9, 35, 80
5, 18432, Note_on_c, 9, 41, 0
5, 18432, Note_on_c, 9, 35, 0
5, 18480, Note_on_c, 9, 38, 80
5, 18672, Note_on_c, 9, 38, 0
5, 18720, Note_on_c, 9, 41, 80
5, 18720, Note_on_c, 9, 35, 80
5, 18816, Note_on_c, 9, 41, 0
5, 18816, Note_on_c, 9, 35, 0
5, 18840, Note_on_c, 9, 41, 80
5, 18840, Note_on_c, 9, 35, 80
5, 18936, Note_on_c, 9, 41, 0
5, 18936, Note_on_c, 9, 35, 0
5, 18960, Note_on_c, 9, 38, 80
5, 19152, Note_on_c, 9, 38, 0
5, 19200, Note_on_c, 9, 41, 80
5, 19200, Note_on_c, 9, 35, 80
5, 19392, Note_on_c, 9, 41, 0
5, 19392, Note_on_c, 9, 35, 0
5, 19440, Note_on_c, 9, 38, 80
5, 19632, Note_on_c, 9, 38, 0
5, 19680, Note_on_c, 9, 41, 80
5, 19680, Note_on_c, 9, 35, 80
5, 19776, Note_on_c, 9, 41, 0
5, 19776, Note_on_c, 9, 35, 0
5, 19800, Note_on_c, 9, 41, 80
5, 19800, Note_on_c, 9, 35, 80
5, 19896, Note_on_c, 9, 41, 0
5, 19896, Note_on_c, 9, 35, 0
5, 19920, Note_on_c, 9, 38, 80
5, 20112, Note_on_c, 9, 38, 0
5, 20160, Note_on_c, 9, 41, 80
5, 20160, Note_on_c, 9, 35, 80
5, 20352, Note_on_c, 9, 41, 0
5, 20352, Note_on_c, 9, 35, 0
5, 20400, Note_on_c, 9, 38, 80
5, 20592, Note_on_c, 9, 38, 0
5, 20640, Note_on_c, 9, 41, 80
5, 20640, Note_on_c, 9, 35, 80
5, 20736, Note_on_c, 9, 41, 0
5, 20736, Note_on_c, 9, 35, 0
5, 20760, Note_on_c, 9, 41, 80
5, 20760, Note_on_c, 9, 35, 80
5, 20856, Note_on_c, 9, 41, 0
5, 20856, Note_on_c, 9, 35, 0
5, 20880, Note_on_c, 9, 38, 80
5, 21072, Note_on_c, 9, 38, 0
5, 21120, Note_on_c, 9, 41, 80
5, 21120, Note_on_c, 9, 35, 80
5, 21312, Note_on_c, 9, 41, 0
5, 21312, Note_on_c, 9, 35, 0
5, 21360, Note_on_c, 9, 38, 80
5, 21552, Note_on_c, 9, 38, 0
5, 21600, Note_on_c, 9, 41, 80
5, 21600, Note_on_c, 9, 35, 80
5, 21696, Note_on_c, 9, 41, 0
5, 21696, Note_on_c, 9, 35, 0
5, 21720, Note_on_c, 9, 41, 80
5, 21720, Note_on_c, 9, 35, 80
5, 21816, Note_on_c, 9, 41, 0
5, 21816, Note_on_c, 9, 35, 0
5, 21840, Note_on_c, 9, 38, 80
5, 22032, Note_on_c, 9, 38, 0
5, 22080, Note_on_c, 9, 41, 80
5, 22080, Note_on_c, 9, 35, 80
5, 22272, Note_on_c, 9, 41, 0
5, 22272, Note_on_c, 9, 35, 0
5, 22320, Note_on_c, 9, 38, 80
5, 22512, Note_on_c, 9, 38, 0
5, 22560, Note_on_c, 9, 41, 80
5, 22560, Note_on_c, 9, 35, 80
5, 22656, Note_on_c, 9, 41, 0
5, 22656, Note_on_c, 9, 35, 0
5, 22680, Note_on_c, 9, 41, 80
5, 22680, Note_on_c, 9, 35, 80
5, 22776, Note_on_c, 9, 41, 0
5, 22776, Note_on_c, 9, 35, 0
5, 22800, Note_on_c, 9, 38, 80
5, 22992, Note_on_c, 9, 38, 0
5, 23040, Note_on_c, 9, 41, 80
5, 23040, Note_on_c, 9, 35, 80
5, 23232, Note_on_c, 9, 41, 0
5, 23232, Note_on_c, 9, 35, 0
5, 23280, Note_on_c, 9, 38, 80
5, 23472, Note_on_c, 9, 38, 0
5, 23520, Note_on_c, 9, 41, 80
5, 23520, Note_on_c, 9, 35, 80
5, 23616, Note_on_c, 9, 41, 0
5, 23616, Note_on_c, 9, 35, 0
5, 23640, Note_on_c, 9, 41, 80
5, 23640, Note_on_c, 9, 35, 80
5, 23736, Note_on_c, 9, 41, 0
5, 23736, Note_on_c, 9, 35, 0
5, 23760, Note_on_c, 9, 38, 80
5, 23952, Note_on_c, 9, 38, 0
5, 24000, Note_on_c, 9, 35, 80
5, 24000, Note_on_c, 9, 41, 80
5, 24192, Note_on_c, 9, 35, 0
5, 24192, Note_on_c, 9, 41, 0
5, 24240, Note_on_c, 9, 38, 80
5, 24240, Note_on_c, 9, 44, 80
5, 24240, Note_on_c, 9, 46, 80
5, 24240, Note_on_c, 9, 49, 80
5, 24432, Note_on_c, 9, 38, 0
5, 24432, Note_on_c, 9, 44, 0
5, 24432, Note_on_c, 9, 46, 0
5, 24432, Note_on_c, 9, 49, 0
5, 24480, Note_on_c, 9, 38, 80
5, 24480, Note_on_c, 9, 35, 80
5, 24480, Note_on_c, 9, 41, 80
5, 24528, Note_on_c, 9, 38, 0
5, 24528, Note_on_c, 9, 35, 0
5, 24528, Note_on_c, 9, 41, 0
5, 24540, Note_on_c, 9, 38, 80
5, 24540, Note_on_c, 9, 41, 80
5, 24588, Note_on_c, 9, 38, 0
5, 24588, Note_on_c, 9, 41, 0
5, 24600, Note_on_c, 9, 35, 80
5, 24600, Note_on_c, 9, 38, 80
5, 24600, Note_on_c, 9, 41, 80
5, 24648, Note_on_c, 9, 35, 0
5, 24648, Note_on_c, 9, 38, 0
5, 24648, Note_on_c, 9, 41, 0
5, 24660, Note_on_c, 9, 41, 80
5, 24660, Note_on_c, 9, 38, 80
5, 24708, Note_on_c, 9, 41, 0
5, 24708, Note_on_c, 9, 38, 0
5, 24720, Note_on_c, 9, 38, 80
5, 24720, Note_on_c, 9, 41, 80
5, 24768, Note_on_c, 9, 38, 0
5, 24768, Note_on_c, 9, 41, 0
5, 24780, Note_on_c, 9, 41, 80
5, 24780, Note_on_c, 9, 38, 80
5, 24828, Note_on_c, 9, 41, 0
5, 24828, Note_on_c, 9, 38, 0
5, 24840, Note_on_c, 9, 38, 80
5, 24840, Note_on_c, 9, 41, 80
5, 24888, Note_on_c, 9, 38, 0
5, 24888, Note_on_c, 9, 41, 0
5, 24900, Note_on_c, 9, 38, 80
5, 24900, Note_on_c, 9, 41, 80
5, 24948, Note_on_c, 9, 38, 0
5, 24948, Note_on_c, 9, 41, 0
5, 24960, Note_on_c, 9, 41, 80
5, 24960, Note_on_c, 9, 35, 80
5, 25152, Note_on_c, 9, 41, 0
5, 25152, Note_on_c, 9, 35, 0
5, 25200, Note_on_c, 9, 38, 80
5, 25392, Note_on_c, 9, 38, 0
5, 25440, Note_on_c, 9, 41, 80
5, 25440, Note_on_c, 9, 35, 80
5, 25536, Note_on_c, 9, 41, 0
5, 25536, Note_on_c, 9, 35, 0
5, 25560, Note_on_c, 9, 41, 80
5, 25560, Note_on_c, 9, 35, 80
5, 25656, Note_on_c, 9, 41, 0
5, 25656, Note_on_c, 9, 35, 0
5, 25680, Note_on_c, 9, 38, 80
5, 25872, Note_on_c, 9, 38, 0
5, 25920, Note_on_c, 9, 41, 80
5, 25920, Note_on_c, 9, 35, 80
5, 26112, Note_on_c, 9, 41, 0
5, 26112, Note_on_c, 9, 35, 0
5, 26160, Note_on_c, 9, 38, 80
5, 26352, Note_on_c, 9, 38, 0
5, 26400, Note_on_c, 9, 41, 80
5, 26400, Note_on_c, 9, 35, 80
5, 26496, Note_on_c, 9, 41, 0
5, 26496, Note_on_c, 9, 35, 0
5, 26520, Note_on_c, 9, 41, 80
5, 26520, Note_on_c, 9, 35, 80
5, 26616, Note_on_c, 9, 41, 0
5, 26616, Note_on_c, 9, 35, 0
5, 26640, Note_on_c, 9, 38, 80
5, 26832, Note_on_c, 9, 38, 0
5, 26880, Note_on_c, 9, 41, 80
5, 26880, Note_on_c, 9, 35, 80
5, 27072, Note_on_c, 9, 41, 0
5, 27072, Note_on_c, 9, 35, 0
5, 27120, Note_on_c, 9, 38, 80
5, 27312, Note_on_c, 9, 38, 0
5, 27360, Note_on_c, 9, 41, 80
5, 27360, Note_on_c, 9, 35, 80
5, 27456, Note_on_c, 9, 41, 0
5, 27456, Note_on_c, 9, 35, 0
5, 27480, Note_on_c, 9, 41, 80
5, 27480, Note_on_c, 9, 35, 80
5, 27576, Note_on_c, 9, 41, 0
5, 27576, Note_on_c, 9, 35, 0
5, 27600, Note_on_c, 9, 38, 80
5, 27792, Note_on_c, 9, 38, 0
5, 27840, Note_on_c, 9, 41, 80
5, 27840, Note_on_c, 9, 35, 80
5, 28032, Note_on_c, 9, 41, 0
5, 28032, Note_on_c, 9, 35, 0
5, 28080, Note_on_c, 9, 38, 80
5, 28272, Note_on_c, 9, 38, 0
5, 28320, Note_on_c, 9, 41, 80
5, 28320, Note_on_c, 9, 35, 80
5, 28416, Note_on_c, 9, 41, 0
5, 28416, Note_on_c, 9, 35, 0
5, 28440, Note_on_c, 9, 41, 80
5, 28440, Note_on_c, 9, 35, 80
5, 28536, Note_on_c, 9, 41, 0
5, 28536, Note_on_c, 9, 35, 0
5, 28560, Note_on_c, 9, 38, 80
5, 28752, Note_on_c, 9, 38, 0
5, 28800, Note_on_c, 9, 41, 80
5, 28800, Note_on_c, 9, 35, 80
5, 28992, Note_on_c, 9, 41, 0
5, 28992, Note_on_c, 9, 35, 0
5, 29040, Note_on_c, 9, 38, 80
5, 29232, Note_on_c, 9, 38, 0
5, 29280, Note_on_c, 9, 41, 80
5, 29280, Note_on_c, 9, 35, 80
5, 29376, Note_on_c, 9, 41, 0
5, 29376, Note_on_c, 9, 35, 0
5, 29400, Note_on_c, 9, 41, 80
5, 29400, Note_on_c, 9, 35, 80
5, 29496, Note_on_c, 9, 41, 0
5, 29496, Note_on_c, 9, 35, 0
5, 29520, Note_on_c, 9, 38, 80
5, 29712, Note_on_c, 9, 38, 0
5, 29760, Note_on_c, 9, 41, 80
5, 29760, Note_on_c, 9, 35, 80
5, 29952, Note_on_c, 9, 41, 0
5, 29952, Note_on_c, 9, 35, 0
5, 30000, Note_on_c, 9, 38, 80
5, 30192, Note_on_c, 9, 38, 0
5, 30240, Note_on_c, 9, 41, 80
5, 30240, Note_on_c, 9, 35, 80
5, 30336, Note_on_c, 9, 41, 0
5, 30336, Note_on_c, 9, 35, 0
5, 30360, Note_on_c, 9, 41, 80
5, 30360, Note_on_c, 9, 35, 80
5, 30456, Note_on_c, 9, 41, 0
5, 30456, Note_on_c, 9, 35, 0
5, 30480, Note_on_c, 9, 38, 80
5, 30672, Note_on_c, 9, 38, 0
5, 30720, Note_on_c, 9, 41, 80
5, 30720, Note_on_c, 9, 35, 80
5, 30912, Note_on_c, 9, 41, 0
5, 30912, Note_on_c, 9, 35, 0
5, 30960, Note_on_c, 9, 38, 80
5, 31152, Note_on_c, 9, 38, 0
5, 31200, Note_on_c, 9, 41, 80
5, 31200, Note_on_c, 9, 35, 80
5, 31296, Note_on_c, 9, 41, 0
5, 31296, Note_on_c, 9, 35, 0
5, 31320, Note_on_c, 9, 41, 80
5, 31320, Note_on_c, 9, 35, 80
5, 31416, Note_on_c, 9, 41, 0
5, 31416, Note_on_c, 9, 35, 0
5, 31440, Note_on_c, 9, 38, 80
5, 31632, Note_on_c, 9, 38, 0
5, 31680, Note_on_c, 9, 41, 80
5, 31680, Note_on_c, 9, 35, 80
5, 31872, Note_on_c, 9, 41, 0
5, 31872, Note_on_c, 9, 35, 0
5, 31920, Note_on_c, 9, 49, 80
5, 31920, Note_on_c, 9, 46, 80
5, 31920, Note_on_c, 9, 44, 80
5, 31920, Note_on_c, 9, 38, 80
5, 32112, Note_on_c, 9, 49, 0
5, 32112, Note_on_c, 9, 46, 0
5, 32112, Note_on_c, 9, 44, 0
5, 32112, Note_on_c, 9, 38, 0
5, 32160, Note_on_c, 9, 41, 80
5, 32160, Note_on_c, 9, 35, 80
5, 32160, Note_on_c, 9, 38, 80
5, 32208, Note_on_c, 9, 41, 0
5, 32208, Note_on_c, 9, 35, 0
5, 32208, Note_on_c, 9, 38, 0
5, 32220, Note_on_c, 9, 41, 80
5, 32220, Note_on_c, 9, 38, 80
5, 32268, Note_on_c, 9, 41, 0
5, 32268, Note_on_c, 9, 38, 0
5, 32280, Note_on_c, 9, 41, 80
5, 32280, Note_on_c, 9, 38, 80
5, 32280, Note_on_c, 9, 35, 80
5, 32328, Note_on_c, 9, 41, 0
5, 32328, Note_on_c, 9, 38, 0
5, 32328, Note_on_c, 9, 35, 0
5, 32340, Note_on_c, 9, 38, 80
5, 32340, Note_on_c, 9, 41, 80
5, 32388, Note_on_c, 9, 38, 0
5, 32388, Note_on_c, 9, 41, 0
5, 32400, Note_on_c, 9, 41, 80
5, 32400, Note_on_c, 9, 38, 80
5, 32448, Note_on_c, 9, 41, 0
5, 32448, Note_on_c, 9, 38, 0
5, 32460, Note_on_c, 9, 38, 80
5, 32460, Note_on_c, 9, 41, 80
5, 32508, Note_on_c, 9, 38, 0
5, 32508, Note_on_c, 9, 41, 0
5, 32520, Note_on_c, 9, 41, 80
5, 32520, Note_on_c, 9, 38, 80
5, 32568, Note_on_c, 9, 41, 0
5, 32568, Note_on_c, 9, 38, 0
5, 32580, Note_on_c, 9, 41, 80
5, 32580, Note_on_c, 9, 38, 80
5, 32628, Note_on_c, 9, 41, 0
5, 32628, Note_on_c, 9, 38, 0
5, 32640, Note_on_c, 9, 41, 80
5, 32640, Note_on_c, 9, 35, 80
5, 32832, Note_on_c, 9, 41, 0
5, 32832, Note_on_c, 9, 35, 0
5, 32880, Note_on_c, 9, 38, 80
5, 33072, Note_on_c, 9, 38, 0
5, 33120, Note_on_c, 9, 41, 80
5, 33120, Note_on_c, 9, 35, 80
5, 33216, Note_on_c, 9, 41, 0
5, 33216, Note_on_c, 9, 35, 0
5, 33240, Note_on_c, 9, 41, 80
5, 33240, Note_on_c, 9, 35, 80
5, 33336, Note_on_c, 9, 41, 0
5, 33336, Note_on_c, 9, 35, 0
5, 33360, Note_on_c, 9, 38, 80
5, 33552, Note_on_c, 9, 38, 0
5, 33600, Note_on_c, 9, 41, 80
5, 33600, Note_on_c, 9, 35, 80
5, 33792, Note_on_c, 9, 41, 0
5, 33792, Note_on_c, 9, 35, 0
5, 33840, Note_on_c, 9, 38, 80
5, 34032, Note_on_c, 9, 38, 0
5, 34080, Note_on_c, 9, 41, 80
5, 34080, Note_on_c, 9, 35, 80
5, 34176, Note_on_c, 9, 41, 0
5, 34176, Note_on_c, 9, 35, 0
5, 34200, Note_on_c, 9, 41, 80
5, 34200, Note_on_c, 9, 35, 80
5, 34296, Note_on_c, 9, 41, 0
5, 34296, Note_on_c, 9, 35, 0
5, 34320, Note_on_c, 9, 38, 80
5, 34512, Note_on_c, 9, 38, 0
5, 34560, Note_on_c, 9, 41, 80
5, 34560, Note_on_c, 9, 35, 80
5, 34752, Note_on_c, 9, 41, 0
5, 34752, Note_on_c, 9, 35, 0
5, 34800, Note_on_c, 9, 38, 80
5, 34992, Note_on_c, 9, 38, 0
5, 35040, Note_on_c, 9, 41, 80
5, 35040, Note_on_c, 9, 35, 80
5, 35136, Note_on_c, 9, 41, 0
5, 35136, Note_on_c, 9, 35, 0
5, 35160, Note_on_c, 9, 41, 80
5, 35160, Note_on_c, 9, 35, 80
5, 35256, Note_on_c, 9, 41, 0
5, 35256, Note_on_c, 9, 35, 0
5, 35280, Note_on_c, 9, 38, 80
5, 35472, Note_on_c, 9, 38, 0
5, 35520, Note_on_c, 9, 41, 80
5, 35520, Note_on_c, 9, 35, 80
5, 35712, Note_on_c, 9, 41, 0
5, 35712, Note_on_c, 9, 35, 0
5, 35760, Note_on_c, 9, 38, 80
5, 35952, Note_on_c, 9, 38, 0
5, 36000, Note_on_c, 9, 41, 80
5, 36000, Note_on_c, 9, 35, 80
5, 36096, Note_on_c, 9, 41, 0
5, 36096, Note_on_c, 9, 35, 0
5, 36120, Note_on_c, 9, 41, 80
5, 36120, Note_on_c, 9, 35, 80
5, 36216, Note_on_c, 9, 41, 0
5, 36216, Note_on_c, 9, 35, 0
5, 36240, Note_on_c, 9, 38, 80
5, 36432, Note_on_c, 9, 38, 0
5, 36480, Note_on_c, 9, 41, 80
5, 36480, Note_on_c, 9, 35, 80
5, 36672, Note_on_c, 9, 41, 0
5, 36672, Note_on_c, 9, 35, 0
5, 36720, Note_on_c, 9, 38, 80
5, 36912, Note_on_c, 9, 38, 0
5, 36960, Note_on_c, 9, 41, 80
5, 36960, Note_on_c, 9, 35, 80
5, 37056, Note_on_c, 9, 41, 0
5, 37056, Note_on_c, 9, 35, 0
5, 37080, Note_on_c, 9, 41, 80
5, 37080, Note_on_c, 9, 35, 80
5, 37176, Note_on_c, 9, 41, 0
5, 37176, Note_on_c, 9, 35, 0
5, 37200, Note_on_c, 9, 38, 80
5, 37392, Note_on_c, 9, 38, 0
5, 37440, Note_on_c, 9, 41, 80
5, 37440, Note_on_c, 9, 35, 80
5, 37632, Note_on_c, 9, 41, 0
5, 37632, Note_on_c, 9, 35, 0
5, 37680, Note_on_c, 9, 38, 80
5, 37872, Note_on_c, 9, 38, 0
5, 37920, Note_on_c, 9, 41, 80
5, 37920, Note_on_c, 9, 35, 80
5, 38016, Note_on_c, 9, 41, 0
5, 38016, Note_on_c, 9, 35, 0
5, 38040, Note_on_c, 9, 41, 80
5, 38040, Note_on_c, 9, 35, 80
5, 38136, Note_on_c, 9, 41, 0
5, 38136, Note_on_c, 9, 35, 0
5, 38160, Note_on_c, 9, 38, 80
5, 38352, Note_on_c, 9, 38, 0
5, 38400, Note_on_c, 9, 41, 80
5, 38400, Note_on_c, 9, 35, 80
5, 38592, Note_on_c, 9, 41, 0
5, 38592, Note_on_c, 9, 35, 0
5, 38640, Note_on_c, 9, 38, 80
5, 38832, Note_on_c, 9, 38, 0
5, 38880, Note_on_c, 9, 41, 80
5, 38880, Note_on_c, 9, 35, 80
5, 38976, Note_on_c, 9, 41, 0
5, 38976, Note_on_c, 9, 35, 0
5, 39000, Note_on_c, 9, 41, 80
5, 39000, Note_on_c, 9, 35, 80
5, 39096, Note_on_c, 9, 41, 0
5, 39096, Note_on_c, 9, 35, 0
5, 39120, Note_on_c, 9, 38, 80
5, 39312, Note_on_c, 9, 38, 0
5, 39360, Note_on_c, 9, 41, 80
5, 39360, Note_on_c, 9, 35, 80
5, 39552, Note_on_c, 9, 41, 0
5, 39552, Note_on_c, 9, 35, 0
5, 39600, Note_on_c, 9, 49, 80
5, 39600, Note_on_c, 9, 46, 80
5, 39600, Note_on_c, 9, 44, 80
5, 39600, Note_on_c, 9, 38, 80
5, 39792, Note_on_c, 9, 49, 0
5, 39792, Note_on_c, 9, 46, 0
5, 39792, Note_on_c, 9, 44, 0
5, 39792, Note_on_c, 9, 38, 0
5, 39840, Note_on_c, 9, 41, 80
5, 39840, Note_on_c, 9, 35, 80
5, 39840, Note_on_c, 9, 38, 80
5, 39888, Note_on_c, 9, 41, 0
5, 39888, Note_on_c, 9, 35, 0
5, 39888, Note_on_c, 9, 38, 0
5, 39900, Note_on_c, 9, 41, 80
5, 39900, Note_on_c, 9, 38, 80
5, 39948, Note_on_c, 9, 41, 0
5, 39948, Note_on_c, 9, 38, 0
5, 39960, Note_on_c, 9, 41, 80
5, 39960, Note_on_c, 9, 38, 80
5, 39960, Note_on_c, 9, 35, 80
5, 40008, Note_on_c, 9, 41, 0
5, 40008, Note_on_c, 9, 38, 0
5, 40008, Note_on_c, 9, 35, 0
5, 40020, Note_on_c, 9, 38, 80
5, 40020, Note_on_c, 9, 41, 80
5, 40068, Note_on_c, 9, 38, 0
5, 40068, Note_on_c, 9, 41, 0
5, 40080, Note_on_c, 9, 41, 80
5, 40080, Note_on_c, 9, 38, 80
5, 40128, Note_on_c, 9, 41, 0
5, 40128, Note_on_c, 9, 38, 0
5, 40140, Note_on_c, 9, 38, 80
5, 40140, Note_on_c, 9, 41, 80
5, 40188, Note_on_c, 9, 38, 0
5, 40188, Note_on_c, 9, 41, 0
5, 40200, Note_on_c, 9, 41, 80
5, 40200, Note_on_c, 9, 38, 80
5, 40248, Note_on_c, 9, 41, 0
5, 40248, Note_on_c, 9, 38, 0
5, 40260, Note_on_c, 9, 41, 80
5, 40260, Note_on_c, 9, 38, 80
5, 40308, Note_on_c, 9, 41, 0
5, 40308, Note_on_c, 9, 38, 0
5, 40320, Note_on_c, 9, 41, 80
5, 40320, Note_on_c, 9, 35, 80
5, 40512, Note_on_c, 9, 41, 0
5, 40512, Note_on_c, 9, 35, 0
5, 40560, Note_on_c, 9, 38, 80
5, 40752, Note_on_c, 9, 38, 0
5, 40800, Note_on_c, 9, 41, 80
5, 40800, Note_on_c, 9, 35, 80
5, 40896, Note_on_c, 9, 41, 0
5, 40896, Note_on_c, 9, 35, 0
5, 40920, Note_on_c, 9, 41, 80
5, 40920, Note_on_c, 9, 35, 80
5, 41016, Note_on_c, 9, 41, 0
5, 41016, Note_on_c, 9, 35, 0
5, 41040, Note_on_c, 9, 38, 80
5, 41232, Note_on_c, 9, 38, 0
5, 41280, Note_on_c, 9, 41, 80
5, 41280, Note_on_c, 9, 35, 80
5, 41472, Note_on_c, 9, 41, 0
5, 41472, Note_on_c, 9, 35, 0
5, 41520, Note_on_c, 9, 38, 80
5, 41712, Note_on_c, 9, 38, 0
5, 41760, Note_on_c, 9, 41, 80
5, 41760, Note_on_c, 9, 35, 80
5, 41856, Note_on_c, 9, 41, 0
5, 41856, Note_on_c, 9, 35, 0
5, 41880, Note_on_c, 9, 41, 80
5, 41880, Note_on_c, 9, 35, 80
5, 41976, Note_on_c, 9, 41, 0
5, 41976, Note_on_c, 9, 35, 0
5, 42000, Note_on_c, 9, 38, 80
5, 42192, Note_on_c, 9, 38, 0
5, 42240, Note_on_c, 9, 41, 80
5, 42240, Note_on_c, 9, 35, 80
5, 42432, Note_on_c, 9, 41, 0
5, 42432, Note_on_c, 9, 35, 0
5, 42480, Note_on_c, 9, 38, 80
5, 42672, Note_on_c, 9, 38, 0
5, 42720, Note_on_c, 9, 41, 80
5, 42720, Note_on_c, 9, 35, 80
5, 42816, Note_on_c, 9, 41, 0
5, 42816, Note_on_c, 9, 35, 0
5, 42840, Note_on_c, 9, 41, 80
5, 42840, Note_on_c, 9, 35, 80
5, 42936, Note_on_c, 9, 41, 0
5, 42936, Note_on_c, 9, 35, 0
5, 42960, Note_on_c, 9, 38, 80
5, 43152, Note_on_c, 9, 38, 0
5, 43200, Note_on_c, 9, 41, 80
5, 43200, Note_on_c, 9, 35, 80
5, 43392, Note_on_c, 9, 41, 0
5, 43392, Note_on_c, 9, 35, 0
5, 43440, Note_on_c, 9, 38, 80
5, 43632, Note_on_c, 9, 38, 0
5, 43680, Note_on_c, 9, 41, 80
5, 43680, Note_on_c, 9, 35, 80
5, 43776, Note_on_c, 9, 41, 0
5, 43776, Note_on_c, 9, 35, 0
5, 43800, Note_on_c, 9, 41, 80
5, 43800, Note_on_c, 9, 35, 80
5, 43896, Note_on_c, 9, 41, 0
5, 43896, Note_on_c, 9, 35, 0
5, 43920, Note_on_c, 9, 38, 80
5, 44112, Note_on_c, 9, 38, 0
5, 44160, Note_on_c, 9, 41, 80
5, 44160, Note_on_c, 9, 35, 80
5, 44352, Note_on_c, 9, 41, 0
5, 44352, Note_on_c, 9, 35, 0
5, 44400, Note_on_c, 9, 38, 80
5, 44592, Note_on_c, 9, 38, 0
5, 44640, Note_on_c, 9, 41, 80
5, 44640, Note_on_c, 9, 35, 80
5, 44736, Note_on_c, 9, 41, 0
5, 44736, Note_on_c, 9, 35, 0
5, 44760, Note_on_c, 9, 41, 80
5, 44760, Note_on_c, 9, 35, 80
5, 44856, Note_on_c, 9, 41, 0
5, 44856, Note_on_c, 9, 35, 0
5, 44880, Note_on_c, 9, 38, 80
5, 45072, Note_on_c, 9, 38, 0
5, 45120, Note_on_c, 9, 41, 80
5, 45120, Note_on_c, 9, 35, 80
5, 45312, Note_on_c, 9, 41, 0
5, 45312, Note_on_c, 9, 35, 0
5, 45360, Note_on_c, 9, 38, 80
5, 45552, Note_on_c, 9, 38, 0
5, 45600, Note_on_c, 9, 41, 80
5, 45600, Note_on_c, 9, 35, 80
5, 45696, Note_on_c, 9, 41, 0
5, 45696, Note_on_c, 9, 35, 0
5, 45720, Note_on_c, 9, 41, 80
5, 45720, Note_on_c, 9, 35, 80
5, 45816, Note_on_c, 9, 41, 0
5, 45816, Note_on_c, 9, 35, 0
5, 45840, Note_on_c, 9, 38, 80
5, 46032, Note_on_c, 9, 38, 0
5, 46080, Note_on_c, 9, 41, 80
5, 46080, Note_on_c, 9, 35, 80
5, 46272, Note_on_c, 9, 41, 0
5, 46272, Note_on_c, 9, 35, 0
5, 46320, Note_on_c, 9, 38, 80
5, 46512, Note_on_c, 9, 38, 0
5, 46560, Note_on_c, 9, 41, 80
5, 46560, Note_on_c, 9, 35, 80
5, 46656, Note_on_c, 9, 41, 0
5, 46656, Note_on_c, 9, 35, 0
5, 46680, Note_on_c, 9, 41, 80
5, 46680, Note_on_c, 9, 35, 80
5, 46776, Note_on_c, 9, 41, 0
5, 46776, Note_on_c, 9, 35, 0
5, 46800, Note_on_c, 9, 38, 80
5, 46992, Note_on_c, 9, 38, 0
5, 47040, Note_on_c, 9, 41, 80
5, 47040, Note_on_c, 9, 35, 80
5, 47232, Note_on_c, 9, 41, 0
5, 47232, Note_on_c, 9, 35, 0
5, 47280, Note_on_c, 9, 49, 80
5, 47280, Note_on_c, 9, 46, 80
5, 47280, Note_on_c, 9, 44, 80
5, 47280, Note_on_c, 9, 38, 80
5, 47472, Note_on_c, 9, 49, 0
5, 47472, Note_on_c, 9, 46, 0
5, 47472, Note_on_c, 9, 44, 0
5, 47472, Note_on_c, 9, 38, 0
5, 47520, Note_on_c, 9, 41, 80
5, 47520, Note_on_c, 9, 35, 80
5, 47520, Note_on_c, 9, 38, 80
5, 47568, Note_on_c, 9, 41, 0
5, 47568, Note_on_c, 9, 35, 0
5, 47568, Note_on_c, 9, 38, 0
5, 47580, Note_on_c, 9, 41, 80
5, 47580, Note_on_c, 9, 38, 80
5, 47628, Note_on_c, 9, 41, 0
5, 47628, Note_on_c, 9, 38, 0
5, 47640, Note_on_c, 9, 41, 80
5, 47640, Note_on_c, 9, 38, 80
5, 47640, Note_on_c, 9, 35, 80
5, 47688, Note_on_c, 9, 41, 0
5, 47688, Note_on_c, 9, 38, 0
5, 47688, Note_on_c, 9, 35, 0
5, 47700, Note_on_c, 9, 38, 80
5, 47700, Note_on_c, 9, 41, 80
5, 47748, Note_on_c, 9, 38, 0
5, 47748, Note_on_c, 9, 41, 0
5, 47760, Note_on_c, 9, 41, 80
5, 47760, Note_on_c, 9, 38, 80
5, 47808, Note_on_c, 9, 41, 0
5, 47808, Note_on_c, 9, 38, 0
5, 47820, Note_on_c, 9, 38, 80
5, 47820, Note_on_c, 9, 41, 80
5, 47868, Note_on_c, 9, 38, 0
5, 47868, Note_on_c, 9, 41, 0
5, 47880, Note_on_c, 9, 41, 80
5, 47880, Note_on_c, 9, 38, 80
5, 47928, Note_on_c, 9, 41, 0
5, 47928, Note_on_c, 9, 38, 0
5, 47940, Note_on_c, 9, 41, 80
5, 47940, Note_on_c, 9, 38, 80
5, 47988, Note_on_c, 9, 41, 0
5, 47988, Note_on_c, 9, 38, 0
5, 48000, Note_on_c, 9, 41, 80
5, 48000, Note_on_c, 9, 35, 80
5, 48192, Note_on_c, 9, 41, 0
5, 48192, Note_on_c, 9, 35, 0
5, 48240, Note_on_c, 9, 38, 80
5, 48432, Note_on_c, 9, 38, 0
5, 48480, Note_on_c, 9, 41, 80
5, 48480, Note_on_c, 9, 35, 80
5, 48576, Note_on_c, 9, 41, 0
5, 48576, Note_on_c, 9, 35, 0
5, 48600, Note_on_c, 9, 41, 80
5, 48600, Note_on_c, 9, 35, 80
5, 48696, Note_on_c, 9, 41, 0
5, 48696, Note_on_c, 9, 35, 0
5, 48720, Note_on_c, 9, 38, 80
5, 48912, Note_on_c, 9, 38, 0
5, 48960, Note_on_c, 9, 41, 80
5, 48960, Note_on_c, 9, 35, 80
5, 49152, Note_on_c, 9, 41, 0
5, 49152, Note_on_c, 9, 35, 0
5, 49200, Note_on_c, 9, 38, 80
5, 49392, Note_on_c, 9, 38, 0
5, 49440, Note_on_c, 9, 41, 80
5, 49440, Note_on_c, 9, 35, 80
5, 49536, Note_on_c, 9, 41, 0
5, 49536, Note_on_c, 9, 35, 0
5, 49560, Note_on_c, 9, 41, 80
5, 49560, Note_on_c, 9, 35, 80
5, 49656, Note_on_c, 9, 41, 0
5, 49656, Note_on_c, 9, 35, 0
5, 49680, Note_on_c, 9, 38, 80
5, 49872, Note_on_c, 9, 38, 0
5, 49920, Note_on_c, 9, 41, 80
5, 49920, Note_on_c, 9, 35, 80
5, 50112, Note_on_c, 9, 41, 0
5, 50112, Note_on_c, 9, 35, 0
5, 50160, Note_on_c, 9, 38, 80
5, 50352, Note_on_c, 9, 38, 0
5, 50400, Note_on_c, 9, 41, 80
5, 50400, Note_on_c, 9, 35, 80
5, 50496, Note_on_c, 9, 41, 0
5, 50496, Note_on_c, 9, 35, 0
5, 50520, Note_on_c, 9, 41, 80
5, 50520, Note_on_c, 9, 35, 80
5, 50616, Note_on_c, 9, 41, 0
5, 50616, Note_on_c, 9, 35, 0
5, 50640, Note_on_c, 9, 38, 80
5, 50832, Note_on_c, 9, 38, 0
5, 50880, Note_on_c, 9, 41, 80
5, 50880, Note_on_c, 9, 35, 80
5, 51072, Note_on_c, 9, 41, 0
5, 51072, Note_on_c, 9, 35, 0
5, 51120, Note_on_c, 9, 38, 80
5, 51312, Note_on_c, 9, 38, 0
5, 51360, Note_on_c, 9, 41, 80
5, 51360, Note_on_c, 9, 35, 80
5, 51456, Note_on_c, 9, 41, 0
5, 51456, Note_on_c, 9, 35, 0
5, 51480, Note_on_c, 9, 41, 80
5, 51480, Note_on_c, 9, 35, 80
5, 51576, Note_on_c, 9, 41, 0
5, 51576, Note_on_c, 9, 35, 0
5, 51600, Note_on_c, 9, 38, 80
5, 51792, Note_on_c, 9, 38, 0
5, 51840, Note_on_c, 9, 41, 80
5, 51840, Note_on_c, 9, 35, 80
5, 52032, Note_on_c, 9, 41, 0
5, 52032, Note_on_c, 9, 35, 0
5, 52080, Note_on_c, 9, 38, 80
5, 52272, Note_on_c, 9, 38, 0
5, 52320, Note_on_c, 9, 41, 80
5, 52320, Note_on_c, 9, 35, 80
5, 52416, Note_on_c, 9, 41, 0
5, 52416, Note_on_c, 9, 35, 0
5, 52440, Note_on_c, 9, 41, 80
5, 52440, Note_on_c, 9, 35, 80
5, 52536, Note_on_c, 9, 41, 0
5, 52536, Note_on_c, 9, 35, 0
5, 52560, Note_on_c, 9, 38, 80
5, 52752, Note_on_c, 9, 38, 0
5, 52800, Note_on_c, 9, 41, 80
5, 52800, Note_on_c, 9, 35, 80
5, 52992, Note_on_c, 9, 41, 0
5, 52992, Note_on_c, 9, 35, 0
5, 53040, Note_on_c, 9, 38, 80
5, 53232, Note_on_c, 9, 38, 0
5, 53280, Note_on_c, 9, 41, 80
5, 53280, Note_on_c, 9, 35, 80
5, 53376, Note_on_c, 9, 41, 0
5, 53376, Note_on_c, 9, 35, 0
5, 53400, Note_on_c, 9, 41, 80
5, 53400, Note_on_c, 9, 35, 80
5, 53496, Note_on_c, 9, 41, 0
5, 53496, Note_on_c, 9, 35, 0
5, 53520, Note_on_c, 9, 38, 80
5, 53712, Note_on_c, 9, 38, 0
5, 53760, Note_on_c, 9, 41, 80
5, 53760, Note_on_c, 9, 35, 80
5, 53952, Note_on_c, 9, 41, 0
5, 53952, Note_on_c, 9, 35, 0
5, 54000, Note_on_c, 9, 38, 80
5, 54192, Note_on_c, 9, 38, 0
5, 54240, Note_on_c, 9, 41, 80
5, 54240, Note_on_c, 9, 35, 80
5, 54336, Note_on_c, 9, 41, 0
5, 54336, Note_on_c, 9, 35, 0
5, 54360, Note_on_c, 9, 41, 80
5, 54360, Note_on_c, 9, 35, 80
5, 54456, Note_on_c, 9, 41, 0
5, 54456, Note_on_c, 9, 35, 0
5, 54480, Note_on_c, 9, 38, 80
5, 54672, Note_on_c, 9, 38, 0
5, 54720, Note_on_c, 9, 41, 80
5, 54720, Note_on_c, 9, 35, 80
5, 54912, Note_on_c, 9, 41, 0
5, 54912, Note_on_c, 9, 35, 0
5, 54960, Note_on_c, 9, 38, 80
5, 55152, Note_on_c, 9, 38, 0
5, 55200, Note_on_c, 9, 41, 80
5, 55200, Note_on_c, 9, 35, 80
5, 55296, Note_on_c, 9, 41, 0
5, 55296, Note_on_c, 9, 35, 0
5, 55320, Note_on_c, 9, 41, 80
5, 55320, Note_on_c, 9, 35, 80
5, 55416, Note_on_c, 9, 41, 0
5, 55416, Note_on_c, 9, 35, 0
5, 55440, Note_on_c, 9, 38, 80
5, 55632, Note_on_c, 9, 38, 0
5, 55680, Note_on_c, 9, 41, 80
5, 55680, Note_on_c, 9, 35, 80
5, 55872, Note_on_c, 9, 41, 0
5, 55872, Note_on_c, 9, 35, 0
5, 55920, Note_on_c, 9, 38, 80
5, 56112, Note_on_c, 9, 38, 0
5, 56160, Note_on_c, 9, 41, 80
5, 56160, Note_on_c, 9, 35, 80
5, 56256, Note_on_c, 9, 41, 0
5, 56256, Note_on_c, 9, 35, 0
5, 56280, Note_on_c, 9, 41, 80
5, 56280, Note_on_c, 9, 35, 80
5, 56376, Note_on_c, 9, 41, 0
5, 56376, Note_on_c, 9, 35, 0
5, 56400, Note_on_c, 9, 38, 80
5, 56592, Note_on_c, 9, 38, 0
5, 56640, Note_on_c, 9, 41, 80
5, 56640, Note_on_c, 9, 35, 80
5, 56832, Note_on_c, 9, 41, 0
5, 56832, Note_on_c, 9, 35, 0
5, 56880, Note_on_c, 9, 38, 80
5, 57072, Note_on_c, 9, 38, 0
5, 57120, Note_on_c, 9, 41, 80
5, 57120, Note_on_c, 9, 35, 80
5, 57216, Note_on_c, 9, 41, 0
5, 57216, Note_on_c, 9, 35, 0
5, 57240, Note_on_c, 9, 41, 80
5, 57240, Note_on_c, 9, 35, 80
5, 57336, Note_on_c, 9, 41, 0
5, 57336, Note_on_c, 9, 35, 0
5, 57360, Note_on_c, 9, 38, 80
5, 57552, Note_on_c, 9, 38, 0
5, 57600, Note_on_c, 9, 38, 80
5, 57600, Note_on_c, 9, 41, 80
5, 57600, Note_on_c, 9, 35, 80
5, 57792, Note_on_c, 9, 38, 0
5, 57792, Note_on_c, 9, 41, 0
5, 57792, Note_on_c, 9, 35, 0
5, 57840, Note_on_c, 9, 38, 80
5, 57840, Note_on_c, 9, 41, 80
5, 57840, Note_on_c, 9, 35, 80
5, 58032, Note_on_c, 9, 38, 0
5, 58032, Note_on_c, 9, 41, 0
5, 58032, Note_on_c, 9, 35, 0
5, 58080, Note_on_c, 9, 38, 80
5, 58080, Note_on_c, 9, 41, 80
5, 58080, Note_on_c, 9, 35, 80
5, 58272, Note_on_c, 9, 38, 0
5, 58272, Note_on_c, 9, 41, 0
5, 58272, Note_on_c, 9, 35, 0
5, 58320, Note_on_c, 9, 38, 80
5, 58320, Note_on_c, 9, 41, 80
5, 58320, Note_on_c, 9, 35, 80
5, 58512, Note_on_c, 9, 38, 0
5, 58512, Note_on_c, 9, 41, 0
5, 58512, Note_on_c, 9, 35, 0
5, 58560, Note_on_c, 9, 38, 80
5, 58560, Note_on_c, 9, 41, 80
5, 58560, Note_on_c, 9, 35, 80
5, 58752, Note_on_c, 9, 38, 0
5, 58752, Note_on_c, 9, 41, 0
5, 58752, Note_on_c, 9, 35, 0
5, 58800, Note_on_c, 9, 38, 80
5, 58800, Note_on_c, 9, 41, 80
5, 58800, Note_on_c, 9, 35, 80
5, 58992, Note_on_c, 9, 38, 0
5, 58992, Note_on_c, 9, 41, 0
5, 58992, Note_on_c, 9, 35, 0
5, 59040, Note_on_c, 9, 38, 80
5, 59040, Note_on_c, 9, 41, 80
5, 59040, Note_on_c, 9, 35, 80
5, 59232, Note_on_c, 9, 38, 0
5, 59232, Note_on_c, 9, 41, 0
5, 59232, Note_on_c, 9, 35, 0
5, 59280, Note_on_c, 9, 49, 80
5, 59280, Note_on_c, 9, 46, 80
5, 59280, Note_on_c, 9, 38, 80
5, 59280, Note_on_c, 9, 41, 80
5, 59280, Note_on_c, 9, 35, 80
5, 59376, Note_on_c, 9, 49, 0
5, 59376, Note_on_c, 9, 46, 0
5, 59376, Note_on_c, 9, 38, 0
5, 59376, Note_on_c, 9, 41, 0
5, 59376, Note_on_c, 9, 35, 0
5, 59400, Note_on_c, 9, 35, 80
5, 59400, Note_on_c, 9, 41, 80
5, 59400, Note_on_c, 9, 38, 80
5, 59400, Note_on_c, 9, 46, 80
5, 59400, Note_on_c, 9, 49, 80
5, 59496, Note_on_c, 9, 35, 0
5, 59496, Note_on_c, 9, 41, 0
5, 59496, Note_on_c, 9, 38, 0
5, 59496, Note_on_c, 9, 46, 0
5, 59496, Note_on_c, 9, 49, 0
5, 59520, Note_on_c, 9, 38, 80
5, 59544, Note_on_c, 9, 38, 0
5, 59550, Note_on_c, 9, 38, 80
5, 59574, Note_on_c, 9, 38, 0
5, 59580, Note_on_c, 9, 38, 80
5, 59604, Note_on_c, 9, 38, 0
5, 59610, Note_on_c, 9, 38, 80
5, 59634, Note_on_c, 9, 38, 0
5, 59640, Note_on_c, 9, 38, 80
5, 59664, Note_on_c, 9, 38, 0
5, 59670, Note_on_c, 9, 38, 80
5, 59694, Note_on_c, 9, 38, 0
5, 59700, Note_on_c, 9, 38, 80
5, 59724, Note_on_c, 9, 38, 0
5, 59730, Note_on_c, 9, 38, 80
5, 59754, Note_on_c, 9, 38, 0
5, 59760, Note_on_c, 9, 45, 80
5, 59784, Note_on_c, 9, 45, 0
5, 59790, Note_on_c, 9, 45, 80
5, 59814, Note_on_c, 9, 45, 0
5, 59820, Note_on_c, 9, 45, 80
5, 59844, Note_on_c, 9, 45, 0
5, 59850, Note_on_c, 9, 45, 80
5, 59874, Note_on_c, 9, 45, 0
5, 59880, Note_on_c, 9, 45, 80
5, 59904, Note_on_c, 9, 45, 0
5, 59910, Note_on_c, 9, 45, 80
5, 59934, Note_on_c, 9, 45, 0
5, 59940, Note_on_c, 9, 45, 80
5, 59964, Note_on_c, 9, 45, 0
5, 59970, Note_on_c, 9, 45, 80
5, 59994, Note_on_c, 9, 45, 0
5, 60000, Note_on_c, 9, 41, 80
5, 60024, Note_on_c, 9, 41, 0
5, 60030, Note_on_c, 9, 41, 80
5, 60054, Note_on_c, 9, 41, 0
5, 60060, Note_on_c, 9, 41, 80
5, 60084, Note_on_c, 9, 41, 0
5, 60090, Note_on_c, 9, 41, 80
5, 60114, Note_on_c, 9, 41, 0
5, 60120, Note_on_c, 9, 41, 80
5, 60144, Note_on_c, 9, 41, 0
5, 60150, Note_on_c, 9, 41, 80
5, 60174, Note_on_c, 9, 41, 0
5, 60180, Note_on_c, 9, 41, 80
5, 60204, Note_on_c, 9, 41, 0
5, 60210, Note_on_c, 9, 41, 80
5, 60234, Note_on_c, 9, 41, 0
5, 60240, Note_on_c, 9, 49, 80
5, 60240, Note_on_c, 9, 46, 80
5, 60240, Note_on_c, 9, 35, 80
5, 60240, Note_on_c, 9, 41, 80
5, 60432, Note_on_c, 9, 49, 0
5, 60432, Note_on_c, 9, 46, 0
5, 60432, Note_on_c, 9, 35, 0
5, 60432, Note_on_c, 9, 41, 0
5, 60432, End_track
6, 0, Start_track
6, 0, Title_t, "Fretless Bass"
6, 0, MIDI_port, 0
6, 0, Program_c, 0, 35
6, 0, Control_c, 0, 7, 126
6, 1920, Note_on_c, 0, 41, 80
6, 2016, Note_on_c, 0, 41, 0
6, 2040, Note_on_c, 0, 41, 80
6, 2136, Note_on_c, 0, 41, 0
6, 2160, Note_on_c, 0, 43, 80
6, 2256, Note_on_c, 0, 43, 0
6, 2280, Note_on_c, 0, 41, 80
6, 2376, Note_on_c, 0, 41, 0
6, 2400, Note_on_c, 0, 44, 80
6, 2448, Note_on_c, 0, 44, 0
6, 2460, Note_on_c, 0, 45, 80
6, 2508, Note_on_c, 0, 45, 0
6, 2520, Note_on_c, 0, 41, 80
6, 2616, Note_on_c, 0, 41, 0
6, 2640, Note_on_c, 0, 46, 80
6, 2736, Note_on_c, 0, 46, 0
6, 2760, Note_on_c, 0, 45, 80
6, 2856, Note_on_c, 0, 45, 0
6, 2880, Note_on_c, 0, 41, 80
6, 2976, Note_on_c, 0, 41, 0
6, 3000, Note_on_c, 0, 41, 80
6, 3096, Note_on_c, 0, 41, 0
6, 3120, Note_on_c, 0, 43, 80
6, 3216, Note_on_c, 0, 43, 0
6, 3240, Note_on_c, 0, 41, 80
6, 3336, Note_on_c, 0, 41, 0
6, 3360, Note_on_c, 0, 44, 80
6, 3408, Note_on_c, 0, 44, 0
6, 3420, Note_on_c, 0, 45, 80
6, 3468, Note_on_c, 0, 45, 0
6, 3480, Note_on_c, 0, 41, 80
6, 3576, Note_on_c, 0, 41, 0
6, 3600, Note_on_c, 0, 46, 80
6, 3696, Note_on_c, 0, 46, 0
6, 3720, Note_on_c, 0, 45, 80
6, 3816, Note_on_c, 0, 45, 0
6, 3840, Note_on_c, 0, 41, 80
6, 3936, Note_on_c, 0, 41, 0
6, 3960, Note_on_c, 0, 41, 80
6, 4056, Note_on_c, 0, 41, 0
6, 4080, Note_on_c, 0, 43, 80
6, 4176, Note_on_c, 0, 43, 0
6, 4200, Note_on_c, 0, 41, 80
6, 4296, Note_on_c, 0, 41, 0
6, 4320, Note_on_c, 0, 44, 80
6, 4368, Note_on_c, 0, 44, 0
6, 4380, Note_on_c, 0, 45, 80
6, 4428, Note_on_c, 0, 45, 0
6, 4440, Note_on_c, 0, 41, 80
6, 4536, Note_on_c, 0, 41, 0
6, 4560, Note_on_c, 0, 46, 80
6, 4656, Note_on_c, 0, 46, 0
6, 4680, Note_on_c, 0, 45, 80
6, 4776, Note_on_c, 0, 45, 0
6, 4800, Note_on_c, 0, 41, 80
6, 4896, Note_on_c, 0, 41, 0
6, 4920, Note_on_c, 0, 41, 80
6, 5016, Note_on_c, 0, 41, 0
6, 5040, Note_on_c, 0, 43, 80
6, 5136, Note_on_c, 0, 43, 0
6, 5160, Note_on_c, 0, 41, 80
6, 5256, Note_on_c, 0, 41, 0
6, 5280, Note_on_c, 0, 44, 80
6, 5328, Note_on_c, 0, 44, 0
6, 5340, Note_on_c, 0, 45, 80
6, 5388, Note_on_c, 0, 45, 0
6, 5400, Note_on_c, 0, 41, 80
6, 5496, Note_on_c, 0, 41, 0
6, 5520, Note_on_c, 0, 46, 80
6, 5616, Note_on_c, 0, 46, 0
6, 5640, Note_on_c, 0, 45, 80
6, 5736, Note_on_c, 0, 45, 0
6, 5760, Note_on_c, 0, 41, 80
6, 5856, Note_on_c, 0, 41, 0
6, 5880, Note_on_c, 0, 41, 80
6, 5976, Note_on_c, 0, 41, 0
6, 6000, Note_on_c, 0, 43, 80
6, 6096, Note_on_c, 0, 43, 0
6, 6120, Note_on_c, 0, 41, 80
6, 6216, Note_on_c, 0, 41, 0
6, 6240, Note_on_c, 0, 44, 80
6, 6288, Note_on_c, 0, 44, 0
6, 6300, Note_on_c, 0, 45, 80
6, 6348, Note_on_c, 0, 45, 0
6, 6360, Note_on_c, 0, 41, 80
6, 6456, Note_on_c, 0, 41, 0
6, 6480, Note_on_c, 0, 46, 80
6, 6576, Note_on_c, 0, 46, 0
6, 6600, Note_on_c, 0, 45, 80
6, 6696, Note_on_c, 0, 45, 0
6, 6720, Note_on_c, 0, 41, 80
6, 6816, Note_on_c, 0, 41, 0
6, 6840, Note_on_c, 0, 41, 80
6, 6936, Note_on_c, 0, 41, 0
6, 6960, Note_on_c, 0, 43, 80
6, 7056, Note_on_c, 0, 43, 0
6, 7080, Note_on_c, 0, 41, 80
6, 7176, Note_on_c, 0, 41, 0
6, 7200, Note_on_c, 0, 44, 80
6, 7248, Note_on_c, 0, 44, 0
6, 7260, Note_on_c, 0, 45, 80
6, 7308, Note_on_c, 0, 45, 0
6, 7320, Note_on_c, 0, 41, 80
6, 7416, Note_on_c, 0, 41, 0
6, 7440, Note_on_c, 0, 46, 80
6, 7536, Note_on_c, 0, 46, 0
6, 7560, Note_on_c, 0, 45, 80
6, 7656, Note_on_c, 0, 45, 0
6, 7680, Note_on_c, 0, 41, 80
6, 7776, Note_on_c, 0, 41, 0
6, 7800, Note_on_c, 0, 41, 80
6, 7896, Note_on_c, 0, 41, 0
6, 7920, Note_on_c, 0, 43, 80
6, 8016, Note_on_c, 0, 43, 0
6, 8040, Note_on_c, 0, 41, 80
6, 8136, Note_on_c, 0, 41, 0
6, 8160, Note_on_c, 0, 44, 80
6, 8208, Note_on_c, 0, 44, 0
6, 8220, Note_on_c, 0, 45, 80
6, 8268, Note_on_c, 0, 45, 0
6, 8280, Note_on_c, 0, 41, 80
6, 8376, Note_on_c, 0, 41, 0
6, 8400, Note_on_c, 0, 46, 80
6, 8496, Note_on_c, 0, 46, 0
6, 8520, Note_on_c, 0, 45, 80
6, 8616, Note_on_c, 0, 45, 0
6, 8640, Note_on_c, 0, 41, 80
6, 8736, Note_on_c, 0, 41, 0
6, 8760, Note_on_c, 0, 41, 80
6, 8856, Note_on_c, 0, 41, 0
6, 8880, Note_on_c, 0, 43, 80
6, 8976, Note_on_c, 0, 43, 0
6, 9000, Note_on_c, 0, 41, 80
6, 9096, Note_on_c, 0, 41, 0
6, 9120, Note_on_c, 0, 44, 80
6, 9168, Note_on_c, 0, 44, 0
6, 9180, Note_on_c, 0, 45, 80
6, 9228, Note_on_c, 0, 45, 0
6, 9240, Note_on_c, 0, 41, 80
6, 9336, Note_on_c, 0, 41, 0
6, 9360, Note_on_c, 0, 46, 80
6, 9456, Note_on_c, 0, 46, 0
6, 9480, Note_on_c, 0, 45, 80
6, 9576, Note_on_c, 0, 45, 0
6, 9600, Note_on_c, 0, 41, 80
6, 9696, Note_on_c, 0, 41, 0
6, 9720, Note_on_c, 0, 41, 80
6, 9816, Note_on_c, 0, 41, 0
6, 9840, Note_on_c, 0, 43, 80
6, 9936, Note_on_c, 0, 43, 0
6, 9960, Note_on_c, 0, 41, 80
6, 10056, Note_on_c, 0, 41, 0
6, 10080, Note_on_c, 0, 44, 80
6, 10128, Note_on_c, 0, 44, 0
6, 10140, Note_on_c, 0, 45, 80
6, 10188, Note_on_c, 0, 45, 0
6, 10200, Note_on_c, 0, 41, 80
6, 10296, Note_on_c, 0, 41, 0
6, 10320, Note_on_c, 0, 46, 80
6, 10416, Note_on_c, 0, 46, 0
6, 10440, Note_on_c, 0, 45, 80
6, 10536, Note_on_c, 0, 45, 0
6, 10560, Note_on_c, 0, 41, 80
6, 10656, Note_on_c, 0, 41, 0
6, 10680, Note_on_c, 0, 41, 80
6, 10776, Note_on_c, 0, 41, 0
6, 10800, Note_on_c, 0, 43, 80
6, 10896, Note_on_c, 0, 43, 0
6, 10920, Note_on_c, 0, 41, 80
6, 11016, Note_on_c, 0, 41, 0
6, 11040, Note_on_c, 0, 44, 80
6, 11088, Note_on_c, 0, 44, 0
6, 11100, Note_on_c, 0, 45, 80
6, 11148, Note_on_c, 0, 45, 0
6, 11160, Note_on_c, 0, 41, 80
6, 11256, Note_on_c, 0, 41, 0
6, 11280, Note_on_c, 0, 46, 80
6, 11376, Note_on_c, 0, 46, 0
6, 11400, Note_on_c, 0, 45, 80
6, 11496, Note_on_c, 0, 45, 0
6, 11520, Note_on_c, 0, 41, 80
6, 11616, Note_on_c, 0, 41, 0
6, 11640, Note_on_c, 0, 41, 80
6, 11736, Note_on_c, 0, 41, 0
6, 11760, Note_on_c, 0, 43, 80
6, 11856, Note_on_c, 0, 43, 0
6, 11880, Note_on_c, 0, 41, 80
6, 11976, Note_on_c, 0, 41, 0
6, 12000, Note_on_c, 0, 44, 80
6, 12048, Note_on_c, 0, 44, 0
6, 12060, Note_on_c, 0, 45, 80
6, 12108, Note_on_c, 0, 45, 0
6, 12120, Note_on_c, 0, 41, 80
6, 12216, Note_on_c, 0, 41, 0
6, 12240, Note_on_c, 0, 46, 80
6, 12336, Note_on_c, 0, 46, 0
6, 12360, Note_on_c, 0, 45, 80
6, 12456, Note_on_c, 0, 45, 0
6, 12480, Note_on_c, 0, 41, 80
6, 12576, Note_on_c, 0, 41, 0
6, 12600, Note_on_c, 0, 41, 80
6, 12696, Note_on_c, 0, 41, 0
6, 12720, Note_on_c, 0, 43, 80
6, 12816, Note_on_c, 0, 43, 0
6, 12840, Note_on_c, 0, 41, 80
6, 12936, Note_on_c, 0, 41, 0
6, 12960, Note_on_c, 0, 44, 80
6, 13008, Note_on_c, 0, 44, 0
6, 13020, Note_on_c, 0, 45, 80
6, 13068, Note_on_c, 0, 45, 0
6, 13080, Note_on_c, 0, 41, 80
6, 13176, Note_on_c, 0, 41, 0
6, 13200, Note_on_c, 0, 46, 80
6, 13296, Note_on_c, 0, 46, 0
6, 13320, Note_on_c, 0, 45, 80
6, 13416, Note_on_c, 0, 45, 0
6, 13440, Note_on_c, 0, 41, 80
6, 13536, Note_on_c, 0, 41, 0
6, 13560, Note_on_c, 0, 41, 80
6, 13656, Note_on_c, 0, 41, 0
6, 13680, Note_on_c, 0, 43, 80
6, 13776, Note_on_c, 0, 43, 0
6, 13800, Note_on_c, 0, 41, 80
6, 13896, Note_on_c, 0, 41, 0
6, 13920, Note_on_c, 0, 44, 80
6, 13968, Note_on_c, 0, 44, 0
6, 13980, Note_on_c, 0, 45, 80
6, 14028, Note_on_c, 0, 45, 0
6, 14040, Note_on_c, 0, 41, 80
6, 14136, Note_on_c, 0, 41, 0
6, 14160, Note_on_c, 0, 46, 80
6, 14256, Note_on_c, 0, 46, 0
6, 14280, Note_on_c, 0, 45, 80
6, 14376, Note_on_c, 0, 45, 0
6, 14400, Note_on_c, 0, 41, 80
6, 14496, Note_on_c, 0, 41, 0
6, 14520, Note_on_c, 0, 41, 80
6, 14616, Note_on_c, 0, 41, 0
6, 14640, Note_on_c, 0, 43, 80
6, 14736, Note_on_c, 0, 43, 0
6, 14760, Note_on_c, 0, 41, 80
6, 14856, Note_on_c, 0, 41, 0
6, 14880, Note_on_c, 0, 44, 80
6, 14928, Note_on_c, 0, 44, 0
6, 14940, Note_on_c, 0, 45, 80
6, 14988, Note_on_c, 0, 45, 0
6, 15000, Note_on_c, 0, 41, 80
6, 15096, Note_on_c, 0, 41, 0
6, 15120, Note_on_c, 0, 46, 80
6, 15216, Note_on_c, 0, 46, 0
6, 15240, Note_on_c, 0, 45, 80
6, 15336, Note_on_c, 0, 45, 0
6, 15360, Note_on_c, 0, 41, 80
6, 15456, Note_on_c, 0, 41, 0
6, 15480, Note_on_c, 0, 41, 80
6, 15576, Note_on_c, 0, 41, 0
6, 15600, Note_on_c, 0, 43, 80
6, 15696, Note_on_c, 0, 43, 0
6, 15720, Note_on_c, 0, 41, 80
6, 15816, Note_on_c, 0, 41, 0
6, 15840, Note_on_c, 0, 44, 80
6, 15888, Note_on_c, 0, 44, 0
6, 15900, Note_on_c, 0, 45, 80
6, 15948, Note_on_c, 0, 45, 0
6, 15960, Note_on_c, 0, 41, 80
6, 16056, Note_on_c, 0, 41, 0
6, 16080, Note_on_c, 0, 46, 80
6, 16176, Note_on_c, 0, 46, 0
6, 16200, Note_on_c, 0, 45, 80
6, 16296, Note_on_c, 0, 45, 0
6, 16320, Note_on_c, 0, 41, 80
6, 16416, Note_on_c, 0, 41, 0
6, 16440, Note_on_c, 0, 41, 80
6, 16536, Note_on_c, 0, 41, 0
6, 16560, Note_on_c, 0, 43, 80
6, 16656, Note_on_c, 0, 43, 0
6, 16680, Note_on_c, 0, 41, 80
6, 16776, Note_on_c, 0, 41, 0
6, 16800, Note_on_c, 0, 44, 80
6, 16848, Note_on_c, 0, 44, 0
6, 16860, Note_on_c, 0, 45, 80
6, 16908, Note_on_c, 0, 45, 0
6, 16920, Note_on_c, 0, 41, 80
6, 17016, Note_on_c, 0, 41, 0
6, 17040, Note_on_c, 0, 46, 80
6, 17136, Note_on_c, 0, 46, 0
6, 17160, Note_on_c, 0, 45, 80
6, 17256, Note_on_c, 0, 45, 0
6, 17280, Note_on_c, 0, 41, 80
6, 17376, Note_on_c, 0, 41, 0
6, 17400, Note_on_c, 0, 41, 80
6, 17496, Note_on_c, 0, 41, 0
6, 17520, Note_on_c, 0, 43, 80
6, 17616, Note_on_c, 0, 43, 0
6, 17640, Note_on_c, 0, 41, 80
6, 17736, Note_on_c, 0, 41, 0
6, 17760, Note_on_c, 0, 44, 80
6, 17808, Note_on_c, 0, 44, 0
6, 17820, Note_on_c, 0, 45, 80
6, 17868, Note_on_c, 0, 45, 0
6, 17880, Note_on_c, 0, 41, 80
6, 17976, Note_on_c, 0, 41, 0
6, 18000, Note_on_c, 0, 46, 80
6, 18096, Note_on_c, 0, 46, 0
6, 18120, Note_on_c, 0, 45, 80
6, 18216, Note_on_c, 0, 45, 0
6, 18240, Note_on_c, 0, 41, 80
6, 18336, Note_on_c, 0, 41, 0
6, 18360, Note_on_c, 0, 41, 80
6, 18456, Note_on_c, 0, 41, 0
6, 18480, Note_on_c, 0, 43, 80
6, 18576, Note_on_c, 0, 43, 0
6, 18600, Note_on_c, 0, 41, 80
6, 18696, Note_on_c, 0, 41, 0
6, 18720, Note_on_c, 0, 44, 80
6, 18768, Note_on_c, 0, 44, 0
6, 18780, Note_on_c, 0, 45, 80
6, 18828, Note_on_c, 0, 45, 0
6, 18840, Note_on_c, 0, 41, 80
6, 18936, Note_on_c, 0, 41, 0
6, 18960, Note_on_c, 0, 46, 80
6, 19056, Note_on_c, 0, 46, 0
6, 19080, Note_on_c, 0, 45, 80
6, 19176, Note_on_c, 0, 45, 0
6, 19200, Note_on_c, 0, 41, 80
6, 19296, Note_on_c, 0, 41, 0
6, 19320, Note_on_c, 0, 41, 80
6, 19416, Note_on_c, 0, 41, 0
6, 19440, Note_on_c, 0, 43, 80
6, 19536, Note_on_c, 0, 43, 0
6, 19560, Note_on_c, 0, 41, 80
6, 19656, Note_on_c, 0, 41, 0
6, 19680, Note_on_c, 0, 44, 80
6, 19728, Note_on_c, 0, 44, 0
6, 19740, Note_on_c, 0, 45, 80
6, 19788, Note_on_c, 0, 45, 0
6, 19800, Note_on_c, 0, 41, 80
6, 19896, Note_on_c, 0, 41, 0
6, 19920, Note_on_c, 0, 46, 80
6, 20016, Note_on_c, 0, 46, 0
6, 20040, Note_on_c, 0, 45, 80
6, 20136, Note_on_c, 0, 45, 0
6, 20160, Note_on_c, 0, 41, 80
6, 20256, Note_on_c, 0, 41, 0
6, 20280, Note_on_c, 0, 41, 80
6, 20376, Note_on_c, 0, 41, 0
6, 20400, Note_on_c, 0, 43, 80
6, 20496, Note_on_c, 0, 43, 0
6, 20520, Note_on_c, 0, 41, 80
6, 20616, Note_on_c, 0, 41, 0
6, 20640, Note_on_c, 0, 44, 80
6, 20688, Note_on_c, 0, 44, 0
6, 20700, Note_on_c, 0, 45, 80
6, 20748, Note_on_c, 0, 45, 0
6, 20760, Note_on_c, 0, 41, 80
6, 20856, Note_on_c, 0, 41, 0
6, 20880, Note_on_c, 0, 46, 80
6, 20976, Note_on_c, 0, 46, 0
6, 21000, Note_on_c, 0, 45, 80
6, 21096, Note_on_c, 0, 45, 0
6, 21120, Note_on_c, 0, 41, 80
6, 21216, Note_on_c, 0, 41, 0
6, 21840, Note_on_c, 0, 29, 80
6, 21840, Note_on_c, 0, 41, 80
6, 22032, Note_on_c, 0, 29, 0
6, 22032, Note_on_c, 0, 41, 0
6, 22680, Note_on_c, 0, 36, 80
6, 22680, Note_on_c, 0, 48, 80
6, 22776, Note_on_c, 0, 36, 0
6, 22776, Note_on_c, 0, 48, 0
6, 22800, Note_on_c, 0, 48, 80
6, 22800, Note_on_c, 0, 36, 80
6, 22896, Note_on_c, 0, 48, 0
6, 22896, Note_on_c, 0, 36, 0
6, 24120, Note_on_c, 0, 41, 80
6, 24216, Note_on_c, 0, 41, 0
6, 24240, Note_on_c, 0, 41, 80
6, 24336, Note_on_c, 0, 41, 0
6, 24360, Note_on_c, 0, 41, 80
6, 24456, Note_on_c, 0, 41, 0
6, 24480, Note_on_c, 0, 41, 80
6, 24576, Note_on_c, 0, 41, 0
6, 24600, Note_on_c, 0, 41, 80
6, 24696, Note_on_c, 0, 41, 0
6, 24720, Note_on_c, 0, 41, 80
6, 24816, Note_on_c, 0, 41, 0
6, 24840, Note_on_c, 0, 41, 80
6, 24936, Note_on_c, 0, 41, 0
6, 24960, Note_on_c, 0, 41, 80
6, 25056, Note_on_c, 0, 41, 0
6, 25080, Note_on_c, 0, 41, 80
6, 25176, Note_on_c, 0, 41, 0
6, 25200, Note_on_c, 0, 43, 80
6, 25296, Note_on_c, 0, 43, 0
6, 25320, Note_on_c, 0, 41, 80
6, 25416, Note_on_c, 0, 41, 0
6, 25440, Note_on_c, 0, 44, 80
6, 25488, Note_on_c, 0, 44, 0
6, 25500, Note_on_c, 0, 45, 80
6, 25548, Note_on_c, 0, 45, 0
6, 25560, Note_on_c, 0, 41, 80
6, 25656, Note_on_c, 0, 41, 0
6, 25680, Note_on_c, 0, 46, 80
6, 25776, Note_on_c, 0, 46, 0
6, 25800, Note_on_c, 0, 45, 80
6, 25896, Note_on_c, 0, 45, 0
6, 25920, Note_on_c, 0, 41, 80
6, 26016, Note_on_c, 0, 41, 0
6, 26040, Note_on_c, 0, 41, 80
6, 26136, Note_on_c, 0, 41, 0
6, 26160, Note_on_c, 0, 43, 80
6, 26256, Note_on_c, 0, 43, 0
6, 26280, Note_on_c, 0, 41, 80
6, 26376, Note_on_c, 0, 41, 0
6, 26400, Note_on_c, 0, 44, 80
6, 26448, Note_on_c, 0, 44, 0
6, 26460, Note_on_c, 0, 45, 80
6, 26508, Note_on_c, 0, 45, 0
6, 26520, Note_on_c, 0, 41, 80
6, 26616, Note_on_c, 0, 41, 0
6, 26640, Note_on_c, 0, 46, 80
6, 26736, Note_on_c, 0, 46, 0
6, 26760, Note_on_c, 0, 45, 80
6, 26856, Note_on_c, 0, 45, 0
6, 26880, Note_on_c, 0, 41, 80
6, 26976, Note_on_c, 0, 41, 0
6, 27000, Note_on_c, 0, 41, 80
6, 27096, Note_on_c, 0, 41, 0
6, 27120, Note_on_c, 0, 43, 80
6, 27216, Note_on_c, 0, 43, 0
6, 27240, Note_on_c, 0, 41, 80
6, 27336, Note_on_c, 0, 41, 0
6, 27360, Note_on_c, 0, 44, 80
6, 27408, Note_on_c, 0, 44, 0
6, 27420, Note_on_c, 0, 45, 80
6, 27468, Note_on_c, 0, 45, 0
6, 27480, Note_on_c, 0, 41, 80
6, 27576, Note_on_c, 0, 41, 0
6, 27600, Note_on_c, 0, 46, 80
6, 27696, Note_on_c, 0, 46, 0
6, 27720, Note_on_c, 0, 45, 80
6, 27816, Note_on_c, 0, 45, 0
6, 27840, Note_on_c, 0, 41, 80
6, 27936, Note_on_c, 0, 41, 0
6, 27960, Note_on_c, 0, 41, 80
6, 28056, Note_on_c, 0, 41, 0
6, 28080, Note_on_c, 0, 43, 80
6, 28176, Note_on_c, 0, 43, 0
6, 28200, Note_on_c, 0, 41, 80
6, 28296, Note_on_c, 0, 41, 0
6, 28320, Note_on_c, 0, 44, 80
6, 28368, Note_on_c, 0, 44, 0
6, 28380, Note_on_c, 0, 45, 80
6, 28428, Note_on_c, 0, 45, 0
6, 28440, Note_on_c, 0, 41, 80
6, 28536, Note_on_c, 0, 41, 0
6, 28560, Note_on_c, 0, 46, 80
6, 28656, Note_on_c, 0, 46, 0
6, 28680, Note_on_c, 0, 45, 80
6, 28776, Note_on_c, 0, 45, 0
6, 28800, Note_on_c, 0, 41, 80
6, 28896, Note_on_c, 0, 41, 0
6, 28920, Note_on_c, 0, 41, 80
6, 29016, Note_on_c, 0, 41, 0
6, 29040, Note_on_c, 0, 43, 80
6, 29136, Note_on_c, 0, 43, 0
6, 29160, Note_on_c, 0, 41, 80
6, 29256, Note_on_c, 0, 41, 0
6, 29280, Note_on_c, 0, 44, 80
6, 29328, Note_on_c, 0, 44, 0
6, 29340, Note_on_c, 0, 45, 80
6, 29388, Note_on_c, 0, 45, 0
6, 29400, Note_on_c, 0, 41, 80
6, 29496, Note_on_c, 0, 41, 0
6, 29520, Note_on_c, 0, 46, 80
6, 29616, Note_on_c, 0, 46, 0
6, 29640, Note_on_c, 0, 45, 80
6, 29736, Note_on_c, 0, 45, 0
6, 29760, Note_on_c, 0, 41, 80
6, 29856, Note_on_c, 0, 41, 0
6, 29880, Note_on_c, 0, 41, 80
6, 29976, Note_on_c, 0, 41, 0
6, 30000, Note_on_c, 0, 43, 80
6, 30096, Note_on_c, 0, 43, 0
6, 30120, Note_on_c, 0, 41, 80
6, 30216, Note_on_c, 0, 41, 0
6, 30240, Note_on_c, 0, 44, 80
6, 30288, Note_on_c, 0, 44, 0
6, 30300, Note_on_c, 0, 45, 80
6, 30348, Note_on_c, 0, 45, 0
6, 30360, Note_on_c, 0, 41, 80
6, 30456, Note_on_c, 0, 41, 0
6, 30480, Note_on_c, 0, 46, 80
6, 30576, Note_on_c, 0, 46, 0
6, 30600, Note_on_c, 0, 45, 80
6, 30696, Note_on_c, 0, 45, 0
6, 30720, Note_on_c, 0, 41, 80
6, 30816, Note_on_c, 0, 41, 0
6, 30840, Note_on_c, 0, 41, 80
6, 30936, Note_on_c, 0, 41, 0
6, 30960, Note_on_c, 0, 43, 80
6, 31056, Note_on_c, 0, 43, 0
6, 31080, Note_on_c, 0, 41, 80
6, 31176, Note_on_c, 0, 41, 0
6, 31200, Note_on_c, 0, 44, 80
6, 31248, Note_on_c, 0, 44, 0
6, 31260, Note_on_c, 0, 45, 80
6, 31308, Note_on_c, 0, 45, 0
6, 31320, Note_on_c, 0, 41, 80
6, 31416, Note_on_c, 0, 41, 0
6, 31440, Note_on_c, 0, 46, 80
6, 31536, Note_on_c, 0, 46, 0
6, 31560, Note_on_c, 0, 45, 80
6, 31656, Note_on_c, 0, 45, 0
6, 31680, Note_on_c, 0, 41, 80
6, 31776, Note_on_c, 0, 41, 0
6, 31800, Note_on_c, 0, 41, 80
6, 31896, Note_on_c, 0, 41, 0
6, 31920, Note_on_c, 0, 43, 80
6, 32016, Note_on_c, 0, 43, 0
6, 32040, Note_on_c, 0, 41, 80
6, 32136, Note_on_c, 0, 41, 0
6, 32160, Note_on_c, 0, 44, 80
6, 32208, Note_on_c, 0, 44, 0
6, 32220, Note_on_c, 0, 45, 80
6, 32268, Note_on_c, 0, 45, 0
6, 32280, Note_on_c, 0, 41, 80
6, 32376, Note_on_c, 0, 41, 0
6, 32400, Note_on_c, 0, 46, 80
6, 32496, Note_on_c, 0, 46, 0
6, 32520, Note_on_c, 0, 45, 80
6, 32616, Note_on_c, 0, 45, 0
6, 32640, Note_on_c, 0, 41, 80
6, 32736, Note_on_c, 0, 41, 0
6, 32760, Note_on_c, 0, 41, 80
6, 32856, Note_on_c, 0, 41, 0
6, 32880, Note_on_c, 0, 43, 80
6, 32976, Note_on_c, 0, 43, 0
6, 33000, Note_on_c, 0, 41, 80
6, 33096, Note_on_c, 0, 41, 0
6, 33120, Note_on_c, 0, 44, 80
6, 33168, Note_on_c, 0, 44, 0
6, 33180, Note_on_c, 0, 45, 80
6, 33228, Note_on_c, 0, 45, 0
6, 33240, Note_on_c, 0, 41, 80
6, 33336, Note_on_c, 0, 41, 0
6, 33360, Note_on_c, 0, 46, 80
6, 33456, Note_on_c, 0, 46, 0
6, 33480, Note_on_c, 0, 45, 80
6, 33576, Note_on_c, 0, 45, 0
6, 33600, Note_on_c, 0, 41, 80
6, 33696, Note_on_c, 0, 41, 0
6, 33720, Note_on_c, 0, 41, 80
6, 33816, Note_on_c, 0, 41, 0
6, 33840, Note_on_c, 0, 43, 80
6, 33936, Note_on_c, 0, 43, 0
6, 33960, Note_on_c, 0, 41, 80
6, 34056, Note_on_c, 0, 41, 0
6, 34080, Note_on_c, 0, 44, 80
6, 34128, Note_on_c, 0, 44, 0
6, 34140, Note_on_c, 0, 45, 80
6, 34188, Note_on_c, 0, 45, 0
6, 34200, Note_on_c, 0, 41, 80
6, 34296, Note_on_c, 0, 41, 0
6, 34320, Note_on_c, 0, 46, 80
6, 34416, Note_on_c, 0, 46, 0
6, 34440, Note_on_c, 0, 45, 80
6, 34536, Note_on_c, 0, 45, 0
6, 34560, Note_on_c, 0, 41, 80
6, 34656, Note_on_c, 0, 41, 0
6, 34680, Note_on_c, 0, 41, 80
6, 34776, Note_on_c, 0, 41, 0
6, 34800, Note_on_c, 0, 43, 80
6, 34896, Note_on_c, 0, 43, 0
6, 34920, Note_on_c, 0, 41, 80
6, 35016, Note_on_c, 0, 41, 0
6, 35040, Note_on_c, 0, 44, 80
6, 35088, Note_on_c, 0, 44, 0
6, 35100, Note_on_c, 0, 45, 80
6, 35148, Note_on_c, 0, 45, 0
6, 35160, Note_on_c, 0, 41, 80
6, 35256, Note_on_c, 0, 41, 0
6, 35280, Note_on_c, 0, 46, 80
6, 35376, Note_on_c, 0, 46, 0
6, 35400, Note_on_c, 0, 45, 80
6, 35496, Note_on_c, 0, 45, 0
6, 35520, Note_on_c, 0, 41, 80
6, 35616, Note_on_c, 0, 41, 0
6, 35640, Note_on_c, 0, 41, 80
6, 35736, Note_on_c, 0, 41, 0
6, 35760, Note_on_c, 0, 43, 80
6, 35856, Note_on_c, 0, 43, 0
6, 35880, Note_on_c, 0, 41, 80
6, 35976, Note_on_c, 0, 41, 0
6, 36000, Note_on_c, 0, 44, 80
6, 36048, Note_on_c, 0, 44, 0
6, 36060, Note_on_c, 0, 45, 80
6, 36108, Note_on_c, 0, 45, 0
6, 36120, Note_on_c, 0, 41, 80
6, 36216, Note_on_c, 0, 41, 0
6, 36240, Note_on_c, 0, 46, 80
6, 36336, Note_on_c, 0, 46, 0
6, 36360, Note_on_c, 0, 45, 80
6, 36456, Note_on_c, 0, 45, 0
6, 36480, Note_on_c, 0, 41, 80
6, 36576, Note_on_c, 0, 41, 0
6, 36600, Note_on_c, 0, 41, 80
6, 36696, Note_on_c, 0, 41, 0
6, 36720, Note_on_c, 0, 43, 80
6, 36816, Note_on_c, 0, 43, 0
6, 36840, Note_on_c, 0, 41, 80
6, 36936, Note_on_c, 0, 41, 0
6, 36960, Note_on_c, 0, 44, 80
6, 37008, Note_on_c, 0, 44, 0
6, 37020, Note_on_c, 0, 45, 80
6, 37068, Note_on_c, 0, 45, 0
6, 37080, Note_on_c, 0, 41, 80
6, 37176, Note_on_c, 0, 41, 0
6, 37200, Note_on_c, 0, 46, 80
6, 37296, Note_on_c, 0, 46, 0
6, 37320, Note_on_c, 0, 45, 80
6, 37416, Note_on_c, 0, 45, 0
6, 37440, Note_on_c, 0, 41, 80
6, 37536, Note_on_c, 0, 41, 0
6, 37560, Note_on_c, 0, 41, 80
6, 37656, Note_on_c, 0, 41, 0
6, 37680, Note_on_c, 0, 43, 80
6, 37776, Note_on_c, 0, 43, 0
6, 37800, Note_on_c, 0, 41, 80
6, 37896, Note_on_c, 0, 41, 0
6, 37920, Note_on_c, 0, 44, 80
6, 37968, Note_on_c, 0, 44, 0
6, 37980, Note_on_c, 0, 45, 80
6, 38028, Note_on_c, 0, 45, 0
6, 38040, Note_on_c, 0, 41, 80
6, 38136, Note_on_c, 0, 41, 0
6, 38160, Note_on_c, 0, 46, 80
6, 38256, Note_on_c, 0, 46, 0
6, 38280, Note_on_c, 0, 45, 80
6, 38376, Note_on_c, 0, 45, 0
6, 38400, Note_on_c, 0, 41, 80
6, 38496, Note_on_c, 0, 41, 0
6, 38520, Note_on_c, 0, 41, 80
6, 38616, Note_on_c, 0, 41, 0
6, 38640, Note_on_c, 0, 43, 80
6, 38736, Note_on_c, 0, 43, 0
6, 38760, Note_on_c, 0, 41, 80
6, 38856, Note_on_c, 0, 41, 0
6, 38880, Note_on_c, 0, 44, 80
6, 38928, Note_on_c, 0, 44, 0
6, 38940, Note_on_c, 0, 45, 80
6, 38988, Note_on_c, 0, 45, 0
6, 39000, Note_on_c, 0, 41, 80
6, 39096, Note_on_c, 0, 41, 0
6, 39120, Note_on_c, 0, 46, 80
6, 39216, Note_on_c, 0, 46, 0
6, 39240, Note_on_c, 0, 45, 80
6, 39336, Note_on_c, 0, 45, 0
6, 39360, Note_on_c, 0, 41, 80
6, 39456, Note_on_c, 0, 41, 0
6, 39480, Note_on_c, 0, 41, 80
6, 39576, Note_on_c, 0, 41, 0
6, 39600, Note_on_c, 0, 43, 80
6, 39696, Note_on_c, 0, 43, 0
6, 39720, Note_on_c, 0, 41, 80
6, 39816, Note_on_c, 0, 41, 0
6, 39840, Note_on_c, 0, 44, 80
6, 39888, Note_on_c, 0, 44, 0
6, 39900, Note_on_c, 0, 45, 80
6, 39948, Note_on_c, 0, 45, 0
6, 39960, Note_on_c, 0, 41, 80
6, 40056, Note_on_c, 0, 41, 0
6, 40080, Note_on_c, 0, 46, 80
6, 40176, Note_on_c, 0, 46, 0
6, 40200, Note_on_c, 0, 45, 80
6, 40296, Note_on_c, 0, 45, 0
6, 40320, Note_on_c, 0, 41, 80
6, 40416, Note_on_c, 0, 41, 0
6, 40440, Note_on_c, 0, 41, 80
6, 40536, Note_on_c, 0, 41, 0
6, 40560, Note_on_c, 0, 43, 80
6, 40656, Note_on_c, 0, 43, 0
6, 40680, Note_on_c, 0, 41, 80
6, 40776, Note_on_c, 0, 41, 0
6, 40800, Note_on_c, 0, 44, 80
6, 40848, Note_on_c, 0, 44, 0
6, 40860, Note_on_c, 0, 45, 80
6, 40908, Note_on_c, 0, 45, 0
6, 40920, Note_on_c, 0, 41, 80
6, 41016, Note_on_c, 0, 41, 0
6, 41040, Note_on_c, 0, 46, 80
6, 41136, Note_on_c, 0, 46, 0
6, 41160, Note_on_c, 0, 45, 80
6, 41256, Note_on_c, 0, 45, 0
6, 41280, Note_on_c, 0, 41, 80
6, 41376, Note_on_c, 0, 41, 0
6, 41400, Note_on_c, 0, 41, 80
6, 41496, Note_on_c, 0, 41, 0
6, 41520, Note_on_c, 0, 43, 80
6, 41616, Note_on_c, 0, 43, 0
6, 41640, Note_on_c, 0, 41, 80
6, 41736, Note_on_c, 0, 41, 0
6, 41760, Note_on_c, 0, 44, 80
6, 41808, Note_on_c, 0, 44, 0
6, 41820, Note_on_c, 0, 45, 80
6, 41868, Note_on_c, 0, 45, 0
6, 41880, Note_on_c, 0, 41, 80
6, 41976, Note_on_c, 0, 41, 0
6, 42000, Note_on_c, 0, 46, 80
6, 42096, Note_on_c, 0, 46, 0
6, 42120, Note_on_c, 0, 45, 80
6, 42216, Note_on_c, 0, 45, 0
6, 42240, Note_on_c, 0, 41, 80
6, 42336, Note_on_c, 0, 41, 0
6, 42360, Note_on_c, 0, 41, 80
6, 42456, Note_on_c, 0, 41, 0
6, 42480, Note_on_c, 0, 43, 80
6, 42576, Note_on_c, 0, 43, 0
6, 42600, Note_on_c, 0, 41, 80
6, 42696, Note_on_c, 0, 41, 0
6, 42720, Note_on_c, 0, 44, 80
6, 42768, Note_on_c, 0, 44, 0
6, 42780, Note_on_c, 0, 45, 80
6, 42828, Note_on_c, 0, 45, 0
6, 42840, Note_on_c, 0, 41, 80
6, 42936, Note_on_c, 0, 41, 0
6, 42960, Note_on_c, 0, 46, 80
6, 43056, Note_on_c, 0, 46, 0
6, 43080, Note_on_c, 0, 45, 80
6, 43176, Note_on_c, 0, 45, 0
6, 43200, Note_on_c, 0, 41, 80
6, 43296, Note_on_c, 0, 41, 0
6, 43320, Note_on_c, 0, 41, 80
6, 43416, Note_on_c, 0, 41, 0
6, 43440, Note_on_c, 0, 43, 80
6, 43536, Note_on_c, 0, 43, 0
6, 43560, Note_on_c, 0, 41, 80
6, 43656, Note_on_c, 0, 41, 0
6, 43680, Note_on_c, 0, 44, 80
6, 43728, Note_on_c, 0, 44, 0
6, 43740, Note_on_c, 0, 45, 80
6, 43788, Note_on_c, 0, 45, 0
6, 43800, Note_on_c, 0, 41, 80
6, 43896, Note_on_c, 0, 41, 0
6, 43920, Note_on_c, 0, 46, 80
6, 44016, Note_on_c, 0, 46, 0
6, 44040, Note_on_c, 0, 45, 80
6, 44136, Note_on_c, 0, 45, 0
6, 44160, Note_on_c, 0, 41, 80
6, 44256, Note_on_c, 0, 41, 0
6, 44280, Note_on_c, 0, 41, 80
6, 44376, Note_on_c, 0, 41, 0
6, 44400, Note_on_c, 0, 43, 80
6, 44496, Note_on_c, 0, 43, 0
6, 44520, Note_on_c, 0, 41, 80
6, 44616, Note_on_c, 0, 41, 0
6, 44640, Note_on_c, 0, 44, 80
6, 44688, Note_on_c, 0, 44, 0
6, 44700, Note_on_c, 0, 45, 80
6, 44748, Note_on_c, 0, 45, 0
6, 44760, Note_on_c, 0, 41, 80
6, 44856, Note_on_c, 0, 41, 0
6, 44880, Note_on_c, 0, 46, 80
6, 44976, Note_on_c, 0, 46, 0
6, 45000, Note_on_c, 0, 45, 80
6, 45096, Note_on_c, 0, 45, 0
6, 45120, Note_on_c, 0, 41, 80
6, 45216, Note_on_c, 0, 41, 0
6, 45240, Note_on_c, 0, 41, 80
6, 45336, Note_on_c, 0, 41, 0
6, 45360, Note_on_c, 0, 43, 80
6, 45456, Note_on_c, 0, 43, 0
6, 45480, Note_on_c, 0, 41, 80
6, 45576, Note_on_c, 0, 41, 0
6, 45600, Note_on_c, 0, 44, 80
6, 45648, Note_on_c, 0, 44, 0
6, 45660, Note_on_c, 0, 45, 80
6, 45708, Note_on_c, 0, 45, 0
6, 45720, Note_on_c, 0, 41, 80
6, 45816, Note_on_c, 0, 41, 0
6, 45840, Note_on_c, 0, 46, 80
6, 45936, Note_on_c, 0, 46, 0
6, 45960, Note_on_c, 0, 45, 80
6, 46056, Note_on_c, 0, 45, 0
6, 46080, Note_on_c, 0, 41, 80
6, 46176, Note_on_c, 0, 41, 0
6, 46200, Note_on_c, 0, 41, 80
6, 46296, Note_on_c, 0, 41, 0
6, 46320, Note_on_c, 0, 43, 80
6, 46416, Note_on_c, 0, 43, 0
6, 46440, Note_on_c, 0, 41, 80
6, 46536, Note_on_c, 0, 41, 0
6, 46560, Note_on_c, 0, 44, 80
6, 46608, Note_on_c, 0, 44, 0
6, 46620, Note_on_c, 0, 45, 80
6, 46668, Note_on_c, 0, 45, 0
6, 46680, Note_on_c, 0, 41, 80
6, 46776, Note_on_c, 0, 41, 0
6, 46800, Note_on_c, 0, 46, 80
6, 46896, Note_on_c, 0, 46, 0
6, 46920, Note_on_c, 0, 45, 80
6, 47016, Note_on_c, 0, 45, 0
6, 47040, Note_on_c, 0, 41, 80
6, 47136, Note_on_c, 0, 41, 0
6, 47160, Note_on_c, 0, 41, 80
6, 47256, Note_on_c, 0, 41, 0
6, 47280, Note_on_c, 0, 43, 80
6, 47376, Note_on_c, 0, 43, 0
6, 47400, Note_on_c, 0, 41, 80
6, 47496, Note_on_c, 0, 41, 0
6, 47520, Note_on_c, 0, 44, 80
6, 47568, Note_on_c, 0, 44, 0
6, 47580, Note_on_c, 0, 45, 80
6, 47628, Note_on_c, 0, 45, 0
6, 47640, Note_on_c, 0, 41, 80
6, 47736, Note_on_c, 0, 41, 0
6, 47760, Note_on_c, 0, 46, 80
6, 47856, Note_on_c, 0, 46, 0
6, 47880, Note_on_c, 0, 45, 80
6, 47976, Note_on_c, 0, 45, 0
6, 48000, Note_on_c, 0, 41, 80
6, 48096, Note_on_c, 0, 41, 0
6, 48120, Note_on_c, 0, 41, 80
6, 48216, Note_on_c, 0, 41, 0
6, 48240, Note_on_c, 0, 43, 80
6, 48336, Note_on_c, 0, 43, 0
6, 48360, Note_on_c, 0, 41, 80
6, 48456, Note_on_c, 0, 41, 0
6, 48480, Note_on_c, 0, 44, 80
6, 48528, Note_on_c, 0, 44, 0
6, 48540, Note_on_c, 0, 45, 80
6, 48588, Note_on_c, 0, 45, 0
6, 48600, Note_on_c, 0, 41, 80
6, 48696, Note_on_c, 0, 41, 0
6, 48720, Note_on_c, 0, 46, 80
6, 48816, Note_on_c, 0, 46, 0
6, 48840, Note_on_c, 0, 45, 80
6, 48936, Note_on_c, 0, 45, 0
6, 48960, Note_on_c, 0, 41, 80
6, 49056, Note_on_c, 0, 41, 0
6, 49080, Note_on_c, 0, 41, 80
6, 49176, Note_on_c, 0, 41, 0
6, 49200, Note_on_c, 0, 43, 80
6, 49296, Note_on_c, 0, 43, 0
6, 49320, Note_on_c, 0, 41, 80
6, 49416, Note_on_c, 0, 41, 0
6, 49440, Note_on_c, 0, 44, 80
6, 49488, Note_on_c, 0, 44, 0
6, 49500, Note_on_c, 0, 45, 80
6, 49548, Note_on_c, 0, 45, 0
6, 49560, Note_on_c, 0, 41, 80
6, 49656, Note_on_c, 0, 41, 0
6, 49680, Note_on_c, 0, 46, 80
6, 49776, Note_on_c, 0, 46, 0
6, 49800, Note_on_c, 0, 45, 80
6, 49896, Note_on_c, 0, 45, 0
6, 49920, Note_on_c, 0, 41, 80
6, 50016, Note_on_c, 0, 41, 0
6, 50040, Note_on_c, 0, 41, 80
6, 50136, Note_on_c, 0, 41, 0
6, 50160, Note_on_c, 0, 43, 80
6, 50256, Note_on_c, 0, 43, 0
6, 50280, Note_on_c, 0, 41, 80
6, 50376, Note_on_c, 0, 41, 0
6, 50400, Note_on_c, 0, 44, 80
6, 50448, Note_on_c, 0, 44, 0
6, 50460, Note_on_c, 0, 45, 80
6, 50508, Note_on_c, 0, 45, 0
6, 50520, Note_on_c, 0, 41, 80
6, 50616, Note_on_c, 0, 41, 0
6, 50640, Note_on_c, 0, 46, 80
6, 50736, Note_on_c, 0, 46, 0
6, 50760, Note_on_c, 0, 45, 80
6, 50856, Note_on_c, 0, 45, 0
6, 50880, Note_on_c, 0, 41, 80
6, 50976, Note_on_c, 0, 41, 0
6, 51000, Note_on_c, 0, 41, 80
6, 51096, Note_on_c, 0, 41, 0
6, 51120, Note_on_c, 0, 43, 80
6, 51216, Note_on_c, 0, 43, 0
6, 51240, Note_on_c, 0, 41, 80
6, 51336, Note_on_c, 0, 41, 0
6, 51360, Note_on_c, 0, 44, 80
6, 51408, Note_on_c, 0, 44, 0
6, 51420, Note_on_c, 0, 45, 80
6, 51468, Note_on_c, 0, 45, 0
6, 51480, Note_on_c, 0, 41, 80
6, 51576, Note_on_c, 0, 41, 0
6, 51600, Note_on_c, 0, 46, 80
6, 51696, Note_on_c, 0, 46, 0
6, 51720, Note_on_c, 0, 45, 80
6, 51816, Note_on_c, 0, 45, 0
6, 51840, Note_on_c, 0, 41, 80
6, 51936, Note_on_c, 0, 41, 0
6, 51960, Note_on_c, 0, 41, 80
6, 52056, Note_on_c, 0, 41, 0
6, 52080, Note_on_c, 0, 43, 80
6, 52176, Note_on_c, 0, 43, 0
6, 52200, Note_on_c, 0, 41, 80
6, 52296, Note_on_c, 0, 41, 0
6, 52320, Note_on_c, 0, 44, 80
6, 52368, Note_on_c, 0, 44, 0
6, 52380, Note_on_c, 0, 45, 80
6, 52428, Note_on_c, 0, 45, 0
6, 52440, Note_on_c, 0, 41, 80
6, 52536, Note_on_c, 0, 41, 0
6, 52560, Note_on_c, 0, 46, 80
6, 52656, Note_on_c, 0, 46, 0
6, 52680, Note_on_c, 0, 45, 80
6, 52776, Note_on_c, 0, 45, 0
6, 52800, Note_on_c, 0, 41, 80
6, 52896, Note_on_c, 0, 41, 0
6, 52920, Note_on_c, 0, 41, 80
6, 53016, Note_on_c, 0, 41, 0
6, 53040, Note_on_c, 0, 43, 80
6, 53136, Note_on_c, 0, 43, 0
6, 53160, Note_on_c, 0, 41, 80
6, 53256, Note_on_c, 0, 41, 0
6, 53280, Note_on_c, 0, 44, 80
6, 53328, Note_on_c, 0, 44, 0
6, 53340, Note_on_c, 0, 45, 80
6, 53388, Note_on_c, 0, 45, 0
6, 53400, Note_on_c, 0, 41, 80
6, 53496, Note_on_c, 0, 41, 0
6, 53520, Note_on_c, 0, 46, 80
6, 53616, Note_on_c, 0, 46, 0
6, 53640, Note_on_c, 0, 45, 80
6, 53736, Note_on_c, 0, 45, 0
6, 53760, Note_on_c, 0, 41, 80
6, 53856, Note_on_c, 0, 41, 0
6, 53880, Note_on_c, 0, 41, 80
6, 53976, Note_on_c, 0, 41, 0
6, 54000, Note_on_c, 0, 43, 80
6, 54096, Note_on_c, 0, 43, 0
6, 54120, Note_on_c, 0, 41, 80
6, 54216, Note_on_c, 0, 41, 0
6, 54240, Note_on_c, 0, 44, 80
6, 54288, Note_on_c, 0, 44, 0
6, 54300, Note_on_c, 0, 45, 80
6, 54348, Note_on_c, 0, 45, 0
6, 54360, Note_on_c, 0, 41, 80
6, 54456, Note_on_c, 0, 41, 0
6, 54480, Note_on_c, 0, 46, 80
6, 54576, Note_on_c, 0, 46, 0
6, 54600, Note_on_c, 0, 45, 80
6, 54696, Note_on_c, 0, 45, 0
6, 54720, Note_on_c, 0, 41, 80
6, 54816, Note_on_c, 0, 41, 0
6, 54840, Note_on_c, 0, 41, 80
6, 54936, Note_on_c, 0, 41, 0
6, 54960, Note_on_c, 0, 43, 80
6, 55056, Note_on_c, 0, 43, 0
6, 55080, Note_on_c, 0, 41, 80
6, 55176, Note_on_c, 0, 41, 0
6, 55200, Note_on_c, 0, 44, 80
6, 55248, Note_on_c, 0, 44, 0
6, 55260, Note_on_c, 0, 45, 80
6, 55308, Note_on_c, 0, 45, 0
6, 55320, Note_on_c, 0, 41, 80
6, 55416, Note_on_c, 0, 41, 0
6, 55440, Note_on_c, 0, 46, 80
6, 55536, Note_on_c, 0, 46, 0
6, 55560, Note_on_c, 0, 45, 80
6, 55656, Note_on_c, 0, 45, 0
6, 55680, Note_on_c, 0, 41, 80
6, 55776, Note_on_c, 0, 41, 0
6, 55800, Note_on_c, 0, 41, 80
6, 55896, Note_on_c, 0, 41, 0
6, 55920, Note_on_c, 0, 43, 80
6, 56016, Note_on_c, 0, 43, 0
6, 56040, Note_on_c, 0, 41, 80
6, 56136, Note_on_c, 0, 41, 0
6, 56160, Note_on_c, 0, 44, 80
6, 56208, Note_on_c, 0, 44, 0
6, 56220, Note_on_c, 0, 45, 80
6, 56268, Note_on_c, 0, 45, 0
6, 56280, Note_on_c, 0, 41, 80
6, 56376, Note_on_c, 0, 41, 0
6, 56400, Note_on_c, 0, 46, 80
6, 56496, Note_on_c, 0, 46, 0
6, 56520, Note_on_c, 0, 45, 80
6, 56616, Note_on_c, 0, 45, 0
6, 56640, Note_on_c, 0, 41, 80
6, 56736, Note_on_c, 0, 41, 0
6, 56760, Note_on_c, 0, 41, 80
6, 56856, Note_on_c, 0, 41, 0
6, 56880, Note_on_c, 0, 43, 80
6, 56976, Note_on_c, 0, 43, 0
6, 57000, Note_on_c, 0, 41, 80
6, 57096, Note_on_c, 0, 41, 0
6, 57120, Note_on_c, 0, 44, 80
6, 57168, Note_on_c, 0, 44, 0
6, 57180, Note_on_c, 0, 45, 80
6, 57228, Note_on_c, 0, 45, 0
6, 57240, Note_on_c, 0, 41, 80
6, 57336, Note_on_c, 0, 41, 0
6, 57360, Note_on_c, 0, 46, 80
6, 57456, Note_on_c, 0, 46, 0
6, 57480, Note_on_c, 0, 45, 80
6, 57576, Note_on_c, 0, 45, 0
6, 57600, Note_on_c, 0, 49, 80
6, 57792, Note_on_c, 0, 49, 0
6, 57840, Note_on_c, 0, 49, 80
6, 58032, Note_on_c, 0, 49, 0
6, 58080, Note_on_c, 0, 49, 80
6, 58272, Note_on_c, 0, 49, 0
6, 58320, Note_on_c, 0, 49, 80
6, 58512, Note_on_c, 0, 49, 0
6, 58560, Note_on_c, 0, 49, 80
6, 58752, Note_on_c, 0, 49, 0
6, 58800, Note_on_c, 0, 49, 80
6, 58992, Note_on_c, 0, 49, 0
6, 59040, Note_on_c, 0, 49, 80
6, 59232, Note_on_c, 0, 49, 0
6, 59280, Note_on_c, 0, 49, 80
6, 59376, Note_on_c, 0, 49, 0
6, 59400, Note_on_c, 0, 48, 80
6, 60288, Note_on_c, 0, 48, 0
6, 60288, End_track
0, 0, End_of_file
